<svg xmlns:ffdec="https://www.free-decompiler.com/flash" xmlns:xlink="http://www.w3.org/1999/xlink" ffdec:objectType="frame" height="90" width="90" xmlns="http://www.w3.org/2000/svg"><use ffdec:characterId="31" height="160.7" transform="matrix(.5484 0 0 .548 .63 .877)" width="160.45" xlink:href="#a"/><defs><g id="a" transform="translate(-1.15 -1.6)"><use ffdec:characterId="1" height="9.8" transform="matrix(1.1627 0 0 2.1905 51.986 140.817)" width="55.5" xlink:href="#b"/><use ffdec:characterId="3" height="8.65" transform="translate(69.55 118.1) scale(1.5303)" width="8.6" xlink:href="#c"/><use ffdec:characterId="5" height="6.55" transform="translate(61.6 112.15) scale(1.5303)" width="5.45" xlink:href="#d"/><use ffdec:characterId="10" height="12.5" transform="translate(91.511 114.197) scale(1.5303)" width="20.05" xlink:href="#e"/><use ffdec:characterId="12" height="22.2" transform="translate(67.5 94.4) scale(1.5303)" width="17.45" xlink:href="#f"/><use ffdec:characterId="14" height="49.3" transform="translate(84.45 65.95) scale(1.0171)" width="74.8" xlink:href="#g"/><use ffdec:characterId="16" height="42" transform="translate(1.6 66.45) scale(1.0171)" width="78.05" xlink:href="#h"/><use ffdec:characterId="18" height="42.25" transform="translate(25.15 2.55) scale(1.5303)" width="20.7" xlink:href="#i"/><use ffdec:characterId="24" height="56.25" transform="translate(18.8 37.35) scale(1.5303)" width="59.1" xlink:href="#j"/><use ffdec:characterId="26" height="43.55" transform="translate(60 1.6) scale(1.5303)" width="39.75" xlink:href="#k"/><use ffdec:characterId="28" height="5.9" transform="translate(72.55 110.9) scale(1.5303)" width="6" xlink:href="#l"/><use ffdec:characterId="30" height="10.75" transform="translate(80.05 116.75) scale(1.5303)" width="7.2" xlink:href="#m"/></g><g id="w" fill-rule="evenodd"><path d="m6.35 5.85-.5.75.6.65.55.15q.6-.45 0-1.45l-.65-.1m-1.3 1.5Q4.5 5.25 6.3 4.6 8 4.5 8.55 6.35q.3 1.4-1 2.15-1.65.55-2.45-1.05l-.05-.1" fill="#0668c3"/><path d="m6.45 7.25-.6-.65.5-.75.1 1.4" fill="#53bcfe"/><path d="m6.35 5.85.65.1q.6 1 0 1.45l-.55-.15-.1-1.4" fill="#008ad9"/><path d="M.15 1.5Q3.5 6.2 5.5 6.3l.35.3-.9.85Q1.85 7.4 0 2.15v-.2l.15-.45" fill="#0668c3"/><path d="m5.85 6.6-.35-.3q-2-.1-5.35-4.8 4.2 4.45 6.2 4.35l-.5.75" fill="#54b7fb"/><path d="M6.35 5.85q-2 .1-6.2-4.35Q.8-.6 3.85.2q3 1.95 2.95 3.85l-.45 1.8" fill="#0288dd"/></g><g id="x" fill-rule="evenodd"><path d="M3.75 0q1 .15 1.25.75.9 1.55-.1 4.75-1.4 1.25-2.8 1Q.5 5.65 0 3.55.25-.15 3.75 0m-.8 5.15q.9-.05 1.5-.65.35-1.5 0-3.35L4.35.9V.85L4.3.7 3.2.55q-1.5 0-2 2.1-.2 1.65 1 2.5h.75" fill="#0668c3"/><path d="M2.95 5.15H2.2q-1.2-.85-1-2.5.5-2.1 2-2.1l-.8 1.7q-.6 1.8.55 2.9" fill="#70c6f9"/><path d="M3.2.55 4.3.7l.05.15V.9l.1.25Q4.8 3 4.45 4.5q-.6.6-1.5.65-1.15-1.1-.55-2.9l.8-1.7" fill="#028bd3"/></g><g id="y" fill-rule="evenodd"><path d="m1.7.5 1.1.6.2.05 5.8.95q4.8.4 7.65 2.95 3.1 3.4 2.2 6.55-.3 1.35-1.15.45-.2-1.4-2.1-2.95-1.9-1.95-7.35-1.75l-7.45.8-.15.05L.2 7.15l2.3-.5.6-.15.2-.05q4.6-.8 8.9-.15 2.9.55 5.65 3.85-.55-4.55-5.65-6.4Q3.65 3 1.7 2.05l-1.2-.7L.7.7.95.5l.1-.25.65.25" fill="#0668c3"/><path d="m.5 1.35 1.2.7q1.95.95 10.5 1.7 5.1 1.85 5.65 6.4-2.75-3.3-5.65-3.85-4.3-.65-8.9.15h-.2L.15 6.6q-.3-2.05 0-3.85 1.45.65 3.35.85Q1.8 3.05.25 2.2l.25-.85" fill="#52baf9"/><path d="M1.7.5 1.05.25l.1-.25.55.5" fill="#fff"/><path d="m.15 2.75.1-.55q1.55.85 3.25 1.4-1.9-.2-3.35-.85" fill="#e5f5f4"/><path d="m3.1 6.5-.6.15-2.3.5-.05-.55 2.95-.15v.05" fill="#ffe9b8"/></g><g id="z" fill-rule="evenodd"><path d="M3.8 11.15 1 13.2q0 .75.15 1.4.75 5.3 6.7 5.9l1 .05q3.15.1 5.1-.7l.6-.1.15.6q-2.75 1.05-5.65.85-3.85-.15-5.9-2l.1.5q-1.25-.95-2-2.25-1-1.65-1.2-3.75L0 12.75Q8.85 6.8 15.65 0l.6.5-.85.75-.45.4-2.4 2.5-.1.05-8.65 6.95" fill="#7098b2"/><path d="M1.15 14.6Q1 13.95 1 13.2l2.8-2.05.85.65q6.25-4.4 7.9-7.4 2.35-.35 4.9-2 .05 1.95-1.1 6.25l-.55-2.1.2 4.05q-2.15-.7-3.65-3.4l.2 1.6q.2 1.55 1.4 2.9l.05.05 1.15 1 1 1.25.5.4-.25.85-.55-.35q-2-1.25-3.8-3.05 1.2 2.45 3.65 3.7l.6.25q-.3 1.8 0 3.85l-1.75.1-.15-.7-.25-.75-.45-1.1.15 1.1.05.75.05.8q-1.95.8-5.1.7l-1-.05q-.5-8.8-6.7-5.9" fill="#52baf9"/><path d="m3.8 11.15 8.65-6.95.1-.05 3-1.8.55-.35 1.1-.65.25 1.05q-2.55 1.65-4.9 2-1.65 3-7.9 7.4l-.85-.65" fill="#0488da"/><path d="m3.25 19.7-.1-.5q2.05 1.85 5.9 2 2.9.2 5.65-.85h.15l.5 1.1q-2.7 1.05-5.65.65-4.1-.65-6.45-2.4m11.3.05-.6.1-.05-.8-.05-.75-.15-1.1.45 1.1.25.75.15.7" fill="#077fd5"/><path d="m15.4 1.25.85-.75.95.85-1.1.65-.7-.75m-.25 11.5-.25-.65-.8-.5q-.25-.25-.2-.65 1.2.9 1.95.55l.3-.3.1-.1.05-.05.05-.05.05-.2.05.25.05.1v.2l.35.9v.05q-.6-.05-.2.45l.1.1.45.45-.1.25-.25.2-.2.65-.5-.4-1-1.25m-.3 7.6 1.45-.15h.05l.25 1.05-1.05.2h-.2l-.5-1.1" fill="#0668c3"/><path d="m14.95 1.65.45-.4.7.75-.55.35-.6-.7" fill="#ffe7a4"/><path d="m12.55 4.15 2.4-2.5.6.7-3 1.8" fill="#0289db"/><path d="M7.85 20.5q-5.95-.6-6.7-5.9 6.2-2.9 6.7 5.9M14 11.75l.1-.15.8.5.25.65-1.15-1m3.2 1.55-.45-.45-.1-.1q-.4-.5.2-.45l.05.1.1.15.3.5-.1.25" fill="#fff"/><path d="m14.1 11.6-.15.1q-1.2-1.35-1.4-2.9l-.2-1.6q1.5 2.7 3.65 3.4l-.2-4.05.55 2.1-.05.15v.15l.1 1.85-.05.2-.05.05-.05.05-.1.1-.3.3q-.75.35-1.95-.55-.05.4.2.65" fill="#0087d9"/><path d="m14.7 20.35-.15-.6 1.75-.1.05.55h-.05l-1.45.15h-.15" fill="#ffe9b8"/><path d="m16.3 15.8-.6-.25q-2.45-1.25-3.65-3.7 1.8 1.8 3.8 3.05l.55.35-.1.55" fill="#e5f5f4"/></g><g id="A" fill-rule="evenodd"><path d="m10.7 32.8.35-.15.25.55q1.8 3.15 4.5 3.15 1 .05 1.5-.85.55-1.05.6-3.1l-.35-.15h.3q3.75 0 7-.95l2-.75q5-2.95 1.6-3.85-1-.5-.15-.95 1.5.95 4.65-1.3 2.1-1.5 4-4 .7-1.65-.1-2.6 3.5-1.6.95-4.25.9.15 1.35.6.75.7.6 1.9-.55 1.45-1.8 2.1.35 1.65-.8 3.3-1.7 2.65-6.95 5.2 1.05 1.2-.3 2.65l-2.15 1.55-.15.15-1.95 1-.8.2-6.35.35q.15 1.55-.2 2.6-.55 1.45-1.95 1.9l-1.45-.15-.05-.1v.1l-.75-.3q-1.85-.9-3.4-3.85M42.65 6.1q-.5 1.75-1.85 3l-1.75 1.3q2.7-5.95 1.5-7.15l-.95.15q-4.25 1.05-9.2 8.65l-2.35 3.9-3.2 3.3Q10.4 33.65 1.6 34.7q14.3-8 23.25-17.75l1.95-2.35 1.65-2.55q6.9-10.55 12.35-11 2.7.3 2.15 3.9l-.3 1.15" fill="#0668c3"/><path d="m9.65 37-.15-.8h.15q4.05 6.3 7.35 8.1l1.65.7q.85-1.3-2.15-6.05l-.15-.05.15-.1q4.25 3.05 8.35 4.85l4.8 1.55.15.1 4.35.65q3.65 0-4.65-7.45 7.15 3.85 12.95 4.7l1.7.2h2.95q1.5-1.1-2.4-4.6l-.4-.3-.15-.15-1.4-1.2 1.4.7.7.35q4.75 2.05 7.8 1.3-.75-1.35-3.6-3.1l1.5.25q7.55 1.1 11.45-.1 2.1-.65 3.15-1.95 1-4.5-4.45-9.25l-1.35-1.2q9.85.15 12.65-2.5l.7-1.05q.3-2.55-4.75-5.65-6.1-3-9.35-2.6Q69 6.7 69.45 4.15q.2-1.35-2.35-1.9Q55.85 1.2 40.8 9.1q1.35-1.25 1.85-3 18.5-9.1 27.4-4.65 4.15 4.05-6.55 10 10 2.3 11.3 9.4-1.15 3.85-11.3 4.9 5.05 6.9 3.1 9.3-2.05 4.3-12.7 3.9 2.15 3.35-4.55 2.5 2.05 3.85-3.05 4.15l-2.15-.1q-4.05-.2-7.65-1.65 2.85 4-2.8 3.9-4.05 0-8.85-2.25l-4-2.1q0 4.3-1.35 4-3.4-1-5.7-3.1.65 3.85-1.9 5l-1-.4-.5-1.15Q9.05 45.5 8.8 46.5q-.45-1.05-.65-2.4l-.3-2.55.3-.1q1.25 2.95 3.5 4.6 1-.4.75-3.15-1.2-1.6-2-3.55-.45-1.05-.75-2.35" fill="#6d9ab1"/><path d="m11.3 33.2-.25-.55-.35.15q-.9-.05-1.05 1.95v1.45l-.3-.55.15.55.15.8q-1.45.55-1.5 4.45l-.3-.5q.15-.7-.7-3.1l.45 6.25q-3.25-1.2-5.8-5.45-3.45-2-.2-3.95 8.8-1.05 23.25-15.45l3.2-3.3 2.35-3.9q4.95-7.6 9.2-8.65-1 3.6-3.65 8.65L34 15.55l2.85-2q.65 3.7-5.85 7 2.55.15 4.65-.7-4.55 4.9-10.8 6.1l-1.6.25 1.6.3 3.6.2q-1.6 1.8-3.6 2.85-4.25 2.35-10.45 1.8 1.95.85 3.15.9l.35.15q-.05 2.05-.6 3.1-3.35-.2-6-2.3" fill="#52baf9"/><path d="m14.1 36.65.75.3Q15 40.6 17 44.3q-3.3-1.8-7.35-8.1v-1.45q2.7 2.1 4.45 1.9m.8.3 1.45.15q1.4-.45 1.95-1.9 2.65.1 5.55-.95l1-.45q2.3-1.4 2.75-2.75l.15-.15 2.15-1.55q3.6.3 6.45 2.1-.75-1.8-3.7-3.55 2.55-1.55 3.55-4.3 2.1-.5 5.35.45-.75-.9-4.4-2.55 1.15-1.65.8-3.3 1.25-.65 1.8-2.1.15-1.2-.6-1.9 1.2-.95 3.5-1.25l-4.7-.3.2-.6.9-1.65q11.35 3.95 30.4-6.25Q69 6.7 58.6 12.35L42.95 13l1.2.9q12 8.2 27.85 7.75-2.8 2.65-12.65 2.5l1.35 1.2q-4.55-2.05-10.05-2.7-3.15-.4-6.5-1.65-2.3-.85-4.7-2.2l4.7 4.95 6.85 6.4q-3.5-.65-6.85-2.3-1.85-1-3.6-2.35l3.6 3.3Q51.7 34.85 62 36.55q-3.9 1.2-11.45.1-1.7-2.05-6.4-4.7-5-2.3-7.9-5.3 3.2 5.45 7.9 10.8l.7.75-.7-.35-1.4-.7 1.4 1.2-.05.25q-5.85-2.4-10.15-6.85 2.3 6.7 8.5 11.45-5.8-.85-12.95-4.7l-.15-.15h-.05q-2.9-1.2-4.45-4.1 1.8 7.3 4.8 10.95l-4.8-1.55q-4.1-1.8-8.35-4.85l-.3-.2v.05l-1.3-1.7m-4.5 2.4q.8 1.95 2 3.55.25 2.75-.75 3.15-1.55-3.3-1.25-6.7m30.55-23.1 3.2 2.5q3.65 1.95 8.15 1.8-2.55-1.8-6.4-2.7l-4.95-1.6" fill="#c7f3ff"/><path d="M39.15 14.2q-.45-.45-1.35-.6-.15-.3.15-.95l4.7.3q-2.3.3-3.5 1.25M8.8 46.5q.25-1 1.6 1.25l.5 1.15-.6-.45-.05-.1q-.9-.65-1.45-1.85m32-37.4q15.05-7.9 26.3-6.85 2.55.55 2.35 1.9-19.05 10.2-30.4 6.25l1.75-1.3m17.8 3.25q3.25-.4 9.35 2.6 5.05 3.1 4.75 5.65l-.7 1.05q-15.85.45-27.85-7.75l-1.2-.9 15.65-.65m2.1 13q5.45 4.75 4.45 9.25-1.05 1.3-3.15 1.95-10.3-1.7-17.85-7.75l-3.6-3.3q1.75 1.35 3.6 2.35 3.35 1.65 6.85 2.3l-6.85-6.4-4.7-4.95q2.4 1.35 4.7 2.2 3.35 1.25 6.5 1.65 5.5.65 10.05 2.7m-10.15 11.3-1.5-.25q2.85 1.75 3.6 3.1-3.05.75-7.8-1.3l-.7-.75q-4.7-5.35-7.9-10.8 2.9 3 7.9 5.3 4.7 2.65 6.4 4.7M44.7 38.8q3.9 3.5 2.4 4.6h-2.95l-1.7-.2q-6.2-4.75-8.5-11.45 4.3 4.45 10.15 6.85h.05l.55.2m-15.2-.3q8.3 7.45 4.65 7.45l-4.35-.65-.15-.1q-3-3.65-4.8-10.95 1.55 2.9 4.45 4.1h.05l.15.15m-13.15.4.15.05q3 4.75 2.15 6.05L17 44.3q-2-3.7-2.15-7.35h.05l1.3 1.7.15.25m24.6-22.65 4.95 1.6q3.85.9 6.4 2.7-4.5.15-8.15-1.8l-3.2-2.5" fill="#fff"/><path d="M10.7 32.8q1.55 2.95 3.4 3.85-1.75.2-4.45-1.9.15-2 1.05-1.95m7.6 2.4q.35-1.05.2-2.6l6.35-.35.8-.2 1.95-1q-.45 1.35-2.75 2.75l-1 .45q-2.9 1.05-5.55.95m11.6-5.85q1.35-1.45.3-2.65 5.25-2.55 6.95-5.2 3.65 1.65 4.4 2.55-3.25-.95-5.35-.45-1 2.75-3.55 4.3 2.95 1.75 3.7 3.55-2.85-1.8-6.45-2.1M9.65 37q.3 1.3.75 2.35-.3 3.4 1.25 6.7-2.25-1.65-3.5-4.6.05-3.9 1.5-4.45" fill="#99cfdb"/><path d="M37.8 13.6q2.55 2.65-.95 4.25.8.95.1 2.6-1.9 2.5-4 4-3.15 2.25-4.65 1.3-.85.45.15.95 3.4.9-1.6 3.85l-2 .75q-3.25.95-7 .95h-.3q-1.2-.05-3.15-.9 6.2.55 10.45-1.8 2-1.05 3.6-2.85l-3.6-.2-1.6-.3 1.6-.25q6.25-1.2 10.8-6.1-2.1.85-4.65.7 6.5-3.3 5.85-7l-2.85 2 1.95-3.5Q38.6 7 39.6 3.4l.95-.15q1.2 1.2-1.5 7.15l-.9 1.65-.2.6q-.3.65-.15.95M17.3 35.5q-.5.9-1.5.85-2.7 0-4.5-3.15 2.65 2.1 6 2.3" fill="#0088d9"/></g><g id="B" fill-rule="evenodd"><path d="M25.35 27.5q.95.6 1.15 2.15.65.6-.35.1-14.5 4.6 11.6 2-8.5 10.25 5.1 1.9 1.05.25 3.8-.55-3.55 11.75 17.4 5.25l5.4-.5q17.3 1.85-14.95-14.5-32.25-16.4-33.1-17.1l-1.25-1.1-.7-.55-1.2-.75-.6-.3-2.55-.85-4-.8 1.6 1.65q1.6 1.75 2.25 2.9l.4.9q-.9-.4-1.85-1L10.65 3.8l-.25-.25L8.8 1.6l-.05-.1Q8.4-.35 11.25.1q3.55.3 6.15 1.4l.85.4 1.2.7 1.25.95.25.3.45.35q.85.7 36.55 19.65Q93.7 42.8 65.85 40.5 37.4 45.25 45.15 35q-21.9 9.65-9.85-1.85-25.35 2.55-11.75-4l-.2-.05 2.25.35q-.5-1.05-1.15-1.75l.9-.2-.15-.05.15.05m-5.9-1.6.1.05-2.3.5q1.9-.7 2.2-.55" fill="#0668c3"/><path d="m25.2 27.45.15.05h-.15v-.05m-.75.25q.65.7 1.15 1.75l-2.25-.35.2.05Q3.6 32.25 14.8 23.5q-8.55-1-9.05-3.9-.1-.75.05-1.35.35-1.6 2.55-2.55-2.2-.7-3.95-1.8-2.05-1.4-3.4-3.4L0 8.7Q-.15 7.65 1 7q1.55-1.25 3.4-1.95Q7.15 3.9 10.65 3.8l2.85 2.55q-5.2-1.55-9.1.1-1.55.7-2.9 1.9.4.85 1.1 1.6l1.8 1.7q3.1 2.3 8.6 3.55-4.6 1.25-5.15 3.05-.15.45 0 1l.65.45q3.1 2.15 8.65 2.45-1.05 1.25 0 2.45-1.75.4-2.7 2.95 1.1 2.1 10 .15" fill="#6d9ab1"/><path d="m25.35 27.5-.15-.05v.05h.15l-.9.2q-8.9 1.95-10-.15.95-2.55 2.7-2.95-1.05-1.2 0-2.45-5.55-.3-8.65-2.45 1.7-.4 3.95-1.45l4.3-2.35-3.75-.7q-5.5-1.25-8.6-3.55l-1.8-1.7 1.8.05 15.95.85 1.05 1.7L23 15.2q6 10.45 2.35 12.3m-5.9-1.6q-.3-.15-2.2.55l2.3-.5-.1-.05" fill="#c7f3ff"/><path d="M14.95 6.45q-.65-1.15-2.25-2.9L11.1 1.9l4 .8.8.85q2.2 2.7 3.05 4.95l.5 1 .25.35.65 1-5.4-4.4" fill="#0289db"/><path d="M13.5 6.35q.95.6 1.85 1l-.4-.9 5.4 4.4L4.4 10l-1.8-.05q-.7-.75-1.1-1.6 1.35-1.2 2.9-1.9 3.9-1.65 9.1-.1M13 15.2l3.75.7-4.3 2.35Q10.2 19.3 8.5 19.7l-.65-.45q-.15-.55 0-1 .55-1.8 5.15-3.05" fill="#fff"/><path d="m15.1 2.7 2.55.85.6.3 1.2.75.7.55 1.25 1.1q.85.7 33.1 17.1 32.25 16.35 14.95 14.5l-5.4.5q-20.95 6.5-17.4-5.25-2.75.8-3.8.55-13.6 8.35-5.1-1.9-26.1 2.6-11.6-2 1 .5.35-.1-.2-1.55-1.15-2.15Q29 25.65 23 15.2l-1.6-2.65-1.05-1.7-.65-1-.25-.35-.5-1q-.85-2.25-3.05-4.95l-.8-.85" fill="#69c4fb"/></g><g id="C" fill-rule="evenodd"><path d="M11.1 1.5 9.5 3q-4.8 5-7 12.9l-1 4.3-.2 2.4-.1 2.6q0 3.4.55 6.65l.4 2.1.3 1.2L2.8 37l.1.4.25.6.95 1.6 1.75 1.45q1.35.7 2.3 0l2.65-3.65 1.5-2.7.35-.75.9-2.1.6-1.6.25-.5.05-.15-.1-.05q-.4-.85-.45-2.6l-.55.4q-2.45 1.8-4.1 4.5l-.6 1.2q-.65.3-.5-.4l.2-.8q.7-2 3-4.35 3.2-2.55 3.35-1.8v.05q.45.45.4 1.4l.45-1.7.1-.25.05-.25.9-2.35 1.85-6 .15-.7q.55-2.25.65-4.8V9.65q-2.1-.1-3.3 1.4.9-3.5.25-7.35l-1.05.4q-1.45.6-2.85 1.75l-.45.35q.35-3.85-.55-4.9l-.2.2m2.05 2.2q2.1-1.2 3.8-1.55 1.2 1.8.65 6.55 1.2-.55 2.65-.45.95 3.1-.15 7.65l-.25.8q-.8 3.2-1.8 5.9L17 25.2v.05l-.05.15-.1.2-.15.4-.8 2.2-1.35 3.65-.85 2.1-1.1 2.55-.05.1-.1.25-.25.55q-2.4 4.65-4.25 4.8-3.75.65-6-4.5l-.1-.3-.95-3.45-.4-2.1q-.55-3.2-.5-6.65l.15-2.6q.15-2.4.6-4.85l.5-1.85Q4.8 3.7 11.4 0q1.65 1.25 1.75 3.7" fill="#0668c3"/><path d="m2.45 35.15-.3-1.2-.4-2.1Q1.2 28.6 1.2 25.2l.1-2.6.2-2.4 1-4.3Q4.7 8 9.5 3q-3.7 7-5.35 12.9-.8 2.7-1.1 5.2 1.3.4 1.4 1.5l-.05.3q-.15 1.4-1.7 1.85l-.25 10.4" fill="#c7f3ff"/><path d="m9.5 3 1.6-1.5q-1.5 4.85-1.25 9.9l2.45-5.55q1.4-1.15 2.85-1.75-1.8 4.95-.75 9.95l1.55-3q1.2-1.5 3.3-1.4-2.2 2.75-3.35 6.25l-.6 2.1q-.5 2.2-.6 4.6v3.1q-.15-.75-3.35 1.8-2.3 2.35-3 4.35l-.2.8q-.15.7.5.4l.6-1.2q1.65-2.7 4.1-4.5l.55-.4q.05 1.75.45 2.6l-.2.7-.6 1.6-.9 2.1-.35.75-1.5 2.7-2.65 3.65q-.95.7-2.3 0L4.1 39.6l4.05-8.95-3.25 4q-.9.8-2.1 2.35l-.35-1.85.25-10.4q1.55-.45 1.7-1.85l.05-.3q-.1-1.1-1.4-1.5.3-2.5 1.1-5.2Q5.8 10 9.5 3M7.1 20.05l-.2-.45q-.15-.15-.4-.15l-.45.15-.2.45.1.3.25.8q0-.4.2-.5h.1l.4-.2.2-.4m1.9 4.4q-.25-.15-.5-.15-.35 0-.6.2-.25.25-.25.55 0 .35.25.55l.6.25.6-.25.25-.55-.35-.6.7-.45-.7.45" fill="url(#n)"/><path d="m11.1 1.5.2-.2q.9 1.05.55 4.9l.45-.35-2.45 5.55Q9.6 6.35 11.1 1.5m4.05 2.6 1.05-.4q.65 3.85-.25 7.35l-1.55 3q-1.05-5 .75-9.95m4.1 5.55v.65l-.1.55-3.5 14.1-.1.35.15-.35-.05.25-.1.25-.45 1.7q.05-.95-.4-1.4V22.6q.1-2.4.6-4.6l.6-2.1q1.15-3.5 3.35-6.25" fill="#0289db"/><path d="M19.25 10.9v.2q-.1 2.55-.65 4.8l-.15.7-1.85 6-.9 2.35h-.05l3.5-14.1.1.05" fill="#ffe6b7"/><path d="M4.1 39.6 3.15 38l-.25-.6-.1-.4q1.2-1.55 2.1-2.35l3.25-4L4.1 39.6m3-19.55-.2.4-.4.2h-.1q-.2.1-.2.5l-.25-.8-.1-.3.2-.45.45-.15q.25 0 .4.15l.2.45" fill="#fff"/><path d="m9 24.45.35.6-.25.55-.6.25-.6-.25q-.25-.2-.25-.55 0-.3.25-.55.25-.2.6-.2.25 0 .5.15" fill="#0287d4"/></g><g id="D" fill-rule="evenodd"><path d="M28.75 4.85q-.8.25 0-2.65l-.65.05q-3.4-.6-8.05 3.2l-1 .6-2.5 1.5-5.65 3.4-.35.2Q3.8 19 2.25 28.8.2 39.55 4.7 46.15l.2.35q-.95-.15-2.05-.9-7-14.2 3.25-30.65Q21 .2 29.25.65q2.15 1.25 2.85 7.3Q37.05 1 49.35 0q2.45 5 .55 9.5 3.5.55 5.8 1.85 2.35 1.4 3.4 3.6.05 2.75-3.4 5.9l-2.15 1.75 2.15 1.6q1.2 1.2 1.1 2.45-.25 2.15-1.1 3.95-2.1 4.4-7.65 6.95l-.9.85-.65-.9 2.55-1.35q4.7-3.1 6.65-9.5l.15-.55-.55-.5-.65-.6q-2.2-1.8-3.6-1.6.4-.2.85-.45l.3-.2q2.1-1.25 3.5-3.05 1.55-2 2.25-4.6l-1.2-1.35-1.05-.9q-3.15-2.3-8.05-2.15 3.15-3.25.8-9-8.9-.8-16.25 7.9-2.75-4.35-3.45-4.75" fill="#0668c3"/><path d="M2.85 45.6q1.1.75 2.05.9 1.2 1.65 2.8 3 7.55 4.15 18.1 2.35l.7-.15q9-1.75 15.65-9.95l.15.05q-.9 1.7-3.15 4.15-8.25 7.1-18.9 8.1Q7.4 53.2 3.3 46.5l-.45-.9" fill="#6d9ab1"/><path d="M4.7 46.15Q.2 39.55 2.25 28.8q1.55-9.8 8.3-17.65l.35-.2q-4.2 8.15-5.65 15.4 5.35-1.25 6.15 3.95-.15 3.7-2.95 5.65-2.35 1.7-4.65.65-.35 4.6 1 9.5l-.1.05m35.65-19.3q3.2 1.95 4.1 6.3l-.05 2.7q-.3 3.4-1.85 5.45h-.05l-.35.45q-6.65 8.2-15.65 9.95l-.7.15q7.25-3.25 12.8-11l.05-.1q.85-1.05 1.4-2.75l.2-.75q2.2-4.9.1-10.4" fill="#c7f3ff"/><path d="m28.1 2.25.65-.05q-.8 2.9 0 2.65l-1 3.15q-.65-.55.35-5.75m28.65 11.5 1.2 1.35-6.15 7.75-11.5.4q8.9-.4 15.4-8.15l1.05-1.35M54.65 25l.65.6q-2.1 6.45-6.25 10.55L46.5 37.5l.65.9-6.35 5.95-1.65 1.6q2.25-2.45 3.15-4.15l.2-.45.05-.05q1.55-2.05 1.85-5.45 6.15-2.7 10.25-10.85M16.55 7.55l2.5-1.5-2.35 5.5q-.95-2-.15-4" fill="#0289db"/><path d="M28.1 2.25q-1 5.2-.35 5.75l1-3.15q.7.4 3.45 4.75Q39.55.9 48.45 1.7q2.35 5.75-.8 9 4.9-.15 8.05 2.15l1.05.9-1.05 1.35q-6.5 7.75-15.4 8.15l11.5-.4.1.1q-.45.25-.85.45 1.4-.2 3.6 1.6-4.1 8.15-10.25 10.85l.05-2.7q-.9-4.35-4.1-6.3-1.4-.8-3.15-1.2-6.3-1.55-9.5 1.6v.05q-8.65 4.3-7.8 15.65-.35.8-1.65 1.65l-.2.15-.25.15q-1.85 1.1-4.95 2l-5.65.3q-1.35-.3-2.4-1.05v-.05q-1.35-4.9-1-9.5 2.3 1.05 4.65-.65 2.8-1.95 2.95-5.65-.8-5.2-6.15-3.95 1.45-7.25 5.65-15.4l5.65-3.4q-.8 2 .15 4l2.35-5.5 1-.6q4.65-3.8 8.05-3.2m-11.45 22.3q-.6-.55-1.4-.55-.85 0-1.45.55t-.6 1.3q0 .8.6 1.35t1.45.55q.8 0 1.4-.55.6-.55.6-1.35 0-.75-.6-1.3m2.95-9.45q-.25.25-.25.65l.25.65q.3.3.7.3.4 0 .65-.3l.3-.65-.1-.4.4-.35-.65.05q-.25-.25-.6-.25-.4 0-.7.3m5.4 7.5q-.6.65-.6 1.5 0 .9.6 1.55.65.65 1.5.65.9 0 1.5-.65.65-.6.65-1.5 0-.85-.65-1.5-.6-.65-1.5-.65-.85 0-1.5.6m-8.55 10.8-.6-.2q-.45 0-.75.25t-.3.65q0 .35.3.6l.75.25.7-.25.3-.6-.25-.6.2-.35-.3.2-.05.05m-4.2 3.9q-.45-.4-1.05-.4-.55 0-1 .4-.4.35-.4.9t.4.95q.45.35 1 .35l1.05-.35q.4-.4.4-.95 0-.55-.4-.9" fill="url(#o)"/><path d="M40.05 38q-.55 1.7-1.4 2.75l-.05.1q-5.55 7.75-12.8 11-10.55 1.8-18.1-2.35-1.6-1.35-2.8-3l-.1-.35q1.05.75 2.4 1.05l.45.3q3.45 1.65 10.15-2.6l.25-.15.2-.15q1.3-.85 1.65-1.65-.85-11.35 7.8-15.65v-.05.05Q39.85 25.9 40.05 38" fill="#fff"/><path d="M17.8 44.9q-6.7 4.25-10.15 2.6l-.45-.3 5.65-.3q3.1-.9 4.95-2" fill="#6b9ab4"/><path d="M57.95 15.1q-.7 2.6-2.25 4.6-1.4 1.8-3.5 3.05l-.4.1 6.15-7.75M55.3 25.6l.55.5-.15.55q-1.95 6.4-6.65 9.5 4.15-4.1 6.25-10.55" fill="#ffe8b7"/><path d="M27.7 27.25q3.2-3.15 9.5-1.6 1.75.4 3.15 1.2 2.1 5.5-.1 10.4l-.2.75q-.2-12.1-12.35-10.7v-.05" fill="#fffdf7"/><path d="M19.6 15.1q.3-.3.7-.3.35 0 .6.25l.65-.05-.4.35.1.4-.3.65q-.25.3-.65.3t-.7-.3l-.25-.65q0-.4.25-.65m5.4 7.5q.65-.6 1.5-.6.9 0 1.5.65.65.65.65 1.5 0 .9-.65 1.5-.6.65-1.5.65-.85 0-1.5-.65-.6-.65-.6-1.55 0-.85.6-1.5" fill="#0287d4"/><path d="M16.65 24.55q.6.55.6 1.3 0 .8-.6 1.35t-1.4.55q-.85 0-1.45-.55t-.6-1.35q0-.75.6-1.3t1.45-.55q.8 0 1.4.55" fill="url(#p)"/><path d="m16.6 33.5.25.6-.3.6-.7.25-.75-.25q-.3-.25-.3-.6 0-.4.3-.65t.75-.25l.6.2.15.1" fill="url(#q)"/><path d="M12.25 37.3q.4.35.4.9t-.4.95l-1.05.35q-.55 0-1-.35-.4-.4-.4-.95 0-.55.4-.9.45-.4 1-.4.6 0 1.05.4" fill="url(#r)"/><path d="M29.3 27.85q3.1-.95 6.45.7 3.5 2.2 3.85 6l.05.5q-3.2-3.3-5.35-3.55l-.75-1.25q-1.7-1.9-4.25-2.4" fill="#c7f3ff"/><path d="m27.95 35.05.65.8q.35.7.35 1.55 0 1.35-1 2.3-.95.95-2.3.95-1.35 0-2.3-.95-.95-.95-.95-2.3 0-1.4.95-2.35.95-.95 2.3-.95 1.35 0 2.3.95" fill="#113a2a"/><path d="m20.5 38.95.2-1q.65-3.5 2.55-5.95 2.55-1.7 5.25 0l-.2.3q-.45.7-.45 1.55L28.1 35l-.15.05q-.95-.95-2.3-.95-1.35 0-2.3.95-.95.95-.95 2.35 0 1.35.95 2.3.95.95 2.3.95 1.35 0 2.3-.95 1-.95 1-2.3 0-.85-.35-1.55l.05-.05q.8.8 1.9.85h.1l.65-.05-.2 2.55q-.6 1.5-1.45 2.4h-.1q-.2 0-.4.15-.15.15-.15.4l.05.1q-1.85 1.4-4.7.6v-.05l.05-.3q0-.45-.35-.75-.3-.35-.75-.35t-.8.35l-.15.15q-1.1-.95-1.75-2.85l-.1-.05" fill="#1c513d"/><path d="m28.5 32 .15-.15q.85-.8 2-.8t1.95.8q.85.85.85 2t-.85 1.95q-.55.6-1.3.8l-.65.05h-.1q-1.1-.05-1.9-.85l-.55-.8-.25-1.15q0-.85.45-1.55l.2-.3m1.15 9.55.3.15.15.4-.15.4-.4.15-.4-.15-.1-.3-.05-.1q0-.25.15-.4.2-.15.4-.15h.1m-5.3 1.25-.3.45q-.3.3-.75.3t-.8-.3q-.3-.35-.3-.8 0-.35.15-.6l.15-.15q.35-.35.8-.35.45 0 .75.35.35.3.35.75l-.05.3v.05" fill="#fff"/><path d="m29.3 27.85-.55.2-.45.2q-3.15 1.3-5.05 3.75t-2.55 5.95l-.2 1V39l-.1.6v.1l-.1 1.2q.5 5.85 2.85 6.05V47q-2.55.55-3.25-4.05l-.15-1.9q.4-9.95 7.4-13.15 3.25-1.6 7.4-.6 4.65 1.7 5.6 6.7.25 1.75.1 3.25-.1 1.75-.75 3.15-.6.85-.85.35l.3-.35.05-.1q.9-2.1.65-5.25l-.05-.5q-.35-3.8-3.85-6-3.35-1.65-6.45-.7" fill="#0668c3"/><path d="m28.3 28.25.45-.2.55-.2q2.55.5 4.25 2.4l.75 1.25q1.55 3.1.75 7.8-1.25 4.95-4.6 7.65-3.65 2.5-7.15 0l-.15.05v-.05q-2.5-2.4-2.7-6l-.05-1.25v-.1l.1-.6v-.05l.1.05.05 1.95q.25 2.75 1.75 4.45 2.25 2.5 5.15 2.1 3.05-.4 5.35-4.45 1.9-2.75 1.7-7.8-.45-6.6-6.3-7" fill="#254e40"/><path d="M23.25 32q1.9-2.45 5.05-3.75 5.85.4 6.3 7 .2 5.05-1.7 7.8-2.3 4.05-5.35 4.45-2.9.4-5.15-2.1-1.5-1.7-1.75-4.45L20.6 39q.65 1.9 1.75 2.85-.15.25-.15.6 0 .45.3.8.35.3.8.3.45 0 .75-.3l.3-.45q2.85.8 4.7-.6l.1.3.4.15.4-.15.15-.4-.15-.4-.3-.15q.85-.9 1.45-2.4l.2-2.55q.75-.2 1.3-.8.85-.8.85-1.95t-.85-2q-.8-.8-1.95-.8t-2 .8l-.15.15q-2.7-1.7-5.25 0" fill="url(#s)"/><path d="M17.2 51.1q-1.3.3-1.45-.2 2.65-.6 5.45-2.1l.45-.25.45-.25.2-.15.35.15.5.3h.05l-.7.3-5 2.15-.3.05" fill="#659cba"/><path d="m17.2 51.1.3-.05 5-2.15.1.15.7 1.25q-4-.75-5.45 4.05.2-2.8 4.15-4.9-4.05 1.6-4.35 4.7-1.1-1-.45-3.05" fill="#a8474e"/><path d="m23.2 48.6.25.2q1.05.9 1.6 3.05l.05.2q.4 2.85-3.05 3.95-4.95 1.1-6-2.4-.15-1.65 1.15-2.5-.65 2.05.45 3.05l.2.2.2.1q3.75 1.1 5.5-.7l.35-1.55-.1-.55q-.25-1.1-.5-1.35l-.7-1.25-.1-.15.7-.3" fill="#903a3b"/><path d="m23.9 52.2-.35 1.55q-1.75 1.8-5.5.7l-.2-.1q2.7-5.05 6.05-2.15" fill="#ff9b9c"/><path d="M23.3 50.3q.25.25.5 1.35l.1.55q-3.35-2.9-6.05 2.15 1.45-4.8 5.45-4.05" fill="#d76d6d"/><path d="m17.85 54.35-.2-.2q.3-3.1 4.35-4.7-3.95 2.1-4.15 4.9" fill="#8e3635"/></g><g id="E" fill-rule="evenodd"><path d="M.15 38.45q-.4-2.1.3-5.35l.2-.9q.4-1.7 1.1-3.65l.35-1.05 1-2.55L4.7 22q1-1.65 2.15-3.2l.8-1.1v-.05l.3-.4 1.15-1.4q1.4-1.65 2.95-3.15l.4-.4 2.9-2.6 3-2.4 2.1-1.5.9-.65.25-.2q4.05-2.85 7-4.05 3-1.3 4.75-.75l.05.75q0 1.4-1.3 4.05l-.05.2-.25.45H34l1.45.2q2.3.45 4.3 1.75-.5 2.65-3.8 6.1 2.6.8 2.45 1.15.65 1.35-4.4 7.85l-.2.25-1.75 2.25-1.5 1.75-.5.5-1.25 1.15-.8.65-.85.7L23 32.85l-13.5 7.2-1.15.45-.65.25 10.1-6.2.55-.3.85-.45q3.9-2.2 6.95-4.6l1-.85 1.1-.95.55-.5 1.9-1.95 1.35-1.6 1.75-2.25.2-.25 1.05-1.5 1.15-1.9.95-1.85-.75-.45q-1.15-.55-2.25-.65H34l-.2-.05-.55.05.55-.45.2-.15q2.9-2.45 4.15-5.6l-.8-.5-1.2-.55L34 6.8h-.2l-3.1.2q-.55.7-1.6 1l1.2-2.2.3-.65.1-.2q1.4-2.95 1-3.8l-1.55.55q-3.4 1.35-6.55 3.25l-.25.2-1.05.65-3.95 2.8-4.15 3.7-2.15 2.25-1.2 1.3-1.5 1.8-1.4 1.8-.3.4-.8 1.15-1.3 1.85-.85 1.35q-1.2 2.15-2.1 4.35l-.5 1.25-1 3.3-.45 2v.2l-.05.15-.45 3" fill="#0668c3"/><path d="m.65 35.1.45-2 1-3.3.5-1.25q.9-2.2 2.1-4.35l.85-1.35L6.85 21l.8-1.15.3-.4 1.4-1.8 1.5-1.8 1.2-1.3 2.15-2.25 4.15-3.7 3.95-2.8 1.05-.65.25-.2q3.15-1.9 6.55-3.25L28.7 4.95l-.1.2-.35.65q-1.9 3.35-4.75 6.5l-1.45 1.55-2.25 2.05v-.05l2.9-3.55q2.6-3.45 4.35-6.5l.35-.65.1-.2.25-.4-1.05.4-.4.2-1.35.65q-3.4 1.65-6.6 4.35l-2.3 2.15-3.35 3.55-.65.85-.8.95-.7.9q2.2 1.45.65 3.4-1.4 1.7-3.25.25l-.05-.1-.25.3-.8 1-2.15 3.25-1 1.9-1.6 3.25-.55 1.3-.8 2h-.1m35.5-27.85 1.2.55L34 10.85l-.2.15-5 4.8q-.85.75-1.65 1.6l-.25.25-2.6 2.6 2.15-2.6.7-.85 1.65-1.85 5-5.55.2-.2 2.15-1.95m.25 7.9.75.45-.95 1.85-1.8 1.8-.4.4-.2.15-1.75 1.55-3.25 2.55-.2.1-1.45 1.15-3.25 2.25-3.25 1.8-.1-.1 2.4-1.7 4.2-3.25 1.65-1.4 3.25-3.15.3-.3 4.05-4.15" fill="#c7f3ff"/><path d="m30.15 1.7 1.55-.55q.4.85-1 3.8l-.1.2-.3.65L29.1 8q-2.2 2.6-4.55 4.3l-2.5 1.55 1.45-1.55q2.85-3.15 4.75-6.5l.35-.65.1-.2 1.45-3.25m7.2 6.1.8.5Q36.9 11.45 34 13.9l-.2.15-.55.45.55-.05.2.05.1.05-.1.2-.2.2-4.2 2.7-.8.45-.1.05-6 3.5 1.5-1.3-.15.15.25-.25 2.6-2.6.25-.25q.8-.85 1.65-1.6l5-4.8.2-.15 3.35-3.05m-1.15 9.65-1.15 1.9-7 6.75-.9.85-.5.45-2 1.8-5.45 4.35-.85.6v.05l-.55.35-10.1 6.2.65-.25.05.1-.1.1-.35.2-1.1.95-1 1.15 1-1.45 1.1-1.5.35-.4q1.7-2.05 3.75-4 2.8-2.65 6.3-5.15l.85-.55.4-.25.8-.4.25-.1 3.25-1.8 3.25-2.25L28.6 24l.2-.1 3.25-2.55 1.75-1.55.2-.15.4-.4 1.8-1.8" fill="#0289db"/><path d="m.15 38.45.45-3 .05-.15.1-.2.8-2 .55-1.3 1.6-3.25 1-1.9 2.15-3.25.8-1 .25-.3.05.1q1.85 1.45 3.25-.25 1.55-1.95-.65-3.4l.7-.9.8-.95.65-.85 3.35-3.55 2.3-2.15q3.2-2.7 6.6-4.35l1.35-.65.4-.2 1.05-.4-.25.4-.1.2-.35.65q-1.75 3.05-4.35 6.5l-2.9 3.55-.35.4.35-.35 2.25-2.05 2.5-1.55Q26.9 10.6 29.1 8q1.05-.3 1.6-1l3.1-.2h.2l2.15.45L34 9.2l-.2.2-5 5.55-1.65 1.85-.7.85-2.15 2.6-.1.1-1.5 1.3 6-3.5.1-.05.8-.45 4.2-2.7.2-.2.1-.2.05-.05q1.1.1 2.25.65l-4.05 4.15-.3.3-3.25 3.15-1.65 1.4-4.2 3.25-2.4 1.7-.2.1-.75.5-.4.25-.85.55q-3.5 2.5-6.3 5.15-2.05 1.95-3.75 4l-.35.4-1.1 1.5-1 1.45-1.15.4-2.6-.2q-.95-.55-1.45-1.95-.4-1.15-.5-2.8m18.2-14.05-.7-.1q-.85 0-1.5.55-.6.6-.6 1.4 0 .65.35 1.15l.25.25q.65.6 1.5.6l.7-.1q.45-.15.8-.5l.25-.25q.4-.5.4-1.15 0-.8-.65-1.4-.35-.35-.8-.45M8.5 30.25Q8.25 30 7.95 30q-.35 0-.55.25l-.25.55.25.55.55.25.55-.25.25-.55-.25-.55" fill="url(#t)"/><path d="M35.05 19.35 34 20.85l-.2.25-1.75 2.25-1.35 1.6-1.9 1.95-.55.5-1.1.95-1 .85q-3.05 2.4-6.95 4.6l-.85.45v-.1l.85-.6 5.45-4.35 2-1.8.5-.45.9-.85 7-6.75" fill="#ffe8b7"/><path d="m8.5 30.25.25.55-.25.55-.55.25-.55-.25-.25-.55.25-.55q.2-.25.55-.25.3 0 .55.25" fill="url(#u)"/><path d="M18.35 24.4q.45.1.8.45.65.6.65 1.4 0 .65-.4 1.15l-.25.25q-.35.35-.8.5l-.7.1q-.85 0-1.5-.6l-.25-.25q-.35-.5-.35-1.15 0-.8.6-1.4.65-.55 1.5-.55l.7.1" fill="url(#v)"/></g><g id="F" fill-rule="evenodd"><path d="m3.5 4.8.35-.25.45-.4q1.15-1.3 1.15-2.5V1.6q0-.75-.35-1.4.8.55.9 1.4.1 1.2-1.2 2.95l-.1.15Q1.05 7.1.1 4.75l-.05-.2q-.3-1.6.95-2.95L2.15.55l.1.2-.7.85Q.65 2.8.6 4.25l.05.3.5.55.85.15 1.5-.45" fill="#0668c3"/><path d="M5.4 1.6h.05v.05q0 1.2-1.15 2.5l-.45.4-.35.25q-.35-.05-.55-.25-.3-.3-.3-.95 0-1 .85-2 1.05-1.05 1.9 0" fill="#0089dc"/><path d="M5.4 1.6q-.85-1.05-1.9 0-.85 1-.85 2 0 .65.3.95.2.2.55.25L2 5.25l-.85-.15.05-.55q.2-1.4.85-2.95l.45-1-.25.15-.1-.2Q3.4-.35 5.1.2q.35.65.35 1.4H5.4" fill="#55bbf9"/><path d="M2.25.75 2.5.6l-.45 1Q1.4 3.15 1.2 4.55l-.05.55-.5-.55-.05-.3q.05-1.45.95-2.65l.7-.85" fill="#e3fdfe"/></g><g id="G" fill-rule="evenodd"><path d="M5.8 5.55q.6.35 1.3 1.35l.05.05.05.15-.25 1.85-.15.4q-.6 1.4-2 1.4-1.85-.85-1.85-3.2l1 .05.25 1h.05l.05.15.15.25.4.35.25.15.2-.15q.5-.4.55-2.15L5.8 5.55" fill="#0668c3"/><path d="M2.95 7.55q1.1-2.6 2.5-2.15l-.1 1.35-.05.15Q5.05 8.6 4.45 9l-.15-.25-.05-.15q.25.1.1-.85L4.2 7.6q.1-1-.35-.55l.1.55-1-.05" fill="#51bafb"/><path d="m5.45 5.4.35.15.05 1.65Q5.8 8.95 5.3 9.35l-.2.15-.25-.15-.4-.35q.6-.4.85-2.1l.05-.15.1-1.35" fill="#077fd5"/><path d="M4.25 8.6H4.2l-.25-1h.25l.15.15q.15.95-.1.85" fill="#e5f5f4"/><path d="M4.2 7.6h-.25l-.1-.55q.45-.45.35.55" fill="#fff"/><path d="m1.15.5-.5 1.75Q.45 3.6.75 4.7q.25.9.95 1.35.75.45 2 .45l.25 1.1h-1l-.2-.05q-1.7.2-2.55-2.9-.7-2.8.95-4.15" fill="#0668c3"/><path d="M.65 2.25Q2 1.6 2.7 3.4q.4 2.35-1 2.65Q1 5.6.75 4.7q-.3-1.1-.1-2.45" fill="#e3fdfe"/><path d="M.65 2.25 1.15.5Q2.55-.6 3.7.7 5 2.95 5.35 4.85 5.05 6.1 3.7 6.5q-1.25 0-2-.45 1.4-.3 1-2.65Q2 1.6.65 2.25" fill="#51bafb"/></g><use ffdec:characterId="2" height="8.65" width="8.6" xlink:href="#w" id="c"/><use ffdec:characterId="4" height="6.55" width="5.45" xlink:href="#x" id="d"/><use ffdec:characterId="6" height="12.4" transform="translate(.45 .1)" width="18.85" xlink:href="#y" id="e"/><use ffdec:characterId="11" height="22.2" width="17.45" xlink:href="#z" id="f"/><use ffdec:characterId="13" height="49.3" width="74.8" xlink:href="#A" id="g"/><use ffdec:characterId="15" height="42" width="78.05" xlink:href="#B" id="h"/><use ffdec:characterId="17" height="42.25" width="20.7" xlink:href="#C" id="i"/><use ffdec:characterId="19" height="56.25" width="59.1" xlink:href="#D" id="j"/><use ffdec:characterId="25" height="43.55" width="39.75" xlink:href="#E" id="k"/><use ffdec:characterId="27" height="5.9" width="6" xlink:href="#F" id="l"/><use ffdec:characterId="29" height="10.75" width="7.2" xlink:href="#G" id="m"/><radialGradient cx="0" cy="0" gradientTransform="translate(15.35 25.85) scale(.0027)" gradientUnits="userSpaceOnUse" id="p" r="819.2" spreadMethod="pad"><stop offset="0" stop-color="#dff8ff"/><stop offset=".776" stop-color="#ade4ff"/></radialGradient><radialGradient cx="0" cy="0" gradientTransform="translate(16 34.3) scale(.0019)" gradientUnits="userSpaceOnUse" id="q" r="819.2" spreadMethod="pad"><stop offset="0" stop-color="#dff8ff"/><stop offset=".776" stop-color="#ade4ff"/></radialGradient><radialGradient cx="0" cy="0" gradientTransform="translate(10.95 38.7) scale(.0023)" gradientUnits="userSpaceOnUse" id="r" r="819.2" spreadMethod="pad"><stop offset="0" stop-color="#dff8ff"/><stop offset=".776" stop-color="#ade4ff"/></radialGradient><radialGradient cx="0" cy="0" gradientTransform="translate(31.35 42.6) scale(.0179)" gradientUnits="userSpaceOnUse" id="s" r="819.2" spreadMethod="pad"><stop offset=".129" stop-color="#69fe02"/><stop offset=".961" stop-color="#2c752e"/></radialGradient><radialGradient cx="0" cy="0" gradientTransform="translate(7.65 31) scale(.0017)" gradientUnits="userSpaceOnUse" id="u" r="819.2" spreadMethod="pad"><stop offset="0" stop-color="#dff8ff"/><stop offset=".776" stop-color="#ade4ff"/></radialGradient><radialGradient cx="0" cy="0" gradientTransform="matrix(.003 0 0 .003 17.4 26.25)" gradientUnits="userSpaceOnUse" id="v" r="819.2" spreadMethod="pad"><stop offset="0" stop-color="#0289db"/><stop offset=".776" stop-color="#56befb"/></radialGradient><linearGradient gradientTransform="matrix(0 .0102 -.0103 0 10.85 21.2)" gradientUnits="userSpaceOnUse" id="n" spreadMethod="pad" x1="-819.2" x2="819.2"><stop offset="0" stop-color="#52baf9"/><stop offset=".776" stop-color="#8fd4fe"/></linearGradient><linearGradient gradientTransform="matrix(-.0218 .011 -.0106 -.0211 26 23.55)" gradientUnits="userSpaceOnUse" id="o" spreadMethod="pad" x1="-819.2" x2="819.2"><stop offset="0" stop-color="#52baf9"/><stop offset=".776" stop-color="#8fd4fe"/></linearGradient><linearGradient gradientTransform="rotate(134.846 4.114 14.867) scale(.0173 .01)" gradientUnits="userSpaceOnUse" id="t" spreadMethod="pad" x1="-819.2" x2="819.2"><stop offset="0" stop-color="#52baf9"/><stop offset=".776" stop-color="#8fd4fe"/></linearGradient><path d="M27.75 0q0 2-8.15 3.4Q11.5 4.9 0 4.9q-11.5 0-19.65-1.5-8.1-1.4-8.1-3.4 0-2.05 8.1-3.5Q-11.5-4.9 0-4.9q11.5 0 19.6 1.4 8.15 1.45 8.15 3.5" fill-opacity=".349" fill-rule="evenodd" transform="translate(27.75 4.9)" id="b"/></defs></svg>