<svg xmlns:ffdec="https://www.free-decompiler.com/flash" xmlns:xlink="http://www.w3.org/1999/xlink" ffdec:objectType="frame" height="90" width="90" xmlns="http://www.w3.org/2000/svg"><use ffdec:characterId="37" height="269.35" transform="matrix(.2907 0 0 .291 -13.272 6.125)" width="371.75" xlink:href="#a"/><defs><g id="a" transform="translate(45.65 -21.05)"><use ffdec:characterId="2" height="53.4" transform="translate(224.4 181.7) scale(1.3022)" width="62.9" xlink:href="#b"/><use ffdec:characterId="4" height="150.15" transform="matrix(1.1472 -.0205 0 1.3022 -37.85 55.75)" width="168.5" xlink:href="#c"/><use ffdec:characterId="6" height="79.9" transform="translate(77.45 120.2) scale(1.3022)" width="62.4" xlink:href="#d"/><use ffdec:characterId="7" height="9.8" transform="matrix(2.6237 0 0 4.9431 127.293 241.979)" width="55.5" xlink:href="#e"/><use ffdec:characterId="9" height="63" transform="translate(202.9 197.55) scale(1.3022)" width="43.5" xlink:href="#f"/><use ffdec:characterId="14" height="65.1" transform="translate(131.5 176.1) scale(1.3022)" width="36.35" xlink:href="#g"/><use ffdec:characterId="16" height="56.2" transform="translate(156.6 177.55) scale(1.3022)" width="33.8" xlink:href="#h"/><use ffdec:characterId="20" height="61.75" transform="translate(222.85 32.2) scale(1.3022)" width="62.6" xlink:href="#i"/><use ffdec:characterId="24" height="58.05" transform="translate(151.95 127) scale(1.3022)" width="58.85" xlink:href="#j"/><use ffdec:characterId="26" height="47.45" transform="translate(190.85 90.7) scale(1.3022)" width="50.6" xlink:href="#k"/><use ffdec:characterId="28" height="114.45" transform="translate(110.75 24.45) scale(1.3022)" width="107.15" xlink:href="#l"/><use ffdec:characterId="34" height="81.05" transform="translate(97.7 25.25) scale(1.3022)" width="101.2" xlink:href="#m"/><use ffdec:characterId="36" height="87.6" transform="translate(177.2 120.1) scale(1.3022)" width="113.15" xlink:href="#n"/></g><g id="w" fill-rule="evenodd"><path d="M14.5 3.1Q26.75 5.25 35.8 9q5.55 2.85 8.2 6l-4.1-.8 3.8 3q8.4 10.05 12.85 19.25L50.7 33l3.15 5.2.85 3.85q1.75 4.05 3.75 6.75Q48.1 47.4 38.9 38.7q.4 6.5 4.2 9.6-10.3-3.95-19.15-15.55l.65 8.8q-4.5-4.85-8.6-15.3l5.5 3.55q-3.25-3.95-5.05-13.3l3.8 4.9-3-8.7-2.75-9.6" fill="#f4d8f7"/><path d="m14.5 3.1 2.75 9.6 3 8.7-3.8-4.9q1.8 9.35 5.05 13.3L16 26.25q4.1 10.45 8.6 15.3l-.65-8.8Q32.8 44.35 43.1 48.3q-3.8-3.1-4.2-9.6 9.2 8.7 19.55 10.1l1.7 2.1q-7.3 2.6-14.65-1.85v2.2Q35.3 51 27.2 41.3l-.5 3.15Q20.65 41.05 15.5 31l-.5 1.85-10.95-8.8L0 18.75l10.45-16.3L13.9 3l.6.1m39.35 35.1L50.7 33l5.85 3.45 1 2.25-4-1.85.3 1.35m-10.15-21-3.8-3 4.1.8 1.25 1.7h-2l.45.5" fill="#a48dac"/><path d="M44 15q-2.65-3.15-8.2-6-9.05-3.75-21.3-5.9l-.6-.1-3.45-.55L12.05 0 27.7 4.6q12.35 3.6 18.05 9.85 2.3 3.15.6 4.25 6.65 6.95 11.6 17 1.95 3.3.7 4.75l-3.35-.75q3.8 8.85 7.6 12.05l-2.35 1q-7.85 1.5-13.3-1.25-2.75 2.5-5 1.75-8.1-2.9-13.8-8.95.05 2.9-4.75 0-4.7-3.85-8.2-10.55-2.1.55-5.1-1.5l-6.35-8.2L15 32.85l.5-1.85q5.15 10.05 11.2 13.45l.5-3.15q8.1 9.7 18.3 9.95v-2.2q7.35 4.45 14.65 1.85l-1.7-2.1q-2-2.7-3.75-6.75l-.85-3.85-.3-1.35 4 1.85-1-2.25Q52.1 27.25 43.7 17.2l-.45-.5h2L44 15" fill="#7e6985"/></g><g id="x" fill-rule="evenodd"><path d="m96.25 53.7.95.7-.1.3q-.75 2.3.25 6.35l.6.95q1.8 2.75 4.5 3.3 2.3.45 5.25-.7l2.05-.95.25-.15.25-.05.25.05q15.55 6 22.15 17.8l.75 1.35.05.35-.15.35-.25.15-.35-.05q-3.15-1.4-6.7-2.45-9.25-2.85-21.5-3.75-.25 0-.35-.15l-.15-.4q.1-3.4-2.25-4.4l-4.05.85.6 1.05.1.35-.15.3L98 75l-3.5 1h-.2l-.1-1.15v.1l2.8-.85-.65-1.1-.1-.35.2-.3q.1-.15.3-.15l4.95-1h.3l.8.35q2.2 1.25 2.3 4.6l3.75.35q8.2.85 15 2.7 4.15 1.1 7.8 2.6l-1-1.65q-6.5-10.05-20.35-15.5l-.55.25-1.6.75q-3.35 1.3-5.95.75-3.25-.7-5.45-4.15l-.4-.7-.05-.1q-1.25-5-.1-7.6l.05-.15M67.95 36l.35 1.35h-.15q-5.95-2.65-13.5-8.45l2.05 2.4 9.8 12.35 7.3 3.4.05.05.05.05h1.7q12.15.15 19.25 5.4l.1.1-.05.15-.15.1h-.15q-7.4-5.4-20.15-5.35l-.4-.05.4 1.3q1.5 5.4.25 8.95l-.5-.05q1.35-3.5-.25-9l-.4-1.3-.45-.2-6.85-3.1-.05-.1-9.85-12.4-1.3-1.95-.95-1.15-.3-.25-.45-.35q7.05 12.9 13.3 19.3l.05.1q1.4.05 4.9 2.2l.05.15q1.7 4.3-.05 6.5l-.2-.45q1.35-2-.1-5.85-3.25-2.05-4.5-2.1l-2.2-1.2v.1l-.2-.2Q58.1 39.4 51.05 26l-.05-.4.2-.35.35-.1.35.1q9.05 7.5 16.05 10.75m21.9 27.85h-.15l-.1-.1-.1-.15q1.25-7.15-1.2-11.55v-.15l.1-.15h.15l.15.1.1.2q2.4 4.45 1.15 11.6l-.1.2m24.7 7.7L110 69.2h-7.65l-5.45-1.8q-4.4-1.6-6.9-3.2l-.1-.1.05-.2.15-.1.15.05q2.15 1.35 5.7 2.75l6.5 2.15H110l.1.05 13.8 7.1.15.1-.05.15-.1.15-.15-.05-.5-.25-8.7-4.45m-59.35-9.1.6.95q-5.6 3.95-13.6 1.4l-.25-.15Q37.7 60.2 39.1 47.8l.2-1.4-5.25-12.1v-.15L34 34.1l-.35.9-.05.35q-4.25 13.2-1.65 29.2l4.25 1.75 1.15.45.25.2 2.3 3.65 2.25 3.6q8 .9 16.75-5.35L62.85 65l.9.65-4.1 4-.05.05q-7.5 5.4-14.55 5.75l-3.25-.2-.25-.05-.15-.2-4.65-7.3-5.15-2.05-7.4-2.95.2-1.15 7.05 2.85q-2.5-16 1.75-29.2l.7-1.25-.15-.1 1-.6.3.25.1.2 5.25 12.45v.3q-1.75 12.8 2.3 17.35 7.35 2.25 12.5-1.35m13.9 13.8-.05.15 1.2.45-.9-.15-.55 1.7-.1.1-.1.05q-5.8-.4-11.6 5.95-2.05 5.3-1.3 8.7.5 2.45 2.55 3.95l.25-.1.4.2.2.35v5.3l1.2 1.15q5 6.1 17.35 5.65l.2.05.05.15-.05.15-.15.1h-.35q-12.35.4-17.35-5.8l-.35-.45-.5-.6-.05-.1v.15l-.1.25-.05.1q-2.2 3.9-3.95 7.7l-.1.25-.95-.6-.05.05.05-.05q1.75-3.9 4-7.85v-5.7l-.5-.4-.85-.85q-3.15-3.85 0-11.9v-.05q5.95-6.55 11.85-6.2l.6-1.7v-.05l.05-.1m7.8 2.3.35.25-1.1 3.45-.1.1-.1.05q-5.1-.3-9.8 5.25-3.35 9.65 2.65 16.9h.05l.4.05.25.1q4.3 2.25 13.55.35l.4.05.25.3q3.2 9.75 5.1 17.35l1.1 5-1.2-.4-2.45-9.8-3.5-11.35q-8.65 1.75-13.05-.15l-1-.5q-.2-.1-.25-.35v-.4q-6.15-7.4-2.65-17.35v-.05q4.8-5.7 10-5.45l.35-1.1.75-2.3m3.5 2.8h.05-.05m2.05 5.85.4-.5q.1-.15.35-.2l.4.1.25.35-.1.4-.5.6-.4.65-.1.1-.25.3-.4.2-.4-.1-.15-.15-1.7.3q-2.2 2.6-2.35 4.8-.1 2.1 1.75 3.85 2.05 1.3 5.45-1.15l.3-.1.3.05 10.05 5.4.25.3q4.85 14.75 18.05 27.5l.05.05h-1.6Q99.45 117.4 94.65 103l-8.9-4.8-.7-.35q-3.95 2.7-6.45.95h-.05q-2.35-2.2-2.15-4.85.1-2.55 2.75-5.55.1-.15.3-.15l2.6-.5.4-.55M83.9 69l.1.05v.05l-.1-.05V69m-2.55 12.6-.05-.1h-.05l-.55-.45h.05l.55.45.05.1M34 34.1v-.05.05m46.95 47.7-.5-.45.5.4v.05m74.35 48.1 3.55 1.5.5 1.35.1 1q-.05 1.35-.85 2.85l-2.45 3.55-.4.25-.4.2q-1.95 1.1-4.1 1.85l-.65.2-1.2.35-.55.15q-1.05.1-2.8-1.95-.7-2 0-3.3l.85.2.7 3.05h.2l2.7.25q2.45-.4 4.1-1.3 1.4-.85 2.2-2.05l.75-1.3 1.05-1.85q0-2.45-.5-3l-2.1-.75.1-.45v-.05l-.8-.75M36.8 72.45q.9 15.45 14.65 26.25l.05.1v.2l-.15.05h-.15Q36.6 87.6 36.3 71l.05-.15q.05-.1.15-.1l.15.1.05.15.1 1.45" fill="#524866"/><path d="m68.3 37.35 3.5 1.3v.05l14.65 4.25h.05q11.15 3 16.1 7.9-4.2-.3-5.85 2.05l-.5.8-.05.15-1.25-1.2-.1-.1q-7.1-5.25-19.25-5.4-5.15-4-7.05-8.65l-.4-1.15h.15m-13.6 9.7-.85-1.8 5.4 1.3 6 8.15-10.55-7.65m20.55 11.7 3.15 1.1q.1 6.05-3.1 9.55 2.05-3.5 1.75-8.75l-1.8-1.9m13.05 17v.1l-.9 1.7-4.4-4 .7-1.15 4.6 3.35m-33.4 35.9.1-.25 5.15 4.1 3.2-2.2-1.05 3.25 1.75.9 6.9-4.55-1.25 7.8 5.1 2.15 2.5-1.5.6 2.75 10.8 3.25.25 1.4v.05l.05.1q1.7 8.9 1.15 14.1-26.2-4.5-40.8-15.4 1.75-7.6 5.4-15.65l.15-.3m54.85-46.75.55-.25q13.85 5.45 20.35 15.5l-6.9-3.85v-.05l.15.05.1-.15.05-.15-.15-.1-13.8-7.1-.1-.05h-.3l.05-3.85m-19.8 63.2 9 1.95-.85-8.3 5.1 8.55 8.9-.35h.05q7 6.95 16.4 13.3l-4.75-.7h-.05q-20.05-2.05-33.7-14.05l-.1-.4m.85-55.55h1.1l.1.15q-.35 2.5-1.9 5.2l-.3.35q-1.85 2.6-4 4.35l-1.1.25q3.15-2.45 5.05-6.65l1.05-3.65m61.2 66.9q2.05-1 3.85-2.9l.8-2 .9 2.2-.75 1.3q-.8 1.2-2.2 2.05-1.55.25-2.6-.65M31.6 65.65l3.65 11.2L40 88.65q-6.4-6.2-11.1-20.05v3l5.8 16 12.55 15.8 3.95-2.55-1.5 4.95 4.2 5.3q-3.9 8.5-5.7 16.5l-.05.2q-1.05 4.9-1.15 9.85Q27.7 125.4 19 99.2v-.05q-7-18.3-4.55-41.3l2.4 1.85v.05l.1.05.15.05 7.1 2.85 7.4 2.95m-7.2-4.1-6.65-2.65q-2.8-31.6-15-55.4l31 30.35.15.1-.7 1.25q-4.25 13.2-1.75 29.2l-7.05-2.85" fill="#fff"/><path d="m94.95 52.65 1.25 1.2q-1.15 2.6.1 7.6l.05.1.4.7-4.65 1 3.85 3.35q-3.55-1.4-5.7-2.75l-.15-.05-.15.1-.1-.05.1-.2q1.25-7.15-1.15-11.6l-.1-.2-.15-.1h-.15l-.1.15v.05q-3.95-2.5-13.85-3.15l-.4-1.3.4.05Q87.2 47.5 94.6 52.9h.15l.15-.1.05-.15m7.85 18.9 3.85 1.3q1.8.95 2.2 3.65l-3.75-.35q-.1-3.35-2.3-4.6m21.05 7.65-9.3-7.65 8.7 4.45.5.3 6.9 3.85 1 1.65q-3.65-1.5-7.8-2.6M71.6 56.15q1.75-2.2.05-6.5l-.05-.15q-3.5-2.15-4.9-2.2l-.05-.1q-6.25-6.4-13.3-19.3l.45.35.3.25.95 1.15 1.3 1.95L66.2 44l.05.1 6.85 3.1.45.2.4 1.3q1.6 5.5.25 9l-.05.25-.05.1h-.05l-1.6-.45-.9-1.35.05-.1m-14.45 8.1 5.85.55v.05l-.15.15-3.95 3.85q-8.75 6.25-16.75 5.35l-2.25-3.6q6.15 4 15.4-3.1l1.85-3.25m13.1 12.6 5.05.7 1.4.6.25.25-.05.15-.75 2.3-5.55-1.4-5.75 2.1q-7.25 5.5-9.15 11.65-.75-3.4 1.3-8.7 5.8-6.35 11.6-5.95l.1-.05.1-.1.55-1.7.9.15m7 1.95.05-.1 3.1 2.65v2.75l-1.9-1.3-1.7 3q-5.1-.1-9.2 5.7-3.1 6.05 1.9 13.2l-.25-.1-.4-.05h-.05q-6-7.25-2.65-16.9 4.7-5.55 9.8-5.25l.1-.05.1-.1 1.1-3.45m3.45 5.75 1.75 2.65-.4.55-2.6.5q-.2 0-.3.15-2.65 3-2.75 5.55-.2 2.65 2.15 4.85h.05q2.5 1.75 6.45-.95l.7.35q-4.05 4.9-9.3 5.15-8.05.65-5.75-10 3.2-4.4 8.2-5.55l1.8-3.25m-24.1 11.7.85.85.5.4v3.75l-6.6-2.15v-.05l.15-.05v-.2l-.05-.1Q37.7 87.9 36.8 72.45V71l-.05-3.3L41.4 75l.15.2.25.05 3.25.2v9.1q4.9 10.85 11.55 11.7m21.3 13.65-.05-.15-.2-.05q-12.35.45-17.35-5.65l-1.2-1.15v-3.7l9.35 5.6v.4q.05.25.25.35l1 .5q4.4 1.9 13.05.15l3.5 11.35-4.1-8.5-4.25.95v-.1M36.2 66.3l-4.25-1.75q-2.6-16 1.65-29.2l.05-.35.35-.9.05.05v.15l3.15 10.4q-3.1 9.4-1 21.6m71.95-.65 1.6-.75-.05 3.85h-.25l-1.3-3.1m39.6 72.65 1.5 1.15 1.25 1.95-2.7-.25h-.05v-2.85" fill="#6b6086"/><path d="m68.15 37.35.4 1.15q1.9 4.65 7.05 8.65h-1.7l-.05-.05-.05-.05-7.3-3.4-9.8-12.35-2.05-2.4q7.55 5.8 13.5 8.45m20.15 14.6v.1q2.45 4.4 1.2 11.55l.1.15.1.1h.15l.1.05-.05.2.1.1q2.5 1.6 6.9 3.2l5.45 1.8H110l4.55 2.35 9.3 7.65q-6.8-1.85-15-2.7-.4-2.7-2.2-3.65l-3.85-1.3-.8-.35h-.3l-4.95 1q-.2 0-.3.15l-.2.3.1.35.65 1.1-2.8.85v-.1l-2.05-2.6v-.05l-.1-.05H88.6l-4.9-3.9-1.85-5.4-.05-.1-3.1-3.25-.05-.05-4.1-1.4.15-.3q1.25-3.55-.25-8.95 9.9.65 13.85 3.15M55.8 63.4l.5-.4.65 1.15.1.05.1.05-1.85 3.25q-9.25 7.1-15.4 3.1l-2.3-3.65-.25-.2-1.15-.45q-2.1-12.2 1-21.6l.15.55 1.75 2.55q-1.4 12.4 2.85 16.85l.25.15q8 2.55 13.6-1.4m7.95 2.25.2-.25q2.4 2.95 3.3 9.35l.1.15 1.8 1.35h-.05l-.05.1v.05l-.6 1.7q-5.9-.35-11.85 6.2v.05q-3.15 8.05 0 11.9-6.65-.85-11.55-11.7v-9.1q7.05-.35 14.55-5.75l.05-.05 4.1-4M80.4 84.1l.3.45-1.8 3.25q-5 1.15-8.2 5.55-2.3 10.65 5.75 10 5.25-.25 9.3-5.15l8.9 4.8q4.8 14.4 17.45 26.95l-8.9.35-5.1-8.55.85 8.3-9-1.95-.05-.35-1.1-5q-1.9-7.6-5.1-17.35l-.25-.3-.4-.05q-9.25 1.9-13.55-.35-5-7.15-1.9-13.2 4.1-5.8 9.2-5.7l1.7-3 1.9 1.3m-22.45 17.15v1.95q-2.25 3.95-4 7.85l-.05.05-4.2-5.3 1.5-4.95-3.95 2.55L34.7 87.6l-5.8-16v-3Q33.6 82.45 40 88.65l-4.75-11.8-3.65-11.2 5.15 2.05.05 3.3h-.1l-.05-.15-.15-.1q-.1 0-.15.1l-.05.15q.3 16.6 14.9 28.05h.1l.05.05 6.6 2.15M55 111.4q1.75-3.8 3.95-7.7l.05-.1.1-.25.05-.05.5.6.35.45q5 6.2 17.35 5.8h.35l.15-.1.05-.05 4.25-.95 4.1 8.5 2.45 9.8-10.8-3.25-.6-2.75-2.5 1.5-5.1-2.15 1.25-7.8-6.9 4.55-1.75-.9 1.05-3.25-3.2 2.2-5.15-4.1m4.1-12.2v-1.6l-.2-.35-.4-.2-.25.1q-2.05-1.5-2.55-3.95 1.9-6.15 9.15-11.65l5.75-2.1 5.55 1.4-.35 1.1q-5.2-.25-10 5.45v.05q-3.5 9.95 2.65 17.35l-9.35-5.6m37.65-36.95q2.2 3.45 5.45 4.15 2.6.55 5.95-.75l1.3 3.1h-7l-6.5-2.15-3.85-3.35 4.65-1m52.5 77.2H152q1.05.9 2.6.65-1.65.9-4.1 1.3l-1.25-1.95m7.4-4.9.15-1-.8-2.4 2.1.75q.5.55.5 3l-1.05 1.85-.9-2.2" fill="#b4a7d2"/><path d="m88.55 86.15.8-.85 57.25 49.8 3.35 3.85h-.35l-25.15-22.2-35.9-30.6M82.6 82l-.4.25-.85-.65-.05-.1-.55-.45h-.05V81l-3.35-2.85v-.05l-.4-.3-.05-.05-1.5-.6-.05-.05-5.35-.75-1.15-.9 7.25.95 6.5 5.6M63.5 64.4l-6.25-.55-.65-1.2v-.25l-.15-.55-2.9-12L57.9 62.5l5.6 1.9M34.05 34.3l5.25 12.1-.2 1.4-1.75-2.55-.15-.55-3.15-10.4m49.7 51.9-.75.1-1.9-2.25-.05-2.15.5.45.25 1.55 1.95 2.3" fill="#aedceb"/><path d="m57.35 52.95-2.65-5.9 10.55 7.65-6-8.15 6.85 1.6h.2l2.25 1.35.15.35-.9 3.6-.1.1-.05.1q-3.7 6.15-6.95 6.6l-3.35-7.3m15.2 5.2 1.65.4 1.05.2 1.8 1.9q.3 5.25-1.75 8.75-1.25 1.3-2.95 2.3l-3.9-7.3.05-.05q3.6-2.55 4.05-6.2M84 69.05l4.35 3.45q.45 1.6-.05 3.25l-4.6-3.35.4-1.35v-.6L84 69.1v-.05m3.4 8.5-2.55 2.75-4.8-4.45q1.85-.75 2.95-2.3l4.4 4m-4.15 4.55 1.9-1.5q1.65-1.35 2.55-2.7 1.8-2.65 1.1-5.35h2l-1.05 3.65q-1.9 4.2-5.05 6.65-1.8.3-1.45-.75m73.15 58.7q2.8-1.7 3.7-5.15l.45-1.45 1.1.4 4.5 12.55-9.75-6.35" fill="#ffdb1f"/><path d="m52.75 46.65 4.6 6.3 3.35 7.3q3.25-.45 6.95-6.6-1.2 7.2-9.15 8.05-.1 0-.15.1l-.05.15.1.15h.15q7.7-.8 9.35-7.35l.15-1.05v-.15l-.15-.1h-.1l.9-3.6 2.3 6.5 1.1 1.7.45.1q-.45 3.65-4.05 6.2l-.05.05 3.9 7.3q1.7-1 2.95-2.3 3.2-3.5 3.1-9.55L81.45 63l1.9 5.45.05.1.5.4v.1l-.05.5-.15 1.4q-1.05 4-4.95 4.8l-.15.1V76l.05.15h.2l1.2-.3 4.8 4.45-1.95 1.5-7.6-7.45 3.6-5.6.55-2.4q.6-2.15-.45-4.4l-.1-.1h-.2l-.1.1v.15q2.6 6-6.5 11.1l-.4.15-4 1.25q-1.05-7.25-4.05-10.1l-.15-.1-5.6-1.9-4.35-12.65-.8-3.2m28.8 35.7.5.4h.25q.3-.25.65-.45l.3-.2q-.35 1.05 1.45.75l1.1-.25-2.1 1.4v.05l1.55 2-1.5.15-1.95-2.3-.25-1.55M92 72.7l1.9 2.5-.1.4.1.15-.35 1.95-.35 1.2q-1.4 4.65-5.3 6.8l-.1.05-.65.05L86 84.35q3.7-3 5.05-7.75l-.95 1.3q1.55-2.7 1.9-5.2m67.45 61.05 1.1.45-.45 1.45q-.9 3.45-3.7 5.15l-.65-.4.4-.25 2.45-3.55q.8-1.5.85-2.85m3.85 13.6-5.65-.8-4.8-1.45-1.6-2.65q2.15-.75 4.1-1.85l7.95 6.75" fill="#c37d05"/><path d="m53.85 45.25.85 1.8 2.65 5.9-4.6-6.3-.4-1.75 1.5.35M82.9 81.8l-.3.2-6.5-5.6-7.25-.95-1.15-.85 4-1.25.05.05-.1.15v.15l.1.1h.2q6.45-3.55 7.5-7.45l-.55 2.4-3.6 5.6 7.6 7.45m4.25 4-1.9.25-1.55-2V84l2.1-1.4q2.15-1.75 4-4.35l.3-.35.95-1.3Q89.7 81.35 86 84.35l1.15 1.45m68.6 54.6.65.4 9.75 6.35.2.65-3.05-.45-7.95-6.75.4-.2" fill="#a86008"/><path d="m74.7 57.75-.15.3 4.1 1.4.05.05 3.1 3.25.05.1 1.85 5.4 4.9 3.9h3.45l.1.05v.05l2.05 2.6.1 1.15-.35 2-.35 1.2-.85 2.1-1.6 2.4-1.8 1.6-.8.85-.85.75-.4.2q-1.75.85-4.05.85l.5-.6.1-.4-.25-.35-.4-.1q-.25.05-.35.2l-.4.5-1.75-2.65-.3-.45v-2.75l-3.1-2.65-.05.1-.35-.25.05-.15-.25-.25-1.4-.6-5.05-.7-1.2-.45.05-.15h.1-.05l-1.8-1.35-.1-.15q-.9-6.4-3.3-9.35l-.2.25-.9-.65.15-.15.05-.05H63l-5.85-.55-.1-.05-.1-.05L56.3 63l-.5.4-.6-.95.2-.15L51 44.25q-.05-.2.05-.35l.25-.3h.35l12.95 3.05v-.1l2.2 1.2-.05.1-.05.05 2.15 1.25v.05l.1.05 2.35 6.6.1-.15.2.45-.05.1.9 1.35 1.6.45v.05l.05-.05.05-.1.05-.25.5.05m-20.85-12.5-1.5-.35.4 1.75.8 3.2 2.9 12 .15.55v.25l.65 1.2 6.25.55.15.1q3 2.85 4.05 10.1l1.15.85 1.15.9 5.35.75.05.05 1.5.6.05.05.4.3v.05L80.7 81v.05h.05-.05l.55.45h.05l.05.1.85.65.4-.25.3-.2 1.95-1.5 2.55-2.75.9-1.7v-.1q.5-1.65.05-3.25L84 69.05l-.1-.05v-.05l-.5-.4-.05-.1-1.9-5.45-3.05-3.15-3.15-1.1-1.05-.35v.15l-1.65-.4-.45-.1-1.1-1.7-2.3-6.5-.15-.35-2.25-1.35h-.2l-6.85-1.6-5.4-1.3m26.6 36.1h-.05.05l.5.45v-.05l-.5-.4M67.9 53.45l.15.1v.15l-.15 1.05q-1.65 6.55-9.35 7.35h-.15l-.1-.15.05-.15q.05-.1.15-.1 7.95-.85 9.15-8.05l.05-.1.1-.05.1-.05m11.55 12.9q-1.05 3.9-7.5 7.45h-.2l-.1-.1v-.15l.1-.15.35-.2q9.1-5.1 6.5-11.1v-.15l.1-.1h.2l.1.1q1.05 2.25.45 4.4m4.45 2.7.1.05.1 1.35v.6l-.4 1.35-.7 1.15q-1.1 1.55-2.95 2.3l-1.2.3h-.2L78.6 76v-.15l.15-.1q3.9-.8 4.95-4.8l.15-1.4.05-.5m-.65 13.05-.3.2q-.35.2-.65.45h-.25l-.5-.4-.5-.45.05 2.15L83 86.3l.75-.1 1.5-.15 1.9-.25.65-.05v.1l.1-.15q3.9-2.15 5.3-6.8l.35-1.2.35-1.95-.1-.15.1-.4-1.9-2.5-.1-.15h-3.1q.7 2.7-1.1 5.35-.9 1.35-2.55 2.7l-1.9 1.5m76.1 50.65 3.3 1.2q4.05 7.85 5.85 16.2l-3.75-.4-12.3-2.65-1.5-1.15-1.55-2.95 1.2-.35 1.8 3.15 5.25.75 5.65.8 3.05.45-.2-.65-4.5-12.55-1.1-.4-1.1-.45-.1-1" fill="#854a05"/><path d="m87.3 87.1.4-.2.85-.75 35.9 30.6 25.15 22.2h.35q2.1-.25 3.65-1.35l1.45-1.5.3-.35q.8-1.3.75-2.5l-.35-1.3L93.95 78l.35-2v.05l38.85 33.85 22.15 20 .8.75v.05l-.1.45.8 2.4-.15 1-.8 2q-1.8 1.9-3.85 2.9h-2.75l-1.5-1.15-.85-.2-.85-.2-29.8-26.25L87.3 87.1" fill="#764237"/><path d="m89.35 85.3 1.8-1.6 62.45 53.9q-1.55 1.1-3.65 1.35l-3.35-3.85-57.25-49.8" fill="#8c4c30"/><path d="m91.15 83.7 1.6-2.4 62.6 54.45-.3.35-1.45 1.5-62.45-53.9m2.45-4.5.35-1.2 61.8 53.95.35 1.3L93.6 79.2" fill="#b26948"/><path d="m92.75 81.3.85-2.1 62.5 54.05q.05 1.2-.75 2.5L92.75 81.3" fill="#eb946d"/><path d="m146.9 138.1.85.2v2.85h-.15l-.7-3.05m10.75 8.45-5.25-.75-1.8-3.15.65-.2 1.6 2.65 4.8 1.45" fill="#abd3df"/><path d="m96.25 53.7.5-.8q1.65-2.35 5.85-2.05-4.95-4.9-16.1-7.9h-.05L71.8 38.7v-.05l-3.5-1.3-.35-1.35q2.15 1 4.15 1.6l14.7 4.25q12.8 3.45 17.7 9.4l.1.3-.05.3-.25.2-.35.1q-4.65-.75-6.3 1.4-.3.35-.45.85l-.95-.7M53.9 111.1l.05-.05.95.6-.15.3q-3.65 8.05-5.4 15.65 14.6 10.9 40.8 15.4.55-5.2-1.15-14.1l-.05-.1v-.05l-.25-1.4 1.2.4.05.35.1.4q13.65 12 33.7 14.05h.05l4.75.7q-9.4-6.35-16.4-13.3h1.55q7.45 7.2 17.55 13.7l.2.3v.4l-.25.3-.35.05-7.2-1q-19.65-2.05-33.3-13.45 1.55 8.5.8 13.45l-.1.25-.2.2-.35.05q-26.5-4.45-41.4-15.35-1 4.85-.95 9.8l-.15.4-.35.15-.35-.05q-20.35-12.45-29.35-39.6-7.25-18.95-4.55-42.8.05-.25.2-.35.15-.15.35-.15l.35.1 2.25 1.7Q13.5 25.15.05.85L0 .5Q.05.25.2.15.35 0 .6 0q.2 0 .35.15l33.8 33.1-1 .6-31-30.35q12.2 23.8 15 55.4l6.65 2.65-.2 1.15-7.1-2.85-.15-.05-.1-.05v-.05l-2.4-1.85Q12 80.85 19 99.15v.05q8.7 26.2 28 38.45.1-4.95 1.15-9.85l.05-.2q1.8-8 5.7-16.5" fill="#9186ac"/></g><g id="y" fill-rule="evenodd"><path d="M16.9 3.45q1.85 4.55 2 8.7l.05 1.45q.1 3.3-.45 5.1l-1 3.8-.25 1.55-1.15 6.3 5.6 7.75-1.35 1.15-5.95-9.05 2.8-12.25q.45-8.9-1.7-14.55L13.3 0q2.2.45 5.4 3.25 4.7 3.6 7.9 8.2l.25 9.05-1.95 1.1q-1.15 3.25 0 5.25l3.8 5.25-.9.75-2.75-2.8-.1-.15q-1.5-2.25-1.4-8l2.05-2.7v-5.75l-1.25-3.05L16.7 3l.2.45m2.65 9.15.95-.75 4 3.9-3.95-3.1-1-.05m-1.65 11 1.75-1.6 2.8 2.95-2.5-2.15-.3-.3-1.75 1.1m2 6.05 1.05-.95 3.8 1.9q-2.2-.95-4.4-.9l-1.35.75.9-.8" fill="#2e2431"/><path d="M18.9 12.15 20 11.1q-.45-2.7-2.35-6.55l-.75-1.1-.2-.45 7.65 7.4 1.25 3.05v5.75l-2.05 2.7q-.1 5.75 1.4 8l.1.15 2.75 2.8-4.85 4.2-2.6-7.35q2.2-.05 4.4.9l-3.8-1.9-1.05.95.05-6.85 2.5 2.15-2.8-2.95-1.75 1.6-.65.45.25-1.55 2.55-1.45 1.2-6.15-.7-2.25 3.95 3.1-4-3.9-.95.75-.6 1-.05-1.45" fill="#3f2f42"/><path d="m16.9 3.45.75 1.1Q19.55 8.4 20 11.1l-1.1 1.05q-.15-4.15-2-8.7m2.05 10.15.6-1 1 .05.7 2.25-1.2 6.15-2.55 1.45 1-3.8q.55-1.8.45-5.1m-1.7 10.45.65-.45 1.75-1.1.3.3-.05 6.85-.9.8 1.35-.75 2.6 7.35-1.25 1.05-5.6-7.75 1.15-6.3" fill="#5a475d"/><path d="M39.3 17.35q-.25 7.85-4.5 15.4l-13.1 4.2q.9-12.65 13.4-21.4l4.2 1.8" fill="#d39882"/><path d="m58.85 25.7-6.4 9.9q-5.1 6.45-10.55 6.6l-12.15 3.25-8.1-6.15q-.05-1.2.05-2.35l13.1-4.2q4.25-7.55 4.5-15.4l19.55 8.35" fill="#b27660"/><path d="m60.85 26.55-3.8 7.1-3.45 4.7v2.6l-5.75 4.65-9.65 6.25-8.45-6.4L41.9 42.2q5.45-.15 10.55-6.6l6.4-9.9 2 .85" fill="#955849"/><path d="m57.05 33.65 3.8-7.1 1.55.7-6.8 11.35 1.2 1.75q-1.95 2.35-8.2 6.8l-9.75 5.25-.65-.55 9.65-6.25 2.3-1.55q2.8-.8 4.8-4.2l-.85-.65 2.95-5.55M35.1 15.55q-12.5 8.75-13.4 21.4-.1 1.15-.05 2.35l-1.1-.85q-.4-6 4.05-14.8 5.15-5.4 9.35-8.55l1.15.45" fill="#764237"/><path d="m47.85 45.6 5.75-4.65v-2.6l3.45-4.7-2.95 5.55.85.65q-2 3.4-4.8 4.2l-2.3 1.55" fill="#aedceb"/><path d="m35.3 63.2-1 3.45-.75 1.25-3.15-2.65-4-3.45.7-.25 2.1 1.4-.1.15 1.3 1.1 2 1.7.75.6 1.1-4.55.6 1.25h.45M1.95 54.9l1-1.3 5.5 4.85v-2.1l1.45-1.2 1.8-1.5 2.25-1.9.75-.6-6.2-5.25.75-1.05 1.25 1.2.6.6.55.55.6.55 3.15 2.8v.85l-6.05 5.45 2.2 8.35.9.55 4.35 2.65-1.35.95-.35-.15-.8-.4-.7-.4q-1.95-1.2-3.45-2.8l-.25-.3-1.15-4.55-.5-.45L3 55.8l-1.05-.9" fill="#764237"/><path d="m30.9 72.15-1.2 1.9V70.2q-.5-2.4-1.5-3.5l-2.35-.6-2.5.8v-1.8l-2.25-1.75-1.55-1.85 5.55.85 1.3-.55 4 3.45.05.9.3 3.75.15 2.25M3.5 52.85l1.55-2.15 4.85 4.45-1.45 1.2v1.05L3.5 52.85" fill="#8c4c30"/><path d="m33.1 68.6-1.35 2.2-1-.9-.3-3.75 2.65 2.45M6.3 48.9 8 46.6l5.95 5.15-2.25 1.9-5.4-4.75" fill="#eb946d"/><path d="m33.55 67.9-.05.05-.4.65-2.65-2.45-.05-.9 3.15 2.65m-1.8 2.9-.85 1.35-.15-2.25 1 .9M5.05 50.7l1.25-1.8 5.4 4.75-1.8 1.5-4.85-4.45M8 46.6l.5-.7 6.2 5.25-.75.6L8 46.6" fill="#b26948"/><path d="m12.45 65.75 3.4-2.15q-1.8-2.95 0-5.9l.1-.05q1.9-.85 5.1.9 5.25-2.35 6.35-5.65l-.05-.05-1.5-2.55-7.3-2.3 7.55 1.2 4.8 5.85 2 4.1q-.7 4.15-2.5 5.05l-1.3-1.1.1-.15 1.05-1.9-.35-3.3.35-.65-.35.3.5-.9-2.15 1.7q-3.95 1.55-6.65 1.75l-.25.05q-2.3-1.75-3.6-1.75l.65 1.9.65 3.05 2.45 2.5-.05 2.15-.15-.7-1.85-.9-.9.9-1.75 1.25-4.35-2.65m3.25 10.8h-1.55l-.75-.5.85-.6-1.4-1.8q-.3-2.35 0-2.85.8 3.45 3 3.85l.25-.15 1.55-1-2.55-4.3.35.15 1.3.6q.05 2.15 2.55 3.3l-3.6 3.3m-4.55-6.75-.5.25q-2.65-.6-5.75-2.8l4.7 1.3-.75-1.65L10 68.3l.1.1 1.05 1.4m-2.9-9.5.5.45L9.9 65.3l-1.95-2.1.3-2.9m20.1 13.8-2.3 2.6-3.15 1.45-3.2-1.1 5.15-3.45-.25-5.6-1.35 1.3.1-.4v-1.5l1.7-.45q-.35 4.6.9 6.15l2.4 1" fill="#b27660"/><path d="m32.9 59.15.7 1.45-1.2 5.3-2-1.7q1.8-.9 2.5-5.05m-4.8-.25-3.05 1.7-5.25-.3-2.05-2.05q1.3 0 3.6 1.75l.25-.05q2.7-.2 6.65-1.75l2.15-1.7-.5.9-1.8 1.5m-6.35 11.15.35-.45.9-1.65-1.65 6.15-5 2.45h-.65l3.6-3.3q-2.5-1.15-2.55-3.3l2.5.8q1.4.3 2.5-.7M13.6 68.4l-2.45 1.4-1.05-1.4-.05-.15-2.5-5.45.4.4 1.95 2.1v.05l.25.25q1.5 1.6 3.45 2.8m11.45-1.45.4-.15q1.8-.2 2.65.5l.15.35q.65 4.85.1 6.45l-2.4-1q-1.25-1.55-.9-6.15" fill="#955849"/><path d="m12.25 47.75 5.4.15.9.1 7.3 2.3 1.5 2.55.05.05q-1.1 3.3-6.35 5.65-3.2-1.75-5.1-.9l-.1.05q-1.8 2.95 0 5.9l-3.4 2.15-.9-.55-2.2-8.35 6.05-5.45v-.85l-3.15-2.8m1.15 28.3-6.5-4.6v-2.5L10.25 71l4.05-2.2.8.4 2.55 4.3-1.55 1q-2-.7-3.25-3.7-.3.5 0 2.85l1.4 1.8-.85.6m-8.5-8.8-1.55-.8Q1.6 63.85 1.3 58.1L3 55.8l5.25 4.5-.3 2.9-.4-.4-.1-.25v.25q.25 2.1 1.1 3.6l.3.5.75 1.65-4.7-1.3m25-9.5.35 3.3-1.05 1.9-2.1-1.4.85-.4 1.95-3.4m-10.2 19.3-1.6-.6 4.1-2.2 1.05-4.95L24.6 68l.25 5.6-5.15 3.45" fill="#d39882"/><path d="m29.7 74.05-2.5 3.45-4.15 2.4q-4.25-.8-5.85-2.3l-3.05.5q-4.85-2.3-8.7-6.8l-.2-1.8-2.6-1.7q-3.1-4.45-2.6-10l1.9-2.9 1.05.9-1.7 2.3q.3 5.75 2.05 8.35l1.55.8q3.1 2.2 5.75 2.8l.5-.25 2.45-1.4.7.4-4.05 2.2-3.35-2.05v2.5l6.5 4.6.75.5h2.2l5-2.45L23 67.95l-.9 1.65-.35.45-.25-1.65.75-2.75-2.85-2.6-1-2.9-.65-1.9 2.05 2.05.4.45 5.15.25h.25l2.5-2.1 1.8-1.5.35-.3-.35.65-1.95 3.4-.85.4-.7.25-1.3.55-5.55-.85 1.55 1.85 2.25 1.75v1.8l2.5-.8 2.35.6q1 1.1 1.5 3.5v3.85M7.45 62.8h.1l2.5 5.45-.05.05-1.15-1.4-.3-.5q-.85-1.5-1.1-3.6m20.8 4.85-.15-.35q-.85-.7-2.65-.5l-.4.15-1.7.45v1.5l-.1.4-1.05 4.95-4.1 2.2 1.6.6 3.2 1.1 3.15-1.45 2.3-2.6.65-.75V71.6q-.15-2.75-.75-3.95M16.1 74.5l-.25.15q-2.2-.4-3-3.85 1.25 3 3.25 3.7" fill="#794339"/><path d="m2.95 53.6.55-.75 4.95 4.55v1.05l-5.5-4.85m30.65 7 .65 1.35-1.1 4.55-.75-.6 1.2-5.3m-5.5-1.7L25.6 61h-.25l-5.15-.25-.4-.45 5.25.3 3.05-1.7m-9.7 1.25 1 2.9 2.85 2.6-.75 2.75-.05-.55.05-2.15-2.45-2.5-.65-3.05m20.45-1.7-.2-.4q2.6-2.85 4.2-9.2l-1-4.5 1.65 3.7q-.65 6.65-4.65 10.4M37 57.5q1.15 2.5.05 4.2h-1.7l-.15-.3 1.55-.75q.55-1.55.25-3.15m-8.75 10.15q.6 1.2.75 3.95v1.75l-.65.75q.55-1.6-.1-6.45" fill="#aedceb"/><path d="M29.2 45.65q2.2.9 2.45 1.5l1 1.25q3.45 4.35 6 9.65l.2.4.2 1.6q-.05 2-1.5 2.9l-2.15.2-.1.05h-.45l-.6-1.25-.65-1.35-.7-1.45-2-4.1-4.8-5.85-7.55-1.2-.9-.1-5.4-.15-.6-.55 8.05.15q4.15.45 6.65 1.55L31 53.85l4.15 7.5.05.05.15.3h1.7q1.1-1.7-.05-4.2l-.25-.5q-1.5-3.2-3.15-5.8l-2.7-3.85q-3.1-1.85-7.65-3.1l-8.3-1.3q-3.75-.3-4.35 2.85l-.1.25-1.25-1.2.3-.4q2.3-3.45 5.7-2.9h.15l1.05.7.3.05 9.9 2.45 1.15.35 1.3.55h.1M21.5 68.4l.25 1.65q-1.1 1-2.5.7l-2.5-.8-1.3-.6 1.35-.95 1.75-1.25.9-.9 1.85.9.15.7.05.55m-3.1.35 2.1.85q.4-.65 0-1.95l-.55-.25-.55-.2-1.45 1.35.45.2" fill="#524866"/><path d="M29.2 49.2q1.45-.55 1.7-1.85l2.7 3.85-2.55 1-2.4-2.85.55-.15m-9.25 18.2.55.25q.4 1.3 0 1.95l-2.1-.85q1-.1 1.55-1.35" fill="#6b6086"/><path d="M19.95 67.4q-.55 1.25-1.55 1.35l-.45-.2 1.45-1.35.55.2" fill="#b3a6d0"/><path d="m29.2 49.2-.55.15 2.4 2.85 2.55-1q1.65 2.6 3.15 5.8l.25.5q.3 1.6-.25 3.15l-1.55.75-.05-.05-4.15-7.5-4.65-4.95q-2.5-1.1-6.65-1.55l-8.05-.15-.55-.55 3.6-.55 10.55 1.55 3.95 1.55" fill="#b4a7d2"/><path d="M30.9 47.35q-.25 1.3-1.7 1.85l-3.95-1.55L14.7 46.1l-3.6.55-.6-.6.1-.25q.6-3.15 4.35-2.85l8.3 1.3q4.55 1.25 7.65 3.1" fill="#fff"/><path d="M29.2 45.65q3.45-2.95 5.75-8.7l.3-1.45.6.3 1.6 1.9.35.45 1.1 3.15q-1.55 4.9-4.55 8.15l-1.7-1.05-1-1.25q-.25-.6-2.45-1.5m2.35-11.4Q30 42.15 27.8 45.1l-1.15-.35-9.9-2.45q2.05-4.85 1.4-6.7 1.35-1.4 4.05-2.35 5.05-.1 9.35 1" fill="#de7d0b"/><path d="m32.65 48.4 1.7 1.05q3-3.25 4.55-8.15l-1.1-3.15q2.3 2.95 4.05 6.2l1 4.5q-1.6 6.35-4.2 9.2-2.55-5.3-6-9.65" fill="#8c3f09"/><path d="m35.25 35.5-.3 1.45q-2.3 5.75-5.75 8.7h-.1l-1.3-.55q2.2-2.95 3.75-10.85 1.9.5 3.7 1.25" fill="#ffa02d"/><path d="m37.8 38.15-.35-.45-1.6-1.9-.6-.3q-1.8-.75-3.7-1.25-4.3-1.1-9.35-1-2.7.95-4.05 2.35.65 1.85-1.4 6.7l-.3-.05-1.05-.7h-.15l1-2.15.9-4.3 5.9-3.5q7.75.65 13.25 3l2 2.2q4.15 4.95 7.1 12.55-1.25 6.45-6.35 10.7l-.2-1.6q4-3.75 4.65-10.4l-1.65-3.7q-1.75-3.25-4.05-6.2" fill="#662e08"/></g><g id="z" fill-rule="evenodd"><path d="M22.2 60.1q.55-5.15 4.65-8.95 4.15-2.7 9.05 0 3.05 1.4 4.95 6.6l-.05.05q-1.95 2.35-6.5 2.8-1.15-3.9-3.15-6.9l.4 7.7-6.8-.55q-1.55-.15-2.55-.75" fill="#724b58"/><path d="M40.05 46.25q4.2 5.8 3.3 9.1.1 5.35-8.85 7.25l-1.3-1.3-1.25 1.4q-7.25 1.4-12.5-3.25l-.4-1.45q-.65-4.4 0-7.95l.4.3 1.1-.75-.5 7.55q.55 2 2.15 2.95 1 .6 2.55.75l6.8.55-.4-7.7q2 3 3.15 6.9 4.55-.45 6.5-2.8l.05-.05.7-1.1.05-.1.1-.1q1.05-1.9-.75-6l-2.1-3.9.35-.95.85.65m-8.1 13.9.35-1.3 1.45 1.6-2.15-5.15.35 4.85" fill="#2c1e24"/><path d="M37.35 47.5h1.1l.2-.5 2.3 3.45q1.8 4.1.75 6l-1.35-4.75q-1.15-2.85-3-4.2m-5.4 12.65-.35-4.85 2.15 5.15-1.45-1.6-.35 1.3" fill="#3a262e"/><path d="m20.55 49.6.7-.45q1.55.95 3.8.75l.9-1.8 6.5 1.25.9-1.9 4 .05q1.85 1.35 3 4.2l1.35 4.75-.1.1-.05.1-.7 1.1q-1.9-5.2-4.95-6.6-4.9-2.7-9.05 0-4.1 3.8-4.65 8.95-1.6-.95-2.15-2.95l.5-7.55" fill="#513842"/><path d="m15.15 28.05 3 6.5q1.55 4.55 1.8 7.6l-.8-.4-.4-.6L17.9 40l-.2-.3q.05-2.2-2.55-7.7l-1.6-2.8 1.6-1.15M36.75 39l-2.3-5.1-5.25-11.3-3.15-2.25 1.7-1.2 3.25 3.3 5.9 13.1v1.65q.3.85-.15 1.8m2.9 2.45 2 2.85-1.6 1.95-.85-.65-.35.95-.2.45-.2.5h-1.1l-4-.05-.9 1.9-6.5-1.25-.9 1.8q-2.25.2-3.8-.75l-.7.45-1.1.75-.4-.3-1.3-1.05.05-2.9 1.25.45v2.4l.9-.15 1.55-.4q.7.85 2.8 1h.35l1.15-1.95q3.1 1.25 6.4 1.15l1.05-1.5h4.9v-2.95h1.8l-1.1-2.05.8-.65" fill="#764237"/><path d="m34.45 33.9-2.8-4.8-3.05-6.4-3.2-1.9.65-.45 3.15 2.25 5.25 11.3m2.45 3.3v-.45q4 1.55 1.15 4.7l.35-3.35-1.5-.9m1.75 9.8.2-.45 2.1 3.9-2.3-3.45m.55-2.85-.85-1.7.5-.35 1.1 2.05h-.75" fill="#aedceb"/><path d="M19.95 42.15q-.25-3.05-1.8-7.6l-3-6.5L25.4 20.8l3.2 1.9 3.05 6.4 2.8 4.8 2.3 5.1-.2.45-2.45 1.2q-1.15-6-5.45-15.5l-3.9 2.25q-1.35 3.1-5.85 5.85l1.85 9.15-.8-.25m18.2 4.95-1.85-1.55-2.55-.8q2.65-1 4.6-2.3l.85 1.7h-1.05v2.95m-18.5-.4.3 2.1-.9.15v-2.4l.6.15" fill="#955849"/><path d="m22.6 42.8-2.05-8.9q3.9.25 8.05-1.65l3.3 9.3-4.7 1.25q-2.55.3-4.6 0m6.4 3.3 3.9.35 1.3.65h-.95l-1.05 1.5q-3.3.1-6.4-1.15l-1.15 1.95h-.35l-1.95-2.45 4.55-.4 1.45-.3.65-.15" fill="#d39882"/><path d="m20.75 42.4-1.85-9.15q4.5-2.75 5.85-5.85l3.9-2.25q4.3 9.5 5.45 15.5l-2.2.9-3.3-9.3q-4.15 1.9-8.05 1.65l2.05 8.9-1.85-.4m13 2.35 2.55.8 1.85 1.55H34.2l-1.3-.65-3.9-.35 4.75-1.35M24.3 49.4q-2.1-.15-2.8-1l-1.55.4-.3-2.1 2.7.25 1.95 2.45" fill="#b27660"/><path d="m17.9 40 .85 1.15-1.55 1.7q.05 3.4 6.35 3.3l1.85-.2 2.35-.3 2.15-.35.25-.05q2.5-.55 4.8-1.7l2.3-1.3.55-.55.25-.25q2.85-3.15-1.15-4.7V35.3q1.45.4 3.45 2.3 1 1.7-.7 3.85l-.8.65-.5.35q-1.95 1.3-4.6 2.3L29 46.1l-.65.15-1.45.3-4.55.4-2.7-.25-.6-.15-1.25-.45-1.6-1.05Q14.95 42.3 17.9 40m1.25 1.75.8.4.8.25 1.85.4q2.05.3 4.6 0l4.7-1.25 2.2-.9 2.45-1.2.2-.45q.45-.95.15-1.8.85 1.05.45 2.5l-1.75 1-3.7 1.65-1.4.5-8 .5q-1.75-.25-2.95-1l-.4-.6" fill="#524866"/><path d="m22.5 43.35 8-.5 1.4-.5-1.75 2.9-.25.05-2.15.35-2.35.3-2.9-2.6" fill="#fff"/><path d="m18.75 41.15.4.6.4.6q1.2.75 2.95 1l2.9 2.6-1.85.2q-6.3.1-6.35-3.3l1.55-1.7m16.85-.45q.7.95-.65 2.85-2.3 1.15-4.8 1.7l1.75-2.9 3.7-1.65" fill="#b4a7d2"/><path d="m36.9 37.2 1.5.9-.35 3.35-.25.25-.55.55-2.3 1.3q1.35-1.9.65-2.85l1.75-1q.4-1.45-.45-2.5" fill="#6b6086"/><path d="M3.75 15.15 18 .75l3.9 7.55 1.65 7.65q.9 3.1-2.25 7.55-3 5.7-9.8 4.85-4.9-3.6-6.1-7.25l-.05-.2-.1-.25-1.5-5.5" fill="#d39882"/><path d="m1.35 17.55 2.4-2.4 1.5 5.5.1.25.05.2q1.2 3.65 6.1 7.25 6.8.85 9.8-4.85 3.15-4.45 2.25-7.55L21.9 8.3l3.8 7.4q.9 4.5-1.45 9.9l-6.55 4.9q-6.6.85-11.95-3l-4.4-9.95" fill="#b27660"/><path d="m25.7 15.7 1.95 3.85q.2 3.15-2.1 7.2l-4.25 3-3.6.75 6.55-4.9q2.35-5.4 1.45-9.9" fill="#955849"/><path d="m18 .75.75-.75 9.9 18.9q-.05 5.1-3.25 9.7-3.15 2.8-5.85 3Q9.2 33.4 4.4 27.75L0 18.9l1.35-1.35 4.4 9.95q5.35 3.85 11.95 3l3.6-.75 4.25-3q2.3-4.05 2.1-7.2L25.7 15.7l-3.8-7.4L18 .75" fill="#764237"/></g><g id="g"><use ffdec:characterId="11" height="30.6" transform="translate(4.4 34.5)" width="31.95" xlink:href="#o"/><use ffdec:characterId="13" height="40.6" width="29.65" xlink:href="#p"/></g><g id="A" fill-rule="evenodd"><path d="m8.05 17.55.75.6-.1.5-.1.6q0 1 .35 1.95.4 1.25 1.1 1.25l.65-.15.2.65.2 1.1q0 1.4-.5 2.4-.55 1.1-2.15 2.6-3.3 0-5.75-.8.5-2.7 2.05-6.2l.45-1-.95.2.45-.75 3.35-2.95" fill="#724b58"/><path d="m14.35 28.6-5.9.45q1.6-1.5 2.15-2.6.5-1 .5-2.4l-.2-1.1-.2-.65.5-.25.85-.65.6 1.15q.4.4 1.2.4.85 0 1.5-.55l1.35.85.2.05-.9 2.85q-.55 1.35-1.65 2.45" fill="#513842"/><path d="m16.9 23.3 1.3.15.85-.25.7-.25.2.2.5.2.45.15-.65 1.75-.2.55-1.3 1.35q-1.15.5-2.35 1.1l-2.05.35q1.1-1.1 1.65-2.45l.9-2.85M1.65 26.25 4.2 22.4l-1.85 4.65-.7-.8" fill="#3a262e"/><path d="m23.05 22.95-.15 1.8-2.35 3.35Q10.65 31.7 4 30.15q-3.55-1.4-4-3.9.4-2.6 4.1-6.65l3.4-2.65.55.6L4.7 20.5l-.45.75.95-.2-.45 1q-1.55 3.5-2.05 6.2 2.45.8 5.75.8l5.9-.45 2.05-.35q1.2-.6 2.35-1.1l2.25-1.1.35-2.35.2-.1 1.5-.65m-21.4 3.3.7.8L4.2 22.4l-2.55 3.85" fill="#2c1e24"/><path d="m14.45 15.55 2.75.9.8.35q1 2.5-2.1 3.35-2.75-.8-5.6-2-3.55-2.65-3.1-4.7.35 2.45 4.3 3.25l2.95-1.15" fill="#b4a7d2"/><path d="m7.2 13.45.25-.65q1.35-.85 2.3-.5l.2 1 .15.1q1.6 1.1 4.35 2.15L11.5 16.7q-3.95-.8-4.3-3.25" fill="#fff"/><path d="m18 16.8 5.25 1.05 3.2.35q-2.2 2.8-4 3.4-3.15-.45-6.55-1.45Q19 19.3 18 16.8" fill="#6b6086"/><path d="M26.45 18.2h.5l-1.8 2.95-2.35.5-.35-.05q1.8-.6 4-3.4m-5.55 5.3.65.1-.2.1-.35 2.35-2.25 1.1 1.3-1.35.2-.55.65-1.75" fill="#aedceb"/><path d="m30.6 1.4 1.35.15-2.7 14.6-1 1.8-1.05-.15 1.5-2.5 1.9-13.9m-20.5 9.95.7-1.4q1.5-3.1-.5-6.05l-2.1-.7 1.4-.65 1.65.4.55.9q1.1 2.15.75 5.4-.75 3.55-2 3.65l-.45-1.55m-1.3 6.8.3.2-.05.65q0 2.9 1.3 2.9h.15l.9-.5.75-.75.65 1 .05.1q.4.45 1.25.45l1.7-.4 1.1.8 1.4.15 1-.2.9-.15.5.25.25.15.5.1.5-.15.2-.1.9.3-1.5.65-.65-.1-.45-.15-.5-.2-.2-.2-.7.25-.85.25-1.3-.15-.2-.05-1.35-.85q-.65.55-1.5.55-.8 0-1.2-.4l-.6-1.15-.85.65-.5.25-.65.15q-.7 0-1.1-1.25-.35-.95-.35-1.95l.1-.6.1-.5" fill="#764237"/><path d="M9.6 2.55 14.9 0l15.7 1.4-1.9 13.9-1.5 2.5-6.45-.9-3.55-.95q3-7.7 3.2-14.65-4.9 2.8-8.6 2.55l-.55-.9-1.65-.4m1.95 17 .5.15 9.15 2.7-.25.4-.25-.15-.5-.25-.9.15-1 .2-1.4-.15-1.1-.8-1.7.4q-.85 0-1.25-.45l-.05-.1.3-.45.15-.15-.25-.2-.6-.45-.85-.85" fill="#b27660"/><path d="M11.8 3.85q3.7.25 8.6-2.55-.2 6.95-3.2 14.65-4.1-1.3-6.65-3.05 1.25-.1 2-3.65.35-3.25-.75-5.4m-2.7 14.5 2 1 .45.2.85.85.6.45.25.2-.15.15-.3.45-.65-1-.75.75-.9.5h-.15q-1.3 0-1.3-2.9l.05-.65" fill="#d39882"/><path d="m21.2 22.4.95.25-.2.1-.5.15-.5-.1.25-.4" fill="#addbea"/><path d="m28.25 17.95-2 3.6L23.3 23l-.25-.05-.9-.3-.95-.25-9.15-2.7-.5-.15-.45-.2-2-1-.3-.2-.75-.6-.55-.6Q6 15.15 6.2 12.6q1.65-1.8 3.9-1.25l.45 1.55q2.55 1.75 6.65 3.05l3.55.95 6.45.9 1.05.15m-13.8-2.4Q11.7 14.5 10.1 13.4l-.15-.1-.2-1q-.95-.35-2.3.5l-.25.65q-.45 2.05 3.1 4.7 2.85 1.2 5.6 2 3.4 1 6.55 1.45l.35.05 2.35-.5 1.8-2.95h-.5l-3.2-.35L18 16.8l-.8-.35-2.75-.9" fill="#524866"/></g><g id="B" fill-rule="evenodd"><path d="m28.8 19.1.55-.25-.1 2.6-7.95 2.7-8.55 4.7L9.35 22l-3.5 1.25-4 2.7.65-2.1q1.55-1.05 3.05-2.05l5.1-2.35 3 6.35 15.15-6.7m-23.55-.25q.45.15-.7 1.65l-.8.35 1.5-2m11.6 1.35.35 1.05q0 .5-.35.85-.35.4-.85.4-.55 0-.9-.4-.35-.35-.35-.85 0-.55.35-1 .3-.45.8-.5.55-.05.95.45m-10.1 4.55q.45 0 .8.45l.35 1.1q0 .55-.35.95-.35.45-.8.45-.45 0-.75-.45t-.3-1.05q0-.6.3-1 .3-.45.75-.45" fill="#fffa01"/><path d="m5.85 18.4-.55 1.85q-1.4 1.3-1.95 1.25l-1.1-.45Q3.5 19 5.2 16.95l.65 1.45M2.5 23.25l2-1.25q3.25-1.55 6.45-3.05l2.9 6.4 6-2.8 8.95-3.45-15.15 6.7-3-6.35-5.1 2.35q-1.5 1-3.05 2.05l-.65 2.1 4-2.7L9.35 22l3.4 6.85 8.55-4.7 7.95-2.7v.2l-6.6 2.5-2.3.8-.8.5-7 4.05-3.45-7.15q-2.5.7-4.1 1.95l-3.4 2.45-1.5 1.1q-.35-1.2.4-3.3l2-1.3m2.75-4.4-1.5 2 .8-.35q1.15-1.5.7-1.65m10.65.6q.65 0 1.15.5l.45 1.1-.45 1.1q-.5.5-1.15.5-.65 0-1.1-.5-.45-.45-.45-1.1 0-.65.45-1.1.45-.5 1.1-.5m.95.75q-.4-.5-.95-.45-.5.05-.8.5-.35.45-.35 1 0 .5.35.85.35.4.9.4.5 0 .85-.4.35-.35.35-.85l-.35-1.05m-10 4.4q.55 0 1 .5.45.5.45 1.25l-.45 1.25q-.45.55-1 .55-.6 0-1.05-.55-.45-.5-.45-1.25t.45-1.25q.45-.5 1.05-.5m-.1.15q-.45 0-.75.45-.3.4-.3 1t.3 1.05q.3.45.75.45t.8-.45q.35-.4.35-.95l-.35-1.1q-.35-.45-.8-.45" fill="#de7d0b"/><path d="m29.35 18.85-.55.25-8.95 3.45-6 2.8-2.9-6.4Q7.75 20.45 4.5 22l-2 1.25.85-1.75q.55.05 1.95-1.25l.55-1.85 2.95-3.45q-.5 3.15 2.65 3.1l3.85-.65q.85 1 3.65 1.05l10.55-3.1-.15 3.5m-.2 4.35-.2 5.3L21 32.75q-6 2.65-10.15 2.1l-7.65-2.3-1.1-1.3q-.75-1-.1-2.75l-.4-1.75L5 24.3q1.6-1.25 4.1-1.95l3.45 7.15 7-4.05-1.6 2.45q-4.75 3.3-8.35 3.4 2.6 1.3 8.85.5l2.4-1.4 1.8-1.1 6.5-6.1m-4.55 15-7.7 2.05q0-1.2-.5-1.9 4.25-.15 8.45-2.35l-.25 2.2m-8.7-18.75q-.65 0-1.1.5-.45.45-.45 1.1 0 .65.45 1.1.45.5 1.1.5.65 0 1.15-.5l.45-1.1-.45-1.1q-.5-.5-1.15-.5M6.85 24.6q-.6 0-1.05.5-.45.5-.45 1.25t.45 1.25q.45.55 1.05.55.55 0 1-.55l.45-1.25q0-.75-.45-1.25t-1-.5" fill="#d39882"/><path d="m29.5 15.35-10.55 3.1q-2.8-.05-3.65-1.05l-3.85.65q-3.15.05-2.65-3.1l5.1-3.25 15.75.6-.15 3.05m-.55 13.15-.65 8.7-3.7 1 .25-2.2q-4.2 2.2-8.45 2.35-.6-.9-2-1.15l-6.25-1.65q-2.85-.85-4.95-3l7.65 2.3Q15 35.4 21 32.75l7.95-4.25m-6.3-4.35-2.7 4.75-3.55 2.4-.45.25 2.5.25q-6.25.8-8.85-.5 3.6-.1 8.35-3.4l1.6-2.45.8-.5 2.3-.8" fill="#b27660"/><path d="M8.8 14.95 5.85 18.4l-.65-1.45 2.05-2.35 4.55-3 2.1.1-5.1 3.25M3.35 21.5l-.85 1.75-2 1.3.4-1q.6-1.25 1.35-2.45v-.05l1.1.45M16.9 40.25l-1.25.35q-.35-1.3-1.25-2.05-2.25-1.2-4.85-1.1l-.8-.2q-4.2-1.7-7.6-4.3-1.8-1.4-.7-4.3l-.35-.7v-.1l1.5-1.1.4 1.75q-.65 1.75.1 2.75l1.1 1.3q2.1 2.15 4.95 3l6.25 1.65q1.4.25 2 1.15.5.7.5 1.9" fill="#764237"/><path d="m18.45 31.8-2.5-.25.45-.25 4.45-.9-2.4 1.4" fill="#7a4539"/><path d="m29.25 21.65-.1 1.55-6.5 6.1-1.8 1.1-4.45.9 3.55-2.4 2.7-4.75 6.6-2.5" fill="#955849"/><path d="m26.6 1.05.05 2.65-6.1 8.1-5.3 1.35 2.4-1.5-5.2.65-3.35 2.9q-.75-1.8.65-4.25 3.35-4.8 6.05-6.05-.6-1.95 4.25-3.25l6.55-.6" fill="#fff"/><path d="m26.65 3.7.05 1.05-5.1 7.7-5.55 4.05q-1.35-.15-1.75-.85l1.85-2-7.1 2.9q-.2-.4.05-1.35l3.35-2.9 5.2-.65-2.4 1.5 5.3-1.35 6.1-8.1" fill="#f4d8f7"/><path d="m26.7 4.75.05 5.15-4.85 3.8q-3.35 2.25-5.85 2.8l5.55-4.05 5.1-7.7m-12.4 10.9-.15-.5L9.8 16.8q-.55.1-.75-.25l7.1-2.9-1.85 2" fill="#a48dac"/><path d="m26.75 9.9.05 1.45-7.35 4.55q-3 1.3-4.05 1.15l-1.9-1-2.6 1q-2.3.45-2.3 0-.6-.4 0-1.8h-.95Q6.75 12.7 9 9.6q3.3-3.65 5.35-4.65l-.45-.75L15.05 3q1.85-1.8 3.9-2.4l7.6-.35.05.8-6.55.6Q15.2 2.95 15.8 4.9q-2.7 1.25-6.05 6.05-1.4 2.45-.65 4.25-.25.95-.05 1.35.2.35.75.25l4.35-1.65.15.5q.4.7 1.75.85 2.5-.55 5.85-2.8l4.85-3.8" fill="#7e6985"/></g><g id="C" fill-rule="evenodd"><path d="M15.2 53.8q-.8.6-1.55 1.15-3.7-1.25-5.75-6-2.5-1.05-3.6-6.5l-.8-6.4-1.25-2.4q-.85-5.05.3-11.45-1.65.15.75-8.6v-.3l2.1-4.4-1 8.85 1.35-.95.2 4.2q2.55 2.85 4.4 7.55l3.45-4.95-1.4 5.95v7.05l2.85-2.2v7.9l-1 3.45q.85.65 1.05 4.7v.3l-.1 3.05m6.45-10.5-.5-1.7-4.3 4.3q-2.65-3.75 0-10.35l1.95-4.5q2.1 3.6 2.4 6.2l1.05-1.55q3.05 3.45-.6 7.6" fill="#fff"/><path d="m5.8 8.1 3.55 10.35q4.45 2.2 6.65-2.6 1.85-.45 2.8-1.9 1-1.4 1.35-2.7l2.3 3.8 9.6 6.25-3.25 15.9-2 6.65V40.2L24 46.25l-.6-.2q1.25-3.45.45-3.75l-6.35 9.55-.65.55-1.65 1.4.1-3.05v-.3q-.2-4.05-1.05-4.7l1-3.45v-7.9l-2.85 2.2v-7.05l1.4-5.95-3.45 4.95Q8.5 23.85 5.95 21l-.2-4.2-1.35.95 1-8.85.4-.8m15.85 35.2q3.65-4.15.6-7.6l-1.05 1.55q-.3-2.6-2.4-6.2l-1.95 4.5q-2.65 6.6 0 10.35l4.3-4.3.5 1.7" fill="#f4d8f7"/><path d="M9.85 1.75 27.8 0l5.3 21.05.55 13.4-2.6 5.05-3.1 4.75-.35-.6-3 2.8-.6-.2 2.8-6.05v3.65l2-6.65 3.25-15.9-9.6-6.25-2.3-3.8q-.35 1.3-1.35 2.7-.95 1.45-2.8 1.9-2.2 4.8-6.65 2.6L5.8 8.1l.2-.45 3.85-5.9m7.65 50.1 6.35-9.55q.8.3-.45 3.75l-.3-.1q-2.75 3.3-5.6 5.9" fill="#a48dac"/><path d="M9.85 1.75 6 7.65l-.2.45-.4.8-2.1 4.4v.3q-2.4 8.75-.75 8.6-1.15 6.4-.3 11.45l1.25 2.4.8 6.4q1.1 5.45 3.6 6.5 2.05 4.75 5.75 6 .75-.55 1.55-1.15l1.65-1.4.65-.55q2.85-2.6 5.6-5.9l.3.1.6.2.6.2 3-2.8.35.6 3.1-4.75 2.6-5.05.15 2.8-2.45 4.45q-1.85 3.2-3.75 3.8-1.55 2.45-3.45 2.95l-.5-.9Q18.9 54 13.75 56.2q-3.65-.15-6.05-5.6-1.7-.45-3.15-2.8-1.7-4.35-1.5-10.75L1.6 35.7q-1.05-5-.5-11.9-2.7-.5 1.15-11.4l2.9-5.1L7.9 1.9l1.95-.15" fill="#7e6985"/></g><g id="i"><use ffdec:characterId="18" height="26.05" width="28.05" xlink:href="#q"/><use ffdec:characterId="19" height="36.6" transform="translate(.45 25.15)" width="62.15" xlink:href="#r"/></g><g id="D" fill-rule="evenodd"><path d="m.8 17.6-.8-.85q2.45-2.35 7.45-4.55l4.35-1.5q.6.7 2.25 0l2.65-1.9q2.7-.45 6.4-3.55l2.05-2.05L27.4 0l.65 3.05q-.2 3-1.2 7.1-3.05 5.7-6.95 9.4h-.25q-1.95.5-2.75 2.5l-7.6 4-1.2-1.2 7.5-3.65q2.15-2.4 3.35-2.4l2.4-2.75q3.8-4.55 4.9-9.4l.4-2.8q-3.55 3.95-8.85 6.6l-.6.3-2.15.95-2.8.4-.95.3-.4.15-6.3 2.25-3.8 2.8m18.1-4.95-1-1 3.05 1.05-1.65 4.05.6-3.1-1-1m-4.55 3.2-2.6-2.5.55.45v-.05l2.6 1.45q.3 3.45-.55 4.3v-3.65" fill="#2e2431"/><path d="M26.25 6.65q-1.1 4.85-4.9 9.4l-2.4 2.75q-1.2 0-3.35 2.4l-7.5 3.65-.75-.75 7.9-3.25 1.25-1.55 2.3-1 2.05-2.7q3.7-5.1 5.4-8.95" fill="#aedceb"/><path d="m.8 17.6 3.8-2.8 6.2 3.1 3.55-2.05v3.65q.85-.85.55-4.3l-2.6-1.45v.05l-1.4-1.25.4-.15 4.1 2.55 3.5-2.3 1 1-.6 3.1 1.65-4.05-3.05-1.05-.7-.9.6-.3 2.25 1.2 6.6-7.8-.4 2.8q-1.7 3.85-5.4 8.95l-2.05 2.7-2.3 1-1.25 1.55-7.9 3.25L.8 17.6" fill="#3f2f42"/><path d="m4.6 14.8 6.3-2.25 1.4 1.25-.55-.45 2.6 2.5-3.55 2.05-6.2-3.1m6.7-2.4.95-.3 2.8-.4 2.15-.95.7.9 1 1-3.5 2.3-4.1-2.55m6.5-1.95q5.3-2.65 8.85-6.6l-6.6 7.8-2.25-1.2" fill="#5a475d"/></g><g id="r" fill-rule="evenodd"><path d="m59.05 28.8 1.05-.75q0 .85-1.95 2.8-4.55 4.75-8.85 6.85l-12 5.35q-3.3-.35-6.6 2.9-2.85 1.45-5.2 1.25-3.55 2.55-3.65 4.35L18.4 54.3l-.1-.05 4.25-4.9 3.05-2.55 4.25-1.25 3.75-2.45 3.75-.55 12-5.4q5.65-3.6 9.7-8.35" fill="#aedceb" transform="translate(-.45 -25.15)"/><path d="m38.95 37.4-1.9-2.05 3.5 2.35-1.9 3.05.9-2.65-.6-.7m15.55-6.5q-5.15 1.9-11.3 2.4l-10.05.1-1.4 1q-2.65 1.95-6.05.9l-3.65.45-1.85 1.7q-2.65 1.6-4.95 1.35L1.1 44.2.45 42l15.15-4.9q1.15.6 3.2-.5l1.4-1.3 5.15-1.7q2.4 1.5 5 0l1.15-1.4 15.2-1.05q8.15-.65 12.7-4l3.2-2q-1.3 4.55-6.85 9.9l-5.45 3.7-13.15 6.1H35.5q-2.45 0-4.3 2.3l-4.3 1.75q-2.9.35-3.8 3.1l-.35.25-2.85 3.35q-2.35.45-3.45 2.15l-2.95 4-.7-.5 2.55-3.7 1-1.05 2.05-2.2 3.45-2.75q.1-1.8 3.65-4.35 2.35.2 5.2-1.25 3.3-3.25 6.6-2.9l12-5.35q4.3-2.1 8.85-6.85 1.95-1.95 1.95-2.8l-1.05.75Q56.9 30.35 54.7 31l-.05-.15-.15.05m-35 14.35-4.1-4.6L20.2 45q-.35 4.4-1.5 6.3l.8-6.05m8.9-5.05-3.6-2.6v-.1l4.85 2.2q-.3 3.2-1.55 4.55l.3-4.05" fill="#2e2431" transform="translate(-.45 -25.15)"/><path d="m38.95 37.4.6.7-.9 2.65 1.9-3.05-3.5-2.35-1.1-.95 6.25 2.5q9.55-2.35 12.3-5.85l.2-.05q2.2-.65 4.35-2.2-4.05 4.75-9.7 8.35l-12 5.4-3.75.55-3.75 2.45-4.25 1.25-3.05 2.55-4.25 4.9-1.95 2.25-1 1.05-2.55 3.7-8.3-6.2-1.65-5.3q5.3.85 9.8 2.4l6.85-6.9-.8 6.05q1.15-1.9 1.5-6.3l-4.8-4.35-.25-.4 2.6 1.35 3.45 2.5 7.2-3.9-.3 4.05q1.25-1.35 1.55-4.55l-4.85-2.2-.15-.05-1.35-1.1q3.65 0 8.25 2.8l7.4-1.75" fill="#3f2f42" transform="translate(-.45 -25.15)"/><path d="m37.05 35.35 1.9 2.05-7.4 1.75q-4.6-2.8-8.25-2.8l1.35 1.1-.1-.05.25.2 3.6 2.6-7.2 3.9-3.45-2.5-2.6-1.35.25.4 4.1 4.6-6.85 6.9q-4.5-1.55-9.8-2.4l-1.75-5.5v-.05l14.15-5.4q2.3.25 4.95-1.35l1.85-1.7 3.65-.45q3.4 1.05 6.05-.9l1.4-1 10.05-.1q6.15-.5 11.3-2.4v.15q-2.75 3.5-12.3 5.85l-6.25-2.5 1.1.95" fill="#5a475d" transform="translate(-.45 -25.15)"/></g><g id="j"><use ffdec:characterId="21" height="20.9" transform="translate(24.5 31.75)" width="30.8" xlink:href="#s"/><use ffdec:characterId="23" height="58.05" width="58.85" xlink:href="#t"/></g><g id="s" fill-rule="evenodd"><path d="m42.25 49.2-7.1 3.1-.05-.05q-6-5.75-4.05-8.25 1.85-1.9 6.2-.65l2.55 1.35q1.2 1.8 2.45 4.5" fill="#fff" transform="translate(-24.5 -31.75)"/><path d="m35.1 52.25-.05.1-3.85-2.5-2.3-2.5-.65-.25q-1.2-1.15-1.5-3.75l9.85-1.75q1.55.7 3.2 3.1l-2.55-1.35q-4.35-1.25-6.2.65-1.95 2.5 4.05 8.25" fill="#f4d8f7" transform="translate(-24.5 -31.75)"/><path d="m24.9 39.9 21.65-8.15 8.75 11.7-13.05 5.75Q41 46.5 39.8 44.7q-1.65-2.4-3.2-3.1l-9.85 1.75q.3 2.6 1.5 3.75-1.6-.8-2.55-3.65l-.8-3.55" fill="#a48dac" transform="translate(-24.5 -31.75)"/><path d="m35.05 52.35-.65.3-4-3-1.55-1.95q-1.15.75-2.35-1.6-1.15-2.4-2-6.05l.4-.15.8 3.55q.95 2.85 2.55 3.65l.65.25 2.3 2.5 3.85 2.5" fill="#7e6985" transform="translate(-24.5 -31.75)"/></g><g id="E" fill-rule="evenodd"><path d="m1.3 21.7 6.5 6.45 1 .95.15 1L10 35.65l.35 1.75L9.3 37l-.75-6.6-3.25-2.55L0 22.4l1.3-.7m41.55 7.1-.55.4-13.85-10.85-8.25-5.95.85-.4 5.1 3.9 15.4 11.9 1.3 1m-6.6 4.45-.7.5-11.4-5.45-.35-.3-.1.1q-3.9-1.9-6.5-3.9-1.65-1.25-2.75-2.5-2.3 6.5-2.7 10.2l.5 2.75.7 3.75-1.1-.45-1-6.45.85-4.6-.2.15 2.45-6.5 4.2 3.05.6.4 11.2 5.95 6.3 3.3m-13.4-10.2q2.6 2.15 7.9 5.4-6.2-2.9-7.9-5.4M9.7 31.9q-.45-2.55.9-5.9l-.25 1.6-.65 4.3" fill="#662e08"/><path d="M32.5 35.35 15.7 39.4l-2.75-1-.7-3.75.25-4.7 2.25-6.75 2.45 1q2.6 2 6.5 3.9l.45.2 8.35 7.05M15.7 39.4v-6.45l.3-4.85-.95-3.65-.05-.5-.5 2.1.45 2.55-.7 5.15 1.45 5.65m10.45-23.5 2.95-3.05 7.05-3.15 2.6-1.5-3.55 3.05-5.65 3.05-1.6 2.05 1-.55q1.3-.6 3.55-1.3l5.1-1.25 1.95-1.75-.55 2.6.3 3-3.15 5.75 4.3-2.35 2.75-3.1q.7 7.15-1.65 10.4l-15.4-11.9" fill="#b27660"/><path d="m21.05 12 8.3-10.35L49.5 0l2.55 9.45L51 14.8l-2.3 3.95v1.7l1.9 6.1-7.75 2.25-1.3-1q2.35-3.25 1.65-10.4l-2.75 3.1-4.3 2.35 3.15-5.75-.3-3 .55-2.6q1-1.2 1.4-2.35-1.8 2.8-3.55 3.5l-6.5 1.9-1.95 1.25-1 .55 1.6-2.05 5.65-3.05 3.55-3.05-2.6 1.5-7.05 3.15-2.95 3.05-5.1-3.9m14.5 21.75-2.15 1.4-.9.2-8.35-7.05 11.4 5.45m-20.5-9.3.25 2.95.45 1.25-.6 5.35.55 5.4-1.45-5.65.7-5.15-.45-2.55.5-2.1.05.5m-2.8 10.2-.5-2.75q.4-3.7 2.7-10.2 1.1 1.25 2.75 2.5l-2.45-1-2.25 6.75-.25 4.7m28.4-16.7q-2.9 2.6-2.8 3.75l3.5-3.6-1.25-4.75.55 4.6" fill="#955849"/><path d="m52.05 9.45.85 3.3-3.3 6.5 1.8 7.05-.8.25-1.9-6.1v-1.7L51 14.8l1.05-5.35M15.7 39.4l-.55-5.4.6-5.35-.45-1.25-.25-2.95.95 3.65-.3 4.85v6.45m13.25-23.6 1.95-1.25 6.5-1.9q1.75-.7 3.55-3.5-.4 1.15-1.4 2.35l-1.95 1.75-5.1 1.25q-2.25.7-3.55 1.3m11.7 2.15-.55-4.6 1.25 4.75-3.5 3.6q-.1-1.15 2.8-3.75" fill="#764237"/><path d="M7.8 28.15 1.3 21.7l18.9-9.3 8.25 5.95L42.3 29.2l-6.05 4.05-6.3-3.3 1.85-1-1.05-.5q-5.3-3.25-7.9-5.4l-.4-.6q5.65 3.1 12.15 4.4l3.15-.7L26.2 18.5q-4.35 3.55-8.05 5.1l-4.2-3.05-2.45 6.5-1.15.55.25-1.6q-1.35 3.35-.9 5.9l.3 3.75-1.05-5.55.25-2.45-1.4.5" fill="#8c3f09"/><path d="M10.35 37.4 10 35.65l-.3-3.75.65-4.3 1.15-.55.2-.15-.85 4.6 1 6.45-1.5-.55m-1.4-7.3-.15-1-1-.95 1.4-.5-.25 2.45m9.2-6.5q3.7-1.55 8.05-5.1l11.55 7.65-3.15.7q-6.5-1.3-12.15-4.4l.4.6q1.7 2.5 7.9 5.4l1.05.5-1.85 1L18.75 24l-.6-.4" fill="#de7d0b"/><path d="m12.8 47.55-.65-1.25q-.8-1.9 0-4.2h.2l.35-.15.15-.3-.15-.4-.2-.1q.55-1.25 2.2-2.5h1.1q.65 2.1.25 4.3-.85-.25-1.6.3-.85 2.1.5 2.6l-.05.1q-1.25 1.65-2.1 1.6m.85-4.65.05-.2-.05-.25-.25-.1-.2.1-.1.25.1.2.2.1.25-.1m1.95-1.1.2-.35-.2-.35-.35-.15-.4.15-.15.35.15.35.4.15.35-.15m-2.3 3.7.1-.15-.1-.25-.2-.05-.2.05-.1.25.1.15.2.1.2-.1" fill="url(#u)"/><path d="M19.9 39.4v-1q.75-1.1 1.7-1.1.45 0 .75.3v.05q-.8-.05-1.4.7-.5.65-.4 1.55l-.35-.2-.3-.3m-8.8 5.7q-.35-2.25.4-5.7.7 1 2 0 .7-1.4-.3-2.15 1.15-1.2 2.4.8l.2.6h-1.1q-1.65 1.25-2.2 2.5h-.15l-.35.1q-.15.15-.15.4l.15.3.15.15q-.8 2.3 0 4.2l.65 1.25q-.65 0-1.05-.95l-.65-1.5m2.55-2.2-.25.1-.2-.1-.1-.2.1-.25.2-.1.25.1.05.25-.05.2m1.95-1.1-.35.15-.4-.15-.15-.35.15-.35.4-.15.35.15.2.35-.2.35m3.95 1.35.7-.05q.5 0 .75.3l-.6.6q-.45.6-.45 1.1l.05.5-.4-.25-.2-.2-.1-.1h-.05l.3-1.9m-4.6 2.7q-1.35-.5-.5-2.6.75-.55 1.6-.3L15 45.85h-.05m2.15 4.8.45-.7q.45-.4.7-.45l.65.35-.8.7q-.5.65-.5 1.15l-.15-.15-.35-.7-.05-.15.05-.05m-3.8-5.15-.2.1-.2-.1-.1-.15.1-.25.2-.05.2.05.1.25-.1.15m-2.2 3.3-.1.65-2.05-.1q.3-1.2.85-1.9l1.3 1.35m2.3 3.35.25.05q.45.35.6 1-1.15.3-1.35 2-.35-.4-.4-1v-.8q.3-.9.9-1.25" fill="#83e729"/><path d="M15.6 38.05q-1.25-2-2.4-.8 1 .75.3 2.15-1.3 1-2 0-.75 3.45-.4 5.7l-.35-1.9q0-4.05 1.7-6.55 2.05-1.6 3.15 1.4m-3.45 4.05-.15-.15-.15-.3q0-.25.15-.4l.35-.1h.15l.2.1.15.4-.15.3-.35.15h-.2" fill="#fefafe"/><path d="m20.15 37.45.5-.4q.6-.3.95-.3l.25.05.2.05.55.4q.5.5.6 1.15.05.6-.65 1.35-.75.65-1.35.65l-1.1-.4-.15-.5-.05-.1.3.3.35.2h.1l.5.1.95-.6q.65-.55.65-1.15l-.3-.6-.1-.05q-.3-.3-.75-.3-.95 0-1.7 1.1l.1-.55.1-.4h.05m-.5 5.35.45-.1q.7 0 1.05.35l.05.1.2.9q0 .6-.4 1.05-.4.5-.95.5 1.1-.9 1.1-1.6l-.15-.6q-.25-.3-.75-.3l-.7.05.1-.35m-4.05-4.75q-1.1-3-3.15-1.4-1.7 2.5-1.7 6.55l.35 1.9.65 1.5q.4.95 1.05.95.85.05 2.1-1.6l.1-.1 1.05-2.9q.4-2.2-.25-4.3l-.2-.6M9 41.1l-.05.3q-1.6-.85-1.25-2.4l.1-.55q.85-1.35 1.9-.85l-.05.25q-.85-.4-1.55.8l-.05.7q-.1 1.3.95 1.75m.25 4.15.2 1.3q-1.8.6-2.1-1.35-.15-1.85 1.55-2.25v.1q-.9.35-1.3 1.6l.1.75q.1.55.6.8l.95-.95m3.05-9.35q3.55-2.15 4.75 4.2.35 3.85-1.25 6.2-.1.45-1.85 1.5h-1.6q-.65-.2-1.05-1.05-.65-1.4-1.05-3.9Q10 38.4 12.3 35.9m4.95 13.4 1.2-.15.15.05.65.75q1.05.8-.65 2.4l-.65.65-.05-.05q-1.4-.6-1.1-2.85l.45-.8m1 .2-.55-.05-.4.35-.25.8v.1l.05.15.35.7.15.15.55.3q.5 0 .75-.6l.2-.8-.2-.75-.65-.35m-7.15-.7.3.3q-.25 1.45-.9 2.05-.9.75-1.65.4l-.15-.3q.05-1 .25-1.8.1 1.25.45 1.7 1.15.15 1.6-1.7l.1-.65m3.15 4.4q-.15-.65-.6-1l-.25-.05q-.5-.1-.9.4.25-1.15 1.35-.7 1.35.95.55 3.25l-.5.55.25-.6q.25-1.15.1-1.85" fill="#285104"/><path d="M22.1 36.85q.8 0 1.55.45l.1.3.05.65q0 .9-.6 1.7-.65.8-1.5.8-1.2 0-1.6-.75l1.1.4q.6 0 1.35-.65.7-.75.65-1.35-.1-.65-.6-1.15l-.55-.4h.05m-.9 6.3q.6.1 1 .8l.1.2-.1.65-.3.65q-.5.95-1.4.95-.45 0-.75-.45l-.45-.75-.05-.1.05-.05.1.1.2.2.4.25h.05q.55 0 .95-.5.4-.45.4-1.05l-.2-.9M11.75 49l-1.15-1.15q-1.5-2.4-1.2-5.8.2-4.45 2.7-7.4 1.3-1.25 2.55-.95l-.1.7.1.05q1.35 1.25 2.6 3.45.75 2.65.2 6.2l-1.3 3.05-.2.15q-2.25 1.9-4.2 1.7m-4.4-10.3v-.45q.5-2.2 2.45-1.2l-.1.55q-1.05-.5-1.9.85l-.1.55-.35-.3m4.95-2.8q-2.3 2.5-2.05 6.95.4 2.5 1.05 3.9.4.85 1.05 1.05h1.6q1.75-1.05 1.85-1.5 1.6-2.35 1.25-6.2-1.2-6.35-4.75-4.2m6.3 13.3.4-.05q1.2 0 1.2 1.7l-.15 1.5-.2.2-.8.65-1.1-.2.65-.65q1.7-1.6.65-2.4l-.65-.75m-1.55 1.4.25-.8.4-.35.55.05q-.25.05-.7.45l-.45.7-.05-.05m-4.7.95q1.45-.6 2.6.65.55 1.1.4 3.2l-.15.3-1.5.35q-1.15-.1-1.85-1.6-.25-1.75.5-2.9m1.55 4.1.5-.55q.8-2.3-.55-3.25-1.1-.45-1.35.7v1.65q.05.6.4 1 .35.4 1 .45" fill="#fff"/><path d="M20.1 37.4q.2-.6.55-.9l.25-.2h.05q.3-.35.75-.35.95 0 1.55.7l.4.65q-.75-.45-1.55-.45h-.05l-.2-.05-.25-.05q-.35 0-.95.3l-.5.4-.05-.05m2.2 6.55h-.1q-.4-.7-1-.8l-.05-.1q-.35-.35-1.05-.35l-.45.1v-.35l1-.2q.8 0 1.2.45.45.4.45 1.2v.05M14.65 33.7q1.85.4 3.6 3.9.9 1.9.65 4.8v.2q-.15 4.2-4 6.7-1.85.65-3.15-.3 1.95.2 4.2-1.7l.2-.15 1.3-3.05q.55-3.55-.2-6.2-1.25-2.2-2.6-3.45l-.1-.05.1-.7m-5 4.15-.2.85q-.95-.05-1.4.65l.05-.7q.7-1.2 1.55-.8m-.7 3.55-.15.55q-1.5-.75-1.45-3.25l.35.3q-.35 1.55 1.25 2.4m8.3 7.9.4-.8q3.05-1.15 3.15 1.95-.05 1.05-.75 1.9l.15-1.5q0-1.7-1.2-1.7l-.4.05-.15-.05-1.2.15m-8.4 2.25q.75.35 1.65-.4.65-.6.9-2.05l.8.85L10.85 52q-1.4.4-2-.45m3.5 0 .65-.75q1.6-.5 2.55.95.75 1.9-.2 3.65.15-2.1-.4-3.2-1.15-1.25-2.6-.65" fill="#b4a7d2"/><path d="M11.05 34q2.5-2.15 6.05-.65 1.3.65 2.25 2.05 4.7-3.15 12.7-6.5l10.05-2.25 2 .25 5.6-3.3.4-2 2.45 1.1-.85 2.35 7.15 5.65-14.45 7.8q-7.9 3.6-20.9 4.1.9 2.05-1.1 4.4l-1.25.65q2.25 2.85.4 5.8-1.7 2.15-4.3.35 0 1.7-.95 2.7-1.4 2.1-3.75 1.35-2.7-1.3-2.15-4.8-1.85.6-2.7-.95-.85-1.45 0-4.05L6.25 46.5q-.2-2.75 1.35-4-1.35-.7-1.5-2.85-.1-1.1.05-1.95.25-1.85 1.45-2.35 1 .05 1.75.45l.55.35L11.05 34m12.9 1.55.5.65.3.3q.65 1 .35 2.75-1.2 2.3-2.4 2.55l10.85-.7q6.85-1.65 10.8-3.75l.25-.1 11.4-7.1-5.4-5 .5-1.65-.7-.65v1.2l-5.55 3.55-12.55 3.1q-6.25 2.25-9.4 4.05l1.05.8m-.3 1.75-.4-.65q-.6-.7-1.55-.7-.45 0-.75.35h-.05l-.25.2q-.35.3-.55.9v.05l-.1.4-.1.55v1l.05.1.15.5q.4.75 1.6.75.85 0 1.5-.8.6-.8.6-1.7l-.05-.65-.1-.3m-1.35 6.65v-.05q0-.8-.45-1.2-.4-.45-1.2-.45l-1 .2v.35l-.1.35-.3 1.9v.05l.05.1.45.75q.3.45.75.45.9 0 1.4-.95l.3-.65.1-.65v-.2M14.65 33.7q-1.25-.3-2.55.95-2.5 2.95-2.7 7.4-.3 3.4 1.2 5.8L11.75 49q1.3.95 3.15.3 3.85-2.5 4-6.7v-.2q.25-2.9-.65-4.8-1.75-3.5-3.6-3.9m-5.2 5 .2-.85.05-.25.1-.55q-1.95-1-2.45 1.2v.45q-.05 2.5 1.45 3.25l.15-.55.05-.3.45-2.4m-.55 4.35v-.1q-1.7.4-1.55 2.25.3 1.95 2.1 1.35l-.2-1.3-.15-1.1-.2-1.1m11.15 9.3q.7-.85.75-1.9-.1-3.1-3.15-1.95l-.4.8-.45.8q-.3 2.25 1.1 2.85l.05.05 1.1.2.8-.65.2-.2M11.4 49.1l-.3-.3-1.3-1.35q-.55.7-.85 1.9v.1q-.2.8-.25 1.8l.15.3q.6.85 2 .45l1.35-2.05-.8-.85m3.95 6.3q.95-1.75.2-3.65-.95-1.45-2.55-.95l-.65.75q-.75 1.15-.5 2.9.7 1.5 1.85 1.6l1.5-.35.15-.3" fill="#756684"/><path d="M22.35 37.65h.1l.3.6q0 .6-.65 1.15l-.95.6-.5-.1h-.1q-.1-.9.4-1.55.6-.75 1.4-.7M9.45 38.7 9 41.1q-1.05-.45-.95-1.75.45-.7 1.4-.65m-.35 5.45.15 1.1-.95.95q-.5-.25-.6-.8.1-1.45 1.4-1.25M21 43.4l.15.6q0 .7-1.1 1.6H20l-.05-.5q0-.5.45-1.1l.6-.6m-2.1 6.45.2.75-.2.8q-.25.6-.75.6l-.55-.3q0-.5.5-1.15l.8-.7m-7.9-.4q-.45 1.85-1.6 1.7-.35-.45-.45-1.7v-.1l2.05.1m3.25 3.75q.15.7-.1 1.85l-.25.6q-.65-.05-1-.45.2-1.7 1.35-2" fill="#529911"/><path d="M7.6 35.35 7 33.4l1.4-1.9q1.35 1.8 2.7 2.45l-.05.05-1.15 2.15.45-1.15-1.75-1.55.75 2.35q-.75-.4-1.75-.45m32.45-3.1 2.55-1.85-5.15 1.35-13 4.45q4.15-2.15 12.4-4.8L43.2 30l.35-.1q.45.8-3.5 2.35" fill="#5f3f69"/><path d="m9.9 36.15-.55-.35-.75-2.35L10.35 35l-.45 1.15m14.05-.6-1.05-.8q3.15-1.8 9.4-4.05l12.55-3.1q.8 4.85-2.35 8.65-9.25 3.25-17.1 4.25l.5-2.65 6.9-2.4 7.25-3.2q3.95-1.55 3.5-2.35l-.35.1-2.3-.3q-7.1 1.9-10.9 3.35l-6.05 2.5" fill="#c584d7"/><path d="M12.5 52.55q.4-.5.9-.4-.6.35-.9 1.25v-.85" fill="#f9f8f9"/><path d="m44.85 27.6 5.55-3.55v-1.2l.7.65-.5 1.65 5.4 5-11.4 7.1-.25.1q-3.95 2.1-10.8 3.75l-10.85.7q1.2-.25 2.4-2.55.3-1.75-.35-2.75l-.3-.3-.5-.65 6.05-2.5q3.8-1.45 10.9-3.35l2.3.3-6.35 1.4q-8.25 2.65-12.4 4.8l13-4.45 5.15-1.35-2.55 1.85-7.25 3.2-6.9 2.4-.5 2.65q7.85-1 17.1-4.25 3.15-3.8 2.35-8.65" fill="#80588c"/></g><g id="F" fill-rule="evenodd"><path d="m44.75 40.35-4.2 4.15-.55-.95q-3.4-3.5-4.95-13.05l9.7 9.85M18.05 25.2Q16.6 21.1 20.5 17l4.25.1q2.05 3.05 0 7.15-4 4.05-6.7.95" fill="#eec383"/><path d="m45.35 39.8-.6.55-9.7-9.85Q36.6 40.05 40 43.55l.55.95-.25.2-11.1-3.65q-7.95.9-10.45-5.45l1.85-2.25 5.65-3.55 3.85.4-.9-1.1-4-.8-4.6 2h-5.1q-.35-4.35 1.7-11.25l1.5-3.5q4.4.35 9.05-3.1 1.7 2.3 2.1 5.65 0 3.85-1.35 5.4 3.5-.55 3.6-3.25l.2-.15.8-1.2q4.8 2.45 6.5 4.45l-.6 8.2q3.35 5.4 6.85 6.1l-.5 2.15M34.9 17.65l-.65-.3.9-1.4 4.6 5.55q-2.6-2.5-4.85-3.85m6.5 5.9q2.75 4.9 5 11.75l-.35 1.55-2.35-2.95-2.2-3.65q.65-4.45-.1-6.7M18.05 25.2q2.7 3.1 6.7-.95 2.05-4.1 0-7.15L20.5 17q-3.9 4.1-2.45 8.2m12.05 5h.05l.15.05-.2-.05" fill="#d39882"/><path d="M.45 26.4 9.9 3.5l13.75-2.45 4.55 5.3q3.6 5.25 3.75 7.45 1.35 4.75-1.4 7.25.9-.25 1.55-.8-.1 2.7-3.6 3.25 1.35-1.55 1.35-5.4-.4-3.35-2.1-5.65-4.65 3.45-9.05 3.1l-1.5 3.5q-2.05 6.9-1.7 11.25h5.1l4.6-2 4 .8.9 1.1-3.75-1.1q-6.05 3.25-10.85 4.35l-7.6-.5L.45 26.4M40.3 44.7l-2 1.95-21.2-4.95-1.35-2.2-.35-4.15 3.75-1.75 1.45-.25-1.85 2.25q2.5 6.35 10.45 5.45l11.1 3.65m-7.2-25.8q.7-1.55.3-4.2l1-1 4.9 2.1 4.8 4.85L46 23q1.95 7.75.75 10.95l-.35 1.35q-2.25-6.85-5-11.75l-.25-.65-1.4-1.4-4.6-5.55-.9 1.4.65.3q2.95 2.45 5.75 5.85.65.75.5 3.7l-.45 2.7q.5 1.7 1.3 2l1.7 2 2.35 2.95-.2.8q-3.5-.7-6.85-6.1l.6-8.2q-1.7-2-6.5-4.45" fill="#b27660"/><path d="m38.3 46.65-.8.8-20.9-4.05q-2.6-2.6-5.2-8.55l-3.3-.75L0 27.55l.45-1.15 7.45 6.55 7.6.5q4.8-1.1 10.85-4.35l3.75 1.1-3.85-.4-5.65 3.55-1.45.25-6.4 1.1 3 4.8 1.35 2.2 21.2 4.95M28 .3l1.7-.3 4.2 11.45v1.75l7.85 1.5 6.1 6.1H46.5q3.7 3.25 4.1 9.45l-.15 4.6-.95.9q-.05-4.95-1.65-10.35L46 23l-1.9-2.35h1.15l-2.75-3.5-3.2-1.35-4.9-2.1-1 1q.4 2.65-.3 4.2l-.8 1.2-.2.15q-.65.55-1.55.8 2.75-2.5 1.4-7.25l1.1-.85L28 .3m6.9 17.35q2.25 1.35 4.85 3.85l1.4 1.4.25.65q.75 2.25.1 6.7l2.2 3.65-1.7-2q-.8-.3-1.3-2l.45-2.7q.15-2.95-.5-3.7-2.8-3.4-5.75-5.85" fill="#764237"/><path d="M23.65 1.05 28 .3l5.05 12.65-1.1.85q-.15-2.2-3.75-7.45l-4.55-5.3m25.85 34.7-4.15 4.05.5-2.15.2-.8.35-1.55.35-1.35q1.2-3.2-.75-10.95l1.85 2.4q1.6 5.4 1.65 10.35M15.75 39.5l-3-4.8 6.4-1.1-3.75 1.75.35 4.15M39.3 15.8l3.2 1.35 2.75 3.5H44.1l-4.8-4.85" fill="#955849"/></g><g id="G" fill-rule="evenodd"><path d="m74.6 12.9 4.65.1.1-.15 1.35-1.3-12.2-.5-3.45.8-.2.05-.3.05-.15-.15-.1-.05-.15-.2q-2.05-8.4-5.2-10.25l-3.7 7.6-.15.15-2.75 2.3-2.6 2.15-3.65 2.95-.05.1-.45.1q-.25 0-.4-.2l-.1-.4.2-.4 9-7.4L58.2.3q.1-.2.35-.3l.4.05q3.8 1.45 6.15 10.65 7.9-2.2 16.9 0l.3.25.1.35-.15.35-1.6 1.5q5.1.7 9.25 3.15l3.45.9.3.25.1.4-.25.35-3.2 1.95 14.3 11.2 2.4 2.15.15.25v.35q-1.3 3.45-9.45 4.75 6.55 8.7 2.35 18.2l-1 2.65-.25.3-.4.05-.35-.25-1.85-2.7.65 2.8-.05.4-.35.25-.4-.05-6.65-3.4q.15 2.45-.85 4.85l-.05.1-.1.05-6.1 2.05q.1 2.95-1.4 5.3l-.05.1H79.5l-3.55 5.9-.1.1h-.15l-.15-.1-1.3-2.25q-.9 5.85-.9 10.7l-.15.35-.35.2-.4-.1-3.2-2.55q-3.5 8.75-9.55 11.2h-.4l-.35-.25-1.15-2.25Q53.3 97 48 99.55l-.05.05q-6.2 2.2-8 5.95l-.25.25-.4.05-.3-.2-.15-.35v-.75q-8.35 5.45-12.7 9.75l-.35.15q-.25 0-.4-.15l-4.95-3.95v.15l-.1.35-.2.2-.3.05q-6.5-.85-10.55-9.25l-.25.25H8.7l-1.35-.5q-3.85-1.95-4.6-10.55l-.4.6-.3.25H1.7q-2.05-.65-1.6-5.75v-.5l.05-.1q2.2-7.95 7.7-18.2L8.6 66l.35-.3.4.05.3.35v.15l-.05.25q-5.4 9.8-7.85 17.55l-.5 1.75-.05.35v.1q-.3 3.35.55 4.3l.9-1.45.1-.15 1.25-2q.15-.2.35-.2l.45.05.25.35-.1.4-1.2 1.9q.2 3.7.95 6.25.9 3.2 2.65 4.55l.9.55v-1.35l.35-2.15q.35-2 .5-1.6l.15 1.85.1 1.7q3.75 9.3 10 10.6v-1.3l-1.45-2.25q-1.45-1.95 0-.55l2.05 1.95.5.85v.35l3.95 3.15.75.6.55.5q4.45-4.3 12.85-9.7l.3-.1v-2.3l.35-1.4.15-.75.1-.25.25-.25q.2 0 .25 1.25l.05 1.4v2.3q.6-.8 1.5-1.55 1-.85 2.3-1.6 1.65-.9 3.8-1.65 5.3-2.7 9.8-9.5.05-.15.3-.2h.35l.3.25 1.4 2.65q5.55-2.6 8.65-11.1l.25-.65.1-.2.2-.15h.4l.35.3v.4l-.1.3 2.65 2.1q.05-4.9 1-10.75l1.35-6.75-.1-1.6q-.1-1.4.15-1.2l.65 1.5.4 1.55q-.8 3.45-1.3 6.65l-.05.35 1.4 2.4 3.45-5.65.05-.1.1-.05h1.25q1.4-2.25 1.2-5.1-.15-2.3-1.25-4.9v-.15l.1-.1h.2l.1.05q1.1 2.55 1.3 4.8l4.5-1.5 1.4-.5q1.9-4.6-.75-9.15l-.05-.15v-.05q.05-.1.15-.1l.15-.05.1.15q1.1 1.8 1.5 3.7l.05-.05.4.05 4.15 2.1 1.65.85-1.1-4.45v-.15l-1.15-4.7.1-.4.3-.25.15-.05.3.1.25.35.05.15 1.1 4.55 2.85 4.15.65-1.7v-.05l.5-1.25q2.8-7.65-1.95-14.75L96.4 39l-.4.05-.35-.05-.05-.05-.2-.35q-.1-.25.1-.4l.05-.1q.1-.15.25-.15l.8-.1h.05l1.3-.2q6.45-1.1 8-3.65l-.35-.25-.8-.75-.95-.8h.05L89 20.5l-.2-.25v-.35l.25-.3 2.7-1.65-2.2-.55-.15-.05-.35-.25q-6.15-3.5-14.5-3.05l-.4-.15-.2-.4.05-.25.1-.15q.15-.2.4-.2h.1M61.9 72.5q.05 5-3.25 9.55l-.1.05H57.3q-1.5 5.35-5.2 7.25h-.15l-.15-.15v-.15l.1-.1q3.6-1.85 5-7.1l.1-.1.1-.05h1.25q4.2-5.85 2.75-12.4l.05-.2.15-.1.15.05.1.15.35 3.3m-42.75.15-.65.45-1.55 1q-3.45 3.1-4.45 5.1-.95 1.85.3 2.65l.1.15-.05.15q-2.75 4.35 0 9.25l.95 1.15.15-.55v-.5l.1-.15.15-.1.1.05.05.05.05.15q-.05 1.5-.6 1.5l-.75-.55-.55-.85q-2.85-5-.1-9.5-1.35-1-.25-3.1 1-2.05 4.5-5.2l.8-.45 1.1-.55.5-.2q.7-.35.1.05" fill="#7e6985"/><path d="m80.7 11.55-9.15.45 2.95.9q-.25 0-.4.2l-.1.15-9.55 1.9-14.7-1.65 2.6-2.15 11.95.45h.1l.15.15.3-.05.2-.05 3.45-.8 12.2.5M41.5 101.8q-.9.75-1.5 1.55v-2.3l-.05-1.4q-.05-1.25-.25-1.25 5.15-8.55 8.05-8.05L41.5 101.8m-17.1 10.25-3.95-3.15v-.35l-.5-.85-2.05-1.95q-1.45-1.4 0 .55l1.45 2.25v1.3q-6.25-1.3-10-10.6l-.1-1.7-.15-1.85q-.15-.4-.5 1.6l-.35 2.15v1.35l-.9-.55v-6.3L4.7 95.7q-.75-2.55-.95-6.25l1.2-1.9.1-.4-.25-.35-.45-.05q-.2 0-.35.2l-1.25 2-.1.15-.9 1.45q-.85-.95-.55-4.3v-.1l.05-.35.5-1.75L5.6 80.9 4.1 86l6-1.75v5.1l3.25 5.5q.45 1.3 1.35 1.6l.6-7.35-1 2.2-.1-.05-.15.1-.1.15v.5l-.15.55-.95-1.15q-2.75-4.9 0-9.25l.05-.15-.1-.15q-1.25-.8-.3-2.65 1-2 4.45-5.1l1.55-1 .65-.45 2.05-.5-3.55 8.5 8.1-5.95v6.45q1.75-4.2 7.1-9.95l-1.55 8.55 6.85-7.8v4.25L44.8 65v9.05l2.95-4.95q1.7 4.15-1.9 11.1l-1.2 2.1Q39.6 94.95 34.1 99.7v-4.35l-5.35 10.2-4.35 6.5M98.55 33.4l-8-2.75 3.35 2.85-7.2-1.8q5.55 2.1 8.7 12.25v4.6l-6.2-6.2-3.6-3.1 5.6 10.55.75 6.5-7.75-10.2-2.2-9.95-9.25-7.9-10.35-2.6-17.45-4.35.75-3 40.8 4.15q3.8 1.2 8.65 5.35l3.4 5.6M55.1 76.45q.9-7.15 2.25-8.85l2.35 4.5q-.25 7.6-3.45 8.2l-1.15-3.85m-9.7 9.45.65-5.6L52 71.7q1.1 4.1 0 10.85l-7.7 6.3 1.1-2.95m18.3-15.45q1.95-4.7 3.1-1.35-.05 8.75-1.5 12.45l-4.7 4.1 3.1-15.2m21.9-10.7-7.1-5.45 1.75-9.35 4.2 9.1 1.15 5.7m-17.95 16.8q.5-7.4 1.9-7.7 1.65 3.95 0 9.8l-1.9-2.1M71.6 51.2l5.8 5.4 1.95 4.55q.95 7.05-2.95 10.55.65-2.9-.6-8.55l-.15-.7L71.6 51.2" fill="#fff"/><path d="M74.6 12.9h-.1l-2.95-.9 9.15-.45-1.35 1.3-.1.15-4.65-.1m-.6.35-.05.25.2.4.4.15q8.35-.45 14.5 3.05l.35.25.15.05 2.2.55-2.7 1.65-.25.3v.35l.2.25 14.9 11.7h-.05l.95.8q-1.9 1.65-6.25.4l2.85 1.1q-4.95 1.85-9.85-.5l4 4.1-.05.1q-.2.15-.1.4l.2.35.05.05q1.85 4.65 1.5 13.3l-2.75-2.7-.05-.15-.25-.35-.3-.1-.05-.05-1.5-1.45 1.6 10.65-4.15-2.1-.4-.05-.05.05q-.4-1.9-1.5-3.7l-.1-.15-.15.05q-.1 0-.15.1v.2l-.75 7.6.15 2.05-4.5 1.5q-.2-2.25-1.3-4.8l-.1-.05h-.2l-.1.1v.15q1.1 2.6 1.25 4.9.2 2.85-1.2 5.1h-1.25l-.1.05-.05.1-3.45 5.65-1.4-2.4.05-.35q.5-3.2 1.3-6.65l-.4-1.55-.65-1.5q-.25-.2-.15 1.2l.1 1.6L73.25 72q-.95 5.85-1 10.75l-2.65-2.1.1-.3v-.4l-.35-.3h-.4l-.2.15-.1.2-8.8 9.5-2.4-3.1q-.9 4.3-9.05 9.55l-4.6 4.25q-1.3.75-2.3 1.6l6.25-11.45q-2.9-.5-8.05 8.05l-.25.25-.1.25-4.5 4.9q-3.45 2-7.75 6.1l-1.95 2.75-.75-.6 4.35-6.5 5.35-10.2v4.35q5.5-4.75 10.55-17.4l1.2-2.1q3.6-6.95 1.9-11.1l-2.95 4.95V65l-6.65 11.2v-4.25l-6.85 7.8 1.55-8.55q-5.35 5.75-7.1 9.95V74.7l-8.1 5.95 3.55-8.5-2.05.5q.6-.4-.1-.05l-.5.2-1.1.55-.8.45q-3.5 3.15-4.5 5.2-1.1 2.1.25 3.1-2.75 4.5.1 9.5l.55.85.75.55q.55 0 .6-1.5l-.05-.15-.05-.05 1-2.2-.6 7.35q-.9-.3-1.35-1.6l-3.25-5.5v-5.1L4.1 86l1.5-5.1-3.85 3.15Q4.2 76.3 9.6 66.5l.05-.25 29.3-18.1 2.1 6.15q1.6 6.8 0 9.95 2.5-1.1 4.1-5 1.6 5.5.65 7.6L49.25 62l1.25 4.75v-2.9l2.35 7.25 2.5-6 .65 3.1 3.45-5.35L61.3 69l-.15.1-.05.2q1.45 6.55-2.75 12.4H57.1l-.1.05-.1.1q-1.4 5.25-5 7.1l-.1.1v.15l.15.15h.15q3.7-1.9 5.2-7.25h1.25l.1-.05q3.3-4.55 3.25-9.55l1.55-4.4 5.35-19.45-.75-.7-5.65-22.3 10.35 2.6 9.25 7.9 2.2 9.95 7.75 10.2-.75-6.5-5.6-10.55 3.6 3.1 6.2 6.2v-4.6Q92.25 33.8 86.7 31.7l7.2 1.8-3.35-2.85 8 2.75-3.4-5.6q-4.85-4.15-8.65-5.35L45.7 18.3l.4-1.85 3.65-2.95 14.7 1.65 9.55-1.9m-66.65 87Q5.6 98.9 4.7 95.7l2.65-1.75v6.3m45-88.9 2.75-2.3.15-.15 3.7-7.6q3.15 1.85 5.2 10.25l.15.2v.05l-11.95-.45m2.75 65.1 1.15 3.85q3.2-.6 3.45-8.2l-2.35-4.5Q56 69.3 55.1 76.45m-9.7 9.45-1.1 2.95 7.7-6.3q1.1-6.75 0-10.85l-5.95 8.6-.65 5.6m18.3-15.45-3.1 15.2 4.7-4.1q1.45-3.7 1.5-12.45-1.15-3.35-3.1 1.35m21.9-10.7-1.15-5.7-4.2-9.1-1.75 9.35 7.1 5.45m-14-8.55 4.05 11.25.15.7q1.25 5.65.6 8.55 3.9-3.5 2.95-10.55L77.4 56.6l-5.8-5.4m-3.95 25.35 1.9 2.1q1.65-5.85 0-9.8-1.4.3-1.9 7.7" fill="#f4d8f7"/><path d="m104.8 33 .8.75-7.65 3.9-1.3.2h-.05l-.8.1q-.15 0-.25.15l-4-4.1q4.9 2.35 9.85.5l-2.85-1.1q4.35 1.25 6.25-.4m-9.15 6 .35.05.4-.05 1.15 1.55q2.05 5.9 1.95 14.75l-.5 1.25v.05l-.65 1.7-2.85-4.15-1.1-4.55 2.75 2.7q.35-8.65-1.5-13.3m-2 10.05-.3.25-.1.4 1.15 4.7v.15L95.5 59l-1.65-.85-1.6-10.65 1.5 1.45-.1.1m-6.25 3.5q2.65 4.55.75 9.15l-1.4.5-.15-2.05.75-7.6h.05M68.65 80l-.25.65q-3.1 8.5-8.65 11.1l-1.4-2.65-.3-.25h-.35q-.25.05-.3.2-4.5 6.8-9.8 9.5-2.15.75-3.8 1.65l4.6-4.25q8.15-5.25 9.05-9.55l2.4 3.1 8.8-9.5m-29.3 18.9-.15.75-.35 1.4v2.3l-.3.1q-8.4 5.4-12.85 9.7l-.55-.5 1.95-2.75q4.3-4.1 7.75-6.1l4.5-4.9M62.4 25.65l5.65 22.3.75.7-5.35 19.45-1.55 4.4-.35-3.3-.1-.15-.15-.05-1.85-6.15L56 68.2l-.65-3.1-2.5 6-2.35-7.25v2.9L49.25 62l-3.45 4.85q.95-2.1-.65-7.6-1.6 3.9-4.1 5 1.6-3.15 0-9.95l-2.1-6.15-.2-.6 6.2-26.25 17.45 4.35" fill="#a48dac"/><path d="m105.6 33.75.35.25q-1.55 2.55-8 3.65l7.65-3.9m-8.05 6.8q4.75 7.1 1.95 14.75.1-8.85-1.95-14.75" fill="#aedceb"/></g><g id="H" fill-rule="evenodd"><path d="m91.1 18-.55-.25-7.65-3.2-.2-.15-3.45-3.95q-6.3-3.7-13.9-4.2l-2.2 1.5-2.25 1.5-3.35 2.25-.15.1q-8.35 2.05-13.45 5l-.15.9L43 23l-.1.8-.1.2-.15.15-5.6 3.7-.15-1.2 4.9-3.25.7-4.65.4-2.55.05-.25.1-.1.1-.05.2-.1q3.5-2.05 8.55-3.7l.85-.3 4.3-1.2 1.5-1.05L62 7.15l2.9-1.95.35-.1q8 .5 14.65 4.45l.2.1 3.35 3.9 9.6 4.05.25.2 2.35 3.35.1.2 1.95 9.85 3.45 6.3.05.35-1.6 10.1-.1.25-.15.15-4.45 2.4-5.05 9.3-.3.25-3.45 1.25-7.1 5.5-.25.15h-.25l-5.15-1.5-6.45.75-.3-.05-.2-.2-4-5.1-8-3.4-.2-.2-2-2.7-.85-.4-2.05-.95-.15-.15-.15-.2-.3-1.1-.3-1.15-.15-.5-1.05-4L46 41.9v-.2q.15-1.3.65-2.8l.45-1.05.1-.25q.95-2.2 2.6-4.75 4.85-9.75 8.65-13.75l.3-.2.4.1.25.25v.35l-.95 4.75 1.45.85.05.05v.05L62 32.25v.15l-.1.05h-.1l-.1-.1-2.05-6.9-1.25-.8q-1.2 6.8-.95 11.65.1 3.35.9 5.8l1.05 1.25q-.2-1.95.65-3.45 1.15-2.25 4.55-3.3l.6-2.9q0-.25.15-.35l2.9-2.35q.1-.15.3-.15l.35.15 2 1.5h3.15l.25.05q3 1.4 2.6 4.85l2.35 2.2.2.3-.05.3-.9 2.6-.55 1.65v2.25l-.05.25-.15.25-4.8 3.4-.2.25 5.6-2.15 4.35-1.25 3.4-3.6 1.25-1.4q1.3-1.35-.3.9l-3 4.05-1 1.1v.05l-3.15.85q2.8 3 3.55 7.1l.2 3.3-.05.1-.1.05-.1-.05-.05-.1v-.1l-.3-3.6q-.8-3.85-3.45-6.6l-.85.25-7.1 2.75q.6 1.85.25 4.95l-.3 1.95v.1l-.05.05-.05.1-.15.1-.5.55-.75.8-.25.25-.35.3.2-.75.9-2.25.25-1.95q.4-5-2.3-5.8-3.45.45-6.95-1.55l-1.05-.65-.4-1.15.1.5-.6-2.6-2.2-2.7-.1-.2q-.6-1.7-.9-3.85-.8-6.55 1.4-17.15l-1.2 1.65L54.8 26q-1.9 3.15-4 7.4l-.05.05L49.8 35q-2.3 3.9-2.65 6.7l.25 1.05 2.65 9.8q1.35.6 2.7 1.25l.25.2 2 2.75 7.95 3.4.2.15 3.1 3.95.85 1.05 1.5-.15 4.75-.6.25.05 4.95 1.4 2.3-1.75 4.65-3.65.15-.1 3.3-1.15 5-9.25.25-.25 4.35-2.35 1.5-9.65-3.35-6.15-.05-.15-1.95-9.85-.85-1.2-1.35-1.9-1.4-.6m-1.05 1.75.05.05.1.1v.1l-1.65 3-1.15 2.3h-.05l-6.65 8.25-.1.1-.1-.05-.1-.1.05-.1 4.85-6.05 1.8-2.2 2.8-5.3.1-.1h.05m-1.85 8.1-.05.25v.35l1.85 6.9v.15l-.1.05h-.2v-.1l-1.9-7.1.05-.1.1-.1.25-.3m-13-8.65.05-.05h.1q5.65 2.7 8 5.6l.05.1.1.1.1.15.2.3-.1.1-.1.05-.1-.05q-2.1-3.1-8.05-5.95l-.25-.1-.05-.1v-.1l.05-.05m-.55-.8-2 8.4-.05.1h-.15l-.1-.05v-.15l1.55-6.5.5-2.1-.75-.7q-3.3-3-8.4-5.45l-1.05-.45v-.05h-.05l-.05-.05-.05-.05v-.15l.05-.05h.1q.35.1.7.3 4.8 2.25 8.05 4.95l1.7 1.55.05.05v.1l-.05.3m-3.9 2.05h-.05q-3.95.7-5.85 2.35l-.15.15-.1.05h-.05l-.05-.05-.05-.1.05-.1q1.9-1.85 6.3-2.6h.1l.05.1v.15l-.1.05h-.1m2.1 28.85 4-2.85v-2.3l1.4-3.95-2.35-2.1-.15-.25-.05-.25q.45-2.8-1.8-4h-3.2l-.35-.1-1.75-1.35-2.4 1.95-.3 1.5-.25 1.55-.15.25-.25.2q-2.55.7-3.75 2.15l-.45.7-.2.4q-.3.75-.35 1.6l.25 2.05.15.55v.05l.1.35v.35l-.1.2.45 1.85q1.85 1.25 3.75 1.75l1.2.2 2.2-.05.2.05q1.5.3 2.35 1.5l1.05-1.4.15-.15.6-.45m13.45-9.6-4.9 3.25h-.1l-.1-.05-.05-.15.1-.05 4.45-3 3.8-2.5.1-.05.1.05.6.35q3.85 2.2 5.25 6.1v.1l-.1.1h-.15l-.05-.1q-1.3-3.65-4.8-5.75l-.15-.1-.7-.4-3.3 2.2M35.55 5.95l-.05.4-.35.25-.5.1-2.65.65-2.1.55-5.45 1.3-.45-.05-.1-.05-3.85 6.05Q17 20.7 13.95 22.4l.3 1.7.65 3.95 1.35 7.75-.1.45-.35.2h-.1l-.3-.1-.25-.35-.15-.65q-1.65-5.6-2.2-13.15l.05-.35.25-.25q2.95-1.45 5.95-6.95l.05-.05 3.95-6.25.35-.2.45.05.05.05.25-.1 10.7-2.65.45.1.1.05.15.25v.05m-15.5 9.2-.05.05.05-.05m21.45-7.5 2.3 1.45-1.45.85-1-.85.15-1.45M53 23.5l-7.3-3.75-.1-.1v-.1l.1-.05h.15l.5.25 6.8 3.45.1.1v.15l-.1.05H53m.05 21.15-.05.05h-.1l-3.1-.95-.1-.05v-.15l.1-.05.1-.05 3 .95 2.35-1.8h.1l.1.05v.1l-.05.1-2.3 1.8h-.05m2.4 8.2 2.7-.6q1.55-2.15 1.7-3.4l.05-.15h.1l.1.05.05.1V49q-.15 1-1.1 2.5l-.7 1-.1.05-2.7.6h-.1l-.1-.1.05-.1.05-.1M13.9 42.1l-4.35-2.45-.25-.35-.7-2.7v-.05q-4.2-4.4-4.8-12.4l-.85 2.75-.4 1.4Q.5 36.1 1.4 41.9l4.3 5.8 2.7.75-.5 1-2.65-.7-.3-.2-4.5-6.1-.1-.25q-1.5-8.45 3.4-21.2l.3-.3.35-.05.3.2.15.35q-.1 9.75 4.65 14.7l.15.25.7 2.65 3.4 1.9.75.45.2.2-.75.75h-.05m-9.7-6.4 1.5-1.35.15-.05.1.05v.25L4.4 35.95l-.1.05-2.15.45-.05-.05-.1-.1v-.1l.1-.1 2.05-.4h.05m2.6 6.6.55-.2 1.05-2.45.1-.1h.1l.1.1v.1l-1.1 2.5-.1.1-2.45 1.1h-.1l-.1-.1v-.1l.05-.15.55-.15 1.35-.65" fill="#2e2431"/><path d="m48.25 50.35.15.5-.6.65-.7-1.1q-.9.95-1.75 3.5l-.5 1.4 1.8.25v2l3.95-1.2-1.35 2.85-5.25 3 3.1.55-2.85 2.15-5.8-.45-9.9 5.05-2.95 3.8-1-2.15q-2.45 3.8-5.35 5.75l-5.15 2.3-.95-2.5q-2.05 2.6-2.75 4.35l-1.5-1.5Q7.5 77.5 7.5 74.3l-2.65-.25q.9-.85 1.3-2.25l1.9-1.3-.45 1.2-.4 1.2 2.75-.9q-1.45 4.15 0 6.65l.7-.7 2.7-2.8.25-.2q1.1 1 1.25 2.95l.85-.4q3.15-1.55 6.65-5.2l2.8-3.3.45 1.4.15.6 1.95-2.2.55-.7q4.85-3.85 9.2-4.75l6.6.3-1.85-1.25-1.5.45 1.55-1.45-1.55-.3 2-2.7.35-.5-2.1-2.05L44 57.8l-2.3 2.85h1.5l-.3 1 5-3.15-2.45-.7.8-1.75-2.7-.25-.6-1.1 1.35.55.4-2.45.1-.75q1.4-2.55 2.05-2.65l1 1.35.4-.4" fill="#a38dab"/><path d="m48.4 50.85.3 1.15-.05 2.8q-1.9.65-3.3-.9.85-2.55 1.75-3.5l.7 1.1.6-.65m4.35-39.15-.85.3q-5.05 1.65-8.55 3.7l-.2.1-.1.05-.1.05-5.8 3.2-2.25 2.35 1.3-3.75.1-.25q4.75-4.35 8.45-6.3H43.1l1.35-.65q9.2-3.2 15.95-4.15l-.3.55-7.35 4.8m-27 11.3q.05.55.4.9.6-3.45 3.9-9.4l10.2-10.7-.1 1.6-5.35 8.45-6.75 16.05.25-3.85-3 6.4-.3-2 .75-7.45m-1.2-1.7q.35 3.6-1.5 9.2l-2.85 7.9.05.05-1.45 3.2-.8 1.1q.1-2.6-.35-6.75l2.05-6.3 4.85-8.4m16.4 34.55 2.1 2.05-.35.5-1.7.35-5.7.35q.1-1.5 1.6-3.05l2.35-1.75 3.45.65.45.4-2.2.5M27.7 68.8 25.75 71l-.15-.6.85-3.75.2.05 1.55-2.6 4.45-2.3q-4 4.5-4.95 7m-12 8.7-.85.4q-.15-1.95-1.25-2.95l1.1-5.15q-1.8 1.2-3.4 5.55l-.65 2.6-.7.7q-1.45-2.5 0-6.65l-2.75.9.4-1.2 3.35-2.7.85 3.1 2.6-2.85.75.75.3 1.05 1.55-1.7.35.6q.95 3.55-1.65 7.55m9.2-14.4-2.45.75V59.3l.85.4 1.6 3.4m-6.65 1.65H16.5l.7-3.45.55.3q.9 2.1.5 3.15m15.85-3.7-.55-1.2.85-.4 4.8.85-1 .5-4.1.3v-.05m-18.15-23.7.65 2.25-1.9 1.75 1.25-4m7.25 30 .85-.4-4.35 6.2-1.75 1.3 1.6-3.2 2.7-3.25.95-.65" fill="#fff"/><path d="m48.7 52 .3 1.1.15.2.15.15 2.05.95-.75 1.95-3.95 1.2v-2l-1.8-.25.5-1.4q1.4 1.55 3.3.9l.05-2.8m9.85-42.55-1.5 1.05-4.3 1.2 7.35-4.8-1.55 2.55m-15.6 6.5-.05.25-.4 2.55-4.9 1.55h3.3q-4.75 2-7.25 4.05l.45-2.9-3.15 6.25-5.8 8.5-.45-3-.05-.1-.05.1.05-2.65q-2.15 4.75-4.2 7.6l-.2.3-.05-.05 2.85-7.9q1.85-5.6 1.5-9.2l.5-4.8 1.7 2.6q-1.1 2.4-1.05 3.65l.05.25-.75 7.45.3 2 3-6.4-.25 3.85 6.75-16.05 5.35-8.45-.4 6.05q-3.95 4.25-3.65 6.2l.1.05-1.3 3.75 2.25-2.35 5.8-3.2v.05M65.9 35.6l.3-1.5 2.4-1.95 1.75 1.35.35.1h3.2q2.25 1.2 1.8 4l.05.25.15.25 2.35 2.1-1.4 3.95v2.3l-4 2.85 1.75-5.95-.85-1.9-.15-.35q-2.1-.95-4.7-1.35l5.5-1.65q-2.45-2.35-8.5-2.5M36.3 17.45q2.65-4.05 6.8-6.3h1.65q-3.7 1.95-8.45 6.3m7.25 38.35 2.7.25-.8 1.75 2.45.7-5 3.15.3-1h-1.5L44 57.8l-3.05-1.95 2.2-.5.4.45m-.85 2.6-2 2.7 1.55.3-1.55 1.45 1.5-.45 1.85 1.25-6.6-.3q-4.35.9-9.2 4.75l-.55.7q.95-2.5 4.95-7 .6-.35 1.25-.65l.2-.05 4.1-.3 1-.5-4.8-.85.9-.35 5.7-.35 1.7-.35m-17.1 12-.45-1.4-2.8 3.3q-3.5 3.65-6.65 5.2 2.6-4 1.65-7.55l1.35 2.25.85-.95-1.6 3.2 1.75-1.3 4.35-6.2.3-.15.95-.25 1.15.1-.85 3.75m-12.25 4.75-2.7 2.8.65-2.6q1.6-4.35 3.4-5.55l-1.1 5.15v-.05l-.25.25" fill="#f4d8f7"/><path d="M60.5 42.45q.05-.85.35-1.6l12.25.45q-.95 2.95-4.15 5.6L72 41.55h-6.65l-4.85.9M7.6 71.7l.45-1.2v-1.55l2.75-1q2.7.4 3.6 1.3l-2.6 2.85-.85-3.1-3.35 2.7m13.05-6.9 4-.95 1.45-.5 1-1 1.2-3.05 7.45-6.55 3.95.75-2.5 1-2.85 4.35-1.6 1.05v1.45l-4.8 2.3-1.35 2.05-1.3.85-.95.25-.3.15-.85.4-6.4.4-3.6-1.6H9l-.4.8-.5.55-.05-.05Q8 66.2 9.15 64.8l5.55.95h4.25l1.7-.95" fill="#d39882"/><path d="m47.2 46.35 1.05 4-.4.4-1-1.35q-.65.1-2.05 2.65l-.1.75-6.4-1.25-2 .6h-.5l-.15.1q-4.95 3.35-7.75 6.8l-.15.1-.85 2.2q-1.65-1.6-3.6-2.35l2.4.7q1.35-2.75 5.15-5.5l5.1-3 4.05-.3q2.65.5 4.85-1.45l2.35-3.1m13.55-1.85-.25-2.05 4.85-.9H72l-3.05 5.35-3.85 2.65q2.7-2.1 2.7-5.95l2.65-1.3-3.3-.1q-1.8-.85-6.4 2.3m-25.7-18 .4-.45.4 1.8v2.4L34.3 33.4l-.8 2.45.55-5.5 1-3.85m3.3 3.5q1.9 4 .8 8.55l-4.5 3.65 3.1-6.85.6-5.35m5.1 6.45.85-.45v4.85q-3.45 4.25-5.4 4.3 2.2-3 4.55-8.7m-.75 18.5-3.45-.65-2.35 1.75q-1.5 1.55-1.6 3.05l-.9.35-.85.4.55 1.2-.2.1q-.65.3-1.25.65l-4.45 2.3-1.55 2.6-.2-.05-1.15-.1 1.3-.85 1.35-2.05 4.8-2.3V59.9l1.6-1.05 2.85-4.35 2.5-1 3 1.45M22.05 64l-1.55.5q-1-2.4-2.65-3.35l2.45 1.3 1.25 1.15.5.4m2-28.8.3-.5.55 2.45.9-.45-3.45 4 1.7-5.5M8.1 67.5l.5-.55.75-.5 4 .15-2.3-.45h2.15l3.6 1.6 6.4-.4-.95.65-2.7 3.25-.85.95-1.35-2.25-.35-.6-1.55 1.7-.3-1.05-.75-.75q-.9-.9-3.6-1.3l-2.75 1v-1.4l.05-.05" fill="#b27660"/><path d="M65.1 49.6q-1.9-.5-3.75-1.75L60.9 46l.1-.2v-.35l-.1-.35v-.05l6.25-2.85 3.3.1-2.65 1.3q0 3.85-2.7 5.95v.05M15 35.35l.15.65.25.35.3.1v.05l.25.85-1.25 4 1.9-1.75.35 1.25-5.25 5.6-2.8 3.95.75.6-1 .75v.05Q7.3 53.05 5.6 56l-.25 1.6-.3 1.55 1.7 1.5q2.85-3.9 4.95-4.9l-.4.45-4.55 5 .75 1.55.25.5.55.7h.5l.2.4-1.1.05-.55 2.45.7.6v3.05l-1.9 1.3q.35-1.4.35-3.2l-.05-.25-.7-.75v-.5L2.8 63.9q-.55-1.4.65-4.05l.05-.3v-.75l.75-2.3 3.65-7.05.5-1 .25-.65 1.65-2.05.15-.25q.9-1.35 3.45-3.4h.05l.75-.75-.2-.2-.75-.45L15 35.35m18.4 6.95h.9q.05 1.8-2.2 3.85l-1.95 6-4.65 1.45-2.3.7q-2.1 0-2.45-.65-.1-.2-.05-.4v-.05l12.7-10.9m11.3 10.5-.4 2.45-1.35-.55-.4-.7q-2.4-1.55-6.25-1.85l2-.6 6.4 1.25M6.25 65.65v.05l.85.35.5-2.05q-1-.5-1.5-2.65l-.75-.75-.7-.7-.2 3.8q.95 1.35 1.8 1.95m2.35 1.3.4-.8h2.05l2.3.45-4-.15-.75.5" fill="#955849"/><path d="m26.6 62.25-.15.35-1.55.5-1.6-3.4q2.2 1.05 3.3 2.55m-6.5 2.4-.4.1h-1.45q.4-1.05-.5-3.15 1.4.85 2.35 3.05" fill="#b4a7d2"/><path d="M15.95 64.75h-.55l-4-.8H8.3l-.55-.7-.25-.5 2 .45 2.85-.25.55-.05 3.35.35-.3 1.5M5.35 57.6l.9 1.3 3.9-2.9 1.55-.25q-2.1 1-4.95 4.9l-1.7-1.5.3-1.55m.9 8.05.55-.95-1-1.8-.3-1.6-.15-.7.75.75Q6.6 63.5 7.6 64l-.5 2.05-.85-.35v-.05" fill="#b47961"/><path d="m32.1 46.15 2.2.3q.9 2.8-2.35 6.45l-4.6 1.15-1.85-.45 4.65-1.45 1.95-6M9 64.35q3.6-.05 5.85.85H19l1.65-.4-1.7.95H14.7l-5.55-.95Q8 66.2 8.05 67.45l-.7-.6.55-2.45 1.1-.05m8.45-21.6L9.65 51l-.75-.6 2.8-3.95 5.25-5.6.5 1.9m-8.8 9.05L7.1 54.95 5.35 57.6 5.6 56q1.7-2.95 3.05-4.2m2.65 4.4-2.25 4.05.5 2.15 2.8.55-2.85.25-2-.45-.75-1.55 4.55-5m10.3-10.9 3.25-1.95-2.6 3.45q-2.55 4.5-3.9 2.7-.3-1.8 3.25-4.2M5.35 60.6l.15.7-.05 2.6.8 1.75q-.85-.6-1.8-1.95l.2-3.8.7.7" fill="#fff1a3"/><path d="m5.5 61.3.3 1.6 1 1.8-.55.95-.8-1.75.05-2.6" fill="#d49982"/><path d="m47.1 37.85-.45 1.05-.85.4-1.5 2.25V36l-.85.45-4.3 2.1q1.1-4.55-.8-8.55l-.4-.7-3.65 4.1 1.55-3.15v-2.4l-.4-1.8-.4.45-1.85 1.85q-2.55 3.55-1.6 4.55l-2.45 2.2-3.35 1.6-.9.45-.55-2.45-.3.5-5.5 7.75-.7 1.2.15-1.4.8-1.1 5.8-8.45h.1l.45 3 .05.45 5.5-3.3q0-2.9 2.4-6.6l3.3-3.55.5 3.45.15 1.2.1.5 1.7-.85q1.75 3.6 2.05 9l4.45-2.4q.5 2.6.15 4.65l1.6-.9M66.3 49.8l-1.2-.2v-.05l3.85-2.65q3.2-2.65 4.15-5.6l-12.25-.45.2-.4.45-.7q4.1-.45 7.4 0 2.6.4 4.7 1.35l.15.35q.65 1.6-2.4 4.6L66.3 49.8m-5.4-4.75-.15-.55q4.6-3.15 6.4-2.3l-6.25 2.85M42.95 54.7l.6 1.1-.4-.45-.45-.4-3-1.45-3.95-.75-7.45 6.55-1.2 3.05-1 1-1.45.5-4 .95-1.65.4h-4.15q-2.25-.9-5.85-.85l-.2-.4h2.6l4 .8h4.3l.4-.1.4-.15 1.55-.5v.05l.15-.1.25-.1 2.45-.75 1.55-.5.15-.35.3-.9.85-2.2.15-.1q2.8-3.45 7.75-6.8l.15-.1h.5q3.85.3 6.25 1.85l.4.7" fill="#764237"/><path d="m26.9 61.35-.3.9q-1.1-1.5-3.3-2.55l-.85-.4v4.55l-.25.1-.15.05-.5-.4q-.25-3.15.85-4.95l.9.35q1.95.75 3.6 2.35m-6.4 3.15-.4.15q-.95-2.2-2.35-3.05l-.55-.3-.7 3.45h-.55l.3-1.5.45-2.55 1.15.45q1.65.95 2.65 3.35" fill="#9186ac"/><path d="m20.75 53.65-1.9-.15q-2.4-.65-1.7-1.8 1.55.95 3.75-1.1 2-2.8 6.1-6 3.95-2.5 6.4-2.3L20.7 53.2h-.05l.05.05q-.05.2.05.4" fill="#b47861"/><path d="M46.65 38.9q-.5 1.5-.65 2.8v.2l1.2 4.45-2.35 3.1Q42.65 51.4 40 50.9l-4.05.3-5.1 3q-3.8 2.75-5.15 5.5l-2.4-.7-.9-.35q-1.1 1.8-.85 4.95l-1.25-1.15-2.45-1.3-1.15-.45-.45 2.55-3.35-.35-.55.05-2.8-.55-.5-2.15 2.25-4.05.4-.45-1.55.25-3.9 2.9-.9-1.3 1.75-2.65 1.55-3.15v-.05l1-.75 7.8-8.25.4 1.4.7-1.2 5.5-7.75-1.7 5.5 3.45-4 3.35-1.6 2.45-2.2q-.95-1 1.6-4.55l1.85-1.85-1 3.85-.55 5.5.8-2.45 3.65-4.1.4.7-.6 5.35-3.1 6.85 4.5-3.65 4.3-2.1q-2.35 5.7-4.55 8.7 1.95-.05 5.4-4.3v.7l1.5-2.25.85-.4M32.1 46.15q2.25-2.05 2.2-3.85h-.9q-2.45-.2-6.4 2.3-4.1 3.2-6.1 6-2.2 2.05-3.75 1.1-.7 1.15 1.7 1.8l1.9.15q.35.65 2.45.65l2.3-.7 1.85.45 4.6-1.15q3.25-3.65 2.35-6.45l-2.2-.3m-10.5-.85q-3.55 2.4-3.25 4.2 1.35 1.8 3.9-2.7l2.6-3.45-3.25 1.95" fill="url(#v)"/><path d="m91.1 18 1.4.6 1.35 1.9 1.1 7.8 1.6 6.35 2.25 2.85-1.2 9.65-3.4 2.05-1.85 1.95-3.65 7.15-6.5 3.6-1.35 2.35-2.3 1.75-4.95-1.4-.25-.05-4.75.6 2.25-4.85.5-.55.15-.1.05-.1Q73.3 57 77.4 54.7q3.95-.7 5.95 5v.1l.05.1.1.05.1-.05.05-.1-.2-3.3q-.75-4.1-3.55-7.1l3.15-.85v-.05l3.3-1.55L90.3 40v-2.1l.15.1q3.5 2.1 4.8 5.75l.05.1h.15l.1-.1v-.1q-1.4-3.9-5.25-6.1l-.55-2h.15l.1-.05v-.15l-1.85-6.9v-.35l.05-.25q.2-3.45 3.5-7.15l-.6-2.7M47.4 42.75l-.25-1.05q1.8 2.2 5.5 1.05V40.5q.2-9.05 2.15-14.5l1.85-2.8-1.15 9.7.5 7 .45-1.2q.3 2.15.9 3.85l.1.2 2.2 2.7.6 2.6-.1-.5.4 1.15 1.05.65 1.7 1.5L68.9 52l1.95 4.7-.25 1.95-.9 2.25-.2.75-3.2 2.55 1.85-3q1-3.1 0-8.25-5.5.2-9.1-1.45.95-1.5 1.1-2.5v-.15l-.05-.1-.1-.05h-.1l-.05.15q-.15 1.25-1.7 3.4l-2.7.6 1.9-2.5q-2.55-1.15-4.25-5.7l2.3-1.8.05-.1v-.1l-.1-.05h-.1l-2.35 1.8-3-.95-.1.05-.1.05-1.4-.1-.9-.7m31.1.05.9-2.6.05-.3-.2-.3-2.35-2.2q.4-3.45-2.6-4.85l-.25-.05H70.9l-2-1.5-.35-.15q-.2 0-.3.15l-2.9 2.35q-.15.1-.15.35l-.6 2.9q-3.4 1.05-4.55 3.3-.85 1.5-.65 3.45l-1.05-1.25q-.8-2.45-.9-5.8-.25-4.85.95-11.65l1.25.8 2.05 6.9.1.1h.1l.1-.05v-.15l-2.05-6.95H60l4.5-2.3h.1l.1-.05.15-.15q1.9-1.65 5.85-2.35h.05l3.15-.25-1.55 6.5v.15l.1.05h.15l.05-.1 2-8.4.55.8-.05.05v.1l.05.1.25.1q5.95 2.85 8.05 5.95l.1.05.1-.05.1-.1-.2-.3.2.2 1.5 2.05-4.85 6.05-.05.1.1.1.1.05.1-.1 6.65-8.25h.05l1.15-2.3-2.7 6.45q1.3 5.2-2.25 10.45l-5.1 2.9M43 23l.8-5.5 2.55 2.25-.5-.25h-.15l-.1.05v.1l.1.1L53 23.5q-5.2 1.35-10-.5M60.9 9.25l2.25-1.5 2.95 2.2 4.95 3.7 1.9 2.75q-3.25-2.7-8.05-4.95-.35-.2-.7-.3h-.1l-.05.05v.15l-3.15-2.1M14.25 24.1l-.3-1.7 6.45.2.4.4.35 1.55-2.2 4.15q-1.8-4.85-4.7-4.6M32 7.35l2.65-.65q-2.4 2.6-5 6.45l-5.35-2.2.25-.45 4.3.7L32 7.35m-3.15 6.9-.05.05-1.35 2.05L27 17.5q-.8-2.05-2.1-2.8l-.8-1.25-1.2-.4.6-.95q3.8.35 5.35 2.15M2.95 26.9l.85-2.75q.6 8 4.8 12.4v.05l.7 2.7.25.35 4.35 2.45q-2.55 2.05-3.45 3.4l-1.95-1-4.6-.5-.4-.55 1.4-.35-.05.15v.1l.1.1h.1l2.45-1.1.1-.1 1.1-2.5v-.1l-.1-.1h-.1l-.1.1-1.05 2.45-.55.2-2.1-4.55-2.55-.9v-.4L4.3 36l.1-.05 1.55-1.35v-.25l-.1-.05-.15.05-1.5 1.35-.45-1.35-.8-7.45" fill="#3f2f42"/><path d="m63.15 7.75 2.2-1.5q7.6.5 13.9 4.2l3.45 3.95.2.15 7.65 3.2.55.25.6 2.7q-3.3 3.7-3.5 7.15l-.25.3-.1.1-.05.1.6 6.2-2.7 5.15-4.45 3-.1.05.05.15.1.05h.1l4.9-3.25 1.9-.05-.85 2.8-1.25 1.4-3.4 3.6-4.35 1.25-5.6 2.15.2-.25 4.8-3.4.15-.25.05-.25v-2.25l.55-1.65 5.1-2.9q3.55-5.25 2.25-10.45l2.7-6.45 1.65-3v-.1l-.1-.1-.05-.05.5-2-2.45 3.2q-2.75 3.9-7.7-2.2l-7.85-5.85-6.45-2.95-2.95-2.2m5.45 57.4-1.5.15-.85-1.05-3.1-3.95-.2-.15-7.95-3.4L53 54l-.25-.2q-1.35-.65-2.7-1.25l-2.65-9.8.9.7 2.55 1.95q2.85 4.7 6.5 4.95l-1.9 2.5-.05.1-.05.1.1.1-2.55.15 3.4.9 2.25-.75q2.85 2.4 7.85 1.55 1.6 2.75 1.75 6.2l-1.85 3 3.2-2.55.35-.3.25-.25.75-.8-2.25 4.85M47.15 41.7q.35-2.8 2.65-6.7.75 6.2 2.85 7.75-3.7 1.15-5.5-1.05M71.6 59.5v-.1l.3-1.95 1.2-2.95 5.4-3.25.1.05q3.05 2.4 4.45 4.8l.3 3.6q-2-5.7-5.95-5-4.1 2.3-5.85 4.85l.05-.05M59.95 25.25l-.05-.05-1.45-.85.95-4.75v-.35l-.25-.25-.4-.1-.3.2q-3.8 4-8.65 13.75-1.65 2.55-2.6 4.75l-.1.25-1.6.9q.35-2.05-.15-4.65l-4.45 2.4q-.3-5.4-2.05-9l-1.7.85-.1-.5 5.6-3.7.15-.15.1-.2.1-.8q4.8 1.85 10 .5h.15l.1-.05v-.15l-.1-.1-6.8-3.45-2.55-2.25.15-.9q5.1-2.95 13.45-5l.15-.1 3.35-2.25 3.15 2.1.05.05.05.05h.05v.05l1.05.45q5.45 5.15 5 6.8L67 20.2q-5.05 2.9-7.05 5.05m28.2 3.15v-.3.3m-73.25-.35-.65-3.95q2.9-.25 4.7 4.6l-.2.35-1.65 4.45-2.2-5.45m15-20.15 2.1-.55-3.15 3.85-4.3-.7.25-.35 5.1-2.25m-.25 5.25-.8 1.1q-1.55-1.8-5.35-2.15l.8-1.15 5.35 2.2M24.9 14.7l-.35-.15-1.2 5.85-2.2 4.15L20.8 23l-.4-.4-.2-.2-2.7-1.1q1.9-1.4 3.5-5.35l1.9-2.9 1.2.4.8 1.25m17.45-4.75-1.15.7.15-1.55 1 .85m23.9 54.3.05-.05-.05.05M2.55 28.3l.4-1.4.8 7.45.45 1.35h-.05l-2.05.4-.1-1.05.55-6.75m-.4 8.55 2.55.9 2.1 4.55-1.35.65-.55.15-1.4.35-.85-1.2-.5-5.4M3.9 44l4.6.5 1.95 1-.15.25-1.65 2.05L6 46.95 3.9 44" fill="#5a475d"/><path d="m49.8 35 .95-1.55.05-.05q2.1-4.25 4-7.4-1.95 5.45-2.15 14.5v2.25Q50.55 41.2 49.8 35m22.1 22.45q.35-3.1-.25-4.95l7.1-2.75.85-.25q2.65 2.75 3.45 6.6-1.4-2.4-4.45-4.8l-.1-.05-5.4 3.25-1.2 2.95m11.15-8.95 1-1.1 3-4.05q1.6-2.25.3-.9l.85-2.8-1.9.05 3.3-2.2.7.4V40l-3.95 6.95-3.3 1.55M66.1 9.95l6.45 2.95 7.85 5.85q4.95 6.1 7.7 2.2l2.45-3.2-.5 2H90l-.1.1-2.8 5.3-1.8 2.2-1.5-2.05-.3-.35-.1-.1-.05-.1q-2.35-2.9-8-5.6h-.1l-.05.05-.55-.8.05-.3V18l-.05-.05-1.7-1.55-1.9-2.75-4.95-3.7m21.7 18.4 1.9 7.1v.1h.05l.55 2-.6-.35-.1-.05-.1.05-3.8 2.5 2.7-5.15-.6-6.2M73.9 20.2l-3.15.25h.1l.1-.05v-.15l-.05-.1h-.1q-4.4.75-6.3 2.6l-.05.1.05.1V23L60 25.3l-.05-.05q2-2.15 7.05-5.05l3.25-1.45q.45-1.65-5-6.8 5.1 2.45 8.4 5.45l.75.7-.5 2.1M16.25 35.8l-1.35-7.75 2.2 5.45-.85 2.3m-2.3-13.4q3.05-1.7 6.1-7.25L23.9 9.1l.1.05.45.05 5.45-1.3-5.1 2.25-.25.35-.25.45-.8 1.15-.6.95-1.9 2.9q-1.6 3.95-3.5 5.35l2.7 1.1.2.2-6.45-.2M48.3 43.45l1.4.1v.15l.1.05 3.1.95h.1l.05-.05h.05q1.7 4.55 4.25 5.7-3.65-.25-6.5-4.95l-2.55-1.95m7.2 9.7h.05l2.7-.6.1-.05.7-1q3.6 1.65 9.1 1.45 1 5.15 0 8.25Q68 57.75 66.4 55q-5 .85-7.85-1.55l-2.25.75-3.4-.9 2.55-.15h.05m-47.1-4.7-2.7-.75-4.3-5.8q-.9-5.8 1.15-13.6L2 35.05l.1 1.05-.1.1v.1l.1.1.05.05v.4l.5 5.4.85 1.2.4.55L6 46.95l2.65.85-.25.65" fill="#9b76a2"/><path d="m62 7.15-3.45 2.3L60.1 6.9l.3-.55q-6.75.95-15.95 4.15l-1.35.65q-4.15 2.25-6.8 6.3l-.2.2q-.3-1.95 3.65-6.2l.4-6.05.1-1.6-10.2 10.7q-3.3 5.95-3.9 9.4-.35-.35-.4-.9l-.05-.25q-.05-1.25 1.05-3.65l-1.7-2.6-.5 4.8-4.85 8.4-2.05 6.3q.45 4.15.35 6.75l-.15 1.4-.4-1.4-.5-1.9-.35-1.25-.65-2.25-.25-.85.1-.05.35-.2.1-.45.85-2.3 1.65-4.45.2-.35 2.2-4.15 2.2-4.15 1.2-5.85.35.15q1.3.75 2.1 2.8l.45-1.15 1.35-2.05.05-.05.8-1.1q2.6-3.85 5-6.45l.5-.1.35-.25.05-.4 3.3-2.6L40.95 0q1.6 2.2.65 6.55l-.1 1.1-.15 1.45-.15 1.55 1.15-.7 1.45-.85Q47.85 7 53.2 6l10.6-2.25-1.8 3.4" fill="#7e6985"/><path d="m42.5 18.75-.7 4.65-4.9 3.25-.5-3.45-3.3 3.55q-2.4 3.7-2.4 6.6l-5.5 3.3-.05-.45 5.8-8.5 3.15-6.25-.45 2.9q2.5-2.05 7.25-4.05h-3.3l4.9-1.55M72.85 49.3l-.6.45-.15.15-1.05 1.4q-.85-1.2-2.35-1.5l-.2-.05-2.2.05 5.05-3.75q3.05-3 2.4-4.6l.85 1.9-1.75 5.95M61.5 39.75q1.2-1.45 3.75-2.15l.25-.2.15-.25.25-1.55q6.05.15 8.5 2.5l-5.5 1.65q-3.3-.45-7.4 0m-41.25-1.3.2-.3q2.05-2.85 4.2-7.6l-.05 2.65-5.8 8.45 1.45-3.2" fill="#a48dac"/><path d="m93.85 20.5.85 1.2 1.95 9.85.05.15 3.35 6.15-1.5 9.65-4.35 2.35-.25.25-5 9.25-3.3 1.15-.15.1-4.65 3.65 1.35-2.35 6.5-3.6 3.65-7.15 1.85-1.95 3.4-2.05 1.2-9.65-2.25-2.85-1.6-6.35-1.1-7.8m-37.2 2.7 1.2-1.65q-2.2 10.6-1.4 17.15L56 39.9l-.5-7 1.15-9.7m4.95 26.15q3.5 2 6.95 1.55 2.7.8 2.3 5.8L68.9 52l-5.6-1.15-1.7-1.5" fill="#aedceb"/><path d="M31.7 43.9q3.15 4.05.4 8.65-2.95 3.4-6.4 2.35-2.3-.6-3.4-2.2l-1.15.5q-3.2-.05-2.9-.65l3-.1q1.25-1.3 2.4-3.5 3.85-4.05 6.9-5.3L33 42.7l-1.3 1.2m-7.5 9.85.1.05q1 .5 2.15.65 4.2-.25 5.7-3.35.45-1.65.35-3.1v-.1q-.05-2.25-1.3-3.95-1.55.95-3.2 2.15l-.1.1-1 .75-3.15 2.55-.55 1.25-.35.7-.05.15-.35.7 1.75 1.45" fill="#764237"/><path d="m22.8 51.6.05-.15q.85 1.5 2.55 2.25 3.1.6 4.15-1.7.75-1.6.2-3.15l-.7-1.3-.15-.25-1-1.1.1-.1q1.15.45 1.75 1.2 1.3 1.55.45 4.5-.4 2.15-3.3 2.35-1.6.1-2.7-.6l-.05-.1q-.95-.65-1.35-1.85m.4-.85.55-1.25 3.15-2.55q.7-.05 1.15.75l-.45.55V49q-1.85 1-1.75 3.15l-.3-.1-.5.2-.05.15q-1.35-.6-1.8-1.65" fill="#661d09"/><path d="M32.5 47.9v.1q.1 1.45-.35 3.1-1.5 3.1-5.7 3.35-1.15-.15-2.15-.65l-.1-.05v-.2q1.1.7 2.7.6 2.9-.2 3.3-2.35.85-2.95-.45-4.5l2.75.6m-3.45-.35.7 1.3-.5.65-.7.1q-.8 0-.95-.6v-.75l.45-.55q.45-.35 1-.15M25 52.4l.05-.15.5-.2.3.1.15.1.25.35v.15l-.25.45-.45.25h-.15l-.35-.25-.2-.45q0-.2.15-.35" fill="#fff"/><path d="m24.2 53.75-1.75-1.45.35-.7q.4 1.2 1.35 1.85l.05.1v.2M28 46.1q1.65-1.2 3.2-2.15 1.25 1.7 1.3 3.95l-2.75-.6q-.6-.75-1.75-1.2" fill="#c7a0cd"/><path d="M27.6 49q.15.6.95.6-.05 2.15-2.3 3l-.25-.35-.15-.1Q25.75 50 27.6 49" fill="#982a03"/><path d="m28.55 49.6.7-.1.5-.65q.55 1.55-.2 3.15-1.05 2.3-4.15 1.7v-.25h.15l.45-.25.25-.45v-.15q2.25-.85 2.3-3" fill="#ff4c00"/><path d="m22.85 51.45.35-.7q.45 1.05 1.8 1.65-.15.15-.15.35l.2.45.35.25v.25q-1.7-.75-2.55-2.25m4.05-4.5 1-.75 1 1.1.15.25q-.55-.2-1 .15-.45-.8-1.15-.75" fill="#b53405"/></g><g id="I" fill-rule="evenodd"><path d="m75.95 42.95-12.2 2.95-3.5-1.7 8.35-13.6h-6.7l2.25-2.25 1.5-7.45-3.1 2.85 1.2-2.35-5.45 2.1 1-2.25-3.25 2.5 5.1-6.6 7.25-5.85L71.8 4q0 8.35-2.7 12.3l.5 7.6q3.4.65 5.85-6.45 1.4 9.05-1.25 11.8l-4.45 9.3 4.2-6.2h1.65q-.75 3.55-1.75 6.15l3.35-2.05 2.1-4.25h-.85l1.1-5.1q-1.1 4.35-2.2 5.25l1.25.5-2.25 3.45v-4.95H74.6l2.75-7.6-.75-8.35.75-.7 1.1 3.45q.45 6.2-.6 8.6 1.65-1.05 1.7.35l1.25 3.85-4.85 12M72.7 10.8l2.25-1 1.15 4.4-1.4-.9-3.2 1 1.2-3.5m-1.35 21.3q.3-3.95-.75-5.6L67 27.75l.9-3.85q.45-4.85-.5-6.85-5.7 1.6-7.1 2.75l6.6-2q1.05 5.6-.75 10.3l-1.9 1.5 5.85-2.25q1.75 2.9.1 9.2.75-1.4 1.15-4.45" fill="#f4d8f7"/><path d="m37.25 33.1-1.35-.65 1.5-8.2q4.15-7.7 7.95-10.8v4.6l3.1-4 7.6-4.6.65 2.25 2.95-2.75Q66.8 2.75 72.6 0q1.2 4 .5 9.1l4-1.75.5 5.35h1.35l.5 3.85q1.5 2.9 0 8.8 2.7.15 2.1 6.85l-3.4 10.2-2.2.55 4.85-12-1.25-3.85q-.05-1.4-1.7-.35 1.05-2.4.6-8.6l-1.1-3.45-.75.7.75 8.35-2.75 7.6h1.75v4.95l2.25-3.45-1.25-.5q1.1-.9 2.2-5.25l-1.1 5.1h.85l-2.1 4.25-3.35 2.05q1-2.6 1.75-6.15h-1.65l-4.2 6.2 4.45-9.3q2.65-2.75 1.25-11.8l-.6-3.4-5.75 2.25q2.7-3.95 2.7-12.3l-.05-2.15-5.85 3.6L56 13.5l-.45-2.45-4.6 2.5-6.1 5.55-.5-2.7-5.6 7.5-1.5 9.2M72.7 10.8l-1.2 3.5 3.2-1 1.4.9-1.15-4.4-2.25 1m-1.35 21.3q-.4 3.05-1.15 4.45 1.65-6.3-.1-9.2l-5.85 2.25 1.9-1.5q1.8-4.7.75-10.3l-6.6 2q1.4-1.15 7.1-2.75.95 2 .5 6.85l-.9 3.85 3.6-1.25q1.05 1.65.75 5.6" fill="#7e6985"/><path d="m60.25 44.2-23-11.1 1.5-9.2 5.6-7.5.5 2.7 6.1-5.55 4.6-2.5.45 2.45 9.9-8.05 5.85-3.6L71.8 4l-3.4 7.3-7.25 5.85-5.1 6.6 3.25-2.5-1 2.25 5.45-2.1-1.2 2.35 3.1-2.85-1.5 7.45-2.25 2.25h6.7l-8.35 13.6m8.85-27.9 5.75-2.25.6 3.4Q73 24.55 69.6 23.9l-.5-7.6" fill="#fff"/><path d="m48.7 68.15-1.4 2.7q-1.2.4-1.5-.55L44.7 74q-.25 1.25-3 3.95l-1.3.3q-1 1.75-2.75 1.8l-.3 3.1-3.95 4.45q-4.05-.15-7.05-1.25l-.1-.05q-1.05.4-2.05.85l-1-1.7-1.9-1.75-.25.1q-2.3.35-4.95 0l-1.5-.6-.45-2.05-4.7.5-2.95-4.2 1.25-2.2-2.05.15-3.9-.75Q.75 73.75.35 72.6H1.9l.8.85 2.95.2 1.6-.05 1.45-.15q1.75-3.15 2.4-5.2l1.05-2.4 6.05-1.4 1.15-1.65.45-.7-.3 1.3-.45 1.7-3.55 6.05-.2 1.25-.3 2.25-.45 2.7q.1 1.35.35 2.3l.25.85.4 1.4.35 1.25h5.9l2.05 1.95 1.75-.9v-9.45q1.65-3.45 3.1-4.3l-2.5 4.2v9.95l.2.1q2.5 1.65 5.85 1.5l.8-.05 1.45-1.6.95-1 .9-.95v-4.3l3.2-3.2.6-.6-1.3 2.95-1.2 1.35.45.25 1.8-1.35.85-2.05v1.7l.7-.55L43 75.3l2.25-5.55.3-.75.55.65.15.15 1-2.05.25-.4 1.2.8m-48.1-.7.35-1.5 2.6-5.75 2.6-3.1 6.35-2.75q-.4-.8.5-1.6l3.3-1 .3-1.35.6-.15-.65 2.3q-2.95.65-3.15 1.5h2.1L8 57.7l-1.9 1.4q-1.55 1.55-3.65 6.55L1.8 67.1l-1.2.35m30.1 8.6-.35.1q-.35 0-.7-.35l-.5-.6q1.45.6 1.55.85m-10.95-.9L19.2 75l.4-.2.75-.1.9.1v.1l-.75.15-.75.1m-1.5-1.95.7-.25.65-.05 1.4.3q.7.25.9.65l-1.45-.4-2.2-.25M31.5 83.25l.1-.35q-2.95-.1-4.5-.75l-.25 1.65.35.55q.3.5 1.7.85l2.25-.25.35-1.7m-4.6-1.7q1.9.75 4.85 1 .65 1.25-.3 2.8l-2.35.3-2.7-1.3.5-2.8M10.4 63.1Q9 61.25 6 60.85l2.8.25q1.3.75 1.6 2m3.3 16-.2-.75.7-8 3.5-5.05-4.6 1.6-1.15 2.8-1.25 2.9-1.8 2.55-.75.05-.85 2.25 1.2 1.65 1.25 1.75 1.2-.05 1.95-.05.95-.9-.15-.75" fill="#764237"/><path d="M52.9 61.1q.5 2.85-.5 4.9-1.7 2.15-3.7 2.15l-1.2-.8-.25.4-.3-.75-1.1-2.65-3.7 4.8-.2.1q-3.5.55-7.3-1.35-2.15-3.2-6.9-6.9-4.45-3.25-8.4-4.55l-1.25-.3-.15-.05-1.7-.3q-1.2.5-.3-1.3l.6-1.95.65-2.3 1.9-.45-.15 1.45-.4 2.6h1.8l5.6 1.9 5.5 4 1.9 1.4 3.7 4.55 4.15.3 3.35-3.95q-2.6-4.05-9-8.6l-5.15-2.7-2.7-.8q-2.6-.7-6.15.45l-.9-1-.15-.2q-.85-5.5 2.2-7.35l5.8-.8 1 .2q5.1 1.2 9.5 3.05l1.6.7 2.35 1.15 1 .95.15.1q3.2 3.1 6.3 7.2l1.85 4.95.4 1.15.25.6M24.2 87.15q-6.7.85-9.45-3.25l-.15-.7 1.5.6.65.25.35.3.2.15q1.8 1.25 5.9.95l1 1.7M.35 72.6q-.65-1.7 0-4.05l.25-1.1 1.2-.35q2.45.05 4.25 1.15l.3.25v1.95q-.2 2-.8 2.4l-2.4-.25H.35M44 48.15l-3.7-2.2-1.8-.95q-5.85-2.9-11.05-2.5-2.85-.35-4.35.95-1.7 1.5-1.8 4.95l.65 1.25q2.15-1.15 6.95 0l5.6 2.4q3.55 2.3 7.3 5.6l2.45 2.7 3.3 5.95 1.85-.3q2.65-1.05 2.6-5.1-.55-2.95-2.05-5.75l-1.15-1.9-1.2-1.65q-1.7-2-3.6-3.45M33.1 64.7l.4.35 1.6 2.45q3.35 1.15 6.45 1.1l3.85-4.9-.4-.75-3.85 3.6-5-.5-.85-1.65-1.8-2.1q-2.1-2.15-5.6-4.5-3.2-2.55-8.6-3.65-1.3.5-1.3-.3l.3-2.4-.95.15-1.05 3.3 4.85 1.4 7.15 3.85 2.4 2.25 2.4 2.3M4.75 68l-2.8-.5q-1.15 3.25-.4 4.35l3.8.3.45-.75q.3-.95.25-2.6-.3-.5-1.3-.8" fill="#524866"/><path d="m62.7 37.6-3.8 1.45q-2.7 3.65-4.15 8.55l-.8 4.5 7.45-.35-7.85 7.6.1-1q.55-7.35-4.2-11.45-5.1-5.65-13.1-7.7l5.9 1.25 3.25 1.05q3.7 1.4 5.65 3.6 4.7-5 8.55-13.45 2 2.45 3 5.95m-18.6 9.6 3.2 2.05 1.55-1.9q1.85 2.15 3.3 5l.1 7-1.85-4.95q-3.1-4.1-6.3-7.2M33.35 61.15l4.85-3.7-10.5-7.5 2.7.8 5.15 2.7q6.4 4.55 9 8.6L41.2 66l-4.15-.3-3.7-4.55" fill="#8c3f09"/><path d="M46.25 26.75v4.95l-4 8.75-5.9-1.25-5.3-1 3.75-9.7q5.1-2.1 11.45-1.75M45.5 41.5q5.85-4.55 10.15-13.15 2.6 1.55 4.05 3.3-3.85 8.45-8.55 13.45-1.95-2.2-5.65-3.6m-2.45 1.3 1.55 1q2.35 1.4 4.25 3.55l-1.55 1.9-3.2-2.05-.15-.1-1-.95L40.6 45l2.45-2.2M29.5 41.25l1.2-2.45q5.2.3 10.2 2.8L39 44.3q-4.4-1.85-9.5-3.05m1.95 18.5-1.25-1.8-3.4-3.05-.05-.05 1.7-3.15-6.25 1.55-2.7-.4-.95 1 .4-2.6 2.6-.85q3.55-1.15 6.15-.45l10.5 7.5-4.85 3.7-1.9-1.4" fill="#de7d0b"/><path d="m42.25 40.45 4-8.75v-4.95q4.35.2 9.4 1.6-4.3 8.6-10.15 13.15l-3.25-1.05m.8 2.35L40.6 45l-1.6-.7 1.9-2.7 2.15 1.2m-24.5 11.05.95-1 2.7.4 6.25-1.55-1.7 3.15.05.05 3.4 3.05 1.25 1.8-5.5-4-5.6-1.9h-1.8" fill="#ffa02d"/><path d="m19.1 49.8 1.55-.4.9 1-2.6.85.15-1.45" fill="#652f09"/><path d="M23.1 43.45q1.5-1.3 4.35-.95 5.2-.4 11.05 2.5l1.8.95 3.7 2.2q2.15 4.95-2.45 6.85-4.05-3.65-8.9-5.35-5.35-1.45-9.55-1.35H23q-1.05-2.3.1-4.85m7.6 18.95-2.4-2.25-7.15-3.85-4.85-1.4 1.05-3.3.95-.15-.3 2.4q0 .8 1.3.3 5.4 1.1 8.6 3.65 3.5 2.35 5.6 4.5l-2.8.1M17.3 84.5l-.2-.15-.35-.3-.65-.25q2.65.35 4.95 0l-3.75.7m9.9-.15-.35-.55.25-1.65q1.55.65 4.5.75l-.1.35-4.05-.45-.25 1.55M4.75 68H2.5l-.25 2.85 3.55.55-.45.75-3.8-.3q-.75-1.1.4-4.35l2.8.5" fill="#fff"/><path d="M23.1 43.45Q21.95 46 23 48.3h.1q4.2-.1 9.55 1.35 4.85 1.7 8.9 5.35l.35.3 3.1 3.3q2.55-1.55 3.8-5.35l1.15 1.9 1.4 5.05q-.25 3.95-1.95 5.8l-1.85.3-3.3-5.95-2.45-2.7q-3.75-3.3-7.3-5.6l-5.6-2.4q-4.8-1.15-6.95 0l-.65-1.25q.1-3.45 1.8-4.95M35.3 64.4l.85 1.65 5 .5 3.85-3.6.4.75-3.85 4.9q-3.1.05-6.45-1.1l-1.6-2.45-.4-.35 2.2-.3M23.2 85.45q-4.1.3-5.9-.95l3.75-.7.25-.1 1.9 1.75m8.3-2.2-.35 1.7-2.25.25q-1.4-.35-1.7-.85l.25-1.55 4.05.45M5.8 71.4l-3.55-.55L2.5 68h2.25q1 .3 1.3.8.05 1.65-.25 2.6" fill="#b4a7d2"/><path d="M41.55 55q4.6-1.9 2.45-6.85 1.9 1.45 3.6 3.45l1.2 1.65q-1.25 3.8-3.8 5.35l-3.1-3.3-.35-.3m-6.25 9.4-2.2.3-2.4-2.3 2.8-.1 1.8 2.1" fill="#6b6086"/><path d="m16.55 52.55-.6 1.95q-.9 1.8.3 1.3l1.7.3q-.05 2.2-4.6 5.35L6.1 59.1 8 57.7l7.5-3.65h-2.1q.2-.85 3.15-1.5M19.5 63.4l.85-.6q5.7-2.6 6.7 3.9.85 2.75-4.05 5.35l-1.45-.6-6.05-.3 3.55-6.05.45-1.7M32 69.3q1.8.5 3.45 3.55.65 2.4-2.05 2.95-3.25-.05-5-2.5l.05-1.1q1.6-2.5 3.55-2.9M2.45 65.65q2.3.1 3.35 1.4l.25 1.2q-1.8-1.1-4.25-1.15l.65-1.45" fill="#eec383"/><path d="m6.1 59.1 7.25 2.35q4.55-3.15 4.6-5.35l.15.05 1.25.3 8.9 6.75 6.05 6.3 3.45 4.35-3.6 3.6-1.85.6 1.05.9q.35 4.45-1.1 7.25-3.35.15-5.85-1.5l-.2-.1v-9.95l2.5-4.2q1.6-1.6 1.5-2.4l-6.65 5.4q-3.7-1.4-8.25-1.05l.2-1.25 6.05.3 1.45.6q4.9-2.6 4.05-5.35-1-6.5-6.7-3.9l-.85.6.3-1.3-.45.7.15-2.15-1.45 1.9q-2.1-.15-6.65 1.7-2.95 3.85-3.9 8.2l-1.85 1.2-2.95-.2-.8-.85h1.25l2.4.25q.6-.4.8-2.4V68.5l-.3-.25-.25-1.2q-1.05-1.3-3.35-1.4 2.1-5 3.65-6.55M32 69.3q-1.95.4-3.55 2.9l-.05 1.1q1.75 2.45 5 2.5 2.7-.55 2.05-2.95Q33.8 69.8 32 69.3m-3.2 5.6q0 1 .6 1.35l1.35.3 1.05-.1-1.25-.85-1.65-.95-.1.25m-9.6.1.55.15q1.35.35 2.3 1.05v4.05q-3.6 1.15-7.15-.6-.25-.95-.35-2.3l.45-2.7 4.1.35h.1m7.7 6.55-.5 2.8 2.7 1.3 2.35-.3q.95-1.55.3-2.8-2.95-.25-4.85-1M6 60.85q-.5.15-.75.6 3.4 1.15 5.15 2.8V63.1q-.3-1.25-1.6-2L6 60.85" fill="#d39882"/><path d="M19.35 56.45q3.95 1.3 8.4 4.55 4.75 3.7 6.9 6.9 3.8 1.9 7.3 1.35l.2-.1.9-.55q.05 4.15-1.2 7.2l-.4 1-.7.55v-1.7q.55-3.2-.45-4.8l-.95 3.5-2.25 2.35-1.8 1.45-.8 6.4-1.45 1.6-.8.05q1.45-2.8 1.1-7.25l-1.05-.9 1.85-.6 3.6-3.6-3.45-4.35-6.05-6.3-8.9-6.75m-13.7 17.2 1.85-1.2q.95-4.35 3.9-8.2 4.55-1.85 6.65-1.7l1.45-1.9-.15 2.15-1.15 1.65-6.05 1.4-1.05 2.4-2.5 4.65-1.35.7-1.6.05m9.65-1.25q4.55-.35 8.25 1.05l6.65-5.4q.1.8-1.5 2.4-1.45.85-3.1 4.3v.15l-1.95 7.55q-5.05.7-8.1-.55l-.4-1.4-.25-.85q3.55 1.75 7.15.6V76.2q-.95-.7-2.3-1.05l.75-.1.75-.15h.05l-.05-.1-.9-.1-.75.1-.4.2h-.1l-4.1-.35.3-2.25m15.4 3.65q-.1-.25-1.55-.85l.5.6q.35.35.7.35l.35-.1m-1.9-1.15.1-.25 1.65.95 1.25.85-1.05.1-1.35-.3q-.6-.35-.6-1.35m-10.55-1.7 2.2.25 1.45.4q-.2-.4-.9-.65l-1.4-.3-.65.05-.7.25M10.4 63.1v1.15q-1.75-1.65-5.15-2.8.25-.45.75-.6 3 .4 4.4 2.25m-1.9 16-1.2-1.65.85-2.25.75-.05 1.8-2.55-1.8 4.95-.4 1.55" fill="#b27660"/><path d="m42.15 69.15 3.7-4.8 1.1 2.65-.85 2.65-.55-.65-.3.75-3.4 6.05q1.25-3.05 1.2-7.2l-.9.55m-7.65 15.4.8-6.4 1.8-1.45 2.25-2.35.95-3.5q1 1.6.45 4.8l-.85 2.05-1.8 1.35-.45-.25 1.2-1.35 1.3-2.95-.6.6-3.5 2.85-.6 5.6-.95 1m-8.9-9.65v9.3l-1.75.9-2.05-1.95h-5.9l-.35-1.25q3.05 1.25 8.1.55l1.95-7.55m-14.9-2.3 1.25-2.9 1.15-2.8 4.6-1.6-3.5 5.05-.7 8 .2.75-2.75 1.7-1.2.05L8.5 79.1l.4-1.55 1.8-4.95" fill="#955849"/><path d="M78.05 51.45Q84 47.85 90 40.75l.85-13.65q.15-1.8 2.45-6.25 4.15-4 6.9-5.45l6.2-2.5.4.05q-4.85 2.05-10.95 6.5-3.1 2.2-4.45 9.35l-.65 12.75-6.7 6.4q-3.15 2.25-6 3.5m-28.1 3.7q1.5 2.8 2.05 5.75.05 4.05-2.6 5.1 1.7-1.85 1.95-5.8l-1.4-5.05m2.2-2.8.55 1.15q.7 4.65-.05 7l-.4-1.15-.1-7M46.95 67l.3.75-1 2.05-.15-.15.85-2.65M11.1 68.25q-.65 2.05-2.4 5.2l-1.45.15 1.35-.7 2.5-4.65m24.35 15.3.6-5.6 3.5-2.85-3.2 3.2v4.3l-.9.95m6-6.75.4-1 3.4-6.05L43 75.3l-1.55 1.5M13.7 79.1l.15.75-.95.9-1.95.05 2.75-1.7" fill="#aedceb"/><path d="m63.3 51.8-10.4 9.3-.25-.6q.75-2.35.05-7l-.55-1.15q-1.45-2.85-3.3-5-1.9-2.15-4.25-3.55l-1.55-1-2.15-1.2q-5-2.5-10.2-2.8l-1.2 2.45-1-.2 5.05-13.45q13.8-5.8 23.5.65 5.3 3.7 6.95 8.85l-1.3.5q-1-3.5-3-5.95-1.45-1.75-4.05-3.3-5.05-1.4-9.4-1.6-6.35-.35-11.45 1.75l-3.75 9.7 5.3 1q8 2.05 13.1 7.7 4.75 4.1 4.2 11.45l-.1 1 7.85-7.6 2.1-.15-.2.2" fill="#662e08"/><path d="m86.85 24.95 2.6.35-3.05-1-5.55 2 1.75-1.4 5.55-2.1 7.2-6.25 6.8-3.8 4.25.15-6.2 2.5q-2.75 1.45-6.9 5.45-2.3 4.45-2.45 6.25L90 40.75q-6 7.1-11.95 10.7L73.9 52.6q-2.55-2.15-9.5-2.1l-9.5.8.05-1.35q3.2-4.55 7.4-5.5l.75-3.55.35 5.7.25-2.3q6.55-.5 9.85 2.45V45.1l.3-4.9 1 6.45q5.35-.4 8.75-4.05l.2-7.65.3-.05 3.6 2.15-3.7-2.9-3.45.7.1-.65 3.65-1.35 2.55-7.9" fill="#3f2f42"/><path d="m64 37.1 6.6-1.15 4.35 2.5q3.7-1.4 4.35-5.85V26l6-6.1.45-.25q7.65-6.45 15.1-8.65 7.4-.35 12.3 2-5.75 1.15-14.5 6.1l-3.95 3.6q-1.95 4.75-2.25 14.8V41l-3.2 4.3q-7.45 7.3-14.9 8.55-4.25-2.5-11.05-2.05l.2-.2-2.1.15-7.45.35.8-4.5q1.45-4.9 4.15-8.55l3.8-1.45 1.3-.5m18.6-12.2-1.75 1.4 5.55-2 3.05 1-2.6-.35-.7-.05-4.6 1.85-1.05.4.3 3.8-.15 2.6v.65l-.1.65 3.45-.7 3.7 2.9-3.6-2.15-.3.05-1.8.25-1.8.25q-.75 2.5-4 4.05l-1.9-.05-.55-.1q-1.75-.5-3.2-1.85l-4.65.3-2.55.15-4.05 1.95-.2.1q-3.55 5.3-4.15 9.95l-.05 1.35 9.5-.8q6.95-.05 9.5 2.1l4.15-1.15q2.85-1.25 6-3.5l6.7-6.4.65-12.75q1.35-7.15 4.45-9.35 6.1-4.45 10.95-6.5l-.4-.05-4.25-.15-1.6-.05q-1.75.8-3.45 1.65l-2.85 1.3q-6.55 4.45-10.8 8.45l-.85.8M63.7 44.3l-.25 2.3-.35-5.7-.05-.8q.2-.1.45-.25l3.65-1.8-.1.3-3.6 2.2.05.3.2 3.45" fill="#2e2431"/><path d="m74.85 46.65-1-6.45-.3 4.9-1.65-1.15-8.4-3.1-.05-.3 3.6-2.2.1-.3-3.65 1.8 2.4-2.05 4.65-.3q1.45 1.35 3.2 1.85l.55.1 1.9.05q3.25-1.55 4-4.05l1.8-.25.75.55q-1.1 1-1.05 6.4-1.65 2.15-6.85 4.5m-12.5-2.2q-4.2.95-7.4 5.5.6-4.65 4.15-9.95l.2-.1 2.65.2.4 4.35m21.1-20.35q4.25-4 10.8-8.45l2.85-1.3-9.2 8.05-4.45 1.7m-1.9 2.65 3.05-.45-.95 5.7-3 1.55.15-2.6-.3-3.8 1.05-.4" fill="#5a475d"/><path d="m86.85 24.95-2.55 7.9-3.65 1.35v-.65l3-1.55.95-5.7-3.05.45 4.6-1.85.7.05m-3.05 10-.2 7.65q-3.4 3.65-8.75 4.05 5.2-2.35 6.85-4.5-.05-5.4 1.05-6.4L82 35.2l1.8-.25M73.55 45.1v1.65q-3.3-2.95-9.85-2.45l-.2-3.45 8.4 3.1 1.65 1.15M63.1 40.9l-.75 3.55-.4-4.35-2.65-.2 4.05-1.95 2.55-.15-2.4 2.05q-.25.15-.45.25l.05.8m39.05-28.15-6.8 3.8-7.2 6.25-5.55 2.1.85-.8 4.45-1.7 9.2-8.05q1.7-.85 3.45-1.65l1.6.05" fill="#9b76a2"/></g><use ffdec:characterId="1" height="53.4" width="62.9" xlink:href="#w" id="b"/><use ffdec:characterId="3" height="150.15" width="168.5" xlink:href="#x" id="c"/><use ffdec:characterId="5" height="79.9" width="62.4" xlink:href="#y" id="d"/><use ffdec:characterId="8" height="63" width="43.5" xlink:href="#z" id="f"/><use ffdec:characterId="10" height="30.6" width="31.95" xlink:href="#A" id="o"/><use ffdec:characterId="12" height="40.6" width="29.65" xlink:href="#B" id="p"/><use ffdec:characterId="15" height="56.2" width="33.8" xlink:href="#C" id="h"/><use ffdec:characterId="17" height="26.05" width="28.05" xlink:href="#D" id="q"/><use ffdec:characterId="22" height="58.05" width="58.85" xlink:href="#E" id="t"/><use ffdec:characterId="25" height="47.45" width="50.6" xlink:href="#F" id="k"/><use ffdec:characterId="27" height="114.45" width="107.15" xlink:href="#G" id="l"/><use ffdec:characterId="29" height="81.05" width="101.2" xlink:href="#H" id="m"/><use ffdec:characterId="35" height="87.6" width="113.15" xlink:href="#I" id="n"/><radialGradient cx="0" cy="0" gradientTransform="translate(15.1 42.7) scale(.0066)" gradientUnits="userSpaceOnUse" id="u" r="819.2" spreadMethod="pad"><stop offset="0" stop-color="#70c920"/><stop offset="1" stop-color="#3c7708"/></radialGradient><radialGradient cx="0" cy="0" gradientTransform="translate(13.85 48.1) scale(.0416)" gradientUnits="userSpaceOnUse" id="v" r="819.2" spreadMethod="pad"><stop offset="0" stop-color="#edc183"/><stop offset="1" stop-color="#d39882"/></radialGradient><path d="M27.75 0q0 2-8.15 3.4Q11.5 4.9 0 4.9q-11.5 0-19.65-1.5-8.1-1.4-8.1-3.4 0-2.05 8.1-3.5Q-11.5-4.9 0-4.9q11.5 0 19.6 1.4 8.15 1.45 8.15 3.5" fill-opacity=".349" fill-rule="evenodd" transform="translate(27.75 4.9)" id="e"/></defs></svg>