<svg xmlns:ffdec="https://www.free-decompiler.com/flash" xmlns:xlink="http://www.w3.org/1999/xlink" ffdec:objectType="frame" height="90" width="90" xmlns="http://www.w3.org/2000/svg"><use ffdec:characterId="44" height="218.95" transform="matrix(.3947 0 0 .3949 -5.92 1.56)" width="264.3" xlink:href="#a"/><defs><g id="a" transform="translate(15 -3.95)"><use ffdec:characterId="1" height="9" transform="matrix(2.5416 0 0 4.7884 27.023 179.787)" width="61.4" xlink:href="#b"/><use ffdec:characterId="8" height="120.65" transform="translate(71.088 23.836) scale(.8095)" width="144.55" xlink:href="#c"/><use ffdec:characterId="10" height="76.1" transform="translate(89.45 159.45) scale(.8095)" width="145.6" xlink:href="#d"/><use ffdec:characterId="12" height="42.3" transform="translate(35.9 162.35) scale(.8095)" width="92.7" xlink:href="#e"/><use ffdec:characterId="19" height="146.15" transform="translate(-15 58.362) scale(.8095)" width="186.5" xlink:href="#f"/><use ffdec:characterId="21" height="71.05" transform="translate(24.85 114.05) scale(.8095)" width="192.95" xlink:href="#g"/><use ffdec:characterId="23" height="50.05" transform="translate(54.8 68.15) scale(.8095)" width="43.65" xlink:href="#h"/><use ffdec:characterId="25" height="134.05" transform="translate(89.85 108) scale(.8095)" width="87.95" xlink:href="#i"/><use ffdec:characterId="27" height="98.25" transform="translate(47.2 114.8) scale(.8095)" width="60" xlink:href="#j"/><use ffdec:characterId="29" height="103.15" transform="translate(24.2 72.7) scale(.8095)" width="194.6" xlink:href="#k"/><use ffdec:characterId="31" height="34.35" transform="translate(43.55 101.85) scale(.8095)" width="40.55" xlink:href="#l"/><use ffdec:characterId="33" height="75.65" transform="translate(99.45 54.55) scale(.8095)" width="76.15" xlink:href="#m"/><use ffdec:characterId="39" height="94.5" transform="translate(62.3 3.95) scale(.8095)" width="60.6" xlink:href="#n"/><use ffdec:characterId="41" height="194.6" transform="translate(-3.1 19.1) scale(.8095)" width="309.1" xlink:href="#o"/><use ffdec:characterId="43" height="33.95" transform="translate(128.6 80.55) scale(.8095)" width="35.35" xlink:href="#p"/></g><g id="q" fill-rule="evenodd"><path d="M61.45 18.3q-4-3.65-8.9-5.25 6.85 4.25 12.1 10.5 10.4 18.85 30.3 5.05-.15 1.6-.8 3.25-8.35 9.25-22.85 4.2-10.1-5.4-18.35-17.3Q43.4 4.8 29.7 5.5q.6-1.65-9.5-4.85l2 .1 1.1.05q23.05 1.4 32.05 12.65 8.45 6.45 20.2-1.6L74 15.5q-6.1 6-12.55 2.8" fill="#fbf4eb"/><path d="M94.15 31.85q.65-1.65.8-3.25-19.9 13.8-30.3-5.05-5.25-6.25-12.1-10.5 4.9 1.6 8.9 5.25 2.3 2.05 4.3 4.8 5.4-2.25 8.25-7.6l1.55-3.65q-11.75 8.05-20.2 1.6Q46.35 2.2 23.3.8q8.05.2 8.4-.65l.5-.05q2.05-.2 4.05-.05 11.25.85 21.2 12.6Q69.2 19 78.2 5.45q.25 13.45-10.1 19.4 10.7 15.2 28.7 0 .85 8.05-4.25 13.55 27.65-16.4 49.7 16.25l-23.95-10.1.5 2.45h-8.45q15.05 12.3 8.25 28.6 1.8 26.9-10.65 40.4l-1.85-14.1q-5.9 12.4-17.8 13.85 4.4-7.7 4.25-19.95-35.8 4.85-46.5-1.85 10.25 1.85 21.8 1.95l21.85-1.3 4.95-.65.1 4.55q-.15 9.1-3 14.85 6.9-3.45 11.7-10.15l3.45-5.8 1.95 13.4.15.95q9.3-14.7 7.7-34.8-7.15-26.5-40.35-31.6l7.65.8q19.15 3.35 29.9 20.05 1.95 3 3.6 6.5 3.5-11.75-6.6-21.8-2.3-2.3-5.35-4.5l9.05-1.35-2.65-2.4 1.05.05q11 .4 22.85 7.15-3.4-4.85-7.4-7.95-9.2-7.2-21.55-5.35-22.45 9.45-34 2.15Q79.25 41 88.05 40q4.55-4.05 6.1-8.15" fill="#725049"/><path d="M61.45 18.3Q67.9 21.5 74 15.5q-2.85 5.35-8.25 7.6-2-2.75-4.3-4.8M29.7 5.5q13.7-.7 23.25 13.25 8.25 11.9 18.35 17.3 14.5 5.05 22.85-4.2-1.55 4.1-6.1 8.15-8.8 1-15.15-1.3l-8.65-2.95 5.2 5.6-13.3-6.9-7.85-3.65q9 6.45 8.65 17.2l16.7 7.25-15.25-3.7q-10.2-18-31.45-30.05 9.65-.6 18.85 3.1-5.3-6.2-13.6-8.75 9.85.35 19.7 8.75Q45.35 9.75 29 7.35l.7-1.85m98.75 36.4q4 3.1 7.4 7.95Q124 43.1 113 42.7l15.45-.8m-16.5.75 2.65 2.4-9.05 1.35q3.05 2.2 5.35 4.5h-5.6q7.95 8.15 8.6 15.3Q103.15 49.5 84 46.15l27.95-3.5m-3.1 68.15-1.95-13.4-3.45 5.8-9.3 7.35q3.75-7.95 4.85-19.6 2.25-5.4 2.25-10.65-.05-3.4-1.05-6.75-1.3-4.45-4.35-8.8l-9.7-9.2q27.7 9.05 26.2 38-2.5-9-7.95-16.7 8.45 18.1 4.45 33.95" fill="#ceb88f"/><path d="M72.9 38.7q11.55 7.3 34-2.15 12.35-1.85 21.55 5.35l-15.45.8-1.05-.05L84 46.15l-7.65-.8q33.2 5.1 40.35 31.6 1.6 20.1-7.7 34.8l-.15-.95q4-15.85-4.45-33.95 5.45 7.7 7.95 16.7 1.5-28.95-26.2-38l9.7 9.2q-21.6-1.4-37.45-13.2l15.25 3.7 9.05 2.15Q68.5 47.25 56.15 34.45l13.3 6.9-5.2-5.6 8.65 2.95m38 12.2q10.1 10.05 6.6 21.8-1.65-3.5-3.6-6.5-.65-7.15-8.6-15.3h5.6m-7.45 52.3q-4.8 6.7-11.7 10.15 2.85-5.75 3-14.85 2.65-3.8 4.25-7.55-1.1 11.65-4.85 19.6l9.3-7.35" fill="#efe2cd"/><path d="M20.2.65q10.1 3.2 9.5 4.85L29 7.35q-2.7 7.5-4.85 14.4l2.8-.25Q48.2 33.55 58.4 51.55q15.85 11.8 37.45 13.2 3.05 4.35 4.35 8.8L73.8 66.7l27.45 13.6q0 5.25-2.25 10.65-1.6 3.75-4.25 7.55l-.1-4.55-4.95.65q-22.15-8.1-40.85-25.35 4.65 18.55 19 26.65-11.55-.1-21.8-1.95-26.85 1.5-29.55-24.2-3.95-4.6-7.95-12Q0 41.85 0 30.5 0 16.75 6.75 8.4q5.2-6.5 13.4-8l.05.25" fill="#947d60"/><path d="M101.25 80.3 73.8 66.7l26.4 6.85q1 3.35 1.05 6.75" fill="#baa27c"/><path d="M73.65 55.25 56.95 48q.35-10.75-8.65-17.2l7.85 3.65Q68.5 47.25 82.7 57.4l-9.05-2.15" fill="#bca47d"/><path d="m26.95 21.5-2.8.25q2.15-6.9 4.85-14.4 16.35 2.4 22.9 17.25-9.85-8.4-19.7-8.75 8.3 2.55 13.6 8.75-9.2-3.7-18.85-3.1" fill="#f0e3cd"/><path d="m89.7 94.6-21.85 1.3q-14.35-8.1-19-26.65Q67.55 86.5 89.7 94.6" fill="#bda57d"/></g><g id="r" fill-rule="evenodd"><path d="m68.15 47.85-38.8-28.2 9.35 26.8-36.6-13.2 1.55 2.35 1.55 2.35L24.45 48.8l5.4 6.7 15.95 9.85h2.45l1.25 1.3 8.1 2.55h7.55l1.15 1.4L81 72.9l1.15-1.8 11.3-.6 8.05-5.15L109.7 44v-5.95l11.6-24.35-7.9 5.95-12 15.75-2-5.85 5.3-24.65-1.3 2.4-9.2 17.15-.35.65-4.15 2.65Q87.5 36 83.5 42.7q-1.85 3.1-4.1 5.9l-11.25-.75M0 31.7l37.4 13.6-9.35-27.45 40.2 28.9 11.05.85q6.1-8.4 9.55-19.95l3.6-2.55L106.5 0l-6.4 29.35 1.3 4.05 11.5-14.5 10.8-8.25-12.95 27.85.85 4.25-1.25 2.75 6.15-1.5 13.6 7.45-2.55 3.85-7.85.85-1.95 4L108 62.7l-1.3 1.95-5.3 1.7-8.3 5.5Q84.95 71 81 73.35L68.25 72.3l-11.5 3.8-3.85-2.75h-5.1l-3.15-3.2 1.05-3.8-1.9-1.3-1.95 3.4-11.25.85-4.9-3.6-6.8-.85 2.75-7h5.75l1.3-2.15-4.7-5.75L4.9 38.5 0 31.7m42.35 33.45.5-1.05-13.4-7.45-1.3 1.6-6.05.75-1.25 3.05-.9 2.15 7.05.55 2.05 1.85 2.1 1.85 10.1-.85 1.1-2.45m6.95 2.55-1.15-1.35-1.6.2-.85 3.6 2.55 2.45h5.3l.55.45 2.55 2.1 10-3.6-1.95-1.6h-8.15L49.3 67.7m96.3-60.9-10.2 15.3-7 2.75.85-6.15 10.4-10 5.95-1.9m-4.55 2.4-1.15.45-9.5 9.5-.7 4.15.95-.45 3.7-1.7L143.9 8.1l-2.85 1.1M106.9 54.35l-.95 2.45-.45 1.1-1.55 4-1.25 3.25 3.7-1.35 1.15-2.25 7.95-2.05 1.55-.4 1.25-2.95.55-1.3 6.9-.55 2.85-2.95-2.25-1.15-10.05-5-6.3 1.15-2.2 5.7-.9 2.3" fill="#240b00"/><path d="M20.85 62.05 22.1 59l6.05-.75 1.3-1.6 13.4 7.45-.5 1.05-1.75.2-.1-1.45h-7.45l-2-1.85h-10.2m32.3 10.55h-4.9l-2.55-2.45.85-3.6 1.6-.2 1.15 1.35-1.15 2.55 5 2.35m42-12.6.7-1.55 7.45-8.5.45-4.15.65-1.2 1.7 4.6-8.15 14.1-5.35 4.3-1.85-.5 2-3.45h.55L95.15 60m8.25-52.7 1.3-2.4-5.3 24.65-1.7.85 2 6.05h-2.25l-13.7 18.2-4.35-6.05q2.25-2.8 4.1-5.9l6-8.3v4.7l5.75-8.9 1.15-1.8 3.85-11.55 3.15-9.55M92.7 50.4l2.05.8-2.05 3.25-2.55-.65 2.55-3.4m13.25 6.4.95-2.45 6.4-1.1 5 2.9-1.25 2.95-1.55.4 1-1.65-.9-.5-2.5-1.45-1.5-.85-5.65 1.75m1.85-4.75 2.2-5.7 6.3-1.15 10.05 5-1.05 2.85-7.65.85-3.9-3.2-5.95 1.35m12.95-3.25-2.4.65-1 2.3 1.8 1.1 5.85-1.4-4.25-2.65" fill="#552e08"/><path d="m55.5 48.25.25-.45 4.6 4.8v-2.95L57.1 45.7l-9.2-11.05L63 46.25l5.15 1.6 11.25.75 4.35 6.05 13.7-18.2h2.25l-2-6.05 1.7-.85 2 5.85 12-15.75 7.9-5.95-11.6 24.35V44l-8.2 21.35-8.05 5.15-11.3.6L81 72.9l-14.7-2.3-1.15-1.4-1.7-2.75v-3l2.45 3.2 2.15.95-5.15-7.9-2.6-4.05-4.8-7.4m-16.8-1.8v4.35h-3.75L17.2 42.2 3.65 35.6 2.1 33.25l36.6 13.2m9.55 18.9-.35-.75 6.1 2.25-1.3-2.95.6-2.35 3.05 6.05 1.8-.75 1.25 2.35h-1.8l-8.1-2.55-1.25-1.3m-7.65 0 1.75-.2-1.1 2.45-10.1.85-2.1-1.85 11.55-1.25M141.05 9.2l2.85-1.1-9.55 13.05-3.7 1.7 10.4-13.65M104.4 44.6l13.25-25.55q-1.2.7-2.45 1.35l-7.8 11.55L100.65 42l-.2-4.05-7.75 10.3v2.15l-2.55 3.4 2.55.65.7 1.45.35.75-.95 1.9-2.65 5.1h2.6l-2 3.45 1.85.5 5.35-4.3 8.15-14.1-1.7-4.6M94.2 24.45l-1.75 5.85-2.95 4.1-6 8.3q4-6.7 6.2-14.95l4.15-2.65.35-.65m24.1 31.7-5-2.9-6.4 1.1.9-2.3 5.95-1.35 3.9 3.2 7.65-.85 1.05-2.85 2.25 1.15-2.85 2.95-6.9.55-.55 1.3m-44.45 13.9 5.35.65-6.55-10.65-1.1 5 2.3 5" fill="#462a02"/><path d="M20.85 62.05h10.2l2 1.85h7.45l.1 1.45-11.55 1.25L27 64.75l-7.05-.55.9-2.15m32.3 10.55-5-2.35 1.15-2.55 7.25 2.25h2l-4.45 3.1-.55-.45h-.4m54.25-40.65 7.8-11.55q1.25-.65 2.45-1.35L104.4 44.6l-.65 1.2-.45 4.15-7.45 8.5-.7 1.55-2.35-1.45.95-1.9-.35-.75 7.8-5.6.4-4.15 9.8-18.5-4 4.3m-7.15-15.1-2.45 2.3-2.45 6.25-.1 4.8-5.75 8.9v-4.7l2.95-4.1 1.75-5.85 9.2-17.15-3.15 9.55M92.7 50.4v-2.15l7.75-10.3.2 4.05-5.9 9.2-2.05-.8m13.25 6.4 5.65-1.75 1.5.85-2.45.75-1.15 2.25h2.95q1.6-.75 3.15-1.55l.9.5-1 1.65-7.95 2.05-1.15 2.25-3.7 1.35 1.25-3.25 2.15-.35 2.1-1.9-2.7-1.75.45-1.1m14.8-8 4.25 2.65-5.85 1.4-1.8-1.1 1-2.3 2.4-.65" fill="#7f501a"/><path d="m33.6 25 15.7 19.85h2.15l4.05 3.4 4.8 7.4-1.1 4.2 4.25 5.1v1.5l1.7 2.75h-3L51.1 49.85h-1.45l1.55 4.05-6.25-3.2L33.6 25m22.15 22.8 1.35-2.1 3.25 3.95v2.95l-4.6-4.8M47.9 64.6l-3.7-8.05L45.35 53l4.9 2.6 3.05 5.95-.6 2.35 1.3 2.95-6.1-2.25m15.55-1.15-.95-1.9.4-1.85 5.15 7.9-2.15-.95-2.45-3.2m67.2-40.6-.95.45.7-4.15 9.5-9.5 1.15-.45-10.4 13.65" fill="#a57531"/><path d="m95.25 30.2.1-4.8 2.45-6.25 2.45-2.3L96.4 28.4l-1.15 1.8" fill="#ab7636"/><path d="M58.55 69.95h6.15l1.95 1.6-10 3.6-2.55-2.1 4.45-3.1m48.85-38 4-4.3-9.8 18.5-.4 4.15-7.8 5.6-.7-1.45 2.05-3.25 5.9-9.2 6.75-10.05m5.7 23.95 2.5 1.45q-1.55.8-3.15 1.55h-2.95l1.15-2.25 2.45-.75m-9.15 6 1.55-4 2.7 1.75-2.1 1.9-2.15.35" fill="#ac7535"/><path d="m47.9 34.65-15.15-11.6.85 1.95 11.35 25.7.65 1.5-.25.8-1.15 3.55 3.7 8.05.35.75H45.8L29.85 55.5l-5.4-6.7 5.9 3.35 5.9 3.35h-3.1l12.25 7.1-.65-2.25-1.4-4.85-2.85-2.9-2.05 1.2-2.85-3h3.1v-4.35l-9.35-26.8 38.8 28.2-5.15-1.6-15.1-11.6" fill="#583008"/><path d="m33.6 25-.85-1.95 15.15 11.6 9.2 11.05-1.35 2.1-.25.45-4.05-3.4H49.3L33.6 25m11.15 35.35.65 2.25-12.25-7.1h3.1l-5.9-3.35 7.7 2.4 6.7 5.8m.6-7.35.25-.8-.65-1.5 6.25 3.2-1.55-4.05h1.45L62.15 69.2H59.4l-1.25-2.35-1.8.75-3.05-6.05-3.05-5.95-4.9-2.6m18.1 11.95-4.25-5.1 1.1-4.2 2.6 4.05-.4 1.85.95 1.9v1.5m10.4 5.1-2.3-5 1.1-5L79.2 70.7l-5.35-.65" fill="#885529"/><path d="M92.8 58.55 95.15 60l-1.85 3.65h-3.15l2.65-5.1" fill="#a77933"/><path d="M24.45 48.8 5.2 37.95 3.65 35.6l13.55 6.6 7.25 6.6" fill="#895529"/><path d="m35.6 50.8 2.85 3 2.05-1.2 2.85 2.9 1.4 4.85-6.7-5.8-7.7-2.4-5.9-3.35-7.25-6.6 17.75 8.6h.65" fill="#a67632"/></g><g id="s" fill-rule="evenodd"><path d="m88.35 20.55-2.95 1.9 7.3 5.75-13.05-3.85q-3.6 1.9-7.15 3.85l-15.1 4.75Q39.95 41.3 23.7 40.4l-5.4 1.9-1.4-1.8-1.7.65-1.15-1.8 2.1-3.4-.85-.65-2.65 2.55-6.7 1.3-1.45-1.7H0l4.7-4.25 6.8-2.55v-3.4L6.2 21.7l-1.1-3.4 17 6.35 9.15-17L45.5 23.5 81.25 0l-6.2 11.6 6.8-1.3-5.6 7.9 4.55-.95 7.55 3.3M84.9 21.7l1.95-.95-6.35-2.65-5.45.95L69.9 23l-2.55 1.95-1.45 1.1-1.5 1.15-5.65 4.35 3.85-1.2 10-3 1.05-.6 2.4-1.35 1.75-.9 1.35-.75.4-.25 10.1 3.1-6.95-4.25H79l3.6-1.1 1.5.85.8-.4M77.3 5.35l1.5-3-12.45 8.2-20.5 13.5-1.7 3.1-1.25 2.35-1.2 2.2-18.95 6.6-3.95-1.4-1.9-.65-1.8 2.55.75 1.3.45-.1 1.45-.35.45.5.65.8 4.85-1.4q15.5.9 32.95-7.2l19.25-15.1 2.25-3.4 1.6-2.45-2.45.3-3.4.45 3.15-6.3.25-.5M35.75 32.8l5.3-1.95 1.9-3.45L32.9 10.7l-1.55-1.65-8.9 16.6-.4-.15L6.4 19.25 7 21.1l.25.8 5.3 5.35v3.9l4.15 4.35 2.05.15v.05l.6 1.1 3.2.85 3.55-1.3 9.65-3.55M17.25 15v.65l5.2 1.05-.2-.75-.25-.75-2.75-1.7-2 .85V15m-.95-.85 3.25-1.3 3.55 2.25v2.45l-6.6-1.5-.2-1.9m-2.2 21.2.6-.6-2.85-3.45-6.75 2.5-.95.85-2.1 1.95h3.3l1.25 1.9 5.75-1.3L13.5 36l.6-.65" fill="#290c00"/><path d="m69.9 23 5.15-3.95 5.45-.95 6.35 2.65-1.95.95-3.15-2.15L77.4 22l1.75 1.75-1.35.75-2.65-2.15-5.25.65m6.15 2.4-2.4 1.35-1-.95-1-.9-.5.1-5.25 1.05 1.45-1.1 6.1-1.25 2.6 1.7m-12.7-10.7 13.5-8.75-4.25 6.3-23.3 15.1-6.4 2.15 1.25-2.35 19.2-12.45m-44.6 20.95-2.05-.15-4.15-4.35v-3.9l3.85 3.25h-2.15L18 34.05l.5-.75 1.8-2.55-1.4 4.4-.15.5m-4.65-.3-4.1.05v-.75H4.15l.95-.85 6.75-2.5 2.85 3.45-.6.6" fill="#552e08"/><path d="m84.9 21.7-.8.4-1.5-.85-3.6 1.1h3.7l6.95 4.25-10.1-3.1-.4.25L77.4 22l4.35-2.45 3.15 2.15m-11.25 5.05-1.05.6-10 3 3-2.4-1.2-.75 1.5-1.15L71.15 25l-3.85 2.1 1.6.45 3.75-1.75 1 .95m-7.3-16.2 12.45-8.2-1.5 3-.45.6-13.5 8.75 3-4.15M18.2 40.15l-.45-.5-1.45.35 2.5-3.1 3.95 1.4-4.55 1.85m-14.05-5.5H10v.75l4.1-.05-.6.65-5.95.6h-5.5l2.1-1.95" fill="#7f501a"/><path d="m77.05 5.85-3.15 6.3 3.4-.45-7 4.9.95-1.8-18.2 11.3-3.75 1.25 23.3-15.1 4.25-6.3.2-.1" fill="#412700"/><path d="m66.35 10.55-3 4.15-19.2 12.45 1.7-3.1 20.5-13.5" fill="#4e2c06"/><path d="m79.75 11.4-1.6 2.45-11.25 8.6q-13.45 10.3-25.2 9.25l1.2-2.2 6.4-2.15 3.75-1.25 4.75-1.6 2.7.7 19.25-13.8" fill="#7f511a"/><path d="m62.6 30.35-3.85 1.2 5.65-4.35 1.2.75-3 2.4M77.3 11.7l2.45-.3L60.5 25.2l-2.7-.7 2.3-.8 10.2-7.1 7-4.9M71.15 25l.5-.1 1 .9-3.75 1.75-1.6-.45 3.85-2.1" fill="#ac7535"/><path d="m77.8 24.5-1.75.9-2.6-1.7-6.1 1.25L69.9 23l5.25-.65 2.65 2.15m.35-10.65-2.25 3.4-19.25 15.1q-17.45 8.1-32.95 7.2l-4.85 1.4-.65-.8 4.55-1.85 18.95-6.6q11.75 1.05 25.2-9.25l11.25-8.6m-46.8-4.8 1.55 1.65 10.05 16.7-1.9 3.45-5.3 1.95-.35-5.9-.6-10.3-3.6-5.05-.55-.7.7-1.8M7 21.1l-.6-1.85 15.65 6.25-3.9 2.25-2.45-2.45q-3.45-2.85-8.7-4.2m15.25-5.15.2.75-5.2-1.05V15l5 .95" fill="#462a02"/><path d="m53.05 26.1 18.2-11.3-.95 1.8-10.2 7.1-2.3.8-4.75 1.6" fill="#7c4d18"/><path d="m22.25 15.95-5-.95v-.65l2-.85L22 15.2l.25.75" fill="#824f25"/><path d="m31.2 11.55 3.6 5.05.6 10.3-4.75-3.95.55-11.4m-5.1 24.8-3.55 1.3 1.65-5.3.8-2.45-1.3-1.4 1-2.45 2.1 2.65 2-3.3-2.7 10.95m-13.55-9.1-5.3-5.35-.25-.8q5.25 1.35 8.7 4.2l-5.05-1.5 5.2 5.15h2.65v4.35l-.5.75-3.75-3.55h2.15l-3.85-3.25" fill="#885529"/><path d="m30.65 10.85.55.7-.55 11.4 4.75 3.95.35 5.9-9.65 3.55 2.7-10.95-2 3.3-2.1-2.65 5.95-15.2M23.7 28.5l1.3 1.4-.8 2.45-2.7 3.7-2.6-.9 1.4-4.4-1.8 2.55v-4.35h-2.65l-5.2-5.15 5.05 1.5 2.45 2.45.8 1.05 1.45-.6.5 2.15 2.8-1.85" fill="#a57531"/><path d="m31.35 9.05-.7 1.8-5.95 15.2-1 2.45-2.8 1.85-.5-2.15-1.45.6-.8-1.05 3.9-2.25.4.15 8.9-16.6" fill="#533006"/><path d="m22.55 37.65-3.2-.85-.6-1.1v-.05l.15-.5 2.6.9 2.7-3.7-1.65 5.3" fill="#422700"/><path d="M5.35 36.6h2.2l5.95-.6-1.15 1.2-5.75 1.3-1.25-1.9" fill="#462900"/><path d="m16.3 40-.45.1-.75-1.3 1.8-2.55 1.9.65-2.5 3.1" fill="#4b2b03"/></g><g id="t" fill-rule="evenodd"><path d="m177.95 10.6 1.45 1.1q-14.3 55.05-7.95 69.25l-1 9.75q-14.1 10-2.65 50.4l-15-4.45q-29.65-14.6-45.35-7.55-12.85-8.25-55.05-.8-2.3-10.2 0-19.1-12.95-26.85-37.6-35.35Q30.35 55.8 24.55 51.3 31.4 42 31.7 35.05L0 9.25l37.8 7.3q26 17.75 42.65 15.05 19.7-9.9 27.85-21.55L110.5 9q-9.75 15.8-30.25 24.6l-1.3.15-.55.05q-13.2.95-26.4-5.9-7.4-3.85-14.85-10.15L6.3 12.9q8.95 5.4 16.9 11.7l4.85 4.1 6.25 5.75q-.65 4.35-2.5 8.75-1.75 4-4.5 8 1.4 1.55.35 5.25-1.6 5.6-8.75 16.1l-.65.9Q21 74.6 23.6 75.9q8.1 4.1 14.55 9.85 10.55 9.55 16.5 23.65-3.15 8-1.45 16.25L63 124q12.4-1.8 22.3-1.35l9.35 1q6.95 1.25 12.3 3.9l.3.15q16.1-6.35 41.65 5.7l3.7 1.8 4.6 1 7.55 1.65q-8.4-37.8 4.5-48.75l.25-2.25.75-6.1q-1.9-6.2-2.1-14.5-.1-5.25.45-11.3 1.6-18.4 9.35-44.35" fill="#00355e"/><path d="M168.15 66.25q.2 8.3 2.1 14.5l-.75 6.1q-16.45 12.5-12.3 49.35l-4.6-1q-7.45-30.7 10.15-50.15l5.4-18.8" fill="#2a4069"/><path d="M113.7 7.55q37.5-16.5 64.25 3.05-7.75 25.95-9.35 44.35l-7.3 20.35q-6.45-31.15-28.85 0 7.65-32.65-37.6-29.1L65.4 39.3l-8.3-4.75 4.45.9L78.4 33.8l.55-.05 1.3-.15 9.35-1.8q16.25-10.75 24.1-24.25" fill="#003e64"/><path d="m110.5 9 3.2-1.45q-7.85 13.5-24.1 24.25l-9.35 1.8q20.5-8.8 30.25-24.6" fill="#5dcbea"/><path d="M168.6 54.95q-.55 6.05-.45 11.3l-5.4 18.8q-17.6 19.45-10.15 50.15l-3.7-1.8q-18.3-26.05-40.75-6.85-3.4-24.75 16.6-48.25 14-19.05-21.55-20.5l-43.05 6.75q4.7-2.5 9.55-5.75l2-.45 18.1-4.4q-6.15-2.15-12.5-3.3-14.8-2.75-31-.35 26-6.2-8.4-19.65l19.2 3.9 8.3 4.75 29.45 6.9q45.25-3.55 37.6 29.1 22.4-31.15 28.85 0l7.3-20.35" fill="#254e72"/><path d="M106.95 127.55q-5.35-2.65-12.3-3.9l1.25-12.4-10.6 11.4Q75.4 122.2 63 124q34.25-22.15 12.35-33.5L23.6 75.9q-2.6-1.3-5.35-2.45l.65-.9q18.6 3.65 39.8-7.25l1.45-.75 43.05-6.75q35.55 1.45 21.55 20.5-20 23.5-16.6 48.25l-1.2 1" fill="#3a597a"/><path d="m169.5 86.85-.25 2.25q-12.9 10.95-4.5 48.75l-7.55-1.65q-4.15-36.85 12.3-49.35" fill="#284982"/><path d="M148.9 133.4q-25.55-12.05-41.65-5.7l-.3-.15 1.2-1q22.45-19.2 40.75 6.85" fill="#002952"/><path d="m94.65 123.65-9.35-1 10.6-11.4-1.25 12.4" fill="#1c3b65"/><path d="m28.05 28.7-4.85-4.1-2.5-5.4 20.75 4.05L52 27.9q13.2 6.85 26.4 5.9l-16.85 1.65-4.45-.9-19.2-3.9-9.85-1.95" fill="#35acd5"/><path d="M23.2 24.6q-7.95-6.3-16.9-11.7l30.85 4.85Q44.6 24.05 52 27.9l-10.55-4.65L20.7 19.2l2.5 5.4" fill="#66d2eb"/><path d="M27.65 56.45q1.05-3.7-.35-5.25 2.75-4 4.5-8l13.1-2.85-10.6-5.9-6.25-5.75 9.85 1.95Q72.3 44.1 46.3 50.3q16.2-2.4 31 .35l-5.6 7.7-2 .45q-4.85 3.25-9.55 5.75l-1.45.75q-22.4.55-31.05-8.85" fill="#417799"/><path d="M18.9 72.55q7.15-10.5 8.75-16.1 8.65 9.4 31.05 8.85-21.2 10.9-39.8 7.25" fill="#309ed3"/><path d="M38.15 85.75Q31.7 80 23.6 75.9l51.75 14.6Q97.25 101.85 63 124q14.15-21.85-24.85-38.25" fill="#376490"/><path d="M77.3 50.65q6.35 1.15 12.5 3.3l-18.1 4.4 5.6-7.7" fill="#003e63"/><path d="M31.8 43.2q1.85-4.4 2.5-8.75l10.6 5.9-13.1 2.85" fill="#426a87"/><path d="m63 124-9.8 1.65q-1.7-8.25 1.45-16.25-5.95-14.1-16.5-23.65 39 16.4 24.85 38.25" fill="#2781ce"/></g><g id="u" fill-rule="evenodd"><path d="M190.25 36.95q-.55 1.95-1.5 3.85L158.7 65.1l-43.35-1.95-2.95-4.25 5.4 1.2 1.8.3q11.55 1.65 20.65 1.65 29.05-.1 33.35-17.6l16.65-7.5M74.35 61.8l-9.8-.75-2.05.95 10.55-10.95L87.5 47.2q6.1 4.4 12.8 7.4l-13.65 7.3-8.1-4.25-4.2 4.15M5.5 32.8q-2.1-11.1 14.4 1.85L30.75 46.8l-6.85.85Q12.7 41.3 5.5 32.8" fill="#643a52"/><path d="M188.75 40.8q.95-1.9 1.5-3.85l.55-2.8.2-3 1.3.1q2.95 6.55-7.65 18.3l-23.4 20.65-46.95-2.15q-19.15-6.45-26.8 3L73.45 63.6H64.3l-7.45 2.55-32.1 3.8-2.75-6.8h-4.45V60.6L5.2 58.05l7.65-13.4Q-3.1 35.5.75 21.05l1.4-.05q-.95 3.9-.85 6.05.35 9.7 12.4 16.55L7.55 57l12.35 1.9v2.55h4l1.95 6.6 21.7-2.4 9.1-1L62.5 62l2.05-.95 9.8.75 1 .1 12.35 6.6q6.85-8.9 28.05-2.8l44.9 3.65 19.75-18.3q5.75-5 8.35-10.25" fill="#351f3d"/><path d="m62.5 62-5.85 2.65-9.1 1-16.8-18.85L19.9 34.65Q3.4 21.7 5.5 32.8q-2.3-2.75-4.2-5.75-.1-2.15.85-6.05l23.45-1.2L79.4 0l68.25 26.8L191 31.15l-.2 3-.55 2.8-16.65 7.5q-4.3 17.5-33.35 17.6-9.1 0-20.65-1.65l-1.8-.3-5.4-1.2q-6.25-1.65-12.1-4.3-6.7-3-12.8-7.4l-14.45 3.85L62.5 62" fill="#452749"/><path d="M188.75 40.8q-2.6 5.25-8.35 10.25l-19.75 18.3-44.9-3.65q-21.2-6.1-28.05 2.8l-12.35-6.6-1-.1 4.2-4.15 8.1 4.25 13.65-7.3q5.85 2.65 12.1 4.3l2.95 4.25 43.35 1.95 30.05-24.3M47.55 65.65l-21.7 2.4-1.95-6.6h-4V58.9L7.55 57l6.15-13.4Q1.65 36.75 1.3 27.05q1.9 3 4.2 5.75 7.2 8.5 18.4 14.85l6.85-.85 16.8 18.85" fill="#884b64"/></g><g id="v" fill-rule="evenodd"><path d="m30.6 23.65.55-.1q4.6 17.95-9.6 26.5l-.15-.15 3.9-3.65q7.95-9.05 5.3-22.6M13.75 44.2l-.5-.4 6.05-17 2.15-.6-7 16.4-.7 1.6" fill="#1b0f0c"/><path d="m20.5 49.25-6.75-5.05.7-1.6 8.4-.75-2.35 7.4" fill="#5b3d36"/><path d="m21.4 49.9-.9-.65 2.35-7.4-8.4.75 7-16.4 4.1-1.15q3.15 14.75-.25 21.2l-3.9 3.65" fill="#462a24"/><path d="m25.55 25.05 5.05-1.4q2.65 13.55-5.3 22.6 3.4-6.45.25-21.2" fill="#2b1814"/><path d="m15.1 9.9.35.35-.95 2.6-2.05-4.25 2.65 1.3" fill="#019ce3"/><path d="m15.45 10.25-.35-.35-7.6-6.3q-1 5.2-.05 10.05.5 2.6 1.55 5.1L8.6 20l-.35.25Q3.2 10.55 6.15 0l9.75 8.65-.45 1.6" fill="#00355e"/><path d="m12.45 8.6 2.05 4.25q-.8.25-1.45.65l-2.3-5.8 1.7.9" fill="#008765"/><path d="m15.1 9.9-2.65-1.3-1.7-.9-2.5-1.3 2.4 7.7-2.8-3.5-.4 3.05Q6.5 8.8 7.5 3.6l7.6 6.3" fill="#aaffe4"/><path d="m8.6 20 .4-1.25q.75-2.15 2-3.55l2.05-1.7q.65-.4 1.45-.65l-.65 1.2q-3.15 1.6-4.05 5L8.6 20M4 27.55l.8.4q0 1.65.25 3.05.7 3.5 3.05 5.3.95.7 2.2 1.15 1.75.65 4.05.7l3.05-.1-.3.7q-14.05.7-13.1-11.2" fill="#612223"/><path d="m14.5 12.85.95-2.6.45-1.6.05-.3Q19.5.15 32.7.65q7.1 1.4 9.6 4.9l-1.5-.7q-5.25-3.25-9.7-3.6-7.45-.65-12.75 6.8-4.3 11.8-16.1 16.75l1 .85.45.3q4.8 3.25 13.05 1.8 1.2 2 1.7 4.15l.3 1.6q.2 2-.1 4.15l-.45 2.05q2.95-.2 5.45-1.95 3-2.05 5.35-6.25l.35-.7.5-.5Q43 16.1 43.3 7.55q2.45 8-13.25 24.05-5.1 10-13.85 9.05l.9-1.9.3-.7q1.5-4.35-.4-7.8l-.8-1.2q-4.7.65-8.3-.1l-1-.25-2.1-.75-.8-.4Q1.65 26.25 0 24q4.85-1.35 8.25-3.75L8.6 20l1.2-.95q2.5-2.15 4.05-5l.65-1.2" fill="#1c0d08"/><path d="m10.75 7.7 2.3 5.8L11 15.2l-.35-1.1-2.4-7.7 2.5 1.3" fill="#003f8c"/><path d="M9 18.75q-1.05-2.5-1.55-5.1l.4-3.05 2.8 3.5.35 1.1q-1.25 1.4-2 3.55" fill="#08ecf6"/><path d="m25.55 4.8-5.5 3.55-7.3 12.1h2.65l7.05-9.2-1.05 4.25q-4.85 5-6.5 10.45h-2.3l2-3.65h-2.75q-3.4 3.65-8.6 3.35l-1-.85q11.8-4.95 16.1-16.75Q23.65.6 31.1 1.25l-.35.2-1.3.85-3.2 2.05-.7.45" fill="#b95b3d"/><path d="M3.25 25.65q5.2.3 8.6-3.35h2.75l-2 3.65h2.3q1.65-5.45 6.5-10.45l1.05-4.25-7.05 9.2h-2.65l7.3-12.1 5.5-3.55q-3.6 7.35-4.75 15.2-6.6 1.85-3.15 7.6l2.9.1-2.1 4.2q-.5-2.15-1.7-4.15Q8.5 29.2 3.7 25.95l-.45-.3m15.4 12q.3-2.15.1-4.15l3.2-5.75 3.35.15q.8 5.6-1.05 8.95l-5.6.8" fill="#672b25"/><path d="M13.85 14.05q-1.55 2.85-4.05 5 .9-3.4 4.05-5" fill="#f5e569"/><path d="m6.9 28.7 1 .25q.8 2.2 3.05 3.5.6-2.6 5.25-3.4l.8 1.2-2.7.3-1.25.5-.75.65q-1 1.2-.4 3.5l.2.05 2.25.1q1-.25 1.9-1.1l.4-.4q-.6 1.85-2.3 2.2l-2.5-.25-.45-.4q-.5-.65-.5-1.9-2.9-1.7-4-4.8" fill="#612721"/><path d="m4.8 27.95 2.1.75q1.1 3.1 4 4.8 0 1.25.5 1.9l-1.1 2.05Q9.05 37 8.1 36.3q2.7-5.05-3.05-5.3-.25-1.4-.25-3.05m7.5 3.75.75-.65q2.1 1.75 1.3 4.3l-2.25-.1q3.2-2.15.2-3.55" fill="#ed9830"/><path d="m30.75 1.45.35-.2q4.45.35 9.7 3.6l1.5.7 1 2Q43 16.1 29.85 30.3l-4.35-5q-.85-10.8 5.25-23.85M7.9 28.95q3.6.75 8.3.1-4.65.8-5.25 3.4-2.25-1.3-3.05-3.5M29 31.5q-2.35 4.2-5.35 6.25l.6-.9q1.85-3.35 1.05-8.95l.45.05L29 31.5" fill="#4f1e18"/><path d="m26.25 4.35 3.2-2.05q-5.85 13.1-5 24.65h-6.3l-.65-.9 1.8-.25 3.7-.5.9-12.4 2.35-8.55m-13.2 26.7 1.25-.5q2.15 1.25 1.95 3.7-.9.85-1.9 1.1.8-2.55-1.3-4.3M11.4 35.4l.45.4 2.5 2.35q-2.3-.05-4.05-.7l1.1-2.05" fill="#9f6b44"/><path d="M17 30.25q1.9 3.45.4 7.8l-3.05.1-2.5-2.35 2.5.25q1.7-.35 2.3-2.2l-.4.4q.2-2.45-1.95-3.7l2.7-.3" fill="#6b441b"/><path d="M5.05 31q5.75.25 3.05 5.3-2.35-1.8-3.05-5.3m7.05 4.25-.2-.05q-.6-2.3.4-3.5 3 1.4-.2 3.55M22.45 21.6q-.5 2.8-3.15 2.2v2l-1.8.25q-.95-1.65.05-3.55 2.15-2.85 4.9-.9" fill="#f1df67"/><path d="m25.55 4.8.7-.45Q22.7 12.2 21.3 19.9l.5.65.65.9v.15q-2.75-1.95-4.9.9-1 1.9-.05 3.55l.65.9h6.3q-.85-11.55 5-24.65l1.3-.85Q24.65 14.5 25.5 25.3l.3 2.65h-.05l-.5-.55.05.5-3.35-.15-1.4-.05-2.9-.1Q14.2 21.85 20.8 20q1.15-7.85 4.75-15.2" fill="#602222"/><path d="m23.9 12.9-2.1 7.65-.5-.65q1.4-7.7 4.95-15.55L23.9 12.9" fill="#f0cd59"/><path d="m21.8 20.55 2.1-7.65-.9 12.4-3.7.5v-2q2.65.6 3.15-2.2l.25.2-.25-.35-.65-.9" fill="#f19a2f"/><path d="m18.45 31.9 2.1-4.2 1.4.05-3.2 5.75-.3-1.6m11.4-1.6-.5.5-.35.7-3.25-3.55h.05l-.3-2.65 4.35 5m-6.2 7.45q-2.5 1.75-5.45 1.95l.45-2.05 5.6-.8-.6.9" fill="#ba5b3d"/></g><g id="w" fill-rule="evenodd"><path d="m31.7 64.6-1.55.5-9.85-11.7Q6.25 44.5 0 20.55l1.3-1.05q2.35 10.85 6.75 18.45 1.3 2.3 2.85 4.25 4 5.3 9.3 8.55l.9.5 4 5.05 6.6 8.3M23.85 1.35 25.5 0q30.15 18.65 32.25 56.85l-1.25.35-1.5-9.8Q48.4 14.45 23.85 1.35" fill="#190e0b"/><path d="M8.05 37.95q-4.4-7.6-6.75-18.45L23.85 1.35Q48.4 14.45 55 47.4q-19.95-2.6-37.9-15.3-8.7-4.05-9.05 5.85" fill="#2b1814"/><path d="M10.9 42.2q-1.55-1.95-2.85-4.25.35-9.9 9.05-5.85Q35.05 44.8 55 47.4l1.5 9.8-16.4 4.9-15.55-21.45-11.4-5.6-2.25 7.15" fill="#462a24"/><path d="m31.7 64.6-6.6-8.3.9-2.4 1.75-4.75-4-5.85-4.1-1.6-4.1-1.6 4.65 10.65q-5.3-3.25-9.3-8.55l2.25-7.15 11.4 5.6L40.1 62.1l-8.4 2.5" fill="#5b3d36"/><path d="m25.1 56.3-4-5.05-.9-.5-4.65-10.65 4.1 1.6L26 53.9l-.9 2.4" fill="#725049"/><path d="m19.65 41.7 4.1 1.6 4 5.85L26 53.9l-6.35-12.2" fill="#856057"/><path d="M49.55 46.3q4.8-.25 9.7-1.7l.25 3.05q-1.95.95-3.95 1.5l-6-2.85m3.8 3.35-2.6.25-5.45-3.65 2.8.1 5.25 3.3M30.2 59.1q-1 2.1-2.45 4l-2.65-2.55.9-1.45 1.35 1.45 2.85-1.45" fill="#9f6b44"/><path d="M55.55 49.15q2-.55 3.95-1.5l-.25-3.05q-4.9 1.45-9.7 1.7l-1.45.05-2.8-.1q-6.9-.45-13.55-3.5l-.15.85q-1.35 7.45-4.4 13.4L26 59.1l-.9 1.45 2.65 2.55q1.45-1.9 2.45-4 1.7-3.5 2.35-7.6l5.7.8 1.2-5.15q5.65 2.95 11.3 2.75l2.6-.25 2.2-.5M24.4 62.3l.05-2.25q5.75-7.9 6.6-18.75Q47.5 48.7 60.2 43l.25 5.2-.9.35Q49.1 52.7 39.7 48.6l-.8 4.65-2.8-.4-2.3-.35-.45-.05-.95 3.3-.6 1.7q-1.5 3.85-3.8 6.7l-2.7-1.4-.9-.45" fill="#662a25"/><path d="m24.4 62.3.9.45v5.5l9.1 1.5 15.4 2.5 10.4-16.1-.65-7.6.9-.35.3 6.4.05 1.3.05.65q-2.55 8.8-8.6 15.05l-1.9 1.85-7.9-.5-7.45-1.2-5.5-1.35-1.4-.4-3.8-1.2.1-6.5" fill="#251311"/><path d="M52.25 71.6q6.05-6.25 8.6-15.05l-.05-.65q3.15 9.9-3.7 19.8l-3 1.75-1.5.05q1.35-3.2-.35-5.9m4 5.8-2.05 3.65-2.4 1.3q-4 1.25-7.8 1.25l6.55-3.75q2.6-.8 5.25-2l.45-.45" fill="#6d3539"/><path d="M60.75 54.6q5.75 7.6 2.2 19l6.65 4.9-.3 1.1-.65 2.45-1.7 6-.75-.45-9.9-6.05.9 9.35.2 2.1-7.15.45-2.45.15-2.75.2-2.3-8.65q-8.2-1.3-15.4-6.65l.75-8.5 1.4.4-.3 7.15q2.2 1.05 4.4 1.7 10.55 3.2 20.5-1.8l3-1.75q6.85-9.9 3.7-19.8l-.05-1.3m6.65 28.1 1.15-3.95-6-3.95q-1.55 2.95-3.5 4.7L57 80.9l9.3 5.7 1.1-3.9m-19.45 9.5h8.1l-.8-10.25-1.65.75q-4.75 2.05-9.1 2.15l2.1 7.35h1.35m8.3-14.8-.45.45q-2.65 1.2-5.25 2-10.7 3.25-20.4-.95Q36.6 83.6 44 83.6q3.8 0 7.8-1.25l2.4-1.3q11.6-7.05 8.25-21.3.95 11.05-6.2 17.65" fill="#160b09"/><path d="m36.1 52.85 2.8.4.8-4.65q9.4 4.1 19.85-.05l.65 7.6-10.4 16.1-15.4-2.5 2.4-1.9 1.75-2.95.7-1.2 1.05-1.9.6-1-4.8-7.95m33 33.85-.7.85 1.3 5.35-3.5-2.6v-2.7l.75.45 1.7-6 1.1 3.8-.65.85m-2.7 13.7-1.25 9.45-3.4-12.6-1.2-3.45-2.7.3-1.65.15-4.4.5-1.55-1.3L57.4 93l-.2-2.1 4.7 1.8 4.5 7.7M49.5 52.5l-1.2-.35-1-.35 4.65 8.9 5.3-5.6-7.75-2.6" fill="#4f1e18"/><path d="m69.7 92.9-1.3-5.35.7-.85 2.4 7.55-1.8-1.35" fill="#bd5d3e"/><path d="M59.05 79.5q1.95-1.75 3.5-4.7l6 3.95-1.15 3.95-8.35-3.2" fill="#4b0c1f"/><path d="m59.05 79.5 8.35 3.2-1.1 3.9-9.3-5.7 2.05-1.4m-5.45 3.2-6.2 3.75.55 5.75H46.6l-2.1-7.35q4.35-.1 9.1-2.15" fill="#821008"/><path d="m25.3 62.75 2.7 1.4q2.3-2.85 3.8-6.7l6.75 7.45-1.75 2.95-2.4 1.9-9.1-1.5v-5.5m7.1-7 .95-3.3.45.05 6.5 9.3-1.05 1.9-6.85-7.95M69.1 86.7l.65-.85 1.85 6.35 5.05 2.75.5 2 .35.8-1.65-.25-4.35-3.25-2.4-7.55m-4.2 25-.2 1.35-1.85-1.05q1.15-6.35-4.15-8.25l-.5-3.6-6.4-5.4 4.4-.5 3.95 3.4 4.75 14.05M48.3 52.15l4.55 6.4-3.35-6.05 7.75 2.6-5.3 5.6-4.65-8.9 1 .35" fill="#672b25"/><path d="m69.3 79.6 3.75 11.5 3.75 2.4-.15 1.45-5.05-2.75-1.85-6.35-1.1-3.8.65-2.45" fill="#2a0d00"/><path d="m76.8 93.5 11.15-1.45-5.5 9.1-1.8-.35 5.45-7.7-.65.15-8.8 1.7.15-1.45" fill="#00315b"/><path d="m85.45 93.25.65-.15-5.45 7.7q-2.1-.8-3.15-3.05l-.35-.8 8.3-3.7m-31.7 18.2 8.05-4.15q.8 1.6.25 4l-9.2 1.2.9-1.05" fill="#003f8c"/><path d="m82.45 101.15-.2.35v3.15l4.1 3.2.55 26.2-22.05-11.3v-8l-4.65-2.4 2.65-.35 1.85 1.05.2-1.35.25-1.85 1.25-9.45.55-3.85 13.7 7.45v-3.2l1.8.35M80.7 113.3l3.15 1.7 1.85.95v-7.8l-3.65-2.1-4-2.35-9.75-5.65 1.85 3.7 4 8.1 1.95 1.05 4.6 2.4m-3.7-.95-2.1-1.05 11.05 20.9-.55-15.7-3.6-1.8-4.8-2.35m2.45 9.15L74 111.05l-.15 1.5-1.45 13.4 4.8 2.25 4.35 2.1 3.35 1.6-5.45-10.4m-7.05-7.2.55-4.2-3.25-7.15-2.2-4.8q-2.45 12.45-1.75 24.2l5.3 2.65 1.35-10.7" fill="#1a0e0b"/><path d="m83.85 115-1.8-8.95 3.65 2.1v7.8l-1.85-.95M69.7 102.95l-1.05 4.55.95 1.75-3.85 13.1q-.7-11.75 1.75-24.2l2.2 4.8" fill="#5b3d36"/><path d="m83.85 115-3.15-1.7-2.65-9.6 4 2.35 1.8 8.95m-7.75-4.1-1.95-1.05-4-8.1 5.95 9.15m5.7 3.8 3.6 1.8.55 15.7-11.05-20.9 2.1 1.05 6.55 10.15-1.75-7.8" fill="#462a24"/><path d="M66.2 87.6v2.7l3.5 2.6 1.8 1.35 4.35 3.25 1.65.25q1.05 2.25 3.15 3.05v3.2l-13.7-7.45-.55 3.85-4.5-7.7-4.7-1.8-.9-9.35 9.9 6.05" fill="#3e1915"/><path d="m77.15 96.95-.5-2 8.8-1.7-8.3 3.7" fill="#019de2"/><path d="m57.85 94.1 2.7-.3 1.2 3.45-3.9-3.15" fill="#652a24"/><path d="m60.75 105.95 1.05 1.35-8.05 4.15 2.15-2.7 4.85-2.8" fill="#aaffe4"/><path d="M60.2 112.35 51 113.6l6.15-7.85 1.55-2q5.3 1.9 4.15 8.25l-2.65.35m1.6-5.05-1.05-1.35q-.7-.6-1.75-1l-3.1 3.8-2.15 2.7-.9 1.05 9.2-1.2q.55-2.4-.25-4" fill="#00355f"/><path d="m60.75 105.95-4.85 2.8 3.1-3.8q1.05.4 1.75 1" fill="#08ecf6"/><path d="m65.15 109.85-.25 1.85-4.75-14.05-3.95-3.4 1.65-.15 3.9 3.15 3.4 12.6" fill="#bb5c3e"/><path d="m73.85 112.55.15-1.5 5.45 10.45 2.1 8.8-4.35-2.1-3.35-15.65m-4.25-3.3 2.8 5.05-1.35 10.7-5.3-2.65 3.85-13.1" fill="#725049"/><path d="M52.25 71.6q1.7 2.7.35 5.9l-1.45.05q1.6-2.3-.8-4.1l1.9-1.85m27.2 49.9 5.45 10.4-3.35-1.6-2.1-8.8m-2.25 6.7-4.8-2.25 1.45-13.4 3.35 15.65m-4.8-13.9-2.8-5.05-.95-1.75 1.05-4.55 3.25 7.15-.55 4.2M29.5 70.4l5.5 1.35q-2.15 3.45-1.55 6.9l.15.6q-2.2-.65-4.4-1.7l.3-7.15m21.05 9.45L44 83.6q-7.4 0-13.85-4.7 9.7 4.2 20.4.95" fill="#856057"/><path d="m78.05 103.7 2.65 9.6-4.6-2.4-5.95-9.15-1.85-3.7 9.75 5.65m3.75 11 1.75 7.8L77 112.35l4.8 2.35" fill="#2b1814"/><path d="m49.55 46.3 6 2.85-2.2.5-5.25-3.3 1.45-.05" fill="#684219"/><path d="m31.8 57.45.6-1.7 6.85 7.95-.7 1.2-6.75-7.45m2-4.95 2.3.35 4.8 7.95-.6 1-6.5-9.3" fill="#b95b3d"/><path d="m48.3 52.15 1.2.35 3.35 6.05-4.55-6.4" fill="#ba5c3d"/><path d="M50.75 49.9q-5.65.2-11.3-2.75l-1.2 5.15-6.65-8.7.15-.85q6.65 3.05 13.55 3.5l5.45 3.65" fill="#6b441b"/><path d="M32.55 51.5q-.65 4.1-2.35 7.6l-2.85 1.45L26 59.1l1.2-2.1 5.35-5.5" fill="#ed9830"/><path d="m38.25 52.3-5.7-.8L27.2 57q3.05-5.95 4.4-13.4l6.65 8.7" fill="#f1df67"/><path d="m52.6 77.5 1.5-.05q-9.95 5-20.5 1.8l-.15-.6 7.45.8q-1.3-2.75 1.55-6.5l7.9.5q2.4 1.8.8 4.1l1.45-.05" fill="#d9bca7"/><path d="M33.45 78.65q-.6-3.45 1.55-6.9l7.45 1.2q-2.85 3.75-1.55 6.5l-7.45-.8" fill="#a27e7a"/><path d="m53.6 82.7 1.65-.75.8 10.25h-8.1l-.55-5.75 6.2-3.75" fill="#9f332f"/><path d="m54.2 81.05 2.05-3.65q7.15-6.6 6.2-17.65Q65.8 74 54.2 81.05" fill="#845f56"/><path d="m57.15 105.75-.85-4.8-8.5-7.35 2.45-.15 1.55 1.3 6.4 5.4.5 3.6-1.55 2" fill="#1a0f0c"/><path d="M47.2 57.1q3.4 0 5.75 2.6 2.35 2.65 2.35 6.35 0 3.75-2.35 6.35-2.35 2.65-5.75 2.65-3.35 0-5.7-2.65-2.4-2.6-2.4-6.35 0-3.7 2.4-6.35 2.35-2.6 5.7-2.6m2 .85-1.95-.25-1.15.1q-1.6.2-2.9 1.15l-1.35 1.2-.9 1.2q-1.3 2.1-1.3 4.75 0 1.5.4 2.8.35 1.15 1 2.15l.8 1 .65.65 1.7 1.15 3.05.65q2.55 0 4.45-1.6l.6-.55.3-.3.2-.2.2-.25.15-.2q1.7-2.25 1.7-5.3 0-2.95-1.6-5.2l-.65-.75q-1.5-1.65-3.4-2.2" fill="#003058"/><path d="m46.1 57.8 1.15-.1 1.95.25L53 71.6l-.2.25-6.7-14.05" fill="#008865"/><path d="m40.95 61.35.9-1.2 1.35-1.2 9.1 13.4-1.05-.3-.85-.25-9.45-10.45" fill="#a9fee4"/><path d="m52.8 71.85-.2.2-.3.3-9.1-13.4q1.3-.95 2.9-1.15l6.7 14.05" fill="#019ce1"/><path d="M49.2 57.95q1.9.55 3.4 2.2l.65.75-.1 10.5-.15.2-3.8-13.65m-8.15 13.1q-.65-1-1-2.15l10.35 2.9.85.25-4.95.35-5.25-1.35" fill="#003f8c"/><path d="m52.3 72.35-.6.55-7.5.95-1.7-1.15 3.8-.3 4.95-.35 1.05.3" fill="#003666"/><path d="M53.25 60.9q1.6 2.25 1.6 5.2 0 3.05-1.7 5.3l.1-10.5" fill="#019ee3"/><path d="M40.05 68.9q-.4-1.3-.4-2.8 0-2.65 1.3-4.75L50.4 71.8l-10.35-2.9" fill="#08ecf6"/><path d="m42.5 72.7-.65-.65-.8-1 5.25 1.35-3.8.3" fill="#a9ffe7"/><path d="M51.7 72.9q-1.9 1.6-4.45 1.6l-3.05-.65 7.5-.95" fill="#01a3e8"/></g><g id="x" fill-rule="evenodd"><path d="m59.65 11.15.35.95Q45.35 38.15 22.5 50.35l-.9-.85.6-.35 5.15-3.2q4.75-3.2 9.3-7.25l4.3-4.05q9.85-9.75 18.7-23.5M11.8 39.85l-.15-.1q.95-18.9 19.9-36.95l1.2-.5Q14.2 20.35 11.8 39.85" fill="#2b1815"/><path d="m21.6 49.5-9.8-9.65q2.4-19.5 20.95-37.55 20.3-7.4 26.9 8.85-8.85 13.75-18.7 23.5.4-10.55-11.15-4.65-12.6 5.4-7.6 19.15l-.6.35" fill="#2b1814"/><path d="M36.65 38.7q-4.55 4.05-9.3 7.25l-2.3-2.65q-2.9-10.05 11.6-12.5 1.75 4.7 0 7.9m-3.35-2.95q-5.95.45-7.75 5.15l2.8 1.75q5.85-3.25 4.95-6.9" fill="#5b3d36"/><path d="m40.95 34.65-4.3 4.05q1.75-3.2 0-7.9-14.5 2.45-11.6 12.5l2.3 2.65-5.15 3.2Q17.2 35.4 29.8 30q11.55-5.9 11.15 4.65" fill="#462a24"/><path d="M33.3 35.75q.9 3.65-4.95 6.9l-2.8-1.75q1.8-4.7 7.75-5.15" fill="#725049"/><path d="m33.25 46.5-1.3 2.25-1.45-.1.2-1.85 2.55-.3" fill="#ed9e35"/><path d="M25.15 49.1q4.4.9 9.2.05L35 46.1l-1.75.4-2.55.3-3.55-.1-2-.35q-3-.7-5.95-2.25-4.2-2.25-8.4-6.4l-.75 2.3q6.85 7.5 15.1 9.1m8.5-3.6.6-.1 2.1-.65-.65 4.95-.15.3Q21.3 52.15 10.6 41.6l-.9-.95-.75-.8 1.6-3.6q8.35 8 16.2 9.4l2.05.2 4.85-.35" fill="#5e251e"/><path d="m33.65 45.5-2.2-2 .5-.45 2.3 2.35-.6.1" fill="#211213"/><path d="m31.45 43.5 2.2 2-4.85.35 2.65-2.35M27 91.65q-5.05 2.45-10.05 4.85l-4.5.65L24.6 88.9l2.4 2.75" fill="#462a24"/><path d="m33.25 46.5 1.75-.4-.65 3.05q-4.8.85-9.2-.05l-5.95-5q2.95 1.55 5.95 2.25l1.1 2.05 1.2.1 3.05.15 1.45.1 1.3-2.25" fill="#9f6b44"/><path d="m27.45 48.5-1.2-.1-1.1-2.05 2 .35.3 1.8" fill="#ed9730"/><path d="m30.5 48.65-3.05-.15-.3-1.8 3.55.1-.2 1.85" fill="#f1df67"/><path d="m35.55 50 .1-.05 2.3.45q1.05 3.05.5 5.15l1.65 1.3v3.25l2.35 3.35q-2.9 8.55 6.9 11.4l-2.5 9.25Q38.45 91 29.6 95.35l-20.7 2.9 10.25-13.3q5-6.2 5.8-10.95l-6.4-6.5L14 65.55v-2.6l-2.75-1.75.35.2.85-.2 2.35 1.35 4.1.05q10.75-1 16.65-12.6M9.1 47.6l.6-6.95.9.95-.4 6.1-1.1-.1m28.25 4.75.2-1.15-1.6-.5-.6 1.2q-1.5 2.95-3.85 5.2l-1.6 1.35q-2.65 2.35-5.5 3.65-2.15.9-4.45 1.25-2.15.3-4.4.05l-.8-.1v1.8l2.4.8 4.65.15 3.1-.55q2.45-.9 4.45-2.1l1.85-1.25q5.05-3.8 6.15-9.8m-3.1 16.4Q38.8 64 39.6 57.45l-1.25-1.1q-3.3 8.3-10.9 10.75l-2.95.65-4.4.25 9 4.95 1.1-.7 4.05-3.5m7.1.25q-.6-2.45.15-5.7l-1.7-2.4-.45 1.35q-2.4 6.65-8.3 10.6l-2.15 1.3-7.1-4.6 4.1 4.25-.8 3.25 2.15.85 1.25.5 3.4 1.45q1.8.8 3.6 1.7 3.9 1.9 7.7 4.15l3.1-2.35 2.15-7.95q-1.9-.6-3.3-1.45-2.65-1.7-3.6-4.3l-.05-.3-.1-.2-.05-.15M29.8 80.15l-4.3-2.1-.8-.4-4.65 7.1 1.3.85 3.8 2.95 1.95 2.05q1.45 1.65 2.6 3.6l4.95-3.05 7.95-4.8-12.8-6.2m1.2-15.6q6.6-4.3 7-11.9-3.8 13.55-19.15 14.1 6.45 1.5 12.15-2.2M16.95 96.5l12-1.85-1.95-3-2.4-2.75-3.25-2.65-1.55-1-7.7 9.8-1.95 2.45 2.3-.35 4.5-.65" fill="#1c0f0c"/><path d="m35.35 51.9.6-1.2 1.6.5-.2 1.15-2-.45M31.2 62.15l-1.85 1.25q-.85-2.55-4.95-1.3 2.85-1.3 5.5-3.65l1.6-1.35q1.1 2.75-.3 5.05m-9.4 3.9-4.65-.15-1.6-2.5q2.25.25 4.4-.05l1.85 2.7" fill="#a27e7a"/><path d="M37.35 52.35q-1.1 6-6.15 9.8 1.4-2.3.3-5.05 2.35-2.25 3.85-5.2l2 .45m-16 33.25-1.3-.85 4.65-7.1.8.4-4.15 7.55m-9.25 9.45 7.7-9.8 1.55 1-1.95 3.85-7.3 4.95" fill="#856057"/><path d="M27.45 67.1q7.6-2.45 10.9-10.75l1.25 1.1q-.8 6.55-5.35 11.3l-6.8-1.65" fill="#4b0c1f"/><path d="M35.55 50q-5.9 11.6-16.65 12.6l-4.15-2.55 1.2-1.6 2.25.55 2.05.05q3.4-.35 6-3.5l-5.15-3.4-1.55-1.05-3.8-2.5-.95 1.25q-1.8-1.9-4.6-2.15l.4-6.1Q21.3 52.15 35.55 50m3.8 12.25.45-1.35 1.7 2.4q-.75 3.25-.15 5.7l-2-6.75m-3.85 19.3q-1.8-.9-3.6-1.7.65-3.25-3-5.7l2.15-1.3 6.35 3.6-1.9 5.1" fill="#4f1e18"/><path d="m30.2 72.25-1.1.7-9-4.95 4.4-.25 5.7 4.5" fill="#9f332f"/><path d="m28.5 78.4-1.25-.5.1-2.5 1.15.6v2.4" fill="#bd5d3e"/><path d="m31.9 79.85-3.4-1.45V76l-1.15-.6-.1 2.5-2.15-.85.8-3.25-4.1-4.25 7.1 4.6q3.65 2.45 3 5.7M19.55 51.1l.45 3.5 1.1-2.45 5.15 3.4q-2.6 3.15-6 3.5l-3.4-5.2-.05-.7q-.75-2.05-2-3.3l.95-1.25 3.8 2.5m-3.6 7.35.7-2.05L18.2 59l-2.25-.55" fill="#672b25"/><path d="m25.5 78.05 4.3 2.1-4.65 8.4-3.8-2.95 4.15-7.55m17.1 8.3-7.95 4.8 3.35-5.6 4.6.8m-30.15 10.8-2.3.35 1.95-2.45 7.3-4.95 1.95-3.85 3.25 2.65-12.15 8.25" fill="#5b3d36"/><path d="m27.45 67.1 6.8 1.65-4.05 3.5-5.7-4.5 2.95-.65" fill="#821008"/><path d="m39.35 62.25 2 6.75.05.15.1.2.05.3-2.4 8.4 6-4.1q1.4.85 3.3 1.45l-2.15 7.95-3.1 2.35q-3.8-2.25-7.7-4.15l1.9-5.1-6.35-3.6q5.9-3.95 8.3-10.6" fill="#3e1915"/><path d="M41.55 69.65q.95 2.6 3.6 4.3l-6 4.1 2.4-8.4" fill="#682b24"/><path d="M31 64.55q-5.7 3.7-12.15 2.2Q34.2 66.2 38 52.65q-.4 7.6-7 11.9" fill="#6d3539"/><path d="m29.8 80.15 12.8 6.2-4.6-.8-7.1-1.2-3.8 6.25-1.95-2.05 4.65-8.4" fill="#412621"/><path d="M34.65 91.15 29.7 94.2q-1.15-1.95-2.6-3.6l3.8-6.25 7.1 1.2-3.35 5.6m-7.65.5 1.95 3-12 1.85q5-2.4 10.05-4.85" fill="#2b1814"/><path d="m19.2 44.1 5.95 5q-8.25-1.6-15.1-9.1l.75-2.3q4.2 4.15 8.4 6.4" fill="#6b441b"/><path d="m14.15 50-7.05.5 2.4-2.2q2.75-.1 4.65 1.7m-.1 9.75q-.85.65-2.05.95l-4.6-1.95 6.65 1" fill="#008865"/><path d="m12.45 61.2-.85.2-.35-.2L0 56.2l9.1-8.6 1.1.1q2.8.25 4.6 2.15 1.25 1.25 2 3.3l.05.7-.2 2.55-.7 2.05-1.2 1.6q-.95.85-2.3 1.15M7.1 50.5l-2.9 2.7-1.4 1.3-1.7 1.55.7.3 5.6 2.4L12 60.7q1.2-.3 2.05-.95 1.5-1.1 1.85-3.3.3-1.45 0-3.45l-.1-.75L14.15 50q-1.9-1.8-4.65-1.7l-2.4 2.2" fill="#15385f"/><path d="m4.2 53.2 2.9-2.7 7.05-.5 1.65 2.25.1.75-11.7.2" fill="#019ce1"/><path d="M21.1 52.15 20 54.6l-.45-3.5 1.55 1.05m-4.25 1.7 3.4 5.2L18.2 59l-1.55-2.6.2-2.55" fill="#b95b3d"/><path d="m4.2 53.2 11.7-.2q.3 2 0 3.45H11L2.8 54.5l1.4-1.3" fill="#08ecf6"/><path d="m1.8 56.35-.7-.3 1.7-1.55 8.2 1.95-9.2-.1" fill="#aaffe4"/><path d="m18.9 62.6-4.1-.05-2.35-1.35q1.35-.3 2.3-1.15l4.15 2.55" fill="#6a2c26"/><path d="m17.15 65.9-2.4-.8v-1.8l.8.1 1.6 2.5" fill="#845f56"/><path d="M29.35 63.4q-2 1.2-4.45 2.1l-3.1.55-1.85-2.7q2.3-.35 4.45-1.25 4.1-1.25 4.95 1.3" fill="#d9bca7"/><path d="m1.8 56.35 9.2.1h4.9q-.35 2.2-1.85 3.3l-6.65-1-5.6-2.4" fill="#003f8c"/><path d="m38.45 75.35-.2.95v.6q.05.75.45 1.45l.5.7.55.5q1 .7 2.3.8l1.35-.1 1.1-.35.5-.35.35-.25.6-.8q.45-.65.5-1.5.1-1.2-.6-2.2l-.25-.35-.1-.15-.1-.1-.15-.05-.1-.15q-1.05-.85-2.45-1-1.5-.15-2.65.55l-.35.25q-.9.7-1.25 1.55m-.5.95q.15-1.65 1.55-2.65 1.35-1.05 3.15-.9 1.85.15 3 1.4 1.2 1.3 1.05 2.95-.15 1.6-1.55 2.65-1.35 1.05-3.2.9-1.8-.15-2.95-1.4-1.2-1.35-1.05-2.95" fill="#003058"/><path d="M38.25 76.9v-.6l.2-.95 6.8-1.2.15.05-7.15 2.7" fill="#008865"/><path d="m39.75 79.55-.55-.5-.5-.7 6.9-3.9-.2.55-.15.4-5.5 4.15" fill="#a9fee4"/><path d="m45.4 74.2.1.1.1.15-6.9 3.9q-.4-.7-.45-1.45l7.15-2.7" fill="#019ce1"/><path d="M38.45 75.35q.35-.85 1.25-1.55l.35-.25 5.1.45.1.15-6.8 1.2m6.05 4.55-1.1.35 1.85-4.85.15-.4-.05 2.4-.85 2.5" fill="#003f8c"/><path d="m45.6 74.45.25.35.1 3.7-.6.8v-1.9l.05-2.4.2-.55" fill="#003666"/><path d="M40.05 73.55q1.15-.7 2.65-.55 1.4.15 2.45 1l-5.1-.45" fill="#019ee3"/><path d="m43.4 80.25-1.35.1q-1.3-.1-2.3-.8l5.5-4.15-1.85 4.85" fill="#08ecf6"/><path d="m45.35 79.3-.35.25-.5.35.85-2.5v1.9" fill="#a9ffe7"/><path d="M45.85 74.8q.7 1 .6 2.2-.05.85-.5 1.5l-.1-3.7" fill="#01a3e8"/></g><g id="y" fill-rule="evenodd"><path d="M173.4 81q-7.65 1.25-14.3 3.8l-.8-4.95q-3.5-2.95-1.3-7-3.25-.45-5.6 2.5l-3.45-1.05-2.8-.15-5-5.45.1-.65-.8.5-4.95-6.1-23.8-4.25q-2.45 1.1-4.45 2.7l-.45-.05q-1.2 0-2.05.8-.85.75-.85 1.8l.1.8-1.55 2.4-3.6-2.1q7.95-10.85 23.1-7.25l-8.1-4.55 3.45-6 .05-.05 1-1.4 2.8 1.6-2 4.25 13.6 2.5.75.45.55 4.65 20.2 6.1q7.9 9.95 20.15 16.15M78.55 43.8l-.95.45-3.9-2.55q6.85-3.65 5.25-9.3-4.7-4.6-9.45-1.95v-.95q-1.85-2.9-2.6-5.7 6 4.5 13.7 3.95l.75 1.35 3 1.15q-.95 7.4-4.85 13.1l-.95.45M66.5 18.75q.5-4.85 4.45-9.45.25 1.2.8 2.2l-3.6 4.95-1.65 2.3m4.45 52.4 1.05-2.2 3.65-.7-1.35 2.5-3.35.4m44.6-25.35q-2.45 3-5.35 5.25.1-13.4-12.85-17.25l.35-1v-1.2q4.9-1 10.65 3l7.2 11.2M87.3 10.75q12.75 10.9 2.65 17.75 3.55-5.8-2.1-11.1l-4.35-3.35q2.15-1.55 3.8-3.3m6.95 26.05.15-8.25 5.5-6.85q-1.4 3.5-3.8 6.6v5.85q-.85 1.6-1.85 2.65M79 68.2l-1.6-2.25q1.1-3.2 3.8-2.8l1.7 3.2q-2.3-.7-3.9 1.85M57.45 48.1l12.35 7.45.15 4.4q-5.8 3.9-12.4 6.25l-1.35 2.35-6.3 4.8q-.3-1.95-3.25-3.2-.1 1.65-.6 2.9-8.6.8-13.7-10.45L46 57.4l11.45-9.3" fill="#c39e84"/><path d="M176.8 81.8q-10.65 1-19.7 5.25 1.6-2.8 0-6.4-2.85-3.45-2.1-6.9-1.6.25-3.2 2.95l-3.15-1.2-.7-.3q-8.95-.1-8.5-5.95-5.85 5.65.8 10.35 1.45 5.05 5.85 2.95-2.65-2.1 1.45-4.15 4.75 1.2 4 4.65-1.45 8.05-7.75 11.2 3.15-12.3-9.05-12.1-9.7 2.75-16.25-3.5l-1-1.05h10.65l-5.2-3.45q-12.2 3.8-9.95-6.9-3.85.35-4 4.9l-7.4-4.65-3.1-2-12.9-6.75-2.8-1.45L84 41.05l.8-.4v1.6l-1.05 14.1 14.1 8.2 3.6 2.1 6.75 3.9q.95-3 4.45-4.2l1.15-.3q-2.65 11.45 8.6 6.65l8.25 6h-10.5q3.85 2.8 9.3 3.3 6.3-1.55 10.95 0l-1.1-2q-5.9-5.05-2.45-9.25.95-1.15 2.6-2.2l.8-.5-.1.65q-.45 4.65 5 5.45l2.8.15 3.45 1.05q2.35-2.95 5.6-2.5-2.2 4.05 1.3 7l.8 4.95q6.65-2.55 14.3-3.8l6.25-.75h.1l3.4 1.25-6.35.3m-27 3.25q1.05-3.65-1.7-5.45-5.05 1.05 0 2.65-2.65 1.75-4.6 1.6 2.1 3.55 1.8 8.1 3.35-2.35 4.5-6.9" fill="#441f2c"/><path d="M118.5 78.65q6.55 6.25 16.25 3.5 12.2-.2 9.05 12.1 6.3-3.15 7.75-11.2.75-3.45-4-4.65-4.1 2.05-1.45 4.15-4.4 2.1-5.85-2.95-6.65-4.7-.8-10.35-.45 5.85 8.5 5.95l.7.3 10.45 15.55q10.2-6.15 18.65-6.15-4.7 1.2-9.2 3.5-20.2 14.9-29.65 9.8.25-11.45-4-11.3-10.65 2.75-24.1-6.2l7.7-2.05M59.35 72.7q-10.6 15.9-22.4 28.7-6.25-18-33.6-29.65l3.7-1.45Q23 74.4 32.7 86.1q6.65-6.25-.8-9.8 2.85-1.6 5.05 1.6 9.55.25 10.25-6.25 4.3 2-.95 7.05-.85 4.1-4.25 5.7-3.05-2.1-.8-5.05-7.5 1.3-3.85 12.1 12.1-10.35 20.6-24.2 3.7-1.05 7-2.7-5 3.7-5.6 8.15" fill="#6fbdee"/><path d="m148.65 75.5 3.15 1.2q1.6-2.7 3.2-2.95-.75 3.45 2.1 6.9 1.6 3.6 0 6.4 9.05-4.25 19.7-5.25l4.15 2.4-3.2.7q-8.45 0-18.65 6.15L148.65 75.5M85.6 58.75l12.9 6.75 3.1 2 1.15 3.85-5.05-1.45L85 63.15l3.25-.55-2.65-3.85m-20.65 5.8q4.8-2.45 8.8-6.2l.2-1.35 3.6.9.05 1.8q-6.5 7.4-15.65 9l-2.6 4q.6-4.45 5.6-8.15" fill="#32929c"/><path d="m183.15 81.5-3.4-1.25-.1-.05-5.95-2.2-21.65-16.2-19-3.05-.55-4.65-.75-.45-11.6-6.75-2.8-1.6-1 1.4-.05.05q-6.55 8.65-17.3 12.9-5.45-9.9-14.2-17.4v-11.8l-.45-.2-3-1.15-.75-1.35q-1.95-4.3 3.65-5.05-1.85-5.15-7.15-7.3-1.6-.5-2.8-1.3-1.7-1.1-2.55-2.6-.55-1-.8-2.2-3.95 4.6-4.45 9.45-.25 2.5.4 5.05.75 2.8 2.6 5.7v6.1l-1.4 2.5 5.6 3.6 3.9 2.55.95-.45q-1.45 8 .15 16l6.3 3.35 12.7 6.75q6.85 6.65 13.1 10.8 13.45 8.95 24.1 6.2 4.25-.15 4 11.3 9.45 5.1 29.65-9.8 4.5-2.3 9.2-3.5l3.2-.7 7.5-.75-5.3-1.95M81.25.9 84 0q12.05 2.3 18.05 9.55 2 10.25-5.3 19l.55 2.3q8.65-2.25 21.4 12.35l-.45.75 15.6 9.35.8 4.25 17.15 2.65q13.6 7.05 23.1 16.6l19.7 7.2q-13.2.45-25.8 5.3-22.5 16-31.1 9.7.65-10.55-2.8-11.3-10.25 3.15-21.1-3.55l-17.45-13.7-2.8-1.1-.4-.15-.85-.35-2.1-.95-.7-.35q-3.6-1.7-6.75-3.65l-1.7-1.1-2.9-2.05q-1.8 2.1-4 3.75L72 68.95l-1.05 2.2-.8 1.6-.6-1.1 3-6.05q-2.1 1.35-4.55 2.3l-1.15.45-2.3.75-.8.2-1.4.35q-11.6 19.2-25.25 33.5Q24.45 78.9 0 71.9l44.95-19.95 19.8-16.05 2.7 1.75 1.4-2.3v-5.3q-7.15-12 2-21.7l1.45-4.5 1.05-.35 1.05-.35q.25 6.4 5.1 7.75 5.4-2.55 6.85-9l-5.1-1m-7.9 2.6L71.9 8.2q-.2 4.95 6.25 6.25 5.7 3.65 8 8.55 2.55 4.2-.95 4.35 1.85-1.55 0-3.7-2.2.2-4 2.55 1.25 4.1 5.35 2.9 4.15.05 3.95-5.7-2.45-6.7-9.7-10.15-6.4-1.7-7.45-9.75m42.2 42.3 1.8-2.5q-4.75-5.7-9-8.7-5.75-4-10.65-3v1.2l-.35 1q-1.7 4.25-6.7 5.6 11.6 4.75 16.6 13.6l2.95-1.95q2.9-2.25 5.35-5.25M99.9 21.7q2.1-5.4 1.65-11.75Q97.15 6 91.7 3.7q-1.35 3.8-4.4 7.05-1.65 1.75-3.8 3.3l4.35 3.35q5.65 5.3 2.1 11.1l-1 1.4.5 8.65q2.75.3 4.8-1.75 1-1.05 1.85-2.65V28.3q2.4-3.1 3.8-6.6M87.3 2.15q-1.25 5.75-6.85 9.4L82.3 13q5.55-3.3 8.4-9.7l-3.4-1.15M85.75 41.6q8.5 8 13.95 16.35l6.5-4q-5.6-10.6-16.65-14.25l-.6-.25-.7-9.45-2.5.55V41.6M73.95 57l-.2 1.35q-4 3.75-8.8 6.2-3.3 1.65-7 2.7-8.5 13.85-20.6 24.2-3.65-10.8 3.85-12.1-2.25 2.95.8 5.05 3.4-1.6 4.25-5.7 5.25-5.05.95-7.05-.7 6.5-10.25 6.25-2.2-3.2-5.05-1.6 7.45 3.55.8 9.8Q23 74.4 7.05 70.3l-3.7 1.45Q30.7 83.4 36.95 101.4q11.8-12.8 22.4-28.7l2.6-4q9.15-1.6 15.65-9l-.05-1.8-.6-12.7-12.35-8.25-19.4 15.8L8 69.25l.5.65 37.35-13.55 19.3-15.55q9.9 4.45 8.8 16.2m-4 2.95 2.75-2q2.35-12.3-7.55-16.1l-7.7 6.25L46 57.4l-13.65 5.2-2.9 1.1-18.25 6.95Q23.8 74.45 32.55 84q5.6-4.15-2.1-7.45 3.6-4.35 7.45.55l4.45-.65q2.65-1 3.7-3.4.5-1.25.6-2.9 2.95 1.25 3.25 3.2.45 2.5-3.25 6.15v1.7q5.55-5.85 9.55-12.65l1.35-2.35q6.6-2.35 12.4-6.25m-27.4 25.5Q38.8 85 39.6 80.4q-4.7 4.05-1.6 9.45l4.55-4.4" fill="#4b262f"/><path d="m179.65 80.25-6.25.75q-12.25-6.2-20.15-16.15l-20.2-6.1 19 3.05L173.7 78l5.95 2.2v.05m-40.2-11.7q-1.65 1.05-2.6 2.2-5.6-9.25-22.25-6.55l-1.95 2.15q-3.5 1.2-4.45 4.2l-6.75-3.9 1.55-2.4q.2.6.75 1.05.85.75 2.05.75 1.2 0 2.05-.75.9-.75.9-1.85 0-1.05-.9-1.8-.65-.65-1.6-.75 2-1.6 4.45-2.7l23.8 4.25 4.95 6.1M73.7 41.7l-5.6-3.6 1.4-2.5 5.75 3.2v-5.3l-5.75-2.55v-.5q4.75-2.65 9.45 1.95 1.6 5.65-5.25 9.3m-6.8-17.9q-.65-2.55-.4-5.05l1.65-2.3q.05 7.65 6.4 9.45l5.6-5.85-5.85-5.95q1.2.8 2.8 1.3 5.3 2.15 7.15 7.3-5.6.75-3.65 5.05-7.7.55-13.7-3.95m3.25 48.95.8-1.6 3.35-.4-.15.2 3.2 4.15 3.6-4.25L79 68.2q1.6-2.55 3.9-1.85l3.4 6.4-1.65 1.3q-4.3-1.8-6.75 2.9-2.3-2.85-5.85-1.6l-1.9-2.6m61.6-19.1-13.6-2.5 2-4.25 11.6 6.75m-23.4-19.05q4.25 3 9 8.7l-1.8 2.5-7.2-11.2m1.85 16.45L107.25 53q-5-8.85-16.6-13.6 5-1.35 6.7-5.6 12.95 3.85 12.85 17.25M32.35 62.6q5.1 11.25 13.7 10.45-1.05 2.4-3.7 3.4-9.2-2.1-12.9-12.75l2.9-1.1M49.9 73.35l6.3-4.8q-4 6.8-9.55 12.65v-1.7q3.7-3.65 3.25-6.15m-7.35 12.1L38 89.85q-3.1-5.4 1.6-9.45-.8 4.6 2.95 5.05" fill="#eed0ad"/><path d="m176.8 81.8 6.35-.3 5.3 1.95-7.5.75-4.15-2.4m-75.2-14.3 7.4 4.65q.15-4.55 4-4.9-2.25 10.7 9.95 6.9l5.2 3.45H117.5l1 1.05-7.7 2.05q-6.25-4.15-13.1-10.8l5.05 1.45-1.15-3.85m-28.25-64q1.05 8.05 7.45 9.75 7.25 3.45 9.7 10.15.2 5.75-3.95 5.7-4.1 1.2-5.35-2.9 1.8-2.35 4-2.55 1.85 2.15 0 3.7 3.5-.15.95-4.35-2.3-4.9-8-8.55-6.45-1.3-6.25-6.25l1.45-4.7m12.4 38.1V30.55l2.5-.55.7 9.45.6.25q11.05 3.65 16.65 14.25l-6.5 4Q94.25 49.6 85.75 41.6m19.45 20.2.6-.05q.9 0 1.55.5.6.5.6 1.25 0 .7-.6 1.2-.65.55-1.55.55t-1.55-.55q-.65-.5-.65-1.2l1.6-1.7" fill="#61b1cf"/><path d="M149.8 85.05q-1.15 4.55-4.5 6.9.3-4.55-1.8-8.1 1.95.15 4.6-1.6-5.05-1.6 0-2.65 2.75 1.8 1.7 5.45M71.75 11.5q.85 1.5 2.55 2.6l5.85 5.95-5.6 5.85q-6.35-1.8-6.4-9.45l3.6-4.95m-42.3 52.2q3.7 10.65 12.9 12.75l-4.45.65q-3.85-4.9-7.45-.55 7.7 3.3 2.1 7.45-8.75-9.55-21.35-13.35l18.25-6.95" fill="#fffeee"/><path d="M84 41.05 82.8 57.3l2.8 1.45 2.65 3.85-3.25.55-6.3-3.35q-1.6-8-.15-16l.95-.45 4.5-2.3m3.3-38.9 3.4 1.15q-2.85 6.4-8.4 9.7l-1.85-1.45q5.6-3.65 6.85-9.4M73.95 57q1.1-11.75-8.8-16.2l-19.3 15.55L8.5 69.9l-.5-.65 37.2-16.5 19.4-15.8 12.35 8.25.6 12.7-3.6-.9" fill="#176b74"/><path d="m97.85 64.55-14.1-8.2 1.05-14.1q8.75 7.5 14.2 17.4 10.75-4.25 17.3-12.9l-3.45 6 8.1 4.55q-15.15-3.6-23.1 7.25M84.8 40.65l-.8.4-4.5 2.3q3.9-5.7 4.85-13.1l.45.2v10.2M72 68.95l2.15-4.45q2.2-1.65 4-3.75l2.9 2.05.15.35q-2.7-.4-3.8 2.8l-.3-.45-1.45 2.75-3.65.7m15.3-58.2q3.05-3.25 4.4-7.05 5.45 2.3 9.85 6.25.45 6.35-1.65 11.75l-5.5 6.85-.15 8.25q-2.05 2.05-4.8 1.75l-.5-8.65 1-1.4q10.1-6.85-2.65-17.75m-17.35 49.2-.15-4.4-12.35-7.45 7.7-6.25q9.9 3.8 7.55 16.1l-2.75 2" fill="#a77c74"/><path d="m81.25.9 5.1 1q-1.45 6.45-6.85 9-4.85-1.35-5.1-7.75L81.25.9" fill="#4b0c1f"/><path d="M136.85 70.75q-3.45 4.2 2.45 9.25l1.1 2q-4.65-1.55-10.95 0-5.45-.5-9.3-3.3h10.5l-8.25-6q-11.25 4.8-8.6-6.65l-1.15.3 1.95-2.15q16.65-2.7 22.25 6.55M69.5 35.6v-4.65l5.75 2.55v5.3l-5.75-3.2" fill="#fff3ce"/><path d="m63.75 69.3.8-.2q.55 2.35 1.6 4.7 1.05 2.3 2.55 4.6l.3.45q3.05 4.6 6.5 2.75 2.3-2.45 1-4.45l-1.65-1.55q-4.95 1-1.95 3.95l.45.45q-2.65-.15-2.25-4L69 72.2l-1.6-2.9-.55-.95L68 67.9l1.55 3.75.6 1.1 1.9 2.6q3.55-1.25 5.85 1.6 2.45-4.7 6.75-2.9l1.65-1.3.95-1.1q1.2-1.6 2.25-4.1l.7.35-.5 1.2-.8 1.6q-1.65 2.9-4 4.85.6 1.95-.35 3.4-3.35 1.7-4.15-.55 1.65.9 3.5 0 .9-2.4-.8-3.85l-.5-.4q-3.35 0-4.05 4.1.35 1.6 1.4 2.55 1.2 1.1 3.35 1.25 3.3-.75 6.05-5.4 2.55-3.2 3.8-7.45l.4.15Q90 81.4 78 88.65q-10.25-6.4-14.25-19.35m12.5 16.5 1.9 1.5 3.7-3.35.7-.6q-3.3-.75-4.55-4-1.05 3.55-4.5 4.25l2.75 2.2" fill="#61241f"/><path d="m79 68.2 1.95 2.65-3.6 4.25-3.2-4.15.15-.2 1.35-2.5 1.45-2.75.3.45L79 68.2m-1.65 5.55 2.6-2.95-2.8-4.1-2.2 4.1 2.4 2.95" fill="#180904"/><path d="m64.55 69.1 2.3-.75.55.95-1.25 4.5q-1.05-2.35-1.6-4.7m25.65-1.2 2.1.95-.65 2.5-1.95-2.25.5-1.2" fill="#6b441b"/><path d="m92.3 68.85.85.35q-1.25 4.25-3.8 7.45-2.75 4.65-6.05 5.4-2.15-.15-3.35-1.25l1.9.1q4.5-.35 8.5-6.55.55-1.95-1.45-3.65l.8-1.6 1.95 2.25.65-2.5m-24.9.45 1.6 2.9q-1.55 3.6 0 6.65l-.3-.45q-1.5-2.3-2.55-4.6l1.25-4.5m14.45 14.65-2.65-.9-2.95 2.75-2.75-2.2q3.45-.7 4.5-4.25 1.25 3.25 4.55 4l-.7.6" fill="#9f6b44"/><path d="M72.9 79.55q-3-2.95 1.95-3.95l1.65 1.55q-1.65 2.5-3.6 2.4m7.05 1.25q-1.05-.95-1.4-2.55.7-4.1 4.05-4.1l.5.4q.4 4.6-3.6 3.45.6 1.85 2.35 2.9l-1.9-.1" fill="#f1df67"/><path d="m69 72.2 2.1 3.8q-.4 3.85 2.25 4l-.45-.45q1.95.1 3.6-2.4 1.3 2-1 4.45-3.45 1.85-6.5-2.75-1.55-3.05 0-6.65m12.85 8.7Q80.1 79.85 79.5 78q4 1.15 3.6-3.45 1.7 1.45.8 3.85-1.85.9-3.5 0 .8 2.25 4.15.55.95-1.45.35-3.4 2.35-1.95 4-4.85 2 1.7 1.45 3.65-4 6.2-8.5 6.55m-5.6 4.9 2.95-2.75 2.65.9-3.7 3.35-1.9-1.5" fill="#ed9830"/><path d="M68 67.9q2.45-.95 4.55-2.3l-3 6.05L68 67.9m14.75-4q3.15 1.95 6.75 3.65-1.05 2.5-2.25 4.1l-4.5-7.75" fill="#3a9293"/><path d="m81.05 62.8 1.7 1.1 4.5 7.75-.95 1.1-3.4-6.4-1.7-3.2-.15-.35" fill="#4c2632"/><path d="m77.25 70.25.1 3.5-2.4-2.95 2.3-.55" fill="#00f0ff"/><path d="m77.15 66.7.1 3.55-2.3.55 2.2-4.1" fill="#aaffe4"/><path d="m77.25 70.25-.1-3.55 2.8 4.1-2.6 2.95-.1-3.5" fill="#003f8c"/><path d="M103.6 63.5q0 .7.65 1.2.65.55 1.55.55t1.55-.55q.6-.5.6-1.2 0-.75-.6-1.25-.65-.5-1.55-.5l-.6.05q-.5.1-.95.45-.65.5-.65 1.25m-.6.75-.1-.8q0-1.05.85-1.8.85-.8 2.05-.8l.45.05q.95.1 1.6.75.9.75.9 1.8 0 1.1-.9 1.85-.85.75-2.05.75-1.2 0-2.05-.75-.55-.45-.75-1.05" fill="#452330"/><path d="M103.6 63.5q0-.75.65-1.25.45-.35.95-.45l-1.6 1.7" fill="#3095a1"/></g><g id="z" fill-rule="evenodd"><path d="M2.3 9.25Q5.05 5.4 8.15 4.3q0 2.3 6.35 1.45 6.75-.5 13.15 2.15 1.85 2.05 3.25 4.65-13.5-10.3-25.3-.6-2.25 1.85-4.45 4.45 0-4.15 1.15-7.1v-.05m34.45-3.8q1 1.35 1.8 3.05L35.5 8q-3.7-5.85-11.95-4.9l-1.6-.95q4.7-1.6 8.25-.9 1.7 4.3 6.55 4.2" fill="#ed9830"/><path d="M27.65 7.9Q23.6 3.55 17.2 1.75 5.45 1.3 2.3 9.25v.05q-1.15 2.95-1.15 7.1l.35 4.5q5 11.9 16.75 12.3l5.05-.3q5.05-1.85 7.5-5.25 2.85-3.95 2.05-10.05l-.3-1.05-1.65-4q-1.4-2.6-3.25-4.65m3.95-2.05q-2.8-1.8-6.6-1.8 2.25 1.6 3.95 3.5 1.5 1.65 2.5 3.55 2.15 3.95 2.35 8.75 2.65-4.15 2-9.3l-.2-.35-.7-1.1q-1.45-2.05-3.3-3.25m6.95 2.65q-.8-1.7-1.8-3.05Q34.1 2 30.2 1.25q-3.55-.7-8.25.9l1.6.95Q31.8 2.15 35.5 8l1.2 1.9q.8 6.4-2.8 11.55l-.75 2.9q7.8-4.1 6.35-13.55l-.95-2.3m.65-.35q4.6 10.5-6.35 17.55-6.25 11.45-19.65 7.7-17.25-7-12-23.4Q5.4-1.8 20.75 1.5q8.5-3.75 15.7 1.85 1.75 2.5 2.75 4.8" fill="#612223"/><path d="M28.95 7.55q-1.7-1.9-3.95-3.5 3.8 0 6.6 1.8l-2.65 1.7" fill="#c78f65"/><path d="M27.65 7.9q-6.4-2.65-13.15-2.15-6.35.85-6.35-1.45-3.1 1.1-5.85 4.95 3.15-7.95 14.9-7.5 6.4 1.8 10.45 6.15m9.1-2.45q-4.85.1-6.55-4.2 3.9.75 6.55 4.2" fill="#f1df67"/><path d="M1.15 16.4q2.2-2.6 4.45-4.45 10.1-5.05 18.85-1.2.4 10.3-3.4 17.95-1.2 2.35-2.8 4.5Q6.5 32.8 1.5 20.9l-.35-4.5" fill="#f59d31"/><path d="M5.6 11.95q11.8-9.7 25.3.6l1.65 4q-3.9-3.95-8.1-5.8Q15.7 6.9 5.6 11.95M35.5 8l3.05.5.95 2.3q1.45 9.45-6.35 13.55l.75-2.9q3.6-5.15 2.8-11.55L35.5 8m-4.7 19.65q-2.45 3.4-7.5 5.25l-5.05.3q1.6-2.15 2.8-4.5l9.75-1.05" fill="#9f6b44"/><path d="m30.8 27.65-9.75 1.05q3.8-7.65 3.4-17.95 4.2 1.85 8.1 5.8l.3 1.05q.8 6.1-2.05 10.05" fill="#6b441b"/><path d="m34.9 9.1.7 1.1.2.35q.65 5.15-2 9.3-.2-4.8-2.35-8.75l3.45-2" fill="#803b18"/><path d="M31.6 5.85q1.85 1.2 3.3 3.25l-3.45 2q-1-1.9-2.5-3.55l2.65-1.7" fill="#9b512a"/></g><g id="A" fill-rule="evenodd"><path d="m22.1 14.5 9.8-12.75.3 4.15-.7 1.15-3.6 6.15 1-4.75-1.9 1.7-4.9 4.35" fill="#aaffe4"/><path d="m32.2 5.9-.3-4.15-9.8 12.75-1.2 1.55-.15-.75L32.3 0q2.1 11.4 2.15 21.95l-1.1.3-.8-11.55-.35-4.8" fill="#01355e"/><path d="m31.5 7.05.7-1.15.35 4.8-5.3 11.95-1.45-.35 5.7-15.25" fill="#008865"/><path d="m27 10.15 1.9-1.7-1 4.75-3.2 8.6q-1.45-.8-2.35-2.25l4.65-9.4" fill="#08ecf6"/><path d="m28.45 24.15-1.7.05-2.55-.25.2-1.45q3.55 1.65 9.35.5l-1.25.45-4.05.7" fill="#efdc66"/><path d="m26.75 24.2 1.7-.05-.35 2.5-1.75.15.4-2.6" fill="#a36a41"/><path d="m28.45 24.15 4.05-.7.15 2.25-4.55.95.35-2.5M16.9 13.55q-2.9 3.65-4.35 7.8l-1.6-4.4q2.35-3.3 5.3-5.85l.65 2.45m-.55 16.05v1.65q-3.95 1.15-6.9 4l2.45-2.9 4.45-2.75m0 16.85q1.25-3.75 4-7.75l1.35.5q-1.55 1.3-2.2 2.6-1 1.9.15 3.85l-1.95 2.4q-.75-.65-1.35-1.6m11.6-9.5.25-.5 1.45-1.9 3.5.65-1.45 1.7-3.75.05m9-2.3H37l1.9-.8 1.5 1.5-.65-1.95 1.75-1.2.1.55q-.05 5.15-2.8 6.65l-4.65-2.35 2.8-2.4m-18.3-13.7 1.2-1.6q.5 1.2 1.35 2.2l-.7 2.7q-1.3-1.4-1.85-3.3" fill="#6b441b"/><path d="m32.5 23.45 1.25-.45v2.25l-1.1.45-.15-2.25M16.25 11.1l1.3-1.1.55 2.1-1.2 1.45-.65-2.45" fill="#a16d46"/><path d="m33.35 22.25 1.1-.3.25 3.05.35.2-1.3.65-.1-.05.1.1q-4.05 1.8-9 1.5-8.5-3.35-7.2-9.85l3.2-2.25.15.75q.5 2.05 1.45 3.5.9 1.45 2.35 2.25l1.1.5 1.45.35 6.1-.4m.4.75q-5.8 1.15-9.35-.5l-2.05-1.35-2-4.8-1.1.8-1.05.7q0 1.7.45 3.1.55 1.9 1.85 3.3.95.95 2.25 1.65l2.5.95 1.1-.05 1.75-.15 4.55-.95 1.1-.45V23" fill="#4e1e18"/><path d="m32.55 10.7.8 11.55-6.1.4 5.3-11.95" fill="#003f8c"/><path d="m22.1 14.5 4.9-4.35-4.65 9.4q-.95-1.45-1.45-3.5l1.2-1.55m5.8-1.3 3.6-6.15-5.7 15.25-1.1-.5 3.2-8.6" fill="#019be1"/><path d="m16.9 13.55 1.2-1.45-.55-2.1-1.3 1.1q-2.95 2.55-5.3 5.85l-1.1 1.55q-1 2.05-1.6 4.05l-.05.05q-2.2 7.05.45 13.45l.8-.8q2.95-2.85 6.9-4v-3.3L14.3 26.9q-2.45-.55-3.9 2.9l.15-.5.75-2.55q.35-2.8 1.25-5.4 1.45-4.15 4.35-7.8M9.7 16.4l.7-1.1q3.35-4.85 7.95-6.1.1 1.8.6 3.2-3.1 3.25-4.85 7-.8 1.7-1.3 3.45l-.7 3.2 2.15-.05q2.65.25 3.3 2.4.35 1.1.2 2.7l-.2 1.2q-4.4.95-9.05 5.35Q3.1 27.7 9.7 16.4" fill="#632723"/><path d="m10.4 15.3-.7 1.1-3.15-2.7Q1.85 18.95 1 26.5q-.3 2.25-.2 4.65l.15 2.5q.4 2.6 1.1 4.85.65 2.1 1.55 3.8.95 1.95 2.25 3.45 3.3 3.95 8.65 4.75l.35-1.65.35-1.45q1.5-5.4 4.65-9.2 2.3-2.85 5.55-4.8-3.8-2-7.85-1.1l.2-1.2q3.55-.65 6.8.4l1.4.55q11.75 4.15 16.2-2l-2.6-1.3-5.8-2.9 1.3-.65 8.8 4.7-1.65 1.7-.7.6-1.75 1.2.65 1.95-1.5-1.5-1.9.8h-.05l-2.5.5-1.3.05-3.5-.65-1.45 1.9-.25.5q-.9 2.2-2.05 3.55l-1.7 1.4-.55-.95q-.8-1.1-1.95-1.75l-1.35-.5q-2.75 4-4 7.75l-.25.85q-.65 2.05-.8 4-10.7-.45-13.8-12.1Q-3.05 26 6.15 12.75l4.25 2.55m11 23 3.05 2.5 4-6.25-2-.75-5.05 4.5" fill="#251613"/><path d="m10.55 29.3-.15.5q2.95.2 3.9-2.9v2.6l-2.4 2.85-2.45 2.9L8.2 31.8q1.65-1.05 0-3.45V22.6l.05-.05 2.65-1.25-.35 8m13.1 11.65.55.95 1.7-1.4 1.9 1 3.9-4.6 1.45-1.7 1.3-.05-5.6 7.25q-5.55.8-4.3 5.85l-1.7.55-2.1.25v-2.8q3.5.35 3.45-4.35l-2 2.9-1.6-.1q-.2-2.6 3.05-3.75" fill="#ed9830"/><path d="M17.55 28.4q-.65-2.15-3.3-2.4l-1.45-3.15q.5-1.75 1.3-3.45l3.6 6.8 10.2 3.2-10.35-1M1 26.5l3 7.15-.15 3.05-.25 5.6 11.6 5.1-.35 1.45-9-3.1q-1.3-1.5-2.25-3.45-.9-1.7-1.55-3.8l.35-3.15-1.6-4.2q-.1-2.4.2-4.65" fill="#b95b3d"/><path d="M9.7 16.4Q3.1 27.7 8.5 37.65q4.65-4.4 9.05-5.35 4.05-.9 7.85 1.1-3.25 1.95-5.55 4.8-12.35 5-16-1.5L4 33.65 1 26.5q.85-7.55 5.55-12.8l3.15 2.7m29.85 12.35 2.6 1.3q-4.45 6.15-16.2 2l-1.4-.55h8.75l4.6-2q.8-.35 1.65-.75M21.4 38.3l5.05-4.5 2 .75-4 6.25-3.05-2.5" fill="#4f1e18"/><path d="M12.55 21.35q-.9 2.6-1.25 5.4l-.75 2.55.35-8-2.65 1.25q.6-2 1.6-4.05l1.1-1.55 1.6 4.4m1.75 5.55 2.05 1.05v1.65l-4.45 2.75 2.4-2.85v-2.6m11.6 13.6q1.15-1.35 2.05-3.55l3.75-.05-3.9 4.6-1.9-1m-4.7-18.95L22.75 23v2.9q-1.3-.7-2.25-1.65l.7-2.7m-3.5 26.5 1.95-2.4.3.5.8.1v2.8q-1.8 0-3.05-1m23.9-15.3q1.2 4.55-1.4 7.3l-1.4-.65q2.75-1.5 2.8-6.65" fill="#9f6b44"/><path d="M18.65 20.95q-.45-1.4-.45-3.1l1.05-.7q.15 1.15.6 2.2l-1.2 1.6" fill="#9f6c45"/><path d="m24.4 22.5-.2 1.45-1.45-.95-1.55-1.45q-.85-1-1.35-2.2-.45-1.05-.6-2.2l1.1-.8 2 4.8 2.05 1.35" fill="#e29233"/><path d="m24.2 23.95 2.55.25-.4 2.6-1.1.05-2.5-.95V23l1.45.95" fill="#e19233"/><path d="M17.75 31.1q.15-1.6-.2-2.7l10.35 1-10.2-3.2-3.6-6.8q1.75-3.75 4.85-7 .55 1.75 1.8 2.9l-3.2 2.25q-1.3 6.5 7.2 9.85 4.95.3 9-1.5l4.15 3.6-4.6 2h-8.75q-3.25-1.05-6.8-.4m-3.5-5.1-2.15.05.7-3.2L14.25 26M3.85 36.7q3.65 6.5 16 1.5-3.15 3.8-4.65 9.2L3.6 42.3l.25-5.6m-1.8 1.8q-.7-2.25-1.1-4.85l-.15-2.5 1.6 4.2-.35 3.15m12.8 10.35-.35 1.65q-5.35-.8-8.65-4.75l9 3.1" fill="#672b25"/><path d="M10.4 29.8q1.45-3.45 3.9-2.9-.95 3.1-3.9 2.9m-.95 5.45-.8.8Q6 29.65 8.2 22.6v5.75q1.65 2.4 0 3.45l1.25 3.45m15.1 13q-1.25-5.05 4.3-5.85-.95 4.25-4.3 5.85" fill="#f1df67"/><path d="M21.7 39.2q1.15.65 1.95 1.75-3.25 1.15-3.05 3.75-1.5-.55-1.1-2.9.65-1.3 2.2-2.6" fill="#9e6b44"/><path d="m16.1 47.3.25-.85q.6.95 1.35 1.6 1.25 1 3.05 1l2.1-.25 1.7-.55q3.35-1.6 4.3-5.85l5.6-7.25 2.5-.5-2.8 2.4-.55.55q-2.1 2.35-3.4 5.2-2.15 4.9-4.65 6.5l-1.35.6q-6.3 2.5-8.1-2.6" fill="#612624"/><path d="M19.65 45.65q-1.15-1.95-.15-3.85-.4 2.35 1.1 2.9l1.6.1 2-2.9q.05 4.7-3.45 4.35l-.8-.1-.3-.5" fill="#6e3126"/><path d="m33.75 25.85 5.8 2.9q-.85.4-1.65.75l-4.15-3.6v-.05" fill="#bb5d3e"/><path d="m41.5 32.2.7-.6q1.85 4.75-1.15 8.9l-.85-.45q2.6-2.75 1.4-7.3l-.1-.55" fill="#642622"/><path d="M25.55 49.3q2.5-1.6 4.65-6.5 1.3-2.85 3.4-5.2l4.1 2.15h-3q-2.8 8.4-1.9 15.4-4.15-1.9-7.25-5.85" fill="#2b1814"/><path d="m40.2 40.05.85.45 5.2 2.6-.2 1-3.45-1.8-4.9-2.55-4.1-2.15.55-.55 4.65 2.35 1.4.65m-7.4 15.1q1.35.6 2.85 1 3.6.95 7.9.55l-.2 1.15Q31.2 58.6 24.2 49.9l1.35-.6q3.1 3.95 7.25 5.85" fill="#180d0c"/><path d="m42.6 42.3 3.45 1.8-2.5 12.6q-4.3.4-7.9-.55v-11.6l6.95-2.25" fill="#5b3d36"/><path d="m37.7 39.75 4.9 2.55-6.95 2.25v11.6q-1.5-.4-2.85-1-.9-7 1.9-15.4h3" fill="#462a24"/><path d="M73.65 48.05q-1.45-3.15-4.1-5.8-5.65-5.6-13.65-5.6l-4 .4q-4.35.8-7.9 3.6l-1.8 1.6q-5.65 5.55-5.65 13.45 0 7.85 5.65 13.45l.5.5q4.55 4.15 10.5 4.9l2.7.15q8 0 13.65-5.55l.95-1q4.7-5.3 4.7-12.45 0-4.15-1.55-7.65m-3.5-6.8q6 5.9 6 14.25t-6 14.25q-6 5.9-14.45 5.9-8.5 0-14.5-5.9-5.95-5.9-5.95-14.25t5.95-14.25q6-5.9 14.5-5.9 8.45 0 14.45 5.9" fill="#5e2928"/><path d="m51.9 37.05 4-.4q8 0 13.65 5.6 2.65 2.65 4.1 5.8.3 3.7 0 6.8Q72.9 63.3 67.5 67q-13.3 8.95-21.75-3.6-3.2-6.3-3-11.65.35-8.55 9.15-14.7" fill="#6b441b"/><path d="m70.5 68.15-.95 1Q63.9 74.7 55.9 74.7l-2.7-.15q-12.25-7.75-10.45-22.8-.2 5.35 3 11.65Q54.2 75.95 67.5 67q5.4-3.7 6.15-12.15.6 7.6-3.15 13.3" fill="#9f6b44"/><path d="M73.65 48.05q1.55 3.5 1.55 7.65 0 7.15-4.7 12.45 3.75-5.7 3.15-13.3.3-3.1 0-6.8M53.2 74.55q-5.95-.75-10.5-4.9-4.95-13.15 1.3-29 3.55-2.8 7.9-3.6-8.8 6.15-9.15 14.7-1.8 15.05 10.45 22.8" fill="#ed9830"/><path d="m42.7 69.65-.5-.5q-5.65-5.6-5.65-13.45 0-7.9 5.65-13.45l1.8-1.6q-6.25 15.85-1.3 29" fill="#f1df67"/></g><g id="B" fill-rule="evenodd"><path d="m37 29.4-.1-2.3-.45-11.8 7.7 10.75L56.35 0 53.7 37.65l6.9-2.8-8.75 10.6-.45 3.25-1.4.5.85-3.15.35-1.25 3.35-3.9 3.4-3.95-8.5 3.5-1.8.75-1.4.55 5.85-3.7.1-.65 1.5-16.05.55-5.75.35-3.35.7-7.6-9.45 23.3-1.05 2.5.9 2.45 1.15 2.9-.1.05-6.9-12.8-1.7-3.1L38.7 40l-.8 1.75-2.2 4.95-1.95 4.25-.9-1 4.5-11L37 29.4" fill="#4c2731"/><path d="M19.7 32.35q4.95-5.3 11.55-4.3 3.55 1.05 5.65-.95l.1 2.3q-14.05.9-17 6.35l-.3-3.4" fill="#725049"/><path d="m45.7 32.9-.9-2.45 1.05-2.5q4.55-3.3 8.75-15.7l-.35 3.35-3.85 12.55q-1.85 4.05-4.7 4.75" fill="#e9962f"/><path d="m37.9 41.75.8-1.75-.55-20.05 1.7 3.1 3.1 15.4-5.3 8.75.25-5.45" fill="#eddb65"/><path d="m13.7 17.6.25-2.7 2.1 6.3-.9 19.3-1.45-22.9" fill="#e7942f"/><path d="m19.7 32.35.3 3.4.2 5.45-1.4 2.1q.15-7.95-1.15-15.3l-1.6-6.8-2.1-6.3-.25 2.7-2 19.75 3.35 5-.05.05-5.7-6.9-2.15-2.65 3.2 14.75-1.85 7.45.1.8.4 4.35L6.9 59v-5.3L3.2 42.4l4.5 2.15-2.1-15.3 4.75 5.05q.1-12.95 3.1-24.45 4.85 8.9 6.25 22.5m-13.85 13 2.4 7.95.75-3.6.3-1.55-3.45-2.8" fill="#4d2730"/><path d="M45.7 32.9q2.85-.7 4.7-4.75l-4.15 13.6v5.85l-3.7 3.7-7.6.8-1.2-1.15 1.95-4.25.75 3.95q6.85-.8 10.3-14.8l.3.6-.2-.65-1.15-2.9m-30.55 7.6.9-19.3 1.6 6.8q-.25 13.6-3.05 23.7-.9 2.4-1.55 4.95l-1.5-1.2 3.85-12.5-.35-.6.1-1.85M47.3 60.45l-4.8 10.3.75-2.7 3.4-12.2-1.45.2-.55-3.4h2.65v7.8m7.25-19.55-3.35 3.9-.35 1.25q-2.6-1.05-3.2-4.85l1.8-.75q1.4 3.25 5.1.45M51.15 63l4.15-1.3-2 3.95L51.95 64l-.8-1" fill="#9f6b44"/><path d="m51.4 48.7 1.35-.55-5.85 15 10-2.65q-.95 7.25-5.6 13.3h6.5q-2.2 7.65-20.2 16.35l-6.75 4.35-6.8-3.45Q15.8 88.9 9.85 83.2h4L6.4 71.65H8l-8-15.3L6.9 59 9 60.2l1.1.6.2 1.85-2.15-1-4.45-2.1 4.35 8.2.85 1.6 1.35 2.55 3 .6.95 1.75-5.7-1.55q2.6 3.65 5.8 6.75l4.6 3.95-1.2.15-.95.15-4.4.6q2.05 1.35 4.1 2.4 2.3 1.2 4.65 2l1.9.65-2-4.4q2.55 1.75 5.3 3.3l.55.25 7.25-6.4 4.3-3.8 4.1-7.55 4.8-10.3 2.1-5.25 1.75-4.85-1.6.35-5.05.95-7.05 1.3-1.85.35 4.65 4.55 2.7 7.15-3.2 8.65 1.7-8.4-2.1-6.75Q34.8 54.25 31 49.35q-2.95-3.85-5.5-8l-1.85-3.2q-7.05 8.05-9.7 19.05l-.9-.55q.65-2.55 1.55-4.95 1.65-4.5 4.2-8.4l1.4-2.1q1.75-2.45 3.85-4.65 1.45 2.9 3 5.45l.9 1.4q2.35 3.65 4.9 6.55l.9 1 1.2 1.15 7.6-.8q3.7-.75 7.45-2.1l1.4-.5m3.9 13L51.15 63l-4.1 1.35L39.1 79.1l.9 2.65-1.7 6.8q4.3-1.65 7.85-3.85 6.75-4.15 10.45-10.1l-2.9.1-2.95.15-7.8 6.15Q54.6 69.9 55.3 61.7M36.6 89.75l.6-.4 1.9-7.2-.95-2.8-4.6 4.2L29.7 87 27 89.45l-4.4-2.75 2 3.85 6.35 3.05 1.2-.8 4.45-3.05M16.5 83.2l-3.85-4.1 2.25 4.1h1.6" fill="#1c100e"/><path d="M20 35.75q2.95-5.45 17-6.35l.35 9.55q-5.5-.1-9.4 4.45l-.9-1.4q.2-5.75 4.6-7.85-4.55-.55-7.6 2.4-2.1 2.2-3.85 4.65l-.2-5.45M32.15 92.8l-1.2.8-6.35-3.05-2-3.85 4.4 2.75L29.7 87q-1.95 4.95 2.45 5.8" fill="#efe2cd"/><path d="M27.05 42q-1.55-2.55-3-5.45 3.05-2.95 7.6-2.4-4.4 2.1-4.6 7.85m.9 1.4q3.9-4.55 9.4-4.45l-4.5 11q-2.55-2.9-4.9-6.55m5.6 40.15q4.3.85 3.05 6.2l-4.45 3.05q-4.4-.85-2.45-5.8l3.85-3.45" fill="#ceb88f"/><path d="m25.5 41.35-1.55 1.9q-4.55 6.2-5.65 16.45l-4.35-2.5q2.65-11 9.7-19.05l1.85 3.2m-11.2 38.1q-3.2-3.1-5.8-6.75l5.7 1.55q1.25 1.95 2.8 3.7l-2.7 1.5m9.3-3.5-2.2-8.15 1.9 1 3.55 9.1-3.25-1.95" fill="#db7678"/><path d="m23.95 43.25 1.55-1.9q2.55 4.15 5.5 8-3.9-2.35-4.7 2.5L23.15 50l.8-6.75" fill="#ae5b5a"/><path d="m15 42.4.4.55-3.85 12.5-1.45-1.2q-.25 3.45 0 6.55L9 60.2l-.4-4.35 3.75-10.65-3.05-9.7 5.7 6.9m-6 7.3-.75 3.6-2.4-7.95L9 49.7" fill="#ea962f"/><path d="M54.6 12.25q-4.2 12.4-8.75 15.7l9.45-23.3-.7 7.6M13.7 17.6l1.45 22.9-.1 1.85-3.35-5 2-19.75M9.3 35.5l3.05 9.7L8.6 55.85l-.1-.8 1.85-7.45-3.2-14.75L9.3 35.5M9 49.7l-3.15-4.35 3.45 2.8L9 49.7m40.55 1 1.6-.35-1.75 4.85.15-4.5" fill="#f1df67"/><path d="m13.95 57.2 4.35 2.5 3.4 1.95.3 1.55-1.45-.85-9.9-6q.25 4.7 1.15 8.65 2.25 9.95 8.45 15.1l1.3 1-.3.65Q18.9 80 17 77.95q-1.55-1.75-2.8-3.7l-.95-1.75Q11.8 69.75 11 66.55l-.7-3.9-.2-1.85q-.25-3.1 0-6.55l1.45 1.2 1.5 1.2.9.55" fill="#00345e"/><path d="M18.3 59.7q1.1-10.25 5.65-16.45l-.8 6.75 3.15 1.85q.8-4.85 4.7-2.5 3.8 4.9 8.35 9.15l2.1 6.75-1.7 8.4 3.5-5.6-.75 2.7-4.1 7.55-4.3 3.8q7.65-10.8 4.6-23.1l-3.5-3.55L36.7 61l-7.3-2.25-7.85-8.25q-.7 5.7.15 11.15l-3.4-1.95m6.3-2.15-.25-.8 10.45 8 .4.35-3.85 4.3-5.05-6.6-1.7-5.25m12.85-4.6 7.05-1.3.15 1 .55 3.4q-5 .6-7.75-3.1M21.1 88.7q-2.35-.8-4.65-2l.3-3 .95-.15 3.4 5.15m-7.85-16.2-3-.6-1.35-2.55 1.75.55.35-3.35q.8 3.2 2.25 5.95m38.7-8.5 1.35 1.65q-4.9 9.1-11.2 16.05 5-6.55 7.45-15.25l2.4-2.45m-19.4 9.75q-.1 5.35-3.4 5.95-.2-4.05-2.95-8.05l4.2 3.6.05-2.6 2.1 1.1" fill="#83423e"/><path d="m24.3 56.8.3.75 1.7 5.25 1.2 3.5-4.5-2.9q-.85-4.65-.65-10.5l.9.85 1.05 3.05" fill="#da7678"/><path d="m34.8 64.75-11.55-11-.9-.85q-.2 5.85.65 10.5.45 2.5 1.2 4.65l8.35 5.7-2.1-1.1-7.15-3.85-1.9-1 2.2 8.15.8 2.9.35 1.15-1.55-3.05v-.1l-1.3-3.5q-.9-2.95-1.45-6.2l-.1-.8 2.8 1.3-.8-2.75-.35-1.7-.3-1.55q-.85-5.45-.15-11.15l7.85 8.25L37.2 67l-2-1.9-.4-.35" fill="#190e0b"/><path d="m24.35 56.75-.05.05-1.05-3.05 11.55 11-10.45-8" fill="#b25d5d"/><path d="m50.4 28.15 3.85-12.55-.55 5.75-3.3 11.5 1.8 4.55-.1.65-5.85 3.7 1.4-.55q.6 3.8 3.2 4.85L50 49.2q-3.75 1.35-7.45 2.1l3.7-3.7v-5.85l4.15-13.6M17.65 28q1.3 7.35 1.15 15.3-2.55 3.9-4.2 8.4 2.8-10.1 3.05-23.7" fill="#6b441b"/><path d="m37.9 41.75-.25 5.45 5.3-8.75-3.1-15.4 6.9 12.8q-3.45 14-10.3 14.8l-.75-3.95 2.2-4.95" fill="#eb9730"/><path d="m39.75 73.65 3.2-8.65-2.7-7.15-4.65-4.55 1.85-.35q2.75 3.7 7.75 3.1l1.45-.2-3.4 12.2-3.5 5.6" fill="#512931"/><path d="m44.5 51.65 5.05-.95-.15 4.5-2.1 5.25v-7.8h-2.65l-.15-1" fill="#ed9830"/><path d="m27.5 66.3-1.2-3.5 5.05 6.6 3.85-4.3 2 1.9-7.8-8.25L36.7 61l-1.5-5.55L38.7 59q3.05 12.3-4.6 23.1l-7.25 6.4-.55-.25-4.75-7.15 1.2-3 .45-1.15L24.75 80l-.35-1.15q2.9 1.15 4.75.85 3.3-.6 3.4-5.95l-8.35-5.7 4.1.8-.8-2.55" fill="#4a252f"/><path d="m52.2 37.4-1.8-4.55 3.3-11.5-1.5 16.05" fill="#9d6a43"/><path d="M54.55 40.9q-3.7 2.8-5.1-.45l8.5-3.5-3.4 3.95" fill="#ec9830"/><path d="m42.95 81 7.8-6.15 2.95-.15v1.9l-.35.35-12 8.15L40 81.75l-.9-2.65 7.95-14.75 4.1-1.35.8 1-2.4 2.45q-2.45 8.7-7.45 15.25l.05.05.8-.75" fill="#4a262f"/><path d="M55.3 61.7q-.7 8.2-12.35 19.3l-.85.7q6.3-6.95 11.2-16.05l2-3.95m-1.6 13 2.9-.1q-3.7 5.95-10.45 10.1l7.2-7.75.35-.35v-1.9" fill="#ef9a2f"/><path d="m33.55 83.55 4.6-4.2.95 2.8-1.9 7.2-.6.4q1.25-5.35-3.05-6.2" fill="#735d46"/><path d="M46.15 84.7q-3.55 2.2-7.85 3.85l1.7-6.8 1.35 3.35 12-8.15-7.2 7.75" fill="#84423e"/><path d="m23 63.4 4.5 2.9.8 2.55-4.1-.8q-.75-2.15-1.2-4.65m3.3 24.85q-2.75-1.55-5.3-3.3l-2.1-1.55-4.6-3.95 2.7-1.5q1.9 2.05 4.25 3.8l.3-.65 4.75 7.15m2.85-8.55q-1.85.3-4.75-.85l-.8-2.9 3.25 1.95-3.55-9.1 7.15 3.85-.05 2.6-4.2-3.6q2.75 4 2.95 8.05" fill="#b05c5c"/><path d="m23.2 76.95-.45 1.15-4-8.6 3.15 3.85 1.3 3.5v.1m-2.65-14.6 1.45.85.35 1.7-3.05-.7 1.05 2.15.1.8-2.85-1.6.1-3.95 2.85.75m-4.9-1.3.5 3.05-3.1-3.75 2.6.7" fill="#019ce1"/><path d="M20.35 66.35 19.3 64.2l3.05.7.8 2.75-2.8-1.3" fill="#008865"/><path d="m22.75 78.1-1.2 3-1.3-1q-4.1-5.15-5.85-10.7-1.45-4.4-1.35-9.05l3.1 3.75 1.25 7.55.2-6.1 2.85 1.6q.55 3.25 1.45 6.2l-3.15-3.85 4 8.6" fill="#003f8c"/><path d="m20.55 62.35-2.85-.75-2.05-.55-2.6-.7q-.1 4.65 1.35 9.05L11.8 65q-.9-3.95-1.15-8.65l9.9 6" fill="#aaffe4"/><path d="m17.7 61.6-.1 3.95-.2 6.1-1.25-7.55-.5-3.05 2.05.55" fill="#06d7f0"/><path d="m8.9 69.35-.85-1.6.1-6.1 2.15 1 .7 3.9-.35 3.35-1.75-.55" fill="#af5c5b"/><path d="m8.05 67.75-4.35-8.2 4.45 2.1-.1 6.1" fill="#d97577"/><path d="M14.4 69.4q1.75 5.55 5.85 10.7-6.2-5.15-8.45-15.1l2.6 4.4" fill="#08ecf6"/><path d="M16.45 86.7q-2.05-1.05-4.1-2.4l4.4-.6-.3 3m.05-3.5h-1.6l-2.25-4.1 3.85 4.1" fill="#f19b2f"/><path d="m21 84.95 2 4.4-1.9-.65-3.4-5.15 1.2-.15 2.1 1.55" fill="#49252f"/><path d="m37.7 79.3.55-.55q-.2 4.15-2 7.4l-5.8 1.7V86l.45-.4v1.65l2.75-.75 2.15-.65q1.55-3 1.9-6.55" fill="#190b09"/><path d="M30.9 86.4v-.8q.7.75 2.7.5l.25-.15q2.1-1.35 1.5-4.45l.4-.35q.75 3.85-2.1 5.35l-2.75-.1" fill="#170a08"/><path d="m34.05 82.65 1.3-1.15q.6 3.1-1.5 4.45l.2-.7q1.5-1 0-1.15v-1.45" fill="#ff4a4b"/><path d="m30.9 85.6 3.15-2.95v1.45q-1.7 1 0 1.15l-.2.7-.25.15q-2 .25-2.7-.5" fill="#831313"/><path d="M34.05 84.1q1.5.15 0 1.15-1.7-.15 0-1.15" fill="#bebbba"/><path d="M37.7 79.3q-.35 3.55-1.9 6.55l-2.15.65-2.75.75v-.85l2.75.1q2.85-1.5 2.1-5.35l1.95-1.85" fill="#fff"/><path d="m26.1 88.6.7.5-3.65-.3-1.35-3.15.9.6.75 2.15 1.35.1 1.3.1" fill="#150c09"/><path d="m26.1 88.6-1.3-.1.25-.65 1.05.75" fill="#bebbba"/><path d="m24.8 88.5-1.35-.1-.75-2.15 2.35 1.6-.25.65" fill="#7d1313"/></g><g id="C" fill-rule="evenodd"><path d="M73.15 110.45v-1.15q4.15.9 7.15 4.15l7.1 4.65.25 11.1-4.45 3.5-.4-.45 2.95-2.4 1.25-1-.35-10.3-6.85-4.35q-3.05-2.85-6.65-3.75m8.05 19.95-.3-.35.65-.5.1-3.2.15-3.2.35 5.75.05.55-1 .95" fill="#190d0b"/><path d="m75.7 112.6-2.55-.2v-1.5l2.55 1.7" fill="#856057"/><path d="m73.15 112.4 2.55.2.35.25q-1.6.25-2.9.8v-1.25" fill="#725049"/><path d="M73.15 113.65q1.3-.55 2.9-.8l-.35-.25-2.55-1.7v-.45q3.6.9 6.65 3.75l6.85 4.35.35 10.3-1.25 1q.75-12.5-9.9-13.6l-2.7.2v-2.8" fill="#5b3d36"/><path d="M78.4 127q-3.05-4.2-5.25-8.55v-.15h4.55l5.3 4.3.85 5.05-1.7 1.25-.35-5.75-.15 3.2-3.25.65" fill="#2b1814"/><path d="m82.8 132.25-1.6-1.85 1-.95-.05-.55 1.7-1.25-.85-5.05-5.3-4.3h-4.55v-1.85l2.7-.2q10.65 1.1 9.9 13.6l-2.95 2.4m-1.9-2.2-1.55-1.75-.05-.05-.9-1.25 3.25-.65-.1 3.2-.65.5" fill="#462a24"/><path d="M251.05 11.35q-3.15-5.5-7.35-10.25l2.75.8q11.35 6.55 16.7 17.3l7.75 3.45 2.45 4.85-11.15-4.65-11.15-11.5" fill="#b3b5a8"/><path d="m246.45 1.9-2.75-.8q4.2 4.75 7.35 10.25 3.05 5.35 5.15 11.35 2.15 6.15 3.3 13l-.9.35q-1.05-5.85-2.65-11-4.2-13.65-11.95-22.2 8.7 18.55 6.85 41.5l-1.2 1.55q2.45-28.15-8.3-45.9 23.2 3.85 32.85 26.75l-.85.8v-.05l-2.45-4.85Q262.05 7 246.45 1.9" fill="#535b5a"/><path d="m251.05 11.35 11.15 11.5 11.15 4.65v.05l-3.75 3.05-10.75-4.05-2.65-3.85q-2.1-6-5.15-11.35" fill="#888671"/><path d="m256.2 22.7 2.65 3.85 10.75 4.05q-4.4 3.1-10.1 5.1-1.15-6.85-3.3-13" fill="#57605d"/><path d="m252.2 42.2.6-7.05q3.35-4.15 3.15-10.1 1.6 5.15 2.65 11l-4.45 1.25q-.75 2.65-1.95 4.9" fill="#b1b4a6"/><path d="m270.9 22.65-7.75-3.45q-5.35-10.75-16.7-17.3 15.6 5.1 24.45 20.75M252.2 42.2l-1.35 2.15Q252.7 21.4 244 2.85q7.75 8.55 11.95 22.2.2 5.95-3.15 10.1l-.6 7.05" fill="#f0eedf"/><path d="m269.6 30.6 3.75-3.05.85-.8q3.85-3.9 6.4-9 12.2 6.75 11.5 24.55-4.15-4.65-8.7-5.55l-1.65-.15q-10.85-.5-24.1 19.45.25 1.95-.05 3.65-.6 3.25-3.4 5.35-2.05 1.5-5.2 2.35.4 8.45 5 13.15-3.55 7.55-7.9 13.95l-3.6 4.9-2.65 3.25-1.05 1.15-9.8 3.2q10.15-11.25 15.2-23.75l-11.05 2.6q-3.25-1.7-5.3-3.7l-1.05-1.1q-3.5-4.3-2.2-10l.35-1.15q.5-1.75 1.45-3.6l13.8-4.95 3.05-10.45q3.8-2.05 6.4-5l1.2-1.55 1.35-2.15q1.2-2.25 1.95-4.9l4.45-1.25.9-.35q5.7-2 10.1-5.1m-3.85 3.85q-4.65 2.35-10.4 3.75L253 43.05l-1.3 2.05q-3.35 4.85-8.05 6.85Q241.8 57.4 241.5 63q-.15 3.55.25 7.15.8 6.35 3.5 13-1.5 4.5-3.45 8.45-2.25 4.55-5.15 8.35-2.05 2.75-4.5 5.1l6.25-2.55 2.85-4.25 6.05-8.95 5.15-7.75q-4.6-6.8-4.45-15.5l4.4-5.5 2.3-2.9 2.1-2.65.6-1.1q3.15-5.45 6.8-9.25 4.85-5.15 10.5-7.5 3.6-1.5 7.5-1.85 4.15.15 7.85 2.7l1.15.85q0-11.55-10.1-19.55-3.8 7.45-10.45 12.2l-4.9 2.95m-39.45 34.3q-1.6 4.6-.35 8.35l.85 1.9q.8 1.4 2.05 2.7 1.7 1.75 4.25 3.25l10.1-2.9q-2.4-6.65-3.25-15.45l-.3-3.75-1.6.55-11 3.6-.75 1.75" fill="#532e30"/><path d="m265.75 34.45 4.9-2.95q14.85-1.75 11.75-10.25l1.45 1.75 1.75 7.05q-14.3 2.8-26.4 11.2l-1.1 3.6q-1 2.4-2.55 4l-1 .9.15 7.9-2.3 2.9q-4.5 4.5-9.55 4.85l-1.1 4.75q-.4-3.6-.25-7.15l2.5-4.15q10.7-5.25 7.7-13.75l1.3-2.05 12.75-8.6m-39.45 34.3.75-1.75 11-3.6-.35 2.15-11.4 3.2" fill="#ed952f"/><path d="m253 43.05 2.35-4.85q5.75-1.4 10.4-3.75L253 43.05m17.65-11.55q6.65-4.75 10.45-12.2 10.1 8 10.1 19.55l-1.15-.85q-.6-7.85-6.2-15l-1.45-1.75q3.1 8.5-11.75 10.25" fill="#f2e068"/><path d="M290.05 38q-3.7-2.55-7.85-2.7-3.9.35-7.5 1.85-6.8.1-16.6 7.7l1.1-3.6q12.1-8.4 26.4-11.2L283.85 23q5.6 7.15 6.2 15" fill="#a26d45"/><path d="m206.8 78.15-1 3.35-182.9 58.15-1.65-1.95 2.6-.85 183.35-60.1-.4 1.4m14.1-4.05-.75 2.25-4.7 1.85 1.2-2.85 4.25-1.25" fill="#3c97b8"/><path d="m21.25 137.7 1.65 1.95L205.8 81.5l1-3.35 9.85-2.8-1.2 2.85 4.7-1.85.75-2.25 1.65-.45-2.8 6.3-198.3 62.55q-1.25-2.05-.2-4.8" fill="#245d65"/><path d="M224.6 71.05q-1.3 5.7 2.2 10L26.2 142.9l-3.5 1.05q-.8-.65-1.25-1.45l198.3-62.55 2.8-6.3-1.65.45-4.25 1.25-9.85 2.8.4-1.4 17.4-5.7" fill="#17454d"/><path d="M257.6 59.7q.3-1.7.05-3.65 13.25-19.95 24.1-19.45l-2.7 1.7-2.65 1.7q-4.4 15.25 10.55 14.75l-19.7 13q-21.7 11.8 0-17.65l-9.65 9.6" fill="#47242e"/><path d="M264.2 44.65q-3.65 3.8-6.8 9.25l-.9-2.55 7.7-6.7" fill="#f0992f"/><path d="m257.4 53.9-.6 1.1-2.1 2.65-.15-7.9 1-.9.95 2.5.9 2.55" fill="#9f6a43"/><path d="M274.7 37.15q-5.65 2.35-10.5 7.5l-7.7 6.7-.95-2.5q1.55-1.6 2.55-4 9.8-7.6 16.6-7.7M20.5 142.45q.6 1.5 1.85 1.95l-8.25 3.25q-1.35-1.2-1.9-2.7l8.3-2.5" fill="#6c441b"/><path d="m252.4 60.55-4.4 5.5q-2.3 8.1.45 15.8l-6.65 9.75q1.95-3.95 3.45-8.45-2.7-6.65-3.5-13l1.1-4.75q5.05-.35 9.55-4.85" fill="#9b6542"/><path d="M246.1 94.5q4.35-6.4 7.9-13.95-4.6-4.7-5-13.15 3.15-.85 5.2-2.35-6.3 18.4 22.5 0-16.9 12.45-15.85 18.85L246.1 94.5" fill="#43212c"/><path d="m242.5 99.4 3.6-4.9 14.75-10.6q-1.05-6.4 15.85-18.85-28.8 18.4-22.5 0 2.8-2.1 3.4-5.35l9.65-9.6q-21.7 29.45 0 17.65l19.7-13Q272 55.25 276.4 40l2.65-1.7q-8.3 18.75 16.9 10.75l2.1-.55-8.8 16.35-1.65-.25 6.9-10.65-9.95 8.3-17.3 14.3 4-2.9q-.2 2.4-1.15 4.8-12.85 13.85-27.6 20.95" fill="#81403d"/><path d="M241.5 63q.3-5.6 2.15-11.05 4.7-2 8.05-6.85 3 8.5-7.7 13.75L241.5 63" fill="#f1df66"/><path d="M225.95 77.1q-1.25-3.75.35-8.35l11.4-3.2-.6 3.75q-8.8 1.95-11.15 7.8" fill="#f1de65"/><path d="m224.95 69.9-.35 1.15-17.4 5.7-183.35 60.1-1.1-.75 202.2-66.2" fill="#0e133f"/><path d="m238.05 63.4 1.6-.55.3 3.75-1.25 9.55-9.85 5.55q-1.25-1.3-2.05-2.7l1.65-3 8-2.6.65-4.1.6-3.75.35-2.15" fill="#9b6642"/><path d="m226.8 79-.85-1.9q2.35-5.85 11.15-7.8l-.65 4.1-8 2.6-1.65 3" fill="#ec942f"/><path d="M239.95 66.6q.85 8.8 3.25 15.45l-10.1 2.9q-2.55-1.5-4.25-3.25l9.85-5.55 1.25-9.55" fill="#65401a"/><path d="m238.8 103.8 1.05-1.15q6.3-3 11.4-5.95 15.1-8.95 18.85-18.25.95-2.4 1.15-4.8l1.5-1.15q-1.45 9-9.35 16.6l-.1.1-4.7 4-1.4 1-5.2 3.35-1.05.6q-3.4 1.95-7.4 3.8l-.7.35-1.5.7-2.55.8" fill="#47232b"/><path d="m241.25 98.25-2.85 4.25-6.25 2.55q2.45-2.35 4.5-5.1l4.6-1.7" fill="#f0db61"/><path d="m226.8 81.05 1.05 1.1-202.1 61.75.45-1 200.6-61.85" fill="#0d123d" fill-opacity=".992"/><path d="m258.6 93.2 4.7-4 .1-.1 10.5-8.3-1.05 4.85-11.8 26.45-.4-2.1 7.45-18.55-8.55 9.6-.95-7.85" fill="#13445d"/><path d="m247.3 89.3-6.05 8.95-4.6 1.7q2.9-3.8 5.15-8.35l6.65-9.75.15.5-1.3 6.95" fill="#ec8f2d"/><path d="M248 66.05q-.15 8.7 4.45 15.5l-5.15 7.75 1.3-6.95-.15-.5q-2.75-7.7-.45-15.8" fill="#633f1a"/><path d="m250.95 98.15 1.05-.6-.35 2.25-.35 2-2.05 10.55v.15q-8.9 40.6-32.25 79.05 12.45-8.65 24.45-19.7 9.8-9.05 19.25-19.7 6.55 1.35 10.55-.8-4.1-.8-5.9-4.45 6.4-7.75 10.25-15.9 4.65.05 9.25-2.35-6.25-2.35-3.55-11.15.5-1.7 1.35-3.65 9.15-14.95 12.5 0 9.55-13.7 12.95-29.9-2.95 3.25-5.55 5.4-6.8 5.5-11.25 3.4-4.65-11.85 2.75-27.55l-1.8.55q-4.9 1.2-8.45-1.4l1.35-1.35q1.05 1.15 2.45 1.6l1.65.25 1.25-.05q2.45-.3 5.6-2.05-6.9 13.4-5.15 25.8 2.15 10.05 18.15-7.05-1.75 21.6-14.75 34.45-2-15.6-10.4-2.05-6.1 13.85 3.65 14.25-5.6 4.05-11.2 3.85-4.5 8.55-9.95 14.7 3.1 4.5 8.65 4-5.7 4.75-14.05 2.6-20.6 24.45-47.1 41.3 24.6-39.55 35.35-88.35l.2-1 .6-2.9.85-4.2m19.25.85q4.95-13.55 6.1-29.15l6.3-4.6q2.05 3.75 9.05 1.7l-1.15 2.4v.05L270.2 99m-10.3 20.15.25-.3q-4.85 21.5-38.05 65.95l-5.1 6.75q23.5-32.1 35.35-55.3l5.05-10.75 2.5-6.35" fill="#4d5458"/><path d="m252 97.55 5.2-3.35q1.55 8.05 2.3 17.2-3-8.45-7.85-11.6l.35-2.25" fill="#484f55"/><path d="m243.55 101.95-2.85 6 9.4-5.6-.6 2.9-11.7 5.4 5.05-8.35.7-.35" fill="#eb8a2c"/><path d="m250.1 102.35-9.4 5.6 2.85-6q4-1.85 7.4-3.8l-.85 4.2" fill="#5e3b19"/><path d="m242.85 102.3-5.05 8.35 11.7-5.4-.2 1-13.9 6.65 5.95-9.9 1.5-.7" fill="#3b1e2c"/><path d="M251.65 99.8q4.85 3.15 7.85 11.6l.4 7.75-2.5 6.35q-.35-15-6.1-23.7l.35-2" fill="#706d65"/><path d="m257.2 94.2 1.4-1 .95 7.85.4 5 .05.85.4 10.65-.25 1.3-.25.3-.4-7.75q-.75-9.15-2.3-17.2" fill="#090b37"/><path d="m259.55 101.05 8.55-9.6-7.45 18.55-.65-3.1-.05-.85-.4-5" fill="#3baf85"/><path d="m239.85 102.65 2.65-3.25q14.75-7.1 27.6-20.95-3.75 9.3-18.85 18.25-5.1 2.95-11.4 5.95" fill="#a95156"/><path d="m272.85 85.65 1.05-4.85q1-5.05 1.6-10.35l.8-.6q-1.15 15.6-6.1 29.15-3.9 10.55-10.05 19.85l.25-1.3q8.35-14.55 12.45-31.9" fill="#1e2443"/><path d="m260.65 110 .4 2.1 11.8-26.45q-4.1 17.35-12.45 31.9l-.4-10.65.65 3.1" fill="#6ee1a3"/><path d="M249.25 112.5v-.15l2.05-10.55q5.75 8.7 6.1 23.7l-5.05 10.75-5.1 5.65-1.45-5.9 3.45-23.5" fill="#a0a39d"/><path d="M217 191.55q23.35-38.45 32.25-79.05L245.8 136l1.45 5.9 5.1-5.65q-11.85 23.2-35.35 55.3" fill="#fef9ed"/><path d="M291.3 92.75q4.45 2.1 11.25-3.4-1 10.75-5 16.05-2.1-9.5-11.55-1.75-5.5 6.6-4.7 13.85-2.7 8.8 3.55 11.15-4.6 2.4-9.25 2.35-3.85 8.15-10.25 15.9 1.8 3.65 5.9 4.45-4 2.15-10.55.8-9.45 10.65-19.25 19.7l-3.4 2.25q31.7-34.2 41.05-75.45l7.85-12.25q.8 4.15 4.35 6.35" fill="#9b9e9a"/><path d="M260.15 118.85q6.15-9.3 10.05-19.85l20.3-29.6q-4.8 10.75-3.55 17l-7.85 12.25q-9.35 41.25-41.05 75.45l-15.95 10.7q33.2-44.45 38.05-65.95" fill="#696762"/><path d="m281.75 36.6 1.65.15q-2 15.5 17.2 9.7L290.5 64.8l-1.25.05 8.8-16.35-2.1.55q-15 3.35-14.2-12.45" fill="#46232c"/><path d="m279.05 38.3 2.7-1.7q-.8 15.8 14.2 12.45-25.2 8-16.9-10.75" fill="#af595a"/><path d="m292.25 65.75 1.8-.55q-7.4 15.7-2.75 27.55-3.55-2.2-4.35-6.35-1.25-6.25 3.55-17v-.05l1.15-2.4.6-1.2m10.3 23.6q2.6-2.15 5.55-5.4-3.4 16.2-12.95 29.9-3.35-14.95-12.5 0-.85 1.95-1.35 3.65-.8-7.25 4.7-13.85 9.45-7.75 11.55 1.75 4-5.3 5-16.05" fill="#fef9ee"/><path d="m272.75 72.5-1.5 1.15-4 2.9 17.3-14.3.6.75-1.35 1.35-1.2.9-6.3 4.6-.8.6-2.75 2.05" fill="#4d5558"/><path d="M263.4 89.1q7.9-7.6 9.35-16.6l2.75-2.05q-.6 5.3-1.6 10.35l-10.5 8.3" fill="#0b123b"/><path d="m284.55 62.25 9.95-8.3-9.35 9.05-.6-.75" fill="#47232e"/><path d="M283.8 64.35q3.55 2.6 8.45 1.4l-.6 1.2q-7 2.05-9.05-1.7l1.2-.9" fill="#7a786a"/><path d="M287.6 64.6q-1.4-.45-2.45-1.6l9.35-9.05-6.9 10.65" fill="#45222d"/><path d="m23.85 136.85-2.6.85q-1.05 2.75.2 4.8.45.8 1.25 1.45l3.5-1.05-.45 1-1.15 2.45-10.05 3.2-1.35-1.2-.7-.9q-.9-1.25-1.25-2.65-.25-1.1-.15-2.35l.2-1.65.4-1.45.45-1.3 9.9-2.4.7.45 1.1.75m-3.4 5.4-.3-1.1q-.95-2.9 1.95-4.85l-9.45 2.55-.6 1.9q-.35 1.45-.2 2.7.05.8.35 1.5.55 1.5 1.9 2.7l.75.6q5.9-.55 9.45-3.7l-1.95-.15q-1.25-.45-1.85-1.95l-.05-.2" fill="#4a252f"/><path d="m12.05 140.75.6-1.9 9.45-2.55q-2.9 1.95-1.95 4.85l.3 1.1-.6-1.15-1.2-2.5-6.6 2.15" fill="#f2da62"/><path d="m20.45 142.25.05.2-8.3 2.5q-.3-.7-.35-1.5l8-2.35.6 1.15" fill="#a16c44"/><path d="m22.35 144.4 1.95.15q-3.55 3.15-9.45 3.7l-.75-.6 8.25-3.25" fill="#a46e44"/><path d="M11.25 144.8q.35 1.4 1.25 2.65l-9.95.05.75-.6 2.35-.6 5.6-1.5" fill="#154e64"/><path d="m11.3 140.8-.2 1.65-5.45 3.85-2.35.6 8-6.1" fill="#80dfa6"/><path d="M11.1 142.45q-.1 1.25.15 2.35l-5.6 1.5 5.45-3.85" fill="#46be8f"/><path d="M11.85 143.45q-.15-1.25.2-2.7l6.6-2.15 1.2 2.5-8 2.35" fill="#ee9930"/><path d="M13.2 148.35 0 148.3l11.7-8.95-.4 1.45-8 6.1-.75.6 9.95-.05.7.9" fill="#0e123d" fill-opacity=".98"/><path d="m82.8 132.25.4.45-4.85 3.8-2.4-1.75H73l-6.7 2.45-3.6.6-2.05 1q-8.05-2.95-6.65-14.65l1.3-1.95q.55-2.15 1.85-3.35l.45-3.4 4.6-2.35 1.2-3.1q5.5-1.6 9.75-.7v1.15l-1-.25q-3.9-.75-8.35.65l-1.45 4.45L62 114l-3.85 2.05-.35 4.45-1.45.8-.25 3.1-.5-1.4-.9 1.4-.25 3.1q-.05 1.45.15 2.75l.6 2.6q1.3 3.8 5 5.35l1.55-.9q-4.15-2.25-4.75-6.5l-.1-.8q-.1-1.2.1-2.6l.35 2.3.5 1.7q1.45 3.95 5.4 5.6l1.85-.4q-4.05-1.35-5.4-6.15l-.4-1.9-.2-2.1q-.1-1.55-.05-3.35.15 1.7.45 3.2.25 1.65.65 3l.95 2.55q2.05 4.2 5.95 4.4l4.65-2.05q-5.2-2.4-7.1-6.8l-.6-1.75-.35-1.7-.15-1.8.3 1.05q.85 3 2.3 5.2l1.3 1.65q3.15 3.45 8.3 4.15l5.2-4.15.3.35-4.4 3.95 1.75 1.3 4.25-3.4" fill="#190d0b"/><path d="m67.4 130.05-1.3-1.65 2.65-2.65q-1.35-9.55 4.4-12.1v2.8q-3.45 1.3-1.05 8.55 1.1 5.85-4.7 5.05m-3.4-4.4.6 1.75q-.95 4.45-3.5 4.45l-.95-2.55q3.05-.2 3.85-3.65m-4.7 2.9.4 1.9q-.7 1.45-1.85.95l-.5-1.7q1.3.2 1.95-1.15M56.9 130l.1.8-1.8 2.05-.6-2.6 2.3-.25m15.25-19.8 1 .25v.45l-1-.7" fill="#5b3d36"/><path d="M66.1 128.4q-1.45-2.2-2.3-5.2 4.45-1.1 4.45-9.75 2.55-1 4.9-1.05v1.25q-5.75 2.55-4.4 12.1l-2.65 2.65m-2.45-4.45.35 1.7q-.8 3.45-3.85 3.65-.4-1.35-.65-3 2.2.6 4.15-2.35m-4.55 2.5.2 2.1q-.65 1.35-1.95 1.15l-.35-2.3q-.2 1.4-.1 2.6l-2.3.25q-.2-1.3-.15-2.75 1.35.05 2.3-1.1l2.35.05" fill="#725049"/><path d="m63.8 123.2-.3-1.05.15 1.8q-1.95 2.95-4.15 2.35-.3-1.5-.45-3.2-.05 1.8.05 3.35l-2.35-.05q-.95 1.15-2.3 1.1l.25-3.1.9-1.4.5 1.4.25-3.1 1.45-.8.35-4.45L62 114l.35 1.3 1.45-4.45q4.45-1.4 8.35-.65l1 .7v1.5q-2.35.05-4.9 1.05 0 8.65-4.45 9.75" fill="#856057"/><path d="m82.8 132.25-4.25 3.4-1.75-1.3 4.4-3.95 1.6 1.85m-1.9-2.2-5.2 4.15q-5.15-.7-8.3-4.15 5.8.8 4.7-5.05-2.4-7.25 1.05-8.55v1.85h-.05l.05.4q1.35 6.35 6.4 9.85l-.2-.25 1.55 1.75m-16.3-2.65q1.9 4.4 7.1 6.8l-4.65 2.05q-3.9-.2-5.95-4.4 2.55 0 3.5-4.45m-4.9 3.05q1.35 4.8 5.4 6.15l-1.85.4q-3.95-1.65-5.4-5.6 1.15.5 1.85-.95m-2.7.35q.6 4.25 4.75 6.5l-1.55.9q-3.7-1.55-5-5.35l1.8-2.05" fill="#462a24"/><path d="M73.15 118.45q2.2 4.35 5.25 8.55l.9 1.25.05.05.2.25q-5.05-3.5-6.4-9.85l-.05-.4.05.15" fill="#1a0e0b"/><path d="M73.15 118.3v.15l-.05-.15h.05" fill="#2b1814"/></g><g id="D" fill-rule="evenodd"><path d="M32.95 9.05q-1.2-2.6-3.2-5.1l-3.7-1.15-3.85 1.95 2.65 1.75 2.8 11.8 1.4 5.95-.05.05-1.1-3.45-3.35-10.5-1.05-3.2-4.35-2.4L14.3 8.5l-.35.25 4.1 5.05 3.35 8.9-2.4-4.55-1.85-3.55-4.55-5.05-6.65 3.05q1.1 4.05 2.3 7.4l1.65 4.25.85 1.95-1.65-2.25-.75-1.25Q6.3 19.1 4.9 13.8l-.2-.8-1.25.4-2.25 3.1q-.35 4.4.8 7.7.4 1.2 1.05 2.25 1.8 3.05 5.3 4.8l3 .7 6.9.85q12.35.15 16.3-10.75v-7.3q-.35-2.9-1.6-5.7m-.65-4.5L29.8 2.6l.05-.05L27.65.9h-12.1l-1.6 4.55.5.65 2.4-1.25 2.4-1.3 1 .4 1 .4 4.4-2.25 4.1.55L31.45 5q2.65 4.2 3.9 9.6v8q-6.8 16.05-27.8 9.4Q-.1 27.95 0 16.6q2.65-4.5 5.3-4.65 3.55-3.3 7.6-3.45l1.2-1.75-1.1-1.3L14.6 0h13.05l5.7 3.95-1.05.6" fill="#170a09"/><path d="M32.95 9.05q1.25 2.8 1.6 5.7v3.2q-3.25 7.7-6.9.35l-2.8-11.8 2.9.65q2.15 2.45 5.2 1.9M18.25 32.8l-6.9-.85 1.15-3.65q9.1 3.15 8.9-5.6 4.55 2.6 6.5-1.85L29 24.3q-3.85 7.05-10.75 8.5M24.15.9h3.5l2.2 1.65-.05.05 2.5 1.95-.85.45-1.7-2.35-4.1-.55-4.4 2.25-1-.4L24.15.9" fill="#462a24"/><path d="M24.85 6.5 22.2 4.75l3.85-1.95 3.7 1.15q2 2.5 3.2 5.1-3.05.55-5.2-1.9l-2.9-.65m-13.5 25.45-3-.7q-3.5-1.75-5.3-4.8l6.1 2-.8-5.75.75 1.25 1.65 2.25-.85-1.95q6.5 2.4 9.1-6.1l2.4 4.55-3.35-8.9-4.1-5.05.35-.25q5.55 5.25 10.25 1.85l3.35 10.5q-1.95 4.45-6.5 1.85.2 8.75-8.9 5.6l-1.15 3.65m8.9-28-1-.4-2.4 1.3L19.9.9h4.25l-3.9 3.05" fill="#5b3d36"/><path d="M2 24.2q-1.15-3.3-.8-7.7l2.25-3.1L4.7 13l.2.8 1.2 10.65Q4.45 25.8 2 24.2M8.25 20q-1.2-3.35-2.3-7.4l6.65-3.05 4.55 5.05q-1.6 9.65-8.9 5.4M14.3 8.5l4.85-3.75 4.35 2.4 1.05 3.2q-4.7 3.4-10.25-1.85m2.55-3.65-2.4 1.25-.5-.65L15.55.9h4.35l-3.05 3.95" fill="#856057"/><path d="M3.05 26.45Q2.4 25.4 2 24.2q2.45 1.6 4.1.25L4.9 13.8q1.4 5.3 3.45 8.9l.8 5.75-6.1-2m6.85-2.2L8.25 20q7.3 4.25 8.9-5.4L19 18.15q-2.6 8.5-9.1 6.1" fill="#725049"/><path d="M34.55 17.95v4.1q-3.95 10.9-16.3 10.75 6.9-1.45 10.75-8.5l.2.7-.15-.75-1.4-5.95q3.65 7.35 6.9-.35" fill="#2b1814"/></g><use ffdec:characterId="2" height="116" transform="translate(2.3 4.65)" width="142.25" xlink:href="#q" id="c"/><use ffdec:characterId="9" height="76.1" width="145.6" xlink:href="#r" id="d"/><use ffdec:characterId="11" height="42.3" width="92.7" xlink:href="#s" id="e"/><use ffdec:characterId="13" height="141.1" transform="translate(0 5.05)" width="179.4" xlink:href="#t" id="f"/><use ffdec:characterId="20" height="71.05" width="192.95" xlink:href="#u" id="g"/><use ffdec:characterId="22" height="50.05" width="43.65" xlink:href="#v" id="h"/><use ffdec:characterId="24" height="134.05" width="87.95" xlink:href="#w" id="i"/><use ffdec:characterId="26" height="98.25" width="60" xlink:href="#x" id="j"/><use ffdec:characterId="28" height="103.15" width="194.6" xlink:href="#y" id="k"/><use ffdec:characterId="30" height="34.35" width="40.55" xlink:href="#z" id="l"/><use ffdec:characterId="32" height="75.65" width="76.15" xlink:href="#A" id="m"/><use ffdec:characterId="34" height="94.5" width="60.6" xlink:href="#B" id="n"/><use ffdec:characterId="40" height="194.6" width="309.1" xlink:href="#C" id="o"/><use ffdec:characterId="42" height="33.95" width="35.35" xlink:href="#D" id="p"/><path d="M31.9-.4q0 1.85-9 3.1-9 1.4-21.7 1.4t-21.75-1.4Q-29.5 1.45-29.5-.4t8.95-3.2L1.2-4.9l21.7 1.3q9 1.35 9 3.2" fill-opacity=".349" fill-rule="evenodd" transform="translate(29.5 4.9)" id="b"/></defs></svg>