<svg xmlns:ffdec="https://www.free-decompiler.com/flash" xmlns:xlink="http://www.w3.org/1999/xlink" ffdec:objectType="frame" height="90" width="90" xmlns="http://www.w3.org/2000/svg"><use ffdec:characterId="17" height="90.8" transform="translate(0 -.45)" width="90" xlink:href="#a"/><defs><g id="a" transform="translate(0 .45)"><use ffdec:characterId="4" height="90" width="90" xlink:href="#b"/><use ffdec:characterId="16" height="139.85" transform="matrix(.6492 0 0 .6496 15.39 -.472)" width="94" xlink:href="#c"/></g><g id="c" transform="translate(4.25 .65)"><use ffdec:characterId="5" height="22.6" transform="translate(5.45 126.3) scale(.5438)" width="90.6" xlink:href="#d"/><use ffdec:characterId="6" height="43.1" transform="translate(1.27 67.848) scale(.5438)" width="103.55" xlink:href="#e"/><use ffdec:characterId="7" height="93.6" transform="translate(-.38 23.27) scale(.5438)" width="110.45" xlink:href="#f"/><use ffdec:characterId="8" height="42.1" transform="translate(5.983 34.554) scale(.5438)" width="76.7" xlink:href="#g"/><use ffdec:characterId="9" height="70.45" transform="translate(9.62 -.63) scale(.5438)" width="112.85" xlink:href="#h"/><use ffdec:characterId="10" height="52.05" transform="translate(51.72 45.02) scale(.5438)" width="57.65" xlink:href="#i"/><use ffdec:characterId="11" height="18.95" transform="translate(32.506 96.756) scale(.5438)" width="18.6" xlink:href="#j"/></g><g id="e"><path d="M76.15 26.15q-3.6 5.55-7 7.95Q56.1 29.45 60 16.2q6.65 10.85 16.15 9.95m-46.2 9.6q-.4-1.05-.6-2.65-1.45-8.35-4.1-6.5-7.55 5-10.25-.9 11 2.8 21.15-16.95 3.55 16.15-6.2 27M11.4 17.9q-1.8-1.45-4.45-.7-9.1 1.95-6.3-11.65l3.1.65q13.25 9.4 23.2-3Q28.9 18.6 11.4 17.9m52.55-14 2.85.25q1.4 10.4 13.3 11.55 9.8.9 16.25-1.95 3.2 14-15.85 5.6-17.75-3.1-16.55-15.45" fill="#fffff3" fill-rule="evenodd" transform="translate(1.25 4.05)"/><path d="m96.35 13.75 2.55-1.4q6.05 10.2-4.75 15.4-10.8 5.2-12.4-4.8Q79.5 25.3 77.2 24q-.2 1.05-1.05 2.15-9.5.9-16.15-9.95-3.9 13.25 9.15 17.9-5.35 3.7-10.1-.25-6.4-8-12.05-7.75-3.15.65-10.4 9.15-5 4.85-6.65.5 9.75-10.85 6.2-27Q26 28.5 15 25.7q-.7-1.45-1.05-3.45Q13 19.2 11.4 17.9q17.5.7 15.55-14.7-9.95 12.4-23.2 3 14.6-.8 23.2-9l37 6.7q-1.2 12.35 16.55 15.45 19.05 8.4 15.85-5.6m-22.8 4.65q4.05 2.8 3.65 5.6.4-2.8-3.65-5.6" fill="#b4dfe8" fill-rule="evenodd" transform="translate(1.25 4.05)"/><path d="M77.2 24q.4-2.8-3.65-5.6" fill="none" stroke="#216167" stroke-linecap="round" stroke-linejoin="round" transform="translate(1.25 4.05)"/><path d="m97.6 17.8 2.55-1.4q6.05 10.2-4.75 15.4Q84.6 37 83 27q-2.25 2.35-4.55 1.05-.2 1.05-1.05 2.15-3.6 5.55-7 7.95-5.35 3.7-10.1-.25-6.4-8-12.05-7.75-3.15.65-10.4 9.15-5 4.85-6.65.5-.4-1.05-.6-2.65-1.45-8.35-4.1-6.5-7.55 5-10.25-.9-.7-1.45-1.05-3.45-.95-3.05-2.55-4.35-1.8-1.45-4.45-.7Q-.9 23.2 1.9 9.6l3.1.65q14.6-.8 23.2-9l37 6.7 2.85.25q1.4 10.4 13.3 11.55 9.8.9 16.25-1.95z" fill="none" stroke="#216167" stroke-linecap="round" stroke-linejoin="round" stroke-width="2.5"/></g><g id="f"><path d="M89.9 15.9q-2.75 4.1-.8 8 1.3.9 4.1.3l2.7 3-1.5-3q6.35-2.85 7.15-7 2.3 2.55 1.35 8.3 1.45.9 2.5 2.1 1 9.05-7 10.65-2.5-5.75-6.5-10.75 12.25 28.7 5.25 45.6-.15-5.35-3.95-9.15l-1.15-1.05q2.55-12.3-3.9-25.25Q71.6 7.65 38.7 14.3q12.8-3.95 23.7-3.3 11 .65 11.8-11l15.7 15.9M76.85 85.3q3.1 1.7 6.8 1.7l1.9-.1-4.4 2.6q-5.65 1.35-12.85 1.2-22.15 1.85-42.4-4.8-7.1-.8-13.1-4.1 2.3-.2 4.35-1.2 27.65 10.7 59.7 4.7" fill="#b4dfe8" fill-rule="evenodd" transform="translate(1.25 1.25)"/><path d="M101.55 17.2q-.8 4.15-7.15 7l1.5 3-2.7-3q-2.8.6-4.1-.3-1.95-3.9.8-8 8.65-2.1 11.65 1.3M98.4 38.25q8-1.6 7-10.65 2.35 2.65 2.55 6.8-.9 5.55-8.45 6.65l-1.1-2.8" fill="#fefdcd" fill-rule="evenodd" transform="translate(1.25 1.25)"/><path d="M97.15 73.1q7-16.9-5.25-45.6 4 5 6.5 10.75l1.1 2.8q2.25 6.4 2.8 13.65 1.2 29.3-21.15 34.8l4.4-2.6q8.15-5.5 11.6-13.8" fill="#fffdcd" fill-rule="evenodd" transform="translate(1.25 1.25)"/><path d="m92.05 62.9 1.15 1.05q3.8 3.8 3.95 9.15-3.45 8.3-11.6 13.8l-1.9.1q-3.7 0-6.8-1.7-1.6-.9-3.05-2.2-4.3-3.95-4.6-9.5-.3-5.55 4.3-9.55Q78.05 60 83.65 60q4.8 0 8.4 2.9m-74.9 17.7q-2.05 1-4.35 1.2-4.8-2.65-8.9-6.9-1.8-2.55-2.8-5.05.7-6.55 3.2-9.9 2.45-3.4 7.55-3.5 5.05-.15 8.6 3.6 3.6 3.75 3.6 9t-3.6 9q-1.5 1.6-3.3 2.55M8.55 60q-.55 0-1.05.45-.55.45-.7 1.05-.15.6.15 1.05.3.45.85.45t1.05-.45l.65-1.05q.15-.6-.1-1.05-.3-.45-.85-.45m2.85 1.65-.25.1-.1.25.1.25.25.1.25-.1.1-.25-.1-.25-.25-.1m64.4 5.45-.15-.35q-.15-.15-.35-.15-.2 0-.35.15-.15.15-.15.35l.15.35.35.15.35-.15.15-.35m3.4-1.9q0-.6-.45-1.05-.4-.4-1-.4t-1.05.4q-.4.45-.4 1.05 0 .6.4 1 .45.45 1.05.45.6 0 1-.45.45-.4.45-1" fill="#ffb19b" fill-rule="evenodd" transform="translate(1.25 1.25)"/><path d="M38.7 14.3q32.9-6.65 49.45 23.35 6.45 12.95 3.9 25.25-3.6-2.9-8.4-2.9-5.6 0-10.15 4.05-4.6 4-4.3 9.55.3 5.55 4.6 9.5 1.45 1.3 3.05 2.2-32.05 6-59.7-4.7 1.8-.95 3.3-2.55 3.6-3.75 3.6-9t-3.6-9q-3.55-3.75-8.6-3.6-5.1.1-7.55 3.5-2.5 3.35-3.2 9.9-.8-2.15-1.05-4.2Q-.5 60.8 3.3 54.7q3.75-6.15 8.2-16 7.45-14.8 18.45-22.1 4.35-1.45 8.45-2.25l.3-.05M11.4 61.65l.25.1.1.25-.1.25-.25.1-.25-.1-.1-.25.1-.25.25-.1M8.55 60q.55 0 .85.45.25.45.1 1.05l-.65 1.05q-.5.45-1.05.45t-.85-.45q-.3-.45-.15-1.05.15-.6.7-1.05Q8 60 8.55 60m70.65 5.2q0 .6-.45 1-.4.45-1 .45t-1.05-.45q-.4-.4-.4-1t.4-1.05q.45-.4 1.05-.4.6 0 1 .4.45.45.45 1.05m-3.4 1.9-.15.35-.35.15-.35-.15-.15-.35q0-.2.15-.35.15-.15.35-.15.2 0 .35.15l.15.35" fill="#fffff3" fill-rule="evenodd" transform="translate(1.25 1.25)"/><path d="M74.2 0q-.8 11.65-11.8 11-10.9-.65-23.7 3.3l-.3.05q-4.1.8-8.45 2.25Q41.7 8.75 57.5 9.4 70 8.55 74.2 0" fill="#d3e9c5" fill-rule="evenodd" transform="translate(1.25 1.25)"/><path d="M106.65 28.85q-1.05-1.2-2.5-2.1.95-5.75-1.35-8.3-3-3.4-11.65-1.3m9.6 25.15q7.55-1.1 8.45-6.65-.2-4.15-2.55-6.8m-92.6 54.2q6 3.3 13.1 4.1 20.25 6.65 42.4 4.8 7.2.15 12.85-1.2 22.35-5.5 21.15-34.8-.55-7.25-2.8-13.65M31.2 17.85q11.75-7.85 27.55-7.2 12.5-.85 16.7-9.4M2.35 71.1q-.8-2.15-1.05-4.2-.55-4.85 3.25-10.95 3.75-6.15 8.2-16 7.45-14.8 18.45-22.1m-17.15 65.2q-4.8-2.65-8.9-6.9-1.8-2.55-2.8-5.05" fill="none" stroke="#216167" stroke-linecap="round" stroke-linejoin="round" stroke-width="2.5"/><path d="M93.15 28.75q4 5 6.5 10.75l1.1 2.8" fill="none" stroke="#216167" stroke-linecap="round" stroke-linejoin="round" stroke-width="1.5"/><path d="m42.2 62.9-.1-2.2q3 1.15 6.9-2.2 3.1 5.65 1.25 7.7l-.45.4q.4-3.55-7.6-3.7" fill="#ffb19b" fill-rule="evenodd" transform="translate(1.25 1.25)"/><path d="M49.8 66.6q-2.15 1.9-5 1.1-2.25-.9-2.6-4.8 8 .15 7.6 3.7" fill="#ffefe8" fill-rule="evenodd" transform="translate(1.25 1.25)"/><path d="M43.35 61.95q-1.05-.4-2-1.35m2.1 3.55-.1-2.2q3 1.15 6.9-2.2 3.1 5.65 1.25 7.7l-.45.4q-2.15 1.9-5 1.1-2.25-.9-2.6-4.8z" fill="none" stroke="#216167" stroke-linecap="round" stroke-linejoin="round" stroke-width="2"/></g><g id="g"><path d="M15.95 42.2q.9-3.05 2.95-5.45 2.15-2.5 4.7-3.35l2.65-.45q4.05 0 6.6 3.8 2.5 3.8 2 9.15l-.55 3.15-.2.25q-2.4 3.05-5.75 3.05h-.6v-.1q.45-.4.45-1t-.45-1.05q-.4-.4-1-.4t-1.05.4q-.4.45-.4 1.05l.05.45q-1.55-.8-2.8-2.4l-.25-.35.7-.4q1.9-1.1 2.65-2.85.8-1.8-.05-3.2-.8-1.4-2.7-1.6l-2.65.3q-.6.2-1.2.55-1.85 1.1-2.6 2.8l-.5-2.35m55.75-8.25h.3q4.75 0 7.85 3.9 2.4 3.15 2.65 7.2-.7 2.65-2.6 4.7-2.05 2.3-4.6 2.8-.05-.65-.5-1.1-.45-.45-1.1-.45-.65 0-1.15.45-.4.45-.45 1-2.2-.65-3.75-2.7l-.35-.5.6-.5q1.2-1.25 1.2-2.8 0-1.55-1.2-2.5-.95-.75-2.1-.8.3-3.95 2.85-6.8 1.1-1.2 2.35-1.9" fill="#0f8f92" fill-rule="evenodd" transform="translate(-10.45 -19.5)"/><path d="M34.2 49.35q-.65 2.15-1.8 4-10.05 3.2-14.15-4.15l.9.2 3.15-.45.25.35q1.25 1.6 2.8 2.4l.35.55q.45.45 1.05.45.55 0 .95-.35h.65q3.35 0 5.75-3.05l.1.05m48.3-4.3-.05 2.2q-.15 2.15-.8 4.1l-1.15 1.2q-3.35 3.35-7.6 3.35t-6.85-3.35q-.85-1.1-1.35-2.4h.9q1.35-.15 2.4-.9l.35.5q1.55 2.05 3.75 2.7v.15q0 .65.45 1.1.5.5 1.15.5.65 0 1.1-.5.5-.45.5-1.1v-.05q2.55-.5 4.6-2.8 1.9-2.05 2.6-4.7" fill="#46cfbb" fill-rule="evenodd" transform="translate(-10.45 -19.5)"/><path d="m32.4 53.35-1.25 1.7q-3.25 3.8-7.3 3.8-4.1 0-6.65-3.8-2.5-3.8-2-9.15.2-1.95.75-3.7l.5 2.35-.05.05q-.8 1.8 0 3.2.6 1.05 1.85 1.4 4.1 7.35 14.15 4.15m49.25-2q-1.05 2.95-3.25 5.3-3.7 3.95-8.45 3.95-4.8 0-7.85-3.95-3.05-3.9-2.65-9.4.45-5.45 4.1-9.4 3.55-3.75 8.15-3.9-1.9.85-3.6 2.5-2.85 2.75-3.7 6.45-1 .35-1.8 1.15-1.25 1.2-1.25 2.75t1.25 2.55q.9.7 2.1.8.5 1.3 1.35 2.4 2.6 3.35 6.85 3.35t7.6-3.35l1.15-1.2" fill="#b3fff3" fill-rule="evenodd" transform="translate(-10.45 -19.5)"/><path d="M16.45 44.55q.75-1.7 2.6-2.8.6-.35 1.2-.55l2.65-.3q1.9.2 2.7 1.6.85 1.4.05 3.2-.75 1.75-2.65 2.85l-.7.4-3.15.45-.9-.2q-1.25-.35-1.85-1.4-.8-1.4 0-3.2h.05v-.05m8.9 7.15-.05-.45q0-.6.4-1.05.45-.4 1.05-.4.6 0 1 .4.45.45.45 1.05 0 .6-.45 1l-.05.1q-.4.35-.95.35-.6 0-1.05-.45l-.35-.55m39.35-1.55q-1.2-.1-2.1-.8-1.25-1-1.25-2.55 0-1.55 1.25-2.75.8-.8 1.8-1.15l1.2-.25h.9q1.15.05 2.1.8 1.2.95 1.2 2.5t-1.2 2.8l-.6.5q-1.05.75-2.4.9h-.9m7.4 2.3q.05-.55.45-1 .5-.45 1.15-.45.65 0 1.1.45.45.45.5 1.1v.05q0 .65-.5 1.1-.45.5-1.1.5-.65 0-1.15-.5-.45-.45-.45-1.1v-.15" fill="#fffff3" fill-rule="evenodd" transform="translate(-10.45 -19.5)"/><path d="M64.4 42.9q.85-3.7 3.7-6.45 1.7-1.65 3.6-2.5-1.25.7-2.35 1.9-2.55 2.85-2.85 6.8h-.9l-1.2.25" fill="#47d0be" fill-rule="evenodd" transform="translate(-10.45 -19.5)"/><path d="M5.5 22.7q.9-3.05 2.95-5.45 2.15-2.5 4.7-3.35l2.65-.45q4.05 0 6.6 3.8 2.5 3.8 2 9.15l-.55 3.15-.1.3q-.65 2.15-1.8 4l-1.25 1.7q-3.25 3.8-7.3 3.8-4.1 0-6.65-3.8-2.5-3.8-2-9.15.2-1.95.75-3.7m65.7 9.15q-1.05 2.95-3.25 5.3-3.7 3.95-8.45 3.95-4.8 0-7.85-3.95-3.05-3.9-2.65-9.4.45-5.45 4.1-9.4 3.55-3.75 8.15-3.9h.3q4.75 0 7.85 3.9 2.4 3.15 2.65 7.2l-.05 2.2q-.15 2.15-.8 4.1z" fill="none" stroke="#216167" stroke-linecap="round" stroke-linejoin="round" stroke-width="2"/><path d="M57.5 45.65V32l18.6-3.8 10.1 7.6q2.95 11.4-3.1 20 3.45-13.85-8.55-17.15-12.05-3.3-17.05 7m-21.55.2q-3.15-10.9-13.2-8.65Q12.7 39.4 12.4 52.6l-1.95-6.2 7.75-14.1q8.8-5.05 16.6 0 8 6.8 1.15 13.55" fill="#fffff3" fill-rule="evenodd" transform="translate(-10.45 -19.5)"/><path d="M20.45 3.5q2.75-2.5 5.4 0m22.3-.6q2.3-3.15 5.2-1.1" fill="none" stroke="#216167" stroke-linecap="round" stroke-linejoin="round" stroke-width="2"/><path d="M72.65 36.3q3.45-13.85-8.55-17.15-12.05-3.3-17.05 7m-21.55.2q-3.15-10.9-13.2-8.65Q2.25 19.9 1.95 33.1" fill="none" stroke="#216167" stroke-linecap="round" stroke-linejoin="round" stroke-width="2.5"/></g><g id="h"><path d="M.3 36.6q-1.85-8.95 7.95-16.7.55-13.65 10.3-16.75 6.35-1.9 11.8 2.3 8-6.3 16-5.3 7.95.95 8.65 14 14.1-4 21.95 8.7Q80.7 28.9 79.9 34.5q6.05 1.35 8.55 6.25Q99.25 35.1 106.8 47q4.3 7.7-2.85 11.45-1.25 8.25-7.75 1.95-2.65 6.05-7.6 3.5-4.05-3.5.5-8.9-.8-3.25-2.3-4.9-.4-4.2-5.9-5.6-5.6-1.45-11.55 3.85-8 7.7-.25 15.35-7.7-7.3-12.75-18.15-3.95.8-5.95-2.15-.9 3.85-5.25 5.05-12.6 6.4-9-1.15 4.95-6.85 3.7-11.25Q37.7 25.75 27.5 30q5.15-9.75-2.5-12.6-11.2-2.65-10.25 6.05-.6 1.4-3.5.6Q.65 25.25.3 36.6m74.15-11.7Q66.9 10.75 52.35 20 70 18.05 74.9 36.3q2.6-5.7-.45-11.4M91.9 53.35q3.3-9.05 11.4-6.6-5.45-9.7-11.7-6.15-5.75 4.5.3 12.75" fill="#b4dfe8" fill-rule="evenodd" transform="translate(1.25 1.25)"/><path d="M45.15 48.45q-.75 12.8-8.5 14.55Q24.95 66.15 22 52.25q-9.85 1.25-16.4-5.8-4.3-5.1-5.3-9.85.35-11.35 10.95-12.55 2.9.8 3.5-.6-.95-8.7 10.25-6.05 7.65 2.85 2.5 12.6 10.2-4.25 12.35 6.05 1.25 4.4-3.7 11.25-3.6 7.55 9 1.15m29.3-23.55q3.05 5.7.45 11.4Q70 18.05 52.35 20q14.55-9.25 22.1 4.9M91.9 53.35q-6.05-8.25-.3-12.75 6.25-3.55 11.7 6.15-8.1-2.45-11.4 6.6" fill="#fffff3" fill-rule="evenodd" transform="translate(1.25 1.25)"/><path d="M86.8 50.1q-2.35-2.65-6.5-1.45-8.7 2.3-8.9 11.95l-2.05 3.35-.25-.25q-7.75-7.65.25-15.35 5.95-5.3 11.55-3.85 5.5 1.4 5.9 5.6" fill="#fefdcd" fill-rule="evenodd" transform="translate(1.25 1.25)"/><path d="M79.9 34.5q8.15-3.8 11.35 3.3 10.85-5.2 17.7 8.9 3.85 9.35-2.95 13.75-1.55 11.75-9.85 5.05-6.15 4.7-10.3 0Q82.6 59.35 89.1 55q-4.55 5.4-.5 8.9 4.95 2.55 7.6-3.5 6.5 6.3 7.75-1.95Q111.1 54.7 106.8 47q-7.55-11.9-18.35-6.25-2.5-4.9-8.55-6.25" fill="#fde76d" fill-rule="evenodd" transform="translate(1.25 1.25)"/><path d="M1.55 37.85Q-.3 28.9 9.5 21.15 10.05 7.5 19.8 4.4q6.35-1.9 11.8 2.3 8-6.3 16-5.3 7.95.95 8.65 14 14.1-4 21.95 8.7 3.75 6.05 2.95 11.65 8.15-3.8 11.35 3.3 10.85-5.2 17.7 8.9 3.85 9.35-2.95 13.75-1.55 11.75-9.85 5.05-6.15 4.7-10.3 0-3.25-6.15 3.25-10.5-.8-3.25-2.3-4.9-2.35-2.65-6.5-1.45-8.7 2.3-8.9 11.95M57.6 46.8q-3.95.8-5.95-2.15-.9 3.85-5.25 5.05-.75 12.8-8.5 14.55Q26.2 67.4 23.25 53.5q-9.85 1.25-16.4-5.8-4.3-5.1-5.3-9.85" fill="none" stroke="#216167" stroke-linecap="round" stroke-linejoin="round" stroke-width="2.5"/></g><g id="i"><path d="M5.55 14.75q3.1-1.4 7.45-.3Q11.7.9 24.5 0q3.6.4 6.3 2.55-10.9-.3-11 8 .65 3.15-.5 3.9-3.45 4.15-3.15 9.75 5.05 8.9 10.65 5.35 2.9 9.15 9.4 7.7-3.2 9.1 9.25 11.6-1.65.75-3.45.65-5.4-2.6-7.6-5.15-10.1 4.45-13.9-4.25-10.15 2.05-11.55-8.3-10.5-3.75-3.4-17.05" fill="#b4dfe8" fill-rule="evenodd" transform="translate(1.25 1.25)"/><path d="m30.8 2.55 1.3 1.25q-7.75 1.2-8.95 8.95-.65 6.3 5.55 6.2 1.35.35 0 3.85-1.05 4.95 3.5 6.85 5.45 1.2 10.85-2.2 3.2 5.05 9.65 2.85-1.25 1.85-3.15 3.5 3.6 6.4.15 11.45-2 2.6-4.25 3.6-12.45-2.5-9.25-11.6 1.55-.35 3.35-1.35-1.8 1-3.35 1.35-6.5 1.45-9.4-7.7-5.6 3.55-10.65-5.35-.3-5.6 3.15-9.75 1.15-.75.5-3.9.1-8.3 11-8" fill="#fde76d" fill-rule="evenodd" transform="translate(1.25 1.25)"/><path d="M32.1 3.8q2 2.1 3.4 5.4Q51 2.7 54.65 17.65q1.55 7.3-1.95 12.65-6.45 2.2-9.65-2.85-5.4 3.4-10.85 2.2-4.55-1.9-3.5-6.85 1.35-3.5 0-3.85-6.2.1-5.55-6.2Q24.35 5 32.1 3.8" fill="#fffff3" fill-rule="evenodd" transform="translate(1.25 1.25)"/><path d="M42 49.5q-3.3-.2-7.1-3.15-10.85 8.2-15.3-4.7-10.5 1.55-12.3-8.7-9.8-2.2-6.4-13.6 1.8-3.3 4.65-4.6-7.1 13.3 3.4 17.05 1.4 10.35 11.55 8.3 3.8 8.7 13.9 4.25 2.2 2.55 7.6 5.15" fill="#fffdcd" fill-rule="evenodd" transform="translate(1.25 1.25)"/><path d="M36.2 37.25q1.55-.35 3.35-1.35m-23.4-11.7q5.05 8.9 10.65 5.35 2.9 9.15 9.4 7.7" fill="none" stroke="#216167" stroke-linecap="round" stroke-linejoin="round" transform="translate(1.25 1.25)"/><path d="M43.25 50.75q-3.3-.2-7.1-3.15-10.85 8.2-15.3-4.7-10.5 1.55-12.3-8.7-9.8-2.2-6.4-13.6 1.8-3.3 4.65-4.6 3.1-1.4 7.45-.3-1.3-13.55 11.5-14.45 3.6.4 6.3 2.55l1.3 1.25q2 2.1 3.4 5.4 15.5-6.5 19.15 8.45 1.55 7.3-1.95 12.65-1.25 1.85-3.15 3.5 3.6 6.4.15 11.45-2 2.6-4.25 3.6-1.65.75-3.45.65z" fill="none" stroke="#216167" stroke-linecap="round" stroke-linejoin="round" stroke-width="2.5"/></g><g id="j"><path d="m12.9 16.9-2.05-.3q-3.05-1.3-3.8-4.5-5.95-.45-6.9-3.75-.4-2.1.4-3.45 2.9 4.75 6.1 3.05.75 1.45 2.8 2.85l.1.1q2 2.4 5.65 1.2-.05 2.7-2.3 4.8" fill="#98b74f" fill-rule="evenodd" transform="translate(1 1)"/><path d="M15.2 12.1q-3.65 1.2-5.65-1.2 2.95.7 5.3-1.05.35 1.15.35 2.25M6.65 7.95Q3.45 9.65.55 4.9q1.4-2.45 6.6-2.8 2.45-4.05 6-.25-2.85-.85-5.3.9-2.45 2.75-1.2 5.2" fill="#fde76d" fill-rule="evenodd" transform="translate(1 1)"/><path d="M9.45 10.8Q7.4 9.4 6.65 7.95l1.2-.85q.6 2.35 1.6 3.7" fill="#7ec6b8" fill-rule="evenodd" transform="translate(1 1)"/><path d="m9.55 10.9-.1-.1q-1-1.35-1.6-3.7l-1.2.85Q5.4 5.5 7.85 2.75q2.45-1.75 5.3-.9l.4.45q1.5 1.7.05 4.8l1.25 2.75q-2.35 1.75-5.3 1.05" fill="#fefdcd" fill-rule="evenodd" transform="translate(1 1)"/><path d="M12.9 16.9q2.25-2.1 2.3-4.8 0-1.1-.35-2.25L13.6 7.1q2.8 2.1 3 4.45.15 1.45-.75 3.05-1.35 1.95-2.95 2.3" fill="#fefefe" fill-rule="evenodd" transform="translate(1 1)"/><path d="M1.55 5.9q-.8 1.35-.4 3.45.95 3.3 6.9 3.75.75 3.2 3.8 4.5l2.05.3q1.6-.35 2.95-2.3.9-1.6.75-3.05-.2-2.35-3-4.45 1.45-3.1-.05-4.8l-.4-.45q-3.55-3.8-6 .25-5.2.35-6.6 2.8z" fill="none" stroke="#216167" stroke-linecap="round" stroke-linejoin="round" stroke-width="2"/></g><use ffdec:characterId="3" height="90" width="90" xlink:href="#k" id="b"/><use ffdec:characterId="2" height="65.3" transform="scale(1.5241 1.3783)" width="59.05" xlink:href="#l" id="k"/><use ffdec:characterId="1" height="65.3" width="59.05" xlink:href="#m" id="l"/><path d="M59.05 0v65.3H0V0h59.05" fill-opacity="0" fill-rule="evenodd" id="m"/><path d="M90.6 11.3q0 4.7-13.3 8-13.25 3.3-32 3.3t-32.05-3.3Q0 16 0 11.3t13.25-8Q26.55 0 45.3 0q18.75 0 32 3.3 13.3 3.3 13.3 8" fill-opacity=".353" fill-rule="evenodd" id="d"/></defs></svg>