<svg xmlns:ffdec="https://www.free-decompiler.com/flash" xmlns:xlink="http://www.w3.org/1999/xlink" ffdec:objectType="frame" height="100" width="100" xmlns="http://www.w3.org/2000/svg"><use ffdec:characterId="20" height="189.3" transform="matrix(.6155 0 0 .616 21.391 -16.068)" width="88.85" xlink:href="#a"/><use ffdec:characterId="21" height="94" transform="scale(1.4084 1.0638)" width="71" xlink:href="#b"/><defs><path d="M38.15-7.6q15.8 3.15 15.8 7.6 0 4.45-15.8 7.55Q22.4 10.7 0 10.7q-22.35 0-38.15-3.15Q-53.9 4.45-53.9 0q0-4.45 15.75-7.6 15.8-3.1 38.15-3.1 22.4 0 38.15 3.1" fill-opacity=".498" fill-rule="evenodd" transform="translate(53.9 10.7)" id="c"/><path d="m27.25 2.65 2.45-.45.95-.6.95-1.25q.45-.35.85-.35l.8.2q-.7 1-2.85 8.35-1.6 5.35-4.8 6.05-1.2.25-3.55 1.85-2.45 1.55-3.6 2.95l-3.25 2.85q-1.75.9-4.35.9-3.55 0-6.55-1.35Q0 19.95 0 16.3q0-2.4 3.7-5.8Q6.85 7.6 8.5 7l3.75-1.05Q14 5.5 15 4.7l2.35-2.1q1.85-1.45 3.85-1.45.95 0 2.95.8l3.1.7" fill="#d5c2b1" fill-rule="evenodd" id="s"/><path d="M13.1 2.5q0 1.6-1.2 2.7-1.1 1.15-2.7 1.15-1.65 0-2.8-1.15-1.1-1.1-1.1-2.7Q5.3.85 6.4-.3q1.15-1.1 2.8-1.1 1.6 0 2.7 1.1 1.2 1.15 1.2 2.8" fill="#3d0c08" fill-rule="evenodd" transform="translate(-5.3 1.4)" id="q"/><path d="m1.25 6.4.95-3.1q.65-2.05 1.15-2.05.95 0 3.4 3.55l3.65 5.3" fill="none" stroke="#3b0b07" stroke-linecap="round" stroke-linejoin="round" stroke-width="2.5" id="h"/><path d="M2.65 26.1q-1.1 0-1.9-.8Q0 24.5 0 23.4q0-1.1.75-1.9.8-.75 1.9-.75 1.1 0 1.9.75.75.8.75 1.9 0 1.1-.75 1.9-.8.8-1.9.8m37.7-24.3q1.85 1.85 1.85 4.45t-1.85 4.4q-1.8 1.85-4.4 1.85-2.6 0-4.45-1.85-1.8-1.8-1.8-4.4 0-2.6 1.8-4.45Q33.35 0 35.95 0t4.4 1.8m4 14.45q0-1.05.75-1.85t1.9-.8q1.1 0 1.85.8.8.8.8 1.85 0 1.15-.8 1.95-.75.75-1.85.75-1.15 0-1.9-.75-.75-.8-.75-1.95" fill="#fe9eaa" fill-rule="evenodd" id="t"/><path d="M71 0v94H0V0h71" fill="#dcd550" fill-opacity="0" fill-rule="evenodd" id="b"/><g id="a" transform="translate(10.25 31.2)"><use ffdec:characterId="1" height="21.4" transform="matrix(.701 0 0 .701 -4.433 142.2)" width="107.85" xlink:href="#c"/><use ffdec:characterId="2" height="95.35" transform="translate(2.05 31.3)" width="74.45" xlink:href="#d"/><use ffdec:characterId="3" height="63.95" transform="translate(-.6 51.35)" width="78.3" xlink:href="#e"/><use ffdec:characterId="11" height="73.2" transform="translate(24.65 -31.2)" width="43.95" xlink:href="#f"/><use ffdec:characterId="16" height="37.7" transform="translate(2.1 38.35)" width="31.4" xlink:href="#g"/><use ffdec:characterId="17" height="11.35" transform="translate(9.75 90.6)" width="11.65" xlink:href="#h"/><filter id="i"><feConvolveMatrix divisor="4" in="SourceGraphic" kernelMatrix="1 1 1 1" order="2 2" result="filterResult1"/></filter><use ffdec:characterId="19" filter="url(#i)" height="26.1" transform="translate(7.7 74.05) scale(.5993)" width="49.65" xlink:href="#j"/></g><g id="d"><path d="M37.45-13.9q-.55-1.75-.55-2.7 0-3.25 1.35-4.8 1.4-1.65 5.9-3.55l.05-.1h.05l2.8-1.05 3.35-1.2.4-.15 5.1-2.3-1.95 3.55-.9 1.65-.25.4-.15.3q-.75 1.4-.75 1.7l-.05.35q-1.2 4.25-3.7 6.3t-7.15 2l-3.55-.4" fill="#896799" fill-rule="evenodd" transform="translate(3.8 35.45)"/><path d="M68-20.75v.25q0 2.3-.9 3.5l-.6.65q-1.1.85-3.15 1.15h-.05q-2.7.3-7.05-2.4l-.95-.6-1.3-.95.65-.9.9-.9 2.6-1.5.35-.1.55-.2L60.3-23l.6-.05 2.9.35 2.75.9L68-20.75" fill="#6d3d71" fill-rule="evenodd" transform="translate(3.8 35.45)"/><path d="M37.4-13.9h.05l3.55.4q4.65.05 7.15-2t3.7-6.3q0 1.05 2.15 2.65l1.3.95q1.6 5.15 2.1 11.45.75 9.5-1.25 19.4l-.95 4.3-.15.45-.65 2.4-.8 2.5-4.1.85Q37.65 25.2 29.95 21.5l-.6-.3.6-.6 2.7-3.25 2-3.2Q38 8.05 38.7 1q.35-3.8-.05-7.85-.35-3.55-1.25-7.05" fill="#e22840" fill-rule="evenodd" transform="translate(3.8 35.45)"/><path d="m30.05-25.7.05-.05q1.25.1 2.1 2.4.7 1.95.7 3.75l-.05 1.2q-.15.9-.45.9-1.05 0-1.95-2.3-.9-2.05-.9-3.75l.05-.85.15-.6.15-.45.15-.25m-12.4-5.8.55-.25-.25.75q0 .4.55 1.45l.1.25.5 1.45.15 1.75-.1 2q-.1 1.2-.65 1.7-2.05 2-2.9 2-1.95 0-3.7-1.3-1.8-1.3-1.8-2.85 0-.75.95-1.9l1.7-1.7.5-.5 2.05-1.6 2.2-1.2.15-.05" fill="#e0c1e3" fill-rule="evenodd" transform="translate(3.8 35.45)"/><path d="m55.3-18.2.95.6q4.35 2.7 7.05 2.4 3.05 6.15 3.05 10.6 0 2.25-1.2 4.25l-.9 1.45.5 1.3q.7 2.2.7 4.7 0 4.35-1.9 7.7-1 1.7-3.4 4.45l.45 2.25.05.6-1.05.3-2.25.3-3.75-.4.8-2.5.65-2.4.15-.45.95-4.3q2-9.9 1.25-19.4-.5-6.3-2.1-11.45" fill="#a41a31" fill-rule="evenodd" transform="translate(3.8 35.45)"/><path d="M66.5-16.35q3.8 6.3 2.1 13.95 2.9 10.45-2.1 19.55V18l-.95 7.95q-.9 6.9-7.35 14.2l-.85 1.4Q55.7 44.8 53.1 46.3l-.15.1-.65.55q-2.15 1.6-4.65 2.65l-1.25.2h-.1l-3.1.4-1.9.15H41l.2-.1q1.55-.9 2.85-1.7l.3-.2.9-.65 1.2-.85.9-.7 1.6-1.6q1 .05 3-1.8l2.6-2.75L56 38.1q2.25-3 3.5-5.65 1.6-3.4 1.6-6.15l-.45-4.2-.05-.6-.45-2.25q2.4-2.75 3.4-4.45 1.9-3.35 1.9-7.7 0-2.5-.7-4.7l-.5-1.3.9-1.45q1.2-2 1.2-4.25 0-4.45-3.05-10.6h.05q2.05-.3 3.15-1.15m-9.15 57.9q-1.9 2.75-4.25 4.75 2.35-2 4.25-4.75" fill="#ac5e6c" fill-rule="evenodd" transform="translate(3.8 35.45)"/><path d="M9.35 48.55 9 48.3l.5.05-.15.2M53.6 22.3l3.75.4 2.25-.3 1.05-.3.45 4.2q0 2.75-1.6 6.15-1.25 2.65-3.5 5.65L54.55 40l-2.6 2.75q-2 1.85-3 1.8l-1.6 1.6-.9.7-1.2.85-.9.65-.3.2q-1.3.8-2.85 1.7l-.2.1-.15.05-7.1.1-1.95-.1-1.05-.1-.8-.05.8-.25 1.15-.35 2-.9q2.5-1.25 4.85-3.1 2.55-2.05 4.9-4.9l1.7-2.25q5.15-6.9 8.25-16.2" fill="#a52826" fill-rule="evenodd" transform="translate(3.8 35.45)"/><path d="m8.1-24.1-.1-.4q-.15-1.6 1.55-3.6l.05-.1q1.25-1.5 2.55-2.3l4.2-2.35q1.65-.85 5.8-1.3Q27-34.6 33.8-34.4q10.8.35 22.9 3.25l1.5.4-2.3 1-5.1 2.3-.4.15-3.35 1.2-2.8 1.05h-.05l-.05.1q-4.5 1.9-5.9 3.55-1.35 1.55-1.35 4.8 0 .95.55 2.7h-.05q-2.8-.7-5.55-2.45-4.6-2.85-4.3-8.4Q25-22.3 21.5-20.6q-3.55 1.65-6.4 1.6-2.75 0-4.75-1.5T8.1-24.1m22-1.65h-.15l.1.05-.15.25-.15.45-.15.6-.05.85q0 1.7.9 3.75.9 2.3 1.95 2.3.3 0 .45-.9l.05-1.2q0-1.8-.7-3.75-.85-2.3-2.1-2.4m-12.6-5.7-2.2 1.2-2.05 1.6-.5.5-1.7 1.7q-.95 1.15-.95 1.9 0 1.55 1.8 2.85 1.75 1.3 3.7 1.3.85 0 2.9-2 .55-.5.65-1.7l.1-2-.15-1.75-.5-1.45-.1-.25q-.55-1.05-.55-1.45l.25-.75-.55.25h-.15v.05" fill="#a784ac" fill-rule="evenodd" transform="translate(3.8 35.45)"/><path d="M8.1-24.1q.25 2.1 2.25 3.6T15.1-19q2.85.05 6.4-1.6 3.5-1.7 6.05-4.15-.3 5.55 4.3 8.4 2.75 1.75 5.55 2.45.9 3.5 1.25 7.05.4 4.05.05 7.85-.7 7.05-4.05 13.15l-2 3.2-2.7 3.25-.6.6Q14.05 21 3.8 14.55.95 12.7-1.55 10.4l.5-2.5Q-3.35-2.2 2.3-11.4q.45-7.75 5.8-12.7m22-1.65-.05.05-.1-.05h.15" fill="#ea485f" fill-rule="evenodd" transform="translate(3.8 35.45)"/><path d="M-1.9 25.65q-1.3-4.85-.7-9l1.05-6.25q2.5 2.3 5.35 4.15Q14.05 21 29.35 21.2q-3.95 3.7-9.2 5.6Q10.8 30.1 0 26.35l-1.9-.7" fill="#ec5d4f" fill-rule="evenodd" transform="translate(3.8 35.45)"/><path d="m11.15 45.6-3-1.3-.05-.05Q2.55 39.85.55 32.3l-.25-.5q-1.45-3.2-2.2-6.15l1.9.7q10.8 3.75 20.15.45 5.25-1.9 9.2-5.6l.6.3q7.7 3.7 19.55 1.65l4.1-.85q-3.1 9.3-8.25 16.2l-1.7 2.25q-2.35 2.85-4.9 4.9-2.35 1.85-4.85 3.1l-2 .9-1.15.35-.8.25-4.3-.4-1.8-.3-1.7-.35Q17.6 48.05 13 46.35l-1.85-.75" fill="#e33b32" fill-rule="evenodd" transform="translate(3.8 35.45)"/><path d="M46.4 49.8q.05 1.25.35 2.5.45 2.2 1.5 4.2l-2.35.85-.05-.1q-.15-1.55.1-4.5l.35-2.95h.1M44 57.9l-2 .45-.1-1.4-.3-2.65-.4-2.3-.35-1.6.15-.05h.3l.45 1.25.4 1.35.35 1.15 1.1 3.15.4.65m-9.9 1.15h-.2L31.3 59l.2-3.55.05-.75.25-4.3 1.95.1.05 3.7.05.45.25 4.35v.05m-6 .05H28l-1.6-.2-1.15-.2-.9-.15-.9-.2-.8-.2-2.05-.35-4.05-.9.25-.75.15-.6.6-2.05.2-.8.35-1.55-.3-.75q-.3-.4-.65-.4-1 0-1.85 1.75l-.1.15-1.25 1.85q-.25 0-.9-.55l-.55-.45q-1.1-1-1.1-1.4l.4-1.25.45-1.35.7-2.2.05-.2q4.6 1.7 9.15 2.85l1.7.35 1.8.3 4.3.4.8.05q-.5 3.95-.85 4.4l-1.25.65q-.25.25-.35.8l-.05.35-.7 2.25-1.65-.2-3.25-.4 3.25.4 1.65.2.55.05v.3m-2.4-5.8-.25-.6q-.25-.25-.65-.15l-.1.05q-.9.9-1.25 1.55-.4.95-.4 1.9l.1 1q.1.2.55.2 1 0 1.6-1.7l.3-1.1.1-1.15" fill="#edd671" fill-rule="evenodd" transform="translate(3.8 35.45)"/><path d="m45.9 57.35-1.9.55-.4-.65-1.1-3.15-.35-1.15-.4-1.35-.45-1.25 1.9-.15 3.1-.4-.35 2.95q-.25 2.95-.1 4.5l.05.1m-3.9 1-.7.1-1.55-3.15-.75 3.45-4.9.3V59l-.25-4.35-.05-.45-.05-3.7 7.1-.1.35 1.6.4 2.3.3 2.65.1 1.4m-8.1.7-.3.05h-.1l-1.1.1-.1.05H32l-3.9-.15v-.3l-.55-.05.7-2.25.05-.35q.1-.55.35-.8l1.25-.65q.35-.45.85-4.4l1.05.1-.25 4.3-.05.75-.2 3.55 2.6.05M31.3 59l-3.2-.2 3.2.2" fill="#ac994d" fill-rule="evenodd" transform="translate(3.8 35.45)"/><path d="M16.55 56.9q-6.9-1.95-10.4-5.4 1.85-1.25 3.2-2.95l.15-.2 1.65-2.75 1.85.75-.05.2-.7 2.2-.45 1.35-.4 1.25q0 .4 1.1 1.4l.55.45q.65.55.9.55l1.25-1.85.1-.15Q16.15 50 17.15 50q.35 0 .65.4l.3.75-.35 1.55-.2.8-.6 2.05-.15.6-.25.75m9.15-3.6-.1 1.15-.3 1.1q-.6 1.7-1.6 1.7-.45 0-.55-.2l-.1-1q0-.95.4-1.9.35-.65 1.25-1.55l.1-.05q.4-.1.65.15l.25.6" fill="#f9eaaf" fill-rule="evenodd" transform="translate(3.8 35.45)"/><path d="m55.9-29.75 2.3-1 3.2.8q2.9 1.95 4.7 4.4 1.8 2.55 1.9 4.8l-1.45-1.05-2.75-.9-2.9-.35-.6.05-1.25.25-.55.2-.35.1-2.6 1.5-.9.9-.65.9q-2.15-1.6-2.15-2.65l.05-.35q0-.3.75-1.7l.15-.3.25-.4.9-1.65 1.95-3.55" fill="#886698" fill-rule="evenodd" transform="translate(3.8 35.45)"/><path d="M11.9 11.35q.25 2.1 2.25 3.6t4.75 1.5q2.85.05 6.4-1.6 3.5-1.7 6.05-4.15-.3 5.55 4.3 8.4 2.75 1.75 5.55 2.45h.05l3.55.4q4.65.05 7.15-2t3.7-6.3q0 1.05 2.15 2.65l1.3.95.95.6q4.35 2.7 7.05 2.4h.05q2.05-.3 3.15-1.15" fill="none" stroke="#4d2551" stroke-linecap="round" stroke-linejoin="round" stroke-width="1.5"/><path d="M61.15 77q-1.65 3.25-4.25 4.75M44.8 85.8h.3l1.9-.15 3.1-.4m-35.15-4.2 1.85.75q4.6 1.7 9.15 2.85l1.7.35 1.8.3 4.3.4.8.05 1.05.1 1.95.1 7.1-.1.15-.05" fill="none" stroke="#4b1016" stroke-linecap="round" stroke-linejoin="round" stroke-width="1.5"/><path d="m62 4.7-1.5-.4Q48.4 1.4 37.6 1.05q-6.8-.2-11.65.25-4.15.45-5.8 1.3l-4.2 2.35q-1.3.8-2.55 2.3l-.05.1q-1.7 2-1.55 3.6l.1.4M62 4.7l3.2.8q2.9 1.95 4.7 4.4 1.8 2.55 1.9 4.8v.25q0 2.3-.9 3.5l-.6.65" fill="none" stroke="#4d2551" stroke-linecap="round" stroke-linejoin="round" stroke-width="2"/><path d="m37.7 94.5-.3.05h-.1l-1.1.1-.1.05h-.3l-3.9-.15h-.1l-1.6-.2-1.15-.2-.9-.15-.9-.2-.8-.2" fill="none" stroke="#736631" stroke-linecap="round" stroke-linejoin="round" stroke-width="1.3"/><path d="M70.3 19.1q3.8 6.3 2.1 13.95 2.9 10.45-2.1 19.55v.85l-.95 7.95q-.9 6.9-7.35 14.2l-.85 1.4q-1.9 2.75-4.25 4.75l-.15.1-.65.55q-2.15 1.6-4.65 2.65l-1.25.2h-.1m-35.15-4.2-3-1.3-.05-.05q-5.55-4.4-7.55-11.95l-.25-.5q-1.45-3.2-2.2-6.15-1.3-4.85-.7-9l1.05-6.25.5-2.5q-2.3-10.1 3.35-19.3.45-7.75 5.8-12.7" fill="none" stroke="#4b1016" stroke-linecap="round" stroke-linejoin="round" stroke-width="2"/><path d="M50.2 85.25q.05 1.25.35 2.5.45 2.2 1.5 4.2l-2.35.85-1.9.55-2 .45-.7.1-1.55-3.15-.75 3.45-4.9.3h-.2l-2.6-.05-3.2-.2-.55-.05-1.65-.2-3.25-.4-2.05-.35-4.05-.9q-6.9-1.95-10.4-5.4 1.85-1.25 3.2-2.95l.15-.2 1.65-2.75" fill="none" stroke="#736631" stroke-linecap="round" stroke-linejoin="round" stroke-width="1.5"/></g><g id="e"><path d="M69.85-17.4q-.4 3-2.8 5.5l-.75.75q-3.05 1.2-6.95 1.9 2.5-2.85 5.05-4l2.55-1.2q1.05-.7 2-2.1l.9-.85m-1.2 21.35.05.3q0 .85-.7 1.55l-1.8 1.5q-1.65 1.3-3 2.85-3.2 1-7.1 1.55l-.75.1q1.3-1.55 2.55-2.45.75-.55 3.95-1.85l3.85-1.4q2.6-1.05 2.95-2.15M56.5 29.1l.35-.15.15.05.15.15q0 .7-3.05 1.85-3.1 1.1-3.65 1.4l-3.7 1.75-6.2.45-.45-.2-2.5.15-.2.05-7-.5q2.05-.85 2.45-.95l1.4-.3 1.35-.4 1.3-.35 2.85-.35 2.65-.2 4.05-.25 4.15-.5 5.9-1.7" fill="#6b3b6f" fill-rule="evenodd" transform="translate(4.35 28.6)"/><path d="m69.85-17.4 1.2-1.8q3.4 1.1 1.45 4.15-2.45 2.4-6.2 3.9l.75-.75q2.4-2.5 2.8-5.5M68.6 3.05q1.25-1.1 1.85-2.5 3.7 1.15 1.6 4.5-3.3 3.3-8.85 5.1 1.35-1.55 3-2.85L68 5.8q.7-.7.7-1.55l-.05-.3.05-.35v-.05l-.1-.5" fill="#a3934d" fill-rule="evenodd" transform="translate(4.35 28.6)"/><path d="m59.35-9.25-1.45.2q-10.1 1.4-22.7-.75-12.6-2.1-21.45-6.1Q5.2-19.8 2.1-23.6q-2.05-4.05 1.75-4.25 1.8 4.8 11.1 8.7 8.6 3.6 21 5.45l22.2.7q7.45-.9 10.8-3.55-.95 1.4-2 2.1l-2.55 1.2q-2.55 1.15-5.05 4m9.25 12.3.1.5v.05l-.05.35q-.35 1.1-2.95 2.15l-3.85 1.4q-3.2 1.3-3.95 1.85-1.25.9-2.55 2.45-10.8 1.35-24.1-.8Q17.4 8.8 7.7 4.4-1.7.2-3.55-4.05-4.05-8.3.4-7.9-1.2-3.4 9 .85q9.45 3.9 23.05 5.85 13.95 2 24.3.65 8.7-1.05 12.25-4.3" fill="#a683ab" fill-rule="evenodd" transform="translate(4.35 28.6)"/><path d="m46.75 34.15 3.7-1.75q.55-.3 3.65-1.4 3.05-1.15 3.05-1.85L57 29l-.15-.05-.35.15.5-1.45q3.3-1.35 5.65-3.05-.95 3.85-4 5.95-2.25 1.55-6.95 2.7l-4.95.9m-9.15.4 2.5-.15.45.2H37.6v-.05" fill="#9f8f45" fill-rule="evenodd" transform="translate(4.35 28.6)"/><path d="m57 27.65-.5 1.45-5.9 1.7-4.15.5-4.05.25-2.65.2-2.85.35-1.3.35-1.35.4-1.4.3q-.4.1-2.45.95l-.95-.15-9.75-1.9q-5.4-1.35-9.9-3.6-4.65-2.3-6.85-4.7-2.8-3-2.3-6.55 3.85 4.95 11.6 8.45 7.75 3.45 17.5 4.8 9.75 1.35 18.8-.45 4.8-.95 8.45-2.35" fill="#896799" fill-rule="evenodd" transform="translate(4.35 28.6)"/><path d="M70.65 17.45q3.75-1.5 6.2-3.9Q78.8 10.5 75.4 9.4l-1.2 1.8-.9.85q-3.35 2.65-10.8 3.55l-22.2-.7q-12.4-1.85-21-5.45Q10 5.55 8.2.75 4.4.95 6.45 5q3.1 3.8 11.65 7.7 8.85 4 21.45 6.1 12.6 2.15 22.7.75l1.45-.2q3.9-.7 6.95-1.9m-3.1 21.3q5.55-1.8 8.85-5.1 2.1-3.35-1.6-4.5-.6 1.4-1.85 2.5-3.55 3.25-12.25 4.3-10.35 1.35-24.3-.65-13.6-1.95-23.05-5.85-10.2-4.25-8.6-8.75Q.3 20.3.8 24.55 2.65 28.8 12.05 33q9.7 4.4 23.55 6.6 13.3 2.15 24.1.8l.75-.1q3.9-.55 7.1-1.55m-16.45 24 4.95-.9q4.7-1.15 6.95-2.7 3.05-2.1 4-5.95-2.35 1.7-5.65 3.05-3.65 1.4-8.45 2.35-9.05 1.8-18.8.45t-17.5-4.8Q8.85 50.75 5 45.8q-.5 3.55 2.3 6.55 2.2 2.4 6.85 4.7 4.5 2.25 9.9 3.6l9.75 1.9.95.15 7 .5h3.15l6.2-.45z" fill="none" stroke="#4e264e" stroke-linecap="round" stroke-linejoin="round" stroke-width="1.5"/></g><g id="r" fill-rule="evenodd"><path d="m40.15 38.6 1.95.95.55.25.9.5q1.6 5.5-8.2 6.35l-1.35.1q-9.05.65-15.25 0-6.7-.85-10.2-2.6-3.45-1.8-3.75-2.1l-.75-.85q-.85-.9-.7-2.2 0-.8.3-1.6.35-.95 1-1.95 1.25-1.95 1.9-4.15v-.05q.25-.9.1-1.85l-.8-2.15v-.05q1.5.5 2.3 1.95l.8 2.45.1.5q.4 2 1.05 2.7.8 1.15 2.7 1.05 1.9-.1 3.1-2.05l.75-1.6.25-2.65q-.1-2.3-3.9-6.5-3.8-4.15-3.9-6.6l.05-1.25q.1 1.2 2.95 3.6 3.05 2.45 4.85 2.35 1.15-.05 2.15-1 1.1-.95 1-1.95-.05-1.55-1.1-4.65-1.05-3.05-1.15-4.8Q17.7 6.15 19 3.6 20.55.25 23.75.05q1.6-.1 2.7.55l.65.4-.05.15-1.85-.2Q23.7 1 22.7 2.6q-.95 1.55-.85 3.25.15 2.8 1.75 5.5 1 1.7 3.35 4.25l3.3 4.1q1.55 2.35 1.7 4.6l-.25 2.65q-.4 1.9-.35 2.7.05 1.1.35 1.95l.15.3q.35.85 1 .8.8-.05 1.3-1l.55-1.7q.4-1.9.2-4.1l-.3-2.8-.15-.9 1.35 1.9q1.2 1.7 1.9 3.75l.35 1 .25 2.5v3.15q-.1 1.45.55 2.65.45.95 1.25 1.45l-.05.05-.85-.5q-2.7-1.65-2.75-3.6V32.8l.05-1.25-.05-1-.1-1.85-.8-1.8-.45 3.7-.3 1.05q-.8 2.15-2.75 2.25-.9.05-1.45-.65-.45-.45-.6-1.25l-.05-.5q-.05-.85.4-2.3l.4-2q-.15-3.4-1.55-6l-3.15-4.15q-2.35-2.7-3.25-4.25-1.6-2.75-2.1-6.2-1.2 2.05-1.15 3.9.1 1.4 1.3 4.2 1.25 2.9 1.25 4.15.15 2.05-1.35 3.3-1.35 1.05-3.25 1.2-.85.05-2.25-.55l-.85-.35 1.75 1.7q1.95 1.95 2.1 4.65.15 1.9-.1 3.45l-.65 2.4q-1.4 3.1-4.8 3.3-4.25.25-5.2-5.4-1.2.3-2.2 2.95-1 2.4-1 3.15.05.95 2.2 2.8 1.85 1.6 2.75 1.9l.65.3 3.8.8v.05h.05l2.2.35 3.4.55 3.55.25 4.3.1 4.8.15 3.3-.3 1.2-.2 1.95-.65.05.05h.1q.8-.45 1.5-.8 1.7-.9 1.9-2.4l-.05-.55q-.1-1.1-1.85-2.35l.05-.1m-4.6-11.7v-.65l-.3-.05-.05.1.35.6" fill="#ce2d12" transform="translate(-3.35 -.05)"/><path d="M40.1 38.7q1.75 1.25 1.85 2.35l.05.55q-.2 1.5-1.9 2.4-.7.35-1.5.8 1.35-1.45 1.25-2.9v-.05q0-.95-1.2-2l-1.95-1.6q-.45-.45-1.35-2.2l-.9-1 .15.4.45 1-.3.85-1.05.7q-1.8.1-3.25-1.55-1.55-1.65-1.65-3.95l.05-.45.05-1.1.35-1.3q-.45.25-.9 1.45-.15.2-.35 1.05l-.3.75h-.2l-.15-.75-.05-.2q0-1.35.8-3.4.8-2.2.7-3.8-.1-1.5-1.05-3.2-.85-1.65-1.85-2.5l-.05-.05-.05-.05.05.1.25.75-.35 1.55-.85-2.6q-.65-1.75-1.5-2.4.3.75.4 2.8l-.15 2.1q-.3.75-1.55 1.95l-1.5 1.3q-.65.65-.45 1.75l-.75-.75-.45-1q-.1.05-.1-.05l-.2.45q.1 1.25.85 3.2.85 1.95 1 3.75v.45q.05 2.95-1.05 4.9-1.25 2.15-3.5 2.25-1.9.1-3.95-.95l-.05.9-.35.65-2.05-1.95q-2-1.95-2.9-2.25l.95.9.55 1.4-.4.95q-.45.6-.4 1.15.05 1 .75 1.9l1.2 1.15-.05.05q-.9-.3-2.75-1.9-2.15-1.85-2.2-2.8 0-.75 1-3.15 1-2.65 2.2-2.95.95 5.65 5.2 5.4 3.4-.2 4.8-3.3l.65-2.4q.25-1.55.1-3.45-.15-2.7-2.1-4.65l-1.75-1.7.85.35q1.4.6 2.25.55 1.9-.15 3.25-1.2 1.5-1.25 1.35-3.3 0-1.25-1.25-4.15-1.2-2.8-1.3-4.2-.05-1.85 1.15-3.9.5 3.45 2.1 6.2.9 1.55 3.25 4.25l3.15 4.15q1.4 2.6 1.55 6l-.4 2q-.45 1.45-.4 2.3l.05.5q.15.8.6 1.25.55.7 1.45.65 1.95-.1 2.75-2.25l.3-1.05.45-3.7.8 1.8.1 1.85.05 1-.05 1.25v1.75q.05 1.95 2.75 3.6l.85.5h.05v.05m-10.85-9.05h.05l-.05-.15v.15" fill="#e35a2a" transform="translate(-3.35 -.05)"/><path d="m40.15 38.6-.05.1v-.05h-.05l.05-.05h.05M27.05 1.15 27.1 1l.55.3-.6-.15" fill="url(#k)" transform="translate(-3.35 -.05)"/><path d="m38.45 44.75-1.95.65-1.2.2.1-.65q-.1-.95-.55-1.85-.55-1.25-1.45-1.15l-.45.05-.3.5q-.05-.45.05-.5l.1-.55q-.05-1.25-.75-1.65-.7-.45-2.25-.4l-.1.1.15.15.55.85q0 .9-1.15.95-.85.05-1.7-.4-.9-.5-1-1.25-.05-.7 1.3-1.45 1.2-.75 1.2-1.45-.05-.8-.95-1.85l-1.45-1.85.05.3q0 1-.5 1.05-1.3.1-1.45-2.3l-.1-.2q0-1.5.85-2.75.95-1.3.85-3l-.4-1.3-.3-.65q-.3 1.05-1.3 2.3-1.05 1.35-1 2.55l.2.9-1.35-1.4q-.5-.85-.3-1.8l-.1-.1q-.4.4-.35 1.25.1 1.3.8 3.1l.4 1.15.35 1.4q.05.95-.45 1.95-.4.95-.4 1.65l.55 1.55q.45 1.05.5 1.8.05 1.4-1.25 2.35-1 .75-2.15.8l-1.1-.1q-.45-.25-.45-.95-.05-.85.2-1.55l-.1-.7-.95-.1q-1.1.05-2.55 1.05-1.55 1.15-1.5 2.2l.35.8-3.8-.8-.6-.35-1.2-1.15q-.7-.9-.75-1.9-.05-.55.4-1.15l.4-.95-.55-1.4-.95-.9q.9.3 2.9 2.25l2.05 1.95.35-.65.05-.9q2.05 1.05 3.95.95 2.25-.1 3.5-2.25 1.1-1.95 1.05-4.9v-.45q-.15-1.8-1-3.75-.75-1.95-.85-3.2l.2-.45q0 .1.1.05l.45 1 .75.75q-.2-1.1.45-1.75l1.5-1.3q1.25-1.2 1.55-1.95l.15-2.1q-.1-2.05-.4-2.8.85.65 1.5 2.4l.85 2.6.35-1.55-.25-.75h.05q1 .85 1.85 2.5.95 1.7 1.05 3.2.1 1.6-.7 3.8-.8 2.05-.8 3.4l.05.2.15.75h.2l.3-.75q.2-.85.35-1.05.45-1.2.9-1.45l-.35 1.3-.05 1.1-.05.45q.1 2.3 1.65 3.95Q31.9 38.1 33.7 38l1.05-.7.3-.85-.45-1-.15-.4.9 1q.9 1.75 1.35 2.2l1.95 1.6q1.2 1.05 1.2 2v.05q-1.25-.05-2.45-.7-1.1-.6-1.5-1.3l-.1.2-.15 1.4q.1 1.7 1.7 2.75.5.35 1.1.5" fill="#ef9226" transform="translate(-3.35 -.05)"/><path d="M25.85 19.05V19l.05.05h-.05" fill="url(#l)" transform="translate(-3.35 -.05)"/><path d="m35.55 26.9-.35-.6.05-.1.3.05v.65" fill="#cd2713" transform="translate(-3.35 -.05)"/><path d="M38.6 44.8h-.1l-.05-.05q-.6-.15-1.1-.5-1.6-1.05-1.7-2.75l.15-1.4.1-.2q.4.7 1.5 1.3 1.2.65 2.45.7.1 1.45-1.25 2.9m-3.3.8-3.3.3-4.8-.15-4.3-.1-3.55-.25-3.4-.55-2.2-.35-.05-.05-.35-.8q-.05-1.05 1.5-2.2 1.45-1 2.55-1.05l.95.1.1.7q-.25.7-.2 1.55 0 .7.45.95l1.1.1q1.15-.05 2.15-.8 1.3-.95 1.25-2.35-.05-.75-.5-1.8l-.55-1.55q0-.7.4-1.65.5-1 .45-1.95l-.35-1.4-.4-1.15q-.7-1.8-.8-3.1-.05-.85.35-1.25l.1.1q-.2.95.3 1.8l1.35 1.4-.2-.9q-.05-1.2 1-2.55 1-1.25 1.3-2.3l.3.65.4 1.3q.1 1.7-.85 3-.85 1.25-.85 2.75l.1.2q.15 2.4 1.45 2.3.5-.05.5-1.05l-.05-.3 1.45 1.85q.9 1.05.95 1.85 0 .7-1.2 1.45-1.35.75-1.3 1.45.1.75 1 1.25.85.45 1.7.4 1.15-.05 1.15-.95l-.55-.85-.15-.15.1-.1q1.55-.05 2.25.4.7.4.75 1.65l-.1.55q-.1.05-.05.5l.3-.5.45-.05q.9-.1 1.45 1.15.45.9.55 1.85l-.1.65" fill="#fffb5f" transform="translate(-3.35 -.05)"/><path d="m9.9 43.65-.65-.3.05-.05.6.35" fill="url(#m)" transform="translate(-3.35 -.05)"/></g><g id="g" transform="translate(4.2 9.45)"><use ffdec:characterId="12" height="37.7" transform="translate(-4.2 -9.45)" width="31.4" xlink:href="#n"/><filter id="o"><feConvolveMatrix divisor="4" in="SourceGraphic" kernelMatrix="1 1 1 1" order="2 2" result="filterResult0"/></filter><use ffdec:characterId="14" filter="url(#o)" height="23.15" transform="translate(1.55 8.9) scale(.5993)" width="33.25" xlink:href="#p"/><use ffdec:characterId="15" height="7.75" transform="translate(5.3 -1.4)" width="7.8" xlink:href="#q"/></g><g id="n" fill-rule="evenodd"><path d="m13.35-9.2 2.75-.25q3 0 4.45 1.5.95.95 2.4 4.4.4 1.05 2.7 4.25 1.55 2.2 1.55 4.55 0 2.95-1.35 6.15t-1.35 6.5q0 1-.9 2.05l-1.55 1.25-2.1.65q-.55.2-.95.55l-.65.7-1.4 1.7-2.7 2q-2.5 1.45-4 1.45-6.1 0-10-2.6Q-4.2 22.6-4.2 16.9q0-1.7.65-4.55.7-2.85.7-5.2L-3 5.4l-.15-1.65q0-2.65 1.55-5.15 1.2-2 3.25-3.65Q3.3-6.3 6.2-7.15l4.85-1.35 2.3-.7M22.8 5.15l-.7-2.4Q21.8 1.7 21 .8q-.75-.85-.85-1.5-.35-2.4-1.7-3.85-1.5-1.65-3.9-1.65l-2 .4-1.45 1.25L9.4-5Q6.25-5 3.8-2.95 1.35-1 .65 2.05.35 3.35.3 5.4L.2 8.85l-.7 3.05q-.55 2.1-.55 3.25 0 3.5 2.6 6.1l.65.6q2.3 1.95 5.3 1.95 2.45 0 4.5-1.25 1.2-.7 3.1-2.55.95-.9 4.1-1.35 1.85-1.55 1.4-4.35l.15-.05q2-2.35 2.25-5.7l.05-.95-.25-2.45" fill="#3d0c08" transform="translate(4.2 9.45)"/><path d="m22.8 5.15.25 2.45-.05.95q-.25 3.35-2.25 5.7l-.15.05q.45 2.8-1.4 4.35-3.15.45-4.1 1.35-1.9 1.85-3.1 2.55-2.05 1.25-4.5 1.25-3 0-5.3-1.95l-.65-.6q-2.6-2.6-2.6-6.1 0-1.15.55-3.25l.7-3.05.1-3.45q.05-2.05.35-3.35.7-3.05 3.15-5Q6.25-5 9.4-5l1.7.45 1.45-1.25 2-.4q2.4 0 3.9 1.65Q19.8-3.1 20.15-.7q.1.65.85 1.5.8.9 1.1 1.95l.7 2.4" fill="#fff" transform="translate(4.2 9.45)"/></g><linearGradient gradientTransform="matrix(.0015 .0269 -.0246 .0014 22.7 24.2)" gradientUnits="userSpaceOnUse" id="k" spreadMethod="pad" x1="-819.2" x2="819.2"><stop offset="0" stop-color="#d34311"/><stop offset="1" stop-color="#c91515"/></linearGradient><linearGradient gradientTransform="matrix(.0007 .0128 -.02 .0011 22.9 32.1)" gradientUnits="userSpaceOnUse" id="l" spreadMethod="pad" x1="-819.2" x2="819.2"><stop offset="0" stop-color="#f4ac36"/><stop offset="1" stop-color="#e75f07"/></linearGradient><linearGradient gradientTransform="matrix(.0012 .0213 -.0228 .0013 22.4 27.55)" gradientUnits="userSpaceOnUse" id="m" spreadMethod="pad" x1="-819.2" x2="819.2"><stop offset="0" stop-color="#efa05b"/><stop offset="1" stop-color="#dd2f0c"/></linearGradient><use ffdec:characterId="4" height="47" transform="translate(1.05 26.05)" width="40.4" xlink:href="#r" id="f"/><use ffdec:characterId="13" height="23.15" width="33.25" xlink:href="#s" id="p"/><use ffdec:characterId="18" height="26.1" width="49.65" xlink:href="#t" id="j"/></defs></svg>