<svg xmlns:ffdec="https://www.free-decompiler.com/flash" xmlns:xlink="http://www.w3.org/1999/xlink" ffdec:objectType="frame" height="100" width="100" xmlns="http://www.w3.org/2000/svg"><use ffdec:characterId="19" height="138.6" transform="matrix(.7634 0 0 .764 24.462 -5.183)" width="65.45" xlink:href="#a"/><use ffdec:characterId="20" height="48" transform="scale(1.7544 2.0833)" width="57" xlink:href="#b"/><defs><g id="a" transform="translate(.05 6.85)"><use ffdec:characterId="1" height="21.4" transform="matrix(.701 0 0 .701 4.021 115.85)" width="79.45" xlink:href="#c"/><use ffdec:characterId="2" height="60.65" transform="translate(3.6 39.65)" width="61.25" xlink:href="#d"/><filter id="e"><feConvolveMatrix divisor="4" in="SourceGraphic" kernelMatrix="1 1 1 1" order="2 2" result="filterResult0"/></filter><use ffdec:characterId="4" filter="url(#e)" height="29.05" transform="translate(6.2 53.7) scale(.5993)" width="29.35" xlink:href="#f"/><use ffdec:characterId="5" height="37.1" transform="translate(1.6 52.95)" width="63.65" xlink:href="#g"/><use ffdec:characterId="12" height="60.2" transform="translate(15.9 -6.85)" width="47" xlink:href="#h"/><use ffdec:characterId="17" height="21.85" transform="translate(26.35 25.75)" width="21.85" xlink:href="#i"/><use ffdec:characterId="18" height="11.45" transform="translate(21.95 39)" width="9.5" xlink:href="#j"/></g><g id="d"><path d="m48.25 4.35.85 1.95v.1L51 11v.3l-.95 2.75q-.25.4-.35.75-.7 1.45-.7 2.1 0 .85.7 2.8l-1.95.05-1.7-.1q-.2-1.85-2-4.05-2.05-2.55-3.95-2.55-.7 0-1.2.8l-.3.5-.1-.05q-2.65 2.7-6.85 3.2.8-3.15 2.85-8.45Q36 5.25 36 2.5v-.4L35.9.45l6.35 1.35q3.4.95 5.9 2.5l.1.05" fill="#896799" fill-rule="evenodd" transform="translate(.75 .75)"/><path d="M49.7 19.7q-.7-1.95-.7-2.8 0-.65.7-2.1.1-.35.35-.75L51 11.3V11l-1.9-4.6v-.1l-.85-1.95q2.45 1.5 4.7 3.35 1 .75 1.8 1.9 1.4 1.9 1.45 3.5 0 3.4-2.2 5.05-1.55 1.25-4.3 1.55" fill="#6d3d71" fill-rule="evenodd" transform="translate(.75 .75)"/><path d="M31.65 17.5q4.2-.5 6.85-3.2l.1.05v.1l3.2 3.5q1.8 1.35 4.25 1.7l1.7.1 1.95-.05q-.25 6-1.35 9.25l-.45 1.25-4.55 10.35q-1 2.55-4.65 3.95l-2.8.85-4.35-.55q-3.85-.6-8-2.1l-6.8-2.55.55-.2 2.55-.7 2.4-.95q4.55-2.25 5.65-6.55L29.15 28l.55-1.65.25-4.7-.15-4.05 1.8-.1h.05" fill="#e22840" fill-rule="evenodd" transform="translate(.75 .75)"/><path d="m38.6 14.35.3-.5q.5-.8 1.2-.8 1.9 0 3.95 2.55 1.8 2.2 2 4.05-2.45-.35-4.25-1.7l-3.2-3.5v-.1M23.2 16.3l-.8-.45-2.4-2.3q-2-2.55-2-4.9l.1-.55q.55-.35 1.5-.35 2 0 3.05 2.6.75 1.85.75 3.95l-.2 2M10.85 9.4 9.8 8.8l-1.15-1q-.5-.65-.5-1.35 0-1.85 4.55-4.35l.05.35.35 1.9-.05.3q-.1.95-1.15 2.85l-1.05 1.9" fill="#e0c1e3" fill-rule="evenodd" transform="translate(.75 .75)"/><path d="M49.7 19.7q2.75-.3 4.3-1.55l.15 1.7.45-.2.55-.2q.45 0 1.55 2.05 1.15 2 1.15 2.8 0 2.65-1.6 4.8l-1.05 1.2q-1.05.95-2.3 1.25 1.05.2 1.55 1.75.4 1.25.4 3.2 0 5.6-2.8 8.35l-1.85 1.4-10.9-.55-3.4-.35 2.8-.85q3.65-1.4 4.65-3.95L47.9 30.2l.45-1.25q1.1-3.25 1.35-9.25" fill="#a41a31" fill-rule="evenodd" transform="translate(.75 .75)"/><path d="M54 18.15q2.2-1.65 2.2-5.05l1.55 3.1q3.05 7.05 1.5 13.1l.15 1q.45 4.4-1.1 8.95-1.8 5.1-5.3 7.1h-.1l.05.05-.45.2q-2.9 4.35-7 6.35-3.75 1.9-8.25 1.6l.75-.45q5.85-3.4 6.05-5.7 3.8-.85 6.15-2.15l1.85-1.4q2.8-2.75 2.8-8.35 0-1.95-.4-3.2-.5-1.55-1.55-1.75 1.25-.3 2.3-1.25l1.05-1.2q1.6-2.15 1.6-4.8 0-.8-1.15-2.8-1.1-2.05-1.55-2.05l-.55.2-.45.2-.15-1.7" fill="#ac5e6c" fill-rule="evenodd" transform="translate(.75 .75)"/><path d="M50.2 46.25q-2.35 1.3-6.15 2.15-.2 2.3-6.05 5.7l-.75.45-.95-.1-1.05.1-1.65.1h-5.15l-2.7-.2q-4.55-.5-8.6-2l-.55-.2-1.55-.6q-3.5-1.5-6.05-3.35l3.8.55 3.7.6 3.4.2 6.2-.45 3.3-1.2 1.85-.85 1.25-.55 3.4-1.25 3.4.35 10.9.55" fill="#a52826" fill-rule="evenodd" transform="translate(.75 .75)"/><path d="M35.9.45 36 2.1v.4q0 2.75-1.5 6.55-2.05 5.3-2.85 8.45h-.05l-1.8.1h-.2l-4.15-.5-2.25-.8.2-2q0-2.1-.75-3.95-1.05-2.6-3.05-2.6-.95 0-1.5.35l.05-.15-1.75.75q-2.6 1.05-4.05 1.05l-1.5-.35 1.05-1.9q1.05-1.9 1.15-2.85l.05-.3-.35-1.9-.05-.35.65-.35 1.6-.3 6.7-1.1L28.6 0l6.45.35.85.1" fill="#a784ac" fill-rule="evenodd" transform="translate(.75 .75)"/><path d="M18 8.65q0 2.35 2 4.9l2.4 2.3.8.45 2.25.8 4.15.5h.2l.15 4.05-.25 4.7-.55 1.65-1.25 3.75q-1.1 4.3-5.65 6.55l-2.4.95-2.55.7-.55.2q-3.5-1.45-5.9-2.7Q5.9 34.85.25 30.6q-.85-6.8 1.1-12.25.6-1.65 2.1-2.9l.05-.05q1.4-4.45 5.15-7.6l1.15 1 1.05.6 1.5.35q1.45 0 4.05-1.05l1.75-.75-.05.15-.1.55" fill="#ea485f" fill-rule="evenodd" transform="translate(.75 .75)"/><path d="M.25 30.6q5.65 4.25 10.6 6.85 2.4 1.25 5.9 2.7-1.25.4-2.9 1.65-3.35 2.5-8.6 2.85-3.4-4.3-4.35-7.4Q-.15 33.8.35 31.5l-.1-.9" fill="#ec5d4f" fill-rule="evenodd" transform="translate(.75 .75)"/><path d="M9 48.3Q6.9 46.75 5.5 45l-.25-.35q5.25-.35 8.6-2.85 1.65-1.25 2.9-1.65l6.8 2.55q4.15 1.5 8 2.1l4.35.55-3.4 1.25-1.25.55-1.85.85-3.3 1.2-6.2.45-3.4-.2-3.7-.6L9 48.3" fill="#e33b32" fill-rule="evenodd" transform="translate(.75 .75)"/><path d="m16.6 52.25.55.2q4.05 1.5 8.6 2l2.7.2-.35 4.45H28l-1.6-.2-1.15-.2-.9-.15-.9-.2-2.85-.8-.25-.05-.05-2.35q-.6.2-1.15 1.2l-.35.65-.4-.15-1.05-.45.25-.4.5-1 .1-.6q0-.9-.6-.9l-.45.2-.4.25-.2-.15-.15-.3.2-1.2v-.05m17 2.4 1.65-.1q-.1 2.1 1.8 4l-2.4.35-.75.15q-.3-2.3-.3-4.4" fill="#edd671" fill-rule="evenodd" transform="translate(.75 .75)"/><path d="M28.45 54.65h5.15q0 2.1.3 4.4l-.3.05h-.1l-1.1.1-.1.05H32l-3.9-.15.35-4.45" fill="#ac994d" fill-rule="evenodd" transform="translate(.75 .75)"/><path d="m15.05 51.65 1.55.6v.05l-.2 1.2.15.3.2.15.4-.25.45-.2q.6 0 .6.9l-.1.6-.5 1-.25.4q-2.9-1.35-4.4-3.15l2.1-1.6" fill="#f9eaaf" fill-rule="evenodd" transform="translate(.75 .75)"/><path d="m49 5.1-.1-.05Q46.4 3.5 43 2.55L36.65 1.2l-.85-.1-6.45-.35-6.95.35-6.7 1.1-1.6.3-.65.35Q8.9 5.35 8.9 7.2q0 .7.5 1.35m47.55 5.3q-.05-1.6-1.45-3.5-.8-1.15-1.8-1.9Q51.45 6.6 49 5.1" fill="none" stroke="#4d2551" stroke-linecap="round" stroke-linejoin="round" stroke-width="1.5"/><path d="M32.4 18.25q4.2-.5 6.85-3.2m7.55 5.35 1.7.1 1.95-.05q2.75-.3 4.3-1.55 2.2-1.65 2.2-5.05M46.8 20.4q-2.45-.35-4.25-1.7l-3.2-3.5m-15.4 1.85-.8-.45-2.4-2.3q-2-2.55-2-4.9m.1-.55.05-.15-1.75.75q-2.6 1.05-4.05 1.05l-1.5-.35-1.05-.6-1.15-1m21.15 9.8h-.2l-4.15-.5-2.25-.8m8.45 1.2h-.05l-1.8.1" fill="none" stroke="#4d2551" stroke-linecap="round" stroke-linejoin="round" stroke-width="1.2"/><path d="M38 55.3q4.5.3 8.25-1.6 4.1-2 7-6.35l.45-.2.05-.05q3.5-2 5.3-7.1 1.55-4.55 1.1-8.95l-.15-1q1.55-6.05-1.5-13.1l-1.55-3.1M9.4 8.55q-3.75 3.15-5.15 7.6l-.05.05q-1.5 1.25-2.1 2.9Q.15 24.55 1 31.35l.1.9q-.5 2.3.55 5.75.95 3.1 4.35 7.4l.25.35q1.4 1.75 3.5 3.3 2.55 1.85 6.05 3.35M36 55.3l1.05-.1.95.1" fill="none" stroke="#4b1016" stroke-linecap="round" stroke-linejoin="round" stroke-width="1.5"/><path d="M39.35 15.2v-.1m-20.6-5.7.1-.55" fill="none" stroke="#4d2551" stroke-linecap="round" stroke-linejoin="round" stroke-width="2"/><path d="m15.05 51.65 1.55.6.55.2q4.05 1.5 8.6 2l2.7.2h5.15l1.65-.1" fill="none" stroke="#4b1016" stroke-linecap="round" stroke-linejoin="round" transform="translate(.75 .75)"/><path d="m34.65 59.8-.3.05h-.1l-1.1.1-.1.05h-.3l-3.9-.15h-.1l-1.6-.2-1.15-.2-.9-.15-.9-.2-2.85-.8-.25-.05-.05-2.35q-.6.2-1.15 1.2l-.35.65-.4-.15-1.05-.45Q15.2 55.8 13.7 54l2.1-1.6M36 55.3q-.1 2.1 1.8 4l-2.4.35-.75.15" fill="none" stroke="#736631" stroke-linecap="round" stroke-linejoin="round" stroke-width="1.3"/></g><g id="g"><path d="M52.35 16.4q-1.4 1.3-2.9 2.1-8.1-.5-18.25-2.8-13.25-3.05-21.25-7.65Q2 3.4 5.85 0q.65 3.2 7.75 6.75 7.05 3.6 17.9 6.3 10.8 2.7 19.15 3.25l1.7.1m-15.8 18.65q-5.3-.8-11.25-2.45-14.7-4.15-21.25-9.15-6.55-5-2.55-8.4.65 3.15 7.75 6.75 7.05 3.6 17.9 6.3 12.8 3.2 20.5 3.7l1.25.1q-1.5.6-2.75.5-4.5-.4-9.6 2.65" fill="#a683ab" fill-rule="evenodd" transform="translate(.65 .65)"/><path d="M59.9 18.05q.7-1.45.7-2.5v-.1l1.45-.95q1.2 2.55-2.15 3.55m-4.95 13.6q2.95-.45 4.1-1.65 2.3 3.95-6.3 5.3l.25-.35q1.2-1.45 1.95-3.3" fill="#a3934d" fill-rule="evenodd" transform="translate(.65 .65)"/><path d="m60.55 15.5.05.05q0 1.05-.7 2.5l-5.7.6-4.75-.15q1.5-.8 2.9-2.1 5.6.2 8.2-.9m-24 19.55q5.1-3.05 9.6-2.65 1.25.1 2.75-.5l6.05-.25q-.75 1.85-1.95 3.3l-.25.35-1.95.25-14.25-.5" fill="#6b3b6f" fill-rule="evenodd" transform="translate(.65 .65)"/><path d="M61.2 16.15q-2.6 1.1-8.2.9l-1.7-.1q-8.35-.55-19.15-3.25Q21.3 11 14.25 7.4 7.15 3.85 6.5.65q-3.85 3.4 4.1 8.05 8 4.6 21.25 7.65 10.15 2.3 18.25 2.8l4.75.15 5.7-.6q3.35-1 2.15-3.55l-1.45.95-.05.05m.05.05v-.1m-11.7 16.45-1.25-.1q-7.7-.5-20.5-3.7-10.85-2.7-17.9-6.3-7.1-3.6-7.75-6.75-4 3.4 2.55 8.4t21.25 9.15Q31.9 34.9 37.2 35.7l14.25.5 1.95-.25q8.6-1.35 6.3-5.3-1.15 1.2-4.1 1.65l-6.05.25z" fill="none" stroke="#4d2551" stroke-linecap="round" stroke-linejoin="round" stroke-width="1.3"/></g><g id="l" fill-rule="evenodd"><path d="M44.25 20.35q.8 1.35.8 3.5l-.1.6-.1.6-.1 1.35-.05.7.25 2.4.2 2.3q0 3.3-.85 6-.85 2.75-2.9 5.7l-2.95 4.9q-.5.95-.85 2.25l-.9.95-.25.2-.4.25-1.95.8-3.1.55-3.95-.25-6 .25q-3 0-6.15-1.2l-5.65-2.45Q5.3 48.5 3.4 47.4 0 45.5 0 42.15q0-2.85 2.95-6.65 3-3.75 3-5.8l-.3-2.2-.7-2.3.75.5q1.4.85 2.45.85l1.9-.4q1.4-.6 1.4-1.55 0-1.2-2.15-3.9-2.2-2.7-2.2-5.35 0-1.9.7-3.75l1.1-2.15.1 1q0 3.15 1.65 5.05 1.85 2 5.05 1.55l-.3 1.2q0 1.05.8 1.75.8.65 1.9.65 1.9 0 3.2-2.1 1.05-1.85 1.05-3.95 0-1.5-.85-3.85l-.75-1.85-.05-1.6q0-2.05.4-3.5.7-2.3 2.3-2.3h.25l-.4 1.3L23 4.25q0 2.1 1.6 3.95l3.4 3.25q2.4 2 3.4 3.45 1.55 2.2 1.55 4.8l-.2 1.95-.2 1.9q0 1.35.65 2.4.55.95 1.25.95 1.2 0 2.3-1.4 1-1.2 1-2.1 0-3.1-1.55-5.65-1.55-2.55-1.55-4.25l.25-1.3.6-1.5.1-.1.45 1.7q.35 1.25.95 1.25.3-.6.45-2.8l.05-2.35q0-2.65-.75-4.5-.9-2.1-3.05-3.9h.75q2.3 1.2 3.75 4.55 1.35 3 1.55 6.65.2 4.5 2.8 7.1 1.35 1.35 1.7 2.05M30.8 51.15l.45-.15q1.8-.65 2.8-2.7l1.75-3.85 5.45-8.65q2.5-4.25 2.5-8.6 0-2.9-2.25-6.95-2.35-4.15-2.5-6.4l-.4 1-.25 1-1.3-1.55q-.3.3-.3.95 0 .75 1.4 3.5 1.35 2.8 1.35 4.5 0 4.8-3.6 4.8-2.25 0-3.9-2.2-1.6-2.15-1.15-4.6.3-2.05-.85-5.15l-.5-1.3q-.75-1.35-4.1-4.4-2.85-2.55-3.35-5.1l-.25 1.1q0 1.5 1.25 4.1 1.25 2.6 1.25 4.7 0 3.15-.85 4.8-1.25 2.35-4.35 2.35-3.1 0-6.05-2.6l-4.25-4.5v.4q0 .9 1.9 4.55 1.9 3.6 1.9 5.15 0 1.25-.85 2.4-.9 1.15-2 1.15l-1.15-.35.2 1.3q0 .9-2.4 5.05Q4 39.05 4 41.55q0 2.45 1.45 4l.05.05.45.45.15.2.05-.05q1.75 1.35 5.6 2.3.85.2 5 2.05 3.55 1.55 5.45 1.55l4.25-.35 4.35-.6" fill="#c81313"/><path d="m5.95 46.05-.45-.45-.05-.05.15-.1.35.6" fill="#e76c37"/><path d="m30.8 51.15-4.35.6-4.25.35q-1.9 0-5.45-1.55-4.15-1.85-5-2.05-3.85-.95-5.6-2.3l-.2-.15-.35-.6q-.3-.55-.3-1.35 0-4.05 5.15-10.35l3.5-4.3q1.65-2.1 1.65-3.05l-.65-3.75q.8 1.5 2.45 3.05 1.9 1.7 3.65 1.7 1.4 0 2.45-.75 1.05-.8 1.5-2.2.1-.35 1.15-2.75l.85-2.65q0-.95-.8-3.4l-.85-2.45q3.35 3.55 3.75 5.4l.05 6.7q0 2.3 1.25 3.9 1.2 1.6 2.95 1.6 1.15 0 2-.7L37 28.8l-3.15 4.25Q32 35.2 32 36.85q0 .85 1.15.85 1.4 0 3.1-1.35 1.8-1.45 2.1-3.15l.1.05q-.65 4-4.3 7.9-1.7 1.75-2.3 2.85-1 1.8-1 4.1l.3 1.95-.35 1.1" fill="#ffff41"/><path d="M5.45 45.55Q4 44 4 41.55q0-2.5 2.4-6.65t2.4-5.05l-.2-1.3 1.15.35q1.1 0 2-1.15.85-1.15.85-2.4 0-1.55-1.9-5.15-1.9-3.65-1.9-4.55v-.4l4.25 4.5q2.95 2.6 6.05 2.6 3.1 0 4.35-2.35.85-1.65.85-4.8 0-2.1-1.25-4.7T21.8 6.4l.25-1.1q.5 2.55 3.35 5.1 3.35 3.05 4.1 4.4l.5 1.3q1.15 3.1.85 5.15-.45 2.45 1.15 4.6 1.65 2.2 3.9 2.2 3.6 0 3.6-4.8 0-1.7-1.35-4.5-1.4-2.75-1.4-3.5 0-.65.3-.95l1.3 1.55.25-1 .4-1q.15 2.25 2.5 6.4 2.25 4.05 2.25 6.95 0 4.35-2.5 8.6l-5.45 8.65-1.75 3.85q-1 2.05-2.8 2.7l-.45.15.35-1.1-.3-1.95q0-2.3 1-4.1.6-1.1 2.3-2.85 3.65-3.9 4.3-7.9v-.05h-.1q-.3 1.7-2.1 3.15-1.7 1.35-3.1 1.35-1.15 0-1.15-.85 0-1.65 1.85-3.8L37 28.8l-1.65 1.3q-.85.7-2 .7-1.75 0-2.95-1.6-1.25-1.6-1.25-3.9l-.05-6.7q-.4-1.85-3.75-5.4l.85 2.45q.8 2.45.8 3.4l-.85 2.65Q25.1 24.1 25 24.45q-.45 1.4-1.5 2.2-1.05.75-2.45.75-1.75 0-3.65-1.7-1.65-1.55-2.45-3.05l.65 3.75q0 .95-1.65 3.05l-3.5 4.3Q5.3 40.05 5.3 44.1q0 .8.3 1.35l-.15.1m33-29.6-.1-.1v.1h.1" fill="#ff7a06"/></g><g id="m"><path d="M17.3 2.95q2.95 2.95 2.95 7.15t-2.95 7.2q-2.95 2.95-7.15 2.95T3 17.3q-3-3-3-7.2t3-7.15Q5.95 0 10.15 0t7.15 2.95M2.6 10.4q.75.75 1.8.75 1 0 1.75-.75.75-.7.75-1.7 0-1.05-.75-1.8T4.4 6.15q-1.05 0-1.8.75t-.75 1.8q0 1 .75 1.7" fill="#fff" fill-rule="evenodd" transform="translate(.8 .8)"/><path d="M2.6 10.4q-.75-.7-.75-1.7 0-1.05.75-1.8t1.8-.75q1 0 1.75.75t.75 1.8q0 1-.75 1.7-.75.75-1.75.75-1.05 0-1.8-.75" fill-rule="evenodd" transform="translate(.8 .8)"/><path d="M18.1 3.75q2.95 2.95 2.95 7.15t-2.95 7.2q-2.95 2.95-7.15 2.95T3.8 18.1q-3-3-3-7.2t3-7.15Q6.75.8 10.95.8t7.15 2.95z" fill="none" stroke="#c7a75a" stroke-linecap="round" stroke-linejoin="round" stroke-width="1.6"/></g><g id="j"><path d="M2.2 8.35 4.5 6.9l1.4-1.3q.55 1.9 2.3 4.25l-.7-.15-1.85.45q-2.05 0-3.45-1.8" fill="#e73421" fill-rule="evenodd" transform="translate(.65 .65)"/><path d="M5.9 5.6 4.5 6.9 2.2 8.35l-.15-.25Q.95 6.5.95 4.25l.3-.05q2.1 1.55 4.5.6l.15.8" fill="#fcfc58" fill-rule="evenodd" transform="translate(.65 .65)"/><path d="M1.6 4.9v-.3Q.4 3.45.7 1.7L1.1.65m5.45 5.6-.15-.8q-2.4.95-4.5-.6l-.3-.25m0 .3q0 2.25 1.1 3.85l.15.25q1.4 1.8 3.45 1.8l1.85-.45m.7.15Q7.1 8.15 6.55 6.25" fill="none" stroke="#321604" stroke-linecap="round" stroke-linejoin="round" stroke-width="1.3"/></g><path d="M28.1-7.6Q39.75-4.45 39.75 0q0 4.45-11.65 7.55Q16.5 10.7 0 10.7q-16.45 0-28.1-3.15Q-39.7 4.45-39.7 0q0-4.45 11.6-7.6 11.65-3.1 28.1-3.1 16.5 0 28.1 3.1" fill-opacity=".498" fill-rule="evenodd" transform="translate(39.7 10.7)" id="c"/><path d="M0 14.2q0-1.5 1-2.55 1.1-1.05 2.55-1.05 1.5 0 2.55 1.05 1.05 1.05 1.05 2.55 0 1.5-1.05 2.5-1.05 1.1-2.55 1.1-1.45 0-2.55-1.1-1-1-1-2.5M17.5 0q2.2 0 3.75 1.55 1.6 1.6 1.6 3.85t-1.6 3.8q-1.55 1.6-3.75 1.6-2.25 0-3.85-1.6-1.55-1.55-1.55-3.8t1.55-3.85Q15.25 0 17.5 0m8.25 11.2q0-.75.55-1.3.5-.5 1.25-.5t1.3.5q.5.55.5 1.3t-.5 1.25q-.55.55-1.3.55t-1.25-.55q-.55-.5-.55-1.25m-9.9 16.5q0-.55.4-.95.4-.4.95-.4.6 0 1 .4t.4.95q0 .6-.4.95-.4.4-1 .4-.55 0-.95-.4-.4-.35-.4-.95" fill="#fe9eaa" fill-rule="evenodd" id="k"/><path d="M57 48H0V0h57v48" fill="#dcd550" fill-opacity="0" fill-rule="evenodd" id="b"/><use ffdec:characterId="3" height="29.05" width="29.35" xlink:href="#k" id="f"/><use ffdec:characterId="6" height="53.4" transform="translate(1.8 6.8)" width="45.15" xlink:href="#l" id="h"/><use ffdec:characterId="13" height="21.85" width="21.85" xlink:href="#m" id="i"/></defs></svg>