<svg xmlns:ffdec="https://www.free-decompiler.com/flash" xmlns:xlink="http://www.w3.org/1999/xlink" ffdec:objectType="frame" height="90" width="90" xmlns="http://www.w3.org/2000/svg"><use ffdec:characterId="24" height="74.05" transform="translate(3.5 7.8)" width="81.35" xlink:href="#a"/><defs><g id="a" transform="translate(-3.5 -7.8)"><use ffdec:characterId="1" height="9.8" transform="matrix(1.2415 0 0 2.3204 7.098 57.98)" width="55.5" xlink:href="#b"/><use ffdec:characterId="3" height="143.6" transform="translate(10.754 8.145) scale(.4109)" width="180.3" xlink:href="#c"/><use ffdec:characterId="5" height="54.45" transform="translate(50.493 27.402) scale(.4109)" width="61.6" xlink:href="#d"/><use ffdec:characterId="7" height="17.4" transform="translate(16.442 33.725) scale(.4109)" width="16.1" xlink:href="#e"/><use ffdec:characterId="9" height="39.65" transform="translate(18.12 21.057) scale(.4109)" width="34.65" xlink:href="#f"/><use ffdec:characterId="15" height="132.45" transform="translate(19.415 18.296) scale(.4109)" width="119.85" xlink:href="#g"/><use ffdec:characterId="17" height="41.85" transform="translate(34.565 58.161) scale(.4109)" width="35.65" xlink:href="#h"/><use ffdec:characterId="19" height="39.9" transform="translate(13.593 55.152) scale(.4109)" width="32.4" xlink:href="#i"/><use ffdec:characterId="21" height="20.45" transform="translate(16.09 46.108) scale(.4109)" width="23.9" xlink:href="#j"/><use ffdec:characterId="23" height="20.95" transform="translate(40.443 49.956) scale(.4109)" width="32.35" xlink:href="#k"/></g><g id="l"><path d="m-35.9-53.05.45.5h.05l-1 24.05-5.95-1.7-2.35.35 8.8-23.2m61.7-7.5q1.1 6.1 2.1 17.1 15.85 1.35 27.55 6l2.95 1.25-.55 4.1Q36.25-20.35-6.2-13.55l-2.2-2.75 2.6-1q4.2-1.8 8.95-4.1 8.5-4.25 19.6-14.05l.5-6q.7-9.1-1.35-17.85l.25-.1 3.65-1.15m36.4 31.8-.95 2.2Q73.2-15.45 79-5.75l2.75 4.6-4.7 5Q64.85-15.95 61.3-19q-3.9-3.35-3.9-4.9 0-1.95 2.9-3.8l1.9-1.05M78.15 17.8l-9.8 8.9 3.1 14.5L68 43.6l-1.5-4.65-2.3-6.25q-1.4-3.4-3.4-5.4-2.05-2.05-2.25-3.85-.2-1.85.7-1.95h2q1.35.05 3.8-.9 2.4-1 3.65-1.85 1.2-.9 4.05-2.7l1.7-1.05.45.35 3.25 2.45M66.2 51.95l-13.95 1.4-.6 2.2-.15-.05q-.9-.35-1.2-.35-2.25 0-3.9 1.1l-.1-3.2q-.1-3.4.7-4.8.75-1.45 2.95-1.75 2.1-.4 7.25.05l8.15.85.85 4.55m-122-61.8-1.75 2.8q-4.25 7.1-4.6 14.2l-.05 1.35v.1L-79.75.8l.45-.8q.4-1 .4-2.25l-.4-2.4q.25-.15.45.25t.75.35q.5-.05.6-.75.1-.65.05-1.3v-.6l21.65-3.15m-9.55 29.35.05 2.75-.55 1q-.9 1.3-2.75 2l-3.35 1.55q-2.55 1.1-4.6 1.05h-1.55l-.9-.3-.75-.55q.4-.55.3-1-.15-.65-1.1-1.2 2.05-.35 7.95-2.55l7.25-2.75m-15 16.95 15.7-6.75.75 3.9q1.4 5.45 4.25 8.45H-78.4q-.25-.15-.55-.25l-2.85-.3-2.35.15 3.8-5.2m113.75 25-.7-.45q-1.75-1.1-3.75-2.8-4.05-3.35-4.05-4.55 0-.45.45-1.2.55-.95 1.95-1 1.35-.1 9 4.25 7.6 4.3 6.25 4.1l-.45-.15-.2.05q-.8.05-1 1.1l-.1 2.8q0 1.15-.9 1.5L34.4 62l1 .45-1.8-.9-.2-.1M15.1-57.95l-.05.05-24 40.9-3.6-4.85q-3.35-4.75-6.7-10.2L-14-37.9q6.4-7.2 13.75-13.3 7-5.75 15-9.95l.35 3.2" fill="#f2ac5d" fill-rule="evenodd" transform="translate(90.15 71.8)"/><path d="m-38.9-56.5 2.1-2 .5-.5 1-.7q2.8-1.55 5.75 2.8v.05l-5.85 4.3h-.05l-.45-.5-3-3.45m52.8-12.15 2.65-.5q3.95-.6 6.65 1.1 1.35.9 2.6 7.5l-3.65 1.15-.25.1q-3.35.95-6.8 1.45v-.1l-.35-3.2-.85-7.5M58.4-36.2l3.55 1.75 2.15 1.2-.95 2.3-5.6 1 .3-2.15.55-4.1M81.75-1.15l5.9 10.3-9.5 8.65-3.25-2.45-.45-.35-1.1-.9 4.2-2.6-3.35-4.7 2.85-2.95 4.7-5M71.45 41.2l2.3 10-7.55.75-.85-4.55-.4-1.75 1.65-1.15 1.4-.9 3.45-2.4M-79.75.8q-.45.5-1.1.5-1.8-.15-3.9-1.45l-1.2-.9v-.05H-86q-.35-1.15-.35-2.8 1.7-4.15 8.3-9.3h.05l.4 3.1.15 3.4v.6q.05.65-.05 1.3-.1.7-.6.75-.55.05-.75-.35-.2-.4-.45-.25l.4 2.4q0 1.25-.4 2.25l-.45.8m0 26.2q-.65.75-2.3 1.65l-2.4 1.1-3.2-4.15 2.25-2.4 2.3.55 2.05.8.5.25q.95.55 1.1 1.2.1.45-.3 1m1.35 15.05q.6.35.75 1.1.25 1-2.05 2.7l-1.95 1.25-3.5-4.1 1-1.35 2.35-.15 2.85.3q.3.1.55.25M44.25 61.1l.2-.1v-.05q-.65-2.6 1.4-4.3l.55-.4q1.65-1.1 3.9-1.1.3 0 1.2.35l.15.05L47.1 69.3l-7.2-4.2q.9-.35.9-1.5l.1-2.8q.2-1.05 1-1.1l1.2.7q.45.7.85.7h.3" fill="#fef0ae" fill-rule="evenodd" transform="translate(90.15 71.8)"/><path d="m-35.4-52.55 5.85-4.3 2.85 5.05.35-.15q-1 6.45 5.9 17.95l1.2 1.95q3.35 5.45 6.7 10.2l3.6 4.85 24-40.9.05.05q3.45-.5 6.8-1.45 2.05 8.75 1.35 17.85l-.5 6q-11.1 9.8-19.6 14.05-4.75 2.3-8.95 4.1l-2.6 1 2.2 2.75q42.45-6.8 64.05-18.55l-.3 2.15 5.6-1-.95 2.2-1.9 1.05q-2.9 1.85-2.9 3.8 0 1.55 3.9 4.9 3.55 3.05 15.75 22.85L74.2 6.8l3.35 4.7-4.2 2.6 1.1.9-1.7 1.05q-2.85 1.8-4.05 2.7-1.25.85-3.65 1.85-2.45.95-3.8.9h-2q-.9.1-.7 1.95.2 1.8 2.25 3.85 2 2 3.4 5.4l2.3 6.25L68 43.6l-1.4.9-1.65 1.15.4 1.75-8.15-.85q-5.15-.45-7.25-.05-2.2.3-2.95 1.75-.8 1.4-.7 4.8l.1 3.2-.55.4q-2.05 1.7-1.4 4.3V61l-.2.1-1.15-.7-.55-.6q1.35.2-6.25-4.1-7.65-4.35-9-4.25-1.4.05-1.95 1-.45.75-.45 1.2 0 1.2 4.05 4.55 2 1.7 3.75 2.8l.7.45-14.55-.65q-9.2-.2-18.5.3l-32.95 2.05q-17.7 1.15-34.25-4.3-5-1.55-10.15-5.25l-4.65-6.5 1.95-1.25q2.3-1.7 2.05-2.7-.15-.75-.75-1.1h18.75q-2.85-3-4.25-8.45l-.75-3.9-15.7 6.75.25-.35-4.35-6.35 2.4-1.1q1.65-.9 2.3-1.65l.75.55.9.3h1.55q2.05.05 4.6-1.05l3.35-1.55q1.85-.7 2.75-2l.55-1-.05-2.75v-.05L-77.3 15.6l.4-.35q-6-6.1-9.1-16.3l.05-.05v.05l1.2.9q2.1 1.3 3.9 1.45.65 0 1.1-.5l17.55 7.8v-.1l.05-1.35q.35-7.1 4.6-14.2l1.75-2.8 5.75-8.85q.95-1.85 1.5-4.35l.8-3.65q.75-2.45 3.05-3.15l2.35-.35 5.95 1.7 1-24.05" fill="#c16743" fill-rule="evenodd" transform="translate(90.15 71.8)"/><path d="m-38.9-56.5 3 3.45-8.8 23.2q-2.3.7-3.05 3.15l-.8 3.65q-.55 2.5-1.5 4.35l-5.75 8.85-21.65 3.15-.15-3.4-.4-3.1q3.75-2.95 9.1-6.25 8.75-14.55 30-37.05m12.55 4.55Q-6.4-62.25 3.05-65.4q6.85-2.35 10.85-3.25l.85 7.5q-8 4.2-15 9.95Q-7.6-45.1-14-37.9l-5.25 5.85-1.2-1.95q-6.9-11.5-5.9-17.95M-77.3 15.6l11.95 3.85v.05l-7.25 2.75q-5.9 2.2-7.95 2.55l-.5-.25-2.05-.8-2.3-.55 8.1-7.6" fill="#ffe080" fill-rule="evenodd" transform="translate(90.15 71.8)"/><path d="m-38.9-56.5 3 3.45.45.5h.05l5.85-4.3m81.2 112.4 1.15.65M-79.75.8q-.45.5-1.1.5-1.8-.15-3.9-1.45l-1.2-.9v-.05H-86m6.25 28.1q-.65.75-2.3 1.65l-2.4 1.1m6.05 12.3q.6.35.75 1.1.25 1-2.05 2.7l-1.95 1.25m124.2 12.7.55.6q.45.7.85.7h.3m.2-.1v-.05q-.65-2.6 1.4-4.3l.55-.4q1.65-1.1 3.9-1.1.3 0 1.2.35l.15.05m13.7-8.15-.4-1.75 1.65-1.15 1.4-.9 3.45-2.4m3-26.2-1.1-.9 4.2-2.6-3.35-4.7 2.85-2.95 4.7-5M-78-13.2l.4 3.1.15 3.4v.6q.05.65-.05 1.3-.1.7-.6.75-.55.05-.75-.35-.2-.4-.45-.25l.4 2.4q0 1.25-.4 2.25l-.45.8m-5.65 22.4 2.3.55 2.05.8m.5.25q.95.55 1.1 1.2.1.45-.3 1M15.1-57.85v-.1l-.35-3.2-.85-7.5m1.2 10.8q3.45-.5 6.8-1.45l.25-.1 3.65-1.15m37.35 29.6-5.6 1 .3-2.15.55-4.1m19.75 54-3.25-2.45-.45-.35m-9.1 32.4.85 4.55M41.9 59.7q-.8.05-1 1.1l-.1 2.8q0 1.15-.9 1.5m2.65-5.3-.45-.15-.2.05M-84.15 41.65l2.35-.15 2.85.3q.3.1.55.25" fill="none" stroke="#92472a" stroke-linecap="round" stroke-linejoin="round" transform="translate(90.15 71.8)"/><path d="M60.6 14.95v-.05q-2.95-4.35-5.75-2.8l-1 .7-.5.5-2.1 2Q30 37.8 21.25 52.35q-5.35 3.3-9.1 6.25h-.05q-6.6 5.15-8.3 9.3 0 1.65.35 2.8v.05q3.1 10.2 9.1 16.3l-.4.35-8.1 7.6-2.25 2.4 3.2 4.15 4.35 6.35-.25.35-3.8 5.2-1 1.35 3.5 4.1 4.65 6.5q5.15 3.7 10.15 5.25 16.55 5.45 34.25 4.3l32.95-2.05q9.3-.5 18.5-.3l14.55.65M60.6 14.95 63.45 20l.35-.15Q83.75 9.55 93.2 6.4q6.85-2.35 10.85-3.25l2.65-.5q3.95-.6 6.65 1.1 1.35.9 2.6 7.5 1.1 6.1 2.1 17.1 15.85 1.35 27.55 6l2.95 1.25 3.55 1.75 2.15 1.2-.95 2.3-.95 2.2-.95 2.2q11.95 11.1 17.75 20.8l2.75 4.6 5.9 10.3-9.5 8.65-9.8 8.9 3.1 14.5 2.3 10-7.55.75-13.95 1.4-.6 2.2-4.55 13.75-7.2-4.2-5.5-3.1-.8-.45" fill="none" stroke="#92472a" stroke-linecap="round" stroke-linejoin="round" stroke-width="5"/></g><g id="m"><path d="M-3.1-5.55v-.05q-1.25-1.85-1.4-3.95-3.65-.35-5.8-2.2l-1.05-1.15q-1.7-2.7-1.15-5.8.45-2.45 2.15-4.45l1.75-2 3.55-.45q-3.3 3.1-3.95 5.9-1 3.95.7 6.2 1.65 2.2 7.1 1.35l-.25 1-.1.4q-.3 1.65.1 3v.05l.05.25Q-.9-6 0-5l.6.65 2.5 1.8q1.15.65 3.7.5 2.45-.2 5.5.95L14.1 0q2.75 1.8 3.1 4.95l-1.3-1.4Q13.95 1.7 11.35.9L7.95.35q0 3.15-.85 5.95-.9 3-3.95 2.9-1.7-.3-2.9-1.3 3.15-.35 4.3-2.65Q5.65 2.9 5.8.8q-3-.1-5.45.8-2.15.75-3.85 1.8l-.2.15.3 3.45.1.55.1.55.15 1.3h-1.5l-.4-1.9q-.4-2.25-.35-4.8Q-2.25-.35 2-1L.5-1.9Q-1.35-3.25-2.7-5l-.4-.55M-3.9 8.1l.2 1.3-.2-1.3" fill="#6b3c11" fill-rule="evenodd" transform="translate(30.8 27.25)"/><path d="m-8.6-25.15-1.75 2q-1.7 2-2.15 4.45-.55 3.1 1.15 5.8l1.05 1.15q2.15 1.85 5.8 2.2.15 2.1 1.4 3.95v.05q-1.65 1.7-3.95 2.6-4.7 1.6-9-.9-4.15-2.5-5.1-7.15-1.05-4.95 1.95-8.85l2.95-3.45 5.6-1.45 2.05-.4" fill="#d38658" fill-rule="evenodd" transform="translate(30.8 27.25)"/><path d="M-1.9 21.35-3.7 9.4h.65l-.15-1.3-.1-.55-.1-.55-.3-3.45.2-.15Q-1.8 2.35.35 1.6 2.8.7 5.8.8q-.15 2.1-1.25 4.45Q3.4 7.55.25 7.9q1.2 1 2.9 1.3 3.05.1 3.95-2.9.85-2.8.85-5.95l3.4.55q2.6.8 4.55 2.65l1.3 1.4Q16.85 1.8 14.1 0l-1.8-1.1q-3.05-1.15-5.5-.95-2.55.15-3.7-.5L.6-4.35 0-5q-.9-1-1.4-2.45l-.05-.25v-.05q-.4-1.35-.1-3Q.05-7.5 2.65-6.3q2.25 1.05 6.5 1.05 4.4 0 8.35-2 3.4-1.8 8.55-6.15 1.85 2.15 3.25 4.75-1.35 5.2-5.85 11.6Q18.9 9.3 12.3 13.9q-4.55 3.2-14.2 7.45" fill="#c4b7d1" fill-rule="evenodd" transform="translate(30.8 27.25)"/><path d="m-1.55-10.75.1-.4.25-1q-5.45.85-7.1-1.35-1.7-2.25-.7-6.2.65-2.8 3.95-5.9 6.65-.55 12.6 1.2 8.35 2.45 14.8 7.5 2.05 1.55 3.7 3.5-5.15 4.35-8.55 6.15-3.95 2-8.35 2-4.25 0-6.5-1.05-2.6-1.2-4.2-4.45" fill="#fff" fill-rule="evenodd" transform="translate(30.8 27.25)"/><path d="m-16.25-23.3-2.95 3.45q-3 3.9-1.95 8.85.95 4.65 5.1 7.15 4.3 2.5 9 .9 2.3-.9 3.95-2.6l.4.55Q-1.35-3.25.5-1.9L2-1q-4.25.65-7.3 3.7-.05 2.55.35 4.8l.4 1.9h.85l1.8 11.95L-12 25.7q-5.2-5.55-10.5-16.85-7.15-15.2-6.8-27.15 5.25-2.55 10.6-4.25l.1-.05 2.35-.7" fill="#92551a" fill-rule="evenodd" transform="translate(30.8 27.25)"/><path d="m22.2 2.1-2.05.4-5.6 1.45-2.35.7-.1.05Q6.75 6.4 1.5 8.95m17.3 44 10.1-4.35q9.65-4.25 14.2-7.45 6.6-4.6 11.15-10.95 4.5-6.4 5.85-11.6-1.4-2.6-3.25-4.75-1.65-1.95-3.7-3.5-6.45-5.05-14.8-7.5-5.95-1.75-12.6-1.2l-3.55.45" fill="none" stroke="#6b3c11" stroke-linecap="round" stroke-linejoin="round" stroke-width="3"/><path d="m27.1 36.65-.2-1.3M1.5 8.95Q1.15 20.9 8.3 36.1q5.3 11.3 10.5 16.85m10.1-4.35-1.8-11.95M1.5 8.2v.75" fill="none" stroke="#6b3c11" stroke-linecap="round" stroke-linejoin="round" stroke-width="2"/><path d="m56.85 13.85 1-.9" fill="none" stroke="#6b3c11" stroke-linecap="round" stroke-linejoin="round" stroke-width=".5"/></g><g id="n" fill-rule="evenodd"><path d="M-3.1-4.35 8.05-7v.6q0 3.85-2.05 8.15l-9.1-6.1" fill="#97fdfd" transform="translate(8.05 8.7)"/><path d="M2.75 7.05Q-.55 3.5-3.95-1l-.75-1.65 9.8 6.2-.35.55-2 2.95M-4.7-3.9l.55-.25 1.05-.2L6 1.75l-.35.75L-4.7-3.9" fill="#3abae6" transform="translate(8.05 8.7)"/><path d="M-4.7-2.65q-.25-.9 0-1.25L5.65 2.5 5.1 3.55l-9.8-6.2" fill="#f3f8fa" transform="translate(8.05 8.7)"/><path d="M-4.7-2.65-3.95-1q3.4 4.5 6.7 8.05L1.65 8.7Q-3.4 3.55-7.2-2q-1.55-2.9-.35-3.15L7.65-8.7q.3.55.4 1.7L-3.1-4.35l-1.05.2-.55.25q-.25.35 0 1.25" fill="#1d4c74" transform="translate(8.05 8.7)"/></g><g id="o" fill-rule="evenodd"><path d="M.1-5.55v-.35l-.2-1.3q0-1.3 1.85-1.6Q3.6-9.05 3.6-11q0-1.3-.6-1.7l-1.65-.5-2.7-.3-3.4-.15-3.3-.3-2.15.25q-.75.45-.8 4.15l.05 7.3q.05 3.6 1.15 6.75l4.4 11.85-.9 4.7-4.4-10.85q-2.05-4.9-4.6-9.9t-1.95-9.65q.6-4.65 2.1-6.75 1.5-2.15 3.9-2.35 2.4-.25 4.45 0l6.6 1.5q4.55 1.25 8.7 3.75 3.4 2 8.8 4.95-1.15 1.9-3.3 3.85L10.05-.85q-1.6 1.7-4 3.1L3.25 3.9 1.7 5.2l-2.75-3.6q-.9-1.2-2-1.9t-1.3.7l-.25 3h-.1l-.9-1.85-.5-2.05.2-1.05.2-.75q0-1.1-1.05-1.3L-8.3-4l-.4-.2v-.05q-.2-.5 0-.65v-.05l.9-.2.45-.05q1.1-.1 2.75.85l.2.15q1.5.8 2.55.8.7 0 1.35-.85.5-.65.6-1.3m6.8-5.95q-.85 0-1.6 1.65l-1 2.25-1.1.65q-.65.35-.5.95.05 1.4-.2 1.7L1.25-2.5 0-.35.3.4l.55.5Q12.3-6.3 12.3-7.9q0-.25-2.5-1.9-2.55-1.7-2.9-1.7" fill="#6b3c11" transform="translate(17.35 18.6)"/><path d="M-5.4 16.35-9.8 4.5q-1.1-3.15-1.15-6.75l-.05-7.3q.05-3.7.8-4.15l2.15-.25 3.3.3 3.4.15 2.7.3 1.65.5q.6.4.6 1.7 0 1.95-1.85 2.2Q-.1-8.5-.1-7.2l.2 1.3v.35l-1.85.3L-4.4-4.2l-.2-.15q-1.65-.95-2.75-.85l-.45.05-.9.2v.05q-.2.15 0 .65v.05l.4.2-.5 1.05-.05 1.9q0 2.2 1.65 6.45 1.25 3.2 3.65 6.45-.45 2.25-1.85 4.5" fill="#fff" transform="translate(17.35 18.6)"/><path d="M6.9-11.5q.35 0 2.9 1.7 2.5 1.65 2.5 1.9Q12.3-6.3.85.9L.3.4 0-.35 1.25-2.5 2.5-4.3q.25-.3.2-1.7-.15-.6.5-.95l1.1-.65 1-2.25q.75-1.65 1.6-1.65" fill="#d38658" transform="translate(17.35 18.6)"/><path d="M.1-5.55q-.1.65-.6 1.3-.65.85-1.35.85-1.05 0-2.55-.8l2.65-1.05 1.85-.3M-8.3-4l1.55.4q1.05.2 1.05 1.3l-.2.75-.2 1.05.5 2.05.9 1.85h.1l.25-3q.2-1.4 1.3-.7t2 1.9L1.7 5.2q-3.55 2.9-4.9 4.55-.5.6-.35 2.1Q-5.95 8.6-7.2 5.4q-1.65-4.25-1.65-6.45l.05-1.9.5-1.05" fill="#c4b7d1" transform="translate(17.35 18.6)"/></g><g id="p"><path d="m-4.95-37.55 4.7-2.15q.4-.1 2.85 2l4.95 4.35L8.8-32.3q-.55.9-1.6 1.65l-.95-.85L4-33.7l-2.75-2.05Q-1-37.2-2.15-37.2q-1.7 0-4.85 1.65-2.8 1.5-4.85 3.2-2.9 2.35-4.2 4.45l-2.05 4.3-.95 2.3-1.3.45-.45.15-.3.1q-.5-.15-.85-1.05l-.3-.95-.15-.65.45.1.3-.1q.3-.2.95-.75 1.85-1.85 6.15-7.5l2.45-2.4 1.1-.85q2.3-1.6 4.05-2l1.25-.1.05-.05q.55-.25.7-.65m14.2 3.6-3.35-3-2.55-2.2Q2-40.4 1.25-41.7q-1-1.75-1.6-6.5l-.45-7.05q0-.95 1.5-2.2l3.2-2.65 1.5 6.55 2.25 10.7 1.5 8.05.1.85m24.8 31.4 1.3.35 2.1.5 2.45.8-2.8-.2 7.85 3.05-4.1 5.6-.35-.35-3.1-3.65-2.8-3.4q-1.2-1.5-.9-2.25l.05-.15.2-.25.05-.05h.05m10.55-3.3.15.15q1.65 1.75 4.45 3.9l4.85 3.6.9.65-8-1.9V.5L44.6-5.85" fill="#3abae6" fill-rule="evenodd" transform="translate(59.95 66.2)"/><path d="m3.9-60.1-.6-3.05q-.2-.6-3 .9l-3.85 2.2-1.3.8q-7.85 4.85-12.7 8.5-4.9 3.6-7.2 5.6l-.7.85.05.4.25 1.55 1.35 10.45.6 4.2.15 1v.1l.35 1.95.05.2.25 1.2.15.65.3.95q.35.9.85 1.05l.3-.1.45-.15 1.3-.45 6.25-2q16.6-5.5 19.25-6.95l.75-.4q1.05-.75 1.6-1.65.4-.8.45-1.65l-.1-.85-1.5-8.05-2.25-10.7-1.5-6.55M31.65-3.8l8.25-4.8q2.65-1.9 5.25.25l14 11.5.05.05.2.35q1.35 2.2-.9 3.4L43.65 11l-.75.15q-1.25.1-2.25-.55l-.8-.7-1.25-1.3-.5-.5-.65-.75-1.6-2.05-2-2.5-1.7-2-.25-.3-.95-1.4q-.4-.8-.4-1.4 0-.7.25-.95l.15-.1.5-.35.2-.1M-21.3-50.3Q-7.1-62.45 5-66.2l4.85 23.15L12.3-31.4q-.3.95-2.6 1.85l-.1.05-.2.1-.1.05Q2.95-26.3-5.8-23.3q-6.3 2.1-13.85 4.2l-.55.15-.4.1-.95.25-.05.05q-2.1.8-2.9-4.15l-.3-1.95-.05-.3v-.25l-.2-1.1-1.1-7.45q-.95-6.1-.95-8.15l.2-2.75.25-.8.1-.15 2.6-2.4-.05.35.6-.85 1.9-1.65.2-.1v-.05M33.95-2.5l-.2.25-.05.15q-.3.75.9 2.25l2.8 3.4 3.1 3.65.35.35.05.05q.45.4 1 .65 1.4.55 3.45.05l5.6-1.75q2.35-1 4.3-1.55l1.5-.8-.2-.3q-.6-.7-1.6-1.45l-.9-.65-4.85-3.6q-2.8-2.15-4.45-3.9l-.15-.15Q43.45-7 42.3-6.8l-.9.3-3.7 1.95-3.65 2q-.3-.15-.1.05m-53.3-18.05h-.05v.1l.05-.1" fill="#1d4c74" fill-rule="evenodd" transform="translate(59.95 66.2)"/><path d="M.3-62.25q2.8-1.5 3-.9l.6 3.05-3.2 2.65q-1.5 1.25-1.5 2.2l.45 7.05q.6 4.75 1.6 6.5.75 1.3 2.1 2.55l2.55 2.2 3.35 3q-.05.85-.45 1.65l-1.25-1.05L2.6-37.7q-2.45-2.1-2.85-2l-4.7 2.15v-.25L-8-41.75q-3.1-3.65-3.1-4.3l.45-1.25.95-.75q2.55 2.05 4.05 3.9.8.9 1.4 1l.1-.55q0-1.3-1.25-3.35-1.1-1.9-2.35-3l2.85-3q1.7-2.15 1.3-4.2l3.9-5M39.9-.9l-2.45-.8-2.1-.5-1.3-.35 3.65-2 3.7-1.95.9-.3 1.6 6.15-4-.25m-65.3-43-.05-.4.7-.85q2.3-2 7.2-5.6 4.85-3.65 12.7-8.5l1.3-.8-13.35 13.3-.2.1-8.3 2.75m13.3 10-.05-3.3q.05-2.8 1.35-2.8.95 0 2.2 1.45l1.65 1.8q-1.75.4-4.05 2l-1.1.85m-13.05-8.45 6.25-2.35q1.15 0 1.6 8.7 0 3.65-2.75 6.6l-3 2.7-.15-1-.6-4.2-1.35-10.45" fill="#97fdfd" fill-rule="evenodd" transform="translate(59.95 66.2)"/><path d="m9.9-43.05-.45-2.4 4.5-1 5.9-1.05q.65 0 1.15.65.5.6.4 2.8-.15 2.15.1 3.95l.3 7.9v.6l-1.4.15q-.55-.1-.8-.45l-.2-.4q-.4-1.1-.4-4.45l-.1-5.65q-.15-1.85-.45-1.9h-1.4l-3.05.35-4.1.9M40.65 10.6l-.6 1.6-.1.25q-.35 1 .25 1.75l1.6 2.3 2.05 4.2.2.6q1.35 4.4 1.65 8.65l.25 9.75q-.05 5-1.9 9.55l-1.5 2.9-.75 1-1.7 1.65-.3.25q-6.95 5.65-16.05 8.75Q17.8 65.75 11 66.1l-2 .1-8.55-.5-11-.65-11.3-.75L-33 62.9q-4.35-.55-8.1-2.45l-7-4.6-1.8-1.45q-3.7-3.5-5.6-8.9-3.85-10.9-4.1-18.95l-.2-7.2-.1-3.35v-2.4l.3-3.95.1-1.4.2-4.5-.05-1.05-.05-1-.15-3.95.1-3.7q.9-8.25 3.85-15.45 2.9-7.2 8.75-14.3 5.8-7.15 11.7-11.4l10.6-7.65.15-.1q1.55.1 2.1 1.7l1 2.85v.05l-.2.1-1.9 1.65-.6.85.05-.35-.1-1.9q-.5-1.3-1.25-1.75l-11.8 9.05q-4.05 3.4-7.35 7.8-3.35 4.35-6.3 9.65-3 5.25-4.45 10.45-1.5 5.3-1.45 10.85l.05 1.3.2 4.1.1 1.2v.8l-.05.9-.3 5.45-.2 1.65q-.4 3.5-.45 6.95v2.7q.2 6.85 1.85 13.6 2.2 9.15 9.5 15.55l1.25 1.25Q-43 53-41 54l.1.05q.85.4 1.75.75l2.25.75 5 1.3 2.55.6 4.5.7.45.05 7.1.25 11.75-.9 10.65-.9 6.4.75q9.2 1.6 19.3-3.9 9.8-5.35 11.35-16.3l.05-1.35q.2-10-4.05-17.45-1.45-2.6-1.55-5.95-.1-1.7.45-3.85l.4-1.25.65.75.5.5 1.25 1.3.8.7m-74.7 29.55.35.25.8.8q.6.55 1.15.55l1.7-.65q1.1-.6 1.9-.55.8 0 1 .25.2.2.05.7l-1.6 1.2q-1.5.7-1.45 1.1l.75 1.4.75 1.2-.2.55-.75.45q-.55.05-1.4-1.25-.85-1.3-1.4-1.3-.6 0-1.8.95l-1.45.9q-.7 0-.7-.65 0-.8 1-2.1l.95-1.5q-.85-1.3-.75-1.85.1-.6.8-.5l.3.05" fill="#6b3c11" fill-rule="evenodd" transform="translate(59.95 66.2)"/><path d="M20.4-31.45q2.35 7 3.8 10.7l3.2 7.8 2.4 6.5q.75 1.5 1.85 2.65l-.2.1-.5.35-.15.1q-.25.25-.25.95 0 .6.4 1.4L31.9.5l.25.3 1.7 2 2 2.5 1.6 2.05-.4 1.25q-.55 2.15-.45 3.85.1 3.35 1.55 5.95 4.25 7.45 4.05 17.45l-.05 1.35Q40.6 48.15 30.8 53.5 20.7 59 11.5 57.4l-6.4-.75-10.65.9-11.75.9-7.1-.25-.45-.05-4.5-.7-2.55-.6-5-1.3-2.25-.75q-.9-.35-1.75-.75L-41 54q-2-1-3.7-2.4l-1.25-1.25q-7.3-6.4-9.5-15.55-1.65-6.75-1.85-13.6v-2.7q.05-3.45.45-6.95l.2-1.65 2.8.25q2.1 0 3.85-1.2l.3-.2 1.15 1.4q4.9 5.1 10.55 8.4l.05.05q4.55 2.95 9.85 4.15l.9.3 5.3.5q4.8.3 13.7-1.9 8.85-2.2 15.65-8.95Q14.2 5.95 12.9-3.25 11.55-12.5 6-17.5.4-22.55-5.8-23.3q8.75-3 15.1-6.05l.1-.05.2-.1.1-.05q2.3-.9 2.6-1.85L9.85-43.05h.05l4.1-.9 3.05-.35h1.4q.3.05.45 1.9l.1 5.65q0 3.35.4 4.45l.2.4q.25.35.8.45M-26.7 29.4q-2.85-.1-5.3-1.15-2.5-1.1-3.5-1.8l-1.9-1.2q-2.15-1.4-4.55-1-1 .25-1.8 1.05l-.55.55q-1.35 1.45-1.3 2.25 0 .75 3.1 1.3t2.95 2.25l-.8 5.6-.9 6.75q-.25 2.75 1.2 5.7 1.45 2.9 4.65 4.65 3.2 1.75 7.25 1.75l6.7-.65q2.7-.65 5.5-1.65l2.45-1.2q1.45-1.9 2-3.05.6-1.25 1-3.4.35-2.2-.05-4.6-.4-2.45-1.65-4.6l-1.9-2.65q-1.55-1.75-3.55-3.1-2-1.4-4.1-1.55l-4.95-.25" fill="#92551a" fill-rule="evenodd" transform="translate(59.95 66.2)"/><path d="m-19.05-21.3.95-2.3 2.05-4.3q1.3-2.1 4.2-4.45 2.05-1.7 4.85-3.2 3.15-1.65 4.85-1.65 1.15 0 3.4 1.45L4-33.7l2.25 2.2.95.85-.75.4Q3.8-28.8-12.8-23.3l-6.25 2m75.6 25.2.2.3-1.5.8q-1.95.55-4.3 1.55l-5.6 1.75q-2.05.5-3.45-.05l5.35-6.45.1-.15 9.2 2.25" fill="#4094b0" fill-rule="evenodd" transform="translate(59.95 66.2)"/><path d="M-5.8-23.3q6.2.75 11.8 5.8 5.55 5 6.9 14.25 1.3 9.2-5.45 15.95-6.8 6.75-15.65 8.95-8.9 2.2-13.7 1.9l-5.3-.5-.9-.3q-5.3-1.2-9.85-4.15l-.05-.05-.45-.5q5.35 2.25 9.1 2.95l1.25.2.8.05 7-.25q4.75-.8 11.05-5.15 6.25-4.35 8-8.9Q.5 2.35-1.1-3.4-2.75-9.15-6.6-13q-3.9-3.9-10.4-4.75l-3.7-.05.1-1.05.4-.1.55-.15q7.55-2.1 13.85-4.2" fill="#d4aa88" fill-rule="evenodd" transform="translate(59.95 66.2)"/><path d="m40.85 7.55 4.1-5.6L37.1-1.1l2.8.2 4 .25-1.6-6.15q1.15-.2 2.3.95L46.95.5v.05l.3 1.25-5.35 6.45q-.55-.25-1-.65l-.05-.05" fill="#fdfdfd" fill-rule="evenodd" transform="translate(59.95 66.2)"/><path d="M54.95 2.45q1 .75 1.6 1.45l-9.2-2.25-.1.15-.3-1.25 8 1.9" fill="#77e6f5" fill-rule="evenodd" transform="translate(59.95 66.2)"/><path d="m-49.7 8.75-.3.2q-1.75 1.2-3.85 1.2l-2.8-.25.3-5.45.05-.9v-.8l-.1-1.2-.2-4.1-.05-1.3Q-56.7-9.4-55.2-14.7q1.45-5.2 4.45-10.45 2.95-5.3 6.3-9.65 3.3-4.4 7.35-7.8l11.8-9.05q.75.45 1.25 1.75l.1 1.9-2.6 2.4-.1.15-.25.8-.2 2.75q0 2.05.95 8.15l1.1 7.45.2 1.1v.2l-.4-.15-2.7-1-3.55-1-2-.2-2-.1q-6.1.6-10.55 5.85Q-52-14.7-52.7-4.85q-.65 8.6 3 13.6m23 20.65 4.95.25q2.1.15 4.1 1.55 2 1.35 3.55 3.1l1.9 2.65q1.25 2.15 1.65 4.6.4 2.4.05 4.6-.4 2.15-1 3.4-.55 1.15-2 3.05l-2.45 1.2q-2.8 1-5.5 1.65l-6.7.65q-4.05 0-7.25-1.75t-4.65-4.65q-1.45-2.95-1.2-5.7l.9-6.75.8-5.6q.15-1.7-2.95-2.25t-3.1-1.3q-.05-.8 1.3-2.25l.55-.55q.8-.8 1.8-1.05 2.4-.4 4.55 1l1.9 1.2q1 .7 3.5 1.8 2.45 1.05 5.3 1.15m-7.35 10.75-.3-.05q-.7-.1-.8.5-.1.55.75 1.85l-.95 1.5q-1 1.3-1 2.1 0 .65.7.65l1.45-.9q1.2-.95 1.8-.95.55 0 1.4 1.3.85 1.3 1.4 1.25l.75-.45.2-.55-.75-1.2-.75-1.4q-.05-.4 1.45-1.1l1.6-1.2q.15-.5-.05-.7-.2-.25-1-.25-.8-.05-1.9.55l-1.7.65q-.55 0-1.15-.55l-.8-.8-.35-.25" fill="#d38658" fill-rule="evenodd" transform="translate(59.95 66.2)"/><path d="m.3-62.25-3.9 5q.4 2.05-1.3 4.2l-2.85 3q1.25 1.1 2.35 3Q-4.15-45-4.15-43.7l-.1.55q-.6-.1-1.4-1-1.5-1.85-4.05-3.9l-.95.75-.45 1.25q0 .65 3.1 4.3l3.05 3.95v.25q-.15.4-.7.65l-.05.05-1.25.1-1.65-1.8Q-9.85-40-10.8-40q-1.3 0-1.35 2.8l.05 3.3-2.45 2.4q-4.3 5.65-6.15 7.5-.65.55-.95.75l-.3.1-.45-.1-.25-1.2-.05-.2.3-.35 3.45-4.35q2.85-3.55 2.85-5.5 0-4.45-1-11.8l.2-.1 13.35-13.3 3.85-2.2" fill="#fff" fill-rule="evenodd" transform="translate(59.95 66.2)"/><path d="m-38.45 18.05.45.5q-5.65-3.3-10.55-8.4l-1.15-1.4q-3.65-5-3-13.6.7-9.85 6.65-16.75 4.45-5.25 10.55-5.85l2 .1 2 .2-2.25 1.2q-3.25 1.6-7.2 5.3-3.95 3.65-5.5 9.55Q-48-5.35-47.5.55q.25 2.7 1.05 5.15.95 2.8 2.65 5.3l3.45 4.75 1.9 2.3" fill="#fff9e5" fill-rule="evenodd" transform="translate(59.95 66.2)"/><path d="m-20.6-18.85-.1 1.05 3.7.05q6.5.85 10.4 4.75 3.85 3.85 5.5 9.6Q.5 2.35-1.25 6.95q-1.75 4.55-8 8.9-6.3 4.35-11.05 5.15l-7 .25-.8-.05-1.25-.2q-3.75-.7-9.1-2.95l-1.9-2.3L-43.8 11q-1.7-2.5-2.65-5.3-.8-2.45-1.05-5.15-.5-5.9 1.05-11.65 1.55-5.9 5.5-9.55 3.95-3.7 7.2-5.3l2.25-1.2 3.55 1 2.7 1 .4.15v.05l.05.3.3 1.95q.8 4.95 2.9 4.15l.05-.05.95-.25" fill="#fee5bb" fill-rule="evenodd" transform="translate(59.95 66.2)"/><path d="m-25.4-43.9 8.3-2.75q1 7.35 1 11.8 0 1.95-2.85 5.5L-22.4-25l-.3.35-.35-1.95v-.1l3-2.7q2.75-2.95 2.75-6.6-.45-8.7-1.6-8.7l-6.25 2.35-.25-1.55" fill="#60c9eb" fill-rule="evenodd" transform="translate(59.95 66.2)"/><path d="M-45.35-14.7q0-1.4.6-2.7l1.7.1.45.9.05.05-.05.05-.1.75.05.4-.8-.05-1.6.35-.3.15M-4.3-6.25l2.5-.15q.15.55.5.95l.3.35.05.75-.8-.1q-1.2 0-2.1.5-.4-1.1-.45-2.3" fill="#47afdc" fill-rule="evenodd" transform="translate(59.95 66.2)"/><path d="m-39-11.55-1.05.55q-2 .9-3.55 0-1.55-.85-1.75-3.05v-.65l.3-.15 1.6-.35.8.05q.15 1.45 1.5 1.45.7 0 1.6-.55l.1-.05q.8.45.8 1.8 0 .45-.35.95M5.65-3.8l1.25.3-1 1.7Q4.2.55 1.75.6q-2.4.15-4.2-2.05-.95-1.15-1.4-2.5.9-.5 2.1-.5l.8.1q.15 1.1.75 1.6.5.4 1.6.4l1-.15.7-.45.05.05q.45.45 1.05.45.6 0 1-.45.4-.35.45-.9" fill="#b8eb9d" fill-rule="evenodd" transform="translate(59.95 66.2)"/><path d="m-44.75-17.4.35-.75q1.2-2.1 3.1-2.95l.9-.3 1.1-.1.65.1.45.15-1.8.95-.75.65-.2-.05-.35-.05q-.7 0-1.3.6-.5.55-.5 1.4l.05.45-1.7-.1m7.7-3.05.75 1.15.05.1.25 1.15q.2 2.05-1 4.2-.8 1.45-2 2.3.35-.5.35-.95 0-1.35-.8-1.8l.55-.4.15-.2.2-.2.1-.15.3-.5q1.2-2.05 1.2-3.85l-.1-.85M-.8-9.8l-.5.45-.1.15q-.55.75-.55 1.8l.15 1-2.5.15v-.2q-.1-3.05 1.5-5.25.9-1.15 2-1.7l2.15-.55Q3.8-14.05 5.6-12q1.7 2.05 1.8 5.15.1 1.8-.45 3.25l-.05.1-1.25-.3v-.1L5.2-4.95l-.8-.4q.65-1.55.2-3.45-.6-2.55-2.2-3-1.65-.45-2.4.45L-.8-9.8" fill="#43976f" fill-rule="evenodd" transform="translate(59.95 66.2)"/><path d="m-38.2-21.25.35.2.35.25.45.35.1.85q0 1.8-1.2 3.85l-.3.5-.3-.05q-.65-.25-1.1-1.2l.2-.3.2-.95q0-.85-.55-1.4l-.6-.45-.15-.05.75-.65 1.8-.95M-.8-9.8l.8-1.55q.75-.9 2.4-.45 1.6.45 2.2 3 .45 1.9-.2 3.45h-.2q-.5-.6-1.85-.8l.1-.3.1-.95q0-1.15-.65-1.95t-1.6-.8l-1.1.35" fill="#153d49" fill-rule="evenodd" transform="translate(59.95 66.2)"/><path d="m-43.05-17.3-.05-.45q0-.85.5-1.4.6-.6 1.3-.6l.35.05.2.05.15.05.6.45q.55.55.55 1.4l-.2.95-.2.3-.15.1q-.55.6-1.3.6-.7 0-1.25-.55v-.05h-.05l-.45-.9m.7.05-.1.45.15-.45h-.05M-1.8-6.4l-.15-1q0-1.05.55-1.8l.1-.15.5-.45 1.1-.35q.95 0 1.6.8.65.8.65 1.95l-.1.95-.1.3-.55.85q-.6.65-1.5.65-.75 0-1.3-.45l-.3-.35q-.35-.4-.5-.95m6.2 1.05.8.4.45 1.05v.1q-.05.55-.45.9-.4.45-1 .45T3.15-2.9l-.05-.05-.2-.35q-.15-.25-.15-.6 0-.6.4-1.05.4-.35 1.05-.4h.2" fill="#fff" fill-rule="evenodd" transform="translate(59.95 66.2)"/><path d="M-1-5.1q.55.45 1.3.45.9 0 1.5-.65l.55-.85q1.35.2 1.85.8-.65.05-1.05.4-.4.45-.4 1.05 0 .35.15.6l.2.35-.7.45-1 .15q-1.1 0-1.6-.4-.6-.5-.75-1.6L-1-5.1" fill="#154691" fill-rule="evenodd" transform="translate(59.95 66.2)"/><path d="m-38.45-15.25-.1.15-.2.2-.15.2-.55.4-.1.05q-.9.55-1.6.55-1.35 0-1.5-1.45l-.05-.4.1-.75.05-.05q.55.55 1.25.55.75 0 1.3-.6l.15-.1q.45.95 1.1 1.2l.3.05" fill="#305c9e" fill-rule="evenodd" transform="translate(59.95 66.2)"/><path d="M23.65 46.9q-.35-1.1-1.2-2.05l-.05-.05h-.05l-.7-.7q-1.3-1.1-3.25-1.9m42.9 10.05 1.25-.15 2.35-.1 2.65.1m-8.4.7-.45.15q-1.45.5-2.85 1.3M66.9 62.6q.55-1.45.45-3.25-.1-3.1-1.8-5.15-1.8-2.05-4.25-1.95l-2.15.55q-1.1.55-2 1.7-1.6 2.2-1.5 5.25v.2q.05 1.2.45 2.3.45 1.35 1.4 2.5 1.8 2.2 4.2 2.05 2.45-.05 4.15-2.4l1-1.7" fill="none" stroke="#1c306f" stroke-linecap="round" stroke-linejoin="round" stroke-width="1.5"/><path d="m-44.75-17.4.35-.75q1.2-2.1 3.1-2.95l.9-.3 1.1-.1.65.1.45.15.35.2.35.25.45.35.75 1.15.05.1.25 1.15q.2 2.05-1 4.2-.8 1.45-2 2.3l-1.05.55q-2 .9-3.55 0-1.55-.85-1.75-3.05v-.65q0-1.4.6-2.7z" fill="none" stroke="#1c306f" stroke-linecap="round" stroke-linejoin="round" transform="translate(59.95 66.2)"/><path d="m-21.75-13.7.5.8q.1 1.05-.8 1.7-2.35 1.6-5.15 2.15 1.2 3.4 6.4 2.6 5.2-.9 5.55-5.15.9.7.75 2.05-.3 2.65-2.4 4.75 2.25 4.95.4 9.9-1.9 4.95-8.8 5.2-7.2-.5-9.05-5.25-1.4-3.75-.3-7.9l.7-2.1q-1-.3-1.15-.7-.95-1.2-.85-3.25l.15-1q.15 1.75 2.3 2.7 2.15.9 3.65-1.25-1.55-1.05-2.2-2.65l-.1-.35-.05-.05 4.3-2.65 1.75 1.1q2.3 1.2 4.4-.65m-6.35.8-2.5 2.5q1.85.45 3.35-.3l.5-.25-1.35-1.95M-31.2.5l.45-1q1.1-2.45 3.45-3.95.35-.45-.05-1.05L-29-7.55l-2.05 1.6q-1.6 1.4-1.9 4.2l-.1 2.1.55 3.7L-31.25.6l.05-.1m13.95.1q.05-2.15-.85-4.4l-3.95-.45-3.9.35-1.75 1.8-2.55 3.2-.05.05-.2.3q-1.25 1.8-.35 3.9l.15.35q.95 2 3.5 2.7 2.7.75 5.65-.9 2.05-1.2 3.2-3.1l.7-1.65q.25-.85.35-1.7l.05-.45" fill="#260a06" fill-rule="evenodd" transform="translate(59.95 66.2)"/><path d="m-33.05.35.1-2.1q.3-2.8 1.9-4.2l2.05-1.6 1.65 2.05q.4.6.05 1.05-2.35 1.5-3.45 3.95l-.45 1-.1-.05-1-.2-.75.1m2.8.75 2.55-3.2 1.75-1.8 3.9-.35 3.95.45q.9 2.25.85 4.4-1.25-1.4-3.45-2.15-2.6-.9-5.6.35-2.6 1.1-3.95 2.3" fill="#5e0a0f" fill-rule="evenodd" transform="translate(59.95 66.2)"/><path d="m-31.2.5-.05.1-1.25 3.45-.55-3.7.75-.1 1 .2.1.05m13.95.1-.05.45q-.1.85-.35 1.7l-.7 1.65-2.05-1.75q-1.4-.95-3.35-1.05l.35-.55q.8-1.3.8-1.9 0-.65-.55-.45l-1.95 2.95q-2 .25-3.65 1.55-1.35 1.05-1.95 2.5l-.15-.35q-.9-2.1.35-3.9l.2-.3.05-.05q1.35-1.2 3.95-2.3 3-1.25 5.6-.35 2.2.75 3.45 2.15" fill="#8c2b30" fill-rule="evenodd" transform="translate(59.95 66.2)"/><path d="m-25.1 1.65 1.95-2.95q.55-.2.55.45 0 .6-.8 1.9l-.35.55q-.55 1-.75 1.95-.25 1.2-.65 1.45l-.7-.15-.25-.7q0-1.05.85-2.3l.15-.2" fill="#682022" fill-rule="evenodd" transform="translate(59.95 66.2)"/><path d="M-18.35 4.4q-1.15 1.9-3.2 3.1-2.95 1.65-5.65.9-2.55-.7-3.5-2.7.6-1.45 1.95-2.5 1.65-1.3 3.65-1.55l-.15.2q-.85 1.25-.85 2.3l.25.7.7.15q.4-.25.65-1.45.2-.95.75-1.95 1.95.1 3.35 1.05l2.05 1.75" fill="#e24c6f" fill-rule="evenodd" transform="translate(59.95 66.2)"/><path d="m-28.1-12.9 1.35 1.95-.5.25q-1.5.75-3.35.3l2.5-2.5" fill="#5e1708" fill-rule="evenodd" transform="translate(59.95 66.2)"/></g><g id="q"><path d="M-12.05-4.85v-.05q-.55-3.4-.4-7.6l.05-.65.1-2.35 2.5.65q1.35.45 3.1 1.4.05-2.6 1.7-4.7l1.5-1.5 1.75-1.25.25.1 2.15 1.15 1.8 1.5q1.5 1.55 2.55 3.7.95-.95 2.15-1.6l.75-.4q1.35-.75 3.05-1.15 1.85 1.3 3.6 5.25 1.7 3.9 2.3 6.95v.15l.65 3.2.25 2.6q.2 2.3-.3 6.95l-.6 3.55-.3 1-.75 1.55-.7 1.2q-1.45 2.35-3.9 3.5l-2.2.75h-.1Q3.4 20.8-2.3 20.9q-5.65.35-11.05-3.75l-1.15-.95q-2.8-2.45-3.25-5-.25-1.25.05-2.45l.3-1.1.7-1.9.9-1.75 1.65-2.5.5-.65q-.7 4.3.35 8.1 1.15 4.15 5 5.6l1.15.4q3.05.95 6.3.95h.5q4.15-.15 8.25-2.3L9 13q1.7-1.15 3.05-2.65l.65-.9.8-1.25.2-.35.4-1.45q1-3.75.75-7.85l-.6-2.9-1.15-3.8q-1.25-3.7-3.4-7L7.95-13.5l-1.4 1.3-1.25 1.15Q2-13.95.5-15.9H.45l-1.7-2.25-.3-.35-.3.35q-1.95 2.4-2.5 4.45l-.75 2.6v.05l-.1.3-5.5-2.35.6 3.35.1 3.15-.15 2.35q-.95.85-1.5.25l-.25-.4-.05-.05-.1-.4" fill="#6b3c11" fill-rule="evenodd" transform="translate(17.85 20.9)"/><path d="m-10.1-9.75-.6-3.35 5.5 2.35v.1q-.6 2.4-1.65 2.4-1.3 0-3.25-1.5m8.85-8.4 1.7 2.25H.5q1.5 1.95 4.8 4.85l1.25-1.15Q4.85-7.75 3.1-7.75q-3.05 0-3.55-4.1l-.4-3.35-.4-2.95m9.2 4.65 1.75-1.65q2.15 3.3 3.4 7l1.15 3.8.6 2.9q.25 4.1-.75 7.85l-.4 1.45-.2.35-.8 1.25-.65.9Q10.7 11.85 9 13l-1.1.6q-4.1 2.15-8.25 2.3h-.5q-3.25 0-6.3-.95 2.5.15 4.7-.05 4.3-.4 7.4-2.1 4.7-2.55 5.6-8.5.9-6-.75-11.6l-1.85-6.2" fill="#d4aa88" fill-rule="evenodd" transform="translate(17.85 20.9)"/><path d="m6.55-12.2 1.4-1.3L9.8-7.3q1.65 5.6.75 11.6-.9 5.95-5.6 8.5-3.1 1.7-7.4 2.1l-2.85-1.8q-2.65-1.7-2.75-4.75L-8 6.3l-.2-.3q-1.5-2.35-1.5-3.85Q-9.7.6-8.55-2.6-7.4-5.85-5.9-5.85q.65 0 1.35.9l1 .9q.2 0 .45-1l.2-1.3-.2-3.5q0-1.05.85-3.15.6-1.45 1.4-2.2l.4 3.35q.5 4.1 3.55 4.1 1.75 0 3.45-4.45M-7.6 5.1q-.3.25-.4 1.2.95 1.45 2 2.15l.25.25.6.5q1.8 1.3 4.3 1.3 2.75 0 4.8-1.8 2-1.8 2-4.3 0-2.55-2-4.35Q1.9-1.7-.85-1.7q-2.9 0-4.9 1.75-1.9 1.8-1.9 4.35l.05.7" fill="#fee5bb" fill-rule="evenodd" transform="translate(17.85 20.9)"/><path d="m-7.6 5.1-.05-.7q0-2.55 1.9-4.35 2-1.75 4.9-1.75 2.75 0 4.8 1.75 2 1.8 2 4.35 0 2.5-2 4.3-2.05 1.8-4.8 1.8-2.5 0-4.3-1.3-.35-.45-.85-.75Q-7.4 7-7.6 5.1" fill="#a48a7e" fill-rule="evenodd" transform="translate(17.85 20.9)"/><path d="m-12.05-4.85.1.4.05.05.25.4q.55.6 1.5-.25L-10-6.6l-.1-3.15q1.95 1.5 3.25 1.5 1.05 0 1.65-2.4v-.1l.1-.3v-.05l.75-2.6q.55-2.05 2.5-4.45l.3-.35.3.35.4 2.95q-.8.75-1.4 2.2-.85 2.1-.85 3.15l.2 3.5-.2 1.3q-.25 1-.45 1l-1-.9q-.7-.9-1.35-.9-1.5 0-2.65 3.25Q-9.7.6-9.7 2.15q0 1.5 1.5 3.85l.2.3-.05 2.05q.1 3.05 2.75 4.75l2.85 1.8q-2.2.2-4.7.05l-1.15-.4q-3.85-1.45-5-5.6-1.05-3.8-.35-8.1l-.5.65q.7-3.35 2.1-6.35" fill="#fff9e5" fill-rule="evenodd" transform="translate(17.85 20.9)"/><path d="m10.25 26-.05-.7q0-2.55 1.9-4.35 2-1.75 4.9-1.75 2.75 0 4.8 1.75 2 1.8 2 4.35 0 2.5-2 4.3-2.05 1.8-4.8 1.8-2.5 0-4.3-1.3l-.6-.5-.25-.25q-1.4-1.45-1.6-3.35z" fill="none" stroke="#452422" stroke-linecap="round" stroke-linejoin="round" stroke-width="1.5"/></g><g id="r"><path d="m14.6 3.85.15-.15H15l.2 1.4-.1 1.4-.4 3.05-.05.2q-.65 6-4.45 8.5-3.85 2.5-12.15 1.35-8.35-1.2-11.4-6.4-3.1-5.2-2.8-10.8.3-5.65 1.6-10.25t4.05-6.4l2.95-1.9.4-.4L-6-17.6q2.3-2.1 3.7-2.1 1.35 0 1.75 1.5.4 1.5.75 1.5.3 0 1.25-.35l3-1.35 1.8-1 .75-.3 1.4-.25q1-.05 1.8 2.95l.9 3.55.05.1h3.6l.35.05q.6.1.85.75.35.8.2 1.2l-1.65 4.7-1.1 3.7q-.45 1.9-.45 3.4V2.6Q11.9 1.45 11.65.65l-.55-2q-.3-1.25.1-2.75.35-1.5 1.7-3.75l1.3-2.6q-.1-.5-.5-.6l-.9-.05-.4.05-.65.1V-11l-.05.05-.95.1h-.4q-1 0-1.45-3.25-.5-3.25-2-3.25l-.7.35-2 1.15Q2.05-14.5.65-14.1L.3-14q-1.5.3-1.6-1-.1-1.3-1.3-1.3-.8-.05-2.15 1l-1.7 1.35q-3.2 2.95-4.3 11.5l-.15 1.1q-.3 5.9 2.55 10.15 2.75 4.1 7.5 5.1l1.3.2q5.6.65 10.05-3.1 2.9-2.45 3.95-6.95l.15-.2" fill="#6b3c11" fill-rule="evenodd" transform="translate(16.2 19.95)"/><path d="m14.6 3.85-.15.2Q13.4 8.55 10.5 11 6.05 14.75.45 14.1l-1.3-.2 3.3-2.35.65-.55q5.3-4.6 5.65-9.65L9.1-5.6q.1-1.75 2.1-4.15l1.2-1.3.4-.05.9.05q.4.1.5.6l-1.3 2.6Q11.55-5.6 11.2-4.1q-.4 1.5-.1 2.75l.55 2q.25.8 1.3 1.95V.45q0-1.5.45-3.4l.25.4.65 1.95.3 4.35v.1M-4.75-15.3q1.35-1.05 2.15-1 1.2 0 1.3 1.3.1 1.3 1.6 1l.35-.1-.35 1.05Q-.4-11.6-2-11.6q-1.5 0-2.25-.7-.65-.65-.65-1.9l.15-1.1M6.2-17l.7-.35q1.5 0 2 3.25.45 3.25 1.45 3.25l.05.15.25-.15h.1l.95-.1.05-.05v.05L10.4-9.7 7.85-8.65q-1.25 0-1.95-1.4-.5-1-.5-2.05l.05-.5-.05-.5q0-1 .65-3.45L6.2-17" fill="#d4aa88" fill-rule="evenodd" transform="translate(16.2 19.95)"/><path d="M.65-14.1q1.4-.4 3.55-1.75l2-1.15-.15.45Q5.4-14.1 5.4-13.1l.05.5-.05.5q0 1.05.5 2.05.7 1.4 1.95 1.4L10.4-9.7l1.35-1.25.65-.1-1.2 1.3q-2 2.4-2.1 4.15l-.35 6.95Q8.4 6.4 3.1 11 1.55 10.7.2 9.6l-2.3-2.3h.5q2.05 0 3.55-1.85 1.5-1.9 1.5-4.5t-1.5-4.5q-1.5-1.8-3.55-1.8-2.15 0-3.6 1.8l-.25.35v-3.45q.2-3 1.2-5.65.75.7 2.25.7 1.6 0 2.3-1.45l.35-1.05" fill="#fee5bb" fill-rule="evenodd" transform="translate(16.2 19.95)"/><path d="M-.85 13.9q-4.75-1-7.5-5.1-2.85-4.25-2.55-10.15l.15-1.1q1.1-8.55 4.3-11.5l1.7-1.35-.15 1.1q0 1.25.65 1.9-1 2.65-1.2 5.65v3.45q-1.2 1.8-1.2 4.15 0 2.6 1.45 4.5Q-3.9 7.1-2.1 7.3L.2 9.6q1.35 1.1 2.9 1.4l-.65.55-3.3 2.35" fill="#fff9e5" fill-rule="evenodd" transform="translate(16.2 19.95)"/><path d="m-5.45-3.2.25-.35q1.45-1.8 3.6-1.8 2.05 0 3.55 1.8 1.5 1.9 1.5 4.5t-1.5 4.5Q.45 7.3-1.6 7.3h-.5q-1.8-.2-3.1-1.85-1.45-1.9-1.45-4.5 0-2.35 1.2-4.15" fill="#a48a7e" fill-rule="evenodd" transform="translate(16.2 19.95)"/><path d="m10.75 16.75.25-.35q1.45-1.8 3.6-1.8 2.05 0 3.55 1.8 1.5 1.9 1.5 4.5t-1.5 4.5q-1.5 1.85-3.55 1.85h-.5q-1.8-.2-3.1-1.85-1.45-1.9-1.45-4.5 0-2.35 1.2-4.15z" fill="none" stroke="#452422" stroke-linecap="round" stroke-linejoin="round" stroke-width="1.5"/></g><g id="s" fill-rule="evenodd"><path d="m.35 7.3-1.55-.5-.6-.5-1.05-1.85-.25-.85.3-2.5 1.05.4q.9.45 1.1.85.3.5.65 1.85l.4 2.3-.05.8m-5.25-.85h-.05l-.85-.8-.25-.3-.15-.15-.2-.25L-8 2.8q-.9-1.45-1.05-3l1.65-.4q.3 0 .75.55l.1.2.05.05q.5.8.6 1.55l.2 2.05.8 2.65" fill="#fff9e5" transform="translate(11.95 10.2)"/><path d="M6.45 7.25h-.1L5.1 7.1q-.85-.3-1.55-1.4V1.9l.1.1 1.25-.5L6.5 1l.1 1.05.2 1.9-.35 3.3m-5.05.1L.35 7.3l.05-.8L0 4.2q-.35-1.35-.65-1.85-.2-.4-1.1-.85l-1.05-.4.15-.75q.2-.35.95-.5l.55-.05Q.1.5.7 2.6l.7 4.75M-3.95 5l-.05.95.05.1q-.05.5-.8.45l-.15-.05-.8-2.65-.2-2.05Q-6 1-6.5.2l-.05-.05h.05q1.3.25 1.85 2.2l.6 2.25.1.4" fill="#deb894" transform="translate(11.95 10.2)"/><path d="m10.1 2.4-.35 1.95Q9.15 6.55 7.7 7l-1.25.25.35-3.3-.2-1.9L6.5 1l.55-.05q1 0 2 .55l1.05.9M3.55 5.7l-.35-.6Q2.6 4 1.95 4.55l.3 2.75-.85.05L.7 2.6Q.1.5-1.15-.2l.85-.05 1.4.3.95.4 1.15 1.1.35.35v3.8M-3.8 1.9l-.05 1v.85L-3.95 5l-.1-.4-.6-2.25Q-5.2.4-6.5.15h-.05l-.1-.2Q-7.1-.6-7.4-.6l-1.65.4-.05-1.55v-.05h.25q2.65 0 3.95 1.45.45.55 1.1 2.15v.1" fill="#d4aa88" transform="translate(11.95 10.2)"/><path d="m-9.1-1.8.15-1q.25-1.15.85-2l1.2-1.5q.65-.65 1.5-1l1.3-.45.6-.15.3-.05 3-.2 1 .05q2.1.25 3.9 1.15 1.95 1.05 3.35 2.7 1.4 1.8 1.85 4.2l.2 2.45-1.05-.9q-1-.55-2-.55L6.5 1l-1.6.5-1.25.5-.1-.1-.35-.35L2.05.45 1.1.05l-1.4-.3-.85.05-.55.05q-.75.15-.95.5l-.15.75-.3 2.5-.3-.75-.1-.25-.05-.1-.25-.7Q-4.45.2-4.9-.35-6.2-1.8-8.85-1.8h-.25" fill="#d38658" transform="translate(11.95 10.2)"/><path d="M10.1 2.4 9.9-.05q-.45-2.4-1.85-4.2-1.4-1.65-3.35-2.7Q2.9-7.85.8-8.1l-1-.05-3 .2-.3.05-.6.15-1.3.45q-.85.35-1.5 1l-1.2 1.5q-.6.85-.85 2l-.15 1v.05l.05 1.55q.15 1.55 1.05 3l1.6 2.15.2.25.15.15.25.3.85.8h.05l.15.05q.75.05.8-.45l-.05-.1.05-.95.1-1.25V2.9l.05-1 .25.6.05.1.1.25.3.75.25.85L-1.8 6.3l.6.5 1.55.5 1.05.05.85-.05-.3-2.75Q2.6 4 3.2 5.1l.35.6q.7 1.1 1.55 1.4l1.25.15h.1L7.7 7q1.45-.45 2.05-2.65l.35-1.95M-7.4-8.7l.9-.45 1-.35.95-.3 1.2-.2h.05l1.1-.15H.15l1.55.35q2.15.55 4.1 1.65l3.7 2.7.55.55q.7.75 1.2 2 .5 1.2.7 3.95.2 2.75-1.25 5.7t-3 2.85l-2.45-.5L4 8.7q-.5 0-1.3.8-.85.75-1.85.75-1.5 0-2.05-.75l-.1-.2Q-2 7.7-2.9 7.65h-.8l-1.85-.25-.25-.05q-2.95-1-4.35-2.4-.8-.8-1.2-2.15-.75-2.25-.55-3.75l.25-1.85 1.05-2.8.9-1.2 1-1.1 1.3-.8" fill="#6b3c11" transform="translate(11.95 10.2)"/></g><g id="t" fill-rule="evenodd"><path d="m3.7 6.3-.65.45q-1.1.8-2.3.95H-.3q-1.75-.25-3.1-1.15-1.4-.95-1.7-3.5L-5.2-.2l.05-1 .35-.35Q-4.4-2-3.1-2q1.65 0 2.3.6.45.4.45 1.25 0 1.4-.15 2.3 0 2.15 2.2 3.05l1.15.55.85.55m-13.6-.8h-.1q-2.85.2-3.55-1.25-.75-1.45-.7-3.8 0-2.35 1.55-3.85l.4-.45.25-.2.15.15q.4.6.45 1.6l.25 2.35q.4 3.35 1.3 5.45" fill="#fff9e5" transform="translate(16.2 10.45)"/><path d="m10.2 4.15-1.65.25-1.5.3L7.8 3q.35-1.35-1.6-3.45.75-1.4 1.75-2.05 1.4.4 2.35 1.8.65 1.05.65 2.45l-.1.9-.65 1.5m-18.5 1.2-1.6.15q-.9-2.1-1.3-5.45l-.25-2.35h.75q1.25 0 1.75.75.35.55.4 1.7V4l.25 1.35m10.15-8.1-.05.55q0 .85 1.2 2.3 1.15 1.5 1.15 2.45 0 .9-.75 2.35l-.55.85L1.7 5.2Q-.5 4.3-.5 2.15q.15-.9.15-2.3Q-.35-1-.8-1.4-1.45-2-3.1-2q-1.3 0-1.7.45l.4-.45q.8-.55 2.2-.6l3.1-.2.95.05" fill="#fee5bb" transform="translate(16.2 10.45)"/><path d="M11.7-3.35q.85.35 1.35 2.5.6 2.6-.7 3.85L10.2 4.15l.65-1.5.1-.9q0-1.4-.65-2.45-.95-1.4-2.35-1.8l.8-.4q1.4-.55 2.55-.55l.4.1m-6.6 1.9-.05.1.4 1.45.05.2q1 2.05-.25 4.25L3.7 6.3l-.85-.55.55-.85q.75-1.45.75-2.35Q4.15 1.6 3 .1 1.8-1.35 1.8-2.2l.05-.55L4-2.3l1.1.85M-6-1l-.35.5q-.6.95-.8 3.1l-.1 2.4-1.05.35L-8.55 4V.15q-.05-1.15-.4-1.7-.5-.75-1.75-.75h-.75q-.05-1-.45-1.6l.4-.05q1.7 0 3.45 1.3l1.35.95.7.7" fill="#d4aa88" transform="translate(16.2 10.45)"/><path d="M-7.55-8.55q4.05-1.9 8.45-1.9l3.2.3L7.65-8.9l2.45 1.25 1.55 1.8 1.1 1.45-.75.65-.3.4-.4-.1q-1.15 0-2.55.55l-.8.4q-1 .65-1.75 2.05L5.8-.9l-.5-.3-.2-.25L4-2.3l-2.15-.45L.9-2.8l-3.1.2q-1.4.05-2.2.6l-.4.45-.35.35.1-.55L-6-1l-.7-.7-1.35-.95q-1.75-1.3-3.45-1.3l-.4.05-.15-.15 1.45-1.5 1.35-1.05 2.9-1.55v-.3l-.25-.05-.95-.05" fill="#d38658" transform="translate(16.2 10.45)"/><path d="m12.75-4.4 1.85 2.25Q16.15-.2 16.15 1.7q0 1.6-1.85 3.45Q12.4 7 10.8 7l-1.65-.35-1.5-.4q-1 0-1.9 1.25l-1.3 1.95q-.55.5-2.25.8l-2.6.25-1.55-.2-1.85-1.05-1.2-1q-.7-.55-1.25-.55l-.9.2-.95.3-1.25.3-1.05.15-.6-.1-2.25-1.05q-2.4-1.65-2.85-4.45-.45-2.6.75-4.95 1.25-2.55 3.55-4.2l1.45-.95.5-.3 1.45-.8.75-.35.1-.05.95.05.25.05v.3l-2.9 1.55-1.35 1.05-1.45 1.5-.25.2-.4.45q-1.55 1.5-1.55 3.85-.05 2.35.7 3.8.7 1.45 3.55 1.25h.1l1.6-.15L-7.25 5l.1-2.4q.2-2.15.8-3.1L-6-1l.95-.75-.1.55-.05 1 .1 3.25q.3 2.55 1.7 3.5 1.35.9 3.1 1.15H.75q1.2-.15 2.3-.95l.65-.45 1.55-1.75Q6.5 2.35 5.5.3L5.45.1l-.4-1.45.05-.1.2.25.5.3.4.45Q8.15 1.65 7.8 3l-.75 1.7 1.5-.3 1.65-.25L12.35 3q1.3-1.25.7-3.85-.5-2.15-1.35-2.5l.3-.4.75-.65" fill="#6b3c11" transform="translate(16.2 10.45)"/></g><use ffdec:characterId="2" height="143.6" width="180.3" xlink:href="#l" id="c"/><use ffdec:characterId="4" height="54.45" width="61.6" xlink:href="#m" id="d"/><use ffdec:characterId="6" height="17.4" width="16.1" xlink:href="#n" id="e"/><use ffdec:characterId="8" height="39.65" width="34.65" xlink:href="#o" id="f"/><use ffdec:characterId="10" height="132.45" width="119.85" xlink:href="#p" id="g"/><use ffdec:characterId="16" height="41.85" width="35.65" xlink:href="#q" id="h"/><use ffdec:characterId="18" height="39.9" width="32.4" xlink:href="#r" id="i"/><use ffdec:characterId="20" height="20.45" width="23.9" xlink:href="#s" id="j"/><use ffdec:characterId="22" height="20.95" width="32.35" xlink:href="#t" id="k"/><path d="M27.75 0q0 2-8.15 3.4Q11.5 4.9 0 4.9q-11.5 0-19.65-1.5-8.1-1.4-8.1-3.4 0-2.05 8.1-3.5Q-11.5-4.9 0-4.9q11.5 0 19.6 1.4 8.15 1.45 8.15 3.5" fill-opacity=".349" fill-rule="evenodd" transform="translate(27.75 4.9)" id="b"/></defs></svg>