<svg xmlns:ffdec="https://www.free-decompiler.com/flash" xmlns:xlink="http://www.w3.org/1999/xlink" ffdec:objectType="frame" height="90" width="90" xmlns="http://www.w3.org/2000/svg"><use ffdec:characterId="37" height="70.7" transform="translate(1.05 14.4)" width="89.75" xlink:href="#a"/><defs><g id="a" transform="translate(-1.05 -14.4)"><use ffdec:characterId="1" height="35.35" transform="matrix(.4903 -.0431 0 .441 17.445 68.428)" width="107.3" xlink:href="#b"/><use ffdec:characterId="3" height="24.45" transform="translate(19.3 67.7) scale(.3703)" width="23.9" xlink:href="#c"/><use ffdec:characterId="5" height="38.35" transform="translate(13.181 54.578) scale(.3703)" width="44.75" xlink:href="#d"/><use ffdec:characterId="7" height="73.85" transform="translate(64.985 39.085) scale(.3703)" width="55.85" xlink:href="#e"/><use ffdec:characterId="9" height="54.25" transform="translate(55.885 38.385) scale(.3703)" width="49.35" xlink:href="#f"/><use ffdec:characterId="11" height="68.9" transform="translate(43.935 46.735) scale(.3703)" width="63.45" xlink:href="#g"/><use ffdec:characterId="13" height="17.9" transform="translate(61.95 64.1) scale(.3703)" width="15.2" xlink:href="#h"/><use ffdec:characterId="15" height="73.35" transform="translate(21.685 52.185) scale(.3703)" width="97.85" xlink:href="#i"/><use ffdec:characterId="17" height="24.4" transform="translate(43 70.9) scale(.3703)" width="22.7" xlink:href="#j"/><use ffdec:characterId="19" height="38.95" transform="translate(13.385 47.985) scale(.3703)" width="51.6" xlink:href="#k"/><use ffdec:characterId="21" height="46" transform="translate(33.376 55.298) scale(.3703)" width="50.85" xlink:href="#l"/><use ffdec:characterId="23" height="62.55" transform="translate(2.235 28.885) scale(.3703)" width="75.3" xlink:href="#m"/><use ffdec:characterId="25" height="59.55" transform="translate(25.385 14.435) scale(.3703)" width="54.2" xlink:href="#n"/><use ffdec:characterId="27" height="69.65" transform="translate(18.785 30.822) scale(.3703)" width="81.1" xlink:href="#o"/><use ffdec:characterId="29" height="72.05" transform="translate(42.35 25.835) scale(.3703)" width="66.95" xlink:href="#p"/><use ffdec:characterId="30" height="21.3" transform="translate(21.1 46.351) scale(.3703)" width="49.85" xlink:href="#q"/><use ffdec:characterId="32" height="37.95" transform="translate(22.985 49.335) scale(.3703)" width="93.2" xlink:href="#r"/><use ffdec:characterId="34" height="42.2" transform="translate(23.36 57.01) scale(.3703)" width="30.05" xlink:href="#s"/><use ffdec:characterId="36" height="20.35" transform="translate(13.04 58.035) scale(.3703)" width="23.35" xlink:href="#t"/></g><g id="y" fill-rule="evenodd"><path d="m14.75.75 8 14.6q-12.6 6.9-20.2 6.55Q3.3 7.65 14.75.75" fill="#9be0e2"/><path d="m22.75 15.35.95-.1.2.1Q9.45 25.5 1.1 24.3l-.8-.45q-.3-.35-.3-.8Q.35 7.05 15.35 0l-.55.75h-.05Q3.3 7.65 2.55 21.9q7.6.35 20.2-6.55" fill="#182a65"/></g><g id="z"><path d="m43.85 31.55-1.6 1.4Q32.2 41.8 24.1 45.85q-8.7-.5-14.1-3.65l-4.2-2.65q-1 .1-4.95-5.1l-.25 1H.5L.4 35H.35l-.2-.05L.1 35v-.05h.05l.4-.15.05-.05H.55l-.2.1.5-.4L34.25 12l9.6 19.55" fill="#6091ff" fill-rule="evenodd" transform="translate(.05 -11.15)"/><path d="M24.1 45.85q-6.4 4.05-12.55 2.25-6.2-1.8-8.65-6.15Q.4 37.6.85 34.45q3.95 5.2 4.95 5.1L10 42.2q5.4 3.15 14.1 3.65" fill="#9be0e2" fill-rule="evenodd" transform="translate(.05 -11.15)"/><path d="m43.9 20.4-1.6 1.4q-10.05 8.85-18.15 12.9-6.4 4.05-12.55 2.25-6.2-1.8-8.65-6.15Q.45 26.45.9 23.3L34.3.85" fill="none" stroke="#182a65" stroke-linecap="round" stroke-linejoin="round" stroke-width="1.7"/></g><g id="A"><path d="M32.7 42.8q-3.3 4.95-7.6 3.3l-.45-.1q-1.15-.55-2.4-1.45L22 42.8q-.5-4.25.45-9.3 1.3-7.2.55-11 3 .2 3.3 2.25l.35 4.8.4 4.8q.35 2.25 2.15 4.05 1.5 1.6 3.85 1l.05 1.25.1 1.3v.1q-.85-.15-.15.15l-.35.6" fill="#3f3ad0" fill-rule="evenodd" transform="translate(.85 .85)"/><path d="M13.65.25q-.9 5.55 5.05 8.5 7.35 3.6 8.55 12.5 1.15 8.9 5.55 11.7l.65.3q-.4 3.65-.4 6.15-2.35.6-3.85-1-1.8-1.8-2.15-4.05l-.4-4.8-.35-4.8Q26 22.7 23 22.5l-.65-2q-1.8-3.55-9.2-.9-3.4 1.1-6.05 3.9L0 10.65Q4.05 3.8 9.95 1.3q1.8-.8 3.7-1.05" fill="#6091ff" fill-rule="evenodd" transform="translate(.85 .85)"/><path d="m33.45 33.25-.65-.3q-4.4-2.8-5.55-11.7-1.2-8.9-8.55-12.5-5.95-2.95-5.05-8.5 5.4-1 10.45 2.25 6.6 4.2 8.75 11.25 2.15 6.95 1 16.05l-.4 3.45" fill="#61cdfa" fill-rule="evenodd" transform="translate(.85 .85)"/><path d="M24.65 46q-.8.85-1.3 2.25v.15q-.75 1.75-.75 3.65 0 1.5.65 2.6.75 1.15 2 1.15.6 0 1.4-.65.85-.7 1.6-.7l2.05.7 2.25.65q2.05 0 3.2-1.5 1.25-1.55.75-3.5l1.5.2q.9.3 1.8-.85l.2-1.4q-.95-2.3-4.5-4.7l-2.8-1.25.35-.6.15-.15 3.45.65q4.6.85 6.8 3.55l2.75 2.9-.4 1.1q-1.45 2.9-3.15 3.4-1.1-.6-2-.65-1-.2-1.25 1.9l-.35 1.3-1.15 1.35-2.7.8q-1.6.15-3.4-.5l-2.1-.3-1.95 1.55q-.6-.6-1.35.85-1.55.65-3.45.8l-3.65-.25-.85-.25-.9-.4h-.15q-.95-1.75-.95-4.3 0-4.65 1.25-7.3.9-2.05 3.5-4.65l1.05.95q1.25.9 2.4 1.45" fill="#8111ff" fill-rule="evenodd" transform="translate(.85 .85)"/><path d="m32.7 42.8 2.8 1.25q3.55 2.4 4.5 4.7l-.2 1.4q-.9 1.15-1.8.85l-1.5-.2q.5 1.95-.75 3.5-1.15 1.5-3.2 1.5l-2.25-.65-2.05-.7q-.75 0-1.6.7-.8.65-1.4.65-1.25 0-2-1.15-.65-1.1-.65-2.6 0-1.9.75-3.65v-.15q.5-1.4 1.3-2.25l.45.1q4.3 1.65 7.6-3.3" fill="#ba41ff" fill-rule="evenodd" transform="translate(.85 .85)"/><path d="m46.2 49.15-2.75-2.9q-2.2-2.7-6.8-3.55l-3.45-.65v-.1l.75-1.4h.9q6.2 0 9.35 3 1.9 1.8 2.55 4.3l-.15.4-.4.9" fill="#f6b7ff" fill-rule="evenodd" transform="translate(.85 .85)"/><path d="M17.45 59.85h.1l.9.4.85.25 3.65.25q1.9-.15 3.45-.8l-.9 1.4q-.75 1.15-.75 2.65 0 .8 1.1 1.15l1.7.4q.5.2 1.25.9.5.6 1.65.6 1.75 0 3.4-1.8 1.6-1.9 4.25-1.35 2.55.6 3.6-.5 1.1-1.05.75-2.55-.3-1.5-.8-2.25 2.3-.5 2.7-2.25l-5.3-.15.35-1.3q.25-2.1 1.25-1.9.9.05 2 .65 1.7-.5 3.15-3.4l.4-1.1.8.75.35.25Q48.75 51 51 52q2.15 1 3.15 3.45-.65 4.5-8.05 4.8 2.35 4.65.2 7.65-5.3 1.15-10.1-.85-1.75 4.55-4.4 5.05-3.55.5-6.8-6.05-2.3 3.4-5.8 2.25-1-3.8-.25-6.9-.8-.4-1.5-1.45v-.1M29.4 62.9q-.85-.5-.85-1.25l.15-1.05q.75 1.5 2.75 1.5.65 0 1-.45l1.1-.05q.3 0 .55.3.25.35 1.35.35 1.05 0 1.4-1.5v.65q0 .75-.65 1.5-.75.85-1.7.85-.5 0-.9-.5l-.65-.5-2.25.5-1.3-.35" fill="#aedcf1" fill-rule="evenodd" transform="translate(.85 .85)"/><path d="m27.75 59.1 1.95-1.55 2.1.3q1.8.65 3.4.5l2.7-.8 1.15-1.35 5.3.15q-.4 1.75-2.7 2.25.5.75.8 2.25.35 1.5-.75 2.55-1.05 1.1-3.6.5-2.65-.55-4.25 1.35-1.65 1.8-3.4 1.8-1.15 0-1.65-.6-.75-.7-1.25-.9l-1.7-.4q-1.1-.35-1.1-1.15 0-1.5.75-2.65l.9-1.4 1.1-.75.25-.1m1.65 3.8 1.3.35 2.25-.5.65.5q.4.5.9.5.95 0 1.7-.85.65-.75.65-1.5v-.65q-.35 1.5-1.4 1.5-1.1 0-1.35-.35-.25-.3-.55-.3l-1.1.05q-.35.45-1 .45-2 0-2.75-1.5l-.15 1.05q0 .75.85 1.25" fill="#fdfff7" fill-rule="evenodd" transform="translate(.85 .85)"/><path d="M34.05 42.8v.1m.25-8.8.4-3.45q1.15-9.1-1-16.05-2.15-7.05-8.75-11.25Q19.9.1 14.5 1.1q-1.9.25-3.7 1.05Q4.9 4.65.85 11.5m7.1 12.85q2.65-2.8 6.05-3.9 7.4-2.65 9.2.9l.65 2q.75 3.8-.55 11-.95 5.05-.45 9.3l.25 1.75m10.8-5.15q0-2.5.4-6.15m-.4 6.15.05 1.25.1 1.3" fill="none" stroke="#182a65" stroke-linecap="round" stroke-linejoin="round" stroke-width="1.7"/><path d="M33.55 43.65q-3.3 4.95-7.6 3.3m-.45-.1q-1.15-.55-2.4-1.45l-1.05-.95m-3.8 16.25h.15l.9.4.85.25 3.65.25q1.9-.15 3.45-.8l1.1-.75.25-.1 1.95-1.55 2.1.3q1.8.65 3.4.5l2.7-.8 1.15-1.35.35-1.3q.25-2.1 1.25-1.9.9.05 2 .65 1.7-.5 3.15-3.4l.4-1.1.4-.9.15-.4m-13.55-5.8-.15.15-.35.6m1.25-2.25-.75 1.4v.1" fill="none" stroke="#3e0e66" stroke-linecap="round" stroke-linejoin="round" stroke-width="1.3"/><path d="M22.05 44.45q-2.6 2.6-3.5 4.65-1.25 2.65-1.25 7.3 0 2.55.95 4.3l.05.1q.7 1.05 1.5 1.45M47.6 48.7q-.65-2.5-2.55-4.3-3.15-3-9.35-3h-.9l-.85.1m13.65 7.2.25 2.05m-25.8-6.3.8-.8" fill="none" stroke="#3e0e66" stroke-linecap="round" stroke-linejoin="round" stroke-width="1.7"/><path d="M48.2 51q1.4.85 3.65 1.85 2.15 1 3.15 3.45-.65 4.5-8.05 4.8 2.35 4.65.2 7.65-5.3 1.15-10.1-.85-1.75 4.55-4.4 5.05-3.55.5-6.8-6.05-2.3 3.4-5.8 2.25-1-3.8-.25-6.9" fill="none" stroke="#30409e" stroke-linecap="round" stroke-linejoin="round" stroke-width="1.7"/></g><g id="B"><path d="M16.05 16.65Q16.95 2.9 24.9 0q6.1 2.15 5.8 12.4 7.85-2.9 14.5.9-.45 11.75-6.75 12.45 8.45 1.95 9.2 10.75-5.1 3.55-9.5 2.15-1.25-.35-2.35-1.1 1.6 1.35 2.75 3.1l.35 1.05q.5 1.4-.75 4-1.15 2.3-5.5.05l.2-.9.25-.25v-.05q2.4-3.85 2.65-8.45l1.8.15q2.25.25 3.75-.65 1.45-.9-.5-3.55-2.1-2.75-4.25-4.75t.35-4.65q2.5-2.65 2.65-7.2-1 .2-5.45 0-4.3-.05-7.3 3.9h-.1q-4.35-2.7-10-2.7h-.65" fill="#ba41ff" fill-rule="evenodd" transform="translate(.85 .85)"/><path d="M16.05 16.65h.65q5.65 0 10 2.7h.1q1.75 1.1 3.3 2.65 5.65 5.45 5.65 13.1v1q-.25 4.6-2.65 8.45l-.2-.1q.95-5.3.25-12.1-.65-6.85-8.75-12.1-3.55-1.55-8.45-1.8l-8.3.35q3.85-2 8.4-2.15" fill="#f5b7ff" fill-rule="evenodd" transform="translate(.85 .85)"/><path d="m28.45 49.5-.25.25q-7.3 1.5-14.65-1.6Q-4.9 40.3 1.8 23.6L3.2 22q2.05-2 4.45-3.2l8.3-.35q4.9.25 8.45 1.8-1.85 16.5 8.5 24.2l-.05.4-.5.75L30.1 48l-1.65 1.5-.4-.4.4.4" fill="#3f3ad0" fill-rule="evenodd" transform="translate(.85 .85)"/><path d="M26.8 19.35q3-3.95 7.3-3.9 4.45.2 5.45 0-.15 4.55-2.65 7.2-2.5 2.65-.35 4.65 2.15 2 4.25 4.75 1.95 2.65.5 3.55-1.5.9-3.75.65l-1.8-.15v-1q0-7.65-5.65-13.1-1.55-1.55-3.3-2.65" fill="#f970f9" fill-rule="evenodd" transform="translate(.85 .85)"/><path d="M24.4 20.25q8.1 5.25 8.75 12.1.7 6.8-.25 12.1-10.35-7.7-8.5-24.2" fill="#6091ff" fill-rule="evenodd" transform="translate(.85 .85)"/><path d="M32.65 45.75Q37 48 38.15 45.7q1.25-2.6.75-4l-.35-1.05q3 4.55 3 11.75-8.4.75-13.1-2.9L30.1 48l2.25-2.4.3.15" fill="#8111ff" fill-rule="evenodd" transform="translate(.85 .85)"/><path d="M16.9 17.5h.65q5.65 0 10 2.7m9.05 16.75q-.25 4.6-2.65 8.45m0 .05-.25.25-.5.75-2.25 2.4-1.65 1.5-.25.25q-7.3 1.5-14.65-1.6-18.45-7.85-11.75-24.55l1.4-1.6q2.05-2 4.45-3.2 3.85-2 8.4-2.15m10.75 2.7q1.75 1.1 3.3 2.65 5.65 5.45 5.65 13.1v1" fill="none" stroke="#182a65" stroke-linecap="round" stroke-linejoin="round" stroke-width="1.7"/><path d="M39.4 41.5q-1.15-1.75-2.75-3.1 1.1.75 2.35 1.1 4.4 1.4 9.5-2.15-.75-8.8-9.2-10.75 6.3-.7 6.75-12.45-6.65-3.8-14.5-.9.3-10.25-5.8-12.4-7.95 2.9-8.85 16.65m22.5 24q3 4.55 3 11.75-8.4.75-13.1-2.9l-.4-.4" fill="none" stroke="#3e0e66" stroke-linecap="round" stroke-linejoin="round" stroke-width="1.7"/></g><g id="C"><path d="M43.05 65.05q-2.9-4.85-4.05-10-2.15-8.8-2.25-19.9-.15-11.05 3.4-14.8 3.55-3.8 7.5-4.15 3.25-.3 6.15 1.85l.1.05.4.75-.15-.4.15.25q1 1.25 2.4 4.3l1.55 3.75-.55-.45q-2.65-1.65-6.95-1.7-4.4-.1-7.8 4.2-3.3 4.3-3.25 9.75 0 5.4 3.9 14.75 1.85 4.4 4.55 9.1L45 64.15l-1.95.9" fill="#6091ff" fill-rule="evenodd" transform="translate(.85 .85)"/><path d="M58.25 26.75 56.7 23q-1.4-3.05-2.4-4.3l-.15-.25.15.4-.4-.75-.1-.05Q47.85 7.7 33.1 2.2 29.7 1 25.9 0q4.05-.1 8.2 1l4.05 1.2q12.9 4.9 19.45 17.65 1.65 3.3 2.75 6.65l.15.65q2.5 9.1-.1 18.35-2.45 8.95-8.85 14.5 5.95-10.1 6.9-19.05 1.25-7.75-.2-14.2" fill="#f5b7ff" fill-rule="evenodd" transform="translate(.85 .85)"/><path d="M53.8 18.05q-2.9-2.15-6.15-1.85-3.95.35-7.5 4.15-3.55 3.75-3.4 14.8.1 11.1 2.25 19.9 1.15 5.15 4.05 10-5.65 2.35-11.6 2.15Q-5.05 57.5.8 15.05 5.1 7.1 13.55 2.95 19.6.05 25.9 0q3.8 1 7.2 2.2 14.75 5.5 20.7 15.85" fill="#3f3ad0" fill-rule="evenodd" transform="translate(.85 .85)"/><path d="M48.15 62.4q-2.7-4.7-4.55-9.1-3.9-9.35-3.9-14.75-.05-5.45 3.25-9.75 3.4-4.3 7.8-4.2 4.3.05 6.95 1.7l.55.45q1.45 6.45.2 14.2-.95 8.95-6.9 19.05-1.55 1.35-3.4 2.4" fill="#61cdfa" fill-rule="evenodd" transform="translate(.85 .85)"/><path d="m43.9 65.9 1.95-.9L49 63.25q1.85-1.05 3.4-2.4 6.4-5.55 8.85-14.5 2.6-9.25.1-18.35l-.15-.65Q60.1 24 58.45 20.7 51.9 7.95 39 3.05l-4.05-1.2q-4.15-1.1-8.2-1Q20.45.9 14.4 3.8 5.95 7.95 1.65 15.9-4.2 58.35 32.3 68.05q5.95.2 11.6-2.15z" fill="none" stroke="#182a65" stroke-linecap="round" stroke-linejoin="round" stroke-width="1.7"/></g><g id="D" fill-rule="evenodd"><path d="m8.15.9-.6-.9 4.15 3.25q5.05 5.85 2.85 13.35l-.6.75q-.55.45-2.25.55l-4.2-.55q-2.5-.65-4.75-2l-2.7-1.9 1.55-.05.1-.05h.15L5.9 14.4q3.45.9 5.4.65l.55-.05q1.5-6.15-2.5-12L8.15.9" fill="#182a65"/><path d="m1.7 13.35.05-.1.1.1H1.7" fill="#2dc7fa"/><path d="M7.7 1.15 7.4.4l.75.5L9.35 3q4 5.85 2.5 12l-.55.05q-.1-6.85-3.6-13.9" fill="#f6b7ff"/><path d="M1.75 13.25 7.7 1.15q3.5 7.05 3.6 13.9-1.95.25-5.4-.65l-4.05-1.05-.1-.1" fill="#61cdfa"/></g><g id="E"><path d="M14.95 12.7q1.85.55 3.1 4.55 3.55 11.5 11.15 13.8 7.55 2.25 12.65 6.65Q47 42.1 47.5 52q.5 9.95-6.95 17.9l-1.65 1.65q-4.25.25-8.45-.15L32 69.75q4.9-5.65 5.4-15.35.4-9.85-4.8-16.45-5.15-6.55-12.25-7.8-7.2-1.05-12.15 4.3-5.15 5.3-4.4 15.15.4 5.75 2.15 10.35Q1.55 54.75.4 47.4-2 32.25 9.5 18.25q2.55-3.05 5.45-5.55" fill="#9be0e2" fill-rule="evenodd" transform="translate(.85 .85)"/><path d="M5.95 59.95Q4.2 55.35 3.8 49.6q-.75-9.85 4.4-15.15 4.95-5.35 12.15-4.3 7.1 1.25 12.25 7.8 5.2 6.6 4.8 16.45-.5 9.7-5.4 15.35l-1.55 1.65q-5.9-.75-11.7-2.9-8.15-3.05-12.8-8.55" fill="#fdfff7" fill-rule="evenodd" transform="translate(.85 .85)"/><path d="m38.9 71.55 1.65-1.65Q48 61.95 47.5 52q-.5-9.9-5.65-14.3-5.1-4.4-12.65-6.65-7.6-2.3-11.15-13.8-1.25-4-3.1-4.55 9.85-8.6 24-11.25Q36 28.4 59.4 26q34.7 3 26.45 32.3-4.55 3.5-9.6 4.15-8.4.85-24.85 6.55-6.3 2.05-12.5 2.55m44.45-24.9q-1.1-1.1-2.55-1.1-1.5 0-2.6 1.1-1.05 1.15-1.05 2.7 0 1.6 1.05 2.65 1.1 1.2 2.6 1.2 1.45 0 2.55-1.2 1.05-1.05 1.05-2.65 0-1.55-1.05-2.7" fill="#6091ff" fill-rule="evenodd" transform="translate(.85 .85)"/><path d="M85.85 58.3Q94.1 29 59.4 26 36 28.4 38.95 1.45l1.2-.25Q51.05-.65 60.9.35q7.45.75 14.35 3.05 15.65 5.3 19.5 22.8 3.9 17.35-3.2 26.3-2.75 3.5-5.7 5.8m-2.5-11.65q1.05 1.15 1.05 2.7 0 1.6-1.05 2.65-1.1 1.2-2.55 1.2-1.5 0-2.6-1.2-1.05-1.05-1.05-2.65 0-1.55 1.05-2.7 1.1-1.1 2.6-1.1 1.45 0 2.55 1.1" fill="#3f3ad0" fill-rule="evenodd" transform="translate(.85 .85)"/><path d="M15.8 13.55q-2.9 2.5-5.45 5.55-11.5 14-9.1 29.15Q2.4 55.6 6.8 60.8q4.65 5.5 12.8 8.55 5.8 2.15 11.7 2.9 4.2.4 8.45.15 6.2-.5 12.5-2.55 16.45-5.7 24.85-6.55 5.05-.65 9.6-4.15 2.95-2.3 5.7-5.8 7.1-8.95 3.2-26.3-3.85-17.5-19.5-22.8-6.9-2.3-14.35-3.05Q51.9.2 41 2.05l-1.2.25q-14.15 2.65-24 11.25z" fill="none" stroke="#182a65" stroke-linecap="round" stroke-linejoin="round" stroke-width="1.7"/></g><g id="F" fill-rule="evenodd"><path d="M18.2 21.35q3.15-4.7 1.9-19.3L19.85 0h.1l.65 2.05q4.55 15.4-.85 21.9l-.5.4-.65.05h-.75Q6.7 23.45 1.4 13.65l-.6-1.9-.4-1.9L0 8.1l.2.85.45.65.75 1q7.45 10 16.6 11l.2-.25" fill="#182a65"/><path d="M18.2 21.35q.4-5.2-3-9.7-3.55-4.6-7.05-4.55-3.45.1-4.8 1-.95.65-1.95 2.5l-.75-1q7.1-7.2 19.45-7.55 1.25 14.6-1.9 19.3" fill="#6091ff"/><path d="M1.4 10.6q1-1.85 1.95-2.5 1.35-.9 4.8-1 3.5-.05 7.05 4.55 3.4 4.5 3 9.7l-.2.25q-9.15-1-16.6-11" fill="#9be0e2"/></g><g id="G"><path d="M13.95 14.75q-.5.3-3.7 1Q7 16.4 7 17.65t1.35 1.8l1.5.6q-.85.8-.85 1.7 0 .75 2 2.75H9.5l-1.75-1.15q-.9-.85.1-2-1.75 0-2.8-1.4-.95-1.05-.45-1.5-1.9 1-1.9 2.9 0 2.75 1.85 3.65 1.25.65 6.1.65 4.5 0 12.75-3.15l-.25 2.15q-.15 1.85.5 4.25-3.8 2.75-10.4 4.7Q4.8 36.2.95 28.55q-1.7-4.8-.3-8.45 1.4-4.2 4.55-5.55 2.5-1.05 4.65-1.3l.55.25q.25.35 3.4 1.15l.15.1M23.9 29.7q.6 1.7 1.85 2.5 1.4.9 7.2.6-1.1 2.3-3.75 4.45-9.6 0-5.3-7.55m6.05-21.15-2.25.25q-3.45.05-7.6-1.6-4.2-1.75-7.2-1.8-3.05-.2-5.7 1.15-.7.3-1.1.75.1-.9.5-2l.9-1.9q4.05-6.15 12.75-1.1 5.15 3 9.7 6.25" fill="#aedcf1" fill-rule="evenodd" transform="translate(.85 .85)"/><path d="M23.65 28.9q-.65-2.4-.5-4.25l.25-2.15q-8.25 3.15-12.75 3.15-4.85 0-6.1-.65-1.85-.9-1.85-3.65 0-1.9 1.9-2.9-.5.45.45 1.5 1.05 1.4 2.8 1.4-1 1.15-.1 2L9.5 24.5H11q-2-2-2-2.75 0-.9.85-1.7l-1.5-.6Q7 18.9 7 17.65t3.25-1.9q3.2-.7 3.7-1l.85.15-1-.25q-3.15-.8-3.4-1.15l-.55-.25 1.8-.15-.35-.1q-5.7-1.55-5.2-5.7.4-.45 1.1-.75Q9.85 5.2 12.9 5.4q3 .05 7.2 1.8 4.15 1.65 7.6 1.6l2.25-.25 5.8 4.35q7.95 4.15 14.15 3.5-7.55 2.95-14.05 9-3 3.25-2.9 7.4-5.8.3-7.2-.6-1.25-.8-1.85-2.5.6-1.15 1.5-2.4l-1.75 1.6" fill="#fdfff7" fill-rule="evenodd" transform="translate(.85 .85)"/><path d="m24.5 29.75 1.75-1.6q-.9 1.25-1.5 2.4-4.3 7.55 5.3 7.55m20.7-20.85q-6.2.65-14.15-3.5L30.8 9.4q-4.55-3.25-9.7-6.25-8.7-5.05-12.75 1.1l-.9 1.9q-.4 1.1-.5 2-.5 4.15 5.2 5.7m.35.1-1.8.15q-2.15.25-4.65 1.3-3.15 1.35-4.55 5.55-1.4 3.65.3 8.45 3.85 7.65 12.3 5.05 6.6-1.95 10.4-4.7" fill="none" stroke="#30409e" stroke-linecap="round" stroke-linejoin="round" stroke-width="1.7"/><path d="m12.15 13.85.35.1" fill="none" stroke="red" stroke-linecap="round" stroke-linejoin="round" stroke-width=".05"/></g><g id="H"><path d="m51.4 34.5.1.25-1.25.95q-2.9-3.65-3.05-4.8l4.2 3.6" fill="#215ed2" fill-rule="evenodd" transform="translate(-1.15 -3.1)"/><path d="m48.75 26.05.35.2.25.9-4.05-.85-.1-.25V26l3.55.05" fill="#182b68" fill-rule="evenodd" transform="translate(-1.15 -3.1)"/><path d="M50.25 35.7 48 37.25l-3.3 2.3-6.7.2 1.25-5.9v-.1l3.65-.3 3.8-2.8-.1-.25.6.5q.15 1.15 3.05 4.8M45.2 26h-.15l-.15-.1-5.8-2.3-1.7-2.75.25-.05 11.1 5.25L45.2 26" fill="#1b41a2" fill-rule="evenodd" transform="translate(-1.15 -3.1)"/><path d="m46.6 30.4.1.25-3.8 2.8-3.65.3v.1L38 39.75h-.65l-.15-.1 1.45-6.35-4.35-2.15q-2.05 1.3-4.15 2.55l-1.6 1-.65-.45 1.15-.65 5-2.95.05-5.15-6.2-1.15v-.45l6.55 1.2 3.9-1.5-1.65-2.5.7-.25 1.7 2.75 5.8 2.3.15.1.15.05.1.25 1.3 4.1m-1.55-3.75-2.9-1.05-4.4 6.45.85.65 3.85.35 3.75-2.35-1.15-4.05M39.6 24.5l.25.15-.1-.15q-.85-.85-4.75.75l-.3 3.3 4.9-4.05m-4.65 6.15 2.05 1.2 4.5-6.5-1.45-.6-5.1 5.9" fill="#c9fff8" fill-rule="evenodd" transform="translate(-1.15 -3.1)"/><path d="m49.35 27.15 2.05 7.35-4.2-3.6-.6-.5-1.3-4.1 4.05.85" fill="#514398" fill-rule="evenodd" transform="translate(-1.15 -3.1)"/><path d="m45.05 26.65 1.15 4.05-3.75 2.35-3.85-.35-.85-.65 4.4-6.45 2.9 1.05M36.7 21.1l1.65 2.5-3.9 1.5-6.55-1.2v-.15l6.4-1.9 2.4-.75m-6.55 12.6q2.1-1.25 4.15-2.55l4.35 2.15-1.45 6.35-5.05-2.9-1.85-3-.15-.05m9.6-9.2h-.15l-4.9 4.05.3-3.3q3.9-1.6 4.75-.75m-4.8 6.15 5.1-5.9 1.45.6-4.5 6.5-2.05-1.2" fill="#2dc7fa" fill-rule="evenodd" transform="translate(-1.15 -3.1)"/><path d="M48 37.25V38l-.3 2.9q-.65 2.75-2.4 4.65-2.65 2.8-6.15 2.8h-.65V46.2q-.15-2.5-1.3-4.25l-.95-1.05-.4-.4q-2.5-1.9-3.05-2.85l-.65-.9 5.05 2.9-.25.6 1.05-.5 6.7-.2 3.3-2.3M27.9 23.9l-1.3-.25 1.3.7V27q-2.4.9-3.95 2.05l-1.1.9L1.9 13.55q7.45-12.1 19.25-9.7l13.15 18-6.4 1.9v.15" fill="#6091ff" fill-rule="evenodd" transform="translate(-1.15 -3.1)"/><path d="m27.9 24.35 6.2 1.15-.05 5.15-5 2.95H27.9v-9.25" fill="#65fff4" fill-rule="evenodd" transform="translate(-1.15 -3.1)"/><path d="M27.9 27v4.55q-2.4.4-4.45 1.3-.2-.15-.25-.5l-.5-1q-.35-.65.15-1.4l1.1-.9Q25.5 27.9 27.9 27" fill="#f3ee5f" fill-rule="evenodd" transform="translate(-1.15 -3.1)"/><path d="M38.5 48.35q-3.25-.15-6.55-1.65l-1.05-.65q.15-.25.5-.2l.65.25-2.15-2.65q-2.35-3.2-2.5-4.4l-.5-1.8v.15l-.25.95q-.25.8 0 3.3.35 2.45 2.25 3.45l-.15.1q-2.35-1.5-3.35-3.25-1.3-2.45-1.7-4.45-.45-2.05-.5-4.55l.25-.1.55.35 3.65.4h.25v.65l-.9.6 1.55-.15 3.6 2.05.65.9q.55.95 3.05 2.85l.4.4.95 1.05q1.15 1.75 1.3 4.25v2.15" fill="#9be0e2" fill-rule="evenodd" transform="translate(-1.15 -3.1)"/><path d="M27.9 31.55v2.05h-.25L24 33.2l-.55-.35q2.05-.9 4.45-1.3" fill="#dcad72" fill-rule="evenodd" transform="translate(-1.15 -3.1)"/><path d="m30.9 46.05-.1.05-1.9-1q-1.9-1-2.25-3.45-.25-2.5 0-3.3l.25-.95v-.15l.5 1.8q.15 1.2 2.5 4.4l2.15 2.65-.65-.25q-.35-.05-.5.2m-.95-.1.1.05h.05l.2.1.35.2q-.25.2-.2.45.1.25-1.15-.7-1.05-.85.65-.1" fill="#182a65" fill-rule="evenodd" transform="translate(-1.15 -3.1)"/><path d="m51.4 34.5.1.25-1.25.95L48 37.25l-3.3 2.3-6.7.2h-.65l-.15-.1-5.05-2.9-3.6-2.05-.65-.45v-10.5l6.4-1.9 2.4-.75.7-.25.25-.05 11.1 5.25.35.2.25.9 2.05 7.35" fill="none" stroke="#182a65" stroke-linecap="round" stroke-linejoin="round" transform="translate(-1.15 -3.1)"/><path d="M46.85 34.15v.75l-.3 2.9q-.65 2.75-2.4 4.65-2.65 2.8-6.15 2.8h-.65q-3.25-.15-6.55-1.65l-1.05-.65m-2.15-.85 1.2.75.1.05h.05l.2.1.35.2m3.65-24.45L20 .75M.75 10.45l20.95 16.4m5.9 15.25q-2.35-1.5-3.35-3.25-1.3-2.45-1.7-4.45-.45-2.05-.5-4.55" fill="none" stroke="#182a65" stroke-linecap="round" stroke-linejoin="round" stroke-width="1.5"/><path d="m21.7 26.85 1.1-.9q1.55-1.15 3.95-2.05m-4.45 5.85.55.35 3.65.4h.25m-4.45-.75q-.2-.15-.25-.5l-.5-1q-.35-.65.15-1.4" fill="none" stroke="#89581f" stroke-linecap="round" stroke-linejoin="round" stroke-width="1.3"/></g><g id="I"><path d="M25.05 28.05q.15-.2.4-.25l-.05.3h.15q.05.75 3 1.05-3.35 0-5.3 1.1-1.95 1.05-3.6 3.05-1.65 1.95-1.55 4.5v.35l.05.65q.35 1.9 1.5 3.3l.5.6q1.65 1.65 4.9 1.5 2.95-.25 4.4-4.05l.4-.7-.55 2.35q-.95 3.75-4.4 3.95-3.5.2-5.45-1.6-2-1.8-2.4-3.15-.45-1.35-.6-2.7-.35-2.5 1.1-5.1.6-1.35 2.7-3 2.1-1.7 4.8-2.15" fill="#182a65" fill-rule="evenodd" transform="translate(.85 .85)"/><path d="M60.15 4.7q3-.4 7.55 5.05 5.2 6.35 5.8 12.4.55 6.15-2.9 11.45l-2 2.4q-2.8 2.8-6.4 2.8-4.8 0-8.1-4.45v-.1q2.65-6.15 4.25-11.85l1.2-6.05q1-6.05.6-11.65" fill="#c13cff" fill-rule="evenodd" transform="translate(.85 .85)"/><path d="M54 34.25q-3.45-4.7-3.45-11.85 0-4.7 1.3-8.35.6-1.6 1.45-3 1.7-2.95 3.8-4.7 1-.85 2.05-1.4l1-.25q.4 5.6-.6 11.65l-1.2 6.05q-1.6 5.7-4.25 11.85H54" fill="#f970f9" fill-rule="evenodd" transform="translate(.85 .85)"/><path d="m51.85 14.05-4.6-.65q4.2-4 6.6-9.2l3.25 2.15q-2.1 1.75-3.8 4.7-.85 1.4-1.45 3" fill="#aedcf1" fill-rule="evenodd" transform="translate(.85 .85)"/><path d="M47.25 13.4 46 13.3l-.65-.1.05-.3.35-3.05q0-.85-.4-2L44.9 6.7q0-.45.35-.7.35-.4-.5-1.7-.9-1.45-1.15-3.1l-.1-.75q5.45.85 10.35 3.75-2.4 5.2-6.6 9.2" fill="#fdfff7" fill-rule="evenodd" transform="translate(.85 .85)"/><path d="M17.5 12.9q-3.45 5.1-5.35 9.5-.75 1.65-1.2 3.25Q9.4 30.5 9.9 35.75q0 .75.15 1.5.85 6-.65 6.2-1.5.15-2.65-2.25Q5.5 38.7 6.1 33q.5-5.8 2.4-10.6t9-9.5m-2.15 40.65q-.75-.5-.75-1.65 0-1.2.85-2 .8-.85 2-.65 1.15.15 1.95 1.15.85 1 .85 1.8 0 .85-.85 1.5-.9.65-2.15.5-1.25-.15-1.9-.65" fill="#ccffeb" fill-rule="evenodd" transform="translate(.85 .85)"/><path d="M45.35 13.2h-1.7Q30.9 11.25 23.7 19.1q-1.45 1.55-2.55 3.3-3.4 5.15-3.6 10.8-1.45 2.6-1.1 5.1.15 1.35.6 2.7.4 1.35 2.4 3.15 1.95 1.8 5.45 1.6 3.45-.2 4.4-3.95 1.2 9.1-2.95 15.55l-2.55 3.3q-6.85 1-12.65-3.3l-2.75-2.3Q-.45 46.25.05 35.4q.25-6.95 2.65-13 1.3-3.55 3.45-6.8Q11.9 6.75 21.5 3.05 31-.7 40.75.15l2.75.3.1.75q.25 1.65 1.15 3.1.85 1.3.5 1.7-.35.25-.35.7l.45 1.15q.4 1.15.4 2l-.35 3.05-.05.3m-27.85-.3q-7.1 4.7-9 9.5Q6.6 27.2 6.1 33q-.6 5.7.65 8.2 1.15 2.4 2.65 2.25 1.5-.2.65-6.2-.15-.75-.15-1.5-.5-5.25 1.05-10.1.45-1.6 1.2-3.25 1.9-4.4 5.35-9.5m11.95 27.25q-1.45 3.8-4.4 4.05-3.25.15-4.9-1.5l-.5-.6q6.15 2.4 9.7-2.65l.1.7m-14.1 13.4q.65.5 1.9.65 1.25.15 2.15-.5.85-.65.85-1.5 0-.8-.85-1.8-.8-1-1.95-1.15-1.2-.2-2 .65-.85.8-.85 2 0 1.15.75 1.65" fill="url(#u)" fill-rule="evenodd" transform="translate(.85 .85)"/><path d="M43.65 13.2q-10.75.35-16.05 9.2-1.5 2.5-2.55 5.65-2.7.45-4.8 2.15-2.1 1.65-2.7 3 .2-5.65 3.6-10.8 1.1-1.75 2.55-3.3 7.2-7.85 19.95-5.9m-18.1 14.9q2.95 0 4.95.85 2 .75 4.05 2.4 2.1 1.55 3.1 3.95.95 2.45 1.4 5 .5 2.5.4 5.3-.15 2.8-1.5 5.1l-2.65 3.85L32.6 57l-4.15 2.4q-2.75 1.35-4.65 1.25l2.55-3.3Q30.5 50.9 29.3 41.8l.55-2.35-.4.7-.1-.7q-3.55 5.05-9.7 2.65-1.15-1.4-1.5-3.3l-.05-1q-.1-2.55 1.55-4.5 1.65-2 3.6-3.05 1.95-1.1 5.3-1.1-2.95-.3-3-1.05" fill="url(#v)" fill-rule="evenodd" transform="translate(.85 .85)"/><path d="m52.7 14.9-4.6-.65-1.25-.1-.65-.1h-1.7q-10.75.35-16.05 9.2-1.5 2.5-2.55 5.65m.4-.25-.05.3h.15q2.95 0 4.95.85 2 .75 4.05 2.4 2.1 1.55 3.1 3.95.95 2.45 1.4 5 .5 2.5.4 5.3-.15 2.8-1.5 5.1l-2.65 3.85-2.7 2.45-4.15 2.4q-2.75 1.35-4.65 1.25-6.85 1-12.65-3.3l-2.75-2.3Q.4 47.1.9 36.25q.25-6.95 2.65-13 1.3-3.55 3.45-6.8Q12.75 7.6 22.35 3.9 31.85.15 41.6 1l2.75.3q5.45.85 10.35 3.75l3.25 2.15" fill="none" stroke="#182a65" stroke-linecap="round" stroke-linejoin="round" stroke-width="1.7"/><path d="M61 5.55q3-.4 7.55 5.05 5.2 6.35 5.8 12.4.55 6.15-2.9 11.45l-2 2.4q-2.8 2.8-6.4 2.8-4.8 0-8.1-4.45l-.1-.1q-3.45-4.7-3.45-11.85 0-4.7 1.3-8.35.6-1.6 1.45-3 1.7-2.95 3.8-4.7 1-.85 2.05-1.4l1-.25z" fill="none" stroke="#3e0e66" stroke-linecap="round" stroke-linejoin="round" stroke-width="1.7"/></g><g id="J"><path d="M34.35 44.45q1.15.05 1 .3-.4.45-2.8-.3l-.7-.2q-1.9-.65-2.55-1.4l-1.15-1.25 7.6.95q3.4.05 2.5.4l-1.75.65-4.15.6 2 .25m-24.1-3.5L8.6 40.8q-.4-.5-.3-1l.95.35-.95-.35v-.1l.95.45.35.05-.25-.25q-.9-.8-.55-1.15h.05q.4-.4 1.9-.25h1.75l3.75-.55-.5.3-1.2.85q-2.2 1.5-3.7 1.75l-.6.05m27.65-13.4q.95-.6.95.85L38 29.8l-.65.55q-1.5 1-4.4 1.25H29q-2.4-.75-2.9-2.3 1.3 1.8 5.45 1.25 4.15-.6 5.35-2.15l.35-.5v.05l.65-.4m-21.75-.65q-3.4.3-5.4-.75-2.05-1.1-1.9-3.25l-.05.25q.05-3.05.9-3.15.8-.5.55 1.6.25 2.7 1.85 3.45L16 26.7l.15.2M23 32.25q-.3.6-.25 1.5.1.9.6 1.15l1.25.7-.1.15-2.5-.15q-.8-.75-.95-1.75l-3.65 1q-3.55.5-.5-1.15l4.3-1.1.4-.85q1.9-1.55 2.1-.15-.45.15-.7.65" fill="#182a65" fill-rule="evenodd" transform="translate(.85 .85)"/><path d="M3.9.25q1-.45 2.95 0 2.6.4 5.4 4.3Q14 6.85 15.15 10 12.9 11 11 12.15q-2.55-1.1-4.4-2.25l1.95-.4q1.8-.6 1.9-2.3.05-1.75-3.15-4.55-1.85-1.5-3.4-2.4M25.85 4.7l4.05-3.4q4.2 6.15 8.25 11.2l1.4 1.7-.3-2.3q6.6-2.55 12.4-6.3.35-.25.65-.4l.2.9q0 1.9-5.55 5.45-3.9 2.4-5.05 5.75 3.9 5.05 4.65 12.9.65 7.8-3.4 11.1-4.15 3.3-8.8 3.15l-2-.25 4.15-.6 1.75-.65q.9-.35-2.5-.4l-7.6-.95 1.15 1.25q.65.75 2.55 1.4-2.8 5.75-1.2 13.6l-27.5-1.5q8.85-10.15 7.1-15.4l.6-.05q1.5-.25 3.7-1.75h.1l1.25.3 3.55.5q7.8.6 13-2.65 5.2-3.2 5.45-7.1l.1-.4.85-1.4q0-1.45-.95-.85-.25-2.65-1.2-5.15-1.6-3.95-7.25-12.5l-3.6-5.2M41.9 17.3l-1.5-2.1-.5-.55-.35-.45.35.45.5.55 1.5 2.1" fill="#6091ff" fill-rule="evenodd" transform="translate(.85 .85)"/><path d="M6.6 9.9 3.95 7.95q-2.3-2.15-1.8-4.4Q2.5 1.3 3.4.5q.15-.2.5-.25 1.55.9 3.4 2.4 3.2 2.8 3.15 4.55-.1 1.7-1.9 2.3l-1.95.4m8.55.1 2.65-1.15q4.65-1.9 8.05-4.15l3.6 5.2q5.65 8.55 7.25 12.5.95 2.5 1.2 5.15l-.65.4v-.05l-.35.5q-1.2 1.55-5.35 2.15-4.15.55-5.45-1.25.5 1.55 2.9 2.3h3.95q2.9-.25 4.4-1.25l.65-.55-.1.4q-.25 3.9-5.45 7.1-5.2 3.25-13 2.65l-3.55-.5-1.25-.3h-.1l1.2-.85.5-.3-3.75.55h-1.75q-1.5-.15-1.9.25H8.8q-.35.35.55 1.15l-.1.2-.95-.45v.1l-.75-.25Q2.3 38.25.5 30.1q-1.9-8.2 3.7-13.05 3.1-2.75 6.8-4.9Q12.9 11 15.15 10m24.1 1.9v-.5q0-3.9 2.3-6.45 2.25-2.5 5.65-2.5 2.05 0 3.65 1Q52 4.2 52.3 5.2q-.3.15-.65.4-5.8 3.75-12.4 6.3m-23.1 15-.15-.2-3.9-1.65q-1.6-.75-1.85-3.45.25-2.1-.55-1.6-.85.1-.9 3.15l.05-.25q-.15 2.15 1.9 3.25 2 1.05 5.4.75M23 32.25q.25-.5.7-.65-.2-1.4-2.1.15l-.4.85-4.3 1.1q-3.05 1.65.5 1.15l3.65-1q.15 1 .95 1.75l2.5.15.1-.15-1.25-.7q-.5-.25-.6-1.15-.05-.9.25-1.5" fill="#9be0e2" fill-rule="evenodd" transform="translate(.85 .85)"/><path d="M7.45 10.75 4.8 8.8Q2.5 6.65 3 4.4q.35-2.25 1.25-3.05.15-.2.5-.25 1-.45 2.95 0 2.6.4 5.4 4.3 1.75 2.3 2.9 5.45l2.65-1.15q4.65-1.9 8.05-4.15l4.05-3.4q4.2 6.15 8.25 11.2l1.4 1.7-.3-2.3v-.5q0-3.9 2.3-6.45 2.25-2.5 5.65-2.5 2.05 0 3.65 1 1.15.75 1.45 1.75l.2.9q0 1.9-5.55 5.45-3.9 2.4-5.05 5.75 3.9 5.05 4.65 12.9.65 7.8-3.4 11.1-4.15 3.3-8.8 3.15l-2-.25m-.5.05q-2.8 5.75-1.2 13.6M4 57.2q8.85-10.15 7.1-15.4m-1.95-1.15-.75-.25q-5.25-1.3-7.05-9.45-1.9-8.2 3.7-13.05 3.1-2.75 6.8-4.9-2.55-1.1-4.4-2.25m32.95 4.3.35.45.5.55 1.5 2.1M11.85 13q1.9-1.15 4.15-2.15m-5.55 30.2L10.1 41l-.95-.35" fill="none" stroke="#182a65" stroke-linecap="round" stroke-linejoin="round" stroke-width="1.7"/></g><g id="K"><path d="m28.65 12.5 1.15.05 6.65 11.3-.6.3-5.05-1.65 2.25.5-9.3-3.3 4.9-7.2" fill="#10bffa" fill-rule="evenodd" transform="translate(.85 .75)"/><path d="M26.65 12.4h1.25q-2.9 3.05-5.4 6.95l-5.45 1.9-.35-.55q5.55-5.65 9.95-8.3" fill="#10befd" fill-rule="evenodd" transform="translate(.85 .75)"/><path d="M23.35 32.45 21.2 28.7l.1-.55q0-.9-.7-1.6l-.8-.5-2.6-4.55 5-1.25q-.1 4.8 1.15 12.2" fill="#65fff4" fill-rule="evenodd" transform="translate(.85 .75)"/><path d="m35.85 24.15-3.55 2.6-2 .65q-.9.3-4.95 2.3-1.35.75-1.85-.3l-.25-8.7 7.55 1.8 5.05 1.65" fill="#005baa" fill-rule="evenodd" transform="translate(.85 .75)"/><path d="m27.9 12.4.75.1-4.9 7.2 9.3 3.3-2.25-.5-7.55-1.8.25 8.7v3.55l-.05.05.05-.05v.65l-.05-.6-.1-.55q-1.25-7.4-1.15-12.2l-5 1.25-.15-.25 5.45-1.9q2.5-3.9 5.4-6.95m-4.4 20.35-.15-.3.15.3" fill="#c9fff8" fill-rule="evenodd" transform="translate(.85 .75)"/><path d="m32.3 26.75-8.7 6.1-.1-.1V29.4q.5 1.05 1.85.3 4.05-2 4.95-2.3l2-.65" fill="#2dc7fa" fill-rule="evenodd" transform="translate(.85 .75)"/><path d="M34.1 67.95q-18.45-.65-25.75-4.7-8.45-4.8-8.35-7.9.1-1.9.75-3.2 6.35-4.4 5.65-9.6-1.1-6.3 1.65-11.6 5.6 1.65 7.35-1.8 1.9-3.9-.65-7.05-1-1.15-2.6-2.25 2.75-3.8 6.05-6.95l3.9-.4 4.55-.1q-4.4 2.65-9.95 8.3l-.95 1-.2.25 1.65-.45 2.6 4.55-.6-.05q-.8 0-1.5.55-.55.7-.55 1.6 0 .9.55 1.5.7.65 1.5.65.85 0 1.4-.65l.6-.95 2.15 3.75.1.55.05.6v-.65l.1-.1 8.7-6.1 3.55-2.6.9.35-.3-.65-6.65-11.3Q52.25 14.5 57.3 39.8q3.9 20.65-23.2 28.15" fill="#9be0e2" fill-rule="evenodd" transform="translate(.85 .75)"/><path d="M.75 52.15q.35-.9 1-1.6 1.5-1.65.8-7-.8-5.4.7-14.25Q4.65 20.45 14.4 12q5.9-5.05 13.65-6.2-5.45 2.9-9.85 7.1-3.3 3.15-6.05 6.95 1.6 1.1 2.6 2.25 2.55 3.15.65 7.05-1.75 3.45-7.35 1.8-2.75 5.3-1.65 11.6.7 5.2-5.65 9.6M21.2 28.7l-.6.95q-.55.65-1.4.65-.8 0-1.5-.65-.55-.6-.55-1.5t.55-1.6q.7-.55 1.5-.55l.6.05 1.4 2.65" fill="#ccffeb" fill-rule="evenodd" transform="translate(.85 .75)"/><path d="m49.5 67.65-8.7.4-6.7-.1q27.1-7.5 23.2-28.15-5.05-25.3-27.5-27.25L29 11.1q-1.2.5-2.35 1.3l-4.55.1-3.9.4q4.4-4.2 9.85-7.1 5.05-.85 10.95.05 8.75 1.25 15.7 4.55Q78 46.6 49.5 67.65M30.4 9.9l-.1.1.1.1v-.2" fill="#6091ff" fill-rule="evenodd" transform="translate(.85 .75)"/><path d="M54.7 10.4q4.75 2.25 8.65 5.5 9.35 7.75 11.55 19.25 2.1 11.55-4.05 22.2-4.95 8.55-21.35 10.3Q78 46.6 54.7 10.4" fill="#3f3ad0" fill-rule="evenodd" transform="translate(.85 .75)"/><path d="M29.8 12.55 29 11.1q-1.2.5-2.35 1.3-4.4 2.65-9.95 8.3l.35.55.15.25 2.6 4.55 1.4 2.65 2.15 3.75.15.3.1.1-.1.1-.05.05m12.4-8.85-3.55 2.6-8.7 6.1m12.25-8.7.6-.3-6.65-11.3" fill="none" stroke="#182a65" stroke-linecap="round" stroke-linejoin="round" transform="translate(.85 .75)"/><path d="M55.55 11.15q4.75 2.25 8.65 5.5 9.35 7.75 11.55 19.25 2.1 11.55-4.05 22.2-4.95 8.55-21.35 10.3l-8.7.4-6.7-.1Q16.5 68.05 9.2 64 .75 59.2.85 56.1q.1-1.9.75-3.2.35-.9 1-1.6 1.5-1.65.8-7-.8-5.4.7-14.25 1.4-8.85 11.15-17.3 5.9-5.05 13.65-6.2 5.05-.85 10.95.05 8.75 1.25 15.7 4.55z" fill="none" stroke="#182a65" stroke-linecap="round" stroke-linejoin="round" stroke-width="1.7"/><path d="M69.4 3.05q5.55 4.7 9.65 17.15 2.3 8.95-7 13.05-3.7-.3-6.75-1.2l1.3-1.1q1.35-1.3 1.65-3.65.35-2.4-1.45-5.2-1.85-2.75-1.85-4.9 0-5.85 4.45-14.15" fill="#8e0fff" fill-rule="evenodd" transform="translate(.85 .75)"/><path d="M64.05.25q2.8.55 5.35 2.8-4.45 8.3-4.45 14.15 0 2.15 1.85 4.9 1.8 2.8 1.45 5.2-.3 2.35-1.65 3.65l-1.3 1.1q-4.3-1.45-7.3-4l2.4.6q5.3.8 4.9-3.5-.45-4.4-1.75-6.3-1.35-1.95-1.4-7.35-.2-5.4.65-8.2.35-1.25 1.25-3.05" fill="#c13cff" fill-rule="evenodd" transform="translate(.85 .75)"/><path d="M58.35 8.75q-.6-1.5-1.45-1.65-.9-.15-1.7 1.35-.85 1.45-.85 3.85 0 2.45.85 4.1.8 1.65 1.95 1.65 1.2 0 1.5-1.35.35-1.3.35-3.8-.1-2.65-.65-4.15M58 28.05q-7.35-6.55-6.95-20.8Q57.35 1.3 62.65 0l1.4.25q-.9 1.8-1.25 3.05-.85 2.8-.65 8.2.05 5.4 1.4 7.35 1.3 1.9 1.75 6.3.4 4.3-4.9 3.5l-2.4-.6m3-6.6q0-.7-.45-1.2-.3-.4-.9-.4-.55 0-1 .4-.3.5-.3 1.2 0 .65.3 1.05.45.5 1 .5l.9-.5.45-1.05" fill="#f970f9" fill-rule="evenodd" transform="translate(.85 .75)"/><path d="M58.35 8.75q.55 1.5.65 4.15 0 2.5-.35 3.8-.3 1.35-1.5 1.35-1.15 0-1.95-1.65-.85-1.65-.85-4.1 0-2.4.85-3.85.8-1.5 1.7-1.35.85.15 1.45 1.65M61 21.45l-.45 1.05-.9.5q-.55 0-1-.5-.3-.4-.3-1.05 0-.7.3-1.2.45-.4 1-.4.6 0 .9.4.45.5.45 1.2" fill="#ffb9f2" fill-rule="evenodd" transform="translate(.85 .75)"/><path d="M58.85 28.8Q51.5 22.25 51.9 8 58.2 2.05 63.5.75l1.4.25q2.8.55 5.35 2.8 5.55 4.7 9.65 17.15 2.3 8.95-7 13.05-3.7-.3-6.75-1.2-4.3-1.45-7.3-4z" fill="none" stroke="#3e0e66" stroke-linecap="round" stroke-linejoin="round" stroke-width="1.5"/></g><g id="L"><path d="M43.45 34.1q.35-.2.7 0l.3.25.1.15q1.4 3 1.75 7.7.4 8.45-6.7 11.9h-.1l-1.6.7q-4.2 1.45-7.2 0-1.45-.75-2.65-2.15v-.1q-2.7-3.5-1.65-8.85l.35-1q.25 5.85 2.65 8.85 3.3 3.9 9.45 1.1 6.2-3 5.8-10.35-.35-4.3-1.6-7.15-.15-.3 0-.55l.4-.5" fill="#182a65" fill-rule="evenodd" transform="translate(0 .85)"/><path d="m9.75 30.75.25-.15 1.2-1.25q.05-.3.3-.25l-.25 1.75-.15.5-.9 1.65q-1 1.4-3.9 1.5h-.1q-2.9.1-4.95-5.15L.6 26.3Q-.1 23 0 21.75q.1-1.9 1.5-5.2l-.1 5.1.1 1.45q.4 2.15 1.75 5.5v-.05q1.4 3.55 3.05 3.8 1.65-.1 2.75-.9l.05-.1.65-.6" fill="#3e0e66" fill-rule="evenodd" transform="translate(0 .85)"/><path d="M12.35 7.7q9-7.55 21-7.7l4.75.25q18.2 8.35 23.25 22.6 1.25 30.3-25.15 37.8-26 4-24.95-24.6 1.65-2.4 4.15-4.35 6.45-5.15 14.1-4.25 7.5.9 11.5 3.8 1.5 1.1 2.45 2.85l-.4.5q-.15.25 0 .55 1.25 2.85 1.6 7.15.4 7.35-5.8 10.35-6.15 2.8-9.45-1.1-2.4-3-2.65-8.85l-.35 1q-1.05 5.35 1.65 8.85v.1q1.2 1.4 2.65 2.15 3 1.45 7.2 0l1.6-.7h.1q7.1-3.45 6.7-11.9-.35-4.7-1.75-7.7l-.1-.15q2.9-3 .75-10.05-2.55-8.2-16.9-9.85-6.5.45-10.75 2.6L14.8 15.4q-.4-.35-.55-1.35l-.4-1-1.75-.5q-.4-.15-.4-1.15 0-1.15.65-3.7m3.9 36.65 2.2-2.55q1.65-2.1 6.05-3.75 4.4-1.75 7.95-1.3 3.55.4 5.4 2.4Q39.6 41.1 41 41.3q1.3.15 1.5-2.15.2-2.35-2.6-5.05-2.9-2.85-6.1-2.9l-5.15.3q-1.9.45-4.9 2.1-3.05 1.65-4.95 4.7-2 3-2.55 6.05m37.3-19.6q.45 2.7-.65 6l-1.75 4.4q-.5 1-.3 2.6.15 1.55 2.8 1.15 2.65-.45 3.65-4.15.9-3.75 1.05-7.05.2-3.4-1.65-7.1-1.9-3.8-9.9-8.05 4.7 5.8 5.45 7.7.8 1.85 1.3 4.5" fill="url(#w)" fill-rule="evenodd" transform="translate(0 .85)"/><path d="M41.4 69.35q-2.9.9-6.2 1h-5l-5.05-.65-4.35-1.65q-2.1-.95-4.25-2.5L13.1 62.4q-1.35-1.5-2.15-3.15Q10 57.6 9.2 54.7q-.75-2.4-.9-4.9-.25-2.55 0-5.1.25-2.35 1.05-4.5l1.9-4.15q-1.05 28.6 24.95 24.6 26.4-7.5 25.15-37.8l.6 1.9q3.55 11.9-1.2 21.4-5.7 12.1-19.35 23.2" fill="url(#x)" fill-rule="evenodd" transform="translate(0 .85)"/><path d="M16.25 44.35q.55-3.05 2.55-6.05 1.9-3.05 4.95-4.7 3-1.65 4.9-2.1l5.15-.3q3.2.05 6.1 2.9 2.8 2.7 2.6 5.05-.2 2.3-1.5 2.15-1.4-.2-3.15-2.15-1.85-2-5.4-2.4-3.55-.45-7.95 1.3-4.4 1.65-6.05 3.75l-2.2 2.55m37.3-19.6q-.5-2.65-1.3-4.5-.75-1.9-5.45-7.7 8 4.25 9.9 8.05 1.85 3.7 1.65 7.1-.15 3.3-1.05 7.05-1 3.7-3.65 4.15-2.65.4-2.8-1.15-.2-1.6.3-2.6l1.75-4.4q1.1-3.3.65-6" fill="#ccffeb" fill-rule="evenodd" transform="translate(0 .85)"/><path d="M38.1.25q10.85 1.4 18.85 9.9 9.8 10.3 9.1 24.95-.7 14.55-10.1 25-6.35 6.95-14.55 9.25 13.65-11.1 19.35-23.2 4.75-9.5 1.2-21.4l-.6-1.9Q56.3 8.6 38.1.25" fill="#f6b7ff" fill-rule="evenodd" transform="translate(0 .85)"/><path d="M17.55 17.05q-7.7 3.85-7.8 13.5Q7.8 29.7 6.3 27.7q-2.25-3.15-2.25-7.45l.25-3.2q2.15-3.65 5.25-6.8 1.4-1.4 2.8-2.55-.65 2.55-.65 3.7 0 1 .4 1.15l1.75.5.4 1q.15 1 .55 1.35l2.75 1.65" fill="#fdfff7" fill-rule="evenodd" transform="translate(0 .85)"/><path d="M9.75 30.55v.2l-.65.6-.05.1q-1.1.8-2.75.9-1.65-.25-3.05-3.8v.05Q1.9 25.25 1.5 23.1q1.05-3.25 2.8-6.05l-.25 3.2q0 4.3 2.25 7.45 1.5 2 3.45 2.85" fill="#aedcf1" fill-rule="evenodd" transform="translate(0 .85)"/><path d="M12.35 8.55q9-7.55 21-7.7l4.75.25Q48.95 2.5 56.95 11q9.8 10.3 9.1 24.95-.7 14.55-10.1 25Q49.6 67.9 41.4 70.2q-2.9.9-6.2 1h-5l-5.05-.65-4.35-1.65q-2.1-.95-4.25-2.5l-3.45-3.15q-1.35-1.5-2.15-3.15-.95-1.65-1.75-4.55-.75-2.4-.9-4.9-.25-2.55 0-5.1.25-2.35 1.05-4.5l1.9-4.15q1.65-2.4 4.15-4.35 6.45-5.15 14.1-4.25 7.5.9 11.5 3.8 1.5 1.1 2.45 2.85m1 .25q2.9-3 .75-10.05-2.55-8.2-16.9-9.85-6.5.45-10.75 2.6-7.7 3.85-7.8 13.5v.2M1.5 23.95q1.05-3.25 2.8-6.05 2.15-3.65 5.25-6.8 1.4-1.4 2.8-2.55" fill="none" stroke="#182a65" stroke-linecap="round" stroke-linejoin="round" stroke-width="1.7"/></g><g id="q"><path d="m84.9 89.4-.1-.9q.9 2.25 2.75 3.8 2.4 2.1 5.05 2.25 2.65.1 4.8-2.9 1.9-2.65 2.05-5.05l.5 2.75q.15 3.55-1.75 5.8-2.05 2.05-5.2 2.05-3.15 0-5.45-2.05-2.25-2.1-2.65-5.75m-33.15-4.05-.05.35q-.75 3.05-.25 4.65.55 1.7 2 2.3 1.3.4 2.8-.9 1.05-.9 1.75-2.15v.25q-.1 2.55-1.35 3.8-1.15 1.25-3 1.15-1.8-.1-2.7-1.55-1-1.6-.85-3.75.1-2.25 1.25-3.7l.4-.45" fill="#500e0e" fill-rule="evenodd" transform="translate(-50.1 -85.35)"/><path d="M60.8 102.15q-.15-.3-.5-.15-.85-.55-1.35-1.4-.45-.9 0-2.25.45-1.4 2.2-1.15-.95.6-1 1.65-.2 1.1.9 1.75 1.05.6 1.8.4l1.25-.25 1.6-.4 3.15-.4q1.15.05 4.1 1.5 3 1.4 5.15 1.15l1.55-.25 1.25-.6q.75-.55.85-1.9 0-1.4-.9-2.25-1-.9-2.65-1.3 2.65-.75 4.1.8 1.5 1.6 1.1 3.6-.4 1.9-1.75 2.7-1 .6-2.65.7l-1.25.05-2.55-.3h-.1l-2.05-.75q-2.15-1.1-3.55-1.5l-3.1.15-2.05.6-1.05.15-2.5-.35" fill="#182a65" fill-rule="evenodd" transform="translate(-50.1 -85.35)"/><path d="m60.8 102.15 2.5.35 1.05-.15.15 3.05q-3.15-.65-3.7-3.25m14.4 1.7 2.55.3 1.25-.05q-1.75 1.8-4.15 2.2l.35-2.45" fill="#fdfff7" fill-rule="evenodd" transform="translate(-50.1 -85.35)"/><path d="M25 18.5h.1l-.35 2.45q2.4-.4 4.15-2.2M10.7 16.8q.55 2.6 3.7 3.25L14.25 17" fill="none" stroke="#182a65" stroke-linecap="round" stroke-linejoin="round" stroke-width=".75"/></g><g id="M"><path d="M46.75 6.05Q56.85-1.3 77.5.25l.05.2q.75 1 .75 2.45 0 1.45-1.15 2.35-1.15.9-1.3 1.3-.1.45.4.85.4.35.75 0 2.95.35.5 2.5-2.85.15-2.85.95 0 .35.5.7l.5.65q0 .4-1.3 1.25-1 .55-1.25 1.05h.1l3.05 1.25.25 1.15q0 1-1.15 1.5l-2 .75.3.9q.35.45.35 1.25 0 .85-.5 1.35-.5.45-2.95-.6.65.85-.45 1.4-2.65 1.35-5.05 2l-3.8.8-2.55.1q-1.1.1-1.1 1.1v.05l-5.05-1.65q3.65 1.5 5 3 2.45 2.95-5 5.8Q41.3 38.7 31.7 28q6.6 10.1-2.4 7.8-6.95-4-11.6-8.55-6.2 4.5-14.25 6.55-1.3.1-3.45-.6 2.55-1.8 4.05-3.95h.4q3.1-.35 6.4-2.15 3.4-1.8 5.85-1.8 4.05 0 6.9 2.85 2.7 2.9 4.4 3.25 1.55.35 2.15-3.45.55-3.75-.45-4.9l-.05-.1v.1l-1.5.15q-1.35-.1-2.5-1.4-1.15-1.3-1.15-3.3l.15-1.65V17q.35 1.8.85 2.65.9 1.3 2.55 1.3h.25q1.85-.05 2.5-1.3.65-1.4.9-2.75.25-1.4.4-.75l.6 2.25q.35 1.6 2.15 2.25l3.65.65q1.25 0 2.55-.65 1.65-.85 1.65-2.25l-.15-2.55q1.9 1.15 5.3-.85 3.3-2.05 3.3-3.7 0-1.75-.8-2.6-.85-.9-2.35-1.45v-.1l1.15-.25q2.25 0 3.4 1.3 1.1 1.35 1.1 3.65 0 2.25-1.75 3.4-1.8 1.1-6.35 2.6.8 2.55-1.2 4.2-2.05 1.55-4.95 1.4l-4.05-.55q-1.4-.5-2.75-2.1-.3 1-1.75 1.75l-.55.25q4.45 3.8 9 4.3 5.55.65 7.65.15 2.05-.5 2.55-2.15t-.25-3.2q-.85-1.65 3.4-1.1l3.8 1.75q2.25.8 4.4.9 2.15 0 4.15-.9 1.9-1 1.9-2.9t-2-3.65q-2-1.8-3.95-1.65 2.8-1.35 2.6-3-.15-1.65-.8-2.55-.75-.9-1.15-.75V7.9q2.15-.75 2.15-1.6-.2-1.2-.85-1.2l-1.75.45-1.4.5V5.9q.2-.35 0-.8-.05-.5-.3-.5-.45 0-1.25.9-.65.9-1.9.3l-4.8-.4-4.75.65m24.45 7.9 1.8.55h.1-.1l-1.8-.55m-19.9 11.4 1.25.5-1.25-.5" fill="#aedcf1" fill-rule="evenodd" transform="translate(.85 .85)"/><path d="m77.55.25 8.05.95q10 2.55 3 13.25-8.55 1.7-15.5.05.25-.5 1.25-1.05 1.3-.85 1.3-1.25l-.5-.65q-.5-.35-.5-.7 0-.8 2.85-.95 2.45-2.15-.5-2.5-.35.35-.75 0-.5-.4-.4-.85.15-.4 1.3-1.3 1.15-.9 1.15-2.35 0-1.45-.75-2.45v-.2m-1.3 15.5q11.15 5.05-.6 11.5-7.25 3.15-18.05.25v-.05q0-1 1.1-1.1l2.55-.1 3.8-.8q2.4-.65 5.05-2 1.1-.55.45-1.4 2.45 1.05 2.95.6.5-.5.5-1.35 0-.8-.35-1.25l-.3-.9 2-.75q1.15-.5 1.15-1.5l-.25-1.15" fill="#7ba5e2" fill-rule="evenodd" transform="translate(.85 .85)"/><path d="m8.95 22.9 3.4-2.35Q16.8 17.4 24.6 14h-.1q9.75-3.2 16-.55h1.05l.85-.75v-1.1q-.2-.4-1.2.5 2.65-3.95 5.55-6.05l4.75-.65 4.8.4q1.25.6 1.9-.3.8-.9 1.25-.9.25 0 .3.5.2.45 0 .8v.15l1.4-.5 1.75-.45q.65 0 .85 1.2 0 .85-2.15 1.6v.15q.4-.15 1.15.75.65.9.8 2.55.2 1.65-2.6 3Q62.9 14.2 64.9 16q2 1.75 2 3.65t-1.9 2.9q-2 .9-4.15.9-2.15-.1-4.4-.9l-3.8-1.75q-4.25-.55-3.4 1.1.75 1.55.25 3.2-.5 1.65-2.55 2.15-2.1.5-7.65-.15-4.55-.5-9-4.3l.55-.25q1.45-.75 1.75-1.75 1.35 1.6 2.75 2.1l4.05.55q2.9.15 4.95-1.4 2-1.65 1.2-4.2 4.55-1.5 6.35-2.6 1.75-1.15 1.75-3.4 0-2.3-1.1-3.65-1.15-1.3-3.4-1.3L48 7.15l-1.15.25v.15l1.15-.3q1.5.55 2.35 1.45.8.85.8 2.6 0 1.65-3.3 3.7-3.4 2-5.3.85l.15 2.55q0 1.4-1.65 2.25-1.3.65-2.55.65l-3.65-.65q-1.8-.65-2.15-2.25l-.6-2.25q-.15-.65-.4.75-.25 1.35-.9 2.75-.65 1.25-2.5 1.3h-.25q-1.65 0-2.55-1.3-.5-.85-.85-2.65v-.15l-.15 1.65q0 2 1.15 3.3 1.15 1.3 2.5 1.4l1.5-.15h.05q1 1.15.45 4.9-.6 3.8-2.15 3.45-1.7-.35-4.4-3.25-2.85-2.85-6.9-2.85-2.45 0-5.85 1.8-3.3 1.8-6.4 2.15h-.4q2.05-3.15 4.2-5.7l.1-.1.4-.4.1.15v-.25l.1-.05" fill="#fdfff7" fill-rule="evenodd" transform="translate(.85 .85)"/><path d="m8.95 22.9.05-.1-.05-.1q7.1-8.45 14.55-11.35h.1q11-3.7 18.05-.5l-.45 1.25q1-.9 1.2-.5v1.1l-.85.75H40.5q-6.25-2.65-16 .55h.1q-7.8 3.4-12.25 6.55l-3.4 2.35" fill="#30409e" fill-rule="evenodd" transform="translate(.85 .85)"/><path d="M42.05 12.95Q44.7 9 47.6 6.9 57.7-.45 78.35 1.1h.05l8.05.95q10 2.55 3 13.25-8.55 1.7-15.5.05h-.1l-1.8-.55m2 .55 3.05 1.25q11.15 5.05-.6 11.5-7.25 3.15-18.05.25L53.4 26.7q3.65 1.5 5 3 2.45 2.95-5 5.8-11.25 4.05-20.85-6.65 6.6 10.1-2.4 7.8-6.95-4-11.6-8.55-6.2 4.5-14.25 6.55-1.3.1-3.45-.6" fill="none" stroke="#30409e" stroke-linecap="round" stroke-linejoin="round" stroke-width="1.7"/><path d="m53.4 26.7-1.25-.5" fill="none" stroke="red" stroke-linecap="round" stroke-linejoin="round" stroke-width=".05"/></g><g id="N"><path d="m27.65 23.7-1.9 2.3q-6.05 3.3-12.9 12.25L8.3 17l17.3 6 2.05.7" fill="#005baa" fill-rule="evenodd" transform="translate(.65 .65)"/><path d="M13.5 1.65 15.1 0l.15.35-6.85 14.9q15.45 5.3 17.2 7.75L8.3 17l4.55 21.25.6 2.65-.95-.9-5.6-23.1-5.55.4 5.7-2.2L13.5 1.65" fill="#c9fff8" fill-rule="evenodd" transform="translate(.65 .65)"/><path d="M15.25.35q6.45 9.5 13.5 22l-1.1 1.35-2.05-.7q-1.75-2.45-17.2-7.75L15.25.35M.1 17.4l-.1-.25Q6.9 8.7 13.5 1.65L7.05 15.1l-5.7 2.2-1.25.1" fill="#10bffa" fill-rule="evenodd" transform="translate(.65 .65)"/><path d="M12.5 40Q7.15 34.6.2 17.7l1.15-.4 5.55-.4L12.5 40" fill="#65fff4" fill-rule="evenodd" transform="translate(.65 .65)"/><path d="m25.75 26-12.3 14.9-.6-2.65Q19.7 29.3 25.75 26" fill="#2dc7fa" fill-rule="evenodd" transform="translate(.65 .65)"/><path d="m14.15 2.3 1.6-1.65.15.35q6.45 9.5 13.5 22l-1.1 1.35-1.9 2.3-12.3 14.9-.95-.9Q7.8 35.25.85 18.35l-.1-.3-.1-.25q6.9-8.45 13.5-15.5z" fill="none" stroke="#182a65" stroke-linecap="round" stroke-linejoin="round" stroke-width="1.3"/></g><g id="O"><path d="M1.25 17.7Q-1 12.4 1.4 6.2q.8-1.75 2.15-2.75Q6.1 1.5 9.65.55l1.45-.3q2.95-.7 5.3.5l.15.75Q19.3 14 9.65 15.7l-5.3.2 2.25 2.55-5.35-.75" fill="#9be0e2" fill-rule="evenodd" transform="translate(.7 .85)"/><path d="m19.7 3.65-2-2.25q.4-.4 1.4.4L21 3.4q.95.65 1.35 2.65l.3 3.4q0 4.95-3.55 7.9-1 .85-2 1.5l-1.65.45q-1.55.4-3.85.05l-1.95-.5-.3-.15-3.3-2.3.65.5 2.95.55 1.35.1q2.55 0 4.65-1.1l.05-.05 1.6-1.2q2.55-2.15 2.55-5.75l-.15-2.1q-.6-2.3-2.1-3.95-.4-.5-.4-1 0-.6 2.5 1.25" fill="#182a65" fill-rule="evenodd" transform="translate(.7 .85)"/><path d="m16.55 1.5.5-.35 2.65 2.5Q17.2 1.8 17.2 2.4q0 .5.4 1 1.5 1.65 2.1 3.95l.15 2.1q0 3.6-2.55 5.75l-1.6 1.2-.05.05q-2.1 1.1-4.65 1.1l-1.35-.1-2.95-.55-.65-.5 3.3 2.3-2.75-.25-2.25-2.55 5.3-.2q9.65-1.7 6.9-14.2" fill="#6091ff" fill-rule="evenodd" transform="translate(.7 .85)"/><path d="M1.95 18.55q-2.25-5.3.15-11.5.8-1.75 2.15-2.75 2.55-1.95 6.1-2.9l1.45-.3q2.95-.7 5.3.5m.65.4 2.65 2.5" fill="none" stroke="#182a65" stroke-linecap="round" stroke-linejoin="round" stroke-width="1.7"/></g><use ffdec:characterId="2" height="24.45" width="23.9" xlink:href="#y" id="c"/><use ffdec:characterId="4" height="38.35" width="44.75" xlink:href="#z" id="d"/><use ffdec:characterId="6" height="73.85" width="55.85" xlink:href="#A" id="e"/><use ffdec:characterId="8" height="54.25" width="49.35" xlink:href="#B" id="f"/><use ffdec:characterId="10" height="68.9" width="63.45" xlink:href="#C" id="g"/><use ffdec:characterId="12" height="17.9" width="15.2" xlink:href="#D" id="h"/><use ffdec:characterId="14" height="73.35" width="97.85" xlink:href="#E" id="i"/><use ffdec:characterId="16" height="24.4" width="22.7" xlink:href="#F" id="j"/><use ffdec:characterId="18" height="38.95" width="51.6" xlink:href="#G" id="k"/><use ffdec:characterId="20" height="46" width="50.85" xlink:href="#H" id="l"/><use ffdec:characterId="22" height="62.55" width="75.3" xlink:href="#I" id="m"/><use ffdec:characterId="24" height="59.55" width="54.2" xlink:href="#J" id="n"/><use ffdec:characterId="26" height="69.65" width="81.1" xlink:href="#K" id="o"/><use ffdec:characterId="28" height="72.05" width="66.95" xlink:href="#L" id="p"/><use ffdec:characterId="31" height="37.95" width="93.2" xlink:href="#M" id="r"/><use ffdec:characterId="33" height="42.2" width="30.05" xlink:href="#N" id="s"/><use ffdec:characterId="35" height="20.35" width="23.35" xlink:href="#O" id="t"/><linearGradient gradientTransform="matrix(-.004 .024 -.0366 -.0062 22.5 37.25)" gradientUnits="userSpaceOnUse" id="u" spreadMethod="pad" x1="-819.2" x2="819.2"><stop offset=".051" stop-color="#53f0df"/><stop offset=".976" stop-color="#4676f9"/></linearGradient><linearGradient gradientTransform="matrix(.0053 .0175 -.0186 .0056 21.4 41.3)" gradientUnits="userSpaceOnUse" id="v" spreadMethod="pad" x1="-819.2" x2="819.2"><stop offset=".051" stop-color="#3eeaec"/><stop offset=".976" stop-color="#3260fb"/></linearGradient><linearGradient gradientTransform="matrix(.0072 .0276 -.0361 .0093 39 38.65)" gradientUnits="userSpaceOnUse" id="w" spreadMethod="pad" x1="-819.2" x2="819.2"><stop offset=".067" stop-color="#54f0de"/><stop offset=".976" stop-color="#4887f6"/></linearGradient><linearGradient gradientTransform="matrix(.0043 .0191 -.0283 .0064 37.65 53.95)" gradientUnits="userSpaceOnUse" id="x" spreadMethod="pad" x1="-819.2" x2="819.2"><stop offset=".051" stop-color="#39b0f2"/><stop offset=".976" stop-color="#314dfd"/></linearGradient><path d="M37.95 12.5Q22.2 17.7 0 17.7q-22.2 0-37.9-5.2Q-53.65 7.35-53.65 0q0-7.3 15.75-12.5 15.7-5.15 37.9-5.15t37.95 5.15Q53.65-7.3 53.65 0q0 7.35-15.7 12.5" fill-opacity=".353" fill-rule="evenodd" transform="translate(53.65 17.65)" id="b"/></defs></svg>