<svg xmlns:ffdec="https://www.free-decompiler.com/flash" xmlns:xlink="http://www.w3.org/1999/xlink" ffdec:objectType="frame" height="90" width="90" xmlns="http://www.w3.org/2000/svg"><use ffdec:characterId="54" height="188.6" transform="matrix(.4748 0 0 .4746 -.783 -.64)" width="178.7" xlink:href="#a"/><defs><g id="a" transform="translate(1.65 1.35)"><use ffdec:characterId="1" height="8.6" transform="matrix(2.2974 0 0 2.9879 38.442 161.56)" width="52.4" xlink:href="#b"/><use ffdec:characterId="3" height="30.95" transform="translate(38.55 98.55) scale(1.0255)" width="24.75" xlink:href="#c"/><use ffdec:characterId="5" height="38.15" transform="translate(130.45 97.15) scale(1.0255)" width="36.45" xlink:href="#d"/><use ffdec:characterId="10" height="60.7" transform="translate(38.578 45.542) scale(1.0255)" width="112.65" xlink:href="#e"/><use ffdec:characterId="12" height="18.15" transform="matrix(.9847 -.2832 .2832 .9847 59.85 99.7)" width="17.6" xlink:href="#f"/><use ffdec:characterId="14" height="33.65" transform="translate(75.8 92.5) scale(1.0255)" width="53.5" xlink:href="#g"/><use ffdec:characterId="16" height="16.7" transform="translate(54.25 108.6) scale(1.0255)" width="19.6" xlink:href="#h"/><use ffdec:characterId="18" height="17.8" transform="translate(122.85 103.1) scale(1.0255)" width="19.2" xlink:href="#i"/><use ffdec:characterId="31" height="90.65" transform="translate(35.394 12.449) scale(1.0255)" width="114.55" xlink:href="#j"/><use ffdec:characterId="33" height="43" transform="translate(33.95 112.2) scale(1.0255)" width="45.25" xlink:href="#k"/><use ffdec:characterId="35" height="40.45" transform="translate(112.55 109.95) scale(1.0255)" width="54.15" xlink:href="#l"/><use ffdec:characterId="42" height="62.25" transform="translate(61.35 99) scale(1.0255)" width="70" xlink:href="#m"/><use ffdec:characterId="44" height="14.1" transform="translate(100.55 94.9) scale(1.0255)" width="15.55" xlink:href="#n"/><use ffdec:characterId="46" height="29.15" transform="translate(25 131.5) scale(1.0255)" width="53.4" xlink:href="#o"/><use ffdec:characterId="48" height="30.15" transform="translate(117.75 130.95) scale(1.0255)" width="57.8" xlink:href="#p"/><use ffdec:characterId="53" height="49.4" transform="translate(-1.654 43.052) scale(1.0255)" width="63.55" xlink:href="#q"/></g><g id="ag" fill-rule="evenodd"><path d="M14.45 11.45 16.6 1.3l-.2.3-.25.4-5.65 8.6-.55-.05-8.05-.8.9.6 5.4 3.7.3.15-.05.15-2.3 10.55-.6 2.65 7.95-11.3 9.6 2.55-.15-.15-8.6-6.75.1-.45M7.8 14.6Q3.25 11.8 0 9.05l10.05.95 7.1-10-1.9 11.45 9.5 8.1-11.3-2.5q-3.9 6.5-9.3 13.9Q5.35 24 7.8 14.6" fill="#bc791f"/><path d="m8.45 14.35.05-.15-.3-.15 2.55-.6.3.1h.05l-.2.45-2.45.35m7.6-11.3-2.15 8.9-1.8 1.4-.2.2 2.25 1.05.9 1.5-1.75-.15-5.2 6.65 4.45-7.1-1-1.95.05-.15.15-.5v-.05l1.75-1.4 2.55-8.4m.15 13.25-.45-.05-.05-.05-.3-1 .55.3.25.8" fill="#e59124"/><path d="m16.4 1.6.2-.3-2.15 10.15-.55.5 2.15-8.9.35-1.45m6.55 17.05.15.15-9.6-2.55-7.95 11.3.6-2.65.8-.95L8.1 22.6l5.2-6.65 1.75.15h.05l.6.1.05.05.45.05q1.8.45 4.35 1.4l2.4.95" fill="#b6fcf6"/><path d="m16.15 2 .25-.4-.35 1.45-2.55 8.4-1.75 1.4L14.6 5.6 16.15 2m-4.6 11.55 1 1.95-4.45 7.1-1.15 1.35.4-.85 4.15-9.5v.05l.05-.1" fill="#ffce3a"/><path d="m14.45 11.45-.1.45 8.6 6.75-2.4-.95-2.3-1.1-6.15-3.25 1.8-1.4.55-.5M6.15 24.9l2.3-10.55L10.9 14l-3.55 9.1-.4.85-.8.95M8.2 14.05l-5.4-3.7 7.95 3.1-2.55.6m1.75-3.5.55.05L16.15 2 14.6 5.6l-3.15 7.05-1.5-2.1" fill="#fffb79"/><path d="m2.8 10.35-.9-.6 8.05.8 1.5 2.1h-.1l-.3.9-.3-.1-7.95-3.1" fill="#fff"/><path d="M11.75 12.85v.05l-.15.5-.15-.1.05.3-4.15 9.5L10.9 14l.2-.45h-.05l.3-.9h.1L14.6 5.6l-2.85 7.25m2.4 1.75-2.25-1.05.2-.2 6.15 3.25-2.3-1.1-.55-.3-1.25-.6" fill="#ffffef"/><path d="m15.05 16.1-.9-1.5 1.25.6.3 1-.6-.1h-.05m1.15.2-.25-.8 2.3 1.1 2.3 1.1q-2.55-.95-4.35-1.4" fill="#fdc937"/></g><g id="ah" fill-rule="evenodd"><path d="M1.65 18.4v.05h.25l11.65 3.15h.05l11.35 14.7.1.15.45-17.7h.05l2.4-2.35 6.85-6.55h-2.2l-10.05.2h-.1l-6.8-8.6-.05.1-.15.9-1.95 9.05-1.2.65-.15.1-1.85 1.1-1.6.95-1.45.8-5.6 3.3m10.9-7.2Q13.8 4.35 15.25 0q2.25 1.8 7.55 9.25 8.3-.4 13.65.05-3.5 4.2-10.05 9.95l-.15 7.3-.1 2.55-.65 9.05-7.45-9.05-1.95-2.55-3.25-4.3Q5.8 20.9 0 18.55q5.6-3.85 12.55-7.35" fill="#bc771d"/><path d="m1.9 18.45-.25-.05 5.6-3.3 5.4 4.15-10.75-.8m20.5-7.6.15-.8 10.05-.2-11.25 6.75 1.05-5.75m2.55 25.45L13.6 21.6l6.3-3.1 4.45 15.4.6 2.4M12.3 12.15l1.2-.65 1.95-9.05 1.5 4.85.55 2 .5 1.8 1.6 6.3-7.3-5.25m4.55 6.5-3.2.5L8.7 14.3l1.6-.95 6.55 5.3" fill="#fffb79"/><path d="m15.6 1.55.05-.1 6.8 8.6h.1l-.15.8-1.2-1V9.8l-2.1-2.35V7.4l-.25-.35-.45-.65-2.8-4.85m18 8.3h1.2l-6.85 6.55 1.65-1.9 2-2.35 2-2.3" fill="#b6fffc"/><path d="m1.9 18.45 10.75.8 1-.1 3.2-.5 2-.25.15-.05h-.05l.85-.15.1.3-6.3 3.1h-.05L1.9 18.45M18.4 6.4l.45.65-1.3 2.1.85-2.75m.7 1.05 2.1 2.35v.05l-1.8 5.25-1.3-4.2 1-3.45m13.5 2.4h1l-2 2.3-4.45 2.4 2.45-.05-1.65 1.9-2.4 2.35h-.05l-4.45-.25.3-1.9L32.6 9.85" fill="#e59124"/><path d="m15.6 1.55 2.8 4.85-.85 2.75-.6-1.85-1.5-4.85.15-.9m3.25 5.5.25.35v.05l-1 3.45-.55-1.7v-.05l1.3-2.1m2.35 2.8 1.2 1-1.05 5.75-.3 1.9 4.45.25-.45 17.7-.1-.15-.6-2.4-3.55-14.15-1.4-4.65 1.8-5.25" fill="#ffce3a"/><path d="m31.6 12.15-2 2.35-2.45.05 4.45-2.4" fill="#ffcf3a"/><path d="m12.15 12.25.15-.1 7.3 5.25.2.8-.85.15-6.8-6.1" fill="#ffcd37"/><path d="m12.65 19.25-5.4-4.15 1.45-.8 4.95 4.85-1 .1m6.95-1.85L18 11.1l.1-.2 1.3 4.2 1.4 4.65 3.55 14.15-4.45-15.4-.1-.3-.2-.8m-.75 1-2 .25-6.55-5.3 1.85-1.1 6.8 6.1-.1.05" fill="#fff"/></g><g id="e" transform="translate(2.8 12.05)"><use ffdec:characterId="7" height="43.4" transform="translate(57.5)" width="51" xlink:href="#r"/><use ffdec:characterId="9" height="36.7" transform="translate(0 11.35)" width="43.4" xlink:href="#s"/></g><g id="ai" fill-rule="evenodd"><path d="m26.1 15.65-3.1 1.2-3.35 1.25q-11.55 4.3-17 8.65-3.4 7.05.1 10.75 7 3.5 14.6 4.45l4.4.3q8.25.8 11.75-6.6l.5-1.15-8.1-.25-1.6-.85h.05q6.05 1.85 12.15-1.55 7.15-3.3 11.75-14.1Q50.7 8.9 46.5 1.5l-1.15 1.25q-3.9 4.05-8.8 7.35-4.75 3.15-10.45 5.55M2.3 26.05q7.3-5.3 17.25-8.8 11.8-3.9 26.8-17.25 7.4 7.4 3 20.05-4.5 10.6-14.25 14.65-1.6 6.4-8.45 8.25Q15.2 44.9 3.05 38.8q-5.65-4.2-.75-12.75" fill="#367cb6"/><path d="M35.25 21.85 36.5 20l.35-.8q1.5-4.2-.3-9.1 4.9-3.3 8.8-7.35 4.6 10.75-6.95 18.65l-3.15.45m-9.35 12.4 8.1.25-.5 1.15q-4.3 2.75-9.65 0 1.8-.35 2.05-1.4" fill="#fff"/><path d="M24.05 30.95q6.65-2.9 11.2-9.1l3.15-.45q11.55-7.9 6.95-18.65L46.5 1.5q4.2 7.4 1.75 16.25-4.6 10.8-11.75 14.1-6.1 3.4-12.15 1.55l-.1-.05-1.55-1L24 31l.05-.05" fill="url(#t)"/><path d="M36.85 19.2q-6.9 9.75-10.75-3.55 5.7-2.4 10.45-5.55 1.8 4.9.3 9.1" fill="#c4e4ff"/><path d="M19.65 18.1 23 16.85l3.1-1.2q3.85 13.3 10.75 3.55l-.35.8-1.25 1.85q-4.55 6.2-11.2 9.1 2.8-3.4 1.7-7.35-1.7-3.9-6.1-5.5" fill="url(#u)"/><path d="M19.65 18.1q4.4 1.6 6.1 5.5 1.1 3.95-1.7 7.35L24 31l-1.3 1.35-2.8 2.15q1.95 2 1.1 5-1.05 1.95-3.65 2.45-7.6-.95-14.6-4.45-3.5-3.7-.1-10.75 5.45-4.35 17-8.65" fill="url(#v)"/><path d="m24.3 33.4 1.6.85q-.25 1.05-2.05 1.4 5.35 2.75 9.65 0-3.5 7.4-11.75 6.6l-4.4-.3q2.6-.5 3.65-2.45.85-3-1.1-5l2.8-2.15 1.55 1 .05.05" fill="url(#w)"/></g><g id="aj" fill-rule="evenodd"><path d="M23.45 34.9q-4.05 1-7.8-.4-3.5-1.3-4.8-5l1 .35q2.5.7 4.65-.3l1.95-1.35 2.1-2.5q.75 1.1 1.95 1.95-2.6 4.2.95 7.25" fill="url(#x)"/><path d="m18.45 28.2-1.95 1.35q-1.9-1.7-1.45-2.95.55-.05 3.4 1.6" fill="#6cc5fc"/><path d="M1.75 10.85v-.1Q1.5 5.7 5.5 1.7l3.1 3.7q-.55 8.2 5.95 13.7-1.85 2.55-6.25-.45-3.65-3.15-6.55-7.8m14.75 18.7q-2.15 1-4.65.3-.25-3 2.3-4l1.35.1-.45.65q-.45 1.25 1.45 2.95" fill="#fff"/><path d="M19.35 22.75q.3 1.65 1.2 2.95l-2.1 2.5q-2.85-1.65-3.4-1.6l.45-.65.25.05 2.35-1.3q1-.9 1.25-1.95" fill="#c5e3fe"/><path d="m8.6 5.4.75.7.05.05q.4 5.35 3.25 8.8 1.65 1.8 3 .75.55-1.1-.6-2.25 1.7 0 .3-3.1 3.7 1.75 7.9 2.05l2.7.2q-5.05 1.6-6.45 5.55-.55 2.55-.15 4.6-.25 1.05-1.25 1.95.5-1.35.15-3.05l-3.7-2.55Q8.05 13.6 8.6 5.4" fill="url(#y)"/><path d="M9.4 6.15q2.8 2.65 5.95 4.2 1.4 3.1-.3 3.1 1.15 1.15.6 2.25-1.35 1.05-3-.75Q9.8 11.5 9.4 6.15" fill="#c7e4ff"/><path d="M10.85 29.5q-.7-2.1-.75-4.95 2.55.4 5.7-.6-7.3.7-11.4-5.3-2.4-4.2-2.65-7.8 2.9 4.65 6.55 7.8 4.4 3 6.25.45l3.7 2.55q.35 1.7-.15 3.05L15.75 26l-.25-.05-1.35-.1q-2.55 1-2.3 4l-1-.35" fill="url(#z)"/><path d="M23.45 34.9q3.8-1 7.8-4.15 5.7-4.4 10.5-6.6 2.55-4.05-1.5-8.15-6.1-2.65-14.1-3.4h-.2l-2.7-.2q-4.2-.3-7.9-2.05Q12.2 8.8 9.4 6.15l-.05-.05-.75-.7-3.1-3.7q-4 4-3.75 9.05v.1q.25 3.6 2.65 7.8 4.1 6 11.4 5.3-3.15 1-5.7.6.05 2.85.75 4.95 1.3 3.7 4.8 5 3.75 1.4 7.8.4M41 15.75q3.95 4.45 1.45 8.5l-.05.1-8.75 6.3q-10.45 8.8-19.9 4.75-6.05-4.7-4.5-11-3-.75-5.15-3.5Q-4.7 8.4 5.5 0q8.2 10.6 19.65 12 8.9.4 15.85 3.75" fill="#367cb6"/><path d="M25.95 12.6h.2q8 .75 14.1 3.4 4.05 4.1 1.5 8.15-4.8 2.2-10.5 6.6-4 3.15-7.8 4.15-3.55-3.05-.95-7.25-1.2-.85-1.95-1.95-.9-1.3-1.2-2.95-.4-2.05.15-4.6 1.4-3.95 6.45-5.55" fill="url(#A)"/></g><g id="ak" fill-rule="evenodd"><path d="m15.5 16.4-1.45 1.75q-5.85-1.9-10.9-6.95Q-.95 6 .3 1.95l6.55.2Q11.2 1.8 14.35 0l.65.85q-3.9 2.6-8.55 2.1H6.4l-.55-.05-1.95-.5q-1.75-.3-3.2.05Q.4 5.5 2.35 8.3q1.15 1.6 3 3.1l1.1.65L9.3 13.6q3.2 1.7 6.2 2.8" fill="#be8344"/><path d="M15 .85q2.05 2.7 2.5 6.55.25 5.45-2 9-3-1.1-6.2-2.8 2.05-1.1 2.6-4.05-.8-4.45-5.15-6l-.3-.6q4.65.5 8.55-2.1" fill="#f2c07f"/><path d="m9.3 13.6-2.85-1.55Q8.7 10.4 8.15 7.1q-.5-1.55-1.45-2.65l-.05-.05q-1.1-1.25-2.75-2l1.95.5.55.05h.05l.3.6q4.35 1.55 5.15 6-.55 2.95-2.6 4.05" fill="#f7d9b0"/><path d="m6.45 12.05-1.1-.65q-1.85-1.5-3-3.1 2.8-.55 2.9-4.6l1.4.7.05.05q.95 1.1 1.45 2.65.55 3.3-1.7 4.95" fill="#fff4dc"/><path d="M2.35 8.3Q.4 5.5.7 2.45q1.45-.35 3.2-.05 1.65.75 2.75 2l-1.4-.7q-.1 4.05-2.9 4.6" fill="#fff"/></g><g id="al" fill-rule="evenodd"><path d="m27.25.65 4.05.9h.05q2.1.85 3.95 2l.05.05q5 3.05 8.6 8.55 3.75 5.25 6.45 8.05 3 3.45 3.1 6.65l-2.3 1q.05-3.25-3.55-7.4-3.5-3.2-5.2-7.8-.95-2.35-2.85-4.8-5.1-5.1-12.35-7.2M2.1 29.9 1 29.3q-1.55-2.9-.75-8.4 1.2-8.4 5.05-15.8l.75-.55Q.15 17.5 2.1 29.9" fill="#7c481f"/><path d="M51.2 27.85Q44.55 30.6 36.9 32 37.15 18.85 24.6.25l2.65.4q7.25 2.1 12.35 7.2 1.9 2.45 2.85 4.8 1.7 4.6 5.2 7.8 3.6 4.15 3.55 7.4M4.9 31.2l-2.75-1.25-.05-.05Q.15 17.5 6.05 4.55l.05-.05 1.85-1.2Q3.25 14.95 4.9 31.2" fill="#b2662c"/><path d="M36.9 32q-6.75 1.25-14.3 1.4-9.6 1.05-17.7-2.2Q3.25 14.95 7.95 3.3q7-4.15 16.65-3.05Q37.15 18.85 36.9 32" fill="#ffff7c"/></g><g id="am" fill-rule="evenodd"><path d="M18.4 14.2q-.9 1.15-2.4 2.05-4.35 1.2-10.25-.9Q.3 13.75 0 9.45 1.2 2.7 7.8 0q6.05-.3 9.2 3.65l1.7 3.1Q13.65.95 8.6 1.4l-.2.1-1.45.65Q4.7 3.3 3.4 5.15q.8.95-.4.95-.15 1.35.6 2.6l.35.5.25.3-.85-.15-.05-.05q-.8-.45-1.05-1.95l-.3 1.1-.1.95q.05 1.3 1.05 2.3v.05q1.3 1.3 4.25 2l.05.05 2.2.65 9-.25" fill="#cb6ead"/><path d="M7.15 13.75q-2.95-.7-4.25-2v-.05q-.1-1.3.4-2.35h.05l.85.15-.25-.3-.35-.5.2-.3q.45-.6 1.55-1.05l1.55.15q1.1.4 1.8 1.75.35 1.45-.25 3.05l-1.3 1.45" fill="#ffc4ed"/><path d="m9.4 14.45-2.2-.65-.05-.05 1.3-1.45q.6-1.6.25-3.05Q8 7.9 6.9 7.5l.05-.05q.65-1.05.8-2.15L7.9 5l.15-.95-.45-.6-.1-.05-.55-1.25L8.4 1.5q2.2 3 2 7.1-.2 3.35-1 5.85M2.9 11.7q-1-1-1.05-2.3l1.45-.05q-.5 1.05-.4 2.35" fill="#e2cef2"/><path d="m1.85 9.4.1-.95.3-1.1Q2.5 8.85 3.3 9.3v.05l-1.45.05m1.75-.7Q2.85 7.45 3 6.1q1.2 0 .4-.95 1.3-1.85 3.55-3L7.5 3.4l-.75.05q-.4.2-.65.65t-.15.95q.1.45.5.65.35.2.8 0l.5-.4q-.15 1.1-.8 2.15l-.05.05-1.55-.15Q4.25 7.8 3.8 8.4l-.2.3" fill="#fff"/><path d="m7.5 3.4.1.05.45.6L7.9 5l-.15.3-.5.4q-.45.2-.8 0-.4-.2-.5-.65-.1-.5.15-.95.25-.45.65-.65l.75-.05" fill="#7f1c1c"/><path d="M18.7 6.75q1.9 4.55-.3 7.45l-9 .25q.8-2.5 1-5.85.2-4.1-2-7.1l.2-.1q5.05-.45 10.1 5.35" fill="#f3e5ff"/></g><g id="an" fill-rule="evenodd"><path d="M7.75 2.55q-1.55.6-3.05 1.7l-1.4 1.5Q.75 8.9.1 12.95-.25 10.4.5 7.7q2.2-4.05 5.85-6.35 6-2.8 10.75.15 3.55 3 1.15 9.3-4 5.15-10.05 7H8l-2.3-.15v-.05q2.95-.9 6.3-3.15l.8-.55q2.95-2.2 4.2-5.55l.25-.8q.2-1.2 0-2.15-.65 1.05-1.85.6 1.15.05 1.6-.9l.15-.3q-.3-.9-.95-1.55l-.95-.1-.1-.65q-1-.55-2.4-.7-2.55-.25-5 .75" fill="#cb6ead"/><path d="M17 8.35q-1.25 3.35-4.2 5.55-1.3-.3-2.55-1.35-1.4-1.6-1.35-4.3Q10 5.4 12.5 5.3l1.45.15q2.5 1.15 3.05 2.9" fill="#ffc4ed"/><path d="m12.8 13.9-.8.55Q8.65 16.7 5.7 17.6v.05q-3.2-.45-5.05-2.6l-.5-2-.05-.1q.65-4.05 3.2-7.2Q6.65 4.3 9 4.2l.1.1.85.25.75-.15h.1q1 .25 1.7.9-2.5.1-3.6 2.95-.05 2.7 1.35 4.3 1.25 1.05 2.55 1.35" fill="#fff"/><path d="m9 4.2-.25-.45.15-.35.2-.25q.4-.25.85-.25l.85.25.15.15.2.45-.35.55-.1.1-.75.15-.85-.25-.1-.1" fill="#7f1c1c"/><path d="m3.3 5.75 1.4-1.5q1.5-1.1 3.05-1.7l.7.9.45-.05-.15.35.25.45q-2.35.1-5.7 1.55M17 5.1q-.45.95-1.6.9 1.2.45 1.85-.6.2.95 0 2.15l-.25.8q-.55-1.75-3.05-2.9L12.5 5.3q-.7-.65-1.7-.9v-.1l.35-.55-.2-.45q3.55.05 6.05 1.8" fill="#e2cef2"/><path d="M7.75 2.55q2.45-1 5-.75 1.4.15 2.4.7l.1.65.95.1q.65.65.95 1.55l-.15.3q-2.5-1.75-6.05-1.8l-.15-.15-.85-.25q-.45 0-.85.25l-.2.25-.45.05-.7-.9" fill="#f3e5ff"/></g><g id="j" transform="translate(4.15 2)"><use ffdec:characterId="19" height="50.1" transform="translate(23.65 38.55)" width="55.6" xlink:href="#B"/><use ffdec:characterId="26" height="74.7" transform="translate(-4.15 -2)" width="114.55" xlink:href="#C"/><use ffdec:characterId="28" height="18.1" transform="translate(27.75 56.9)" width="45.05" xlink:href="#D"/><use ffdec:characterId="29" height="68.5" transform="translate(16.95 12)" width="72.8" xlink:href="#E"/></g><g id="B" fill-rule="evenodd"><path d="M24.15 55.45q.25-1 .65-1.95 2.95-5.1 6.85-8.45 5.4-4.6 12.6-5.9h.15l1.1-.2q5-.75 10.05 0 9.95 1.5 19.75 9 1.25 1.85 2.1 3.8 2.45 10-.1 17.9l-4.45-3.9-.05-.05-.25-.25h.2q-6.75-4.2-18.5-5.25-5.05.55-9.85 1.85-3.55.95-6.8 2.35l-2.75 1.5-2.75 2q-.85.95-.65 2.4l.15 1.45v.05l.05-.05v.05l.5 1.9.15 1.65-.05.4v.15l.05.2v.05l-.65.2q-.65.2-1.25.65.5-6.95-3.25-10.1-3.85-4.45-3-11.45m19.05 20.1q-.7-.15-1.15-.6-.3-.5.7-.8 1.35-.4 1.45.3l-1 1.1" fill="#e6a771" transform="translate(-23.65 -38.55)"/><path d="m31.65 71.75-.05.05v-.05l-.15-1.45q-.2-1.45.65-2.4l2.75-2 2.75-1.5q3.25-1.4 6.8-2.35 4.8-1.3 9.85-1.85 11.75 1.05 18.5 5.25h-.2l-.45-.05q-.35.15-.75.75l.6.4-1.15.05-.4.9v.05l.05.2v.1l.4.45-.4-.15v-.3l-.2-.05-.55.1q-4.75-1.5-15.05-1.75h-.05l-2.25-.3-8.4.45-7.45 3.35q-.05 0-4.75 2.1h-.1M54.2 60.5v.05l.05-.05h-.05" fill="#ebceb0" transform="translate(-23.65 -38.55)"/><path d="m32.3 75.35-.15-1.65-.5-1.9v-.05h.1Q33 71.7 37 70.35l.75-.25.6-.15q-1.2.6-1.15.65h.05q-4 2.3-4.85 2.9l-.1 1.85" fill="#ecddcd" transform="translate(-23.65 -38.55)"/><path d="M31.75 71.75q4.7-2.1 4.75-2.1l7.45-3.35 8.4-.45 2.25.3h.05l.2.9.1.55.1.95q-4.75-1.5-10.65-.6l-1.4.2q-2.9.9-5.75 2.45h-.05q-.05-.05 1.15-.65l-.6.15-.75.25q-4 1.35-5.25 1.4" fill="#ebd7c3" transform="translate(-23.65 -38.55)"/><path d="M32.3 76.15v-.05l-.05-.2v-.15l.05-.4.1-1.85q.85-.6 4.85-2.9 2.85-1.55 5.75-2.45l1.4-.2q5.9-.9 10.65.6l-.1-.95-.1-.55-.2-.9q10.3.25 15.05 1.75l.55-.1-.15.25q-.65 1-1.7 1.75l-.1.05-.05.05h.05l-.05.05h-.05l-.3.55.25-.55q-.65.85-.5 1.05l.45.05.35-.05v1.05l-2.1.05q-5 .9-7.4 4.2-1.45 2.3-1.45 5.05l.1 1.1.3 1.8.1.25-1 .4q-7.9 2.45-14.5 1.85l-2.95-.8h-.1l.55-1.7q.25-1.15 0-2.55-.9-3.7-4.05-5.2-2-.75-3.65-.35m1.5 3.6-.55.15q-.4 0-.7-.3-.3-.25-.3-.65t.3-.65q.1-.15.3-.2l.4-.1q.45 0 .75.3l.3.65-.3.65-.2.15m1.4 1.5q0-.2.15-.35l.35-.1.35.1.15.35-.15.35-.3.15h-.05l-.35-.15q-.15-.1-.15-.35m26.6-8.95.15-.05h-.1l-.05.05m6.1 2.15.35.25q.4.4.4.95l-.1.5-.3.45q-.45.4-1.05.4l-.7-.2-.3-.2q-.4-.4-.4-.95 0-.55.4-.95.45-.4 1-.4l.7.15m-24.7 1.1 1-1.1q-.1-.7-1.45-.3-1 .3-.7.8.45.45 1.15.6m19.35 2.4.15-.4q.2-.15.45-.15l.45.15.15.4-.15.4-.45.2q-.25 0-.45-.2l-.15-.4" fill="#fff" transform="translate(-23.65 -38.55)"/><path d="M24.15 55.45q-.85 7 3 11.45Q30.9 70.05 30.4 77v.35q.15 1.75 1.25 3.3 2.15 3.05 7.8 5.3h.1l2.95.8q8.15 1.7 16.15-.85l2.55-.9q3.6-1.7 6.45-3.65 4.2-2.9 6.8-6.35l2.2-3.6.65-1.75q2.55-7.9.1-17.9 3.4 8.05.5 18.35l-.1.35v.05q-2.8 6.45-8.65 10.85l-1.55 1.1q-10.15 6-18 6.2-8-.45-13-2.55-3.15-1.7-4.95-3.7-2.35-2.7-2.3-5.9.35-5.7-2.35-8.45-4.6-6-2.85-12.6" fill="#be8344" transform="translate(-23.65 -38.55)"/><path d="M30.4 77q.6-.45 1.25-.65l.65-.2.55 1.95q-.2.05-.3.2-.3.25-.3.65t.3.65q.3.3.7.3l.55-.15 1.4 1.5q0 .25.15.35l.35.15h.05q1.7 1.4 4.25 2.5l-.55 1.7q-5.65-2.25-7.8-5.3-1.1-1.55-1.25-3.3V77" fill="url(#F)" transform="translate(-23.65 -38.55)"/><path d="m32.85 78.1-.55-1.95q1.65-.4 3.65.35Q39.1 78 40 81.7q.25 1.4 0 2.55-2.55-1.1-4.25-2.5l.3-.15.15-.35-.15-.35-.35-.1-.35.1q-.15.15-.15.35l-1.4-1.5.2-.15.3-.65-.3-.65q-.3-.3-.75-.3l-.4.1" fill="url(#G)" transform="translate(-23.65 -38.55)"/><path d="m70.25 67.8.2.05v.3q.05 2.15-.35 4.05l-1.65-.15V71l-.35.05-.45-.05q-.15-.2.5-1.05l-.25.55.3-.55h.05l.05-.05.1-.1q1.05-.75 1.7-1.75l.15-.25" fill="#ebd6c0" transform="translate(-23.65 -38.55)"/><path d="m72.55 65.45.25.25.05.05 4.45 3.9-.65 1.75-2.2 3.6q-1.8-2.05-4.25-2.75l-.1-.05q.4-1.9.35-4.05l.4.15-.4-.45v-.1l-.05-.2v-.05l.4-.9 1.15-.05-.6-.4q.4-.6.75-.75l.45.05" fill="#e9c3a1" transform="translate(-23.65 -38.55)"/><path d="M68.3 69.9h-.05l.05-.05.1-.05-.1.1m-6.5 2.4.05-.05h.1l-.15.05" fill="#371717" transform="translate(-23.65 -38.55)"/><path d="m70.1 72.2.1.05q2.45.7 4.25 2.75-2.6 3.45-6.8 6.35Q64.8 83.3 61.2 85l-2.55.9-.65-1.4 5.7-3.15q2.25-1.6 3.75-3.4l1.15-1.75q1.05-1.85 1.5-4" fill="url(#H)" transform="translate(-23.65 -38.55)"/><path d="m68.45 72.05 1.65.15q-.45 2.15-1.5 4l-.05-.05.1-.5q0-.55-.4-.95l-.35-.25.55-2.4" fill="url(#I)" transform="translate(-23.65 -38.55)"/><path d="m57.6 82.45-.1-1.1q0-2.75 1.45-5.05 2.4-3.3 7.4-4.2l2.1-.05-.55 2.4-.7-.15q-.55 0-1 .4-.4.4-.4.95 0 .55.4.95l.3.2-1.85 1.7-4.55 2.85-2.5 1.1m4.95-4.5.15.4q.2.2.45.2l.45-.2.15-.4-.15-.4-.45-.15q-.25 0-.45.15l-.15.4" fill="url(#J)" transform="translate(-23.65 -38.55)"/><path d="m58 84.5-.1-.25-.3-1.8 2.5-1.1 4.55-2.85 1.85-1.7.7.2q.6 0 1.05-.4l.3-.45.05.05-1.15 1.75q-1.5 1.8-3.75 3.4L58 84.5" fill="url(#K)" transform="translate(-23.65 -38.55)"/><path d="M42.5 86.75q6.6.6 14.5-1.85l1-.4.65 1.4q-8 2.55-16.15.85" fill="#f7d9b0" transform="translate(-23.65 -38.55)"/><path d="M37.2 70.6q1.2 2.05 1.45 3.85-2.05-1.65-4.15-2.3l-2.9-.4-1 .05q.05-.55.55-.85-2.25-1.85-2.3-4.5.95 1.9 2 2.35 2.1-1.5 5 .75-.4-.85-2.8-2.25 1.75.6 3.4 2.35h.05v.05l.4.45.3.45m17.75 8.8.3-1.1q-2.9-1.05-7.05-1.05l-3.8.65-3.1 1.15q-.1 1.35.55 1.9 1.05-1.15 2.55-1.85 1.5-.65 3.4-.8 4.7-.3 7.15 1.1m.5 3q-.1-.6-.55-1.05-1.3-1.35-5.9-1.2-2.5.25-4 1.2-1.45.9-1.95 2.5-2.3-2.5-2-5 1.5-1.05 3.35-1.65 1.85-.65 4-.8 5.1-.15 7.55 1.75.9 1.1.5 2.55l-.35.65-.65 1.05" fill="#371717" transform="translate(-23.65 -38.55)"/><path d="M54.95 79.4Q52.5 78 47.8 78.3q-1.9.15-3.4.8-1.5.7-2.55 1.85-.65-.55-.55-1.9l3.1-1.15 3.8-.65q4.15 0 7.05 1.05l-.3 1.1" fill="#fff" transform="translate(-23.65 -38.55)"/><path d="M43.05 83.85q.5-1.6 1.95-2.5 1.5-.95 4-1.2 4.6-.15 5.9 1.2.45.45.55 1.05-1.2 1.65-2.8 2.9-4.25 2.4-7.85.15l-1.75-1.6m.9-.75-.05.75q2.65 2.1 5.05 2.2 2.85-.45 5.65-4.2l-1.75-1h-.05q-2.25-.7-3.85.5l-.25.2q-.75.7-.75 1.4-.55.5-.95.4l.15-.2q.4-1.3 1.05-1.8l.1-.1-2.1.1q-1.4.4-2.25 1.75" fill="#7f1c1c" transform="translate(-23.65 -38.55)"/><path d="M52.8 80.85h.05l1.75 1q-2.8 3.75-5.65 4.2-2.4-.1-5.05-2.2l.05-.75 1.4.9q1 .2 1.65-.65.4.1.95-.4l.1.5q.6.65 1.9.5 2.15-1 2.7-2.6l.15-.5" fill="#972222" transform="translate(-23.65 -38.55)"/><path d="M43.95 83.1q.85-1.35 2.25-1.75l2.1-.1-.1.1q-.65.5-1.05 1.8l-.15.2q-.65.85-1.65.65l-1.4-.9m4-.15q0-.7.75-1.4l.25-.2q1.6-1.2 3.85-.5l-.15.5q-.55 1.6-2.7 2.6-1.3.15-1.9-.5l-.1-.5" fill="#eb3535" transform="translate(-23.65 -38.55)"/></g><g id="C" transform="translate(4.15 2)"><use ffdec:characterId="21" height="38.55" transform="translate(68 16.65)" width="34" xlink:href="#L"/><use ffdec:characterId="23" height="27.15" transform="translate(0 35.6)" width="36.65" xlink:href="#M"/><use ffdec:characterId="25" height="39.9" transform="translate(17.3)" width="49.65" xlink:href="#N"/></g><g id="ao" fill-rule="evenodd"><path d="M25.05 23.7q2-2.5 3.75-5.55 5.5-11.5 3.1-16.85l-2.5.1q-3.5.3-6.85 1.2-5.4 1.45-10.5 4.55Q5.8 11.5.4 19.4q4.25-8 11.5-13.7Q21.25-.45 32.5.05q4 7.6-2.65 19.6-3.15 5.5-6.75 7.8 2.95 1.45 1.75 3.65-3.8 5.4-10.6 7.45L16 37.3q5.75-4.15 7.35-6.55l.55-1.2q-.1-.55-2.15-1.35h-.05l-1.95.7q2.85-2.15 5.3-5.2" fill="#6290a5"/><path d="m29.4 1.4 2.5-.1q2.4 5.35-3.1 16.85-1.75 3.05-3.75 5.55l-2.8-.95-.05-.1.1-.2q3-5.95 4-10.5l1.8-1.2q1.55-3.9 1.3-9.35m-2.7 7.9h-.1q-3.65.1-9 6.75l-.15.3q-.65-2.55.5-5.8 4.95-2.7 8.5-2.5l.25 1.25" fill="#bbc0eb"/><path d="M23.35 30.75q-1.6 2.4-7.35 6.55 2.2-7.1 7.35-6.55m-.8-28.15q3.35-.9 6.85-1.2.25 5.45-1.3 9.35l-1.8 1.2.4-2.65-.25-1.25q-3.55-.2-8.5 2.5 1.2-3.55 4.6-7.95" fill="#fff"/><path d="M26.3 11.95q-1 4.55-4 10.5l-.1.2-1.75-1.9-.6-.65q1-2.95 2.55-5.45-.15 2.9-1.95 6.1 3.25-4.4 2.5-7 1.6-2.4 3.7-4.4l.05-.05-.4 2.65" fill="#ffcae6"/><path d="m26.6 9.3.05.05q-2.1 2-3.7 4.4l-.7-1.25.15 2.15q-1.55 2.5-2.55 5.45l.6.65 1.75 1.9v.05q-3 5.4-7.25 8.05-1.85-.45-2.85-3.7l1.55-3.8q3-6.15 8.6-10.8h.05q1.95-1.7 4.3-3.15m-6.15 11.45h-.05.05" fill="#ffa4d6"/><path d="M25.05 23.7q-2.45 3.05-5.3 5.2l1.95-.7h.05q2.05.8 2.15 1.35l-.55 1.2Q18.2 30.2 16 37.3l-1.75 1.25h-.05Q-.6 33.4.05 20.1l.35-.7q5.4-7.9 11.65-12.25 5.1-3.1 10.5-4.55-3.4 4.4-4.6 7.95-1.15 3.25-.5 5.8l-.05.05q-2.2 3.45-3.75 6.85l-1.55 3.8q1 3.25 2.85 3.7 4.25-2.65 7.25-8.05l.05.05 2.8.95" fill="#9ea6e3"/><path d="m17.45 16.35.15-.3q5.35-6.65 9-6.75-2.35 1.45-4.3 3.15h-.05q-5.6 4.65-8.6 10.8 1.55-3.4 3.75-6.85l.05-.05m4.95-1.7-.15-2.15.7 1.25q.75 2.6-2.5 7 1.8-3.2 1.95-6.1" fill="#367cb6"/></g><g id="ap" fill-rule="evenodd"><path d="m28.35 26.9-10.25-.45q-5.7-2.35-4.65-6.2Q4.25 15.1 0 2.3q17.95-6.35 35.5 4.9v.1Q20.2.25 6.55 2l-4.95.95Q4.3 9.7 8.95 15l2.85 3q1.9 1.8 4.05 3.35l-1.55-.65q-.8 2.6 5.05 5 3.5 1 9 1.2" fill="#6290a5"/><path d="M35.5 7.3h.05q4.1 12.5-7.05 19.6h-.15q-5.5-.2-9-1.2-5.85-2.4-5.05-5l1.55.65Q13.7 19.8 11.8 18q2.05-.9 2.9-2.35-2.05-1.4-3.35-2.8l-.7-.9 1.9 1.6L15.4 15q3.8 1.7 7 1.4.75-1.45.4-3l-3.35-3.35q-2.6-2.15-5.55-3.2.05-1.2-1.85-2.45Q10.2 3.25 6.55 2 20.2.25 35.5 7.3" fill="#9ea6e3"/><path d="M6.55 2q3.65 1.25 5.5 2.4-4.9.45-4.65 2.1v.05l.1.15.65 1.9q.8 1.65 2.25 3.1l.25.25.7.9Q10.9 14.8 8.95 15 4.3 9.7 1.6 2.95L6.55 2" fill="#fff"/><path d="m19.45 10.05 3.35 3.35q.35 1.55-.4 3-3.2.3-7-1.4l.35-1.55v-1.8l-1.5-1.2-3.1-1.3V9.1q-.3-1 .45-2.1 3.3.65 7.85 3.05m-9.05-.9L8.15 8.6 7.5 6.7v-.15l3.45.35q-1 1.25-.55 2.25" fill="#ffa4d6"/><path d="m15.4 15-2.85-1.45-1.9-1.6-.25-.25q-1.45-1.45-2.25-3.1l2.25.55q.45.85 1.95 1.5-.9-.75-1.2-1.5l3.1 1.3 1.5 1.2v1.8L15.4 15" fill="#ffcae6"/><path d="M13.9 6.85q2.95 1.05 5.55 3.2Q14.9 7.65 11.6 7q-.75 1.1-.45 2.1v.05q.3.75 1.2 1.5-1.5-.65-1.95-1.5-.45-1 .55-2.25L7.5 6.55h-.05V6.5q3-.7 6.45.35" fill="#337fb8"/><path d="M12.05 4.4q1.9 1.25 1.85 2.45-3.45-1.05-6.45-.35H7.4q-.25-1.65 4.65-2.1m-.7 8.45q1.3 1.4 3.35 2.8-.85 1.45-2.9 2.35l-2.85-3q1.95-.2 2.4-2.15" fill="#bbc0eb"/></g><g id="aq" fill-rule="evenodd"><path d="m15.1 32.35-.05-.1q-.2-1.65-10.85-8.5-4-2.2-4-3.25Q-.75 14 3.1 9.7L9.25 13 4.7 8.1Q13.9.65 25.7.25h.1l.2 3.6L28.15 0Q34.8-.05 42.1 2.8q5.05 2.4 7.05 6.05l.1.25q1 2.7-.6 4.65-7.6 7.65-9.9 18.8h-.05l-.45-.35q.75-3.25 1.6-5.95l.15-.35q2.9-9.1 7.15-12.75 1.85-2.25.3-4.95l-.25-.35-.45-.65-.6-.65Q41 3.65 35.65 2.4l-2.4-.45-5-.45-1.65 2.7-.9 5.2-.8-7.65q-4.4.55-8.2 1.75l-2.2.75-2.15.9Q9.6 6.45 7.15 8.1l-.5.4q3.65 3.8 6 7.65-4.1-3.25-9-4.8-1.1 1.05-1.75 2.3-1.4 2.75-.7 6.45l.1.7q4.85 2.1 8.35 4.7 3.15 2.3 5.25 5.05l.85 1.2-.65.6" fill="#2b538b"/><path d="m15.1 32.35.65-.6q4.4-3.95 10.1-4.6 6.1.1 12.4 5.05l.45.35.05.15v.05l.5 1.8q-6-5.8-12-6.55h-.35l-.75-.05-.7.05-.9.1q-1.5.2-3 .8-3.45 1.45-6.5 5.1v-1.6l.05-.05" fill="#7d481c"/><path d="m28.1 36.05-1.8-.2-.15-7.9.75.05h.35l.55.25.3 7.8m-2.75-.25h-1q-.25-3.75.2-7.7l.9-.1q-.5 4.85-.1 7.8" fill="#e5994d"/><path d="m26.3 35.85-.95-.05q-.4-2.95.1-7.8l.7-.05.15 7.9m-1.95-.05-2.5.2q-.95-3.55-.3-7.1 1.5-.6 3-.8-.45 3.95-.2 7.7" fill="#fffc79"/><path d="M39.5 37.25q-.05 1.55-.75 2.65-5.7-3.05-10.65-3.85l-.3-7.8q7 3 11.7 9" fill="#b2662c"/><path d="M21.85 36q-3.7.6-6.9 2.8l.1-4.8q3.05-3.65 6.5-5.1-.65 3.55.3 7.1" fill="#b86728"/><path d="m39.25 34.55.25 2.7q-4.7-6-11.7-9l-.55-.25q6 .75 12 6.55" fill="#f6d2ff"/><path d="m15.75 31.75-.85-1.2.75-1q2.4-2.9 6-4.95.6-2.25-.3-6.2 1.45 1.6 2.3 4.35.85-5.45-.3-12.3Q26.6 15 27.8 21.4l1.5 1.35 6.9-.25q.8-8.35 10.55-15.3l.45.65.25.35q.6 2.15-1.35 4.35-5.3 5.3-6.1 13.35l-.15.35q-.85 2.7-1.6 5.95-6.3-4.95-12.4-5.05-5.7.65-10.1 4.6" fill="#3644de"/><path d="M47.45 8.2q1.55 2.7-.3 4.95Q42.9 16.8 40 25.9q.8-8.05 6.1-13.35 1.95-2.2 1.35-4.35" fill="#81d9ff"/><path d="M1.2 20.1q-.7-3.7.7-6.45 4.8 3.55 9.15 9.7l-.6.9Q6.2 20.95 1.2 20.1m5.95-12q2.45-1.65 5.2-2.95 2.55 3.2 4.25 7.7-.3-5.25-2.1-8.6l2.2-.75q3.7 8.05 2.85 14.75l-3.75 1.1Q13.9 12.6 7.15 8.1m26.1-6.15 2.4.45 1.8 1.3q-2.15 2.8-2.85 6.45 2.5-3.35 5.55-5.25L41.9 7q-4.9 4.2-7.8 9.95h-4.3q-.25-7.5 3.45-15" fill="#81d8ff"/><path d="M9.65 25.5q-3.5-2.6-8.35-4.7l-.1-.7q5 .85 9.25 4.15l-.8 1.25" fill="#4dc7ff"/><path d="M14.9 30.55q-2.1-2.75-5.25-5.05l.8-1.25q2.75 2.15 5.2 5.3l-.75 1" fill="#365dde"/><path d="M1.9 13.65q.65-1.25 1.75-2.3 4.9 1.55 9 4.8-2.35-3.85-6-7.65l.5-.4q6.75 4.5 8.65 11.25l3.75-1.1q.85-6.7-2.85-14.75 3.8-1.2 8.2-1.75l.8 7.65.9-5.2 1.65-2.7 5 .45q-3.7 7.5-3.45 15h4.3Q37 11.2 41.9 7l-1.75-2.1q-3.05 1.9-5.55 5.25.7-3.65 2.85-6.45l-1.8-1.3Q41 3.65 46.15 6.55l.6.65Q37 14.15 36.2 22.5l-6.9.25-1.5-1.35q-1.2-6.4-4.45-10.95 1.15 6.85.3 12.3-.85-2.75-2.3-4.35.9 3.95.3 6.2-3.6 2.05-6 4.95-2.45-3.15-5.2-5.3l.6-.9Q6.7 17.2 1.9 13.65m10.45-8.5 2.15-.9q1.8 3.35 2.1 8.6-1.7-4.5-4.25-7.7" fill="#5e8ee3"/></g><g id="ar" fill-rule="evenodd"><path d="m34.1 15.25-.05.05-4.3-.35-1.8.9-.45-3.3-.1-.4-.2-1.45v-.25q-.2-4.2 2.55-7.4 3.85-3.8 8-2.9Q41 .7 42.45 2.9l.1.2 2.5.6q-1.3 1.15-1.65 1.75l.1 1.3.9.5-.95.3v.05l-.2 1.15v.05l.95.6-1.15.1-.4.9q-.7 1.4-2 2.3l-.1.05q1.6-2 1.65-5.25l-.1-.85q-.55-2.45-3-3.8 1.05 1.45 1.45 3v.05l.1.5-.4-.85-.15-.25-.6-.9-1.45-1.5-.7-.5q-2.9-.75-5.4.8l-.1.1q-2.1 1.6-2.9 4.2l-.25 2.55.1 1.45q.85 2.15 1.5 2.9l1 .3 2.8.55" fill="#371717"/><path d="m34.1 15.25-2.8-.55q-.7-.95-.55-1.65l-.2-.15-.3-.3v-.05h-.05q-.5-.65-.5-1.45 0-1.1.85-1.85.85-.8 2.05-.8 1.2 0 2.05.75.55.5.75 1.05l.1.75v.2q-.1.9-.85 1.65-.85.8-2.05.8l-.85-.15h-.05l.05.05q2.6.9 5.45-.5l2.15-1.75.2-.2q.9-1.25 1.15-3.05l-.05-1.6V6.4l-.1-.5q.7.15 1.55.75l.1.85q-.05 3.25-1.65 5.25l-.1.1h-.05q-2.6 2.25-6.3 2.4m3.75-8.6 1.75.15v.45l-1.75.05v-.65m0 1.35 1.75.5q-.2 1.15-.8 2.1l-1.4-.85.2-.45.25-1.3" fill="#fff"/><path d="m28.7 10.05.25-2.55q.8-2.6 2.9-4.2l.1-.1q2.5-1.55 5.4-.8l.7.5q-2.05-.4-3.9.8 3.45 1.75 1.25 6.55-.2-.55-.75-1.05-.85-.75-2.05-.75-1.2 0-2.05.8-.85.75-.85 1.85 0 .8.5 1.45v-.05q-.85-.9-1.45-2.45h-.05" fill="url(#O)"/><path d="m38.05 2.9 1.45 1.5-2.2.1q.45 1 .55 2.15V8l-.25 1.3-.2.45q-.75 1.55-1.9 1.45V11l-.1-.75q2.2-4.8-1.25-6.55 1.85-1.2 3.9-.8" fill="url(#P)"/><path d="m39.5 4.4.6.9.15.25q.7 2.55-.7 5.55l-.2.2-2.15 1.75q-2.85 1.4-5.45.5v-.05l.85.15q1.2 0 2.05-.8.75-.75.85-1.65 1.15.1 1.9-1.45l1.4.85q.6-.95.8-2.1L37.85 8v-.7l1.75-.05V6.8l-1.75-.15q-.1-1.15-.55-2.15l2.2-.1" fill="url(#Q)"/><path d="M40.55 5.9v-.05q-.4-1.55-1.45-3 2.45 1.35 3 3.8-.85-.6-1.55-.75" fill="#dfddff"/><path d="m31.3 14.7-1-.3q-.65-.75-1.5-2.9l-.1-1.45h.05q.6 1.55 1.45 2.45v.05l.05.05.3.3.2.15q-.15.7.55 1.65" fill="#dbd8ff"/><path d="m40.25 5.55.4.85v.05l.05 1.6q-.25 1.8-1.15 3.05 1.4-3 .7-5.55" fill="#a868a2"/><path d="M24.25 8.5Q22.7 7.4 22.8 5.6q1.5-1.65 3.65-2v.05Q24.75 4.7 24.3 5.6q-.3.9-.05 2.9" fill="#e6a771"/><path d="M26.45 3.65Q24.7 5.2 24.25 8.5q-.25-2 .05-2.9.45-.9 2.15-1.95" fill="#3b1c1a"/><path d="M9.35 17.7h.05q1.15-.5 1.9-1.5l1.2.3q-.55-1.25-.95-3.1l-.1-.3-.5-1.35-.05-.25Q9.5 7.75 7 5.75q-3.2-2.25-4.8-.3Q.8 6.9.95 9.2v.2L0 10.65q1 .65 1.4 1.15l.45 1.1-.25.7.55.05.55 1-.25.8.6-.25.5.7 1.8 1.45h.05Q3.95 16 2.7 13.15l-.25-.75q-.65-2.35.1-4.2 0 1.6.4 3.1l.1.45-.1-.8-.05-.25v-1q0-.9.15-1.75l.15-.65q1.05-1.45 2.85-.8l.05.05q1.55.8 2.9 2.85l1.05 2.2.45 1.3.35 2.95-.3.6-1.2 1.25" fill="#371717"/><path d="m9.35 17.7 1.2-1.25q-.1-1.1-.4-1.65v-.2l.05-.3.05-.15v.05l-.35-1.4q-.4-.95-1.05-1.4l-1.2-.1q-.6.35-.75 1.25l.05 1.15.2.65.1.2q.35.8.95 1.2l1.3.1.35-.3q-.9 1.55-2.75 1.1-.9-.2-1.65-.9l-.15-.15q-.9-.85-1.7-2.35l-.5-1.45-.05-.05-.1-.45q-.3.35-.5 1.1l.25.75q1.25 2.85 2.7 4.2l.1.05q2.05 1.25 3.85.3m.5-2.15.05-.05v-.05.05l-.05.05M4.5 11.2l-.8.65.2.4.85-.5-.25-.55m.5 1.2-.65.95q.5.95 1.1 1.55l.35-1.05-.25-.4L5 12.4" fill="#fff"/><path d="M10.05 11.6 9 9.4Q7.65 7.35 6.1 6.55l-.05-.05q-1.8-.65-2.85.8l-.15.65q.85-.95 2.1-.4-1 2.55 1.8 6.15l-.05-1.15q.15-.9.75-1.25l1.2.1q.65.45 1.05 1.4l.35 1.4v-.05l-.2-2.55" fill="url(#R)"/><path d="M3.05 7.95Q2.9 8.8 2.9 9.7l1.05-.55.55 2.05.25.55.25.65.55 1.05.25.4q.95 1.15 1.45.7l-.1-.2-.2-.65q-2.8-3.6-1.8-6.15-1.25-.55-2.1.4" fill="url(#S)"/><path d="M2.9 9.7v1l.05.25q.6 2.4 2.35 4.65l.15.15q.75.7 1.65.9 1.85.45 2.75-1.1l-.35.3-1.3-.1q-.6-.4-.95-1.2-.5.45-1.45-.7l-.35 1.05q-.6-.6-1.1-1.55L5 12.4l-.25-.65-.85.5-.2-.4.8-.65-.55-2.05-1.05.55" fill="url(#T)"/><path d="M2.95 11.3q-.4-1.5-.4-3.1-.75 1.85-.1 4.2.2-.75.5-1.1" fill="#dfddff"/><path d="m10.55 16.45.3-.6-.35-2.95-.45-1.3.2 2.55v.05l-.05.1-.05.3v.2q.3.55.4 1.65" fill="#dbd8ff"/><path d="m2.95 10.95.1.8.05.05.5 1.45q.8 1.5 1.7 2.35-1.75-2.25-2.35-4.65" fill="#a868a2"/><path d="M11.6 9q.35-1.45-.35-3Q9.9 5 8.8 5.3q1.2.45 1.7 1.15L11.6 9" fill="#e6a771"/><path d="M8.8 5.3q1.4.9 2.8 3.7l-1.1-2.55q-.5-.7-1.7-1.15" fill="#3b1c1a"/></g><g id="E" fill-rule="evenodd"><path d="M39.7 31.4h.05q.45-.35 1.05-.55-3.7-3.15-4.8-7.8-.5-4.55 1.5-8.2-1.5.5-2.65 1.45-2.2 1.8-2.95 5.45l-.05.15q-.25 1.05-.35 2.2.3 5.75 3.7 8.25l1.55.9q-7.8 1.15-12.65 6.85l-1.25 1.65-.05.05q-1.85 2.25-3 4.75-2.25 4.65-1.95 10.15.2 3.55 1.4 7.45v.2q.05 3.2.85 5.8l.1.25.75 1.95q2.65 5.3 9.35 7.55l-1.05.6q-2.9-.65-6.35-3.6l-.05-.05q-4.9-5.2-4.1-12.2-3.7-9.4.15-18.8l.05-.05q4.7-10.35 15.25-13.4-3.5-2.85-3.6-8.3 1.15-9.7 7.95-10-2.5 3.6-1.5 8.7 1.45 5.5 5.25 7.3h.1q9.95-1.4 24.45 1.2l2 .65Q83.7 36.4 87.9 46.65q4.2 9.45-1.2 20.4-7.25 8.6-15.6 4.95 3.3-6.05.2-12.2-6.1-3.2-14-3.3-2.6-4.7-5.7-7.9 2.35 4.8 1.8 9.15-6.5.75-10.5 2.55-2.3-1.9-3.7-4.6l.8-.55 1.35 2.4 1.4 2.1q5.5-2 10.05-2.2Q52.7 50 48.9 46q7.25 4.3 8.85 10.1 9.4-.75 16.8 4.9 2.6-5.05 2-12.7 1.95 7.6-1.75 13.75l-2.7-1.8.8 1.55q2.3 5.15-.45 10.3l1.1.1h.15q6.9.35 11.65-5.6 6.3-10.7.9-20.8l-.05-.1q-3.3-6-10.45-9.9-4.1-2.25-9.5-3.75-10.7-2.2-23.55-1.3-2.3.45-4 1.6l1-.95" fill="#2b538b" transform="translate(-16.95 -12)"/><path d="M34.85 16.3q1.15-.95 2.65-1.45-2 3.65-1.5 8.2 1.1 4.65 4.8 7.8-.6.2-1.05.55h-.05q-3.45-.65-4.8-3.1l-.05-.1-.2-.35-.05-.1-.1-.2q-1.55-5.35.35-11.25" fill="#5e82e3" transform="translate(-16.95 -12)"/><path d="M75.75 35.8q7.15 3.9 10.45 9.9l.05.1q5.4 10.1-.9 20.8-4.75 5.95-11.65 5.6 7-1.4 9.95-4.7-.8-2.6 2.1-3.35 3.6-8.05 1.2-14.7v-.1q-2.9-8.25-11.2-13.55m-34.4 21.75L40 55.15q2.55-1.8 5.1-4.35 2.15-3.15 2.55-6.25 2.2 4.6 2.55 10.5-3.45.4-8.85 2.5m-9.5-35.65.05-.15q.75-3.65 2.95-5.45-1.9 5.9-.35 11.25-1.9-2.65-2.65-5.65M44 34.7q4.9-.95 9.75.8l.25.1.35.1q2.8 1.15 5.5 3.15 8.1 6.8 9.3 16.75-4.2-1.7-9-2.2-5.95-9.6-12.4-10.6v-.1l4.55.05-.7-1.5-4-.1-.8-2.85q-1.35-2.25-2.8-3.6m41.05 28.65-.15.4-.45.15-.4-.15-.2-.4.2-.4q.15-.15.4-.15l.45.15.15.4m-51.6-4.7.4 1.65q-3.9 2.25-7.25 6.35-2.9-2.8-3.85-7.8l6 .85q2.35-.25 4.7-1.05" fill="#81d8ff" transform="translate(-16.95 -12)"/><path d="M17.85 56.7q-.3-5.5 1.95-10.15-1 5.8-.5 10.95l-1.45-.8M35.2 32.35q-3.4-2.5-3.7-8.25.1-1.15.35-2.2.75 3 2.65 5.65l.1.2.05.1.2.35.05.1q.45 1.3 1.85 2.85l-1.55 1.2M24.75 39.7q9.65-6 15.25-3.55l3.6.4q-.05-.7-.9-1.5l1.3-.35q1.45 1.35 2.8 3.6l.8 2.85h-.75l.7 1.55h-.9l.05.05.95 1.8q-.4 3.1-2.55 6.25-2.55 2.55-5.1 4.35-2.8-5.6-1.75-11.05 1.6-.45 3.25-.75l.25-.05-1.1-1.85q-8 .7-13.8 3.25-.65-3.9-2.1-5m19.4 1.5-1.7.1 1 1.75 1.8-.2-1.1-1.65M22.3 55.25l.45-2.75q-1.35 2.75-1.55 5.85l-1.05-.45q.25-1.85.65-3.6l1.9-1.85.05.05v-.05l.05-.05q5.7-5.1 13-7.55-3.95 6.25-2.35 13.8-2.35.8-4.7 1.05l-6-.85q-.3-1.7-.45-3.6m5.9 2.9q1 0 1.7-.7.7-.65.7-1.55 0-.95-.7-1.6-.7-.65-1.7-.65-.95 0-1.7.65-.7.65-.7 1.6 0 .9.7 1.55.75.7 1.7.7" fill="#b3e5ff" transform="translate(-16.95 -12)"/><path d="m39.7 31.4-1 .95v.05l-.05.45q2.8-.55 5.35 1.85l-1.3.35q.85.8.9 1.5l-3.6-.4q-5.6-2.45-15.25 3.55l-.05.05-.6.35q4.85-5.7 12.65-6.85l-1.55-.9 1.55-1.2q-1.4-1.55-1.85-2.85 1.35 2.45 4.8 3.1" fill="#84aee3" transform="translate(-16.95 -12)"/><path d="m40 55.15-.8.55q-1.65-3.2-2-7.55-.9 4.4.4 8.55.75 2.5 2.3 4.95-8.4 2.45-11.1 8.25l-.15.3-.8.15h-.1q-3.8.15-5.85-5.85-.55-2.15-.65-4.1l-.05-.15v-1.9q.2-3.1 1.55-5.85l-.45 2.75-.2 3.4q-.25 9.5 6.2 11.1 3-7.15 10.7-8.7-1.3-2-2-4-2.3-6.3 1.1-12.9l.05-.1.1.05Q37.2 49.55 40 55.15" fill="#2b548c" transform="translate(-16.95 -12)"/><path d="M30.3 79.9q-6.7-2.25-9.35-7.55 1.9 1.5 3.95 2 2.55.05 3.6-1.2-.05-2.4-.65-2.8l.8-.15.15-.3q.95 1.95.75 5-.15 3.45.75 5" fill="#366ade" transform="translate(-16.95 -12)"/><path d="m20.95 72.35-.75-1.95-.1-.25q-.55-4.65-.3-8.85h.05q.6 2.2 1.45 3.9-.4-2.15-.05-4.8.1 1.95.65 4.1 2.05 6 5.85 5.85h.1q.6.4.65 2.8-1.05 1.25-3.6 1.2-2.05-.5-3.95-2M37 57.05q.7 2 2 4-7.7 1.55-10.7 8.7-6.45-1.6-6.2-11.1l.65.2q.95 5 3.85 7.8 3.35-4.1 7.25-6.35l-.4-1.65 3.55-1.6" fill="#5e97e3" transform="translate(-16.95 -12)"/><path d="m47.05 42.7.5.05.2.05-.1 1.75-.95-1.8v-.05h.35M35.8 44.85l.1-.05 2.2-.65q-3.4 6.6-1.1 12.9l-3.55 1.6q-1.6-7.55 2.35-13.8m-13.7 13.8.2-3.4q.15 1.9.45 3.6l-.65-.2" fill="#84b7e3" transform="translate(-16.95 -12)"/><path d="M47.75 42.7h-.2l-.7-1.55h.75l.15 1.55M28.2 58.15q-.95 0-1.7-.7-.7-.65-.7-1.55 0-.95.7-1.6.75-.65 1.7-.65 1 0 1.7.65t.7 1.6q0 .9-.7 1.55-.7.7-1.7.7" fill="#dffcff" transform="translate(-16.95 -12)"/><path d="M19.8 46.55q1.15-2.5 3-4.75l.05-.05 1.25-1.65.6-.35.05-.05q1.45 1.1 2.1 5 5.8-2.55 13.8-3.25l1.1 1.85-.25.05q-1.65.3-3.25.75l.1-.45-.2.4-.05.1-2.2.65-.1.05q-7.3 2.45-13 7.55l-.05.05h-.05l-1.9 1.85q-.4 1.75-.65 3.6l-.85-.4q-.5-5.15.5-10.95m27.8-5.4 4 .1.7 1.5-4.55-.05-.15-1.55m-3.45.05 1.1 1.65-1.8.2-1-1.75 1.7-.1" fill="#ecfdff" transform="translate(-16.95 -12)"/><path d="M21.2 58.35v1.9l.05.15q-.35 2.65.05 4.8-.85-1.7-1.45-3.9l-.05-.35q.1-1.55.35-3.05l1.05.45" fill="#85d9ff" transform="translate(-16.95 -12)"/><path d="M20.1 70.15q-.8-2.6-.85-5.8v-.2q-1.2-3.9-1.4-7.45l1.45.8.5 3.45v.35q-.25 4.2.3 8.85" fill="#a4f7ff" transform="translate(-16.95 -12)"/><path d="m19.3 57.5.85.4q-.25 1.5-.35 3.05l-.5-3.45" fill="#e0fcff" transform="translate(-16.95 -12)"/><path d="m54.35 35.7.05-.05-.05.05" fill="#5e7de3" transform="translate(-16.95 -12)"/><path d="M38.7 32.35q1.7-1.15 4-1.6 12.85-.9 23.55 1.3 5.4 1.5 9.5 3.75 8.3 5.3 11.2 13.55v.1q2.4 6.65-1.2 14.7-2.9.75-2.1 3.35-2.95 3.3-9.95 4.7h-.15l-1.1-.1q2.75-5.15.45-10.3 2.05 2.1 2.35 6.4 3.95.55 6.65-3.1 4.35-6 2.1-13.85-4.4-8.05-13.75-11.5-8.75-3.25-15.55-4.1h-.3l-.4-.05-.25-.1q-4.85-1.75-9.75-.8-2.55-2.4-5.35-1.85l.05-.45v-.05m46.35 31-.15-.4-.45-.15q-.25 0-.4.15l-.2.4.2.4.4.15.45-.15.15-.4" fill="url(#U)" transform="translate(-16.95 -12)"/><path d="m72.9 61.8-.8-1.55 2.7 1.8q3.7-6.15 1.75-13.75.6 7.65-2 12.7-7.4-5.65-16.8-4.9-1.6-5.8-8.85-10.1 3.8 4 3.9 11.45-4.55.2-10.05 2.2l-1.4-2.1q5.4-2.1 8.85-2.5-.35-5.9-2.55-10.5l.1-1.75q6.45 1 12.4 10.6 4.8.5 9 2.2-1.2-9.95-9.3-16.75-2.7-2-5.5-3.15l.05-.05h.3q6.8.85 15.55 4.1Q79.6 43.2 84 51.25q2.25 7.85-2.1 13.85-2.7 3.65-6.65 3.1-.3-4.3-2.35-6.4" fill="url(#V)" transform="translate(-16.95 -12)"/><path d="M67.15 24.05h-.05q-3.6.4-7.15 2.05.5 1.65.3 3.15l-.45-.95q-3.4-7.4-8.3-10.05-.85 2.15-1.15 4.15-.8 6.15 4.1 10.7-.8 2.65-.6 5.6.15 2.8 1.7 4.8 1.2 1.6 3.25 2.7 4.95 2.65 13.65.15 7.05-2.35 9.6-7.85 1.1-3.3.35-6.2-.35-1.55-1.3-2.95l-.6-.8q-2.9-3.2-8.8-5h-.05.45l3 .3q-1.45-7.15-4.95-10.65l-.45 1.3q-1.2 4.25.5 9.35v.1l-3.05.1M52.8 33.4q-6.25-7.95-2.25-15.85 4.5.1 9 7.15 3.85-1.9 8.8-2.1Q66.4 15.65 69.7 12q5.75 2.6 6.75 12.1 3.5 1.8 6 5.4 3.55 5.9.05 11.6-5.05 6.65-14.4 7.8-8.45 1-13.2-3.8-3.75-4.2-2.1-11.7" fill="#cb6ead" transform="translate(-16.95 -12)"/><path d="m80.5 28.55.6.8q.95 1.4 1.3 2.95-3.05 2.45-5.95 2.05l-1-.2q-3.05-1.65-.3-3.85l.7-.4q2.4-1.35 4.65-1.35M58.95 37.2l.05-.05q2.65-2.45 6.25-2.35 3.6.25 2.05 3.4-1.2 1.65-4.15 3.3-3.3 1.15-4.65-.45-1-1.9.45-3.8v-.05" fill="#ffc4ed" transform="translate(-16.95 -12)"/><path d="m67.15 24.05 3.05-.1v-.1l1.5-.3q5.9 1.8 8.8 5-2.25 0-4.65 1.35l-.9-1.75q-3.45-3.1-7.8-4.1m2.55-9.55.45-1.3q3.5 3.5 4.95 10.65l-3-.3q-.85-5.8-2.4-9.05m12.7 17.8q.75 2.9-.35 6.2-2.55 5.5-9.6 7.85-8.7 2.5-13.65-.15-2.05-1.1-3.25-2.7 5.35 1.65 10.7.75 7.35-2.1 9.8-7.65l.4-2.25q2.9.4 5.95-2.05m-32.05-9.9q.3-2 1.15-4.15 4.9 2.65 8.3 10.05-5.3-6.5-9.45-5.9" fill="#f3e5ff" transform="translate(-16.95 -12)"/><path d="m59.8 28.3.45.95q.2-1.5-.3-3.15 3.55-1.65 7.15-2.05h.05q4.35 1 7.8 4.1l.9 1.75-.7.4q-2.75 2.2.3 3.85l1 .2-.4 2.25q-2.45 5.55-9.8 7.65-5.35.9-10.7-.75-1.55-2-1.7-4.8-.2-2.95.6-5.6-4.9-4.55-4.1-10.7 4.15-.6 9.45 5.9m10.4-4.45q-1.7-5.1-.5-9.35 1.55 3.25 2.4 9.05h-.45.05l-1.5.3M58.95 37.2v.05q-1.45 1.9-.45 3.8 1.35 1.6 4.65.45 2.95-1.65 4.15-3.3 1.55-3.15-2.05-3.4-3.6-.1-6.25 2.35l-.05.05m12.45-6.95.5.5.65-.05.4-.5-.1-.75-.55-.5-.65.05-.4.5.15.75m-6.55 3.1.7-.05.35-.6-.15-.75q-.25-.4-.65-.5l-.7.05-.35.6.15.8.65.45m5.05.5q.2.95-.5 1.35.7.55 1.15-.35 1.05.4 1.5-.85-.7.75-1.45.25l-.5-.6q.5-.8-.2-.75l-.6.3q-.3.5.6.65" fill="#fff" transform="translate(-16.95 -12)"/><path d="m71.4 30.25-.15-.75.4-.5.65-.05.55.5.1.75-.4.5-.65.05-.5-.5m-6.55 3.1-.65-.45-.15-.8.35-.6.7-.05q.4.1.65.5l.15.75-.35.6-.7.05" fill="#7f1c1c" transform="translate(-16.95 -12)"/><path d="M69.9 33.85q-.9-.15-.6-.65l.6-.3q.7-.05.2.75l.5.6q.75.5 1.45-.25-.45 1.25-1.5.85-.45.9-1.15.35.7-.4.5-1.35" fill="#367cb6" transform="translate(-16.95 -12)"/></g><g id="as" fill-rule="evenodd"><path d="M40.5 33.9q-2.2 2.8-5.4 5.2l-.05.05-.15.1q-6.8 5.3-18.7 3.15-9.4-3.1-14.7-12-4-9.9 2.55-17.1 4.15-3.15 7.95-.6 4.65 3.4 12-.45 5-3.45 6.55-9L32.2.85q1-1.55 3.35-.25-1.85 4.9-7.05 11.25h-.1q-2.1 2.8-7.2 4.25l-.05.05-2.7.6-1 .05q-5.1.05-7.85-2.75-2.4-1.5-4.8 1.2l-.55.85q-2.15 3.4-2 7.8.1 2.5.9 5.3 10.2 16.15 30.6 8.75l.15-.05q3.8-1.5 6.6-4" fill="#526faf"/><path d="M35.55.6q1.3.7 3.05 2.35 7.5 6.55 6.55 17.75-.25 7.5-4.65 13.2-2.8 2.5-6.6 4l-.15.05q-20.4 7.4-30.6-8.75-.8-2.8-.9-5.3 4.7 7.4 13.95 5.95 4.15-1.3 4.35-5.55h.1q-.3-4.1.5-8.15l.05-.05q5.1-1.45 7.2-4.25h.1Q33.7 5.5 35.55.6" fill="#9ec0e7"/><path d="M21.15 16.15q-.8 4.05-.5 8.15h-.1q-.2 4.25-4.35 5.55Q6.95 31.3 2.25 23.9q-.15-4.4 2-7.8 2.45 5.95 7.3 6.4 5.95-.4 5.9-5.7l1-.05 2.7-.6" fill="#b7d0ec"/><path d="m4.25 16.1.55-.85q2.4-2.7 4.8-1.2 2.75 2.8 7.85 2.75.05 5.3-5.9 5.7-4.85-.45-7.3-6.4" fill="#fff"/></g><g id="at" fill-rule="evenodd"><path d="m16.3 6.45-.05.05q-2.55-4.95-7-4.95L9 1.6h-.05Q4.55 3 1.65 14l-.15 2.05Q.4 26.3 14 36.25l-.05.05h-.05l.05.05.1.05-.05-.05.1.05q1.55.85 3.25 1.2l1.2.3 9.4.35q8.5-.7 15.15-5.55 3-2.2 5.6-5.2 5.1-6.05 2.2-12-2.1-2.8-4.25-3.6l-.15-.1-.85-.1q-2.1 0-6.45 1.55-4.7 1.4-8.75 1.15-3.2-.1-6-1.15l-.8-.35-2.3-1.3q-3.75-2.25-5-5.05l-.05-.05v-.05m1.4-2.6-.25.55q1.3 3.4 4.1 5.3l2.25 1.2q3.35 1.4 6.85 1.5 4.6.25 9.45-1.7 6.05-2.15 10.95 1.45 5.15 5.9 1.8 12.6-4.2 7.85-10.95 11.5-6.9 3.8-14.2 4.15-4.55.25-9.3-.9-2.5-.65-6-2.1Q-7.15 23.05 4.15 3.25 9.6-3.8 17.45 4.4l.25-.55" fill="#526faf"/><path d="M43.1 32.7q-6.65 4.85-15.15 5.55l-9.4-.35-1.2-.3q-1.7-.35-3.25-1.2l-.1-.05.05.05-.1-.05-.05-.05h.05l.05-.05Q.4 26.3 1.5 16.05L1.65 14q2.9-11 7.3-12.4H9l.25-.05q4.45 0 7 4.95l.05-.05v.05l.05.05q1.25 2.8 5 5.05l2.3 1.3q1.65 4.05 6.35 5.85 3.8 1.45 9.7 1.35 7.15-3.2 5.95-8.4l.85.1.05.15q2.75 3.5 1.15 7.6-2.65 3.4-6.2 4.35 1.6 5.15 1.6 8.8" fill="#9ec0e7"/><path d="m23.65 12.9.8.35q2.8 1.05 6 1.15 4.05.25 8.75-1.15 4.35-1.55 6.45-1.55 1.2 5.2-5.95 8.4-5.9.1-9.7-1.35-4.7-1.8-6.35-5.85" fill="#fff"/><path d="m46.5 11.8.15.1q2.15.8 4.25 3.6 2.9 5.95-2.2 12-2.6 3-5.6 5.2 0-3.65-1.6-8.8 3.55-.95 6.2-4.35 1.6-4.1-1.15-7.6l-.05-.15" fill="#b7d0ec"/></g><g id="m"><use ffdec:characterId="36" height="62.25" width="70" xlink:href="#W"/><use ffdec:characterId="37" height="13.15" transform="translate(8.15 22.7)" width="41.95" xlink:href="#X"/></g><g id="W" fill-rule="evenodd"><path d="M64.45 1.95 64 1.4l-2.25.5q-4.9 1.35-10.4 5.15l-1.6 1.4Q48.9 9.2 48.6 10q-.35.8-.15 2 .15 3.1 2.25 5.05 2.15 1.9 5.4 2.75 3.25.8 7.15-2.55l.6-.85 1.55-4.2q.55-1.8.7-3.4.45-4.2-1.65-6.85M67.9 8.8q-.2 2-.95 4.2l-.1.2-1.1 2.8-.05-.05-.8 1.6-.05.1h-.05q-3.65 4.2-8.45 4h-.25q-6-.1-9.2-6.2l-.1-.25q-2.05-5.05 2.35-9.05h-.05V6.1l.05-.05.1-.05Q57.45-.4 65.1.05q3.3 3.6 2.8 8.75" fill="#526faf"/><path d="M61.75 1.9 64 1.4l.45.55q.25 3.95-.8 6.85l-.9 1.85q1.35 1.75 2.65 1.55l-1.55 4.2-.6.85q-3.9 3.35-7.15 2.55-3.25-.85-5.4-2.75-2.1-1.95-2.25-5.05Q60.7 8.45 61.75 1.9" fill="#e2cef2"/><path d="M48.45 12q-.2-1.2.15-2 .3-.8 1.15-1.55l1.6-1.4q5.5-3.8 10.4-5.15Q60.7 8.45 48.45 12" fill="#fff"/><path d="M64.45 1.95q2.1 2.65 1.65 6.85-.15 1.6-.7 3.4-1.3.2-2.65-1.55l.9-1.85q1.05-2.9.8-6.85" fill="#f3e5ff"/><path d="m14.4 9.2.4.25q9 6.9-.5 13.65v.05q-8.3 4.8-11-4.1v-.1l-.05-.15q-2.1-7.65.8-11.15l6.1-.2q2.1.45 4.2 1.7l.05.05m-3.8.25-.45-.1-4.7-.45-.4.55q-1.1 2.75-.85 4.85.3 2.1.6 2.65.35 1.3 1.2 2.4.85 1.05 2.8 1.95l2.75.2 1.9-.85q7.2-4.45-.3-10.05l-.45-.35-2.1-.8" fill="#526faf"/><path d="M11.35 11.35v-.05.05l-.25-1.05-.5-.85 2.1.8.45.35q7.5 5.6.3 10.05l-1.9.85q1.65-2.65-.2-10.15" fill="#b7d0ec"/><path d="m10.6 9.45.5.85.25 1.05q1.85 7.5.2 10.15l-2.75-.2q1.05-2.3-.5-7.4h.05l-.05-.15q-.95-3-3.25-4.3l.4-.55 4.7.45.45.1" fill="#9ec0e7"/><path d="M5.05 9.45q2.3 1.3 3.25 4.3l.05.15H8.3q1.55 5.1.5 7.4-1.95-.9-2.8-1.95-.85-1.1-1.2-2.4-.3-.55-.6-2.65-.25-2.1.85-4.85" fill="#fff"/><path d="m66.2 46.55-1.1 1.55q-2.25 3.1-5.55 5.8-3.65 3-7.85 4.95-7.6 3.5-17 3.4-14.5-.1-24.65-8.8L8.4 52l-.7-.7-.6-.65-.2-.2q-7-7.7-6.9-17.8l.05-1.85q.2-2.8.95-5.6.65-2.75 1.5-4.4l.9-1.8.75-1.2 1.95-2.35 1.8-1.6 1.85-1.6 1.45-1.05q.6-.45 1.5-.95l1.7-1.05h.05l.3-.2q8.9-5.4 20.5-5.3 7.5.1 13.85 2.45l2.25.9.3.15 3.55 1.9.1.05q2.4 1.45 4.6 3.35l.2.2q1.95 1.65 3.5 3.45l.25.25 1 1.25v.05l.05.05q2.05 2.8 3.3 5.85 1.85 4.55 1.8 9.7-.1 6.4-2.95 11.8l-.75 1.25-.15.2h.05M57 11.4q-9.25-6.7-21.85-6.8-14.1-.1-24.2 8.05-9.1 7.4-10.05 17.7L.8 32.5Q.7 42.6 8.15 50.25l2.45 2.25q9.95 8.35 24.05 8.5 8.1.05 14.85-2.6 5.05-1.95 9.35-5.45 5.45-4.45 8-9.9Q69 38.45 69 33.1q.05-5.05-1.75-9.5-2.2-5.3-7.15-9.7l-.9-.8-2.2-1.7M5.6 16.85l-.05.1.1-.1H5.6" fill="#526faf"/><path d="M2.9 29.6q.3-9 8.05-15.3 8-6.55 19.2-6.45 10.95.1 18.65 6.4 3.25-3.2 7.15.5 3.1 4.4-.65 7.55 1.8 3.85 1.75 8.25l-.1 1.65-3.55-.45-3.6.45-1.9.55q-1.3.45-2.1 1.1l-1.8 1.6-.25.25q-4 4-4 9.65 0 3.05 1.2 5.65-5.1 1.85-11.2 1.8-9.7-.1-16.9-5.05l.35-.35q3.15-3.1 3.15-7.5 0-3.9-2.4-6.75l-.4-.4-2.15-2.05-3.2-1.15-2.55-.3-1.8.15-.95.2m57.55-10.4.3.7-.3.75-.35.25-.3.05q-.4 0-.65-.3t-.25-.75l.25-.7q.25-.3.65-.3l.3.05.35.25M48 41.1q.2-.2.45-.2l.5.2.2.5-.2.5-.5.2q-.25 0-.45-.2l-.2-.5.2-.5m6.65-3.05q.35.35.35.85l-.35.9q-.35.35-.85.35l-.9-.35q-.35-.4-.35-.9t.35-.85q.35-.35.9-.35.5 0 .85.35M4.3 33l.45.3.45.9-.45.95-1.05.35q-.6 0-1.05-.35-.4-.4-.4-.95 0-.5.4-.9.45-.4 1.05-.4l.6.1m2.25 4.05q.3 0 .45.2l.2.45-.2.4q-.15.2-.45.2-.25 0-.45-.2l-.2-.4.2-.45.45-.2" fill="#fff"/><path d="M.9 30.35q.95-10.3 10.05-17.7 10.1-8.15 24.2-8.05 12.6.1 21.85 6.8 1.85 2.8 3.1 5.45 1.75 3.6 2.4 6.75.8 3.65.2 6.8v.05l-.85 4.25q-1.5-1.25-3.2-1.95l-1.7-.55.1-1.65q.05-4.4-1.75-8.25 3.75-3.15.65-7.55-3.9-3.7-7.15-.5-7.7-6.3-18.65-6.4-11.2-.1-19.2 6.45Q3.2 20.6 2.9 29.6l-.65.2-1.35.55M60.45 19.2l-.35-.25-.3-.05q-.4 0-.65.3l-.25.7q0 .45.25.75t.65.3l.3-.05.35-.25.3-.75-.3-.7m-19.1 32.65q.8 1.35 1.9 2.6l.5.5.6.55q-2.5 1-5.3 1.6Q20.8 59.3 8.8 50.05l.75-.2 2.9-1.75.4-.35q7.2 4.95 16.9 5.05 6.1.05 11.2-1.8l.4.85" fill="#b7d0ec"/><path d="m66.3 46.35-.1.2h-.05l.15-.2M57 11.4l2.2 1.7.9.8q4.95 4.4 7.15 9.7 1.8 4.45 1.75 9.5 0 5.35-2.15 9.95-.65-4.2-3.8-7.35l-.9-.8-.3-.2.85-4.25v-.05q.6-3.15-.2-6.8-.65-3.15-2.4-6.75-1.25-2.65-3.1-5.45m-7.5 47q-6.75 2.65-14.85 2.6-14.1-.15-24.05-8.5l-2.45-2.25.6-.15.05-.05q12 9.25 30.25 7.05 2.8-.6 5.3-1.6 2.3 2.1 5.15 2.9" fill="#9ec0e7"/><path d="m56.95 32.2 1.7.55q-4.25 13.75-17.3 19.1l-.4-.85q-1.2-2.6-1.2-5.65 0-5.65 4-9.65l.25-.25 1.8-1.6q.8-.65 2.1-1.1l1.9-.55 3.6-.45 3.55.45m-2.3 5.85q-.35-.35-.85-.35-.55 0-.9.35t-.35.85q0 .5.35.9l.9.35q.5 0 .85-.35l.35-.9q0-.5-.35-.85M48 41.1l-.2.5.2.5q.2.2.45.2l.5-.2.2-.5-.2-.5-.5-.2q-.25 0-.45.2m-35.15 6.65-.4.35q-5.75-5.15-7.7-12.95l.45-.95-.45-.9-.45-.3-.45-3.6 1.8-.15 2.55.3 3.2 1.15 2.15 2.05.4.4q2.4 2.85 2.4 6.75 0 4.4-3.15 7.5l-.35.35m-6.3-10.7-.45.2-.2.45.2.4q.2.2.45.2.3 0 .45-.2l.2-.4-.2-.45q-.15-.2-.45-.2" fill="#ffc4ed"/><path d="m63.6 16.15.25.25-.25-.25" fill="#e2cef2"/><path d="m2.25 29.8.65-.2.95-.2.45 3.6-.6-.1q-.6 0-1.05.4-.4.4-.4.9 0 .55.4.95.45.35 1.05.35l1.05-.35q1.95 7.8 7.7 12.95l-2.9 1.75q-6.75-7.9-7.4-15.6-.2-2.25.1-4.45m56.4 2.95q1.7.7 3.2 1.95l.3.2Q59 49.6 43.25 54.45q-1.1-1.25-1.9-2.6 13.05-5.35 17.3-19.1" fill="#ffb4da"/><path d="M66.85 43.05q-2.55 5.45-8 9.9-4.3 3.5-9.35 5.45-2.85-.8-5.15-2.9l-.6-.55-.5-.5Q59 49.6 62.15 34.9l.9.8q3.15 3.15 3.8 7.35m-58.7 7.2Q.7 42.6.8 32.5l.1-2.15 1.35-.55q-.3 2.2-.1 4.45.65 7.7 7.4 15.6l-.75.2-.05.05-.6.15" fill="#ff95cb"/><path d="M35.55 35.5q.1 3.3-4.3 4.15-3.25-.05-5-2.25-1.7 2.2-4.6 1.5-2.7-1.5-1.55-4 0 2.45 1.95 3.05 2.15.35 3.8-1L25.8 36q2.5 2.65 5.3 2.6 3.25-.65 3.8-3.3l.65.2" fill="#5b70bc"/></g><g id="X" fill-rule="evenodd"><path d="M41.35 10.4q-1 2.2-3 2.65l-2.5-.3-1.35-.9q-1.8-1.55-2.4-4.25l-.25-1.75q0-.8.15-1.55l.2-.9.25-.65q1-2.2 3-2.6l.85-.1q1.55 0 2.95 1.25 1.85 1.6 2.45 4.25.5 2.15-.05 3.95l-.3.9M32.3 6.3l.15 1.05q.6 2.5 2.3 4l1.55 1 1.95.15q1.8-.4 2.65-2.45l.15-.4q.65-1.85.15-4.1-.55-2.5-2.15-4-.95-.85-2-1.1-.75-.15-1.5 0-1.9.3-2.8 2.35l-.35 1.15-.15 1.1.05 1.25M7.25 1.35l.5.85q.95 1.85.5 4.1-.4 2.3-1.85 3.65l-.6.5q-1.25.8-2.6.55-1.65-.3-2.6-2.15-.45-.95-.55-2v-1.7l.05-.4.3-1.1Q.9 2.15 2 1.1l.3-.25q1.35-1.1 2.85-.8 1.3.25 2.1 1.3M.4 5.55l.1 1.4q.1.85.45 1.6.85 1.7 2.35 2 1.15.25 2.2-.45l.7-.55q1.3-1.3 1.7-3.4.3-1.8-.15-3.25l-.25-.55Q6.75.65 5.15.3q-1.6-.35-2.9.95l-.65.7Q1.15 2.6.85 3.4L.5 4.65l-.1.9" fill="#8d1f1e"/><path d="m32.6 6.45-.3-.15-.05-1.25.15-1.1.75-.2q.6 0 1 .4.45.45.45 1 0 .6-.45 1-.4.4-1 .4l-.55-.1m-31.4-.6-.8-.3.1-.9.35-1.25.3-.05h.15q.55 0 .95.35.4.4.4.9 0 .55-.4.9l-.95.35h-.1" fill="#fff"/><path d="m5.55 8.4.05.3-.3.65-.75.25-.7-.25q-.3-.25-.3-.6V8.7q0-.4.3-.65t.7-.25q.45 0 .75.25l.25.35" fill="#ffc4a9"/><path d="m40.35 7.15.3.25q.4.4.4.9 0 .55-.4.95-.35.35-.9.35h-.05q-.55 0-.95-.35-.4-.4-.4-.95 0-.5.4-.9.4-.35.95-.35l.65.1" fill="#ffa993"/><path d="m37.05.45.35.25q1.65 1.25 2.45 3.55.5 1.5.5 2.9l-.65-.1q-.55 0-.95.35-.4.4-.4.9 0 .55.4.95.4.35.95.35l.05.05q-.55 1.05-1.55 1.4-1.5.5-3.1-.75t-2.4-3.55l-.1-.3.55.1q.6 0 1-.4.45-.4.45-1 0-.55-.45-1-.4-.4-1-.4l-.75.2.35-1.15q.9-2.05 2.8-2.35.75-.15 1.5 0" fill="url(#Y)"/><path d="M37.05.45q1.05.25 2 1.1 1.6 1.5 2.15 4 .5 2.25-.15 4.1l-.15.4q-.85 2.05-2.65 2.45l-1.95-.15-1.55-1q-1.7-1.5-2.3-4L32.3 6.3l.3.15.1.3q.8 2.3 2.4 3.55 1.6 1.25 3.1.75 1-.35 1.55-1.4V9.6q.55 0 .9-.35.4-.4.4-.95 0-.5-.4-.9l-.3-.25q0-1.4-.5-2.9-.8-2.3-2.45-3.55l-.35-.25" fill="url(#Z)"/><path d="M7.75 2.9 7.7 4.65q-.25 1.9-1.4 3.1l-.75.65-.25-.35Q5 7.8 4.55 7.8q-.4 0-.7.25-.3.25-.3.65l-.05.05q-1.15-.25-1.85-1.6l-.45-1.3h.1l.95-.35q.4-.35.4-.9 0-.5-.4-.9-.4-.35-.95-.35h-.15q.15-.75.45-1.4l.65-.7q1.3-1.3 2.9-.95 1.6.35 2.35 2.05l.25.55" fill="url(#aa)"/><path d="m5.55 8.4.75-.65q1.15-1.2 1.4-3.1l.05-1.75q.45 1.45.15 3.25-.4 2.1-1.7 3.4l-.7.55q-1.05.7-2.2.45-1.5-.3-2.35-2Q.6 7.8.5 6.95l-.1-1.4.8.3.45 1.3q.7 1.35 1.85 1.6h.05q0 .35.3.6l.7.25.75-.25.3-.65-.05-.3" fill="url(#ab)"/></g><g id="au" fill-rule="evenodd"><path d="M.05 9.4q-.25-1.9.7-3.85l.8-1.35Q5.8.2 11.4 1.05L12.55 0q2.9 2.1 3 7.05-1.3 4.35-5.25 6.05-5.35 2.05-8.65-.15Q.3 11.2.05 9.4m9.8-7.5q-4.15-.3-7.3 2.85l-.3.3Q.3 8.2 1.7 10.8l.2.3q.65 1.1 1.85 2.05 6.45.7 9.8-4.4l.45-2.1q.25-3.25-1.6-5.55l-1.35.95-1.2-.15" fill="#be8344"/><path d="M3.05 11.15q3.85-.1 6.35-2.9 1.9-2.7.8-5.6 2.8.85 3.8 4l-.45 2.1q-3.35 5.1-9.8 4.4-1.2-.95-1.85-2.05l1.15.05" fill="#f7d9b0"/><path d="m10.2 2.65-.35-.75 1.2.15 1.35-.95q1.85 2.3 1.6 5.55-1-3.15-3.8-4" fill="#f2c07f"/><path d="m9.85 1.9.35.75q1.1 2.9-.8 5.6-2.5 2.8-6.35 2.9v-.1q1.4 0 2.35-.95 1-.9 1-2.2 0-1.3-1-2.25-.95-.95-2.35-.95l-.5.05Q5.7 1.6 9.85 1.9m-1 3.6q-.35-.4-.9-.4-.5 0-.85.4-.35.35-.35.85t.35.85q.35.4.85.4.55 0 .9-.4l.35-.85q0-.5-.35-.85" fill="#fff4dc"/><path d="m2.55 4.75.5-.05q1.4 0 2.35.95 1 .95 1 2.25t-1 2.2q-.95.95-2.35.95L1.7 10.8q-1.4-2.6.55-5.75l.3-.3m6.3.75q.35.35.35.85l-.35.85q-.35.4-.9.4-.5 0-.85-.4-.35-.35-.35-.85t.35-.85q.35-.4.85-.4.55 0 .9.4" fill="#fff"/></g><g id="av" fill-rule="evenodd"><path d="M9.4 5.9q1.65-4.3 8.25-5.8 7.1-.75 10.55 3.5Q30.95-.05 35.25.7 41.3 2.15 46 7.85q8.7 1.65 7.15 9.3-6.45 9.6-19.4 11.75-8.7 1.4-15.6-4.5-5.1 2.45-11.55-.15-8.85-5.6-5.85-14.4 3.1-5.35 8.1-6.8V4.5l-1.6.6-.05.05Q4.95 6.25 3.1 8.9q-3.7 7.85 2.15 12.35 3.4 2.45 7.45 2.45 2.5-.05 5.25-1 5.95-3.75 6.2-9.3h.1q1.45 5.4-4.3 9.8l-.35.3q7.55 5.7 17.1 2.8 9.1-2.65 15.6-9.45.9-6.55-7.15-8.35-10.2-11.45-16.4-4.15l.6.95.35.75Q26.1 2.4 21.9 1.5h-.05l-3.7-.25q-5.9 1.2-9.2 6.15.15-.8.45-1.5" fill="#5397cc"/><path d="M9.4 5.9q-.3.7-.45 1.5 3.3-4.95 9.2-6.15l3.7.25h.05q3.25 2.2 4.95 7.1 1.85.8 3.1-1l-.2-1.45-.05-.1-.35-.75q2.05-2.85 6.2-.15 4.25 2.65 4.6 7.7.2 5.6-5.4 6.85-4.55.4-6.1-3-1.4-2.9-.35-5.25-1.25.75-1.8 2.25-.9-1.6-3.1-1.8.65.65.8 1.25h-.05v.25q-.25 5.55-6.2 9.3-2.75.95-5.25 1-3.5-2.15-5.4-6.05l2.1-1.25q1.35 2.9 5 3.5 5.6.2 7.45-4.1 1.25-6.05-3.75-8.65-4.75-1.55-7.65 2.1-2-1.85-4.2-2.6l.95-1.5.05-.05 1.6-.6v.05q.45.4.55 1.35" fill="#a7f3ff"/><path d="M21.9 1.5q4.2.9 7.8 4.55l.05.1.2 1.45q-1.25 1.8-3.1 1-1.7-4.9-4.95-7.1m7.45 3.8-.6-.95q6.2-7.3 16.4 4.15 8.05 1.8 7.15 8.35-6.5 6.8-15.6 9.45-9.55 2.9-17.1-2.8l.35-.3q5.75-4.4 4.3-9.8l-.05-.25q-.15-.6-.8-1.25 2.2.2 3.1 1.8.55-1.5 1.8-2.25-1.05 2.35.35 5.25 1.55 3.4 6.1 3 5.6-1.25 5.4-6.85-.35-5.05-4.6-7.7-4.15-2.7-6.2.15" fill="#81d8ff"/><path d="M12.7 23.7q-4.05 0-7.45-2.45Q-.6 16.75 3.1 8.9q1.85-2.65 4.1-3.75l-.95 1.5q2.2.75 4.2 2.6 2.9-3.65 7.65-2.1 5 2.6 3.75 8.65-1.85 4.3-7.45 4.1-3.65-.6-5-3.5l-2.1 1.25q1.9 3.9 5.4 6.05" fill="#fff"/></g><g id="aw" fill-rule="evenodd"><path d="M30.25 3.75q-1.9-1.6-4.8-2.2l-2.9-.15q-5.9.05-8.45 3l1.4.95q-5.2-1.8-10.1 2-6.65 5.95-2.65 13.3l.6 1q7.35 7.15 19.05 6.7 3.7-.8 6.8-2.3h.05q6.6-3.2 10.35-9.95v-.05l.25-.5q-.4 5.65-6.2 10l2.55 1.2q7.65 3.05 17.55-.4-6.4-.1-8.8-1.7l-.8-.65q-2.7-2.35-.95-4.5l1.1-1.05q1.5-1.45 4.2-3.1 5.35-4.15 5.25-7.65l-.55-1.85Q51.95 3 48.45 1.65l.3-1.35q3.8.95 6.4 5.45 1.4 4.45-2.5 8.6-2 2.15-5.7 4.4-3.75 2.2-2.25 3.55 3.9 3.45 13.1 1.9-2.35 5.2-11.7 5.75-8.9.2-13.65-3.55l-1.3.8q-7.8 4.4-17.85 2.2-9.15-2.75-12.15-8.65-3-7.45 1.75-12.4l.05-.1q5.75-5.4 9.9-4.3h.1Q16.5-.25 23.65 0 31.6.55 34.2 6.45l-.05.1q3-3.1 7.25-2.65 2.9.65 4.2 1.9 1.25 1.2 1.25 2.95l-1.35-1.4q-2.15-1.95-5-2.05-3.4-.5-6 2.25l.05.1q.65 2.6-.5 5.8-1.9 2.9-5.5 3.55 5.3-3.1 4.9-8.1l-.35-1.15q-.95-2.45-2.85-4" fill="#5397cc"/><path d="M30.25 3.75q1.9 1.55 2.85 4-.1 1.7-1 3.9-4.55 4.05-9.2 1.85-1.85-3.75-4.15-3.45 2.3 3 .7 6.9-2.2 4.25-7.25 5.75-5.55 1.35-9.45-2.05-4-7.35 2.65-13.3 4.9-3.8 10.1-2l-1.4-.95q2.55-2.95 8.45-3-2.55 1.75-1.9 5.2 1.6 4 6.75 2.85 3.5-1.75 2.85-5.7M28.55 17q3.6-.65 5.5-3.55 1.15-3.2.5-5.8l-.05-.1q2.6-2.75 6-2.25 2.85.1 5 2.05.25 4.25-2.15 6.15-3.3 2.5-7.05.95 1.2 1.5 3.3 1.65-3.75 6.75-10.35 9.95h-.05Q25.55 27.2 23.7 24q-.4-3.9 3.8-6.55l1.05-.45M53.2 5.85l.55 1.85q.1 3.5-5.25 7.65-2.7 1.65-4.2 3.1.75-1.55 2.85-3.1Q50.3 11.1 49 7.9q1.15-2.95 4.2-2.05m-8.25 18.8q2.4 1.6 8.8 1.7-9.9 3.45-17.55.4l7.1.55q3.9-.5 1.65-2.65m-30-11.25q.15-4.9-4.75-5.7-4.65.05-6.8 4.25-1.1 4.6 2.5 6.7 4.25 1.6 7.2-.7 3.4.55 4.45-1.45.3-3-2.6-3.1" fill="#a7f3ff"/><path d="m33.1 7.75.35 1.15q.4 5-4.9 8.1l-1.05.45Q23.3 20.1 23.7 24q1.85 3.2 5.5 2.05-3.1 1.5-6.8 2.3-11.7.45-19.05-6.7l-.6-1q3.9 3.4 9.45 2.05 5.05-1.5 7.25-5.75 1.6-3.9-.7-6.9 2.3-.3 4.15 3.45 4.65 2.2 9.2-1.85.9-2.2 1-3.9m12.4-.4 1.35 1.4q0-1.75-1.25-2.95 2-.65 2.85-4.15 3.5 1.35 4.75 4.2-3.05-.9-4.2 2.05 1.3 3.2-1.85 7.45-2.1 1.55-2.85 3.1l-1.1 1.05q-1.75 2.15.95 4.5l.7.6.1.05q2.25 2.15-1.65 2.65l-7.1-.55-2.55-1.2q5.8-4.35 6.2-10l-.25.5v.05q-2.1-.15-3.3-1.65 3.75 1.55 7.05-.95 2.4-1.9 2.15-6.15" fill="#81d8ff"/><path d="m22.55 1.4 2.9.15q2.9.6 4.8 2.2.65 3.95-2.85 5.7-5.15 1.15-6.75-2.85-.65-3.45 1.9-5.2m-7.6 12q2.9.1 2.6 3.1-1.05 2-4.45 1.45-2.95 2.3-7.2.7-3.6-2.1-2.5-6.7 2.15-4.2 6.8-4.25 4.9.8 4.75 5.7" fill="#fff"/></g><g id="q" transform="translate(9.95 7.75)"><use ffdec:characterId="51" height="263.3" transform="translate(-9.957 -7.735) scale(.1875)" width="339" xlink:href="#ac"/><use ffdec:characterId="52" height="26.2" transform="translate(1 7.55)" width="43.25" xlink:href="#ad"/></g><g id="ac" transform="translate(53.1 41.25)"><filter id="ae"><feConvolveMatrix divisor="2500" in="SourceGraphic" kernelMatrix="1 1 1 1 1 1 1 1 1 1 1 1 1 1 1 1 1 1 1 1 1 1 1 1 1 1 1 1 1 1 1 1 1 1 1 1 1 1 1 1 1 1 1 1 1 1 1 1 1 1 1 1 1 1 1 1 1 1 1 1 1 1 1 1 1 1 1 1 1 1 1 1 1 1 1 1 1 1 1 1 1 1 1 1 1 1 1 1 1 1 1 1 1 1 1 1 1 1 1 1 1 1 1 1 1 1 1 1 1 1 1 1 1 1 1 1 1 1 1 1 1 1 1 1 1 1 1 1 1 1 1 1 1 1 1 1 1 1 1 1 1 1 1 1 1 1 1 1 1 1 1 1 1 1 1 1 1 1 1 1 1 1 1 1 1 1 1 1 1 1 1 1 1 1 1 1 1 1 1 1 1 1 1 1 1 1 1 1 1 1 1 1 1 1 1 1 1 1 1 1 1 1 1 1 1 1 1 1 1 1 1 1 1 1 1 1 1 1 1 1 1 1 1 1 1 1 1 1 1 1 1 1 1 1 1 1 1 1 1 1 1 1 1 1 1 1 1 1 1 1 1 1 1 1 1 1 1 1 1 1 1 1 1 1 1 1 1 1 1 1 1 1 1 1 1 1 1 1 1 1 1 1 1 1 1 1 1 1 1 1 1 1 1 1 1 1 1 1 1 1 1 1 1 1 1 1 1 1 1 1 1 1 1 1 1 1 1 1 1 1 1 1 1 1 1 1 1 1 1 1 1 1 1 1 1 1 1 1 1 1 1 1 1 1 1 1 1 1 1 1 1 1 1 1 1 1 1 1 1 1 1 1 1 1 1 1 1 1 1 1 1 1 1 1 1 1 1 1 1 1 1 1 1 1 1 1 1 1 1 1 1 1 1 1 1 1 1 1 1 1 1 1 1 1 1 1 1 1 1 1 1 1 1 1 1 1 1 1 1 1 1 1 1 1 1 1 1 1 1 1 1 1 1 1 1 1 1 1 1 1 1 1 1 1 1 1 1 1 1 1 1 1 1 1 1 1 1 1 1 1 1 1 1 1 1 1 1 1 1 1 1 1 1 1 1 1 1 1 1 1 1 1 1 1 1 1 1 1 1 1 1 1 1 1 1 1 1 1 1 1 1 1 1 1 1 1 1 1 1 1 1 1 1 1 1 1 1 1 1 1 1 1 1 1 1 1 1 1 1 1 1 1 1 1 1 1 1 1 1 1 1 1 1 1 1 1 1 1 1 1 1 1 1 1 1 1 1 1 1 1 1 1 1 1 1 1 1 1 1 1 1 1 1 1 1 1 1 1 1 1 1 1 1 1 1 1 1 1 1 1 1 1 1 1 1 1 1 1 1 1 1 1 1 1 1 1 1 1 1 1 1 1 1 1 1 1 1 1 1 1 1 1 1 1 1 1 1 1 1 1 1 1 1 1 1 1 1 1 1 1 1 1 1 1 1 1 1 1 1 1 1 1 1 1 1 1 1 1 1 1 1 1 1 1 1 1 1 1 1 1 1 1 1 1 1 1 1 1 1 1 1 1 1 1 1 1 1 1 1 1 1 1 1 1 1 1 1 1 1 1 1 1 1 1 1 1 1 1 1 1 1 1 1 1 1 1 1 1 1 1 1 1 1 1 1 1 1 1 1 1 1 1 1 1 1 1 1 1 1 1 1 1 1 1 1 1 1 1 1 1 1 1 1 1 1 1 1 1 1 1 1 1 1 1 1 1 1 1 1 1 1 1 1 1 1 1 1 1 1 1 1 1 1 1 1 1 1 1 1 1 1 1 1 1 1 1 1 1 1 1 1 1 1 1 1 1 1 1 1 1 1 1 1 1 1 1 1 1 1 1 1 1 1 1 1 1 1 1 1 1 1 1 1 1 1 1 1 1 1 1 1 1 1 1 1 1 1 1 1 1 1 1 1 1 1 1 1 1 1 1 1 1 1 1 1 1 1 1 1 1 1 1 1 1 1 1 1 1 1 1 1 1 1 1 1 1 1 1 1 1 1 1 1 1 1 1 1 1 1 1 1 1 1 1 1 1 1 1 1 1 1 1 1 1 1 1 1 1 1 1 1 1 1 1 1 1 1 1 1 1 1 1 1 1 1 1 1 1 1 1 1 1 1 1 1 1 1 1 1 1 1 1 1 1 1 1 1 1 1 1 1 1 1 1 1 1 1 1 1 1 1 1 1 1 1 1 1 1 1 1 1 1 1 1 1 1 1 1 1 1 1 1 1 1 1 1 1 1 1 1 1 1 1 1 1 1 1 1 1 1 1 1 1 1 1 1 1 1 1 1 1 1 1 1 1 1 1 1 1 1 1 1 1 1 1 1 1 1 1 1 1 1 1 1 1 1 1 1 1 1 1 1 1 1 1 1 1 1 1 1 1 1 1 1 1 1 1 1 1 1 1 1 1 1 1 1 1 1 1 1 1 1 1 1 1 1 1 1 1 1 1 1 1 1 1 1 1 1 1 1 1 1 1 1 1 1 1 1 1 1 1 1 1 1 1 1 1 1 1 1 1 1 1 1 1 1 1 1 1 1 1 1 1 1 1 1 1 1 1 1 1 1 1 1 1 1 1 1 1 1 1 1 1 1 1 1 1 1 1 1 1 1 1 1 1 1 1 1 1 1 1 1 1 1 1 1 1 1 1 1 1 1 1 1 1 1 1 1 1 1 1 1 1 1 1 1 1 1 1 1 1 1 1 1 1 1 1 1 1 1 1 1 1 1 1 1 1 1 1 1 1 1 1 1 1 1 1 1 1 1 1 1 1 1 1 1 1 1 1 1 1 1 1 1 1 1 1 1 1 1 1 1 1 1 1 1 1 1 1 1 1 1 1 1 1 1 1 1 1 1 1 1 1 1 1 1 1 1 1 1 1 1 1 1 1 1 1 1 1 1 1 1 1 1 1 1 1 1 1 1 1 1 1 1 1 1 1 1 1 1 1 1 1 1 1 1 1 1 1 1 1 1 1 1 1 1 1 1 1 1 1 1 1 1 1 1 1 1 1 1 1 1 1 1 1 1 1 1 1 1 1 1 1 1 1 1 1 1 1 1 1 1 1 1 1 1 1 1 1 1 1 1 1 1 1 1 1 1 1 1 1 1 1 1 1 1 1 1 1 1 1 1 1 1 1 1 1 1 1 1 1 1 1 1 1 1 1 1 1 1 1 1 1 1 1 1 1 1 1 1 1 1 1 1 1 1 1 1 1 1 1 1 1 1 1 1 1 1 1 1 1 1 1 1 1 1 1 1 1 1 1 1 1 1 1 1 1 1 1 1 1 1 1 1 1 1 1 1 1 1 1 1 1 1 1 1 1 1 1 1 1 1 1 1 1 1 1 1 1 1 1 1 1 1 1 1 1 1 1 1 1 1 1 1 1 1 1 1 1 1 1 1 1 1 1 1 1 1 1 1 1 1 1 1 1 1 1 1 1 1 1 1 1 1 1 1 1 1 1 1 1 1 1 1 1 1 1 1 1 1 1 1 1 1 1 1 1 1 1 1 1 1 1 1 1 1 1 1 1 1 1 1 1 1 1 1 1 1 1 1 1 1 1 1 1 1 1 1 1 1 1 1 1 1 1 1 1 1 1 1 1 1 1 1 1 1 1 1 1 1 1 1 1 1 1 1 1 1 1 1 1 1 1 1 1 1 1 1 1 1 1 1 1 1 1 1 1 1 1 1 1 1 1 1 1 1 1 1 1 1 1 1 1 1 1 1 1 1 1 1 1 1 1 1 1 1 1 1 1 1 1 1 1 1 1 1 1 1 1 1 1 1 1 1 1 1 1 1 1 1 1 1 1 1 1 1 1 1 1 1 1 1 1 1 1 1 1 1 1 1 1 1 1 1 1 1 1 1 1 1 1 1 1 1 1 1 1 1 1 1 1 1 1 1 1 1 1 1 1 1 1 1 1 1 1 1 1 1 1 1 1 1 1 1 1 1 1 1 1 1 1 1 1 1 1 1 1 1 1 1 1 1 1 1 1 1 1 1 1 1 1 1 1 1 1 1 1 1 1 1 1 1 1 1 1 1 1 1 1 1 1 1 1 1 1 1 1 1 1 1 1 1 1 1 1 1 1 1 1 1 1 1 1 1 1 1 1 1 1 1 1 1 1 1 1 1 1 1 1 1 1 1 1 1 1 1 1 1 1 1 1 1 1 1 1 1 1 1 1 1 1 1 1 1 1 1 1 1 1 1 1 1 1 1 1 1 1 1 1 1 1 1 1 1 1 1 1 1 1 1 1 1 1 1 1 1 1 1 1 1 1 1 1 1 1 1 1 1 1 1 1 1 1 1 1 1 1 1 1 1 1 1 1 1 1 1 1 1 1 1 1 1 1 1 1 1 1 1 1 1 1 1 1 1 1 1 1 1 1 1 1 1 1 1 1 1 1 1 1 1 1 1 1 1 1 1 1 1 1 1 1 1 1 1 1 1 1 1 1 1 1 1 1 1 1 1 1 1 1 1 1 1 1 1 1 1 1 1 1 1 1 1 1 1 1 1 1 1 1 1 1 1 1 1 1 1 1 1 1 1 1 1 1 1 1 1 1 1 1 1 1 1 1 1 1 1 1 1 1 1 1 1 1 1 1 1 1 1 1 1 1 1 1 1 1 1 1 1 1 1 1 1 1 1 1 1 1 1 1 1 1 1 1 1 1 1 1 1 1 1 1 1 1 1 1 1 1 1 1 1 1 1 1 1 1 1 1 1 1 1 1 1 1 1 1 1 1 1 1 1 1 1 1 1 1 1 1 1 1 1 1 1 1 1 1 1 1 1 1 1 1 1 1 1 1 1 1 1 1 1 1 1 1 1 1 1 1 1 1 1 1 1 1 1 1 1 1 1 1 1 1 1 1 1 1 1 1 1 1 1 1 1 1 1 1 1 1 1 1 1 1 1 1 1 1 1 1 1 1 1 1 1 1 1 1 1 1 1 1 1 1 1 1 1 1 1 1 1 1 1 1 1 1 1 1 1 1 1 1 1 1 1 1 1 1 1 1 1 1 1 1 1 1 1 1 1 1 1 1 1 1 1 1 1 1 1 1 1 1 1 1 1 1 1 1 1 1 1 1 1 1 1 1 1 1 1 1 1 1 1 1 1 1 1 1 1 1 1 1 1 1 1 1 1 1 1 1 1 1 1 1 1 1 1 1 1 1 1 1 1 1 1 1 1 1 1 1 1 1 1 1 1 1 1 1 1 1 1 1 1 1 1 1 1 1 1 1 1 1 1 1 1 1 1 1 1 1 1 1 1 1 1 1 1 1 1 1 1 1 1 1 1 1 1 1 1 1 1 1 1 1 1 1 1 1 1 1 1 1 1 1 1 1 1 1 1 1 1 1 1 1 1 1 1 1 1 1 1 1 1 1 1 1 1 1 1 1 1 1 1 1 1 1 1 1 1 1 1 1 1 1 1 1 1 1 1 1 1 1 1 1 1 1 1 1 1 1 1 1 1 1 1 1 1 1 1 1 1 1 1 1 1 1 1 1 1 1 1 1 1 1 1 1 1 1 1 1 1 1 1 1 1 1 1 1 1 1 1 1 1 1 1 1 1 1 1 1 1 1 1 1 1 1 1 1 1 1 1 1 1 1 1 1 1 1 1 1 1 1 1" order="50 50" result="filterResult0"/><feConvolveMatrix divisor="2500" in="filterResult0" kernelMatrix="1 1 1 1 1 1 1 1 1 1 1 1 1 1 1 1 1 1 1 1 1 1 1 1 1 1 1 1 1 1 1 1 1 1 1 1 1 1 1 1 1 1 1 1 1 1 1 1 1 1 1 1 1 1 1 1 1 1 1 1 1 1 1 1 1 1 1 1 1 1 1 1 1 1 1 1 1 1 1 1 1 1 1 1 1 1 1 1 1 1 1 1 1 1 1 1 1 1 1 1 1 1 1 1 1 1 1 1 1 1 1 1 1 1 1 1 1 1 1 1 1 1 1 1 1 1 1 1 1 1 1 1 1 1 1 1 1 1 1 1 1 1 1 1 1 1 1 1 1 1 1 1 1 1 1 1 1 1 1 1 1 1 1 1 1 1 1 1 1 1 1 1 1 1 1 1 1 1 1 1 1 1 1 1 1 1 1 1 1 1 1 1 1 1 1 1 1 1 1 1 1 1 1 1 1 1 1 1 1 1 1 1 1 1 1 1 1 1 1 1 1 1 1 1 1 1 1 1 1 1 1 1 1 1 1 1 1 1 1 1 1 1 1 1 1 1 1 1 1 1 1 1 1 1 1 1 1 1 1 1 1 1 1 1 1 1 1 1 1 1 1 1 1 1 1 1 1 1 1 1 1 1 1 1 1 1 1 1 1 1 1 1 1 1 1 1 1 1 1 1 1 1 1 1 1 1 1 1 1 1 1 1 1 1 1 1 1 1 1 1 1 1 1 1 1 1 1 1 1 1 1 1 1 1 1 1 1 1 1 1 1 1 1 1 1 1 1 1 1 1 1 1 1 1 1 1 1 1 1 1 1 1 1 1 1 1 1 1 1 1 1 1 1 1 1 1 1 1 1 1 1 1 1 1 1 1 1 1 1 1 1 1 1 1 1 1 1 1 1 1 1 1 1 1 1 1 1 1 1 1 1 1 1 1 1 1 1 1 1 1 1 1 1 1 1 1 1 1 1 1 1 1 1 1 1 1 1 1 1 1 1 1 1 1 1 1 1 1 1 1 1 1 1 1 1 1 1 1 1 1 1 1 1 1 1 1 1 1 1 1 1 1 1 1 1 1 1 1 1 1 1 1 1 1 1 1 1 1 1 1 1 1 1 1 1 1 1 1 1 1 1 1 1 1 1 1 1 1 1 1 1 1 1 1 1 1 1 1 1 1 1 1 1 1 1 1 1 1 1 1 1 1 1 1 1 1 1 1 1 1 1 1 1 1 1 1 1 1 1 1 1 1 1 1 1 1 1 1 1 1 1 1 1 1 1 1 1 1 1 1 1 1 1 1 1 1 1 1 1 1 1 1 1 1 1 1 1 1 1 1 1 1 1 1 1 1 1 1 1 1 1 1 1 1 1 1 1 1 1 1 1 1 1 1 1 1 1 1 1 1 1 1 1 1 1 1 1 1 1 1 1 1 1 1 1 1 1 1 1 1 1 1 1 1 1 1 1 1 1 1 1 1 1 1 1 1 1 1 1 1 1 1 1 1 1 1 1 1 1 1 1 1 1 1 1 1 1 1 1 1 1 1 1 1 1 1 1 1 1 1 1 1 1 1 1 1 1 1 1 1 1 1 1 1 1 1 1 1 1 1 1 1 1 1 1 1 1 1 1 1 1 1 1 1 1 1 1 1 1 1 1 1 1 1 1 1 1 1 1 1 1 1 1 1 1 1 1 1 1 1 1 1 1 1 1 1 1 1 1 1 1 1 1 1 1 1 1 1 1 1 1 1 1 1 1 1 1 1 1 1 1 1 1 1 1 1 1 1 1 1 1 1 1 1 1 1 1 1 1 1 1 1 1 1 1 1 1 1 1 1 1 1 1 1 1 1 1 1 1 1 1 1 1 1 1 1 1 1 1 1 1 1 1 1 1 1 1 1 1 1 1 1 1 1 1 1 1 1 1 1 1 1 1 1 1 1 1 1 1 1 1 1 1 1 1 1 1 1 1 1 1 1 1 1 1 1 1 1 1 1 1 1 1 1 1 1 1 1 1 1 1 1 1 1 1 1 1 1 1 1 1 1 1 1 1 1 1 1 1 1 1 1 1 1 1 1 1 1 1 1 1 1 1 1 1 1 1 1 1 1 1 1 1 1 1 1 1 1 1 1 1 1 1 1 1 1 1 1 1 1 1 1 1 1 1 1 1 1 1 1 1 1 1 1 1 1 1 1 1 1 1 1 1 1 1 1 1 1 1 1 1 1 1 1 1 1 1 1 1 1 1 1 1 1 1 1 1 1 1 1 1 1 1 1 1 1 1 1 1 1 1 1 1 1 1 1 1 1 1 1 1 1 1 1 1 1 1 1 1 1 1 1 1 1 1 1 1 1 1 1 1 1 1 1 1 1 1 1 1 1 1 1 1 1 1 1 1 1 1 1 1 1 1 1 1 1 1 1 1 1 1 1 1 1 1 1 1 1 1 1 1 1 1 1 1 1 1 1 1 1 1 1 1 1 1 1 1 1 1 1 1 1 1 1 1 1 1 1 1 1 1 1 1 1 1 1 1 1 1 1 1 1 1 1 1 1 1 1 1 1 1 1 1 1 1 1 1 1 1 1 1 1 1 1 1 1 1 1 1 1 1 1 1 1 1 1 1 1 1 1 1 1 1 1 1 1 1 1 1 1 1 1 1 1 1 1 1 1 1 1 1 1 1 1 1 1 1 1 1 1 1 1 1 1 1 1 1 1 1 1 1 1 1 1 1 1 1 1 1 1 1 1 1 1 1 1 1 1 1 1 1 1 1 1 1 1 1 1 1 1 1 1 1 1 1 1 1 1 1 1 1 1 1 1 1 1 1 1 1 1 1 1 1 1 1 1 1 1 1 1 1 1 1 1 1 1 1 1 1 1 1 1 1 1 1 1 1 1 1 1 1 1 1 1 1 1 1 1 1 1 1 1 1 1 1 1 1 1 1 1 1 1 1 1 1 1 1 1 1 1 1 1 1 1 1 1 1 1 1 1 1 1 1 1 1 1 1 1 1 1 1 1 1 1 1 1 1 1 1 1 1 1 1 1 1 1 1 1 1 1 1 1 1 1 1 1 1 1 1 1 1 1 1 1 1 1 1 1 1 1 1 1 1 1 1 1 1 1 1 1 1 1 1 1 1 1 1 1 1 1 1 1 1 1 1 1 1 1 1 1 1 1 1 1 1 1 1 1 1 1 1 1 1 1 1 1 1 1 1 1 1 1 1 1 1 1 1 1 1 1 1 1 1 1 1 1 1 1 1 1 1 1 1 1 1 1 1 1 1 1 1 1 1 1 1 1 1 1 1 1 1 1 1 1 1 1 1 1 1 1 1 1 1 1 1 1 1 1 1 1 1 1 1 1 1 1 1 1 1 1 1 1 1 1 1 1 1 1 1 1 1 1 1 1 1 1 1 1 1 1 1 1 1 1 1 1 1 1 1 1 1 1 1 1 1 1 1 1 1 1 1 1 1 1 1 1 1 1 1 1 1 1 1 1 1 1 1 1 1 1 1 1 1 1 1 1 1 1 1 1 1 1 1 1 1 1 1 1 1 1 1 1 1 1 1 1 1 1 1 1 1 1 1 1 1 1 1 1 1 1 1 1 1 1 1 1 1 1 1 1 1 1 1 1 1 1 1 1 1 1 1 1 1 1 1 1 1 1 1 1 1 1 1 1 1 1 1 1 1 1 1 1 1 1 1 1 1 1 1 1 1 1 1 1 1 1 1 1 1 1 1 1 1 1 1 1 1 1 1 1 1 1 1 1 1 1 1 1 1 1 1 1 1 1 1 1 1 1 1 1 1 1 1 1 1 1 1 1 1 1 1 1 1 1 1 1 1 1 1 1 1 1 1 1 1 1 1 1 1 1 1 1 1 1 1 1 1 1 1 1 1 1 1 1 1 1 1 1 1 1 1 1 1 1 1 1 1 1 1 1 1 1 1 1 1 1 1 1 1 1 1 1 1 1 1 1 1 1 1 1 1 1 1 1 1 1 1 1 1 1 1 1 1 1 1 1 1 1 1 1 1 1 1 1 1 1 1 1 1 1 1 1 1 1 1 1 1 1 1 1 1 1 1 1 1 1 1 1 1 1 1 1 1 1 1 1 1 1 1 1 1 1 1 1 1 1 1 1 1 1 1 1 1 1 1 1 1 1 1 1 1 1 1 1 1 1 1 1 1 1 1 1 1 1 1 1 1 1 1 1 1 1 1 1 1 1 1 1 1 1 1 1 1 1 1 1 1 1 1 1 1 1 1 1 1 1 1 1 1 1 1 1 1 1 1 1 1 1 1 1 1 1 1 1 1 1 1 1 1 1 1 1 1 1 1 1 1 1 1 1 1 1 1 1 1 1 1 1 1 1 1 1 1 1 1 1 1 1 1 1 1 1 1 1 1 1 1 1 1 1 1 1 1 1 1 1 1 1 1 1 1 1 1 1 1 1 1 1 1 1 1 1 1 1 1 1 1 1 1 1 1 1 1 1 1 1 1 1 1 1 1 1 1 1 1 1 1 1 1 1 1 1 1 1 1 1 1 1 1 1 1 1 1 1 1 1 1 1 1 1 1 1 1 1 1 1 1 1 1 1 1 1 1 1 1 1 1 1 1 1 1 1 1 1 1 1 1 1 1 1 1 1 1 1 1 1 1 1 1 1 1 1 1 1 1 1 1 1 1 1 1 1 1 1 1 1 1 1 1 1 1 1 1 1 1 1 1 1 1 1 1 1 1 1 1 1 1 1 1 1 1 1 1 1 1 1 1 1 1 1 1 1 1 1 1 1 1 1 1 1 1 1 1 1 1 1 1 1 1 1 1 1 1 1 1 1 1 1 1 1 1 1 1 1 1 1 1 1 1 1 1 1 1 1 1 1 1 1 1 1 1 1 1 1 1 1 1 1 1 1 1 1 1 1 1 1 1 1 1 1 1 1 1 1 1 1 1 1 1 1 1 1 1 1 1 1 1 1 1 1 1 1 1 1 1 1 1 1 1 1 1 1 1 1 1 1 1 1 1 1 1 1 1 1 1 1 1 1 1 1 1 1 1 1 1 1 1 1 1 1 1 1 1 1 1 1 1 1 1 1 1 1 1 1 1 1 1 1 1 1 1 1 1 1 1 1 1 1 1 1 1 1 1 1 1 1 1 1 1 1 1 1 1 1 1 1 1 1 1 1 1 1 1 1 1 1 1 1 1 1 1 1 1 1 1 1 1 1 1 1 1 1 1 1 1 1 1 1 1 1 1 1 1 1 1 1 1 1 1 1 1 1 1 1 1 1 1 1 1 1 1 1 1 1 1 1 1 1 1 1 1 1 1 1 1 1 1 1 1 1 1 1 1 1 1 1 1 1 1 1 1 1 1 1 1 1 1 1 1 1 1 1 1 1 1 1 1 1 1 1 1 1 1 1 1 1 1 1 1 1 1 1 1 1 1 1 1 1 1 1 1 1 1 1 1 1 1 1 1 1 1 1 1 1 1 1 1 1 1 1 1 1 1 1 1 1 1 1 1 1 1 1 1 1 1 1 1 1 1 1 1 1 1 1 1 1 1 1 1 1 1 1 1 1 1 1 1 1 1 1 1 1 1 1 1 1 1 1 1 1 1 1 1 1 1 1 1 1 1 1 1 1 1 1 1 1 1 1 1 1" order="50 50" result="filterResult1"/><feConvolveMatrix divisor="2500" in="filterResult1" kernelMatrix="1 1 1 1 1 1 1 1 1 1 1 1 1 1 1 1 1 1 1 1 1 1 1 1 1 1 1 1 1 1 1 1 1 1 1 1 1 1 1 1 1 1 1 1 1 1 1 1 1 1 1 1 1 1 1 1 1 1 1 1 1 1 1 1 1 1 1 1 1 1 1 1 1 1 1 1 1 1 1 1 1 1 1 1 1 1 1 1 1 1 1 1 1 1 1 1 1 1 1 1 1 1 1 1 1 1 1 1 1 1 1 1 1 1 1 1 1 1 1 1 1 1 1 1 1 1 1 1 1 1 1 1 1 1 1 1 1 1 1 1 1 1 1 1 1 1 1 1 1 1 1 1 1 1 1 1 1 1 1 1 1 1 1 1 1 1 1 1 1 1 1 1 1 1 1 1 1 1 1 1 1 1 1 1 1 1 1 1 1 1 1 1 1 1 1 1 1 1 1 1 1 1 1 1 1 1 1 1 1 1 1 1 1 1 1 1 1 1 1 1 1 1 1 1 1 1 1 1 1 1 1 1 1 1 1 1 1 1 1 1 1 1 1 1 1 1 1 1 1 1 1 1 1 1 1 1 1 1 1 1 1 1 1 1 1 1 1 1 1 1 1 1 1 1 1 1 1 1 1 1 1 1 1 1 1 1 1 1 1 1 1 1 1 1 1 1 1 1 1 1 1 1 1 1 1 1 1 1 1 1 1 1 1 1 1 1 1 1 1 1 1 1 1 1 1 1 1 1 1 1 1 1 1 1 1 1 1 1 1 1 1 1 1 1 1 1 1 1 1 1 1 1 1 1 1 1 1 1 1 1 1 1 1 1 1 1 1 1 1 1 1 1 1 1 1 1 1 1 1 1 1 1 1 1 1 1 1 1 1 1 1 1 1 1 1 1 1 1 1 1 1 1 1 1 1 1 1 1 1 1 1 1 1 1 1 1 1 1 1 1 1 1 1 1 1 1 1 1 1 1 1 1 1 1 1 1 1 1 1 1 1 1 1 1 1 1 1 1 1 1 1 1 1 1 1 1 1 1 1 1 1 1 1 1 1 1 1 1 1 1 1 1 1 1 1 1 1 1 1 1 1 1 1 1 1 1 1 1 1 1 1 1 1 1 1 1 1 1 1 1 1 1 1 1 1 1 1 1 1 1 1 1 1 1 1 1 1 1 1 1 1 1 1 1 1 1 1 1 1 1 1 1 1 1 1 1 1 1 1 1 1 1 1 1 1 1 1 1 1 1 1 1 1 1 1 1 1 1 1 1 1 1 1 1 1 1 1 1 1 1 1 1 1 1 1 1 1 1 1 1 1 1 1 1 1 1 1 1 1 1 1 1 1 1 1 1 1 1 1 1 1 1 1 1 1 1 1 1 1 1 1 1 1 1 1 1 1 1 1 1 1 1 1 1 1 1 1 1 1 1 1 1 1 1 1 1 1 1 1 1 1 1 1 1 1 1 1 1 1 1 1 1 1 1 1 1 1 1 1 1 1 1 1 1 1 1 1 1 1 1 1 1 1 1 1 1 1 1 1 1 1 1 1 1 1 1 1 1 1 1 1 1 1 1 1 1 1 1 1 1 1 1 1 1 1 1 1 1 1 1 1 1 1 1 1 1 1 1 1 1 1 1 1 1 1 1 1 1 1 1 1 1 1 1 1 1 1 1 1 1 1 1 1 1 1 1 1 1 1 1 1 1 1 1 1 1 1 1 1 1 1 1 1 1 1 1 1 1 1 1 1 1 1 1 1 1 1 1 1 1 1 1 1 1 1 1 1 1 1 1 1 1 1 1 1 1 1 1 1 1 1 1 1 1 1 1 1 1 1 1 1 1 1 1 1 1 1 1 1 1 1 1 1 1 1 1 1 1 1 1 1 1 1 1 1 1 1 1 1 1 1 1 1 1 1 1 1 1 1 1 1 1 1 1 1 1 1 1 1 1 1 1 1 1 1 1 1 1 1 1 1 1 1 1 1 1 1 1 1 1 1 1 1 1 1 1 1 1 1 1 1 1 1 1 1 1 1 1 1 1 1 1 1 1 1 1 1 1 1 1 1 1 1 1 1 1 1 1 1 1 1 1 1 1 1 1 1 1 1 1 1 1 1 1 1 1 1 1 1 1 1 1 1 1 1 1 1 1 1 1 1 1 1 1 1 1 1 1 1 1 1 1 1 1 1 1 1 1 1 1 1 1 1 1 1 1 1 1 1 1 1 1 1 1 1 1 1 1 1 1 1 1 1 1 1 1 1 1 1 1 1 1 1 1 1 1 1 1 1 1 1 1 1 1 1 1 1 1 1 1 1 1 1 1 1 1 1 1 1 1 1 1 1 1 1 1 1 1 1 1 1 1 1 1 1 1 1 1 1 1 1 1 1 1 1 1 1 1 1 1 1 1 1 1 1 1 1 1 1 1 1 1 1 1 1 1 1 1 1 1 1 1 1 1 1 1 1 1 1 1 1 1 1 1 1 1 1 1 1 1 1 1 1 1 1 1 1 1 1 1 1 1 1 1 1 1 1 1 1 1 1 1 1 1 1 1 1 1 1 1 1 1 1 1 1 1 1 1 1 1 1 1 1 1 1 1 1 1 1 1 1 1 1 1 1 1 1 1 1 1 1 1 1 1 1 1 1 1 1 1 1 1 1 1 1 1 1 1 1 1 1 1 1 1 1 1 1 1 1 1 1 1 1 1 1 1 1 1 1 1 1 1 1 1 1 1 1 1 1 1 1 1 1 1 1 1 1 1 1 1 1 1 1 1 1 1 1 1 1 1 1 1 1 1 1 1 1 1 1 1 1 1 1 1 1 1 1 1 1 1 1 1 1 1 1 1 1 1 1 1 1 1 1 1 1 1 1 1 1 1 1 1 1 1 1 1 1 1 1 1 1 1 1 1 1 1 1 1 1 1 1 1 1 1 1 1 1 1 1 1 1 1 1 1 1 1 1 1 1 1 1 1 1 1 1 1 1 1 1 1 1 1 1 1 1 1 1 1 1 1 1 1 1 1 1 1 1 1 1 1 1 1 1 1 1 1 1 1 1 1 1 1 1 1 1 1 1 1 1 1 1 1 1 1 1 1 1 1 1 1 1 1 1 1 1 1 1 1 1 1 1 1 1 1 1 1 1 1 1 1 1 1 1 1 1 1 1 1 1 1 1 1 1 1 1 1 1 1 1 1 1 1 1 1 1 1 1 1 1 1 1 1 1 1 1 1 1 1 1 1 1 1 1 1 1 1 1 1 1 1 1 1 1 1 1 1 1 1 1 1 1 1 1 1 1 1 1 1 1 1 1 1 1 1 1 1 1 1 1 1 1 1 1 1 1 1 1 1 1 1 1 1 1 1 1 1 1 1 1 1 1 1 1 1 1 1 1 1 1 1 1 1 1 1 1 1 1 1 1 1 1 1 1 1 1 1 1 1 1 1 1 1 1 1 1 1 1 1 1 1 1 1 1 1 1 1 1 1 1 1 1 1 1 1 1 1 1 1 1 1 1 1 1 1 1 1 1 1 1 1 1 1 1 1 1 1 1 1 1 1 1 1 1 1 1 1 1 1 1 1 1 1 1 1 1 1 1 1 1 1 1 1 1 1 1 1 1 1 1 1 1 1 1 1 1 1 1 1 1 1 1 1 1 1 1 1 1 1 1 1 1 1 1 1 1 1 1 1 1 1 1 1 1 1 1 1 1 1 1 1 1 1 1 1 1 1 1 1 1 1 1 1 1 1 1 1 1 1 1 1 1 1 1 1 1 1 1 1 1 1 1 1 1 1 1 1 1 1 1 1 1 1 1 1 1 1 1 1 1 1 1 1 1 1 1 1 1 1 1 1 1 1 1 1 1 1 1 1 1 1 1 1 1 1 1 1 1 1 1 1 1 1 1 1 1 1 1 1 1 1 1 1 1 1 1 1 1 1 1 1 1 1 1 1 1 1 1 1 1 1 1 1 1 1 1 1 1 1 1 1 1 1 1 1 1 1 1 1 1 1 1 1 1 1 1 1 1 1 1 1 1 1 1 1 1 1 1 1 1 1 1 1 1 1 1 1 1 1 1 1 1 1 1 1 1 1 1 1 1 1 1 1 1 1 1 1 1 1 1 1 1 1 1 1 1 1 1 1 1 1 1 1 1 1 1 1 1 1 1 1 1 1 1 1 1 1 1 1 1 1 1 1 1 1 1 1 1 1 1 1 1 1 1 1 1 1 1 1 1 1 1 1 1 1 1 1 1 1 1 1 1 1 1 1 1 1 1 1 1 1 1 1 1 1 1 1 1 1 1 1 1 1 1 1 1 1 1 1 1 1 1 1 1 1 1 1 1 1 1 1 1 1 1 1 1 1 1 1 1 1 1 1 1 1 1 1 1 1 1 1 1 1 1 1 1 1 1 1 1 1 1 1 1 1 1 1 1 1 1 1 1 1 1 1 1 1 1 1 1 1 1 1 1 1 1 1 1 1 1 1 1 1 1 1 1 1 1 1 1 1 1 1 1 1 1 1 1 1 1 1 1 1 1 1 1 1 1 1 1 1 1 1 1 1 1 1 1 1 1 1 1 1 1 1 1 1 1 1 1 1 1 1 1 1 1 1 1 1 1 1 1 1 1 1 1 1 1 1 1 1 1 1 1 1 1 1 1 1 1 1 1 1 1 1 1 1 1 1 1 1 1 1 1 1 1 1 1 1 1 1 1 1 1 1 1 1 1 1 1 1 1 1 1 1 1 1 1 1 1 1 1 1 1 1 1 1 1 1 1 1 1 1 1 1 1 1 1 1 1 1 1 1 1 1 1 1 1 1 1 1 1 1 1 1 1 1 1 1 1 1 1 1 1 1 1 1 1 1 1 1 1 1 1 1 1 1 1 1 1 1 1 1 1 1 1 1 1 1 1 1 1 1 1 1 1 1 1 1 1 1 1 1 1 1 1 1 1 1 1 1 1 1 1 1 1 1 1 1 1 1 1 1 1 1 1 1 1 1 1 1 1 1 1 1 1 1 1 1 1 1 1 1 1 1 1 1 1 1 1 1 1 1 1 1 1 1 1 1 1 1 1 1 1 1 1 1 1 1 1 1 1 1 1 1 1 1 1 1 1 1 1 1 1 1 1 1 1 1 1 1 1 1 1 1 1 1 1 1 1 1 1 1 1 1 1 1 1 1 1 1 1 1 1 1 1 1 1 1 1 1 1 1 1 1 1 1 1 1 1 1 1 1 1 1 1 1 1 1 1 1 1 1 1 1 1 1 1 1 1 1 1 1 1 1 1 1 1 1 1 1 1 1 1 1 1 1 1 1 1 1 1 1 1 1 1 1 1 1 1 1 1 1 1 1 1 1 1 1 1 1 1 1 1 1 1 1 1 1 1 1 1 1 1 1 1 1 1 1 1 1 1 1 1 1 1 1 1 1 1 1 1 1 1 1 1 1 1 1 1 1 1 1 1 1 1 1 1 1 1 1 1 1 1 1 1 1 1 1 1 1 1 1 1 1 1 1 1 1 1 1 1 1 1 1 1 1 1 1 1 1 1 1 1 1 1 1 1 1 1 1 1 1 1 1 1 1 1 1 1 1 1 1 1 1 1 1 1 1 1 1 1 1 1 1 1 1 1 1 1 1 1 1 1 1 1 1 1 1 1 1" order="50 50" result="filterResult2"/></filter><use ffdec:characterId="50" filter="url(#ae)" height="180.8" width="232.8" xlink:href="#af"/></g><g id="ad" fill-rule="evenodd"><path d="m33.65 18 1-1.15.35-.25q.65-.45 1.45-.7l3.2-.2q4.25 1.45 3.5 5.5 1.95 1.85.4 3.95-2.6 2.55-6.55 1.6h-.05q-1.6 1-3.85.95-3.3.05-5-2.4-.3-1.3.05-2.4.25-.85.95-1.55l.65-.65 1-.6.2-.1 1.3-.25.55.05.2-.55.65-1.25m4.4-1.3h-.3q-2.5.2-3.75 2.15l-.55 1.1q1.05.4 1.6 1.75-.85-.55-1.7-.7l-2.35.1q-1.9 1.1-1.7 2.7v.05q.1.75.65 1.6 3.7 2.5 8.7-.2l-1.2 1.2q2.7-.3 4.8-1.65 1.55-1.35.85-3.3-.85.95-1.95 1.55 1.2-1.75.9-3.75-1.35-2.5-4-2.6m-31.3 2.65 2.15-.5H10l1.45.2h.05l.7.2.85.35 1 .5 1.85 1.45.85 1.3.1.45 1.25-.2 2.25.45.15.05q2.6 1.45 2.5 4.25-.65 4.5-5.7 5.8-3.3.45-7.3-1.25-1.45 1.45-3.75 1-4.7-1.2-5.25-5.6.2-5.1 3.75-6.15.6-1.6 2-2.3m3.3.45-1.25.05q-2.5.25-3.3 2.85-2.15.2-2.9 3.65-.1 1.5.4 2.6.75 1.85 2.95 2.75 2.7.25 5.35-1.45l-.65 1.25q2.25 1.05 5.05.95 5.6-1 5.65-5.55v-.05q-.45-1.6-1.7-2.35-1.05-.6-2.65-.6v.15q-.1 1.8-2.3 2.55 1.8-1.5 1.1-3.55-2.45-3-5.75-3.25" fill="#58c8d9" transform="translate(-1 -7.55)"/><path d="M38.05 16.7q2.65.1 4 2.6.3 2-.9 3.75 1.1-.6 1.95-1.55.7 1.95-.85 3.3-2.1 1.35-4.8 1.65l1.2-1.2q-5 2.7-8.7.2-.55-.85-.65-1.6.7 1 2.3 1.3 1.9-.1 3.15-1.4.4-1.9-1.4-2.75.85.15 1.7.7-.55-1.35-1.6-1.75l.55-1.1q2.05.8 3.25 1.8 1-.8 1.5-2.3l-.7-1.65M3 28.95q1.95 1.35 3.95 1.45 2.65 0 4.6-1.75l.15.15q.4.4 1 .4.55 0 .95-.4.4-.4.4-1 0-.55-.4-.95-.3-.35-.75-.4 1.15-3.7-2.85-6.65 3.3.25 5.75 3.25.7 2.05-1.1 3.55 2.2-.75 2.3-2.55v-.15q1.6 0 2.65.6l-.7-.1q-1 0-1.7.7-.7.65-.7 1.65 0 .95.7 1.6.7.7 1.7.7t1.7-.7q.65-.6.7-1.45-.05 4.55-5.65 5.55-2.8.1-5.05-.95l.65-1.25q-2.65 1.7-5.35 1.45-2.2-.9-2.95-2.75" fill="#a7f3ff" transform="translate(-1 -7.55)"/><path d="M26.1 10.35q.35.45.35 1.05l-.05.45-.55.9-.3.25-1.15.3-1.3-.45-.1-.1q-.6-.55-.6-1.35v-.05q0-.75.6-1.3l.05-.05q.55-.5 1.35-.5.85 0 1.45.55l.25.3M31 12q-1.25-.9-2.7-1.55Q25.95 9.4 23 9.2l-4.15.5q-3.05.75-5.35 2.65-2.85 2.35-4.6 6.5l-2.15.5Q11.3 7.9 22.45 7.55q8.15.2 14 8.35-.8.25-1.45.7-1.65-2.8-4-4.6m3 6.85q1.25-1.95 3.75-2.15h.3l.7 1.65q-.5 1.5-1.5 2.3-1.2-1-3.25-1.8m-4.7 5v-.05q-.2-1.6 1.7-2.7l2.35-.1q1.8.85 1.4 2.75-1.25 1.3-3.15 1.4-1.6-.3-2.3-1.3m-2.35-3.9q1.2.45 2.15 1.4-.7.7-.95 1.55-4.35-2.25-7.8.65l-2.25-.45q.85-1.35 2.1-2.2 1.45-1 3.4-1.35 1.85-.15 3.35.4m-5.7-7.4-.15.45-.2.1-.25.05-.4-.15-.2-.45.2-.4.4-.2.45.2.15.4M3 28.95q-.5-1.1-.4-2.6.75-3.45 2.9-3.65.8-2.6 3.3-2.85l1.25-.05q4 2.95 2.85 6.65.45.05.75.4.4.4.4.95 0 .6-.4 1t-.95.4q-.6 0-1-.4l-.15-.15Q9.6 30.4 6.95 30.4q-2-.1-3.95-1.45m16.65-4.45q1.25.75 1.7 2.35v.05q-.05.85-.7 1.45-.7.7-1.7.7t-1.7-.7q-.7-.65-.7-1.6 0-1 .7-1.65.7-.7 1.7-.7l.7.1" fill="#fff" transform="translate(-1 -7.55)"/><path d="m27.5 13.55-.6.7-.6.55-3.55-.3-1.9.35-.75-.6-.6-.7 1.4-.4 1.65-.3h.55l1.3.45 1.15-.3 1.95.55m-9.05 2.3.05.25-.25.55-.6.25-.55-.15-.1-.1-.25-.55q0-.35.25-.6t.65-.25l.6.25.2.35" fill="#e7ff54" transform="translate(-1 -7.55)"/><path d="m28.05 19.2 1.7 1.5-.65.65q-.95-.95-2.15-1.4l1.1-.75m-11.3 3.65q.85-1.4 1.85-2.45l1.6.5q-1.25.85-2.1 2.2l-1.25.2-.1-.45" fill="#b62a22" transform="translate(-1 -7.55)"/><path d="m28.05 19.2.45-.45.55-.5 1.7 1.85-1 .6-1.7-1.5m-10.9.45 1.45.75q-1 1.05-1.85 2.45l-.85-1.3q.55-1.1 1.25-1.9" fill="#cba526" transform="translate(-1 -7.55)"/><path d="m30.75 20.1-1.7-1.85 1-1.25q1.2 1.1 2.2 2.75l-1.3.25-.2.1M15.5 18.2l.55.55 1.1.9q-.7.8-1.25 1.9l-1.85-1.45 1.45-1.9" fill="#cfd226" transform="translate(-1 -7.55)"/><path d="m30.05 17 .6-1.3q1.4 1.4 2.35 3.55l-.2.55-.55-.05q-1-1.65-2.2-2.75m-17 2.6q.55-1.5 1.45-2.65l1 1.25-1.45 1.9-1-.5" fill="#80d527" transform="translate(-1 -7.55)"/><path d="m30.65 15.7.35-1.35q1.65 1.45 2.65 3.65L33 19.25q-.95-2.15-2.35-3.55m-16.85-.4.7 1.65q-.9 1.15-1.45 2.65l-.85-.35-.7-.2q.85-2.15 2.3-3.75" fill="#31d97d" transform="translate(-1 -7.55)"/><path d="m31 14.35.1-1.2v-.4q2 1.6 3.55 4.1l-1 1.15q-1-2.2-2.65-3.65m-17.5-.95q0 1 .3 1.9-1.45 1.6-2.3 3.75h-.05l-1.45-.2q1.25-3.35 3.5-5.45" fill="#37a6b0" transform="translate(-1 -7.55)"/><path d="M34.65 16.85q-1.55-2.5-3.55-4.1L31 12q2.35 1.8 4 4.6l-.35.25m-25.75 2q1.75-4.15 4.6-6.5l-.05.8.05.25q-2.25 2.1-3.5 5.45H8.9" fill="#735db4" transform="translate(-1 -7.55)"/><path d="M18.6 20.4q2.05-2 4.7-2.45 2.65-.2 4.75 1.25l-1.1.75q-1.5-.55-3.35-.4-1.95.35-3.4 1.35l-1.6-.5" fill="#eb3535" transform="translate(-1 -7.55)"/><path d="m29.05 18.25-.55.5-.45.45q-2.1-1.45-4.75-1.25-2.65.45-4.7 2.45l-1.45-.75q2.25-2.75 6.15-3.1 3.4-.25 5.75 1.7" fill="#ffce3a" transform="translate(-1 -7.55)"/><path d="M26.3 14.8q2.05.6 3.75 2.2l-1 1.25q-2.35-1.95-5.75-1.7-3.9.35-6.15 3.1l-1.1-.9-.55-.55 1.6-1.45.55.15.6-.25.25-.55-.05-.25q1.1-.65 2.4-1 1.15.85 2.65.85 1.55 0 2.8-.9" fill="#ffff3a" transform="translate(-1 -7.55)"/><path d="M27.5 13.55q1.8.7 3.15 2.15l-.6 1.3q-1.7-1.6-3.75-2.2l.6-.55.6-.7m-6.65 1.3q-1.3.35-2.4 1l-.2-.35-.6-.25q-.4 0-.65.25t-.25.6l.25.55.1.1-1.6 1.45-1-1.25q1.8-2.35 5-3.4l.6.7.75.6" fill="#9cff3a" transform="translate(-1 -7.55)"/><path d="M28.05 12.45q1.65.7 2.95 1.9l-.35 1.35q-1.35-1.45-3.15-2.15l.55-1.1M13.8 15.3q2-2.25 5.05-3.3l.65 1.55q-3.2 1.05-5 3.4l-.7-1.65" fill="#3affb6" transform="translate(-1 -7.55)"/><path d="m28.05 12.45.25-1.35q1.5.6 2.8 1.65v.4l-.1 1.2q-1.3-1.2-2.95-1.9m-9.3-1.9-.05.25q0 .6.15 1.2-3.05 1.05-5.05 3.3-.3-.9-.3-1.9 2.15-2 5.25-2.85" fill="#41c2ff" transform="translate(-1 -7.55)"/><path d="M31.1 12.75q-1.3-1.05-2.8-1.65v-.65q1.45.65 2.7 1.55l.1.75m-17.6-.4q2.3-1.9 5.35-2.65l-.1.85q-3.1.85-5.25 2.85l-.05-.25.05-.8" fill="#8669ff" transform="translate(-1 -7.55)"/><path d="M26.3 14.8q-1.25.9-2.8.9-1.5 0-2.65-.85l1.9-.35 3.55.3" fill="#ffff54" transform="translate(-1 -7.55)"/><path d="m26.4 11.85 1.65.6-.55 1.1-1.95-.55.3-.25.55-.9m-7.55.15 2.55-.65h1v.05q0 .8.6 1.35l.1.1h-.55l-1.65.3-1.4.4-.65-1.55m2.4.55-.15-.4-.45-.2-.4.2-.2.4.2.45.4.15.25-.05.2-.1.15-.45" fill="#67ffd7" transform="translate(-1 -7.55)"/><path d="m28.3 11.1-.25 1.35-1.65-.6.05-.45q0-.6-.35-1.05l2.2.75m-9.45.9q-.15-.6-.15-1.2l.05-.25L21.8 10H23v.05q-.6.55-.6 1.3h-1l-2.55.65" fill="#73f2ff" transform="translate(-1 -7.55)"/><path d="m28.3 11.1-2.2-.75-.25-.3q-.6-.55-1.45-.55-.8 0-1.35.5H21.8l-3.05.55.1-.85L23 9.2q2.95.2 5.3 1.25v.65" fill="#e2beff" transform="translate(-1 -7.55)"/></g><radialGradient cx="0" cy="0" gradientTransform="translate(29.65 30.15) scale(.0407)" gradientUnits="userSpaceOnUse" id="t" r="819.2" spreadMethod="pad"><stop offset="0" stop-color="#c7cdff"/><stop offset="1" stop-color="#f3e5ff"/></radialGradient><radialGradient cx="0" cy="0" gradientTransform="translate(32.5 24) scale(.0174)" gradientUnits="userSpaceOnUse" id="u" r="819.2" spreadMethod="pad"><stop offset="0" stop-color="#62b1fd"/><stop offset="1" stop-color="#7feffa"/></radialGradient><radialGradient cx="0" cy="0" gradientTransform="translate(14.2 35.7) scale(.0225)" gradientUnits="userSpaceOnUse" id="v" r="819.2" spreadMethod="pad"><stop offset="0" stop-color="#1b4071"/><stop offset="1" stop-color="#5a7aa5"/></radialGradient><radialGradient cx="0" cy="0" gradientTransform="translate(24.7 39.45) scale(.0117)" gradientUnits="userSpaceOnUse" id="w" r="819.2" spreadMethod="pad"><stop offset="0" stop-color="#3d50a6"/><stop offset="1" stop-color="#7790fc"/></radialGradient><radialGradient cx="0" cy="0" gradientTransform="translate(20.85 33.65) scale(.0133)" gradientUnits="userSpaceOnUse" id="x" r="819.2" spreadMethod="pad"><stop offset="0" stop-color="#394ca0"/><stop offset="1" stop-color="#738cf7"/></radialGradient><radialGradient cx="0" cy="0" gradientTransform="translate(18.75 12.65) scale(.0152)" gradientUnits="userSpaceOnUse" id="y" r="819.2" spreadMethod="pad"><stop offset="0" stop-color="#55e1fa"/><stop offset="1" stop-color="#82f6fa"/></radialGradient><radialGradient cx="0" cy="0" gradientTransform="translate(17.4 23.15) scale(.0243)" gradientUnits="userSpaceOnUse" id="z" r="819.2" spreadMethod="pad"><stop offset="0" stop-color="#c7cdff"/><stop offset="1" stop-color="#f3e5ff"/></radialGradient><radialGradient cx="0" cy="0" gradientTransform="translate(24.9 25.1) scale(.0226)" gradientUnits="userSpaceOnUse" id="A" r="819.2" spreadMethod="pad"><stop offset="0" stop-color="#1c4172"/><stop offset="1" stop-color="#5a7aa5"/></radialGradient><radialGradient cx="0" cy="0" gradientTransform="translate(33.9 81.6) scale(.0086)" gradientUnits="userSpaceOnUse" id="F" r="819.2" spreadMethod="pad"><stop offset="0" stop-color="#ffbdd4"/><stop offset="1" stop-color="#ff97cc"/></radialGradient><radialGradient cx="0" cy="0" gradientTransform="translate(35.4 80.1) scale(.0076)" gradientUnits="userSpaceOnUse" id="G" r="819.2" spreadMethod="pad"><stop offset="0" stop-color="#ffecf2"/><stop offset="1" stop-color="#ffd3ef"/></radialGradient><radialGradient cx="0" cy="0" gradientTransform="translate(66.45 81) scale(.0123)" gradientUnits="userSpaceOnUse" id="H" r="819.2" spreadMethod="pad"><stop offset="0" stop-color="#ffbdd4"/><stop offset="1" stop-color="#ff97cc"/></radialGradient><radialGradient cx="0" cy="0" gradientTransform="translate(68.55 74.7) scale(.0036)" gradientUnits="userSpaceOnUse" id="I" r="819.2" spreadMethod="pad"><stop offset="0" stop-color="#ffe2e4"/><stop offset="1" stop-color="#ffbadb"/></radialGradient><radialGradient cx="0" cy="0" gradientTransform="translate(64.05 77.25) scale(.0102)" gradientUnits="userSpaceOnUse" id="J" r="819.2" spreadMethod="pad"><stop offset="0" stop-color="#ffecf2"/><stop offset="1" stop-color="#ffd3ef"/></radialGradient><radialGradient cx="0" cy="0" gradientTransform="translate(64.8 79.8) scale(.0101)" gradientUnits="userSpaceOnUse" id="K" r="819.2" spreadMethod="pad"><stop offset="0" stop-color="#ffe2e4"/><stop offset="1" stop-color="#ffbadb"/></radialGradient><radialGradient cx="0" cy="0" gradientTransform="matrix(.0086 -.0001 0 .0086 35.1 7.45)" gradientUnits="userSpaceOnUse" id="O" r="819.2" spreadMethod="pad"><stop offset="0" stop-color="#912749"/><stop offset="1" stop-color="#4a1340"/></radialGradient><radialGradient cx="0" cy="0" gradientTransform="matrix(.0061 -.0001 0 .0061 37 7.7)" gradientUnits="userSpaceOnUse" id="P" r="819.2" spreadMethod="pad"><stop offset="0" stop-color="#e96b86"/><stop offset="1" stop-color="#7e3077"/></radialGradient><radialGradient cx="0" cy="0" gradientTransform="matrix(.0083 -.0001 0 .0083 37.5 10.1)" gradientUnits="userSpaceOnUse" id="Q" r="819.2" spreadMethod="pad"><stop offset="0" stop-color="#fbecdf"/><stop offset="1" stop-color="#b76081"/></radialGradient><radialGradient cx="0" cy="0" gradientTransform="matrix(-.0041 .0023 .0031 .0076 6.05 11.1)" gradientUnits="userSpaceOnUse" id="R" r="819.2" spreadMethod="pad"><stop offset="0" stop-color="#912749"/><stop offset="1" stop-color="#4a1340"/></radialGradient><radialGradient cx="0" cy="0" gradientTransform="matrix(-.0029 .0017 .0022 .0054 5.25 11.9)" gradientUnits="userSpaceOnUse" id="S" r="819.2" spreadMethod="pad"><stop offset="0" stop-color="#e96b86"/><stop offset="1" stop-color="#7e3077"/></radialGradient><radialGradient cx="0" cy="0" gradientTransform="matrix(-.004 .0023 .003 .0073 5.9 14.1)" gradientUnits="userSpaceOnUse" id="T" r="819.2" spreadMethod="pad"><stop offset="0" stop-color="#fbecdf"/><stop offset="1" stop-color="#b76081"/></radialGradient><radialGradient cx="0" cy="0" gradientTransform="translate(79.9 68.9) scale(.0673)" gradientUnits="userSpaceOnUse" id="U" r="819.2" spreadMethod="pad"><stop offset="0" stop-color="#3648de"/><stop offset="1" stop-color="#5e82e3"/></radialGradient><radialGradient cx="0" cy="0" gradientTransform="translate(52.15 46.85) scale(.0429)" gradientUnits="userSpaceOnUse" id="V" r="819.2" spreadMethod="pad"><stop offset="0" stop-color="#5e77e3"/><stop offset="1" stop-color="#5e92e3"/></radialGradient><radialGradient cx="0" cy="0" gradientTransform="translate(38.05 10.25) scale(.0124)" gradientUnits="userSpaceOnUse" id="Y" r="819.2" spreadMethod="pad"><stop offset="0" stop-color="#d93828"/><stop offset=".427" stop-color="#77100d"/></radialGradient><radialGradient cx="0" cy="0" gradientTransform="translate(38.9 11.55) scale(.0138)" gradientUnits="userSpaceOnUse" id="Z" r="819.2" spreadMethod="pad"><stop offset="0" stop-color="#fc5c43"/><stop offset="1" stop-color="#e31712"/></radialGradient><radialGradient cx="0" cy="0" gradientTransform="translate(3.35 8.25) scale(.0099)" gradientUnits="userSpaceOnUse" id="aa" r="819.2" spreadMethod="pad"><stop offset="0" stop-color="#de3a2a"/><stop offset=".533" stop-color="#77100d"/></radialGradient><radialGradient cx="0" cy="0" gradientTransform="translate(3.05 9.8) scale(.0102)" gradientUnits="userSpaceOnUse" id="ab" r="819.2" spreadMethod="pad"><stop offset="0" stop-color="#fc5c43"/><stop offset="1" stop-color="#e31712"/></radialGradient><radialGradient cx="0" cy="0" gradientTransform="translate(117.6 92.8) scale(.1454)" gradientUnits="userSpaceOnUse" id="ay" r="819.2" spreadMethod="pad"><stop offset=".631" stop-color="#f7f968" stop-opacity=".557"/><stop offset="1" stop-color="#f0f668" stop-opacity=".071"/></radialGradient><use ffdec:characterId="2" height="30.95" width="24.75" xlink:href="#ag" id="c"/><use ffdec:characterId="4" height="38.15" width="36.45" xlink:href="#ah" id="d"/><use ffdec:characterId="6" height="43.4" width="51" xlink:href="#ai" id="r"/><use ffdec:characterId="8" height="36.7" width="43.4" xlink:href="#aj" id="s"/><use ffdec:characterId="11" height="18.15" width="17.6" xlink:href="#ak" id="f"/><use ffdec:characterId="13" height="33.65" width="53.5" xlink:href="#al" id="g"/><use ffdec:characterId="15" height="16.7" width="19.6" xlink:href="#am" id="h"/><use ffdec:characterId="17" height="17.8" width="19.2" xlink:href="#an" id="i"/><use ffdec:characterId="20" height="38.55" width="34" xlink:href="#ao" id="L"/><use ffdec:characterId="22" height="27.15" width="36.65" xlink:href="#ap" id="M"/><use ffdec:characterId="24" height="39.9" width="49.65" xlink:href="#aq" id="N"/><use ffdec:characterId="27" height="18.1" width="45.05" xlink:href="#ar" id="D"/><use ffdec:characterId="32" height="43" width="45.25" xlink:href="#as" id="k"/><use ffdec:characterId="34" height="40.45" width="54.15" xlink:href="#at" id="l"/><use ffdec:characterId="43" height="14.1" width="15.55" xlink:href="#au" id="n"/><use ffdec:characterId="45" height="29.15" width="53.4" xlink:href="#av" id="o"/><use ffdec:characterId="47" height="30.15" width="57.8" xlink:href="#aw" id="p"/><use ffdec:characterId="49" height="180.8" width="232.8" xlink:href="#ax" id="af"/><path d="M26.15-.6q0 1.75-7.7 3Q10.8 3.7-.05 3.7T-18.6 2.4q-7.65-1.25-7.65-3 0-1.8 7.65-3.05L-.05-4.9l18.5 1.25q7.7 1.25 7.7 3.05" fill-opacity=".349" fill-rule="evenodd" transform="translate(26.25 4.9)" id="b"/><path d="M116.4 0q48.2 0 82.3 26.45 34.1 26.5 34.1 63.95t-34.1 63.9q-34.1 26.5-82.3 26.5-48.2 0-82.3-26.5Q0 127.85 0 90.4t34.1-63.95Q68.2 0 116.4 0" fill="url(#ay)" fill-rule="evenodd" id="ax"/></defs></svg>