<svg xmlns:ffdec="https://www.free-decompiler.com/flash" xmlns:xlink="http://www.w3.org/1999/xlink" ffdec:objectType="frame" height="90" width="90" xmlns="http://www.w3.org/2000/svg"><use ffdec:characterId="25" height="138.35" transform="translate(1.412 6.554) scale(.5662)" width="153" xlink:href="#a"/><defs><g id="a" transform="translate(.95 .7)"><use ffdec:characterId="1" height="9.8" transform="matrix(1.0615 0 0 2 65.792 118.05)" width="55.5" xlink:href="#b"/><use ffdec:characterId="3" height="25.4" transform="translate(87.3 103.4) scale(1.0524)" width="30.7" xlink:href="#c"/><use ffdec:characterId="8" height="63.8" transform="translate(-.947 59.75) scale(1.0524)" width="83.5" xlink:href="#d"/><use ffdec:characterId="10" height="17.45" transform="translate(70.65 106) scale(1.0524)" width="18.35" xlink:href="#e"/><use ffdec:characterId="12" height="18" transform="translate(108.85 77.3) scale(1.0524)" width="32" xlink:href="#f"/><use ffdec:characterId="14" height="12.7" transform="translate(65.8 94.1) scale(1.0524)" width="15.25" xlink:href="#g"/><use ffdec:characterId="16" height="28.3" transform="translate(71.85 83.85) scale(1.0524)" width="40.05" xlink:href="#h"/><use ffdec:characterId="18" height="12.7" transform="translate(107.3 87.45) scale(1.0524)" width="26.2" xlink:href="#i"/><use ffdec:characterId="24" height="94.6" transform="translate(56.45) scale(1.0524)" width="90.5" xlink:href="#j"/></g><g id="m" fill-rule="evenodd"><path d="m25.7 13.75 1.15-1.15q3 2.2 3.7 5.8.6 5.6-1.5 6.9-4.35.95-9.6-5.45l1.2-1.15q4.8 4.45 6.8 4.65l.95-.15q1.1-5.35-2.7-9.45" fill="#4b606c"/><path d="m20.65 18.7 4.5-4.45q3.2 5.45 2.3 9.1-2-.2-6.8-4.65" fill="#7e93aa"/><path d="m25.15 14.25.55-.5q3.8 4.1 2.7 9.45l-.95.15q.9-3.65-2.3-9.1" fill="#9cb4ce"/><path d="m19.85 2.2-.1-.1-.6-1.4 2-.7.25.9q5.95 5.25 6.45 12.45l-.95 1.55q-1.55 3.75-5.05 4.5-.9.7-2.05.8h-.05q-7.95-.5-15.05-5.4l-3.8-.2-.3-2.15 4.55.4q5.45 3.85 13 5.2l.15.05q2-.1 2.75.45 3.8-.65 4.9-4Q25.7 10.9 24.4 8v-.05Q23.2 5.3 21.1 3.3l-1.25-1.1" fill="#4b606c"/><path d="m19.15.7.6 1.4.1.1q-.1 3-.9 3.45.5-1.8-.4-4.75l.6-.2m1.95 2.6q2.1 2 3.3 4.65V8q2.5 9.4-6.1 10.05h-.15q-7.55-1.35-13-5.2l-4.55-.4-.25-2.2q1.95 1.2 5.05 1.9 5.95 5.5 14.1 2.75 4.2-4 1.6-11.6" fill="#7e93aa"/><path d="M24.4 8q1.3 2.9 1.55 6.55-1.1 3.35-4.9 4-.75-.55-2.75-.45v-.05Q26.9 17.4 24.4 8" fill="#9cb4ce"/><path d="m19.85 2.2 1.25 1.1q2.6 7.6-1.6 11.6-8.15 2.75-14.1-2.75-3.1-.7-5.05-1.9L0 7.4 18.55.9q.9 2.95.4 4.75.8-.45.9-3.45" fill="#fbfff8"/></g><g id="n" fill-rule="evenodd"><path d="m72.8 44.45-4.6 3.1q-12.6 9-26.2 9.5Q19.8 58 9.45 46.2-12.6 20.55 16.8 1q2.35-1.5 5.9-.7 2.55-.1 2.05 1.8-1.55 4.35-1 8.3-15.65 21.8 3.2 31.7 18.75-.3 34.65-9.9l13.3-8.55.05-.05 1.1 1.7-10.35 6.9-5.45 3.3q-16.7 9.15-33.9 8.4l-1.5-.8Q6.7 41.8 2.1 24.2q-.15 10.85 8.2 20.2 6.8 8.1 21.25 10.4l.7.05 1.7.1q20.9.95 34.1-10 1.5-.8 2.95-1.8l1.8 1.3M22.25 2.1q-4.25-.55-7.8 2.95-9.65 7.5-12 15.35 2.2 18.9 20.95 21.8Q6.85 31.55 21.65 9.85q-.5-3.65.6-7.75" fill="#652000"/><path d="m72.8 44.45-1.8-1.3q5.65-3.9 9.95-10.3l.95 1.45q-1.85 4.85-9.1 10.15" fill="#b13a10"/><path d="M71 43.15q-1.45 1-2.95 1.8-13.2 10.95-34.1 10 20.3-1.5 24.95-13.25-3.95 3.4-10.55 6-13.85 2-18.1 1.85 14.5-2.05 23.55-7.95 6.75-4.55 6.5-6l-.05-.1 5.45-3.3 10.35-6.9 4.9 7.55q-4.3 6.4-9.95 10.3M22.25 2.1q-1.1 4.1-.6 7.75-14.8 21.7 1.75 32.35Q4.65 39.3 2.45 20.4q2.35-7.85 12-15.35 3.55-3.5 7.8-2.95" fill="#f6bd31"/><path d="m33.95 54.95-1.7-.1-.7-.05Q17.1 52.5 10.3 44.4q-8.35-9.35-8.2-20.2 4.6 17.6 22.75 18.9l1.5.8q17.2.75 33.9-8.4l.05.1q.25 1.45-6.5 6-9.05 5.9-23.55 7.95 4.25.15 18.1-1.85 6.6-2.6 10.55-6-4.65 11.75-24.95 13.25" fill="#f7f094"/></g><g id="o" fill-rule="evenodd"><path d="m9.15 11.25 2.05.95Q8.25 18 2.55 17.4q-4.35-1.9-1.3-9.6l2.3 1q-2.1 2.85-1.3 5.6l.05.25q1.15 1.95 5-.55l1.2-1.45.05-.05.6-1.35" fill="#4b606c"/><path d="m3.55 8.8 5.6 2.45-.6 1.35-.05.05q-1.9-.05-4.2 1.7l-2.05.05q-.8-2.75 1.3-5.6" fill="#7e93aa"/><path d="M8.5 12.65 7.3 14.1q-3.85 2.5-5 .55l-.05-.25 2.05-.05q2.3-1.75 4.2-1.7" fill="#9cb4ce"/><path d="m4.35.95-.5 1.3-.05.1-.55 1.7Q2.5 7.6 4.35 10.4l.15.3v.05Q5.25 11.85 9 12q.55-.5 2.25-.65l5.35-1.05.75-.25-.7 2.05q-2.05 1.1-6.35 1.45l-5.5-1.3q-.6 0-2-2.4-.75-.2-1.7-1.6-.3-1.6-.15-4.2Q1 2.9 2.05 0l2.3.95" fill="#4b606c"/><path d="M17.8 8.7q-4.1-2.15-1.15.5-6.45 1.65-8.85.5-4-1.85-4.05-5.65l.05-1.7.05-.1.5-1.3 14 5.7-.55 2.05" fill="#fbfff8"/><path d="m3.8 2.35-.05 1.7Q3.8 7.85 7.8 9.7q2.4 1.15 8.85-.5-2.95-2.65 1.15-.5l-.45 1.35-.75.25-.15-.45q-6.5 1.5-11.95.9v-.05l-.15-.3Q2.5 7.6 3.25 4.05l.55-1.7" fill="#7e93aa"/><path d="M4.5 10.75q5.45.6 11.95-.9l.15.45-5.35 1.05Q9.55 11.5 9 12q-3.75-.15-4.5-1.25" fill="#9cb4ce"/></g><g id="p" fill-rule="evenodd"><path d="m20.3.05 3.6.45q4.55 5.35 7.35 10.95 2.1 2.05-1.65 2.95Q15.75 19.75 0 17.15l.2-.85 8.75.35H9q7.65-.75 20.65-4.05l-.6-1.1-.05-.05q-3.45-6-8.7-11.4" fill="#652000"/><path d="m29 11.45.05.05.6 1.1q-13 3.3-20.65 4.05l15.45-5.3 4.55.1" fill="#c474a2"/><path d="M.2 16.3Q4.2-.85 20.3.05q5.25 5.4 8.7 11.4l-4.55-.1L9 16.65h-.05L.2 16.3" fill="#b74d11"/></g><g id="q" fill-rule="evenodd"><path d="m8.85 4.85-.1-.1V4.7l.65-.85q.7-1.1 2.2-2.4l.6.45-1.75 2.35-.65.6q-.65.2-.95 0M14.4 3.7l.85.7q-.65 2.7-3.75 4.8-1.7 1.65-2.6 3.45l-.65-.7.05-.05q1.3-2.2 3.35-3.95 2.25-1.9 2.75-4.25" fill="#4b606c"/><path d="m12.2 1.9 2.2 1.8q-.5 2.35-2.75 4.25Q9.6 9.7 8.3 11.9h-.05l.45-7.05h.15l.4 3.1L11.6 5.7l-1.15-1.45L12.2 1.9" fill="#7e93aa"/><path d="M8.85 4.85q.3.2.95 0l.65-.6L11.6 5.7 9.25 7.95l-.4-3.1" fill="#fbfff8"/><path d="M8.9 11.9v.75H5.65q-6-1.55-5.6-7.45.7-1.8 2.2-2.7.3-2.5 2.5-2.5Q7.6 0 8.3 2.5q.8 1.45 1.25 1.2l.3 1.1-.95.1-.05-.05-.1-.15-1.4-1.85Q6.65.5 4.1 1.05q-1 .8-.75 1.3 1.4-.35 2.15 0l.25.3-.1.2q-1.1-.7-3.3.8l-.65.7Q.7 5.6.9 7.1q.9 2.65 3.05 3.85Q5.9 12 8.9 11.9" fill="#4b606c"/><path d="m1.7 4.35.65-.7q2.2-1.5 3.3-.8l.1-.2Q8.9 4.55 8.3 7.5q-1 2.5-4.45 1.95Q1.2 8.5 1.7 4.35" fill="#fbfff8"/><path d="M3.95 10.95Q1.8 9.75.9 7.1q-.2-1.5.8-2.75-.5 4.15 2.15 5.1Q7.3 10 8.3 7.5q.6-2.95-2.55-4.85l-.25-.3q-.75-.35-2.15 0-.25-.5.75-1.3Q6.65.5 7.35 2.85l1.4 1.85.1.15.05.05V11q-1.55.9-4.95-.05" fill="#7e93aa"/><path d="M8.9 11.9q-3 .1-4.95-.95 3.4.95 4.95.05v.9" fill="#9bb3cd"/></g><g id="r" fill-rule="evenodd"><path d="m30.15 11.5 3.2-.45q2.05 4.95 2.45 8.2l-1.65 1.45q-1.1-6.9-4-9.2" fill="#4b606c"/><path d="m9.9 16.95-.85 1.5q-4.8.4-6.75 5.65h-.05L0 22.6q5.7-4.3 8.7-4.9.6-1.45 3.1-3.55l4.2-.6q-4.4.85-6.1 3.4" fill="#662101"/><path d="m17.65 17.7.55 2.1q.3.7-.3 1.1-3.1 3.45-4.65 5.6-.7 1-.95.15l-1.2-4.9q-.4-1.85.05-2.6l1.15-1.75q1.15-1.9 3.85-3.75l.1.15q.9 1.3 1.4 3.9m10-1.15.95.9.3 5.55q.05.5-.65.35-2.25-.85-5.45-3.8-.3-.1-.6-2.15l-.25-1.75.5-.7.3 2.4.4 1.7.55.55q2.7 2.5 4.3 3.1l.4.1-.1-1.1-.3-4-4.55-4.3.15-.2 2.35 1.65 1.7 1.7m-12.8-1.3-2 2.2-1.45 2.1v1q.5 3.6 1.35 5.6v.05q3.25-4.25 5.05-5.8l-1.85-6.25-.75.75-.35.35" fill="#662100"/><path d="M12.75 26.15q-.85-2-1.35-5.6v-1l1.45-2.1 2-2.2.05 1-1 1.3-1.15 1.7v6.9m10.55-12.5 1.8 3.75q.2.9.9 1.2 1.5 1.5 2.3 3.1l.1 1.1-.4-.1-2.7-3.15q-.8.05-1.1-.75l-1.4-4.4.5-.75" fill="#f2c12f"/><path d="m14.85 15.25.35-.35.7 2.8.05 2-3.2 4.15v-4.6l1.15-1.7 1-1.3-.05-1m8.45-1.6.15-.25L28 17.7l.3 4q-.8-1.6-2.3-3.1-.7-.3-.9-1.2l-1.8-3.75" fill="#ec5e22"/><path d="m15.2 14.9.75-.75 1.85 6.25q-1.8 1.55-5.05 5.8v-2.35l3.2-4.15-.05-2-.7-2.8m7.6-.5 1.4 4.4q.3.8 1.1.75L28 22.7q-1.6-.6-4.3-3.1l-.55-.55-.4-1.7-.3-2.4.35-.55" fill="#c54113"/><path d="M17.65 17.7q-.5-2.6-1.4-3.9l-.1-.15q-2.7 1.85-3.85 3.75l-2.4-.45q1.7-2.55 6.1-3.4l14.15-2.05q2.9 2.3 4 9.2h-.05l-.7.6h-.05q-.1-2.1-1.45-4.95-.95-1-2.45-.15l-1.8.35-1.7-1.7-2.35-1.65-.15.2-.15.25-.5.75-.35.55-.5.7.25 1.75-4.55.3" fill="#7e93aa"/><path d="m12.3 17.4-1.15 1.75q-.45.75-.05 2.6l1.2 4.9q.25.85.95-.15 1.55-2.15 4.65-5.6.6-.4.3-1.1l-.55-2.1 4.55-.3q.3 2.05.6 2.15 3.2 2.95 5.45 3.8.7.15.65-.35l-.3-5.55-.95-.9 1.8-.35q1.5-.85 2.45.15 1.35 2.85 1.45 4.95Q17.6 33.7 2.3 24.15v-.05q1.95-5.25 6.75-5.65l.85-1.5 2.4.45" fill="#fbfff8"/><path d="m25.3 0-.4 7.15Q14.3 10.25 8.95 9.3 7.2 5.7 6.2 1.85 15.5.05 25.3 0M11.05 11.45l12.7-.4q.3.8-1 1.35-6 2.1-11.7-.9v-.05" fill="#f7f094"/><path d="M6.2 1.85q1 3.85 2.75 7.45 5.35.95 15.95-2.15L25.3 0l7.25.15q6.4 2.2 7.3 5.9l-.05.05q-8 7.85-20.6 8.9-13.35.5-16.95-10.55Q3.4 2.15 4.6 2.2l1.6-.35m4.85 9.6v.05q5.7 3 11.7.9 1.3-.55 1-1.35l-12.7.4" fill="#f6bd31"/><path d="M2.25 4.45Q5.85 15.5 19.2 15q12.6-1.05 20.6-8.9h.05l.1 1.4.1.1q-9.1 7.75-22.4 8.55Q4.75 15.7 1.7 5.7l.55-1.25" fill="#652000"/></g><g id="s" fill-rule="evenodd"><path d="M13.7 4.35h-.05q-1.55-.1-2.9.65-.35-.15.4-.75 4.55-1.55 5.35.65l.05 1.3q-.4 1.05-1.45 1.75.7-.9.55-2.3.25-1.3-1.95-1.3m-3.25-2.6-2.2-.2 1.55-1 10-.35q5.6-1.2 6.35 4.1.6 3.65-4.7 6.9-3.65 1.85-8.5 1.45h-.1Q4.15 11.55 0 8.6l1.4-1.4q1.45.85 2.6 1.3 5.05 2.05 12.05 2.2 3.5-.2 6.1-2.4 1.55-1.35 2.75-3.45.1-3.3-2.4-3.8l-1.4-.1q-3.8 1-10.65.8" fill="#4b606c"/><path d="m16.55 6.2-.05-1.3q-.8-2.2-5.35-.65-.75.6-.4.75 1.35-.75 2.9-.65h.05q2.25 2.6-1.2 4.05Q9.1 7.7 7 6.6q-.7-.4-.6-.75l.1-.1q3.95-3.15 3.95-4 6.85.2 10.65-.8l1.4.1q1.6.45.15 4.15-3.5 4-7.6 3.4 1.3-1.1 1.5-2.4" fill="#fbfff8"/><path d="M13.7 4.35q2.2 0 1.95 1.3.15 1.4-.55 2.3 1.05-.7 1.45-1.75-.2 1.3-1.5 2.4 4.1.6 7.6-3.4 1.45-3.7-.15-4.15 2.5.5 2.4 3.8-1.2 2.1-2.75 3.45-4.3 2.5-18.15.2-1.15-.45-2.6-1.3 3.25-3.15 6.8-5.6l.05-.05 2.2.2q0 .85-3.95 4l-.05.05-.05.05q-.1.35.6.75 2.1 1.1 5.5 1.8 3.45-1.45 1.2-4.05" fill="#7e93aa"/><path d="M4 8.5q13.85 2.3 18.15-.2-2.6 2.2-6.1 2.4-7-.15-12.05-2.2" fill="#9cb4ce"/></g><g id="t" fill-rule="evenodd"><path d="M24.45 79.85Q16.5 86.2 11 87.55q-2.35-.15-4.7 1.8-2 1.15-1.95-1.25Q5.4 80 9.25 73.4q-6.55-9.1-9-22.25-.95-2.8 2.1-2.35l22.7 9.05 2.15 2.6Q6.9 53.2 2.45 50.8l1 4.55q2.8 11.15 7.9 17.4 1.6-1.35 3.35-2.25 3.9-1.9 14.4-1.7l-.2 1.35q-12.7-1.65-17.05 3.1l-1.1 1.85Q8 80.15 6.95 85.4l-.05.05-.2 1.25q1.15-1.1 4.3-1.2 4.55-1.45 5.05-.85.7-1 5.05-2.95.15-.1 3.35-1.85" fill="#652000"/><path d="M6.95 85.4q1.05-5.25 3.8-10.3 1.7.85 1.85 6.35-.75 1.4-2.45 2.45-1.3.85-3.2 1.5m7.75-14.9q-1.75.9-3.35 2.25-5.1-6.25-7.9-17.4 5.3 11.3 11.25 15.15" fill="#e0d025"/><path d="M21.1 81.7q-4.35 1.95-5.05 2.95-.5-.6-5.05.85-3.15.1-4.3 1.2l.2-1.25.05-.05q1.9-.65 3.2-1.5 1.85.2 4.8-1.1 1.6-1.05 6.15-1.1" fill="#c474a2"/><path d="M24.45 79.85q-3.2 1.75-3.35 1.85-4.55.05-6.15 1.1-2.95 1.3-4.8 1.1 1.7-1.05 2.45-2.45-.15-5.5-1.85-6.35l1.1-1.85q4.35-4.75 17.05-3.1-.95 4.45-4.45 9.7M29.1 68.8q-10.5-.2-14.4 1.7-5.95-3.85-11.25-15.15l-1-4.55q4.45 2.4 24.75 9.65h.05q2.45 3.7 1.85 8.35" fill="#b74d11"/><path d="m15.55 60.3-.1-.95q-.8-11.25 4.65-23.15l-2.35-4.25-5.4-9.95-1.15-2.05-.05-.05v.05Q4.8 35.7 9.2 54.7v.05q3.75 13.4 18.7 21.6 14.05-10.6 22.2-6.05 12.8-6.2 20.8-15 12.55-13.7 13.6-33.85.25-5.1-.2-10.65l-.9.55q-2.75 1.55-5.4 3.2Q66.7 21.65 57.45 31q-.95 1.65-1.9 1.85-7 8.25-11.2 16l-2.05 4-.15.1-.3-.6v-.05l1.1-2.55q2.95-6.25 8.9-13.85l2.95-3.65Q49.65 15.85 42 6.95q-2.05-2.35-4.25-4.2h-.05V2.6v.15q-2.85 8.5-6.45 14.25l-.05.15-1.1 1.65Q13.4 48.15 16.3 60.25l-.55.05h-.2M86.4 11.1q.85 26.05-8.5 38.6l-.1.1Q62.6 66.05 50.55 71.9q-8-5.3-21.95 4.85l-.1-.05-.6-.35v.1q-3.7-1.55-8.25-4.2Q9.45 63.6 7.15 50.6q-.6.5-.75-.2-3-13.95 2.9-31.55 1.15-4.75 3.3.25 4.9 6.95 7.85 13.95 4.45-9.45 10.8-20.15Q34 7.6 35.95 2q.9-3.85 3.75-.35 10.9 10.3 16.35 27.95Q68 17.3 83.7 8.8q3.2-1.15 2.7 2.3" fill="#652000"/><path d="M70.9 55.3q-.4-3.85 1.3-4.65 8.15-12.5 12.3-29.2Q83.45 41.6 70.9 55.3M42 6.95q7.65 8.9 12.8 25.3l-2.95 3.65Q51.9 20.25 42 6.95" fill="#c474a2"/><path d="m83.05 12.65.35-1.3.9-.55q.45 5.55.2 10.65-4.15 16.7-12.3 29.2-1.7.8-1.3 4.65-8 8.8-20.8 15-8.15-4.55-22.2 6.05-14.95-8.2-18.7-21.6v-.05q-4.4-19 1.95-34.75v-.05l.05.05h-.05q-3.15 14.9 4.3 39.4l.1.95v.05-.05l.25.25L30.85 73.1q16.1-13.15 25.4-19.45l.55-.4h.05q6.15-4.15 9.2-5.1h.05l1-.25.1-.2.45-.6q10.05-13.85 15.4-34.45m-45.3-9.9q2.2 1.85 4.25 4.2 9.9 13.3 9.85 28.95-5.95 7.6-8.9 13.85 4.6-22.1-2.5-40.75L37.7 2.75h.05" fill="#b74d11"/><path d="M83.05 12.65q-5.35 20.6-15.4 34.45l-1.6.95v.1q-3.05.95-9.2 5.1 7.85-12.3 11.2-25.15.25 5.6-.7 11.45l2.6-3.8q7.4-11.25 13.1-23.1m-26.8 41q-9.3 6.3-25.4 19.45L15.8 60.55l-.05-.25.55-.05q-2.9-12.1 13.8-41.45l1.1-1.65Q26.3 35 25.35 51.05l-.05.05q.25 8.5 7.2 4.9l.05-.05Q45.4 34.5 40.45 9q7.1 18.65 2.5 40.75l-1.1 2.55v.05l.3.6.15-.1 2.05-4q13.15-12.55 13.45-10 2.1 3.75-1.6 14.7l.05.1m-40.8 5.7q-7.45-24.5-4.3-39.4h.05L12.35 22l-.15.05-1.05 15.65 3.95 5.2 2.65-10.95 2.35 4.25q-5.45 11.9-4.65 23.15" fill="#e0d025"/><path d="m83.4 11.35-.35 1.3q-5.7 11.85-13.1 23.1 6.35-13.3 8.05-21.2 2.65-1.65 5.4-3.2" fill="#fbfff8"/><path d="M56.85 53.25h-.05l-.55.4-.05-.1q3.7-10.95 1.6-14.7-.3-2.55-13.45 10 4.2-7.75 11.2-16 .95-.2 1.9-1.85Q66.7 21.65 78 14.55q-1.7 7.9-8.05 21.2l-2.6 3.8q.95-5.85.7-11.45-3.35 12.85-11.2 25.15M12.35 22l5.4 9.95L15.1 42.9l-3.95-5.2 1.05-15.65.15-.05m18.85-4.85.05-.15q3.6-5.75 6.45-14.25L40.45 9q4.95 25.5-7.9 46.95l-.05.05q-6.95 3.6-7.2-4.9l.05-.05Q26.3 35 31.2 17.15" fill="#efe55d"/><path d="m46.7 80.15-.65 1.65q-4.75 3.3-10.95 4.9-20.75 1.85-18.25-11.05.65-.1.45-1-1-2.2-.65-4.15v-.1l1.05-1.9q-.15 4 .85 6.6Q16 81.55 21 84.2q4.15 2.15 13.45 1.7l.55-.15 1.25-.35.35-.1q5.3-1.6 10.1-5.15" fill="#4b606c"/><path d="M21 84.2q-3.6-3.95-1.45-6.55l.25-5.25 5.6 5.65 18.95-4.65q.85 9-7.75 11.9l-.35.1-1.25.35-.55.15q-9.3.45-13.45-1.7" fill="#fbfff8"/><path d="m17.7 68.5.05-.1q9.85-17.05 35.35-3.2l-6.4 14.95q-4.8 3.55-10.1 5.15 8.6-2.9 7.75-11.9L25.4 78.05l-5.6-5.65-.25 5.25Q17.4 80.25 21 84.2q-5-2.65-2.45-9.1-1-2.6-.85-6.6" fill="#7e93aa"/><path d="M37.9 74.75q-2.95 2.75-5.15 2 3.15-2.45 5.55-5.65 7.9-5.35 13.5 1.15l-3.4 3-.15-3.55q-1.05-.6-1.15-.3h-.6l-.35-.6q-3.05-.95-5.5.95h-.05l-2.1 2.4-.6.6"/><path d="M47.2 76.35q.3 1.15-1.3 3.5-7.45 2.25-8-5.1l.6-.6q-.2 7.05 7.45 5.2l.6-.9q.5-.85.65-2.1" fill="#540101"/><path d="M47.3 73.65q.25 1.35-.1 2.65v.05q-.15 1.25-.65 2.1l-.6.9q-7.65 1.85-7.45-5.2l2.1-2.4h.05q2.45-1.9 5.5-.95l.35.6q-1 .05-1.45.5-.9-.7-2.05-.7-1.55 0-2.6 1.15-1.05 1.1-1.05 2.7t1.05 2.7q1.05 1.1 2.6 1.1 1.5 0 2.55-1.1 1.1-1.1 1.1-2.7l-.05-.75.7-.65" fill="#bc0070"/><path d="m48.4 75.25-.55.5-.2-2.5v.05l-.35.35-.7.65q-.95.5-1.85-.45-.35-1.35.3-1.95.45-.45 1.45-.5h.6q.1-.3 1.15.3l.15 3.55" fill="#fcfff8"/><path d="M45.05 71.9q-.65.6-.3 1.95.9.95 1.85.45l.05.75q0 1.6-1.1 2.7-1.05 1.1-2.55 1.1-1.55 0-2.6-1.1t-1.05-2.7q0-1.6 1.05-2.7 1.05-1.15 2.6-1.15 1.15 0 2.05.7" fill="url(#k)"/><path d="M22.55 74.95 21.9 74v-.05l-.45-.45-.05-.05q-.75-.6-1.7 1.75-.2 1.6.05 3.55-1.45-2.1-.45-6.2.85.05.15-.95 0-.6.5-.4 3.35 2.65 6.25 6.75l-.35.05-.65.1-.55.05-2.1-3.2" fill="#050505"/><path d="m21.45 73.5.45.45V74q-1.15 5.35 2.3 7.1h.05q.6 0 1.2-.9l.2-.4.1-.15h.1q-.2 2.15-1.7 2.05-4.15-1.9-2.7-8.2" fill="#550001"/><path d="m21.9 74 .65.95q-1.1 1.2.55 4.6 1.15 1.55 2.25.55l.1.1q-.6.9-1.2.9h-.05q-3.45-1.75-2.3-7.1" fill="#c90077"/><path d="m22.55 74.95 2.1 3.2q-.85.5-.75 1.2.2.95 1.45.75-1.1 1-2.25-.55-1.65-3.4-.55-4.6" fill="url(#l)"/><path d="m24.65 78.15.55-.05q.4.25.55 1.55l-.1.15-.3.3q-1.25.2-1.45-.75-.1-.7.75-1.2" fill="#fcfff8"/><path d="m25.2 78.1.65-.1.05 1.35-.15.3q-.15-1.3-.55-1.55" fill="#060708"/><path d="m87.05 51.1-2.25.2-8.5.95-2-.05Q58.35 55.1 50.65 72q-3.85 5.45-5.6 13.3-.65 3.1-1 6.6l-.1 1 .4-.15h.1q1.55-.75 3.6-2.5l1.3-.25q4.9-3 7.45-6.05.05-.75.75-1.6 1.9-3.95 2.55-9.3l.2-2.55.1-2.6.4 2.75q.4 4.8-1.1 9.15l-.05.15-.9 2.25q6.45-3.3 12.5-8.2.25-.75 1.55-1.85Q84 61.9 88.2 50.95l-1.15.15m.95-1.9q3.7-.55 1.95 2.7-5.25 13.15-17 22.4-.5.4-1.5.8-5.55 4.8-12.95 8.2-4.4 5.45-11.95 9.35l-2.6 1.75-.65.15q-.35.05-.25-3.8 1.4-9.8 6.45-18.65 7.75-17.75 24.85-20.75 1.7-1.8 13.65-2.15" fill="#652000"/><path d="M84.8 51.3q-6.3 4.1-13.4 12.4-3.45 2.65-6.65 5.65 1.85-4.1 2.2-6.7 2.05-5.1 5.35-9.4-6.15 4-11.5 17.4l-.4-2.75-.1 2.6h-.45q-3.15 10.95-12.7 19 2.6-9.5 11.35-20.95-6.9 5.55-13.45 16.75 1.75-7.85 5.6-13.3 7.7-16.9 23.65-19.8l2 .05 8.5-.95" fill="#efe55d"/><path d="m85.75 53.85.1.05q-6.65 10.15-17.15 20-4.1 3.05-9 5.9 1.5-4.35 1.1-9.15 5.35-13.4 11.5-17.4-3.3 4.3-5.35 9.4-.35 2.6-2.2 6.7 3.2-3 6.65-5.65 3.3-2.6 6.85-4.85 2.95-1.15 7.5-5M44.05 91.9q.35-3.5 1-6.6Q51.6 74.1 58.5 68.55 49.75 80 47.15 89.5l-3.1 2.4" fill="#e0d025"/><path d="m85.85 53.9.1-.1q-5.05 11-17.25 20.1 10.5-9.85 17.15-20M60.3 70.5l-.2 2.55q-1 1.6-1.5 4.1-.75 2.75-2.7 5.55-4.55 5.3-11.25 9.05l-.2 1h-.1l-.4.15.1-1 3.1-2.4q9.55-8.05 12.7-19h.45" fill="#b74d11"/><path d="m85.95 53.8 1.1-2.7 1.15-.15Q84 61.9 72.8 72.15q-1.3 1.1-1.55 1.85-6.05 4.9-12.5 8.2l.9-2.25.05-.15q4.9-2.85 9-5.9 12.2-9.1 17.25-20.1M60.1 73.05q-.65 5.35-2.55 9.3-.7.85-.75 1.6Q54.25 87 49.35 90l-1.3.25Q46 92 44.45 92.75l.2-1Q51.35 88 55.9 82.7q1.95-2.8 2.7-5.55.5-2.5 1.5-4.1" fill="#c474a2"/><path d="m85.95 53.8-.2.05q-4.55 3.85-7.5 5-3.55 2.25-6.85 4.85 7.1-8.3 13.4-12.4l2.25-.2-1.1 2.7" fill="#fbfff8"/><path d="m54.6 39.1-.15-1-.55.55q-4.25 4.2-11.85 7.65l-.3.15-.65.3q-2.75 1.3-5.1 2.75l-2.15 1.4-.1.1q-4.2 2.9-6.9 6.3l-1.3 10.05q-.2 3.85-1.65 1.2-4.65-8.7-6.35-18.85-1.8-3.3-4.2-6.3l-1.3-1.6q-.6 6.3.5 11.85Q15 66.65 26 75.3q.95 1.25 1.5 1.05 1.05-1 2.15-1.55Q36 68.35 43.6 63.25l.05-.05q4.05-2.25 6.65-5.95 5.5-8 4.3-18.15m-17.2 8.35 1.55-.75q-3.3-9.5-9.05-16.7l-.4-.5h-.05l-.15-.25-2.1 2.35q-4.75 5.6-9.55 14.35l-.6 1.15.05.05q1.6 2.35 1.8 4.3l.95 3.8.9-1.35 1.15-1.65q.95-1.7 1.45-.75l1.5 1.8 1.75 2.75q4.9-5.45 10.8-8.6m18.3-7.25q.5 11-4.85 18.4-1.9 2.65-8.25 6.45l-14.2 11.8q-2.05 1.35-3.15-.45Q10.3 63.9 10.5 45.95q0-2.4.3-4.85l.05-.2q.85-1.95 2.1.1l3.5 4.75q6.05-11.2 12.95-17.8Q35.65 34.2 40.1 46q6.5-2.95 13.65-8.4 2.15-2.65 1.95 2.6M23.2 52.9l-.3-.45-1.25 1.95q-.75 1.2-1.2 2.5.55 2.7 1.6 5.45l.05.1q.8 2.05 1.95 4.05l.55 1 1.3-10.6-2.7-4" fill="#082c00"/><path d="M13.35 43.4q2.4 3 4.2 6.3 1.7 10.15 6.35 18.85 1.45 2.65 1.65-1.2l1.3-10.05q2.7-3.4 6.9-6.3-4.1 8.95-3.6 16.1-.8 1.5-2.7 2.7-1.25 1.7-3.6.15-1.75-1.05-2.15-.8-4.9-4.2-5.1-11.1l-.05-.05q-.2-4.05-1.15-8.05l-.35 5.95q-2.45-7.3-1.7-12.5M36 49.5q2.35-1.45 5.1-2.75-3.3 11.05-7.7 16-.45-4.25 2.6-13.25m5.75-3.05.3-.15q7.6-3.45 11.85-7.65-.45 7.85-9.55 16.5l-4.5 4.2q2.25-9.55 1.65-11.9l.25-1m-16.9 6.85-1.5-1.8q-.5-.95-1.45.75l-1.15 1.65q-.7-4.7-3.1-7.95 4.8-8.75 9.55-14.35-3.45 10.6-2.1 18.9l-.25 2.8m-3.2 1.1q.6 3.2.4 7.95-1.05-2.75-1.6-5.45.45-1.3 1.2-2.5" fill="#cbee48"/><path d="m33.75 51 .1-.1L36 49.5q-3.05 9-2.6 13.25 4.4-4.95 7.7-16l.65-.3-.25 1-.3 1q-2.7 10.8-9.35 18.65-2.75 3.15-4.8 6.35-.4 1.05-1 .2L21.6 69.7v-.05l.1-.5q.4-.25 2.15.8 2.35 1.55 3.6-.15 1.9-1.2 2.7-2.7-.5-7.15 3.6-16.1M27.2 31.6l2.1-2.35.15.25h.05q-3.2 9-4.4 21-1.35-8.3 2.1-18.9m-5.55 22.8 1.25-1.95.3.45q-.1 6.75.85 13.6-1.15-2-1.95-4.05l-.05-.1q.2-4.75-.4-7.95" fill="#fbfff8"/><path d="m53.9 38.65.55-.55.15 1q-.5 3.85-1.45 7.5-1.5 7.3-7.4 14.35l-2.1 2.25-.05.05Q36 68.35 29.65 74.8q-1.1.55-2.15 1.55-.55.2-1.5-1.05-11-8.65-13.45-21.65-1.1-5.55-.5-11.85l1.3 1.6q-.75 5.2 1.7 12.5l.35-5.95q.95 4 1.15 8.05l.05.05q.2 6.9 5.1 11.1l-.1.5v.05l4.45 3.95q.6.85 1-.2 2.05-3.2 4.8-6.35 6.65-7.85 9.35-18.65-.95 8.7-4.8 14.65l3.35-3.65.1-.1 4.5-4.2q9.1-8.65 9.55-16.5M29.9 30q5.5 8.15 7.5 17.45-5.9 3.15-10.8 8.6l-1.75-2.75.25-2.8q1.2-12 4.4-21l.4.5m-9.15 23.9-.9 1.35-.95-3.8q-.2-1.95-1.8-4.3l-.05-.05.6-1.15q2.4 3.25 3.1 7.95m3.3 12.6q-.95-6.85-.85-13.6l2.7 4-1.3 10.6-.55-1" fill="#678308"/><path d="M54.6 39.1q1.2 10.15-4.3 18.15-2.6 3.7-6.65 5.95l2.1-2.25q5.9-7.05 7.4-14.35.95-3.65 1.45-7.5M39.85 59.35l-.1.1-3.35 3.65q3.85-5.95 4.8-14.65l.3-1q.6 2.35-1.65 11.9M29.9 30q5.75 7.2 9.05 16.7l-1.55.75q-2-9.3-7.5-17.45" fill="#c7af54"/></g><use ffdec:characterId="2" height="25.4" width="30.7" xlink:href="#m" id="c"/><use ffdec:characterId="4" height="57.1" transform="translate(.9)" width="81.9" xlink:href="#n" id="d"/><use ffdec:characterId="9" height="17.45" width="18.35" xlink:href="#o" id="e"/><use ffdec:characterId="11" height="18" width="32" xlink:href="#p" id="f"/><use ffdec:characterId="13" height="12.7" width="15.25" xlink:href="#q" id="g"/><use ffdec:characterId="15" height="28.3" width="40.05" xlink:href="#r" id="h"/><use ffdec:characterId="17" height="12.7" width="26.2" xlink:href="#s" id="i"/><use ffdec:characterId="19" height="94.6" width="90.5" xlink:href="#t" id="j"/><radialGradient cx="0" cy="0" gradientTransform="translate(42.9 73.8) scale(.0047)" gradientUnits="userSpaceOnUse" id="k" r="819.2" spreadMethod="pad"><stop offset=".565" stop-color="#540032"/><stop offset="1" stop-color="#9c005c"/></radialGradient><radialGradient cx="0" cy="0" gradientTransform="translate(23.35 77.75) scale(.0038)" gradientUnits="userSpaceOnUse" id="l" r="819.2" spreadMethod="pad"><stop offset=".565" stop-color="#540032"/><stop offset="1" stop-color="#9c005c"/></radialGradient><path d="M27.75 0q0 2-8.15 3.4Q11.5 4.9 0 4.9q-11.5 0-19.65-1.5-8.1-1.4-8.1-3.4 0-2.05 8.1-3.5Q-11.5-4.9 0-4.9q11.5 0 19.6 1.4 8.15 1.45 8.15 3.5" fill-opacity=".349" fill-rule="evenodd" transform="translate(27.75 4.9)" id="b"/></defs></svg>