<svg xmlns:ffdec="https://www.free-decompiler.com/flash" xmlns:xlink="http://www.w3.org/1999/xlink" ffdec:objectType="frame" height="90" width="90" xmlns="http://www.w3.org/2000/svg"><use ffdec:characterId="18" height="290.8" transform="matrix(.3104 0 0 .3105 9.402 -.109)" width="224.65" xlink:href="#a"/><use ffdec:characterId="19" height="30.8" transform="scale(2.018 2.9221)" width="44.6" xlink:href="#b"/><defs><g id="a" transform="translate(6.6 .35)"><use ffdec:characterId="1" height="58.05" transform="translate(46.25 241.3) scale(.8382)" width="202.95" xlink:href="#c"/><use ffdec:characterId="2" height="38.65" transform="translate(88.762 237.212) scale(.8382)" width="63.25" xlink:href="#d"/><use ffdec:characterId="3" height="37.65" transform="translate(33.112 98.012) scale(.8382)" width="63.05" xlink:href="#e"/><use ffdec:characterId="4" height="107.05" transform="translate(-.37 29.53) scale(.8382)" width="69.5" xlink:href="#f"/><use ffdec:characterId="5" height="61.65" transform="translate(105.712 74.462) scale(.8382)" width="87.75" xlink:href="#g"/><use ffdec:characterId="6" height="129" transform="translate(143.48 17.38) scale(.8382)" width="59" xlink:href="#h"/><use ffdec:characterId="7" height="52.85" transform="translate(86.712 207.762) scale(.8382)" width="68.7" xlink:href="#i"/><use ffdec:characterId="8" height="189.05" transform="translate(62.912 82.012) scale(.8382)" width="148.75" xlink:href="#j"/><use ffdec:characterId="9" height="78.9" transform="translate(58.871 71.271) scale(.8382)" width="97.75" xlink:href="#k"/><use ffdec:characterId="10" height="132.8" transform="translate(29.812 -.37) scale(.8382)" width="126.1" xlink:href="#l"/><use ffdec:characterId="11" height="34.5" transform="translate(47.479 54.964) scale(.5825)" width="42.8" xlink:href="#m"/><clipPath id="n" transform="translate(47.1 55.75) scale(.5825)"><path d="M38.7 6.85q.35 4.8-1.1 10.65-1.5 6.95-6.45 10.45-2 1.25-4.1 1.75-3.75.8-7.9-.8-7.3-3.4-13.55-9.35 11.6-6.75 24.35-10.5 4.3-1.25 8.75-2.2" fill="#fff" fill-rule="evenodd"/></clipPath><g clip-path="url(#n)"><use ffdec:characterId="13" height="33.4" transform="translate(46.809 56.303) scale(.5825)" width="33.4" xlink:href="#o"/></g><use ffdec:characterId="14" height="31.65" transform="translate(47.187 55.488) scale(.5825)" width="44.45" xlink:href="#p"/><use ffdec:characterId="15" height="45" transform="translate(124.362 240.912) scale(.8382)" width="66.1" xlink:href="#q"/><use ffdec:characterId="16" height="80.25" transform="translate(123.462 194.662) scale(.8382)" width="67" xlink:href="#r"/></g><g id="d"><path d="M3.7 8.2q4.35-3.1 13.95 2.25 5.3 2.3 6.45.65 1.65 1.7 4.95 3.1 3.1 1.5 6.95 1.85.2-1.65-.85-3.7 7.85 8.1.4 12.55-7.55 5.3-18.2 6.15-7.65-.25-9.4-5.35-.05-2.1.05-3.9.2-4.1 6.5-9.3Q5.95 14.65 5 23.95q-3.45-.4-5-3.6.1-2.6.8-5.85.9-3.9 2.9-6.3" fill="#e5d3bb" fill-rule="evenodd" transform="translate(1 1)"/><path d="M7.95 25.7q1.75 5.1 9.4 5.35Q28 30.2 35.55 24.9q7.45-4.45-.4-12.55 1.05 2.05.85 3.7-3.85-.35-6.95-1.85-3.3-1.4-4.95-3.1-1.15 1.65-6.45-.65Q8.05 5.1 3.7 8.2q3.4-4.1 10.1-3.9 14.25 0 23.65-2.6 15.4-4.75 22.7 3.9 2.85 9.45-1.8 13.7-7.45 5.65-18.9 10.3Q31.1 33.8 19 36.25q-5.65 1.25-8.8-1.65-1.25-1.45-1.8-4.45-.4-2.1-.45-4.45.05 2.35.45 4.45-3.4.8-6.1-1.9-2.5-2.65-2.3-7.9 1.55 3.2 5 3.6.95-9.3 9.5-11.45-6.3 5.2-6.5 9.3-.1 1.8-.05 3.9" fill="#bda990" fill-rule="evenodd" transform="translate(1 1)"/><path d="M9.4 31.15q.55 3 1.8 4.45 3.15 2.9 8.8 1.65 12.1-2.45 20.45-6.65 11.45-4.65 18.9-10.3 4.65-4.25 1.8-13.7-7.3-8.65-22.7-3.9-9.4 2.6-23.65 2.6-6.7-.2-10.1 3.9-2 2.4-2.9 6.3-.7 3.25-.8 5.85-.2 5.25 2.3 7.9 2.7 2.7 6.1 1.9" fill="none" stroke="#755e46" stroke-linecap="round" stroke-linejoin="round" stroke-width="2"/><path d="M7.95 25.7q.05 2.35.45 4.45m6.1-17.65Q8.2 17.7 8 21.8q-.1 1.8-.05 3.9" fill="none" stroke="#755e46" stroke-linecap="round" stroke-linejoin="round" transform="translate(1 1)"/></g><g id="e"><path d="M47.75 34.3Q21.3 29.45 0 23.35 4.5 10.7 17.55 0q21.2 5.7 39.15 7.05Q68.65 41.9 47.75 34.3" fill="#69493a" fill-rule="evenodd" transform="translate(1 1)"/><path d="M48.75 35.3Q22.3 30.45 1 24.35 5.5 11.7 18.55 1q21.2 5.7 39.15 7.05Q69.65 42.9 48.75 35.3z" fill="none" stroke="#422d24" stroke-linecap="round" stroke-linejoin="round" stroke-width="2"/></g><g id="f"><path d="M47.05 60.2Q47.3 72 53.1 77.55q1.95 2.35 4.8 4.45l7.6 10.4q8.55 11.3-3.75 13.65-6.55 1.2-21.3-.55l-17.1-20.85-1.9-2.5q-6-13-7.8-32.4-1.4-9.4 5.4-14.45 6.35-4.95 10.7-2.8 7.4 5 10.85 11.15 4.3 7.9 6.45 16.55M19.1 58q0 .8.55 1.4.6.65 1.45.75.8.05 1.35-.45t.55-1.3q0-.8-.55-1.45-.55-.65-1.35-.7-.85-.1-1.45.4-.55.55-.55 1.35m2-12.15q-.9-.55-1.75-.35-.9.15-1.25 1-.45.85-.25 1.85.15.95.95 1.6.9.5 1.8.3.95-.25 1.4-1.15.5-.9.25-1.8-.3-.9-1.15-1.45m7-7.7q-.65-.75-1.55-.75t-1.6.75q-.6.75-.6 1.8 0 1 .6 1.75.7.75 1.6.75.9 0 1.55-.75t.65-1.75q0-1.05-.65-1.8m5.1-.75q-.8.1-1.2.75-.35.7-.1 1.55.25.85.95 1.35.75.55 1.55.45.8-.1 1.2-.8.4-.65.15-1.5-.25-.8-1-1.35t-1.55-.45m-8.25 23.35q1.1 3.4 5.15 3.85 2.35.15 2.85-1.7.65-1.6 2.2-3.1 2.3-1.75 3.8-8.9.6-4.75-1.65-6.45-2.85-2.6-6.8-1.85-5.55 1.4-6.35 5.9-.75 6.05.8 12.25m16.2 33.2q-3.25-4.15 0-10-9.15.4-7.9-9.05-4.15 4.75-13.05 0 7.85 5.9 11.35 11.2 1.65 2.9-2.3 2.85 5.3 2.3 8.7 5.3 3.2 3.35.95 6.05 4.05-.35 9.75 3.6-4.55-5.65 0-7.85-5.4.7-7.5-2.1" fill="#a36347" fill-rule="evenodd" transform="translate(.5 .5)"/><path d="M33.2 37.4q.8-.1 1.55.45t1 1.35q.25.85-.15 1.5-.4.7-1.2.8-.8.1-1.55-.45-.7-.5-.95-1.35-.25-.85.1-1.55.4-.65 1.2-.75m-5.1.75q.65.75.65 1.8 0 1-.65 1.75t-1.55.75q-.9 0-1.6-.75-.6-.75-.6-1.75 0-1.05.6-1.8.7-.75 1.6-.75.9 0 1.55.75m-7 7.7q.85.55 1.15 1.45.25.9-.25 1.8-.45.9-1.4 1.15-.9.2-1.8-.3-.8-.65-.95-1.6-.2-1 .25-1.85.35-.85 1.25-1 .85-.2 1.75.35M19.1 58q0-.8.55-1.35.6-.5 1.45-.4.8.05 1.35.7.55.65.55 1.45 0 .8-.55 1.3t-1.35.45q-.85-.1-1.45-.75-.55-.6-.55-1.4m5.85 2.75q-1.55-6.2-.8-12.25.8-4.5 6.35-5.9 3.95-.75 6.8 1.85 2.25 1.7 1.65 6.45-1.5 7.15-3.8 8.9-1.55 1.5-2.2 3.1-.5 1.85-2.85 1.7-4.05-.45-5.15-3.85" fill="#fbe96d" fill-rule="evenodd" transform="translate(.5 .5)"/><path d="M41.15 93.95q2.1 2.8 7.5 2.1-4.55 2.2 0 7.85-5.7-3.95-9.75-3.6 2.25-2.7-.95-6.05-3.4-3-8.7-5.3 3.95.05 2.3-2.85-3.5-5.3-11.35-11.2 8.9 4.75 13.05 0-1.25 9.45 7.9 9.05-3.25 5.85 0 10" fill="#c9896d" fill-rule="evenodd" transform="translate(.5 .5)"/><path d="M27.2 27.6q1.2.25 1.55 1.05.95 1.75 2.8 3.25 2.2 1.7 5.7 3l.7.25q7.8 4.3 9.05 8.2l.05 12.75v4.1q-2.15-8.65-6.45-16.55-3.45-6.15-10.85-11.15-4.35-2.15-10.7 2.8-6.8 5.05-5.4 14.45 1.8 19.4 7.8 32.4Q5.85 61.65 9.75 36q.1-1.05.35-1.95 2-4.5 7.55-3.9 7.55.55 9.55-2.55" fill="#69493a" fill-rule="evenodd" transform="translate(.5 .5)"/><path d="M37.95 35.15q3.05 1.25 5.4 2.7l.35.25 4.25 3.05q1.15 1.75.15 5.7-.8 4.95-1.05 9.25L47 43.35q-1.25-3.9-9.05-8.2m-27.85-1.1q1.25-5.45 6.2-5.5l7.95-1.05 2.95.1q-2 3.1-9.55 2.55-5.55-.6-7.55 3.9" fill="#bbb9bc" fill-rule="evenodd" transform="translate(.5 .5)"/><path d="M27.7 28.1q1.2.25 1.55 1.05.95 1.75 2.8 3.25 2.2 1.7 5.7 3l.7.25q3.05 1.25 5.4 2.7l.35.25 4.25 3.05q1.15 1.75.15 5.7-.8 4.95-1.05 9.25v4.1q.25 11.8 6.05 17.35 1.95 2.35 4.8 4.45M40.95 106l-17.1-20.85-1.9-2.5q-15.6-20.5-11.7-46.15.1-1.05.35-1.95 1.25-5.45 6.2-5.5L24.75 28l2.95.1" fill="none" stroke="#52382e" stroke-linecap="round" stroke-linejoin="round" stroke-width="2"/><path d="M6.85 15.8q.8-1.5 1.95-3-.5 3.6 1.7 9.15 2.8 6.65 7.3 11l2.6 3.6q2.2 3-2.75 5.35-10.3-8.7-10.8-26.1" fill="#bbb9bc" fill-rule="evenodd" transform="translate(.5 .5)"/><path d="M6.85 15.8q.5 17.4 10.8 26.1-4.8 2.55-7.15 0-3.4-6.1-5.7-13-1.7-6.4 2.05-13.1" fill="#fff" fill-rule="evenodd" transform="translate(.5 .5)"/><path d="M17.65 41.9q4.95-2.35 2.75-5.35l-2.6-3.6q-4.5-4.35-7.3-11-2.2-5.55-1.7-9.15-1.15 1.5-1.95 3Q3.1 22.5 4.8 28.9q2.3 6.9 5.7 13 2.35 2.55 7.15 0z" fill="none" stroke="#3c3c3c" stroke-linecap="round" stroke-linejoin="round" transform="translate(.5 .5)"/><path d="M23.35 31.4Q20.3 19.65 25.7 1.5L27.35 0q-2.2 6.6.45 27.65-1.25 4.4-3.3 3.95l-1.15-.2" fill="#bbb9bc" fill-rule="evenodd" transform="translate(.5 .5)"/><path d="M23.35 31.4q-2.75-.65-5.5-2.75Q13.7 13.05 25.7 1.5q-5.4 18.15-2.35 29.9" fill="#fff" fill-rule="evenodd" transform="translate(.5 .5)"/><path d="M25.7 1.5q-12 11.55-7.85 27.15 2.75 2.1 5.5 2.75l1.15.2q2.05.45 3.3-3.95Q25.15 6.6 27.35 0L25.7 1.5z" fill="none" stroke="#3c3c3c" stroke-linecap="round" stroke-linejoin="round" transform="translate(.5 .5)"/><path d="M37.35 13.55q6.2 2.7 9.6 13.4 1.25 6.2.8 13.85l-5.35-.45q1.4-20-5.05-26.8" fill="#bbb9bc" fill-rule="evenodd" transform="translate(.5 .5)"/><path d="M42.4 40.35q-3.3-.95-5.25-3.45-1.95-2.6-.15-6.55 3.45-9.1.35-16.8 6.45 6.8 5.05 26.8" fill="#fff" fill-rule="evenodd" transform="translate(.5 .5)"/><path d="M37.35 13.55q6.2 2.7 9.6 13.4 1.25 6.2.8 13.85l-5.35-.45q-3.3-.95-5.25-3.45-1.95-2.6-.15-6.55 3.45-9.1.35-16.8z" fill="none" stroke="#3c3c3c" stroke-linecap="round" stroke-linejoin="round" transform="translate(.5 .5)"/><path d="M12 57.35Q2.85 47.3.7 37.55l1-3.65Q4.8 44 12.05 49q5.35 3.3 2.85 6.65-1.3 1.25-2.9 1.7" fill="#bbb9bc" fill-rule="evenodd" transform="translate(.5 .5)"/><path d="m12 57.35-4.4-.15Q1.85 53.15.1 47.1q-.3-5.05.6-9.55Q2.85 47.3 12 57.35" fill="#fff" fill-rule="evenodd" transform="translate(.5 .5)"/><path d="M.7 37.55q-.9 4.5-.6 9.55 1.75 6.05 7.5 10.1l4.4.15q1.6-.45 2.9-1.7 2.5-3.35-2.85-6.65Q4.8 44 1.7 33.9l-1 3.65z" fill="none" stroke="#3c3c3c" stroke-linecap="round" stroke-linejoin="round" transform="translate(.5 .5)"/><path d="m6.75 51.5.2-1.8Q12 57.1 17.2 62.4q1.6 2.1 1.3 6.1l-.25 2.1q-7.9-3.45-11.5-19.1" fill="#bbb9bc" fill-rule="evenodd" transform="translate(.5 .5)"/><path d="M6.75 51.5q3.6 15.65 11.5 19.1-.55 2.8-1.95 3.55-4.35-.75-7.85-7.1-3.05-5.6-1.7-15.55" fill="#fff" fill-rule="evenodd" transform="translate(.5 .5)"/><path d="m18.25 70.6.25-2.1q.3-4-1.3-6.1Q12 57.1 6.95 49.7l-.2 1.8q-1.35 9.95 1.7 15.55 3.5 6.35 7.85 7.1 1.4-.75 1.95-3.55z" fill="none" stroke="#3c3c3c" stroke-linecap="round" stroke-linejoin="round" transform="translate(.5 .5)"/></g><g id="g"><path d="M43.15 43.15q5.45-2.05 10.1 4.25 5.25-2.65 9.1 4.8.9-3.2 4.65-5.2 3.9-1.9 7.5 0-2.8-5.3 1.6-8.9-6-.5-4.85-7.35-1.45 3.7-5 3.95 2.7.9 2.75 3.45-.15 3-1.95 4.2-4 1.9-6.25-2.45-1.4 2.9-5.35 3.05-4.15-.05-6.75-3.75-3.9 3.3-6.45-1.5h-5q4.25 1.55 5.9 5.45m36.9-6.6q-.6 5.7-2.65 12.6-4.55 11.85-15.25 6.2l-.5-.25Q50 48.2 36.7 44.65L26.9 43q-6.55-1.1-12.55-8.9 8.6-6.45 11.9-5.7-3.55-8.95 1.3-11 5.45-2.3 13.2 3.9l15.4 9.55 9.7-5.95q8.35 4.95 14.2 11.65" fill="#a36347" fill-rule="evenodd" transform="translate(1 1)"/><path d="M43.15 43.15q-1.65-3.9-5.9-5.45h5q2.55 4.8 6.45 1.5 2.6 3.7 6.75 3.75 3.95-.15 5.35-3.05 2.25 4.35 6.25 2.45 1.8-1.2 1.95-4.2-.05-2.55-2.75-3.45 3.55-.25 5-3.95-1.15 6.85 4.85 7.35-4.4 3.6-1.6 8.9-3.6-1.9-7.5 0-3.75 2-4.65 5.2-3.85-7.45-9.1-4.8-4.65-6.3-10.1-4.25" fill="#c9896d" fill-rule="evenodd" transform="translate(1 1)"/><path d="M62.15 55.35q10.7 5.65 15.25-6.2 2.05-6.9 2.65-12.6 5.4 6.15 5.7 12.5-4.6 8.2-17.1 10.6l-6.5-4.3m3.7-30.45-9.7 5.95-15.4-9.55q-7.75-6.2-13.2-3.9-4.85 2.05-1.3 11-3.3-.75-11.9 5.7Q8.85 15.65 0 2.25 21.7-1.45 32.75.9q7 8.25 19.95 18.7 4.55 4.3 13.15 5.3" fill="#69493a" fill-rule="evenodd" transform="translate(1 1)"/><path d="M65.85 24.9q-8.6-1-13.15-5.3Q39.75 9.15 32.75.9q2 .45 3.65 1.05Q45.95 13.2 65.85 24.9" fill="#b6b6b4" fill-rule="evenodd" transform="translate(1 1)"/><path d="M15.35 35.1q6 7.8 12.55 8.9l9.8 1.65Q51 49.2 62.65 56.1m.5.25 6.5 4.3q12.5-2.4 17.1-10.6M66.85 25.9Q46.95 14.2 37.4 2.95q-1.65-.6-3.65-1.05Q22.7-.45 1 3.25q8.85 13.4 14.35 31.85" fill="none" stroke="#52382e" stroke-linecap="round" stroke-linejoin="round" stroke-width="2"/></g><g id="h"><path d="M.05 22.55q.1-1.8.7-3.75Q6 27 19.95 27.7l-6 5.7Q4 29.5.05 22.55" fill="#bbb9bc" fill-rule="evenodd" transform="translate(.5 .5)"/><path d="M.05 22.55Q4 29.5 13.95 33.4l-4 3.85Q-.75 31.7.05 22.55" fill="#fff" fill-rule="evenodd" transform="translate(.5 .5)"/><path d="m13.95 33.4 6-5.7Q6 27 .75 18.8q-.6 1.95-.7 3.75-.8 9.15 9.9 14.7l4-3.85z" fill="none" stroke="#3c3c3c" stroke-linecap="round" stroke-linejoin="round" transform="translate(.5 .5)"/><path d="M10.6 104.1q8.75-20.8 7.4-42.35-.35-5-4.45-9.35-9.3-11.2-6.65-17.35 5.6-10.8 10.8-14.75 2.75-1.45 5.95-1.25Q36.95 29 38.7 37l.9 3.55-.6-.45-1.25-.25q-.6.15-.9.6-.3.55-.1 1.15l.85.95 1.25.2q.65-.05.95-.6l.1-.1q2.55 14.45-1.45 40.1l-.7 6.1Q37 89.35 36.2 91q-1.75 3.55.75 3.35-1.8 13.2-4.1 21.85-3.2 8.9-9.1 8.5l-2.6-9.2q.6-.45 1.3-.8 3.9-1.9 7.5 0-2.8-5.3 1.6-8.9-6-.5-4.85-7.35-1.45 3.7-5 3.95 2.7.9 2.75 3.45-.15 3-1.95 4.2-1.5.7-2.75.55l-9.15-6.5m4-68.75q.8-.5 1.05-1.55.3-1.1-.15-2.15-.4-1.1-1.3-1.45-.9-.45-1.7 0-.8.45-1.1 1.6-.25 1.05.15 2.15.45 1.05 1.3 1.45l1.75-.05m14.25.25q-3.05-1.4-5.6-.1-2.55 1.35-3 4.65-.35 3.35 1.95 6.6 2.35 3.3 5.55 4.55 3.25 1.35 5.7 0 2.35-1.35 2.55-4.6.15-3.25-2-6.45-2.15-3.25-5.15-4.65m-4.05-6.65q0-1-.7-1.7t-1.7-.7q-1 0-1.7.7t-.7 1.7q0 1.05.7 1.75t1.7.7q1 0 1.7-.7t.7-1.75m6.15 1.9q-.55.55-.4 1.5.15.95.95 1.75.8.8 1.7.95 1 .15 1.55-.4t.4-1.5q-.15-1-.95-1.8-.75-.75-1.75-.9-.95-.15-1.5.4m2.25 53.7-3.8 9.3q-.5 1.65 1.4 1.75 2.5-2.75 3.25-9.45.05-1.3-.85-1.6" fill="#a36347" fill-rule="evenodd" transform="translate(.5 .5)"/><path d="M30.95 30.85q.55-.55 1.5-.4 1 .15 1.75.9.8.8.95 1.8.15.95-.4 1.5t-1.55.4q-.9-.15-1.7-.95-.8-.8-.95-1.75-.15-.95.4-1.5m-6.15-1.9q0 1.05-.7 1.75t-1.7.7q-1 0-1.7-.7t-.7-1.75q0-1 .7-1.7t1.7-.7q1 0 1.7.7t.7 1.7m4.05 6.65q3 1.4 5.15 4.65 2.15 3.2 2 6.45-.2 3.25-2.55 4.6-2.45 1.35-5.7 0-3.2-1.25-5.55-4.55-2.3-3.25-1.95-6.6.45-3.3 3-4.65 2.55-1.3 5.6.1m-14.25-.25-1.75.05q-.85-.4-1.3-1.45-.4-1.1-.15-2.15.3-1.15 1.1-1.6.8-.45 1.7 0 .9.35 1.3 1.45.45 1.05.15 2.15-.25 1.05-1.05 1.55m25.3 6.7-.1.1q-.3.55-.95.6l-1.25-.2-.85-.95q-.2-.6.1-1.15.3-.45.9-.6l1.25.25.6.45.3 1.5" fill="#fbe96d" fill-rule="evenodd" transform="translate(.5 .5)"/><path d="M23.65 19.05q6.6.4 14.9 8.1 5.55 6.2 10.1 13.65 4.6 7.95 4.35 15.95-.4 10.9-2.5 23.9-3.8 21.9-10.1 36.55-3.4 8.3-15.85 10.3l-.8-2.8q5.9.4 9.1-8.5 2.3-8.65 4.1-21.85-2.5.2-.75-3.35.8-1.65 1.55-2.75l.7-6.1q4-25.65 1.45-40.1l-.3-1.5-.9-3.55q-1.75-8-15.05-17.95M30.8 95.6q-1.9-.1-1.4-1.75l3.8-9.3q.9.3.85 1.6-.75 6.7-3.25 9.45m7.2-1.4q1.45-4.05 2.05-8.35-.6 4.3-2.05 8.35m4.75 1.75q1.6-3.65 2-6.4-.4 2.75-2 6.4" fill="#69493a" fill-rule="evenodd" transform="translate(.5 .5)"/><path d="m48.65 40.8 4.8 8.7q3.25 8.25 0 24.75-3.05 25.2-10.55 42.4-3.8 9.35-7.25 9.45l-11.1 1.4q12.45-2 15.85-10.3 6.3-14.65 10.1-36.55 2.1-13 2.5-23.9.25-8-4.35-15.95" fill="#b6b6b4" fill-rule="evenodd" transform="translate(.5 .5)"/><path d="m21.15 115.5-1.4-4.9q1.25.15 2.75-.55 1.8-1.2 1.95-4.2-.05-2.55-2.75-3.45 3.55-.25 5-3.95-1.15 6.85 4.85 7.35-4.4 3.6-1.6 8.9-3.6-1.9-7.5 0-.7.35-1.3.8" fill="#c9896d" fill-rule="evenodd" transform="translate(.5 .5)"/><path d="M11.1 104.6q8.75-20.8 7.4-42.35-.35-5-4.45-9.35-9.3-11.2-6.65-17.35Q13 24.75 18.2 20.8q2.75-1.45 5.95-1.25 6.6.4 14.9 8.1 5.55 6.2 10.1 13.65l4.8 8.7q3.25 8.25 0 24.75-3.05 25.2-10.55 42.4-3.8 9.35-7.25 9.45l-11.1 1.4" fill="none" stroke="#52382e" stroke-linecap="round" stroke-linejoin="round" stroke-width="2"/><path d="M30.8 95.6q2.5-2.75 3.25-9.45.05-1.3-.85-1.6m11.55 5q-.4 2.75-2 6.4m-2.7-10.1q-.6 4.3-2.05 8.35" fill="none" stroke="#52382e" stroke-linecap="round" stroke-linejoin="round" transform="translate(.5 .5)"/><path d="M28.4 22.25q-5-10.95-13.55-17.5l-4-.5Q9.4 1.75 6.9.05q7.35-.8 15.95 7.15 4.7 5 7.05 12.4-.25 1.7-1.5 2.65" fill="#bbb9bc" fill-rule="evenodd" transform="translate(.5 .5)"/><path d="m10.85 4.25 4 .5q8.55 6.55 13.55 17.5-1.1.85-3.15 1.05-3.6.35-5.95-1.45-1.9-1.55-3.25-.7-3.75-5.65-3.45-9.45 0-4.35-1.75-7.45" fill="#fff" fill-rule="evenodd" transform="translate(.5 .5)"/><path d="M28.4 22.25q1.25-.95 1.5-2.65-2.35-7.4-7.05-12.4Q14.25-.75 6.9.05q2.5 1.7 3.95 4.2 1.75 3.1 1.75 7.45-.3 3.8 3.45 9.45 1.35-.85 3.25.7 2.35 1.8 5.95 1.45 2.05-.2 3.15-1.05z" fill="none" stroke="#3c3c3c" stroke-linecap="round" stroke-linejoin="round" transform="translate(.5 .5)"/><path d="M25.95 15.15q-.95-2.2-2.55-4.1 11.4 2.65 15.05 6.35 2.85 2.85 1.45 7.55-.4 2.8-2.2 3.55 1.45-6.35-7.2-12.15-2.45-1.95-4.55-1.2" fill="#bbb9bc" fill-rule="evenodd" transform="translate(.5 .5)"/><path d="m37.7 28.5-1.7.25q-7.3-1.4-8.3-6.05-.2-4.15-1.75-7.55 2.1-.75 4.55 1.2 8.65 5.8 7.2 12.15" fill="#fff" fill-rule="evenodd" transform="translate(.5 .5)"/><path d="m37.7 28.5-1.7.25q-7.3-1.4-8.3-6.05-.2-4.15-1.75-7.55-.95-2.2-2.55-4.1 11.4 2.65 15.05 6.35 2.85 2.85 1.45 7.55-.4 2.8-2.2 3.55z" fill="none" stroke="#3c3c3c" stroke-linecap="round" stroke-linejoin="round" transform="translate(.5 .5)"/><path d="M37.35 25.65q-1.2-1.45-3.5-2.5 4.35-1.85 10.85 2.5 5.7 4.4 5.5 10.5-.35 4.8-2.1 5l-2.25-.8q1.4-4.6-1.35-9.45-3.35-5.1-7.15-5.25" fill="#bbb9bc" fill-rule="evenodd" transform="translate(.5 .5)"/><path d="M45.85 40.35q-3.25-1.35-4.8-3.5-2.2-3.25-2.4-7.9-.1-1.85-1.3-3.3 3.8.15 7.15 5.25 2.75 4.85 1.35 9.45" fill="#fff" fill-rule="evenodd" transform="translate(.5 .5)"/><path d="M37.35 25.65q-1.2-1.45-3.5-2.5 4.35-1.85 10.85 2.5 5.7 4.4 5.5 10.5-.35 4.8-2.1 5l-2.25-.8q-3.25-1.35-4.8-3.5-2.2-3.25-2.4-7.9-.1-1.85-1.3-3.3z" fill="none" stroke="#3c3c3c" stroke-linecap="round" stroke-linejoin="round" transform="translate(.5 .5)"/><path d="M43.9 42.9q-1.6-1.75-4-3.35 7.15-.55 12.55 3.4 5.45 4 5.55 11.85.15 3.15-3.85 3.25Q54.7 44.8 43.9 42.9" fill="#bbb9bc" fill-rule="evenodd" transform="translate(.5 .5)"/><path d="M43.9 42.9q10.8 1.9 10.25 15.15h-.8q-5.2-.25-5.9-2.65-.45-2.15-.4-5.5-.2-3.8-3.15-7" fill="#fff" fill-rule="evenodd" transform="translate(.5 .5)"/><path d="M54.15 58.05q4-.1 3.85-3.25-.1-7.85-5.55-11.85-5.4-3.95-12.55-3.4 2.4 1.6 4 3.35 2.95 3.2 3.15 7-.05 3.35.4 5.5.7 2.4 5.9 2.65h.8z" fill="none" stroke="#3c3c3c" stroke-linecap="round" stroke-linejoin="round" transform="translate(.5 .5)"/></g><g id="i"><path d="M12 3.1q.45 10.55 7.95 18.4Q32.1 34.35 31.6 43.4q-.4 3.55 1.15 4.5-5.95-2.3-11.35-7.4l-.95-.95-1.55-1.65q-.2 3.1 1.95 6Q11 38.95 7.7 29.65l-1-3.4-.6-3.9q-3.1.25-2.85 8.2Q-1.75 20.1.95 0L12 3.1m4.45 24.1q-5.55-.9-8.05-7-3.85-.65-5.4-5.1-1 3.05-.35 6.6 2.65-3.1 4.25.2 4.2 10.25 9.65 14.55-1.85-3.25-1.9-5.4 5.7 6.7 12.6 8.1-8.15-4.85-10.8-11.95" fill="#a36347" fill-rule="evenodd" transform="translate(1 1)"/><path d="M16.45 27.2q2.65 7.1 10.8 11.95-6.9-1.4-12.6-8.1.05 2.15 1.9 5.4-5.45-4.3-9.65-14.55-1.6-3.3-4.25-.2Q2 18.15 3 15.1q1.55 4.45 5.4 5.1 2.5 6.1 8.05 7" fill="#c9896d" fill-rule="evenodd" transform="translate(1 1)"/><path d="m43.75 41.1-1.5-1.45q2 5.1-1.75 6.45-3.55-3.8-7.15-4.85l-.1 2.1q-.8 2.25-.5 4.55-1.55-.95-1.15-4.5.5-9.05-11.65-21.9-7.5-7.85-7.95-18.4 46.7 13.4 52.55 24.45 4.55 11.65-.6 18.85-.2-4.75-3.05-6.6-3 6.6-5.7 5.9-1.25-3-3.7-5.9-1.8 7.95-3.5 7.35-1.45-3.15-4.25-6.05M18.9 37.9l1.55 1.65q.45 3.1 1.85 5.05l-1.45-.7q-2.15-2.9-1.95-6M3.25 30.55Q3 22.6 6.1 22.35l.6 3.9Q5 28.95 4.65 33.1l-1.4-2.55" fill="#69493a" fill-rule="evenodd" transform="translate(1 1)"/><path d="m42.25 39.65 1.5 1.45q1.15 4.7-.4 8.5l-2.85-3.5q3.75-1.35 1.75-6.45m5.75 7.5q1.7.6 3.5-7.35.7 7.5-2.3 11.05-.4-1.9-1.2-3.7m7.2-1.45q2.7.7 5.7-5.9-.8 7.4-4.55 9.65L55.2 45.7m-22.45 2.2q-.3-2.3.5-4.55.2 3.2 2.75 5.55-1.65-.4-3.25-1m-12.3-8.35.95.95 2.9 4.9-2-.8q-1.4-1.95-1.85-5.05M6.7 26.25l1 3.4q-1 3.2-.9 6.15-1.15-1.25-2.15-2.7.35-4.15 2.05-6.85" fill="#b6b6b4" fill-rule="evenodd" transform="translate(1 1)"/><path d="m42.25 39.65 1.5 1.45m-23.3-1.55.95.95m-.95-.95L18.9 37.9M6.1 22.35l.6 3.9 1 3.4" fill="none" stroke="#52382e" stroke-linecap="round" stroke-linejoin="round" transform="translate(1 1)"/><path d="M44.75 42.1q2.8 2.9 4.25 6.05.8 1.8 1.2 3.7 3-3.55 2.3-11.05 2.45 2.9 3.7 5.9l1.15 3.75q3.75-2.25 4.55-9.65 2.85 1.85 3.05 6.6 5.15-7.2.6-18.85Q59.7 17.5 13 4.1L1.95 1q-2.7 20.1 2.3 30.55l1.4 2.55q1 1.45 2.15 2.7-.1-2.95.9-6.15 3.3 9.3 13.15 14.25l1.45.7 2 .8-2.9-4.9q5.4 5.1 11.35 7.4 1.6.6 3.25 1-2.55-2.35-2.75-5.55l.1-2.1q3.6 1.05 7.15 4.85l2.85 3.5q1.55-3.8.4-8.5z" fill="none" stroke="#52382e" stroke-linecap="round" stroke-linejoin="round" stroke-width="2"/></g><g id="j"><path d="M126.25 169.4Q108 186.8 82.15 187l-1.2.05q-15 .15-29.75-9.15-4.15-2.25-7.9-5.2 23.65 14.35 42.8 11.6 20.25-3.15 40.15-14.9m-93.9-7.9q-6.2-8.1-11.1-19.05Q30.6 154.65 40.3 160q12.95 7.2 26.3 1.9 1.25-.6 2.45-1.25-1.95 8.25 3.15 15.7-3.65 3.2-17.65-1.25-14.75-6.15-22.2-13.6M3.6 64.75 1.7 48.8q1.55-2.75 4.15-3.35-3.1 6.55-1.6 15.8l-.65 3.5m81.7 77.6q2.15-4.75 3.55-10.45 6.1-27.75-11.65-65.9-8.9-17.7-21.5-31.2 4.45-1.2 12.4-.1-6.05-5.15-2.95-11.75 1.45-2.65 5.2-3.3 7.25 5.1 12.05 17.2Q87.7 48.9 93.5 59.9q7.95 15.7 23.65 33.2 11.6 10.45 9.8 32.55-3.15 18.8-11.8 29.6-6.25 7.9-14.35 10.3-9.15-9.6-15.5-23.2m5.25 43.6-8.4 1.05 8.4-1.05" fill="#a36347" fill-rule="evenodd" transform="translate(1 1)"/><path d="M71.3 113.25q3.75 3.8 3.75 9.15 0 5.3-3.75 9.1t-9 3.8q-3.05 0-5.55-1.25-.15 2.2-1.75 3.85-1.8 1.8-4.3 1.8t-4.25-1.8q-1.8-1.75-1.8-4.25t1.8-4.3q1.7-1.75 4.1-1.75-1-2.4-1-5.2 0-5.35 3.7-9.15 3.75-3.75 9.05-3.75 5.25 0 9 3.75" fill="#f9eedc" fill-rule="evenodd" transform="translate(1 1)"/><path d="M21.25 142.45q-1.8-4-3.4-8.35-9-29.85-14.25-69.35l.65-3.5q1.1-5.7 2.45-9.9Q11.95 61.8 17.85 68.4q.45-18.7 5.95-23.8 5.4-4.1 14.6 7.95-2.5-12.75 1.95-14.45 9.7-3.5 15.3 4 13.9 15.75 22.8 45.6Q87 113.9 82.2 134q-10.3 8.2-13.1 22.2-12 7.5-28.8 3.8-9.7-5.35-19.05-17.55m50.05-29.2q-3.75-3.75-9-3.75-5.3 0-9.05 3.75-3.7 3.8-3.7 9.15 0 2.8 1 5.2-2.4 0-4.1 1.75-1.8 1.8-1.8 4.3t1.8 4.25q1.75 1.8 4.25 1.8t4.3-1.8q1.6-1.65 1.75-3.85 2.5 1.25 5.55 1.25 5.25 0 9-3.8t3.75-9.1q0-5.35-3.75-9.15" fill="#e5d3bb" fill-rule="evenodd" transform="translate(1 1)"/><path d="M40.3 160q16.8 3.7 28.8-3.8 2.8-14 13.1-22.2 4.8-20.1-3.75-46.3-8.9-29.85-22.8-45.6-5.6-7.5-15.3-4-4.45 1.7-1.95 14.45-9.2-12.05-14.6-7.95-5.5 5.1-5.95 23.8-5.9-6.6-11.15-17.05-1.35 4.2-2.45 9.9-1.5-9.25 1.6-15.8 1.15-2.5 2.95-4.6Q17.4 30.2 28.1 27.4q11.9-2.75 22.15 1.85l5.45 5.55Q68.3 48.3 77.2 66q17.75 38.15 11.65 65.9-1.4 5.7-3.55 10.45-5.65 12.3-16.25 18.3-1.2.65-2.45 1.25-13.35 5.3-26.3-1.9" fill="#bda990" fill-rule="evenodd" transform="translate(1 1)"/><path d="M56.3.6q20.25 7.2 40.9 44.85 9.1 16.95 18.7 31 3.55 6.1 8.1 11.65 2.75.85 4.75 2.1 8.5 4.95 11.65 16.8 3.35 13.9 1.4 20.95l-.7-1.6q3.45 17.9 2.4 30.45-1.95-4.1-5-8.6l-.7-1.3q6.5 25-17 34.45 4.5-6.1 5.5-11.95h-.05q-19.9 11.75-40.15 14.9-19.15 2.75-42.8-11.6-5.9-4.65-10.95-11.2 7.45 7.45 22.2 13.6 14 4.45 17.65 1.25-5.1-7.45-3.15-15.7 10.6-6 16.25-18.3 6.35 13.6 15.5 23.2 8.1-2.4 14.35-10.3 8.65-10.8 11.8-29.6 1.8-22.1-9.8-32.55-15.7-17.5-23.65-33.2-5.8-11-11.1-23.05-4.8-12.1-12.05-17.2-3.75.65-5.2 3.3-3.1 6.6 2.95 11.75-7.95-1.1-12.4.1l-5.45-5.55Q40 24.65 28.1 27.4 17.4 30.2 8.8 40.85q-1.8 2.1-2.95 4.6-2.6.6-4.15 3.35L0 31.85 56.3.6" fill="#69493a" fill-rule="evenodd" transform="translate(1 1)"/><path d="m56.3.6 1-.6q18.75 6.6 33.25 30.45l25.4 41.4q4.65 7.15 8.4 14.55 15.95 4.75 20.1 25.5 2.25 11.7-1.45 19.2l-1.2-3.15 1.2 3.15q6.1 16.85 2.3 30l-1.8-4.3q1.05-12.55-2.4-30.45l.7 1.6q1.95-7.05-1.4-20.95-3.15-11.85-11.65-16.8-2-1.25-4.75-2.1-4.55-5.55-8.1-11.65-9.6-14.05-18.7-31Q76.55 7.8 56.3.6m82.2 147.6q8.85 17.7-6.3 28.85-5.65 4.05-13.05 6.4l1.65-2.1q23.5-9.45 17-34.45l.7 1.3" fill="#b6b6b4" fill-rule="evenodd" transform="translate(1 1)"/><path d="M22.25 143.45q-1.8-4-3.4-8.35-9-29.85-14.25-69.35" fill="none" stroke="#755e46" stroke-linecap="round" stroke-linejoin="round" stroke-width="2"/><path d="M144 132.1q3.7-7.5 1.45-19.2-4.15-20.75-20.1-25.5-3.75-7.4-8.4-14.55l-25.4-41.4Q77.05 7.6 58.3 1l-1 .6L1 32.85 2.7 49.8l1.9 15.95M144 132.1q6.1 16.85 2.3 30l-1.8-4.3q-1.95-4.1-5-8.6 8.85 17.7-6.3 28.85-5.65 4.05-13.05 6.4l1.65-2.1q4.5-6.1 5.5-11.95h-.05Q109 187.8 83.15 188l-1.2.05q-15 .15-29.75-9.15-4.15-2.25-7.9-5.2-5.9-4.65-10.95-11.2-6.2-8.1-11.1-19.05M83.15 188l8.4-1.05" fill="none" stroke="#52382e" stroke-linecap="round" stroke-linejoin="round" stroke-width="2"/><path d="m141.8 127.95 1.2 3.15M40.3 160q12.95 7.2 26.3 1.9 1.25-.6 2.45-1.25 10.6-6 16.25-18.3 2.15-4.75 3.55-10.45 6.1-27.75-11.65-65.9-8.9-17.7-21.5-31.2l-5.45-5.55Q40 24.65 28.1 27.4 17.4 30.2 8.8 40.85q-1.8 2.1-2.95 4.6-3.1 6.55-1.6 15.8m136.85 65.1.7 1.6m-4 18.95.7 1.3M40.3 160q-9.7-5.35-19.05-17.55" fill="none" stroke="#52382e" stroke-linecap="round" stroke-linejoin="round" transform="translate(1 1)"/></g><g id="k"><path d="M9.15 55.85q-4.05-.85-6.7 2.5Q3 51.5 6.2 49.9q4.75-2.4 15-2.95 15.5-2.3 31.3-9.45 7.45.95 12.1 7.5-11.05-2.55-21.75 2.05l-.1.05q-6.25 1.55-6.2 7.85-2.3-1.5-4.85-1.3h-.05q-11.8-.95-15.25 11.6-3.15-5.35-7.25-9.4m55.2-21.8.45-.65-.3.75-.15-.1" fill="#a36347" fill-rule="evenodd" transform="translate(.75 .75)"/><path d="M.05 61.85Q.6 49.2 8.9 39.25l40.6-37.3Q60.9-.1 72.45 0q3.65 1.5 9.5 3.05 1.8 1 0 3.05-1.85 2.55-.05 4.6.35.8 1.55 1.45.55 1.25-1.3 2.5-4 2.45-5.65 5.5-1 .75-1.7 1.6l-.3.35q-1.8 1.2-2.15 4.45-4.25 2.25-5.7 4.3-1.2 1.05-1.85 2.55l-.45.65q-2.95 4.7.95 11.15l-.7-.2q-4.65-6.55-12.1-7.5-15.8 7.15-31.3 9.45-10.25.55-15 2.95-3.2 1.6-3.75 8.45 2.65-3.35 6.7-2.5l-2.25 1.8q-4.8.45-6.85 4.2m42.7-14.75q-1.15.5-1.8 1.4-2.75 2.15-3 7.55l-1.4-1.1q-.05-6.3 6.2-7.85m-11.1 6.55q-2.15.2-4.45 1.6-.75.5-1.45 1.1Q20 60 18.25 68.6l-1.85-3.35q3.45-12.55 15.25-11.6" fill="#69493a" fill-rule="evenodd" transform="translate(.75 .75)"/><path d="M.05 61.85q2.05-3.75 6.85-4.2-4.9 4.3-6.75 9.8-.25-2.9-.1-5.6M65.3 45.2q-3.9-6.45-.95-11.15l.15.1q-2.15 7.95 6.4 12.9-2.8-1.15-5.6-1.85m1.35-14.35q1.45-2.05 5.7-4.3.35-3.25 2.15-4.45-2.85 3.95 4.6 7.75-8.75-2.05-12.45 1m9.85-10.7q1.65-3.05 5.65-5.5 1.85-1.25 1.3-2.5 3.25 1.65 12.8 1.65-14.2 2.1-19.75 6.35m5.4-9.45q-1.8-2.05.05-4.6 1.8-2.05 0-3.05Q76.1 1.5 72.45 0 84.1.5 93.4 2.9 81.55 6 81.75 9.9q0 .45.15.8M37.95 56.05q.25-5.4 3-7.55-2.45 3.3.3 11.65-1.6-2.55-3.3-4.1M18.25 68.6Q20 60 25.75 56.35 19.4 62.3 21.8 77.4q-1.55-4.75-3.55-8.8" fill="#b6b6b4" fill-rule="evenodd" transform="translate(.75 .75)"/><path d="M73.2.75Q61.65.65 50.25 2.7L9.65 40Q1.35 49.95.8 62.6q-.15 2.7.1 5.6 1.85-5.5 6.75-9.8l2.25-1.8q4.1 4.05 7.25 9.4L19 69.35q2 4.05 3.55 8.8-2.4-15.1 3.95-21.05.7-.6 1.45-1.1 2.3-1.4 4.45-1.6m32.95-8.65.7.2q2.8.7 5.6 1.85-8.55-4.95-6.4-12.9l.3-.75q.65-1.5 1.85-2.55 3.7-3.05 12.45-1-7.45-3.8-4.6-7.75l.3-.35q.7-.85 1.7-1.6Q82.8 16.65 97 14.55q-9.55 0-12.8-1.65-1.2-.65-1.55-1.45-.15-.35-.15-.8-.2-3.9 11.65-7-9.3-2.4-20.95-2.9m-31.5 48.5q.65-.9 1.8-1.4l.1-.05q10.7-4.6 21.75-2.05M37.3 55.7l1.4 1.1q1.7 1.55 3.3 4.1-2.75-8.35-.3-11.65m-9.25 5.15q2.55-.2 4.85 1.3" fill="none" stroke="#52382e" stroke-linecap="round" stroke-linejoin="round" stroke-width="1.5"/></g><g id="l"><path d="M80.95 17.65q.9-6-.55-6.6-2.8-1-9.3 9.65 3.45-7.6 1.3-9.1-4.45-1.7-15.3 13.35 4.5-11.3 14.95-18.15Q81.5 1.45 92.5 1.5q-9.15 6.85-11.55 16.15m-26.55 4.9q-1.95-8.8-3.5-8-2.6.5-7.4 10.45 3.05-10 .65-10.7-7.4-.2-21.8 25.6Q26.3 26 39.55 11.65 49.95 2.25 61.9 0q-8.7 10.15-7.5 22.55m47.3 2q1.35-1.9.45-3.05-2.55-1.6-10.95 6.05 4.8-5.6 3.65-7.65-1.95-2.7-12.6 4.1 6.6-7.5 17.2-8.85 8.05-1 13.6.55-7.05 3.55-11.35 8.85" fill="#322b25" fill-rule="evenodd" transform="translate(1 .5)"/><path d="M57.1 24.95Q67.95 9.9 72.4 11.6q2.15 1.5-1.3 9.1 6.5-10.65 9.3-9.65 1.45.6.55 6.6v.1q-1.1 4.2-.8 8.9l2.1-2.65q10.65-6.8 12.6-4.1 1.15 2.05-3.65 7.65 8.4-7.65 10.95-6.05.9 1.15-.45 3.05l-.5.6q-2.65 3.55-4.1 7.75 14.1-4.7 23.6-.7-8.9 5.35-10.4 13.8 10.95-1.15 14.3 1.95-5.7 4.3-12.9 12.6 7.75.65 10 4.2-12.45 7.55-18.5 21.55-7.1 6.95-16.4 5.4L20.65 53.05q-.2-6.5 1.7-13.15 14.4-25.8 21.8-25.6 2.4.7-.65 10.7 4.8-9.95 7.4-10.45 1.55-.8 3.5 8 .3 3.2 1.25 6.6.65-2.15 1.45-4.2" fill="#e5d3bb" fill-rule="evenodd" transform="translate(1 .5)"/><path d="M80.95 17.65q2.4-9.3 11.55-16.15-11-.05-20.45 5.3Q61.6 13.65 57.1 24.95q-.8 2.05-1.45 4.2-.95-3.4-1.25-6.6Q53.2 10.15 61.9 0 49.95 2.25 39.55 11.65 26.3 26 22.35 39.9q-1.9 6.65-1.7 13.15L86.8 91.7q9.3 1.55 16.4-5.4 6.05-14 18.5-21.55-2.25-3.55-10-4.2 7.2-8.3 12.9-12.6-3.35-3.1-14.3-1.95 1.5-8.45 10.4-13.8-9.5-4-23.6.7 1.45-4.2 4.1-7.75l.5-.6q4.3-5.3 11.35-8.85-5.55-1.55-13.6-.55-10.6 1.35-17.2 8.85l-2.1 2.65q-.3-4.7.8-8.9v-.1z" fill="none" stroke="#422d24" stroke-linecap="round" stroke-linejoin="round" transform="translate(1 .5)"/><path d="m16.85 123.2.05-.4.15.4h-.2M13.2 73.8l.35-4.4q.65-3.95.55-8.25 2.3-5.5 5.8-11.9 7.95-10.75 25.6-15.2 16.6-4.1 24.5 1.8 11.9 9.5 16.25 28.75 5.15 8.3 4.45 23.9-1.2 15.75-14.75 26.55-11.75 9.2-30.45 13 1.95-2.1 3.3-4.95 4-7.15 1.45-17.3-2.1-9.25-8.9-14.85-4.25-3.5-14.9-9.25l-1.75-.95-2.3-1.3 1.25-6q.7-4.75-.85-7.05-3.15 2.55-4.4 9.05-1.4-.4-2.85 0-2.15.6-2.35-1.65m52.9-30.75q.6-.05 1.05-.5.45-.5.45-1.2t-.45-1.15q-.5-.5-1.2-.5l-.8.2L64 38.5l.2-1.3q0-1.6-1.25-2.8-1.25-1.15-3.1-1.15-1.8 0-3.05 1.15-1.15 1.05-1.25 2.5v.3l-.15-.25q-1.2.5-2.2 1.4-2.2 2.05-2.2 5 0 2.9 2.2 4.95 2.25 2.05 5.35 2.05l2.35-.3.7 1.05q.9.9 2.25.9 1.25 0 2.15-.9.95-.8.95-2.05 0-1.2-.95-2.05l-.65-.5q.75-1.4.75-3.15v-.3m-.75 40.2q2.85-2.35 10.8 1.35-6.05-3.75-2.95-10.05-4.8 5.6-8.5-.7.4 5.7-2.7 7.65-3.85 1.5-8.35-3.9 1.25 13.05-6.6 10.65 2.15 2.9-.85 5 4.7-.45 7.65 3.75-1.6-6.1.5-8.7 2.2-2.8 8.35 1.2.05-4.1 2.65-6.25" fill="#a36347" fill-rule="evenodd" transform="translate(1 .5)"/><path d="M2.6 103.95q-1.4-2.05-1.2-5.9 2.7 2 6.3 2.3 4.2.35 7.2-1.8 2.95-2.1 2.95-5.5 0-3.3-2.95-6-2.2-1.9-5-2.6 2.15-2.2 2.9-6.2 4.6-1.3 9.6 1.2l2.3 1.3 1.75.95q4.8 4.15 4.75 11-.15 6.25-8.6 10.4-8.75 4.15-20 .85" fill="#fbe96d" fill-rule="evenodd" transform="translate(1 .5)"/><path d="M41.45 131.2q-12.9.5-20.25-2.25-4.5-1.8-4.35-5.75h.2q3.1 2.75 8.1 1.95 3.45-.9 3.9-2.8.7-5.65-5.9-10.35-1.4-1.15-4.95-2.4-4.4-1.6-12.15-3.45-2.3-.45-3.45-2.2 11.25 3.3 20-.85 8.45-4.15 8.6-10.4.05-6.85-4.75-11 10.65 5.75 14.9 9.25 6.8 5.6 8.9 14.85 2.55 10.15-1.45 17.3-1.35 2.85-3.3 4.95-1.8 1.9-4.05 3.15M1.4 98.05q.05-1.75.5-3.9 1.65-6.6 5.15-7.8 1.6-.65 2.85-1.9 2.8.7 5 2.6 2.95 2.7 2.95 6 0 3.4-2.95 5.5-3 2.15-7.2 1.8-3.6-.3-6.3-2.3" fill="#cdbe61" fill-rule="evenodd" transform="translate(1 .5)"/><path d="M66.1 43.05v.3q0 1.75-.75 3.15l.65.5q.95.85.95 2.05 0 1.25-.95 2.05-.9.9-2.15.9-1.35 0-2.25-.9l-.7-1.05-2.35.3q-3.1 0-5.35-2.05-2.2-2.05-2.2-4.95 0-2.95 2.2-5 1-.9 2.2-1.4l.15.25q0 1.7 1.25 2.85 1.25 1.15 3.05 1.15 1.85 0 3.1-1.15L64 38.5l1.15 1.4-.4.3q-.45.45-.45 1.15t.45 1.2q.5.5 1.2.5h.15m-.75 40.2q-2.6 2.15-2.65 6.25-6.15-4-8.35-1.2-2.1 2.6-.5 8.7-2.95-4.2-7.65-3.75 3-2.1.85-5 7.85 2.4 6.6-10.65 4.5 5.4 8.35 3.9 3.1-1.95 2.7-7.65 3.7 6.3 8.5.7-3.1 6.3 2.95 10.05-7.95-3.7-10.8-1.35" fill="#c9896d" fill-rule="evenodd" transform="translate(1 .5)"/><path d="M44.45 31.05q25.45-3.95 32.9-1.9 7.55 2.5 11.55 6.4Q98.5 46 101.4 65.7q1.2 9.9 0 23.9-1.8 11.5-6.1 16.4-10.25 10.65-29.25 20.15H66q-11.55 4.2-23.8 5.05h-.75q2.25-1.25 4.05-3.15 18.7-3.8 30.45-13Q89.5 104.25 90.7 88.5q.7-15.6-4.45-23.9Q81.9 45.35 70 35.85q-7.9-5.9-24.5-1.8-17.65 4.45-25.6 15.2l4.5-8q5.25-6 20.05-10.2M12.8 78.25l.4-4.45q.2 2.25 2.35 1.65 1.45-.4 2.85 0 1.25-6.5 4.4-9.05 1.55 2.3.85 7.05l-1.25 6q-5-2.5-9.6-1.2" fill="#69493a" fill-rule="evenodd" transform="translate(1 .5)"/><path d="M44.45 31.05q9.1-2.6 21.8-4.55 14.4-2.25 25.4 7.1 10.45 10.05 13.55 30.8.05 17.35-3.3 33.4-2.15 12.2-24.2 23.1-5.75 3.05-11.65 5.25 19-9.5 29.25-20.15 4.3-4.9 6.1-16.4 1.2-14 0-23.9Q98.5 46 88.9 35.55q-4-3.9-11.55-6.4-7.45-2.05-32.9 1.9" fill="#b6b6b4" fill-rule="evenodd" transform="translate(1 .5)"/><path d="M16.9 122.8v-.15q.15-.5 1.4-.8 1.05-.25 1.75-.8 1.35 2.75 4.05 1.1 1.5-1.2 1.35-3.4-.6-3.5-4.5-4.65-.8-2.6-2.75-4.5 3.55 1.25 4.95 2.4 6.6 4.7 5.9 10.35-.45 1.9-3.9 2.8-5 .8-8.1-1.95l-.15-.4" fill="#ae4c4d" fill-rule="evenodd" transform="translate(1 .5)"/><path d="M20.05 121.05q1.45-1.15 1.45-3.5-.05-1.85-.55-3.45 3.9 1.15 4.5 4.65.15 2.2-1.35 3.4-2.7 1.65-4.05-1.1" fill="#ea6d71" fill-rule="evenodd" transform="translate(1 .5)"/><path d="m65.15 39.9.8-.2q.7 0 1.2.5.45.45.45 1.15t-.45 1.2q-.45.45-1.05.5h-.15q-.7 0-1.2-.5-.45-.5-.45-1.2t.45-1.15l.4-.3m-9.6-2.7v-.3q.1-1.45 1.25-2.5 1.25-1.15 3.05-1.15 1.85 0 3.1 1.15 1.25 1.2 1.25 2.8l-.2 1.3-1.05 1.55q-1.25 1.15-3.1 1.15-1.8 0-3.05-1.15-1.25-1.15-1.25-2.85" fill="#fff" fill-rule="evenodd" transform="translate(1 .5)"/><path d="M67.05 126.65q5.9-2.2 11.65-5.25 22.05-10.9 24.2-23.1 3.35-16.05 3.3-33.4-3.1-20.75-13.55-30.8-11-9.35-25.4-7.1-12.7 1.95-21.8 4.55-14.8 4.2-20.05 10.2l-4.5 8q-3.5 6.4-5.8 11.9.1 4.3-.55 8.25l-.35 4.4-.4 4.45q-.75 4-2.9 6.2-1.25 1.25-2.85 1.9-3.5 1.2-5.15 7.8-.45 2.15-.5 3.9-.2 3.85 1.2 5.9 1.15 1.75 3.45 2.2 7.75 1.85 12.15 3.45 3.55 1.25 4.95 2.4 6.6 4.7 5.9 10.35-.45 1.9-3.9 2.8-5 .8-8.1-1.95l-.15-.4v-.15q.15-.5 1.4-.8 1.05-.25 1.75-.8 1.45-1.15 1.45-3.5-.05-1.85-.55-3.45-.8-2.6-2.75-4.5M67 126.65q-11.55 4.2-23.8 5.05h-.75q-12.9.5-20.25-2.25-4.5-1.8-4.35-5.75l.05-.4" fill="none" stroke="#52382e" stroke-linecap="round" stroke-linejoin="round" stroke-width="2"/><path d="m87.55 70.2-11.6-12.15q-4.1-5.7-.8-13.3 1.45-2.85 4.05-4.85 6.4-2.1 11.15-.75 4.15 1.6 1.45 4.6-8.45 6.4-8.4 14.2.05 7.65 4.15 12.25m0-27.85q1.65-1.45 0-2.2-3.6-1.2-6.95 1.5-5.1 5.2-4 12.6.4-4.2 5.75-4.8 2.6-4.8 5.2-7.1M97.8 53.5q-.2-2.55 3.75-1.75 2.75.85 2.7 4.7-.25 4.85-3.6 7.45-3.8 2.65-7.25 1.25-3.8-1.95-2.9-4.45l2.1.75q1.45.05 2.15-.85 3.45-1.35 4.4-5.7l-1.35-1.4" fill="#a36347" fill-rule="evenodd" transform="translate(1 .5)"/><path d="M87.55 42.35q-2.6 2.3-5.2 7.1-5.35.6-5.75 4.8-1.1-7.4 4-12.6 3.35-2.7 6.95-1.5 1.65.75 0 2.2" fill="#c9896d" fill-rule="evenodd" transform="translate(1 .5)"/><path d="M79.2 39.9q3.3-2.65 8.45-3.8 4.35-.85 8.4.1 9.85 4.7 12.35 14.15 2.1 11.9-6.85 20.25l-1.55.8q-7.8 3.35-11.25 0l-.65-.7-.55-.5q-4.1-4.6-4.15-12.25-.05-7.8 8.4-14.2 2.7-3-1.45-4.6-4.75-1.35-11.15.75m11.3 20.8q-.9 2.5 2.9 4.45 3.45 1.4 7.25-1.25 3.35-2.6 3.6-7.45.05-3.85-2.7-4.7-3.95-.8-3.75 1.75l1.35 1.4q-.95 4.35-4.4 5.7-.7.9-2.15.85l-2.1-.75q-.95-.75-1.35-2.1-.6-2.4 1.05-4.15.6-.7 1.55-1.3 3.45-1.7 6.05.35-2.6-2.05-6.05-.35-.95.6-1.55 1.3-1.65 1.75-1.05 4.15.4 1.35 1.35 2.1m4.25-.1q.5-.6.65-1.6.3-2.3-1-3.75-1.75-1.95-4.2-.8 2.45-1.15 4.2.8 1.3 1.45 1 3.75-.15 1-.65 1.6" fill="#69493a" fill-rule="evenodd" transform="translate(1 .5)"/><path d="M96.05 36.2q6.45 1.6 12 7.95 6.35 9.2 1.15 18.8-3.05 5-7.65 7.65 8.95-8.35 6.85-20.25-2.5-9.45-12.35-14.15" fill="#b6b6b4" fill-rule="evenodd" transform="translate(1 .5)"/><path d="M80.2 40.4q3.3-2.65 8.45-3.8 4.35-.85 8.4.1 6.45 1.6 12 7.95 6.35 9.2 1.15 18.8-3.05 5-7.65 7.65l-1.55.8q-7.8 3.35-11.25 0l-.65-.7M76.95 58.55q-4.1-5.7-.8-13.3 1.45-2.85 4.05-4.85" fill="none" stroke="#52382e" stroke-linecap="round" stroke-linejoin="round" stroke-width="2"/><path d="m97.8 53.5 1.35 1.4m-4.4 5.7q-.7.9-2.15.85l-2.1-.75q-.95-.75-1.35-2.1-.6-2.4 1.05-4.15.6-.7 1.55-1.3 3.45-1.7 6.05.35m-7.6.95q2.45-1.15 4.2.8 1.3 1.45 1 3.75-.15 1-.65 1.6" fill="none" stroke="#52382e" stroke-linecap="round" stroke-linejoin="round" transform="translate(1 .5)"/><path d="M5.45 91.05q0 .5-.35.8l-.8.35q-.5 0-.85-.35-.3-.3-.3-.8t.3-.85q.35-.3.85-.3.45 0 .8.3.35.35.35.85" fill="#fff" fill-rule="evenodd" transform="translate(1 .5)"/><path d="M5.45 91.05q0-.5-.35-.85-.35-.3-.8-.3-.5 0-.85.3-.3.35-.3.85t.3.8q.35.35.85.35l.8-.35q.35-.3.35-.8m1.6 7.2Q4.1 97.9 2 95.9q-2-2.05-2-4.6 0-2.5 2-4.05 2.1-1.55 5.05-1.2 2.9.3 5.1 2.15 2.15 1.85 2.05 4.35-.05 2.4-2.15 4.25-2.15 1.75-5 1.45" fill="#322b25" fill-rule="evenodd" transform="translate(1 .5)"/><path d="M8.05 98.75Q5.1 98.4 3 96.4q-2-2.05-2-4.6 0-2.5 2-4.05 2.1-1.55 5.05-1.2 2.9.3 5.1 2.15 2.15 1.85 2.05 4.35-.05 2.4-2.15 4.25-2.15 1.75-5 1.45z" fill="none" stroke="#26211e" stroke-linecap="round" stroke-linejoin="round" stroke-width="2"/></g><g id="m" fill-rule="evenodd"><path d="M42.4 4.25q.7.4.95 1.75.45 2.75-1.05 9.45-2.65 12.3-14.1 17.7l-4.55-3.2 3.4-.25q2.1-.5 4.1-1.75 2.55-1.8 4.2-4.5 1.5-2.6 2.25-5.95 1.45-5.85 1.1-10.65-4.45.95-8.75 2.2Q17.2 12.8 5.6 19.55L1.5 16l-.6-1.05q11.2-2.55 18.4-5.7 12.85-4.95 23.1-5" fill="#69493a" transform="translate(-.65 1.35)"/><path d="M.9 14.95q-.3-.8-.2-2.1.2-4.1 3.85-12.8 17.3-4.2 37.85 4.2-10.25.05-23.1 5-7.2 3.15-18.4 5.7" fill="#a36347" transform="translate(-.65 1.35)"/><path d="M23.65 29.95q-2.2-.15-4.5-1.05-5.6-2.6-10.6-6.7Q20.6 15.3 35.2 11.65q2 5 .15 11.8-1.65 2.7-4.2 4.5-2 1.25-4.1 1.75l-3.4.25" fill="#ccccc4" transform="translate(-.65 1.35)"/><path d="M8.55 22.2 5.6 19.55q11.6-6.75 24.35-10.5 4.3-1.25 8.75-2.2.35 4.8-1.1 10.65-.75 3.35-2.25 5.95 1.85-6.8-.15-11.8Q20.6 15.3 8.55 22.2" fill="#92918c" transform="translate(-.65 1.35)"/></g><g id="o"><path d="M31.65 12.6q.65 2.1.75 4.5l-.3-.35q-.9-.9-2.25-.9-1.4 0-2.35.9-.9 1-.9 2.35t.9 2.25q.95 1 2.35 1 1.25 0 2.15-.85-1 4.25-4.35 7.6l-.6.6q-4.55 4.15-10.85 4.15-6.7 0-11.45-4.75-1.45-1.45-2.4-3l-.05-.05 6.25-3.85q10.55-6.05 23.1-9.6M17.9 21.65q0-.6-.45-1.05-.45-.45-1.05-.45-.6 0-1.05.45-.45.45-.45 1.05 0 .6.45 1.05.45.45 1.05.45l1.05-.45q.45-.45.45-1.05" fill="#4df7ea" fill-rule="evenodd" transform="translate(.5 -.95)"/><path d="M17.9 21.65q0 .6-.45 1.05l-1.05.45q-.6 0-1.05-.45-.45-.45-.45-1.05 0-.6.45-1.05.45-.45 1.05-.45.6 0 1.05.45.45.45.45 1.05" fill="#fff" fill-rule="evenodd" transform="translate(.5 -.95)"/><path d="M2.3 26.05Q0 22.3 0 17.65q0-2.55.7-4.8 1.1-3.7 4.05-6.65Q9.5 1.45 16.2 1.45q6.7 0 11.45 4.75 1.35 1.35 2.3 2.85 1.1 1.65 1.7 3.55-12.55 3.55-23.1 9.6L2.3 26.05" fill="#37a197" fill-rule="evenodd" transform="translate(.5 -.95)"/><path d="M2.3 26.05Q0 22.3 0 17.65q0-2.55.7-4.8 1.1-3.7 4.05-6.65Q9.5 1.45 16.2 1.45q6.7 0 11.45 4.75 1.35 1.35 2.3 2.85 1.1 1.65 1.7 3.55.65 2.1.75 4.5l-.3-.35q-.9-.9-2.25-.9-1.4 0-2.35.9-.9 1-.9 2.35t.9 2.25q.95 1 2.35 1 1.25 0 2.15-.85-1 4.25-4.35 7.6l-.6.6q-4.55 4.15-10.85 4.15-6.7 0-11.45-4.75-1.45-1.45-2.4-3l-.05-.05z" fill="none" stroke="#163f3a" stroke-linecap="round" stroke-linejoin="round" transform="translate(.5 -.95)"/></g><g id="p" fill="none" stroke="#422d24" stroke-linecap="round" stroke-linejoin="round"><path d="M5.6 19.55 1.5 16l-.6-1.05q-.3-.8-.2-2.1.2-4.1 3.85-12.8" transform="translate(-.15 .45)"/><path d="M5.45 20q11.6-6.75 24.35-10.5 4.3-1.25 8.75-2.2l4.65-.85m-4.65.85q.35 4.8-1.1 10.65-.75 3.35-2.25 5.95-1.65 2.7-4.2 4.5-2 1.25-4.1 1.75l-3.4.25q-2.2-.15-4.5-1.05-5.6-2.6-10.6-6.7L5.45 20" stroke-width="2.5"/></g><g id="q"><path d="M16.25 10.15Q24 9.9 31 17q4.45 3.7 9.8 3.85.25-1.75-.5-2.75 1.1 1.3 3.2 2 2.45 6.1-.5 11.15-4.7 6.8-18.05 7.95-14.3.15-15.75-8l.65-2.5q2.6-6.6 8.45-5.35-10.5-2.5-12.7 8.1Q.25 29.9.7 25.85q1.7-6.45 7.5-11.5 3.25-2.8 8.05-4.2" fill="#e5d3bb" fill-rule="evenodd" transform="translate(1 1)"/><path d="M16.25 10.15q6.2-1.75 15-1.25L37.4 0q13.8.8 25.35 6.35 2.5 5.05.4 14.1-1.5 6.65-6.85 10.9-10.8 8.3-25.95 11.05-14.75 1.85-19.6-2.05-1.05-1.1-1.6-2.65-.85-2.6.05-6.5-.9 3.9-.05 6.5-8.4 0-9.15-6.55.05-2.75.7-5.3-.45 4.05 4.9 5.6 2.2-10.6 12.7-8.1-5.85-1.25-8.45 5.35l-.65 2.5q1.45 8.15 15.75 8Q38.3 38.05 43 31.25q2.95-5.05.5-11.15-2.1-.7-3.2-2 .75 1 .5 2.75Q35.45 20.7 31 17q-7-7.1-14.75-6.85" fill="#bda990" fill-rule="evenodd" transform="translate(1 1)"/><path d="M10.15 38.7q.55 1.55 1.6 2.65 4.85 3.9 19.6 2.05Q46.5 40.65 57.3 32.35q5.35-4.25 6.85-10.9 2.1-9.05-.4-14.1Q52.2 1.8 38.4 1l-6.15 8.9q-8.8-.5-15 1.25-4.8 1.4-8.05 4.2-5.8 5.05-7.5 11.5-.65 2.55-.7 5.3.75 6.55 9.15 6.55" fill="none" stroke="#755e46" stroke-linecap="round" stroke-linejoin="round" stroke-width="2"/><path d="M9.2 31.2q-.9 3.9-.05 6.5m9.15-14.35q-5.85-1.25-8.45 5.35l-.65 2.5" fill="none" stroke="#755e46" stroke-linecap="round" stroke-linejoin="round" transform="translate(1 1)"/></g><g id="r"><path d="m50.2 65.15-1.3-1.4-.25-.3-1.8-1.55-1.4-1.1 1.4 1.1q-2.6 4.1-1.9 10.45-4-2.2-7.65-8.55l-.55-.95-1.85-3.7q-1.25 5-.85 11.75l-1.3-1.55q-1.35-1.7-3.15-2.9-2.2-2.75-6.95-4.35-6-1.35-8.05-15.9v-1.8q-3.8 2.95-4.6 10.3-2.2-2.95-3.45-6.6Q4.5 41.3 4.8 35.25q.1-2.75.75-5.3.45-2.25 1.35-4.3Q2.65 27.8.5 34.2q-1.55-8.9 1.8-17.55Q8.3 3.45 19.95 0q13.55 6.9 25.6 16.45-1.3 5.35.65 12.45 5.9 14.55 4 36.25M17.65 25.3q-6.55-3.9-7.35-12.5-.85 5.9-4.65 10.4 4.1-2.9 4.35 0-1.35 11.6-.25 20.1 1.85-10.15 4.65-8.9 1.15.7 1.5 4.45 2.05 14.25 9.65 20.2-4.75-13.1-2.15-14.65 1.95-.95 6.35 3.9v-2q-2.9-1.75-3.05-4.1-4.45-1.6-7.8-8.15-2.1-4.85-1.25-8.75m16.4-10.85q-1.55-2.15-2.85.15-1.55 4.15-.75 9.15 2.55 3.05 2.65.35-.55-4.35.95-9.65m-7.15-4.3q-6.4-3.55-9.85 6.95.8 2.2 3.05 2.5-.4-4.6 6.8-9.45m15.65 6.65q-1.75-.5-1.35 1.4l1.1 9.1q1.3 2 2.6.65-.05-7.65-2.35-11.15" fill="#a36347" fill-rule="evenodd" transform="translate(1 1)"/><path d="M17.65 25.3q-.85 3.9 1.25 8.75 3.35 6.55 7.8 8.15.15 2.35 3.05 4.1v2q-4.4-4.85-6.35-3.9-2.6 1.55 2.15 14.65-7.6-5.95-9.65-20.2-.35-3.75-1.5-4.45-2.8-1.25-4.65 8.9-1.1-8.5.25-20.1-.25-2.9-4.35 0 3.8-4.5 4.65-10.4.8 8.6 7.35 12.5" fill="#c9896d" fill-rule="evenodd" transform="translate(1 1)"/><path d="M53.8 23.5q6 9.2 7.3 26.1 2.9 15.2-1.15 22.1-.5-4.4-1.7-7.55-.8-2.2-1.95-3.85 1.45 9.55-1.8 12.85-.55-1.8-1.5-3.65-1.2-2.4-2.8-4.35 1.9-21.7-4-36.25-1.95-7.1-.65-12.45 4.2 3.35 8.25 7.05m-7.2 49.65-1.65-.8q-.7-6.35 1.9-10.45l1.8 1.55q-2.75 4.35-2.05 9.7m-10.45-.7-2.1-1.55q-.4-6.75.85-11.75l1.85 3.7q-1.6 4.1-.6 9.6m-6.55-6q-3.05-2.05-7.3-2.6-5.25.4-8.55-13.35l.85-4.3q2.05 14.55 8.05 15.9 4.75 1.6 6.95 4.35m-18.35-10.2L10 54.7q.8-7.35 4.6-10.3v1.8q-2.8 3.75-3.35 10.05M1 36.6l-.5-2.4q2.15-6.4 6.4-8.55-.9 2.05-1.35 4.3-3.1 2-4.55 6.65m32.1-12.5q-.1 2.7-2.65-.35-.8-5 .75-9.15 1.3-2.3 2.85-.15-1.5 5.3-.95 9.65m-13-4.5q-2.25-.3-3.05-2.5 3.45-10.5 9.85-6.95-7.2 4.85-6.8 9.45m24.8 8.35q-1.3 1.35-2.6-.65l-1.1-9.1q-.4-1.9 1.35-1.4 2.3 3.5 2.35 11.15" fill="#69493a" fill-rule="evenodd" transform="translate(1 1)"/><path d="M53.8 23.5q9.6 11.15 9.8 26.05 0 4.75.95 10.5.85 4.1.15 6.3-2.35 6.4-4.45 8.5l-.3-3.15Q64 64.8 61.1 49.6q-1.3-16.9-7.3-26.1m4.45 40.65q.35 8.6-2.7 14.1-.15-2.45-1.05-5.1 3.25-3.3 1.8-12.85 1.15 1.65 1.95 3.85m-9.35-.4q-2.05 4.55.8 11.5l-3.1-2.1q-.7-5.35 2.05-9.7l.25.3m-11.6.05q-1.2 6.15 2.3 10.25-1.95-.65-3.45-1.6-1-5.5.6-9.6l.55.95M13.75 50.5q-.7 4.9.1 8.3l-2.6-2.55q.55-6.3 3.35-10.05l-.85 4.3M4.8 35.25q-1.65 2.6-1.9 7.15-1.2-2.95-1.9-5.8 1.45-4.65 4.55-6.65-.65 2.55-.75 5.3" fill="#b6b6b4" fill-rule="evenodd" transform="translate(1 1)"/><path d="m60.95 72.7.3 3.15q2.1-2.1 4.45-8.5.7-2.2-.15-6.3-.95-5.75-.95-10.5-.2-14.9-9.8-26.05m6.15 48.2q-.5-4.4-1.7-7.55.35 8.6-2.7 14.1-.15-2.45-1.05-5.1-.55-1.8-1.5-3.65-1.2-2.4-2.8-4.35l-1.3-1.4q-2.05 4.55.8 11.5l-3.1-2.1-1.65-.8q-4-2.2-7.65-8.55-1.2 6.15 2.3 10.25-1.95-.65-3.45-1.6l-2.1-1.55-1.3-1.55q-1.35-1.7-3.15-2.9-3.05-2.05-7.3-2.6-5.25.4-8.55-13.35-.7 4.9.1 8.3l-2.6-2.55L11 55.7q-2.2-2.95-3.45-6.6Q5.5 42.3 5.8 36.25q-1.65 2.6-1.9 7.15-1.2-2.95-1.9-5.8l-.5-2.4q-1.55-8.9 1.8-17.55Q9.3 4.45 20.95 1m28.7 63.45.25.3" fill="none" stroke="#52382e" stroke-linecap="round" stroke-linejoin="round" stroke-width="2"/><path d="M58.25 64.15q-.8-2.2-1.95-3.85M33.1 24.1q-.55-4.35.95-9.65m-7.15-4.3Q19.7 15 20.1 19.6m24.8 8.35q-.05-7.65-2.35-11.15M6.9 25.65q-.9 2.05-1.35 4.3-.65 2.55-.75 5.3M46.85 61.9l-1.4-1.1m1.4 1.1 1.8 1.55m-11.9-.6.55.95m-2.4-4.65 1.85 3.7m-23-12.35.85-4.3" fill="none" stroke="#52382e" stroke-linecap="round" stroke-linejoin="round" transform="translate(1 1)"/></g><path d="M101.5 0q42.05 0 71.7 8.55 29.75 8.5 29.75 20.5 0 11.95-29.75 20.45-29.65 8.55-71.7 8.55-42.05 0-71.85-8.55Q0 41 0 29.05q0-12 29.65-20.5Q59.45 0 101.5 0" fill-opacity=".353" fill-rule="evenodd" id="c"/><path d="M44.6 30.8H0V0h44.6v30.8" fill="#300" fill-opacity="0" fill-rule="evenodd" id="b"/></defs></svg>