<svg xmlns:ffdec="https://www.free-decompiler.com/flash" xmlns:xlink="http://www.w3.org/1999/xlink" ffdec:objectType="frame" height="90" width="90" xmlns="http://www.w3.org/2000/svg"><use ffdec:characterId="44" height="224.05" transform="matrix(.3098 0 0 .3096 -5.514 12.694)" width="330.55" xlink:href="#a"/><defs><g id="a" transform="translate(17.8 -41)"><use ffdec:characterId="1" height="7.75" transform="matrix(2.4888 0 0 4.689 82.186 228.646)" width="57.8" xlink:href="#b"/><use ffdec:characterId="18" height="170.8" transform="translate(35.229 40.978) scale(1.0077)" width="275.4" xlink:href="#c"/><use ffdec:characterId="20" height="142.5" transform="translate(-14.7 76.4) scale(1.0077)" width="252.3" xlink:href="#d"/><use ffdec:characterId="22" height="69.2" transform="translate(86.35 98) scale(1.0077)" width="50.95" xlink:href="#e"/><use ffdec:characterId="24" height="168.85" transform="translate(125.85 49.2) scale(1.0077)" width="107.55" xlink:href="#f"/><use ffdec:characterId="26" height="92.8" transform="translate(89.25 148.7) scale(1.0077)" width="48.9" xlink:href="#g"/><use ffdec:characterId="28" height="109.75" transform="translate(130 146.55) scale(1.0077)" width="87.6" xlink:href="#h"/><use ffdec:characterId="33" height="65.4" transform="translate(106.45 107.45) scale(1.0077)" width="64.95" xlink:href="#i"/><use ffdec:characterId="39" height="48.4" transform="translate(117.55 66.95) scale(1.0077)" width="50.45" xlink:href="#j"/><use ffdec:characterId="41" height="68.25" transform="translate(168.1 116.85) scale(1.0077)" width="60.65" xlink:href="#k"/><use ffdec:characterId="43" height="52.05" transform="translate(148.85 89.9) scale(1.0077)" width="86.55" xlink:href="#l"/></g><g id="c" transform="translate(2.75 2.85)"><use ffdec:characterId="3" height="64.75" transform="translate(54.9 11.65)" width="16.25" xlink:href="#m"/><use ffdec:characterId="5" height="66.95" transform="translate(13.65 3.55)" width="38.7" xlink:href="#n"/><use ffdec:characterId="7" height="67.75" transform="translate(47.7 60.15)" width="32.65" xlink:href="#o"/><use ffdec:characterId="9" height="119.35" transform="translate(.25 42.35)" width="89.55" xlink:href="#p"/><use ffdec:characterId="11" height="69.7" transform="translate(164.75 7.15)" width="24.55" xlink:href="#q"/><use ffdec:characterId="13" height="71.7" transform="translate(190.85 .15)" width="62.3" xlink:href="#r"/><use ffdec:characterId="15" height="68.9" transform="translate(149.65 63.55)" width="48.75" xlink:href="#s"/><use ffdec:characterId="17" height="123.9" transform="translate(138.35 44.05)" width="131.3" xlink:href="#t"/></g><g id="x" fill-rule="evenodd"><path d="M1.95 1.3H2l14.2 40.05.05.25-2.95 22.65-.15.3-.3.2h-.2l-.15-.05-.3-.2-12.1-17-.1-.35.75-45.6.5-1.55.1.05.3.3.3.95M2.7 7l-.75-2.1-.5 27.7-.2 12.25L1.2 47l.55.7L12.3 62.5l2.3-17.8.4-3.1-.1-.35L6.85 18.7 2.7 7" fill="#464660"/><path d="m1.45 32.6.5-27.7L2.7 7l-.1 2.75L1.45 32.6" fill="#e7b5ae"/><path d="m2.7 7 4.15 11.7v8.15l-1.5-3.9-.1-.1-.15-.05-.1.1-.05.1-.05.05-.25-1.4L2.6 9.75 2.7 7m12.2 34.25.1.35-.4 3.1-1 .45-1.05 5 .85-6.6v-.15l-.5-1.15 2-1" fill="#fff"/><path d="m6.85 18.7 8.05 22.55-2 1-6.05-15.4V18.7m7.75 26-2.3 17.8-.9-6-4.3-6.55 4.45 5.45.15.1.15-.05.05-.1.65-5.2 1.05-5 1-.45m-12.85 3L1.2 47l.05-2.15 2.45-.9.95-22.3.25 1.4.05.4v23.8l-3.2.45" fill="#b4a7d2"/><path d="m4.95 23 .05-.1.1-.1.15.05.1.1 1.5 3.9 6.05 15.4.5 1.15v.15l-.85 6.6-.65 5.2-.05.1-.15.05-.15-.1-4.45-5.45L5 47.4l-.05-.15V23m7.85 22 .15-1.45-7.6-19.45v23.1l.45.5 4.65 5.7 1.1 1.35.05.05v-.05L12.8 45" fill="#063c69"/><path d="M5.35 27.8v-3.7l7.6 19.45L12.8 45l-3.3-1.4 2.1 11.15h-.05l-1.1-1.35-2-9.5-2.65 3.8-.45-.5v-1.45l2.7-3.55-2.7-14.4" fill="#19d7f8"/><path d="M12.3 62.5 1.75 47.7l3.2-.45.05.15 2.1 2.55 4.3 6.55.9 6M1.25 44.85l.2-12.25L2.6 9.75l2.05 11.9-.95 22.3-2.45.9" fill="#78779b"/><path d="M10.45 53.4 5.8 47.7l2.65-3.8 2 9.5" fill="#0c658f"/><path d="m12.8 45-1.2 9.75L9.5 43.6l3.3 1.4m-7.45.75V27.8l2.7 14.4-2.7 3.55" fill="#0a99dd"/></g><g id="y" fill-rule="evenodd"><path d="m12.5 12.85 22 24.25.15.25L38.7 57v.75l-.05.05-.3.3-.45-.05-5.3-2.4-.35 2.95-1.2-.25v-.2l-6.5-5.2-.1-.15-11-32.95L12.8 15l-.05-.05-.25-2.1m24.6 43.5.2.05-3.8-18.65-5.35-5.8-7.8-8.7-6.85-7.5.5 4v-.05l10.95 32.85 5.7 4.6.45.35.35-2.85.15-.35.35-.2.4.05 4.75 2.2" fill="#464660"/><path d="m37.1 56.35-5.3-18.8-3.65-5.6 5.35 5.8 3.8 18.65-.2-.05" fill="#fff"/><path d="m28.15 31.95 3.65 5.6 5.3 18.8-4.75-2.2-.4-.05-.35.2-.15.35-.35 2.85-.45-.35-10.3-33.9 7.8 8.7" fill="#b4a7d2"/><path d="m12.75 14.95.05.05.65 4.85 11 32.95.1.15 6.5 5.2v.2l-.2 1.25-7-6.6-.1-.3-11.9-34.75L3.9 9.8 1.9 3l10.85 11.95" fill="#ffc93e"/><path d="m20.35 23.25 10.3 33.9-5.7-4.6L14 19.7v.05l-.5-4 6.85 7.5" fill="#78779b"/><path d="m12.5 12.85.25 2.1L1.9 3l2 6.8q7.75 25.7 17.25 47.65l.2.2.95.8 7.95 6.7.15-.95.45-4.6.2-1.25 1.2.25-.9 7.8-.2.35-.35.2-.4-.15-10.2-8.5-.2-.25Q8.85 32.05.05.8V.4L.3.1.75 0l.3.2L12.5 12.85" fill="#bf4f04"/><path d="m3.9 9.8 7.95 8.15 11.9 34.75-2.4 4.95-.2-.2Q11.65 35.5 3.9 9.8" fill="#f1a00f"/><path d="m23.75 52.7.1.3 7 6.6-.45 4.6-8.1-5.75-.95-.8 2.4-4.95" fill="#d06507"/><path d="m22.3 58.45 8.1 5.75-.15.95-7.95-6.7" fill="#e7b5ae"/></g><g id="z" fill-rule="evenodd"><path d="M5.25.75V0l.05.35-.05.4M.75 2.5l.4.15 22.45 20 .15.25.5 1.5Q31.9 48 32.6 63.5l.05 3.65-.15.45-.45.15-.35-.05-.05-.05L3.3 45.1l-.2-.35Q-.6 26.7.15 3.1l.2-.4.4-.2m7.05 7.7L1.3 4.45v1.1Q.85 25 3.55 40.55l.65 3.7.45.35L30.4 65.05l1 .85-.2-4.9q-1.1-14.5-7.85-35.55l-.65-2-1.85-1.65L7.8 10.2" fill="#464660"/><path d="M1.3 5.55v-1.1l6.5 5.75 2.55 8.05 7.25 7.55 3.25-4 1.85 1.65.65 2-3.3 4q-7.05-8-13.6-12.25l-.2-.05-.1.05-.05.2.15 1.4-.8-2.05L1.3 5.55M31.2 61l.2 4.9-1-.85-3.15-6.45-1.55-3.15-.05-.85-.4-3.65-.05-.7-.5-3 3.05 7.55L31.2 61" fill="#fff"/><path d="m6.25 18.8-.15-1.4.05-.2.1-.05.2.05q6.55 4.25 13.6 12.25l.2.25.05.05.05.15q3.05 10.15 4.35 17.35l.5 3 .05.7.4 3.65.05.85v.4l-.05.15-.15.05-.15-.05L8.3 42.75v-.05l-.05-.1-2-23.8M20 30.25l-.1-.35Q13 22.05 6.55 17.75l.15 1.4 1.8 21.3.15 2.05h.05l16.55 12.95v-.9l-.1-.85-.55-4.55q-1.25-7.65-4.6-18.9" fill="#063c69"/><path d="m6.7 19.15-.15-1.4Q13 22.05 19.9 29.9l.1.35-3.6 3.65 8.2 15.25.55 4.55L14.9 34.9l-6.2 7.6h-.05l-.15-2.05 5.1-7.85-6.9-13.45" fill="#1ce5ff"/><path d="m7.8 10.2 13.05 11.6-3.25 4-7.25-7.55L7.8 10.2m15.55 15.25Q30.1 46.5 31.2 61l-3.45-6.2-3.05-7.55q-1.3-7.2-4.35-17.35l-.05-.15-.05-.05-.2-.25 3.3-4M4.65 44.6l-.45-.35-.65-3.7 2.85-1.5-.95-22.3.8 2.05 2 23.8.05.1v.05L25.35 56l.15.05.15-.05.05-.15v-.4l1.55 3.15-10.8-7.65-9-7.45-2.8 1.1" fill="#b4a7d2"/><path d="M20 30.25q3.35 11.25 4.6 18.9L16.4 33.9l3.6-3.65M8.5 40.45l-1.8-21.3 6.9 13.45-5.1 7.85" fill="#0a99dd"/><path d="M30.4 65.05 4.65 44.6l2.8-1.1 9 7.45 10.8 7.65 3.15 6.45M3.55 40.55Q.85 25 1.3 5.55l4.15 11.2.95 22.3-2.85 1.5" fill="#78779b"/><path d="m25.15 53.7.1.85v.9L8.7 42.5l6.2-7.6 10.25 18.8" fill="#0c658f"/></g><g id="A" fill-rule="evenodd"><path d="m7.75 6.7-.05-.05L5.25 4.8 2 2.4l9.65 24.1 5.4 13.55.05.05v.05l2.1 5.6 6.5 13.8 12.2 26 1.05 2.35.25-.05.45.05 17.8 12.3 6.45 4.45h.05L84.15 116l3.4 1.45-1.15-2-1.3-2.45-5.95-10.9-4.5-8.1-3.3-6.15-4.65-8.5L52 68.65l-4.25-3-.2-.4-1-5.3q-2.35-13.45-1.6-20.3v-.05l-.05-.5-2-6-29.25-21.95-5.9-4.45m7.5 32.15.05.05L.05.85v-.4L.25.1.6 0l.4.1 42.75 32.1.2.3 2.15 6.3v.15l.05.6v.15q-.85 8.05 2.55 25.05L67.5 78.4l.15.2 21.8 39.85.1.35-.2.3-.3.25-.35-.05-5-2.15-.05-.05-18.45-10.35.15.25-2.25-1.45v.05L39.6 89.4q.15.45-.1-.1l-.55-.35-.25-.35v-.05l-.05.15-2-3.55L28.4 68 18.05 46.2l-.35-1-1.7-4.45-.75-1.9" fill="#464660"/><path d="M5.25 4.8 7.7 6.65l.05.05 28.4 63.7Q56 85.05 74.65 94l4.5 8.1-15.8-9.25-23.55-15.4 2.85 6.75L85.1 113l1.3 2.45-28.95-15.25-17.8-12.3-.45-.05-.25.05-1.05-2.35-12.2-26-6.5-13.8-2.1-5.6v-.05l-.05-.05-5.4-13.55-6.4-21.7" fill="#78779b"/><path d="m86.4 115.45 1.15 2-3.4-1.45-20.2-11.35h-.05l-6.45-4.45 28.95 15.25M11.65 26.5 2 2.4l3.25 2.4 6.4 21.7m42.7 75L35 89.95l-1-2.05 20.35 13.6" fill="#e7b5ae"/><path d="M13.65 11.15 42.9 33.1l2 6 .05.5v.05q-.75 6.85 1.6 20.3l-6.1-26.1L16 15.5l-2.35-4.35M52 68.65l14.7 10.7 4.65 8.5-5.1-5.95L52 68.65" fill="#fff"/><path d="m7.75 6.7 5.9 4.45L16 15.5l24.45 18.35 6.1 26.1 1 5.3.2.4 4.25 3L66.25 81.9l5.1 5.95 3.3 6.15Q56 85.05 36.15 70.4L7.75 6.7m71.4 95.4L85.1 113 42.65 84.2l-2.85-6.75 23.55 15.4 15.8 9.25" fill="#b4a7d2"/><path d="m15.25 38.85.75 1.9-5.3-3.15 1.9 4.8 5.3 13.3L34 87.9l1 2.05 19.35 11.55 9.75 5.85-1-1.75v-.05l2.25 1.45 1 1.75.1.4-.2.35-.35.15-.35-.05-31.3-18.7-.25-.25-17.2-34.4-.05-.05L8.9 36.4V36l.2-.3q.1-.15.3-.15l.4.05 5.45 3.25" fill="#bf4f04"/><path d="m16 40.75 1.7 4.45-5.1-2.8-1.9-4.8 5.3 3.15" fill="#ffca3e"/><path d="m17.7 45.2.35 1L28.4 68l8.25 17.15L34 87.9 17.9 55.7l-5.3-13.3 5.1 2.8" fill="#f1a00f"/><path d="m36.65 85.15 2 3.55.05-.1.25.35.55.35q.25.55.1.1l23.5 16.2 1 1.75-9.75-5.85L34 87.9l2.65-2.75" fill="#d06507"/></g><g id="B" fill-rule="evenodd"><path d="m22.85.3.3-.25h.4l.35.2.1.3.05.65q1.45 21.1-1.2 49.6l-.05.15.05.05.15.45-.15.4L4 69.55l-.4.15-.45-.1-.2-.45L0 45.6l.05-.3q6.8-16.1 15.8-32.55 3.3-6.2 7-12.45M23 4.6l-.1-1.95q-3.75 6.5-7.2 12.95Q8.05 29.8 2.1 43.7l-.85 1.95.1.85 2.6 20.7.1.6L17.5 55.15l2.1-1.95.55-.55 1.65-1.5-.15-.45 1.25-17.65q.8-15.55.1-28.45" fill="#464660"/><path d="M15.7 15.6q3.45-6.45 7.2-12.95L23 4.6l-4.35 14.15-2.05 6.55v.1h-.05l-1.65 2.3.8-12.1M1.35 46.5l-.1-.85.85-1.95h2.6l3.55-4.45-3.85 7.8-.05.05-3-.6" fill="#fff"/><path d="m14.9 27.7 1.65-2.3h.05l.05-.1.15.05.1.05-.5 24.5-.05.2-9.65 9.8-.15.05-.15-.05-.1-.1-1.95-12.65v-.05l.05-.05 3.85-7.8Q11.7 32.5 14.9 27.7m1.55.15.05-1.7-.3.5Q13.05 31.1 9.65 37.4q-2.4 4.45-4.9 9.75l1.55 9.8.4 2.4 1.1-1.15 7.35-7.5.85-.85v-.9l.45-21.1" fill="#063c69"/><path d="m20.15 52.65-.55.55-2.1-1.8-10.8 9.8-2.05 4.45-.7 1.55-2.6-20.7 3 .6v.05L6.3 59.8l.1.1.15.05.15-.05 9.65-9.8.05-.2.5-24.5-.1-.05-.15-.05h-.05l2.05-6.55-1.5 30.85 2.65 1.15h.2l.15 1.9M2.1 43.7q5.95-13.9 13.6-28.1l-.8 12.1q-3.2 4.8-6.65 11.55L4.7 43.7H2.1" fill="#b4a7d2"/><path d="M4.75 47.15q2.5-5.3 4.9-9.75 3.4-6.3 6.55-10.75l.3-.5-.05 1.7-6.15 19.1 5.7 2v.9l-.85.85-5.05-2.25-2.3 9.75-1.1 1.15-.4-2.4 2.5-9.15-4.05-.65" fill="#1ce5ff"/><path d="M23 4.6q.7 12.9-.1 28.45l-2.85 18.2-.05-.5h-.2l-2.65-1.15 1.5-30.85L23 4.6m-3.4 48.6-2.1 1.95-12.85 10.5L6.7 61.2l10.8-9.8 2.1 1.8" fill="#78779b"/><path d="M22.9 33.05 21.65 50.7l.15.45-1.65 1.5-.15-1.9.05.5 2.85-18.2m-5.4 22.1L4.05 67.8l-.1-.6.7-1.55 12.85-10.5" fill="#e7b5ae"/><path d="M15.15 50.7 7.8 58.2l2.3-9.75 5.05 2.25" fill="#0c658f"/><path d="M16.45 27.85 16 48.95l-5.7-2 6.15-19.1M6.3 56.95l-1.55-9.8 4.05.65-2.5 9.15" fill="#0a99dd"/></g><g id="C" fill-rule="evenodd"><path d="M40.05 15.15 61.35.1l.4-.1.35.15.2.4-.05.4-34.9 61.9-.25.25-15.2 8.5-.5.1-.35-.25v.05l-.45.2-.45-.2-.2-.45V62.7l1.25-.7v8.55h.05l12.9-7.2 2.1-1.2.1-.05 30.6-54.25L59.8 2.7 41 16l.05.05.05.15-1.05-1.05" fill="#bf4f04"/><path d="m41.1 16.2-.05-.15L41 16 59.8 2.7l-2.85 5.15L43 17.55l-21.75 39.1L11.2 63.1v-1.05l9.35-5.9.05-.05 20.5-37.65V16.2" fill="#ffca3e"/><path d="m40.05 15.15 1.05 1.05v2.25L20.6 56.1l-.05.05-9.35 5.9V62l-1.25.7v-3.25L.8 62.65H.35l-.3-.35-.05-.4 7.55-23.6.25-.35 22.85-16.1v-.05l9.4-6.65M11.2 59.25v2.35l9.05-5.75 20.45-37.6V16.2l-11.3 8-11.55 8.15-9.2 6.5-7.1 22.2.9-.25 7.9-2.75h.45l.25.2.15.35v.65" fill="#464660"/><path d="m29.4 24.2 11.3-8v2.05l-20.45 37.6-9.05 5.75v-2.35L29.4 24.2" fill="#78779b"/><path d="M11.2 59.25v-.65l-.15-.35-.25-.2h-.45l-7.9 2.75 8.7-21.25 6.7-7.2L29.4 24.2 11.2 59.25" fill="#b4a7d2"/><path d="m2.45 60.8-.9.25 7.1-22.2 9.2-6.5-6.7 7.2-8.7 21.25" fill="#fff"/><path d="m24.15 63.35-12.9 7.2h-.05v-2.1l12.95-5.1" fill="#e7b5ae"/><path d="m26.25 62.15-2.1 1.2-12.95 5.1V63.1l10.05-6.45 5 5.5" fill="#d06507"/><path d="M56.95 7.85 26.35 62.1l-.1.05-5-5.5L43 17.55l13.95-9.7" fill="#f1a00f"/></g><g id="D" fill-rule="evenodd"><path d="M48.75.6v1.1q.1 17.3-4.95 43.9l-.25.45q-11.8 8-22.5 13.7l-.85.3-.25.3q-9.55 5-18.25 8.15l-.9.35-.35.05-.35-.25-.1-.4.3-3.4Q2.25 46.5 13.9 21.8l.2-.25L47.8.1l.4-.1.4.2.15.4m-1.2 2.9V1.7l-2.1 1.35-28.5 18.1-2 1.3-.25.55Q3.95 46.05 1.7 63.45l-.4 3.9 1.8-.65q10.35-4 21.9-10.55 7.6-4.3 15.8-9.75l1.85-1.25Q47 22.1 47.5 6.15l.05-2.65" fill="#464660"/><path d="m45.45 3.05 2.1-1.35v1.8l-6.75 9.9-2.4 3.4h-.2q-8.55 3.45-18.8 11.55L14.7 23l.25-.55 2-1.3 4.3 4.35 16.05-10 8.15-12.45M3.1 66.7l-1.8.65.4-3.9 7.45-7.65 1.8-4.35q-.4 2.65-.4 5l.05.15.05.05-1.75 2.3L4 65.5l-.9 1.2" fill="#fff"/><path d="m47.55 3.5-.05 2.65-.85 3.45-5 29.2-3.75-.8 2.9-24.6 6.75-9.9M40.8 46.4q-8.2 5.45-15.8 9.75-6.7 1.2-21 9.35l4.9-6.55 26.75-13.6 5.15 1.05m.65-6.4-.2 1.25h-3.8l.2-1.65 3.8.4" fill="#78779b"/><path d="M47.5 6.15q-.5 15.95-4.85 39L40.8 46.4l.45-5.15.2-1.25.2-1.2 5-29.2.85-3.45m-22.5 50Q13.45 62.7 3.1 66.7l.9-1.2q14.3-8.15 21-9.35" fill="#e7b5ae"/><path d="M38.1 18.15v-.85q-8.6 3.6-19 11.8l-.1.25q-7.15 14.4-7.95 24.85l-.1 1.95 2.35-1.3 20.55-11.3L35 42.9q3.15-14.25 3.1-24.75m-27.15 33.3q1.35-9.65 7.75-22.4l.1-.2.05-.05.55-.45q10.25-8.1 18.8-11.55h.2l.05.05.05.15q.25 10.9-3.1 26.1l-.05.05-.05.1L10.9 56.7h-.2l-.05-.05-.05-.05-.05-.15q0-2.35.4-5" fill="#063c69"/><path d="m19 29.35.1-.25q10.4-8.2 19-11.8v.85l-11.6 18L35 42.9l-1.15.65-8.2-6.1-12.35 17.4-2.35 1.3.1-1.95 13.3-18.55-5.35-6.3" fill="#1ce5ff"/><path d="M1.7 63.45q2.25-17.4 13-40.45l4.7 5.35-.55.45-.05.05-.1.2q-6.4 12.75-7.75 22.4l-1.8 4.35-7.45 7.65m15.25-42.3 28.5-18.1L37.3 15.5l-16.05 10-4.3-4.35m-6.3 35.5.05.05h.2l24.4-13.45.05-.1.05-.05q3.35-15.2 3.1-26.1l-.05-.15-.05-.05 2.4-3.4L37.9 38l3.75.8-.2 1.2-3.8-.4-.2 1.65h3.8l-.45 5.15-5.15-1.05L8.9 58.95l1.75-2.3" fill="#b4a7d2"/><path d="M38.1 18.15q.05 10.5-3.1 24.75l-8.5-6.75 11.6-18M11.05 54.2q.8-10.45 7.95-24.85l5.35 6.3-13.3 18.55" fill="#0a99dd"/><path d="M33.85 43.55 13.3 54.85l12.35-17.4 8.2 6.1" fill="#0c658f"/></g><g id="E" fill-rule="evenodd"><path d="m32.9 112.15.2-.35L.85 123.9h-.4l-.35-.2-.1-.35.1-.35 29.15-41.15.3-.25Q42 76.9 56.65 67.85q4.5-12.6 5.1-28.6l.15-.3 3.9-6.05.25-.25L106.7 12.7h-.05L130.4.05l.4-.05.35.2.15.35-.1.4-25.9 41.2-.7 1.15-1.2 1.8-1.5 2.5-.55.8-2.4 3.8-.15.15-.25.15.1.1L71.9 91.15l-1.7 2.45-.05.1-.25.3-.05.05-34.3 16.4-.15.2v.1l-.05-.05-2.45 1.45M119.75 7.1l-12.55 6.65v.05l-13.35 6.55L66.7 33.7 63 39.45q-.45 10.65-2.6 19.9l-1.3 4.9-1.4 4.2-.25.35-1.3.8-1.45.85Q41.5 78.4 30.15 82.7L20.6 96.2l-3.5 4.9-1.9 2.7-6.1 8.55-5.25 7.5-1.6 2.2 32.15-12 .25-.4q.05-.2.25-.2l1.55-.8 32.9-15.75 30.7-45.95 7.15-10.15 21.75-34.6-9.2 4.9M31.5 79.05l.85-.3-1.1.6.25-.3" fill="#464660"/><path d="m32.9 112.15 2.45-1.45.05.05-.1.15-1.35 1.9L66.7 99.85l7.65-3.05.05-.05 34.5-51.15 2.85-4.25q-4.15 1.9-8.35 3.75l1.2-1.8 8.65-3.9.4-.05q.15.05.3.2l.15.35-.1.4-38.65 57.35-.3.2-42.6 16.85-.4.05-.3-.2-.15-.35q0-.25.15-.4l1.15-1.65" fill="#bf4f04"/><path d="m101.35 48.4.55-.8 1.5-2.5q4.2-1.85 8.35-3.75l-2.85 4.25-7.55 2.8" fill="#ffca3e"/><path d="m93.85 20.35 13.35-6.55v-.05l12.55-6.65-17.8 28.55-29.45 43.4-55.4 22.05 3.5-4.9 9-9.9 25.1-15.85 1.45-.85 1.3-.8.25-.35 1.4-4.2 1.3-4.9 4.9-17.8 4.75-7.7 23.8-13.5m-84.75 92 6.1-8.55 54.7-21.6-2.45 6.05-58.35 24.1" fill="#b4a7d2"/><path d="m17.1 101.1 55.4-22.05 29.45-43.4 17.8-28.55 9.2-4.9-21.75 34.6-7.15 10.15-30.7 45.95-32.9 15.75-32.6 11.2 5.25-7.5 58.35-24.1 2.45-6.05-54.7 21.6 1.9-2.7" fill="#78779b"/><path d="m93.85 20.35-23.8 13.5-4.75 7.7-4.9 17.8q2.15-9.25 2.6-19.9l3.7-5.75 27.15-13.35M54.7 70.45 29.6 86.3l-9 9.9 9.55-13.5Q41.5 78.4 54.7 70.45" fill="#fff"/><path d="M71.9 91.15 98.65 52.6l.15-.25.15-.15 2.4-3.8 7.55-2.8-34.5 51.15-.05.05-2.45-5.65" fill="#f1a00f"/><path d="M35.4 110.75v-.1l.15-.2 34.3-16.4.05-.05.25-.3.05-.1 1.7-2.45 2.45 5.65-7.65 3.05-31.3 10.9" fill="#d06507"/><path d="M66.7 99.85 33.95 112.8l1.35-1.9.1-.15 31.3-10.9m-30.25 8.8-1.55.8q-.2 0-.25.2l-.25.4-32.15 12 1.6-2.2 32.6-11.2" fill="#e7b5ae"/></g><g id="F" fill-rule="evenodd"><path d="m75.15 91.2 3.1 1-19.55 1.6-.85.05q-33.3 25.15-55.4 47.1l4.6-.9 3.1-.65.4-.05q22.85-5 51.35-15.3l7-2.6 2.55-.9.2-.1 3.8-5.05 7.65-10.05.05 1.95-10.6 14-.25.2-.7.25q-38.65 14.65-67.65 20.2l-3.2.55h-.4l-.25-.3-.1-.35q.05-.25.2-.35 22.5-22.65 57.05-48.75l.35-.1 17.55-1.45m3.25 5.65v.05l-.15-.1.15.05m1.65 4.5v.2l-.15-.05.15-.15m13.5-3.65-.8-.95.65-.65.45-.2h4.05l.05-.05 2.2-5.1.45-1 1.35-3.1-.35-.05-3.8-.95-.2.1-.25.05-.1.05h-.1l-3.6-.9-3.65 3.6-.85-.85 3.9-3.85.25-.2h.3l3.55.9h.05l2.2-2.35q.05-.15.2-.15l.25-.05H104l7.65-3.8q39.95-20.25 73.5-40.55l21.3-13.25L229.1 9.2l-1.05 2-20.5 13.8-21.7 13.65q-35.4 21.55-73.9 40.7l-5.95 2.9-1.5.9-.35.05h-1.65l3.55 1.2h.05l.1.1.05.1v.15l-1.5 4.55q3.35-1.1 8.45-4.05 43.1-20.85 70.65-37.9 27.55-17.1 46.45-30.3l3.5-.1-1.7.35.15-.15-17.1 12.1Q198.5 40.9 181.3 51.6q-17.25 10.65-44.85 24t-31.4 14.7l-1 1.9-.1.2-.25.1-2.85 1.1-1.7 3.2-.25.25-.3.1h-4.5l-.55.55m10.8-9.75.15-.35 1.1-2.8-.2-.05-4.7-1.55h-.7l-1.75 1.9 4.2 1.05.05.05.05.1.1.1v.2l-1.25 2.7-1 2.25-.45 1.15.25-.2 2.85-1 .6-1.5v-.2l.7-1.85M81.5 98.55l-.3-.1-.15-.15v-.2l2.15-6.5.05-.15.2-.05 7.95.75.2.1.05.15v.15l-3.5 7.95-.2.15h-.2l-6.25-2.1m9.1-5 .35-.85-7.3-.7-1.95 5.8-.05.2 5.05 1.7 1 .35 2.9-6.5" fill="#464660"/><path d="m93.7 93.95 1.5-3.3v-.2l-.2-.15h-.25l-.1-.05-5.55-1.05v-.1l.45-.15.3-.35 5.95 1.55 5.8-3.55.35.05-1.35 3.1-6.9 4.2m12.3-11.7 5.95-2.9 1.25 5.9q-5.1 2.95-8.45 4.05l1.5-4.55v-.15l-.05-.1-.1-.1.9-.55q-.35-1.3-1-1.6M230.3 17l.2-.05-.2.1V17M101.4 89.3l1.25-2.7v-.2l-.1-.1-.05-.1 2.9-1.45.2.05-1.1 2.8-3.1 1.7m-24.3 18.5v4.05l-.1.3-1.55 3.25-3.8 5.05-.2.1-.45-5.9 1.6-.75 4.5-6.1m-66.55 31.55-.4.05-3.1.65q11.3-8.4 28.6-17.3l19.85-3.3-11.95 9.35q-22.3 5.85-33 10.55" fill="#78779b"/><path d="m78.25 92.2 1.35-.15.45-.2.2.05-1.3 3.45-16.4 1.2-3.85-2.75 19.55-1.6m3.4 9.55 2.8.7-7.3 9.45-.05-.05v-4.05l4.5-6.05h.05m11.1-5-.65.65 1.6-3.45 6.9-4.2-.45 1-2.45 4.05-3.55 1.1h-.3l-.45.2-.65.65m19.2-17.4q38.5-19.15 73.9-40.7L207.55 25l1.35.65 16.55-9.5-.2.45-.05.45.25.4.45.05 4.4-.5v.05q-18.9 13.2-46.45 30.3-27.55 17.05-70.65 37.9l-1.25-5.9m-7.45 8.25-.15.35-1.85 2.85-2.1.75 1-2.25 3.1-1.7m-35.6 33.85-7 2.6-18.35 4.75 11.95-9.35 13.85-4.15-.45 6.15" fill="#b4a7d2"/><path d="M84.25 88.15v.05l-1.95-.4-5.45-13.6 7.4 6.55v7.4m-7.1 12.25.1.1.1.1 2.7.7v.05l-.15.15-9.1 11.75q-14.65 5.15-25.85 5.95l32.15-18.9v.05l.05.05m13.4 1.6 5.25 3.4 1 13.35-6.6-14.55-.05-.05-.55-1.2.6-1.2.35.25m.05-8.45-2.9 6.5-1.75-3.85 4.65-2.65" fill="#0a99dd"/><path d="m81.95 87.95-.65 1.2-.35-.25-6.15-4-.05-2.5L75.8 78l6.15 9.95M78.2 97.4h.05l-.75 1.95-9.65 5.8q-10.5 5.2-17.7 4.7 6.2-6.25 12.95-11.15l15.1-1.3m15 18.35-5.15-4.45v-7.85l1 .25h.05l.05.05.1.1.75 1.35q3.05 5.85 3.2 10.55M86.7 99.7 81.65 98l.05-.2 3.7-1.75 1.3 3.65M83.65 92l7.3.7-5.4 2.5-1.9-3.2M46.7 113.55l2.05-2.25 4.35.3-6.4 1.95" fill="#1affee"/><path d="M70.65 86.3h-.05l-.5-3.1 4.05-.7.05 2.6-3.55 1.2m-1.9-16.55q-.05-4.45.6-8.1l4.75 11.6.05 5-5.4-8.5M82.3 87.8l-.2.05q-.1 0-.15.1L75.8 78l-1.05 4.4-.15-10.1 2.25 1.9 5.45 13.6m-3.35 7.55-.5 1.5h-.05l-.15-.05-15.2 1.35-.2.05q-7.25 5.2-13.75 11.95l-1.1 1.1q-3.65 3.85-7.05 8.2l-.1.2.15.2.15.05q12.6-.05 29.95-6.15l.1-.05 9.3-11.95v-.3l1.15.3h-.05l-4.5 6.05-4.5 6.1-1.6.75.45 5.9-2.55.9.45-6.15-13.85 4.15-19.85 3.3q-17.3 8.9-28.6 17.3l-4.6.9q22.1-21.95 55.4-47.1l.85-.05 3.85 2.75 16.4-1.2m-1.45 4-.3.85-.05.05-.05.05-32.15 18.9-3.2.15q2.4-3.05 4.95-5.8l6.4-1.95-4.35-.3 1.4-1.45q7.2.5 17.7-4.7l9.65-5.8M89.85 88.6l.05-.05 3.65-3.6 3.6.9h.1l.1-.05.25-.05.2-.1 3.8.95-5.8 3.55-5.95-1.55M207.55 25l20.5-13.8-.5 1-.4.8-1.7 3.15-16.55 9.5-1.35-.65M234.4 8.2l-3.65 5-.1.25.15.2h.2l-1 .65-3.05 1.85h-.05l3.4-6.35h.05q.9-1.8 2.15-3.65l.95-.25.95 2.3m6.75 0 1.2-1.4.05-.15-.05-.2-.15-.1-.15-.05-5.3 1.1 5.15-1.9 3.75-2.7 4.2-1.1-.4.45-8.3 6.05M237 12.3l-.1.2h-.5l-1.05-1.35L232 13l-.45.05 3.35-4.6.8 1.5 4.35-2.65 1.1-.2-5.2 3.6 1.05 1.6M106.1 84.4h-.05l-3.55-1.2h1.65l.35-.05 1.5-.9q.65.3 1 1.6l-.9.55m-3.6 1.8-.05-.05-4.2-1.05 1.75-1.9h.7l4.7 1.55-2.9 1.45m-9.15 4.45 1.1.2-.75 1.6-1.45.45-4.05 7.75-.05-.15 3.5-7.95v-.15l-.05-.15-.2-.1-7.95-.75-.2.05-.05.15-2.15 6.5v.2l.15.15.3.1-1.05.65-1.85 1.1-.75-.2 1.2-3.25 1.15-.4 1.75-3.85-.8-1.65.5-1.2v-.1l.7-1.25.95 2.05 8.6 1.1 1.45-.9m3.45 28.1v.05l-3.6-3.05q-.15-4.7-3.2-10.55l-.75-1.35-.1-.1.05-.05.15-.15.25-.6.55 1.2.05.05 6.6 14.55m-9.3-14.1v6.9l.1.15 9.35 8 .2.2.2.1h.15l.45.8 3.95 7 .1 2.5-6.1-5.65-2.65-6.8-5.4-5.35-3.3 1.7-.4-.35.3-3.05 2.1-.45v-6.1l.95.4m3.45-11.95-.35.85-4.65 2.65 1.75 3.85-1-.35-1.3-3.65-3.7 1.75 1.95-5.8 1.9 3.2 5.4-2.5" fill="#fff"/><path d="m104.35 87.95-.7 1.85v.2l-.6 1.5-2.85 1-.25.2.45-1.15 2.1-.75 1.85-2.85m-4.2 2.8-2.2 5.1-.05.05h-3.75l3.55-1.1 2.45-4.05m-38.25 33.3q-28.5 10.3-51.35 15.3 10.7-4.7 33-10.55l18.35-4.75" fill="#e7b5ae"/><path d="m84.45 102.45.5.2-.95 1.55-.05.05-.85 1.1-7.65 10.05 1.55-3.25.15-.25 7.3-9.45" fill="#dbafad"/><path d="m80.05 91.85.15-.45-.2-.4-.45-.15-.2.05-.2-.15-8.5-4.45 3.55-1.2.05.1.1.1 6.5 4.25.2.15-.8 2.2-.2-.05M70.1 83.2q-1.3-7.5-1.35-13.45l5.4 8.5v4.25l-4.05.7M85 75.65l2.65 2.3-.1 1-1.4 1.2-1.35 7V80.5l-.05-.05-10.2-9 8.95 5.9 1.5-1.7M236.75 7.4l-2 .35-.15.15-.2.3-.95-2.3 12.2-3.1-3.75 2.7-5.15 1.9M231 13.65l6.05-.65.2-.05.5 1.75-.1.15-1.1.15-.9-1.5-5.65.8 1-.65m-141.75 88.7-.35.75-1.05-.3-.55-1.6-6.85-2 1.05-.65 6.25 2.1h.2l.2-.15.05.15 1.05 1.7m-10.2-5.5 2.1-5.9.8 1.65-1.75 3.85-1.15.4m3.3-8.45 11 2.25-1.45.9-8.6-1.1-.95-2.05M97.5 120l.05-.1.1-.2-.1-.2-.1-.1-1.1-14.2-.05-.1-.1-.15-5.5-3.65-.25-.15.45-1 6.6 5.3h2.8l.65.55.05 1.4-3.05.6v12.8l-.45-.8m-1.6 4.65L84.55 114.2l3.3-1.7 5.4 5.35 2.65 6.8M84.45 110.8l.6-6.05.6-.95.9.45v6.1l-2.1.45" fill="#feef0a"/><path d="m69.35 61.65 15.65 14-1.5 1.7-8.95-5.9v-.05l-.2-.05-.2.05-.1.25.05 1.6-4.75-11.6m18.2 17.3-.9 9.5.05.25-1.9-.35v-1.2l1.35-7 1.4-1.2m149.7-66 3.9-4.75 8.3-6.05-11.7 12.55-.5-1.75m-.7 2.05-9.6 1.15L230 14.3l5.65-.8.9 1.5M93.7 92.45l-4.45 9.9-1.05-1.7 4.05-7.75 1.45-.45m-5.85 10.35h-.1l-1.4-.4-.3-.4-.45-.05q-.2 0-.3.15l-6.7-1.8 1.85-1.1 6.85 2 .55 1.6m10.1 18V108l3.05-.6.9 20.4-3.95-7m2.35-15.35h-2.8l-6.6-5.3.85-2 .05.05.2.3 8.3 6.95" fill="#ff8400"/><path d="M87.5 103.3v1.35l-.95-.4-.9-.45.5-.9 1.35.4" fill="#e37600"/><path d="m75.15 91.2 1.95-.15-7.3-3.8-.2-.2-.1-.25-.6-3.45q-1.5-8.75-1.3-15.5.05-4.15.75-7.5l.2-.35q.15-.15.4-.15l.4.2 19.3 17.2.2.25v.25l-.9 10.15h.9l.2-.2.85.85-.05.05-.3.35-.45.15h-.3l.3.1 5.55 1.05.1.05H95l.2.15v.2l-1.5 3.3-1.6 3.45.65-.65.8.95-.3.25 8.7 7.3.15.2.05.25 1.15 26.05-.15.4-.45.2-.45-.15-19.15-17.7-.15-.2-.05-.3.75-7.3-.5.6-.05-1.95.85-1.1.05-.05.95-1.55-.5-.2-2.8-.7-1.15-.3v.1h-.45v-.25l-2.7-.7-.1-.1-.1-.1v-.15l.05-.05.3-.85.75-1.95h-.05l.2-.5v-.05h.05l.5-1.5 1.3-3.45.8-2.2-.2-.15.1-.65.35.25.65-1.2q.05-.1.15-.1l.2-.05 1.95.4v-.05l.55.05v.15l1.9.35-.05-.25.9-9.5.1-1-2.65-2.3-15.65-14q-.65 3.65-.6 8.1.05 5.95 1.35 13.45l.5 3.1h.05l8.5 4.45.2.15.2-.05.45.15.2.4-.15.45-.45.2-1.35.15-3.1-1m153.95-82 .2-.1.45-.8 1.85-3q.15-.25.4-.25l19.55-5h.4l.25.25.1.4-.15.3-13.8 14.85-.35.2-4.2.9-3.5.1.2-.1-.2.05-4.4.5-.45-.05-.25-.4.05-.45.2-.45 1.7-3.15.4-.8.6-1.05-.1.05 1.05-2m16.55-6.4-12.2 3.1-.95.25Q231.25 8 230.35 9.8h-.05l-3.4 6.35h.05l9.6-1.15 1.1-.15.1-.15 11.7-12.55.4-.45-4.2 1.1M93.7 92.45l.75-1.6-1.1-.2-11-2.25-.7 1.25v.1l-.5 1.2-2.1 5.9-1.2 3.25.75.2 6.7 1.8q.1-.15.3-.15l.45.05.3.4 1.4.4h.1l1.05.3.35-.75 4.45-9.9m-3 8.85-.15.7-.35-.25-.6 1.2-.25.6-.15.15h-.15l-1-.25v.05l-.55-.2-1.35-.4-.5.9-.6.95-.6 6.05-.3 3.05.4.35 11.35 10.45 6.1 5.65-.1-2.5-.9-20.4-.05-1.4-.65-.55L92 98.5l-.2-.3v-.05h-.05l-.85 2-.45 1 .25.15" fill="#bf4f04"/><path d="m84.8 88.2-.55-.05v-7.4l-7.4-6.55-2.25-1.9.15 10.1.05 2.5 6.15 4-.1.65-6.5-4.25-.1-.1-.05-.1-.05-2.6v-4.25l-.05-5-.05-1.6.1-.25.2-.05.2.05v.05l10.2 9 .05.05v7.7m-6.4 8.7-.2.5-15.1 1.3q-6.75 4.9-12.95 11.15l-1.4 1.45-2.05 2.25q-2.55 2.75-4.95 5.8l3.2-.15q11.2-.8 25.85-5.95l9.1-11.75.15.05h.45v.2l-9.3 11.95-.1.05q-17.35 6.1-29.95 6.15l-.15-.05-.15-.2.1-.2q3.4-4.35 7.05-8.2l1.1-1.1q6.5-6.75 13.75-11.95l.2-.05 15.2-1.35.15.1m12.3 4.4 5.5 3.65.1.15.05.1 1.1 14.2.1.1.1.2-.1.2-.05.1h-.15l-.2-.1-.2-.2-9.35-8-.1-.15v-8.25l.55.2v7.8l5.15 4.45 3.6 3.05v-.05l-1-13.35-5.25-3.4.15-.7" fill="#0963a8"/><path d="m236.4 12.5-4.4.5 3.35-1.85 1.05 1.35" fill="#1efe0c"/><path d="m234.9 8.45.05-.1 5.1-1.05-4.35 2.65-.8-1.5" fill="#1dfe0a"/><path d="M241.25 7.15 237 12.3l-1.05-1.6 5.2-3.6.1.05" fill="#168a0c"/><path d="m234.4 8.2.2-.3.15-.15 2-.35 5.3-1.1.15.05.15.1.05.2-.05.15-1.2 1.4-3.9 4.75-.2.05-6.05.65h-.2l-.15-.2.1-.25 3.65-5m6.85-1.05.1-.1-.2.05-1.1.2-5.1 1.05-.05.1-3.35 4.6.45-.05 4.4-.5h.5l.1-.2 4.25-5.15" fill="#136c0a"/></g><g id="G" fill-rule="evenodd"><path d="m8.3 49.15.05 1.9v.05l-.55.45-5.55 6.25.4.8h4.8l1.85 4.3.2.05 1.35.15 1.9-1.85 1.9-1.95.9-2.8.5-.15-.35 2.1L17 57.4l-.1-1.2 1.3-.3V58l-1.6 1.7-.9-1.25-.1.8-.85.85-1.4 1.45-2.3 2.3-.95-.05-.6-.05-.1-.05-.5-.05-.1-.15-.2-.6-1.45-3.35-.15-.3-1.4-.05-2.1-.1-1.05-.05-.55-.2-1.25-.5q1.55-3 4.75-6.1l2.9-3.1" fill="#4c6d72"/><path d="m7.8 51.55.55-.45.15 3.45q1.9 1.3 4.3 1.75v2.5l-3.3 4.15-.2-.05-1.85-4.3H4.8q3.05-3.6 3-7.05" fill="#a9c5c9"/><path d="m9.25 49.5.8-2.8 2.4-4.35 4.9-7.35 9.35-4.1-5.9 1.25.85-1.15 8-3.35 3.45-1.05.9 3-16.85 7.15-.4.6-.45.15-3.45 5.45-3.6 6.55M2.85 65 .8 62.85l4.8.9L2.85 65m1.95-6.4H2.65l-.4-.8 5.55-6.25q.05 3.45-3 7.05m1.7 4.75-.05-.05-4.75-.95 3.7-1.9q1.25.4 1.65 2.3l-.55.6m-4.6-4.5.55.2 1.05.05-.45 1.5-1.65.9.5-2.65" fill="#fff"/><path d="m12.8 56.3 2 .2-.8 2.45-1.25 2.3-1.9 1.85-1.35-.15 3.3-4.15v-2.5m3.25.05.85-.15.1 1.2-1.3 1.05.35-2.1" fill="#738e92"/><path d="m31.05 46.4.5-.95 2.3-7.05-1.15 6.1-.7 1.6-.95.3M14.8 56.5h.75l-.9 2.8-1.9 1.95 1.25-2.3.8-2.45m.8 2.75-.5 2.6-.95 1.1.6-2.85.85-.85m.8 4.3-.35-1.9.2-1.05q.7.4.15 2.95m-2.5.4.5-.25q-.05 1.7-1.15 2.9l.65-2.65" fill="#e7b5ae"/><path d="m16.6 59.7 1.45 1.85.25-.1-.55 3.65-2.3.85-2 2.35-2.6-.45-1.5 1.35-3.3-.8-1.15-1.2 2.8-1.5.9-2.8.2.6-.05.3-.65 2.3-1.55 1.1 1.95.4.6.1 1-1.7.5-.95-1.1-1.3.6.05 1.2.95q1.15-.4 2.2-1.2l.1-.05.4-.4.15-.15.95-1.1.5-2.6.1-.8.9 1.25m-.55 1.95-.05.25-1.05 1.2.4 1.6.95-.95.05-.15.05-.05q.55-2.55-.15-2.95l-.2 1.05m-2.8 4.95q1.1-1.2 1.15-2.9l-.5.25-.5.4q-1.2.9-2.25.95l-.55 1.45 2-.1h.1l.55-.05" fill="#4d4d67"/><path d="m16.75 37.35.4-.6L34 29.6l.85 3.45-1 5.35-2.3 7.05-.5.95-12.45 7.9h-.8l8.6-7.15 2-3.35-1.45-1.25-2.75.4-2.25-.15-.8-1.85.55-2.3-.4-2.95-.2-.3-4.35 1.95M13.6 63.5l-.1.05q-1.05.8-2.2 1.2l-1.2-.95.95.05 2.3-2.3.25 1.95m-5.1 4.1-1.95-.4 1.55-1.1.65-2.3.95 1.8-1.2 2m4.2-.95h-.1l-2 .1.55-1.45q1.05-.05 2.25-.95l-.7 2.3M3.5 59.1l2.1.1-2.55 1.4.45-1.5" fill="#b4a7d2"/><path d="m4.9 67.2-.15-.15 1.65-3.7h.1l.55-.6q-.4-1.9-1.65-2.3l1.75-.9L8.6 62.9l-.9 2.8-2.8 1.5m-.8-.85L2.85 65l2.75-1.25-.65 1.55-.85 1.05m10.05-3.4-.15.15-.4.4-.25-1.95 1.4-1.45-.6 2.85M10.1 66l-1 1.7-.6-.1 1.2-2-.95-1.8.05-.3.1.15.5.05.7 2.3m6.2-2.25-.95.95-.4-1.6L16 61.9l.05-.25.35 1.9-.1.2m-2.4.2-.65 2.65-.55.05.7-2.3.5-.4" fill="#78779b"/><path d="m9.5 63.75 1.1 1.3-.5.95-.7-2.3.1.05" fill="#9486a1"/><path d="m33.1 26.6-3.45 1.05-8 3.35-.85 1.15 5.9-1.25-9.35 4.1-4.9 7.35-2.4 4.35-.8 2.8-.9 1.55-.05-1.9-.1-2.1 2.4-4.85 5.1-7.35 1.7-1.65.8-.3 3.45-3.55 6.2-2.45 5-1.15.25.85m1.75 6.45.5 2-1.45 8.8-.9 2.85-2.45 1-11.8 8.1-.55.1-1.3.3-.85.15-.5.15h-.4l2.65-2.2h.8l12.45-7.9.95-.3.7-1.6 1.15-6.1 1-5.35m-30.1 34-.35-.4.55-1.35.65-1.55-4.8-.9-.3-.3q-1-1.75.05-3.95l.1-.25 1.25.5-.5 2.65 1.65-.9 2.55-1.4 1.4.05.15.3-1.75.9-3.7 1.9 4.75.95-.05.05-1.65 3.7" fill="#464660"/><path d="m4.4 66.65-.3-.25v-.05l.85-1.05-.55 1.35" fill="#dbafac"/><path d="m9.45 54.3-.4-3.15.2-.35q2.25-5.25 7.1-12.6l4.55-2.05v2.15l-3.35 1.65Q12 47.5 9.45 54.3" fill="#a086f8"/><path d="M20.9 38.3v.5l-.55 2.1.7 1.8-2.9 1.6-5.3 10.45h-.1l-3.3-.45q2.55-6.8 8.1-14.35l3.35-1.65" fill="#482a8c"/><path d="m21.05 42.7.15-.1.7 1.1 4.8-.45.8.5L25.8 47l-10.05 7.75h-2.9l5.3-10.45 2.9-1.6" fill="#7557db"/><path d="m8.35 51.05.9-1.55 3.6-6.55 3.45-5.45.45-.15 4.35-1.95.2.3.4 2.95-.55 2.3.8 1.85 2.25.15 2.75-.4 1.45 1.25-2 3.35-8.6 7.15-2.65 2.2h-.35l-2-.2q-2.4-.45-4.3-1.75l-.15-3.45v-.05M20.9 38.3v-2.15l-4.55 2.05q-4.85 7.35-7.1 12.6l-.2.35.4 3.15 3.3.45h3L25.8 47l1.7-3.25-.8-.5-4.8.45-.7-1.1-.15.1-.7-1.8.55-2.1v-.5" fill="#2c1b54"/><path d="m31.9 5.55-.6.1L33 1.7 18.95 8.75 8.2 25.2l-4.55 8.05 2.1-1.35q2.1-5.2 6.65-11.7l7.65-10.25Q25.8 6.45 30.7 3.9v.4l-10.15 5.85-5.25 7.05-8.5 13.7 3.05-2.45 12.75-10.6.1.35 1-1v-.05l1.85-4h.05l.55-.1.55-.15.65-.55.55-.25q.8-.35 1.55-.55l.15-.05 1-.3h.1l.65-.15 2.95-.1-.3 1.35-.15.6-.2 1.05-.8 3.45-.3 1.35-.05.25-.05.25-.8 1.1-.8 1.1-1.75 1.2-1.45 1.05-9.4 6.45 3.3-9.25Q11.2 30.35.8 36.9L6.7 21l1-1.85.15-.3 2.95-2.35 4.75-5.2.7-.8 1.65-1.9L21.15 6l3.9-3.2.35-.1q4.45-1.6 8.7-2.7-.6 3.35-2.2 5.55m9 3.25.65-.65 1.35-.7 8.05 1.2-.15.5-3.95-.45-3.9-.5-.9.75V9l-2.5 1.9-1.35 7.55.95 1.2 3.55-3.05 2.95 5 .65 1.4-4.6 6.8-.35.55-2.3 3.35-.25.35-.6-4.3V21l.5-.75-1.25-1.7 1.9-8.1L40.9 8.8M23.15 5.25l-3.8 2.95 8.05-4.5-4.25 1.55m9.05 10.6 1-4.15q-2.9.55-7.15 2.45l-1.75 4.4 1.1-.55-.15.45-1.1.4L21.3 26l-.25.65 4-2.8 2.75-2.05q.05-.1.15-.1l.15-1.5.35-.3v1.35L31.4 19l.8-3.15m-.15 6.1.35-.25 1.05-.75.45-.3 2.35-1.75 1.05 5.5.2.85.05.55-.25 1.3-1.85 2.7-.45.7-3.15 4.6-2.5 2.65.05-1.2.2-8 .1-1.85v-.15l.25-1.7.2-1.55 1.9-1.35m-.3 5v.35l-1.05.7v6.55l.5-.6 2.6-3.45 1.2-1.65-.4-.75.2-.35.5.7 1.95-2.6-.6-3.4-.45-2.6-.2.15-5.3 3.55v3.9l1.05-.5m-26.6 1.7 12.7-19.4-8.15 9.2-4.55 10.2m34.5-4.45v.4l-.8.5.2 5.8.35 1.45L41.15 30l4.5-6.85-.15-.7-.5-.95-2.4-4.2v-.2l-.1.1-3.85 4.3.15 3.1.85-.4" fill="#464660"/><path d="M30.4 5.85h-.1l-2.15.4-1.9 2.15-.6 1.35h-.8L21.6 12.9q-.05 2.4.7 4.2L9.85 28.45 6.8 30.9l8.5-13.7 5.25-7.05L30.7 4.3l-.3 1.55m1.8 10-1.5 1.3q.45-1.55.55-3.75l-.1.05 2.05-1.75-1 4.15m-8.75 7.7 2.45-1.65-.85 1.95-4 2.8.25-.65 2.15-2.45M36 20l.2-.15.45 2.6-.85 1.65-.5-2.2-.05-.2L36 20m-2.2 10.5-2.6 3.45.7-2.3 1.8-2.25.1 1.1m9.9-9-1.3-2.3h-.1l.3-1.9 2.4 4.2h-1.3M40 29.4l1-1.25.15 1.85-1.75 2.35.6-2.95" fill="#78779b"/><path d="m31.3 5.65-.9.2.3-1.55v-.4q-4.9 2.55-10.65 6.05L12.4 20.2q-4.55 6.5-6.65 11.7l-2.1 1.35L8.2 25.2 18.95 8.75 33 1.7l-1.7 3.95m-.6 11.5 1.5-1.3-.8 3.15-2.95 2.25V19.9l1.8-1.5.45-1.25m-4.8 4.75 2.2-1.7-.15 1.5q-.1 0-.15.1l-2.75 2.05.85-1.95m10.75.55.6 3.4-1.95 2.6-.5-.7 1.15-2.05-.15-1.6.85-1.65M34.6 28.1l.4.75-1.2 1.65-.1-1.1.9-1.3m6.4.05 3.4-4.4-.7-2.25H45l.5.95.15.7-4.5 6.85-.15-1.85" fill="#b4a7d2"/><path d="m27.9 8.05 1-1.05q4.05-.25 7.05-.05-4.65.2-7.55.95l-.5.15M15.55 11.3l-.7-1.5-.75.8 1.1-2.05.3-.15.75 2.1-.7.8m7.6-6.05L27.4 3.7l-8.05 4.5 3.8-2.95m7.6 9-1.8 2.65.95 1.4-.35.25-1.1-1.2-4.1 5.2-.4.3.55-1.3 3.6-4.85-1.25-1.1.05-.2 3.85-1.15m2.45-2.55-2.05 1.75h-.05q-1.85.4-4.55 1.7L25.4 18l-1.1.55 1.75-4.4q4.25-1.9 7.15-2.45m-7.95 6.75-2.2 5.3.4-.2L21.3 26l2.85-7.15 1.1-.4m6.5 8.5-1.05.5v-3.9L36 20l-.75 1.7.05.2q-2.6 1.05-3.55 2.25v2.8m-.55 7-.5.6V28l1.05-.7v4.45l.15-.1-.7 2.3m.8-9.55q1.9-1.55 3.15-2.05l-.6 2.1.95 1.6-.25.45-.9-1.55-1.8 5.4-.35.45-.05-1.05 1.7-5.05-1.85-.3M5.15 28.65l4.55-10.2 8.15-9.2-12.7 19.4m37.1-9.35-2.45 2.5-.15 2.4-.85.4-.15-3.1 3.85-4.3.1.1-.3 1.9-.05.1m-2.6 5.3q-.05 2.75.35 4.8l-.6 2.95-.35-1.45-.2-5.8.8-.5m.5-2.45V22l1.9-2.05-.2 3.35-1.7-1.15" fill="#fff"/><path d="m16.25 10.5-.75-2.1L21.15 6 17.9 8.6l-1.65 1.9" fill="#0a99dd"/><path d="m14.1 10.6.75-.8.7 1.5-4.75 5.2 3.3-5.9" fill="#1affee"/><path d="M7.85 18.85q3.2-6.2 6.2-10.6l.1-.15 2-1.55q4.55-2.15 8.9-3.75L21.15 6 15.5 8.4l-.3.15-1.1 2.05-3.3 5.9-2.95 2.35" fill="#0963a8"/><path d="m25.65 9.75 1 .85q.15 1.3.55 1.8l.15-.05-.65.55-.75-2.25h-.5q.05 1.55.7 2.4l-.55.1-.15-.7-.45-1.6-2.55 2.75.5 1.45.75 2.15-1 1-.1-.35-.3-.75q-.75-1.8-.7-4.2l3.25-3.15h.8m3 15.65-.05-.05-.95-1.65 1.45-1.05.85 2.2-.25 1.7-.1.1-.35-.45-.6-.8m9.55-.35v.6l-.7-.4-.2-.85.9.65m.6 9 .25-.35L40.9 35l.45-4.65.35-.55v4.7l-.35 1.25-.05.15-.95-.5-2.5-1.3L36 31.8l-1-1.3.45-.7q.2 1.3 3.35 4.25M32.5 19l.05-.25 1 .75.35 1.15-.45.3-.3-1.2-.65-.75m-.05.25-.25 1 .2 1.45-.35.25-.4-1.6.8-1.1" fill="#bf4f04"/><path d="m42.7 16.6-3.55 3.05-.95-1.2 1.35-7.55 2.5-1.9v-.05l.9-.75 3.9.5q-2 1.75-3 3.75l-.8 2.1-.05.15-.3 1.9m-16.55-3.55q-.65-.85-.7-2.4h.5l.75 2.25-.55.15m-3.2 2-.5-1.45L25 10.85l.45 1.6-2.5 2.6m9.5 4.2.05-.25.65.75.3 1.2-1.05.75-.2-1.45.25-1" fill="#feef0a"/><path d="M50.8 9.15 46.3 23l-.65-1.4-2.95-5 .3-1.9.05-.15.8-2.1q1-2 3-3.75l3.95.45M38.2 27.7v2.05l.6 4.3q-3.15-2.95-3.35-4.25l1.85-2.7.9.6m.85 6 2.3-3.35L40.9 35l-1.85-1.3M23.7 17.2l-.75-2.15 2.5-2.6.15.7h-.05l-1.85 4v.05m7.95 3.15.4 1.6-1.9 1.35-.2 1.55-.85-2.2 1.75-1.2.8-1.1" fill="#ff8400"/><path d="m29.9 18.3.15-.15.9-4-.2.1-3.85 1.15-.05.2-2.35 5.95-.55 1.3.4-.3 2.3-1.75 2.25-1.75.65-.5.35-.25m1.25-4.85.1-.05q-.1 2.2-.55 3.75l-.45 1.25-1.8 1.5-.35.3-2.2 1.7-2.45 1.65-.4.2 2.2-5.3.15-.45 1.15-2.85q2.7-1.3 4.55-1.7h.05" fill="#156d0c"/><path d="m26.85 15.6 1.25 1.1-3.6 4.85 2.35-5.95m5.3 14.15L32 24.4l1.85.3-1.7 5.05m9.7-6.45-1.55 4-.15-5.15 1.7 1.15" fill="#70ff00"/><path d="m24.35 22.55 4.1-5.2 1.1 1.2-.65.5-.55-1.05-1.7 2.8-2.3 1.75m10.9 3.95-.45.6-.4-1-.6 2.4-1.25 1.85 1.8-5.4.9 1.55m8.4-3.3.2.55-3.5 4.75-.05-1.2 1.55-4 1.8-.1" fill="#18950d"/><path d="M39.8 8.35 36.6 7h-.4l-.25-.05q-3-.2-7.05.05l-1 1.05-.2.2-.6.6-.65.65 1.45 2.6-.55.25-.15.05q-.4-.5-.55-1.8l-1-.85.6-1.35 1.9-2.15 2.15-.4h.1l.9-.2.6-.1 4.35.3L40.6 7.3l-.8 1.05" fill="#573faf"/><path d="m35.95 6.95.25.05h.4l3.2 1.35-.15.15q-2 2.85-2.45 4.6l-3.2-.8.3-1.35-2.95.1q-1.55-.7-2.95-3.15 2.9-.75 7.55-.95m-8.85 1.9.6-.6 2.9 2.95-1 .3-.15.05-2.35-2.7m6.55 5.1.2-1.05 3.05 1.2-.25.85-3-1" fill="#b186f8"/><path d="m27.9 12.1-1.45-2.6.65-.65 2.35 2.7q-.75.2-1.55.55m4.95 5.3.8-3.45 3 1-1.25 4.2-2.55-1.75" fill="#7557db"/><path d="m27.7 8.25.2-.2.5-.15q1.4 2.45 2.95 3.15l-.65.15h-.1l-2.9-2.95M34 12.3l3.2.8-.3 1-3.05-1.2.15-.6" fill="#7958dc"/><path d="m39.8 8.35.8-1.05.95.85-.65.65-1.1-.45" fill="#2c1b54"/><path d="M37.2 13.1q.45-1.75 2.45-4.6l.15-.15 1.1.45-1.55 1.65-1.9 8.1 1.25 1.7-.5.75v4.05l-.9-.65-1.05-5.5-2.35 1.75-.35-1.15-1-.75.3-1.35 2.55 1.75 1.25-4.2.25-.85.3-1" fill="#4e2e91"/><path d="m29.9 18.3-.95-1.4 1.8-2.65.2-.1-.9 4-.15.15m-1 .75-2.25 1.75 1.7-2.8.55 1.05" fill="#1dfe0a"/><path d="m29.6 28.55-.2 8q-2.8-.2-2.75-4.15 1.15-3.65 2.95-3.85" fill="#feffff"/><path d="m29.7 26.7-.1 1.85q-1.8.2-2.95 3.85-.05 3.95 2.75 4.15l-.05 1.2 2.5-2.65L35 30.5l1 1.3-1.55 3q-2.5 3.3-5 4.15-3.05.45-4.4-1.95l.25-.25.3-5.3L27.8 28l1.45-1.8.35.45.05.05h.05" fill="#a9c5c9"/><path d="m46.3 23-.15 5.95-4.45 5.55v-4.7l4.6-6.8M33.1 41.45l-1.25.8-5.25-.85-1.45-1.5-.8-2.25.7-.65q1.35 2.4 4.4 1.95 2.5-.85 5-4.15l1.55-3 1.85 2.3 2.5 1.3-7.25 6.05" fill="#738e92"/><path d="M46.1 30.8v1.15l-3.1 3.7q-2.55 3-5.05 4.15l-5.65 2.75h-2.8q-3.4-.4-5.1-1.25l-1.2-3.95 1-2 .3-3.95 2.8-4.5 1.35-1.5.6.8L27.8 28l-2.2 3.45-.3 5.3-.25.25-.7.65.8 2.25 1.45 1.5 5.25.85 1.25-.8 8.2-5.55.05-.15 4.75-4.95" fill="#4c6d72"/><path d="m46.15 28.95-.05 1.85-4.75 4.95.35-1.25 4.45-5.55M22.3 17.1l.3.75-12.75 10.6L22.3 17.1m10.8 24.35 7.25-6.05.95.5-8.2 5.55" fill="#e7b5ae"/><path d="m35.15 22.35.55 3.45-.2.25-.95-1.6.6-2.1m-.35 4.75-1 1.4.6-2.4.4 1m8.85-3.9-1.8.1.2-3.35.2-.25 1.4 3.5" fill="#6bfe5c"/><path d="M31.75 27.3v-3.15q.95-1.2 3.55-2.25l.5 2.2.15 1.6-1.15 2.05-.2.35-.9 1.3-1.8 2.25-.15.1V27.3m.25-2.9.15 5.35.05 1.05.35-.45 1.25-1.85 1-1.4.45-.6.25-.45.2-.25-.55-3.45q-1.25.5-3.15 2.05m11.7-2.9.7 2.25-3.4 4.4-1 1.25q-.4-2.05-.35-4.8v-.4l.15-2.4 2.45-2.5.15-.1 1.3 2.3m-3.4 5.8.05 1.2 3.5-4.75-.2-.55-1.4-3.5-.2.25-1.9 2.05v.15l.15 5.15" fill="#136c0a"/><path d="M38.2 25.65v2.05l-.9-.6.25-1.3-.05-.55.7.4" fill="#feee0a"/></g><g id="H" fill-rule="evenodd"><path d="M64.8 7.65q-7.4 1-16.45.3h-.05q-14.45-1.7-21.8 2.8l-2.1 1.2q-1.95.95-1.6.55l.05-.05.25-.3 1.3-1.1 1.25-1.1.05-.05 3.75-6.7-1.65.85-3.55 2q-2.55 1.4-5 3.1-5.15 3.5-10 7.9l-.8.75H8.4l-.95 1.6q-.8 1.4-.7.8l.35-1.65.3-1.25.05-.7Q8.15 9.9 7 4.3l-.45 1.65-.8 2.45-1.2 3.35-1 2.5-.05.05-.1.55Q-.05 27.4 2 36.4l.85 5v.05l.1.7.1.6q.45 2.85-.4-.3l-.05-.15-.1-.5-1.35-4.25-.35-.9Q-1.35 27.4 2.2 14.5l.15-.6v-.05Q6.05 4.8 6.25 1.3V.65l.2-.45.4-.2.45.2.15.45v.5Q9.5 7.7 8.8 15.8 19.15 6.55 30.7 1.3h.35q.2 0 .35.15l.15.35-.05.4-3.7 6.45q7.45-3.5 20.65-1.9 13.15 1 22.8-1.7L73 4.5h.4l.3.2.15.35-.15.35q-6.35 8.9-15.4 13.55 11.6 2.5 20.45 8.85l1.7 1.25.05.05.8.7q20.5 18.25 25.2 46.25 1.8 11.1-2.7 27.9l-.05.1-8.4 19.55-.35.3h-.5l-.3-.3-2.55-6.7q-11 14.85-9 31.5v.05q.9 9.6 11.1 14.35l.25.25.05.35-.15.3-.35.25-.5.1 5 1.25 8.75-1.3.45.15.25.4q.5 2.05-2.9 3.15-2.9.9-8.8 1.15h-.25q-5.45-1.75-9.95-4.05-9.1-4.85-13.95-12.3l-.1-.15q-4.5-16.75-1.1-29v.05q2.5-12 2.25-24.15-.2-9.35-2-18.75h-.05l-.2-1.4v-.25Q62.9 59.75 52.8 56.2q-9.1-3.2-20.4 6.35l-3.45 3.15-.2.1-.2-.1-.1-.2.1-.2q1.7-1.7 3.4-3.05 11.6-9.95 21.05-6.6 10.2 3.55 17.85 22.7h.05l.45.1.25.35.3 1.5v-.05q1.85 9.7 2 19.3.2 12.1-2.3 24.05v.05q-2.9 10.55.2 24.45l.9 3.85 1.35 1.8q3.9 5.15 10.2 8.8 5 3 11.6 5.05 5.6-.25 8.35-1.1 1.5-.5 1.9-1.15l-8 1.2h-.2l-7.7-1.95-.35-.25-.15-.4.2-.35q.1-.15.3-.2l1.4-.3q-9.35-5.05-10.15-14.55-2.2-17.65 9.85-33.3l.4-.2.4.05.3.35 2.4 6.25 7.8-18.15q4.4-16.4 2.7-27.25-4.55-27.05-24-44.8l-1.6-1.45-.95-.7q-9.35-7-21.8-9.45-.2 0-.3-.15h-.25l-.1-.05-.35-.25v-.5q.05-.25.3-.35l1.65-.8.75-.4Q66.1 13.35 71.6 6.2l-1.55.4-5.25 1.05" fill="#1c1931"/><path d="m3.05 42.75-.1-.6L14.4 33.4q6.6-5 12.2-7.05l-6.8 2.05q3.6-3.65 11.9-6.65 10.55-1.65 19.65-1.15L37.4 23.5q9.8-1 20.25 2.05 8 2.75 11.95 8.4l4.15 6.8q-1.5-2.25-4.95-4.5-6.7-4.05-15.9-3.85 8 3.75 10.65 7.8-4-3.3-10.5-5.15L31.8 34.4q3.9-2.5 9.65-3.4-7.05-.6-14.05.9l-21.15 13-3.2-2.15m-.2-1.35-.85-5q-2.05-9 1.4-21.55l.1-.55.05-.05 1-2.5L4 25.95l.85-1.55 2.7-4.95.9-1.65.8-.75q4.85-4.4 10-7.9l-10.4 15.3 7.9-6.8 3.05-2.55 11.05-4.8L38 8.55q-5.85 2.7-12.65 8.3l7.05-2.7L17.5 25.3l1.4-2.65-9.75 12.4-6.3 6.35M44.4 43l5-1q3.4-1 8.15-.05Q65.6 42.6 74.6 51l2.2 2.4 16.25 6.15q3.35 13.35 3.1 23.15-2.6-10.95-9.1-18L76.8 53.4l-2.1 6.4 1.7 2.1 3.95 11.3.2 2.75q-2.25-5.8-5.15-10.3-5.55-9.1-11.85-14.75l-.65-.55-10-5.5Q49 43.65 44.4 43" fill="#604e98"/><path d="M22.8 12.5q-.35.4 1.6-.55l2.1-1.2q7.35-4.5 21.8-2.8h.05q9.05.7 16.45-.3l-5.25 2.5-14.25 4.3-17.7 7.15q5.7-1.7 16.95-2.15l11.75.3h.35q.1.15.3.15 12.45 2.45 21.8 9.45l.95.7 1.6 1.45q19.45 17.75 24 44.8 1.7 10.85-2.7 27.25l-7.8 18.15-2.4-6.25-.3-.35-.4-.05-.4.2q-12.05 15.65-9.85 33.3.8 9.5 10.15 14.55l-1.4.3q-.2.05-.3.2l-.2.35.15.4.35.25 7.7 1.95h.2l8-1.2q-.4.65-1.9 1.15-2.75.85-8.35 1.1-6.6-2.05-11.6-5.05l-4.25-6.6q-6.4-15.7-2.55-27.05l.25-.7 9.6-25.75 6.9 1.5-3.05-11.9q-2.3-16.35-8.2-24.9 2.9 12.05 1.5 21.6-1.65-7.05-3.9-12.8l-.2-2.75-3.95-11.3-1.7-2.1 2.1-6.4 10.25 11.3q6.5 7.05 9.1 18 .25-9.8-3.1-23.15L76.8 53.4 74.6 51q-9-8.4-17.05-9.05Q52.8 41 49.4 42l-5 1-7.55-.6q6.6-2.7 14.65-3.1-9.75-2.8-21.85-.85L9.05 46.8l-2.8-1.9 21.15-13q7-1.5 14.05-.9-5.75.9-9.65 3.4l21.25.65q6.5 1.85 10.5 5.15-2.65-4.05-10.65-7.8 9.2-.2 15.9 3.85 3.45 2.25 4.95 4.5l-4.15-6.8q-3.95-5.65-11.95-8.4Q47.2 22.5 37.4 23.5l13.95-2.9q-9.1-.5-19.65 1.15-8.3 3-11.9 6.65l6.8-2.05Q21 28.4 14.4 33.4L2.95 42.15l-.1-.7v-.05l6.3-6.35 9.75-12.4-1.4 2.65 14.9-11.15-7.05 2.7q6.8-5.6 12.65-8.3l-7.15 1.75-11.05 4.8 3-2.6m-18.25-.75 1.2-3.35q.35 9.7-1.1 16.3l.2-.3L4 25.95l.55-14.2m14.7-2.6q2.45-1.7 5-3.1l-6.1 8.5-1.4 3.1-7.9 6.8 10.4-15.3" fill="#41346a"/><path d="m64.8 7.65 5.25-1.05-11.4 10.8-.75.4-1.65.8q-.25.1-.3.35v.5l.35.25v.05l-11.75-.3Q33.3 19.9 27.6 21.6l17.7-7.15 14.25-4.3 5.25-2.5m19.45 154.9q-6.3-3.65-10.2-8.8-1.1-2.75-1.8-5.65-2.05-8.7-.25-18.7l5.75-29.05-3.85-.8q-.15-9.6-2-19.3v.05l-.3-1.5-.25-.35-.45-.1h-.05Q63.2 59.2 53 55.65q-9.45-3.35-21.05 6.6L9.05 46.8l20.6-8.35q12.1-1.95 21.85.85-8.05.4-14.65 3.1l7.55.6q4.6.65 8.5 1.85l10 5.5.65.55q6.3 5.65 11.85 14.75 2.9 4.5 5.15 10.3 2.25 5.75 3.9 12.8 1.4-9.55-1.5-21.6 5.9 8.55 8.2 24.9l3.05 11.9-6.9-1.5-9.6 25.75-.25.7Q73.6 140.25 80 155.95l4.25 6.6M5.75 8.4l.8-2.45.9 10.65-.05.7-.3 1.25-.35 1.65q-.1.6.7-.8l.1.05-2.7 4.95-.2.3q1.45-6.6 1.1-16.3m18.5-2.35 3.55-2-2.1 5.85-.05.05-1.25 1.1-1.3 1.1-.25.3-.05.05-3 2.6-3.05 2.55 1.4-3.1 6.1-8.5" fill="#272144"/><path d="m70.05 6.6 1.55-.4q-5.5 7.15-12.95 11.2l11.4-10.8m4 147.15-1.35-1.8-.9-3.85q-3.1-13.9-.2-24.45v-.05q2.5-11.95 2.3-24.05l3.85.8L72 129.4q-1.8 10 .25 18.7.7 2.9 1.8 5.65M6.55 5.95 7 4.3q1.15 5.6.45 12.3l-.9-10.65m21.25-1.9 1.65-.85-3.75 6.7 2.1-5.85" fill="#e7b5ae"/></g><g id="I" fill-rule="evenodd"><path d="m12.25 46.4-1 3.15 5.05.15-.45 1.15H9.6l2.65-4.45m23.4 38.8-2.2.4-.65-1.55 2.35-7.7.55-3.05.55 1.8q0 5.2-1.1 8.05l.5 2.05m-16.4-33.85 2.65-1.55q-3.55 3.3-10.35 7.4l-.4-.35.65-3.05 1.35 1 .55-.35.1.6 5.45-3.7m2.3 8.55-6.85 4.9-.25-.25.75-3.7 2.35 1.55 1-2.05 5.7-3.1L24 58l-2.45 1.9m-10.2 30.8-7.7.45Q.35 78.1 2.2 66.45l13.45 13.1L18.2 81l5 .5 1.8-1.15.6 1.4H16L9.35 77.1q-.25 6.8 2 13.6" fill="#fff"/><path d="m18.15 69.4-5.25-4.6.9-3.7-3.95-4.35.6-3.65-2.5-2.05 4.2-7.95 7.6-.65-.1.35-3.05 9.25L22.4 48l.35 1.2.15.5-3.95 9.7 6.15-3.15q-2.25 8-5.5 13.25l-.5.8-.95-.9m15.6-4.9 1.15-.95 3.05.9L42.8 79.3l-3.7 6.05q-3.2 1.95-6.4 1.25l-1.45-1.4.1-.4.35.15 1.1-.9.65 1.55 2.2-.4 2.4-.5 1.5-2.55 1.5-2.55-2.5-9.1-1.85-5.2-1.45-.35-1.1 1.7V65.5l-.4-1M29.1 83.65l-4.75 6.95q-10.7 2.35-21.05 2.2l-1.55-1.4L.2 82.5q-.65-12.35 1.05-18.7L16.1 77.65l1.55-1.2.9-.85 2.1-.75-.95 1-3.2 3.1q1.55 1.4 4.85 1.55h.95l3.2-1.15 1.8 4.7 1.45-1.5.35 1.1M16.3 49.7l2.05-5.55-4.55-.45-1.55 2.7-2.65 4.45 3.95 3.05 1.65-1.25.65-1.8.45-1.15m-2.6 4.75-.55.35-1.35-1-.65 3.05.4.35q6.8-4.1 10.35-7.4l-2.65 1.55-5.55 3.1m6.7.1 1.35-4.35-4.1 3.8-5.75 3.4 4.45 3.5.7.55q2.15-3.8 3.35-6.9M24 58l.25-.75-5.7 3.1-1 2.05-2.35-1.55-.75 3.7.25.25 6.85-4.9L20 62.1l-4.95 3.05 3.15 3.1 1 .95 3.35-7.9L24 58m1.6 23.75-.6-1.4-1.8 1.15-5-.5-2.55-1.45L2.2 66.45Q.35 78.1 3.65 91.15l7.7-.45 7.8-.95 5.1-.95 2.3-4.6-.25-.75-.7-1.7" fill="#464660"/><path d="m15.85 50.85-.65 1.8-1.65 1.25-3.95-3.05h6.25m18.65 18.2 2.9 3.7q1.55 3.3 2.05 8.4l.1 1-1.5 2.55-2.4.5-.5-2.05q1.1-2.85 1.1-8.05l-.55-1.8.2-1.3-.65-.65-.75-2.3M16.35 60.9l-4.45-3.5 5.75-3.4 4.1-3.8-1.35 4.35-4.05 6.35m5.2-1L24 58l-1.45 3.3-4.35 6.95-3.15-3.1L20 62.1l1.55-2.2m4.05 21.85.7 1.7-9.65.9 2.5 5.4-7.8.95q-2.25-6.8-2-13.6L16 81.75h9.6" fill="#78779b"/><path d="m12.25 46.4 1.55-2.7 4.55.45-2.05 5.55-5.05-.15 1-3.15m21.9 20.25 1.1-1.7 1.45.35 1.85 5.2 1.2 8.4-.3 2.25q-.5-5.1-2.05-8.4l-2.9-3.7-.4-1.25.05-1.15m-14.9-15.3-5.45 3.7-.1-.6 5.55-3.1m7.05 32.1.25.75-2.3 4.6-5.1.95-2.5-5.4 9.65-.9" fill="#b4a7d2"/><path d="m34.55 76.2-.1-4.1L32.2 67l-.7-4.25h.05q1.4 6.1 3.35 9.1.45 2.95-.35 4.35M34 55.8l1.5-5.1-6.05-7.1 7.1 6.3L34 55.8m5.45 25.35.3-2.25-1.2-8.4 2.5 9.1-1.5 2.55-.1-1M16.35 60.9l4.05-6.35q-1.2 3.1-3.35 6.9l-.7-.55m6.2.4-3.35 7.9-1-.95 4.35-6.95" fill="#e7b5ae"/><path d="m22.75 49.2 7.5-.8q.25 9.95-3.95 15.15 1.4 6.2-1.15 11.8L21.4 72.8l-3 1.25 1.55-2.8-.35-1.75q3.25-5.25 5.5-13.25l-6.15 3.15 3.95-9.7-.15-.5" fill="#a086f8"/><path d="m27.85 42.55 6.35 8.65L30.35 64l1.55 6.95 1.4 4.55-2.65 5-2.8-1.45-7.35-4.85-1.95 1.4-.5-.9.35-.65 3-1.25 3.75 2.55q2.55-5.6 1.15-11.8 4.2-5.2 3.95-15.15l-7.5.8-.35-1.2-5.8 4.05 3.05-9.25 8.2-.25" fill="#7557db"/><path d="m29.45 43.6-1.2-1.05 3.25-.1 6.55 7.7-4.95 12.3.65 2.05.4 1v1.15l-.05 1.15.4 1.25.75 2.3.65.65-.2 1.3-.55 3.05-2.35 7.7-1.1.9-.35-.15-2.25-1.15-.35-1.1-1.2-3.2-6.9-4.5-2.1.75-.9.85-.95-1.25 1.45-3.55V69.4l.95.9.5-.8.35 1.75-1.55 2.8-.35.65.5.9 1.95-1.4 7.35 4.85 1.25 3.25 2.85 1.25q1.9-3.1 2.6-7.35.8-1.4.35-4.35-1.95-3-3.35-9.1l-.05-.4-.15-.4L34 55.8l2.55-5.9-7.1-6.3" fill="#2c1b54"/><path d="m28.25 42.55 1.2 1.05 6.05 7.1-1.5 5.1-2.65 6.15.15.4v.4l.7 4.25 2.25 5.1.1 4.1q-.7 4.25-2.6 7.35L29.1 82.3l-1.25-3.25 2.8 1.45 2.65-5-1.4-4.55L30.35 64l3.85-12.8-6.35-8.65h.4" fill="#482a8c"/><path d="M21.35 80.5q-3.3-.15-4.85-1.55l3.2-3.1 3.65 2.8-2 1.85" fill="#a9c5c9"/><path d="m20.65 74.85 6.9 4.5 1.2 3.2-1.45 1.5-1.8-4.7-3.2 1.15h-.95l2-1.85-3.65-2.8.95-1" fill="#76959f"/><path d="m18.8 11.9-2.2 5.6-.2.25-3.2 4.1q-2.15 3.2-3.25 5.6v1.05l.2.4.5 3.1-1.3 1.5q-2.9 2.05-5.2.3l-.3-1.4q-.4-4.05.35-5.45l1.7-2.35q2.95-3.8 7.75-8.45l5.15-4.25" fill="#f87856"/><path d="m33.2.9 2.1-.15-8.3 6.2-8.75 8.75-1.65 1.8 2.2-5.6 7.1-5.85L33.2.9M4.15 33.8q2.3 1.75 5.2-.3l1.3-1.5-.5-3.1 2.65 5.25q3.5 4.8 6.3 7.75-2.95 1.45-6.9.1l-.9-1.85-2.9-1.7.2 1.25-3.85-3.5-.6-2.4" fill="#ba553b"/><path d="m39.45.45-13.1 10.2-2.25 1.3 1.5-1.4.5-.3L37.8.55l1.65-.1M19.1 41.9l.8 6v.9q-3.6-.05-7.25-1.95l-3.35-2.8Q7 41.35 4.9 37l-.15-.8 3.85 3.5.4 3.35 3.45 1.15q.25-.8-.25-2.2 3.95 1.35 6.9-.1" fill="#7f3624"/><path d="M35.3.75h.35L28.3 6.7l-9.2 9.2-3.1 3.25L11.95 25l-1.4 3.2q1.5 3.15 3.35 6.15l.15.25 3.9 5.05 1.45 1.9.1.1.9 2.6.25 4.5v.15l-.75.3v.35l-5.9-1.1-3.95-2-.1-.15-.2-.25-1.65-2.4-.2-.25-1.15-1.8-1.3-2.2-.7-1.2-1.15-2.25-.9-1.9-.2-.4q-.45-1.05-.45-3.05l.55-4 2.35-3.2q3.7-4.75 10.1-10.15L31.8 1l1.4-.1-7.3 5.15-7.1 5.85-5.15 4.25Q8.85 20.8 5.9 24.6l-1.7 2.35q-.75 1.4-.35 5.45l.3 1.4.6 2.4.15.8q2.1 4.35 4.4 7.05l3.35 2.8q3.65 1.9 7.25 1.95v-.9l-.8-6q-2.8-2.95-6.3-7.75l-2.65-5.25-.2-.4v-1.05q1.1-2.4 3.25-5.6l3.2-4.1.2-.25 1.65-1.8L27 6.95l8.3-6.2" fill="#5a2518"/><path d="M3.6 35.95v2.35l1.85 1.1 1.3 2.2v1.35l1.15.45.2.25 1.65 2.4L7 44.7 5.65 43l-.45-2.05-3.05-2.5.55-4.4.9 1.9M12.2 42q.5 1.4.25 2.2L9 43.05l-.4-3.35-.2-1.25 2.9 1.7.9 1.85m-.8-.8v-.05L9.1 39.3l.55 2.9 2.2 1.05-.45-2.05" fill="#0963a8"/><path d="m3.6 38.15 1.15.05.7 1.2-1.85-1.1v-.15m3.15 3.45 1.15 1.8-1.15-.45V41.6m4.65-.4.45 2.05-2.2-1.05 1.75-1" fill="#0a99dd"/><path d="m3.6 35.95 1.15 2.25-1.15-.05v-2.2m6.05 6.25-.55-2.9 2.3 1.85v.05l-1.75 1" fill="#1affee"/><path d="m19.4 41.55-1.45-1.9 1.2-1.95 1.65 1.75v.05l-1.4 2.05" fill="#fff"/><path d="m19.1 15.9.7.3q-3.5 3.75-5.8 7.2-1.85 2.55-1.8 4.2v.45q1.75 3.6 3.05 5.35l3.9 4.3-1.2 1.95-3.9-5.05-.15-.25q-1.85-3-3.35-6.15l1.4-3.2L16 19.15l3.1-3.25" fill="#feef0a"/><path d="m40 .4-1.85 3.15-9.95 7.35-1.85-.25L39.45.45 40 .4m-4.35.35 2.15-.2-11.7 9.7-.5.3-1.5 1.4-3.95 3.85-.35.4-.7-.3 9.2-9.2L35.65.75m-15 48-.25-4.5-.9-2.6-.1-.1 1.4-2.05q.8 2.4 1 4.9l.05.4-.45 2.85-.75 1.1" fill="#ff8400"/><path d="M22.5 46.7q2.85-.05 8.05-3.1l5.2-3.9 5.55-3.05.85-.2h5.4l1.35.85v.1l-7-.5-1.1.6-10.55 7.7q-4.95 1.85-7.8 1.9l.05-.4m-1.85 2.2v-.15l.75-1.1.45-2.85-.1 3.45-.65 1.25-.45-.6" fill="#e7b5ae"/><path d="m26.35 10.65 1.85.25 9.95-7.35-1.5 2.65-7.1 4.55-8 4.55-3.65 3.85-1.4 2-2.4 3.2q-.8 1-1.2 3.55l1.7 3.15.2.3.05.05 1 1.45 4.55 5.3 1.55 2.2q.55 3.65.55 6.35l-.05.4-.05.75-.1 1.1-1.15 1.15-1.25-.55v-.35l.75-.3.45.6.65-1.25.1-3.45-.05-.4q-.2-2.5-1-4.9v-.05l-1.65-1.75-3.9-4.3q-1.3-1.75-3.05-5.35v-.45q-.05-1.65 1.8-4.2 2.3-3.45 5.8-7.2l.35-.4 3.95-3.85 2.25-1.3" fill="#bf4f04"/><path d="M38.15 3.55 40 .4l5.2-.4-4.9 4.35-3.85 3.45-3.55 1.95-7.65 4.2-8.75 7.2 1.4-2 3.65-3.85 8-4.55 7.1-4.55 1.5-2.65m-23.2 27.8 1.95 1.85q5.95 5 7.35 8.45Q36.6 35.3 41.2 24.35l6.8 3.9.9 7.75v1.3l-1.35-.85h-5.4l-.85.2-5.55 3.05-5.2 3.9q-5.2 3.05-8.05 3.1 0-2.7-.55-6.35l-1.55-2.2-4.55-5.3-1-1.45.1-.05" fill="#60354e"/><path d="m32.9 9.75 3.55-1.95 3.85-3.45q1.1 2.1 5.55 2.2L48 28.25l-6.8-3.9q-4.6 10.95-16.95 17.3-1.4-3.45-7.35-8.45l-1.95-1.85q6.15 2.2 10.6-1.7l.25-.3q7.2-5.55 7.9-13.9l-.8-5.7" fill="#925d7c"/><path d="m16.5 21.15 8.75-7.2 7.65-4.2.8 5.7q-.7 8.35-7.9 13.9l-.25.3q-4.45 3.9-10.6 1.7l-.35-.3-1.7-3.15q.4-2.55 1.2-3.55l2.4-3.2" fill="#bf8ea5"/><path d="M22.45 47.1q2.85-.05 7.8-1.9l10.55-7.7 1.1-.6 7 .5V39l-7.1-.9-9.4 7.15q-5.3 2.2-10 2.6l.05-.75" fill="#3d2031"/></g><g id="J" fill-rule="evenodd"><path d="m37.45 53.1-14.6 1.1 1.2 1 7.05 5.95 9.65 2.95-5.45-.25.95 5.55 8.95 4.7 2.2 1.05L50 78l6.25 6.75 1.55 2.45 1.3 4.7-.8 2.25-.5-1.3-1.4-5.3-9.45-11.05L37 72.05l-2.3-2.2L33.55 64l-3.65-1.7-9.85-8.5L22 52.65 41.25 50l9.55-14.3 3.35-6.1 2.5 3.7 3.7 11.4-.6 6.85 5.25 5.2.35 11.2q2 4.5 3.95 8.25l-.45 1.4-5.7-10V56.65l-2.35-2-2.35-2 .35-8.2-4.05-10.4-.55-1.4-5.55 9.95-.9 1.65L43 52.7l-4.25.35-1.3.05" fill="#2c1b54"/><path d="m38.9 56.15 2.35-.4-3.8-2.65 1.3-.05 8.8 5 1 .55-.35-6.75-.45-7.6.9-1.65.5 9.6.05 1.25 6.05-10q1.1 6.45-.7 16.05l3.2-4.75.55-.8q.7 2.55 1.05 6.85l.35 5.6v8.85l-4.35-1.85L45.2 69l-4.85-2.9h-.05l2.35-1.45.25.1 2.95-.4-14.8-6.95 7.85-1.25M68.85 77.6l.45-1.4.9-2.45 8.15-13.25q4.15 7.4 7.15 19.65l2.1 9.2-2.35 20.4-11.9-3.75-10.8-5.2q-2.3-1.7-4.25-6.65l.8-2.25 1.15-3.2.25-.85 1.75 1.75.55.55 2.05 2.05 1.65-6 1.35-5.05.35-1.3.65-2.25M82 107l1.2.35 2.65-18.2-1.1-5.9-5.5-16.9-1.05-3.3-6.85 11.75-5 16.55L65.6 94l-1.65-1-2.85-2.95-.5 1.55-.75 2.25 3.2 6.05 3.55 1.6.7.3 5.85 2.55L82 107M54.85 45.35l-5.25 9.1v5.3l-.45-.2-6.9-2.9-6.75.85-1.95.25 1.35.6 18.1 7.9 1.85-20.9m3.25 12.1-.05-1.95-3.7 5.75-.65 5.7h-.15L47 65.25l-5.75 1 .65.3 1.6.8 5.2 2.55.45.25h.05l8.75 3.25.55.2-.4-16.15" fill="#464660"/><path d="m82 107-8.85-2.65L68.6 87.6l-2.25 3.75 5-16.55 6.85-11.75 1.05 3.3L82.6 87.3v.8q.5 11-.6 18.9m-14.7-5.2-.7-.3-6-9.9.5-1.55L63.95 93l3.35 8.8M47.55 58.05 45.45 55l2.75-3.15.35 6.75-1-.55m1.6 1.5.45.2v-5.3l5.25-9.1-4.55 16.2q-7.5-.3-15.4-3.2l-1.35-.6 1.95-.25q5.95 2.2 14.1 3.4l-.45-1.35m4.4 7.4h.15l.65-5.7 3.7-5.75.05 1.95-3.25 11.3-11.35-1.4-1.6-.8 12.25 1.55-.6-1.15" fill="#fff"/><path d="m73.15 104.35-5.85-2.55-3.35-8.8 1.65 1 .75-2.65 2.25-3.75 4.55 16.75m-6.55-2.85-3.55-1.6-3.2-6.05.75-2.25 6 9.9M49.15 59.55l.45 1.35q-8.15-1.2-14.1-3.4l6.75-.85 6.9 2.9m1.15 2 4.55-16.2L53 66.25l-2.7-4.7m7.8-4.1.4 16.15-.55-.2-3.1-4.65 3.25-11.3m-16.2 9.1-.65-.3 5.75-1 6.55 1.7.6 1.15-12.25-1.55" fill="#b4a7d2"/><path d="M38.75 53.05 43 52.7l4.75-8.45.45 7.6L45.45 55l2.1 3.05-8.8-5m40.5 13.3 5.5 16.9 1.1 5.9-2.65 18.2L82 107q1.1-7.9.6-18.9v-.8l-3.35-20.95m-44.35-8q7.9 2.9 15.4 3.2l2.7 4.7-18.1-7.9M57.95 73.4l-8.75-3.25h-.05l-.45-.25-5.2-2.55 11.35 1.4 3.1 4.65" fill="#78779b"/><path d="m48.65 42.6 5.55-9.95.55 1.4-1.95 8.4q-1.5 6.6-3.65 9.75l-.5-9.6m9.8 10.05 2.35 2-1.45 6.15q-.35-4.3-1.05-6.85l-.55.8.7-2.1M50 78l-2.6-2.85-2.2-1.05-4.75-3.75-1.3-4.1 1.15-.15h.05L45.2 69l10.15 4.4 7.95 12.95-1.05 3.25-1.75-1.75-.25.85-5.7-7.25L50 78" fill="#7556db"/><path d="m24.05 55.2-1.2-1 14.6-1.1 3.8 2.65-2.35.4-14.85-.95M59.1 91.9l-1.3-4.7-1.55-2.45L50 78l4.55 3.45 5.7 7.25-1.15 3.2M45.2 74.1l-8.95-4.7-.95-5.55 5.45.25 1.9.55-2.35 1.45-1.15.15 1.3 4.1 4.75 3.75" fill="#482a8c"/><path d="m24.05 55.2 14.85.95-7.85 1.25 14.8 6.95-2.95.4-.25-.1-1.9-.55-9.65-2.95-7.05-5.95" fill="#7557db"/><path d="m54.75 34.05 4.05 10.4-.35 8.2-.7 2.1-3.2 4.75q1.8-9.6.7-16.05l-6.05 10-.05-1.25q2.15-3.15 3.65-9.75l1.95-8.4m6.05 20.6 2.35 2V67.6l5.7 10-.65 2.25h-2.75l-2.15 6.5-7.95-12.95 4.35 1.85V66.4l-.35-5.6 1.45-6.15" fill="#a086f8"/><path d="m62.8 90.15 3.1-9.3.6 5.35-1.65 6-2.05-2.05" fill="#76959f"/><path d="m65.9 80.85.2-.55 1.75.85-1.35 5.05-.6-5.35" fill="#a9c5c9"/><path d="m68.2 79.85-.35 1.3-1.75-.85-.2.55-3.1 9.3-.55-.55 1.05-3.25 2.15-6.5h2.75" fill="#2d1c55"/><path d="m37.7 40.85.45.3v4.5l-2.9-1.1-1-.4v-5.4l3.45 2.1m-5.2 7.85-.05-1.1 4.3.65.65 3.45h-4.65l-.25-2.9v-.1m9.85-3.05V40.8l2.3 1.7 1.8.85-1 4.15h-3.1v-1.85m-4.75-3.8-2.65-1.6v2.85l2.65 1.55v-2.8m5.7 4.35 1.4.75.65-3.3-2.05-1.2v3.75m-9.9 4.75 2.7-.3V49l-.7-.15-1.95-.35-.05 2.45" fill="#0963a8"/><path d="M37.6 44.15 36.3 43l1.3-1.15v2.3m5.7 2.05 1.35-1.85-1.35-1.9 2.05 1.2-.65 3.3-1.4-.75m-7.9 2.65.7.15v1.65l-2.7.3.6-1.3 1.4-.8" fill="#0a99dd"/><path d="M37.6 44.15v.5l-2.65-1.55v-2.85l2.65 1.6L36.3 43l1.3 1.15m5.7-1.7 1.35 1.9-1.35 1.85v-3.75m-7.9 6.4-1.4.8-.6 1.3.05-2.45 1.95.35" fill="#1affee"/><path d="M17.25 6.8q.4-.3.75-.5l9.65 16 7.8 9.65L47 35.9l3.6 6.4-2.35 8.1-9 4.4-8.6-.55-3.25-4.9V47.6l5.1 1.1v.1l.25 2.9h4.65l-.65-3.45 5.6-2.6v1.85h3.1l1-4.15-1.8-.85 1.55-3.75q-4.45-3.9-11.25-6.4l-7.25-8.7L17.25 6.8" fill="#7f3624"/><path d="m14.15 9 3.1-2.2L27.7 23.65l7.25 8.7q6.8 2.5 11.25 6.4l-1.55 3.75-2.3-1.7v4.85l-5.6 2.6-4.3-.65.05 1.1-5.1-1.1v-1.7q4.35 1 7.85-1.35l2.9 1.1v-4.5l-.45-.3q.8-1.9-.7-5.7-5.85-6.55-10.5-4.45l-3.75-4.85L14.15 9" fill="#ba553b"/><path d="m22.75 25.85 3.75 4.85q4.65-2.1 10.5 4.45 1.5 3.8.7 5.7l-3.45-2.1v5.4l1 .4q-3.5 2.35-7.85 1.35V35.4l-4.65-9.55" fill="#f87856"/><path d="m21.1 4.15.45.8 6.35 10.3 9.45 14.15 8.3 3.4 1.5.65.75.3.4.55.45.5 1.6 2.15 1.55 2.15-.4 3.25-.7-1.2v-1.8l-2.95-4.25-.5-.75-.2-.1-10.3-4-2.7-4.15-14.1-21.2 1.05-.75m3.3 42.7V37.3l-9.65-22.7-2.1-4.6.5-.3 3.55 7.55 4 8.65 4.95 11.7-.4 7.05-.15 2.95-.05.75 2.8 5.55h1.45l1.15 1.4-3.2-.75-.9-.9-.5-1.25-1.45-3.8v-1.75" fill="#bf4f05"/><path d="m50.8 41.15.7 1.2-2.6 8.55q-4.85 3.65-9.65 4.8l-8.8-.4-1.15-1.4-2.85-4.8V35.15l-8.95-18-3.85-7.8.5-.35 8.6 16.85 4.65 9.55v13.95l3.25 4.9 8.6.55 9-4.4 2.35-8.1-3.6-6.4-11.55-3.95-7.8-9.65L18 6.3l1-.7 10.7 17.45 2.5 3.25 4 5.25 9.85 3.5 1.3.45.25.4 3.2 5.25" fill="#5a2518"/><path d="m47.85 35.1 2.95 4.25v1.8l-3.2-5.25.25-.8m-21.4 13.15v.85l2.85 4.8h-1.45l-2.8-5.55.05-.75 1.35.65" fill="#dd6802"/><path d="m47.15 34.25.2.1.5.75-.25.8-.25-.4-1.3-.45q.5-.45 1.1-.8m-21.9 10.4 1.2.8v2.8l-1.35-.65.15-2.95" fill="#fff"/><path d="m34.15 26.1 2.7 4.15 10.3 4q-.6.35-1.1.8l-9.85-3.5-4-5.25 1.95-.2M16.7 17.25l.8-.1 8.95 18v10.3l-1.2-.8.4-7.05-4.95-11.7-4-8.65" fill="#feef0a"/><path d="m20.05 4.9 14.1 21.2-1.95.2-2.5-3.25L19 5.6l1.05-.7m-6.9 4.8.5-.35 3.85 7.8-.8.1-3.55-7.55" fill="#f80"/><path d="m45.65 32.8-8.3-3.4-9.45-14.15 10.65 6.45q6.2 4.95 7.1 11.1M24.4 43.55Q16.8 39.1 13.2 27.8q-1.4-8.8 1.55-13.2l9.65 22.7v6.25" fill="#bf8ea5"/><path d="m47.15 33.45-1.5-.65q-.9-6.15-7.1-11.1L27.9 15.25l-6.35-10.3 10.25 7 6.95 7.3q3 1.55 7.1 6.4 1.8 5.3 1.3 7.8M17.25 6.8 14.15 9l-.5.35-.5.35-.5.3 2.1 4.6Q11.8 19 13.2 27.8q3.6 11.3 11.2 15.75v3.3q-1.8-.9-3.6-1.7l-4.9-7.4q-5.1-6.45-12.7-10.4L1.7 8.6h1.85q5.65.85 13.7-1.8" fill="#925d7c"/><path d="m48.3 34.3-.4-.55-.75-.3q.5-2.5-1.3-7.8-4.1-4.85-7.1-6.4l-6.95-7.3 7.45 5 .2.2 6.65 6.7q2.1 5.85 2.2 10.45M1.7 8.6Q.8 8.75 0 6.55L6.75 0 18.2 1.3l-.95 5.5Q9.2 9.45 3.55 8.6H1.7m1.5 18.75q7.6 3.95 12.7 10.4l4.9 7.4q1.8.8 3.6 1.7v1.75l1.45 3.8-4.05-.55-12-12.05-5.4-.45-1.2-12" fill="#60354e"/><path d="m21.55 4.95-.45-.8.4-.3L40.7 16.3l7.35 6.4q3.2 8.25 2.3 14.25l-1.6-2.15q.5-4.45-2.5-12.2l-6.8-5.45-.2-.2-7.45-5-10.25-7M4.4 39.35l5.4.45 12 12.05 4.05.55.5 1.25-5.15-.4L9.25 41.4l-6.3-1 1.45-1.05" fill="#3d2031"/><path d="m48.75 34.8-.45-.5q-.1-4.6-2.2-10.45l-6.65-6.7 6.8 5.45q3 7.75 2.5 12.2" fill="#e7b5ae"/></g><g id="i"><use ffdec:characterId="29" height="34.85" transform="translate(41.95 30.55)" width="23" xlink:href="#u"/><use ffdec:characterId="31" height="55.8" transform="translate(11.3)" width="40.05" xlink:href="#v"/><use ffdec:characterId="32" height="28.85" transform="translate(0 29.45)" width="26.65" xlink:href="#w"/></g><g id="u" fill-rule="evenodd"><path d="m54.7 40.7.35-1.3q3.05 1.5 5.75 8.5l.65 2q-.75 5.25-2.4 7.85l-1.1.3.75-2.65q.4-3.35 0-5.15l-2.2-.05-2.5-.15-.15-4.6.85-4.75" fill="#ae86f8" transform="translate(-41.95 -30.55)"/><path d="m45.45 42.05 1.5-3.85-.65-1.3 2.05 1.1q.6 1.4 0 4.6l-.25.5-2.65-1.05m5.4 8.35 1.55-3.7q1.9-6.55 1.6-9.9l-2.85-2.5 1.35.45 2.65 1.45 6.25 7.6.35 2.65-.3 3.45-.65-2q-2.7-7-5.75-8.5l-.35 1.3-1.6 5.15-2.25 4.55" fill="#7557db" transform="translate(-41.95 -30.55)"/><path d="m61.95 41.4 2.5 4.05q1.6 6.55-1.75 12.2l-.1.2q-2.05 4.2-4 6.4-8.2 1.7-14.85.9-.95-4.55-1.4-11.4l-.05-.4 3.9-6.9.8-1.35-1.55-3.05 2.65 1.05.25-.5q.6-3.2 0-4.6l-2.05-1.1.65 1.3-1.5 3.85-1.2-2.35 1.35-1.85-1.7-3.3-1.95-.4v-1.8l1.45.4 1 .25.65 1.35.55.3 1.4.8 2.3 1.35q1.75 2.05.5 6.7-3.15 7.35-6.3 10 .1 5.95 1.35 9.75l1.95.25q5.6.4 12.35-1.55l2.95-7.05.15-.55.15-.55q.7-2.6.7-5.85l-.05-2.05-.95-1.4-.1-1h-.05v-2.1M43.4 30.95l5.3 1.1.75 1.7-6.05-1.4v-1.4" fill="#464660" transform="translate(-41.95 -30.55)"/><path d="M50.5 51.95q2.5-1.55 6-1.75l2.2.05q.4 1.8 0 5.15l-.75 2.65-.5.1q.65-3.3.8-6.35v-.95l-3.65.4q-2 .3-4.05 1l-.05-.3" fill="#0963a8" transform="translate(-41.95 -30.55)"/><path d="m48.7 32.05 3.65.7 2.95 1.6 6.65 7.05v2.1H62l.1 1 .05.8.1 3.35-.25 2.1q-.5 3.05-1.55 5.35l-1 1.8-.1.2-2.1.85-6.7.65-.4-.1-.25-8.3 1.6-4.2q2.05-6.5 1.9-9.9l-2.3-2.4-.6-.65-1.05-.3-.75-1.7m3.8 2.7-1.35-.45L54 36.8q.3 3.35-1.6 9.9l-1.55 3.7-.4.8.05.75.05.3.2 5.85.05.65v.15l6.65-.75.5-.1 1.1-.3q1.65-2.6 2.4-7.85l.3-3.45-.35-2.65-.15-1.1-6.3-7.15-2.45-.8" fill="#2c1b54" transform="translate(-41.95 -30.55)"/><path d="m50.55 59.6 6.7-.65 2.1-.85h.05l-1.15 3.4q-5.7 2-11.45 2l-1.95-.25q-1.25-3.8-1.35-9.75 3.15-2.65 6.3-10 1.25-4.65-.5-6.7L47 35.45l2.05.1q2.2.3 3.75 2.95l-3.5 12.45v9.1l.85-.5v.05h.4m.3-9.2 2.25-4.55 1.6-5.15-.85 4.75.15 4.6 2.5.15q-3.5.2-6 1.75l-.05-.75.4-.8m3.75.85 3.65-.4v.95l-2.6 3.25-4.85 3.7-.05-.65q1.65-1.05 3.3-3.4.6-1.35.55-3.45" fill="#fff" transform="translate(-41.95 -30.55)"/><path d="M58.25 51.8q-.15 3.05-.8 6.35l-6.65.75v-.15l4.85-3.7 2.6-3.25" fill="#0a99dd" transform="translate(-41.95 -30.55)"/><path d="m50.75 58.1-.2-5.85q2.05-.7 4.05-1 .05 2.1-.55 3.45-1.65 2.35-3.3 3.4" fill="#1affee" transform="translate(-41.95 -30.55)"/><path d="m51.1 34.7 2.3 2.4q.15 3.4-1.9 9.9l-1.6 4.2.25 8.3v.05l-.85.5v-9.1l3.5-12.45q-1.55-2.65-3.75-2.95l-2.05-.1-1.4-.8q1.1-1 4.1-.5l1.4.55m8.35 23.2 1-1.8q1.05-2.3 1.55-5.35l.4 3.05-.15.55-.15.55-2.95 7.05Q52.4 63.9 46.8 63.5q5.75 0 11.45-2l1.15-3.4.05-.2" fill="#b4a7d2" transform="translate(-41.95 -30.55)"/><path d="M41.95 32.35v-1.8l1.45.4v1.8l-1.45-.4" fill="#4c6d72" transform="translate(-41.95 -30.55)"/><path d="m46.2 46.45-2.75-5.65.8-1.1 1.2 2.35L47 45.1l-.8 1.35" fill="#bf4f04" transform="translate(-41.95 -30.55)"/><path d="m49.45 33.75 1.05.3.6.65-1.4-.55q-3-.5-4.1.5l-.55-.3L44.4 33l-1-.25v-.4l6.05 1.4m12.55 17 .25-2.1-.1-3.35.95 2.65q0 3.25-.7 5.85l-.4-3.05" fill="#78779b" transform="translate(-41.95 -30.55)"/><path d="m62.15 45.3-.05-.8.95 1.4.05 2.05-.95-2.65m-.75-1.5-6.25-7.6-2.65-1.45 2.45.8 6.3 7.15.15 1.1" fill="#e7b5ae" transform="translate(-41.95 -30.55)"/></g><g id="K" fill-rule="evenodd"><path d="m12.05 37.2 3.4-7.4.3-3.5 4 5.25 4.8-2.9 2.85-.25-1.4 9.9-6.85 1.3-7.1-2.4" fill="#fff"/><path d="m15.75 26.3.1-1.1 10.65.5 3.4 4.35-1.1 7.7-2.8.55 1.4-9.9-2.85.25-4.8 2.9-4-5.25" fill="#a9c5c9"/><path d="m26.5 25.7 4.05.2-.3 3.55.15 6-.05 2-1.55.3 1.1-7.7-3.4-4.35" fill="#738e92"/><path d="m12.05 37.2-.9-.3 3.1-7.25.75-4.5.85.05-.1 1.1-.3 3.5-3.4 7.4M31 25.9l1.2.05-.1 11.15-1.75.35.05-2 .6-9.55" fill="#4c6d72"/><path d="M30.55 25.9H31l-.6 9.55-.15-6 .3-3.55" fill="#e7b5ae"/><path d="m23.9 12.7.2.35.45.75 1.8 3.1q-.35 1.45-2.05 3.45-2.9 3.2-5.5 4.7l-.5.2-2.1-4.2q-.95-2.9-.95-4.85l2.9-4.4.35-.35.9-1.35.35-.4 1.15-1.3 2.5 3.4.5.9m-5.25 13.5 5.1-4.1.75.4-.05.45-.05.25-.55-.4-5.1 4.25-.35.25-.65-1.2-2.35-4.35-.05-.5.6.25 2.55 4.85.15-.15m5.2 1.75-.1.05q-2.8 3-5.1 3.95l-3-4.45-.1-1.3 1.65 2.65 1.55 2.5 5.25-4.7-.15 1.3m1.75-10.6.15-.25-.8-1.35-3.5-5.9-.6-.55-1.25 1.45-.35.35L17 14.45l-1.05 1.5-.3.45 1.25 4.75 1.25 2.55.5 1.1.1-.1q3.5-3 6.85-7.35" fill="#bf4f04"/><path d="m24.95 15.75-.7.25-3.6-5.3.2-1.4.6.55 3.5 5.9m-6.2 7.35 3.3-2.8 2.7-2.95h.85q-3.35 4.35-6.85 7.35v-1.6m5.65.3-.4 3.25-5.25 4.7V28l5.65-4.6" fill="#ff8400"/><path d="m24.95 15.75.8 1.35-.15.25h-.85l-2.7 2.95-3.3 2.8v-.35q2.6-2 5.4-5.4-1.2-3.6-3.6-5.75l-.1-.1.2-.8 3.6 5.3.7-.25m-6.8 7.95-1.25-2.55-1.25-4.75.3-.45.1.65q.85 3.25 2.35 5.95l-.25 1.15M17 14.45l2.25-3.35.35-.35-.25 1.75-1.6 2.05-.75-.1m7.4 8.75v.2L18.75 28v-.95l5.1-4.25.55.4m-9-1.45 2.35 4.35-.55 2.75-1.65-2.65-.15-4.45" fill="#feef0a"/><path d="m14.8 15.95 1.4-2.4.9-1.35-.45-3.2-1.45-1.8-.1-1.1 4-2.6-.7 1.4L16.15 6q-.25 1.05.9 2.05l.45.4.65 3.35-2.9 4.4q0 1.95.95 4.85l2.1 4.2.5-.2-.15 1.15-.15.15-2.55-4.85-.6-.25V21l-1-4.35.45-.7m9.3-2.9Q25.45 12 26.15 8.9l3.4-1.3q2.55-1.6 3-2.45.8-1.2.6-1.85l.8.7q.3 1.35-2.2 3.5-2.3 1.7-4.9 2.15-.95 2.6-2.3 4.15l-.45-.75m14.25-3.2.25 3.5-4.25 2.3q-3 1.75-5.35 2.1l-.15.05h-.8l-.2-.45q5.35-2.4 10.5-7.5m-17.7.85-.2.8-.15-.15-.95 1.15.25-1.75 1.25-1.45-.2 1.4m-1.9 12.05v1.95l-.1.1-.5-1.1.25-1.15.2.3.15-.1m-2.8-6.8 1.05-1.5.75.1-1.7 2.05-.1-.65m2.8 11.1v4.3l-1.55-2.5.55-2.75.65 1.2.35-.25m8.35.05 1.5-.65 2.05-2.8 5.25-2-5.5 3.15-.95 1.85-2 .95v-.05l-.35-.45m-7.15-14.55-1.65 3.4-.1.2h4.05l-.05-1.2 1 1.75H18l1.1 5.2-.25.2-.5-1.25-.7-3.85h-.95l-.1-.25 3.35-4.2M10.1 16.4l-.05-.1 1.6-3.95.6-.65-.25 3.4 2.1.65-.3.45.3 1.2-4-1m1.6 5 .55.65.75 3.4h-.25l-1.05-2.2V21.4" fill="#fff"/><path d="M18.3 15.95q1.75-1.45 3.4-1.8l.5.8.05 1.2H18.2l.1-.2m.05 4.9L16.7 17h.95l.7 3.85" fill="#ff6f46"/><path d="m19.95 12.55.45-.6 1.3 2.2q-1.65.35-3.4 1.8l1.65-3.4m2.8 5.35-3.05 3.3q-1.35-2.95-.4-3.8 1.85-.6 3.45.5" fill="#ff3c1b"/><path d="m23.2 16.7.25.4-.7.8q-1.6-1.1-3.45-.5-.95.85.4 3.8l-.6.7-1.1-5.2h5.2" fill="#b9270f"/><path d="m20.45 11.5.1.1q2.4 2.15 3.6 5.75-2.8 3.4-5.4 5.4l-.15.1-.2-.3q-1.5-2.7-2.35-5.95l1.7-2.05 1.6-2.05.95-1.15.15.15m1.25 2.65-1.3-2.2-.45.6-3.35 4.2.1.25 1.65 3.85.5 1.25.25-.2.6-.7 3.05-3.3.7-.8-.25-.4-1-1.75-.5-.8" fill="#791608"/><path d="m13.45 8.85.7-.6v1.4l-1.9 2.05-.6.65-1.6 3.95.05.1 2.7 5.25.65 3.25L15 26.1v-4.4l-.9-4.3-.3-1.2.3-.45.3-.4.4.6-.45.7 1 4.35v.25l.05.5.15 4.45.1 1.3h-1l-1.45-1.2-.15-.8-.05-.05-.75-3.4-.55-.65-.2-.25-.75-1.2q-1-1.8-1.7-4.3l2.3-4.8 2.1-2m11.1 13.7.35-1.05 2.55-3.7-.05-.15-2.05-3.95.85-1.8L32.85 8l5.25-1.55v.8l-5.45 1.6q-3.1 2.45-6 3.35l-.55 1.55 1.75 3.6.2.45-.95 1.85-1.85 2.1-.7 5.9.6-.3 3.3-1.6 1.55-2.6 9.1-3.35.05.7-2.15.75-1.1.4-5.25 2-2.05 2.8-1.5.65-.55.3-.9.4-1.8.2v-.05l.15-1.3.4-3.25v-.2l.05-.25.1-.4" fill="#09868c"/><path d="M14.15 9.65V11l.85 1.25.7.2v1.1l-1.3 1.8-.3.4-2.1-.65.25-3.4 1.9-2.05m13.7 7.7-1.75-3.6.55-1.55q2.9-.9 6-3.35l5.45-1.6.25 2.6q-5.15 5.1-10.5 7.5m.2.45h.8l-3.05 5.35-.65 4.2-.6.3.7-5.9 1.85-2.1.95-1.85" fill="#5cffd7"/><path d="m38.6 13.35.5 6.45-9.1 3.35-1.55 2.6-3.3 1.6.65-4.2 3.05-5.35.15-.05q2.35-.35 5.35-2.1l4.25-2.3M10.1 16.4l4 1 .9 4.3v4.4l-1.55-1.2-.65-3.25-2.7-5.25" fill="#1dbec5"/><path d="M21.9 1.85q-2.35.75-4.75 1.6l-3 2.1 3.4-4.45 4.35.75m-5.7 11.7V12.1l-.35-.05-1.25-1.15.8.3-.2-4L16.65 9l.45 3.2-.9 1.35M33.15 3.3v-.2l-1.25-.5-.2-.5 1.05.25L37.9 4.7l.2 1.75L32.85 8l-6.65 3.9-.85 1.8 2.05 3.95.05.15-2.55 3.7-.35 1.05-.05-.05-.75-.4-5.1 4.1.15-1.15q2.6-1.5 5.5-4.7 1.7-2 2.05-3.45l-1.8-3.1q1.35-1.55 2.3-4.15 2.6-.45 4.9-2.15 2.5-2.15 2.2-3.5l-.8-.7m2.75 18.35 1.1-.4-3.4 3.6-5.95 3.05-.2-.3 2-.95.95-1.85 5.5-3.15" fill="#b4a7d2"/><path d="m17.55 1.1-3.4 4.45 3-2.1q2.4-.85 4.75-1.6L27.25 0l7.55 1.8 3.1 2.3v.6l-5.15-2.35-1.05-.25.2.5 1.25.5v.2q.2.65-.6 1.85-.45.85-3 2.45l-3.4 1.3q-.7 3.1-2.05 4.15l-.2-.35 1.8-4q1.7-.55 3.35-1.5L31 5.8l.5-.4.05-.1-.3-3.35-.8-.2-2.5-.7-6.85 1.8-.8.2-.95.25-.25.2-4 2.6.1 1.1.2 4-.8-.3 1.25 1.15.35.05v1.45l-1.4 2.4-.4-.6 1.3-1.8v-1.1l-.7-.2-.85-1.25V8.25l-.7.6.4-4L16.9 1l.65.1m14.5 2L32 4.65l.55-.8-.5-.75m7 20.15v1.3l-6.8 4.35-1.5-.25-3.15.7-1.05-1.95.55-.3.35.45v.05l.2.3.5.8 4.9-1.85 6-3.6M13.2 26.3h-1.3l-1.15-3.05v-3.3l.75 1.2.2.25v1.85l1.05 2.2H13l.05.05.15.8m4.95-14.5-.65-3.35-.45-.4q-1.15-1-.9-2.05l2.25-1.1-.25.45q-1.15.4-1.5 1.05l1.25 1.9.6 3.15-.35.35" fill="#464660"/><path d="m19.1 3.5.25-.2.95-.25-.45 4.8-1 1.1.55 1.15-.9 1.35-.6-3.15-1.25-1.9q.35-.65 1.5-1.05l.25-.45.7-1.4m12.95-.4.5.75-.55.8.05-1.55m7.1 17.4.05.25-.15 2.5-6 3.6-4.9 1.85-.5-.8 5.95-3.05 3.4-3.6 2.15-.75" fill="#78779b"/><path d="m21.1 2.85 6.85-1.8 2.5.7L31 5.8l-1.95 1.4-.05-.7q-4.65 3.35-8.4 1.2v-.05l.5-4.8" fill="#738e92"/><path d="m20.3 3.05.8-.2-.5 4.8h-.1l-.05.15-.95 1.15.25.75-.35.4-.55-1.15 1-1.1.45-4.8" fill="#4c6d72"/><path d="M29.05 7.2q-1.65.95-3.35 1.5l-1.8 4-.5-.9-2.5-3.4-1.15 1.3-.25-.75.95-1.15.15-.1q3.75 2.15 8.4-1.2l.05.7" fill="#a9c5c9"/><path d="m30.45 1.75.8.2.3 3.35-.05.1-.5.4-.55-4.05" fill="#e7b5ae"/><path d="m13.55 43.65-1.85-2.9 1.1-2.95 2.35-.5.4.4q-1.9-.4-2.75 3.1l.75 2.85m1.2.4 3.7-2 .45-2.25-2.7-2.7v-.95h.15l3.75 3.35-.65 3.45-5.1 1.8-.1-.45.5-.25M4.2 45.9l1.45-1.65.3-.15-.4 2q-.75.3-1.55.65l.2-.85m25.15.25 2.45 2.25-1.7 2.65-.15-.1v-.1q.2-2.1-.6-4.7" fill="#0a99dd"/><path d="m12.4 33.5-1.1-.15-.1-.05-3.1 4 .35 1.05.85 2.8 2.1-5.6 1.3-.4-.55-1.05.2-.35.45.45.05.1.3.7 3.5-1.15Q19 35 20.85 36.6l6.2-4.05 5.65.4L35.3 38l-1.5 3.3-.75-1.5 1.1-1.7-2.05-3.7h-.75l-4-.15h-.2l-5.65 2.9 1.25 1.2q0 2-.8 4.5l-.05.1-.35 1h1.95l6.5-5.5 2.5.2.2.45h-2.15l-.4.35-.2.15-4.9 3.8-.25.2-1.05.8H21.4Q17 46.8 13 47.8l-2.7-3.5-.5-.6-.5-.65-.25-.3-.25-.3.3-.8-.9-1.4-.15-.5-.4-1.25-.55-1.7 3.65-4.8 2.1.25-.45 1.25m4.3 1-4.8 1.65-2.35 6.55 3.9 4.6h.1l.75-.25q2.95-.95 5.95-2.55l.5-.3q1.45-3.5 1.2-5.35l-2.6-2.45-.75-.6-1.9-1.3" fill="#464660"/><path d="m16.2 36.15-3.55.7-1.7 4.9.2.3q1.3 1.95 2.75 2.85l.45-.15 5.1-1.8.65-3.45-3.75-3.35h-.15m-2.25 9.5-.25.1-3.4-3.95 2.05-5.4 3.75-.75.3-.1 1.8 1.55 2.55 2.15-.95 3.95-2.75 1.15-3.1 1.3" fill="#097cc1"/><path d="m12.4 33.5.45-1.25.85.5-.9 1.4v.05l-.45-.45.05-.25" fill="#4c6d72"/><path d="M21.95 42.85q.8-2.5.8-4.5l-1.25-1.2 5.65-2.9h.2l1.45 3.5-5.85 5.1h-1m-9.8-8.75.55 1.05-1.3.4-2.1 5.6-.85-2.8 3.7-4.25m3 3.2-2.35.5-1.1 2.95 1.85 2.9-2-2.35-.4.75-.2-.3 1.7-4.9 3.55-.7v.95l2.7 2.7-.45 2.25-3.7 2 2.25-1.8.8-2.25-2.05-2.85-.6.15m.95-1.65-3.75.75-2.05 5.4 3.4 3.95.25-.1-.4 1.65h-.1l-3.9-4.6 2.35-6.55 4.8-1.65-.6 1.15m13.25 10.5q.8 2.6.6 4.7h-.15l-.95-3-1.15 1.65-.3-.2 1.45-3.6.5.45" fill="#fff"/><path d="M8.45 38.35 8.1 37.3l3.1-4 .1.05 1.1.15-.05.25-.2.35-3.7 4.25m24.25.75-.2-.45-2.5-.2-6.5 5.5h-1.95l.35-1 .05-.1h1l5.85-5.1.05.25 3.7-.65-1.2-2.95h.75l2.05 3.7-1.1 1.7-.35-.7m-15.65 5.25 2.75-1.15.95-3.95-2.55-2.15.4-1.3.75.6 2.2 2.55-1.3 5.15-3.2 1.6v-1.35" fill="#b4a7d2"/><path d="m15.15 37.3.6-.15L17.8 40l-.8 2.25-2.25 1.8-.5.25.1.45-.45.15q-1.45-.9-2.75-2.85l.4-.75 2 2.35-.75-2.85q.85-3.5 2.75-3.1l-.4-.4M4.2 45.9l.15-1.15.1-.05 1.2-.45L4.2 45.9m25.6 4.95-2.1-1.35 1.15-1.65.95 3" fill="#1affee"/><path d="m27.35 34.25 4 .15 1.2 2.95-3.7.65-.05-.25-1.45-3.5m-11.25 1.4.6-1.15 1.9 1.3-.4 1.3-1.8-1.55-.3.1M13.55 47.3l.4-1.65 3.1-1.3v1.35l-2.75 1.35-.75.25" fill="#78779b"/><path d="m19.35 36.4 2.6 2.45q.25 1.85-1.2 5.35l-.5.3q-3 1.6-5.95 2.55l2.75-1.35 3.2-1.6 1.3-5.15-2.2-2.55" fill="#e7b5ae"/><path d="m5.65 44.25-1.2.45-.1.05-.15 1.15-.2.85q.8-.35 1.55-.65l.4-2-.3.15m-.4 2.55-1.9.5.6-3.05 1.85-.75.85-.35-.5 3.4-.9.25m22.95-.7.45-1.1q2.5 1.55 3.8 3.45L30.2 52.2l-3.4-2.85 1.4-3.25m1.75 4.85.15.1 1.7-2.65-2.45-2.25-.5-.45-1.45 3.6.3.2 2.1 1.35.15.1" fill="#0963a8"/><path d="m3.75 43.6.05-.15 1.35-1.2.65 1.25-1.85.75-.6 3.05 1.9-.5-.05 1-2.85.35 1.4-4.55m28.7 4.85 2.1 4.55-2.5.15-6.7-1.75-.15-4.8q2.1-.95 3-.5l-1.4 3.25 3.4 2.85 2.25-3.75" fill="#f87856"/><path d="m5.2 47.8.05-1 .9-.25.5-3.4-.85.35-.65-1.25 1.7-1.45L8.3 44 6 47.7l-.8.1M34.55 53l-2.1-4.55q-1.3-1.9-3.8-3.45l-.45 1.1q-.9-.45-3 .5v-.45l5.3-3.75 5.35 10.5-1.3.1" fill="#ba553b"/><path d="m8.05 39.75.15.5.9 1.4-.3.8.25.3L8.3 44l-1.45-3.2 1.2-1.05m17 3.65 4.9-3.8 6.6 13.3h-.7L30.5 42.4l-5.3 3.75-.15-2.75" fill="#7f3624"/><path d="m7.65 38.5.4 1.25-1.2 1.05-1.7 1.45-1.35 1.2-.1.1.05.05-1.4 4.55 2.85-.35.8-.1L8.3 44l.75-1.25.25.3-.65 1.5-.5 1.1L6.2 48.4l-4.5.2 1.65-4.75.15-.5-.3-.4 4.45-4.45m17.15 5.1.25-.2.15 2.75v.45l.15 4.8 6.7 1.75 2.5-.15 1.3-.1h.7l-6.6-13.3.2-.15 1 1.7 1.9 3.05 4.4 9.3-7 .45-6.1-2.3.3-5.3.15-2.75" fill="#5a2518"/><path d="m9.8 43.7.5.6-3.05 5.9L0 51q.2-2.85 2.2-7.15l1-.9.3.4-.15.5-.55.25-2 5.6-.2.5 6.25-.7 2.95-5.8m13.4.7h.45l-.05 2.2-.35 6.3 7.8 1.65h7.25l-3.2-7.2-3.85-8.25h1.45l.35.7.75 1.5 6.25 14.5-8.25-.5-9.35-1.95.75-8.95" fill="#bf4f04"/><path d="m9.3 43.05.5.65-2.95 5.8-6.25.7.2-.5 6-.7 1.8-3.85.05-.6.65-1.5m14.35 1.35h.1l1.05-.8-.15 2.75-1.05.25.05-2.2m6.5-4.95.4-.35h.7l3.85 8.25-3.6-6.5-.35.3-1-1.7" fill="#ff8400"/><path d="m31.15 41.15.35-.3 3.6 6.5 3.2 7.2h-7.25l-7.8-1.65.35-6.3 1.05-.25-.3 5.3 6.1 2.3 7-.45-4.4-9.3-1.9-3.05m-27.8 2.7L1.7 48.6l4.5-.2 1.95-2.75.5-1.1-.05.6L6.8 49l-6 .7 2-5.6.55-.25" fill="#feef0a"/></g><g id="w" fill-rule="evenodd"><path d="m.8 49 3.75-7.35q3.8-2.8 8.6-5.6l-1.4 2Q8.9 39.7 5.2 42.95L1.85 50.2.8 49" fill="#2c1b54" transform="translate(0 -29.45)"/><path d="M23.95 33.75 23 33.5l-2.85 3.65-1.55.65-3.95 3.4-2.2 4.85L9.65 55l-1.4 3.2-.05.1-1.7-.15-1.75-.85L0 53.45.8 49l1.05 1.2.35.35.3.4.35.4.1.05 2.7 1.65.4.25 1.65-5.05.3-.9.55-3.2 1.55-3.2 1.65-2.9 1.4-2 .15-.05 1.1-.7q4.1-1.95 6.6-2.45l.7-.05 3.95-2.75-.45 1.25-1.7 1.45.9-.05-.45 1.05M18 36.65l1.5-.75 1.2-1.55-4.1 1.4-3.3 1.4-.2.1-1.8 2.4-.15.25Q10.1 41.75 9 44.45l-.5 3.3-2 6.25-2.3-1.2-2.55-2v2.25l5.15 3.6.6.4L11 47.1q1.1-5.9 5.2-9.05l1.35-1.2q.2-.15.45-.2" fill="#464660" transform="translate(0 -29.45)"/><path d="M7.7 48.25 6.05 53.3Q5 49.15 5.4 46.9l2.3 1.35" fill="#1ba2df" transform="translate(0 -29.45)"/><path d="m5.65 53.05-2.7-1.65L4 49l1.65 4.05" fill="#1affee" transform="translate(0 -29.45)"/><path d="m6.8 56.65-5.15-3.6V50.8l2.55 2L6.5 54l2-6.25.5-3.3q1.1-2.7 2.15-4.55l.15-.25 3.05-1.7-2.9 5.05-1 3.85-3.65 9.8m-.75-3.35-.4-.25L4 49l1-2.35.4.25q-.4 2.25.65 6.4M2.2 50.55l-.35-.35 3.35-7.25q3.7-3.25 6.55-4.9l-1.65 2.9-3.3 1.3-1.25 1.1-3.35 7.2" fill="#fff" transform="translate(0 -29.45)"/><path d="m8 47.35-.3.9-2.3-1.35-.4-.25L4 49l-1.05 2.4-.1-.05-.35-.4 2.15-4.75L8 47.35" fill="#0963a8" transform="translate(0 -29.45)"/><path d="m10.1 40.95-1.55 3.2-.55 3.2-3.35-1.15-2.15 4.75-.3-.4 3.35-7.2 1.25-1.1 3.3-1.3" fill="#b286f8" transform="translate(0 -29.45)"/><path d="m16.6 35.75 1.4.9q-.25.05-.45.2l-1.35 1.2Q12.1 41.2 11 47.1l-3.6 9.95-.6-.4 3.65-9.8 1-3.85 2.9-5.05-3.05 1.7 1.8-2.4.2-.1 3.3-1.4" fill="#b4a7d2" transform="translate(0 -29.45)"/><path d="m25.65 30.05 1-.6-1.05 3.6-.05.1L25 34.2l-.95-.45h-.1l.45-1.05.8-1.4.45-1.25" fill="#4c6d72" transform="translate(0 -29.45)"/><path d="m25.2 31.3-.8 1.4-.9.05 1.7-1.45m-8.6 4.45 4.1-1.4-1.2 1.55-1.5.75-1.4-.9" fill="#78779b" transform="translate(0 -29.45)"/></g><g id="L" fill-rule="evenodd"><path d="m28.75 19.15 1 1.3-2.55 1.8 1.55-3.1m6.05-.95-1.9 3.5-.85-1.2 2.75-2.3M17.25 6.25l.1 4.7-4.2-.4 4.1-4.3" fill="#1dfe0a"/><path d="m32.05 22.8-1.5-2.55 5.05-4.05-.6 1.6-.2.4-2.75 2.3.85 1.2-.85 1.1m-14.7-11.1v.25l-.1.15-1.2 1.45-3.25-1.2.25 4.1-.95.7.3-5.75 4.95.3" fill="#18950d"/><path d="m27.05 22.75 3.2-1.85 1.6 2.2-.4.4-4.4-.75m-11-9.2-3 2.9-.25-4.1 3.25 1.2" fill="#70ff00"/><path d="m17.55 3.15.1.15.3 8.65q-2.35 3.4-5.05 5.25-1.2.8-2.15 1l-.65.05v-.2l1.65-7.7 5.4-7.85.4.65m9.65 19.1-.2.45.05.05 4.4.75.4-.4.2-.3.85-1.1 1.9-3.5.2-.4.6-1.6.25-.7q-3.55 1.85-7.1 3.65l-1.55 3.1m4.65 1.5q-3.4.3-5.55-.7l2.1-4.25q4.75-3.15 8.15-4.25-.65 3.95-4.5 9l-.2.2M17.35 11.7v-.75l-.1-4.7-.1-2.75-4.9 7.05-1.4 7.05 1.25-.45.95-.7 3-2.9 1.2-1.45.1-.15v-.25" fill="#136c0a"/><path d="m47.7 20.05-7.65 5.1-.5.35.25-1.55 8.55-5.7-.65 1.8m-13 15.15-1.05 4.6-1 .45 1.3-5.35.25-.2.55.35-.05.15m-23.95-17q.95-.2 2.15-1 2.7-1.85 5.05-5.25l-.3-8.65-.1-.15 1.9-2.1.35 4.75v.1l-1.35 1.15v4.7q-1.4 2.3-3.2 3.9h-.05l-1.7 1.6.1 1.35-3.1 1.95.25-2.35m-8.6 14.35q2.25-4.7 5.45-8.15l3.4-3.65q3.7-1.75 7.25-4.5l.2-.15q.5.95.4 2.05l-.05.2.35.15q2.95 1.15 3.85 3.65-2.6 3.9-8.15 6.45Q8 32.15 2.15 32.55m38.2-21.35-2.8 2.4-.1.3-.85 2.7q-1.35 3.25-4 7.35l-3.95.25q-1.6-.1-2.8-.8l-.5.3-.25-.2 3.1-6q4.1-2.6 8.6-4.65l3.55-1.65M25.6 16q1.1.8 1.75 1.9-.8.95-1.5 2.45l-1.05.85-.95.9q-.55-1.5-1.55-2.45L25.6 16m1.45 6.75L27 22.7l.2-.45 2.55-1.8-1-1.3q3.55-1.8 7.1-3.65l-.25.7-5.05 4.05 1.5 2.55-.2.3-1.6-2.2-3.2 1.85m4.8 1 .2-.2q3.85-5.05 4.5-9-3.4 1.1-8.15 4.25l-2.1 4.25q2.15 1 5.55.7m-14.5-12.8v.75l-4.95-.3-.3 5.75-1.25.45 1.4-7.05 4.9-7.05.1 2.75-4.1 4.3 4.2.4m-8.4 7.55.15.7-.1 2.9-.75.75.7-4.35m5.65 16.75.85 1.25-.15.05-.7 1.15-.9-1.55.3-.9h.6m.05 5.7-.5-2.3.9.85.4.3.35 2.1-1.15-.95m.85-2.8.25-.8.3.05 2.65 4.25-1.55-1.15-1.65-2.35m11.1-6.55.7-1.25 2.25-1.55-.75 1.45-2.2 1.35m-7.45 11.3.2-.2q1.8-1.7 5.3-3.35 4.5-.25 3.1 3.6l-.35 1.15-3.7 3.15-4.85-2.8-.55-.8.85-.75M38.3 25.85l-4.75 6.2-6.15 5.45h-.05l-2.85-1.55 4-4.15 1.9-2.9h2.45l5.45-3.05M26.2 41.3l.45.3q-1.95 1.85-3.95 2.7.75.15 2.35-.65l2.1-1.8.5-.25q.25-.7-.9-.7-.65.1-.55.4" fill="#fff"/><path d="m13.6 18.6-.1-1.35 1.7-1.6h.05q1.8-1.6 3.2-3.9v-4.7L19.8 5.9l.15 2.25-1.2 1.05v2.95l-2.95 3.6.35 1.15-.1.05-.3.25-2.15 1.4m-11 14.85-.75-.25.3-.65q5.85-.4 12.7-3.95 5.55-2.55 8.15-6.45.45 1.1.45 2.5-4.25 6.2-13.4 9.75l-7.45-.95m34-16.85.85-2.7.1-.3 2.8-2.4.25-.15-2.45 4.6-1.55.95m-11.25 7.1.5-.3q1.2.7 2.8.8l-.45.45-.2-.05-2.65-.9M15.8 41.9l-.35-2.1L16.7 41v1.05l.65 1.1-1.55-1.25m22.5-16.05.5-.2-1.95 5.15-3.35 3.75-.4 1.75-3.5 2.4-.05.05-2.15-1.25 6.15-5.45 4.75-6.2" fill="#78779b"/><path d="m32.65 25.4-.25 1.05-1 .85q-1.25.25-3.6 2.05l.25-.45 1.05-3.5q1.7.2 3.55 0m-22.6 9q9.15-3.55 13.4-9.75l-.1 1.3q-.7 3.35-1.95 5.35l-2.05.5-1.55 2.35-4.1.65h-.2v.05l-3.45-.45M36.6 16.6l1.55-.95-5.45 8.95q-2.4.4-4.5.05l.45-.45 3.95-.25q2.65-4.1 4-7.35M19.95 8.15l.35 5.15-4.15 3.6-.35-1.15 2.95-3.6V9.2l1.2-1.05M9.1 19.2l.3 1.3.35.85-.75.75.1-2.9m15 15.95.2-.55h-.55l.65-1.1 1.7-1 .5-.9 2.2-1.35-.3.5-4.4 4.4m9 1.15L32 40.6l-3.1 2.1.7-3.8v-.2l3.5-2.4" fill="#b4a7d2"/><path d="m33.65 24.85-.15.2-.15.25-.7.1q-1.85.2-3.55 0l-.45-.05q-2-.25-3.8-1.05l-.45-.2.5-1.5.95-2.25q.7-1.5 1.5-2.45l.25-.8q8.65-5.25 14.35-7.15-4 8.3-8.3 14.9M31.4 27.3l-.4.55-.1.2-.25.4-.25.45-1.9 2.9-4 4.15 2.85 1.55h.05l2.15 1.25.05.15-.7 3.8 3.1-2.1.5 1.15-3.9 1.9.25-.3-.7.1.6-4.35-1.6-1.15-3.45-1.85.2-.5.2-.45 4.4-4.4.3-.5.75-1.45-2.25 1.55.5-1q2.35-1.8 3.6-2.05m-20.65-9.1-.25 2.35 3.1-1.95 2.15-1.4.3-.25.1-.05 4.15-3.6-.35-5.15-.15-2.25v-.1l-.35-4.75-1.9 2.1-.4-.65.05-.05L19.65 0q1.6 5.5 1.3 13.4l-.2.25-1.9 2-.4.45-.2.15Q14.7 19 11 20.75L7.6 24.4q-3.2 3.45-5.45 8.15l-.3.65.75.25q4 1.25 10.75 1.8l-.25.85-1.6-.05Q4.65 35.7 0 33.7q3.05-7.4 7.05-10.75.1-5.25.85-8.35l1.05 3.9-.7 4.35.75-.75.75-.75-.35-.85.5-2.85.2.4v.2l.65-.05m27.4-2.55 2.45-4.6-.25.15-3.55 1.65q-4.5 2.05-8.6 4.65l-3.1 6 .25.2 2.65.9.2.05q2.1.35 4.5-.05l5.45-8.95m-23.5 25.3 1.15.95 1.55 1.25.45.75.15.85-.85-1-2.6-1.55.15-1.25" fill="#464660"/><path d="m9.1 19.2-.15-.7-1.05-3.9.1-.8 1.9 3.85-.5 2.85-.3-1.3" fill="#1c1931"/><path d="m40.05 25.15-1.85 6-3.5 4.05.05-.15-.55-.35 3.05-3.3 2.1-6.55-.1-.35-6.35 3.35-2 .2.1-.2 18.05-11.3-.7 1.7-8.55 5.7-.25 1.55.5-.35m-21.2-9.5 1.9-2q3 .8 4.85 2.35l-3.3 3.65q-1.1-1.1-2.7-1.6 0-1.35-.75-2.4m5.95 5.55.1 1.4-.5 1.5.45.2-.7 4.15-1.9 3.85-1.55.55-1.2 1.45h-.15l-.85-.1 1.75-2.2 1.4-.25q1.1-1.1 2.25-3.8.5-2.3.15-5.15l-.2-.7.95-.9M13.7 36.15l.9 1.55.7-1.15h.2l5 .25 1.6.7-.45.8-.45-1-5.6-.45-.65 1.9-1.6-1.65.35-.95m0 3.2-.65-1.85.75.75-.1 1.1" fill="#feef0a"/><path d="m35.45 38.85 1.05-.55 3.7-6.35 4.55-4.3 2.05-5.35.9-2.25.65-1.8.7-1.7L31 27.85l.4-.55 1-.85.25-1.05.7-.1.15-.25.15-.2 16.8-10.5-3.7 12.7-5.6 5.4-3.75 6.5-4.9 2.8-.5-1.15 1.1-4.3.4-1.75 3.35-3.75 1.95-5.15-.5.2-5.45 3.05H30.4l.25-.45 1.9.05 6.8-3.65-2.1 6.55-3.05 3.3-.25.2-1.3 5.35 1-.45 1.8-.95m-17-22.75.4-.45q.75 1.05.75 2.4 1.6.5 2.7 1.6 1 .95 1.55 2.45l.2.7q.35 2.85-.15 5.15-1.15 2.7-2.25 3.8l-1.4.25-1.75 2.2.85.1h.15l3.35.3L24 33l1.65-.75 3-6.9.45.05-1.05 3.5-.25.45-.5 1-.7 1.25-.5.9-1.7 1-.65 1.1h.55l-.2.55-.2.45-.2.5q-1.05 2.35-2.45 3.85l-.2.25-.1-.85-.2-1.75-4.7-.2-.3-.05-.25.8-.25.8-.2.55-.9-.85.5 2.3-.15 1.25-.75-.45-2.25-5.7 1.6.05.25-.85.15-.4.2-.05 4.1-.65 1.55-2.35 2.05-.5q1.25-2 1.95-5.35l.1-1.3q0-1.4-.45-2.5-.9-2.5-3.85-3.65l-.35-.15.05-.2q.1-1.1-.4-2.05m2.3-2.45.2-.25q2.95.55 5.5 2.5l1.15 1.2-.25.8q-.65-1.1-1.75-1.9-1.85-1.55-4.85-2.35m-6.15 21.6H14l-.3.9-.35.95 1.6 1.65.65-1.9 5.6.45.45 1 .45-.8 1.4-2.45-8.9.2m-.9 4.1.1-1.1-.75-.75.65 1.85" fill="#bf4f04"/><path d="m35.45 38.85 3.9-6.7 4.6-4.8 2.85-5.05-2.05 5.35-4.55 4.3-3.7 6.35-1.05.55m-22.1-3.6Q6.6 34.7 2.6 33.45l7.45.95 3.45.45-.15.4" fill="#e7b5ae"/><path d="m30.9 28.05 2-.2 6.35-3.35.1.35-6.8 3.65-1.9-.05.25-.4" fill="#ff8401"/><path d="m17.35 43.15-.65-1.1V41l.5.35-.05.7 1.15 1.6.55.8 4.85 2.8 3.7-3.15.75-.65.7-.1-.25.3q-2.55 3.2-5.05 4.75-2.8-1.35-5.4-3.4l-.2-.25-.15-.85-.45-.75m8.85-1.85q-.1-.3.55-.4 1.15 0 .9.7l-.5.25-2.1 1.8q-1.6.8-2.35.65 2-.85 3.95-2.7l-.45-.3" fill="#4c6d72"/><path d="m21.05 40.2.2-.25q1.4-1.5 2.45-3.85l3.45 1.85 1.6 1.15-.6 4.35-.75.65.35-1.15q1.4-3.85-3.1-3.6-3.5 1.65-5.3 3.35l1.7-2.5m-3.85 1.15 1.95 1.55-.85.75-1.15-1.6.05-.7" fill="#a9c5c9"/><path d="m46.8 22.3-2.85 5.05-4.6 4.8-3.9 6.7-1.8.95 1.05-4.6 3.5-4.05 1.85-6 7.65-5.1-.9 2.25m-22-1.1 1.05-.85-.95 2.25-.1-1.4m.05 3.1q1.8.8 3.8 1.05l-3 6.9L24 33l-1.15 1.6-3.35-.3 1.2-1.45 1.55-.55 1.9-3.85.7-4.15m-9.4 12.2-.85-1.25 8.9-.2-1.4 2.45-1.6-.7-5-.25-.05-.05" fill="#ff8400"/><path d="m16.05 37.4 4.7.2.2 1.75-2 2.55-.25-.25-2.65-4.25" fill="#0a99dd"/><path d="m15.45 39.8-.4-.3.2-.55 1.9 1.55 1.55 1.15.25.25 2-2.55.1.85-1.7 2.5-.2.2-1.95-1.55-.5-.35-1.25-1.2" fill="#0963a8"/><path d="m15.25 38.95.25-.8 1.65 2.35-1.9-1.55" fill="#1affee"/><path d="M23.2 37h-.05l-.2.25.85-2.05 4.55-4.45v.95l-.75.75-1.3 1.3-.8.85-1.8 1.9-.5.5" fill="#464660"/><path d="m23.75 37.45-.25-.15-.3-.3-.3 1.15 1.15.25 2.25-.25q.85-1.2 1.15-3l.15-2.7.75-.75v1.4q-.25 4.2-1.75 5.85h-4.4q-.4-.45.75-1.7l.2-.25h.05l.5-.5.35.25.5.2q.5 0 .8-.45l.25-1.05-.1-.85.8-.85.2.45.05.5-.3.2-.2.35.2.35q.15.2.35.2l.05.05q.05.45-.45 1.1-.6.8-1.25.8l-.5-.05v-.15l-.15-.3q-.05-.1-.25-.1l-.25.1-.05.2" fill="#791608"/><path d="m23.7 36.5 1.8-1.9.1.85-.25 1.05q-.3.45-.8.45l-.5-.2-.35-.25" fill="#a8230e"/><path d="m23.75 37.45-.05.2.1.3.25.15v.3l-1.15-.25.3-1.15.3.3.25.15m2.55-3.7 1.3-1.3-.15 2.7h-.3l-.2-.25-.35-.2h-.05l-.05-.5-.2-.45" fill="#ff3c1b"/><path d="m24.05 38.1-.25-.15-.1-.3.05-.2.05-.2.25-.1q.2 0 .25.1l.15.3v.15l-.15.25-.25.15m3.1-2.95v.1l-.2.35-.3.2h-.05q-.2 0-.35-.2l-.2-.35.2-.35.3-.2h.05l.35.2.2.25" fill="#fff"/><path d="M24.05 38.4v-.3l.25-.15.15-.25.5.05q.65 0 1.25-.8.5-.65.45-1.1v-.05l.3-.2.2-.35v-.1h.3q-.3 1.8-1.15 3l-2.25.25" fill="#ff6f46"/></g><g id="M" fill-rule="evenodd"><path d="M8.45 12.15v-.05q3.6-5.45 8.05-4.3 2.5 4.7 2.55 9.4l-2.15 2.7-3.8-1.25q-2.65-1.05-4.2-2.25l-.45-4.25" fill="#fff"/><path d="m11.8.7 5.45 3.85 3.4 6.65q1.2 6.9.9 11.75l-4.3 2.5-4.2-6.6-5.25-1-6.75-7.35L11.8.7M8.45 12.15l.45 4.25q1.55 1.2 4.2 2.25l3.8 1.25 2.15-2.7Q19 12.5 16.5 7.8q-4.45-1.15-8.05 4.3v.05" fill="#a9c5c9"/><path d="m17.25 4.55 2.6 1.85 5 14.5-3.3 2.05q.3-4.85-.9-11.75l-3.4-6.65" fill="#738e92"/><path d="m11.8.7.7-.7 8.4 6.05 4.7 14.4-.75.45-5-14.5-2.6-1.85L11.8.7m5.45 24.75L15.6 26.5l-2.3-5.8-5.3-.95-8-8.35 1.05-.9 6.75 7.35 5.25 1 4.2 6.6" fill="#4c6d72"/><path d="m24.6 29.85.15.95-2.1-.9-5.2-2.1-.05-1.8-.05-.95-.05-.8-.05-1.55-.15-2.8v-.2l3.15 1.75.75.4.55.3 1.75 1 1.3 6.7m-6.95-9.35-.2-.15.6 7.2 4.65 1.75 1 .35.5.2L22.95 24l-.1-.55-.3-.15-4.9-2.8" fill="#0963a8"/><path d="m18.05 27.55 2.4-1.45 2.25 3.2-4.65-1.75m4.5-4.25-2.1 1.3-2.8-4.1 4.9 2.8" fill="#1affee"/><path d="m23.7 29.65-2.9-4.2L22.95 24l1.25 5.85-.5-.2" fill="#0a99dd"/><path d="m30.9 11.25-2.05 5.2-2.05-2.75-2.65 4.3-.35-1.95q2.65-5.75 5.3-8.6l1.8 3.8M36 29.4q1.55.85 3.1 2.1l1.15 7.35-.15.15q-2.35-6.7-4.1-9.6m9.4 14.9-1.1 2.2-5.5-2.1-1.1.9-4.35.2-.3-.2-.1-.55 4.45-.45q-.2-.75 2.6-2.75l2.65-.85-1 .9 3.75 2.7M58 58.45l-.45 1.2-1.2-2.95q.25-2.3-.7-5.85l-7.05-5.3.6-1.55 6.95 4.65q2.3 5.2 1.85 9.8m-.65-11.85.2.9-4.7-3 4.5 2.1M34.45 7.5l1.4 1.6.95.85q4.25 4 8.35 9.8 3.95 8.3 4.3 20L46.3 41.8l-2.5-2.05v-4.5l-.2-.35.35-1.15-1-1.55-5.9-4.9-6.9.5-1.05-2.5.85-1.75-.65-4.15 4.8-12.2.35.3M24.6 29.85l-1.3-6.7-1.75-1 .2-1.85 3.5 1.45 3.8 13.05-.4-.2-4.05-4.75m-4.35-8.4L17.1 19.7v.2L15.35 18v-.4l5.4 2.25h.05l-.55 1.6m-2.9 3.6.05.95-2.05-.25v-.95l2 .25m.7 2.5-.6-7.2.2.15 2.8 4.1 2.1-1.3.3.15.1.55-2.15 1.45 2.9 4.2-1-.35-2.25-3.2-2.4 1.45m.3 6.45.15-1.6 3.9 1.55 1.15 2.4 6.85 6.75L18.35 34M45.8 45l7.55 6.95 1.5 6.6-.15.7-.2 1.2q-1.6 3.9-3.2 5 1.5-3.8-.95-9.5l-.6-1.25-5.65-4.95q-.1-2 1.7-4.75M31.95 59l-2.1-1.15q-2.1-2.7-1.7-7.55 1.8-3.8 3.7-4.15h.45q1.75.1 2.65 1.6l.05.3-4.65 4.3 1.25 5.05.35 1.6" fill="#fff"/><path d="m28.85 16.45-1.3 3.2 1.5 4.25-.75.9 1.8 5.35q1.7-1.45 5.25-1.05l.65.3q1.75 2.9 4.1 9.6l-3.8 3.25-4 .35-6.85-6.05-.55-2.3 5.75 2.5-1.4-6.2L26.5 22l-1.15-1.6-.8-.45-.4-1.95 2.65-4.3 2.05 2.75" fill="#c087f8"/><path d="m31.5 9.65-.6 1.6-1.8-3.8 2.4 2.2" fill="#7f5bde"/><path d="m32.15 8.05-.65 1.6-2.4-2.2q-2.65 2.85-5.3 8.6l.35 1.95.4 1.95-1-.45-1.3-3.1q3.15-7 6.3-10.5l3.6 2.15M43.05 40l.15.55-.55.15-2.65.85q-2.8 2-2.6 2.75l-4.45.45-.8-.35-.75-.35-.3-.25-.7-.7-6.85-6.75-1.15-2.4-3.9-1.55.1-.8 4.6 1.95.8 2.75 8.7 7.6 3.95-.4 2.95-2.45L43.05 40" fill="#2c1b54"/><path d="m32.15 8.05 1.4-2.4q10.5 5.3 18.65 16.05 3.4 7.6 1.3 19.5l4.7 3.35q1.45 4.95 2.45 11.15-1.55 3.95-3.35 5.6l-1.05-.95q-1.85 5.75-6.75 7.9l.65-5.6-.65-4.15-4.35 3.25V58.5l1.6-4.6-3.3-3.1v-1.15l.35-1.7.5-1.45 1.1-2.2.4-.65 1.05.7 1 .7 1.55-2.7-1.55.25-1.8.1-2.85-2.15-.15-.55-.15-.5v-4.45l-1.2-1.25-2.6-2.3q-1.55-1.25-3.1-2.1l-.65-.3q-3.55-.4-5.25 1.05l-1.8-5.35.75-.9-1.5-4.25 1.3-3.2 2.05-5.2.6-1.6.65-1.6m4.1 41.7L33.8 57.2l1.4 3.5q-2.15.65-5.2-1.05-3.35-2.75-3.75-9.35l2.2-3.2-2.3-1.05-5-3.55-3.25-3.3-1.45-2.2 1.05-5.9-.05-.05q-2.15-.55-3.45-2.3l.6-12.1q4.8.85 8.95 2.85l1 .45.8.45L26.5 22l2.75 8.55 1.4 6.2-5.75-2.5-1.7-.7-4.6-1.95-.1.8-.15 1.6-.4 3.65.25.2 4.15 3.75 7.35 4.1 2.45-.55v-.75l.8.35.1.55.3.2 2.25 1.35.45 2 .2.9M49.2 44l-.6 1.55 7.05 5.3q.95 3.55.7 5.85l1.2 2.95.45-1.2.95-2.6q.05-5.3-1.65-7.75l-7.8-4.85-.3.75m8.15 2.6-.2-.9-5.45-3.5-.4 1.3 1.55 1 4.7 3-.2-.9m-5-6.85q.8-7.25-1.1-16.55l-3.7-4.5q-7.15-7.45-13.1-11.2l-.35-.3-4.8 12.2.65 4.15-.85 1.75 1.05 2.5.5 1.35q1.7-1.1 5-.9 5.85 2.65 7.95 6.65l.2.35v4.5l2.5 2.05 6-1.75.05-.3m-30.8-17.6-.55-.3.35-1.75-.55-.25h-.05l-5.4-2.25v6.5l1.95.15.05.8-2-.25v3.65l9.75 4.5 3.55 1.65.4.2-3.8-13.05-3.5-1.45-.2 1.85m29.85 19.7-2 .5 1.5.65.5-1.15m3.45 16.7q.4-3.6-.35-7.2l-8.45-6.8-.25.45q-1.8 2.75-1.7 4.75l5.65 4.95.6 1.25q2.45 5.7.95 9.5 1.6-1.1 3.2-5l.2-1.2.15-.7M49.1 55.1l-1.1-.2-1 3.8-.25 1 3.4-3.55-1.05-1.05M35 48.05l-.05-.3q-.9-1.5-2.65-1.6h-.45q-1.9.35-3.7 4.15-.4 4.85 1.7 7.55l2.1 1.15.7.4q-1.05-3.85 2.05-9.25l.25-.65.3-.7-.25-.75" fill="#464660"/><path d="m36.8 9.95 5.75 5.15 1 .85 3.4 5.6q4.1 7.1 5.3 18.2l.05.3-6 1.75 3.15-2.05q-.35-11.7-4.3-20-4.1-5.8-8.35-9.8M22.65 29.9l2.1.9-.15-.95 4.05 4.75-3.55-1.65-2.45-3.05m-5.55-10 .15 2.8-1.9-2V18l1.75 1.9m14 23.9-10-5.95h-2.9l-.25-.2.4-3.65 12.05 9.1.7.7M47 58.7l2.1-3.6 1.05 1.05-3.4 3.55.25-1" fill="#78779b"/><path d="M58 58.45q.45-4.6-1.85-9.8L49.2 44l.3-.75 7.8 4.85q1.7 2.45 1.65 7.75l-.95 2.6M52.85 44.5l-1.55-1 .4-1.3 5.45 3.5.2.9-4.5-2.1m-9.3-28.55q3.8 3.2 7.05 7.8 1.6 9.65 1.75 16h-.1q-1.2-11.1-5.3-18.2l-3.4-5.6M30.15 27.8l6.9-.5 5.9 4.9 1 1.55-.35 1.15q-2.1-4-7.95-6.65-3.3-.2-5 .9l-.5-1.35M21 21.85l-.75-.4.55-1.6.55.25-.35 1.75m-3.75.85.05 1.55-1.95-.15v-3.4l1.9 2m.15 3.3.05 1.8 5.2 2.1 2.45 3.05-9.75-4.5v-2.7l2.05.25m.8 11.85h2.9l10 5.95.3.25.75.35v.75l-2.45.55-7.35-4.1-4.15-3.75M45.8 45l.25-.45 8.45 6.8q.75 3.6.35 7.2l-1.5-6.6L45.8 45M47 58.7l1-3.8 1.1.2-2.1 3.6m-15.4-1.3-1.25-5.05 4.65-4.3.25.75-.3.7-2.3 3.25Q31.5 55.4 31.6 57.4" fill="#b4a7d2"/><path d="m36.8 9.95-.95-.85-1.4-1.6q5.95 3.75 13.1 11.2l3.7 4.5q1.9 9.3 1.1 16.55-.15-6.35-1.75-16-3.25-4.6-7.05-7.8l-1-.85-5.75-5.15" fill="#e7b5ae"/><path d="m31.95 59-.35-1.6q-.1-2 1.05-4.65l2.3-3.25-.25.65q-3.1 5.4-2.05 9.25l-.7-.4" fill="#e7b7af"/><path d="m43.2 40.55 2.85 2.15 1.8-.1-1 1.75-1.05-.7-.4.65-3.75-2.7 1-.9.55-.15m1.1 5.95-.5 1.45-2.05-1.1H35.6l-2.25-1.35 4.35-.2 1.1-.9 5.5 2.1" fill="#a9c5c9"/><path d="m47.85 42.6 1.55-.25-1.55 2.7-1-.7 1-1.75m-4.05 5.35-.35 1.7-2.6-1.25-4.8.45-.45-2h6.15l2.05 1.1m7.6-6.1L50.9 43l-1.5-.65 2-.5" fill="#738e92"/><path d="M43.45 49.65v1.15H41.5l-1.4-1.05h-3.85l-.2-.9 4.8-.45 2.6 1.25" fill="#4c6d72"/><path d="m39.1 31.5 2.6 2.3.35 4.8.85.25v.65l.15.5-3.45 1.05-2.95 2.45-3.95.4-8.7-7.6-.8-2.75 1.7.7.55 2.3 6.85 6.05 4-.35L40.1 39l.15-.15-1.15-7.35" fill="#7556db"/><path d="m41.7 33.8 1.2 1.25v3.8l-.85-.25-.35-4.8" fill="#482a8c"/></g><g id="N" fill-rule="evenodd"><path d="M8.4 17.75v4.2l-2.65 3.9-.4-.65-2 2.85.3-3 4.75-7.3m4.2-3.55q4.9-3.7 9.65-6.25Q29 5.9 34.2 6.25q.4 2.2-.1 5.6l-.4-2.3q-2.9-1.8-7.25-1.35-8.2 2.35-13.85 6M25.1 21l-.2-.5L35 22.7l3.25 3.75-1.9.55-1.95-2.55q-2.45-1.3-6.65-1.25.8 4.25 2.25 7.2l4.35 1.9.1.55-3-1.2-1.6-.7-.3-.6-.7-1.45-.75-2.8-.9-3.4-2.1-1.7M37 27.85l2.2-.3 8.55 11h-.05l-.85-.25-3.75-2.85-3.95-1.05-3.15-.85.2 1.2-.65-.3-.5-1.85q3.65 1.4 7.3 2.3L37 27.85M40.45 3l8.45 9.7-1.8 5.9q-6.5-6.45-12.7-15l6.05-.6M62.4 19.5l-1.15.05-6.1-7.4 1.3-.1.55.7 5.4 6.75M35.2 9.45q.5-.3.95 1.2l-.15.95-2.95 7.2-.45-.7q1.6-3.3 2-5.55l.6-3.1m13.45.25 3.4-7.35-8.1 2.4-2.1-2.25 10.2-.15 14.6 8.1-2.5.2-11.9-7.55-1.55 8.7-2.05-2.1M4.55 30.6v2.7l1.5.8.1.35-1.5-.45-.55 4.75L4 39l-.4-1.1.25-3.25H2.6l1.95-4.05M5.4 26l-.2 3.35.7 2.1-.05-.05-1.25-2-2.75 5.25.05.15.7 1.95-.75.65L1 34.95q2.2-5.2 4.4-8.95M4.05 43.6 2.1 38.15l.7-.75 1.15 3.3 1.95-4.1.15.65-.75 1.55-1.25 2.35v2.45m25.8-14.85 1.5-2.15-2.8-2.65 5.5.95.15.15-1.7 1.4 7.7 6.3.75 1-9.25-6.85-1.5 2.95-.35-1.1m-15-.35.75 2.35 2.05 1.6 1.8 1.4.9 3.4-.45-.2-.6-2.75q-1.6-1.6-4.05-3.1l-1 5.6 2.25 2.6-.5 1.5-3.25-3.4 1.9-9.15.2.15m-.1 8 1.75-1.85-1-3 3.35 3-1.55.55 3.25 7.5.05.6-.65-.75L17 35.6l-1.85 1.55-.45-.5.05-.25m2.05 3.25 4.1 4.65v-.7l-.95-6.2.45.2.8 4.4.05.45v2.3l1.4 2.5v.55l-6.15-6.45.3-1.7" fill="#fff"/><path d="m25.1 21 2.1 1.7.9 3.4-2.05-1.85L25.1 21m4.45 9.35.3.6 1.6.7-.75 1-2.3-.9 1.15-1.4m17.3 7.95-5.9-2-1.8-1.9 3.95 1.05 3.75 2.85m2.05-25.6 6.1.2.5.6-1.7.35-.4 5.3-6.15-.3-.15-.25 1.8-5.9m19.9-1.1.5.3 2.65 1.95-8.9.55 3.7 4.95-4.35.15-5.4-6.75 11.8-1.15M5.9 31.45l-.7-2.1.2-3.35 1.1 3.35-.6 2.1m-.05 9.5-1.6 3.25-.2-.6v-2.45L5.3 38.8l.55 2.15m9.7-12 1.85 2 .25 1.4-2.05-1.6-.75-2.35.7.55m7.1 18.3-1.4-2.5v-2.3L21.2 42l.4.4q.4 1.9 1.05 3.55v1.3" fill="#78779b"/><path d="m34.8 5.7-.8-.95-1.1-1.5L40.05 2l.95.95-.55.05-6.05.6q6.2 8.55 12.7 15l.15.25 6.15.3 6.6.1-4.5-5.75-.5-.6-.55-.7.7-.05 6.1 7.4 1.15-.05 4.35-.15 11.9-.45 2.25-.05-11.6-6.95-.5-.3-1.15-.7 2.1-.35 16.8 8.75q-5.4 1.55-14.5 1.8L46.6 21l-2.9-3.3-1.35-1.65-.6-.75-3.5-4.6-.5-.7-.15-.2-.7-.95-.1-.2-.35-.45-.7-.95-.95-1.55M12.9 33.3q.6-3.05 1.35-5.45 2.7 1.1 4.9 3.1V31l1.3 1.35.35.45.1.05.1.35.25.75.45 1.2 1.8 5.25.25 1.55.25 2 1.2 8.1q-2.05-1.3-4.8-4.4l-.6-.7-.8-.8-.55-.65-3.25-3.55-1.1-1.15-.9-1-.95-1.05V36.9l.65-3.6M24.45 22l-.4-2 3.1.2 1.15.1.6.05.7.1.3.05.75.15H31l.8.2 3.25.8 1.15.95.05.1.8.7.05.05L40.15 27l2.8 2.9 6.5 8.35 1.7 2.9-13.35-3.8-8.15-4.05-1.05-.55-.05-.05-.2-.05-.5-.35-2.2-6.4-.15-.4-.35-.95-.25-.75-.1-.35-.25-.75-.1-.7m13.8 4.45L35 22.7l-10.1-2.2.2.5.95 3.25 2.35 7.5 2.3.9 4.15 1.6-.4-1.4-.1-.55.7.3.5 1.85.65.3 4.75 1.55 5.9 2 .85.25h.05l-8.55-11-2.2.3-.35-.4 1.9-.65-.3-.35m-17.2 10.2-.45-3-.25-.25q-1.9-2.1-4.8-4.45l-.7-.55-.2-.15-1.9 9.15L16 40.8l.5-1.5.3.35-.3 1.7 6.15 6.45v-1.85L21.3 38.1l-.45-.25-.45-.25-.45-.2-.05-.45.45.2.9.4-.2-.9" fill="#464660"/><path d="m28.1 26.1.75 2.8.7 1.45-1.15 1.4-2.35-7.5 2.05 1.85m3.35 5.55 3 1.2.4 1.4-4.15-1.6.75-1m4.9-4.65 1.9-.55.3.35-1.9.65-.3-.45m4.6 9.3-4.75-1.55-.2-1.2 3.15.85 1.8 1.9M40.45 3l.55-.05 9.25 9.4 4.2-.15.55.7-6.1-.2L40.45 3m27.2 7.9 1.15.7L57 12.75l-.55-.7 11.2-1.15m11 8-11.9.45-3.7-4.95 8.9-.55 6.7 5.05m-25.25.25.4-5.3 1.7-.35 4.5 5.75-6.6-.1M5.9 31.45l.6-2.1 2 6.1-1 2-1.25-1.6.7-1.4-.9-2.55-.15-.45m0 5.15.15-.3 1.2 1.7-1.4 2.95-.55-2.15.75-1.55-.15-.65m11.5-5.65 2.75 2.85.9 2.85.2.9-.9-.4-.9-3.4-1.8-1.4-.25-1.4M21.2 42l-.8-4.4.45.25q.25 2.4.75 4.55l-.4-.4" fill="#b4a7d2"/><path d="M41 2.95 40.05 2l11.1-2 18.6 10.55-2.1.35-11.2 1.15-1.3.1-.7.05-4.2.15L41 2.95m2.95 1.8 4.7 4.95 2.05 2.1 13.45-1.15 2.5-.2-14.6-8.1-10.2.15 2.1 2.25" fill="#0963a8"/><path d="M64.15 10.65 50.7 11.8l1.55-8.7 11.9 7.55" fill="#0a99dd"/><path d="m48.65 9.7-4.7-4.95 8.1-2.4-3.4 7.35" fill="#1affee"/><path d="m41.75 15.3.6.75-.3 1.85-3.45 1.45-2.3 3.35-.1-.1 2.3-3.9 2.9-1.45.35-1.95m27.55-3.4 11.6 6.95-2.25.05-6.7-5.05-2.65-1.95M26.7 37.95l1.65-5.3.2.05.05.05-.65 3.5-1.25 1.7m-9.3-7-1.85-2q2.9 2.35 4.8 4.45l.25.25.45 3-.9-2.85-2.75-2.85m3.45 6.9.45.25 1.35 7.85Q22 44.3 21.6 42.4q-.5-2.15-.75-4.55" fill="#e7b5ae"/><path d="m11.55 15 1.05-.8q5.65-3.65 13.85-6 4.35-.45 7.25 1.35l.4 2.3-.2 1.15-.65 1.6q-5.75 4.35-11.5 3.65l-9.15 7.6-.6-1.35 8.35-7.1-.55-.2-7.6 5.25-.65-7.45" fill="#bd87f8"/><path d="m10.3 15 1-.8 1-.8q5.35-4.85 8.9-6.6Q27.75 4.55 34 4.75l.8.95-.9-.45.3 1Q29 5.9 22.25 7.95 17.5 10.5 12.6 14.2l-1.05.8-1.25.95V15" fill="#573faf"/><path d="m11.3 14.2-1.65-.3L8.7 15q-2.15 2.6-4.75 7.1l-.3 2.95-.3 3L2.3 29.5q-.75-3.4 1.05-8.7 3.3-5.15 6.2-7.75l2.75.35-1 .8M8.55 31.85l2.3-4.95-1.15-2.65V15.9l.6-.9v8.35l1.45 3.95q-1.35 3.3-2.5 5.1l-.4.45-.3-1M34.2 6.25l-.3-1 .9.45.95 1.55-.55.45v1.75l-.6 3.1q-.4 2.25-2 5.55l-.7 1.4-2 1-.3-.05-.7-.1 2.4-.95.25-.6 1.7-4.2.65-1.6.2-1.15q.5-3.4.1-5.6M37.75 10l.5.7-2 5.8 1.5-6.5m4.6 6.05 1.35 1.65q-2.3 1.4-4.55 2.9l-2.1 2.8-.8-.7h.05l2.3-3.35 3.45-1.45.3-1.85M29.65 33.3l-.5 3.9L24 43.95l-.25-2 2.95-4 1.25-1.7.65-3.5 1.05.55M19.8 46.95q-3.1 2.85-6.1 3.55-1.05-2.55-1.65-7.1l1.15-3.6.9 1-.45 2.35.8 5.85L19 46.15l.8.8m5.85-21.05-1.4 2.05-.35 4.25-.8 1.05.45-1.15v-3.9l1.95-2.7.15.4m-.75-2.1.25.75-2.5 3.9-.25 4.05-1.15 1.45-.25-.75.8-1.3.4-4.25 2.7-3.85m-.35-1.1.25.75-3.2 4-.35 4.65-.45.7-.35-.45.65-5.05 3.45-4.6" fill="#bf4f04"/><path d="m8.7 15 .95-1.1 1.65.3-1 .8-.6.9v8.35l1.15 2.65-2.3 4.95-.6-1.5-.05-.2 1.6-3.1-1.1-3.9v-5.4L8.7 15m28.2-6.15.7.95.15.2-1.5 6.5 2-5.8 3.5 4.6-.35 1.95-2.9 1.45-2.3 3.9-1.15-.95-3.25-.8 1.45-.7 3-7 .65-4.3m-8.55 23.8-1.65 5.3-2.95 4 1.95-3.35 1.5-3.7-3.3-2.7.35-4.25 1.4-2.05 2.2 6.4.5.35m-3.2-8.1.35.95-1.95 2.7v3.9l-.45 1.15-1.4 1.9-.45-1.2 1.15-1.45.25-4.05 2.5-3.9m-6.7 20.95.55.65L14.45 49l1.05-.9 2.95-2.6" fill="#ff8400"/><path d="m36.45 8.2.35.45.1.2-.65 4.3-3 7-1.45.7-.8-.2 1.55-.7.5-1.15L36 11.6l.15-.95.3-2.45" fill="#c65e06"/><path d="M35.2 9.45V7.7l.55-.45.7.95-.3 2.45q-.45-1.5-.95-1.2M29.9 20.5l2-1 .7-1.4.45.7-.5 1.15-1.55.7h-.35l-.75-.15" fill="#faec0a"/><path d="M34.35 32.3 30 30.4q-1.45-2.95-2.25-7.2 4.2-.05 6.65 1.25L36.35 27l.3.45.35.4 5.35 7.05q-3.65-.9-7.3-2.3l-.7-.3m-5.8-8.35-.2-.05 1.5 4.85.35 1.1.1.3 2 .7 4.3 1.65 4.8 1.8-.45-.55-.75-1-6-7.7-.15-.15-5.5-.95" fill="#146d0b"/><path d="m6.15 34.45.1.25-.3.6-1-.6.05 2.4-.9 1.65.55-4.75 1.5.45m34.8-.7.45.55-4.8-1.8-4.6-4.85.3 3.2-2-.7-.1-.3 1.5-2.95 9.25 6.85m-20.4 8.85-3.25-7.5 1.55-.55.15.15.2.9h-1.1l1.8 3.65.65 3.35" fill="#18950d"/><path d="m3.6 37.9-1.15-3 .15-.25h1.25L3.6 37.9m33-5.4-4.3-1.65-.3-3.2 4.6 4.85m-16.7 6.75-1.8-3.65h1.1l.7 3.65" fill="#70ff00"/><path d="m4.55 30.6.2-.4 1.3 3.9-1.5-.8v-2.7m1.4 4.7L5 37.1l-.05-2.4 1 .6m23.9-6.55-1.5-4.85.2.05 2.8 2.65-1.5 2.15m4.35-3.7 6 7.7-7.7-6.3 1.7-1.4m-18.7 6.5 1 3-1.75 1.85.75-4.85m-.35 5.6L17 35.6l2.95 6.85-4.8-5.3" fill="#1dfe0a"/><path d="m24.8 23.45.1.35-2.7 3.85-.4 4.25-.8 1.3-.1-.35-.1-.05.45-.7.35-4.65 3.2-4" fill="#fcf7f3"/><path d="m8.7 15-.3 2.75-4.75 7.3.3-2.95q2.6-4.5 4.75-7.1m-.3 6.95v1.2l1.1 3.9-1.6 3.1-2.15-4.3 2.65-3.9M23.9 32.2l3.3 2.7-1.5 3.7-1.95 3.35-.25-1.55-1.8-5.25 1.4-1.9.8-1.05m-8.7 9.75 3.25 3.55-2.95 2.6-.8-5 .5-1.15" fill="#feef0a"/><path d="m10.3 15.95 1.25-.95.65 7.45 7.6-5.25.55.2L12 24.5l.6 1.35 9.15-7.6q5.75.7 11.5-3.65l-1.7 4.2-4.4 1.4-3.1-.2.4 2q-1.4.7-4.1 4.6l-.7 3.95-.5.45v-.05q-2.2-2-4.9-3.1-.75 2.4-1.35 5.45l-3.65-.9q1.15-1.8 2.5-5.1l-1.45-3.95v-7.4" fill="#7958dc"/><path d="m9.25 32.4 3.65.9-.65 3.6-2.4-.7.1-.15-1.1-3.2.4-.45m9.9-1.4.5-.45.7-3.95q2.7-3.9 4.1-4.6l.1.7-3.45 4.6-.65 5.05-1.3-1.35m8-10.8 4.4-1.4-.25.6-2.4.95-.6-.05-1.15-.1" fill="#482a8c"/><path d="m14.1 40.8 1.1 1.15-.5 1.15.8 5-1.05.9-.8-5.85.45-2.35" fill="#f7eade"/><path d="m6.05 34.1-1.3-3.9-.2.4-1.95 4.05-.15.25 1.15 3L4 39l.1-.25.9-1.65.95-1.8.3-.6-.1-.25-.1-.35M2.6 36.75l-.7-1.95-.05-.15L4.6 29.4l1.25 2 .2.5.9 2.55-.7 1.4-.2.45-.15.3-1.95 4.1-1.15-3.3-.2-.65m13.9 2.55-2.25-2.6 1-5.6q2.45 1.5 4.05 3.1l.6 2.75.05.45.95 6.2v.7l-4.1-4.65-.3-.35m-1.75-2.9-.05.25.45.5 4.8 5.3.65.75-.05-.6-.65-3.35-.7-3.65-.2-.9-.15-.15-3.35-3-.75 4.85" fill="#136c0a"/><path d="m7.9 30.15.05.2.6 1.5.3 1 1.1 3.2-.1.15-.8 1.85L4.15 48l-1.9-5.15L0 34.65 1.95 30l.35-.5 1.05-1.45 2-2.85.4.65 2.15 4.3m-1.4-.8L5.4 26Q3.2 29.75 1 34.95l.85 2.45.75-.65.2.65-.7.75 1.95 5.45.2.6 1.6-3.25L7.25 38l-1.2-1.7.2-.45 1.25 1.6 1-2-2-6.1" fill="#655c70"/><path d="m9.85 36.2 2.4.7v1.65l-3.2-.5.8-1.85" fill="#2c1b54"/></g><use ffdec:characterId="2" height="64.75" width="16.25" xlink:href="#x" id="m"/><use ffdec:characterId="4" height="66.95" width="38.7" xlink:href="#y" id="n"/><use ffdec:characterId="6" height="67.75" width="32.65" xlink:href="#z" id="o"/><use ffdec:characterId="8" height="119.35" width="89.55" xlink:href="#A" id="p"/><use ffdec:characterId="10" height="69.7" width="24.55" xlink:href="#B" id="q"/><use ffdec:characterId="12" height="71.7" width="62.3" xlink:href="#C" id="r"/><use ffdec:characterId="14" height="68.9" width="48.75" xlink:href="#D" id="s"/><use ffdec:characterId="16" height="123.9" width="131.3" xlink:href="#E" id="t"/><use ffdec:characterId="19" height="142.5" width="252.3" xlink:href="#F" id="d"/><use ffdec:characterId="21" height="69.2" width="50.95" xlink:href="#G" id="e"/><use ffdec:characterId="23" height="168.85" width="107.55" xlink:href="#H" id="f"/><use ffdec:characterId="25" height="92.8" width="48.9" xlink:href="#I" id="g"/><use ffdec:characterId="27" height="109.75" width="87.6" xlink:href="#J" id="h"/><use ffdec:characterId="30" height="55.8" width="40.05" xlink:href="#K" id="v"/><use ffdec:characterId="34" height="48.4" width="50.45" xlink:href="#L" id="j"/><use ffdec:characterId="40" height="68.25" width="60.65" xlink:href="#M" id="k"/><use ffdec:characterId="42" height="52.05" width="86.55" xlink:href="#N" id="l"/><path d="M21.5-3.55Q29.95-2.4 29.95-.8q0 1.65-8.45 2.75L1.05 3.1-19.4 1.95Q-27.85.85-27.85-.8q0-1.6 8.45-2.75l20.45-1.1 20.45 1.1" fill-opacity=".349" fill-rule="evenodd" transform="translate(27.85 4.65)" id="b"/></defs></svg>