<svg xmlns:ffdec="https://www.free-decompiler.com/flash" xmlns:xlink="http://www.w3.org/1999/xlink" ffdec:objectType="frame" height="90" width="90" xmlns="http://www.w3.org/2000/svg"><use ffdec:characterId="36" height="227.85" transform="matrix(.38 0 0 .38 -1.444 1.026)" width="316.75" xlink:href="#a"/><defs><g id="a" transform="translate(3.8 -2.7)"><use ffdec:characterId="1" height="12.35" transform="matrix(2.2089 0 0 4.1617 22.716 174.996)" width="90.5" xlink:href="#b"/><use ffdec:characterId="3" height="442.95" transform="translate(13.3 124.55) scale(.1827)" width="387.05" xlink:href="#c"/><use ffdec:characterId="5" height="436.1" transform="translate(34.75 77.4) scale(.1827)" width="351" xlink:href="#d"/><use ffdec:characterId="7" height="297.05" transform="translate(87.75 130.95) scale(.1827)" width="303.15" xlink:href="#e"/><use ffdec:characterId="14" height="880.4" transform="translate(148.032 13.25) scale(.1827)" width="902.45" xlink:href="#f"/><use ffdec:characterId="16" height="389.3" transform="translate(54.35 83.5) scale(.1827)" width="750.35" xlink:href="#g"/><use ffdec:characterId="18" height="343.2" transform="translate(178.8 133.75) scale(.1827)" width="242.6" xlink:href="#h"/><use ffdec:characterId="20" height="490.15" transform="translate(.85 21.95) scale(.1827)" width="959.2" xlink:href="#i"/><use ffdec:characterId="22" height="257.5" transform="translate(154.75 108.6) scale(.1827)" width="245.15" xlink:href="#j"/><use ffdec:characterId="24" height="441.8" transform="translate(96.8 13.29) scale(.1827)" width="1050.2" xlink:href="#k"/><use ffdec:characterId="26" height="553.55" transform="translate(13 5.65) scale(.1827)" width="572.85" xlink:href="#l"/><use ffdec:characterId="31" height="91.6" transform="translate(53.7 50.05) scale(.1827)" width="90.1" xlink:href="#m"/><use ffdec:characterId="33" height="513.2" transform="translate(87.75 62.55) scale(.1827)" width="352.65" xlink:href="#n"/><use ffdec:characterId="35" height="627.4" transform="translate(106.35 115.85) scale(.1827)" width="414.4" xlink:href="#o"/></g><g id="p" fill-rule="evenodd"><path d="m282.9 134.5-5.85 3.3q-14.6 7.55-35.25 13l-4.95 1.25-39.6 34-2.35-6.9L235.3 148l1.8-.5 6.65-1.9 39.15-11.1m65.25 127.85-4.75-.8 14.6-38.9q23.25-18.9 27.15-51.85l.4-4.25q7.8 27.3-24.55 60.55l-12.85 35.25" fill="#3e4577"/><path d="m277.05 137.8 5.85-3.3q12.5 2.9 24.75 6.25l27.75 17.45q18.8 30.1-10.85 77l-.6-7.1-31.55 6.55 1.1-8.15q19.6-12.3 25.75-49.05-8-35.7-42.2-39.65" fill="#97a8d9"/><path d="m197.25 186.05 39.6-34 4.95-1.25q20.65-5.45 35.25-13 34.2 3.95 42.2 39.65-6.15 36.75-25.75 49.05l5.4-40.45-56.55 15.05v-23.55l-45.1 8.5" fill="#edf5fc"/><path d="m237.1 147.5-1.8.5-40.4 31.15-5.15-15.15-22.3 19.6v-8.7l111.8-157.45q-17.5 67.1-42.15 130.05" fill="#121842"/><path d="m243.75 145.6-6.65 1.9q24.65-62.95 42.15-130.05L167.45 174.9v8.7l-5.4 4.75-.25-15 64.1-92.3-63.35 76.55-7.95 9.6-2.65 22.75-5.3-2.7 2.85-22.1L287.25 0q-19.7 81.65-43.5 145.6" fill="#894900"/><path d="m194.9 179.15 2.35 6.9 45.1-8.5v23.55l56.55-15.05-5.4 40.45-1.1 8.15 31.55-6.55.6 7.1 1.9 23.45 9.15 1.55 7.8 1.35 4.75.8 25.35 4.3-22 39.6 15 28q-17.75 11.55-35.55 23.05l8.5 25.55-56.55-15.05-17.05 21.05-25-8.3 2.65-5.15 19.85 6.95 28.05-33.05-6 16.05 46.55 10.5-5-20.55L361 332.8l-11-21.55-14.55 8L367 270.2l-44.55-7-2.75-28-.25-2.55-6.2 1.05-27.35 4.45 6.5-46.05-50.2 18.25-4.9 1.75v-26.55l-43.05 8.05-6-22.05-37.55 34.05 4-10-31.05-16.05-.5 4.6-2 17.15-1.4 11.9-2.65 22.85-3.95 2.1 5.5-65.1 28 14.2 5.3 2.7 5.25 2.65 4.85-4.25 5.4-4.75 22.3-19.6 5.15 15.15" fill="#3a6874"/><path d="m150.7 205.6 37.55-34.05 6 22.05 43.05-8.05v26.55l4.9-1.75 38.15-5.75-3.5 42.55 36.4-13.45 6.2-1.05.25 2.55-20.3 20v22.5l-48.05-5-14.05-31.55-26.55-12-3-30.05-12 25.55-25.55-24.05-7 34.05-26.05-26.05-3.5 14.05-12.5-21.35 2-17.15 27.55 21.45" fill="#fbfdfd"/><path d="m242.2 210.35 50.2-18.25-6.5 46.05 27.35-4.45-36.4 13.45 3.5-42.55-38.15 5.75m-119.05-26.2.5-4.6 31.05 16.05-4 10-27.55-21.45" fill="#c5e2e8"/><path d="M324.55 235.2q29.65-46.9 10.85-77l-27.75-17.45q40.1 10.8 77.9 25.8l-.4 4.25q-11.1 30.1-30.15 50.35l-19.4 39.05-9.15-1.55-1.9-23.45" fill="#5b5fa3"/><path d="m343.4 261.55-7.8-1.35 19.4-39.05q19.05-20.25 30.15-50.35-3.9 32.95-27.15 51.85l-14.6 38.9M61.55 273.2l-.7 19.35-15.7 33.05v-15.85L23.5 349.3l10.55-.25L32 353.3l-15.5 2.3 16.2-37.35 28.85-45.05m6.1 39.3 10.75-2.65-34.5 82.5-9.9 1 33.65-80.85" fill="#71feff"/><path d="m319.7 235.2 2.75 28 44.55 7-31.55 49.05 14.55-8 11 21.55-34.05 22.5 5 20.55-46.55-10.5 6-16.05-28.05 33.05-19.85-6.95 6.85-13.1-21-117.7-54.6 21.55-23.05-39.55-21.5 13-3-9-7.45-17.4 1.4-11.9 12.5 21.35 3.5-14.05 26.05 26.05 7-34.05 25.55 24.05 12-25.55 3 30.05 26.55 12 14.05 31.55 48.05 5v-22.5l20.3-20" fill="#95f6fc"/><path d="m151.95 189.95 2.65-22.75 7.95-9.6-.75 15.75.25 15-4.85 4.25-5.25-2.65" fill="#ffee0c"/><path d="m162.55 157.6 63.35-76.55-64.1 92.3.75-15.75" fill="#f2ab1a"/><path d="m243.5 375.4-2.65 5.15-14.55 27.8-132.2 34.6 7-44.55-87.6 12 18-52.1L0 360.85l61.1-94.7 52.05-28 3.95-2.1 10.1-5.45 3 9 21.5-13 23.05 39.55 54.6-21.55 21 117.7-6.85 13.1m-5-2.7 7.3-13.9-15.8-82.25-3.1-16.15-1.1-5.75-10.7 3.95-62.95 23.1-33.5 52.1-.75 4.05-18.8 98.6 90.4-23.6 1.4-.35 25.6-6.7 5.3-1.4.95-1.8 15.75-29.9m-99.55-80.9 9.2-15.15 24.55-8-11.05-18.3-5.8-9.65-5.2-8.6-80.6 47.55L20 404.35l81.1-12 1.3-5.85 11.7-53.75 22.25-36.6 2.6-4.35m-78.1.75 8.25-17.35 58.55-34.05-2.5-4-63.6 36.05-28.85 45.05L8 356.8l8.5-1.2 15.5-2.3 2.05-4.25 11.1-23.45 15.7-33.05m9.6 13.3 58.15-8.55-50.2 12.55-10.75 2.65 2.8-6.65" fill="#003972"/><path d="m215.1 258.6 10.7-3.95 1.1 5.75-2.1 23.8-3.75 4.7-46.85-9.2 40.9-21.1" fill="#45feff"/><path d="m189.5 412.85-90.4 23.6 18.8-98.6 9.85-2.1-18.65 87.15 80.4-10.05m-70.85-79.05 33.5-52.1 62.95-23.1-40.9 21.1 46.85 9.2-18.55 23.35 4.75-8.5-88.6 30.05m-16.25 52.7-1.3 5.85-81.1 12 50.05-124.7 80.6-47.55 5.2 8.6-74.75 39.5-10.65 25.65-2.8 6.65L34 393.35l9.9-1 58.5-5.85M61.55 273.2l63.6-36.05 2.5 4L69.1 275.2l-8.25 17.35.7-19.35M16.5 355.6 8 356.8l24.7-38.55-16.2 37.35" fill="#fcfdfd"/><path d="m190.9 412.5-1.4.35-80.4 10.05 39.05-81.55 32.55 10.95 10.2 60.2m-29.25-162.15 11.05 18.3-24.55 8-9.2 15.15-20.3.4 43-41.85" fill="#329bed"/><path d="m138.95 291.8-2.6 4.35-7.75 1.15-58.15 8.55L81.1 280.2l74.75-39.5 5.8 9.65-43 41.85 20.3-.4" fill="#13feff"/><path d="m222.75 402.6-.95 1.8-5.3 1.4-17.1-75.55 26.3-34.75 9.1 20.25-25.55 18.45 13.5 68.4m4.15-142.2 3.1 16.15-2.7 10.65-3.5 4-26.05 29.55 4.75-8.5 18.55-23.35 3.75-4.7 2.1-23.8" fill="#204dab"/><path d="m216.5 405.8-25.6 6.7-10.2-60.2-32.55-10.95 5.35-11.1 44.25-9.5 26.05-29.55 1.9 4.3-26.3 34.75 17.1 75.55" fill="#0476e9"/><path d="m230 276.55 15.8 82.25-7.3 13.9-3.7-56.95-9.1-20.25-1.9-4.3 3.5-4 2.7-10.65m-112.1 61.3.75-4.05 88.6-30.05-4.75 8.5-4.75 8.5-44.25 9.5-25.75 5.5-9.85 2.1" fill="#41feff"/><path d="m127.2 230.6-10.1 5.45 2.65-22.85 7.45 17.4" fill="#99bbc2"/><path d="m136.35 296.15-22.25 36.6-11.7 53.75-58.5 5.85 34.5-82.5 50.2-12.55 7.75-1.15" fill="#268be7"/><path d="m153.5 330.25-5.35 11.1-39.05 81.55 18.65-87.15 25.75-5.5" fill="#46feff"/><path d="m238.5 372.7-15.75 29.9-13.5-68.4 25.55-18.45 3.7 56.95" fill="#2263b8"/><path d="m45.15 325.6-11.1 23.45-10.55.25 21.65-39.55v15.85" fill="#14feff"/></g><g id="q" fill-rule="evenodd"><path d="m221.9 204.95-76.2-24.7q6.5-8.4 2.5-29.05-18.6-19.5-35.1-16.1Q72.6 90.1 48.55 17l7.3-1.05q91.3 39.8 156.5 119.5 10.2 32.3 9.55 69.5" fill="#6c56a0"/><path d="M109.4 164.55q15.9-6.85 20.25 3.7-5.8-4.45-10.5-3.1-3.85 1.1-7 6.1-3.05 19.6 21.05 15.95l2.15-1.7q15.05-13.35 2.85-36.85-18.6-16.1-39.55 2-13.3-15.2-23.6-31.6-31.9-50.75-35-113.1H5.5Q39.55 141.7 124.25 219.3q10.15 9.3 21.05 17.75l.6.45q30.15 23.3 65.85 40.25l8.15 3.75q15.8 7.05 32.65 12.9l.6 4.05q-15.35-5.1-29.85-11.1l-8.05-3.5q-56.3-24.95-99.1-64.8-29.15-27.15-52-61.2-8.2-12.15-15.55-25.15-5.5-9.75-10.55-20l-2.45-5.05-3.55-7.55L18 104.6l2.3 9.3 2.1 7.7q5.45 19 12.95 36.3l5.85 12.65q7.55 15.4 16.9 29.35 8.5 12.8 18.5 24.4l4.95 5.6q20.25 22.15 46.05 39.65 43.85 29.75 103.7 46.15l7.4 1.95 17.7 4.15.55 3.85-16.6-4.25-7.45-2.1Q145.2 294 90.8 244.05l-9.25-8.9L76.6 230q-6.2-6.65-11.9-13.7-14.8-18.3-26.1-39.1l-1.6-3-19 10.5q20.6 47.35 56.15 82.95l2.45 2.45 4.95 4.7 4.75 4.25q8.6 7.6 18 14.65l12.1 8.55q5.7 3.8 11.65 7.45l5.65 3.35 5 2.85q46.85 26.15 108.5 40.65l6.7 1.55 7.8 1.65.5 3.6-7.1-1.35-6.55-1.3q-62.75-13.15-110.4-39l-.8-.4q-31.1-17.05-55.8-39.5l-4.95-4.6Q35.25 237.55 13 181.75l21-11.05-22.5-70.1 20-5L0 4.5q23.95-7.1 44.55-3.05v2.5l.1 5.05Q46.9 71.15 97.6 143.7q7.5-7 15.5-8.6 16.5-3.4 35.1 16.1 4 20.65-2.5 29.05l76.2 24.7 19.05 6.15.8 5.85-97.55-30.2q-11.7 7-19.85 7.5-5.45.35-9.3-2.25-3.75-2.55-6-7.8-1.3-3.1-2.1-7.2l-.3-1.75q.45-6.45 2.75-10.7" fill="#894800"/><path d="M119.15 165.15q4.7-1.35 10.5 3.1-4.35-10.55-20.25-3.7 4.95-9.2 18.75-7.85-7-15.6-29.5-6.05 20.95-18.1 39.55-2 12.2 23.5-2.85 36.85-20.75-2.05-16.2-20.35" fill="#eda71b"/><path d="M109.4 164.55q-2.3 4.25-2.75 10.7l.3 1.75-14.75 1.25q-11.7-15.85-22.1-33.1l7-5.5-5.5-9.5-11 4-2.45-5 16.9-10.1q10.3 16.4 23.6 31.6 22.5-9.55 29.5 6.05-13.8-1.35-18.75 7.85M38.6 177.2q11.3 20.8 26.1 39.1l-8.4 20.3-27.8-48.35 10.1-11.05m96.75 8.3-2.15 1.7q-24.1 3.65-21.05-15.95 3.15-5 7-6.1-4.55 18.3 16.2 20.35" fill="#ffee0d"/><path d="M106.95 177q.8 4.1 2.1 7.2l-11.35 1.35-5.5-7.3 14.75-1.25m8.1 15q3.85 2.6 9.3 2.25l18.35.05 100.35 32.05 9.5 68.05q-16.85-5.85-32.65-12.9l-8.15-3.75q-35.7-16.95-65.85-40.25l-.6-.45q-9.4-8.55-18.25-17.65-9.7-10-18.7-20.65l6.7-6.75" fill="#f2ab1b"/><path d="M124.35 194.25q8.15-.5 19.85-7.5l97.55 30.2 1.3 9.4L142.7 194.3l-18.35-.05m137.35 165.5-7.8-1.65-6.7-1.55q-61.65-14.5-108.5-40.65l2.5-28.5q-28.85-18.65-50.4-43.35Q145.2 294 232.9 319.3l7.45 2.1 16.6 4.25 1.85 13.3 1.75 12.6 1.15 8.2m-5.3-37.95-17.7-4.15-7.4-1.95q-59.85-16.4-103.7-46.15l1.55-29.75q-10.6-9.8-20.6-21-23.85-26.6-44.4-60.95 22.85 34.05 52 61.2 42.8 39.85 99.1 64.8l8.05 3.5q14.5 6 29.85 11.1l3.25 23.35" fill="#cd6114"/><path d="m138.7 315.9-5-2.85V289.4l-12.05-8.2-9.35-6.35-17.65-12-8.35 16.2-4.75-4.25-4.95-4.7-2.45-2.45L56.3 236.6l8.4-20.3q5.7 7.05 11.9 13.7l4.95 5.15 9.25 8.9q21.55 24.7 50.4 43.35l-2.5 28.5m-11.1-46.35q-25.8-17.5-46.05-39.65l-4.95-5.6q-10-11.6-18.5-24.4l17-10.15Q64.8 175.8 57.55 158.8q-2.4-5.65-4.5-11.6-2.45-7-4.45-14.5 7.35 13 15.55 25.15 20.55 34.35 44.4 60.95 10 11.2 20.6 21l-1.55 29.75m-4.9-27.7-14.05-13.05-7 12.55 21.05 17.5v-17" fill="#f2ab1a"/><path d="m116.4 302.25-12.1-8.55 8-18.85 9.35 6.35-5.25 21.05" fill="#fcfdfc"/><path d="m133.7 313.05-5.65-3.35q-5.95-3.65-11.65-7.45l5.25-21.05 12.05 8.2v23.65m-29.4-19.35q-9.4-7.05-18-14.65l8.35-16.2 17.65 12-8 18.85m-46.2-93.8q-9.35-13.95-16.9-29.35l16.35-11.75q7.25 17 17.55 30.95l-17 10.15m-37.8-86-2.3-9.3 14.05-4.5 3.55 7.55-15.3 6.25M11.5 5.95h20.05q7.25 53.7 31.05 99.65l-11.5 9.25-6.05-12.25 3-12.55-8 3.5-4.5-12 5.5-6.5-3.5-8.5h-8.5L11.5 5.95m111.2 235.9v17l-21.05-17.5 7-12.55 14.05 13.05" fill="#ffee0c"/><path d="M74.15 267.65Q38.6 232.05 18 184.7l19-10.5 1.6 3-10.1 11.05 27.8 48.35 17.85 31.05m-32.95-97.1-5.85-12.65 17.7-10.7q2.1 5.95 4.5 11.6L41.2 170.55M22.4 121.6l-2.1-7.7 15.3-6.25 2.45 5.05-15.65 8.9m122.9 115.45q-10.9-8.45-21.05-17.75Q39.55 141.7 5.5 5.95h6l17.55 60.6h8.5l3.5 8.5-5.5 6.5 4.5 12 8-3.5-3 12.55 6.05 12.25 7.05 14.3 2.45 5 11-4 5.5 9.5-7 5.5q10.4 17.25 22.1 33.1l5.5 7.3 10.65 13.2q9 10.65 18.7 20.65 8.85 9.1 18.25 17.65" fill="#fcfdfd"/><path d="m241.75 216.95-.8-5.85-19.05-6.15q.65-37.2-9.55-69.5-24.05-75.95-108.3-125 87.5 8.5 167.35 55.6 154.1 167.85-12.6 272.9l-1.85-13.3-.55-3.85-3.25-23.35-.6-4.05-9.5-68.05-1.3-9.4" fill="#170148"/><path d="m44.65 9-.1-5.05Q172.65-1 272.4 58.55q162.95 172.65-11.85 293l-1.75-12.6q166.7-105.05 12.6-272.9-79.85-47.1-167.35-55.6l-6.7-.6q-26-2.15-52.7-.85" fill="#140502"/><path d="m76.6 277.2 4.95 4.6v26.15l64.15 74.1 2.1 10.6 4.05 20.85-7.15-1.4-5-29.05-63.1-75.1V277.2m171.95 83.5 6.55 1.3q10.35 34.9 14.8 74.1l-4.45-.85q-5.5-38.85-16.9-74.55" fill="#3d4477"/><path d="m137.35 321.3.8.4q47.65 25.85 110.4 39 11.4 35.7 16.9 74.55L223 427.1l-7.2-15.05q-25.1-3.6-36.05-38.05l-42.4-52.7" fill="#5b5fa3"/><path d="M81.55 281.8q24.7 22.45 55.8 39.5l42.4 52.7q10.95 34.45 36.05 38.05l7.2 15.05-24.2-4.6q-12.35-28.1-51-29.85l-2.1-10.6 12.05-8.05q-6.4-61.7-76.2-74.1v-18.1" fill="#97a8d9"/><path d="M81.55 299.9q69.8 12.4 76.2 74.1l-12.05 8.05-64.15-74.1v-8.05m66.25 92.75q38.65 1.75 51 29.85l-46.95-9-4.05-20.85" fill="#edf5fc"/><path d="M212.35 135.45q-65.2-79.7-156.5-119.5l41.5-6.1 6.7.6q84.25 49.05 108.3 125" fill="#44233d"/><path d="M31.55 5.95h8.5q3.1 62.35 35 113.1l-16.9 10.1-7.05-14.3 11.5-9.25Q38.8 59.65 31.55 5.95" fill="#eca71b"/><path d="M113.1 135.1q-8 1.6-15.5 8.6Q46.9 71.15 44.65 9q26.7-1.3 52.7.85l-41.5 6.1-7.3 1.05Q72.6 90.1 113.1 135.1" fill="#a9fafc"/><path d="M35.35 157.9q-7.5-17.3-12.95-36.3l15.65-8.9q5.05 10.25 10.55 20 2 7.5 4.45 14.5l-17.7 10.7" fill="#fff42f"/><path d="M109.05 184.2q2.25 5.25 6 7.8l-6.7 6.75-10.65-13.2 11.35-1.35" fill="#ffed0c"/></g><g id="r" fill-rule="evenodd"><path d="m19.45 267.8-4.6.5 39.5-82.6 3.7-1.85-38.6 83.95m54.75 24.35-4.45.8 17.45-71.3 26.15-33.35 2.95-.9-6.65 10.55-10.65 17h41.05l6.3-4.9 12.15-9.45-14.35 17.45-51.8 9.25-.6 2.25-14.1 50.2-3.45 12.4" fill="#f6f8fc"/><path d="m58.05 183.85-3.7 1.85-39.5 82.6 4.6-.5 53.85-6.2 1-3.55L85.65 217l25.1-30.8 18.5-7.7-14.4-23.55-12.15 6.2-44.65 22.7m27.2-28 4-1.6 12.35-4.95v6.15q7.7-3.55 15.35-7.15l15.4 27.7 35.9-10.25 10.6 65.5.7 4.25 20.5 5.15-23.6 37.95L62.6 297.05l6.15-31.8-60.55 8.2 16.45-36.95H0l45.15-64.6 40.1-16.05m31.05 31.55-2.95.9-26.15 33.35-17.45 71.3 4.45-.8 55.85-9.95 43.35-7.75 21-30.75-20.5-9.75-6.3-38-3.95-23.55-47.35 15m-64-4.75 37.45-23.1-42.1 16.9-37.95 55.4h15.4l2.95-5.25 24.25-43.95" fill="#00346e"/><path d="m89.25 154.25 3.05-18.3 4.6 9.25 3.1-8.7 10.25 9.25 7.2-2.05 14.35 18.95h16.4l4.65-17.45-7.7 3.1 7.7-14.35H135.9v-8.75l-25.15 12.85-16.85-11.7 1.5-8.85 24.6 11.8 19-16.4 6.65 14.85 34.9-7.15v21.55l37.95-12.35-7.2 31.3 45.15 12.3-36.4 67.75-41.2-9.9-10.6-65.5-35.9 10.25-15.4-27.7q-7.65 3.6-15.35 7.15v-6.15l-12.35 4.95m88.2 10.45 8.2 8.2 21.55-32.3-25.65 5.1-11.8 7.7 14.9-2.05-7.2 13.35" fill="#99bbc2"/><path d="M92.3 135.95v-.05l1.6-9.55 16.85 11.7 25.15-12.85v8.75h16.95l-7.7 14.35 7.7-3.1-4.65 17.45h-16.4l-14.35-18.95-7.2 2.05L100 136.5l-3.1 8.7-4.6-9.25m85.15 28.75 7.2-13.35-14.9 2.05 11.8-7.7 25.65-5.1-21.55 32.3-8.2-8.2" fill="#e9eae6"/><path d="m125.05 120.5 16.55-17.35 6.15 19.5 36.95-8.2V136l37.95-12.35-6.15 34.9 39.7 10.35 7.45 1.95-43.05 74.9-20.55-5.1-20.5-5.15-.7-4.25 41.2 9.9 36.4-67.75-45.15-12.3 7.2-31.3-37.95 12.35V120.6l-34.9 7.15L139 112.9l-19 16.4-24.6-11.8-1.5 8.85-1.6 9.55v.05l-3.05 18.3-4 1.6 6.05-46.55 28.75 16.4 5-5.2" fill="#3a6874"/><path d="m256.2 168.9-39.7-10.35 6.15-34.9L184.7 136v-21.55l-36.95 8.2-6.15-19.5-16.55 17.35 4.2-70.7q91.55-71.25 173.9-40.55L256.2 168.9" fill="#5c60a4"/><path d="m102.7 161.15 12.15-6.2 14.4 23.55-18.5 7.7-25.1 30.8-11.35 41.05-48.7 4.6 31.8-57.95 44.15-12.35H61l41.7-31.2m-10.95 68.4.6-2.25 51.8-9.25 14.35-17.45 9.1-4.65 6.3 38 20.5 9.75-21 30.75-43.35 7.75-20.6-.95 11.6-41.65-29.3-10.05" fill="#2250c1"/><path d="m19.45 267.8 38.6-83.95 44.65-22.7-41.7 31.2h40.55L57.4 204.7l-31.8 57.95 48.7-4.6-1 3.55-53.85 6.2m126.9-57.75-6.3 4.9H99l10.65-17 17.55-4.5 5.15 16.9 14-.3M28.05 226.6l-2.95 5.25H9.7l37.95-55.4 42.1-16.9-37.45 23.1-31.8 43.05 7.55.9" fill="#2fedff"/><path d="m158.5 200.6-12.15 9.45-14 .3-5.15-16.9-17.55 4.5 6.65-10.55 47.35-15 3.95 23.55-9.1 4.65" fill="#2051ac"/><path d="m74.2 292.15 3.45-12.4 31.8 1.5 20.6.95-55.85 9.95" fill="#60ffff"/><path d="m77.65 279.75 14.1-50.2 29.3 10.05-11.6 41.65-31.8-1.5" fill="#2a91ec"/><path d="m28.05 226.6-7.55-.9 31.8-43.05-24.25 43.95" fill="#2251c1"/></g><g id="s" fill-rule="evenodd"><path d="m314.35 255 10.2.1-89.35-44.15 129.9-72.35-81.25 20.3-46.05 11.5-10.55 2.65-7.95 1.95V17.45l-59 129.85-10.75-9.75-8.3-7.55L52.5 49.25l43.75 92.05 20.4 42.95-8.15-.5-36.35-2.3-54.15-3.4-31.7-2 42.6 26.1 89.85 55 7.75 16q-.45 2.8-.65 5.6l-9.2-17-145.75-90.3 137.55 8.7L45.3 40.05l114.45 98L222.4 0l2.05 169.9 167.85-41.6-147.85 83.15 101.65 49.8Q261.05 255 172.6 271.5l-2.3 11.95-4.05-6.05 15.6-31.05-6.15 20.05q52.15-8.95 104.25-10.9 17.2-.65 34.4-.5" fill="#0f1e64" transform="translate(29.1)"/><path d="m283.85 158.9 81.25-20.3-129.9 72.35 89.35 44.15-10.2-.1-74.65-18.8-3.45-7.3-34.9-10.3 82.5-59.7M-13.7 176.05l31.7 2 78.1 22.65-2.55-12.85-21.4-6.4 36.35 2.3-5.2 3.05 3.1 15.4 23.6 9.75-11.35-25.25 21.1 25.8-1.1 7.55-31.95-9.2-3.6-1.05L76 202l-4.35-1.25-85.35-24.7m233-100.6V175l7.95-1.95q-35.6 40.9-59.8 56.9l-7.15-23.1L213.8 87.7l5.5-12.25M194 146.9l6.35 36.3 15.4-10.75-5.65-53.9L194 146.9m3.8 40.95-3.6-17.95-9.25 20v11.8l12.85-13.85m-27.75 4.1v19.5l7.7-9.75 18.5-66.2-26.2 56.45m64.15 30.75-3.6-12.8-10-2.9-8.05 10.05 21.65 5.65" fill="#fcfdfd" transform="translate(29.1)"/><path d="m149.55 137.55 10.75 9.75 59-129.85v58l-5.5 12.25-56.6 95-7.65-45.15" fill="#2c78b2" transform="translate(29.1)"/><path d="m201.35 218.6 34.9 10.3 3.45 7.3-33.2-8.35-5.15-9.25M194 146.9l16.1-28.35 5.65 53.9-15.4 10.75-6.35-36.3m3.8 40.95-12.85 13.85v-11.8l9.25-20 3.6 17.95m-27.75 4.1 26.2-56.45-18.5 66.2-7.7 9.75v-19.5m64.15 30.75-21.65-5.65L220.6 207l10 2.9 3.6 12.8" fill="#2fedff" transform="translate(29.1)"/><path d="M279.95 255.5q-52.1 1.95-104.25 10.9l6.15-20.05-15.6 31.05q-2.9-4.7-5.1-9.5l8.35-13.85-5.65-22.6-9.55 12.75q-3-23.1 7.05-49.2-16.95 24.8-25.85 46.6l3.15-21.55 1.1-7.55-21.1-25.8-2-2.45-20.4-42.95 37.35 45.5 11.8-9.25-4.15-47.55 8.3 7.55 7.65 45.15 56.6-95-53.5 119.15 7.15 23.1q24.2-16 59.8-56.9l10.55-2.65-50.3 59v18.45l92.45 7.65m-172.2-19.15 1.75 10-27.75-15.9-10.1-29.7L76 202l2.8 7.7 6.55 18.2 22.4 8.45" fill="#1344de" transform="translate(29.1)"/><path d="M96.25 141.3 52.5 49.25 141.25 130l4.15 47.55-11.8 9.25-37.35-45.5" fill="#278ce8" transform="translate(29.1)"/><path d="M314.35 255q-17.2-.15-34.4.5l-92.45-7.65V229.4l50.3-59 46.05-11.5-82.5 59.7 5.15 9.25 33.2 8.35 74.65 18.8" fill="#688cef" transform="translate(29.1)"/><path d="m126.5 273.15-7.75-16-89.85-55 46.7 24.2-3.95-25.6 10.1 29.7 27.75 15.9-1.75-10-2.65-15.1-2-11.45 3.6 1.05 6.9 33.45 15.5 16.25q-1.7 6.45-2.6 12.6M18 178.05l54.15 3.4 21.4 6.4 2.55 12.85L18 178.05m90.5 5.7 8.15.5 2 2.45L130 211.95l-23.6-9.75-3.1-15.4 5.2-3.05" fill="#65ebfd" transform="translate(29.1)"/><path d="m28.9 202.15-42.6-26.1 85.35 24.7 3.95 25.6-46.7-24.2m76.2 19.1 2.65 15.1-22.4-8.45-6.55-18.2 26.3 11.55" fill="#6e8cf0" transform="translate(29.1)"/><path d="m103.1 209.8 2 11.45-26.3-11.55L76 202l27.1 7.8" fill="#2233c1" transform="translate(29.1)"/><path d="m138.65 220.05-3.15 21.55q-4 9.75-6.4 18.95l-15.5-16.25-6.9-33.45 31.95 9.2" fill="#2333c1" transform="translate(29.1)"/><path d="m166.25 277.4 4.05 6.05q22.05 30.45 73.15 54.25 121.75 31.75 124.2 152.5-2.35 129.25-216.1 153.95l-5.5-4.1q59-5.1 114.85-24.65 105-48 102.5-127.75-.35-11.5-2.95-23.65-4.65-35.05-22.1-60.9-30.75-45.6-101.1-62.8-30.95-11.7-51.05-28.6-42.1-35.4-36.7-93.6-38.4 78.95 6.75 123.5 11.05 10.85 27.05 19.7l2.85 4.7q-65.35-30.55-60.3-87.25.2-2.8.65-5.6.9-6.15 2.6-12.6 2.4-9.2 6.4-18.95 8.9-21.8 25.85-46.6-10.05 26.1-7.05 49.2 1.6 12.25 6.85 23.7 2.2 4.8 5.1 9.5" fill="#3d4477" transform="translate(29.1)"/><path d="m154.3 244.2 9.55-12.75 5.65 22.6-8.35 13.85q-5.25-11.45-6.85-23.7" fill="#5290ef" transform="translate(29.1)"/><path d="m199.05 364.55-17.25-5.8 1.5 2.55q-16-8.85-27.05-19.7-16.65-31.25-14.45-66 22.2 28.8 44.4 36.1 20.1 16.9 51.05 28.6 70.35 17.2 101.1 62.8 20.7 69.4-6.1 115.8-56.55 78.95-144.75 55.95l-18.45-40.4 12.75.9 28.75-12.85 45.7-4.1 14.9-42.1 2.15-5.05q4.6 69.6-48.35 61.55l-18.45 14.35q56.45 31.6 114.45-28.25 43.55-93.45-46.2-150.35-64.4-7.2-112.95-56 6.9 31.15 37.25 52" fill="#95aadb" transform="translate(29.1)"/><path d="M199.05 364.55q-30.35-20.85-37.25-52 48.55 48.8 112.95 56 89.75 56.9 46.2 150.35-58 59.85-114.45 28.25l18.45-14.35q52.95 8.05 48.35-61.55l9.15-21.65v-11.8l-44.15-35.95-7.7-26.65-31.55-10.65" fill="#e9f2fb" transform="translate(29.1)"/><path d="m169.05 534.45 18.45 40.4q88.2 23 144.75-55.95 26.8-46.4 6.1-115.8 17.45 25.85 22.1 60.9 2.6 12.15 2.95 23.65Q342.95 620.3 138.6 633.5q-42.1-41.15-7.6-115.6 16.15 13.5 38.05 16.55M186.2 311.7q-22.2-7.3-44.4-36.1-2.2 34.75 14.45 66-45.15-44.55-6.75-123.5-5.4 58.2 36.7 93.6" fill="#5c60a4" transform="translate(29.1)"/><path d="M146.05 640.05q-4-3.15-7.45-6.55 204.35-13.2 224.8-145.85 2.5 79.75-102.5 127.75-55.85 19.55-114.85 24.65" fill="#38e9fc" transform="translate(29.1)"/><path d="m228.05 401.6-25.65-27.95-8.45-2.2-3.35-6.55 36.4 13.35-11.25 2.55 16.5 21.85-4.2-1.05m10.65 8.45.6-2.5 39.55 34.4-15.4 9.75 3.05 15.9h-5.1l-1.05-14.4-21.65-43.15" fill="#2250c1" transform="translate(29.1)"/><path d="m193.95 371.45 8.45 2.2 25.65 27.95-21.55-5.4-12.55-24.75m47.5 77q-7.7-16.9-2.75-38.4l21.65 43.15-18.9-4.75" fill="#2fedff" transform="translate(29.1)"/><path d="m228.05 401.6 4.2 1.05 3 .75-8.25-25.15-36.4-13.35 3.35 6.55 12.55 24.75 21.55 5.4m2.55-26.4 7.7 26.65 44.15 35.95v11.8l-11.3 26.7-14.9 42.1-45.7 4.1-28.75 12.85-12.75-.9q-21.9-3.05-38.05-16.55l-1-41.6 63.65-7.7 29.25 9.75 20.5-8.7h10.3q-30.5-16.5-18-61.6l-28.75-7.2-25.15-42.1 48.8 16.45m48.25 66.75-39.55-34.4-.6 2.5q-4.95 21.5 2.75 38.4 4.7 10.45 14.3 19.15h15.4l7.7-25.65M258.8 472.2h-15.9L223.4 484l-3.2 9.55-8.6 25.35 40.05-3.6 16.9-43.1h-9.75m-91.35 3.45-22.5 2.5-11.4 1.25.4 5.1 2.1 28.85 23.15 8.7 23.15 8.65 5.7-3.3 18.9-11.05 12.35-33.9-25.65-9.75-21 2.35-5.2.6" fill="#003774" transform="translate(29.1)"/><path d="m232.25 402.65-16.5-21.85 11.25-2.55 8.25 25.15-3-.75m46.6 39.3-7.7 25.65h-4.65l-3.05-15.9 15.4-9.75M261.4 467.6h-5.65q-9.6-8.7-14.3-19.15l18.9 4.75 1.05 14.4m-73.35 59.8-5.7 3.3-23.15-8.65 3.85-15.15 32.65-19.3-7.65 39.8" fill="#2a91ec" transform="translate(29.1)"/><path d="m220.2 493.55 3.2-9.55 19.5-11.8h15.9l-25.65 26.2-12.95-4.85" fill="#2fedfe" transform="translate(29.1)"/><path d="m233.15 498.4 25.65-26.2h9.75l-16.9 43.1-18.5-16.9" fill="#2d91ec" transform="translate(29.1)"/><path d="m144.95 478.15 22.5-2.5 16.4 11.45-10.25 4.1-28.65-13.05m27.7-3.1 21-2.35 25.65 9.75-23.6 5.15-23.05-12.55" fill="#2efcfd" transform="translate(29.1)"/><path d="m144.95 478.15 28.65 13.05 10.25-4.1-16.4-11.45 5.2-.6 23.05 12.55-32.65 19.3-1.25.7-27.85-23.1-.4-5.1 11.4-1.25" fill="#fcfdfd" transform="translate(29.1)"/><path d="m220.2 493.55 12.95 4.85 18.5 16.9-40.05 3.6 8.6-25.35m-.9-11.1-12.35 33.9-18.9 11.05 7.65-39.8 23.6-5.15m-60.1 39.6-23.15-8.7-2.1-28.85 27.85 23.1 1.25-.7-3.85 15.15" fill="#1f46ab" transform="translate(29.1)"/></g><g id="t" fill-rule="evenodd"><path d="m636 74.15 29.2 18.45 71.05-10.75-6.2 9.15-22.75 2.6-20.55 33.9h-19.5l4.1-29.8h-9.2L640.6 83.35l-8.7 23.2-10.8-9.85 11.3-12.3 3.6-10.25" fill="#1f46ab"/><path d="m736.25 81.85 3.85-5.65-7.95-2.65Q715.75 68.5 696.8 66q-26.2-3.5-57.25-2.15L636 74.15l-3.6 10.25-11.3 12.3 10.8 9.85 23.05 20.95h50.3l24.8-36.5 6.2-9.15M660.05 9.5l-10.2-.1q-10.2 0-20.3.55-16.1.9-32.05 3.2-30.25 4.4-60.05 13.85-52.75 16.65-104.1 49.2l7.35 9.7 18.3 24.15 94.3 8.95 24.7 2.3 37.65-31.9 9.55-8.1 28.25-58.2 6.6-13.6m-224.9 83.1L423.1 75.2Q534.5-9.95 673.45 1.3l-30.8 55.4q57.6-5.85 107.7 18.45l-43.1 58.5h-55.4l-35.9-31.85-32.8 26.7-130.3-10.25-17.7-25.65" fill="#004386"/><path d="m732.15 73.55 7.95 2.65-3.85 5.65L665.2 92.6 636 74.15l3.55-10.3Q670.6 62.5 696.8 66l-27.5 18.4 62.85-10.85M649.85 9.4l10.2.1-75.9 60.5-24.9 2.75L440.7 85.9l-7.35-9.7Q484.7 43.65 537.45 27l34.4 16.35 25.65-30.2q15.95-2.3 32.05-3.2l-46.4 30.35 9.25 13.3 57.45-44.2M577 63.85l-6.15-15.4-34.9-11.25L466 70.4l111-6.55M151.65 187.1h44.65l-36.05 8.65-8.6-8.65m69.55 21.3-4-5.6 2.65-49.45q6.8 27.5 1.35 55.05m-74.05 35.5-8.25-9.05 8.1-43.05 9.7 11.25-9.55 40.85m-62.6-34.8q-1.25 4.75-2.35 9.55l-13.45 6.1.85-8.2 14.95-7.45m-9.7 54.6-.5 5.95-6.45-2-.2-4.5 7.15.55" fill="#fcfdfd"/><path d="m559.25 72.75 24.9-2.75 75.9-60.5-6.6 13.6-10.6 9.55L585.2 84.4l-7.2 36.9-24.7-2.3-15.3-14.1V84.4l21.25-11.65" fill="#1344de"/><path d="M732.15 73.55 669.3 84.4 696.8 66q18.95 2.5 35.35 7.55m-64.9 53.95h-12.3l7.2-29.8h9.2l-4.1 29.8" fill="#3fd7f9"/><path d="m705.6 133.65 5.75 8.85q8.5 13.4 3.5 21.3L568.2 269.1l-129.7-39-90.3 68.7-23.55 33.9-46.2 18.45 1.8-9.4q10.25-9.7 7.4-32.15l2.1 10.75L320.5 306l-22.05-24-9.05 9.25Q320.25 210 325 137.4q-31.7 56.4-73.1 103.15 6.2-75.7-37.55-136.7-2.25 37.85-16.5 69.7L181 144.9l-47.2 8.2 23.9 30.4-9.05.6-39.45-39.65-4.1 8.5-40.05 5.3q-7.7 18.5-9.05 35.65l-7.35-12.2q2.15-13.8 7.35-28.05l26.5-33.35q66.45 27.4 130.3-50.25l160.05 19.5 62.3 3.05 17.7 25.65 130.3 10.25 32.8-26.7 35.9 31.85h53.75" fill="#97a8d9"/><path d="m730.05 91-24.8 36.5h-18.5l20.55-33.9 22.75-2.6m-114.4-1.6L578 121.3l7.2-36.9 57.65-51.75-27.2 56.75m-396.3 29.7q17.6 30.2 24.45 63.85l-8.45 36.1q.05-51.6-16-99.95m28.45 95.55q.75 14.6-.35 29.85l-3.8 3.35-3.45-7.35 7.6-25.85m-124.55 11.9-1.4-4.25 31.4 42.3 32.55-5-5.45 6.05-9.2.95-33.9 3.5-14-43.55m-40.6 67.3 9.95 12.8-19.75-11-2.25-1.35-.35-2.55-.45-3.3 12.85 5.4m83.15 54-19.55-54.7 28.15-20.9-15.65 17.4 14.55 63.6-4.85-3.45-2.65-1.95" fill="#2a91ec"/><path d="m654.95 127.5-23.05-20.95 8.7-23.2 21.55 14.35-7.2 29.8" fill="#268be7"/><path d="M649.85 9.4 592.4 53.6l-9.25-13.3 46.4-30.35q10.1-.55 20.3-.55m-52.35 3.75-25.65 30.2L537.45 27q29.8-9.45 60.05-13.85m55.95 9.95L625.2 81.3l-9.55 8.1 27.2-56.75 10.6-9.55" fill="#90f8fe"/><path d="M577 63.85 466 70.4l69.95-33.2 34.9 11.25 6.15 15.4m-375.75 128.7q11.85 13.5 21.95 28.8l2.75 4.25-13.6 9.95-39-38 27.9-5m15.95 10.25-8.85-11.5-.4-.45.05-.1q8.4-15 11.1-40.2l.75 2.8-2.65 49.45m-97 17.25 6.5 59.6h-20.5l5.65-5.05 1.85-.5 6.5-54.05m-55.85 3.1q-.85 6.3-1.3 12.5l-.55 8.9L41.6 191l22.75 32.15" fill="#2fedff"/><path d="m440.7 85.9 118.55-13.15L538 84.4v20.5l15.3 14.1-94.3-8.95-18.3-24.15" fill="#0f1a5c"/><path d="m280.25 341.75-1.8 9.4 46.2-18.45 23.55-33.9 90.3-68.7-11.4 93.4-25.55 7.1q-86.05 44.7-166.35 36l10.7-18.35q23.95 3.3 34.35-6.5" fill="#7c7db9"/><path d="M714.85 163.8q-23.7 34.25-107.05 84.75l-72.85 52.3L403.6 336.8q-91.45 47.15-173.2 38l4.8-8.2q80.3 8.7 166.35-36l25.55-7.1 106.8-29.8 34.3-24.6 146.65-105.3M129.2 371.25q-36.55 8.25-47.05-30.05Q32.4 298.55 0 242.55q30.7 26.55 61.45 46.1l9.15 5.65 2.25 1.35 19.75 11 4.65 5.6q-6.95-2.9-13.65-6.1-34.85-16.7-62-41.05l4.95 8.05q22.7 35.45 58.65 66.05 5.65 31.2 39.55 28.55.5-3.15-.1-5.9-2.3-11-21.45-15.6-1.45 7.75 9 13.5-12.4-1.15-15.5-13.5 7.7-10.1 18.5 0l1.7 1.35q10.85 8.6 13.65 14.75 1.55 3.45.55 6.15-.55 1.5-1.9 2.75m-86.9-200.1q11.05-57.2 68.9-113.5l8.05 1Q72.5 108.3 56 153.65q-5.2 14.25-7.35 28.05l-6.35-10.55" fill="#140502"/><path d="m119.25 58.65 93.55 11.4Q148.95 147.7 82.5 120.3L56 153.65q16.5-45.35 63.25-95M438.5 230.1l129.7 39-34.3 24.6-106.8 29.8 11.4-93.4" fill="#5c60a4"/><path d="M61.45 288.65q-33.5-51.95-25.35-127.7l6.2 10.2 6.35 10.55L56 193.9l12.15 20.15 17.4-8.5-1 3.55-14.95 7.45-.85 8.2q-.9 9.95-1.15 19.8-.25 9.35.1 18.6l.2 4.5.2 3.05q.55 8.9 1.7 17.75l.45 3.3.35 2.55-9.15-5.65m157.9-169.55-1-1.7q-3.5 37.8-16.45 63l-1.1 2.1 7.15 8.35.4.45 8.85 11.5 4 5.6q10.9 15.65 19 32.1l3.45 7.35-3.45 3.05q-3.95-7.9-8.3-15.45l-5.95-9.85-2.75-4.25q-10.1-15.3-21.95-28.8l-4.95-5.45h-44.65l-3-3 9.05-.6 36.6-2.5 3.55-7.45q14.25-31.85 16.5-69.7 43.75 61 37.55 136.7l-4.45 3.95q1.1-15.25.35-29.85-.9-16.2-4-31.7-6.85-33.65-24.45-63.85M62.5 244.55l.55-8.9q.45-6.2 1.3-12.5l.75-5.1-28-42.05q-.15 31.65 6.1 58.05 6.95 29.6 21.9 52.6l-.7-4.3q-1.55-10.45-1.95-21.15l-.15-9.7.2-6.95" fill="#002a80"/><path d="m207.95 190.85-7.15-8.35 1.1-2.1q12.95-25.2 16.45-63l1 1.7q16.05 48.35 16 99.95l8.45-36.1q3.1 15.5 4 31.7l-7.6 25.85q-8.1-16.45-19-32.1 5.45-27.55-1.35-55.05l-.75-2.8q-2.7 25.2-11.1 40.2l-.05.1M82.2 218.65q-4.35 18.6-6.55 37.75l-.8 7.3-7.15-.55q-.35-9.25-.1-18.6.25-9.85 1.15-19.8l13.45-6.1M62.3 251.5l.15 9.7q.4 10.7 1.95 21.15l.7 4.3q-14.95-23-21.9-52.6l-.1-25.5 19.2 42.95" fill="#2250c1"/><path d="m196.3 187.1 4.95 5.45-27.9 5 39 38 13.6-9.95 5.95 9.85L212 252.6l-.65-5.5-51.1-51.35 36.05-8.65M74.35 269.65l-.6 9.35-.1 2.15 9 12.7-12.85-5.4q-1.15-8.85-1.7-17.75l-.2-3.05 6.45 2" fill="#2150c1"/><path d="M197.85 173.55 194.3 181l-36.6 2.5-23.9-30.4 47.2-8.2 16.85 28.65M56 193.9q1.35-17.15 9.05-35.65l40.05-5.3q-12.1 25.7-19.55 52.6l-17.4 8.5L56 193.9m62.15 15 .75 1.8-1.2-1.65.45-.15m171.25 82.35 9.05-9.25 22.05 24-30.75 14.35-2.1-10.75q-.6-4.45-1.7-9.45l3.45-8.9" fill="#edf5fc"/><path d="m230.4 374.8-5.55 9.5-22.4-12.3.7-1.9.45-1.4 5.25 2.55 9.45 4.55 5.05 2.45 18.55-31.05-3.95-4.6-7.75-9.1-2.85-3.3q-3.4-21.4 15.5-33.2 4.2-2.7 9.55-4.85 7.75 2.75 11.65 6.9 7.35 7.85.35 21.6-8.3 9.7-13.95 4.2-2.25-2.2-4.05-6.65l5.55 1.3q13.3 1.75 9.95-14.35-8.15-13.55-23.5 0-12.2 22.15 3.7 35.7l3.8 2.85 10.9.9q19.4-.05 25.35-14.3 3.45-8.35 2.4-21.45-.45-5.25-1.6-11.2l1.9-4.5q21.9-53.55 30.75-106.1 2.9-17.3 4.35-34.5-6.6 12-13.7 23.35l-.3.5q-30.4 48.3-69.55 84.6-10.8 10-22.25 19.1l-.3-5.95 26.35-23.25 3.45-3.05 3.8-3.35 4.45-3.95Q293.3 193.8 325 137.4q-4.75 72.6-35.6 153.85l-3.45 8.9q1.1 5 1.7 9.45 2.85 22.45-7.4 32.15-10.4 9.8-34.35 6.5l-10.7 18.35-4.8 8.2" fill="#130408"/><path d="m305.95 176.4.3-.5q7.1-11.35 13.7-23.35-1.45 17.2-4.35 34.5l-36.15 112.1q9.1 37.4-22.65 45.45l-10.9-.9-3.8-2.85 8.35-16q5.65 5.5 13.95-4.2 7-13.75-.35-21.6l37.45-96.55-58.65 94.5q-18.9 11.8-15.5 33.2l2.85 3.3-21.35 37.75-5.25-2.55 2.2-7.1q5.35-18.75 7.4-40.2l25.45-42.85q9.05-11.5 17.65-23.35 27.2-37.6 49.65-78.8" fill="#2e3656"/><path d="M202.45 372q-2.95 8.45-6.65 16.3-11.75-5.5-22.9-12.05l-3.85-2.3q-15.85-9.65-30.45-21.35-11.7-9.4-22.55-20.15L112 328.4q-7.55-7.8-14.75-16.15l-4.65-5.6-9.95-12.8-9-12.7.1-2.15.6-9.35.5-5.95.8-7.3q2.2-19.15 6.55-37.75 1.1-4.8 2.35-9.55l1-3.55q7.45-26.9 19.55-52.6l4.1-8.5 39.45 39.65 3 3 8.6 8.65 51.1 51.35.65 5.5q1.25 10.85 1.85 21.2v.35l.3 5.95.25 7.1q.35 17.85-1.2 34.2-2.05 21.45-7.4 40.2l-2.2 7.1-.45 1.4-.7 1.9M120.2 160.75l-10.5-10.8-1.05 2.5q-22.5 53.65-29.5 108.25-1 7.95-1.7 15.95l-.3 3.5 2.15 3q7.35 10.25 15.15 19.65 8.3 10.1 17.05 19.25 9.35 9.75 19.2 18.45l13.1 10.85q8.8 6.9 18 13 13.25 8.75 27.3 15.85l3.2 1.6q3.1-6.2 5.7-12.95l2.95-8.4q2.7-8.5 4.6-17.8l.75-3.75q5.15-27.85 3.6-62.4l-1-14.8-1.05-10.6-87.65-90.35" fill="#894800"/><path d="M77.45 276.65q.7-8 1.7-15.95 7-54.6 29.5-108.25l1.05-2.5 10.5 10.8 22.55 26.15-27.55-19.95 3.7 43.75-.75-1.8-11.45-27.45-26.35 95.7-2.9-.5" fill="#fcfcf7"/><path d="m208.9 261.7 1 14.8q1.55 34.55-3.6 62.4l-4.95-4.7q5.25-22.85 4.15-54.6l-.85-14.6 4.25-3.3m-3.35 80.95q-1.9 9.3-4.6 17.8l-2.95 8.4q-2.6 6.75-5.7 12.95l-1.4-7.9 9.3-34.75 5.35 3.5M189.1 380.2q-14.05-7.1-27.3-15.85l-.95-15.4q8.4 7.4 17 13.75l1.45 1.05 9.8 16.45m-45.3-28.85-13.1-10.85q-9.85-8.7-19.2-18.45l12.65-11.95q9.45 11.75 19.25 22.05l.4 19.2m-63.45-74.2 26.35-95.7 11.45 27.45-.45.15-8 62.55-23.05 6.55-6.3-1m38.55-66.45-3.7-43.75 27.55 19.95 4.25 4.9-8.1 43.05-12.75-14-7.25-10.1v-.05m28.25 33.2 9.55-40.85 43.7 50.6-7.4 2.55 1.3-1.6-32.15 5.75-15-16.45" fill="#ffee0c"/><path d="m120.2 160.75 87.65 90.35-7.45 2.55-43.7-50.6-9.7-11.25-4.25-4.9-22.55-26.15" fill="#f1aa1a"/><path d="m121.85 222.3 1.4 4.25 8.45 50.1 39.45-10.05-37.45 15.55 15.55 41.05-21.05-40.05h-21l12 13.5-25.55-17.5 18.2-4.55-5.65 5.05h20.5l-6.5-59.6 1.65 2.25" fill="#f1fcfd"/><path d="M111.5 322.05q-8.75-9.15-17.05-19.25-7.8-9.4-15.15-19.65l13.25-.75 23.15 16.75 8.45 10.95-12.65 11.95m27.4-87.2 8.25 9.05 15 16.45-6.9 1.25-29.1-40.75 12.75 14" fill="#f2ab1a"/><path d="m126.15 220.85 29.1 40.75 6.9-1.25 32.15-5.75-1.3 1.6-29.25 35.95 15.55 71.6-1.45-1.05q-8.6-6.35-17-13.75l-4.95-4.5q-6.25-5.8-12.35-12.15l-.15-.15q-9.8-10.3-19.25-22.05l-8.45-10.95-23.15-16.75-5.9-4.25 23.05-6.55 8-62.55 1.2 1.65v.05l7.25 10.1m-4.3 1.45-1.65-2.25-6.5 54.05-1.85.5-18.2 4.55 25.55 17.5q12.4 18.8 26.65 33.45 9.55 9.8 19.95 17.75l2.65 1.95 4.85 3.45-14.55-63.6 15.65-17.4 5.95-6.6 5.45-6.05-32.55 5-31.4-42.3" fill="#005798"/><path d="m119.2 296.65-12-13.5h21l21.05 40.05-15.55-41.05 37.45-15.55-39.45 10.05-8.45-50.1 14 43.55 33.9-3.5 9.2-.95-5.95 6.6-28.15 20.9 19.55 54.7q-10.4-7.95-19.95-17.75-14.25-14.65-26.65-33.45" fill="#41effe"/><path d="m79.3 283.15-2.15-3 .3-3.5 2.9.5 6.3 1 5.9 4.25-13.25.75" fill="#cd6214"/><path d="m62.5 244.55-.2 6.95-19.2-42.95.1 25.5q-6.25-26.4-6.1-58.05l28 42.05-.75 5.1L41.6 191l20.9 53.55" fill="#fbfcfc"/><path d="m26.55 273.15 9.85 10.2 53.3 55.35q6.7 30.8 34.95 23.15.6 2.75.1 5.9-33.9 2.65-39.55-28.55-35.95-30.6-58.65-66.05" fill="#7afcfd"/><path d="M97.25 312.25q7.2 8.35 14.75 16.15l4.05 4.05Q73.1 314.8 36.4 283.35l-9.85-10.2-4.95-8.05q27.15 24.35 62 41.05 6.7 3.2 13.65 6.1" fill="#375a9f"/><path d="M161.8 364.35q-9.2-6.1-18-13l-.4-19.2.15.15q6.1 6.35 12.35 12.15l4.95 4.5.95 15.4m29.1 9.55-8.1-46.2 17.4 11.45-9.3 34.75" fill="#eba318"/><path d="M116.05 332.45q10.85 10.75 22.55 20.15l-21.7-5-1.7-1.35q-10.8-10.1-18.5 0 3.1 12.35 15.5 13.5-10.45-5.75-9-13.5 19.15 4.6 21.45 15.6Q96.4 369.5 89.7 338.7l-53.3-55.35q36.7 31.45 79.65 49.1" fill="#2a304e"/><path d="M131.1 368.5q1-2.7-.55-6.15l38.15 16.5-.4 4.95-37.2-15.3" fill="#67fbfd"/><path d="m172.9 376.25-.1 13.05-43.6-18.05q1.35-1.25 1.9-2.75l37.2 15.3.4-4.95.35-4.9 3.85 2.3" fill="#001f63"/><path d="M138.6 352.6q14.6 11.7 30.45 21.35l-.35 4.9-38.15-16.5q-2.8-6.15-13.65-14.75l21.7 5m100.05-74.05L213.2 321.4q1.55-16.35 1.2-34.2l6.95 12.45q8.85-10.4 17.3-21.1" fill="#140401"/><path d="m207.85 251.1 1.05 10.6-4.25 3.3-22.35 17.65-3 30.5 22.05 21.05 4.95 4.7-.75 3.75-5.35-3.5-17.4-11.45 8.1 46.2 1.4 7.9-3.2-1.6-9.8-16.45-15.55-71.6L193 256.2l7.4-2.55 7.45-2.55" fill="#b65613"/><path d="M214.15 280.1Q225.6 271 236.4 261q39.15-36.3 69.55-84.6-22.45 41.2-49.65 78.8-8.6 11.85-17.65 23.35-8.45 10.7-17.3 21.1l-6.95-12.45-.25-7.1" fill="#7afcfe"/><path d="M231.9 235.45q4.35 7.55 8.3 15.45l-26.35 23.25v-.35q-.6-10.35-1.85-21.2l19.9-17.15" fill="#2589e5"/><path d="m204.65 265 .85 14.6q1.1 31.75-4.15 54.6l-22.05-21.05 3-30.5L204.65 265" fill="#efa81a"/><path d="m230.2 333.5 7.75 9.1-19.65 33.2-9.45-4.55 21.35-37.75" fill="#2e477c"/><path d="M242.1 340.85q-15.9-13.55-3.7-35.7 15.35-13.55 23.5 0l-9.95 14.35-5.55-1.3q1.8 4.45 4.05 6.65l-8.35 16" fill="#2f4577"/><path d="m237.95 342.6 3.95 4.6-18.55 31.05-5.05-2.45 19.65-33.2" fill="#2a304a"/><path d="M261.9 305.15q3.35 16.1-9.95 14.35l9.95-14.35" fill="#2a2f48"/><path d="M315.6 187.05q-8.85 52.55-30.75 106.1l-1.9 4.5q1.15 5.95 1.6 11.2 1.05 13.1-2.4 21.45-5.95 14.25-25.35 14.3 31.75-8.05 22.65-45.45l36.15-112.1" fill="#7cfafc"/><path d="M264.05 299.05q-3.9-4.15-11.65-6.9-5.35 2.15-9.55 4.85l58.65-94.5-37.45 96.55" fill="#375ba1"/></g><g id="u" fill-rule="evenodd"><path d="m135.85 81.1-10.7-72.4-2.85 1.95L79.8 39.7l-8.7 5.95 7.35-10.75L127.7 0q12.6 48.05 15.4 99l34.45 61.85-2.25.8L138.45 99l-2.6-17.9m-78.9 93.1-25.7-70.6 4.6-6.65 28.3 77.85-7.2-.6" fill="#3d4477"/><path d="m122.3 10.65 2.85-1.95 10.7 72.4q-7-10.4-15-18.3l1.45-52.15" fill="#2f96ed"/><path d="m71.1 45.65 8.7-5.95q9.3 2.1 17.85 6.3l-3.8 41.7 1.4 59.35-25.95 24.4-25.5-86.1 27.3-39.7" fill="#7c7db9"/><path d="m79.8 39.7 42.5-29.05-1.45 52.15q-10.7-10.65-23.2-16.8-8.55-4.2-17.85-6.3" fill="#38e9fc"/><path d="m135.85 81.1 2.6 17.9 36.85 62.65-7.05 2.5-13.35-22.05-2.1 1.4q-21.4-55.45-41.5-78.35l2.05 70.25 10.9 26.65-1.7 1.05-22.05-21-5.25 4.95-1.4-59.35 3.8-41.7q12.5 6.15 23.2 16.8 8 7.9 15 18.3" fill="#97a8d9"/><path d="m35.85 96.95 7.95-11.6 25.5 86.1-3.65 3.45-1.5-.1-28.3-77.85m168.8 90.3 30.25 6.15-12.3 24.6 10.75 18.45-7.15 12.65-4.25-3.5 5.25-9.15L219 217l4.35-10.05 4.35-10-15.8-6.65-7.25-3.05m-158.95 1.5 7.1 17.95-10.85 14.7-.2.15L33.8 218l10.8-12.8-4.15-21.55 5.25 5.1" fill="#71feff"/><path d="m175.3 161.65 2.25-.8 36.35-13.1-2.6 31.8 31.3 11.25-14.35 28.25L238 237l-8.95 14.45-2.85-2.35 7.15-12.65L222.6 218l12.3-24.6-30.25-6.15.3-3.55 2.25-28.8-40.55 13.85-11.75-20.5-30.8 21-22.05-18.45-31.3 29.75-31.3-2.05 1 5.15 4.15 21.55L33.8 218l7.95 3.55-5.55 3.9-9.05-9.45 12.3-14.9-5.15-28.7 22.65 1.8 7.2.6 1.5.1 3.65-3.45 25.95-24.4 5.25-4.95 22.05 21 1.7-1.05 28.55-18.55 2.1-1.4 13.35 22.05 7.05-2.5" fill="#3a6874"/><path d="m40.45 183.65-1-5.15 31.3 2.05 31.3-29.75 22.05 18.45 30.8-21 11.75 20.5 40.55-13.85-2.25 28.8-27.5 25.6-13.85-12.35-20.5 16.95-32.85-21.05-12.3 13.85-22.75-9.65-9.05 11.7-20.45-20-5.25-5.1" fill="#e9eae6"/><path d="m124.25 162.05-10.9-26.65-2.05-70.25q20.1 22.9 41.5 78.35l-28.55 18.55" fill="#edf5fc"/><path d="m204.95 183.7-.3 3.55 7.25 3.05 11.45 16.65L219 217l8.2 19.45-5.25 9.15L187.2 217l-30.3 37.45-47.2-51.8-42.55 33.85-19-19.5-6.2 4.4 10.85-14.7-7.1-17.95 20.45 20 9.05-11.7 22.75 9.65 12.3-13.85 32.85 21.05 20.5-16.95 13.85 12.35 27.5-25.6" fill="#99bbc2"/><path d="m226.2 249.1 2.85 2.35 10.95 42-36.4 33.85-51.25-20.55L91.3 343.2l-38.5-40.55-44.1 11.3L0 284.7l16.85-45.65 19.35-13.6 5.55-3.9.2-.15 6.2-4.4 19 19.5 42.55-33.85 47.2 51.8L187.2 217l34.75 28.6 4.25 3.5m-17.85 65.45 26.05-23.2-6.5-33.4-3.25 3.2-23.5 23.05-.05-3.1-35.95-15.4 35.9 10.8 26.85-18.55-.45-2.35-38.2-31.45-4.1 4.95-24.1 28.9-1.15 12.45-2.95 30.65L196 318.2l5.55 2.4 6.8-6.05M154.7 266l.7-4.4-40.8-45.85-4.85-5.45-40.55 31.85-1.3 6.3-10.5 51.15 28.1 30.95 6.8 7.5 3.6-2.1 52.3-30.75 1-5.95 5.5-33.25m-91.05-18.2.95-3.6-2.2-2.95-13.2-17.6-28.7 18.45-15.15 37.35-2.8 6.8 6.15 20 3.6-12.3 8.2-28.25 2.55-1.05 34.4-14.85-26.7 14.35-8.7 4.65-10.8 41.05 8.3-2.5 9.25-2.8 21.45-6.5 11.8-44.15 1.6-6.1" fill="#00346e"/><path d="m224.65 261.15 3.25-3.2 6.5 33.4-26.05 23.2 20.4-26.8-4.1-26.6" fill="#69ffff"/><path d="m185.15 229.1 4.1-4.95 38.2 31.45.45 2.35-26.85 18.55-15.9-47.4" fill="#2154ae"/><path d="m201.55 320.6-5.55-2.4-11.35-38.15-24.75-9.6 1.15-12.45 24.1-28.9 15.9 47.4-35.9-10.8 35.95 15.4.05 3.1.4 36.4M85.5 330.55 57.4 299.6l10.5-51.15 32-21.9-7.6 40.2-19.95-8.25-2.95-1.2 2.65 4.15 14.65 22.7-1.2 46.4m-23.1-89.3 2.2 2.95-.95 3.6-6.2 2-34.4 14.85 39.35-23.4m-33.6 63.3-9.25 2.8 8.9-34.25 21.1-9.6-2.9 2.2-17.85 38.85" fill="#2fedff"/><path d="m114.6 215.75 40.8 45.85-.7 4.4-19.5 38.6-20.7 7.9 12.7-31.4L95.9 298v-7.15l41.35-33.6-2.65 1.4-17.2-18.05-2.8-24.85" fill="#047aed"/><path d="m224.65 261.15 4.1 26.6-20.4 26.8-6.8 6.05-.4-36.4 23.5-23.05m-110.05-45.4 2.8 24.85 17.2 18.05 2.65-1.4-41.35 33.6v-5.15l26.95-20.85-23.9 12.65 5.35-53.95-4.4 3-32 21.9 1.3-6.3 40.55-31.85 4.85 5.45M95.9 298l31.3-16.9-12.7 31.4-18.6 7.05V298m-23.55-39.5 23.05 19.05-4.1 53.35v-50.8l-19.25-18.65-2.65-4.15 2.95 1.2m-9.95-17.25-39.35 23.4-2.55 1.05-8.2 28.25-6.95-14.5L20.5 242.1l28.7-18.45 13.2 17.6m-.35 12.65-11.8 44.15-21.45 6.5 17.85-38.85 2.9-2.2 12.5-9.6" fill="#2051ac"/><path d="m196 318.2-39.05-17.1 2.95-30.65 24.75 9.6L196 318.2" fill="#0781ee"/><path d="m135.2 304.6 19.5-38.6-5.5 33.25-14 5.35" fill="#45ffff"/><path d="m114.5 312.5 20.7-7.9 14-5.35-1 5.95-52.3 30.75v-16.4l18.6-7.05" fill="#39ffff"/><path d="m57.45 249.8 6.2-2-1.6 6.1-12.5 9.6-21.1 9.6 2.3-8.95 26.7-14.35" fill="#81f4fd"/><path d="M95.9 290.85v45.1l-3.6 2.1-6.8-7.5 1.2-46.4-14.65-22.7L91.3 280.1v50.8l4.1-53.35-23.05-19.05 19.95 8.25 7.6-40.2 4.4-3-5.35 53.95 23.9-12.65L95.9 285.7v5.15" fill="#f5fcfd"/><path d="m19.55 307.35-8.3 2.5 10.8-41.05 8.7-4.65-2.3 8.95-8.9 34.25" fill="#fcfefe"/><path d="m5.35 279.45 6.95 14.5-3.6 12.3-6.15-20 2.8-6.8" fill="#56ffff"/></g><g id="v" fill-rule="evenodd"><path d="M180.7 154.45 194 127.8Q466.5-8.15 665.2.5l-97.1 50.05q195.55-19 391.1-4.3-91.25 21.15-171 42.9-116.6 45.3-63.4 131-75.75 57.05-69.85 138.6-104.85-3.8-86.2 131.4L261.85 266.4l-130.65 6.05 38.95-92.85.2-.4 7.15-17.1 3.2-7.65m630.55-80.7q50.65-12.45 105.45-24Q735.6 38.8 542.05 62.1q37.45-33.95 97.5-56.45Q401.1 26.7 199.15 132.9l-58.5 133.5 103.15-5.15L347 256.1Q504.3 149 811.25 73.75M349.05 262.3l-72.45 3.4 278.8 206q-4.95-114.6 89.3-124.2 1.35-80.6 71.85-128.35-47.85-63.95 30.75-118.6-271.2 77.3-398.25 161.75" fill="#002a80"/><path d="M811.25 73.75Q676.4 58.25 493.8 92.9l48.25-65.7-94.45 24.65-127.3 42.1L202.25 174l41.55 87.25-103.15 5.15 58.5-133.5Q401.1 26.7 639.55 5.65q-60.05 22.5-97.5 56.45Q735.6 38.8 916.7 49.75q-54.8 11.55-105.45 24" fill="#2f6fa0"/><path d="M243.8 261.25 202.25 174 320.3 93.95l127.3-42.1 94.45-24.65-48.25 65.7q182.6-34.65 317.45-19.15Q504.3 149 347 256.1l-103.2 5.15m105.25 1.05Q476.1 177.85 747.3 100.55q-78.6 54.65-30.75 118.6-70.5 47.75-71.85 128.35-94.25 9.6-89.3 124.2l-278.8-206 72.45-3.4" fill="#42aadb"/><path d="m131.2 272.45-3.9 9.3L0 337.2l75.95-136.55 104.75-46.2-3.2 7.65-58.3 26.55-16.7 7.6-22.75 10.35-1.7.75-49.3 84.7 52.1-70.1L38.9 285l-27.6 41.45 22.8-9.8 8.05-3.45 14.15-6.1 65.9-28.4-35.45-62.6L138 193.45l27.15-11.95.15.25-6.5 3.3-27.2 13.9-38.65 19.7 32.3 57.5 2.9-6.75 2.15-5.1 35-82.55 4.5-2.3.35.15-38.95 92.85" fill="#005892"/><path d="m122.2 278.7-65.9 28.4-4.45-32.5 22.05 5.15 31.85-23.6 16.45 22.55m36.6-93.65 6.5-3.3-35 82.55 28.5-79.25m-74.6 49 7.2 6.65-7.7 23.1-14.4 11.8-14.35-5.65 29.25-35.9" fill="#2fedff"/><path d="m177.5 162.1-7.15 17.1-.55.25-4.65 2.05L138 193.45l-18.8-4.8 58.3-26.55m-97.75 44.5 22.75-10.35 1.2 4.45L82.65 212l-2.9-5.4" fill="#69edfd"/><path d="M138 193.45 86.75 216.1l35.45 62.6-16.45-22.55-31.85 23.6-22.05-5.15-8.75 12.85-.95 25.75-8.05 3.45L38.9 285l41.95-63.05-52.1 70.1 49.3-84.7 1.7-.75 2.9 5.4 21.05-11.3-1.2-4.45 16.7-7.6 18.8 4.8m-53.8 40.6-29.25 35.9 14.35 5.65 14.4-11.8 7.7-23.1-7.2-6.65" fill="#fcfdfd"/><path d="m128.15 269.4-10.6-30.2 14.05-40.25 27.2-13.9-28.5 79.25-2.15 5.1" fill="#2a91ec"/><path d="m131.6 198.95-14.05 40.25 10.6 30.2-2.9 6.75-32.3-57.5 38.65-19.7" fill="#4d45c0"/><path d="m56.3 307.1-14.15 6.1.95-25.75 8.75-12.85 4.45 32.5m-22.2 9.55-22.8 9.8L38.9 285l-4.8 31.65" fill="#81f4ff"/></g><g id="w" fill-rule="evenodd"><path d="M117.65 1q20.25-2.25 43.4.65L191.8 32.4q17 14.5 24.6 36.3 6.65 19.05 6.1 43.65l-3 14.45 2.8 46.8q-33.95 79.6-115.6 38.35-74.4-30.5-105.35-100.4L0 104.25Q5.25 90 11.6 77.75q10.85 53.65 64.3 61.35 29.15 83.55 93.35 32.85Q232.15 78.9 117.65 1" fill="#99aadb"/><path d="M216.4 68.7q-7.6-21.8-24.6-36.3l46.2 5.15-21.6 31.15" fill="#3ae9fc"/><path d="m219.5 126.8 3-14.45 15.5-74.8-46.2-5.15-30.75-30.75 36.9 28.7h47.2l-20.5 98.5q10.5 41.55 6.15 83.1l-11.3-85.15" fill="#3d4477"/><path d="M222.5 112.35q.55-24.6-6.1-43.65L238 37.55l-15.5 74.8" fill="#2f96ed"/><path d="m222.3 173.6-2.8-46.8 11.3 85.15-5.7 8.45-2.8-46.8" fill="#3ae2f6"/><path d="M1.35 111.55q30.95 69.9 105.35 100.4 81.65 41.25 115.6-38.35l2.8 46.8-13.8 20.3q-72.9 21.55-142.55-14.4-52.5-40.15-67.4-114.75" fill="#7c7db9"/><path d="M117.65 1q114.5 77.9 51.6 170.95-64.2 50.7-93.35-32.85-53.45-7.7-64.3-61.35Q47.3 8.6 117.65 1" fill="#edf5fc"/><path d="m0 104.25 1.35 7.3q14.9 74.6 67.4 114.75 69.65 35.95 142.55 14.4-44.75 33.6-134.35 0Q3.55 188.4 0 104.25" fill="#4e5388"/></g><g id="x" fill-rule="evenodd"><path d="m635.45 58.85 22.55 6.7 116.55-7.2L707.8 33.7Q501.85-29.85 235.25 61.1l-12.5-1.25q335.2-119.75 564.65 0l-119.1 11.3q206.35 99.25 381.9 283.35-311.15-160.7-533.8-195.7-153.15 26.7-91.4 59.15-84.1 34.8-97.5 103.7-88 20-201.2 120.1H116q91.15-81.7 205.35-127.3 2.45-10.95 6.5-20.95 20.45-51.25 80.75-77.6-17.55-18.45 1.8-33 21-15.85 85.5-27.1-55.1-7.35-104.6-6.7l1.3-4.6q247.3-4.35 635 194.1-54.8-59.65-121.5-112.85-117.05-93.35-270.65-166.9m-444.3 128.9q4.35 7.15 5.45 15.7 8.8 68.25-191.65 223.4L0 425.35l118.1-106.8q90.75-79.8 63-128.05l10.05-2.75" fill="#002a80" transform="translate(0 .05)"/><path d="M235.25 61.1q266.6-90.95 472.55-27.4l66.75 24.65L658 65.55l-22.55-6.7q-164.75-11.7-340.8 8.2l-59.4-5.95M906.1 225.75q66.7 53.2 121.5 112.85-387.7-198.45-635-194.1l3.65-12.85Q681.15 152.6 966 293.4l-59.9-67.65M410.4 182.9q-19.35 14.55-1.8 33-60.3 26.35-80.75 77.6l-58.65-75.05L382 169.4l28.4 13.5m-122.75-62.1q-7 11-13 22.5l-27.15.95 15.5-25.4 24.65 1.95m-59.15 54.5 31.85-.65q-5.6 14.2-9.8 29.15l-53.95-.35q-1.1-8.55-5.45-15.7l35.75-9.85 1.6-2.6" fill="#42aadb" transform="translate(0 .05)"/><path d="m392.6 144.5-1.3 4.6-5.3 18.55-4 1.75-112.8 49.05-24.85 10.8q2.6-12.95 6.2-25.45 4.2-14.95 9.8-29.15 4.8-12.35 10.65-24.2h-27.3l-15.2 24.85-1.6 2.6-35.75 9.85-10.05 2.75-141.05 38.75Q77.2 131.8 150.9 52.65l71.85 7.2 12.5 1.25 59.4 5.95-31.65 51.8-15.5 25.4 27.15-.95q6-11.5 13-22.5 7.1-11.2 15.2-21.9Q361.7 72.6 413.7 70.15l-17.45 61.5-3.65 12.85m16-69.5-5.45.35q-49.4 3.75-93.1 27.9l-1.8 1-3.35 4.55q-35.45 49-52.35 105.6 47.5-55.75 95-102.25l6.7-6.55L253 217.35 284.6 204l94.5-39.75 1.75-.75 2.4-7.65 20.3-64.7L408.6 75m-48.4 38.2 7.85 3.15 7.9 39.45-15.75-42.6M136.55 80.9q-22 28.65-40.95 58.35-25.3 39.5-45.25 80.75l173.45-48.25 2-3.3 5.35-8.95 44.35-73.8 4.85-8.05-60.8 11.8 1.95-1.85 1.05-1.05 59.35-11.5.45-.8-25.6-3.05L154 58.85l-8.05 10.05-9.4 12m-62.1 119.6q63.85-60.9 137-107.75l-137 107.75" fill="#0f1e64" transform="translate(0 .05)"/><path d="m403.15 75.35 5.45-.35-1.7 1.05-49.15 30.55 2.45 6.6 15.75 42.6-.15.1-20.7-44.5-65.85 77.55 75.95-34.65 4.9 5.4-85.5 44.3-31.6 13.35L354.25 105.6l.95-1.05 47.95-29.2m-55.6 36.8q-47.5 46.5-95 102.25 16.9-56.6 52.35-105.6l42.65 3.35" fill="#fcfdfd" transform="translate(0 .05)"/><path d="m408.6 75-5.05 16.15-22.2 51.7-4.75-32.65 30.3-34.15 1.7-1.05M275.5 85.7l-44.35 73.8 7.05-56.55 37.3-17.25" fill="#2a91ec" transform="translate(0 .05)"/><path d="m383.25 155.85-2.4 7.65-1.75.75-2.4-6.4-.75-2.05-7.9-39.45-7.85-3.15-2.45-6.6 49.15-30.55-30.3 34.15 4.75 32.65 1.9 13" fill="#4e46c1" transform="translate(0 .05)"/><path d="m403.55 91.15-20.3 64.7-1.9-13 22.2-51.7m-24.45 73.1L284.6 204l85.5-44.3-4.9-5.4-75.95 34.65 65.85-77.55 20.7 44.5.9 1.95 2.4 6.4m-24.85-58.65-6.7 6.55-42.65-3.35 3.35-4.55 1.8-1q43.7-24.15 93.1-27.9l-47.95 29.2-.95 1.05M95.6 139.25l-34 71.55 22.2-6.95 129.1-40.45 2.65-.85 7.2-48.25.9 16.05 1.7 29.55.45 8.55-2 3.3L50.35 220q19.95-41.25 45.25-80.75" fill="#71ebfd" transform="translate(0 .05)"/><path d="M391.3 149.1q49.5-.65 104.6 6.7-64.5 11.25-85.5 27.1L382 169.4l4-1.75 5.3-18.55m-130.95 25.55-31.85.65 15.2-24.85H271q-5.85 11.85-10.65 24.2" fill="#2c78b2" transform="translate(0 .05)"/><path d="M635.45 58.85q153.6 73.55 270.65 166.9L966 293.4Q681.15 152.6 396.25 131.65l17.45-61.5q-52 2.45-110.85 28.75-8.1 10.7-15.2 21.9L263 118.85l31.65-51.8q176.05-19.9 340.8-8.2M327.85 293.5q-4.05 10-6.5 20.95-114.2 45.6-205.35 127.3H54.45l-49.5-14.9Q205.4 271.7 196.6 203.45l53.95.35q-3.6 12.5-6.2 25.45l24.85-10.8 58.65 75.05" fill="#3ed7eb" transform="translate(0 .05)"/><path d="m208.35 89.35 5.45-3.05-52.4-10.05 1.85 3.75 13.3 27.05 31.8-17.7m-71.8-8.45 16.9.25 13.25-9.65 54.8 16.1-1.95 1.85q-50.15 47.45-102.9 89.2-16.3 12.85-32.85 25.2l-22.2 6.95 34-71.55q18.95-29.7 40.95-58.35m22.35-11.7-12.95-.3L154 58.85 256.75 71.2l-97.85-2m-20.85 22.2-9.2 11.8 4.5 35.75 38.1-28.05-6.95-19.5q-12.75 2.55-26.45 0m-8.95 50.55-6.2-29-30.75 54.15 36.95-25.15M74.45 200.5l137-107.75q-73.15 46.85-137 107.75" fill="#f6f9fa" transform="translate(0 .05)"/><path d="m163.25 80-1.85-3.75 52.4 10.05-5.45 3.05-45.1-9.35" fill="#152668" transform="translate(0 .05)"/><path d="m208.35 89.35-31.8 17.7L163.25 80l45.1 9.35M166.7 71.5l-13.25 9.65-16.9-.25 9.4-12 12.95.3 7.8 2.3m-28.65 19.9q13.7 2.55 26.45 0l6.95 19.5-38.1 28.05-4.5-35.75 9.2-11.8m-8.95 50.55L92.15 167.1l30.75-54.15 6.2 29" fill="#2fedff" transform="translate(0 .05)"/><path d="M83.8 203.85q16.55-12.35 32.85-25.2l98.7-55.4-2.45 40.15-129.1 40.45M221.5 87.6l-54.8-16.1-7.8-2.3 97.85 2 25.6 3.05-.45.8-59.35 11.5-1.05 1.05" fill="#828eec" transform="translate(0 .05)"/><path d="M116.65 178.65q52.75-41.75 102.9-89.2l60.8-11.8-4.85 8.05-37.3 17.25-7.05 56.55-5.35 8.95-.45-8.55q5.95-31.45-.5-65.65l-1.2 36.1-.9-16.05-7.2 48.25-2.65.85 2.45-40.15-98.7 55.4" fill="#4d45c0" transform="translate(0 .05)"/><path d="m225.35 159.9-1.7-29.55 1.2-36.1q6.45 34.2.5 65.65" fill="#182472" transform="translate(0 .05)"/></g><g id="y" fill-rule="evenodd"><path d="M324.85 154.55 358 169.3l17 20.25-8.2-3.6-49.75-21.85-8.6-3.8-18.05-21.05 34.45 15.3" fill="#2e62df"/><path d="m375 189.55-17-20.25-33.15-14.75-39.25-27.4 127.55 62.65-42.1-15 20 27.55 27.05 4.5-12.5 1.45-13.55 1.55-17.05-20.3m-21.85 26.4L332 200.3l23.9 20.75-17.4-9.7 7.55 32.55 30.05 23.8-2.45-.05-1.5-1.05-2.25-1.6Q217.8 155.7 161.25 21.05L269.4 119.2l-22.45-13.1 29.45 34.1-80.1-74.6 28.05 51.1 80.6 44.05 6.5 9.5 6.5 9.55 19.85 9.05 15.35 27.1M338.5 235.9l-7.5-31.55-7.05-11-26.5-.5 41.05 43.05m-33.55-67.1-75.6-42.55 53.55 61.55 34.05 2.05-12-21.05m-206.9 47.7-1.9-1.15L74.1 176.3l-25-21.05 8.5 13-9.5-9 14.5 21.55 11.5 26.55 12.05 11.5-12.05-4.5 6.75 25.8-29.75-71.4-35.05-46.05 66.1 47.55 12.75 19.3-10.25-7.75 13.5 28.55 21.55 19-21.65-12.85" fill="#fff"/><path d="m317.05 164.1 49.75 21.85-9.35 15.9-5.45-6.55-14.2-6.45-19.85-9.05-6.5-9.55 5.6-6.15" fill="#5f94ee"/><path d="m337.8 188.85 14.2 6.45 5.45 6.55 16.6 20-3.5 7-17.4-12.9-15.35-27.1m18.1 32.2 14.15 12.3 16.55 34.55-10.5-.2-30.05-23.8-7.55-32.55 17.4 9.7m-17.4 14.85-41.05-43.05 26.5.5 7.05 11 7.5 31.55" fill="#71ecfd"/><path d="m366.8 185.95 8.2 3.6 17.05 20.3 13.55-1.55 16 29.05q-6.15 13.4-13.5 25.4l-3.45 5.55q-4.8 7.25-9.95 14.05l-4.1-2.9-4.95-3.4-12-8.4 2.45.05 10.5.2-16.55-34.55-14.15-12.3L332 200.3l21.15 15.65 17.4 12.9 3.5-7-16.6-20 9.35-15.9" fill="#7d8fec"/><path d="m405.6 208.3 12.5-1.45-27.05-4.5-20-27.55 42.1 15 60.6 29.8q14.15 21.1-18.35 53.35l-4.15 3.95q-7.2 6.7-16.35 13.9-11.5 9-26.05 18.75l-5.4 3.6Q385.4 324.9 363 337.75q-20.9-4.05-31.55-15l38.1-13.3q8.95-8.05 17-17.2l3.8-4.5 4.35-5.4q5.15-6.8 9.95-14.05l3.45-5.55q7.35-12 13.5-25.4l-16-29.05" fill="#4c59dd"/><path d="m434.8 302.2 5.5-4.75 4.25-3.8.05-.05 14.55-13.6 3.85-3.85q35.2-35.9 24.7-49.7l12.05 5.9q-6.95 20.5-34 45.1l-4.1 3.65q-7.3 6.3-15.85 12.9l-.25.2-4.9 3.7-5.85 4.3m10.35 1.2 7.2-5.35 46.4 25.95 2 5.05-17.55 6-16.55-5.35-2.15-2.65.2-.55-.65-.05-18.9-23.05m8.85-6.6 15-12.2q23.5 11.95 45.05 32.75 11.6 11.2 22.65 24.95L506.25 321l7.8-3.65L454 296.8m49.75 40.75 8.5-4.5 19 8 4.05 7.5-31.55-11m-4.35 28.15 4.85 21.9-16.7-6.95-13.5-9.8q12.75-3.1 25.35-5.15m5.45 27.45 11.4-13.05 21.5 21.7-32.9-8.65" fill="#18faff"/><path d="M487.7 226.45q10.5 13.8-24.7 49.7l-3.85 3.85-14.55 13.6-.05.05-4.25 3.8-5.5 4.75-.55.4q-8.25 5.9-17.4 12l-6.1 4q-15.75 10.15-34.2 20.9h-.1l-2.8-.25-10.65-1.5q22.4-12.85 40.45-24.6l5.4-3.6q14.55-9.75 26.05-18.75 9.15-7.2 16.35-13.9l4.15-3.95q32.5-32.25 18.35-53.35l13.95 6.85" fill="#0badf7"/><path d="M413.15 189.8 285.6 127.15l-16.2-7.95-108.15-98.15Q217.8 155.7 369.9 265l2.25 1.6 1.5 1.05 12 8.4 4.95 3.4-32.3-17.35-19.8-10.7-13.45 12.55q-5.9 19.45-4.5 33.95 1.45 15.15 10.9 24.85 10.65 10.95 31.55 15l10.65 1.5 2.8.25h.1q18.45-10.75 34.2-20.9l6.1-4q9.15-6.1 17.4-12l.55-.4 5.85-4.3 4.9-3.7.25-.2q8.55-6.6 15.85-12.9l4.1-3.65q27.05-24.6 34-45.1l-12.05-5.9-13.95-6.85-60.6-29.8m59.75 91.3-3.9 3.5-15 12.2-1.65 1.25-7.2 5.35q-9.8 7.15-21.2 14.65l-6.7 4.35q-16.75 10.75-36.65 22.15l-.5-.05q-13.2-1.2-23.8-3.85-61.65-15.4-35.15-79.3l.35-.95 3.8-3.75 10.2-10.25Q197.7 137.1 147.2 0l124.2 114.2 235.4 116.15q-2.35 22.25-33.9 50.75M80.85 240.15v.05l2.8 6.7 11.45 13.15 24.1 27.65.85 6.9-41.95-48.7-33.55-77.65L0 106.7l85.65 61.05 29.5 45.1q32.7 24.15 70.05 44.5l-3.35 4.3q-30.9-16.7-60-36.7l-6.65-4.6-20.3-30.8-12.75-19.3-66.1-47.55 35.05 46.05 29.75 71.4" fill="#0c3277"/><path d="m469 284.6 3.9-3.5q44.95 24.45 80.9 80.95-22.7-.65-45.8 2.4l64.85 50.2-71.6-18.05-8.25-6.2 3.5 22.25-7.75-7.55.35-17.65-20.25-15.25-6.7 1.8-5.05-12.15 15.2-8.55 9.35-5.25 15.05-8.5 3.1 1.05-28.1 18.35h15.7l-6.8 6.95q9.05-2 18.05-3.5l5.5-.9 18.5-2.5 25.2-1.95q-5.5-7.7-11.15-14.75-11.05-13.75-22.65-24.95-21.55-20.8-45.05-32.75m-18 62.65q4.9-5.3 8.7-11.35l1.55 2.15-6 19.45-4.25-10.25m86.75 54.55 18.55 4.85-55.3-41.2-1.6.25q-12.6 2.05-25.35 5.15l13.5 9.8 17.2 12.45.1.05 32.9 8.65" fill="#0f1e64"/><path d="M320.55 297.9q-1.4-14.5 4.5-33.95l13.45-12.55 19.8 10.7 18.25 20.35q-29.45 38.5-56 15.45" fill="#81e7fc"/><path d="m390.6 279.45 4.1 2.9-4.35 5.4-3.8 4.5q-8.05 9.15-17 17.2l-38.1 13.3q-9.45-9.7-10.9-24.85 26.55 23.05 56-15.45L358.3 262.1l32.3 17.35" fill="#667ae8"/><path d="M321.15 261.35q-26.5 63.9 35.15 79.3l-23.8 1.9-9 2 4-8-25.55-28.05q-15.8 20.95-40.85 23.4l1.8 2.1-25.3-19.45-7.25-5.55h-8q.85-3.3 2-6.45 3.1-8.4 8.6-16.05 1.45-2.1 3.15-4.1 9.4-11.45 24.3-21l51.55-1.55.05-.45 9.15 1.95m58.95 83.15.5.05q19.9-11.4 36.65-22.15l3.05 1.5q1.95 23.1-4.8 38.85l-1.35 2.85-9.55-1.8-1.5-21.75-21.15 4.95-1.85-2.5" fill="#9daddc"/><path d="m325.3 256.65-3.8 3.75-.35.95-9.15-1.95-.05.45-51.55 1.55q-17.3 1.05-34.2 6.8-5.7 1.9-11.35 4.35-3.1 1.35-6.15 2.85-10.9 5.25-21.65 12.55l9.5 9.25 1.75 1.75-8.25-4.4q-32.35-18.1-59.45-43.1l-4.05-3.8-7.85-7.75 9.3 70.8 5.2 39.85 44.05 42.05 12.45-12.05 7.1-6.95 30.05 10.5 7.5-9.5 10.5 7.5 19.05-13.05 15-18.5 24.9 28.85-.3.3-25.1-24.65-10 15.05-21.05 18.5-13-8-6.5 9.5-30.45-12.45-.1-.05-6.35 7.85-4.9 6.05-7.8 9.6-48.05-48.05q-6.25-28.95-10.15-58.45l-.85-6.9q-1.45-11.7-2.5-23.5l-.1-1q-1.65-18.3-2.4-36.85l11.35 9.9 46.2 40.2q4.75-7.7 10.1-14.8l3.35-4.3q31.35-39.45 80.7-58.5l5 54.45 41.55.6 12.85 2.75m31 84q10.6 2.65 23.8 3.85l1.85 2.5 10.65 14.55 12 2.25 9.55 1.8 2.5.45q23.7-12.2 40.05-33.55l-6.4-.55q-16.8-1.95-30-8.05l-3.05-1.5 6.7-4.35q16.75 7.05 40.1 8.4l.45.6q-2.15 4.6-4.8 8.85-3.8 6.05-8.7 11.35l-3.65 3.65q-8.8 8.35-20.75 14.65l15.2 1.95 8.35 1.05-3.5 3.6q-8.35 8.4-17.1 14.85-5.5 4.05-11.15 7.35l-4.8 2.65q-6.55 3.35-13.3 5.8l-6.15 1.95q-20.65 5.95-43.25 2.9l-3.4-.55 11 13.55q-29.65 3.35-59.3-4.85l7.2-4.9q6.15 2 12.45 3.35 14.55 2.95 29.7 1.9L334.5 401.1l1.75-10.5 1.75-10.5 1.25 6.4 2.8 14.6q16 2.75 31.45 1.05 8.7-.95 17.25-3.3 21.5-6 41.95-20.9l6.95-5.35-32-4.7-19.05-2.85-14.55-20-33.35-2-8.2-.5 23.8-1.9M262.2 208.3l-.3-2.95q-45.45 19.45-73.4 53.8l-3.35 4.25q-5 6.5-9.4 13.55l9.7 9.45q7.7-8 17.15-14 2.65-1.65 5.4-3.2 24.05-13.2 58.4-14.8l-4.2-46.1m-14.45 228.75-65 32.65 2-47 4.35 1-1.8 36.5 2.2-1.05q24.45-12.1 48.9-24.25l9.35 2.15" fill="#002a80"/><path d="m332.5 342.55 8.2.5 32.85 6.95 13.5 21.05 19.1 2.9q-4.65 16.05-15.4 24.9-8.55 2.35-17.25 3.3-22.85-2.1-34.25-15.65l-1.25-6.4-1.75 10.5-29.85 20.3q-5.55-1.85-10.95-4.25L238.4 434.9l-30.85-7-18.45-4.2 1.85-38.25 6.35-7.85.1.05 30.45 12.45 6.5-9.5 13 8 21.05-18.5 10-15.05 25.1 24.65 3.95 3.9-3.65-4.2-23.35-39.85-32.55 34.05-11.5-6.5-13.05 10.5-26.55-4-7.1 6.95-49.6-69.05v-.05l10.1-3.4 89.15 25.5-12.6-16.9q4.8.25 10.85-2.1L262.9 334l-1.8-2.1q25.05-2.45 40.85-23.4l25.55 28.05-4 8 9-2" fill="#c9e6fa"/><path d="m452.35 298.05 1.65-1.25 60.05 20.55-7.8 3.65 30.45 21.3q5.65 7.05 11.15 14.75L499.8 340.6l-3.1-1.05-15.05 8.5-15-18.35 16.55 5.35 17.55-6-2-5.05-46.4-25.95M413.6 397l4.8-2.65 7.3 18.75-4 3.65-8.1-19.75m-9-33.2-12-2.25L381.95 347l21.15-4.95 1.5 21.75m99.15-26.25 31.55 11-4.05-7.5-19-8-8.5 4.5m-81.2 122.4q-16.15 14.4-30.95 17.75-5.55-8.05-14.1-12.2l14.6-20.3 2.5 15.5 24.45-15.45 3.5 14.7" fill="#edf5fc"/><path d="m340.7 343.05 33.35 2 14.55 20 19.05 2.85-1.5 6.05-19.1-2.9-13.5-21.05-32.85-6.95" fill="#acbbe1"/><path d="M423.95 318.05q11.4-7.5 21.2-14.65l18.9 23.05q-23.35-1.35-40.1-8.4m123.9 39-25.2 1.95-28.45-6.95-6.8 6.9h-15.7l28.1-18.35 48.05 16.45m-66.2-9-9.35 5.25-11.05-15.25-1.55-2.15q2.65-4.25 4.8-8.85l2.15 2.65 15 18.35M462.15 374l6.7-1.8 20.25 15.25-.35 17.65-23.05-22.5-3.55-8.6" fill="#1344de"/><path d="m414.15 365.6 1.35-2.85q21.05-12.7 34.8-30.8l6.4.55q-16.35 21.35-40.05 33.55l-2.5-.45" fill="#3eedff"/><path d="m407.65 367.9 32 4.7-6.95 5.35-26.55-4 1.5-6.05m-73.15 33.2 14.05 15.05q-15.15 1.05-29.7-1.9l18.65-3.1-3-10.05" fill="#2b57db"/><path d="m441.8 367.5-15.2-1.95q11.95-6.3 20.75-14.65l3 8.45-8.55 8.15" fill="#032681"/><path d="M418.4 394.35q5.65-3.3 11.15-7.35l5.95 17.2-9.8 8.9-7.3-18.75" fill="#42ecfe"/><path d="M432.7 377.95q-20.45 14.9-41.95 20.9 10.75-8.85 15.4-24.9l26.55 4" fill="#50b8f4"/><path d="m457.1 361.85 5.05 12.15 3.55 8.6 23.05 22.5 7.75 7.55 30.8 30.05-3 7.05-58.1-58.15-5.25 4.5-21.25 18.2-18.6 15.85 24.3 97.2-6.25 1.95-3.85-16.05-.75-3.2-2.15-8.95-.5-2.15-2.95-12.3-1.3-5.4-4-16.75-1.1-4.55-3.5-14.7-2.9-12.05-10.55 4.5-1.35-3.9-10.1-29.05 6.15-1.95 8.3 25.85 13.1-11.9 4-3.65 9.8-8.9 16.45-14.95 6.7-6.15-8.3-23.75-3-8.45 3.65-3.65 4.25 10.25 1.85 4.35" fill="#101d60"/><path d="m472.3 353.3-15.2 8.55-1.85-4.35 6-19.45 11.05 15.25" fill="#828eec"/><path d="M429.55 387q8.75-6.45 17.1-14.85l5.3 17.1-16.45 14.95-5.95-17.2" fill="#2f51d9"/><path d="m522.65 359-18.5 2.5-5.5.9q-9 1.5-18.05 3.5l6.8-6.95 6.8-6.9 28.45 6.95m-76 13.15 3.5-3.6-8.35-1.05 8.55-8.15 8.3 23.75-6.7 6.15-5.3-17.1m77.65 77.6q-3.75 8.35-7.95 15.9l-55.4-69.55 5.25-4.5 58.1 58.15" fill="#2a91ec"/><path d="M415.5 362.75q6.75-15.75 4.8-38.85 13.2 6.1 30 8.05-13.75 18.1-34.8 30.8" fill="#73b4f2"/><path d="m499.4 365.7 1.6-.25 55.3 41.2-18.55-4.85-21.5-21.7-11.4 13.05-.1-.05-17.2-12.45 16.7 6.95-4.85-21.9" fill="#eaf3fb"/><path d="m324.85 154.55-34.45-15.3 18.05 21.05 8.6 3.8-5.6 6.15-6.5-9.5-80.6-44.05-28.05-51.1 80.1 74.6-29.45-34.1 22.45 13.1 16.2 7.95 39.25 27.4m-19.9 14.25 12 21.05-34.05-2.05-53.55-61.55 75.6 42.55m-224.1 71.35-6.75-25.8 12.05 4.5-12.05-11.5-11.5-26.55-14.5-21.55 9.5 9-8.5-13 25 21.05 22.05 39.05 1.9 1.15 11.5 39-12.9-14.15-14.55-20.5 5.5 26.05h-3.95l-2.8-6.7v-.05" fill="#73fff6"/><path d="M140.1 311.45v.05l-.05-.05h.05m-30.55-55.95-11.5-39 21.65 12.85-21.55-19-13.5-28.55 10.25 7.75 20.3 30.8 6.65 4.6 3.7 11.3-11.35-9.9q.75 18.55 2.4 36.85l-7.05-7.7m9.65 32.2-24.1-27.65 21.6 4.15q1.05 11.8 2.5 23.5" fill="#73c9f1"/><path d="m125.55 236.25-3.7-11.3q29.1 20 60 36.7-5.35 7.1-10.1 14.8l-46.2-40.2" fill="#4a69e0"/><path d="M83.65 246.9h3.95l-5.5-26.05 14.55 20.5 12.9 14.15 7.05 7.7.1 1-21.6-4.15-11.45-13.15m9.5 4 13 8.5-15.05-21.55 2.05 13.05" fill="#e7fdfc"/><path d="m93.15 250.9-2.05-13.05 15.05 21.55-13-8.5" fill="#30c8f3"/><path d="m150.2 308.05-10.1 3.4-13.55-63.8 4.05 3.8q27.1 25 59.45 43.1l-39.85 13.5" fill="#4ebbf4"/><path d="m118.7 239.9 7.85 7.75 13.55 63.8h-.05l-7.65-.45-13.7-71.1" fill="#32edfe"/><path d="m226.75 316.65 12.6 16.9-89.15-25.5 39.85-13.5 8.25 4.4-1.75-1.75q5.45-9.2 17.25-19.35l4.45-3.65q3.7-3 7.95-6 16.9-5.75 34.2-6.8-14.9 9.55-24.3 21-1.7 2-3.15 4.1-5.5 7.65-8.6 16.05H211.8q4.45 13.45 14.95 14.1m-86.65-5.15 49.6 69.05-12.45 12.05-44.05-42.05-5.2-39.85 4.4.3 7.65.45.05.05" fill="#fcfdfd"/><path d="m132.4 311-4.4-.3-9.3-70.8 13.7 71.1" fill="#73f7fd"/><path d="m185.45 286.4-9.7-9.45q4.4-7.05 9.4-13.55l3.35-4.25q27.95-34.35 73.4-53.8l.3 2.95q-34.9 28.45-60.4 57.8l-3.5 4.15q-6.8 8-12.85 16.15" fill="#32eeff"/><path d="m262.2 208.3 4.2 46.1q-34.35 1.6-58.4 14.8-2.75 1.55-5.4 3.2-9.45 6-17.15 14 6.05-8.15 12.85-16.15l3.5-4.15q25.5-29.35 60.4-57.8" fill="#4353d9"/><path d="m196.55 297.2-9.5-9.25q10.75-7.3 21.65-12.55 3.05-1.5 6.15-2.85 5.65-2.45 11.35-4.35-4.25 3-7.95 6l-4.45 3.65Q202 288 196.55 297.2" fill="#96addb"/><path d="M237.6 314.55q-6.05 2.35-10.85 2.1-10.5-.65-14.95-14.1h12.55q-1.15 3.15-2 6.45h8l7.25 5.55" fill="#9eb0dc"/><path d="m306.4 410.9-7.2 4.9-5.8-1.7-21 10.55-5.95 3-18.7 9.4-9.35-2.15 57.05-28.25q5.4 2.4 10.95 4.25m-115.45-25.45-1.85 38.25-4.35-1 1.3-31.2 4.9-6.05" fill="#3d4477"/><path d="M373.5 402.15q-15.45 1.7-31.45-1.05l-2.8-14.6q11.4 13.55 34.25 15.65M196.8 373.6l26.55 4 13.05-10.5 11.5 6.5 32.55-34.05 23.35 39.85-24.9-28.85-15 18.5-19.05 13.05-10.5-7.5-7.5 9.5-30.05-10.5" fill="#9eaedc"/><path d="M299.2 415.8q29.65 8.2 59.3 4.85l-11-13.55 3.4.55q22.6 3.05 43.25-2.9l10.1 29.05-4.15 4.4-5-9.05h-17.05l6.05 8.05-39.1 2.5-34.15 17.05-7.9-22.05-30.55-10.05 21-10.55 5.8 1.7" fill="#5c60a4"/><path d="m336.25 390.6-1.75 10.5 3 10.05-18.65 3.1q-6.3-1.35-12.45-3.35l29.85-20.3" fill="#4bc1f5"/><path d="m272.4 424.65 30.55 10.05 7.9 22.05 6.4 18q-2.4.45-4.85 1.55l-16-35.65-29.95-13 5.95-3" fill="#3c4378"/><path d="M310.85 456.75 345 439.7l39.1-2.5-6.05-8.05h17.05l5 9.05 4.15-4.4 1.35 3.9 10.55-4.5 2.9 12.05-24.45 15.45-2.5-15.5-14.6 20.3q-3.5-1.75-7.45-2.8-23.7 4.5-30.05 23.5-10.9-13.7-22.75-11.45l-6.4-18" fill="#99a7da"/><path d="M312.4 476.3q2.45-1.1 4.85-1.55Q329.1 472.5 340 486.2q6.35-19 30.05-23.5 3.95 1.05 7.45 2.8 8.55 4.15 14.1 12.2 14.8-3.35 30.95-17.75l1.1 4.55-2.8 2.9q-12.25 12.2-28.8 15.85-.2 16.1-15 22v4.05q22.95-5.7 42.65-21.2l7.95-6.85 1.3 5.4-6.7 5.4q-14.65 11-29.3 16.15-6 2.1-12 3.2l-6.9.9v-6.5q-10.4.85-13.05-6l-.25-.75q-.8-2.45-.7-5.8 4.55 12.7 16.25 7.35 3.75-1.7 8.3-5.35 6.35-21.75-14.55-27.5-22.7.45-26.55 24.5l12.05 46.1 4.7-1.1 5.6-1.55q9.65-2.95 19.4-7.35 16.35-7.4 32.95-19.1l7.5-5.5 6.2-4.8.5 2.15q-19 14.55-35.7 23.95-6.45 3.6-12.55 6.45-29.6 13.8-51.1 9.4l-4.9-1.3q-6.25-2-11.75-5.65-3.1-2.05-5.95-4.65l-2.6 7.15q5.45 5 11.75 8.15 4.85 2.4 10.25 3.75l5.9 1.1q21.75 2.9 51.15-10.55 5.85-2.7 12.05-6 16.7-9.05 35.6-22.85l.75 3.2q-84.25 66.3-131.35 23.55l7-23.05q-14.7-9.5-3.5-34.55 2.5-1.8 4.95-2.9m10.8 2.65q-4.9-1.4-9.75 1.3-7.6 8.85-6.9 17.1.6 6.9 6.9 13.4 12.5 6.25 16.05-12 1.45 11.7-3 15.55l1.25 4.75 1.25 4.75-4.15-.9-3.9-.85-3.1-.65-4.9-1.1-2 6q3.35 2.7 6.95 4.8l4.55 2.45 5.25 2.15q11.1 3.95 23.8 3.1L340 496.25q-8.4-14.85-16.8-17.3" fill="#894800"/><path d="M306.55 497.35q-.7-8.25 6.9-17.1 4.85-2.7 9.75-1.3 13.5 15.1 19.7 41.9l-8.4-16.1-6.75 14.3-1.25-4.75q4.45-3.85 3-15.55l-22.95-1.4m21.15 38.35-5.25-2.15-1.5-11.5 3.9.85 2.85 12.8m69-10.65q16.7-9.4 35.7-23.95l2.15 8.95q-18.9 13.8-35.6 22.85l-2.25-7.85m29-21.3-7.5 5.5-3.1-8-21.2 10.05-.95-3.1q14.65-5.15 29.3-16.15l3.45 11.7m-65.45 33.5-4.7 1.1-12.05-46.1q3.85-24.05 26.55-24.5 20.9 5.75 14.55 27.5-4.55 3.65-8.3 5.35 1.95-4.75 2.75-8.7 3.25-16.3-13-19.65-11.7 4.55-15.4 11.6-2.8 5.25-1.1 11.9l10.7 41.5m59.45-49.15q-19.7 15.5-42.65 21.2v-4.05q14.8-5.9 15-22l1 12 20.05-8.5v-8l7.5-6.55-.9 15.9" fill="#f4ac1b"/><path d="m207.55 427.9 30.85 7q-24.45 12.15-48.9 24.25l18.05-31.25" fill="#36aaeb"/><path d="m189.1 423.7 18.45 4.2-18.05 31.25-2.2 1.05 1.8-36.5" fill="#33fafb"/><path d="M329.5 498.75q-3.55 18.25-16.05 12-6.3-6.5-6.9-13.4l22.95 1.4" fill="#ffee17"/><path d="m322.45 533.55-4.55-2.45-.05-9.7 3.1.65 1.5 11.5m-2.85 11.05-3.2-10.65q5.5 3.65 11.75 5.65l1.7 8.75q-5.4-1.35-10.25-3.75" fill="#ffec13"/><path d="M317.9 531.1q-3.6-2.1-6.95-4.8l2-6 4.9 1.1.05 9.7m1.7 13.5q-6.3-3.15-11.75-8.15l2.6-7.15q2.85 2.6 5.95 4.65l3.2 10.65m112.3-45.65-6.2 4.8-3.45-11.7 6.7-5.4 2.95 12.3m-70.9.85q2.65 6.85 13.05 6v6.5l6.9-.9.95 3.7q-16.1.2-20.9-15.3m66.65-18.55-7.95 6.85.9-15.9.25-4.8 2.8-2.9 4 16.75" fill="#cd6114"/><path d="M400.3 402.8q6.75-2.45 13.3-5.8l8.1 19.75-13.1 11.9-8.3-25.85m79.25 106.45Q464.1 521 445.4 527.35l-24.3-97.2 18.6-15.85 39.85 94.95" fill="#3decfe"/><path d="M323.2 478.95q8.4 2.45 16.8 17.3l11.5 42.55q-12.7.85-23.8-3.1l-2.85-12.8 4.15.9-1.25-4.75 6.75-14.3 8.4 16.1q-6.2-26.8-19.7-41.9m62.05 49.4q-9.75 4.4-19.4 7.35l-15.2-51.85q3.7-7.05 15.4-11.6 16.25 3.35 13 19.65-7.75 9.6-19 1.35-.1 3.35.7 5.8l.25.75q4.8 15.5 20.9 15.3l3.35 13.25m6.8-45.1q16.55-3.65 28.8-15.85l-.25 4.8-7.5 6.55v8l-20.05 8.5-1-12" fill="#ffeb09"/><path d="M516.35 465.65q-15.25 27.1-36.8 43.6L439.7 414.3l21.25-18.2 55.4 69.55" fill="#4b48d8"/><path d="M384.15 531.5q6.1-2.85 12.55-6.45l2.25 7.85q-6.2 3.3-12.05 6l-2.75-7.4m34.05-22.25q-16.6 11.7-32.95 19.1l-3.35-13.25-.95-3.7q6-1.1 12-3.2l.95 3.1 21.2-10.05 3.1 8m-52.35 26.45-5.6 1.55-10.7-41.5q-1.7-6.65 1.1-11.9l15.2 51.85m10.45-35.1q-11.7 5.35-16.25-7.35 11.25 8.25 19-1.35-.8 3.95-2.75 8.7" fill="#fcfbf8"/><path d="M333.05 540.9q21.5 4.4 51.1-9.4l2.75 7.4q-29.4 13.45-51.15 10.55l-2.7-8.55" fill="#ffec08"/><path d="m328.15 539.6 4.9 1.3 2.7 8.55-5.9-1.1-1.7-8.75" fill="#fcf9e4"/></g><g id="z" fill-rule="evenodd"><path d="m38.05 19 10.5-8L87.1 0l3 11.5-.45 5.5Q86.5 50.9 74.1 57.05v7.55L49.55 82.1l-20.5-4 11.5 13.5L8 66.6H0q.85-3.3 2-6.45Q10.75 36.5 38.05 19m44.9 2.1q.25-6.3-.35-12.6-47.2 8.45-76.1 50.9l-.25.35L5 61.6q9.2-5.45 17.2-9.45l.25-.1Q68.7 28.9 75.3 54q6.9-16.45 7.65-32.9m-35.7 24.8q-2.3.55-4.8 1.4-3.8 1.2-8.05 3-10.85 4.55-24.9 12.8l4.2 3.5 4.2 3.45 1.85.5 6.75 1.9 9.75 2.65 5.9 1.65 4.9 1.35 24.05-15q.7-23.15-23.85-17.2" fill="#002a80"/><path d="M82.6 8.5q.6 6.3.35 12.6Q51 29.2 22.45 52.05l-.25.1q-8 4-17.2 9.45l1.25-1.85.25-.35Q35 27.3 82.6 8.5" fill="#385d97"/><path d="m47.25 45.9 5.3 9.7h-4.5l-5.6-8.3q2.5-.85 4.8-1.4m1.3 15.7h4l-5.5 16.5-4.9-1.35 6.4-15.15m-28.8 8.95 2.05-10.3 4.7 12.2-6.75-1.9" fill="#1b0c09"/><path d="m42.45 47.3 5.6 8.3-6.7 1.65-2-.3-4.95-6.65q4.25-1.8 8.05-3" fill="#ab511b"/><path d="M48.05 55.6h4.5l-5.3-9.7Q71.8 39.95 71.1 63.1l-24.05 15 5.5-16.5h-4l-6.35-.5-12.7-1 11.85-2.85 6.7-1.65" fill="#fbfdfd"/><path d="m34.4 50.3 4.95 6.65q-9.5-1.25-17.55 3.3-4.25 2.35-8.1 6.35l-4.2-3.5q14.05-8.25 24.9-12.8" fill="#8d2433"/><path d="M41.35 57.25 29.5 60.1l12.7 1-5.95 14-9.75-2.65-4.7-12.2-2.05 10.3-1.85-.5-4.2-3.45q3.85-4 8.1-6.35 8.05-4.55 17.55-3.3l2 .3" fill="#ff5b22"/><path d="m42.2 61.1 6.35.5-6.4 15.15-5.9-1.65 5.95-14" fill="#fff469"/><path d="M82.95 21.1Q82.2 37.55 75.3 54q-6.6-25.1-52.85-1.95Q51 29.2 82.95 21.1" fill="#181739"/><path d="M6.5 59.4Q35.4 16.95 82.6 8.5 35 27.3 6.5 59.4" fill="#a6fafc"/></g><g id="A" fill-rule="evenodd"><path d="m253.95 17.1.3-.15Q282.85 4.2 314.05 0q2 43.6-14.55 87.15l30.05-3.5q2.15 52.15-15 108.15l-3.35.05q15.15-53.95 13.3-102.7-18.2 2.85-36.75 7.7-6.2 5.15-12.1 10.55-23.3 21.35-41.1 46.95l-6.3 9.4q-9.25 14.45-16.8 30.15l-2.3 4.9q-5.3 11.4-9.7 23.5-10.45 28.5-16.15 60.65L143.75 314l28.55 3.5-37.05 22h31.25l-35.25 25.55 4.8 22.2 2.2 10.35 32.55-31.55 11.5-30.55q3.6-15.95 7.85-31.05l1.8-6.2 6.75-8.05q36-41.9 78.15-72.45l4.15-2.95 5-3.5q10.9-7.55 22.3-14.3l8.25-5.1 34.55 1.9-6.75 6.4.25-1.9q-11.85-1.6-24-1.65l-5.5 3.1q-16.1 9.2-31.4 19.7l-4.25 2.95q-7.4 5.2-14.65 10.75-9.35 7.1-18.35 14.8-23.7 20.1-45.25 43.9l-6.6 7.4-8.25 31.75 4-4.05 1.3-1.35 6.65-6.7 2.15-2.1q42.3-41.8 89.25-76.2l4.4-3.2q18.15-13.1 36.95-25.1l-.9 1.3-14.2 13.45-.4.3-18.85 14.55-4.35 3.45-11.05 8.9Q261 270.7 241.25 288.1q-28 24.55-54.9 50.95L173.8 369.1l-14.35 15.7-15 16.4-5.3 5.8-2.9 3.15L97.7 392.1 94.85 374l-6.65-41.95L56.65 317l22.05-15-26.05-11.05 21-16.5q-20.8-14.35-25.5-41.05 0-5.6.6-10.5 4.75-38.15 45.95-32.1 26.85-53.6 58.15-92.3 6.5-8.05 13.2-15.5 12.2-13.5 25.05-24.8 21.7-19.25 45.25-32.3 8.65-4.85 17.6-8.8m-61.65 85.95q42-44.8 104.2-69.45l-11 9-7.85 50.6-4.7 1.45 7-50.55-41.5 28.05q-14.65 9.35-27.4 20.2-24.7 20.95-42.15 47.55-3.3 5-6.3 10.2-31.2 53.4-35.45 127.75-1.75 29.65.85 62.7v.05q.7 9.35 1.8 19l25-15.55-26.55-3.5L155.3 322l-20.5-8.5 41.05-29.05 2.2-10.7q5.35-24.25 13.45-46.65 4.2-11.8 9.25-23.05l1.35-2.95q5.2-11.55 11.3-22.55l1.75-3.2q13.35-23.55 30.45-44.55 12.7-15.6 27.5-29.8l10.2-9.45 11.9-3.25q6.55-21.1 10.45-43.2 3-17 4.5-34.65l.35-4.9q-23.95 5.45-46 14.85-27.45 11.65-51.95 29.35-22.9 16.5-43.3 38.3-7.85 8.35-15.3 17.55l-.15.2q-31.95 39.15-57.1 92.55-24.55-13.8-41.05 14-9.7 22.9 4.15 43.2 2.9 4.25 6.85 8.4 17.25 10.7 28.65 2.55 3.15-2.3 5.9-6.05l.7-3q1.75-8.5-.05-15.35-2.25-8.3-9.65-14.2-9.65-7.85-17.15 4.85-1.25 2.05-2.4 4.65l-.3-3q-.7-15.75 19.85-15.55 10 12.2 16 31.05-.9 20.2-18.25 25.05l-2.55.6-8.2.9-17.55 13 31.05 10.1 4.5 1.45-6.5 1-6.5 1-17.55 13 24.05 9.5 4.1 21.8 7.4 39.8 33.05 16.05L131.4 385q-1.8-9.25-3.25-18.25-6.6-41.15-6.05-78.25 1-66.85 25.2-120.7 18.45-36.4 45-64.75m39.4 99 4.25-7.3q29.3-49.75 70.55-85.6v8.55q1.1 40.15-10.3 75.05l-4.75.55 9.55-74.55q-33.75 31.5-59.7 75.95-4.25 7.2-8.25 14.8-3.6 1.55-7.1 3.25 2.8-5.4 5.75-10.7" fill="#894800"/><path d="m277.65 93.2 7.85-50.6 11-9q-62.2 24.65-104.2 69.45Q244.8 38 310.15 10.45q-1.5 17.65-4.5 34.65-3.9 22.1-10.45 43.2l-11.9 3.25-5.65 1.65" fill="#b95f36"/><path d="M253.95 17.1q-8.95 3.95-17.6 8.8Q153.2 45.55 91.9 95.1q-19.05 15.4-36 33.75-7.35 7.9-14.25 16.35-7 8.5-13.55 17.55Q14.4 189.5 8.35 214.4q-15.6 64.2 19.75 116.1L94.85 374l2.85 18.1-48.55-33.05q-83.9-70.75-24.55-196.3Q89 55.1 253.95 17.1m29.35 74.45L273.1 101q-44.75 13.5-91.4 38.45-9.55 5.05-19.1 10.65 3-5.2 6.3-10.2 6.5-3.7 13.15-7.25 34.8-18.5 71.6-31.55 9.6-3.4 19.3-6.45l4.7-1.45 5.65-1.65" fill="#00003b"/><path d="M246.45 247.95q9-7.7 18.35-14.8l8.7 14.55-12.5 9.75-14.55-9.5m-77.2-159.9q20.4-21.8 43.3-38.3l-5.4 20.45q-6.4 6.5-12.5 13.25l-25.4 4.6" fill="#fcfcfc"/><path d="M212.55 49.75q24.5-17.7 51.95-29.35-31.15 23.1-57.35 49.8l5.4-20.45" fill="#ffee13"/><path d="M166.05 83q-6.7 7.45-13.2 15.5Q99 110.35 41.65 145.2q6.9-8.45 14.25-16.35Q112.55 95.1 166.05 83" fill="#90c9e2"/><path d="m153.8 105.8.15-.2q7.45-9.2 15.3-17.55l25.4-4.6q-56.7 62.5-87.95 143.45-15.5-22.8-35.55-9.05l-8.1-8.6q9.55-13.45 35.65-4.4l55.1-99.05" fill="#ffee16"/><path d="M168.9 139.9q17.45-26.6 42.15-47.55 12.75-10.85 27.4-20.2l41.5-28.05-7 50.55q-9.7 3.05-19.3 6.45-16.85-25.1-71.6 31.55-6.65 3.55-13.15 7.25" fill="#211649"/><path d="m178.05 273.75-2.2 10.7-41.05 29.05 20.5 8.5-27.05 18.55H128q-2.6-33.05-.85-62.7 4.25-74.35 35.45-127.75 9.55-5.6 19.1-10.65-22.1 27-34.75 55.7-3.45 7.7-6.15 15.55l-2.3 7.15q-2.6 8.4-4.35 16.95-1.8 8.4-2.8 16.95-1.2 10.15-1.35 20.45-.25 14.95 1.75 30.3l46.3-28.75" fill="#332551"/><path d="M192.3 103.05q-26.55 28.35-45 64.75-24.2 53.85-25.2 120.7-.55 37.1 6.05 78.25 1.45 9 3.25 18.25l3.85 18.15-33.05-16.05-7.4-39.8 17.4-45.3H90.7l6.5-1-4.5-1.45 17-3.1 3-26.55-22.75 5.05q17.35-4.85 18.25-25.05-6-18.85-16-31.05-20.55-.2-19.85 15.55L64 230.9l-6.4-2.7q.65-12.25 5.45-18.95l8.1 8.6q20.05-13.75 35.55 9.05 31.25-80.95 87.95-143.45 6.1-6.75 12.5-13.25 26.2-26.7 57.35-49.8 22.05-9.4 46-14.85l-.35 4.9Q244.8 38 192.3 103.05" fill="#f0ac24"/><path d="m191.95 298.25-1.8 6.2q-4.25 15.1-7.85 31.05l-11.5 30.55-32.55 31.55-2.2-10.35 31.75-29.7 15.05-54.1q10.5-39.4 26.25-74.6 6.2-13.85 13.25-27.05l3.45-6.35q6.9-12.5 14.5-24.4l5.3-8q18.2-27 40.4-50.85l-10.35-4.8q5.9-5.4 12.1-10.55 18.55-4.85 36.75-7.7 1.85 48.75-13.3 102.7l-6.9.3Q319.15 145 315 101.7q-50.4 29.55-80 93.05l-3.3 7.3q-2.95 5.3-5.75 10.7l-3.45 6.7q-18.05 36.15-30.55 78.8" fill="#eaa522"/><path d="M211.45 193.9q7.55-15.7 16.8-30.15l12.05 7.3q-7.6 11.9-14.5 24.4l-3.45 6.35-10.9-7.9m23.1-39.55q17.8-25.6 41.1-46.95l10.35 4.8q-22.2 23.85-40.4 50.85l-11.05-8.7" fill="#ffee1b"/><path d="M296.2 192.75q11.4-34.9 10.3-75.05v-8.55q-41.25 35.85-70.55 85.6l-4.25 7.3 3.3-7.3q29.6-63.5 80-93.05 4.15 43.3-10.7 90.45l-8.1.6" fill="#bd5f2b"/><path d="M199.45 222.3q4.4-12.1 9.7-23.5l2.3-4.9 10.9 7.9q-7.05 13.2-13.25 27.05l-9.65-6.55m28.8-58.55 6.3-9.4 11.05 8.7-5.3 8-12.05-7.3M72.35 234.4l.3 3q1.15-2.6 2.4-4.65l26.8 9.35q1.8 6.85.05 15.35l-37.1-10.4q-2.25-6.9-.8-16.15l8.35 3.5M59.8 255.55q-13.85-20.3-4.15-43.2 16.5-27.8 41.05-14 25.15-53.4 57.1-92.55l-55.1 99.05q-26.1-9.05-35.65 4.4-4.8 6.7-5.45 18.95-.65 11.3 2.2 27.35" fill="#fcfdfd"/><path d="M273.1 101q-14.8 14.2-27.5 29.8-54.1 8.3-98.65 64.35 12.65-28.7 34.75-55.7 46.65-24.95 91.4-38.45" fill="#634c90"/><path d="M236.35 25.9Q212.8 38.95 191.1 58.2q-47.75 6.5-99.2 36.9 61.3-49.55 144.45-69.2" fill="#444072"/><path d="M253.65 101.1q-36.8 13.05-71.6 31.55Q236.8 76 253.65 101.1" fill="#40307f"/><path d="M191.1 58.2Q178.25 69.5 166.05 83q-53.5 12.1-110.15 45.85 16.95-18.35 36-33.75 51.45-30.4 99.2-36.9" fill="#764376"/><path d="M152.85 98.5q-31.3 38.7-58.15 92.3-41.2-6.05-45.95 32.1-25.6 14.1-40.4-8.5 6.05-24.9 19.75-51.65 6.55-9.05 13.55-17.55Q99 110.35 152.85 98.5" fill="#6557a0"/><path d="m215.15 175.35-1.75 3.2-74.9 39.3 2.3-7.15 74.35-35.35" fill="#8de3f0"/><path d="m101.9 257.45-.7 3q-2.75 3.75-5.9 6.05-25.3-3.4-30.5-19.45l37.1 10.4" fill="#f2ab1b"/><path d="M75.05 232.75q7.5-12.7 17.15-4.85 7.4 5.9 9.65 14.2l-26.8-9.35" fill="#f1ad21"/><path d="M200.75 204.05q-5.05 11.25-9.25 23.05l-60.15 24.65q1-8.55 2.8-16.95l66.6-30.75" fill="#91f1f7"/><path d="M213.4 178.55q-6.1 11-11.3 22.55l-1.35 2.95-66.6 30.75q1.75-8.55 4.35-16.95l74.9-39.3" fill="#5a58a1"/><path d="M48.75 222.9q-.6 4.9-.6 10.5 4.7 26.7 25.5 41.05l-21 16.5L78.7 302l-22.05 15 31.55 15.05L94.85 374 28.1 330.5Q-7.25 278.6 8.35 214.4q14.8 22.6 40.4 8.5" fill="#375ba1"/><path d="M95.3 266.5q-11.4 8.15-28.65-2.55-3.95-4.15-6.85-8.4-2.85-16.05-2.2-27.35l6.4 2.7q-1.45 9.25.8 16.15Q70 263.1 95.3 266.5" fill="#ffee17"/><path d="M191.5 227.1q-8.1 22.4-13.45 46.65l-46.3 28.75q-2-15.35-1.75-30.3.15-10.3 1.35-20.45l60.15-24.65" fill="#4f5aa1"/><path d="m94.8 347.3-4.1-21.8-24.05-9.5 17.55-13 6.5-1h21.5l-17.4 45.3m-2.1-47.75-31.05-10.1 17.55-13 8.2-.9 2.55-.6 22.75-5.05-3 26.55-17 3.1" fill="#ffed0c"/><path d="m128.25 340.55 26.55 3.5-25 15.55q-1.1-9.65-1.8-19l.25-.05" fill="#2e3658"/><path d="m144.45 401.2 15-16.4q-3.9 36.95 36.3 70.25l33.85 15.35 21.5 42.7q-6.5.25-13.15-.1l-10.4-37.45-5.1 5.1-56.4-33.8-21.6-45.65m96.8-113.1q19.75-17.4 40.05-33.85l11.05-8.9 29.6 52.8q2.05 12.25 3.55 24.35-20.85-65.45-84.25-34.4M128 340.6v-.05h.25l-.25.05" fill="#7c7db9"/><path d="m139.15 407 5.3-5.8 21.6 45.65 56.4 33.8 5.1-5.1 10.4 37.45-6.3-.55q-6.15-16.9-7.2-23.6l-63.55-37.9L139.15 407m153.2-161.65 4.35-3.45 31.35 54.15q10.9 42 4.25 86.2l20.35 29.7v47.2l-3.4 3.75-1.7-44.8-16.45-28.55-3.05 14.2q2.4-39.7-2.55-81.25-1.5-12.1-3.55-24.35l-29.6-52.8" fill="#3d4477"/><path d="m136.05 387.25-4.8-22.2 35.25-25.55h-31.25l37.05-22-28.55-3.5 39.55-31.05q5.7-32.15 16.15-60.65l9.65 6.55q-15.75 35.2-26.25 74.6l-15.05 54.1-31.75 29.7" fill="#ffed1b"/><path d="m316.55 191.9-8.25 5.1q-17.1 1-34.7 5l-4.9 1.2q-22.65 5.65-46.2 16.25l3.45-6.7q3.5-1.7 7.1-3.25 16.15-7.15 32.8-11.4l1.6-.4q11.85-2.95 24-4.4l4.75-.55 8.1-.6 6.9-.3 3.35-.05 2 .1" fill="#140502"/><path d="m315.1 199.75 5.5-3.1q12.15.05 24 1.65l-.25 1.9-.15 1.25-2.65 1.4q-3.95 2.15-7.9 4.4l-18.55-7.5" fill="#f2ac24"/><path d="m330.15 213.6.9-1.3q-18.8 12-36.95 25.1l-4.4 3.2q-46.95 34.4-89.25 76.2l-2.15 2.1-6.65 6.7-1.3 1.35-4 4.05 8.25-31.75 6.6-7.4-3.35 21.1q32.75-31.2 63.15-55.5l12.5-9.75 14.25-10.6 4.35-3.15q21.4-15.2 41.55-26.7 3.95-2.25 7.9-4.4l-11.4 10.75" fill="#cf6213"/><path d="M201.2 291.85q21.55-23.8 45.25-43.9l14.55 9.5q-30.4 24.3-63.15 55.5l3.35-21.1m63.6-58.7q7.25-5.55 14.65-10.75l4.25-2.95q15.3-10.5 31.4-19.7l18.55 7.5q-20.15 11.5-41.55 26.7l-4.35 3.15-14.25 10.6-8.7-14.55" fill="#ffec0e"/><path d="M308.3 197q-11.4 6.75-22.3 14.3l-44.1 7.05-43.2 71.85-6.75 8.05q12.5-42.65 30.55-78.8 23.55-10.6 46.2-16.25l4.9-1.2q17.6-4 34.7-5" fill="#221d42"/><path d="m286 211.3-5 3.5-4.15 2.95Q234.7 248.3 198.7 290.2l43.2-71.85 44.1-7.05" fill="#2e3453"/><path d="M233.05 209.5q4-7.6 8.25-14.8 25.95-44.45 59.7-75.95l-9.55 74.55q-12.15 1.45-24 4.4l-1.6.4q-16.65 4.25-32.8 11.4" fill="#23224f"/><path d="m159.45 384.8 14.35-15.7 12.55-30.05q26.9-26.4 54.9-50.95 63.4-31.05 84.25 34.4 4.95 41.55 2.55 81.25l3.05-14.2 16.45 28.55 1.7 44.8q-12 13-24.7 22.65L308.6 461.2q33.2-154.75-29.75-169.25-100.2 26.5-91.3 112.85 10.45 50.55 54.35 67.65l17.7 40-8.5.65-21.5-42.7-33.85-15.35q-40.2-33.3-36.3-70.25" fill="#95a9db"/><path d="m259.6 512.45-17.7-40q-43.9-17.1-54.35-67.65-8.9-86.35 91.3-112.85 62.95 14.5 29.75 169.25l15.95 24.35q-30.45 23.1-64.95 26.9" fill="#edf5fc"/><path d="M245.6 130.8q-17.1 21-30.45 44.55L140.8 210.7q2.7-7.85 6.15-15.55 44.55-56.05 98.65-64.35" fill="#6857a1"/></g><g id="B" fill-rule="evenodd"><path d="m386.9 267.75-3.85-158.05q2.9 17.2 5.3 34.9l3.5 127.7-4.95-4.55m9.6 14.3v.05l-6.2 5.6-13.85 59.5-19.25 33.9q18.2-46.7 30.05-97.45l9.25-1.6m-12.9-12.3-12.25-1V124.6q6.75-13.3-2.6-24.6l-7.15-49.25-6.65-2.6L255.4 254.9l26.7 68.75-9.15 8.15L240 266.7 361.05 14.3q21.65 49.4 22.55 255.45" fill="#ffee13"/><path d="M388.35 144.6q-2.4-17.7-5.3-34.9l3.85 158.05.35 15.9Q375.4 334.4 357.2 381.1l-.1.25q-10.15 25.85-22.2 50.5l31.3-47.2q-1.95-18.9 13.85-35.9l16.45-66.65v-.05l1.5-6.15q-1.3-68.65-9.65-131.3m-4.75 125.15Q382.7 63.7 361.05 14.3L240 266.7l32.95 65.1 3.75 7.35 36.55 72.25L326.2 437l2.7-5.15 1.5-2.9q29-57.3 49.75-131.9l3.5-12.9-.05-14.4m-107.15-91.7L362.1 0q40.75 110.05 52.3 290.3-29.65 88.75-80.2 149.7l-2 2.4-6 6.9-.75-1.5-1.75-3.4-27.3-53-6.95-13.5-56-108.7-.45-.9 3.9-8.1 9.5-19.7 15.15-31.45 9.35-19.4 1.7-3.6 3.85-8m111.3 168.65 22.05-55.9-21-178 13.85 161.6-14.9 72.3m-17.4 34.4 16.4-31.3q-17.4 10.05-16.4 31.3" fill="#894800"/><path d="m396.5 282.1-16.45 66.65q-15.8 17-13.85 35.9l-31.3 47.2q12.05-24.65 22.2-50.5l.1-.25 19.25-33.9 13.85-59.5 6.2-5.6m-34.6 23.7 7.4-21.15 14.35-.5-3.5 12.9-18.25 8.75m-20.3 60.4q-2.95 15.25-18.5 14.4-6.85-1.95-9.55-6.8-1.95-3.5-1.75-8.45 1.8 2.85 3.7 4.9 10.95 11.6 26.1-4.05m46.15-19.5 14.9-72.3-13.85-161.6 21 178-22.05 55.9m-17.4 34.4q-1-21.25 16.4-31.3l-16.4 31.3" fill="#cf6313"/><path d="m386.9 267.75 4.95 4.55 6.15 3.6-1.5 6.15-9.25 1.6-.35-15.9m-31.95-219.6 6.65 2.6 7.15 49.25q9.35 11.3 2.6 24.6v144.15l12.25 1 .05 14.4-14.35.5-7.4 21.15-15.8 45.05q-1.5-5.1-4.55-10.3L366.2 279q1.5-70.25-1.65-126.6-.2-51.35-9.6-104.25m-12.8 314.1-.55 3.95q-15.15 15.65-26.1 4.05-1.9-2.05-3.7-4.9l4.75 2.95q13.3 6.55 25.6-6.05m-175.5.2-18.35 131.8-2.2 1.85-49.2-59.5 6-22.65L162 358.7l4.65 3.75m-89.25 22.4-6.5 10.5-47.85 77.2-3.3-12.6L48.1 408.1l29.3-23.25m-69.85 72.4q1.8-8.7 4.4-17.35l5.45 33.65v12.85l-9.85-29.15" fill="#fcfdfd"/><path d="m391.85 272.3-3.5-127.7q8.35 62.65 9.65 131.3l-6.15-3.6" fill="#c27f13"/><path d="m139.25 213.5 6.85-8.65 2-2.2 3.65 8.85-33.45 60.95-18.35 13.45-2.6-.75 5.7-18.25 36.2-53.4m105.3-59.45 5.05.1 2.1 9.65q11.15 12 19.2 25.85l-9.35 19.4q-5.55-24.15-17-46.25v-8.75" fill="#7c7db9"/><path d="m118.3 272.45 33.45-60.95-3.65-8.85 7.95-8.35 3.9 15.7-19.8 57.9-9.45-4.6-12.4 9.15" fill="#97a9da"/><path d="M156.05 194.3q28.3-27.9 59.8-36.45v11.1q20.25 28.35 25.6 67.7l4.95 3.85-9.5 19.7-11.85 6.2v-33.85L162.5 278.7l-22.35-10.8 19.8-57.9-3.9-15.7" fill="#edf5fc"/><path d="m97.35 285.15 2.6.75 18.35-13.45 12.4-9.15 9.45 4.6 22.35 10.8 62.55-46.15v33.85l11.85-6.2-3.9 8.1.45.9-12.8 6.4v-32.3l-47.9 37.45-16.4 12.8 3.6-8.2-28.7-12.8-30.8 22.05-34.35-13.35.95 8.9 5.2 48-7.7-17.4-31.75 15.9 21.5 28.7-21.8 21.85-9.95 9.95 9.8 13.75-3.5 2.75-13-14.95 30.75-34.85-25.65-26.7 39-19.45 1-43.1 32.15 9.3 4.25 1.25" fill="#3a6874"/><path d="m139.25 213.5-36.2 53.4-5.7 18.25-4.25-1.25 4.8-18.55 41.35-51.85m116.6-58.9q11.8 10.8 20.6 23.45l-3.85 8q-7.3-12.15-16.75-23.75v-7.7" fill="#3d4477"/><path d="M215.85 157.85q14.05-3.85 28.7-3.8v8.75q11.45 22.1 17 46.25L246.4 240.5l-4.95-3.85q-5.35-39.35-25.6-67.7v-11.1" fill="#97a8d9"/><path d="m249.6 154.15 6.25.45v7.7q9.45 11.6 16.75 23.75l-1.7 3.6q-8.05-13.85-19.2-25.85l-2.1-9.65M48.1 408.1l-28.35 51.85-6.45-24.35 34.8-27.5M17.6 549.5l5-64.65 8.15-5.4 1.5.1-.55 73.4-9.2 4.2-5.1-5.15.2-2.5" fill="#71feff"/><path d="m172.75 280.75 47.9-37.45v11.3q-17.05 53.05-53.55 86.7l-17.4-16.95-12.3 11.3-22.6-6.15-9.75 31.8-35.35-16.45v29.25l-30.25 21-6.95-7.9 21.8-21.85-21.5-28.7 31.75-15.9 7.7 17.4-5.2-48L83 319.25l-5.1-21.05 18.45 13.85 12.3-14.85v10.25l19.1-24.85 18.35 28.95 26.65-30.8M263 385.35l-25.1 21.55q-12.75-8.35-13.85-34.35l33.35 5.1 5.6 7.7m-30.75-101q2.85 49.5-21.05 87.2l-25.6-25.65q16.25-39.3 46.65-61.55" fill="#fdfdfd"/><path d="m268.95 268.7-4.3-12.25L347.4 77.6q3.15 91.35-7.35 177.3l-53.9 56.15-2 1.3-8.1-23.25 60.95-85v-16.4l-40.05 39-28 42" fill="#4f59a0"/><path d="M364.55 152.4q3.15 56.35 1.65 126.6l-24.65 61.55q3.05 5.2 4.55 10.3 5.5 19.05-11.7 35.9-11.6 1.85-19.4-2.6-2.85-1.65-5.2-4.1l-2.1-2.55q-5.85-12.25 6.2-22.55-.95 2.85-1.45 5.4-.55 2.65-.65 5-.2 4.95 1.75 8.45 2.7 4.85 9.55 6.8 15.55.85 18.5-14.4l.55-3.95q.35-4.2-.05-9.35-1.2-12.25-7.95-16.8-2.95-2.05-7-2.55-4.85-.65-11.2.85-12.25 3.15-20.55 12.85l13.85-16.95 6.15-19.7.55-1.85q-18.3 1-33.85 14.9l-22.1-67.7 93.9-200.6q7.55 41.85 10.65 97.05M347.4 77.6l-82.75 178.85 4.3 12.25 7.1 20.4 8.1 23.25 2-1.3q7.55-4.75 16.05-6.45 9.35-1.85 19.9.05l-7.2 24.65q7.55 0 13.8 1.4 3.4.75 6.45 1.95l.75.3 2.1.95 23.1-60 .25-18.95q.75-96.55-8.8-188.45l-5.15 11.1" fill="#884700"/><path d="m268.95 268.7 28-42 40.05-39v16.4l-60.95 85-7.1-20.4" fill="#96fbfd"/><path d="m286.15 311.05 53.9-56.15q10.5-85.95 7.35-177.3l5.15-11.1q9.55 91.9 8.8 188.45l-26.2 77.7q-3.05-1.2-6.45-1.95-6.25-1.4-13.8-1.4l7.2-24.65q-10.55-1.9-19.9-.05-8.5 1.7-16.05 6.45" fill="#3d3350"/><path d="m282.1 323.65-26.7-68.75 99.55-206.75q9.4 52.9 9.6 104.25-3.1-55.2-10.65-97.05L260 255.95l22.1 67.7" fill="#b6730f"/><path d="m272.95 331.8 9.15-8.15q15.55-13.9 33.85-14.9l-.55 1.85q-4.4 2.6-8.3 5.75-15.75 2.85-30.4 22.8l-3.75-7.35" fill="#fcfcf5"/><path d="m346.1 350.85 15.8-45.05 18.25-8.75q-20.75 74.6-49.75 131.9l-1.5 2.9-2.7 5.15-12.95-25.6 8.8-20.05-14.85-3.6-20-47.2q7.85-14.6 19.9-24.2 3.9-3.15 8.3-5.75l-6.15 19.7-13.85 16.95q17.35-4.45 25.25-1.85 4.25 1.4 5.75 4.85 1.5 3.4.3 8.8-1.1-2.25-3.25-3.35-2.95-1.5-7.95-.95l-1.6.2q-12.05 10.3-6.2 22.55l2.1 2.55q2.35 2.45 5.2 4.1 7.8 4.45 19.4 2.6 17.2-16.85 11.7-35.9" fill="#f1aa20"/><path d="M295.4 347.25q8.3-9.7 20.55-12.85 6.35-1.5 11.2-.85 4.05.5 7 2.55 6.75 4.55 7.95 16.8.4 5.15.05 9.35-12.3 12.6-25.6 6.05l-4.75-2.95q.1-2.35.65-5 .5-2.55 1.45-5.4l1.6-.2q5-.55 7.95.95 2.15 1.1 3.25 3.35 1.2-5.4-.3-8.8-1.5-3.45-5.75-4.85-7.9-2.6-25.25 1.85" fill="#ffee19"/><path d="m361.35 254.95-.25 18.95-23.1 60-2.1-.95-.75-.3 26.2-77.7" fill="#38e3f9"/><path d="M220.65 254.6v21l12.8-6.4 56 108.7-43.85 60.8-16.45-34.85-67.65-54.4L96.85 411 77.4 375.1l-45.05 35.8-9.8-13.75 9.95-9.95 6.95 7.9 30.25-21v-29.25l35.35 16.45 9.75-31.8 22.6 6.15 12.3-11.3 17.4 16.95q36.5-33.65 53.55-86.7M263 385.35l-5.6-7.7-33.35-5.1q1.1 26 13.85 34.35l25.1-21.55m-30.75-101q-30.4 22.25-46.65 61.55l25.6 25.65q23.9-37.7 21.05-87.2" fill="#bfe0e6"/><path d="m334.2 440 24.2 70.5-56.4 88.2-61.55-53.35-84.1 82.05-72.8-86.15L14.8 578.2Q-.35 540.85 0 495.75q.2-30.8 7.65-65.25l21.2-16.85 3.5-2.75 45.05-35.8L96.85 411l64.65-61.55 67.65 54.4 16.45 34.85 43.85-60.8 6.95 13.5-5.65-5.55-42.05 61.55-5.6 84.2-.55 8.1 60 48.7 1.6-2.5-4.7-103.65-38.45-31.3 40 27.2 22.7-33.75 1.75 3.4-20.85 32.4 3.65 81.55.7 16.55 39.2-62.05 4.65-7.35-16.95-54.7-3.65-11.8 2-2.4m-101.95-18.35-3.55-9.15-62.05-50.05-4.65-3.75-59.1 55.25-6 22.65-6.9 99.1-.3 4 63.6 76.4-8.7-115.9-9.9-13.2-37.8-50.4 49.2 59.5 2.2-1.85 82.05-70q-7 9.25-14.6 17.95l-.7.8q-7.3 8.3-15.2 16-23.35 22.85-51.7 40.7l.95 12.75 6.75 89.75 1.05 14.4 57.25-54 3.2-3 1.65-1.55 8.15-7.65 4.45-4.2 5.8-5.5 4.25-68.15 1.4-23.1-3.4-8.75-2.55-6.6-4.85-12.45M77.4 384.85 48.1 408.1l-34.8 27.5 6.45 24.35 3.3 12.6 11-4.9 56.1-24.95-21.75 11.85-45.35 24.65-.45 5.65-5 64.65-.2-.05v-75.9l-5.45-33.65q-2.6 8.65-4.4 17.35-5.3 25.1-3.8 50 1.9 32.3 15.2 64.25l63.55-41 .15-1 10.6-88.2 2.1-17.5-17.95-38.95" fill="#003972"/><path d="m325.45 447.8.75 1.5 6-6.9 3.65 11.8q6.1 52.05-6.95 81.55-7.3 16.55-20.65 26l-3.65-81.55 20.85-32.4m-95.1-23.55 1.9-2.6 4.85 12.45L219 558.05l-1.65 1.55-3.05 2.15 8.75-64.6-12.85 16.4-19.7 64.65-34.65 24-6.75-89.75L199.85 459q7.9-7.7 15.2-16l.7-.8q7.6-8.7 14.6-17.95m11.3 48.3-4.25 68.15-5.8 5.5 10.05-73.65M90.15 442.7l3.1-1.4-10.6 88.2-24.25 11.15 6.7-58.9-32.85-2.2v-1.1l36.15-23.9 21.75-11.85" fill="#2250c1"/><path d="m219 558.05 18.1-123.95 2.55 6.6-12.5 109.7-8.15 7.65M67.05 290.15l-.95-8.9 34.35 13.35 30.8-22.05 28.7 12.8-3.6 8.2 16.4-12.8-26.65 30.8-18.35-28.95-19.1 24.85V297.2l-12.3 14.85L77.9 298.2l5.1 21.05-15.95-29.1" fill="#c5e2e8"/><path d="m232.25 421.65-1.9 2.6-82.05 70 18.35-131.8 62.05 50.05 3.55 9.15M190.5 578.2l19.7-64.65 12.85-16.4-8.75 64.6-23.8 16.45m49.15-137.5 3.4 8.75-1.4 23.1-10.05 73.65-4.45 4.2 12.5-109.7m-207.4 38.85 32.85 2.2-6.7 58.9-26.7 12.3.55-73.4" fill="#2a91ec"/><path d="m248.7 447.4 42.05-61.55 10.25 92.3-40-27.2 38.45 31.3 4.7 103.65-1.6 2.5-60-48.7.55-8.1 50.2 38.35-4.6-87.2-40-35.35" fill="#f5fcfd"/><path d="M276.7 339.15q14.65-19.95 30.4-22.8-12.05 9.6-19.9 24.2l20 47.2 14.85 3.6-8.8 20.05-36.55-72.25" fill="#ffee0e"/><path d="m296.4 391.4 27.3 53-22.7 33.75-10.25-92.3 5.65 5.55M90 535.7l6.9-99.1 37.8 50.4v96.3L90 535.7m245.85-81.5 16.95 54.7-4.65 7.35-19.25 19.5q13.05-29.5 6.95-81.55m-328.3 3.05 9.85 29.15v63.05l-13.65-42.2q-1.5-24.9 3.8-50" fill="#2fedff"/><path d="m70.9 395.35 6.5-10.5 17.95 38.95-2.1 17.5-3.1 1.4-56.1 24.95 36.85-72.3" fill="#047aed"/><path d="m134.7 487 9.9 13.2 8.7 115.9-63.6-76.4.3-4 44.7 47.6V487" fill="#faffff"/><path d="m199.85 459-50.75 53.45-.95-12.75q28.35-17.85 51.7-40.7m-44 143.2 34.65-24 23.8-16.45-.15.85-57.25 54-1.05-14.4M68.4 454.55l-36.15 23.9-1.5 1-8.15 5.4.45-5.65 45.35-24.65m-10 86.1 24.25-11.15-.15 1-63.55 41q-13.3-31.95-15.2-64.25l13.65 42.2V552l5.1 5.15 9.2-4.2 26.7-12.3" fill="#fff"/><path d="m348.15 516.25-39.2 62.05-.7-16.55q13.35-9.45 20.65-26l19.25-19.5" fill="#e6ffff"/><path d="m243.1 531.6 5.6-84.2 40 35.35 4.6 87.2-50.2-38.35" fill="#6ff6fe"/><path d="m23.05 472.55 47.85-77.2-36.85 72.3-11 4.9" fill="#224fbf"/></g><use ffdec:characterId="2" height="442.95" width="387.05" xlink:href="#p" id="c"/><use ffdec:characterId="4" height="436.1" width="351" xlink:href="#q" id="d"/><use ffdec:characterId="6" height="297.05" width="303.15" xlink:href="#r" id="e"/><use ffdec:characterId="8" height="644.15" width="421.4" xlink:href="#s" id="f"/><use ffdec:characterId="15" height="389.3" width="750.35" xlink:href="#t" id="g"/><use ffdec:characterId="17" height="343.2" width="242.6" xlink:href="#u" id="h"/><use ffdec:characterId="19" height="490.15" width="959.2" xlink:href="#v" id="i"/><use ffdec:characterId="21" height="257.5" width="245.15" xlink:href="#w" id="j"/><use ffdec:characterId="23" height="441.8" width="1050.2" xlink:href="#x" id="k"/><use ffdec:characterId="25" height="553.55" width="572.85" xlink:href="#y" id="l"/><use ffdec:characterId="27" height="91.6" width="90.1" xlink:href="#z" id="m"/><use ffdec:characterId="32" height="513.2" width="352.65" xlink:href="#A" id="n"/><use ffdec:characterId="34" height="627.4" width="414.4" xlink:href="#B" id="o"/><path d="M44.15-1.25q0 2.55-13.3 4.3Q17.65 4.9-1.1 4.9t-32.05-1.85q-13.2-1.75-13.2-4.3 0-2.6 13.2-4.45 13.3-1.75 32.05-1.75 18.75 0 31.95 1.75 13.3 1.85 13.3 4.45" fill-opacity=".349" fill-rule="evenodd" transform="translate(46.35 7.45)" id="b"/></defs></svg>