<svg xmlns:ffdec="https://www.free-decompiler.com/flash" xmlns:xlink="http://www.w3.org/1999/xlink" ffdec:objectType="frame" height="90" width="90" xmlns="http://www.w3.org/2000/svg"><use ffdec:characterId="26" height="90" transform="translate(-3.55)" width="93.9" xlink:href="#a"/><defs><g id="a" transform="translate(3.55)"><use ffdec:characterId="4" height="90" width="90" xlink:href="#b"/><use ffdec:characterId="25" height="184.75" transform="matrix(.3999 0 0 .3997 -3.56 9.21)" width="234.8" xlink:href="#c"/></g><g id="b"><use ffdec:characterId="1" height="0" transform="matrix(.3357 0 0 .3358 12.85 0)" width="0" xlink:href="#sprite2"/><use ffdec:characterId="3" height="73.65" transform="scale(1.7258 1.222)" width="52.15" xlink:href="#d"/></g><g id="c" transform="translate(8.9 .85)"><use ffdec:characterId="5" height="25.75" transform="matrix(.8396 0 0 .6828 39.25 159.8)" width="85.6" xlink:href="#e"/><use ffdec:characterId="6" height="18.8" transform="matrix(.8232 -.0052 .0066 1.0377 99.87 112.268)" width="119.35" xlink:href="#f"/><use ffdec:characterId="7" height="58.1" transform="translate(104.71 65.06) scale(.8396)" width="144.35" xlink:href="#g"/><use ffdec:characterId="8" height="58.85" transform="translate(99.31 59.31) scale(.8396)" width="76.05" xlink:href="#h"/><use ffdec:characterId="9" height="106.6" transform="matrix(-.7198 0 0 .7198 60.27 38.93)" width="84.75" xlink:href="#i"/><use ffdec:characterId="10" height="36.1" transform="translate(29.66 117.35) scale(.8396)" width="53.05" xlink:href="#j"/><use ffdec:characterId="11" height="42.85" transform="translate(74.58 102.71) scale(.8396)" width="46.65" xlink:href="#k"/><use ffdec:characterId="12" height="62.75" transform="translate(45.15 76.75) scale(.8396)" width="60.6" xlink:href="#l"/><use ffdec:characterId="13" height="34.7" transform="translate(64.36 118.35) scale(.8396)" width="28.2" xlink:href="#m"/><use ffdec:characterId="14" height="73.75" transform="translate(41.23 62.43) scale(.8396)" width="57.6" xlink:href="#n"/><use ffdec:characterId="15" height="76.1" transform="translate(34.17 22.796) scale(.8396)" width="73.75" xlink:href="#o"/><use ffdec:characterId="16" height="51.55" transform="translate(41.01 -.84) scale(.8396)" width="32.45" xlink:href="#p"/><use ffdec:characterId="17" height="22.5" transform="translate(35.345 54.617) scale(.8396)" width="36.6" xlink:href="#q"/><use ffdec:characterId="18" height="31.05" transform="translate(27.62 73.844) scale(.8396)" width="39.15" xlink:href="#r"/><use ffdec:characterId="9" height="106.6" transform="translate(77.56 26.56) scale(.8396)" width="84.75" xlink:href="#i"/></g><g id="f"><path d="M82.85 7.4v-.05q.45-1.05 6.45-3.9 2.45-.25-.25 1.45-2.65 1.55-3 2.15l-3.2.35" fill="#8817bd" fill-rule="evenodd" transform="translate(1 1)"/><path d="M89.9 9.45q-12.15.6-27.9 5.6-34.15 6.15-62-9.6 9.85 4.25 19.35 5.9Q32.2 16 55 13.55l3.35-1.8 4.9-.75-2.05 1.9 21.45-5.5h.2l3.2-.35h.05q2.2.55 3.8 2.4" fill="#5e1087" fill-rule="evenodd" transform="translate(1 1)"/><path d="M113.5 13.95q-9.5-5.2-23.6-4.5-1.6-1.85-3.8-2.4 18.45-1.35 27.4 6.9" fill="#8b17c0" fill-rule="evenodd" transform="translate(1 1)"/><path d="m19.35 11.35 17.6.7q9.4 1.2 21.4-.3L55 13.55Q32.2 16 19.35 11.35m43.9-.35 10.8-2.25 8.6-1.35-21.45 5.5 2.05-1.9" fill="#9b4db2" fill-rule="evenodd" transform="translate(1 1)"/><path d="m63.25 11-4.9.75 4.4-2.45q4.45-4.6 4.15-1.85L63.25 11" fill="#8916bc" fill-rule="evenodd" transform="translate(1 1)"/><path d="M36.95 12.05Q45 11.15 52.7 8.2q42.15-19.8 64.65 8.25-1.85-1.4-3.85-2.5-8.95-8.25-27.4-6.9h-.05q.35-.6 3-2.15 2.7-1.7.25-1.45-6 2.85-6.45 3.9v.05h-.2l-8.6 1.35L63.25 11l3.65-3.55q.3-2.75-4.15 1.85l-4.4 2.45q-12 1.5-21.4.3" fill="#e06eff" fill-rule="evenodd" transform="translate(1 1)"/><path d="m20.35 12.35 17.6.7Q46 12.15 53.7 9.2q42.15-19.8 64.65 8.25-1.85-1.4-3.85-2.5-9.5-5.2-23.6-4.5-12.15.6-27.9 5.6-34.15 6.15-62-9.6 9.85 4.25 19.35 5.9z" fill="none" stroke="#4b1d6b" stroke-linecap="round" stroke-linejoin="round" stroke-width="2"/></g><g id="g"><path d="m47.4 40.85-.7.45q.75-3.65-.8-3.4 7.15-5.1 13.95-11.65 4.5-3.55 9.45-6.2-1.15 4.45-8.25 10.65l-1.9 2.5q-4.85 2.65-9.65 6.05.55-2.1-2.1 1.6" fill="#9137b3" fill-rule="evenodd" transform="translate(1 1)"/><path d="M20 53.1q8.8-.45 24.25-8.55 1.75-.85 2.3-2.65l.85-1.05q2.65-3.7 2.1-1.6L48.4 42q4.85-2.45 7.75-4.25l-1.4 2.55-1.8 1.35-.2.2-.55.25q.9 1.6-3.85 2.25l-.7.35-1.9 1.15q-4.55 2.35-18.1 7.3l-1.8.4q-8.55 2-17.75 2.4l-8.1-.9 7.7-.95q4.3.7 10.2-.55l2.1-.45m28.05-10.7-.15-.35q-.1-.15-.3-.15-.2 0-.35.15-.15.15-.15.35l.15.35.35.1.3-.1.15-.35m1.25 1.3.3-.35-.3-.4-.7-.15-.75.15-.25.4.25.35.75.2.7-.2" fill="#924b09" fill-rule="evenodd" transform="translate(1 1)"/><path d="m44.65 38.8 1.25-.9q1.55-.25.8 3.4l.7-.45-.85 1.05q-.55 1.8-2.3 2.65Q28.8 52.65 20 53.1q9.15-2.35 21.75-8.8 1.05-3.7 2.9-5.5" fill="#8459a8" fill-rule="evenodd" transform="translate(1 1)"/><path d="m49.3 43.7-.7.2-.75-.2-.25-.35.25-.4.75-.15.7.15.3.4-.3.35m-1.25-1.3-.15.35-.3.1-.35-.1-.15-.35q0-.2.15-.35.15-.15.35-.15.2 0 .3.15l.15.35" fill="#693a06" fill-rule="evenodd" transform="translate(1 1)"/><path d="m48.35 48-.1.05h-.05v-.4l.05.4v-.15q.1-1.35-2.5-2.05l1.9-1.15.7-.35q4.75-.65 3.85-2.25l.55-.25.2-.2 1.3-.75q-1.1 2.7-5.9 7.1" fill="#2a015f" fill-rule="evenodd" transform="translate(1 1)"/><path d="m59.15 33.2-3 4.55q-2.9 1.8-7.75 4.25l1.1-2.75q4.8-3.4 9.65-6.05" fill="#8758a8" fill-rule="evenodd" transform="translate(1 1)"/><path d="m54.75 40.3-.5.6-1.3.75 1.8-1.35" fill="#be80ef" fill-rule="evenodd" transform="translate(1 1)"/><path d="m83.3 18.55-.2.7-.6.95q-.35.25-.8 1.15l-.15.35-.6.05q-.4.15-.55.55l-.5.85-.2.6.4.05.65-.25.75-.9.1-.15h.1l.1.1q.65.25 1.05-.4l.05-.15q4.5-1.5 10.55-2.2 3-2.6 7.3-2.7v.05q.05.35 1.35 1.1l3.15 1.5 2.65.45h.15l1.5.55q1.15 1.3-4.05 3.7-.8.25-1.75.65l-2.65 1.05q-3.15 1.3-9.75-4.1l-8.8 2.05q8.85 3.4-4.15 1.75-3.75 1.25-9.9 5.35 6.85.75-1.4 2.1.45-.2.5-.55 0-.4-.35-.7l-.8.1-.85.55q-.25.1-.1.45l.2.35h.1l-.1.05-1.65.2q-1.15 1.25-9.3 6.5l1.4-2.55 1.5-.95 5.2-4.05q0-1.75 2.25-5.25 1.55-2.55 1.25.2l-.55 1.2q-.25.7-.1 1.3h-.1l-.1-.15q-.3-.3-.65-.3l-.4.3-.2.95q-.2.65.1 1l.65.2.55-.55.2-.85.3-.1h.1l.4-.35 10.05-5.6q3.25-3.95 4.95-5.55 2.05-2.05 1.75-.65m22.15 12.9-.4.45-.9-.05q-.4-.15-.4-.75l1.7.35M104 22.5q1.1-.75 1.1-1.4 0-.7-1.3-1.15-1.2-.5-3.05-.5-1.85 0-3.15.5-1.2.45-1.3 1.35-.1.8.9 1.6 1.05.85 3.35.65 2.3-.3 3.45-1.05M67.1 33.35l-.85.2h-.45l1.3-.2m14.1-8.95h-.9q-.4.1-.3.55.05.4.4.65l.8.2.75-.2.15-.5-.2-.45-.7-.25" fill="#d76c0e" fill-rule="evenodd" transform="translate(1 1)"/><path d="M69.3 20.05h.05q1.4 1.1 1.1 4.6 4.95-3.3 11.1-5.45-1.7 1.6-4.95 5.55l-10.05 5.6-.4.35h-.1l-.3.1-.15-.6h.1l.1.35.25.15.5-.35.15-.35.6-1.5q.5-1-.05-1.2l-.55-.15-.35.55q.3-2.75-1.25-.2-2.25 3.5-2.25 5.25l-5.2 4.05-1.5.95 3-4.55 1.9-2.5q7.1-6.2 8.25-10.65m14.1 13.5q-2.65.45-5.55 1.35-3.65-4.85-23.6 6l.5-.6q8.15-5.25 9.3-6.5l1.65-.2.1-.05h.45l.85-.2q8.25-1.35 1.4-2.1 6.15-4.1 9.9-5.35 13 1.65 4.15-1.75l8.8-2.05q6.6 5.4 9.75 4.1l2.65-1.05 1.4 2.8-.4-.05q-.4-.05-.8.2-.5.25 0 .6l1 .7.15.15.4.65q0 .35.4.3 0 .75-.45.95v-.55q-.05-.9-.5-1.3-.4-.5-1.5-.8-1.05-.45-1.05.3t.75.75q.65 0 .6.9v.35l-2.05-1.15Q93.1 26.2 80 29q5 .6 3.4 4.55m19.8-20.75-.7 1.2q-.25.5.2.9l.55.25q-.4.7-.1 1.1l1.75-.15-.8 1.3q-1.45-.65-2.2-.65-1 0-1.15.3v.1q-4.3.1-7.3 2.7-6.05.7-10.55 2.2l.5-.75.65-1.1q.55-1-.05-1.3-.6-.25-.9.35l.2-.7q3.55-1.2 7.5-2.05 6.55-.85 12.4-3.7m1.7 5q10.6-3.3 20.1.5 11.15 4.85-2.05 7.55-11.25 2-17.45-1.35 5.2-2.4 4.05-3.7l-1.5-.55q1.05-.25 1.05-.45-.05-.2-1.2-.6l-3-1.4m9.45 1.5q-.95.2-1.1.75-.2.65 2 1.7 2.2.95 5.05 1.65 2.8.7 3.4-.25.55-1.05.55-2.2l-.1-.35q.75 0 .85-.4.05-.75-1.3-1.65-1.45-.85-4.3-.8l-4.3.55q-1.4.4-1 .8l.25.2" fill="#e37ff1" fill-rule="evenodd" transform="translate(1 1)"/><path d="M44.65 38.8q-1.85 1.8-2.9 5.5-12.6 6.45-21.75 8.8l-2.1.45Q12 54.8 7.7 54.1l2.65-.55q18.1-3.75 34.3-14.75" fill="#9137b2" fill-rule="evenodd" transform="translate(1 1)"/><path d="M83.1 19.25q.3-.6.9-.35.6.3.05 1.3l-.65 1.1-.5.75-.05.15q-.4.65-1.05.4l-.1-.1v-.05l.2-.5 1.2-2.7" fill="#9f5aaa" fill-rule="evenodd" transform="translate(1 1)"/><path d="M69.35 20.05q11.3-6.1 25.35-7.45 16.95-2.25 22.8-12.6.8 3.3.2 7.55-.2-.5-.9-.6-.75-.15-1.85 1.6-1.05 1.8-2.75 2.6-1.8.8-1.8 1.65 0 .6.75.8-1.2.45-1.55 1 .35-.55 1.55-1 1.7-.75 5.4-1.3 6.45-.75 12.5 3.9 4.7 3.6 13.3 6.2-6.25 1.55-13.95 6.1-7.7 4.5-16.9 2.05-3.6-.6-5.3-3.15.8 3.35 3.8 5.05 1.1 4.45 2.65 6.4l-.35 2.2q-9.1-11.5-28.9-7.5Q85 29.6 80 29q13.1-2.8 21.7.95l2.05 1.15q0 .6.4.75l.9.05.4-.45q.45-.2.45-.95h.15q.5-.2.3-1.05l-.7-1.15-.5-.35-1.4-2.8q.95-.4 1.75-.65 6.2 3.35 17.45 1.35 13.2-2.7 2.05-7.55-9.5-3.8-20.1-.5l-.05-.05v.15l-1.4.4.65-.9.8-1.3.15-.05 2.1-1.1.8-.75q.2-.35-.1-1l-.65-.6q.15-.3-.05-.5-.55-.55-1.9-.4-1.35.05-1.9.95l-.15.15q-5.85 2.85-12.4 3.7-3.95.85-7.5 2.05.3-1.4-1.75.65-6.15 2.15-11.1 5.45.3-3.5-1.1-4.6" fill="#ff51f6" fill-rule="evenodd" transform="translate(1 1)"/><path d="m81.6 22.5-.1.15-.75.9-.65.25-.4-.05.2-.6.5-.85q.15-.4.55-.55l.6-.05.15-.35q.45-.9.8-1.15l.6-.95-1.2 2.7-.2.5-.1.05m-.4 1.9.7.25.2.45-.15.5-.75.2-.8-.2q-.35-.25-.4-.65-.1-.45.3-.55h.9" fill="#934a05" fill-rule="evenodd" transform="translate(1 1)"/><path d="m66.35 27.7.35-.55.55.15q.55.2.05 1.2l-.6 1.5-.15.35-.5.35-.25-.15.55-2.85" fill="#8458a3" fill-rule="evenodd" transform="translate(1 1)"/><path d="M65.7 30.2q-.15-.6.1-1.3l.55-1.2-.55 2.85-.1-.35m.1 3.35h-.1l-.2-.35q-.15-.35.1-.45l.85-.55.8-.1q.35.3.35.7-.05.35-.5.55l-1.3.2m-.05-2.75-.2.85-.55.55-.65-.2q-.3-.35-.1-1l.2-.95.4-.3q.35 0 .65.3l.1.15.15.6" fill="#94560b" fill-rule="evenodd" transform="translate(1 1)"/><path d="M77.85 34.9q-9.65 2.8-21.55 8.8-3.95 2.35-7.95 4.3 4.8-4.4 5.9-7.1 19.95-10.85 23.6-6" fill="#3f0188" fill-rule="evenodd" transform="translate(1 1)"/><path d="m117.7 7.55-1.15 4.75q-3.7.55-5.4 1.3-.75-.2-.75-.8 0-.85 1.8-1.65 1.7-.8 2.75-2.6 1.1-1.75 1.85-1.6.7.1.9.6" fill="#b338ad" fill-rule="evenodd" transform="translate(1 1)"/><path d="m103.25 15.15.3-.35q.65-.95 1.5-1.55.65-.55 1.4-.65l.2-.1.55.1.65.6q.3.65.1 1l-.8.75-2.1 1.1-.15.05-1.75.15q-.3-.4.1-1.1m2.95-1.55-.35-.05-.95.4q-.7.35-.4.45l.35.55q0 .4.4.15l.4-.3.6-.3.7-.5-.35-.35-.4-.05" fill="#d76a0b" fill-rule="evenodd" transform="translate(1 1)"/><path d="m106.45 12.6-3 .05-.25.15.15-.15q.55-.9 1.9-.95 1.35-.15 1.9.4.2.2.05.5l-.55-.1-.2.1" fill="#b138ab" fill-rule="evenodd" transform="translate(1 1)"/><path d="m106.2 13.6.4.05.35.35-.7.5-.6.3-.4.3q-.4.25-.4-.15l-.35-.55q-.3-.1.4-.45l.95-.4.35.05" fill="#975509" fill-rule="evenodd" transform="translate(1 1)"/><path d="M100.75 17.15v-.1q.15-.3 1.15-.3.75 0 2.2.65l-.65.9 1.4-.4.05-.1 3 1.4q1.15.4 1.2.6 0 .2-1.05.45h-.15q-4.35-1.55-7.1-3.1h-.05" fill="#9d58a8" fill-rule="evenodd" transform="translate(1 1)"/><path d="M106.45 12.6q-.75.1-1.4.65-.85.6-1.5 1.55l-.3.35-.55-.25q-.45-.4-.2-.9l.7-1.2.25-.15 3-.05" fill="#9e59aa" fill-rule="evenodd" transform="translate(1 1)"/><path d="M104 22.5q-1.15.75-3.45 1.05-2.3.2-3.35-.65-1-.8-.9-1.6.1-.9 1.3-1.35 1.3-.5 3.15-.5 1.85 0 3.05.5 1.3.45 1.3 1.15 0 .65-1.1 1.4m3.9-2.25-2.65-.45-3.15-1.5q-1.3-.75-1.35-1.1l.05-.05q2.75 1.55 7.1 3.1" fill="#94540a" fill-rule="evenodd" transform="translate(1 1)"/><path d="M105.9 30.5q-.4.05-.4-.3l-.4-.65-.15-.15-1-.7q-.5-.35 0-.6.4-.25.8-.2l.4.05q.7 1.65.75 2.55" fill="#a058aa" fill-rule="evenodd" transform="translate(1 1)"/><path d="m105.15 27.95.5.35.7 1.15q.2.85-.3 1.05h-.15q-.05-.9-.75-2.55" fill="#b237a9" fill-rule="evenodd" transform="translate(1 1)"/><path d="M103.75 31.1v-.35q.05-.9-.6-.9-.75 0-.75-.75t1.05-.3q1.1.3 1.5.8.45.4.5 1.3v.55l-1.7-.35m1-.35.2-.55-.2-.55-.45-.4q-.4-.25-.5.15-.15.4 0 .8l.5.55.35.2.1-.2" fill="#d76c0c" fill-rule="evenodd" transform="translate(1 1)"/><path d="m104.75 30.75-.1.2-.35-.2-.5-.55q-.15-.4 0-.8.1-.4.5-.15l.45.4.2.55-.2.55" fill="#935508" fill-rule="evenodd" transform="translate(1 1)"/><path d="M111.5 30.55q1.45 4.15 1.15 8.3-1.55-1.95-2.65-6.4-3-1.7-3.8-5.05 1.7 2.55 5.3 3.15" fill="#b336ab" fill-rule="evenodd" transform="translate(1 1)"/><path d="m114.35 19.3-.25-.2q-.4-.4 1-.8l4.3-.55q2.85-.05 4.3.8 1.35.9 1.3 1.65-.1.4-.85.4-.35-.95-2.25-1.35l-3.95-.4-3.05.35-.55.1" fill="#a059a9" fill-rule="evenodd" transform="translate(1 1)"/><path d="m124.15 20.6-1.15-.25-3.75-1.05-3.4-.1-1.5.1.55-.1 3.05-.35 3.95.4q1.9.4 2.25 1.35m-4.35 1.85-2.3-.4q-.95-.4-.75-1.35.2-1.05 1-.9l2 .05q1.1-.05 2.25.7 1.15.65.85 1.35-.25.7-.95.6l-2.1-.05" fill="#964b08" fill-rule="evenodd" transform="translate(1 1)"/><path d="m124.15 20.6.1.35q0 1.15-.55 2.2-.6.95-3.4.25-2.85-.7-5.05-1.65-2.2-1.05-2-1.7.15-.55 1.1-.75l1.5-.1 3.4.1 3.75 1.05 1.15.25m-4.35 1.85 2.1.05q.7.1.95-.6.3-.7-.85-1.35-1.15-.75-2.25-.7l-2-.05q-.8-.15-1 .9-.2.95.75 1.35l2.3.4" fill="#d66b0d" fill-rule="evenodd" transform="translate(1 1)"/><path d="m48.2 48.05-.5.25-5.7-.2q-6.95 3.15-14.35 5.05 13.55-4.95 18.1-7.3 2.6.7 2.5 2.05v.15l-.05-.4v.4" fill="#9139b4" fill-rule="evenodd" transform="translate(1 1)"/><path d="M47.7 48.3q-7.15 3.35-14.55 5.25-12.25 3.2-25.05 2.4 9.2-.4 17.75-2.4l1.8-.4q7.4-1.9 14.35-5.05l5.7.2" fill="#2b0260" fill-rule="evenodd" transform="translate(1 1)"/><path d="m46.9 38.9-1.25.9q-16.2 11-34.3 14.75l-2.65.55-7.7.95 8.1.9q12.8.8 25.05-2.4 7.4-1.9 14.55-5.25m-1.8-10.4q7.15-5.1 13.95-11.65 4.5-3.55 9.45-6.2h.05q11.3-6.1 25.35-7.45 16.95-2.25 22.8-12.6.8 3.3.2 7.55l-1.15 4.75q6.45-.75 12.5 3.9 4.7 3.6 13.3 6.2-6.25 1.55-13.95 6.1-7.7 4.5-16.9 2.05 1.45 4.15 1.15 8.3l-.35 2.2q-9.1-11.5-28.9-7.5-2.65.45-5.55 1.35-9.65 2.8-21.55 8.8-3.95 2.35-7.95 4.3l-.1.05h-.05" fill="none" stroke="#4b1d6b" stroke-linecap="round" stroke-linejoin="round" stroke-width="2"/><path d="M111.15 13.6q-1.2.45-1.55 1m6.95-2.3q-3.7.55-5.4 1.3m-4.95 13.8q1.7 2.55 5.3 3.15" fill="none" stroke="#4b1d6b" stroke-linecap="round" stroke-linejoin="round" transform="translate(1 1)"/></g><g id="h"><path d="M57.2 1.1Q44.4 13.3 39.3 22.2q17.35-7.45-3 5.6-3 7.6-7.05 14 6.15-4.4 8.05-4.95-10.05 8.8-19 11.9Q28.6 41.2 35.75 24.4 43.9 5.15 57.2 1.1" fill="#8617be" fill-rule="evenodd" transform="translate(1 1)"/><path d="M37.3 36.85q-1.9.55-8.05 4.95 4.05-6.4 7.05-14 20.35-13.05 3-5.6 5.1-8.9 17.9-21.1 7-2.15 15.5-.05Q58.2-2.1 46 28.35l-8.7 8.5" fill="#e06eff" fill-rule="evenodd" transform="translate(1 1)"/><path d="M18.3 48.75q8.95-3.1 19-11.9 1.45-.45.4 1.3-8.85 8.8-16.75 11.25-11.55 8-20.4 5.7L0 54.9q10.15-.15 18.3-6.15" fill="#601188" fill-rule="evenodd" transform="translate(1 1)"/><path d="m37.3 36.85 8.7-8.5-1.15 2.9Q30.5 63.6.55 55.1q8.85 2.3 20.4-5.7 7.9-2.45 16.75-11.25 1.05-1.75-.4-1.3" fill="#9b4db2" fill-rule="evenodd" transform="translate(1 1)"/><path d="M58.2 2.1Q44.9 6.15 36.75 25.4 29.6 42.2 19.3 49.75q-8.15 6-18.3 6.15l.55.2q29.95 8.5 44.3-23.85l1.15-2.9Q59.2-1.1 73.7 2.05q-8.5-2.1-15.5.05m15.5-.05 1.35.35" fill="none" stroke="#4b1d6b" stroke-linecap="round" stroke-linejoin="round" stroke-width="2"/></g><g id="i"><path d="m32.8 20.35.45.1q-.3 3.8-3.9 8.15-4.65 5.65-5.85 13.9-2 9.05-2.75 19.8-2.5 9.05-10.35 17.65-2.9-1.15-5.3.85-2.55 1.25-2.1 4.85.55 4.35 4.5 3.25-1.7 0-2.45-.8 2.3-.55 1.35-2.45.15-1.7 1.65-1.55.9.65 1.95-.95 2.9 3.2 1.45 7.4l-1.5 1.55q-1.5 1.2-3.45 1.3l-2.55-.2Q.5 91.3.15 87.65q-.75-4.9 2.25-8 3.05-2.3 5.8-5.55 2.45 1.3 2.95-1.85 11-15.4 1.65-30.05l-.55-2.65q.85-2.1 5.2 4.6 2.8 8.1 1.2 12.35.6.9 1.05.9 1.2-.2.75-8.8.05-3.7.4-6.7l.2-1.25.05-.6q.2-1.35.55-2.6 3.7-10.55 11.15-17.1m4.5.25q15-16.7 41-20.6 10.55 2.05-4 15.75l-7.35 3.1-.7.3q14.5-13.9 4.85-13.5-10.5 2.65-20.9 7.8-6.55.8-12.9 7.15m32.3-.7q16.85-2.5 6.2 13.75-7.25 9.2-12.3 13.7.3-2.95-1.8-2.05 11.4-14.7 9.7-21.25-3.8-2.85-12.15 1-.2-.85-.95-1.05l1.6-.9q1.85-.95 3.95-1.7 2.65-.9 5.75-1.5M59.45 50.45l8.85.7q7.15 2.6-1.45 9.3-8.65 6.75-9.65 7.8l-7.15.8-2.45.25q1.65-.95 3.95-1.95Q67.6 55.5 61 53.95q-4.35-1.4-5.85-3.7l2.3.15 2 .05m-13.65 23q12.95 12.75-14 11.4 3.05 3.75 3.45 8.7 1.85 1.3 3.3 2.75 4.05 5.4.15 8.3-1.65.05-2.55-1.85-2.05-3.55-11.3-4.25L18 99q1.95-1.45 4.35-2.05 3.8-1.1 8.55-.05 2.05.4 4.3 1.3l-1.95-3.1-.3-.3Q31 92.25 27.9 89.9q4.3 1.6 7.35 3.65-1.8-3.4-4.35-4.2-.6-3.7-3.3-7.3h-.15l-.3-1.3h.1q2.5 1.65 4.2 3.7 6.05-2.15-1.6-4.05h.25q8.15.9 10.7-1.55 2.45-2.5-2.45-5.85-4.65-3.15-4.9-4.15l.4-.1.6.25q5.3 1.7 9.2 3.45l2.15 1m-32.4 24.4q-.1 4.15-5.65 0l-2.3-2.25q1.55-.3 4.1 2.25 3.35.75 2.5-2.05l1.05-.55.3 2.6M28 40.05q-1.9 6.85-2.75 14.9-.85 15.8-11.95 25.65 4.25-6.1 6.45-10.45 4.9-6.75 4.75-20.55 1.1-9.1 3.5-9.55m3.8 44.8-.35-.4.35.4" fill="#f9ff07" fill-rule="evenodd" transform="translate(1 1)"/><path d="m36.55 21.4.7-.75.05-.05q6.4-4.05 12.9-7.15l.8-.1q6.95-.45-8.1 16.55 12.3-7 15.4-5.9-3.5 1.95-5.95 4.9 3.75-2.4 6.9-3.85.75 3.9-13.2 20.5Q51.7 45 56.6 41.7q4.9-3.4-.15 4.8-5 8.25-11.1 12.15 12.5-.7-.05 6.9-2.95 2.15-8.4 2.9-2.8-1.5-2.5.3h-.55l-.5-.1.1.2h-.15q.25-1.35-.15-3.75 1.85-.15 2.05-.95.15-2.5-.7-5.45l2.55-.6q1.85-.15 2.5-.7 1.1-2.7-1.1-4l-1.05-2.1 2.25-1.65q5.1-2.75-.25-5.5l-1.2-1.2q1-.85 2.1-1.45 4.65-2.05 4.25-3.45.25-1.95-5.35-2.9l-1.35-.5q2-5.45-1.1-5.45.75-2.75 1.5-4.6 1.45-4-1.7-3.2m15.8 7.5-.6.65.6-.65m-21.5 49.15-.05-1.25q-.45-2.5-1.25-4.3l1.35-1.9q1.6.15 2.2-1.15 1.7 2.2 4.1 3.9 2.1 2.15-1.2 2.8-2.25 1.6-5.15 1.9m-5.4 3.2q.85.4 2 .8.45 1.9 1.2 3 .9 3.2-5.75-.05l-.3-1.8q3-.6 2.85-1.95m7.5 13.55.3.3q.85 1.4-2.35 1.8-4.75-1.05-8.55.05l-1.05-.05q-4.9.05-8.2-1.65.95-1.15 1.55-2.8l5.65.75q2.05.7 2.8-.95.25-1.15-1.35-1.85-2.2-1.25-3.3-2.65l4-.85q1.75 2.35 6.55 4.75 1.15.2 3.95 3.15" fill="#a349cf" fill-rule="evenodd" transform="translate(1 1)"/><path d="m35.4 22.75 1.15-1.35q3.15-.8 1.7 3.2-.75 1.85-1.5 4.6-1.9-.05-5.75 2.05 1.9-4.55 4.4-8.5" fill="#743391" fill-rule="evenodd" transform="translate(1 1)"/><path d="M58.3 24q-3.1-1.1-15.4 5.9 15.05-17 8.1-16.55l-.8.1q10.4-5.15 20.9-7.8 9.65-.4-4.85 13.5Q61.9 21 59.9 23.1l-1.6.9m.95 1.05q8.35-3.85 12.15-1 1.7 6.55-9.7 21.25h-.15q-2.8 3.8-6.4 4.95 1.5 2.3 5.85 3.7 6.6 1.55-9.45 13.4-2.3 1-3.95 1.95-6.25.55-10.65-.8l-.05-.05q5.45-.75 8.4-2.9 12.55-7.6.05-6.9 6.1-3.9 11.1-12.15 5.05-8.2.15-4.8-4.9 3.3-10.55 3.85 13.95-16.6 13.2-20.5M33.3 68.85h.15q.25 1 4.9 4.15 4.9 3.35 2.45 5.85-2.55 2.45-10.7 1.55h-.25l-.9-.25q1.7-.8 1.9-2.1 2.9-.3 5.15-1.9 3.3-.65 1.2-2.8-2.4-1.7-4.1-3.9l-.5-.6h.7" fill="#d789ff" fill-rule="evenodd" transform="translate(1 1)"/><path d="m74.3 15.75-4.7 4.15q-3.1.6-5.75 1.5l2.4-2.25.7-.3 7.35-3.1m-24.1-2.3q-6.5 3.1-12.9 7.15 6.35-6.35 12.9-7.15m-19.3 75.9q2.55.8 4.35 4.2-3.05-2.05-7.35-3.65-.1-.5.1-.7l.65-.05q.85.1 2.4 1.05l-.15-.85" fill="#aeb004" fill-rule="evenodd" transform="translate(1 1)"/><path d="M33.25 20.45q1.5.2 2.15 2.3-2.5 3.95-4.4 8.5-1.8 4.15-3 8.8-2.4.45-3.5 9.55.15 13.8-4.75 20.55 1.45-3 1.9-5.2Q20.1 69 11.3 80.2l-.9-.25q7.85-8.6 10.35-17.65.75-10.75 2.75-19.8 1.2-8.25 5.85-13.9 3.6-4.35 3.9-8.15" fill="#b09814" fill-rule="evenodd" transform="translate(1 1)"/><path d="M20.85 41.9q-.35 3-.4 6.7.45 8.6-.75 8.8.55-4.35.05-8.55-.55-4.3-.15-7.1l1.25.15M10.4 79.95l-1.35.25-2.65.2-1.3.4q2.4-2 5.3-.85" fill="#b1b000" fill-rule="evenodd" transform="translate(1 1)"/><path d="M6.4 80.4q-1.3.55-1.95 1.9-1.4 2.9.2 5.2l.4.6q.75.8 2.45.8Q3.55 90 3 85.65q-.45-3.6 2.1-4.85l1.3-.4" fill="#b19915" fill-rule="evenodd" transform="translate(1 1)"/><path d="M13.3 80.6 10 83.15q-3.5-2.2-5.35.8-.55 2.3 0 3.55-1.6-2.3-.2-5.2.65-1.35 1.95-1.9l2.65-.2 1.35-.25.9.25Q20.1 69 21.65 64.95q-.45 2.2-1.9 5.2-2.2 4.35-6.45 10.45" fill="#7a690f" fill-rule="evenodd" transform="translate(1 1)"/><path d="m8.2 74.1 2.7-3.7q5.4-10.25 1.9-28.2 9.35 14.65-1.65 30.05-.5 3.15-2.95 1.85M4.65 87.5q-.55-1.25 0-3.55 1.85-3 5.35-.8-1.05 1.6-1.95.95-1.5-.15-1.65 1.55.95 1.9-1.35 2.45l-.4-.6" fill="#fff" fill-rule="evenodd" transform="translate(1 1)"/><path d="M58.3 24q.75.2.95 1.05-3.15 1.45-6.9 3.85 2.45-2.95 5.95-4.9" fill="#b1b602" fill-rule="evenodd" transform="translate(1 1)"/><path d="m37.4 51.3 1.05 2.1q2.2 1.3 1.1 4-.65.55-2.5.7l-2.55.6-1.55-4.15 4.45-3.25m-4.25 13.8q.4 2.4.15 3.75h-.7l.5.6q-.6 1.3-2.2 1.15l-1.35 1.9q.8 1.8 1.25 4.3l.05 1.25-4.1-.45.2 1.65-.3-.2q-1.05-.6-1.8-.75-.2-1.85-1-3.35 3.8-2.1 6.5-6.3-.85-3.35-1.75-3.8l4.55.25m4.7-30.45 1.35.5q5.6.95 5.35 2.9.4 1.4-4.25 3.45-1.1.6-2.1 1.45-1.35-1.05-3.25-2 1.95-3.75 2.9-6.3M9.95 92.1q.15 1.5 1.45 2.2l.3.05.1.7.25.75Q8.2 97.65 6.5 93.4q1.95-.1 3.45-1.3m8.5-4.35q-.95-1.05-1.2-2.25 1.75-.25 5.3-2.3h.05l.3 1.8-1.3-.7q0 1.3.85 2.6l-4 .85" fill="#733391" fill-rule="evenodd" transform="translate(1 1)"/><path d="M37.85 34.65q-.95 2.55-2.9 6.3 1.9.95 3.25 2l-3 2.95 2.2 5.4-4.45 3.25 1.55 4.15-.45.05-1 5.65.1.7-4.55-.25q.9.45 1.75 3.8-2.7 4.2-6.5 6.3.8 1.5 1 3.35-1.1-.25-1.55.35.35 1.4 1.95 2.45l-3.25.2.6 1.9h-.05q-3.55 2.05-5.3 2.3.25 1.2 1.2 2.25l-3 .35q-.1 2.55-.8 4.35l-.6-.2q-.45 1.5-1.25 2l-.25-1.05q-.85.3-.85 1.15l-.3-.05q-1.3-.7-1.45-2.2l1.5-1.55q1.45-4.2-1.45-7.4l3.3-2.55q11.1-9.85 11.95-25.65.85-8.05 2.75-14.9 1.2-4.65 3-8.8 3.85-2.1 5.75-2.05l-.95 4.1q.75.8 2.05 1.35" fill="#44175c" fill-rule="evenodd" transform="translate(1 1)"/><path d="M37.85 34.65q-1.3-.55-2.05-1.35l.95-4.1q3.1 0 1.1 5.45" fill="#621e83" fill-rule="evenodd" transform="translate(1 1)"/><path d="m38.2 42.95 1.2 1.2q5.35 2.75.25 5.5L37.4 51.3l-2.2-5.4 3-2.95m-23.55 49.5q.7-1.8.8-4.35l3-.35q1.1 1.4 3.3 2.65 1.6.7 1.35 1.85-.75 1.65-2.8.95l-5.65-.75m7.95-9.25-.6-1.9 3.25-.2.2.15q.15 1.35-2.85 1.95" fill="#622084" fill-rule="evenodd" transform="translate(1 1)"/><path d="m63.5 47.35-4.05 3.1-2-.05 4.25-5.1q2.1-.9 1.8 2.05m-6.3 20.9.55-.15-.65.35q-8 4.4-11.3 5l-2.15-1q.8-1.35 3.95-3.15l2.45-.25 7.15-.8q-.35.3-.1.2-.25.1.1-.2" fill="#aeb205" fill-rule="evenodd" transform="translate(1 1)"/><path d="M55.15 50.25q3.6-1.15 6.4-4.95h.15l-4.25 5.1-2.3-.15" fill="#9661af" fill-rule="evenodd" transform="translate(1 1)"/><path d="M18.3 40.25v-.15q3-3.45 2.8-.05l-.05.6-.2 1.25-1.25-.15q-.8-.4-1.3-1.5" fill="#b2b2b4" fill-rule="evenodd" transform="translate(1 1)"/><path d="M18.3 40.1q2.35-8.95 7.45-15.1 4.55-4.65 7.05-4.65-7.45 6.55-11.15 17.1-.35 1.25-.55 2.6.2-3.4-2.8.05" fill="#fcfdff" fill-rule="evenodd" transform="translate(1 1)"/><path d="M17.45 44.15q.35-2.05.85-3.9.5 1.1 1.3 1.5-.4 2.8.15 7.1.5 4.2-.05 8.55-.45 0-1.05-.9 1.6-4.25-1.2-12.35" fill="#7b6a0e" fill-rule="evenodd" transform="translate(1 1)"/><path d="M34.5 58.7q.85 2.95.7 5.45-.2.8-2.05.95l-.1-.7 1-5.65.45-.05" fill="#622082" fill-rule="evenodd" transform="translate(1 1)"/><path d="M29.85 80.4q7.65 1.9 1.6 4.05-1.7-2.05-4.2-3.7l1.7-.6.9.25" fill="#acb206" fill-rule="evenodd" transform="translate(1 1)"/><path d="M30.85 78.05q-.2 1.3-1.9 2.1l-2-.9-.2-1.65 4.1.45" fill="#9560b2" fill-rule="evenodd" transform="translate(1 1)"/><path d="M18 99q-2.4-.25-4.6-1.15l-.3-2.6q3.3 1.7 8.2 1.65l1.05.05q-2.4.6-4.35 2.05m4.45-12.1.25-.15.2-1.75q6.65 3.25 5.75.05-.75-1.1-1.2-3h.15q2.7 3.6 3.3 7.3l-2.25-.2-.65.05q-.2.2-.1.7 3.1 2.35 5.05 4.9-2.8-2.95-3.95-3.15-4.8-2.4-6.55-4.75m10.8 8.2 1.95 3.1q-2.25-.9-4.3-1.3 3.2-.4 2.35-1.8m-5.35-5.2-1.5-.55 1.5.55" fill="#ce8bff" fill-rule="evenodd" transform="translate(1 1)"/><path d="m27.15 80.75-.2-1.5 2 .9-1.7.6h-.1" fill="#afb105" fill-rule="evenodd" transform="translate(1 1)"/><path d="M25.45 81.1q-.1-.5-.55-.95v-.7l2.25 1.3-2.25-1.3-.05-1.15q.75.15 1.8.75l.3.2.2 1.5-1.7.35" fill="#7d8000" fill-rule="evenodd" transform="translate(1 1)"/><path d="M25.25 81.1q-1.6-1.05-1.95-2.45l1.6.8v.7q.45.45.55.95h-.2" fill="#4c4d01" fill-rule="evenodd" transform="translate(1 1)"/><path d="m25.45 81.1 1.7-.35.3 1.3q-1.15-.4-2-.8v-.15" fill="#a7aa05" fill-rule="evenodd" transform="translate(1 1)"/><path d="M23.3 78.65q.45-.6 1.55-.35l.05 1.15-1.6-.8" fill="#4b4e01" fill-rule="evenodd" transform="translate(1 1)"/><path d="M22.45 86.9q-.85-1.3-.85-2.6l1.3.7-.2 1.75-.25.15" fill="#945fb1" fill-rule="evenodd" transform="translate(1 1)"/><path d="m28.65 89.15 2.25.2.15.85q-1.55-.95-2.4-1.05" fill="#9661b1" fill-rule="evenodd" transform="translate(1 1)"/><path d="m36.9 68.45.05.05q4.4 1.35 10.65.8-3.15 1.8-3.95 3.15-3.9-1.75-9.2-3.45l-.05-.25 2.5-.3" fill="#945faf" fill-rule="evenodd" transform="translate(1 1)"/><path d="M34.4 68.75q-.3-1.8 2.5-.3l-2.5.3" fill="#723290" fill-rule="evenodd" transform="translate(1 1)"/><path d="M59.9 23.1q2-2.1 6.35-3.95l-2.4 2.25q-2.1.75-3.95 1.7" fill="#aeb203" fill-rule="evenodd" transform="translate(1 1)"/><path d="M12.8 94.25q.8-.5 1.25-2l.6.2q-.6 1.65-1.55 2.8l-.3-1" fill="#733192" fill-rule="evenodd" transform="translate(1 1)"/><path d="M11.7 94.35q0-.85.85-1.15l.25 1.05.3 1-1.05.55-.25-.75-.1-.7" fill="#757a06" fill-rule="evenodd" transform="translate(1 1)"/><path d="m5.45 95.6-1.5-2.4 2.55.2q1.7 4.25 5.55 2.4.85 2.8-2.5 2.05Q7 95.3 5.45 95.6" fill="#d58bfe" fill-rule="evenodd" transform="translate(1 1)"/><path d="M19.3 41.1q2.35-8.95 7.45-15.1 4.55-4.65 7.05-4.65l.45.1q1.5.2 2.15 2.3l1.15-1.35.7-.75.05-.05q15-16.7 41-20.6 10.55 2.05-4 15.75l-4.7 4.15q16.85-2.5 6.2 13.75-7.25 9.2-12.3 13.7l-4.05 3.1 8.85.7q7.15 2.6-1.45 9.3-8.65 6.75-9.65 7.8-.35.3-.1.2-8 4.4-11.3 5 12.95 12.75-14 11.4 3.05 3.75 3.45 8.7 1.85 1.3 3.3 2.75 4.05 5.4.15 8.3-1.65.05-2.55-1.85-2.05-3.55-11.3-4.25L19 100q-2.4-.25-4.6-1.15-.1 4.15-5.65 0l-2.3-2.25-1.5-2.4q-3.45-1.9-3.8-5.55-.75-4.9 2.25-8 3.05-2.3 5.8-5.55l2.7-3.7q5.4-10.25 1.9-28.2l-.55-2.65q.85-2.1 5.2 4.6.35-2.05.85-3.9v-.15m39.45 28-.65.35" fill="none" stroke="#4b1d6b" stroke-linecap="round" stroke-linejoin="round" stroke-width="2"/><path d="m58.3 24 1.6-.9q1.85-.95 3.95-1.7 2.65-.9 5.75-1.5M58.3 24q-3.5 1.95-5.95 4.9l-.6.65m3.4 20.7 2.3.15 2 .05m-26.1 18.2.5.1.6.25q5.3 1.7 9.2 3.45l2.15 1M31 31.25q-1.8 4.15-3 8.8-1.9 6.85-2.75 14.9-.85 15.8-11.95 25.65L10 83.15q2.9 3.2 1.45 7.4l-1.5 1.55q-1.5 1.2-3.45 1.3l-2.55-.2m8.6 0 .25 1.05.3 1 .3 2.6m5.25-41.35q1.6-4.25-1.2-12.35M4.65 87.5q-.55-1.25 0-3.55 1.85-3 5.35-.8M5.05 88.1q.75.8 2.45.8m23.95-4.45.35.4m-4.65-4.1-2.25-1.3-1.6-.8m3.85 2.1h.1q2.5 1.65 4.2 3.7m3.8 9.1Q32.2 91.5 27.9 89.9l-1.5-.55M5.05 88.1l-.4-.6M31 31.25q1.9-4.55 4.4-8.5" fill="none" stroke="#4b1d6b" stroke-linecap="round" stroke-linejoin="round" transform="translate(1 1)"/></g><g id="j"><path d="m34.75.2 2.3 9.65q.4 2.55-.3 3.95-.3-1.7-1.25-3.85-3.55-4.7-3.75-9.25l3-.5" fill="#6d60b2" fill-rule="evenodd" transform="translate(1)"/><path d="M44 1.35Q41.05 5.9 40.95 11.5q-.1 2.45-2.35 4.65l-2.15 1.6q.75-1.55.3-3.95.7-1.4.3-3.95L34.75.2q5.5-.7 9.25 1.15" fill="#423392" fill-rule="evenodd" transform="translate(1)"/><path d="M36.75 13.8q.45 2.4-.3 3.95-1.4 1.2-1.9 2.25-1.8-.75-3.2-2.35.8-1.3 3.85-2.4 1.05-.5 1.55-1.45" fill="#5e4ad0" fill-rule="evenodd" transform="translate(1)"/><path d="m36.45 17.75 2.15-1.6q2.25-2.2 2.35-4.65.1-5.6 3.05-10.15 5.55 2.75 7.05 11.2-10.2 10-16.5 7.45.5-1.05 1.9-2.25" fill="#23165c" fill-rule="evenodd" transform="translate(1)"/><path d="M31.75.7q.2 4.55 3.75 9.25.95 2.15 1.25 3.85-.5.95-1.55 1.45-3.05 1.1-3.85 2.4-3.9-4.35-5.8-15.25 3.35-1.1 6.2-1.7" fill="#9d8afe" fill-rule="evenodd" transform="translate(1)"/><path d="M35.55 20q6.3 2.55 16.5-7.45m-19.7 5.1q1.4 1.6 3.2 2.35m-3.2-2.35q-3.9-4.35-5.8-15.25" fill="none" stroke="#23165f" stroke-linecap="round" stroke-linejoin="round" stroke-width="2"/><path d="m1.6 14.9.45.55.6.4 1.15.2q1.05 0 1.75-.6l.4-.35.3.2-.3-.2.3-1q0-.75-.6-1.3.7-.15 1.05.7.75-1.85 3.75-3-.85 2.55 1.6 2.15l.6-.1 2.55.2.05.05.7.2.45 3.55q-.1 2.05 1.45 1.75 0 1.15.45 2.65-.45-1.5-.45-2.65l.75-.25.4 1.5 3.2 1.6 3.15-.85q9.05-.75 5.85-2.6l.9-2.5 1.4 3.6 1.75-1.5-.6 2.3 2.8.7-4.9-.15q-4.9.2-8.8 2.65l-.05.95q-.45.15-.8.55-.65.7-.4 1.9v.2l-.35.4q-.75-2.85-3.95-3.7l-.75-.7q-2.45-2.45-2.8-7.15l.05-1.1q-.2-1.4-1.6-.95l-3.15.2v-.05Q9.6 13 8.8 12.8l-.5.05q-1.6.2-1.95 1.7l-.1.75v1.1l-1.05.4-.95.15-.85-.2-.75-.2q-.6 0-.85.45h-.1l-.85.15q-.5-1.2.75-2.25" fill="#ffc289" fill-rule="evenodd" transform="translate(1)"/><path d="m5.95 15.1-.4.35q-.7.6-1.75.6l-1.15-.2-.6-.4-.45-.55 1.05-.8L5.2 13q.1 1.45.75 2.1-.65-.65-.75-2.1l.45-.2q.6.55.6 1.3l-.3 1m4.5-4.6.25-.15 1.85-.55.85.55.5.2q-1.1.95-1.25 2 .15-1.05 1.25-2l3.9.4.2 3.95.2 1.35.4 1.8-.75.25q-1.55.3-1.45-1.75L15.95 13l-.7-.2-.05-.05-2.55-.2-.6.1q-2.45.4-1.6-2.15m14.9 9.8q3.3-1.1 5.85-2.6 3.2 1.85-5.85 2.6m-1.1 4.55V26q0 1.8.55 3.2h-.1q-.6-.05-1.35-.95-.65-.75-.85-1.85v-.2q-.25-1.2.4-1.9.35-.4.8-.55 0 .9.55 1.1m-7.85-8.3q1.3-.95 1.6-1.65-.3.7-1.6 1.65m-.2-4.75q-.8.3-1 .95.2-.65 1-.95M24.25 26q-1.15 0-1.75.4.6-.4 1.75-.4m-6.05-9.75q-.4.85-.35 2.05-.05-1.2.35-2.05" fill="#ffead5" fill-rule="evenodd" transform="translate(1)"/><path d="M9.95 13.35v.05l.15.7q-1.45.6-1.85 1.5.05-1.25 1.7-2.25" fill="#442a0f" fill-rule="evenodd" transform="translate(1)"/><path d="M6.25 16.4v-.35l.7-.1.95-1.3q.9-.9.4-1.8l.5-.05q.8.2 1.15.55-1.65 1-1.7 2.25-.35.55-.2 1.2-.4.85-.4 1.8l-.75-.75-.3-.4-.35-1.05" fill="#603d13" fill-rule="evenodd" transform="translate(1)"/><path d="M22.7 33.9 21.45 35l.05-.4v-.15q.35-2.45-1.15-2.8l-.75-.05q-.1-.85 1.1-2.4-1.3-.45-2.05 0l-.1-.05q1.5-.95-5.45-3.6L12 22.4q-1.45-3.15-3.5-3.6l-.2-.6-.65.4L7 19l-.3.25q-1.3.95-2.45.15l.05-.7v-.05l.6.05 1.15-.25.85-.6.75.75q0-.95.4-1.8.4-.85 1.35-1.6 1.8 1.15 3.35.3l1.55-1q-2.85.8-4.35 0l.15-.4-.15-.7 3.15-.2q1.4-.45 1.6.95l-.05 1.1q.35 4.7 2.8 7.15l.75.7q3.2.85 3.95 3.7l.1 1.8.15 1.2.3 4.1m-8-19.75-.4.35.4-.35m-.85 6.55q.45-3.75-1.1-5.2 1.55 1.45 1.1 5.2" fill="#693e14" fill-rule="evenodd" transform="translate(1)"/><path d="m4.25 19.4-.85 4.7-.8-.35Q1.65 21.3 2.35 20l.05-.1.35-.45q.55-.5 1.55-.75l-.05.7m3.8-2.6q-.15-.65.2-1.2.4-.9 1.85-1.5l-.15.4-.55.7q-.95.75-1.35 1.6" fill="#e68c14" fill-rule="evenodd" transform="translate(1)"/><path d="M4.25 18.05h1.2l1.15-.6.3.4-.85.6-1.15.25-.6-.05-.05-.6m14 13.75q-.65-1.25.4-2.6.75-.45 2.05 0-1.2 1.55-1.1 2.4l-1.35.2M9.4 15.2l.55-.7q1.5.8 4.35 0l-1.55 1q-1.55.85-3.35-.3" fill="#fede4d" fill-rule="evenodd" transform="translate(1)"/><path d="m37.45 20.3-2.05 1.35-4.8.5q-1.85-.9-6.85.65 3.9-2.45 8.8-2.65l4.9.15" fill="#633b17" fill-rule="evenodd" transform="translate(1)"/><path d="M30.6 22.15q-2.9.6-5.15 1.95l-1.2.75q-.55-.2-.55-1.1l.05-.95q5-1.55 6.85-.65" fill="#e7cc41" fill-rule="evenodd" transform="translate(1)"/><path d="m24.8 29.2.55 1.15-.35.55-2.3 3-.3-4.1-.15-1.2-.1-1.8.35-.4q.2 1.1.85 1.85.75.9 1.35.95h.1M21.4 35l-2.2.05-.15-.45q0-.45.35-.7l.4-.2.5-.05.8.25.4.55-.1.55m1-5.2 2.6 1.1-2.6-1.1" fill="#ffc48c" fill-rule="evenodd" transform="translate(1)"/><path d="M18.55 29.15q-1.8-1.35-5.2-1.5-1.95-2.25-3.4-5.25l-.8-2-.65-1.6q2.05.45 3.5 3.6l1.1 3.15q6.95 2.65 5.45 3.6" fill="#fddf4b" fill-rule="evenodd" transform="translate(1)"/><path d="M14.7 32.45q2.05.9 3.85-.25l-.3-.4 1.35-.2.75.05q-.3 1.5-1.35 1.9-1.4.5-4.3-1.1" fill="#af6a0b" fill-rule="evenodd" transform="translate(1)"/><path d="M20.35 31.65q1.5.35 1.15 2.8l-.4-.55-.8-.25-.5.05-.8-.15q1.05-.4 1.35-1.9" fill="#5e3f11" fill-rule="evenodd" transform="translate(1)"/><path d="M19.2 35.05q-3.75-.2-4.5-2.6 2.9 1.6 4.3 1.1l.8.15-.4.2q-.35.25-.35.7l.15.45" fill="#89591b" fill-rule="evenodd" transform="translate(1)"/><path d="M1.7 17h.95l.15.1q-1.55 1.75-.4 2.8l-.05.1q-.7 1.3.25 3.75Q.4 22.65.1 20.9q2.3-.2 1.6-3.9m1.8.3q.55.2.75.75l.05.6v.05q-1 .25-1.55.75.75-1.25.75-2.15" fill="#8b591a" fill-rule="evenodd" transform="translate(1)"/><path d="M.85 17.15 1.7 17q.7 3.7-1.6 3.9-.35-1.55.75-3.75" fill="#e5aa5a" fill-rule="evenodd" transform="translate(1)"/><path d="M1.8 17q.25-.45.85-.45l.75.2.85.2.95-.15 1.05-.4.35 1.05-1.15.6h-1.2q-.2-.55-.75-.75l-.7-.2-.15-.1H1.8" fill="#6a3d14" fill-rule="evenodd" transform="translate(1)"/><path d="m2.8 17.1.7.2q0 .9-.75 2.15l-.35.45q-1.15-1.05.4-2.8" fill="#5e3d12" fill-rule="evenodd" transform="translate(1)"/><path d="M6.25 16.05v-.75l.1-.75q.35-1.5 1.95-1.7.5.9-.4 1.8l-.95 1.3-.7.1" fill="#e6ab5b" fill-rule="evenodd" transform="translate(1)"/><path d="M.85 17.15 1.7 17h.95l.15.1.7.2q.55.2.75.75l.05.6v.05l-.05.7m2-3v-1.1l-.3-.2q-.65-.65-.75-2.1m1.4 4.45-.35-1.05m6.4-3.85q.15-1.05 1.25-2m17.3 7.15.9-2.5 1.4 3.6 1.75-1.5-.6 2.3 2.8.7-2.05 1.35m-27.1-8.8.5-.05q.8.2 1.15.55v.05l.15.7-.15.4-.55.7q1.8 1.15 3.35.3l1.55-1 .4-.35m7.45 12.65.35-.4q.6-.4 1.75-.4m-.55-2.25.05-.95m-15.7-6q.4-.85 1.35-1.6m-1.1-2.35q-1.6.2-1.95 1.7l-.1.75m9-2.5-.05-.05q.2-.65 1-.95m1.8 3.1q-.3.7-1.6 1.65m1.45 1.75q0 1.15.45 2.65m-.45-2.65q-.05-1.2.35-2.05m6.05 8.6q-.55-.2-.55-1.1m-5.05 5.45q.75-.45 2.05 0m-1.1 2.4.75.05q1.5.35 1.15 2.8l-.1.55m-3.15-3.2 1.35-.2m5.4-.7-2.6-1.1M7.65 18.6l-.75-.75-.3-.4m1.45-.65q-.4.85-.4 1.8m5.1-3.1q1.55 1.45 1.1 5.2" fill="none" stroke="#40260d" stroke-linecap="round" stroke-linejoin="round" transform="translate(1)"/><path d="M2.6 14.9q-1.25 1.05-.75 2.25-1.1 2.2-.75 3.75.3 1.75 2.5 2.85l.8.35.85-4.7q1.15.8 2.45-.15L8 19l.65-.4.65-.4.2.6.65 1.6q-2.05.45-2.45-1.15M6.2 13l-2.55 1.1-1.05.8m12.3-4.35-.5-.2-.85-.55-1.85.55-.25.15q-3 1.15-3.75 3-.35-.85-1.05-.7l-.45.2m8.7-2.45 3.9.4.2 3.95.2 1.35.4 1.8.4 1.5 3.2 1.6 3.15-.85q3.3-1.1 5.85-2.6m4.2 3.95-4.8.5q-2.9.6-5.15 1.95l-1.2.75V26q0 1.8.55 3.2l.55 1.15-.35.55-2.3 3-1.25 1.1h-.05l-2.2.05q-3.75-.2-4.5-2.6 2.05.9 3.85-.25l-.3-.4q-.65-1.25.4-2.6l-.1-.05q-1.8-1.35-5.2-1.5-1.95-2.25-3.4-5.25l-.8-2" fill="none" stroke="#40260d" stroke-linecap="round" stroke-linejoin="round" stroke-width="2"/></g><g id="k"><path d="m20 .2.2-.05q15.4-1.3 24.95 10.8-.75 2.4-2.75 4.55-1.7-.25-4.1-1.7 1.2-4.75-12.55-11.15Q23.15 1.4 20 .2m8.45 19.9.15.05.45.15h.1l4.15 1.35q.3.75.05 1.85l.95 1.55-2.9-2.65q-1.8-.75-2.25-1.35l-.15-.2-.55-.75m-4.5 13.85-4.4-2.45-.2-.45q-1.3-2.45-1.5-4.55v-.15q2.15 5.05 6.1 7.6" fill="#aeb205" fill-rule="evenodd" transform="translate(.5 1)"/><path d="m38.3 13.8-.2.55q-2.1 2-8.85 5.85l-.1.1h-.1l-.45-.15-.15-.05q12.95-7.85-1.7-7.65l.05-.75 8.1-.35q1.85 1.5 3.4 2.45m-4 11.25q5.7 6 4.15 11.25-9 1.35-14.5-2.35 4.5 2.1 2.3-1.7-1-1.55-1.15-3.6l8.4 2.95q3.6 1.15 1.95-2.75l-1.15-3.8" fill="#9d8afe" fill-rule="evenodd" transform="translate(.5 1)"/><path d="M38.3 13.8q2.4 1.45 4.1 1.7-2.9 3.1-8.3 5.75 13.05 9.4 10 18.85-16.25 3.35-24.15-7.85l-.4-.75.4.75q.2 5.8-3.55 7.85-6.9-1.25-10.85-5.95 3.85 2.05 6.5 2.25 2.85.2 4.3-1.7.8-1.15 1.2-2.9 1.15.85 1.65-.5l.15-.25.2.45 4.4 2.45q5.5 3.7 14.5 2.35Q40 31.05 34.3 25.05l-.95-1.55q.25-1.1-.05-1.85l-4.15-1.35.1-.1q6.75-3.85 8.85-5.85l.2-.55" fill="#f9ff07" fill-rule="evenodd" transform="translate(.5 1)"/><path d="M25.75 2.65Q39.5 9.05 38.3 13.8q-1.55-.95-3.4-2.45l-8.1.35q.15-5.8-1.05-9.05" fill="#7260b2" fill-rule="evenodd" transform="translate(.5 1)"/><path d="m26.8 11.7-.05.75q14.65-.2 1.7 7.65l-.05-.1-.65-.6-3.8-2.95q1.45-3.05 1.3-4.8l1.55.05m2.35 9.35q.45.6 2.25 1.35l2.9 2.65 1.15 3.8q1.65 3.9-1.95 2.75l-8.4-2.95q.15 2.05 1.15 3.6 2.2 3.8-2.3 1.7-3.95-2.55-6.1-7.6v-.1q5.2 5.95 4.25-2.45 8.95.5 7.05-2.75M11.9 10.75Q18.1 21.3 13 25.3q-2.3 1.8-6.9 2.25-2.7-4-6.1-10-.15-7.9 5.9-12.4 1.7 3.35 6 5.6" fill="#5f49d0" fill-rule="evenodd" transform="translate(.5 1)"/><path d="M20 .2q3.15 1.2 5.75 2.45 1.2 3.25 1.05 9.05l-1.55-.05q-.2-2.85-4.3-2.45-6.1-1.45-11.15-6.3Q14 1 20 .2" fill="#4c338f" fill-rule="evenodd" transform="translate(.5 1)"/><path d="M11.9 10.75q1.7.9 3.9 1.65 2.1 3.45 1.6 7.95-.25 2.2.65 2.7-.35 1.5-.3 2.9Q15.7 24.3 13 25.3q5.1-4-1.1-14.55" fill="#311f83" fill-rule="evenodd" transform="translate(.5 1)"/><path d="M18.05 23.05q-.9-.5-.65-2.7.5-4.5-1.6-7.95-2.2-.75-3.9-1.65-4.3-2.25-6-5.6 1.7-1.2 3.9-2.25 4.2 6.9 13.35 8.45 1.55 6.4-2.35 11.1-1.95 1.1-2.75.6" fill="#22175c" fill-rule="evenodd" transform="translate(.5 1)"/><path d="M25.25 11.65q.15 1.75-1.3 4.8l3.8 2.95.65.6.05.1.55.75.15.2q1.9 3.25-7.05 2.75.95 8.4-4.25 2.45l-.1-.3q-.05-1.4.3-2.9.8.5 2.75-.6 3.9-4.7 2.35-11.1l2.1.3" fill="#301f85" fill-rule="evenodd" transform="translate(.5 1)"/><path d="M17.85 26.35v.15q-.3 5.75-4.45 3.25-1.85 2.65-4.85 1.15L6.1 27.55q4.6-.45 6.9-2.25 2.7-1 4.75.65l.1.3v.1" fill="#22175b" fill-rule="evenodd" transform="translate(.5 1)"/><path d="M11.55 34.1q3.15 1.55 5.2-3.05l-.7 2.3q-1.3 3-4 1.15l-.5-.4" fill="#5e48ce" fill-rule="evenodd" transform="translate(.5 1)"/><path d="m8.55 30.9.9 1 2.1 2.2.5.4q2.7 1.85 4-1.15l.7-2.3.8.75q-.4 1.75-1.2 2.9-1.45 1.9-4.3 1.7-2.65-.2-6.5-2.25Q3.6 31.8 2.4 28.6 0 22.4 0 17.55q3.4 6 6.1 10l2.45 3.35" fill="#9e8bff" fill-rule="evenodd" transform="translate(.5 1)"/><path d="M17.85 26.5q.1 3.1-.3 5.3l-.8-.75q-2.05 4.6-5.2 3.05l-2.1-2.2-.9-1q3 1.5 4.85-1.15 4.15 2.5 4.45-3.25" fill="#423392" fill-rule="evenodd" transform="translate(.5 1)"/><path d="M17.85 26.5q.2 2.1 1.5 4.55l-.15.25q-.5 1.35-1.65.5.4-2.2.3-5.3" fill="#7b8000" fill-rule="evenodd" transform="translate(.5 1)"/><path d="M23.15 11.35Q14 9.8 9.8 2.9q5.05 4.85 11.15 6.3 4.1-.4 4.3 2.45l-2.1-.3" fill="#26165d" fill-rule="evenodd" transform="translate(.5 1)"/><path d="M20.2.15 20 .2Q14 1 9.8 2.9 7.6 3.95 5.9 5.15-.15 9.65 0 17.55 0 22.4 2.4 28.6q1.2 3.2 3.15 5.55m22.9-14.05.15.05.45.15h.1l4.15 1.35M19.55 31.5l.4.75M28.4 20l.05.1m-10.6 6.25v.15q.2 2.1 1.5 4.55l.2.45m-1.8-5.55q-.05-1.4.3-2.9m-.2 3.3v-.1l-.1-.3" fill="none" stroke="#23165f" stroke-linecap="round" stroke-linejoin="round" transform="translate(.5 1)"/><path d="M42.9 16.5q2-2.15 2.75-4.55Q36.1-.15 20.7 1.15m-.25 32.1q7.9 11.2 24.15 7.85 3.05-9.45-10-18.85 5.4-2.65 8.3-5.75M6.05 35.15Q10 39.85 16.9 41.1q3.75-2.05 3.55-7.85" fill="none" stroke="#23165f" stroke-linecap="round" stroke-linejoin="round" stroke-width="2"/></g><g id="l"><path d="M55.8 55.1q-.4 1.15-5.8 4.2l.45-4.4q.2-8.05-3.5-11.95 1.7 1 3.7 1.5 1.75.75 2.3 6.95-1.3 5.1 2.85 3.7" fill="#301f85" fill-rule="evenodd"/><path d="M2.65 47.4Q-5.1 9.35 10 1.85q7.35-3.65 20.15 0l1.5.5Q72.35 15 55.8 55.1q-4.15 1.4-2.85-3.7-.55-6.2-2.3-6.95-2-.5-3.7-1.5-4.55-2.55-7.25-7.85l-.85-1.65q-.35 2.8-2.05 5.05-3.95 1.05-9.05-2 1.1 2.65 1.05 5.7-6.4 2.35-11.65-4.8-2.05 4.2-4.85 6.85-2.9 3.2-3.55 6L8.5 51.4l-.2.85-5.65-4.85" fill="#22175c" fill-rule="evenodd"/><path d="m42.15 61.2-6.75.55q-1.5-.4 1.35-1.55 9.35-2.65 8.65-11.8-2.1-5.7-10.7-8.55l1.55-.15q3.1-1.35 3.45-4.6 2.7 5.3 7.25 7.85 3.7 3.9 3.5 11.95l-1.5-1.4q-.35 1.75-3.2 3.45-4.8 1.5-3.6 4.25M11.7 54.6l-3.4-2.35.2-.85.25-1.15 3.4-5.05q2.4-2.15 4.65-5.3-1.35 3.6-3.8 6.55-2.1 4.4-1.3 8.15" fill="#5f49d0" fill-rule="evenodd"/><path d="M50 59.3q-4 1.25-7.85 1.9-1.2-2.75 3.6-4.25 2.85-1.7 3.2-3.45l1.5 1.4-.45 4.4" fill="#433493" fill-rule="evenodd"/><path d="M39.7 35.1q-.35 3.25-3.45 4.6l-1.55.15h-.05q-3.15.05-5.5-2 .6 2.45-.15 4.45l-.75 1.2q-6.2.9-10.95-4.35l-.5.75q-2.25 3.15-4.65 5.3l-3.4 5.05q.65-2.8 3.55-6 2.8-2.65 4.85-6.85 5.25 7.15 11.65 4.8.05-3.05-1.05-5.7 5.1 3.05 9.05 2 1.7-2.25 2.05-5.05l.85 1.65" fill="#423390" fill-rule="evenodd"/><path d="M35.4 61.75q-12.45.1-23.7-7.15-.8-3.75 1.3-8.15 2.45-2.95 3.8-6.55l.5-.75q4.75 5.25 10.95 4.35l.75-1.2q.75-2 .15-4.45 2.35 2.05 5.5 2h.05q8.6 2.85 10.7 8.55.7 9.15-8.65 11.8-2.85 1.15-1.35 1.55" fill="#9d8afe" fill-rule="evenodd"/><path d="M50 59.3q-4 1.25-7.85 1.9l-6.75.55q-12.45.1-23.7-7.15l-3.4-2.35-5.65-4.85" fill="none" stroke="#23165f" stroke-linecap="round" stroke-linejoin="round" stroke-width="2"/></g><g id="m"><path d="M25.15 3.35q4.1 13.1-7.55 14.45l1.5-2.2q1.85-2.55 4.25-5.25Q25.5 6.95 24.5 5l.25-1.15.4-.5" fill="#22175c" fill-rule="evenodd" transform="translate(1)"/><path d="M19.1 15.6q-2.85-5.7.35-7.55 3.8-1.65 5.3-4.2L24.5 5q1 1.95-1.15 5.35-2.4 2.7-4.25 5.25" fill="#423390" fill-rule="evenodd" transform="translate(1)"/><path d="M21.55 1.45q1.8.75 3.6 1.9l-.4.5q-1.5 2.55-5.3 4.2-3.2 1.85-.35 7.55l-1.5 2.2-3 .45q-.45-3.95-3.05-5.5-1.65-1.55.4-2.1 7.65-1.75 9.6-9.2" fill="#5f49d0" fill-rule="evenodd" transform="translate(1)"/><path d="m14.6 18.25-5.3-.3Q.2 14.2 5.1 3.65q7.55-5.95 16.45-2.2-1.95 7.45-9.6 9.2-2.05.55-.4 2.1 2.6 1.55 3.05 5.5" fill="#9d8afe" fill-rule="evenodd" transform="translate(1)"/><path d="M26.15 3.35q4.1 13.1-7.55 14.45m-8.3.15Q1.2 14.2 6.1 3.65" fill="none" stroke="#23165f" stroke-linecap="round" stroke-linejoin="round" stroke-width="2"/><path d="M23.6 13.9q.05 1.25-.4 2.65l-1.3 1.1-.35-1.4.35-.35.5.25.45-.25.2-.65-.2-.6-.45-.25q-.2 0-.35.15l-.1-.25q-.1-.75-.65-1.15 1.1 0 2.3.75M.2 17.6 0 17q.05-1.4.85-2.35 0 .9.9.9Q2.65 15.5 3 14l-.65-.5.3-.15h.25l.5-.05q1.6-.05 2.3.5-2.3.5-2.85 1.9l-.2.85Q1.95 18.4.2 17.6" fill="#875a19" fill-rule="evenodd" transform="translate(1)"/><path d="M22.05 14.55q.15-.15.35-.15l.45.25.2.6-.2.65-.45.25-.5-.25.05-.3q.25-.45.1-1.05" fill="#dca459" fill-rule="evenodd" transform="translate(1)"/><path d="m.85 14.65.1-.05q.45-.7 1.4-1.1L3 14q-.35 1.5-1.25 1.55-.9 0-.9-.9" fill="#e7aa5a" fill-rule="evenodd" transform="translate(1)"/><path d="m20.4 9.6 2 1.45.05.05q0 1.25-.55 1.25-.55-.05-1.5-.8l-.45-.5q-.45-.45-.35-.8.05-.65.8-.65m-8.85 23.85q-1.5-.4-2.8-2.65.55-.4 1.25-.4.8 0 1.35.55l.4.65-1.5-.35 1.5.35.15.7-.35 1.15m-3.6-10.5L6.8 19l.25-.3 1.35-.15q1 .05 1 1.95 0 1.85-.3 2.15-.35.25-1.15.3M5.9 11.1l2.65-.5.1.05h.05l.45.6-.2.4-.25.15-1.15.3-1.15-.3q-.5-.2-.5-.55v-.15m16.5-.05h-2.45 2.45m-13.45.6q-.65-.4-3.05-.45 2.4.05 3.05.45" fill="#feecd8" fill-rule="evenodd" transform="translate(1)"/><path d="M2.9 13.35q.55-1.4 2.85-2.15h.15v.05q0 .35.5.55l1.15.3 1.15-.3.25-.15.2-.4-.45-.6h-.05v-.05q2.5.2 2.35 2.75l.1.65q-.7-1.1-2-1.1-.35 0-.95.35l-.95.25q-.5 0-.95-.45-.55-.55-1.1-.55-1.1 0-1.75.8l-.5.05" fill="#ffc38d" fill-rule="evenodd" transform="translate(1)"/><path d="M6.25 15.15q-2.75.05-3.15 1.6l-.45.3v-.5l.2-.85q.55-1.4 2.85-1.9.55.45.55 1.35" fill="#412c0f" fill-rule="evenodd" transform="translate(1)"/><path d="M15.9 12.8v-1.55q.35-.55 1.05-.9.85.3.8 1.95-.15 1.7.8 2.55l.45.3q2 1.7-.5 3.45-1.25 1.5-1.95 3.4-.25.4-.35.9-1.05 2.8-1.1 6.4l-.75-.15-.7-1-.8-.95q-1.25-1.25-1.25-2.65-.05-.7.25-1.4l-.55.15q0-2.1-.85-4.3-.55-1.6-1.4-1.9-1.1-.85-3.35-.55l.5-1.05.05-.35q0-.9-.55-1.35-.7-.55-2.3-.5.65-.8 1.75-.8.55 0 1.1.55.45.45.95.45l.95-.25q.6-.35.95-.35 1.3 0 2 1.1.4 3.4 1.2 5 .5 1.05 1.15 1.3h.1q1.15-.6 1.75-2.45l.5-2.65.1-1.35V12.8" fill="#6a3d14" fill-rule="evenodd" transform="translate(1)"/><path d="M5.5 16.9q-2.2.7-1.85 2.8-.8-1.85-.55-2.95.4-1.55 3.15-1.6l-.05.35-.5 1.05-.2.35m13.05-2.05.2-.2 1 .3h.05q1.15.45 1.3 1.4.1.75-.5 1.9l-2.1.35q2.5-1.75.5-3.45l-.45-.3m-6.95 9.7q0 1.4 1.25 2.65l.8.95-.8.6-.55-.45-.05-.15-.1.05q-.6-.6-.75-1.35-.25-1 .2-2.3" fill="#f89311" fill-rule="evenodd" transform="translate(1)"/><path d="m11 13.35 1.65-1.55.75 1.5q-.2 3.95-1.1 5.7-.8-1.6-1.2-5l-.1-.65" fill="#ffc48c" fill-rule="evenodd" transform="translate(1)"/><path d="m14.2 17.6.15-1.45q-.05-.6.15-1.1V15l1.3.2-1.3-.2q.25-.75.95-1.15h.45l-.1 1.35-.5 2.65q-.6 1.85-1.75 2.45h-.1l.75-2.7 1.1.25-1.1-.25" fill="#683c15" fill-rule="evenodd" transform="translate(1)"/><path d="M13.4 13.3q.7-1.35 2.5-.5v1.05h-.45q-.7.4-.95 1.15v.05q-.2.5-.15 1.1l-.15 1.45-.75 2.7q-.65-.25-1.15-1.3.9-1.75 1.1-5.7" fill="#99581e" fill-rule="evenodd" transform="translate(1)"/><path d="m18.65 9.75 1.7-.2.05.05q-.75 0-.8.65-.1.35.35.8l.45.5q.95.75 1.5.8.55 0 .55-1.25 1.1 1.25 1.15 2.8-1.2-.75-2.3-.75l-.75.15-.8.4-1 .95-.2.2q-.95-.85-.8-2.55l.75-1.1q.8-.75.15-1.45" fill="#fbc48b" fill-rule="evenodd" transform="translate(1)"/><path d="M16.95 10.35q.65-.4 1.7-.6.65.7-.15 1.45l-.75 1.1q.05-1.65-.8-1.95" fill="#97561c" fill-rule="evenodd" transform="translate(1)"/><path d="m21.9 17.65-1 .5-.3.1q.6-1.15.5-1.9l.25-.05.2-.05q-.45-2-1-2.95l.75-.15q.55.4.65 1.15l.1.25q.15.6-.1 1.05l-.05.3-.35.35.35 1.4M3.65 19.7q-2.7 0-3.45-2.1 1.75.8 2.45-1.05v.5l.45-.3q-.25 1.1.55 2.95" fill="#603f14" fill-rule="evenodd" transform="translate(1)"/><path d="m18.75 14.65 1-.95.8-.4q.55.95 1 2.95l-.2.05-.25.05q-.15-.95-1.3-1.4h-.05l-1-.3" fill="#432a0b" fill-rule="evenodd" transform="translate(1)"/><path d="M19.65 19.75q-2.7 5.35-2.9 12.25-.75-2.1-1.65-2.7.05-3.6 1.1-6.4.1-.5.35-.9 1.05-2.45 3.1-2.25m-6 8.4.7 1 .45 1.35q-1.35-1.7-1.95-1.75l.8-.6" fill="#fcde4c" fill-rule="evenodd" transform="translate(1)"/><path d="m20.9 18.15-1.25 1.6q-2.05-.2-3.1 2.25.7-1.9 1.95-3.4l2.1-.35.3-.1" fill="#885424" fill-rule="evenodd" transform="translate(1)"/><path d="M14.6 33.45q-1.4.55-3.05 0l.35-1.15-.15-.7.9-.05-.9.05-.4-.65q-.55-.55-1.35-.55-.7 0-1.25.4l-.45-.95q-.3-.95-.15-2.75V27l.15-1.85-.35-2.2q.8-.05 1.15-.3.3-.3.3-2.15 0-1.9-1-1.95l-1.35.15-.25.3-1.3-2.1h.7l1.25.3.85-.15.75.05q.85.3 1.4 1.9.85 2.2.85 4.3-1.05.35-1.6 1.05-.45.6-.6 1.5v.05q-.15.75 0 1.75l.05.5q.5.95 1.2 1.2H9.7q.35.7 2.6 1.1l.35 1.1q.45 1 1.95 1.9" fill="#fdc48d" fill-rule="evenodd" transform="translate(1)"/><path d="m11.3 23.3.55-.15q-.3.7-.25 1.4-.45 1.3-.2 2.3-.25-.15-.5-.15l-.35-1.7q-.3-.65-.85-.65.55-.7 1.6-1.05" fill="#5e3c16" fill-rule="evenodd" transform="translate(1)"/><path d="M9.7 24.35q.55 0 .85.65l.35 1.7-.15-.05-.5.05-.2-.85-.45-.35-.5.35q.15-.9.6-1.5m1.5 4.9.85-.2.25-.75.55.45q-1.45.95-2.4.7v-.1h-.1q-.7-.25-1.2-1.2l-.05-.5q.2.4.5.4h.2l.45.7q.4.4.9.5h.05" fill="#8a5819" fill-rule="evenodd" transform="translate(1)"/><path d="M10.9 26.7q.25 0 .5.15.15.75.75 1.35l.15.1-.25.75-.85.2q.65-.2.3-.65-.55-.6-.6-1.7v-.2" fill="#442a0f" fill-rule="evenodd" transform="translate(1)"/><path d="m10.25 26.7.5-.05.15.05v.2q.05 1.1.6 1.7.35.45-.3.65h-.05q-.5-.1-.9-.5l-.45-.7.25-.4.2-.85v-.1" fill="#5e3d14" fill-rule="evenodd" transform="translate(1)"/><path d="m9.1 25.85.5-.35.45.35.2.85v.1l-.2.85-.25.4h-.2q-.3 0-.5-.4-.15-1 0-1.75v-.05" fill="#d7a15b" fill-rule="evenodd" transform="translate(1)"/><path d="m16.75 32-2.15 1.45q-1.5-.9-1.95-1.9l-.35-1.1q-2.25-.4-2.6-1.1h.65l.1.1q.95.25 2.4-.7.6.05 1.95 1.75l-.45-1.35.75.15q.9.6 1.65 2.7m-3.3-.75-.8.3.8-.3" fill="#95591d" fill-rule="evenodd" transform="translate(1)"/><path d="m9.05 17.1-.75-.05-.85.15-1.25-.3h-.7l.2-.35q2.25-.3 3.35.55" fill="#97591e" fill-rule="evenodd" transform="translate(1)"/><path d="m19.65 9.75 1.7-.2.05.05 2 1.45m.05.05q1.1 1.25 1.15 2.8.05 1.25-.4 2.65l-1.3 1.1m-1 .5-1.25 1.6q-2.7 5.35-2.9 12.25l-2.15 1.45q-1.4.55-3.05 0-1.5-.4-2.8-2.65l-.45-.95q-.3-.95-.15-2.75V27l.15-1.85-.35-2.2L7.8 19l-1.3-2.1q-2.2.7-1.85 2.8-2.7 0-3.45-2.1L1 17q.05-1.4.85-2.35l.1-.05q.45-.7 1.4-1.1l.3-.15h.25q.55-1.4 2.85-2.15m.15-.1 2.65-.5m.1 0q2.5.2 2.35 2.75m4.9-.55v-1.55q.35-.55 1.05-.9.65-.4 1.7-.6" fill="none" stroke="#40260d" stroke-linecap="round" stroke-linejoin="round" stroke-width="2"/><path d="m22.4 11.05.05.05m-.55 6.55-1 .5-.3.1-2.1.35q2.5-1.75.5-3.45l-.45-.3.2-.2 1-.95.8-.4.75-.15q1.1 0 2.3.75M5.75 11.2l.15-.1m2.65-.5h.1M11 13.35l1.65-1.55.75 1.5q.7-1.35 2.5-.5v1.05l-.1 1.35-1.3-.2m3.25-2.7q-.15 1.7.8 2.55m1.4-3.8h2.45m-8.2 6.55 1.1.25.5-2.65m-9.9-4h-.15m.15 0q2.4.05 3.05.45M11.1 14l-.1-.65m-5.3 3.2.5-1.05.05-.35q0-.9-.55-1.35-.7-.55-2.3-.5l-.5.05m2.8 3.2-.2.35m5.8 6.4.55-.15q-.3.7-.25 1.4 0 1.4 1.25 2.65l.8.95.7 1 .45 1.35m-5.7-2.85q-.15-1 0-1.75v-.05q.15-.9.6-1.5.55-.7 1.6-1.05m-.95 6.05q-.7-.25-1.2-1.2l-.05-.5m1.35 1.8q.95.25 2.4-.7l.8-.6m-1.9 3.45.9-.05.8-.3m-1.7.35-1.5-.35m.2-1.8-.1-.1m3.1-9.05h.1q1.15-.6 1.75-2.45m-1.85 2.45q-.65-.25-1.15-1.3-.8-1.6-1.2-5" fill="none" stroke="#40260d" stroke-linecap="round" stroke-linejoin="round" transform="translate(1)"/></g><g id="n"><path d="m41.7 14.15-.5.7q-15.5-4.65-12.65 1.6 2.75 6.25 3.95 7.7 1.2 1.4 1.9 4.8l.05.2h.05q1.05 3.55 1.45 8.4.25 8-8.45 2.1-2.6-5.3-2.05-1.25Q27.3 53.2 20 45.65q-.6-1.8-1.9-3.5l-.35-.45q.3 3-.2 5.85-8.7 18.05-15.1 7.55l.05-1.75q0-1.25.15-2.55-2.2-.25-2.6-2.15.2-3.3 1.45-7.85 5.55-.6 12.25-6.15 6.65-5.55 6.9-8.6.25-3-.95-3.55l-.1-.15q-2.7-7.9-6.55-8.5l.8-1Q22.65 1.65 30.55.4q7.85-1.25 13 1.3 5.15 2.5 4.5 13.15l-3.05-.4q-1.9-.45-2.95-1.15l-.45.85q-.1.25.1 0M3.25 46.7l-.6 4.1.6-4.1" fill="#b7d60e" fill-rule="evenodd" transform="translate(.5 .5)"/><path d="m44.1 27.65-1.5-3.35-.1-.2-.5-1.55q-1.15-3.95-.2-8.7l-.1.3q-.2.25-.1 0l.45-.85q-.95 5 1.1 9.25l1.1 1.95q1.4 2.2 3.65 4.15l.35.3-.1.2-.35.5-.45.35-3.25-2.35M33.7 46.3q7.15 1.65 7.95-15.65 1.5 8.65-2.85 15.25-1.5 3.5-5.2.4h.1" fill="#536907" fill-rule="evenodd" transform="translate(.5 .5)"/><path d="m41.7 14.15.1-.3q-.95 4.75.2 8.7l.5 1.55.1.2 1.5 3.35-.25-.15q-.75-.5-1.25-.7l-1.15.05v.05q-.2.35-.05 1.55v.05q-.1.55.1 1.35l.15.55v.25q-.8 17.3-7.95 15.65-.5-1.5-1.45-1.15l-1.3-.95q-2.05-3-1.9-.75-.6-2.15-1.55-3.8 8.7 5.9 8.45-2.1-.4-4.85-1.45-8.4h-.05l-.05-.2q-.7-3.4-1.9-4.8-1.2-1.45-3.95-7.7-2.85-6.25 12.65-1.6l.5-.7" fill="#76950b" fill-rule="evenodd" transform="translate(.5 .5)"/><path d="m48.25 28.95-.35-.3q-2.25-1.95-3.65-4.15l-1.1-1.95q-2.05-4.25-1.1-9.25 1.05.7 2.95 1.15-.05 4.3.85 8.1l.75 2.6 1.65 3.8" fill="#394311" fill-rule="evenodd" transform="translate(.5 .5)"/><path d="m47.35 30 .45-.35.35-.5.1-.2-1.65-3.8-.75-2.6q-.9-3.8-.85-8.1l3.05.4q-.05 4.4 1.15 7.7 1.85 5.3 6.9 7.85-3.4 1.05-6 1.25l-6.15.3v-.15l-.85-2.3-.3-.45-.3-.55-.1-.25-.15-.3.25.2.25.2q2.5 1.95 3.95 1.85l.65-.2m2.75 1.65q-4.95.45-7-2.15 2.05 2.6 7 2.15" fill="#565900" fill-rule="evenodd" transform="translate(.5 .5)"/><path d="m41.65 30.4-.15-.55q-.2-.8-.1-1.35v-.05q-.15-1.2.05-1.55l.2.3.4.1.4-.1.15-.3v-.1q.5.2 1.25.7l.25.15L47.35 30l-.65.2q-1.45.1-3.95-1.85l-.25-.2-.25-.2-.35.15v.05l.35.15.15-.05.1.25q-.9.45-.85 1.9" fill="#b1b602" fill-rule="evenodd" transform="translate(.5 .5)"/><path d="M41.45 26.9v-.05l1.15-.05v.1l-.15.3-.4.1-.4-.1-.2-.3" fill="#fdf900" fill-rule="evenodd" transform="translate(.5 .5)"/><path d="m42.25 27.95.15.3-.15.05-.35-.15v-.05l.35-.15" fill="#f7fd07" fill-rule="evenodd" transform="translate(.5 .5)"/><path d="m30.95 44.2 1.3.95 1.25 1.05.1.1q3.7 3.1 5.2-.4 4.35-6.6 2.85-15.25v-.25q-.05-1.45.85-1.9l.3.55q-.1 22.9-7.7 19.85-2.55-2.25-4.75-2.2l-.9-1.55-.4-1.55q.35-.4 1.9.6" fill="#7d8300" fill-rule="evenodd" transform="translate(.5 .5)"/><path d="M27.5 39.65q.95 1.65 1.55 3.8v.15l.4 1.55Q30.4 50 30 57q-3.8-1.15-6.4-3.6 1.5-.15 2.3-1.5l.1-.15q1.5-2.5 1.15-8.85-1.35-4.9.35-3.25m16.45-7.7q2.4 8.8-4.7 21.1-5.15-.2-8.9-6.35 2.2-.05 4.75 2.2 7.6 3.05 7.7-19.85l.3.45.85 2.3v.15" fill="#4c4d01" fill-rule="evenodd" transform="translate(.5 .5)"/><path d="m19.6 22.35.1.15q1.2.55.95 3.55-.25 3.05-6.9 8.6Q7.05 40.2 1.5 40.8l.2-.7q1.7.15 5.85-2.15 4.15-2.3 8.7-6.7 4.45-4.45 3.35-8.9" fill="#769509" fill-rule="evenodd" transform="translate(.5 .5)"/><path d="M13.05 13.85q3.85.6 6.55 8.5 1.1 4.45-3.35 8.9-4.55 4.4-8.7 6.7-4.15 2.3-5.85 2.15 1.6-5.9 4.8-13.95l5.9-11.35.65-.9v-.05" fill="#536708" fill-rule="evenodd" transform="translate(.5 .5)"/><path d="M20.4 49.05q-.25 3.75-3.55 7.8-6.85 8.6-7.15 15.9-4-3.75-5.75-8.8 2.7 3.8 5.25-.6 2.45-4.35 6.1-8 3.7-5.5 2.8-13.2 1.3 1.7 1.9 3.5l.4 2.15v1.25" fill="#4b4e01" fill-rule="evenodd" transform="translate(.5 .5)"/><path d="m3.95 63.95-.9-3.2.05-.05q.75-.15 2.25.5 1.1 1.5 3.3.35 2.65-2.3 5.85-6.3l1.35-2.4q1.2-2.6 1.7-5.3.5-2.85.2-5.85l.35.45q.9 7.7-2.8 13.2-3.65 3.65-6.1 8-2.55 4.4-5.25.6" fill="#7c8100" fill-rule="evenodd" transform="translate(.5 .5)"/><path d="M23.6 53.4q-1.95-1.85-3.2-4.35V47.8q2.1.5 5.6 3.95l-.1.15q-3.4-.55-2.3 1.5" fill="#b2b800" fill-rule="evenodd" transform="translate(.5 .5)"/><path d="M29.05 43.45q-.15-2.25 1.9.75-1.55-1-1.9-.6v-.15m3.2 1.7q.95-.35 1.45 1.15h-.1l-.1-.1-1.25-1.05" fill="#b2b600" fill-rule="evenodd" transform="translate(.5 .5)"/><path d="M20 45.65q7.3 7.55 5.45-7.25-.55-4.05 2.05 1.25-1.7-1.65-.35 3.25.35 6.35-1.15 8.85-3.5-3.45-5.6-3.95l-.4-2.15" fill="#759609" fill-rule="evenodd" transform="translate(.5 .5)"/><path d="M25.9 51.9q-.8 1.35-2.3 1.5-1.1-2.05 2.3-1.5" fill="#6c7002" fill-rule="evenodd" transform="translate(.5 .5)"/><path d="m15.85 52.85-1.35 2.4q-3.2 4-5.85 6.3-2.2 1.15-3.3-.35-1.5-.65-2.25-.5 1.05-1.85 3-.9 3.85.45 9.75-6.95" fill="#526806" fill-rule="evenodd" transform="translate(.5 .5)"/><path d="M.05 48.65q.4 1.9 2.6 2.15-.15 1.3-.15 2.55-1.5.1-2.3-1-.3-1.4-.15-3.7" fill="#759607" fill-rule="evenodd" transform="translate(.5 .5)"/><path d="M2.5 56.3Q.65 55.25.2 52.35q.8 1.1 2.3 1l-.05 1.75.05 1.2" fill="#4a5e19" fill-rule="evenodd" transform="translate(.5 .5)"/><path d="M3.05 60.75q-.5-2.2-.55-4.45l-.05-1.2q6.4 10.5 15.1-7.55-.5 2.7-1.7 5.3-5.9 7.4-9.75 6.95-1.95-.95-3 .9l-.05.05" fill="#74950a" fill-rule="evenodd" transform="translate(.5 .5)"/><path d="M48.55 15.35q-.05 4.4 1.15 7.7 1.85 5.3 6.9 7.85" fill="none" stroke="#30380e" stroke-linecap="round" stroke-linejoin="round" stroke-width="2"/><path d="M27.5 39.65q.95 1.65 1.55 3.8v.15l.4 1.55Q30.4 50 30 57q-3.8-1.15-6.4-3.6-1.95-1.85-3.2-4.35-.25 3.75-3.55 7.8-6.85 8.6-7.15 15.9-4-3.75-5.75-8.8l-.9-3.2q-.5-2.2-.55-4.45Q.65 55.25.2 52.35q-.3-1.4-.15-3.7.2-3.3 1.45-7.85l.2-.7q1.6-5.9 4.8-13.95l5.9-11.35.65-.9m35 .95Q48.7 4.2 43.55 1.7 38.4-.85 30.55.4q-7.9 1.25-16.7 12.45l-.8 1M2.65 50.8l.6-4.1M56.1 30.4q-3.4 1.05-6 1.25l-6.15.3q2.4 8.8-4.7 21.1-5.15-.2-8.9-6.35l-.9-1.55m12.8-17.2.15.3.1.25.3.55.3.45q2.05 2.6 7 2.15m-7-2.15.85 2.3v.15M18.1 42.15q1.3 1.7 1.9 3.5l.4 2.15v1.25m-2.65-7.35.35.45M2.45 55.1l.05-1.75q0-1.25.15-2.55m-.15 5.5-.05-1.2" fill="none" stroke="#30380e" stroke-linecap="round" stroke-linejoin="round" transform="translate(.5 .5)"/></g><g id="o"><path d="M67.35 51.5q-.3 1.45-.3 2.25-.1 6.75-2.8 9.15-1.55 2.15-2.65 2.7l-.8-.4 1.95-3.2q1.8-3.95 1.8-7.9l1.2-2.6q.45-1.7 1.6 0" fill="#4c4d01" fill-rule="evenodd" transform="translate(-7.05 -27.15)"/><path d="m58.95 34.8-.2 1.4q-1.3-.55-2.6 2.25l-1.2 2.75-.05.1-.35-2.5 1.5-3.7q1.4-4.35 2.9-.3" fill="#7d7f00" fill-rule="evenodd" transform="translate(-7.05 -27.15)"/><path d="M43.45 36.35q3.25-1.8 7.9-2 6.45-1.25 7.9-6.2.2 3.35-.3 6.65-1.5-4.05-2.9.3l-1.5 3.7q-.65-2.1-3.1-2.3-6.45.75-12.1 8l.95-2.15q1.35-3.6 3.15-6" fill="#f9ff09" fill-rule="evenodd" transform="translate(-7.05 -27.15)"/><path d="M54.9 41.3q-1.4 3.2-2.9 7.75-2.25 4.5-4.5 7.15-1.2-1.5-2.2-4.55-1.6-2.3 1.9-2.85 4.75-2.7 7.7-7.5m5.9 23.9q-.9-.6-1.75-2.3-1.7-1.65 1.15-2.45 2.7-3.35 4.35-6.35 0 3.95-1.8 7.9l-1.95 3.2" fill="#394311" fill-rule="evenodd" transform="translate(-7.05 -27.15)"/><path d="M58.75 36.2q-1 5.85-4 11.45-3.6 6.55-7.25 8.55 2.25-2.65 4.5-7.15 1.5-4.55 2.9-7.75l.05-.1 1.2-2.75q1.3-2.8 2.6-2.25" fill="#4c4c02" fill-rule="evenodd" transform="translate(-7.05 -27.15)"/><path d="m58 88.15-.45.85.05-.15.35-.85.05.15M54.55 38.8l.35 2.5q-2.95 4.8-7.7 7.5-3.5.55-1.9 2.85 1 3.05 2.2 4.55-1.9-.1-4.05-4.2-2.75-3.95 2.3-4.35 5.4-2 8.8-8.85" fill="#536907" fill-rule="evenodd" transform="translate(-7.05 -27.15)"/><path d="M57.15 89.7q-3.7 6.15-9.75 7.95l-3.1-2.85.85-.05.6-.15q4.1 3.1 6.05-1.95 1.15-4.65-.45-6.25-2.35-3.65-4.05-1.95l-1.95-.4.15.15-.3.15q-3-.15-4.9.95-1.95 1-2.9 3.25 3.35 5.1-.7 9.15-3.05 3.05-10.3 5.55-5.45-1.8-7.35-5.1.65-3.75.1-6-1.1-4.25-6.5-2.9l-.55-1.7v-.3q6.2 2.65 6.15-5 5.25 0 10.2-2.95 8.95.6 12.15 5.1 9.65-4 3.3-19.85l-1.75 1.6q.15-3.65-1.45-7.05-1.75-7-8.2-10.8 3.65 0 4.9-.85l.2-.15 1.75-2.8q5.65-7.25 12.1-8 2.45.2 3.1 2.3-3.4 6.85-8.8 8.85-5.05.4-2.3 4.35 2.15 4.1 4.05 4.2.7.45 4.4-3.25 3.65-3.65 7.25-3.2 3.1.05 4.6 2l.8 1.5q-2.25 4.05-7.45 6.4-3.45.85-2.1 3.65 3.7 5.5 7.9 2.3l1.65.3-3.5 1.5q-2.35.8-1.95 4 .35 3.15 1.75 2.25 2.05-.4 3.6-2.6 4.45 4.15 5.35 8.5-2.8.95-6.2.9-3.75-1.5-4.85 1.5-.45 2.65-1.7 3.9-1.25 3.05.1 3.85M21.3 83.5q-.65.7-.8 2.05-.15 1.35 1.45.85l2.7-.5 1.75-.15q.65-.2.7-.8.05-.6-1.1-1.45-1.2-.8-2.6-.75-1.35.1-2.1.75" fill="#76950b" fill-rule="evenodd" transform="translate(-7.05 -27.15)"/><path d="M67 46.85q1.1-.55 1.75-1.65l-1.1 4.6q-1.45-2-1.9.3-.4 1.65-1.2 3.15l-.8-1.5q1.45-3.45 3.25-4.9m.2 15.85.6.35q1.15.85 3.05-1.25l-1.25 1.9-1.85 2.1-.3-.45q.3-1.35-1.05-1.45l.8-1.2" fill="#b3b700" fill-rule="evenodd" transform="translate(-7.05 -27.15)"/><path d="M54.75 47.65q3.65-1.45 7.95-.5 2.6.55 4.3-.3-1.8 1.45-3.25 4.9-1.5-1.95-4.6-2-3.6-.45-7.25 3.2-3.7 3.7-4.4 3.25 3.65-2 7.25-8.55" fill="#fbff0a" fill-rule="evenodd" transform="translate(-7.05 -27.15)"/><path d="M47.4 97.65q-4.55 1.35-10.7.05 4.05-4.05.7-9.15.95-2.25 2.9-3.25 1.9-1.1 4.9-.95l.3-.15q3.65 4.65-1.3 9.2-.9.95-.3 1.3l.35.1h.05l3.1 2.85m-28.35.5q-.65-1.2-1-2.65-3.7-1.35-5.4-6.25 5.4-1.35 6.5 2.9.55 2.25-.1 6M9.4 77.75l-.6-1.6-.15-.25v-.2q1.15-6.55 3.4-10.9 2.65 6.65 9.65 4.65 7.65-2.8 6.2-11.05-.85-7.4-9.05-5.8 1.5-2.1 3.85-3.75 1.4-1.05.7-1.35l9.1.8q6.45 3.8 8.2 10.8 1.6 3.4 1.45 7.05-.3 7-11.65 11.8l-2.05 1.35q-4.95 2.95-10.2 2.95l-.15-2.35-8.7-2.15" fill="#b7d60e" fill-rule="evenodd" transform="translate(-7.05 -27.15)"/><path d="M8.65 75.7q-1.2-6.8 0-14.15 2.05-6.7 7.5-11.95h.15q3.1-1.9 4.8-2.1 1.65-.25 2.3 0 .7.3-.7 1.35-2.35 1.65-3.85 3.75 8.2-1.6 9.05 5.8 1.45 8.25-6.2 11.05-7 2-9.65-4.65-2.25 4.35-3.4 10.9" fill="#d8f158" fill-rule="evenodd" transform="translate(-7.05 -27.15)"/><path d="M12.1 87.25q-.3-2.9-1.6-6.65 3.95 1.55 7.75 1.65.05 7.65-6.15 5" fill="#4f6906" fill-rule="evenodd" transform="translate(-7.05 -27.15)"/><path d="m10.5 80.6-1.1-2.85 8.7 2.15.15 2.35q-3.8-.1-7.75-1.65" fill="#7e9306" fill-rule="evenodd" transform="translate(-7.05 -27.15)"/><path d="m57.55 89-.15.8-.25-.1q-1.35-.8-.1-3.85 1.25-1.25 1.7-3.9 1.1-3 4.85-1.5 3.4.05 6.2-.9l.2 1.3q-1.35 1.25-2.55 3.1l-.1.05-.15.15-.55.25q-2.2 1.05-5.7.4-1.5-1-2.75 1.9l-.6 2.15-.05.15M21.3 83.5q.75-.65 2.1-.75 1.4-.05 2.6.75 1.15.85 1.1 1.45-.05.6-.7.8l-1.75.15-2.7.5q-1.6.5-1.45-.85.15-1.35.8-2.05m26 .95q1.7-1.7 4.05 1.95 1.6 1.6.45 6.25-1.95 5.05-6.05 1.95l.3-.05q4.05 2.3 5.15-3.25-.15-5.95-3.2-6.5l-.6-.25-.1-.1" fill="#526806" fill-rule="evenodd" transform="translate(-7.05 -27.15)"/><path d="m28.45 79.3 2.05-1.35q11.35-4.8 11.65-11.8l1.75-1.6q6.35 15.85-3.3 19.85-3.2-4.5-12.15-5.1" fill="#4f6707" fill-rule="evenodd" transform="translate(-7.05 -27.15)"/><path d="m67.65 49.8-.3 1.7q-1.15-1.7-1.6 0l-1.2 2.6q-1.65 3-4.35 6.35-2.85.8-1.15 2.45.85 1.7 1.75 2.3l.8.4h1.3q-4.2 3.2-7.9-2.3-1.35-2.8 2.1-3.65 5.2-2.35 7.45-6.4.8-1.5 1.2-3.15.45-2.3 1.9-.3" fill="#576906" fill-rule="evenodd" transform="translate(-7.05 -27.15)"/><path d="m64.25 62.9 2.95-.2-.8 1.2-.95 1.5-.9.5-1.65-.3h-1.3q1.1-.55 2.65-2.7m5.35.8q-2.65 3.8-3.4 6.4 4 3 6.1 5.5 1.9 2.35 3.9 3.2l-2.65.15-2.2-.05-1.55.65q-.9-4.35-5.35-8.5l.9-1.5q1.1-2.1 2.4-3.75l1.85-2.1" fill="#faff08" fill-rule="evenodd" transform="translate(-7.05 -27.15)"/><path d="M66.4 63.9q1.35.1 1.05 1.45-.75-.9-2 1.2-.15-.45-.9-.65l.9-.5.95-1.5" fill="#7f8001" fill-rule="evenodd" transform="translate(-7.05 -27.15)"/><path d="m67.45 65.35.3.45q-1.3 1.65-2.4 3.75l-.9 1.5q-1.55 2.2-3.6 2.6-.3-.2-.2-.4.15-.4 1.15-.9 2.55-2.1 3-4.7l.65-1.1q1.25-2.1 2-1.2" fill="#4c4f02" fill-rule="evenodd" transform="translate(-7.05 -27.15)"/><path d="m65.45 66.55-.65 1.1q-1.9 2.05-3.6 2.45-1.1.4-.55 3.15-.1.2.2.4-1.4.9-1.75-2.25-.4-3.2 1.95-4l3.5-1.5q.75.2.9.65" fill="#586604" fill-rule="evenodd" transform="translate(-7.05 -27.15)"/><path d="M64.8 67.65q-.45 2.6-3 4.7-1 .5-1.15.9-.55-2.75.55-3.15 1.7-.4 3.6-2.45" fill="#37440f" fill-rule="evenodd" transform="translate(-7.05 -27.15)"/><path d="m45.75 94.6-.6.15q6.25-4.2 2.25-10.2l.6.25q2.2 1.25 1.75 4.55-.75 4.3-3.7 5.2l-.3.05" fill="#a0b540" fill-rule="evenodd" transform="translate(-7.05 -27.15)"/><path d="m45.5 84.2-.15-.15 1.95.4.1.1q4 6-2.25 10.2l-.85.05-.25-.2-.15.1q-.6-.35.3-1.3 4.95-4.55 1.3-9.2" fill="#d9f258" fill-rule="evenodd" transform="translate(-7.05 -27.15)"/><path d="M46.05 94.55q2.95-.9 3.7-5.2.45-3.3-1.75-4.55 3.05.55 3.2 6.5-1.1 5.55-5.15 3.25" fill="#39430f" fill-rule="evenodd" transform="translate(-7.05 -27.15)"/><path d="m72.25 83.7-.9.85q-3.7 3.6-7.35 5.15l-3.05-.4q-1.9-.45-2.95-1.15l-.05-.15q1-1.85 3.25-1.4 3.8-.15 5.45-2.2l.55-.25.15-.15.1-.05q4.5-2.6 4.8-.25" fill="#4b4d02" fill-rule="evenodd" transform="translate(-7.05 -27.15)"/><path d="m57.95 88-.35.85.6-2.15q1.25-2.9 2.75-1.9 3.5.65 5.7-.4-1.65 2.05-5.45 2.2-2.25-.45-3.25 1.4" fill="#364210" fill-rule="evenodd" transform="translate(-7.05 -27.15)"/><path d="m70 80.85-.2-1.3 1.55-.65 2.2.05q-1.95.5-3.55 1.9" fill="#aeb206" fill-rule="evenodd" transform="translate(-7.05 -27.15)"/><path d="M76.2 78.8q1.75.75 3.6.5-4.15 1.45-7.55 4.4-.3-2.35-4.8.25 1.2-1.85 2.55-3.1 1.6-1.4 3.55-1.9l2.65-.15" fill="#7f8201" fill-rule="evenodd" transform="translate(-7.05 -27.15)"/><path d="M36.4 9.2q3.25-1.8 7.9-2 6.45-1.25 7.9-6.2.2 3.35-.3 6.65l-.2 1.4q-1 5.85-4 11.45 3.65-1.45 7.95-.5 2.6.55 4.3-.3 1.1-.55 1.75-1.65l-1.1 4.6-.3 1.7Q60 25.8 60 26.6q-.1 6.75-2.8 9.15l2.95-.2.6.35q1.15.85 3.05-1.25l-1.25 1.9q-2.65 3.8-3.4 6.4 4 3 6.1 5.5 1.9 2.35 3.9 3.2 1.75.75 3.6.5-4.15 1.45-7.55 4.4l-.9.85q-3.7 3.6-7.35 5.15M11 68.35Q7.3 67 5.6 62.1l-.55-1.7v-.3q-.3-2.9-1.6-6.65l-1.1-2.85-.6-1.6-.15-.25v-.2q-1.2-6.8 0-14.15 2.05-6.7 7.5-11.95" fill="none" stroke="#30380e" stroke-linecap="round" stroke-linejoin="round" stroke-width="2"/><path d="m64 89.7-3.05-.4q-1.9-.45-2.95-1.15m-12.65-4.1 1.95.4.1.1.6.25q2.2 1.25 1.75 4.55-.75 4.3-3.7 5.2l-.3.05-.6.15-.85.05h-.05m3.25-38.6q3.65-2 7.25-8.55m13 18.15 1.85-2.1m-8.75 9.95q2.05-.4 3.6-2.6l.9-1.5q1.1-2.1 2.4-3.75m-3.5-2.9q-1.55 2.15-2.65 2.7" fill="none" stroke="#30380e" stroke-linecap="round" stroke-linejoin="round" transform="translate(-7.05 -27.15)"/><path d="M9.1 22.45h.15" fill="none" stroke="#30380e" stroke-linecap="round" stroke-linejoin="round" stroke-width=".05"/></g><g id="p"><path d="M30.45 17.1q-1.35-2-2.8 7.35l-1.75 5.9q-3.3 6.95-9.7 12.75-1.65.9-1.9 1.65l-.05.25q3.6 1.75 6.85 2.3l.1.15q-2.4.95-9-2.7l-1.1-.6q-.8-.95-.7-1.55v-.05l3.2-1.5 2.6-.75q6.05-2.5 9.35-10.65l1.1-3.2q2.15-7.4 2.5-18.5 1.2 4.15 1.3 9.15" fill="#5c640e" fill-rule="evenodd" transform="translate(1 1)"/><path d="m25.9 30.35 1.75-5.9q1.45-9.35 2.8-7.35.05 5.75-1.4 12.55l-1.8 6.7q-1.8 2.4-3.15 6l-.95 2.15-1.75 2.8h-.3q-.75-.25.1-1.9l4.7-15.05" fill="#4c4d01" fill-rule="evenodd" transform="translate(1 1)"/><path d="M29.15 7.95q-.35 11.1-2.5 18.5l-.7-2.1q2.4-10.8 1.75-20.15l1.45 3.75" fill="#b3b702" fill-rule="evenodd" transform="translate(1 1)"/><path d="M27.7 4.2q.65 9.35-1.75 20.15-.9-1.3-2.5.1l-5.65 5.2L16.2 31l-4.9 3.8q-1.4.6-4.2 4.6-1.75 3.4-3.65 5.35l-2.4 1.85.8-1.85Q5.4 36.6 12.5 29.65l2.7-2.5.55-.45Q31.7 13.55 25.2 0q1.45 1.95 2.5 4.2" fill="#fafe07" fill-rule="evenodd" transform="translate(1 1)"/><path d="m1.05 46.6 2.4-1.85q1.9-1.95 3.65-5.35 2.8-4 4.2-4.6l4.9-3.8 1.6-1.35 5.65-5.2q1.6-1.4 2.5-.1l-.2.7q-.5 2.4-1.45 4.6-2.5 5.75-8.1 9.75l-2.6 1.65q-3.05.25-3.2 1.5l-.1.05q-1.85.75-.95 2.15l.75.9q3.5 1.05 6.2 2.65l-9.1-.8q-.65-.25-2.3 0-1.7.2-4.8 2.1l-.1-.05 1.05-2.95" fill="#b7d60e" fill-rule="evenodd" transform="translate(1 1)"/><path d="m26.65 26.45-1.1 3.2q-3.3 8.15-9.35 10.65l-2.6.75-3.2 1.5q.15-1.25 3.2-1.5l2.6-1.65q5.6-4 8.1-9.75.95-2.2 1.45-4.6l.2-.7.7 2.1M10.4 42.6q-.1.6.7 1.55l1.1.6q6.6 3.65 9 2.7-1.25.85-4.9.85-2.7-1.6-6.2-2.65l-.75-.9q-.9-1.4.95-2.15h.1" fill="#76950b" fill-rule="evenodd" transform="translate(1 1)"/><path d="M21.1 47.3q-3.25-.55-6.85-2.3l.05-.25q.25-.75 1.9-1.65 6.4-5.8 9.7-12.75L21.2 45.4q-.85 1.65-.1 1.9" fill="#394311" fill-rule="evenodd" transform="translate(1 1)"/><path d="M31.45 18.1q-.1-5-1.3-9.15L28.7 5.2Q27.65 2.95 26.2 1q6.5 13.55-9.45 26.7l-.55.45-2.7 2.5Q6.4 37.6 2.85 45.75l-.8 1.85L1 50.55m27.25-13.2 1.8-6.7q1.45-6.8 1.4-12.55" fill="none" stroke="#30380e" stroke-linecap="round" stroke-linejoin="round" stroke-width="2"/><path d="m21.4 47.3 1.75-2.8.95-2.15q1.35-3.6 3.15-6M.1 49.6q3.1-1.9 4.8-2.1 1.65-.25 2.3 0" fill="none" stroke="#30380e" stroke-linecap="round" stroke-linejoin="round" transform="translate(1 1)"/></g><g id="q" fill-rule="evenodd"><path d="m39.95 73.65.45-1.25v-.8l.3.5.2.3.5 1.6-1.25 1.3-.65.75-.1-.1-.25-.1.35-.35q.55-.5.55-1.25v-.35l-.1-.25m-6.5 5.1 1-1.3q.7.75 1.5 1.05l.2.05-.05.05q-1.35.7-2.45.65l-.2-.5" fill="#402009" transform="translate(-8.45 -65.05)"/><path d="m39.95 73.65-.45-.7q-.4-.4-.95-.4l.1-.15 1.2-1.25.55.45v.8l-.45 1.25m-3.4 1.15.4.7-.45.1q-.4.25-.8 1.3-.45 1.1.25 1.6-.8-.3-1.5-1.05l2.1-2.65" fill="#180b05" transform="translate(-8.45 -65.05)"/><path d="m40.4 71.6-.55-.45.25-.35 2.4-2.45q.2 1.85.65 2.5l.2.7-.25.4-.4.45-1.3 1.6-.5-1.6-.2-.3-.3-.5" fill="#b2b2b2" transform="translate(-8.45 -65.05)"/><path d="M38.55 72.55q.55 0 .95.4l.45.7-.05.05.15.2v.35q0 .75-.55 1.25l-.35.35-.9.2q-.75 0-1.3-.55l-.4-.7 2-2.25M41.4 74l1.3-1.6.4-.45v.45q.7 8.75-4.65 12.5-4.55 2.45-5.95-4.8l.65-.95.3-.4.2.5.6 1.15q1.2 1.55 3 1.55 1.7 0 2.85-1.65 1.1-1.7 1.3-4.2V74m-27.3 7.75 2.1.05q.4 1.4.2 2.8-1 3-2.8 1.9l-1.05-1q2.45 0 1.55-3.75" fill="#fff" transform="translate(-8.45 -65.05)"/><path d="m43.1 71.95.25-.4.25.85q2.15 9.55-5.35 13.35-4.8 1.85-6.2-5.1l.45-.55q1.4 7.25 5.95 4.8 5.35-3.75 4.65-12.5v-.45" fill="#b3b2b0" transform="translate(-8.45 -65.05)"/><path d="M36.95 75.5q.55.55 1.3.55l.9-.2.25.1.1.1-3.35 2.5-.2-.05q-.7-.5-.25-1.6.4-1.05.8-1.3l.45-.1" fill="#4e4741" transform="translate(-8.45 -65.05)"/><path d="m36.1 78.6 1.5.3q.95-.1 1.7-.55.65-.55.8-1.25.15-.6-.6-1.05l.65-.75L41.4 74v2.1q-.2 2.5-1.3 4.2-1.15 1.65-2.85 1.65-1.8 0-3-1.55l-.6-1.15q1.1.05 2.45-.65" fill="#5c2e0a" transform="translate(-8.45 -65.05)"/><path d="M39.5 76.05q.75.45.6 1.05-.15.7-.8 1.25-.75.45-1.7.55l-1.5-.3.05-.05 3.35-2.5" fill="#947862" transform="translate(-8.45 -65.05)"/><path d="M13.75 81.7q-.05-.65-.45-1.05-.35-.35-.9-.4l-.35-.75-.65-.35q-.35 0-.7.35l-.2.55q-.5-1.25-.85-2.65l3.75 2.1.7 2.25-.35-.05" fill="#180b03" transform="translate(-8.45 -65.05)"/><path d="M12.4 80.25v.2l-.2.75-1.05-.55-.65-.6.2-.55q.35-.35.7-.35l.65.35.35.75" fill="#b3b1b2" transform="translate(-8.45 -65.05)"/><path d="m12.2 81.2 1.55.5v.05q0 .6-.45 1-.45.5-1.05.5l-.55-.15-.05-.25-.55-1.15.3.05q.4 0 .65-.4l.15-.15" fill="#a89f98" transform="translate(-8.45 -65.05)"/><path d="m10.5 80.05.65.6 1.05.55-.15.15q-.25.4-.65.4l-.3-.05-.2-.5-.4-1.15" fill="#fefefc" transform="translate(-8.45 -65.05)"/><path d="m12.2 81.2.2-.75v-.2q.55.05.9.4.4.4.45 1.05l-1.55-.5" fill="#716d6a" transform="translate(-8.45 -65.05)"/><path d="m11.7 83.1.55.15q.6 0 1.05-.5.45-.4.45-1v-.05l.35.05q.9 3.75-1.55 3.75-.7-.95-.85-2.4" fill="#5f2f09" transform="translate(-8.45 -65.05)"/><path d="m14.1 81.75-.7-2.25 2.25 1.25.55 1.05-2.1-.05" fill="#b3b3b5" transform="translate(-8.45 -65.05)"/><path d="m39.85 71.15-1.2 1.25-.1.15-2 2.25-2.1 2.65-1 1.3-.3.4-.65.95-.45.55q1.4 6.95 6.2 5.1 7.5-3.8 5.35-13.35l-.25-.85-.2-.7q-.45-.65-.65-2.5l-2.4 2.45-.25.35m3.4-6.1.45 2.8q2.45 8.5.5 13.4L43.35 83Q40.1 88 35 87.2q-2.85-.7-4.5-8.1l-1.15-.15 3.9-2.85.3-.35 3.65-3.35 1.55-1.6.9-.95 3.6-4.8M11.1 81.7l.55 1.15.05.25q.15 1.45.85 2.4l1.05 1q1.8 1.1 2.8-1.9.2-1.4-.2-2.8l-.55-1.05-2.25-1.25-3.75-2.1q.35 1.4.85 2.65l.4 1.15.2.5m6.05-1.25q.85 4.75-1.3 6.8-4 1.4-4.9-3.65-1.95-4.1-2.5-8.95 3.45 3.65 9.25 5.2l-.55.6" fill="#30380e" transform="translate(-8.45 -65.05)"/></g><g id="r"><path d="M32.2 91.35q.2 1.5 3.05 2.8 1.25 4-5.85 8.3 5.8-4.55 2-6.9l-.1-.05-.45-.05q.45 2.85-5.65 6.2-11.8 6.25-9.15 7.05l-1.7.8-4.6 1.95-2.1.65-.9.2-2.1.55q2.3-2.15 8.1-5.5 5.9-3.05 9.7-6.65 8.6-6.55 3.55-11.95l2.45.5q1.5.45 3.75 2.1" fill="#c8973b" fill-rule="evenodd" transform="translate(.75 -87.95)"/><path d="M26 88.75q5.05 5.4-3.55 11.95-3.8 3.6-9.7 6.65-5.8 3.35-8.1 5.5l-4.65.7 1.8-2.6q2.85.8 12.65-11.75 3.05-4.8 6.1-6.85 4.3-1.75 1.65-3.3l3.8-.3" fill="#fed78c" fill-rule="evenodd" transform="translate(.75 -87.95)"/><path d="M29.4 102.45q7.1-4.3 5.85-8.3-2.85-1.3-3.05-2.8l3.75.95q2.7 1.55 1.15 5.7-11.5 11.95-28.2 18.4 11.8-7 20.2-13.65l.3-.3" fill="#f0ec4b" fill-rule="evenodd" transform="translate(.75 -87.95)"/><path d="M16.05 108.7q-2.65-.8 9.15-7.05 6.1-3.35 5.65-6.2l.45.05.1.05q1.3.85.45 2.25-8.1 7.05-15.8 10.9" fill="#eeec4a" fill-rule="evenodd" transform="translate(.75 -87.95)"/><path d="m14.35 109.5 1.7-.8q7.7-3.85 15.8-10.9.85-1.4-.45-2.25 3.8 2.35-2 6.9l-.3.3-1.65 1.1q-12.75 8.85-17.55 9l4.45-3.35" fill="#8f692a" fill-rule="evenodd" transform="translate(.75 -87.95)"/><path d="M29.1 102.75q-8.4 6.65-20.2 13.65l-5.2 1.85q2.65-1.7 5.55-4.9l.65-.5q4.8-.15 17.55-9l1.65-1.1" fill="#c9983c" fill-rule="evenodd" transform="translate(.75 -87.95)"/><path d="M22.2 89.05q2.65 1.55-1.65 3.3-3.05 2.05-6.1 6.85-9.8 12.55-12.65 11.75Q9 100.7 18.05 91.1q1.95-1.5 4.15-2.05" fill="#ffefd5" fill-rule="evenodd" transform="translate(.75 -87.95)"/><path d="m6.75 112.3.9-.2q.45.55 1.35.7l-1.8 2.5 2.05-1.95q-2.9 3.2-5.55 4.9.1-3.05 3.05-5.95" fill="#fed88d" fill-rule="evenodd" transform="translate(.75 -87.95)"/><path d="m9.75 111.45 4.6-1.95-4.45 3.35-.65.5-2.05 1.95 1.8-2.5.75-1.35" fill="#690708" fill-rule="evenodd" transform="translate(.75 -87.95)"/><path d="m7.65 112.1 2.1-.65L9 112.8q-.9-.15-1.35-.7" fill="#b29364" fill-rule="evenodd" transform="translate(.75 -87.95)"/><path d="M32.95 3.4Q30.7 1.75 29.2 1.3L26.75.8l-3.8.3q-2.2.55-4.15 2.05Q9.75 12.75 2.55 23l-1.8 2.6 4.65-.7 2.1-.55q-2.95 2.9-3.05 5.95l5.2-1.85q16.7-6.45 28.2-18.4 1.55-4.15-1.15-5.7l-3.75-.95" fill="none" stroke="#7d5124" stroke-linecap="round" stroke-linejoin="round" stroke-width="1.5"/><path d="m6.75 112.3.9-.2 2.1-.65 4.6-1.95 1.7-.8q7.7-3.85 15.8-10.9.85-1.4-.45-2.25l-.1-.05M9.25 113.35l.65-.5 4.45-3.35M9 112.8l.75-1.35M9 112.8l-1.8 2.5 2.05-1.95" fill="none" stroke="#7d5124" stroke-linecap="round" stroke-linejoin="round" transform="translate(.75 -87.95)"/></g><path d="M52.15 73.65H0V0h52.15v73.65" fill-opacity="0" fill-rule="evenodd" id="s"/><path d="M12.5 3.7Q25.05 0 42.8 0 60.5 0 73 3.7q12.6 3.8 12.6 9.15 0 5.35-12.6 9.1-12.5 3.8-30.2 3.8-17.75 0-30.3-3.8Q0 18.2 0 12.85T12.5 3.7" fill-opacity=".302" fill-rule="evenodd" id="e"/><use ffdec:characterId="2" height="73.65" width="52.15" xlink:href="#s" id="d"/></defs></svg>