<svg xmlns:ffdec="https://www.free-decompiler.com/flash" xmlns:xlink="http://www.w3.org/1999/xlink" ffdec:objectType="frame" height="90" width="90" xmlns="http://www.w3.org/2000/svg"><use ffdec:characterId="27" height="107.9" transform="matrix(.7527 0 0 .7531 -1.054 5.422)" width="121.7" xlink:href="#a"/><defs><g id="a" transform="translate(1.4 -7.2)"><use ffdec:characterId="1" height="9.8" transform="matrix(1.387 0 0 2.6131 14.562 89.496)" width="55.5" xlink:href="#b"/><use ffdec:characterId="3" height="29.2" transform="translate(53.65 71.95) scale(.9162)" width="15.35" xlink:href="#c"/><use ffdec:characterId="5" height="28.15" transform="translate(24.95 82.6) scale(.7378)" width="27.45" xlink:href="#d"/><use ffdec:characterId="7" height="48" transform="translate(31.2 58.8) scale(.7378)" width="56.6" xlink:href="#e"/><use ffdec:characterId="9" height="34.3" transform="translate(39.75 84.2) scale(.7378)" width="34.5" xlink:href="#f"/><use ffdec:characterId="11" height="23.85" transform="translate(19.65 75.25) scale(.7378)" width="48.8" xlink:href="#g"/><use ffdec:characterId="18" height="97.95" transform="translate(68.837 29.522) scale(.7378)" width="69.75" xlink:href="#h"/><use ffdec:characterId="24" height="96.7" transform="translate(3.3 7.2) scale(.7378)" width="119.6" xlink:href="#i"/><use ffdec:characterId="26" height="44.2" transform="translate(61.2 70) scale(.7378)" width="25" xlink:href="#j"/></g><g id="k" fill-rule="evenodd"><path d="m2.35 2.25-.2-.2-.1-.1q.05-.2 1.35-.75L4.55.8l.6.25.75.05q1.75.3 3.7 2.35l1.1 1.35-1.2-1.2Q7.9 2.45 6.75 2.25h-4.4m1.7 13.1.55-.05.7-.15 1.8-.65.8-1.15.7-.5.6-.65-.05.3q-1.5 2.75-2.25 3.35-1.1.9-3.35.5L2.6 16l1.45-.65m-.05-7 .05-.25q.15-1.1.9-1.85.55-.55 1.15-.45.75.1 1 1.05l.05 1.2q-.1.7-.8.8H5.2l-.55-.25.6-.8q-.45.1-1.25.55m5.15 6.25.75-.6-.05.15-.05.35-.4 1.25-.25-1.15" fill="#ffe6bf"/><path d="M2.35 2.25h4.4q1.15.2 2.75 1.35l1.2 1.2.85 2.1q.3 1.1.1 2.35-.25 1.5-1.85 3.7l-.85 1.25-1.3 1.5q.15-.2 1.15-.85l.35-.25.25 1.15.4-1.25-.05.25v1.45l-.45.4-.05.05-.45.55q-.95 1.4-1.2 2.9v.05l-.25.15-1.25.9-.65-1.15.25.05.7-.45-1.5-.2q-1.35-.4-2.45-1.65-1.3-1.5-1.6-3.35.25.05.55.3l1.3.55 1.35.05L2.6 16l.95.35q2.25.4 3.35-.5.75-.6 2.25-3.35l.05-.3-.6.65-.7.5.05-.1q.6-1.35.9-3.4Q9.35 7 8.3 5.6q-1-1.25-3.4-1.65-.3-.05-1.4.75l-1.1 1v-.05l1.1-1.9q.1-.4-.7-1.05l-.45-.45" fill="#518c44"/><path d="M10.7 4.8 9.6 3.45Q7.65 1.4 5.9 1.1l-.75-.05-.6-.25-.1-.1.95-.35L6.45 0q3.4.55 5.25 4.4 1.45 3.15 1.05 5.6l-.7 2q-.55.9-1.1.85l-.1.55.2 1.95.45 1.45v.15l-.25.65-.35.95-.05.15-.05.15-.05.1-.25.7-.05.15-.15.45-.35 1.15-.1.55h-.1l-1.1-1.5-1.1.7q-1 .65-1.5.75l-.4-.85L5.6 21l-.15-.25-.6-.9-.25-.15-.8.5-.5.4-.4-1.05-.45-.35Q1.1 18.15.6 16.9q-.85-1.7-.45-4.15l.15-.95.6-1.2v-.05l.15-.2.65-.8h.05l-.4.7-.05.05-.45 1.4v.45q-.15 1.2 0 2.3.3 1.85 1.6 3.35 1.1 1.25 2.45 1.65l1.5.2-.7.45-.25-.05.65 1.15 1.25-.9.25-.15 1.05-.65.9 1.3.7-1.5.1-.2.3-.95-.8-1.5-.1-.45v-1.45l.05-.25.05-.35.05-.15-.75.6-.35.25q-1 .65-1.15.85l1.3-1.5.85-1.25q1.6-2.2 1.85-3.7.2-1.25-.1-2.35l-.85-2.1" fill="#1b551d"/><path d="M.9 10.55v.05l.05-.75Q1.3 7.7 2.4 5.75V5.7l1.1-1q1.1-.8 1.4-.75 2.4.4 3.4 1.65 1.05 1.4.55 4.25-.3 2.05-.9 3.4l-.05.1-.8 1.15-1.8.65-.7.15-.55.05-1.35-.05-1.3-.55q-.3-.25-.55-.3-.15-1.1 0-2.3v-.45l.45-1.4.45-.2q.25.05.1 1.05-.3 1.55-.3 2.35h.05l.4-.7v.85q.05.55.85.7l1.8-.05q1.45-.25 1.6-1.2l1.2-3.45 1.1-2.55Q8.6 6.65 8 5.9q-.75-.85-1.7-1-.9-.15-1.3.35l-.8 1.1h-.05Q3.6 6.6 2.45 8 1.2 9.4 1 10.4l-.1.15m8.85 5.65.1.45.8 1.5-.3.95-.5-1.25-.6-1.2.05-.05.45-.4" fill="#92d353"/><path d="m4.2 6.35.8-1.1q.4-.5 1.3-.35.95.15 1.7 1 .6.75.55 1.2l-1.1 2.55-1.2 3.45q-.15.95-1.6 1.2l-1.8.05q-.8-.15-.85-.7v-.85l.4-.7.8-1.2-.5 2.05.15-.1L4.15 11 5.7 9.1v-.05h-.05q-.25.05-1.1.6l-1.05.65h-.05l1.2-1.7.55.25h1.15q.7-.1.8-.8l-.05-1.2q-.25-.95-1-1.05-.6-.1-1.15.45-.75.75-.9 1.85L4 8.35l-.4.2L2.2 9.6 3.1 8l.25-.45.25-.45.6-.75m6.15 12.75-.1.2-.7 1.5-.9-1.3-1.05.65v-.05q.25-1.5 1.2-2.9l.45-.55.6 1.2.5 1.25" fill="#daff95"/><path d="m11.25 17.6.4.55L13 19.3q.55.3 1.6.6l.75.4-1.25.85.95 1.2-.65.35v.55l-.1.75-.3 1.25-.35-.65.05.3v.6q-.25 1.65-1.65 2.55-1.3.95-2.95.65l-.55-.15H8.4l-1.05.5-1.15.1q-1.3-.2-2.35-1.05l-.75-.7-.1-.15q-.85-.15-1.6-1.1-.95-1.1-.75-2.3.2-1.4 1.2-2.3 1-.9 1.85-.65l.1-.3v-.4l.8-.5.25.15-.05.7-.05 1-.4-.1h-.5l-.15-.05-1.05.5q-.9.6-1.05 1.55v.5q.05.65.45 1.15.5.6.9.65H3l-.1-.2v-.1l.05-.2V25l.1-.25.3-.4.5-.65.6-.45.4-.25-.4.4-.2.3-.05.05-.1.25-.3.8q-.15 1.15 1.05 2.1l.65.45 1.25.4.9.05-.35-.75q-.2-.8-.05-1.55l.2-.65.45-.8.15-.1.3-.35-.2.35-.1.2-.1.3-.2.55q-.2 1 .45 2l.85.75 1.6-.25.6-.4q1-.75 1.15-1.8l.05-1.4-.35-.7-.15-.35.15.15.65.8.1-.3.25-.9-.1-.25-.5-.05.85-.6-.6-.5.35-.25.4-.35-1.6-.4q-.65-.2-1.15-1.25l.05-.1.05-.15.05-.15.35-.95" fill="#466400"/><path d="m2 12.8-.4.7h-.05q0-.8.3-2.35.15-1-.1-1.05l-.45.2.05-.05.4-.7H1.7l-.65.8-.05.05q.2-1 1.45-2.4 1.15-1.4 1.7-1.65l-.55.75-.25.45L3.1 8l-.9 1.6 1.4-1.05.4-.2q.8-.45 1.25-.55l-.6.8-1.2 1.7v.05l.05-.05 1.05-.65q.85-.55 1.1-.6l.05.05L4.15 11l-1.3 1.85-.15.1.5-2.05-.8 1.2-.4.7m.2-3.2v.05-.05m1 1.3v-.05.05m1.65 8.95.6.9.15.25.05.05-.05.4-.1.3-.7-1.2.05-.7m1 3.2.2-.05h.2l.15.2.1 1-.3.75q-.25.3-.5.25l-.35-.4-.15-.7.35-.7.1-.15.2-.2m-2.5 1.3-.15-.4-.15-.85q.1-.35.35-.6.25-.25.55-.2l.45.25.05.55v.15l-.6.45-.5.65m5.5.15L9 24l.05.05.3-.05q.35.05.6.25.3.3.2.75l-.2.4q-.25.3-.5.25L9 25.3l-.15-.8" fill="#fff"/><path d="m5.65 21.05.4.85q.5-.1 1.5-.75l1.1-.7 1.1 1.5h.1l.1-.55.3-.25.4-.15q.5.1.8 1.2.25 1.05.1 2l-.5 1.35q-.65 1-1.55.85-1.6-.25-1.45-2.25l.1-.2.2-.35-.3.35-.15.1-.45.8-.4.45-.05.15-.4.5-.85.25-.8-.5q-.35-.55-.25-1.35l.25-.8.4-.5-.75.45-.4.25.05-.05.2-.3.4-.4-.4.25v-.15l-.05-.55-.45-.25q-.3-.05-.55.2-.25.25-.35.6l.15.85.15.4-.3.4-.15-.6v-1.1l.4-1.15.4-.5.15.05h.5l.4.1.05-1 .7 1.2.1-.3.05-.4m0 2.2-.1.15-.35.7.15.7.35.4q.25.05.5-.25l.3-.75-.1-1-.15-.2h-.2l-.2.05h-.1l-.1.2m3.2 1.25.15.8.45.35q.25.05.5-.25l.2-.4q.1-.45-.2-.75-.25-.2-.6-.25l-.3.05L9 24l-.15.5" fill="#fff882"/><path d="m9.95 21.4.35-1.15.2.3.2.15.5-.05 1-.05.75.25.15.1-.35.25.6.5-.85.6.5.05.1.25-.25.9-.1.3-.65-.8-.15-.15.15.35-.2 1.55q-.25 1.55-1.25 2.75l-1.6.25L8.2 27q-.65-1-.45-2l.2-.55.1-.3q-.15 2 1.45 2.25.9.15 1.55-.85l.5-1.35q.15-.95-.1-2-.3-1.1-.8-1.2l-.4.15-.3.25m-6.25 0-.4.5-.4 1.15v1.1l.15.6-.1.25v.25l-.05.2-.85-.75-.45-.75v-.5q.15-.95 1.05-1.55l1.05-.5m.5 2.35.4-.25.75-.45-.4.5-.25.8q-.1.8.25 1.35l.8.5.85-.25.4-.5-.1.45-.6 1.05-.8.4-.65-.45q-1.2-.95-1.05-2.1l.3-.8.1-.25" fill="#cfaa53"/><path d="m10.3 20.25.15-.45.05-.15.25-.7q.5 1.05 1.15 1.25l1.6.4-.4.35-.15-.1-.75-.25-1 .05-.5.05-.2-.15-.2-.3M7 25.45l.05-.15.4-.45-.2.65q-.15.75.05 1.55l.35.75-.9-.05-1.25-.4.8-.4.6-1.05.1-.45m-5.4-1.5.45.75.85.75v.1l.1.2h-.05q-.4-.05-.9-.65-.4-.5-.45-1.15m9.05 3.55q1-1.2 1.25-2.75l.2-1.55.35.7-.05 1.4q-.15 1.05-1.15 1.8l-.6.4" fill="#f7e09b"/></g><g id="l" fill-rule="evenodd"><path d="m16.35 10.8-.1-.1q-1-1-1-2.2l.2-2.05.9-5.25 4.25 2.35 3.1 1.6q-.4 3.25-.55 9.9l1-.45.3-3.6.45-5.35.85.35-.15 3.75q0 2.95.15 4.9.2 2.95.8 3.55.2.3.65.45l.25 1.5q0 2.9-3.1 5.15-2.85 2-5.9 2-1.15 0-2.15-.9l-1.45.95q-1.35.8-1.95.8l-2.25-.25-1.3-1.1-.4.1-1.4.35Q6.3 27.25 4.8 26l-1.25-1.3-2.4-1.9Q0 21.6 0 19.8l.05-.8q.2-2.2 1.55-3.85 1.8-2.25 4.6-2.25l2.95.35q2.65 0 3.45-2.05.95-2.45 1.35-11.2.45.15 1.35.65-.4 9.7-1.45 11.9l-.5.75.3 1.35.15.7q.25-.2 1.65-.7l.15-.1.9-.3.7-.25.3.6.35.6.6-.2.2-.9q.2-.9.55-1.25l-2.15-1.55-.6-.4-.1-.1m-14.6 7-.2 1.5q0 .85.35 1.6l.35.65 1.4 1.25-.1-.7-.15-.75q0-1.5.8-3.15.45-1.1.95-1.7l-.7 1.5-.1.45q-.3.8-.3 1.6 0 2.6 1.3 3.65.75.65 2.85 1.1-.8-.25-.8-1.95 0-1.65.7-2.7l.15-.25q.75-1 1.9-1.3l.05.05q-.7.25-1.15.9-.6.85-.6 2.3 0 1.9 1.85 3.15 1.6 1.05 3.2 1.05l1-.15 1.1-.6.05-.15q-.4-.05-.8-.7l-.2-.5 2.85.8 2.15.55 1.4.2q1.7 0 3.3-1.4 1.5-1.35 1.5-2.7 0-1.25-.95-2.2-1-.95-1-1.55l.15-2.2-.85.45-1.35.6h-.1v-.05l-.25-1.9-3.25 1.15-.15.05-1.05-.5-.6-.55q-.3 0-1.75 1l-1.55 1.1-.25-1.8-.15-1.15q-.45.35-1.1.55l-3.8.3-1.5-.25H5.8q-.9.1-1.6.45-.7.35-1.25.9-.9.9-1.2 2" fill="#466400"/><path d="m16.35 1.2-.9 5.25-.2 2.05q0 1.2 1 2.2l.1.1-.35 1.6-.55 2.25q-1.4.5-1.65.7l-.15-.7-.3-1.35.5-.75q1.05-2.2 1.45-11.9l1.05.55M4.2 14.9l.15.75-.45 1.5q-.5.9-1.3.9l-.65-.15-.2-.1q.3-1.1 1.2-2 .55-.55 1.25-.9m8.7.1-1.1.45-2.35.7-2.4-.45q-1.1-.5-1.25-1.25h.55l1.5.25 3.8-.3q.65-.2 1.1-.55L12.9 15m-6.4 2.5-.15 1.6q-.05 1.65-1 1.65l-.6-.4-.2-.8q0-.65.45-1.35.55-.8 1.2-.8l.3.1m5.2 2.5.5 1.5q0 .75-.5.75-1.05 0-1.05-1.8 0-.3.55-1.3l.5.85" fill="#fff"/><path d="m1.75 17.8.2.1.65.15q.8 0 1.3-.9l.45-1.5-.15-.75q.7-.35 1.6-.45.15.75 1.25 1.25l2.4.45 2.35-.7 1.1-.45.25 1.8 1.55-1.1q1.45-1 1.75-1l.6.55 1.05.5.15-.05.5.4h1.05q1.6.15 1.6 2.35 0 2.45-1.95 2.45l-.85-.2q-.95 0-1.25 1.1-.3 1.1-1 1.1l-1.95-.95q-.35 0-.95.95t-1.5.95q-1.45 0-2.1-1.95-.6-1.7-.15-2.45h-.2l-.45.1q.45-.65 1.15-.9l.05-.05h-.1q-1.15.3-1.9 1.3l-.15.25-.7.8-1.25 1.5q-1.45 0-1.75-1.7l-.05-2.3.1-.45.7-1.5q-.5.6-.95 1.7l-.9 1.7-1.05 1.05-.35-.05q-.35-.75-.35-1.6l.2-1.5m3.4-1.3v-.1.1m1.35 1-.3-.1q-.65 0-1.2.8-.45.7-.45 1.35l.2.8.6.4q.95 0 1-1.65l.15-1.6m5.2 2.5-.5-.85q-.55 1-.55 1.3 0 1.8 1.05 1.8.5 0 .5-.75l-.5-1.5" fill="#fff882"/><path d="m1.9 20.9.35.05L3.3 19.9l.9-1.7q-.8 1.65-.8 3.15l.15.75.1.7-1.4-1.25-.35-.65m2.45-2.45.05 2.3q.3 1.7 1.75 1.7l1.25-1.5.7-.8q-.7 1.05-.7 2.7 0 1.7.8 1.95-2.1-.45-2.85-1.1-1.3-1.05-1.3-3.65 0-.8.3-1.6m4.7 1.1.45-.1h.2q-.45.75.15 2.45.65 1.95 2.1 1.95.9 0 1.5-.95t.95-.95l1.95.95q.7 0 1-1.1.3-1.1 1.25-1.1l.85.2q1.95 0 1.95-2.45 0-2.2-1.6-2.35h-1.05l-.5-.4 3.25-1.15.25 1.9v.05h.1l1.35-.6v.5l.05.4q-.15.4-.15.8l-.1.75.4.9.4.9q0 1.4-2.75 3.9l-1.4 1.25-2.15-.55-2.85-.8.2.5q.4.65.8.7l-.05.15-1.1.6-1 .15q-1.6 0-3.2-1.05-1.85-1.25-1.85-3.15 0-1.45.6-2.3" fill="#cfaa53"/><path d="m16.35 10.8.1.1.6.4-.3 1.2-.25 1.75-.9.3-.15.1.55-2.25.35-1.6" fill="#dcff98"/><path d="m17.05 11.3 2.15 1.55q-.35.35-.55 1.25l-.2.9-.6.2-.35-.6-.3-.6-.7.25.25-1.75.3-1.2" fill="#92d353"/><path d="m19.65 25.3 1.4-1.25q2.75-2.5 2.75-3.9l-.4-.9-.4-.9.1-.75q0-.4.15-.8l-.05-.4v-.5l.85-.45-.15 2.2q0 .6 1 1.55.95.95.95 2.2 0 1.35-1.5 2.7-1.6 1.4-3.3 1.4l-1.4-.2" fill="#f6df9a"/><path d="M24.9 5.65 24.45 11l-.3 3.6-1 .45q.15-6.65.55-9.9l1.2.5" fill="#f7e09b"/></g><g id="m" fill-rule="evenodd"><path d="M32.9 14.9q-.15.85-.15 1.9l.2 1.4.25 1.2-1.85-1.85q-1.6-1.9-1.95-2.9-3.15 3.6-6.75 3.6-3.55 0-5.1-1.25-3-2.35-3.05-9.65l3.5-1.6q5.7-2.6 11.15-4.3L31.7.7q-.25 1.15-.35 2.9v4.25q0 2.95 1.55 7.05" fill="#f7e09b"/><path d="m54.05 20.55-2.5-1.85q-2.25-1.25-3.95-1.25-.65 0-3.65.9l-3.6.9-3.4-.55q-1.55-.45-2.15-.8h-.05l-.05-.05V18l.45 1.25.4 1.3q-1-1.55-2.35-4.85l-.3-.8q-1.55-4.1-1.55-7.05V3.6q.1-1.75.35-2.9L34 0l-.25 2-.3 3.8q0 6.85 1 9 1.15 2.5 5 2.5l3.05-.85q2.05-.85 4.3-.85 3.45 0 6.6 4.05l.65.9" fill="#1b551d"/><path d="M56.35 25.9q-1.3-1.6-3.05-2.75-2.65-1.8-5.1-1.8-1.7 0-3.65 1.8l-2.3 2.25-.1-.1-.05-.05q0-.35.7-1.85l.7-1.6q-1.1 1.5-4.95 1.5-2.5 0-4.95-1.2-1.5-.75-2.8-1.8-.8 2.3-2.85 3.45-1.7.9-5.3 1.4l-4.9 1q-2.15.9-2.15 3.35 0 2.2 2.8 3.7 2.3 1.25 4.65 1.25 2.25 0 3.6-1.4 1.25-1.3 1.25-3.25 0-1.05-.35-1.95l-.35-.9q3.5.1 6.35 3.15l1.85 2 1.4.95 4.4-.6 3.2-.65q1.3 0 1.95 2.6-3.3.65-6.1 1.8l-5 2.05q-2.85.95-6.25.95-4.95 0-12.05-3.2l-2.35-1.15q-6.9-3.55-13.1-9.1l-.1-.4Q.25 20.65.25 15.4l.05-1.05 5.15-2.55q5.25-2.65 9.05-4.45.05 7.3 3.05 9.65 1.55 1.25 5.1 1.25 3.6 0 6.75-3.6.35 1 1.95 2.9l1.85 1.85-.25-1.2-.2-1.4q0-1.05.15-1.9l.3.8q1.35 3.3 2.35 4.85l-.4-1.3L34.7 18l.05-.1h.05q.6.35 2.15.8l3.4.55 3.6-.9q3-.9 3.65-.9 1.7 0 3.95 1.25l2.5 1.85q1.75 2.55 2.3 5.35" fill="#518c44"/><path d="M46.35 34.4q-.65-2.6-1.95-2.6l-3.2.65-4.4.6-1.4-.95-1.85-2q-2.85-3.05-6.35-3.15l.35.9q.35.9.35 1.95 0 1.95-1.25 3.25-1.35 1.4-3.6 1.4-2.35 0-4.65-1.25-2.8-1.5-2.8-3.7 0-2.45 2.15-3.35l4.9-1q3.6-.5 5.3-1.4Q30 22.6 30.8 20.3q1.3 1.05 2.8 1.8 2.45 1.2 4.95 1.2 3.85 0 4.95-1.5l-.7 1.6q-.7 1.5-.7 1.85l.05.05.1.1 2.3-2.25q1.95-1.8 3.65-1.8 2.45 0 5.1 1.8 1.75 1.15 3.05 2.75l.25 2.55q0 2.65-1.05 5-5.05.1-9.2.95" fill="#92d353"/><path d="M.3 14.35.25 15.4q0 5.25 1.15 9.95l.1.4q1.3 5.45 4.15 10.3l2.7 3.85q1.85 2.3 3.9 3.85l.1.05 2.35 1.45q1.6.7 3.3 1.05l-.6-1.45q0-.35.15-.7l.3-.65 1.45.45 1.75.4h.15q-.3-.6-.3-1l1.05-.3.25-.1 2.85.25.5.1 3.55-.6 6.05-.75 8.55-1.85q5.4-1.5 9.95-3.65-2.15 2.3-5.6 3.3l-.7.7-7.05 1.6q-5.95 1.3-11.7 1.7l-4.5.2h-.9L22 43.9l-.15 2.25-3.3-.95.25 1.4q.25 1.05.7 1.25l-.85.15q-2.3 0-5.25-1.6-3.35-1.9-6.15-5.25Q0 32.2 0 16.85l.05-2.4.25-.1" fill="#466400"/><path d="M1.5 25.75q6.2 5.55 13.1 9.1l3.35 6.2-.1.1h-.1l-4.55-1.2-1.65-.55q-2.35-.9-2.75-1.6l-.45 2.1-2.7-3.85Q2.8 31.2 1.5 25.75" fill="#cfaa53"/><path d="m11.55 39.4 1.65.55 4.55 1.2.5.55-.15.1-1.4.3-1.75-.35-1.55-.45v.1l.8 2.1.5 1.75-2.35-1.45-.1-.05-.7-4.35" fill="#fff"/><path d="M14.6 34.85 16.95 36q7.1 3.2 12.05 3.2 3.4 0 6.25-.95l5-2.05q2.8-1.15 6.1-1.8 4.15-.85 9.2-.95l-.45.9-1.45 2.1Q49.1 38.6 43.7 40.1l-8.55 1.85-6.05.75-3.55.6-.5-.1-2.85-.25-.25.1-1.05.3q0 .4.3 1h-.15l-1.75-.4-1.45-.45-.3.65q-.15.35-.15.7l.6 1.45q-1.7-.35-3.3-1.05l-.5-1.75-.8-2.1v-.1l1.55.45 1.75.35 1.4-.3.15-.1-.5-.55H18l-.05-.1-3.35-6.2M8.35 39.9l.45-2.1q.4.7 2.75 1.6l.7 4.35q-2.05-1.55-3.9-3.85" fill="#fff882"/></g><g id="n" fill-rule="evenodd"><path d="m23.75 1.45-.45-.9L25 2.3q1.7 2.15 2.8 5.9 1.25 4.25 1 7.3 2.25 1.1 3.7 3.1 2 2.7 2 6.1 0 6.2-8.35 7.15l-1.8 1.25q-2 1.2-3.5 1.2l-3.55-.65Q15.75 33 15.2 32l-1 .75q-.9.6-2.05.6-1.65 0-2.85-.65-1.15-.65-1.6-1.8l-1.05.25-1.25.15q-2.75 0-3.8-.75Q0 29.4 0 25.85q0-3.55 2.7-6.1Q5.2 17.4 8 17.4l.65.1v.15l.05-.15h-.05l.3-1.95.3-4.1-.3-3.6-.35-2.1-.2-.95.45.55q.85 1.2 1.35 3.1l.7 4.05 1.1 2.05.15.15 1.2 2q.75-1.1 2.95-3.2l.2-.1 2.65-2.2 1.05-.5-.1.2 2.15 3.55 3.35-2.9.55-.5q.55-.7.55-1.45 0-1.9-1.35-4.9l-1.6-3.25M10.3 18.85v.6l-2.85-.25q-2.3 0-3.75 1.85-1.35 1.7-1.35 3.9l.1.8q.2 1.6 1.45 2.45l1.4.6 1.7.7-.2-.75-.25-1.7q0-2.2.75-3.75l.35-.65 1.6-2.3.05.05q-.8 1.3-1.05 2.25l-.1.25-.05.3-.1.35-.2 2.15q0 2.4 1.45 3.8 1.25 1.15 3 1.15h.25l2.25-.55-.4-.8v-1.5l.05-1.6.05-.05 1.05-1.8-.1.35-.15.35q-.15.45-.15 1.25 0 2.3 1.25 3.75 1.3 1.55 3.5 1.55 3.4 0 4.85-2.65.75-1.4.8-2.65 1.2 1.35 1.2 2.65l-.35 1.25h1.25q1.85-.5 3.25-1.6l.65-.65q1.8-1.8 1.8-4.05 0-3.4-2.65-5.7-1.55-1.35-3.3-1.85l.05-1.45-.05-1.4-.1-1.7-.9.65-1.7 1.5-1.2 1.15-.8.9h-.05l-1.35-2.55-1.1-1.4q-.15 0-.6.4l-2.35 2-4.4 4.25-1-1.9-.2-.4-.1-.1-1.65-2.65q.05 1.35.45 3.95v1.25" fill="#466400"/><path d="m2.45 25.75-.1-.8q0-2.2 1.35-3.9 1.45-1.85 3.75-1.85l2.85.25v-.6l.15.25q.3.5.65.5.5 0 .5-1.4l-.1-1.8h.1l.2.4 1 1.9 4.4-4.25 2.35-2q.45-.4.6-.4l1.1 1.4L22.6 16h.05l.8-.9q.85.35 1.2.65.5.4.5 1.05 0 .75-.4 1.35l-.85 1.2h.7q1.3-.2 3.15.7 2.05 1 2.05 2.55 0 3.95-3.2 3.95L26.1 25q-.45-1.55-2-1.55l-.4.05.15 1.8q0 1.55-.5 2.6-.7 1.45-2.25 1.45-2.3 0-3.45-.85-1.15-.95-2.25-3.8l.1-.35-1.05 1.8-.05.05-.85 1.05-.1.1q-1 .95-2.6.95-1.2 0-2.05-1.65-.75-1.35-.8-3.1l.1-.35.05-.3.1-.25q.25-.95 1.05-2.25v-.05h-.05l-1.6 2.3-.2-.05-.7.15q-.8.5-1.2 2.1-.5 2.2-1.05 2.2-.9 0-1.6-.65l-.45-.65m1-1.55q0 .5.3.75l.45.25q.5 0 1.15-1.2l.55-1.45q0-.65-.6-1l-.55-.15-.45.6q-.85 1.3-.85 2.2m6.85-1.9q-1 .1-1 1.9 0 1 .65 1.75.55.6 1.05.6l.75-.4.3-.75-.9-1.15q-.8-.95-.85-1.95m7.45 1.75-.25 1.35q0 1.05.5 1.6.35.4.9.4.7 0 1.15-.5l.45-.8q0-.25-1.15-.85-1-.55-1.4-1.65l-.2.45" fill="#fff882"/><path d="m2.45 25.75.45.65q.7.65 1.6.65.55 0 1.05-2.2.4-1.6 1.2-2.1-.65 1.2-.6 3.65.05 1.75-.85 2.4l-1.4-.6q-1.25-.85-1.45-2.45M8 23.55q.05 1.75.8 3.1.85 1.65 2.05 1.65 1.6 0 2.6-.95l.1-.1.1 2.1-.25.55-.9.75h-.25q-1.75 0-3-1.15-1.45-1.4-1.45-3.8l.2-2.15m7.4 1.15q1.1 2.85 2.25 3.8 1.15.85 3.45.85 1.55 0 2.25-1.45.5-1.05.5-2.6l-.15-1.8.4-.05q1.55 0 2 1.55l.5 1.55q3.2 0 3.2-3.95 0-1.55-2.05-2.55-1.85-.9-3.15-.7h-.7l.85-1.2q.4-.6.4-1.35 0-.65-.5-1.05-.35-.3-1.2-.65l1.2-1.15 1.7-1.5.1 2.9-.1 3.2q.35-.35 1.45-.35 1.9 0 3.05 2.3 1 1.95 1 4l-.25 2.1-.75 2q-1.4 1.1-3.25 1.6h-1.25l.35-1.25q0-1.3-1.2-2.65-.05 1.25-.8 2.65-1.45 2.65-4.85 2.65-2.2 0-3.5-1.55-1.25-1.45-1.25-3.75 0-.8.15-1.25l.15-.35" fill="#cfaa53"/><path d="m23.75 1.45 1.6 3.25q1.35 3 1.35 4.9 0 .75-.55 1.45L25.5 8.1q-.9-3.3-2.8-7.3l.45.25.6.4m-17 21.3.7-.15.2.05-.35.65q-.75 1.55-.75 3.75l.25 1.7.2.75-1.7-.7q.9-.65.85-2.4-.05-2.45.6-3.65m6.8 4.5.85-1.05-.05 1.6v1.5l.4.8-2.25.55.9-.75.25-.55-.1-2.1m17.3 1.35.75-2 .25-2.1q0-2.05-1-4-1.15-2.3-3.05-2.3-1.1 0-1.45.35l.1-3.2-.1-2.9.9-.65.1 1.7.05 1.4-.05 1.45q1.75.5 3.3 1.85 2.65 2.3 2.65 5.7 0 2.25-1.8 4.05l-.65.65" fill="#f7e09b"/><path d="m26.15 11.05-.55.5-3.35 2.9-2.15-3.55.1-.2-1.05.5q-.85-2.3-1.9-3.9-1.1-1.8-1.55-1.8-.4 0-2 1.15l-.4.25-1.05.75-.9.7v.1l.1.4.35 1.9v.1l.05-.1.25-1.15.2-.1 1.6 3h.1l.35 1.45v.85l-1.85-3.05q-.3.6-.35 2.3v.65l-.15-.15-1.1-2.05-.7-4.05q-.5-1.9-1.35-3.1.7-1.9 4-3.55Q16.4 0 19.5 0q1.65 0 3.2.8 1.9 4 2.8 7.3l.65 2.95" fill="#518c44"/><path d="m19.15 11.2-2.65 2.2-1.55-3.8-1.25-2.95q1.6-1.15 2-1.15.45 0 1.55 1.8 1.05 1.6 1.9 3.9" fill="#92d353"/><path d="m16.5 13.4-.2.1q-2.2 2.1-2.95 3.2l-1.2-2v-.65q.05-1.7.35-2.3l1.85 3.05v-.85L14 12.5v-.05q.35-.3.35-1.55 0-1.1-1.25-2.45l-.85-.8 1.05-.75.4-.25 1.25 2.95 1.55 3.8" fill="#daff95"/><path d="m13.9 12.5-1.6-3-.2.1-.25 1.15h-.05l-.35-1.9-.1-.4v-.1l.9-.7.85.8q1.25 1.35 1.25 2.45 0 1.25-.35 1.55l-.1.05" fill="#ffe7bc"/><path d="m11.5 16.4.1 1.8q0 1.4-.5 1.4-.35 0-.65-.5l-.15-.25V17.6q-.4-2.6-.45-3.95l1.65 2.65v.1m-8.05 7.8q0-.9.85-2.2l.45-.6.55.15q.6.35.6 1L5.35 24q-.65 1.2-1.15 1.2l-.45-.25q-.3-.25-.3-.75m6.85-1.9q.05 1 .85 1.95l.9 1.15-.3.75-.75.4q-.5 0-1.05-.6-.65-.75-.65-1.75 0-1.8 1-1.9m7.45 1.75.2-.45q.4 1.1 1.4 1.65 1.15.6 1.15.85l-.45.8q-.45.5-1.15.5-.55 0-.9-.4-.5-.55-.5-1.6l.25-1.35" fill="#fff"/></g><g id="o" fill-rule="evenodd"><path d="M22.4 1.05 24.9.4l1.5-.1q2.95 0 5.25.95l1.35.7.35.25.55.45 2.4 2.25.65.75Q39.3 8.4 40.6 9.3l.25.2q2.25 1.5 5.3 1.5l1.65-.25.9-.25.1.05q-.8 1.8-4.45 4l-.25.1q-4.15 2.4-8.5 2.55h-.55l-2.7-.05-4.7-.75-3.95-3.1.2-.25.5-.55q2.75 1.95 4.35 2.4l.7.2 3.6.7 2.15.2q2.5 0 5.45-1.1l.95-.35q3.1-1.3 5.2-3h-.15l-.75.2-1.2.15q-2.85 0-4.95-1.65L39.5 10l-3-3.35-.3-.35-.7-.9-2.25-2.2-.35-.2-.4-.25-1.65-.8-3.75-.6-2 .15h-.35l-1.25.35-1.1-.8M18 15.3q-1.15 1.95-2.65 2.8-1.25.7-3.35.7l-3.15.35q-1.7.35-3.2 1.25l-1.05.7-.2.2Q3 22.5 3 23.85L1.75 21.2l-.65-1.85Q.2 16.3.05 13.45L0 12.05q0-2.7.7-4.8l.6-1.4q.35-.8.85-1.5L3 3.4l.85-.75q2.6-2 6.9-2l2.9.4.7.15-1.25 1.05-.05.05-1.35-.2h-.4q-2.9 0-5.1 1.8l-.8.8-.65.8q-.75.9-1.25 2l-.55 1.3q-.8 2.3-.8 5.15l.4 3.5.35 1.75.5 1.85.15.1q.1-.85 1.4-2.15l.4-.4q1.45-1.3 3.25-1.4l1.1-.1 3.1-.4q1.6-.5 2.8-1.9l2.4.5m13.15-7.45 1.3.75.7.55 2.05 1.8q1 .75 1.9.65l.1.1-.55.1-.7.15q-.9 0-2.5-1l-1.1-.75-.6-.45q-1.25-1-2.5-1.55-.6-.25-1.15-.4l-1.95-.3-.1-.95q2.85.1 5.1 1.3M9.7 8.4l1.2-.35.15 1.2q-.6.25-1.15.65l-1.2.95-1.35 1.3q-2.65 2.8-3.1 4l-.1-.1q-.35-1.3 1.75-4.15l.45-.6q1.7-2.15 3.35-2.9" fill="#466400"/><path d="m23.5 1.85 1.25-.35h.35l2-.15 3.75.6-2.15 1.4-1.25.8.15 1.8q1.8-.25 3.35 1.6l.2.3q-2.25-1.2-5.1-1.3-.15-1.3-.75-2.4l-1.4-1.9-.4-.4m9.55 13.95-3.6-.7q-1.75-1.4-2.3-2.3l-1.2-3.4.2-1.75V7.5l1.95.3q-.95.55-.95 1.85 0 3.2 5.9 6.15M6.2 3.9q2.2-1.8 5.1-1.8h.4l1.35.2q-1.15 1.15-1.7 2.5-.5 1.3-.5 2.85l.05.4-1.2.35-.05-.95.05-.9.3-.8L6.2 3.9m4.85 5.35.3 1.2q0 1.75.6 2.7l.65 1.05q-.65.25-1.45.95-.8.7-1.45 1.95l-1.1.1q-1.8.1-3.25 1.4.85-2.15 2.45-3.45 1.35-1.05 3.05-1.65-.5-1-.85-2.95l-.1-.65q.55-.4 1.15-.65" fill="#78ba4b"/><path d="M23.7 13.3q-2.15 2-5.25 2H18l-2.4-.5q-1.4-.6-2.5-1.75-1.2-1.2-1.75-2.6l-.3-1.2-.15-1.2-.05-.4q0-1.55.5-2.85.55-1.35 1.7-2.5l.05-.05 1.25-1.05q1.8-1.2 4.1-1.2 2.2 0 3.95 1.05l1.1.8.4.4 1.4 1.9q.6 1.1.75 2.4l.1.95v.15l-.2 1.75q-.4 1.7-1.55 3.1l-.5.55-.2.25m1.55-7.4q-.45-1.75-1.85-3.15l-.6-.55-.1-.15-1.05-.65Q20.2.7 18.45.7q-1.7 0-3.1.7l-.15.1-1.45 1.1-.2.15Q11.9 4.4 11.6 6.7l-.05.95V8l.1.95.05.2.25.8q.45 1.45 1.6 2.65l2.5 1.6 2.3.4h.1q2.75 0 4.7-1.75l.25-.25.45-.5q1.35-1.65 1.55-3.85l.05-.15v-.55l-.1-1-.1-.65" fill="#650e00"/><path d="M11.6 6.7q.3-2.3 1.95-3.95l.2-.15 1.45-1.1.15-.1q1.4-.7 3.1-.7 1.75 0 3.2.7l1.05.65.1.15.6.55q1.4 1.4 1.85 3.15l-.3 1.9Q23.9 7 22.7 6.4q-1.8-.9-3.2-.95v-.2q0-.45-.35-.75l-.7-.25q-.4 0-.7.25-.3.3-.3.75l.1.4-.75.3-.35-.45q-.6-.65-1.55-.65-.9 0-1.55.65-.6.65-.6 1.55 0 .75.4 1.3l-.65.9q-.6-1.2-.9-2.55" fill="#7c1100"/><path d="m32.5 2.75.4.25.35.2-1.75 1.45q0 .6.95 1.5l1.2 1.2 1-1.2.85-.75.7.9-.05.05-1.8 1.8q.85.3 1.9 1.45.85.95 1.45.95l1.8-.55.25.25q2.1 1.65 4.95 1.65l1.2-.15.75-.2h.15q-2.1 1.7-5.2 3l-.95.35q-2.6-.15-5.9-1.05-6-1.7-6-4.85 0-.5.5-.8 1.25.55 2.5 1.55l.6.45 1.1.75q1.6 1 2.5 1l.7-.15.55-.1-.1-.1q-.9.1-1.9-.65l-2.05-1.8-.7-.55-.7-1.45-1.6-1.7-.75-.8 2.4-1.5.7-.4M7.75 6.3l1.2.65L5 12.25v.05l.9-.4q-2.1 2.85-1.75 4.15l.1.1q.45-1.2 3.1-4l1.35-1.3h.25L7.7 13.7l-3.8 4.1-1 1.4-.35-1.75-.4-3.5.2.05q.45 0 1.05-1.85l.5-2.2q0-.4-.95-1.15l.55-1.3q2.05 1.65 2.45 1.65l2.1-2.35-.3-.5" fill="#dfff77"/><path d="m30.85 1.95 1.65.8-.7.4-2.4 1.5.75.8 1.6 1.7.7 1.45-1.3-.75-.2-.3Q29.4 5.7 27.6 5.95l-.15-1.8 1.25-.8 2.15-1.4m9.8 12.95Q37.7 16 35.2 16l-2.15-.2q-5.9-2.95-5.9-6.15 0-1.3.95-1.85.55.15 1.15.4-.5.3-.5.8 0 3.15 6 4.85 3.3.9 5.9 1.05M6.2 3.9 10 5.75l-.3.8-.05.9.05.95q-1.65.75-3.35 2.9l-.45.6-.9.4v-.05l3.95-5.3-1.2-.65L5.4 4.7l.8-.8M2.9 19.2l1-1.4 3.8-4.1 1.25-2.85H8.7l1.2-.95.1.65q.35 1.95.85 2.95-1.7.6-3.05 1.65-1.6 1.3-2.45 3.45l-.4.4q-1.3 1.3-1.4 2.15l-.15-.1-.5-1.85" fill="#b9e449"/><path d="m25.25 5.9.1.65.1 1v.55l-.05.15q-.2 2.2-1.55 3.85l-.45.5-.25.25q-1.95 1.75-4.7 1.75h-.1l-2.3-.4-2.5-1.6q-1.15-1.2-1.6-2.65l-.25-.8-.05-.2-.1-.95v-.35l.05-.95q.3 1.35.9 2.55l.7 1.05q1.15 1.6 2.95 2.5l.05.05v-.05l-.25-1.1q0-1.5 1.3-2.45 1.1-.85 2.35-.85 1.5 0 2.3 1.8.7 1.6.25 2.45l1.65-2.1q.75-1.25 1.15-2.75l.3-1.9" fill="#ff8977"/><path d="m12.5 9.25.65-.9.2.25q.65.65 1.55.65.95 0 1.55-.65.65-.65.65-1.55l-.3-1.1.75-.3.2.3.7.3.7-.3.35-.5q1.4.05 3.2.95 1.2.6 2.25 1.4-.4 1.5-1.15 2.75l-1.65 2.1q.45-.85-.25-2.45-.8-1.8-2.3-1.8-1.25 0-2.35.85-1.3.95-1.3 2.45l.25 1.1h-.05q-1.8-.9-2.95-2.5l-.7-1.05" fill="#ff2100"/><path d="m33.25 3.2 2.25 2.2-.85.75-1 1.2-1.2-1.2q-.95-.9-.95-1.5l1.75-1.45m2.95 3.1.3.35 3 3.35-1.8.55q-.6 0-1.45-.95-1.05-1.15-1.9-1.45l1.8-1.8.05-.05M13.15 8.35q-.4-.55-.4-1.3 0-.9.6-1.55.65-.65 1.55-.65.95 0 1.55.65l.35.45.3 1.1q0 .9-.65 1.55-.6.65-1.55.65-.9 0-1.55-.65l-.2-.25m4.4-2.7-.1-.4q0-.45.3-.75.3-.25.7-.25l.7.25q.35.3.35.75v.2l-.35.5-.7.3-.7-.3-.2-.3m-9.8.65.3.5-2.1 2.35q-.4 0-2.45-1.65.5-1.1 1.25-2l.65-.8 2.35 1.6m-4.8 2.5q.95.75.95 1.15l-.5 2.2Q2.8 14 2.35 14l-.2-.05q0-2.85.8-5.15" fill="#fff"/><path d="m29.45 15.1-.7-.2q-1.6-.45-4.35-2.4 1.15-1.4 1.55-3.1l1.2 3.4q.55.9 2.3 2.3m-18.1-4.65q.55 1.4 1.75 2.6 1.1 1.15 2.5 1.75-1.2 1.4-2.8 1.9l-3.1.4q.65-1.25 1.45-1.95.8-.7 1.45-.95l-.65-1.05q-.6-.95-.6-2.7" fill="#f7e09b"/></g><g id="p"><path d="m43.5 21.55 1.05.65-.9.85q-4.75 4.3-6.9 8.4-.45.45-.75 1.25-1.65 3.1-4.7 7.75l-2.85 4.1q-2.15 2.75-3.95 3.5-4.55 1.85-6.9 2.1l-3.3-.2q-.3-.25-.8-.3l-.95-.6q-.3-.3-.25-.65l1.05-.05 3.6-.7.05.1q.05.3.45.55 1.25.5 4.85-1.45 3.4-2.3 4.55-4.6l2.6-5.8-.5 2.85-.3 2.05q-.1.1-.05.4v.1l.05-.1 1.7-3.1.3-.65q.25-.6 1.05-1.4l2.2-2.65 1.75-2.2L38 28.5q2.45-3.5 5.05-6.45.15-.35.45-.5m-4.4-6.25v1.05l1.25-.6q1.2-.65 1.8-.75-1.8 2.15-4.05 5.9-2 3.1-2.85 4.95.7-1.9 1.75-3.65l-.45.15-2.45 1.75 1.9-3.85q1.45-3.05 2.85-4.75l.25-.2M11.75 47.55q-.35.1-.5.35-1.25.65-1.7.5-.25-.25-.15-.35l2.5-1.4.05.05-.2.85m-2.4-1.15-.7.15-2.15.2-.7-.55-.35-.45 1.3-.15 2.9-.3-.3 1.1" fill="#92d353" fill-rule="evenodd" transform="translate(-.95 .65)"/><path d="m42.5 14.9.05-.05 1.2.1h.15l.25.4.05.1-1.15 1.65q-.65.65-1.15 1.7-.65.8-1.15 1.75l-5.7 9.5-.05.1-2.95 4.55-.4.55q.05-.45.25-.75l2.3-6.25.45-.85q.1-.75.6-1.55.85-1.85 2.85-4.95 2.25-3.75 4.05-5.9l.35-.1m2.05 7.3.35.7-1 .65-1.3 1.2q-.3.5-.65 1.75l-.5 1.1-2.6 2.2q-1.35 1.35-2.55 3.65-.15-.05-.1.05-2.3 4-5.25 9.6-2.25 3.8-4.3 5.4l-3.75 2.55-5.9.3-2-.2-4.75-.85 1.15 1.35 1 1.55q-.1-.05-.05.1l-1.55-1.45q-.85-.7-2.3-1.25l-3.7-.8-.9-.05-.15-.35-.25-.55-.8-2.65 2.75-.45.35.45.7.55 2.15-.2.7-.15-.1.2q-.3 1.05-.25 1.55l.35-.1h.05q-.1.1.15.35.45.15 1.7-.5.15-.25.5-.35l-.25.9.8-.05q-.05.35.25.65l.95.6q.5.05.8.3l3.3.2q2.35-.25 6.9-2.1 1.8-.75 3.95-3.5l2.85-4.1q3.05-4.65 4.7-7.75.3-.8.75-1.25 2.15-4.1 6.9-8.4l.9-.85" fill="#518c44" fill-rule="evenodd" transform="translate(-.95 .65)"/><path d="m41.5 29.25.5 1.1-1.2 1.2q-2.5 2.55-3.65 4.7l-.6 1.1-2.75 6.3q-1.8 3.45-3 4.65-4.35 3.8-8.95 4.75l-4.3.45-1.3-.15-2.3-.4 2.75 3.95v.05l-.75-.35-5.85-3.7q-3-1.25-3.8-1.35l-1.7-.25-.3.05q-.85-.1-1.15.35l-.05-.1-.5-1.7 1.2-.15h.1l.9.05 3.7.8q1.45.55 2.3 1.25l1.55 1.45h.05v-.1l-1-1.55-1.15-1.35 4.75.85 2 .2 5.9-.3q1.85-.5 3.45-1.4 2.2-.95 6.8-8.95 1.2-2.75 3.6-5.9l1-1.35q1.9-2.8 3.75-4.2m-2.4-16.8q-.2 1.25 0 2.7v.15l-.25.2q-2.4 1.5-5.4 4.95l-.55.65-1.2 1.55q-1.8 2.55-2.8 4.7-1 2.1-1 4.6l-.95 3.5-.1.7q-.45.95-.7 2.05l-2.5 5.35q-1.4 2.55-6.65 4.1v.05l-.05-.05-3.6.7-1.05.05-.8.05.25-.9.2-.85-.05-.05-2.5 1.4h-.05l-.35.1q-.05-.5.25-1.55l.1-.2.3-1.1-2.9.3-1.3.15-2.75.45-1.45.3-.3-.6 1.6-.35 2.6-.5.95-.15 5.45-.9v1l-.1.2q-.1.05-.05.3l-.35.6.3-.1q.2-.15.35-.15l1.15-.3 1.6-.35.4-.1.15.25v.35q.15.55-.1.9l-.05.1q3.25-.6 5.5-2.6 2.75-2.1 4.05-9.85.2-7.3 5.8-14.45.05-.3.25-.45 2.4-2.9 4.8-4.8l.35-.3q1.75-1.3 3.5-1.8" fill="#1b551d" fill-rule="evenodd" transform="translate(-.95 .65)"/><path d="m42.95 21.35.3.1.25.1q-.3.15-.45.5Q40.45 25 38 28.5l-2.35 3.25-1.75 2.2-2.2 2.65.8-1.4q1.35-2.35 2.85-4.35l1.1-1.6q3.5-5.15 6.35-7.75 0-.15.15-.15m-4.1-5.85q-1.4 1.7-2.85 4.75l-1.9 3.85-1.3.95q-2 1.2-2.05 1.4h-.1l1.45-2.85.6-1.9.2-.6.55-.65q3-3.45 5.4-4.95m-12 20.65q1-2.05 2.75-4.5 1.5-2.8 2.55-3.65l-2.5 9.65-1 4.1h-.05q-.05-.3.05-.4l.3-2.05.5-2.85-2.6 5.8q-1.15 2.3-4.55 4.6-3.6 1.95-4.85 1.45-.4-.25-.45-.55v-.1q5.25-1.55 6.65-4.1l2.5-5.35q.25-1.1.7-2.05" fill="#daff95" fill-rule="evenodd" transform="translate(-.95 .65)"/><path d="m66.55 13.95-.2-1.2-1-3.75 1 3.75.2 1.2M65.35 9q-.6-1.1-.8-2.25.2 1.15.8 2.25 4.6 8.75 3.6 18.45-1.1 10.65-1.8 14.45.15-2.75-.75-5.15-.75-1.9-2.3-2.8-1.95-1.35-4.1-1.3l-1.3.4-.5.1q-7.8 1.8-11 1.6-3.3-.3-5.2-4.4l-.5-1.1-.15-.35.1-.05 1.45-1 .1-1.45q.1-.6 1-2.05l.25-.35q1.4 1.5 3.2 1.15l.35-.1q2.15-.7 3.85-2 2-1.85 1.95-3.95-.2-2.1-1.85-2.8l-2.6-.1v-.15q-.35-1.95 1.85-3.1 1.4-.95 3.2-.95.5-.2 2.75 1 2.1 1.1 2.6 1l1-.65.2-1.6q-.05-1.65-.7-2.55-.7-1.1-2-1l-2.7.75-1.05-.15q-.55-.2-.5-.65l.1-.45h.1l1.55-.4q1.15-.8 1.05-2.4 0-1.7-.8-2.4-.4-.45-.85-.5l-.5-.7L53.4.15q3.3.45 6.4 2.45 2.15 1.35 3.7 2.85l1 1.2.05.1.25.6q.1.65.55 1.65m-53 44.3q-.05-.15.05-.1v.1h-.05" fill="#d365b8" fill-rule="evenodd" transform="translate(-.95 .65)"/><path d="M54.95 2q.45.05.85.5.8.7.8 2.4.1 1.6-1.05 2.4L54 7.7h-.1l-1.15.15-2-.2-1.8-.15q-3.25.15-4.9 2.05l-.3.5q-1 1.4-1.25 4.75v.1l-.35.1q-.6.1-1.8.75l-1.25.6v-1.2q-.2-1.45 0-2.7.4-4.85 3.95-8.7 1.2-.75 2.15-.9l3.75-.7h.35q-.35.1-.9 1.15-.95 1.35-.9 2.3-.05.45.05.9h.55l2.55-2.05Q52 3 52.55 3.1q.15-.2.85.35.45-.15.45-.75-.1-.85.6-.75l.5.05M43.9 14.95l1-1.45q1.45-2.1 2.45-2.85-.8.95-.85 4.7 0 4.2-.8 5-.2-.05-.2.1-.95.05-1.55-.75-.6-.75-.65-1.7l.9-2.55-.05-.1-.25-.4" fill="#fde2f8" fill-rule="evenodd" transform="translate(-.95 .65)"/><path d="m53.4.15 1.05 1.15.5.7-.5-.05q-.7-.1-.6.75 0 .6-.45.75-.7-.55-.85-.35-.55-.1-1.9 1.35L48.1 6.5h-.55q-.1-.45-.05-.9-.05-.95.9-2.3.55-1.05.9-1.15h-.35l-3.75.7q-.95.15-2.15.9l.2-.25q1.05-1.2 2.25-1.8Q48.35-.05 51.4 0l2 .15m.5 7.55-.1.45q-.05.45.5.65l1.05.15 2.7-.75q1.3-.1 2 1 .65.9.7 2.55l-.2 1.6-1 .65q-.5.1-2.6-1-2.25-1.2-2.75-1-1.8 0-3.2.95-2.2 1.15-1.85 3.1v.15l2.6.1q1.65.7 1.85 2.8.05 2.1-1.95 3.95-1.7 1.3-3.85 2l-.35.1q-1.8.35-3.2-1.15l.65-1.1-.35-.7-1.05-.65-.25-.1-.3-.1-.3-.05-.45-1.35.75-1.35.35-.6q.05.95.65 1.7.6.8 1.55.75 0-.15.2-.1.8-.8.8-5 .05-3.75.85-4.7-1 .75-2.45 2.85l-1 1.45h-.15l-1.2-.1-.05.05v-.1q.25-3.35 1.25-4.75l.3-.5q1.65-1.9 4.9-2.05l1.8.15 2 .2 1.15-.15" fill="#ffa9d9" fill-rule="evenodd" transform="translate(-.95 .65)"/><path d="m44.25 24-.25.35q-.9 1.45-1 2.05l-.1 1.45-1.45 1-.1.05.15.35q-1.85 1.4-3.75 4.2l-1 1.35q-2.4 3.15-3.6 5.9-4.6 8-6.8 8.95-1.6.9-3.45 1.4l3.75-2.55q2.05-1.6 4.3-5.4 2.95-5.6 5.25-9.6-.05-.1.1-.05 1.2-2.3 2.55-3.65l2.6-2.2.5-1.1q.35-1.25.65-1.75l1.3-1.2 1-.65-.65 1.1m-.95-6-.35.6-.75 1.35-1.25 1.55v.05q.65-.6 1.7-.25l.3.05q-.15 0-.15.15-2.85 2.6-6.35 7.75l-1.1 1.6q-1.5 2-2.85 4.35l-.8 1.4q-.8.8-1.05 1.4l.8-2.05.2-.7.4-.55L35 30.15l.05-.1 5.7-9.5q.5-.95 1.15-1.75.5-1.05 1.15-1.7l1.15-1.65-.9 2.55" fill="#f7e09b" fill-rule="evenodd" transform="translate(-.95 .65)"/><path d="m31.65 35.25-.2.7-.8 2.05-.3.65-1.7 3.1 1-4.1 2.5-9.65q-1.05.85-2.55 3.65-1.75 2.45-2.75 4.5l.1-.7.95-3.5q0-2.5 1-4.6 1-2.15 2.8-4.7l1.2-1.55-.2.6-.6 1.9-1.45 2.85h.1q.05-.2 2.05-1.4l1.3-.95 2.45-1.75.45-.15q-1.05 1.75-1.75 3.65-.5.8-.6 1.55l-.45.85-2.3 6.25q-.2.3-.25.75" fill="#fff" fill-rule="evenodd" transform="translate(-.95 .65)"/><path d="m44.25 24-.25.35q-.9 1.45-1 2.05l-.1 1.45-1.45 1-.1.05.15.35.5 1.1q1.9 4.1 5.2 4.4 3.2.2 11-1.6l.5-.1 1.3-.4q2.15-.05 4.1 1.3 1.55.9 2.3 2.8.9 2.4.75 5.15.7-3.8 1.8-14.45 1-9.7-3.6-18.45M42.5 14.9l.05-.05 1.2.1h.15l.25.4.05.1-.9 2.55-.35.6-.75 1.35-1.25 1.55m1.7-.2.3.05.3.1.25.1 1.05.65.35.7-.65 1.1M53.4.15l-2-.15q-3.05-.05-5.9 1.7-1.2.6-2.25 1.8l-.2.25q-3.55 3.85-3.95 8.7-.2 1.25 0 2.7v1.2l1.25-.6q1.2-.65 1.8-.75l.35-.1M30.65 38q.25-.6 1.05-1.4m9.25-15.05q.65-.6 1.7-.25M9 48.15q-.05-.5.25-1.55m1.8-.5.35-.6m.55 1.2-.2.85m.65 5.65v.1h-.05" fill="none" stroke="#9b3482" stroke-linecap="square" stroke-linejoin="miter-clip" stroke-miterlimit="3" transform="translate(-.95 .65)"/><path d="m65.35 9 1 3.75.2 1.2m-2-7.2-.05-.1-1-1.2q-1.55-1.5-3.7-2.85-3.1-2-6.4-2.45m11.15 6.6q.2 1.15.8 2.25-.45-1-.55-1.65l-.25-.6" fill="none" stroke="#9b3482" stroke-linecap="round" stroke-linejoin="miter-clip" stroke-miterlimit="3" transform="translate(-.95 .65)"/></g><g id="q"><path d="M68.9 81.4q-3.1 3-7.05 6l-1.9 1.4-4.6 3-.8-.7q3-1.15 5.8-2.95 4.35-2.75 8.3-6.95l1.05-1.1.45-.55 1.8-2.3 3.2-4.45.15-.2.45.25q-1.5 2.45-3.55 4.95l-1.7 1.95-1.55 1.6-.05.05M7.05 74.5l1.4-1.8.4-.5.35-.45-.35-.8-.05-.05-1.4-2.85-.9-1.8-.9-1.9-1.65-3.9-.1-.25 2.3-7.1.5-.1.2-.1.65.55-.55 1.65q-1.05 3.1-1.4 5.2l.15.45.1.35.15.5 1 2.4 1.25 2.85 1.15 2.4 1.15 2.4.1.2.25.5L12 72l.9-.2-1.2 1.05q-1.65 1.5-3.05 3.25l-1.5-1.5-.1-.1M3.8 14.75q.5-1.1 1.15-2.25Q6.6 9.5 7.7 8l2.45 1.95q2.3 2 3.8 3.85l-.5.5-.9.95-1.15-1.75-.9-1.15q-1.05-1.2-2.25-2.05L6.7 13.75l-.45 1.1 2.3-3.45.05.05.2.05 1.15 2.75.65 1.4-.9 2.2-.25.6.15.65-.1.1-.2.35-.2-.5-.7-1.1-.85 1.15-.3.35-1.55 1.9L5 18.9l-.2-.65-1-3.5M41.4 8.8l.1-2.4q0-2.8-.4-4.65L40.7 0q5.45.95 10.7 3.2l2.45 1.1.15 2.75v1.4q-.1 2.05-.4 3l-.1.3-.2.4L51.8 14l-.2-.65-.95-1.7Q49.25 9.6 47.6 8.8q-1.3 5.85-1.3 6.45l.05.45h-.05q-.2-.7-2.35-2.9l-.9-.85-.25-.25-1.05-.85-.55-.35.1-.85.1-.85m4.7-5.3-.1-.05q-1.9-.7-3.45-1.05 0 1.5.3 3.35l.3 3.65v.85l.2.15.25.35.9 1.15 1.15 1.6.8-3.3.75-3.1q.95.3 2.85 2.65l1.85 2.4.1-.35.25-.95.05-.4.1-.6.35-2.3V6.4Q49 4.55 46.1 3.5" fill="#7b3c00" fill-rule="evenodd"/><path d="M70.35 65.75q.25 1.75 1.05 3.2l.6 1.1.1.1 1.1 2-.2.65-.1.25-1.05 2.7-.2.4v.05l-1.95 3.9-1.05 1.1q-3.95 4.2-8.3 6.95l4.8-7.7q2.9-4.85 2.9-8.1 0-2.25-2.6-2.25h-.05q2-2 4.95-4.35m-14.1-28q3.9 2.2 7.85 7.35 3.4 4.4 5.1 8.45-7.8 8.35-8.6 18.75-1.05 1.2-2.5 3.7.5-1.95.5-3.65 0-1.6-.5-3.55l.3-.8.35-1.85-.2-1.65-.15-2.15q0-2.6 1.1-3.55.95-.75 5.5-3.25l.1-.05H65l-6.2 1.1-4.55.95-1.45.4-.7.15q-2.45.5-6.25 2.15Q39.8 62.9 31.15 68q-3 1.7-13.2 8.7-3.45 2.35-5.6 3.25l-1.4.45v-.05l.3-.5.3-.75-.95-.35h-.05l-.3-.45 7.8-4.55q8.45-5.6 13.5-8.7l12.6-7.85q2-1.35 4.35-2.85 1.35-1.35 1.35-4.65l-.05-2.1-.25-1.6 3 2.55q.25-3-3.15-6.45-3.65-3.75-7.75-3.75l-3.9.3q1.9-1.05 3.65-1.6 2.75-.9 6.4-.9l2.45.15-.15.05 6.15 1.4M44.8 3.8l3.95 1.6q1.6.75 2.85 1.45l.25.15.9.45v.1l-.35 2.3-.1.6-.05.4-.85-.9-2.4-2.3-4.65-3.75.45-.1m-36 7.7.45.2 2.65 4.35q-1.35 1.55-2.3 3.05l-.15-.65.25-.6.9-2.2-.65-1.4L8.8 11.5m10.3 35.25.6-.8.8-.95q2.75-3.1 7-5.4 2.35-1.25 7.05-2.95l.1 1.65.2-.8.05 1.7-4.45 1.2q-7.7 2.45-11.35 6.35" fill="#cfaa53" fill-rule="evenodd"/><path d="M46 3.45v.05l-1.2.3-.55.05.1.05-.8.1.15 2.75q0 2.45-.35 3.65l-.2-.15V9.4l-.3-3.65q-.3-1.85-.3-3.35 1.55.35 3.45 1.05M42.4 16.6q.95 2.65.95 3.25.9-.3 2.6-1.35l.95-.65 2.3-1.6q-3.35 3.65-5.15 9.3l-1.1 4.85-.35-.85-.3-1.25q0-1.5.15-2.45l.45-2.5q-.75.55-3.65 4.35l-2 2.75 2.1-4.75q2.1-4.65 3.05-9.1M9.25 11.7l-.45-.2-.2-.05-.05-.05-2.3 3.45.45-1.1 1.55-3.45q1.2.85 2.25 2.05l-1.25-.65M4.8 18.25l.2.65-.55 2.75-.85 5.15q1.15-1.7 1.95-2.3h.05q-.6 2.3-.7 4.8v.6l-.75-1.4H4.1v1.45l.05 1.2-.6-1.05-.5-.8-.1-.05v.55l.55 9.1q-2.15-4.65-2.15-7.65 0-3.75 1.15-6.85l2.3-6.15m5.9 29.5-.1 1.55.15 1.3-.8 2.05q-1.5 4.35-1.5 6.2l.25 2.7v.15l.05-.1q.7-1.3 4.4-4.65 4-3.55 5.45-3.9h.15q-.95.9-1.95 6.35l-1.25 6.9-.15-8.4-.15-.1q-1 .6-3.35 5.35-1.55 3.15-2.55 6.1l-1.15-2.4L6.95 64l-1-2.4-.15-.5-.1-.35-.15-.45q.35-2.1 1.4-5.2l.55-1.65q1.45-3.75 3.2-5.7m1 25.1 1.35-.7-2 2.7-1.8 2.55.9.8.1.1-.5.25-.3-.05h-.1L8 78.75l-.9.5.55.9q-.7-.25-1.25-.7l.5-.8 1-1.6.75-.95q1.4-1.75 3.05-3.25m53 2.95-.3 1.4-1.9 4.05-2.85 4.85 1.65-3.9.85-3.05-.05-.3q-.45.1-2.5 1.7l-2.45 1.9 2.8-7.5.05 3.55q.7.1 2.35-1.6l1.25-1.2.6-.55.3.15.2.5" fill="#fff" fill-rule="evenodd"/><path d="m56.15 5.45 1.55-.35 4.15-.4q10.05 0 18.6 4.6l.55.3q3.85 2.1 6.8 4.9l2.85 3.1q1.4 2.85 2.15 6.05h-.05l-2.8-2.95q-2.75-2.4-5.15-2.8l-.05-.05h-.2q-.25-.05-.35.15-.3.15-.45.55-.35.7-.35 1.45 0 2.1 2.1 3.15l.45.2 1.45.5 2.7.9.95.3q2.4.85 3.65 2.1l.45.5q1.65 2 1.65 5.4l-.8 3.7-1.05.5 1.05-2.6.25-2.4q0-2.35-1.15-3.85l-1.15-1.05-1.9-.95q-1.7-.65-4.4-1.25l-.1-.05-.7-.3-.2-.05-1.2-.55q-2.85-1.45-2.85-3.4l.25-1.55.25-.95h-1.35q-1.55.4-2.05.95l2.1-1.6q1.25-.6 2.4-.6 2.2 0 4.05 1.05l2.7 2.05-3.85-4.6-1.3-1.1Q83.55 12.6 80 10.8l-1.95-.95q-3.6-1.7-9.2-2.85-5.3-1.15-9.15-1.15l-1.8.35-.3.05-1.45-.8m-42.2 8.35L15.9 12q1.8-1.55 3.85-2.9.5-.3 1.05-.5 1.95-.75 5.05-.75l1.9.4 1.3.45-.55.4-.2.15-2.6 2.25q-1.15 1.45-1.15 3.7 0 1.3.75 2.3.6.9.95.9l3.7-3.6 1-.85q3.55-2.95 6.1-3.7l2.2-.6 1.25-.35.9-.5-.1.85q-.8-.15-1.4 0h-.1l-.65.25q-.95.35-2.8 1.2-2.6 1.15-5.35 3.35l-.9.65q-3.25 2.7-3.25 3.7 0 1.6 3.1 1.6 1 0 2.65-.8l1.75-1.05 2.8-1.95q-.8 1.6-2.85 3.1-2.75 1.95-5.7 1.95-1.75 0-3.2-1.5-1.6-1.6-1.6-3.9 0-2.75 1.15-4.7.8-1.45 2.15-2.35l.6-.4-1.5-.2q-7 0-12.05 5.5l-.4.45-.5.55-.45.65-.6.75q-1.55 2.2-2.4 4.55-.75 1.85-1 3.8-.25 1.3-.25 2.65l.2 1.75q.5 2.35 2.3 4.2l2.1 1.65q1.05.55 2.05.55h.15l1.3-.2 1.15-.25q-1.6-1.1-2.4-3.35l-.2-.85q-.45-1.6-.45-3.4v-1.45l.3-.75.05-.1.1.05q3.5 2.65 5.25 3.4l1.5.45.45.1 4.65.4 2.8-.35 2.65-.95.1.1q-.6.8-2.75 1.4l-4.3.6-1.45-.15-.85-.15-3.55-1.1-3.5-1.35-.5-.15v.9q.1 1.9.7 3.4.5 1.3 1.45 2.3 1.45 1.55 3.55 2.05l-1.25.45-2.85.6-1.45-.1-1.85-.3-3.95-1.35q-3.1-1.35-4.35-3-.6-.8-.75-1.65.15 1.55.75 3.1l.25.7q1 2.1 2.9 4.15 3.7 4 6.95 3.45l.05.05-1.25.15H14l-2.45-.2-.6.15-.75.35-1.8.85.85.05q1.25.15 2.9.85l.35.2q1.55.7 2.15 1.35l.2.15-.2.05-.5.05h-.5l-1.55.15-.35.3q-.35.5-.35 1.85l.05.25.35 2.05.15.8.7-1.25q1.15-1.75 3.6-3.35l2.55-1.4-.3.5q-1.35.85-2.75 1.95-3.1 2.5-3.75 5.1l-.1.15-.75-1.65-.4-1.2-.15-1.3.1-1.55.05-.35q.1-.65.35-1.15l.5-.8.15-.2-.55-.3q-1-.45-2.2-.45l-1.05.05H7.2l.1-.25 1.5-1.55q.9-.65 1.45-.95l-1.1-.9-1.8-1.95-1.6-2.35Q4.9 35 4.5 33.3l-.35-2.15-.05-1.2V28.5h.05l.75 1.4.9 1.25 1.85 1.9q2.2 1.9 3.35 2.1-3.9-3.9-3.9-8.95l.1-1 .05-.6q.25-1.45.95-2.95l1.1-2.1.2-.35.1-.1q.95-1.5 2.3-3.05l.15-.25.5-.55.9-.95.5-.5M11 35.15l.1.1v-.1H11" fill="#9b3482" fill-rule="evenodd"/><path d="M90.6 70.85q1.8-1.4 2.65-3.05l.55-1.15-1.2.2-1.35.1q-3.9 0-5.9-1.6 0-3.35 2.1-5.75 2.45-2.8 6.65-2.8 2.7 0 3.75.65l.2.15q-.55 1.05-2.15 2.5l-2 1.7 1.6.75.15.05.5.3 1.45.65.45.1q2.35 2 4.6 4.9l2.6 3.8-6.4.9q-3.65 0-8.25-2.4m-19.15-35.4.75 1.25q3.5 6.1 3.5 6.9l-1.3 2.55q-1.3 2.6-1.3 3.05l.1.6-2.5 2.15-.5-.9.15-.8.05-1.1q0-1.75-1.2-5.15l-1.25-3.3-.25-1.7-2.5-5q-2.3-4.4-5.15-8.55-3-4.4-6.35-8.25 5.1 3.55 11.1 10.55l6.65 7.7m10.3 41.15h.2q.9.3 1.9 1l2.4 1.8q-.9.6-3.75 1.4h-.15l-2.95-.55q-2.65-.75-2.65-1.7 0-.7 1.1-1.25 1.4-.7 3.9-.7m-35.8-58.1 1.2-4.3.9-3 .4.2.35.2.5 1-.35-.35.6.85 2.6 5.8q1.05 3.4 1.05 8.6 0 1.9-.35 3.5l-.45 1.5v.1h.05l2.3-1.1 1.1-.6-.95 1.15-3.4 3.45-1.3-.4q-3.8-1.2-4.95-1.2l-2.25.25-.8-.1.75-3.65 1.1-4.85q1.8-5.65 5.15-9.3l-2.3 1.6-.95.65m3.55-2.6-.3.35.3-.2v-.15M7.55 19.1l.85-1.15.7 1.1.2.5-1.1 2.1q-.7 1.5-.95 2.95l-1 3.1q-.35 1.5-.45 3.45l-.9-1.25v-.6q.1-2.5.7-4.8l.05-.1.05-.05v-.1l-.05-.05 1.9-5.1m-4 11 .6 1.05.35 2.15q.4 1.7 1.25 3.3.15 2.8.8 5.05l.75 2.65-.1.25h.2v.1l-.35 1.6L4.9 41.7l-.45-3.6-.9-8m32 61.5.25.65.15-.85.75-.45q1.6-1.1 2.25-1.1 1.45 0 2.35.55 1 .6 1 1.75-.2 1.6-1.95 3.1L32.9 96q-5.9.05-11.5-2.35l-2.7-2.75q-3.75-4.15-3.75-4.9 0-.35 1.15-1.2 1.3-.95 2.65-.95l5.65.3 1.45-.05.7.7 3.8.25q2.45.2 3.05 1.1l-.95.2-1.5.3-.55.05-1.95.2-3.05.15-3.5-.5-1.7-.45q1 1 5.05 2.45l1.9.65q1.15 1.25 2.25 1.95 1.6.9 3.4.9l2.75-.45" fill="#92d353" fill-rule="evenodd"/><path d="m53.5 11.75 5.6 6.5q5.1 6.15 7.6 9.65l4.75 7.55-6.65-7.7q-6-7-11.1-10.55l-.8-.9-3.6-3.7-.5-1-.35-.2-.4-.2-.9 3-1.2 4.3q-1.7 1.05-2.6 1.35 0-.6-.95-3.25l.65-4.65.9.85q2.15 2.2 2.35 2.9h.05l-.05-.45q0-.6 1.3-6.45 1.65.8 3.05 2.85l.95 1.7.2.65 1.5-1.85.2-.4M42.95 30.4l-.75 3.65.8.1 2.25-.25q1.15 0 4.95 1.2l1.3.4-1.25.8-2.45-.15q-3.65 0-6.4.9-1.75.55-3.65 1.6l-1.5.85-.2.15q-.5.3-1.05.7l-.1-1.15-.05-1.7q.6-2.5 1.5-5l.9-2.05 2-2.75q2.9-3.8 3.65-4.35l-.45 2.5q-.15.95-.15 2.45l.3 1.25.35.85M5 18.9l.7 2.45 1.55-1.9.3-.35-1.9 5.1-.1.3q-.8.6-1.95 2.3l.85-5.15L5 18.9m-1.5 20-.55-9.1v-.55l.1.05.5.8.9 8 .45 3.6-.2-.35-1.2-2.45m22.35 45.2-1.45.05-5.65-.3q-1.35 0-2.65.95-1.15.85-1.15 1.2 0 .75 3.75 4.9l2.7 2.75q-2.9-1.2-5.65-3.05-8.1-5.5-9.8-10.55l.45-.6q.55.45 1.25.7l.2.3.55.6 1.65 1.85h.05l.3-1.3.45-1 .1-.15v-.05l1.4-.45 1.95-.2 2.75-.2 3.3.25q1.55.35 2.85 1.25l1.95 2.05.7 1" fill="#daff95" fill-rule="evenodd"/><path d="M75.75 72.85h.05q2.55 1.2 5.9 1.2 4.25 0 7.95-2.5l.95-.7q4.6 2.4 8.25 2.4l6.4-.9.25.45-.1.1q-.95 1.1-5.5 2.5l-3.35.85-1.4.1H95q-3 0-6.45-.8L84 74.8l-1.7.3-1.4.55.15.15h.2l-.25.15-1 .6 1.75.05q-2.5 0-3.9.7-1.1.55-1.1 1.25 0 .95 2.65 1.7l2.95.55v.05l-5.6 1.05H76q-1.5-.75-2.85-2.65l-.95-1.45q2.05-2.5 3.55-4.95m9.6-7.5q-2.05-1.6-2.05-4.9 0-3.65 2.8-7.1 2.7-3.3 5.2-3.3 3.45 0 5.25 1.9 1.75 1.75 1.75 4.7l-.25.95-.2-.15q-1.05-.65-3.75-.65-4.2 0-6.65 2.8-2.1 2.4-2.1 5.75M54 8.45q5.15 3.6 8.9 6.9 3.8 3.45 8.5 8.7 3.2 3.6 7.35 9.35 4.9 6.7 4.9 8.1l-.5 1.55q-5.7 3.15-9.95 6.75l-.1-.6q0-.45 1.3-3.05l1.3-2.55q0-.8-3.5-6.9l-.75-1.25-4.75-7.55q-2.5-3.5-7.6-9.65l-5.6-6.5.1-.3q.3-.95.4-3M67.95 40.7 69.2 44q1.2 3.4 1.2 5.15l-.05 1.1-.15.8q-3.55-6.2-6.75-9.2-2-1.9-6.25-3.9v-.05l-1.65-1.05-.55-.3-.1-.05q-1.8-1-2.15-1.1 2.5-1.25 4.5-4l1.2-1.85q1.05-2 1.05-3.9l4.2 8.25 4.2 8.65h.15v-1l-.1-.85m-12.1-9.8-1.1.6-2.3 1.1-.05-.1.45-1.5q.35-1.6.35-3.5 0-5.2-1.05-8.6l-2.6-5.8 5.35 7.3q3.15 4.4 3.15 5.45 0 2.1-2.2 5.05m-50.05.25q.1-1.95.45-3.45l1-3.1-.05.6-.1 1q0 5.05 3.9 8.95-1.15-.2-3.35-2.1l-1.85-1.9m1.6 13.4h.55L9 44.5q1.2 0 2.2.45l.55.3-.15.2-.5.8-.7-.15q-.9 0-1.6.8-.7.85-.8 2.3 0-.8-.95-2.95l.35-1.6v-.1M5.75 36.6l1.6 2.35 1.8 1.95 1.1.9q-.55.3-1.45.95L7.3 44.3l-.75-2.65q-.65-2.25-.8-5.05m6.6 43.35q2.15-.9 5.6-3.25 10.2-7 13.2-8.7 8.65-5.1 14.7-7.75 3.8-1.65 6.25-2.15 1.65 1.55 3.6 5.1 1.65 3.1 2.4 5.6.5 1.95.5 3.55 0 1.7-.5 3.65l-1.55 4.25q-2.2 4.8-4.6 5.25v.15l3.6-.85 3.35-1.1.1.1q-1.9 1.25-3.65 4.55-1.15 2.3-4.1 2.05L53 91.7q-6.85 2.5-12.65 3.55 1.75-1.5 1.95-3.1 0-1.15-1-1.75-.9-.55-2.35-.55-.65 0-2.25 1.1l-.75.45.05-.3.1-1.2q0-1.85-.65-3.55l-.25-.6v-.05l-1.8.45q-.6-.9-3.05-1.1l-3.8-.25-.7-.7-.7-1-1.95-2.05q-1.3-.9-2.85-1.25l-3.3-.25-2.75.2-1.95.2m21.9 9.5 1.3 2.15-2.75.45q-1.8 0-3.4-.9-1.1-.7-2.25-1.95l3.95 1h.5l1.1-.15 1.55-.6" fill="#518c44" fill-rule="evenodd"/><path d="m57.6 6.25.3-.05 1.8-.35q3.85 0 9.15 1.15 5.6 1.15 9.2 2.85l1.95.95-1.25.3q-1.05 0-5.4-1.2L68.4 8.7q-1.15 0-1.8.8l-.25.35-.95-1.2q-.9-.6-3-.6l-1.65.15Q59.2 7.15 57.6 6.25M86.85 24.8l.7.3.1.05q2.7.6 4.4 1.25.5.95.5 2.25l-.25 1.55h-.1q-.15-1.05-.9-2.35-1-1.8-2.35-1.8-.85 0-1.6.75l-.8.9-.1-1.05q0-.9.25-1.6l.15-.25M27.1 9.2l-2.6.2q-.5.25-1 1.7l-.4-.1-.85.2-.7.25.55.35.55.15q-.95.6-1.75 1.15-1.4 1.1-1 1.95h-.15q-.2-1.05 0-2.2v-.6q-.8.05-1.8 3.2-1.05 3.25-1.05 6.05h-.15q-.65 0-.75-1.45-.15-1.55-.65-1.55-.55 0-1.1.8-.65.9-.65 2.25 0 .45.55 1.65.45 1.2.45 2.7 0 1.25-1.15 1.2-1.7-.15-3.1 1.55H9.8v-.45l1.1-2.5.6-1.75q0-.35-.55-.35-.65 0-2 1.1l-.15.15q.25-1.95 1-3.8.85-2.35 2.4-4.55l.6-.75.45-.65.5-.55.4-.45Q19.2 8.6 26.2 8.6l1.5.2-.6.4m-1 23.85h-.05q-1.2 0-2.2-.55l-1.05-1.3q-1.2-1.3-2.1-1.3-.8 0-1.45.7l-.15.25-1.1-.9q-1.05-1-1.8-2.2l3.5 1.35 3.55 1.1.45.5 2.4 2.35m-16.4 3.9-2.2-1.2-1.55-1.05-.25-.7q-.6-1.55-.75-3.1.15.85.75 1.65 1.25 1.65 4.35 3L14 36.9l.6 1.5-.1.05-1.45-1.15q-1.4-.95-2.15-.95-.5 0-1.2.6m2.6 12.25q-.5.6-.5 1.75l-.35-2.05-.05-.25q0-1.35.35-1.85l.35-.3 1.55-.15.05.1q-.55.15-.9.4l-.45.55-.2.75.15 1.05m20.25-31.55q-.55-.15-1-1-.5-.95-.55-2.2 2.75-2.2 5.35-3.35 1.85-.85 2.8-1.2-1.1 3.2-3.8 4.3-1.55.6-1.95.9-.8.8-.8 2.45l-.05.1" fill="#fde2f8" fill-rule="evenodd"/><path d="M80 10.8q3.55 1.8 5.8 3.65l-3.2-.35-.65.9q-.55.5-1.2.5l-1.35-.25q-.9-.25-.9-.7 0-.45.75-1.05l.85-.7.1-.05h-.1l-4.95.15v-.05l1.5-1.05-.05-.2h-.05l-2.35.2-1.95.05q-4.65 0-5.8-1.9l-.1-.1.25-.35q.65-.8 1.8-.8l4.95 1.2q4.35 1.2 5.4 1.2l1.25-.3m5.45 13.4 1.2.55.2.05-.15.25q-.25.7-.25 1.6l.1 1.05.8-.9q.75-.75 1.6-.75 1.35 0 2.35 1.8.75 1.3.9 2.35h.1l.25-1.55q0-1.3-.5-2.25l1.9.95 1.15 1.05q-.6 4.55-2.95 7.3-2.15 2.55-4.1 2.55h-.15v-.15q1.6-.35 2.4-2.75.65-1.75.65-4l-.1-1.6q-.1-.7-.55-.7l-1.1.9q-1.05.9-1.7.9-.9 0-1.65-.7-1.05-1-1.05-3.25 0-1.3.65-2.7M41.3 9.65l-.1.85-.1.65-.65.6q-.65.7-1.25 1.9-1.45 2.85-2.95 2.85-.35 0-.7-.35l-.35-.9q.1.65-.75 1.55t-1.65.9l-.2-.05v-.1q0-1.65.8-2.45.4-.3 1.95-.9 2.7-1.1 3.8-4.3l.65-.25h.1q.6-.15 1.4 0M16.9 21.5q0 1.25.45 2.65.4-.45.8-.45 1.15 0 2.6 1.5 1.5 1.5.8 2.3l4.15-.15q-.25 1-3.5 1.8l-.25.05-1.5-.45q-1.75-.75-5.25-3.4l-.1-.05-.05.1-.3.75v1.45q0 1.8.45 3.4l-1.85-1.35.45.75.35.85q0 .75-1.1.75-2.1 0-3.45-1.55l-.85-1.2-.2-1.75q0-1.35.25-2.65l.15-.15q1.35-1.1 2-1.1.55 0 .55.35l-.6 1.75-1.1 2.5v.45h.55q1.4-1.7 3.1-1.55 1.15.05 1.15-1.2 0-1.5-.45-2.7-.55-1.2-.55-1.65 0-1.35.65-2.25.55-.8 1.1-.8.5 0 .65 1.55.1 1.45.75 1.45h.15m7.2 8.85.65.35q2.95 1.2 4.65 1.05-.35.3-1.55.8L26.4 33l-.25.05h-.05l-2.4-2.35-.45-.5.85.15m-.25 2.15-.5-.35-1.8-1.35h-.1l.05.05q.45.45.45 1.2-1.5-.3-2.85-1.2l.15-.25q.65-.7 1.45-.7.9 0 2.1 1.3l1.05 1.3m-8 4.7.05.6q0 .65-.95 1.55-.95.85-1.6.85-.75 0-1.45-.4-.7-.45-.7-.9t.4-1.15l-1.9-.8q.7-.6 1.2-.6.75 0 2.15.95l1.45 1.15h.1v-.05l-.6-1.5 1.85.3m-1.25 5.3q1.55.55 1.6 1.45h-.5q-2.95-1.15-4.15-1.15-.8 0-2.3.9l-.85-.05 1.8-.85.75-.35.6-.15 2.45.2h.6m.05 3.8.3.55q0 1.2-1.6 1.6-.7.2-1.05.75l-.15-1.05.2-.75.45-.55q.35-.25.9-.4l.45-.1.5-.05" fill="#ffa9d9" fill-rule="evenodd"/><path d="m55.35 91.8-.95.5q-3.7 2-6.4 2.45l-.2.05-.5.05-3.85.75-4.4.55-8.85.55-5.8-.4q-5.55-.95-10-4.3-5.45-4-10.35-11.85l.9-2.15 1.1-2 1-1.5.1.1 1.5 1.5-.75.95-1 1.6-.5.8-.45.6q1.7 5.05 9.8 10.55 2.75 1.85 5.65 3.05Q27 96.05 32.9 96l7.45-.75Q46.15 94.2 53 91.7l1-.35.55-.25.8.7M6.65 53l-.15-1.1-.75-3.2-1.8-4.6-.9-1.8Q0 36.3 0 30.75q0-5.7 1.7-10.95.7-2.25 2.1-5.05l1 3.5-2.3 6.15q-1.15 3.1-1.15 6.85 0 3 2.15 7.65l1.2 2.45.2.35 2.15 4.55Q8 48.4 8 49.2q.1-1.45.8-2.3.7-.8 1.6-.8l.7.15q-.25.5-.35 1.15l-.05.35q-1.75 1.95-3.2 5.7l-.65-.55-.2.1m47.2-48.7 2.3 1.15 1.45.8q1.6.9 3.15 1.95l5.15 3.7.15.15 5.3 4.65q11.2 10.8 17.1 23.6-1.5.75-2.75 1.4-1.15-3.3-5.25-10.05-5-8.2-9.4-13.15-3.9-4.4-13.35-9.55l-.2-.1-1-.5-2.5-1.3-.15-2.75m3.25 33.6-.85-.15-6.15-1.4.15-.05 1.25-.8 3.4-3.45.95-1.15q2.2-2.95 2.2-5.05 0-1.05-3.15-5.45l-5.35-7.3-.6-.85.35.35 3.6 3.7.8.9q3.35 3.85 6.35 8.25Q62.9 29.6 65.2 34l2.5 5 .25 1.7.1.85v1h-.15l-4.2-8.65-4.2-8.25q0 1.9-1.05 3.9l-1.2 1.85q-2 2.75-4.5 4 .35.1 2.15 1.1l.1.05.55.3 1.65 1.05h-.1M41.2 10.5l.55.35 1.05.85.25.25-.65 4.65q-.95 4.45-3.05 9.1l-2.1 4.75-.9 2.05q-.9 2.5-1.5 5l-.2.8-.1-1.65q-4.7 1.7-7.05 2.95-4.25 2.3-7 5.4l-.8.95-.6.8-.25.35-.9 1.5-.05-.05q.05-1.05.6-2.3l.3-.5q1.3-2.45 4.65-5.45 5.1-4.6 10.5-6.4.85-3.75 4.15-12.05 1.6-4.2 2.5-8l.25-1.2.25-1.5.1-.65" fill="#1b551d" fill-rule="evenodd"/><path d="m85.8 14.45 1.3 1.1 3.85 4.6-2.7-2.05q-1.85-1.05-4.05-1.05-1.15 0-2.4.6l-2.1 1.6q.5-.55 2.05-.95h1.35l-.25.95-.25 1.55q0 1.95 2.85 3.4-.65 1.4-.65 2.7 0 2.25 1.05 3.25.75.7 1.65.7.65 0 1.7-.9l1.1-.9q.45 0 .55.7l.1 1.6q0 2.25-.65 4-.8 2.4-2.4 2.75v.15h.15q1.95 0 4.1-2.55 2.35-2.75 2.95-7.3 1.15 1.5 1.15 3.85l-.25 2.4-1.05 2.6-6.5 3.05q-5.9-12.8-17.1-23.6l-5.3-4.65-.15-.15-5.15-3.7 1.65-.15q2.1 0 3 .6l.95 1.2.1.1q1.15 1.9 5.8 1.9l1.95-.05 2.35-.2h.05l.05.2-1.5 1.05v.05l4.95-.15v.05l-.85.7q-.75.6-.75 1.05 0 .45.9.7l1.35.25q.65 0 1.2-.5l.65-.9 3.2.35M27.1 9.2q-1.35.9-2.15 2.35-1.15 1.95-1.15 4.7 0 2.3 1.6 3.9 1.45 1.5 3.2 1.5 2.95 0 5.7-1.95 2.05-1.5 2.85-3.1l-2.8 1.95-1.75 1.05q-1.65.8-2.65.8-3.1 0-3.1-1.6 0-1 3.25-3.7l.9-.65q.05 1.25.55 2.2.45.85 1 1h.05l.2.05q.8 0 1.65-.9.85-.9.75-1.55l.35.9q.35.35.7.35 1.5 0 2.95-2.85.6-1.2 1.25-1.9l.65-.6-.25 1.5-.25 1.2q-.9 3.8-2.5 8-3.3 8.3-4.15 12.05-5.4 1.8-10.5 6.4-3.35 3-4.65 5.45l-2.55 1.4q-2.45 1.6-3.6 3.35l-.7 1.25-.15-.8q0-1.15.5-1.75.35-.55 1.05-.75 1.6-.4 1.6-1.6l-.3-.55.2-.05-.2-.15q-.6-.65-2.15-1.35l-.35-.2q-1.65-.7-2.9-.85 1.5-.9 2.3-.9 1.2 0 4.15 1.15h.5q-.05-.9-1.6-1.45l1.25-.15-.05-.05q-3.25.55-6.95-3.45-1.9-2.05-2.9-4.15l1.55 1.05 2.2 1.2 1.9.8q-.4.7-.4 1.15 0 .45.7.9.7.4 1.45.4.65 0 1.6-.85.95-.9.95-1.55l-.05-.6 1.45.1 2.85-.6 1.25-.45q-2.1-.5-3.55-2.05-.95-1-1.45-2.3-.6-1.5-.7-3.4v-.9l.5.15q.75 1.2 1.8 2.2l1.1.9q1.35.9 2.85 1.2 0-.75-.45-1.2l.05-.05 1.8 1.35.5.35q1 .55 2.2.55h.1l.25-.05 1.45-.45q1.2-.5 1.55-.8-1.7.15-4.65-1.05l-.65-.35 1.45.15 4.3-.6q2.15-.6 2.75-1.4l-.1-.1-2.65.95-2.8.35-4.65-.4-.45-.1.25-.05q3.25-.8 3.5-1.8l-4.15.15q.7-.8-.8-2.3-1.45-1.5-2.6-1.5-.4 0-.8.45-.45-1.4-.45-2.65 0-2.8 1.05-6.05 1-3.15 1.8-3.2v.6q-.2 1.15 0 2.2h.15q-.4-.85 1-1.95.8-.55 1.75-1.15l-.55-.15-.55-.35.7-.25.85-.2.4.1q.5-1.45 1-1.7l2.6-.2M8.75 29.25l.85 1.2Q10.95 32 13.05 32q1.1 0 1.1-.75l-.35-.85-.45-.75L15.2 31l.2.85q.8 2.25 2.4 3.35l-1.15.25-1.3.2h-.15q-1 0-2.05-.55l-2.1-1.65q-1.8-1.85-2.3-4.2" fill="#d365b8" fill-rule="evenodd"/><path d="m109.85 26.95-.3-1.05-2-2.7q4.35 1.4 6.8 5.4Q117 33 117 40.2q0 9.85-4 15.75-2.95 4.4-7.55 5.75 5.25-3.95 8-10.05 2.6-5.85 2.6-12.25 0-4.6-3.85-9.75l-2.35-2.7m-24.4 24.9-1.25 1.6q-2.1 3.2-2.1 7.15 0 5.2 3.85 6.6l.25.1 6.5.4-2.85 2.75-.6.45-2.15 1.05 1.3-.85 1.05-.9 1.25-1.55h-.4l-3.5-.4-1.7-.6q-2.6-1.05-3.6-3-.6-1.25-.6-2.75 0-3.3 1.3-6.25.75-1.75 1.75-2.7l.15-.2q.65-.6 1.35-.9M71.4 68.95l.5.75q.85 1.15 2.05 2.05l1.35.85-.15.2-3.2 4.45-1.8 2.3-.45.55 1.95-3.9v-.05l.2-.4 1.05-2.7.1-.25.2-.65-1.1-2-.1-.1-.6-1.1m11.75-25.9.5-1.55q0-1.4-4.9-8.1-4.15-5.75-7.35-9.35-4.7-5.25-8.5-8.7-3.75-3.3-8.9-6.9v-1.4l2.5 1.3 1 .5.2.1q9.45 5.15 13.35 9.55 4.4 4.95 9.4 13.15 4.1 6.75 5.25 10.05l-1.7.9-.85.45m-12.95 8 .5.9-1.5 1.6q-1.7-4.05-5.1-8.45-3.95-5.15-7.85-7.35l.85.15.1.05q4.25 2 6.25 3.9 3.2 3 6.75 9.2m26.35 25.2-6.15.7-3.65-.7q-2.2-.75-4.05-.75l-1.45.3h-.2l-.15-.15 1.4-.55 1.7-.3 4.55.75q3.45.8 6.45.8h.15l1.4-.1M76 81.9q-1.3-.05-4-1.35l-1.5-.8 1.7-1.95.95 1.45q1.35 1.9 2.85 2.65M46 3.5h.1q2.9 1.05 6.65 2.9v1.05l-.9-.45-.25-.15q-1.25-.7-2.85-1.45L44.8 3.8l1.2-.3M9.25 11.7l1.25.65.9 1.15 1.15 1.75-.5.55-.15.25-2.65-4.35" fill="#f7e09b" fill-rule="evenodd"/><path d="M65.4 70.1h.05q2.6 0 2.6 2.25 0 3.25-2.9 8.1l-4.8 7.7q-2.8 1.8-5.8 2.95l-.55.25-1 .35-1.75-1.3q2.95.25 4.1-2.05 1.75-3.3 3.65-4.55l.05-.1h-.15l-3.35 1.1-3.6.85v-.15q2.4-.45 4.6-5.25L58.1 76q1.45-2.5 2.5-3.7l-.1 2.4.15 2.55 1.1-2.35q.6-1.2 1.45-2.3l1.7-2 .5-.5M43.35 10.4q.35-1.2.35-3.65L43.55 4l.8-.1L49 7.65l2.4 2.3.85.9-.25.95-.1.35-1.85-2.4Q48.15 7.4 47.2 7.1l-.75 3.1-.8 3.3-1.15-1.6-.9-1.15-.25-.35m-32.6 40.2.4 1.2.75 1.65.1-.15q.65-2.6 3.75-5.1 1.4-1.1 2.75-1.95-.55 1.25-.6 2.3l.05.05.9-1.5.25-.35q3.65-3.9 11.35-6.35l4.45-1.2.1 1.15q.55-.4 1.05-.7l.2-.15 1.5-.85 3.9-.3q4.1 0 7.75 3.75 3.4 3.45 3.15 6.45l-3-2.55.25 1.6.05 2.1q0 3.3-1.35 4.65-2.35 1.5-4.35 2.85l-12.6 7.85q-5.05 3.1-13.5 8.7l-7.8 4.55-.1-.1-.9-.8 1.8-2.55 2-2.7-1.35.7 1.2-1.05-.9.2-1.15.35-.25-.5-.1-.2-1.15-2.4q1-2.95 2.55-6.1 2.35-4.75 3.35-5.35l.15.1.15 8.4 1.25-6.9q1-5.45 1.95-6.35h-.15q-1.45.35-5.45 3.9-3.7 3.35-4.4 4.65l-.05-.05-.25-2.7q0-1.85 1.5-6.2l.8-2.05m16.3-6.75q-2.1 2.1-2.1 4.5 0 2.05 1.55 3.15 1.25.95 3 .95 1.85 0 3.4-1 1.7-1.1 1.7-2.8 0-.9-.65-1.65l-.65-.95q0-1.25 1.8-2.1l1.5-.55-.7-.6-.7-.45q-1.5-.9-2.55-.9-2.35 0-4.2 1.25-.75.45-1.4 1.15m-3.7 21.95-.05.1 1 .6q.9.6 1.3.6l3.15-2.35q2.6-1.9 4.4-2.55l-1.5-.2q-2.5 0-5.2 1.2-2.45 1.15-3.1 2.6m28.75-7.7.7-.15 1.45-.4 4.55-.95 6.2-1.1v.05q-4.55 2.5-5.5 3.25-1.1.95-1.1 3.55l.15 2.15.2 1.65L58.4 68l-.3.8q-.75-2.5-2.4-5.6-1.95-3.55-3.6-5.1m12.6 17.7-.2-.5-.3-.15-.6.55-1.25 1.2Q60.7 78.6 60 78.5l-.05-3.55-2.8 7.5 2.45-1.9q2.05-1.6 2.5-1.7l.05.3-.85 3.05-1.65 3.9 2.85-4.85 1.9-4.05.3-1.4" fill="#fff882" fill-rule="evenodd"/><path d="m101.25 64.1.15.1q1.8 1.5 3.6 3.8 1.6 2.05 2.4 3.7l.3.75-1.75 1.6q-2.95 2.3-6.75 3.8-5 1.95-9.55 1.95l-.5-.05h-.1l-.65.95q-1.3 1.4-4 2.4-3.3 1.15-6.95 1.15-4.45 0-8.5-2.85h-.05l.05-.05 1.55-1.6 1.5.8q2.7 1.3 4 1.35h.75l5.6-1.05.15-.05q2.85-.8 3.75-1.4l-2.4-1.8q-1-.7-1.9-1h-.2L80 76.55l1-.6.25-.15 1.45-.3q1.85 0 4.05.75l3.65.7 6.15-.7 3.35-.85q4.55-1.4 5.5-2.5l.1-.1-.25-.45-2.6-3.8q-2.25-2.9-4.6-4.9l2.65.45h.55" fill="#4b6809" fill-rule="evenodd"/><path d="m28.25 44.9-.15.55.25.45.55.1q.25 0 .5-.2l.3-.6-.3-.4q-.25-.15-.5-.15l-.55.1-.15.05.05.1m-2.15 4.9-.1-.25q-.15-.45-.15-1 0-2.2 1.35-3.95.9-1.2 2.2-1.7l.6-.2 2.55.3-1.1 1.1q-.3.55-.3 1.65l.3 1.1.35 1.2q0 1.2-1 1.95-.85.6-2 .6l-.8-.3.45.05q.8 0 1.45-.5.85-.65.85-1.85l-.15-1.2-.9.5-1.1.25q-.7 0-1.3-.65l-.2-.3-.4.45q-.4.55-.4 1.3 0 .55.55 1.2l.2.25-.35.2-.6-.2M9.3 79.3l.3.05.2.1-.2.8-.55.75-.45-.2-.05-.1-.15-.3-.05-.1h.1l.45-.65.4-.35" fill="#8f5725" fill-rule="evenodd"/><path d="M27.05 43.85q.65-.7 1.4-1.15 1.85-1.25 4.2-1.25 1.05 0 2.55.9l.7.45.7.6-1.5.55q-1.8.85-1.8 2.1l.65.95q.65.75.65 1.65 0 1.7-1.7 2.8-1.55 1-3.4 1-1.75 0-3-.95-1.55-1.1-1.55-3.15 0-2.4 2.1-4.5M30 42.7l-.6.2q-1.3.5-2.2 1.7-1.35 1.75-1.35 3.95 0 .55.15 1l.1.25.75 1.05q.85.75 2.1.75 2.1 0 3.3-.75Q33.6 50 33.6 48.4l-.45-1.1-.45-1.15q0-1.15 1.5-2.25l1.15-.75q-1-.7-3.6-.7L30 42.7m-5.55 23.55.05.05.55.3 3-1.9 3.3-2.1.1-.05h-.15l-3.6 1.2-1.4.6q-1.15.45-1.7.95l-.25.5-.05.05.05.2v.2h.1m-1.1-.45q.65-1.45 3.1-2.6 2.7-1.2 5.2-1.2l1.5.2q-1.8.65-4.4 2.55L25.6 67.1q-.4 0-1.3-.6l-1-.6.05-.1m-12.4 14.6v.05l-.1.15-.45 1-.3 1.3h-.05L8.4 81.05l-.55-.6-.2-.3-.55-.9.9-.5 1.35-.25h.1l.3.05.8.2h.05l.95.35-.3.75-.3.5v.05m-1.15-.95-.2-.1-.3-.05-.9-.1-.6.05.55 1.05.05.1.15.3.05.1q.6 1.1 1.2 1.3l.15-1.3.1-.3q.2-.6.6-.85l-.85-.2" fill="#351b03" fill-rule="evenodd"/><path d="m26.1 49.8.6.2.35-.2.15.1.75.4H28l.8.3q1.15 0 2-.6 1-.75 1-1.95l-.35-1.2-.3-1.1q0-1.1.3-1.65l1.1-1.1-2.55-.3 1.75-.25q2.6 0 3.6.7l-1.15.75q-1.5 1.1-1.5 2.25l.45 1.15.45 1.1q0 1.6-1.35 2.45-1.2.75-3.3.75-1.25 0-2.1-.75l-.75-1.05" fill="#5b3513" fill-rule="evenodd"/><path d="m28.35 44.75.55-.1q.25 0 .5.15l.3.4-.3.6q-.25.2-.5.2l-.55-.1-.25-.45.15-.55.1-.15m-1.3 5.05-.2-.25q-.55-.65-.55-1.2 0-.75.4-1.3l.4-.45.2.3q.6.65 1.3.65l1.1-.25.9-.5.15 1.2q0 1.2-.85 1.85-.65.5-1.45.5L28 50.3h-.05l-.75-.4-.15-.1M8.35 80.3l-.55-1.05.6-.05.9.1-.4.35-.45.65h-.1" fill="#db7d29" fill-rule="evenodd"/><path d="m26.3 64.35-.75 1-1.1.9-.1-.2-.05-.2.05-.05.25-.5q.55-.5 1.7-.95" fill="#d27827" fill-rule="evenodd"/><path d="m8.8 70.9-1.4-.75q-.95-.8-.95-3.05l.05-.85.9 1.8 1.4 2.85" fill="#b76b27" fill-rule="evenodd"/><path d="M8.85 72.2 5.9 70.75q-1.25-.85-1.25-1.1l.7-3.35.25-1.95.9 1.9-.05.85q0 2.25.95 3.05l1.4.75.05.05.35.8-.35.45" fill="#341a02" fill-rule="evenodd"/><path d="m9.8 79.45.85.2q-.4.25-.6.85l-.1.3-.15 1.3q-.6-.2-1.2-1.3l.45.2.55-.75.2-.8" fill="#5a3413" fill-rule="evenodd"/><path d="m34.55 86.65-.5.15-.55.15-.35.05-.9.25H32l-.9.2-.55.1-4.05.4-.5-.05 1.65.8 1.05.4h.1l2.45.55h.3l1.25-.35.5-.15.55-.25.25.3.15.25-1.55.6-1.1.15h-.5l-3.95-1-1.9-.65Q21.2 87.1 20.2 86.1l1.7.45 3.5.5 3.05-.15 1.95-.2.55-.05 1.5-.3.95-.2 1.8-.45v.05l.25.6-.8.3h-.1" fill="#650e00" fill-rule="evenodd"/><path d="m24.45 66.25 1.1-.9.75-1 1.4-.6 3.6-1.2.05.05-3.3 2.1-3 1.9-.55-.3-.05-.05" fill="#47280b" fill-rule="evenodd"/><path d="m32.9 87.8.7.75.25.35-.55.25-.5.15-1.25.35h-.3l-2.45-.55h-.1l-.2-.2v-.2l.05-.1q.05-.4 1.2-.45l.9-.05 1.8-.2.45-.1" fill="#ff8977" fill-rule="evenodd"/><path d="m32.25 87.25.55.45.1.1-.45.1-1.8.2-.9.05q-1.15.05-1.2.45l-.05.1v.2l.2.2-1.05-.4-1.65-.8.5.05 4.05-.4.55-.1.9-.2h.25" fill="#fe2100" fill-rule="evenodd"/><path d="m34.3 88 .1.1.7.95-.35-1.5-.2-.8v-.1h.1l.8-.3q.65 1.7.65 3.55l-.1 1.2-.05.3-.15.85-.25-.65-1.3-2.15-.15-.25-.25-.3-.25-.35-.7-.75-.1-.1-.55-.45.9-.25.25.2.65.5.1.1.15.2" fill="#fcffef" fill-rule="evenodd"/><path d="M34.55 86.65v.1l.2.8.35 1.5-.7-.95-.1-.1-.25-1.2.5-.15" fill="#6dd7a5" fill-rule="evenodd"/><path d="m34.05 86.8.25 1.2-.15-.2-.1-.1-.65-.5-.25-.2.35-.05.55-.15" fill="#98fecf" fill-rule="evenodd"/><path d="M96 36.75q1.95-.9 4.2-1.85 7.35-3.6 7.35-6.2 0-2.2-1.8-4.8v-.05l-1.85-2.2.55-.1 3.1-.25q4.95 0 8.6 6.25 3.45 6 3.45 13.5 0 9.85-5.95 16.65-5.3 6-12.05 6.4h-.9l-2.65-.45-.45-.1-1.45-.65-.5-.3-.15-.05-1.6-.75 2-1.7q1.6-1.45 2.15-2.5l.25-.95q0-2.95-1.75-4.7-1.8-1.9-5.25-1.9-2.5 0-5.2 3.3-2.8 3.45-2.8 7.1 0 3.3 2.05 4.9 2 1.6 5.9 1.6l1.35-.1 1.2-.2-.55 1.15q-.85 1.65-2.65 3.05l-.95.7q-3.7 2.5-7.95 2.5-3.35 0-5.9-1.2h-.05l-.45-.25-1.35-.85q-1.2-.9-2.05-2.05l-.5-.75q-.8-1.45-1.05-3.2l.3-.25.3 1.1.45.95q1 1.7 3.1 2.95l.55.35q2.85 1.5 5.95 1.8l1.2.05 4.9-.75 2.15-1.05.6-.45 2.85-2.75-6.5-.4-.25-.1q-3.85-1.4-3.85-6.6 0-3.95 2.1-7.15l1.25-1.6q2.7-2.75 7.1-2.75 3 0 4.9 1.4 2.1 1.45 2.1 4.2 0 2.3-.8 3.9l-.25.4q-.8 1.35-2.5 2.6l1.85.3.35.05 2.15.25.85.05 4.25-.55q4.6-1.35 7.55-5.75 4-5.9 4-15.75 0-7.2-2.65-11.6-2.45-4-6.8-5.4l2 2.7.3 1.05.1 1.65q0 1.75-1.95 3.55-2.2 2-6.7 4.1l-7.2 3q-4.95 2.1-8.05 3.55l-.8.45-2.7 1.5q-4.85 2.8-8.8 6.4l-2.3 2.2-1.65 1.8-.6.7q-6.3 7.45-7.3 15.25l-.1 1.15.55-.7.95-1.05.15-.1q1.2-1.15 3-2.6l3.7-2.6.2.55Q67.4 68.1 65.4 70.1l-.5.5-1.7 2q-.85 1.1-1.45 2.3l-1.1 2.35-.15-2.55.1-2.4q.8-10.4 8.6-18.75l1.5-1.6 2.5-2.15q4.25-3.6 9.95-6.75l.85-.45 1.7-.9q1.25-.65 2.75-1.4l6.5-3.05 1.05-.5" fill="#466400" fill-rule="evenodd"/><path d="m105.45 61.7-4.25.55-.85-.05q6.25-3.35 9.75-8.4 4.1-5.9 4.1-13.75 0-2.2-.55-4.65-.7-2.7-1.65-3.4l-3.8 2.5-2.25 1.35q1.5-1.45 2.05-3.7 1.95-1.8 1.95-3.55l-.1-1.65 2.35 2.7q3.85 5.15 3.85 9.75 0 6.4-2.6 12.25-2.75 6.1-8 10.05M87.1 71.95l-4.9.75-1.2-.05q1.4-.4 3-1.3 2.35-1.3 2.9-2.15l-.1-.05-.05-.1q-1.35-.25-3.05-1.65-1.75-1.3-2.2-2.75 1 1.95 3.6 3l1.7.6 3.5.4h.4l-1.25 1.55-1.05.9-1.3.85m-15.7-4.4-.45-.95-.3-1.1-.3.25-.2-.55-3.7 2.6q-1.8 1.45-3 2.6l-.1-.05q.45-3.15 2.5-5.2 1.65-1.65 5.45-3.35l-.4 1.95.4 3.1.1.7" fill="#78ba4b" fill-rule="evenodd"/><path d="M74.5 70.5q-2.1-1.25-3.1-2.95l-.1-.7-.4-3.1.4-1.95.05-.2.4-1.35q1-2.9 1.7-3.4l.1.1-.95 2.75q-.3 1.2-.3 3.25 0 2.3.6 3.7v.05l.1.05 1.5 3.75M108 32.15q-.55 2.25-2.05 3.7l-.4.2.05.05q-1 .9-2.85 1.65l-2.45 1.05-.65.35q-1.95 1.05-6.75 3.1-5.6 2.45-8.9 4.4Q73.2 53 68.75 58.3q-4.25 5.1-6.4 13.25l-.55.7.1-1.15q1-7.8 7.3-15.25l.6-.7 1.65-1.8 2.3-2.2q3.95-3.6 8.8-6.4l2.7-1.5.8-.45q3.1-1.45 8.05-3.55l7.2-3q4.5-2.1 6.7-4.1" fill="#ffecfb" fill-rule="evenodd"/><path d="m100.35 62.2-2.15-.25q4.45-1.8 8.2-7.75 4.75-7.5 4.75-15.65l-.15-2.1q-7.95 2.15-11.35 2.7l.65-.35 2.45-1.05q1.85-.75 2.85-1.65l.35-.25 2.25-1.35L112 32q.95.7 1.65 3.4.55 2.45.55 4.65 0 7.85-4.1 13.75-3.5 5.05-9.75 8.4M81 72.65q-3.1-.3-5.95-1.8l-.55-.35-1.5-3.75.7.55 1.9 1.45.05.05v-.15l-1.15-1.7v-1.1l7.2 4.2h.05v-.1q-1.55-2.2-2.15-3.65-.9-2.15-.9-4.7 0-3.55 1.95-6.25 1.65-2.25 3.3-2.4-1 .95-1.75 2.7-1.3 2.95-1.3 6.25 0 1.5.6 2.75.45 1.45 2.2 2.75 1.7 1.4 3.05 1.65l.05.1.1.05q-.55.85-2.9 2.15-1.6.9-3 1.3" fill="#b9e449" fill-rule="evenodd"/><path d="m98.2 61.95-.35-.05-1.85-.3q1.7-1.25 2.5-2.6l.25-.4q.8-1.6.8-3.9 0-2.75-2.1-4.2-1.9-1.4-4.9-1.4-4.4 0-7.1 2.75-.7.3-1.35.9l-.15.2q-1.65.15-3.3 2.4-1.95 2.7-1.95 6.25 0 2.55.9 4.7.6 1.45 2.15 3.65l-.05.1-7.2-4.2v1.1l1.15 1.7-.05.1-1.9-1.45-.7-.55-.1-.1q-.6-1.4-.6-3.7 0-2.05.3-3.25l.95-2.75v-.15l-.1.05q-.7.5-1.7 3.4l-.4 1.35-.05.2q-3.8 1.7-5.45 3.35-2.05 2.05-2.5 5.2l-.05.15-.95 1.05q2.15-8.15 6.4-13.25Q73.2 53 84 46.65q3.3-1.95 8.9-4.4 4.8-2.05 6.75-3.1 3.4-.55 11.35-2.7l.15 2.1q0 8.15-4.75 15.65-3.75 5.95-8.2 7.75" fill="#dfff77" fill-rule="evenodd"/><path d="m47.45 59.85 4.6-1.7q1.55 1.85 2.85 4.4l1.25 2.8-.8.15-1.05-1.75q-1.75-2.3-3.1-2.3l-2.6.6-1.15-2.2" fill="#2f5d48" fill-rule="evenodd"/><path d="m55.35 65.5-2.35.45-.15-.3q-1.2-1.9-2.65-1.9l-.9.25-.1-.2-.6-1.75 2.6-.6q1.35 0 3.1 2.3l1.05 1.75" fill="#416f59" fill-rule="evenodd"/><path d="M45.15 83.6q3.55-1 5.95-4.45 2.85-4.05 2.85-9.8 0-1.8-.95-3.4l2.35-.45q.9 1.75.9 3.65 0 5.75-2.85 9.5-2.85 3.8-9.85 7.6l-.1.05-1.25-.05.6-.5 2.35-2.15" fill="#96fece" fill-rule="evenodd"/><path d="m49.3 64 .9-.25q1.45 0 2.65 1.9l.15.3-3.15.65-.55-2.6m-10 4.15q1.05.25 1.85 1.05v.05l-1.1.4-1.05.4q-2.65 1-4.6 2.05V72q0-1.65 1.15-2.8 1-.95 2.3-1.1l.5-.05.95.1" fill="#6f6f68" fill-rule="evenodd"/><path d="M43.55 86.25q7-3.8 9.85-7.6 2.85-3.75 2.85-9.5 0-1.9-.9-3.65l.8-.15q1.15 3 1.15 5.45 0 6.6-4.7 11.25-4.2 4.25-9.05 4.25v-.05" fill="#6dd7a5" fill-rule="evenodd"/><path d="M53 65.95q.95 1.6.95 3.4 0 5.75-2.85 9.8-2.4 3.45-5.95 4.45l2.2-2.4q1.9-2.45 2.5-4.95l.4-3.85-2.1.55-3.1.3h-.2L43 73q-.55-.25-.7-.8V72l-.05-.65-.05.35.1.5q-.1 1.5-1.15 2.55l-.55.5q-.8.55-1.85.65h-.4q-1.65 0-2.8-1.15-1.1-1.1-1.15-2.65 1.95-1.05 4.6-2.05l1.05-.4 1.1-.4q.95.9 1.1 2.1.25-1.6 2.85-2.4l.1-.05 3.25-.65 1.65-.2-.25-1.45 3.15-.65" fill="#fcfcfd" fill-rule="evenodd"/><path d="m49.3 64 .55 2.6-1.45.4-.4-2.65-.4-1.35-.25-.6-1.2-1.95 1.3-.6 1.15 2.2.6 1.75.1.2" fill="#1b0401" fill-rule="evenodd"/><path d="m35.25 66 1.5-.85q1.45 1.1 2.45 2.85l.1.15-.95-.1-.5.05q-.85-1.05-2.6-2.1m7.55-4.05 3.35-1.5 1.2 1.95.25.6.4 1.35.4 2.65-3.4.95q-.4-2.25-1.5-4.6l-.7-1.4" fill="#2c0600" fill-rule="evenodd"/><path d="m48.45 68.25-3.25.65-.1.05-.1-1 3.4-.95.05 1.25m-3.6 5h.2l3.1-.3q-1.45 8.5-9.7 12.65-1.65-.45-3.1-1.25 2.2-1 4.45-2.95 4.1-3.55 5.05-8.15m-4.25 2q-.45 1.8-1.95 3.6-2.45 2.9-6.5 3.55l-1.4-1.1-.45-.35q4.65-.25 7.15-3.1.85-.95 1.3-1.95 1.05-.1 1.85-.65" fill="#650e00" fill-rule="evenodd"/><path d="M36.75 65.15q3.05-1.75 6.05-3.2l.7 1.4q1.1 2.35 1.5 4.6l-.35.1-3.5 1.2v-.05q-.8-.8-1.85-1.05l-.1-.15q-1-1.75-2.45-2.85" fill="#6c3913" fill-rule="evenodd"/><path d="M45.1 68.95q-2.6.8-2.85 2.4-.15-1.2-1.1-2.1l3.5-1.2.35-.1.1 1m-2.8 3.25q.15.55.7.8l1.85.25q-.95 4.6-5.05 8.15-2.25 1.95-4.45 2.95-1.7-.8-3.2-1.95 4.05-.65 6.5-3.55 1.5-1.8 1.95-3.6l.55-.5q1.05-1.05 1.15-2.55" fill="#f65f1e" fill-rule="evenodd"/><path d="m45.15 83.6-2.35 2.15-.6.5-3.75-.65q8.25-4.15 9.7-12.65l2.1-.55-.4 3.85q-.6 2.5-2.5 4.95l-2.2 2.4" fill="#3e0a02" fill-rule="evenodd"/><path d="m24.95 72.25 7.6-4.6 2.7-1.65q1.75 1.05 2.6 2.1-1.3.15-2.3 1.1-1.15 1.15-1.15 2.8v.1q.05 1.55 1.15 2.65 1.15 1.15 2.8 1.15h.4q-.45 1-1.3 1.95-2.5 2.85-7.15 3.1-4.15-3.85-5.35-8.7" fill="#000615" fill-rule="evenodd"/><path d="m42.2 86.25 1.25.05h.1q4.85 0 9.05-4.25 4.7-4.65 4.7-11.25 0-2.45-1.15-5.45l-1.25-2.8q-1.3-2.55-2.85-4.4l-4.6 1.7-1.3.6-3.35 1.5q-3 1.45-6.05 3.2l-1.5.85-2.7 1.65-7.6 4.6q1.2 4.85 5.35 8.7l.45.35 1.4 1.1q1.5 1.15 3.2 1.95 1.45.8 3.1 1.25l3.75.65m-31.55-10.6 2.3 1.25.8.05q2.5 0 7.8-2.8l3.4-1.9m27.1-14.1q8.5-2.8 16-2.65" fill="none" stroke="#502a0a" stroke-linecap="square" stroke-linejoin="miter-clip" stroke-miterlimit="3"/></g><g id="r" fill-rule="evenodd"><path d="m11.9 19.95.95-1 .75-1.1v.4q-1.65 4.55-2.55 5.6-1.5 1.65-5 1.65l-1.55-.3h.05l2.05-1.35.85-.2 1-.4 2.5-1.45q.55-.5.95-1.85m3.15 1.15q-.25.7-.25 1.95l-.65-1.6 1-1.05-.05.2-.05.5m-1-14.85-2.15-1.5q-2.6-1.4-4.4-1.4l-3.4.55-3.35.6-.35-.25-.15-.2q0-.3 1.9-1.45l1.65-.85.95.2 1.1-.1q2.75 0 6.25 2.65l1.95 1.75M5.9 13.5l.7-1.35q-.75.2-1.8 1.05l-.05-.35q0-1.75.9-2.95.8-1.05 1.7-1.05 1.15 0 1.75 1.35.4.9.4 1.85 0 1.05-1 1.4l-1.8.2-.8-.15" fill="#ffe6bf"/><path d="M1.75 9.65V9.6L2.9 6.35q0-.6-1.35-1.4l-.8-.45 3.35-.6 3.4-.55q1.8 0 4.4 1.4l2.15 1.5q1.25 1.3 1.85 2.9.7 1.7.7 3.65 0 2.3-1.9 6.05l-1.05 2.05-1.45 2.55v.05l1.45-1.6.5-.45.65 1.6q0-1.25.25-1.95v.45q0 1.2.35 2.15l-.55.7-.05.1-.55 1.05q-1.1 2.3-1.1 4.65v.05l-.3.35-1.7 1.6-1.25-1.6h.4l.95-.8-2.4.05q-2.15-.3-4.05-1.9-2.35-1.95-3.25-4.7l.85.3 2.15.55 2.05-.25-2.05 1.35H4.5l1.55.3q3.5 0 5-1.65.9-1.05 2.55-5.6v-.4l-.75 1.1-.95 1 .05-.3q.6-2.15.6-5.35 0-4.4-1.95-6.25-1.75-1.7-5.55-1.7-.45 0-1.9 1.55l-1.4 1.75" fill="#518c44"/><path d="M1.55 23.25q.9 2.75 3.25 4.7 1.9 1.6 4.05 1.9l2.4-.05-.95.8h-.4l1.25 1.6 1.7-1.6.3-.35h.05L14.6 29l1.65 1.7.7-2.4.05-.35.25-1.55-1.5-2.05-.35-.65q-.35-.95-.35-2.15v-.45l.05-.5.05-.2-1 1.05-.5.45-1.45 1.6v-.05l1.45-2.55 1.05-2.05q1.9-3.75 1.9-6.05 0-1.95-.7-3.65-.6-1.6-1.85-2.9L12.1 4.5Q8.6 1.85 5.85 1.85l-1.1.1-.95-.2-.2-.15q.35-.3 1.35-.85Q6.25 0 6.45 0q5.35 0 9.05 5.4 3 4.35 3 8.25 0 1.7-.6 3.15-.65 1.45-1.45 1.55v.85q.2 1.45.75 2.9l1 2.1.1.2-.25 1.15-.3 1.45-.05.25-.05.25-.05.15-.15 1.1-.1.25-.1.65-.25 1.9-.05.85h-.15l-2-2.05-1.5 1.45-2.05 1.5-.8-1.15-.1-.15-.35-.4-1.1-1.15-.4-.15-1.05.95-.7.7-.9-1.5-.65-.35q-2.35-1.35-3.5-3.05-1.7-2.4-1.7-6.2l.05-1.5.6-1.9v-.1l.15-.3q.35-.9.8-1.4l.05-.05-.4 1.2-.05.1q-.3 1.25-.3 2.25v.05l.05.5q.05 1.9.6 3.55" fill="#1b551d"/><path d="m1.75 9.65 1.4-1.75q1.45-1.55 1.9-1.55 3.8 0 5.55 1.7 1.95 1.85 1.95 6.25 0 3.2-.6 5.35l-.05.3q-.4 1.35-.95 1.85l-2.5 1.45-1 .4-.85.2-2.05.25-2.15-.55-.85-.3Q1 21.6.95 19.7l-.05-.5v-.05q0-1 .3-2.25l.65-.4q.35 0 .35 1.5-.05 2.45.15 3.65l.05-.05.45-1.2.2 1.35q.25.9 1.5.9l2.7-.55q2.1-.75 2.1-2.15.05-1.2 1-5.6l1.05-4.1q0-.7-1.2-1.65-1.35-1.15-2.75-1.15-1.45 0-1.9.9L4.6 10.2h-.05q-.75.55-2.2 2.9Q.85 15.6.7 17.05l-.05.3v.05L.6 16.25q0-3.3 1.1-6.5l.05-.1M14.8 24.5l.05-.1.55-.7.35.65 1.5 2.05-.25 1.55-1.05-1.75-1.15-1.7" fill="#92d353"/><path d="M13.15 30.2q0-2.35 1.1-4.65l.55-1.05 1.15 1.7L17 27.95l-.05.35-.7 2.4L14.6 29l-1.4 1.25-.05-.05m-8.55-20 .95-1.85q.45-.9 1.9-.9 1.4 0 2.75 1.15 1.2.95 1.2 1.65l-1.05 4.1q-.95 4.4-1 5.6 0 1.4-2.1 2.15l-2.7.55q-1.25 0-1.5-.9l-.2-1.35.45-1.05.9-2.05v.05l-.2 3.2.15-.2L5.7 17.2 7.55 14v-.05H7.5l-1.6 1.1-1.4 1.3v-.05l1.4-2.8.8.15 1.8-.2q1-.35 1-1.4 0-.95-.4-1.85-.6-1.35-1.75-1.35-.9 0-1.7 1.05-.9 1.2-.9 2.95l.05.35-.6.45q-1.5 1.25-1.85 2v-.05q.15-.6 1-2.65l.25-.7.35-.8.65-1.25" fill="#daff95"/><path d="m18.05 25.55.7.7q1.2 1 2.35 1.35l2.65.55q1.15.25 1.15.4l-1.65 1.65L25 31.7l-.9.75.1.8.05 1.2-.15 1.9v.05l-.65-1 .15.5.1.95q0 2.55-1.85 4.3-1.8 1.7-4.3 1.7l-.9-.05-.1-.05-.1-.05q-.6.7-1.5 1.1-.95.4-1.7.4-2.05 0-3.85-1l-1.3-.9-.15-.2q-1.3 0-2.75-1.2-1.7-1.5-1.7-3.35 0-2.15 1.3-3.75 1.25-1.6 2.65-1.45l.05-.45-.05-.65 1.05-.95.4.15.1 1.15.2 1.45-.6-.05-.8.1-.25.05q-.75.3-1.45.95-1.25 1.1-1.25 2.55l.15.85q.2.95 1 1.65.9.7 1.5.75h.05l-.15-.3-.05-.2-.05-.3.05-.4.05-.35.3-.75.65-1.05.8-.9.5-.4-.45.65-.25.55-.05.1-.1.35-.25 1.35q0 1.8 2.15 2.9l1.1.5 1.95.35 1.4-.2-.7-1.05q-.55-1.15-.55-2.4l.15-1 .55-1.25.2-.25.4-.55-.25.55-.15.3-.1.55-.1.85q0 1.6 1.15 2.85.9.95 1.45.95 1.3 0 2.45-.8l.75-.7q1.3-1.4 1.3-3 0-1.45-.35-2.1l-.7-1-.3-.5.3.2 1.2 1.1.05-.6.15-1.4-.15-.3-.8.05 1.15-1.1-1-.65.45-.45.5-.65h-.05l-2.45-.2q-1.1-.2-2.1-1.6l.05-.15.05-.25.05-.25.3-1.45" fill="#466400"/><path d="m2.85 20.4-.45 1.2-.05.05q-.2-1.2-.15-3.65 0-1.5-.35-1.5l-.65.4.05-.1.4-1.2-.05.05q-.45.5-.8 1.4H.7q.15-1.45 1.65-3.95 1.45-2.35 2.2-2.9l-.6 1.25-.35.8-.25.7q-.85 2.05-1 2.65v.1-.05q.35-.75 1.85-2l.6-.45q1.05-.85 1.8-1.05l-.7 1.35-1.4 2.8v.1-.05l1.4-1.3 1.6-1.1.05.05-1.85 3.2-1.55 3.15-.15.2.2-3.2v-.05l-.9 2.05-.45 1.05M8.9 30.45 10 31.6l.35.4.1.15v.55l-.1.5L9 31.6l-.1-1.15m2.3 4.6.3-.1.15-.05.2.05.2.2q.45.55.45 1.45l-.3 1.25-.65.5-.65-.45q-.35-.5-.35-1.15l.25-1.1.15-.3.25-.3M7.7 37.6l-.3-.5q-.35-.7-.35-1.25 0-.6.35-1.05l.8-.45q.4 0 .65.3l.3.75v.25l-.8.9-.65 1.05m8.5-1.85h.1l.4-.15 1 .25q.55.35.55 1.05l-.25.75-.7.45q-.4 0-.75-.45-.45-.45-.45-1.1l.1-.8" fill="#fff"/><path d="m10.45 32.15.8 1.15 2.05-1.5 1.5-1.45 2 2.05h.15l.05-.85.45-.45q.3-.3.55-.3.8 0 1.5 1.6.65 1.5.65 2.95 0 1.05-.5 2.2-.7 1.7-2.05 1.7-2.5 0-2.8-3.1l.15-.3.25-.55-.4.55-.2.25-.55 1.25-.45.85-.05.15-.5.9q-.5.6-1.2.6-.75 0-1.3-.55-.7-.75-.7-2 0-.8.15-1.25l.45-.8-1 .8-.55.5.05-.1.25-.55.45-.65-.5.4v-.25l-.3-.75q-.25-.3-.65-.3l-.8.45q-.35.45-.35 1.05 0 .55.35 1.25l.3.5-.3.75-.4-.9q-.25-.65-.25-1.65 0-.95.35-1.8l.45-.85.25-.05.8-.1.6.05L9 31.6l1.35 1.6.1-.5v-.55m.5 3.2-.15.3-.25 1.1q0 .65.35 1.15l.65.45.65-.5.3-1.25q0-.9-.45-1.45l-.2-.2-.2-.05-.15.05-.3.1h-.1q-.25.15-.15.3m5.25.4-.1.8q0 .65.45 1.1.35.45.75.45l.7-.45.25-.75q0-.7-.55-1.05l-1-.25-.4.15h-.1" fill="#fff882"/><path d="m17 31.55.25-1.9.4.45.35.25.8-.3 1.4-.25 1.2.2.3.1-.45.45 1 .65-1.15 1.1.8-.05.15.3-.15 1.4-.05.6-1.2-1.1-.3-.2.3.5.15 2.45q0 2.4-1.15 4.35-1.15.8-2.45.8-.55 0-1.45-.95-1.15-1.25-1.15-2.85l.1-.85.1-.55q.3 3.1 2.8 3.1 1.35 0 2.05-1.7.5-1.15.5-2.2 0-1.45-.65-2.95-.7-1.6-1.5-1.6-.25 0-.55.3l-.45.45m-9.45 1.6L7.1 34q-.35.85-.35 1.8 0 1 .25 1.65l.4.9-.05.35-.05.4.05.3-1.45-.95-.9-.95-.15-.85q0-1.45 1.25-2.55.7-.65 1.45-.95m1.35 3.4.55-.5 1-.8-.45.8q-.15.45-.15 1.25 0 1.25.7 2 .55.55 1.3.55.7 0 1.2-.6l.5-.9v.8q0 .8-.7 1.6l-1.05.9-1.1-.5q-2.15-1.1-2.15-2.9l.25-1.35.1-.35" fill="#cfaa53"/><path d="m17.25 29.65.1-.65.1-.25.15-1.1q1 1.4 2.1 1.6l2.45.2h.05l-.5.65-.3-.1-1.2-.2-1.4.25-.8.3-.35-.25-.4-.45m-3.7 8.7.05-.15.45-.85-.15 1q0 1.25.55 2.4l.7 1.05-1.4.2-1.95-.35 1.05-.9q.7-.8.7-1.6v-.8M5 37.5l.9.95 1.45.95.05.2.15.3H7.5q-.6-.05-1.5-.75-.8-.7-1-1.65m14.65 3.05q1.15-1.95 1.15-4.35l-.15-2.45.7 1q.35.65.35 2.1 0 1.6-1.3 3l-.75.7" fill="#f7e09b"/></g><use ffdec:characterId="2" height="29.2" width="15.35" xlink:href="#k" id="c"/><use ffdec:characterId="4" height="28.15" width="27.45" xlink:href="#l" id="d"/><use ffdec:characterId="6" height="48" width="56.6" xlink:href="#m" id="e"/><use ffdec:characterId="8" height="34.3" width="34.5" xlink:href="#n" id="f"/><use ffdec:characterId="10" height="23.85" width="48.8" xlink:href="#o" id="g"/><use ffdec:characterId="12" height="57.6" transform="translate(.9 14.5)" width="68.85" xlink:href="#p" id="h"/><use ffdec:characterId="19" height="96.7" width="119.6" xlink:href="#q" id="i"/><use ffdec:characterId="25" height="44.2" width="25" xlink:href="#r" id="j"/><path d="M27.75 0q0 2-8.15 3.4Q11.5 4.9 0 4.9q-11.5 0-19.65-1.5-8.1-1.4-8.1-3.4 0-2.05 8.1-3.5Q-11.5-4.9 0-4.9q11.5 0 19.6 1.4 8.15 1.45 8.15 3.5" fill-opacity=".349" fill-rule="evenodd" transform="translate(27.75 4.9)" id="b"/></defs></svg>