<svg xmlns:ffdec="https://www.free-decompiler.com/flash" xmlns:xlink="http://www.w3.org/1999/xlink" ffdec:objectType="frame" height="100" width="100" xmlns="http://www.w3.org/2000/svg"><use ffdec:characterId="23" height="161.65" transform="matrix(.5835 0 0 .5833 -7.63 5.7)" width="187.9" xlink:href="#a"/><use ffdec:characterId="24" height="126" transform="scale(1 .7937)" width="100" xlink:href="#b"/><defs><g id="a" transform="translate(12.05 1.2)"><use ffdec:characterId="1" height="30.9" transform="matrix(.99 0 0 .99 38 129.85)" width="86.5" xlink:href="#c"/><use ffdec:characterId="2" height="21.8" transform="matrix(.99 0 0 .99 42.91 123.21)" width="24.4" xlink:href="#d"/><use ffdec:characterId="3" height="44.3" transform="matrix(.99 0 0 .99 48.91 98.01)" width="72.05" xlink:href="#e"/><use ffdec:characterId="4" height="30.9" transform="matrix(.99 0 0 .99 13.91 86.11)" width="38.45" xlink:href="#f"/><use ffdec:characterId="5" height="38.9" transform="matrix(.99 0 0 .99 46.56 85.56)" width="70.7" xlink:href="#g"/><use ffdec:characterId="6" height="74" transform="matrix(.99 0 0 .99 108.31 4.01)" width="65.8" xlink:href="#h"/><use ffdec:characterId="7" height="71.05" transform="matrix(.99 0 0 .99 .06 14.11)" width="51.1" xlink:href="#i"/><use ffdec:characterId="8" height="30" transform="matrix(.99 0 0 .99 75.383 96.51)" width="22.5" xlink:href="#j"/><use ffdec:characterId="9" height="90.75" transform="matrix(.99 0 0 .99 29.06 13.91)" width="95.05" xlink:href="#k"/><use ffdec:characterId="10" height="34.75" transform="translate(36.5 40.25) scale(.9469)" width="74.75" xlink:href="#l"/><clipPath id="m" transform="translate(36.5 40.25) scale(.9469)"><path d="M57.2 2.05q1.1-.65 2.3-1.1 5.65-2.15 10.2.6 4.5 2.7 5 9.1.45 6.4-2.9 12.85l-1.35 2.25q1.15-5.15.8-12.5-1-13.3-14.05-11.2" fill="#c2e0e0" fill-rule="evenodd"/><path d="M70.45 25.75q-3.15 4.8-7.75 7.45-5.75 3.15-10.95 0Q46.5 30.05 46 22.95q-.55-7.15 3.65-13.55 3.3-4.95 7.55-7.35 13.05-2.1 14.05 11.2.35 7.35-.8 12.5M20.6 8.85q.95 2.75.9 6.05-.05 6.05-3.1 10.45-2.9 4.15-7.65 4.1-6.5-1.5-8.15-10.55Q1.45 7.35 8.5 3.7q5.25-2.35 12.1 5.15" fill="#e2fcfb" fill-rule="evenodd"/><path d="M10.75 29.45h-.55q-5.15-.3-7.65-3.55Q0 22.65 0 16.5q-.05-6.2 2.2-10.9Q4.4.9 9.85.8q5.4-.15 8.55 3.95 1.4 1.85 2.2 4.1-6.85-7.5-12.1-5.15-7.05 3.65-5.9 15.2 1.65 9.05 8.15 10.55" fill="#bfdfdc" fill-rule="evenodd"/></clipPath><g clip-path="url(#m)"><use ffdec:characterId="11" height="34.6" transform="translate(42.466 43.043) scale(.9469)" width="61.2" xlink:href="#n"/></g><use ffdec:characterId="12" height="36.75" transform="translate(35.553 39.303) scale(.9469)" width="76.75" xlink:href="#o"/><use ffdec:characterId="13" height="30.8" transform="matrix(.99 0 0 .99 45.71 .21)" width="22.6" xlink:href="#p"/><use ffdec:characterId="14" height="32.25" transform="matrix(.99 0 0 .99 88.86 -1.19)" width="18.1" xlink:href="#q"/><use ffdec:characterId="15" height="28.15" transform="matrix(.99 0 0 .99 88.56 118.91)" width="25.95" xlink:href="#r"/><use ffdec:characterId="16" height="16.5" transform="matrix(.99 0 0 .99 45.96 72.16)" width="13.7" xlink:href="#s"/></g><g id="d"><path d="m7.55.75 1.8 1.45q2.2 2.2 2.2 4.8 0 2.55-2.2 4-2.25 1.4-5.4.8Q1.7 11.45 0 10.25-.2 2.8 7.55.75m-.5 5.3q0-.85-.55-1.4-.55-.55-1.35-.55t-1.4.55q-.5.55-.5 1.4 0 .8.5 1.3.6.6 1.4.6.8 0 1.35-.6.55-.5.55-1.3" fill="#ccf3c7" fill-rule="evenodd" transform="translate(1 1)"/><path d="M7.05 6.05q0 .8-.55 1.3-.55.6-1.35.6t-1.4-.6q-.5-.5-.5-1.3 0-.85.5-1.4.6-.55 1.4-.55.8 0 1.35.55t.55 1.4" fill="#fff" fill-rule="evenodd" transform="translate(1 1)"/><path d="M7.55.75 13.4 0q5.55.9 8.05 10.4 2.45 9.45-1.35 9.4-18-1.6-19.1-4-.95-3.05-1-5.55 1.7 1.2 3.95 1.55 3.15.6 5.4-.8 2.2-1.45 2.2-4 0-2.6-2.2-4.8L7.55.75" fill="#75ac73" fill-rule="evenodd" transform="translate(1 1)"/><path d="M1 11.25q.05 2.5 1 5.55 1.1 2.4 19.1 4 3.8.05 1.35-9.4Q19.95 1.9 14.4 1l-5.85.75Q.8 3.8 1 11.25z" fill="none" stroke="#42643e" stroke-linecap="round" stroke-linejoin="round" stroke-width="2"/></g><g id="e"><path d="M70 16.7q-.35 7.85-6.8 14.8-10.15 9.95-25.7 10.55-18.1 1.7-27.95-9.15 2.9 1.25 5.9 1.9 10.05 7.7 23.35 4.6 1.2-.6 1.05-3.75-.15-3.15-1.05-3.5L35.85 32q4.35-1.95 8.85-5 6.8-.9 12.55-3l2.4-.95q3.35 4.75 5.8-3L70 16.7" fill="#9fb87e" fill-rule="evenodd" transform="translate(1 1)"/><path d="M2.3 20.6q4.2-6.35 10.6-10.35Q15.7 4.15 20.4 0h2.45l-8.5 15.1 3.1 4.65L12.4 22l-9.75-.55-.35-.85M59.2 0h5.5q1.9 2.95 3.1 5.75-5.9 5.15-12 8.3-4.25 2.2-8.55 3.4 2.1-3.35 1.85-8.5l6.7 5.1q1.45-8 3.4-14.05M9.55 32.9q-3.55-3.85-6-9.3 5.3 1.9 16.6.15l-1.5 3.9q1.25 3.8 4.75 7.6l4.9-.75q-1.15-5.55 0-5.85 9.95-.55 14.2-7.3 9.45-2.5 17.85-7.5 3.45-2.75 4.6 2.5-.05 2.7-7.7 7.65-5.75 2.1-12.55 3-4.5 3.05-8.85 5l2.95.15q.9.35 1.05 3.5.15 3.15-1.05 3.75-13.3 3.1-23.35-4.6l7.95.45-7.95-.45q-3-.65-5.9-1.9m50.1-9.85q3.05-1.3 5.8-3-2.45 7.75-5.8 3M28.3 34.5q3.7-.8 7.55-2.5-3.85 1.7-7.55 2.5" fill="#e0f6b6" fill-rule="evenodd" transform="translate(1 1)"/><path d="M2.3 20.6Q.95 16.9 0 12.65L3.8 0h16.6q-4.7 4.15-7.5 10.25-6.4 4-10.6 10.35M22.85 0H59.2q-1.95 6.05-3.4 14.05l-6.7-5.1q.25 5.15-1.85 8.5 4.3-1.2 8.55-3.4 6.1-3.15 12-8.3 2.5 5.7 2.2 10.95l-4.55 3.35q-2.75 1.7-5.8 3l-2.4.95q7.65-4.95 7.7-7.65-1.15-5.25-4.6-2.5-8.4 5-17.85 7.5-4.25 6.75-14.2 7.3-1.15.3 0 5.85l-4.9.75q-3.5-3.8-4.75-7.6l1.5-3.9q-11.3 1.75-16.6-.15l-.9-2.15 9.75.55 5.05-2.25-3.1-4.65L22.85 0m24.4 17.45q-8.4 2.25-17 .75Q22.5 21.85 12.4 22q10.1-.15 17.85-3.8 8.6 1.5 17-.75" fill="#a3b581" fill-rule="evenodd" transform="translate(1 1)"/><path d="M21.4 1H4.8L1 13.65q.95 4.25 2.3 7.95l.35.85.9 2.15q2.45 5.45 6 9.3 9.85 10.85 27.95 9.15 15.55-.6 25.7-10.55 6.45-6.95 6.8-14.8.3-5.25-2.2-10.95-1.2-2.8-3.1-5.75H21.4" fill="none" stroke="#556039" stroke-linecap="round" stroke-linejoin="round" stroke-width="2"/><path d="M12.4 22q10.1-.15 17.85-3.8 8.6 1.5 17-.75 4.3-1.2 8.55-3.4 6.1-3.15 12-8.3m-2.35 14.3L70 16.7M57.25 24l2.4-.95q3.05-1.3 5.8-3M35.85 32q4.35-1.95 8.85-5 6.8-.9 12.55-3m-21.4 8Q32 33.7 28.3 34.5l-4.9.75-7.95-.45q-3-.65-5.9-1.9m-6.9-11.45 9.75.55" fill="none" stroke="#556039" stroke-linecap="round" stroke-linejoin="round" transform="translate(1 1)"/></g><g id="f"><path d="M11 7.1.9 15.05q-.6.45-.9 2.5l.05-2.75Q5.9 10.35 11 7.1" fill="#dadee0" fill-rule="evenodd" transform="translate(1 1)"/><path d="M11 7.1q2.75-.25 2.15 1.1-.4 1.05-3.55 3.95l-6.05 6Q1.6 19.8 0 18.35v-.8q.3-2.05.9-2.5L11 7.1" fill="#7c8991" fill-rule="evenodd" transform="translate(1 1)"/><path d="M0 18.35q1.6 1.45 3.55-.2l6.05-6q3.15-2.9 3.55-3.95.6-1.35-2.15-1.1Q18.7 2.15 24.85 0l2.8 4.1Q9 11.6 1.6 27.7.05 25.6 0 18.35" fill="#51566a" fill-rule="evenodd" transform="translate(1 1)"/><path d="M1 18.55v.8q.05 7.25 1.6 9.35Q10 12.6 28.65 5.1L25.85 1Q19.7 3.15 12 8.1q-5.1 3.25-10.95 7.7L1 18.55z" fill="none" stroke="#2f3437" stroke-linecap="round" stroke-linejoin="round" stroke-width="2"/><path d="M7.5 24.55q-5.75-6.35 8-12.6 6.9-2.8 9.95-.55 2.15 1.95 1.75 5.05-.5 3.25-3.55 5.95-3.5 2.95-9.85 4.25l-3.2-.5q-1.75-.5-3.1-1.6" fill="#e5ffe2" fill-rule="evenodd" transform="translate(1 1)"/><path d="M4.3 19.65q.3-1.7 1.3-3.55 2.65-5 8.8-8.2 1.7-.85 3.35-1.5 5.35.5 8.6 3 3.2 2.45 2.75 5.8-1.05 7.1-8.95 10.35-3.5 1.15-6.35 1.1 6.35-1.3 9.85-4.25 3.05-2.7 3.55-5.95.4-3.1-1.75-5.05-3.05-2.25-9.95.55-13.75 6.25-8 12.6-2.1-1.7-3.2-4.9" fill="#caf0c9" fill-rule="evenodd" transform="translate(1 1)"/><path d="M17.75 6.4q4.5-1.65 8.95-1.35 6.1.3 8.55 4.1 2.5 3.75-.15 8.65-2.6 4.9-8.8 8.1-6.15 3.3-12.25 2.95-6.15-.4-8.65-4.05-1.5-2.35-1.1-5.15 1.1 3.2 3.2 4.9 1.35 1.1 3.1 1.6l3.2.5q2.85.05 6.35-1.1 7.9-3.25 8.95-10.35.45-3.35-2.75-5.8-3.25-2.5-8.6-3" fill="#6b9d68" fill-rule="evenodd" transform="translate(1 1)"/><path d="M5.3 20.65q.3-1.7 1.3-3.55 2.65-5 8.8-8.2 1.7-.85 3.35-1.5 4.5-1.65 8.95-1.35 6.1.3 8.55 4.1 2.5 3.75-.15 8.65-2.6 4.9-8.8 8.1-6.15 3.3-12.25 2.95-6.15-.4-8.65-4.05-1.5-2.35-1.1-5.15z" fill="none" stroke="#42643e" stroke-linecap="round" stroke-linejoin="round" stroke-width="2"/></g><g id="g"><path d="M.8 20.1Q-.55 11.4.45 1.65 29.1-1.25 64.15.9l1.95 4.65q.4 12.35-10 10.9-2.25 2.6-5.85 4.85l-1.7-.85-1.2 2.45-2.7 1.25-5.7-2.8-4.8 3.35q-3.45-.3-9.15-3.75-8.55 7.65-12.8-.85-8.3 4.3-11.4 0" fill="#295a47" fill-rule="evenodd" transform="translate(1 1)"/><path d="M.8 20.1q3.1 4.3 11.4 0 4.25 8.5 12.8.85 5.7 3.45 9.15 3.75l4.8-3.35 5.7 2.8 2.7-1.25-4.2 8.4-3.95-6.25q-4.6.8-6.35 6.8-3.15-6.55-7.35-8.95-5.55 2.6-7.7 6.85l-6.3-7.7Q5.75 25.7 4.25 32.9 1.8 26.8.8 20.1m49.45 1.2q3.6-2.25 5.85-4.85 10.4 1.45 10-10.9 4.6 11.95 1 19.1-4.85-4.65-9.8-6.25l-1.9 8.2q-2.2-3.5-5.15-5.3" fill="#3c7d67" fill-rule="evenodd" transform="translate(1 1)"/><path d="M67.1 6.55 65.15 1.9Q30.1-.25 1.45 2.65q-1 9.75.35 18.45 1 6.7 3.45 12.8 1.5-7.2 7.25-10.85l6.3 7.7q2.15-4.25 7.7-6.85 4.2 2.4 7.35 8.95 1.75-6 6.35-6.8l3.95 6.25 4.2-8.4 1.2-2.45 1.7.85q2.95 1.8 5.15 5.3l1.9-8.2q4.95 1.6 9.8 6.25 3.6-7.15-1-19.1z" fill="none" stroke="#204636" stroke-linecap="round" stroke-linejoin="round" stroke-width="2"/><path d="M22.05 18.55q1.35-1.8 2.2-1.75.85 0 .5 1.8l-1.3 5.25q-.75 2.9-.85 6.1-.1 1.6-1.05 1.85-2.5-4.95.5-13.25" fill="#7f8593" fill-rule="evenodd" transform="translate(1 1)"/><path d="m22.05 18.55.7-1.45q3.75-6.9 10.95-13l2.65.2q-9.85 11.9-10.3 32.6-6.25-3.2-7.1-6.2.45 1 1.9 1.15l.7-.05q.95-.25 1.05-1.85.1-3.2.85-6.1l1.3-5.25q.35-1.8-.5-1.8-.85-.05-2.2 1.75" fill="#505960" fill-rule="evenodd" transform="translate(1 1)"/><path d="m21.55 31.8-.7.05q-1.45-.15-1.9-1.15.4-6.65 3.1-12.15-3 8.3-.5 13.25" fill="#dadee0" fill-rule="evenodd" transform="translate(1 1)"/><path d="M19.95 31.7q.85 3 7.1 6.2.45-20.7 10.3-32.6l-2.65-.2q-7.2 6.1-10.95 13l-.7 1.45q-2.7 5.5-3.1 12.15z" fill="none" stroke="#2f3437" stroke-linecap="round" stroke-linejoin="round" stroke-width="2"/></g><g id="h"><path d="M42.85 5.65q1.95 1.2 3.85 3.45 3.4 11.05 11.25 13.95 3.35 1.35-5.4 5.8l-2.3.4q-13.3 2-19.65-.45 7.05-1.5 12.9-5.2 4.4-2.65 1.75-6.9-3.6-7.45-2.4-11.05" fill="#e73950" fill-rule="evenodd" transform="translate(1 1)"/><path d="M46.7 9.1q1.85 2.25 3.65 5.45 3.9 6.35 13.45 8.65-1.5 3.5-11.25 5.65 8.75-4.45 5.4-5.8Q50.1 20.15 46.7 9.1" fill="#fff" fill-rule="evenodd" transform="translate(1 1)"/><path d="m41.3 4.75 1.55.9q-1.2 3.6 2.4 11.05 2.65 4.25-1.75 6.9-5.85 3.7-12.9 5.2l-2.15-1.15L41.3 4.75" fill="#9d2433" fill-rule="evenodd" transform="translate(1 1)"/><path d="m42.05 3.45-.75 1.3-12.85 22.9L3.4 72l-1.1-.05L35.15 9q2.15-3.5 1.05-5.05l1.7-3.1.05.75q.2.85.95 1.5.8.6 1.7.75.9.15 1.35-.3l.1-.1" fill="#898143" fill-rule="evenodd" transform="translate(1 1)"/><path d="M2.3 71.95Q-.15 71.55 0 69L36.2 3.95Q37.3 5.5 35.15 9L2.3 71.95" fill="#695e31" fill-rule="evenodd" transform="translate(1 1)"/><path d="m37.9.85.3-.55q.4-.4 1.35-.25.85.15 1.6.8.75.6 1 1.45.2.7-.1 1.15l-.1.1q-.45.45-1.35.3-.9-.15-1.7-.75-.75-.65-.95-1.5L37.9.85" fill="#baac4b" fill-rule="evenodd" transform="translate(1 1)"/><path d="m37.9.85.05.75q.2.85.95 1.5.8.6 1.7.75.9.15 1.35-.3l.1-.1m-13.6 24.2L41.3 4.75" fill="none" stroke="#524825" stroke-linecap="round" stroke-linejoin="round" transform="translate(1 1)"/><path d="m38.9 1.85.3-.55q.4-.4 1.35-.25.85.15 1.6.8.75.6 1 1.45.2.7-.1 1.15l-.75 1.3m-12.85 22.9L4.4 73l-1.1-.05Q.85 72.55 1 70L37.2 4.95l1.7-3.1" fill="none" stroke="#524825" stroke-linecap="round" stroke-linejoin="round" stroke-width="2"/><path d="m42.3 5.75 1.55.9q1.95 1.2 3.85 3.45 1.85 2.25 3.65 5.45 3.9 6.35 13.45 8.65-1.5 3.5-11.25 5.65l-2.3.4q-13.3 2-19.65-.45l-2.15-1.15" fill="none" stroke="#6d1b2c" stroke-linecap="round" stroke-linejoin="round" stroke-width="2"/></g><g id="i"><path d="M7.85 31.6Q3.9 31.65 0 29.2q6.75-5.5 9.4-10.55-.75 5.8-4.25 9.1-2.8 2.25 2.7 3.85" fill="#fff" fill-rule="evenodd" transform="translate(1 1)"/><path d="M27.05 26.8q-1.15-.7-3.3-.5-.75-1.35-3-1.6-7.9-.2-8.1-3.9.05-3.4 2.4-14.2l2.05-2.25 9.95 22.45" fill="#9d2433" fill-rule="evenodd" transform="translate(1 1)"/><path d="M20.45.95 21.8 3.9q-1.15 1.3.5 4.7l24.5 60.45-1.1-.05-18.65-42.2L17.1 4.35l-.6-1.4.1.1q.4.45 1.2.35.8 0 1.55-.5.85-.55 1.05-1.3l.05-.65" fill="#898143" fill-rule="evenodd" transform="translate(1 1)"/><path d="m21.8 3.9 27.3 62.6q-.1 2.3-2.3 2.55L22.3 8.6q-1.65-3.4-.5-4.7" fill="#695e31" fill-rule="evenodd" transform="translate(1 1)"/><path d="M16.5 2.95q-.3-.45 0-1.1.25-.7 1-1.2.8-.55 1.6-.65.8-.05 1.2.45l.15.5-.05.65q-.2.75-1.05 1.3-.75.5-1.55.5-.8.1-1.2-.35l-.1-.1" fill="#baac4b" fill-rule="evenodd" transform="translate(1 1)"/><path d="M23.75 26.3q-3.4.45-9.3 3.55-3.35 1.75-6.6 1.75-5.5-1.6-2.7-3.85 3.5-3.3 4.25-9.1.8-1.6 1.2-3.15 1.35-4.9 4.45-8.9-2.35 10.8-2.4 14.2.2 3.7 8.1 3.9 2.25.25 3 1.6" fill="#e73a4e" fill-rule="evenodd" transform="translate(1 1)"/><path d="M21.45 1.95 22.8 4.9l27.3 62.6q-.1 2.3-2.3 2.55L46.7 70 28.05 27.8M18.1 5.35l-.6-1.4q-.3-.45 0-1.1.25-.7 1-1.2.8-.55 1.6-.65.8-.05 1.2.45l.15.5" fill="none" stroke="#524825" stroke-linecap="round" stroke-linejoin="round" stroke-width="2"/><path d="M28.05 27.8q-1.15-.7-3.3-.5-3.4.45-9.3 3.55-3.35 1.75-6.6 1.75-3.95.05-7.85-2.4 6.75-5.5 9.4-10.55.8-1.6 1.2-3.15 1.35-4.9 4.45-8.9l2.05-2.25" fill="none" stroke="#6d1b2c" stroke-linecap="round" stroke-linejoin="round" stroke-width="2"/><path d="m20.45.95-.05.65q-.2.75-1.05 1.3-.75.5-1.55.5-.8.1-1.2-.35l-.1-.1M27.05 26.8 17.1 4.35" fill="none" stroke="#524825" stroke-linecap="round" stroke-linejoin="round" transform="translate(1 1)"/></g><g id="j"><path d="M7.75 24.35q3.45 1.35 8-1.85 4.65-3.25 6.65-8.85 1.9-5.35-.6-5.85-6.05-.65-11.9 6.1 2.05-4.85 6.15-10.45 2.1-2.9 5.6-3.35 3.6-.5 5.05 2.15 3.35 6.15-.75 14.2-1.7 3.35-4.35 5.8-2.45 2.2-6.7 4.55-2.7 1.5-4.65 1.1-1.85-.35-2.3-2.25l-.2-1.3" fill="#72a56c" fill-rule="evenodd" transform="translate(-6.7 1)"/><path d="M9.15 15.8q3.75-3.95 7.75-6l2.6-.9q1.5-.3 2.15.4.7.8.65 2.2-.1 1.6-1.1 3.25Q15.1 24.8 7.7 23.5q-.1-3.5 1.45-7.7" fill="#e5ffe2" fill-rule="evenodd" transform="translate(-6.7 1)"/><path d="M7.7 23.5q7.4 1.3 13.5-8.75 1-1.65 1.1-3.25.05-1.4-.65-2.2-.65-.7-2.15-.4l-2.6.9q-4 2.05-7.75 6l.7-1.85.05-.05q5.85-6.75 11.9-6.1 2.5.5.6 5.85-2 5.6-6.65 8.85-4.55 3.2-8 1.85l-.05-.85" fill="#caecc7" fill-rule="evenodd" transform="translate(-6.7 1)"/><path d="m1 24.5.05.85.2 1.3q.45 1.9 2.3 2.25 1.95.4 4.65-1.1 4.25-2.35 6.7-4.55 2.65-2.45 4.35-5.8 4.1-8.05.75-14.2Q18.55.6 14.95 1.1q-3.5.45-5.6 3.35-4.1 5.6-6.15 10.45m-.05.05-.7 1.85Q.9 21 1 24.5" fill="none" stroke="#42643e" stroke-linecap="round" stroke-linejoin="round" stroke-width="2"/></g><g id="k"><path d="M72.65 20.05v-.45q0-1.3-.8-2.3-7.1-19.4-46.8-8.05Q36.65 2.1 53.9.3q19.15-1.95 27.55 8.3 21.9 56.5-10.75 76.3-9.4 3.95-22.85 3.85l-8.9-.45q31.25.75 36.25-25.25l.3-.15q2.9-1.2 2.9-2.85 0-1.55-2.45-2.7.9-11.9-2.6-28.4.2-4.95-.7-8.9" fill="#75ac73" fill-rule="evenodd" transform="translate(1 1)"/><path d="M67.9 16.25q-.8.25-1.35.8-1.05 1.05-1.05 2.55 0 1.45 1.05 2.55l1.5.9-.95.2-6.05 1.1Q45.4 28.4 47.9 48.9q4.8 17.5 19.6 17 3.7-.35 1.8 4.85Q54.85 90.8 21.65 79.7q-16.9-5.55-16.9-16 .7-5.55 9.1-5.9 17.95-1.15 15.2-20.85Q26.45 26.5 17.5 24.8q-4.4-1-2.4-7.2l1.6-1.75q11.75 2 30.4-6.2 15.85-4.7 20.8 6.6M81.45 8.6l1.6 2.2q8.1 12.55 9.8 32.1 1.65 19.45-9.35 32.75-5 6-12.8 9.25 32.65-19.8 10.75-76.3M16 18.45q-.9.9-.9 2.2 0 1.3.9 2.2.9.9 2.2.9 1.3 0 2.2-.9.9-.9.9-2.2 0-1.3-.9-2.2-.9-.9-2.2-.9-1.3 0-2.2.9" fill="#e5ffe2" fill-rule="evenodd" transform="translate(1 1)"/><path d="M67.9 16.25q-4.95-11.3-20.8-6.6-18.65 8.2-30.4 6.2l3.45-3.15q2.3-1.85 4.9-3.45 39.7-11.35 46.8 8.05l-.25-.25Q70.55 16 69.1 16l-1.2.25M15.1 17.6q-2 6.2 2.4 7.2 8.95 1.7 11.55 12.15 2.75 19.7-15.2 20.85-8.4.35-9.1 5.9 0 10.45 16.9 16 33.2 11.1 47.65-8.95 1.9-5.2-1.8-4.85-14.8.5-19.6-17-2.5-20.5 13.15-24.55l6.05-1.1.95-.2 1.05.15q1.45 0 2.5-1.05.9-.95 1.05-2.1.9 3.95.7 8.9 3.5 16.5 2.6 28.4l-.45-.15Q72.65 56 68.6 56q-4.1 0-7 1.2-2.8 1.2-2.8 2.85 0 1.65 2.8 2.85 2.9 1.2 7 1.2 3.85 0 6.6-1.05-5 26-36.25 25.25-18.4-1.75-29.55-10.35Q-4.35 67.3 2 57.85l2.1-3.5q2.7-.25 4.75-1.1 2.95-1.2 2.95-2.85 0-1.7-2.95-2.9l-1.8-.6q.9-3.65.65-7.1-.6-8.5 1.75-14.2 2.55-4.5 5.65-8" fill="#cbf1c8" fill-rule="evenodd" transform="translate(1 1)"/><path d="M4.1 54.35q2.05-3.8 2.95-7.45l1.8.6q2.95 1.2 2.95 2.9 0 1.65-2.95 2.85-2.05.85-4.75 1.1m71.1 8.7q-2.75 1.05-6.6 1.05-4.1 0-7-1.2-2.8-1.2-2.8-2.85 0-1.65 2.8-2.85 2.9-1.2 7-1.2 4.05 0 6.9 1.2l.45.15q2.45 1.15 2.45 2.7 0 1.65-2.9 2.85l-.3.15" fill="#f9ae74" fill-rule="evenodd" transform="translate(1 1)"/><path d="m68.05 23.05-1.5-.9q-1.05-1.1-1.05-2.55 0-1.5 1.05-2.55.55-.55 1.35-.8l1.2-.25q1.45 0 2.5 1.05l.25.25q.8 1 .8 2.3v.45q-.15 1.15-1.05 2.1-1.05 1.05-2.5 1.05l-1.05-.15M16 18.45q.9-.9 2.2-.9 1.3 0 2.2.9.9.9.9 2.2 0 1.3-.9 2.2-.9.9-2.2.9-1.3 0-2.2-.9-.9-.9-.9-2.2 0-1.3.9-2.2" fill="#fff" fill-rule="evenodd" transform="translate(1 1)"/><path d="m17.7 16.85-1.6 1.75q-3.1 3.5-5.65 8Q8.1 32.3 8.7 40.8q.25 3.45-.65 7.1-.9 3.65-2.95 7.45L3 58.85q-6.35 9.45 7.4 20.1 11.15 8.6 29.55 10.35l8.9.45q13.45.1 22.85-3.85 7.8-3.25 12.8-9.25 11-13.3 9.35-32.75-1.7-19.55-9.8-32.1l-1.6-2.2Q74.05-.65 54.9 1.3q-17.25 1.8-28.85 8.95-2.6 1.6-4.9 3.45l-3.45 3.15z" fill="none" stroke="#42643e" stroke-linecap="round" stroke-linejoin="round" stroke-width="2"/></g><g id="l" fill-rule="evenodd"><path d="M57.2 2.05q1.1-.65 2.3-1.1 5.65-2.15 10.2.6 4.5 2.7 5 9.1.45 6.4-2.9 12.85l-1.35 2.25q1.15-5.15.8-12.5-1-13.3-14.05-11.2" fill="#c2e0e0"/><path d="M70.45 25.75q-3.15 4.8-7.75 7.45-5.75 3.15-10.95 0Q46.5 30.05 46 22.95q-.55-7.15 3.65-13.55 3.3-4.95 7.55-7.35 13.05-2.1 14.05 11.2.35 7.35-.8 12.5M20.6 8.85q.95 2.75.9 6.05-.05 6.05-3.1 10.45-2.9 4.15-7.65 4.1-6.5-1.5-8.15-10.55Q1.45 7.35 8.5 3.7q5.25-2.35 12.1 5.15" fill="#e2fcfb"/><path d="M10.75 29.45h-.55q-5.15-.3-7.65-3.55Q0 22.65 0 16.5q-.05-6.2 2.2-10.9Q4.4.9 9.85.8q5.4-.15 8.55 3.95 1.4 1.85 2.2 4.1-6.85-7.5-12.1-5.15-7.05 3.65-5.9 15.2 1.65 9.05 8.15 10.55" fill="#bfdfdc"/></g><g id="n"><path d="M52.45 20.9q-1.15-1.15-2.8-1.15t-2.8 1.15q-1.15 1.15-1.15 2.8t1.15 2.8q1.15 1.15 2.8 1.15t2.8-1.15q1.15-1.15 1.15-2.8t-1.15-2.8m5.2-8.3-.1.65q0 1.25.85 2.1.9.9 2.15.9l.9-.1q1.35 2.2 1.35 5.05 0 4.05-2.8 6.9-2.85 2.8-6.85 2.8-4.05 0-6.9-2.8-2.8-2.85-2.8-6.9 0-4.05 2.8-6.85 2.85-2.8 6.9-2.8 2.45 0 4.5 1.05" fill="#1c1d3b" fill-rule="evenodd" transform="translate(-6.3 -2.95)"/><path d="M57.65 12.6q-2.05-1.05-4.5-1.05-4.05 0-6.9 2.8-2.8 2.8-2.8 6.85t2.8 6.9q2.85 2.8 6.9 2.8 4 0 6.85-2.8 2.8-2.85 2.8-6.9 0-2.85-1.35-5.05l1.2-.8q.8-.75.9-1.85 2.05 3.05 2.05 6.95 0 5.15-3.65 8.75-3.65 3.65-8.9 3.65-5.2 0-8.85-3.65-3.65-3.6-3.65-8.75 0-5.2 3.65-8.85Q47.85 8 53.05 8q4.15 0 7.3 2.25-1.1.05-1.95.85-.6.65-.75 1.5" fill="#34315c" fill-rule="evenodd" transform="translate(-6.3 -2.95)"/><path d="M52.45 20.9q1.15 1.15 1.15 2.8t-1.15 2.8q-1.15 1.15-2.8 1.15t-2.8-1.15q-1.15-1.15-1.15-2.8t1.15-2.8q1.15-1.15 2.8-1.15t2.8 1.15" fill="#fffeff" fill-rule="evenodd" transform="translate(-6.3 -2.95)"/><path d="M63.55 13.5v-.25q0-1.25-.9-2.15-.85-.85-2.1-.85h-.2Q57.2 8 53.05 8q-5.2 0-8.85 3.6-3.65 3.65-3.65 8.85 0 5.15 3.65 8.75 3.65 3.65 8.85 3.65 5.25 0 8.9-3.65 3.65-3.6 3.65-8.75 0-3.9-2.05-6.95M43.2 9.65Q47.25 5 53.05 5t9.9 4.65Q67 14.35 67 21.05q0 6.65-4.05 11.3-4.1 4.7-9.9 4.7-5.8 0-9.85-4.7-4.05-4.65-4.05-11.3 0-6.7 4.05-11.4" fill="#5bfee9" fill-rule="evenodd" transform="translate(-6.3 -2.95)"/><path d="m61.45 16.15-.9.1q-1.25 0-2.15-.9-.85-.85-.85-2.1l.1-.65q.15-.85.75-1.5.85-.8 1.95-.85h.2q1.25 0 2.1.85.9.9.9 2.15v.25q-.1 1.1-.9 1.85l-1.2.8" fill="#fff" fill-rule="evenodd" transform="translate(-6.3 -2.95)"/><path d="M52.45 20.9q1.15 1.15 1.15 2.8t-1.15 2.8q-1.15 1.15-2.8 1.15t-2.8-1.15q-1.15-1.15-1.15-2.8t1.15-2.8q1.15-1.15 2.8-1.15t2.8 1.15M43.2 9.65Q47.25 5 53.05 5t9.9 4.65Q67 14.35 67 21.05q0 6.65-4.05 11.3-4.1 4.7-9.9 4.7-5.8 0-9.85-4.7-4.05-4.65-4.05-11.3 0-6.7 4.05-11.4z" fill="none" stroke="#121327" stroke-linecap="round" stroke-linejoin="round" transform="translate(-6.3 -2.95)"/><path d="M11.3 12.5q-1.1 1.8-1.1 4.1 0 3.3 2.3 5.6t5.55 2.3q3.3 0 5.6-2.3 2.25-2.3 2.25-5.6t-2.25-5.55q-2.3-2.3-5.6-2.3-2 0-3.65.85l.05.55q0 1-.7 1.7-.7.75-1.7.75l-.75-.1m7.3 3.85q.95-.9 2.3-.9 1.3 0 2.25.9.95.95.95 2.3 0 1.35-.95 2.25-.95.95-2.25.95-1.35 0-2.3-.95-.95-.9-.95-2.25t.95-2.3" fill="#1c1d3b" fill-rule="evenodd" transform="translate(-6.3 -2.95)"/><path d="M12.2 7.7q.9.05 1.55.7.5.55.65 1.2 1.65-.85 3.65-.85 3.3 0 5.6 2.3 2.25 2.25 2.25 5.55t-2.25 5.6q-2.3 2.3-5.6 2.3-3.25 0-5.55-2.3t-2.3-5.6q0-2.3 1.1-4.1l-1-.65q-.65-.6-.7-1.5-1.65 2.5-1.65 5.65 0 4.2 2.95 7.1 2.95 2.95 7.2 2.95t7.2-2.95q2.95-2.9 2.95-7.1 0-4.25-2.95-7.2-2.95-2.9-7.2-2.9-3.35 0-5.9 1.8" fill="#34315c" fill-rule="evenodd" transform="translate(-6.3 -2.95)"/><path d="M18.6 16.35q-.95.95-.95 2.3 0 1.35.95 2.25.95.95 2.3.95 1.3 0 2.25-.95.95-.9.95-2.25t-.95-2.3q-.95-.9-2.25-.9-1.35 0-2.3.9" fill="#fffeff" fill-rule="evenodd" transform="translate(-6.3 -2.95)"/><path d="M12.2 7.7q2.55-1.8 5.9-1.8 4.25 0 7.2 2.9 2.95 2.95 2.95 7.2 0 4.2-2.95 7.1-2.95 2.95-7.2 2.95t-7.2-2.95Q7.95 20.2 7.95 16q0-3.15 1.65-5.65v-.2q0-1 .7-1.75.7-.7 1.75-.7h.15m13.9-.45q-3.25-3.8-8-3.8-4.7 0-8 3.8T6.8 16.5q0 5.4 3.3 9.15 3.3 3.85 8 3.85 4.75 0 8-3.85 3.3-3.75 3.3-9.15 0-5.45-3.3-9.25" fill="#5bfee9" fill-rule="evenodd" transform="translate(-6.3 -2.95)"/><path d="M14.4 9.6q-.15-.65-.65-1.2-.65-.65-1.55-.7h-.15q-1.05 0-1.75.7-.7.75-.7 1.75v.2q.05.9.7 1.5l1 .65.75.1q1 0 1.7-.75.7-.7.7-1.7l-.05-.55" fill="#fff" fill-rule="evenodd" transform="translate(-6.3 -2.95)"/><path d="M18.6 16.35q-.95.95-.95 2.3 0 1.35.95 2.25.95.95 2.3.95 1.3 0 2.25-.95.95-.9.95-2.25t-.95-2.3q-.95-.9-2.25-.9-1.35 0-2.3.9m7.5-9.1q-3.25-3.8-8-3.8-4.7 0-8 3.8T6.8 16.5q0 5.4 3.3 9.15 3.3 3.85 8 3.85 4.75 0 8-3.85 3.3-3.75 3.3-9.15 0-5.45-3.3-9.25z" fill="none" stroke="#121327" stroke-linecap="round" stroke-linejoin="round" transform="translate(-6.3 -2.95)"/></g><g id="p"><path d="M5.1 2.65q-.7-.9-1.7-.9t-1.75.9q-.75.9-.75 2.2Q.9 6.1 1.65 7q.75.95 1.75.95T5.1 7q.8-.9.8-2.15 0-1.3-.8-2.2m1 8.75Q4.9 9.85 3.2 9.2-1.1 7.3.4 2.55q2.45-4.9 7.15-.35 1.65 1.55 4.7 8.35Q15.3 17.4 19.6 22.4q-3.9-.7-8.2-7.6Q8.95 10 7.75 9.25 5.1 9.3 6.1 11.4" fill="#70a56d" fill-rule="evenodd" transform="translate(1 1)"/><path d="M5.1 2.65q.8.9.8 2.2Q5.9 6.1 5.1 7q-.7.95-1.7.95T1.65 7Q.9 6.1.9 4.85q0-1.3.75-2.2.75-.9 1.75-.9t1.7.9m-.9 1.9q0-.55-.4-1-.45-.45-1-.45-.6 0-1 .45-.45.45-.45 1 0 .6.45 1 .4.45 1 .45.55 0 1-.45.4-.4.4-1" fill="#d8f2d5" fill-rule="evenodd" transform="translate(1 1)"/><path d="M6.1 11.4q-1-2.1 1.65-2.15 1.2.75 3.65 5.55 4.3 6.9 8.2 7.6l1 1.1Q15 29.9 9.3 28.8q.4-12.75-3.2-17.4" fill="#c6eec9" fill-rule="evenodd" transform="translate(1 1)"/><path d="M4.2 4.55q0 .6-.4 1-.45.45-1 .45-.6 0-1-.45-.45-.4-.45-1 0-.55.45-1 .4-.45 1-.45.55 0 1 .45.4.45.4 1" fill="#fff" fill-rule="evenodd" transform="translate(1 1)"/><path d="M20.6 23.4q-4.3-5-7.35-11.85-3.05-6.8-4.7-8.35-4.7-4.55-7.15.35Q-.1 8.3 4.2 10.2q1.7.65 2.9 2.2 3.6 4.65 3.2 17.4m10.3-6.4 1 1.1" fill="none" stroke="#42643e" stroke-linecap="round" stroke-linejoin="round" stroke-width="2"/></g><g id="q"><path d="m6.4 12.3.1-1.55q-1.7-1.9-2.15-3.9-.6-2.3.55-4.5Q5.75.7 7.75.15 10-.4 12.65.9q4.1 2.05 3.3 6.3-.3 1.55-2.2 4.95-.95 1.75-1.3 6Q12.1 22.2 12.2 30q-.6.8-1.5 1.1-3.05-.65-2.3-6.3.7-5.65.7-10-.25-3.7-2.7-2.5m6.7-7.15q0-1.45-1.15-2.45-1.1-1-2.75-1-1.6 0-2.75 1-1.1 1-1.1 2.45 0 1.45 1.1 2.45 1.15 1 2.75 1 1.65 0 2.75-1 1.15-1 1.15-2.45" fill="#70a56d" fill-rule="evenodd" transform="translate(1 1)"/><path d="M13.1 5.15q0 1.45-1.15 2.45-1.1 1-2.75 1-1.6 0-2.75-1-1.1-1-1.1-2.45 0-1.45 1.1-2.45 1.15-1 2.75-1 1.65 0 2.75 1 1.15 1 1.15 2.45m-3.05-.2q0-.8-.55-1.4Q8.9 3 8.1 3q-.8 0-1.4.55-.55.6-.55 1.4 0 .8.55 1.4.6.55 1.4.55.8 0 1.4-.55.55-.6.55-1.4" fill="#d8f2d5" fill-rule="evenodd" transform="translate(1 1)"/><path d="M10.7 31.1Q7.25 32.15 0 25.4q3-3.05 4.8-7.5 1.25-3 1.6-5.6 2.45-1.2 2.7 2.5 0 4.35-.7 10-.75 5.65 2.3 6.3" fill="#c6eec9" fill-rule="evenodd" transform="translate(1 1)"/><path d="M10.05 4.95q0 .8-.55 1.4-.6.55-1.4.55-.8 0-1.4-.55-.55-.6-.55-1.4 0-.8.55-1.4Q7.3 3 8.1 3q.8 0 1.4.55.55.6.55 1.4" fill="#fff" fill-rule="evenodd" transform="translate(1 1)"/><path d="m7.4 13.3.1-1.55q-1.7-1.9-2.15-3.9-.6-2.3.55-4.5.85-1.65 2.85-2.2 2.25-.55 4.9.75 4.1 2.05 3.3 6.3-.3 1.55-2.2 4.95-.95 1.75-1.3 6Q13.1 23.2 13.2 31M1 26.4q3-3.05 4.8-7.5 1.25-3 1.6-5.6" fill="none" stroke="#42643e" stroke-linecap="round" stroke-linejoin="round" stroke-width="2"/></g><g id="r"><path d="M1.6 15.1q-2.45-5-1.2-8.55Q2 2.35 8.6.4l.2-.05.65.65q2.35 2.5 2.35 6t-2.35 5.95Q7.1 15.4 3.75 15.4l-2.15-.3m4.25-7.4q0-.7-.5-1.25Q4.85 6 4.15 6t-1.25.45Q2.45 7 2.45 7.7t.45 1.2q.55.55 1.25.55t1.2-.55q.5-.5.5-1.2" fill="#ccf3c7" fill-rule="evenodd" transform="translate(1 1)"/><path d="M5.85 7.7q0 .7-.5 1.2-.5.55-1.2.55T2.9 8.9q-.45-.5-.45-1.2t.45-1.25Q3.45 6 4.15 6t1.2.45q.5.55.5 1.25" fill="#fff" fill-rule="evenodd" transform="translate(1 1)"/><path d="M21.9 2.9q.85 3.7-.15 7.45 2.7 1.95 2.05 4.6-.6 2.55-4.05 5.95-3.35 3.35-6.95 5.05-1.8.85-4.95-2.2-2.8-2.65-5.35-6.9l-.9-1.75 2.15.3q3.35 0 5.7-2.45T11.8 7q0-3.5-2.35-6L8.8.35q6-1.4 13.1 2.55m-9.1 4.5q6.2.9 8.95 2.95Q19 8.3 12.8 7.4" fill="#75ac73" fill-rule="evenodd" transform="translate(1 1)"/><path d="M22.75 11.35q2.7 1.95 2.05 4.6-.6 2.55-4.05 5.95-3.35 3.35-6.95 5.05-1.8.85-4.95-2.2-2.8-2.65-5.35-6.9l-.9-1.75q-2.45-5-1.2-8.55Q3 3.35 9.6 1.4l.2-.05q6-1.4 13.1 2.55m-.15 7.45Q20 9.3 13.8 8.4" fill="none" stroke="#42643e" stroke-linecap="round" stroke-linejoin="round" stroke-width="2"/></g><path d="M43.25 0q17.95 0 30.6 4.5Q86.5 9.05 86.5 15.45q0 6.4-12.65 10.9-12.65 4.55-30.6 4.55-17.9 0-30.6-4.55Q0 21.85 0 15.45T12.65 4.5Q25.35 0 43.25 0" fill-opacity=".353" fill-rule="evenodd" id="c"/><path d="M75.7 11.65q.45 6.4-2.9 12.85l-1.35 2.25q-3.15 4.8-7.75 7.45-5.75 3.15-10.95 0Q47.5 31.05 47 23.95q-.55-7.15 3.65-13.55 3.3-4.95 7.55-7.35 1.1-.65 2.3-1.1 5.65-2.15 10.2.6 4.5 2.7 5 9.1M22.5 15.9q-.05 6.05-3.1 10.45-2.9 4.15-7.65 4.1h-.55q-5.15-.3-7.65-3.55Q1 23.65 1 17.5.95 11.3 3.2 6.6q2.2-4.7 7.65-4.8 5.4-.15 8.55 3.95 1.4 1.85 2.2 4.1.95 2.75.9 6.05z" fill="none" stroke="#42643e" stroke-linecap="round" stroke-linejoin="round" stroke-width="2" id="o"/><path d="M2.1 11.35Q0 13.7 1.85 15.1l2.9-.15M3.9 4.4Q4.4.15 9.15 1.2q4.5.65 3.3 5.55" fill="none" stroke="#42643e" stroke-linecap="round" stroke-linejoin="round" stroke-width="2" id="s"/><path d="M100 0v126H0V0h100" fill="#010101" fill-opacity="0" fill-rule="evenodd" id="b"/></defs></svg>