<svg xmlns:ffdec="https://www.free-decompiler.com/flash" xmlns:xlink="http://www.w3.org/1999/xlink" ffdec:objectType="frame" height="90" width="90" xmlns="http://www.w3.org/2000/svg"><use ffdec:characterId="34" height="88.45" transform="translate(-.65 .55)" width="74" xlink:href="#a"/><defs><g id="a" transform="translate(.65 -.55)"><use ffdec:characterId="1" height="42.3" transform="translate(21.48 73.988) scale(.3402)" width="145.35" xlink:href="#b"/><use ffdec:characterId="2" height="20.7" transform="translate(28.56 70.56) scale(.6795)" width="18.65" xlink:href="#c"/><use ffdec:characterId="3" height="21.65" transform="translate(46.91 71.16) scale(.6795)" width="23.75" xlink:href="#d"/><use ffdec:characterId="4" height="7.85" transform="translate(48.36 73.56) scale(.6795)" width="16.9" xlink:href="#e"/><use ffdec:characterId="5" height="6.95" transform="translate(53.332 73.844) scale(.6795)" width="6.45" xlink:href="#f"/><use ffdec:characterId="6" height="16.6" transform="translate(31.914 57.86) scale(.6795)" width="37.5" xlink:href="#g"/><use ffdec:characterId="7" height="23.45" transform="matrix(.6734 -.0888 .0888 .6734 24.946 46.407)" width="21" xlink:href="#h"/><use ffdec:characterId="8" height="8.95" transform="matrix(.6 -.1119 .1119 .6 25.173 52.78)" width="12.3" xlink:href="#i"/><use ffdec:characterId="9" height="11.4" transform="translate(32.86 57.66) scale(.6795)" width="11.4" xlink:href="#j"/><use ffdec:characterId="10" height="9.5" transform="translate(35.273 63.622) scale(.6795)" width="30.15" xlink:href="#k"/><use ffdec:characterId="11" height="25.1" transform="translate(29.41 58.36) scale(.6795)" width="49" xlink:href="#l"/><use ffdec:characterId="12" height="11.4" transform="matrix(.6374 0 0 .6772 50.431 57.411)" width="11.4" xlink:href="#m"/><use ffdec:characterId="13" height="34.45" transform="translate(29.277 40.594) scale(.6795)" width="45.15" xlink:href="#n"/><use ffdec:characterId="14" height="18.05" transform="rotate(9.544 -267.014 381.873) scale(.6791)" width="12.7" xlink:href="#o"/><use ffdec:characterId="15" height="19.05" transform="rotate(9.544 -225.411 350.369) scale(.6791)" width="18.75" xlink:href="#p"/><use ffdec:characterId="16" height="12.6" transform="rotate(9.544 -261.77 372.755) scale(.6791)" width="14.8" xlink:href="#q"/><use ffdec:characterId="17" height="8.25" transform="translate(38.21 61.86) scale(.6795)" width="22.6" xlink:href="#r"/><use ffdec:characterId="18" height="25.85" transform="translate(30.896 46.234) scale(.6795)" width="31.85" xlink:href="#s"/><use ffdec:characterId="19" height="11.4" transform="translate(49.737 59.037) scale(.7253)" width="11.4" xlink:href="#t"/><use ffdec:characterId="20" height="11.4" transform="translate(33.31 60.46) scale(.6795)" width="11.4" xlink:href="#u"/><use ffdec:characterId="21" height="51.9" transform="translate(14.064 14.916) scale(.6795)" width="83.4" xlink:href="#v"/><use ffdec:characterId="22" height="37.25" transform="rotate(2.781 -7.472 159.53) scale(.6794)" width="72.4" xlink:href="#w"/><use ffdec:characterId="23" height="19.55" transform="translate(38.568 30.098) scale(.6795)" width="22.5" xlink:href="#x"/><use ffdec:characterId="24" height="20.35" transform="matrix(-.5759 .0996 .1148 .6637 32.178 30.773)" width="20.45" xlink:href="#y"/><use ffdec:characterId="25" height="7" transform="matrix(-.5759 .0996 .1148 .6637 27.95 36.8)" width="5.95" xlink:href="#z"/><use ffdec:characterId="26" height="4.8" transform="translate(32.26 43.96) scale(.6795)" width="10" xlink:href="#A"/><use ffdec:characterId="27" height="5.1" transform="matrix(.4271 -.076 .2132 .7956 53.398 39.347)" width="14.2" xlink:href="#B"/><use ffdec:characterId="27" height="5.1" transform="matrix(.3246 .0008 .1371 .6385 17.585 41.134)" width="14.2" xlink:href="#B"/></g><g id="c"><path d="M5.8 2.5 6.5 0l11.15 4.95q-2.6 3.15-3.05 6.2l-.05.4.05.1.1.3.15.55.35 2.6q0 2.6-4.95 2.6l-1.3-.1q-1.4 1.5-2.3 1.8l-1.35.3q-1.45 0-2.55-.75-1.2-.85-1.3-2.25l-.05-.35q0-1.6 1.2-2.55l.1-.05-.05.35q0 1.1.8 2.1.95 1.15 2.45 1.15 1.95 0 3.4-1.55l.2-.25v-.05l1-.3q1.35 0 1.75-.45.5-.6.5-1.55l-.2-1.4-.25-2.2q0-.75.4-1.95l.35-.8Q9.6 6.45 5.8 2.5" fill="#ad6322" fill-rule="evenodd" transform="translate(.5 .5)"/><path d="M5.8 2.5q3.8 3.95 7.25 4.35l-.35.8q-.4 1.2-.4 1.95l.25 2.2.2 1.4q0 .95-.5 1.55-.4.45-1.75.45l-1 .3v.05l-.2.25q-1.45 1.55-3.4 1.55-1.5 0-2.45-1.15-.8-1-.8-2.1l.05-.35-.1.05q-1.2.95-1.2 2.55l.05.35q-2.1-1.15-1.15-3 .3-.7.95-1.2.6-.5 1.55-.85l2.4-.45.35-.2.95-.45-.35-.7Q5.45 8.2 5.4 6.1q0-1.65.4-3.6M3.15 13.2l.5-.7.9-.85.65-.45-.65.45-.9.85-.5.7q-.45 0-.45.55l.2-.15.25-.4m3.45.35q-.6-.6-1.65-.6-1.1 0-2.05.65.95-.65 2.05-.65 1.05 0 1.65.6m.7-1.9-.8-1.1.8 1.1" fill="#fec14d" fill-rule="evenodd" transform="translate(.5 .5)"/><path d="M1.45 16.7q.1 1.4 1.3 2.25 1.1.75 2.55.75l1.35-.3q.9-.3 2.3-1.8l1.3.1q4.95 0 4.95-2.6l-.35-2.6-.15-.55-.1-.3-.05-.1.05-.4q.45-3.05 3.05-6.2L6.5 0l-.7 2.5q-.4 1.95-.4 3.6.05 2.1.75 3.75l.35.7.8 1.1m-4.6 2.1-.1.05q-1.2.95-1.2 2.55l.05.35q-2.1-1.15-1.15-3 .3-.7.95-1.2.6-.5 1.55-.85l2.4-.45.35-.2.95-.45m-1.3.65-.65.45-.9.85-.5.7-.25.4q.95-.65 2.05-.65 1.05 0 1.65.6m-3.9.2.2-.15" fill="none" stroke="#732500" stroke-linecap="round" stroke-linejoin="round" transform="translate(.5 .5)"/></g><g id="d"><path d="m7.55 17.1-.1-.7-.1-3.4-1-2.5Q4.45 7.05 0 4.65L16.1 0q1.3 5.6.25 10.35-1.5.1-3.35.9-.4.1-.85.7.8.2 1.8.9H14v.05l.1.05q1.7 1.2 1.7 2.8 0 1.65-1.35 2.4-1.4.75-4.05.05l-2.85-1.1m3.25-1.45q.25-.95.9-1.7.95-1 2.25-1.1-1.3.1-2.25 1.1-.65.75-.9 1.7" fill="#fec14d" fill-rule="evenodd" transform="translate(.5 .5)"/><path d="m7.55 17.1 2.85 1.1q2.65.7 4.05-.05 1.35-.75 1.35-2.4 0-1.6-1.7-2.8l-.1-.05v-.05h-.05q-1-.7-1.8-.9.45-.6.85-.7 1.85-.8 3.35-.9 3.45-.25 4.85 3.25l.45.3q1.05.85 1.1 2.1.05 1.2-.95 2.1-.95.85-2.4.85l-1.75-.4-.65.95q-.95 1.1-2.4 1.15h-.2q-3.9 0-5.4-1.2-1.25-1.05-1.45-2.35m10.1 1.45L18 16.7q-.05-1.65-1.15-2.8l-.05-.05q-1.1-1.05-2.55-1.05l-.25.05.25-.05q1.45 0 2.55 1.05 1-.75 2.35-.75 1.15 0 2.05.5-.9-.5-2.05-.5-1.35 0-2.35.75l.05.05q1.1 1.15 1.15 2.8l-.35 1.85" fill="#ad6322" fill-rule="evenodd" transform="translate(.5 .5)"/><path d="M16.35 10.35Q17.4 5.6 16.1 0L0 4.65q4.45 2.4 6.35 5.85l1 2.5.1 3.4.1.7q.2 1.3 1.45 2.35 1.5 1.2 5.4 1.2h.2q1.45-.05 2.4-1.15l.65-.95 1.75.4q1.45 0 2.4-.85 1-.9.95-2.1-.05-1.25-1.1-2.1l-.45-.3q-1.4-3.5-4.85-3.25-1.5.1-3.35.9-.4.1-.85.7m1.8.9q-1.3.1-2.25 1.1-.65.75-.9 1.7m3.2-2.8.25-.05q1.45 0 2.55 1.05 1-.75 2.35-.75 1.15 0 2.05.5m-4.4.25.05.05q1.1 1.15 1.15 2.8l-.35 1.85" fill="none" stroke="#732500" stroke-linecap="round" stroke-linejoin="round" transform="translate(.5 .5)"/></g><g id="e"><path d="M5.35 6.8 2.9 6.55 0 3.6l3.85.15q1.5 1.1 1.5 2.55v.5" fill="#fff46d" fill-rule="evenodd" transform="translate(.5 .5)"/><path d="M5.35 6.8v-.5q0-1.45-1.5-2.55 5.25-.2 9.8-2.1Q15.1.9 15.05 0l.25.05q.6.25.6.75l-.75 2.85q-3.45 3.5-9.8 3.15" fill="#d1a940" fill-rule="evenodd" transform="translate(.5 .5)"/><path d="M3.85 3.75 0 3.6l2.9 2.95 2.45.25q6.35.35 9.8-3.15L15.9.8q0-.5-.6-.75L15.05 0q.05.9-1.4 1.65-4.55 1.9-9.8 2.1z" fill="none" stroke="#c97604" stroke-linecap="round" stroke-linejoin="round" transform="translate(.5 .5)"/></g><g id="f"><path d="M14.1 5.05q.7.75.7 1.75 0 1.05-.7 1.7-.6.75-1.5.75-.95 0-1.6-.75-.6-.65-.6-1.7 0-1 .6-1.75.65-.65 1.6-.65.9 0 1.5.65" fill="#15674b" fill-rule="evenodd" transform="translate(-8.95 -3.45)"/><path d="M15.15 6.85q0 1.25-.85 2.1-.8.9-1.95.9t-2-.9q-.75-.85-.75-2.1t.75-2.15q.85-.85 2-.85t1.95.85q.85.9.85 2.15m-1.05-1.8q-.6-.65-1.5-.65-.95 0-1.6.65-.6.75-.6 1.75 0 1.05.6 1.7.65.75 1.6.75.9 0 1.5-.75.7-.65.7-1.7 0-1-.7-1.75" fill="#fff46d" fill-rule="evenodd" transform="translate(-8.95 -3.45)"/><path d="M15.3 6.9q0 1.4-.95 2.35-.85 1.05-2.15 1.05h-.25l-.75-.15-1.25-.9q-.9-.95-.9-2.35 0-1.4.9-2.4.95-.95 2.25-.95t2.15.95q.95 1 .95 2.4m-.15-.05q0-1.25-.85-2.15-.8-.85-1.95-.85t-2 .85q-.75.9-.75 2.15t.75 2.1q.85.9 2 .9t1.95-.9q.85-.85.85-2.1" fill="#d1a940" fill-rule="evenodd" transform="translate(-8.95 -3.45)"/><path d="M6.35 3.45q0 1.4-.95 2.35-.85 1.05-2.15 1.05H3l-.75-.15L1 5.8Q.1 4.85.1 3.45q0-1.4.9-2.4Q1.95.1 3.25.1t2.15.95q.95 1 .95 2.4M6.2 3.4q0 1.25-.85 2.1-.8.9-1.95.9t-2-.9Q.65 4.65.65 3.4t.75-2.15Q2.25.4 3.4.4t1.95.85q.85.9.85 2.15M5.15 1.6q.7.75.7 1.75 0 1.05-.7 1.7-.6.75-1.5.75-.95 0-1.6-.75-.6-.65-.6-1.7 0-1 .6-1.75.65-.65 1.6-.65.9 0 1.5.65z" fill="none" stroke="#c97604" stroke-linecap="round" stroke-linejoin="round" stroke-width=".25"/><path d="M12.8 8.65q-.55 0-1-.5-.4-.45-.4-1.1 0-.65.4-1.15.45-.4 1-.4t.95.4q.4.5.4 1.15 0 .65-.4 1.1-.4.5-.95.5" fill="#78f4ca" fill-rule="evenodd" transform="translate(-8.95 -3.45)"/><path d="m13.8 6.3-.25.75-.65.45-.75-.3q-.35-.25-.35-.65-.1-.45.2-.95.2-.5.65-.6.4-.1.75.4l.4.9" fill="#13838d" fill-rule="evenodd" transform="translate(-8.95 -3.45)"/><path d="m12.45 7.1-.35.2-.4-.2-.15-.45q0-.25.15-.45l.4-.2.35.2.2.45-.2.45m1.05.75-.2.15-.2-.15-.1-.2.1-.25.2-.1.2.1.1.25-.1.2" fill="#f8ebe5" fill-rule="evenodd" transform="translate(-8.95 -3.45)"/></g><g id="g"><path d="M.3 6.05Q1.8 4.8 3.95 3.7 11.05.05 21 0l8.9.8 1.9.75q5.5 2.5 5.5 6.05 0 3.5-5.5 6-5.45 2.5-13.15 2.5t-13.2-2.5Q0 11.1 0 7.6q0-.8.3-1.55" fill="#715f87" fill-rule="evenodd" transform="translate(.2 .5)"/><path d="M.3 6.05Q1.8 4.8 3.95 3.7 11.05.05 21 0l8.9.8" fill="none" stroke="#384a72" stroke-linecap="round" stroke-linejoin="round" transform="translate(.2 .5)"/></g><g id="h"><path d="m-6.35 3.45 1.05-4 6.35 2q-.85 3.2-1.9 4.7Q1 8.15.05 9.8l-1.35.3q.25 1.45-2.65 1.1Q-2 9.65-1.9 7.8q.15-2.3-2.8-3.55l-1.65-.8m5.5 2.7-.35-.4.35.4" fill="#b56c26" fill-rule="evenodd" transform="translate(7.15 11.7)"/><path d="m-3.95 11.2-.15-.05-.7-.35q-2.6-1.6-1.55-7.35l1.65.8Q-1.75 5.5-1.9 7.8q-.1 1.85-2.05 3.4" fill="#fec14d" fill-rule="evenodd" transform="translate(7.15 11.7)"/><path d="m-6.35 3.45 1.05-4 6.35 2q-.85 3.2-1.9 4.7Q1 8.15.05 9.8l-1.35.3q.25 1.45-2.65 1.1l-.15-.05-.7-.35q-2.6-1.6-1.55-7.35m5.15 2.3.35.4" fill="none" stroke="#732500" stroke-linecap="round" stroke-linejoin="round" transform="translate(7.15 11.7)"/><path d="M-4.7-5.95q.8-2.6 2.25-5.25l6.7 2.45q8.15.6 9 3.3.8 2.65-6.5 4.65-3.3.95-6 3.7h-1.8Q1-1.6-.05-2.65q-2.2-.7-4.65-3.3" fill="#772c40" fill-rule="evenodd" transform="translate(7.15 11.7)"/><path d="M-1.05 2.9q-3.2-.45-4.7-3.2.15-2.75 1.05-5.65 2.45 2.6 4.65 3.3Q1-1.6-1.05 2.9" fill="#d64043" fill-rule="evenodd" transform="translate(7.15 11.7)"/><path d="M-4.7-5.95q.8-2.6 2.25-5.25l6.7 2.45q8.15.6 9 3.3.8 2.65-6.5 4.65-3.3.95-6 3.7h-1.8q-3.2-.45-4.7-3.2.15-2.75 1.05-5.65z" fill="none" stroke="#400002" stroke-linecap="round" stroke-linejoin="round" transform="translate(7.15 11.7)"/></g><g id="i"><path d="M11.4 6.1q-.35 1.65-2.6 1.75L5.4 7.4q-1.25-.45-2.6-1.5l-.4-.3Q1.05 4.3.5 3.2.1 2.4.15 1.7.15.9.5.5q.45-.6 1.45-.6.25 0 .3.4-.25.65.3 1.6 2.2 4.05 7 3.15l1.55-.6q.45.75.3 1.65" fill="#ffe75d" fill-rule="evenodd" transform="translate(.35 .6)"/><path d="M11.4 6.1q-.35 1.65-2.6 1.75L5.4 7.4q-1.25-.45-2.6-1.5l-.4-.3Q1.05 4.3.5 3.2.1 2.4.15 1.7.15.9.5.5q.45-.6 1.45-.6.25 0 .3.4-.25.65.3 1.6 2.2 4.05 7 3.15l1.55-.6q.45.75.3 1.65z" fill="none" stroke="#c97604" stroke-linecap="round" stroke-linejoin="round" transform="translate(.35 .6)"/></g><g id="j"><path d="M4 .15q.6.2 1.1.65.95.85.95 2.1 0 1.2-.95 2.05-.9.85-2.25.85-1.3 0-2.25-.85L.1 4.3q.25-1.6 1.4-2.8Q2.6.45 4 .15" fill="#909adb" fill-rule="evenodd" transform="translate(.5 .5)"/><path d="M4 .15 5.2 0l1.95.4.65.3 1.05.8q1.55 1.55 1.55 3.7 0 2.15-1.55 3.65-1.5 1.55-3.65 1.55T1.5 8.85Q.35 7.7.1 6.15L.05 5.6 0 5.2l.1-.9.5.65q.95.85 2.25.85 1.35 0 2.25-.85.95-.85.95-2.05 0-1.25-.95-2.1Q4.6.35 4 .15" fill="#534e94" fill-rule="evenodd" transform="translate(.5 .5)"/><path d="m.1 4.3-.1.9.05.4.05.55q.25 1.55 1.4 2.7 1.55 1.55 3.7 1.55 2.15 0 3.65-1.55 1.55-1.5 1.55-3.65T8.85 1.5L7.8.7 7.15.4 5.2 0 4 .15Q2.6.45 1.5 1.5.35 2.7.1 4.3z" fill="none" stroke="#4b1b61" stroke-linecap="round" stroke-linejoin="round" transform="translate(.5 .5)"/></g><g id="k"><path d="M-10.3 3q-4.25-1.25-4.25-3t4.25-3Q-6-4.25 0-4.25q6.05 0 10.3 1.25 4.3 1.25 4.3 3t-4.3 3Q6.05 4.25 0 4.25q-6 0-10.3-1.25" fill="#772c40" fill-rule="evenodd" transform="translate(15.05 4.75)"/><path d="M-10.3 3q-4.25-1.25-4.25-3t4.25-3Q-6-4.25 0-4.25q6.05 0 10.3 1.25 4.3 1.25 4.3 3t-4.3 3Q6.05 4.25 0 4.25q-6 0-10.3-1.25z" fill="none" stroke="#400002" stroke-linecap="round" stroke-linejoin="round" transform="translate(15.05 4.75)"/></g><g id="l"><path d="M6.7 20.6Q-.2 17 0 11.8q.15-3.65 3.75-6.55-.3.75-.3 1.55 0 3.5 5.45 6 5.5 2.5 13.2 2.5 7.7 0 13.15-2.5 5.5-2.5 5.5-6 0-3.55-5.5-6.05L33.35 0q4.4.85 7.95 2.7 6.9 3.65 6.7 8.85-.2 5.2-7.4 8.85-7.15 3.65-17.1 3.7-9.95.05-16.8-3.5" fill="url(#C)" fill-rule="evenodd" transform="translate(.5 .5)"/><path d="M6.7 20.6Q-.2 17 0 11.8q.15-3.65 3.75-6.55-.3.75-.3 1.55 0 3.5 5.45 6 5.5 2.5 13.2 2.5 7.7 0 13.15-2.5 5.5-2.5 5.5-6 0-3.55-5.5-6.05L33.35 0q4.4.85 7.95 2.7 6.9 3.65 6.7 8.85-.2 5.2-7.4 8.85-7.15 3.65-17.1 3.7-9.95.05-16.8-3.5z" fill="none" stroke="#384a72" stroke-linecap="round" stroke-linejoin="round" transform="translate(.5 .5)"/></g><g id="m"><path d="m7.15.4.65.3 1.05.8q1.55 1.55 1.55 3.7 0 2.15-1.55 3.65-1.5 1.55-3.65 1.55T1.5 8.85Q.35 7.7.1 6.15L.05 5.6 0 5.2q0-2.15 1.5-3.7Q3.05 0 5.2 0l1.95.4" fill="#534e94" fill-rule="evenodd" transform="translate(.5 .5)"/><path d="m7.15.4.65.3 1.05.8q1.55 1.55 1.55 3.7 0 2.15-1.55 3.65-1.5 1.55-3.65 1.55T1.5 8.85Q.35 7.7.1 6.15L.05 5.6 0 5.2q0-2.15 1.5-3.7Q3.05 0 5.2 0l1.95.4z" fill="none" stroke="#4b1b61" stroke-linecap="round" stroke-linejoin="round" transform="translate(.5 .5)"/></g><g id="n"><path d="m-12.6-13.1 28.4-3.55Q21.4-18 22.1-6.2q-5.45 9.55-11.7 18.75L8.75 15Q5 16.15 1.6 16.5q3.85-5.65 6.5-14Q9.35.15-12.6-13.1" fill="#772c40" fill-rule="evenodd" transform="translate(22.55 17.3)"/><path d="M1.6 16.5q-5.65.6-10.3-1-2.6-7.4-7.2-12.95l-.4-.5-1.6-1.7-4.15-4.95 4.3-7.85 5.15-.65Q9.35.15 8.1 2.5q-2.65 8.35-6.5 14" fill="#d64043" fill-rule="evenodd" transform="translate(22.55 17.3)"/><path d="m-12.6-13.1 28.4-3.55Q21.4-18 22.1-6.2q-5.45 9.55-11.7 18.75L8.75 15Q5 16.15 1.6 16.5q-5.65.6-10.3-1-2.6-7.4-7.2-12.95l-.4-.5-1.6-1.7-4.15-4.95 4.3-7.85 5.15-.65z" fill="none" stroke="#400002" stroke-linecap="round" stroke-linejoin="round" transform="translate(22.55 17.3)"/><path d="M-16.8-6.95q1.6 0 2.7 1.05.75.7 1 1.55l.1.4.05.65q0 1.5-1.15 2.55l-1.1.8-1.6.3q-1.6 0-2.75-1.1-1.1-1.05-1.1-2.55l.05-.65q.2-1.1 1.05-1.95 1.15-1.05 2.75-1.05m3.8 3q-1.6-.8-2.95 1.55Q-18.2.55-20.6-3.95q2.4 4.5 4.65 1.55Q-14.6-4.75-13-3.95" fill="#fb963e" fill-rule="evenodd" transform="translate(22.55 17.3)"/><path d="M5.75 10.35q1.6 0 2.7 1.05.75.7 1 1.55l.1.4.05.65q0 1.5-1.15 2.55l-1.1.8-1.6.3q-1.6 0-2.75-1.1Q1.9 15.5 1.9 14l.05-.65q.2-1.1 1.05-1.95 1.15-1.05 2.75-1.05m-3.8 3q2.4 4.5 4.65 1.55 1.35-2.35 2.95-1.55" fill="none" stroke="#762902" stroke-linecap="round" stroke-linejoin="round" stroke-width=".75"/></g><g id="o"><path d="M5.15 16.35q3.4-1.8 3.75-3.65.4-2.3-.1-5.35-.55-3.05-2.15-2.8Q5 4.8 3.2 6.75 2.3 7.8 1.95 8.6L0 7.2Q.8 1.75 7.7 0q3.9 5.4 4 10.5.05 5-2.85 6.4l-.35.1q-1.95.25-3.35-.65" fill="#ad6322" fill-rule="evenodd" transform="translate(.5 .5)"/><path d="M5.15 9.6q-1.85-.3-3.2-1 .35-.8 1.25-1.85Q5 4.8 6.65 4.55q1.6-.25 2.15 2.8.5 3.05.1 5.35-.35 1.85-3.75 3.65l-.3-.2q-1.55-1.2-.45-3.4-.8-.3-.7-1 .1-1 1.45-2.15l.65-.5-.65.5m.6 3.25-1.35-.1 1.35.1" fill="#fec14d" fill-rule="evenodd" transform="translate(.5 .5)"/><path d="M1.95 8.6q1.35.7 3.2 1l.65-.5m-.65.5Q3.8 10.75 3.7 11.75q-.1.7.7 1l1.35.1m-.6 3.5q1.4.9 3.35.65l.35-.1q2.9-1.4 2.85-6.4-.1-5.1-4-10.5Q.8 1.75 0 7.2l1.95 1.4m2.45 4.15q-1.1 2.2.45 3.4l.3.2" fill="none" stroke="#732500" stroke-linecap="round" stroke-linejoin="round" transform="translate(.5 .5)"/></g><g id="p"><path d="M7.45-1.65q5.85 4.75 9.8 9.95-4.3.4-6.45 2.6-.7-1.25-1.6-2.05-3.85-3.3-5.8-3.2l-.85.25q-1.7 1-1.15 6.05l-.85.3-.55.25 1.05-8.45q3.4-5.2 5.15-6.5L8.95.45l-1.5-2.1" fill="#772c40" fill-rule="evenodd" transform="translate(.75 2.45)"/><path d="M1.4 11.95Q.85 6.9 2.55 5.9l.85-.25q1.95-.1 5.8 3.2.9.8 1.6 2.05-1.85 1.85-2.25 4.95-1.85-2.6-3.8-3.55-1.7-.8-3.35-.35" fill="#d64043" fill-rule="evenodd" transform="translate(.75 2.45)"/><path d="M11.55 13.35q2.15-2.2 6.45-2.6Q14.05 5.55 8.2.8M.75 14.95l.55-.25.85-.3q1.65-.45 3.35.35 1.95.95 3.8 3.55.4-3.1 2.25-4.95" fill="none" stroke="#400002" stroke-linecap="round" stroke-linejoin="round" stroke-width="1.5"/></g><g id="q"><path d="M3.05 2.35Q4.9 4 5.35 5.3q-1.55 1.85-1.8 5.65Q0 11.7 0 8.85q-.05-3.45 3.05-6.5" fill="#ffe75d" fill-rule="evenodd" transform="translate(.75 .75)"/><path d="m3.05 2.35.05-.05Q4.35 1.1 6.25.45L10.3.2q2.25.55 2.8 1.65.45.8-.1 2.55-5.35-1.95-7.65.9Q4.9 4 3.05 2.35" fill="#d1a940" fill-rule="evenodd" transform="translate(.75 .75)"/><path d="M6.1 6.05q2.3-2.85 7.65-.9.55-1.75.1-2.55-.55-1.1-2.8-1.65L7 1.2q-1.9.65-3.15 1.85l-.05.05Q.7 6.15.75 9.6q0 2.85 3.55 2.1.25-3.8 1.8-5.65z" fill="none" stroke="#c97604" stroke-linecap="round" stroke-linejoin="round" stroke-width="1.5"/></g><g id="r"><path d="M12.15.45h.3l7.6-.45 1.55 6.4q-5 1.45-21.6.4l.1-2Q14 6.95 12.15.45" fill="#d1a940" fill-rule="evenodd" transform="translate(.5 .5)"/><path d="M.1 4.8.35.25 8.9.5l3.25-.05Q14 6.95.1 4.8" fill="#ffe75d" fill-rule="evenodd" transform="translate(.5 .5)"/><path d="M12.15.45h.3l7.6-.45 1.55 6.4q-5 1.45-21.6.4l.1-2L.35.25 8.9.5l3.25-.05z" fill="none" stroke="#c97604" stroke-linecap="round" stroke-linejoin="round" transform="translate(.5 .5)"/></g><g id="s"><path d="m-6.15 11.65-1-2.3L-4.1 4.4l.3-.6.6-1.1 2.4-4.05-14.6-7.7 6.9-.75L.9-4.1l2.5-3.6 3.2 1.15-12.75 18.2m5.35-13L.4-3.3l.5-.8-.5.8-1.2 1.95" fill="#ffe75d" fill-rule="evenodd" transform="translate(15.9 12.9)"/><path d="m5.7-10.8 5.65-.75 4.1-.85-2.7 2.9Q7.15-3.3 2.9 2.7L-.75 8.25l-2.4 4.2-1.15-.2-1.85-.6L6.6-6.55 3.4-7.7l2.3-3.1" fill="#d1a940" fill-rule="evenodd" transform="translate(15.9 12.9)"/><path d="m-8.5-9.8 1.35-.1 12.85-.9-2.3 3.1L.9-4.1l-9.4-5.7" fill="#fec14d" fill-rule="evenodd" transform="translate(15.9 12.9)"/><path d="m-8.5-9.8 1.35-.1 12.85-.9 5.65-.75 4.1-.85-2.7 2.9Q7.15-3.3 2.9 2.7L-.75 8.25l-2.4 4.2-1.15-.2-1.85-.6-1-2.3L-4.1 4.4l.3-.6.6-1.1 2.4-4.05-14.6-7.7 6.9-.75L.9-4.1l2.5-3.6 2.3-3.1M.9-4.1l-.5.8-1.2 1.95" fill="none" stroke="#c97604" stroke-linecap="round" stroke-linejoin="round" transform="translate(15.9 12.9)"/></g><g id="t"><path d="M8.4 4q0 1.4-1.1 2.35-.8.7-1.8.9l-1 .1q-1.65 0-2.8-1Q.55 5.4.55 4q0-1.4 1.15-2.35Q2.85.7 4.5.7t2.8.95q.75.65 1 1.55l.1.8" fill="#909adb" fill-rule="evenodd" transform="translate(.5 .5)"/><path d="m7.15.4.65.3 1.05.8q1.55 1.55 1.55 3.7 0 2.15-1.55 3.65-1.5 1.55-3.65 1.55T1.5 8.85Q.35 7.7.1 6.15L.05 5.6 0 5.2q0-2.15 1.5-3.7Q3.05 0 5.2 0l1.95.4M8.4 4l-.1-.8q-.25-.9-1-1.55Q6.15.7 4.5.7t-2.8.95Q.55 2.6.55 4q0 1.4 1.15 2.35 1.15 1 2.8 1l1-.1q1-.2 1.8-.9Q8.4 5.4 8.4 4" fill="#534e94" fill-rule="evenodd" transform="translate(.5 .5)"/><path d="m7.15.4.65.3 1.05.8q1.55 1.55 1.55 3.7 0 2.15-1.55 3.65-1.5 1.55-3.65 1.55T1.5 8.85Q.35 7.7.1 6.15L.05 5.6 0 5.2q0-2.15 1.5-3.7Q3.05 0 5.2 0l1.95.4z" fill="none" stroke="#4b1b61" stroke-linecap="round" stroke-linejoin="round" transform="translate(.5 .5)"/></g><g id="u"><path d="M.1 6.15.05 5.6 0 5.2q0-2.15 1.5-3.7Q3.05 0 5.2 0l1.95.4.65.3q.5.95.5 2.15 0 2-1.4 3.4t-3.35 1.4Q1.6 7.65.2 6.25l-.1-.1" fill="#909adb" fill-rule="evenodd" transform="translate(.5 .5)"/><path d="m7.8.7 1.05.8q1.55 1.55 1.55 3.7 0 2.15-1.55 3.65-1.5 1.55-3.65 1.55T1.5 8.85Q.35 7.7.1 6.15l.1.1q1.4 1.4 3.35 1.4 1.95 0 3.35-1.4 1.4-1.4 1.4-3.4 0-1.2-.5-2.15" fill="#534e94" fill-rule="evenodd" transform="translate(.5 .5)"/><path d="M.1 6.15.05 5.6 0 5.2q0-2.15 1.5-3.7Q3.05 0 5.2 0l1.95.4.65.3 1.05.8q1.55 1.55 1.55 3.7 0 2.15-1.55 3.65-1.5 1.55-3.65 1.55T1.5 8.85Q.35 7.7.1 6.15z" fill="none" stroke="#4b1b61" stroke-linecap="round" stroke-linejoin="round" transform="translate(.5 .5)"/></g><g id="v"><path d="m19.9-25.15 5.6.05.75.05q10.85.7 13.1 3.75l.5 1 .1.85-.35 1.3-.15.25q-1.8 3-9.75 6.4-3.65 1.65-7.95 3.05-7.25 2.4-16.3 4.15l-1.3.25-2.25.4q-14.8 2.6-26.4 2.35l-2.9-.15q-8.4-.45-11.6-2.4-1.5-.95-1.85-2.25l-.1-.85q.05-.85.6-1.65 1.75-2.95 9.5-6.4 11.2-4.9 27.9-7.75L3.8-23.8-.3-21l-2.55.4q-15.2 2.6-25.4 6.7-10.05 4.15-9.1 7.35l.45.8q.5.6 1.45 1.1 2.9 1.4 10.35 1.65l.6.05q8.9.2 20.05-1.3-11.15 1.5-20.05 1.3l-.6-.05q-7.45-.25-10.35-1.65 1.35-2.8 8.35-5.85l6.85-2.55q-2.15 2.7-.7 4.6 2.55 3.4 16.5 4.2l6-.95q8.1-1.4 14.75-3.25 5.85-1.6 10.55-3.55 4.8-1.95 7.15-3.65l1.65-1.6q.7-1.05.45-2-.95-3.2-12.4-3.65l-2.45-.05-1.35-2.1v-.1M6.65-9.5 2-8.45l-2.2.4-5.15.75-8.75.35q-4.75-.3-5.8-1.5l-.35-.6q-.3-1.75 5.1-3.95 3-1.2 6.8-2.2l3.15.45Q7.35-12.8 6.65-9.5" fill="#ffa93f" fill-rule="evenodd" transform="translate(41.7 25.95)"/><path d="m21.25-22.95 2.45.05q11.45.45 12.4 3.65.25.95-.45 2L34-15.65q-2.35 1.7-7.15 3.65-4.7 1.95-10.55 3.55Q9.65-6.6 1.55-5.2l-6 .95q-13.95-.8-16.5-4.2-1.45-1.9.7-4.6 4.15-1.4 8.95-2.5L-4.2-17l-7.1 1.45q-4.8 1.1-8.95 2.5l-6.85 2.55q-7 3.05-8.35 5.85-.95-.5-1.45-1.1l-.45-.8q-.95-3.2 9.1-7.35 10.2-4.1 25.4-6.7L-.3-21q-2.7 2.1-3.9 4l-.55 1 2.95-.6q8-1.35 13.8-1.1 5.85.35 6.2 2.05.35 1.75-5.15 4-2.85 1.2-6.4 2.15.7-3.3-11.85-5.25l-3.15-.45q-3.8 1-6.8 2.2-5.4 2.2-5.1 3.95l.35.6q1.05 1.2 5.8 1.5l8.75-.35 1.1.65q7.05-.65 12.3-1.8 15.3-3.3 14.5-10.7-.2-1.8-1.3-3.8m1.3 3.8q9.55.7 11.45 3.5-1.9-2.8-11.45-3.5M-4.75-16l-3.6.8 3.6-.8" fill="#9b641c" fill-rule="evenodd" transform="translate(41.7 25.95)"/><path d="m19.9-25.05 1.35 2.1q1.1 2 1.3 3.8.8 7.4-14.5 10.7Q2.8-7.3-4.25-6.65l-1.1-.65 5.15-.75 2.2-.4L6.65-9.5q3.55-.95 6.4-2.15 5.5-2.25 5.15-4-.35-1.7-6.2-2.05-5.8-.25-13.8 1.1l-2.95.6.55-1 1.35-.25q14.5-2.5 25.35-1.9h.05-.05q-10.85-.6-25.35 1.9L-4.2-17q1.2-1.9 3.9-4l4.1-2.8 12.35-1.25 3.65-.1.1.1M-.3-21q12.05-1.95 21.55-1.95-9.5 0-21.55 1.95" fill="#7d4243" fill-rule="evenodd" transform="translate(41.7 25.95)"/><path d="M-39-3.85q3.2 1.95 11.6 2.4l2.9.15q11.6.25 26.4-2.35l2.25-.4 1.3-.25q9.05-1.75 16.3-4.15 4.3-1.4 7.95-3.05 7.95-3.4 9.75-6.4l.05.05-.2.8-1.2 5.55Q-.4 7.75-36.7.85q-1-2.45-2.3-4.7" fill="url(#D)" fill-rule="evenodd" transform="translate(41.7 25.95)"/><path d="M38.1-11.5v.05l-.35 3-.1.8Q37.2-.4 39.95 3.5l.2.3Q3.6 32.1-33.35 17.65-33.5 8.5-36.7.85-.4 7.75 38.1-11.5" fill="url(#E)" fill-rule="evenodd" transform="translate(41.7 25.95)"/><path d="m40.15 3.8.15.3q1.3 2.25 0 4.7L38.6 11q-2.7 2.75-8.55 5.55L27 17.95l-3.5 1.3Q5.15 25.6-14 25.15q-17.9-.45-19.35-5.7v-1.8Q3.6 32.1 40.15 3.8" fill="url(#F)" fill-rule="evenodd" transform="translate(41.7 25.95)"/><path d="m81.3 7.8.35-1.3-.1-.85-.5-1Q78.8 1.6 67.95.9L67.2.85 61.6.8h-.1l-3.65.1L45.5 2.15 38.75 3.2q-16.7 2.85-27.9 7.75-7.75 3.45-9.5 6.4-.55.8-.6 1.65l.1.85q.35 1.3 1.85 2.25Q4 24.35 5 26.8q3.2 7.65 3.35 16.8v1.8q1.45 5.25 19.35 5.7 19.15.45 37.5-5.9l3.5-1.3 3.05-1.4q5.85-2.8 8.55-5.55l1.7-2.2q1.3-2.45 0-4.7l-.15-.3-.2-.3q-2.75-3.9-2.3-11.15l.1-.8.35-3v-.05L81 8.9l.2-.8.1-.3" fill="none" stroke="#994700" stroke-linecap="round" stroke-linejoin="round" stroke-width="1.5"/><path d="m21.25-22.95 2.45.05q11.45.45 12.4 3.65.25.95-.45 2L34-15.65q-2.35 1.7-7.15 3.65-4.7 1.95-10.55 3.55Q9.65-6.6 1.55-5.2l-6 .95q-11.15 1.5-20.05 1.3l-.6-.05q-7.45-.25-10.35-1.65-.95-.5-1.45-1.1l-.45-.8q-.95-3.2 9.1-7.35 10.2-4.1 25.4-6.7L-.3-21q12.05-1.95 21.55-1.95M-39-3.85q3.2 1.95 11.6 2.4l2.9.15q11.6.25 26.4-2.35l2.25-.4 1.3-.25q9.05-1.75 16.3-4.15 4.3-1.4 7.95-3.05 7.95-3.4 9.75-6.4l.15-.25m-17.05-1h-.05q-10.85-.6-25.35 1.9L-4.2-17l-7.1 1.45q-4.8 1.1-8.95 2.5l-6.85 2.55q-7 3.05-8.35 5.85m69.45-11q-1.9-2.8-11.45-3.5" fill="none" stroke="#994700" stroke-linecap="round" stroke-linejoin="round" transform="translate(41.7 25.95)"/><path d="M48.35 16.45 43.7 17.5l-2.2.4-5.15.75-8.75.35q-4.75-.3-5.8-1.5l-.35-.6q-.3-1.75 5.1-3.95 3-1.2 6.8-2.2l3.6-.8 2.95-.6q8-1.35 13.8-1.1 5.85.35 6.2 2.05.35 1.75-5.15 4-2.85 1.2-6.4 2.15z" fill="none" stroke="#ad5e0f" stroke-linecap="round" stroke-linejoin="round" stroke-width=".8"/><path d="m-5.15 1.95-6.45 20.5-4.8-.45 5.25-19.5 6-.55m-10.3.7-4.9 18.75-2.9-.6 5.1-18.15h2.7m-10.6-.35 3.6.25-4.35 17.3-3.25-1 4-16.55" fill="#f7fbfc" fill-rule="evenodd" transform="translate(41.7 25.95)"/></g><g id="w"><path d="m5.2-5 2.15 1.7-.1 1.6q-1.05 1.3-1.7 3-1.5 3.85-.3 8.6 1.2 4.7 4.55 8.7 2.8 3.35 6.5 5.3l1.9.9q10.55 4.25 18.25 1 7.05-2.95 8.3-14.05l1.1-1.05-1 .15.1-1L46.1 8.2l.35-.7q1-4.2-6.95-3.7-3 .15-6.2 1.35-2.5.9-5.15 2.45 2 2.15 5.15 3.1l10.5.35Q41 13.5 36.4 14.4l-3.1.35-3.7-.15q-3.95-.55-7.85-2.6l-2.25-1.6q3.85-2.6 7.4-4.4 3.35-1.75 6.4-2.8 4.15-1.5 7.85-1.8Q51.35.55 55.2 8.65q1.55 4 .1 8.45-1.2 3.7-3.95 6.25l-.85.75q-7.05 5.65-19.75 5.15-6.6-.25-11.3-1.6-4.5-1.25-8.35-3.75l-1.65-1.15q-2.5-1.9-4.75-4.4-4-4.5-7.05-11.1Q-3.85 4.1-6.3 2.3q1.75-5.85 11-7.25L5.2-5m16.55 17q3.3-2.65 6.4-4.4-3.1 1.75-6.4 4.4" fill="#d1a940" fill-rule="evenodd" transform="translate(15.65 7.2)"/><path d="m2.55-6.1 2.15.8.5.3-.5.05q-9.25 1.4-11 7.25Q-8.35.85-11.05.25q5.5-5.3 13.6-6.35m4.7 4.4q.45 5.85 4.3 9.5l.2.2q-.55 5.3 2.75 7.5 3.1 2.1 5.1-1.1 7.05 3.8 13.55 3.05h.15q6.15-.75 11.45-5.7-1.25 11.1-8.3 14.05-7.7 3.25-18.25-1l-1.9-.9q-3.7-1.95-6.5-5.3-3.35-4-4.55-8.7-1.2-4.75.3-8.6.65-1.7 1.7-3m37.7 11.55-1.15 1.2-10.5-.35q-3.15-.95-5.15-3.1 2.65-1.55 5.15-2.45 3.2-1.2 6.2-1.35 7.95-.5 6.95 3.7l-.35.7-1.15 1.65M29.7 20.2l-.7-.3q-.4 0-.7.3-.3.3-.3.7 0 .4.3.7.3.3.7.3l.7-.3.3-.7-.3-.7m-5.3-2.55q-.7-.4-1.4-.35-.75.1-1.05.65-.35.55 0 1.2l1 1.1 1.45.3 1-.6q.35-.55.05-1.25l-1.05-1.05" fill="#ffe75d" fill-rule="evenodd" transform="translate(15.65 7.2)"/><path d="m8.05-2.55.2.25 5.8 7.2q2.45 2.95 4.75 4.9l.7.6 2.25 1.6q3.9 2.05 7.85 2.6l3.7.15 3.1-.35q4.6-.9 7.4-3.35l1.05-.2-.1.9q-5.3 4.95-11.45 5.7h-.15q-6.5.75-13.55-3.05-2 3.2-5.1 1.1-3.3-2.2-2.75-7.5l-.2-.2Q7.7 4.15 7.25-1.7l.8-.85m-19.1 2.8-3.85-.4Q-4.3-7.9 2.55-6.1q-8.1 1.05-13.6 6.35m35.45 17.4 1.05 1.05q.3.7-.05 1.25l-1 .6-1.45-.3-1-1.1q-.35-.65 0-1.2.3-.55 1.05-.65.7-.05 1.4.35m5.3 2.55.3.7-.3.7-.7.3q-.4 0-.7-.3-.3-.3-.3-.7 0-.4.3-.7.3-.3.7-.3l.7.3" fill="#fff" fill-rule="evenodd" transform="translate(15.65 7.2)"/><path d="m18.2 1.1 2.15.8.5.3L23 3.9l.7.75.2.25 5.8 7.2q2.45 2.95 4.75 4.9l.7.6q3.85-2.6 7.4-4.4 3.35-1.75 6.4-2.8 4.15-1.5 7.85-1.8 10.2-.85 14.05 7.25 1.55 4 .1 8.45-1.2 3.7-3.95 6.25l-.85.75q-7.05 5.65-19.75 5.15-6.6-.25-11.3-1.6-4.5-1.25-8.35-3.75l-1.65-1.15q-2.5-1.9-4.75-4.4-4-4.5-7.05-11.1-1.5-3.15-3.95-4.95Q7.3 8.05 4.6 7.45l-3.85-.4Q11.35-.7 18.2 1.1m41.25 17.15q-2.8 2.45-7.4 3.35l-3.1.35-3.7-.15q-3.95-.55-7.85-2.6l-2.25-1.6m25.45-.55-1.15 1.2M43.8 14.8q-3.1 1.75-6.4 4.4m6.4-4.4q2.65-1.55 5.15-2.45 3.2-1.2 6.2-1.35 7.95-.5 6.95 3.7l-.35.7-1.15 1.65" fill="none" stroke="#c87707" stroke-linecap="round" stroke-linejoin="round" stroke-width="1.5"/></g><g id="x"><path d="m22 7.65.05 1.05q.15 3.9-2.7 6.9-2.85 3.05-7.05 3.35-4.2.3-6.85-2.3l-1.7-1.85Q13.2 7.35 22 7.65" fill="#fff" fill-rule="evenodd" transform="translate(-.1 .15)"/><path d="M3.75 14.8q-1.2-1.5-1.95-3.15L20.35 2.3Q21.7 5.1 22 7.65q-8.8-.3-18.25 7.15" fill="#887d9c" fill-rule="evenodd" transform="translate(-.1 .15)"/><path d="M3.65 14.95q-1.2-1.5-1.95-3.15l18.55-9.35q1.35 2.8 1.65 5.35l.05 1.05q.15 3.9-2.7 6.9-2.85 3.05-7.05 3.35-4.2.3-6.85-2.3l-1.7-1.85z" fill="none" stroke="#4b1d63" stroke-linecap="round" stroke-linejoin="round" stroke-width=".8"/><path d="m17.5 4.65-2 1.3-5.35 3.1L5 11.6l-.65.3q-2.05.75-3.1.65-1.05-.15-.6-3l3.2.15Q20.8 2.25 22.2.25L19.75 2.9 17.5 4.65" fill="#4b1d63" fill-rule="evenodd" transform="translate(-.1 .15)"/><path d="m16 8.55-.5 1.4q-1.05 1.9-3.3 2.95-2.3 1.05-4.4.6-.85-.15-1.45-.5Q10.7 10.2 16 8.55" fill="#38319f" fill-rule="evenodd" transform="translate(-.1 .15)"/><path d="m5 11.6 5.15-2.55 5.35-3.1.25.45q.45 1 .25 2.15Q10.7 10.2 6.35 13q-.9-.55-1.35-1.4" fill="#1e1862" fill-rule="evenodd" transform="translate(-.1 .15)"/><path d="M16 8.55q1.2-.4 2.5-.7v.3q.4 4.15-1.85 6.05-2.3 1.9-5.5 2-3.2.1-5.25-2l-.5-.55.95-.65q.6.35 1.45.5 2.1.45 4.4-.6 2.25-1.05 3.3-2.95l.5-1.4" fill="#919bdb" fill-rule="evenodd" transform="translate(-.1 .15)"/><path d="m15.5 5.95 2-1.3q.7 1 1 3.2-1.3.3-2.5.7.2-1.15-.25-2.15l-.25-.45M4.35 11.9l.65-.3q.45.85 1.35 1.4l-.95.65q-.7-.85-1.05-1.75" fill="#4f4e87" fill-rule="evenodd" transform="translate(-.1 .15)"/><path d="m15.4 6.1 2-1.3 2.25-1.75L22.1.4q-1.4 2-18.35 9.45L.55 9.7q-.45 2.85.6 3 1.05.1 3.1-.65l.65-.3 5.15-2.55 5.35-3.1m3 1.9q-.3-2.2-1-3.2m1 3.2v.3q.4 4.15-1.85 6.05-2.3 1.9-5.5 2-3.2.1-5.25-2l-.5-.55q-.7-.85-1.05-1.75" fill="none" stroke="#4b1d63" stroke-linecap="round" stroke-linejoin="round" stroke-width=".8"/><path d="M10.5 13.8q-.6.6-1.4.6-.85 0-1.4-.6-.6-.55-.6-1.4 0-.8.6-1.4.55-.55 1.4-.55.8 0 1.4.55.55.6.55 1.4 0 .85-.55 1.4m3.9-.65-.7.3q-.45 0-.75-.3t-.3-.75q0-.4.3-.7.3-.3.75-.3.4 0 .7.3l.3.7-.3.75" fill="#fff" fill-rule="evenodd" transform="translate(-.1 .15)"/></g><g id="y"><path d="m20.45 6.4.1.75q.9 6.1-1.3 9-2.3 2.8-6.65 3-4.1.15-5.9-3.7 4.8-4.95 13.75-9.05" fill="#fff" fill-rule="evenodd" transform="translate(-2.05 .8)"/><path d="m6.7 15.45-.25-.55q-.8-2.1-.8-4.15Q14 6.1 19.6 2.2l.85 4.2Q11.5 10.5 6.7 15.45" fill="#887d9c" fill-rule="evenodd" transform="translate(-2.05 .8)"/><path d="m18.4 7.2.1.75q.9 6.1-1.3 9-2.3 2.8-6.65 3-4.1.15-5.9-3.7l-.25-.55q-.8-2.1-.8-4.15Q11.95 6.9 17.55 3l.85 4.2z" fill="none" stroke="#4b1d63" stroke-linecap="round" stroke-linejoin="round" stroke-width=".8"/><path d="M7.95 8.7v.15q.3 1.7 1.7 2.75l.9.55-1.45 1.1-.1-.1Q7.25 11.6 7 9.2l.95-.5m6.4-3.65 2.3-1.3 1.2 3.95-1.95 1-.1-1.05q-.2-1.15-1.45-2.6" fill="#4f4e87" fill-rule="evenodd" transform="translate(-2.05 .8)"/><path d="m10.55 12.15 2.15.25q1.65-.25 2.55-1.65.6-.95.65-2.05l1.95-1 .05.35q.65 2.95-.5 4.7-1.2 1.7-3.75 2-2.5.3-4.55-1.5l1.45-1.1" fill="#919bdb" fill-rule="evenodd" transform="translate(-2.05 .8)"/><path d="M15.9 8.7q-3 1.65-5.35 3.45l-.9-.55q-1.4-1.05-1.7-2.75V8.7l6.4-3.65q1.25 1.45 1.45 2.6l.1 1.05" fill="#1e1862" fill-rule="evenodd" transform="translate(-2.05 .8)"/><path d="M15.9 8.7q-.05 1.1-.65 2.05-.9 1.4-2.55 1.65l-2.15-.25q2.35-1.8 5.35-3.45" fill="#38319f" fill-rule="evenodd" transform="translate(-2.05 .8)"/><path d="m5.9 9.5-.95.5q.25 2.4 2 3.95l.1.1q2.05 1.8 4.55 1.5 2.55-.3 3.75-2 1.15-1.75.5-4.7l-.05-.35-1.2-3.95-2.3 1.3" fill="none" stroke="#4b1d63" stroke-linecap="round" stroke-linejoin="round" stroke-width=".8"/><path d="M13.7 6.15 7 10.3q-1.2.6-2.5.65l-1.65-.2q-1-.45.45-2.65Q4.65 9.4 13 5.2 21.15 1 22.1-.4q-.65 1.05-2.45 2.55l-5.95 4" fill="#4b1d63" fill-rule="evenodd" transform="translate(-2.05 .8)"/><path d="m11.65 6.95-6.7 4.15q-1.2.6-2.5.65l-1.65-.2q-1-.45.45-2.65 1.35 1.3 9.7-2.9 8.15-4.2 9.1-5.6-.65 1.05-2.45 2.55l-5.95 4z" fill="none" stroke="#4b1d63" stroke-linecap="round" stroke-linejoin="round" stroke-width=".8"/></g><g id="B"><path d="m10.75 3.15-4.5.55-4.45-.55Q-.1 2.65-.1 1.9T1.8.6L6.25.1l4.5.5q1.85.55 1.85 1.3t-1.85 1.25" fill="#fff2b8" fill-rule="evenodd" transform="translate(.85 .65)"/><path d="m11.6 3.8-4.5.55-4.45-.55Q.75 3.3.75 2.55t1.9-1.3L7.1.75l4.5.5q1.85.55 1.85 1.3T11.6 3.8z" fill="none" stroke="#c97604" stroke-linecap="round" stroke-linejoin="round" stroke-width="1.5"/></g><linearGradient gradientTransform="matrix(.0293 0 0 .0147 24 12.05)" gradientUnits="userSpaceOnUse" id="C" spreadMethod="pad" x1="-819.2" x2="819.2"><stop offset="0" stop-color="#715f87"/><stop offset=".412" stop-color="#fff"/><stop offset="1" stop-color="#43456a"/></linearGradient><linearGradient gradientTransform="matrix(.0479 0 0 .0126 .25 -7.6)" gradientUnits="userSpaceOnUse" id="D" spreadMethod="pad" x1="-819.2" x2="819.2"><stop offset="0" stop-color="#e8ca96"/><stop offset="1" stop-color="#bb692c"/></linearGradient><linearGradient gradientTransform="matrix(.0469 0 0 .0208 1.7 5.5)" gradientUnits="userSpaceOnUse" id="E" spreadMethod="pad" x1="-819.2" x2="819.2"><stop offset="0" stop-color="#e29e54"/><stop offset=".518" stop-color="#ffe778"/><stop offset="1" stop-color="#bb692c"/></linearGradient><linearGradient gradientTransform="matrix(.0453 0 0 .0131 3.8 14.5)" gradientUnits="userSpaceOnUse" id="F" spreadMethod="pad" x1="-819.2" x2="819.2"><stop offset="0" stop-color="#e8ca96"/><stop offset="1" stop-color="#bb692c"/></linearGradient><path d="M76.65-2.6q0 8.8-21.3 15-21.2 6.2-51.4 6.2-30.1 0-51.35-6.2-21.3-6.2-21.3-15 0-8.7 21.3-14.9 21.25-6.2 51.35-6.2 30.2 0 51.4 6.2 21.3 6.2 21.3 14.9" fill-opacity=".349" fill-rule="evenodd" transform="translate(68.7 23.7)" id="b"/><path d="M2 2.1q-.15-.75.3-1.35.45-.6 1.25-.75.8-.1 1.5.3.7.45.85 1.2.15.75-.35 1.35-.45.65-1.25.75-.8.15-1.5-.3-.65-.45-.8-1.2M.85 5l.85.15.5.65-.2.75q-.25.4-.7.45l-.85-.2L0 6.15q-.05-.4.2-.75L.85 5" fill="#fff" fill-rule="evenodd" id="z"/><path d="M0 3.8Q1.9 2.6 3.2 1l.35-.55.3-.45Q5.05 3.25 9 3.6" fill="none" stroke="#4b1b61" stroke-linecap="round" stroke-linejoin="round" transform="translate(.5 .5)" id="A"/></defs></svg>