<svg xmlns:ffdec="https://www.free-decompiler.com/flash" xmlns:xlink="http://www.w3.org/1999/xlink" ffdec:objectType="frame" height="90" width="90" xmlns="http://www.w3.org/2000/svg"><use ffdec:characterId="22" height="155.05" transform="matrix(.5601 0 0 .5604 14.758 1.765)" width="110.15" xlink:href="#a"/><defs><g id="a" transform="translate(-26.35 -3.15)"><use ffdec:characterId="1" height="8.5" transform="matrix(1.7357 0 0 3.2701 36.836 130.422)" width="48.2" xlink:href="#b"/><use ffdec:characterId="3" height="64.75" transform="translate(88.55 101.45) scale(.6397)" width="42" xlink:href="#c"/><use ffdec:characterId="5" height="27.65" transform="translate(41.8 105.45) scale(.6397)" width="24.95" xlink:href="#d"/><use ffdec:characterId="7" height="28.1" transform="translate(49.6 129.8) scale(.6397)" width="27.35" xlink:href="#e"/><use ffdec:characterId="9" height="71.05" transform="translate(49 99.45) scale(.6397)" width="84.95" xlink:href="#f"/><use ffdec:characterId="11" height="26.9" transform="translate(76.25 134.9) scale(.6397)" width="29.1" xlink:href="#g"/><use ffdec:characterId="13" height="46.4" transform="translate(81.15 113) scale(.6397)" width="32.75" xlink:href="#h"/><use ffdec:characterId="19" height="168.8" transform="translate(31.6 3.2) scale(.6397)" width="161.35" xlink:href="#i"/><use ffdec:characterId="21" height="40.1" transform="translate(27.25 105) scale(.6397)" width="39.4" xlink:href="#j"/></g><g id="k" fill-rule="evenodd"><path d="m22.25 2.7.5.15Q38.7 11.05 41.8 34.8v.05q1.55 20.45-10.25 27.8l-.25.15q-12.35 4.8-19.25-2.25L11.7 60v-.55q2.35-12.5.2-27.25v-.05Q10.2 16.7.25 2.1q-.3-.45-.2-.95.1-.5.5-.75L1.5.2l.8.5.05.1.05-.05q11.1-2.2 19.85 1.95M38.7 31.2q-3.55-18.9-16.85-26l-.4-.15Q13.6 1.3 3.8 3q8.95 14.1 10.55 28.85 2.15 14.75-.1 27.35 1.75 1.6 3.95 2.35 2.6.85 5.7.6l3.3-.6 3.1-1q10.45-6.9 9-25.5l.05.1-.65-3.95" fill="#074223"/><path d="M18.2 61.55q-2.2-.75-3.95-2.35 2.25-12.6.1-27.35Q12.75 17.1 3.8 3q9.8-1.7 17.65 2.05l.4.15q13.3 7.1 16.85 26-1 13.35-4.75 18.55.15-6.6-1.3-11.25-1.05 14.55-5.45 23.05l-3.3.6.15-.45q.5-1.7.65-3.95.15-2.2-1.2-2.05-1.35.2-3.5 3.15l-1.8 2.7" fill="#16775f"/><path d="m38.7 31.2.65 3.95-.05-.1q1.45 18.6-9 25.5l-3.1 1q4.4-8.5 5.45-23.05 1.45 4.65 1.3 11.25 3.75-5.2 4.75-18.55M23.9 62.15q-3.1.25-5.7-.6l1.8-2.7q2.15-2.95 3.5-3.15 1.35-.15 1.2 2.05-.15 2.25-.65 3.95l-.15.45" fill="#1fb1a5"/></g><g id="l"><path d="m1.4 10.75-.25-.3q-.25-.45-.1-.9.1-.5.55-.75 10-5.75 22.2-7.65l.7 2.4q-6.25.95-11.85 2.9L12 5.6l.65.85q-5.15 1.8-9.8 4.5l-.95.1-.5-.3.25-.6-.25.6m23.05 1.15L23 17.05q-7.15 6.9-16.5 10.55h-.9q-.5-.25-.65-.7l-.1-.75.1-.2q.2-.45.7-.65 8.05-3.15 14.4-8.9l.65.85-.65-.85 4.4-4.5M5.6 26.65l-.75-.5.75.5" fill="#120e16" fill-rule="evenodd"/><path d="m1.4 10.75.5.3.95-.1q4.65-2.7 9.8-4.5 6.8-.5 7.4 9.95-6.35 5.75-14.4 8.9-.5.2-.7.65l-.15.2q-7.4-5.25-3.4-15.4" fill="#4d3957" fill-rule="evenodd"/><path d="M12.65 6.45q5.6-1.95 11.85-2.9.95 4.25-.05 8.35l-4.4 4.5q-.6-10.45-7.4-9.95" fill="#3c98d4" fill-rule="evenodd"/><path d="m1.4 10.75.25-.6m11-3.7L12 5.6m12.5-2.05-.7-2.4L23.45 0m1.05 3.55q.95 4.25-.05 8.35L23 17.05l-.45 1.4m-2.5-2.05.65.85m-.65-.85q-.6-10.45-7.4-9.95m-7.8 19.7.75.5m-.8-.5h.05M1.4 10.75q-4 10.15 3.4 15.4" fill="none" stroke="red" stroke-linecap="round" stroke-linejoin="round" stroke-width=".05"/></g><g id="m" fill-rule="evenodd"><path d="M26.45 10.95q.45.15.7.5l.2.95q-1.15 5-1.1 10l-.15.7q-3.85 6.05-10.55 4.8Q3.45 26.4 0 4.45q-.1-.55.25-.95.3-.4.8-.45h.55q.15.05.35.2l.5.8q2.95 18.8 12.5 21.2l.95.2h.1q4.9.95 7.8-3.4 0-5.1 1.1-10.2.15-.5.55-.75l.95-.15h.05" fill="#120e16"/><path d="M1.6 3.05Q4.4.25 9.05 0l6.25.55q.35 6.7 4 13.05-2.5 0-4.45-.95.85 2.25 2.6 4.15-1.8.05-2.8-.6.7 2.1 2.2 3.75-1.45-.25-2.9-1.2.25 3.5 1 6.5-9.55-2.4-12.5-21.2l-.5-.8q-.2-.15-.35-.2" fill="#4d3957"/><path d="M15.3.55Q22.6 1.7 27.2 5.6q0 3.15-.75 5.35h-.05l-.95.15q-.4.25-.55.75-1.1 5.1-1.1 10.2-2.9 4.35-7.8 3.4h-.1l-.95-.2q-.75-3-1-6.5 1.45.95 2.9 1.2-1.5-1.65-2.2-3.75 1 .65 2.8.6-1.75-1.9-2.6-4.15 1.95.95 4.45.95-3.65-6.35-4-13.05" fill="#261f30"/></g><g id="n" fill-rule="evenodd"><path d="M2.5 41.7v.9q0 3.3.35 6.45l.25 2.05.15 1.05v.4l-.2.5-.8.5-.95-.2-.1-.1-.4-.7q-.7-4.35-.75-8.9v-.8Q0 35.55 1.55 27.7 4.2 14.1 11.3 8.15q.4-.35.9-.3.5.05.85.45l.2.25.1.65q-.05.5-.45.8-1.75 1.5-3.15 3.5-4 5.45-5.8 14.7Q2.9 33.6 2.6 38.8v.1l-.1 2.8m47.1 13.35 13.75-1.15 14.95-2.4q4.65-12.3-2.3-29.35l1.85.65q6.65 17.15 1.7 29.6l-.25.3-.3.2-.75.1-14.95 2.4-22.75 1.4h-.8q-20.4-.1-35.6-6.95l1-1.15.4.15q14.95 6.45 35 6.5l9.05-.3" fill="#09263b"/><path d="M66 18.9q4.9.2 9.65 1.6l1.45.45q3.1 1.05 6.15 2.6-2-11.25-7.95-14.9-6.6-.4-13.15.2Q43.35 10.6 25.1 20.4q-.7.35-1.3.75Q11.15 28.3 2.5 41.7l.1-2.8.85-1.25q8-11.05 18.95-17.45l2-1.1q24.15-13 49.2-12l1.95.05.3.1q7.1 4.05 9.1 17.55l-.15.5-.45.3-.5-.05q-3-1.65-6-2.75L76 22.15q-8-2.5-16.35-1.5h-.2l-5.3 1q-18.05 4.3-35.3 15.1l-.05.05q-8.55 6.15-13.65 11.9l-1 1.15-.65.8-.3.3-.1.15-.25-2.05Q4.9 46.6 7.6 44q4.35-4.15 10.4-8.45l.05-.05q15.85-9.9 32.3-14.4l3.45-.9Q60 18.65 66 18.9" fill="#4e0c1b"/><path d="m60.55 9.55 1.6-.7q6.55-.6 13.15-.2 5.95 3.65 7.95 14.9-3.05-1.55-6.15-2.6l-1.45-.45Q70.9 19.1 66 18.9l.2-1.95-1.25-3.45-4.4-3.95" fill="#b21a5c"/><path d="m60.55 9.55 4.4 3.95 1.25 3.45-.2 1.95q-6-.25-12.2 1.3l-3.45.9-4.65.3-2.2-.75-7.45.95 5.2-3.2 8.9-4.7 10.4-4.15M2.5 42.6l5.15-5.2 6.7-4.65-5.2 7.65L7.6 44q-2.7 2.6-4.75 5.05-.35-3.15-.35-6.45" fill="#ff4555"/><path d="m62.15 8.85-1.6.7-10.4 4.15-8.9 4.7-5.2 3.2 7.45-.95 2.2.75 4.65-.3q-16.45 4.5-32.3 14.4l-.05.05Q11.95 39.85 7.6 44l1.55-3.6 5.2-7.65-6.7 4.65-5.15 5.2v-.9q8.65-13.4 21.3-20.55.6-.4 1.3-.75 18.25-9.8 37.05-11.55" fill="#ff8545"/><path d="M5.55 48.85Q20 34.65 33.95 30.3l9.55-3.75q3.5-1.3 5.35 2.6 2.35 6.95-1.2 16.25-1.55 5.15-4.25 8.8l6.2.85-9.05.3q-20.05-.05-35-6.5m4.2-35.35q1.5 2.25 3.75 3.15 2.9 1.15 4.8 1.7 1.55.4 4.1 1.85-10.95 6.4-18.95 17.45L2.6 38.8q.3-5.2 1.35-10.6 1.8-9.25 5.8-14.7" fill="#6be5ff"/><path d="m49.6 55.05-6.2-.85q2.7-3.65 4.25-8.8 3.55-9.3 1.2-16.25-1.85-3.9-5.35-2.6l-9.55 3.75Q20 34.65 5.55 48.85l-.4-.15q5.1-5.75 13.65-11.9l.05-.05q17.25-10.8 35.3-15.1l5.3-1h.2q3.9 1.15 5.75 4.65 2.4 10.55-2.05 28.6L49.6 55.05M9.75 13.5q1.4-2 3.15-3.5.4-.3.45-.8l-.1-.65Q31.35.7 50.4 0q15.4.2 23.2 7.1-25.05-1-49.2 12l-2 1.1q-2.55-1.45-4.1-1.85-1.9-.55-4.8-1.7-2.25-.9-3.75-3.15" fill="#3c98d4"/><path d="M63.35 53.9q4.45-18.05 2.05-28.6-1.85-3.5-5.75-4.65 8.35-1 16.35 1.5 6.95 17.05 2.3 29.35l-14.95 2.4" fill="#205b81"/><path d="M3.25 52.55v-.4L3.1 51.1l.1-.15.3-.3.65-.8q15.2 6.85 35.6 6.95-2.3 2.2-4.9 2.5.35.85 1.35 1.35l-6.4-.3 2.55 2.35-11.45-.3-.2-.05q-5-1.6-9.75-3.8l-.6-.35q-3.7-2.5-7.1-5.65" fill="#fff"/><path d="M78.25 53Q73 66.8 47.75 69.65h-.05q-1.55-1.5-3.8-2.55-3.05-1.45-7.3-1.55-8.15-.85-15.7-3.15l11.45.3-2.55-2.35 6.4.3q-1-.5-1.35-1.35 2.6-.3 4.9-2.5h.8l22.75-1.4L78.25 53" fill="#b8b0f3"/><path d="m47.7 69.65-3.25 1.4Q43.6 70 42 69.25l-1.85-.7q-8.1-.1-12.35-1.5l-3.55-2.3q-7.1-2.15-13.3-6.2 4.75 2.2 9.75 3.8l.2.05q7.55 2.3 15.7 3.15 4.25.1 7.3 1.55 2.25 1.05 3.8 2.55" fill="#6e648d"/></g><g id="o" fill-rule="evenodd"><path d="m21.8 1.15.25-.3q.4-.35.95-.3.45 0 .8.4 3.5 4.05 4.85 9.3v.2q2.1 10.5-5.8 15.4l-.3.1q-9 2.85-14.1-2.7l-.15-.2Q4.4 16.65.6 14.3q-.45-.3-.55-.8v-.55l.15-.35.35-.4.4-.15.95.15q1.05.6 2.15 1.55l.15.15q3.05 2.7 6.15 7.75 2.65 2.7 6.55 2.8 2.15 0 4.75-.8 6.25-4.1 4.6-12.65l-.05-.25Q25 6.1 21.95 2.6q-.35-.4-.3-.9 0-.3.15-.55" fill="#120e16"/><path d="M.55 12.2V9.95Q1.2 6 6 1.75 9.05-.35 16.45.1q3.35.2 5.35 1.05-.15.25-.15.55-.05.5.3.9Q25 6.1 26.2 10.75l.05.25q1.65 8.55-4.6 12.65-2.6.8-4.75.8 1.85-3.55 1.05-6.6L16.35 14l2.1 1.1q-.3-1.7-2.8-5.45l2.2.95q-4.7-7.5-9.1-5.35-2.5 0-4.35 2.5-1.4 2.65-.35 6-1.1-.95-2.15-1.55l-.95-.15-.4.15" fill="#261f30"/><path d="M4.05 13.75q-1.05-3.35.35-6 1.85-2.5 4.35-2.5 4.4-2.15 9.1 5.35l-2.2-.95q2.5 3.75 2.8 5.45l-2.1-1.1 1.6 3.85q.8 3.05-1.05 6.6-3.9-.1-6.55-2.8-3.1-5.05-6.15-7.75l-.15-.15" fill="#4d3957"/></g><g id="p" fill-rule="evenodd"><path d="m18.35 1.1.05-.05.7-.2.65.35q5.9 7.05 9.05 14.05l.5 1.2-2.2-.1-2.2-.1-6.1.4q-7.7 1.2-15.6 5.75l-.9.55h-.05L.2 24.35l.15-1.8Q1 16.2 2.8 7.6q.1-.4.45-.65l.7-.15.35.15.3.3.15.75Q3.2 15.4 2.5 21.1q5.95-3.4 11.8-5 3.75-1 7.45-1.25 2.3-.2 4.65-.05-3-6.15-8.15-12.3-.3-.35-.25-.7.05-.45.35-.7" fill="#09263b"/><path d="M6.45 4.7Q8.9 1.4 11.7.4h.05q2.6 1.8 3.4 3.65 1.1 4.2.85 9.25 3.3.25 5.75 1.55-3.7.25-7.45 1.25l-5.7.15.6-1.8q.4-.95.4-1.8 0-1.3-1.55-3.7-1.55-2.5-1.6-4.25" fill="#3c98d4"/><path d="M4.3 6.95 5.4 5.3q.45-.75 1.05-.6.05 1.75 1.6 4.25 1.55 2.4 1.55 3.7 0 .85-.4 1.8l-.6 1.8 5.7-.15q-5.85 1.6-11.8 5Q3.2 15.4 4.75 8l-.15-.75-.3-.3" fill="#6be5ff"/><path d="m2.3 22.95.9-.55q7.9-4.55 15.6-5.75 5.8 3.8 6.7 8.6-1.85-1.45-4.05-1.85 3.05 3.1 3.85 5.9-2.15-1.6-3.95-1.65 3.55 4.25 2.55 8.55-.8 4.35-4.7 5.95-5 1.55-8.15.1-1.6-1.4-2.6-3.65l-.55-.55-.75.05-.1.05Q6 36.5 5.95 34.85q-1.35 2-.95 4.55l-.15.05Q3.4 38 2.55 34.6q-1-4.15-.25-11.65" fill="#4d3957"/><path d="m18.8 16.65 6.1-.4 2.2.1q1.6 3.65 2.35 7.25l.05.05q4.4 16.15-7.2 20.1-7.35 1.75-11.25-1.5 3.15 1.45 8.15-.1 3.9-1.6 4.7-5.95 1-4.3-2.55-8.55 1.8.05 3.95 1.65-.8-2.8-3.85-5.9 2.2.4 4.05 1.85-.9-4.8-6.7-8.6M7.05 38.15l-.45.5q-.15.35.05.75l.35.8q-1.15 0-2-.65v-.15q-.4-2.55.95-4.55.05 1.65 1.1 3.3" fill="#261f30"/><path d="M11.75.4q3.15-1.1 6.65.65l-.05.05q-.3.25-.35.7-.05.35.25.7 5.15 6.15 8.15 12.3-2.35-.15-4.65.05-2.45-1.3-5.75-1.55.25-5.05-.85-9.25-.8-1.85-3.4-3.65" fill="#205b81"/><path d="M29.3 16.45q1.35 3.35 2.1 6.7v.05q4.95 18.2-8.55 22.45h-.05q-10.3 2.5-14.7-3.6-2.7.6-4.55-1.15-1.95-1.7-2.9-5.8-1-3.95-.45-10.75l2.05-1.4h.05q-.75 7.5.25 11.65.85 3.4 2.3 4.85l.15.1q.85.65 2 .65l-.35-.8q-.2-.4-.05-.75l.45-.5.1-.05.75-.05.55.55q1 2.25 2.6 3.65 3.9 3.25 11.25 1.5 11.6-3.95 7.2-20.1l-.05-.05q-.75-3.6-2.35-7.25l2.2.1" fill="#120e16"/></g><g id="q" fill-rule="evenodd"><path d="m36.2 43.6-.5.6-.95.15q-11.5-3.05-18.45-.1-9.95 6.2-8.85 18.55Q9.15 77.4 16 79.1l.45.2.3.3q.25.45.15.95l-.55.75-.9.2Q6.95 79.9 5 63.05 3.8 49.1 15.05 42.1l.15-.05q7.6-3.45 20.2-.1.45.15.7.6.3.45.15.95l-.05.1M7.45 62.8v-.05.05" fill="#130f17"/><path d="M7.45 62.8q-1.1-12.35 8.85-18.55 6.95-2.95 18.45.1l.95-.15.5-.6q6.4 2.65 3.2 15.15-4.5 18.3-22.95 20.55l-.45-.2q-6.85-1.7-8.55-16.3" fill="#4d3957"/><path d="m103.1 161.2 6.35-2.25q25.1-10.4 32.85-34.4 4.6-16.35-.55-29.2-.2-.45 0-.9l.2-.3.45-.4q.5-.2 1 0l.65.7q5.5 13.55.6 30.8v.05q-8.1 25.05-34.25 35.9v.05q-25.7 10.05-55.3 6.7l-.95-.1h-.05q-27.05-2.1-41.35-13.3l-.05-.1Q2.35 145 .3 132.45v-.1q-.9-8 1.05-16.4l.35.65v.05l.05.45 1.1 1.9.35.5q-1.1 6.35-.5 12.55 2 11.7 11.65 20.55 13.8 10.75 39.95 12.8l1.05.1q25.35 2.85 47.75-4.3M27.4 56.7l-.05.75-.7.65q-6.6 2.9-10.95 5.8-6.25 4.1-7.9 8.15l-.35.5q-3 6.15-1.95 24.05l.05.75-.4.45-.55.65-.2.45-1.15 1.55L3 96.8v-.05Q1.95 77.6 5.35 71.25l.2-.35q3.1-7.55 20.15-15.05.45-.2.9 0 .5.15.7.65l.1.2M5.7 99.25h-.2l.15-.15.05.15m-3 32.8v.05-.05" fill="#6f668f"/><path d="m5.55 97.35.4-.4q7.4-7.85 12.8-7l.2.05q6.7 3.2 5.65 14.85-.9 9.05-6.05 14.55l-.05.05q-4.9 4.4-10.4 3.5h-.05Q5.1 122 3.2 119.5l-.35-.5-1.1-1.9-.05-.45v-.05l-.35-.65.55-2q1.55-6.35 1.35-13.5L4.4 98.9l.2-.45.55-.65.4-.45m97.75 6.75q7.7 16.8-.35 26.25-5.3 6.45-21.45 2.8l-.1-.05q-16.65-6.7-21.1-20.2l-.2-.6v-.05q-2.45-13.45 5.65-19 .2-.2.45-.3l.05-.05q9.7-7.8 23.8-1.8h.05q9.75 5.1 13.2 13m-1.35.6Q98.7 97.25 89.4 92.4q-13.2-5.55-22.3 1.7h-.05l-.3.25-.1.1q-7.35 5.1-5.1 17.45l.15.5v.05Q66 125.3 81.9 131.7q14.95 3.4 19.95-2.3 7.35-8.85.1-24.7m-84.3 13.9q4.85-5.3 5.75-13.85.9-10.55-4.9-13.6-5.15-.55-12.4 7.5v-.05l-.45.5-.15.15h.2q.4 8.2-1.45 15.35l-.75 3.2.35.5q1.75 2.55 4.55 3.45 4.85.7 9.25-3.15l.05-.05-.05.05m3.6 7.9h.3q6.45 1.35 15.7 1.35l.35.1.2.25.05.35q-.55 5.2-3.6 7.3-3 2.15-8.35 1.15l-.15-.05q-5.55-2.45-4.95-9.9l.15-.35.3-.2m4.9 9.3q4.75.8 7.4-.95 2.35-1.75 3-5.75-8.45-.05-14.55-1.25-.2 5.9 4.15 7.95" fill="#120e16"/><path d="m34.35 157.4-.05.05q-.15.2-.45.2-.2 0-.4-.2-5.55-5.4-4-8.85l.15-.2q2.95-3.5 10.2 2.1v.05q4.7 4.3 3.7 8.4l-.3.35-.45.1-.35-.2-.05-.1-.1-.45q.75-3.45-3.25-7.2l.05.05-.5-.35q-5.65-4.25-8-2-.75 2.35 2.35 5.95l1.4 1.45.2.45-.15.4" fill="#530f0f"/><path d="M103.1 161.2q8.75-4.9 15.7-14.35-.55-.55-5.75-.7L118.8 136l-5.35.2q3.25-21.8-3.95-39.5 1.1-5.6 1.2-9.5-4 .2-6.1 1.2 2.55-4.95 3.75-9.5l-9.9-.8q-.65-.9 1.6-4.7l-9.4.35q-13.95.7-20.05 4.75-13.05 2.4-36.15-3.15L33 73.75q-6.6-6.8-17.3-9.85 4.35-2.9 10.95-5.8l.7-.65.05-.75q12.55-3.6 23.7-5.45 22-3.7 38.25-.6 42.25 4.4 52.6 43.5l-.2.3q-.2.45 0 .9 5.15 12.85.55 29.2-7.75 24-32.85 34.4l-6.35 2.25" fill="#b8b0f3"/><path d="M15.7 63.9q10.7 3.05 17.3 9.85l1.45 1.6q23.1 5.55 36.15 3.15 6.1-4.05 20.05-4.75l9.4-.35q-2.25 3.8-1.6 4.7l9.9.8q-1.2 4.55-3.75 9.5 2.1-1 6.1-1.2-.1 3.9-1.2 9.5 7.2 17.7 3.95 39.5l5.35-.2-5.75 10.15q5.2.15 5.75.7-6.95 9.45-15.7 14.35-22.4 7.15-47.75 4.3l-1.05-.1q-26.15-2.05-39.95-12.8-9.65-8.85-11.65-20.55-.6-6.2.5-12.55 1.9 2.5 4.85 3.45h.05q5.5.9 10.4-3.5l.05-.05q5.15-5.5 6.05-14.55Q25.65 93.2 18.95 90l-.2-.05q-5.4-.85-12.8 7l-.4.4-.05-.75Q4.45 78.7 7.45 72.55l.35-.5Q9.45 68 15.7 63.9m87.6 40.2q-3.45-7.9-13.2-13h-.05q-14.1-6-23.8 1.8l-.05.05q-.25.1-.45.3-8.1 5.55-5.65 19v.05l.2.6q4.45 13.5 21.1 20.2l.1.05q16.15 3.65 21.45-2.8 8.05-9.45.35-26.25m-82.05 22.4-.3.2-.15.35q-.6 7.45 4.95 9.9l.15.05q5.35 1 8.35-1.15 3.05-2.1 3.6-7.3l-.05-.35-.2-.25-.35-.1q-9.25 0-15.7-1.35h-.3m21.15 32.7.35.2.45-.1.3-.35q1-4.1-3.7-8.4v-.05q-7.25-5.6-10.2-2.1l-.15.2q-1.55 3.45 4 8.85.2.2.4.2.3 0 .45-.2l.05-.05q4.8 3.85 8.05 1.8" fill="#fff"/><path d="M101.95 104.7q7.25 15.85-.1 24.7-5 5.7-19.95 2.3-15.9-6.4-20.2-19.25v-.05l-.15-.5q-2.25-12.35 5.1-17.45l.1-.1.3-.25h.05q9.1-7.25 22.3-1.7 9.3 4.85 12.55 12.3m-96.3-5.6.45-.5v.05q7.25-8.05 12.4-7.5 5.8 3.05 4.9 13.6-.9 8.55-5.75 13.85-4.4 3.85-9.25 3.15-2.8-.9-4.55-3.45l-.35-.5.75-3.2q1.85-7.15 1.45-15.35l-.05-.15m20.5 36.7q-4.35-2.05-4.15-7.95 6.1 1.2 14.55 1.25-.65 4-3 5.75-2.65 1.75-7.4.95" fill="#4d3957"/><path d="M32.9 155.1q-3.1-3.6-2.35-5.95 2.35-2.25 8 2-4.05.3-5.65 3.95" fill="#932a2a"/><path d="m34.35 157.4.15-.4-.2-.45-1.4-1.45q1.6-3.65 5.65-3.95l.5.35-.05-.05q4 3.75 3.25 7.2l.1.45.05.1q-3.25 2.05-8.05-1.8" fill="#e76060"/><path d="M23.75 16.25q8.9.9 23.85.5l.3.1.15.2 2.75 5.65q1.65-8.45 3-12.05l.15-.2q.1-.1.3-.1l.25.05.2.25.15.35.2.15.1.5v.05q4.4 10.5 7.35 14.85.4-8 1.75-13.75l.2-.3.4-.05.3.2q1.25 1.95 2.1 3.85l.1-1.95.1-.2.2-.2q5.8-2.85 13.2-4.5 8.75-2 19.8-2.3Q79.6 1.9 60.8 2.5q-12.6.45-24.2 3.6l-4.4 1.3h-.05l-11.2 3-1.45.35-.25 2.15-.35.65-.15.15-.5.25-.7-.05q-3.85-1.55-6.75-3.55 1.35 6.6 3.75 9.7l-.95-5.25q-.05-.2.05-.35l.25-.2h.35q3.25 1.3 9.5 2M17.2 9.6q0-.35.3-.65.25-.3.55-.4L31.5 5l-.05.05q31.9-10.3 71.55.35l.25.05 9.45 1.3q18.55 3.4 28.8 12.25.4.3.45.8.05.5-.25.9l-1.25 1.5q5.5-1.6 8.9 2.75.3.35.25.85l-.35.8-.75.35q-4.8.45-8 3.45l-.2.2v-.05q-10 10.25-17.9 25.75l.2.45-.25.55-.5.2h-.05l-.1.2-.75.65-.9-.1-.65-.65q-26.6 1.2-48 21.25-.2.2-.5.2l-.2-.05-.05.05-6.65.9-4.95.05-9.2-.6-8.45-.55q-4.55 0-9.05 1.2l-.2.05h-.05l-.15.05h-.55l-.4-.4v-.5l-8.25-9.8-.3-.1q-3.95-1.8-8-1.75-6.4.25-11.55 7.3l-.2.25-.05.05-.1.05q-.15.1-.25.15l-.75.1-.6-.45q-.2-.35-.1-.75l.2-.4q-.45-8.3 5.9-13 5.2-3.65 9.75-4-11.8-26-8.1-49 .05-.45.4-.75.35-.3.8-.3l.8.25q2.65 2.2 6.4 3.85l.2-1.35M15 22l-.05-.05q-2.8-2.5-4.5-8.85-1.8 20.75 9.05 43.85l.75.15q2.85.55 5.45 2.5l.35.65-.15.75-.65.4-.75-.2-.3-.2q-7.05-4.9-16.1 1.5h.05q-4.6 3.45-5.1 9.05l.35-.4q4.95-5.4 11-5.5h.05q3.9-.05 7.75 1.45h.2q.3 0 .5.25l.05.05.3.1q1.9.85 3.75 2.05l.45.65-.15.75-.65.4-.35.05 6 7.15q4.55-1.2 9.1-1.2l8.6.6 9.05.6 4.85-.1 5.6-.75q-8-10.75-12.15-22.95-6.2-18.2-3.9-39.6-.9 3.6-1.95 9.2l-.15.3-.3.1-.3-.05-.2-.2-3.2-6.7q-24.3.6-32.65-2.35l1.15 6.1-.05.3-.2.2-.3.05-.3-.1m53.05-3.2-.1.3-.3.15-.35-.1-.2-.25q-.75-2.3-2.15-4.65-1.25 5.8-1.55 13.8l-.1.25-.2.2h-.3l-.25-.15q-3-3.8-7.65-14.7-4.55 36.45 15.9 63.7 21.8-20.2 48.95-21.25 8.25-16.5 18.8-27.25l.1-.1.1-.1.05-.05q2.8-2.65 6.7-3.65-3.4-1.65-8.65 1.75l-.9.15q-.55-.1-.8-.55-.3-.4-.2-.9l.45-.7.15-.2 3.45-4.4q-9.75-7.8-26.75-10.95l-5.75-.85Q82.6 8 68.35 14.9l-.3 3.9" fill="#3a0986"/><path d="M80.85 9.65q-7.4 1.65-13.2 4.5l-.2.2-.1.2-.1 1.95q-.85-1.9-2.1-3.85l-.3-.2-.4.05-.2.3q-1.35 5.75-1.75 13.75-2.95-4.35-7.35-14.85v-.05l-.1-.5-.2-.15-.15-.35-.2-.25-.25-.05q-.2 0-.3.1l-.15.2q-1.35 3.6-3 12.05l-2.75-5.65-.15-.2-.3-.1q-14.95.4-23.85-.5l-2.4-.85-2.6-1.65.15-.2.35-.65.25-2.15 1.45-.35 1.5.75q1.4.8 2.45.8l7.7-3.9 4-1.95q11.6-3.15 24.2-3.6l-.8.4q-2.65 1.35-4.4 2.55v.2l3.35-.4h3.1l3.6.15 4.75 1.05-2.25.9q-1.7.75-2.5 1.65l8.65-.05 6.55.7M14.95 22H15l.3.1.3-.05.2-.2.05-.3-1.15-6.1q8.35 2.95 32.65 2.35l3.2 6.7.2.2.3.05.3-.1.15-.3q1.05-5.6 1.95-9.2-2.3 21.4 3.9 39.6L54.9 51.4l-.1-.15v.2L56 65.5v3.35h-.4q-1.95-1.55-4.15-4.4l-3.75-4.9v2.95l.4 3q-1.1-2.35-3.45-5.6l-3.85-5.3-.4 8.7.2 3.55q-2.25-4.35-4.05-5.45l-.1-.05v.2l-.2 4.1.2 3.4-3.85-3.8q-2.2-2.1-3.65-2.55l-2.2-.4 1.8 2.4v.4q-1.65-.9-4-1.15l-5.2-.05-5.2.15-2.15.45q3.35-2.05 6.55-2.75L24.2 61l.3.2.75.2.65-.4.15-.75-.35-.65q-2.6-1.95-5.45-2.5-.45-1.65-1.15-5.45-1.05-5.35-1.05-6.5 0-.25.15-.4l.65-.6q1.85 6.5 5.15 8.5Q21.95 47 22.4 38.8q-2.7-6.45-3.55-14.8-1.75 5.75-1.15 14.6-2.4-6.3-2.75-16.6m32.95 2.65q-.2-2.65-.6-4.1l-.75 4.15Q46 27.1 46 29.05l-2.55-6.55q-.55 10.8 1.7 20.45l.3-4.45h.1q.2 1.75 1.4 4.15l1.25 2.9q.75 1.25 1.65 5.25.8 3.35 1.65 5l-1.25-12.3q-.05-4.8-.5-7.55l-1.35-7.5q-.3-1.1-.5-3.8m-23.75 2.3q-1.25 2.5-1.05 7.9.95 4.25 2.8 8.2-1.55-8.9-1.75-16.1" fill="#6a4c99"/><path d="M14.95 21.95V22q.35 10.3 2.75 16.6-.6-8.85 1.15-14.6.85 8.35 3.55 14.8-.45 8.2 1.6 13.85-3.3-2-5.15-8.5l-.65.6q-.15.15-.15.4 0 1.15 1.05 6.5.7 3.8 1.15 5.45l-.75-.15Q8.65 33.85 10.45 13.1q1.7 6.35 4.5 8.85M24.2 61l-5.65.75q-3.2.7-6.55 2.75-1.25.3-2.35.85-2.1 1-3.9 2.65-1.45 1.3-2.35 3.15l-.35.4q.5-5.6 5.1-9.05H8.1q9.05-6.4 16.1-1.5m-.05-34.05q.2 7.2 1.75 16.1-1.85-3.95-2.8-8.2-.2-5.4 1.05-7.9m23.75-2.3q.2 2.7.5 3.8l1.35 7.5q.45 2.75.5 7.55l1.25 12.3q-.85-1.65-1.65-5-.9-4-1.65-5.25l-1.25-2.9q-1.2-2.4-1.4-4.15h-.1l-.3 4.45q-2.25-9.65-1.7-20.45L46 29.05q0-1.95.55-4.35l.75-4.15q.4 1.45.6 4.1" fill="#9c8cb6"/><path d="M23.75 16.25q-6.25-.7-9.5-2h-.35l-.25.2q-.1.15-.05.35l.95 5.25q-2.4-3.1-3.75-9.7 2.9 2 6.75 3.55l.7.05.5-.25v.05l2.6 1.65 2.4.85m-2.8-5.85 11.2-3h.05l4.4-1.3-4 1.95-7.7 3.9q-1.05 0-2.45-.8l-1.5-.75M60.8 2.5q18.8-.6 39.85 4.85-11.05.3-19.8 2.3l-6.55-.7-8.65.05q.8-.9 2.5-1.65l2.25-.9-4.75-1.05-3.6-.15h-3.1l-3.35.4v-.2q1.75-1.2 4.4-2.55l.8-.4M12 64.5l2.15-.45 5.2-.15 5.2.05q2.35.25 4 1.15v-.4l-1.8-2.4 2.2.4q1.45.45 3.65 2.55l3.85 3.8-.2-3.4.2-4.1.1-.15q1.8 1.1 4.05 5.45l-.2-3.55.4-8.7 3.85 5.3q2.35 3.25 3.45 5.6l-.4-3v-2.95l3.75 4.9q2.2 2.85 4.15 4.4h.4V65.5l-1.2-14.05.1-.05 2.45 3.35Q61.5 66.95 69.5 77.7l-5.6.75-4.85.1-9.05-.6-8.6-.6q-4.55 0-9.1 1.2l-6-7.15.35-.05.65-.4.15-.75-.45-.65q-1.85-1.2-3.75-2.05l-.3-.1-.05-.05q-.2-.25-.5-.25h-.2q-3.85-1.5-7.75-1.45h-.05q-6.05.1-11 5.5.9-1.85 2.35-3.15 1.8-1.65 3.9-2.65 1.1-.55 2.35-.85" fill="#4d4689"/><path d="m68.05 18.8.3-3.9Q82.6 8 106.5 8.3l5.75.85q17 3.15 26.75 10.95l-3.45 4.4-.15.2-.45.7q-.1.5.2.9.25.45.8.55l.9-.15q5.25-3.4 8.65-1.75-3.9 1-6.7 3.65l-.05.05-.1.1-.1.1Q128 39.6 119.75 56.1 92.6 57.15 70.8 77.35 50.35 50.1 54.9 13.65q4.65 10.9 7.65 14.7l.25.15h.3l.2-.2.1-.25q.3-8 1.55-13.8 1.4 2.35 2.15 4.65l.2.25.35.1.3-.15.1-.3" fill="#362f7a"/><path d="m110.7 60.3-.2-.25q-.3-.4-.2-.9.05-.5.45-.8 14.95-10.8 29.25-7.5 11.15 2.45 17.1 10.55l.1.15q5.75 10.15 3.5 25.45l-.05.15q-3.8 13.5-14.3 18.15l-.1.05q-8.05 2.9-15.3 1.25l-.75-.55q-.25-.45-.15-.95.1-.5.55-.75l.25-.15h.7q6.55 1.5 13.9-1.2 9.35-4.25 12.8-16.4 1.9-12.85-2.2-21.85l-.95-1.95q-5.5-7.3-15.6-9.55h-.05q-9.4-2.1-19.1 2.35-4.05 1.8-8.1 4.75l-.95.25-.6-.3m29.55 13.9q1.05 3 1.05 6.7l-.15 2.6v.05q-1.3 7.7-4.75 10.7-2.4 2.05-5.8 1.85-.25 0-.4-.2l-.15-.45.2-.4q.15-.15.4-.15 7.3.2 9.3-11.55l-.05.05q1.1-11.15-6.6-16.2-5.9-3.6-13.85.4l-.45.05-.35-.3-.05-.5.3-.35 1.8-.85q7.55-3.1 13.25.5 4.6 3 6.3 8.05" fill="#120e16"/><path d="M120.35 55.6q9.7-4.45 19.1-2.35h.05q10.1 2.25 15.6 9.55l.95 1.95q-1.4-.9-3.7-1.25l-3.6-.4-3.35-.75-.15-.05.1.1q2.3.7 4.95 3.1l4.3 4.35-.15.15-.5-.25-2.8-.35-3.1-.2-1.55.25-2.05.05H144v.1l2.4 2 2.4 2.35 2.8 2.25q1.8 1.15 2.25 1.3l-2.65-.2-6.5-.9q-2.3-.7-3.9-1.8l-.55-.4q-1.7-5.05-6.3-8.05-5.7-3.6-13.25-.5-5.2-2.7-.35-10.05m20.95 25.3q1.2 4.2 3.45 7.1 2.75 3.65 9.9 4.05-3.15 2.15-8 2.45-4.65-.9-6.6-4.05-.8 4.6 1.65 8.9-3.5-.45-5.3-5.1 3.45-3 4.75-10.7v-.05l.15-2.6" fill="#4d3957"/><path d="m110.7 60.3.6.3.95-.25q4.05-2.95 8.1-4.75-4.85 7.35.35 10.05l-1.8.85-.3.35.05.5.35.3.45-.05q7.95-4 13.85-.4 7.7 5.05 6.6 16.2l.05-.05q-2 11.75-9.3 11.55-.25 0-.4.15l-.2.4.15.45q.15.2.4.2 3.4.2 5.8-1.85 1.8 4.65 5.3 5.1-2.45-4.3-1.65-8.9 1.95 3.15 6.6 4.05 4.85-.3 8-2.45-7.15-.4-9.9-4.05-2.25-2.9-3.45-7.1 0-3.7-1.05-6.7l.55.4q1.6 1.1 3.9 1.8l6.5.9 2.65.2q-.45-.15-2.25-1.3l-2.8-2.25-2.4-2.35-2.4-2v-.1h.45l2.05-.05 1.55-.25 3.1.2 2.8.35.5.25h.3l-.15-.15-4.3-4.35q-2.65-2.4-4.95-3.1l.05-.05 3.35.75 3.6.4q2.3.35 3.7 1.25 4.1 9 2.2 21.85-3.45 12.15-12.8 16.4-7.35 2.7-13.9 1.2h-.7q-.4-2.15-.85-6.1l-.75-5.95.15-2.85.25-3.65q.1-1.5-.55-5.4l-.65-4.2-2.1 1.2q-1.05.4-1.5 1.4l-.05-.05q.5-2.05.05-4.35l-.6-2.65h-.8l-2.6 1.45q-1.5.9-1.95 1.8l-.1-2.05q0-1.4.6-3.65v-.5h-.7l-1.65.55-1.4.9q-.4-.5-.5-1.35V67.3q0-1.55.75-3.45l.7-1.75q0-.5-1.25-.75l-1.45-.2-1.8.3-1.5.55-.1-.7.2-1" fill="#261f30"/><path d="m19.4 107.9.05-.2q.4-3.8-1.4-6.75-1.85-2.8-4.75-3.15-2.7-.3-4.95 1.7l-.3.35H8q-1.9 1.95-2.55 4.7l-.3 1.6q-.2 2 .2 3.8.3 1.2.9 2.3l.35.55.8 1.1q1.55 1.75 3.75 2.1h.2q2.45.25 4.55-1.4l.7-.65 1.5-1.95.8-1.85.5-2.25m-.1-7.75q2.1 3.35 1.6 7.7-.45 4.35-3.25 7.1-2.9 2.95-6.5 2.55-3.6-.4-5.8-3.9-2.15-3.3-1.65-7.65.45-4.35 3.25-7.15 2.95-2.9 6.5-2.45 3.6.35 5.85 3.8M92 118.7q3.4-3.9 3.4-9.2 0-5.9-4.15-10.05-4.15-4.2-10-4.2-3.3 0-6.05 1.35-2.1 1.05-3.9 2.85l-1.8 2.2q-2.3 3.45-2.3 7.85 0 3.5 1.45 6.4l.15.2q.95 1.85 2.5 3.45 4.15 4.15 9.95 4.15h.1q3.8-.05 6.9-1.8 1.6-.95 3-2.35l.75-.85M81.25 93.8q6.5 0 11.1 4.6 4.5 4.6 4.5 11.1 0 6.45-4.5 11.1h-.05q-4.6 4.55-11.05 4.55-6.45 0-11-4.55-4.55-4.65-4.55-11.1 0-6.5 4.55-11.1t11-4.6" fill="#0d1a51"/><path d="M8.35 99.5q1.15.1 2 .95.8.8.95 1.9v.35q0 1.35-.95 2.25-.95.95-2.25.95-1.2 0-2.05-.75l-.25-.2-.35-.4q.65-2.75 2.55-4.7h.05l.3-.35m3.3 3-.1-.65q0-.7.35-1.15.4-.45.95-.45.55 0 .9.45.4.45.4 1.15 0 .65-.4 1.1-.35.45-.85.5h-.05q-.55 0-.95-.5l-.25-.45m63.55-5.9 1.65.4q1.95.8 2.65 2.9l.3 1.8q.05 1.25-.55 2.6-.9 2.25-2.95 3.2l-3.95.2-.75-.4q-1.35-.85-1.9-2.55-.5-1.55-.2-3.1l1.8-2.2q1.8-1.8 3.9-2.85m5.8 5.6.15-.7q.4-1 1.3-1.45l1.7-.2q.8.3 1.15 1.25.3.95-.1 1.95-.35 1.05-1.2 1.5l-.35.2q-.7.25-1.35 0-.85-.3-1.2-1.25-.2-.65-.1-1.3" fill="#fff"/><path d="m11.3 102.35.35.15.25.45q.4.5.95.5h.05l.4.5q1.15 1.7 1 3.9l-.4 1.9-1.05-.15q-1.4 0-2.45 1-.9.95-.95 2.3l-.4-.05.05-.4q0-.6-.45-1.05-.4-.45-1-.45-.55 0-.95.4l-.15-.25-.7-1.35q-.4-1.15-.3-2.55.1-1.1.5-2.05.85.75 2.05.75 1.3 0 2.25-.95.95-.9.95-2.25v-.35m68.5-.65 1.2.5q-.1.65.1 1.3.35.95 1.2 1.25.65.25 1.35 0 1.2 1.9 1.2 4.4 0 1.75-.6 3.25l-.7-.05q-2.5 0-4.25 1.7-1.25 1.2-1.6 2.85-2.55-.2-4.35-2.25l-.7-.95-.15-.25q-1.1-1.9-1.1-4.3l.2-1.85.75.4 3.95-.2q2.05-.95 2.95-3.2.6-1.35.55-2.6" fill="#0d1a55"/><path d="m19.4 107.9-.2-.2-1.05-.2q-1.9 0-1.9 1.55l.1.85-.05.05-.8-.2h-.7l-.65.15v-.05l-.25-.1.4-1.9q.15-2.2-1-3.9l-.4-.5q.5-.05.85-.5.4-.45.4-1.1 0-.7-.4-1.15-.35-.45-.9-.45t-.95.45q-.35.45-.35 1.15l.1.65-.35-.15q-.15-1.1-.95-1.9-.85-.85-2-.95 2.25-2 4.95-1.7 2.9.35 4.75 3.15 1.8 2.95 1.4 6.75l-.05.2m-2.4-2.5-.8.25q-.3.3-.3.65 0 .35.3.55.3.3.8.3l.8-.3.3-.55-.3-.65-.8-.25m58.2-8.8q2.75-1.35 6.05-1.35 5.85 0 10 4.2 4.15 4.15 4.15 10.05 0 5.3-3.4 9.2l.3-1.7q0-1.7-.85-2.9l.45-.3v-.05l.15-.15h1.55q1.2-.2 1.2-1.1 0-1.35-1.7-2.3-1.45-.8-2.95-.8l-1.2.25q-.45.2-.55.7-.1.45.15.75l.45.8h.05l-.1.6v.05l-2-.05-1.3.2-1.4-.3q.6-1.5.6-3.25 0-2.5-1.2-4.4l.35-.2q.85-.45 1.2-1.5.4-1 .1-1.95-.35-.95-1.15-1.25l-1.7.2q-.9.45-1.3 1.45l-.15.7-1.2-.5-.3-1.8q-.7-2.1-2.65-2.9l-1.65-.4m-6.55 19.3q-1.45-2.9-1.45-6.4 0-4.4 2.3-7.85-.3 1.55.2 3.1.55 1.7 1.9 2.55l-.2 1.85q0 2.4 1.1 4.3l-.25-.1-.4-.05q-1.3 0-2.2.8-.9.8-.9 1.75l-.1.05m24.15-8.2q0-.55-.5-.95-.45-.35-1.1-.35-.6 0-1.1.35-.45.4-.45.95 0 .55.45.9.5.4 1.1.4.65 0 1.1-.4.5-.35.5-.9m-21.9 3.75q-.2-.4-.75-.45l-1.05.25q-.6.35-.9.85-.25.5-.1.85.2.4.75.45l1.1-.35.85-.75q.3-.5.1-.85m-2.6-.9.7.3.65-.3.25-.7-.25-.7q-.3-.3-.65-.3-.4 0-.7.3-.25.3-.25.7 0 .45.25.7m-62.25-5.4q-.4.95-.5 2.05-.1 1.4.3 2.55l-.5.2q-.4-1.8-.2-3.8l.3-1.6.35.4.25.2" fill="#2651a8"/><path d="m17 105.4.8.25.3.65-.3.55-.8.3q-.5 0-.8-.3-.3-.2-.3-.55 0-.35.3-.65l.8-.25m-.65 4.5-.1-.85q0-1.55 1.9-1.55l1.05.2.2.2-.5 2.25-.35-.5q-.4-.45-1-.45t-1 .45l-.2.25m-2.2 0 .65-.15h.7l.8.2-.2.7q0 .6.45 1 .4.45 1 .45l.55-.1-1.5 1.95-.7.65q.35-.7.35-1.6 0-1.4-1-2.4l-1.1-.7m71.5 2.8 1.3-.2 2 .05q0 .7.5 1.2.5.55 1.25.55l.75-.2q.85 1.2.85 2.9l-.3 1.7-.75.85q-1.4 1.4-3 2.35 1.3-1.6 1.3-3.7 0-2.45-1.75-4.15-.95-.95-2.15-1.35m3.35-.8-.45-.8q-.25-.3-.15-.75.1-.5.55-.7l1.2-.25q1.5 0 2.95.8 1.7.95 1.7 2.3 0 .9-1.2 1.1h-1.55q.35-.45.35-1.1 0-.75-.5-1.3-.5-.5-1.2-.5-.75 0-1.25.5l-.4.7H89m-7.75 11.8q-5.8 0-9.95-4.15-1.55-1.6-2.5-3.45l-.05-.25q0-.95.9-1.75t2.2-.8l.4.05.25.1.15.25.7.95q1.8 2.05 4.35 2.25-.15.6-.15 1.3l.1.9q.25 1.85 1.65 3.25.9.85 2 1.3l-.05.05m11.55-16q0 .55-.5.9-.45.4-1.1.4-.6 0-1.1-.4-.45-.35-.45-.9t.45-.95q.5-.35 1.1-.35.65 0 1.1.35.5.4.5.95m-24.5 2.85q-.25-.25-.25-.7 0-.4.25-.7.3-.3.7-.3.35 0 .65.3l.25.7-.25.7-.65.3-.7-.3m2.6.9q.2.35-.1.85l-.85.75-1.1.35q-.55-.05-.75-.45-.15-.35.1-.85.3-.5.9-.85l1.05-.25q.55.05.75.45m1.95 3.45-.6-.2q-.35 0-.6.2-.25.3-.25.65l.25.6.6.25.6-.25.3-.6-.3-.65m.15 4.2q0 1 .65 1.7.7.7 1.65.7t1.65-.7q.65-.7.65-1.7 0-.95-.65-1.65-.7-.7-1.65-.7t-1.65.7q-.65.7-.65 1.65m-67.15-9.35.7 1.35.15.25-.05.05q-.35.35-.4.85-.6-1.1-.9-2.3l.5-.2m3.2 3.1.4.05v.1q0 1.45.95 2.4l.75.6q-2.2-.35-3.75-2.1l.25.05q.6 0 1-.45l.4-.65" fill="#0076e9"/><path d="m13.9 109.75.25.1-.05.05h.05l1.1.7q1 1 1 2.4 0 .9-.35 1.6-2.1 1.65-4.55 1.4h-.2l-.75-.6q-.95-.95-.95-2.4v-.1q.05-1.35.95-2.3 1.05-1 2.45-1l1.05.15m2.4.2.05-.05.2-.25q.4-.45 1-.45t1 .45l.35.5-.8 1.85-.55.1q-.6 0-1-.45-.45-.4-.45-1l.2-.7m67.95 2.45 1.4.3q1.2.4 2.15 1.35 1.75 1.7 1.75 4.15 0 2.1-1.3 3.7-3.1 1.75-6.9 1.8l-.05-.05q-1.1-.45-2-1.3-1.4-1.4-1.65-3.25l-.1-.9q0-.7.15-1.3.35-1.65 1.6-2.85 1.75-1.7 4.25-1.7l.7.05m4.7.15v-.05l.1-.6.4-.7q.5-.5 1.25-.5.7 0 1.2.5.5.55.5 1.3 0 .65-.35 1.1l-.15.2-.45.3-.75.2q-.75 0-1.25-.55-.5-.5-.5-1.2m-16.1 2.35.3.65-.3.6-.6.25-.6-.25-.25-.6q0-.35.25-.65.25-.2.6-.2l.6.2m.15 4.2q0-.95.65-1.65.7-.7 1.65-.7t1.65.7q.65.7.65 1.65 0 1-.65 1.7-.7.7-1.65.7t-1.65-.7q-.65-.7-.65-1.7m-66.3-7.75q.4-.4.95-.4.6 0 1 .45.45.45.45 1.05l-.05.4-.4.65q-.4.45-1 .45l-.25-.05-.8-1.1-.35-.55q.05-.5.4-.85l.05-.05" fill="#0ff"/></g><g id="r" fill-rule="evenodd"><path d="M19.7 5.95Q23.15.45 28.8 0h.1q6.2.4 9.4 5.15l.05.1q2.05 4.8.1 9.4v.05q-1.75 3.65-6.1 4.65l-1.3.25.35-1.5v-.05q4.1-.75 5.7-4 1.3-3.1.55-6.25L37 5.9l-.95-1.2q-2.7-2.9-7.15-3.25-4.5.45-7.45 4.55l-.6.85-.65-.15-.15-.4-.35-.35" fill="#855d31"/><path d="M13.55 34Q3.8 41.65 1.1 39.7l-.25-.2Q-2 36.9 4.7 27.9l.4.4.9.1.85.75q-5.1 6.75-4.3 8.5l1.35-.25q2.4-.9 7.65-5l.3.15.2.1.3.05 2.15.05-.45.85-.5.4" fill="#09263b"/><path d="m19.7 5.95.35.35.15.4.65.15Q22.5 7.4 24 8.3q3.45 2 5.9 5.75l1.5 2.65.1.35-.1 1v.05l-.35 1.5 1.3-.25q.55 7.5-3 10.55-1.5 1.35-3.2 1.35l-.15.3Q23.15 36 13.55 34l.5-.4.45-.85-2.15-.05-.3-.05-.2-.1-.3-.15-2.8-1.75-1.9-1.5L6 28.4l-.9-.1-.4-.4-.2-.4-.15-.45V27Q1.9 18.1 8.1 11.25l.1-.05 3.15-2.95.05-.1q3.05-2.45 6.05-2.55l1.8.15.45.2m8.8 8.65q-3.45-5-8.95-6.55l-.8.1-1.1-.05h-.05q-2.3.1-4.6 2l-3.1 2.85q-5.25 5.8-3.2 13.4l.15.5.05.15v.2l.45.45 2.85 2.25 2.25 1.35q4.1.65 5.35-3.2l-1.35-.45-.4-.4q-.15-.3 0-.6l.4-.35.55-.05q1.9.75 3.6.55l.4-.1h.15l.65-.15q1.7-.95 2.1-3.25l-1-.15-.45-.35q-.2-.25-.1-.55l.3-.45.55-.1q3.15.65 4.9-.4v-.05q1.15-.7 1.6-2.35l.1-.2.2-1.5-1.5-2.55m-9.2 13.7q-.8 2.6-2.5 3.7 4.8.5 6.8-1.45-1.35-.75-2.8-2.3l-1.5.05m9.55-5.8q-1.35.9-3.45.9-.5 3.15-2.95 4.45 3.35 3.05 5.95.95 2.85-2.6 2.5-8.75-.65 1.7-2.05 2.45" fill="#120e16"/><path d="M21.45 6q2.95-4.1 7.45-4.55 4.45.35 7.15 3.25l-4.1.1h-.1q-.1 3.05-2.4 3.95-3.55.75-5.4-.55-1.15-.85-1.65-2.35h-.1l-.85.15" fill="#ffffe9"/><path d="m20.85 6.85.6-.85.85-.15h.1q.5 1.5 1.65 2.35 1.85 1.3 5.4.55 2.3-.9 2.4-3.95h.1l4.1-.1.95 1.2.65 1.9q-.35 4.25-2.65 5.75-2.75 1.3-5.1.5Q27.45 10.3 24 8.3q-1.5-.9-3.15-1.45" fill="#fff0ab"/><path d="M37.65 7.8q.75 3.15-.55 6.25-1.6 3.25-5.7 4l.1-1-.1-.35-1.5-2.65q2.35.8 5.1-.5 2.3-1.5 2.65-5.75" fill="#e9a861"/><path d="m10.2 29.9-2.85-2.25-.45-.45V27l-.05-.15-.15-.5q-2.05-7.6 3.2-13.4L13 10.1q2.3-1.9 4.6-2h.05l1.1.05.8-.1q5.5 1.55 8.95 6.55.2 2.9-1.3 4.7-3.3 1.5-6.35 0 .95 2.35-1.25 4.75-2.85 1.6-6.05-.4 2.05 2.15.6 5.4-1.5 1.1-3.95.85" fill="#4d3957"/><path d="M10.2 29.9q2.45.25 3.95-.85 1.45-3.25-.6-5.4 3.2 2 6.05.4 2.2-2.4 1.25-4.75 3.05 1.5 6.35 0 1.5-1.8 1.3-4.7l1.5 2.55-.2 1.5-.1.2q-.45 1.65-1.6 2.35v.05q-1.75 1.05-4.9.4l-.55.1-.3.45q-.1.3.1.55l.45.35 1 .15q-.4 2.3-2.1 3.25l-.65.15H21l-.4.1q-1.7.2-3.6-.55l-.55.05-.4.35q-.15.3 0 .6l.4.4 1.35.45q-1.25 3.85-5.35 3.2L10.2 29.9m9.1-1.6 1.5-.05q1.45 1.55 2.8 2.3-2 1.95-6.8 1.45 1.7-1.1 2.5-3.7m9.55-5.8q1.4-.75 2.05-2.45.35 6.15-2.5 8.75-2.6 2.1-5.95-.95 2.45-1.3 2.95-4.45 2.1 0 3.45-.9" fill="#261f30"/><path d="m6.85 29.15 1.9 1.5Q9.1 33.7 3.9 37.4l-1.35.25q-.8-1.75 4.3-8.5" fill="#3c98d4"/><path d="m8.75 30.65 2.8 1.75q-5.25 4.1-7.65 5 5.2-3.7 4.85-6.75" fill="#205b81"/></g><use ffdec:characterId="2" height="64.75" width="42" xlink:href="#k" id="c"/><use ffdec:characterId="4" height="27.65" width="24.95" xlink:href="#l" id="d"/><use ffdec:characterId="6" height="28.1" width="27.35" xlink:href="#m" id="e"/><use ffdec:characterId="8" height="71.05" width="84.95" xlink:href="#n" id="f"/><use ffdec:characterId="10" height="26.9" width="29.1" xlink:href="#o" id="g"/><use ffdec:characterId="12" height="46.4" width="32.75" xlink:href="#p" id="h"/><use ffdec:characterId="14" height="168.8" width="161.35" xlink:href="#q" id="i"/><use ffdec:characterId="20" height="40.1" width="39.4" xlink:href="#r" id="j"/><path d="M18.45-3.85q7.1 1.25 7.1 3 0 1.8-7.1 3l-17 1.25-17.05-1.25q-7.05-1.2-7.05-3 0-1.75 7.05-3L1.45-5.1l17 1.25" fill-opacity=".349" fill-rule="evenodd" transform="translate(22.65 5.1)" id="b"/></defs></svg>