<svg xmlns:ffdec="https://www.free-decompiler.com/flash" xmlns:xlink="http://www.w3.org/1999/xlink" ffdec:objectType="frame" height="100" width="100" xmlns="http://www.w3.org/2000/svg"><use ffdec:characterId="14" height="100.05" width="100" xlink:href="#a"/><defs><g id="a"><use ffdec:characterId="1" height="33.15" transform="matrix(.6346 0 0 .6347 12.7 78.65)" width="104.95" xlink:href="#b"/><use ffdec:characterId="2" height="28.4" transform="matrix(.6346 0 0 .6347 5.865 67.865)" width="35.8" xlink:href="#c"/><use ffdec:characterId="3" height="130.35" transform="matrix(.6346 0 0 .6347 36.75 2.8)" width="82.35" xlink:href="#d"/><use ffdec:characterId="4" height="127.85" transform="matrix(.6346 0 0 .6347 9.75 4.4)" width="113.65" xlink:href="#e"/><use ffdec:characterId="5" height="34.6" transform="matrix(.6346 0 0 .6347 24.15 7)" width="56.75" xlink:href="#f"/><use ffdec:characterId="6" height="24.05" transform="matrix(.6346 0 0 .6347 23.65 3.1)" width="56.15" xlink:href="#g"/><use ffdec:characterId="7" height="20.6" transform="matrix(.6346 0 0 .6347 30.599 15.921)" width="33.6" xlink:href="#h"/><use ffdec:characterId="8" height="26.85" transform="matrix(.6346 0 0 .6347 53.474 73.024)" width="38.65" xlink:href="#i"/><use ffdec:characterId="9" height="461.95" transform="scale(.1631 .2165)" width="612.95" xlink:href="#j"/></g><g id="c"><path d="m2.5 8.65 2.7-.2q5.2 0 6.45 2 .45.8.7 2.4l.4 3.15q.35 1.9 1.4 3.4.95 1.35 2.1 1.85l2.55 1 .85.25-2.15 1.3q-2.4.75-4.9.7-2.9-.05-5.55-1.3-2.8-1.4-5.15-3.65Q.85 18.1.25 16.65q-1-4.2 2.25-8m4.25 3.3q-1.55 0-2.6.7T3.1 14.4q0 1 1.05 1.7t2.6.7q1.5 0 2.55-.7 1.1-.7 1.1-1.7 0-1.05-1.1-1.75-1.05-.7-2.55-.7" fill="#ca842f" fill-rule="evenodd" transform="translate(1 1)"/><path d="M6.75 11.95q1.5 0 2.55.7 1.1.7 1.1 1.75 0 1-1.1 1.7-1.05.7-2.55.7-1.55 0-2.6-.7T3.1 14.4q0-1.05 1.05-1.75t2.6-.7" fill="#fad3a8" fill-rule="evenodd" transform="translate(1 1)"/><path d="m19.65 22.5-.85-.25-2.55-1q-1.15-.5-2.1-1.85-1.05-1.5-1.4-3.4l-.4-3.15q-.25-1.6-.7-2.4-1.25-2-6.45-2l-2.7.2Q4.45 6.2 8.05 4 19.35-1.3 25.6.4q5.75 2.3 7.5 6l.1 1.45-5.55 7.5q-2.95 3.85-8 7.15" fill="#8b5a21" fill-rule="evenodd" transform="translate(1 1)"/><path d="M19.65 22.5q5.05-3.3 8-7.15l5.55-7.5-.1-1.45q.7 1.5.7 3.3l-5.55 7.5q-3.55 4.65-10.15 8.45-2.4.75-4.9.75-2.9-.1-5.55-1.35-2.8-1.4-5.15-3.65Q.75 18.95.25 16.65q.6 1.45 1.65 2.9 2.35 2.25 5.15 3.65 2.65 1.25 5.55 1.3 2.5.05 4.9-.7l2.15-1.3" fill="#451602" fill-rule="evenodd" transform="translate(1 1)"/><path d="M34.1 7.4q-1.75-3.7-7.5-6Q20.35-.3 9.05 5 5.45 7.2 3.5 9.65q-3.25 3.8-2.25 8 .5 2.3 2.25 4.75 2.35 2.25 5.15 3.65 2.65 1.25 5.55 1.35 2.5 0 4.9-.75 6.6-3.8 10.15-8.45l5.55-7.5q0-1.8-.7-3.3z" fill="none" stroke="#451602" stroke-linecap="round" stroke-linejoin="round" stroke-width="2"/></g><g id="d"><path d="M2.3 3.55 0 2.5Q5.45.75 11.1.25q6.15-.55 12.3.1Q28.8.9 34.15 2q4.15.95 8.25 2.3 6.4 2 11.75 6.25 4.6 3.7 8.35 8.2 3.7 4.5 6.65 9.35 3.4 5.45 6.15 11.3l2.8 8.8q1.85 6.45 2.9 13.1 1.05 6.65 1.3 13.4.2 5.95-.15 11.85-.4 6.5-1.8 12.95-1.4 6.35-4.7 12.05-3.25 5.65-8.75 8.9-5.6 3.35-11.75 5.5-5.65 2-11.55 3.1l-10.9 1.2-5.75.1q-14.1-.45-1.35-1.5 23.3-2.8 32.5-7.05l5.25-2.7.15-.1.3-.15q.4-.3.9-.55l2.45-1.7.55-.35 1-.8 2.05-2.3 8.2-24.7.05-.6v-.05l.25-3.8.05-1.15V81.8l.05-3.05v-.05l.05-.4-.05-2.75-.05-1.45v-.8l-6-31.7-.7-2.1-1.7-3.45-.4-.75-10.2-15.95-5.2-5.6-1.8-1.65-1.65-1.2-5.1-3.15-9.35-3.2-.3-.05-.35-.1h-.1l-1.05-.25-18.85-2.4-3.35.1q-5.75.3-10.9 1.7" fill="#3b1205" fill-rule="evenodd"/><path d="M6.7 5.6 2.3 3.55q5.15-1.4 10.9-1.7l3.35-.1 18.85 2.4 1 .25h.1l.4.1.3.05 9.35 3.2 5.1 3.15 1.65 1.2 1.8 1.65 5.2 5.6L70.5 35.3l.4.75 1.7 3.45.7 2.1 6 31.7v.8l.05 1.45.05 2.75h-.05q-2.25 3.3-5.25 5.95l-1.15 1.1q.1-6.8-1.05-13.65-2.15-12.8-7.75-21.75V46.9q.65-2.5.5-4.95l-.05-.4q-.2-2.35-1.75-4.3l-.3-1.2q-2.1-7.5-6.85-13.95l.1-.6q0-.8-.6-1.4-.55-.55-1.35-.55h-.2l-.1-.1-2.5-2.6-1-1v-.65q0-1.95-1.35-3.3-1.35-1.35-3.3-1.35l-1 .15-.55.15Q33.25 3.8 19.6 3.8q-6.85 0-12.9 1.8" fill="#ca842f" fill-rule="evenodd"/><path d="M50.05 15.85q-.2 1.5-1.35 2.7-1.35 1.35-3.3 1.35-1.95 0-3.25-1.35-1.35-1.4-1.35-3.35 0-1.95 1.35-3.3.75-.75 1.7-1.05l.55-.15 1-.15q1.95 0 3.3 1.35 1.35 1.35 1.35 3.3v.65m3.6 3.7h.2q.8 0 1.35.55.6.6.6 1.4l-.1.6-.5.8q-.55.55-1.35.55-.85 0-1.45-.55-.55-.6-.55-1.4 0-.8.55-1.4.45-.4 1-.5l.25-.05" fill="#fad4a3" fill-rule="evenodd"/><path d="M47.4 34.1Q30.6 19.55 6.7 5.6q6.05-1.8 12.9-1.8 13.65 0 24.25 7.05-.95.3-1.7 1.05-1.35 1.35-1.35 3.3 0 1.95 1.35 3.35 1.3 1.35 3.25 1.35t3.3-1.35q1.15-1.2 1.35-2.7l1 1 2.5 2.6-.15.15q-.55.1-1 .5-.55.6-.55 1.4 0 .8.55 1.4.6.55 1.45.55.8 0 1.35-.55l.5-.8q4.75 6.45 6.85 13.95l.3 1.2-.45-.55q-2.25-2.4-5.4-3.35l-2.2-.3-.65.05-1.6.35-.85.25-.15-.85h-.2q-1.6.35-3.95 1.25" fill="#f0b46b" fill-rule="evenodd"/><path d="m46.35 124.3 7.7-4.75 6-4.65q3.4-3 7-17.15 3.55-14.2-1.1-31.75t-17.5-30.65q2.05-1.25 3.25-1.65l.85-.25 1.6-.35.65-.05 2.2.3q3.15.95 5.4 3.35l.45.55q1.55 1.95 1.75 4.3l.05.4q.15 2.45-.5 4.95l-.7 2 .7 1.05q5.6 8.95 7.75 21.75 1.15 6.85 1.05 13.65l-.1 2.3v.55l-.4 4.15v.25l-.85 5.35-.1.55-.35 1.45-.7 2.7-1.5 4.3-.25.85-1.1 2.35-.2.4-1.25 1.95-.45.65-.9 1.1-2.95 2.95-1.6 1.3q-2.4 1.65-6.8 3.45l-7.1 2.35" fill="#442604" fill-rule="evenodd"/><path d="M48.45 35.35q.55-1-1.05-1.25 2.35-.9 3.95-1.25h.2l.15.85q-1.2.4-3.25 1.65" fill="#f4d2ac" fill-rule="evenodd"/><path d="M25.6 128.85q16.85-3 20.75-4.55l7.1-2.35q4.4-1.8 6.8-3.45l1.6-1.3 2.95-2.95.9-1.1.45-.65 1.25-1.95.2-.4 1.1-2.35.25-.85 1.5-4.3.7-2.7.35-1.45.1-.55.85-5.35v-.25l.4-4.15v-.55l.1-2.3 1.15-1.1q3-2.65 5.25-5.95h.05l-.05.4v.05l-.05 3.05v1.05L79.25 84 79 87.8v.05l-.05.1q-.8.75-2.25 3.6-1.35 2.8-2.3 7.25-.95 4.35-2.45 7.55l-2.7 5.75q-1.25 2.55-1.55 3.65l-.55.85-2.45 1.7q-.5.25-.9.55l-.3.15-.15.1-5.25 2.7q-9.2 4.25-32.5 7.05" fill="#a86c26" fill-rule="evenodd"/><path d="m79 87.85-.05.6-8.2 24.7-2.05 2.3-1 .8-.55.35.55-.85q.3-1.1 1.55-3.65l2.7-5.75q1.5-3.2 2.45-7.55.95-4.45 2.3-7.25 1.45-2.85 2.25-3.6l.05-.1" fill="#f0c696" fill-rule="evenodd"/><path d="M62.85 37.25q1.55 1.95 1.75 4.3l.05.4q.15 2.45-.5 4.95l-.7 2 .7 1.05q5.6 8.95 7.75 21.75 1.15 6.85 1.05 13.65l-.1 2.3v.55l-.4 4.15v.25l-.85 5.35-.1.55-.35 1.45-.7 2.7-1.5 4.3-.25.85-1.1 2.35-.2.4-1.25 1.95-.45.65-.9 1.1-2.95 2.95-1.6 1.3q-2.4 1.65-6.8 3.45l-7.1 2.35m5.35-90.6.85-.25 1.6-.35.65-.05 2.2.3q3.15.95 5.4 3.35l.45.55m-14.4-1.9q2.05-1.25 3.25-1.65" fill="none" stroke="#321604" stroke-linecap="round" stroke-linejoin="round" stroke-width="1.5"/></g><g id="e"><path d="M92.05 32.35q-.35.2-.6.45l-1.7 1.6q-1.05 1.35-1.1 2.95v1.75l.2 1.4.1.45.6 1.8q1.1 2.9 3.7 4.5l1.15.65q1.7.9 3.6 1.05h2.55q2.85 3.15 4.95 7.6 2.65 5.55 4.05 13.1l.15.6 1 8.85.05.3v.3l-.35.05q-.25-3.55-1.35-7.1-2.05-6.5-4.5-12.7l-.75-1.85q-2.45-5.85-8.2-8.45h-.2q-4.5-1.05-6.75-3.85-2.15-2.75-2-6.7v-.8q.3-3.2 1.9-5.05 1-1.15 2.5-1.9l1 1" fill="#f4d2ac" fill-rule="evenodd"/><path d="M91.45 32.8q.25-.25.6-.45Q98.3 38.8 106.2 50.9q7.9 12.05 7.45 40.35-.9 4.95-3.35 12.35-2.45 7.4-8.2 11.65-6.85 5.1-13.2 6.55l-.4.1 2.9-2.1 2.35-1.9 2.05-1.55q1.25-.95 2.15-1.45l.15-.05.45-.2.5-.35 1.9-1.25 1.75-1.5.1-.1.4-.4.45-.45.9-1 .4-.65.45-.8.05-.2.1-.1.35-.85.55-1.1.75-1.85V104l.1-.15.4-1.2v-.1l.1-.3 1.2-4.15v-.05l.1-.35.05-.25v-.1l.15-.45.05-.2.15-1 .35-1.65V94l.15-.55.1-.6v-.2l.3-2.2v-.25l.05-.15.2-3.15.05-.45v-.15l.1-3v-2.6l-.05-.95v-.35l-.05-.3-1-8.85-.15-.65q-1.4-7.55-4.05-13.1-2.05-4.4-4.9-7.6H98q-1.85-.15-3.6-1l-1.15-.65q-2.6-1.6-3.7-4.5l-.6-1.8-.1-.45-.15-1.45-.05-1.25v-.45q.1-1.6 1.15-2.95.75-.95 1.65-1.6" fill="#442604" fill-rule="evenodd"/><path d="M91.05 31.35q-1.5.75-2.5 1.9-1.6 1.85-1.9 5.05v.8q-.15 3.95 2 6.7 2.25 2.8 6.75 3.85h.2q5.75 2.6 8.2 8.45l.75 1.85q-2.7 8.25-8.85 15.15l-.05-.2-.85-2.3q-1.1-6.8-7.75-8.9-6.25-2.05-12.45-.25-4.4 1.25-6.6 4.4-1.1 1.6-1.7 3.7l-.3 1.4q-.45 2.5.15 4.75.7 2.75 2.85 5.05l1.75 1.15-.85-.95-.3-.4-.15-.2-.55-.85-.1-.2-.35-.75q-.9-2.1-.85-4.7.05-2.25.85-4.15 1-2.4 3.1-4.1 2.85-2.3 6.85-2.85l2.55-.15 2.55.15.4.05 1.9.4q1.45.4 2.85 1.1L90 68.2q2.2 3 3.05 5.25l.6 2.15.25 1.2v.2l-.3.3q-2.35 2.4-4.9 4.35l.35-1.65-.05-1.25-.35-2.15-.25-.65-.45-1.1-1-1.25q-.55-.65-1.45-1l.15-.5q-.9-.85-1.75-1.1l-2-.3q-2.55 0-4.35.95-.2-.25-.75-.3-.8-.05-.8.75l.1.5-.65.65q-.6.6-.9 1.6-.4 1.15-.4 2.75 0 .55.65 2.15v.15q.1.4.6.65l.45.2h.1l.2-.55-.3-.7q-.5-1.15-.5-2.85 0-1 .5-1.8.55-.9 1.8-1.6Q79.8 72 81.9 72h.05v.55q1.1.3 1.95.75 1.45.7 2.2 1.55l.1.1.85 1.45.05.05.15.45.25 1.55-.15 2.25-.15.75-.75 1.7-.15.25q-3.6 2.35-7.5 3.9h-.1l-1.85-.15-.2.6.5.2Q73.05 89.4 68.6 90l-.2-.1h-.05l-.55-.25-.35-.15.35.15.55.25h.05l.2.1-6.45.4-5.05-.25.75-.75q1.2-.85 2.8-1.1l2.75.1q1.75.25 3.65 1l.2.05.2.05-.15-.15-.05-.05q-1.1-1.55-2.75-2.1l-3.15-.45q-2.6 0-4.7 1.45-1.15.75-1.7 1.7-13.9-2.15-24.35-12.6-3.05-3.05-5.4-6.45-7.6-10.95-7.6-25 0-18.5 13-31.5Q38.85 6.15 49.55 3q26.35 10.6 41.5 28.35m14.45 25.2q-2.1-4.45-4.95-7.6H98q-1.9-.15-3.6-1.05 1.75.85 3.6 1h2.6q2.85 3.2 4.9 7.6v.05M88.85 40.5l-.2-1.4v-1.3l.05 1.25.15 1.45m-.2-3.15q.05-1.6 1.1-2.95l1.7-1.6q-.9.65-1.65 1.6-1.05 1.35-1.15 2.95M77.8 81.4l.9.1q1.9 0 3-.6 1.1-.7 1.1-2l-.25-.9-.05-.05-.15-.1-.8-.1-.05.45-.05.25q-.25.95-.7 1.4-.95.95-2.95.95l-.15.5v.05l.15.05m-1.65-1.2.05.1.5.5v.05l.95.45-.95-.45v-.05l-.5-.5-.05-.1m.5 7.55-1.1-.45-.2-.1-.8-.45-.55-.3-2.65-2h-.05l-.55-.55.55.55h.05l2.65 2 .55.3.8.45.2.1 1.1.45" fill="#f0b46b" fill-rule="evenodd"/><path d="M104.55 59.95q2.45 6.2 4.5 12.7 1.1 3.55 1.35 7.1l.35-.05v.05l.05.95v2.6l-.1 3-8.55 5.3-.05.05-1.15-.65-1.1-.85-.15-.1-.15-.1-1.6-1.3-1.5-1.35-1.1-1.1.5-1.75.25-1.1.35-3.35-.35-3.1-.3-1.6-.05-.15-.05-.05q6.15-6.9 8.85-15.15m5.15 10.3-.15-.6q-1.4-7.55-4.05-13.1v-.05q2.65 5.55 4.05 13.1l.15.65M93.9 77l.05.3.05.55.05 2.05-.45 4.1-.3 1.15v.05q-.7 2.65-1.5 4.1l-.35.6-2.55 2.7q-.75.6-1.5.85l-2.7 1-1.3.4-1.35.15-2.55-.4-1.7-.3-2.75-.65 2.55 1.75.05.05q.85.55 1.9.85l.75.25.6.05 1.6.1q3.55-.1 7.05-2.5l1.25-1 .5-.45 1.55-1.8 1.7-2.8.1-.4.1-.2.1.1h.05v.05l.05.05.05.1h.05l.15.15 1.3 1.35L98 90.6l.15.1 2.3 1.65.1.1.05.05-1.75.9-.25-.15-.25-.2-.9-.7-.95-1.05v-.25q-.55-.6-1.4-.8l-.4-.05-.35 1.55-.05.1.45.15 1.65 1.55.2.25.55.45-4.85 2.1-.2-.15h-.05l-.25.35-10.55 3.65-1.35-.55-.4-.2-.4-.2-.75-.3.75.3.4.2.4.2 1.35.55-3.25.95-.05-.4.2-1.5.2-.3v-.05l-1.45-.75-.1-.05-.35-.2-.4-.2-1.5-1-.65-.4-.9-.55.9.55.65.4 1.5 1 .4.2.35.2.1.05-.2 1.25-.05.25v.05l-.2.55-.1.6.05.7v.05l-.9.25q-.75-.25-1.5-.7h-.1l-.65-.6-.6-.9v-.05l-.15-.35-.05-.15q-.15-.55-.15-1.2v-.25l.2-.65.5-1.25-1.5-.9-2.6-1.5 2.6 1.5q-.6.45-1 1.35-.35.8-.35 1.45l.05.9.3 1.1.05.2.05.15.15.25.15.3.55.6h.05l-.45.3-.15-.2-.3-.4-.4-.4-.25-.25-.1-.05-.5-.5-.55-.45-1.15-.9-4.15-2.4-1.35-1-.35-.6-.15-.5.15-.4.05-.1q.25-.7 1.3-1l1.65-.3 2.1.45 1.1.5.9.4-.45-.55-.7-.6q-.7-.55-1.7-.85l-1-.2-1.2-.15-.35-.05h-.15q-1.4 0-2.3.7l-.3.35-.25.3-.35.7-.05.8.25 1.05.4.5q.6.9 2 1.95l3.15 2 .55.35.45.3 1.1.9.05.05.4.25.85.7.45.35.35.35.65.55-3.55.85-.3.1-.2-.25-.9-.75-.8-.65-.35-.2-1.2-.8-.3-.2-2.35-1.55q-2.1-1.5-3.25-2.95l-.2-.25-.25-.45q-.55-.8-.75-1.55l-.1-.3-.1-.75.05-1.05q.3-1.35.9-2.2l5.05.25 6.45-.4q4.45-.6 8.55-2.05l.35.1.5.15.9.2h.1q3.2.45 6.2-1.95l.85-.85q1.25-1.25 1.95-2.5l.05-.05.3-.55.25-.6.1-.25q2.55-1.95 4.9-4.35l.3-.3m-7.6 6.4-.35.35-.3.35-1.8 1.4-1.5.95-1.9.65-1.4.2h-.25q3.9-1.55 7.5-3.9m8.6 4.95-.2 1.8v.05-.05l.2-1.8m-.6 3.5-.05.2-1.1 2.4-.2.4-.6.95-.05.1-.25.3.25-.3.05-.1.6-.95.2-.4 1.1-2.4.05-.2M44.85 1.05q3.45.35 4.7 1.95-10.7 3.15-18.95 11.35-13 13-13 31.5 0 14.05 7.6 25 2.35 3.4 5.4 6.45 10.45 10.45 24.35 12.6-.6.9-.6 1.95L54.6 94l.2.75.1.35.55 1.45.25.5 1.05 1.75.7.85q1.3 1.55 2.8 2.5h-1.2l-3 1.05q-.65.35-1.4.9l-.4.3-.9.75q-6.55-.5-12.6-3.15l.8-.4 1.45-.65 1.05-.7 2.1-1.65h.05l.1-.05.95-1.1 1-1.4.5-1.7q.15-1.1-.05-2.2l-.1-.35-.5-1.05-.65-.85-.65-.65-.6-.55-.2-.15-.7-.4q-.6-1.25-2.45-1.8l-1-.35-1.4-.1q-2.35 0-5.2 1.8-1.6.95-2.5 2-.75.85-1.05 1.7-.4 1.35-1.2 2.5l-.85 1.1-2.55-2.25 1.15-1.2h.05q1.1-1.4 1.35-3.15l.05-.4.1-.95.1-1.35v-1.05 1.05l-.1 1.35-.1.95-.05.4q-.25 1.75-1.35 3.15h-.05l-1.15 1.2-1.25-1.25-.65-.65-2.4-2.6.05-.1-.05.1v-.05l.05-.05.35-1.35.45.25.5-.9.2-1.35-.05-.6q-.05-1.05-.8-2.05l-.4-.45-1.85-1.55q-1.1-.6-2.4-.6l-1.75.15-.5.15q-1.75-2.8-3.1-5.7l1.1-.4h.05l.75-.15h.45l.55-.05 3.6.6.55.15 1.15.5.75.3.8.5 1.55.9.7.5q1.1.85 2.05 2.1l.7.95 1.1 2.3.2.65.35 1.65.25-.65.2-.85v-.4q-.1-1.7-.8-3.3-.75-1.6-2.05-3.05l-.8-.8-1.4-1.3-1-.7-1.2-.65q-1.55-.8-3.4-1.1l-.6-.1-1.65-.1h-.05l-3.35.35-.25.1-1.05.4Q8.1 61.75 8.05 49.4q-.05-5.1.8-9.85v-.4l.1-.45v-.05l.15.05 1-2.85q1.3-3.4 2.75-6.55l2.4-4.75.05-.15q2.55-4.3 5.5-7.9 10-11.7 24.05-15.45m-26.4 81.6q.95.25 1.75.95l.5.55.85 1.6.3 1.35-3.4-4.45M38.1 88l.3-.15q1.8-.8 4.05-.5l.55.1L44.45 89l.1.05.2.2 1.4 1.1.15.2.4 1.45.15.6.15 1q0 1.7-2.15 3.65-1.15 1-2.9 2-1.65 1.05-2.85 2l-2.5-1.35 2.3-2 1-1.05-1 1.05-.2-.4 1.2-.65 2.5-1.65.5-.75.25-1.3q0-1.15-.55-1.75l-.25-.2q-.6-.35-1.55-.45l-1.05-.05q-1.85 0-3.2 1.05l-.95.95-.65 1v.05l-1.5 2.95-.5.9-1.9-1.45.95-1.6.4-.55.6-1 .85-1.3q1.7-2.4 4.25-3.7m.5 4.45.05.35.8.75.3.6q0 1-1.7 2.65l-1.85 1.55-.9.8-1.4-.9 1.55-2.5 1-1.9.7-.75q.55-.45 1.4-.65h.05m36.45 1.2-1.2-.75-.15-.15-1.8-1.05q-.55-.35-1.1-.55-1.1-.65-2.2-1.15 1.1.5 2.2 1.15.55.2 1.1.55l1.8 1.05.15.15 1.2.75m-17.35 11.6q1.8-.75 3.6-.8h.2l1.9.25-5.7.55" fill="#ca842f" fill-rule="evenodd"/><path d="M94.8 72.6q-1.1-2.3-2.9-3.95L90 67.1l-1.35-.8q-1.4-.7-2.85-1.1l-1.9-.4-.4-.05-2.55-.15-2.55.15q-4 .55-6.85 2.85-2.1 1.7-3.1 4.1-.8 1.9-.85 4.15-.05 2.6.85 4.7l.35.75.1.2.55.85.15.2.3.4.85.95L69 82.75q-2.15-2.3-2.85-5.05-.6-2.25-.15-4.75l.3-1.4q.6-2.1 1.7-3.7 2.2-3.15 6.6-4.4 6.2-1.8 12.45.25 6.65 2.1 7.75 8.9M54.95 89.9q.55-.95 1.7-1.7 2.1-1.45 4.7-1.45l3.15.45q1.65.55 2.75 2.1l-.2.1q-1.9-.75-3.65-1l-2.75-.1q-1.6.25-2.8 1.1l-.75.75q-.6.85-.9 2.2l-.05 1.05.1.75.1.3q.2.75.75 1.55l.25.45.2.25q1.15 1.45 3.25 2.95l2.35 1.55.3.2 1.2.8.35.2.8.65.9.75.2.25 1.4 1.8.15.2q.6 1.2.65 3.1-.6-1.4-1.9-2.5l-.3-.3q-1.35-1.05-2.9-1.45l-.6-.2-1.9-.25h-.2q-1.8.05-3.6.8-.5.2-1.05.5l-2.4-1.35.4-.3q.75-.55 1.4-.9l3-1.05h1.2q-1.5-.95-2.8-2.5l-.7-.85-1.05-1.75-.25-.5-.55-1.45-.1-.35-.2-.75-.25-2.15q0-1.05.6-1.95" fill="#f7d9bb" fill-rule="evenodd"/><path d="m88.65 66.3 1.35.8 1.9 1.55q1.8 1.65 2.9 3.95l.85 2.3.05.2.05.05.05.15.3 1.6.35 3.1-.35 3.35-.25 1.1-.5 1.75-.6 1.35-.1.2-.1.4-1.7 2.8-1.55 1.8-.5.45-1.25 1q-3.5 2.4-7.05 2.5l-1.6-.1-.6-.05-.75-.25q-1.05-.3-1.9-.85l-.05-.05-2.55-1.75 2.75.65 1.7.3 2.55.4 1.35-.15 1.3-.4 2.7-1q.75-.25 1.5-.85l2.55-2.7.35-.6q.8-1.45 1.5-4.1v-.05l.3-1.15.45-4.1-.05-2.05-.05-.55-.05-.3v-.2l-.25-1.2-.6-2.15Q92.2 71.2 90 68.2l-1.35-1.9m-11.1 5.35q1.8-.95 4.35-.95l2 .3q.85.25 1.75 1.1l-.15.5-1.6-.45-1.95-.15 1.95.15 1.6.45q.9.35 1.45 1l1 1.25.45 1.1.25.65.35 2.15.05 1.25-.35 1.65-.1.25-.25.6-.3.55-.05.05q-.7 1.25-1.95 2.5l-.85.85q-3 2.4-6.2 1.95h-.1l-.9-.2-.5-.15-.35-.1-.5-.2.2-.6 1.85.15h.35l1.4-.2 1.9-.65 1.5-.95 1.8-1.4.3-.35.35-.35.15-.25.75-1.7.15-.75.15-2.25-.25-1.55-.15-.45-.05-.05-.85-1.45-.1-.1q-.75-.85-2.2-1.55-.85-.45-1.95-.75V72h-.05q-2.1 0-4.25 1.25-1.25.7-1.8 1.6-.5.8-.5 1.8 0 1.7.5 2.85l.3.7-.2.55h-.1l-.45-.2q-.5-.25-.6-.65v-.15q-.65-1.6-.65-2.15 0-1.6.4-2.75.3-1 .9-1.6l.65-.65.7.25q.85 0 .85-.75l-.1-.45m4.8 6.2.15.1.05.05.25.9q0 1.3-1.1 2-1.1.6-3 .6l-.9-.1-.15-.05v-.05l.15-.5q2 0 2.95-.95.45-.45.7-1.4l.05-.25.05-.45.8.1m13.15 20-.2.4-.6.3q-.35 0-.6-.35l-.1-.35.05-.4h.05l.65-.35q.5-.05.65.35l.1.4M67.25 89.3l.05.05.15.15-.2-.05-.2-.05.2-.1M29.65 95l.85-1.1q.8-1.15 1.2-2.5.3-.85 1.05-1.7.9-1.05 2.5-2 2.85-1.8 5.2-1.8l1.4.1 1 .35q1.85.55 2.45 1.8l.7.4.2.15.6.55.65.65.65.85.5 1.05.1.35q.2 1.1.05 2.2l-.5 1.7-1 1.4-.95 1.1-.1.05h-.05l-2.1 1.65-1.05.7-1.45.65-.8.4-1.3.7-.6.3-1.7 1.05-.5-.25.1-.2.6-.7.25-.35q.4-.4.95-.85l.55-.45q1.2-.95 2.85-2 1.75-1 2.9-2Q47 95.3 47 93.6l-.15-1-.15-.6-.4-1.45-.15-.2-1.4-1.1-.2-.2-.1-.05L43 87.45l-.55-.1q-2.25-.3-4.05.5l-.3.15q-2.55 1.3-4.25 3.7L33 93l-.6 1-.4.55-.95 1.6-.05.1q-1.4 1.95-5.3 3.25-2.6.9-4.85 1.1v-.4q.45-.6 3.9-2.05l2.35-1.3 1.75-1.25.45-.3.2-.15.15-.15m-19-21.3-.1-.35q0-.7.7-.75.5-.05.6.25l.1.5-.15.45-.55.3-.6-.4m22.3 23.9.5-.9 1.5-2.95v-.05l.65-1 .95-.95q1.35-1.05 3.2-1.05l1.05.05q.95.1 1.55.45l.25.2q.55.6.55 1.75l-.25 1.3-.5.75-2.5 1.65.95-1.4.3-1.3-.3-1.25q-.3-.55-.95-.55h-.35l-.95.1.95-.1h.35q.65 0 .95.55l.3 1.25-.3 1.3-.95 1.4-1.2.65.2.4-2.3 2-.75.65-1.95 1.6-1.3 1.1q0-.8.5-1.65.65-1.15 2.2-2.45l.9-.8 1.85-1.55q1.7-1.65 1.7-2.65l-.3-.6-.8-.75-.05-.35h-.05q-.85.2-1.4.65l-.7.75-1 1.9-1.55 2.5-.15.15-.7.85-1.3 1.1-.05.05-.35-.45 1.6-2.35M43 87.45q1.25.1 2.3.7-1.05-.6-2.3-.7m27.75 15.65-.65-.55-.35-.35-.45-.35-.85-.7-.4-.25-.05-.05-1.1-.9-.45-.3-.55-.35-3.15-2q-1.4-1.05-2-1.95l-.4-.5-.25-1.05.05-.8.35-.7.25-.3.3-.35q.9-.7 2.3-.7h.15l.35.05 1.2.15 1 .2q1 .3 1.7.85l.7.6.45.55-.9-.4-1.1-.5-2.1-.45-1.65.3q-1.05.3-1.3 1l-.05.1-.15.4.15.5.35.6 1.35 1 4.15 2.4 1.15.9.55.45.5.5.1.05.25.25.4.4.3.4.15.2.4.6.45.75.75 1.45.4 1.25-.85-1.05-1.45-1.35m6.9-21.8.15.1-.15-.1m2.15 25.65h.15q.7 0 .8.75v.15l-.2.3-.6.2-.45-.05q-.3-.2-.3-.6 0-.5.3-.6l.3-.15m-34.25 6.95h.15q.7-.1.7.7l-.15.4-.55.25-.5-.15-.15-.1-.1-.4q0-.65.6-.7m-25.1-7v.25l-.15.45q-.2.3-.55.3l-.6-.4-.1-.2-.05-.15q0-.8.7-.75.6 0 .75.5m-8.85-4.4.15-.25q.2-.25.7-.25.6 0 .65.75v.25l-.2.2-.55.2q-.75 0-.75-.65v-.25m75.8 6.6q.65 0 .65.8l-.1.25-.15.2-.55.25q-.7 0-.7-.75 0-.7.75-.75h.1" fill="#ecc189" fill-rule="evenodd"/><path d="m91.4 97.1-.4.35-.4.45-2.35 1.65 2.35-1.65.4-.45.4-.35.2.35v.1q.6.95 2.05 1.5l1.65.4v.2q0 1.05.25 1.75l.1.2-1.85.35h-.45l-2.5-.25-.5-.15q-1.1-.35-1.8-1.4l-.3-.6-.2.1-.5.25q-1.8.7-3.9.7h-.1.1q2.1 0 3.9-.7.2 1.55 1.8 2.55l.5.25.1.05-.05.4-.35 1.45v.15l.05.45h-.05q-2.5.1-3.95-.75l-.2-.15q-1.3-.9-1.7-2.6v-.45l-.15-.65h-.6l-.4-.05-1.3-.35 1.3.35v.2q-.3 1.9.4 3.3h-.75q-1.5 0-2.7-.8l-.25-.1-.8-.95q-.4-.5-.45-1.05l3.25-.95 10.55-3.65-.4.55m10.7-5.45.05-.05 8.55-5.3v.15l-.05.45-.2 3.15-.05.15v.25l-.3 2.2v.2l-1 .3-2.05.2-2.4-.45-1.85-.8-.3-.2-.4-.25m-4.95 2.6 1.35.9q1.2.75 2.6 1.3-.95.7-1.85 1L96.6 98l-1.1-.15-.1-.4q-.15-.4-.65-.35l-.65.35-.85-.45-.95-.65 4.85-2.1m3.45-1.75.25.1.6.35q.65.4 1.35.6 1.7.75 3.5.9l1.1.05 1.85-.25.6-.2-.35 1.65-.15 1-.05.2-.5-.15q-3.15 0-5.45-.85l-.35-.15q-.85-.35-2.45-1.3l-.05-.05-1.65-1 1.75-.9m-3.5 7.05q1.5-.15 2.7-.75l1.15-.8q-.15.9 0 1.65v.2q.3 1.35 1.65 2.4l-.2.35-1.45.15-2.25-.45q-1.05-.45-1.35-1.4l-.25-.85v-.5m5.7-2.5 1.75.4 2.8.45 1.65.2-1.2 4.15-.1.3-.4-.1-2.8-.55q-1.2-.6-1.7-1.8l-.1-.45-.1-.35-.1-1.05.15-.8.15-.4M88.9 121.8l-8.7 3.05-5.95.5-16.2-.55 1.2-.35q1.7-.65 2.7-1.35l1.8-1.45 1.55-1.7.7-.9q1.6-2.25 2.35-5.05l.45-1.7.3-2.65v-.5q-.05-1.9-.65-3.1l-.15-.2-1.4-1.8.3-.1 3.55-.85 1.45 1.35.85 1.05.25.85.3 1.85v1.75q-.15 2.5-1.7 5.55l-.85 1.5-.6 1.05-1.55 2.1-1.3 1.75-2.2 2.75-.2.2.2-.2 2.2-2.75 1.3-1.75 1.55-2.1.6-1.05.85-1.5.4 1 .45.7.15.25q-.25.55-.55 1.7l-.1.35.05.4q.05.75.55 1.3h.05l.05-.15 2-.2q-.8-.7-1.05-1.65l-.05-.25.2-.4.15.1.5.25 1.1.15.75-.05h.1v-.05l-.95-.45-.25-.2-.5-.55q-.3-.5-.45-1.2l-.1-.9-.05-.55.25-1.35q.25-.85.45-1.2l.35-.15.6.8-.2 1.7v.15l.05.95q.35 1.1 1.2 1.85l.05.05.55.3.35.15 1.5.4 1.6.15 2.05-.35 1.6-.55.45.15.45.15 1.9.3h.5l2.3-.45q-.25-.05.15-.2l.75-.3h-.85l-2.3-.25-.3-.1q-1.8-.45-3.3-1.65l-.6-.5-.35-.35-.05-.05-.1-.1h.1l.15-.35h.05l1.45.15.6-.05 1.3-.35q.5-.1 1.1-.55l.5-.45.15-.45.55.15v.3l.15 1.25q.2 1.5 1 2.3l1 .65v.05h.1l.05.05.3.1 1.7-.6-.05-.15v-.05l-.1-.1-.9-.7-1.35-1.95-.3-.7-.1-.3 1.4-.35.55.95q.8.8 2.2 1.2l.75.1 2.2.1q-.9.5-2.15 1.45l-2.05 1.55-2.35 1.9-2.9 2.1-8.35 2.1-.65.15-.85.2-4.4 1 4.4-1 .85-.2.65-.15 8.35-2.1.4-.1M7.45 44.1l1.4-4.55Q8 44.3 8.05 49.4q.05 12.35 4.7 23.1l-.9.35q-.1-.3-.6-.25-.7.05-.7.75l.1.35-.65.55-1.15.9-1.35 1.4-1.1 1.35-.25.35q-1 1.6-1 3.3l.7 4.65H6q-.05-1.55.2-2.9.1-.75.35-1.4l.2-.55q1-2.75 3.25-5.05l.15-.15.1-.05.15-.2 1.3-.85 1.3-.7.5-.2q1.35 2.9 3.1 5.7l-.55.15q-.8.3-1.45.7-.75.45-1.3 1-1.15 1.35-1.15 3.4l.4 1.2-.1.8v.25l.15 1.55.4 1.65q.6 1.7 2.05 2.8l.5.25.2.15q1.35.7 2.9.85l2.1.15 1.7-.15q1.7-.2 3.2-1l1.45-.85-1.45.85q-1.5.8-3.2 1l-1.7.15-2.1-.15q-1.55-.15-2.9-.85l-.2-.15-.5-.25q-1.45-1.1-2.05-2.8l-.4-1.65-.15-1.55v-.25l.1-.8q.2-1.15.85-2.1l1.15-1.3h.05l.15.05 1.25-.4h.05l1.25-.05 1.15.15 3.4 4.45v.4l-.15 1.1.6-.2.5-.2v.05l2.4 2.6.65.65 1.25 1.25L29.65 95l-.15.15-.2.15-.45.3-1.75 1.25-2.35 1.3q-3.45 1.45-3.9 2.05v.4H19.7l-3-.4-1.75-.65-.95-.35-.25-.15-.35-.1-.25-.15-.4-.2-.4-.25-.55-.35.55.35.4.25.4.2.25.15.35.1.25.15.95.35 1.75.65 3 .4h1.15q2.25-.2 4.85-1.1 3.9-1.3 5.3-3.25l.05-.1 1.9 1.45-1.6 2.35.35.45v.05l-3.3 1.9q-2.2 1.05-4.35 1.5l-2.6.25-2.6-.35-2.05-.7-.15-.1-.35-.2-.2-.05-1.35-1-1.25-1.6-.35-.7-.15-.25-.15-.2-.1-.35.1.35.15.2.15.25.35.7 1.25 1.6 1.35 1 .2.05.35.2.15.1 2.05.7 2.6.35 2.6-.25q2.15-.45 4.35-1.5l3.3-1.9v-.05l.05-.05 1.3-1.1.7-.85.15-.15 1.4.9q-1.55 1.3-2.2 2.45-.5.85-.5 1.65l1.3-1.1 1.95-1.6.75-.65 2.5 1.35-.55.45q-.55.45-.95.85l-.25.35-.6.7-.1.2.5.25-.2.1-.65.55-.7.6-.05.05h-.1l-1.15 1.25 1.15-1.25h.1l.05-.05.7-.6.65-.55.2-.1 1.7-1.05.6-.3 1.3-.7q6.05 2.65 12.6 3.15l-.65.8-.6 1-.2.35-.5 1.15-.55 1.85q-.3 1.15-.3 2.05v.1q0 1.35.6 2.55l.05.25 1.35 2.4q.4.8 2.1 1.3l.4.1.85.2 1.85.25q1.3 0 2-1.35l-1.4.15-.7-.1q-1.55-.1-3-.8l-.15-.1q-1.15-.65-1.7-2.55-.3-.95-.45-2.15v-.9q0-1.25.45-2.25.55-1.4 1.85-2.4l.5-.4.65-.45.85-.45q.55-.3 1.05-.5l5.7-.55.6.2q1.55.4 2.9 1.45l.3.3q1.3 1.1 1.9 2.5v.5l-.3 2.65-.45 1.7q-.75 2.8-2.35 5.05l-.7.9-1.55 1.7-1.8 1.45q-1 .7-2.7 1.35l-1.2.35-7.25-.95h-.1l-13.3-1.55-.35-.35L36 120.9l-.9-.95-.35-.3-.85-1.05-.05-.1-1.3-2-.6-1.35-.1-.3-.1-.2-.25-.85-.15-2.05.3-1.4q.65-1.75 1.8-2.9l.7-.75.15-.1 1.6-.8q1.6-.65 2.8-.65l2.75.2-2.75-.2q-1.2 0-2.8.65l-1.6.8-.15.1-.3-.3q-2.3.8-3.1 2.1-.75 1.2-.75 3.8 0 1.5.45 2.85v.15l.15.45q.6 1.6 1.75 3.25l.05.05.2.4.5.65.2.25 1.1 1.35-3.3-.9-.75-1.05-.5-.7-1.35-1.5-.55-.6q-1.25-1.6-1.25-4.1 0-.65.15-1.2-.15.55-.15 1.2 0 2.5 1.25 4.1l.55.6 1.35 1.5.5.7.75 1.05-5.9-2.05Q16.15 115 10.7 108.6l.65.15h.4l1.9-.5.1-.25.6-.85.45-.2.05.1-.05-.1q-.35-.7-.35-1.5v-.1l-1.5 1.35q-1.4.95-2.2.95H9.9q-1.7-2.15-3-4.5l.35-.1.45-.15 1-.85q.25 1.45 2.3 2.1l2.7.5.85-.2.05-.05.35-.2q.95-.45 1.2-.5v-.6h-1.6l-1.45-.1v-.25q-.05-.75-.65-.75-.5 0-.7.25l-.15.25-.85-.4-.8-.7q-.4-.45-.2-1.05l-.35-.05.05-.7v-.15l-.05-.35.75-.3 1.65-.8-.95-.85-.95-.95-.05-.15q-1.3-1.55-2.15-3.4l-.75-1.75-.1-.45-.25-.7v-.05q-.05 0-.15.1-1.45.75-2.85 2.05l-.45.45H3.1h.05l.45-.45q1.4-1.3 2.85-2.05.1-.1.15-.1-.45-1.6-.6-3.15v-.35.35q.15 1.55.6 3.15v.05l.25.7.1.45.75 1.75q.85 1.85 2.15 3.4l.05.15.95.95q-.9.65-1.55.65-1 0-1.7-.5l-.05-.05q-1.2-.95-1.65-2.9V94l-.75.6-1.05.9-.15.15-.05.05.05-.05.15-.15 1.05-.9v.85q0 1.4 1.05 2.45l.45.35q1.05.85 1.8.95l-1.05 1.35-1.2.6-.25.1Q4.7 98.6 3.9 95.7l-.8-3.4-.2-1.2-.15-1.15-.1-.55q-.2-4.95-.1-9.7l4.9-35.6m.25 48.55L5.9 94l1.8-1.35m9.5-4.25q.2.8 1 1.05l2.5.25h.1l.05-.05.25-.05q.75-.2 1.3-.85l.4-.5-.4.5q-.55.65-1.3.85l-.25.05-.05.05h-.1l-2.5-.25q-.8-.25-1-1.05m59.2 13.2.1.55.3.65q.5.95 1.6 1.5l-.3.75-.3 1 .1.8.3.85.6.95-1.5-.55-.6-.35-.45-.4q-.9-.9-.8-1.9.05-.95.4-2.25l.15-.9-.2-.15v-.3h-.2.2v.3h-.05l-.15-.3h-.1l.9-.25m3.35 3.2 3.3.25.4-.3.25.3v.05l.6.5 1.05.6-.2.45q-.25.4-.25 1.4l.25 1.4-.65.15q-1 0-2.85-1.15l-.9-.6v-.15q-.1-.75-.8-.75h-.15l-.3-.6v-.05q-.15-.35-.15-.8l.15-.35v-.05l.25-.3m-3 4.1 2.05.3v-.55l.6.55.1.1.3.15-.3.35q-.15 2.1 1.3 3.25l.85.55.4.2.2.15.3.05h-1l-2.05-.4-1.1-.55q-1.45-1-1.85-3.6l.2-.55m4.1 1.2q1.25.6 2.65.6h1l1.05-.4.45.65 1.35 1.05.15.05.9.4-.85.2-1.5.2-1-.1-1.45-.4-.5-.25-1.2-.95-1.05-1.05m-3.9 3.9.65.3 1.65.55h.4l1.45-.25.95-.3q-.25.85.05 1.6l.2.35 1.25 1.2.15.1-1.55.2-2.6-.7-.05-.05h-.15l-.1-.05q-1.35-.65-1.9-1.45l-.4-.9-.05-.3.05-.3m1.85-4.8h.6-.6m-17.2 2.85q-.55 1.6-1.2 2.15-.45.45-1.65.45-1.1 0-1.85-1.15h-.05q-.7-1.05-.7-2.15 0-.6.3-1.2.4-.65 1.25-1.05 1.2-.7 2.45-.7l.95.1q1.5.15 2.5 1 .7.6 1.1 1.55l.25 1.65-.25 1.75q-.5 1.35-1.7 2.4-1.4 1.1-3.25 1.3 1.85-.2 3.25-1.3 1.2-1.05 1.7-2.4l.25-1.75-.25-1.65q-.4-.95-1.1-1.55-1-.85-2.5-1l-.95-.1q-1.25 0-2.45.7-.85.4-1.25 1.05-.3.6-.3 1.2 0 1.1.7 2.15h.05q.75 1.15 1.85 1.15 1.2 0 1.65-.45.65-.55 1.2-2.15m22.25 10.7q-3.05.05-4.35-1.3l-.4-.5-1.3-1.9.2-.7-.2.7 1.3 1.9.4.5q1.3 1.35 4.35 1.3m-6.5-4.1-.7.35.7-.35m1.85 4.9-2.25-.65q-.9-.6-.9-2.1l.15-.85.05-.45-.05.45-.15.85q0 1.5.9 2.1l2.25.65m-3.35-1.05h-.8l-1.2-.3q-.85-.35-.95-1 .1.65.95 1l1.2.3h.8m-34.1-6.9.75-.65.7-1.15.05-.5q0-1.35-.9-2.35l-.15-.1-.35-.4-.1-.05-1.1-.65-.25.4.65.65.25.4.05.1.05.9q0 1.4-1.05 1.95l-2.2.35q.25.6.9 1l.3.2 1.25.25.4-.05.75-.3m-.3-10.25q1.85 1.3 3.1 3.8l.1.1.25.5.05.2q.7 1.55.7 2.6v.1l-.1 1.25q-.6.05-.6.7l.1.4.15.1q-1.1 2.55-4.85 2.55l-2.95-.5-.05-.05-.45-.1-1.45-.4-.2.05.65.8.25.2 1.2.85 1.1.55q1.6.7 3.25.7 2.35 0 4.1-1.85l.9-1.25q.8-1.45.95-3.2v-.7l-.05-1-.6-2.6-.1-.15-.35-.5q-.65-1.05-1.65-1.75-1.45-1-3.45-1.4m-9.3-1.65.4-.4.05-.05-.05.05-.4.4-1.1 1.05-1.2 1.3q-1.55 1.85-2.35 3.55.8-1.7 2.35-3.55l1.2-1.3 1.1-1.05-.7-.85-.25-.45-.2-.65.2.65.25.45.7.85m-3.7 2.85-.6.2-1.2-.2-.45-.25q-1-.5-1.35-1.35l-.15-.35.15.35q.35.85 1.35 1.35l.45.25 1.2.2.6-.2m12.2 3.2-1.95-.4q-2.35 0-3.35 1.8-.6.9-.7 2.3l-.05.35v.2l-.05.5q0 1.15.7 2.15-.7-1-.7-2.15l.05-.5v-.2l.05-.35q.1-1.4.7-2.3 1-1.8 3.35-1.8l1.95.4M23 105.95l.05-.2v-.15l-.3.2-2.15 1.05-.15.05q-.15-.5-.75-.5-.7-.05-.7.75l.05.15-1.35.15-1.65-.25-.85-.35-.35.2.05.05q.5.75 1.55 1.2l.1.05h.1q1.3.6 2.95.6l1.2-.2q1.55-.6 2.2-2.8m-9.3 4.4-.1-.2-.05-.05-.1-.4-.05-.65.25-.8-.25.8.05.65.1.4.05.05.1.2.15.3.55.75.35.3q.75.6 1.6.9l1.25.15.95-.1v.65l.1.75.4.85-.4-.85-.1-.75v-.65q1.35-.4 2.05-2.05l-1.05.4-1.8.2-2-.25-.45-.15q-.75-.2-1.15-.5l-.4.05h-.05m7.15-1.2.15.35-.4 1.1.4-1.1-.15-.35m.25.45v.05q1 1.55 1.7 2.15l1.95.45 1-.2 1.1-.4q.15-1 .65-2.05l-1.05.6-1.4.1-1.3-.15-2.35-.75-.3.2-.1-.1.1.1m2.15-4.85-.2.85.2-.85m-4.2 10.15.8.7q.85.5 1.6.5l.8-.1 1.5-1 .15-.1v.05q.8 1.85 1.8 2.5l.6.25 1 .15 1.2-.3-1.2.3-1-.15-.6-.25q-1-.65-1.8-2.5v-.05q.7-.9.7-1.75-2.3 1.9-4.45 1.7h-.1l-1 .05m18.85-1.05.25.65-.25-.65m-23.15-9.1-.3.6.3-.6m90.65 3.4V108l-.75-.55-.65-.8q-.45-.8-.45-1.9l-.05-1 .8-.55.55.2 2.35.65-.75 1.85-.55 1.1-.35.85-.1.1-.05.2m-3.45-3.95-.1 1.65.4 1.3.55.95h.05l.2.2q.7.8 1.45 1.3l.45-.65-.4.65-.9 1-.85-.05-.8-.2-1.7-.75-.55-.4-1.15-.95v-.05q-1-1-1.1-1.85v-.15l.1-1.25.45-1.25 3.05.5h.85m-6.15-1-.15 2.3.2 1.55.45 1.05-2.2-.35-1.15-.5q-2.35-1.2-1.9-4.05l2.45.3 1.5-.05.8-.25m1.15 5.9.85.8.4.25q1.45 1.05 3.25 1.3l1.25.1-1.75 1.5-1.9 1.25-1-.3-.85-.35-1.65-.8q-1-.8-1.3-1.65l-.2-.95.05-.6.15-.4 1.05.05 1.65-.2m-7.05-2.55q.5 1.35 1.9 2.1h.1l-.2 1.4.05.4q0 .6.15 1.05l-.5.1-1.95-.4q-.75-.25-1.2-.75l-.3-.3.1-.25q0-.8-.65-.8-.4-.8-.45-1.9l.1-.4 1 .05.8-.15 1.05-.15M88 121.6q-1.25.05-2.1-.6-1-.8-1.1-2.25.1 1.45 1.1 2.25.85.65 2.1.6" fill="#a86c26" fill-rule="evenodd"/><path d="m94.75 87.55.6-1.35 1.1 1.1 1.5 1.35 1.6 1.3.15.1.15.1 1.1.85-.5 1.35-2.3-1.65-.15-.1-1.5-1.25L95.2 88l-.15-.15H95l-.05-.1-.05-.05v-.05h-.05l-.1-.1" fill="#e1b791" fill-rule="evenodd"/><path d="m91.4 97.1.4-.55.25-.35h.05l.2.15.95.65.85.45h-.05l-.05.4.1.35q.25.35.6.35l.6-.3.2-.4 1.1.15 2.65-.55q.9-.3 1.85-1-1.4-.55-2.6-1.3l-1.35-.9-.55-.45-.2-.25L94.75 92l-.45-.15.05-.1.35-1.55.4.05q.85.2 1.4.8v.25l.95 1.05.9.7.25.2.25.15 1.65 1 .05.05q1.6.95 2.45 1.3l.35.15q2.3.85 5.45.85l.5.15-.15.45v.1l-.05.25-.1.35v.05l-1.65-.2-2.8-.45-1.75-.4-.15.4-.15.8.1 1.05.1.35.1.45q.5 1.2 1.7 1.8l2.8.55.4.2-.4 1.2-.1.15v.05l-2.35-.65-.55-.2-.8.55.05 1q0 1.1.45 1.9l.65.8.75.55v.15l-.45.8-.45.65q-.75-.5-1.45-1.3l-.2-.2h-.05l-.55-.95-.4-1.3.1-1.65.6-.05.25-.05.7-.35-.7.35-.25.05-.6.05h-.85l-3.05-.5-.45 1.25-.1 1.25v.15q.1.85 1.1 1.85v.05l1.15.95.55.4 1.7.75.8.2.85.05-.45.45-.4.4-.1.1-1.25-.1q-1.8-.25-3.25-1.3l-.4-.25-.85-.8-.2-.3-.45-.7.45.7.2.3-1.65.2-1.05-.05-2.05-.45-.3-.15.3.15 2.05.45-.15.4-.05.6.2.95q.3.85 1.3 1.65l1.65.8.85.35 1 .3-.5.35-.45.2-.15.05-2.2-.1-.75-.1q-1.4-.4-2.2-1.2l-.55-.95-1.4.35.1.3.3.7 1.35 1.95.9.7.1.1v.05l.05.15-1.7.6-.3-.1-.05-.05h-.1v-.05l-1-.65q-.8-.8-1-2.3l-.15-1.25v-.3l-.55-.15-.15.45-.5.45q-.6.45-1.1.55l-1.3.35-.6.05-1.45-.15h-.05l-.15.35h-.1l.1.1.05.05.35.35.6.5q1.5 1.2 3.3 1.65l.3.1 2.3.25.1.3q-.4.15-.15.2l-2.8.45-1.9-.3-.45-.15-.45-.15-1.6.55-2.05.35-1.6-.15-1.5-.4-.35-.15-.55-.3-.05-.05q-.85-.75-1.2-1.85l-.05-.95v-.15l.2-1.7-.6-.8q-.45-.8-.45-1.8l.05-1.3.05-.1q.1-.55.65-.9-.55.35-.65.9l-.05.1-.05 1.3q0 1 .45 1.8l-.35.15q-.2.35-.45 1.2l-.25 1.35.05.55.1.9q.15.7.45 1.2l.5.55.25.2.95.45v.05h-.1l-.75.05-1.1-.15-.5-.25-.15-.1-.2.4.05.25q.25.95 1.05 1.65l-2 .2-.05.15h-.05q-.5-.55-.55-1.3l-.05-.4.1-.35q.3-1.15.55-1.7l-.15-.25-.45-.7-.4-1q1.55-3.05 1.7-5.55v-1.75l-.3-1.85-.25-.85-.4-1.25-.75-1.45-.45-.75-.4-.6.45-.3 1.05.45 2.85.25h.2l.15.3q-1.25.35-1.65 1.6-.25.7-.25 1.6 0 1.4 1.1 2.4l.75.55.15.1.4.25.5.25-.5-.25-.4-.25-.15-.1-.75-.55q-1.1-1-1.1-2.4 0-.9.25-1.6.4-1.25 1.65-1.6h.05l.2.15-.15.9q-.35 1.3-.4 2.25-.1 1 .8 1.9l.45.4.6.35 1.5.55v.55l-2.05-.3-.2.55q.4 2.6 1.85 3.6l1.1.55 2.05.4h1l-.3-.05-.2-.15-.4-.2-.85-.55q-1.45-1.15-1.3-3.25l.4-.2.95.5 1.05 1.05 1.2.95.5.25 1.45.4 1 .1 1.5-.2.85-.2-.9-.4-.15-.05-1.35-1.05-.45-.65-.4-.85-.25-1.4q0-1 .25-1.4l.2-.45-1.05-.6-.6-.5v-.05l-.25-.3-.4.3-3.3-.25-.25-.05-.75-.3-.35-.15q-1.1-.55-1.6-1.5l-.3-.65-.1-.55v-.05l-.05-.7.1-.6.2-.55v-.05l.05-.25.2-1.25 1.45.75v.05l-.2.3-.2 1.5.05.4q.05.55.45 1.05l.8.95.25.1q1.2.8 2.7.8h.75q-.7-1.4-.4-3.3v-.2l.4.05h.6l.15.65v.45q.4 1.7 1.7 2.6l.2.15q1.45.85 3.95.75h.05l-.05-.45v-.15l.35-1.45.05-.4.5.25.6.2-.6-.2-.5-.25-.1-.05-.5-.25q-1.6-1-1.8-2.55l.5-.25.2-.1.3.6q.7 1.05 1.8 1.4l.5.15 2.5.25h.45l1.85-.35-.1-.2q-.25-.7-.25-1.75v-.2l-1.65-.4q-1.45-.55-2.05-1.5v-.1l-.2-.35m9.55-6.1 1.15.65.4.25.3.2 1.85.8 2.4.45 2.05-.2 1-.3-.1.6-.15.55v.05l-.6.2-1.85.25-1.1-.05q-1.8-.15-3.5-.9-.7-.2-1.35-.6l-.6-.35-.25-.1-.05-.05-.1-.1.5-1.35m0 7-1.15.8q-1.2.6-2.7.75v.5l.25.85q.3.95 1.35 1.4l2.25.45 1.45-.15.2-.35.2.15.25.15 1.25.65-1.25-.65-.25-.15-.2-.15q-1.35-1.05-1.65-2.4v-.2q-.15-.75 0-1.65l.45-.55.4-.7v-.05l1 .35-1-.35v.05l-.4.7-.45.55m-47.6 7.15.9-.75 2.4 1.35-.85.45-.65.45-.5.4q-1.3 1-1.85 2.4-.45 1-.45 2.25v.9q.15 1.2.45 2.15.55 1.9 1.7 2.55l.15.1q1.45.7 3 .8l.7.1 1.4-.15q-.7 1.35-2 1.35l-1.85-.25-.85-.2-.4-.1q-1.7-.5-2.1-1.3l-1.35-2.4-.05-.25q-.6-1.2-.6-2.55v-.1q0-.9.3-2.05l.55-1.85.5-1.15.2-.35.6-1 .65-.8m-42.5-8 .95.85-1.65.8-.75.3.05.35v.15l-.05.7.35.05q-.2.6.2 1.05l.8.7.85.4v.25q0 .65.75.65l.55-.2.2-.2 1.45.1h1.6v.6q-.25.05-1.2.5l-.35.2-.05.05-.85.2-2.7-.5q-2.05-.65-2.3-2.1l-1 .85-.45.15-.35.1-1.3.2-.15-.15-.7-1.4.5-.25.7-.3.25-.1 1.2-.6 1.05-1.35q-.75-.1-1.8-.95l-.45-.35q-1.05-1.05-1.05-2.45v-.85l.75-.6v.35q.45 1.95 1.65 2.9l.05.05q.7.5 1.7.5.65 0 1.55-.65m72.1 6.9.5.7-.5-.7m-6 9.95-.3-.25-.65-.55.65.55.3.25-.05.3.05.3.4.9q.55.8 1.9 1.45l.1.05h.15l.05.05 2.6.7 1.55-.2-.15-.1-1.25-1.2-.2-.35q-.3-.75-.05-1.6l-.95.3-1.45.25h-.4l-1.65-.55-.65-.3m-4.05 3.45.7.7.45.4-.45-.4-.7-.7m-32.25-7.7 1.1.65.1.05.35.4.15.1q.9 1 .9 2.35l-.05.5-.7 1.15-.75.65-.75.3-.4.05-1.25-.25-.3-.2q-.65-.4-.9-1l2.2-.35q1.05-.55 1.05-1.95l-.05-.9-.05-.1-.25-.4-.65-.65.25-.4m4.9 4.15.1-1.25v-.1q0-1.05-.7-2.6l-.05-.2-.25-.5-.1-.1q-1.25-2.5-3.1-3.8 2 .4 3.45 1.4 1 .7 1.65 1.75l.35.5.1.15.6 2.6.05 1v.7q-.15 1.75-.95 3.2l-.9 1.25q-1.75 1.85-4.1 1.85-1.65 0-3.25-.7l-1.1-.55-1.2-.85-.25-.2-.65-.8.2-.05 1.45.4.45.1.05.05 2.95.5q3.75 0 4.85-2.55l.5.15.55-.25.15-.4q0-.8-.7-.7h-.15m-11.4-7.2-.7.75q-1.15 1.15-1.8 2.9l-.3 1.4.15 2.05.25.85.1.2.1.3.6 1.35 1.3 2 .05.1.85 1.05.35.3.9.95 1.05 1.05.35.35 1.05 1.1-3.1-.6-.95-1.1-1.1-1.35-.2-.25-.5-.65-.2-.4-.05-.05q-1.15-1.65-1.75-3.25l-.15-.45v-.15Q30 113.8 30 112.3q0-2.6.75-3.8.8-1.3 3.1-2.1l.3.3m-11.4-.9.25.15q-.65 2.2-2.2 2.8l-1.2.2q-1.65 0-2.95-.6h-.1l-.1-.05q-1.05-.45-1.55-1.2l-.05-.05.35-.2.85.35 1.65.25 1.35-.15.1.2.6.4q.35 0 .55-.3l.15-.45v-.25l.15-.05 2.15-1.05m-7.95 1.15-.45.2-.6.85-.1.25-1.9.5h-.4l-.65-.15-.4-.1-1-.35v-.55l.6.05h.85q.8 0 2.2-.95l1.5-1.35v.1q0 .8.35 1.5m-1.1 3.4h.05l.4-.05q.4.3 1.15.5l.45.15 2 .25 1.8-.2 1.05-.4q-.7 1.65-2.05 2.05l-.95.1-1.25-.15q-.85-.3-1.6-.9l-.35-.3-.55-.75-.15-.3m7.4-.7.3-.25 2.35.75 1.3.15 1.4-.1 1.05-.6q-.5 1.05-.65 2.05l-1.1.4-1 .2-1.95-.45q-.7-.6-1.7-2.15m2.8 5.25-.15.1-1.5 1-.8.1q-.75 0-1.6-.5l-.8-.7 1-.05h.1q2.15.2 4.45-1.7 0 .85-.7 1.75M8.7 102.05l.15-.2.55-1.55-.55 1.55-.15.2m-.25-2.85h.1l.85-.1-.85.1h-.1m86.85.25.25.05.95.05h.6-.6l-.95-.05-.25-.05m.5 3.75.7-.5.7.5.85.5-.85-.5-.7-.5-.7.5-.8.25-1.5.05-2.45-.3q-.45 2.85 1.9 4.05l1.15.5 2.2.35-.45-1.05-.2-1.55.15-2.3m-3.9 5.45h-.1q-1.4-.75-1.9-2.1l-.3-1.35.3 1.35-1.05.15-.8.15-1-.05-.1.4q.05 1.1.45 1.9h-.1q-.75.05-.75.75 0 .75.7.75l.55-.25.15-.2.3.3q.45.5 1.2.75l1.95.4.5-.1q-.15-.45-.15-1.05l-.05-.4.2-1.4m.35 3.9-.2-.5-.15-.55.15.55.2.5m4.25-9.85-.85-1.1.85 1.1m-5.65 10.2h-.1l-.8-.05-.6-.1.6.1.8.05h.1m-5.5-6.7 1.7.6-1.7-.6m-1.7 8.1-1.1-.3 1.1.3m5.15-1.7-.4-.15.4.15m-4.75 5.1.7.3-.7-.3" fill="#d7914a" fill-rule="evenodd"/><path d="m80.2 124.85-10.7 3-6.05-.2-6.45-.3-6.4-.5-5.6-.6-6.35-1.05-6.25-1.45q-6.45-1.6-12.45-4.6-6.15-3.05-10.75-8.05-4.45-4.8-6.75-11Q.7 95.35.3 90.25 0 85.9 0 81.55q0-6.3.55-12.45.55-5.95 1.5-11.85.95-5.6 2.5-11 1.45-5.3 3.3-10.4 2.25-6.05 5.45-11.6 3.05-5.3 7.1-9.95 4.55-5.15 10.2-8.8Q36.2 1.9 42.5 0h.05l2.3 1.05Q30.8 4.8 20.8 16.5q-2.95 3.6-5.5 7.9l-.05.15-2.4 4.75q-1.45 3.15-2.75 6.55l-1 2.85-.15-.05v.05l-.1.45v.2l-.05.2q-.75 2.25-1.35 4.55l-4.9 35.6q-.1 4.75.1 9.7v.05l.1.5.15 1.15.2 1.2.8 3.4-1.05 1-.45.4.45-.4 1.05-1q.8 2.9 2.05 5.55l-.7.3-.5.25.7 1.4.15.15 1.3-.2q1.3 2.35 3 4.5l-.6-.05v.55l1 .35.4.1q5.45 6.4 14.5 10.15l5.9 2.05 3.3.9.95 1.1 3.1.6-1.05-1.1 13.3 1.55h.1l7.25.95 16.2.55-1.05.2-3 .6 3-.6 1.05-.2 5.95-.5M1.95 93.35 3.1 92.3l-1.15 1.05M56.9 125.1l1.15-.3-1.15.3m-24.55-2.4-.45-.7-.8-1.2.8 1.2.45.7m6.65 1.2-.55-.5.55.5" fill="#3b1205" fill-rule="evenodd"/><path d="m14.05 72 3.35-.35h.05l1.65.1.6.1q1.85.3 3.4 1.1l1.2.65 1 .7 1.4 1.3.8.8q1.3 1.45 2.05 3.05.7 1.6.8 3.3v.4l-.2.85-.25.65-.35-1.65-.2-.65-1.1-2.3-.7-.95q-.95-1.25-2.05-2.1l-.7-.5-1.55-.9-.8-.5-.75-.3-1.15-.5-.55-.15-3.6-.6-.55.05h-.45l-.75.15h-.05L14.05 72m3.05 7.7 1.75-.15q1.3 0 2.4.6l1.85 1.55.4.45q.75 1 .8 2.05l.05.6-.2 1.35-.5.9-.45-.25-.15-1.55-.05-.35-.65-1.5-.4-.55q-1.05-1.1-2.55-1.25h-1.8 1.8q1.5.15 2.55 1.25l.4.55.65 1.5.05.35.15 1.55-.35 1.35-.05.05-.5.2-.6.2.15-1.1v-.4l-.3-1.35-.85-1.6-.5-.55q-.8-.7-1.75-.95l-1.15-.15-1.25.05H16l-1.25.4-.15-.05h-.05l.15-.15 1.3-.7 1.6-.45-.5-1.9" fill="#efc39d" fill-rule="evenodd"/><path d="m14.05 72 .55 1.75-1.1.4-.5.2-1.3.7-1.3.85-.15.2-.1.05-.15.15q-2.25 2.3-3.25 5.05l-.2.55q-.25.65-.35 1.4-.25 1.35-.2 2.9h-.15l-.7-4.65q0-1.7 1-3.3l.25-.35 1.1-1.35 1.35-1.4 1.15-.9.65-.55.6.4.55-.3.15-.45-.1-.5.9-.35 1.05-.4.25-.1m3.05 7.7.5 1.9-1.6.45-1.3.7-.15.15-1.15 1.3q-.65.95-.85 2.1l-.4-1.2q0-2.05 1.15-3.4.55-.55 1.3-1 .65-.4 1.45-.7l.55-.15.5-.15" fill="#d89552" fill-rule="evenodd"/><path d="m77.55 71.65.1.45q0 .75-.85.75l-.7-.25-.1-.5q0-.8.8-.75.55.05.75.3" fill="#f8e4d3" fill-rule="evenodd"/><path d="m71.5 94.85 1.5.9-.5 1.25-.2.65v.25q0 .65.15 1.2l.05.15.15.35v.05l.6.9.65.6h.1q.75.45 1.5.7h-.1l-2.85-.25-1.05-.45h-.05l-.55-.6-.15-.3-.15-.25-.05-.15-.05-.2-.3-1.1-.05-.9q0-.65.35-1.45.4-.9 1-1.35" fill="#e4b990" fill-rule="evenodd"/><path d="m78.8 108.65-.6-.95-.3-.85-.1-.8.3-1 .3-.75.35.15.75.3.25.05-.25.3v.05l-.15.35q0 .45.15.8v.05l.3.6-.3.15q-.3.1-.3.6 0 .4.3.6l.45.05.6-.2.2-.3.9.6q1.85 1.15 2.85 1.15l.65-.15.4.85-1.05.4h-1q-1.4 0-2.65-.6l-.95-.5-.1-.15.1.15-.4.2.3-.35-.3-.15-.1-.1-.6-.55m11.6 9h.85l-.75.3-.1-.3m-.05.5-2.3.45h-.5l2.8-.45m-67.3-12.55v.15l-.05.2-.25-.15.3-.2m-1.95 4.05v-.05l.3-.2-.3.25m86.2-7.2.4.1v.1l-.4-.2" fill="#c9802c" fill-rule="evenodd"/><path d="M91.45 32.8q.25-.25.6-.45m18.7 47.35v-.3l-.05-.3-1-8.85-.15-.65q-1.4-7.55-4.05-13.1-2.05-4.4-4.9-7.6H98q-1.85-.15-3.6-1l-1.15-.65q-2.6-1.6-3.7-4.5l-.6-1.8-.1-.45-.15-1.45-.05-1.25v-.45q.1-1.6 1.15-2.95.75-.95 1.65-1.6m19.25 53.5.1-3v-2.6l-.05-.95v-.05m-1.45 17.2.05-.2.15-1 .35-1.65V94l.15-.55.1-.6v-.2l.3-2.2v-.25l.05-.15.2-3.15.05-.45v-.15M109 98.1v-.05l.1-.35.05-.25v-.1l.15-.45m-20.8 25 2.9-2.1 2.35-1.9 2.05-1.55q1.25-.95 2.15-1.45l.15-.05.45-.2.5-.35 1.9-1.25 1.75-1.5.1-.1.4-.4.45-.45.9-1 .4-.65.45-.8m2.3-5.6.1-.3 1.2-4.15m-1.3 4.55v-.1m-.5 1.5V104l.1-.15.4-1.2m-2.15 5.2.35-.85.55-1.1.75-1.85M88.9 121.8l-.4.1" fill="none" stroke="#321604" stroke-linecap="round" stroke-linejoin="round" stroke-width="1.5"/><path d="m88.65 66.3 1.35.8 1.9 1.55q1.8 1.65 2.9 3.95l.85 2.3.05.2.05.05.05.15m-25.05 8.6-.85-.95-.3-.4-.15-.2-.55-.85-.1-.2-.35-.75q-.9-2.1-.85-4.7.05-2.25.85-4.15 1-2.4 3.1-4.1 2.85-2.3 6.85-2.85l2.55-.15 2.55.15.4.05 1.9.4q1.45.4 2.85 1.1m-12.5 13.9-.3-.7q-.5-1.15-.5-2.85 0-1 .5-1.8.55-.9 1.8-1.6Q79.8 72 81.9 72h.05l1.95.15 1.6.45q.9.35 1.45 1l1 1.25.45 1.1.25.65.35 2.15.05 1.25-.35 1.65-.1.25-.25.6m-6-4.65.15.1.05.05.25.9q0 1.3-1.1 2-1.1.6-3 .6l-.9-.1m-.15-.1-.95-.45v-.05l-.5-.5-.05-.1m-5.4 3.7.55.55h.05l2.65 2 .55.3.8.45.2.1 1.1.45" fill="none" stroke="#8d3108" stroke-linecap="round" stroke-linejoin="round" stroke-opacity=".8" stroke-width="1.5"/><path d="m75.05 93.65 2.55 1.75.05.05q.85.55 1.9.85l.75.25.6.05 1.6.1q3.55-.1 7.05-2.5l1.25-1 .5-.45 1.55-1.8 1.7-2.8.1-.4.1-.2.6-1.35.5-1.75.25-1.1.35-3.35-.35-3.1-.3-1.6M76.65 87.75l.5.2.35.1.5.15.9.2h.1q3.2.45 6.2-1.95l.85-.85q1.25-1.25 1.95-2.5l.05-.05.3-.55m-.1 17.05 2.35-1.65.4-.45.4-.35.4-.55.25-.35.25-.3.05-.1.6-.95.2-.4 1.1-2.4.05-.2.05-.1.35-1.55v-.05l.2-1.8M81.25 100.2l1.3.35.4.05h.7q2.1 0 3.9-.7l.5-.25.2-.1m7.4 2.05-.1-.2q-.25-.7-.25-1.75v-.2l-1.65-.4q-1.45-.55-2.05-1.5v-.1l-.2-.35m9.05-4.75-2.3-1.65-.15-.1-1.5-1.25L95.2 88l-.15-.15H95l-.05-.1-.05-.05v-.05h-.05l-.1-.1m0 4.45 1.65 1.55.2.25.55.45 1.35.9q1.2.75 2.6 1.3m8.75-2.4-.6.2-1.85.25-1.1-.05q-1.8-.15-3.5-.9-.7-.2-1.35-.6l-.6-.35-.25-.1-.05-.05-.1-.1m-3.35 7.2q1.5-.15 2.7-.75l1.15-.8.45-.55.4-.7v-.05l1 .35 1.75.4 2.8.45 1.65.2m-41.55-8.6.35.15.55.25h.05l.2.1q1.1.5 2.2 1.15.55.2 1.1.55l1.8 1.05.15.15 1.2.75m-60.4-19.9.75-.15h.45l.55-.05 3.6.6.55.15 1.15.5.75.3.8.5 1.55.9.7.5q1.1.85 2.05 2.1l.7.95 1.1 2.3.2.65.35 1.65v1.05l-.1 1.35-.1.95-.05.4q-.25 1.75-1.35 3.15h-.05l-1.15 1.2-1.45.85q-1.5.8-3.2 1l-1.7.15-2.1-.15q-1.55-.15-2.9-.85l-.2-.15-.5-.25q-1.45-1.1-2.05-2.8l-.4-1.65-.15-1.55v-.25l.1-.8q.2-1.15.85-2.1l1.15-1.3.15-.15 1.3-.7 1.6-.45h1.8q1.5.15 2.55 1.25l.4.55.65 1.5.05.35.15 1.55-.35 1.35-.05.1-.4.5q-.55.65-1.3.85l-.25.05-.05.05h-.1l-2.5-.25q-.8-.25-1-1.05m28.1-.25.7.4.2.15.6.55.65.65.65.85.5 1.05.1.35q.2 1.1.05 2.2l-.5 1.7-1 1.4-.95 1.1-.1.05h-.05l-2.1 1.65-1.05.7-1.45.65-.8.4-1.3.7-.6.3-1.7 1.05-.2.1-.65.55-.7.6-.05.05h-.1l-1.15 1.25-.15.1-.7.75q-1.15 1.15-1.8 2.9l-.3 1.4.15 2.05.25.85.1.2.1.3.6 1.35 1.3 2 .05.1.85 1.05.35.3.9.95 1.05 1.05.35.35 1.05 1.1.55.5M6 86.2q-.05-1.55.2-2.9.1-.75.35-1.4l.2-.55q1-2.75 3.25-5.05l.15-.15.1-.05.15-.2 1.3-.85 1.3-.7.5-.2 1.1-.4M3.1 92.3h.05l.45-.45q1.4-1.3 2.85-2.05.1-.1.15-.1-.45-1.6-.6-3.15v-.35m.6 3.5v.05l.25.7.1.45.75 1.75q.85 1.85 2.15 3.4l.05.15.95.95.95.85.55.35.4.25.4.2.25.15.35.1.25.15.95.35 1.75.65 3 .4h1.15q2.25-.2 4.85-1.1 3.9-1.3 5.3-3.25l.05-.1.95-1.6.4-.55.6-1 .85-1.3q1.7-2.4 4.25-3.7M3.9 95.7l.05-.05.15-.15 1.05-.9.75-.6 1.8-1.35M3.9 95.7l-1.05 1-.45.4m6.05 2.1q-.75-.1-1.8-.95l-.45-.35q-1.05-1.05-1.05-2.45v-.85M3.1 92.3l-1.15 1.05M9.4 99.1l.75-.3 1.65-.8m19.9 2.4v.05l-3.3 1.9q-2.2 1.05-4.35 1.5l-2.6.25-2.6-.35-2.05-.7-.15-.1-.35-.2-.2-.05-1.35-1-1.25-1.6-.35-.7-.15-.25-.15-.2-.1-.35m27.15-1.75-1 1.05-2.3 2-.75.65-1.95 1.6-1.3 1.1-.05.05-.4.4-.7-.85-.25-.45-.2-.65m12-14.3-.55-.1q-2.25-.3-4.05.5m.2 4.6.95-.1h.35q.65 0 .95.55l.3 1.25-.3 1.3-.95 1.4m-1.3-4.4h-.05q-.85.2-1.4.65l-.7.75-1 1.9-1.55 2.5-.15.15-.7.85-1.3 1.1-.05.05m13.6-12.25q-1.05-.6-2.3-.7m24.05 1.95q-1.9-.75-3.65-1l-2.75-.1q-1.6.25-2.8 1.1l-.75.75q-.6.85-.9 2.2l-.05 1.05.1.75.1.3q.2.75.75 1.55l.25.45.2.25q1.15 1.45 3.25 2.95l2.35 1.55.3.2 1.2.8.35.2.8.65.9.75.2.25 1.4 1.8.15.2q.6 1.2.65 3.1v.5l-.3 2.65-.45 1.7q-.75 2.8-2.35 5.05l-.7.9-1.55 1.7-1.8 1.45q-1 .7-2.7 1.35l-1.2.35-1.15.3m12-31.75 2.6 1.5 1.5.9.9.55.65.4 1.5 1 .4.2.35.2.1.05 1.45.75v.05l.75.3.4.2.4.2 1.35.55m1.7 3.85q-.7-1.4-.4-3.3v-.2M77.8 81.4l-.15-.1m-10.6 8.1.2.05.2.05m3.6 11.95-.15-.2-.3-.4-.4-.4-.25-.25-.1-.05-.5-.5-.55-.45-1.15-.9-4.15-2.4-1.35-1-.35-.6-.15-.5.15-.4.05-.1q.25-.7 1.3-1l1.65-.3 2.1.45 1.1.5.9.4m2.6 1.5q-.6.45-1 1.35-.35.8-.35 1.45l.05.9.3 1.1.05.2.05.15.15.25.15.3.55.6h.05l1.05.45 2.85.25h.4v.3h-.05q-1.25.35-1.65 1.6-.25.7-.25 1.6 0 1.4 1.1 2.4l.75.55.15.1.4.25.5.25 2.05.3h.6l.1.1.3.15.1.15.95.5q1.25.6 2.65.6h1l1.05-.4-.4-.85-.25-1.4q0-1 .25-1.4m-8.75-5.05v-.05l-.05-.7.1-.6.2-.55v-.05l.05-.25.2-1.25m1.5 6.15q-1.1-.55-1.6-1.5l-.3-.65-.1-.55m2.4 7.05-.6-.95-.3-.85-.1-.8.3-1 .3-.75.35.15.75.3.25.05 3.3.25m.4-.3-.5-.7m2.4 2.15-1.05-.6-.6-.5v-.05l-.25-.3m-10.4.75-.4-1.25-.75-1.45-.45-.75-.4-.6m7.75 7.2.6.55m-3.7-.9q-.55.35-.65.9l-.05.1-.05 1.3q0 1 .45 1.8l.6.8.65.55.3.25.65.3 1.65.55h.4l1.45-.25.95-.3q-.25.85.05 1.6l.2.35 1.25 1.2.15.1m-11.8-2.05q1.55-3.05 1.7-5.55v-1.75l-.3-1.85m9.25 7.65-.3-.05-.2-.15-.4-.2-.85-.55q-1.45-1.15-1.3-3.25m-16.1-5.1.6.2q1.55.4 2.9 1.45l.3.3q1.3 1.1 1.9 2.5m-11.4-3.9q1.8-.75 3.6-.8h.2l1.9.25m-5.7.55q-.5.2-1.05.5l-.85.45-.65.45-.5.4q-1.3 1-1.85 2.4-.45 1-.45 2.25v.9q.15 1.2.45 2.15.55 1.9 1.7 2.55l.15.1q1.45.7 3 .8l.7.1 1.4-.15q1.85-.2 3.25-1.3 1.2-1.05 1.7-2.4l.25-1.75-.25-1.65q-.4-.95-1.1-1.55-1-.85-2.5-1l-.95-.1q-1.25 0-2.45.7-.85.4-1.25 1.05-.3.6-.3 1.2 0 1.1.7 2.15h.05q.75 1.15 1.85 1.15 1.2 0 1.65-.45.65-.55 1.2-2.15m12.65 13.3 4.4-1 .85-.2.65-.15 8.35-2.1m9.45-7-2.2-.1-.75-.1q-1.4-.4-2.2-1.2l-.55-.95-1.4.35h-.1l-.8-.05-.6-.1-.55-.15-.4-.15-.9-.4-.15-.05-1.35-1.05-.45-.65m6.4 7.15-.3-.1-.05-.05h-.1v-.05l-1-.65q-.8-.8-1-2.3l-.15-1.25v-.3m-.7.3-.5.45q-.6.45-1.1.55l-1.3.35-.6.05-1.45-.15h-.05l-1.1-.3m7.8 4.15-2.3.45h-.5l-1.9-.3-.45-.15-.45-.15-1.6.55-2.05.35-1.6-.15-1.5-.4-.2.7 1.3 1.9.4.5q1.3 1.35 4.35 1.3M71.9 115.5l-.85 1.5-.6 1.05-1.55 2.1-1.3 1.75-2.2 2.75-.2.2M76.65 119l.7-.35m-4.5 2.55q-.5-.55-.55-1.3l-.05-.4.1-.35q.3-1.15.55-1.7l-.15-.25-.45-.7-.4-1m4.1-2.3-.2 1.7v.15l.05.95q.35 1.1 1.2 1.85l.05.05.55.3.35.15m-3.95.2.15.1.5.25 1.1.15.75-.05h.1m-2.6-.45-.45-.4-.7-.7m0 3.75q.1.65.95 1l1.2.3h.8m.4-3-.05.45-.15.85q0 1.5.9 2.1l2.25.65m-37.45-7.95.75-.65.7-1.15.05-.5q0-1.35-.9-2.35l-.15-.1-.35-.4-.1-.05-1.1-.65-1.95-.4q-2.35 0-3.35 1.8-.6.9-.7 2.3l-.05.35v.2l-.05.5q0 1.15.7 2.15l.65.8.25.2 1.2.85 1.1.55q1.6.7 3.25.7 2.35 0 4.1-1.85l.9-1.25q.8-1.45.95-3.2v-.7l-.05-1-.6-2.6-.1-.15-.35-.5q-.65-1.05-1.65-1.75-1.45-1-3.45-1.4l-2.75-.2q-1.2 0-2.8.65l-1.6.8m3.85 7.9q.25.6.9 1l.3.2 1.25.25.4-.05m33.25 9.45-1.05.2-3 .6M27.5 109.6q.8-1.7 2.35-3.55l1.2-1.3 1.1-1.05m-7.45.9.15.35q.35.85 1.35 1.35l.45.25 1.2.2.6-.2m-5.45-.6.05-.2v-.15l.2-.85m-.25 1.2q-.65 2.2-2.2 2.8l-1.2.2q-1.65 0-2.95-.6h-.1l-.1-.05q-1.05-.45-1.55-1.2l-.05-.05-.05-.1q-.35-.7-.35-1.5v-.1l.3-.6m-.4 2.4-.6.85-.1.25-.25.8.05.65.1.4.05.05.1.2.15.3.55.75.35.3q.75.6 1.6.9l1.25.15.95-.1v.65l.1.75.4.85.8.7q.85.5 1.6.5l.8-.1 1.5-1 .15-.1v.05q.8 1.85 1.8 2.5l.6.25 1 .15 1.2-.3 1.35 1.5.5.7.75 1.05.8 1.2.45.7M20.6 110.6l.4-1.1-.15-.35m.25.45v.05q1 1.55 1.7 2.15l1.95.45 1-.2 1.1-.4q-.15.55-.15 1.2 0 2.5 1.25 4.1l.55.6m-7.4-7.95-.1-.1m6.5.1q-.5 1.05-.65 2.05m-2.25 1.5q0 .85-.7 1.75m14.25-.4-.25-.65M16.15 103.7q-.25.05-1.2.5l-.35.2-.05.05-.85.2-2.7-.5q-2.05-.65-2.3-2.1l-1 .85-.45.15-.35.1-1.3.2m3.8-3.05-.55 1.55-.15.2m.6 6.1 1 .35.4.1.65.15h.4l1.9-.5M9.4 100.3l.05-.7v-.15m-.05-.35-.85.1h-.1m12.15 11.4q-.7 1.65-2.05 2.05m85.75-9.45-1.25-.65-.25-.15-.2-.15q-1.35-1.05-1.65-2.4v-.2q-.15-.75 0-1.65m-3.85 1.55h-.6l-.95-.05-.25-.05m11.9 4.6-2.35-.65-.55-.2-.8.55-.7.35-.25.05-.6.05-.1 1.65.4 1.3.55.95h.05l.2.2q.7.8 1.45 1.3m-6.45-5.9-.85-.5-.7-.5-.7.5-.15 2.3.2 1.55.45 1.05.45.7.2.3.85.8.4.25q1.45 1.05 3.25 1.3l1.25.1m-4.65-7.85 3.05.5h.85m-10.9-1 2.45.3 1.5-.05.8-.25m-5.9 3.35q.5 1.35 1.9 2.1h.1l.3.15 2.05.45 1.05.05 1.65-.2m-5.05-.45-.2 1.4.05.4q0 .6.15 1.05l.15.55.2.5m-1.2-9.35-.6-.2-.5-.25-.05.4-.35 1.45v.15l.05.45.3 1.35-1.05.15-.8.15-1-.05-1.7-.6m10.3-4.6.85 1.1m-8.95-2.8q.2 1.55 1.8 2.55l.5.25.1.05m-5.15 16q.1 1.45 1.1 2.25.85.65 2.1.6m-3.25-3.6-.7-.3m6.3.45-2.8.45" fill="none" stroke="#3e250f" stroke-linecap="round" stroke-linejoin="round" stroke-opacity=".8" stroke-width="1.5"/></g><g id="g"><path d="m48.35 6.9.4.05.95.2q1.5.3 3.25 1.25t2.2 2.55q.45 1.55.15 4.25-.3 2.7-3.45 3.8l-3 .8 2.45-2q1.75-1.9 1.75-3.75 0-1.9-4-6.35l-.7-.8M39.4 19.7l-2.3-.65q-2.65-1.1-2.85-3.5-.25-2.4.65-4.75.8-2.4 2.4-3.25l.15-.1q6.3.35 9.05 1.75 3.4 1.8 3.4 4.7 0 3.55-10.5 5.8" fill="#fbfef9" fill-rule="evenodd"/><path d="m48.85 19.8-4.6.35-4.85-.45q10.5-2.25 10.5-5.8 0-2.9-3.4-4.7-2.75-1.4-9.05-1.75 1.45-.8 1.55-.8l2.75-.25 4.35.15 2 .3.25.05.7.8q4 4.45 4 6.35 0 1.85-1.75 3.75l-2.45 2" fill="#e4dde5" fill-rule="evenodd"/><path d="m48.35 6.9.4.05.95.2q1.5.3 3.25 1.25t2.2 2.55q.45 1.55.15 4.25-.3 2.7-3.45 3.8l-3 .8-4.6.35-4.85-.45-2.3-.65q-2.65-1.1-2.85-3.5-.25-2.4.65-4.75.8-2.4 2.4-3.25l.15-.1q1.45-.8 1.55-.8l2.75-.25 4.35.15 2 .3.25.05z" fill="none" stroke="#54220c" stroke-linecap="round" stroke-linejoin="round" stroke-width="1.5"/><path d="M16.5 22.55q1.35-.8 2.2-1.6 2.35-2.05 2.35-4.95 0-4.1-3.9-5.3l-3.9-.65-1.9-.2 1.5-.15 4.2-.2 1.75.25 1.5.55 1.15 1q1.35 1.5 1.35 3.9 0 4.55-4.55 6.7l-1.75.65M5.15 12.25 11.2 12q2.35 0 3.85.9 1.8 1.1 1.8 3.35 0 2.4-2.7 4.15Q12 21.75 7.9 23.2l-3.8-.6q-3-.95-3-3.6 0-4.45 3.9-6.75h.15" fill="#fbfef9" fill-rule="evenodd"/><path d="m11.35 9.85 1.9.2 3.9.65q3.9 1.2 3.9 5.3 0 2.9-2.35 4.95-.85.8-2.2 1.6l-5.4.75-3.2-.1q4.1-1.45 6.25-2.8 2.7-1.75 2.7-4.15 0-2.25-1.8-3.35-1.5-.9-3.85-.9l-6.05.25v-.1q2.2-1.2 4.2-1.8l2-.5" fill="#e4dde5" fill-rule="evenodd"/><path d="m16.5 22.55 1.75-.65q4.55-2.15 4.55-6.7 0-2.4-1.35-3.9l-1.15-1-1.5-.55-1.75-.25-4.2.2-1.5.15-2 .5q-2 .6-4.2 1.8l-.15.1Q1.1 14.55 1.1 19q0 2.65 3 3.6l3.8.6 3.2.1 5.4-.75z" fill="none" stroke="#54220c" stroke-linecap="round" stroke-linejoin="round" stroke-width="1.5"/><path d="M40.65 7.15q1.35-.4 3 1.5 1.7 2 1.7 4.05 0 1.95-2.05 4.1-1.75 1.8-3.65 2.2h-.05q-1.1-.85-1.1-1.75 0-.65.15-1.25 1.2-.45 2.1-1.4 1.5-1.6 1.5-4.25 0-.9-.8-2.05l-.35-.45q-.05-.45-.45-.7" fill="#35c2c7" fill-rule="evenodd"/><path d="m34.05 13.1-.05-.9q0-1.35.6-2.45l1-1.25q1.6-1.5 4-1.55h.2q.6.1 1.3.9l.35.45q.8 1.15.8 2.05 0 2.65-1.5 4.25-.9.95-2.1 1.4l-1.9.25q-1.55 0-2.2-1.1-.4-.7-.5-2.05m2.1-4.1-.85.3-.55.55q-.4.6-.4 1.4 0 1.05 1.15 1.05.95 0 1.6-.7.65-.65.65-1.45l-.2-1.05q-.2-.3-.7-.3l-.6.2h-.1" fill="#14585e" fill-rule="evenodd"/><path d="m36.25 9 .6-.2q.5 0 .7.3l.2 1.05q0 .8-.65 1.45-.65.7-1.6.7-1.15 0-1.15-1.05 0-.8.4-1.4l.55-.55.85-.3h.1" fill="#83feea" fill-rule="evenodd"/><path d="m39.6 19-1.05.1q-1.3 0-2.95-1.35-1.65-1.35-1.65-2.25l.1-2.4q.1 1.35.5 2.05.65 1.1 2.2 1.1l1.9-.25q-.15.6-.15 1.25 0 .9 1.1 1.75" fill="#2b6553" fill-rule="evenodd"/><path d="M40.65 7.15q1.35-.4 3 1.5 1.7 2 1.7 4.05 0 1.95-2.05 4.1-1.75 1.8-3.65 2.2h-.05l-1.05.1q-1.3 0-2.95-1.35-1.65-1.35-1.65-2.25" fill="none" stroke="#0e1d13" stroke-linecap="round" stroke-linejoin="round" stroke-width="1.2"/><path d="m33.95 15.5.1-2.4-.05-.9q0-1.35.6-2.45l1-1.25q1.6-1.5 4-1.55h.2l.75.2h.1q.4.25.45.7l.35.45q.8 1.15.8 2.05 0 2.65-1.5 4.25-.9.95-2.1 1.4l-1.9.25q-1.55 0-2.2-1.1-.4-.7-.5-2.05m6.5-5.95h.1m.45.7q-.7-.8-1.3-.9" fill="none" stroke="#0e1d13" stroke-linecap="round" stroke-linejoin="round" stroke-width="1.5"/><path d="M2.45 16.5q0 .55.4 1 .45.55 1.15.55t1.35-.75q.75-.75.75-1.5l-.3-1.2-.45-.55q-.55.2-1.15.55-1.75.9-1.75 1.9m4 3.65-.85.1q-1.3 0-2.6-1.15t-1.3-2.5l.1-.7.2-.55 1.1-1.6q1.75-1.85 4.4-1.95h.55q.75.3 1.5 1.7.7 1.25.7 2.1 0 1.4-1.55 3.05-1.15 1.15-2.25 1.5v-.05.05" fill="#14585e" fill-rule="evenodd"/><path d="M2.45 16.5q0-1 1.75-1.9.6-.35 1.15-.55l.45.55.3 1.2q0 .75-.75 1.5-.65.75-1.35.75-.7 0-1.15-.55-.4-.45-.4-1" fill="#83feea" fill-rule="evenodd"/><path d="m1.8 15.9-.1.7q0 1.35 1.3 2.5t2.6 1.15l.85-.1-.05 1.15q0 1.1 1.4 1.35l-1.75.15-3.1-.45q-.8-.4-1.5-2.25-.7-1.8-.3-2.85.35-1.05.65-1.35" fill="#2b6553" fill-rule="evenodd"/><path d="M7.8 22.65q-1.4-.25-1.4-1.35l.05-1.15q1.1-.35 2.25-1.5 1.55-1.65 1.55-3.05 0-.85-.7-2.1-.75-1.4-1.5-1.7H7.5q.1-.6.7-.75h1.05q1.95 0 2.8 1 .8.95.8 2.9 0 2.8-1 4.65-1.3 2.5-4.05 3.05" fill="#35c2c7" fill-rule="evenodd"/><path d="m6.45 20.15-.85.1q-1.3 0-2.6-1.15t-1.3-2.5l.1-.7.2-.55 1.1-1.6q1.75-1.85 4.4-1.95h.55q.75.3 1.5 1.7.7 1.25.7 2.1 0 1.4-1.55 3.05-1.15 1.15-2.25 1.5" fill="none" stroke="#0e1d13" stroke-linecap="round" stroke-linejoin="round" stroke-width="1.5"/><path d="M1.8 15.9q-.3.3-.65 1.35-.4 1.05.3 2.85.7 1.85 1.5 2.25l3.1.45 1.75-.15q2.75-.55 4.05-3.05 1-1.85 1-4.65 0-1.95-.8-2.9-.85-1-2.8-1H8.2q-.6.15-.7.75" fill="none" stroke="#0e1d13" stroke-linecap="round" stroke-linejoin="round" stroke-width="1.2"/><path d="M51 1.4q4.95 3.05 4.95 5.45l-.2.45-.7.2-13.5-.45Q37 7 35.3 6.25q-2.05-.85-5.2-4.7.15-.85 1.7-1.2L38.4 0l6.55.2 3.5.4 2.55.8M0 9.3q.65.05 3.1-1.2 2.35-1.2 8.6-2.7 6.15-1.6 10.55-2.45l.1.5q0 .85-1.15 2.5L19.7 7.8 18 8.9l-2.9.7-12.4 3.6q-.9 0-1.8-1.35-.8-1.1-.8-1.6L0 9.3" fill="#501d00" fill-rule="evenodd"/></g><g id="h"><path d="M11.65 31.55q.45-3.65 7.1-6.1 5.85-2.2 12.4-2.2l5.6.5v.05l-.4.05q-.75 0-1.3.9-.5.7-.5 1.1 0 .75.95 1.05l1.35.25q2.3 0 2.3-1.4 0-.75-1.1-1.4l-1.1-.5v-.1q1.15.3 1.95.75 2.3 1.3 2.3 5.2 0 3.75-4.55 6-4.3 2.1-10.9 2.1L22 37.6l-5.25-1.05-3.65-.75-.95-.4q-.35-.85-.45-1.85-.1-1-.05-2m20.25 0 .2-1.1q.05-.75-1.55-1.5-1.55-.7-2.75-.65l-2.15.1-1.3.25-1.3.25q-1.05.2-2.15 1.05-.35.45-.35 1.05 0 .95 1.2 1.65l.25.05.35.25.2.05q1.75.6 4.3.6l3.25-.6q1.4-.6 1.8-1.45" fill="#f6b389" fill-rule="evenodd" transform="translate(-10.95 -20.2)"/><path d="m36.95 23.85 1.1.5q1.1.65 1.1 1.4 0 1.4-2.3 1.4l-1.35-.25q-.95-.3-.95-1.05 0-.4.5-1.1.55-.9 1.3-.9l.4-.05.2.05" fill="#fbfef9" fill-rule="evenodd" transform="translate(-10.95 -20.2)"/><path d="m11.65 31.55.2-1.95q.6-3.25 3-4.9 3.75-2.7 8.45-3l1.45-.25 1.55-.2 2.7-.2q4-.25 6.2-.05 2.25.15 3.8.65 1.5.4 2.65 1.6 1.1 1.15 1.55 2.65l.65 3.25q.15 1.7-.65 4.45-.75 3.85-5.1 5.1-4.3 1.3-8.95 1.4l-8-.45-3.8-.55-2.4-.75q-2.05-1.05-2.8-2.95l.95.4 3.65.75L22 37.6l3.75.2q6.6 0 10.9-2.1 4.55-2.25 4.55-6 0-3.9-2.3-5.2-.8-.45-1.95-.75h-.2l-5.6-.5q-6.55 0-12.4 2.2-6.65 2.45-7.1 6.1m20.25 0q-.6-.5-2-.7l-4.05-.2h-2.9q-1.2.2-1.2 1.1 0 .45.15.8l-.15.1q-1.2-.7-1.2-1.65 0-.6.35-1.05 1.1-.85 2.15-1.05l1.3-.25 1.3-.25 2.15-.1q1.2-.05 2.75.65 1.6.75 1.55 1.5l-.2 1.1" fill="#ee8049" fill-rule="evenodd" transform="translate(-10.95 -20.2)"/><path d="M21.9 32.55q-.15-.35-.15-.8 0-.9 1.2-1.1h2.9l4.05.2q1.4.2 2 .7-.4.85-1.8 1.45l-3.25.6q-2.55 0-4.3-.6l-.2-.05-.35-.25-.1-.15" fill="#5f1c02" fill-rule="evenodd" transform="translate(-10.95 -20.2)"/><path d="M1.2 15.2q.75 1.9 2.8 2.95l2.4.75 3.8.55 8 .45q4.65-.1 8.95-1.4 4.35-1.25 5.1-5.1.8-2.75.65-4.45l-.65-3.25q-.45-1.5-1.55-2.65-1.15-1.2-2.65-1.6-1.55-.5-3.8-.65-2.2-.2-6.2.05l-2.7.2-1.55.2-1.45.25q-4.7.3-8.45 3-2.4 1.65-3 4.9l-.2 1.95q-.05 1 .05 2t.45 1.85M13.8 1.25h-.05l-1.4.25" fill="none" stroke="#501a04" stroke-linecap="round" stroke-linejoin="round" stroke-width="1.4"/></g><g id="i"><path d="M10.75.1Q5.4 3.05 5.4 4.8l.2.8 1 .2 3.9-.2q2.4 0 5 1.2 2.45 1.1 5.5 3.5 2.7 2.05 3.6 4.9.45 1.5.45 3.6v.6l-.1.55-.5 1.1-.85 1.4-.1.05-.6.25-2 .3-1.75.35-2.5.25-2.35.15-2.2-.05-3.8-.5-3.2-.75q-1.45-.6-2.75-1.4l-1.05-.85Q.55 19.2.25 18.05l.45.35-.6-.9-.05-.6q-.4-4.6 1.6-9.35Q4.45.7 10.75.1m.05 10.75q0-1.05-1.05-1.75t-2.6-.7q-1.5 0-2.55.7-1.05.7-1.05 1.75 0 1 1.05 1.7 1.05.75 2.55.75 1.55 0 2.6-.75 1.05-.7 1.05-1.7" fill="#ca842f" fill-rule="evenodd" transform="translate(.75 .75)"/><path d="m10.75.1 2.4-.05q5.2-.55 13.75 7.4 2.9 1.9 7.3 3.2l1.1.3.9.2q-2.25 7.05-12.6 11.3l.85-1.4.5-1.1.1-.55v-.6q0-2.1-.45-3.6-.9-2.85-3.6-4.9-3.05-2.4-5.5-3.5-2.6-1.2-5-1.2l-3.9.2-1-.2-.2-.8q0-1.75 5.35-4.7" fill="#8b5a21" fill-rule="evenodd" transform="translate(.75 .75)"/><path d="M10.8 10.85q0 1-1.05 1.7-1.05.75-2.6.75-1.5 0-2.55-.75-1.05-.7-1.05-1.7 0-1.05 1.05-1.75t2.55-.7q1.55 0 2.6.7t1.05 1.75" fill="#fad3a8" fill-rule="evenodd" transform="translate(.75 .75)"/><path d="M23.6 22.45q10.35-4.25 12.6-11.3l.95.25Q35.7 19.8 23.5 24.6l-2.35.35-.25.05q-9.2 1-14.2-.7-3.8-1.7-5.4-4.05l1.05.85q1.3.8 2.75 1.4l3.2.75 3.8.5 2.2.05 2.35-.15 2.5-.25 1.75-.35 2-.3.6-.25.05.05.05-.1" fill="#451602" fill-rule="evenodd" transform="translate(.75 .75)"/><path d="m36.95 11.9-.9-.2-1.1-.3q-4.4-1.3-7.3-3.2Q19.1.25 13.9.8l-2.4.05q-6.3.6-9.1 7.45-2 4.75-1.6 9.35l.05.6.15.55q.3 1.15 1.05 2.2 1.6 2.35 5.4 4.05 5 1.7 14.2.7l.25-.05 2.35-.35q12.2-4.8 13.65-13.2l-.95-.25" fill="none" stroke="#451602" stroke-linecap="round" stroke-linejoin="round" stroke-width="1.5"/><path d="m36.25 10.55-.2 1.15" fill="none" stroke="#451602" stroke-linecap="round" stroke-linejoin="round" stroke-width=".05"/></g><path d="M0 16.6Q0 9.7 15.4 4.85 30.75 0 52.45 0q21.75 0 37.1 4.85 15.4 4.85 15.4 11.75 0 6.85-15.4 11.7-15.35 4.85-37.1 4.85-21.7 0-37.05-4.85Q0 23.45 0 16.6" fill-opacity=".349" fill-rule="evenodd" id="b"/><path d="M56.65 10.15q-.3 3.1-3.4 4.4l-3 .9-4.6.35-3.6-.2q1.25.45 2.2 1.45 1.15 1.2 1.6 2.75l.7 3.4q.2 1.75-.65 4.6-.8 4-5.3 5.35-4.5 1.35-9.35 1.45l-8.3-.45-3.9-.6-2.55-.8q-2.15-1.05-2.9-3.1l-.45-1.9-.05-2.1.2-2.05q.55-3.3 3.1-5.05 3.9-2.8 8.8-3.15l1.5-.2.4-.1 1.2-.15 2.8-.15q4.15-.25 6.45-.05l1.8.15-.9-.35q-2.65-1.25-2.85-4-.2-2.75.65-5.45.85-2.75 2.4-3.7l.2-.15 1.5-.9 2.75-.3 4.35.15 2 .4.25.05.45.05.9.25q1.5.3 3.25 1.4 1.75 1.15 2.2 2.95.45 1.75.15 4.85m-17.3 4.75 1.4.4 1.3.3-.6-.2-2.1-.5M13.4 2.9l4.8-.25 2 .3 1.75.6 1.3 1.15q1.55 1.55 1.55 4.2 0 5-5.25 7.4l-1.95.7-6.15.85-3.7-.15-4.35-.65Q0 16 0 13.1q0-4.9 4.45-7.45l.15-.1Q7.15 4.2 9.45 3.6l2.25-.55 1.7-.15" fill="#a76d24" fill-rule="evenodd" id="f"/><path d="M612.95 0v461.95H0V0h612.95" fill="#fff" fill-opacity="0" fill-rule="evenodd" id="j"/></defs></svg>