<svg xmlns:ffdec="https://www.free-decompiler.com/flash" xmlns:xlink="http://www.w3.org/1999/xlink" ffdec:objectType="frame" height="90" width="90" xmlns="http://www.w3.org/2000/svg"><use ffdec:characterId="1" height="9.8" transform="matrix(1.0321 0 0 1.9446 9.158 69.772)" width="55.5" xlink:href="#a"/><use ffdec:characterId="6" height="47.75" transform="matrix(-.8061 0 0 .8061 23.9 17.16)" width="29.65" xlink:href="#b"/><use ffdec:characterId="8" height="18.15" transform="matrix(-.8061 0 0 .8061 63.85 32.25)" width="20.75" xlink:href="#c"/><use ffdec:characterId="10" height="48.45" transform="matrix(-.8061 0 0 .8061 66.4 43.9)" width="73.5" xlink:href="#d"/><use ffdec:characterId="12" height="26.4" transform="matrix(-.8061 0 0 .8061 57.65 34.8)" width="15.85" xlink:href="#e"/><use ffdec:characterId="14" height="23.45" transform="matrix(-.8061 0 0 .8061 72.5 5.85)" width="59.8" xlink:href="#f"/><use ffdec:characterId="16" height="18.35" transform="matrix(-.8061 0 0 .8061 62.05 44.45)" width="8.55" xlink:href="#g"/><use ffdec:characterId="18" height="32" transform="matrix(-.8061 0 0 .8061 52.9 37.55)" width="33.8" xlink:href="#h"/><use ffdec:characterId="20" height="51.1" transform="matrix(-.8061 0 0 .8061 86.7 15.15)" width="49.85" xlink:href="#i"/><use ffdec:characterId="26" height="58.6" transform="matrix(-.8061 0 0 .8061 54.75 12.7)" width="50.45" xlink:href="#j"/><defs><use ffdec:characterId="2" height="41.25" transform="translate(0 6.5)" width="29.65" xlink:href="#k" id="b"/><use ffdec:characterId="7" height="18.15" width="20.75" xlink:href="#l" id="c"/><use ffdec:characterId="9" height="48.45" width="73.5" xlink:href="#m" id="d"/><use ffdec:characterId="11" height="26.4" width="15.85" xlink:href="#n" id="e"/><use ffdec:characterId="13" height="23.45" width="59.8" xlink:href="#o" id="f"/><use ffdec:characterId="15" height="18.35" width="8.55" xlink:href="#p" id="g"/><use ffdec:characterId="17" height="32" width="33.8" xlink:href="#q" id="h"/><use ffdec:characterId="19" height="51.1" width="49.85" xlink:href="#r" id="i"/><use ffdec:characterId="21" height="58.6" width="50.45" xlink:href="#s" id="j"/><g id="k" fill-rule="evenodd"><path d="M25.35.5v.3l.05.35q-.05.6.45 1.65.6 1.45.6 2.2 0 1.7-1.3 2.9l-.35.2-.4-.05-.1-.1-.2-.2-.15-.3L23.5 7l-1.2-.85q-1.2-1.65-1.15-3 0-1.6 1.25-2.3V.8q.2-.15 2.1-.75l.5.05.35.4m-.55 5.7.3-1.2-.5-1.7v.05l-.5-1.7-1 .35q-.4.2-.5.65l-.1.5q.05 1 .9 2.2l.75.5.6.4.05-.05m-3.3 1.75.4.2.65.9.05.15 1.1-.45 1.9-.35q.85-.05 2.25.55 1.9.75 1.8 1.7L28.5 13.2v-.05l-.55 2.1q-.4 1.6-1.3 2.6h-.05Q25.55 19 24.15 19h-.3l.15.65v.3l-.7 1.2-1 1.1v.05q-1.1 1.1-2.95 1.1l-1.45-.25-1.05-.25-3.35 7.25L11.9 34q-1.1 2.05-2.8 1.75-1.75-.3-1.95-.95l-.05-.05q-.3-.6.05-1.5l.05-.05.1-.15V33l1.6-3.9 2.4-5.6 1.3-3.05-.75-1.2Q10.8 17.6 10.8 15.8q0-2.55 1.6-4.55 1.75-2.25 4.15-2.2.9 0 1.7.65l.05.05.8.3.9-.35.05-.05.5-1.25.3-.4.5-.1.15.05m.2 2.9-.2-.2-.1-.4.05-.45-.4.7q-.7.85-1.95.85-.85 0-1.65-.65-.45-.35-.9-.35-1.8 0-3.1 1.7h-.05q-.65.8-.95 1.7-.35.95-.35 2.05 0 1.45.85 2.75l.85 1.4.1.1.15-.2.45-.75h.05q.45-.65.45-1.55l-.15-1.3q0-1.4.5-2.15.7-1.1 2.35-1.1.65 0 1.2.5l.35.35q.55.8.55 1.85 0 .7-.7 2l-.85.75q-.55.25-.75.4l-.25.3-.15.35-.25 1.1-.3.7.25.1.3.25 1.1.25 1.15.2q1.3 0 2-.7l.9-1 .05-.1.15-.2.2-.25-.3.05q-1.8-.05-1.65-1.2-.05-.45.7-1.95v.05l.55-1.05.15-.15q.45-.6.75-.5l.6.3.25.6-.2.75v.05l-.15.4q.05.5.8.5h.05q.8 0 1.5-.7l.15-.2.85-1.85.6-2.25v-.05l1.05-2-.95-.5-1.8-.5-1.5.3q-1 .35-1.6.85l-.35.2-.25-.05-.15-.05-.05-.05m.65 7.75h.25l-.4-.55-.25.65.4-.1m-3.1-2.2.1-.7q0-.95-.45-1.6l-.6-.5-.6-.2-1.2.25-.3.15-.15.15q-.35.3-.55.8-.25.6-.25 1.5l.15 1.1v.15q0 1.05-.55 1.85l-.95 1.4-.15.2L12.5 24l-2.4 5.6-.15.3-1.5 3.65v.05l-.05.1-.05.1-.1.4 1.05.3q.85.05 1.45-1.05l1.1-2.65h.05l.45-1.15v-.1l3.6-7.8.15-.25.05-.1h-.05l.4-1 .2-1 .2-.5.35-.4q.15-.1.45-.25l.15-.1h.1l.1-.1h.05l.65-.55.35-.7.05-.1.05-.15.05-.15" fill="#5d1010"/><path d="M22.6 2.65q.1-.45.5-.65l1-.35.5 1.7V3.3l.5 1.7-.3 1.2-1.2-2.05-1-1.5m-10.15 11.1q.3-.9.95-1.7h.05q1.3-1.7 3.1-1.7.45 0 .9.35.8.65 1.65.65 1.25 0 1.95-.85l.4-.7-.05.45.1.4.2.2-.45.65-.6.4-.15.05h-.05l-.75.15q-2 .3-3.15.7H16q.2-.3 1-.7l1.1-.6-.05-.05-.6-.3-.75-.25q-1.05 0-2.6 1.5L13 13.55l-.25.25-.1.05-.2-.1m9.45-2.8.25.05.35-.2q.6-.5 1.6-.85l1.5-.3 1.8.5.95.5-1.05 2v.05l-.6 2.25-.85 1.85.15-.55.05-.85-.15-1.45.2-1.35.4-1.3-.75.15-2.65.8q-1.6.9-2.3 2.85v-.35q0-.35.55-2.15l.55-1.65m.05 4.8-.55 1.05v-.05q-.75 1.5-.7 1.95-.15 1.15 1.65 1.2l.3-.05-.2.25-.9.15-1.25-.2q-.5-.3-.5-1.15l.05-.85.15-.5.15-.4.7-.9.5-.5h.6m-5.45-2.1 1.2-.25.6.2.6.5q.45.65.45 1.6l-.1.7-.05-.35q-.05-.65-.3-.65-.15 0-.3.15l-.3.15-.6-.25q-.4-.3-.4-.7l.05-.4.35-.35-.1-.05-.55-.1-.05-.05-.5-.15" fill="#ffb912"/><path d="m24.8 6.2-.05.05-.6-.4-.75-.5q-.85-1.2-.9-2.2l.1-.5 1 1.5 1.2 2.05m-.6 11.5h-.05q-.75 0-.8-.5l.15-.4v-.05l.2-.75-.25-.6-.6-.3q-.3-.1-.75.5l-.15.15h-.6l-.5.5-.05-1.15q.7-1.95 2.3-2.85l2.65-.8-.25.5q-.3.5-.3.85l-.15 1.75-.15 1.85-.7 1.3m-11.25-2.2.5-1.45q.5-.95 1.45-1.5l-.6.95q-.75 1.55-.85 3.55l-.1-.05-.35-1.3-.05-.2" fill="#e32c2d"/><path d="m12.45 13.75.2.1.1-.05-.05.45.25 1.25.05.2.35 1.3.1.05q.1-2 .85-3.55l.6-.95.3-.4q.7-.75 1.6-1l-.85 1.45q-.6.8-.6 1.5-.5.75-.5 2.15l.15 1.3q0 .9-.45 1.55h-.05l-.45.75-.15.2-.1-.1-.85-1.4q-.85-1.3-.85-2.75 0-1.1.35-2.05m8.05-1.8.15-.05.6-.4.45-.65.05.05.15.05-.55 1.65q-.55 1.8-.55 2.15v.35l.05 1.15-.7.9-.15.4-.15.5-.55.8-.6 1.25q0 .35.75.55l1.1.15 1.55-.4h.15l-.9 1q-.7.7-2 .7l-1.15-.2-1.1-.25-.3-.25-.25-.1.3-.7.25-1.1.15-.35.25-.3q.2-.15.75-.4l.85-.75q.7-1.3.7-2 0-1.05-.55-1.85l-.35-.35.95-.75.65-.75v-.05" fill="#b42501"/><path d="m12.75 13.8.25-.25 1.1-1.15q1.55-1.5 2.6-1.5l.75.25.6.3.05.05-1.1.6q-.8.4-1 .7h.55q1.15-.4 3.15-.7l.75-.15.05.05-.65.75-.95.75q-.55-.5-1.2-.5-1.65 0-2.35 1.1 0-.7.6-1.5l.85-1.45q-.9.25-1.6 1l-.3.4q-.95.55-1.45 1.5l-.5 1.45-.25-1.25.05-.45m13.1 3-.15.2q-.7.7-1.5.7l.7-1.3.15-1.85.15-1.75q0-.35.3-.85l.25-.5.75-.15-.4 1.3-.2 1.35.15 1.45-.05.85-.15.55m-3.4 3.3-.15.2-.05.1h-.15l-1.55.4-1.1-.15q-.75-.2-.75-.55l.6-1.25.55-.8-.05.85q0 .85.5 1.15l1.25.2.9-.15" fill="#ff5b5c"/><path d="m19.25 16.4-.05.15-.05.15-.7.15q-.85 0-1.3-.65-.45-.65-.45-1.5l.05-.55.25-.35.05.05.55.1.1.05-.35.35-.05.4q0 .4.4.7l.6.25.3-.15q.15-.15.3-.15.25 0 .3.65l.05.35" fill="#ac344c"/><path d="m19.15 16.7-.05.1-.35.7-.65.55h-.05l-.1.1h-.1q-1.15 0-1.6-.6-.5-.6-.45-1.7l.25-1.9.15-.15.3-.15.5.15-.25.35-.05.55q0 .85.45 1.5t1.3.65l.7-.15" fill="#781a2d"/><path d="m17.85 18.15-.15.1q-.7.05-1.35-.3l-.5-.3-.45-.3-.15-1.1q0-.9.25-1.5.2-.5.55-.8l-.25 1.9q-.05 1.1.45 1.7.45.6 1.6.6" fill="#f65759"/><path d="m13.9 20.75.95-1.4q.55-.8.55-1.85v-.15l.45.3.1.55q0 1.15-2.35 5.95 1.25-2.8.3-3.4" fill="#cf9458"/><path d="m9.95 29.9.15-.3 2.4-5.6 1.25-3.05.15-.2q.95.6-.3 3.4l-.2.4-.05.05q-2.35 4.7-3.4 5.3" fill="#ceb765"/><path d="M17.7 18.25q-.3.15-.45.25l-.35.4-.55.3q-.4.3-2.65 5.55t-2.15 5.4l.3.6v.05l-1.1 2.65q-.6 1.1-1.45 1.05l-1.05-.3.1-.4.05-.1.05-.1v-.05l1.5-3.65q1.05-.6 3.4-5.3l.05-.05.2-.4q2.35-4.8 2.35-5.95l-.1-.55.5.3q.65.35 1.35.3" fill="#a99039"/><path d="m16.9 18.9-.2.5-.2 1-.4 1h.05l-.05.1-.15.25-3.6 7.8v.1l-.45 1.15-.05-.05-.3-.6q-.1-.15 2.15-5.4t2.65-5.55l.55-.3" fill="#f9e497"/><path d="m10.1 35.5-1.6.5-.95.25q1.8-3.3 2.7-6.1 1.15 1 1.15 2.05 0 1.7-1.15 3.1l-.15.2" fill="#8fffef"/><path d="M.3 39.55Q0 38.8 0 38q0-3.25 2.35-6.2 1.5-1.85 3.6-3.1h.6l1.1.1.9.2q.95.55 1.5 1l.15.1.05.05q-.9 2.8-2.7 6.1L8.5 36l1.6-.5q-1 1.1-2.8 2.1-3.15 1.7-7 1.95" fill="#027ea0"/><path d="M.3 39.55q3.85-.25 7-1.95 1.8-1 2.8-2.1l.15-.2q1.15-1.4 1.15-3.1 0-1.05-1.15-2.05l-.05-.05-.15-.1q-.55-.45-1.5-1l1.95.85q2.25 1.2 2.25 2.85 0 1.6-1.55 3.3-2.35 1.35-2.95 1.85l-1.4 1-1.75 1-1.85.85q-.75.3-1.25.55Q.9 41 .4 39.8l-.1-.25" fill="#0b3252"/></g><g id="l" fill-rule="evenodd"><path d="m8.95 14.9 1.45-.25-1.5.8-.1-.05-.25.25-1.9.7q-.85 0-1.6-.65-.8-.7-.8-1.6 0-.5.3-.85l.4-.35h-.5l-1.35.15h-.65v-.25Q2.5 11.7 4 11.3l1.9-.35q-2.7 0-3.75-.7-.65-.4-1.6-2.55 1.45-.15 2.4-.8Q4 6.2 4.05 5.1H4q-.9-.35-.9-1.05l.4-.9.6-.55.2.85q.15.2.8.2l.45-.3.25.1.4.15 1.05-.15q1.45 0 1.45.85-2 2.4-2.7 2.75l-1.55.7-1.3.4q.2.75 1 1.3 1.1.75 2.65.75l1.1-.15-.45.95h-.1l-.5.6-.9 1v.3q.15.8.85 1.35.85.65 2.05.65h.1" fill="#fff"/><path d="m10.85 3.35.3.6.3.75.2-1.25q.15-1.05.95-1.05l.35.05v.3q-.3.4-.3.75l.2.65.25.1 1.4-1 2.2-.35q1.1 0 1.85.55.95.65 1.95 2.3l-.8 3.45-1.45 4.65-3.75 1.3-3.65.85-1.1-.25-.85-.3 1.5-.8-1.45.25H8.9q-.25-1.15-.25-2.5 0-.95.3-2.2l.45-1.5-1.25-.35-.7-.7q2.2-.8 2.8-1.95l.6-2.35m-.45 11.3.1-.05.6-.15-.7.2" fill="#9786ac"/><path d="m10.85 3.35-.6 2.35q-.6 1.15-2.8 1.95l.7.7 1.25.35-.45 1.5q-.3 1.25-.3 2.2 0 1.35.25 2.5h-.05q-1.2 0-2.05-.65-.7-.55-.85-1.35v-.3l.9-1 .5-.6h.1l.45-.95-1.1.15q-1.55 0-2.65-.75-.8-.55-1-1.3l1.3-.4L6 7.05q.7-.35 2.7-2.75 0-.85-1.45-.85L6.2 3.6l-.4-.15-.25-.1.75-1.05Q7.15 1 8.6 1q.85 0 1.3.35l.7 1.35.2.5.05.15" fill="#aeb0e6"/><path d="M20.5 5.75q-1-1.65-1.95-2.3-.75-.55-1.85-.55l-2.2.35-1.4 1-.25-.1-.2-.65q0-.35.3-.75v-.3l-.35-.05q-.8 0-.95 1.05l-.2 1.25-.3-.75-.3-.6-.05-.15-.2-.5-.7-1.35Q9.45 1 8.6 1 7.15 1 6.3 2.3l-.75 1.05-.45.3q-.65 0-.8-.2l-.2-.85-.6.55-.4.9q0 .7.9 1.05h.05Q4 6.2 2.95 6.9q-.95.65-2.4.8.95 2.15 1.6 2.55 1.05.7 3.75.7L4 11.3q-1.5.4-1.55 1.5v.25h.65l1.35-.15h.5l-.4.35q-.3.35-.3.85 0 .9.8 1.6.75.65 1.6.65l1.9-.7.05-.05.3-.15.85.3 1.1.25 3.65-.85 3.75-1.3-.7 1.65-5.15 1.8q-3.55 1-4.7.8-2.45 0-3.25-.7-.75-.7-1.4-2.65l-1.2.05-.4-.1-.25-.4-.25-.75q0-.55.5-1.85l.45-1.1-.3-.2-.95-1.1Q-.1 8.35 0 7.8l.1-.55Q2.7 6.9 3.55 5.4q-.65 0-.85-.35l-.2-.9q0-1.25 1-2.05.7-.6 1.45-.75L4.7 2.6l.05.55.45.15.6-1Q6.35 1.25 6.9.95 8.5 0 9.95 0 10.5 0 11 1.05q.45 1 .2 1.65l.1.05 1-1.1.9-1.4q1.05.1.85 1.7v.45l.2.05 1.3-.35 1.9-.4q1.85 0 2.75 1.45l.55 1.15-.25 1.45" fill="#0b3252"/></g><g id="m" fill-rule="evenodd"><path d="M49.05 4.3q-6.7-2.05-14.45-2.85-15.1 3.1-22.7 10.4l-.85 7.55-.1.95q-.9 15.15 8.85 23.4 13 5.15 27.05 2.1l1-.25q5.6-1.55 9.6-4.3 4.95-3.45 7.4-8.85 3.35-14.55-2.55-22.4L59 8.2q-4.65-2.35-9.95-3.9m14.1 4.55 2.35 5.35q2.25 5.25 1.4 12.1-.9 6.85-3.15 12.15-1.8 4.3-11.6 7.45l-4.95 1.4h-.05q-14.55 3.1-28-2.25l-.2-.1q-10.2-8.5-9.5-24.1v-.65l1.05-8.75.2-.45q7.85-7.8 23.75-11h.2q9 .9 16.7 3.45 6.35 2.15 11.8 5.4" fill="#5d1010"/><path d="m49.05 4.3-1.6.65Q37.4 9.35 36.05 16.5q-.55 2.65-.25 5.95-.2 1.9-3.55 1.9-1.3 0-2.85-.95l-2.95-2.25q-4.15-3.2-8.15-3.2l-5.05.6q-1.35.25-2.2.85l.85-7.55q7.6-7.3 22.7-10.4 7.75.8 14.45 2.85" fill="#95624e"/><path d="M11.05 19.4q.85-.6 2.2-.85l5.05-.6q4 0 8.15 3.2l2.95 2.25q1.55.95 2.85.95 3.35 0 3.55-1.9-.3-3.3.25-5.95 1.35-7.15 11.4-11.55l1.6-.65q5.3 1.55 9.95 3.9l.95 2.1.05.1.15.25q-.05 1.45-.8 3.55l-1.55 3.45-1.55 2.95L54.6 25q-2.5 1.4-7.75 1.9l-10 .8-1.35-.4-4.2-.6-.5.1v.65l-.25 2.1q2.3 2.35 2.3 5.1 0 1.45-.75 2.45-.45.65-1.3 1.2l.8 2.85.4 1.5q2.45 1.5 6.95 2.15l8.9.8-1 .25Q32.8 48.9 19.8 43.75q-9.75-8.25-8.85-23.4l.1-.95" fill="#cea860"/><path d="m47.85 45.6-8.9-.8q-4.5-.65-6.95-2.15l-.4-1.5-.8-2.85q.85-.55 1.3-1.2.75-1 .75-2.45 0-2.75-2.3-5.1l.25-2.1v-.65l.5-.1 4.2.6 1.35.4 10-.8q5.25-.5 7.75-1.9l1.65-4.4 1.55-2.95 1.55-3.45q.75-2.1.8-3.55l1.9 3.65 1.75 4.15.15 4.05q0 6.55-2.15 11.8-1.6 4-4.35 7-4 2.75-9.6 4.3" fill="#fee89d"/><path d="M59.95 10.3 59 8.2l3.3 1.85q5.9 7.85 2.55 22.4-2.45 5.4-7.4 8.85 2.75-3 4.35-7 2.15-5.25 2.15-11.8l-.15-4.05-1.75-4.15-1.9-3.65-.2-.35" fill="#fff"/><path d="m3.4 21 .1-.2 1.1-1.05.65-.45 1-.75.65-.5q.15-.15.45-.15l.3.15h.1l1.75-.5q1 0 2.35.85l1.25.8q.85-1.35 3.2-1.35 1.7 0 3.35 1.45 1.4 1.3 1.3 2.35l.65-.15h.1q1.8 0 3.7 2.15 1.8 2.15 1.8 4.3l-.35 1.2-.45.75q1.95.9 2.6 2 .7 1.15.8 3.15.1 2.15-.35 2.5h-.05l-1.05 1.05.35.9v1.25q0 2.25-1.6 3.6h-.05L25 45.5v.05l-.1.05v.05l-.25.45q-1.55 1-3.2 1l-2-.4h-.05l-.75-.3-.45.4q-1 .7-1.8.7-1.35 0-2.85-.7-1.3-.6-2.1-1.4l-.1-.1-.25-.4-.9-.05-.7-.15q-.95-.25-2.3-1.5L6.3 42l-.7-1.2h.05l-.5-1.25-.55-.4h-.05q-.8-.25-2.1-1.65Q1 35.85 1 34.65q0-.55.5-1.8l.45-1-1.4-1.6q-.55-.9-.55-2.7l.05-1.4q.1-.85.3-1.2.6-1.5 2.5-1.5h.2l-.05-.5v-.05l.05-1 .35-.9m4.55-2.4h-.1l-.25.45-1.65 1.25H7l1.45.2H8.4l.75.7q2-1.45 3.4-1.45l.35.05-1.35-.9q-1.2-.75-2.05-.75l-1.55.45m9 5.65-.05-.15v-.2q.4-1.2-1.2-2.4-1.6-1.15-3.15-1.15-.65 0-1.35.35l-1.95 1.15-.15.05-.15-.05-.1-.1L8.2 21 7 20.85q-.9 0-1.7.45l-.2.1q-.3.1-.5.3l-.25.2-.1.35-.05.2v.4l.15 1.3-.05.35-.25.3-.4.05-.35-.2-.45.05q-1.05 0-1.35.75h-.05l-.15.7-.05 1.4q0 1.4.4 2.15l1.5 1.55.15.3.05.3-.15.3q-.25.25-.55 1.15l-.4 1.35q.05.85 1.1 2l1.25 1.2.3.1q1.1.35 1.4 1.2l.4 1.05v.05l.7 1.15.65.95L9.8 43.5l.65.15.55.05q.65-.1 1.05.4v.05l.3.45q.7.6 1.7 1.05 1.25.6 2.35.6l1.05-.45.1-.05.5-.5.45-.15.3.05 1 .35 1.65.35q1.3 0 2.45-.8l.15-.05.1-.1v-.05l.15-.6.05-1.75-.05-.95v-.05l-.5-.8-.1-.15.05-.25.15-.1q.7-.15 1.1-1v-.05l.3-1.7-.05-1.05-.1-.35-.15-.55-.3-.85-.3-.6q-.95-1.6-2.3-1.8l-.15-.05-.05-.15-.05-.1.05-.05.1-.15.45-.65.3-.95q0-1.95-1.15-3.8l-.15-.2-.3-.5-.2-.15q-1.15-1.35-2.8-1.35l-.85.2h-.2l-.15-.05v-.05m-6.6 6.05q0 .6-.45 1.05-.4.4-1 .4-.65 0-1.05-.4-.45-.45-.45-1.05 0-.6.45-1v-.05q.4-.4 1.05-.4.6 0 1 .4.45.45.45 1.05m-2.4-.5-.1.5q0 .45.25.75.35.3.8.3l.7-.3h.05l.3-.75q0-.45-.35-.75-.2-.25-.55-.25l-.15-.05-.2.05q-.35 0-.6.25l-.15.25m.4 3.8.1.1q.4 1.35 2.05 2.2l1.45.55 2.15.3 1.6-.2h.1l.1.05.05.05q.55 1.7-.65 3.25-1.15 1.4-2.8 1.4-2.45 0-3.65-1.75-.5-.7-.75-1.6-.35-1.1-.35-2.5t.3-1.8l.15-.1.15.05m5.05-13.75q1.3.25 2.65 1.2 1.7 1.25 1.55 2.6l.55-.1q2.4 0 3.95 2.5l.05.1q1.15 1.95 1.15 4l-.3 1.2-.25.45q1.2.4 2.15 2l.1.2q.9 1.6.9 3.45 0 1.1-.4 1.95l-.5.85-.5.4.35.75v-.05l.05 1.15-.05 1.85-.15.7.3-.2 1.75-.95v-.05q1.4-1.15 1.4-3.1l-.05-1.15-.35-.75-.1-.15v-.2l.05-.1.1-.05 1.25-1.25q.25-.35.15-2-.1-1.85-.7-2.9-.65-1-2.7-1.85l-.1-.1-.05-.15.05-.2.7-1.05.2-.9q0-1.95-1.65-3.9-1.65-1.9-3.2-1.95l-1.15.15-.15-.05-.1-.15v-.2q.25-.9-1.1-2.1-1.45-1.3-2.95-1.3-2.15 0-2.85 1.3l-.05.1m3.35 11.55v-.05l-.6-.25q-.35 0-.6.3l-.05.05-.05.05q-.15.2-.15.5l.25.6.6.25.6-.25.3-.6-.3-.6m-.6-.7.45.1.45.3q.4.35.4.9 0 .5-.4.9-.35.4-.9.4-.5 0-.9-.4t-.4-.9q0-.55.4-.9.4-.4.9-.4m-7.6 7.45.6 1.15q1.15 1.6 3.35 1.6 1.5 0 2.5-1.3.95-1.25.65-2.6l-1.55.15-2.15-.25-.6-.2-1.05-.45q-1.5-.75-2.05-1.9l-.05 1.1q0 1.5.35 2.6v.1" fill="#5d1010"/><path d="m11.2 20.7.7-.05q1.75 0 3.15 1.9l1.35 1.9.55-.2v.05l.15.05h.2l.85-.2q1.65 0 2.8 1.35l.2.15.4 1.3q.4 1.2.4 1.85 0 .7-.55 1.6l-.55 1.15q0 .5.45.5l.55-.1.05.1.05.15.15.05q1.35.2 2.3 1.8l.3.6.3.85.15.55v.35q0 2.4-1.5 2.6l-1.1.05q-.45.15-.45.75 0 .5.65 1.35.65.85.65 1.7 0 1.85-1.3 2.1h-2.85l-.45.2-.3-.05-.45.15-.5.5-.1.05-1.05.45q-1.1 0-2.35-.6-1-.45-1.7-1.05l-.3-.45v-.05q-.4-.5-1.05-.4l-.55-.05-.65-.15-1.75-1.15-.65-.95-.7-1.15v-.05l-.4-1.05q-.3-.85-1.4-1.2l-.3-.1-1.25-1.2q-1.05-1.15-1.1-2l.4-1.35q.3-.9.55-1.15l.15-.3-.05-.3-.15-.3-1.5-1.55q-.4-.75-.4-2.15l.05-1.4.15-.7h.05q.3-.75 1.35-.75l.45-.05.35.2.4-.05.25-.3.05-.35-.15-1.3v-.4l.05-.2.1-.35.25-.2q.2-.2.5-.3l.2-.1q.8-.45 1.7-.45l1.2.15.65.75.1.1.15.05.15-.05 1.95-1.15m-5 10q-.45-.5-1.15-.5-.65 0-1.1.5-.45.4-.2 1l.75.9 1 .45.85-.2q.3-.35.3-1.05 0-.65-.45-1.1m4.15-.4q0-.6-.45-1.05-.4-.4-1-.4-.65 0-1.05.4v.05q-.45.4-.45 1t.45 1.05q.4.4 1.05.4.6 0 1-.4.45-.45.45-1.05m-2 3.3-.15-.05-.15.1q-.3.4-.3 1.8t.35 2.5q.25.9.75 1.6 1.2 1.75 3.65 1.75 1.65 0 2.8-1.4 1.2-1.55.65-3.25l-.05-.05-.1-.05h-.1l-1.6.2-2.15-.3-1.45-.55q-1.65-.85-2.05-2.2l-.1-.1m7.8-2.9q-.5 0-.9.4-.4.35-.4.9 0 .5.4.9t.9.4q.55 0 .9-.4.4-.4.4-.9 0-.55-.4-.9l-.45-.3-.45-.1m4.35 7.65q.55-.05.9-.4l.35-1q0-.65-.55-1.1-.55-.45-1.35-.5l-1.5.15q-.7.25-.5 1.2.15.95 1.15 1.3l1.5.35" fill="#cd62a6"/><path d="M9.05 29.3q.35 0 .55.25.35.3.35.75l-.3.75H9.6l-.7.3q-.45 0-.8-.3-.25-.3-.25-.75l.1-.5.1.35q.2.2.5.2l.45-.2.15-.5-.1-.35m6.4 2.2q.25.6.7.6.55 0 .6-.7l.3.6-.3.6-.6.25-.6-.25-.25-.6q0-.3.15-.5m-3.5 5.4 2.15.25 1.55-.15q.3 1.35-.65 2.6-1 1.3-2.5 1.3-2.2 0-3.35-1.6l-.6-1.15.05-.05.8.65q.45 0 1.75-.8.75-.35.8-1.05" fill="#ff7098"/><path d="m16.95 24.25-.55.2-1.35-1.9q-1.4-1.9-3.15-1.9l-.7.05q.7-.35 1.35-.35 1.55 0 3.15 1.15 1.6 1.2 1.2 2.4v.2l.05.15m1.85 20.9.45-.2h2.85q1.3-.25 1.3-2.1 0-.85-.65-1.7t-.65-1.35q0-.6.45-.75l1.1-.05q1.5-.2 1.5-2.6h.1l.05 1.05-.3 1.7v.05q-.4.85-1.1 1l-.15.1-.05.25.1.15.5.8v.05l.05.95-.05 1.75-.15.6v.05l-.1.1-.15.05q-1.15.8-2.45.8l-1.65-.35-1-.35m3.05-13.2-.55.1q-.45 0-.45-.5l.55-1.15q.55-.9.55-1.6 0-.65-.4-1.85l-.4-1.3.3.5.15.2q1.15 1.85 1.15 3.8l-.3.95-.45.65-.1.15-.05.05M6.2 30.7q.45.45.45 1.1 0 .7-.3 1.05l-.85.2-1-.45-.75-.9q-.25-.6.2-1 .45-.5 1.1-.5.7 0 1.15.5m14.3 7.65L19 38q-1-.35-1.15-1.3-.2-.95.5-1.2l1.5-.15q.8.05 1.35.5t.55 1.1l-.35 1q-.35.35-.9.4" fill="#e3b385"/><path d="m11.35 36.7.6.2q-.05.7-.8 1.05-1.3.8-1.75.8l-.8-.65q.85-.75 2.75-1.4" fill="#dc2455"/><path d="M8.55 38.05q-.35-1.1-.35-2.6l.05-1.1q.55 1.15 2.05 1.9l1.05.45q-1.9.65-2.75 1.4l-.05-.05" fill="#921738"/><path d="m7.95 29.8.15-.25q.25-.25.6-.25l.2-.05.15.05.1.35-.15.5-.45.2q-.3 0-.5-.2l-.1-.35m8.8 1.55v.05q-.05.7-.6.7-.45 0-.7-.6l.05-.05.05-.05q.25-.3.6-.3l.6.25" fill="#fff"/><path d="m7.95 18.6 1.55-.45q.85 0 2.05.75l1.35.9-.35-.05q-1.4 0-3.4 1.45l-.75-.7h.05L7 20.3H5.95l1.65-1.25.25-.45h.1m5.45 1.25.05-.1q.7-1.3 2.85-1.3 1.5 0 2.95 1.3 1.35 1.2 1.1 2.1v.2l.1.15.15.05 1.15-.15q1.55.05 3.2 1.95 1.65 1.95 1.65 3.9l-.2.9-.7 1.05-.05.2.05.15.1.1q2.05.85 2.7 1.85.6 1.05.7 2.9.1 1.65-.15 2l-1.25 1.25-.1.05-.05.1v.2l.1.15.35.75.05 1.15q0 1.95-1.4 3.1v.05l-1.75.95-.3.2.15-.7.05-1.85-.05-1.15v.05l-.35-.75.5-.4.5-.85q.4-.85.4-1.95 0-1.85-.9-3.45l-.1-.2q-.95-1.6-2.15-2l.25-.45.3-1.2q0-2.05-1.15-4l-.05-.1q-1.55-2.5-3.95-2.5l-.55.1q.15-1.35-1.55-2.6-1.35-.95-2.65-1.2" fill="#7c2d54"/><path d="m56.95 19.3-.15-.25-.35-1.85-.15-1.55q-.05-.5.9-1.6.85-1 1.35-1.15l-.05.05q1.3-.5 2.55-.5l.15.05 1 .15.4-.15h.05q.7-.35 1.25-.35 1.95 0 3.7 1.85 1.8 1.85 1.8 4.25l-.25 1.9q1 .55 1.9 1.9v.05q1.1 1.65 1.15 3.25v.1l-.35 2.2L71.1 29l.25.9v.1l-.25 2.3q-.3 2.05-.9 2.9-1.25 1.55-3.75 1.55l-1.1-.2h-.05l-.4-.15-1.3.25q-1.4.05-3.25-1.65-2.05-1.8-2-3.6l.2-.55v-.05l.15-.25-.75-4.15-.45-2.5q.5-.35 1.3-.65 1.5-.55 2.8-.55 3.15 0 4.9 1.65 1.65 1.55 1.65 4.2l-.05.55q-.15.6-.7.95l-.6.35.25.8.15 1.25-.35 1.75-.55 1.1.7-.2.45-.25 1.35-1.15q1.35-1.45 1.25-2.7l-.05-.85-.2-.65-.25-.35-.05-.2.05-.2.1-.15.15-.15.75-1.25.25-1.15.05-.6q0-1.3-.9-2.6l-1.4-1.5-.45-.25-.35-.3v-.5l.3-2.05-.1-.95q-.25-1.3-1.3-2.4-1.3-1.35-2.75-1.4l-.75.2v.05l-.95.25h-.1l-1.1-.2-2 .4-.8.75-.5.65v.2l-.1.85-.25 1.35-.4 1.3" fill="#5d1010"/><path d="m57.6 16.65.1-.85v-.2l.5-.65.8-.75 2-.4 1.1.2h.1l.95-.25v-.05l.75-.2q1.45.05 2.75 1.4 1.05 1.1 1.3 2.4l-2.85 1.1-3.1.5q-1.4 0-2.1-.5l-1.3-.85-1-.9m10.95 4.7 1.4 1.5q.9 1.3.9 2.6l-.05.6-.5.2-1.25.3H69l-.55-1.25q-.75-1.5-.75-2 0-.8.25-1.3l.6-.65m.95 7.6.05.2.25.35.2.65.05.85-1.25.7-1.05.1-.05-.05-.25-1.55-.05-.15q.55-.35.7-.95h.5l.85-.15h.05" fill="#cd62a6"/><path d="m56.95 19.3.4-1.3.25-1.35 1 .9 1.3.85q.7.5 2.1.5l3.1-.5 2.85-1.1.1.95-.3 2.05v.5l.35.3.45.25-.6.65q-.25.5-.25 1.3 0 .5.75 2l.55 1.25v.05l.05-.05 1.25-.3.5-.2-.25 1.15-.75 1.25-.15.15-.1.15-.05.2h-.05l-.85.15h-.5l.05-.55q0-2.65-1.65-4.2-1.75-1.65-4.9-1.65-1.3 0-2.8.55-.8.3-1.3.65-.5-2.85-.55-4.6M70.05 31q.1 1.25-1.25 2.7l-1.35 1.15-.45.25-.7.2.55-1.1.35-1.75-.15-1.25-.25-.8.6-.35.05.15.25 1.55v.05h.05l1.05-.1 1.25-.7" fill="#7c2d54"/><path d="M52.25 17.65q-2.55.45-4.65 2.15l-.15.15q-.9.7-1.55 1.55-1.6 2.15-1.6 5 0 2.15.55 3.65.65 1.55 2.35 3.55 1.65 1.9 4.85 1.9l3.55-.2.2-.05.8-.2q.85-.35 1.6-1l-1.35.4-1.1.25-.75.1q-2.1 0-3.6-1.05h-.05l-1.4-1.35q-1.85-2.3-1.85-6.15 0-3.2 1.7-5.2h.05q.55-.8 1.8-1.55v-.05l.35-.2q1.75-1.1 2.85-1.1l2.3.45 2 1h.05l.15-.2-2.2-1.3-1.1-.5-1.75-.3-1.3.1-.75.15m1.15 1.6h-.1.1q4.05 0 4.8 1.4l.35-.05.3-.45-1.9-.9-2.1-.45q-.6 0-1.45.45m1.15.65-1.15-.05-.65.15-.85.1q-1.1.75-1.65 1.4-1.6 1.9-1.6 4.85 0 3.6 1.75 5.8l1.2 1.15 1 .15.9.15q2.4 0 4.1-1 1.25-.7 1.75-1.85l.3-.9.05-.15-.5-.5-.45-.15-1.3-1.1q-.9-.95-.85-1.15l.2-1.45.1-.4.05-.35.05-.45-.25-1.05q0-.9.55-1.7v-.05l.4-.4q-.5-.75-2.25-1l-.9-.05m3.6-5.5q2.65 1.15 3.8 3.15l.05.1q.6.05 1.15.55l.25.3q.65.75.65 1.55l.75-.05 1.2.25h-.05q.55.25.55 1.1l-.2.7.35-.15 2.1-.7q1.1-1.6 3.2-1.6l1 .4q.55.45.55 1.1 0 1.05-.7 1.8-.65.75-1.5.75l-.5-.1v-.1l-.1.05-.05.05-.2.05-.15.05-2.9 1.05-.95.4.25 1.05v.05q0 1.95-1.25 1.9h-.3l.05.05.3.45.15.6q0 .65-.65 1.05l-1.05.25h-.25q-.55 4.55-4.25 7-2.6 1.75-4.75 2.45l-1.75.35q-2.85.35-4.35-.05l-3.15-1.05q-1.7-.7-3.7-3.6l-1.6-2.35q-.55-.85-1.1-3.4-.5-2.55-.3-5 .2-2.5 1.45-4.9 1.2-2.2 2.65-3.15 1.75-1.25 3.95-2.2 3.05-1.4 5.35-1.4 3.3 0 6 1.2M44 29.45v-.2q-.3-1.2-.3-2.75 0-3.05 1.75-5.35.65-.9 1.65-1.65l.25-.25q3-2.4 6.95-2.4 1.45 0 2.8.65l.35.2q.75.4 2.25 1.35h.05q1-1.15 1.75-1.35-1.1-1.8-3.55-2.9-2.6-1.15-5.8-1.15-2.15 0-5.15 1.4-2.15.9-3.9 2.15-1.35.9-2.45 2.95-1.25 2.35-1.45 4.75-.2 2.4.3 4.85.5 2.4 1.05 3.25l1.35 2.05.25.3q1.9 2.7 3.5 3.45l3.05 1q1.45.4 4.15.05h.05q1.8-.25 4-1.35l.3-.15 2-1.2q3.5-2.4 4.05-6.65v-.1l-.8-.3-1.4 1.9H61l-1.65 1.95q-1.2 1.25-2.55 1.75l-4.75.5q-3.45 0-5.3-2.1-1.8-2.1-2.45-3.75l-.3-.9m20.05-6.65 1.45-.5.1-.2.3-.75-.25-.6-.85-.15-.8.05-.1.1-.15.05h-.05l-.15-.05-.1-.15-.05-.15.1-.35-.35-1-.15-.2q-.55-.65-1.15-.65-.7 0-1.7 1.2l-1.1 1.5v.1l-.15.15h-.2q-.5-.05-.9.5-.45.65-.45 1.4l.2.85.05.05.35.65q.45.7.95.75l.2.1.1.2-.1.2-.2.9q0 1 .65 1.95.6.75 1.2.8l.6-.2.55-.3.25.1.15.05.4.35q.55.35 1.25.35l.8-.2v.05l.35-.55-.3-.6-.05-.1-.6-.5-.1-.15-.05-.2.1-.1.05-.1.2-.1.2.1.9.05q.65-.05.65-1.3l-.2-.95-1 .3h-.1l-.5.15-1.15.35-1.85.35-.9-.55v-.05l-.35-1.05v-.05l-.05-.05v-.2l.15-.2q.75-.35 3-1.15l.9-.3m-6.55 2.25-.1.45-.2 1.3.7.75.75.7q-.35-.7-.35-1.45l.1-.9-.9-.85M55 34.3l1.75-.3 1.65-.5h.25l.1.15.15-.15 1.65-1.8 1.45-2-.1-.05-.25.2-.9.3-.5-.1-.1.3q-.5 1.75-2.25 2.75-1.8 1.05-4.3 1.05l1.4.15m16.5-13.35V21l-.1.5v.05l.15.5.2.2.1.1.65-.65-.05-.15-.25-.85-.7.25m-1.65 1.75.25.3.05.05h.05l.45-.15.25-.15q.3-.15.55-.25l-.2-.25-.2-.75.1-.45-.5.15-1 .3v.35l.1.6.1.25m-.55-.8v-.25l-1 .3v.25l-.05.2.25.6.05.1.25.45 1-.35-.3-.45-.05-.15v-.05l-.15-.65m-2.4.8.1.8v-.05.1l.35.45.05.1 1.05-.45-.2-.35-.1-.2-.25-.75.05-.3-1.05.4v.25m-.2.95v-.05l-.15-.75v-.3l-1.25.4v.15l-.05.2v.1l.2.8v.05l.2.3h.15l.1.1.1-.05h.1l.95-.35-.35-.6m-1.8-.25v-.1l.05-.2-1.8.65-2.5.9v.05l.25.8.4.35 1.85-.4 1.05-.3h-.05l1.2-.35-.25-.45v-.05l-.2-.8v-.1" fill="#5d1010"/><path d="M55.45 14.5v.05q4 1 5 3l-.3.2-.6.25q-.25 0-1.85-.95-1.65-1.05-2.6-1.25h-.65l.9-1.15.1-.15M44.6 20.95q-1.1 1.45-1.55 2.95-.35 1.3-.35 2.95l.1 1.8.4 1.8-.1.25-.4.8-1.05 1.5q-.45-.45-.75-1.1l-.5-1.85-.5-1.95q-.15-.75-.15-1.85 0-2.65.95-4.65.75-1.5 2.35-3.15l1.55 2.5" fill="#ffd46f"/><path d="m44 29.45.3.9q.65 1.65 2.45 3.75 1.85 2.1 5.3 2.1l4.75-.5q1.35-.5 2.55-1.75L61 32h.05l1.4-1.9q0 1.9-1.65 4.45-1.6 2.35-3.6 3.8l-.3.15q-2.2 1.1-4 1.35h-.05l-4.5-.7q-4.55-1.3-5.85-4.5.65-.5 1.1-1.55.55-1.2.55-2.7l-.15-.95m12.35 8.8q1.25-1 1.85-2.55l-2.7 1.1-3.55.5-.75-.05v.8l-.25 1 .9.15 1.25.15q1.85 0 3.25-1.1" fill="#cd7916"/><path d="M56.35 38.25q-1.4 1.1-3.25 1.1l-1.25-.15-.9-.15.25-1v-.8l.75.05 3.55-.5 2.7-1.1q-.6 1.55-1.85 2.55" fill="#b05914"/><path d="M48 22.1q.3-.7 1.45-1.85 1.15-1.2 2.5-1.9t3.1-.7l1 .05 1.1.5 2.2 1.3-.15.2h-.05l-2-1-2.3-.45q-1.1 0-2.85 1.1l-.35.2v.05q-1.25.75-1.8 1.55h-.05q-1.7 2-1.7 5.2 0 3.85 1.85 6.15l1.4 1.35h.05q1.5 1.05 3.6 1.05l.75-.1 1.1-.25 1.35-.4q-.75.65-1.6 1l-.8.2-.2.05-1.5-.05q-3.25 0-5.45-2.95-1.9-2.5-1.9-5.15 0-1.8.55-3.5.3-.9.7-1.55l.05-.05-.05-.05m7.45-7.55v-.05l-.1.15-.9 1.15h.65q.95.2 2.6 1.25 1.6.95 1.85.95l.6-.25.3-.2q-1-2-5-3m-2.6 25.3q-2.7.35-4.15-.05l-3.05-1q-1.6-.75-3.5-3.45l-.25-.3L40.55 33q-.55-.85-1.05-3.25-.5-2.45-.3-4.85.2-2.4 1.45-4.75 1.1-2.05 2.45-2.95 1.75-1.25 3.9-2.15 3-1.4 5.15-1.4 3.2 0 5.8 1.15 2.45 1.1 3.55 2.9-.75.2-1.75 1.35h-.05q-1.5-.95-2.25-1.35l-.35-.2q-1.35-.65-2.8-.65-3.95 0-6.95 2.4l-.25.25q-1 .75-1.65 1.65-1.75 2.3-1.75 5.35 0 1.55.3 2.75v.2l.15.95q0 1.5-.55 2.7-.45 1.05-1.1 1.55 1.3 3.2 5.85 4.5l4.5.7m9.6-9.75.8.3v.1q-.55 4.25-4.05 6.65l-2 1.2q2-1.45 3.6-3.8 1.65-2.55 1.65-4.45M44.6 20.95l-1.55-2.5q-1.6 1.65-2.35 3.15-.95 2-.95 4.65 0 1.1.15 1.85l.5 1.95.5 1.85q.3.65.75 1.1l1.05-1.5.4-.8.1-.25-.4-1.8-.1-1.8q0-1.65.35-2.95.45-1.5 1.55-2.95" fill="#f4b11e"/><path d="m45.9 21.5.5.45 1 .3.6-.05q-.4.65-.7 1.55-.55 1.7-.55 3.5 0 2.65 1.9 5.15 2.2 2.95 5.45 2.95l1.5.05-3.55.2q-3.2 0-4.85-1.9-1.7-2-2.35-3.55-.55-1.5-.55-3.65 0-2.85 1.6-5" fill="#6d1c13"/><path d="m52.25 17.65-.65.3q-1.05.5-1.35.75l-.9.85q-.65.65-1.05.65l-.55-.15-.15-.25q2.1-1.7 4.65-2.15" fill="#da8538"/><path d="m47.6 19.8.15.25.55.15q.4 0 1.05-.65l.9-.85q.3-.25 1.35-.75l.65-.3.75-.15 1.3-.1 1.75.3-1-.05q-1.75 0-3.1.7t-2.5 1.9Q48.3 21.4 48 22.1v.1l-.6.05-1-.3-.5-.45q.65-.85 1.55-1.55l.15-.15" fill="#b8661d"/><path d="M59.35 30.75q-.5 1.15-1.75 1.85-1.7 1-4.1 1l-.9-.15-1-.15-1.2-1.15q-1.75-2.2-1.75-5.8 0-2.95 1.6-4.85.55-.65 1.65-1.4l.85-.1.65-.15 1.15.05q-1.5.65-2.45 1.95Q51 23.4 51 25.5q0 2.45 1.45 4.2T56 31.45l2.15-.2 1.2-.5" fill="#912c3d"/><path d="m54.55 19.9.9.05q-2.4 1.6-2.65 1.95-1.2 1.35-1.2 4 1.4-1.25 3.3-1.25l2 .3-.1.4-.2 1.45q-.05.2.85 1.15l1.3 1.1.45.15.5.5-.05.15-.3.9-1.2.5-2.15.2q-2.1 0-3.55-1.75Q51 27.95 51 25.5q0-2.1 1.1-3.65.95-1.3 2.45-1.95" fill="#f5799d"/><path d="M55.45 19.95q1.75.25 2.25 1l-.4.4v.05q-.55.8-.55 1.7l.25 1.05-.05.45-.05.35-2-.3q-1.9 0-3.3 1.25 0-2.65 1.2-4 .25-.35 2.65-1.95" fill="#ffbed2"/><path d="m57.5 25.05.9.85-.1.9q0 .75.35 1.45l-.75-.7-.7-.75.2-1.3.1-.45" fill="#ac344c"/><path d="m64.05 22.8-.9.3q-2.25.8-3 1.15l-.15.2v.2l.05.05v.05l.35 1.05v.05l.9.55 1.85-.35 1.15-.35.5-.15q-.15.8-1.05 1.1-1.25.4-1.6 1.15v.55l-1.35-.4q-1.05-.5-1.05-1.8l.15-1.35q-.65-.1-.85-.45-.15-.25-.15-1.05 0-1.2.7-1.2l.5.4q-.05-.9.4-1.65l.75-.85-.1.8q.05 1.1.55 1.55l1.7.4.65.05" fill="#8e47a0"/><path d="m62.15 29.15-.25-.1-.55.3-.6.2q-.6-.05-1.2-.8-.65-.95-.65-1.95l.2-.9.1-.2-.1-.2-.2-.1q-.5-.05-.95-.75L57.6 24l-.05-.05-.2-.85q0-.75.45-1.4.4-.55.9-.5h.2l.15-.15V21l.35.2.75-.9q.6-.85 1.1-1.15V20l-.75.85q-.45.75-.4 1.65l-.5-.4q-.7 0-.7 1.2 0 .8.15 1.05.2.35.85.45l-.15 1.35q0 1.3 1.05 1.8l1.35.4v.8" fill="#bf6fd4"/><path d="M59.05 21v-.05l1.1-1.5q1-1.2 1.7-1.2.6 0 1.15.65l.15.2.35 1-.1.35.05.15.1.15.15.05h.05l.15-.05.1-.1.8-.05.85.15.25.6-.3.75-.1.2-1.45.5-.65-.05-1.7-.4q-.5-.45-.55-1.55l.1-.8v-.85q-.5.3-1.1 1.15l-.75.9-.35-.2m5.75 4.55h.1l1-.3.2.95q0 1.25-.65 1.3l-.9-.05-.2-.1-.2.1-.05.1-.1.1.05.2.1.15.6.5.05.1.3.6-.35.55v-.05l-.8.2q-.7 0-1.25-.35l-.4-.35-.15-.05V27.8q.35-.75 1.6-1.15.9-.3 1.05-1.1" fill="#e4a2f5"/><path d="M69.65 21.85v-.35l1-.3.5-.15-.1.45.2.75.2.25q-.25.1-.55.25l-.25.15-.45.15h-.05L70.1 23l-.25-.3h.3l.2-.25.15-.2-.35-.3-.4-.15-.1.05m-1.35.35v-.25l1-.3v.25l-1 .3m1.2.55.3.45-1 .35-.25-.45-.05-.1 1-.25m-1.6-.4-.65.2-.35.15v-.25l1.05-.4-.05.3m-.9 1.2 1.15-.45.1.2.2.35-1.05.45-.05-.1-.35-.45m-.3.1.35.6-.95.35H66l-.1.05-.1-.1h-.15l-.2-.3.7-.35.55-.25m-1.45-.35.05-.2v-.15l1.25-.4v.3l-1.25.55-.05-.1m-.15 1.05.25.45-1.2.35h.05l-1.05.3-1.85.4-.4-.35-.25-.8v-.05l2.5-.9 1.8-.65-.05.2v.1l-1.55.55q-1 .45-1.35 1.05l.45.1q.8 0 2.65-.75" fill="#aeb0e6"/><path d="m71.5 20.95.7-.25.25.85.05.15-.65.65-.1-.1-.2-.2-.15-.5v-.05l.1-.5v-.05m-1.65 1.75-.1-.25-.1-.6.1-.05.4.15.35.3-.15.2-.2.25h-.3m-.55-.8.15.65v.05l.05.15-1 .25-.25-.6.05-.2 1-.3m-2.4.8.35-.15.65-.2.25.75-1.15.45v-.1.05l-.1-.8m-.35.15.15.75v.05l-.55.25-.7.35v-.05l-.2-.8h.05l1.25-.55m-1.65.55v.1l.2.8v.05q-1.85.75-2.65.75L62 25q.35-.6 1.35-1.05l1.55-.55" fill="#fff"/><path d="M53.4 19.25q.85-.45 1.45-.45l2.1.45 1.9.9-.3.45-.35.05q-.75-1.4-4.8-1.4M55 34.3l-1.4-.15q2.5 0 4.3-1.05 1.75-1 2.25-2.75l.1-.3.5.1.9-.3.25-.2.1.05-1.45 2-1.65 1.8-.15.15-.1-.15h-.25l-1.65.5-1.75.3" fill="#8a3017"/></g><g id="n" fill-rule="evenodd"><path d="m0 18.3.05-.3v-.65l.65-5.2q.2-2.05 2.9-6.2.75-1.15 1.95-2.1-1.5 2.15-2.4 5-.95 3.05-.95 6.2 0 2.65.45 4.4.5 2.05 1.9 4l-.9.3-.55.15-.15-.15-.65-.65Q.4 20.95 0 18.3" fill="#8fffef"/><path d="M15.75 0q.6-.15-3.5 8.35l-.15.3q-.6 1-1.05 2.95v.1l-.25 1.25-.35 3 .15 1.85.4 2.3.2 1.6-.35 1.75Q10.5 24.5 9 24.95l-3.1.45q-1.25 0-2.8-1.5l.55-.15.9-.3q-1.4-1.95-1.9-4-.45-1.75-.45-4.4 0-3.15.95-6.2.9-2.85 2.4-5l.3-.2Q9.15 1.2 15.75 0" fill="#176094"/><path d="M11.05 11.7q0 3.75.25 6.6l.3 3.6q0 1.65-1 2.95-1.25 1.55-3.3 1.55-3.05 0-5.45-3.05Q-.2 20.75 0 18.3q.4 2.65 2.3 4.8l.65.65.15.15q1.55 1.5 2.8 1.5l3.1-.45q1.5-.45 1.85-1.5l.35-1.75-.2-1.6-.4-2.3-.15-1.85.35-3 .25-1.25m-11 5.65.15-5.6q.15-2.9 3.5-7Q7 .6 15.75 0q-6.6 1.2-9.9 3.65l-.3.2q-1.2.95-1.95 2.1Q.9 10.1.7 12.15l-.65 5.2" fill="#0b3252"/></g><g id="o" fill-rule="evenodd"><path d="m34.75 23.25-2.5-.25-3.8-.95-17.1-4.75h-.1L10 16.7Q-1.75 11.4.3 1.2L.45.85q.1-.15.3-.2Q6.4-1.7 17.2 4.4l14.25 3.15 17.1-.3.25.05q7.9 2.9 10.9 8.5l.05.55-.15.35-.2.1-.55.05-.45-.35-.1-.2q-2.8-4.95-9.9-7.6l-17 .3h-.15l-10.7-2.4-3.75-.8-.2-.1Q6.85.2 1.65 1.9.35 10.25 9.6 14.95l2.15.95v.05h.05l3.2.9 11.9 3.25 1.9.55 2.3.9 3.35 1.5.05.05.25.15" fill="#0b3252"/><path d="M26.9 20.1 15 16.85 13.3 16l-3.7-1.65-.2-.1-.15-1.4q0-2.25 2.55-2.25 1.05 0 2.5.5l-.05.05h.15q.9.35 2.05.85l4.15 2.2q2.45 1.25 4.95 1.9l4.4.6q.85-.6 1.8-1 1.95-.8 6.65-1.1l2.25-.05h.05l4.25-.15 1.75-.1-.4 1.3-5 .65-2.75.25-5.3.65q-3.2.5-5.1 1.25-.7.75-1.25 1.7" fill="#de8d98"/><path d="m14.4 11.15.6-.1.55.05-1.3-.65q-2-.85-3.35-.85l-2.3.2q-1.7.3-1.7 1 0 1.15.55 1.9l.75.85-.9-.55q-1.65-1.25-1.7-2.55l.05-.05L6.9 9.3q.95-.5 2.35-.5l9.15 1.6 5.5 1.15 5.55.75 1.55-.05.45.2 2.75.9 3.3.65q2.5.05 3.15.55l-2.25.05q-4.7.3-6.65 1.1-.95.4-1.8 1l-4.4-.6q-2.5-.65-4.95-1.9L16.45 12q-1.15-.5-2.05-.85" fill="#aeb0e6"/><path d="m8.2 13.55-.75-.85q-.55-.75-.55-1.9 0-.7 1.7-1l2.3-.2q1.35 0 3.35.85l1.3.65-.55-.05-.6.1-.1-.05q-1.45-.5-2.5-.5-2.55 0-2.55 2.25l.15 1.4-.65-.35-.55-.35" fill="#9786ac"/><path d="M20.55 6.6 31.25 9h.15l17-.3q7.1 2.65 9.9 7.6-1.9-.2-4.55.9l-.2.05-.15.05-.7-.6q-1.7-1.5-2.4-2.85l-.2-.45-1.3-2.5q-.6-.85-1.65-.85l-1.75.5-1.4.5-.2.05-11.1 1.15H31l-5.15-2.15-3.45-2.15-1.85-1.35" fill="#8fffef"/><path d="m53.4 17.3-1.8.9-6.3 3.45q-.95.6-2.5.95l2.75-5.25.75-1.75.4-1.3-1.75.1-4.25.15h-.05q-.65-.5-3.15-.55l-3.3-.65-2.75-.9-.45-.2h1.7l11.1-1.15.2-.05 1.4-.5 1.75-.5q1.05 0 1.65.85l1.3 2.5.2.45q.7 1.35 2.4 2.85l.7.6" fill="#027ea0"/><path d="m15 16.85-3.2-.9h-.05v-.05l-2.15-.95Q.35 10.25 1.65 1.9 6.85.2 16.6 5.7l.2.1 3.75.8 1.85 1.35 3.45 2.15L31 12.25l-1.55.05-5.55-.75-5.5-1.15-9.15-1.6q-1.4 0-2.35.5l-1.25 1.1-.05-.05v.1q.05 1.3 1.7 2.55l.9.55.55.35.65.35.2.1L13.3 16l1.7.85" fill="#fffefd"/><path d="m34.75 23.25-.25-.15-.05-.05-3.35-1.5-2.3-.9-1.9-.55q.55-.95 1.25-1.7 1.9-.75 5.1-1.25l5.3-.65 2.75-.25 5-.65-.75 1.75-2.75 5.25-.25.05-1.55.25h-.5l-4.65.45h-.1l-.85-.1h-.15" fill="#ac344c"/></g><g id="p" fill-rule="evenodd"><path d="m6.5 2.65.25.3Q5.1 11.6 4.3 13.2l-.2.4-1 .85-1.65 1-.05-.65q0-2.25 1.55-6.85 1.75-5.3 3.4-5.3h.15" fill="#8fffef"/><path d="M6.75 2.95q1.2 1.5 1.2 3.3l-.2 4.35-.4 3.2q.1 1.25-1.1 2.35L6.2 14.9l-.5 1.2-.35.75-1.95.55q-1.15 0-1.6-.9l-.25-.5v-.05Q3.25 15 4.1 13.6l.35-.3-.15-.1q.8-1.6 2.45-10.25" fill="#166794"/><path d="m7.7.15.65 2.2.1 1.7.05 1.7.05 3.95-.3 4.75-.7 1.5-1 1.45-.2.15-.5.2-1.4.35-1.95.25-1.25-.25q-.5-.25-.85-1.85-.45-1.6-.4-3.75.05-2.2 2.05-6.7Q4 1.35 7.65 0l.05.15m-1.2 2.5-.05-.05-.1.05q-1.65 0-3.4 5.3-1.55 4.6-1.55 6.85l.05.65 1.65-1 1-.85q-.85 1.4-2.55 2.35V16l.25.5q.45.9 1.6.9l1.95-.55.35-.75.5-1.2.05 1.25q1.2-1.1 1.1-2.35l.4-3.2.2-4.35q0-1.8-1.2-3.3l-.25-.3" fill="#0b3252"/></g><g id="q" fill-rule="evenodd"><path d="M.5 12.95q.45-1 1.25-2.15 1.8-2.65 4.65-4.9Q13.65 0 22.7 0q5.5 0 8.65 2.8 2.45 2.15 2.45 4.85 0 2.3-1.4 4.6-1.5 2.5-4.15 3.9-3 1.6-6.95 5.4l-8.6 1.2q-5 0-8.8-3.8-3-2.95-3.4-6" fill="#166595"/><path d="m21.3 21.55-.2.2-1.35 1.5-2.5.55-4.5.7-2.4-.6-2.2-1-1.7-.95L4.8 21q-2.4-1.7-3.6-3.6-.7-1.1-1.1-2.55L0 14.5l.5-1.55q.4 3.05 3.4 6 3.8 3.8 8.8 3.8l8.6-1.2" fill="#0b3252"/><path d="M18.4 23.9q2.9 4.1 3.15 5.35.1.8-.25 1.3-.25-1.25-1.15-1.9.65.9.7 2.2l-.2.1-.75.25-1.2-.9-.65-.8v-.25l-.1-.25q-.1-3.25.45-5.1" fill="#8fffef"/><path d="m18.4 23.9-.1-.2-.7-1.25-1.1-2-1.55-2-.15-.2.65-.15 4.3 6.8q2 3.45 2.2 4.6.2 1.1-.55 1.9-.75.7-2.5.6-1.7-.15-2.7-.9l-2.4-2.35q-1.45-1.6-2.7-4.15l-1.65-3.35.05-.05 1.7 2.45L13 26.8l1.2 1.5 1.25 1.35q.3.4 1.3 1 .9.55 1.75.65l-.3-1.1-.15-.7.65.8.35 1h.05l.8-.1.75-.25.2-.1q-.05-1.3-.7-2.2.9.65 1.15 1.9.35-.5.25-1.3Q21.3 28 18.4 23.9" fill="#0b3252"/><path d="m19.9 31.2-.8.1h-.05l-.35-1 1.2.9" fill="#047a9e"/><path d="m14.8 18.25.15.2 1.55 2 1.1 2 .7 1.25.1.2q-.55 1.85-.45 5.1l.1.25v.25l.15.7.3 1.1q-.85-.1-1.75-.65-1-.6-1.3-1L14.2 28.3 13 26.8l-1.8-3.15-1.7-2.45q1.5-1.4 3.1-2.2 1.05-.5 2.2-.75" fill="#166595"/></g><g id="r" fill-rule="evenodd"><path d="m43.95 12.65-.4.9-.6 1.35-.65 1.2-7.9 10.95L25.6 40q-5.35 6.9-14.2 10.2h-.05q-6.2 1.9-8.95-.2-2.95-2.05-2.3-8.15v-.1q2.15-9.15 8.15-18.7L9.7 20.8l.1-.1Q19.25 11 29.25 4.65L32.05 3l.05-.05 8.25-2.9h.35q6.3-.25 8.8 2.9l.3.3.05.45-.3.35h-.45Q45.65.65 40.5 1.2l-6.1 2.3-3.7 1.95-5.05 3.15q-5.2 3.25-14.8 13l-1.9 2.95-.7 1.2q-4.15 7-6.1 13.75-.4 1.25-.65 2.55-.3 2.75.25 4.55.45 1.45 1.5 2.25 2.35 1.65 7.65 0h.05q8.4-3.15 13.5-9.65l9.05-13.3q.15-.25.45-.3h.1l2-2.75 5.3-7.4 1.6-2.1q1.45-1.85 1-.7M24.45 39.2v-.05.05" fill="#0b3252"/><path d="M43.95 12.65q.45-1.15-1 .7l-1.6 2.1-5.3 7.4-6.65 6.35q-8.1 7.2-10.65 2.2-.05-4.2 4.7-10.3l6.7-6.2 9.5-7.15 6.85.75-2.5 4.25-.05-.1" fill="#ac344c"/><path d="m36.05 22.85-2 2.75h-.1q-.3.05-.45.3l-9.05 13.3q-2.85 2.35-5.25 3.4-5.35 2.25-8.8-2-.15-7.4 7.45-14.3l5.6-5.2q-4.75 6.1-4.7 10.3 2.55 5 10.65-2.2l6.65-6.35" fill="#de8d98"/><path d="M5.3 45.4q-1.05-4.7 3.8-13.15l8.75-10.5Q13.5 28.05 9.1 38.1q-1.6 7.2 6.85 6.45-9.6 4.25-10.65.85" fill="#9786ac"/><path d="M1.75 46.6q-.55-1.8-.25-4.55.25-1.3.65-2.55.7 1.95 2.45 1.7.3-2.95 3.5-8.8l9.35-12.05 1.35-1.3q4.95-2.15 11.35-4.15l-6.7 6.2-5.6 5.2q-7.6 6.9-7.45 14.3 3.45 4.25 8.8 2L17 43.9l-1.9 1.95q-6 2.6-8.6 2.35-3.75 0-4.75-1.6m3.55-1.2q1.05 3.4 10.65-.85-8.45.75-6.85-6.45 4.4-10.05 8.75-16.35L9.1 32.25Q4.25 40.7 5.3 45.4" fill="#aeb0e6"/><path d="M24.45 39.2q-5.1 6.5-13.5 9.65h-.05q-5.3 1.65-7.65 0-1.05-.8-1.5-2.25 1 1.6 4.75 1.6 2.6.25 8.6-2.35L17 43.9l2.2-1.3q2.4-1.05 5.25-3.4m-22.3.3q1.95-6.75 6.1-13.75l.7-1.2q3.95-2.9 9.85-5.5l-1.35 1.3L8.1 32.4q-3.2 5.85-3.5 8.8-1.75.25-2.45-1.7" fill="#fffefd"/><path d="m46.9 7.8-.4.7-6.85-.75-9.5 7.15q-6.4 2-11.35 4.15l4.45-4.15q9.3-6.95 20.3-12.15.4 2.55 3.35 5.05" fill="#09759b"/><path d="m8.95 24.55 1.9-2.95q9.6-9.75 14.8-13l5.05-3.15 3.7-1.95 6.1-2.3q5.15-.55 8.6 2.85L46.9 7.8q-2.95-2.5-3.35-5.05-11 5.2-20.3 12.15l-4.45 4.15q-5.9 2.6-9.85 5.5" fill="#8fffef"/></g><g id="s" fill-rule="evenodd"><path d="m36.6 45.35 4.05 2.1 3.05 2.05-.2.35q-1.65 1.5-4.1 1.55l-2.05-.6.65 4-2.05-3.4-.35 2.45-2.9 3.55-1.55-5.5-1.75 1.95v1.25l-2.15 1.3.05-.65 1-2.75q-5.5 1.85-8.85.45 1.3-1.7 4.55-2.95l4.55-4.55.75.05 7.3-.7v.05" fill="#fff"/><path d="M43.5 49.85q-1.65 2.3-5.05 3.15l-1.1-2.2 2.05.6q2.45-.05 4.1-1.55M38 54.8l-2.4-.95.35-2.45L38 54.8m-5.3 2.6-.4.4q-2-1.2-2.9-3.95l1.75-1.95 1.55 5.5m-5.4-1.65.2-1.95q-2.05 1.4-5.8 1.45l-5-.45.65-3.65-2.5.6 3.05-5.6 1.95-.15q2.9-.15 6.5-.15l2.2.1L24 50.5q-3.25 1.25-4.55 2.95 3.35 1.4 8.85-.45l-1 2.75" fill="#aeb0e6"/><path d="M36.6 45.35v-.05l1.35-.05 2 1.05 4.7 3.2-2.55 3.35-3.35.95V56l-2.7-1.1-3.4 3.7q-2.4-1-3.2-2.55l-2.9 1.45v-2.25q-1.4 1.3-4.15.8l-6.1-.8q-.45-1.5.3-3.55l-2.35.85q.9-3.3 2.7-6.25l.95-.15-3.05 5.6 2.5-.6-.65 3.65 5 .45q3.75-.05 5.8-1.45l-.2 1.95-.05.65 2.15-1.3v-1.25q.9 2.75 2.9 3.95l.4-.4 2.9-3.55 2.4.95-.65-4 1.1 2.2q3.4-.85 5.05-3.15l.2-.35-3.05-2.05-4.05-2.1" fill="#0b3252"/><path d="m5.35 3.4 1 .3L8.3 4.75l2.35 2.2.4.35 1.2 1.4.65.9 1.7 2.55 2.05-1.75q2.3-1.9 3.7-1.8 1.25 0 2.2 1.55l1.2-2.45.1-.4.45-1.55.35-1.4.4-1.8.15-.25h.35l.15.15.05.25-1.1 4.4v.1l-.25.7h-.05l-1.45 2.95.15.25 1.6-1.5.5-.45V9.1q1.65-1.55 3-2.15h.45l.25.1.1.25v3.3l-.1.4q.7-.4 2.55-.75l1.75-.25q1.8-.25 2.7 0l2 .5.55.15-.1-.35-1-1.85V8.4l-1.15-1.3-1.45-1.45-.4-.4-1.65-1.45v-.05l-2.05-1.4-.25-.2-1-.7q-.3 0-.5-.2l-.05-.05-.2-.5.05-.2.2-.3.5-.2.5.2 1.55.9L33 2.15l.6.5 2.15 1.95.6.65.8.8 1.3 1.55h.05l1.2 2.25q.25.95.95 1.95.7 1.05.65 1.9l-.55 2.05v.05L40.3 17l2.05 2.25q2.3 2.8 2.9 7.1l.6 6.1.3 2.95.75-.15 1.7-.35 1 .2h-.1l.65.35.3.45-.05.3-.1.25-.3.2q-.5 2.05-1.75 3.95 1.8 1.9 1.8 3.1 0 .45-1.75.45l-2.45-.25q-.85 1.55-3.6 3.1l-.05.05-2.65 1.25-2.1 1-2.8.65-1 .2-1.35.2-4.3.6-2.3.15-4.55-.65h-.05l-4.35-1.5-.05.05-2.6 1.2h.05q-1.65.75-2.7.75-1.4 0-1.4-1.3 0-1.35 1.25-3.1l-1.45.15-3.65-.4q-1.8-.6-3.35-2.1l-.15-.3.1-.3q1.2-1.3 3.95-2.25v-.25l-.05-.05-.95-2.9q-.7-2.35-.5-4.05.15-1.5-1.15-3.25l-.05-.05-1.4-2.9q-.95-2.4-1.7-6l-.15-1q-.65-3.85-.8-7.75v-.05l.35-2.65.05-.65.2-.85V8.9l.1.55L.8 12l.05 1.1.15 2.3.35 3.25.35 2.15.2 1.1q.65 3.4 1.55 5.7l1.35 2.75q1.5 2 1.3 3.85-.15 1.55.5 3.7l.65 1.95.3.95-.05-.05.05.1.05.1.05.1.75-.2 3.85-.1.75.4 1.4.85.6.35q1.3.7-.2.2l-.5-.15-2.35-.8q-1.55-.6-4.5.45h-.1q-2.4.8-3.55 1.85l2.65 1.55 3.4.4 1.75-.2h-.05l2-.25.85-.15.55-.1q1.1-.25.35.2l-.15.05-1.2.7q-.2.2-.4.2l-1 .05-.1.2q-1.5 1.8-1.5 3.1l.15.35h.05l.3.1q.85 0 2.3-.7v-.05l2.45-1.1.15-.2.85-.9q.7-.8.4-.2-.25.6.65 1.2.85.6 3.15 1.45v.05l4.3.55 1.3-.05 3.6-.45 1.55-.2 4.9-.95 2.5-1.2q.95-.5 2.25-1.1h.05q2.2-1.3 3.05-2.55l.2-.3.1-.2.2-.85-.45-2.55q-.55-1.7-.55-2.95v-.6l.2-1.4-.2-2.35-.05-.95-.6-5.05q-.5-3.8-2.55-6.35-2.5-3-2.35-3.15v-.35l-2.25 1.9-2.2 1.05-.95.3q2.3 1.3 2.3 4.9v1.1q-.1.65-.95.65-1.6 0-3.25-1.25-1.55-1.2-1.75-2.5l.05-.2.15-.15h.05l.2.1.1.15.4.9v.05l1.15 1.2q1.2.9 2.35 1.1l.55.05.4-.25v-.95q0-3.45-2.35-4.55l-.1-.1-.3.05-.55.15-.25-.05-.15-.2.05-.3.2-.15.5-.15q2.45-.6 4-1.55 1.6-.95 2.65-2.45l.5-.75.2-.2h.1l.15-.85-.4-1.05-.5-.8-.4-.25-.15-.15-.7-.3h-.05l-1.95-.5-.3-.05-1.85.05-2 .3-2.6.4h-.05q-.1-.2-.2.1l-.2.4-.1.45h-.05l-.75 1.5-.95.65q-.85.55-.75.3l.6-.8.4-.4.15-.2.7-1.3.5-1.6V7.7l-1 .6-1.6 1.35h-.05l-.95.95-1.4 1.25q.25 1.05.05 2.1l-.25 1.15q.45.45.8 2.25l.2 1.2.1 1.35q.1 1.45-3.6 1.45l-3.15-.45q-1.9-.55-2.6-1.2l-1.25.05-.2-.1-.1-.15-.05.1-.4 1.1-.6 1.2-.6 1.05q-1.4 2.3-2.7 3.15-.85.55-1.7.5-1.5.05-2.85-1.45-.85-1-1.6-2.7l-.3-.55q-.7-1.65-1-3.3-.35-1.6-.35-3.25l.2-1.5.65-1.35q.05-.15.2-.15l1.3-.3 1.65-.15 1.1.05 2.8.6 1.95.8.15-.1q1.4-.6 2.3-.6h.65l-1.75-2.6-2.25-2.75Q8.9 6.15 6.65 5.2l-2.3-.9H4.2q-.1-.4.55-.65l.4-.15.2-.1M15.5 14.35l-.2-.35q-.55-.65-1.9-.65h-.25l-1.35.35 1.05.4.15.2v.3l-.15.15h-.35l-.25-.1-3.5-1.4-1.75-.5-1.4-.1-.5-.05-1.55.15-.35.1H3l-.5.1-.55 1.15H2l-.2 1.25q0 3.25 1.45 6.55l.1.3 1.25 2.1q1.2 1.6 2.6 1.6h.3q1.7-.3 3.45-3.3l.4-.7.35-.65q1-2 1.2-3.5v-.6h-2.1l-.6-.05q-.5-.05-.5-.2l.5-.3.6-.2h2.45l.3.15.05.25v1.05l-.25 1.3.2-.1 1.3-.1h.05l.6-.25.35-1.9v-.6l-.35-1.85m7.65 3.25v-.1l-.4-1.5-.1.2-.2.2-.25-.05-.2-.2q-.05-.15.05-.25l.55-2.1q.2-.95-.05-1.95v-.05l-.45-1-.2-.4q-.7-1.05-1.6-1.1-.8 0-1.95.75-.45.25-.9.6l-.4.3L17 11l-2.1 1.85.95.75q.55.7.65 2.2l.95-.15q.65-.1.95-.4l.3-.25.15-.05.15-.1.35-.1-.05.45-.35.5q-.45.5-1.4.65l-1 .15-.05 1.3-.4 1.35h-.05l-.4.3 1.95.75 2.95.45q2.85 0 2.9-.75l-.1-1.15-.2-1.15M48.2 39.7l.5-.85.65-2.2-.1-.05-.2-.1-.05-.05-.4-.1-1.2.25-2 .2-.1-.05h-.05v.1q0 .85.35 2l.2.7.5 2.4v.4l-.15.9.45.15 1.2.1h.95l.5-.5v-.35l-.25-.4-.45-.5-.75-.5-.35-.2-.3-.25.95-1 .1-.1m-19.65 3 .1-.15h.2l.1.15q.25.5 1.25.75h.05l1.55.25 2.65-.35q1.05-.45 1.25-1.5l.1-.15.15-.05.15.15.05.15-.6 1.25v.2l-.65 2.95h.05l-.45 1.05q-.75 1.6-3.35 1.6-1.15 0-2-1.1-.8-1.05-.8-2.3 0-.8.35-2.3l.05-.1-.2-.3v-.2m.6.8q-.3 1.4-.3 2.1 0 1.1.7 2 .7.95 1.6.95 2.3 0 3.25-1.85l-2.3-2.45-.05-.1h-.25l-1.7-.25-.95-.4m5.9.1-.45.2-1.95.35 1.85 2 .55-2.55" fill="#0b3252"/><path d="M26.15 1.65q.55-.4 1.8-.25l.85-.2.05.05q.2.2.5.2l1 .7.25.2 2.05 1.4v.05l1.65 1.45.4.4 1.45 1.45 1.15 1.3v.05l1 1.85.1.35-.55-.15-2-.5q-.9-.25-2.7 0-.8-.3-1.75-1.15l-2.05-2.2q-1.1-1.25-1.7-3-.65-1.75-1.5-2M2.3 6.3l.7-.85L4.2 4.3h.15l2.3.9q2.25.95 3.4 2.1l2.25 2.75 1.75 2.6h-.65q-.9 0-2.3.6H11q-3.4-1.8-5.2-4Q4.4 7.5 4 5.8l-1.7.5m2.85-2.8.15-.15.05.05-.2.1m.4-.3v.1h-.1l.1-.1m-4.1 15.4q.3 1.65 1 3.3l.3.55q.75 1.7 1.6 2.7l1.05 2.5 1.8 3.55.1 3.85q.1 1.4.65 3.7l.45 2.1-.75.2-.05-.1-.05-.1-.05-.1.05.05-.3-.95-.65-1.95q-.65-2.15-.5-3.7.2-1.85-1.3-3.85L3.45 27.6q-.9-2.3-1.55-5.7l-.2-1.1-.35-2.15.1-.05m25.8-10.3 1-.6v2.75l-.5 1.6-.7 1.3-.15.2-.5.35-1.4 1-.3-.15v-.55q0-1.65 1.2-3.7l1.35-2.2m6.3 2.35 1.85-.05.3.05 1.95.5h.05l.7.3.15.15.4.25.5.8.4 1.05-.15.85h-.1l-.2.2-.5.75q-1.05 1.5-2.65 2.45-1.55.95-4 1.55l-2.55-.65-1.2-.6q2.7-2.1 4.75-3.25 2.1-1.15 5.1-2.1l-2.05-1.4q-1.25-.65-2.75-.85m-1.1 9.55.3-.05.1.1q2.35 1.1 2.35 4.55v.95l-.4.25-.55-.05q-1.95-2.3-1.95-4.9l.15-.85m-2.4 2.25H30l-.15.15-.05.2q.2 1.3 1.75 2.5 1.65 1.25 3.25 1.25.85 0 .95-.65v-1.1q0-3.6-2.3-4.9l.95-.3 2.2-1.05 2.25-1.9V17q-.15.15 2.35 3.15 2.05 2.55 2.55 6.35l.6 5.05-1.15-.15-1.8-.15-2.05.15-.1-.1-.1.1-2.55 2.1-2.15 1.4-2.4.35q-1.8.1-3.15-.5l-2-.75-1.85-.35q-1.65-.1-3.9-1.15l-3.55-1.65q-1.8.4-4.65 2.5l-.9-5.45 1.5-2.05 1.75-2.9 1.65.35 3 .35q1.85 0 3.35-.95 1.55-.9 2.35-2.55H26l1.55.3 1.4.45.9 1.25.2.3" fill="#8fffef"/><path d="m25.55 2.3.6-.65q.85.25 1.5 2 .6 1.75 1.7 3l2.05 2.2q.95.85 1.75 1.15l-1.75.25q-1.85.35-2.55.75l.1-.4V7.3l-.1-.25-.25-.1h-.45q-1.35.6-3 2.15v.05l-.5.45-1.6 1.5-.15-.25 1.45-2.95h.05l.25-.7v-.1l1.1-4.4-.05-.25-.15-.15M.6 8.9q.45-1.2 1.7-2.6L4 5.8q.4 1.7 1.8 3.45 1.8 2.2 5.2 4l-.05.1-1.95-.8-2.8-.6-1.1-.05-1.65.15-1.3.3q-.15 0-.2.15l-.65 1.35-.2 1.5-.1.05-.15-2.3L.8 12 .7 9.45.6 8.9m3.75 16.25q1.35 1.5 2.85 1.45.85.05 1.7-.5 1.3-.85 2.7-3.15l.6-1.05.6-1.2.4-1.1.15.05.2.1 1.25-.05q.7.65 2.6 1.2l3.15.45q3.7 0 3.6-1.45l-.1-1.35-.2-1.2q-.35-1.8-.8-2.25l.25-1.15q.2-1.05-.05-2.1l1.4-1.25.95-.95h.05l1.6-1.35-1.35 2.2q-1.2 2.05-1.2 3.7v.55l.3.15 1.4-1 .1.05-.6.8q-.1.25.75-.3l.95-.65.75-1.5h.05l.1-.45.2-.4q.1-.3.2-.1h.05l2.6-.4 2-.3q1.5.2 2.75.85l2.05 1.4q-3 .95-5.1 2.1-2.05 1.15-4.75 3.25l1.2.6 2.55.65-.5.15-.2.15-.05.3.15.2.25.05.55-.15-.15.85q0 2.6 1.95 4.9-1.15-.2-2.35-1.1l-1.15-1.2v-.05l-.4-.9-.1-.15-.2-.1-.2-.3-.9-1.25-1.4-.45-1.55-.3h-.35q-.8 1.65-2.35 2.55-1.5.95-3.35.95l-3-.35-1.65-.35-1.75 2.9-1.5 2.05.9 5.45-.65.5q-3.2 2.5-4.35 4.9-.55-2.3-.65-3.7l-.1-3.85-1.8-3.55-1.05-2.5" fill="#027ea0"/><path d="M13.15 13.35h.25q1.35 0 1.9.65l.2.35q-.55 1.1-.9 1.1-.6 0-1.1-1.1l-.35-1m0 3.05h-.6L11.5 16l-1.5-.35-.1.05-.85.4-1.35.25q-1.65 0-1.65-1.4 0-.9.35-1.5l.6-.7 1.75.5 3.5 1.4.25.1.4.8v.1l.25.75M8.4 21.2q-.35-.3-.35-.8 0-.6.65-1.3l.35-.2.7-.4.15-.05.9-.2q1.2 0 1.2.85 0 .65-.8 1.45-.9.95-1.9.95l-.9-.3m13.5-10.8.2.4.45 1v.05q.25 1 .05 1.95l-.55 2.1q-.1.1-.05.25l.2.2.25.05.2-.2.1-.2.4 1.5v.1l-.7.8q-.45.2-1.6 0l-1.75-.45q-.8-.3-.75-.95.05-.65 1.25-1.3l1.45-1.45.1-.15.25-.35-1.25.55q-.9 0-1.4-.55-.55-.5-.55-1.4 0-.9.9-1.5.8-.6 1.85-.6l.95.15" fill="#ffeea6"/><path d="m15.5 14.35.35 1.85v.6l-.35-.4-.7-.2h-.75q.1-.3-.2-.5l-.65-.1-.3.05v-.1l-.4-.8h.35l.15-.15v-.3l-.15-.2-1.05-.4 1.35-.35.35 1q.5 1.1 1.1 1.1.35 0 .9-1.1m-2.95 2.05H10.8l-.6.2-.5.3q0 .15.5.2l.6.05h2.1v.6q-.2 1.5-1.2 3.5l-2.35 1.4-1.95.4-.65-.15q-.5-.2-.5-.5 0-.65.4-1.5.4-.8.4-1.7 0-1.9-1.45-2.45-1.45-.55-1.45-1.4 0-.8.7-1.85l.75-.85 1.4.1-.6.7q-.35.6-.35 1.5 0 1.4 1.65 1.4l1.35-.25.85-.4.1-.05 1.5.35 1.05.4M7.5 25.9h-.3q-1.4 0-2.6-1.6l-1.25-2.1-.1-.3Q1.8 18.6 1.8 15.35L2 14.1h-.05l.55-1.15.5-.1q-1 1.55-1 2.4 0 1.25.85 3 .9 1.9 1 2.9.15 1.9.85 3.05.7 1.2 2.8 1.7m.9-4.7.9.3q1 0 1.9-.95.8-.8.8-1.45 0-.85-1.2-.85l-.9.2-.15.05-.7.4-.35.2q-.65.7-.65 1.3 0 .5.35.8m14.75-3.6.2 1.15-3 .65q-1.05 0-2.35-.5l-1.5-1.1.05-1.3 1-.15q.95-.15 1.4-.65l.35-.5.05-.45-.35.1-.15.1-.15.05-1.7-.35q-.55-.4-.55-1.6 0-1.05.6-1.95l.1-.05.3-.4q.45-.35.9-.6 1.15-.75 1.95-.75.9.05 1.6 1.1l-.95-.15q-1.05 0-1.85.6-.9.6-.9 1.5t.55 1.4q.5.55 1.4.55l1.25-.55-.25.35-.1.15-1.45 1.45q-1.2.65-1.25 1.3-.05.65.75.95l1.75.45q1.15.2 1.6 0l.7-.8" fill="#ffd21d"/><path d="m15.85 16.8-.35 1.9-.6.25h-.05l-1.3.1-.2.1.25-1.3V16.8l-.05-.25-.3-.15h-.1l-.25-.75.3-.05.65.1q.3.2.2.5h.75l.7.2.35.4m-4.15 4.45-.35.65-.4.7q-1.75 3-3.45 3.3-2.1-.5-2.8-1.7-.7-1.15-.85-3.05-.1-1-1-2.9-.85-1.75-.85-3 0-.85 1-2.4h.2l.35-.1 1.55-.15.5.05-.75.85q-.7 1.05-.7 1.85 0 .85 1.45 1.4 1.45.55 1.45 2.45 0 .9-.4 1.7-.4.85-.4 1.5 0 .3.5.5l.65.15 1.95-.4 2.35-1.4m11.65-2.5.1 1.15q-.05.75-2.9.75l-2.95-.45-1.95-.75.4-.3h.05l.4-1.35 1.5 1.1q1.3.5 2.35.5l3-.65M18.7 15l-.3.25q-.3.3-.95.4l-.95.15q-.1-1.5-.65-2.2l-.95-.75L17 11l.05.1q-.6.9-.6 1.95 0 1.2.55 1.6l1.7.35" fill="#d87122"/><path d="m23.85 7.3-.1.4-1.2 2.45q-.95-1.55-2.2-1.55-1.4-.1-3.7 1.8l-2.05 1.75-1.7-2.55-.65-.9 5.9-.75 5.7-.65" fill="#ac344c"/><path d="m10.65 6.95 7.05-.65 6.6-.55-.45 1.55-5.7.65-5.9.75-1.2-1.4-.4-.35" fill="#de8d98"/><path d="m44.35 31.55.05.95.2 2.35-.2 1.4v.6q0 1.25.55 2.95l.45 2.55-.2.85-.1.2-.2.3q-.85 1.25-3.05 2.55h-.05q-1.3.6-2.25 1.1l-2.5 1.2-4.9.95-1.55.2-1.35-.4q-2.7-.85-5.25-2.15-1.8-.8-3.5-2.2l-2.25-2.05q-5.15-8.75-5.3-9.55 2.85-2.1 4.65-2.5l3.55 1.65q2.25 1.05 3.9 1.15l1.85.35 2 .75q1.35.6 3.15.5l2.4-.35 2.15-1.4 2.55-2.1h.2l2.05-.15 1.8.15 1.15.15M11.1 50l-.15-.35q0-1.3 1.5-3.1l.1-.2 1-.05q.2 0 .4-.2l1.2-.7.15-.05.3.1-.9.9-1.3 1.15q-.7.4-1.5 1.35L11.1 50m-7.3-6.1q1.15-1.05 3.55-1.85h.1q2.95-1.05 4.5-.45l2.35.8.5.15.35.55H13.5q-6.65-.35-9.7.8m41.5-7.15.1.05 2-.2 1.2-.25.4.1.05.05.2.1.1.05-.65 2.2-.5.85.25-1.3-.05-.45-1.55.25q-1 .2-1.25.65-.35-1.15-.35-2l.05-.1m2.15 4.3.35.2.75.5.45.5.25.4-2.95-.35v-.35l1.15-.9m-16.75-2.8q-.85.45-.85.9t.75.75l1.35.25 1.9-.3q1-.35 1-.85 0-.6-.7-.85l-1.5-.15-1.8.2-.05-.05-.1.1m-2.15 4.45v.2l.2.3-.05.1q-.35 1.5-.35 2.3 0 1.25.8 2.3.85 1.1 2 1.1 2.6 0 3.35-1.6l.45-1.05h-.05l.65-2.95v-.2l.6-1.25-.05-.15-.15-.15-.15.05-.1.15q-.2 1.05-1.25 1.5l-2.65.35-1.55-.25h-.05q-1-.25-1.25-.75l-.1-.15h-.2l-.1.15" fill="#fff"/><path d="m30.6 49.7-3.6.45-1.3.05-4.3-.55v-.05q-2.3-.85-3.15-1.45-.9-.6-.65-1.2.3-.6-.4.2l-.85.9-.15.2-2.45 1.1v.05q-1.45.7-2.3.7l-.3-.1h-.05l.8-1.15q.8-.95 1.5-1.35l1.3-1.15.9-.9-.3-.1q.75-.45-.35-.2l-.55.1-.85.15-2 .25h.05l-1.75.2-3.4-.4L3.8 43.9q3.05-1.15 9.7-.8h1.65l-.35-.55q1.5.5.2-.2l-.6-.35-1.4-.85-.75-.4-3.85.1-.45-2.1q1.15-2.4 4.35-4.9l.65-.5q.15.8 5.3 9.55l2.25 2.05q1.7 1.4 3.5 2.2 2.55 1.3 5.25 2.15l1.35.4m.1-11.45.15-.05 1.8-.2 1.5.15q.7.25.7.85 0 .5-1 .85l-1.9.3-1.35-.25q-.75-.3-.75-.75t.85-.9" fill="#aeb0e6"/><path d="m35.05 43.6-.55 2.55-1.85-2 1.95-.35.45-.2" fill="#63092e"/><path d="m29.15 43.5.95.4 1.7.25h.25l.05.1 2.3 2.45q-.95 1.85-3.25 1.85-.9 0-1.6-.95-.7-.9-.7-2 0-.7.3-2.1" fill="#ff5b5c"/><path d="m48.2 39.7-.1.1-.95 1 .3.25-1.15.9-.5-2.4-.2-.7q.25-.45 1.25-.65l1.55-.25.05.45-.25 1.3m1.05 2.95V43l-.5.5h-.95l-1.2-.1-.45-.15.15-.9v-.05l2.95.35" fill="#afb1e6"/><path d="m42.1 30.35-.8-2.15-.7-1.15-.05-.2.05-.1-.7-.25q-1.25-.2-2.75.9-1.85 2.1-2.1 5.65l-.05.55.55 3.4.15 1.15h.05l.2.1.3.3h.05q1.05.9 2.5.75l1.1-.25 1.6-1.95.8-2.4.1-2.4-.3-1.95m-5.2-3.25.05-.05q1.6-1.2 3.05-.95 1.4.25 2.55 1.95l.05.05q1.15 2.85 1.1 7.05v.05l-.3 1.7q-.55 2.15-1.95 3.4l-.1.05q-1.8.8-3.2.65-1.55-.15-2.6-1.45l-.1-.1-.85-5.8q.15-4.2 2.3-6.55m6.05 9.85.3-1.8q.1-4.1-1.05-6.85l-.7-.9q1.85 3.1 1.3 7.35v.05q-.15 1.2-.65 2.2-.7 1.45-1.9 2.45l-.1.1-1.55.3q-1.65.1-2.8-1l.1.5q.95 1.1 2.4 1.25 1.3.1 2.9-.65 1.25-1.15 1.75-3M22.9 26.4l.05.05q5 2.2 5.7 7.55v.2l-.05 1.35.1.05.1.15q.25 1.4-.75 4.1l-.05.05-.8.95q-1.3 1.35-3.4 2.05-2.75.7-6.05 0-2.7-.5-4.7-2.9l-.45-.6-.15-.15q-1.6-2-.8-5.85.15-1 .8-2.4l1.05-2 .05-.05 3-1.9.2-.05.1.05.5-.3h.05l5.5-.35m-.95 15.15q3.55-.9 5.05-3.2 1.05-1.7 1.1-4.1v-.05l-.1-.45Q27.25 29 22.75 27l-5.15.3q-4.7 2.8-4.4 7.7l.15 1.15q2.25 6.55 8.6 5.35v.05m5.25-1.3.45-.6q.8-2 .8-3.25-.4 1.5-1.25 2.65-1.65 2.2-5.1 3.05h-.05q-6.25 1.2-8.8-4.6l-.45-1.2-.05-.05q-.75-4.7 2.35-7.8l-1.25.85q-.95 1.55-1.4 2.8l-.4 1.35v.05q-.7 3.2.4 5.05l.45.6.2.25q2 2.6 4.7 3.1h.05q3.2.7 5.9 0 2.15-.75 3.45-2.25m-3.45 2.25h-.05.05" fill="#0d3353"/><path d="m41 32-.45.15q-2.3.45-3.35-1.8-.65-2.35 1-3 1.9-.2 3.1.85l.8 2.15-.35 1.05-.75.6m1.95 4.95q-.5 1.85-1.75 3-1.6.75-2.9.65l.3-.75 1.55-.3.1-.1q1.2-1 1.9-2.45l.8-.05M26 32.6l-.85 1.05-.35.1q-2.05.55-3.85-.9-1.9-3.55.7-5Q24.8 27.6 25.9 30q.5 1.6.1 2.6m1.2 7.65q-1.3 1.5-3.45 2.25-2.7.7-5.9 0h-.05q-2.7-.5-4.7-3.1l-.15-.3q-.6-1.2.3-1.6 2.55 5.8 8.8 4.6h.05q3.45-.85 5.1-3.05v1.2" fill="#fff"/><path d="M24.95 38.75q-.55 1.15-1.9 2-2.55.9-4.9 0-1.5-1.3-2-2.35l-.25-.75q-.05-.4.05-.75 1.1 1.8 3.85 2.35 3.25.35 5.4-2.3l-.25 1.8m16.3-2.15-.45.7Q39.7 39.1 38 39q-1.1-.1-1.6-.55-.6-.45-.5-1.3l2.3.5q.65.2 1.85-.7l1.25-1.65-.05 1.3" fill="#ffb912"/><path d="m41 32 .75-.6.3.45-.4 4.1-.4.65.05-1.3-1.25 1.65q-1.2.9-1.85.7l-2.3-.5-.35-.15-.55-3.4.05-.55q.7 2.5 2.8 4.05 2.55-.35 2.85-2.95L41 32m-14.15.8q.4 4.25-1.9 5.95l.25-1.8q-2.15 2.65-5.4 2.3-2.75-.55-3.85-2.35-.1.35-.05.75-1.1.55-1.4-4.15l1.75.15q.45 3.8 4.9 4.65 2.6-1.1 3.65-4.55l.35-.1.85-1.05.85.2" fill="#911638"/><path d="M41.3 28.2q-1.2-1.05-3.1-.85-1.65.65-1 3 1.05 2.25 3.35 1.8L41 32l-.3 2.15q-.3 2.6-2.85 2.95-2.1-1.55-2.8-4.05.25-3.55 2.1-5.65 1.5-1.1 2.75-.9l.7.25-.05.1.05.2.7 1.15M13.2 35q-.3-4.9 4.4-7.7l5.15-.3q4.5 2 5.25 6.75-.45-.65-1.15-.95l-.85-.2q.4-1-.1-2.6-1.1-2.4-4.25-2.15-2.6 1.45-.7 5 1.8 1.45 3.85.9-1.05 3.45-3.65 4.55-4.45-.85-4.9-4.65l-1.75-.15q-.8.3-1.3 1.5" fill="#63092e"/><path d="m41.75 31.4.35-1.05.3 1.95-.1 2.4-.8 2.4-1.6 1.95-1.1.25q-1.45.15-2.5-.75l.1-.1q.5.45 1.6.55 1.7.1 2.8-1.7l.45-.7.4-.65.4-4.1-.3-.45M28 33.75l.1.45v.05q-.05 2.4-1.1 4.1-1.5 2.3-5.05 3.2v-.05q-6.35 1.2-8.6-5.35L13.2 35q.5-1.2 1.3-1.5.3 4.7 1.4 4.15l.25.75q.5 1.05 2 2.35 2.35.9 4.9 0 1.35-.85 1.9-2 2.3-1.7 1.9-5.95.7.3 1.15.95M35.55 37l.35.15q-.1.85.5 1.3l-.15.1-.3-.3-.2-.1h-.05L35.55 37" fill="#dd2456"/><path d="M42.15 37q.5-1 .65-2.2v-.05q.55-4.25-1.3-7.35l.7.9q1.15 2.75 1.05 6.85l-.3 1.8-.8.05m-3.85 3.6q-1.45-.15-2.4-1.25l-.1-.5q1.15 1.1 2.8 1l-.3.75m-11.1-1.55q.85-1.15 1.25-2.65 0 1.25-.8 3.25l-.45.6v-1.2m-14.3.1-.45-.6q-1.1-1.85-.4-5.05v-.05l.4-1.35q.45-1.25 1.4-2.8l1.25-.85q-3.1 3.1-2.35 7.8l.05.05.45 1.2q-.9.4-.3 1.6l-.05.05" fill="#afb1e4"/></g><path d="M27.75 0q0 2-8.15 3.4Q11.5 4.9 0 4.9q-11.5 0-19.65-1.5-8.1-1.4-8.1-3.4 0-2.05 8.1-3.5Q-11.5-4.9 0-4.9q11.5 0 19.6 1.4 8.15 1.45 8.15 3.5" fill-opacity=".349" fill-rule="evenodd" transform="translate(27.75 4.9)" id="a"/></defs></svg>