<svg xmlns:ffdec="https://www.free-decompiler.com/flash" xmlns:xlink="http://www.w3.org/1999/xlink" ffdec:objectType="frame" height="90" width="90" xmlns="http://www.w3.org/2000/svg"><use ffdec:characterId="1" height="9.8" transform="matrix(.7509 0 0 1.4148 22.861 73.368)" width="55.5" xlink:href="#a"/><use ffdec:characterId="3" height="43.9" transform="translate(22.15 10.7) scale(.5157)" width="28.8" xlink:href="#b"/><use ffdec:characterId="9" height="94.35" transform="translate(22.98 2.9) scale(.5157)" width="86.05" xlink:href="#c"/><use ffdec:characterId="11" height="46" transform="translate(54.4 13.65) scale(.5157)" width="53.2" xlink:href="#d"/><use ffdec:characterId="13" height="23.1" transform="translate(66.25 44.35) scale(.5157)" width="26" xlink:href="#e"/><use ffdec:characterId="15" height="59.85" transform="translate(7.65 42.1) scale(.5157)" width="139.45" xlink:href="#f"/><use ffdec:characterId="17" height="23.95" transform="translate(46.05 64.4) scale(.5157)" width="11.05" xlink:href="#g"/><use ffdec:characterId="19" height="21.7" transform="translate(20.95 59.4) scale(.5157)" width="12.55" xlink:href="#h"/><use ffdec:characterId="24" height="30.1" transform="translate(6.4 25.05) scale(.5157)" width="150.4" xlink:href="#i"/><use ffdec:characterId="26" height="22.65" transform="translate(49.8 45.2) scale(.5157)" width="30.75" xlink:href="#j"/><use ffdec:characterId="28" height="24.6" transform="translate(20.8 37.95) scale(.5157)" width="14.75" xlink:href="#k"/><defs><g id="n" fill-rule="evenodd"><path d="M6.9 32.7q1.45 3.45 3.9 7-3.25-2.9-5.85-7.45L4.8 32q-5.9-16.3 5-29.2 10.7 6.05 18.4 22.75-5.45-9.25-10.65-14.75-3.7-3.9-7.25-6Q.7 18.3 6.9 32.7" fill="#ffd9b7"/><path d="M17.55 10.8q-.7.35-1.3 1.9-.75 1.7-.75 3.4l.4 4.5-3 3.15q-3 3.9-3 7.65 0 1.4.4 2.9h-.5q-1.25-1.05-2.45-1.45l-.45-.15Q.7 18.3 10.3 4.8q3.55 2.1 7.25 6" fill="#ffb08e"/><path d="m6.9 32.7.45.15q1.2.4 2.45 1.45h.5q-.4-1.5-.4-2.9 0-3.75 3-7.65l3-3.15-.4-4.5q0-1.7.75-3.4.6-1.55 1.3-1.9 5.2 5.5 10.65 14.75Q26.1 37.95 18 43.9q-3.9-1.25-7.2-4.2-2.45-3.55-3.9-7" fill="#df6c6c"/><path d="M10.8 39.7q3.3 2.95 7.2 4.2Q5.85 43.95.7 29.4-2.7 10.25 9.9 0q10.55 4.6 18.9 20.3l-.6 5.25Q20.5 8.85 9.8 2.8-1.1 15.7 4.8 32l.15.25q2.6 4.55 5.85 7.45" fill="#7b0e0f"/></g><g id="o"><path d="M21.35 36.35q-12.9 6.45-10.2 18.7L11.7 57l.25.8-.25.1q-9.45 2.35-9.85 18.2 1.1 5.4 6.15 8.85-3.95-1.6-7.15-8.45-3.85-17.1 9.6-19.6-3.35-6.75 1.1-14.5 4.9-5.3 9.8-6.05m39.2-.15 18.3 29.1q8.7 11.9 0 17l-1.9 1.1q7.15-9.45-1.2-19.9l-15.2-27.3M55.7 56.5h.05l1.6-.1q6.4 6 7.7 13.1 2.1 7.05-3.7 8.4-3.6.65-7.5-4.2l-1-1.9q-2.85-6.1-1.6-13.9-4.5-2.4-4.3-5.2 2.6 3.95 8.75 3.8M42.55 82.1l.5 3.1q-1.7-4.5-3.45-7.6-9.8-5.7-19.65-1-1.7 2.85-2.6 6.6l-.6-1.1q.9-5.95 5.8-10.7 2.65-2.65 5.65-3.05h.35q2.35-.2 5 1l.15.1.85.45q6.2 4.1 8 12.2M19 56.35l.2-1.15q-1.1-.25-2.2-1.75l-1.4 2.15v.1l-.05.05v.05q-.95 1.6-1.65 3.25l-.2.45q-1.05 2.7-1.5 5.55-.5 4.05.8 4.65.55.3 1.7-2.25 2.85-4.6 4.3-11.1m9.65 5.35q-.1.65-.55.65-.45 0-.45-.65 0-.75.25-.95l.15-.05q.55-.2.6.5v.5m7.7 1.8-.35.15q-.6 0-.6-.85 0-1 .3-1.45.05-.1.2-.1l.15-.05.2.05q.6.05.6.95l-.2.75-.3.55m-25 .2q.7-6.2 5-10.7-1.75-3.35-.7-6.2.9 5.9 4.4 7.9-.35 6.95-3.1 11.2-3.55 7.6-5.4 4.5-1.25-2-.2-6.7M38.4 75.6q-2.4-3.75-4.85-4.8-4.95-3.1-10.2 1.7l-1.25 1.25q5.55-2.9 16.3 1.85m20.65-15.55-2.3-2.65-4.4.4.1 3.25q.35 7.15 2.7 11.25 3.55 5.1 6.7 4.2 3.2-1.8 1.9-7.2-1.35-4.95-4.7-9.25" fill="#7b0e0f" fill-rule="evenodd" transform="translate(2.85)"/><path d="m20.7 40 1.8.2 1.75.3q2.85 0 6.3-2.35l2.5-1.95h27.5l15.2 27.3q8.35 10.45 1.2 19.9-34.85 19.5-63.7 4.25-1.35-2-2.15-3.7l-.2-.45q1.8 1.7 7.3.9 7 9.35 24.85.8l-.5-3.1q5.35-2 7.7-4.75 1.8-2.05 2.6-5.55l1 1.9q3.9 4.85 7.5 4.2 5.8-1.35 3.7-8.4-1.3-7.1-7.7-13.1l-1.6.1h-.05l-.85-2.5q-.65-1.55-1.45-2.45l-.1-.1-1.9.15-5.6-.75-7-1.4q-1.5 2.15-3.05 2.15-1.4 0-3.4-1.5l-3.2-2.8q-1.35-1.25-4.9-3.8-2.25-1.6-3.5-3.5h-.05m7.95 21.2q-.05-.7-.6-.5l-.15.05q-.25.2-.25.95 0 .65.45.65t.55-.65q.45 1.7-.75 1.7-.3 0-.65-.7l-.3-1.1q0-1.7 1.05-1.7.85 0 .85.8l-.15.45-.05.05m-.45 7.15q-1.45-.6-2.45-1.75-1.3-1.45-1.3-3l.25-.6 1.35 1.2q2.5 1.65 6.15 2.1 3.7.4 6.45-.65l1.35-.6q-1 3.25-6.3 4.4l-.15-.1q-2.65-1.2-5-1h-.35m8.15-4.85-.2.6-.45.5q-.95 0-.95-1.9t.85-1.9l.65.45-.2-.05-.15.05q-.15 0-.2.1-.3.45-.3 1.45 0 .85.6.85l.35-.15" fill="#df6c6c" fill-rule="evenodd" transform="translate(2.85)"/><path d="M11.15 55.05Q11.1 51.2 13 47.2q2.6-5.35 7.25-7.2h.5q1.25 1.9 3.5 3.5 3.55 2.55 4.9 3.8l3.2 2.8q2 1.5 3.4 1.5 1.55 0 3.05-2.15l7 1.4 5.6.75 1.9-.15.1.1q.8.9 1.45 2.45l.85 2.5q-6.15.15-8.75-3.8-.2 2.8 4.3 5.2-1.25 7.8 1.6 13.9-.8 3.5-2.6 5.55-2.35 2.75-7.7 4.75-1.8-8.1-8-12.2l-.85-.45q5.3-1.15 6.3-4.4l-1.35.6q-2.75 1.05-6.45.65-3.65-.45-6.15-2.1L24.7 63l-.25.6q0 1.55 1.3 3 1 1.15 2.45 1.75-3 .4-5.65 3.05-4.9 4.75-5.8 10.7l.6 1.1.85 1.2q-5.5.8-7.3-.9l-1.95-4.4Q7.8 76.9 7.4 74.05q-.25-1.75-.25-4.7 0-3.65 1.7-6.55l1.8-2.5.6-1.45.45-.95.25-.1-.25-.8-.55-1.95m17.5 6.65v-.5l.05-.05.15-.45q0-.8-.85-.8-1.05 0-1.05 1.7l.3 1.1q.35.7.65.7 1.2 0 .75-1.7M40 65.05q1.5-.9 1.65-2.15.2-1.85-2.25-3.55-2.45-1.6-6.15-2-3.65-.45-6.45.55-2.7 1-2.9 2.85-.15 1.15.8 2.25-.95-1.1-.8-2.25.2-1.85 2.9-2.85 2.8-1 6.45-.55 3.7.4 6.15 2 2.45 1.7 2.25 3.55-.15 1.25-1.65 2.15m-3.75-3.8-.65-.45q-.85 0-.85 1.9t.95 1.9l.45-.5.2-.6.3-.55.2-.75q0-.9-.6-.95m-24.9 2.45q-1.05 4.7.2 6.7 1.85 3.1 5.4-4.5 2.75-4.25 3.1-11.2-3.5-2-4.4-7.9-1.05 2.85.7 6.2-4.3 4.5-5 10.7" fill="#ffb08e" fill-rule="evenodd" transform="translate(2.85)"/><path d="m21.35 36.35 2.2-.15h9.5l-2.5 1.95q-3.45 2.35-6.3 2.35l-1.75-.3-1.8-.2h-.45Q15.6 41.85 13 47.2q-1.9 4-1.85 7.85-2.7-12.25 10.2-18.7m-8.1 51.3-4.1-2.35L8 84.95Q2.95 81.5 1.85 76.1q.4-15.85 9.85-18.2l-.45.95-.6 1.45-1.8 2.5q-1.7 2.9-1.7 6.55 0 2.95.25 4.7.4 2.85 1.55 5.05l1.95 4.4.2.45q.8 1.7 2.15 3.7" fill="#ffd9b7" fill-rule="evenodd" transform="translate(2.85)"/><path d="M43.05 85.2q-17.85 8.55-24.85-.8l-.85-1.2q.9-3.75 2.6-6.6 9.85-4.7 19.65 1 1.75 3.1 3.45 7.6" fill="#f16ed4" fill-rule="evenodd" transform="translate(2.85)"/><path d="M38.4 75.6q-10.75-4.75-16.3-1.85l1.25-1.25q5.25-4.8 10.2-1.7 2.45 1.05 4.85 4.8" fill="#f5f5ff" fill-rule="evenodd" transform="translate(2.85)"/><path d="M19.2 55.2q-4.15 7.1-4.85 6.9-.75.5 1.15-4.75h.1l.6.4.6-.4.25-.85-.25-.9q-.25-.35-.6-.35t-.6.35l1.4-2.15q1.1 1.5 2.2 1.75m40 14q-1.05 1.7-5.05-6.65l.4.05q.5 0 .8-.35.35-.3.35-.8t-.35-.85q-.3-.3-.8-.3t-.85.3l-.2.35-1.05.1-.1-3.25 4.4-.4 2.3 2.65-1.45-.15q2.2 6.45 1.6 9.3" fill="#920968" fill-rule="evenodd" transform="translate(2.85)"/><path d="m19.2 55.2-.2 1.15q-2.05 2.9-2.8 5.8-2.55 0-1.7 2.4l-.85.05q-1.1-2.05.05-5.1l.2-.45q.7-1.65 1.65-3.25l-.2.7.2.75-.05.1q-1.9 5.25-1.15 4.75.7.2 4.85-6.9m34.45 7.1.05-.05.45.3q4 8.35 5.05 6.65-.75 1.8.6 2.45-1.25.85-3.85-2-1.65-2.15-2.3-7.35m3.95-2.4q2.2 2.45 3.6 8.25-1.1-.7-2 1.05.6-2.85-1.6-9.3" fill="#ed097e" fill-rule="evenodd" transform="translate(2.85)"/><path d="m15.55 57.25-.2-.75.2-.7v-.05l.05-.05v-.1q.25-.35.6-.35t.6.35l.25.9-.25.85-.6.4-.6-.4-.05-.1M13.7 59.5q-1.15 3.05-.05 5.1l.85-.05q-.85-2.4 1.7-2.4.75-2.9 2.8-5.8-1.45 6.5-4.3 11.1Q13.55 70 13 69.7q-1.3-.6-.8-4.65.45-2.85 1.5-5.55m39.7 1.95.25.75-.15-1.25-.1.5m.3.8-.05-.05v.1q.65 5.2 2.3 7.35 2.6 2.85 3.85 2-1.35-.65-.6-2.45.9-1.75 2-1.05-1.4-5.8-3.6-8.25l1.45.15q3.35 4.3 4.7 9.25 1.3 5.4-1.9 7.2-3.15.9-6.7-4.2-2.35-4.1-2.7-11.25l1.05-.1.2-.35q.35-.3.85-.3t.8.3q.35.35.35.85t-.35.8q-.3.35-.8.35l-.4-.05-.45-.3" fill="#fff" fill-rule="evenodd" transform="translate(2.85)"/><path d="m40 65.05-1.35.6q-2.75 1.05-6.45.65-3.65-.45-6.15-2.1L24.7 63q-.95-1.1-.8-2.25.2-1.85 2.9-2.85 2.8-1 6.45-.55 3.7.4 6.15 2 2.45 1.7 2.25 3.55-.15 1.25-1.65 2.15z" fill="none" stroke="#7b0e0f" stroke-linecap="round" stroke-linejoin="round" transform="translate(2.85)"/><path d="M31.75 37.7h.15l.05.35-.2-.35" fill="#00f" fill-rule="evenodd" transform="translate(2.85)"/><path d="M51.3 5.45Q44.15 7.1 37.45 11.6q-4.7-9.4-12.6-8.3-7.65 1.75-7.5 10.7 1.15 7.5 5.05 9.85l-3.75-.1q-6.2-5.95-2.9-16.25 5.9-10.65 16.9-6.2 4.05 2.4 5.9 7.6 9.05-6.8 17.5-7 11.3-1.4 18.7 7.7 4.35 7.95-2.1 13.7-3.1 3.1-6.8 4.1 8.35-5.2 6.7-13.3Q68.9 5 57.35 4.6q-3.1.15-6.05.85m4.15 5.85q8.65-.5 12.2 6.1.95 7.4-1.8 10-.4-.5-2.2-1.3 6.85-8.95-2.7-12.9l-6.8-.2-.05-.3 1.35-1.4" fill="#1e6090" fill-rule="evenodd" transform="translate(2.85)"/><path d="m22.4 23.85.7.1.2.05q6.9 1.25 11.7 8 5.8-3.65 12-5.25 8-2.1 16.65-.65 1.8.8 2.2 1.3.25.3 0 .5-2.3 2.55-3.85 5.55-1.7 3.2-2.55 6.95-10.5 7.95-23.35 4.35l-.4 1.05.2.7.2 1.1q0 1.45-1.15 3.15l-1.6 1.65-1.25.6-2.8.45q-3 0-4.5-2.7-1.05-1.95-1.05-4.2 0-2.75 1.5-4.9-2.6-1.15-5.2-4.65 1.3-4.45-2.8-13.1l1.4-.15 3.75.1m24.1 6.75 4-.7 4.4-.2 4 .5 3.1.8 1.8-2.5.15-.15.6-.75Q47.4 24.5 35.7 33.05l.35.55.4.7 3.3-1.5 1.25-.5q2.8-1.1 5.5-1.7m14.25 2.55Q61.3 32.05 62 31q-12.3-1.4-25.25 4.3l.25 1.1.05.1.55 3.5-.1 2.85-.15.65q8.55 2 16.45-1.65l3.6-2 1.35-.95q.55-2.9 2-5.75M36.25 39l-.1-1.4q-5.45-12.35-16.5-12.2l.95 1.05.45.95 1.25.4.1.05q1.25.45 2.45 1.2l.1.05 1.9 1.3 1.15 1 .15.15 1.2 1.25.1.1q1.3 1.5 2.15 3.25l.6 1.55q1.3 0 2.35.6 1 .6 1.5 1.6l.4 1.15-.1-1.15-.1-.9m-4.35-1.3-.85-1.3Q29.8 34.65 28 33.05q-2.9-2.6-6.65-4.25.35 1.7.3 4.15l-.2 3.35.25.65 3 2.45 1.45 1.1.05-.05.5-.45q1.5-1.4 3.45-2l1.6-.3.2.35-.05-.35m2.75 2.3-.65-.55-3.7-.2q-1.55.5-2.8 1.7l-.9.95q-1.65 2.1-1.65 4.6 0 1.55.7 3.1 1.3 2.75 4.25 2.75l.7-.05q2.15-.25 3.45-2.2 1-1.5 1-2.5l-.2-.95.1-.45v-.25l-.15-.1-.3-.1-.15.15q-.9-1.1-2.5-1.1l-1.6.4q.5.7.5 2.15L30 47.1v-.4l-.25-1.1-.3-.75.05-.2.1.05q.05-.35.5-.6.6-.4 1.7-.4.95 0 2.1.6l1.15.7.4-.65.1-.05v-.1l.15-.3-.05-.5q-.05-2.25-1-3.4m-5.9 9.3h-.05q-1 0-1-.7l.05-.2h.7l.95-.35 1 .3-.15.15q-.65.75-1.5.8" fill="#592801" fill-rule="evenodd" transform="translate(2.85)"/><path d="m54.15 13 6.8.2q9.55 3.95 2.7 12.9Q55 24.65 47 26.75l-.6-1.1-.05-1.05q0-5.75 4.6-9.55l2.7-2 .5-.05" fill="#75a1ed" fill-rule="evenodd" transform="translate(2.85)"/><path d="M23.1 23.95q-.25-.6-.25-2.15 0-3.95 3.4-6.1 2.65-1.7 5.8-1.7 3.6 0 8.65 3.55l-.15.15.2-.1.15-.05q6.8-3.7 12.75-4.5l-2.7 2q-4.6 3.8-4.6 9.55l.05 1.05.6 1.1q-6.2 1.6-12 5.25-4.8-6.75-11.7-8l-.2-.05" fill="#93cdf6" fill-rule="evenodd" transform="translate(2.85)"/><path d="m55.45 11.3.1-.55q0-2.25-1.5-3.65-.95-.9-2.75-1.65 2.95-.7 6.05-.85 11.55.4 15.2 9.5 1.65 8.1-6.7 13.3 2.75-2.6 1.8-10-3.55-6.6-12.2-6.1" fill="#d1d4ff" fill-rule="evenodd" transform="translate(2.85)"/><path d="M51.3 5.45q1.8.75 2.75 1.65 1.5 1.4 1.5 3.65l-.1.55h-.6q-7.4-1.05-14.15 6.25Q35.65 14 32.05 14q-3.15 0-5.8 1.7-3.4 2.15-3.4 6.1 0 1.55.25 2.15l-.7-.1Q18.5 21.5 17.35 14q-.15-8.95 7.5-10.7 7.9-1.1 12.6 8.3 6.7-4.5 13.85-6.15M46.5 30.6l-.25-1.3q-2.15-.1-5 1l-.35.1-1.8.85q-2 1.05-3.05 2.35l-.35-.55q11.7-8.55 28.85-5.45l-.6.75-.15.15-4.1-.25-4.1-.35-.3-.05h-.8l-1.35.1-3.1.65.45 1.3-4 .7m11.85 2.5-4.45.2-5.9.35-2.3.2q-1.3.2-3.7.95l-.8.35-.85.15q-.4-.05-1.8.45L37 36.4l-.25-1.1Q49.7 29.6 62 31q-.7 1.05-1.25 2.15l-1.7-.1H59l-.65.05M22.3 27.8l-1.25-.4-.45-.95-.95-1.05q11.05-.15 16.5 12.2l.1 1.4-2.2-4.35-.1-.25q-1.15-2-3.3-3.6l-1.75-1.15-.75 1.9-.15-.15-1.15-1 .1-1.8-1.9-.9-.05-.05q-1.7-.75-2.55-.75l-.15.05v.85m9.45 9.9-1.8-2.25-1.9-1.75q-.7-.75-2.55-2l-1.7-.9-.75-.1.15 6.1 1.55 1.3.6.5L26.7 40l-.5.45-.05.05-1.45-1.1-3-2.45-.25-.65.2-3.35q.05-2.45-.3-4.15 3.75 1.65 6.65 4.25 1.8 1.6 3.05 3.35l.85 1.3h-.15M30.6 52.3l-.7.05q-2.95 0-4.25-2.75-.7-1.55-.7-3.1 0-2.5 1.65-4.6l.9-.95q1.25-1.2 2.8-1.7l3.7.2.65.55q-2.3.25-3.8 1.15l-.8.7q-2.6.7-2.6 3.15 0 .75.35 1.4l.25.5.05.1.35 1.4h-.7l-.05.2q0 .7 1 .7h.05l.5 1.15q.6 1.2 1.35 1.85" fill="#fff" fill-rule="evenodd" transform="translate(2.85)"/><path d="M40.7 17.55q6.75-7.3 14.15-6.25h.6l-1.35 1.4-.45.35q-5.95.8-12.75 4.5l-.15.05-.05-.05" fill="#609dca" fill-rule="evenodd" transform="translate(2.85)"/><path d="m55.6 27.9 4.1.35-.35.95-.45 1-4-.5q0-.4.3-1.05l.4-.75m-16.5 3.35 1.8-.85.35-.1-.25 2-1.25.5-.65-1.55M37 36.4l1.55-.65q1.4-.5 1.8-.45l.85-.15.8-.35q2.4-.75 3.7-.95l2.3-.2 5.9-.35 4.45-.2q-.95 1.65-1.05 5-8.15 3.55-16.75 2.9-1.25-3.05-3.45-4.55l-.1-.05m-14.7-8.6v-.85l.15-.05q.85 0 2.55.75l.05.05-.2 1.35q-1.2-.75-2.45-1.2l-.1-.05m8.35 3q2.15 1.6 3.3 3.6l.1.25-1.65 1.05-.8.45q-.85-1.75-2.15-3.25l-.1-.1 1.3-2m-6.85 0 1.7.9q1.85 1.25 2.55 2l1.9 1.75 1.8 2.25-1.6.3q-1.95.6-3.45 2l-1.35-1.4-.6-.5 1.4-1.25q1.2-.9 1.4-1.5l-1.1-1.85-2.65-2.7m11.65 13.55-.4.65-1.15-.7q-1.15-.6-2.1-.6-1.1 0-1.7.4-.45.25-.5.6l-.1-.05-.05.2.3.75.25 1.1v.4l-.9-.75q-.65-.8-.65-1.45 0-.45.65-1.3.85-1.15 2.1-1.15 2.15 0 3.1.95l.95.95h.2m-4.7 3q0-1.45-.5-2.15l1.6-.4q1.6 0 2.5 1.1l-1 .7q-1.1.8-2.05.8l-.55-.05" fill="#ec751b" fill-rule="evenodd" transform="translate(2.85)"/><path d="M41.25 30.3q2.85-1.1 5-1l.25 1.3q-2.7.6-5.5 1.7l.25-2m9.25-.4-.45-1.3 3.1-.65 1.35-.1h.8l.3.05-.4.75q-.3.65-.3 1.05l-4.4.2m7.85 3.2.65-.05h.05l1.7.1q-1.45 2.85-2 5.75l-1.35.95-.1-1.15v-.6q.1-3.35 1.05-5m-33.3-5.4 1.9.9-.1 1.8-1.9-1.3-.1-.05.2-1.35m3.1 3.85.75-1.9 1.75 1.15-1.3 2-1.2-1.25m-3.4 6.55-1.55-1.3-.15-6.1.75.1 2.65 2.7 1.1 1.85q-.2.6-1.4 1.5l-1.4 1.25m12.75 4.75q6.85 1.35 16.3-1-7.9 3.65-16.45 1.65l.15-.65m-6.9 9.45q-.75-.65-1.35-1.85l-.5-1.15q.85-.05 1.5-.8l.15-.15.95.05q1.3 0 2.5-.85l1-.9.2.95q0 1-1 2.5-1.3 1.95-3.45 2.2m-2.15-3.9L28.1 47q.5.7 1.3 1.05l-.95.35m1.6-6.55.8-.7q1.5-.9 3.8-1.15.95 1.15 1 3.4-.4-2-4.05-1.8l-1.55.25" fill="#ffdb00" fill-rule="evenodd" transform="translate(2.85)"/><path d="m59.7 28.25 4.1.25L62 31l-3.1-.8.45-1 .35-.95M36.05 33.6q1.05-1.3 3.05-2.35l.65 1.55-3.3 1.5-.4-.7m1.05 2.85q2.2 1.5 3.45 4.55 8.6.65 16.75-2.9v.6l.1 1.15-3.6 2q-9.45 2.35-16.3 1l.1-2.85-.55-3.5.05-.05m-3.05-1.8 2.2 4.35.1.9.1 1.15-.4-1.15q-.5-1-1.5-1.6-1.05-.6-2.35-.6l-.6-1.55.8-.45 1.65-1.05M28.1 47l-.05-.1-.25-.5q-.35-.65-.35-1.4 0-2.45 2.6-3.15l1.55-.25q3.65-.2 4.05 1.8l.05.5-.15.3v.1l-.1.05h-.2l-.95-.95q-.95-.95-3.1-.95-1.25 0-2.1 1.15-.65.85-.65 1.3 0 .65.65 1.45l.9.75.75.25.55.05q.95 0 2.05-.8l1-.7.15-.15.3.1.15.1v.25l-.1.45-1 .9q-1.2.85-2.5.85l-.95-.05-1-.3q-.8-.35-1.3-1.05" fill="#b04700" fill-rule="evenodd" transform="translate(2.85)"/><path d="M7.55 73.55q-2.15-.2-4.7-1.4Q.25 70.9-1.2 69.4q-1.5-1.55-1.05-2.5.45-.95 2.55-.75 2.15.15 4.75 1.4 2.55 1.2 4 2.75 1.55 1.5 1.1 2.45-.45.95-2.6.8M75 78.85q-1.95 1.7-5.2 2.8-3.3 1.1-5.9 1-2.55-.1-2.95-1.3-.4-1.25 1.5-2.9 2.05-1.65 5.35-2.75 3.25-1.1 5.75-1.05 2.7.1 3.1 1.35.4 1.2-1.65 2.85" fill="#f16ed4" fill-rule="evenodd" transform="translate(2.85)"/><path d="M7.55 73.55q-2.15-.2-4.7-1.4Q.25 70.9-1.2 69.4q-1.5-1.55-1.05-2.5.45-.95 2.55-.75 2.15.15 4.75 1.4 2.55 1.2 4 2.75 1.55 1.5 1.1 2.45-.45.95-2.6.8M75 78.85q-1.95 1.7-5.2 2.8-3.3 1.1-5.9 1-2.55-.1-2.95-1.3-.4-1.25 1.5-2.9 2.05-1.65 5.35-2.75 3.25-1.1 5.75-1.05 2.7.1 3.1 1.35.4 1.2-1.65 2.85z" fill="none" stroke="#7b0e0f" stroke-linecap="round" stroke-linejoin="round" transform="translate(2.85)"/></g><g id="p" fill-rule="evenodd"><path d="m10.55 32.25.1-.05-.1.1v-.05" fill="#00f"/><path d="M37.05 4v.35l-.35 1.3-.3 1.05-.05.3q0 .7.65 1.55l.35.45.95.85.55.15.3 1.75-1 .65-1.15.55q-.7-5.6-3.85-10.85-11.7-.55-21.55 3.15l-.55.2-2.6 1.05q-8.1 5.1-7.3 13.6-.3 1.35-.65 1.15l-.25-.35q-1.55-10 7.2-15.5 10.4-7.15 27.4-4.85.9.25 1.55 1.55l.65 1.9m.25 18.45 1.9-.25h.25q2 8.65-4.25 15.65-3.65 4.05-10.15 7.55-3.55 1.65-7-1.3 7.5-.45 12.2-5.35 5.25-5.45 7.05-16.3M23.5 20.2l-.2.05-.6.05-2.85.35q-.85.15-1.7.6l1.35 1q2 1.85 2 3.5t-1.45 4.05q-2.25 3.7-6.55 3.7-1.5 0-2.45-.85l-.4-.45-.1.05q-.5-.55-.5-2.25 0-1.05 1.4-3.15l2.1-3.05q.65-1.1 2.9-2.55l.25-.2.55-.35q1.7-1.1 4.4-1.4 2.7-.35 2.7.6l-.85.3m-6.05 1.5v-.1l-.05.05-.85.55-1.9 1.65-1.3 1.75-2 3.35q-.35.6-.4 1.7l-.1 1.05.65.35 1.8.45q3.75 0 5.8-3.1l1.35-3.25q0-1.4-1.5-2.95l-1.5-1.5" fill="#7b0e0f"/><path d="m36.4 6.7.3-1.05.35-1.3V4q9.2-3.3 14.2 2.8 5.45 7.3-4.2 12.5-3.75 2.1-7.6 2.85h-.25v.05l-1.9.25-5.15-.15q-5.6-5.2 0-9.3l2.65.3 2.2-.35 1.15-.55 1-.65q.8-.7.8-1.55 0-.35-.6-.55-.6-.2-1.05.2L37.35 9 37 8.55l1.55-.6q1.1-.45 1.85-.45 1.05 0 1.75.7t.7 1.6q0 1.95-3.35 3.55-2.9 1.35-4.8 1.15l-2.4-.1-.45.6q-2.55 3.3.5 6l3.45.3 3.3-.6q3.25-1.05 6.75-3.6 5.45-4.2 2.8-9.1l-1.5-1.1q-.95-.6-2-.95l-.5-.15-2.75-.25h-.35q-2.4.1-5.15 1.15" fill="#592801"/><path d="M.5 21.25q.35.2.65-1.15-.8-8.5 7.3-13.6l2.6-1.05.55-.2q3.3 1.1 5.15 3.85 1.8 2.75 1.8 6.35 0 1.05-.6 2.7l-1.25 2.9-.25.2q-2.25 1.45-2.9 2.55l-2.1 3.05q-1.4 2.1-1.4 3.15 0 1.7.5 2.25v.05l.1-.1.4.45q.95.85 2.45.85 4.3 0 6.55-3.7 1.45-2.4 1.45-4.05t-2-3.5l-1.35-1q.85-.45 1.7-.6l2.85-.35.6-.05.2-.05q.75 1.25.9 2l.05 1.9-.65 4.2q-.65 3-.65 4.5 0 2 1.1 3.4 1.75 2.25 6 2.55-4.7 4.9-12.2 5.35Q6.85 38.05.5 21.25" fill="#df6c6c"/><path d="m37 12.95-2.2.35-2.65-.3q-5.6 4.1 0 9.3l5.15.15q-1.8 10.85-7.05 16.3-4.25-.3-6-2.55-1.1-1.4-1.1-3.4 0-1.5.65-4.5l.65-4.2-.05-1.9q-.15-.75-.9-2l.85-.3q0-.95-2.7-.6-2.7.3-4.4 1.4l-.55.35 1.25-2.9q.6-1.65.6-2.7 0-3.6-1.8-6.35-1.85-2.75-5.15-3.85 9.85-3.7 21.55-3.15Q36.3 7.35 37 12.95" fill="#ffb08e"/><path d="m17.4 21.65.05.05 1.5 1.5q1.5 1.55 1.5 2.95L19.1 29.4q-2.05 3.1-5.8 3.1l-1.8-.45-.65-.35.1-1.05q.05-1.1.4-1.7l2-3.35 1.3-1.75 1.9-1.65.85-.55" fill="#a44647"/><path d="m47.15 6.9 1.5 1.1q2.65 4.9-2.8 9.1-3.5 2.55-6.75 3.6l-.05-.9v-.05l1.4-.45q1.35-.5 2.35-1.35l2.35-2.35q2.8-2.55 2.8-4.9l-.45-2.55-.35-1.25M35.8 21.3l-3.45-.3q-3.05-2.7-.5-6l1.35 1.25 1.65.25 1.2-.2q.65 0 .8.6l.1 1.2-.25 1.6-.9 1.6" fill="#ffdb00"/><path d="M45.15 5.95q1.05.35 2 .95l.35 1.25.45 2.55q0 2.35-2.8 4.9l-2.35 2.35q-1 .85-2.35 1.35l-.25-1.15-.35-.95 4.35-2.95q2.45-2.2 2.45-5L46.2 7.5l-1.05-1.55" fill="#ec751b"/><path d="m41.9 5.55 2.75.25.5.15L46.2 7.5l.45 1.75q0 2.8-2.45 5l-4.35 2.95.35.95.25 1.15-1.4.45-.2-3.15q1.6-.4 3.7-2.8 2.2-2.55 2.2-4.45 0-1.2-1.2-2.6-.9-1.1-1.65-1.2" fill="#b14800"/><path d="M36.4 6.7q2.75-1.05 5.15-1.15h.35q.75.1 1.65 1.2 1.2 1.4 1.2 2.6 0 1.9-2.2 4.45-2.1 2.4-3.7 2.8l.2 3.15v.05l.05.9-3.3.6.9-1.6.25-1.6-.1-1.2q-.15-.6-.8-.6l-1.2.2-1.65-.25L31.85 15l.45-.6 2.4.1q1.9.2 4.8-1.15 3.35-1.6 3.35-3.55 0-.9-.7-1.6-.7-.7-1.75-.7-.75 0-1.85.45l-1.55.6q-.65-.85-.65-1.55l.05-.3" fill="#fff"/></g><g id="q" fill-rule="evenodd"><path d="m22.65 14.75.05-.75q0-.75-1.75-2.55Q19.2 9.7 19.2 8q0-.5.5-1.5l.9-1.4q-2.45-1.9-5.75-1.9-3.6 0-8.05 4.4-1.2 1.15-2.05 2.3-2.35 3-2.35 5.5 0 2.85 2.3 5.3v.2l.1-.05.35.35.25.25h.45l2.1.15q3.75 0 8.65-1.9l1.1-.45 1.4-.7q3.05-1.7 3.55-3.8m-.45-7q0 .7 1.9 2.45 1.9 1.75 1.9 3.9 0 4.35-6.8 7-5.1 2-9.45 2l-4.85-.4q-1.05-.15-2.15-.9l-.9-.8v-.35q-4.35-8 1.65-14.15Q9 .2 15.4 0q5.5-.05 8.05 5.75-1.25.75-1.25 2" fill="#7b0e0f"/><path d="m17.7 19.25-1.1.45q-4.9 1.9-8.65 1.9l-2.1-.15Q7.05 10.75 14 10.2v2.1q.4 2.55 1.75 4.55l1.95 2.4" fill="#df6c6c"/><path d="m19.1 18.55-1.4.7-1.95-2.4q-1.35-2-1.75-4.55v-2.1q-6.95.55-8.15 11.25H5.4l-.25-.25-.35-.35-.1-.15-.2-2q0-4.35 2.4-7.4 2.75-3.5 7.55-3.5.9 0 .95.6l-.1 1.7q0 2.1 1 4.8.85 2 2.8 3.65" fill="#a44647"/><path d="M22.65 14.75q-.5 2.1-3.55 3.8-1.95-1.65-2.8-3.65-1-2.7-1-4.8l.1-1.7q-.05-.6-.95-.6-4.8 0-7.55 3.5-2.4 3.05-2.4 7.4l.2 2q-2.3-2.45-2.3-5.3 0-2.5 2.35-5.5Q7.9 6.95 15.2 5h2.4l-.2 1.85q0 3.25 1.85 5.65 1.5 2 3.4 2.25" fill="#ffb08e"/><path d="M4.75 9.9Q5.6 8.75 6.8 7.6q4.45-4.4 8.05-4.4 3.3 0 5.75 1.9l-.9 1.4q-.5 1-.5 1.5 0 1.7 1.75 3.45 1.75 1.8 1.75 2.55l-.05.75q-1.9-.25-3.4-2.25-1.85-2.4-1.85-5.65L17.6 5h-2.4Q7.9 6.95 4.75 9.9" fill="#ffd9b7"/></g><g id="r" fill-rule="evenodd"><path d="M109.15 42.9q-.6 7.4-8.3 11.8-12.9 6.45-24.1 4.8-15.05.25-27.15-11.15-10.8 4.45-21.35-.45-9.3-5.95-9.9-17.2v-3.9q.35-7.65 3.3-13.9L23 10.45l.55-.95q9.8-9.35 22.1-7.1h.5q-.75.75-.9 1.25-3.45-.6-6.55-.1-6.1.9-10.85 5.95Q20 16.6 21.3 29.1l.55 3.6q5.35 22.35 30.1 12 6.85 9.3 19.2 12.4 26.25 3.4 36.1-15l1.9.8M78.2 6.3l2.55-.75q2.95-.85 6.5-.85 2.75 0 7.8 2.75 5.25 2.85 6 2.95 2.4-1.35 6-2.35 3.3-.9 4.7-1.7 5.65 8.4 2.6 19.95l-2.4.65q2.75-9.6-.8-18.55-1.9-.15-4.1 1.1l-1.75.8q-1.85.8-2.35.8l-.85-.05q-1.9-.3-5.25-1.65-2.1-.8-4.8-2.15l-.3-.15-2.8-.5-3.6-.3-6.4 1.1-.75-1.1" fill="#3b160a"/><path d="M136.55 31.7q0-4.25-1.4-7.2-1.85-4-5.8-4-1.95 0-3.25.65l-3.25 2.15-6.65 4.1q-5.7 2.4-9.55 1.1-7.2 3.85 0 11.8 6.65-.55 11.3 5.3-.95-.75-2.8-1.3h-.5q1.8 4.15 3.85 5.75 2.25 1.85 6.2 1.85 3.35 0 6.75-3 3.5-3.05 3.5-6.2 0-1-.5-2.3l-.65-1.95-.05-.1q1.15-.85 1.95-2.75.85-2.05.85-3.9m-22.2-5.4 2.7-1.15.1-.05q3.65-1.6 7.2-4.6 1.85-1.6 6.45-1.6 3.6 0 6.25 3.7 2.4 3.3 2.4 6.9 0 2.2-1.25 5.35-1.25 3.2-2.35 3.85l.4 1.05.4 1.35.35 1.2.15 1.45q0 5.3-4.3 8.05-3.65 2.3-9.4 2.3-4.25 0-7.5-2.2-3.6-2.45-3.6-6.3l.15-.85.15-.85-3.5-1-1.9-.8-1.4-1.1-.2-.2q-8.65-8.4.2-13.6l6.1-.25 2.4-.65m-96 3.4-1.75-.15-2.15.15q-.3.05-1.55.9-1.2.8-2.05.75Q2.1 32.65.05 26.1q-.65-7.45 5.8-11.2-4.25-6.55-.2-12.1Q10.3-1.55 15.85.9q3.9 1.35 5.8 7.65l.15.35.5.8.7.75-1.35 2.45-3.55-6.35Q16 2.7 12.45 2.7q-2.05 0-3.9 2.5-1.7 2.35-1.7 4.45 0 2.15 1.8 3.6 2.3 1.8 3 3.75l-1.2-.4-1.7-.3q-2.35 0-4.4 3.1-1.8 2.75-1.8 4.9 0 2.2 2 3.5 1.75 1.1 4.05 1.1 1.95 0 4.3-1.1 2.35-1.1 4.05-1.1l1.4.1v2.9" fill="#746e99"/><path d="M133.65 33.8q-.65 1.4-2.7 2.3l.35-1.2.35-2.3q0-2.5-1.7-4.5-1.85-2.2-4.5-2.2l-1.35.2-1.2.6q.35-1.65 2.5-2.9 1.9-1.1 3.4-1.1 2.55 0 4.35 1.9 1.9 1.95 1.9 4.95 0 1.45-1.4 4.25m-6.6 14.7-1.05.2q-3.25 0-5.65-2.3-2.8-2.65-2.8-7.25l.2-1.55h.6l6.75 1.05q3.75.55 5.35 1.8-2.65.8-3.4 1.25-1.5.95-1.5 2.95 0 1.65 1.5 3.85m-12.3-8q-1.55-.9-5.95-1.25-3.65-.8-3.65-4.55l.1-.7h.5q2 1.1 4.55 1.8l4.05.55.25 1.65.25 2.25-.1.25M8.35 10.85q0-1.85.9-3.3 1-1.5 2.75-1.9-.25.5-.55 1.9l-.2 1.65q0 2.3 1.15 3.45.75.8 2.4 1.25l-1 .1q-1.9 0-3.55-.8-1.9-.95-1.9-2.35m3.8 9.45q1.3 1.2 1.3 2.5 0 1.65-.9 3-1.05 1.6-2.85 1.6-1.25 0-2.65-.8-1.7-1-1.7-2.5l.15-1.4.2-.75.8.7 1 .25q1 0 1.75-.4 1-.55 1-1.55l-.15-.85-.2-.85.05-.05q1 0 2.2 1.1" fill="#c9c7ef"/><path d="m111.95 26.95-6.1.25q-8.85 5.2-.2 13.6l.2.2 1.4 1.1q-9.85 18.4-36.1 15Q58.8 54 51.95 44.7q-24.75 10.35-30.1-12l-.55-3.6q16.15 16.85 35.55-1.5 4.45 17.2 17.3 19.3 14.05 4.75 23.9-6.1-1.3-8.05 4.05-13.8 1.1-2.05 1.55-4.15 1.25-5.6-1.55-11.8l.85.05q.5 0 2.35-.8l1.75-.8q2.2-1.25 4.1-1.1 3.55 8.95.8 18.55" fill="#753018"/><path d="M45.25 3.65h.05Q43.45 5.9 42.85 7.2l-.25.7q-.75-2.9-3.9-4.35 3.1-.5 6.55.1m-2.95 9.9q.45 3.6 2.45 5.95 2.7 3.1 7.55 3.1l4.05-.65 3.1-.85q1.55-.3 3.5-2.2l2.55-2.6.45.85.1.15.05.05q.35 5.2 9.75 3.05 1.75 13.35 27.8 2.45-.45 2.1-1.55 4.15-5.35 5.75-4.05 13.8-9.85 10.85-23.9 6.1-12.85-2.1-17.3-19.3-19.4 18.35-35.55 1.5.75-7.1 3.95-11.1 9.8 9.5 17.05-4.45" fill="#a54901"/><path d="M42.6 7.9q-.45 1.45-.45 3.45l.15 2.2Q35.05 27.5 25.25 18q-3.2 4-3.95 11.1Q20 16.6 27.85 9.5 32.6 4.45 38.7 3.55 41.85 5 42.6 7.9m23.5 9.45q1.25 1.75 3.4 1.75 4.15 0 7.45-2.7t3.3-6.1l-.45-1.8q-.4-.9-.95-1.05l.1-.05 6.4-1.1 3.6.3 2.8.5.3.15q2.7 1.35 4.8 2.15 3.35 1.35 5.25 1.65 2.8 6.2 1.55 11.8-26.05 10.9-27.8-2.45-9.4 2.15-9.75-3.05" fill="#d17227"/><path d="m46.15 2.4 2 .2q5.7.8 10.05 5.05Q60.45 9 65.4 9l4.1-.6 3.45-.75L78.2 6.3l.75 1.1-.1.05q.55.15.95 1.05l.45 1.8q0 3.4-3.3 6.1-3.3 2.7-7.45 2.7-2.15 0-3.4-1.75l-.05-.05-.1-.15-.45-.85-2.55 2.6q-1.95 1.9-3.5 2.2l-3.1.85-4.05.65q-4.85 0-7.55-3.1-2-2.35-2.45-5.95l-.15-2.2q0-2 .45-3.45l.25-.7q.6-1.3 2.45-3.55h-.05q.15-.5.9-1.25m7.4 4.1-1.25-.7h-.05Q49.3 4.55 46.6 3.95q-2.75 1.95-2.75 7.35 0 4.25 2.1 7 .95 1.3 2.25 2.05l.5.25q1.7.8 3.85.8l4.4-1.1q3.45-1.05 3.9-1.4l3-2.45 1.1-1.4 1-.25.5.15.85 1.5q.65.75 2.5.75 3.1 0 5.85-2.1 3.1-2.3 3.1-5.55 0-.95-.4-2L75 8.3l-1.05.25q-7.5 1.75-9.3 1.75-3.6 0-6.35-1.3l-4.15-2.15-.6-.35" fill="#7b0e0f"/><path d="m47.5 19.1-1.3-2.25q-1.25-2.6-1.25-5.2 0-1.25.7-3.35.65-1.95 1.3-2.65h.2l.95.05 3.45.45 2 .35.6.35L58.3 9q2.75 1.3 6.35 1.3 1.8 0 9.3-1.75l.1.95q0 1.7-1.3 3.6-1.6 2.4-4.1 2.4l-2.2-.55-.65-1.15-.85 1.25q-8.25 7.5-17.45 4.05m9-8.3-1.85-.2q-1.8 0-3.1.55-1.3.6-1.3 1.45t1.3 1.4q1.3.6 3.1.6l1.25-.05 1.85-.55q1.3-.55 1.3-1.4 0-.85-1.3-1.45l-1.25-.35M54 13.35q-1.7 0-1.7-.7 0-.75 1.4-.75l2.65.15q-.4.7-2.35 1.3" fill="#d95757"/><path d="m48.2 20.35-.7-1.25q9.2 3.45 17.45-4.05l.85-1.25.65 1.15 2.2.55q2.5 0 4.1-2.4 1.3-1.9 1.3-3.6l-.1-.95L75 8.3l3.35-.75q.4 1.05.4 2 0 3.25-3.1 5.55-2.75 2.1-5.85 2.1-1.85 0-2.5-.75l-.85-1.5-.5-.15-1 .25-1.1 1.4-3 2.45q-.45.35-3.9 1.4l-4.4 1.1q-2.15 0-3.85-.8l-.5-.25m8.3-9.55 1.25.35q1.3.6 1.3 1.45t-1.3 1.4l-1.85.55q.4-1.1-1.45-1.25l-.45.05q1.95-.6 2.35-1.3h.45l.05-.35-.35-.9" fill="#b83613"/><path d="M133.65 33.8q1.4-2.8 1.4-4.25 0-3-1.9-4.95-1.8-1.9-4.35-1.9-1.5 0-3.4 1.1-2.15 1.25-2.5 2.9l1.2-.6 1.35-.2q2.65 0 4.5 2.2 1.7 2 1.7 4.5l-.35 2.3-.35 1.2q2.05-.9 2.7-2.3m2.9-2.1q0 1.85-.85 3.9-.8 1.9-1.95 2.75l.05.1.65 1.95q.5 1.3.5 2.3 0 3.15-3.5 6.2-3.4 3-6.75 3-3.95 0-6.2-1.85-2.05-1.6-3.85-5.75h.5q1.85.55 2.8 1.3-4.65-5.85-11.3-5.3-7.2-7.95 0-11.8 3.85 1.3 9.55-1.1l6.65-4.1 3.25-2.15q1.3-.65 3.25-.65 3.95 0 5.8 4 1.4 2.95 1.4 7.2m-9.5 16.8q-1.5-2.2-1.5-3.85 0-2 1.5-2.95.75-.45 3.4-1.25-1.6-1.25-5.35-1.8l-6.75-1.05h-.6l-.2 1.55q0 4.6 2.8 7.25 2.4 2.3 5.65 2.3l1.05-.2m-12.3-8 .1-.25-.25-2.25-.25-1.65-4.05-.55q-2.55-.7-4.55-1.8h-.5l-.1.7q0 3.75 3.65 4.55 4.4.35 5.95 1.25m-61.2-34-2-.35-3.45-.45-.95-.05h-.2q-.65.7-1.3 2.65-.7 2.1-.7 3.35 0 2.6 1.25 5.2l1.3 2.25.7 1.25q-1.3-.75-2.25-2.05-2.1-2.75-2.1-7 0-5.4 2.75-7.35 2.7.6 5.65 1.85h.05l1.25.7m2.35 8.05-1.25.05q-1.8 0-3.1-.6-1.3-.55-1.3-1.4 0-.85 1.3-1.45 1.3-.55 3.1-.55l1.85.2.35.9-.05.35h-.45l-2.65-.15q-1.4 0-1.4.75 0 .7 1.7.7l.45-.05q1.85.15 1.45 1.25m-47.55-3.7q0 1.4 1.9 2.35 1.65.8 3.55.8l1-.1q-1.65-.45-2.4-1.25-1.15-1.15-1.15-3.45l.2-1.65q.3-1.4.55-1.9-1.75.4-2.75 1.9-.9 1.45-.9 3.3m10 15.95-1.4-.1q-1.7 0-4.05 1.1-2.35 1.1-4.3 1.1-2.3 0-4.05-1.1-2-1.3-2-3.5 0-2.15 1.8-4.9 2.05-3.1 4.4-3.1l1.7.3 1.2.4q-.7-1.95-3-3.75-1.8-1.45-1.8-3.6 0-2.1 1.7-4.45 1.85-2.5 3.9-2.5 3.55 0 5.65 3.85l3.55 6.35q-2.95 6.25-3.3 13.9m-6.2-6.5q-1.2-1.1-2.2-1.1l-.05.05.2.85.15.85q0 1-1 1.55-.75.4-1.75.4l-1-.25-.8-.7-.2.75-.15 1.4q0 1.5 1.7 2.5 1.4.8 2.65.8 1.8 0 2.85-1.6.9-1.35.9-3 0-1.3-1.3-2.5" fill="#fff"/></g><g id="s" fill-rule="evenodd"><path d="m3.65 19 .1.25q1.35 2.9 3.4.85 2.15-2.25 1.3-13.2l-.1-.8Q5.5-1.1 3.55 3.4q-2.05 3.55-1 11.4.45 2.65 1.1 4.2m7.2-1.6q-1.2 7.05-5.6 6.5-4.3-.5-5.1-7.6-.75-8.4 2.6-14 2.75-4.6 5.8 0 3.25 7.4 2.3 15.1" fill="#7b0e0f"/><path d="m3.65 19-.4-3.8-.1-1.5q0-4 .3-5.3.7-3 3.2-3 .8 0 1.1.25l.7 1.25q.85 10.95-1.3 13.2-2.05 2.05-3.4-.85l-.1-.25" fill="#df6c6c"/><path d="m8.45 6.9-.7-1.25q-.3-.25-1.1-.25-2.5 0-3.2 3-.3 1.3-.3 5.3l.1 1.5.4 3.8q-.65-1.55-1.1-4.2-1.05-7.85 1-11.4 1.95-4.5 4.8 2.7l.1.8" fill="#ffb08e"/></g><g id="t" fill-rule="evenodd"><path d="M3.5 18.55q-.85-.95-.7-4.35.4-6.05 5.5-11.6 1.95-2.15 2.5 1.9l.1 1.8-.65-1.05Q10 5 9.4 5q-.8 0-2.65 2.2-1.6 1.9-1.95 2.7-.9 2-1.25 3.75-.25 1.4-.25 3.6l.2 1.3" fill="#ffb08e"/><path d="m10.9 6.3-.1-1.8Q10.25.45 8.3 2.6 3.2 8.15 2.8 14.2q-.15 3.4.7 4.35l1.8-.05q5.6-4.7 5.6-12.2M3.8 21.7Q.55 21.35 0 15.2q.35-7.05 5.9-13 3.55-4.35 6.2 0 1.6 4.15-2.4 13.9-2.25 5.4-5.9 5.6" fill="#7b0e0f"/><path d="m3.5 18.55-.2-1.3q0-2.2.25-3.6Q3.9 11.9 4.8 9.9q.35-.8 1.95-2.7Q8.6 5 9.4 5q.6 0 .85.25l.65 1.05q0 7.5-5.6 12.2l-1.8.05" fill="#df6c6c"/></g><g id="i"><use ffdec:characterId="21" height="16.2" transform="translate(139.2)" width="11.2" xlink:href="#l"/><use ffdec:characterId="23" height="18.5" transform="translate(0 11.6)" width="17.9" xlink:href="#m"/></g><g id="u" fill-rule="evenodd"><path d="M1.5 8.9q1.2.45 2.2 1.55 1.05 1.25 1.5 2.85-.15-1.7 1-3.25 1.25-1.75 3-1.35v-.1Q7.4 7.35 6.7 6.15 6.1 5.2 5.15 2.5q-.4 2.45-1 3.6-.8 1.6-2.7 2.7H1.4l.1.1M5.1 0q2.05 5.95 6.1 8.5-4.65 2.85-5.9 7.7Q2.8 11.05 0 8.7 3.85 6.4 5.1 0" fill="#920968"/><path d="M1.45 8.8q1.9-1.1 2.7-2.7.6-1.15 1-3.6.95 2.7 1.55 3.65.7 1.2 2.5 2.45v.1q-1.75-.4-3 1.35-1.15 1.55-1 3.25-.45-1.6-1.5-2.85-1-1.1-2.2-1.55l-.05-.1" fill="#f16ed4"/></g><g id="v" fill-rule="evenodd"><path d="M11.05 11.4q1.55-2.5 3.65-2-4.6-1.2-6.7-6-.35 2.4-2 3.95-1.2 1.1-3.6 2.15 2.15.75 3.9 2.05 2.15 1.6 3.1 3.65 1-2.8 1.65-3.8M7.8 0q2.05 6.7 10.1 9.1-7.2 2.3-8.6 9.4Q5.25 11.2 0 9.7q5.25-1 7.8-9.7" fill="#920968"/><path d="M11.05 11.4q-.65 1-1.65 3.8-.95-2.05-3.1-3.65-1.75-1.3-3.9-2.05Q4.8 8.45 6 7.35 7.65 5.8 8 3.4q2.1 4.8 6.7 6-2.1-.5-3.65 2" fill="#f16ed4"/></g><g id="w" fill-rule="evenodd"><path d="m14.05 3.7-2.1-1.75q-4.75.85-9.3 2.9 5.45.6 11.5 5.95Q8.55 7.8 3 7.05q2.55 2.8 6.2 4.8l-1.8 8.6Q10.9 17 14.15 11l.05.05-.05.3q-1.05 6.1-5.65 9.4 4.5 1.5 11.1-1.3.85-1.45 1.1-2.9l.1-.6q.65-5.75-6.6-12.15l-.15-.1m2.1-2.3-.4.05-1.15.1q9.1 7.45 7.2 17.3Q31.5 11 28.6.65l-.1-.3q4.2 4.45.5 12.7-8.7 12.85-22.5 8.5-1.05-4.25 1.2-9.8Q3 10.15 0 5.05 6.55-.05 20.9 0q2.65.8 2 1.55-3.4-.35-6.75-.15" fill="#7b0e0f"/><path d="m14.05 3.7.15.1q7.25 6.4 6.6 12.15l-.1.6q-.75.7-2.85 1.6l-.5.25.25-2.1-.75-6.4-.05-.4L14 6.75l-2.3-1.9-1.35-1 .8-.05 2.9-.1m2.1-2.3q3.35-.2 6.75.15.65-.75-2-1.55l6.1.25q-.15 1.95-1.1 4.3-1.1 2.75-2.75 4.2l-.8-1.55q-2.05-3.3-6.2-5.8" fill="#df6c6c"/><path d="m14.15 11.35.05-.3v-.2l-.05-.05q-.55-1.85-2.7-3.9Q9.5 5.15 7.3 4.05l3.05-.2 1.35 1 2.3 1.9 2.8 2.75.05.4.75 6.4-.25 2.1q-2.6 1.05-4.3 1.05l-1.25-.2q1.05-.65 1.75-2.8.65-2 .65-3.9l-.05-1.2M28.5.35l.1.3q-.4.35-.2 1l.2.85q0 5.25-4.6 11.55.25-2.75-.8-5.25l-.05-.05q1.65-1.45 2.75-4.2.95-2.35 1.1-4.3l1.5.1" fill="#ffb08e"/><path d="M14.15 10.8Q8.1 5.45 2.65 4.85q4.55-2.05 9.3-2.9l2.1 1.75-2.9.1-.8.05-3.05.2q2.2 1.1 4.15 2.85 2.15 2.05 2.7 3.9m6.55 5.75q-.25 1.45-1.1 2.9-6.6 2.8-11.1 1.3 4.6-3.3 5.65-9.4l.05 1.2q0 1.9-.65 3.9-.7 2.15-1.75 2.8l1.25.2q1.7 0 4.3-1.05l.5-.25q2.1-.9 2.85-1.6M28.6.65q2.9 10.35-6.8 18.2Q23.7 9 14.6 1.55l1.15-.1.4-.05q4.15 2.5 6.2 5.8l.8 1.55.05.05q1.05 2.5.8 5.25 4.6-6.3 4.6-11.55l-.2-.85q-.2-.65.2-1" fill="#ffd9b7"/><path d="M14.15 11q-3.25 6-6.75 9.45l1.8-8.6q-3.65-2-6.2-4.8 5.55.75 11.15 3.75v.2" fill="#a44647"/></g><g id="x" fill-rule="evenodd"><path d="M6.8 3.3q-.35-.3-.55.4Q3.9 5.5 3.5 8.4q.9-.65 1.8-.95l2.7-.1Q7.3 5.4 7.45 2.9l-.65.4m7.95 13.8q-2.95 2.25-7.8.7-.85 5.2-3.5 6.8Q-5.2 8.3 7.95 0l6.8 17.1m-9.7-4-1 9.95q1.25-2.35 2.35-6.5 3.25 1 6.2.7-2.8-2.4-7.35-4.1L5.2 13l-.15.05v.05m-.1-.8q4.3 1.15 8.45 3.7-3.25-2.55-5.75-7.65-1.65.15-3.2 1.2-1 .6-1.95 1.55-1 3.1.75 11.15-.5-4.8.9-10.15l.8.2" fill="#7b0e0f"/><path d="m6.25 3.7.55-.4.65-.4Q7.3 5.4 8 7.35l-2.7.1.15-.85.2-1.05.6-1.85m-1.8 5.85Q6 8.5 7.65 8.35q2.5 5.1 5.75 7.65-4.15-2.55-8.45-3.7-.35-.9-.5-2.75" fill="#df6c6c"/><path d="M5.3 7.45q-.9.3-1.8.95.4-2.9 2.75-4.7l-.6 1.85-.2 1.05-.15.85m-.35 4.85-.8-.2q-1.4 5.35-.9 10.15Q1.5 14.2 2.5 11.1q.95-.95 1.95-1.55.15 1.85.5 2.75" fill="#ffb08e"/><path d="M5.25 13.15q4.55 1.7 7.35 4.1-2.95.3-6.2-.7-1.1 4.15-2.35 6.5l1-9.95.2.05" fill="#a44647"/></g><use ffdec:characterId="2" height="43.9" width="28.8" xlink:href="#n" id="b"/><use ffdec:characterId="4" height="94.35" width="86.05" xlink:href="#o" id="c"/><use ffdec:characterId="10" height="46" width="53.2" xlink:href="#p" id="d"/><use ffdec:characterId="12" height="23.1" width="26" xlink:href="#q" id="e"/><use ffdec:characterId="14" height="59.85" width="139.45" xlink:href="#r" id="f"/><use ffdec:characterId="16" height="23.95" width="11.05" xlink:href="#s" id="g"/><use ffdec:characterId="18" height="21.7" width="12.55" xlink:href="#t" id="h"/><use ffdec:characterId="20" height="16.2" width="11.2" xlink:href="#u" id="l"/><use ffdec:characterId="22" height="18.5" width="17.9" xlink:href="#v" id="m"/><use ffdec:characterId="25" height="22.65" width="30.75" xlink:href="#w" id="j"/><use ffdec:characterId="27" height="24.6" width="14.75" xlink:href="#x" id="k"/><path d="M27.75 0q0 2-8.15 3.4Q11.5 4.9 0 4.9q-11.5 0-19.65-1.5-8.1-1.4-8.1-3.4 0-2.05 8.1-3.5Q-11.5-4.9 0-4.9q11.5 0 19.6 1.4 8.15 1.45 8.15 3.5" fill-opacity=".349" fill-rule="evenodd" transform="translate(27.75 4.9)" id="a"/></defs></svg>