<svg xmlns:ffdec="https://www.free-decompiler.com/flash" xmlns:xlink="http://www.w3.org/1999/xlink" ffdec:objectType="frame" height="90" width="90" xmlns="http://www.w3.org/2000/svg"><use ffdec:characterId="20" height="216.7" transform="translate(0 3.893) scale(.3817)" width="233.35" xlink:href="#a"/><defs><g id="a" transform="translate(0 -10.2)"><use ffdec:characterId="1" height="7.9" transform="matrix(2.2126 0 0 4.1686 70.588 190.17)" width="44.9" xlink:href="#b"/><use ffdec:characterId="3" height="34.2" transform="translate(0 64.3) scale(2.3326)" width="40.5" xlink:href="#c"/><use ffdec:characterId="5" height="37.2" transform="translate(128.85 62.35) scale(2.3326)" width="44.8" xlink:href="#d"/><use ffdec:characterId="7" height="13" transform="translate(76.35 117.2) scale(2.3326)" width="7.55" xlink:href="#e"/><use ffdec:characterId="9" height="31.6" transform="translate(79.7 117.45) scale(2.3326)" width="29" xlink:href="#f"/><use ffdec:characterId="11" height="15.7" transform="translate(130.75 113.25) scale(2.3326)" width="13.9" xlink:href="#g"/><use ffdec:characterId="13" height="14.6" transform="translate(83.85 95.95) scale(2.3326)" width="24.95" xlink:href="#h"/><use ffdec:characterId="19" height="43.25" transform="translate(68.35 10.2) scale(2.3326)" width="44.6" xlink:href="#i"/></g><g id="j" fill-rule="evenodd"><path d="m36.5 29.1-.8 2.35q-.6 1.55-2.9 1.7-2 1.2-4.75 1-.95.05-.9-2.1-3.75 1.35-5.3.45-.8-.8.8-2.65-9.25.5-9.5-1.75.6-1.6 3.2-2.9-7.55-.6-8.05-3.7.15-.8 1.4-1-5.95-2.2-6.5-5.15.45-1 2.9-.4Q-.35 9.3.65 9.05q.55-.45 1.85-.4-2.1-2-2.5-4 3.45-.85 8.4.9Q4.85.95 5.6 0q4.85.8 15 7.6-.3-2.6.2-5.5Q27 12.4 40.5 17.25l-.55 1.65-3.45-1.3-1.3-.9Q24.8 10.35 21.75 5.55q-.15 1.8.3 3.55l.5 1.4Q20.6 8.55 16.3 6.1l-.1-.1-6.1-3.2-.15-.05-1.1-.55-1.65-.75q.6 2.3 5.25 6.7v.05l-2.9-1.3q-2.75-.95-6.1-1.3l-.25-.05-1-.05-.8-.05Q3.9 9.1 5.95 9.7q1.65.1 2.55.75l.45.35-2.5-.65L3 9.85h-.05L1.9 9.9q2.65 3 8.45 5.85l-2.7-.25-2.55.15-.3.05-.6.05Q7.85 20 14.5 20.2q-1.1.55-2.65.9l-.35.1-.8.15-1.3.2q.5 2.2 11.8 2.85-1.4.4-2.55.9l-.2.1q-1.15.5-2 1.1l-1.15.95-.05.1-.45.45 9.1.25 3.15-.6q-2.65 1.2-3.7 3.25l-.3.55q1.8.55 5.5-1.05l.3.35q-1.4 2.15 1.3 2.15 1.1.15 2.35-.8l.15-.1q2.75-.6 3.85-2.9M21.6 12.55l1.3-.15.85.35-1.4-.15q-1.2.05-.3 1.1 1.25 1.45 5.1 2.3l-.2.2q-4.4-.9-5.55-2.8-.05-.6.2-.85m3.9 3.9.4-.05q-.2.65-.05.95.8 2.05 3.55 3l3.1.2-.2.15-2.6.25-.45-.05q-4.2-1.85-3.75-4.45m5.75 4.7h.3l.1.35v.05q1.05 1.4 4.3 1.45-3.15.9-4.6-1.1-.2-.4-.1-.75" fill="#a78ab9"/><path d="M36.5 29.1q-1.1 2.3-3.85 2.9l-.15.1q-1.25.95-2.35.8-2.7 0-1.3-2.15l-.3-.35q-3.7 1.6-5.5 1.05l.3-.55 3.7-1.6 1.05-2.2-1.05.55-3.15.6-9.1-.25.45-.45.05-.1 6.95-.3 1.25-.25 5.55-1.6 1.25-2 1.05-1.4q1.45 2 4.6 1.1-3.25-.05-4.3-1.45v-.05l-.1-.35h-.3l-1.55-.2 2.6-.25.2-.15 1.45-1.4q1.25-1 2.55-1.55l3.45 1.3-3.45 10.2m-17.85-3.8q1.15-.5 2.55-.9-11.3-.65-11.8-2.85l1.3-.2q.35 1 11.45 2.2h.35q2.3-.05 2.8-.5-1.05.95-2.45 1.5l-.05.05q-1.8.7-4.15.7m-6.8-4.2q1.55-.35 2.65-.9-6.65-.2-10.3-4.45l.6-.05.3-.05q.7 1.15 4.75 2.8 7.15 2.1 9.5 1.85-3.2 1.3-7.5.8m-4.2-5.6 2.7.25Q4.55 12.9 1.9 9.9l1.05-.05.05.05q1.15 1.75 3.6 3.1l.55.3.95.55q5.1 2.75 7.25 2.85H12.3l-1.45-.1h-.1q-1.95-.3-3.1-1.1m.85-5.05q-.9-.65-2.55-.75Q3.9 9.1 1.4 5.45l.8.05q3.75 3.1 7.2 4.95h-.9m3.95-2.3Q7.8 3.75 7.2 1.45l1.65.75q3.45 5.1 5.5 6.85l-1.8-.8-.1-.1" fill="#c9afd1"/><path d="M23.35 30.9q1.05-2.05 3.7-3.25l1.05-.55-1.05 2.2-3.7 1.6m-8.05-3.45 1.15-.95q2.4 1.2 6.9-.15l1.1-.35L27 24.4l-4.15.15q1.4-.55 2.45-1.5-.5.45-2.8.5h-.35q-11.1-1.2-11.45-2.2l.8-.15.35-.1q4.3.5 7.5-.8-2.35.25-9.5-1.85-4.05-1.65-4.75-2.8l2.55-.15q1.15.8 3.1 1.1l-3.3-.3q3.5 3.6 12.55 2.45-5-1.6-9.15-2.15l1.45.1h3.05q-2.15-.1-7.25-2.85 3.45 1.75 8.25 2l1.65.05-11.55-5.75 2.5.65-.45-.35h.9Q5.95 8.6 2.2 5.5l1 .05.25.05q4.55 5.05 14 7.65L9.55 6.9l2.9 1.3.15.1-.05-.05 1.8.8Q12.3 7.3 8.85 2.2l1.1.55.15.05q2.55 5.45 8.85 8.85l.95.5-3.6-6.05q4.3 2.45 6.25 4.4l-.5-1.4q3.7 5.75 7.6 5.85-1.25-.6-1.5-1.55 5 3.2 7.05 3.3l1.3.9q-1.3.55-2.55 1.55-5.6.65-7.55-2.45l3.8-.25q-2.05-1.15-5.05-2-2.35-.85-2.8-1.85l1.4.15-.85-.35-1.3.15q-1 .2 0 1.8 1.2 1.55 3.9 2.1-.45 2.6 3.75 4.45l.45.05 1.55.2q-.1.35.1.75l-1.05 1.4-1.25 2-5.55 1.6-1.25.25-6.95.3m2.05-15.6Q17 13 19.6 13.9l.75.2-1.05-1.25q-1.45-1.55-1.95-1m1.85 5.55q.65.9 1.8 1.05l.25.05 1.7-.2q-1.4-1.15-2.4-1.35-.85-.15-1.45.35l.1.1m2.2-1.4-1.5-1.25q-1.45-.9-2.7-.4 1.15 1.45 3.05 1.65h1.15m2.45 3.9.6-.2-1.45-.25q-.4 0-.6.25l1.45.2m-2.15 1.05q-2.45 0-5.85 1.2l6.35.4q1.5-.25 2.65-.95-1.3-.65-3.15-.65m7.95.9-1.8.15q-.95.35-1.6 1.35 1.5.55 2.75-.7l.65-.8" fill="#f5dcf8"/><path d="M16.45 26.5q.85-.6 2-1.1l.2-.1q2.35 0 4.15-.7l.05-.05L27 24.4 24.45 26l-1.1.35q-4.5 1.35-6.9.15M3 9.85l3.45.3L18 15.9l-1.65-.05q-4.8-.25-8.25-2l-.95-.55-.55-.3Q4.15 11.65 3 9.9v-.05m.45-4.25q3.35.35 6.1 1.3l7.9 6.35Q8 10.65 3.45 5.6m6.65-2.8L16.2 6l.1.1 3.6 6.05-.95-.5q-6.3-3.4-8.85-8.85m11.95 6.3q-.45-1.75-.3-3.55 3.05 4.8 13.45 11.15-2.05-.1-7.05-3.3.25.95 1.5 1.55-3.9-.1-7.6-5.85m-4.7 2.75q.5-.55 1.95 1l1.05 1.25-.75-.2q-2.6-.9-2.25-2.05m5 .75q.45 1 2.8 1.85 3 .85 5.05 2l-3.8.25q1.95 3.1 7.55 2.45l-1.45 1.4-3.1-.2q-2.75-.95-3.55-3-.15-.3.05-.95l-.4.05q-2.7-.55-3.9-2.1-1-1.6 0-1.8-.25.25-.2.85 1.15 1.9 5.55 2.8l.2-.2q-3.85-.85-5.1-2.3-.9-1.05.3-1.1M21.4 16h-1.15q-1.9-.2-3.05-1.65 1.25-.5 2.7.4L21.4 16m-2.2 1.4-.1-.1q.6-.5 1.45-.35 1 .2 2.4 1.35l-1.7.2-.25-.05q-1.15-.15-1.8-1.05m4.65 2.5-1.45-.2q.2-.25.6-.25l1.45.25-.6.2m-2.15 1.05q1.85 0 3.15.65-1.15.7-2.65.95l-6.35-.4q3.4-1.2 5.85-1.2m7.95.9-.65.8q-1.25 1.25-2.75.7.65-1 1.6-1.35l1.8-.15m-18.8-5.25q4.15.55 9.15 2.15-9.05 1.15-12.55-2.45l3.3.3h.1" fill="#fff"/></g><g id="k" fill-rule="evenodd"><path d="M20.75 5.35V5.1l-.05.1q-5.6 6.75-13.75 11.35l-.45.2-1.5.85-4.05 1.6 1.15-.9Q17.15 8.7 20.8 3.75l.85-.6q.55 1.3.1 4.2Q30.6 1.8 38.45 0q-1 3.35-3.5 5.75 4.8-1.05 8.45-.9l1-.1q.85-.15-.05 1.4L41.6 9.6q1.85 0 2.25.35-.35 2.2-5.65 5.45 2.65.15 3.8.85l-1.65 2.6q-3.65 2.25-6.35 3l2.55.5q-1.2 3.2-6.45 4.1l-3.3.3q3.3 2.65 3.95 3.75-3.15 2.25-10.8.95 1.2 1.1 1.75 3.35-5.4.75-9.95-2.45Q9.6 37.4 7.1 37.2q-1.1-.1-1.55-2l-.05-.25q1.35 1.65 2.65 1.3 1.3-.6 3.65-4.2 5.75 1.75 7.7 1.75l.6-.1q-.25-1.05-2.25-2.95-.2-.7-2.25-1.25l1.65.15 2.55.6q8.3.95 9-.75l-1.6-1.25q-2.4-1.7-5.5-2.55h.8l7.2-.35q4.25-.65 5.2-2.3l-2.15-.6-.15-.05-3.45-.55 1.5-.3q6.35-1.4 9.5-4.65l-.65-.15h-.15l-4.25-.3-1.25.1v-.05q6.7-2.9 8.35-5.85l-1.15-.1H39.9l-4.7.55h-.05q5.15-1.35 8-5l-1.05-.05q-3.6-.15-7.1.8-2.1.5-4.2 1.45 3.55-2.85 5.8-6.75l-1.25.5Q28.9 4.45 25 6.6q-3.55 1.95-4.95 3.7.75-2.35.7-4.95m-6.25 14.5-.15.05q-1.1.15.1-.6l3.6-2.3q.3-.45-.15-.65l-1-.6 1.2.05q1.25-1.25 3.05-2.55l-.05-.55q-.1-1.05-.9-1.5 1.15.25 1.4 1.3.2.8-1.15 1.75l-2.2 1.6q.6.35.4 1.2-1 1.1-4.15 2.8m.05 1.4q-.45 1.45-4.15 2.25l-2.25-.1-.1-.05q-1.65-.4-.4-.5l3.85-.15q3.7-.95 2-2.55l-.05-.15q1.25.5 1.1 1.25" fill="#a78ab9"/><path d="m35.35 2.05 1.25-.5q-2.25 3.9-5.8 6.75l-2.45 1.15L32 5.65l1.8-2.1 1.55-1.5m6.75 4 1.05.05q-2.85 3.65-8 5l-.5.15.55-.15 4.7-.55q-.7 4.15-13.5 4.4l8.25-3.7-2.3.05q2.7-.85 4.85-2.3l1.1-.7 3.8-2.25m-1.05 4.5 1.15.1q-1.65 2.95-8.35 5.85l-.15.1h-.1.15l1.4-.05-4.9.8q6.5-2.75 10.8-6.8m-1.7 6.2h.15l.65.15q-3.15 3.25-9.5 4.65l-2.35-.05q6.15-1.75 11.05-4.75M32.6 22.4l.15.05 2.15.6q-.95 1.65-5.2 2.3l-7.2.35-1.9-.65q3.1-.05 6.85-1.25l5.15-1.4m-5.4 5.85 1.6 1.25q-.7 1.7-9 .75l-2.55-.6q-2.65-.7-3.55-1.65l7.15.2 6.35.05m-7.7 5.55q-1.95 0-7.7-1.75-2.35 3.6-3.65 4.2-1.3.35-2.65-1.3Q-2.3 22.85.95 19.2L5 17.6q2.3 1.95 4.2 4.35 1.85-.3 3.75-1.1.65-.35.55-.7 1.7 1.6-2 2.55l-3.85.15q-1.25.1.4.5l.1.05 2.25.1h-.05q2 2.95 3.35 6.55l5.8 3.75m-2.6-18.05q-.3-.5 1.15-.7 4.6-2.9 1.25-3.6.3-.9 1.65-.8 1.6 1 1.3 2.25-.3 1.75-3.25 2.6 1.2 1.95-3.05 3.85l-1.45.5q3.15-1.7 4.15-2.8.2-.85-.4-1.2l2.2-1.6q1.35-.95 1.15-1.75-.25-1.05-1.4-1.3.8.45.9 1.5l.05.55q-1.8 1.3-3.05 2.55l-1.2-.05m-2.55 4.15q.4.75.2 1.35.15-.75-1.1-1.25l-.25-.25q2.1-1.8 4.7-3.4.45.2.15.65l-3.6 2.3q-1.2.75-.1.6" fill="#c9afd1"/><path d="M20.75 5.35q.05 2.6-.7 4.95 1.4-1.75 4.95-3.7L22.25 9l1-.3Q28.2 7 33.8 3.55L32 5.65l-3.65 3.8L30.8 8.3q2.1-.95 4.2-1.45l-6.55 4L38.3 8.3l-1.1.7q-2.15 1.45-4.85 2.3l2.3-.05-8.25 3.7q12.8-.25 13.5-4.4h1.15q-4.3 4.05-10.8 6.8l4.9-.8-.05-.1 4.25.3q-4.9 3-11.05 4.75l2.35.05-1.5.3 3.45.55-5.15 1.4Q23.7 25 20.6 25.05l1.9.65h-.8q3.1.85 5.5 2.55l-6.35-.05-7.15-.2q.9.95 3.55 1.65l-1.65-.15q2.05.55 2.25 1.25 2 1.9 2.25 2.95l-.6.1-5.8-3.75q-1.35-3.6-3.35-6.55h.05q3.7-.8 4.15-2.25.2-.6-.2-1.35l.15-.05 1.45-.5q4.25-1.9 3.05-3.85 2.95-.85 3.25-2.6.3-1.25-1.3-2.25-1.35-.1-1.65.8 3.35.7-1.25 3.6-1.45.2-1.15.7l1 .6q-2.6 1.6-4.7 3.4l.25.25.05.15q.1.35-.55.7-1.9.8-3.75 1.1-1.9-2.4-4.2-4.35l1.5-.85.45-.2q3.05-.2 4.95-1l1.35-.5-1.25 1.4q6.75-4.45 8.75-11.1m3.5 5.95q1.95.15 3.55-2.5l-2.6.55q-.9.25-1.4.75-.45.4-.6.9l.95.25.1.05m10.9 6.3-3.6-.05q-2.5-.1-4.6.65-1.9.65-3.5 1.95 2.3.8 4.5.65 3.8-.2 7.2-3.2m-10.2-1-3.8.15q-.65.1-.85.35l.5.35.7.1 1.5.05q1.3-.3 1.95-1m0-3.7h-.05q-1.95.2-2.65 1.9 1.75.55 3.15-.55l1.45-1.65-1.9.3m-3.8 9.4q-.35.25-1.95-.55-.3-.2-.6-.25l-2.5.15q.4 1.4 1.45 1.8 1.35.45 3.8-.9l6 .2q-3.05-1.25-6.2-.45m-.25-2.5-1.15-.45-2.35.05q.85.8 1.7 1.1 1.55.6 3-.45l-1.2-.25m-4.05 4.9-2.65-.05q.8 1.1 1.75 1.7 2.1 1.4 4.95.4-1.95-1.7-4.05-2.05" fill="#f5dcf8"/><path d="M20.75 5.2v.15q-2 6.65-8.75 11.1l1.25-1.4-1.35.5q-1.9.8-4.95 1Q15.1 11.95 20.7 5.2h.05M25 6.6q3.9-2.15 10.35-4.55l-1.55 1.5Q28.2 7 23.25 8.7l-1 .3L25 6.6m10 .25q3.5-.95 7.1-.8L38.3 8.3l-9.85 2.55 6.55-4M24.25 11.3l-.1-.05-.95-.25q.15-.5.6-.9.5-.5 1.4-.75l2.6-.55q-1.6 2.65-3.55 2.5m10.9 6.3q-3.4 3-7.2 3.2-2.2.15-4.5-.65 1.6-1.3 3.5-1.95 2.1-.75 4.6-.65l3.6.05m-10.2-1q-.65.7-1.95 1l-1.5-.05-.7-.1-.5-.35q.2-.25.85-.35l3.8-.15m0-3.7 1.9-.3-1.45 1.65q-1.4 1.1-3.15.55.7-1.7 2.65-1.9h.05m-4.05 6.9 1.2.25q-1.45 1.05-3 .45-.85-.3-1.7-1.1l2.35-.05 1.15.45m.25 2.5q3.15-.8 6.2.45l-6-.2q-2.45 1.35-3.8.9-1.05-.4-1.45-1.8l2.5-.15q.3.05.6.25 1.6.8 1.95.55m-4.3 2.4q2.1.35 4.05 2.05-2.85 1-4.95-.4-.95-.6-1.75-1.7l2.65.05" fill="#fff"/></g><g id="l" fill-rule="evenodd"><path d="M5.5 7.65q.7.2.85.35l.1.95q0 1.25-.4 2.4Q5.45 13 4.25 13l-.75-.1v-.05h-.05q-1.7.15-3.3-2.3Q-.4 8.8 1.3 6.8l.75-.2Q.9 9.05 1.2 10.15l.2.35q.4.65 1.1.95l1.2.25q-.75-.75-.5-1.6h.15l.15.15.1.5q.15.7 1.05.9L5 11.3q.85-2.45.5-3.65" fill="#6f86b1"/><path d="m1.4 10.5-.2-.35q-.3-1.1.85-3.55l2.65.05Q3 7.2 2.45 8q-.6.75-1.05 2.5" fill="#fff"/><path d="M5.5 7.65q.35 1.2-.5 3.65l-.35.35q-.9-.2-1.05-.9l-.1-.5-.15-.15-.15-.1q-.6-.4-.7 1.45-.7-.3-1.1-.95.45-1.75 1.05-2.5Q3 7.2 4.7 6.65q.55.3.8 1" fill="#aff2ff"/><path d="M3.2 10.1q-.25.85.5 1.6l-1.2-.25q.1-1.85.7-1.45v.1" fill="#91bcdb"/><path d="m3.1 2.3-.45.55-1.3 1.4.85 1.4L3.9 7l1.1.4.8-3.65Q4.6 3.1 3.65 1.5l-.55.8m-.75 4.65-.1-.05-1.7-2.15V3.8L3.2.75q2.85-1.85 4.3 1Q7.75 4.9 6.9 8L5 7.75l-.3.05-.9-.05q-.7-.2-1.3-.7l-.15-.1" fill="#6c3435"/><path d="M2.65 2.85q-.15.9-.7 1.8.45.75.25 1l-.85-1.4 1.3-1.4" fill="#fff6ac"/><path d="m2.65 2.85.45-.55q1.15 1 1.2 1.8l-.05 1-.85.95q.55.55.5.95L2.2 5.65q.2-.25-.25-1 .55-.9.7-1.8" fill="#ed7676"/><path d="M3.9 7q.05-.4-.5-.95l.85-.95.05-1q-.05-.8-1.2-1.8l.55-.8Q4.6 3.1 5.8 3.75L5 7.4 3.9 7" fill="#af5454"/><path d="m6.85 8.35-.05.4-4.05-.1q-.5-.95-1.6-2.15-.5-.9-.6-1.75l1.7 2.15.1.05q-.4.1.45 1.1l.7.5.9.3q1.1.2 2.45-.5" fill="#813112"/><path d="m3.5 8.55-.7-.5q-.85-1-.45-1.1l.15.1q.6.5 1.3.7l-.3.8" fill="#f9fe44"/><path d="m4.4 8.85-.9-.3.3-.8.9.05-.3 1.05" fill="#d26203"/><path d="M6.85 8.35q-1.35.7-2.45.5l.3-1.05.3-.05L6.9 8l-.05.35" fill="#fdbd01"/></g><g id="m" fill-rule="evenodd"><path d="m22.75 4.2 1.05-.15 4.95 13.45-.95.95L24 7.75l-.1-.2-1.15-3.35M.8 16.05 4.1 6.7l.95-.15v.1L1.6 17.35l-.15.55H1.4q-.35-.35-.6-1.85" fill="#1f317b"/><path d="m16.9 5 .25-.05 1.55 6.55.1.35.1.5 2.55 10.25.35-.1 1.05-.5 2.4-1.5v-.05l.75-.5.05-.05.8-.6.75-.65.1-.05.1-.1v-.05l.95-.95q.6 1.9-.25 3.05-1.95 2.2-6.1 3.9-11.15 7.45-12.05 7.15-4.3-2.75-7.7-5.95l.55-2.9Q.4 21.05 0 18.3l.8-2.25q.25 1.5.6 1.85-.65 1.65 1.25 3.25l.65.4q.4.4.7.2l-1.15-.85q-1.3-1.25-1.25-2.6.55 1.2 1.2 2 .65.8 1.35 1.2l.9-5.05.8-4.5.5-5.55.25-.05q-.45 7.9-1.4 12.3L4 25.5l6.4 4.95.15.1 4.25-2.4 6.6-3.75-2.75-12.1L16.9 5M7.55 6.2h.3L6.3 16l-.35 2.05-.35 1.9-.05.25-.4 2.15Q4.8 24.8 5 24.95l5.45 4 .4-.05 3.45-1.6 2.3-1.25 2.25-1.4 1.4-1-1.1-4.65-.25-1.25-.6-2.6L16.95 8l1.15 4.5 2.75 11.35-3.1 1.95-2.9 1.9q-2.15 1.2-4.25 1.75-3.75-2.05-5.85-4.35-.3-.5 0-2.1l2.8-16.8m17.1 16.05 2.45-1.7q1.25-1.35.85-1.85l-3.3 2.75q-1.35.8-3.05 1.45l.05.65 3-1.3" fill="#813112"/><path d="m17.15 4.95 5.6-.75 1.15 3.35-2.15 1.75q3.6 2.15 5.1 10l-.8.6-.05.05-.75.5q.4-6.85-4.55-10.4l-2 1.45-1.55-6.55" fill="#144fb3"/><path d="M22.85 22q.45-4.05-1.05-7.35-1.45-2.2-3-2.8l-.1-.35 2-1.45q4.95 3.55 4.55 10.4v.05l-2.4 1.5m-21.3-3.8q3.25-2.3 4.3-6.25l-.8 4.5Q3.9 19.4 2.8 20.3q-.65-.8-1.2-2l-.05-.1" fill="#59a6f5"/><path d="M26.85 19.3q-1.5-7.85-5.1-10l2.15-1.75.1.2q-.65.85 3.7 10.8l-.1.1-.75.65m-21.8-2.85-.9 5.05q-.7-.4-1.35-1.2 1.1-.9 2.25-3.85" fill="#347ccd"/><path d="m27.8 18.45-.1.1Q23.35 8.6 24 7.75l3.8 10.7" fill="#b0ecfb"/><path d="m5.05 6.65.05-.1 1.25-.15-.5 5.55Q4.8 15.9 1.55 18.2l-.05-.1-.05-.2.15-.55q2.85-2.25 4-7.05.35-2.75-.55-3.65m13.85 5.7-.1-.5q1.55.6 3 2.8 1.5 3.3 1.05 7.35l-1.05.5q.6-2.25 0-5.2-1.05-.1-1.2-.8.1-.7.7-.95-.9-2.4-2.4-3.2" fill="#fff"/><path d="M18.9 12.35q1.5.8 2.4 3.2-.6.25-.7.95.15.7 1.2.8.6 2.95 0 5.2l-.35.1-2.55-10.25M5.05 6.65q.9.9.55 3.65-1.15 4.8-4 7.05l3.45-10.7" fill="#28e0ff"/><path d="m1.5 18.1.05.1.05.1q-.05 1.35 1.25 2.6.2.2-.2.25-1.9-1.6-1.25-3.25l.1.2m23.15 3.35v.8l-3 1.3-.05-.65q1.7-.65 3.05-1.45" fill="#fdbd01"/><path d="m16.2 5.1.7-.1 1.75 7.3q-.25-.15-.55.2L16.95 8l-.75-2.9m-1.4 23.05-4.25 2.4-.15-.1.2-1q2.1-.55 4.25-1.75l-.05.45m9.85-6.7 3.3-2.75q.4.5-.85 1.85l-2.45 1.7v-.8" fill="#d26203"/><path d="m6.6 6.35.95-.15L4.75 23q-.3 1.6 0 2.1 2.1 2.3 5.85 4.35l-.2 1L4 25.5l1.2-6.85q.95-4.4 1.4-12.3m12.05 5.95 2.75 12.1-6.6 3.75.05-.45 2.9-1.9 3.1-1.95L18.1 12.5q.3-.35.55-.2" fill="#faff44"/><path d="m7.85 6.2 8.35-1.1.75 2.9 1.35 7.15q-3.75 2.5-8.15 1.75 3.25 1.65 8.75.85l.25 1.25Q11.6 20.8 6.3 16l1.55-9.8" fill="#9f62e6"/><path d="m18.3 15.15.6 2.6q-5.5.8-8.75-.85 4.4.75 8.15-1.75m.85 3.85 1.1 4.65-1.4 1q-6.3-1.35-12.9-6.6L6.3 16q5.3 4.8 12.85 3m-2.55 7.05-2.3 1.25q-4.7-2.85-8.75-7.1l.05-.25q4.3 4.35 11 6.1" fill="#d2a9ff"/><path d="m18.85 24.65-2.25 1.4q-6.7-1.75-11-6.1l.35-1.9q6.6 5.25 12.9 6.6M14.3 27.3l-3.45 1.6-.4.05-5.45-4q-.2-.15.15-2.6l.4-2.15q4.05 4.25 8.75 7.1" fill="#eed9ff"/><path d="m2.85 20.9 1.15.85q-.3.2-.7-.2l-.65-.4q.4-.05.2-.25" fill="#cc5e04"/><path d="m16.3 10 1.15-.65 2.65-1.5q2.8-1.6 4.1-4.6l.2.5v.05q-.75 2.9-3 4.45-8.5 5.95-11.25 5.2l.15-.15.1-.1q.3-.2.95-.3l3.35-1.2 4.2-2.35q2.3-.95 3.9-3.05l.65-.85q-2.95 3-5.8 4.25l-2.85 1.35-3.45 1.35-.55.05-.75-.15q-2.5-1.05-3.7-2.4L4.8 7.7q-.25-.5-.75.2 2.3 2.8 5.25 4.8l.75.7q-3.1-1.2-5.2-4.15l.1.65Q4.2 9 3.75 7.75l.8-.55.2.15.1.1.85 1.1q2.25 2.8 4.95 3.65 2.6-.7 5.6-2.2h.05" fill="#813112"/><path d="m15.1 5.15-1.4.25-.3.05-1.3.05-.85-.05-.45-.1q.55-2.3-.65-4.55Q15.25-.75 23.1.75l.5 1.05q-2.4 1.5-5.65 2.5.2 2.75-.5 5.05L16.3 10l-.05-.05q.8-2.5.65-5.3l-1.8.5" fill="#144fb3"/><path d="m13.7 5.4 1.4-.25-.1 1.2q1.15.25.85 1.35-.35.9-1.4.6-.75 2.15-3.2 3.55Q12.8 9.7 13.4 7.5l.3-2.1M10.15.8q1.2 2.25.65 4.55.35 2.95-1.3 5.45L5.7 8.55l-.85-1.1-.05-.15.45-3.9q2-1.8 4.9-2.6m1.1 4.65.85.05q-.25 3.6-2.05 5.65l-.15-.2q1.8-3 1.35-5.5" fill="#28e0ff"/><path d="m10.8 5.35.45.1q.45 2.5-1.35 5.5l.15.2q1.8-2.05 2.05-5.65l1.3-.05V7.5q-.6 2.2-2.15 4.35l-.6.35q-2.7-.85-4.95-3.65l3.8 2.25q1.65-2.5 1.3-5.45" fill="#fff"/><path d="m15.1 5.15 1.8-.5q.15 2.8-.65 5.3V10q-3 1.5-5.6 2.2l.6-.35q2.45-1.4 3.2-3.55 1.05.3 1.4-.6.3-1.1-.85-1.35l.1-1.2m-1.7.3.3-.05-.3 2.1V5.45" fill="#59a6f5"/><path d="M17.45 9.35q.7-2.3.5-5.05 3.25-1 5.65-2.5l.6 1.45q-1.3 3-4.1 4.6l-2.65 1.5" fill="#347ccd"/><path d="m14.7 11.7.1-.65 2.85-1.35q2.85-1.25 5.8-4.25l-.65.85q-1.6 2.1-3.9 3.05l-4.2 2.35" fill="#fdbd01"/><path d="m14.8 11.05-.1.65-3.35 1.2q-.65.1-.95.3l.4-.75.55-.05 3.45-1.35" fill="#d16103"/><path d="m10.8 12.45-.4.75-.1.1-.15.15h-.05l-.05-.05-.75-.7q-2.95-2-5.25-4.8.5-.7.75-.2l1.55 2.2q1.2 1.35 3.7 2.4l.75.15" fill="#faff44"/><path d="M4.55 7.2q.25-2.4.7-3.8L4.8 7.3l-.05.05-.2-.15" fill="#1f317b"/></g><g id="n" fill-rule="evenodd"><path d="M7.65 8.05q1.2-.45 3.2 0 1.05.7 1.95 2.45.5-.15 1.1 1.4-.5 2.25-2.75 3.4l-1.6.05q-1.75 1.1-2.8-1.15L5.1 13.1l.5-1.9q.05-1.2.55-1.95l.25.55q.15 1.45-.45 3l.75.45-.05-.9.2-.1q.8-.45 1.5.2 0 .25-.5.2l-.75-.25-.05.8.35.45.25.1v.05l-.2.1q.05.55.9.65h.55l1.35-.85-.2.65.5-.05q1.85-.4 2.25-2.65l-.5-.3q-.35-.25-.55-.85-.95-1.8-2.55-2.1l-.05-.05-1.5-.3" fill="#6f86b1"/><path d="m7.65 13.75-.25-.1-.35-.45.05-.8.75.25-.2 1.1m-.8-1.5-.2.1.05.9-.75-.45q.6-1.55.45-3 .8.85.45 2.45" fill="#fff"/><path d="M6.15 9.25q.45-.8 1.35-1.15l1 .5q1.5.65 2.2 2.4l-.1 1.75h-.2l-.25-.5q0 1-1.8 2.3-.85-.1-.9-.65l.2-.1v-.05l.2-1.1q.5.05.5-.2-.7-.65-1.5-.2.35-1.6-.45-2.45l-.25-.55" fill="#aff2ff"/><path d="m7.5 8.1.15-.05 1.5.3.05.05q1.6.3 2.55 2.1.2.6.55.85-.55 2.35-1.75 2.95l-.5.05.2-.65-1.35.85h-.55q1.8-1.3 1.8-2.3l.25.5h.2l.1-1.75Q10 9.25 8.5 8.6l-1-.5" fill="#91bcdb"/><path d="m12.3 11.35.5.3q-.4 2.25-2.25 2.65 1.2-.6 1.75-2.95" fill="#ace6f8"/><path d="m2.65.1 2.1-.05q3.15 1.6 5.2 3.85.3 1.7-.35 2.7l-.05.05-.5-.1q-.1-.9.2-1.9-.7-1.7-4.55-3.55L2.65.1M5 10.75l-1.4-.05Q1 10.4.1 3.85L0 2.65l.8 2.9.25.7Q1.9 8.9 2.7 9.3l2.1.2q.4.85.2 1.25" fill="#6c3435"/><path d="M0 2.65Q.15.45 2.65.1l2.05 1 3.95 3.25Q8.8 6.2 9 6.55l-2.35.15 1.4-1.25q-.95-2.1-3.35-3.1L.8 5.55 0 2.65" fill="#873d3e"/><path d="M4.7 1.1q3.85 1.85 4.55 3.55-.3 1-.2 1.9H9q-.2-.35-.35-2.2L4.7 1.1" fill="#b0ecfb"/><path d="m.8 5.55 3.9-3.2q2.4 1 3.35 3.1L6.65 6.7l-.1.05q-.15-1.3-.9-1.8.45-1.1-.55-1.4-.75-.05-1 .75-2.1 0-3.05 1.95l-.25-.7" fill="#af5454"/><path d="M6.55 6.75H6.5Q4.85 8.5 5 9.5h-.2l-2.1-.2q-.8-.4-1.65-3.05Q2 4.3 4.1 4.3q.25-.8 1-.75 1 .3.55 1.4.75.5.9 1.8m-3.95-.7q-.35.35-.35.9t.35.95q.35.4.85.4t.8-.4q.4-.4.4-.95 0-.55-.4-.9-.3-.4-.8-.4t-.85.4" fill="#ed7676"/><path d="M2.6 6.05q.35-.4.85-.4t.8.4q.4.35.4.9t-.4.95q-.3.4-.8.4t-.85-.4q-.35-.4-.35-.95 0-.55.35-.9" fill="#fff6ac"/><path d="m9.55 6.65-.05.05L10.85 8q-3 .2-4.4 2.5-.6.25-.8.55l-.2-.3H5q.2-.4-.2-1.25H5q-.15-1 1.5-2.75h.05l.1-.05L9 6.55h.05l.5.1m-1.25.5-1 .45q-1.2.8-1.65 2.3.7.7.8 0 .6-.95 1.35-1.45.45-.3.95-.45l.6-.1-.5-.8q-.3-.3-.75-.35l-.8.15-.25.15q-1.55.85-1.8 2.7.75-1.8 1.9-2.4.5-.3 1.05-.35l.15.1-.05.05" fill="#813112"/><path d="M7.15 7.35q-1.15.6-1.9 2.4.25-1.85 1.8-2.7l.1.3m.65 1.1q-.75.5-1.35 1.45-.1.7-.8 0Q6.1 8.4 7.3 7.6q.55.35.5.85" fill="#faff44"/><path d="m7.3 7.6 1-.45q.4.35.45.85-.5.15-.95.45.05-.5-.5-.85m1.05-.5L8.2 7q-.55.05-1.05.35l-.1-.3.25-.15.8-.15q.45.05.75.35l-.45.05-.05-.05" fill="#d26203"/><path d="m8.85 7.1.5.8-.6.1q-.05-.5-.45-.85h.1l.45-.05" fill="#fdbd01"/></g><g id="o" fill-rule="evenodd"><path d="m21.85.2 1.4.3h.05q.85.55.15 2.15-.55 1.05 0 2.1l.75 1.5q-.5.25-.95.6Q23 5.45 22 4.25q0-2.15.55-2.95l-.8-.6.1-.5M.35 8.1l.45-.8Q.2 6.75.3 6q.55-.95.1-2.05l1.4-.3-.1 1-.15 1.65q1.05 1.75.1 2.35l-.7.25-.6-.8" fill="#7a4fae"/><path d="m1.8 3.65 5.6-1.1q-.3 1.7 1.1 3.95l.45.35q-3.1.1-5.2-.8l-1.3-.7-.75-.7.1-1M21.5 1.3l.15.3q-.2 2.25.1 3.65.3 1.4 1.15 1.95l-.4.35q-2.75 2.95-6.4 3.5-1-1.9-2.55-3.7-.65-.55-.5-.8 2.35.05 5.6-2.25 2-1.4 2.85-3M18.45 5q-1.75 1.25-3.8 2.15 1.55 1.55 2.5 3.1l2.35-1.6q-1-.8-1.05-3.65" fill="#9f62e6"/><path d="m21.85.2-.1.5-.05.1-.2.5q-.85 1.6-2.85 3-3.25 2.3-5.6 2.25-.15.25.5.8 1.55 1.8 2.55 3.7 3.65-.55 6.4-3.5l.4-.35.35-.35q.45-.35.95-.6l.75 1.1-.85.6q-4.55 4.85-10.2 4.95-3.8 2.3-4.95 1.5l-.1-.1Q1.65 12.55 0 9.75-.05 9 .35 8.1l.6.8-.05.35v.05q.15.95 1.15 1.6l2.35 1.25q2.1.8 4.45 2.15l2.4-.7q2.15-.85 4.25-2.25l-1.25-2.2-1.65-2.2-.1-.15q-1.65-.05-2.4-.5-1.4-2-.95-4.1l.55-.1q-.55 2.15 1.1 4.15 2.85.7 6.85-1.85l.3-.15L19.6 3q1.45-1.35 2-2.85l.25.05M7.4 2.55l.3-.05h.05q-.05 2 1.1 3.95l1.1.5.1.05 1.35.35.05.3 2.6 2.6-.05.6q-.85 1.45-3.9 2.4-.95.55-1.2 0-5.15-.55-8-3.95l.05-.05.65.6q1.3.95 2.7 1.65h.05q2.3 1.1 5.05 1.5 1.2-.7 2.75-1.25 1.5-.85 1.45-1.3-1.7-1.45-2.5-2.8-1.4-.3-2.15-.8L8.5 6.5Q7.1 4.25 7.4 2.55m13.1 7.8 3.25-2.9-.3-.3q-1.4 1.65-3 2.7-1 .65-2.15 1.1l-.3.1-1.8.45-.5.45.05-.3-1.15.85 3.25-.8.45-.2 2.2-1.15m-9.95-1.1-.4-.1-.55.1q-.6.15-.85.7-.25.8.4.75-.5.25-.85-.55v-.05q.7-1.55 2.3-1.3 1.45.55 1.05 2.05-.15.7-1.05 1l-1.3.1q-1.3-.3-1.1-1.5.35.9 1.1 1.05h.75l.3-.05q1.25-.45.8-1.85l-.6-.35" fill="#813112"/><path d="M9.7 2.1 18.25.5l-.3 3.75-.3.15q-4 2.55-6.85 1.85-1.65-2-1.1-4.15m8.15 9.6-3.25.8 1.15-.85-.05.3.5-.45 1.8-.45-.15.65M14 10.85l.05-.6-2.6-2.6-.05-.3L10.05 7l2.55-.05 1.65 2.2q.3.8-.2 1.7H14l.05.05q-.7 1.2-2.8 2.7l-2.4.7Q6.5 12.95 4.4 12.15L2.05 10.9q-1-.65-1.15-1.6 2.85 3.4 8 3.95.25.55 1.2 0 3.05-.95 3.9-2.4m-4.3.65h-.4q-.75-.15-1.1-1.05l.1-.3q.35.8.85.55-.65.05-.4-.75.25-.55.85-.7l.55-.1q.7 1.4-.45 2.35" fill="#faff44"/><path d="m7.75 2.5 1.4-.3q-.45 2.1.95 4.1.75.45 2.4.5l.1.15-2.55.05-.1-.05-1.1-.5Q7.7 4.5 7.75 2.5M19.35.25 20.6 0l1 .15q-.55 1.5-2 2.85L19.35.25m1.1 9.6q1.6-1.05 3-2.7l.3.3-3.25 2.9-.05-.5m-6.4 1q.5-.9.2-1.7l1.25 2.2q-2.1 1.4-4.25 2.25 2.1-1.5 2.8-2.7v-.05" fill="#fdbd01"/><path d="M4.3 11.5q-1.4-.7-2.7-1.65.5-.5.05-1.2.95-.6-.1-2.35l.15-1.65.75.7 1.3.7L7.7 9.1l-2.45-.65q.15 2.2-.9 3.05H4.3" fill="#eed9ff"/><path d="M18.45 5q.05 2.85 1.05 3.65l-2.35 1.6q-.95-1.55-2.5-3.1 2.05-.9 3.8-2.15m-9.5 1.85q.75.5 2.15.8.8 1.35 2.5 2.8.05.45-1.45 1.3Q10.6 12.3 9.4 13q-2.75-.4-5.05-1.5 1.05-.85.9-3.05l2.45.65-3.95-3.05q2.1.9 5.2.8m-7.35 3-.65-.6H.9l.05-.35.7-.25q.45.7-.05 1.2m6.6.6q-.2 1.2 1.1 1.5l1.3-.1q.9-.3 1.05-1 .4-1.5-1.05-2.05-1.6-.25-2.3 1.3v.05l-.1.3" fill="#d2a9ff"/><path d="m18.25.5 1.1-.25L19.6 3l-1.65 1.25.3-3.75m-7.7 8.75.6.35q.45 1.4-.8 1.85l-.3.05q1-1.1.5-2.25" fill="#d26203"/><path d="m10.15 9.15.4.1q.5 1.15-.5 2.25H9.7q1.15-.95.45-2.35" fill="#fdbe01"/><path d="m21.75.7.8.6Q22 2.1 22 4.25q1 1.2 1.25 2.6l-.35.35q-.85-.55-1.15-1.95-.3-1.4-.1-3.65l-.15-.3.2-.5.05-.1" fill="#b0ecfb"/><path d="m18.3 11.5-.45.2.15-.65.3-.1v.55" fill="#eaa803"/><path d="m20.5 10.35-2.2 1.15v-.55q1.15-.45 2.15-1.1l.05.5" fill="#c35806"/></g><g id="p" fill-rule="evenodd"><path d="m7.35 38.45.05.3-.7.05q-4.1-.4-6.65-6.2-.2-.85.65-1.05 2.9-.9 5.2 0l.6 1.15-5.35.05.3.85 1.1 1.55.35.45.55.7q1.35 1.5 3.9 2.15m-.5-3.5.1.6L5.9 34.4l-.45-.25q-1.9-1.05-3-.75-.25-.5 1.25-.3 1.1.2 1.75.6l.3.2 1.1 1.05" fill="#6f86b1"/><path d="M7.35 38.45q-2.55-.65-3.9-2.15-.4-1.1-.9-1.15l-1.1-1.55 1-.2q1.1-.3 3 .75l.45.25 1.05 1.15.4 2.75v.15" fill="#91bcdb"/><path d="m3.45 36.3-.55-.7-.35-.45q.5.05.9 1.15m-2-2.7-.3-.85 5.35-.05.35 2.25-1.1-1.05-.3-.2q-.65-.4-1.75-.6-1.5-.2-1.25.3l-1 .2m1.95-9.7Q22.6 12 30.55 29l-1.15 3.4-.25.85q-1.95 6.15-8.55 8.4 4.9-3.65 2.1-7.4-7.2-4.9-12.45-3-1.1.8-1.5-.35l-5.35-7m15.05 15.85-.1-.05-2.25.5q.9-.65 1.4-.8h.9q.35.1.05.35" fill="#aff2ff"/><path d="m4.95 32.6-1.3-1.45q-1.8-4.35-.25-7.25l5.35 7q.4 1.15 1.5.35 5.25-1.9 12.45 3 2.8 3.75-2.1 7.4l-3.8.85q-5.95.3-8.9-1.6-.4-6-2.95-8.3m13.4 7.25.1-.1q.3-.25-.05-.35h-.9q-.5.15-1.4.8l-.6.05q-.05.25.05.4 2.55-.1 2.8-.8" fill="#fff"/><path d="m30.55 29 .35.95q-.85 3.2-2.5 6.25-2.35 4.25-7.35 5.8-4.95 1.55-8.3 1.15-4.5-.8-5.8-2.7l-.1-1.6.35-.4q-.8-3.8-2.25-5.85 2.55 2.3 2.95 8.3 2.95 1.9 8.9 1.6l3.8-.85q6.6-2.25 8.55-8.4l.25-.85 1.15-3.4m-12.2 10.7v.15q-.25.7-2.8.8-.1-.15-.05-.4l.6-.05 2.25-.5" fill="#6f86b1"/><path d="M16.7 9.85V9.8l-.15-.1q-2.2-3.6-1.05-6.9 2.7-2.8 4-2.8-.95 3.25-.55 6.9-.1 2.15.8 4.05l-.55-.1q-1.55-1.5-1.65-3.15l.05-1.85.2-2.2.05-.05.3-1.85-1.25.95q-.65 1.05-.75 2.2v.15q-.05.9.25 1.9.3 1.25 2.1 3.7l-1.8-.8m6.5-7.4q.4-1.2 1.8-2.2l1.05 1 .1.1.25.85v.05l-.25.1q2.05 3.55-.35 7.1l-1.1 1.35-.95.2q2.75-2.95 2.4-6.1l-.4-1.75L25 1.6l-1.2 1.7q1 1.15.65 3.9L24 8.8l-.05.05-.7 1.25-.15-.55v-.2l-.9.05q-.9.3-1.85 1.65l-.55-.1.65-.85q1.45-1.6 2.9-.95l.1-.35q1.1-3.6-.25-5.4v-.95" fill="#813112"/><path d="M26.05 1.25q3-.35 5.65-.1L35.9 1q-.25 1-1.7 2.5 4.9 1.75 8.25 7.8 2.15 3 2.15 7.55l-.7.1q.3 4.35-.8 8.15l-2.6 3.25q-1.2-3.65-2.55-5.15-1.35-.35-3.45-2.2L29 18.9l1.9.95 2.5 1.25.2.05q4.55 2.35 6.35 4.5l.75 1.15.3 1.35.7-1.35q1.45-7.15-.3-9.8 0-.9 1.95.4v-.85L43.3 16q-2.15-5.75-6.45-9.85-1.75-1.35-3.5-1.7l-.1-.05q-2-.35.65-2.3l-1.75.05-5.75.05-.25-.85-.1-.1m-7.1 5.65q1.55-3.8 4.25-4.45v.95q-2.3 1.4-3.1 3.4-.25 1.15-.05 2.15l.4 1.15-.65.85h-.05q-.9-1.9-.8-4.05" fill="#865667"/><path d="m24 8.8.45-1.6q.35-2.75-.65-3.9L25 1.6l.75 1.55q-.5-.05-.95.85.45 2.8-.8 4.8m-7.85-3.9q.1-1.15.75-2.2l1.25-.95-.3 1.85-.05.05-1.65 1.25m4.2 6.15Q21.3 9.7 22.2 9.4l.9-.05v.2q-.65-.05-1.2 1.6h-.05l-1.5-.1" fill="#faff44"/><path d="M24 8.8q1.25-2 .8-4.8.45-.9.95-.85l.4 1.75-.7.65q-.55 3.2-1.45 3.3V8.8m-6.2-5.15-.2 2.2-1.2 1.1q-.3-1-.25-1.9V4.9l1.65-1.25" fill="#d26203"/><path d="M26.15 4.9q.35 3.15-2.4 6.1l-1.85.15q.55-1.65 1.2-1.6l.15.55.7-1.25H24q.9-.1 1.45-3.3l.7-.65m-8.55.95-.05 1.85q.1 1.65 1.65 3.15l-.5-.15-.2-.05q-1.8-2.45-2.1-3.7l1.2-1.1" fill="#fdbd01"/><path d="m26.4 2.2 5.75-.05q-1.35 1.9-3.8 2.9 2.5.15 4.9-.65l.1.05q1.75.35 3.5 1.7 4.3 4.1 6.45 9.85l.05.55-5.3-4.4q2.2 2.95 2.7 10-2.6-5.9-5.3-9.7 1.6 3.75 2.3 8.55-1.2-1.9-2.6-3.4-5.05-7.45-9.35-8.15 2.4-3.55.35-7.1l.25-.1V2.2m-6.35 6.75q-.2-1 .05-2.15.8-2 3.1-3.4 1.35 1.8.25 5.4l-3.4.15" fill="#fffa9d"/><path d="M29 18.9 16.7 9.85l1.8.8.2.05.5.15.55.1h.05l.55.1 1.5.1h.05l1.85-.15.95-.2 1.1-1.35q4.3.7 9.35 8.15 1.4 1.5 2.6 3.4-.7-4.8-2.3-8.55 2.7 3.8 5.3 9.7-.5-7.05-2.7-10l5.3 4.4v.85q-1.95-1.3-1.95-.4 1.75 2.65.3 9.8l-.7 1.35-.3-1.35-.75-1.15q-3.25-4.45-9.05-5.8L29 18.9m3.15-16.75 1.75-.05q-2.65 1.95-.65 2.3-2.4.8-4.9.65 2.45-1 3.8-2.9m-11.7 7.95-.4-1.15 3.4-.15-.1.35q-1.45-.65-2.9.95" fill="#d88fa8"/><path d="M39.95 25.65q-1.8-2.15-6.35-4.5l-.2-.05-2.5-1.25q5.8 1.35 9.05 5.8" fill="#b0ecfb"/><path d="M17.5 27.1h-.05l.05.05q-3.25 3.15-4.4 2.75-.3.2-.3-1.8-.95 1.7-2.55 2.95-1 .95-.7.05-1.65-.4-2.4-1.7.5 1.9-.9.35-.95-.6-1.65-1.75l.45 3.5-1.65-.35q-2.35-5.3-1.3-10.8l.65-2.05Q4.7 13.75 10.9 11q3.05-1.25 6.65-1.35.35.05.45.4l4.75.45.45.05.45.05q3.8.8 7.2 4.2 2.15 2.95 2.7 6.15.7.15.85 1.6.1 4.1-1.5 6.55v.05h-.05q.75-4.2.05-8.55-1.1-4.5-4.1-6.9l-.15-.1Q26.55 11.75 24 11h-.05l-.15-.05-5.45-.4h-.15l-2.1.25q-5.75.8-8.8 3.4-2.4 1.7-3.5 4.15-.6 1.4-.8 3.05-.05 2.8.2 4.85.35 3.05 1.25 4.4l-.1-3.25 1.6 1.45.75.65-.7-2.25q.85 1.35 1.8 2.25v.05l1.45 1.1.5.25 2.8-2.95.25-.45.25.1.25 2q2-1.15 4.4-3l-.2.5m10.55 4q-.75 1.15-1.95 2-.5.1-.6-.5l-.25-3.05q-1 1.2-1.15-.25l-.15-2.6q-1.7 1.05-2.2-.65-4.25 3.3-4.2 2.5-.25-.55-.05-1.35.3-.35.4-.1v1.1l1.6-1.1 2.45-1.7.25.3q-.05 1.1.7 1.05.5 0 1.35-.6l.3.6q.35.85.4 2.5.55-.6 1 0l.2 3.2q2.25-2.45 3.05-6.2.05 2.9-1.15 4.85" fill="#865667"/><path d="m9.85 21.75 1.15-3 .3-1.1q-.65.35-1.15 1.05l-.45.75q-.45 1.8.15 2.3m-1.05-3.1q.85-1.7 2.15-3.2-3.1.85-4.05 2.2l-.35.85q-.4 1.25.15 3.2l2.05-2.95.05-.1m5.35-.9q-.4.25-.45.75l-.05.35q-.15.95.2 1.55.7-.75.7-1.5 0-.6-.4-1.15m3.1 0q-.8-.2-1.05 1.05l-.05.2q0 .7.45 1.65 1.15-.45 1.35-1.55v-.4q.1-.75-.7-.95m-8 12.9-1.45-1.1v-.05q-1.4-2.75-2.05-5.35-.45 2.25.2 4.7l-1.6-1.45.1 3.25q-.9-1.35-1.25-4.4.65-4.4 2.9-7.75 3.35-4.95 10-7.7l2.1-.25.15.05q2.65.85 3.75 2.2 3.35 3.75.3 8.5 4.25-5.45 1.3-9.65l.6.25q3.65 3.5 2.85 8.4-.55 3.35-2.6 6.45l-.3-.6q-.85.6-1.35.6 1.9-2.7 1.6-6.15-.15 1.1-1.9 3.65-1.65 1.25-3.1 2.85l-1.6 1.1v-1.1q1.85-2.45 1.55-5.6-.6 2.05-2.5 3.7l-3.7 3.6.95-4.85-3.05 4.1-.45-4.4q-.55 3.6-1.45 7m12.05-11.5.15-.05q.5-.2.5-.65l-.15-.65-.5-.2q-.7 0-.7.6 0 .55.7.95" fill="#fffa9d"/><path d="m17.5 27.1.2-.5q-2.4 1.85-4.4 3l-.25-2-.25-.1-.25.45-2.8 2.95-.5-.25q.9-3.4 1.45-7l.45 4.4 3.05-4.1-.95 4.85 3.7-3.6q1.9-1.65 2.5-3.7.3 3.15-1.55 5.6-.1-.25-.4.1v-.1m-9.7 2.4q-.95-.9-1.8-2.25l.7 2.25-.75-.65q-.65-2.45-.2-4.7.65 2.6 2.05 5.35m10.55-18.95 5.45.4.15.05H24q2.55.75 4.65 2.6l.15.1q3.3 3.9 3.5 10.55-.15 3.9-1.45 5.7l-2.8 1.15q1.2-1.95 1.15-4.85-.8 3.75-3.05 6.2l-.2-3.2q-.45-.6-1 0-.05-1.65-.4-2.5 2.05-3.1 2.6-6.45.8-4.9-2.85-8.4l-.6-.25q2.95 4.2-1.3 9.65 3.05-4.75-.3-8.5-1.1-1.35-3.75-2.2v-.05m4.55 16.2q-.75.05-.7-1.05l-.25-.3-2.45 1.7q1.45-1.6 3.1-2.85 1.75-2.55 1.9-3.65.3 3.45-1.6 6.15" fill="#d88fa8"/><path d="M9.85 21.75q-.6-.5-.15-2.3l.45-.75q.5-.7 1.15-1.05l-.3 1.1-1.15 3m-1.05-3.1-.05.1L6.7 21.7q-.55-1.95-.15-3.2l.35-.85q.95-1.35 4.05-2.2-1.3 1.5-2.15 3.2m8.45-.9q.8.2.7.95v.4q-.2 1.1-1.35 1.55-.45-.95-.45-1.65l.05-.2q.25-1.25 1.05-1.05m-3.1 0q.4.55.4 1.15 0 .75-.7 1.5-.35-.6-.2-1.55l.05-.35q.05-.5.45-.75M3.2 26.25Q2.95 24.2 3 21.4q.2-1.65.8-3.05 1.1-2.45 3.5-4.15 3.05-2.6 8.8-3.4-6.65 2.75-10 7.7-2.25 3.35-2.9 7.75m18.1-7.1q-.7-.4-.7-.95 0-.6.7-.6l.5.2.15.65q0 .45-.5.65l-.15.05" fill="#fff"/><path d="M28.8 13.7q3 2.4 4.1 6.9.7 4.35-.05 8.55l-2 .8q1.3-1.8 1.45-5.7-.2-6.65-3.5-10.55" fill="#b0ecfb"/><path d="M26.95 30.5 27 30l2-1.45q2-1.6 4.15-2.55-.2-.7 2.5-1.75l2.45-.05q-.5 4.4-2.7 8.4-2.35 3.35-5.4 4.65l-1.95-.3q-1.3-.65-1.7-2.35l.1-.05.15-.05q.6 1.2 1.9 1.45l1.1.05 1.65-.75q1.4-.85 2.65-2.55 2.3-4.1 2.85-7.25-1.25.05-4.1 1.6-2.3 1.25-5.7 3.45m4.4-1.5q2-1.5 4.6-2.75l-.05.1q-3.5 2.25-5.75 4.35.7 1.4.2 2.7-.5 1.4-1.4.9 1.4-.65.85-3-1.3 1.1-.9 3-1.35-1.4.95-3.95l.5-.55.9-.7.1-.1" fill="#6f86b1"/><path d="m26.8 31.6.15-1.1q3.4-2.2 5.7-3.45L31.35 29l-.1.1-.9.7-.65.55q-1.65 1.25-2.9 1.25" fill="#fff"/><path d="m26.45 34.55.35-2.95q1.25 0 2.9-1.25l-.85.85q-2.3 2.8-.35 4.75-1.3-.25-1.9-1.45l-.15.05m6.2-7.5q2.85-1.55 4.1-1.6-.55 3.15-2.85 7.25-1.25 1.7-2.65 2.55 2.25-2.4 1.7-4.5 1.8-1.95 2.95-4.4l.05-.1q-2.6 1.25-4.6 2.75l1.3-1.95" fill="#aff2ff"/><path d="M31.25 35.25 29.6 36l-1.1-.05q-1.95-1.95.35-4.75l.85-.85h.15q-2.3 2.55-.95 3.95-.4-1.9.9-3 .55 2.35-.85 3 .9.5 1.4-.9.5-1.3-.2-2.7 2.25-2.1 5.75-4.35-1.15 2.45-2.95 4.4.55 2.1-1.7 4.5" fill="#91bcdb"/><path d="m9.25 38-.15.05-.85.1q-2-1.2-1.75-4.15l.2-.35q.2 2.1 1.35 3.75v.05l1.2.55" fill="#6f86b1"/><path d="m6.7 33.65.25-.2q.15 2 1.1 3.95-1.15-1.65-1.35-3.75" fill="#b1c2e2"/><path d="M6.95 33.45h.1q.35 2.3.85 3l.75.95.35.05.15-.15v-1l.05-.15-.05-.1.05-.8q.35.5.5 1.3.1.95-.45 1.45l-1.2-.55v-.05q-.95-1.95-1.1-3.95m1.6 1.2.3.25v.9H8.8l-.25.1-.1.25.1.25.2.1-.55-.05q-.55-.6-.5-1.2l.05-.05.2-.05L8 35l-.05-.15-.15-.1.05-.1q.45-.2.7 0" fill="#016185"/><path d="M7.05 33.45q.6-.25 1.5 1.2-.25-.2-.7 0l-.05.1h-.05l-.15.1-.05.15.05.15.1.05v.05q-.05.6.5 1.2l.55.05h.1l.2-.1.1-.1v1l-.15.15-.35-.05-.75-.95q-.5-.7-.85-3" fill="#2eff87"/><path d="m8.85 35.8.2.1.1.15v.25l-.1.1-.2.1h-.1l-.2-.1-.1-.25.1-.25.25-.1h.05M7.8 34.75l.15.1L8 35l-.05.15-.2.05H7.7l-.1-.05-.05-.15.05-.15.15-.1h.05" fill="#fff"/><path d="M23.7 31.85q-.75-1.5-2.1-2.5 2.05.5 2.8 3.3v1.4q-.4 2.35-3.6 3.35l-1.7-.1q-2.55-.65-2.3-3.1.2.95.65 1.55l.6.65 1.45.5 1.4-.05q2.4-.75 3-2.7l.1-1.5-.05-.15v-.1l-.25-.55" fill="#813112"/><path d="m22.25 31.9 1.45-.05.25.55v.1l.05.15-.1 1.5q-.6 1.95-3 2.7l-1.4.05-1.45-.5 2.45.1q1.9-.95 2-2.1l.05-1.4-.3-1.1m-.9 1.1-.6.2q-.35 0-.6-.3l-.25-.6q0-.4.25-.65l.2-.15.4-.1q.4 0 .65.25l.2.35.05.3-.25.6-.05.1m-3.6 1.55q.15-.15.4-.15l.45.15.2.45-.05.25-.15.15-.3.2h-.15q-.25 0-.4-.2l-.2-.4.2-.45m3.15-.05q-.5-.5.2-.3l-.2.3" fill="#fff"/><path d="M20.65 30.15q1 .4 1.55 1.6l.05.15.3 1.1-.05 1.4q-.1 1.15-2 2.1l-2.45-.1-.6-.65.85.35q2.25.65 3.65-1.4.35-.75.15-1.75l-.35-.95-1.1-1.85m-.3 1.35-.2.15q-.25.25-.25.65l.25.6q.25.3.6.3l.6-.2v.25l-.25.95q-.7-.2-.2.3l-.2.2q-.55.6-1.4.6l-.55-.05.05-.25-.2-.45-.45-.15q-.25 0-.4.15-.5-.55-.5-1.3 0-.85.6-1.5.6-.6 1.45-.6.6 0 1.05.35" fill="#016185"/><path d="m18.75 35.25.55.05q.85 0 1.4-.6l.2-.2.2-.3.25-.95V33l.05-.1.25-.6-.05-.3h.15l.35.95q.2 1-.15 1.75-1.4 2.05-3.65 1.4v-.5l.3-.2.15-.15" fill="#2eff87"/><path d="M18.3 30.15q1.75-.45 2.35 0l1.1 1.85h-.15l-.2-.35q-.25-.25-.65-.25l-.4.1q-.45-.35-1.05-.35-.85 0-1.45.6-.6.65-.6 1.5 0 .75.5 1.3l-.2.45.2.4q.15.2.4.2h.15v.5l-.85-.35q-.45-.6-.65-1.55-.05-2.85 1.5-4.05" fill="#199172"/><path d="M18.3 30.15q1.05-.85 2.85-.9l.45.1q1.35 1 2.1 2.5l-1.45.05-.05-.15q-.55-1.2-1.55-1.6-.6-.45-2.35 0" fill="#d9e5ff"/><path d="M8.85 34.85q-1.45-.2-2.7-1.1Q2.9 31.6 2.7 27.4v-.9l.55.65.05.05q3.75 6.2 5.8 7 .7.65.4.65-1.9-.8-3-2.2-.9-.65-2.95-4.15.25 1.35 1.7 3.75v.05q1.45 1.85 3.6 2.55m7.95-3.05-1.5 1.5q-.65 1-.55 1.4l3.7-3.65.75-.7q2.4-2.6 3.55-4.6L16.8 31.8m-2.25 2.3q-.45.05.6-1 2.2-2.6 10-10.4l-1 1.45q-2.6 5.9-9 10.6-.45.6-.75.45-.2-.2 0-.8l.15-.3" fill="#865667"/><path d="M5.25 32.25q-1.45-2.4-1.7-3.75Q5.6 32 6.5 32.65l-1.2-.4h-.05m11.55-.45 5.95-6.05q-1.15 2-3.55 4.6l-.75.7-1.65.75" fill="#fffa9d"/><path d="M8.85 34.85q-2.15-.7-3.6-2.55l.05-.05 1.2.4q1.1 1.4 3 2.2l.6.35-.6-.1-.35-.2-.3-.05m9.6-3.8-3.7 3.65q-.1-.4.55-1.4l1.5-1.5 1.65-.75" fill="#d88fa8"/><path d="m25.85 29.15.25 3.1Q28.5 30 29 26.6l.15 1.55-.1.25Q27.8 32.85 25.8 33q-.65-.45-.4-3.5l.45-.35" fill="#865667"/><path d="M29 26.6q-.5 3.4-2.9 5.65l-.25-3.1L29 26.6" fill="#d88fa8"/></g><use ffdec:characterId="2" height="34.2" width="40.5" xlink:href="#j" id="c"/><use ffdec:characterId="4" height="37.2" width="44.8" xlink:href="#k" id="d"/><use ffdec:characterId="6" height="13" width="7.55" xlink:href="#l" id="e"/><use ffdec:characterId="8" height="31.6" width="29" xlink:href="#m" id="f"/><use ffdec:characterId="10" height="15.7" width="13.9" xlink:href="#n" id="g"/><use ffdec:characterId="12" height="14.6" width="24.95" xlink:href="#o" id="h"/><use ffdec:characterId="14" height="43.25" width="44.6" xlink:href="#p" id="i"/><path d="m-.65-2.85 15.85 1.1q6.6 1.2 6.6 2.85 0 1.65-6.6 2.8Q8.65 5.05-.65 5.05l-15.9-1.15q-6.55-1.15-6.55-2.8t6.55-2.85l15.9-1.1" fill-opacity=".349" fill-rule="evenodd" transform="translate(23.1 2.85)" id="b"/></defs></svg>