<svg xmlns:ffdec="https://www.free-decompiler.com/flash" xmlns:xlink="http://www.w3.org/1999/xlink" ffdec:objectType="frame" height="90" width="90" xmlns="http://www.w3.org/2000/svg"><use ffdec:characterId="31" height="183.7" transform="matrix(.4997 0 0 .5 -3.573 .025)" width="191.1" xlink:href="#a"/><defs><g id="a" transform="translate(7.15 -.05)"><use ffdec:characterId="1" height="8.5" transform="matrix(1.4019 0 0 2.6412 38.945 138.958)" width="60.75" xlink:href="#b"/><use ffdec:characterId="8" height="68.85" transform="matrix(.6918 .2451 -1.2033 .5813 78.981 63.74)" width="120.45" xlink:href="#c"/><use ffdec:characterId="10" height="57.6" transform="translate(44.15 95.9) scale(1.0092)" width="66.85" xlink:href="#d"/><use ffdec:characterId="12" height="28.25" transform="translate(59.1 72.95) scale(1.0092)" width="16.45" xlink:href="#e"/><use ffdec:characterId="14" height="31.65" transform="translate(43.9 86.3) scale(1.0092)" width="24.95" xlink:href="#f"/><use ffdec:characterId="16" height="23.05" transform="translate(53 94.8) scale(1.0092)" width="17.9" xlink:href="#g"/><use ffdec:characterId="18" height="64.8" transform="translate(53.7 68.5) scale(1.0092)" width="41.6" xlink:href="#h"/><use ffdec:characterId="20" height="25" transform="translate(86.35 67.65) scale(1.0092)" width="27.2" xlink:href="#i"/><use ffdec:characterId="26" height="77.45" transform="translate(52.6 .05) scale(1.0092)" width="66.5" xlink:href="#j"/><use ffdec:characterId="28" height="32.95" transform="translate(86.25 92) scale(1.0092)" width="25.75" xlink:href="#k"/><use ffdec:characterId="30" height="97.15" transform="translate(102.4 82.45) scale(1.0092)" width="52.05" xlink:href="#l"/></g><g id="m"><path d="m95.55 61.25.5-.7 1.2.6-1.7.1" fill="#990204" fill-rule="evenodd" transform="translate(-14.2 .3)"/><path d="m126.2 25.75-1.45-.05.2-.4 1.25.45M54.95 61.1l-.55-.1.15-.2.4.3" fill="#ed1b23" fill-rule="evenodd" transform="translate(-14.2 .3)"/><path d="m47 .1 4.15 3.2 4.2 3.25Q59.25 9 65.3 10.5 71 11.9 80 12.7l4.95.4 2.25.15 9.1.55 16.1 1.7q6.5 1.05 11.35 3.8 5.65 3.2 7.85 8.15-1.65-1.5-5.3-1.7h-.1l-1.25-.45q-10.4-3.65-24.55-3.25l-1.15.05-10.85-.6-3.45-.35-6.05-.75q-.9-.15-1.45.7-.55.85.7 1.35l6.8 2.45 5.7 1.8q8.25 2.5 15.15 3.8 2.9.8 6.05 1.1l.4.05 4.95.05.8-.05.05.05q3.55 1.1 5.3 2.1 1.8 1.05 2.3 2.3.55 1.35-.1 3.35l-.65 1.5-.75 1.25-1.3 1.7q-5.8 5.45-15.45 9.1l-4.4 1.6q-10.45-1.05-29.9-13.85l-11.35-7.6q-4.45-2.85-4.1-1.3Q67.5 44.5 74.9 51.75l.05.1 1.3 1.2 3.65 3.25.3.25q5.45 4.4 9.75 5.45 2.8.7 5.1-.05 2-.7 3.25 0 1.15.6.45 1.5-2.9 3.75-8.1 4.45-4.3.6-11-.75l-1.9-.45-10.6-2.8h-.05q-7.6-2.1-12.15-2.8l-.4-.3Q35.3 47.5 23.25 27.75q-1.3-2.1-3.25-3.15-1.75-.9-3.8-.85-1.05-7-1.25-14.9l-.25-7.1L47 .1m49.05 60.45-.5.7-1.9.55q-2.25.6-2.85-1.1-.25-.75.35-1.4.6-.65 1.9-1.15 1.45 1.45 3 2.4m-42.2-33.5q-.25.25-.1.8l.7 1.05 1.05.7.8-.1q.25-.25.05-.8l-.7-1.05L54.6 27l-.75.05" fill="#3f2116" fill-rule="evenodd" transform="translate(-14.2 .3)"/><path d="M124.75 25.7q-4.65.05-7.2 1.45l-.9.65q-1 .85-.9 1.85.1 1.05 1.4 1.7l-5.25.05-6.1-.9q-6.9-1.3-15.15-3.8l-5.7-1.8-6.8-2.45q-1.25-.5-.7-1.35.55-.85 1.45-.7l6.05.75 3.45.35 10.85.6 1.15-.05q14.15-.4 24.55 3.25l-.2.4M103 54.6l-3.55 1.1-5.95 1.95-1.25.4q-1.75.6-1.95 1.95-.25 1.25.8 1.75L90 61.7q-1.9-.35-5.4-2.5l-4.3-2.85q-2.1-1.55-4.05-3.3l-1.3-1.2-.05-.1q-7.4-7.25-17.25-19.9-.35-1.55 4.1 1.3l11.35 7.6Q92.55 53.55 103 54.6M54.4 61l-6.2-.35-6.1.7q-1.4.3-2.5 1.15-.6.45-.85.85l-.45.95-.25 1v1.1q.05.7-.35 1.15 0-.6-.9-1.7l-2.45-2.5Q29.8 58.7 26.8 54.1q-8-12.15-10.6-30.35 2.05-.05 3.8.85 1.95 1.05 3.25 3.15Q35.3 47.5 54.55 60.8l-.15.2m-.55-33.95.75-.05 1.05.65.7 1.05q.2.55-.05.8l-.8.1-1.05-.7-.7-1.05q-.15-.55.1-.8" fill="#8d552c" fill-rule="evenodd" transform="translate(-14.2 .3)"/><path d="m47 .1.5-.1 8.55 6q5 3.3 14.3 4.85l14.6 1.45 1.05.1 3.95.2 19.55 1.5q10 1.35 14.9 4.5 5.25 3.3 7.55 8.7l.6 1.5q-2.35-2.85-8.4-2.6-2.35.1-4.45.7-2 .5-2.7 1.15-.8.75-.65 1.5.15.9 1.75 1.6l3.35 1.3 1.85.75 1.3.65q2.4 1.9 1.85 5l-.95 2.55-.5.8q-1.1 1.55-2.95 3.15-8.6 7.45-28.45 12.55.85.95 4.15 2.9 2.3 1.35 1.75 2.25l-.45.7q-3.15 4.4-9.5 4.75-3.75.2-9.95-1.05l-1.85-.4-2.6-.65-8.1-2.2-8.25-1.95q-9.55-1.95-15.85-.7-4.1.8-4.45 3.55l-.1 1.85q-.1.9-.85 1.05l-.05-.3-.9-1.25-2.5-2.35q-4.55-4.25-7.7-8.9Q15.15 38.55 14.3 8.65l-.1-6.95.5.05.25 7.1q.2 7.9 1.25 14.9 2.6 18.2 10.6 30.35 3 4.6 7.55 9.25l2.45 2.5q.9 1.1.9 1.7.4-.45.35-1.15v-1.1l.25-1 .45-.95q.25-.4.85-.85 1.1-.85 2.5-1.15l6.1-.7 6.2.35.55.1q4.55.7 12.15 2.8h.05l10.6 2.8 1.9.45q6.7 1.35 11 .75 5.2-.7 8.1-4.45.7-.9-.45-1.5-1.25-.7-3.25 0-2.3.75-5.1.05-4.3-1.05-9.75-5.45l-.3-.25-3.65-3.25q1.95 1.75 4.05 3.3l4.3 2.85q3.5 2.15 5.4 2.5l1.1.05q-1.05-.5-.8-1.75.2-1.35 1.95-1.95l1.25-.4 5.95-1.95 3.55-1.1 4.4-1.6q9.65-3.65 15.45-9.1l1.3-1.7.75-1.25.65-1.5q.65-2 .1-3.35-.5-1.25-2.3-2.3-1.75-1-5.3-2.1l-.05-.05-.8.05-4.95-.05-.4-.05q-3.15-.3-6.05-1.1l6.1.9 5.25-.05q-1.3-.65-1.4-1.7-.1-1 .9-1.85l.9-.65q2.55-1.4 7.2-1.45l1.45.05h.1q3.65.2 5.3 1.7-2.2-4.95-7.85-8.15-4.85-2.75-11.35-3.8l-16.1-1.7-9.1-.55-2.25-.15-4.95-.4q-9-.8-14.7-2.2-6.05-1.5-9.95-3.95l-4.2-3.25L47 .1m49.05 60.45q-1.55-.95-3-2.4-1.3.5-1.9 1.15-.6.65-.35 1.4.6 1.7 2.85 1.1l1.9-.55 1.7-.1-1.2-.6" fill="#281611" fill-rule="evenodd" transform="translate(-14.2 .3)"/><path d="M81.85 60.85q-1.55-.95-3-2.4-1.3.5-1.9 1.15-.6.65-.35 1.4.6 1.7 2.85 1.1l1.9-.55 1.7-.1-1.2-.6" fill="none" stroke="#000" stroke-linecap="round" stroke-linejoin="round" stroke-width=".1"/><path d="M.5 2.05 32.8.4" fill="none" stroke="#281611" stroke-linecap="round" stroke-linejoin="round" stroke-width=".8"/></g><g id="n" fill-rule="evenodd"><path d="m12.3 46.8 2.65 1.2q9.7 7.55 23.35 8.5l2.75.1 3.05-.35h.05l3.7-.7h-.05q9.25-2.9 16.2-7.15l.15.65.2.25h.05q-7 4.3-16.3 7.2l-3.8.75-3.2.35h-.05Q23.9 57.25 12.5 47.3l-.2-.35v-.15m52.6 1.15-.15.1v-.1h.15" fill="#281611"/><path d="m28.7 3.2 1.2-.5-2.3 4.1Q15.5 28.75 13.1 34.55l-1 2.5-.35 1-.4 1.1q-.9 2.7-1.35 5.05 2.7 2.35 6.25 3.45h.05l-.05-.05 1.25.3 8.55.95q8.1 0 17.9-3.7l1.5-.55q7-2.65 10.5-2.85H56q3.8-.35 6.75 2h.05l.85 1.05.05.05.85 2.35.2.75v.1l.15-.1.95-.65v-2.6l-.15-1.9v-.2l-.2-.3-1.15-1.35q-1.3-1.3-2.55-1.75l-1.5-.4q-1.75-.35-3.65-.05-2.55.45-6.7 1.95l-2.75 1.05-.5.2q-5.6 2.1-9.85 3.15l-.4.1-4.45.75-3.6.25h-.05l-5.75-.3-4.2-.85-1.7-.65-.7-.25-.5-.2-.1-.1-.05-.05-.05-.2v-.1q.3-4.5 2.2-10.35Q19.3 27.2 28.55 6.8l2-4.35.8-.25-2.1 4.6q-9.4 20.6-11.2 26.55-1.2 3.75-1.75 6.9l-.1.75-.2 1.65-.1.8.1.05 2.6 1 4.1.8 5.65.3 3.6-.25 5.3-.95q4.05-1.05 9.25-3l.85-.35 4-1.45 1.3-.4 3.9-1.05q1.85-.3 3.55 0h.1l1.8.5q1.2.4 2.4 1.5l1.4 1.55v.75q.1-.2.3-.25l.4.1.2.3.1 1 .05 1.05v3.2L65 49.1l-.1.05-.25.2h-.2l-.05-.05h-.05l-.2-.25-.15-.65-1.05-3.2.05.05-.75-.85v-.05q-2.75-2.15-6.2-1.8-3.8.2-11.8 3.35l-2.35.85q-8.6 2.9-15.85 2.9-4.25 0-8.7-.95h-.05l-1.25-.3-1.1-.4-2.65-1.2-2.3-1.55-.45-.4H9.5l-.25-.15-.05-.15-.05-.15q.75-4.4 3.2-10.15Q14.7 28.45 26.7 6.8l2-3.6m38.1 40.25v-.35l.05.2-.05.15M2.3 30.25l-.1.35.25.35-.1-.2v-.2q0-.1.15-.1h.15l.15.15.2.35.05-.1-.05.1 2.9 3.25 1.35 1.4 2.05-3.15L20.7 14.7l4.2-7.9 1.25-2.35 1.55-.8L26 6.8l-.5 1 .15.1.05.15-.05.2-1.55 2.2-8.3 15.7-2.35 4.6-.2.4-1.45 3.15q-2.35 5.6-3.1 9.85v.15l-.15.85-.65-.6-.8-.7Q2.7 39.7.1 33.9l-.1-.25.15-.2 1.9-2.8.25-.4m5.1 12.5.5.45q.8-4.1 3-9.3l1.45-3.2.2-.4 2.35-4.6 3.3-6.25L9.65 32.8l-.05.05-2.1 3.25-.05.05-.1.05h-.1l-.15-.05-1.5-1.55-2.85-3.2-1.6 2.35q2.35 5.2 6.25 9" fill="#434c73"/><path d="m29.9 2.7-1.2.5-1 .45-1.55.8-.8.45-2.8 1.9-.85.55-.1.1Q15.65 13.6 9.3 22.1l-1.9 2.55-4.25 6.15H3.1l-.05.05-.05.1-.2-.35-.15-.15H2.5q-.15 0-.15.1v.2l.1.2-.25-.35.1-.35 4.3-6.2 2.1-2.8q6.2-8.3 12.1-14.45l.25-.2.15-.3q1.85-1.3 3.75-2.5Q30 .7 35.55.05h.05q5.35-.3 10.6 1.3l.1.05h.05l.3.25.05.2 1.4 2.1.65 1h.05L50 6.8l.45.7 1.35 2v-.05l1.95 2.75 2.15 2.95 2.4 3.25 2.55 3.6v-.05l2.65 3.9 2 3.85q.7 1.8 1 4.3.3 2.35.3 9.1v.5l-.1-1-.2-.3-.4-.1q-.2.05-.3.25v-.75q-.05-5.5-.3-7.6-.3-2.4-.95-4.05-.7-1.8-1.9-3.65l-2.6-3.85L57.5 19l-2.4-3.25-.1-.1-1.05-1.45-1-1.4L51 10.05 48.8 6.8l-.85-1.3-.5-.75-1.5-2.25Q40.9.95 35.65 1.25q-2.2.25-4.3.95l-.8.25-.65.25" fill="#a63914"/><path d="M3.1 30.8h.05l4.25-6.15 1.9-2.55.2.45q.05.6-.8 2.05-.9 1.4-.8 2.85l.75 3.35L8 31.85 6.9 33l-1 1.2L3 30.95l.1-.15M45.35 7.35q-.15 1.35-.9 2.45l-.7 1.2-1.35 1.85q-.4.5-.35 1.1l.7 1.1 1.55 2.05 1.05 1.35q1.3 2.05 1.35 5.95v4.5q2.05-4 2.5-7.05l.35-2.95 2.7-1.3.9 2.35.45 2.4-.05.35-.95 3.15q-.7 2.2-1.25 4.45l.3.35 1.45.25 1.75.25-.25 5.05q-.25 1.7-.8 2.05l-1.3.75-1.15.6-4 1.45q1.9-8.4 1.65-16.7L46.45 34.8q-.75-9.3-4.7-18.4.95 10.3-.25 20.55l-4.25 7.45-5.3.95-3.6.25-5.65-.3-4.1-.8-2.6-1v-.85l.2-1.65.15-.75q.7-2.75 2.2-2.75 1.4 0 3.8.7l3.8.9 4.35-.1 4.25-.55 3.8-1q2-.55 2.45-1.45.65-19.85-1.6-25.6 3.4-.7 5.95-3.05m4.1 31.75q3.15-1.5 2.7-6.7l-1.2-.05q-.1 3.4-1.5 6.75" fill="#ff9036"/><path d="m37.25 44.4 4.25-7.45q1.2-10.25.25-20.55 3.95 9.1 4.7 18.4L49 24.35q.25 8.3-1.65 16.7l-.85.35q-5.2 1.95-9.25 3m12.2-5.3q1.4-3.35 1.5-6.75l1.2.05q.45 5.2-2.7 6.7" fill="#ffdb6a"/><path d="M31.35 2.2q2.1-.7 4.3-.95 5.25-.3 10.3 1.25l1.5 2.25.5.75.85 1.3 2.2 3.25 1.95 2.75 1 1.4.95 1.5.1.15 1.55 2.45 1.75 2.8 1.65 2.8 1.25 2.2 1.6 3.35L64 32.9l.5 3.4-.05 3.4-.05.45q-1.2-1.1-2.4-1.5l-1.8-.5h-.1q-1.7-.3-3.55 0l-3.9 1.05-.15-.2 1.3-.75q.55-.35.8-2.05l.25-5.05-1.75-.25-1.45-.25-.3-.35q.55-2.25 1.25-4.45l.95-3.15.05-.35-.45-2.4-.9-2.35-2.7 1.3-.35 2.95q-.45 3.05-2.5 7.05v-4.5q-.05-3.9-1.35-5.95L44.3 17.1l-1.55-2.05-.7-1.1q-.05-.6.35-1.1L43.75 11l.7-1.2q.75-1.1.9-2.45l.1-.15-.1-.1v.25Q42.8 9.7 39.4 10.4 41.65 16.15 41 36q-.45.9-2.45 1.45l-3.8 1-4.25.55-4.35.1-3.8-.9q-2.4-.7-3.8-.7-1.5 0-2.2 2.75h-.05q.55-3.15 1.75-6.9 1.8-5.95 11.2-26.55l2.1-4.6M9.3 22.1q6.35-8.5 12.3-14.65l.1-.1.85-.55 2.8-1.9.8-.45L24.9 6.8l-4.2 7.9L9.3 32.45 7.25 35.6 5.9 34.2l1-1.2L8 31.85l.65-1.05-.75-3.35q-.1-1.45.8-2.85.85-1.45.8-2.05l-.2-.45" fill="#b03a1c"/><path d="M55.1 15.75 57.5 19l2.55 3.55 2.6 3.85q1.2 1.85 1.9 3.65.65 1.65.95 4.05.25 2.1.3 7.6l-1.4-1.55.05-.45.05-3.4-.5-3.4-1.2-3.45-1.6-3.35-1.25-2.2-1.65-2.8-1.75-2.8L55 15.85l.1-.1M65.5 42.3l.2.3v.2l.15 1.9v2.6l-.95.65h-.15l-.2-.75q.1-2.75.5-5l.45.1" fill="#c1fff9"/><path d="m29.9 2.7.65-.25-2 4.35Q19.3 27.2 17.5 33.15 15.6 39 15.3 43.5v.1l.05.2.05.05-.75-.4q-.55-.35-.6-1.2-.05-.9.7-3.25l.7-2.25q-1.3-1.3-1.95-1.3-.3 0-1.25 1.65l-.15-.05 1-2.5q2.4-5.8 14.5-27.75l2.3-4.1m-2.2.95 1-.45-2 3.6q-12 21.65-14.35 27.45Q9.9 40 9.15 44.4l-.05.1-.4-.2v-.15q.75-4.25 3.1-9.85l1.45-3.15.2-.4 2.35-4.6 8.3-15.7 1.55-2.2.05-.2-.05-.15-.15-.1.5-1 1.7-3.15M60.3 38.8l1.5.4q1.25.45 2.55 1.75l1.15 1.35-.45-.1q-.4 2.25-.5 5l-.85-2.35-.05-.05-.85-1.05h-.05q-2.95-2.35-6.75-2h-.05q-3.5.2-10.5 2.85 2.25-1.25 4.75-2.1 5.75-2.05 9.6-1.05.75-.7.5-2.65m-50.65-6 8.55-13.35-3.3 6.25-2.35 4.6-.2.4-1.45 3.2q-2.2 5.2-3 9.3l-.5-.45.5-1.75.9-3.1q.15-.8.9-2.25l.7-1.8-.6-.9-.15-.15" fill="#6f79c0"/><path d="m45.45 44.6-1.5.55q-9.8 3.7-17.9 3.7l-8.55-.95-1.25-.3v.05Q12.7 46.55 10 44.2q.45-2.35 1.35-5.05l.4-1.1.5-.95q.95-1.65 1.25-1.65.65 0 1.95 1.3l-.7 2.25q-.75 2.35-.7 3.25.05.85.6 1.2l.75.4.1.1.5.2.7.25 1.7.65 4.2.85 5.75.3h.05l3.6-.25 4.45-.75.4-.1q4.25-1.05 9.85-3.15l.5-.2 2.75-1.05q4.15-1.5 6.7-1.95 1.9-.3 3.65.05.25 1.95-.5 2.65-3.85-1-9.6 1.05-2.5.85-4.75 2.1M7.4 42.75q-3.9-3.8-6.25-9l1.6-2.35 2.85 3.2 1.5 1.55.15.05h.1l.1-.05.05-.05 2.1-3.25.2.1.6.9-.7 1.8q-.75 1.45-.9 2.25L7.9 41l-.5 1.75" fill="#fff"/><path d="m14.95 48 1.1.4 1.25.3h.05q4.45.95 8.7.95 7.25 0 15.85-2.9l2.35-.85q8-3.15 11.8-3.35 3.45-.35 6.2 1.8v.05l.75.85-.05-.05L64 48.4q-6.95 4.25-16.2 7.15h.05l-3.7.7h-.05l-3.05.35-2.75-.1q-13.65-.95-23.35-8.5m40.75-.1-2.8-.15-1.7.05q-3.6 0-11.65 2.7l-9.1 3 3.2 1.5q3.15 1.4 4.7 1.4 5.1 0 10.25-2.1 2.95-1.25 10.55-5.5-.6-.45-1.65-.65l-1.8-.25" fill="#3f2116"/><path d="m55.7 47.9 1.8.25q1.05.2 1.65.65-7.6 4.25-10.55 5.5-5.15 2.1-10.25 2.1-1.55 0-4.7-1.4l-3.2-1.5 9.1-3q8.05-2.7 11.65-2.7l1.7-.05 2.8.15" fill="#74371d"/></g><g id="o" fill-rule="evenodd"><path d="m8.8 3.9-.5.6q-.45-.45-.9-.45t-.8.25l-.6.55h-.05l-.2.3-.1.2.05-.05-.1.3-.1.3v.05q-.1.35-.05.7.65-.75.9-.7h.05l.45.1.2.15v.15l-.1.2h-.2l-.4-.1-.85.9-.05.1-.15.1-.2.25-.85 1.15v.1l-.05.05.15.7v.05q.2.8.85 1.95l.25.45q.8 1.2 1.4 1.25H7l.2.05 2.25-1.4-.55-.35v-.05q-1.05-.8-1.7-1.9L6.35 7.7l-.1-.3v-.15l-.05-.1.05-.15.1-.15.2.05.1.1v.05l.15.7.2.6.55 1.2q.6 1.05 1.6 1.8l.15.1.5.3.1.05.2-.05.15.1.05.2-.1.15-2.8 1.85-.1.15-.3.1h-.15l-.55-.1-.2.35-.05.05-.85 1.55-.5-.1 1.15-2.1-.9-1.05-.45-.7q-.75-1.25-.95-2.2l.05.05-.2-.95.05-.05.15-.25q.1-.15.25-.15L4.7 7.5l.1-.05-.1-.15q-.15-.8 0-1.55v.05q.05-.4.25-.8l.4-.6v-.05l.1-.1q.8-1 1.95-1 .7 0 1.4.65m6.5 3.2.1-.05V7l.2-.35h.05l.2 1q.2 4.2-1.85 8.5l-3.3 6.7-.15.1-.1.05-.15-.6 3.25-6.5q2-4.15 1.8-8.25l-.05-.55" fill="#444d74"/><path d="m8.8 3.9.75-.8.35-.4q1-1 2.25-1.9.65-.5 1.45-.75l.1-.05h.05q1.1.1 1.8 1.05 1.25 1.75.8 3.75l-.75 1.85-.2.35v.05l-.1.05q-1.85 2.15-4.1 3.85l-.75.55-.35.25-.2.05-.1-.05-.5-.3.1-.15q.15-.1.35-.15l1.05-.75q2.2-1.7 4.05-3.8l.8-2Q16 2.9 15 1.45 14.5.8 13.75.7q-.7.25-1.2.65L10.4 3.2l-.75.8-.2.25L8.3 5.7v-.05l-.05.05L6.9 7.65l-.1.1-.15-.7V7l-.1-.1.25-.35h.15l.1-.2V6.2l.7-.95.55-.75.5-.6M10.45 23q.25 1.5-.5 2.55-1.45 1.9-3.8 2.65l-.2.05-.1-.2-.8-1.5L3.2 23.9l-.05-.05-2.2-2.05-.75-.6-.2-.15 1.65-2.2 2.7-2.75.05-.1h.15l.15.05.5.1q.8.2 1.6.85l1.25 1.3 1.15 1.6 1.1 2.5.15.6M6.25 7.4l.1.3-.1-.15V7.4m-4.5 14.35L3.6 23.6l1.9 2.7.7 1.35q2.05-.7 3.35-2.4 1.2-1.8-.8-5.1L7.9 18.9l-.05-.05-1.35-1.4-.6-.45-.1-.05-.4-.2-.8-.2-2.55 2.65L.7 20.95l1.05.8" fill="#a63914"/><path d="m6.8 6.55-.25.35-.2-.05-.1.15-.05.15.05.1-.3.2q-.3.25-.3.55l.45 1 .45 1.25q0 .7-.4 1.15l-.7.85-.25-.45q-.65-1.15-.85-1.95V9.8l-.15-.7.05-.05v-.1L5.1 7.8l.2-.25.15-.1.05-.1.85-.9.4.1h.05m0 1.2.1-.1L8.25 5.7h.05l1.15-1.45-.85 1.7Q7.55 7.3 7 8.35l-.2-.6M6.6 4.3l.55.15.35.5-.55.5L6 5.7l-.4-.1.1-.3-.05.05.1-.2.2-.3H6l.6-.55" fill="#fff"/><path d="m8.3 4.5-.55.75-.7.95-.2-.15-.45-.1h-.05q-.25-.05-.9.7-.05-.35.05-.7V5.9l.1-.3.4.1.95-.25.55-.5-.35-.5-.55-.15q.35-.25.8-.25.45 0 .9.45M6.35 7.7l.85 2.15q.65 1.1 1.7 1.9v.05l.55.35-2.25 1.4-.2-.05h-.15q-.6-.05-1.4-1.25l.7-.85q.4-.45.4-1.15L6.1 9l-.45-1q0-.3.3-.55l.3-.2v.3l.1.15" fill="#6f79c0"/><path d="m9.45 4.25.2-.25.05.35-.45 1.35-.6 1.7-.35 1.5-.75.65L7 8.35q.55-1.05 1.6-2.4l.85-1.7m-7.7 17.5.75-.65.65-.65.8-.7 1.35-.9.85-1.2-.3-.6.05-.05.6.45 1.35 1.4-.1.15-.75.7-1.25 1.25L4.2 22.9l-.6.7-1.85-1.85" fill="#fdff6a"/><path d="m9.65 4 .75-.8 2.15-1.85q.5-.4 1.2-.65.75.1 1.25.75 1 1.45.65 3.15l-.8 2Q13 8.7 10.8 10.4l-1.05.75q-.2.05-.35.15l-.1.15-.15-.1q-1-.75-1.6-1.8l.75-.65.35-1.5.6-1.7.45-1.35L9.65 4M3.6 23.6l.6-.7 1.55-1.95L7 19.7l.75-.7.15-.1.85 1.25q2 3.3.8 5.1-1.3 1.7-3.35 2.4l-.7-1.35-1.9-2.7" fill="#ff8c32"/><path d="m6.15 14.6 1-.15.65.05v.1l-.55 1.5-.45.9q-.8-.65-1.6-.85l.85-1.55h.1m-.3 2.45.3.6-.85 1.2-1.35.9-.8.7-.65.65-.75.65-1.05-.8 1.35-1.75 2.55-2.65.8.2.4.2.05.1" fill="#fdfdf9"/><path d="m10.1 11.75.35-.25v.45l-1.1 3.1-1.3 3.25L6.8 17l.45-.9.55-1.5v-.1l-.65-.05-1 .15-.05-.05.2-.35.55.1H7l.3-.1.1-.15 2.8-1.85.1-.15-.05-.2-.15-.1" fill="#7bc8ee"/><path d="m10.45 11.5.75-.55q2.25-1.7 4.1-3.85l.05.55q.2 4.1-1.8 8.25l-3.25 6.5-1.1-2.5-1.15-1.6 1.3-3.25 1.1-3.1v-.45" fill="#4987d3"/></g><g id="p" fill-rule="evenodd"><path d="m18.5 6.65-.9-.6-3.2-1.5-.15-.1-.05-.15q-.65-1.45-2.3-3.2l-1.8 1.5-.15.2Q8 4.15 6.85 6.1 5.75 7.95 5.7 9.85l.05.2.2-.05.15-.05q3.15-1 5.75-.95 2.8 0 4.9 1.2 3.85 2.1 5.1 8.25l.2 2.1q0 1.6-.4 2.95l1.15-1.45.85-1.7.45-2.15.05-1q-.4-5.25-3.45-8.65l-.1-.05-.1-.15-1.9-1.65-.1-.05m-9.75-3.9.05-.1L11.95 0l.25.3q1.7 1.75 2.5 3.25 1.7-1.4 4.1-1.7h.35l.15.15q1.75 2.2 1.95 5.95 3 3.25 3.6 8.15l.05.25.05.8v.65l-.05.45-.5 2.35-.95 1.9q-.95 1.4-2.3 2.5l-.15.1q-1.15 2.25-3.45 3-.2 1.05-.9 1.95-1.3 1.6-3.45 1.6h-.1l-1.5-.35-.15-.05-2.25.25-1.25-.1h-.1v-.05l-1.2-1.1q-1.75-.05-2.45-1.3L2.75 26.3l-.1-.2-.35-.45-.75-1.35-.05-.2q-.6-1.45-.95-3.3-.55-3-.55-4.2-.05-1.35 2.55-3.85l2.4-2.25-.05-.55V9.9q.05-2.15 1.3-4.2 1-1.65 2.55-2.95M2.1 23.55l.5 1.05.35.6q.7 1 3.25 1.35l2.5.35-.45-.4-1.5-1.75q-.65-.6-1.2-2.85-.6-2-.6-3.25v-.1L5 18.5l2.85-5.4q.05-.15.25-.2h.3l.15.2.05.05-.05.3-2.8 5.3.1 1.05.05.35.1.35.3 1.2q.5 1.95 1 2.5l1.55 1.75 1.4 1.25.15.05q1.4-.05 2.5-1.25t1.1-2.5q0-.7-.55-1.7-.7-1.15-.65-1.3v-.05l.95-4.6.1-.35 2.25.1 2.55-.2h.3l.25.2v.3l-.25.25-2.85.25-1.6-.05-.3 1.3 1.6.95.05.05.15 1.75-.55 3.5q2.2.6 2.2 3.2v.15q1.8-.75 2.75-2.7.85-1.8.85-4l-.05-1.35-.05-.1-.1-.5-.05-.25q-1.2-5.5-4.6-7.45-2.65-1.5-6.5-1l-3.55.8h-.2l-.15.1q-.6.2-2.3 1.85l-.6.65-.15.1Q.85 15.5.8 16.6q0 1.2.55 4.05.25 1.6.75 2.9M18.15 2.8q-1.3.25-2.35.95l-.4.3q2.9 1.2 4.95 3.05-.3-2.7-1.6-4.4l-.6.1M16.8 27.9v-.3h.05v-.5q0-1.95-1.65-2.45l-.85 1.5.35 1.85q0 1.6-1.75 2.65l-.15.1.5.1q1.7-.05 2.7-1.3.6-.75.8-1.65m-1.6-7.5v-1.3l-1.15-.6-.45 2.05.55.85.65 1.75.4-2.75m-1.55 6.5-.3.1-.2-.05-.2.15-.1.25q-1.6 2.55-5.05 2.85l.5.5h.9q2 0 3.35-.75T13.9 28l-.15-1.1-.05-.05-.05.05m-3.3 1.15-.4-.1-3.85-.6-2.1-.5.9 1.7q.5.9 1.8.9 2.95 0 4.6-1.5l-.95.1" fill="#444d74"/><path d="M11.85 9q-2.6-.05-5.75.95l-.15.05-.2.05-.05-.2q.05-1.9 1.15-3.75Q8 4.15 9.95 2.8l.15-.2 1.8-1.5q1.65 1.75 2.3 3.2l.05.15.15.1 3.2 1.5.9.6.05.1.45 1.2q0 .55-.4 1.15-.5.7-1.25.7l-1.45-.5q-1.2-.5-3-.5l-1.05.2m-8.8 4.35 2.9-1.4q.4 0 .4.4l-.9 1.55-1.1 1.55Q4 15.8 3.3 17.5l-.6 1.9.35 2.6q0 .55-.55 1.15l-.4.4q-.5-1.3-.75-2.9Q.8 17.8.8 16.6q.05-1.1 2.15-3.2l.1-.05m5.5-.35 1.15-1.4 1.05-.2 1.4-.15.6.05.25.65.1 1.3q-.9.6-1.8 1.55-1.85 1.85-1.85 3.9v.75q.05.8.4 1.15v.15l-2.55.85-.35-.15-.6-.55-.35-.4-.1-.35-.05-.35-.1-1.05 2.8-5.3.05-.3-.05-.05V13m9.6-10.2L16.8 4.15l-1-.4q1.05-.7 2.35-.95m-4.7 2.3q.05-1.7-1.6-2.75-2.65 3.3-4.65 7 2.9-1.3 6.25-4.25" fill="#fdfdf9"/><path d="m18.6 6.7 1.9 1.65.1.15.1.05q3.05 3.4 3.45 8.65l-.05 1-.45 2.15-.85 1.7-1.15 1.45q.4-1.35.4-2.95l-.2-2.1q-1.25-6.15-5.1-8.25-2.1-1.2-4.9-1.2l1.05-.2q1.8 0 3 .5l1.45.5q.75 0 1.25-.7.4-.6.4-1.15l-.45-1.2.05-.05m-2.8-2.95 1 .4 1.35-1.35.6-.1q1.3 1.7 1.6 4.4-2.05-1.85-4.95-3.05l.4-.3M13.45 5.1Q10.1 8.05 7.2 9.35q2-3.7 4.65-7 1.65 1.05 1.6 2.75" fill="#6f79c0"/><path d="M2.6 24.6q2.15-.05 2.15-2.55l-.3-1.65q-.3-.8-.3-1.35l.8-1.95.85-1.6 1.15-1.75L8.1 12.4l.4.3.05.3v.1l-.15-.2h-.3q-.2.05-.25.2L5 18.5l-.05.05v.1q0 1.25.6 3.25.55 2.25 1.2 2.85l1.5 1.75.45.4-2.5-.35q-2.55-.35-3.25-1.35l-.35-.6m4.35-3.15.55 1.45q.55 1.25.85 1.25.55 0 1.6-.7 1-.65 1.2-1.1l1.05-3.65q.25-1.65 1-3.8l.4-.6.4-.55.25-1-.05-.9q0-1-.3-1.25-.35-.35-1.65-.35l-.55.1-.35-.1q-2.45 0-4.1.65L3.7 12.65Q5.4 11 6 10.8l.15-.1h.2l3.55-.8q3.85-.5 6.5 1 3.4 1.95 4.6 7.45l.05.25.1.5.05.1.05 1.35q0 2.2-.85 4-.95 1.95-2.75 2.7v-.15q0-2.6-2.2-3.2l.55-3.5-.15-1.75-.05-.05-1.6-.95.3-1.3 1.6.05 2.85-.25.25-.25v-.3l-.25-.2h-.3l-2.55.2-2.25-.1-.1.35-.95 4.6v.05q-.05.15.65 1.3.55 1 .55 1.7 0 1.3-1.1 2.5t-2.5 1.25l-.15-.05-1.4-1.25L7.3 24.2q-.5-.55-1-2.5L6 20.5l.35.4.6.55m8.25-1.05-.4 2.75-.65-1.75-.55-.85.45-2.05 1.15.6v1.3m1.6 7.5q-.2.9-.8 1.65-1 1.25-2.7 1.3l-.5-.1.15-.1Q14.7 29.6 14.7 28l-.35-1.85.85-1.5q1.65.5 1.65 2.45v.5h-.05v.3m-3.15-1h.1l.15 1.1q0 1.2-1.35 1.95t-3.35.75h-.9l-.5-.5q3.45-.3 5.05-2.85l.1-.25.2-.15.2.05.3-.1m-3.3 1.15.95-.1q-1.65 1.5-4.6 1.5-1.3 0-1.8-.9l-.9-1.7 2.1.5 3.85.6.4.1" fill="#4987d3"/><path d="m2.1 23.55.4-.4q.55-.6.55-1.15l-.35-2.6.6-1.9q.7-1.7 1.05-2.05l1.1-1.55.9-1.55q0-.4-.4-.4l-2.9 1.4.05-.05.6-.65 3.55-1.75q1.65-.65 4.1-.65l.35.1.55-.1q1.3 0 1.65.35.3.25.3 1.25l.05.9-.25 1-.4.55-.4.6q-.75 2.15-1 3.8l-1.05 3.65q-.2.45-1.2 1.1-1.05.7-1.6.7-.3 0-.85-1.25l-.55-1.45.35.15 2.55-.85v-.15q-.35-.35-.4-1.15v-.75q0-2.05 1.85-3.9.9-.95 1.8-1.55l-.1-1.3-.25-.65-.6-.05-1.4.15-1.05.2L8.55 13l-.05-.3-.4-.3-1.15 1.35L5.8 15.5l-.85 1.6-.8 1.95q0 .55.3 1.35l.3 1.65q0 2.5-2.15 2.55l-.5-1.05" fill="#7bc8ee"/></g><g id="q" fill-rule="evenodd"><path d="M17.4 4.55q.1-1.35-.9-2.6Q15.45.65 13.9.5q-1.6-.2-2.8 1.15-1.3 1.3-1.3 3.1l.05.85.1.3q.25.9 1 1.5 1.2.95 2.9.75 1.6-.25 2.45-1.05l.1-.1q.8-.95 1-2.35v-.1M13.95 0q1.8.15 2.95 1.65 1.15 1.5 1 3.05l-.05.4q-.3 1.3-1.1 2.25l-.55.45-.45.3v.05l-.05.15-.35 1.35-.55 1.4-.85 1.65q-1.35 2.5-3.7 4.4l-.1.1h-.05l-1.15.3Q7.4 19.3 6.2 21.2q-.35.5-1.75 1.2l-2.05.65-1.3-1.2-.65-.9v-.05H.4l-.3-1.8v-.05l-.1-.7v-.15l.05-.1.95-1.15.35-.3v-.05l3.4-2.95.25-.15.05-.05H4.9l-.5-.3-.1-.05V13q-.65-1.55 0-3.25l.3-.8.2-.7q.15-.6.45-1.1L5.3 7l4.5-.2q-.55-.85-.5-2.05 0-2 1.45-3.45Q12.1-.2 13.95 0m-7.5 11.6-.2 1.2-.15 1.7v1.65l.05.65 2.55.25.1-.05h.05l1-.25.05-.05q2.3-1.8 3.6-4.25l.85-1.6.55-1.35h-.05l.3-1.15-1.25.3q-1.6.15-2.75-.5l-.05.1-1.3.65-3.3 1.75v.45l-.05.5m4.2-3.8-.55-.55-.15.05-.95.05-3.4.15-.3.9-.5 1.4-.05.15q-.55 1.45-.05 2.8l.4.2.65.05v-.3L6 11.05v-.7l.15-.05.15-.1.05-.05 3.2-1.7 1.15-.6-.05-.05m-9.6 9.85-.5.65.05.75.3 1.7.6.8.9 1 1.85-.6L5.8 20.9v.05l2.45-3.4-2.4-.3-.15-.05-.05-.15-.05-.85v-1.75l.1-.85h-.05l-.6.45-.3.25L1.7 17h-.05l-.6.65" fill="#434c73"/><path d="m11.9 2.75-.1-.1-.1-.45q0-.45.35-.85.4-.35.9-.45l.85.15q.4.3.4.75l-.15.5-.25.3q-.35.4-.85.5-.5.1-.9-.2l-.15-.15m-.95 1.55-.15-.35.1-.3.05-.05q.15-.15.35-.15.2 0 .35.15l.15.35-.15.35-.35.15-.25-.05-.05-.1h-.05m-4.5 7.3.05-.5v-.45L9.8 8.9q.3.35 1.1.65 1 .35.85 1.1l-3.55 5.1-1.4-.2v-.8l-.35-3.15M4.8 9.8l.5-1.4.3-.9L9 7.35l.25.25.25.35q0 .25-1.3.75l-1.65.5q-.7 0-1.05.8l-.6 1.35-.05-.05-.05-1.35V9.8m-.05 4.5-.2 2q0 1.2.15 1.65.2.75.95.75l-1.5 1.4-1.55 1.05q-.65 0-1.4-1.05l-.1-1-.05-1.45.6-.65h.05l3.05-2.7" fill="#fff"/><path d="m14.05 2.3.15-.5q0-.45-.4-.75L12.95.9q-.5.1-.9.45-.35.4-.35.85l.1.45.1.1-.6.7q-.2 0-.35.15l-.05.05-.1.3.15.35.1.1-.05.1q0 1.35.8 2.35-1-.1-1.85-.95l-.1-.3-.05-.85q0-1.8 1.3-3.1Q12.3.3 13.9.5q1.55.15 2.6 1.45 1 1.25.9 2.6l-.8-.9q-.55-.5-1.2-.85l-.8-.35-.55-.15" fill="#0b9083"/><path d="m14.05 2.3.55.15.8.35q.65.35 1.2.85l.8.9v.1q-.2 1.4-1 2.35l-.1.1v-.5l-.25-.75q-.25-.4-.9-.25-.65.15-1.1.5-.95.7-1.85.75h-.4q-.8-1-.8-2.35l.05-.1.25.05.35-.15.15-.35-.15-.35q-.15-.15-.35-.15l.6-.7.15.15q.4.3.9.2.5-.1.85-.5l.25-.3" fill="#13d9aa"/><path d="M9.95 5.9q.85.85 1.85.95h.4q.9-.05 1.85-.75.45-.35 1.1-.5.65-.15.9.25l.25.75v.5q-.85.8-2.45 1.05-1.7.2-2.9-.75-.75-.6-1-1.5" fill="#95ffff"/><path d="m9.8 8.9 1.3-.65.05-.1q1.15.65 2.75.5l1.25-.3-.3 1.15h.05l-.55 1.35-.85 1.6q-1.3 2.45-3.6 4.25l-.05.05-1 .25H8.8l-.1.05-2.55-.25-.05-.65V14.5l.15-1.7.2-1.2.35 3.15v.8l1.4.2 3.55-5.1q.15-.75-.85-1.1-.8-.3-1.1-.65M9 7.35l.95-.05.15-.05.55.55.05.05-1.15.6-3.2 1.7-.05.05-.15.1-.15.05v.7l-.25 1.65v.3l-.65-.05-.4-.2q-.5-1.35.05-2.8h.05l.05 1.35.05.05.6-1.35q.35-.8 1.05-.8l1.65-.5q1.3-.5 1.3-.75l-.25-.35L9 7.35m-7.95 10.3.05 1.45.1 1q.75 1.05 1.4 1.05l1.55-1.05 1.5-1.4q-.75 0-.95-.75-.15-.45-.15-1.65l.2-2 .3-.25.6-.45h.05l-.1.85v1.75l.05.85.05.15.15.05 2.4.3-2.45 3.4v-.05l-1.55 1.05-1.85.6-.9-1-.6-.8-.3-1.7-.05-.75.5-.65" fill="#6f79c0"/></g><g id="r" fill-rule="evenodd"><path d="m24.05.25.1-.1.2-.05.15.1-.45.05M36.4 22.7l.05.25.05 1.7-.05.2q-.2-.25-.5-.2l-.15.05-.1.1-.1.1-.1-.2v-1.15l.9-.85m.55 4.95q.3 1.85.2 2.9L36.9 32l-.1.05-.05.1q-2.35 2.35-5.4 3.75l-2.4.85-.2.1.1-.1.05-.15-.1-.2-.15-.05h-.1q-.4-2.1.3-4.85v-.05l.05-.15h.15l2.9-1.2q2.45-1.25 4.35-2.95l.15-.1v.5l.05.15.2.1.15-.05.1-.1m-8.35 9.2v.1l.1.85q.85 10.25.9 23.65v.25l-.2.1q-6.05 3.45-12.7 2.95h-.05l-1.75-.25q-4-.55-7.75-2.15v-.05Q4.65 61.1 3 59.25q-2.3-2.6-3-6.4v-.2l.1-.15q6.2-7.15 11.15-14.7l.05-.05 2.55-4.1.2-.15q-.4-1.25-.5-2.8v-.1l.6-1.6.4-.8.1-.05.05-.15.3-.3q-.15-2.45.8-4.4-2.45-6.2-.8-11.4Q16.55 7 23.1 1.1l.2.2.25.1q-3.9 3.5-6.05 6.7l-.5.8q-.85 1.4-1.35 2.7l.55-.7q2.55-2.95 6.7-3.35l.15-.05Q26.3 7.15 29 9l1.3 1.3.65.9.4.9v.05q.85 3.05-1.65 6.95v.05q1.75 2.7 4.85 3.9v.1l.15.4.4.15q-.85 1.5-2.35 2.45l-.1.05-.1-.05q-2.15-.4-4.05-1.8l-.15-.15-1.6-1.5-.3-.35-2.55 1.5-2.1.75h-.2l-.2-.05-1.9-.7-1.6-1.05-.8-.75-.45.7-.55 1q-.75 1.8-.6 4.05v.35l-.05.15.1.15.25.5.05.05.8-.85q.05-.1.15-.1l.05-.05q1.5-1.45 3.05-1.4l.15.05.15-.05.5.1q.3.05.65.25 2.5 1.1 4.85 3.65l-.1.6-.5-.55-.55-.5q-1.9-1.85-3.9-2.75l-1-.3h-.45l-.5.1-.3.05q-.85.3-1.7 1.1l-.15.05-.05.1-.8.85-.05.05-.05.05-.65-.15-.4-.7v-.1l.05-.1v-.05l-.1.05-.05.1v.05l-.45.85-.45 1.3q.15 1.75.6 3v-3l.1-.2.2-.05.15.1.05.2-.05.9v1.4q.15 5.3 3.2 8.55l.55.55.45.4q3.2-2.25 5.1-4.25l1.5-1.85.15-.15h.1l.05.4.05.1-.05.05-.95 1.25-.8.85.1 1.85-.2 5.9v.25l-.15 1.35-.45 3.2-1 4.65-.05.1-.15.05-.3.1h-.05l-1.35.35-1.3.25h-.05l-1.1.15h-.2l-.1.05-.55.05h-.15l-1.35.05-1-.05h-.4q-3-.3-5.6-1.5H9l-.05-.05-1.15-.6-.3-.15-.05-.05-1.2-.85-.2-.15.15-.2 3.85-5.55Q13 43.1 15.3 37.35l-.5-2.1-.05-.05-.4-.8-2.3 3.7q-5 7.6-11.2 14.75.9 4.6 4.15 7.2 1.1.9 2.5 1.55h-.05q3.65 1.55 7.55 2.1l1.8.25q6.25.45 12-2.7-.05-13.8-1-24.25v-.05h.2l.6-.1m-5.85-28.8-1.2.25q-3 .65-4.95 2.95-2.4 2.8-.85 7.35.7 2.15 2.15 3.55 1.2 1.1 2.9 1.7l-.25-.45q-.45-.9-.45-1.8l.05-.35q-1.35-.5-2.25-1.3-2.25-2.15-1.55-6.4.2-.85.85-1.8l.8-.85q1.6-1.6 3.75-1.85 1.2-.15 2.45.45.15 0 .35.15h.05q1.3.65 1.85 1.75l.45 1.2.2 1.2v.05q.2 4-4.35 6.85l-1.65.65-.45.1-.05.15q0 .8.4 1.6l.6.9h.15l.85-.25 3.65-2 .05-.05h.1l1.15-1.05 1.35-1.4q2.75-4 1.95-7.05h.05l-.4-.9-.55-.75h-.05L28.7 9.4q-2.1-1.45-4.6-1.45l-1 .05-.35.05m.8 2.9-.45-.05-1.85.15-.6.25v.05h-.05l-1 .7q-.9.8-1.3 1.8l-.35 1.25.05.95.45 1.3.45.7q1 1.2 2.6 1.2 2.8-.4 4.2-3.15l.1-.3.1-.8-.05-.85v-.3q-.2-1.25-.95-2.1l-.05-.05-.4-.35-.05-.05-.1-.05-.25-.1-.5-.2m2.65 5.3q-1.55 3.1-4.65 3.5h-.05q-1.7.05-2.8-1.15l-.7-1v-.05l-.1-.15-.4-1.25q-.1-.55-.05-1.1.25-1.9 1.8-3.35.5-.5 1.1-.8.35-.25.75-.35l2.05-.15q.9.05 1.55.5l.55.5q.9 1 1.1 2.45v.25l.05.9v.05l-.1.8v.05l-.1.3v.05l.15-.4.2-.8.05-1.2-.2-1.1-.4-1.15q-.5-.9-1.65-1.5l-.3-.15H24q-1.15-.55-2.2-.4-2 .25-3.45 1.7l-.75.8q-.55.85-.75 1.6-.6 3.6 1.05 5.55.95 1.15 2.75 1.75l.3-.05 1.55-.65q2.8-1.75 3.7-4M16.1 22.7l.2-.4.5-.65q-.95-1.25-1.5-2.9l-.45-1.5q.15 2.6 1.25 5.45M29 24.1q1.65 1.15 3.55 1.55l2.05-2.05q-3.35-1.25-5.2-4.05l-.1.1v.05l-1.75 1.75-.7.6.35.4L29 24.1m2.85 11q2.5-1.3 4.55-3.3h.05v-.05l.2-1.25q.1-1-.2-2.8l-4.35 2.85-.7.35-.15.05-1.9.75q-.7 2.5-.3 4.5l2.8-1.1m-7.8 6.25v-.45L24 39.45q-1.85 1.7-4.6 3.6l-.15.15-.15-.15-.05-.05-.55-.45q-2-1.9-2.95-4.45-2.2 5.45-5.05 10.3l-3.75 5.4.45.35.35.25q3.2-3.85 7.3-3.55l.1.05.1-.05.5.05q.95.1 1.85.5l.8.4.05.05h.15l.05.05q1.3.8 2.55 2.3l1.2 1.7.1-.05.95-4.35.45-3.25.15-1.35.05-.1-.05-.15.2-5.3m-5.3 7 .55.85.25.45-.3-.05-.25-.05-3.8-.4-.6-.05h-.4l.2-.35.25-.45q.7-1 2-1.8l.1-.1.15.1 1.85 1.85M8.2 54.75l.85.45q2.05-2.25 4.5-2.45h1.3l.15.05h.1l.15.05q1.2.15 2.15.85l.85.7.05.1.1.05.05.05q.7.75 1.2 1.85l1.05-.2 1-.25-.95-1.35q-1.15-1.4-2.35-2.15l-.2-.15-.1-.1h-.15l-.55-.3-1-.35-.5-.15-.4-.05h-.05l-.4-.05h-.25q-3.85-.3-6.8 3.3l.2.1m9.75-6.55-.15-.2-1.05-1q-1 .65-1.55 1.4l-.15.25 3.5.3-.6-.75m-.2 6.4-.35-.3q-1-.8-2.35-1l-.15-.05h-.1q-2.9-.3-5.25 2.2l.4.15q2.15.9 4.55 1.15h.35l.1.05.1-.05h2.4l.55-.05h.05l.1.05.1-.1h.15l.75-.1-.75-1.25-.3-.35-.1-.15-.1-.05-.15-.15" fill="#434c73"/><path d="M24.05.25 24.5.2q3.25-.35 7.3-.15 4.75.2 7.5 4.15 2.65 3.8 2.25 9.1-.4 4.8-5.15 9.4l-.9.85-.4.15-.4-.15-.15-.4v-.1l.2-.3q5.25-4.7 5.7-9.55.4-4.9-2.05-8.35-2.45-3.5-6.65-3.7l-8.05.25h-.15l-.25-.1-.2-.2-.05-.15q0-.25.15-.4.1-.2.35-.25l.5-.05m12.4 24.6.4 1v.05l.1 1.7v.05l-.1.1-.15.05-.2-.1-.05-.15v-.5l-.1-1.1-.35-.8q-2 2.15-4.55 3.55l-1.25.65-3.45 1.15q-.3 1.55-.35 3-.05 1.55.25 2.95h1.15l.75-.1h.1l.15.05.1.2-.05.15-.1.1h-.15l-.6.1h-.2l-1.4-.05h-.15v-.1l-.05-.1-.05-.4-.2-1.15q-.2-1.9.15-3.95l.1-.6.05-.35.05-.15.15-.05 3.6-1.2 1.25-.6q2.35-1.35 4.3-3.35l.1-.1.1-.1.15-.05q.3-.05.5.2" fill="#a63914"/><path d="m21.1 21.35 1.65-.65q4.55-2.85 4.35-6.85v-.05l-.2-1.2-.45-1.2q-.55-1.1-1.85-1.75h-.05q-.2-.15-.35-.15-1.25-.6-2.45-.45Q19.6 9.3 18 10.9l-.8.85q-.65.95-.85 1.8-.7 4.25 1.55 6.4.9.8 2.25 1.3l-.05.35q0 .9.45 1.8l.25.45q-1.7-.6-2.9-1.7-1.45-1.4-2.15-3.55-1.55-4.55.85-7.35 1.95-2.3 4.95-2.95l1.2-.25 1.95.25q1.25.3 2.3 1.05 2.3 1.6 2.35 4.3.05 2.65-2.25 5.55-2.35 2.9-5 2.9-.45 0-.8-.4l-.2-.35m-1.1-4.8h-.05l-.35-.15-.15-.35.3-.45.2-.05.35.15.15.35-.15.35-.3.15m-.65-2.95v-.25q.1-.5.5-.9.35-.35.8-.35l.25.05q.15 0 .3.15l.15.15.1.9-.45.85q-.4.45-.85.45l-.55-.25v-.05l-.05-.1v-.05l-.2-.6m-4.3 15 .4.7.65.15.05-.05.05-.05.8-.85.05-.1.15-.05q.85-.8 1.7-1.1l.3-.05q-.5.8-1.1 2.5-.7 1.95-.7 2.8l.05.35.05.4.05-.45q0-.9 1.1-3.45l1.05-2.25h.45l1 .3q2 .9 3.9 2.75l-1.35-.75q-2.3 4.75-.65 9.65l1.35-.75q-1.9 2-5.1 4.25l-.45-.4-.5-2.3-.4-2.15-.1.8q0 .95.45 3.1-3.05-3.25-3.2-8.55v-1.4l.2-.9.05-.25-.5-.75-.35-.35.45-.85.1.05m5.35-1.1-2.05 4.95q-.4 1.75-.2 3.7l1.35 5.45 2.85-2.1q-1-4.25-.65-6.3.6-2.9 1.35-4.3-1.25-1.1-2.65-1.4" fill="#fff"/><path d="M21.8 18.1q-1.4-.6-1.8-1.55l.3-.15.15-.35-.15-.35-.35-.15-.2.05-.2-1.15.05-.05.55.25q.45 0 .85-.45l.45-.85-.1-.9-.15-.15q.75-.4 1.4-.55-.25.55-.25 1.55l.3 1.3.25 1.45q0 1.4-.75 1.9l-.35.15" fill="#13d9aa"/><path d="m23.55 10.95.5.2.25.1.1.05.05.05.4.35.05.05q.75.85.95 2.1v.3l.05.85-.1.8-.1.3q-1.4 2.75-4.2 3.15-1.6 0-2.6-1.2l.3-.45q.95.6 1.9.6l.7-.1.35-.15q.75-.5.75-1.9l-.25-1.45-.3-1.3q0-1 .25-1.55.25-.75.95-.8" fill="#95ffff"/><path d="m18.9 18.05-.45-.7-.45-1.3-.05-.95.35-1.25q.4-1 1.3-1.8l1-.7h.05v-.05l.6-.25 1.85-.15.45.05q-.7.05-.95.8-.65.15-1.4.55-.15-.15-.3-.15l-.25-.05q-.45 0-.8.35-.4.4-.5.9v.25l.15.6.1.15-.05.1.2 1.15-.15.1q-.15.15-.15.35l.15.35.35.15H20q.4.95 1.8 1.55l-.7.1q-.95 0-1.9-.6l-.3.45" fill="#0b9083"/><path d="M24.1 7.95q2.5 0 4.6 1.45l1.2 1.25h.05l.55.75.4.9h-.05q.8 3.05-1.95 7.05l-1.35 1.4-1.15 1.05h-.1l-.05.05-3.65 2-.85.25h-.15l-.6-.9q-.4-.8-.4-1.6l.05-.15.45-.1.2.35q.35.4.8.4 2.65 0 5-2.9 2.3-2.9 2.25-5.55-.05-2.7-2.35-4.3-1.05-.75-2.3-1.05l-.6-.35M26.4 15l-.05-.9v-.25q-.2-1.45-1.1-2.45l-.55-.5q-.65-.45-1.55-.5l-2.05.15q-.4.1-.75.35-.6.3-1.1.8-1.55 1.45-1.8 3.35-.05.55.05 1.1l.4 1.25.1.15v.05l.7 1q1.1 1.2 2.8 1.15h.05q3.1-.4 4.65-3.5-.9 2.25-3.7 4l-1.55.65-.3.05q-1.8-.6-2.75-1.75-1.65-1.95-1.05-5.55.2-.75.75-1.6l.75-.8q1.45-1.45 3.45-1.7 1.05-.15 2.2.4h.05l.3.15q1.15.6 1.65 1.5l.4 1.15.2 1.1-.05 1.2-.15-.05m-10.3 7.7q-1.1-2.85-1.25-5.45l.45 1.5q.55 1.65 1.5 2.9l-.5.65-.2.4m3.1 4.5.5-.1-1.05 2.25q-1.1 2.55-1.1 3.45l-.1.05-.05-.35q0-.85.7-2.8.6-1.7 1.1-2.5m5.85 2.95.55.5.5.55q-.35 2.05-.15 3.95l.2 1.15h-.1l-.15.15-1.5 1.85-1.35.75q-1.65-4.9.65-9.65l1.35.75M14.5 29.4l.35.35.5.75-.05.25h-.15l-.05-.2-.15-.1-.2.05-.1.2v3q-.45-1.25-.6-3l.45-1.3m3.8 12.2q-.45-2.15-.45-3.1l.1-.8.4 2.15.5 2.3-.55-.55m8.9-19.15-.35-.4.7-.6 1.75-1.75v-.05l.1-.1q1.85 2.8 5.2 4.05l-2.05 2.05q-1.9-.4-3.55-1.55l.35-.2q.9-.6 1.4-1.55l-1.2-1.45-.95.75-1.4.8m-6.8 5.05q1.4.3 2.65 1.4-.75 1.4-1.35 4.3-.35 2.05.65 6.3l-2.85 2.1-1.35-5.45q-.2-1.95.2-3.7l2.05-4.95m11 3.4.7-.35 4.35-2.85q.3 1.8.2 2.8l-.2 1.25v.05h-.05q-2.05 2-4.55 3.3l.3-1.45q0-2.75-.75-2.75m-5.15 6h.15l1.4.05V37q.95 10.45 1 24.25-5.75 3.15-12 2.7L15 63.7q-3.9-.55-7.55-2.1h.05q-1.4-.65-2.5-1.55 7.7 3.9 17.9 2.35 4.2-.8 3.9-3.65.8-6.75.2-15.85l-.2-1.8q-.25-.65-1.05-.65-.45 0-1.2.35l-.1-1.85.8-.85.95-1.25.05.05m-14.2 1.2 2.3-3.7.4.8.05.05.5 2.1q-2.3 5.75-5.25 10.8L6.2 53.7l-.15.2.2.15 1.2.85.05.05.3.15 1.15.6.05.05h.05q2.6 1.2 5.6 1.5-5.65.5-8.55-3l-.15-.2-.9-1.35q4.7-6 8.65-13.3l-1.65-1.3M8.2 54.75l1.45-1.1q1.8-1.05 3.9-.9-2.45.2-4.5 2.45l-.85-.45m12.5 1.5-1.05-1.9q-1.35-1.7-3.25-2.75l1 .35.55.3h.15l.1.1.2.15q1.2.75 2.35 2.15L21.7 56l-1 .25m-2.85-8 .1-.05.6.75-3.5-.3.15-.25 2.6.05.05-.2" fill="#6f79c0"/><path d="m35.1 23.7.4-.15v1.15l.1.2q-1.95 2-4.3 3.35l-1.25.6-3.6 1.2-.15.05-.05.15-.05.35q-2.35-2.55-4.85-3.65-.35-.2-.65-.25h1.1l1.5.35q2.05.7 3.55 2.2l.3-.7 1-2.45-1.7-2.1-2.3 1.2q-2.35 1.15-4.7.05-1.75-.9-2.8-2.5l.45-.7.8.75 1.6 1.05 1.9.7.2.05h.2l2.1-.75 2.55-1.5.3.35 1.6 1.5.15.15q1.9 1.4 4.05 1.8l.1.05.1-.05q1.5-.95 2.35-2.45" fill="#4987d3"/><path d="M15.5 27.8q-.15-2.25.6-4.05.7.2 1.6 1.1 1.1 1.2 1.9 1.45v.05l-2.3.3q-1.15.35-1.8 1.15M29 24.1l-1.8-1.65 1.4-.8.95-.75 1.2 1.45q-.5.95-1.4 1.55l-.35.2m-2.7 2.95-.75.5-3.25-.95 1.5-.95q1.4-.85 1.95-.85.8 0 .8 1.3l-.25.95m5.55 8.05-2.8 1.1q-.4-2 .3-4.5l1.9-.75.15-.05q.75 0 .75 2.75l-.3 1.45m-7.3 5.7q.75-.35 1.2-.35.8 0 1.05.65l.2 1.8q.6 9.1-.2 15.85.3 2.85-3.9 3.65Q12.7 63.95 5 60.05q-3.25-2.6-4.15-7.2 6.2-7.15 11.2-14.75l1.65 1.3q-3.95 7.3-8.65 13.3l.9 1.35.15.2q2.9 3.5 8.55 3h.4l1 .05 1.35-.05h.15l.55-.05.1-.05h.2l1.1-.15h.05l1.3-.25 1.35-.35h.05l.3-.1.15-.05.05-.1 1-4.65.45-3.2.15-1.35v-.25l.2-5.9m-11 11.95q-2.1-.15-3.9.9l-1.45 1.1-.2-.1q2.95-3.6 6.8-3.3h.25l.4.05h.05l.4.05.5.15q1.9 1.05 3.25 2.75l1.05 1.9-1.05.2q-.5-1.1-1.2-1.85l-.05-.05-.1-.05-.05-.1-.85-.7q-.95-.7-2.15-.85l-.15-.05H15l-.15-.05h-1.3M17.8 48l.05.25-.05.2-2.6-.05q.55-.75 1.55-1.4l1.05 1" fill="#fdfdf9"/><path d="M23.55 1.4h.15l8.05-.25q4.2.2 6.65 3.7 2.45 3.45 2.05 8.35-.45 4.85-5.7 9.55l-.2.3q-3.1-1.2-4.85-3.9v-.05q2.5-3.9 1.65-6.95v-.05l-.4-.9-.65-.9L29 9q-2.7-1.85-5.95-1.5l-.15.05q-.95-.35-1.6-.35l-2.55.4-1.25.5q2.15-3.2 6.05-6.7M34.5 16.6l-1.75-2.2-.65 2.4-.6 1.5.3.7.35.4.9.5 1.4-2.35.05-.95m-2.55 13.5-.5-1.4Q34 27.3 36 25.15l.35.8.1 1.1-.15.1q-1.9 1.7-4.35 2.95" fill="#ff8c32"/><path d="m24.05 41.35-.2 5.3.05.15-.05.1-.15 1.35-.45 3.25-.95 4.35-.1.05-1.2-1.7q1.2-4.2 1.8-11.55l-2.05.25 3.3-1.55m-9.2 9.5q-4.1-.3-7.3 3.55l-.35-.25q4.9-6.6 8.45-13.55 1.45 1.75 3.25 2.7h-1.1l-1.5-1.6q-.3-.3-.75.3l.55 2.75q1.7 1.6 2.65 3.6L16.9 46.5l-.15-.1-.1.1q-1.3.8-2 1.8l-.25.45-.2.35-.05.15.95.3-.15 1.3h-.1m2.9 3.75.15.15.1.05.1.15.3.35.75 1.25-.75.1h-.15l-.1.1-.1-.05H18q-.5-1.3-1.25-1.65.35.35.7 1.7h-.95l-.8-2.55-1.15.05-.05 2.5q-2.4-.25-4.55-1.15 3.45-3.3 7.8-1" fill="#ff9036"/><path d="M27.8 36.45q-.3-1-.3-2.05 0-2.75 1.35-2.9-.7 2.75-.3 4.85l-.75.1m-8.55 6.75.15-.15q2.75-1.9 4.6-3.6l.05 1.45v.45l-3.3 1.55-1.2.35-.3.05v-.1M7.2 54.15l-.45-.35 3.75-5.4q2.85-4.85 5.05-10.3.95 2.55 2.95 4.45l.55.45.1.35H19l-.1-.05q-1.8-.95-3.25-2.7-3.55 6.95-8.45 13.55m12.05-4.55v.5l-2.6-.3-1.55-.25-.95-.3.05-.15h.4l.6.05 3.8.4.25.05m-9.3 6-.4-.15q2.35-2.5 5.25-2.2h.1l.15.05q1.35.2 2.35 1l.35.3q-4.35-2.3-7.8 1" fill="#b03a1c"/><path d="m17.5 8.1 1.25-.5 2.55-.4q.65 0 1.6.35-4.15.4-6.7 3.35l-.55.7q.5-1.3 1.35-2.7l.5-.8m17 8.5-.05.95-1.4 2.35-.9-.5-.35-.4-.3-.7.6-1.5.65-2.4 1.75 2.2m-4.3 12.75 1.25-.65.5 1.4-2.9 1.2h-.15l-.05.15v.05q-1.35.15-1.35 2.9 0 1.05.3 2.05h-1.15q-.3-1.4-.25-2.95.35-1.85 1.2-2.4l1.5-.6q1.15-.45 1.15-1.05l-.05-.1" fill="#fdff6a"/><path d="m30.2 29.35.05.1q0 .6-1.15 1.05l-1.5.6q-.85.55-1.2 2.4.05-1.45.35-3l3.45-1.15" fill="#fcfcf9"/><path d="M21 54.2q-1.25-1.5-2.55-2.3l-.05-.05h-.15l-.05-.05-.8-.4q-.9-.4-1.85-.5l-.5-.05h-.1l.15-1.3 1.55.25 2.6.3v-.5l.3.05-.25-.45-.55-.85q-.95-2-2.65-3.6L15.55 42q.45-.6.75-.3l1.5 1.6h1.1l.1.05h.15l.1-.05.3-.05 1.2-.35 2.05-.25Q22.2 50 21 54.2m-3 2.5-.55.05q-.35-1.35-.7-1.7.75.35 1.25 1.65m-1.5.05h-1.45l-.1.05-.1-.05h-.35l.05-2.5 1.15-.05.8 2.55" fill="#ffdb6a"/><path d="m16.1 23.75.55-1q1.05 1.6 2.8 2.5 2.35 1.1 4.7-.05l2.3-1.2 1.7 2.1-1 2.45-.3.7q-1.5-1.5-3.55-2.2l-1.5-.35h-1.1l-.5-.1-.15.05-.15-.05q-1.55-.05-3.05 1.4l-.05.05q-.1 0-.15.1l-.8.85-.05-.05-.25-.5-.1-.15.05-.15v-.35q.65-.8 1.8-1.15l2.3-.3v-.05q-.8-.25-1.9-1.45-.9-.9-1.6-1.1m10.2 3.3.25-.95q0-1.3-.8-1.3-.55 0-1.95.85l-1.5.95 3.25.95.75-.5" fill="#7bc8ee"/></g><g id="s" fill-rule="evenodd"><path d="m16.4 3.6-.4.1q-.15 0-.2.1v.25l.1.2h.1l-.4.2-.2-.15Q9.1-.95 4 3.05l-.1.1-.65-.6-.2-.1-.1.05q.05-.3.25-.45Q9-2.65 16.25 3.3l.15.3" fill="#a63914"/><path d="m16.4 3.6.7-.1q1.45 0 2.45 1h.05q1 1.1 1 2.5 0 .9-.35 1.6 1.2 2.1 1.75 4.4l.05.25-.25.1h-.05q1.95 3.35 4.9 3.35h.2l.05.2.3 1.6q.2 3.4-3.65 5.5l-2.1.95-.1.05-.05-.05q-4-1.25-7.35-5.05-3.25-.6-4.45-1.95-2.45.45-4.75-.45Q3.1 16.75 2 15.45l-.25-.25Q.3 13.4.05 10.95v-1.5q.05-1.5.55-3 .7-2.2 2.25-3.9l.1-.05.1-.05.2.1.65.6v.55q-.65 2.25-.2 4.5l.1.45Q4.45 8.2 5.2 8l2.5-.25 1.55.55q1.65.85 2.25 2.9l.25-.3.8-.8.1-.1h.2l.05.05 2.55.55.75-.8-1.2-.75q-.85-.85-.85-2.05 0-1.2.85-2.1l.6-.45.4-.2h-.1l-.1-.2V3.8q.05-.1.2-.1l.4-.1M9.35 14q-2.15 0-3.9-1.5l-1-1.1q-1-1.3-1.35-3.1-.45-2.35.2-4.75l.05-.05-.25-.35Q1.75 4.7 1.15 6.65q-.4 1.25-.5 2.5v1.75q.25 2.4 1.8 4.15l.9.9.4.3 1.25.7h-.05q2.15.85 4.45.4l1.1-.25 2.45-2.65.2-.2 2.55 1.25q2.35-1.4 4.45-2.2l1.2-.4q-.55-2.15-1.7-4.15l-.1-.15-.25.35-.1.1-.05.05q-.85.85-2.05.85h-.2l-1.25 1.3-.15-.05-2.65-.55-.25.2q-1.2 1.25-2.15 2.85l-.05.05-.05.15h-.15l-.85.1m.15-4.9q-.8-.6-1.9-.8l-2.45.2q-.6.25-1.2.65l.2.5 1.2-.55L7.3 9q1.25.25 2.1 1 .9.8 1.3 2.25l.45-.55Q10.7 9.95 9.5 9.1m-.4 1.3q-.75-.65-1.9-.9l-1.6.05q-.65.15-1.25.55l.5.85 1 1.1q1.85 1.6 4.15 1.3l.3-.5q-.25-1.25-.85-2.05l-.35-.4m8.75-5.65-.75-.1q-.95 0-1.65.65l-.05.05q-.65.7-.65 1.65 0 1 .65 1.65l.25.2q.6.5 1.45.5.95 0 1.65-.7l.3-.35q.4-.6.4-1.3 0-1-.7-1.7l-.55-.4-.3-.1-.05-.05M26.7 18.4l-.25-1.2q-3.15-.1-5.2-3.7-.5.15-1.05.4-2.1.8-4.35 2.2l-.1.1L13.3 15q-1.7 2.15-2.6 2.65l-.1.05-.55.15q1.2 1.05 4.05 1.55l.1.05.05.05q3.25 3.7 7.15 4.95l1.5-.65q4.05-2.05 3.8-5.4" fill="#434c73"/><path d="m9.35 14 .85-.1h.15l.05-.15.05-.05q.95-1.6 2.15-2.85l.85.6.9.85 1.55-.4.85 2-1.45.65-.4-.5-.65-.3q-1.4-.85-2.2.35-.75 1-1.85 1.6-1.15.55-2.5.75l-1.25.25-2.65-.6-.45-.15-.9-.9Q.9 13.3.65 10.9V9.15l.45-.4.95-.75q.2 1.75 2.05 3.85 2 2.35 3.85 2.35l1.4-.2m-2.7-9q.45-.3.9-.35h.1l.25-.05q.4 0 .55.25l.1.05q.6.4.6 1.1 0 1.2-1.55 1.2T6.05 5.85q0-.45.6-.85m-1.5 3.5 2.45-.2q1.1.2 1.9.8l.05.2-.15.7q-.85-.75-2.1-1l-1.95.1-.2-.6m10.9-1.9-.1-.05-.1-.1-.2-.55.2-.6q.25-.2.6-.2h.1l.5.25.2.55-.25.55-.55.25-.4-.1m-.05.95V7.5l.05-.15V7.3l.2-.05.15.05.1.2-.1.15-.15.1-.2-.1-.05-.1m3.65 9.1.05.05.05.1.1.45-.25.75-.7.8q-.5.45-1.05.5-.65-1.05-.65-1.55 0-.55.5-.95.45-.4 1.05-.4.45 0 .9.25" fill="#fcfcf9"/><path d="m12.9 10.05-.05-.05h-.2l-.1.1-.8.8-.25.3q-.6-2.05-2.25-2.9L7.7 7.75 5.2 8 5 7q0-1.2.65-2.05.7-.95 1.8-.95Q9.55 4 11 5.05q1.65 1.2 1.65 3.3l.15 1.1.1.6M6.65 5q-.6.4-.6.85 0 1.35 1.55 1.35T9.15 6q0-.7-.6-1.1l-.1-.05Q8.3 4.6 7.9 4.6l-.25.05h-.1q-.45.05-.9.35m-1.8 5.95.8-.6Q6.3 10 6.95 10l2.15.4.35.4q.6.8.85 2.05l-.3.5q-2.3.3-4.15-1.3l-1-1.1" fill="#fdff6a"/><path d="m15.6 4.45-.6.45q-.85.9-.85 2.1 0 1.2.85 2.05l1.2.75-.75.8-2.55-.55-.1-.6-.15-1.1q0-2.1-1.65-3.3Q9.55 4 7.45 4q-1.1 0-1.8.95Q5 5.8 5 7l.2 1q-.75.2-1.4.65l-.1-.45q-.45-2.25.2-4.5v-.55l.1-.1q5.1-4 11.4 1.25l.2.15M9.1 10.4 6.95 10q-.65 0-1.3.35l-.8.6-.5-.85q.6-.4 1.25-.55l1.6-.05q1.15.25 1.9.9" fill="#ff8c32"/><path d="M.65 9.15q.1-1.25.5-2.5.6-1.95 1.95-3.5l.25.35-.05.05q-.65 2.4-.2 4.75.35 1.8 1.35 3.1l1 1.1Q7.2 14 9.35 14l-1.4.2q-1.85 0-3.85-2.35Q2.25 9.75 2.05 8l-.95.75-.45.4m11.95 1.7.25-.2 2.65.55.15.05 1.25-1.3h.2q1.2 0 2.05-.85l.05-.05.1-.1.85 4.35q-2.1.8-4.45 2.2l-2.55-1.25-.2.2-2.45 2.65-1.1.25q-2.3.45-4.45-.4H5l-1.25-.7.05-.15 2.65.6 1.25-.25q1.35-.2 2.5-.75 1.1-.6 1.85-1.6.8-1.2 2.2-.35l.65.3.4.5 1.45-.65-.85-2-1.55.4-.9-.85-.85-.6M9.5 9.1q1.2.85 1.65 2.6l-.45.55Q10.3 10.8 9.4 10l.15-.7-.05-.2m-4.15 0-1.2.55-.2-.5q.6-.4 1.2-.65l.2.6" fill="#6f79c0"/><path d="m19.3 8.95.25-.35.1.15q1.15 2 1.7 4.15l-1.2.4-.85-4.35M17.4 5.2l.4-.35.1-.05.3.1.55.4q.7.7.7 1.7 0 .7-.4 1.3l-.3.35q-.7.7-1.65.7-.85 0-1.45-.5l-.05-.25q0-.25.45-.5l.05-.05q.35-.2.85-.35 1.3-.4 1.3-1.05l-.4-.8-.2-.25-.2-.3-.05-.1" fill="#c1fff9"/><path d="m17.05 5.35.05-.05h.35l.2.3.2.25.4.8q0 .65-1.3 1.05-.5.15-.85.35l-.1-.5.05.1.2.1.15-.1.1-.15-.1-.2-.15-.05-.2.05v.05H16l.05-.75.4.1.55-.25.25-.55-.2-.55" fill="#13d9aa"/><path d="M16.55 5.1h-.1q-.35 0-.6.2l-.2.6.2.55.1.1.1.05-.05.75v.2l.1.5-.05.05q-.45.25-.45.5l.05.25-.25-.2Q14.75 8 14.75 7q0-.95.65-1.65l.05-.05q.7-.65 1.65-.65l.75.1-.05.1-.4.35v.1h-.3l-.05.05L17 5.3l-.45-.2" fill="#0b9083"/><path d="m22.9 23.8-1.8-.85q-2.45-1.25-3.7-2.6l-2.05-1.5-1.35-.2q-1.05-.15-1.05-.4 0-.3.3-.9.3-.75.65-.75l1.8.6q.95 0 2.5-1 1.45-.95 2.15-1.2L23 17.1q1.2.7 3.7 1.3.25 3.35-3.8 5.4m-3.25-7.15q-.45-.25-.9-.25-.6 0-1.05.4-.5.4-.5.95 0 .5.65 1.55.55-.05 1.05-.5l.7-.8.25-.75-.1-.45-.05-.1-.05-.05" fill="#7bc8ee"/><path d="M26.7 18.4q-2.5-.6-3.7-1.3L20.35 15q-.7.25-2.15 1.2-1.55 1-2.5 1l-1.8-.6q-.35 0-.65.75-.3.6-.3.9 0 .25 1.05.4l1.35.2 2.05 1.5q1.25 1.35 3.7 2.6l1.8.85-1.5.65q-3.9-1.25-7.15-4.95l-.05-.05-.1-.05q-2.85-.5-4.05-1.55l.55-.15.1-.05q.9-.5 2.6-2.65l2.45 1.2.1-.1q2.25-1.4 4.35-2.2.55-.25 1.05-.4 2.05 3.6 5.2 3.7l.25 1.2" fill="#4987d3"/></g><g id="t" fill-rule="evenodd"><path d="m10.25 37.9.6 1.05Q9.3 41.8 8.5 44.55q-2.4 8.15 1.45 15.3l-.05.1-.05-.05-.2-.1q-.1 0-.15.1l-.1.15.1.2.3.3-.1.1-.25.05-.65-.45q-.9-1.7-1.45-3.4h.25l.35-.25.1-.45-.25-.4-.95-.55q-1.4-6.1 1.1-12.85.8-2.05 1.95-4.15.1-.25.35-.3M41 68q-2.85 2.95-6.2 5.1l-.9.5-.3.05.05-.1.05-.05v-.1l-.05-.45.85-.55 1.25-.8 2.1-1.65 1.45-1.25q2.75-2.6 5-5.95l.25-.35h.7l-.05.25-3.25 4.3-.1.15-.05.05-.8.85M14.05 33.65l.9-1.5.5-.7.15-.2.15.1.05.05.05.05q3 2.4 5.05 6.3l-.45.25q-1.95-3.7-4.75-6.05l-.5.75q-.75 1.05-1.2 2.15-1.05 2.15-1.2 4.5l-.05.1-.4-.35q.2-2.85 1.7-5.45m18.7-1.9v-.1l.15-.15.15-.05h.05q1.7.4 3.2 1.05l.75.3q6.45 3.15 8.8 11.4l-.4.35q-2-7.25-7.25-10.5-2.3-1.45-5.25-2.1l-.15-.1-.05-.1" fill="#a63914"/><path d="M10.25 37.9Q7.6 32.8 9.7 23.35v-.05q2.95-10.35 7.8-13.7l1.35-1 .1.1-.5 1.6q-1.95 5.75-2.2 11.55 7.95-11.6 20.1-17.45l4.1-1.8h.05Q48.1.25 54.35.05l1.2-.05-.7 1q-4.95 6.85-6.3 13.7 4.1-1.3 7.9-1.35h.65l-.05.65-.25 3.15q-.95 8.35-4.75 15.9l4.4.15 1.25.2-.95.85q-1.55 1.35-3.4 4.85l-.9.45-.3-.35q-.1-.25.05-.45 1.4-2.75 2.7-4.3l.15-.2-3.65.1-2.45 3.95-.1.2-.35.25-.45-.1-.1-.05-.2-.3.1-.45 2.6-4.2.05-.1q2.7-5.2 4.1-10.7l.45-2.1.35-1.95.45-4.2q-8.3.35-18.25 6.7l-.25.1h-.2l-.25-.1-.15-.15-.05-.45.25-.4q4.75-3.05 9.2-4.75l1.1-.4V15q.95-5.2 3.9-10.4l.45-.8 1.6-2.5q-5.65.35-12.35 2.45Q37.8 4.9 35 6.45 21.7 13.55 13.9 28l-.35.3h-.2l-.25-.05-.3-.35.05-.45.2-.45 2-3.35-.05-.2q0-3.05.45-6.1.4-2.7 1.2-5.35-2.8 2.85-4.8 8.5-.55 1.45-1 3.15v-.05q-2.2 10 1.1 14.8l.1.45-.25.4-.1.05-.35.05-.4-.25-.1-.15-.6-1.05m44.7 16.25q1.6.7 2.7 1.85 4.05 2.7 7.25-.25l1.3-1.1.3.2-.6 1.55-1.4 3.05q-3.8 6.45-11.95 5.85-1.9 3.5-4.65 4.25-2.9.85-6.7-1.35L41 68l.8-.85h.05q3.25 1.9 5.75 1.25 2.4-.7 4.1-4l.15-.35h.4q5.15.5 8.45-2.05l2.15-2.25 1.05-1.8q-3.2 1.6-7-1h-.1l-.05-.1q-.95-1.05-2.4-1.7l.6-1M34.05 26.3l-.1.7v.2q-.35 2.15-1.1 3.8l1.1-1.15 2.35-3.55.15-.15.2.05.05.05.05.1v.2l-.4.7-1.9 2.75-1.35 1.45h-.05l-.15.05-.15.15v.1l-.65.55-.55.45-.2-.15.4-.6.05-.1q1-1.65 1.5-3.85-4.45 6.6-10.1 11l-.15.05-.15-.05-.05-.35.05-.05q5.95-4.65 10.6-11.8l.4-.6.15.05" fill="#7e4824"/><path d="m52.45 39.55.9-.45q2.25-1.15 4.45-1.65L60 37l.75-.1-.1.8q-1 8.3-5.7 16.45l-.6 1-.25.4-.15.25-1.9 2.8-.4.25h-.3q-1.1 1.3-3.35 3v.05h-.05l-2.7.5h-.7l-.4-.05q-1.45-.2-2.5-1.1l-.75-.75-.9-1.65v.05q-1.75-3.15-.45-7.7l.05-.05v-.05q1.75-2.55 4.4-4.75l-.05-.2.2-.45.45-.4.85-.75.4-.35 3-2.35 3.6-2.3M33.6 73.65l-1.05.6-.1.05-1.15.25-.25.05-.05-.25-.15-1.55-2.4 1.75-.6.35-1.4.5-.15.05-.1-.1-1.1-.85h-.05l-1.15-.05-.15-.05-2.8-.75-.1.25q-1.25 1.65-3.75 3.15l-.7.4-.2-.85q-.6-3.4-2.9-7.55-3.05-1-7.75-4.75l-.05-.05Q-1.35 57 .3 54.1l.1-.3.35-.05q3-.4 6.1 1.45l.95.55.25.4-.1.45-.35.25h-.25l-.2-.1Q6 56 4.9 55.55l-.2-.05q-.75-.3-1.5-.45l-1.95-.1q-.65 2.4 5.05 8.4 3.25 2.6 5.7 3.85l1.55.7.1-.25.1-.2.55-1.25-.5-1.2q-4.5-4.35-9.2-6.75l-1.25-.6-.1-.15-.05-.15.05-.05q0-.1.15-.1h.15l.45.2q2.4 1.15 4.8 2.85l.65.45 3.15 2.55.05.05v-.1l-.05-.1-2.25-1.95-.55-.6-.3-.3-.1-.2.1-.15q.05-.1.15-.1l.2.1.05.05.05-.1.25-.7.15-.3q.3-.8.65-.75.3-.05.95 1.3l.9 1.65q.55.65 1.9 1.4-2.6-3.2-4.75-7.7l-.2-.35 1.3.05q-.55-3.1.25-6.75l.1-.4.15-.75q-1.05-.55-1.75-1.7l-.35-.75-.05-.05v-.1q.9-2.85 2.3-4.55l.1-.1.1-.15.15-.2.2.15h.05l.4.35.3.25.05.05 2 2.2h.05l1.4-1.15 3.75-2.7.15-.1.45-.25 1.05-.65.25-.15.15-.05.3-.2.2 1.95v.05l.05.35.45 4.65v.1l-.05.05-1.8 2.3-.05.05-.05.05-.6.2q-.2 3.7.65 6.25l.7-.2.4-.1.2-.05.4.1q.4.2.05.95Q20.65 58.45 20 64l.65-.95.5-.75q4.3-6.15 7.5-6.95-.15-2.4.8-3.65l.1-.15.15.05 4.85 1.45.1.05 2.7-2.2.4-.3v.5q.55 6.7-.45 10.15-1.05 3.4-3.8 4.65-.2 4.05.15 7.05l.05.45v.1l-.05.05-.05.1M15.85 62.9l.05.1.05.05 2.55 2.45q-7.25-9.15-3.7-23.1l-1.75-2-.85-.75-.15.2q-1.2 1.55-2 4L10 44q.65 1.5 1.8 2.1v-.05l1-2.05q0-.1.15-.1h.15l.1.05.05.1v.15l-1.05 2.2q-1.3 4.55-.55 8.25l.05.35-1.1-.05q2.25 4.5 5 7.65l.25.3m6.4-9.9-1.1.3-.05-.2q-.95-2.6-.8-6.55l-1.6-.05-.2-.05V43.4l.1-.15.15-.1.2.1.05.15v2.65l2.15-.25 1.7-2.15-.6-6.1-.3.15-1.35.85q-1.15.7-2.3 1.6l-3 2.35Q11.85 56 18.7 64.95l.6.75.05-.65V65q.6-6.2 3.4-11.8l.15-.35-.6.15h-.05m11.05 3.4q2.25 4.6-2.2 8.8-.05 5.55.4 8.8l.95-.25.75-.4q-.4-3.2-.2-7.6v-.15l.15-.05q2.65-1.2 3.65-4.45.95-3.25.5-9.5l-4.6 3.75.6 1.05m25.05-17.85Q53.4 39.7 48 44l-3 2.6h-.05l-.4.15-.25-.05q-2.55 2.15-4.25 4.65-1.2 4.3.4 7.3l.8 1.45L43 61.5l1.5.35 1.8-.1h.1l1.4-.35 3.2-2.9-.05-.15.1-.45q6.9-9.65 8.3-19.55l-1 .2m-10.8 9.4q3.15-4.25 8.2-6.65h.2l.15.1v.2l-.15.15-2.15 1.2q-2.95 1.75-5.05 4.3-1.95 2.3-3.25 5.2-.25.95 0 1.25l.1.05 1-.2.85-.2.6.5q.2.55-.35 2.1V56l-1.9 3.6-.15.1h-.2l-.15-.15q-.05-.15.05-.2l1.4-2.65.5-.95q.45-1.3.3-1.75l-.15-.15-.6.15-1.25.25-.35-.2q-.5-.4-.2-1.7h.05v-.05q1-2.35 2.5-4.35m-15.4 4.95-2.4-.75q-.8 1.2-.6 3.4l.05.2-.25.05q-3.35.7-8.15 7.85l-.95 1.4-.05 1q6.2-5.75 12.25-10.8l.15-.15 1.95-1.6-2-.6M31.6 64q3.1-3.55 1.25-7.35l-.55-.95-2.55 2.15-.3.25-4.35 3.8-.55.5-.3.25-.55.5.05.1.6.95Q25 65 26 65.5l4.6.25V65l.1-.05.9-.95m-2.65 9.7q.95-.65 1.7-1.5.05-.1.15-.1l-.2-5.95-.95.2q.2 2.85-.75 4.3l-.3.5-.1-.05v-.55q.15-1.9-.75-4.15l-1.9-.55q-1.1-.5-1.75-1.35l-.7-1.05-3.55 3.2.35.7.25.4q2.7 4.8 5.95 7.15 1.4-.5 2.55-1.2m-.05-4q.5-1.3.35-3.3l-1.05.05q.65 1.7.7 3.25m-18.2-8.85v-.05q2.1 1.95 4.55 3.5 1.4.9 2.85 1.5l-2.25-2.1-.25-.3q-2.4-1.1-3.15-2.05v.05l-.95-1.8-.5-1-.35.75-.05.1-.3.9.4.5m12.8 13 .25.05.75.1q-2.4-2.3-4.45-6l-.65-1.2h-.05l-.8-.25.05.55v.2q-.05 1.2-.85 1.25h-.1q-.85 0-1.8-.75l-.55-.5.2.35.55 1.05.35.6 1.05 1.6v-.05q2.7 2.4 5.9 3h.15m-5.25-6.1.05-.65-.1-.65-.75-.35-.45-.2-1.5-.85-.5-.35v.05l-.2-.15-.45-.25-.35-.25-.75-.55.1.25v.1l.65.6.2.2h.05v.05l.4 1.05.05.15.05.05.05.15v.05l.2.4 1.05.95q.85.7 1.6.7l.3-.05.3-.45m-1.5 3q-1.2-1.7-2.2-3.95l-.5 1.25h.1l.1.2q2.2 4 3 7.3l.55-.4.2-.15 1.9-1.8-2.8-1.95-.05-.05-.3-.45m30.5-15v.05-.05" fill="#434c73"/><path d="m24.25 62.65.3-.25.05.05.25.35.1.15.4.5.5.4.05.05 1.2.55.4.05q1.6.15 2.7-1.1l.1-.1.05-.1.4-.6.2-.35v-.05h-.05q.3-.85.05-1.8l-.05-.2q-.35-1.3-1.45-2.1l.3-.25q.9.6 1.35 1.55l.2.7.2.85-.2 1.4-.2.45-.6.85-.45.5q-1 .8-2.35.8l-.25-.05q-1.55-.2-2.45-1.2l-.75-1.05m-9.6 3.15-.4-1.05v-.05h-.05l-.2-.2-.05-.3.05-.1.35.25.2.55.4.65.1.15.7.7q.5.4.95.4.35 0 .35-.45l-.05-.4v-.05l.45.2v.25q0 .6-.4.8l-.35.05q-.95 0-1.95-1.25l-.1-.15" fill="#250b07"/><path d="M15.6 62.6q-2.75-3.15-5-7.65l1.1.05-.05-.35q-.75-3.7.55-8.25l1.05-2.2v-.15l-.05-.1.05-.15.1-.8q0-.45-.2-.45t-1 1.25l-.85 1.25-.75-.55-.5-.65q.8-2.45 2-4L14 42.8q-.65 2.85-.85 5.7-.2 2.8.1 5.8.3 3 1.05 5l1.35 3.2-.05.1m3.1 2.35Q11.85 56 15.3 42.5l3-2.35q1.15-.9 2.3-1.6l1.35-.85-.05 5.65q-1 1-2.15 1.4-.4-1.6-.5-3.35l-1 2 .05 4.65 1.05-.5q.1 3.95.85 6.55l1.2-.05q-2.35 4.25-2.7 10.9m14.6-8.55.15-.1 2.65-1.95.1.7.15.95.1 1.05.05.95-.1 1.25-.2 1.1-.3 1-.45.9-1.4 1.55-1.7 1.5-.05.95-.15 1.8v1.15l.05 1 .05 1 .1 1.7.1.85-.95.25q-.45-3.25-.4-8.8 4.45-4.2 2.2-8.8M31.6 64l-.9.95-.1.05v.75L26 65.5q-1-.5-1.65-1.3l.65-.5q.9 1 2.45 1.2l.25.05q1.35 0 2.35-.8l.45-.5.6-.85.2-.45.2-1.4-.2-.85-.2-.7.2-.25q.35-.3.5-.3.3 0 .5.95l.15 1.25q0 1.4-.85 2.95m-5.75-.15-.5-.4-.4-.5-.05-.2q0-.45.3-.75t.7-.3q.45 0 .7.3.3.3.3.75l-.1.5-.2.3q-.25.3-.7.3h-.05m2.6-.8v.15l-.15.4-.4.15-.4-.15-.1-.1.2-.15h-.2l-.05-.15q0-.25.15-.4.15-.15.4-.15l.4.15.15.25m.5 10.65q-1.15.7-2.55 1.2-3.25-2.35-5.95-7.15l.7-.45q.8.3 1.45 1.2l1.4 2.05 1.65 1.95q.9.8 1.95.8l1.1-.15h.25l.05.2-.05.35m-.05-4q-.05-1.55-.7-3.25l1.05-.05q.15 2-.35 3.3m-5.55 4.15q-3.2-.6-5.9-3v.05l-1.05-1.6-.35-.6q1 1.5 3.05 2.9 1.9 1.35 4.25 2.2v.05m-5.4-5.65-.3.05q-.75 0-1.6-.7L15 66.6l-.2-.4v-.05l-.05-.15v-.05q1 1.25 1.95 1.25l.35-.05q.15.2.55.2.45 0 .45.35l-.1.5m-3.15-3.6.2.15v-.05l.5.35-.15.35-.35.15h-.05l-.4-.65.1-.2.15-.1M18 75l-.2.15-.55.4q-.8-3.3-3-7.3l-.1-.2h-.1l.5-1.25q1 2.25 2.2 3.95l.55 1.6L18 75" fill="#fff"/><path d="m25.1 61.9 4.35-3.8q1.1.8 1.45 2.1l.05.2q-.35-.3-.8-.25l-.55.1-.35.25q.2.7-.1 1.8-.2.05-.1.25l-.6.5-.15-.25-.4-.15q-.25 0-.4.15-.15.15-.15.4l.05.15-.6-.1.1-.5q0-.45-.3-.75-.25-.3-.7-.3-.4 0-.7.3l-.1-.1m-9.6 3.15 1.5.85v.05l-.5-.2-.5.2q-.25.2-.25.45l-.7-.7-.1-.15H15l.35-.15.15-.35" fill="#4b1611"/><path d="m29.6 60.55.45-.2.45.2.2.45-.2.45-.45.2-.45-.2-.2-.45.2-.45m.7 2.75-.1.1q-1.1 1.25-2.7 1.1l-.4-.05q-.35-.3-.35-.55 0-.2.3-.25l.35-.15.1.1.4.15.4-.15.15-.4v-.15l.6-.5v-.05l.1-.2.35-.1q.8 0 .8.95v.15" fill="#dd714c"/><path d="M29.15 62.3q.3-1.1.1-1.8l.35-.25.55-.1q.45-.05.8.25.25.95-.05 1.8l.05.05-.2.35-.4.6-.05-.05q0-.95-.8-.95l-.35.1m.45-1.75-.2.45.2.45.45.2.45-.2.2-.45-.2-.45-.45-.2-.45.2m-2.5 3.9-1.2-.55v-.05q.45 0 .7-.3l.2-.3.6.1v.15l-.35.15q-.3.05-.3.25 0 .25.35.55M15.75 66.4q0-.25.25-.45l.5-.2.5.2.05.4q0 .45-.35.45-.45 0-.95-.4" fill="#8e1611"/><path d="m24.55 62.4.55-.5.1.1q-.3.3-.3.75l-.05.05-.25-.35-.05-.05m-10.2 1.95.45.25-.15.1-.1.2-.2-.55" fill="#530e0a"/><path d="m29.75 57.85 2.55-2.15.55.95q1.85 3.8-1.25 7.35.85-1.55.85-2.95l-.15-1.25q-.2-.95-.5-.95-.15 0-.5.3l-.2.25q-.45-.95-1.35-1.55m-5.4 6.35-.6-.95-.05-.1.55-.5.75 1.05-.65.5m-6.9 1.9.75.35.1.65-.05.65-.2-.05q0-.35-.45-.35-.4 0-.55-.2.4-.2.4-.8v-.25M14 64.5l-.65-.6v-.1l-.1-.25.75.55-.05.1.05.3" fill="#959595"/><path d="m12.05 39.85.15-.2.85.75 1.75 2q-3.55 13.95 3.7 23.1l-2.55-2.45-.05-.05-.05-.1-.2-.4-1.35-3.2q-.75-2-1.05-5-.3-3-.1-5.8.2-2.85.85-5.7l-1.95-2.95m1.15 4.1-.1-.05h-.15q-.15 0-.15.1l-1 2.05v.05q-1.15-.6-1.8-2.1l.05-.15.5.65.75.55.85-1.25q.8-1.25 1-1.25.2 0 .2.45l-.1.8-.05.15m8.75-6.25.3-.15.6 6.1-1.7 2.15-2.15.25V43.4l-.05-.15-.2-.1-.15.1-.1.15v3.05l.2.05 1.6.05q-.15 3.95.8 6.55l.05.2 1.1-.3h.05l.6-.15-.15.35q-2.8 5.6-3.4 11.8v.05l-.05.65-.6-.75q.35-6.65 2.7-10.9l-1.2.05q-.75-2.6-.85-6.55l-1.05.5-.05-4.65 1-2q.1 1.75.5 3.35 1.15-.4 2.15-1.4l.05-5.65m10.5 36.05-.1-.85-.1-1.7-.05-1-.05-1v-1.15l.15-1.8.05-.95 1.7-1.5 1.4-1.55.45-.9.3-1 .2-1.1.1-1.25-.05-.95-.1-1.05-.15-.95-.1-.7-2.65 1.95-.15.1-.6-1.05 4.6-3.75q.45 6.25-.5 9.5-1 3.25-3.65 4.45l-.15.05v.15q-.2 4.4.2 7.6l-.75.4m-.3-20.85 2 .6-1.95 1.6-.15.15Q26 60.3 19.8 66.05l.05-1 .95-1.4q.1.25.45.15 5.05-5.05 10-8.65l-.95-2.35 1.85.1M18.6 67.3v-.2l-.05-.55.8.25h.05l.65 1.2q2.05 3.7 4.45 6l-.75-.1-.25-.05-.15-.05-2.2-3-1.35-2.05-.3-.45-.9-1m-1.85 3.45.3.45.05.05 2.8 1.95L18 75l-.7-2.65-.55-1.6" fill="#6f79c0"/><path d="m9.8 60.55.55.6 2.25 1.95.05.1-.05.05-3.15-2.55.25-.05.1-.1m-1-.3Q6.4 58.55 4 57.4l1.35.3 1.5.6v-.05L5.7 56.8l-.85-1.15.05-.1q1.1.45 2.25 1.2l.2.1q.55 1.7 1.45 3.4m-4.2-2q4.7 2.4 9.2 6.75l.5 1.2-.55 1.25h-.1q0-1.7-3.65-4.75l-5.4-4.45m41.7 3.5-1.8.1-1.5-.35h.4q1.05 0 1.6-.85l.5-.9.05-.05h.1l.15-.1 1.9-3.6v-.05q.55-1.55.35-2.1l-.6-.5-.85.2-1 .2-.1-.05q-.25-.3 0-1.25 1.3-2.9 3.25-5.2 2.1-2.55 5.05-4.3l2.15-1.2.15-.15v-.2l-.15-.1.6-.45.9-.4h.35v.25q-2.95 8.2-5.3 13l-1.7 3.35L49.6 59q-1.25 1.5-3.2 2.7l-.1.05m.45-5.05.1-1.55q0-.85-.65-.8l-.65-.1L46.8 54l.6-.15.15.15q.15.45-.3 1.75l-.5.95" fill="#4987d3"/><path d="m4 57.4-.45-.2H3.4q-.15 0-.15.1l-.05.05.05.15.1.15 1.25.6L10 62.7q3.65 3.05 3.65 4.75v.2l-.1.25-1.55-.7-1.65-1.4Q8.5 64.45 5.6 61.1l-2.7-3.25-.3-.65.9-.15.4.05h.95q.1-.75-.6-1.25l-1.05-.8q.75.15 1.5.45l.15.15.85 1.15 1.15 1.45v.05l-1.5-.6L4 57.4m54.35-18.85 1-.2q-1.4 9.9-8.3 19.55l-.1.45.05.15-3.2 2.9-1.4.35v-.05q1.95-1.2 3.2-2.7l1.2-1.95 1.7-3.35q2.35-4.8 5.3-13v-.25h-.35l-.9.4q1.8-1.45 1.8-2.25v-.05M43 61.5l-1.75-1.4q1.8-1.95 2.65-3.95-.75-.75-.75-1.2 1.6-4.1 1.75-4.25 1-1.4 2.65-2.75-1.5 2-2.5 4.35l-.05.05q-.3 1.3.2 1.7l.35.2.65.1q.65-.05.65.8l-.1 1.55-1.4 2.65q-.1.05-.05.2l.15.15.05.05-.5.9q-.55.85-1.6.85H43m-26.95 7.2-.55-1.05-.2-.35.55.5q.95.75 1.8.75h.1q.8-.05.85-1.25l.9 1 .3.45 1.35 2.05 2.2 3q-2.35-.85-4.25-2.2-2.05-1.4-3.05-2.9" fill="#7bc8ee"/><path d="M12 67.2q-2.45-1.25-5.7-3.85-5.7-6-5.05-8.4l1.95.1 1.05.8q.7.5.6 1.25H3.9l-.4-.05-.9.15.3.65 2.7 3.25q2.9 3.35 4.75 4.7L12 67.2m29.25-7.1-.8-1.45q-1.6-3-.4-7.3 1.7-2.5 4.25-4.65l.25.05.4-.15H45l3-2.6q5.4-4.3 10.35-5.45v.05q0 .8-1.8 2.25l-.6.45h-.2q-5.05 2.4-8.2 6.65-1.65 1.35-2.65 2.75-.15.15-1.75 4.25 0 .45.75 1.2-.85 2-2.65 3.95M20.8 63.65q4.8-7.15 8.15-7.85l.25-.05-.05-.2q-.2-2.2.6-3.4l2.4.75-1.85-.1.95 2.35q-4.95 3.6-10 8.65-.35.1-.45-.15M10.7 60.8v.05l-.4-.5.3-.9.05-.1.35-.75.5 1 .95 1.8v-.05q.75.95 3.15 2.05l.25.3 2.25 2.1q-1.45-.6-2.85-1.5-2.45-1.55-4.55-3.5" fill="#fdfdf9"/><path d="m15.2 32.7.2.95-1.15 2.45q-1.25 2.3-1.2 3.55v.05l-.3-.25.05-.1q.15-2.35 1.2-4.5.45-1.1 1.2-2.15m-4.85 26.15-.15.3-.25.7Q6.1 52.7 8.5 44.55L9 49q.1 1.95.35 3.35l.4 3.95.6 2.55m18.7-14.55q-.35-1.15.65-.7l1.6 3.15q-.3 1.2-1.15 2.25l-1.1-4.7m-5.3 6.05-.2-1.4 4.5-4.35q1.15 2.35.65 6.4-2.1 3.35-4.55 4.8l1.1-5.15q-1 .25-1.5-.3" fill="#fcfcf9"/><path d="m10.85 38.95.1.15.4.25.35-.05.05.1q-1.4 1.7-2.3 4.55v.1l.05.05.35.75q.2 3.05 1.15 3.05l.35-.2q-.8 3.65-.25 6.75l-1.3-.05.2.35q2.15 4.5 4.75 7.7-1.35-.75-1.9-1.4l-.9-1.65q-.65-1.35-.95-1.3-.35-.05-.65.75l-.6-2.55-.4-3.95Q9.1 50.95 9 49l-.5-4.45q.8-2.75 2.35-5.6m5.25-5.9.15.05-.15-.15v.1m-3.05 6.6q-.05-1.25 1.2-3.55l1.15-2.45-.2-.95.5-.75q2.8 2.35 4.75 6.05l-.15.1-3.95-4.85L14.9 41v.4l.05.05 1.6-.65-1.4 1.15h-.05l-2-2.2-.05-.1m9.5 12.75q-.5-1.6-.5-4.05l3-3.05.1-5.1q8.9-1.5 10.9 10.35L34.2 51.6q-2.65.05-4.35-.7l-.15.7-.15-.05-.1.15q-.95 1.25-.8 3.65-3.2.8-7.5 6.95 1.3-4.8 3.6-10.7l-2 .75-.2.05m11.95 20q-.45-1.9-.15-5.8 2.35-.8 3.8-3.75.8-.4 1.05 1.85l.05 3.9-1.4 1.35-2.1 1.65-1.25.8m-5.45-28.1 1.1 4.7q.85-1.05 1.15-2.25l-1.6-3.15q-1-.45-.65.7m-5.3 6.05q.5.55 1.5.3l-1.1 5.15q2.45-1.45 4.55-4.8.5-4.05-.65-6.4l-4.5 4.35.2 1.4m.35 14.15q.65.85 1.75 1.35l1.9.55q.9 2.25.75 4.15v.55l.1.05.3-.5q.95-1.45.75-4.3l.95-.2.2 5.95q-.1 0-.15.1-.75.85-1.7 1.5l.05-.35-.05-.2h-.25l-1.1.15q-1.05 0-1.95-.8L24 70.55l-1.4-2.05q-.65-.9-1.45-1.2l1.2-1.05 1.7-1.7.05-.05" fill="#fdff6a"/><path d="m16.55 40.8-1.6.65-.05-.05V41l1.45-7.75 3.95 4.85-3.75 2.7m-6.7 4.05q.7 1.15 1.75 1.7l-.15.75-.1.4-.35.2q-.95 0-1.15-3.05m13.05-5.8.15.05.15-.05q5.65-4.4 10.1-11-.5 2.2-1.5 3.85l-.05.1-.4.6.2.15.55-.45.65-.55.05.1.15.1q2.95.65 5.25 2.1 4.2 4.7 6.4 11.25l-.45.4-.2.45.05.2q-2.65 2.2-4.4 4.75l-.05.1q-1.3 4.55.45 7.7v-.05l.9 1.65.75.75q1.05.9 2.5 1.1l-.4.5-.2.3-2 2.75-2.3 2.7-.05-3.9q-.25-2.25-1.05-1.85-1.45 2.95-3.8 3.75-.3 3.9.15 5.8l-.85.55q-.35-3-.15-7.05 2.75-1.25 3.8-4.65 1-3.45.45-10.15v-.5l-.4.3-2.7 2.2-.1-.05-4.85-1.45.15-.7q1.7.75 4.35.7l1.85-1.05q-2-11.85-10.9-10.35l-.1 5.1-3 3.05q0 2.45.5 4.05l-.4.1-.7.2q-.85-2.55-.65-6.25l.6-.2.05-.05.05-.05 1.8-2.3.05-.05v-.1l-.45-4.65m-.15 13.3 2-.75q-2.3 5.9-3.6 10.7l-.5.75L20 64q.65-5.55 3.2-10.6.35-.75-.05-.95l-.4-.1m-2.3 15.4-.25-.4-.35-.7 3.55-3.2.7 1.05-.05.05-1.7 1.7-1.2 1.05-.7.45" fill="#ff8c32"/><path d="M15.45 17.35Q15 20.4 15 23.45l.05.2-2 3.35-.2.45-.05.45.3.35.25.05-.7 1.75-.35.85q-.15-2.6.5-6.5t2.2-8.3l.45 1.25m30.7-1.8q-4.45 1.7-9.2 4.75l-.25.4.05.45.15.15q-3.3 1.15-7.9 3.8 7.15-14.55 20.15-20.2-4.8 4.25-6.95 8.9l6.75-7.15-.6 2-.6 1.35q-1 2.4-1.6 5.55m9.25 3.25-.35 1.95-.45 2.1q-2.85 7.05-7.95 16.6l1.3-.85.1.05.45.1.35-.25.1-.2 2.45-3.95 3.65-.1-.15.2q-1.55.85-3.1 2.7-1.65 2-2.95 4.7l-3 2.35q-2.35-8.25-8.8-11.4l-.75-.3q-1.5-.65-3.2-1.05L34.45 30q4.95.2 7.1 1.35 8.05-3.6 13.85-12.55M22.95 33.05l.2 1.4Q29 30.55 34.5 24.1l-.45 2.2-.15-.05-.4.6Q28.85 34 22.9 38.65h-.05l-.2-1.95-.3.2-.15.05-.25.15-1.05.65q-2.05-3.9-5.05-6.3l-.05-.05-.05-.05.05-.3q1.35-.2 3.75 2.2 1-5.15 4.7-8.15l-.25.85q-1.3 3.9-1.05 7.1m19 33.9 3.25-4.3.05-.25 2.7-.5H48v-.05q2.25-1.7 3.35-3h.3l.4-.25 1.9-2.8.15-.25.4-.05q.65 0 1 .65l.75 1.5q1.3 2.15 5.65 2.15l.95-.05L60.7 62q-4.2 1.2-9.15 1.35-.9 1.75-1.95 2.45L47.25 67l-3 .35-2.3-.4" fill="#c18057"/><path d="M51.15 4.6Q48.2 9.8 47.25 15v.15l-1.1.4q.6-3.15 1.6-5.55l.6-1.35q1.15-2.45 2.8-4.05m3.45 18.25q-1.4 5.5-4.1 10.7l-.05.1-2.6 4.2-.1.45.2.3-1.3.85q5.1-9.55 7.95-16.6m.3 11.6q-1.3 1.55-2.7 4.3-.15.2-.05.45l.3.35-3.6 2.3q1.3-2.7 2.95-4.7 1.55-1.85 3.1-2.7m-16.7-.4q5.25 3.25 7.25 10.5l-.85.75q-2.2-6.55-6.4-11.25m1.05 34.55 2.3-2.7 2-2.75.2-.3.4-.5.4.05-.25.35q-2.25 3.35-5 5.95l-.05-.1m2.6-1.5.1-.15 2.3.4 3-.35 2.35-1.2q1.05-.7 1.95-2.45Q56.5 63.2 60.7 62q-3.3 2.55-8.45 2.05h-.4l-.15.35q-1.7 3.3-4.1 4-2.5.65-5.75-1.25v-.05" fill="#c1fff9"/><path d="m11.8 39.25.25-.4-.1-.45q-3.3-4.8-1.1-14.8v.05q.45-1.7 1-3.15l-.7 5.35q-.3 3.7.75 7.25l.75-3.05.7-1.75h.2l.35-.3Q21.7 13.55 35 6.45q-2.15 3.35-4 7.75 4.7-3.95 7.8-5.4-7.9 7.6-10.5 16.6-2.3 4.6-5.35 7.65-.25-3.2 1.05-7.1l.3-.9-.05.05 1.25-3.6q-4.65 2.85-7.2 9.75-1.25-2.3.45-7.15-3.85 5.05-4.7 9.55-1.5 2.6-1.7 5.45h-.05l-.2-.15-.15.2-.1.15-.05-.05m24.9-13q1.8-3.15 5.15-6.35 5.65-3 11.6-4.15-7.15 8.45-17.1 11.5l.4-.7v-.2l-.05-.1m17.65 28.9q1.45.65 2.4 1.7l.05.1h.1q3.8 2.6 7 1l-1.05 1.8-.95.05q-4.35 0-5.65-2.15l-.75-1.5q-.35-.65-1-.65l-.4.05.25-.4" fill="#f2e9b3"/><path d="M11.85 20.5q2-5.65 4.8-8.5-.8 2.65-1.2 5.35L15 16.1q-1.55 4.4-2.2 8.3-.65 3.9-.5 6.5l.35-.85-.75 3.05q-1.05-3.55-.75-7.25l.7-5.35M35 6.45q2.8-1.55 5.85-2.7 6.7-2.1 12.35-2.45l-1.6 2.5-.45.8q-1.65 1.6-2.8 4.05l.6-2-6.75 7.15q2.15-4.65 6.95-8.9-13 5.65-20.15 20.2 4.6-2.65 7.9-3.8l.25.1h.2l.25-.1q9.95-6.35 18.25-6.7l-.45 4.2q-5.8 8.95-13.85 12.55-2.15-1.15-7.1-1.35l1.9-2.75q9.95-3.05 17.1-11.5-5.95 1.15-11.6 4.15-3.35 3.2-5.15 6.35l-.05-.05-.2-.05-.15.15-2.35 3.55-1.1 1.15q.75-1.65 1.1-3.8V27l.1-.7.45-2.2Q29 30.55 23.15 34.45l-.2-1.4Q26 30 28.3 25.4q2.6-9 10.5-16.6-3.1 1.45-7.8 5.4 1.85-4.4 4-7.75M24.25 25.1q-3.7 3-4.7 8.15-2.4-2.4-3.75-2.2l-.05.3-.15-.1-.15.2-.5.7-.9 1.5q.85-4.5 4.7-9.55-1.7 4.85-.45 7.15 2.55-6.9 7.2-9.75l-1.25 3.6" fill="#e0c998"/></g><g id="u" fill-rule="evenodd"><path d="M10.9 2.25Q9.35.6 7.15.6q-2.1-.05-3.7 1.6l-.05.05Q1.9 3.95 1.9 6.3q0 2 1.05 3.5l.45.55Q5 12 7.15 12.05q2.15 0 3.75-1.65 1.55-1.7 1.55-4.05 0-1.85-.9-3.25l-.15-.2-.45-.6-.05-.05M1.35 6.3q0-2.65 1.7-4.5Q4.8-.05 7.15 0q2.4 0 4.1 1.85l.65.75.15.25.4.7Q13 4.8 13 6.35l-.1 1.15q7-.05 8.65 2.9l.1.2-.05.2q-.75 2.75-3.2 5 4.1 3.85 7.1 8.85l.25.4-.4.25-1.25 1.05-1.2 1.3-.1.15-.15.05q-2.35.55-5.3-.95l-.2-.1-.05-.2q-.45-1.45-1.5-3.05.45 3.35.3 7.6v.1l-.05.05q-.9 1.05-2.15 1.5h-.05q-2.2.5-4.7-.65l-.55-.3-.15-.1v-.2q1.15-5 .85-10.25l-.05-.7-4 1.05-.1.05-.05-.05q-2.5-1.4-4.8-4.5l-.1-.1.1-.15.1-.2q1.35-2.55 2.5-4.1l1-1.25-.65-.6-.5-.6Q1.35 8.5 1.35 6.3m14.1 3.1.15.1q.6.85.6 1.25 0 .55-.6.7l-.75.25q0 2.35-.7 3.3l-.3.4 2.75.6q3.05-2.25 4-5.25-1.7-2.3-7.75-2.25h-.15l-.8 1.55h1.15l.05.05 1.15.55h.05l.45.5.7-.2.25-.2-.5-.95-.05-.2.1-.15.2-.05m-1.4 1.7-1.15-.55h-1.35l-.25.25-.05.05L9.85 12l.25.55.85 2.9q2 .3 2.8-.75.6-.85.6-3l-.3-.6h.05-.05m-.5 21.25q1.1-.4 1.85-1.3.35-10.2-2.9-15.05v-.05l-1.45.05.35 2.5v.05q-.1 1-1.75 1.8l-.15.05.1.85q.3 5.25-.8 10.25l1.7.65 3.05.15v.05M18.2 17l-.55-.55-.6.45-.1.1h-.1q-1.05.2-3.6-.75 1.4 2.3 2.1 5.8l.2-.05q.2.05.3.2 1.5 2.05 2.1 3.9 2.4 1.15 4.25.8l.95-1 1.25-1.1q-2.55-4.15-5.85-7.45L18.2 17M7.45 14.3v-1.6h-.3l-1.25-.15-.9 2.7 1.2 1.3.5-.1.35-.3.35-.6.05-1.25m-6.7 2.85q2.05 2.7 4.3 4l4.4-1.25q1.35-.65 1.45-1.4-.25-3.25-1.45-6.25l-1.5.4v1.75l-.05 1.15-.05.35-.45.6-.85.5-.35.05-1.6-1.5-.1-.1v-.1q0-.45.95-2.95l-1.4-.75-.85 1.1Q2 14.35.6 17l.15.15" fill="#434c73"/><path d="m3.9 5.3-.15-.2q-.25-.4-.1-.95.1-.55.5-.95.35-.4.75-.4t.65.4l.05.15.05.8-.5.95q-.4.4-.8.4-.3 0-.45-.2m.6.95.4.15.15.4-.15.4-.4.15-.4-.15q-.15-.15-.15-.4t.15-.4q.15-.15.4-.15m6.55 6.3.75.05q.8.25.8.9 0 1.05-.95 1.05-.15 0-.4-1.1l-.2-.9m-.55 19.6-1.7-.65q1.1-5 .8-10.25 1.25-.05 2.25-1.6l.2-2.15q2.45 2.5 1.8 13.4-1.4 1.4-3.35 1.25m-9.75-15L.6 17q1.4-2.65 2.6-4.25l.65.25q.35.25.35.8l-.4 1.75q0 .3.85 1.05l1.1.75.4-.15.4-.2.85-.5.45-.6.05-.35.05-1.15q.95.05 1.2.55l.1 2.85q.1.7-.35 1.1l-3.05 1.7-.7.15-4.4-3.6" fill="#fff"/><path d="m15.45 9.4-.2.05-.1.15.05.2.5.95-.25.2-.7.2-.45-.5h-.05l-1.15-.55-.05-.05H11.9l.8-1.55h.15q6.05-.05 7.75 2.25-.95 3-4 5.25l-2.75-.6.3-.4q.7-.95.7-3.3l.75-.25q.6-.15.6-.7 0-.4-.6-1.25l-.15-.1m-4.4 3.15.2.9q.25 1.1.4 1.1.95 0 .95-1.05 0-.65-.8-.9l-.75-.05m3-1.45.3.6q0 2.15-.6 3-.8 1.05-2.8.75l-.85-2.9-.25-.55 1.4-1.15.05-.05.25-.25h1.35l1.15.55M9.6 21.25l-.1-.85.15-.05q1.65-.8 1.75-1.8v-.05l-.35-2.5 1.45-.05V16q3.25 4.85 2.9 15.05-.75.9-1.85 1.3v-.05l-3.05-.15q1.95.15 3.35-1.25.65-10.9-1.8-13.4l-.2 2.15q-1 1.55-2.25 1.6m13.55 4.65-.95 1q-1.85.35-4.25-.8-.6-1.85-2.1-3.9-.1-.15-.3-.2l-.2.05q-.7-3.5-2.1-5.8 2.55.95 3.6.75h.1l.1-.1.6-.45.55.55q-.45.05-.45.4l1.5 1.95 1.95 2.4 1.15 2.4.35 1.2.45.55M7.95 14.4v-1.75l1.5-.4q1.2 3 1.45 6.25-.1.75-1.45 1.4l-4.4 1.25q-2.25-1.3-4.3-4l4.4 3.6.7-.15 3.05-1.7q.45-.4.35-1.1l-.1-2.85q-.25-.5-1.2-.55M3.2 12.75l.85-1.1 1.4.75q-.95 2.5-.95 2.95v.1l.1.1 1.6 1.5-.05.15-.4.15-1.1-.75q-.85-.75-.85-1.05l.4-1.75q0-.55-.35-.8l-.65-.25" fill="#6f79c0"/><path d="m18.2 17 .35.35q3.3 3.3 5.85 7.45l-1.25 1.1-.45-.55-.35-1.2-1.15-2.4-1.95-2.4-1.5-1.95q0-.35.45-.4" fill="#b4ebf0"/><path d="m6.7 16.45-.5.1-1.2-1.3.9-2.7 1.25.15h.3v1.6l-.75-.4q-.45 0-.45 1.5l.15.8.3.25" fill="#b13b1c"/><path d="m7.45 14.3-.05 1.25-.35.6-.35.3-.3-.25-.15-.8q0-1.5.45-1.5l.75.4" fill="#ff9036"/><path d="M2.95 9.8Q1.9 8.3 1.9 6.3q0-2.35 1.5-4.05l.05-.05Q5.05.55 7.15.6q2.2 0 3.75 1.65v.05l-1.45-.2-2.5.4q-1.05.3-1.4.7-.25-.4-.65-.4t-.75.4q-.4.4-.5.95-.15.55.1.95l.15.2-.05.1q-.8 2.75.55 5l-.1.05-1-.7-.35.05" fill="#0b9083"/><path d="M4.4 10.4q-1.35-2.25-.55-5l.05-.1q.15.2.45.2.4 0 .8-.4l.5-.95-.05-.8-.05-.15q.35-.4 1.4-.7l2.5-.4 1.45.2h.05l.45.6-.1.05-1.05-.3q-2.95 0-2.95 2.4 0 .65.9 1.85.9 1.2.9 1.9 0 .8-.55 1.55-.6.8-1.45.8l-2.25-.45-.4-.2-.05-.1m.1-4.15q-.25 0-.4.15-.15.15-.15.4t.15.4l.4.15.4-.15.15-.4-.15-.4-.4-.15" fill="#13d9aa"/><path d="m2.95 9.8.35-.05 1 .7.15.05.4.2 2.25.45q.85 0 1.45-.8.55-.75.55-1.55 0-.7-.9-1.9t-.9-1.85q0-2.4 2.95-2.4l1.05.3.25.15q.9 1.4.9 3.25 0 2.35-1.55 4.05-1.6 1.65-3.75 1.65Q5 12 3.4 10.35l-.45-.55" fill="#95ffff"/></g><g id="v" fill-rule="evenodd"><path d="M2.7 15q.35-.3.75-.55L4 14.1V14q-.05-2.2 2.05-4.05 0-1.1-1.05-1.6l-.3-.1L4.05 8l.4-.2.25-.1q.9-.5 1.75-.7l.9-.15h.35l.85.1q.85.2 1.55.9l.95 1.4.5-.3q-1.55-3 .9-5.15l.05-.05.1-.05q.75-.2 1.05.2.3.3.25 1.05.85.95 2.2.6h.15l.8-1.05.65-.75q1.1-1.25 2-1.65l.3-.15.25.25Q22.1 3.85 23.3 6q1.6 2.95 1.9 6.8 1.95.8 3.55 2L31 17.2l.1.3-1.4-.25-1.55-1.65q-1.4-1-3.05-1.75l-.65-.3-1.7-.65-2.15-.6-.3-.2q-7.1 2.75-9.5 7.9-.8 1.65-1.05 3.6l-.85.9q.2-2.45 1.1-4.5 2.55-5.8 10.55-8.7h.25l.15.1q1.05.2 2 .55H23l1.15.4Q23.7 7.9 21.3 4.8l-1.1-1.3-.35-.3q-1.5.95-3.8 4.45l3.05-.15q.15 0 .25.15l.1.3-.1.25-.3.1Q8.95 7.95 7.3 16.65l-.15.25-.3.05-.25-.15-.1-.3.8-2.75q-2.9.75-6.1 3.8l.65 1.4.25.4.65 1.1q2.3 3.35 6 4.25h.1l.35.25.05.35-.2.35-.4.05-.45-.1-.15-.05q-3.1-.9-5.3-3.45-1.55-1.85-2.6-4.5L0 17.3l.25-.25Q1.5 15.85 2.7 15m34.85 21.75q2.75 5 5.7 4.85l.7-.1.45-.1.15.4 2.95 9.55q2.55 9.15 3.7 17.55 1.95 15.05-.7 27.65l-.1.6-.15-.05-.4-.15q-6.3-2.35-12.3-7.55l-2.75-2.55-3.35-3.55-4.4-5.45-.15-.25q-2.9-4-5.75-8.7-4.05-6.75-7.9-15l-1.2-2.55-.6-1.3v-.35q.05-.2.25-.3l.3-.05q3.2-3.9 3.65-7.35l.05-.95-.05-.95q-.15-1.75-1.1-3.4l-.1-.05-.05-.25v-.05l.05-.05.25-1.9-.05-.2.1-.15.05-.25.1.15q9.55-5.95 19-5.4l.25.05.25.3q1.05 3.45 2.2 5.95l.45.95.5.95M13.3 5.1V5l-.05-.7h-.45q-2.05 1.85-.7 4.35.75-.35 1.6-.55l.55-.15.6-.15.1-.35.8-1.2q-1.25.15-2.1-.75l-.25-.3-.05-.05-.05-.05m-8.6 8.2-.1.45Q6 13 7.35 12.7l.4.1q1.05-2 2.8-3.2L9.9 8.55q-.65-.75-1.4-.95l-.1-.05-.2-.05h-.7l-.75.05-1.2.4q1.2.7 1.1 2.2v.1l-.1.1Q4.95 11.7 4.7 13.3m45.15 81.45q2.15-11.85.3-25.85-1.1-8.4-3.65-17.55l-2.75-8.8-.5.1q-3.85.25-7.15-6.6-1.4-2.85-2.65-6.85l-.05-.05q-9.05-.4-18.2 5.3v.05l.2.35.9 1.55q1.75 2.9 1.25 5.95l-.15.65-.4 1.2-.7 1.75-.75 1.2v.05q-1.1 1.6-2.9 3.2l.45.95 1.2 2.55q3.9 8.3 8 15 2.4 3.95 4.85 7.35l4.3 5.5 3.45 3.8 2.3 2.2q6.05 5.5 12.45 8l.1-.65.1-.35M27.75 34.2v-.05l.15-.15h.2l.2.15 4.35 10.05v.15l-.15.2h-.25l-.1-.05-.05-.1-.35-.85-4-9.15v-.2m14.9 37.1.1.05.15.15v.05l.95 2.5.4 1.1Q46.85 82.6 49.2 92l.4 1.65-.05.2-.1.1-.05.05-.25-.05-.15-.15q-2.95-12.3-6.4-21.35l-.1-.3-.15-.45v-.2l.15-.15.15-.05m-26.2-27.25V44q1.45-3.75-.65-7.3l-.65-1.15-.1.85q1.05 1.8 1.25 3.8l-.1 2.3-.3 1.15q-.85 2.95-3.5 6.15h.05l2.6-2.95.7-1.2v.05l.7-1.65" fill="#434c73"/><path d="M2.7 15q-2-1.25-2.1-4.1v-.05q.25-4.75 2.95-7.6 1.6-1.7 4.1-2.7h.1q6.8-1.95 9.95 3.2l-.65.75-.1-.15q-2.85-4.6-8.9-2.9L8 1.5h.05Q6.3 2.2 5 3.3l-.3.25-.4.45q-.75.7-1.25 1.65l-.15.25-.4.8-.6 1.9-.3 2.25q.1 2.3 1.65 3.3l.2.3q-.4.25-.75.55m28.4 2.5 2.4.7h.05l.05.05 2 1.75q3.6 3.95 4 11.9v.2l-1.7 4.35-.3.25-.05.05-.5-.95 1.55-4-.15-2-.1-.8-.35-1.75q-2.15-1.6-4.8-2.2L31 24.7l-2.25-.05-4.15.55-6.8 1.8h.05q-2.8.95-4.6 2.75-1 .95-1.65 2.15-.55.9-.85 2v-.05q-.35 2.15.05 3.95.15 1 .6 1.9v.2l4.3 1.15-.05.95h-.15l-4.55-1.2-.1-.05q-4.8-3.8-4.4-10.2.1-1.6.5-3.3v-.1L7 27.1l1.05-1.55.15.05.45.1.4-.05.2-.35-.05-.35-.35-.25h-.1l.15-.2.85-.9.4-.4q1.25-1.3 2.7-2.3h.05q.5-.4 1.05-.7l.35-.2q.75-.45 1.6-.8l1-.4 1.3-.45 1.8-.5 4.6-.65 3.7-.05 1.4.1 1.4.25m1.55 26.7q6.4 3.6 8.9 7.15l.65 1v.05l1.85 5.7v.1q.4 6.35-.65 10.7l-.65 2.15-.1.25-.25-.1-3.9-2.3q-3.2-2.15-6.85-5.45l-.05-.05-1.1-2.4q-1.25-3.05-2.1-7.1l-.1-.4v-.1l.05-.05.5-2q.9-3 2.55-5.65l.75-1.2.1.05h.25l.15-.2v-.15m9.75 10.55-.7-2.2-.75-1.2q-1.3-1.65-3.4-3.3l-1.05-.85-3.9-2.45-.85 1.3q-1.5 2.5-2.4 5.3l-.55 2.1.05.3.05.15.75 2.95q.65 2.5 1.55 4.5l.85 1.8Q36 66.7 39.4 68.9l3 1.7.5-1.7q.95-3.9.7-9.6l-.05-1-1-3.1-.15-.45M33.2 24.2q2.4.55 4.5 1.85-1.1-3.8-3.5-6.05l-1.05-.85-3.15-.8-.55-.1-.6-.05-1-.05h-1.8l-1.35.1-4.5.6-1 .25-1.3.4-.15.05-.3.1-.05.05-.8.3-1.55.75q-2.4 1.3-4.35 3.3-1.35 1.35-2.5 3.05l-.35.5q-.7 3.15-.3 5.75.5 3.1 2.6 5.4l-.3-1.85q-.15-1.5.1-3.2v-.05H10q.3-1 .75-1.85.85-1.6 2.15-2.85 1.85-1.75 4.7-2.7l2.5-.65 4.3-1.15v-.05l4.25-.6 2.15.05 2.4.35" fill="#a63914"/><path d="M13.7 8.1q-.85.2-1.6.55-1.35-2.5.7-4.35h.45l.05.7v.1l-.5-.35q-.35 1.95.2 2.7l.7.65m-9 5.2q.25-1.6 1.85-2.95l.1-.1v-.1q.1-1.5-1.1-2.2l1.2-.4.75-.05.05.2-.65.25q.8.55 1 .8.35.4.35 1.05 0 1.05-.9 2.5l-1.4.4q-.75.15-1.25.6m-2.85 5.65-.65-1.4q3.2-3.05 6.1-3.8l-.8 2.75.1.3.25.15.3-.05.15-.25q1.65-8.7 11.75-8.35l.3-.1.1-.25-.1-.3q-.1-.15-.25-.15l-3.05.15q2.3-3.5 3.8-4.45l.35.3.15.6-.15.1q.25 2.8-1.15 6-8.3 2-10.7 9.8L8 21.3q-2.1-.1-3.8-1.3-1.3-.9-2.35-2.35-.15.75 0 1.3m41 25.75.4 1 1.9 5.65.7 2.75q-1.15-1.1-2.6-1.75l-.9-.35-.1-.65q-.75-3.1-4.7-5.05l1.3-3.65 4 2.05m6.9 50.4-.1.65q-6.4-2.5-12.45-8-2.15-8.15-1-19.05l6.3 3.45.1.3Q46.05 81.5 49 93.8l.15.15.25.05.05-.05.2.75.1.4M34.9 85.55l-3.45-3.8q-.1-7.8 2-14.85.3-.35 1.1.5-.65 10.35.35 18.15m-7.75-9.3q-2.45-3.4-4.85-7.35-4.1-6.7-8-15l-1.2-2.55-.45-.95q1.8-1.6 2.9-3.2v-.05l.75-1.2.7-1.75.4-1.2.15-.65q.5-3.05-1.25-5.95l-.9-1.55q1.35-.7 5.95-2.15l4.85-1.4q.4 0 .95 1.45l.6 1.45v.2l4 9.15q-2.15 3.05-3.8 7.8l-.75 2.4 3.75 11.05q-1.85 2.5-3.8 11.45m15.8-4.7q1.15-2.25 2-6.45 2.75 5 5.15 10.9l-.25 12.7q-2.65-8-5.6-13.55l-.4-1.1-.95-2.5h.05M38.3 42q-.9 1.2-1.45 4.05L34.2 44.3q1.15-1.7 2.15-4.3.7 1.55 1.95 2m6.8 21.65L45 59.9q4.55 4.2 4.8 12.55-2.25-4.9-4.7-8.8m-29.2-20 .3-1.15.1-2.3q-.2-2-1.25-3.8l.1-.85.65 1.15q2.1 3.55.65 7.3v.05l-.55.45v-.85" fill="#fff"/><path d="m13.3 5.1.05.05.05.05.25.3q.85.9 2.1.75l-.8 1.2-.1.35-.6.15-.55.15-.7-.65q-.55-.75-.2-2.7l.5.35M8.2 7.5l.2.05.1.05q.75.2 1.4.95l.65 1.05q-1.75 1.2-2.8 3.2l-.4-.1Q6 13 4.6 13.75l.1-.45q.5-.45 1.25-.6l1.4-.4q.9-1.45.9-2.5 0-.65-.35-1.05-.2-.25-1-.8l.65-.25.65-.2m14.75 4.45q-.95-.35-2-.55l-.15-.1h-.25q-8 2.9-10.55 8.7-.9 2.05-1.1 4.5l-.15.2q-3.7-.9-6-4.25l-.65-1.1-.25-.4q-.15-.55 0-1.3Q2.9 19.1 4.2 20q1.7 1.2 3.8 1.3l.35-1.3q2.4-7.8 10.7-9.8 1.4-3.2 1.15-6l.35.2 1.2 2.25Q23 9.45 23 11.8l-.05.15m19.9 32.75-4-2.05-1.3 3.65q3.95 1.95 4.7 5.05l.1.65.9.35q1.45.65 2.6 1.75l-.7-2.75-1.9-5.65-.4-1M15.4 34.85l-.2-.35v-.05q9.15-5.7 18.2-5.3l.05.05q1.25 4 2.65 6.85 3.3 6.85 7.15 6.6l.5-.1 2.75 8.8q2.55 9.15 3.65 17.55 1.85 14-.3 25.85l-.2-.05-.2-.75.1-.1.05-.2-.4-1.65q-2.35-9.4-4.95-16.85 2.95 5.55 5.6 13.55L50.1 76q-2.4-5.9-5.15-10.9-.85 4.2-2 6.45l-.05-.05-.15-.15-.1-.05.1-.25.65-2.15q1.05-4.35.65-10.7v-.1l-1.85-5.7v-.05l-.65-1q-2.5-3.55-8.9-7.15L28.3 34.15l-.2-.15h-.2l-.15.15v.05l-.6-1.45q-.55-1.45-.95-1.45l-4.85 1.4q-4.6 1.45-5.95 2.15m21.8 52.9-2.3-2.2q-1-7.8-.35-18.15-.8-.85-1.1-.5-2.1 7.05-2 14.85l-4.3-5.5q1.95-8.95 3.8-11.45L27.2 53.75l.75-2.4q1.65-4.75 3.8-7.8l.35.85.05.1-.75 1.2q-1.65 2.65-2.55 5.65l-.5 2-.05.05v.1l.1.4q.85 4.05 2.1 7.1l1.1 2.4.05.05q3.65 3.3 6.85 5.45l3.9 2.3.1.15-.15.15v.2l.15.45-6.3-3.45q-1.15 10.9 1 19.05M38.3 42q-1.25-.45-1.95-2-1 2.6-2.15 4.3l2.65 1.75Q37.4 43.2 38.3 42m6.8 21.65q2.45 3.9 4.7 8.8-.25-8.35-4.8-12.55l.1 3.75m-28.65-19.6-.7 1.65v-.05l-.7 1.2-2.6 2.95h-.05q2.65-3.2 3.5-6.15v.85l.55-.45" fill="#6f79c0"/><path d="m1.9 8.6.6-1.9.4-.8q.5 1.25 1.55 1.9l-.4.2.65.25.3 1.8q-.8 1.75-1.25 1.75-.5 0-1.15-1-.7-1.05-.7-2.2M4.3 4l.4-.45.3-.25L8.05 2Q9.4 2 9.9 3.55l.3 2.95-.1 1.35q-.7-.7-1.55-.9l-.85-.1.05-.55q0-.7-.75-1.8-.75-1.15-1.35-1.15l-.95.2 1.7 2.1.95 1.2-.9.15L4.3 4m38.1 50.75.15.45-2.1 3.55q1.15 4 1.75 8.85l1.4-8.3q.25 5.7-.7 9.6l-.5 1.7-3-1.7q-3.4-2.2-7.35-5.75l-.85-1.8q2.4 1.55 4.7 1.9l.35-2q-3.55-1.7-6.6-4.4l-.75-2.95-.05-.15.2.15q3.95 3.55 7.75 4.75l.25-4.35-5.3-8.25.85-1.3 3.9 2.45q-1.4-.7-2.75-1.05l3.3 5.2 1.4 2.55 1.7 3.65 2.25-2.8M33.2 24.2l-2.4-.35-.75-2.65-.65-1.2-1.55-1.85 1 .05.6.05.55.1L31.45 20l1.15 2.05q.5 1.05.6 2.15m-4.55-.4-4.25.6v.05l-4.3 1.15-.95-2.4-1.5-3.2-.2-.35.3-.1.15-.05.45.5.75 1.1.85 1.55.65 1.4.6 1.1.9-.7.45-1-.5-1.1-.95-1.45-.85-.9-1.05-.9 1-.25 4.5-.6 1.35-.1h.3l.95 1.5.2.35.65 1.5.5 2.3M12.9 28.95q-1.3 1.25-2.15 2.85l-.55-.25-.75-.8q-.4-.4-.85-1.9l-.4-1.75q1.15-1.7 2.5-3.05l2.2 4.9" fill="#fdff6a"/><path d="m3.45 14.45-.2-.3q-1.55-1-1.65-3.3l.3-2.25q0 1.15.7 2.2.65 1 1.15 1 .45 0 1.25-1.75l-.3-1.8.3.1q1.05.5 1.05 1.6Q3.95 11.8 4 14v.1l-.55.35M5 3.3q1.3-1.1 3.05-1.8v-.05q6.05-1.7 8.9 2.9l.1.15-.8 1.05h-.15q-1.35.35-2.2-.6.05-.75-.25-1.05-.3-.4-1.05-.2l-.1.05-.05.05q-2.45 2.15-.9 5.15l-.5.3-.95-1.4.1-1.35-.3-2.95Q9.4 2 8.05 2L5 3.3m33.45 26.5-.8 2.65-1.05 2.4q-1.15-2.5-2.2-5.95l-.25-.3-.25-.05q-9.45-.55-19 5.4l-.1-.15-.05.25-.1.15.05.2-.25 1.9-.05.05v.05l.05.25.1.05q.95 1.65 1.1 3.4l-2.4-.55q-1.75-.6-2.45-1.75-.4-1.8-.05-3.95v.05q.3-1.1.85-2 .65-1.2 1.65-2.15 1.8-1.8 4.6-2.75h-.05l6.8-1.8 4.15-.55 2.25.05 2.2.35q2.65.6 4.8 2.2l.35 1.75.1.8M36.5 47.2l1.05.85q2.1 1.65 3.4 3.3l.75 1.2.7 2.2-2.25 2.8-1.7-3.65-1.4-2.55-3.3-5.2q1.35.35 2.75 1.05m6.05 8 1 3.1.05 1-1.4 8.3q-.6-4.85-1.75-8.85l2.1-3.55M30 18.35l3.15.8 1.05.85q2.4 2.25 3.5 6.05-2.1-1.3-4.5-1.85-.1-1.1-.6-2.15L31.45 20 30 18.35m.8 5.5-2.15-.05-.5-2.3-.65-1.5-.2-.35-.95-1.5h1.5L29.4 20l.65 1.2.75 2.65M10.75 31.8q-.45.85-.75 1.85h-.05v.05q-.25 1.7-.1 3.2-1.55-1.5-2.3-3.55-.4-2.6.3-5.75l.35-.5.4 1.75q.45 1.5.85 1.9l.75.8.55.25" fill="#ff8c32"/><path d="m2.9 5.9.15-.25Q3.55 4.7 4.3 4l2.15 3q-.85.2-1.75.7l-.25.1Q3.4 7.15 2.9 5.9m1.8-2.35.95-.2q.6 0 1.35 1.15.75 1.1.75 1.8l-.05.55h-.35l-.95-1.2-1.7-2.1m26.5 57.8q-.9-2-1.55-4.5 3.05 2.7 6.6 4.4l-.35 2q-2.3-.35-4.7-1.9m-2.35-7.6-.05-.3.55-2.1q.9-2.8 2.4-5.3l5.3 8.25-.25 4.35q-3.8-1.2-7.75-4.75l-.2-.15M20.1 25.6l-2.5.65q-2.85.95-4.7 2.7l-2.2-4.9q1.95-2 4.35-3.3L16.6 20l.8-.3.05-.05.2.35 1.5 3.2.95 2.4m-2.2-6.1 1.3-.4 1.05.9.85.9.95 1.45.5 1.1-.45 1-.9.7-.6-1.1-.65-1.4-.85-1.55-.75-1.1-.45-.5" fill="#fcfcf9"/><path d="m36.6 34.85 1.05-2.4.8-2.65.15 2-1.55 4-.45-.95M10.8 37.8q.7 1.15 2.45 1.75l2.4.55.05.95-4.3-1.15v-.2q-.45-.9-.6-1.9m-.95-.9.3 1.85q-2.1-2.3-2.6-5.4.75 2.05 2.3 3.55" fill="#c0f6ee"/><path d="M21.3 4.8q2.4 3.1 2.85 7.55l-1.15-.4v-.15q0-2.35-1.25-5.15l-1.2-2.25.75.4" fill="#c0fdf8"/><path d="M9.75 23.6Q10 21.65 10.8 20q2.4-5.15 9.5-7.9l.3.2 2.15.6 1.7.65.65.3L27 15.7l1.3 1.45-3.7.05q-.35-.95-1.75-1.9-2-1.35-3.55-1.35-1.6 0-4.05 1.8l-.5.4-.6.5-.4.4-.6.8q-.65.95-.65 1.85v.3l.1.55.25.35q-1.45 1-2.7 2.3l-.4.4" fill="#4987d3"/><path d="m14.75 16.15.5-.15q.8 0 1.4.3.7.35.7 1.05l-.45 1.45-1 .4q-.85.35-1.6.8l-.35.2-.35-.2q-.6-.45-.6-1.2 0-.5.15-.95l.6-.8.4-.4.6-.5m4.2-.4q.35 0 .6.25l.3.65-.3.6q-.25.3-.6.3l-.65-.3-.25-.6q0-.35.25-.65.3-.25.65-.25" fill="#fdfdf9"/><path d="M25.1 13.85q1.65.75 3.05 1.75l1.55 1.65-1.4-.1L27 15.7l-1.9-1.85m-8.2 4.95.45-1.45q0-.7-.7-1.05-.6-.3-1.4-.3l-.5.15.5-.4q2.45-1.8 4.05-1.8 1.55 0 3.55 1.35 1.4.95 1.75 1.9l-4.6.65-1.8.5-1.3.45m2.05-3.05q-.35 0-.65.25-.25.3-.25.65l.25.6.65.3q.35 0 .6-.3l.3-.6-.3-.65q-.25-.25-.6-.25" fill="#7bc8ee"/></g><use ffdec:characterId="2" height="68.85" transform="translate(2.1)" width="118.35" xlink:href="#m" id="c"/><use ffdec:characterId="9" height="57.6" width="66.85" xlink:href="#n" id="d"/><use ffdec:characterId="11" height="28.25" width="16.45" xlink:href="#o" id="e"/><use ffdec:characterId="13" height="31.65" width="24.95" xlink:href="#p" id="f"/><use ffdec:characterId="15" height="23.05" width="17.9" xlink:href="#q" id="g"/><use ffdec:characterId="17" height="64.8" width="41.6" xlink:href="#r" id="h"/><use ffdec:characterId="19" height="25" width="27.2" xlink:href="#s" id="i"/><use ffdec:characterId="21" height="77.45" width="66.5" xlink:href="#t" id="j"/><use ffdec:characterId="27" height="32.95" width="25.75" xlink:href="#u" id="k"/><use ffdec:characterId="29" height="97.15" width="52.05" xlink:href="#v" id="l"/><path d="M23.1-3.7Q32-2.45 32-.65q0 1.75-8.9 3L1.65 3.6l-21.5-1.25q-8.9-1.25-8.9-3 0-1.8 8.9-3.05l21.5-1.2L23.1-3.7" fill-opacity=".349" fill-rule="evenodd" transform="translate(28.75 4.9)" id="b"/></defs></svg>