<svg xmlns:ffdec="https://www.free-decompiler.com/flash" xmlns:xlink="http://www.w3.org/1999/xlink" ffdec:objectType="frame" height="90" width="90" xmlns="http://www.w3.org/2000/svg"><use ffdec:characterId="36" height="224.6" transform="matrix(.3334 0 0 .3331 -.4 11.09)" width="274.2" xlink:href="#a"/><defs><g id="a" transform="translate(1.2 -33.3)"><use ffdec:characterId="1" height="9.8" transform="matrix(1.8376 0 0 3.462 68.908 222.886)" width="55.5" xlink:href="#b"/><use ffdec:characterId="3" height="27.95" transform="translate(15.85 176.9) scale(1.017)" width="58.55" xlink:href="#c"/><use ffdec:characterId="5" height="52.45" transform="translate(75.4 131.05) scale(1.017)" width="26.2" xlink:href="#d"/><use ffdec:characterId="7" height="103" transform="translate(129.35 113.45) scale(1.017)" width="117.3" xlink:href="#e"/><use ffdec:characterId="9" height="35.6" transform="translate(97.6 98.55) scale(1.017)" width="34.3" xlink:href="#f"/><use ffdec:characterId="11" height="81.6" transform="translate(.3 65.65) scale(1.017)" width="69.15" xlink:href="#g"/><use ffdec:characterId="13" height="60.25" transform="translate(18.9 47.3) scale(1.017)" width="47.95" xlink:href="#h"/><use ffdec:characterId="15" height="58.75" transform="translate(109.45 153.2) scale(1.017)" width="32.05" xlink:href="#i"/><use ffdec:characterId="17" height="63.95" transform="translate(81.05 119.35) scale(1.017)" width="66.05" xlink:href="#j"/><use ffdec:characterId="23" height="90.7" transform="translate(56.1 40.9) scale(1.017)" width="52.4" xlink:href="#k"/><use ffdec:characterId="25" height="70.65" transform="translate(100.95 41.8) scale(1.017)" width="112.35" xlink:href="#l"/><use ffdec:characterId="27" height="31.35" transform="translate(100.7 86.05) scale(1.017)" width="28.4" xlink:href="#m"/><use ffdec:characterId="29" height="64.95" transform="translate(75 134.25) scale(1.017)" width="38.95" xlink:href="#n"/><use ffdec:characterId="31" height="70.85" transform="translate(126.2 147.75) scale(1.017)" width="48.75" xlink:href="#o"/><use ffdec:characterId="33" height="103.2" transform="translate(179.15 45.9) scale(1.017)" width="76.45" xlink:href="#p"/><use ffdec:characterId="35" height="33.5" transform="translate(202.55 171.75) scale(1.017)" width="68.15" xlink:href="#q"/></g><g id="J" fill-rule="evenodd"><path d="m38.4 2.2 6.45.55h.05q-1.65 1.35.45 3.6 2.8 2.85 5.85 1.45 1.5-.45 1.7-2.15 2 1.25 3.7 2.95l.6 1.2q.85 2.3.5 4.25-9.3-.65-13.9-6.6l.55-.35.3-.75q0-.55-.35-.95l-.75-.3q-.45 0-.8.35l-.3.8Q40.3 5.2 38.4 2.2" fill="#fe70c2"/><path d="M56.6 8.6q-1.7-1.7-3.7-2.95-.2 1.7-1.7 2.15-3.05 1.4-5.85-1.45-2.1-2.25-.45-3.6h-.05L38.4 2.2l-5.85.3q-8.4 3.35-13.25 3.6l3.75-1.05h.15Q37.15-.65 44.15 1l.5.05Q53.7 3.25 56.6 8.6M42.45 6.25l.3-.8q.35-.35.8-.35l.75.3q.35.4.35.95l-.3.75-.55.35h-.2q-.45.05-.8-.35l-.35-.75v-.1m4.35 5.95q-.3-.9-2.05-1.9l-.15-.15.2-.05q4.25 2.05 3.1 4.4-1.2 1.45-1.35.85 1-.2.65-2.45l-.3-.55-.1-.15m5.6 7.05q-7.2 3.65-11.25-.6l-.1-.1q-1.25-2.65-.25-4.65-.15 2.55.9 4 .4-1.55 2.1-.85 1.8.85 1 2.65l7.6-.45" fill="#fff"/><path d="M57.7 14.05q.35-1.95-.5-4.25l-.6-1.2q-2.9-5.35-11.95-7.55l-.5-.05q-7-1.65-20.95 4.05h-.15L19.3 6.1l-.6.2-2.8.85q4.9 2.5 11.6 1.7l-3.9.65-4.2-.25q-5.45 2.85-10.95 4.4l-.6.15-6.2 1.2q3 2.35 6.05 3.85 10.1 4.75 20.65-.4l-1.2 1-4.25 3.35h.05q4.65 2.7 12.35-.95l-.7.75-2.15 2.6-.95 1.15q4.15.35 8.55-2.05-.45 2.3-.2 3l.3.35q3.95-.7 7.1-5.35-4-.15-6.3-2-2.3-1.45-1.55-5.4 1.35-3.6 4.15-4l.1.05q2-.2 3.15 1.25l.1.15.3.55q.35 2.25-.65 2.45l-.2.05h-.05l.65-1.3V14q.35-1.7-2.5-2.7-2.15-.15-4.05 2.15-2.2 4 1.35 6.95 5.65 2.45 11.5-.55 2.35-1.45 3.5-3.2.75-1.2.95-2.55v-.05M31 1.65Q47.7-3.5 56.65 7.3q4.2 7.7-1 11.7h-.15q-3 2.65-6.7 3l-3.25 3.05q-2.6 3.05-5.75 2.9-.75-.5-.6-2.55-4.95 2.5-8.65 1.5.55-1.45 2.4-3.35-5.85 2.35-11.25-.4l2.7-2.65Q10.75 24.95 0 14.4q7.4.05 18.75-5.35-3.65-1.2-4.35-2.35 5.8-.55 16.6-5.05" fill="url(#r)"/><path d="M38.4 2.2q1.9 3 4.05 4.05v.1l.35.75q.35.4.8.35h.2q4.6 5.95 13.9 6.6v.05q-.2 1.35-.95 2.55L52.5 19.2l-.1.05-7.6.45q.8-1.8-1-2.65-1.7-.7-2.1.85-1.05-1.45-.9-4 .4-.9 1.35-1.7l.15-.1q3.3-1.7 4.65 1.9v.1l-.65 1.3h.05l.2-.05q.15.6 1.35-.85 1.15-2.35-3.1-4.4l-.2.05q-4.1-.05-6 3.65l-.4 1.75-.15.7q-.2 1.75.2 3.1l.05.05-.05.05q-3.4 2.25-15.3 3.35h-.05l4.25-3.35 1.35-.85q3.9-2.6 5.9-6.45-8.35 8.7-26.7 6.7-3.05-1.5-6.05-3.85l6.2-1.2Q18.7 15.1 30.2 9.1q-12.75 4.35-21.75 4.55 5.5-1.55 10.95-4.4l4.2.25q3.65.25 6.7-1.75Q25.65 9.6 18.7 6.3l.6-.2q4.85-.25 13.25-3.6l5.85-.3m-6.3 15.85q4.3-2.2 4.35-4.7-2.1 1.15-4.35 4.7" fill="url(#s)"/><path d="M38.2 15.55q.2-.95.5-1.25-.55 2.55.35 4.65 1.95 3.75 5.2 4.35l1.65-.9 1.35-.1q-3.15 4.65-7.1 5.35l-.3-.35 3.65-3.35-1.85-.8q-1.2-.75-2.3-2.05l-1.05-1.65v-.05l-.05-.05q-.4-1.35-.2-3.1l.15-.7m-5.75 9.65q4.7-.3 9.05-1.9l-1.4.95-.05.05q-4.4 2.4-8.55 2.05l.95-1.15M7.7 18.85q18.35 2 26.7-6.7-2 3.85-5.9 6.45l-1.35.85 1.2-1q-10.55 5.15-20.65.4m15.25 3.95q11.9-1.1 15.3-3.35-1.05 1.4-3.65 3.15l.7-.75q-7.7 3.65-12.35.95" fill="#7aa850"/><path d="m47.25 22.3-1.35.1-1.65.9q-3.25-.6-5.2-4.35-.9-2.1-.35-4.65-.3.3-.5 1.25l.4-1.75q1.9-3.7 6-3.65l.15.15q1.75 1 2.05 1.9-1.15-1.45-3.15-1.25l-.1-.05q-2.8.4-4.15 4-.75 3.95 1.55 5.4 2.3 1.85 6.3 2" fill="#b2e967"/><path d="M46.95 14q-1.35-3.6-4.65-1.9l-.15.1q-.95.8-1.35 1.7-1 2 .25 4.65l.1.1q4.05 4.25 11.25.6l.1-.05 4.25-2.55q-1.15 1.75-3.5 3.2-5.85 3-11.5.55-3.55-2.95-1.35-6.95 1.9-2.3 4.05-2.15 2.85 1 2.5 2.7" fill="#d9dd4a"/><path d="m38.3 19.45 1.05 1.65q1.1 1.3 2.3 2.05l1.85.8-3.65 3.35q-.25-.7.2-3l.05-.05 1.4-.95q-4.35 1.6-9.05 1.9l2.15-2.6q2.6-1.75 3.65-3.15h.05" fill="#f0d804"/><path d="M32.1 18.05q2.25-3.55 4.35-4.7-.05 2.5-4.35 4.7" fill="#fdfff0"/><path d="m7.85 13.8.6-.15q9-.2 21.75-4.55-11.5 6-22.35 4.7" fill="#fefaf9"/><path d="m23.6 9.5 3.9-.65q-6.7.8-11.6-1.7l2.8-.85q6.95 3.3 11.6 1.45-3.05 2-6.7 1.75" fill="#c1a0b3"/></g><g id="K" fill-rule="evenodd"><path d="M17.05 2.95q1.1 5.85.9 11.6l.8-.2q1.15-5.7-1.7-11.4M8.45 16.4l.25-.7q-.15-7.55 2.45-14.05h-.05q-.45.75-.7.3Q7.65 8.1 8 15.75l-.3.75.75-.1" fill="#8d80ae"/><path d="M13.3 0q2.25 1.65 2.7 5.6.9 5.85-1.85 9.65l3.8-.7q.2-5.75-.9-11.6Q15.4.25 13.3 0" fill="#ded5f0"/><path d="M14.15 15.25Q16.9 11.45 16 5.6q-.45-3.95-2.7-5.6-.7.85-2.15 1.5v.15Q8.55 8.15 8.7 15.7l-.25.7 5.7-1.15" fill="#fff"/><path d="m18 13-.1 2.05h.05q-.1.6.15.75.25.2.9-.35l.05.45-.2.55q-1.75 1.95-1.6 2.4l.1.1q2.45-2.75 5.5-3.75l-.65 2.4q-1.25 3.3-3.7 5.8 5.75-2.65 7.25-1.8l-.25.9q-1.05 3.8-6.6 6.85l.05.25q4.85-.3 2.2 2.25l-.6.4q-2.65 1.85-4.1 1.05l-.55 3.35-.85 2.2 1 3.3q-.1 1.65-1.35 2.5l-2.15.15-.7-.15q-.7-.25-1.6-3.85L10 39.7q-1.2 3.95 1.25 5.7l-.6.9q-3.45 1.7-5.6-.05l-.15-.65q-.55-2.65 0-5.9-1.45 3.3-1.1 5.55l-2-.5q-.5-.3-.65-.8l-.05-.15q-.35-2.3 1.2-4.75l.05-.2.2-3.35q1.55-9 5.75-17.25v-.1l.25-.85q.55-.6-.3-.5l.45-1.1v-1l-.75.1.05.95q-.9 2 0 1.95-3.35 4.75-5.2 12.1l-.05.1q-2.05 8.2-1.4 8.9-1.6 3.65-1.3 5.15.2.85 1.25 1.3-.6 2 1.95 4.65 1.45 1.1 1.55.8-.15-1.25.4-3.45l.55.45q2.5 4.55 6.6 4.75-.65-2.5-.8-5.8l.55-.9q3.2 3.75 7.1 2.5-1.6-1.75-2.55-4.75 1-2.05-.75-4.75 1.2-1.5 1.3-4.35 4.6-.05 6-4.45.2-.4-1.65-1.05 2.8-2.15 4.05-4.55l.1-.05q.9-2 .25-3.95-2.25 0-4.5.9 2.8-4.9 2.15-7.15-1.55-.05-3.75 1.6l.2-1.9-1.4 1.1.35-2.05-1 .15m-3.2 32.1q1.1-.4 1.15-1.1.4 1.75 1.15 3.05l.55.85q-3-.65-4.65-2.35l1.8-.45M3.65 49.4Q2.45 47.75 2 45.2l1.25.45.7-.05.5.95q-.65 1.8-.6 3.1l-.2-.25m7.2 2Q7.8 49.6 6.7 47.55l2 .05 1.9-.7q.05 3.05.7 4.75l-.3-.2-.15-.05" fill="#8c7fab"/><path d="M18.1 15.8q-1.55 1.4-1.9 2.4 1.4-.3 2.85-2.3l-.05-.45q-.65.55-.9.35m-.85 3.05q-1.35 2.95-1.6 5.1l-.45.45q1.8-.35 7-6.8l.65-2.4q-3.05 1-5.5 3.75l-.1-.1m1.15 4.65q-2.15 2-3.45 4-.55.95.6.95 4.75.35 9.95-5.95l.25-.9q-1.5-.85-7.25 1.8l-.1.1m.55 6.1q-2.85.95-4.7 2.25l1.05.1 5.25.3.6-.4q2.65-2.55-2.2-2.25m-2.5 3.7q-.95-.15-1.4-.85.2 1.1.65 1.55.3 1.55.2 2.65l.55-3.35m-3.9 11.5q2.35-.75 2.3-3.1-.25-2.9-3.25-3.85 1.7-3.15 2.5-7.75.75-7.2-2.25-12.55h.05q2.2-1.7 3.25-4L8.7 14.7v1l-.45 1.1q.85-.1.3.5l-.25.85v.1Q4.1 26.5 2.55 35.5l-.2 3.35-.05.2Q.75 41.5 1.1 43.8l.05.15q.15.5.65.8 1.05-.35 1.35-1.85.1-3.25 1.75-3.2-.55 3.25 0 5.9 2.25 2.25 3.9-.3 1.1-2.45-.85-4.1 1.75-1 2.05-3 .4 1.45.25 2.6.9 3.6 1.6 3.85l.7.15" fill="#fff"/><path d="M18.1 15.8q-.25-.15-.15-.75h-.05L18 13l-2.85.55q-1.05 2.3-3.25 4h-.05q3 5.35 2.25 12.55-.8 4.6-2.5 7.75 3 .95 3.25 3.85.05 2.35-2.3 3.1l2.15-.15q1.25-.85 1.35-2.5l-1-3.3.85-2.2q.1-1.1-.2-2.65-.45-.45-.65-1.55.45.7 1.4.85 1.45.8 4.1-1.05l-5.25-.3-1.05-.1q1.85-1.3 4.7-2.25l-.05-.25q5.55-3.05 6.6-6.85-5.2 6.3-9.95 5.95-1.15 0-.6-.95 1.3-2 3.45-4l.1-.1q2.45-2.5 3.7-5.8-5.2 6.45-7 6.8l.45-.45q.25-2.15 1.6-5.1-.15-.45 1.6-2.4l.2-.55q-1.45 2-2.85 2.3.35-1 1.9-2.4M1.8 44.75l2 .5Q3.45 43 4.9 39.7q-1.65-.05-1.75 3.2-.3 1.5-1.35 1.85m3.1.85.15.65q2.15 1.75 5.6.05l.6-.9Q8.8 43.65 10 39.7l.25 1.1q.15-1.15-.25-2.6-.3 2-2.05 3 1.95 1.65.85 4.1-1.65 2.55-3.9.3" fill="#ded5f0"/><path d="M17.1 47.05q-.75-1.3-1.15-3.05-.05.7-1.15 1.1.25 1 2.3 1.95M3.65 49.4l.2.25q-.05-1.3.6-3.1l-.5-.95-.7.05q-.3.95.4 3.75m5.05-1.8q.25 1.6 2.15 3.8l.15.05.3.2q-.65-1.7-.7-4.75l-1.9.7" fill="#b89ad8"/><path d="m14.8 45.1-1.8.45q1.65 1.7 4.65 2.35l-.55-.85q-2.05-.95-2.3-1.95m-11.55.55L2 45.2q.45 2.55 1.65 4.2-.7-2.8-.4-3.75m7.6 5.75q-1.9-2.2-2.15-3.8l-2-.05q1.1 2.05 4.15 3.85" fill="#f3f3f3"/></g><g id="L" fill-rule="evenodd"><path d="M1.85 35.2 0 34.35q-.1-10.55 8.9-19.2l2.05-3.3.2 4.75q4.2-2.95 7.1-3Q39.8-8.6 63.6 5.45q8.7-2.25 9.1 6.35-.55 3.45-4.55 5.95 5.6 1.05 10.8 4.65 8.5 4.85 11.8 4.6-3.25-3.25.1-7.2 5.3-6.8 12.25-2.6 8 5.1 5.8 16.3-3.3 12.1-10.5 19.65 3.55.95 8.85 9.55 1.9-5.05 7.05-2.85 4.3 3.85 2.45 6.9-5.55 8.7-21.35 5.85 5.6 18.2-4.75 26.75-7.4 5.25-12.25-1.8l-1.65-1.8q-7.3 1.6-15.8-1.2-1.6 11.2-29.4 7.55-3.55-1.45-1.2-2.6-22.9-5.55-15.25-44.8l.45.15q-2.15 18.55.1 28.4 1.3 5.85 4.15 8.65l.35.3q3.9 4.75 10.8 6.7l-.35 1.1q15.85 4.55 25.15-.5 4.05-2 3.4-5.5v-.1q-2.75-.95-5.45-2.6l-.85-.5q-3.45-2.4-6.85-6-2.45-3.55-4.25-7.2-2.2-4.5-3.4-9.2l-.1-.15q-5.05-21.9-20.8-21.4l-5.35.7v.15l-.75-1.7q1.8-10.8 2.35-12.45l.55-1.5q1.55-3.4 4.6-6.25 7-6.5 22.15-10.4 9.2-1.65 19.9.5l.55.1 4.05.95.9.2q5-1.95 5.05-6.05l-.05-1.05-.15-.95.05-.05-.05-.1q-1.75-3.5-7.2-2.25-2.15 1.75-1.45 3.2l-.05.05q.5 2.05 2.95 1.5h.1q1.8-.75 1.7-.4l-.15.15-.1.1q-2.6 2.45-5.2-.15-1.4-2.25.7-4.95Q47.2-2.75 33.25 4 12.15 12.55 9.2 40.8L8 37.95l-.05-.05-.05-.1q3.9-16.2 9.55-22.8-4.45 1.4-7.1 4.1l-.1-.1-.15-3.55-.65.65-.2.15Q.5 25.3 1.85 35.2m11.45 2.85-.35 2.75.1.05-.15.15-.55 4.55-.15 1.3 5.25-.8q12.3-.35 19.25 14.5l.05.1 4.3 12.5q3.95 10.8 11 15.4 2.2 1.5 4.45 2.7l.35.15q4.3 2.2 8.85 3.1l.15.05 10.8.45-.05-.9q-.05-4.2 4.1-6.3 3.2-1.65 5.4 1.65l.05.05v.1l.05.1q.9 3.25-1.1 4.3l-2.4.45q3.85-2.35.95-5-2-.95-3.7.4-.9.65-1.7 1.9-1.1 2.9.5 4.65 6.6 7.35 13 .45 6.2-7.25 3.35-20.6-3.45-10.45-9.45-15.7-7.35 2.7-15.2 2.25l-2.65-.05q-6.2-.45-12.65-2.9-6.95-2.7-13.05-10.25l-.25-.3Q31.6 36.75 21.95 37.35l-.15.05-1.2.1q-2.4.4-4.8 1.65 2.1-1.15 4.15-1.8 3.15-.95 6.3-.75l3.2.75.2.1Q36.2 40 44.2 50q7.95 9 20.85 11.3l.1.05 6.2.5h.55l7-.6 1.15-.2q6.15-1.3 11.7-4.55l.3-.05q5.95-3.8 8.45-7.65 7.35-10.2 7.45-18.6.6-4.7-1.7-8.1l-.1-.1-1.65-1.85q-1.35-1.3-3.3-2.35-3.65-1.6-7.3 1-1.25.85-2.5 2.2l-.05.15q-1.65 3.7.25 5.6l.15.15q3.05 1.75 6.05.1 3.55-2.1 2.3-4.15l-.05-.15q-2.4-1.95-3.25-.85l-.6.75q-.7 2.05-.65-.5v-.25q1-2 4.15-1l.1.05q1.95.75 1.7 3.3-1.3 5.35-9.1 4.5-7.4-.45-13.4-4.95-5.25-3.05-9-3.9-23.25-6.8-41.45 1.15-5.2 2.95-8.55 5.55l-1.85 1.55q-2.25 1.95-3.35 3.7-.55.9-.75 1.75l-.3 1.45-.45 3.05m87.6 18.15q-1.6-1.75-3.1-2.45-4.35 4-11.05 6.55l.05.15q4.85 3.2 8.05 11.25l.15.05 3.8.4.85.05q12.15.55 15.95-5.8l.1-.2.05-2.1q-.2-1.25-1.15-2.2-.65-.7-1.65-1.2l-2.65.4q-1.9.55-2 1.95 1.4 4.5 4.5 1.8l-.7 1.3-2.95.15-.2-.05q-1.25-.8-1.55-2.3l-.1-.15q-2.65-1.6-4.7-5.55l-.1-.15-1.6-1.9" fill="#bb5b05"/><path d="M11.35 46 9.6 41.85l-.1-.25-.3-.8Q12.15 12.55 33.25 4q13.95-6.75 29.3 2.2-2.1 2.7-.7 4.95 2.6 2.6 5.2.15l.1-.1.15-.15q.7-1.75.05-2.65-.4 2.75-3.1 1.85-1.45-1.35.25-3.3Q68 6.4 69.3 8l.1.05q.45 3.55-1.5 4.9-4.75 1.9-10.3 1.4h-.25q-11.3-3.05-19.45-.5l-.3.1q-9.45 3.2-16.2 8.75-2.6 2.2-2.55 3.1-3.05 2.85-4.6 6.25l-.55 1.5Q13.15 35.2 11.35 46m1.9-18.65q-2.6 4.85-3.4 10.4 2.4-5.15 5.1-9.55 6.25-10 14.5-16.25-11.3 6.45-16.2 15.4m6.55 6.45q4.25-2 10.85-2.9l.5-.05q6.4.2 21.65 6.9h.05q15.4 4.75 27.2-2.6-13.25 5.7-27 .75Q36 28.3 28.1 28.95l13.3-.4L51.05 30q9.5 1.4 15-2.75-7.8 3.25-17.4.8l-.3-.05q-17.7-3.7-29.75 1.75Q24 25 30.95 23 28.9 22 20 26.55q3.35-2.6 8.55-5.55 18.2-7.95 41.45-1.15 3.75.85 9 3.9 6 4.5 13.4 4.95 7.8.85 9.1-4.5.25-2.55-1.7-3.3l-.1-.05q-3.15-1-4.15 1v.25q-.05 2.55.65.5l.6-.75q2.9 1.15 1.5 2.7l-.05.05q-3.25 2.3-6-.2l-.15-.15q-1.05-1.25-.75-3.1l.05-.15q1.25-1.35 2.5-2.2 5.4-1.55 8.1 1.45l.05.1q2.6 4.4.05 8.85l-.15.2q-7.5 11.95-23.05 15.55 8.35-1 14.9-4.1-9.55 9.1-30.15 9.6 16.6 2.65 27.45-1-10.75 7.4-28.95 6.25-9.85-1.65-19-10.45l-.2-.15q-6.8-6.45-13.3-7.65l-.2-.1-3.2-.75q-3.15-.2-6.3.75-2.05.65-4.15 1.8l-.7.35-2.05 1.35-.1-.05.35-2.75 7.8-1.95 1.8-.4q10.3-1.7 17.15.4-4.3-3.15-20-1.9l-1.15.1.9-.5m60.15 56.05q1.7-1.35 3.7-.4 2.9 2.65-.95 5l2.4-.45q2.65 1.6 4.25-4.3-.55-5.65-4.95-7.1-3.95-1.1-7.15.6h-.2q-6.3-1.1-12.6-6.05 4.05 4.5 10.65 7.2l-.8 1.05q-19.6-3.55-25.1-17.55 6.2 16.7 20 20.25-16.25.1-27.2-16.15-2.3-6.25-5.25-11.3l-.05-.1q-6.95-14.85-19.25-14.5l-5.25.8.15-1.3q5-1.7 11.85-.45 2.35.75 4.65 2.35l.2.15q8.7 6.1 17.15 23.9-3.3-13.05-14.7-24.1l-.05-.05-4.35-3.9q2.25 1.3 4.75 3.2l5.7 4.7.2.1q7.8 9.9 14.6 15.55-5.25-5.7-8.55-11.3l-.15-.15Q33.25 41 22.8 38.05l-2.2-.55 1.2-.1.15-.05q9.65-.6 19.9 11.95l.25.3q6.1 7.55 13.05 10.25 6.45 2.45 12.65 2.9 3.6 1.95 14.05.7 11.2 4.55 12.4 19.9-.05 9.65-5.8 13.9-5.35 2-8.45-1.5-1-2.65-.05-5.9M68.4 69.7q9.8 2.65 12.1 6-3.1-5.1-14.35-8.95l-.3-.1q-9.8-3.2-16-7.2 6 6.2 18.35 10.15l.2.1M50.45 93.95q-23.1.6-30.7-12.45 1.7 4.2 6.1 9.15-10.2-8.55-10.55-18L16.1 55q14.45 4.5 19.55 15.8-2.6-7.85-6.35-12.9 4.8 2.95 13.7 25.25l.15.2Q46 89.6 50.4 93.1l.05.85" fill="#fed273"/><path d="m15.1 54.7-2.95-6.85-.05-.15v-.15l5.35-.7q15.75-.5 20.8 21.4l.1.15q1.2 4.7 3.4 9.2.7 5.8 9.25 13.65l.05.05q-.6.9-.65 1.8-4.4-3.5-7.25-9.75l-.15-.2q-8.9-22.3-13.7-25.25 3.75 5.05 6.35 12.9Q30.55 59.5 16.1 55l-.8 17.65q.35 9.45 10.55 18-4.4-4.95-6.1-9.15 7.6 13.05 30.7 12.45.3 1.15 1.65 2.25 2.15 1.15 3.5.45-7.55 6-23.45.35-11.25-2.8-16.5-13.75-2.25-9.85-.1-28.4l-.45-.15M7.9 37.8l-.05.1-3.25-1.5q.45-5.7 3.65-12.65l-3.05 3.8q2.7-5.2 4.05-11.3l.2-.15.65-.65.15 3.55.1.1q2.65-2.7 7.1-4.1-5.65 6.6-9.55 22.8m5.35-10.45 1.7.85q-2.7 4.4-5.1 9.55.8-5.55 3.4-10.4m6.55 6.45-.9.5 1.15-.1 1.05 1.9-7.8 1.95.45-3.05.3-1.45q.2-.85.75-1.75 1.1-1.75 3.35-3.7l.45 1.65v.05l1.2 4m-6.75 7.05 2.05-1.35.7-.35q2.4-1.25 4.8-1.65l2.2.55q8.95 4.2 9.05 8.6-2.5-1.9-4.75-3.2l4.35 3.9-2.4.25-.2-.15q-2.3-1.6-4.65-2.35-6.85-1.25-11.85.45L12.9 41l.15-.15m16.6-3.4q6.5 1.2 13.3 7.65l.2.15q9.15 8.8 19 10.45 18.2 1.15 28.95-6.25-10.85 3.65-27.45 1 20.6-.5 30.15-9.6-6.55 3.1-14.9 4.1 15.55-3.6 23.05-15.55l.15-.2q2.55-4.45-.05-8.85l-.05-.1q-2.7-3-8.1-1.45 3.65-2.6 7.3-1 1.95 1.05 3.3 2.35 1.5 14-11.95 25 7.5-4.95 11.4-10.55Q99.2 48.95 81.5 57q6.95-1.45 13.7-5.25-4.45 5.25-23.3 10.1h-.55l-6.2-.5-.1-.05Q52.15 59 44.2 50q-8-10-14.55-12.55m61.7-16.3q-.3 1.85.75 3.1l.15.15q2.75 2.5 6 .2l.05-.05q1.4-1.55-1.5-2.7.85-1.1 3.25.85l.05.15q1.25 2.05-2.3 4.15-3 1.65-6.05-.1l-.15-.15q-1.9-1.9-.25-5.6m-72.5 4.65q-.05-.9 2.55-3.1 6.75-5.55 16.2-8.75l.3-.1q8.15-2.55 19.45.5h.25q5.55.5 10.3-1.4 1.95-1.35 1.5-4.9L69.3 8Q68 6.4 64.5 6.95q-1.7 1.95-.25 3.3 2.7.9 3.1-1.85.65.9-.05 2.65.1-.35-1.7.4h-.1q-2.45.55-2.95-1.5l.05-.05q-.7-1.45 1.45-3.2 5.45-1.25 7.2 2.25l.05.1-.05.05.15.95q-1.95 5.7-9.95 5.95l-.55-.1q-10.7-2.15-19.9-.5-15.15 3.9-22.15 10.4m95.75 36.1q.95 2.05-1.15 4.85-8.5 6.05-22.2-3.25 5.35-1.65 9.65-7.3l1.6 1.9.1.15q2.05 3.95 4.7 5.55l.1.15q.3 1.5 1.55 2.3l.2.05 2.95-.15q3.35-2.2.25-4.35 0 3-1.7 2.95-2.3.3-.35-3.65l2.65-.4q1 .5 1.65 1.2m-46.8.85 2.65.05q7.85.45 15.2-2.25 6 5.25 9.45 15.7 2.85 13.35-3.35 20.6-6.4 6.9-13-.45-1.6-1.75-.5-4.65.8-1.25 1.7-1.9-.95 3.25.05 5.9 3.1 3.5 8.45 1.5 5.75-4.25 5.8-13.9-1.2-15.35-12.4-19.9-10.45 1.25-14.05-.7M85.1 94q2-1.05 1.1-4.3l-.05-.1v-.1l-.05-.05q-.8-2.8-4-3.65-5-1.05-8.4 6.8-7.85.8-16.85-1.2l-.35-.15q-2.25-1.2-4.45-2.7-7.05-4.6-11-15.4l-4.3-12.5Q39.7 65.7 42 71.95 52.95 88.2 69.2 88.1q-13.8-3.55-20-20.25 5.5 14 25.1 17.55l.8-1.05q-6.6-2.7-10.65-7.2 6.3 4.95 12.6 6.05h.2q3.2-1.7 7.15-.6 4.4 1.45 4.95 7.1-1.6 5.9-4.25 4.3m-30.15.55q-.8.45-1.65-1.1l-.1-.6 1.75 1.7" fill="#f7a051"/><path d="m104.5 20.15 1.65 1.85.1.1q2.95 10.7-2.45 20.7-4.05 8.4-11.95 13.15-5.7 3.35-11.8 5.1l-1.15.2-7 .6Q90.75 57 95.2 51.75q-6.75 3.8-13.7 5.25 17.7-8.05 22.45-22.4-3.9 5.6-11.4 10.55 13.45-11 11.95-25M99.65 72.2l-.85-.05-3.8-.4-.15-.05q-3.2-8.05-8.05-11.25l-.05-.15q6.7-2.55 11.05-6.55 1.5.7 3.1 2.45-4.3 5.65-9.65 7.3 13.7 9.3 22.2 3.25 2.1-2.8 1.15-4.85.95.95 1.15 2.2-2.75 7.25-16.1 8.1M86.1 89.45q-2.2-3.3-5.4-1.65-4.15 2.1-4.1 6.3l-10.75.45-.15-.05q-4.55-.9-8.85-3.1 9 2 16.85 1.2 3.4-7.85 8.4-6.8 3.2.85 4 3.65M50.4 93.1q.05-.9.65-1.8l-.05-.05q-8.55-7.85-9.25-13.65 1.8 3.65 4.25 7.2 3.4 3.6 6.85 6-1.3 1.95.2 3.6l.3.25q1.3 1.45 2.5.3l.1-.2q1.05-1.95-.45-.7l-.15.2-.4.3-1.75-1.7q-.25-1.55.5-1.55 2.7 1.65 5.45 2.6v.1q.65 3.5-3.4 5.5-9.3 5.05-25.15.5l.35-1.1q-6.9-1.95-10.8-6.7l-.35-.3q-2.85-2.8-4.15-8.65Q20.9 94.2 32.15 97q15.9 5.65 23.45-.35-1.35.7-3.5-.45-1.35-1.1-1.65-2.25l-.05-.85" fill="#d87822"/><path d="m4.6 36.4-2.75-1.2Q.5 25.3 9.25 16.25q-1.35 6.1-4.05 11.3l3.05-3.8Q5.05 30.7 4.6 36.4" fill="#fbee7c"/><path d="m14.95 28.2-1.7-.85q4.9-8.95 16.2-15.4-8.25 6.25-14.5 16.25M20 26.55Q28.9 22 30.95 23 24 25 18.6 29.75 30.65 24.3 48.35 28l.3.05q9.6 2.45 17.4-.8-5.5 4.15-15 2.75l-9.65-1.45-13.3.4q7.9-.65 24.95 6.95 13.75 4.95 27-.75-11.8 7.35-27.2 2.6h-.05q-15.25-6.7-21.65-6.9l-.5.05q-6.6.9-10.85 2.9l-1.2-4v-.05l-.45-1.65L20 26.55m.05 7.65q15.7-1.25 20 1.9-6.85-2.1-17.15-.4l-1.8.4-1.05-1.9m2.75 3.85Q33.25 41 43.65 55.55l.15.15q3.3 5.6 8.55 11.3-6.8-5.65-14.6-15.55l-.2-.1-5.7-4.7q-.1-4.4-9.05-8.6m8.65 9.3.05.05q11.4 11.05 14.7 24.1-8.45-17.8-17.15-23.9l2.4-.25M68.4 69.7l-.2-.1q-12.35-3.95-18.35-10.15 6.2 4 16 7.2l.3.1Q77.4 70.6 80.5 75.7q-2.3-3.35-12.1-6" fill="#fff"/><path d="M99.65 72.2q13.35-.85 16.1-8.1l-.05 2.1-.1.2q-3.8 6.35-15.95 5.8M76.6 94.1l.05.9-10.8-.45 10.75-.45" fill="#d7c3fe"/><path d="m52.85 90.8.85.5q-.75 0-.5 1.55l.1.6q.85 1.55 1.65 1.1l.4-.3.15-.2q1.5-1.25.45.7l-.1.2q-1.2 1.15-2.5-.3l-.3-.25q-1.5-1.65-.2-3.6" fill="#ba5e09"/><path d="m112.1 66.15.7-1.3q-3.1 2.7-4.5-1.8.1-1.4 2-1.95-1.95 3.95.35 3.65 1.7.05 1.7-2.95 3.1 2.15-.25 4.35" fill="#d77b24"/><path d="M106.25 22.1q2.3 3.4 1.7 8.1-.1 8.4-7.45 18.6-2.5 3.85-8.45 7.65l-.3.05q-5.55 3.25-11.7 4.55 6.1-1.75 11.8-5.1 7.9-4.75 11.95-13.15 5.4-10 2.45-20.7" fill="#e5c1ff"/><path d="M71.45 11.1q-.05 4.1-5.05 6.05l-.9-.2q4.55-2.1 5.95-5.85" fill="#d29ec5"/><path d="M61.45 16q8-.25 9.95-5.95l.05 1.05q-1.4 3.75-5.95 5.85L61.45 16" fill="#d2741d"/></g><g id="M" fill-rule="evenodd"><path d="M15.5 32.2q6.7 5.9 13.35 1.5 5.8.15 5.45-4.8-2.15 2.7-5.25.6-2.25-3.6-1.55-9.85v-.25q2-8.4-3.45-19.4l-.85.55q5.45 9.9 2.9 20l-.05 1.75q.05 4.1 2.1 8v.7q-3.2-.85-5.15-2.3l-.65-.5.1.8q.5 2 4.2 3.8l1 .45q-3.65 1.7-7 1.15Q18 34 15.5 32.2m7.1-9.25-.05.3.15-.3h-.1m4.75 9.2q-3.2-1.15-4.45-3.1 3.45 2.5 5.75 2.5 1.1.5 4.4-.4-1.55 2.2-5.7 1" fill="#201b31"/><path d="M20.7 2.1 5.85 11.4 0 33.6l15.5-1.4q2.5 1.8 5.15 2.2 3.25.05 6-1.6-3.7-1.8-4.2-3.8l-.1-.8.65.5q1.95 1.45 5.15 2.3v-.7q-4-1.65-6.3-5.65l-.15-.25q-1.2-2.2-1.9-5.05l-.05-.1q-.75-7.9.95-17.15" fill="#412f61"/><path d="M26.65 32.8q-2.75 1.65-6 1.6 3.35.55 7-1.15l-1-.45m.7-.65q4.15 1.2 5.7-1-3.3.9-4.4.4-2.3 0-5.75-2.5 1.25 1.95 4.45 3.1" fill="#e3c6ff"/><path d="M22.7 22.95Q25 17 22.5 7.65l-.75 2.05q1.9 8 .95 13.25M21.55 10.7q-.45 2.5-.2 4.95 1.5 6.1.35 8.75l.15.25.1-.1.5-1.05.1-.25.05-.3q.3-3.65-1.05-12.25" fill="#27213b"/><path d="M22.7 22.95q.95-5.25-.95-13.25l-.15.8-.05.2q1.35 8.6 1.05 12.25h.1" fill="#221d33"/><path d="m23.2.55-.65.4q3.9 7.2 3.55 12.7l-.35 5.95v1l.3 1.7.05-1.75q2.55-10.1-2.9-20" fill="#dfc0fc"/><path d="M22.55.95 20.7 2.1q-1.7 9.25-.95 17.15l.05.1q.7 2.85 1.9 5.05 1.15-2.65-.35-8.75-.25-2.45.2-4.95l.05-.2.15-.8.75-2.05q2.5 9.35.2 15.3l-.15.3-.1.25-.5 1.05-.1.1q2.3 4 6.3 5.65-2.05-3.9-2.1-8l-.3-1.7v-1l.35-5.95q.35-5.5-3.55-12.7" fill="#4c4477"/></g><g id="N" fill-rule="evenodd"><path d="m50.1 34.75.25.2q13.7 14.25 14.85 23.6v.3l.05.05q-2.35-.85-4.45.8.45-1.15-.4-2.65-1.3-1.45-3.25-.2-.9-4.8-3.55-8.2l-.3-.35q-9.15-10.8-14.85-21.4l-.25-.5.45.4q5 4.35 11.45 7.95m6.5 26.2q.8.5 2.35.6-2.45 4.6.05 7.95 1.95 1.75 4 2v.15q-2.5 4.7-7.6 7.3-1.75-9.4 1.2-18" fill="#ff82a7"/><path d="m50.1 34.75.15-.15.3.2q14.9 11.5 17.05 24.8l.05.15Q68.9 72.2 60 78.25q-3.65 1.5-6.95 1.75l2.35-1.05q5.1-2.6 7.6-7.3v-.15q-2.05-.25-4-2-2.5-3.35-.05-7.95-1.55-.1-2.35-.6-1.55-1.1.4-4l.15-.1q1.95-1.25 3.25.2.85 1.5.4 2.65 2.1-1.65 4.45-.8l-.05-.05v-.3q-1.15-9.35-14.85-23.6l-.25-.2M47.35 66.5q4.7-3.2 3.1-8.95l-.1-.15q-1.05-3.65-7.75-5.55h-.15l-.1-.1-4.05.15q3.5-1.6 9.6.95 4.35 2.15 4.25 7.25v.2q-.25 3.95-4.8 6.2" fill="#fffcf5"/><path d="M60 78.25q8.9-6.05 7.65-18.5l-.05-.15q-2.15-13.3-17.05-24.8l-.3-.2-1.95-1.45-.25-.2q-6.1-3.85-12.05-8.6l-.5-.45-6.2-5.35-.2-.15-2.25-2.15q.45 8.45 7.1 16.3l1.75 1.9-1.9-1.7q-4.15-4-6.65-9.5-9.35-4.9-17.05-11.95-4.4-4-8.2-8.65L1.7 4.1l-.1.8Q-1 27.1 16.9 40.8l4.75 3.2-4.4-1.5L10 39.9q-.1.7-.05 1.35.55 7.25 12.1 14.7l.1.1 1.4.85q-7.5-1.7-10.7-1.25h-.1l.15.1q.65 4.55 11.45 9.9l-.85.25q-2.25.8-4.6 2.6l.4.45q4 4.05 15.45 4.6-1.55-1.7-2.45-3.35l-.1-.25q-1.5-3.1-1.1-6.05l.15-.45q1.5-6.1 6.7-7.65l.1-.05q7.25-1.3 11.05 3.35l.1.1q.55 1.75.45 3.1-.15 1.8-1.65 2.8h-.1q-2.05 1.1-3.15.9-.35-.05-.55-.25l-.15-.15h.25q4.05-.05 5.05-3.3l-.05-.2q-.5-3.1-2.8-4.7-6.1-2.85-11.25.3l-.1.05-.15.15q-3.15 2.55-2.9 8.35 1.8 5.15 5.8 8.45l.3.25q8.35 7.8 19.75 4.5l2.05-1.2M45.65 29.7q14.25 10 19.25 18.95 6.8 11.05 2.75 21.7-3.75 9.35-13.5 11.2-9.05.6-17.85-6.6l-8.2-1.35q-5.45 0-10.3-4.7 1.6-2.4 4.1-3.5-9.1-4.45-10.65-10.65 2.65-1 7.05.1-10.5-7.7-9.7-16.3l6.2 1.95Q-4.45 24.95 1.3 0q5.75 9.6 25.3 21.8-1.2-4.85-.75-7.75.3.85 1.35 1.5 8.6 8.75 18.3 14.1l.15.05" fill="url(#t)"/><path d="m50.25 34.6-.15.15q-6.45-3.6-11.45-7.95l-.45-.4q-.9-.65-2.2-2.05 5.95 4.75 12.05 8.6l.25.2 1.95 1.45" fill="#fffbff"/><path d="m57.15 56.85-.15.1q-1.95 2.9-.4 4-2.95 8.6-1.2 18L53.05 80q-6.8.55-12.15-4.1-4.3-5.8-5.25-10.1l1.6.65.1-.05q2.8-.6 2.45-3.65l-.15-.3q-1.15-2.3-4-1 .6-2.4 2.8-4.1l-.8-.1q4.85-2.1 8.5 1.75l.1.1q2.8 3.65-.45 5.3-1.95-.35-1.5 1.2h-.25l.15.15q.2.2.55.25 0 .75 2.55.5h.05q4.55-2.25 4.8-6.2v-.2q.1-5.1-4.25-7.25-6.1-2.55-9.6-.95-3.35.75-6 3.75-4 3.5-3 10.65L12.9 55.75l-.05-.1q3.2-.45 10.7 1.25l-1.4-.85 7.5.95q-9.3-3.05-19.7-15.75-.05-.65.05-1.35l7.25 2.6q4.6 3 14.1 4.95-9.75-5.45-18.1-14.2l-.2-.1Q2.35 23.25 1.6 4.9l.1-.8.2-1.45q3.8 4.65 8.2 8.65 7.7 7.05 17.05 11.95 2.5 5.5 6.65 9.5l1.9 1.7-1.75-1.9 5.6 4.3q-6.6-8.7-10.25-18.3l6.2 5.35.5.45q1.3 1.4 2.2 2.05l.25.5q5.7 10.6 14.85 21.4l.3.35q2.65 3.4 3.55 8.2m-47.2-45.3q4.7 10.7 11.45 16.75l.1.05q6.15 6.2 13.85 10.75-7.8-6.35-14.6-14.7-5.9-8.3-10.8-12.85" fill="url(#u)"/><path d="M53.05 80q3.3-.25 6.95-1.75l-2.05 1.2q-11.4 3.3-19.75-4.5l-.3-.25q-4-3.3-5.8-8.45-.25-5.8 2.9-8.35l.15-.15.1-.05q5.15-3.15 11.25-.3 2.3 1.6 2.8 4.7l.05.2q-1 3.25-5.05 3.3-.45-1.55 1.5-1.2 3.25-1.65.45-5.3l-.1-.1q-3.65-3.85-8.5-1.75l-1.15.55-.3.2-.2.25q-3.8 4.8-.3 11.35l.1.25q2.35 3.65 5.1 6.05 5.35 4.65 12.15 4.1M38.3 51.9l4.05-.15.1.1h.15q6.7 1.9 7.75 5.55l.1.15q1.6 5.75-3.1 8.95h-.05q-2.55.25-2.55-.5 1.1.2 3.15-.9h.1q1.5-1 1.65-2.8.1-1.35-.45-3.1l-.1-.1q-3.8-4.65-11.05-3.35l-.1.05q-5.2 1.55-6.7 7.65l-.15.45q-.4 2.95 1.1 6.05-2.15-2.6-2-7.1.5-6.15 4.9-8.95-1.65.7-2.8 1.75 2.65-3 6-3.75" fill="#a1ea77"/><path d="M9.95 11.55q4.9 4.55 10.8 12.85 6.8 8.35 14.6 14.7-7.7-4.55-13.85-10.75l-.1-.05q-6.75-6.05-11.45-16.75" fill="#fffefd"/><path d="M32.3 55.65q1.15-1.05 2.8-1.75-4.4 2.8-4.9 8.95-.15 4.5 2 7.1l.1.25q.9 1.65 2.45 3.35Q23.3 73 19.3 68.95q5.2 2.1 11.55 1.75-1-1.2-1.5-4.05v-.05l-5.85-.7.85-.25q-10.8-5.35-11.45-9.9L29.3 66.3q-1-7.15 3-10.65m1.65-23.1q-6.65-7.85-7.1-16.3l2.25 2.15.2.15q3.65 9.6 10.25 18.3l-5.6-4.3M1.6 4.9q.75 18.35 11.45 28.25l.2.1q8.35 8.75 18.1 14.2-9.5-1.95-14.1-4.95l4.4 1.5-4.75-3.2Q-1 27.1 1.6 4.9m8.35 36.35q10.4 12.7 19.7 15.75l-7.5-.95-.1-.1Q10.5 48.5 9.95 41.25" fill="#7aa850"/><path d="m19.3 68.95-.4-.45q2.35-1.8 4.6-2.6l5.85.7v.05q.5 2.85 1.5 4.05-6.35.35-11.55-1.75" fill="#e3e71e"/><path d="m36.5 57.8 1.15-.55.8.1q-2.2 1.7-2.8 4.1 2.85-1.3 4 1l.15.3q.35 3.05-2.45 3.65l-.1.05-1.6-.65q.95 4.3 5.25 10.1-2.75-2.4-5.1-6.05l-.1-.25q-3.5-6.55.3-11.35l.5-.45" fill="#fff"/></g><g id="O" fill-rule="evenodd"><path d="m45.6 30.9.2-2.3Q36.3 5.85 22.2 0q2.35 3.15 2.9 10.5.7 7.75 2.4 10.65-4.05-.85-8.1-.1-15 3-19.4-5.2-.05 11.8 14.25 19.45l-4.1.25q2.5 2.6 3.7 6.45 3.75 5.4 9.1 9.4 2.8 1.55 7.05 2.25-3.9 1.45-5.9 1 6.2 5.65 14.8 5.6 5.95-1.75 9.05-10.35-1.7 4-4.25 6.35-2.2 2-4.95 2.85-8.85-.25-12.25-3.6l2.85-.55q1.85-.6 2.75-1.7l.05-.25q-3.9-.35-7.4-2.25l-.25-.15q-5.2-2.95-9.6-9.5l-.1.05-.15-.5-1.6-3-.8-1.1 4.1-.6 2.55-.6-.15-.05q-3.15-.7-7.2-2.75l-1.1-.7q-6.35-4.25-9.1-12.3l-.25-.7.55.6L3 20.55q4.95 3.5 14.45 2.35h.2q5.8-1.2 10.3-.7 1.45 3.45 4.55 6.45l6.6 5.2h.05q.2-.55-.35-1.3-.7-1-2.55-2.5l-2.65-1.9-.05-.1q-5.95-4.3-6.75-16.7-.15-3.45-1.3-6.5L24.35 2.2l3.1 2.1.1.1Q38.7 12.8 45.6 30.9" fill="#b95d08"/><path d="m27.55 4.4-.1-.1-3.1-2.1 1.15 2.65q1.5 2.35 6.6 16.6v-.05q-2.4-13.45-4.55-17M3 20.55l-1.35-1.1q2.15 4.65 5.7 8.95Q15.3 34 24.6 35.2q-10.65-2.55-17.15-8.8 5 2.7 12.1 3.25-3.25-.7-5-1.75l-.75-.25-.3-.1-.15-.05Q5.45 24.25 3 20.55m10.05 17.1 1.6 3 .55.5q5.2 4.1 12.5 7.75-8.05-4.7-14.65-11.25" fill="#d77922"/><path d="M36.25 30.05q1.85 1.5 2.55 2.5.8.6 2 .6-5.1-3.2-8-15.35-.45.05 1.85 9.55l1.6 2.7m2.1 11.15 1.15.4q1.55.7 1.75-1.65v-.1q-.15-.55-1.75-.95l-16.75-.7q11.3 1.55 15.6 3m-.1.3q-2.2-.8-6.65-.55-9.6 1-13.95-3.35 5.1 5.65 13.65 4.95 6.4-.05 8.2.85l1.2 1.05q-.25-1.65-1.2-2.35l-1.25-.6m5.05-2.15q.3.35.1-1.25l-.05-.2-.1-.2-.65-.9q-1.35-1.55-4.05-2.3-8.7-9.25-21.75-8.55 11.1.5 20.05 7.95-4.9-1.6-9.25-1.85 8.15 2.45 12.3 4.75 2.35 1.3 3.4 2.55m-3.2 5.95-.65-.9-5.45.2q1.65 1 6.1.7m.25 1.7q-4.1 1.8-11.7 1.3 9.85 3.35 13.3 1.3-3.5 5.3-10.2 5.15 6.9 2.45 15.15-4.3-6.3-3.5-6.55-3.45" fill="#fff"/><path d="M25.5 4.85q1.15 3.05 1.3 6.5.8 12.4 6.75 16.7l.05.1 2.65 1.9-1.6-2.7q-1.5-2.75-2.5-5.8l-.05-.1Q27 7.2 25.5 4.85m-15.05 27 1.1.7q4.05 2.05 7.2 2.75l.15.05-2.55.6q5 1.5 16.75 1.4h.05l6.2.6q-10-4.65-20.75-7.15l10.25-.65q-7.7-.15-14.3-2.25 1.75 1.05 5 1.75-7.1-.55-12.1-3.25 6.5 6.25 17.15 8.8-9.3-1.2-17.25-6.8l3.1 3.45m4.2 8.8.15.5.1-.05.3.05q3.75 5 9.3 9.45l.25.15q3.5 1.9 7.4 2.25l-.05.25 6.6-1.3q-6.25-.35-11-3v-.05q-7.3-3.65-12.5-7.75l-.55-.5m14.7 14.3-2.85.55q3.4 3.35 12.25 3.6 2.75-.85 4.95-2.85-2.25 1.4-7.65 1.45l-.2-.1q-4.7-1.3-6.5-2.65" fill="#f39e4b"/><path d="M45.6 30.9Q38.7 12.8 27.55 4.4q2.15 3.55 4.55 17v.05l.05.1q1 3.05 2.5 5.8-2.3-9.5-1.85-9.55 2.9 12.15 8 15.35-1.2 0-2-.6.55.75.35 1.3h-.05l-6.6-5.2q-3.1-3-4.55-6.45-4.5-.5-10.3.7h-.2Q7.95 24.05 3 20.55q2.45 3.7 10.35 6.95l.15.05.3.1.75.25q6.6 2.1 14.3 2.25l-10.25.65q10.75 2.5 20.75 7.15l-6.2-.6h-.05q-11.75.1-16.75-1.4l-4.1.6.8 1.1q6.6 6.55 14.65 11.25v.05q4.75 2.65 11 3l-6.6 1.3q-.9 1.1-2.75 1.7 1.8 1.35 6.5 2.65l.2.1q5.4-.05 7.65-1.45 2.55-2.35 4.25-6.35l-.1-.2-2.25-18.8m-7.25 10.3q-4.3-1.45-15.6-3l16.75.7q1.6.4 1.75.95v.1q-.2 2.35-1.75 1.65l-1.15-.4m-.1.3 1.25.6q.95.7 1.2 2.35l-1.2-1.05q-1.8-.9-8.2-.85-8.55.7-13.65-4.95Q22 41.95 31.6 40.95q4.45-.25 6.65.55m1.85 3.8q-4.45.3-6.1-.7l5.45-.2.65.9m3.2-5.95q-1.05-1.25-3.4-2.55-4.15-2.3-12.3-4.75 4.35.25 9.25 1.85-8.95-7.45-20.05-7.95 13.05-.7 21.75 8.55 2.7.75 4.05 2.3l.65.9.1.2.05.2q.2 1.6-.1 1.25M40.35 47q.25-.05 6.55 3.45-8.25 6.75-15.15 4.3 6.7.15 10.2-5.15-3.45 2.05-13.3-1.3 7.6.5 11.7-1.3" fill="url(#v)"/><path d="m1.65 19.45-.55-.6.25.7q2.75 8.05 9.1 12.3l-3.1-3.45q-3.55-4.3-5.7-8.95M14.9 41.1q4.4 6.55 9.6 9.5-5.55-4.45-9.3-9.45l-.3-.05" fill="#d5c2f0"/></g><g id="P" fill-rule="evenodd"><path d="M3.65.35 3.05 0Q-7.25 35.5 17.3 35.7h.1l.5-.8-.4-.1-1.4-.05q-6.1.15-9.75-2.7-8.7-6.9-2.7-31.7" fill="#887ba7"/><path d="M5.9 1.75 3.65.35q-6 24.8 2.7 31.7 4.55 1.3 8.1-.1Q3.8 24.55 4.75 15L5.9 1.75" fill="#ded5f0"/><path d="m17.9 34.9 11.9-18.3L5.9 1.75 4.75 15q-.95 9.55 9.7 16.95-3.55 1.4-8.1.1 3.65 2.85 9.75 2.7l1.4.05.4.1" fill="#aea5c4"/><path d="m17.2 34.75-.55 1.15q1.25-.3.85 1.2-2.05 11.45-.5 15.3 1.95 3.7 6.35 5.5l.55-.7q2.25 2.2 5.9 1.25l-.7-1.7 2.95-.6-1.5-2.5q-.1-1.1-.9-2.1-1.8-11.15-.1-23.15l-1.25-.25q-1.85 11.85.2 22.5l.25 1.1q1.25 1.75.2 2.7-1.15 1.1-1.85.6l-1.4-1.55q-.6-.85-.95-1.9-.15.6-.05 1.2.25 1.45 1.8 2.65-.15.7-.75.85-2.9 0-4.15-2.15-.5-.8-.75-1.95 0-.9-.4-.15v.15q.1 1.4 1 2.5-1.45.2-2.65-1.45l-1.25-2.3q-.3-5.7 1.2-13.5v-.4l-.15-1.1-.85-1.1-.55-.1m3.85 20.6h.7l1.3 1.3-2-1.3m5.65.95 1.1 1.05q-1.55.4-2.9-.6l1.8-.45m1.5-.85 1.2-.8.75.65-1.95.15" fill="#8c80ae"/><path d="m28.3 28.15-.75-.15-1.2 2.9v.1q.9 18.85 2.15 19.65-2.05-10.65-.2-22.5" fill="#e0c2fe"/><path d="m21.05 55.35 2 1.3-1.3-1.3h-.7m7.15.1 1.95-.15-.75-.65-1.2.8m-1.5.85-1.8.45q1.35 1 2.9.6l-1.1-1.05" fill="#b7a0d6"/><path d="m27.55 28-5.5-1.2-4.85 7.95.55.1.85 1.1 2.3-.8 4.45 3.3q.1 8.15 2.85 14.7-1.25.9-2.5.35l1.4 1.55q.7.5 1.85-.6 1.05-.95-.2-2.7l-.25-1.1q-1.25-.8-2.15-19.65v-.1l1.2-2.9M18.8 53.25q1.2 1.65 2.65 1.45-.9-1.1-1-2.5h-.05q-.4 1.15-1.6 1.05m2.8.9q1.25 2.15 4.15 2.15.6-.15.75-.85-1.55-1.2-1.8-2.65-1.35 2.55-3.1 1.35" fill="#b0a7c6"/><path d="m18.6 35.95.15 1.1v.4q-1.5 7.8-1.2 13.5l1.25 2.3q1.2.1 1.6-1.05l.05-.15q.4-.75.4.15.25 1.15.75 1.95 1.75 1.2 3.1-1.35-.1-.6.05-1.2.35 1.05.95 1.9 1.25.55 2.5-.35-2.75-6.55-2.85-14.7l-4.45-3.3-2.3.8" fill="#ded5f0"/></g><g id="Q" fill-rule="evenodd"><path d="M18.85 6.55q2.85-4.8 8.2-6.55.2 2.05-.65 4.9 3.8-3.4 11.7.25-.85 2-2.7 3.05 3.1 1.5 4.05 2.9-.7 2.4-3.3 3.85.7 1.45 1.75 2.35-1.3 2-3.9 2.7.5.5-.4 1.15l-.15.2-1.25.05-1.25-.7v-.2l1.85.1-.25-1.55.1-.15q1.4.05 3.55-1.25.2-.25-.55-1.35l-1.1-1.45-.05-.15q3.35-1.2 3.7-3.5l-.8-.6-3.2-2.2-.05-.1.05-.05.2-.4Q36 6.9 36.85 5.7q-1.25-.65-2.5-1-4.6-1.5-8.1.7-.15.2-.25 0-.25-.45-.2-3.65l-1.25.55q-.25.1-.45.25-5.4 2.85-6.5 9.7v.3l-.05.2-.25.2q-.6.05-1.65-3.15l-.45 1.1-.1.15q-1.7 4.55.45 8.6l.4.65-.35.65-.05.1-.6-1-.05-.05q-.8-1.6-1.15-3.15l-.25-1.95V14q.1-1.85.85-3.65.55-1.3 1.5-2.55.7.7 1.15 3.1.6-2.1 1.55-3.85l.3-.5" fill="#d67a27"/><path d="M15.55 19.65q-2.15-4.05-.45-8.6.1.85 1.4 2.4.3.55.8-.5l.25-.2.05-.2v-.3q3.3-4.35 6.5-9.7.2-.15.45-.25-1.2 3.55-.05 6.65.6-2.45 1.5-3.55.1.2.25 0 3.5-2.2 8.1-.7-2.3 1.4-4.8 4.4l4.6-.8.05.1 3.2 2.2q-3.25 3.9-6.4 1.2 1.45 2.8 3.5 2.9l.05.15 1.1 1.45-5.15-.15q0 1.1 2.1 2.7v.05l-.6-.15.55.3.25 1.55-1.85-.1-.35-.05-.05.05h-.1q-.4-1.55-.45-3.5l.1-2.4-.4 1.05q-.05-4.5-4.4-5.15.7.5 1.55 1.95l-.05.15h-.1l-5.5-1.75q-.3.15 1.5 1.9-.3.1-.15.3-3.55 1.4-6.7 1.85l1.35.85q-1.2 1.4-1.65 3.9m4.95-9.55q1.55-2.05 1.75-3.15-2.4 2.15-1.75 3.15m5.75-1.75q.7.65 4.6-3.2-4.05.7-4.6 3.2m4 2.45q3.35 1.8 5.05-.5-2.35-.25-5.05.5" fill="#ffed7d"/><path d="m24.55 2.3 1.25-.55q-.05 3.2.2 3.65-.9 1.1-1.5 3.55-1.15-3.1.05-6.65m9.8 2.4q1.25.35 2.5 1Q36 6.9 34.4 7.85l-.2.4-.05.05-4.6.8q2.5-3 4.8-4.4m3.05 5.9.8.6q-.35 2.3-3.7 3.5-2.05-.1-3.5-2.9 3.15 2.7 6.4-1.2m-1.75 5.7q.75 1.1.55 1.35-2.15 1.3-3.55 1.25l-.05-.05q-2.1-1.6-2.1-2.7l5.15.15" fill="#f8a152"/><path d="M17.6 12.25q1.1-6.85 6.5-9.7-3.2 5.35-6.5 9.7m2.9-2.15q-.65-1 1.75-3.15-.2 1.1-1.75 3.15m5.75-1.75q.55-2.5 4.6-3.2-3.9 3.85-4.6 3.2m4 2.45q2.7-.75 5.05-.5-1.7 2.3-5.05.5" fill="#fff8cf"/><path d="m15.95 20.3-.4-.65q.45-2.5 1.65-3.9l-1.35-.85q3.15-.45 6.7-1.85v.05l.65.5q-1.75 1.45-4.05 2.05l-.4.55-2.8 4.15v-.05m6.75-7.55q-1.8-1.75-1.5-1.9l5.5 1.75q-.3-.05.3.5l-4.25-.3-.05-.05m4.15-.3Q26 11 25.3 10.5q4.35.65 4.4 5.15l.4-1.05L30 17q.05 1.95.45 3.5l.1.3q-.3 1.9-.75 1.95-1.2-2.6 0-5.75-.15-.7-1 .55-.05-3.75-.95-4.6h-.15l-.75-.3-.1-.15v-.05" fill="#f59e4f"/><path d="M30.95 20.5v.2q-.25 1.65-.65 2.2-2.25 1.2-1.25-5.1l-.8-.05v-.1q.05-2.7-.65-4.25l-3.65.15-.1.1Q22.6 15.4 19.75 16q-.8.85-1 .2l.4-.55q2.3-.6 4.05-2.05l-.65-.5v-.05q-.15-.2.15-.3l.05.05 4.25.3q-.6-.55-.3-.5h.1l.15.05.75.3h.15q.9.85.95 4.6.85-1.25 1-.55-1.2 3.15 0 5.75.45-.05.75-1.95v-.3l.05-.05.35.05" fill="#ce7519"/><path d="m1.4 19.75.75-.85 1.1 1.3-.1-2.5q0-1.65.3-2l.2-.1q.3 0 .8.75-.1-2.9.9-1.45l1.05 1.95-.25.45-.65-1-.65-1.3.05 1.55v.05q.15.9-.6.1l-.65-.75.15 4.55v.8q-.15.25-.75-.35l-.85-1.1q-.3 2.1.15 3.7.15 1.85 3.3 5.2.1-1.4.6-1.05l2.9 3 .25.15 3.05-4.45q.6 1.4 1.4 2.15l-.25 1.15q-1.05-.25-1.5-1.9-1.05 2.55-2.5 4.05-.55.45-3.25-2.9.15.85-.35.75l-.6-.3h-.05l-.1-.05q-1.85-.75-3.3-3.55-1.4-2.6-.85-5.75l.3-.3" fill="#cc5099"/><path d="M13.5 14v.9l-.65.85-.1-.05-.4-.8-.6-1.1q-.45.9-.4 3.8l-.55-.5q.15-3.25.75-3.95.4-.3 1.35 1.55l.6-.7" fill="#dd63ac"/><path d="M13.75 16.85Q14.1 18.4 14.9 20l.05.05.6 1h.05l-1.75 7.5q-.8-.75-1.4-2.15L9.4 30.85l-.25-.15-.3-.9.1-.05q2.95-3.7 4.95-8.5v-.05l.15-.05q.3-.45-1.9-2.7l.2-3.55.4.8v2.85q.3.55 1-1.7" fill="#ffaaa9"/><path d="m9.15 30.7-2.9-3q-.5-.35-.6 1.05-3.15-3.35-3.3-5.2-.45-1.6-.15-3.7l.85 1.1q.05 1.7 2.25 4.45-.5-2.25-.2-2.75 2.35 7 3.75 7.1v.05l.3.9M3.8 20.5l-.15-4.55.65.75.2 5.15-.7-1.35m1.1-3.95L4.85 15l.65 1.3.05 1.7-.6-1.4-.05-.05m8.6-1.65.25 1.95q-.7 2.25-1 1.7v-2.8h.1l.65-.85m-2.15 2.7q-.05-2.9.4-3.8l.6 1.1-.2 3.55-.8-.85" fill="#fcf9ff"/><path d="M3.05 20.95q.6.6.75.35v-.8l.7 1.35-.2-5.15q.75.8.6-.1h.05l.6 1.4-.05-1.7.65 1-1.5 4 .45 1.35q-.3.5.2 2.75-2.2-2.75-2.25-4.45" fill="#f272bd"/><path d="m6.15 17.3.25-.45q.9-2 1.65-2.55l.65.5 2.1 2.3.55.5.8.85q2.2 2.25 1.9 2.7l-.15.05v.05q-2 4.8-4.95 8.5h-.1q-1.4-.1-3.75-7.1l-.45-1.35 1.5-4m2.1-2.25-.2-.2q-2.4 3.5-3 6.5 1.15 3.9 3.05 6.8l.7 1 .25-.35q2.1-3 4.45-7.9v-.05L9.55 16.3l-1.3-1.25" fill="#b7620f"/><path d="m10.95 19.35-1.2-1.7-.1-.1-.1-1.25 3.95 4.55v.05l-.95.25-3.9 6.15v.05l-.7-.9q.7.55 1.4-.95 1.35-1.7 2.6-4.35.65 0-.85-1.6l-.15-.2" fill="#fff61b"/><path d="m9.65 17.55-1.5-1.45.1-1.05 1.3 1.25.1 1.25m3.85 3.35q-2.35 4.9-4.45 7.9l-.4-1.45v-.05l3.9-6.15.95-.25" fill="#ff8e04"/><path d="M8.1 28.15q-.15-1.1-1.3-3.15v-.05l1.15 1.5.7.9.4 1.45-.25.35-.7-1" fill="#f1f6f2"/><path d="M8.1 28.15q-1.9-2.9-3.05-6.8.6-3 3-6.5l.2.2-.1 1.05 1.5 1.45.1.1 1.2 1.7q-2.4-2.65-3.25-2.6l-.1.1-.1.05q-1.3 1.25-1.8 3.75-.8.2 1.1 4.3V25q1.15 2.05 1.3 3.15" fill="#fef420"/><path d="M6.8 24.95q-1.9-4.1-1.1-4.3.5-2.5 1.8-3.75l.05.05.05-.1.1-.1q.85-.05 3.25 2.6l.15.2q1.5 1.6.85 1.6-1.25 2.65-2.6 4.35-.7 1.5-1.4.95l-1.15-1.5m1.05-7.85-.3-.15-1.4 3.45-.1.1q-.65.95 2.05 5.55l.4-.15 1.65-2.45.1-.15.6-1.1.7-1.4-.05-.1-1-1.1q-1.55-1.8-2.65-2.5" fill="#7a0000"/><path d="M7.85 17.1q1.1.7 2.65 2.5-.3.6-3.5.5l.5-1.75.35-1.25" fill="#ff4b3d"/><path d="m10.5 19.6 1 1.1-4.55-.35.05-.25q3.2.1 3.5-.5" fill="#fffaf7"/><path d="m11.5 20.7.05.1-.7 1.4-.2-.7-3.6-.8q.8 3.4 1.8 4l1.3-1.25L8.5 25.9l-1.1-2.45-.85-3.1.95-2L7 20.1l-.05.25 4.55.35" fill="#af0e06"/><path d="m8.5 25.9-.4.15q-2.7-4.6-2.05-5.55l1.3 2.95.05.05v-.05l1.1 2.45" fill="#ff4847"/><path d="m7.55 16.95.3.15-.35 1.25-.95 2 .85 3.1h-.05l-1.3-2.95.1-.1 1.4-3.45" fill="#fefaff"/><path d="m10.85 22.2-.6 1.1-.1.15-1.3 1.25q-1-.6-1.8-4l3.6.8.2.7" fill="#e71109"/><path d="M14.35 10.35q-.75 1.8-.85 3.65l-.6.7q-.95-1.85-1.35-1.55-.6.7-.75 3.95l-2.1-2.3.05-.3 5.6-4.15" fill="#dbd2ed"/><path d="m15.1 11.05.1-.15.45-1.1q1.05 3.2 1.65 3.15-.5 1.05-.8.5-1.3-1.55-1.4-2.4" fill="#f59f54"/><path d="m18.25 2.8.7-.25q-.25 2.05-.1 4l-.3.5q-.3-2.15-.3-4.25" fill="#8f81b2"/><path d="m5.3 7.7 12.95-4.9q0 2.1.3 4.25Q17.6 8.8 17 10.9q-.45-2.4-1.15-3.1-.95 1.25-1.5 2.55l-5.6 4.15q-.1-4.2-2.25-4.95L5.3 7.7" fill="#aea5c4"/><path d="M6.5 9.55q2.15.75 2.25 4.95l-.05.3-.65-.5q-.2-2.4-1.55-4.75" fill="#8481b0"/><path d="m4.1 8.15 1.2-.45 1.2 1.85q1.35 2.35 1.55 4.75-.75.55-1.65 2.55L5.35 14.9Q5.3 11.15 4.1 8.15" fill="#f89e50"/><path d="M2.15 18.9v-.05H2.1q-.75-1.9-.6-4.25l1.65 3.1.1 2.5-1.1-1.3m1.5-3.3V8.3l.45-.15q1.2 3 1.25 6.75-1-1.45-.9 1.45-.5-.75-.8-.75" fill="#ffdc7b"/><path d="m1.5 14.6.05-.55 1.9 1.65q-.3.35-.3 2L1.5 14.6" fill="#f79d51"/><path d="M1.4 19.75Q-.4 16.85.15 9.7v-.05l3.5-1.35v7.3l-.2.1-1.9-1.65-.05.55q-.15 2.35.6 4.25h.05v.05l-.75.85" fill="#d87822"/><path d="M33.45 21.35V22q6.7-1.7 12 0l.95 1.25-.45.3q2.35.2 3.45 1.35l5.4-.2.75.05 1.75.35 1.15.4.85.35 1.4 1.05.05.05.2.2v.15l-.9.5.35 1.5v.05l5.65 26.2-1.7.65q-1.4-7.95-2.8-13.6v-.05Q58.15 28.5 55 28.65l4-1.85-2.65-.7-5.5-.35-4.05.6-1.7.05q1.25 0 3.1-1.25l-2.3-.3-3.45-.45 1.1-.2 1.75-1-1.85-.3h-.25l-9.55.35h-.1q-.95-.05-1.25-1.45l-.1-.4 1.25-.05" fill="#8d80ac"/><path d="M32.3 21.8q.3 1.4 1.25 1.45h.1l9.55-.35-5.5 1.2 4.75.3 3.45.45q-2.25 1.9-3.8 2.1 1 .45 4.7-.6l4.05-.6 5.5.35Q51.8 28.3 50 30.25q2.05-1.2 4.85-1.55h.05l.1-.05q3.15-.15 6.55 13.9L47 43.1l-1.05-.55q-2.7 1.15-4.25.9.05.5 1.85 1.65-3.55-.95-5.6-2.95-.2.05.7 1.9-4.85-2.2-8.15-9.05-2.35-4.65-.15-10.95.4 2.15 1.25 2.9-.65-1.95.7-5.15" fill="#fff"/><path d="M64.35 56.2 53.5 60.35l-7.85-16.3q-1.95 5.9-2 13.75-9-4.05-11.65-12.3-.65-4.95-4.15-8.65 1.7-8.9-1.25-16.75L15.05 32.95H15l-1.15-.45q-2.25.3-3.9 0l-.1-.05Q5.9 31.15 6 29.7q.5.1.35-.75 2.7 3.35 3.25 2.9 1.45-1.5 2.5-4.05.45 1.65 1.5 1.9l.25-1.15 1.75-7.5v-.1l.35-.65v.05l2.8-4.15q.2.65 1-.2 2.85-.6 4.1-2.35 2.65.25 4.4 4v.1l.8.05q-1 6.3 1.25 5.1.4-.55.65-2.2l1.25.7.1.4q-1.35 3.2-.7 5.15-.85-.75-1.25-2.9-2.2 6.3.15 10.95 3.3 6.85 8.15 9.05-.9-1.85-.7-1.9 2.05 2 5.6 2.95-1.8-1.15-1.85-1.65 1.55.25 4.25-.9l1.05.55 14.55-.55v.05q1.4 5.65 2.8 13.6" fill="#ded5f0"/><path d="M43.2 22.9h.25l1.85.3-1.75 1-1.1.2-4.75-.3 5.5-1.2m2.7 1.95 2.3.3q-1.85 1.25-3.1 1.25l1.7-.05q-3.7 1.05-4.7.6 1.55-.2 3.8-2.1m10.45 1.25 2.65.7-4 1.85-.15.05q-2.8.35-4.85 1.55 1.8-1.95 6.35-4.15" fill="#dfd6f3"/><path d="m23.85 13.65.1-.1 3.65-.15q.7 1.55.65 4.25-1.75-3.75-4.4-4" fill="#b3aac7"/><path d="m53.5 60.35-.2 1.15q-8.15 1.75-15.35-4.45l-.9-1.1q-1.45-2.2-1.8-3.6l-1.15-.05-2.25-5.15-.1-.6q-1.8-5.7-4.95-9.1l-11.75-4.5L26.6 20.1q2.95 7.85 1.25 16.75 3.5 3.7 4.15 8.65 2.65 8.25 11.65 12.3.05-7.85 2-13.75l7.85 16.3" fill="#afa4c4"/><path d="m53.3 61.5-.15.6q-8.7 2.2-15.2-5.05 7.2 6.2 15.35 4.45M31.85 47.15l2.25 5.15-.15.2q-.8-.5-2.1-5.35" fill="#e2c3ff"/><path d="m53.15 62.1-.25 1.05q-5.05 2-10.45-.9-6.8-3.75-7.8-8.85-.45 1.3-1.25.45-1.5-1.5-2.2-7l-.2-.5q-1.3-5.25-5.45-8.05l-.2-.1-11.25-5.05H14l-4.1-.35-2.9-.9q-1.7-1.2-1.65-2.5h.05l.6.3q-.1 1.45 3.85 2.75l.1.05q1.65.3 3.9 0l1.15.45h.05l11.75 4.5q3.15 3.4 4.95 9.1l.1.6q1.3 4.85 2.1 5.35l.15-.2 1.15.05q.35 1.4 1.8 3.6l.9 1.1q6.5 7.25 15.2 5.05" fill="#8a7da9"/></g><g id="R" fill-rule="evenodd"><path d="M38 85.45q6.65-4.1 10.5-11.5l-4.05-16.5.35-5.6-1.05 3.05q-1.7 2-5.25 2.15-2.3.1-5.55-.9L16.8 68.35q4.75-.8 9.8-3.8l5.85-5.2q4.45.05 8.9-1.4.05 2.6-8.1 5.55Q48.5 72.85 38 85.45M16.05 82q.25 2.15 1.4 2.1 2.35-.05 2.85-1.85l.1-.2.3.1.05.35q4.1 2.15 6.3.75 3.35-1.05.55-3.9.75 2.75-.8 3.25-2.45.75-5.55-.35l-.4-.3-.55-.15-.25.1-.1.2q-2.55 2.55-3.9-.1" fill="#ded5f0"/><path d="M16.8 68.35q-3.3.55-6.5 0 8.45 3.15 16.35-2.95l4.6-1.25 2-.65q8.15-2.95 8.1-5.55-4.45 1.45-8.9 1.4l-5.85 5.2q-5.05 3-9.8 3.8" fill="#b0a7c6"/><path d="M6.05 58.35q-.1 4.7.45 8.15l3.8 1.85q3.2.55 6.5 0l16.15-12.2q3.25 1 5.55.9 3.55-.15 5.25-2.15l1.05-3.05.8-2.35.05-.05q-4.85-4.1-39.2 8.5l-.1.05-.3.35" fill="#aca3c2"/><path d="M6.5 66.5q.8 5.15 3.1 7.55 1.95 4.55 1.4 9.15 4.2 7.2 16.9 6.3 5.65-1.3 10.1-4.05 10.5-12.6-4.75-21.95l-2 .65-4.6 1.25q-7.9 6.1-16.35 2.95L6.5 66.5m21.1 12.85q.95-.25 1.65 1.1.85 1.7-.7 2.85-3.45 2.55-7.9-.55Q19.8 85 17.4 84.7q-1.65-.2-2-2.55.1-1.25.55-1.05l.1.9q1.35 2.65 3.9.1l.1-.2.25-.1.55.15.4.3q3.1 1.1 5.55.35 1.55-.5.8-3.25m-8.3.6q-1.05-1.1-.25-1 .25-.6 2.05-.55 1.3.5-.75 1.9-.3.2-1.05-.35" fill="#fff"/><path d="M6.5 66.5q-.55-3.45-.45-8.15L5.1 59.5q-.45 9.9 3 14.8 2.45 4.35 1.85 8.95l-.05.95q7.55 8.45 17.8 5.9 16.85-4.25 20.8-16.15-3.85 7.4-10.5 11.5-4.45 2.75-10.1 4.05-12.7.9-16.9-6.3.55-4.6-1.4-9.15-2.3-2.4-3.1-7.55m21.1 12.85q2.8 2.85-.55 3.9-2.2 1.4-6.3-.75l-.05-.35-.3-.1-.1.2q-.5 1.8-2.85 1.85-1.15.05-1.4-2.1l-.1-.9q-.45-.2-.55 1.05.35 2.35 2 2.55 2.4.3 3.25-1.95 4.45 3.1 7.9.55 1.55-1.15.7-2.85-.7-1.35-1.65-1.1" fill="#8a7dab"/><path d="M19.3 79.95q.75.55 1.05.35 2.05-1.4.75-1.9-1.8-.05-2.05.55-.8-.1.25 1m.8-.05-.85-.7 1.5-.25-.65.95" fill="#e03f45"/><path d="m20.1 79.9.65-.95-1.5.25.85.7" fill="#ff6a67"/><path d="M40.15 64.9q-3.15-4.1-7.2-3.85-6.2 1.25-7.3 7.95-.6 4.3.55 6.75-.3 1.7 1.15.9 3.95 1 8.65-1.35 5.2-1.3 6.3-6.65.15-2.75-1.2-2.3.6-1.8-.05-2.1l-.9.65m-5.6-1.7.5.2q2.7 1 5.2 4.25l-.05 1.5q-.4 2.85-3.8 5.1-4.35 2.1-9.15 2.15h-.05q-.95.25-.6-.7-.3-1.55-.35-3.25v-.1l-.05-.2.25-3.5.2-.6V68q1.25-3.8 4.85-4.95h.05l.5-.15 2.5.3" fill="#262137"/><path d="M27.25 76.4q4.8-.05 9.15-2.15 3.4-2.25 3.8-5.1-1.45-1.5-2.4-1.55l.1-.55q0-.6-.45-1.1l-.55-.3-.6-.1h-.05q-.6 0-1.05.4l-.25.4-.2.7q0 .6.45 1.05l.35.25v.05l.75.15.75-.2h.05l.35-.25.25-.35q.25 1.45-.15 2.95-1.15 5.3-7.2 4.6l-.3-.05q-1.65-.35-2.6-1.15-.5 1.55-.2 2.3m.95-4.95-.15-.05-.4.1-.1.1-.2.5.2.5.35.25h.15l.45-.25.1-.05.1-.45-.2-.5q-.1-.15-.3-.15" fill="#fff"/><path d="M26.25 72.45q.05 1.7.35 3.25-.35.95.6.7h.05q-.3-.75.2-2.3-.8-.65-1.2-1.65m13.95-3.3.05-1.5q-2.5-3.25-5.2-4.25l1.75 2.05.1.2.55.3q.45.5.45 1.1l-.1.55q.95.05 2.4 1.55" fill="#b8d1f0"/><path d="m35.05 63.4-.5-.2q1.1 1.1 1.7 2.35l.55-.1-1.75-2.05M27.8 73.9l-1.45-1.55-.1.1q.4 1 1.2 1.65.95.8 2.6 1.15l.3.05q6.05.7 7.2-4.6.4-1.5.15-2.95l-.25.35-.35.25v.15q.25 4.05-2.75 5.85-2 1-4.25.65-1.25-.3-2.3-1.1" fill="#01415a"/><path d="m34.55 63.2-2.5-.3-.5.15q1.85.7 2.9 2.35l.15.25 1.65-.1q-.6-1.25-1.7-2.35m-7.9 4.85-.2.6-.25 3.5.15.2 1.45 1.55.1-1.05-.35-.25-.2-.5.2-.5.1-.1q-.9-1.35-1-3.45" fill="#007b91"/><path d="m36.25 65.55-1.65.1.35.7.25-.4q.45-.4 1.05-.4" fill="#33d7d0"/><path d="m34.6 65.65-.15-.25q-1.55.15-2.55.85L33.35 68l-2.9 2.75-1.3-1.7q-.6.8-.95 2.4.2 0 .3.15l.2.5-.1.45q.7.55 1.7.9 5.45.4 5.25-5v-.1l-.35-.25q-.45-.45-.45-1.05l.2-.7-.35-.7" fill="#015772"/><path d="M31.55 63.05h-.05Q27.9 64.2 26.65 68v.05q.1 2.1 1 3.45l.4-.1.15.05q.35-1.6.95-2.4l-1.25-1.7 2.75-2.5 1.25 1.4q1-.7 2.55-.85-1.05-1.65-2.9-2.35" fill="#054255"/><path d="m31.9 66.25-1.25-1.4-2.75 2.5 1.25 1.7 1.3 1.7 2.9-2.75-1.45-1.75" fill="#01fdee"/><path d="m27.9 72.85-.1 1.05q1.05.8 2.3 1.1 2.25.35 4.25-.65 3-1.8 2.75-5.85l-.05-.15-.75.2-.75-.15v.05q.2 5.4-5.25 5-1-.35-1.7-.9l-.1.05-.45.25h-.15" fill="url(#w)"/><path d="m14.3 75.1 1.3 2.55q.35.5-.45.8l-.35.15-2.05.45q-.8-.1-1.45-.55v-.05q-2.75-4.55-3-7.2V70.2q.35-1 1.2-.75l.1.05q.7.25 1.75 1.3l1.1 1.3 1.15 1.7.1.2.6 1.1m1.15 3.9q1.65-.1.5-1.35-.1-2.3-1.7-4.9-2.6-4.8-6-4.8-1.1-.35-1.7 2.5-2.9-1.75.3 2.7-1.3-.15-.2 1.15 1.9 2.1 2.75 3.95 2.75 2.2 6.05.75" fill="#251f39"/><path d="m14.8 78.6.35-.15q.8-.3.45-.8l-1.3-2.55-.1 2 .6 1.5" fill="#aecae2"/><path d="m14.8 78.6-.6-1.5q-.35 1.35-1.45 1.95l2.05-.45" fill="#fcfff8"/><path d="m14.2 77.1.1-2-.6-1.1.05 2.4h.05l.1.25-.1.25-.15.05v.1q-.45 1.9-2.35 1.4v.05q.65.45 1.45.55 1.1-.6 1.45-1.95" fill="#004760"/><path d="m12.85 73.5-2.3-2.1.1 3.35 1.95 1.35.25-2.6" fill="#07fbef"/><path d="m13.6 73.8-1.15-1.7-1.1-1.3q-1.05-1.05-1.75-1.3L9.55 71l.55.25.2.65-.2.6-.4.25q.35 3 2.05 4.2.85.45 1.3-.35.45-.75.5-2.6l.05-.2m-.75-.3-.25 2.6-1.95-1.35-.1-3.35 2.3 2.1" fill="#014558"/><path d="m9.6 69.5-.1-.05q-.85-.25-1.2.75v1.05l.6.15.1-.15q.2-.25.55-.25l.05-1.5m3.45 7.1.15.05.1-.25.25-.1.2.1-.05-2.4h-.15q-.05 1.85-.5 2.6" fill="#03708d"/><path d="M8.9 71.4q-.15.2-.15.5l.25.6q.2.25.55.25h.15l.4-.25.2-.6-.2-.65-.55-.25q-.35 0-.55.25l-.1.15m4.3 5.25.1.25.25.1h.1v-.05l.15-.05.1-.25-.1-.25h-.05l-.2-.1-.25.1-.1.25" fill="#fff"/><path d="M8.3 71.25q.25 2.65 3 7.2 1.9.5 2.35-1.4V77h-.1l-.25-.1-.1-.25-.15-.05q-.45.8-1.3.35-1.7-1.2-2.05-4.2h-.15q-.35 0-.55-.25l-.25-.6q0-.3.15-.5l-.6-.15" fill="#4bfce8"/><path d="m9.15 35.15-.2-.55q-.6.75-1.1 1.9-.5 1.2-.85 2.75l-.25 2.05q-.45.1-1.05.7l-.5.45-1.45 1.8q-5.45 10.2-.3 17.55 2.55 2.35 5.5 2.45 1 1.75 3.8 3.1 1.15.5 2.35.8l.1-.4-.05.4 2.45.25q4.75-.1 9.25-3 3.05-1.65 5.85-4.7l-.2-.25.3.1q3.4-.45 6-1.45h.05q1.95-.5 1.15-1.7l-.2.05q.25 1.05-.8 1.1h-.05q-11.65 2.15-15.85-.4l-2.3-1.75-.05-.05q-4.3-2.2-6-7.15l.55 2.55q2.15 3.55 5.75 6 3.45 2.15 7 2.35l2.2.4 1.5-.05h.75q-2.7 2.8-6.5 4.95-5.55 2.7-10.8 2.35-2.65-.8-3.85-1.95l-.05-.05h.05q-5.5-4.55-5.9-12.6l-.5 2.05q.95 5 3.35 8.35-.7 0-2.6-1.2l-.05-.15-1.6-1.2q-1.4-2-1.85-4.4-.25-1.5-.15-3.1l.05-.8q.3-6 4.8-10.95-.05 2.85 1.15 4.05-1.6-6.05 1.1-10.65m17.2-10.05.25 1.2.45-.2q4-1.6 10.55-1.05l.8-1.1q-7.35-.7-12.05 1.15m26.05 6.65L50 29q-2.65-1.7-5.5-2.75v1.15l7.9 4.35" fill="#221d33"/><path d="m12.55 40.25-.85-1.95v-.1q-2-5.5-3.15-7.7 0-9.4 1.9-20.3.25-3.8 1.6-8.4l1.05 1.65 1.1 1.65q4.3 6.8 8.45 14.65l2 3.25 1.7 8 .5 2.4.1.55.75-.5-.15-1.3-.95-5.85-.25-1.2-.9-2.8Q19.3 10.55 12.95 2 11.45-.65 11.2.2 9.8 5.6 9.1 10.75v.1q-1.8 9.65-1.8 17.3l-.7-.35q-.1-1.15-3.1-2.95Q.15 21.95.15 23.3-.3 30.8.65 35q1 3.85 4.55 7.45l.5-.45-.45-.7-3.3-4.7q.1-.9-.65-2.45L1 26.7l-.1-2.35v-.2l.3-.05v.05l4.85 4.7 1.6 1.6 1.3 4.15.2.55.75 2 1.05 2.45.2.35.5 1q.9 2.55 3.15 3.9 1 .55 2.2.9h.1l-.05-.15q-2.75-1.95-4.5-5.35m31.95-14q-.1-4.25-.8-7.5-.5-1.25-5.3 5.2l-.8 1.1L36 27.3l-.05.15q-3.15 5.8-2.7 8.65-.4 2.45 3.05 7.3.4 1.05 3.5-1.65l3.2-5.5q1.4-2.45 1.35-4.55v-.8l.15-3.25v-1.4m-2-5.15.1-.05.1-.2v.25q.45 6.95.2 13.2l-1.35 2.55-.1.2-.7 1.25-1.25 2.4q-.9 1.6-2.5 2.2-1.1-.85-2.65-4.1-.6-1.95-.5-3.3l.4-1 1.3-3.3.1-.3.1-.15q1.25-2.2 6.35-9.05l.35-.5.05-.1" fill="#a43a0a"/><path d="M13.1 3.45 12.05 1.8q-1.35 4.6-1.6 8.4-1.9 10.9-1.9 20.3 1.15 2.2 3.15 7.7v.1l.85 1.95Q11.2 34.05 9.15 28v-.15l2.6-16.4 1.2 2.5q1.9 4.7 3.55 7.55l-2.8-9.25-.2-.9L12.6 8h-.15l.65-4.55M.9 24.35 1 26.7l.3 7.45q.75 1.55.65 2.45l3.3 4.7L2 34.7v-1l1.55 1.55.05.1h.05l.05-.55q-1.3-1.8-2-3.45l-.5-5.7q-.15-1.4-.3-1.3m41.2-2.65q-5.1 6.85-6.35 9.05l.1.1 2.7-2.9.85 3.85-.4 3.9.75-2.6q-.6-5.95.65-7.85l.05-.1 1.65-3.45" fill="#fefefe"/><path d="M13.1 3.45 12.45 8h.15l.9 3.35.1.4.2.45q2.7 7 4.7 13.6.25-7.3-1.05-13.4-2.05-3.9-3.25-7.3l-1.1-1.65m-.15 10.5-1.2-2.5-2.6 16.4V28q2.05 6.05 3.4 12.25 1.75 3.4 4.5 5.35-.2-1.05.35-.7 0-.15.2-.15v.05q1.5.8 3.3 1.15l-1.05-5.15-.05-.1q-1.3-3.05-2.05-6.1-.05 5 .7 9.9l-4.3-2.6q-2.1-6.95-3.1-13.75l.9-11.1 1.65 6.55.6 2.05 1.5 3.3L18.1 31q.3.15.5-1.9-.15-.95-3.1-3.5l-2.55-11.65M1.5 25.8l-.3-.15.5 5.7q.7 1.65 2 3.45l.35-2.2q-.95-3.45-2.55-6.8m5.6 7.9-3.65-4.15.95 2.65 2.7 1.5" fill="#c25804"/><path d="M42.6 21.1h-.1l-.05.1q-.5 2.55-.55 5.9l-2 3.55v.05l.15 1.8.55-.35 2-3.6V21.1" fill="#bd5f08"/><path d="M21.55 24.75q-.4.5-.4 1.1 0 .6.4 1.05.35.45.95.45.55 0 .95-.45.4-.45.4-1.05 0-.6-.4-1.1-.4-.4-.95-.4-.6 0-.95.4m-.2 8.7q0 .4.25.65.25.35.6.35l.65-.35.2-.65-.2-.75q-.3-.3-.65-.3-.35 0-.6.3t-.25.75m19.4 4.85.7-1.25-.05-.1-.15-.2q-.2-.3-.55-.3l-.5.3q-.25.25-.25.6l.25.65.5.3h.05m-4.3-2.6q-.4-.4-.95-.4-.55 0-.95.4-.4.4-.4.95 0 .55.4.9.4.4.95.4.55 0 .95-.4.35-.35.35-.9t-.35-.95" fill="#fff666"/><path d="M21.35 33.45q0-.45.25-.75t.6-.3q.35 0 .65.3l.2.75-.2.65-.65.35q-.35 0-.6-.35-.25-.25-.25-.65m1.65 2.6.6-.55q.55-.7.55-1.65 0-1-.55-1.7t-1.35-.7q-.85 0-1.4.7-.55.7-.55 1.7 0 .95.55 1.65l.3.35.15.1v-.25q0-.4.25-.7.25-.25.65-.25.35 0 .6.25l.25.7-.05.35" fill="#fde334"/><path d="m21.3 35.95.25.35q.25.3.65.3l.6-.3.2-.25.05-.35-.25-.7q-.25-.25-.6-.25-.4 0-.65.25-.25.3-.25.7v.25" fill="#fff6d6"/><path d="M13.7 36.55q0 .45.35.75.3.3.75.3t.75-.3l.3-.75-.3-.8q-.3-.3-.75-.3t-.75.3q-.35.35-.35.8m7.35 2.85.55-.25.2-.55-.2-.6-.55-.2-.5.2q-.25.25-.25.6l.25.55q.2.25.5.25" fill="#ffff78"/><path d="m13.5 11.35.2.9 2.8 9.25.15.45L18 25.9q.35 1.1.75.85l-.15 2.35q-.2 2.05-.5 1.9l-2.4-2.05-1.5-3.3 1.15 3.7 2.85 2.05 1.8 9.25.05.05.25.7 1.5 3.55q-.55-3.15-1.35-4.85l-2-8.95q.55-.65.6-3.1.05-2.15-.45-1.9l-.1-.35q-2-6.6-4.7-13.6l-.2-.45-.1-.4M1.5 25.8q1.6 3.35 2.55 6.8l-.35 2.2-.05.55H3.6L5.65 40l-.3-.8-.65-1.95-.65-1.95.5-2.7 3.35 1.55-.8-.45-2.7-1.5-.95-2.65-.05-.15q-.95-2.25-1.9-3.6" fill="#a13300"/><path d="m6.05 28.85-4.85-4.7q1.5 3 4.85 4.7M26.35 31l-1.7-8-2-3.25Q18.5 11.9 14.2 5.1q1.2 3.4 3.25 7.3 2.5 4.7 6.25 10.1.85 4.7 2.65 8.5" fill="#e4bbcd"/><path d="m14.2 25.65-.6-2.05q-.55.1 1.6 6.65l2.05 2.15.5 2.2q.75 3.05 2.05 6.1l.05.1 1.05 5.15.85.2-1.45-4.75-.25-.7-.05-.05-1.8-9.25-2.85-2.05-1.15-3.7" fill="#fcfcfe"/><path d="m35.55 31.2-1.3 3.3q-.15.85 3.2-4.5l1 3.25Q37.1 38 37.1 40.7l1.35-3.3.55-1.7.4-3.9-.85-3.85-2.7 2.9-.3.35" fill="#c35c00"/><path d="m42.65 30.3-.05-1.75-2 3.6 2.05-1.85" fill="#fffbff"/><path d="M42.7 21.1h-.1v7.45l.05 1.75v3.2q-1.45 3.3-1.1 3.35l1.35-2.55q.25-6.25-.2-13.2" fill="#e3bcfd"/><path d="M16.5 21.5q-1.65-2.85-3.55-7.55L15.5 25.6q2.95 2.55 3.1 3.5l.15-2.35q-.4.25-.75-.85l-1.35-3.95-.15-.45M5.25 41.3l.45.7q.6-.6 1.05-.7L7 39.25l-1.65-.05.3.8-2.05-4.65-.05-.1L2 33.7v1l3.25 6.6m37.2-20.1-.35.5-1.65 3.45-.05.1q-.65 3.35-.5 5.4l2-3.55q.05-3.35.55-5.9" fill="#e6990b"/><path d="M40.4 25.25q-1.25 1.9-.65 7.85L39 35.7l-.55 1.7h.05l.1-.25v.3q-.1 2.35.55-1.7 1.15-2.8.95-2.8v-.15q.9-.3 2.55-2.5l-2.05 1.85-.55.35-.15-1.8v-.05q-.15-2.05.5-5.4" fill="#a23202"/><path d="m34.25 34.5-.4 1q-.1 1.35.5 3.3 1.55 3.25 2.65 4.1 1.6-.6 2.5-2.2l1.25-2.4h-.05l-.5-.3-.25-.65q0-.35.25-.6l.5-.3q.35 0 .55.3l.15.2.15-.1q-.35-.05 1.1-3.35v-3.2Q41 32.5 40.1 32.8v.15q.2 0-.95 2.8-.65 4.05-.55 1.7l-.1-.05h-.05l-1.35 3.3q0-2.7 1.35-7.45l-1-3.25q-3.35 5.35-3.2 4.5m2.2 1.2q.35.4.35.95 0 .55-.35.9-.4.4-.95.4-.55 0-.95-.4-.4-.35-.4-.9t.4-.95q.4-.4.95-.4.55 0 .95.4" fill="url(#x)"/><path d="m13.6 23.6-1.65-6.55-.9 11.1q1 6.8 3.1 13.75l4.3 2.6q-.75-4.9-.7-9.9l-.5-2.2-2.05-2.15q-2.15-6.55-1.6-6.65m.1 12.95q0-.45.35-.8.3-.3.75-.3t.75.3l.3.8-.3.75q-.3.3-.75.3t-.75-.3q-.35-.3-.35-.75" fill="url(#y)"/><path d="m26.85 33.4-.5-2.4q-1.8-3.8-2.65-8.5-3.75-5.4-6.25-10.1 1.3 6.1 1.05 13.4l.1.35q.5-.25.45 1.9-.05 2.45-.6 3.1l2 8.95q.8 1.7 1.35 4.85l-1.5-3.55 1.45 4.75 2.55.2q-1.4-3.5-.1-6.95 0-.45-.85.55-.25-1.8 1.3-3.95l.15-.15q1.1-1.9 2.05-2.45m-5.3-8.65q.35-.4.95-.4.55 0 .95.4.4.5.4 1.1 0 .6-.4 1.05-.4.45-.95.45-.6 0-.95-.45-.4-.45-.4-1.05 0-.6.4-1.1m-.25 11.2-.15-.1-.3-.35q-.55-.7-.55-1.65 0-1 .55-1.7t1.4-.7q.8 0 1.35.7t.55 1.7q0 .95-.55 1.65l-.6.55-.2.25-.6.3q-.4 0-.65-.3l-.25-.35m-.25 3.45q-.3 0-.5-.25l-.25-.55q0-.35.25-.6l.5-.2.55.2.2.6-.2.55-.55.25" fill="url(#z)"/><path d="m8.95 34.6-1.3-4.15-1.6-1.6q-3.35-1.7-4.85-4.7v-.05l-.3.05v.2q.15-.1.3 1.3l.3.15q.95 1.35 1.9 3.6l.05.15L7.1 33.7l.8.45-3.35-1.55-.5 2.7.65 1.95q1.05-2.3 3.15-.75.5-1.15 1.1-1.9" fill="url(#A)"/><path d="m11.15 39.95-.2-.35q-.55.85-.65 1.8-.1 1.85 1.8 4.2l.15.2q1.3 1.45 2.6 1.85L12.5 45.7l-.1-.2q-2.25-3.1-1.25-5.55m16.55-6.5-.75.5q-1.25.85-2.15 1.9l-.15.15q-1.55 2.15-1.3 3.95.85-1 .85-.55-1.3 3.45.1 6.95l.1.25q.9 2.3 2.6 3.7 1.45 1.2 3.5 1.7-6-3.2-6.5-8.15v-.15q-.1-1.95.6-4.2.4-1.55-1.05-.15.05-2 4.05-5.35l1.55-1.3-1.45.75m11.2 23.5-1.4-1.45h-.05q-2.65-4.45-2.8-7.35l-.3-.7-.05-.2-.15-.35v.6q.05 5.55 3.7 9.4l1.05.05m1.3-1.8.05-.3-.85-1.5q-.55-1.35-.5-5.15l-.05-.15q0-1.75-.7-2.8l-.95-.95q1.45 2.8 1.1 4.75v2.3q.05 1.15.25 1.85l1.65 1.95M29.55 37.3q-1.4 1.85-1.9 4.45l.05 2.4.3 2.1q.9 4.3 4.1 6.35l-1.45-1.75q-4.6-6.35-1.1-13.55" fill="#271636"/><path d="m44.45 54.4.85.65q.8-5.15 4.95-10.7l-1.2-1.05q-3.55 4.8-4.6 11.1" fill="#3b304e"/><path d="m51.25 38.6.8-4.7q-2.65-3.1-7.55-6.25l-.15 3.25q4.4 3.1 6.9 7.7M37.6 25.05q-6.55-.55-10.55 1.05 4.25.05 8.9 1.35l.05-.15 1.6-2.25" fill="#392a53"/><path d="m52.05 33.9.35-2.15-7.9-4.35v.25q4.9 3.15 7.55 6.25" fill="#dabdf7"/><path d="M39.8 57.45v-.05l-.7-.25-.2-.2-1.05-.05.4.35q-10.75 1.85-17.05-.7l-.4-.15 2.3 1.75q4.2 2.55 15.85.4H39q1.05-.05.8-1.1m-2.3-1.95 2.65.15.05-.5-1.65-1.95.3.65q-2.25-1.1-4.2-5.7.15 2.9 2.8 7.35h.05m-22.3 1.9-.25-.2.15.25.1-.05" fill="#2b223f"/><path d="m39.4 53.35 2.25.4v-.05q-1.05-1.75-1.25-1.55.1-4.95-2.25-6.9.7 1.05.7 2.8l.05.15q-.05 3.8.5 5.15" fill="#544379"/><path d="m34.35 47.45.3.7q1.95 4.6 4.2 5.7l-.3-.65q-.2-.7-.25-1.85-.35-.2-.55-1.6l-3.4-2.3" fill="#2e2542"/><path d="M12.1 45.6q-2.95 1.15-6.75 4.05-2.1 1.95-3.3 3.85-.1 1.6.15 3.1.4-4.55 6.55-8.85 1.6-1.15 3.5-1.95l-.15-.2m.3-.1.1.2 2.3-.85-2.4.65m15.3-1.35-3.65-.45-.05.15 2.85.55.1.05q.55 1.45 1.05 1.8l-.3-2.1m1.35.45.05.25 5.05 2.45v-.4l.15.35.05.2 3.4 2.3q.2 1.4.55 1.6v-2.3l-.05.1q-1.65-1.35-4-2.65-3.15-1.6-5.2-1.9" fill="#f3f9ef"/><path d="m27.55 32.15.15 1.3 1.45-.75L27.6 34q3-1.85 5.75-2.65-3.75-.25-5.8.8" fill="#402e60"/><path d="m26.95 33.95-.1-.55q-.95.55-2.05 2.45.9-1.05 2.15-1.9" fill="#c35901"/><path d="M14.8 44.85q-2.25-1.35-3.15-3.9l-.5-1q-1 2.45 1.25 5.55l2.4-.65" fill="#a56dc8"/><path d="M24.8 61.8q1.75.4 2 .95-5.35.9-10.2-1.75-3.85-1.9-5.8-7.85-.15 2.1 1.25 5.15l.25.45q.6 1.35 1.65 2.4 4.55 3.45 9.2 3.4-3.15 1.9-11.8 1.2v.05q1.2 1.15 3.85 1.95 5.25.35 10.8-2.35 3.8-2.15 6.5-4.95h-.75q-3.4 1.4-6.95 1.35m-9.5-10.05q1.6 5.25 6.45 8.5-3.95-.65-6.55-2.85 1.7 1.8 4.6 3.05 6.35 1.9 10.45.05l-2.2-.4q-3.55-.2-7-2.35-3.6-2.45-5.75-6" fill="#2c2244"/><path d="M15.1 57.45q1.45 2.25 5.15 3.75l4.55.6q3.55.05 6.95-1.35l-1.5.05q-4.1 1.85-10.45-.05-2.9-1.25-4.6-3.05l-.1.05" fill="#222632"/><path d="M4.95 55.2q-.55 3.55.7 7l.05.15q1.9 1.2 2.6 1.2-2.4-3.35-3.35-8.35" fill="#2a2440"/><path d="m17.05 45.6.05.15.55.15q-.3-.75-.25-1-.55-.35-.35.7m3.85.35q-1.8-.35-3.3-1.15 2.05 1.7 4.75 1.9h.1l1.95-.1-.1-.25-2.55-.2-.85-.2" fill="#231f2d"/><path d="M17.1 45.75H17q-1.2-.35-2.2-.9l-2.3.85 2.35 1.95q-1.3-.4-2.6-1.85-1.9.8-3.5 1.95-6.15 4.3-6.55 8.85.45 2.4 1.85 4.4l1.6 1.2q-1.25-3.45-.7-7l.5-2.05q.4 8.05 5.9 12.6 8.65.7 11.8-1.2-4.65.05-9.2-3.4-1.05-1.05-1.65-2.4l-.25-.45q-1.4-3.05-1.25-5.15 1.95 5.95 5.8 7.85 4.85 2.65 10.2 1.75-.25-.55-2-.95l-4.55-.6q-3.7-1.5-5.15-3.75l-.15-.25.25.2q2.6 2.2 6.55 2.85-4.85-3.25-6.45-8.5l-.55-2.55q1.7 4.95 6 7.15l.05.05.4.15q6.3 2.55 17.05.7l-.4-.35q-3.65-3.85-3.7-9.4v-.2l-5.05-2.45q.1 3.4 1.55 6l1.45 1.75q-3.2-2.05-4.1-6.35-.5-.35-1.05-1.8l-.1-.05-2.85-.55q.5 4.95 6.5 8.15-2.05-.5-3.5-1.7-3.45-1.6-4.55-3.6h-.1q-2.7-.2-4.75-1.9v-.05q-.2 0-.2.15-.05.25.25 1l-.55-.15" fill="url(#B)"/><path d="m26.6 26.3.95 5.85q2.05-1.05 5.8-.8-2.75.8-5.75 2.65-4 3.35-4.05 5.35 1.45-1.4 1.05.15-.7 2.25-.6 4.2h.05l3.65.45-.05-2.4q.5-2.6 1.9-4.45.65-.75 1.45-1.4-1.7 1.6-1.85 6.8l-.1 1.8v.1q2.05.3 5.2 1.9 2.35 1.3 4 2.65l.05-.1q.35-1.95-1.1-4.75l.95.95q2.35 1.95 2.25 6.9.2-.2 1.25 1.55l.15-.1-.1-.2q-.9-2.85.3-4.3.55 3.45 2.45 5.3 1.05-6.3 4.6-11.1l1.2 1.05 1-5.75q-2.5-4.6-6.9-7.7v.8q.05 2.1-1.35 4.55l-3.2 5.5q-3.1 2.7-3.5 1.65-3.45-4.85-3.05-7.3-.45-2.85 2.7-8.65-4.65-1.3-8.9-1.35l-.45.2" fill="url(#C)"/><path d="m9.9 37.15-.75-2q-2.7 4.6-1.1 10.65-1.2-1.2-1.15-4.05Q2.4 46.7 2.1 52.7l-.05.8q1.2-1.9 3.3-3.85 3.8-2.9 6.75-4.05-1.9-2.35-1.8-4.2-.4 0-.4 1.35-.85-1.85 0-5.6" fill="url(#D)"/><path d="M10.95 39.6 9.9 37.15q-.85 3.75 0 5.6 0-1.35.4-1.35.1-.95.65-1.8m18.1 5v-.1l.1-1.8q.15-5.2 1.85-6.8-.8.65-1.45 1.4-3.5 7.2 1.1 13.55-1.45-2.6-1.55-6l-.05-.25m-6.6 2.1q1.1 2 4.55 3.6-1.7-1.4-2.6-3.7l-1.95.1" fill="#6c5080"/></g><g id="S" fill-rule="evenodd"><path d="m41.5 6 1.7-2.05q-.1 3.7-1.5 7.35l-.1.15q-2.2 5.6-7.5 11.05-6.4 1.85-8.55 4.6 5.15-3.45 12.95-4.5 11.3-1.9 24.65-1 11.2.55 23.75 2.45 9.55.75 15.45-1.8l.2-.1 1.15-.5 2.6-1.7q2.35-1.95 3.55-4.75l.8-2.4q.85 3.85-2.1 11.45-3.9 9.2-16.55 18.4l-.2.15-2.1 1.5-10 5.75.05.05q3.75 1.65 8.1 1.2H88l1.35-.2.25-.2.1.15.05.1q.1.8-3.9 3.4-4.25 2.8-10.6 5.65l-6.15 2.4-.85.25q-5.8 1.7-14.8 2.15l-3.85-.05-1.6-.05q1.95 1.8 4.6 3.05l.55.25 1.05.4-7 .75H47q-14.05.1-31.15-9.75Q36.9 75.15 56.9 68.85l-4.85-2.5q24.2.15 40.4-16.75-5.25 1.15-10 .25 23.6-12.55 28.55-27.6 2.9-10.55-.45-15.85.35 18.6-25.45 15.9-32.15-4.55-48.6-.85Q46.55 10.2 43.85 0 42.3 6.7 30.5 10.9 7.8 17.45.45 40q-.8 3.45-.25 5.3 2.05-10.8 10.75-21.45 7.1-8.05 20-11.6 6.5-2 10.55-6.25" fill="#b95a06"/><path d="m41.6 11.45.1-.15q1.4-3.65 1.5-7.35L41.5 6l-1 1.8q-3.45 6.35-7.05 10.5l-.05.05-3.8 3.85q5.2-2.35 12-10.75M15.85 59.6q17.1 9.85 31.15 9.75h.2l5.95-1.15-.55-.25q-16.1-.05-29.55-8.45l.15-.3.55-1.05.85-1.9q.85-2.2 1.15-4.2l.15-2.75-.3-2.2-.8.05-5.6.8q-5.5 1.2-8.85 4.2l.4-2.75q.15-2.55-1-4.1-.65-.85-1.65-1.4l-.25.1-1.1.9-.1.05q-1.25 1.1-1.5 5.55 2.35 4.9 10 8.7l.55.3.15.1m73.5-8.5-1.35.2h-.15q-8 4.6-16.75 7.35L60.55 61.2q9.05-.1 20.65-4.4l.25-.1 7.9-5.6m20.5-35.9q-1.2 2.8-3.55 4.75-6.25 10.7-20.8 20.35 5.5-2.7 11.2-7.35-11 11.8-25.75 16.3 12.25-2.1 20.85-6.45l.15-.1.05-.05q16-13 17.85-27.45" fill="#d87822"/><path d="m49.6 64.95 3.85.05q9-.45 14.8-2.15l.8-.3q5.6-2.3 12.15-5.75-11.6 4.3-20.65 4.4l10.55-2.55Q51.6 62 33.3 61q6.95 2.15 14.7 3.65l1.6.3m30.1-14.9 10-5.75 2.1-1.5q-8.6 4.35-20.85 6.45 14.75-4.5 25.75-16.3Q91 37.6 85.5 40.3q14.55-9.65 20.8-20.35l-2.6 1.7Q87.1 42.15 56.5 44.5q9.95.1 20.55-2.4-13.3 6.6-36.8 8.75l8.5.75q17.35 2.35 30.8-1.5l.15-.05m-53.8-.75q12.9-9.35 33.65-10.45 14.7-1.35 21.35-7.7-7.45 5.5-21.3 6.55-11 .4-19.2 2.2l-.2.05q-9.15 2.55-15.4 7.2l.8-.05.3 2.2m-6.7-1.35q5.8-8.3 29.5-15.7-19.1 3.35-28.95 9.45 5.25-6.2 15.4-12.95-15.65 8.1-24.4 20.65l-.4 2.75q3.35-3 8.85-4.2M9.75 45.3q1.55-5.1 4.8-11.85-3.15 4-6.45 10.45 1 .55 1.65 1.4m-3.05-.45Q13.4 30.1 20.4 21.8 8.1 33.8 4.85 42.35v.1L4.15 47q.2 1.8 1 3.5.25-4.45 1.5-5.55l.05-.1M3.05 42.7q0-1.85 8.4-13.45-9.6 11.45-10.1 13.9.9-1.15 1.15.5l.55-.95M24.6 56.25q4.8.4 13.15 3l.15.05q12.35 2.45 23.45-2.1-16.55 4.35-29.4-2.05 9.7 1.55 16.95-1.1-10.45 2.3-23.15-2-.3 2-1.15 4.2" fill="#fff"/><path d="m23.75 58.15-.55 1.05 11.6 4.55-11.05-5.6" fill="#fffff2"/><path d="M41.6 11.45q-6.8 8.4-12 10.75l3.8-3.85-.2-.25.25.2q3.6-4.15 7.05-10.5-6.2 9.85-16.45 14.85 4.25-1.5 9.15-4.55-9.15 7.45-13.95 13.85 3.55-3.1 6.3-4.85 2.15-2.75 8.55-4.6 5.3-5.45 7.5-11.05" fill="#f69f50"/><path d="M92 42.65q12.65-9.2 16.55-18.4 2.95-7.6 2.1-11.45l-.8 2.4Q108 29.65 92 42.65" fill="#eac8fa"/><path d="m69.1 62.6 6.15-2.4q6.35-2.85 10.6-5.65 4-2.6 3.9-3.4l-.4-.05-7.9 5.6-.25.1q-6.55 3.45-12.15 5.75l.05.05" fill="#e5bdf9"/><path d="m40.5 7.8 1-1.8q-4.05 4.25-10.55 6.25-12.9 3.55-20 11.6Q2.25 34.5.2 45.3l1.15-2.15q.5-2.45 10.1-13.9-8.4 11.6-8.4 13.45 1.2-1.8 1.65-2.05l.15 1.7Q8.1 33.8 20.4 21.8q-7 8.3-13.7 23.05l.05.05 1.1-.9.2-.15.05.05q3.3-6.45 6.45-10.45-3.25 6.75-4.8 11.85 1.15 1.55 1 4.1 8.75-12.55 24.4-20.65Q25 35.5 19.75 41.7q9.85-6.1 28.95-9.45-23.7 7.4-29.5 15.7l5.6-.8q6.25-4.65 15.4-7.2l.2-.05q8.2-1.8 19.2-2.2 13.85-1.05 21.3-6.55-6.65 6.35-21.35 7.7Q38.8 39.95 25.9 49.3l-.15 2.75q12.7 4.3 23.15 2-7.25 2.65-16.95 1.1 12.85 6.4 29.4 2.05-11.1 4.55-23.45 2.1l-.15-.05q-8.35-2.6-13.15-3l-.85 1.9 11.05 5.6-11.6-4.55-.15.3q13.45 8.4 29.55 8.45-2.65-1.25-4.6-3.05v-.25q-7.75-1.5-14.7-3.65 18.3 1 37.8-2.35 8.75-2.75 16.75-7.35-4.35.45-8.1-1.2h-.2q-13.45 3.85-30.8 1.5l-8.5-.75q23.5-2.15 36.8-8.75-10.6 2.5-20.55 2.4 30.6-2.35 47.2-22.85l-1.15.5-.2.1q-5.9 2.55-15.45 1.8-12.55-1.9-23.75-2.45-13.35-.9-24.65 1-7.8 1.05-12.95 4.5-2.75 1.75-6.3 4.85 4.8-6.4 13.95-13.85-4.9 3.05-9.15 4.55 10.25-5 16.45-14.85" fill="url(#E)"/></g><g id="T" fill-rule="evenodd"><path d="M23.6 7.25q-3.85 6.55-8.45 9.25l1 .1q8.85.8 10.65 3.3-5.05 6.6-16.1 4.85l1.55.85q1.8 1.15 3.1 3.05-2.5 1.8-5.45 1.75-2.7-.05-5.75-1.7l.55.8v-.05q5.9 3.6 10.9.35 3.65-.1-1.3-4 7.55.9 11.95-3.6L28.4 20q-2.3-3.5-11.4-4.2 7.65-4.45 8.95-12.35-9.7-.65-19.1 5.45Q10 5 8.4 0 4.2 2.05 2 5.1l-.05.1Q.75 6.95.2 9.05l-.05.1-.15 2 .65-.5v-.3l.05-.2q1.8-5.5 7-8.6Q7.85 4.5 7 7.6l-.05.15-.35 1.1-.05.15q-1.25 1.85-1.3 2.4l.15.25.05-.05q4.8-5.5 19.65-7.2l-1.5 2.85" fill="#8c7faa"/><path d="M23.6 7.25q-4 4.45-8.95 7.05l-8.9 3.9 3.3-3.3-7.75 2.35 3.95-5.85q.05-.55 1.3-2.4l.05-.15.35-1.1Q2.15 13.4.8 16.4l-.15.2 3.5 12.1q3.05 1.65 5.75 1.7L5 25.75q5.2.35 7.25-.15l-1.55-.85q11.05 1.75 16.1-4.85-4.65 3.25-9.8 3.1l-7.7.45q2.3-1.55 7.9-2.4-6.3-.6-10.5 1.05 4.25-3.9 9.45-5.5l-1-.1q4.6-2.7 8.45-9.25" fill="#ded5f0"/><path d="M5.25 11.4 1.3 17.25l7.75-2.35-3.3 3.3 8.9-3.9q4.95-2.6 8.95-7.05l1.5-2.85Q10.25 6.1 5.45 11.6l-.05.05-.15-.25m10.9 5.2q-5.2 1.6-9.45 5.5 4.2-1.65 10.5-1.05-5.6.85-7.9 2.4L17 23q5.15.15 9.8-3.1-1.8-2.5-10.65-3.3m-3.9 9q-2.05.5-7.25.15l4.9 4.65q2.95.05 5.45-1.75-1.3-1.9-3.1-3.05M.8 16.4q1.35-3 6.15-8.65L7 7.6q.85-3.1.7-6.05-5.2 3.1-7 8.6l-.05.2v.3q-.35 3.95 0 5.9l.15-.15" fill="#fff"/></g><g id="U" fill-rule="evenodd"><path d="M32.75 4.75q-.35 7.6-2.15 14.65h1q3-6.8 1.15-14.65M18.2 19l.55-.8q2-9.4 7-16.75h-.05q-.8.8-1 .2-5.05 6.85-6.85 16.45l-.6.9h.95" fill="#8d80ae"/><path d="M28.9 0q2.35 2.7 1.75 7.7-.5 7.6-5 11.55l4.95.15q1.8-7.05 2.15-14.65Q31.4.95 28.9 0" fill="#ded5f0"/><path d="M25.65 19.25q4.5-3.95 5-11.55.6-5-1.75-7.7-1.1.9-3.1 1.3l-.05.15q-5 7.35-7 16.75l-.55.8 7.45.25" fill="#fff"/><path d="m31.05 17.55-.65 2.5q-.25.75 0 .95l1.25-.15-.05.6-.45.6q-2.7 1.9-2.65 2.5l.1.15q3.8-2.65 7.9-3.05l-1.55 2.75q-2.45 3.8-6.15 6.15v.05q7.85-1.75 9.4-.2l-.45 1q-2.45 4.5-10.15 6.7h-.05l.05.3q6.1 1 2.05 3.45l-.8.3-5.45.15-1.65 4.05-1.7 2.5.3 4.35q-.55 2-2.3 2.75-1.1.3-2.75-.45l-.8-.4q-.85-.5-.9-5.25v-1.4q-2.6 4.5-.05 7.4l-1 1Q7.75 58 5.6 55.15v-.85q.05-3.4 1.7-7.35-2.8 3.8-3 6.65-1.55-.45-2.3-1.2-.5-.55-.6-1.2v-.15q.2-2.95 2.8-5.6l.1-.2 1.2-4.15q4.55-10.7 12-19.8l.1-.15.5-.9q.9-.65-.25-.75l.9-1.3.3-1.2-1-.05-.2 1.15q-1.65 2.2-.5 2.45-5.55 4.9-9.9 13.6l-.1.1Q2.5 43.85 3.1 44.9q-3 4.05-3.1 6.05.1 1.05 1.2 1.9-1.3 2.35 1.1 6.4Q3.8 61 4 60.65q.2-1.65 1.5-4.2l.55.75q1.8 6.35 6.95 7.75-.2-3.35.5-7.45l1.05-.95q2.85 5.55 8.1 5.15-1.55-2.7-1.85-6.65 1.8-2.2.4-6.05 1.85-1.6 2.9-5.1 5.6 1.25 8.65-3.85.3-.4-1.8-1.75 4.15-1.9 6.4-4.5l.1-.1q1.7-2.2 1.45-4.8l-5.9-.15q4.9-5.3 4.75-8.3-1.9-.45-5.15.95l.85-2.3-2.15 1 1.05-2.5-1.3-.05m-13 39q1.45-.2 1.65-1.05.05 2.3.6 4.1l.5 1.2q-3.55-1.65-5.1-4.2l2.35-.05M2.95 58.7Q1.9 56.35 2.1 53q.75.7 1.45.95l.85.05.4 1.4q-1.4 2.05-1.6 3.65l-.25-.35m8.4 4.5q-3.25-3.05-4.1-5.95 1.1.55 2.5.6l2.55-.25q-.8 3.8-.45 6.05l-.35-.35-.15-.1" fill="#8c7fab"/><path d="M30.4 21q-2.3 1.35-3 2.45 1.8 0 4.2-2l.05-.6-1.25.15m-1.9 3.6q-2.55 3.25-3.45 5.85l-.65.45q2.35.05 10.55-6.5l1.55-2.75q-4.1.4-7.9 3.05l-.1-.1m.1 6.1q-3.25 1.85-5.4 4-.95 1 .5 1.3 5.75 1.8 14.05-4.6l.45-1q-1.55-1.55-9.4.2h-.05l-.15.1m-1 7.7q-3.85.4-6.5 1.45.5-.1 1.25.45 2.9 1.95 6.5 1.85l.8-.3q4.05-2.45-2.05-3.45m-4.2 3.9q-1.1-.5-1.5-1.45-.05 1.4.4 2.1-.1 2-.55 3.4l1.65-4.05m-8.1 13.2q3.15-.25 3.8-3.2.45-3.7-3-5.7 3-3.5 5.25-8.95 3.05-8.7.85-16.2h.05q3.2-1.55 5.15-4.1L19.05 17l-.3 1.2-.9 1.3q1.15.1.25.75l-.5.9-.1.15q-7.45 9.1-12 19.8l-1.2 4.15-.1.2q-2.6 2.65-2.8 5.6v.15q.1.65.6 1.2 1.45-.15 2.2-1.85 1.05-4.1 3.1-3.6-1.65 3.95-1.7 7.35 2.15 3.5 4.95.75 2-2.75.05-5.3 2.45-.8 3.4-3.15.15 1.9-.4 3.25.05 4.75.9 5.25l.8.4" fill="#fff"/><path d="M30.4 21q-.25-.2 0-.95l.65-2.5-3.65-.2q-1.95 2.55-5.15 4.1h-.05q2.2 7.5-.85 16.2-2.25 5.45-5.25 8.95 3.45 2 3 5.7-.65 2.95-3.8 3.2 1.65.75 2.75.45 1.75-.75 2.3-2.75l-.3-4.35 1.7-2.5q.45-1.4.55-3.4-.45-.7-.4-2.1.4.95 1.5 1.45l5.45-.15q-3.6.1-6.5-1.85-.75-.55-1.25-.45 2.65-1.05 6.5-1.45l-.05-.3h.05q7.7-2.2 10.15-6.7-8.3 6.4-14.05 4.6-1.45-.3-.5-1.3 2.15-2.15 5.4-4l.15-.1.05-.05q3.7-2.35 6.15-6.15-8.2 6.55-10.55 6.5l.65-.45q.9-2.6 3.45-5.85v-.05q-.05-.6 2.65-2.5l.45-.6q-2.4 2-4.2 2 .7-1.1 3-2.45M2 52.4q.75.75 2.3 1.2.2-2.85 3-6.65-2.05-.5-3.1 3.6-.75 1.7-2.2 1.85m3.6 1.9v.85q2.15 2.85 6.95 1.7l1-1q-2.55-2.9.05-7.4v1.4q.55-1.35.4-3.25-.95 2.35-3.4 3.15 1.95 2.55-.05 5.3-2.8 2.75-4.95-.75" fill="#ded5f0"/><path d="M20.3 59.6q-.55-1.8-.6-4.1-.2.85-1.65 1.05 0 1.3 2.25 3.05m-17.35-.9.25.35q.2-1.6 1.6-3.65L4.4 54l-.85-.05Q2.9 55 2.95 58.7m6.8-.85q-.1 2.1 1.6 5.35l.15.1.35.35q-.35-2.25.45-6.05l-2.55.25" fill="#b89ad8"/><path d="m18.05 56.55-2.35.05q1.55 2.55 5.1 4.2l-.5-1.2q-2.25-1.75-2.25-3.05m-14.5-2.6q-.7-.25-1.45-.95-.2 3.35.85 5.7-.05-3.7.6-4.75m7.8 9.25q-1.7-3.25-1.6-5.35-1.4-.05-2.5-.6.85 2.9 4.1 5.95" fill="#f3f3f3"/></g><g id="V" fill-rule="evenodd"><path d="M23 42.45h-.05l-.7 1.45.45-.15q3.35-1 3.6.7l1.55 11.7.85 4.9q.9 5.3 6.15 8.2 6.2 2.7 5 .9l6.85-.25-2.2-2.85q2.6.35 4.25-1.05-1.85-2.7-2.55-2.75.6-.6-1.1-2.1-3.6-6.5-5.3-15.8-1.1-6.45-3.4-9.55-1.05-1.8-2.6-2.75l-1.85.45q-.6.6-2.7-1.15.9-2 .65-3.95l-1.3 2.65-.45 1.2 1.1 1.25q1.35 1.05 2.7 1.1l1.05-.1.35-.1.1-.05q1.4.45 3.5 4.7l3.15 13.3.05.15.75 2.95q.7 2 1.55 2.95l.1.1 1.3 3.05q1.55 1.7 1.25 2.9l-.1.25q-.8 1.55-2.3 1.55l-.15-.05q-2.25-1.75-3.35-3.85l-.05-.1v.1q-.25 1.45 1.6 3.15.75.7 1.85 1.45l-.9 1.3-2.45.25q-2-.4-4.05-4l-.65-1.2q-.95-.05.3 2.35l1 1.65q-1.85.05-4.3-2.25L31 64l-.55-1.55q-1.2-3.75-1.75-9.85-.3-4.65-1.05-7.5l-.4-1.45q-.05-1.05-.75-1.45l-2.65-.1-.85.35M36.55 68.7l-1-.45.55-.1.3-.1 1.15 1-1-.35m6.4.75q-2.5.2-2.35-.55l1 .05q1-.35 1.95-2.1l1.2 2.4-1.8.2m3.7-4 .05.1q-.8.95-2.65.95l.6-.65 1.45-1.65.55 1.25" fill="#8f7cb4"/><path d="m28.15 32.25-.1-.05-3.8 7.65h.05l-1.3 2.6.85-.35 2.65.1q.7.4.75 1.45l.4 1.45q3.25-.7 6.65 4.1 3.6 5.55 1.2 10.4-1.6 2.85-5.05 2.85L31 64q3.2 2.15 3.85 1.65-1.25-2.4-.3-2.35l.65 1.2q3.65 3.75 5.55 1-1.85-1.7-1.6-3.15v-.1l.05.1q4 3.55 4.25-.4-2.2-3.7-3.05-6.8v-.05q-2.3-4.35-3.9-11.8l-.2-.4-.1-.3q-1.65-5.35-4.25-8-1.35-.05-2.7-1.1l-1.1-1.25" fill="#ded5f0"/><path d="m31 64 .55 1.05q2.45 2.3 4.3 2.25l-1-1.65q-.65.5-3.85-1.65m4.2.5q2.05 3.6 4.05 4l2.45-.25.9-1.3q-1.1-.75-1.85-1.45-1.9 2.75-5.55-1m4-2.15q1.1 2.1 3.35 3.85l.15.05q1.5 0 2.3-1.55l.1-.25q.3-1.2-1.25-2.9l-1.3-3.05-.1-.1q-.85-.95-1.55-2.95-2.25-5.05-3.7-13.95l-.05-.15q-1.1-4.3-4.15-6.85l-1.05.1q2.6 2.65 4.25 8l.1.3.2.4q1.6 7.45 3.9 11.8v.05q.85 3.1 3.05 6.8-.25 3.95-4.25.4" fill="#afa6c5"/><path d="M27.65 45.1q.75 2.85 1.05 7.5.55 6.1 1.75 9.85 3.45 0 5.05-2.85 2.4-4.85-1.2-10.4-3.4-4.8-6.65-4.1m8.45 23.05-.55.1 1 .45-.45-.55m5.5.8-1-.05q-.15.75 2.35.55l-1.35-.5m3.05-3.1-.6.65q1.85 0 2.65-.95l-.05-.1-2 .4" fill="#fff"/><path d="m40.9 55.45-.75-2.95-.05-.15-3.15-13.3q-2.1-4.25-3.5-4.7l-.1.05-.35.1q3.05 2.55 4.15 6.85l.05.15q1.45 8.9 3.7 13.95" fill="#e8c9ff"/><path d="m36.55 68.7 1 .35-1.15-1-.3.1.45.55m6.4.75 1.8-.2-1.2-2.4q-.95 1.75-1.95 2.1l1.35.5m3.7-4-.55-1.25-1.45 1.65 2-.4" fill="#ba9bde"/><path d="M1.25 15.35q-3.75 13.05 3.6 22.1 6.9 9.65 17.85 6.3 2.4-.75 3.2-.05l.5-1.55-2.55-.05q-3.85 1.8-8.35.75l-.15.05q-2.9-.7-5.25-2.2-1.95-1.3-3.55-3.2l-.05-.05q-2.35-2.85-3.95-7.1l-.15-.45Q.65 24.15 1.25 15.35" fill="#8c7fad"/><path d="m26.6 41.5 2.5-8.15-.95-1.1.55-1.65q-.95-3.9-3.7-4.55 3.45-.45 4.95.85H30q-.35-2.95-2.65-5.9l-.1-.05-1.5-3.4q1.6 1.85 5.9 3.6-1.6-5.6-5.45-8.75h1q-2.95-1.15-4.45-2.6l7.35.2-1.55-1.45q-7.1-1.8-13.05-1.7l9.3 6.9-5.8-.15q5 3.1 7 8.65-.9-1-4.75-2.5 1.65 2.45 6 5.15-3.1.5-6.25-.05l-.35 3.85q2.2-.95 3.15 1.6.55 2.55-1.3 4.35-2.5 1.75-3.7-.9Q14 41.8 6.55 37.5q1.6 1.9 3.55 3.2 5.15 2.45 14.95-1.15 1.45.6 1.55 1.95" fill="#ded5f0"/><path d="m26.4 42.15.2-.65q-.1-1.35-1.55-1.95-9.8 3.6-14.95 1.15 2.35 1.5 5.25 2.2l.15-.05q4.5 1.05 8.35-.75l2.55.05m2.3-11.55q.4-1.8-.25-3.1l-.35-.15q-1.05-.55 1.85-.45-1.5-1.3-4.95-.85 2.75.65 3.7 4.55M27.35 21l.6.25 3.6.2.15-.2-.05-.1q-4.3-1.75-5.9-3.6l1.5 3.4.1.05m-.15-8.6.55-.05q2.15-1 2.7-1.95l-.35-.4-7.35-.2q1.5 1.45 4.45 2.6" fill="#aea5c4"/><path d="M10.8.85 1.05 15.2l.2.15q-.6 8.8 1.15 14.55l.15.45q1.6 4.25 3.95 7.1l.05.05Q14 41.8 18.8 33.75q1.2 2.65 3.7.9 1.85-1.8 1.3-4.35-.95-2.55-3.15-1.6l.35-3.85q3.15.55 6.25.05-4.35-2.7-6-5.15 3.85 1.5 4.75 2.5-2-5.55-7-8.65l5.8.15-9.3-6.9q5.95-.1 13.05 1.7Q19.25.05 10.8.85" fill="#fff"/><path d="m28.45 27.5-.2-.3 1.8.1-.05-.35v-.05h-.05q-2.9-.1-1.85.45l.35.15m-.5-6.25q2.7 1.15 3.6.2l-3.6-.2m-.2-8.9q2.75-.25 3.2-1.5l-.5-.45q-.55.95-2.7 1.95" fill="#dcbff5"/><path d="m29.1 33.35.25-.9-.1-.1q1-2.15.6-4.35l1.45.3q1.5-1.1-1.4-5.55 2 .45 3.6-.9-1.55-5.7-5.1-8.75 3.95-.15 4.55-2.05Q20.35-2.3 11.05.5l-.25.35q8.45-.8 17.75 7.7L30.1 10l.35.4.5.45q-.45 1.25-3.2 1.5l-.55.05h-1q3.85 3.15 5.45 8.75l.05.1-.15.2q-.9.95-3.6-.2l-.6-.25q2.3 2.95 2.65 5.9v.05l.05.35-1.8-.1.2.3q.65 1.3.25 3.1l-.55 1.65.95 1.1" fill="#8e81ad"/></g><g id="W" fill-rule="evenodd"><path d="m24.95 39.5.2-.1q10.8-7.3 20.1-18.5 1.15-.95 1.45-1.95.8 3.5-.3 9.45Q68.15 12.15 74.1 0q8.35 29.95-12.8 50.35l7.05-2.85Q69.9 57.9 58.3 68q4.95-1.6 8.1-.6Q65 75 54.8 81.15q3 1.1 5 3.95-5.25 6.05-11.55 6.5l-9.45 2.2q-9.6 9.45-20.1 9.4-11.35-1.6-16.4-12.65Q-3.05 77.95 4.05 64q5.15-11.35 20.9-24.5m10.75-7.3q-6.55 6.25-13.3 11.35l-.3.25-2.15 1.95-.3.25Q3.25 61.1 1.7 77.5l-.1.2q-.55 15.2 10.15 21.9l2.4 1.3q13.4 3.15 22.5-6.95l.3-.3q4.45-4.3 6.1-10.75-.05-7.05-3.85-9.95l-.2-.1-.1-.05q-6.2-3.5-13.05.45-2.5 2.05-2.9 5.85v.3q1.3 3.85 6.05 3.65h.25l-.15.15-.65.35q-1.2.35-3.7-.8h-.1q-1.75-1.15-2.1-3.3-.25-1.65.35-3.85l.1-.1q4.1-5.95 12.5-4.9l.15.05q6.1 1.5 8.3 8.85l.1.45q.75 3.6-.8 7.45l-.15.3q-.9 2.1-2.5 4.3 13.1-1.55 17.5-6.75l.4-.55q-2.85-2-5.5-2.85l-1-.25q12.1-7.25 12.55-12.95l.15-.05-.1-.05h-.05Q60.9 68.3 52.3 70.9l1.55-1.15.15-.1Q66.85 59.7 67 50.9l-.1-1.65-8.3 3.6-5 2.2 5.25-4.25Q78.65 32.85 74.1 5.95l-.15-.85-.35-1.8q-4.15 5.95-8.95 11.15-8.4 9.1-18.8 15.8-2.45 6.85-7 12.05l-2.05 2.15 1.8-2.35q7.15-10.05 7.1-20.4l-2.45 2.8-.2.2-6.8 6.95-.55.55" fill="url(#F)"/><path d="m19.95 45.75 2.15-1.95.3-.25q6.75-5.1 13.3-11.35l-2.35 2.7-.5.5q-5.5 5.65-12.7 10.55l-.2-.2" fill="#fffbff"/><path d="m19.95 45.75.2.2-.25.3Q5.05 64.5 4.35 76.1v.3q2.6-1.15 5.15.7-.55-1.4.3-3.25 1.4-1.85 3.7-.45l.2.05q2.5 3.4.75 4.85-.85.7-2.7.9 3.15 5.4.55 9.7-2.15 2.2-4.55 2.75l.05.05q3.2 5.6 9.3 8.45l2.75 1.05q-3.8-.1-8.1-1.6Q1.05 92.9 1.6 77.7l.1-.2Q3.25 61.1 19.65 46l.3-.25m5.6 38.6q-5.45-2.4-5.95-7.15l-.05-.3q-.5-6.15 4.4-9.15 6.8-3.5 11-1.85l-4.75.15-.05.05h-.05l-.1.1q-7.6 2.8-8.6 7.3l-.05.2q-1.45 7.05 4.2 10.65" fill="#fffcf5"/><path d="M20.15 45.95q7.2-4.9 12.7-10.55l.5-.5-.3.6Q27.2 48.8 17.4 62.6l-.35.5q-2.8 4.35-3.55 10.3-2.3-1.4-3.7.45-.85 1.85-.3 3.25-2.55-1.85-5.15-.7v-.3q.7-11.6 15.55-29.85l.25-.3m-5.7 32.35q4.05 10.2 2.65 21.85Q11 97.3 7.8 91.7l-.05-.05q2.4-.55 4.55-2.75 2.6-4.3-.55-9.7 1.85-.2 2.7-.9" fill="#ff82a7"/><path d="m33.35 34.9 2.35-2.7.55-.55 6.8-6.95q-3.55 11.95-10.6 23l6.15-5.6-1.8 2.35 2.05-2.15q4.55-5.2 7-12.05 10.4-6.7 18.8-15.8 4.8-5.2 8.95-11.15l.35 1.8.15.85q.35 22.45-11.35 35.25l-.1.1Q53.6 52.65 42.7 60q10.8-3.15 15.9-7.15l8.3-3.6.1 1.65Q55.85 67.05 45.3 71.5l8.55-1.75-1.55 1.15q8.6-2.6 12.25-2.35v.1L46.3 82.8q.7-8.85-4.1-12.75-3.35-3.45-7.25-4.15-4.2-1.65-11 1.85-4.9 3-4.4 9.15l.05.3q.5 4.75 5.95 7.15l.05.05q2.95.05 2.85-.85l.65-.35.15-.15H29q.45-1.95-1.8-1.35-3.9-1.75-.9-6.45l.1-.1q3.95-4.95 9.7-2.75l-.95.15q2.65 1.9 3.55 4.8-3.4-1.35-4.6 1.5l-.1.35q-.2 3.75 3.05 4.3h.15l1.75-.85q-.8 5.3-5.35 12.65-5.85 6.05-13.75 5.9l-2.75-1.05q1.4-11.65-2.65-21.85 1.75-1.45-.75-4.85l-.2-.05q.75-5.95 3.55-10.3l.35-.5q9.8-13.8 15.65-27.1l.3-.6m19.4 1.15.05-.1q7.4-7.85 12.1-21.25-5.35 5.95-11.55 16.45-7.25 10.65-15.85 19 8.55-6.15 15.25-14.1" fill="url(#G)"/><path d="M43.25 87.4q1.55-3.85.8-7.45l-.1-.45q-2.2-7.35-8.3-8.85l-.15-.05q-8.4-1.05-12.5 4.9l-.1.1q-.6 2.2-.35 3.85.35 2.15 2.1 3.3h.1q2.5 1.15 3.7.8.1.9-2.85.85l-.05-.05q-5.65-3.6-4.2-10.65l.05-.2q1-4.5 8.6-7.3l.15-.1.05-.05 4.75-.15q3.9.7 7.25 4.15-1.5-1.2-3.4-1.95 5.3 3.15 6.25 10.55.5 5.45-1.8 8.75M29 83.05q-4.75.2-6.05-3.65v-.3q.4-3.8 2.9-5.85 6.85-3.95 13.05-.45l.1.05.2.1q3.8 2.9 3.85 9.95-1.65 6.45-6.1 10.75l-.3.3q-9.1 10.1-22.5 6.95l-2.4-1.3q4.3 1.5 8.1 1.6 7.9.15 13.75-5.9 3-3.1 5.45-7.75l.1-.25q3.6-8.3-1.1-13.85l-.2-.3-.45-.2q-.65-.35-1.3-.55-5.75-2.2-9.7 2.75l-.1.1q-3 4.7.9 6.45 2.25-.6 1.8 1.35" fill="#a1ea77"/><path d="m43.05 24.7.2-.2 2.45-2.8q.05 10.35-7.1 20.4l-6.15 5.6q7.05-11.05 10.6-23M74.1 5.95q4.55 26.9-15.25 44.85l-5.25 4.25 5-2.2q-5.1 4-15.9 7.15 10.9-7.35 19.95-18.7l.1-.1Q74.45 28.4 74.1 5.95M67 50.9q-.15 8.8-13 18.75l-.15.1-8.55 1.75Q55.85 67.05 67 50.9m-2.45 17.75Q64.1 74.35 52 81.6l1 .25-6.7 1.3v.05q-.35 3.5-1.45 5 7.4 0 13.25-2.95-4.4 5.2-17.5 6.75 1.6-2.2 2.5-4.3l.15-.3q2.3-3.3 1.8-8.75-.95-7.4-6.25-10.55 1.9.75 3.4 1.95 4.8 3.9 4.1 12.75l18.25-14.15" fill="#7aa850"/><path d="M52.75 36.05Q46.05 44 37.5 50.15q8.6-8.35 15.85-19 6.2-10.5 11.55-16.45-4.7 13.4-12.1 21.25l-.05.1" fill="#fffefd"/><path d="M33.6 95.3q4.55-7.35 5.35-12.65l-1.75.85h-.15q-3.25-.55-3.05-4.3l.1-.35q1.2-2.85 4.6-1.5-.9-2.9-3.55-4.8l.95-.15q.65.2 1.3.55l.65.5q4.7 5.55 1.1 13.85l-.1.25Q36.6 92.2 33.6 95.3" fill="#fff"/><path d="M53 81.85q2.65.85 5.5 2.85l-.4.55q-5.85 2.95-13.25 2.95 1.1-1.5 1.45-5v-.05l6.7-1.3" fill="#e3e71e"/></g><g id="X" fill-rule="evenodd"><path d="M46.2 11.1q13.3 6.6 21.95 6.7-12.3 12.5-28.25 7l3.25 3.2q-6.2 3.2-13.15.35 2.2 2.3 2.85 3.95-4.2 1.2-10.1-1.8.25 2.4-.6 3-3.65.1-6.75-3.55l-3.85-3.65q-4.35-.55-7.9-3.7l-.15-.05q-6.15-4.85-1.45-14 10.1-12.8 29.7-6.45Q44.4 7.6 51.2 8.4q-.8 1.35-5 2.7m-5.65.5L36 10.8q7.75 1 13.4-1.95L46.15 7.8l-.7-.2L41 6.3h-.15Q24.5-.7 16.4 1.15l-.55.1Q5.3 3.7 2.15 10.1q-.4.7-.65 1.45-.95 2.7-.5 5.1v.05q.3 1.55 1.2 2.95 1.35 2.15 4.1 3.95 6.85 3.7 13.45.85 4-3.5 1.35-8.35-2.3-2.8-4.8-2.6-3.25 1.15-2.8 3.2v.15l.8 1.5h-.05l-.3-.05q-1.1-.3-.8-2.95l.35-.65.1-.15q1.3-1.75 3.7-1.5h.15q3.15.5 4.85 4.85.95 4.7-1.7 6.4-2.6 2.2-7.25 2.3 3.75 5.65 8.4 6.5l.3-.35q.3-.85-.3-3.6 5.2 2.9 10 2.55l-1.15-1.4-2.55-3.1-.8-.95q9.05 4.45 14.4 1.3l.05-.05-5-4-1.5-1.2q12.45 6.3 24.05.7 3.55-1.7 6.95-4.5l-7.25-1.55-.65-.15q-6.5-1.95-12.9-5.45l-4.85.25" fill="url(#H)"/><path d="m46.15 7.8 3.25 1.05Q43.75 11.8 36 10.8l4.55.8q-4.2.3-7.85-2.15 5.45 2.2 13.45-1.65" fill="#c1a0b3"/><path d="m58.3 16.8.65.15q-12.6 1.4-26.15-5.9 15 5.35 25.5 5.75" fill="#fefaf9"/><path d="M46.15 7.8q-8 3.85-13.45 1.65 3.65 2.45 7.85 2.15l4.85-.25q6.4 3.5 12.9 5.45-10.5-.4-25.5-5.75 13.55 7.3 26.15 5.9l7.25 1.55q-3.4 2.8-6.95 4.5-21.2 2.15-31.2-8.4 2.4 4.65 7 7.85l1.65 1.05 5 4-.05.05q-13.9-1.45-17.95-4.2v-.15q.5-1.6.2-3.7l-.15-.85-.55-2.1q-2.3-4.5-7.05-4.4l-.25-.1q-4.85 2.45-3.55 5.25 1.45 1.75 1.6 1l.3.05h.05l-.8-1.5v-.15q1.4-4.3 5.35-2.25l.2.15q1.1.95 1.6 2.1.25 2.95-1 4.7-.45-1.8-2.4-1-2.05 1.05-1.1 3.2-3.25.7-8.85-.65l-.1-.05q-2.35-1.25-5-3.25-.9-1.4-1.2-2.95v-.05q10.75-.75 16-7.75l.25.05q.5 0 .9-.45l.4-.9v-.15Q21 6.2 23.1 2.65l6.85.45q9.85 4.2 15.5 4.5l.7.2M25.7 16.05q.1 3.05 5.2 5.7-2.75-4.3-5.2-5.7" fill="url(#I)"/><path d="m13.6 14.55-.1.15-.35.65q-.3 2.65.8 2.95-.15.75-1.6-1-1.3-2.8 3.55-5.25l.25.1-.15.1q-2.05 1.2-2.4 2.3M2.15 10.1q3.15-6.4 13.7-8.85l.55-.1Q24.5-.7 40.85 6.3H41l4.45 1.3q-5.65-.3-15.5-4.5l-6.85-.45-7.5.55h-.05l.05.05q1.95 1.6-.45 4.25-3.2 3.45-6.8 1.7-1.7-.55-2-2.6-2.3 1.5-4.2 3.5M17 8.9l-.65-.4q-.4-.4-.4-1t.4-1.05q.35-.4.9-.4.5 0 .9.4l.4 1v.15l-.4.9q-.4.45-.9.45L17 8.9m3.65 7.8q1.2 2.4-.25 5.55l-.05.1q-4.55 5-13.05.6 5.6 1.35 8.85.65-.95-2.15 1.1-3.2 1.95-.8 2.4 1 1.25-1.75 1-4.7" fill="#fff"/><path d="M1 16.65q-.45-2.4.5-5.1.25-.75.65-1.45 1.9-2 4.2-3.5.3 2.05 2 2.6 3.6 1.75 6.8-1.7 2.4-2.65.45-4.25V3.2l7.5-.55Q21 6.2 18.55 7.45l-.4-1q-.4-.4-.9-.4-.55 0-.9.4-.4.45-.4 1.05 0 .6.4 1l.65.4q-5.25 7-16 7.75" fill="#fe70c2"/><path d="M13.5 16.7q-.45-2.05 2.8-3.2 2.5-.2 4.8 2.6 2.65 4.85-1.35 8.35-6.6 2.85-13.45-.85-2.75-1.8-4.1-3.95 2.65 2 5 3.25l.1.05q8.5 4.4 13.05-.6l.05-.1q1.45-3.15.25-5.55-.5-1.15-1.6-2.1l-.2-.15Q14.9 12.4 13.5 16.7" fill="#d9dd4a"/><path d="M13.35 26.6q4.65-.1 7.25-2.3 2.65-1.7 1.7-6.4-1.7-4.35-4.85-4.85h-.15q-2.4-.25-3.7 1.5.35-1.1 2.4-2.3l.15-.1q4.75-.1 7.05 4.4l.55 2.1q-.25-1.15-.65-1.5.7 3.05-.3 5.55-2.15 4.5-5.9 5.15l-2-1.05-1.55-.2" fill="#b2e967"/><path d="M59.25 23q-11.6 5.6-24.05-.7l1.5 1.2-1.65-1.05q-4.6-3.2-7-7.85 10 10.55 31.2 8.4m-17.6 4.55q-5.35 3.15-14.4-1.3l.8.95Q25 25.05 23.7 23.35q4.05 2.75 17.95 4.2M30.6 30.3l1.15 1.4q-4.8.35-10-2.55l-.1-.1-1.55-1.15q5.1 1.95 10.5 2.4m-8.55 2.45-.3.35q-4.65-.85-8.4-6.5l1.55.2 2 1.05q3.75-.65 5.9-5.15 1-2.5.3-5.55.4.35.65 1.5l.15.85q.3 2.1-.2 3.7v.05l-.05.05q-.35 1.15-1.1 2-1.25 1.55-2.7 2.45-1 .6-2.15.9l4.35 4.1" fill="#7aa850"/><path d="m28.05 27.2 2.55 3.1q-5.4-.45-10.5-2.4l1.55 1.15.1.1q.6 2.75.3 3.6l-4.35-4.1q1.15-.3 2.15-.9 1.45-.9 2.7-2.45.75-.85 1.1-2l.05.05q1.3 1.7 4.35 3.85" fill="#f0d804"/><path d="M25.7 16.05q2.45 1.4 5.2 5.7-5.1-2.65-5.2-5.7" fill="#fdfff0"/></g><use ffdec:characterId="2" height="27.95" width="58.55" xlink:href="#J" id="c"/><use ffdec:characterId="4" height="52.45" width="26.2" xlink:href="#K" id="d"/><use ffdec:characterId="6" height="103" width="117.3" xlink:href="#L" id="e"/><use ffdec:characterId="8" height="35.6" width="34.3" xlink:href="#M" id="f"/><use ffdec:characterId="10" height="81.6" width="69.15" xlink:href="#N" id="g"/><use ffdec:characterId="12" height="60.25" width="47.95" xlink:href="#O" id="h"/><use ffdec:characterId="14" height="58.75" width="32.05" xlink:href="#P" id="i"/><use ffdec:characterId="16" height="63.95" width="66.05" xlink:href="#Q" id="j"/><use ffdec:characterId="18" height="90.7" width="52.4" xlink:href="#R" id="k"/><use ffdec:characterId="24" height="70.65" width="112.35" xlink:href="#S" id="l"/><use ffdec:characterId="26" height="31.35" width="28.4" xlink:href="#T" id="m"/><use ffdec:characterId="28" height="64.95" width="38.95" xlink:href="#U" id="n"/><use ffdec:characterId="30" height="70.85" width="48.75" xlink:href="#V" id="o"/><use ffdec:characterId="32" height="103.2" width="76.45" xlink:href="#W" id="p"/><use ffdec:characterId="34" height="33.5" width="68.15" xlink:href="#X" id="q"/><linearGradient gradientTransform="matrix(.006 -.0059 .0126 .0122 63.4 25.3)" gradientUnits="userSpaceOnUse" id="r" spreadMethod="pad" x1="-819.2" x2="819.2"><stop offset=".02" stop-color="#5e9e47"/><stop offset="1" stop-color="#eb63a5"/></linearGradient><linearGradient gradientTransform="matrix(.0231 .0109 -.0245 .0462 49.9 55.85)" gradientUnits="userSpaceOnUse" id="t" spreadMethod="pad" x1="-819.2" x2="819.2"><stop offset=".02" stop-color="#5e9e47"/><stop offset=".784" stop-color="#eb63a5"/></linearGradient><linearGradient gradientTransform="matrix(-.018 0 0 .0325 28.9 37.65)" gradientUnits="userSpaceOnUse" id="v" spreadMethod="pad" x1="-819.2" x2="819.2"><stop offset=".251" stop-color="#fff57f"/><stop offset="1" stop-color="#ffca6c"/></linearGradient><linearGradient gradientTransform="matrix(.002 -.005 -.0073 -.0029 38.25 36.45)" gradientUnits="userSpaceOnUse" id="x" spreadMethod="pad" x1="-819.2" x2="819.2"><stop offset=".251" stop-color="#fff809"/><stop offset="1" stop-color="#f9bf06"/></linearGradient><linearGradient gradientTransform="matrix(-.0033 -.0156 -.0164 .0034 14.75 30.75)" gradientUnits="userSpaceOnUse" id="y" spreadMethod="pad" x1="-819.2" x2="819.2"><stop offset=".251" stop-color="#fff809"/><stop offset="1" stop-color="#d98018"/></linearGradient><linearGradient gradientTransform="matrix(-.0013 -.0184 -.0207 .0014 21.55 38.05)" gradientUnits="userSpaceOnUse" id="z" spreadMethod="pad" x1="-819.2" x2="819.2"><stop offset=".251" stop-color="#fff809"/><stop offset="1" stop-color="#d98018"/></linearGradient><linearGradient gradientTransform="matrix(-.0008 -.0074 -.008 .0008 5.25 34.4)" gradientUnits="userSpaceOnUse" id="A" spreadMethod="pad" x1="-819.2" x2="819.2"><stop offset=".251" stop-color="#fff809"/><stop offset="1" stop-color="#d98018"/></linearGradient><linearGradient gradientTransform="matrix(-.0024 -.0114 -.0132 .0027 20.2 54.9)" gradientUnits="userSpaceOnUse" id="B" spreadMethod="pad" x1="-819.2" x2="819.2"><stop offset="0" stop-color="#433862"/><stop offset=".459" stop-color="#8269ba"/><stop offset="1" stop-color="#cf8df7"/></linearGradient><linearGradient gradientTransform="matrix(-.0069 .0154 .0157 .0071 37.4 40.25)" gradientUnits="userSpaceOnUse" id="C" spreadMethod="pad" x1="-819.2" x2="819.2"><stop offset="0" stop-color="#433862"/><stop offset=".459" stop-color="#8269ba"/><stop offset="1" stop-color="#cf8df7"/></linearGradient><linearGradient gradientTransform="matrix(.0035 .005 .0092 -.0064 7.1 44.3)" gradientUnits="userSpaceOnUse" id="D" spreadMethod="pad" x1="-819.2" x2="819.2"><stop offset="0" stop-color="#433862"/><stop offset=".459" stop-color="#8269ba"/><stop offset="1" stop-color="#cf8df7"/></linearGradient><linearGradient gradientTransform="matrix(-.0259 .015 .0315 .0544 21.85 71.6)" gradientUnits="userSpaceOnUse" id="F" spreadMethod="pad" x1="-819.2" x2="819.2"><stop offset=".02" stop-color="#5e9e47"/><stop offset=".784" stop-color="#eb63a5"/></linearGradient><linearGradient gradientTransform="matrix(-.0071 -.0071 -.0144 .0145 -5.35 30)" gradientUnits="userSpaceOnUse" id="H" spreadMethod="pad" x1="-819.2" x2="819.2"><stop offset=".02" stop-color="#5e9e47"/><stop offset="1" stop-color="#eb63a5"/></linearGradient><radialGradient cx="0" cy="0" gradientTransform="matrix(.0346 .0004 .0007 .0336 47.5 10.5)" gradientUnits="userSpaceOnUse" id="s" r="819.2" spreadMethod="pad"><stop offset=".02" stop-color="#fdb53d"/><stop offset=".459" stop-color="#e3d908"/><stop offset="1" stop-color="#81e794"/></radialGradient><radialGradient cx="0" cy="0" gradientTransform="matrix(.0493 -.003 .0034 .0573 41.95 57)" gradientUnits="userSpaceOnUse" id="u" r="819.2" spreadMethod="pad"><stop offset=".02" stop-color="#fdb53d"/><stop offset=".459" stop-color="#e3d908"/><stop offset="1" stop-color="#81e794"/></radialGradient><radialGradient cx="0" cy="0" gradientTransform="matrix(-.0069 0 0 .0069 32.7 71.9)" gradientUnits="userSpaceOnUse" id="w" r="819.2" spreadMethod="pad"><stop offset="0" stop-color="#01fdee"/><stop offset="1" stop-color="#1ba5b2"/></radialGradient><radialGradient cx="0" cy="0" gradientTransform="matrix(-.0836 0 0 .0659 84.65 32.55)" gradientUnits="userSpaceOnUse" id="E" r="819.2" spreadMethod="pad"><stop offset="0" stop-color="#fed273"/><stop offset="1" stop-color="#fff57f"/></radialGradient><radialGradient cx="0" cy="0" gradientTransform="matrix(-.0571 0 0 .07 31.1 72.4)" gradientUnits="userSpaceOnUse" id="G" r="819.2" spreadMethod="pad"><stop offset=".02" stop-color="#fdb53d"/><stop offset=".459" stop-color="#e3d908"/><stop offset="1" stop-color="#81e794"/></radialGradient><radialGradient cx="0" cy="0" gradientTransform="matrix(-.0402 0 0 .0402 12.75 12.5)" gradientUnits="userSpaceOnUse" id="I" r="819.2" spreadMethod="pad"><stop offset=".02" stop-color="#fdb53d"/><stop offset=".459" stop-color="#e3d908"/><stop offset="1" stop-color="#81e794"/></radialGradient><path d="M27.75 0q0 2-8.15 3.4Q11.5 4.9 0 4.9q-11.5 0-19.65-1.5-8.1-1.4-8.1-3.4 0-2.05 8.1-3.5Q-11.5-4.9 0-4.9q11.5 0 19.6 1.4 8.15 1.45 8.15 3.5" fill-opacity=".349" fill-rule="evenodd" transform="translate(27.75 4.9)" id="b"/></defs></svg>