<svg xmlns:ffdec="https://www.free-decompiler.com/flash" xmlns:xlink="http://www.w3.org/1999/xlink" ffdec:objectType="frame" height="90" width="90" xmlns="http://www.w3.org/2000/svg"><use ffdec:characterId="1" height="9.8" transform="matrix(.6227 0 0 1.1718 33.27 74.758)" width="55.5" xlink:href="#a"/><use ffdec:characterId="8" height="204.95" transform="matrix(.2055 0 0 .2053 -.526 8.406)" width="397.6" xlink:href="#b"/><use ffdec:characterId="15" height="105.9" transform="matrix(.2055 0 0 .2053 38.418 49.05)" width="96.45" xlink:href="#c"/><use ffdec:characterId="17" height="130.6" transform="matrix(.2055 0 0 .2053 38.75 41.85)" width="90.2" xlink:href="#d"/><use ffdec:characterId="19" height="108.05" transform="matrix(.2055 0 0 .2053 50.7 40.45)" width="92.35" xlink:href="#e"/><use ffdec:characterId="21" height="81.1" transform="matrix(.2055 0 0 .2053 30.75 43)" width="39.1" xlink:href="#f"/><use ffdec:characterId="23" height="48" transform="matrix(.2055 0 0 .2053 24.4 42.2)" width="54.8" xlink:href="#g"/><use ffdec:characterId="25" height="88.3" transform="matrix(.2055 0 0 .2053 31.05 41.5)" width="69.2" xlink:href="#h"/><use ffdec:characterId="31" height="206.65" transform="matrix(.2055 0 0 .2053 29.35 2.2)" width="199.15" xlink:href="#i"/><use ffdec:characterId="33" height="61.35" transform="matrix(.2055 0 0 .2053 40.65 39.75)" width="68.5" xlink:href="#j"/><use ffdec:characterId="35" height="112.65" transform="matrix(.2055 0 0 .2053 62.75 33.65)" width="103.85" xlink:href="#k"/><use ffdec:characterId="37" height="43.85" transform="matrix(.2055 0 0 .2053 65 48.25)" width="32.15" xlink:href="#l"/><use ffdec:characterId="39" height="122" transform="matrix(.2055 0 0 .2053 11.55 30.8)" width="95.15" xlink:href="#m"/><use ffdec:characterId="41" height="42.5" transform="matrix(.2055 0 0 .2053 24.95 43.3)" width="30.15" xlink:href="#n"/><defs><use ffdec:characterId="2" height="141.65" transform="translate(12.05 63.3)" width="355.4" xlink:href="#o" id="b"/><use ffdec:characterId="9" height="96.6" transform="translate(2.1)" width="92.15" xlink:href="#p" id="c"/><use ffdec:characterId="16" height="130.6" width="90.2" xlink:href="#q" id="d"/><use ffdec:characterId="18" height="108.05" width="92.35" xlink:href="#r" id="e"/><use ffdec:characterId="20" height="81.1" width="39.1" xlink:href="#s" id="f"/><use ffdec:characterId="22" height="48" width="54.8" xlink:href="#t" id="g"/><use ffdec:characterId="24" height="88.3" width="69.2" xlink:href="#u" id="h"/><use ffdec:characterId="26" height="206.65" width="199.15" xlink:href="#v" id="i"/><use ffdec:characterId="32" height="61.35" width="68.5" xlink:href="#w" id="j"/><use ffdec:characterId="34" height="112.65" width="103.85" xlink:href="#x" id="k"/><use ffdec:characterId="36" height="43.85" width="32.15" xlink:href="#y" id="l"/><use ffdec:characterId="38" height="122" width="95.15" xlink:href="#z" id="m"/><use ffdec:characterId="40" height="42.5" width="30.15" xlink:href="#A" id="n"/><g id="o" fill-rule="evenodd"><path d="m335.2 47 .65.45q1.95 2.1-1.8 10.45-3.45 6.65-2.3 7.9.8.3 2 0 5.85-1.5 20.1-18.35l1.55-1.85-.5 1.85q-7.4 26.65-27.1 44.75-15.75 17.7-27.6 19-2.95.9 2.8-7.4 6.05-11.5 4.4-13-7.7 1.5-23.4 14.4-12.8 12.5-14.8 7.25.5-20.2 11.2-28.25 40.45-32.45 53.2-36.75l1.6-.45m-13.6 8.75q-4.95 2.85-9.95 6.2-12.2 8.05-24.95 18.8l-6.5 5.65q-3.85 3.55-6.2 8-3.6 6.8-3.75 15.65.35 6.6 12.75-6.25l2-1.6.1-.1.3-.25.6-.45q8.35-6.7 18.8-12.2 5.5-2 4.35 3.45l-.15.55-3.4 10.2q-1.5 1.9-2.1 3.05-1.95 3.65 5.25 0l6.75-5q7.45-5.95 13.7-12.65l2.35-2.6Q344.4 71.45 351.7 53q-9.65 10.3-15.35 13.7-4.45 2.65-6.55 1.1-.7-.2-.5-1.8.35-3.1 3.9-11.4 5-10.6-4.4-2.8-3.6 1.85-7.2 3.95M89.55 25l-6.95-1.3 6.7 4.1q2.35 1.65 3.65 3.3 2.35 2.9 1.25 5.6l-.7 1.55q-1.6 2.3-5.9 5.05-5.8 4.35 1.5 5.8l6.05 1.25 6.45.45q-3.45-1.55-3.3-4.7 0-2.35 2.25-5.8l1.75-2.5q3.9-4.25-1.2-7.7l-1.3-.9q-4.15-2.7-10.25-4.2m1.55 13.7q4.25-5.4-1.4-9.1-6.65-4.95-15.7-8.2 20.9 1.65 28.2 7.7 6 4.35 1.9 8.7-4.8 5.65-4.2 8.8.9 4.4 8.6 4.8-7.15 1.55-21.8-.9-6.4-2-1-7.5l5.4-4.3M37.5 94.65l1.1-1.25.45-1q2.4-1.85 4.75-2.3v.05l.2-.05h.05l.05-.05.7-.05q3.4-.2 6.6 2.8l-2.7-1q-10.4-.65-11.3 8.1.45 4.5 4.4 5.5h5.5q-6.3 2.35-10.6-2.4l-.55-2.2q-.3-2.9 1.35-6.15" fill="#213ba4"/><path d="M321.6 55.75q-.35 2 2.75 2.25 3.3.3 3.45 1.6l.2 4.05q.2 1.75 1.3 2.35-.2 1.6.5 1.8 2.1 1.55 6.55-1.1v2.55q.1 9.6-4.8 16.95l-2.35 2.6q-6.25 6.7-13.7 12.65-1.6-.45-2.8-1.75l3.55-3.05q11.5-10.5 19.55-24.45-7.7 1.65-9.9-2.3-1.85-3.3.1-10.5-9.55 4.8-14.35 2.55 5-3.35 9.95-6.2M93.5 38.25q-3.55 8.85 1.65 12.1L89.1 49.1q-7.3-1.45-1.5-5.8 4.3-2.75 5.9-5.05m44.6 36.1q1.6 2.85 2.65 6.7-1.5 4.55.65 6.35l4.45 1.4q2.95 3.15 3.35 6.25-1.6-.9-3.8-1.35-6.1-.75-8.5-8.55 0-1.55.3-3.15 1.5-4.15.9-7.65M129.9 67l2.75 1.4q-1.3 4.95-6.95 7.8 3.7-4.45 4.2-9.2M54.5 23.9q-3.8-.75-5.6-5.7-1.2-9.75 3.5-15.1-.45 4.8.6 8.45-1.85 5.4 1.5 12.35M19 102.85q-.4 3.65 2.55 4.9Q17 113.6 20 119.4q.5 1.25 1.85 2.15 6.3 4.3 31.15.85l9.7 10.3-22.3 1.2-18.25-1.7q-9.55-3.85-11.75-12.8-.45-1.15-.4-2.55.35-5.35 9-14m49.4 10.6q3.7 2.1 11.05 2.75 2.9 5.1.2 9.5.9-8.25-7.85-7.5-2-.55-3.8-1.5l.4-3.25" fill="#718fff"/><path d="M329.3 66q-1.1-.6-1.3-2.35l-.2-4.05q-.15-1.3-3.45-1.6-3.1-.25-2.75-2.25 3.6-2.1 7.2-3.95 9.4-7.8 4.4 2.8-3.55 8.3-3.9 11.4m2.25 20.2q4.9-7.35 4.8-16.95V66.7q5.7-3.4 15.35-13.7-7.3 18.45-20.15 33.2m-181.4 40.85q7.15-11.1 2.75-24.45.3-5.25-3.7-7.55-.4-3.1-3.35-6.25 9.15 3.35 11.85 8.6 3.15 17.55-7.55 29.65M38.45 89.3l.95.1.55.1-.9 2.9-.45 1-1.1 1.25q-4.35 4.6-8.7 6.75-4.75 3.2-7.25 6.35-2.95-1.25-2.55-4.9 2.45-2.4 5.5-5.05L35 92.3l3.45-3m41 26.9 1.25.1q10.85.8 3 6.2-2.45 1.6-4.05 3.2 2.7-4.4-.2-9.5" fill="#afccff"/><path d="M325.9 69.9q2.2 3.95 9.9 2.3-8.05 13.95-19.55 24.45 13.1-13.05 9.65-26.75M274 94.4q2.35-4.45 6.2-8l6.5-5.65q-6.65 16.65-1.3 21.1l-.3.25-.1.1q-7.2 5.15-11-7.8M100.55 40.3q-.35-5.55-3.35-9.45 2.65-.45 2.6-1.65l1.3.9q5.1 3.45 1.2 7.7l-1.75 2.5m32.1 28.1q3.25 2.15 5.45 5.95.6 3.5-.9 7.65-.3 1.6-.3 3.15-.05 6.55 5.4 11.95 2.55 2.55 5.2 3.95 2.65 1.35 5.4 1.55 4.4 13.35-2.75 24.45-4.05 4.55-10.05 8.35 1.1-22.85-8.7-32.3-15.55-10.7-7.2-25.3l1.45-1.6h.05q5.65-2.85 6.95-7.8" fill="#461ff8"/><path d="M311.65 61.95q4.8 2.25 14.35-2.55-1.95 7.2-.1 10.5 3.45 13.7-9.65 26.75l-3.55 3.05-1.35-1.85-2.2-5.2q1.15-5.45-4.35-3.45-10.45 5.5-18.8 12.2l-.6.45q-5.35-4.45 1.3-21.1-2.25 9.95 8.1 10.45 25.75-6 16.85-29.25M92.95 31.1l4.25-.25q3 3.9 3.35 9.45-2.25 3.45-2.25 5.8-.15 3.15 3.3 4.7l-6.45-.45q-5.2-3.25-1.65-12.1l.7-1.55q1.1-2.7-1.25-5.6m54.55 69.95q-2.65-1.4-5.2-3.95-5.45-5.4-5.4-11.95 2.4 7.8 8.5 8.55 2.2.45 3.8 1.35.3 3-1.7 6M33.25 71.45Q48.95 57.3 41.4 48.6q4 .45 6.9 2.7 3.4 6 1.5 10.9 4.1 1.75 7.15 4.4-1.8 2.35-2.55 5.65-5.7-2.6-8.7-11.55-3 9.1 0 13.3-8.5 1.4-12.45-2.55m6.7 18.05q1.5-8.9-12.95-12.9l5.5-4.5q1.3 6 6.2 6.5 5.6.85 6.7 3.25l-.05.1q-3 3.25-1.55 8.1v.05q-2.35.45-4.75 2.3l.9-2.9m39.7 36.2q-3.3 3.3-3.15 6.6 2.35 2.5 6.8 2.3-2.3 4.35-6.6 5.5-10.35-6.2-8.7-23.4 1.8.95 3.8 1.5 8.75-.75 7.85 7.5m-36.1-10.75q4.95 1.7 13.15-1.05 1.8 11.6 6 18.8L53 122.4q-24.85 3.45-31.15-.85-1.35-.9-1.85-2.15-3-5.8 1.55-11.65 1.55.65 4.05.65 8.95.45 8 4.4-3.2 7.35-11.55 8.7 13.7 3.55 21.5-6.55" fill="#553ffa"/><path d="M286.7 80.75q12.75-10.75 24.95-18.8 8.9 23.25-16.85 29.25-10.35-.5-8.1-10.45M97.2 30.85l-4.25.25q-1.3-1.65-3.65-3.3l-6.7-4.1 6.95 1.3q4.9 2.25 7.65 5.85M32.5 72.1l.75-.65Q37.2 75.4 45.7 74q-3-4.2 0-13.3 3 8.95 8.7 11.55v.05q-.55 2.35-.6 5.1-5.8 1.65-8.4 4.45-1.1-2.4-6.7-3.25-4.9-.5-6.2-6.5m-10.95 35.65q2.5-3.15 7.25-6.35 4.35-2.15 8.7-6.75-1.65 3.25-1.35 6.15.25 11.7 7.4 14.15-7.8 10.1-21.5 6.55 8.35-1.35 11.55-8.7.95-3.95-8-4.4-2.5 0-4.05-.65M83.3 134.6q3.4-.2 8-1.9-6.85 8.05-14.55 7.45l-.05-.05q4.3-1.15 6.6-5.5" fill="#8462fd"/><path d="m309.15 92.65 2.2 5.2 1.35 1.85q-4.4 3.6-9.2 6.75.6-1.15 2.1-3.05l3.4-10.2.15-.55M45.4 81.85q2.6-2.8 8.4-4.45.05-2.75.6-5.1v-.05q.75-3.3 2.55-5.65 6.4 5.6 7.65 15.1-11.35 5.8-7.9 21.3 4.15 9.95 11.3 13.7-1.65 17.2 8.7 23.4v.05q-6.65-.5-14-7.45-4.2-7.2-6-18.8-8.2 2.75-13.15 1.05 4.35-5.65 6.9-15.6l.1-.5q.7-2.7.85-6.05-3.2-3-6.6-2.8l-.7.05-.1.05h-.2v-.05q-1.45-4.85 1.55-8.1l.05-.1" fill="#261cf7"/><path d="M312.7 99.7q1.2 1.3 2.8 1.75l-6.75 5q-7.2 3.65-5.25 0 4.8-3.15 9.2-6.75m-248.1-18q.6 4.5 0 9.9v16.6q.3 3.25 3.8 5.25l-.4 3.25q-7.15-3.75-11.3-13.7-3.45-15.5 7.9-21.3" fill="#3353ff"/><path d="m285 102.2-2 1.6q-12.4 12.85-12.75 6.25.15-8.85 3.75-15.65 3.8 12.95 11 7.8" fill="#200ff4"/><path d="M97.2 30.85q-2.75-3.6-7.65-5.85 6.1 1.5 10.25 4.2.05 1.2-2.6 1.65M36.15 100.8l.55 2.2q4.3 4.75 10.6 2.4 2.1-2.45 3.15-6.05-2.55 9.95-6.9 15.6-7.15-2.45-7.4-14.15" fill="#6c30fc"/><path d="m132.65 68.4.35-2q4.25 3.45 5.1 7.95-2.2-3.8-5.45-5.95" fill="#6a2ffc"/><path d="M138.1 74.35q-.85-4.5-5.1-7.95l-.35 2-2.75-1.4q.65-6.4-4.5-13.4 19.4 13.35 16 25.6-.4.95-.65 1.85-1.05-3.85-2.65-6.7" fill="#a9c5ff"/><path d="M140.75 81.05q.25-.9.65-1.85 3.4-12.25-16-25.6 5.15 7 4.5 13.4-.5 4.75-4.2 9.2h-.05l-1.45 1.6q-8.35 14.6 7.2 25.3 9.8 9.45 8.7 32.3 6-3.8 10.05-8.35 10.7-12.1 7.55-29.65-2.7-5.25-11.85-8.6l-4.45-1.4q-2.15-1.8-.65-6.35m8 7.6q6.7 2.5 8.45 4.7 1.7 2.15 2.7 6.45 2.05 27.65-24.9 40 2.8-27.45-8.9-37.7-14.05-13.15-.5-28.3 8.25-11-7.4-25.8 25.35 13.2 25 27.6-1.4 7.4-1.1 8.55.25 1.1 1.25 2.05.95.85 5.4 2.45" fill="#1f399e" fill-opacity=".976"/><path d="M53 11.55q-1.05-3.65-.6-8.45-4.7 5.35-3.5 15.1 1.8 4.95 5.6 5.7l1.3.1q7 .25 9.4-1.8-9.9-2.4-12.2-10.65m-5.5 6.65Q46.6 7 53.7 0q-2.45 19.45 14.7 21.6-2.05 2.9-10.7 3.9-7.65 1.1-10.2-7.3" fill="#2239a4" fill-opacity=".976"/><path d="M54.5 23.9q-3.35-6.95-1.5-12.35 2.3 8.25 12.2 10.65-2.4 2.05-9.4 1.8l-1.3-.1" fill="#4d3fee"/><path d="m33.25 71.45-.75.65-5.5 4.5q14.45 4 12.95 12.9l-.55-.1-.95-.1q3.3-4.05-3.45-5.7l-12.1-1.7q-8.25-1.25-2.3-5.4l14.1-11.7q13.65-11.9-3.5-20Q59.45 47.2 53.25 58q-1.9-4.35-4.95-6.7-2.9-2.25-6.9-2.7 7.55 8.7-8.15 22.85" fill="#6f8aff"/><path d="M53.25 58q6.2-10.8-22.05-13.2 17.15 8.1 3.5 20L20.6 76.5q-5.95 4.15 2.3 5.4L35 83.6q6.75 1.65 3.45 5.7l-3.45 3-10.5 5.5-6.9 3.1q-5.95 3.35-9.85 7.25-4.25 4.2-6.15 9.05-1 9.45 7.7 11.9 5.1 1.9 12.85 3.1l18.25 1.7 22.3-1.2q7.35 6.95 14 7.45h.05q7.7.6 14.55-7.45-4.6 1.7-8 1.9-4.45.2-6.8-2.3-.15-3.3 3.15-6.6 1.6-1.6 4.05-3.2 7.85-5.4-3-6.2l-1.25-.1q-7.35-.65-11.05-2.75-3.5-2-3.8-5.25V91.6q.6-5.4 0-9.9-1.25-9.5-7.65-15.1-3.05-2.65-7.15-4.4 2.3-2.25 3.45-4.2M19.8 82.8q-6.5-2.05 0-8 10.7-8.15 14.55-12.2Q46.4 52.75 26.8 43q39.25 2.95 25.5 18 16 4.55 14.7 31-1.85 13.65 0 17.6 2.85 4.6 13.7 5.2 13.7 1.5 2.8 9.4-7.05 4.6-5 7.7 3.8 3.95 15.7-2.2-10.05 21.4-33.3 4.5l-20.1 1.1q-21.85-.55-33.7-5.2-9.1-4.7-6.5-14.2 2.9-9.45 18.5-17.3 8.4-3.6 14.5-7.2 1.7-1.3 2.65-2.35 3.1-3.55-2.65-4.25-5.9.4-13.8-2" fill="#213aa3"/><path d="M48.3 51.3q3.05 2.35 4.95 6.7-1.15 1.95-3.45 4.2 1.9-4.9-1.5-10.9" fill="#451ff8"/><path d="M24.5 97.8q-3.05 2.65-5.5 5.05-8.65 8.65-9 14l-2.25-8.7q3.9-3.9 9.85-7.25l6.9-3.1" fill="#cdd9ff"/><path d="M22.15 132.2Q14.4 131 9.3 129.1q-8.7-2.45-7.7-11.9 1.9-4.85 6.15-9.05l2.25 8.7q-.05 1.4.4 2.55 2.2 8.95 11.75 12.8" fill="#e8eeff"/><path d="M152.9 102.6q-2.75-.2-5.4-1.55 2-3 1.7-6 4 2.3 3.7 7.55" fill="#8361fd"/></g><g id="p" fill-rule="evenodd"><path d="m4.7 74.25-.15-1.05q0-3.25 2.2-6.1l2.15-2.95q0-.5-1.2-.5l-.25.05-.3.05q-.35.1-.65.3-2.2 1.1-3.75 3.15l-.3.45-.2.3q-1.25 2-1.25 4t1.6 4Q4.2 78 5.85 78l.55-.45q0-.4-.9-1.65l-.45-.7-.35-.95M9.85 63.8q-.05.8-1.95 3.65-1.95 2.8-1.9 5.45 0 2.6.75 3.5.7.85.65 1.5l-.2.9-.5.25-2.5-.45q-2-.75-3.15-2.7Q-.1 73.95 0 71.15q.1-2.8 3-5.6 2.85-2.8 4.8-2.7h.6q1.45.1 1.45.95" fill="#2039a0" fill-opacity=".984"/><path d="m2.25 67.95.2-.3.3-.45q1.55-2.05 3.75-3.15.3-.2.65-.3l.3-.05.25-.05q1.2 0 1.2.5L6.75 67.1q-2.2 2.85-2.2 6.1l.15 1.05-1.25-1.8q-.95-1.6-1.2-4.5" fill="#553ffa"/><path d="M2.25 67.95q.25 2.9 1.2 4.5l1.25 1.8.35.95.45.7q.9 1.25.9 1.65l-.55.45Q4.2 78 2.6 75.95q-1.6-2-1.6-4t1.25-4" fill="#718fff"/><path d="M79.35 5.5q12.6 8.1 11.5 30.2l-.4 4.8Q86.8 54.6 77.5 50.75q8.35-4.5 3.55-12.85-8.65-8-15.25-6.95L79.35 5.5" fill="#461ff8"/><path d="m90.45 40.5.4-4.8q1.1-22.1-11.5-30.2-53.7-11.1-48.5 49.9-3.2 25.35 14.65 22.7l1.95-.35q10.3 3.05 5.5 14.05 1.25-1.15 3.4-2.4 2.15-1.3 3.4-1.6l4.85-1.25L74.1 84q5.9-1.65 6.4-4.95.5-3.35-1.4-4.25l-2.85-.9-1-.1h-.55v-.05l-.05-.35q0-.9.95-1.95.75-.85 2.05-1.8 3.45-2.45 4.2-4.05-11.55.8-7.7-12.5l.6-1.9q.5-.8 1.7.1l2.1 2.1q8.4 2.85 10.8-5.6l1.1-7.3M58.8 89.95q-2.95 1.4-4.95 3.05l-4 3.6q8.4-16.8-6.8-17.4-16.1 2.65-14.4-23Q16.2-15.7 89.45 4.4q7.2 46.2-4.9 50.9-6 1.85-8.9-3.7-4.25 13.35 7.8 12.8-.7 2.55-1.65 4.05-1.4 2.15-5.55 3.95 7 1.55 6.2 6.95l-.55 1.2Q79.2 84 75 85.4q-3.85 1.4-7.3 1.9-5.95 1.25-8.9 2.65" fill="#2039a0" fill-opacity=".984"/><path d="M43.35 73q-7.45.7-2.9-8.5 7.05-11.05 7.5-18.6-3.3-11.75 3.7-10.8 2.4 2.95 3.3 6.2.55 1.75.6 3.6.15 3.7-1.5 7.7-6.75 3.6-9.55 8.3-3.15 5.35-1.15 12.1" fill="#261cf7"/><path d="M79.35 5.5 65.8 30.95q-6.4.95-10.85 10.35-.9-3.25-3.3-6.2-7-.95-3.7 10.8-.45 7.55-7.5 18.6-4.55 9.2 2.9 8.5.7 2.45 2.15 5.1-17.85 2.65-14.65-22.7-5.2-61 48.5-49.9" fill="#3353ff"/><path d="M65.8 30.95q6.6-1.05 15.25 6.95 4.8 8.35-3.55 12.85l-1.05.55q-1.2-.9-1.7-.1l-.6 1.9q-4.85 9.3 1.45 18.35-.95 1.05-.95 1.95l.05.35v.05h.55l1 .1q.5 8-17.8 6.9-2.65-8.1-15.1-7.8-2-6.75 1.15-12.1 1.95 4.25 6.65 2.1 1.6-1.8 5.5-1.3 6.3.65 8 9.5 6.05-5.2 1.8-17.6 2.7-12.35-10.9-8.7-.05-1.85-.6-3.6 4.45-9.4 10.85-10.35" fill="#553ffa"/><path d="M44.5 60.9q2.8-4.7 9.55-8.3 1.65-4 1.5-7.7 13.6-3.65 10.9 8.7 4.25 12.4-1.8 17.6-1.7-8.85-8-9.5-3.9-.5-5.5 1.3-4.7 2.15-6.65-2.1" fill="#8462fd"/><path d="m76.25 73.9 2.85.9q1.9.9 1.4 4.25-.5 3.3-6.4 4.95l-9.5 2.55-4.85 1.25q-1.25.3-3.4 1.6-2.15 1.25-3.4 2.4 4.8-11-5.5-14.05l-1.95.35q-1.45-2.65-2.15-5.1 12.45-.3 15.1 7.8 18.3 1.1 17.8-6.9" fill="#718fff"/><path d="M77.5 50.75q9.3 3.85 12.95-10.25l-1.1 7.3q-2.4 8.45-10.8 5.6l-2.1-2.1 1.05-.55m-3.35 2.35q-3.85 13.3 7.7 12.5-.75 1.6-4.2 4.05-1.3.95-2.05 1.8-6.3-9.05-1.45-18.35" fill="#6f8bff"/></g><g id="q" fill-rule="evenodd"><path d="M7.5 64.15q-2.1-14-.4-27.75Q18.05 7.25 44.7 5q19.05.2 33.4 9.8 3.6 5.8 5.95 11.3 5.1 22.6-5.35 38.9l-8.15-4.95.55-2.05Q71 38.4 51.45 34.65l-6.95-.85q-25.55-.4-30.4 27.4-2.3.8-3.7 1.35-1.9.7-2.9 1.6" fill="#5f051a"/><path d="M84.05 26.1q-2.35-5.5-5.95-11.3Q63.75 5.2 44.7 5 18.05 7.25 7.1 36.4q-1.7 13.75.4 27.75.5 3.5 1.3 7 4.9 22.75 19.7 46.25-.35-8.65 3.35-15.75 5-9.75 17.65-16.65 6.5-2.4 12.15-5.05Q69.5 76.2 75.7 72q19.95-18.65 8.35-45.9M78.1 11.2q21.95 31.65 4 57.8-8.9 9.95-32.75 20.05Q25.45 99.2 36.1 130.6-3.35 97.25.3 34.2 10.85 1.9 44.7 0q20.95.2 33.4 11.2" fill="#680c0a"/><path d="M51.45 34.65Q71 38.4 71.1 58l-.55 2.05Q67.05 71.2 59.7 75.8l1.95 4.15Q56 82.6 49.5 85q-12.65 6.9-17.65 16.65l-6.8-11.15q.65-6.95 3-13.55 1.45 15.3 4.45 12.45 1.2-6.3 13.4-10.4 7.65-1.75 16.8-9.6 11.95-14.6.2-28.2-6.5-3.7-12.85-4.85l1.4-1.7M28.5 117.4Q13.7 93.9 8.8 71.15q8.35 24.05 16.05 27.1.35 9.25 3.65 19.15" fill="#ff2a66"/><path d="M7.5 64.15q1-.9 2.9-1.6 1.4-.55 3.7-1.35 4.85-27.8 30.4-27.4l6.95.85-1.4 1.7Q36.55 33.8 23.7 42.6 9.2 62.15 21.5 87.2q5.85-10.8 6.55-10.25-2.35 6.6-3 13.55-.4 3.8-.2 7.75-7.7-3.05-16.05-27.1-.8-3.5-1.3-7m63.05-4.1L78.7 65q10.45-16.3 5.35-38.9Q95.65 53.35 75.7 72q-6.2 4.2-14.05 7.95L59.7 75.8q7.35-4.6 10.85-15.75" fill="#a40138"/><path d="M48.1 60.6q-4.45 8.15-13.4 11.8V67l-12 6.4q-.4-8.85 2.2-19.2 5.1 11.1 23.2 6.4M30.7 66q-1.4-2.65-3.15-5.15-1.75-2.55-2.65-3.45-.55 4.3-1.4 13.8v1l2.8-2.05q1.9-1.35 4.4-4.15" fill="#2c3e5b"/><path d="M48.1 60.6Q30 65.3 24.9 54.2q-2.6 10.35-2.2 19.2l12-6.4v5.4q8.95-3.65 13.4-11.8m5.4-20.8Q71 44.35 64.3 61q-1.7 9.1-18.4 15.2-9.4 3.55-14.2 9.6-1.55-.6-2.4-11.2-5.55 3.75-7.95 9.35Q16.1 69.3 22.7 48q9.55-11.4 30.8-8.2" fill="#141c38"/><path d="M50.05 36.35Q56.4 37.5 62.9 41.2q11.75 13.6-.2 28.2-9.15 7.85-16.8 9.6-12.2 4.1-13.4 10.4-3 2.85-4.45-12.45-.7-.55-6.55 10.25-12.3-25.05 2.2-44.6 12.85-8.8 26.35-6.25m3.45 3.45Q32.25 36.6 22.7 48q-6.6 21.3-1.35 35.95 2.4-5.6 7.95-9.35.85 10.6 2.4 11.2 4.8-6.05 14.2-9.6Q62.6 70.1 64.3 61 71 44.35 53.5 39.8"/><path d="M30.7 66q-2.5 2.8-4.4 4.15l-2.8 2.05v-1q.85-9.5 1.4-13.8.9.9 2.65 3.45 1.75 2.5 3.15 5.15" fill="#577bb3"/><path d="M31.85 101.65q-3.7 7.1-3.35 15.75-3.3-9.9-3.65-19.15-.2-3.95.2-7.75l6.8 11.15" fill="#ff53ca"/></g><g id="r" fill-rule="evenodd"><path d="m82.1 21.05 3.1-3.6Q101.65 34.3 80.3 89q-14.8 17.45-34.45 18.95 4.85-3.05 8.65-7.15 3.7-1.1 6.95-2.6Q80.5 89.4 83.3 66.75l2.1-8 .1-.45q5.75-25.75-3.4-37.25m-28.8-4.4-4 6.65-30.7-11.85-3.1-1.6 1.25.85-11.6-4.5L6.75 0q21.6 8.5 35.8 17l10.75-.35m-19.45 63L29.5 83.2Q27.65 76.1 26 67V53.85q-12.75-10.7-26-28.1l.65-2.45q12.7 17.3 25.4 29.9l4.2 4.05-2.1-1.6q2.5 12.8 5.7 24"/><path d="m85.2 17.45-3.1 3.6q-5.8 7.15-9.2 16.1-5.4 14-5.1 32.35-2.5 19.75-13.3 31.3-3.8 4.1-8.65 7.15l-2.55.1q-7.85-1.95-13.8-24.85l4.35-3.55 5.4-4.4q5.2-5.05 3.8-31.75 1-9.35 4.75-17.2l1.5-3 4-6.65 30-.95 1.9 1.75m-12.3 13.4q2.8-5.4 6.65-9.6Q65 23.6 53.3 22.5q-.95 1.6-1.75 3.15-8.2 15.35-5.75 26.6 1.35 15.9-3.4 24.2-2.75 4.7-7.4 6.95 2.95 9.7 6.55 18.1 4.75 2.7 16.25-10 5.7-9.4 7.35-22.4l.3-2.95q.4-4.5.35-9.4 1.05-10.25 3.9-18.4 1.4-4 3.2-7.5" fill="#680c0a"/><path d="M51.55 25.65q.8-1.55 1.75-3.15 11.7 1.1 26.25-1.25-3.85 4.2-6.65 9.6l-21.35-5.2" fill="#ff54cb"/><path d="M82.1 21.05q9.15 11.5 3.4 37.25l-.1.45Q75.25 84 61.45 98.2q-3.25 1.5-6.95 2.6 10.8-11.55 13.3-31.3 5.5.9 11-5 7.3-13.2-5.9-27.35 3.4-8.95 9.2-16.1m-42.85 54.2-5.4 4.4q-3.2-11.2-5.7-24l2.1 1.6-4.2-4.05Q13.35 40.6.65 23.3l4.5-17.1 11.6 4.5 21.8 15.05q-3.3 12.5 0 21.75 4.85 20.35.7 27.75" fill="#141c38"/><path d="m49.3 23.3-1.5 3-29.2-14.85L49.3 23.3" fill="#587bb4"/><path d="m85.4 58.75-2.1 8Q80.5 89.4 61.45 98.2 75.25 84 85.4 58.75M47.8 26.3q-3.75 7.85-4.75 17.2 1.4 26.7-3.8 31.75 4.15-7.4-.7-27.75-3.3-9.25 0-21.75L16.75 10.7l1.85.75L47.8 26.3" fill="#2c3e5b"/><path d="M65.15 69.1q-1.65 13-7.35 22.4-11.5 12.7-16.25 10-3.6-8.4-6.55-18.1 4.65-2.25 7.4-6.95 3.3-2.25 7.4-11.95l15.35 4.6" fill="#5f051a"/><path d="m51.55 25.65 21.35 5.2q-1.8 3.5-3.2 7.5l-17.65-4.1Q48.9 45.8 49.55 59l15.9 7.15-.3 2.95-15.35-4.6q-4.1 9.7-7.4 11.95 4.75-8.3 3.4-24.2-2.45-11.25 5.75-26.6" fill="#ff2a66"/><path d="M67.8 69.5q-.3-18.35 5.1-32.35Q86.1 51.3 78.8 64.5q-5.5 5.9-11 5" fill="#1f6265"/><path d="M69.7 38.35q-2.85 8.15-3.9 18.4.05 4.9-.35 9.4L49.55 59q-.65-13.2 2.5-24.75l17.65 4.1" fill="#a40138"/></g><g id="s" fill-rule="evenodd"><path d="M3.85 3.45 1.4 0q33.55 6.5 37.7 43.3.2 22.65-11.3 37.8l-2.2-2 .3-5.9 1.65 2.85Q8.9 31.5 3.85 3.45" fill="#141c38"/><path d="m1.4 0 2.45 3.45Q4.1 34.85 25.9 73.2l-.3 5.9q-11-11-19.55-34.8-9-25.9-4.65-44.3"/><path d="M3.85 3.45q5.05 28.05 23.7 72.6L25.9 73.2Q4.1 34.85 3.85 3.45" fill="#2c3e5b"/></g><g id="t" fill-rule="evenodd"><path d="m41.1 8.05.2.05.25.1 1.6 1.75q1.65 1.65 2.1 2.5 1.9 3.25 3.5 5.25l.35.45Q41.5 22.9 38.55 30.5l-5.65-6.3q-.1-3.1-.6-5.2-2.5-4.3-13-13.5 2.35-.8 5.95-1.25h.25q6.65.85 15.6 3.8m9.75 12.1 3.65 4.4q-10.95 13.7-22.05 13L32.3 35l.55-6.3q6 5.25 8.45 2.05 3.15-6.5 9.55-10.6m-11.35 1.4q.25.05.25-.85 0-1.85-2.3-4.85l-3.2-4.4q-3.5.8-3.2 3.8.25 3 2.7 4.95 2.4 1.9 3.95 1.6l1.8-.25M18.15 10.3q1.8 2.85 9.9 7.45 7.5 2.25-1.3 25-2.2 1.75-7.6-1.8l-8.65-12.8 7.65-17.85" fill="#1f6265"/><path d="m49.1 18.15 1.75 2q-6.4 4.1-9.55 10.6-2.45 3.2-8.45-2.05L32.3 35l.15 2.55q11.1.7 22.05-13l.3.35Q49.45 37.8 32 42.55l-.7 2.05q-2.1 4.25-7.8 3.15l-8.25-7q-8.75-4.5-12.5-8.7Q0 28.95 0 26 1.65 8.5 14.25 0q10.5-.15 26.95 7.85l-.1.2q-8.95-2.95-15.6-3.8h-.25q-4.3-.5-7.55-.15h-.05l-3.9.9Q6.35 20.95 5 28.5l.4.45q8.4 8.5 13.75 12 5.4 3.55 7.6 1.8 8.8-22.75 1.3-25-8.1-4.6-9.9-7.45-.85-1.4-.75-3.95.8-.5 1.9-.85 10.5 9.2 13 13.5.5 2.1.6 5.2l5.65 6.3q2.95-7.6 10.55-12.35" fill="#0d4447"/><path d="m39.5 21.55-1.8.25q-1.55.3-3.95-1.6-2.45-1.95-2.7-4.95-.3-3 3.2-3.8l3.2 4.4q2.3 3 2.3 4.85 0 .9-.25.85m-29 6.6-2-2.9L15 9q.45-1.55 2.4-2.65-.1 2.55.75 3.95L10.5 28.15" fill="#2f8a8c"/><path d="M25.25 4.25q-3.6.45-5.95 1.25-1.1.35-1.9.85Q15.45 7.45 15 9L8.5 25.25l2 2.9 8.65 12.8q-5.35-3.5-13.75-12L5 28.5Q6.35 20.95 13.75 5l3.9-.9h.05q3.25-.35 7.55.15" fill="#53e2e2"/></g><g id="u" fill-rule="evenodd"><path d="m29.85 18.3-20.4-3q-2.95-4.05-6.3-7.55 14.3 2.25 25.8 7.75l.9 2.8" fill="#ff54cb"/><path d="M9.45 15.3q3.25 4.6 6 9.9Q26.65 47 28.4 80.95l1.95-2.25q3.45-4.45 6.75-10.8l1.95-3.95q-1.6-20.7-9.2-45.65l-.9-2.8Q17.45 10 3.15 7.75q3.35 3.5 6.3 7.55M46.1 59.5Q33.7 84.9 26.4 88.3l-2.2-2 .3-5.9 1.65 2.85q-3-49.9-23.7-72.6L0 7.2l.65-2.45Q19.5 6.9 31.4 10l.25 4.25 2.05 6.15q6.4 20.45 6.45 41.1l5.95-2" fill="#680c0a"/><path d="M15.45 25.2q-2.75-5.3-6-9.9l20.4 3q7.6 24.95 9.2 45.65L37.1 67.9q.25-10.15-2.4-20.75-1.05 1.75-2.15 2.45-1.3.85-2.55.85h-.1l-1.25-.25q-.25-.25-.25-1.35 0-1.9 1.55-3.2.75-.6 3.7-2.2-2.7-8.95-7.45-18.25H15.45" fill="#ff2a66"/><path d="M15.45 25.2H26.2q4.75 9.3 7.45 18.25-2.95 1.6-3.7 2.2-1.55 1.3-1.55 3.2 0 1.1.25 1.35l1.25.25h.1q1.3 21.15.35 28.25l-1.95 2.25Q26.65 47 15.45 25.2" fill="#a40138"/><path d="m46.1 59.5-5.95 2 2.15-4.2L69.2 4.75Q56 39.2 46.1 59.5M31.65 14.25 31.4 10 67.7 0l-15 5.95-21.05 8.3"/><path d="m67.7 0 1.5 4.75L42.3 57.3q1.15-21.6-5.3-39.4L52.7 5.95 67.7 0" fill="#141c38"/><path d="m33.7 20.4-2.05-6.15 21.05-8.3L37 17.9l-3.3 2.5" fill="#587bb4"/><path d="M40.15 61.5q-.05-20.65-6.45-41.1l3.3-2.5q6.45 17.8 5.3 39.4l-2.15 4.2" fill="#2c3e5b"/><path d="M30 50.45q1.25 0 2.55-.85 1.1-.7 2.15-2.45 2.65 10.6 2.4 20.75-3.3 6.35-6.75 10.8.95-7.1-.35-28.25" fill="#5f051a"/></g><g id="v" fill-rule="evenodd"><path d="M56.3 19.35q-.85-1.55-2.55-2.95l-3.3-2.4 6.9-4.3q3.65-2.2 4.9-3.55h.7q-.45.6-.6 1.3l-.65 4.05q-.55 3.55 5.75 4.95 6.25 1.35 7.6 5.7-8.6-3-18.75-2.8m41.35 2q19.4 15.4 28.5 41.2l1.2-.35.7-5.6 16 29.75.15-1.4q.25-3.5-.5-6.9l3.35 6.95-5 3.6-1.35-2.35-5-7.6-3.25-4.2-2.25-2.25-1.6 4.05-1.55 2.95q-8.1-33.9-29.4-57.85m-19.85.55q1.85-.9 3.7-2.3 17.35 37.95 12.6 79.6.75-42.7-16.3-77.3M59.5 55.15l.7 1.5q.55 1.7.55 3.85l-.1 2.05-.35.45-1.05.15-.55.05q-2.1.65-5.95 5.65-.75 1-1.4 3.9-.6 2.7-.6 4.5 0 4.3 1.7 8.05 1.4 3.05 3.45 4.45-3.45 1.25-6.55 3.65 1.25-30.2-5.8-48.75 8.7-13.5 11.5-12.7 5.6 3.35 5.75 7.15-4.25-.25-6.15 3.3l-.4.9q-1 2.6-1 4.95 0 3.4 2.75 5.35 1.55 1.15 3.5 1.55" fill="#2c3e5b"/><path d="M62.25 6.15Q61 7.5 57.35 9.7l-6.9 4.3 3.3 2.4q1.7 1.4 2.55 2.95-10.55.15-22.7 3.8l20-17h8.65m35.4 15.2-.2-.2q-4.2-4.7-8.85-9-3.55 4.7-7.1 7.45-1.85 1.4-3.7 2.3 9.3-13.7 7-15.75l5.25 4.05q33.05 26.5 53.65 67.85.75 3.4.5 6.9l-.15 1.4-16-29.75-.7 5.6-1.2.35q-9.1-25.8-28.5-41.2m32 140.85 2.4 6.25Q119.25 188.4 110.7 196h-.05q9.5-11.7 19-33.8M46.3 96.05q-.55-39.15-11.1-63.6 14.85-3.2 19.85-.5-2.8-.8-11.5 12.7 7.05 18.55 5.8 48.75-1.6 1.2-3.05 2.65" fill="#587bb4"/><path d="M56.3 19.35q10.15-.2 18.75 2.8l9.75-16H53.6l-20 17q12.15-3.65 22.7-3.8m87.4 58.7Q123.1 36.7 90.05 10.2L84.8 6.15q2.3 2.05-7 15.75 17.05 34.6 16.3 77.3-.15 8.3-.95 16.95-.15-2.35-.7-4.65-2.25-51-16.15-86.6-20.3-4.85-43.25 3l2.15 4.55q10.55 24.45 11.1 63.6l2.4 1.5q-2.8 3.15-4.05 7.85l-.1.25.6 2.05-2.6-4.05-.1-2.35q-2.45-42-15.1-75.65Q35.35 11.3 53.1.9 71.9-.9 85.35.9q46.55 26.8 64.25 82.05L147.05 85l-3.35-6.95m-36.35 53.05-7.05 1.55 20.75-14.75-1 3.75q8.3 15.95 10.75 37.75l-1.15 2.8q-9.5 22.1-19 33.8h.05q19.3-7.85 31.9-16.4l.45.1 4.45.35q-17.6 15.35-37.9 18.35l1.05-2.4q10.35-24.3 18.15-38.35-.85-10-4.5-20-2.65-7.25-6.75-14.5l-10.2 7.95M53.2 193.05q-.65 5.7-3.4 7.85-13.95-10.7-22.8-34 2.95 1.45 6.3 2.6 6.4 14.1 15 25.15l.25-4 4.65 2.4"/><path d="M75.05 22.15q-1.35-4.35-7.6-5.7-6.3-1.4-5.75-4.95l.65-4.05q.15-.7.6-1.3H84.8l-9.75 16m6.45-2.55q3.55-2.75 7.1-7.45 4.65 4.3 8.85 9l.2.2q21.3 23.95 29.4 57.85l1.55-2.95 1.6-4.05 2.25 2.25 3.25 4.2 5 7.6 1.35 2.35q-9.2 6.25-19.95 10.8-5.65 24.2 15.25 38.5 5.15 3.05 9.3 3.2-13.45 13.6-13.8 25.2.6 11.3 9.75 13.3-12.6 8.55-31.9 16.4 8.55-7.6 21.35-27.55l-2.4-6.25 1.15-2.8q-2.45-21.8-10.75-37.75l1-3.75-20.75 14.75 7.05-1.55-6.2 4.8-10.35 8-2.2 4.9-2 4.5-1.1 2.35-3.15 7q-.9-2.15 2.75-10.75 2.95-8.65 10.5-15.5l-8.9-1.1q4.75-3.4 6.2-13.5.4-2.7.25-5.35v-.3q.8-8.65.95-16.95 4.75-41.65-12.6-79.6M35.2 32.45l-2.15-4.55q22.95-7.85 43.25-3 13.9 35.6 16.15 86.6-1.35-5.5-4.95-10.9-3.2-4.75-7.5-7.7 4.05-4.6 4.05-11.4 0-7.8-4.75-13.35-4.9-5.8-12-5.8l-3.5.1-3.5.55.35-.45.1-2.05q0-2.15-.55-3.85l-.7-1.5 2.3.2q3.35 0 5.5-2.75 2-2.55 2-6 0-2.5-2.6-5.1-2.45-2.4-5.4-2.4h-.5q-.15-3.8-5.75-7.15-5-2.7-19.85.5m7.1 148.05-6.2-10.15 7.4 1.8-1.2 8.35" fill="#141c38"/><path d="m42.45 101.3.1 2.35 2.6 4.05q1 2.7 3.1 4.45l.45.35 2.4 2.85.2.25 2.05 2.15q9.4 9.55 21.65 14.3-1.05 2.05-1.75 2.45-5.95-2.1-11.5-5.85-9.85-6.65-18.45-18.5-5.8 16.2 3 27.5-12.3-.25-23.35-8.55l-.2-.15q-8.35-6.35-15.95-17.3-.6 32.55 18 48 16 11.7 34.8 8.5 3.5-.8 7.6-2.55l.25-.15q6.1-2.7 13.4-7.7-7.95 9.6-18.25 13.05l-.3.1q-5.4 1.75-11.5 1.85l-3.8-.1-.95-.1-2.55-.4-7.4-1.8-2.8-.85q-3.35-1.15-6.3-2.6-12.45-6-18.95-17.25-14.55-32.9-2.75-48.25 16.8 20.95 34.5 33.5-11.75-18.45 2.65-33.6m128.4-12.15q9.05-.6 19.05-10 1.75-3.85 4.5-.5 3.15 10.15 4.2 19.9l-6.3 5.65q-.35-8.9-1.9-18.8-7.55 9.05-17.05 9.25l.6 5.5q.7 9.55-.8 19.15l-8.2 5.5q5.85-13.05 5.9-35.65" fill="#680c0a"/><path d="M93.15 116.15v.3q.15 2.65-.25 5.35-1.45 10.1-6.2 13.5l-3.1-.65q7.65-4.75 6.75-18l-.7-3.6q-4.45-18.9-23.3-21.9-11.95-.1-17.65 6.4l-2.4-1.5q1.45-1.45 3.05-2.65 3.1-2.4 6.55-3.65-2.05-1.4-3.45-4.45-1.7-3.75-1.7-8.05 0-1.8.6-4.5.65-2.9 1.4-3.9 3.85-5 5.95-5.65l.55-.05L60.3 63l3.5-.55 3.5-.1q7.1 0 12 5.8 4.75 5.55 4.75 13.35 0 6.8-4.05 11.4 4.3 2.95 7.5 7.7 3.6 5.4 4.95 10.9.55 2.3.7 4.65m-7.65 39.5 1.1-2.35q10.85 11.5 28.2 2.1 7.25-4.5 9.45-17.55.85 15.1-11.7 21.8-16.9 6.7-27.05-4m61.15-14.55q-4.15-.15-9.3-3.2-20.9-14.3-15.25-38.5 10.75-4.55 19.95-10.8l5-3.6 2.55-2.05q7.95-6.55 14.5-14.55 8.6-1.9 6.75 20.75-.05 22.6-5.9 35.65l-2.65 4.95-1.45.9.95-.15q-4.35 6.4-10.7 9.4-.75.45-1.4.95l-3.05.25m4.9-34.1q-5-3.4-7.6-9.3-.8-1.75-1.45-3.85l-3.9 2.25 1.05 3.85q6.1 19.9 24.85 18.7.9-3.4 1.4-7.3l-4.2-.5q-5.95-1.05-10.15-3.85m10.5 1.55q2 .2 4.15.05l.2-2.45q2.75-15.3-2.55-31.25-8.95 10.8-18.95 17.45l1.4 3.8q2.6 5.9 6.8 9 3.8 2.85 8.95 3.4M82.15 82.8q.35-.85.15-1.95-.05-6.45-4.25-11.2-4.45-5.05-11-5.05-5.95 0-9.25 2.3-.2.05-.3.2-1.2 1.1-2.85 4.1-1.9 3.35-1.8 6.7.1 3.35 2.45 8 1.1 2.15 2.1 3.35l.65.65-.4-.75 3.45-.7-.7-.9q-.65-1.15-.65-3.05 0-2.3.75-4l.45-.35q1.7-1.35 2.75-3.1l1.85-.7q1.4-.5 3.3-.5 1.85-.05 4.1 2.4 2.25 2.4 2 5.8-.25 3.35-1.25 4.7l-.65.75q2.35.7 4.5 1.9l2.25-3.1q1.6-2.65 2.2-4.9l.15-.6m64.8 33.7q-6.65-5.05-9.75-15.5l-.95-3.75q-5.75 2.7-11.8 4.15-3.9 11.65 4.65 26.5 7.15 8.1 13.9 10.35 3.85 1.25 7.6.65 9.25-5.35 13.15-17.65l-5.3-.2q-6.7-.85-11.5-4.55M60.8 39.1h.5q2.95 0 5.4 2.4 2.6 2.6 2.6 5.1 0 3.45-2 6-2.15 2.75-5.5 2.75l-2.3-.2q-1.95-.4-3.5-1.55-2.75-1.95-2.75-5.35 0-2.35 1-4.95l.4-.9q1.9-3.55 6.15-3.3m-.55 3q-1.4 0-2.65.6l-.2.15-.4.2-.9 1.95-.1 2.5q0 2.85 1.5 4.35 1.5 1.5 4.3 1.5 4.75 0 4.75-5.35 0-2.6-2.25-4.35-1.9-1.55-4.05-1.55m3.55 38.3q-1.55 1.75-1.55 3.6 0 1.35.55 2.65l.8 1.55h.2l4.45.2 3 .6.2-.4 1.15-3.3q.55-2.05-1.1-4.35-1.7-2.35-3.9-2.35-2.25 0-3.8 1.8m-12.7 34.95.35-1.35q1-2.9 4.4-5.15 4.05-2.75 8.6-2.75l1 .05q5.3.45 9.6 5.7 4.5 5.55 4.5 10.3 0 4.75-1.25 8.6l-.85 2.2-2.45-.9.4-.95q1.35-3 1.5-7.45.15-4.5-3.6-9.55-3.9-5.25-8.85-5.25h-.05q-5.2 0-7.95 2.35-1.6 1.35-2.4 3.5-.5 1.35-.7 3.05l-2.05-2.15-.2-.25" fill="#0a2446"/><path d="M163.85 74.9q5.3 15.95 2.55 31.25l-.2 2.45q-2.15.15-4.15-.05 1.45-10.1 1.3-24.15-3.8 12.75-10.25 20.75-4.2-3.1-6.8-9 11.1-7.5 17.55-21.25m-29.75 55.9q-9.4-10.7-6.8-26.9 5.25-1.05 9.9-2.9 3.1 10.45 9.75 15.5-4.85 9.4-12.85 14.3m8.9 7.45v-.05q8.7-3.2 15.45-17.15l5.3.2q-3.9 12.3-13.15 17.65-3.75.6-7.6-.65" fill="#3d5e9e"/><path d="m45.15 107.7-.6-2.05.1-.25q1.25-4.7 4.05-7.85 5.7-6.5 17.65-6.4 18.85 3 23.3 21.9-8.1-19.1-25.55-18.65 2.15 6.7 1.7 10.15l-.35 1.6-1-.05q-4.55 0-8.6 2.75-3.4 2.25-4.4 5.15l-.35 1.35-2.4-2.85-3.55-4.8m116.55 3.15 4.2.5q-.5 3.9-1.4 7.3-18.75 1.2-24.85-18.7l-1.05-3.85 3.9-2.25q.65 2.1 1.45 3.85 2.6 5.9 7.6 9.3l-3.2 3.15q3.7 6.4 12.25 6l1.1-5.3m-15.4-14.7-1.4-3.8q10-6.65 18.95-17.45-6.45 13.75-17.55 21.25m-64-15.3q-.4-2.35-3.3-5.7-4.8-5.55-10.3-6.55l-3.35.25q.35 4.85-1.65 8.2-1.05 1.75-2.75 3.1l-.45.35q-1.7 1.15-3.85 1.95l.45 4.35q.15 1.4.55 2.35l-.25.1q-1-1.2-2.1-3.35-2.35-4.65-2.45-8-.1-3.35 1.8-6.7 1.65-3 2.85-4.1.1-.15.3-.2 3.3-2.3 9.25-2.3 6.55 0 11 5.05 4.2 4.75 4.25 11.2M137.2 101q-4.65 1.85-9.9 2.9-2.6 16.2 6.8 26.9 3.55 4.1 8.9 7.4v.05q-6.75-2.25-13.9-10.35-8.55-14.85-4.65-26.5 6.05-1.45 11.8-4.15l.95 3.75M60.25 44.75l1.1.3q1.45.45 1.45 1.7 0 .9-.75 1.85-.9 1.25-2.4 1.25-.9 0-1.65-.75-.75-.75-.75-1.75 0-.5.4-1.1l.3 1.05q.35.55 1.55.55 1.25 0 1.25-2l-.15-.6-.35-.5M56.6 71.2l-.3.75q-.55 1.4-.55 1.8 0 3.6 3.4 3.6 1.75 0 2.6-1.25.75-1.05.75-2.75 0-1.6-1-2.25-.8-.5-2.75-.5-.8 0-2.15.6m7.2 11.15.5-1 .7-.25.95-.25q2.35 0 2.35 2.5l-.25 2q-.4.75-2 .75-2.75 0-2.75-2.35 0-.4.5-1.4m-13.25 24q2.45.85 4.6-.45l.3-.5.6-1.7q.45-1.95.3-3.7-.2-1.95-2.3-2.1-2.15-.25-4.05.45-1.35 1.5-1.9 3.55-.5 1.75.6 3.25.65.85 1.85 1.2m13.85 2.5-1.6 2.5q-2.6 3.5-6.35 3.5l-2.4-.15q.8-2.15 2.4-3.5 2.75-2.35 7.95-2.35m1.55 5.75.85-1.2.05-.05.5-.05 1.1-.2q2.15 0 2.85.5 1 .7 1 2.9 0 2.05-.7 3.6-1.05 2.25-3.15 2.25-1.25 0-2.4-1-1.25-1.05-1.25-2.5l.1-1.15.55.45q1.1.95 1.85.95.95 0 1.25-.5l.25-1.5-.25-1.1-1.25-1.4h-1.35" fill="#0efffe"/><path d="m88.6 148.8 2.2-4.9 12-4.6 3 5.35q-4.8 4.1-4.2 9.5-10.1 3.45-13-5.35m84.55-29.5q1.5-9.6.8-19.15 7.1-1.9 12.4-7.5.55 10.4-6.65 21.8l-6.55 4.85M46.3 137.65q-2.25-8.2-.75-14.5 5.4 5.55 12.55 8.95 2.7 11.15 11.25 15.55-3.6 5.8-19.8 3.5 4.7 7.95 9.3 10-14.8.65-29.65-6.15-9-8.45-13.4-23.35 17.05 10.3 30.5 6m54.75 5.75-.05.05-.4.35-.1.25-.15.3-.25.8q0 .6.75 1.1.7.5 1.15.5l1.1-.75.75-1q0-.7-.75-1.25-.65-.5-1.35-.5l-.7.15m-9.8 5.4-.25.9q0 1.65 1.65 2.6 1.45.8 3.5.8 1.75 0 3.05-1.1 1.25-1.05 1.25-2.5l-.25-1.25q-.3-.4-1.1-.4-.45 0-1.3.6-.9.55-2.1.55l-2.1-.45q-.7-.45-1.25-.45h-.1l-.5.05-.25.05q-.3.25-.25.6" fill="#a40138"/><path d="M142.6 179.6q-9.15-2-9.75-13.3.35-11.6 13.8-25.2l3.05-.25q-6.5 4.55-11.1 15.05-7.75 14.85 4.5 21.55l2.25.25 1.2.1q12.3.4 22.75-9.65 6.05-5.8 11.45-15.05l4.35-8.2q7.45-15.5 7.25-37.35-11.85 10.55-30.05 22.2l2.65-4.95 8.2-5.5 6.55-4.85 12.6-10.25 6.3-5.65q1.5 13.85-1.2 26.85-18.7 50.75-46.8 54.4l-3.1.25-4.45-.35-.45-.1m-33 18.8-.55 1.3-29.25 6.95-26.6-13.6-4.65-2.4-6.25-10.15 1.2-8.35 2.55.4.95.1q-.3 1.15-.85 4.55l-.9 4.65 38.3 21.3 24.75-4.6 1.3-.15m47.75-48.75q9.2-5.8 15.5-2.75-8.05.2-14.65 4.15.6 8.3-4.5 17.3 2.25-4.9 1.55-15.3-5.2 4-9.4 10.6.5-8.2 11.5-14m-57.8 25.75q-2.75-1.1-5.5-2.25-1.7-1.4-15.5 8 6.7-7.65 15.5-11.5 5.6 3.8 5.5 5.75" fill="#0d4447"/><path d="m173.95 100.15-.6-5.5q9.5-.2 17.05-9.25 1.55 9.9 1.9 18.8l-12.6 10.25q7.2-11.4 6.65-21.8-5.3 5.6-12.4 7.5m-112.2 28.5q5.55 3.75 11.5 5.85 6.05 2.15 12.55 2.6-16.15.4-27.7-5-7.15-3.4-12.55-8.95-1.5 6.3.75 14.5-4.75-9-3-19.75 9.25 8.75 18.45 10.75M29.2 155q13.7 12.7 38 10.6-4.1 1.75-7.6 2.55-18.8 3.2-34.8-8.5-13.75-16.3-13-37l10.95 6.3.2.15q11.05 8.3 23.35 8.55-13.45 4.3-30.5-6 4.4 14.9 13.4 23.35m62.55-6.85.5-.05h.1q.55 0 1.25.45l2.1.45q1.2 0 2.1-.55.85-.6 1.3-.6.8 0 1.1.4l.25 1.25q0 1.45-1.25 2.5-1.3 1.1-3.05 1.1-2.05 0-3.5-.8-1.65-.95-1.65-2.6l.25-.9.1-.2.4-.45" fill="#ff2a66"/><path d="M162.05 108.55q-5.15-.55-8.95-3.4 6.45-8 10.25-20.75.15 14.05-1.3 24.15M134.1 130.8q8-4.9 12.85-14.3 4.8 3.7 11.5 4.55Q151.7 135 143 138.2q-5.35-3.3-8.9-7.4" fill="#111c5e"/><path d="m161.8 130.5.5-.75q18.2-11.65 30.05-22.2.2 21.85-7.25 37.35l-4.35 8.2q7.5-15.25 8.6-38.7-18.45 14.4-27.55 16.1m-111 42.25-1.5 6.65 35.75 21.5 19.5-3.75 6.1-1.15-1.05 2.4-1.3.15-24.75 4.6-38.3-21.3.9-4.65q.55-3.4.85-4.55l3.8.1" fill="#53e2e2"/><path d="M161.8 130.5q9.1-1.7 27.55-16.1-1.1 23.45-8.6 38.7-5.4 9.25-11.45 15.05 12.85-15.4 16.3-46.75l-29.75 20.75q-24.4 27.7-3.45 28.05h.05l.1.9q0 2.9-2.35 4.8-1.45 1.2-3.65 1.9l-1.2-.1-2.25-.25q-12.25-6.7-4.5-21.55 4.6-10.5 11.1-15.05.65-.5 1.4-.95 6.35-3 10.7-9.4m-111 42.25q6.1-.1 11.5-1.85l.3-.1 19.95-4.65 29.3 4.75-7.3 26.25-19.5 3.75-35.75-21.5 1.5-6.65m48.75 2.65q.1-1.95-5.5-5.75-8.8 3.85-15.5 11.5 13.8-9.4 15.5-8 2.75 1.15 5.5 2.25" fill="#2f8a8c"/><path d="M85.1 151.9q-3.65 8.6-2.75 10.75l3.15-7q10.15 10.7 27.05 4 12.55-6.7 11.7-21.8l.05-.2q3.65 10 4.5 20Q121 171.7 110.65 196l-6.1 1.15 7.3-26.25-29.3-4.75-19.95 4.65q10.3-3.45 18.25-13.05l4.25-5.85m84.2 16.25q-10.45 10.05-22.75 9.65 2.2-.7 3.65-1.9 2.35-1.9 2.35-4.8l-.1-.9h.2l-.25-.15v.15q-20.95-.35 3.45-28.05l29.75-20.75q-3.45 31.35-16.3 46.75m-11.95-18.5q-11 5.8-11.5 14 4.2-6.6 9.4-10.6.7 10.4-1.55 15.3 5.1-9 4.5-17.3 6.6-3.95 14.65-4.15-6.3-3.05-15.5 2.75" fill="#1f6265"/><path d="M151.55 107q4.2 2.8 10.15 3.85l-1.1 5.3q-8.55.4-12.25-6l3.2-3.15M82.3 80.85V81l-.15 1.8-.15.6q-.6 2.25-2.2 4.9l-2.25 3.1q-2.15-1.2-4.5-1.9l.65-.75q1-1.35 1.25-4.7.25-3.4-2-5.8-2.25-2.45-4.1-2.4-1.9 0-3.3.5l-1.85.7q2-3.35 1.65-8.2l3.35-.25q5.5 1 10.3 6.55 2.9 3.35 3.3 5.7m7.35 32.2.7 3.6q.9 13.25-6.75 18l-6.15-1.7.85-2.2q1.25-3.85 1.25-8.6t-4.5-10.3q-4.3-5.25-9.6-5.7l.35-1.6q.45-3.45-1.7-10.15 17.45-.45 25.55 18.65M60.25 42.1q2.15 0 4.05 1.55 2.25 1.75 2.25 4.35 0 5.35-4.75 5.35-2.8 0-4.3-1.5T56 47.5l.1-2.5.9-1.95.4-.2.2-.15q1.25-.6 2.65-.6m-2.6 4.15q-.4.6-.4 1.1 0 1 .75 1.75t1.65.75q1.5 0 2.4-1.25.75-.95.75-1.85 0-1.25-1.45-1.7l-1.1-.3-.35-.1-.65-.3-1.3 1.45-.3.45m6.15 36.1q-.5 1-.5 1.4 0 2.35 2.75 2.35 1.6 0 2-.75l.25-2q0-2.5-2.35-2.5l-.95.25-.7.25-.5 1m-3.3-1.85q-.75 1.7-.75 4 0 1.9.65 3.05l.7.9-3.45.7q-.4-.95-.55-2.35l-.45-4.35q2.15-.8 3.85-1.95m3.3-.1q1.55-1.8 3.8-1.8 2.2 0 3.9 2.35 1.65 2.3 1.1 4.35l-1.15 3.3-.2.4-3-.6-4.45-.2h-.2l-.8-1.55q-.55-1.3-.55-2.65 0-1.85 1.55-3.6m-9.75 34.3 2.4.15q3.75 0 6.35-3.5l1.6-2.5h.05q4.95 0 8.85 5.25 3.75 5.05 3.6 9.55-.15 4.45-1.5 7.45l-.4.95q-12.25-4.75-21.65-14.3.2-1.7.7-3.05m12.75-1.3-.85 1.2-.4.85q-.5 1.15-.65 2.25l-.1 1.15q0 1.45 1.25 2.5 1.15 1 2.4 1 2.1 0 3.15-2.25.7-1.55.7-3.6 0-2.2-1-2.9-.7-.5-2.85-.5l-1.1.2-.5.05h-.05v.05" fill="#0d719c"/><path d="m60.25 44.75.35.5.15.6q0 2-1.25 2-1.2 0-1.55-.55l-.3-1.05.3-.45 1.3-1.45.65.3.35.1M56.6 71.2q1.35-.6 2.15-.6 1.95 0 2.75.5 1 .65 1 2.25 0 1.7-.75 2.75-.85 1.25-2.6 1.25-3.4 0-3.4-3.6 0-.4.55-1.8l.3-.75m-6.05 35.15q-1.2-.35-1.85-1.2-1.1-1.5-.6-3.25.55-2.05 1.9-3.55 1.9-.7 4.05-.45 2.1.15 2.3 2.1.15 1.75-.3 3.7l-.6 1.7-.3.5q-2.15 1.3-4.6.45m15.4 8.25h1.35l1.25 1.4.25 1.1-.25 1.5q-.3.5-1.25.5-.75 0-1.85-.95l-.55-.45q.15-1.1.65-2.25l.4-.85m35.1 28.8.7-.15q.7 0 1.35.5.75.55.75 1.25l-.75 1-1.1.75q-.45 0-1.15-.5-.75-.5-.75-1.1l.25-.8.15-.3.1-.25.4-.35.05-.05" fill="#fff"/><path d="m86.7 135.3 8.9 1.1q-7.55 6.85-10.5 15.5l-4.25 5.85q-7.3 5-13.4 7.7l-.25.15q-24.3 2.1-38-10.6 14.85 6.8 29.65 6.15-4.6-2.05-9.3-10 16.2 2.3 19.8-3.5-8.55-4.4-11.25-15.55 11.55 5.4 27.7 5-6.5-.45-12.55-2.6.7-.4 1.75-2.45l2.45.9 6.15 1.7 3.1.65m-.1 18 2-4.5q2.9 8.8 13 5.35-.6-5.4 4.2-9.5l-3-5.35-12 4.6 10.35-8q2.05 1.25 3.55 2.65 3.9 3.7 4.1 8.35-6 .15-4.65 6.25l.65 2.1q-7.2 5.05-18.2-1.95" fill="#5f051a"/><path d="m22.75 128.95-10.95-6.3q-.75 20.7 13 37-18.6-15.45-18-48 7.6 10.95 15.95 17.3m23.55 8.7q-8.8-11.3-3-27.5 8.6 11.85 18.45 18.5-9.2-2-18.45-10.75-1.75 10.75 3 19.75" fill="#ff54cb"/><path d="m33.3 169.5 2.8.85 6.2 10.15 6.25 10.15-.25 4q-8.6-11.05-15-25.15" fill="#577bb4"/><path d="m101.15 135.9 6.2-4.8 10.2-7.95q4.1 7.25 6.75 14.5l-.05.2q-2.2 13.05-9.45 17.55 5.9-10.35 0-20.75l-10.1 3.9q-1.5-1.4-3.55-2.65" fill="#bfbde3" fill-opacity=".961"/><path d="m104.7 138.55 10.1-3.9q5.9 10.4 0 20.75-17.35 9.4-28.2-2.1 11 7 18.2 1.95l-.65-2.1q-1.35-6.1 4.65-6.25-.2-4.65-4.1-8.35" fill="#fdfdfd"/></g><g id="w" fill-rule="evenodd"><path d="M19.9 51.75q-4.05-.6-7.45-3.65-4.4-4-3.8-8.9.55-4.95.8-5.3l.2-.55.85-1.15.3-.45v.05l.2.05q.25 3.25 2.05 4.8 1.15 1.05 4.5 2.4 1.65.5 3.25-.5v-.35q0-3.4 2.1-5.7 1.75-1.9 4.25-2.35l.4-.1 1.5-.25q3.1.35 4.85 2.95 1.3 2 1.8 4.85v.15l.15 1.35q.15 2.05-.9 4.25l-.05.1q-1 1.9-2.9 3.9-4 4.25-9.25 4.55h-.4l-2.45-.15M11.7 28.8l-.25-.55Q6.6 17.7 14.6 10.85q3.25-1.6 6.3-2.15 7.55-1.4 13.9 3.85l-4.5.25q-2.3.95-3.45 1.55-2.05 1.1-2.05 2.95 0 1.1 1 3l.9 2.05.25 1.25q.7 3.6-2.85 7.25-7 6.05-12.25-1.75l-.15-.3m12.45-18.7q-2.95-.05-6.15 1.3-3.25 1.35-4.75 4.1-1.55 2.75-1.55 4.1l.05 2.9q.2 2.6 1.55 4.8 1.4 2.35 4.15 2.7l1.8.2q1.85-.45 3.35-1.55 1-.75 1.65-1.85.7-1.3.45-2.6l-1.55-5.85q-.9-2.8 1.25-4.7 2.25-2 5.15-2.75-2.5-.8-5.4-.8m17.65 4.95h1.5q3 .55 5.35 1.8 1.8.95 3.25 2.4 3.25 3.15 3.75 9.5.4 6.35-5.9 10.55-6.3 4.15-12.25 3.6 2.1.1 4.5-1.5 3.05-2.05 3.05-5.1 0-2.15-1.05-2.25l-4.5-.7-.05-.05-1.65-.3q-5.15-.95-5.5-6.45-.35-5.55 1.85-8.45 2.15-2.95 5.9-3.05h1.75m-6 4.2-.45.7-.4.85q-1.15 2.6-1.15 5.5 0 3.2 2.45 4.3l5.1.9q3.25.4 4.35 1.7 1.6 1.9.35 6.6v.25q2.7-.95 4.65-4.05 2.1-3.35 2.1-7.3 0-4.45-4.05-7.65-4.1-3.25-7.1-3.25t-4.15.55l-1.7.9m-15 19.3q.05.5.25 0h-.25m2.25 10.2q3.65-.35 7.2-2.85 4.2-3.05 4-6.25-.2-3.2-1.7-5.1-1.6-2-4-2-3.15 0-4.5 1.65L23.1 36l-.3.6-.55 1.95q-1.1 2-4.2 2-1.5 0-4.35-1.15l-3-1.5q.15 4.8 3.85 7.65 2.9 2.2 7.05 2.85l1.45.35" fill="#680c0a"/><path d="M40.05 3.3q-8.5-.55-12.1 1.2-3.65 1.7-7.05 4.2-3.05.55-6.3 2.15-8 6.85-3.15 17.4l.25.55-.4 1.1q-.4 1.05-.5 1.85l-.3.45-.85 1.15-.2.55q-.25.35-.8 5.3-.6 4.9 3.8 8.9 3.4 3.05 7.45 3.65L21.35 53l2.7 1.8L26 56.55l1.2 1.35q-6.95-1.25-14.35-5.05Q.3 41.65 3.3 25.55q2.95-16.1 22.3-22.2 7.95-1 14.45-.05m13.1 45.4q.75 1.3.9 2.85l-.25.25-1.2 1.05q-8.95 5.55-18.8 5.6.1-2.1.5-3.6.9-3.75 3.6-6.2l.9-.7q3.45-2.65 8.75-2.65 2.55 0 4.5 2l1.1 1.4m-22.6-33.1q1.5.65 1.5 1.85 0 .95-.75 1.85-.85 1-2 1-1.2 0-2-.75-.75-.7-.75-1.85 0-.8.55-1.5l.8-.65q.3-.2.65-.25.95-.2 2 .3" fill="#ffffbf"/><path d="M16.1 14.5q-2.35 2.2-2.6 7.05-.3 4.85 3.3 5.85 3.55 1 4.3-.35.7-1.4.7-3.85 0-1.3-.6-3.55l-.65-2.85q0-1.15 1-3.05.9-1.75 1.45-1.9-4.55.45-6.9 2.65m8.05-4.4q2.9 0 5.4.8-2.9.75-5.15 2.75-2.15 1.9-1.25 4.7l1.55 5.85q.25 1.3-.45 2.6-.65 1.1-1.65 1.85-1.5 1.1-3.35 1.55l-1.8-.2q-2.75-.35-4.15-2.7-1.35-2.2-1.55-4.8l-.05-2.9q0-1.35 1.55-4.1 1.5-2.75 4.75-4.1 3.2-1.35 6.15-1.3m15.8 10.7h-.25l-1.6.05h-.05q-.7.1-1.1.3-1.55 1.05-1.65 3.45v.35q0 3.85 3.9 3.85l2-.35 3.25-.55q1.95-.15 3.2 2.05l1.4 2.25.55-1.4.2-2q0-4.15-3.25-6.25-2.6-1.7-6.6-1.75m-4.15-1.55 1.7-.9q1.15-.55 4.15-.55 3 0 7.1 3.25 4.05 3.2 4.05 7.65 0 3.95-2.1 7.3-1.95 3.1-4.65 4.05v-.25q1.25-4.7-.35-6.6-1.1-1.3-4.35-1.7l-5.1-.9q-2.45-1.1-2.45-4.3 0-2.9 1.15-5.5l.4-.85.45-.7" fill="#a40138"/><path d="M16.1 14.5q2.35-2.2 6.9-2.65-.55.15-1.45 1.9-1 1.9-1 3.05l.65 2.85q.6 2.25.6 3.55 0 2.45-.7 3.85-.75 1.35-4.3.35-3.6-1-3.3-5.85.25-4.85 2.6-7.05m19.2 10.4.05.05.95.8q.85.55 1.65.55 1.4 0 2.05-.4.65-.4.8-1.7.15-1.25-.85-3.4 4 .05 6.6 1.75 3.25 2.1 3.25 6.25l-.2 2-.55 1.4-1.4-2.25q-1.25-2.2-3.2-2.05l-3.25.55-2 .35q-3.9 0-3.9-3.85v-.05m-17.25 1.4q2.5 0 2.5-3.1 0-1.45-1.25-1.9l-2.35-.25q-1 0-1.4.75-.25.55-.25 1.75 0 1.25.75 2t2 .75m11.5 9.15q2.3 1.45 2.25 3.4-.1 2.75-3.55 4.95-3.45 2.15-5.7 2.5l-4.3-.35q-2.05-.75-2.9-2.85l2.35.45q5.25 0 6-4.6l.25-1.35.4 1.15q.65 1.05 2.2 1.05 2.35 0 3.1-2.5.35-1.15-.1-1.85" fill="#ff2a66"/><path d="M20.9 8.7q3.4-2.5 7.05-4.2 3.6-1.75 12.1-1.2 14.1 2 21.3 13.05 11.25 17.6-7.3 35.2-.15-1.55-.9-2.85l4.65-4.45q2.95-3.3 4.5-9.2-3.1-1.25-4.6-3.35-1.65-2.3-1.65-6 0-1.45 1.05-4.6 1.05-2.9 1.95-3.8.95.6.2-.2l-3.6-3.3q-1.95-1.65-4.95-3.05-5.1-2.35-13.35-3.9 2.05 2.55 3.6 5.2 1.3 2.25.85 3h-1.75q-3.75.1-5.9 3.05-2.2 2.9-1.85 8.45.35 5.5 5.5 6.45l1.65.3L38 35.85q-.85 1-2.3 1.75-.5-2.85-1.8-4.85-1.75-2.6-4.85-2.95l-1.5.25-.4.1q-2.5.45-4.25 2.35-2.1 2.3-2.1 5.7v.35q-1.6 1-3.25.5-3.35-1.35-4.5-2.4-1.8-1.55-2.05-4.8l-.2-.05v-.05q.1-.8.5-1.85l.4-1.1.15.3q5.25 7.8 12.25 1.75 3.55-3.65 2.85-7.25l-.25-1.25-.9-2.05q-1-1.9-1-3 0-1.85 2.05-2.95 1.15-.6 3.45-1.55l4.5-.25Q28.45 7.3 20.9 8.7m6.3 49.2L26 56.55l-1.95-1.75-2.7-1.8-1.45-1.25 2.45.15h.4q5.3 2.9 11.55 2.95-.4 1.5-.5 3.6l-6.2-.5-.4-.05m8.1-33v-.3q.1-2.4 1.65-3.45.4-.2 1.1-.3h.05l1.6-.05h.25q1 2.15.85 3.4-.15 1.3-.8 1.7-.65.4-2.05.4-.8 0-1.65-.55l-.95-.8-.05-.05m-4.75-9.3q-1.05-.5-2-.3-.35.05-.65.25l-.8.65q-.55.7-.55 1.5 0 1.15.75 1.85.8.75 2 .75 1.15 0 2-1 .75-.9.75-1.85 0-1.2-1.5-1.85m-12.5 10.7q-1.25 0-2-.75t-.75-2q0-1.2.25-1.75.4-.75 1.4-.75l2.35.25q1.25.45 1.25 1.9 0 3.1-2.5 3.1m5.9 11.3q.25-1.4.45-1.85.75-1.45 2.9-1.45 1.3.55 2.25 1.15.45.7.1 1.85-.75 2.5-3.1 2.5-1.55 0-2.2-1.05l-.4-1.15" fill="#ffdb00"/><path d="M21.6 48.4q-4.15-.65-7.05-2.85-3.7-2.85-3.85-7.65l3 1.5q2.85 1.15 4.35 1.15 3.1 0 4.2-2l.55-1.95.3-.6.95-1.8q1.35-1.65 4.5-1.65 2.4 0 4 2 1.5 1.9 1.7 5.1.2 3.2-4 6.25-3.55 2.5-7.2 2.85v-.2l-1.45-.15m2.35-10.8-.25 1.35q-.75 4.6-6 4.6l-2.35-.45q.85 2.1 2.9 2.85l4.3.35q2.25-.35 5.7-2.5 3.45-2.2 3.55-4.95.05-1.95-2.25-3.4-.95-.6-2.25-1.15-2.15 0-2.9 1.45-.2.45-.45 1.85" fill="#a30138"/><path d="M41.8 15.05q.45-.75-.85-3-1.55-2.65-3.6-5.2 8.25 1.55 13.35 3.9.15 2.05-.8 4.05l-1.25 2.05q-2.35-1.25-5.35-1.8h-1.5M22.75 51.9Q28 51.6 32 47.35q1.9-2 2.9-3.9l1.85 2.05 2.05 2.45-.9.7q-2.7 2.45-3.6 6.2-6.25-.05-11.55-2.95" fill="#fa9400"/><path d="M40.05 3.3q-6.5-.95-14.45.05-19.35 6.1-22.3 22.2-3 16.1 9.55 27.3 7.4 3.8 14.35 5.05l.4.05 6.2.5q9.85-.05 18.8-5.6l1.2-1.05.25-.25q18.55-17.6 7.3-35.2Q54.15 5.3 40.05 3.3M19.1 59.35q-12.75-4.3-18-18-5.7-29.95 18-39 29.65-8.4 45.5 13.5 11.5 24.9-10.75 39.5-17.35 9.5-34.75 4" fill="#7a340b"/><path d="m48.65 16.85 1.25-2.05q.95-2 .8-4.05 3 1.4 4.95 3.05l3.6 3.3-.2.2q-.9.9-1.95 3.8-1.05 3.15-1.05 4.6 0 3.7 1.65 6 1.5 2.1 4.6 3.35-1.55 5.9-4.5 9.2l-4.65 4.45-1.1-1.4q-1.95-2-4.5-2-5.3 0-8.75 2.65l-2.05-2.45-1.85-2.05.05-.1q1.05-2.2.9-4.25l-.15-1.35v-.15q1.45-.75 2.3-1.75l1.45-2.55.05.05 4.5.7q1.05.1 1.05 2.25 0 3.05-3.05 5.1-2.4 1.6-4.5 1.5 5.95.55 12.25-3.6 6.3-4.2 5.9-10.55-.5-6.35-3.75-9.5-1.45-1.45-3.25-2.4" fill="#cf4e00"/></g><g id="x" fill-rule="evenodd"><path d="M72.7 29.75h.2l.8.1q-3.05 7.75-4 7.25-1-.55-1.8-.75-.8-.2-1.85.3-1.1.45-.75 2.25.3 1.8-1.6 2.45-.5-2.25-.5-3.6 0-1.9 1.65-2.6 1.05-.45 3.85-1.05 1.15-.3 2.35-2.05l1.65-2.3m-24.25 23 1.6-2.4q.95-.8 2.6-1.45 3.6-1.5 6.05-1.3v-2q-.2-1.75-.8-3.15l-1.25-2.4.45-.7 1.35 1.35q2 2.5 2 5.15 0 3.4-4.85 3.95l-3.4.55q-1.5.55-1.5 2 0 .65.25.5 2 .1 2.6.6.65.45.65 1.9 0 1.6-3.4 3.55-3.5 2.05-3.6 2.95h-.25v1h-.25q-.25-.5-.25-2 0-2 2.9-3.2 2.85-1.2 2.85-1.8 0-1.05-1.85-1.5-1.9-.4-1.9-1.35v-.25m-6.25 14.1-.75-1.25 1.65.95q.35.1.35 1.05 0 1.5-.55 1.85-1.1.35-2.2.9-1.85 1-1.7 2.5.05 1-1.4 1l-1.4-.25v-1q1.65.3 2.05-.8.15-1.55.45-2.2l1.85-1.25q1.65-1 1.65-1.5" fill="#680c0a"/><path d="m72.7 29.75-1.65 2.3q-1.2 1.75-2.35 2.05-2.8.6-3.85 1.05-1.65.7-1.65 2.6 0 1.35.5 3.6 1.9-.65 1.6-2.45-.35-1.8.75-2.25 1.05-.5 1.85-.3t1.8.75q.95.5 4-7.25l-.8-.1h-.2m-15.6 9.6 3.65-5.7 18.5-7.7L72.5 45.4 36.45 80.85l-4.2-4 16.1-23.9.1.05q0 .95 1.9 1.35 1.85.45 1.85 1.5 0 .6-2.85 1.8-2.9 1.2-2.9 3.2 0 1.5.25 2h.25v-1h.25q.1-.9 3.6-2.95 3.4-1.95 3.4-3.55 0-1.45-.65-1.9-.6-.5-2.6-.6-.25.15-.25-.5 0-1.45 1.5-2l3.4-.55q4.85-.55 4.85-3.95 0-2.65-2-5.15l-1.35-1.35m-7.05 11 6.6-10.3 1.25 2.4q.6 1.4.8 3.15v2q-2.45-.2-6.05 1.3-1.65.65-2.6 1.45m-7.85 16.5q0 .5-1.65 1.5L38.7 69.6q-.3.65-.45 2.2-.4 1.1-2.05.8v1l1.4.25q1.45 0 1.4-1-.15-1.5 1.7-2.5 1.1-.55 2.2-.9.55-.35.55-1.85 0-.95-.35-1.05l-1.65-.95.75 1.25" fill="#a40138"/><path d="m79.25 25.95-18.5 7.7-3.65 5.7-.45.7-6.6 10.3-1.6 2.4-.1.2-16.1 23.9-1.75-1.65q14.1-20 28.75-44.05L80 23.65l-.75 2.3" fill="#ff54cb"/><path d="m39.1 83.35 38.4-36.2.35-1.65 8.65-26.1 5.75-5.5-3.95 38.45-46.8 33.3-2.4-2.3m-9.3-7.25 7.15 7.35-27.2 25.45-2.4-3.05 14.15-14.6-.3-1.1-.6-1.3q-.6-1-1.45-1.4L29.8 76.1" fill="#141c38"/><path d="m79.25 25.95.75-2.3-20.75 7.5Q44.6 55.2 30.5 75.2l-.15-.15q11.4-21.3 27.65-45.4l24.75-8.25-4.9 24.1-.35 1.65-38.4 36.2-2.65-2.5L72.5 45.4l6.75-19.45" fill="#5f051a"/><path d="m30.5 75.2 1.75 1.65 4.2 4 2.65 2.5 2.4 2.3 46.8-33.3 10.2-46.2-2.25.85L53.5 22.65l-27.25 48.5 1.85 1.75 2.25 2.15-.55 1.05.7-.9M9.75 108.9l27.2-25.45-7.15-7.35-10.65 11.35-15.4 16.45 3 2.5 3 2.5m93.5-99q-3.2 27.85-13 46.5Q67.1 74.95 43 89.65l-4.25-4.35L9 112.65l-9-9 27.4-30-3.65-3.75 28-52.5q17.65-8.8 40-15.75 14.75-5.75 11.5 8.25"/><path d="m88.3 52.35 3.95-38.45-5.75 5.5-8.65 26.1 4.9-24.1L58 29.65q-16.25 24.1-27.65 45.4L28.1 72.9l.65-.75q9.95-19.8 27.75-44.5L96.25 7l2.25-.85-10.2 46.2" fill="#2c3e5b"/><path d="m28.1 72.9-1.85-1.75 27.25-48.5L96.25 7 56.5 27.65q-17.8 24.7-27.75 44.5l-.65.75" fill="#5779b1"/><path d="m6.75 106.4-3-2.5 15.4-16.45q.85.4 1.45 1.4L6 104.15l1.35 1.7-.6.55" fill="#5577ae"/><path d="m20.6 88.85.6 1.3.3 1.1-14.15 14.6-1.35-1.7 14.6-15.3" fill="#2a3b58"/></g><g id="y" fill-rule="evenodd"><path d="M32.15 23.95q.1 5.55-4.2 12.45-4.25 6.85-11.7 7.35-7.5.5-10.2-1.75-3-2.55-3-7.3 0-6.4 3.3-11.55 3.55-5.45 8.85-5.9h3.1q1.45-3.6 5.6-3.6 3 0 5.55 2.4t2.7 7.9M1 9.55q.55 3.3 1.9 4.85 1.4 1.6 3.9 1.65 2.5 0 4.8-2.3 2.3-2.35 2.2-5.35-.1-3-2.7-5.25-2.25-2-4.8-2.3L6.15.5 5.9.05 6.4 0q3.4 0 6.45 2.85 3.1 2.95 3.1 6.6 0 4.35-2.5 6.85-2.45 2.5-6.7 2.5-3.4 0-5.15-2.1-1.6-1.85-1.6-5Q0 10.3.15 9q.3.45.85.55m15.65 9.6q-1.8.3-2.85 1.1l-2.35 1.65q-3.1 2.05-4.85 6.35-1.8 4.25-1.8 8.45 0 4.15 3.85 4.2l.65-.05 2-.25q2.45-.5 4.9-1.9 3.75-2.25 6-4.5 2.2-2.1 3.35-5.55.9-2.9.9-6.05 0-1.9-.95-4.15-1.1-2.5-2.35-2.5l-.4.05-2.55 2.3-.1.1-2.7.65-.75.1" fill="#0d4447"/><path d="m1.4 9.35.75.7q.85.5 1.85.5 2.7 0 3.95-1.1Q9.3 8.35 9.3 5.9q0-1.9-1.05-2.85-.65-.65-1.9-1l.1-.4-.15-.8q2.55.3 4.8 2.3 2.6 2.25 2.7 5.25.1 3-2.2 5.35-2.3 2.3-4.8 2.3Q4.3 16 2.9 14.4 1.55 12.85 1 9.55h.05l.35-.2m18.7 9.05.1-.1 2.55-2.3.4-.05q1.25 0 2.35 2.5.95 2.25.95 4.15 0 3.15-.9 6.05-1.15 3.45-3.35 5.55-2.25 2.25-6 4.5-2.45 1.4-4.9 1.9l-.7-1.25q-2.1-4.25.3-9 2.35-4.8 6-7.25 3.55-2.4 3.2-4.7" fill="#1f6265"/><path d="M6.35 2.05q1.25.35 1.9 1Q9.3 4 9.3 5.9q0 2.45-1.35 3.55-1.25 1.1-3.95 1.1-1 0-1.85-.5l-.75-.7.85-1.85q.65-2.15.85-2.4.2-.3 2.1-1.8l1.15-1.25m2.95 38.8Q8.45 40 7.9 38.2q-.7-2.25-.7-5.15 0-5.15 4.95-8.8l3.4-2.35q1.55-1.2 1.55-2.2l-.45-.55.75-.1 2.7-.65q.35 2.3-3.2 4.7-3.65 2.45-6 7.25-2.4 4.75-.3 9l.7 1.25-2 .25" fill="#2f8a8c"/><path d="M6.35 2.05 5.2 3.3Q3.3 4.8 3.1 5.1q-.2.25-.85 2.4L1.4 9.35l-.35.2H1Q.45 9.45.15 9q.1-1.6.45-3 .65-3 2.05-4.75L3.1 1Q4.75.2 5.9.05l.25.45.15.35.15.8-.1.4m2.95 38.8-.65.05q-3.85-.05-3.85-4.2 0-4.2 1.8-8.45 1.75-4.3 4.85-6.35l2.35-1.65q1.05-.8 2.85-1.1l.45.55q0 1-1.55 2.2l-3.4 2.35Q7.2 27.9 7.2 33.05q0 2.9.7 5.15.55 1.8 1.4 2.65" fill="#53e2e2"/></g><g id="z" fill-rule="evenodd"><path d="M38.95 21.8q28.2-.85 38.45 9.8 18.25 19.15 16.2 47.85.1-14.25-7.4-31.65Q81.95 37.6 74.65 32q-6.75-5.2-16.05-6.55l-5-.45L52 41.35q-5.05-.6-9.85-.1l.45-15.9-2-.25q-2-.35-2-1.8l.35-1.5M27.2 9 10 15.6 15.6 29l-2.55 27.85Q3.85 69.35 6.8 89q-3.75-6.6-3.6-24Q4.8 47.6 13 32.4L5.6 14.6 29 5.4l1.35 2.4q-.6.25-1.15.45l-2 .75" fill="#cbd9f0"/><path d="M74.65 32q7.3 5.6 11.55 15.8 7.5 17.4 7.4 31.65 2.05-28.7-16.2-47.85-10.25-10.65-38.45-9.8h-.75l-7.85-14L29 5.4 5.6 14.6 13 32.4Q4.8 47.6 3.2 65q-.15 17.4 3.6 24-2.95-19.65 6.25-32.15 2.6-3.5 6.15-6.45 10.75-7.95 22.95-9.15 4.8-.5 9.85.1l5.4.9q3.65.8 7.4 2.15 4.75 2 8.65 4.35L74.65 32m-3.7 78q15.75-7.2 19.55-24.35l.4-1.85q1.3-14.95-7.85-23.75-.35 16.85-11.45 28.5Q68.3 92 64 95q-17.95 6.75-34.6 0-17.05-7.3-18.1-28.35-1.6 3-2.7 6.55-2.4 21.6 13.6 34.4 2.7 2 5.65 3.45l3.7 1.55 3 .95q3.9 1.05 8.25 1.35l3.35.1 2.5-.05q6.3-.25 13.35-1.95l2.3-.6q3.55-1 6.65-2.4M24.3 15.2q-1.35-.15-3.35 1-1.8.95-2.35 1.45l-.15.15q.15 1 1.1 2.95 1.3 2.55 1.45 3.65h1.4q.3-.3 2.55-1.5L27 21.5q0-.55-2.7-6.3M24 31.6q1.15-.85 3.95-1.9 2.8-1.05 2.45-2l-.8-2.85q-.45-1.85-2.2-1.25-1.75.6-3.4 1.65l-2.15 1.6.05.05.5 1.7q.4 1.75 1.6 3m9.4-2-10 5.4q-3.8-5-6.8-18.8l8.6-3.6q6.7 10.35 8.2 17M31 0q5.95 5.75 9 18 29.35-5.95 43 15 17.15 24.35 10.05 51.55Q90.1 95.85 83 107.6q-29.75 23.65-60.2 8.4Q.9 101.95 0 66.2q-.3-19 11.2-32.8L3.6 13.8l4.8-6.2Q18.35 2.45 31 0m6.2 49q-14.95 2.85-22.65 12.65-2 23.5 18.45 31.55 21.3 4.55 36.4-7.6 11.55-14.4 11.65-27.25Q76.6 54.8 70.2 52.4q-13.4-6-33-3.4" fill="#413c5e"/><path d="M52 41.35 53.6 25l5 .45-1.2 16.8-5.4-.9m19.6 47.2q11.1-11.65 11.45-28.5 9.15 8.8 7.85 23.75l-.4 1.85Q86.7 102.8 70.95 110l.65-21.45m-7.3 23.85-2.3.6q-7.05 1.7-13.35 1.95l.6-13.7q7.6-.9 16.35-4.75l-1.3 15.9M46.15 115l-3.35-.1v-13.45l3.35.05V115m-11.6-1.45-3-.95 1.65-13.4 2.95 1.05-1.6 13.3m-6.7-2.5q-2.95-1.45-5.65-3.45-16-12.8-13.6-34.4 6.7 20.65 21.2 26.2l-1.95 11.65M27.2 9l2-.75 7 14.75-1 3.2q-7.15-13.35-8-17.2" fill="#654c8b"/><path d="m38.95 21.8-.35 1.5q0 1.45 2 1.8l2 .25-.45 15.9q-12.2 1.2-22.95 9.15-3.55 2.95-6.15 6.45L15.6 29 10 15.6 27.2 9q.85 3.85 8 17.2l1-3.2-7-14.75q.55-.2 1.15-.45l7.85 14h.75m19.65 3.65Q67.9 26.8 74.65 32l-1.2 16.75q-3.9-2.35-8.65-4.35-3.75-1.35-7.4-2.15l1.2-16.8M70.95 110q-3.1 1.4-6.65 2.4l1.3-15.9q-8.75 3.85-16.35 4.75l-.6 13.7-2.5.05v-13.5l-3.35-.05v13.45q-4.35-.3-8.25-1.35l1.6-13.3-2.95-1.05-1.65 13.4-3.7-1.55L29.8 99.4Q15.3 93.85 8.6 73.2q1.1-3.55 2.7-6.55Q12.35 87.7 29.4 95q16.65 6.75 34.6 0 4.3-3 7.6-6.45L70.95 110M33.4 29.6q-1.5-6.65-8.2-17l-8.6 3.6q3 13.8 6.8 18.8l10-5.4" fill="#6d80af"/><path d="M24 31.6q-1.2-1.25-1.6-3l-.5-1.7-.05-.05 2.15-1.6q1.65-1.05 3.4-1.65 1.75-.6 2.2 1.25l.8 2.85q.35.95-2.45 2-2.8 1.05-3.95 1.9" fill="#43325c"/></g><g id="A" fill-rule="evenodd"><path d="M14.65.85q.8-.5 1.9-.85 10.5 9.2 13 13.5.5 2.1.6 5.2l-1.6 20.4q-2.1 4.25-7.8 3.15l-8.25-7q-8.75-4.5-12.5-8.7l2.65-3.1q8.4 8.5 13.75 12 5.4 3.55 7.6 1.8 8.8-22.75 1.3-25-8.1-4.6-9.9-7.45-.85-1.4-.75-3.95" fill="#0d4447"/><path d="M15.4 4.8q1.8 2.85 9.9 7.45 7.5 2.25-1.3 25-2.2 1.75-7.6-1.8l-8.65-12.8L15.4 4.8" fill="#1f6265"/><path d="M14.65.85q-.1 2.55.75 3.95L7.75 22.65l-2-2.9 6.5-16.25q.45-1.55 2.4-2.65" fill="#2f8a8c"/><path d="M16.4 35.45q-5.35-3.5-13.75-12l3.1-3.7 2 2.9 8.65 12.8" fill="#53e2e2"/></g><path d="M27.75 0q0 2-8.15 3.4Q11.5 4.9 0 4.9q-11.5 0-19.65-1.5-8.1-1.4-8.1-3.4 0-2.05 8.1-3.5Q-11.5-4.9 0-4.9q11.5 0 19.6 1.4 8.15 1.45 8.15 3.5" fill-opacity=".349" fill-rule="evenodd" transform="translate(27.75 4.9)" id="a"/></defs></svg>