<svg xmlns:ffdec="https://www.free-decompiler.com/flash" xmlns:xlink="http://www.w3.org/1999/xlink" ffdec:objectType="frame" height="100" width="100" xmlns="http://www.w3.org/2000/svg"><use ffdec:characterId="11" height="100" width="102" xlink:href="#a"/><defs><g id="a"><use ffdec:characterId="1" height="83.25" transform="matrix(.3317 0 0 .3315 2 71.9)" width="231.3" xlink:href="#b"/><use ffdec:characterId="2" height="147.15" transform="matrix(.3317 0 0 .3315 60.136 30.087)" width="107.25" xlink:href="#c"/><use ffdec:characterId="3" height="55.05" transform="matrix(.3317 0 0 .3315 4.602 72.836)" width="95.85" xlink:href="#d"/><use ffdec:characterId="4" height="76.7" transform="matrix(.3317 0 0 .3315 3.752 34.602)" width="69.9" xlink:href="#e"/><use ffdec:characterId="5" height="60" transform="matrix(.3317 0 0 .3315 31.634 78.284)" width="90.25" xlink:href="#f"/><use ffdec:characterId="6" height="89.65" transform="matrix(.3317 0 0 .3315 82.85 46.887)" width="48.2" xlink:href="#g"/><use ffdec:characterId="7" height="167.5" transform="matrix(.3317 0 0 .3315 8.852 28.603)" width="187.05" xlink:href="#h"/><use ffdec:characterId="8" height="58.2" transform="matrix(.3317 0 0 .3315 32.75 39.4)" width="85.05" xlink:href="#i"/><use ffdec:characterId="9" height="108" transform="matrix(.3317 0 0 .3315 19.5 .8)" width="131.3" xlink:href="#j"/><use ffdec:characterId="10" height="199" transform="scale(.585 .5025)" width="170.95" xlink:href="#k"/></g><g id="c"><path d="M92.1 14.05q-13.3-5-16.35-2.3Q59.8 35.1 40.7 19.45q-4.65-1-10.2 3.25 2.65-3.8 5.4-6.3Q48.35 5 57.3 2.75 62.6 1.4 66.25.8l.6.1q16.2 3.5 25.25 13.15" fill="#fee801" fill-rule="evenodd" transform="translate(2 2)"/><path d="M30.5 22.7q5.55-4.25 10.2-3.25 19.1 15.65 35.05-7.7 3.05-2.7 16.35 2.3 9.3 10 10.85 26.55l.05.5-.1-.15q-13.65-20.25-29.45-6.8-4.25-2.35-9.65-2.35-7.1 0-12.2 4.05-10.35 7.3-8.35 22.85l.15 1.2.55 2.55.2.55q-3.65 5.3-5.95 12.15-3.95 11.65-5.7 30.75-1.75 19.05-12.5 28.45l-6.4 5.25q-6 2.4-13.6 3.55l9.8-66.8v-.05h.05l3.2-11.25Q21.15 36 30.5 22.7" fill="#e08f00" fill-rule="evenodd" transform="translate(2 2)"/><path d="m44.15 63-.2-.55-.55-2.55-.15-1.2q-2-15.55 8.35-22.85 5.1-4.05 12.2-4.05 5.4 0 9.65 2.35 15.8-13.45 29.45 6.8l.1.15h-.1q-3.2 21.55-20.5 31.2-17.4 7.9-33.25-1.05l-1.4-1.65q-1.15-1.45-2-2.95L44.15 63m30.45-9.15q3.75-3.75 3.75-9.05 0-5.3-3.75-9.05Q70.85 32 65.55 32q-5.25 0-9 3.75T52.8 44.8q0 1.8.45 3.4l-.45.4q-2.5 2.6-2.5 6.15l.1 1.4q.4 2.7 2.4 4.7 2.55 2.55 6.1 2.55 3.6 0 6.1-2.55 1.5-1.5 2.15-3.3 4.25-.5 7.45-3.7m-2.55 7.05q2.45-1.1 4.55-2.9 3.85-3.3 4.9-7.5.4-1.65.4-3.35 0-6.35-5.3-10.85l-3.15-2.15 3.15 2.15q5.3 4.5 5.3 10.85 0 1.7-.4 3.35-1.05 4.2-4.9 7.5-2.1 1.8-4.55 2.9" fill="#656661" fill-rule="evenodd" transform="translate(2 2)"/><path d="M49.15 71.25Q65 80.2 82.4 72.3q17.3-9.65 20.5-31.2h.1l.25 7Q101.1 65 89.3 72.3l-3 1.65q-16.75 10.15-33.5.6l-.15-.15-.2-.15q-1.85-1.45-3.3-3m25.45-17.4q-3.2 3.2-7.45 3.7-.65 1.8-2.15 3.3-2.5 2.55-6.1 2.55-3.55 0-6.1-2.55-2-2-2.4-4.7l-.1-1.4q0-3.55 2.5-6.15l.45-.4q-.45-1.6-.45-3.4 0-5.3 3.75-9.05 3.75-3.75 9-3.75 5.3 0 9.05 3.75 3.75 3.75 3.75 9.05 0 5.3-3.75 9.05m-3.65-12.6q0-2.2-1.55-3.8-1.55-1.55-3.75-1.55-2.25 0-3.85 1.55-1.5 1.6-1.5 3.8 0 2.25 1.5 3.75 1.6 1.6 3.85 1.6 2.2 0 3.75-1.6 1.55-1.5 1.55-3.75m-8.2 5.05Q61.45 45 59.6 45q-1.9 0-3.25 1.3-1.3 1.35-1.3 3.25 0 1.85 1.3 3.15 1.35 1.4 3.25 1.4 1.85 0 3.15-1.4 1.4-1.3 1.4-3.15 0-1.9-1.4-3.25" fill="#939393" fill-rule="evenodd" transform="translate(2 2)"/><path d="M70.95 41.25q0 2.25-1.55 3.75-1.55 1.6-3.75 1.6-2.25 0-3.85-1.6-1.5-1.5-1.5-3.75 0-2.2 1.5-3.8 1.6-1.55 3.85-1.55 2.2 0 3.75 1.55 1.55 1.6 1.55 3.8" fill="#f5f5f5" fill-rule="evenodd" transform="translate(2 2)"/><path d="M62.75 46.3q1.4 1.35 1.4 3.25 0 1.85-1.4 3.15-1.3 1.4-3.15 1.4-1.9 0-3.25-1.4-1.3-1.3-1.3-3.15 0-1.9 1.3-3.25Q57.7 45 59.6 45q1.85 0 3.15 1.3" fill="#d3d3d3" fill-rule="evenodd" transform="translate(2 2)"/><path d="m13.6 139.6 6.4-5.25q10.75-9.4 12.5-28.45 1.75-19.1 5.7-30.75Q40.5 68.3 44.15 63l1.6 3.65Q38 76.35 36.3 105.8q-1.55 25.1-22.7 33.8" fill="#bfff00" fill-rule="evenodd" transform="translate(2 2)"/><path d="M66.25.8q-3.65.6-8.95 1.95Q48.35 5 35.9 16.4q-2.75 2.5-5.4 6.3Q21.15 36 13.05 65.05L9.85 76.3H9.8l2.95-20q3.6-13.1 8-23.1Q37.55-5.05 66.25.8" fill="#fef8ab" fill-rule="evenodd" transform="translate(2 2)"/><path d="M94.1 16.05Q85.05 6.4 68.85 2.9l-.6-.1q-28.7-5.85-45.5 32.4-4.4 10-8 23.1l-2.95 20v.05L2 145.15q7.6-1.15 13.6-3.55 21.15-8.7 22.7-33.8 1.7-29.45 9.45-39.15L46.15 65l-.2-.55-.55-2.55-.15-1.2q-2-15.55 8.35-22.85 5.1-4.05 12.2-4.05 5.4 0 9.65 2.35 15.8-13.45 29.45 6.8l.1.15-.05-.5Q103.4 26.05 94.1 16.05m-42.95 57.2q1.45 1.55 3.3 3l.2.15.15.15q16.75 9.55 33.5-.6l3-1.65q11.8-7.3 13.95-24.2l-.25-7m-29.55-6.95 3.15 2.15q5.3 4.5 5.3 10.85 0 1.7-.4 3.35-1.05 4.2-4.9 7.5-2.1 1.8-4.55 2.9m-22.9 10.35-1.4-1.65q-1.15-1.45-2-2.95" fill="none" stroke="#831b00" stroke-linecap="round" stroke-linejoin="round" stroke-width="4"/><path d="M30.5 22.7q2.65-3.8 5.4-6.3Q48.35 5 57.3 2.75 62.6 1.4 66.25.8l.6.1q16.2 3.5 25.25 13.15-13.3-5-16.35-2.3Q59.8 35.1 40.7 19.45q-4.65-1-10.2 3.25" fill="#fee801" fill-rule="evenodd" transform="translate(2 2)"/><path d="M66.25.8q-3.65.6-8.95 1.95Q48.35 5 35.9 16.4q-2.75 2.5-5.4 6.3Q21.15 36 13.05 65.05L9.85 76.3H9.8l2.95-20q3.6-13.1 8-23.1Q37.55-5.05 66.25.8" fill="#fef8ab" fill-rule="evenodd" transform="translate(2 2)"/><path d="M30.5 22.7q5.55-4.25 10.2-3.25 19.1 15.65 35.05-7.7 3.05-2.7 16.35 2.3 9.3 10 10.85 26.55l.05.5-.1-.15q-13.65-20.25-29.45-6.8-4.25-2.35-9.65-2.35-7.1 0-12.2 4.05-10.35 7.3-8.35 22.85l.15 1.2.55 2.55.2.55q-3.65 5.3-5.95 12.15-3.95 11.65-5.7 30.75-1.75 19.05-12.5 28.45l-6.4 5.25q-6 2.4-13.6 3.55l9.8-66.8v-.05h.05l3.2-11.25Q21.15 36 30.5 22.7" fill="#e08f00" fill-rule="evenodd" transform="translate(2 2)"/><path d="M72.05 60.9q2.45-1.1 4.55-2.9 3.85-3.3 4.9-7.5.4-1.65.4-3.35 0-6.35-5.3-10.85l-3.15-2.15 3.15 2.15q5.3 4.5 5.3 10.85 0 1.7-.4 3.35-1.05 4.2-4.9 7.5-2.1 1.8-4.55 2.9m2.55-25.15Q70.85 32 65.55 32q-5.25 0-9 3.75T52.8 44.8q0 1.8.45 3.4l-.45.4q-2.5 2.6-2.5 6.15l.1 1.4q.4 2.7 2.4 4.7 2.55 2.55 6.1 2.55 3.6 0 6.1-2.55 1.5-1.5 2.15-3.3 4.25-.5 7.45-3.7 3.75-3.75 3.75-9.05 0-5.3-3.75-9.05M44.15 63l-.2-.55-.55-2.55-.15-1.2q-2-15.55 8.35-22.85 5.1-4.05 12.2-4.05 5.4 0 9.65 2.35 15.8-13.45 29.45 6.8l.1.15h-.1q-3.2 21.55-20.5 31.2-17.4 7.9-33.25-1.05l-1.4-1.65q-1.15-1.45-2-2.95L44.15 63" fill="#656661" fill-rule="evenodd" transform="translate(2 2)"/><path d="M74.6 35.75q3.75 3.75 3.75 9.05 0 5.3-3.75 9.05-3.2 3.2-7.45 3.7-.65 1.8-2.15 3.3-2.5 2.55-6.1 2.55-3.55 0-6.1-2.55-2-2-2.4-4.7l-.1-1.4q0-3.55 2.5-6.15l.45-.4q-.45-1.6-.45-3.4 0-5.3 3.75-9.05 3.75-3.75 9-3.75 5.3 0 9.05 3.75m-3.65 5.5q0-2.2-1.55-3.8-1.55-1.55-3.75-1.55-2.25 0-3.85 1.55-1.5 1.6-1.5 3.8 0 2.25 1.5 3.75 1.6 1.6 3.85 1.6 2.2 0 3.75-1.6 1.55-1.5 1.55-3.75m-8.2 5.05Q61.45 45 59.6 45q-1.9 0-3.25 1.3-1.3 1.35-1.3 3.25 0 1.85 1.3 3.15 1.35 1.4 3.25 1.4 1.85 0 3.15-1.4 1.4-1.3 1.4-3.15 0-1.9-1.4-3.25m26.55 26-3 1.65q-16.75 10.15-33.5.6l-.15-.15-.2-.15q-1.85-1.45-3.3-3Q65 80.2 82.4 72.3q17.3-9.65 20.5-31.2h.1l.25 7Q101.1 65 89.3 72.3" fill="#939393" fill-rule="evenodd" transform="translate(2 2)"/><path d="M70.95 41.25q0 2.25-1.55 3.75-1.55 1.6-3.75 1.6-2.25 0-3.85-1.6-1.5-1.5-1.5-3.75 0-2.2 1.5-3.8 1.6-1.55 3.85-1.55 2.2 0 3.75 1.55 1.55 1.6 1.55 3.8" fill="#f5f5f5" fill-rule="evenodd" transform="translate(2 2)"/><path d="M62.75 46.3q1.4 1.35 1.4 3.25 0 1.85-1.4 3.15-1.3 1.4-3.15 1.4-1.9 0-3.25-1.4-1.3-1.3-1.3-3.15 0-1.9 1.3-3.25Q57.7 45 59.6 45q1.85 0 3.15 1.3" fill="#d3d3d3" fill-rule="evenodd" transform="translate(2 2)"/><path d="M45.75 66.65Q38 76.35 36.3 105.8q-1.55 25.1-22.7 33.8l6.4-5.25q10.75-9.4 12.5-28.45 1.75-19.1 5.7-30.75Q40.5 68.3 44.15 63l1.6 3.65" fill="#bfff00" fill-rule="evenodd" transform="translate(2 2)"/><path d="M94.1 16.05Q85.05 6.4 68.85 2.9l-.6-.1q-28.7-5.85-45.5 32.4-4.4 10-8 23.1l-2.95 20v.05L2 145.15q7.6-1.15 13.6-3.55 21.15-8.7 22.7-33.8 1.7-29.45 9.45-39.15M105 43.1l-.05-.5Q103.4 26.05 94.1 16.05M105 43.1l.25 7Q103.1 67 91.3 74.3" fill="none" stroke="#831b00" stroke-linecap="round" stroke-linejoin="round" stroke-width="2.5"/><path d="m75.45 36.15 3.15 2.15q5.3 4.5 5.3 10.85 0 1.7-.4 3.35-1.05 4.2-4.9 7.5-2.1 1.8-4.55 2.9M46.15 65l-.2-.55-.55-2.55-.15-1.2q-2-15.55 8.35-22.85 5.1-4.05 12.2-4.05 5.4 0 9.65 2.35m-24.3 37.1-1.4-1.65q-1.15-1.45-2-2.95L46.15 65m45.15 9.3-3 1.65q-16.75 10.15-33.5.6l-.15-.15-.2-.15q-1.85-1.45-3.3-3" fill="none" stroke="#831b00" stroke-linecap="round" stroke-linejoin="round" stroke-width="2"/><path d="M73.45 34.15q15.8-13.45 29.45 6.8l.1.15" fill="none" stroke="#831b00" stroke-linecap="round" stroke-linejoin="round" transform="translate(2 2)"/></g><g id="d"><path d="M3.35 32.45q.1-.7.65-1.55-.6.85-.7 1.6 0 .75.65 1.45l1.5.95q3.2-3.15 6.85-4.7 3.5-1.45 3.7-1.1v-.05q-.05-.45-3.7 1.1-3.65 1.55-6.85 4.7-.95-.45-1.45-1-.65-.6-.65-1.4m-1.2 3.85q-2.1-1.7-1.6-4.1.15-3.1 5.6-7.3 4.85-3.85 14.3-8.65 9.3-4.8 22.9-10.6l.6-.15.65.25q11.9-2.55 20.95-3.9 20.7-3.2 25.95-.6 8.05 3.95-20.15 21.6Q51.9 36.05 27 49.2l-.05.05q-5.95 3-9.9 2.9-3.85-.2-6-3.05-5.1.6-7.95-2.25H3Q.7 44.5 1.3 41.4q.25-1.8 1.75-3.8l.15-.25.1-.1.15-.2-1.3-.75m39.5 1.7-.4-2.2L40 31.5l-1.05-2.35-1.15-2.1-10.35-7.8-1.5-.35-3.25-.55 3.25.55 1.5.35 10.35 7.8 1.15 2.1L40 31.5l1.25 4.3.4 2.2" fill="#831b00" fill-rule="evenodd" transform="translate(1.05 1.4)"/><path d="m3.2 37.7 1.3.75-.15.2-.1.1-.15.25q-1.5 2-1.75 3.8-.6 3.1 1.7 5.45h.1Q7 51.1 12.1 50.5q2.15 2.85 6 3.05 3.95.1 9.9-2.9l.05-.05q24.9-13.15 44.35-26.35Q100.6 6.6 92.55 2.65q-5.25-2.6-25.95.6-9.05 1.35-20.95 3.9L45 6.9l-.6.15q-13.6 5.8-22.9 10.6-9.45 4.8-14.3 8.65-5.45 4.2-5.6 7.3-.5 2.4 1.6 4.1m1.2-3.85q0 .8.65 1.4.5.55 1.45 1 3.2-3.15 6.85-4.7 3.65-1.55 3.7-1.1v.05q-.2-.35-3.7 1.1-3.65 1.55-6.85 4.7L5 35.35q-.65-.7-.65-1.45.1-.75.7-1.6-.55.85-.65 1.55m19.35-14.1 3.25.55 1.5.35 10.35 7.8 1.15 2.1 1.05 2.35 1.25 4.3.4 2.2" fill="none" stroke="#831b00" stroke-linecap="round" stroke-linejoin="round" stroke-width="3"/><path d="m42.9 5.55.6-.15.65.25q11.9-2.55 20.95-3.9 20.7-3.2 25.95-.6Q99.1 5.1 70.9 22.75 51.45 35.95 26.55 49.1l-.05.05q-5.95 3-9.9 2.9-3.85-.2-6-3.05-5.1.6-7.95-2.25h-.1Q.25 44.4.85 41.3q.25-1.8 1.75-3.8l.15-.25.1-.1.15-.2-1.3-.75Q-.4 34.5.1 32.1q.15-3.1 5.6-7.3 4.85-3.85 14.3-8.65 9.3-4.8 22.9-10.6m42.85.4q1.8-7-32 .2L43.4 8.45q-6.2 2.6-11.3 5-5.5 2.5-9.85 4.75l-.1.05q-3.9 1.95-6.95 3.7-4.5 2.55-7.4 4.8l-.15.15-.2.15L5.4 28.7l-1.45 1.55-.4.55q-.6.85-.7 1.6 0 .75.65 1.45l1.5.95q3.2-3.15 6.85-4.7 3.5-1.45 3.7-1.1-1.35 1-2.55 1.95L6.8 37h-.05l-.1.1-.45.45-1.1 1.3-.75 1.3q-.5.75-.65 1.55l-.05.15v.05l.1 1.45q.2.7.85 1.35 2.3 1.95 6.4 1.35h.35l.95-.15 1.55-.4q3.05-1 7-3.05h.05l3.65-2.05.45-.35.75-.45q-2.1 2.75-4.6 4.8l-1.2.95-2.45 1.5-3.35 1.5h-.05l-.05.05q1.1.7 2.65.75l2.1-.25 2.1-.5q1.95-.65 4.25-1.85l4.15-2.15 8-4.35 3.9-2.15q14.05-8.1 26.2-16.25 17.15-11 18.35-15.7" fill="#831b00" fill-rule="evenodd" transform="translate(1.05 1.4)"/><path d="M85.75 5.95q-10 8.7-22.8 16.4Q50.6 30.15 41.2 35.4l-.4.3-1.25-4.3q5.3-3.25 3.95-7.05-1.85-5.45-9.35-9.8 8.7-4.05 19.6-8.4 33.8-7.2 32-.2" fill="#dc8303" fill-rule="evenodd" transform="translate(1.05 1.4)"/><path d="m40.8 35.7.4-.3q9.4-5.25 21.75-13.05 12.8-7.7 22.8-16.4-1.2 4.7-18.35 15.7Q55.25 29.8 41.2 37.9l-.4-2.2" fill="#bfff00" fill-rule="evenodd" transform="translate(1.05 1.4)"/><path d="M53.75 6.15q-10.9 4.35-19.6 8.4-4.7 2.15-8.65 4.25l-3.25-.55v-.05q4.35-2.25 9.85-4.75 5.1-2.4 11.3-5l10.35-2.3" fill="#fef8ab" fill-rule="evenodd" transform="translate(1.05 1.4)"/><path d="M34.15 14.55q7.5 4.35 9.35 9.8 1.35 3.8-3.95 7.05l-1.05-2.35-1.15-2.1L27 19.15l-1.5-.35q3.95-2.1 8.65-4.25m-12 3.7.1-.05v.05h-.1" fill="#fed201" fill-rule="evenodd" transform="translate(1.05 1.4)"/><path d="m39.55 31.4 1.25 4.3-16.1 8.8q-4.25 2.4-7.2 2.35l2.45-1.5 1.2-.95q2.5-2.05 4.6-4.8l-.75.45-.45.35-3.65 2.05v-.05l-.05.05q-3.95 2.05-7 3.05l-1.55.4-.95.15H11q-4.1.6-6.4-1.35-.65-.65-.85-1.35l-.1-1.45v-.05l.05-.15q.15-.8.65-1.55l.75-1.3 1.1-1.3.45-.45.1-.1h.05l6.2-6.05Q14.2 30 15.55 29v-.05q-.05-.45-3.7 1.1Q8.2 31.6 5 34.75q-.95-.45-1.45-1l3.8-3.65q.55 1.15 2.55.55 1.85-.7 4.15-2.2l4.25-2.75q1.95-1.1 1.3-2.3-.3-.5-1.1-.85 3.2-1.85 7-3.75l1.5.35 10.35 7.8 1.15 2.1 1.05 2.35M7.8 26.75l-.1.2-.05-.05.15-.15m11.75 3q-3.7-.05-7.3 2.55-3.3 2.55-4.85 5.7-1.5 3.2-.6 5.1 1 1.85 4.1.8 2.95-.95 6.55-3.5 3.9-2.5 5.8-4.85 1.75-2.4.9-4.15-.8-1.75-4.6-1.65" fill="#464646" fill-rule="evenodd" transform="translate(1.05 1.4)"/><path d="m22.25 18.25 3.25.55q-3.8 1.9-7 3.75-6.9 3.95-11.15 7.55l-3.8 3.65q-.65-.6-.65-1.4.1-.7.65-1.55l.4-.55L5.4 28.7l2.05-1.65.2-.15.05.05.1-.2q2.9-2.25 7.4-4.8 3.05-1.75 6.95-3.7h.1m-5.2 15q.7.7-.35 2.2-1.05 1.4-3.05 2.7-2.05 1.35-3.3 2.7-1.15 1.25-1.85.55-.65-.7 0-2.4.7-1.75 2.25-3.5 1.5-1.8 3.6-2.4l2.7.15" fill="#f0f0f0" fill-rule="evenodd" transform="translate(1.05 1.4)"/><path d="M7.35 30.1q4.25-3.6 11.15-7.55.8.35 1.1.85.65 1.2-1.3 2.3l-4.25 2.75q-2.3 1.5-4.15 2.2-2 .6-2.55-.55m12.2-.35q3.8-.1 4.6 1.65.85 1.75-.9 4.15-1.9 2.35-5.8 4.85-3.6 2.55-6.55 3.5-3.1 1.05-4.1-.8-.9-1.9.6-5.1 1.55-3.15 4.85-5.7 3.6-2.6 7.3-2.55m1.3 12.7.05-.05v.05h-.05m-3.8-9.2-2.7-.15q-2.1.6-3.6 2.4Q9.2 37.25 8.5 39q-.65 1.7 0 2.4.7.7 1.85-.55 1.25-1.35 3.3-2.7 2-1.3 3.05-2.7 1.05-1.5.35-2.2" fill="#949494" fill-rule="evenodd" transform="translate(1.05 1.4)"/><path d="m40.8 35.7.4 2.2-3.9 2.15-8 4.35-4.15 2.15q-2.3 1.2-4.25 1.85l-2.1.5-2.1.25q-1.55-.05-2.65-.75l.05-.05h.05l3.35-1.5q2.95.05 7.2-2.35l16.1-8.8" fill="#abb046" fill-rule="evenodd" transform="translate(1.05 1.4)"/><path d="m39.55 31.4 1.25 4.3.4 2.2M22.25 18.25l3.25.55 1.5.35 10.35 7.8 1.15 2.1 1.05 2.35m-17.3-13.15h-.1" fill="none" stroke="#831b00" stroke-linecap="round" stroke-linejoin="round" transform="translate(1.05 1.4)"/></g><g id="e"><path d="m53.65.15.6-.15.65.1 12.05 5q.4.15.6.55l.25.8-.3.85-45.25 58.45q-3.95 5.9-7.4 7.8-3.45 2-6.35.25-1.15.8-2.05.65l-.2-.05q-7.4-1.9-5.7-10.25l-.5-3.75q-1.1-15.55 14.3-31.65 13.3-14.1 39.3-28.6M32.5 47.85q-5.95-14.2-11.55-17.55-1.65-.95-3.2-1.05 1.55.1 3.2 1.05 5.6 3.35 11.55 17.55" fill="#831b00" fill-rule="evenodd" transform="translate(1.05 1.05)"/><path d="M54.7 1.2q-26 14.5-39.3 28.6Q0 45.9 1.1 61.45l.5 3.75q-1.7 8.35 5.7 10.25l.2.05q.9.15 2.05-.65 2.9 1.75 6.35-.25 3.45-1.9 7.4-7.8L68.55 8.35l.3-.85-.25-.8q-.2-.4-.6-.55l-12.05-5-.65-.1-.6.15M18.8 30.3q1.55.1 3.2 1.05 5.6 3.35 11.55 17.55" fill="none" stroke="#831b00" stroke-linecap="round" stroke-linejoin="round" stroke-width="2.1"/><path d="m56.8 4-2.35-1q-13.05 7.3-22.8 14.45-4.7 3.45-8.65 6.9l-.5.45q-2.55 2.25-4.75 4.45L16.4 30.7v.05q-3.45 3.6-6.05 7.2Q5.75 44.4 4 50.7q-.85 2.95-1.05 5.9Q5 52.5 8.2 48.85l-1.25 2.5q-1.45 2.7-2.2 5.55l-.9 3.85-.3 2.35-.15 1.3v.05l-.05.1-.05.3q-.55 2.85.4 4.5l.35.45.15.2.15.15.15.1.05.05.1.1.1.1.15.1.35.2.2.1.9.3.95-.05.25-.25L10 67.85q4.4-5.6 7.75-11.5l-.1.85Q13.4 67.65 10.6 71.6q1.3.35 2.85-.5 2.95-1.75 6.5-7.05L20 64l12.5-16.15 31.6-40.8L56.8 4M.55 64.15l-.5-3.75q-1.1-15.55 14.3-31.65 13.3-14.1 39.3-28.6l.6-.15.65.1 12.05 5q.4.15.6.55l.25.8-.3.85-45.25 58.45q-3.95 5.9-7.4 7.8-3.45 2-6.35.25-1.15.8-2.05.65l-.2-.05q-7.4-1.9-5.7-10.25" fill="#831b00" fill-rule="evenodd" transform="translate(1.05 1.05)"/><path d="M23 24.35q3.95-3.45 8.65-6.9Q41.4 10.3 54.45 3l2.35 1q-13.15 8.1-23.3 15.85-5.65 4.3-10.35 8.45l-2.2 2q-1.65-.95-3.2-1.05 2.2-2.2 4.75-4.45l.2.2.3-.65" fill="#fef8ab" fill-rule="evenodd" transform="translate(1.05 1.05)"/><path d="m56.8 4 7.3 3.05-31.6 40.8q-5.95-14.2-11.55-17.55l2.2-2q.8.4 1.95-.9 1.4-1.65 4.55-3.9 3.25-2.2 3.75-3.4l.1-.25Q43.65 12.1 56.8 4M22.5 24.8l.5-.45-.3.65-.2-.2" fill="#e08f00" fill-rule="evenodd" transform="translate(1.05 1.05)"/><path d="m33.5 19.85-.1.25q-.5 1.2-3.75 3.4-3.15 2.25-4.55 3.9-1.15 1.3-1.95.9 4.7-4.15 10.35-8.45" fill="#fce503" fill-rule="evenodd" transform="translate(1.05 1.05)"/><path d="m3.3 64.85.05-.3.05-.1v-.05l.15-1.3.3-2.35.9-3.85q.75-2.85 2.2-5.55l1.25-2.5Q5 52.5 2.95 56.6q.2-2.95 1.05-5.9 3.65-6.65 10.2-13.65l-.05-.05h.05q2.6.75 1.3 5.05L12.15 52.4Q10.1 58.5 9.4 63.2q-.65 4.65-3.35 3.9-1.5-.4-2.75-2.25m6.6-13.7q-1.4-.35-2.8 1.1-1.35 1.35-2 3.6-.55 2.4-.05 4.35.5 1.85 1.9 2.2 1.3.4 2.1-.95.8-1.45 1.15-3.75l.75-4.2q.35-1.9-1.05-2.35" fill="#949494" fill-rule="evenodd" transform="translate(1.05 1.05)"/><path d="M32.5 47.85 20 64l-.05.05q-3.55 5.3-6.5 7.05-1.55.85-2.85.5 2.8-3.95 7.05-14.4l.1-.85q-3.35 5.9-7.75 11.5L7.55 70.9l-.25.25-.95.05-.9-.3-.2-.1-.35-.2-.15-.1-.1-.1-.1-.1-.05-.05-.15-.1L4.2 70l-.15-.2-.35-.45q-.95-1.65-.4-4.5 1.25 1.85 2.75 2.25 2.7.75 3.35-3.9.7-4.7 2.75-10.8l3.35-10.35q1.3-4.3-1.3-5.05 3.05-3.3 6.75-6.7 5.6 3.35 11.55 17.55" fill="#646265" fill-rule="evenodd" transform="translate(1.05 1.05)"/><path d="M4 50.7q1.75-6.3 6.35-12.75 2.6-3.6 6.05-7.2v-.05l1.35-1.45q1.55.1 3.2 1.05-3.7 3.4-6.75 6.7h-.05l.05.05Q7.65 44.05 4 50.7m5.9.45q1.4.45 1.05 2.35l-.75 4.2q-.35 2.3-1.15 3.75-.8 1.35-2.1.95-1.4-.35-1.9-2.2-.5-1.95.05-4.35.65-2.25 2-3.6 1.4-1.45 2.8-1.1" fill="#ececec" fill-rule="evenodd" transform="translate(1.05 1.05)"/><path d="M20.95 30.3q5.6 3.35 11.55 17.55m-14.75-18.6q1.55.1 3.2 1.05" fill="none" stroke="#831b00" stroke-linecap="round" stroke-linejoin="round" transform="translate(1.05 1.05)"/></g><g id="f"><path d="m40.35 9.75.65.2Q52.6 6.2 61.45 3.9 81.7-1.5 87.2.55q8.45 3.1-17.75 23.6-17.95 15.2-41.35 30.9l-.05.05q-5.6 3.6-9.5 3.9-3.9.25-6.3-2.35-5.05 1.1-8.15-1.4H4Q1.45 53.15 1.75 50q.05-1.8 1.3-3.95l.15-.25.05-.1.15-.25-1.35-.65Q-.2 43.35 0 40.95q-.15-3.1 4.8-7.9 4.45-4.3 13.35-10.1 8.7-5.75 21.6-12.95.25-.2.6-.25m1.15 32.6-.65-2.15-1.7-4.15-1.25-2.2-1.4-1.95-11.1-6.7-1.55-.2-3.3-.2 3.3.2 1.55.2 11.1 6.7 1.4 1.95 1.25 2.2 1.7 4.15.65 2.15m-38.75-1.4q.1.75.8 1.35.6.45 1.6.8 2.9-3.45 6.35-5.4 3.3-1.85 3.5-1.5v-.05q-.1-.45-3.5 1.5-3.45 1.95-6.35 5.4-1-.35-1.55-.85-.7-.55-.8-1.3l.5-1.6q-.5.9-.55 1.65" fill="#831b00" fill-rule="evenodd" transform="translate(.5 .5)"/><path d="M40.35 9.75q-.35.05-.6.25-12.9 7.2-21.6 12.95-8.9 5.8-13.35 10.1-4.95 4.8-4.8 7.9-.2 2.4 2.05 3.85l1.35.65-.15.25-.05.1-.15.25Q1.8 48.2 1.75 50q-.3 3.15 2.25 5.25h.1q3.1 2.5 8.15 1.4 2.4 2.6 6.3 2.35 3.9-.3 9.5-3.9l.05-.05q23.4-15.7 41.35-30.9Q95.65 3.65 87.2.55 81.7-1.5 61.45 3.9 52.6 6.2 41 9.95l-.65-.2M20.55 24.8l3.3.2 1.55.2 11.1 6.7 1.4 1.95 1.25 2.2 1.7 4.15.65 2.15m-38.75-1.4q.05-.75.55-1.65l-.5 1.6q.1.75.8 1.3.55.5 1.55.85 2.9-3.45 6.35-5.4 3.4-1.95 3.5-1.5v.05q-.2-.35-3.5 1.5-3.45 1.95-6.35 5.4-1-.35-1.6-.8-.7-.6-.8-1.35z" fill="none" stroke="#831b00" stroke-linecap="round" stroke-linejoin="round" transform="translate(.5 .5)"/><path d="M50.65 9.45Q83.5-1.25 82.45 5.9 73.4 15.6 61.5 24.6q-11.45 9.05-20.25 15.3l-.4.3-1.7-4.15q4.95-3.75 3.25-7.4Q39.9 23.4 32 19.9q8.25-4.95 18.65-10.45" fill="#dc8303" fill-rule="evenodd" transform="translate(.5 .5)"/><path d="M82.45 5.9q-.7 4.75-16.6 17.55Q54.6 32.8 41.5 42.35l-.65-2.15.4-.3q8.8-6.25 20.25-15.3 11.9-9 20.95-18.7" fill="#bfff00" fill-rule="evenodd" transform="translate(.5 .5)"/><path d="M41.5 42.35q13.1-9.55 24.35-18.9 15.9-12.8 16.6-17.55 1.05-7.15-31.8 3.55l-10.1 3.4q-5.85 3.2-10.7 6.15-5.15 3.05-9.3 5.75l-.1.05-6.5 4.45q-4.2 3-6.85 5.55l-.15.15-.2.15L4.9 37l-1.25 1.7-.35.6q-.5.9-.55 1.65.1.75.8 1.35.6.45 1.6.8 2.9-3.45 6.35-5.4 3.3-1.85 3.5-1.5l-2.3 2.25-5.55 6.6-.05.1-.05.1-.4.5-.95 1.4-.65 1.35q-.4.8-.45 1.6l-.05.15v.05l.25 1.4 1 1.25q2.5 1.75 6.5.75l.35-.05.95-.3 1.45-.55q3-1.3 6.7-3.75h.05l3.4-2.45.45-.4.65-.5q-1.75 2.95-4.05 5.25L21.15 52l-2.25 1.8-3.25 1.85h-.05v.05l2.75.45 2.05-.45 2-.75q1.85-.85 4.05-2.3l3.9-2.55 7.5-5.2 3.65-2.55M61.45 3.9Q81.7-1.5 87.2.55q8.45 3.1-17.75 23.6-17.95 15.2-41.35 30.9l-.05.05q-5.6 3.6-9.5 3.9-3.9.25-6.3-2.35-5.05 1.1-8.15-1.4H4Q1.45 53.15 1.75 50q.05-1.8 1.3-3.95l.15-.25.05-.1.15-.25-1.35-.65Q-.2 43.35 0 40.95q-.15-3.1 4.8-7.9 4.45-4.3 13.35-10.1 8.7-5.75 21.6-12.95.25-.2.6-.25l.65.2Q52.6 6.2 61.45 3.9" fill="#831b00" fill-rule="evenodd" transform="translate(.5 .5)"/><path d="m3.3 39.3.35-.6L4.9 37l1.85-1.9.2-.15L7 35l.1-.2q2.65-2.55 6.85-5.55l6.5-4.45h.1l3.3.2-6.55 4.5Q10.85 34.15 7 38.2q-2.05 2.1-3.4 4-.7-.55-.8-1.3l.5-1.6m13.7 1q.75.6-.1 2.2-.9 1.5-2.8 3.05-1.9 1.55-3 3-1 1.35-1.75.75-.7-.65-.25-2.4.5-1.85 1.85-3.75 1.3-1.9 3.3-2.7L17 40.3" fill="#f0f0f0" fill-rule="evenodd" transform="translate(.5 .5)"/><path d="m20.45 24.8.1-.05v.05h-.1m3.4.2q3.75-2.5 8.15-5.1 7.9 3.5 10.4 8.75 1.7 3.65-3.25 7.4l-1.25-2.2-1.4-1.95-11.1-6.7-1.55-.2" fill="#fed201" fill-rule="evenodd" transform="translate(.5 .5)"/><path d="M20.55 24.75q4.15-2.7 9.3-5.75 4.85-2.95 10.7-6.15l10.1-3.4Q40.25 14.95 32 19.9q-4.4 2.6-8.15 5.1l-3.3-.2v-.05" fill="#fef8ab" fill-rule="evenodd" transform="translate(.5 .5)"/><path d="m18.9 53.8 2.25-1.8 1.1-1.05q2.3-2.3 4.05-5.25l-.65.5-.45.4-3.4 2.45-.05-.05v.05q-3.7 2.45-6.7 3.75l-1.45.55-.95.3-.35.05q-4 1-6.5-.75l-1-1.25-.25-1.4v-.05l.05-.15q.05-.8.45-1.6l.65-1.35.95-1.4.4-.5.05-.1.05-.1 5.55-6.6L15 36.2v-.05q-.1-.45-3.5 1.5-3.45 1.95-6.35 5.4-1-.35-1.55-.85 1.35-1.9 3.4-4 .7 1.05 2.6.25 1.75-.85 3.9-2.65l3.95-3.15q1.8-1.3 1.05-2.4-.35-.5-1.2-.75l6.55-4.5 1.55.2 11.1 6.7 1.4 1.95 1.25 2.2 1.7 4.15L25.8 50.65q-4 2.85-6.9 3.15M6.95 34.95l.15-.15-.1.2-.05-.05M19.1 36.5q-3.7.4-7 3.35-3 2.85-4.2 6.2-1.2 3.3-.05 5.1 1.2 1.7 4.15.35 2.8-1.25 6.15-4.15 3.6-2.9 5.2-5.45 1.55-2.55.5-4.2-1-1.7-4.75-1.2" fill="#464646" fill-rule="evenodd" transform="translate(.5 .5)"/><path d="M21.8 49.05h-.05V49l.05.05M7 38.2q3.85-4.05 10.3-8.7.85.25 1.2.75.75 1.1-1.05 2.4L13.5 35.8q-2.15 1.8-3.9 2.65-1.9.8-2.6-.25m10 2.1-2.75.15q-2 .8-3.3 2.7-1.35 1.9-1.85 3.75-.45 1.75.25 2.4.75.6 1.75-.75 1.1-1.45 3-3t2.8-3.05q.85-1.6.1-2.2m2.1-3.8q3.75-.5 4.75 1.2 1.05 1.65-.5 4.2-1.6 2.55-5.2 5.45-3.35 2.9-6.15 4.15-2.95 1.35-4.15-.35-1.15-1.8.05-5.1 1.2-3.35 4.2-6.2 3.3-2.95 7-3.35" fill="#949494" fill-rule="evenodd" transform="translate(.5 .5)"/><path d="m41.5 42.35-3.65 2.55-7.5 5.2-3.9 2.55q-2.2 1.45-4.05 2.3l-2 .75-2.05.45-2.75-.45v-.05h.05l3.25-1.85q2.9-.3 6.9-3.15L40.85 40.2l.65 2.15" fill="#abb046" fill-rule="evenodd" transform="translate(.5 .5)"/><path d="m40.85 40.2.65 2.15M20.55 24.8h-.1m3.4.2-3.3-.2m3.3.2 1.55.2 11.1 6.7 1.4 1.95 1.25 2.2 1.7 4.15" fill="none" stroke="#831b00" stroke-linecap="round" stroke-linejoin="round" transform="translate(.5 .5)"/></g><g id="g"><path d="m18.3 26.5-.15.7-.05.25-.45 1.6q-1.05.4-2.05 1-2.6 1.45-4.15 2.65Q5.1 38 5.5 49.55 5.7 55.7 5.15 62q10.8 5.9 20.4 5.3 9.6-.55 17.95-7.55-2.15-8.4-2.9-16-.75-7.4-5.95-11l-.05-.05q-3.5-2.8-6.95-3.85-1.95-.65-3.75-.75l.75-.3.85-1.85q5.25.75 10.5 5 6.05 4.1 6.9 12.55.7 7.85 3.05 16.45V60l2.2 5.85v.75l-.45.6q-7.4 4.85-15.25 6.9l-.85-.9-.3-.25.4-.15q7.45-2.2 14.05-7l-1.45-3.9Q27.2 71.4 6.85 65l-2.3-.75-1.9 5.7q8.55 3.65 16.5 4.15l-.85 1.4Q9.75 75.05.75 71.65q-.45-.2-.6-.6-.25-.45-.05-.85l2.65-7.65q.7-6.5.45-12.95-.4-12.85 6.85-18.65v-.05q4.15-3.25 8.25-4.4l-.15.7.15-.7" fill="#831b00" fill-rule="evenodd" transform="translate(0 2)"/><path d="M17.4.1q-2.1.45-3.3 2.95Q15.3.55 17.4.1q2.05.15 5.3 2 8.55 4.85 5.1 17.55l-2.3 6.3-.85 1.85-1.55.55 1.55-.55-.75.3-.8.25L18.25 30l-.95.3.35-1.25-.35 1.25h-.05l.4-1.25.45-1.6.05-.25.15-.7.1-.55.1-.45q2.3-11.05-2.65-15.4l-1.3-.95-.1-.5q-.7-3.55-.35-5.6Q14.55-.1 17.4.1m-1.55 10-1.4-1.45 1.4 1.45m8.65-3.8q-1.45-1.25-2.85-.85-1.45.4-1.45 2-.05 1.55 1 3.6l1.4 3.8q.45 1.7 1.9 1.3 1.4-.4 1.95-2.3.65-1.75 0-3.95-.55-2.2-1.95-3.6m.9 11.5q-.7-.9-1.65-.9-1 0-1.7.9-.7.95-.7 2.25 0 1.35.7 2.25.7.95 1.7.95.95 0 1.65-.95.75-.9.75-2.25 0-1.3-.75-2.25" fill="#e16b0b" fill-rule="evenodd" transform="translate(0 2)"/><path d="M24.5 6.3q1.4 1.4 1.95 3.6.65 2.2 0 3.95-.55 1.9-1.95 2.3-1.45.4-1.9-1.3l-1.4-3.8q-1.05-2.05-1-3.6 0-1.6 1.45-2 1.4-.4 2.85.85m.9 11.5q.75.95.75 2.25 0 1.35-.75 2.25-.7.95-1.65.95-1 0-1.7-.95-.7-.9-.7-2.25 0-1.3.7-2.25.7-.9 1.7-.9.95 0 1.65.9" fill="#f9992b" fill-rule="evenodd" transform="translate(0 2)"/><path d="m17.3 30.3.95-.3-.6 1-.8-.35q-12.1 13.9-4.1 27.95 5.75 7.3 12.8 8.7-9.6.6-20.4-5.3.55-6.3.35-12.45Q5.1 38 11.45 32.7q1.55-1.2 4.15-2.65 1-.6 2.05-1l-.4 1.25h.05M6.85 65q20.35 6.4 37.45-3.1l1.45 3.9q-6.6 4.8-14.05 7 1.8-2.25-1.2-2.7-20.25-.2-23.65-5.1m24.45 7.95.3.25.85.9Q34 75.95 34 78.4l-.3 1.95q-1.45-1.65-2.85-2.3l-.1-.1q-.8-.8-2-.8-1.15 0-2 .8l-.35.45-.2.15Q23.5 82 24.6 85.6q-2.25-.25-4-1.6l-.6-.5q-2.35-2.1-2.35-5.1 0-1.55.65-2.9l.85-1.4.85-.9q2.4-2.1 5.8-2.1 3.15 0 5.5 1.85m-15.7-42.9 1.25.6-1.25-.6" fill="#ae5408" fill-rule="evenodd" transform="translate(0 2)"/><path d="m18.25 30 4.85-1.65.8-.25q1.8.1 3.75.75 3.45 1.05 6.95 3.85l.05.05q5.2 3.6 5.95 11 .75 7.6 2.9 16-8.35 7-17.95 7.55-7.05-1.4-12.8-8.7-8-14.05 4.1-27.95l.8.35.6-1m.9 44.1q-7.95-.5-16.5-4.15l1.9-5.7 2.3.75q3.4 4.9 23.65 5.1 3 .45 1.2 2.7l-.4.15q-2.35-1.85-5.5-1.85-3.4 0-5.8 2.1l-.85.9m7.5-39.8q-3.7 0-6.35 3.4-2.55 3.45-2.55 8.3 0 4.85 2.55 8.25 2.65 3.45 6.35 3.45h.55q.4 1.2 1.4 2.25 1.8 1.75 4.2 1.75 2.45 0 4.25-1.75 1.75-1.8 1.75-4.25 0-2.4-1.75-4.2-1-.95-2.05-1.35.5-1.95.5-4.15 0-4.85-2.6-8.3-2.6-3.4-6.25-3.4m1-5.45q-4.3 4.25-10 2.15 5.7 2.1 10-2.15" fill="#df6d0d" fill-rule="evenodd" transform="translate(0 2)"/><path d="M26.65 34.3q3.65 0 6.25 3.4 2.6 3.45 2.6 8.3 0 2.2-.5 4.15 1.05.4 2.05 1.35 1.75 1.8 1.75 4.2 0 2.45-1.75 4.25-1.8 1.75-4.25 1.75-2.4 0-4.2-1.75-1-1.05-1.4-2.25h-.55q-3.7 0-6.35-3.45-2.55-3.4-2.55-8.25t2.55-8.3q2.65-3.4 6.35-3.4m-4.55 9.9q0 2.1 1.45 3.55 1.55 1.55 3.65 1.55 2.1 0 3.6-1.55 1.5-1.45 1.5-3.55 0-2.1-1.5-3.65-1.5-1.5-3.6-1.5t-3.65 1.5Q22.1 42.1 22.1 44.2" fill="#fb9f30" fill-rule="evenodd" transform="translate(0 2)"/><path d="M22.1 44.2q0-2.1 1.45-3.65 1.55-1.5 3.65-1.5 2.1 0 3.6 1.5 1.5 1.55 1.5 3.65 0 2.1-1.5 3.55-1.5 1.55-3.6 1.55t-3.65-1.55Q22.1 46.3 22.1 44.2" fill="#fefefc" fill-rule="evenodd" transform="translate(0 2)"/><path d="M26.4 78.4q-.45.7-.45 1.6 0 1.2.8 2 .85.85 2 .85 1.2 0 2-.85.85-.8.85-2 0-1.15-.75-1.95 1.4.65 2.85 2.3-.5 1.8-2.1 3.15-2.4 2.15-5.8 2.15l-1.2-.05q-1.1-3.6 1.6-7.05l.2-.15" fill="#ef8927" fill-rule="evenodd" transform="translate(0 2)"/><path d="M30.85 78.05q.75.8.75 1.95 0 1.2-.85 2-.8.85-2 .85-1.15 0-2-.85-.8-.8-.8-2 0-.9.45-1.6l.35-.45q.85-.8 2-.8 1.2 0 2 .8l.1.1" fill="#fde9d1" fill-rule="evenodd" transform="translate(0 2)"/><path d="M14.1 5.05q1.2-2.5 3.3-2.95 2.65-.6 6.75 2.05 7.4 4.8 3.65 17.5l-2.3 6.3-.85 1.85-1.55.55L18.25 32l-.95.3.35-1.25.45-1.6.05-.25.15-.7.1-.55.1-.45q1.85-9.85-2.65-15.4l-1.4-1.45-1.6-1.3q.4-2.65 1.25-4.3m17.2 69.9.3.25.85.9Q34 77.95 34 80.4l-.3 1.95q-.5 1.8-2.1 3.15-2.4 2.15-5.8 2.15l-1.2-.05q-2.25-.25-4-1.6l-.6-.5q-2.35-2.1-2.35-5.1 0-1.55.65-2.9l.85-1.4.85-.9q2.4-2.1 5.8-2.1 3.15 0 5.5 1.85m-14.45-42.3-1.25-.6m1.25.6.8.35q5.7 2.1 10-2.15" fill="none" stroke="#831b00" stroke-linecap="round" stroke-linejoin="round" stroke-width="4"/><path d="M33.7 80.35q-4-4.45-7.5-1.8-2.7 3.45-1.6 7.05-2.25-.25-4-1.6l-.6-.5q-2.35-2.1-2.35-5.1 0-3 2.35-5.2 2.4-2.1 5.8-2.1t5.8 2.1q2.4 2.2 2.4 5.2l-.3 1.95" fill="#ae5408" fill-rule="evenodd" transform="translate(0 2)"/><path d="M24.6 85.6q-1.1-3.6 1.6-7.05 3.5-2.65 7.5 1.8-.5 1.8-2.1 3.15-2.4 2.15-5.8 2.15l-1.2-.05" fill="#ef8927" fill-rule="evenodd" transform="translate(0 2)"/><path d="m33.7 82.35.3-1.95q0-3-2.4-5.2-2.4-2.1-5.8-2.1T20 75.2q-2.35 2.2-2.35 5.2T20 85.5l.6.5q1.75 1.35 4 1.6l1.2.05q3.4 0 5.8-2.15 1.6-1.35 2.1-3.15z" fill="none" stroke="#831b00" stroke-linecap="round" stroke-linejoin="round" stroke-width="2"/><path d="M26.75 82q-.8-.8-.8-2t.8-2.05q.85-.8 2-.8 1.2 0 2 .8.85.85.85 2.05 0 1.2-.85 2-.8.85-2 .85-1.15 0-2-.85" fill="#fde9d1" fill-rule="evenodd" transform="translate(0 2)"/><path d="m24.65 27.8-7.4 2.5q5-16.45-2.7-21.15Q11.7-4.2 22.7 2.1q11.05 6.25 1.95 25.7" fill="#e16b0b" fill-rule="evenodd" transform="translate(0 2)"/><path d="M24.15 4.15q9.6 6.2.5 25.65l-7.35 2.5q5-16.4-4.45-22.95 1.7-11.35 11.3-5.2z" fill="none" stroke="#831b00" stroke-linecap="round" stroke-linejoin="round" stroke-width="2"/><path d="M20.2 7.45q0-1.6 1.45-2 1.4-.4 2.85.85 1.4 1.4 1.95 3.6.65 2.2 0 3.95-.55 1.9-1.95 2.3-1.45.4-1.9-1.3l-1.4-3.8q-1.05-2.05-1-3.6m3.55 9.45q.95 0 1.65.9.75.95.75 2.25 0 1.35-.75 2.25-.7.95-1.65.95-1 0-1.7-.95-.7-.9-.7-2.25 0-1.3.7-2.25.7-.9 1.7-.9" fill="#f9992b" fill-rule="evenodd" transform="translate(0 2)"/><path d="M10.05 30.95v-.05Q23.2 20.6 36 30.95q6.05 4.1 6.9 12.55.7 7.85 3.05 16.45V60l2.2 5.85v.75l-.45.6Q26.15 81.25.75 71.65q-.45-.2-.6-.6-.25-.45-.05-.85l2.65-7.65q.7-6.5.45-12.95-.4-12.85 6.85-18.65m8.95-2.4q-1.75.5-3.4 1.5-2.6 1.45-4.15 2.65Q5.1 38 5.5 49.55 5.7 55.7 5.15 62q10.8 5.9 20.4 5.3 9.6-.55 17.95-7.55-2.15-8.4-2.9-16-.75-7.4-5.95-11l-.05-.05q-3.5-2.8-6.95-3.85l-8.65-.3M6.85 65l-2.3-.75-1.9 5.7Q18.2 76.6 31.7 72.8q7.45-2.2 14.05-7l-1.45-3.9Q27.2 71.4 6.85 65" fill="#831b00" fill-rule="evenodd" transform="translate(0 2)"/><path d="m16.85 30.65-1.25-.6 1.25.6q-12.1 13.9-4.1 27.95 5.75 7.3 12.8 8.7-9.6.6-20.4-5.3.55-6.3.35-12.45Q5.1 38 11.45 32.7q1.55-1.2 4.15-2.65 1.65-1 3.4-1.5L17.65 31l-.8-.35M6.85 65q20.35 6.4 37.45-3.1l1.45 3.9q-6.6 4.8-14.05 7 1.8-2.25-1.2-2.7-20.25-.2-23.65-5.1" fill="#ae5408" fill-rule="evenodd" transform="translate(0 2)"/><path d="m16.85 30.65.8.35L19 28.55l8.65.3q3.45 1.05 6.95 3.85l.05.05q5.2 3.6 5.95 11 .75 7.6 2.9 16-8.35 7-17.95 7.55-7.05-1.4-12.8-8.7-8-14.05 4.1-27.95M31.7 72.8q-13.5 3.8-29.05-2.85l1.9-5.7 2.3.75q3.4 4.9 23.65 5.1 3 .45 1.2 2.7m-4.05-43.95q-4.3 4.25-10 2.15 5.7 2.1 10-2.15" fill="#df6d0d" fill-rule="evenodd" transform="translate(0 2)"/><path d="m15.6 32.05 1.25.6.8.35q5.7 2.1 10-2.15" fill="none" stroke="#831b00" stroke-linecap="round" stroke-linejoin="round" stroke-width="2"/><path d="M27.2 57.7h-.55q-3.7 0-6.35-3.45-2.55-3.4-2.55-8.25t2.55-8.3q2.65-3.4 6.35-3.4 3.65 0 6.25 3.4 2.6 3.45 2.6 8.3 0 2.2-.5 4.15 1.05.4 2.05 1.35 1.75 1.8 1.75 4.2 0 2.45-1.75 4.25-1.8 1.75-4.25 1.75-2.4 0-4.2-1.75-1-1.05-1.4-2.25" fill="#fb9f30" fill-rule="evenodd" transform="translate(0 2)"/><path d="M27.2 49.3q-2.1 0-3.65-1.55-1.45-1.45-1.45-3.55 0-2.1 1.45-3.65 1.55-1.5 3.65-1.5 2.1 0 3.6 1.5 1.5 1.55 1.5 3.65 0 2.1-1.5 3.55-1.5 1.55-3.6 1.55" fill="#fefefc" fill-rule="evenodd" transform="translate(0 2)"/></g><g id="h"><path d="M47.85 159.95q-8.55-1.95-15.65-5.5l7.85 1.55q-20.95-11.8-28.9-30.45 2.2 1.45 3.65 1.45 3 0 4.45-2 1.6-2.1 1.6-6.65 0-5.55-1.6-10.2-2.15-6.4-6.45-6.4-2.35 0-5.2 3.65L6.45 107q-3.9-32.15 13.3-61.3Q27.2 33 33.9 24q6-5.4 13.05-10.35L82.1 11.5q-8.95 13.8-15.45 27l3.75-.25q16.5 0 28.05 18.15 11.2 17.6 13.25 42.25 2 24.7-11.85 46.8-5.75 9.15-16.65 13.85 7.2 1.25 15.95.1l-19.05 1.1-9.4-.4q-13.85-.95-30.65-4.1 3.7 2.05 7.8 3.95" fill="#fee801" fill-rule="evenodd" transform="translate(1.5 1.5)"/><path d="m138.3 8 10 11q7.95 8.65 14.35 21.05 6.45 12.4 11.45 25.75 4.95 13.35 5.7 31.8.75 18.4-9.7 33.4-10.5 14.95-33.75 23.85-23.3 8.9-58.45 9l-8-.8-8.85-1.15q-7-.55-13.2-1.95-4.1-1.9-7.8-3.95 16.8 3.15 30.65 4.1l9.4.4 19.05-1.1 3.4-.6q14.2-2.75 22.45-9.95 28.8-25.15 26.55-61.1-2.25-36-30.95-63.95-8.6-8.4-15.55-13.75L138.3 8" fill="#e39101" fill-rule="evenodd" transform="translate(1.5 1.5)"/><path d="m82.1 11.5 3.5-.25h.15l19.3-1.2Q112 15.4 120.6 23.8q28.7 27.95 30.95 63.95 2.25 35.95-26.55 61.1-8.25 7.2-22.45 9.95l-3.4.6q-8.75 1.15-15.95-.1 10.9-4.7 16.65-13.85 13.85-22.1 11.85-46.8Q109.65 74 98.45 56.4 86.9 38.25 70.4 38.25l-3.75.25q6.5-13.2 15.45-27" fill="#ffd200" fill-rule="evenodd" transform="translate(1.5 1.5)"/><path d="M32.2 154.45Q9.25 142.95 1.45 114.6-6.95 60.4 33.9 24q-6.7 9-14.15 21.7Q2.55 74.85 6.45 107l1.15-1.6q2.85-3.65 5.2-3.65 4.3 0 6.45 6.4 1.6 4.65 1.6 10.2 0 4.55-1.6 6.65-1.45 2-4.45 2-1.45 0-3.65-1.45Q19.1 144.2 40.05 156l-7.85-1.55" fill="#fef8ab" fill-rule="evenodd" transform="translate(1.5 1.5)"/><path d="m138.3 8 4.1-.25q18.95 14 36.4 60.9 12.4 37.6-4.55 62.75-23.6 30.05-70.75 32.8-12.05.7-25.6-.35 35.15-.1 58.45-9 23.25-8.9 33.75-23.85 10.45-15 9.7-33.4-.75-18.45-5.7-31.8-5-13.35-11.45-25.75-6.4-12.4-14.35-21.05l-10-11" fill="#bfff00" fill-rule="evenodd" transform="translate(1.5 1.5)"/><path d="M79.4 165.35q13.55 1.05 25.6.35 47.15-2.75 70.75-32.8 16.95-25.15 4.55-62.75-17.45-46.9-36.4-60.9l-4.1.25-33.25 2.05-19.3 1.2m-7.85 152.6-8-.8-8.85-1.15q-7-.55-13.2-1.95-8.55-1.95-15.65-5.5-22.95-11.5-30.75-39.85-8.4-54.2 32.45-90.6 6-5.4 13.05-10.35L83.6 13l3.5-.25" fill="none" stroke="#831b00" stroke-linecap="round" stroke-linejoin="round" stroke-width="3"/><path d="m138.3 8 4.1-.25q18.95 14 36.4 60.9 12.4 37.6-4.55 62.75-23.6 30.05-70.75 32.8-12.05.7-25.6-.35 35.15-.1 58.45-9 23.25-8.9 33.75-23.85 10.45-15 9.7-33.4-.75-18.45-5.7-31.8-5-13.35-11.45-25.75-6.4-12.4-14.35-21.05l-10-11" fill="#bfff00" fill-rule="evenodd" transform="translate(1.5 1.5)"/><path d="m138.3 8 10 11q7.95 8.65 14.35 21.05 6.45 12.4 11.45 25.75 4.95 13.35 5.7 31.8.75 18.4-9.7 33.4-10.5 14.95-33.75 23.85-23.3 8.9-58.45 9l-8-.8-8.85-1.15q-7-.55-13.2-1.95-4.1-1.9-7.8-3.95 16.8 3.15 30.65 4.1l9.4.4 19.05-1.1 3.4-.6q14.2-2.75 22.45-9.95 28.8-25.15 26.55-61.1-2.25-36-30.95-63.95-8.6-8.4-15.55-13.75L138.3 8" fill="#e39101" fill-rule="evenodd" transform="translate(1.5 1.5)"/><path d="m82.1 11.5 3.5-.25h.15l19.3-1.2Q112 15.4 120.6 23.8q28.7 27.95 30.95 63.95 2.25 35.95-26.55 61.1-8.25 7.2-22.45 9.95l-3.4.6q-8.75 1.15-15.95-.1 10.9-4.7 16.65-13.85 13.85-22.1 11.85-46.8Q109.65 74 98.45 56.4 86.9 38.25 70.4 38.25l-3.75.25q6.5-13.2 15.45-27" fill="#ffd200" fill-rule="evenodd" transform="translate(1.5 1.5)"/><path d="M47.85 159.95q-8.55-1.95-15.65-5.5l7.85 1.55q-20.95-11.8-28.9-30.45 2.2 1.45 3.65 1.45 3 0 4.45-2 1.6-2.1 1.6-6.65 0-5.55-1.6-10.2-2.15-6.4-6.45-6.4-2.35 0-5.2 3.65L6.45 107q-3.9-32.15 13.3-61.3Q27.2 33 33.9 24q6-5.4 13.05-10.35L82.1 11.5q-8.95 13.8-15.45 27l3.75-.25q16.5 0 28.05 18.15 11.2 17.6 13.25 42.25 2 24.7-11.85 46.8-5.75 9.15-16.65 13.85 7.2 1.25 15.95.1l-19.05 1.1-9.4-.4q-13.85-.95-30.65-4.1 3.7 2.05 7.8 3.95" fill="#fee801" fill-rule="evenodd" transform="translate(1.5 1.5)"/><path d="M32.2 154.45Q9.25 142.95 1.45 114.6-6.95 60.4 33.9 24q-6.7 9-14.15 21.7Q2.55 74.85 6.45 107l1.15-1.6q2.85-3.65 5.2-3.65 4.3 0 6.45 6.4 1.6 4.65 1.6 10.2 0 4.55-1.6 6.65-1.45 2-4.45 2-1.45 0-3.65-1.45Q19.1 144.2 40.05 156l-7.85-1.55" fill="#fef8ab" fill-rule="evenodd" transform="translate(1.5 1.5)"/><path d="M79.4 165.35q13.55 1.05 25.6.35 47.15-2.75 70.75-32.8 16.95-25.15 4.55-62.75-17.45-46.9-36.4-60.9l-4.1.25-33.25 2.05-19.3 1.2m-7.85 152.6-8-.8-8.85-1.15q-7-.55-13.2-1.95-8.55-1.95-15.65-5.5-22.95-11.5-30.75-39.85-8.4-54.2 32.45-90.6 6-5.4 13.05-10.35L83.6 13l3.5-.25" fill="none" stroke="#831b00" stroke-linecap="round" stroke-linejoin="round" stroke-width="3"/><path d="m42.45 31.85-5.9-3.2 15.7-13.4 88.65-11.4q3.85 1.2 10 9.35-25.05 24.25-64.8 24.55-5.6 21.9-15.45 42.95L60.2 66.6q-10.6 6.75-21.15 8-4.5-8.9-5.45-16.4l-13.65 2.5 3.4-5.35q7.8-11.75 19.1-23.5" fill-opacity=".349" fill-rule="evenodd" transform="translate(1.5 1.5)"/><path d="m38.05 28-5.9-3.2 15.7-13.4L136.5 0q3.85 1.2 10 9.35Q121.45 33.6 81.7 33.9q-5.6 21.9-15.45 42.95L55.8 62.75q-10.6 6.75-21.15 8-4.5-8.9-5.45-16.4l-13.65 2.5 3.4-5.35 11.4-1.45q.95 4.95 6.8 14.75 16.3-4.3 19.55-7.95l6.35 5.7q2.75 1.95 10.7-29.8Q68.2 28.35 56.7 28H38.05" fill="#656460" fill-rule="evenodd" transform="translate(1.5 1.5)"/><path d="M38.05 28H56.7q11.5.35 17.05 4.75-7.95 31.75-10.7 29.8l-6.35-5.7q-3.25 3.65-19.55 7.95-5.85-9.8-6.8-14.75l-11.4 1.45q7.8-11.75 19.1-23.5" fill="#949494" fill-rule="evenodd" transform="translate(1.5 1.5)"/><path d="m20.45 53-3.4 5.35 13.65-2.5q.95 7.5 5.45 16.4 10.55-1.25 21.15-8l10.45 14.1Q77.6 57.3 83.2 35.4q39.75-.3 64.8-24.55-6.15-8.15-10-9.35L49.35 12.9l-15.7 13.4 5.9 3.2Q28.25 41.25 20.45 53z" fill="none" stroke="#831b00" stroke-linecap="round" stroke-linejoin="round" stroke-width="3"/><path d="M43.05 35.15 37.2 44.5l5.15 8.3q3.1 7.7-2.65 5.15l-4.55-5.35-.3-.45q-4.75-5.85-5-7.75v-.45q2.4-4.8 9.75-11.35 5.65-3.1 3.45 2.55" fill="#d0d0d0" fill-rule="evenodd" transform="translate(1.5 1.5)"/><path d="M45.05 89.55q-1 1.95-4.9 5.45l.55 6.9q-.15 2.05-3 .6-2.9-1.5-5.2-1.9l-3.35.15-5.6 2.3q-1.5.25-1.4-1.05-.4-3.15-.4-6.8l-3.55-5q-2.15-2.75.25-3.15l7.55-1.9 3.7-5.55q1.25-1.7 2.95.7l3.9 5.2 7.05 1.05q2.9.45 1.45 3" fill="#f5a601" fill-rule="evenodd" transform="translate(1.5 1.5)"/><path d="M43.05 87.75q-.95 1.85-4.7 5.2l.5 6.6q-.1 1.9-2.8.55-2.75-1.45-4.95-1.8l-3.2.1-5.35 2.25q-1.35.15-1.4-1.05-.3-3-.3-6.45l-3.4-4.75q-2-2.65.25-3.05l7.2-1.8 3.5-5.25q1.15-1.6 2.85.65l3.7 4.9 6.7 1.05q2.75.4 1.4 2.85" fill="#e16a0c" fill-rule="evenodd" transform="translate(1.5 1.5)"/><path d="M20.85 93.7v-.55l-3.4-4.75-.65-1-.15-1.3-.05-.2q.25-.45 1.1-.55l7.2-1.8 3.5-5.25q1.15-1.6 2.85.65l3.7 4.9 2 .3.05.45q.3 4.25-2.5 7.4-2.7 3.25-6.95 3.55-3.75.3-6.7-1.85" fill="#f68d1a" fill-rule="evenodd" transform="translate(1.5 1.5)"/><path d="m36.45 85.5 6.7 1q2.75.4 1.4 2.85-1 1.85-4.7 5.15l.55 6.6q-.15 1.95-2.85.6-2.8-1.45-4.95-1.85l-3.2.2-5.35 2.15q-1.4.2-1.35-.95-.35-3.05-.35-6.5l-3.4-4.8q-2.05-2.6.25-3l7.2-1.8 3.55-5.3q1.15-1.6 2.75.7l3.75 4.95z" fill="none" stroke="#831b00" stroke-linecap="round" stroke-linejoin="round" stroke-width="1.5"/><path d="M30.65 91.3q-1.3 1.3-3.3 1.45-1.95.15-3.35-.95-1.45-1.1-1.6-2.8-.1-1.7 1.15-3t3.2-1.45q2-.15 3.45.95 1.45 1.1 1.55 2.8.15 1.7-1.1 3" fill="#ffd064" fill-rule="evenodd" transform="translate(1.5 1.5)"/><path d="M49.1 113.65q-.75 2.2-4.3 6.35l1.55 7.1q.15 2.15-3.05 1.1-3.2-1.15-5.6-1.25-2.55-.15-3.5.65l-5.5 3.15q-1.55.45-1.6-.85-.85-3.25-1.4-7.05l-4.4-4.7q-2.65-2.55-.2-3.3l7.6-3.1 3.05-6.25q1.05-1.95 3.15.3l4.85 4.85 7.45.1q3.05.05 1.9 2.9" fill="#f5a601" fill-rule="evenodd" transform="translate(1.5 1.5)"/><path d="M46.7 112.1q-.75 2.05-4.1 6.1l1.45 6.75q.15 2.05-2.9 1-3-1.1-5.35-1.2-2.4-.1-3.3.6l-5.25 3.05q-1.4.4-1.6-.8-.8-3.05-1.25-6.7l-4.2-4.4q-2.5-2.5-.2-3.25l7.25-2.95 2.9-5.95q.95-1.8 3.05.3l4.5 4.55 7.15.15q2.9.05 1.85 2.75" fill="#e16a0c" fill-rule="evenodd" transform="translate(1.5 1.5)"/><path d="m24.5 121.4-.1-.5-4.2-4.4-.85-1-.35-1.35v-.2q.15-.5 1-.7l7.25-2.95 2.9-5.95q.95-1.8 3.05.3l4.5 4.55 2.1.05.1.45q.95 4.4-1.45 8.05-2.4 3.75-6.75 4.7-3.9.8-7.2-1.05" fill="#f68d1a" fill-rule="evenodd" transform="translate(1.5 1.5)"/><path d="m39.3 110.8 7.1.1q2.9.05 1.8 2.75-.75 2.05-4.1 6.05l1.5 6.8q.15 2-2.9 1-3.1-1.1-5.4-1.2-2.35-.1-3.25.65l-5.25 3q-1.5.4-1.6-.85-.8-3.05-1.3-6.65l-4.2-4.5q-2.5-2.45-.2-3.15l7.25-2.95 2.95-6q.95-1.8 3 .3l4.6 4.65z" fill="none" stroke="#831b00" stroke-linecap="round" stroke-linejoin="round" stroke-width="1.5"/><path d="M34.35 117.55q-1.15 1.55-3.2 2-2 .45-3.65-.5t-2.05-2.65q-.35-1.75.75-3.3 1.15-1.55 3.15-2 2.05-.45 3.7.5 1.7.95 2.05 2.7.4 1.7-.75 3.25" fill="#ffd064" fill-rule="evenodd" transform="translate(1.5 1.5)"/><path d="M56.45 138.2q-.55 2-3.4 5.95l1.85 6.3q.3 1.85-2.65 1.15-3-.85-5.15-.75-2.25.1-3.05.85l-4.8 3.2q-1.3.5-1.5-.7-.95-2.8-1.65-6.2l-4.3-3.9q-2.5-2.1-.4-3l6.65-3.25 2.3-5.85q.8-1.8 2.8.1l4.7 4 6.7-.4q2.75-.2 1.9 2.5" fill="#f5a601" fill-rule="evenodd" transform="translate(1.5 1.5)"/><path d="M54.15 136.95q-.55 1.9-3.25 5.75l1.75 5.95q.25 1.75-2.5 1.05-2.85-.8-4.95-.7-2.15.05-2.95.75l-4.45 3.15q-1.2.4-1.5-.65l-1.6-5.95-4.05-3.7q-2.4-2.05-.4-2.85l6.3-3.1 2.25-5.55 2.7.05 4.4 3.75 6.4-.3q2.55-.2 1.85 2.35" fill="#e16a0c" fill-rule="evenodd" transform="translate(1.5 1.5)"/><path d="m34.85 146.8-.15-.5-4.05-3.7-.8-.8-.4-1.15-.05-.2q.1-.45.85-.7l6.3-3.1 2.25-5.55 2.7.05 4.4 3.75 1.85-.1.15.45q1.1 3.85-.8 7.3-1.85 3.45-5.7 4.6-3.45 1-6.55-.35" fill="#f68d1a" fill-rule="evenodd" transform="translate(1.5 1.5)"/><path d="m47.45 136.45 6.4-.35q2.6-.15 1.8 2.35-.5 1.9-3.25 5.7l1.75 6q.3 1.8-2.5 1.1-2.9-.8-4.9-.7-2.15.05-2.9.75l-4.55 3.05q-1.25.5-1.45-.6-.9-2.7-1.55-5.9l-4.1-3.75q-2.45-2-.4-2.8l6.3-3.15 2.2-5.55 2.7.05 4.45 3.8z" fill="none" stroke="#831b00" stroke-linecap="round" stroke-linejoin="round" stroke-width="1.5"/><path d="M43.4 142.7q-.9 1.45-2.7 1.95l-3.35-.15q-1.55-.75-2-2.3-.5-1.55.45-3 .95-1.5 2.7-2l3.35.2q1.55.75 2.05 2.3.45 1.55-.5 3" fill="#ffd064" fill-rule="evenodd" transform="translate(1.5 1.5)"/></g><g id="i"><path d="M1.7 29.55q-.85-2.6 2.95-7.1l.05-.05 4.35-3.85q9.25-7.5 22-12.25Q42.25 2 56.15.15q4.1-.3 7.7.75l.1-.1q33.1-5.5 14.25 27.75l-.35-.2Q75.9 31.9 72.6 35.3q-10.65 9.2-21.55 14.55-7.45 3.7-15 5.6-15.75 3.45-20.3-2.8-3.75.25-6.7-.95Q5 50.05 2.5 45.6l-.1-.25Q.55 39.4 4.55 33.9l.9-1.15-.65-.2-.1-.05-.45-.15Q2 31.4 1.7 29.55" fill="#831b00" fill-rule="evenodd"/><path d="M72.6 35.3q-10.65 9.2-21.55 14.55-7.45 3.7-15 5.6-15.75 3.45-20.3-2.8-3.75.25-6.7-.95Q5 50.05 2.5 45.6l-.1-.25Q.55 39.4 4.55 33.9l.9-1.15-.65-.2-.1-.05-.45-.15Q2 31.4 1.7 29.55" fill="none" stroke="#831b00" stroke-linecap="round" stroke-linejoin="round" stroke-width="3"/><path d="M76.55 27.65q.3-.55.9-.75l1.1.1-1.05 3.1q-.75 1.9-2.45 4.35-1.7 2.45-2.35 2.4-.7-.05-1.15-.45-.45-.45-.45-1.05 0-.65.45-1.1 3.1-3.25 5-6.6M61.15.45q3.35.55.8.55l-3.75.3-1.85.35Q42.65 3.45 31.6 7.7 19.05 12.35 10 19.75l-4.2 3.7-.05.05q-3.05 3.6-2.6 5.6.15.55-.1 1.15L2.2 31l-1.15-.1q-.6-.3-.75-.85-1.25-3.15 2.95-8.25.2-.6.75-.75 1.9-1.9 4.1-3.65 9.45-7.65 22.45-12.5h-.05Q42.15.85 49.95.4q7.8-.5 11.2.05" fill="#831b00" fill-rule="evenodd"/><path d="m63.85.9.1-.1q33.1-5.5 14.25 27.75l-.35-.2-1 .85q-13.9 9-24.55 14.4l1.1-4.45-.75-11.1-1.25-3.7Q47.2 11.1 37.55 8.2l-3.25-.65.15-.05 3.2.7q6.8-2.55 15-4.8L63.2 1.15l.55-.2.1-.05m-11.2 27.15-1.2-3.75Q47.2 11.1 37.65 8.2q9.55 2.9 13.8 16.1l1.2 3.75" fill="#e29101" fill-rule="evenodd"/><path d="M77.85 28.35Q75.9 31.9 72.6 35.3q-10.65 9.2-21.55 14.55-7.45 3.7-15 5.6-15.75 3.45-20.3-2.8-8.9.65-13.25-7.05l-.1-.25Q.55 39.4 4.55 33.9l.9-1.15-.65-.2-.1-.05-.45-.15Q2 31.4 1.7 29.55q-.85-2.6 2.95-7.1l.05-.05Q15.15 12.25 31.05 6.3 42.25 2 56.15.15q4.1-.3 7.7.75l-.1.05-.55.2L52.65 3.4l-16.6 3.55-.4.15-1.3.4-2.55.9q-1.85.7-3.55 1.5-12.5 5.55-20.85 13.2l-.35.3-.65.6q-2.65 2.45-2.5 4.55V29q.3.9 1.75 1.4l1.6.35 1.65-1.5 1.8-1.35 2.55-1.55 2.2-1.1q4.65-2.1 7.2-2.9L15.5 27.4l-2.05 1.35-.15.1q-2.85 1.9-4.8 3.9l-.15.15-1.6 1.9-1.25 1.85-1.3 3.85q-.25 1.95.3 4 3.8 6.65 11.7 5.8l3.65-.75.25-.1q3.45-1.05 7.6-3.2l3.35-1.9.5-.3.2-.1.55-.05-2.7 2.8-.75.65-5.7 3.5-.25.1-.15.1-4.25 1.2 11.25 2 5.7-1Q42.8 51.4 50 47.8l1.25-.65h.05l2.75-1.45 6.3-3.85q5.5-3.5 11-7.9l5.5-4.75 1-.85" fill="#831b00" fill-rule="evenodd"/><path d="M52.3 43.6q10.65-5.4 24.55-14.4l-5.5 4.75q-5.5 4.4-11 7.9l-6.3 3.85-2.75 1.45.25-.75-.3.75-1.25.65q-7.2 3.6-14.55 5.45l-5.7 1-11.25-2 4.25-1.2q8.55 3.2 29.55-7.45l-.65 2.55-.1.25.1-.25.65-2.55" fill="#bfff00" fill-rule="evenodd"/><path d="m52.65 28.05.75 11.1-1.1 4.45q-21 10.65-29.55 7.45l.15-.1.25-.1 5.7-3.5.75-.65 1.55.15q4.85.2 10-2.75 5.1-2.95 7.35-7.3 2.15-3.85.95-6.8l-.4-.75q-1.85-3.2-6.8-3.35l-6.7.25q1.55-1.65 2.55-3.6 2.4-4.3.55-7.55-1.85-3.2-6.8-3.35l-3.05.2q4.05-1.9 8.75-3.65 9.65 2.9 13.85 16.15l1.25 3.7m-1.1 18.35-.25.75h-.05l.3-.75m-35.3-27.3q-1.05 1.2-1.75 2.6-1.3 2.5-1.25 4.65L10.7 27.9l-1.8 1.35-1.65 1.5-1.6-.35q2.65-5.7 10.6-11.3m-2.95 9.75q-1.4 1.5-2.3 3.25-2.25 4.3-.45 7.5 1.9 3.25 6.7 3.4 3.25.1 6.55-1.15.15.85.6 1.6.95 1.6 2.6 2.5l.7.3q-4.15 2.15-7.6 3.2l-.25.1-3.65.75q-7.9.85-11.7-5.8-.55-2.05-.3-4l1.3-3.85 1.25-1.85 1.6-1.85.15-.15q2-2 4.8-3.95" fill="#636363" fill-rule="evenodd"/><path d="m28.8 11.85 3.05-.2q4.95.15 6.8 3.35 1.85 3.25-.55 7.55-1 1.95-2.55 3.6l6.7-.25q4.95.15 6.8 3.35l.4.75q1.2 2.95-.95 6.8-2.25 4.35-7.35 7.3-5.15 2.95-10 2.75l-1.55-.15 2.7-2.8-.55.05-.2.1-.5.3-3.35 1.9-.7-.3q-1.65-.9-2.6-2.5-.45-.75-.6-1.6-3.3 1.25-6.55 1.15-4.8-.15-6.7-3.4-1.8-3.2.45-7.5.9-1.75 2.3-3.25l.15-.1 2.05-1.35 7.15-5.05q-2.55.8-7.2 2.9l-2.2 1.1q-.05-2.15 1.25-4.65.7-1.4 1.75-2.6l4.7-3.1q3.55-2.15 7.85-4.15M14.3 33.7q-2.15 1.7-1.6 3.25.55 1.45 3.8 1.95 3.2.45 6.6-1.1 3.5-1.55 5.45-3.75 2-2.15 1.5-3.6-.55-1.55-3.4-.9l-6.5 1.5q-3.7.95-5.85 2.65" fill="#949494" fill-rule="evenodd"/><path d="M37.55 8.2q-4.7 1.75-8.75 3.65-4.3 2-7.85 4.15l-4.7 3.1Q8.3 24.7 5.65 30.4 4.2 29.9 3.9 29v-.45q-.15-2.1 2.5-4.55l.65-.6.35-.3q8.35-7.65 20.85-13.2l3.55-1.45 2.5-.9 3.25.65" fill="#ececec" fill-rule="evenodd"/><path d="M52.65 3.4q-8.2 2.25-15 4.8l-3.2-.7 1.2-.4.4-.15 16.6-3.55" fill="#fef8ab" fill-rule="evenodd"/><path d="M14.3 33.7q2.15-1.7 5.85-2.65l6.5-1.5q2.85-.65 3.4.9.5 1.45-1.5 3.6-1.95 2.2-5.45 3.75-3.4 1.55-6.6 1.1-3.25-.5-3.8-1.95-.55-1.55 1.6-3.25" fill="#efefef" fill-rule="evenodd"/><path d="M37.65 8.2q9.55 2.9 13.8 16.1l1.2 3.75.75 11.1-1.1 4.45-.65 2.55-.1.25-.3.75M34.45 7.5h-.1m.1 0 3.2.7" fill="none" stroke="#831b00" stroke-linecap="round" stroke-linejoin="round"/></g><g id="j"><path d="m35.65 34.95 5-3.8v-.2l-.35-.5q-6.2-6.1-17.1-11.4h-.05l-1.2-.5h-.05l-.1-.05q-3.8-2.05-4.65-7.3l-.35-.65-.75-.3q-5.8-.4-7.6 3.05-1.6 2.65-.2 7.9-2.65-.1-3.45.85h-.05Q2 24.5 5.8 31.55l-1.25.2-.15.05q-1.4.35-1.75 1.75-.3.95.2 2.55.55 1.7 2.2 2.3.55 5 2.5 8-.5 11.65 7.55 18.5l.85.25 1.1-1.55q-2.55-.7-4.2-3.6Q9.4 54.2 9.8 46.15l.05-.1.05-1.45.25-2.15.05-.05v.05q2.2-11.4 5.25-17.5v-.05q2.15-5.15 5.65-4.15h.1l.95.4v.05l8.45 4.6q4.1 2.55 7.15 5.4l-.05.05q-.2 1.75-2.05 3.7m-30.6.55L5 35.45l.05-.05-.15-1.3.05-.05 2.85-.45.65-.35.3-.65-.15-.75q-3.7-6.3-2.2-8.1l3.25-.1.75-.2.5-.5-.05-.8q-1.6-5.3-.4-7.75 1.25-1.9 4.6-1.85.8 3.6 2.85 5.9-2.65 1.05-4.55 5.55v-.05Q10.3 30.2 8 41.8q-.5-1.95-.75-4.4L7 36.75q-.35-.3-.7-.35-.95-.2-1.25-.9" fill="#831b00" fill-rule="evenodd"/><path d="m30.6 25.8-8.45-4.6v-.05l-.95-.4h-.1q-3.5-1-5.65 4.15v.05q-3.05 6.1-5.25 17.5h-.05L9.9 44.6q.65 6.95 3.5 5.05 1.95-2.5 2.25-4.8-.05-4.7 1.95-13 1.15-4.55 4.45-3.65l6.3.85Q31.6 29 30.6 25.8" fill="#fee801" fill-rule="evenodd"/><path d="M35.65 34.95q1.85-1.95 2.05-3.7l.05-.05q-3.05-2.85-7.15-5.4 1 3.2-2.25 3.25l-6.3-.85q.9.2 2.05.9 9.35 5.55 7.55 8.45-6.1 5.3-11.7 13.85-2.65 3.7-4.2-4.9l-.1-1.65q-.3 2.3-2.25 4.8-2.85 1.9-3.5-5.05l-.05 1.45-.05.1Q9.4 54.2 12.85 60q1.65 2.9 4.2 3.6l18.6-28.65" fill="#e08f00" fill-rule="evenodd"/><path d="m15.65 44.85.1 1.65q1.55 8.6 4.2 4.9 5.6-8.55 11.7-13.85 1.8-2.9-7.55-8.45-1.15-.7-2.05-.9-3.3-.9-4.45 3.65-2 8.3-1.95 13" fill="#945100" fill-rule="evenodd"/><path d="M5.05 35.5q.3.7 1.25.9.35.05.7.35l.25.65q.25 2.45.75 4.4 2.3-11.6 5.35-17.85V24q1.9-4.5 4.55-5.55-2.05-2.3-2.85-5.9-3.35-.05-4.6 1.85-1.2 2.45.4 7.75l.05.8-.5.5-.75.2-3.25.1q-1.5 1.8 2.2 8.1l.15.75-.3.65-.65.35-2.85.45-.05.05.15 1.3v.1" fill="#e09003" fill-rule="evenodd"/><path d="M22.05 28.2q.9.2 2.05.9 9.35 5.55 7.55 8.45-6.1 5.3-11.7 13.85-2.65 3.7-4.2-4.9l-.1-1.65q-.05-4.7 1.95-13 1.15-4.55 4.45-3.65z" fill="none" stroke="#831b00" stroke-linecap="round" stroke-linejoin="round" stroke-width="1.5"/><path d="M12.35 36q.1 1.05.8 1.3.65.2 1.45-.5l1.2-1.85q.45-1.2.3-2.25-.15-1.05-.75-1.25-.65-.3-1.45.35-.85.7-1.25 1.95-.45 1.2-.3 2.25m6.1-12.3q-.75.45-1.4 1.3-.65.95-.75 1.75-.1.85.35 1.2l1.3-.05q.75-.3 1.45-1.2l.65-1.5 1.35.9 1.75.2q.85-.2 1.1-.8.25-.6-.3-1.3-.5-.7-1.45-1.05l-1.75-.2-1.2.35-1.1.4" fill="#fefde9" fill-rule="evenodd"/><path d="M55.3 28.6q30.2 18.25 30.85 40.25.65 22.95-28.4 30.35-40.25 6.25-46.1-18.8-1.55-9.55 1.45-14.55 1.55-.25 2.25-1.3-1.4 18.3 15.1 25.05 4.65 1.9 10.65 2.1 27.85-.7 34.6-23.2 4.8-26.9-25.8-31.7l5.4-8.2" fill="#f7c800" fill-rule="evenodd"/><path d="M51.6 4.05q11.85.85 14.8 10.9Q68.95 24.9 60 27.4l-1.9.4q-1.85.3-3.45-.05-2.1 3.65-6 3.2-13.1-3.05-7.85-23.5 4.4-3.3 10.8-3.4" fill="#ee9e00" fill-rule="evenodd"/><path d="M54.65 27.75q1.6.35 3.45.05 1.35 8.25-8.2 9l-4.1-.35-4.3-1.1q-4.9-1.75-6.55-5.6l-.5-1.6-.25-.35q-2.95-5.4.9-13.4 2.25-4.45 5.7-6.95-5.25 20.45 7.85 23.5 3.9.45 6-3.2" fill="#dd7d02" fill-rule="evenodd"/><path d="M62.1 20.65q-3.4 2.7-8.2 2.7-4.8 0-8.2-2.7l-.85-.7-1.85.3.1.8q0 1.35-1 2.25-.9 1-2.25 1-1.4 0-2.35-1-.9-.9-.9-2.25t.9-2.35l1.2-.75q-.85-1.25-.85-2.9 0-2.15 1.45-3.65 1.55-1.5 3.7-1.5l.45.05q.8-1.3 2.25-2.4 3.4-2.7 8.2-2.7 4.8 0 8.2 2.7 3.5 2.7 3.5 6.55 0 3.85-3.5 6.55" fill="#fee902" fill-rule="evenodd"/><path d="M62.85 12.15q0 2.9-2.05 4.95-2.05 2.05-4.95 2.05-2.9 0-4.95-2.05-2.05-2.05-2.05-4.95 0-2.9 2.05-4.95 2.05-2.05 4.95-2.05 2.9 0 4.95 2.05 2.05 2.05 2.05 4.95" fill="#fffefa" fill-rule="evenodd"/><path d="M121.2 65.3q-8.8 46.4-87.55 40.25-19.6-2.25-24.3-18.85-4.65 2.25-5.85 0-1.4-2.9 3.55-5.05-4.8-.3-4.5-2.8.4-3.05 6.1-4.45-6.9-3-6.95-6.35-.3-5.8 5-3.75 4.15 1.75 6.4 1.55-3 5-1.45 14.55l1.3 6.05Q20.8 108.5 66.6 101.2l.5-.15q3-.25 5.55-1.35l.25-.1q20.25-7.45 21.9-21.3 4.4-26.9-15.75-45.4 2.55-1.25 3.35-2.95 28.85 2.85 38.8 35.35" fill="#e08f00" fill-rule="evenodd"/><path d="M9.35 70.95q-1.4.95-3.3.8-1.85-.2-3.1-1.35-1.2-1.25-1.1-2.8.2-1.55 1.55-2.45 1.5-.9 3.35-.75 1.9.2 3.05 1.3 1.35 1.2 1.15 2.75-.1 1.55-1.6 2.5" fill="#f9c500" fill-rule="evenodd"/><path d="m6.9 68.2-2.2.1q-1.2-.3-1.85-1.2-.7-.8-.55-1.6.25-.85 1.25-1.2 1.05-.3 2.25 0 1.25.35 1.85 1.15.75.8.55 1.65-.2.8-1.3 1.1" fill="#fffeff" fill-rule="evenodd"/><path d="M7.85 78.95q-.5.95-1.5 1.4l-2.05.25q-.95-.3-1.4-1.15-.35-.85.1-1.7.45-.95 1.5-1.4l2-.25q1 .25 1.35 1.1.45.8 0 1.75" fill="#f9c500" fill-rule="evenodd"/><path d="M6.25 78.6q-.4.5-1.3.7l-1.4.05-.75-.7q-.15-.5.35-1t1.3-.75q.8-.25 1.35 0 .7.15.8.7.15.45-.35 1" fill="#fffeff" fill-rule="evenodd"/><path d="M32.3 37q1.85-.1 2.95-1.2l.95-1.5q1.35 1.2 3.25 2.05-2.95 1.2-5.15 1.1l-2-.45" fill="#ee9e00" fill-rule="evenodd"/><path d="m64.5 33.05-.15-.75-.05-.35q-.25-2.2.7-4.05l.65-1q2-2.75 6-4.05l1.45-.2q-3.6 2.4-4.2 4.85-.9 3.55 4.5 7.25l-.15.1q-2.2.85-4.05.75-2.25-.1-3.9-1.7l-.8-.85m-37.9-5.8.95-.25h.05l2.85.05q1.45.55 2.25 1.6l.1.05.1.25q.5.55.4 1.35l-.25 2.6q-.6 2.3-4.7 2 .95 1.4 2.6 1.9l1.35.2 2 .45q2.2.1 5.15-1.1l1.45.6 3.4.7q-4.15 3.15-8.05 3.85v-.05q-2.15.4-4.25 0l-2.25-.65-1.45-.7q-5.5-3.4-1.7-12.85m36.15 3.5q-1.35-.6-1.7-1.9l1.7-1.55q-1.1 1.75 0 3.45" fill="#dd7d02" fill-rule="evenodd"/><path d="m26.5 40.5-1.65-1.65q-1.3-1.45-1.35-3.95l-.1-2.6q.15-4.15 3.2-5.05-3.8 9.45 1.7 12.85l1.45.7-.8-.05h-.2l-.85-.1-1.4-.15" fill="#fee902" fill-rule="evenodd"/><path d="M73.1 22.65q1.35-.25 2.55 0h.05q2.95.45 4.6 3.4.95 1.7.6 3.05l-.05.15v.05l-.05.1-.6 1.15q-1.4 2.1-3.65 1.35h-.05q-3.15-.7-3.4-3.45l-1.35-.3-2.85-.65q.6-2.45 4.2-4.85m7.1 79-.9.2q-11.45 2.55-26 2.7l-13-1.45q-7.3-1.05-12.95-5.65-5.65-4.65-7-9.15-1.4-4.45-.25-10.5 1.1-6.1 7-10.3-6.6-3.1-4-10.5 2.6-7.45 7.4-12.7l4.55-.8.8-.5-4.5-.35q-1.9-.5-3.8-1.55l-1.05-.6 1.4.15.85.1h.2l.8.05 2.25.65q2.1.4 4.25 0v.05q3.9-.7 8.05-3.85 5 .35 7.3-1.05 5.4-.95 6.4-4.85 3.95.9 7.3 2.15 1.65 1.6 3.9 1.7 1.85.1 4.05-.75l.15-.1-.05.15q17.05 6.5 20.5 23.25Q100 88.1 80.1 101.3l.1.35" fill="#fee801" fill-rule="evenodd"/><path d="M58.25 29.5h.1l.65-.1q.85 1.4 2 2.3 1.35 1 3.1 1.3l.4.05.8.85q-3.35-1.25-7.3-2.15l.15-.45.1-1.8" fill="#f4a200" fill-rule="evenodd"/><path d="m58.25 29.5-2.6.1q-6.3-1-9.3-6.9l-.9-2.25q1.2 2.5 3.65 3.95 1.45.85 2.55 1.3l1.3.35 2.45.2 1.3-.05 1.1-.05.95-.2.8-.2q7.25-2.1 5.15-10.35v.05q-1.6-5.35-6-7.75-2.95-1.65-7.2-1.95-5.75.1-9.7 3.05v.1q-3.15 2.25-5.15 6.3v-.05q-2.85 5.9-1.6 10.25l1 2.95.3.55.2.15.05.25v-.05l.25.5.85 1.15.3.35 1.1 1 .25.2.35.2q2 2.1 6.9 3.1l5 .85q-2.3 1.4-7.3 1.05l-3.4-.7-1.45-.6q-1.9-.85-3.25-2.05l-.95 1.5q-1.1 1.1-2.95 1.2l-1.35-.2q-1.65-.5-2.6-1.9 4.1.3 4.7-2l.25-2.6q.1-.8-.4-1.35l-.1-.25-.1-.05q-.8-1.05-2.25-1.6L27.6 27h-.05l-.95.25q-3.05.9-3.2 5.05l.1 2.6q.05 2.5 1.35 3.95l1.65 1.65 1.05.6q1.9 1.05 3.8 1.55l4.5.35-.8.5-4.55.8h-1.1l-3.5 4.15q-2.2 2.8-3.95 5.7-3.05 5-4.65 10.1v-.05l-.5 1.2v.05q-.55.95-1.6 1.45l-1.8.65h-.1l-1.05.05-.4-.05q-2.3-.2-5.8-1.65-1.6-.75-2.55-1.65-2.5 2-.35 5.5.85 1.3 3.1 2.5 1.55.95 4.2 2.05l-.85.75-1.25.85-1.2.45Q4.6 77.1 3.9 78.2q-.7 1.1-.15 1.55.4.4 1.8.4 2.6.05 3.2 1.25l-.25.45-3.05 1.45q-2.75 1.2-1.8 2.9.95 1.65 2 1.2l.45-.2.25-.15q1.85-.55 3.35-1.9l.9 1.95 2.4 4.2.75 1.3q5.9 9.6 20.1 11.25l5.1.35q7.55.45 14.35.35 14.55-.15 26-2.7l.9-.2 4.25-1.1q7.7-2.25 13.75-5.65 17.2-9.8 21.2-29.45l-.75-2.25-.95-2.7q-10-25.7-34.4-28.7-1 1.3-2.95 2.35l-.55.3-.25.1-4.95-.2q-1.9-1.1-2.05-2.9-.1-1.9.55-3 .25 2.75 3.4 3.45h.05q2.25.75 3.65-1.35l.6-1.15.05-.1v-.05l.05-.15q.35-1.35-.6-3.05-1.65-2.95-4.6-3.4h-.05q-1.2-.25-2.55 0l-1.45.2q-4 1.3-6 4.05l-.65 1q-.95 1.85-.7 4.05l.05.35.15.75-.4-.05q-1.75-.3-3.1-1.3-1.15-.9-2-2.3l-.65.1h-.1M51.6 2.35h.1q6.1.45 10.05 3.1Q66.3 8.5 68 14.5v.05q.85 3.25.65 5.8.95-.45 2.15-.75l.05-.05 5.35-.25q4.5.6 7.05 5.05v.05q1.25 2.2 1.25 4.1 26.15 3.45 36.7 31.55l1.6 4.75.05.85q-5.15 28.25-35.4 37.65-7.15 2.2-15.65 3.4l-12.1 1.1q-12 .55-26.2-.55h-.05Q13.75 105 8.3 89l-2.7.55Q3 89.55 2 87.5l-.05-.05q-1.65-2.85.8-5.15l-.1-.05q-2.1-1.3-1.8-3.55l.05-.1q.1-2.75 3.45-4.45-4.5-2.8-4.35-6v-.05q-.2-4.05 1.55-5.2 1.15-.9 2.7-.9 2.55 2.45 8.25 2.15h.45q.6-.1.95-.55l.1-.35.05-.05q3.1-10.05 11.55-19.75Q20.25 41.1 20 32.4v-.1q.2-8.1 7.2-8.7l3.95.15h.1q-.4-4.45 2.3-10.1 2.4-4.85 6.2-7.55h.05q4.75-3.65 11.8-3.75m11.15 28.4q-1.1-1.7 0-3.45l-1.7 1.55q.35 1.3 1.7 1.9m-26.1-1.25v-.1l-.05-.05.05.15" fill="#831b00" fill-rule="evenodd"/><path d="M73.1 28.45q-.65 1.1-.55 3 .15 1.8 2.05 2.9l4.95.2.25-.1.55-.3q1.95-1.05 2.95-2.35 24.4 3 34.4 28.7l.95 2.7-1.25 1.15q-2.4 11.7-10.2 20.75-7.3 8.55-17.6 13.2l-5.15 2.25-4.25 1.1-.1-.35Q100 88.1 93.85 58.15 90.4 41.4 73.35 34.9l.05-.15q-5.4-3.7-4.5-7.25l2.85.65 1.35.3" fill="#e29200" fill-rule="evenodd"/><path d="M53.3 104.55q-6.8.1-14.35-.35Q18.4 97.05 14.6 90q-.6-1.05-1.1-4.2-.25-1.5-2.35-1.5l-3.05.5H7.05q.35-.7 2.4-2.4 1.8-1.5 1.8-2 0-.85-1.6-1.6L7.4 77.6l-.1-.1h.25q5.8-.45 5.8-2.65 0-.35-3.35-2.6-3.45-2.3-3.75-3.7l5.8-.55 1.45-.2q3.85-.6 4.8-1.25 1.7-9.45 7.6-18.1l3.5-4.15h1.1q-4.8 5.25-7.4 12.7-2.6 7.4 4 10.5-5.9 4.2-7 10.3-1.15 6.05.25 10.5 1.35 4.5 7 9.15 5.65 4.6 12.95 5.65l13 1.45" fill="#fef8ab" fill-rule="evenodd"/><path d="m118.65 63.2.75 2.25q-4 19.65-21.2 29.45-6.05 3.4-13.75 5.65l5.15-2.25q10.3-4.65 17.6-13.2 7.8-9.05 10.2-20.75l1.25-1.15" fill="#bfff00" fill-rule="evenodd"/><path d="m38.95 104.2-5.1-.35q-14.2-1.65-20.1-11.25L13 91.3l-2.4-4.2-.9-1.95q-1.5 1.35-3.35 1.9l-.25.15-.45.2q-1.05.45-2-1.2-.95-1.7 1.8-2.9l3.05-1.45.25-.45q-.6-1.2-3.2-1.25-1.4 0-1.8-.4-.55-.45.15-1.55.7-1.1 3.25-1.85l1.2-.45 1.25-.85.85-.75q-2.65-1.1-4.2-2.05-2.25-1.2-3.1-2.5-2.15-3.5.35-5.5.95.9 2.55 1.65 3.5 1.45 5.8 1.65l.4.05 1.05-.05h.1l1.8-.65q1.05-.5 1.6-1.45v-.05l.5-1.2v.05q1.6-5.1 4.65-10.1 1.75-2.9 3.95-5.7-5.9 8.65-7.6 18.1-.95.65-4.8 1.25l-1.45.2-5.8.55q.3 1.4 3.75 3.7 3.35 2.25 3.35 2.6 0 2.2-5.8 2.65H7.3l.1.1 2.25 1.2q1.6.75 1.6 1.6 0 .5-1.8 2-2.05 1.7-2.4 2.4H8.1l3.05-.5q2.1 0 2.35 1.5.5 3.15 1.1 4.2 3.8 7.05 24.35 14.2" fill="#fffdee" fill-rule="evenodd"/><path d="M49.9 10.05q0 1.6-1.15 2.7-1.1 1.1-2.65 1.1-1.6 0-2.75-1.1-1.1-1.1-1.1-2.7t1.1-2.7q1.15-1.1 2.75-1.1 1.55 0 2.65 1.1 1.15 1.1 1.15 2.7" fill="#fff7ac" fill-rule="evenodd"/><path d="M76.3 30.25q-1.9 0-3.3-1.2-1.35-1.15-1.35-2.8T73 23.4q1.4-1.1 3.3-1.1 1.95 0 3.3 1.1 1.35 1.2 1.35 2.85 0 1.65-1.35 2.8-1.35 1.2-3.3 1.2M31.55 32.9q-1.4 1.15-3.3 1.15-1.95 0-3.35-1.15-1.4-1.05-1.4-2.6t1.4-2.65q1.4-1.1 3.35-1.1 1.9 0 3.3 1.1t1.4 2.65q0 1.55-1.4 2.6" fill="#fee902" fill-rule="evenodd"/><path d="M60.25 47.75q-2.5-.65-1.1-3 3.75-1.9 9.6-3.8-5.95 5.75-8.5 6.8" fill="#370000" fill-rule="evenodd"/><path d="M79.85 45.75q1.3 6.65-2.4 13.1-5.6 7.55-13.15 4.85-1.55-.65-2.6-1.9-2.1-2.6-2.45-6.3l20.6-9.75" fill="#fefefc" fill-rule="evenodd"/><path d="M59.25 55.5q.35 3.7 2.45 6.3 1.05 1.25 2.6 1.9 7.55 2.7 13.15-4.85 3.7-6.45 2.4-13.1" fill="none" stroke="#370101" stroke-linecap="round" stroke-linejoin="round" stroke-width="1.5"/><path d="M70.9 55.55q0 2.3-1.3 3.95h-.05q-1.25 1.55-3 1.6-1.7-.05-2.95-1.6-1.35-1.65-1.35-3.95 0-2.4 1.35-4.05 1.2-1.55 2.95-1.55 1.8 0 3.05 1.55 1.3 1.65 1.3 4.05" fill="#790100" fill-rule="evenodd"/><path d="M70.9 55.55q0-2.4-1.3-4.05-1.25-1.55-3.05-1.55-1.75 0-2.95 1.55-1.35 1.65-1.35 4.05 0 2.3 1.35 3.95 1.25 1.55 2.95 1.6 1.75-.05 3-1.6h.05q1.3-1.65 1.3-3.95m1.55-3.7q.7 1.65.7 3.7 0 3.1-1.8 5.4-1.95 2.5-4.8 2.45-2.8.05-4.75-2.45h.05Q60 58.65 60 55.55q0-3.2 1.85-5.45 1.95-2.4 4.7-2.4 2.25 0 3.95 1.55-2.05 3.35 1.95 2.6" fill="#450100" fill-rule="evenodd"/><path d="M68.9 56.6q-1.05 1.25-2.6 1.25t-2.6-1.25q-1.1-1.15-1.1-2.9 0-1.7 1.1-2.95 1.05-1.2 2.6-1.2t2.6 1.2Q70 52 70 53.7q0 1.75-1.1 2.9" fill="#3b0100" fill-rule="evenodd"/><path d="M72.15 54.2q-.7.75-1.75.75-1 0-1.75-.75t-.75-1.75q0-1 .75-1.8.75-.7 1.75-.7 1.05 0 1.75.7.75.8.75 1.8t-.75 1.75" fill="#fff" fill-opacity=".388" fill-rule="evenodd"/><path d="M59.25 55.5q-.15-2 .15-4.25l19.25-9.4q.8 2 1.2 3.9l-20.6 9.75" fill="#360000" fill-rule="evenodd"/><path d="M79.85 45.75q-.4-1.9-1.2-3.9l-19.25 9.4q-.3 2.25-.15 4.25" fill="none" stroke="#370101" stroke-linecap="round" stroke-linejoin="round" stroke-width="1.5"/><path d="M44.25 67.75q-.8.6-1.8-.2-.85-.65-1.95-2.3h.05q-.65-.9-.3-1.5.25-.6 1.4-.95l3.85-.2q1.85.3 1.65 1.65l-.05.15q-.65 1.7-2.85 3.35m2.1-3.55q0-.65-1-.85l-3.5.2q-.7.25-.85.55-.15.3.15.7v.05q1 1.5 1.75 2.05.55.4.85.25 2-1.5 2.6-2.95" fill="#e08500" fill-rule="evenodd"/><path d="m41.4 62.8 3.65-.25q1.45.3 1.4 1.3-.65 1.6-2.75 3.2-1.1.8-3.2-2.4-.9-1.35.9-1.85" fill="#020100" fill-rule="evenodd"/><path d="M43.7 67.05q-1.1.8-3.2-2.4-.9-1.35.9-1.85l3.65-.25q1.45.3 1.4 1.3-.65 1.6-2.75 3.2z" fill="none" stroke="#000" stroke-linecap="round" stroke-linejoin="round"/><path d="M42.15 62.6q.3.3.25.75l-.45 1.05-.8.65-.75-.15q-.25-.3-.25-.8l.45-.95q.35-.5.8-.65l.75.1" fill="#dfdfdf" fill-rule="evenodd"/><path d="M41.9 62.6q.25.25.15.7l-.3.85-.7.55-.6-.15q-.25-.25-.2-.65l.4-.8q.25-.4.65-.55l.6.05" fill="#f0f0f0" fill-rule="evenodd"/><path d="M33.7 49.5q1.7-.6.7-2.6-2.55-1.6-6.55-3.25 4.1 4.9 5.85 5.85" fill="#370000" fill-rule="evenodd"/><path d="M34.1 57.5q-.15 3.15-1.4 5.4-.55 1.05-1.4 1.55-4.25 2.35-7.45-4.15-1.05-3.8-.05-11.1l10.3 8.3" fill="#fefefc" fill-rule="evenodd"/><path d="M34.1 57.5q-.15 3.15-1.4 5.4-.55 1.05-1.4 1.55-4.25 2.35-7.45-4.15-1.05-3.8-.05-11.1" fill="none" stroke="#370101" stroke-linecap="round" stroke-linejoin="round" stroke-width="1.5"/><path d="M27.55 57.5q0 2 .75 3.4h.05q.7 1.3 1.65 1.35.95-.05 1.7-1.35.75-1.4.75-3.4 0-2.05-.75-3.45-.7-1.3-1.7-1.3t-1.7 1.3q-.75 1.4-.75 3.45" fill="#790100" fill-rule="evenodd"/><path d="M26.7 54.35q-.4 1.4-.4 3.15 0 2.65 1 4.6 1.1 2.15 2.7 2.1 1.6.05 2.7-2.1h-.05q1.1-1.95 1.1-4.6 0-2.75-1.1-4.7-1.05-2-2.65-2-1.25 0-2.2 1.3 1.15 2.85-1.1 2.25m.85 3.15q0-2.05.75-3.45.7-1.3 1.7-1.3t1.7 1.3q.75 1.4.75 3.45 0 2-.75 3.4-.75 1.3-1.7 1.35-.95-.05-1.65-1.35h-.05q-.75-1.4-.75-3.4" fill="#450100" fill-rule="evenodd"/><path d="M28.7 58.4q.6 1.1 1.45 1.1.9 0 1.5-1.1.6-1 .6-2.45 0-1.45-.6-2.55-.6-1-1.5-1-.85 0-1.45 1-.6 1.1-.6 2.55 0 1.45.6 2.45" fill="#3b0100" fill-rule="evenodd"/><path d="M26.1 56.4q.55.65 1.3.65t1.3-.65q.55-.65.55-1.5t-.55-1.55q-.55-.6-1.3-.6t-1.3.6q-.55.7-.55 1.55 0 .85.55 1.5" fill="#fff" fill-opacity=".388" fill-rule="evenodd"/><path d="M23.7 49.95q0-1.6.4-1.3L34 53.1l.1 4.4-10.4-7.55" fill="#360000" fill-rule="evenodd"/><path d="M23.7 49.95q0-1.6.4-1.3L34 53.1l.1 4.4" fill="none" stroke="#370101" stroke-linecap="round" stroke-linejoin="round" stroke-width="1.5"/><path d="m30.4 76.7 12.55-4.55 14.55 5.2" fill="none" stroke="#390700" stroke-linecap="round" stroke-linejoin="round" stroke-width="1.5"/><path d="M66.1 80.45q-1.75 1.8-4.2 1.8t-4.2-1.8q-1.8-1.75-1.8-4.2t1.8-4.2q1.75-1.75 4.2-1.75t4.2 1.75q1.75 1.75 1.75 4.2t-1.75 4.2" fill="#d5242e" fill-rule="evenodd"/><path d="M66.1 80.45q-1.75 1.8-4.2 1.8t-4.2-1.8q-1.8-1.75-1.8-4.2t1.8-4.2q1.75-1.75 4.2-1.75t4.2 1.75q1.75 1.75 1.75 4.2t-1.75 4.2z" fill="none" stroke="#99130a" stroke-linecap="round" stroke-linejoin="round" stroke-width="1.5"/><path d="M31.2 79.4q-1.4 1.4-3.4 1.4t-3.4-1.4q-1.45-1.45-1.45-3.4 0-2 1.45-3.45 1.4-1.4 3.4-1.4t3.4 1.4Q32.65 74 32.65 76q0 1.95-1.45 3.4" fill="#d5242e" fill-rule="evenodd"/><path d="M31.2 79.4q-1.4 1.4-3.4 1.4t-3.4-1.4q-1.45-1.45-1.45-3.4 0-2 1.45-3.45 1.4-1.4 3.4-1.4t3.4 1.4Q32.65 74 32.65 76q0 1.95-1.45 3.4z" fill="none" stroke="#99130a" stroke-linecap="round" stroke-linejoin="round" stroke-width="1.5"/><path d="M110.4 74.3q.15 1.4-1.6 1.95l-5.25.85h-3.5l2.4 1.6q2.05 1.25 2.25 2.9.1 1.65-1.3 3.85-.6 1.05-2 2.1Q97.95 58 88.85 61.85q1.9-1.95 4.85-4.15 5.85-4.25 10.85-2.55 6.55 2.25 5.25 8.35-.75 2.5-4.95 5.55l-3.5 2.6 4.2.8q4.5.45 4.8 1.8l.05.05" fill="#e08f00" fill-rule="evenodd"/><path d="M108.35 60.8q-1.4 1.15-5.95 1.15-4.55 0-7.35-.9-2.75-.95-2.4-2.65.4-1.75 2.85-2.8 2.45-1.05 5.95-1.05 3.45 0 5.9 1.05t2.45 2.55q0 1.5-1.45 2.65m-2.6 6.95q-.75.75-1.8.75-1.1 0-1.85-.75t-.75-1.8q0-1.1.75-1.85.75-.7 1.85-.7 1.05 0 1.8.7.75.75.75 1.85 0 1.05-.75 1.8m3.55 8.4q-1.4.75-3.45.75-2.05 0-3.45-.75-1.45-.75-1.45-1.85 0-1.05 1.45-1.85 1.4-.75 3.45-.75 2.05 0 3.45.75 1.45.8 1.45 1.85 0 1.1-1.45 1.85m-4.4 8.9q-1.1 1.2-2.4 1.25-1.3.05-1.85-1.2-.65-1.3-.65-2.55 0-1.25.85-2.1.85-.85 2.1-.85t2.1.85q.85.85.85 2.1t-1 2.5" fill="#fde401" fill-rule="evenodd"/><path d="M112.05 74.05v-.1q.65 2.85-2.7 3.9l-4.6.5q1.55 1.35 1.7 3.1.3 2.9-2.25 4.85-2.55 1.9-3.05 1.65l-.25-.15.55-.25q1.35-1.05 1.95-2.1 1.4-2.25 1.35-3.9-.25-1.65-2.3-2.9l-2.4-1.55h3.5l5.25-.9q1.8-.5 1.6-1.9l-.05-.05q-.3-1.4-4.75-1.85l-4.25-.8 3.5-2.55q4.2-3.05 4.95-5.55 1.3-6.1-5.25-8.35-5-1.7-10.85 2.55-2.95 2.2-4.85 4.15l-.05-.25q-.05-.4.25-.6 8.3-10.35 16.05-7.45 8.05 2.85 6.35 10.35-.7 3.15-6.4 6.8 6.9.6 7 3.35" fill="#831b00" fill-rule="evenodd"/><path d="M105.85 57.3q.3 1.5-.9 2.75-1.1 1.25-2.95 1.6-1.85.35-3.35-.45-1.45-.8-1.75-2.3-.25-1.55.85-2.8 1.1-1.25 2.95-1.6 1.85-.35 3.35.45 1.55.8 1.8 2.35m2.8 17.45q-.9.4-2.2.4l-2.25-.4q-.9-.35-.9-.85t.9-.9l2.25-.35 2.2.35q.9.4.9.9t-.9.85m-4.95 8.05q-.6.65-1.5.65-.85 0-1.45-.65-.65-.6-.65-1.45t.65-1.5q.6-.6 1.45-.6.9 0 1.5.6.65.65.65 1.5t-.65 1.45" fill="#fffff7" fill-rule="evenodd"/><path d="m91.05 34.5-6.9-3.6v-.25l.3-.75q6.3-8.65 18.6-17.2h.05q.65-.55 1.35-.9h.05l.1-.1q4.3-3.3 4.25-9.8 0-.55.3-.85.3-.4.8-.55 7.05-1.7 9.9 2.2 2.45 2.9 1.85 9.6 3.15-.65 4.35.4h.05q3.85 2.3.65 11.75h1.75q1.75.15 2.45 1.75.55 1.1.25 3.15v.05q-.3 2.15-2.2 3.25.35 6.2-1.4 10.2 2.85 14.1-5.6 24.05-.4.45-.95.5l-1.7-1.7q3-1.35 4.5-5.2 2.6-6.85 1.3-15.2l-.05-.3-.35-1.95-.05-.2-.4-1.7-.75-2.6-.05-.05v.05q-4.95-13.4-9.85-20.25l-.05-.1q-3.65-5.8-7.65-3.9l-.2.05-1 .6V15q-5.3 3.65-9.4 7.35-4.55 4-7.65 8l.05.05q.6 2.05 3.3 4.1M128.4 29l-.05-1.65-.1-.05h-3.55l-.85-.3-.55-.75q-.1-.45.1-.9 3.2-8.45 1.05-10.35-.95-.4-4.05.55l-.9-.1-.65-.55q-.3-.45-.2-.9 1-6.85-1-9.55-1.9-2.1-6-1.35-.2 4.6-2.3 7.75 3.45.75 6.65 5.85v-.05q5 7 10.05 20.7.3-2.5.05-5.5-.05-.45.25-.85.25-.45.75-.6 1.1-.4 1.35-1.35V29h-.05" fill="#831b00" fill-rule="evenodd"/><path d="M95.35 22.35q4.1-3.7 9.4-7.35v-.05l1-.6.2-.05q4-1.9 7.65 3.9l.05.1q4.9 6.85 9.85 20.25h.05l.75 2.6q.6 8.6-3.25 6.9-2.85-2.75-3.7-5.45-.85-5.7-4.95-15.5-2.25-5.3-6.2-3.55-3.7 1.45-7.5 2.3-3.9.6-3.35-3.5" fill="#fee801" fill-rule="evenodd"/><path d="M91.05 34.5q-2.7-2.05-3.3-4.1l-.05-.05q3.1-4 7.65-8-.55 4.1 3.35 3.5 3.8-.85 7.5-2.3-1.05.45-2.3 1.55-10.25 8.6-7.5 11.8 8.5 5.25 17.05 14.55 3.9 3.9 4.1-6.8l-.2-2.05q.85 2.7 3.7 5.45 3.85 1.7 3.25-6.9l.4 1.7.05.2.35 1.95.05.3h-.1q0 6.6-2.25 11.75-1.85 4.1-5 6.95L91.05 34.5" fill="#e08f00" fill-rule="evenodd"/><path d="M106.2 23.55q3.95-1.75 6.2 3.55 4.1 9.8 4.95 15.5l.2 2.05q-.2 10.7-4.1 6.8-8.55-9.3-17.05-14.55-2.75-3.2 7.5-11.8 1.25-1.1 2.3-1.55" fill="#945100" fill-rule="evenodd"/><path d="M128.45 29.05q-.25.95-1.35 1.35-.5.15-.75.6-.3.4-.25.85.25 3-.05 5.5Q121 23.65 116 16.65v.05q-3.2-5.1-6.65-5.85 2.1-3.15 2.3-7.75 4.1-.75 6 1.35 2 2.7 1 9.55-.1.45.2.9l.65.55.9.1q3.1-.95 4.05-.55 2.15 1.9-1.05 10.35-.2.45-.1.9l.55.75.85.3h3.55l.1.05.05 1.65.05.05" fill="#e09003" fill-rule="evenodd"/><path d="M125.15 45.3q1.3 8.35-1.3 15.2-1.5 3.85-4.5 5.2L117.8 64q3.15-2.85 5-6.95 2.25-5.15 2.25-11.75h.1" fill="#bfff00" fill-rule="evenodd"/><path d="M106.2 23.55q3.95-1.75 6.2 3.55 4.1 9.8 4.95 15.5l.2 2.05q-.2 10.7-4.1 6.8-8.55-9.3-17.05-14.55-2.75-3.2 7.5-11.8 1.25-1.1 2.3-1.55z" fill="none" stroke="#831b00" stroke-linecap="round" stroke-linejoin="round" stroke-width="1.5"/><path d="M119.65 31.1q.05 1.3-.7 1.75-.75.4-1.9-.25-1.05-.7-1.85-2.05-.8-1.4-.85-2.7 0-1.3.75-1.7.7-.45 1.8.25 1.15.65 1.95 2.05.8 1.35.8 2.65m-10-13.7q1.05.35 2 1.3 1 .95 1.25 1.95.3 1.05-.2 1.6l-1.55.15q-1-.25-2-1.2-.8-.8-1.15-1.7l-1.45 1.35q-1.1.65-2.1.6-1.1-.1-1.5-.75-.4-.7.15-1.65.45-.9 1.5-1.55 1.15-.6 2.15-.6l1.5.15 1.4.35" fill="#fefde9" fill-rule="evenodd"/></g><path d="M0 41.6q0-17.3 33.8-29.55Q67.7 0 115.6 0q48 0 81.8 12.05 33.9 12.25 33.9 29.55 0 17.35-33.9 29.4-33.8 12.25-81.8 12.25-47.9 0-81.8-12.25Q0 58.95 0 41.6" fill-opacity=".349" fill-rule="evenodd" id="b"/><path d="M170.95 0v199H0V0h170.95" fill="#fff" fill-opacity="0" fill-rule="evenodd" id="k"/></defs></svg>