<svg xmlns:ffdec="https://www.free-decompiler.com/flash" xmlns:xlink="http://www.w3.org/1999/xlink" ffdec:objectType="frame" height="100" width="100" xmlns="http://www.w3.org/2000/svg"><use ffdec:characterId="27" height="100.1" transform="translate(0 -.1)" width="100" xlink:href="#a"/><defs><g id="a" transform="translate(0 .1)"><use ffdec:characterId="2" height="132.8" transform="matrix(.4173 0 0 .4175 14.624 6.874)" width="60.15" xlink:href="#b"/><use ffdec:characterId="4" height="45.2" transform="matrix(.4173 0 0 .4175 16 81.15)" width="137.85" xlink:href="#c"/><use ffdec:characterId="6" height="47.95" transform="matrix(.4173 0 0 .4175 23.574 51.224)" width="29.15" xlink:href="#d"/><use ffdec:characterId="7" height="43.65" transform="matrix(.6872 0 0 .6875 43.19 47.009)" width="32.3" xlink:href="#e"/><use ffdec:characterId="9" height="39.8" transform="matrix(.4173 0 0 .4175 45.624 79.374)" width="39.3" xlink:href="#f"/><use ffdec:characterId="11" height="30.15" transform="matrix(.4173 0 0 .4175 25.974 80.524)" width="33.7" xlink:href="#g"/><use ffdec:characterId="13" height="63.2" transform="matrix(.4173 0 0 .4175 29.424 50.374)" width="60.2" xlink:href="#h"/><use ffdec:characterId="15" height="39.95" transform="matrix(.4173 0 0 .4175 29.624 69.224)" width="61.3" xlink:href="#i"/><use ffdec:characterId="17" height="45.65" transform="matrix(.4173 0 0 .4175 48.174 51.024)" width="29.7" xlink:href="#j"/><use ffdec:characterId="19" height="132.6" transform="matrix(.4173 0 0 .4175 19.574 -.076)" width="120.3" xlink:href="#k"/><use ffdec:characterId="21" height="142.35" transform="matrix(.4173 0 0 .4175 54.624 5.674)" width="81.75" xlink:href="#l"/><use ffdec:characterId="22" height="85" transform="scale(1.3513 1.1765)" width="74" xlink:href="#m"/></g><g id="p"><path d="M13.25 42.85q4.2-5.7 5.05-16.2L19.75 9.6q.55-6.65 3.9-8.85 3.3-2.2 7.05 2.2 3.7 4.35 11.4 2.2 6.25-1.8 12.4 6.05-2.9 2.45-7.1 2.65-9.15-.5-15.35-4.05-3.7-.85-3.65 9.5.05 10.4-4.75 23.6-.9 2.3-1.55 4.9-2.6 10.35-1.8 24.2v.25q0 2.5-.35 4.75-.65 3.95-2.65 7.1-1.35 2-2.1 3.85l-1.05-.4q-5.6-1.85-11.75.3L1.3 84.3Q-.9 76.05.6 67.7 1 65.35 1.7 63l.1-.35q2.35-7.7 7-14.25l.4-.6 3.2-3.95.85-1q6.5-7.65 10.6-16.3-4.1 8.65-10.6 16.3m6.95 79-1.7-5.4 1.15-2.95q1.3-5.1-1.2-11l2.9 3q2.15 2.45 3.5 4.7-.05 2.3-.6 4.5-1.25 4.5-4.05 7.15M4.95 93.9l-1.8-4-.05-.15q4.05-2.3 9.1-.6 1.15.35 2.2.95-.4 1.5-.4 2.9l.05 1 .3 2.4q-1.75-1.6-3.85-2.3l-5.55-.2" fill="#fff" fill-rule="evenodd" transform="translate(1.5 1.5)"/><path d="M15.2 87.95q.75-1.85 2.1-3.85 2-3.15 2.65-7.1.35-2.25.35-4.75V72q-.8-13.85 1.8-24.2.65-2.6 1.55-4.9 4.8-13.2 4.75-23.6-.05-10.35 3.65-9.5 6.2 3.55 15.35 4.05 4.2-.2 7.1-2.65l2.65 3.85-8.25 6.45q-9.55-8.15-14.3-8.65-5.25-.55-5 3.65.3 6.3.1 9.95-.3 4.6-4.1 15.25-1.05 2.9-1.75 6.1-1.85 8.5-1.4 19 .6 14.35 2.1 21.15 1.2 5.45 2.4 9.35l.55 1.85q1.95 5.35 2.45 11 .6 6.95-2.35 12.35v.1q-1.75 3.15-4.7 5.8l-1.3-2.2q2-1.55 3.2-3.4l.05-.05q1.6-2.45 1.9-5.35l.6-1.75q2.05-7.65-2-16.7l-1.1-2.2q-3.6-6.5-9.05-8.8m-.85 8.45-.3-2.4-.05-1q0-1.4.4-2.9 3.45 1.85 5.95 5.7l2.05 3.7q2.5 5.65 2.45 10.7-1.35-2.25-3.5-4.7l-2.9-3-.25-.5q-1.6-3.6-3.85-5.6" fill="#e9d7c3" fill-rule="evenodd" transform="translate(1.5 1.5)"/><path d="m20.9 124.45-.35-1.25-.05-.15-.2-.95-.1-.25q2.8-2.65 4.05-7.15.55-2.2.6-4.5 1.45 2.4 1.95 4.55l-.05 2.65q-1.25 2.95-4 5.5l-.1.1-1.75 1.45m-2.4-8q-2.7-6.95-7.6-13.1-3.5-4.45-5.95-9.45l5.55.2q2.1.7 3.85 2.3 2.25 2 3.85 5.6l.25.5q2.5 5.9 1.2 11l-1.15 2.95M3.1 89.75l-.7-1.9q6.15-2.15 11.75-.3l1.05.4-.8 2.15q-1.05-.6-2.2-.95-5.05-1.7-9.1.6" fill="#f43930" fill-rule="evenodd" transform="translate(1.5 1.5)"/><path d="m46.85 23.05.05.05-4.35 3.45q-6.1-6.25-11.5-3.8L31 20.9q-.4-6.25 5.4-5 5.75 1.25 10.45 7.15m-22 87.15q.05-5.05-2.45-10.7l-2.05-3.7q-2.5-3.85-5.95-5.7l.8-2.15q5.45 2.3 9.05 8.8l1.1 2.2q4.05 9.05 2 16.7l-.6 1.75.05-2.65q-.5-2.15-1.95-4.55" fill="#c11d11" fill-rule="evenodd" transform="translate(1.5 1.5)"/><path d="m48.9 21.5-2.05 1.55q-4.7-5.9-10.45-7.15-5.8-1.25-5.4 5l.05 1.85q-.1 6.35-3.2 19.1L26.6 47.8l-.1.6q-1.25 7.4-1.1 14.25.05 2.6.35 5.05l.15 1.45q1.65 12.35 7.05 29.25l.1.4q4.1 12.8-.9 23.35l-.05.2q-1.7 3.45-4.35 6.6-2.8 1.9-4.85-.55 2.95-2.65 4.7-5.8v-.1q2.95-5.4 2.35-12.35-.5-5.65-2.45-11l-.55-1.85q-1.2-3.9-2.4-9.35-1.5-6.8-2.1-21.15-.45-10.5 1.4-19 .7-3.2 1.75-6.1 3.8-10.65 4.1-15.25.2-3.65-.1-9.95-.25-4.2 5-3.65 4.75.5 14.3 8.65" fill="#caa271" fill-rule="evenodd" transform="translate(1.5 1.5)"/><path d="M56 12.7q-6.15-7.85-12.4-6.05-7.7 2.15-11.4-2.2-3.75-4.4-7.05-2.2-3.35 2.2-3.9 8.85L19.8 28.15q-.85 10.5-5.05 16.2 6.5-7.65 10.6-16.3M56 12.7l2.65 3.85m-14.6 11.5q-6.1-6.25-11.5-3.8-.1 6.35-3.2 19.1L28.1 49.3l-.1.6q-1.25 7.4-1.1 14.25.05 2.6.35 5.05l.15 1.45Q29.05 83 34.45 99.9l.1.4q4.1 12.8-.9 23.35l-.05.2q-1.7 3.45-4.35 6.6-2.8 1.9-4.85-.55l-1.3-2.2m-.7-1.75-.35-1.25-.05-.15-.2-.95-.1-.25-1.7-5.4q-2.7-6.95-7.6-13.1-3.5-4.45-5.95-9.45l-1.8-4-.05-.15m-.7-1.9L2.8 85.8q-2.2-8.25-.7-16.6.4-2.35 1.1-4.7l.1-.35q2.35-7.7 7-14.25l.4-.6 3.2-3.95.85-1m33.6-19.8q-4.7-5.9-10.45-7.15-5.8-1.25-5.4 5l.05 1.85" fill="none" stroke="#943d27" stroke-linecap="round" stroke-linejoin="round" stroke-width="3"/><path d="m23.1 127.7-.7-1.75M4.6 91.25l-.7-1.9m12 2.25q-1.05-.6-2.2-.95-5.05-1.7-9.1.6m11.25 6.65Q14.1 96.3 12 95.6l-5.55-.2m9.4 2.5q2.25 2 3.85 5.6l.25.5q2.5 5.9 1.2 11L20 117.95m6.35-6.25q.05-5.05-2.45-10.7l-2.05-3.7q-2.5-3.85-5.95-5.7m5.8 31.75q2.8-2.65 4.05-7.15.55-2.2.6-4.5" fill="none" stroke="#943d27" stroke-linecap="round" stroke-linejoin="round" stroke-width="2"/></g><g id="r"><path d="M26.15 8.95 25 10.15l-.35.4q-5.15 6.25-6.4 12.3l-.25 1.3Q16.7 32.6 14.9 37T9 43.65q-2.75 1.45-5.55 1.3l-2.3-.4Q.6 44.1.3 43.45l3.95-.1q5.15-.95 7.75-6.3 3.1-6.25 4.05-11.65l.25-1.65q.6-6.05 3-11.8v-.05q2.35-5.75-2.35-7.3 2.8-2.5 6.45-4.6l2.75 8.95" fill="#ac5a28" fill-rule="evenodd" transform="translate(1.5 1.5)"/><path d="M16.95 4.6q4.7 1.55 2.35 7.3v.05q-2.4 5.75-3 11.8l-.25 1.65Q15.1 30.8 12 37.05q-2.6 5.35-7.75 6.3l-3.95.1q-.2-.4-.25-.95l4.7-.15q1.15-.4 2.35-1.15 3.25-2.05 5.35-6.9 1.6-3.6 2.7-7.8l.65-2.9q1.25-5.9 1.15-9.75v-.05q-.1-3.85-1.45-4.25-1.4-.35-3.05.4 1.85-2.9 4.5-5.35" fill="#caa271" fill-rule="evenodd" transform="translate(1.5 1.5)"/><path d="M12.45 9.95q1.65-.75 3.05-.4 1.35.4 1.45 4.25v.05q.1 3.85-1.15 9.75l-.65 2.9q-1.1 4.2-2.7 7.8-2.1 4.85-5.35 6.9-1.2.75-2.35 1.15l-4.7.15-.05-.8q-.05-3.15 2.85-8.9l4.05-9.3 2.8-7.8q1-3.1 2.75-5.75" fill="#fff" fill-rule="evenodd" transform="translate(1.5 1.5)"/><path d="m26.5 11.65 1.15-1.2M24.9 1.5q-3.65 2.1-6.45 4.6-2.65 2.45-4.5 5.35-1.75 2.65-2.75 5.75L8.4 25l-4.05 9.3q-2.9 5.75-2.85 8.9l.05.8q.05.55.25.95.3.65.85 1.1l2.3.4q2.8.15 5.55-1.3 4.1-2.25 5.9-6.65 1.8-4.4 3.1-12.85l.25-1.3q1.25-6.05 6.4-12.3" fill="none" stroke="#943d27" stroke-linecap="round" stroke-linejoin="round" stroke-width="3"/></g><g id="e" fill-rule="evenodd"><path d="M-121.2 34.9q-4.95-1.35-8.15-4.25h1.85q-2.95-5.3-1.45-12.15l1.15 2.75q5-4.2 4.1-7.5-.5-1.95.2-4.2.5 3.9 2.7 5.1 4.55-1.6 4.75-5 .15-3.4 0-6.65-.2-3.2 1.75-5.45-.45 3.1 1.25 6.85 1.7 3.7.95 7.5 4.05-1.15 5.6-4.55.55 3.55-.05 7.65-.65 4.05 4.4 4.6-.5-1.35-.1-2.25.4-.95.3-2.95 2.05 3.55 1.65 7.55-.2 1.75-1.15 3l-.4.45q-1.25 1.35-3.3 2.45 1.4.9 2.8.9-2.35 4.35-6.2 5.9 2.95-2.05 2.9-6.75-1.65 1.7-3.3 1.5 2.6-2.85 1.55-4.8-1.05-2-.75-3.1-1.35.55-2.75 2.05-1-1.65-.4-3.45-1.5.35-1.75 1.85.9-7.55-2.1-10.55.5 7.4-3.55 9-.15-1.85.6-3.9-6.7 3.5-6.45 8.9.15 2.65 1.85 5.55-2.5 2.55 1.5 3.95" fill="#ff8033" transform="translate(131.2 7.55)"/><path d="M-108.55 34.65q3.85-1.55 6.2-5.9-1.4 0-2.8-.9 2.05-1.1 3.3-2.45l.4-.45q.95-1.25 1.15-3 .4-4-1.65-7.55.1 2-.3 2.95-.4.9.1 2.25-5.05-.55-4.4-4.6.6-4.1.05-7.65-1.55 3.4-5.6 4.55.75-3.8-.95-7.5-1.7-3.75-1.25-6.85-1.95 2.25-1.75 5.45.15 3.25 0 6.65-.2 3.4-4.75 5-2.2-1.2-2.7-5.1-.7 2.25-.2 4.2.9 3.3-4.1 7.5l-1.15-2.75q-1.5 6.85 1.45 12.15h-1.85q3.2 2.9 8.15 4.25l1.4.45.2.05q-9-1-11.2-6.5l1.85 1.25q-1.8-2.65-2.2-6.4-.4-3.8 2.85-8.4-.45 1.35 0 2.7 4.9-4 3.25-7.95-1.8-4.25 2.7-6.15-1.9 4.9 1.75 8.85 4-1.45 3.5-9.1-.55-7.65 4.85-11.25-1.05 5.3 1.05 8.55 2.1 3.2.7 7.75 3.35-.65 3.95-6.15 2.35 4.15 1.7 7.85-.85 5 1.65 6.4-.95-1.15.15-2.8.85-1.2.7-2.85 2.25 3.25 3.3 8.45 1 5.2-4.05 8.05 1.85.05 3.7-1.15-2.4 7.4-11.5 9.15l1.7-.65.05-.05.6-.35" fill="#e71801" transform="translate(131.2 7.55)"/><path d="M-121.2 34.9q-4-1.4-1.5-3.95-1.7-2.9-1.85-5.55-.25-5.4 6.45-8.9-.75 2.05-.6 3.9 4.05-1.6 3.55-9 3 3 2.1 10.55.25-1.5 1.75-1.85-.6 1.8.4 3.45 1.4-1.5 2.75-2.05-.3 1.1.75 3.1 1.05 1.95-1.55 4.8 1.65.2 3.3-1.5.05 4.7-2.9 6.75l-.6.35-.05.05-1.7.65q-3.25.9-8.3-.2l-.4-.1-.2-.05-1.4-.45" fill="#fee221" transform="translate(131.2 7.55)"/></g><g id="s"><path d="M24.3 36.75h-2.95l-4.75-.85q-1.45-.35-2.85-1.1l-1.2-.7q-1.65-1-3.25-2.55l-.9-.9q-2.05-2.2-2.95-4.7-1-2.6-1.35-5.6-.35-3.05-.7-4.15l-1.05-3.45Q1.05 8.35 0 6.45L18.9 0v.9q0 2.6.3 4.3l.25 1.2q.45 1.4 1.4 2.65 1.3 1.75 3.5 3.35-2.65.2-4.95-1.45-2.35-1.65-4.35-.15l-3.95 3.1q-1.05.9-2.3 1.3l-2.25.3q-.55.3-.25 1.25l.65 6.05q.3 2.75 1.55 4.95l.8 1.15q1.15 1.4 2.95 2.6l4.15 2.45.35.15q2.75 1.5 5.7 1.45l.95-.05.95-.35q2.35-.85 1.5-4l-.3-1 .3.55.3.55-.1-.25-.2-.35v-.05h-.05l-.55-1 .05-.05.05.05.1.1.7.7v.1l1.25 1.55.65 1.5.05.35q2.95.45 3.25-2.2l.05-2.25-.2-1.45-.4-1.1.5.85.55 1.7.05.15.05.35.15 2.45q-.1.3.1.5l.3.3-.65 1.05-.65.65q-1.35 1.1-3.05 1.3l-1.05-2.95-1.15-2 .2.8q0 3.5-1.15 4.6l-.7.1m9.55-16.55.85 1.15.95 1.85q.85 1.9.6 3.9-.3 1.95-1.55 2.95L33 31.6l.45-1.45v-.05l-.2-.6 1.15-1.8q.65-1.25.1-3.55l-.4-1.55-.65-2.3.4-.1M28.1 34v-.1q-.2.1 0 .1" fill="#ac5a28" fill-rule="evenodd" transform="translate(1.5 1.5)"/><path d="m24.35 12.4.05.05 4 2.8 3.15 2.5 1.75 1.85.15.7.65 2.3.4 1.55q.55 2.3-.1 3.55l-1.15 1.8q-.45-1.15-1.65-2.25l-.9-.65-.15-.2-.25-.15.15.15.25.35.1.15.4 1.1.2 1.45-.05 2.25q-.3 2.65-3.25 2.2l-.05-.35-.65-1.5-1.25-1.55v-.1l-.7-.7-.1-.1 1.15.75 1.8 1.9q.9-1.3.75-2.8l-.3-1.45q-.65-1.8-1.5-3.25L24.7 21.7l-2.85-2.35q-1.3-1.05-3.45-1.1-2.15-.1-3.65-1.35-1.55-1.3-3.25-1.35l-2.7.25-.15.1q-1.5.5-1.55 2.1 0 1.55.35 2.75.6 2.1 1.6 4.1l.3.5q.75 1.55 2 2.95l1.8 1.7q1.65 1.45 3.5 2.3l1.9.85 2 .85 3.9-.15q.85-.35.7-1.35l-.05-1.65.1-1.25h.05l.55 1h.05v.1l-.3-.55.3 1q.85 3.15-1.5 4l-.95.35-.95.05q-2.95.05-5.7-1.45l-.35-.15-4.15-2.45q-1.8-1.2-2.95-2.6l-.8-1.15q-1.25-2.2-1.55-4.95l-.65-6.05q-.3-.95.25-1.25l2.25-.3q1.25-.4 2.3-1.3l3.95-3.1q2-1.5 4.35.15 2.3 1.65 4.95 1.45" fill="#caa271" fill-rule="evenodd" transform="translate(1.5 1.5)"/><path d="m25.2 29.6-.1 1.25.05 1.65q.15 1-.7 1.35l-3.9.15-2-.85-1.9-.85q-1.85-.85-3.5-2.3l-1.8-1.7q-1.25-1.4-2-2.95l-.3-.5q-1-2-1.6-4.1-.35-1.2-.35-2.75.05-1.6 1.55-2.1l.15-.1 2.7-.25q1.7.05 3.25 1.35 1.5 1.25 3.65 1.35 2.15.05 3.45 1.1l2.85 2.35 2.55 3.05q.85 1.45 1.5 3.25l.3 1.45q.15 1.5-.75 2.8l-1.8-1.9-1.15-.75-.05-.05-.05-.05-.3-.25.25.3v.05" fill="#fff" fill-rule="evenodd" transform="translate(1.5 1.5)"/><path d="M33 31.6q.55.4.45 1.1l-.35.45-.5.1-.1-.05-.3-.3q-.2-.2-.1-.5l-.15-2.45-.05-.35-.05-.15-.55-1.7-.5-.85-.1-.15-.25-.35h.1l.15.2.9.65q1.2 1.1 1.65 2.25l.2.6v.05L33 31.6m-4.85 4.6h-.75l-.5.45-.5.15-.45-.3-.05-.15-.1-.3-.05.35-.75.25q1.15-1.1 1.15-4.6l-.2-.8 1.15 2 1.05 2.95" fill="#943d27" fill-rule="evenodd" transform="translate(1.5 1.5)"/><path d="M25.25 29.6h-.05v-.05l-.25-.3.3.25.05.05-.05.05m5.2-3.2-.15-.15.25.15h-.1M28.1 34q-.2 0 0-.1v.1" fill="#7f080a" fill-rule="evenodd" transform="translate(1.5 1.5)"/><path d="M25.8 38.25h-2.95l-4.75-.85q-1.45-.35-2.85-1.1l-1.2-.7q-1.65-1-3.25-2.55l-.9-.9q-2.05-2.2-2.95-4.7-1-2.6-1.35-5.6-.35-3.05-.7-4.15l-1.05-3.45q-1.3-4.4-2.35-6.3L20.4 1.5v.9q0 2.6.3 4.3l.25 1.2q.45 1.4 1.4 2.65 1.3 1.75 3.5 3.35l.05.05 4 2.8 3.15 2.5 1.75 1.85.55.6.85 1.15.95 1.85q.85 1.9.6 3.9-.3 1.95-1.55 2.95l-1.7 1.55m-.5 1.6-.65 1.05-.65.65q-1.35 1.1-3.05 1.3h-.75m-1.5.15-.15.05-.75.25" fill="none" stroke="#943d27" stroke-linecap="round" stroke-linejoin="round" stroke-width="3"/></g><g id="t"><path d="M3.2 20.3q.2-.85.55-1.4l.1-.2.05-.15.05-.1.4-.85.15-.5q-.15-.15-1.15.75L3.2 18l-.05.1-.2.2-.2.2q-.85 1.2-1.05 3.6v.05l.2 1.5Q-.6 22.6.15 18.9q.8-4.3 3.6-8.15 2.8-3.9 7.75-5.1Q13.6 5.1 15 3.9q2.65 1.3 3.65 2.15.6.55.85 1.55l.1 1.2q0 1.75-.95 3.75-.55 1.15-.8 2.45l-.2 2.2q-.1 2.65-2.75 4.5-1.9 1.3-3.3 1.7l-1.1.1q-1.8 0-2.35-.6l-.65-.65.1-.85.05-.25.2-1.15.3-1.05-.15-.2-.95 1.45-.25.4-.15.3-.3.75h-.3l-.45.2h-.05l-.15.05q-1.6-.05-2.05-1.05l-.15-.55" fill="#fff" fill-rule="evenodd" transform="translate(1.5 1.5)"/><path d="m1.9 23.65-.2-1.5v-.05q.2-2.4 1.05-3.6l.2-.2.2-.2.05-.1.15-.15q1-.9 1.15-.75l-.15.5-.4.85-.05.1-.05.15-.1.2q-.35.55-.55 1.4v.45l-.1 1.35v.15l.2 1.4v.55l-.4.3h-.5q-.3-.1-.35-.4l-.15-.45m4.45-2 .3-.75.15-.3.25-.4.95-1.45.15.2-.3 1.05-.2 1.15-.05.25-.1.85-.05.85q0 .5.15.95.1.6.55 1.05l.15.5-.15.45-.05.05-.5.15q-.3 0-.45-.2l-.2-.25q-.6-.75-.8-1.8l-.05-.1-.05-.8q0-.7.3-1.45" fill="#943d27" fill-rule="evenodd" transform="translate(1.5 1.5)"/><path d="M3.35 20.85q.45 1 2.05 1.05l.15-.05h.05l.45-.2h.3q-.3.75-.3 1.45l.05.8q-1.15.05-1.9-.45-.7-.4-1.1-1.2l.1-1.4h.15m4.15 1.4.65.65q.55.6 2.35.6l1.1-.1q1.4-.4 3.3-1.7 2.65-1.85 2.75-4.5l.2-2.2q.25-1.3.8-2.45.95-2 .95-3.75l-.1-1.2q-.25-1-.85-1.55-1-.85-3.65-2.15l1.1-1.35q2.25-.45 3.5 1.2.4.55.7 2.65l.1.5q.4 1.55 2.4 1.55h.45L26 8.7q.85.2 1 .9l-.15 1.85q-.25 1.15-1.55 2.2-1.35 1-2.2 2.15L21 18.65q-1.2 1.7-2.7 2.8l-3.1 1.95-1.95.85-1.85.4q-2.35.4-3.8-.6-.15-.45-.15-.95l.05-.85" fill="#caa271" fill-rule="evenodd" transform="translate(1.5 1.5)"/><path d="m2.9 24.5.4-.3v-.55l-.2-1.4q.4.8 1.1 1.2.75.5 1.9.45l.05.1q.2 1.05.8 1.8-2.2.7-3.25-.25l-.65-.75-.15-.3M16.1 2.55q.7-1.1 1-2.55l12.45 2.1.7 2.8.45 3.95q0 3.1-2.25 5.35-4.25 3.45-8.2 8.2-1.9 2.25-3.6 3.45-1.95 1.3-3.75 1.3-3.4-.1-4.75-1.1l.15-.45-.15-.5q-.45-.45-.55-1.05 1.45 1 3.8.6l1.85-.4 1.95-.85 3.1-1.95q1.5-1.1 2.7-2.8l2.1-2.85q.85-1.15 2.2-2.15 1.3-1.05 1.55-2.2L27 9.6q-.15-.7-1-.9l-2.75-.25h-.45q-2 0-2.4-1.55l-.1-.5q-.3-2.1-.7-2.65-1.25-1.65-3.5-1.2" fill="#ac5a28" fill-rule="evenodd" transform="translate(1.5 1.5)"/><path d="M16.5 5.4Q15.1 6.6 13 7.15q-4.95 1.2-7.75 5.1-2.8 3.85-3.6 8.15-.75 3.7 1.75 4.75m6.25 2.4q1.35 1 4.75 1.1 1.8 0 3.75-1.3 1.7-1.2 3.6-3.45 3.95-4.75 8.2-8.2 2.25-2.25 2.25-5.35l-.45-3.95-.7-2.8L18.6 1.5q-.3 1.45-1 2.55L16.5 5.4M8.45 27.3q-2.2.7-3.25-.25l-.65-.75-.15-.3" fill="none" stroke="#943d27" stroke-linecap="round" stroke-linejoin="round" stroke-width="3"/></g><g id="u"><path d="M9.4 10.35h1.35l.7-.1 2.95-.45q2.05-.25 4.95.95l.9.3q2.5.8 5.5.85 3.5.05 8.85-2.55l.3-.15q5.1-2.5 6.65-2.95 1.6-.55 4.1-.95l3.1-.3 1.6-.1q0 1.05.35 1.1l-1.6-.1-3.8.2q-2.7.4-8.75 3.5l-.95.55q-5.4 2.55-8.8 2.5l-4.75-.45-2.15-.5-.35-.1-4.7-.8-.75-.05q-1.5 0-3.55.75l-2.4 1.05 1.25-2.2" fill="#c27a48" fill-rule="evenodd" transform="translate(1.5 1.5)"/><path d="M50.4 4.9h-.05l-1.6.1-3.1.3q-2.5.4-4.1.95Q40 6.7 34.9 9.2l-.3.15q-5.35 2.6-8.85 2.55-3-.05-5.5-.85l-.9-.3q-2.9-1.2-4.95-.95l-2.95.45-.7.1H9.4l1.2-1.7Q17.05.1 29.5 0q12.35-.15 20.2 2.8l.7 2.1m.3 1.1h.1q2.6 8.5 5.4 21.55 3.35 15.65-4.3 23.55-3.8 3.9-9.15 6.15l.2-2.1 3.5-2 1.25-.95.9-.65q7.75-6.35 7.15-16.7-.55-8.95-5.35-24.65l-1.3-4.3 1.6.1" fill="#ac5a28" fill-rule="evenodd" transform="translate(1.5 1.5)"/><path d="M32.35 58.2q5.75-.65 10.6-3.05l-.2 2.1q-5.5 2.25-12.7 2.8l-.8.05 3.1-1.9" fill="#a84317" fill-rule="evenodd" transform="translate(1.5 1.5)"/><path d="m6.5 53.8-.15-2.5q1.8 1.75 4.25 3 9.2 4.55 19.75 4.05l2-.15-3.1 1.9Q15.5 61 7.1 54.3l-.6-.5" fill="#d87439" fill-rule="evenodd" transform="translate(1.5 1.5)"/><path d="M6.35 51.15q-.3-9.55 4.55-15.75 4.8-6.25 13.3-6.7 8.5-.45 13.7 7.4 2.55 3.85 3.85 8.1-1.4 5.45-4.5 9.2-2.55 2.95-4.9 4.8l-2 .15q-10.55.5-19.75-4.05-2.45-1.25-4.25-3v-.15" fill="#f8c391" fill-rule="evenodd" transform="translate(1.5 1.5)"/><path d="M50.4 10.2q-.15 0-.55.4-.4.3-.5 2.2l.2 8.05q.2 6.2-2.1 10.35-2.4 4.15-2.95 6.8-.55 2.65 1.4 5.85 1.95 3.25 4.75 3.35l-.7 1.7q-.65 1.65-3.5 4.25l-3.5 2 .05-1.8q.05-4.8-1.25-9.15l.65-3.9q1-8.15.1-12.8-.95-4.75-4.05-8.6-3.1-3.9-8.8-4.95l-7.6-1.75 4.75.45q3.4.05 8.8-2.5l.95-.55q6.05-3.1 8.75-3.5l3.8-.2 1.3 4.3" fill="#caa271" fill-rule="evenodd" transform="translate(1.5 1.5)"/><path d="M46.45 53.15q2.85-2.6 3.5-4.25l.7-1.7q-2.8-.1-4.75-3.35-1.95-3.2-1.4-5.85.55-2.65 2.95-6.8 2.3-4.15 2.1-10.35l-.2-8.05q.1-1.9.5-2.2.4-.4.55-.4 4.8 15.7 5.35 24.65.6 10.35-7.15 16.7l-.9.65-1.25.95m-4.7-8.95q1.3 4.35 1.25 9.15l-.05 1.8q-4.85 2.4-10.6 3.05 2.35-1.85 4.9-4.8 3.1-3.75 4.5-9.2M7.6 13.1q1.35-.7 2.7-1.25L7.2 16.7q-5.15 8.4-5.5 20.75-.25 8.9 4.6 13.75l.05.1.15 2.5q-8-6.9-6.15-20.3 1.6-11.1 7.25-20.4" fill="#c47c41" fill-rule="evenodd" transform="translate(1.5 1.5)"/><path d="m22.05 12.2 7.6 1.75q5.7 1.05 8.8 4.95 3.1 3.85 4.05 8.6.9 4.65-.1 12.8l-.65 3.9q-1.3-4.25-3.85-8.1-5.2-7.85-13.7-7.4-8.5.45-13.3 6.7-4.85 6.2-4.55 15.75l-.05.05q-4.85-4.85-4.6-13.75.35-12.35 5.5-20.75l3.1-4.85q2-.75 3.85-1l.7-.05 4.7.8.35.1 2.15.5" fill="#fff" fill-rule="evenodd" transform="translate(1.5 1.5)"/><path d="m51.9 6.4-.7-2.1Q43.35 1.35 31 1.5q-12.45.1-18.9 8.65l-1.2 1.7-.1.2-1.3 1.9-.4.65Q3.45 23.9 1.85 35 0 48.4 8 55.3l.6.5q8.4 6.7 22.15 5.8l.8-.05q7.2-.55 12.7-2.8 5.35-2.25 9.15-6.15 7.65-7.9 4.3-23.55Q54.9 16 52.3 7.5v-.05l-.4-1.05z" fill="none" stroke="#943d27" stroke-linecap="round" stroke-linejoin="round" stroke-width="3"/><path d="M6.8 19.1q.55 2.75 3.45 3.7l1.85.35 1.95-.3q.05 1.55.85 2.55l.1.15q1.05 1.3 3.05 1 1.85-.35 2.9-1.5Q22 23.9 22.6 22.4l.25-.95q.25 3.5-2.9 5.3-3.4 2-5.6-.25l-1.2-1.55-.85-.1q-2.4-.4-3.85-2.25-1.35-1.65-1.65-3.5m9.4 1.5-1.6.65h-.05l-.1.05-2.55.45-1.2-.2q-2.9-1-2.6-4.5.2-2.5 2.9-3.6l2-.55v.05q-1.15.3-2 .8-2.25 1.25-2.25 3.6 0 3.45 3.1 3.75h.5l3.85-.5" fill="#ac5a28" fill-rule="evenodd" transform="translate(1.5 1.5)"/><path d="m22.4 20.8-2.3 3.1q-.95 1.05-2.3 1.25-1.2.2-1.8-.6l-.05-.1q-.55-.8-.45-2.05l3.1-1.95.2.1-.75 1.1q-1 1.05-1.25 1.7l-.05.2q-.15.65 1.25.45 1.35-.15 2.55-1.25l1.85-1.95m-3.2-1.75-.7.4-2.3 1.15-3.85.5h-.5q-3.1-.3-3.1-3.75 0-2.35 2.25-3.6.85-.5 2-.8.35 1.25 1.25 2.35l1 1.15q-1.7-.45-2-1.15-.3-.75-1.9-.55h-.25q-1.4.3-1.4 2.65 0 1.4.9 2.2.45.4 1.1.6l1.4.1q1.55-.1 3.3-1.45 1.75-1.35 2.05-1.35.75 0 .75 1.15v.4" fill="#caa271" fill-rule="evenodd" transform="translate(1.5 1.5)"/><path d="m6.8 19.1-.15-1.3.05-.3v-.55q.2-3.55 4.15-4.9.9-.4 2.05-.55.2-3.3 3.05-3.7 3.45 0 6.25 5.2.2.7-1.5-1.3-1.75-2-4.55-2.5h-.05q-1.85.3-1.85 2.8v.1q.1 1.1 1.25 4.5l-.25-.15-1-1.15q-.9-1.1-1.25-2.35v-.05l-2 .55q-2.7 1.1-2.9 3.6-.3 3.5 2.6 4.5l1.2.2 2.55-.45.1-.05h.05l1.6-.65 2.3-1.15.7-.4q.9-.5.6-.25 0 .45-.8 1.25l-.4.4-3.1 1.95q-.1 1.25.45 2.05l.05.1q.6.8 1.8.6 1.35-.2 2.3-1.25l2.3-3.1.35-.45.1-.25.15-.2.05.35-.2 1.2-.25.95q-.6 1.5-1.65 2.65-1.05 1.15-2.9 1.5-2 .3-3.05-1l-.1-.15q-.8-1-.85-2.55l-1.95.3-1.85-.35q-2.9-.95-3.45-3.7" fill="#943d27" fill-rule="evenodd" transform="translate(1.5 1.5)"/></g><g id="v"><path d="M1.55 7.35q.2-.1.45.15 9.1 6.6 24.45 9.85-12.7-.1-24.75-8.4l-.5-.4-.3-.4q0-.3.15-.55.2-.2.5-.25m39.7 8.45-3.4.95 2.6-.95Q50.25 12 56.3 4.05q.2-.25.5-.3h.05l.45.15.25.45-.1.5-.45.55q-6.05 7.65-15.75 10.4" fill="#ab7a07" fill-rule="evenodd" transform="translate(1.5 1.5)"/><path d="m50.05 14.6-3.6.9-5.2.3Q50.95 13.05 57 5.4l.3 1.6q-2.6 4.5-7.25 7.6m-9.6 1.2q-.55-.75.5-2.2 1-1.5 3.2-2.6 7.7-3.5 12.6-11-.15 1.7.1 3.75h-.05q-.3.05-.5.3Q50.25 12 40.45 15.8" fill="#fff55f" fill-rule="evenodd" transform="translate(1.5 1.5)"/><path d="M8.5 15.3q3.35 1.8 7.3 3 7.85 2.4 16.15 1.95 8.3-.55 14.9-3.8l3.2-1.85Q54.7 11.5 57.3 7l.25.95q1.4 6.05-.35 10.35l-.3 1.55q0 .95.7 2.55.7 1.6.7 2.65 0 1.55-.8 3.1-.95 1.7-2.75 3.35l-1.6 1.3q-.65-1.75-2.8-2.25l-1.25-.2-.8-.9-1.05-.3-2.1-.3-2.05.05q-.85.1-1.55-1.15l1.75-.9h-.5l-1.5.4L40.2 25l-.2-1.6-1.1-.1-3.7.45q-.45.6.75 1.35 1.25.75 1.35 1.4l.25.9q-1.4-.2-4.2-2.2l-.5.6-.2.05-.35.3q-4-2.3-5.1-3.9-.65 1.45-1.7 2.5l-.4-.25q-.3-.05-.5.2-.2.1-.15-.75-2.4 2.55-6.9 3.85l-.05.05.15.05q2.05 1.05 3.6 1.05l1.8-.2.3 1.4v.2q-.1 1.75-1.3 3.4l-5.35.55q-4-2.55-5.25-6.4v-.55h.35L13.6 29q1.2 1.1 1.95 1.1.9-.1 1-.85V29l-.05-.15q-.65-1.95 3.6-6.55l-.55-.25-2.3-1.05-3.05-1.55q-3.9-2.05-5.7-4.15m43.9 9.85q1.7-1.05 4.25-5.7l.55-1.15-.55 1.15q-2.55 4.65-4.25 5.7M39.95 35.4l-1.4-.6q-1.65-.6-2.15-1.7-.6-1.1-.5-2.15l-.05-.45q-.1-.6-.8-1.25l-2.3-2.55q3.45 2.1 6.1 1.7.75.4.75.9l-.25.8-.2.15q-.5.1-.5.5 0 1.3.65 1.95.1.2.8.4.55.15.55.5 0 1.05-.7 1.8" fill="#118f8e" fill-rule="evenodd" transform="translate(1.5 1.5)"/><path d="M1.7 8.95q12.05 8.3 24.75 8.4Q11.1 14.1 2 7.5q-.25-.25-.45-.15L.6 3.65 0 1.3q2.35 5.4 12.1 9.85 9.9 4.5 23.65 2.3 4.55-.75 8.4-2.45-2.2 1.1-3.2 2.6-1.05 1.45-.5 2.2l-2.6.95 3.4-.95 5.2-.3 3.6-.9-3.2 1.85q-6.6 3.25-14.9 3.8-8.3.45-16.15-1.95-3.95-1.2-7.3-3-1.8-1-3.5-2.2l-3.3-2.6V8.95" fill="#ffeb27" fill-rule="evenodd" transform="translate(1.5 1.5)"/><path d="M1.7 10.5 5 13.1q.45 2.45 3.85 4.65 3.45 2.1 4.65 2.35.2 2.25-1.55 2.8l-1.3.4-.65.2q-.2.1-.3 1.8-.05 1.6 1.7 4.2 1.65 2.55 4.05 4.7-6.1-.55-9.3-3.65.3-2.8-2.45-5.7Q.9 22 1.3 17.5l.4-7m35.85 16.9-.25-.9q-.1-.65-1.35-1.4-1.2-.75-.75-1.35l3.7-.45 1.1.1.2 1.6 1.1 2.25-3.75.15m4 .35q.7 1.25 1.55 1.15l2.05-.05 2.1.3 1.05.3.8.9 1.25.2q2.15.5 2.8 2.25l-3.9 2.9q-1.9.9-3.3 1.15l-2.75-.15-3.25-1.3q.7-.75.7-1.8 0-.35-.55-.5-.7-.2-.8-.4-.65-.65-.65-1.95 0-.4.5-.5l.2-.15.25-.8q0-.5-.75-.9l2.7-.65" fill="#adeaeb" fill-rule="evenodd" transform="translate(1.5 1.5)"/><path d="M5 13.1q1.7 1.2 3.5 2.2 1.8 2.1 5.7 4.15L17.25 21l2.3 1.05.55.25q-4.25 4.6-3.6 6.55l.05.15v.25q-.1.75-1 .85-.75 0-1.95-1.1l-1.8-1.65h-.35v.55q1.25 3.85 5.25 6.4l-.85-.1h-.4q-2.4-2.15-4.05-4.7-1.75-2.6-1.7-4.2.1-1.7.3-1.8l.65-.2 1.3-.4q1.75-.55 1.55-2.8-1.2-.25-4.65-2.35-3.4-2.2-3.85-4.65" fill="#179c9b" fill-rule="evenodd" transform="translate(1.5 1.5)"/><path d="m17.65 27.9-.15-.05.05-.05q4.5-1.3 6.9-3.85-.05.85.15.75.2-.25.5-.2l.4.25.05.05.15.5-.2.45-.45.45q-3.6 1.6-5.75 1.7h-1.65m14.65-1.75.35-.3.2-.05.5-.6q2.8 2 4.2 2.2l3.75-.15 1.5-.4h.5l-1.75.9-2.7.65q-2.65.4-6.1-1.7l.05.5-.05-.05-.45-.35q-.15-.3 0-.5v-.15" fill="#156a6a" fill-rule="evenodd" transform="translate(1.5 1.5)"/><path d="M22.05 33.75q1.2-1.65 1.3-3.4v-.2l-.3-1.4-1.8.2q-1.55 0-3.6-1.05h1.65q2.15-.1 5.75-1.7.2 2.05-.25 4.35l-.5 1.75q-.8.95-2.25 1.45" fill="#0f7078" fill-rule="evenodd" transform="translate(1.5 1.5)"/><path d="m17.5 27.85.05-.05-.05.05" fill="#7f080a" fill-rule="evenodd" transform="translate(1.5 1.5)"/><path d="M3.2 10.45V12l3.3 2.6q1.7 1.2 3.5 2.2 3.35 1.8 7.3 3 7.85 2.4 16.15 1.95 8.3-.55 14.9-3.8l3.2-1.85Q56.2 13 58.8 8.5l-.3-1.6m-12.85 5.6q-3.85 1.7-8.4 2.45-13.75 2.2-23.65-2.3Q3.85 8.2 1.5 2.8l.6 2.35.95 3.7m42.6 3.65q7.7-3.5 12.6-11-.15 1.7.1 3.75" fill="none" stroke="#ab7a07" stroke-linecap="round" stroke-linejoin="round" stroke-width="3"/><path d="M16.95 35.7q-6.1-.55-9.3-3.65.3-2.8-2.45-5.7Q2.4 23.5 2.8 19l.4-7m15 23.8 5.35-.55q1.45-.5 2.25-1.45l.5-1.75q.45-2.3.25-4.35m.45-1.45q1.05-1.05 1.7-2.5 1.1 1.6 5.1 3.9m20.85 6.65 1.6-1.3q1.8-1.65 2.75-3.35.8-1.55.8-3.1 0-1.05-.7-2.65-.7-1.6-.7-2.55l.3-1.55-.55 1.15q-2.55 4.65-4.25 5.7M16.95 35.7h.4l.85.1M58.8 8.5l.25.95q1.4 6.05-.35 10.35m-4.05 14.5-3.9 2.9q-1.9.9-3.3 1.15l-2.75-.15-3.25-1.3-1.4-.6q-1.65-.6-2.15-1.7-.6-1.1-.5-2.15l-.05-.45q-.1-.6-.8-1.25l-2.3-2.55" fill="none" stroke="#156a6a" stroke-linecap="round" stroke-linejoin="round" stroke-width="3"/></g><g id="w"><path d="M2.65 40.2q.75.55 3.05 1 2.25.35 7-1.2l1.1-.4 1.45-.55q4.55-2.15 7.35-6.35 3.25-4.95 2.2-8.95-.55-2.1-1.65-3.95-1.1-1.85-2.75-3.5l-3.1-3.1-5.1-4.95q-4.9-4.6-8.35-4.1V0q9.45 7.1 14.8 12.55 2.9 2.95 4.55 5.35l.6.9q4.05 6.4 2.4 11.4-1.8 5.4-9.15 9.6l-.95.55-1.85.9q-5.7 2.35-10.35.7-3.05-1.1-3.7-3.1 1.25 1.15 2.35 1.3l.1.05" fill="#ac5a28" fill-rule="evenodd" transform="translate(1.5 1.5)"/><path d="M3.85 4.15q3.45-.5 8.35 4.1l5.1 4.95 3.1 3.1q1.65 1.65 2.75 3.5t1.65 3.95q1.05 4-2.2 8.95-2.8 4.2-7.35 6.35l-1.45.55-1.1.4q-4.75 1.55-7 1.2-2.3-.45-3.05-1l.1-.05.7-.05q2 .85 8.65-.95h.05l2.65-.95q4.7-2.2 7.65-7.1 3.1-5.3.15-10.45l-1.45-2-4.5-5.15-4.15-4.15Q8.65 5.65 3.85 4.6v-.05h-.6L3.2 4l.65.15" fill="#c27a48" fill-rule="evenodd" transform="translate(1.5 1.5)"/><path d="M3.85 4.6q4.8 1.05 8.65 4.75l4.15 4.15 4.5 5.15 1.45 2q2.95 5.15-.15 10.45-2.95 4.9-7.65 7.1l-2.65.95h-.05q-6.65 1.8-8.65.95 3.45-.5 6.1-5.7l1.8-3.15q2.05-3.15 4.15-4.2 2.9-1.6.95-8.1L13.7 15q-3.8-4.7-6.85-4.55-1.2 1.05-.3 8l.05.5.25 1.9-.5-2.3-1.4-4.65-.05-.2-1.05-3.15V4.6" fill="#caa271" fill-rule="evenodd" transform="translate(1.5 1.5)"/><path d="M2.55 40.15Q1.45 40 .2 38.85q-.6-1.85.7-4.4 1.75-3.5 6.65-6.75.15-2.65-.7-6.85l-.25-1.9-.05-.5q-.9-6.95.3-8Q9.9 10.3 13.7 15l2.75 3.95q1.95 6.5-.95 8.1-2.1 1.05-4.15 4.2l-1.8 3.15q-2.65 5.2-6.1 5.7l-.7.05h-.2M14.4 23.9q-2.7 1.25-5 2.65L7.55 27.7l1.85-1.15q2.3-1.4 5-2.65" fill="#fff" fill-rule="evenodd" transform="translate(1.5 1.5)"/><path d="M1.7 40.35q.65 2 3.7 3.1 4.65 1.65 10.35-.7l1.85-.9.95-.55q7.35-4.2 9.15-9.6 1.65-5-2.4-11.4l-.6-.9q-1.65-2.4-4.55-5.35Q14.8 8.6 5.35 1.5m3.7 27.7 1.85-1.15q2.3-1.4 5-2.65M1.7 40.35q-.6-1.85.7-4.4 1.75-3.5 6.65-6.75.15-2.65-.7-6.85l-.5-2.3-1.4-4.65m-.05-.2-1.05-3.15" fill="none" stroke="#943d27" stroke-linecap="round" stroke-linejoin="round" stroke-width="3"/></g><g id="x"><path d="M87.65 23.65q-2.4.6-7.55.15l-4.95-.5-4.4-.55q-9.25 0-10.55 3.05l-.15-.1q-2.45-2-2.8-4.95.35 2.95 2.8 4.95l.15.1 1.55.85-.05.75h-.05q-1.9.25-3.5-1.1-.8-.6-1.2-1.55-.55-1.35-.65-2.8-.1-1.7.2-3.4.35-2.35 1.95-4.1l2.15-2.7q1.25-2.15.95-4.6l-.15-.85q-.5-1.95-1.9-3.4l-1.45-1.7.4.2q1.15.6 2.15 1.45.85.8 1.35 1.85l.45 1.35.15.9q.45 4.3-2.3 7.95l-1.35 1.7q-1.55 1.85-1.65 4.15l4.9-.65 7.7-.05 2.3.1 3 .2 2.35.3q3.75.7 7.25 1.85l2.9 1.15m11 17.75-5.9-15.2 5 3.2q3.05 2.35 5.7 4.95 2.75 2.8 4.95 5.95 2.2 3 3.85 6.4 1.7 3.55 2.85 7.05 1.25 3.7 1.7 7.6.5 4.15.5 8.2-.05 4.4-.5 8.6-.35 3.25-1.25 6.4L115 86.3l-1.8 5.1q-1.5 3.9-3.5 7.3-2.05 3.55-4.8 6.7l-.45.6q-.7-1.05-1.75-1.85 2.6-2.45 1.95-5.7 2.2-5.8 3.05-11.85l.1-.45q1.15-8.4 1.3-13.5l-.05-13.3Q108.9 51.2 106.6 46q-2.3-5.15-7.95-4.6m-57.7-15.15q1.1 2.85 2.55 3.5l.05.05-.8 1q-2.45-.6-3.45-2.55l-.4-.9v-.05q-.85-2.7-1.7-3.55.1-3-.85-3.85l1.15.9 2.15 2.75.7 1.05.05.2.15.45.35.9.05.1m-2.1 12.25q2.7-.7 5-2.3l.65-.45.35-.3.35-.3q.7.7.7 1.05 0 .55-.9 1.35l-.5.4-1.5 1q-2.75 1.85-2.75 3.1 0 1.1.55 1.8l.6.6v.35l-.9.05-1.25-.05q-1.5-.35-2.45-1.35l.25.85.65 1.35q.7.8 1.9 1.05l4.1-.15q-2.45.95-4.95.85l-.35-.25-1.3-1.2q-1-1.1-1.4-2.35-.8-2.2-2.05-2.3-1.1-.05-2.9-1.2l-.55-.35-.25-.2q-1.25-.85-2.05-.95-.85-.1-1.3.5l-1.9 2.2q-1 .95-7.45 8.35l2.35-4.1q2-3.05 4.45-5.75l3.45-3.6 1.8-1.8q.8 2 2.4 3.3l.15.1.25.2q2 1.3 4.5.9-.3 2.35.2 4.55-.5-2.2-.2-4.55l2.25-.4" fill="#ac5a28" fill-rule="evenodd" transform="translate(1.5 1.5)"/><path d="M60.2 25.8q1.3-3.05 10.55-3.05l4.4.55 4.95.5q5.15.45 7.55-.15l.8.4-2.1.75-8.65.25-2.55-.15-5.4-.2-3-.05q-4.05 0-5 2l-1.55-.85M37.25 47.05l-.2-.15-.1-.1-.55-.4-.3-.3-.75-.85-.6-.8-.7-1.1-1.2-.9-2.7-1-.2-.05-1.8-.5q-2.2.9-4 2.9l-1.8 2.25-.45.6-1.15 1.75-.65.85-.25.35-.1.2-.05.1-.1.1-.55 1-.55 1q-.95 1.85-1.85 4.65-1.7 4.85-2.5 9-.8 4.2-1.5 10.05-.75 5.8-.6 13.9l.2 3.85-.1-.05-.35-.1-1.1-.25 1.1.25.35.1-.35.05-1.1.1-3 .45q-6.55 1.35-6.3 5.1.35 4.8 7.75 3.3-1.65.65-3.2 1.9l-.6.55-.25-.15q-5-2-5.1-5.4-.1-3.1 3.5-5.1 1.9-1.1 4-1.25l3.2.1-.2-3.35q-.15-4 .1-8 .2-4.5.65-8.95l.9-7.3q.55-3.5 1.6-7.05l.6-1.8q.85-2.45 1.85-4.8l1.05-2.15q6.45-7.4 7.45-8.35l1.9-2.2q.45-.6 1.3-.5.8.1 2.05.95l.25.2.55.35q1.8 1.15 2.9 1.2 1.25.1 2.05 2.3.4 1.25 1.4 2.35l1.3 1.2-.15.2-.3-.1-.7-.2m64.7 47.6 2.4-7.8q1.4-5.55 1.65-10.25.4-9.65-.85-16.15-1.3-6.55-4.9-14.95l-1.6-4.1q5.65-.55 7.95 4.6 2.3 5.2 2.45 13.35l.05 13.3q-.15 5.1-1.3 13.5l-.1.45q-.85 6.05-3.05 11.85l-.4-1.45q-.4-1.05-1.05-1.6l-.8-.55-.45-.2M58.05 1.2l1.45 1.7q1.4 1.45 1.9 3.4l.15.85q.3 2.45-.95 4.6l-2.15 2.7q-1.6 1.75-1.95 4.1-.3 1.7-.2 3.4.1 1.45.65 2.8.4.95 1.2 1.55 1.6 1.35 3.5 1.1h.05l1.4-.5q.05.9-.2 1.05-1.5 1.35-3.45 1.35-2.1 0-3.8-1.6-1.9-1.9-1.9-4.8 0-4.1 2.8-7.2 2.7-2.8 2.7-7.5l-.05-1.3q-.5-4-3.9-6.8 1.45.45 2.75 1.1m-15.3 29.6-.65.5q-1.3.95-2.25.95-1.8 0-2.7-1.15l-.45-.85q-.3-.9-.3-2.15v-.35l.55-1.55.15-1.45.1-1q.85.85 1.7 3.55v.05l.4.9q1 1.95 3.45 2.55m2.45 4.35.9-1.05.5-.85.05-.1q1.3.15 1.15 1.95-.1 1.5-2.6 3.4l-.35.25-.4.25-.35.25q-2.85 2-2.95 3.2-.1.65.3 1.1l1.15.75q1.55.55 2.8.5l2.05-.65 1.95-.95-1.65 1.45-2.3 1.3-1.75.6-4.1.15q-1.2-.25-1.9-1.05l-.65-1.35-.25-.85q.95 1 2.45 1.35l1.25.05.9-.05v-.35l-.6-.6q-.55-.7-.55-1.8 0-1.25 2.75-3.1l1.5-1 .5-.4q.9-.8.9-1.35 0-.35-.7-1.05m-28.25 75.3.5.5-.05 1.1-.1.45q-.35 1.3-1.25 2.4-1.45 1.7-1.4 3.25 0 1.55 2.65 1.6l2.55-.15 1.9-.25 1.7 2.5.15.35-.85.05q-11.55 1-10.65-6.3-1.3.6-2.7.65-5.3.3-6.75-4-1.3-3.65 1.9-7.05-2.1 7.15 2.6 8.3 3.5.95 7.35-1.55l1.8-1.3.45-.4.2-.15-.1.35-.35.6-1.4 2q-1.4 1.7-3 2.55 1.6-.85 3-2.55l1.4-2 .35-.6.1-.35m8.35 11.25q.45.1 2.15 1.55l-1.9-1.35-.6.1.2-.05q-.05-.3.15-.25" fill="#c27a48" fill-rule="evenodd" transform="translate(1.5 1.5)"/><path d="M61.75 26.65q.95-2 5-2l3 .05 5.4.2 2.55.15 8.65-.25 2.1-.75q1.5.65 3 1.45l1.3.7 5.9 15.2 1.6 4.1q3.6 8.4 4.9 14.95 1.25 6.5.85 16.15-.25 4.7-1.65 10.25l-2.4 7.8-.4-.2q-2.75-1.2-5.95.55 3.2-1.75 5.95-.55l.4.2.45.2.8.55q.65.55 1.05 1.6l.4 1.45q.65 3.25-1.95 5.7 1.05.8 1.75 1.85 1.4 2 1.55 4.7.25 5.55-7.55 6.95l-2.1.15q-.45 4.75-6.65 5.75l-.45.1-2.05.1q-2.9-.1-4.45-1.85l-4.5 1.45-7.05 1.2q-3.75.35-7.5.15l-2.15 1q-3.1 1.45-6.4 2.25-3.8 1.05-7.85 1.5-4.35.5-8.7-.65-2.35-.6-4.75-1.85l-6.4-3.7q-1.7-1.45-2.15-1.55l-.55-.4-1.3-2.15h-.05l-2.9-2.25 1.25 2.45-1.9.25-2.55.15q-2.65-.05-2.65-1.6-.05-1.55 1.4-3.25.9-1.1 1.25-2.4l.1-.45.05-1.1-.5-.5.05-.05.05-.1.55-1.2-.55 1.2-.05.1-.05.05-.2.15-.45.4-1.8 1.3q-3.85 2.5-7.35 1.55-4.7-1.15-2.6-8.3l.4-.35q-1.4 6 2.85 7.5 2.8.9 6.25-1.15l1.8-1.15.55-.5.25-.15.85-.8.1.15q.55.7.55 2.25v.3l-.2 1.4-.1.2-.05.1-1.25 2.2-.5.65q-.2 1.2 1.15 1.05l.6-.1.65-.3.6-.65.5-.9.75-1.1.95-1 .1.2.15 1.25q.15 1 2.15 3.05 16.55 15.75 34.5 6.4l.2.1h.05q8.25.6 15.4-3.25 7.35-4.05 8.35-11.3.95-7.3.75-13.9-.1-3.1-.05-6.5l.4-8.25q.55-8.1.75-16.65.15-8.6-3.7-16.25-1.85-3.8-5.1-6.25-3.4-2.6-8.15-3.8l-4.6-.7q-6-.2-9.3 4.15-2.05 2.65-4.45 4.3-3.05 2.05-6.75 2.7-2.15 0-4.05-1.1l.05-.15.3.1.5.05q2.5.1 4.95-.85l1.75-.6 2.3-1.3 1.65-1.45.2-.15 1.95-2.65q1.25-2.25 1.3-4.7-3.2 3-5.9 3.55l-1.65.3h-.1q-1.05.1-1.1-.3l.35-.25.4-.25.35-.25q2.5-1.9 2.6-3.4.15-1.8-1.15-1.95l-.05.1-.5.85-.9 1.05-.35.3-.35.3-.65.45q-2.3 1.6-5 2.3-4.05-.45-5.85-1.8l-.45-.3q-.7-.75-.95-1.65-.7-3.05-.15-3.6.5-.55 2.9-1.45 1.2-.55 1.9-1.65l.15.05q0 1.25.3 2.15l.45.85q.9 1.15 2.7 1.15.95 0 2.25-.95l.65-.5.8-1-.05-.05q-1.45-.65-2.55-3.5l.15-.1-.05-.3-.2-.95q-.95-3.65-1.35-7.4l-.1-1.1q-.1-2.8.45-5.75.65-3.6 3.35-6.25l1.7-1.5Q47.65.8 51.05.1l4.15.15.1-.15q3.4 2.8 3.9 6.8l.05 1.3q0 4.7-2.7 7.5-2.8 3.1-2.8 7.2 0 2.9 1.9 4.8 1.7 1.6 3.8 1.6 1.95 0 3.45-1.35.25-.15.2-1.05l-1.35-.25m-25.7 19.9h-.1l-2.2-1.25q-2.05-1.3-5.1-1.4h-.3q-3.3-.05-5.65 2.3l-.6.65-.2-.2.45-.6 1.8-2.25q1.8-2 4-2.9l1.8.5.2.05 2.7 1 1.2.9.7 1.1.6.8.75.85-.05.45m-23.8 46.9q4.5 1.4 7.7 6.1Q16 96.5 12.4 95.5l-1.6-.35-1.3-.2-1.6-.05q-3.5.1-4.45 1.95-1.15 2.15.6 3.5 1.75 1.3 3.8.85l1.55-.3 2.3-.25h.1l1.55.2q1.35.4 3.1 1.55l-2.9-.6-1.6-.05-2.1.4-.7.25q-7.4 1.5-7.75-3.3-.25-3.75 6.3-5.1l3-.45 1.1-.1.35-.05.1.05m89.2 9.75q.85-1.15 1-2.8.15-1.65-1.35-3.1l-.15-.15-.25-.2-.2-.15q-1.4-.9-3.75-.3-3 .8-4.35 1.95l-.7.55-1.35 1.5 1.1.05 5.3.75 1.5.45.6.25 1.2.5 1.4.7.85.6.4.35-.4-.35-.85-.6M52.4 32.55l.45 3.15-.45-3.15m4.3-24.8q-.5-2.05-1.95-3.65-2.25-2.45-5.45-2.45-2.4 0-4.3 1.4L43.8 4.1q-2.25 2.5-2.25 6 0 2.45 1.1 4.4l1.15 1.65q2.25 2.45 5.5 2.45 3.2 0 5.45-2.45Q57 13.65 57 10.1l-.3-2.35m1.7 116.45 5.3.5-5.3-.5m-30.95-.95-1.1-.75-.8-.6 1.9 1.35m73.6-13.8q.05-1.25-.65-2.25l-1.1-1.1q-.85-.7-2.05-1.05l-.35-.15-2.55-.4h-.85q-1.65 0-2.85.6-.65.3-1.15.75-1.8 1.5-1.7 3.7v.15q.05 1.7 1.45 3l.7.55 1.2.7 1.6.5h1.15l1.55-.35 1.05-.35 1.85-.95q2.5-1.35 2.7-3.15v-.2m-13.75.75.1.65q.7 1.7 1.65 2.95l1.1 1.35 1.8 1.45.45.25q1.75.9 3.95.95-2.2-.05-3.95-.95l-.45-.25-1.8-1.45-1.1-1.35q-.95-1.25-1.65-2.95l-.1-.65m2.5 12.05 2.2-.6q1.4-.7 1.4-1.7 0-1.05-1.75-.85l-.7.05-1.7-.3-1.1-.35-.1-.05-.75-.25-2.6-.4q-1.45.25-1.1 1.7.15.9.7 1.5l.3.2.65.45q.95.45 2.25.6l1.1.05 1.2-.05m.55-21.75-4.1.3 4.1-.3m-8.6 19.9 1 1.5-1-1.5" fill="#caa271" fill-rule="evenodd" transform="translate(1.5 1.5)"/><path d="M37.9 47.4q1.9 1.1 4.05 1.1 3.7-.65 6.75-2.7 2.4-1.65 4.45-4.3 3.3-4.35 9.3-4.15l4.6.7q4.75 1.2 8.15 3.8 3.25 2.45 5.1 6.25 3.85 7.65 3.7 16.25-.2 8.55-.75 16.65l-.4 8.25q-.05 3.4.05 6.5.2 6.6-.75 13.9-1 7.25-8.35 11.3-7.15 3.85-15.4 3.25h-.05l-.2-.1q-17.95 9.35-34.5-6.4-2-2.05-2.15-3.05l-.15-1.25-.1-.2-.95 1-.75 1.1-.5.9-.6.65-.65.3-.6.1q-1.35.15-1.15-1.05l.5-.65 1.25-2.2.05-.1.1-.2.2-1.4v-.3q0-1.55-.55-2.25l.15-.35-.15.35-.1-.15-.85.8-.25.15-.55.5-1.8 1.15q-3.45 2.05-6.25 1.15-4.25-1.5-2.85-7.5l.4-.35.6-.55q1.55-1.25 3.2-1.9l.7-.25 2.1-.4 1.6.05 2.9.6q-1.75-1.15-3.1-1.55l-1.55-.2h-.1l-2.3.25-1.55.3q-2.05.45-3.8-.85-1.75-1.35-.6-3.5Q4.4 95 7.9 94.9l1.6.05 1.3.2 1.6.35q3.6 1 7.55 4.05-3.2-4.7-7.7-6.1l-.2-3.85q-.15-8.1.6-13.9.7-5.85 1.5-10.05.8-4.15 2.5-9 .9-2.8 1.85-4.65l.55-1 .55-1 .1-.1.05-.1.1-.2.25-.35.65-.85 1.35-1.55.6-.65q2.35-2.35 5.65-2.3h.3q3.05.1 5.1 1.4l2.2 1.25h.1l.9.25.1.1.2.15.65.35m-17.45 52.9-.5-.75.5.75m69.9.2L91.7 99l.7-.55q1.35-1.15 4.35-1.95 2.35-.6 3.75.3l.2.15.25.2.15.15q1.5 1.45 1.35 3.1-.15 1.65-1 2.8l-1.4-.7-1.2-.5-.6-.25-1.5-.45-5.3-.75-1.1-.05m-54.1-72.45q-.7 1.1-1.9 1.65-2.4.9-2.9 1.45-.55.55.15 3.6.25.9.95 1.65l.45.3q1.8 1.35 5.85 1.8l-2.25.4q-2.5.4-4.5-.9l-.25-.2-.15-.1q-1.6-1.3-2.4-3.3l-.5-1.6q-.5-1.75-.65-3.6-.2-2.05-.05-4.15.2-2.4 2.15-3.95.7-.55 1.6-.95 1.7-1.05 3.35-.65l.75.2.4.2q.95.85.85 3.85l-.1 1-.15 1.45-.55 1.55-.15.3m7.85 11.2q.05.4 1.1.3h.1l1.65-.3q2.7-.55 5.9-3.55-.05 2.45-1.3 4.7l-1.95 2.65-.2.15-1.95.95-2.05.65q-1.25.05-2.8-.5l-1.15-.75q-.4-.45-.3-1.1.1-1.2 2.95-3.2m12.6-31.5.3 2.35q0 3.55-2.25 6.05-2.25 2.45-5.45 2.45-3.25 0-5.5-2.45l-1.15-1.65q-1.1-1.95-1.1-4.4 0-3.5 2.25-6L45 3.05q1.9-1.4 4.3-1.4 3.2 0 5.45 2.45 1.45 1.6 1.95 3.65m44.35 101.7v.2q-.2 1.8-2.7 3.15l-1.85.95-1.05.35-1.55.35h-1.15l-1.6-.5-1.2-.7-.7-.55q-1.4-1.3-1.45-3v-.15q-.1-2.2 1.7-3.7.5-.45 1.15-.75 1.2-.6 2.85-.6h.85l2.55.4.35.15q1.2.35 2.05 1.05l1.1 1.1q.7 1 .65 2.25m-11.25 12.8-1.2.05-1.1-.05q-1.3-.15-2.25-.6l-.65-.45-.3-.2q-.55-.6-.7-1.5-.35-1.45 1.1-1.7l2.6.4.75.25.1.05 1.1.35 1.7.3.7-.05q1.75-.2 1.75.85 0 1-1.4 1.7l-2.2.6" fill="#fff" fill-rule="evenodd" transform="translate(1.5 1.5)"/><path d="m21.75 119.35-1.25-2.45 2.9 2.25h.05l1.3 2.15.4.65-.2.05-.25.05h-.15l-.95.15-.15-.35-1.7-2.5" fill="#943d27" fill-rule="evenodd" transform="translate(1.5 1.5)"/><path d="m24.7 122.05.05.3-.2-.3-.65.5-.3-.35.95-.15h.15" fill="#7f080a" fill-rule="evenodd" transform="translate(1.5 1.5)"/><path d="M89.15 25.15 86.25 24q-3.5-1.15-7.25-1.85l-2.35-.3-3-.2-2.3-.1-7.7.05-4.9.65q.35 2.95 2.8 4.95l.15.1 1.55.85 1.35.25m25.35-2.85-.8-.4m-75.4 69.8q4.5 1.4 7.7 6.1l.5.75m72.3-74.1-1.3-.7q-1.5-.8-3-1.45m16.2 74.4q.65 3.25-1.95 5.7 1.05.8 1.75 1.85l.45-.6q2.75-3.15 4.8-6.7 2-3.4 3.5-7.3l1.8-5.1.55-1.75q.9-3.15 1.25-6.4.45-4.2.5-8.6 0-4.05-.5-8.2-.45-3.9-1.7-7.6-1.15-3.5-2.85-7.05-1.65-3.4-3.85-6.4-2.2-3.15-4.95-5.95-2.65-2.6-5.7-4.95l-5-3.2m8.7 77 .85.6.4.35m-.75-9.5-.4-.2q-2.75-1.2-5.95.55m9.05 3.45-.4-1.45q-.4-1.05-1.05-1.6l-.8-.55-.45-.2M56.8 1.6l-.1.15-4.15-.15q-3.4.7-6.15 2.8l-1.7 1.5q-2.7 2.65-3.35 6.25-.55 2.95-.45 5.75L41 19q.4 3.75 1.35 7.4l.2.95.05.3M40.35 40q2.7-.7 5-2.3l.65-.45.35-.3.35-.3.9-1.05.5-.85m6.25 2.45-.45-3.15m4.85-11.8q.1-2.3 1.65-4.15l1.35-1.7q2.75-3.65 2.3-7.95l-.15-.9-.45-1.35q-.5-1.05-1.35-1.85-1-.85-2.15-1.45l-.4-.2q-1.3-.65-2.75-1.1M37.85 21.4l1.15.9 2.15 2.75.7 1.05.05.2m-11.1 9.6-.5-1.6q-.5-1.75-.65-3.6-.2-2.05-.05-4.15.2-2.4 2.15-3.95.7-.55 1.6-.95 1.7-1.05 3.35-.65l.75.2.4.2m.45 23.55.25.85.65 1.35q.7.8 1.9 1.05l4.1-.15 1.75-.6 2.3-1.3 1.65-1.45m-12.8-4.3q-2.5.4-4.5-.9l-.25-.2-.15-.1q-1.6-1.3-2.4-3.3L29 37.7l-3.45 3.6Q23.1 44 21.1 47.05l-2.35 4.1-1.05 2.15q-1 2.35-1.85 4.8l-.6 1.8q-1.05 3.55-1.6 7.05l-.9 7.3q-.45 4.45-.65 8.95-.25 4-.1 8l.2 3.35 1.1.25.35.1.1.05m24.55-50q-.5-2.2-.2-4.55l2.25-.4m10.75 4.55 1.95-2.65q1.25-2.25 1.3-4.7m-47.5 69.15-.25-.15q-5-2-5.1-5.4-.1-3.1 3.5-5.1 1.9-1.1 4-1.25l3.2.1m-1.55 9.35.7-.25 2.1-.4 1.6.05 2.9.6m41.95 21.8h-.05M19.1 110.6l-.55 1.2-.05.1-.05.05-.1.35-.35.6-1.4 2q-1.4 1.7-3 2.55-.9 7.3 10.65 6.3l.85-.05.95-.15h.15l.25-.05.6-.1 1.9 1.35 6.4 3.7q2.4 1.25 4.75 1.85 4.35 1.15 8.7.65 4.05-.45 7.85-1.5 3.3-.8 6.4-2.25l2.15-1-5.3-.5m-33.65-2.9.55.4m-7.7-12.6.15-.35m-12.8-3.55-.4.35q-3.2 3.4-1.9 7.05 1.45 4.3 6.75 4 1.4-.05 2.7-.65m15.35 7.3-1.1-.75-.8-.6m-20.6-16.7.4-.35m.6-.55q1.55-1.25 3.2-1.9m81.2-1.9 1.1.05 5.3.75 1.5.45.6.25 1.2.5 1.4.7m3 2.8q1.4 2 1.55 4.7.25 5.55-7.55 6.95l-2.1.15q-.45 4.75-6.65 5.75l-.45.1-2.05.1q-2.9-.1-4.45-1.85l-4.5 1.45-7.05 1.2q-3.75.35-7.5.15m32.65-6.9q-2.2-.05-3.95-.95l-.45-.25-1.8-1.45-1.1-1.35q-.95-1.25-1.65-2.95l-.1-.65m-4.55 11.7-1-1.5m4.5-19.6 4.1-.3" fill="none" stroke="#943d27" stroke-linecap="round" stroke-linejoin="round" stroke-width="3"/><path d="M81.55 97.65q5.7-13.25 1.7-20.4l-1.2-1.7Q80.45 73.6 78 72.2l-4 .4q7.5-2.25 14.4-1.2l2.95-.65.55-.25.35 3.7q.1 8.55-5.1 18.55-2.15 2.7-4.8 4.45l-.8.45" fill="#7fcef5" fill-rule="evenodd" transform="translate(1.5 1.5)"/><path d="m81.55 97.65.8-.45q2.65-1.75 4.8-4.45 5.2-10 5.1-18.55l-.35-3.7-.55.25 3.6-3.1q-.9 1.9-3.05 2.85 2.15-.95 3.05-2.85l.95-1.1q6.25 30.55-23.2 34.55l-4-.85q7.35.6 12.85-2.6M60.2 79.4l-.1.75-.15-.75h.25m3.3 19.35.45.35-.4-.05-.05-.3" fill="#f29652" fill-opacity=".502" fill-rule="evenodd" transform="translate(1.5 1.5)"/><path d="m74 72.6 4-.4q2.45 1.4 4.05 3.35l1.2 1.7q4 7.15-1.7 20.4-5.5 3.2-12.85 2.6l-4.1-.7-.65-.45-.45-.35q-3.4-3.15-3.7-11-.15-3.4.3-7.6l.1-.75v-.25Q67.35 74.6 74 72.6m4.5 21.45q2.8-2.95 2.8-7.15 0-4.25-2.8-7.2l-.4-.45q-1.3-1.15-2.7-1.8-1.7-.7-3.6-.7-3.4 0-5.9 2.2l-.8.75q-2.75 2.95-2.75 7.2 0 4.2 2.75 7.15 2.8 3 6.7 3 3.95 0 6.7-3M75.2 82.7q1.4 1.6 1.4 3.85t-1.4 3.8q-1.3 1.6-3.2 1.6-1.9 0-3.25-1.6-1.3-1.55-1.3-3.8 0-1.8.85-3.15l.45-.7q1.35-1.55 3.25-1.55l.95.1q1.3.3 2.25 1.45" fill="#c11d11" fill-rule="evenodd" transform="translate(1.5 1.5)"/><path d="M78.5 94.05q-2.75 3-6.7 3-3.9 0-6.7-3-2.75-2.95-2.75-7.15 0-4.25 2.75-7.2l.8-.75q2.5-2.2 5.9-2.2 1.9 0 3.6.7 1.4.65 2.7 1.8l.4.45q2.8 2.95 2.8 7.2 0 4.2-2.8 7.15M75.2 82.7q-.95-1.15-2.25-1.45l-.95-.1q-1.9 0-3.25 1.55l-.45.7q-.85 1.35-.85 3.15 0 2.25 1.3 3.8 1.35 1.6 3.25 1.6t3.2-1.6q1.4-1.55 1.4-3.8t-1.4-3.85" fill="#f43930" fill-rule="evenodd" transform="translate(1.5 1.5)"/><path d="m83.05 99.15.8-.45q2.65-1.75 4.8-4.45 5.2-10 5.1-18.55L93.4 72l-.55.25-2.95.65q-6.9-1.05-14.4 1.2-6.65 2-13.8 6.55v.25l-.1.75q-.45 4.2-.3 7.6.3 7.85 3.7 11l.45.35.65.45 4.1.7q7.35.6 12.85-2.6m13.4-30 .45-1.6m-.45 1.6q-.9 1.9-3.05 2.85M58.8 82.6l2.9-1.95" fill="none" stroke="#943d27" stroke-linecap="round" stroke-linejoin="round" stroke-width="2"/><path d="M69.35 84.85q-.8.9-1.85.9-1.1 0-1.95-.9-.8-.95-.75-2.3-.05-1.3.75-2.2.85-1 1.95-1 1.05 0 1.85 1 .8.9.8 2.2 0 1.35-.8 2.3m3.7 5.2q.25-.4.7-.4.45 0 .8.4l.3.9-.3.9q-.35.4-.8.4-.45 0-.7-.4-.35-.4-.35-.9t.35-.9" fill="#fff" fill-rule="evenodd" transform="translate(1.5 1.5)"/><path d="M71.9 52.1q-.4-1.2-.4-2.1l1.7.5q1.35.55 1.95 3l.3 2q.05 1.15-.3 2.1l-1 .9q-.85.5-1.05 1.85.25 2.05-.9 3.4l-.95 1.1-1 1q-.8.8-2.55 1.5-1.75.7-3.8-.45-1.65-.85-2.5-2.05l-.4-.7-.85-1.35-1.35-1.55Q57.45 60 57.15 57.6q-.3-2.4.6-4.5.95-2.45 3.45-2.2-1.2 1.6-1.2 3.2 0 2.75 2.05 2.75l2.25-.65 3.2-.15.1.05.3-.7q0-2.15-5.1-5.6 2.9-.25 3.55.5.55.8 1.25.3 2.35.15 3.35 2.15l.55 2q1-.7.4-2.65m-1.85 4.5-.5 1.6q-.35.45-.7.5l-.4-.05-.75-.6q-.45-.7-1.15-.7-.7-.05-1.85.55-.5.3-.75 1-.2.6-.65.6l-.45-.15-.55-.45q-.6-.55-1.55-.55-.55 0-.95.35l-.05.2q0 .7 1.65.65l1.25.2q.35.2.3.6-.05.7.05 1.25.25 1.85 2.6 1.85l1.45-.15 1.3-.55 1.45-.05.75-1 1.1-3.05.5-1.7v-.75l-.65.45-.75-.15-.95-1.05.25 1.15" fill="#da2e20" fill-rule="evenodd" transform="translate(1.5 1.5)"/><path d="m70.05 56.6-.25-1.15.95 1.05.75.15.65-.45v.75l-.5 1.7-1.1 3.05-.75 1-1.45.05-1.3.55-1.45.15q-2.35 0-2.6-1.85-.1-.55-.05-1.25.05-.4-.3-.6l-1.25-.2q-1.65.05-1.65-.65l.05-.2q.4-.35.95-.35.95 0 1.55.55l.55.45.45.15q.45 0 .65-.6.25-.7.75-1 1.15-.6 1.85-.55.7 0 1.15.7l.75.6.4.05q.35-.05.7-.5l.5-1.6" fill="#eaa500" fill-rule="evenodd" transform="translate(1.5 1.5)"/><path d="M26 49.3q1.6 1 1.7 2.5.05 1.45-.75 3.1-.9 1.55 0 2.2.7-.4 2.05.25 1.4-.55 1.15-2.05-.2-1.2-1.2-1.6 1.4-.65 2.4.25.95.85.85 2.2-.1 1.3-.8 2.15-.65.7.55 3.5.6 3.2-2.4 5.1l-.5.3-.9.25-.55.1-2.65-.1q-.95-.25-1.85-.85-1.7-1.2-2.55-3.45-1.25-.45-2.3-1.8-1.05-1.4-1.1-3.15-.1-1.8.65-3.2l.75-1 1.3-.8q1.25-.5 1.9-1.7l.15 1.7q0 1-.95 2.05 1.8.15 3.55-1.65 1.7-1.8.65-2.85-1.1-1.05-1.4-3.35L26 49.3m-6.3 7.95q0 1.25 1.7 1.85.9.55.95 2.7.1 2.2 3.45 2.45 3.35.2 3.25-2.2l-.4-1.7q-.6-.95-1.8-1.3-2.15-.7-1.75-2.25.4-1.55 1-1.6l-.85-.1q-1 .25-1.7 1.9l-.15.35q-.55 1.1-1 1.05l-1.05-.7q-1.1-.25-1.35-.75l-.05-.1-.25.4" fill="#da2e20" fill-rule="evenodd" transform="translate(1.5 1.5)"/><path d="M20 56.95q.25.5 1.35.75l1.05.7q.45.05 1-1.05l.15-.35q.7-1.65 1.7-1.9l.85.1q-.6.05-1 1.6t1.75 2.25q1.2.35 1.8 1.3l.4 1.7q.1 2.4-3.25 2.2-3.35-.25-3.45-2.45-.05-2.15-.95-2.7-1.7-.6-1.7-1.85l.3-.3" fill="#eaa500" fill-rule="evenodd" transform="translate(1.5 1.5)"/><path d="M35.8 88q-.05-2 2.15-3.35 2.2-1.4 5.35-1.4 3.1 0 5.35 1.4 2.2 1.35 2.2 3.35 0 1.75-1.7 3.05l-.5.3-1 .55q-1.9.85-4.35.85l-2.8-.3-1.5-.5-1.05-.6Q35.75 90 35.8 88" fill="#caa271" fill-rule="evenodd" transform="translate(1.5 1.5)"/><path d="M39.75 88.9q.4-.45 1-.45t1.05.45q.4.4.4 1t-.4 1q-.45.45-1.05.45-.6 0-1-.45-.4-.35-.45-.9v-.1q0-.55.4-.95l.05-.05" fill="#fff" fill-rule="evenodd" transform="translate(1.5 1.5)"/><path d="M39.3 90q-.15.8 0 1.7.2 1.4.75 2.75l.4.9q.9 1.7 2 1.75 1.1 0 3.05-1.95 1.85-2 1.85-4.05l-.3-1.5q-.3-.95-1.15-1.65-1.35-1.1-3.2-.85-1.85.25-2.75 1.5l-.2.3-.05.05q-.4.4-.4.95v.1m9.3-1.25.3 2.05q.05 2.8-2.55 5.55-2.65 2.75-4.2 2.75-1.6-.05-2.8-2.45l-.55-1.15q-.8-1.9-1.05-3.9-.4-2.65.85-4.35 1.3-1.7 3.85-2.05 2.6-.4 4.45 1.2 1.2.95 1.7 2.35" fill="url(#n)" fill-rule="evenodd" transform="translate(1.5 1.5)"/><path d="m39.75 88.9.2-.3q.9-1.25 2.75-1.5t3.2.85q.85.7 1.15 1.65l.3 1.5q0 2.05-1.85 4.05-1.95 1.95-3.05 1.95-1.1-.05-2-1.75l-.4-.9q-.55-1.35-.75-2.75-.15-.9 0-1.7.05.55.45.9.4.45 1 .45t1.05-.45q.4-.4.4-1t-.4-1q-.45-.45-1.05-.45-.6 0-1 .45" fill="url(#o)" fill-rule="evenodd" transform="translate(1.5 1.5)"/><path d="M38.7 107.45q1.1-1.8 3.45-3.85 3.2.8 8.5 6.45-1.3-.4-4.3-2.5-2.95-2.15-3.8-2.05-.85.1-2.9 1.5l-.9.6-.05-.15" fill="#caa271" fill-rule="evenodd" transform="translate(1.5 1.5)"/><path d="m38.7 107.45-.25.35q-.65.9-1.55 1h-.2q-.65.05-2.35-2.25l1.1.65q.4.35 1.05.2l1-.75-.05.05q1.15-3.25 3.2-4.7.65-1.6.05-4.5.5-.65 1.1-.65l.75.15.55.6q-.45 3.55.2 4.3 3.05.5 8.1 6.85 1.15.6 2.05-.6l.9-1q-.95 3.4-2.25 3.25l-.1-.05-1.3-.25-.05-.05q-5.3-5.65-8.5-6.45-2.35 2.05-3.45 3.85" fill="#943d27" fill-rule="evenodd" transform="translate(1.5 1.5)"/><path d="M16.05 71.3q-1 .2-1.7 0-.5 3.7-.3 7.2.3 8.15 4.05 15l.2-.05.05.35q2.7 2.65 5.4 3.75 3.6 1.4 7.15.1l-2.4 2.15q-9.25 1.6-13.55-3.4-8.15-10.95-2.7-26.95l.15.05 3.65 1.8m20.7 14.1.1-2.35V81.8l.45.3-.55 3.3m-18.4 8.4-.25-.3.25.3m-4-22.5q-1.5-.3-1.95-1.8.45 1.5 1.95 1.8" fill="#f29652" fill-opacity=".502" fill-rule="evenodd" transform="translate(1.5 1.5)"/><path d="m16.05 71.3.85-.1q8.35.85 14 4.3-.9 1.55-3 .4-4.5-2.45-8.1-2.7l-2.95.2q-1 1.8-.85 6.1.05 2 .4 4.7.65 5.05 1.9 9.25l-.2.05q-3.75-6.85-4.05-15-.2-3.5.3-7.2.7.2 1.7 0" fill="#af0c03" fill-rule="evenodd" transform="translate(1.5 1.5)"/><path d="m24.9 75.8-1.6-.85-1.15-.1q-2.4-.05-3.8 2.75-.55 1.2-.8 2.65-.35 1.9-.05 4.25.55 3.95 2.6 6.8 2.1 2.85 4.55 2.85 2.35 0 3.75-2.85 1.35-2.85.85-6.8l-.05-.1q-.5-4-2.55-6.8l-1.75-1.8m1.4 7.7q0 1.6-.9 2.8-1 1.25-2.45 1.3-1.45-.05-2.55-1.3-1.1-1.25-1.15-3-.05-1.25.35-2.2l.5-.85q1-1.3 2.45-1.3 1.45 0 2.6 1.3 1.05 1.25 1.15 3.05v.2m4.65-8h-.05.05l1.3 4.05q1.2 3.95 1.35 6.15.45 9.35-9.85 11.85-2.7-1.1-5.4-3.75l-.05-.35q-1.25-4.2-1.9-9.25-.35-2.7-.4-4.7-.15-4.3.85-6.1l2.95-.2q3.6.25 8.1 2.7 2.1 1.15 3-.4h.05" fill="#c11d11" fill-rule="evenodd" transform="translate(1.5 1.5)"/><path d="m24.9 75.8 1.75 1.8q2.05 2.8 2.55 6.8l.05.1q.5 3.95-.85 6.8-1.4 2.85-3.75 2.85-2.45 0-4.55-2.85-2.05-2.85-2.6-6.8-.3-2.35.05-4.25.25-1.45.8-2.65 1.4-2.8 3.8-2.75l1.15.1 1.6.85m1.4 7.7v-.2q-.1-1.8-1.15-3.05-1.15-1.3-2.6-1.3-1.45 0-2.45 1.3l-.5.85q-.4.95-.35 2.2.05 1.75 1.15 3 1.1 1.25 2.55 1.3 1.45-.05 2.45-1.3.9-1.2.9-2.8" fill="#f43930" fill-rule="evenodd" transform="translate(1.5 1.5)"/><path d="M23.75 97.55q10.3-2.5 9.85-11.85-.15-2.2-1.35-6.15l-1.3-4.05q3.4 2.1 5.85 5.15l.05 1.15v1.25l-.1 2.35-.15 1.1q-.7 6.55-4.15 10.35l-1.55.8q-3.55 1.3-7.15-.1" fill="#7fcef5" fill-rule="evenodd" transform="translate(1.5 1.5)"/><path d="M32.4 77h.05q3.4 2.1 5.85 5.15l1 1.45M32.4 77q-5.65-3.45-14-4.3l-.85.1q-1 .2-1.7 0-.5 3.7-.3 7.2.3 8.15 4.05 15l.25.3q2.7 2.65 5.4 3.75 3.6 1.4 7.15.1l1.55-.8Q37.4 94.55 38.1 88l.15-1.1.1-2.35V83.3l-.05-1.15M13.9 71q-.15-.6-.15-1.5m.15 1.5q.45 1.5 1.95 1.8" fill="none" stroke="#943d27" stroke-linecap="round" stroke-linejoin="round" stroke-width="2"/><path d="M23.3 78.4q.7.75.7 1.9 0 1.1-.7 1.85-.65.8-1.55.8-.95 0-1.6-.8-.65-.75-.65-1.85 0-1.15.65-1.9.65-.8 1.6-.8.9 0 1.55.8m2.8 8.15q.3.3.3.75l-.3.75-.6.35q-.4-.05-.65-.35l-.25-.75q0-.45.25-.75t.65-.3q.35 0 .6.3" fill="#fff" fill-rule="evenodd" transform="translate(1.5 1.5)"/></g><g id="y"><path d="m14.75 1.45 4-1.05L25.4.1q2.65.25 5.1 1.15 2.1 1.1 3.8 2.8l2.8 3.1 2.4 3.8q1.05 2.2 1.7 4.55.75 2.6 1.1 5.3l.7 5.8.95 8.45 1.25 7.55 1.55 6.85 1.35 4.5 1.6 4.25 2.3 6.1q1.4 4.05 1.4 7.75l-.25 3.25q-1.7 1.25-3.2 3.35-5.5 7.25-4.4 20.05l.25 2.2q.6 4.75 1.95 8.7l.35.95.3 2.7q.5 2.4 1.35 4.7 1.05 2.75 2.65 5.25l1.7 2.4q2.45 3.2 5.9 5.45 4.05 2.65 8.55 1.5 3.85-1.15 5.6-6l1.1-3.5 1-3.75 1.15-7.15.3-2.9q.55 3.15.75 6.2l.3 11.7q0 7.65-5.9 10.95-6 3.2-15.5-1.9-9.55-5.1-14.65-12.95l-1.65-2.5-3.1-5.85q-3.2-6.6-5.15-13.6l-.2-.8q-2.85-10.6-4.2-20.65-.7-4.9-.9-9.3l-.25-5.05q-.05-1.9.05-3.75v-10.5l-.35-10q-.35-6-1.55-10.7l-1.05-3.45q-1.05-2.85-2.5-5.1-4.5-6.8-8.4-4.35Q9.8 19.9 9.1 23.1l-.1.45-2.35-2.15-.65-.85-1.35-1.8q-1.3-3.2.6-7.25 1.95-3.95 4.4-6.2 2.4-2.25 5.1-3.85" fill="#fff" fill-rule="evenodd" transform="translate(1.5 1.5)"/><path d="M0 12.55Q6.2 4.4 14.75 1.45q-2.7 1.6-5.1 3.85-2.45 2.25-4.4 6.2-1.9 4.05-.6 7.25L0 12.55m30.5-11.3 3.1 1.25q6.2 3.25 9.15 8.1 1.25 5.2 1.6 12.3.45 11.55 2.65 20 2.15 8.45 4.6 13.45l4 8.1q1.15 2.5 2.65 8.55-2.7.4-5.1 2.3l.25-3.25q0-3.7-1.4-7.75l-2.3-6.1-1.6-4.25-1.35-4.5-1.55-6.85-1.25-7.55L43 26.6l-.7-5.8q-.35-2.7-1.1-5.3-.65-2.35-1.7-4.55l-2.4-3.8-2.8-3.1q-1.7-1.7-3.8-2.8m19.95 84.6q.75-1.9 1.95-3.45 3.05-4 6.9-4.65l.75 5.6q-2 .9-3.65 3.1-3.45 4.55-2.75 12.6l.2 1.75q.9 6.75 4.3 10.8l.05.05q1.5 1.8 3.15 2.8l.5 6.1q-3.75-1.05-7.05-4.95l-2.15-3.05q-2.8-4.8-3.65-11.75l-.15-1.8q-.25-2.65-.15-5l.1-1.25q.1-1.65.5-3.2.4-1.95 1.15-3.7m18.1 46.7q-4.5 1.15-8.55-1.5-3.45-2.25-5.9-5.45l-1.7-2.4q-1.6-2.5-2.65-5.25-.85-2.3-1.35-4.7l-.3-2.7 1.05 2.55q1.5 3.15 3.65 5.65 2.35 2.8 5 4.4 2.3 1.45 4.8 1.9 1.8 8 5.95 7.5" fill="#caa271" fill-rule="evenodd" transform="translate(1.5 1.5)"/><path d="M42.75 10.6q2.2 3.65 2.55 8.15.8 10.65 3.45 19.45 2.3 7.7 5.6 13.05l.9 1.35q3.85 5.65 6.9 11.75l.55 1.15 2.1 5.05 1.4 3.65q-1.5-.65-3.1-1.05L58.25 73q-1.5-6.05-2.65-8.55l-4-8.1q-2.45-5-4.6-13.45-2.2-8.45-2.65-20-.35-7.1-1.6-12.3m25.7 69.55 2.35 6.6q-2.55-2.9-6.15-3.7-2.5-.6-4.6.3l-.75-5.6 4 .15q2.8.65 5.15 2.25m7.35 21.15q1.05 3.5 1.7 6.85l-.05.3q-.7 3.1-2.2 5.8-3.2 5.9-9.3 6.6l-4.1-.3-.5-6.1q2.5 1.55 5.35 1.25 4.6-.55 7.05-5l.85-1.85q1.25-3.35 1.2-7.55m-13.2 23.75 3.7.1q3.35-.45 5.95-2.05 2.25-1.45 4-3.8l-1 3.75-1.1 3.5q-1.75 4.85-5.6 6-4.15.5-5.95-7.5" fill="#ac5a28" fill-rule="evenodd" transform="translate(1.5 1.5)"/><path d="M23 25.75q-1-.8-2.2-1.3l-1.9-.35q-1.05.3-1.95.85Q14.6 26.4 12.5 28l-.15-.3-3.05-4.4q3.5-2.8 5.95-3.35 2.35-.55 4.65 1.95 2.3 2.45 3.1 3.85M53.15 75.3l-.5 2.45-2.5 8-.95 3.8-.65 3.2-.2 1.2q-.45 3.45-.5 6.9v.45q0 4.1.15 8.2l-.25.1q-1.35-3.95-1.95-8.7l-.25-2.2q-1.1-12.8 4.4-20.05 1.5-2.1 3.2-3.35" fill="#f43930" fill-rule="evenodd" transform="translate(1.5 1.5)"/><path d="M24.35 27.1 23 25.75q-.8-1.4-3.1-3.85-2.3-2.5-4.65-1.95-2.45.55-5.95 3.35l-.2-.2q.7-3.2 4.35-5.45 3.9-2.45 8.4 4.35 1.45 2.25 2.5 5.1m25.8 58.65 2.5-8 .5-2.45q2.4-1.9 5.1-2.3l.75 3.3.3 1.45q-3.85.65-6.9 4.65-1.2 1.55-1.95 3.45l-.3-.1M48 109.5q-.15-4.1-.15-8.2v-.45q.05-3.45.5-6.9l.35.05q-.1 2.35.15 5l.15 1.8q.85 6.95 3.65 11.75l2.15 3.05q3.3 3.9 7.05 4.95l.4 2.6.35 1.9q-2.5-.45-4.8-1.9-2.65-1.6-5-4.4-2.15-2.5-3.65-5.65l-1.05-2.55-.1-1.05m13.35 4.95q-1.65-1-3.15-2.8l-.05-.05q-3.4-4.05-4.3-10.8l-.2-1.75q-.7-8.05 2.75-12.6 1.65-2.2 3.65-3.1.65 6.8 1 17.55l.15 8.3.05 1.9.1 3.35" fill="#c11d11" fill-rule="evenodd" transform="translate(1.5 1.5)"/><path d="m66.2 74.2 2.25 5.95q-2.35-1.6-5.15-2.25l-4-.15-.3-1.45-.75-3.3 4.85.15q1.6.4 3.1 1.05m4.6 12.55 3.6 10.2 1.4 4.3v.05q.05 4.2-1.2 7.55l-.85 1.85q-2.45 4.45-7.05 5-2.85.3-5.35-1.25l-.1-3.35-.05-1.9-.15-8.3q-.35-10.75-1-17.55 2.1-.9 4.6-.3 3.6.8 6.15 3.7m6.7 21.4v.25l.2.85-.3 2.9-1.15 7.15q-1.75 2.35-4 3.8-2.6 1.6-5.95 2.05l-3.7-.1-.35-1.9-.4-2.6 4.1.3q6.1-.7 9.3-6.6 1.5-2.7 2.2-5.8l.05-.3" fill="#a51107" fill-rule="evenodd" transform="translate(1.5 1.5)"/><path d="M1.5 14.05Q7.7 5.9 16.25 2.95l4-1.05 6.65-.3q2.65.25 5.1 1.15L35.1 4q6.2 3.25 9.15 8.1 2.2 3.65 2.55 8.15.8 10.65 3.45 19.45 2.3 7.7 5.6 13.05l.9 1.35q3.85 5.65 6.9 11.75L64.2 67l2.1 5.05 1.4 3.65 2.25 5.95 2.35 6.6 3.6 10.2 1.4 4.3v.05q1.05 3.5 1.7 6.85v.25l.2.85q.55 3.15.75 6.2l.3 11.7q0 7.65-5.9 10.95-6 3.2-15.5-1.9-9.55-5.1-14.65-12.95l-1.65-2.5-3.1-5.85q-3.2-6.6-5.15-13.6l-.2-.8q-2.85-10.6-4.2-20.65-.7-4.9-.9-9.3L28.75 67q-.05-1.9.05-3.75v-10.5l-.35-10q-.35-6-1.55-10.7l-1.05-3.45q-1.05-2.85-2.5-5.1-4.5-6.8-8.4-4.35-3.65 2.25-4.35 5.45m13.9 2.65q-1-.8-2.2-1.3l-1.9-.35q-1.05.3-1.95.85Q16.1 27.9 14 29.5" fill="none" stroke="#943d27" stroke-linecap="round" stroke-linejoin="round" stroke-width="3"/><path d="m10.8 24.8-.3.25m.1-.45.2.2" fill="none" stroke="#943d27" stroke-linecap="round" stroke-linejoin="round" stroke-width=".05"/><path d="M51.95 87.35q.75-1.9 1.95-3.45 3.05-4 6.9-4.65l4 .15q2.8.65 5.15 2.25m-8.4 3.2q2.1-.9 4.6-.3 3.6.8 6.15 3.7m-9.45 27.7q-1.65-1-3.15-2.8l-.05-.05q-3.4-4.05-4.3-10.8l-.2-1.75q-.7-8.05 2.75-12.6 1.65-2.2 3.65-3.1m1.3 31.1q2.5 1.55 5.35 1.25 4.6-.55 7.05-5l.85-1.85q1.25-3.35 1.2-7.55m-27.1-7.3.1-1.25q.1-1.65.5-3.2.4-1.95 1.15-3.7m11.4 34.7Q59.6 121 56.3 117.1l-2.15-3.05q-2.8-4.8-3.65-11.75l-.15-1.8q-.25-2.65-.15-5M79 109.65l-.05.3q-.7 3.1-2.2 5.8-3.2 5.9-9.3 6.6l-4.1-.3" fill="none" stroke="#943d27" stroke-linecap="round" stroke-linejoin="round" stroke-width="2"/></g><use ffdec:characterId="1" height="132.8" width="60.15" xlink:href="#p" id="b"/><use ffdec:characterId="3" height="45.2" width="137.85" xlink:href="#q" id="c"/><use ffdec:characterId="5" height="47.95" width="29.15" xlink:href="#r" id="d"/><use ffdec:characterId="8" height="39.8" width="39.3" xlink:href="#s" id="f"/><use ffdec:characterId="10" height="30.15" width="33.7" xlink:href="#t" id="g"/><use ffdec:characterId="12" height="63.2" width="60.2" xlink:href="#u" id="h"/><use ffdec:characterId="14" height="39.95" width="61.3" xlink:href="#v" id="i"/><use ffdec:characterId="16" height="45.65" width="29.7" xlink:href="#w" id="j"/><use ffdec:characterId="18" height="132.6" width="120.3" xlink:href="#x" id="k"/><use ffdec:characterId="20" height="142.35" width="81.75" xlink:href="#y" id="l"/><radialGradient cx="0" cy="0" gradientTransform="matrix(.0034 -.0129 .0101 .0027 41.75 98.35)" gradientUnits="userSpaceOnUse" id="n" r="819.2" spreadMethod="pad"><stop offset="0" stop-color="#7f080a"/><stop offset="1" stop-color="#69040c"/></radialGradient><radialGradient cx="0" cy="0" gradientTransform="translate(43.8 88.3) scale(.0113)" gradientUnits="userSpaceOnUse" id="o" r="819.2" spreadMethod="pad"><stop offset=".224" stop-color="#3f0104"/><stop offset=".745" stop-color="#510208"/></radialGradient><path d="M137.85 22.8q0 7.45-12.95 13.1-3.25 1.45-7.25 2.7-20.3 6.6-48.7 6.6-28.5 0-48.6-6.6-4.05-1.25-7.25-2.7l-3-1.4-3.25-1.85Q0 28.15 0 22.8q0-5.55 6.85-10.1 1.5-1 3.25-1.9 4.25-2.25 10.25-4.2 20-6.6 48.6-6.6t48.7 6.6q20.2 6.55 20.2 16.2" fill-opacity=".349" fill-rule="evenodd" id="q"/><path d="M74 85H0V0h74v85" fill="#7e6d66" fill-opacity="0" fill-rule="evenodd" id="m"/></defs></svg>