<svg xmlns:ffdec="https://www.free-decompiler.com/flash" xmlns:xlink="http://www.w3.org/1999/xlink" ffdec:objectType="frame" height="90" width="90" xmlns="http://www.w3.org/2000/svg"><use ffdec:characterId="33" height="297.35" transform="matrix(.2938 0 0 .2936 -.367 .675)" width="308.75" xlink:href="#a"/><defs><g id="a" transform="translate(1.25 -2.3)"><use ffdec:characterId="1" height="9.8" transform="matrix(1.8922 0 0 3.565 107.44 252.931)" width="55.5" xlink:href="#b"/><use ffdec:characterId="3" height="40.2" transform="translate(91.05 48.45) scale(1.6309)" width="30.95" xlink:href="#c"/><use ffdec:characterId="5" height="48" transform="translate(1.55 97.5) scale(1.6309)" width="60.85" xlink:href="#d"/><use ffdec:characterId="7" height="30.95" transform="translate(125.9 185.85) scale(1.6309)" width="18.25" xlink:href="#e"/><use ffdec:characterId="9" height="57.65" transform="translate(69.75 168.15) scale(1.6309)" width="40.1" xlink:href="#f"/><use ffdec:characterId="11" height="64.05" transform="translate(95.3 117.3) scale(1.6309)" width="34.7" xlink:href="#g"/><use ffdec:characterId="13" height="64.1" transform="translate(165 134.55) scale(1.6309)" width="67.6" xlink:href="#h"/><use ffdec:characterId="15" height="62.1" transform="translate(134.85 47.25) scale(1.6309)" width="69.8" xlink:href="#i"/><use ffdec:characterId="21" height="43.95" transform="translate(90.55 82.35) scale(1.6309)" width="31.85" xlink:href="#j"/><use ffdec:characterId="23" height="48.65" transform="translate(133.95 88.05) scale(1.6309)" width="67.25" xlink:href="#k"/><use ffdec:characterId="25" height="57.7" transform="translate(144.75 183.55) scale(1.6309)" width="55.25" xlink:href="#l"/><use ffdec:characterId="27" height="35" transform="translate(123.35 140.3) scale(1.6309)" width="45" xlink:href="#m"/><use ffdec:characterId="32" height="179.75" transform="matrix(1.5007 0 0 1.6309 4.45 2.278)" width="201.9" xlink:href="#n"/></g><g id="u" fill-rule="evenodd"><path d="m2.5 38.85-.45-.05q-2.2-4.7-2.05-13Q4.8 13.15 12 .9l.5-.9.55.9q3.65 6.45 7.1 17.3 3.15-4.1 6.7-7.15.2 7.7-.15 16.2l4.25-4.5-.9 12.9-1.55 4.55.25-1.8.85-9.05.05-1.05.05-1.85v-1.1l-3.15 3.7-.15 4v.55l-2.9 6.35-.85-.05 2.05-4.15.85-1.75.15-11.45.05-9.55-.15.2-5.1 6.15 1.8 6.05.9 3.45.1.4.35 1.35-3.9 9.15h-.4l2.1-6.15 1.05-3.1-1.45-5.8q-1.8-6.35-4.75-14.4l-.6-1.6-2.35-5.05-.75-1.85Q5.8 14.2 1.1 25.85q-.15 7.55 1.4 13M4.6 25.3l.35-2.3q.4-2.15 6.3-17.95L4.6 25.3" fill="#242b71"/><path d="M2.5 38.85q-1.55-5.45-1.4-13Q5.8 14.2 12.6 1.8l.75 1.85 1.05 6.6-.45-.7.8 2.75 4.35 27.45-6.8-.4q-2.9-5.4-3.35-6.8Q6.7 25.7 9.3 13.4q1.45-4.95 1.95-8.35-5.9 15.8-6.3 17.95l-.35 2.3q-.15 4.2.3 7.25.25 1.6 1.8 6.55l-4.2-.25m20.7-10-.9-3.45-1.8-6.05 5.1-6.15q-.6 2.5-1.05 5.15l-.4-1.2v3.5l-.1.85-.6 4.55-.25 2.8m3.2 4.2.15-4 3.15-3.7v1.1l-2.8 6.95-.5-.35" fill="#788fff"/><path d="M13.35 3.65 15.7 8.7l.55 1.65 3.9 12.85-.05.05.1.05.3 1.15.65 2.35.2.75.7 2.65-.6 3.4-2.1 6.15h-.25L14.75 12.3l.45 1.45 2.4 2.1-1-2.4-2.2-3.2-1.05-6.6m6.4 36.1 3.9-9.15-.35-1.35-.1-.4.25-2.8.6-4.55.1-.85 1.05 2v-.5l-.1-1.5v-.45l-.55-1.85Q25 15.7 25.6 13.2l.15-.2-.05 9.55-.5 10.85-.5 2.35-2.05 4.15-2.9-.15m3.75.2 2.9-6.35v-.55l.5.35 2.8-6.95-.05 1.85-.15 1q-.75 4.65-.75 9.1l-.25 1.8-5-.25m-7.55-24.9-.1-.05q-.45-.15.95 3.05l2.1 1.8-.8-2.85-2.15-1.95m9.2 12.55v-1.5l-.3-.55-.65-.6.55 2.9.35.65.05-.9m.05-1.9.05-2.3-1.1-1.9-.05 2.4 1.1 1.8m-5.1-2.45-.95-2.75-.7-.6q-1.2-1-1.1-.5l1.9 3.05.85.8M4.6 25.3l6.65-20.25q-.5 3.4-1.95 8.35-2.6 12.3-.35 19.15.45 1.4 3.35 6.8l-5.6-.25q-1.55-4.95-1.8-6.55-.45-3.05-.3-7.25" fill="#2d3693"/><path d="m24.55 18.35.55 1.85v.45l-.75-2.25v2.35l.85 1.4v.5l-1.05-2v-3.5l.4 1.2m-9.8-6.05-.8-2.75.45.7 2.2 3.2 1 2.4-2.4-2.1-.45-1.45m.75 1.45 1.5 1.2-.45-1.25-1.9-2.6.85 2.65m1.55 4.05L18.3 19l-.6-2-1.3-1.15.65 1.95m-1.1-2.75L18.1 17l.8 2.85-2.1-1.8q-1.4-3.2-.95-3.05l.1.05m9.2 12.55-.05.9-.35-.65-.55-2.9.65.6.3.55v1.5l-.2-1.55-.35-.35.5 1.9h.05m.05-1.9-1.1-1.8.05-2.4 1.1 1.9-.05 2.3m-.15-.7v-1.65l-.65-1-.1 1.45.75 1.2m-6.25-4.65-.6-.3 1.35 2.25-.75-1.95m1.3 2.9-.85-.8-1.9-3.05q-.1-.5 1.1.5l.7.6.95 2.75" fill="#017d33"/><path d="M16.3 10.3q2.95 8.05 4.75 14.4l1.45 5.8-1.05 3.1.6-3.4-.7-2.65-.2-.75-.65-2.35-.3-1.15-.05-.1-3.9-12.85.05-.05m9.4 12.25L25.55 34l-.85 1.75.5-2.35.5-10.85m3.95 5.75-.05 1.05-.85 9.05q0-4.45.75-9.1l.15-1" fill="#ead4b0"/><path d="m25.1 20.65.1 1.5-.85-1.4V18.4l.75 2.25m-9.6-6.9-.85-2.65 1.9 2.6.45 1.25-1.5-1.2m1.55 4.05-.65-1.95L17.7 17l.6 2-1.25-1.2m8.1 9.8h-.05l-.5-1.9.35.35.2 1.55m-6.35-7.25.75 1.95-1.35-2.25.6.3M25.05 25l-.75-1.2.1-1.45.65 1V25" fill="#25ff99"/></g><g id="v" fill-rule="evenodd"><path d="m25.35 27.2-1 1.45-2.65.05-2.1.45-2.6 2.4q-4.25 1.9-6.85.65 2.7-2.15 3.75-5.75l.9-.85q.45.15 1.6-.9L16 24q-1.65-.25-3.05-2.05l.05-.25-2.05-.45q-1.3.85-2.95 1.2l-2.25-.75-3.35-.3q.25-1.4 4.35-3.55l-1.3-.1q-1.1-.55-2.35-2.15-1.85-.55-3.1-1.5l1.6-1 3.85-.65q1.85-.2 3.45-.05-1.15-.95-1.7-2.3-1.65-.65-2.65-1.75-.05-.25.8-.65 4.25-.4 5.15.35 1.9.75 4.15 2.1 2.8 2.5 6.2 6.4l.95 1.3-.75-.6-.2-.15-2.45-2.05-1.2 2q.3 1.75 1.4 2.6l3.45-.1 2.05 1.75 1.1 1.05 2.75-.05.55.4-2.25 3.25q-.25-1.9-1.3-3.3L24 21.8l-2.2-1.85-3.05-.05q-.1 2.6-1.1 4.75l-.25.5q1.25.25 1.6 1.1l.15-.1.6.2.4.1q1.2.4.65.75l-.35.25-.15.45h.1l.4-.1 4.55-.6m-12.8-15.5.25-.6v-.05l-.4-1Q10.7 9.1 9 8.55l-2.65.1q1.45.6 1.75 1l.05.35q.65 1.3 1.65 1.9l2.2.55.55-.75m-3.8 3.1-.1-.15L7 13.5l-.45.05-4.35.6q1.4.4 1.4.75h.05l2.15 1.85 3.25.05v-.75l-.3-1.25m4.4 1.3-.05-.75q-.45-.1-1.15-1.45l-2.35-.35-.65.85q.7 1.05.55 2.1l-.05.3h.2l.15-.05 1.05-.05.1.15-.4.1 2.2.65q.4-.55.4-1.5m-3.9-2.55L7.4 13.5l1.2.8.65-.75m1.4 4.2-.5-.15-.55.15-.2.85-.4.6q.65.3 1.05 1.35l.85-.35.1.05 1.35.35.3-.95q0-.4-.35-.65l-.7-1.05h-.1l-.7-.15-.15-.05m-1.5.15q-.9.3-1.65.7l1.25.45.4-1.15m-.7 1.4-1.25-.6q-1 .45-1.85 1-.2 0-1.15.9l1.65-.1.75.5 1.75.25 1.3-.5q-.4-1.05-.9-1.35l-.3-.1M13.9 11l-1.05-.7.3.75.75-.05m-1.2 1.85v.05l.1.1 1.65 2.2 1.05-.8q.9-.55.7-.1l-1.55 1.15.1.1.1.1v.05q1.5.65 1.95 1l.3-.55 1.1-1.35-.6-.6-.05-.1q-1 .35-1.35-.25l-.05-1.05-1.65-1.35h-1.55l-.65 1.15.4.25m1.95 3.9h.05l-1-1.4-.4.05q.6 1.1-.1 2.25h.7q.15-.45.75-.9m2.65-2.85-.75-.7-.05.5.8.2m-1.8 3.25q-1.05 0-1.65 3.7l-.1.85 2.15 1.4h.1l.05-.05q.85-.75 1.55-.65l.4-2.15-.05-.05q-1.7-1.5-1.3-3.05H15.5M13.45 15l-1.05-.9q.75 1.1 1.05.9m-.65 3.2-.75-.1.4.6.35-.5m4.1 5.55.5-.9q-.45-.1-1.05.45l.55.45m-3.3-5.4-.5-.05-.4.55q.4.5.2 1.05l-.35.7.4.05.1-.6q.2-.9.55-1.7m-.9 13.25q2.5-.25 4.6-1.1 1.3-1.8 2.6-2.8l.45-.8h-.45l-.2-.1-.6-.3-1.35 1.55.5-.05q2.25-.35.2.45l-.9-.05q-.4-.1-.1-.55l1.1-1.35q-.05-.75-1.5-1.15-.45.8-2.15 1.35-.9 3.5-3 4.95l.8-.05" fill="#1d1e23"/><path d="m20.15 26.45-.4-.1-.6-.2-.15.1q-.35-.85-1.6-1.1l.25-.5q1-2.15 1.1-4.75l3.05.05L24 21.8q-1.3 2.6-3.85 4.65m3.95-5.15-2.05-1.75-3.45.1q-1.1-.85-1.4-2.6l1.2-2 2.45 2.05.2.15.75.6 2.7 2-.4 1.45m-6.55 7.1q-2.25 1.9-4.85 3.2l-.8.05q2.1-1.45 3-4.95 1.7-.55 2.15-1.35 1.45.4 1.5 1.15l-1.1 1.35q-.3.45.1.55" fill="#73748a"/><path d="m19.7 26.8.2.1h.45l-.45.8q-1.3 1-2.6 2.8-2.1.85-4.6 1.1 2.6-1.3 4.85-3.2l.9.05q2.05-.8-.2-.45l1.45-1.2" fill="#615d76"/><path d="M20.4 27.9h-.1l.15-.45.35-.25q.55-.35-.65-.75Q22.7 24.4 24 21.8l.95.85q1.05 1.4 1.3 3.3l-.25.35q-2.75-.05-5.3 1.4l-.3.2" fill="#353643"/><path d="m27.95 22.3-2.75.05-1.1-1.05.4-1.45 3.45 2.45M15.5 17.15h1.15q-.4 1.55 1.3 3.05l.05.05-.4 2.15q-.7-.1-1.55.65l-.05.05h-.1l-2.15-1.4.1-.85q.6-3.7 1.65-3.7m-2.7 1.05-.35.5-.4-.6.75.1m.8.15q-.35.8-.55 1.7l-.1.6-.4-.05.35-.7q.2-.55-.2-1.05l.4-.55.5.05m3.3 5.4-.55-.45q.6-.55 1.05-.45l-.5.9" fill="#353642"/><path d="m25.35 27.2-4.55.6-.4.1.3-.2q2.55-1.45 5.3-1.4l-.65.9" fill="#ead4b0"/><path d="M19.7 26.8 18.25 28l-.5.05 1.35-1.55.6.3" fill="#8d8aa8"/><path d="m15.5 14.4-2.15-2.35-.65.8-.4-.25.65-1.15h1.55l1.65 1.35.05 1.05q.35.6 1.35.25l.05.1.6.6-1.1 1.35-1-1.1q-.7.65-1.35.5l-.1-.1 1.55-1.15q.2-.45-.7.1" fill="#797990"/><path d="M8.1 9.65q-.3-.4-1.75-1L9 8.55q1.7.55 3.4 1.5l.4 1v.05l-.25.6L8.1 9.65" fill="#a59dc5"/><path d="m8.1 9.65 4.45 2.05-.55.75-2.2-.55q-1-.6-1.65-1.9l-.05-.35" fill="#7d7797"/><path d="m12.7 12.85.65-.8 2.15 2.35-1.05.8L12.8 13l-.1-.1v-.05" fill="#525064"/><path d="M14.75 15.55q.65.15 1.35-.5l1 1.1-.3.55q-.45-.35-1.95-1v-.05l-.1-.1" fill="#3f3f4d"/><path d="m13.9 11-.75.05-.3-.75 1.05.7m3.4 2.9-.8-.2.05-.5.75.7" fill="#8885a1"/><path d="M3.65 14.9H3.6q0-.35-1.4-.75l4.35-.6.45-.05 1.65 1.15.1.15-5.1.1m5.6-1.35-.65.75-1.2-.8 1.85.05m.4 3.25h-.2l.05-.3q.15-1.05-.55-2.1l.65-.85 2.35.35q.7 1.35 1.15 1.45l.05.75q-1.35-1.1-3.2-1.15.35.9-.2 1.8l-.1.05m3.7.85h-.15q.7-1.15.1-2.25l.4-.05 1 1.4h-.05L14 16.5q.05.85-.65 1.15m.1-2.65q-.3.2-1.05-.9l1.05.9" fill="#8b88a6"/><path d="M13.15 16.1q0 .95-.4 1.5l-2.2-.65.4-.1-.1-.15-1.05.05-.15.05.1-.05q.55-.9.2-1.8 1.85.05 3.2 1.15" fill="#454455"/><path d="m8.75 14.8.3 1.25v.75l-3.25-.05-2.15-1.85 5.1-.1" fill="#5f5b73"/><path d="M14.65 16.75q-.6.45-.75.9h-.55q.7-.3.65-1.15l.65.25" fill="#67677c"/><path d="m9.4 18.6.2-.85.55-.15.5.15q-.7.1-1.25.85m-.25-.7-.4 1.15-1.25-.45q.75-.4 1.65-.7M6.6 21l-.75-.5-1.65.1q.95-.9 1.15-.9.85-.55 1.85-1l1.25.6L6.6 21" fill="#9590b1"/><path d="m6.6 21 1.85-1.7.3.1q.5.3.9 1.35l-1.3.5L6.6 21" fill="#555267"/><path d="m10.65 17.75.15.05.7.15h.1l.7 1.05q.35.25.35.65l-.3.95-1.35-.35-.1-.05-.85.35Q9.65 19.5 9 19.2l.4-.6q.55-.75 1.25-.85" fill="#3d3d4b"/><path d="m52.55 24.35 1.5.2L25.9 46.8q-2.7 3.1-1.45-1.9l-.1-.2L39.5 22.9l1.2.1-14.75 21q-.75.75-.45 2.2l.9-.75 5.4-4.35 20.75-16.75" fill="#576e86"/><path d="m40.7 23 1.8.25L26.35 43.8l.05 1.65-.9.75q-.3-1.45.45-2.2L40.7 23" fill="#a9c5d2"/><path d="m42.5 23.25 8.75.95L31.8 41.1l-5.4 4.35-.05-1.65L42.5 23.25" fill="#748fa1"/><path d="m51.25 24.2 1.3.15L31.8 41.1l19.45-16.9" fill="#ead4b0"/><path d="m41.95 19.9-1.6.55q-3.1-6.3-3.4-14.6 0-2.9.95-5.85l2.65 2.5.55 1.75-2.8-2.95q-1 11.25 3.65 18.6" fill="#242b71"/><path d="M41.95 19.9Q37.3 12.55 38.3 1.3l2.8 2.95 2.35 7.7Q41.6 7.3 39.2 5q-.2 8.85 3.35 14.65l-.6.25" fill="#788fff"/><path d="m43.45 11.95 2.75 6.35-3.65 1.35Q39 13.85 39.2 5q2.4 2.3 4.25 6.95l.05.1-.05-.1" fill="#2d3693"/><path d="M53.65 28.3q3.55-.6 5.5-2.05v1.4q-4.95 2.4-10.3 2.2-1-.15-1.1-.75l-.1-.05-6.45-2.65-.7-1h.05l8.5 3.3 4.6-.4" fill="#1d1e23"/><path d="M40.55 25.4q5.35 1.2 8.6 2.8l4.5.1-4.6.4-8.5-3.3" fill="#ead4b0"/><path d="m51.4 18.1-6.9 5.1q2.6 3.75 7.55 4.3 3.2.25 7.1-2v.75q-1.95 1.45-5.5 2.05l-4.5-.1q-3.25-1.6-8.6-2.8l-.15-.05q-.2-.1 1.8-7.75l9.2.5" fill="#353642"/><path d="M59.15 25.5q-3.9 2.25-7.1 2-4.95-.55-7.55-4.3l6.9-5.1 7.95.45-.2 6.95" fill="#737489"/><path d="M30.8 12.6q5.4-1.3 11.1 2.55l-.6.55h-.1q-3.85-2.8-9.65-2.2l-.75-.9" fill="#721dbc"/><path d="m25.9 21.75.5.15.05.9q-.1 2.2-2.3 5.3l-.2.25-.5-.05.95 1.75 2.9.6 3.45.45q1.45-.85 3.6-1.6l-.2-.4-1.05-2.2q-.05-.65.2-1.15l.65-2.4.4-.1-.1.7-.5 1.8-.15.35-.05.65.95 2.35 2.65-.2 2.95-.25.2-.05q1.75-.55 2.85-1.35l-.1-.45-.95-2 .6-2.45.5-.1-.55 2.3q.75 1.85 1.7 3-1.5 1-3.4 1.7l-.9.3-5.1.3q-.95 1.1-2.9 1.55-.95.8-2.5.65l-5.25-.9q-1.1-.75-1.8-2.5 2.65-2.05 3.4-6.9m11.05-3.5-.85-.3q5.1-.25 7.7-1.65l-1.15-.65q-.55.15-.9.45-4.35.65-7.25-.15-2-.8-3.35-2.35l-.7.15-.5-.9.85-.25.75.9.9.9 2 1.1 5.95.3.8-.1h.1l.6-.55h.05l1.25-.1q.6.45.7 1.2l-.1.05.1.05.05.35v.05q-2.5 1.35-7 1.5" fill="#576e86"/><path d="M25.9 21.75v-.05q-5.05-1.75-8-6.65-.7-.95-.35-1.75 1.6-.95 6.4-1.75l4.45-.6q.6 1.25 1.5 1.85l.05.05.5.9q1.55 2.2 5.6 4.15l.05.05.85.3 3.3.9.1.05q.95.65-2.05 2.1l-.9.55-.8.4-1.65.75-.6.25-.4.1-1.05.25q-1.1.3-2.6-.4l-3.9-1.3-.5-.15m7.8-4.2q-3.05-1.9-5.35-5.4l-3.45.4q-3.75.5-6.9 1.5 2.1 3.4 6.9 6 2.95 1.55 6.95 2.85l.75.25 1.9-.6q2.95-1.1 5.1-2.9l-.6-.1h-.1q-2.85-.55-5.2-2" fill="#242b71"/><path d="M33.7 17.55q-3.35-1.95-5.2-4.2l-2.5.3q-3.4.55-6 1.7 1.9 2.75 4.9 4.7-4.8-2.6-6.9-6 3.15-1 6.9-1.5l3.45-.4q2.3 3.5 5.35 5.4" fill="#76b8fb"/><path d="m24.9 18.5 1.95 1.05 4.7-1.85q.5 0 .35-.2l-1.35-1.05-1.6.3-4 1.15q-1.35.05-.1.6h.05m-2.05-1.3.65-.1 4.65-1.15 1.55-.3-1.3-1.45-1.85.05q-3 .15-5.7 1.15l2 1.8m2.05 2.85q-3-1.95-4.9-4.7 2.6-1.15 6-1.7l2.5-.3q1.85 2.25 5.2 4.2 2.35 1.45 5.2 2-2.25 1.4-4.85 2.5l-2.2.85q-4-1.3-6.95-2.85m6.7 1.45q.3.3.75.4l4.35-1.85-1.45-.65-4.15 1.8q0 .25.5.3m-3.5-1.45 1.75.85 3.95-1.75.15-.3-1.1-.75-4.75 1.95" fill="#788fff"/><path d="m31.85 22.9 2.2-.85q2.6-1.1 4.85-2.5h.1l.6.1q-2.15 1.8-5.1 2.9l-1.9.6-.75-.25" fill="#2d3693"/><path d="m26.4 21.9 3.9 1.3q1.5.7 2.6.4l1.05-.25-.65 2.4q-.25.5-.2 1.15l1.05 2.2q-1.55.45-3.05 1.35l-3.8.2-2.9-.6-.95-1.75.5.05.2-.25.6 1.05q1.55-1.75 2.7-4.55 2.4 1 5.15 1.15l.25-1.25q-3.15-.5-6.4-1.7l-.05-.9m7.95 1.35.6-.25 1.65-.75q1.3.65 3 .9 1.55-.2 3.1-.8l-.6 2.45.95 2-3.2 1.5-2.7.6-2.65.2-.95-2.35.05-.65.15-.35 3.75-.1 3.75-.65.2-1.1q-3.3-.1-4.5-.95l-1.4.65-1.3.35.1-.7m1.75-5.3-.05-.05q-4.05-1.95-5.6-4.15l.7-.15q1.35 1.55 3.35 2.35 2.9.8 7.25.15.35-.3.9-.45l1.15.65q-2.6 1.4-7.7 1.65" fill="#a9c5d2"/><path d="M26.45 22.8q3.25 1.2 6.4 1.7l-.25 1.25q-2.75-.15-5.15-1.15-1.15 2.8-2.7 4.55l-.6-1.05q2.2-3.1 2.3-5.3m13.95-7q-1.7-1.55-3.8-1.9.2 1.3-.65 1.35-1.2-.05-1.2-1.4l-2.3.55-.9-.9q5.8-.6 9.65 2.2l-.8.1m-6.15 8.15 1.3-.35 1.4-.65q1.2.85 4.5.95l-.2 1.1-3.75.65-3.75.1.5-1.8" fill="#fff"/><path d="m32.45 14.4 2.3-.55q0 1.35 1.2 1.4.85-.05.65-1.35 2.1.35 3.8 1.9l-5.95-.3-2-1.1" fill="#9c26ff"/><path d="m37.4 21.85.9-.55q3-1.45 2.05-2.1l-.1-.05-3.3-.9q4.5-.15 7-1.5l4.25 2.35-.3.5-8.15 2.9-2.35-.65" fill="#eca102"/><path d="m36.6 22.25.8-.4 2.35.65 8.15-2.9q-1.1 1.4-4.65 2.65h-.05l-.5.1q-1.55.6-3.1.8-1.7-.25-3-.9" fill="#bf6301"/><path d="m27.3 30.65 3.8-.2q1.5-.9 3.05-1.35l.2.4q-2.15.75-3.6 1.6l-3.45-.45m9.85-1.75 2.7-.6 3.2-1.5.1.45q-1.1.8-2.85 1.35l-.2.05-2.95.25" fill="#ead4b0"/><path d="M24.9 18.5h-.05q-1.25-.55.1-.6l4-1.15 1.6-.3 1.35 1.05q.15.2-.35.2l-4.7 1.85-1.95-1.05m-3.4-2.9 1.5 1.3q2.15-.8 4.85-1.3l1.3-.2-.8-1-1.55.15q-3.3.35-5.3 1.05m1.35 1.6-2-1.8q2.7-1 5.7-1.15l1.85-.05 1.3 1.45-1.55.3-4.65 1.15-.65.1m4 2.05 4.45-1.85-.9-.75-5.2 1.55 1.65 1.05m2.1.9.85.5 3.75-1.75-.6-.5-4 1.75m-.85-.1 4.75-1.95 1.1.75-.15.3-3.95 1.75-1.75-.85m3.5 1.45q-.5-.05-.5-.3l4.15-1.8 1.45.65-4.35 1.85q-.45-.1-.75-.4m3.85-1.85-3.9 1.6.7.35L36.2 20l-.75-.35" fill="#017d33"/><path d="M21.5 15.6q2-.7 5.3-1.05l1.55-.15.8 1-1.3.2q-2.7.5-4.85 1.3l-1.5-1.3m5.35 3.65L25.2 18.2l5.2-1.55.9.75-4.45 1.85m2.1.9 4-1.75.6.5-3.75 1.75-.85-.5m6.5-.5.75.35-3.95 1.6-.7-.35 3.9-1.6" fill="#25ff99"/><path d="m38.25 1.35-.05-.15-.3-1.1q4.1 3.65 7.35 7.15l.75.8q6.15-3.1 14.45-.75v.6l-1.35-.15q-7.65-.9-12.95 1.2l-.05.25-.3-.05-.25-.25-6.8-7-.5-.55M60.7 19.6l.05 1.3-7 .75-.35-.1-4.5-1.7-3.9-1.9-.4-.8-.35-.7q-3.05-6-4.85-11.35l1 1.45 4.9 10.6.2.4 8.65 3.3 6.55-1.25" fill="#242b71"/><path d="M60.85 23.9V25l-3.9.8q-3.6.55-6.15.1l-.2-.1q-4.65-2.75-8.8-6.75l-.05-.3q.9-1.15 2.5-2.3l.35.7-.75.65-1 .95q2.8 2.9 7.3 5.55l1.1.65q2.65.15 4.9-.1l4.7-.95" fill="#bf6301"/><path d="m60.75 21.55.1 2.35-4.7.95q-2.25.25-4.9.1l-1.1-.65q-4.5-2.65-7.3-5.55l1-.95q2.9 2.25 5.45 3.5 2.1 1.05 4 1.5l1.05-.1 6.4-1.15" fill="#eca102"/><path d="M60.75 20.9v.65l-6.4 1.15-1.05.1q-1.9-.45-4-1.5-2.55-1.25-5.45-3.5l.75-.65.4.8 3.9 1.9 4.5 1.7.35.1 7-.75" fill="#fbee7b"/><path d="m38.75 1.9 6.8 7q-4.1-2.45-6.8-7m7.35 7.3.05-.25q5.3-2.1 12.95-1.2-1.15 5.7-5.1 6.35-5 .2-7.25-4.4l-.65-.5" fill="#76b8fb"/><path d="m38.25 1.35.5.55q2.7 4.55 6.8 7l.25.25.3.05.65.5Q49 14.3 54 14.1q3.95-.65 5.1-6.35l1.35.15.2 8.85q-7.5 3.45-8.05 3.1l-7.3-2.7-4.9-10.6-1-1.45-.1-.35-1.05-3.4m4.55 7.8.6 1.6q.15.4.9.55l1.9.45-.5-1.55-2.25-1.05q-.65-.45-.65-.25v.25m2.65 2.95L44 12.05l.75 1.4q.3.25.95.25l1.4.05-.7-1.4-.95-.25m4.85 6.25-1.45-1.75-1.75.25 2.25 1.5.7.45.35.1q.4.1-.1-.55m-2.85-3.95-2.2-.1.95 1.65 2.05-.1-.8-1.45" fill="#788fff"/><path d="m60.65 16.75.05 2.85-6.55 1.25-8.65-3.3-.2-.4 7.3 2.7q.55.35 8.05-3.1" fill="#2d3693"/><path d="M42.8 9.15V8.9q0-.2.65.25l2.25 1.05.5 1.55-1.9-.45q-.75-.15-.9-.55l-.6-1.6m.4.3.55 1.45 1.95.6-.15-1.1-2.35-.95m2 3.9 1.35.2-.5-1.05-1.45-.1.6.95m.25-1.25.95.25.7 1.4-1.4-.05q-.65 0-.95-.25l-.75-1.4 1.45.05m4.85 6.25q.5.65.1.55l-.35-.1-.7-.45-2.25-1.5 1.75-.25 1.45 1.75m-.25.1-1.4-1.55-.85.15 2.25 1.4m-2.9-3.8-1.2-.05.55 1h1.2l-.55-.95m.3-.25.8 1.45-2.05.1-.95-1.65 2.2.1" fill="#017d33"/><path d="m43.2 9.45 2.35.95.15 1.1-1.95-.6-.55-1.45m2 3.9-.6-.95 1.45.1.5 1.05-1.35-.2m4.85 5.1-2.25-1.4.85-.15 1.4 1.55m-2.9-3.8.55.95h-1.2l-.55-1 1.2.05" fill="#25ff99"/></g><g id="w" fill-rule="evenodd"><path d="m12.8.15.35-.05 2.95 21.3Q13.75 10.5 12.8.15" fill="#e3d3b4"/><path d="m.85 2.65 2.4-.5 9.9 16.95q.8 1.05 1 .35v-.05q.2-.8-.3-3.45L11.5.4l1.3-.25q.95 10.35 3.3 21.25l.95 6.8L9.2 14.35l-.3 1.75L.85 2.65" fill="#748fa1"/><path d="M3.25 2.15 3.9 2l5.9 10.45 3.05 5.5q.6 1.55 1.15 1.4L11 .5l.5-.1 2.35 15.55q.5 2.65.3 3.45l-.15-.05.15.1q-.2.7-1-.35L3.25 2.15" fill="#017d33"/><path d="m13.15.1.3-.1q3.25 12.75 4.8 29.5l-.8 1.45-1.55-1.65L0 2.75l.85-.1L8.9 16.1l7.8 13 .5.4-.15-1.3-.95-6.8L13.15.1" fill="#576e86"/><path d="M6.45 1.5 11 .5l3 18.85q-.55.15-1.15-1.4l-3.05-5.5L6.45 1.5" fill="#01a458"/><path d="m8.9 16.1.3-1.75 7.85 13.85.15 1.3-.5-.4-7.8-13" fill="#a9c5d2"/><path d="m3.9 2 2.55-.5L9.8 12.45 3.9 2" fill="#25ff99"/></g><g id="x" fill-rule="evenodd"><path d="M12.9 11.05Q7.5 10.4 2.6 8.6l-1.3-.45 1.1 3-1.15-.35Q.35 8.85 0 6.7l3.05.95 2.3.75 7.85 1.65q.65-1.65 1.3-2.5.8.3 1.65 1.45l1.15 2.1-.25 1.35-1.15-1.85-.95-1.55-.85 1.75-.2.4-.85-.15h-.15" fill="#242b71"/><path d="m2.4 11.15-1.1-3 1.3.45q4.9 1.8 10.3 2.45-5.75 1.2-8.75-.55l1.35 1.6-3.1-.95m11.7-.35.85-1.75.95 1.55-1.8.2" fill="#76b8fb"/><path d="M12.9 11.05h.15l.85.15.2-.4 1.8-.2 1.15 1.85-7.8 2.75q-2-1.2-3.75-3.1l-1.35-1.6q3 1.75 8.75.55" fill="#2b50bf"/><path d="m15.85 13.9-.6-.3q.45-3.4 1.9-6.9l.1-.25Q23.3 1.9 30.3 0l.7 1.35q-6.05.65-12.5 5.2-1.85 3.35-2.65 7.35m17.3-8.45.25.4q-4.35.35-8.95 5.65-1.15 1-.95 2.1l-5.55 1.65-.2-.2 5.5-1.7q-.6-1.35 2.9-4.15 2.75-2.75 7-3.75m.8 1.4.1.25q-6.1 1.2-8.5 5.9l-.05.75q-2.55 1.25-7 2.3l-.2-.25 3.1-.85 3.7-1.35q.9-4.75 8.85-6.75M36.1 11l.35.6q-8.4 5-13.1 11.05l-.25-.3q6.25-8.45 13-11.35" fill="#576e86"/><path d="m32.05 3.9 1.1 1.55q-4.25 1-7 3.75-3.5 2.8-2.9 4.15l-5.5 1.7-1.15-.7Q25.3 6.3 32.05 3.9m2.25 3.6 1.6 3.05q-6.7 3.25-13.05 11.4L18.9 16.6q3.1-.65 6.95-2.05Q27.5 9.4 34.3 7.5" fill="#a9c5d2"/><path d="m35.9 10.55.2.45q-6.75 2.9-13 11.35l-.25-.4q6.35-8.15 13.05-11.4" fill="#ead4b0"/><path d="M15.85 13.9q.8-4 2.65-7.35Q24.95 2 31 1.35l1.05 2.55Q25.3 6.3 16.6 14.35l-.75-.45m18.2-6.8.25.4q-6.8 1.9-8.45 7.05-3.85 1.4-6.95 2.05l-.4-.55q4.45-1.05 7-2.3l.05-.75q2.4-4.7 8.5-5.9" fill="#fff"/><path d="m33.4 5.85.25.5q-5.7.65-10 7.35l-.1.15-2.2 1-3.2.75-.2-.35 5.55-1.65q-.2-1.1.95-2.1 4.6-5.3 8.95-5.65" fill="#737489"/><path d="m33.65 6.35.3.5q-7.95 2-8.85 6.75l-3.7 1.35-.05-.1 2.2-1 .1-.15q4.3-6.7 10-7.35" fill="#353642"/><path d="m29 16.25-.1-.05-.25-.1q-.35-.2-.65-.3-.85-.35-1.7-.35-3.05 1-5.8 3.65l-2.35 2.7q3.65 2.85 8.6 4.3l1.85.45.05-.05.9-2.25.1-.2V24q1.35-3.85.75-6.55-.45-.95-1.2-1.1h-.15v-.05l-.05-.05M17.65 21.7l.15-.2q3.1-4.25 7.15-6.7 1.2-.8 4.5.5.7-.2 1.25 1 .6.55.6 1.85.3 3.05 1.9 4.1 1.25 1.1 2.6 1.6l-.2 2.1h-.05l.05.1.45 2.35-.05 3.85-.1.4-.1.65-.8 2.5-.25.6-2.25-.9-.45-.15q-1.2-.5-2.4-.9l-.7-.3-4.85-1.85v.25l-.95-.35V32l-.05-.15Q22 29.3 20.3 26.5q1.35-.15 3.35 4.15.45.75.35 1.05 5.35 1.7 10.55 3.85l.05-.05q1.1-3.5.9-6.6-.15-2.45-1.05-4.65-2.8-1.45-3.45-3.2V21v.1l-.1.4q-.8 3.7-2.15 5.3-1.5.1-3.7-.8-3.05-1.25-7.4-4.3m11.15.15q.65.65.5 1.05-.25 1.25-.85 1.7-.7-.8-.8-1.5l-.05-.05.7-1.35q.1-.45.5.15m-.25 1.1-.35-.3-.35.6.4.5.3-.8m-.2-.55.35.4q.2.45-.35 1.2l.15.2.55-1.4-.65-.7-.05.3m6.25 7.95-.4 3.7q-1.7-.35-2.5-1.8l.95-2.5q.3-.45 1.95.6m-.85.9-.3 2 .45.05.25-2.7q-.55-.4-1.1-.5l-.2.55q.75.15.9.6m-.4.05-.6-.4-.6 1.55.9.65.3-1.8" fill="#bf6301"/><path d="m35.8 23.85 4.3 7.5-2.45 3.4q-.5.65-1.25 0l-.25 3-1.65 5.95q-3.8 6.05-11.4 12.4l-2.3 1.55q-.5-.65 2.75-12.45.15-.75 1.35-1.75l.5.85-.65 1-.15.1-2.35 9.9 2.55-2.1q3.5-3.15 8.15-8.95 2.3-5.2 2.05-8.45l.8-2.5.6.25-.5-.9.1-.4 1.05 1.25.15.2 1.55-2.6L35.6 26v-.05l.2-2.1m-3.75 11.5.45.15-.2 1-.85 4.5-6.05 5.2q-.45.1-.55-.25-.1-.4.55-.45h.05l.35-.3 3.65-3.2 1.4-1.25 1.2-5.4" fill="#576e86"/><path d="m35.6 26 3.15 5.1-1.55 2.6-.15-.2.95-1.9-1.95-3.2-.45-2.35V26m.3 6.65.5.9-.6-.25.1-.65" fill="#748fa1"/><path d="M36.05 28.4 38 31.6l-.95 1.9L36 32.25l.05-3.85M35 35.8q.25 3.25-2.05 8.45-4.65 5.8-8.15 8.95l1.45-6.2 6.1-5.5.8-4.5-.85-.5.2-1 2.25.9.25-.6m-10.25 9.5.65-1 .05 1.2h-.05q-.65.05-.55.45l-.1-.65" fill="#a9c5d2"/><path d="m24.8 53.2-2.55 2.1 2.35-9.9.15-.1.1.65q.1.35.55.25l6.05-5.2.85-4.5.85.5-.8 4.5-6.1 5.5-1.45 6.2" fill="#fff"/><path d="M26.15 41.95q1.85-1.45 3.55-3.9.2 1.65-.25 3.95l-3.65 3.2q.4-1.4.35-3.25" fill="#737489"/><path d="M29.65 34.45q1.2.4 2.4.9l-1.2 5.4-1.4 1.25q.45-2.3.25-3.95-1.7 2.45-3.55 3.9l-.1-1 2.3-3.5q1.1-1.15 1.3-3" fill="#353642"/><path d="M24.9 43.45v-.7l1.15-1.8.1 1q.05 1.85-.35 3.25l-.35.3-.05-1.2-.5-.85" fill="#1d1e23"/><path d="M24.9 42.75q-3.3 4.75-3.6 3.7l1.85-14.25.95.35-.1.8-.95 8.6-.3.9-.1 1.2q3.35-5.75 5.95-8.1l.35-1.8.7.3q-.2 1.85-1.3 3l-2.3 3.5-1.15 1.8" fill="#242b71"/><path d="M24.1 32.55v-.25l4.85 1.85-.35 1.8q-2.6 2.35-5.95 8.1l.1-1.2q2.35-3.8 5.25-7.75l-1.8-.8-.3-.1-1.9-.85.1-.8" fill="#2b50bf"/><path d="m24 33.35 1.9.85-1.1.85q-.5 2.8-.15 4.45l1.65-2.3-.05-2-.05-.9 1.8.8q-2.9 3.95-5.25 7.75l.3-.9.95-8.6" fill="#76b8fb"/><path d="m25.9 34.2.3.1.05.9.05 2-1.65 2.3q-.35-1.65.15-4.45l1.1-.85m-.05 3.05-.15-2.5-.6.25-.3 3.75 1.05-1.5" fill="#038338"/><path d="m28.55 22.95-.3.8-.4-.5.35-.6.35.3m4.8 8.35-.3 1.8-.9-.65.6-1.55.6.4m-7.5 5.95-1.05 1.5.3-3.75.6-.25.15 2.5" fill="#25ff99"/><path d="m28.65 26.5-4.85-2.65Q22.3 21.7 22.35 19q5.25 1.55 6.7-2.7v.05h.15q.1.55.7 1.15.05 3.4-.25 6.5v.05l-.1.2-.9 2.25m-8.95-.95-.25-.4-2.1-3.05.3-.4q4.35 3.05 7.4 4.3 2.2.9 3.7.8 1.35-1.6 2.15-5.3l.1-.4q.5 2.4 2.85 3.6 1.05 2.05 1.45 4.35l.2-.15q.2 3.1-.9 6.6l-6.9-4.8-1.3-2.6-6.7-2.55m9.1-3.7q-.4-.6-.5-.15l-.7 1.35.05.05q.1.7.8 1.5.6-.45.85-1.7.15-.4-.5-1.05m-.45.55.05-.3.65.7-.55 1.4-.15-.2q.55-.75.35-1.2l-.35-.4m6.25 7.95q-1.65-1.05-1.95-.6l-.95 2.5q.8 1.45 2.5 1.8l.4-3.7m-.85.9q-.15-.45-.9-.6l.2-.55q.55.1 1.1.5l-.25 2.7-.45-.05.3-2" fill="#eca102"/><path d="m28.65 26.5-.05.05-1.85-.45q-4.95-1.45-8.6-4.3l2.35-2.7q2.75-2.65 5.8-3.65.85 0 1.7.35.3.1.65.3l.25.1.1.05.05.05q-1.45 4.25-6.7 2.7-.05 2.7 1.45 4.85l4.85 2.65m-8.35 0-.6-.95 6.7 2.55 1.3 2.6 6.9 4.8-.05.05Q29.35 33.4 24 31.7q.1-.3-.35-1.05-2-4.3-3.35-4.15" fill="#fbee7b"/><path d="M29.2 16.35q.75.15 1.2 1.1.6 2.7-.75 6.55.3-3.1.25-6.5-.6-.6-.7-1.15m1.8 4.7q.65 1.75 3.45 3.2.9 2.2 1.05 4.65l-.2.15q-.4-2.3-1.45-4.35-2.35-1.2-2.85-3.6v-.05" fill="#ead4b0"/><path d="m4.9 11.3-.95-.85v-.05q5.8 2.9 12.15 2.3h.3l.9-1.65q.75-2.15 1.75-.65 2.6 3.7 4.45 7.45-.15 6.4-3 10.95-1.45 0-2.65-1.15-2.15-1.05-3.8-3.4l-5.6-.65Q3.7 19.4 0 6.75l1.3 1.3-.05.05.05.1.55 1.5Q3.4 13.75 5 16.85l.55 1 .05.15q1.4 2.65 2.1 3.5l.9 1.05 5.9.65.7.15q1.45.4 1.9.9h-1.75q.75 1.6 3.9 3.05l.6.25 1.45-2.7q.85-2.05 1.25-4.3l.25-2.1q-1.55-3.5-4.1-7.25l-.15-.25-.2-.2-1.6 2.8-.25.05q-7.35 1-11.6-2.3" fill="#242b71"/><path d="M18.65 11.2q-.1 1.25-1.7 2.9l-.2.05Q8.1 15.5 4.9 11.3q4.25 3.3 11.6 2.3l.25-.05 1.6-2.8.2.2.1.25m-16-2.5q2 3.15 3.8 8.15l-.1.05-4.5-7.2-.55-1.5.05-.05 1.25.45.05.1" fill="#b4effd"/><path d="m18.3 18.8.85.4-.6.3q0 .35.35 1.1.2.5.6.3l1.55-.6.05-.15.7.35.65-1.5-3.8-7.8h.05q2.55 3.75 4.1 7.25l-.25 2.1q-.4 2.25-1.25 4.3l-1.45 2.7-.6-.25-3.35-3.05h1.2q-.45-.5-1.9-.9l-.7-.15q-2.75-1.15-5.65-1.45v-.1L5 16.85q-1.6-3.1-3.15-7.15l4.5 7.2.25.35-.15-.4q5.3-.45 11.5 1.85l.05.05.1.2.2-.15m1.55 2.65-.1.05-.5.15.4 2.15.7-1.15.25-.8.1-.25.15-.1.05-.25q-.35-.2-1.05.2" fill="#2b50bf"/><path d="m18.3 18.8 2.15-1.4.05-.5q-.5-1.45-.95-1.35l-1.65 1.3-.7.7-.1.3q.35-.05.85.85-6.2-2.3-11.5-1.85-1.8-5-3.8-8.15l1.25 1.7h-.05l.1.05.95.85q3.2 4.2 11.85 2.85l.2-.05q1.6-1.65 1.7-2.9l3.8 7.8-.65 1.5-.7-.35-.05-2.05-1.9 1.1-.85-.4M16 16.1l.05.05.65.8 2.55-2.2-.65-1.15-.6-.05h-.05L15.9 15.7l-.05.05.15.35" fill="#76b8fb"/><path d="m5 16.85 3.85 4.8v.1q2.9.3 5.65 1.45l-5.9-.65-.9-1.05Q7 20.65 5.6 18l-.05-.15-.55-1m10.9 7.4 3.35 3.05q-3.15-1.45-3.9-3.05h.55" fill="#ead4b0"/><path d="M17.95 18.7q-.5-.9-.85-.85l.1-.3.7-.7 1.65-1.3q.45-.1.95 1.35l-.05.5-2.15 1.4-.2.15-.1-.2-.05-.05m1.2.5 1.9-1.1.05 2.05-.05.15-1.55.6q-.4.2-.6-.3-.35-.75-.35-1.1l.6-.3m.95-2.1-.55-1-1.45 1.15-.35.3.55.85 1.8-1.3m-.25 4.35q.7-.4 1.05-.2l-.05.25-.15.1-.1.25-.25.8-.7 1.15-.4-2.15.5-.15.1-.05m.75-1.3.05-1.3-1.6.8.35.95 1.2-.45m-.25 1.55-.65.05q.3.55.25 1.25l.3-.65.1-.65m-4.45-6 2.05-2.15H18l.6.05.65 1.15-2.55 2.2-.65-.8-.05-.05q.1-.45.65.25l2.15-1.7-.6-.7-1.85 1.7-.45.05" fill="#017d33"/><path d="m20.1 17.1-1.8 1.3-.55-.85.35-.3 1.45-1.15.55 1m.25 4.6-.1.65-.3.65q.05-.7-.25-1.25l.65-.05m.25-1.55-1.2.45-.35-.95 1.6-.8-.05 1.3m-4.7-4.45.45-.05 1.85-1.7.6.7-2.15 1.7q-.55-.7-.65-.25l-.15-.35.05-.05" fill="#25ff99"/></g><g id="y" fill-rule="evenodd"><path d="M16.3 2.75q1.7 3.9 1.5 6.9-6.35 1.25-9.05 6l-1.6 6.5q-2.6-3.45-3.45-9.7l12.6-9.7m6.25 32.7-.65-.95-.25-.4q-2.7-5.4-2.4-6l.85-1.2q1.95 2.75 5.05 5.2l-2.6 3.35" fill="#353642"/><path d="M29.55 26.6q-1.7-3.65-.5-9.55l-.6.3L24.9 19l-.35.2-.4.15-3.9 1.85-.5.2-7.85 3.75-.65.3q-2.35-1-4-3.15l-.1-.15 1.6-6.5q2.7-4.75 9.05-6 .2-3-1.5-6.9L19.85 0q6.4-.2 9.85 16.7l-.4 3.85v.4q0 1.55.15 2.8l.05.4q.2 1.05.55 1.9l-.5.55" fill="#1d1e23"/><path d="m11.25 25.45.65-.3 2.6 2.6 2.4 1.9.15-.05q1.25-.75 2.85-3.2l-.15-5 .5-.2.35 4.95v.3q2.6 3.35 5.15 5l-.6.65q-3.1-2.45-5.05-5.2l-.85 1.2-.25.3v1.05l2.65 4.65.25.4.65.95-.35.45q-4.05-6.55-3.45-7.2-.95 1.05-1.65 1.1h-.15l-.75-.05-.3-.3-.2-.15-.25-.2-.45-.4-.4-.3-.75-.25h-.1l-2.45-2.6-.05-.1m12.9-6.1.4-.15-1.05 5.55 2.1 4.05 1 1.55-.25.3q-3.75-5.45-3.25-6.3l1.05-5M17.8 45.4q1.9 7.2 4.8 13.65Q18.45 51 17.8 45.4m6.35 16.25L25 59.7q-.7-11.25.35-14l.8 2v.1q-.9 4 0 12.15-1.05 1.6-1.95 4.1Q15.8 50.9 12.9 40q-.7-3.2.3-7.1l.75 1.5.05.1q-.55 1.3-.55 3.4 3.3 12.6 10.45 24.35l.25-.6" fill="#576e86"/><path d="m16.3 33.5 1.25 3.5q-1.25-1.1-2.6-6.1l-.35-.45.4-1.75.45.4-.4 1.4.45 1.1.25.6.55 1.3m4.45 4.2.35.1q-1.75 2.05-4 3.35l-.2-.3q-1.75-2.25-2.75-6.05l-.15-.3-.05-.1-.75-1.5q-.55-1.3-.8-2.55.2-1.05 1.45-2.2l.75.25-1.05 1.7.45 2.3q.8 3.5 2 6.15l1.15 2.1.1.15 3.5-3.1" fill="#bf6301"/><path d="m15 28.7-.4 1.75.35.45q1.35 5 2.6 6.1l.3 1.75-.8-.65.1 2.55-1.15-2.1-.15-2.65L14 32.4l-.45-2.3 1.05-1.7.4.3" fill="#fbee7b"/><path d="M29.45 23.75q-.15-1.25-.15-2.8l1.05.2q.55.55-.9 2.6M17.6 37l3.15.7-3.5 3.1-.1-.15-.1-2.55.8.65-.3-1.75.05.05V37M14 32.4l1.85 3.5.15 2.65q-1.2-2.65-2-6.15" fill="#eca102"/><path d="m11.9 25.15 7.85-3.75.15 5q-1.6 2.45-2.85 3.2l.1-.4-1.5-1.95-1.15.5-2.6-2.6m8.35-3.95 3.9-1.85-1.05 5q-.5.85 3.25 6.3l-.25.3Q22.4 28 21.3 25.9l-.7.25-.35-4.95m-4.35 8.25.3.3.75.05h.15q.7-.05 1.65-1.1-.6.65 3.45 7.2l-.5.6 3.65 9.2q-1.05 2.75-.35 14l-.85 1.95q-.75-.85-1.4-2.35l-.05-.05-.1-.2q-2.9-6.45-4.8-13.65l-.9-4.55.2.3q2.25-1.3 4-3.35l-.35-.1-3.15-.7h-.05l-1.25-3.5.55-2.6-1-.5.05-.95" fill="#a9c5d2"/><path d="M25.75 31.45q-2.55-1.65-5.15-5v-.3l.7-.25q1.1 2.1 4.8 5.05l-.35.5m-8.7-1.85-.15.05-2.4-1.9 1.15-.5 1.5 1.95-.1.4m-1.2.8 1 .5-.55 2.6-.55-1.3.1-1.8m1.05 10.45.9 4.55q.65 5.6 4.8 13.65l.1.2.05.05q.65 1.5 1.4 2.35l-.25.6Q16.75 50.5 13.45 37.9q0-2.1.55-3.4l.15.3q1 3.8 2.75 6.05" fill="#fff"/><path d="m24.55 19.2.35-.2q-.1 3.45-.65 5.95 1.1 2.05 1.35 3.85l-2.1-4.05 1.05-5.55m-9.1 9.9.25.2-.2 2.3-.45-1.1.4-1.4m6.2 5L19 29.45V28.4l.25-.3q-.3.6 2.4 6" fill="#737489"/><path d="m15.7 29.3.2.15-.05.95-.1 1.8-.25-.6.2-2.3" fill="#718398"/><path d="m24.9 19 3.55-1.65q-1.35 5.6.35 10.15l-2.2 2.85-1-1.55q-.25-1.8-1.35-3.85.55-2.5.65-5.95" fill="#3a3b48"/><path d="m28.45 17.35.6-.3q-1.2 5.9.5 9.55l-.75.9q-1.7-4.55-.35-10.15" fill="#ead4b0"/><path d="m29.5 24.15-.05-.4q1.45-2.05.9-2.6l-1.05-.2v-.4q1.5-.7 2.1.7.3 1.15-1.9 2.9M22.2 11.7l.55.05Q25.5 21.4 20.8 25.4l-3.4-.05q-4.75 3.2-10.5 3Q2.7 25.2.8 21.7L0 18.15q1.05-2.1 3.8-4.5l1.5.2.1.45q.35 1.65 1.35 3.55 5.9-1.5 9.75-6.45h.6l-3.25 3.75Q9.6 19.3 4.9 19.85l-.05.1H4.7q-.4-.3-1.45-2.85-.4.15.05-1.75l-.3-.2q-1.4 1.1-1.85 2.75l-.2 1q.15 1.15.6 2.25.6 1.5 1.85 2.95v-.15l3.2-.6q4.9-1.45 16.15-6.3l.2-.1.45-.2q-.15-2.35-1.2-5.05m1.15 7.15.1-1.65q-17.35 7.5-20 6.95 1.4 1.7 3.7 3.35l4.1-.8.25-.05q3.05-.75 5.8-1.85l3.25.05q2.4-2.65 2.8-6M6.6 18.3q-.65-.65-1.5-3.85l-1.4.65-.3 1.85 1.5 2.45q5.6-1.35 8.25-4.1-3.25 2.4-6.55 3" fill="#242b71"/><path d="m17.1 11.4 5.1.3q1.05 2.7 1.2 5.05l-.45.2-.2.1-8.6.3-.3-2.2 3.25-3.75M6.6 23.35l-3.2.6.15-1 .1-.6q.35-1.7 1.05-2.4h.15l-.5 1.35q-.45 2.2 2.25 2.05m4.9 3.3-.25.05-4.1.8q-2.3-1.65-3.7-3.35 2.65.55 20-6.95l-.1 1.65q-.4 2.55-3.1 5.35-5.25.35-8.75 2.45M6.6 18.3q3.3-.6 6.55-3-2.65 2.75-8.25 4.1l-1.5-2.45.3-1.85 1.4-.65q.85 3.2 1.5 3.85" fill="#2b50bf"/><path d="M22.75 17.05Q11.5 21.9 6.6 23.35q-2.7.15-2.25-2.05l.5-1.35.05-.1q4.7-.55 8.95-4.7l.3 2.2 8.6-.3m-21.2 4.1q-.45-1.1-.6-2.25l.2-1Q2 16.35 3.1 15.5l-1.55 5.65" fill="#76b8fb"/><path d="M3.4 23.95v.15q-1.25-1.45-1.85-2.95L3.1 15.5l.2-.15q-.45 1.9-.05 1.75 1.05 2.55 1.45 2.85-.7.7-1.05 2.4l-.1.6-.15 1" fill="#b4effd"/><path d="M1.15 17.9Q1.6 16.25 3 15.15l.3.2-.2.15q-1.1.85-1.95 2.4" fill="#788fff"/><path d="M11.5 26.65q3.5-2.1 8.75-2.45 2.7-2.8 3.1-5.35-.4 3.35-2.8 6l-3.25-.05q-2.75 1.1-5.8 1.85" fill="#ead4b0"/><path d="m34.1 12.35.6.25-2.25 5.2q-4.15 2.75-7.95 3.6-4.5 1.1-8.75-1.55 2.65-4.8 8.6-11.5l.45.2q-2.9 3.1-5.4 6.55l-.1.1-3 4.5.35.15q2.6 1.2 6.6 1.3 3.7-1.2 6.9-3l1.5-.8 2.45-5" fill="#576e86"/><path d="m28.25 9.95-1.2 1.2q-4.5 4.6-6.2 7.8.5.8 3.75 1.1.7-.1.6-.5 2.95-.7 5.7-2.6 1.45-3.2 1.45-5.3l1.2.5-2.15 4.8-1.25 1.2q-3.2 1.8-6.9 3-4-.1-6.6-1.3l3.4-.7q1.8-3.3 4.15-5.9l-.15-.8-4.65 2.65q2.5-3.45 5.4-6.55l3.45 1.4" fill="#a9c5d2"/><path d="m19.4 15.1 4.65-2.65.15.8q-2.35 2.6-4.15 5.9l-3.4.7-.35-.15 3-4.5.1-.1" fill="#fff"/><path d="m28.1 18.1-3.8 1.45q-2.8-.1-3.05-.65l-.05-.05q1.2-1.9 2.55-3.55 2.4 1.3 5.2.75l-.85 2.05" fill="#25ff99"/><path d="M23.75 15.3q1.9-2.25 4.25-3.9l1.3-.95 2.55 1q-.2 2.75-1.3 5.35l-2.45 1.3.85-2.05q-2.8.55-5.2-.75" fill="#01a458"/><path d="m29.3 10.45-1.3.95q-2.35 1.65-4.25 3.9-1.35 1.65-2.55 3.55l.05.05q.25.55 3.05.65l3.8-1.45 2.45-1.3q1.1-2.6 1.3-5.35l.5.2q0 2.1-1.45 5.3-2.75 1.9-5.7 2.6.1.4-.6.5-3.25-.3-3.75-1.1 1.7-3.2 6.2-7.8l1.2-1.2V10l1.05.45" fill="#017d33"/><path d="m30.15 18.15 1.25-1.2 2.15-4.8.55.2-2.45 5-1.5.8" fill="#ead4b0"/></g><g id="z" fill-rule="evenodd"><path d="m.25 0 .4.15.2.05L10 8.6l2.35-1.05.15.2.05.05-1.45 1.35-.15.15-.55.5L.25 0m21.2 30.2q1.6 4.2 2.2 3.95l6.15 3.8-7.4-14.3-.25-1.85.45.5L31.3 39l19.55 12.1.75-.05q-3.35-4.2-7.15-7.9L21.8 19.75l-.5-2.95 43.3 44.9-41.75-26.95q-1.75-3.65-1.4-4.55" fill="#a9c5d2"/><path d="m10.15 10.05-2.9 3.05-.4-.15L0 .05.2 0h.05L10.4 9.8l-.25.25M3.3 22.8l1.05-.85L21.5 32.8l-.15-.75q-2.3-6.05-4.95-11.1l-.05-.2q-1.8-2.25-5.55-4.15l.65-.55q2.9 1.2 6.2 5.3l3.8 8.85q-.35.9 1.4 4.55L64.6 61.7l.85.85-1.1-.5-33.1-20.55L3.3 22.8m9.9-8.2.85-.7 8.1 7.9.25 1.85-.55-1Q17.2 17.4 13.2 14.6m8.1 2.2.5 2.95-10.7-10.6 1.45-1.35 8.75 9" fill="#748fa1"/><path d="m4.75 21.65 5.6-4.65q2.95 1.25 5.6 3.7l3.95 8.85-.45 1.5-14.7-9.4M12 15.6l.85-.7q3.85 2.65 8.5 7.65l.2.25.55 1.05q-.95.55-.6 2.7L23.9 34l-.4-.2-5.4-12.6q-2.8-3.55-6.1-5.6m20.45 23.75-.85-.55-8.9-16.9L10.4 9.8l.55-.5L26 24.8l6.45 14.55" fill="#01a458"/><path d="m4.35 21.95.4-.3 14.7 9.4 1.65 1.05-1.2-2.55-3.95-8.85q-2.65-2.45-5.6-3.7l.45-.4q3.75 1.9 5.55 4.15l.05.2q2.65 5.05 4.95 11.1l.15.75L4.35 21.95m7.1-5.9.55-.45q3.3 2.05 6.1 5.6l5.4 12.6.4.2 4.9 3.05-6.7-13.2-.55-1.05-.2-.25q-4.65-5-8.5-7.65l.35-.3q4 2.8 8.65 8.05l.55 1 7.4 14.3-6.15-3.8q-.6.25-2.2-3.95l-3.8-8.85q-3.3-4.1-6.2-5.3m2.6-2.15-3.9-3.85.25-.25 12.3 12.1 8.9 16.9.85.55L51 50.9l-.15-.45L26 24.8 10.95 9.3l.15-.15 10.7 10.6 22.65 23.4q3.8 3.7 7.15 7.9l-.75.05L31.3 39l-8.7-16.7-.45-.5-8.1-7.9" fill="#017d33"/><path d="M32.45 39.35 26 24.8l24.85 25.65.15.45-18.55-11.55M23.9 34l-2.4-7.45q-.35-2.15.6-2.7l6.7 13.2L23.9 34m-4.45-2.95.45-1.5 1.2 2.55-1.65-1.05" fill="#13d279"/><path d="m12.55 7.8.15-.1.35-.15q28.45 28 54.55 56.55l-3.25-.85Q28.8 41.8 2 23.75l.45-.2.45-.35L14 30.75 31.25 41.5l33.1 20.55 1.1.5-.85-.85-43.3-44.9-8.75-9" fill="#576e86"/><path d="m2.9 23.2.4-.4 27.95 18.7L14 30.75 2.9 23.2" fill="#ead4b0"/></g><g id="A" fill-rule="evenodd"><path d="M41.05 28.65q-.85 1.75-.65 2.25l2.45-3.25.15-3.05q-.15-.3-.6.7-.5 1-1.25 3.15l-.1.2m-24.7-4.6-2.95 6.6 10.7-5.45 1.25 2.75q3.3 2.85 5.75 5.6 3.6-4.05 7.35-8 9.25-9.8 19.2-19.25Q39 15.7 19.25 22.5l-1.15.1.4-.25Q29.9 16 42.55 10.4l5.35-2.6 2.2-1.1 11.2-4.95.1.05.2.1-4.85 8.05-1.9 3.05-.1.1Q48.7 21.75 42.2 30l-2.9 3.65q-3.7 3.6-10.05 7.1.2-1.05-2.65-.3l-10 3.3-.8.25-14.55-1.6 3.25-5.9.05-.15q2.15-1.8 4.65-3.15l.05.05q-.45 1.05 1.1-1.2V32q2.4-4.05 6-7.95M15.9 44.4l1.1-.35q8.95-3 9.6-3.15l2.1-.35q.05.45-.5 1.3L17 48.05l-1.1-3.65m1.25 3.9 9.2-4.95q-1.6 3.95-6.55 8.55l-1.5.7-1.2-4.25.05-.05m3.1 5.75 2.9.95 3.95 1.15 8.1-1.45.2.05q4.3 1 8.05.6l-14.3 6.45-3.4-2.9q-2.7-2.9-5.5-4.85m-.85-.95q8.65-4.35 9.45-11.1l9.5-4.95 4.8-5.85 4.2-5.55 2.5-.55-4.2 9.1-3.05 7.4 8.5-7.05-1.05 3.95-.45.45-8 8.05q-2 1.3-4.6 2.15-4.6 1-8.9 1.2L26.65 52q7.1-1.05 14.4-3.1l3.55-3.25 2.35.1-3.3 3.35 13.7-2.9h.4l-.25.2-.45.4-9.85 6.25-6.6.9-6 .05-2.75.6-4.6.65-7.85-2.15m47.9-31.55-3.4 3.65-.1-.3-4.1 4.2-6.9 6.7 1.05-3.5v-.05l.85-.7-.9 3 2.35-2.4.85-1.55q.8-1.5 1.3-2.05l2.5-2.1q3.4-2.8 6.5-4.9M46.05 23.4l.4-2.4q.3-2.3-.05-1.45l-2.35 3-.65 4.35 2.65-3.5m1.8-6.15-.9 4.9 2-2.85 2.7-6.6-3.8 4.55M49.8 36.2l-1 1.75-1.35 2q-.8 1.1-.65 1.45l2.7-2.6q.7-2.6.3-2.6" fill="#2d3693"/><path d="m41.05 28.65.1-.2q.75-2.15 1.25-3.15.45-1 .6-.7l-.15 3.05-2.45 3.25q-.2-.5.65-2.25m.25.35-.3.6 1.65-2.25-.1-1.45q-.3 1.35-1.25 3.1m11.5 6.8-2.75 2.7 1.05-3.95 2.45-2.3q.4-.65.3 0l-.05.05h.05l-1.05 3.5m-2.4-21.2L48 17.8l-.4 2.75 1.15-1.45 1.65-4.5m-4.35 8.8-2.65 3.5.65-4.35 2.35-3q.35-.85.05 1.45l-.4 2.4m-2.1 2.15 1.9-2.4.2-2.5-1.65 2.2-.45 2.7m10.75 6 .1-.1q.2-1.1.55-1 1.85-2.2 4-3.7-.95 1-1.05 1.8-.5.55-1.3 2.05l-.85 1.55-2.35 2.4.9-3m.5-.5-.7 2.35 1.3-1.25 1.9-3.65-2.5 2.55m-7.35-13.8 3.8-4.55-2.7 6.6-2 2.85.9-4.9m1.4 21.45.2-1.25-2.05 3.1 1.85-1.85m3.35-3.3.55-2.2L51.3 35l-.6 2.2 1.9-1.8m-2.8.8q.4 0-.3 2.6l-2.7 2.6q-.15-.35.65-1.45l1.35-2 1-1.75" fill="#017d33"/><path d="M41.3 29q.95-1.75 1.25-3.1l.1 1.45L41 29.6l.3-.6m9.1-14.4-1.65 4.5-1.15 1.45.4-2.75 2.4-3.2m-6.45 10.95.45-2.7 1.65-2.2-.2 2.5-1.9 2.4m11.25 5.5 2.5-2.55-1.9 3.65-1.3 1.25.7-2.35m-2.6 4.35-1.9 1.8.6-2.2 1.85-1.8-.55 2.2m-3.35 3.3-1.85 1.85 2.05-3.1-.2 1.25" fill="#25ff99"/><path d="m18.5 22.35-.4.25 1.15-.1Q39 15.7 57.65 6.3q-9.95 9.45-19.2 19.25-3.75 3.95-7.35 8-2.45-2.75-5.75-5.6L24.1 25.2l-10.7 5.45 2.95-6.6.05-.1.25-.45q.25-.5-.05-.25l-.1.05-.05.1q-4.6 5.2-7.2 9.8H9.2q-2.5 1.35-4.65 3.15 2.9-4.75 6.3-9.05 3.6-5.9 4.8-6.5Q36.25 9.4 58.6 2.55q2-.8 2.7-.8L50.1 6.7l-2.25 1Q25.7 17.25 18.5 22.35m31.35 2.75 17.7-3.8-.25.25q-3.1 2.1-6.5 4.9l-2.5 2.1q.1-.8 1.05-1.8-2.15 1.5-4 3.7-.35-.1-.55 1l-.1.1-.85.7q.1-.65-.3 0l-2.45 2.3-8.5 7.05 3.05-7.4 4.2-9.1m-2.9 20.65 10.4.45-13.7 2.9 3.3-3.35" fill="#788fff"/><path d="M18.5 22.35q7.2-5.1 29.35-14.65l.05.1-5.35 2.6Q29.9 16 18.5 22.35m42.8-20.6q-.7 0-2.7.8Q36.25 9.4 15.65 20.8q-1.2.6-4.8 6.5-3.4 4.3-6.3 9.05l-.05.15-3.25 5.9L0 42.3Q5.85 31 15.15 20.05 38.5 6.5 63.85 0q-6.5 12.05-15.45 24.25l21.4-4.3-2.95 3.35q-7.35 8.25-16.3 16.8l-4.8 4.5-.15.15 14.65.55q-5.15 4.5-12.65 9.1l-4.05.95h-.1q-3.75.4-8.05-.6l-.2-.05-8.1 1.45L23.15 55l-2.9-.95-.6-.2-.25-.1-.1-.05-.2-.05-.4-.15v-.05l-.4-.85 1.5-.7q3.55-2.15 8.55-9.6l-2 1.05-9.2 4.95-.15-.25 11.2-6.2q.55-.85.5-1.3l-2.1.35q-.65.15-9.6 3.15l-1.1.35-.1-.4.8-.25 10-3.3q2.85-.75 2.65.3l-.1.35 8.5-4.65 4.85-6.05q6.4-8.3 12.25-17.3l.1-.1 1.9-3.05L61.6 1.9l-.2-.1-.1-.05M9.25 33.2q2.6-4.6 7.2-9.8l.15-.15q.3-.25.05.25l-.25.45-.05.1q-3.6 3.9-6 7.95v.05q-1.55 2.25-1.1 1.2v-.05M19.4 53.1l-.25.15 4.1 1.45 4 .9 4.6-1 2.75-.6 6-.05h5.8q5.7-3.25 10.65-7.15l.45-.4.25-.2h-.4l-10.4-.45-2.35-.1-3.55 3.25q-7.3 2.05-14.4 3.1l1.45-1.65q4.3-.2 8.9-1.2l3.75-.95 9.2-8.8 13.1-13.25.85-.95 3.4-3.65.25-.25-17.7 3.8-2.5.55-4.2 5.55-4.8 5.85-9.5 4.95q-.8 6.75-9.45 11.1" fill="#242b71"/><path d="m19.4 53.75.25.1 6.1 5.05 3.4 2.9-.7.3-9.1-8.35h.05" fill="#2d3374"/><path d="m26.35 43.35 2-1.05q-5 7.45-8.55 9.6 4.95-4.6 6.55-8.55m-6.7 10.5.6.2q2.8 1.95 5.5 4.85l-6.1-5.05m12.2.75-4.6 1-4-.9-4.1-1.45.25-.15 7.85 2.15 4.6-.65M63.9 25.2l-.85.95-13.1 13.25-9.2 8.8-3.75.95q2.6-.85 4.6-2.15l8-8.05.45-.45 2.75-2.7 6.9-6.7 4.1-4.2.1.3m-6.85 21.6q-4.95 3.9-10.65 7.15h-5.8l6.6-.9 9.85-6.25m-2.3-33.7q-5.85 9-12.25 17.3l-4.85 6.05-8.5 4.65.1-.35q6.35-3.5 10.05-7.1L42.2 30q6.5-8.25 12.55-16.9" fill="#ead4b0"/><path d="m31.35 60.95.15.1-.35.15.2-.25" fill="#576e86"/></g><g id="B" fill-rule="evenodd"><path d="m20.25 15.8 6.6.05 1.35 4.65-.35 1.2-7.05 2.1-.55-7.9v-.1" fill="#eca102"/><path d="m8.1 34.55-.9 2.4q-1.15.1-2.1.9-1.3 1.05-1.3 2.45.1 1.5.55 2l-1.8 1.65v-.45q-2.75-6.7 2-11.4.4-2 1.1-3.6l.15.1q-.85 3.2-.5 7.75l.5-.5.35-.35q.1-2.8.9-4.8l-.5 5.25.6-.35.95-1.05m-3.55.35-.15-1.25q-1.2 1.7-1.75 3.55-.35 3 .6 4.9l.35-.1q-.65-1.6-.55-2.45l.15-.5q.45-1 1.6-2.05l-.25-2.1" fill="#242b71"/><path d="m3.2 39.05-.15.5q-.1.85.55 2.45l-.35.1q-.95-1.9-.6-4.9.55-1.85 1.75-3.55l.15 1.25q-.95 1.4-1.4 2.95l.05 1.2" fill="#fff"/><path d="m7.55 30.7 1.35 1.65-.8 2.2-.95 1.05q.55-2.3.4-4.9m-3 4.2L4.8 37q-1.15 1.05-1.6 2.05l-.05-1.2q.45-1.55 1.4-2.95" fill="#a9c5d2"/><path d="m5.8 28.6.85 1.05q-1.2 2.4-.85 6.2l-.5.5q-.35-4.55.5-7.75" fill="#fbee7b"/><path d="m6.65 29.65.55.65-.15.4q-.8 2-.9 4.8l-.35.35q-.35-3.8.85-6.2" fill="#eca102"/><path d="m7.2 30.3.35.4q.15 2.6-.4 4.9l-.6.35.5-5.25.15-.4" fill="#e8e9f0"/><path d="m7.45 24.65-.65 5.9V31q1.65 1.4 2.2 3.85l-.2.1q-1.05-2.55-2.85-3.4l.55-7 .95.1m2.9 8.15q-1.2-.6-1.7-.4-.2 0-.1-.3.65-.35 2.05.35.2.4-.25.35" fill="#1d1e23"/><path d="M6.8 30.55q3.7-1.5 8 2.15L9 34.85Q8.45 32.4 6.8 31v-.45m3.55 2.25q.45.05.25-.35-1.4-.7-2.05-.35-.1.3.1.3.5-.2 1.7.4" fill="#737489"/><path d="M14.8 32.7q-4.3-3.65-8-2.15l.65-5.9 10 .95-2.65 7.1" fill="#353642"/><path d="m14.15 28.25.8-2 .7-.2q-1 3.25-3.2 4.25-1.95.3-3.55-2.45l.5-.15q.55 1.15 1.3 1.7.95.7 2.15.3l1.3-1.45" fill="#711db9"/><path d="M13.6 28.25h.55l-1.3 1.45q-1.2.4-2.15-.3l.15-.2.1.05.1-.05.05-.1V29l.15-.1.7.25q.55 0 .9-.45l.2-.2.05.05.2.1.2-.1.1-.2v-.1" fill="#e97fff"/><path d="m13.2 28-.1.1-.1.15q-.9.1-1.75.65l-.2-.2q-.35-.4-.35-1l.05-.35 2.15-.55q.35.35.35.9l-.05.3" fill="#c7b8ea"/><path d="m13.2 28 .05-.3q0-.55-.35-.9l2.05-.55-.8 2h-.55l-.1-.15-.2-.1h-.1m-2.45-.65-.05.35q0 .6.35 1l.2.2-.15.1-.05-.05-.1-.05-.1.05-.05.15.05.1-.15.2q-.75-.55-1.3-1.7l1.35-.35" fill="#a83cc3"/><path d="m13 28.25.1-.15.1-.1h.1l.2.1.1.15v.1l-.1.2-.2.1-.2-.1-.05-.05-.2.2q-.35.45-.9.45l-.7-.25q.85-.55 1.75-.65v.1-.1m-2.15.95-.05-.1.05-.15.1-.05.1.05.05.05v.1l-.05.1-.1.05-.1-.05" fill="#fff"/><path d="M19.4 34.7q1.2-.15 1.85-1.4l.15-1.25q-.3-1.15-1.55-1.2-2-2.3 2.1-7.25 2-1.7 4.2-1.25-1.8-6.4-10.1-6.25l.05-.35q8.4-.45 10.85 7.3-3.15-1.3-5.7 2.15-2.65 4.2-1 5.25 1.6.15 1.65 2.3-.65 2.6-3.35 2.35l-2.3.3-.1-.6-2.75 2.55q-1.25.95-.9-1.1l.05-.1.1-1 .25-2 .25-.35 2.2-3.2.25-3.65V19.5l.3-2.15.1 7.35-.3 4.95-.05.1-2.4 3.6-.15 3.3 1.05-.9L16 34q-.25-1.7.05-3.85v-.1l.1-.5q.15-1.1.45-2.3l.5-1.8.1-.25 1.05-1.75-.75 2.2q-1.45 4.75-.75 9l1.95.1.7-.05" fill="#576e86"/><path d="m18.35 23.2.05-.1 1.5-5.25q1.25.1 1.4 2.3-3 6.65-3.4 10.6-.5 2.45 1.5 3.95l-.7.05-1.95-.1q-.7-4.25.75-9l.75-2.2.1-.25M16 24.7l1.1.75-.5 1.8-.3.05-.15 2.25-.1.5v.1l-1.9 2.7v2.9l-1.05.9.15-3.3 2.4-3.6.05-.1.3-4.95" fill="#fff"/><path d="M19.4 34.7q-2-1.5-1.5-3.95.4-3.95 3.4-10.6-.15-2.2-1.4-2.3l-1.5 5.25-.05.1-.1.25-1.05 1.75-.1.25-1.1-.75-.1-7.35.15-1.25q8.3-.15 10.1 6.25-2.2-.45-4.2 1.25-4.1 4.95-2.1 7.25 1.25.05 1.55 1.2l-.15 1.25q-.65 1.25-1.85 1.4m-3.25-5.15.15-2.25.3-.05q-.3 1.2-.45 2.3m-.1.6Q15.75 32.3 16 34l-1.85 1.75v-2.9l1.9-2.7" fill="#a9c5d2"/><path d="m12.65 35.15-.1 1q-2.15 1.5-4.85 1.9-2-.1-1.25-.8 1.25-1.7 1.05-3.35l.6-.65q1.05.25 2.05.9l.95-1.45q-.7-1.15-.55-1.65 1-.1 2.15.35 1.2-1.05 2-2.55.15-1.35-.15-2.65l.7-.15-.15 2.85q-.85 1.65-2.2 2.9l-1.95-.4.05.25.4.75.05.15-.15.55-.6.8q-.65.8-1 .4l-1.55-.7-.35.4q.3 1.4-.9 3.3l1.05-.1q2.15-.4 4.7-2.05" fill="#242b71"/><path d="m15.6 25.95-.25 3.65-2.2 3.2q-1.2-.3-2.15-1.15l-.05-.25 1.95.4q1.35-1.25 2.2-2.9l.15-2.85.35-.1m-4.3 7.15q.6.1-.6 2.5l-2.75 1.6-1.05.1q1.2-1.9.9-3.3l.35-.4 1.55.7q.35.4 1-.4l.6-.8" fill="#fbee7b"/><path d="m13.15 32.8-.25.35-.25 2q-2.55 1.65-4.7 2.05l2.75-1.6q1.2-2.4.6-2.5l.15-.55-.05-.15-.4-.75q.95.85 2.15 1.15" fill="#eca102"/><path d="M23.65 29.05q-3.3 3.2-4.85 3.55l-.5 4q2.35-1 4.25-2.7 1.25-2.45 1.1-4.85M18 37l-.2-.05q.25-2.4.9-4.5 2.35-1.5 4.95-3.85l.2.05q.4.25.25 1.85-.3 2.4-1.1 3.65-3.2 2.8-4.8 2.65v.2H18m3.05-20.8-.15.05h-.2l-.95-.25q4.9-2.4 8.6.25 3.05 3.65 3.5 7.65-3.7 7.15-8.55 11.85-4.3 3.3-6.8 2.9-.35-3.2.85-7.05 2.2-1.55 5.1-5.15 2.9-3.6 4-6.6 1.3-4.6-5.4-3.65 3-.95 5.2.25 1.5 1.3.45 4.3-3.3 6.7-9.05 11.1-.85 3.35-.85 6.55l.65-.15q7-1.6 14-14.6Q30 19.9 28 17.2l-.25-.3q-3.45-2.3-6.7-.7" fill="#bf6301"/><path d="M23.85 28.65q.4-.3.65.9.25 2.4-.95 4.45-.8 1.15-2.7 2.2-2.65 1.5-2.85.8h.2v-.2q1.6.15 4.8-2.65.8-1.25 1.1-3.65.15-1.6-.25-1.85m-2.8-12.45q3.25-1.6 6.7.7l.25.3q.55 3.95-2.35 7.55-3.3 4.8-7.3 7.35-.9 2.9-.9 6.15l-.65.15q0-3.2.85-6.55 5.75-4.4 9.05-11.1 1.05-3-.45-4.3-2.2-1.2-5.2-.25" fill="#fbee7b"/><path d="m23.85 28.65-.2-.05q-2.6 2.35-4.95 3.85-.65 2.1-.9 4.5l.2.05q.2.7 2.85-.8 1.9-1.05 2.7-2.2 1.2-2.05.95-4.45-.25-1.2-.65-.9M28 17.2q2 2.7 3.45 6.45-7 13-14 14.6 0-3.25.9-6.15 4-2.55 7.3-7.35 2.9-3.6 2.35-7.55" fill="#eca102"/><path d="M3 13.1v.1Q6.35 5.15 12.05.05q.4-.35-.1 1.1-1.6 5.55-2.4 11.65 4.9-5.95 9.25-8.4-1.2 3.4-1.65 6 4.8-2.75 4.8-1.75-1.8 5.05-3.15 11.05l-.65.3q.3-4.75 2.65-10.4l.05-.05.05-.15q-1.4.25-2.95 1.05l-.9.5q-.55 3.5.3 5.4l-.7 4.2-.45.2-.05-.05q.25-2.3.8-3.75-2-2 .45-10.9V6l-.05.05q-3.2 2.5-6.35 6.15l-1.6 1.85-.1.8v3.2l-.05.3Q9 19.9 8.2 21.55l-.4.75q-.5 3.95-.1 6.5l.1.4-.1.05q-1.15 2.05-2.45 1.7l-2.75-3.2q-.6-.75-.6-1.5l-.05-.1-.1-1v-.1q-.4-2.25-.35-4.35v-.1q-.15-1.4.15-2.2l.65-2.95v-.65l.8-1.7m7.5-10 .05-.25q-3.05 3.2-5.5 7.95l-.05.05Q2.95 14.5 1.75 18.8v.3q.1 4.1.9 7.7l3.1 3.6.2-.3 1.5-1.2q-.7-5.3.65-9.7.6-10.25 2.4-16.1" fill="#576e86"/><path d="M11 12.2q3.15-3.65 6.35-6.15-4.25 4.6-5.5 10.2-.6-1.1-.85-4.05m6.95-1.75q1.55-.8 2.95-1.05l-.05.15-.05.05q-1.5 1.35-3 3.75-.25-1.7.15-2.9m-12 19.65-.2.3-3.1-3.6q-.8-3.6-.9-7.7v-.3q1.2-4.3 3.25-7.95l.05-.05q2.45-4.75 5.5-7.95l-.05.25Q7.95 7 5.65 14.15q-2.5 9.45.3 15.95" fill="#fff"/><path d="M9.3 17.95v-3.1l.1-.8L11 12.2q.25 2.95.85 4.05 1.25-5.6 5.5-10.2h.05q-2.45 8.9-.45 10.9-.55 1.45-.8 3.75-2.7-2.95-6.85-2.65v-.1m7.35 2.6.7-4.2q-.85-1.9-.3-5.4l.9-.5q-.4 1.2-.15 2.9 1.5-2.4 3-3.75-2.35 5.65-2.65 10.4h-.1l-1.4.55M5.95 30.1q-2.8-6.5-.3-15.95Q7.95 7 10.5 3.1 8.7 8.95 8.1 19.2q-1.35 4.4-.65 9.7l-1.5 1.2" fill="#a9c5d2"/><path d="m3 13.1-.8 1.7v-1.65l-.55 2.75Q.85 20 1 22.3q0 1.65.75 2.75v.1l.1 1Q.4 24.7.05 23-.2 18.35 1.5 11.9q1-4 1.45-2.7L3 13.1m4.8 16.1-.1-.4q3.15-1.4 7.1-2.4-.05-.3.7-.6 5.95-3.6 11.1-8.85l.15-.1-.15.05q-9.45 4.8-11.05 4.6-2.25-2.6-6.3-3.15l.05-.3q4.15-.3 6.85 2.65l.05.05.45-.2 1.4-.55h.1l.65-.3q5.2-2.2 10.3-5.15 1.05-.85.95-.25-7.1 8.45-15.45 12.75L7.8 29.2" fill="#bf6301"/><path d="M2.2 14.8v.65l-.65 2.95q-.3.8-.15 2.2v.1q-.05 2.1.35 4.35Q1 23.95 1 22.3q-.15-2.3.65-6.4l.55-2.75v1.65m6 6.75q.8-1.65 1.05-3.2 4.05.55 6.3 3.15 1.6.2 11.05-4.6v.05q-5.4 3.95-11.85 6.95Q11.8 26.8 9 26.55h-.1q-.65-1.8-.7-5" fill="#fbee7b"/><path d="M7.7 28.8q-.4-2.55.1-6.5l.4-.75q.05 3.2.7 5H9q2.8.25 5.75-2.65 6.45-3 11.85-6.95-5.15 5.25-11.1 8.85-.75.3-.7.6-3.95 1-7.1 2.4" fill="#eca102"/></g><g id="C" fill-rule="evenodd"><path d="m18 38.45-1.85.65q-1.75-2-4.45-3.95-1.85-1.3-1.55-7.5l1.05-.4q-1 3.5.8 6.55l1.05 1.05q2.15 1.9 4.95 3.6m-.85-13.35.45-.1q3.4 2.55 4.3 3.95 1.1 4.35 1.45 7.55l-1.05.35-.25-3.3-1.1-4.25q-1.55-2.3-3.8-4.2" fill="#1d1e23"/><path d="M21.9 37 18 38.45q-2.8-1.7-4.95-3.6-.75-3.7 2.4-4.95l.15-.05q4-.75 6.3 7.15" fill="#737489"/><path d="m11.2 27.25 5.65-2q2.4 2.1 3.7 4.3l1.5 4 .25 3.3-.4.15q-2.3-7.9-6.3-7.15l-.15.05q-3.15 1.25-2.4 4.95L12 33.8q-1.8-3.05-.8-6.55" fill="#353642"/><path d="m16.85 25.25.3-.15q2.25 1.9 3.8 4.2l1.1 4.25-1.5-4q-1.3-2.2-3.7-4.3" fill="#ead4b0"/><path d="m.65 23.3-.15-.05q.15-2.5 1-5.1l.2-.7q.8-2.2 2.1-4.35 3.8-4.65 13.4-5.5 4-2.6 7.5-7.6 2.85 5.6 2.9 12.85.65.25-1.15 2.6l-.95-.3 1.35-2q-.65-6.9-2.2-11.4l-.7.9L21.9 5l-4.3 3.75q-7.2.2-11.85 3.55-1.9 1.25-3.05 4-1.75 5.8-.05 9.5l.15.35 7.45.75 2.4-1.3q2.75-1.75 5.05-4.2l1.95-2.05q3.4-6.65 4.6-14.65.1-1.1.3-.75.2 4.4-2.2 10.6l-.2.55-1.2 2.65v.1l-.25.65-1.45 1.85-.2.3q-3.25 4.2-8.8 6.65l-7.35-.85q-.75.05-1.3-2.6l-.05-.05-.2.05-.7-.55" fill="#242b71"/><path d="M2.65 25.8q-1.7-3.7.05-9.5 1.15-2.75 3.05-4Q10.4 8.95 17.6 8.75L21.9 5l2.05-2.35q-.1 2.6-1.5 6.9-1.35 6.1-3.35 8.95 2.7-5.6 2.8-13-2.05 2.6-4.55 3.75l-6.15 2q4.5 2.55-.15 8.3-4.5 4.05-7.7.2-1.25 3.1-.7 6.05" fill="#b4effd"/><path d="m12.65 25.6-2.4 1.3-7.45-.75-.15-.35q-.55-2.95.7-6.05 3.2 3.85 7.7-.2 4.65-5.75.15-8.3l6.15-2q2.5-1.15 4.55-3.75-.1 7.4-2.8 13v.1l-6.45 7m8.5-16.7q.2-.6-.4-.25L18 10.6l-.2 1.95 2.9-1.15.45-2.5m-.85 3.7-.3-.25-2.3.9-.55 1.85q1.3-.05 2.5-.6l.65-1.9M16 17.8l2.55-.3.7-2.05-2.5.55-.75 1.8m1 1.3-1.05-.05-1.45 2.3L17 19.1" fill="#76b8fb"/><path d="M22.35 14.55q2.4-6.2 2.2-10.6-.2-.35-.3.75-1.2 8-4.6 14.65L17.7 21.4q-2.3 2.45-5.05 4.2l6.45-7v-.1q2-2.85 3.35-8.95 1.4-4.3 1.5-6.9l.7-.9q1.55 4.5 2.2 11.4l-1.35 2-3.15-.6" fill="#2b50bf"/><path d="M26.45 15.45h-.05l.15.05q5.1 1.15 6.95 6.3h.05v.05q.15.2-.95.35-.7-2.25-1.85-3.85-4.05-2.25-8.6-3.25l.2-.55 3.15.6.95.3m-4 8.4v-.05q-4.8 4.7-11.4 7.15-.75.65-1.65.6-4.4 1.6-7.4.7l-.3-.05q-1.6-3.75-1.7-8l.65-.9.7.55.2-.05.05.05-.95 1q.6 3.7 1.65 6.75l2.7-.1q9.3-1 19.05-10.6-1.5-1.45-3.35-2.4l.25-.65q1.45.6 2.45 1.45l1.25 1.4q.15.35-.25.85l-.2.25-1.25 1.45-.5.6" fill="#bf6301"/><path d="M1.6 23.85q.55 2.65 1.3 2.6l7.35.85q5.55-2.45 8.8-6.65l.7.45q-3.9 5.65-9.65 7.25l-6-.45.9 3.6-2.7.1Q1.25 28.55.65 24.85l.95-1m21.8-4.55.95-2.15q4.95.95 6.55 4.2l-3.8 1.15h-.7l-2-.95q.4-.5.25-.85l-1.25-1.4" fill="#fbee7b"/><path d="m19.05 20.65.2-.3 1.45-1.85q1.85.95 3.35 2.4Q14.3 30.5 5 31.5l-.9-3.6 6 .45q5.75-1.6 9.65-7.25l-.7-.45m1.9-2.8v-.1l1.2-2.65q4.55 1 8.6 3.25 1.15 1.6 1.85 3.85l-5.5.3 3.8-1.15q-1.6-3.25-6.55-4.2l-.95 2.15q-1-.85-2.45-1.45" fill="#eca102"/><path d="m33.55 21.85.1-.05 1.15-.05 7.25 5.35Q52 33.85 61.6 41.6q2.4 1.65 2.9 2.8l2.75 4.25q-13.85-6-28.35-13.8l-.15-.1q-3.45-2.35-7.35-4.1-1.35.7-4.9-1.55L24 28.05l-.35-.4q-.1-2.1-1.2-3.8l.5-.6q1.55 1.85 1.7 4.05 3.2 1.9 4.8 2.25l4.25 1.25 1.65.9q5.95 3.5 29.3 14.9l-.25-.55-1.25-2.2-28.55-21.1q-.4-.55-.85-.15l-7.5.3-1.4-.8-.65-.3.2-.25 2 .95h.7l5.5-.3q1.1-.15.95-.35" fill="#576e86"/><path d="m24.85 22.1 1.4.8 7.5-.3q.45-.4.85.15l28.55 21.1 1.25 2.2q-10.55-6.35-20.5-13.3L32.25 24.1l-5-.35q-1.55.2-2.9-1l.5-.65" fill="#fff"/><path d="m24.2 21.8.65.3-.5.65q1.35 1.2 2.9 1l5 .35 11.65 8.65q9.95 6.95 20.5 13.3l.25.55Q41.3 35.2 35.35 31.7l-1.65-.9-4.25-1.25q-1.6-.35-4.8-2.25-.15-2.2-1.7-4.05l1.25-1.45" fill="#a9c5d2"/><path d="m21.15 8.9-.45 2.5-2.9 1.15.2-1.95 2.75-1.95q.6-.35.4.25m-.35.25-2.5 1.6-.05 1.3 2.15-.9.15-.55.25-1.45m-.5 3.45-.65 1.9q-1.2.55-2.5.6l.55-1.85 2.3-.9.3.25M16 17.8l.75-1.8 2.5-.55-.7 2.05-2.55.3m.75-.45 1.45-.15.4-1.2-1.4.25-.45 1.1M17 19.1l-2.5 2.25 1.45-2.3 1.05.05m2.35-4.8.35-1.4-1.65.5-.35 1.3 1.65-.4" fill="#017d33"/><path d="m20.8 9.15-.25 1.45-.15.55-2.15.9.05-1.3 2.5-1.6m-4.05 8.2.45-1.1 1.4-.25-.4 1.2-1.45.15m2.6-3.05-1.65.4.35-1.3 1.65-.5-.35 1.4" fill="#25ff99"/></g><g id="D" fill-rule="evenodd"><path d="m13.85.2.8-.2 6.8 7.65q.55.6 1.4 5.05l-.75.7-.35-1.45-1.15-4L13.85.2m3.05 18.2-.95.9-6.2-1.4Q5.9 14.85 0 4.5L1.5 4q3.15 7 8.35 12.8l7.05 1.6" fill="#576e86"/><path d="m22.1 13.4-1.95 1.9q.25-.75.1-1.75Q20 8.3 10.95 1.1l2.5-.75L19.7 7.7l2.05 4.25.35 1.45m-3.4 3.25-1.8 1.75-7.05-1.6Q4.65 11 1.5 4l2.95-.9q1.7 10.35 7.7 13.4 4.55.95 6.55.15" fill="#a9c5d2"/><path d="m20.15 15.3-1.45 1.35q-2 .8-6.55-.15-6-3.05-7.7-13.4l6.5-2q9.05 7.2 9.3 12.45.15 1-.1 1.75" fill="#fff"/><path d="m13.45.35.4-.15 6.75 7.75 1.15 4L19.7 7.7 13.45.35" fill="#ead4b0"/><path d="m16.3 27.3-.1-.1-2.35-1.4q-2.45-1.9-3.45-7.15l2.35.45Q10.6 12.4 10.6 7.35q5.9 1.75 10.9 4.85l-.4-2.65q-.7-1.7 4.35 1.9 2.6 1.2 3.55 3.4l.35 1.55.15.65.55 3.05.2 1.6.05.45q.25 3.75-.8 5.5l-.8.05-4.15.55H24l-6.6-.85-1.1-.1M11.7 8.25l-.45-.2q1.1 7.15 3.05 12.05l.1.25-2.65-.2 2.6 5.25q5.4 2.5 14.05 1.9h.3l.05-.05h.45q.3-2.7.2-5.1v-.2q-.25-4.75-2.3-8.25l-4.65-3.1h-.05v.1l-.05 3.15q-5.3-3.5-10.65-5.6m2.55 3.55q3.8 3.7 10.15 11.45-5.6-5.4-10.15-11.45M40.1 33.75l.65.15.85.3q1.15 1.4.6 1.65l.2.65 3.1 8.45q.65 1.15.4 1.9-1.8-.4-7-4.05l-2.75-2.1-1.3-1.25-.45-1.25 1.75 1.55.1.05q3.5 2.9 8.45 5.75l-.1-.35-3.15-9.5-1.35-1.95m.95 7.25-5.85-7.1q3.65 3.1 5.85 7.1" fill="#242b71"/><path d="M45.4 35.25q1.7 1.55 2.7 3.45l.05.05q4.45 10.1 7.1 18.95L39.5 47q-.2.4-3.65-3.35l-.3-1.35 1.2 1.15.05.05 2.5 2.45 13 8.55 1.2.8-3.3-8.7-2.9-6.9q-.5-.9-.4-1.3l-2.85-3.45 1.35.3" fill="#576e86"/><path d="m16.3 27.3 1.1.1 2.85 3.45 1.7.4.35.05q.9-.8 2.35.4l1.9.15-1.85-2.6-.7-1h.55l2.5 3.3q1.35 1.2-2.2.7l-.15.2 1.15.95 1.65 1.75q2.55 3.1 3.2 7.15l2.4.2 1.05 1.45.7.3-.3-1.4v-.15q-1.05-4.9-1.6-10.5l.4-.45q6.9.9 13.5 2.8l-.4-1.4v-.1L46 32.5q-.75-.9-1.8-1.45l.65-2.35-.3-.85q-.65.15-.6-.4l-3.05-.35-.7-.25-.15-.1q-2.7-1.2-5.3-4.4l.2.95q.4 1.95-.05 2.05l-4.6-3.2-.05-.45 4.45 2.9-.25-1.55-.05-.15v-.1l-.75-1.2q-.5-.05 0-1.55l-.35-.55-.25-.6q-1.65-1.5-3.7-2.5L29 14.85q3.8 2 5.3 4.25 1.85 7.05 10.25 7.35 2.25 2.65 3.75 9.35l-2.9-.55-1.35-.3H44l-.75-.2-1.65-.55-.85-.3-.65-.15-.25-.45-6.3-1.05q-.05 2.65.6 5.55l.25.4.45 1.25.7 2.85.3 1.35.25 1.15q.95 1.35-1.35.7l-4.35-2.15q-1.1-.6-1-2-1.2-4.75-5.5-8.6L20.65 32q-1.5-.2-4.35-4.7m13.5 1.55-.7-.8.2-.15 3.2 3.15-.05.1-2.65-2.3m3.1 14.1-1.2-.15 1.55.8-.35-.65M44.6 30.8l1.45 1.15-.95-2.65-.5 1.5" fill="#bf6301"/><path d="M11.7 8.25q5.35 2.1 10.65 5.6l.05-3.15.05-.1 4.65 3.1q2.05 3.5 2.3 8.25v.2q.1 2.4-.2 5.1h-.45l-.05.05-4.15-3.85-.15-.2Q18.05 15.5 14.25 11.8L11.7 8.25m12.55 7.95.8 1 1-2.6.05-.4-.95-1.25-1 3.1.1.1v.05m3.1.15-.75-1.25q-.5.25-1.15 2.65l.9 1.1 1.05-1.95-.05-.55m.15 4.95.75 2.1q.4-2.2.1-2.9l-.85.8m.8-1.65-.5-2.2-1.05 1.8q0 .6.65 1.5l.9-1.1m6.1 18.55-.25-.4q-.65-2.9-.6-5.55l6.3 1.05.25.45 1.35 1.95 3.15 9.5-3.55-4.2q-2.2-4-5.85-7.1l-.3-.35.8 3.9q-.7.4.2 1v.05l.25 1.25-1.75-1.55m3.65-3.05 2.3 2.6q.3.15.25-1.4l-2.05-2.1-.5.9" fill="#2b50bf"/><path d="M14.3 20.1q-1.95-4.9-3.05-12.05l.45.2 2.55 3.55q4.55 6.05 10.15 11.45l.15.2 4.15 3.85h-.3l-.65-.55q-9.05-5.3-14-11.65l.55 5" fill="#b4effd"/><path d="M28.4 27.3q-8.65.6-14.05-1.9l-2.6-5.25 2.65.2-.1-.25-.55-5q4.95 6.35 14 11.65l.65.55m-12.35-2.45v.25l1.55.65 2.2-1.2-1.2-.95-2.55 1.25M13.8 23.6l1.4.9 2.75-1.2-1.1-.7-3.05 1m7.75 2.9 2.85-.35-2.1-.55-.75.9m-.7-.15.8-.9q-.35-.3-1.35-.55l-1.85 1.15 2.4.3M44.6 45.2l.1.35q-4.95-2.85-8.45-5.75l-.1-.05-.25-1.25 1.65 1.4q1.6.8 1.05-.15l-2.5-2.6-.4.3-.8-3.9.3.35 5.85 7.1 3.55 4.2" fill="#76b8fb"/><path d="m29.5 17.05-.15-.65q2.05 1 3.7 2.5l.25.6-.7-.2-3.1-2.25m10.7 10q-2.1-.35-5.25-3.75l-.2-.95q2.6 3.2 5.3 4.4l.15.1v.2m3.05 7.7.75.2h.05l2.85 3.45q-.1.4.4 1.3l2.9 6.9-4.45-9-2.5-2.85" fill="#ead4b0"/><path d="m17.4 27.4 6.6.85.7 1-4.3.1 1.55 1.9-1.7-.4-2.85-3.45m7.15.85 4.15-.55.8-.05q1.05-1.75.8-5.5l4.6 3.2q.45-.1.05-2.05 3.15 3.4 5.25 3.75l.7.05 3.05.35q-.05.55.6.4l.3.85-.65 2.35q1.05.55 1.8 1.45-6.15-1.5-13.45-1.35l-.05-.1-3.2-3.15-.2.15.7.8-2.95.55q2.45 3.4-1 4l-1.15-.95.15-.2q3.55.5 2.2-.7l-2.5-3.3m5.5-8.15-.55-3.05 3.1 2.25.7.2.35.55q-.5 1.5 0 1.55l.75 1.2-4.35-2.7M27.5 35.15q2.65 2.45 4.15 5.55l2.9 2v.15l.3 1.4-.7-.3-1.05-1.45-2.4-.2q-.65-4.05-3.2-7.15" fill="#eca102"/><path d="m30.25 21.7-.2-1.6 4.35 2.7v.1l.05.15.25 1.55-4.45-2.9m2.3 9.45Q39.85 31 46 32.5l.45.55v.1l.4 1.4q-6.6-1.9-13.5-2.8l-.4.45q.55 5.6 1.6 10.5l-2.9-2q-1.5-3.1-4.15-5.55l-1.65-1.75q3.45-.6 1-4l2.95-.55 2.65 2.3.15.1-.05-.1m-7.85-1.9 1.85 2.6-1.9-.15q-1.45-1.2-2.35-.4l-.35-.05-1.55-1.9 4.3-.1" fill="#fbee7b"/><path d="M24.25 16.2v-.05l1-2.5.55.6-.9 2.25-.45-.4-.2.1m1.5 1.35.8-1.85.55.85-.8 1.8-.55-.8m1.95.75.3 1.25-.6.75-.35-1 .65-1m.55 2.85v1.2l-.45-1.05.45-.15M17.3 23.2l-2.05 1.05-.75-.6 2.35-.9.45.45m4 2.25-.7.7-1.4-.1 1.15-.9.95.3m1.15.4 1.05.4h-1.4l.35-.4M19.3 24.6l-1.7.9-1-.55 1.85-.95.85.6m19.35 10 1.7 1.85-.1.9-1.9-2.35.3-.4m-2.5 2.9 2.25 2.35-.8-.1q-1.25-1.55-2-1.9l.55-.35m-3.25 5.45.35.65-1.55-.8 1.2.15M44.6 30.8l.5-1.5.95 2.65-1.45-1.15" fill="#25ff99"/><path d="m24.25 16.15-.1-.1 1-3.1.95 1.25-.05.4-1 2.6-.8-1 .2-.1.45.4.9-2.25-.55-.6-1 2.5m1.5 1.4.55.8.8-1.8-.55-.85-.8 1.85m1.6-1.2.05.55-1.05 1.95-.9-1.1q.65-2.4 1.15-2.65l.75 1.25m.35 1.95-.65 1 .35 1 .6-.75-.3-1.25m.55 2.85-.45.15.45 1.05v-1.2m.05-1.5-.9 1.1q-.65-.9-.65-1.5l1.05-1.8.5 2.2m-.8 1.65.85-.8q.3.7-.1 2.9l-.75-2.1m-10.2 1.9-.45-.45-2.35.9.75.6 2.05-1.05m-3.5.4 3.05-1 1.1.7-2.75 1.2-1.4-.9m2.25 1.25 2.55-1.25 1.2.95-2.2 1.2-1.55-.65v-.25m5.25.6-.95-.3-1.15.9 1.4.1.7-.7m1.15.4-.35.4h1.4l-1.05-.4m-1.6.5-2.4-.3 1.85-1.15q1 .25 1.35.55l-.8.9m.7.15.75-.9 2.1.55-2.85.35m-2.25-1.9-.85-.6-1.85.95 1 .55 1.7-.9m18.75 10.55.5-.9 2.05 2.1q.05 1.55-.25 1.4l-2.3-2.6m.6-.55-.3.4 1.9 2.35.1-.9-1.7-1.85m-2.95 2.85.4-.3 2.5 2.6q.55.95-1.05.15l-1.65-1.4v-.05q-.9-.6-.2-1m.45.05-.55.35q.75.35 2 1.9l.8.1-2.25-2.35" fill="#017d33"/><path d="m36.15 40.7 2.75 2.1q5.2 3.65 7 4.05.25-.75-.4-1.9l-3.1-8.45 1.8.9 3 10.15 5.1 6.95-13-8.55-2.5-2.45-.05-.05-.6-2.75" fill="#fff"/><path d="m41.6 34.2 1.65.55 2.5 2.85 4.45 9 3.3 8.7-1.2-.8-5.1-6.95-3-10.15-1.8-.9-.2-.65q.55-.25-.6-1.65m-6.75 5.25 1.3 1.25.6 2.75-1.2-1.15-.7-2.85" fill="#a9c5d2"/></g><g id="E" fill-rule="evenodd"><path d="m10.05 12.9-.1.4-2.4.3-1.2.35q-.55.3-.75 2.2v.2l.05.2q.35.75.7.65-.15-.55 1.2-1.05l.05-.05 1.95-.85-.15.65q-1.2.4-1.9.75t-1 .6l1 .1 1.5.4-.05.3-1.45-.3-1.35-.2q-.7.45-.75 3.6l.9.25.1.05 1 .2 2.85-.05.1.35-2.95.15-1.75-.45-.2-.1q-.95-.45-.05-3.3l.05-.25-.2.2L.9 21.95 1 24.3q.75.7 1.45 1l.55.15h.35l.15.25 1.25-.65 5.7-2.95.2.65L7.4 24.2h-.1l-3.8 1.9.4 4.15q1.1.55 2.2.7l.15.05h.6l.4-.2 1.1-.5q2.1-1.1 4.1-2.65l.15.45q-2.75 2.05-5.05 3.05l-.3.1-.05.05 1.4 2.4h.25l3.85.05.35-.25.35-.2 2.7-1.85.85.8q-2.75 1.9-5.1 2.75l-2.95-.4q-1.1-.5-1.65-1.45l-.5-1.3H6.7q-1.2.1-3.25-1.1-.85-.4-.85-3.4v-.75L.2 25.3 0 21.55l2.1-2.1.9-3.9 2.05-1.3.1-.05.35-.65q.65-.9 1.45-1.1.45-.25.35-.95l.3-.2q1.7-.95 3.05-1.2l-.1.45q-1.45.35-2.8 1.15l-.45.85 2.75.35M4 15.9l-.05.05-.05.15v.1l.9.7.7.2-.2-.55-.1-1.25.05-.25-.1.05q-.9.4-1.15.8m0 1-.35-.3-.45 2.7.65-.55.65-.5h.05q.5-.35 1.05-.6v-.2l-.8-.15h-.05L4 16.9" fill="#1d1e23"/><path d="m9.95 13.3-.05.15-2.35.7-1.2.45q-.05.7-.75 1.55.2-1.9.75-2.2l1.2-.35 2.4-.3m5.6 17.6.55.55-2.7 1.85 2.15-2.4M4.1 15.95 4 15.9q.25-.4 1.15-.8l.1-.05-.05.25-.1.1q-.5.45-1 .55M2.45 25.3q-.7-.3-1.45-1l-.1-2.35 4.35-3.75-3.65 4.1.2 2.15.65.85m3.65 5.65q-1.1-.15-2.2-.7l-.4-4.15 3.8-1.9-3 2.5.15 3.2 1.65 1.05m2.75 2.75H8.6l-1.4-2.4.05-.05.3-.1 1.3 2.55" fill="#fff"/><path d="m10.55 10.55-.5 2.35-2.75-.35.45-.85q1.35-.8 2.8-1.15m-.65 2.9-.05.45-4.2 2.65-.05-.2v-.2q.7-.85.75-1.55l1.2-.45 2.35-.7m-4.6 3.1-.4-.1-.8-.5q.5-.1 1-.55l.1-.1.1 1.25M4 16.9l.75.4h.05l.8.15v.2q-.55.25-1.05.6H4.5l-.65.5-.65.55.45-2.7.35.3" fill="#a29bc1"/><path d="m9.85 13.9-.3 1.35-1.95.85-.05.05q-1.35.5-1.2 1.05-.35.1-.7-.65l4.2-2.65m-.45 2L9 17.75l-1.5-.4-1-.1q.3-.25 1-.6t1.9-.75m-5.45.05h.15l.8.5.4.1.2.55-.7-.2-.9-.7v-.1l.05-.15" fill="#7a7493"/><path d="m8.95 18.05.5 1.45-3.05 1.95-.1-.05-.9-.25q.05-3.15.75-3.6l1.35.2 1.45.3m-3.7.15.15.05q-.9 2.85.05 3.3l.1.15-3 1.75.7.75q.8.75 1.5.85l-1.25.65-.15-.25H3l-.55-.15-.65-.85-.2-2.15 3.65-4.1" fill="#bbafe0"/><path d="m10.35 21.95.1.15-5.7 2.95q-.7-.1-1.5-.85l-.7-.75 3-1.75.1-.05 1.75.45 2.95-.15" fill="#978db5"/><path d="m9.45 19.5.8 2.1-2.85.05-1-.2 3.05-1.95" fill="#525064"/><path d="m11.5 25 .95 2.65q-2 1.55-4.1 2.65l-1.05-.15-2.4-.55 2.4-1.5 4.2-3.1" fill="#746e8c"/><path d="M10.65 22.75 11.5 25l-4.2 3.1-2.4 1.5 2.4.55 1.05.15-1.1.5-.4.2h-.6l-.15-.05-1.65-1.05-.15-3.2 3-2.5h.1l3.25-1.45" fill="#9b95b9"/><path d="m12.6 28.1 1.15 1.05L9.8 33.1l3.25.4-.35.25-3.85-.05-1.3-2.55q2.3-1 5.05-3.05" fill="#84829d"/><path d="m13.75 29.15 1.8 1.75-2.15 2.4-.35.2-3.25-.4 3.95-3.95" fill="#363743"/><path d="m43.6 1.05-.3.05-7.95 1.45q-.9.7-1.1 1.55-2.7-.2-5.45.55v.25l-.15.75q5.25-1.6 8.9.45 1.7 5.25-1.15 9.65l-.15.2 1 .1q1.6-1.8 2.5-5l.85-.1.7-.5.1-.05q1.7-4.65 2.25-9.3v-.05h-.05m-8.55 1.1Q40.3.45 45 0q-.35 5.15-3.25 11.15h-.15l-.35-.35-.5.4-.4.2h-.45q-.55 3.2-2.55 4.9l-1.25-.05-1.5 1.25q-2.9 1.85-7.75 1.45l-1.95-.25q-1.45-.45-1.55-.85-.25-1.6-.2-3.1l.1-.75q.4-4.05 3.4-7.55.95-.65 1.6-.7-.05-.8.35-1.4 2.2-.7 5.3-.7l.7-.9.45-.6m-11.3 15.6v.1l2.75.7 4.4-.2q1.55-.25 3.1-1.05l1.8-1.1.4-.65q1.8-3.2 1.35-7.8L37.3 6.4l-.15-.25q-6.2-1.6-10.5.8-2.55 3.75-3 7.15l-.1 1.05q-.1 1.3.2 2.6" fill="#576e86"/><path d="M41.6 11.15v1.1q-.5 3.1-1.85 6.2L38.7 20.7q-.7 2.15-2.85 2.85l.45-1.15 1.1-1.2.15-.25 1.5-3.05 1.45-3.65.25-3.05.5-.4.35.35m-20.85-6.2q.5-.95 1.1-1.45l1-.2Q29.45.95 35 2.15h.05l-.45.6-.95-.1q-2.15-.2-3.35.05-4.95.45-7.85 1.5l-.65.75h-1.05m-1.85 15.2-.05 1.55h.3l1.35-.05-.45.4H18.8l-.35-.35.1-1.25.35-.3" fill="#bf6301"/><path d="M35.85 23.55 34.2 27.4l-.75 1.3-2.15 3.05q-7.55 1.9-15.6.65l-5.2-1.1q-.9-.1.35-1.15-.9-.2-1.15-1.1-1.35 1.85-1.5-.1-.45-3-.5-5.8-.25-8.05 2.45-14.2L12.3 7.6q1.6-.9 3.35-1.45 2.4-.85 5.1-1.2h1.05l1.45.15q-2.2 2.15-3.05 4.8l-.15.4-.1.7q-.2.8-.25 1.65v.85l.05.45q.05 1.65.6 3.5l-.35 1.7-1.1 1-.35.3-8.45 7.5q.3-.1.2.9l.15.25 1.3.45 8.3-7.5.45-.4.6-.5q-.45-.55 2.15-.25 1.6 1.1 3.85 1.35h2.6l.7-.1.75-.1.3-.1 1.1-.3-.6-.1q2.45-.85 4.8-2.55.1 1.7-.45 3.4l-.45 1.15M12 29.85l-.75.7 1.45.15 2.85.55q6.6.95 15.6-.85l.1-.1 1.15-1.85 1.05-1.9 2.75-6.05-.05-.35-.75.55-1.55.85q-1.7.8-3.75 1.1l-1.75.15q-3.65.15-5.5-1.65l-1.25.05-9.6 8.65m7.9-12.15v-.05l-.05-.05q-1.25-3.8-.3-7.05.3-1.25 1-2.45.7-1.25 1.75-2.45-3.15.4-5.9 1.3-2.1.65-4 1.6l-1.75 1Q9 15.05 8.95 20.9q-.05 1.25.05 2.5l.25 3.5v.1l.15.9 10.25-9.05.25-1.15" fill="#242b71"/><path d="m35.4 20.7.75-.55.05.35-2.75 6.05-1.05 1.9-1.15 1.85-.1.1q-9 1.8-15.6.85l-2.85-.55-1.45-.15.75-.7 2.35.6 1.1.2 2.2.2 1.3.1 11.8-.8 1.05-1.8 1.25-2.3q1.55-2.95 2.35-5.35M9.25 26.9l10.65-9.2-.25 1.15L9.4 27.9l-.15-.9v-.1" fill="#2b50bf"/><path d="m33.85 21.55 1.55-.85q-.8 2.4-2.35 5.35l-1.25 2.3-1.05 1.8-11.8.8 4.05-4.5 2.85-3.5 4.55.1q2.1-.35 3.45-1.5m-16.2 9.3-2.2-.2-1.1-.2 9.15-8.25 1.55.55-.95 1.1-1.15-.25-.05-.05-.05.1-2.65 2.2-4.1 3.8 2.3.35-.75.85m15.25-7.7q-1.1.25-1.6.65l-2.45 4.65q-.5 1.1.15.75.65-.4.9-.25l.7-.9 1.6-2.95.7-1.95M30 24.6l.1-.5-1.4.05-1.8 3.1-1.8 2.55 2.2-.1 2.7-5.1m-2.4-.25-1.8-.15-5.25 6.1 3.25-.1 3.8-5.85M11.45 14.5l6-2.7.4-1.4-.4.1-5.55 2.05q-.55 1.3-.45 1.95m1.35-3.2.5-.15 5-1.9.85-1.5-1.65.45q-2.7.85-4.6 1.85l-.35.95q-.15.4.25.3m7.75-3.2q-.7 1.05-1.15 2.25-.65 1.7-.8 3.7L8.95 20.9q.05-5.85 1.7-11.35l1.75-1q1.9-.95 4-1.6 2.75-.9 5.9-1.3-1.05 1.2-1.75 2.45m-3.3 4.75-6.45 3.2q-.35 1.85-.3 2.95l6.6-4.35.15-1.8" fill="#76b8fb"/><path d="m12 29.85 9.6-8.65 1.25-.05q1.85 1.8 5.5 1.65l1.75-.15q2.05-.3 3.75-1.1-1.35 1.15-3.45 1.5l-4.55-.1-2.85 3.5-4.05 4.5-1.3-.1.75-.85.6.1 3.8-3.7 1.85-2.4-.55-.15.95-1.1-1.55-.55-9.15 8.25-2.35-.6m5.4-12.35-.15-1.8-6.9 4.8.1 2.95 7-5.75-.05-.15v-.05m2.45.1.05.1-10.65 9.2L9 23.4q-.1-1.25-.05-2.5l9.65-6.85q.15-2 .8-3.7.45-1.2 1.15-2.25-.7 1.2-1 2.45-.95 3.25.3 7.05" fill="#b4effd"/><path d="M28.8 4.9v-.25q2.75-.75 5.45-.55.2-.85 1.1-1.55L43.3 1.1l-1 .95-3.2 2.5-1.4.95q-1.3-.7-3.2-.95-3.1-.6-5.7.35m-5.05 12.85q-.3-1.3-.2-2.6l.1-1.05q.45-3.4 3-7.15 4.3-2.4 10.5-.8l.15.25-2.1 1.8q-3.5-1.8-8.2-.15l-.4.15q-1.3 1.5-1.35 2.65l-.1.15q-.85 1.6-1.05 3.25-.1.75-.05 1.45l.15 1.5-.05.1-.4.45m.8-.5-.1-.05-.15-1.15.15-1.7q.4-2.65 2.25-5.3l.95-.45q3-1.25 7.1-.1v.15q-3.8-.3-6 .85l-.4.2-.65.65q.85.1 1.2.95.25 1.6-1.2 2.7-1.3.5-2-.55l-.5 1.15-.5 1.9-.15.75M10.45 29.1l-.15-.25q.1-1-.2-.9l8.45-7.5-.1 1.25.35.35-8.35 7.05" fill="#fff"/><path d="m43.3 1.1.3-.05q-.95 4.55-3 9.9l-.85.1q-.9 3.2-2.5 5l-1-.1.15-.2q2.85-4.4 1.15-9.65-3.65-2.05-8.9-.45l.15-.75q2.6-.95 5.7-.35 1.9.25 3.2.95l1.4-.95q-2.15 1.8 1.3-.55l.1-.1q3-2.5 1.8-1.85l1-.95m-6 5.3.25 1.35q.45 4.6-1.35 7.8l-.4.65-1.8 1.1q-1.55.8-3.1 1.05l-4.4.2-2.75-.7v-.1l.4-.45.1.05q.55.55 1.8.7l1.7.1L29.7 18q1.95-.25 3.15-1.05 1.1-.7 1.6-1.85l.25-.75q1.05-3.05.55-4.95l-.4-1.05q-3.55-1.6-7.45.05l-.75.35-1.4 2.1Q25.3 9.7 26.6 8.2l.4-.15q4.7-1.65 8.2.15l2.1-1.8M20.05 22.05l-8.3 7.5-1.3-.45 8.35-7.05h1.25" fill="#a9c5d2"/><path d="m40.35 11.4-.05.05-.05.3q-.3 2.6-2.3 5.05l-1.7.05-1.15.8q-3.45 2.2-7.65 1.95-2.2-.1-4.55-.8l-3.75 2.9h-.3l.05-1.55 1.1-1 .35-1.7q-.55-1.85-.6-3.5l1.55-1.25v-.1q.05-1.1.5-2.25.35-.65.05-.65l-1.65.2q.85-2.65 3.05-4.8l-1.45-.15.65-.75q2.9-1.05 7.85-1.5 1.2-.25 3.35-.05l-.2.45q-1.9.05-4.7.8-.85 0-1.15 1.15-2.75 1.5-4.1 5.3-.75 1.85-.95 3.45v.2q-.25 2.3.8 3.85.1.4 1.55.85l1.95.25q4.85.4 7.75-1.45l1.5-1.25 1.25.05q2-1.7 2.55-4.9h.45" fill="#fbee7b"/><path d="m37.55 20.95-.15.25-1.1 1.2q.55-1.7.45-3.4-2.35 1.7-4.8 2.55l.6.1-1.1.3q.25-1.5-.05-1.7l-3 .5-.4-.1-.9 1.6q-2.25-.25-3.85-1.35-2.6-.3-2.15.25l-.6.5-1.35.05 3.75-2.9q2.35.7 4.55.8 4.2.25 7.65-1.95l1.15-.8 1.7-.05q2-2.45 2.3-5.05l-.2 2.3-1.25 3.6-1.05 2.3q-.45 1-.2 1m-14.2-3.1q-1.05-1.55-.8-3.85v-.2q.2-1.6.95-3.45 1.35-3.8 4.1-5.3.3-1.15 1.15-1.15 2.8-.75 4.7-.8l.2-.45.95.1-.7.9q-3.1 0-5.3.7-.4.6-.35 1.4-.65.05-1.6.7-3 3.5-3.4 7.55l-.1.75q-.05 1.5.2 3.1" fill="#eca102"/><path d="m24.55 17.25.15-.75.5-1.9.5-1.15q.7 1.05 2 .55 1.45-1.1 1.2-2.7-.35-.85-1.2-.95l.65-.65.4-.2q2.2-1.15 6-.85l.2 1.15q.2 2.35-.45 4.4l-.55 1.2q-1.2-1.35-2.35-.45-.55.7-.6 1.45l.15 1-3.15.4-2.4-.3-1.05-.25m3.45-2.2.1.45.1.15.6.25.35-.1.2-.15.2-.6-.2-.6-.55-.2-.6.2-.2.6m-2.15.45.15.35.35.2.35-.2.15-.35-.15-.4-.35-.1-.35.1-.15.4m8.4-2.75-.25-.7q-.25-.3-.65-.3h-.1q-.3.05-.55.3l-.2.5-.05.15v.05l.25.7q.3.3.65.3l.45-.1.2-.2.25-.7M31.4 14.2l-.05-.25-.05-.1-.3-.1-.35.1-.1.35.1.3.15.1.2.05.3-.15.1-.3m.8-3.6-.2-.4-.4-.15q-.2 0-.4.15l-.15.4.15.4.4.2.4-.2.2-.4" fill="#c377ff"/><path d="m33.95 15.4-.35.65-1.15.75-1.3.6-.15-1q.05-.75.6-1.45 1.15-.9 2.35.45" fill="#f4bdff"/><path d="m28 15.05.2-.6.6-.2.55.2.2.6-.2.6-.2.15-.35.1-.6-.25-.1-.15-.1-.45m6.25-2.3-.25.7-.2.2-.45.1q-.35 0-.65-.3l-.25-.7v-.05l.05-.15.2-.5q.25-.25.55-.3h.1q.4 0 .65.3l.25.7" fill="#e97fff"/><path d="m25.85 15.5.15-.4.35-.1.35.1.15.4-.15.35-.35.2-.35-.2-.15-.35m6.35-4.9-.2.4-.4.2-.4-.2-.15-.4.15-.4q.2-.15.4-.15l.4.15.2.4m-.8 3.6-.1.3-.3.15-.2-.05-.15-.1-.1-.3.1-.35.35-.1.3.1.05.1.05.25" fill="#fcf7ff"/><path d="m20.2 9.9 1.65-.2q.3 0-.05.65-.45 1.15-.5 2.25v.1l-1.55 1.25-.05-.45 1.4-1.05-.05-.15v-.35q0-.9.65-2-.75 0-1.65.35l.15-.4m11.25 12.05-.3.1q.3-.95.05-1.45l-.7.35-1.8.1-.55-.05-.65 1.25h-.4l.9-1.6.4.1 3-.5q.3.2.05 1.7m1.45 1.2-.7 1.95-1.6 2.95-.7.9q-.25-.15-.9.25-.65.35-.15-.75l2.45-4.65q.5-.4 1.6-.65M30 24.6l-2.7 5.1-2.2.1 1.8-2.55 1.8-3.1 1.4-.05-.1.5m1.45-.35-1.8 3.6-.55.95.7-.15.45-.65 1.7-3.2.55-1.3-.9.4-.15.35m-8.6-.6.1.1v-.15l1.15.25.55.15-1.85 2.4-3.8 3.7-.6-.1-2.3-.35 4.1-3.8 2.65-2.2m4.75.7-3.8 5.85-3.25.1 5.25-6.1 1.8.15m-1.55 5.1 1-.1 2.65-4.75h-.8l-2.85 4.85m-3.1-5.7-6.1 5.65 1.9.3 5.4-5.6-1.2-.35m4.05.95-1.1-.1-4.35 5.2h1.95l3.5-5.1m-16-6.55 5.85-3.65v-1.15l-5.6 2.8-.25 2m.45-3.65q-.1-.65.45-1.95l5.55-2.05.4-.1-.4 1.4-6 2.7m.5-.6 5.3-2.3.05-.7-5.2 1.85-.15 1.15M18.2 9l.15-.75-5.15 1.9q-.55.8-.3.85l5.3-2m-5.4 2.3q-.4.1-.25-.3l.35-.95q1.9-1 4.6-1.85l1.65-.45-.85 1.5-5 1.9-.5.15m4.55 6.25h.05l.05.15-7 5.75-.1-2.95 6.9-4.8.15 1.8h-.1l-.35-1.25-6.2 4.55h-.05l.15 1.95 6.5-5.2m-.1-4.7-.15 1.8L10.5 19q-.05-1.1.3-2.95l6.45-3.2" fill="#017d33"/><path d="m19.7 12.65 1.35-.7v.35l.05.15-1.4 1.05v-.85m11.45 9.4-.75.1.1-1.2.7-.35q.25.5-.05 1.45" fill="#01a255"/><path d="M20.05 10.3q.9-.35 1.65-.35-.65 1.1-.65 2l-1.35.7q.05-.85.25-1.65l.1-.7M30.4 22.15l-.7.1h-2.2l.65-1.25.55.05 1.8-.1-.1 1.2m1.05 2.1.15-.35.9-.4-.55 1.3-1.7 3.2-.45.65-.7.15.55-.95 1.8-3.6M27 24.7l-3.5 5.1h-1.95l4.35-5.2 1.1.1m-4.05-.95 1.2.35-5.4 5.6-1.9-.3 6.1-5.65m3.1 5.7 2.85-4.85h.8l-2.65 4.75-1 .1M11 18.15l.25-2 5.6-2.8v1.15L11 18.15m.95-4.25.15-1.15 5.2-1.85-.05.7-5.3 2.3M18.2 9l-5.3 2q-.25-.05.3-.85l5.15-1.9-.15.75m-.85 8.55-6.5 5.2-.15-1.95h.05l6.2-4.55.35 1.25.05.05" fill="#25ff99"/><path d="M43.65 1.1q-.55 4.65-2.25 9.3l-.1.05-.7.5q2.05-5.35 3-9.9l.05.05m-2.9 10.1-.25 3.05-1.45 3.65-1.5 3.05q-.25 0 .2-1l1.05-2.3 1.25-3.6.2-2.3.05-.3.05-.05.4-.2" fill="#ead4b0"/></g><g id="F" fill-rule="evenodd"><path d="M57.75 141.45q8.25 4.05 18.9 6.35 8.4 5.15 22.2 9.95-12.65-2.8-22.9-6.8h-.05q-10.3-4.1-18.2-9.5h.05m18 10q12.25 4.9 25.75 8.3l-1.3 2.25q-18.65-2.5-35.45-15.4 5.35 2.55 10.95 4.85h.05m30.6 21.55q-26.9-2.6-44.15-11.05 19.65 8.5 45.75 8.9l-1.6 2.15" fill="#19a7b9" fill-opacity=".745"/><path d="M177 11.85q-11.9-1-23.65-3.05-18.4-5.55-35.55-5.5 7.75-4.45 23.95-2.9l35.1 3.15.15 8.3m20.4 37.2-31.75 13.6L186.1 44.3l11.3 4.75m-12.35-6.15-25.3 22.25-14.3 6.85 19.8-21.9 19.8-7.2m-7.45 81.95q-52.45 25.55-102.1-17.9 54.8 29.65 102.85 10.1l-.75 7.8m21.75 1.9-.9 4.4h-.1q-12.4 4.25-24.85 3.75 14.2-1.7 25.85-8.15m2.15-2.95q-13.95 7.85-47.15 11.35 21.35-4.5 37.5-15.6l9.65 4.25M128.9 13.25q-6.3-2.3-12.25-3.8l-.15-.05Q106.65 7 97.85 6.85l6.85-1.35q21.4-1.7 43.1 4l-18.9 3.75m-13.05-2.05Q73.6 17.8 48 34.7l6.4-12.55Q28.4 35.7 15.35 54.1-.5 75.95 12.3 84.35q-14.5-6.7-7.1-23.8 7.45-22.55 52.3-50Q40.2 23.5 23.7 39 43.65 21.95 64 7.2L80.35.9Q69.3 8.65 61.7 17.65q9.95-4.65 29.35-9.7 15.05.6 24.8 3.25m16.95 65.45h8.05Q112.35 87.8 79.9 79.4q34.9.75 83.25-30.75-5.15 9.7-20.4 24.45l-9.95 3.55M30.55 78q6.3 6.55 10.1 15.25Q29.35 80.3 15.8 73q6.55.35 14.75 5M41 93.15v-.05q-3.05-8.45-7.7-13.65l8.45 5.25q6.2 9.5 10.25 24.7L41.3 94l-.3-.85m22.8 22.05-.3.3q2.6 7.6 6.85 14-8.85-6.4-16.25-16.85l-.1-.2q-3.45-15.5-9.9-25.7 14.25 10.9 31.4 28.1 16.6 15.7 31.55 21.65Q80 130.75 63.8 115.2" fill="url(#o)"/><path d="M98.9 30.75q-14.15 4.85-22.6 9 11.45-4.65 25.3-8.4 7.3-.75 16.25 1-10.2 3-15.15 7.05 26.65-5.45 55.3.65-42.1-.55-80.65 11.55 2.5-4.5 7.4-9.55-14.45.35-32.2 4.35 18-9.1 35.6-14.55l10.75-1.1M48.25 47.6q-12.5 3-24.2 8.1Q41.8 38.8 84.4 31.95 67 37.6 48.7 47.35l-.45.25" fill="url(#p)"/><path d="M19 25Q9.25 39.55 5.2 49.3q-1.1-.6-.65-4.55Q.6 54.3.65 58.55q-2.9-10.5 9.65-28.45-3 8-1.6 7.75Q15.45 28.25 19 25" fill="url(#q)"/><path d="M.55 86.95h.2Q2.65 98.2 6.6 107l1.55-7.5 1.35 2.35v.4l1 2.5v.1l.05.05q4.1 10.1 9.75 19.85l-8.8-10.85q-1.8 12.65 1.95 24.3l-.15.05q-16.05-24-12.75-51.3" fill="url(#r)"/><path d="M41.5 133.8v-.15q-2.6-10.05-.95-14.95 14.9 17.15 32.85 27.2-6.55-1.05-15.5-4.85l-.05-.05-.1-.05h-.05l-1.45-.65-.4-.35q-12.15-12.35-7.75-1.7v.2l10.4 6.3.05.05q-.05.7-8.65-2.7-2.45-2.9 2.15 9.05-8.5-8.2-18.5-23.75 9 17.5 18.75 25.85l2.45 4.55q-11.1-6.9-18.15-21.35l-4-1.8-9.85-14.35 7.8 12.85-6.65-5.3-12.9-23.2.15-.05q8.15 12.2 20.5 22l-6.15-19.45q-5.65-18.85-9.9-20.9 6.3 2.15 12.15 19.1l.1.35h.1l.05-.05q5 15.7 12.85 28.2l.15.2.5-.25" fill="url(#s)"/><path d="m48.6 157.8 10.65 3.45Q79.2 171.9 104.2 174.2l-7.05 2.9h-.2Q65 174.5 49.1 164.65h-.15l-.4.55 2.7 4.05Q40.4 164.95 25 142.2q30.65 27.45 60.8 32.25-24.45-6.7-37.2-16.65" fill="url(#t)"/></g><use ffdec:characterId="2" height="40.2" width="30.95" xlink:href="#u" id="c"/><use ffdec:characterId="4" height="48" width="60.85" xlink:href="#v" id="d"/><use ffdec:characterId="6" height="30.95" width="18.25" xlink:href="#w" id="e"/><use ffdec:characterId="8" height="57.65" width="40.1" xlink:href="#x" id="f"/><use ffdec:characterId="10" height="64.05" width="34.7" xlink:href="#y" id="g"/><use ffdec:characterId="12" height="64.1" width="67.6" xlink:href="#z" id="h"/><use ffdec:characterId="14" height="62.1" width="69.8" xlink:href="#A" id="i"/><use ffdec:characterId="16" height="43.95" width="31.85" xlink:href="#B" id="j"/><use ffdec:characterId="22" height="48.65" width="67.25" xlink:href="#C" id="k"/><use ffdec:characterId="24" height="57.7" width="55.25" xlink:href="#D" id="l"/><use ffdec:characterId="26" height="35" width="45" xlink:href="#E" id="m"/><use ffdec:characterId="28" height="177.1" transform="translate(.4 2.65)" width="201.5" xlink:href="#F" id="n"/><linearGradient gradientTransform="matrix(.0691 0 0 .0509 59.25 42.65)" gradientUnits="userSpaceOnUse" id="o" spreadMethod="pad" x1="-819.2" x2="819.2"><stop offset="0" stop-color="#493e78" stop-opacity=".78"/><stop offset="1" stop-color="#40bfdc" stop-opacity=".722"/></linearGradient><linearGradient gradientTransform="matrix(.0368 0 0 .0145 54.2 43.8)" gradientUnits="userSpaceOnUse" id="p" spreadMethod="pad" x1="-819.2" x2="819.2"><stop offset="0" stop-color="#493e78" stop-opacity=".78"/><stop offset="1" stop-color="#40bfdc" stop-opacity=".722"/></linearGradient><linearGradient gradientTransform="matrix(.0115 0 0 .0205 9.55 41.75)" gradientUnits="userSpaceOnUse" id="q" spreadMethod="pad" x1="-819.2" x2="819.2"><stop offset="0" stop-color="#493e78" stop-opacity=".78"/><stop offset="1" stop-color="#40bfdc" stop-opacity=".722"/></linearGradient><linearGradient gradientTransform="matrix(.0124 0 0 .0313 10.15 112.6)" gradientUnits="userSpaceOnUse" id="r" spreadMethod="pad" x1="-819.2" x2="819.2"><stop offset="0" stop-color="#493e78" stop-opacity=".78"/><stop offset="1" stop-color="#40bfdc" stop-opacity=".722"/></linearGradient><linearGradient gradientTransform="matrix(.0381 0 0 .0437 42.2 122.05)" gradientUnits="userSpaceOnUse" id="s" spreadMethod="pad" x1="-819.2" x2="819.2"><stop offset="0" stop-color="#493e78" stop-opacity=".78"/><stop offset="1" stop-color="#40bfdc" stop-opacity=".722"/></linearGradient><linearGradient gradientTransform="matrix(.0878 0 0 .0213 64.6 159.65)" gradientUnits="userSpaceOnUse" id="t" spreadMethod="pad" x1="-819.2" x2="819.2"><stop offset="0" stop-color="#493e78" stop-opacity=".78"/><stop offset="1" stop-color="#40bfdc" stop-opacity=".722"/></linearGradient><path d="M27.75 0q0 2-8.15 3.4Q11.5 4.9 0 4.9q-11.5 0-19.65-1.5-8.1-1.4-8.1-3.4 0-2.05 8.1-3.5Q-11.5-4.9 0-4.9q11.5 0 19.6 1.4 8.15 1.45 8.15 3.5" fill-opacity=".349" fill-rule="evenodd" transform="translate(27.75 4.9)" id="b"/></defs></svg>