<svg xmlns:ffdec="https://www.free-decompiler.com/flash" xmlns:xlink="http://www.w3.org/1999/xlink" ffdec:objectType="frame" height="90" width="90" xmlns="http://www.w3.org/2000/svg"><use ffdec:characterId="19" height="90" transform="translate(-1.8)" width="92.95" xlink:href="#a"/><defs><g id="a" transform="translate(1.8)"><use ffdec:characterId="16" height="201.55" transform="translate(-1.8 10.616) scale(.3335)" width="278.65" xlink:href="#b"/><use ffdec:characterId="18" height="71.05" transform="scale(1.4622 1.2667)" width="61.55" xlink:href="#c"/></g><g id="b" transform="translate(4.05 6.1)"><use ffdec:characterId="1" height="55.4" transform="translate(53.2 140.05)" width="177.8" xlink:href="#d"/><use ffdec:characterId="2" height="107.85" transform="translate(130 5.45)" width="107.45" xlink:href="#e"/><use ffdec:characterId="3" height="107" transform="translate(.3 17.25)" width="118.3" xlink:href="#f"/><use ffdec:characterId="4" height="121" transform="translate(137.65 1.5)" width="134.5" xlink:href="#g"/><use ffdec:characterId="5" height="84.65" transform="translate(80.35 96.9)" width="55.7" xlink:href="#h"/><use ffdec:characterId="6" height="45.05" transform="translate(102.1 65.35)" width="48.65" xlink:href="#i"/><use ffdec:characterId="7" height="31.35" transform="translate(70.7 50.7)" width="29.6" xlink:href="#j"/><use ffdec:characterId="8" height="90.35" transform="translate(113.4 99.4)" width="104.15" xlink:href="#k"/><use ffdec:characterId="9" height="17.7" transform="translate(104.65 71.1)" width="28.85" xlink:href="#l"/><use ffdec:characterId="10" height="58.5" transform="translate(121.55 67.1)" width="46.45" xlink:href="#m"/><use ffdec:characterId="12" height="40.95" transform="translate(129.85 12.1)" width="39.55" xlink:href="#n"/><use ffdec:characterId="14" height="39.85" transform="translate(78 11.2)" width="34.35" xlink:href="#o"/><use ffdec:characterId="15" height="80.1" transform="translate(87.6 -2.05)" width="69.9" xlink:href="#p"/></g><g id="e"><path d="M20.2 84.65q8.6-9.7 12.6-25.65l.5-1.8q2.8.2 5.2 1-3.15 7-6 14.95-2.8 7.4-6.75 12.6-2.4-.95-5.55-1.1M44.8 24.7q2.95-6 7.35-10.1Q72.2-3.9 92.8 1.05q2 .85 3.75 1.95-21.75 3.1-38.5 22.8-6.1-3.15-13.25-1.1" fill="#5c2b03" fill-rule="evenodd" transform="translate(0 1)"/><path d="M9.35 93.4q6.1-3.45 10.85-8.75 3.15.15 5.55 1.1-6.9 8.85-17.45 11.1.15-1.35 1.05-3.45M33.3 57.2q4.9-19 11.5-32.5 7.15-2.05 13.25 1.1-10.8 12.7-19.55 32.4-2.4-.8-5.2-1" fill="#de8801" fill-rule="evenodd" transform="translate(0 1)"/><path d="M58.05 25.8q4.7 2.4 8.8 7.85 3.75 4.7 5.25 10.15-15.9 8.25-25.35 19.75l-.1.15q-3.1-3.9-8.15-5.5 8.75-19.7 19.55-32.4m-32.3 59.95q2.7 1.15 4.2 3.45-8.55 8.2-18.7 10.1-3.3.6-2.95-2.45 10.55-2.25 17.45-11.1" fill="#ffbf5d" fill-rule="evenodd" transform="translate(0 1)"/><path d="M96.55 3q4.35 2.85 6.85 7.6 1.9 21.15-31.15 33.05l-.15.15q-1.5-5.45-5.25-10.15-4.1-5.45-8.8-7.85Q74.8 6.1 96.55 3m-49.9 60.7h.05q-7.5 16.5-16.75 25.5-1.5-2.3-4.2-3.45 3.95-5.2 6.75-12.6 2.85-7.95 6-14.95 5.05 1.6 8.15 5.5" fill="#874f05" fill-rule="evenodd" transform="translate(0 1)"/><path d="M1.1 105.8q-3.05-4.8 2.3-9.65Q6.5 95 9.35 93.4q-.9 2.1-1.05 3.45-.35 3.05 2.95 2.45 10.15-1.9 18.7-10.1 1.55 2.4 1.75 6.2-12.4 8.25-30.6 10.4m71-62q1.2 4.75.55 10-13.85 6-22 18.95-1.2-5.5-3.95-9.05l.05-.15Q56.2 52.05 72.1 43.8" fill="#bc6601" fill-rule="evenodd" transform="translate(0 1)"/><path d="M103.4 10.6q1.8 3.6 2.5 8.25.3 26-33.25 34.95.65-5.25-.55-10l.15-.15q33.05-11.9 31.15-33.05M46.7 63.7q2.75 3.55 3.95 9.05Q44.1 87.05 31.7 95.4q-.2-3.8-1.75-6.2 9.25-9 16.75-25.5" fill="#391902" fill-rule="evenodd" transform="translate(0 1)"/><path d="M105.9 18.85q.65 3.8.55 8.45-2.85 17.9-23.85 25.1-6.65 2.35-14 6.65-11.35 7-25.1 27.45-13.8 20.4-42.4 19.3 18.2-2.15 30.6-10.4 12.4-8.35 18.95-22.65 8.15-12.95 22-18.95 33.55-8.95 33.25-34.95" fill="#01ffe5" fill-rule="evenodd" transform="translate(0 1)"/><path d="M96.55 4q4.35 2.85 6.85 7.6 1.8 3.6 2.5 8.25.65 3.8.55 8.45-2.85 17.9-23.85 25.1-6.65 2.35-14 6.65-11.35 7-25.1 27.45-13.8 20.4-42.4 19.3m2.3-9.65Q6.5 96 9.35 94.4q6.1-3.45 10.85-8.75 8.6-9.7 12.6-25.65l.5-1.8q4.9-19 11.5-32.5 2.95-6 7.35-10.1Q72.2-2.9 92.8 2.05q2 .85 3.75 1.95" fill="none" stroke="#391902" stroke-linecap="round" stroke-linejoin="round" stroke-width="2"/></g><g id="f"><path d="M40.45 12.55q5.35 4.8 5.35 8.9-6.35-2.85-12.35-4.6 3.25 4.5 8.7 9.1-4.95 1.6-13.1-1.35Q12.75 17.55 0 0q22.4 4.9 40.45 12.55M71.8 26.4l-1.6-5.05q3.65 2.05 7.1 4.75 6.1 3.4 11.15 7.6-.85 1 1.45 3.65L87 35.8l1.15 3.25.2.65-.65-.7q-2.45-2.35-7.05-3.85Q76.8 32 71.8 26.4m1.35 78.6.85-3.05q.7-3.1 2.8-7.65l1.25-2.35h.2q3.65.35 2.05 3.65-1.6 3.25-7.15 9.4m7.5-16.8q-15.1 7.1-32.35 10.5l-.35.05-.95.15q8.65-13.3 22.4-21.4l1.75-.2 3.45-.45 3-.35-1.6 2.75 8.6-2.9q-4.95 5.5 1.25 3.8l1.25-.35q-3.55 3-5.55 8.1l-.9.3M11.35 73q19.9-11.05 45.4-13.1-3.25 1.1.3 2.1v.4q-8.9-.35-13.05 3.1 2.95 1.65 7.05 2.4-8.65 2-39.7 5.1m32.6-21.4q-3.2-2.6-5.8-5.55 9.2-.4 17.55 0l2.95.4q.25 2.1-.45 3.5-3.9-1.05-7.7-1.25 1.4 1.9 3.9 3.75-3.65.75-10.45-.85" fill="#fff" fill-rule="evenodd" transform="translate(1 1)"/><path d="M40.45 12.55q8.2 3.5 15.55 7.6-3.55-.95-3.8 1.05l3.8 5.2q-5.2-2.8-10.2-4.95 0-4.1-5.35-8.9m32.8 18.95-1.45-5.1q5 5.6 8.85 8.75L81.5 38q-5.2-5.75-7.9-5.9l-.35-.6m15.2 2.2 3 2.75q-1 2.6-3.3 2.6L87 35.8l2.9 1.55q-2.3-2.65-1.45-3.65m.3 64.15q-5.15 3.75-8.95 5.05l-6.65 2.1q5.55-6.15 7.15-9.4 1.6-3.3-2.05-3.65h-.2l.1-.1.4-.25-.3.1.75-1.1q1.15.95 2.8-1.05-1.6 3.85 1.9 1.05-1.7 3.2-1.55 5.45 2.7-.05 5.35-4.2-1.3 3.75 1.25 6M61.9 79.2l-10.3 2.05Q35.45 83.15 11.35 73q31.05-3.1 39.7-5.1l5.7.5-2.85 1.1q2.2 2.2 8.2 1.55-3.2 1.45-3.35 2.9l3.15 5.25m-5.15-19.3q-9.85-5.85-12.8-8.3 6.8 1.6 10.45.85l2.9 1.9q-2.2-.2-3.7-.05.3 1.75 4.15 6.25l-1-.65m-10.2-19.3Q9.55 17.8 0 0q12.75 17.55 29.05 24.6 8.15 2.95 13.1 1.35l5.05 4q-5.65-2.75-7.9-2.45 1.75 2.5 9.35 10.1-2.4-1-4.15-.6l2.05 3.6m11.65 9.35q.7-1.4.45-3.5l2.65.4q.7 2.7 4.95 6.2-4.1-2-8.05-3.1M57.05 62l2.2.6-2.2-.2V62M87.7 39q-2.75-.35-7.05-3.85 4.6 1.5 7.05 3.85" fill="#e9c6ff" fill-rule="evenodd" transform="translate(1 1)"/><path d="M45.8 21.45q5 2.15 10.2 4.95l-3.8-5.2q.25-2 3.8-1.05 9.4 5.2 17.25 11.35l.35.6q2.7.15 7.9 5.9l-.85-2.85q4.3 3.5 7.05 3.85l.65.7-.2-.65q2.3 0 3.3-2.6 13.1 11.65 24.85 34.65l-31.8 4.4 31.8-4.4L97 68.8l-19.1-3.3q-9-1.55-17.9-4.2l-2.25-.75q-3.85-4.5-4.15-6.25 1.5-.15 3.7.05l-2.9-1.9q2.85-.55 3.8-2.5 3.95 1.1 8.05 3.1-4.25-3.5-4.95-6.2l-2.65-.4-2.95-.4-9.15-5.45L44.5 37q1.75-.4 4.15.6-7.6-7.6-9.35-10.1 2.25-.3 7.9 2.45l-5.05-4q1.6-.55 2.9-1.55.75-1.45.75-2.95m70.35 50q-7.9 13.95-27.4 26.4-2.55-2.25-1.25-6-2.65 4.15-5.35 4.2Q82 93.8 83.7 90.6q-3.5 2.8-1.9-1.05-1.65 2-2.8 1.05l1.65-2.4.9-.3Q90 85 98.1 81.1q8.95-4.3 17.55-9.3l-26.9 26.05 26.9-26.05q-8.6 5-17.55 9.3Q90 85 81.55 87.9q2-5.1 5.55-8.1l-1.25.35q1.3-3.7-1.35-4.65l-6.9.95-3 .4-3.45.45-1.75.2-.7.05.2-.05-.2.05-6.8 1.65-3.15-5.25q.15-1.45 3.35-2.9-6 .65-8.2-1.55l2.85-1.1-5.7-.5.65-.15q4.75-2.55 5.35-5.35l2.2.2-2.2-.6q.15-1-.3-2.1l1 .65 2.25.75q8.9 2.65 17.9 4.2L97 68.8l19.3 2.3-.3.3.15.05m-38 20.4.1-.15.3-.1-.4.25M73.6 32.1q4.9 8.3 10.15 16.3l5.4 7.75q-8.85-4.15-18.3-6.8l-9.55-2.5 9.55 2.5q9.45 2.65 18.3 6.8l-5.4-7.75q-5.25-8-10.15-16.3m-1.05 43.75-1.35.6.2-.05 1.15-.55m-1.4 1.45-2.25.2 2.25-.2m44.5-5.5.35-.4-.35.4m-26.5-15.65L116.3 71.1 89.15 56.15" fill="#a38ab2" fill-rule="evenodd" transform="translate(1 1)"/><path d="M45.8 21.45q0 1.5-.75 2.95-1.3 1-2.9 1.55-5.45-4.6-8.7-9.1 6 1.75 12.35 4.6m8.6 31q-2.5-1.85-3.9-3.75 3.8.2 7.7 1.25-.95 1.95-3.8 2.5m2.35 7.45q.45 1.1.3 2.1-3.55-1-.3-2.1m.3 2.5q-.6 2.8-5.35 5.35l-.65.15q-4.1-.75-7.05-2.4 4.15-3.45 13.05-3.1M77.6 76.5v-.05l6.9-.95q2.65.95 1.35 4.65-6.2 1.7-1.25-3.8l-8.6 2.9 1.6-2.75" fill="#b2b2b2" fill-rule="evenodd" transform="translate(1 1)"/><path d="M57 21.15q-7.35-4.1-15.55-7.6Q23.4 5.9 1 1q9.55 17.8 46.55 40.6l9.15 5.45q-8.35-.4-17.55 0 2.6 2.95 5.8 5.55 2.95 2.45 12.8 8.3-25.5 2.05-45.4 13.1 24.1 10.15 40.25 8.25l10.3-2.05 6.8-1.65.2-.05M57 21.15q9.4 5.2 17.25 11.35l-1.45-5.1-1.6-5.05q3.65 2.05 7.1 4.75 6.1 3.4 11.15 7.6l3 2.75q13.1 11.65 24.85 34.65m-.15.35q-7.9 13.95-27.4 26.4-5.15 3.75-8.95 5.05l-6.65 2.1.85-3.05q.7-3.1 2.8-7.65l1.25-2.35.1-.1.1-.15.75-1.1 1.65-2.4q-15.1 7.1-32.35 10.5l-.35.05-1 .15H48q8.65-13.3 22.4-21.4M48.95 99.75l-.95.15h-.05M74.6 33.1l-.35-.6" fill="none" stroke="#573f7c" stroke-linecap="round" stroke-linejoin="round" stroke-width="2"/><path d="m116.3 71.1-.15.35M69.4 77.5l-.7.05.2-.05M58.65 46.45l-2.95-.4m5.6.8-2.65-.4m-1.9 13.45 1 .65 2.25.75q8.9 2.65 17.9 4.2L97 68.8l19.3 2.3-27.15-14.95-5.4-7.75q-5.25-8-10.15-16.3M61.3 46.85l9.55 2.5q9.45 2.65 18.3 6.8M77.6 76.45l-3 .4-3.45.45-1.75.2m15.1-2-6.9.95m6.9-.95 31.8-4.4-.3.3-.35.4q-8.6 5-17.55 9.3Q90 85 81.55 87.9l-.9.3m8.1 9.65 26.9-26.05" fill="none" stroke="#573f7c" stroke-linecap="round" stroke-linejoin="round" transform="translate(1 1)"/><path d="m69.9 78.5 2.25-.2" fill="none" stroke="#573f7c" stroke-linecap="round" stroke-linejoin="round" stroke-width=".05"/></g><g id="g"><path d="M132.5 0q-15.55 20.45-35.35 28.7-9.9 3.45-15.9 1.6 6.6-5.4 10.55-10.6-7.25 2.05-15 5.35 0-4.75 6.55-10.4Q105.25 5.75 132.5 0M61.15 54.15l3.65-.45q10.15-.45 21.25 0-3.15 3.45-7 6.45-8.25 1.9-12.75 1.05 3.05-2.2 4.85-4.35-4.65.15-9.4 1.45-.85-1.7-.6-4.15m2.4 15.75 7.75-4.45q21.6-.7 41.65 1.85l-.6.4Q83.7 82.05 70.4 79.2q5.05-.85 8.6-2.8-5-4-15.85-3.6l-.05-.45q4.35-1.2.45-2.45m-38.6-30.55q6.15-5 13.55-8.95 4.15-3.05 8.65-5.5l-1.9 5.95Q39.1 37.35 34.45 41q-5.6 1.8-8.55 4.45l-.55.05 1.35-3.7-3.45 1.8q2.75-3.15 1.7-4.25m30.35 54.3q1.25-.4-.2-1.75l.2-.85 5.65-.2 3.5 1.25q10.05 1.8 19.5 7.75l-6.85 1.5q-19.7-2.25-21.8-7.7m-17.65 13.6L39.6 110q3.6 3.2 5.25 7.8-8-2.45-10-6.3-1.95-4 2.8-4.25m14.7-3.85q10.35 3.2 17.55 13.3l-7.65-.45q-13.75-8.1-9.9-12.85" fill="#fff" fill-rule="evenodd" transform="translate(1 1)"/><path d="m75.95 47.4 2.4-4.25q-2.15-.45-4.95.7Q82.55 35 84.7 32.1q-2.7-.35-9.6 2.85l6.15-4.65q6 1.85 15.9-1.6 19.8-8.25 35.35-28.7-11.65 20.8-56.55 47.4m.85-22.35q-6.05 2.45-12.4 5.8l4.65-6.1q-.3-2.4-4.65-1.25 8.95-4.75 18.95-8.85-6.55 5.65-6.55 10.4m-33.35 11.7-.4.65q-3.35.2-9.65 7l1.05-3.4q4.65-3.65 10.8-10.15l-1.8 5.9m14.5 17.85 3.2-.45q-.25 2.45.6 4.15-4.85 1.25-9.75 3.6 5.15-4.1 5.95-7.3m4.35 16q4.65-5.25 5.05-7.25-1.85-.2-4.55.05l3.5-2.2q4.5.85 12.75-1.05-3.55 2.85-7.75 5.3l-7.75 4.45-1.25.7M19.45 94.3Q13.05 97.75 8 88.55q-4.6-8.3-2.1-17.6Q6.55 82.5 12.75 81 9 79.85 8.65 74.95q1.6-6.25 6.2-7.85 6.1 0 8.7 6.15 3.05 8.2-1.85 18.25l-2.25 2.8m35.85-.65q2.1 5.45 21.8 7.7-12.15 2.3-24.75 2.05l-2.5.1 2.5-.1q-3.85 4.75 9.9 12.85-10.4-1.25-20.55-5.35l4-.05-1.15-3.35 7.4 2.15-3.85-6.15h1.75q.7-1.8-2.05-4.15 5.6 2.05 11.2.95-1.55-3.6-9.9-7.1l6.2.45m9.15-1.55-3.5-1.25-3.95-1.3 4.05-3.3q-.15-1.7-4.05-3.4 7.3.75 10-1.8l-3.45-1.3 6.85-.55q13.3 2.85 41.95-11.5-19.4 12.95-47.9 24.4M26.1 112.35q1.65-.85.05-5.3 3.2 4.9 6.5 5 .1-2.65-1.9-6.45 4.3 3.35 2.3-1.2 2.05 2.35 3.4 1.2l1.2 1.65q-4.75.25-2.8 4.25 2 3.85 10 6.3l.4 1.05q-1.95.35-3.15 0-9.05-2.05-16-6.5" fill="#e9c6ff" fill-rule="evenodd" transform="translate(1 1)"/><path d="m81.25 30.3-6.15 4.65q6.9-3.2 9.6-2.85-2.15 2.9-11.3 11.75 2.8-1.15 4.95-.7l-2.4 4.25-11.15 6.3-3.65.45-3.2.45q-16.6 2.7-33.85 10.85 9.7-11.6 18.95-28.05Q33.8 53.85 24.1 65.45 41.35 57.3 57.95 54.6q-.8 3.2-5.95 7.3 4.9-2.35 9.75-3.6 1.15 2.2 4.55 2.9l-3.5 2.2q2.7-.25 4.55-.05-.4 2-5.05 7.25l1.25-.7q-.55 1.25-.45 2.45l-2.65.6 2.7-.15q.75 3.2 6.5 6.15l.75.25-6.85.55 3.45 1.3q-2.7 2.55-10 1.8 3.9 1.7 4.05 3.4L57 89.55l-.85-.25q-.6.9-.85 1.75L54 90.9l1.1 1q-.1.9.2 1.75l-6.2-.45q8.35 3.5 9.9 7.1-5.6 1.1-11.2-.95 2.75 2.35 2.05 4.15H48.1l3.85 6.15-7.4-2.15 1.15 3.35-4 .05-2.1-.9-1.95-2.75-1.2-1.65-2-2.7-4.85-.6 4.85.6 2 2.7q-1.35 1.15-3.4-1.2 2 4.55-2.3 1.2 2 3.8 1.9 6.45-3.3-.1-6.5-5 1.6 4.45-.05 5.3-8.65-5.6-14.1-15-3.15-.35-6.75-3Q-3.9 85.1 2.9 68.5q6.6-15.2 18.4-26 1.2 3.05 4.05 3l-.3.8.85-.85q3.3-.4 8.55-4.45l-1.05 3.4q6.3-6.8 9.65-7l.4-.65Q53 29.55 64.4 23.5q4.35-1.15 4.65 1.25l-4.65 6.1q6.35-3.35 12.4-5.8 0 1.75.9 3.35 1.55 1.25 3.55 1.9m-61.8 64q-3.4 3.45-7.45 3.05 4.05.4 7.45-3.05l2.25-2.8q4.9-10.05 1.85-18.25-2.6-6.15-8.7-6.15-4.6 1.6-6.2 7.85.35 4.9 4.1 6.05-6.2 1.5-6.85-10.05-2.5 9.3 2.1 17.6 5.05 9.2 11.45 5.75m2.1-27.7 2.55-1.15-2.55 1.15m40.75 4q-16.2 8.2-36.85 12.25 15.5 1.7 30.7 6.45-15.2-4.75-30.7-6.45Q46.1 78.8 62.3 70.6m-27.85 32.3 13.65.6-13.65-.6" fill="#a38ab2" fill-rule="evenodd" transform="translate(1 1)"/><path d="M81.25 30.3q-2-.65-3.55-1.9-.9-1.6-.9-3.35 7.75-3.3 15-5.35-3.95 5.2-10.55 10.6M66.3 61.2q-3.4-.7-4.55-2.9 4.75-1.3 9.4-1.45-1.8 2.15-4.85 4.35M25.9 45.45q2.95-2.65 8.55-4.45-5.25 4.05-8.55 4.45m-.55.05q-2.85.05-4.05-3l3.65-3.15q1.05 1.1-1.7 4.25l3.45-1.8-1.35 3.7M55.1 91.9q1.45 1.35.2 1.75-.3-.85-.2-1.75m5.85-1.05-5.65.2q.25-.85.85-1.75l.85.25 3.95 1.3m2.15-18.5q-.1-1.2.45-2.45 3.9 1.25-.45 2.45m7.3 6.85-.75-.25Q63.9 76 63.15 72.8 74 72.4 79 76.4q-3.55 1.95-8.6 2.8" fill="#b2b2b2" fill-rule="evenodd" transform="translate(1 1)"/><path d="m43.45 36.75-.4.65Q33.8 53.85 24.1 65.45 41.35 57.3 57.95 54.6l3.2-.45 3.65-.45m-2.5 16.9 1.25-.7 7.75-4.45M12 97.35q4.05.4 7.45-3.05l2.25-2.8q4.9-10.05 1.85-18.25-2.6-6.15-8.7-6.15-4.6 1.6-6.2 7.85.35 4.9 4.1 6.05M24.1 65.45l-2.55 1.15m42.9 25.5-3.5-1.25-3.95-1.3-.85-.25q-15.2-4.75-30.7-6.45Q46.1 78.8 62.3 70.6m-12.45 32.9 2.5-.1m-15.9 2.2-2-2.7-4.85-.6m6.85 3.3 1.2 1.65L39.6 110m8.5-6.5-13.65-.6m15.4.6H48.1" fill="none" stroke="#573f7c" stroke-linecap="round" stroke-linejoin="round" transform="translate(1 1)"/><path d="M76.95 48.4Q121.85 21.8 133.5 1q-27.25 5.75-49.15 14.65-10 4.1-18.95 8.85Q54 30.55 44.45 37.75l1.8-5.9 1.9-5.95q-4.5 2.45-8.65 5.5-7.4 3.95-13.55 8.95L22.3 43.5q-11.8 10.8-18.4 26-6.8 16.6 2.35 25.85 3.6 2.65 6.75 3 5.45 9.4 14.1 15 6.95 4.45 16 6.5 1.2.35 3.15 0l-.4-1.05q-1.65-4.6-5.25-7.8l2.1.9q10.15 4.1 20.55 5.35l7.65.45q-7.2-10.1-17.55-13.3 12.6.25 24.75-2.05l6.85-1.5q-9.45-5.95-19.5-7.75 28.5-11.45 47.9-24.4l.6-.4Q93.9 65.75 72.3 66.45q4.2-2.45 7.75-5.3 3.85-3 7-6.45-11.1-.45-21.25 0l11.15-6.3z" fill="none" stroke="#573f7c" stroke-linecap="round" stroke-linejoin="round" stroke-width="2"/></g><g id="h"><path d="m35.95 36.25 1.45-.3q0 6.25 4.2 7.75t-1.3 14.5l-.45-1.2-.45-1.05q4.35-8.55.5-11.25-4.95-3.25-3.95-8.45" fill="#06fde0" fill-rule="evenodd" transform="translate(1 1)"/><path d="M35.95 36.25q-1 5.2 3.95 8.45 3.85 2.7-.5 11.25-4.95-10.5-17.15-9.65 1.45-2.45 4.25-4.75 4.65-4.15 9.45-5.3" fill="#3a1a01" fill-rule="evenodd" transform="translate(1 1)"/><path d="m39.85 57 .45 1.2q1.3 1.85-.65 3.95l.05.15q.35 3.15-1 5.7.45 3.65-2.75 2.35l-.5.95q-3.35 5.6-8.25 6.35-3.75.75-5.7 5-.2-1.1-.1-2l.1-.35q.65-2.8 4.8-3.6 10.65-2.55 6.8-10.85 1.15 1.35 1.85 3.5.35-1.7.05-2.65l1 1 .1 1.75q1.5.25 1.15-1.3l-.05-.65q-.1-1.05.5-1.6l.15.15q1.95-.9-2.35-11.55 2.05 2.55 3.6 6.2l.5-1.4.25-2.3m-.2 5.15-.55-1.45.55 1.45M17.3 73.8q-3.9.05-6.55 5.1l-.15-.1v-.15q.05-.6.25-1.1 1.05-4.35 6.65-4.65l-.2.9m-9.8-5.7Q3.25 66.6 0 70.4q3.1-5.15 8-3.5l-.5 1.2m31.2-.1-.85-1.95.85 1.95m-2.6 1.45-.15.9.15-.9m-1.15-.1.5 1.95-.5-1.95" fill="#1bf3de" fill-rule="evenodd" transform="translate(1 1)"/><path d="m39.6 59.3-.5 1.4q-1.55-3.65-3.6-6.2-5.1-6.35-13.65-6.2l-.3-.05Q32.3 45.9 39.6 59.3" fill="#9f8aab" fill-rule="evenodd" transform="translate(1 1)"/><path d="m39.4 55.95.45 1.05-.25 2.3q-7.3-13.4-18.05-11.05l.3.05h-.6l1-2q12.2-.85 17.15 9.65" fill="#f6e8ff" fill-rule="evenodd" transform="translate(1 1)"/><path d="M35.6 62.5q-.8-1.15-1.8-2 4.1.2 1.45-3.75-4.1-7.1-13.4-8.45 8.55-.15 13.65 6.2 4.3 10.65 2.35 11.55l-.15-.15q-.95-1.95-2.1-3.4m-19.9-8.4q4.55-.3 5.9 4.95 8.35-1.8 13.75 5.55l1.85 2.9.05.65q.35 1.55-1.15 1.3L36 67.7q-.15-.9-.6-1.4-3.75-5.55-9.3-6.3l-5.2.3q-.25-3.65-3.1-5.3l-2.1-.9" fill="#9c85b3" fill-rule="evenodd" transform="translate(1 1)"/><path d="M35.35 64.6q.65-.7.25-2.1 1.15 1.45 2.1 3.4-.6.55-.5 1.6l-1.85-2.9" fill="#aca0ac" fill-rule="evenodd" transform="translate(1 1)"/><path d="m23.5 64-.15.15-.5-.8q2.55-.6 3.15-2 4.55 1.05 9 5.35.3.95-.05 2.65-.7-2.15-1.85-3.5-1.5-1.8-3.75-2.3-2.05-.5-4.7 0l-1.1.45h-.05" fill="#3a1b00" fill-rule="evenodd" transform="translate(1 1)"/><path d="m11 55.2 1.95.15.45.05q1.45.4 2.35 1.25.3 1.45-1.05 3.2-3.75 1.45-6.05 5.7Q2.6 64.35 0 70.4q3.65-9.45 8.15-9.5 2.7.05 3.75-2 .35-1.65-.8-3.5l-.1-.2m-.45 23.3q-2.9-10.05 4.6-12.4 3.15-.75 2.8-3-.4-2.2-1.9-3l-1.15-.4 2.15-.15q1.65.05 3.05.95l.1.05q1.9 5.9-3.95 8.95-4.2 1.2-5.4 8.05-.2.5-.25 1.1l-.05-.15m13-14.5 1.1-.45q2.65-.5 4.7 0 7.45 8.2-3.65 11-3.6.85-4.15 5.3-2.15-7 1.55-8.35 2.95-1.45 3.65-3.5 1.05-3.15-3.2-4" fill="#e5beaf" fill-rule="evenodd" transform="translate(1 1)"/><path d="M29.35 63.55q2.25.5 3.75 2.3 3.85 8.3-6.8 10.85-4.15.8-4.8 3.6l.05-.45q.55-4.45 4.15-5.3 11.1-2.8 3.65-11" fill="#a1847c" fill-rule="evenodd" transform="translate(1 1)"/><path d="M26 61.35q.25-.6.1-1.35 5.55.75 9.3 6.3.45.5.6 1.4l-1-1q-4.45-4.3-9-5.35" fill="#2b1100" fill-rule="evenodd" transform="translate(1 1)"/><path d="M18.05 56.6 17.8 55q2.85 1.65 3.1 5.3l5.2-.3q.15.75-.1 1.35l-4.95-.15-.85-.65-.1-.05q-.55-2.15-2.05-3.9" fill="#401e02" fill-rule="evenodd" transform="translate(1 1)"/><path d="M35.6 62.5q.4 1.4-.25 2.1-5.4-7.35-13.75-5.55-1.35-5.25-5.9-4.95l-.45-.1q.45-1.65 2.05-1.9 4.25.85 5.15 6.05Q29.3 56.5 33.8 60.5q1 .85 1.8 2" fill="#f5e7fe" fill-rule="evenodd" transform="translate(1 1)"/><path d="M33.8 60.5q-4.5-4-11.35-2.35-.9-5.2-5.15-6.05 1.6-2.75 3.95-3.8h.6q9.3 1.35 13.4 8.45 2.65 3.95-1.45 3.75" fill="#dfbffe" fill-rule="evenodd" transform="translate(1 1)"/><path d="M21.5 82.65q-4-3.15-4.2-8.85l.2-.9q1.75-6.8 5.85-8.75l.15-.15q1.1.6.6 1.55 1.6 2.2 0 3.6-1.65 1.3-3.15-1.15-2.7 6.15.45 12.65-.1.9.1 2m-10.9-3.9q-3.8-4.7-3.1-10.65l.5-1.2.65-1.35q2.3-4.25 6.05-5.7l.2-.15 1.15.4-.4 1.05q1.7 1.5.35 3.55-2.5.9-3.2-1.3-5.8 4.45-2.25 15.1l.05.15v.1M0 70.4q1.55-15.25 11-15.2l.1.2q.1.7-.8 1.25 1.1 2.75-.8 3.4-2.15.45-2.4-2.05Q2.2 61.15 0 70.4" fill="#fff" fill-rule="evenodd" transform="translate(1 1)"/><path d="M13.4 55.4q.35-1.1 1.4-1.35 1.95 1.15 3.25 2.55-.15 1.35-1.45 1.2l-.85-1.15q-.9-.85-2.35-1.25" fill="#bc6601" fill-rule="evenodd" transform="translate(1 1)"/><path d="m15.25 54 .45.1 2.1.9.25 1.6q-1.3-1.4-3.25-2.55l.45-.05" fill="#562900" fill-rule="evenodd" transform="translate(1 1)"/><path d="m20.2 60.55.85.65 1.8 2.15.5.8q-4.1 1.95-5.85 8.75-5.6.3-6.65 4.65 1.2-6.85 5.4-8.05 5.85-3.05 3.95-8.95" fill="#a1857a" fill-rule="evenodd" transform="translate(1 1)"/><path d="M16.6 57.8q1.3.15 1.45-1.2 1.5 1.75 2.05 3.9-1.4-.9-3.05-.95-.05-1-.45-1.75m4.45 3.4 4.95.15q-.6 1.4-3.15 2l-1.8-2.15" fill="#5c2b03" fill-rule="evenodd" transform="translate(1 1)"/><path d="m15.75 56.65.85 1.15q.4.75.45 1.75l-2.15.15-.2.15q1.35-1.75 1.05-3.2m-7.1 8.9L8 66.9q-4.9-1.65-8 3.5 2.6-6.05 8.65-4.85" fill="#a18579" fill-rule="evenodd" transform="translate(1 1)"/><path d="M10.55 78.5Q7 67.85 12.8 63.4q.7 2.2 3.2 1.3 1.35-2.05-.35-3.55l.4-1.05q1.5.8 1.9 3 .35 2.25-2.8 3-7.5 2.35-4.6 12.4m.55-23.1q1.15 1.85.8 3.5-1.05 2.05-3.75 2-4.5.05-8.15 9.5Q2.2 61.15 7.1 58q.25 2.5 2.4 2.05 1.9-.65.8-3.4.9-.55.8-1.25" fill="#fcebe4" fill-rule="evenodd" transform="translate(1 1)"/><path d="M23.5 64h.05q4.25.85 3.2 4-.7 2.05-3.65 3.5-3.7 1.35-1.55 8.35l-.05.45-.1.35q-3.15-6.5-.45-12.65 1.5 2.45 3.15 1.15 1.6-1.4 0-3.6.5-.95-.6-1.55" fill="#faebe6" fill-rule="evenodd" transform="translate(1 1)"/><path d="M41.3 59.2q5.5-13 1.3-14.5t-4.2-7.75m-1.45 34.4-.5.95m-24.7 7.6-.15-.1m2.8-23.4q.35-1.1 1.4-1.35l.45-.05m7-7.7q1.45-2.45 4.25-4.75" fill="none" stroke="#371700" stroke-linecap="round" stroke-linejoin="round" stroke-width="2"/><path d="m12.95 55.35.45.05q1.45.4 2.35 1.25l.85 1.15q.4.75.45 1.75 1.65.05 3.05.95l.1.05.85.65 1.8 2.15.5.8q-4.1 1.95-5.85 8.75l-.2.9m-2.4-14.1-.2.15q-3.75 1.45-6.05 5.7L8 66.9l-.5 1.2m7.4-8.4 2.15-.15m6.3 4.6.15-.15h.05l1.1-.45q2.65-.5 4.7 0 2.25.5 3.75 2.3 1.15 1.35 1.85 3.5l.5 1.95" fill="none" stroke="#40302f" stroke-linecap="round" stroke-linejoin="round" transform="translate(1 1)"/><path d="M36.45 72.3q-3.35 5.6-8.25 6.35-3.75.75-5.7 5-4-3.15-4.2-8.85-3.9.05-6.55 5.1m-.15-.15q-3.8-4.7-3.1-10.65-4.25-1.5-7.5 2.3 1.55-15.25 11-15.2l1.95.15" fill="none" stroke="#40302f" stroke-linecap="round" stroke-linejoin="round" stroke-width="2"/><path d="m39.4 55.95.45 1.05.45 1.2m-4.7 4.3q-.8-1.15-1.8-2-4.5-4-11.35-2.35-.9-5.2-5.15-6.05M15.25 54l.45.1 2.1.9q2.85 1.65 3.1 5.3l5.2-.3q5.55.75 9.3 6.3.45.5.6 1.4l.1 1.75-.15.9m1.75-4.45q-.95-1.95-2.1-3.4m3.5-1.8.55 1.45M21.85 48.3q8.55-.15 13.65 6.2 2.05 2.55 3.6 6.2M21.25 48.3h.6m16 17.75L38.7 68m-1-2.1.15.15M22.25 46.3q12.2-.85 17.15 9.65" fill="none" stroke="#573f7c" stroke-linecap="round" stroke-linejoin="round" transform="translate(1 1)"/><path d="M18.3 53.1q-1.6.25-2.05 1.9m24.4 8.15q1.95-2.1.65-3.95m-.65 3.95.05.15q.35 3.15-1 5.7.45 3.65-2.75 2.35M18.3 53.1q1.6-2.75 3.95-3.8l1-2" fill="none" stroke="#573f7c" stroke-linecap="round" stroke-linejoin="round" stroke-width="2"/><path d="M13 12.4q2.6-3.3 5.6-6.3l2.9-2.95Q17.15 8 14.25 12.4l.3-.05Q12.5 15 10.75 19.2l-.3.75-.1.2.2-.1q2.4-1.55 6 .5 3.05 1.7 3.3 5.15.1 1.45-.35 3.3-2.9 4.55-9.15 3.15 4 8.1 12.9 13.15Q-.3 35 8.8 18.7l-.3-.25q2.05-3.1 4.5-6.05-2.55 3.35-4.2 6.3 1.65-2.95 4.2-6.3" fill="#ffbf5d" fill-rule="evenodd" transform="translate(1 1)"/><path d="M23.25 45.3q-8.9-5.05-12.9-13.15 6.25 1.4 9.15-3.15.45-1.85.35-3.3-.25-3.45-3.3-5.15-3.6-2.05-6-.5l-.2.1.1-.2.3-.75q1.75-4.2 3.8-6.85l-.3.05q2.9-4.4 7.25-9.25L24.75 0Q35.9.45 42.9 2.15q.6 5.15 2.6 8.25.1-3.45 2.3-6.7.8.25 1.55.65 1.2 1.65 3 2 5.5 5.05-1.8 14Q48.4 23 46 24.85l-5.15-.35.25.7q-5.15-.2-8.95 4-1.5 1.6-2.8 3.75-2.55 7.35 2.6 11.6l.05.05q-3.95 1.55-8.75.7" fill="#de8801" fill-rule="evenodd" transform="translate(1 1)"/><path d="M42.9 2.15q2.75.65 4.9 1.55-2.2 3.25-2.3 6.7-2-3.1-2.6-8.25m6.45 2.2q1.8.95 3 2-1.8-.35-3-2" fill="#9b5e01" fill-rule="evenodd" transform="translate(1 1)"/><path d="M46 24.85q-1.95 1.55-4.05 2.5l.95 3-1-.35q-4.15-1.3-8 1.1-2.3 3.1.9 8.6-1.3-1.15-1 3.6-2.65.3-1.85 1.25-5.15-4.25-2.6-11.6 1.3-2.15 2.8-3.75 3.8-4.2 8.95-4l-.25-.7 5.15.35" fill="#bc6601" fill-rule="evenodd" transform="translate(1 1)"/><path d="m42.9 30.35.05.2q-6.65 2.8-4.2 11l-.7.65q-5-6.8 3.85-12.2l1 .35" fill="#05fde5" fill-rule="evenodd" transform="translate(1 1)"/><path d="M34.8 39.7q-3.2-5.5-.9-8.6 3.85-2.4 8-1.1-8.85 5.4-3.85 12.2-1.6-.1-3.25-2.5" fill="#834701" fill-rule="evenodd" transform="translate(1 1)"/><path d="M38.05 42.2q-2.3 2.25-4.9 3.2-4.45 1.65-9.9-.1 4.8.85 8.75-.7l-.05-.05q-.8-.95 1.85-1.25-.3-4.75 1-3.6 1.65 2.4 3.25 2.5" fill="#391b01" fill-rule="evenodd" transform="translate(1 1)"/><path d="M14 13.4q-2.55 3.35-4.2 6.3Q.7 36 24.25 46.3m19.7-14.75q-6.65 2.8-4.2 11" fill="none" stroke="#371901" stroke-linecap="round" stroke-linejoin="round" stroke-width="2"/><path d="M22.5 4.15 19.6 7.1q-3 3-5.6 6.3m8.5-9.25L25.75 1" fill="none" stroke="#391902" stroke-linecap="round" stroke-linejoin="round" stroke-width="2"/></g><g id="i"><path d="m24.5.1 8.95.25q.3 5.55 1.1 10.55L24.4 20.6v-.05Q26 11.2 24.5.1" fill="#814600" fill-rule="evenodd" transform="translate(1 1)"/><path d="M13.7 2.15Q19 .5 24.5.1q1.5 11.1-.1 20.45l-.75-1.6Q20.65 21 17.2 22q.05-8.35-3.5-19.85" fill="#a18f8b" fill-rule="evenodd" transform="translate(1 1)"/><path d="M6.25 22.75q1.1-7-.25-17.45 3.8-1.9 7.7-3.15 3.55 11.5 3.5 19.85-4.55 1.35-10.05.85l-.9-.1" fill="#afa4a0" fill-rule="evenodd" transform="translate(1 1)"/><path d="M3.35 31q2.1-3.3 2.9-8.25l.9.1v.8q3.55-1.45 5.3 1.35 1.3 3.45-.6 6.5-4.3 3.75-6.25-.95-1.25 1.7-2.3 1.25l.05-.8" fill="#fff" fill-rule="evenodd" transform="translate(1 1)"/><path d="M17.2 22q-.05 7.8-3.2 12.95-6.5 5.75-10.5 1-.4-1.85-.2-4.15 1.05.45 2.3-1.25 1.95 4.7 6.25.95 1.9-3.05.6-6.5-1.75-2.8-5.3-1.35v-.8q5.5.5 10.05-.85" fill="#fcebe4" fill-rule="evenodd" transform="translate(1 1)"/><path d="M24.4 20.55v.05q-1.3 7.55-4.65 13.95l-.05.15q-6.05 8.25-11.8 6.55-3.6-1.1-4.4-5.3 4 4.75 10.5-1Q17.15 29.8 17.2 22q3.45-1 6.45-3.05l.75 1.6" fill="#e6cfc7" fill-rule="evenodd" transform="translate(1 1)"/><path d="M34.55 10.9q2.75 17.9 12.1 29.35l-6.4 1.4q-3.35-1.8-8.7-3.25-3.85-.85-4.85-3.85-2.3 2.55-2.8 8.2-2.2-3.3-4.15-8.2 3.35-6.4 4.65-13.95l10.15-9.7" fill="#9b5e01" fill-rule="evenodd" transform="translate(1 1)"/><path d="M40.25 41.65Q3.95 48.85 0 34.45 1.95 33.1 3.35 31l-.05.8q-.2 2.3.2 4.15.8 4.2 4.4 5.3 5.75 1.7 11.8-6.55l.05-.15q1.95 4.9 4.15 8.2.5-5.65 2.8-8.2 1 3 4.85 3.85 5.35 1.45 8.7 3.25" fill="#de8801" fill-rule="evenodd" transform="translate(1 1)"/><path d="M24.5.1q1.5 11.1-.1 20.45v.05q-1.3 7.55-4.65 13.95l-.05.15q-6.05 8.25-11.8 6.55-3.6-1.1-4.4-5.3-.4-1.85-.2-4.15l.05-.8" fill="none" stroke="#361907" stroke-linecap="round" stroke-linejoin="round" transform="translate(1 1)"/><path d="m25.5 1.1 8.95.25q.3 5.55 1.1 10.55 2.75 17.9 12.1 29.35M1 35.45Q2.95 34.1 4.35 32q2.1-3.3 2.9-8.25 1.1-7-.25-17.45 3.8-1.9 7.7-3.15Q20 1.5 25.5 1.1" fill="none" stroke="#361907" stroke-linecap="round" stroke-linejoin="round" stroke-width="2"/></g><g id="j"><path d="M6.4 9.1q1.25 1.8-1.2 2.6Q1.4 14.2.05 19q-.25-2.55.65-4.8 1.95-2.55 3.8-4 .6 1.05 1.5.45.6-.35-.1-1.55h.5" fill="#fbece7" fill-rule="evenodd" transform="translate(1 1)"/><path d="M.05 19q1.35-4.8 5.15-7.3 2.45-.8 1.2-2.6h1.2q.7 3.1-.05 5.05l-.4-.25-.4-.15Q2.1 15.4.05 19m11.3-11.5-.1-.35Q5.05 7.05 1.4 11q3.05-6.75 9.65-7.8 2.8.1 3.8-1.95-.7 4.1-3.5 6.25M2.7 29.35q.55-5.8 2.8-9.6.9-.9 1.25-1.75.7 1.25.85 3.05-3.65 2.75-4.9 8.3" fill="#e5beaf" fill-rule="evenodd" transform="translate(1 1)"/><path d="M5.9 9.1q.7 1.2.1 1.55-.9.6-1.5-.45-1.85 1.45-3.8 4 1.1-2.65 3.75-4.9l.4-.2H5.9" fill="#fefefe" fill-rule="evenodd" transform="translate(1 1)"/><path d="M7.55 14.15q.75-1.95.05-5.05h.65q1.6 2.55.5 5.1l-.2.45-1-.5" fill="#a1857a" fill-rule="evenodd" transform="translate(1 1)"/><path d="M8.25 9.1H7.6q2-.65 2.7 0l.6.75q.4 5.05-2.15 4.35 1.1-2.55-.5-5.1" fill="#f6e6ff" fill-rule="evenodd" transform="translate(1 1)"/><path d="m10.9 9.85.2.35q.05.4.25.6.6 1.95-.35 4.65-1.3.95-2.6-.5l.15-.3.2-.45q2.55.7 2.15-4.35" fill="#ada2b3" fill-rule="evenodd" transform="translate(1 1)"/><path d="M13.3 11.65q.55.8.35 1.15l-1.1-1.6q-.85.05-1.2-.4-.2-.2-.25-.6l.05-1.4-.75-.9Q7.5 8 4.85 9.1l-.4.2q-1.6.65-3.05 1.7 3.65-3.95 9.85-3.85l.1.35.2 1.1v.05l-.4.15.4-.15q.2 1.6 1.25 2.45h.05l.45.55m-1.35 4.4q1.1.75.75 1l-2-1-.25.35-1.05.2-.2-.1q-1.05-.4-1.1-.9l.15-.5.15-.15-.15.15-2-.55Q2.9 16.1.05 19q2.05-3.6 6.7-5.25l.4.15.4.25 1 .5-.15.3q1.3 1.45 2.6.5l.95.6m.7 3.15q1.35.45 1.5.95l-2.6-.05q-.4 1.3-2.85 1.15-3.85 2.9-6 8.1 1.25-5.55 4.9-8.3l1.5-.95h.05v.8l-.45.35.45-.35q1.5-.25 2.35-2h.05v1.2-1.2l1.1.3m-5.5-5.3-.9.65.9-.65m5.65-2.8-.25.1.25-.1M11 15.45l-.3.6.3-.6" fill="#0cfae0" fill-rule="evenodd" transform="translate(1 1)"/><path d="M2.05 7.6Q5.7 1.8 12 1.3l2.85-.05q-1 2.05-3.8 1.95Q4.45 4.25 1.4 11q.15-1.9.65-3.4M3.65 18q.6-.95 1.55-1.65.95.6 1.55 1.65-.35.85-1.25 1.75-2.25 3.8-2.8 9.6l-.45-3.65q.4-2.8 1.3-4.9 1.85-.65.1-2.8" fill="#fcebe4" fill-rule="evenodd" transform="translate(1 1)"/><path d="M6.95 16.65q1.9 1.05 2.2 3.45H9.1l-1.5.95q-.15-1.8-.85-3.05.3-.7.2-1.35" fill="#a18579" fill-rule="evenodd" transform="translate(1 1)"/><path d="m5.65 16.05 1.3.6q.1.65-.2 1.35-.6-1.05-1.55-1.65l.45-.3" fill="#b0a39d" fill-rule="evenodd" transform="translate(1 1)"/><path d="M8.1 15.6q.05.5 1.1.9l.2.1q1.05 2.75-.25 3.5-.3-2.4-2.2-3.45l-1.3-.6.6-.4 1.85-.05" fill="#f6e7fe" fill-rule="evenodd" transform="translate(1 1)"/><path d="m13.65 12.8-.2.2q.1 1.1-.7.6.35 1.1-.8 2.45l-.95-.6q.95-2.7.35-4.65.35.45 1.2.4l1.1 1.6m-.95 4.25q.6.85-.35.95l.3 1.2-1.1-.3q-.25-1-1.1-2.5l.25-.35 2 1" fill="#9c85af" fill-rule="evenodd" transform="translate(1 1)"/><path d="m9.4 16.6 1.05-.2q.85 1.5 1.1 2.5h-.05q-.85 1.75-2.35 2v-.8q1.3-.75.25-3.5" fill="#a9a3b1" fill-rule="evenodd" transform="translate(1 1)"/><path d="M14.85 1.25 12 1.3q-6.3.5-9.95 6.3Q4.45.15 14.25 0l.6 1.25" fill="#fefefc" fill-rule="evenodd" transform="translate(1 1)"/><path d="M11.55 8.65V8.6l-.2-1.1q2.8-2.15 3.5-6.25l.6 1.25q-.35 3.7-3.1 5.65l-.8.5" fill="#a1847c" fill-rule="evenodd" transform="translate(1 1)"/><path d="M12.35 8.15q2.75-1.95 3.1-5.65l.1-.9q1.75 1.25 1.85 2.9-2.4 4.7-5.05 3.65" fill="#f7e8ff" fill-rule="evenodd" transform="translate(1 1)"/><path d="M18.2 6.15q-1.65 5.55-4.9 5.5l-.45-.55v-.05Q14.8 10 15.75 8.8q1.5-2 1.65-3.6l.8.95" fill="#9b85b3" fill-rule="evenodd" transform="translate(1 1)"/><path d="M12.8 11.1q-1.05-.85-1.25-2.45l.8-.5Q15 9.2 17.4 4.5v.7q-.15 1.6-1.65 3.6-.95 1.2-2.9 2.25l-.05.05" fill="#aca0b4" fill-rule="evenodd" transform="translate(1 1)"/><path d="M18.2 6.15q3.7 4.7 9 6.05l.4 3.9q-3.2 4.95-8.2 5.5-2.8-1.2-5.25-1.45-.15-.5-1.5-.95l-.3-1.2q.95-.1.35-.95.35-.25-.75-1 1.15-1.35.8-2.45.8.5.7-.6l.2-.2q.2-.35-.35-1.15 3.25.05 4.9-5.5" fill="#dfbffe" fill-rule="evenodd" transform="translate(1 1)"/><path d="M19.4 21.6q5-.55 8.2-5.5.05 8.3-7.7 5.75l-.5-.25" fill="#9f85b4" fill-rule="evenodd" transform="translate(1 1)"/><path d="M3.65 18q1.75 2.15-.1 2.8-.9 2.1-1.3 4.9-.35-5.05 1.4-7.7" fill="#fff" fill-rule="evenodd" transform="translate(1 1)"/><path d="m10.4 7.9.75.9.4-.15.8-.5q2.75-1.95 3.1-5.65M7.6 9.1q2-.65 2.7 0l.6.75.2.35.05-1.4m-.05 1.4q.05.4.25.6.35.45 1.2.4l.25-.1.05-.05Q14.8 10 15.75 8.8q1.5-2 1.65-3.6m-9 9.75-.15.15-.15.5q.05.5 1.1.9l.2.1 1.05-.2.25-.35.3-.6q.95-2.7.35-4.65M8.4 14.95l.15-.3.2-.45q1.1-2.55-.5-5.1m-2.6 6.95 1.3.6q1.9 1.05 2.2 3.45v.8l-.45.35m2.85-2.35q-.25-1-1.1-2.5m1.1 2.5v1.2m-.85-4.05 2 1m-.15-5.85 1.1 1.6" fill="none" stroke="#573f7c" stroke-linecap="round" stroke-linejoin="round" transform="translate(1 1)"/><path d="m28.6 17.1-.4-3.9q-5.3-1.35-9-6.05l-.8-.95v-.7q-.1-1.65-1.85-2.9l-.1.9m-1.3 17.65q2.45.25 5.25 1.45l.5.25q7.75 2.55 7.7-5.75m-19.5-.5-1.85.05-.6.4m8.5 4.1-2.6-.05q-.4 1.3-2.85 1.15" fill="none" stroke="#573f7c" stroke-linecap="round" stroke-linejoin="round" stroke-width="2"/><path d="M7.6 9.1H4.85Q7.5 8 10.4 7.9m-4.15 6.65.9-.65m-2.3-4.8-.4.2m3.8-.2H7.6" fill="none" stroke="#40302f" stroke-linecap="round" stroke-linejoin="round" transform="translate(1 1)"/><path d="M1.7 15.2q-.9 2.25-.65 4.8 2.85-2.9 6.2-4.45l2 .55m-3.8-5.8Q2.8 12.55 1.7 15.2m.7-3.2q1.45-1.05 3.05-1.7m11-6.8-.6-1.25-.6-1.25q-9.8.15-12.2 7.6-.5 1.5-.65 3.4m3.8 5.35q-.95.7-1.55 1.65-1.75 2.65-1.4 7.7l.45 3.65q2.15-5.2 6-8.1m-3.5-4.9.45-.3" fill="none" stroke="#40302f" stroke-linecap="round" stroke-linejoin="round" stroke-width="2"/></g><g id="k"><path d="M83.55 50.55q2.15-.1 3 .55-2 4.85-5.95 8.6l-1.25-.4-2.4-.1q4.15-3.95 6.6-8.65m-14.15-7.8q4.4-.55 6.35 2.7-13.2 1.3-20.85 9.15-1.2-1.25-1.05-3.65l-.05-.15q4.15-4.35 10.15-6.55l.1-.05.2-.05q2.45-.9 5.15-1.4m4.45 17.95-.55.6q-1.8 1.9-2.7 4.05-4.2-3.45-8.95-2.2l-.5.2q-1.1.3-2.1.9-2.8-.85-1.1-4.2L58 60q7.55 2.15 16.1.55l-.25.15" fill="#f6e6ff" fill-rule="evenodd" transform="translate(.55 1)"/><path d="M96.1 57.1q4.25 2.6 6 9.05 1.85 7.2-2.85 13.6 3.2-8-1.05-17.55-1.55 3.15-3.9.85-1.95-3.1 1.3-4.6.05-1.3.5-1.35m-15 28.1q-5.95-2.4-8.75-7.25l-.65-1.15q-2.75-5.3-1.65-9.8 1.2-1.05 1.7 1.25 3.75-1.65 4 2.2-.65 3.8-4 2.15 3.05 6.65 9.35 12.6m-14.4 2.05q-2.85-1.3-5.25-3.2Q59 82.1 57.1 79.6q-1.9-2.45-2.35-5.8-.35-2.85.65-5.65.9 0 1.15 1.5 2.85-.8 3.2 3.4-.9 3-3.9 1.25 2.6 6.85 10.85 12.95" fill="#fff" fill-rule="evenodd" transform="translate(.55 1)"/><path d="M94.5 56.25q.8.35 1.6.85-.45.05-.5 1.35-3.25 1.5-1.3 4.6 2.35 2.3 3.9-.85 4.25 9.55 1.05 17.55-.1-1.5-.55-2.8 1.8-8.45-4-11.2-7.25-4.8-.2-9.5m-13 29.15-.4-.2q-6.3-5.95-9.35-12.6 3.35 1.65 4-2.15-.25-3.85-4-2.2-.5-2.3-1.7-1.25l.25-.9q8.7-3.25 8.65 5.7-2.35 7.15 3.15 11.25l-.6 2.35" fill="#fcebe4" fill-rule="evenodd" transform="translate(.55 1)"/><path d="m91.45 55.4 3.05.85q-7.05 4.7.2 9.5 5.8 2.75 4 11.2-1.65-4.7-7.85-7.45-7.25-4.75-1.95-13.35 1.15-.45 2.55-.75M56.6 66.35l1-1.35q.7-.45 1.45-.75 1-.6 2.1-.9l.5-.2Q68.9 64.8 65.7 73.4q-2.15 8 2.9 14.15l.25.4q-8.55-8.15-6.7-14.05 1.25-9.15-5.55-7.55m14-1q.9-2.15 2.7-4.05l.55-.6q13.4 1.55 8.25 22.35-5.5-4.1-3.15-11.25.05-8.95-8.65-5.7l.3-.75" fill="#e5beaf" fill-rule="evenodd" transform="translate(.55 1)"/><path d="m86.75 53.8 4.7 1.6q-1.4.3-2.55.75-4.35 1.7-4.75 5.9l-2.25-1.8q2.35-2.15 4.85-6.45M50.9 38.65l6.45-9.05q5.1 6.85 12.05 13.15-2.7.5-5.15 1.4l-.2.05-.1.05q-8.6 2.9-13.05-5.6" fill="#5c2b03" fill-rule="evenodd" transform="translate(.55 1)"/><path d="M84.15 62.05q.4-4.2 4.75-5.9-5.3 8.6 1.95 13.35 6.2 2.75 7.85 7.45.45 1.3.55 2.8-2-6.95-12-6.95 1-6.85-3.1-10.75m-13.55 3.3-.3.75-.25.9q-1.1 4.5 1.65 9.8-6.6 5.55-3.1 10.75-5.05-6.15-2.9-14.15 3.2-8.6-4.05-10.25 4.75-1.25 8.95 2.2" fill="#a1857a" fill-rule="evenodd" transform="translate(.55 1)"/><path d="m79.35 59.3 1.25.4 1 .4.3.15 2.25 1.8q4.1 3.9 3.1 10.75l-.15.95q-.1 5.6-4.7 12-.6-2.2 1.5-6.4 5.2-13.85-4.55-20.05" fill="#1af6dc" fill-rule="evenodd" transform="translate(.55 1)"/><path d="M99.25 79.75q-4.9-5.95-12.15-6l.15-.95q10 0 12 6.95" fill="#0cf9df" fill-rule="evenodd" transform="translate(.55 1)"/><path d="M80.6 59.7q3.95-3.75 5.95-8.6.95.8.2 2.7-2.5 4.3-4.85 6.45l-.3-.15-1-.4" fill="#9b819c" fill-rule="evenodd" transform="translate(.55 1)"/><path d="m77.55 47.2 5.3 2.95q-3.1 4.75-8.8 9.55l-15.9-.45-.8-2.05q6.4-8.2 20.2-10" fill="#dfbffe" fill-rule="evenodd" transform="translate(.55 1)"/><path d="m75.75 45.45.45.95 1.35.8q-13.8 1.8-20.2 10l-.9-1.6-.15-.1-1.4-.9q7.65-7.85 20.85-9.15M56.3 55.5q5.9-7.45 19.9-9.1-14 1.65-19.9 9.1" fill="#9e85af" fill-rule="evenodd" transform="translate(.55 1)"/><path d="M57.6 65q-3.1-2.5-.2-5.2l-1.6-3.6q-3.1-.1-2.55-4.8v-.25l-6.7-6.5.95-1.25q4.5 4.15 6.3 7.4l.05.15q-.15 2.4 1.05 3.65l1.4.9.15.1.9 1.6.8 2.05L58 60l-.05.05q-1.7 3.35 1.1 4.2-.75.3-1.45.75m-.2-5.2.6.2-.6-.2m-1.1-4.3-.5.7.5-.7m-2.5-4.7-.55.6.55-.6" fill="#2bedd3" fill-rule="evenodd" transform="translate(.55 1)"/><path d="m47.5 43.4 3.4-4.75q4.45 8.5 13.05 5.6-6 2.2-10.15 6.55-1.8-3.25-6.3-7.4" fill="#3a1a01" fill-rule="evenodd" transform="translate(.55 1)"/><path d="M83.55 50.55q-2.45 4.7-6.6 8.65-1.55.2-2.85 1.35-8.55 1.6-16.1-.55l.15-.75 15.9.45q5.7-4.8 8.8-9.55l.7.4" fill="#9c85b3" fill-rule="evenodd" transform="translate(.55 1)"/><path d="m69.1 88.1.05.25q-1.25-.75-2.45-1.1-8.25-6.1-10.85-12.95 3 1.75 3.9-1.25-.35-4.2-3.2-3.4-.25-1.5-1.15-1.5l1.2-1.8q6.8-1.6 5.55 7.55-1.85 5.9 6.7 14.05l.25.15" fill="#fdeae4" fill-rule="evenodd" transform="translate(.55 1)"/><path d="m76.95 59.2 2.4.1q9.75 6.2 4.55 20.05-2.1 4.2-1.5 6.4l-.9-.35.6-2.35q5.15-20.8-8.25-22.35l.25-.15q1.3-1.15 2.85-1.35" fill="#a2847a" fill-rule="evenodd" transform="translate(.55 1)"/><path d="M72.35 77.95q-4.9 3.1-3.25 10.15l-.25-.15-.25-.4q-3.5-5.2 3.1-10.75l.65 1.15" fill="#0ff7df" fill-rule="evenodd" transform="translate(.55 1)"/><path d="m82.05 86.4-.4-.2M53.8 52.4v-.25l-6.7-6.5M57.9 30.6q5.1 6.85 12.05 13.15" fill="none" stroke="#371700" stroke-linecap="round" stroke-linejoin="round" stroke-width="2"/><path d="m58 60-.6-.2" fill="none" stroke="#371700" stroke-linecap="round" stroke-linejoin="round" transform="translate(.55 1)"/><path d="m76.95 59.2 2.4.1 1.25.4 1 .4.3.15 2.25 1.8q.4-4.2 4.75-5.9 1.15-.45 2.55-.75m-17.6 5.3-.55.6q-1.8 1.9-2.7 4.05l-.3.75-.25.9q-1.1 4.5 1.65 9.8l.65 1.15m1.5-17.25.25-.15q1.3-1.15 2.85-1.35m-17.9 5.05q1-.6 2.1-.9m.5-.2q4.75-1.25 8.95 2.2m16.5 8.4.15-.95q1-6.85-3.1-10.75m-25.1 2.2q-.75.3-1.45.75" fill="none" stroke="#40302f" stroke-linecap="round" stroke-linejoin="round" transform="translate(.55 1)"/><path d="m87.3 54.8 4.7 1.6 3.05.85q.8.35 1.6.85 4.25 2.6 6 9.05 1.85 7.2-2.85 13.6-4.9-5.95-12.15-6-.1 5.6-4.7 12l-.9-.35m-.4-.2q-5.95-2.4-8.75-7.25-4.9 3.1-3.25 10.15l.05.25q-1.25-.75-2.45-1.1-2.85-1.3-5.25-3.2-2.45-1.95-4.35-4.45-1.9-2.45-2.35-5.8-.35-2.85.65-5.65l1.2-1.8 1-1.35" fill="none" stroke="#40302f" stroke-linecap="round" stroke-linejoin="round" stroke-width="2"/><path d="M87.1 52.1q-.85-.65-3-.55l-.7-.4-5.3-2.95-1.35-.8-.45-.95q-1.95-3.25-6.35-2.7M87.1 52.1q.95.8.2 2.7M58.15 66q-3.1-2.5-.2-5.2l-1.6-3.6q-3.1-.1-2.55-4.8" fill="none" stroke="#573f7c" stroke-linecap="round" stroke-linejoin="round" stroke-width="2"/><path d="M83.55 50.55q-2.45 4.7-6.6 8.65m9.8-5.4q-2.5 4.3-4.85 6.45M64.05 44.2l-.1.05q-6 2.2-10.15 6.55l-.55.6m16.15-8.65q-2.7.5-5.15 1.4m9.85 16.4Q65.55 62.15 58 60m-2.2-3.8.5-.7q5.9-7.45 19.9-9.1" fill="none" stroke="#573f7c" stroke-linecap="round" stroke-linejoin="round" transform="translate(.55 1)"/><path d="m47 9.95-1-.4-.4-.1.05-.3 1.35.8m-1.2 1.1 1.3.8q-.9.35-1.55.9l.25-1.7m-2.4 9.05 1.05 2.1q2.05 3.05 5.65 3.65 5.15.5 5.8-4.95 4.55 7.55 5.55 17.9-1.4 3.2-4.3 5.6.35-2.65-3.35-.95-7.05 4.75-18.5-2.15-3.7-3.15-6.35-8.1l-.4-.85L27.7 31l-4.25-4.05-1.25-.75q-2-1-4.5-1.55l.2-.3-2.45-.9q-9.95-3-15.4 2.6Q-.8 13.2 10.9 5.55L12.75 9q.25-4.05 1.6-5.5l2.5-1.2q.75 2 4.5 2.4Q27.1 5.75 32 9.6l-.05.65.3-.2q.25 2.15 2.75 2.4 2.75 4.85 1.25 11.75l-.25.6q-.45 1.45 2.05.95 3.35-1.3 5.35-5.65" fill="#de8801" fill-rule="evenodd" transform="translate(.55 1)"/><path d="m45.65 9.15-.05.3Q41.8 8.2 37.15 7.8q-2.55.9-4.9 2.25l-.3.2.05-.65q-4.9-3.85-10.65-4.9-3.75-.4-4.5-2.4 2.7-1.15 5.8-2.2L23 0q11.8 2.85 22.65 9.15" fill="#9a5f05" fill-rule="evenodd" transform="translate(.55 1)"/><path d="M.05 26.05q5.45-5.6 15.4-2.6l2.45.9-.2.3q-1.55 2.5-2.85 5.35-8.15-5.9-14.4-.7l-.4-3.25" fill="#bc6603" fill-rule="evenodd" transform="translate(.55 1)"/><path d="m45.6 9.45.4.1-.2 1.5-.5-.3Q41.45 8.7 37.15 7.8q4.65.4 8.45 1.65m-.05 3.3q-.8 4.35-2.15 7.35v-.05l-.3-1.55q-.4-3.1 1.6-5.05l.85-.7" fill="#b18440" fill-rule="evenodd" transform="translate(.55 1)"/><path d="M37.15 7.8q4.3.9 8.15 2.95l.5.3-.25 1.7-.85.7q-2 1.95-1.6 5.05l.3 1.55v.05q-2 4.35-5.35 5.65-2.5.5-2.05-.95l.25-.6q1.5-6.9-1.25-11.75-2.5-.25-2.75-2.4 2.35-1.35 4.9-2.25" fill="#97600d" fill-rule="evenodd" transform="translate(.55 1)"/><path d="m46 9.55 1 .4Q61.7 15.7 62.25 35.9l-.8 2.9q-1-10.35-5.55-17.9-.65 5.45-5.8 4.95-3.6-.6-5.65-3.65l-1.05-2.1q1.35-3 2.15-7.35.65-.55 1.55-.9l-1.3-.8.2-1.5" fill="#ffbf5d" fill-rule="evenodd" transform="translate(.55 1)"/><path d="M17.7 24.65q2.5.55 4.5 1.55l1.25.75L27.7 31l.85 1.35.4.85q2.65 4.95 6.35 8.1 11.45 6.9 18.5 2.15 3.7-1.7 3.35.95l-2.45 1.7q-16.6 4-31.9-8-3.35-4.6-8.05-8l.05-.05.05-.05q1.3-2.85 2.85-5.35" fill="#bc6601" fill-rule="evenodd" transform="translate(.55 1)"/><path d="m54.7 46.1-1.6.85q-17.15 4-29.4-7.55l-.9-1.3q15.3 12 31.9 8" fill="#05fde5" fill-rule="evenodd" transform="translate(.55 1)"/><path d="m47 9.95-1.35-.8" fill="none" stroke="#391902" stroke-linecap="round" stroke-linejoin="round" transform="translate(.55 1)"/><path d="m46.55 10.55 1 .4Q62.25 16.7 62.8 36.9M46.15 10.45l.4.1m7.1 37.4q-17.15 4-29.4-7.55l-.9-1.3q-3.35-4.6-8.05-8l.05-.05" fill="none" stroke="#371901" stroke-linecap="round" stroke-linejoin="round" stroke-width="2"/><path d="M15.4 31Q7.25 25.1 1 30.3m45.2-20.15Q35.35 3.85 23.55 1l-.35.1" fill="none" stroke="#391902" stroke-linecap="round" stroke-linejoin="round" stroke-width="2"/></g><g id="l"><path d="m6.6 0 2.2.55Q8.8 4.7 4.6 8l-3.5 2.2V8.85Q4.95 6.8 6.6 0M3.5 15.6q-1.8.35-3.5 1.1 3.75-2.65 4.5-7.85 1.3-.1 2.45-1.5 1.3-.75 2.4-.5l-.85.35 1.2.1q-2.4 1.7-2 4.45.75-1.25 2.8-1.85L8.85 12l2.4-2.25 1.95-.25q.35.9.95 1.4l-.2-1.45 2.55.05-1.4 1.55 2.75-1.65q-1.35 3.25-7.75 3.8-4.55-.3-6.6 2.4" fill="#ffed87" fill-rule="evenodd" transform="translate(.5 .5)"/><path d="m10.65.9 4.8.25L19 1q2.55 3.15 2.95 5.45-.75-1.4-2.1-1.3.5 2.25-2 4.25l-2.75 1.65 1.4-1.55q2.75-3.9-1.05-8.3-1.9 3.95-1.5 8.25l.2 1.45q-.6-.5-.95-1.4-.4-.95-.65-2.25l-1.3 2.5L8.85 12l1.65-2.1q1.55-2.3 1.1-4.25Q10.75 7 9.7 7.3l-1.2-.1.85-.35q1.7-1.25 1.3-5.95" fill="#fdb352" fill-rule="evenodd" transform="translate(.5 .5)"/><path d="M6.6 0Q4.95 6.8 1.1 8.85 1.4 2.2 6.6 0m3.25.8.8.1q.4 4.7-1.3 5.95-1.1-.25-2.4.5Q8.5 5.3 9.85.8M19 1l7.8-.9q3.05 6.1-2.95 12.5-.8-.55-1-1.5 2.4-2.55 1.45-5.6-.35-1.1-.65-.5.45 2.45-1 4.95-4.4 6.2-13.75 5.4l-5.4.25q2.05-2.7 6.6-2.4 6.4-.55 7.75-3.8 2.5-2 2-4.25 1.35-.1 2.1 1.3Q21.55 4.15 19 1m-7.75 8.75 1.3-2.5q.25 1.3.65 2.25l-1.95.25m2.7-.3q-.4-4.3 1.5-8.25 3.8 4.4 1.05 8.3l-2.55-.05m-3.45.45q-2.05.6-2.8 1.85Q7.3 9 9.7 7.3q1.05-.3 1.9-1.65.45 1.95-1.1 4.25" fill="#fed351" fill-rule="evenodd" transform="translate(.5 .5)"/><path d="m22.85 11.1-.2-1.15q1.45-2.5 1-4.95.3-.6.65.5.95 3.05-1.45 5.6" fill="#b69430" fill-rule="evenodd" transform="translate(.5 .5)"/><path d="M4.6 8Q8.8 4.7 8.8.55L9.85.8Q8.5 5.3 6.95 7.35 5.8 8.75 4.5 8.85L4.6 8" fill="#ac9545" fill-rule="evenodd" transform="translate(.5 .5)"/><path d="M8.8.55 6.6 0Q1.4 2.2 1.1 8.85v1.35L4.6 8Q8.8 4.7 8.8.55L9.85.8l.8.1 4.8.25L19 1l7.8-.9q3.05 6.1-2.95 12.5-.8-.55-1-1.5l-.2-1.15q-4.4 6.2-13.75 5.4l-5.4.25q-1.8.35-3.5 1.1 3.75-2.65 4.5-7.85L4.6 8m18.05 1.95q1.45-2.5 1-4.95" fill="none" stroke="#80552b" stroke-linecap="round" stroke-linejoin="round" transform="translate(.5 .5)"/></g><g id="m"><path d="m14 .4.95-.4q5.65 10.25 11.7 19.1l-1 .6-3.6-5.4-1.3-2.15-2.15-3.5L14 .4" fill="#12f8db" fill-rule="evenodd" transform="translate(1 1)"/><path d="m9.25 16 .7-4.6q.75-.55.85-1.3l2.65.75q1.05-.45 2.15-.45.55-.75 0-2.3l3 .55 2.15 3.5q-2.85-1.8-5.15-1.75-.55.7-2.15.45Q11 12.05 9.25 16" fill="#bc6601" fill-rule="evenodd" transform="translate(1 1)"/><path d="m8.85 17.65.4-1.65q1.75-3.95 4.2-5.15 1.6.25 2.15-.45 2.3-.05 5.15 1.75l1.3 2.15q-.6-.4-.7 2.15-1.1-2.1-1.15.75-2.55-4.75-3.4.05-1.5-2.95-1.8 0-2.3-5.75-3.25-1.3-1.15-1-1.3 1.5-.7-.95-1.6.2" fill="#de8801" fill-rule="evenodd" transform="translate(1 1)"/><path d="M9.95 11.4q.4-4.7-.35-9.2L14 .4l4.6 8.25-3-.55q.55 1.55 0 2.3-1.1 0-2.15.45l-2.65-.75q-.1.75-.85 1.3" fill="#824906" fill-rule="evenodd" transform="translate(1 1)"/><path d="M25.65 19.7Q16.7 24.3 8.1 20l.75-2.35q.9-1.15 1.6-.2.15-2.5 1.3-1.5.95-4.45 3.25 1.3.3-2.95 1.8 0 .85-4.8 3.4-.05.05-2.85 1.15-.75.1-2.55.7-2.15l3.6 5.4" fill="#5c2b03" fill-rule="evenodd" transform="translate(1 1)"/><path d="m15 1.4.95-.4q5.65 10.25 11.7 19.1l-1 .6Q17.7 25.3 9.1 21l.75-2.35.4-1.65.7-4.6q.4-4.7-.35-9.2L15 1.4z" fill="none" stroke="#311b03" stroke-linecap="round" stroke-linejoin="round" stroke-width="2"/><path d="M28.1 23.2q-.45-2.25.3-5.7l.05-.15q1.1-2.25 3.8-2.45l-.4.9q-.55 1.25-.75 2.35-1 1.1-.95 4.05.5 2.9-2.05 1m7.3 4.75-.3.15-.2.15-.2.05-.9 1.1q-1.65 0-1.9 2.95-.25 2.1-1.9 1.1-.65-4.7 2.5-6.6l.2-.05q1.8-.15 2.6.4.55.35.1.75" fill="#f6e6ff" fill-rule="evenodd" transform="translate(1 1)"/><path d="M34.15 14.65h.55q4.6 2.45 7.45 10.6-2.35-5.5-6.05-7.7-3 .7-1.95-2.9" fill="#fffffd" fill-rule="evenodd" transform="translate(1 1)"/><path d="M34.15 14.65q-1.05 3.6 1.95 2.9 3.7 2.2 6.05 7.7 1.15 3.5 2.1 8.2-4.65-10.6-9.2-14.1-2.35-.8-2.95-1.95.05-1.05.35-2.15.8-.5 1.7-.6" fill="#faebe4" fill-rule="evenodd" transform="translate(1 1)"/><path d="M31.1 18.15q.2-1.1.75-2.35l.6-.55q-.3 1.1-.35 2.15-.5 4.25 1.55 7.75-1.2-.7-2.15-1.85-.95-2.25-.4-5.15" fill="#846757" fill-rule="evenodd" transform="translate(1 1)"/><path d="M28.1 23.2q2.55 1.9 2.05-1-.05-2.95.95-4.05-.55 2.9.4 5.15l1.05 1.7q-.3 2.1-3.5.5-.65-.9-.95-2.3" fill="#aea1b2" fill-rule="evenodd" transform="translate(1 1)"/><path d="m28.5 26.75 1-.75-.45-.5q3.2 1.6 3.5-.5l-1.05-1.7q.95 1.15 2.15 1.85 1.05.65 2.45.75 4.45 1.6 8.2 7.95l.15.95q-3.05-5.45-7.65-7.6-1.95-.15-3.55-1.05 0 .45-.55.65h-.15l-.05.05-1.55.1-.7-.35-.75-.6.75.6q-2.65.95-5.25 3.2v-.05q1.35-1.6 3.5-3m4.75-.6-.15-.6-.55-.55.55.55.15.6m.85 9 .55-.15q4.55 1.05 8.15 9.95-2-4.55-6.65-8.25l-3.35-1.45-.1-1.55q.4 1.4 1.4 1.45m-1.3.1-.95.75-.4-.1q-.6-.15-1.15-1l-6.15-.75 4.3-.05 1.7-.05v.05l.15.8-.15-.8q1.35 1.95 2.65 1.15M29.25 56.5q.5-5.65-.2-9.95l-2.15-3.4q-1.7.45-1.85-2.25l-3.65-2.55q1.9.05 3.35 1.3l.65.65.1-.25q.2 2.4 1.45 3.05l.25-.5.65.6q4.15 4 1.4 13.3M26.9 43.15l.05-.05-.05.05m-1.85-2.25.35-.6-.35.6" fill="#19f5db" fill-rule="evenodd" transform="translate(1 1)"/><path d="m28.45 17.35-.05.15q-.75 3.45-.3 5.7.3 1.4.95 2.3l.45.5-1 .75q-2.8-2.15-1.65-8.3l1.6-1.1m4.05 9.5q-3.15 1.9-2.5 6.6l.15.6-1.7.05q-.4-1.8.2-3.7.9-2.3-3.65-.6 2.6-2.25 5.25-3.2l.7.35 1.55-.1M18.9 37l-1.85-.75q-6.9-3.15-7.7-4.9 1.5-.55 1.85-2.65v-1.65q-.35-7.35-7.3-7.7 1.55-.95 3.65-.5 5.2 3.4 4.7 9.05-.55 5.25 6.65 9.1m5.25-2.85 6.15.75q.55.85 1.15 1-3.05-.25-5.35 3.2l-.6.95-.1.25-.65-.65q3.1-4.35.25-4.55-1.6-.15-1.05-.8l.15-.15h.05" fill="#9d84ac" fill-rule="evenodd" transform="translate(1 1)"/><path d="M34.9 28.25q-1.55 3.45-.8 6.9-1-.05-1.4-1.45-.05-2.45 1.1-4.3l.9-1.1.2-.05" fill="#a3857d" fill-rule="evenodd" transform="translate(1 1)"/><path d="m35.4 27.95 1.2.6q-2.9 2.5.6 4.15 3.2 1.85 5.7 12.55l-.1-.3q-3.6-8.9-8.15-9.95l-.55.15q-.75-3.45.8-6.9l.2-.15.3-.15" fill="#e6bfb0" fill-rule="evenodd" transform="translate(1 1)"/><path d="M32.1 17.4q.6 1.15 2.95 1.95 4.55 3.5 9.2 14.1l.05.4q-3.75-6.35-8.2-7.95-1.4-.1-2.45-.75-2.05-3.5-1.55-7.75m2.5 22.05q-2.05.05-2.45 2.9.2 7.9-2.9 14.15 2.75-9.3-1.4-13.3 1.95-4.4 6.75-3.75M5.15 22.75q3.05 2.4 2.45 7.8-5.45 3.1-4.3 9.5-2.1-9.8.15-13 2.25-1.65 1.7-4.3" fill="#e5beaf" fill-rule="evenodd" transform="translate(1 1)"/><path d="m38.95 30.3 1.2 1.4q1.7 2.85 2.5 7.85-1.5-3.8-3.4-6.9-2.2-.9-.3-2.35" fill="#fdfffc" fill-rule="evenodd" transform="translate(1 1)"/><path d="M42.9 45.25q-2.5-10.7-5.7-12.55-3.5-1.65-.6-4.15l2.35 1.75q-1.9 1.45.3 2.35 1.9 3.1 3.4 6.9.45 2.95.25 5.7m-39.55-4.8q-1.65-3.2-2.5-6-.4-3.4.15-6.6 2.15-1.2.6-2.55 1.25-2.05.65-2.85l.75-.9q1.2.45 2.15 1.2.55 2.65-1.7 4.3-2.25 3.2-.15 13l.15.4h-.1" fill="#fcebe4" fill-rule="evenodd" transform="translate(1 1)"/><path d="M30 33.45q1.65 1 1.9-1.1.25-2.95 1.9-2.95-1.15 1.85-1.1 4.3l.1 1.55q-1.3.8-2.65-1.15v-.05l-.15-.6" fill="#aca1b2" fill-rule="evenodd" transform="translate(1 1)"/><path d="m31.85 36 1.1.3q1.45 1.85 1.1 2.25l-1.1-.1-1.45.3q-1.85-.75-3.75 1.3-2.05.95-1.65-.95 2.3-3.45 5.35-3.2l.4.1" fill="#f6e7fe" fill-rule="evenodd" transform="translate(1 1)"/><path d="m34.05 38.55.6.9h-.05q-4.8-.65-6.75 3.75l-.65-.6q1.4-3 4.3-3.85l1.45-.3 1.1.1" fill="#a28479" fill-rule="evenodd" transform="translate(1 1)"/><path d="M34.65 39.45 35 40q-3 .4-1.25 2.15.1 3.5-.85 8.6-1.45 3.3-3.65 5.75 3.1-6.25 2.9-14.15.4-2.85 2.45-2.9h.05" fill="#faebe6" fill-rule="evenodd" transform="translate(1 1)"/><path d="m35 40 .35.5q-.55 5.85-2.45 10.25.95-5.1.85-8.6Q32 40.4 35 40" fill="#fdfffe" fill-rule="evenodd" transform="translate(1 1)"/><path d="M26.85 18.45q-1.15 6.15 1.65 8.3-2.15 1.4-3.5 3l-.05.05H25q4.55-1.7 3.65.6-.6 1.9-.2 3.7l-4.3.05h-.05l-.15.15q-.55.65 1.05.8 2.85.2-.25 4.55-1.45-1.25-3.35-1.3-1.2-.8-2.5-1.35-7.2-3.85-6.65-9.1.5-5.65-4.7-9.05l1.6.5q12 2.3 17.7-.9" fill="#dfbffe" fill-rule="evenodd" transform="translate(1 1)"/><path d="M8.05 31.5h-.3l.55-.9.3-1.8q.4-3.7-1.05-5.6 1.2.3 1.8 3.05.95 1.75 1.85.8v.1Q9.8 30.6 8.05 31.5" fill="#ada0b2" fill-rule="evenodd" transform="translate(1 1)"/><path d="M17.05 36.25q-.85-.35-1.7-.55-4.8-1.25-6.7-4.2h-.6q1.75-.9 3.15-4.35v1.55q-.35 2.1-1.85 2.65.8 1.75 7.7 4.9M8.3 30.6q-4.7 2.45-4.85 9.85l-.15-.4q-1.15-6.4 4.3-9.5l1-1.75-.3 1.8m1.05.75-.7.15.7-.15" fill="#27eed9" fill-rule="evenodd" transform="translate(1 1)"/><path d="M3.45 21.1H2.2q.05-1.05 1.7-1.75 6.95.35 7.3 7.7-.9.95-1.85-.8-.6-2.75-1.8-3.05-1.35-1.75-4.1-2.1" fill="#f6e8ff" fill-rule="evenodd" transform="translate(1 1)"/><path d="m3 21.55.45-.45q2.75.35 4.1 2.1Q9 25.1 8.6 28.8l-1 1.75q.6-5.4-2.45-7.8Q4.2 22 3 21.55" fill="#a1867b" fill-rule="evenodd" transform="translate(1 1)"/><path d="M.85 34.45q-2.25-7.4 1.4-12 .6.8-.65 2.85 1.55 1.35-.6 2.55-.55 3.2-.15 6.6" fill="#fefefc" fill-rule="evenodd" transform="translate(1 1)"/><path d="m27.2 42.6-.25.5q-1.25-.65-1.45-3.05l.6-.95q-.4 1.9 1.65.95 1.9-2.05 3.75-1.3-2.9.85-4.3 3.85" fill="#aca1b1" fill-rule="evenodd" transform="translate(1 1)"/><path d="m28.45 17.35-.05.15q-.75 3.45-.3 5.7.3 1.4.95 2.3l.45.5.75.6.7.35 1.55-.1.05-.05h.15q.55-.2.55-.65l-.15-.6-.55-.55-1.05-1.7q-.95-2.25-.4-5.15.2-1.1.75-2.35l.4-.9m1.55 14.5.9-1.1.2-.05m-2.2-1.45-.2.05q-3.15 1.9-2.5 6.6l.15.6v.05l.15.8q.55.85 1.15 1l.4.1 1.1.3m.85-6.9q-1.15 1.85-1.1 4.3l.1 1.55-.95.75m-23.2-4.5h-.6m23.45 7.25 1.45-.3 1.1.1M27.2 42.6l-.25.5-.05.05M24.95 29.8H25q2.6-2.25 5.25-3.2m-6.1 7.55 6.15.75m-6.2-.75h.05m1.25 6.15.1-.25.6-.95q2.3-3.45 5.35-3.2m-6.05 4.4-.35.6m2.15 1.7q1.4-3 4.3-3.85m-20.3-11.7q-.35-7.35-7.3-7.7m7.3 7.8v1.55q-.35 2.1-1.85 2.65l-.7.15m2.55-4.45v.1M8.6 28.8q.4-3.7-1.05-5.6-1.35-1.75-4.1-2.1m5.15 7.7-.3 1.8" fill="none" stroke="#573f7c" stroke-linecap="round" stroke-linejoin="round" transform="translate(1 1)"/><path d="M34.7 14.65h-.55m-1.7.6-.6.55M44.3 33.85l-.05-.4m-1.45 11.5.1.3M3 21.55l.45-.45" fill="none" stroke="#371700" stroke-linecap="round" stroke-linejoin="round" transform="translate(1 1)"/><path d="M33.25 15.9q-2.7.2-3.8 2.45l-1.6 1.1q-5.7 3.2-17.7.9l-1.6-.5q-2.1-.45-3.65.5-1.65.7-1.7 1.75h1.25m31.95 6.85-.3.15m.3-.15q.45-.4-.1-.75-.8-.55-2.6-.4m.25 9.5q1.45 1.85 1.1 2.25m-7.15 4.6q-1.7.45-1.85-2.25l-3.65-2.55q-1.2-.8-2.5-1.35l-1.85-.75q-.85-.35-1.7-.55-4.8-1.25-6.7-4.2m-.6 0h-.3l.55-.9" fill="none" stroke="#573f7c" stroke-linecap="round" stroke-linejoin="round" stroke-width="2"/><path d="M35.15 15.65q-.9.1-1.7.6" fill="none" stroke="#54413d" stroke-linecap="round" stroke-linejoin="round" stroke-width="2"/><path d="M43.15 26.25q-2.85-8.15-7.45-10.6m9.55 18.8q-.95-4.7-2.1-8.2m-8.9.9q1.6.9 3.55 1.05 4.6 2.15 7.65 7.6l-.15-.95m-7.7-5.3-1.2-.6m1.2.6 2.35 1.75 1.2 1.4q1.7 2.85 2.5 7.85.45 2.95.25 5.7m-10.1-10 3.35 1.45q4.65 3.7 6.65 8.25m-8.75-6.4.6.9.35.55.35.5q-.55 5.85-2.45 10.25-1.45 3.3-3.65 5.75.5-5.65-.2-9.95l-2.15-3.4M9.3 31.6q-4.7 2.45-4.85 9.85v.1l-.1-.1q-1.65-3.2-2.5-6-2.25-7.4 1.4-12l.75-.9" fill="none" stroke="#40302f" stroke-linecap="round" stroke-linejoin="round" stroke-width="2"/></g><g id="s"><path d="m31.5 0-.9.35Q26.4 2 22.8 4.1q-3.5 1.95-6.5 4.4l-1.65 1.4.85-2.75q-4.05 2.2-.05-2.1Q21.2 2.55 31.3 0h.2" fill="#3a1a03" fill-rule="evenodd" transform="translate(1 1)"/><path d="m30.6.35.9-.35q1.25 4 .4 9.25L30.65 9q.35-3.35.3-5.8L30.6.35" fill="#29eed2" fill-rule="evenodd" transform="translate(1 1)"/><path d="M30.95 3.2q.05 2.45-.3 5.8-5.05-.85-9.35 0 5.8-2.15 6.15-4.4l-.15-.2q1.75-.7 3.65-1.2" fill="#3a1a01" fill-rule="evenodd" transform="translate(1 1)"/><path d="m30.6.35.35 2.85q-1.9.5-3.65 1.2-1-1.2-4.5-.3Q26.4 2 30.6.35" fill="#2b1100" fill-rule="evenodd" transform="translate(1 1)"/><path d="M16.3 8.5q3-2.45 6.5-4.4 3.5-.9 4.5.3-.95.35-1.85.85-3.1 1.5-6.15 3.65l.05-1.25-2.1 2.25-1.95.35 1-1.75" fill="#b4a65d" fill-rule="evenodd" transform="translate(1 1)"/><path d="M14.05 37.95 16.8 36l.85.8-2.95 2.15-.65-1m14.5-18.35-1 1.55-.8-.6.55-1 1.25.05m-5.3 7.8.9-1.4.9.25-1.3 2-.5-.85m-1.05 3-1.1 1.5-.4-3.05 1.5 1.55" fill="#12f8dc" fill-rule="evenodd" transform="translate(1 1)"/><path d="m27.3 19.55-.55 1-2.05-1.7q.9.5 2.6.7m-4.05 7.85L21.7 25l2.45 1-.9 1.4" fill="#975e05" fill-rule="evenodd" transform="translate(1 1)"/><path d="M31.3 0Q21.2 2.55 15.45 5.05L16 4.4q-1.55.6-1.35 0h-.1Q23.05 1.35 31.3 0" fill="#5b2a02" fill-rule="evenodd" transform="translate(1 1)"/><path d="M14.55 4.4h.1q-.2.6 1.35 0l-.55.65Q11.85 6.5 9.95 8l.55-1.15q.95-1.7.1-3.2L12.55 3q-1.1 1.8 1.75 1.5l.25-.1" fill="#febe5c" fill-rule="evenodd" transform="translate(1 1)"/><path d="m14.55 4.4-.25.1q-2.85.3-1.75-1.5Q21.9.2 31.3 0q-8.25 1.35-16.75 4.4" fill="#7d4f14" fill-rule="evenodd" transform="translate(1 1)"/><path d="M10.6 3.65q.85 1.5-.1 3.2L9.95 8Q7.8 9.7 7.7 11.25q-2.3-1.1-1.5-6l4.4-1.6" fill="#b58539" fill-rule="evenodd" transform="translate(1 1)"/><path d="m14.65 9.9 1.65-1.4-1 1.75 1.95-.35 2.1-2.25-.05 1.25-2.15 1.65-1.6 1.1L9 16q2.3-3.1 5.25-5.75l.4-.35" fill="#b09238" fill-rule="evenodd" transform="translate(1 1)"/><path d="M15.45 5.05q-4 4.3.05 2.1l-.85 2.75-.4.35q-4.2 1.85-6.25 1.2L9.95 8q1.9-1.5 5.5-2.95" fill="#de8801" fill-rule="evenodd" transform="translate(1 1)"/><path d="m7.7 11.25.3.2q-2.15 3.3-4.7 5.35L0 8.1q3.1-1.6 6.2-2.85-.8 4.9 1.5 6" fill="#834701" fill-rule="evenodd" transform="translate(1 1)"/><path d="m8 11.45-.3-.2Q7.8 9.7 9.95 8L8 11.45" fill="#a15d00" fill-rule="evenodd" transform="translate(1 1)"/><path d="M14.25 10.25Q11.3 12.9 9 16q-2 2.7-3.6 5.7l-2.1-4.9q2.55-2.05 4.7-5.35 2.05.65 6.25-1.2" fill="#bc6601" fill-rule="evenodd" transform="translate(1 1)"/><path d="m9 16 6.55-4.35-3.85 3.8-.3 4.25q3.5 3.15 4.75 8.15l-.45 3.55q-.2-6.25-3.55-9.45-.8 3.05.95 6.3Q14 33 16.8 36l-2.75 1.95Q9.3 30.3 5.4 21.7 7 18.7 9 16" fill="#b27d39" fill-rule="evenodd" transform="translate(1 1)"/><path d="m14.2 18.95 3.5-1.05q.45 1.1 1.5 2.25-3-.15-5-1.2" fill="#fed353" fill-rule="evenodd" transform="translate(1 1)"/><path d="M32.9 10.25Q33.75 5 32.5 1h-.2q-9.4.2-18.75 3l-1.95.65-4.4 1.6Q4.1 7.5 1 9.1m27.55 13.05 1-1.55m-3.5 6.65-1.3 2M23.2 31.4l-1.1 1.5m-3.45 4.9-2.95 2.15" fill="none" stroke="#341b07" stroke-linecap="round" stroke-linejoin="round" stroke-width="2"/><path d="m31.5 0-.9.35Q26.4 2 22.8 4.1q-3.5 1.95-6.5 4.4l-1.65 1.4-.4.35Q11.3 12.9 9 16q-2 2.7-3.6 5.7" fill="none" stroke="#341b07" stroke-linecap="round" stroke-linejoin="round" transform="translate(1 1)"/><path d="m28.3 20.55-.55 1m-3.5 6.85.9-1.4" fill="none" stroke="red" stroke-linecap="round" stroke-linejoin="round" stroke-width=".05"/><path d="m19.3 9-.15.25q-2.3 3.1-5.8 6.2l7.25-.35h.25q-1.7 1.15-5.25 2.1l2.1.7-3.5 1.05q2 1.05 5 1.2l1 .9q-2.8.3-6.2-.65 2.2 3.3 2.15 7.45-1.25-5-4.75-8.15l.3-4.25 3.85-3.8 1.6-1.1L19.3 8.9V9" fill="#fdb352" fill-rule="evenodd" transform="translate(1 1)"/><path d="m21.05 9.05-1.9.2.15-.25q3.1-1.25 6.15-3.75.9-.5 1.85-.85l.15.2Q27.1 6.85 21.3 9l-.25.05" fill="#f9d259" fill-rule="evenodd" transform="translate(1 1)"/><path d="m19.15 9.25 1.9-.2q-2.45 2.15-3.8 5 1.6.7 3.35 1.05l-7.25.35q3.5-3.1 5.8-6.2m1.7 5.85q7.05 1.15 17.2-4-2.6 3.9-8.2 5.1-4.55 1.3-6.65.7 2.2 1.85 8.85.85l.65 1-4.15.85-1.25-.05q-1.7-.2-2.6-.7-.55-.3-.95-.25-3.1-1.05-6.05-.7l-2.1-.7q3.55-.95 5.25-2.1m9.6 11.25q-1.85.95-5.4-.1l-.9-.25-2.45-1 .4.65-2.05-.75q1.8 4.2 4.9 7.3-.75-.15-2.75-1.8l-1.5-1.55.4 3.05q-.1 4.3-1.3 6.35l-2.15-1.45-.85-.8q.25-4.6-.65-8.15.05-4.15-2.15-7.45 3.4.95 6.2.65 3.2 2.8 10.25 5.3m-11-2.85L21.7 25l-2.25-1.5m-.1 1.1q.05 2.55 1.35 4.25-1.3-1.7-1.35-4.25" fill="#fed351" fill-rule="evenodd" transform="translate(1 1)"/><path d="M25.45 5.25Q22.4 7.75 19.3 9v-.1q3.05-2.15 6.15-3.65" fill="#ffea7a" fill-rule="evenodd" transform="translate(1 1)"/><path d="M21.05 9.05 21.3 9q4.3-.85 9.35 0l1.25.25q4.2.5 6.15 1.85-10.15 5.15-17.2 4l.25-.15-.5.15q-1.75-.35-3.35-1.05 1.35-2.85 3.8-5m-1.85 11.1Q18.15 19 17.7 17.9q2.95-.35 6.05.7.4-.05.95.25l2.85 2.3q3.25 2.55 2.9 5.2-7.05-2.5-10.25-5.3 2-.2 3.8-1.2l-4.8.3m2.9 5.5 1.65 2.6q1.6 2.3 1.2 3.95-3.1-3.1-4.9-7.3l2.05.75" fill="#ffec85" fill-rule="evenodd" transform="translate(1 1)"/><path d="m20.2 21.05-1-.9 4.8-.3q-1.8 1-3.8 1.2" fill="#f9b554" fill-rule="evenodd" transform="translate(1 1)"/><path d="M29.85 16.2q1.3.35 2.2 1.55-6.65 1-8.85-.85 2.1.6 6.65-.7" fill="#feed85" fill-rule="evenodd" transform="translate(1 1)"/><path d="M16.8 36q-2.8-3-3.7-7.75-1.75-3.25-.95-6.3 3.35 3.2 3.55 9.45l.45-3.55q.9 3.55.65 8.15" fill="#b1913a" fill-rule="evenodd" transform="translate(1 1)"/><path d="m19.15 9.25 1.9-.2.25-.05q5.8-2.15 6.15-4.4l-.15-.2q-1-1.2-4.5-.3m15.25 7Q36.1 9.75 31.9 9.25L30.65 9q-5.05-.85-9.35 0m9.15 17.35q-1.85.95-5.4-.1l-.9-.25-2.45-1 .4.65 1.65 2.6q1.6 2.3 1.2 3.95-.75-.15-2.75-1.8l-1.5-1.55.4 3.05q-.1 4.3-1.3 6.35l-2.15-1.45-.85-.8q-2.8-3-3.7-7.75m17.35-1.9q.35-2.65-2.9-5.2l-2.85-2.3q-.55-.3-.95-.25M21.7 25l-2.25-1.5m10.4-7.3q1.3.35 2.2 1.55l.65 1-4.15.85-1.25-.05q-1.7-.2-2.6-.7m5.15-2.65q5.6-1.2 8.2-5.1M23.2 16.9q2.1.6 6.65-.7M20.7 28.85q-1.3-1.7-1.35-4.25" fill="none" stroke="#80552b" stroke-linecap="round" stroke-linejoin="round" transform="translate(1 1)"/></g><g id="t"><path d="M7.8.1v.05L7.6 0q13.35 1.35 25.25 9.55l-2.3 4.5Q21.05 5.6 7.8.1" fill="#865006" fill-rule="evenodd" transform="translate(.5 1)"/><path d="m7.6 0 .2.15 3.3 2.55q-.05 1.45 1.2 2.6-2.8-2.4-5.15-2.4L7.6 0M3.7 15.35q3.7 1.25 6.95 1.15l-2.95.55q-2.2-.65-4-1.7" fill="#3b1b02" fill-rule="evenodd" transform="translate(.5 1)"/><path d="M7.8.15V.1q6.7 4.15 12.85 9.2-2.1-.1-3.8-1.6v1.85Q14.5 5.7 11.1 2.7L7.8.15" fill="#391900" fill-rule="evenodd" transform="translate(.5 1)"/><path d="M7.8.1q13.25 5.5 22.75 13.95l-1.4 2.75-5.55-5.1-2.95-2.4Q14.5 4.25 7.8.1" fill="#5c2b03" fill-rule="evenodd" transform="translate(.5 1)"/><path d="m13.75 17.2-2.95-.3 3-.85.5-.2 1.65-.95-6.05-.3q-1.55-.4-2.65-1.2 4.7 1.2 8.6-.15l.8-.35q-2.15-3.4-4.9-4.85 1.65.45 3.15 1.35l1.85 3.5q1.7 3.55 2.75 7.15-1.85 8.65-3.45 8.05-.6-3.45-.05-6.75l.65-2.85q-2.8 2.55-3.25 5.5-.2-1.65.35-3.3.4-1.2 1.3-2.35l.9-1.15h-2.2" fill="#fab454" fill-rule="evenodd" transform="translate(.5 1)"/><path d="M16.85 9.55V7.7q1.7 1.5 3.8 1.6l2.95 2.4-5.5.15-1.25-2.3" fill="#dc8802" fill-rule="evenodd" transform="translate(.5 1)"/><path d="M11.1 2.7q3.4 3 5.75 6.85l1.25 2.3.25.3q-1.7-1.6-3.45-2.75l-.85-1.5-1.3-1.95-.3-.45-.15-.2q-1.25-1.15-1.2-2.6" fill="#b0923a" fill-rule="evenodd" transform="translate(.5 1)"/><path d="m18.35 12.15-.25-.3 5.5-.15 5.55 5.1-6.5 11.65q-.9-9.4-4.3-16.3" fill="#ffbf5b" fill-rule="evenodd" transform="translate(.5 1)"/><path d="M13.75 17.2h2.2l-.9 1.15-4 .9q2-.85 2.7-2.05" fill="#fad457" fill-rule="evenodd" transform="translate(.5 1)"/><path d="M13.4 24q.45-2.95 3.25-5.5L16 21.35l-2.15 2.3-.4.35h-.05" fill="#fed353" fill-rule="evenodd" transform="translate(.5 1)"/><path d="m9.4 26.4 2.05-.95-1.25 2.15-.8-1.2m3.75 6.65-1.65-3.3 2.35-4.55q-1.35 4.5-.7 7.85" fill="#9a5f05" fill-rule="evenodd" transform="translate(.5 1)"/><path d="M14.9 9.4q1.75 1.15 3.45 2.75 3.4 6.9 4.3 16.3l-1.4 2.35q-.15-5.4-1.75-10.75-1.05-3.6-2.75-7.15L14.9 9.4" fill="#af7e3c" fill-rule="evenodd" transform="translate(.5 1)"/><path d="m7.6 0 .2.15 3.3 2.55q3.4 3 5.75 6.85l1.25 2.3.25.3q3.4 6.9 4.3 16.3M11.1 2.7q-.05 1.45 1.2 2.6" fill="none" stroke="#341b07" stroke-linecap="round" stroke-linejoin="round" transform="translate(.5 1)"/><path d="M33.35 10.55Q21.45 2.35 8.1 1l-.45 2.9M4.2 16.35q1.8 1.05 4 1.7m1.7 9.35.8 1.2m2.95 5.45L12 30.75" fill="none" stroke="#341b07" stroke-linecap="round" stroke-linejoin="round" stroke-width="2"/><path d="M6.3 3.4q.2-.35.85-.5 2.35 0 5.15 2.4l.15.2.3.45 1.3 1.95q-3.4-.95-7.75-4.5m9.55 9.85q-3.9 1.35-8.6.15 1.1.8 2.65 1.2-4.45.75-9.8-2.5 2.15-3.15 6.35-3.8l.35-.05 4 .7 1.15.6q2.15 1.3 3.9 3.7m-2.05 2.8-3 .85 2.95.3q-.7 1.2-2.7 2.05l4-.9q-.9 1.15-1.3 2.35Q10 24.9 6.3 27.2q-.75-3.9 1.4-7.1-3.75 0-5.1-.8 1.55-1.75 5.1-2.25l2.95-.55.7-.05 2.45-.4m-.4 8 .05-.05.4-.35-4.2 7.7q-.35-2.5.55-3.75l1.25-2.15q1.1-.6 1.95-1.4m-2.35-4.8-3.35.85 3.35-.85" fill="#ffec85" fill-rule="evenodd" transform="translate(.5 1)"/><path d="m14.05 7.9.85 1.5q-1.5-.9-3.15-1.35 2.75 1.45 4.9 4.85l-.8.35q-1.75-2.4-3.9-3.7l-1.15-.6.3.1q-2.15-.95-4.3-3.8Q5.6 4 6.3 3.4q4.35 3.55 7.75 4.5" fill="#ffd454" fill-rule="evenodd" transform="translate(.5 1)"/><path d="M6.8 8.25v-3q2.15 2.85 4.3 3.8l-.3-.1-4-.7" fill="#3b1b02" fill-rule="evenodd" transform="translate(.5 1)"/><path d="m9.9 14.6 6.05.3-1.65.95-.5.2-2.45.4-.7.05q-3.25.1-6.95-1.15Q1.65 14.1 0 12.2l.1-.1q5.35 3.25 9.8 2.5" fill="#fed351" fill-rule="evenodd" transform="translate(.5 1)"/><path d="M13.75 20.7q-.55 1.65-.35 3.3v.05q-.85.8-1.95 1.4l-2.05.95-.5.2-2.6.6q3.7-2.3 7.45-6.5m.1 2.95 2.15-2.3q-.55 3.3.05 6.75 1.6.6 3.45-8.05 1.6 5.35 1.75 10.75l-4.6 7.55q-1.6-1.75-3.5-5.3-.65-3.35.7-7.85l-2.35 4.55-1.85 1.6 4.2-7.7" fill="#fed353" fill-rule="evenodd" transform="translate(.5 1)"/><path d="M6.3 3.4q.2-.35.85-.5 2.35 0 5.15 2.4l.15.2.3.45m1.55 9.9-.5.2-2.45.4-.7.05q-3.25.1-6.95-1.15Q1.65 14.1 0 12.2l.1-.1q2.15-3.15 6.35-3.8m7.3 8.9q-.7 1.2-2.7 2.05l-3.35.85q-3.75 0-5.1-.8 1.55-1.75 5.1-2.25l2.95-.55m2.75 7.55.05-.05.4-.35 2.15-2.3m.65 17q-1.6-1.75-3.5-5.3-.65-3.35.7-7.85l-2.35 4.55-1.85 1.6q-.35-2.5.55-3.75l1.25-2.15-2.05.95-.5.2-2.6.6q-.75-3.9 1.4-7.1M6.8 8.25v-3Q5.6 4 6.3 3.4m7.1 20.65q-.85.8-1.95 1.4" fill="none" stroke="#80552b" stroke-linecap="round" stroke-linejoin="round" transform="translate(.5 1)"/></g><g id="p"><path d="M40.85 78q6.5-1.15 11.9-4.15-.5-1.2-.65-2.6 2.1 5.15 5 5.8l1 .1.3 1.45q-3.6-1.3-5.15-3.8-6.35 2.95-12.4 3.2m15.5-4.75q4.3 2.8 11.75 3.15-5.5.75-10.9-1.75l-.85-1.4m7.65-7.9q5.6 1.3 9.85.7l1.9-.4 1.25-.4 1 .6q-4.9 2.6-12.05.8-.95-.8-1.95-1.3M53.25 74.8l-.5-.95.5.95" fill="#22f1d5" fill-rule="evenodd" transform="translate(-9.1 .5)"/><path d="M73.85 66.05 70.3 64.9q1.75-.35 5.45.75l-1.9.4" fill="#febe5a" fill-rule="evenodd" transform="translate(-9.1 .5)"/><path d="m27.5 45 1.8 4-1.9-.9q-7.2-2.4-10.35 1.4-.3-5.05 1.9-8.95Q21.75 48 27.5 45m21-1.05.05-.1q2.55-5.7-1.95-4-1.65 1.45-2.7 0 2.3-4.55 5.75-7.1l7.7-1.95q8.6 9.75 5.75 25.7-4.8 12.4-18.95 17.85 1-3-1.6-7.2 7.2 3.1 13.25-2.35 3.35-6.75 2.05-12.4l-.4-1.35-1.65-3.35q-2.2-4.25-7.3-3.75M70.3 64.9q-2.75-1.1-4.65-2.65l2.25-.7.9.1q3.6.6 8.2 3.6l-1.25.4q-3.7-1.1-5.45-.75m-48.7 1.35q-4.2 3-9.8 3.3 1.45-1.3 3.55-2.55-.1-.25-1.65-.4 1.95-1.3 4.2-1.55l2.15-.05q.6.95 1.55 1.25" fill="#de8801" fill-rule="evenodd" transform="translate(-9.1 .5)"/><path d="m58 30.6-.65.2-7.7 1.95q-3.45 2.55-5.75 7.1 1.05 1.45 2.7 0 4.5-1.7 1.95 4l-.05.1q-2.95.3-6.8 2.1Q35.35 51.1 29.3 49l-1.8-4 1.2-.75q6.45-4.65-.5-15.75 3.2-1.75 7.3-3.15 14.45-.3 22.5 5.25" fill="#9c5f02" fill-rule="evenodd" transform="translate(-9.1 .5)"/><path d="m57.35 30.8.65-.2q3.1 2.15 5.3 5.25 4.7 12.35 2.05 23.5-1.85.85-2.8 2.25 1.05.25 3.1-1.05Q69 58.9 71.7 59.4q-1.65 1.35-4.8 2.1l1 .05-2.25.7q1.9 1.55 4.65 2.65l3.55 1.15q-4.25.6-9.85-.7-1.8-1-4-1.35 3.7 2.35 5.55 4.4-1.85-.7-3.8-.85.45 4.7 9.7 8.05l-3.35.8q-7.45-.35-11.75-3.15-1.3-1.6-3.2-2.6 3 3.65 3.95 6.4-2.9-.65-5-5.8.15 1.4.65 2.6-5.4 3-11.9 4.15h-.05q2.55-1.5 3.35-3.65Q58.3 68.9 63.1 56.5q2.85-15.95-5.75-25.7m6.1 31.55q1.55-.8 3.45-.85-1.9.05-3.45.85" fill="#bc6601" fill-rule="evenodd" transform="translate(-9.1 .5)"/><path d="M29.3 49q6.05 2.1 12.4-2.95 3.85-1.8 6.8-2.1-4.3 8.05-15 10.25-3.05-1.85-4.2-5.2" fill="#421e04" fill-rule="evenodd" transform="translate(-9.1 .5)"/><path d="M48.5 43.95q5.1-.5 7.3 3.75l1.65 3.35.4 1.35q1.3 5.65-2.05 12.4-6.05 5.45-13.25 2.35-1.25-.55-2.4-1.3l-.6-.35q-8.3-4.8-15.1.3l-1.75.5h-.1l-1-.05q-.95-.3-1.55-1.25l-.1-.15-.1-.2q-.4-.7-.55-1.8l-.1-.05q-2.75-6.05-3.45-11.25.5-1.2 1.3-2.05 3.15-3.8 10.35-1.4l1.9.9q1.15 3.35 4.2 5.2 10.7-2.2 15-10.25m-26.15 20.7q-1.45-1.3-3.05-1.8 1.6.5 3.05 1.8m-2.3.35 2.75.5-2.75-.5" fill="#5c2b03" fill-rule="evenodd" transform="translate(-9.1 .5)"/><path d="M42.55 67.15q2.6 4.2 1.6 7.2-4.85 1.85-10.8 2.9 1.7-7.65 6.2-11.75l.6.35q1.15.75 2.4 1.3" fill="#9b5e01" fill-rule="evenodd" transform="translate(-9.1 .5)"/><path d="m67.9 61.55-1-.05q3.15-.75 4.8-2.1l1.15-1.45h.45q-1.25 1.85-4.5 3.7l-.9-.1m-4.6-25.7q5.6 8.15 4.2 22.7l-2.15.8Q68 48.2 63.3 35.85" fill="#14f7dc" fill-rule="evenodd" transform="translate(-9.1 .5)"/><path d="M57.1 77.05q-.95-2.75-3.95-6.4 1.9 1 3.2 2.6l.85 1.4q.6 1.1.9 2.5l-1-.1m10.4-18.5 5.35-.6-1.15 1.45q-2.7-.5-6.05 1.15-2.05 1.3-3.1 1.05.95-1.4 2.8-2.25l2.15-.8" fill="#dc8804" fill-rule="evenodd" transform="translate(-9.1 .5)"/><path d="M65.55 68.4Q63.7 66.35 60 64q2.2.35 4 1.35 1 .5 1.95 1.3 1.45 1.3 2.6 3.3-1.5-1.05-3-1.55" fill="#da8808" fill-rule="evenodd" transform="translate(-9.1 .5)"/><path d="M61.75 67.55q1.95.15 3.8.85 1.5.5 3 1.55 2.4 1.6 4.55 4.4-9.1-1.75-11.35-6.8m-45.1 2.95q1.95-.55 4.3-1.7 1.15-.7 1.65-2.5h.1l1.75-.5q6.8-5.1 15.1-.3-4.5 4.1-6.2 11.75-3.95-1-7.75-3.15l.3-2-1.8-.8-.25-.15-.7 1.55L19 74.5q-.1-1.2 1.1-3.35 1.45-.5 3.05-1.6-4.05 1.45-6.5.95" fill="#df8902" fill-rule="evenodd" transform="translate(-9.1 .5)"/><path d="M28.2 28.5q6.95 11.1.5 15.75l-1.2.75q-5.75 3-8.55-4.45-2.2 3.9-1.9 8.95-.8.85-1.3 2.05Q13.55 36.4 28.2 28.5" fill="#ffbf5d" fill-rule="evenodd" transform="translate(-9.1 .5)"/><path d="M15.3 62.55q1.35 1.7 4.55 2.1l.1.2.1.15-2.15.05q-1.95-.25-3.75-2.2l1.15-.3" fill="#b86603" fill-rule="evenodd" transform="translate(-9.1 .5)"/><path d="m11.8 69.55-.95.95-.75-.35q1.6-2.25 3.6-3.55 1.55.15 1.65.4-2.1 1.25-3.55 2.55" fill="#f6bd6c" fill-rule="evenodd" transform="translate(-9.1 .5)"/><path d="m21.6 66.25 1 .05q-.5 1.8-1.65 2.5-2.35 1.15-4.3 1.7l-2.5.4-3.3-.4.95-.95q5.6-.3 9.8-3.3" fill="#bb6704" fill-rule="evenodd" transform="translate(-9.1 .5)"/><path d="m19.2 62.8.1.05q.15 1.1.55 1.8-3.2-.4-4.55-2.1l3.9.25" fill="#df8803" fill-rule="evenodd" transform="translate(-9.1 .5)"/><path d="m14.15 70.9 2.5-.4q2.45.5 6.5-.95-1.6 1.1-3.05 1.6l-.55.25q-2.9.8-5.4-.5" fill="#b6660d" fill-rule="evenodd" transform="translate(-9.1 .5)"/><path d="m24.1 71.3 1.8.8-.3 2-1.5 3.85-.6-1.25q.9-3.05.6-5.4" fill="#bd6702" fill-rule="evenodd" transform="translate(-9.1 .5)"/><path d="m23.85 71.15.25.15q.3 2.35-.6 5.4-.65-1.7-.4-3.85l.05-.15.7-1.55" fill="#dc8706" fill-rule="evenodd" transform="translate(-9.1 .5)"/><path d="m23.15 72.7-.05.15Q21 76.5 16.8 77.1q-.05-3.05 2.75-5.7l.55-.25Q18.9 73.3 19 74.5l4.15-1.8" fill="#bb6500" fill-rule="evenodd" transform="translate(-9.1 .5)"/><path d="M44.15 74.35q-.8 2.15-3.35 3.65h-.1l-7.35-.75q5.95-1.05 10.8-2.9" fill="#834701" fill-rule="evenodd" transform="translate(-9.1 .5)"/><path d="M71.45 75.6q-9.25-3.35-9.7-8.05Q64 72.6 73.1 74.35l.35.45-2 .8" fill="#febe5c" fill-rule="evenodd" transform="translate(-9.1 .5)"/><path d="M52.75 73.85q-.5-1.2-.65-2.6m1.05-.6q1.9 1 3.2 2.6l.85 1.4m4.55-7.1q1.95.15 3.8.85 1.5.5 3 1.55M60 64q2.2.35 4 1.35 1 .5 1.95 1.3m1.95-5.1-1-.05q-1.9.05-3.45.85M40.7 78h.1m32.05-20.05h.45m-.2 16.4.35.45m-59.3-3.9 2.5-.4q1.95-.55 4.3-1.7m4.95 3.3-.3 2m-2.45-1.4.7-1.55m-.75 1.7.05-.15m-3.05-1.55-.55.25m-.25-8.55-.1-.05m.1.05q1.6.5 3.05 1.8m-2.3.35-2.15.05m4.9.45-2.75-.5m3.1 4.55q-1.6 1.1-3.05 1.6m45.25-11.8q-1.85.85-2.8 2.25m4.95-3.05-2.15.8m3.45 2.3-.9-.1m-15.15 12.3.5.95" fill="none" stroke="#371901" stroke-linecap="round" stroke-linejoin="round" transform="translate(-9.1 .5)"/><path d="M48.9 31.1q-8.05-5.55-22.5-5.25-4.1 1.4-7.3 3.15Q4.45 36.9 6.65 52.05q.7 5.2 3.45 11.25l-3.9-.25-1.15.3q1.8 1.95 3.75 2.2-2.25.25-4.2 1.55-2 1.3-3.6 3.55l.75.35 3.3.4q2.5 1.3 5.4.5-2.8 2.65-2.75 5.7 4.2-.6 6.3-4.25-.25 2.15.4 3.85l.6 1.25 1.5-3.85q3.8 2.15 7.75 3.15l7.35.75m.1 0h.05q6.05-.25 12.4-3.2 1.55 2.5 5.15 3.8l-.3-1.45q-.3-1.4-.9-2.5 5.4 2.5 10.9 1.75l3.35-.8 2-.8M48.9 31.1q3.1 2.15 5.3 5.25 5.6 8.15 4.2 22.7l5.35-.6m.45 0q-1.25 1.85-4.5 3.7 3.6.6 8.2 3.6l1 .6q-4.9 2.6-12.05.8 1.45 1.3 2.6 3.3 2.4 1.6 4.55 4.4" fill="none" stroke="#371901" stroke-linecap="round" stroke-linejoin="round" stroke-width="2"/><path d="M36.6 63.25q1.9 4.25-1.15 5.95-1.5.75-2.8.85l-1 .05v-.8.8q-2.05-.15-3.7-1.8 1.75 1 3.7 1 1.9 0 3.25-1.1 1.45-1.1 1.45-2.7 0-1.55-1.45-2.7l-.3-.2 2 .65" fill="#afa4a0" fill-rule="evenodd" transform="translate(-9.1 .5)"/><path d="m34.6 62.6.3.2q1.45 1.15 1.45 2.7 0 1.6-1.45 2.7-1.35 1.1-3.25 1.1-1.95 0-3.7-1l-.05-.05q-1.7-1.1-1.45-2.9.15-1.2.75-2 .35-.5.95-.85 1.45-1 3.45-.9 1.75.15 3 1m-2.9.45q-.65-.55-1.6-.55-.95 0-1.7.5l-.45.25q-.45.4-.65 1.15-.35 1 .45 1.75.65.65 1.9.5 1.25-.15 2-.8.7-.65.7-1.45 0-.8-.65-1.35" fill="#3a1c04" fill-rule="evenodd" transform="translate(-9.1 .5)"/><path d="m36.6 63.25.75.35q4.45 4 2.7 8.95-1.05 4.5-7.7 4.5-5.8-1.3-7.8-4.25-.9-3.25 0-4.75 1.3 5.15 6.35 4.3.1.85 1.1.2 2.2 1.75 3.1.9.75-.7-.3-1.55-1.5-.9-2.15-1.85 1.3-.1 2.8-.85 3.05-1.7 1.15-5.95" fill="#fcebe4" fill-rule="evenodd" transform="translate(-9.1 .5)"/><path d="M31.7 63.05q.65.55.65 1.35t-.7 1.45q-.75.65-2 .8-1.25.15-1.9-.5-.8-.75-.45-1.75.2-.75.65-1.15l.45-.25q.75-.5 1.7-.5t1.6.55m-2.05 1-.25-.7-.7-.25q-.4 0-.7.25-.25.3-.25.7l.25.7.7.25.7-.25.25-.7" fill="#683204" fill-rule="evenodd" transform="translate(-9.1 .5)"/><path d="m29.65 64.05-.25.7-.7.25-.7-.25-.25-.7q0-.4.25-.7.3-.25.7-.25l.7.25.25.7" fill="#fff" fill-rule="evenodd" transform="translate(-9.1 .5)"/><path d="M32.65 70.05q.65.95 2.15 1.85 1.05.85.3 1.55-2.15-1.3-2.95-2.4-.4-.5-.5-.95.1.45.5.95l-1.2 1.3h-.05q-5.05.85-6.35-4.3-.9 1.5 0 4.75-.85-1.2-1-2.75.05-4.8 3.65-6.7-.6.8-.75 2-.25 1.8 1.45 2.9l.05.05q1.65 1.65 3.7 1.8l1-.05" fill="#fefefe" fill-rule="evenodd" transform="translate(-9.1 .5)"/><path d="M32.35 77.05q6.65 0 7.7-4.5 1.75-4.95-2.7-8.95 3.35 1.7 5.3 5.1 1.65 7-3.85 9.2l-6.45-.85" fill="#e6cfc7" fill-rule="evenodd" transform="translate(-9.1 .5)"/><path d="M35.1 73.45q-.9.85-3.1-.9-1 .65-1.1-.2h.05l1.2-1.3q.8 1.1 2.95 2.4" fill="#a19089" fill-rule="evenodd" transform="translate(-9.1 .5)"/><path d="m34.6 62.6.3.2q1.45 1.15 1.45 2.7 0 1.6-1.45 2.7-1.35 1.1-3.25 1.1v.8q.1.45.5.95.8 1.1 2.95 2.4m-7.9-10.1q.35-.5.95-.85 1.45-1 3.45-.9 1.75.15 3 1m-6.65 5.7-.05-.05q-1.7-1.1-1.45-2.9.15-1.2.75-2m4.45 5.95q-1.95 0-3.7-1m3 4.05 1.2-1.3" fill="none" stroke="#381a00" stroke-linecap="round" stroke-linejoin="round" transform="translate(-9.1 .5)"/><path d="m16.5 14.85-.55-2.05 9.25 8.6-.4 1.35-8.3-7.9m8.55 17.8-3.9-3.35-1.65-7.8q-.85-2.6.25-2L22 28.4l3.4 3.65-.35.6" fill="#9e869e" fill-rule="evenodd" transform="translate(-9.1 .5)"/><path d="m48.85 31.55.15.55-6.4 5.15q-1.15 3.25.4 5.15 2.15 1.05 4.65-1.15-2.8 8.2-15.75 12.85l-.7-.3q9.3-3.75 14.2-10-2.65.25-3.6-1.6-1.4-2.6 0-5.05L48 31.6l-3.25-12.8-.2-.7-.1-.5L40.2 1.1l.6-1.1 6.7 24.9.85 4.3.2.75.3 1.6m-11.3 14.7.1.2-1.9 4.1-1.5.7 3.3-5" fill="#34e6d8" fill-rule="evenodd" transform="translate(-9.1 .5)"/><path d="M42.1 17.25 40 6.85l-3.4 8.35-1.65-.2L40.2 4.55l3.45 12.7-.9-.25-.65.25M36.05 34.8q3.2-.45 5.6-2.9 2.9-2.85 2.9-7 0-2.2-.85-4.05l-.75-1.45 1.25.4 2.75 11.35-5.95 4.9q-1.4 1.85-1.4 5.2.6 2.65 3.55 2.95-2.35 3.6-7.4 6.35l1.9-4.1-.1-.2-.45-1.1q.85.25.9 2.45l3.35-2.65q-5.45-4.65 0-10.35-3.3 2-4.35 1.35-.7 1.9-2.1 1.45.7-.55.55-1.65l-.8-.9 1.4-.05m8-2.6 1.9-1.45-.45-1.1q0 .95-1.45 2.55" fill="#9c85b3" fill-rule="evenodd" transform="translate(-9.1 .5)"/><path d="m34.95 15 1.65.2q2.75.5 4.9 2.5-.65.75-.7 2.1l.3-.1-.1.15q-.1.55.8.65 1.15-.3 1.9.35.85 1.85.85 4.05 0 4.15-2.9 7-2.4 2.45-5.6 2.9-.85-.95-1.3-2.4-.55-1.1-1.1-.35-1.4.7-1.75 2.5-1.8-.55-3.25-1.6l-1.1-.95-.05-.1-.45-.45-.8-1.05q-1.65-2.45-1.65-5.5v-.35l.1-1.05.1-.75.4-1.35q.7-2 2.3-3.55.65-.65 1.4-1.15-1.75 2.95-2.25 6.05h.4q-1 2.35.1 5.1.5 1 1.25.75.6-.4 0-1.35-.2-1.15-.1-2.1.95-2.65 2.7-3.5l-.1.6q-.2 1.35 1 2.4.7.55 1.4.75l-.25.7q-.3.55-.35 1.25l-.2-.05-.75.05q-.35.05-.25.5l.4.6.7.25h.1l.5 1.6q1 2.25 3.85 1.4 2.75-.9 3.9-2.05 1.15-1.1 1.2-3.2.05-2.15-1.1-3.15-1.15-1-2.8-1.35l-.75-.1.25-.6-.3-.7-.65-.2-.25-.3q-.8-.7-1.6-.85.25-2.7-1.8-3.4l.95-.8h.85m-3.5 14.25-.15-.4-.35-.1-.4.1-.1.4.1.35.4.15.35-.15.15-.35" fill="#ff0101" fill-rule="evenodd" transform="translate(-9.1 .5)"/><path d="M43.65 17.25 40.2 4.55 34.95 15h-.85l-1.65.25L40.2 1.1l4.25 16.5v.3q-.25-.4-.8-.65M24.7 23.5l-5-4.15.05.15q-1.1-.6-.25 2l1.65 7.8 3.9 3.35-.55 1.1-3.65-4.2-4.35-14.7 8.3 7.9-.1.75" fill="#f6e7fe" fill-rule="evenodd" transform="translate(-9.1 .5)"/><path d="m34.1 15-.95.8q2.05.7 1.8 3.4l-.05.4q-.45 3-3.9 2.05-.65-.4-.95-.95-.4-.5-.45-1.1-.2-.9.25-2.1-1.85 1.35-2.1 3.9-.1.6-.05 1.35h-1.05q.5-3.1 2.25-6.05 1.6-1.15 3.55-1.45L34.1 15" fill="#fff" fill-rule="evenodd" transform="translate(-9.1 .5)"/><path d="M36.6 15.2 40 6.85l2.1 10.4-.6.45q-2.15-2-4.9-2.5" fill="#dfbfff" fill-rule="evenodd" transform="translate(-9.1 .5)"/><path d="m50.15 31.15 6.25-2.2 8.3-15L67 12.7 56.85 29.55q-4.2 1.8-7.85 2.55l-.15-.55 1.3-.4" fill="#2cead0" fill-rule="evenodd" transform="translate(-9.1 .5)"/><path d="m64.7 13.95-8.3 15-6.25 2.2-.3-1.55 5.55-1.5 6.05-10.15L50.1 23.3 49 27.15l-1.35-2.65.45-1.85 16.6-8.7" fill="#fffdfe" fill-rule="evenodd" transform="translate(-9.1 .5)"/><path d="m49 27.15 1.1-3.85 11.35-5.35L55.4 28.1l-5.55 1.5-1.3.35-.2-.75.65-2.05m12.45-9.2-11.1 6.15-1.8 5.85 1.8-5.85 11.1-6.15M49.95 28.7l4.7-1.55 4.95-7.35-8.7 5.05-.95 3.85" fill="#9d84ae" fill-rule="evenodd" transform="translate(-9.1 .5)"/><path d="M31.9 34.55q-.15.7-.15 1.65.25 1 1.15 1.35l1.3.15.7-.3q1.4.45 2.1-1.45 1.05.65 4.35-1.35-5.45 5.7 0 10.35L38 47.6q-.05-2.2-.9-2.45l-.2-.45-4.1 2.4-3.3-2.2h-.85l-.5-.4-1 .9.5 1.75q-1.3-1-1.5-2.2 8-1.75 2.5-12 1.45 1.05 3.25 1.6m18.05-5.85.95-3.85 8.7-5.05-4.95 7.35-4.7 1.55" fill="#dfbffe" fill-rule="evenodd" transform="translate(-9.1 .5)"/><path d="M32.9 37.55q2.15-.25 1.35-2l-.35-.7q-.6-1.25-.25-2.8.1 1.55 1 2.8l.8.9q.15 1.1-.55 1.65l-.7.3-1.3-.15m8.2-17.85q.55-.8 1.3-1l.75-.15q1.15-.05 1.3-.65l.1.2.2.7-.3 1.2-.25-.2-1.25-.4-1.85.3" fill="#47e0ce" fill-rule="evenodd" transform="translate(-9.1 .5)"/><path d="m24.5 33.75.55-1.1.35-.6.45-.85.4-.8.8 1.05-.55 1.95 3 3.85q-.1 5.8-4.8 6.05-1.5.2 0 2.2 2.75 5.45 7.15 6.85l1.75-.75.65-.35 1.5-.7q5.05-2.75 7.4-6.35-2.95-.3-3.55-2.95 0-3.35 1.4-5.2l5.95-4.9L44.2 19.8l.25.2.3-1.2L48 31.6l-6.2 5.55q-1.4 2.45 0 5.05.95 1.85 3.6 1.6-4.9 6.25-14.2 10-7.75-3.35-9.5-12.8 1.7 2 4.05 1.05Q28 41.1 28.1 37.9l-3.6-4.15" fill="#f6e6ff" fill-rule="evenodd" transform="translate(-9.1 .5)"/><path d="m42.1 17.25.65-.25.9.25q.55.25.8.65-.15.6-1.3.65l-.75.15q-.75.2-1.3 1l-.3.1q.05-1.35.7-2.1l.6-.45m-10.2 17.3q.35-1.8 1.75-2.5-.35 1.55.25 2.8l.35.7q.8 1.75-1.35 2-.9-.35-1.15-1.35 0-.95.15-1.65" fill="#fcf4ff" fill-rule="evenodd" transform="translate(-9.1 .5)"/><path d="M33.65 32.05q.55-.75 1.1.35.45 1.45 1.3 2.4l-1.4.05q-.9-1.25-1-2.8m10.05-11.2q-.75-.65-1.9-.35-.9-.1-.8-.65l.1-.15 1.85-.3.75 1.45" fill="#af0100" fill-rule="evenodd" transform="translate(-9.1 .5)"/><path d="m37.5 21.85.75.1q1.65.35 2.8 1.35t1.1 3.15q-.05 2.1-1.2 3.2-1.15 1.15-3.9 2.05-2.85.85-3.85-1.4l-.5-1.6.55-.25.3-.45-.3-.5q-.2-.15-.55-.15.05-.7.35-1.25l.25-.7 1.05.15 1-.25-.8 1.7q-.45 1.25.1 2.4.6 1.1 2.7.85 2-.35 2.6-1.45.55-1.05.55-2.15 0-1.05-.9-1.7-.9-.65-2.1-.65l-.9.15q.75-.9.9-2.1v-.5" fill="#cc0001" fill-rule="evenodd" transform="translate(-9.1 .5)"/><path d="m36.6 24.45.9-.15q1.2 0 2.1.65.9.65.9 1.7 0 1.1-.55 2.15-.6 1.1-2.6 1.45-2.1.25-2.7-.85-.55-1.15-.1-2.4l.8-1.7q.6-.2 1.15-.75l.1-.1" fill="#8f0100" fill-rule="evenodd" transform="translate(-9.1 .5)"/><path d="M47.65 24.5 49 27.15l-.65 2.05-.85-4.3.15-.4m2.2 5.1.3 1.55-1.3.4-.3-1.6 1.3-.35" fill="#b2acb6" fill-rule="evenodd" transform="translate(-9.1 .5)"/><path d="M31 21.65q3.45.95 3.9-2.05l.05-.4q.8.15 1.6.85l.25.3-.65.2q-.25.3-.25.7 0 .4.25.6l.35.25.3.05.65-.3h.05v.5q-.15 1.2-.9 2.1l-.1.1q-.55.55-1.15.75l-1 .25-1.05-.15q-.7-.2-1.4-.75-1.2-1.05-1-2.4l.1-.6m4 1.8.3.1.3-.1.1-.3-.1-.3-.25-.1h-.05l-.3.1-.1.3v.05l.1.25" fill="#fe8081" fill-rule="evenodd" transform="translate(-9.1 .5)"/><path d="m36.8 20.35.65.2.3.7-.25.6h-.05l-.65.3-.3-.05-.35-.25q-.25-.2-.25-.6 0-.4.25-.7l.65-.2m-1.8 3.1-.1-.25v-.05l.1-.3.3-.1h.05l.25.1.1.3-.1.3-.3.1-.3-.1" fill="#feffff" fill-rule="evenodd" transform="translate(-9.1 .5)"/><path d="M27.75 21.4q.25-2.55 2.1-3.9-.45 1.2-.25 2.1-1.15.85-1.85 1.8m2.3-.7q.3.55.95.95-1.75.85-2.7 3.5 0-2.85 1.75-4.45" fill="#ff3205" fill-rule="evenodd" transform="translate(-9.1 .5)"/><path d="M27.05 22.75h.65q-.05-.75.05-1.35.7-.95 1.85-1.8.05.6.45 1.1-1.75 1.6-1.75 4.45-.1.95.1 2.1.6.95 0 1.35-.75.25-1.25-.75-1.1-2.75-.1-5.1" fill="#fe9b7e" fill-rule="evenodd" transform="translate(-9.1 .5)"/><path d="M32.7 28.7h-.1l-.7-.25-.4-.6q-.1-.45.25-.5l.75-.05.2.05q.35 0 .55.15l.3.5-.3.45-.55.25" fill="#fd8183" fill-rule="evenodd" transform="translate(-9.1 .5)"/><path d="m31.45 29.25-.15.35-.35.15-.4-.15-.1-.35.1-.4.4-.1.35.1.15.4" fill="#ff7f81" fill-rule="evenodd" transform="translate(-9.1 .5)"/><path d="M28.35 49.8q-2.55-2.5-3.7-5.95 3.25.45 4.5-2 1.2-2.5.8-4.9l-2.8-3.6.4-1.35 1.1.95q5.5 10.25-2.5 12 .2 1.2 1.5 2.2l.7 2.65" fill="#9c86ad" fill-rule="evenodd" transform="translate(-9.1 .5)"/><path d="M31.85 52.35q-4.4-1.4-7.15-6.85-1.5-2 0-2.2 4.7-.25 4.8-6.05l-3-3.85.55-1.95.45.45.05.1-.4 1.35 2.8 3.6q.4 2.4-.8 4.9-1.25 2.45-4.5 2 1.15 3.45 3.7 5.95l1.95 1.6 1.55.95" fill="#a087a7" fill-rule="evenodd" transform="translate(-9.1 .5)"/><path d="M44.05 32.2q1.45-1.6 1.45-2.55l.45 1.1-1.9 1.45" fill="#debffb" fill-rule="evenodd" transform="translate(-9.1 .5)"/><path d="M28.65 44.9h.85l3.3 2.2-.85.45-3.3-2.65m4.9 6.7v-3.15l2.2-1.2-2.2 4.35m-4.65-4.8 1.8.95-.4 3.65q-.9-1.7-1.4-4.6" fill="#9c85af" fill-rule="evenodd" transform="translate(-9.1 .5)"/><path d="m32.8 47.1 4.1-2.4.2.45.45 1.1-3.3 5-.65.35-1.75.75.1-4.8.85-.45m.75 4.5 2.2-4.35-2.2 1.2v3.15" fill="#f7ecfc" fill-rule="evenodd" transform="translate(-9.1 .5)"/><path d="m31.85 52.35-1.55-.95-1.95-1.6-.7-2.65-.5-1.75 1-.9.5.4 3.3 2.65-.1 4.8M28.9 46.8q.5 2.9 1.4 4.6l.4-3.65-1.8-.95" fill="#fef9ff" fill-rule="evenodd" transform="translate(-9.1 .5)"/><path d="m19.75 19.5-.05-.15 5 4.15-.1 1.05-3.55-2.8 1.9 6.8 2.9 2.65-.45.85L22 28.4l-2.25-8.9" fill="#9b84b0" fill-rule="evenodd" transform="translate(-9.1 .5)"/><path d="m25.85 31.2-2.9-2.65-1.9-6.8 3.55 2.8v.35q0 3.05 1.65 5.5l-.4.8" fill="#e1befe" fill-rule="evenodd" transform="translate(-9.1 .5)"/><path d="m64.7 13.95-16.6 8.7-.45 1.85-.15.4.85 4.3.2.75 1.8-5.85 11.1-6.15L55.4 28.1l-5.55 1.5-1.3.35.3 1.6.15.55q3.65-.75 7.85-2.55L67 12.7l-2.3 1.25m-22.6 3.3.65-.25.9.25-3.45-12.7L34.95 15m6.55 2.7.6-.45M40.2 1.1l.6-1.1 6.7 24.9m-31-10.05-.55-2.05 9.25 8.6m-5.45-1.9-.05-.15 5 4.15m-8.2-8.65 4.35 14.7 3.65 4.2.55-1.1.35-.6.45-.85.4-.8m-6.5-10.9L22 28.4l3.4 3.65M41.1 19.7l-.3.1q.05-1.35.7-2.1m-7.85 14.35q-1.4.7-1.75 2.5-.15.7-.15 1.65.25 1 1.15 1.35l1.3.15.7-.3q.7-.55.55-1.65l-.8-.9q-.9-1.25-1-2.8m-1.8 20.3-1.55-.95-1.95-1.6q-2.55-2.5-3.7-5.95 3.25.45 4.5-2 1.2-2.5.8-4.9l-2.8-3.6.4-1.35m.1 15.15-.5-1.75 1-.9.5.4 3.3 2.65-.1 4.8 1.75-.75.65-.35 1.5-.7q5.05-2.75 7.4-6.35-2.95-.3-3.55-2.95 0-3.35 1.4-5.2l5.95-4.9L44.2 19.8l.25.2.3-1.2M32.8 47.1l4.1-2.4.2.45.45 1.1.1.2-1.9 4.1M31.2 53.8q-7.75-3.35-9.5-12.8 1.7 2 4.05 1.05Q28 41.1 28.1 37.9l-3.6-4.15M44.45 17.9q-.25-.4-.8-.65M41.1 19.7l1.85-.3 1.25.4m.35-1.7-.1-.2M40.2 1.1l-7.75 14.15M31.2 53.8l.7.3q12.95-4.65 15.75-12.85-2.5 2.2-4.65 1.15-1.55-1.9-.4-5.15L49 32.1M28.35 49.8l-.7-2.65m5.9 4.45 2.2-4.35-2.2 1.2v3.15m-.75-4.5-.85.45m-3.05-.75q.5 2.9 1.4 4.6l.4-3.65-1.8-.95" fill="none" stroke="#573f7c" stroke-linecap="round" stroke-linejoin="round" transform="translate(-9.1 .5)"/><path d="m34.95 15 1.65.2q2.75.5 4.9 2.5M34.1 15l-1.65.25q-1.95.3-3.55 1.45-.75.5-1.4 1.15-1.6 1.55-2.3 3.55l-.4 1.35-.1.75-.1 1.05v.35q0 3.05 1.65 5.5l.8 1.05.45.45.05.1 1.1.95q1.45 1.05 3.25 1.6M34.1 15h.85m1.1 19.8q3.2-.45 5.6-2.9 2.9-2.85 2.9-7 0-2.2-.85-4.05m-9.05 14 1.4-.05" fill="none" stroke="#600" stroke-linecap="round" stroke-linejoin="round" transform="translate(-9.1 .5)"/><path d="m42.95 19.4.75 1.45" fill="none" stroke="#603" stroke-linecap="round" stroke-linejoin="round" transform="translate(-9.1 .5)"/><path d="M30.35 56.85q.9 2.9-.8 2.5-.55.3.05-1.15.55-1.45.75-1.35" fill="#7a4b13" fill-rule="evenodd" transform="translate(-9.1 .5)"/><path d="M28.85 59.95Q27.7 63.6 23.3 63.7q-4.2-2.7-4.35-7.75-2.55-1.4-1.9-2.35 6.6.45 11.8 6.35m29-7.55-2.2.7q-.4 7.15-4.55 10.5-6.15 2.55-12.6-2.95 7.45-8.9 18.95-9.6l.4 1.35" fill="#3f1d02" fill-rule="evenodd" transform="translate(-9.1 .5)"/><path d="M36.4 58.15q1.8-.05.65 1.95-2.6-.45-1.1-3.25.8-.15.45 1.3" fill="#874f05" fill-rule="evenodd" transform="translate(-9.1 .5)"/><path d="m41.8 57.1 1.05-.65.4-.05q.7 0 1.25.5l.45.8q-1.55.75-2.9 1.75l-.05-.1q-.5-.5-.5-1.2 0-.6.3-1.05" fill="#b1b3b2" fill-rule="evenodd" transform="translate(-9.1 .5)"/><path d="M42.85 56.45Q45 55 47.25 54q-.4 1.35-.4 2.65-.95.45-1.9 1.05l-.45-.8q-.55-.5-1.25-.5l-.4.05" fill="#012d20" fill-rule="evenodd" transform="translate(-9.1 .5)"/><path d="M47.25 54q2.85-1.35 5.7-2.1l.45 2q-3.5 1.15-6.55 2.75 0-1.3.4-2.65m-8.65 5.55 3.2-2.45q-.3.45-.3 1.05 0 .7.5 1.2l.05.1q-1.15.75-2.15 1.6l-1.3-1.5" fill="#013e14" fill-rule="evenodd" transform="translate(-9.1 .5)"/><path d="M46.85 56.65q3.05-1.6 6.55-2.75 1.3 6.7-3.9 9.25-5.45 2.1-9.6-2.1 1-.85 2.15-1.6l1.2.45q.7 0 1.25-.55.75 1.25 3 2 1.05.45.3-.8l-.3-.7-.1-.2q-.55-1.45-.55-3m2.35 1.15-.2-.45-.45-.2q-.3 0-.45.2-.15.15-.15.45l.15.45.45.15.45-.15.2-.45" fill="url(#q)" fill-rule="evenodd" transform="translate(-9.1 .5)"/><path d="M42.05 59.45q1.35-1 2.9-1.75l.05.45q0 .7-.5 1.2-.55.55-1.25.55l-1.2-.45m5.45.4-.1.15-.15.05-.15-.05-.05-.15.05-.2.15-.05.15.05.1.2m1.7-2.05-.2.45-.45.15-.45-.15-.15-.45q0-.3.15-.45.15-.2.45-.2l.45.2.2.45m-29.35-1.4 2.5 1.1-.15.25q-.35.45-.85.5h-.1L20.3 58q-.45-.25-.45-1.1v-.5m4.3 2.05q.25 0 .35.2l.2.45-.2.45-.35.15-.4-.15-.1-.45.1-.45.4-.2m-1.35 2h-.1l-.25-.1-.1-.25.1-.2.25-.15h.1l.1.15.15.2-.15.25-.1.1" fill="#fefefe" fill-rule="evenodd" transform="translate(-9.1 .5)"/><path d="M44.95 57.7q.95-.6 1.9-1.05 0 1.55.55 3l-.15-.05-.15.05-.05.2.05.15.15.05.15-.05.1-.15.3.7q.75 1.25-.3.8-2.25-.75-3-2 .5-.5.5-1.2l-.05-.45" fill="#01402f" fill-rule="evenodd" transform="translate(-9.1 .5)"/><path d="M21.35 55.15q-.5 0-1.05.45-.3.25-.45.8l-.75-.35q.1-.9.55-1.65l1.8.65-.1.1m2.4 1.05 3.55 2.45-.1 1-4.15-1.85.7-1.6" fill="#04451a" fill-rule="evenodd" transform="translate(-9.1 .5)"/><path d="M19.85 56.4q.15-.55.45-.8.55-.45 1.05-.45t.85.45q.4.45.4 1.05l-.25.85-2.5-1.1" fill="#b2b2b2" fill-rule="evenodd" transform="translate(-9.1 .5)"/><path d="m19.1 56.05.75.35v.5q0 .85.45 1.1l.95.25q-.3 1.3 1 2.75.5.9.6 0l-.05-.55.1-.1.15-.25-.15-.2-.1-.15q-.05-1.05.25-1.95l4.15 1.85q-.25 2.25-2.3 3.45-2.2.9-4.45-2.65-1.6-2.5-1.35-4.4m5.05 2.4-.4.2-.1.45.1.45.4.15.35-.15.2-.45-.2-.45q-.1-.2-.35-.2" fill="url(#r)" fill-rule="evenodd" transform="translate(-9.1 .5)"/><path d="m21.35 55.15.1-.1 2.3 1.15-.7 1.6q-.3.9-.25 1.95h-.1l-.25.15-.1.2.1.25.25.1h.1l.05.55q-.1.9-.6 0-1.3-1.45-1-2.75h.1q.5-.05.85-.5l.15-.25.25-.85q0-.6-.4-1.05-.35-.45-.85-.45" fill="#012d1e" fill-rule="evenodd" transform="translate(-9.1 .5)"/><path d="m41.8 57.1 1.05-.65Q45 55 47.25 54q2.85-1.35 5.7-2.1 2.95-.8 6-.9m-5.55 2.9-.45-2M37.7 60.3l.9-.75 3.2-2.45m-1.9 3.95q4.15 4.2 9.6 2.1 5.2-2.55 3.9-9.25m-14.8 5.65 1.3 1.5m-18.45-6-1.8-.65q-.45.75-.55 1.65-.25 1.9 1.35 4.4Q22.7 64 24.9 63.1q2.05-1.2 2.3-3.45l.1-1-3.55-2.45-2.3-1.15m-1.8-.65-2.7-.8m12.6 7.2-2.25-2.15" fill="none" stroke="#381801" stroke-linecap="round" stroke-linejoin="round" transform="translate(-9.1 .5)"/><path d="M29.8 57.15q1.05 3.55-1.15 2.25m6.85-2.55q-1.55 4.1 1.6 2.4" fill="none" stroke="#391b03" stroke-linecap="round" stroke-linejoin="round" transform="translate(-9.1 .5)"/></g><use ffdec:characterId="11" height="40.95" width="39.55" xlink:href="#s" id="n"/><use ffdec:characterId="13" height="39.85" width="34.35" xlink:href="#t" id="o"/><use ffdec:characterId="17" height="71.05" width="61.55" xlink:href="#u" id="c"/><radialGradient cx="0" cy="0" gradientTransform="translate(47.25 56.9) scale(.0104)" gradientUnits="userSpaceOnUse" id="q" r="819.2" spreadMethod="pad"><stop offset="0" stop-color="#0d6528"/><stop offset="1" stop-color="#6bfc97"/></radialGradient><radialGradient cx="0" cy="0" gradientTransform="translate(23.15 58.4) scale(.0072)" gradientUnits="userSpaceOnUse" id="r" r="819.2" spreadMethod="pad"><stop offset="0" stop-color="#0d6528"/><stop offset="1" stop-color="#6bfc97"/></radialGradient><path d="M151.7 47.1q-26.05 8.3-62.8 8.3t-62.8-8.3Q0 39.1 0 27.7 0 16.3 26.1 8.05 52.15 0 88.9 0t62.8 8.05q26.1 8.25 26.1 19.65 0 11.4-26.1 19.4" fill-opacity=".353" fill-rule="evenodd" id="d"/><path d="M0 71.05V0h61.55v71.05H0" fill="url(#v)" fill-rule="evenodd" id="u"/><linearGradient gradientTransform="matrix(.0376 0 0 .0434 30.75 35.5)" gradientUnits="userSpaceOnUse" id="v" spreadMethod="pad" x1="-819.2" x2="819.2"><stop offset="0" stop-color="#ffc" stop-opacity="0"/><stop offset="1" stop-color="#fee481" stop-opacity="0"/></linearGradient></defs></svg>