<svg xmlns:ffdec="https://www.free-decompiler.com/flash" xmlns:xlink="http://www.w3.org/1999/xlink" ffdec:objectType="frame" height="90" width="90" xmlns="http://www.w3.org/2000/svg"><use ffdec:characterId="88" height="91.6" transform="translate(7.6 -3.15)" width="76.65" xlink:href="#a"/><defs><g id="a" transform="translate(-7.6 3.15)"><use ffdec:characterId="2" height="60.45" transform="translate(15.7 67.85) scale(.3356)" width="157" xlink:href="#b"/><use ffdec:characterId="35" height="83.45" transform="translate(21.92 16.914) scale(.3356)" width="176.15" xlink:href="#c"/><use ffdec:characterId="37" height="90.85" transform="translate(31.5 48.214) scale(.3356)" width="82.75" xlink:href="#d"/><use ffdec:characterId="39" height="140.5" transform="translate(22.964 31.714) scale(.3356)" width="107.75" xlink:href="#e"/><use ffdec:characterId="41" height="104" transform="translate(11.664 30.014) scale(.3356)" width="100.2" xlink:href="#f"/><use ffdec:characterId="43" height="77.3" transform="translate(13.864 31.165) scale(.3356)" width="57.9" xlink:href="#g"/><use ffdec:characterId="45" height="68.3" transform="translate(52.25 48.214) scale(.3356)" width="51.6" xlink:href="#h"/><use ffdec:characterId="51" height="118.4" transform="translate(11.983 4.693) scale(.3356)" width="163.95" xlink:href="#i"/><use ffdec:characterId="53" height="78" transform="translate(32.314 38.324) scale(.3356)" width="58.05" xlink:href="#j"/><use ffdec:characterId="68" height="130.3" transform="translate(15.98 11.89) scale(.3356)" width="115.55" xlink:href="#k"/><use ffdec:characterId="70" height="55.7" transform="translate(49.564 64.114) scale(.3356)" width="44.05" xlink:href="#l"/><use ffdec:characterId="79" height="98.25" transform="translate(7.588 55.462) scale(.3356)" width="168.95" xlink:href="#m"/><use ffdec:characterId="85" height="131.8" transform="translate(25.166 1.936) scale(.3356)" width="172.2" xlink:href="#n"/><use ffdec:characterId="87" height="90.7" transform="translate(46.314 31.864) scale(.3356)" width="60.65" xlink:href="#o"/></g><g id="c" transform="translate(34.65 1)"><use ffdec:characterId="4" height="24.65" transform="translate(-11.05 14.15)" width="18.8" xlink:href="#p"/><use ffdec:characterId="6" height="3.9" transform="translate(75.25 59.5)" width="2.15" xlink:href="#q"/><use ffdec:characterId="8" height="3.75" transform="translate(69 56.55)" width="1.85" xlink:href="#r"/><use ffdec:characterId="10" height="21.8" transform="translate(-1 6.55)" width="17.55" xlink:href="#s"/><use ffdec:characterId="12" height="20.9" transform="translate(7.55 -.05)" width="19.9" xlink:href="#t"/><use ffdec:characterId="14" height="25.25" transform="translate(12.6 1.4)" width="19.75" xlink:href="#u"/><use ffdec:characterId="16" height="18.25" transform="translate(13.35 13.55)" width="19.5" xlink:href="#v"/><use ffdec:characterId="18" height="19.1" transform="translate(15.2 20.65)" width="19" xlink:href="#w"/><use ffdec:characterId="20" height="24.4" transform="translate(33.95 24.1)" width="17.6" xlink:href="#x"/><use ffdec:characterId="22" height="26.45" transform="translate(43.3 12.25)" width="16.15" xlink:href="#y"/><use ffdec:characterId="24" height="28.6" transform="translate(52.35 2.95)" width="18.45" xlink:href="#z"/><use ffdec:characterId="26" height="27.1" transform="translate(61.3 -1)" width="22.35" xlink:href="#A"/><use ffdec:characterId="28" height="26.45" transform="translate(65.85 2.4)" width="23.8" xlink:href="#B"/><use ffdec:characterId="30" height="23.65" transform="translate(67.85 15.45)" width="23.3" xlink:href="#C"/><use ffdec:characterId="32" height="22.4" transform="translate(64.95 29.3)" width="24.95" xlink:href="#D"/><use ffdec:characterId="34" height="30.5" transform="translate(57.65 41.05)" width="30.4" xlink:href="#E"/></g><g id="U"><path d="m2.45 17.9-.35-.65-.3-.4-.85-1.65-.45-.85Q-2.05 4.7 8.9.05q5.8-.7 7.9 7.6l-.05 2.65q-1.25-1.65-7.5 1.1l-.05.15-.55.05-.75.15-.4.1q-2.7.5-4.4 4.4l-.65 1.65" fill="#fff" fill-rule="evenodd" transform="translate(1 1)"/><path d="m16.75 10.3.35.95q.25 2.85-3.15 7.85l-1.25 1.75-.8.6q-5 3.6-9.45-3.55l.65-1.65q1.7-3.9 4.4-4.4l.4-.1h.5l.25-.15.55-.05.05-.15q6.25-2.75 7.5-1.1-.35 4.95-2.8 8.8 2.45-3.85 2.8-8.8" fill="#8698d9" fill-rule="evenodd" transform="translate(1 1)"/><path d="m3.45 18.9-.35-.65-.3-.4-.85-1.65-.45-.85Q-1.05 5.7 9.9 1.05q5.8-.7 7.9 7.6l-.05 2.65q-.35 4.95-2.8 8.8l-1.25 1.75-.8.6q-5 3.6-9.45-3.55z" fill="none" stroke="#313165" stroke-linecap="round" stroke-linejoin="round" stroke-width="2"/></g><g id="X"><path d="m9.75.05-.5 1.7q-.45.2-.85.5Q4.85 4.55.1 12.2q.55-6.65 5.05-9.95Q7.1.85 9.75.05" fill="#ffad82" fill-rule="evenodd" transform="translate(1 1)"/><path d="M.1 12.2q4.75-7.65 8.3-9.95.4-.3.85-.5l.5-1.7q9.85-.6 2.95 12.15-1.75 4.95-7.15 7.35Q1.1 20.7.1 16.05-.05 14 .1 12.2" fill="#ff3a58" fill-rule="evenodd" transform="translate(1 1)"/><path d="M1.1 13.2q-.15 1.8 0 3.85 1 4.65 5.45 3.5 5.4-2.4 7.15-7.35Q20.6.45 10.75 1.05q-2.65.8-4.6 2.2-4.5 3.3-5.05 9.95z" fill="none" stroke="#410f21" stroke-linecap="round" stroke-linejoin="round" stroke-width="2"/></g><g id="Y"><path d="m.4 9.6.2-.75.1-.5.5-1.7.25-.95q4.5-8.65 14.35-4.2 4.1 3.6.2 10.95l-1.7 1.9q.2-2.1-5.45-4.55l-.15.1-.35-.35-.6-.45-.3-.25Q5.4 7.3 1.9 8.85q-.75.3-1.5.75" fill="#fff" fill-rule="evenodd" transform="translate(1 1)"/><path d="m14.3 14.35-.4.9q-1.65 2.15-6.95 3.3l-1.9.35-.9-.1q-5.4-1-3.75-9.2.75-.45 1.5-.75 3.5-1.55 5.55 0l.3.25.3.35.3.1.35.35.15-.1q5.65 2.45 5.45 4.55-3.35 3.2-7.35 4.2 4-1 7.35-4.2" fill="#8698d9" fill-rule="evenodd" transform="translate(1 1)"/><path d="m1.4 10.6.2-.75.1-.5.5-1.7.25-.95q4.5-8.65 14.35-4.2 4.1 3.6.2 10.95l-1.7 1.9q-3.35 3.2-7.35 4.2l-1.9.35-.9-.1q-5.4-1-3.75-9.2z" fill="none" stroke="#313165" stroke-linecap="round" stroke-linejoin="round" stroke-width="2"/></g><g id="Z"><path d="M16.7 3.5Q10.95 2.05 3.8 7.4l-.55.4-.05-.05.2-.35Q7.1.8 10.75.05q1.75-.3 3.45.65 1.65 1.3 2.5 2.8" fill="#ffad82" fill-rule="evenodd" transform="translate(1 1)"/><path d="M10.45 20.35q.95-2.5-.9-7.15-1.75-4.45-6.3-5.4l.55-.4q7.15-5.35 12.9-3.9 2.2 3.75-.2 8.9-3.25 5.2-6.05 7.95" fill="#ff3a58" fill-rule="evenodd" transform="translate(1 1)"/><path d="M3.25 7.8q4.55.95 6.3 5.4 1.85 4.65.9 7.15-1.9 1.8-3.55 2.5 1.65-.7 3.55-2.5-.8 2-3.55 2.5l-2.4.4q-1.6-.5-3.75-2.65Q0 19.2 0 17.45-.1 14.1 2.35 9.3L3 8l.1-.1.15-.1" fill="#8f2049" fill-rule="evenodd" transform="translate(1 1)"/><path d="M11.45 21.35q2.8-2.75 6.05-7.95 2.4-5.15.2-8.9-.85-1.5-2.5-2.8-1.7-.95-3.45-.65Q8.1 1.8 4.4 8.4l-.2.35h-.05l-.05.15L4 9l-.65 1.3Q.9 15.1 1 18.45q0 1.75.75 3.15Q3.4 24 5.5 24.25l2.4-.4q1.65-.7 3.55-2.5z" fill="none" stroke="#410f21" stroke-linecap="round" stroke-linejoin="round" stroke-width="2"/></g><g id="aa"><path d="M15.75.25q-.65 4.3-2.4 6-.85.8-1.95 1 .15-3.1-1.75-6.5 1.85-.7 3.7-.75l2.4.25" fill="#fff" fill-rule="evenodd" transform="translate(1 1)"/><path d="M9.65.75q1.9 3.4 1.75 6.5 1.1-.2 1.95-1 1.75-1.7 2.4-6 4.45 5.4-2.4 12.3l-.8.75Q.65 21 0 8.45q4.55-5.5 8.8-7.4l.85-.3" fill="#8698d9" fill-rule="evenodd" transform="translate(1 1)"/><path d="M16.75 1.25 14.35 1q-1.85.05-3.7.75l-.85.3Q5.55 3.95 1 9.45 1.65 22 13.55 14.3l.8-.75q6.85-6.9 2.4-12.3z" fill="none" stroke="#313165" stroke-linecap="round" stroke-linejoin="round" stroke-width="2"/></g><g id="ab"><path d="M16.95 5.55q-3.8-3.7-10.7-2.4l-.55.15v-.1l.25-.2q4.7-3.75 7.6-2.8 1.4.5 2.4 1.95.8 1.8 1 3.4" fill="#ffad82" fill-rule="evenodd" transform="translate(1 1)"/><path d="M7.3 16.55q1.4-1.65 1.45-6.15Q8.8 6 5.7 3.3l.55-.15q6.9-1.3 10.7 2.4.5 3.95-2.8 7.15-3.95 2.8-6.85 3.85" fill="#ff3a58" fill-rule="evenodd" transform="translate(1 1)"/><path d="M5.7 3.3Q8.8 6 8.75 10.4q-.05 4.5-1.45 6.15l-3.35.55 3.35-.55q-1.15 1.3-3.35.55-1.1-.15-1.95-.75Q1 15.3.05 12.6q-.15-1.45.4-2.85.9-2.8 4.15-5.65l.85-.75.15-.05h.1" fill="#8f2049" fill-rule="evenodd" transform="translate(1 1)"/><path d="M8.3 17.55q2.9-1.05 6.85-3.85 3.3-3.2 2.8-7.15-.2-1.6-1-3.4-1-1.45-2.4-1.95-2.9-.95-7.6 2.8l-.25.2-.1.1-.15.05-.85.75q-3.25 2.85-4.15 5.65-.55 1.4-.4 2.85.5 2.7 1.95 3.75.85.6 1.95.75l3.35-.55z" fill="none" stroke="#410f21" stroke-linecap="round" stroke-linejoin="round" stroke-width="2"/></g><g id="ac"><path d="M15.1 12.15q2.55 9.15-8 10.2l-1.15.05Q-2.15 18.9.8 4.6 1 1.8 7.1.45l2.25-.4L9.6 0q5.65.25 5.5 12.15" fill="#8f2049" fill-rule="evenodd" transform="translate(1 1)"/><path d="M16.1 13.15q2.55 9.15-8 10.2l-1.15.05q-8.1-3.5-5.15-17.8.2-2.8 6.3-4.15l2.25-.4.25-.05q5.65.25 5.5 12.15z" fill="none" stroke="#400e20" stroke-linecap="round" stroke-linejoin="round" stroke-width="2"/></g><g id="ad"><path d="M.1 11.15Q1.95 1.4 10.75 0q4.65 2 2.9 13.45-.2-2.75-3.9-1.1Q5.6 13.5 2 18.3q-.95-2.65-1.75-6.45l-.15-.7" fill="#fff" fill-rule="evenodd" transform="translate(1 1)"/><path d="m13.65 13.45-.75 3.85q-.3 3.8-4.6 7-1.35.4-2.55-.3-2.1-1.2-3.75-5.7 3.6-4.8 7.75-5.95 3.7-1.65 3.9 1.1" fill="#8698d9" fill-rule="evenodd" transform="translate(1 1)"/><path d="M1.1 12.15Q2.95 2.4 11.75 1q4.65 2 2.9 13.45l-.75 3.85q-.3 3.8-4.6 7-1.35.4-2.55-.3-2.1-1.2-3.75-5.7-.95-2.65-1.75-6.45l-.15-.7-.1.75" fill="none" stroke="#313166" stroke-linecap="round" stroke-linejoin="round" stroke-width="2"/></g><g id="ae"><path d="M16.45 4.25q-1.35-.6-5.95.45Q5.9 7 .8 12.5l.9-3.2Q5.1-.4 13.7 0q2.65.6 2.75 4.25" fill="#ffad82" fill-rule="evenodd" transform="translate(1 1)"/><path d="M13.5 16.65q.25-2.4-4-1.8-5.3-.45-9.35 4.7Q-.2 17.3.3 14.9l.5-2.4Q5.9 7 10.5 4.7q4.6-1.05 5.95-.45 1.15.5-.2 2.35l-.15.8q-1 5.15-2.6 9.25m2.95-12.4-.2 2.35.2-2.35" fill="#ff3a58" fill-rule="evenodd" transform="translate(1 1)"/><path d="M.15 19.55q4.05-5.15 9.35-4.7 4.25-.6 4 1.8L12 20q-1.65 6.55-8.15 6.6Q1.6 24.3.7 21.65l-.55-2.1" fill="#8f2049" fill-rule="evenodd" transform="translate(1 1)"/><path d="M14.5 17.65q1.6-4.1 2.6-9.25l.15-.8.2-2.35Q17.35 1.6 14.7 1q-8.6-.4-12 9.3l-.9 3.2-.5 2.4q-.5 2.4-.15 4.65l.55 2.1q.9 2.65 3.15 4.95 6.5-.05 8.15-6.6l1.5-3.35z" fill="none" stroke="#400e20" stroke-linecap="round" stroke-linejoin="round" stroke-width="2"/></g><g id="af"><path d="M.05 16.15q-.35-3.8 1.5-7.5 1.15-2.4 3.2-4.7 7.6-7.6 14.4-.55 3.25 5.95-2.35 15.75l-1.9 2.65q-.65-.65-2.7-1.65-6.3-3.1-6.4-3.85-2.95-2.65-5.75-.15" fill="#fff" fill-rule="evenodd" transform="translate(1 1)"/><path d="M.05 16.15q2.8-2.5 5.75.15.1.75 6.4 3.85 2.05 1 2.7 1.65.85.95-1.3 1.2-1.2 1.65-5.6 2.2-4.4.55-3.05-.3-.95.3-1.9-.95-1.75-2.6-2.5-5.15l-.5-2.65m4.9 8.75q5.1.85 8.65-1.9l1.3-1.2-1.3 1.2q-3.55 2.75-8.65 1.9" fill="#8698d9" fill-rule="evenodd" transform="translate(1 1)"/><path d="m15.9 22.8 1.9-2.65q5.6-9.8 2.35-15.75-6.8-7.05-14.4.55-2.05 2.3-3.2 4.7-1.85 3.7-1.5 7.5l.5 2.65q.75 2.55 2.5 5.15.95 1.25 1.9.95 5.1.85 8.65-1.9l1.3-1.2z" fill="none" stroke="#313166" stroke-linecap="round" stroke-linejoin="round" stroke-width="2"/></g><g id="ag"><path d="M9.2 24.05q-3.45.85-7.05-.05Q.95 22.95.4 21.5q-.75-2-.15-4.85l.6-2.4q3.75.6 5.25 3.25h.05l.15.85-.9 4.55q0 .45.35.8.45.45 1.3.45l2.15-.1M12.7.7l1.9-.7q8.5.2 7 14.25l-3.3 4.05q.85-1.9.85-4.15l-.05-.9-.3-1.15-.3-.5Q18 6 12.7.7" fill="#8f2049" fill-rule="evenodd" transform="translate(1 1)"/><path d="m18.3 18.3-1 1.65q-2.55 3.55-8.1 4.1l-2.15.1q-.85 0-1.3-.45-.35-.35-.35-.8l.9-4.55-.15-.85H6.1Q4.6 14.85.85 14.25l.4-1.35Q4.25 4.05 12.7.7 18 6 18.5 11.6l.3.5.3 1.15.05.9q0 2.25-.85 4.15M12.2 5q0-.6-.4-1t-.95-.4q-.55 0-.95.4-.4.4-.4 1 0 .55.4.95.4.4.95.4.55 0 .95-.4.4-.4.4-.95" fill="#ff3a58" fill-rule="evenodd" transform="translate(1 1)"/><path d="M12.2 5q0 .55-.4.95-.4.4-.95.4-.55 0-.95-.4-.4-.4-.4-.95 0-.6.4-1t.95-.4q.55 0 .95.4.4.4.4 1" fill="#ffad82" fill-rule="evenodd" transform="translate(1 1)"/><path d="m19.3 19.3-1 1.65q-2.55 3.55-8.1 4.1-3.45.85-7.05-.05-1.2-1.05-1.75-2.5-.75-2-.15-4.85l.6-2.4.4-1.35q3-8.85 11.45-12.2l1.9-.7q8.5.2 7 14.25l-3.3 4.05z" fill="none" stroke="#400e20" stroke-linecap="round" stroke-linejoin="round" stroke-width="2"/></g><g id="ah"><path d="M16.4.9q3.8 7.55-2.55 14.5l-3.2 2.6q-3.2 2.6-4.6-4Q3.4 9.6 5.9 3.2q3.4-2 8.75-3.15h1.25l.5.85" fill="#fff" fill-rule="evenodd" transform="translate(1 1)"/><path d="M5.9 3.2Q3.4 9.6 6.05 14q1.4 6.6 4.6 4l3.2-2.6Q20.2 8.45 16.4.9l.1-.8q1.95.15 3.1 1.1 4.2 3.5-1.85 17.1Q7 25.95.7 16.2q-.45-.75-.55-1.7-.25-1.9 0-3.55Q.8 7.1 4.1 4.45L5.9 3.2" fill="#8698d9" fill-rule="evenodd" transform="translate(1 1)"/><path d="M6.9 4.2 5.1 5.45q-3.3 2.65-3.95 6.5-.25 1.65 0 3.55.1.95.55 1.7 6.3 9.75 17.05 2.1Q24.8 5.7 20.6 2.2q-1.15-.95-3.1-1.1l-.6-.05h-1.25Q10.3 2.2 6.9 4.2z" fill="none" stroke="#313166" stroke-linecap="round" stroke-linejoin="round" stroke-width="2"/></g><g id="ai"><path d="M16.75 1.55q1.95 1.1 3.9 2.9 4.85 6.3-.45 12.65l-1.1-.1 1.1.1-.55.6-.55-.7Q6.15 24.75.7 14.95-1.6 6.8 3.6 2.35l.05-.05Q5.95.9 8.15.35 3.7 5.45 3.5 12.9q.2 1.6.65 2.95.4 1.35 2.65 2.15 2.2.8 5.2-1.2t3.3-3.25q3.45-5.8 1.35-12h.1" fill="#8f2049" fill-rule="evenodd" transform="translate(1 1)"/><path d="M16.65 1.55q2.1 6.2-1.35 12Q15 14.8 12 16.8T6.8 18q-2.25-.8-2.65-2.15-.45-1.35-.65-2.95Q3.7 5.45 8.15.35l.8-.2q3.9-.65 7.7 1.35v.05m-7.2 1.1q-.3.3-.3.75t.3.75q.3.3.75.3l.75-.3.3-.75-.3-.75q-.3-.3-.75-.3t-.75.3" fill="#ff3a58" fill-rule="evenodd" transform="translate(1 1)"/><path d="M9.45 2.65q.3-.3.75-.3t.75.3l.3.75-.3.75-.75.3q-.45 0-.75-.3t-.3-.75q0-.45.3-.75" fill="#ffad82" fill-rule="evenodd" transform="translate(1 1)"/><path d="M21.2 18.1q5.3-6.35.45-12.65-1.95-1.8-3.9-2.9l-.1-.05q-3.8-2-7.7-1.35l-.8.2q-2.2.55-4.5 1.95l-.05.05Q-.6 7.8 1.7 15.95q5.45 9.8 18.4 2.05l1.1.1-.55.6" fill="none" stroke="#400e20" stroke-linecap="round" stroke-linejoin="round" stroke-width="2"/></g><g id="aj"><path d="m21.4 1.2 1.2.6q2.45 1.45 4.35 4.15 3.75 10.6-2.1 21.25-3.6 3.2-15.3-1.5-4.55-2.05-6.1-3.45l-.1-.15-.65-.75q-.6-1.9.45-3.8l-1.95 2.8q-3-1 1.4-8.65Q5 6.1 8 3.2q1.35-1.3 2.8-2.05L12.9.3l-2.05 3Q6.7 9.8 4.55 16.65l1.85.55q2.9-9.15 5.2-9.1-2.05 4.75-2.85 9.5l1.6.3 1.4.35q2.7.7 4.85 2.1l1.3 1 .8.75q4.25-8.2 3-18.9l-.3-2m-1.2 22.65q-.65-.95-1.5-1.75.85.8 1.5 1.75M8.75 17.6l-1.8-.15 1.8.15" fill="#8698d9" fill-rule="evenodd" transform="translate(1 1)"/><path d="m21.4 1.2.3 2q1.25 10.7-3 18.9l-.8-.75q1.5-3.05.3-3.9-1.2-.1-1.6 2.9-2.15-1.4-4.85-2.1.65-2 .4-3.25-.6-1.75-1.8 2.9l-1.6-.3q.8-4.75 2.85-9.5-2.3-.05-5.2 9.1l-1.85-.55Q6.7 9.8 10.85 3.3l2.05-3 1.25-.25q4.05-.3 7.25 1.15" fill="#fff" fill-rule="evenodd" transform="translate(1 1)"/><path d="m13.9 1.3-2.1.85Q10.35 2.9 9 4.2q-3 2.9-5.4 8.5-4.4 7.65-1.4 8.65l1.95-2.8q-1.05 1.9-.45 3.8l.65.75.1.15q1.55 1.4 6.1 3.45 11.7 4.7 15.3 1.5 5.85-10.65 2.1-21.25-1.9-2.7-4.35-4.15l-1.2-.6Q19.2.75 15.15 1.05l-1.25.25m5.8 21.8q.85.8 1.5 1.75M9.75 18.6l1.6.3 1.4.35q2.7.7 4.85 2.1l1.3 1 .8.75M7.95 18.45l1.8.15" fill="none" stroke="#313166" stroke-linecap="round" stroke-linejoin="round" stroke-width="2"/></g><g id="ak"><path d="M35.35 63.65q-6.55 3.8-12.8 3.8-6.25-.05-8.45-3.9-2.25-3.85.85-9.3 3.1-5.4 9.65-9.2 6.6-3.8 12.85-3.8 6.25.05 8.5 3.9 2.2 3.85-.9 9.3-3.1 5.4-9.7 9.2" fill="#84a5ff" fill-rule="evenodd" transform="translate(0 1)"/><path d="M35.35 64.65q-6.55 3.8-12.8 3.8-6.25-.05-8.45-3.9-2.25-3.85.85-9.3 3.1-5.4 9.65-9.2 6.6-3.8 12.85-3.8 6.25.05 8.5 3.9 2.2 3.85-.9 9.3-3.1 5.4-9.7 9.2z" fill="none" stroke="#525ead" stroke-linecap="round" stroke-linejoin="round" stroke-width="2"/><path d="m77.4 31.35-.9.2q-6.3-3.25-9.75 1.2l-.25.4q-7.7 11.15-8.45 28.5l-1.3 2.55q.35-4.05-.3-7.1-3.35-7.5-18.4 8.95-5.25 4-12.2 4.6l-9.05-.5Q13.35 69 10.15 63q-1.6-1.8-3-2 2.15-2.05 4.7-2.05 7.4 2.8 14 .4 9.8-3.55 17.85-18.5Q59.05-2.65 73.75.2q6.5 5.4 8.6 14.6 1.9 10.6-4.95 16.55" fill="#352c5c" fill-rule="evenodd" transform="translate(0 1)"/><path d="M58.05 61.65q.75-17.35 8.45-28.5l.25-.4q3.45-4.45 9.75-1.2-11.35 3.2-14.35 17.8-1.35 6.7-4.1 12.3" fill="#7a86ff" fill-rule="evenodd" transform="translate(0 1)"/><path d="M56.45 57.1q.65 3.05.3 7.1-12.4 20.75-36.7 24.45 8-3.15 16.25-10.05 14.2-9.95 20.15-21.5" fill="#dba2ff" fill-rule="evenodd" transform="translate(0 1)"/><path d="M7.15 61q1.4.2 3 2 3.2 6 6.65 7.15l9.05.5q6.95-.6 12.2-4.6Q53.1 49.6 56.45 57.1 50.5 68.65 36.3 78.6q-8.25 6.9-16.25 10.05l-5.05.2q-4.9.65-13.65-3.1-3.45-6.4 1.95-18.95l.2-.45q1.65-3.5 3.65-5.35" fill="#8670e9" fill-rule="evenodd" transform="translate(0 1)"/><path d="m76.5 32.55.9-.2M56.75 65.2l1.3-2.55q2.75-5.6 4.1-12.3 3-14.6 14.35-17.8m-56.45 57.1q24.3-3.7 36.7-24.45M15 89.85l5.05-.2" fill="none" stroke="#16122c" stroke-linecap="round" stroke-linejoin="round" stroke-width="2"/><path d="M73.75 1.2Q59.05-1.65 43.7 41.85q-8.05 14.95-17.85 18.5-6.6 2.4-14-.4" fill="none" stroke="#535faf" stroke-linecap="round" stroke-linejoin="round" stroke-width="2"/></g><g id="al"><path d="m75.55 13.75 6.8 5.3q3.6 5.2 12.9 10-7.6-1.75-14-6.55-5.5-4.45-5.7-8.75m25.3 25 1.45 1.3q-9.1.3-11.7-1.95-1.9-1.55-2.8-3.1l.1-.1q5 4.95 12.95 3.85" fill="#b7fcf6" fill-rule="evenodd" transform="translate(1 1)"/><path d="M102.3 40.05q2.05 2 3.45 4.45-6.75 6.9-23.9 4.05l-7.1-11.7Q61.05 9.35 70 8.9l5.55 4.85q.2 4.3 5.7 8.75 6.4 4.8 14 6.55-9.7 3.5-7.6 5.65l.15.3q.9 1.55 2.8 3.1 2.6 2.25 11.7 1.95" fill="#84a5ff" fill-rule="evenodd" transform="translate(1 1)"/><path d="M82.35 19.05q9.25 6.7 18.65 10.7-4.35 2.45-10.15 3.9 6 1.8 10 5.1-7.95 1.1-12.95-3.85l-.25-.2q-2.1-2.15 7.6-5.65-9.3-4.8-12.9-10" fill="#cbc4ff" fill-rule="evenodd" transform="translate(1 1)"/><path d="M103.3 41.05q2.05 2 3.45 4.45-6.75 6.9-23.9 4.05l-7.1-11.7Q62.05 10.35 71 9.9l5.55 4.85 6.8 5.3q9.25 6.7 18.65 10.7-4.35 2.45-10.15 3.9 6 1.8 10 5.1l1.45 1.3z" fill="none" stroke="#535ead" stroke-linecap="round" stroke-linejoin="round" stroke-width="2"/><path d="M45.7 87.45q22.05-6.9 44.1-22.85l-9.45 32.2-4.7-8.2q-2.7.55-6.05 6.1l-7.65-9.65Q59.2 95.5 53 105.9q-4.75-6.75-7.3-18.45" fill="#84a5ff" fill-rule="evenodd" transform="translate(1 1)"/><path d="M46.7 88.45q2.55 11.7 7.3 18.45 6.2-10.4 8.95-20.85l7.65 9.65q3.35-5.55 6.05-6.1l4.7 8.2 9.45-32.2Q68.75 81.55 46.7 88.45z" fill="none" stroke="#525ead" stroke-linecap="round" stroke-linejoin="round" stroke-width="2"/><path d="m17.4 67.7.45 1.25q-14.5 23.4-13.75 39-2.5-1.1-3.75-2.75Q2.5 90.1 17.4 67.7m5.7 63.5h.05q8.85 5.55 26.3 5.8-19.8 5.3-39.6-8.1-4.3-2.85-6.75-6.8-4.2-6.8-2.75-16.9 1.25 1.65 3.75 2.75.3 6.15 2.95 11.1 1.6 3.65 3.7 6.2 4.8 5.8 12.35 5.95m-20-9.1q3.55 2.65 7.65 3.15-4.1-.5-7.65-3.15" fill="#cbacff" fill-rule="evenodd" transform="translate(1 1)"/><path d="M17.85 68.95q2.65 6.75 6.55 13.3-5.35 10.8-8.75 20.95-1 3.4-1.4 6.5-1.2 9.05 2.5 15.15 2.25 3.7 6.35 6.3v.05q-7.55-.15-12.35-5.95-2.1-2.55-3.7-6.2-2.65-4.95-2.95-11.1 3.7 1.55 10.15 1.75-6.45-.2-10.15-1.75-.75-15.6 13.75-39m-1.1 55.9-6 .4 6-.4" fill="#946abc" fill-rule="evenodd" transform="translate(1 1)"/><path d="M50.45 138q-19.8 5.3-39.6-8.1-4.3-2.85-6.75-6.8-4.2-6.8-2.75-16.9Q3.5 91.1 18.4 68.7M5.1 108.95q-2.5-1.1-3.75-2.75m10.4 20.05 6-.4m-2.5-15.15q-6.45-.2-10.15-1.75m6.65 17.3q-4.1-.5-7.65-3.15" fill="none" stroke="#593b90" stroke-linecap="round" stroke-linejoin="round" stroke-width="2"/><path d="M24.4 82.25q-3.9-6.55-6.55-13.3l-.45-1.25q-6.75-18.35-3.9-38.3Q17.65 6.5 31.3 1.45 37.15-.75 44.7.4l1.05.15Q60.55 4.7 70.7 11.4 86.45 26 89.1 48.6q-.05 16.25-8.8 32.85-7.15 7.1-18.45 13.35-4.5 2.45-9.65 4.8-18.35 8.65-8.1 17.3 2.8 1.8 11.75 1.55l.2.3q-14.15 2.95-18.15-1.5-5.6-11.65-14.8-6.3-8.1 6.9 0 20.2-4.1-2.6-6.35-6.3-3.7-6.1-2.5-15.15.4-3.1 1.4-6.5 3.4-10.15 8.75-20.95 3.1-6.35 6.9-12.95Q41.25 52 55.65 33.25 41.25 52 31.3 69.3q-3.8 6.6-6.9 12.95" fill="#352c5c" fill-rule="evenodd" transform="translate(1 1)"/><path d="M80.3 81.45q8.75-16.6 8.8-32.85Q86.45 26 70.7 11.4q24.15 16.05 21.55 46.65Q91 70.75 80.3 81.45" fill="#7a86ff" fill-rule="evenodd" transform="translate(1 1)"/><path d="M56.05 118.75q7.1 9.1-6.6 18.25-17.45-.25-26.3-5.8l-.05-.05q-8.1-13.3 0-20.2 9.2-5.35 14.8 6.3 4 4.45 18.15 1.5" fill="#8670e9" fill-rule="evenodd" transform="translate(1 1)"/><path d="M71.7 12.4Q61.55 5.7 46.75 1.55L45.7 1.4Q38.15.25 32.3 2.45 18.65 7.5 14.5 30.4q-2.85 19.95 3.9 38.3l.45 1.25q2.65 6.75 6.55 13.3 3.1-6.35 6.9-12.95Q42.25 53 56.65 34.25m24.65 48.2q10.7-10.7 11.95-23.4 2.6-30.6-21.55-46.65M50.45 138q-17.45-.25-26.3-5.8l-.05-.05q-4.1-2.6-6.35-6.3-3.7-6.1-2.5-15.15.4-3.1 1.4-6.5 3.4-10.15 8.75-20.95m55.9-.8q-7.15 7.1-18.45 13.35-4.5 2.45-9.65 4.8-18.35 8.65-8.1 17.3" fill="none" stroke="#16122c" stroke-linecap="round" stroke-linejoin="round" stroke-width="2"/><path d="m68.65 70.45-6.15 7.1q-3.25-4.55-9-8l.95-9.7q8.2 4.2 14.2 10.6M64 79.95l7.1-6.7q2.3 2.8 4.2 6.05l-8.9 7.4q-.7-3.6-2.4-6.75" fill="#9b5d0c" fill-rule="evenodd" transform="translate(1 1)"/><path d="m62.5 77.55 6.15-7.1 2.45 2.8-7.1 6.7-1.5-2.4" fill="#ffe234" fill-rule="evenodd" transform="translate(1 1)"/><path d="m66.4 86.7 8.9-7.4 2.55 4.8-11.05 7.05-.4-4.45" fill="#f27f7c" fill-rule="evenodd" transform="translate(1 1)"/><path d="M69.65 71.45q-6-6.4-14.2-10.6l-.95 9.7q5.75 3.45 9 8l1.5 2.4q1.7 3.15 2.4 6.75l.4 4.45 11.05-7.05-2.55-4.8q-1.9-3.25-4.2-6.05l-2.45-2.8z" fill="none" stroke="#652a00" stroke-linecap="round" stroke-linejoin="round" stroke-width="2"/></g><g id="am"><path d="m65.3.05.45.15q10.4 3.05 16.4 8.55 18.55 20.6 12.3 61.65-4.65 12.1-15.2 20.25l-1.15.75.85-1.95Q90.35 63.6 89.1 43.6 86.5 12.85 65.25 9.3l-.55-.1h-.1q-12.7.4-22.9 2.25 25.25 4.6 24.4 29.3-1.9 17.05-7.6 27.9-2.15 4.1-4.85 7.3-6.6 7.85-16.45 10.35l-2.2.45q11.5-6.95.15-19.25-17.95-15.95-6.8-43.95-8.95-.4-16.9 4.45-4.55 2.8-8.85 7.4 5.6-12.05 20.55-18.6Q39.5 1.55 65.3.05M23.15 16.8q7.95-3.45 18.55-5.35-10.6 1.9-18.55 5.35" fill="#352c5c" fill-rule="evenodd" transform="translate(1 1)"/><path d="M65.75.2V0q26.2.9 31.7 37.3 2.4 19.15-3 33.1 6.25-41.05-12.3-61.65-6-5.5-16.4-8.55" fill="#7a86ff" fill-rule="evenodd" transform="translate(1 1)"/><path d="M41.7 11.45Q51.9 9.6 64.6 9.2h.1l.55.1Q86.5 12.85 89.1 43.6q1.25 20-10.15 45.85l-.85 1.95q-8.05 5.15-16.6 8.6l-.85.2q-16.55 3.6-28.8 0l11.65-.5q3.95-1.25 7.05-2.8 9.65-4.85 11.25-12.65 1.3-6.7-3.3-15.6 5.7-10.85 7.6-27.9.85-24.7-24.4-29.3m37.25 78q-9.8-.05-17.15-5.2 7.35 5.15 17.15 5.2m-18.3 10.75q-5.6-1.3-10.1-3.3 4.5 2 10.1 3.3" fill="#946abc" fill-rule="evenodd" transform="translate(1 1)"/><path d="m35 86.75 2.2-.45q4.7 6.7 13.35 10.6Q41.9 93 37.2 86.3q9.85-2.5 16.45-10.35 2.7-3.2 4.85-7.3 4.6 8.9 3.3 15.6-4.55-3.2-8.15-8.3 3.6 5.1 8.15 8.3-1.6 7.8-11.25 12.65-3.1 1.55-7.05 2.8l-11.65.5-3.35-1.15q-3.7-2.9-6.15-5.8-5.4-4.5-8.9-10.3 2.1 1.4 4.6 2.45 3 1.25 6.5 2L35 86.75m-12.65 6.5q-3.3-3.9-4.3-7.85 1 3.95 4.3 7.85" fill="#cbacff" fill-rule="evenodd" transform="translate(1 1)"/><path d="m35 86.75-10.45.65q-3.5-.75-6.5-2-2.5-1.05-4.6-2.45-2.85-4.65-4.5-10.15Q.3 49.6 11.45 28q7.95-4.85 16.9-4.45-11.15 28 6.8 43.95Q46.5 79.8 35 86.75" fill="#8670e9" fill-rule="evenodd" transform="translate(1 1)"/><path d="M2.6 35.4q4.3-4.6 8.85-7.4Q.3 49.6 8.95 72.8q1.65 5.5 4.5 10.15-4.65-3-7.7-7.65Q-2 63.4.7 40.7q.75-2.8 1.9-5.3" fill="#dba2ff" fill-rule="evenodd" transform="translate(1 1)"/><path d="M22.35 93.25q2.45 2.9 6.15 5.8Q13.6 93.1 5.75 75.3q3.05 4.65 7.7 7.65 3.5 5.8 8.9 10.3" fill="#ffdbf5" fill-rule="evenodd" transform="translate(1 1)"/><path d="m66.75 1-.45.05Q40.5 2.55 24.15 17.8 9.2 24.35 3.6 36.4q-1.15 2.5-1.9 5.3Q-1 64.4 6.75 76.3q3.05 4.65 7.7 7.65 2.1 1.4 4.6 2.45 3 1.25 6.5 2L36 87.75l2.2-.45q9.85-2.5 16.45-10.35 2.7-3.2 4.85-7.3 5.7-10.85 7.6-27.9.85-24.7-24.4-29.3-10.6 1.9-18.55 5.35m71.3 53.6q5.4-13.95 3-33.1Q92.95 1.9 66.75 1M42.7 12.45q10.2-1.85 22.9-2.25h.1l.55.1Q87.5 13.85 90.1 44.6q1.25 20-10.15 45.85l-.85 1.95m1.15-.75Q90.8 83.5 95.45 71.4" fill="none" stroke="#16122c" stroke-linecap="round" stroke-linejoin="round" stroke-width="2"/><path d="m79.1 92.4 1.15-.75m-61.2-5.25q1 3.95 4.3 7.85 2.45 2.9 6.15 5.8l3.35 1.15q12.25 3.6 28.8 0l.85-.2q8.55-3.45 16.6-8.6m-27.55 5.5Q42.9 94 38.2 87.3m16.45-10.35q3.6 5.1 8.15 8.3 7.35 5.15 17.15 5.2m-28.4 7.45q4.5 2 10.1 3.3M6.75 76.3q7.85 17.8 22.75 23.75" fill="none" stroke="#593b90" stroke-linecap="round" stroke-linejoin="round" stroke-width="2"/><path d="m56.6 61.05-.35-.7Q55.9 60 55.4 60t-.8.35q-.35.3-.35.8l.05.45.05.05-.95 1q1-3.25-2.5-3.85 3.5-2.6 6.95-2.1.95 2.85.85 5-1.05-.95-2.1-.65" fill="url(#F)" fill-rule="evenodd" transform="translate(1 1)"/><path d="m54.35 61.65-.05-.05-.05-.45q0-.5.35-.8.3-.35.8-.35t.85.35l.35.7v.1q0 .5-.35.85t-.85.35q-.5 0-.8-.35l-.25-.35m3.5-4.95q-3.45-.5-6.95 2.1 3.5.6 2.5 3.85l-.35.6q-3.5 2.7-4-1.85-.55 2.85-.6 5.7-1.8-2.15-1.8-5 0-3.25 2.25-5.5t5.5-2.25q1.45 0 2.75.5l.7 1.85" fill="#beffd6" fill-rule="evenodd" transform="translate(1 1)"/><path d="M56.6 61.05q1.05-.3 2.1.65-.1 2.7-1.85 4.35-.85.65-3.55 1.3-1.1-2.3-.25-4.1l.35-.6.95-1 .25.35q.3.35.8.35t.85-.35q.35-.35.35-.85v-.1" fill="#00258c" fill-rule="evenodd" transform="translate(1 1)"/><path d="M58.7 61.7q.1-2.15-.85-5l-.7-1.85q1.45.55 2.7 1.75 2.25 2.25 2.25 5.5 0 3.2-2.25 5.45T54.4 69.8q-1.6 0-2.9-.5.6-1.25 1.8-1.95 2.7-.65 3.55-1.3 1.75-1.65 1.85-4.35" fill="#6ba3f3" fill-rule="evenodd" transform="translate(1 1)"/><path d="M51.5 69.3q-1.45-.6-2.6-1.75l-.45-.45q.05-2.85.6-5.7.5 4.55 4 1.85-.85 1.8.25 4.1-1.2.7-1.8 1.95" fill="url(#G)" fill-rule="evenodd" transform="translate(1 1)"/><path d="M49.45 68.1q-1.8-2.15-1.8-5 0-3.25 2.25-5.5t5.5-2.25q1.45 0 2.75.5 1.45.55 2.7 1.75 2.25 2.25 2.25 5.5 0 3.2-2.25 5.45T55.4 70.8q-1.6 0-2.9-.5-1.45-.6-2.6-1.75l-.45-.45z" fill="none" stroke="#01258b" stroke-linecap="round" stroke-linejoin="round" stroke-width="2"/><path d="m55.75 81.4-.35-.15v-.3l2.9-2.8v1l-2.55 2.25m-.3-2.9q.15-2.1.6-4.15h2.25v1.55l-2.85 2.6" fill="#ffe234" fill-rule="evenodd" transform="translate(1 1)"/><path d="m55.75 81.4 2.55-2.25v2.1l-2.55.15m2.55-3.25-2.9 2.8.05-2.45 2.85-2.6v2.25" fill="#9b5d0c" fill-rule="evenodd" transform="translate(1 1)"/><path d="M56.4 81.95v.3l.35.15 2.55-.15v-6.9h-2.25q-.45 2.05-.6 4.15l-.05 2.45z" fill="none" stroke="#652a00" stroke-linecap="round" stroke-linejoin="round" stroke-width="2"/><path d="m36.15 77.35-.3-.75 8.7-5.95 1.15 1.15-3.5 3.4-6.05 2.15" fill="#ffe234" fill-rule="evenodd" transform="translate(1 1)"/><path d="m42.2 75.2-3.95 3.85q-1.55-.6-2.1-1.7l6.05-2.15" fill="#9b5d0c" fill-rule="evenodd" transform="translate(1 1)"/><path d="m37.15 78.35-.3-.75 8.7-5.95 1.15 1.15-3.5 3.4-3.95 3.85q-1.55-.6-2.1-1.7z" fill="none" stroke="#652a00" stroke-linecap="round" stroke-linejoin="round" stroke-width="2"/><path d="M51.65 75.65 48.8 82.3l-7.6 5.25 1.3-2.7 1.75-3.4 7.4-5.8m-3.7 8.65-1.05 2.5-5.9 3.8-.75-.85.35-.85 7.35-4.6" fill="#9b5d0c" fill-rule="evenodd" transform="translate(1 1)"/><path d="m51.65 75.65-7.4 5.8 1.9-3.3q1.5-2.5 3.1-4.7l2.85 1.2-.45 1M41.2 87.55l7.6-5.25-.85 2-7.35 4.6.6-1.35m5.7-.75-2.15 5q-2.4-.05-3.75-1.2l5.9-3.8" fill="#ffe234" fill-rule="evenodd" transform="translate(1 1)"/><path d="m49.8 83.3 2.85-6.65.45-1-2.85-1.2q-1.6 2.2-3.1 4.7l-1.9 3.3-1.75 3.4-1.3 2.7-.6 1.35-.35.85.75.85q1.35 1.15 3.75 1.2l2.15-5 1.05-2.5.85-2z" fill="none" stroke="#652a00" stroke-linecap="round" stroke-linejoin="round" stroke-width="2"/></g><g id="an"><path d="M7.15 9.35Q17.9-3.2 29.55 14.3l1.5-6.75q2.1-11.65.8-20.25 3.1-29.5 18.45-21.95 7.1 6.85 5.2 27.55-12.4 13.3-18.4 29 .75 2.15 2.85 2.4 2.35 3.3-2.55 7.65-1.15 3.85-3.7 3.9v-.2l.1-.9q.15-2.5-1.35-3.75-1.05-.8-2.8-1.05 0-3.3-5.05-3.7-4.7-1.8-7.95-.1l-1.6-.6 2.05-3.15q3.85-6.2-2.75-8.05l-.8-.2-.85-.15q.6-1.95-1.4-3.3l-3-1.1-1.15-.25M34.4 21.9h2.7-2.7" fill="#352c5c" fill-rule="evenodd" transform="translate(1 37.2)"/><path d="m7.15 9.35 1.15.25q-5.7 7.45-6.8 15.7l-.25.5q-2.7-9.1.5-14.75l.05-.1.05-.1q1.85-2.05 5.3-1.5m22.5 20.6q1.75.25 2.8 1.05-3.8 5.4-9.45 5.7l-3.5-.3q2.45-1.75 4.55-4.3l.15-.15q1.8-2.3 4.95-2.1l.5.1m-20.25-.1q-1.2-3.15-2.25-9l-.2-1.8q-.2-2.3.6-3.6.85-1.4 2.85-1.55 2.05 10.65-1 15.95" fill="#fff" fill-rule="evenodd" transform="translate(1 37.2)"/><path d="m13.55 14.15.8.2q6.6 1.85 2.75 8.05l-2.05 3.15q-2.25 3.9-3.2 7.75-1-.4-1.85-2.2l2.45-4.9q1.95-4 1.1-12.05m20.25 20.6-.1.9v.05l-.05.15h.05q-.25 1.7-1.95 2.55-6.25 1.85-13.45-1.2l1.2-.8 3.5.3q4.95 1.2 10.8-1.95M7.55 15.45q-.8 1.3-.6 3.6-3.65 3.85-5.4 7.7l-.3-.95.25-.5q4.25-9.6 6.05-9.85" fill="#eca4ff" fill-rule="evenodd" transform="translate(1 37.2)"/><path d="m8.3 9.6 3 1.1q2 1.35 1.4 3.3l.85.15q.85 8.05-1.1 12.05L10 31.1l-.6-1.25q3.05-5.3 1-15.95-2 .15-2.85 1.55-1.8.25-6.05 9.85 1.1-8.25 6.8-15.7M32.45 31q1.5 1.25 1.35 3.75Q27.95 37.9 23 36.7q5.65-.3 9.45-5.7M10.4 13.9l2.3.1-2.3-.1" fill="#8392cc" fill-rule="evenodd" transform="translate(1 37.2)"/><path d="M16.65 26.15q3.25-1.7 7.95.1 5.05.4 5.05 3.7l-.5-.1q-3.15-.2-4.95 2.1-2.65-3.85-7.55-5.8" fill="#8670e9" fill-rule="evenodd" transform="translate(1 37.2)"/><path d="M38.1 59.1q6-15.7 18.4-29 1.9-20.7-5.2-27.55Q35.95-5 32.85 24.5q1.3 8.6-.8 20.25l-1.5 6.75Q18.9 34 8.15 46.55m7.9 16.2 1.6.6q4.9 1.95 7.55 5.8m9.5 3.9q2.55-.05 3.7-3.9 4.9-4.35 2.55-7.65-2.1-.25-2.85-2.4h-2.7m2.7 0q1.95 1.1 2.85 2.4m-6.3 11.55h.05" fill="none" stroke="#16122c" stroke-linecap="round" stroke-linejoin="round" stroke-width="2"/><path d="m8.15 46.55 1.15.25 3 1.1q2 1.35 1.4 3.3l.85.15.8.2q6.6 1.85 2.75 8.05l-2.05 3.15q-2.25 3.9-3.2 7.75-1-.4-1.85-2.2l-.6-1.25q-1.2-3.15-2.25-9l-.2-1.8q-3.65 3.85-5.4 7.7l-.3-.95q-2.7-9.1.5-14.75l.05-.1.05-.1q1.85-2.05 5.3-1.5m22.5 20.6q1.75.25 2.8 1.05 1.5 1.25 1.35 3.75l-.1.9v.2q-.25 1.7-1.95 2.55-6.25 1.85-13.45-1.2l1.2-.8q2.45-1.75 4.55-4.3l.15-.15q1.8-2.3 4.95-2.1l.5.1M11.4 51.1q-2 .15-2.85 1.55-.8 1.3-.6 3.6m5.75-5.05-2.3-.1m23.3 21.8-.05.15" fill="none" stroke="#3f4278" stroke-linecap="round" stroke-linejoin="round" stroke-width="2"/></g><g id="ao"><path d="M18.75 10.05 18 3.6l5.25 3.2h.05q7.3 5.95 18.15 11.35-11.65-1.3-22.7-8.1M33.7 26.2q4 6.75 7.65 11.65l1.55 3.4q-8.2-6.2-9.2-15.05m3.55 23.75.7 2.45q-5-1.95-9.75-8.25-3.6-5.8-2.4-11.6 7.1 13.2 11.45 17.4" fill="#b7fcf6" fill-rule="evenodd" transform="translate(0 1)"/><path d="M41.45 18.15Q30.6 12.75 23.3 6.8q11.95 6.9 27.3 12.3-4.1 7.6-12.4 7.95.95 5.5 3.15 10.8-3.65-4.9-7.65-11.65 6.45-1.8 11.55-6.2l-3.8-1.85m2 24.15 1.3 2.35q-4.5 1.95-7.75-2.4-.55 4 .25 7.7-4.35-4.2-11.45-17.4 8.65 8.2 17.65 9.75" fill="#cbc4ff" fill-rule="evenodd" transform="translate(0 1)"/><path d="M18.75 10.05q11.05 6.8 22.7 8.1l3.8 1.85q-5.1 4.4-11.55 6.2 1 8.85 9.2 15.05l.55 1.05q-9-1.55-17.65-9.75-1.2 5.8 2.4 11.6 4.75 6.3 9.75 8.25l.6 1.55q-10.9-1.4-15.7-8.25l-4.1-35.65" fill="#84a5ff" fill-rule="evenodd" transform="translate(0 1)"/><path d="M23.25 7.8 18 4.6m23.35 34.25q-2.2-5.3-3.15-10.8 8.3-.35 12.4-7.95-15.35-5.4-27.3-12.3m19.6 34.45.55 1.05 1.3 2.35q-4.5 1.95-7.75-2.4-.55 4 .25 7.7l.7 2.45.6 1.55q-10.9-1.4-15.7-8.25m18.5-7.85 1.55 3.4" fill="none" stroke="#525ead" stroke-linecap="round" stroke-linejoin="round" stroke-width="2"/><path d="M10.35.05q3.35-.2 7.55 1.1 22.85 15.45 16.3 37.8l-.35.95q-.1-3.1-.6-6.35v-.1l-.15-.7v-.25l-.05-.15Q30 14.1 21.15 6.65 15.95.4 3 3.8 5.6 1.3 10.35.05" fill="#7a86ff" fill-rule="evenodd" transform="translate(0 1)"/><path d="M32.45 43.3q1-15-4.25-14.35-13.65 18.3-14.5 34.75l-2.25 2.6q-1.1-8.5 3.5-19.85 5.25-16-5.6-14.65-4.85-4.5-6.2-9.05Q-3.1 9.75 3 3.8 15.95.4 21.15 6.65q8.85 7.45 11.9 25.7l.05.15v.25l.15.7v.1q.5 3.25.6 6.35l-1.4 3.4" fill="#352c5c" fill-rule="evenodd" transform="translate(0 1)"/><path d="M13.7 63.7q.85-16.45 14.5-34.75 5.25-.65 4.25 14.35-3 6.55-7.9 10.4-6 4.65-10.85 10m2.65-5.05q4.5-3.85 5.35-8.85l.85-6.85-4.9 9.1-1.3 6.6" fill="#8670e9" fill-rule="evenodd" transform="translate(0 1)"/><path d="m16.35 58.65 1.3-6.6 4.9-9.1-.85 6.85q-.85 5-5.35 8.85" fill="#dba2ff" fill-rule="evenodd" transform="translate(0 1)"/><path d="M10.35 1.05q3.35-.2 7.55 1.1l.8.25m13.75 41.9 1.4-3.4.35-.95q6.55-22.35-16.3-37.8M9.35 32.8q10.85-1.35 5.6 14.65-4.6 11.35-3.5 19.85l2.25-2.6q4.85-5.35 10.85-10 4.9-3.85 7.9-10.4" fill="none" stroke="#16122c" stroke-linecap="round" stroke-linejoin="round" stroke-width="2"/></g><g id="aq"><path d="m29.45-30.75.3.5q1.25 1.65 3.1 3.15l4.9 3.95q6.15 5.4 6.15 11.1 0 7.05-5.6 10.8L34.45 1.2q-2.15 1.35-2.7 2.15-.55.75-.6 1.6v1.3q.1.9-.35 1.5-.5.6-.5 1.05l.45.45.05.05-2.9 4.25q-1.5-7.3-6.95-7.45l-.55-.75 1.95-3.85Q23.8-.25 26.2.05l.55-3 .5-2.9q0-.8-4.3-6.8t-4.3-8.65q0-2.75 5.1-6.4 2.75-2 5.7-3.05M30 1.5Q27.85.25 26.2.05q1.65.2 3.8 1.45M11.25 31.65q-.4-6.05-2.65-9.4l-.05-.1-.25-.25-.5-.75q3.1 1.45 4.95 1.7l.25.7.2-.45q2.9.8 4.65 2v.6l.8-.1h.25q2.5 5.85-1.5 9.05l-.25-.55q-.65-1.35-2.25-1.75-1.85-.05-3.65-.7M7.95 5.6l5.45.2q-1.6 1.95-2.2 4.55l-.6-1.7L9.45 6.7l-1.5-1.1M26.2 3.85l-.3-.65-.6-.25q-.4 0-.65.25t-.25.65l.25.6q.25.3.65.3l.6-.3.3-.6" fill="#8670e9" fill-rule="evenodd" transform="translate(1 33)"/><path d="m27.9 13.55 2.9-4.25-.05-.05-.45-.45q0-.45.5-1.05.45-.6.35-1.5v-1.3q.05-.85.6-1.6.55-.8 2.7-2.15l3.85-2.45q5.6-3.75 5.6-10.8 0-5.7-6.15-11.1l-4.9-3.95q-1.85-1.5-3.1-3.15l-.3-.5q-.55-1.2 1.8-1l1.6.1 3.9-.35q8.6 0 13.7 4.3 5.6 4.65 5.6 13.45 0 12.05-7.75 18.2Q42.65 8.5 35.9 8.5q-1.85 0-2.55-.5v.3l-.05.1-1.1 2 2.35 9.1q.3 2.5-7.5 8.85L25.8 29.4q-2.6 3.7-3.6 8.8-2.95 8.75-8.2 4.25 2.15.55 3.45-3.8l.2-2.35-.25-1.65q4-3.2 1.5-9.05l.95-.2q4.05-.9 8.7-3.75.3-3.85-.45-6.35h.05l-.25-1.75m-20.1 7.6-.9-1.3q1.2-3.55 3.95-6.35 0 3.15 1.1 6.95l.8 2.4q-1.85-.25-4.95-1.7m21.65-51.9 3.4-.9-3.4.9M25.8 29.4l.05-.1q8.05-9.9 2.3-14 5.75 4.1-2.3 14l-.05.1m-3.85-15.3q-2.75 3.05-3.65 6.85-.5 1.95-.45 4.15-1.75-1.2-4.65-2 1.35-2.85 3.95-5.3 2-1.95 4.8-3.7" fill="#352c5c" fill-rule="evenodd" transform="translate(1 33)"/><path d="m26.2 3.85-.3.6-.6.3q-.4 0-.65-.3l-.25-.6q0-.4.25-.65t.65-.25l.6.25.3.65" fill="#dba2ff" fill-rule="evenodd" transform="translate(1 33)"/><path d="M20.95 6.1q5.45.15 6.95 7.45l.25 1.75h-.05l-.1-.4-.4-1q-.7-1.45-1.85-2.25l-.6-.4-1.5 1.2L21.9 7.7l-.95-1.6" fill="#856fe8" fill-rule="evenodd" transform="translate(1 33)"/><path d="M8.1 35.25q-.9-2.05-1.3-4.2 5 5.75 7.5 5.25 1.55-.45 2.85-2.2l.25.55.25 1.65-2.25 2.55q-1.75.4-7.3-3.6M6.35 22.1l-.3 2.3-1.7-1.5q-.5-4.2.1-7.5 1-5.55 5-8.7l1.15 1.95Q6.35 14 5.85 18.1q-.3 2.15.5 4m9.4-18.4q2.55-1 4.65 1.65l.55.75.95 1.6q-1.95 5.35-5.15 8.9-2.15 2.3-4.8 3.85 6.5-10.1 6.3-14.05.05-1.75-1.1-1.65l-1.4-1.05m10 7.95q1.15.8 1.85 2.25l.4 1q-1.6 5.3-8.25 10.15l-.85.55h-.25l.95-.95q5.05-5.25 6.2-8.35.65-1.85-.05-3v-1.65" fill="#8392cc" fill-rule="evenodd" transform="translate(1 33)"/><path d="m6.8 31.05-.25-2.3q2.35 2.05 4.7 2.9 1.8.65 3.65.7 1.6.4 2.25 1.75-1.3 1.75-2.85 2.2-2.5.5-7.5-5.25M4.35 22.9q-6.8-6.6-2.95-12.05l2.85-3.7Q6.3 5.2 7.95 5.6l1.5 1.1q-4 3.15-5 8.7-.6 3.3-.1 7.5M13.4 5.8l1.8-1.85.55-.25 1.4 1.05q1.15-.1 1.1 1.65.2 3.95-6.3 14.05-1.1-3.8-1.1-6.95 0-1.65.35-3.15.6-2.6 2.2-4.55m10.25 6.65 1.5-1.2.6.4v1.65q.7 1.15.05 3-1.15 3.1-6.2 8.35l-.95.95-.8.1v-.6q-.05-2.2.45-4.15.9-3.8 3.65-6.85l1.7-1.65" fill="#fff" fill-rule="evenodd" transform="translate(1 33)"/><path d="M14 42.45q-1.6-.4-3.7-3.55-1.35-1.8-2.2-3.65 5.55 4 7.3 3.6l2.25-2.55-.2 2.35Q16.15 43 14 42.45m-7.1-22.6q-.35 1.05-.55 2.25-.8-1.85-.5-4 .5-4.1 4.75-9.45l.6 1.7q-.35 1.5-.35 3.15-2.75 2.8-3.95 6.35M28 14.9l.1.4q.75 2.5.45 6.35-4.65 2.85-8.7 3.75l-.95.2.85-.55Q26.4 20.2 28 14.9m-6.1-7.2 1.75 4.75-1.7 1.65q-2.8 1.75-4.8 3.7-2.6 2.45-3.95 5.3l-.2.45-.25-.7-.8-2.4q2.65-1.55 4.8-3.85 3.2-3.55 5.15-8.9" fill="#eca4ff" fill-rule="evenodd" transform="translate(1 33)"/><path d="M30.45 2.25Q27.5 3.3 24.75 5.3q-5.1 3.65-5.1 6.4 0 2.65 4.3 8.65t4.3 6.8l-.5 2.9-.55 3q1.65.2 3.8 1.45m2.85-33.15 3.9-.35q8.6 0 13.7 4.3 5.6 4.65 5.6 13.45 0 12.05-7.75 18.2-5.65 4.55-12.4 4.55-1.85 0-2.55-.5v.3m-.05.1-1.1 2 2.35 9.1q.3 2.5-7.5 8.85L26.8 62.4q-2.6 3.7-3.6 8.8-2.95 8.75-8.2 4.25m-2.75-10.8q-.4-6.05-2.65-9.4l-.05-.1-.25-.25-.5-.75-.9-1.3M8.95 38.6l5.45.2m7-.45 1.95-3.85q1.45-1.75 3.85-1.45m6.65-31.7-3.4.9m-8.5 36.85q5.45.15 6.95 7.45l.25 1.75q5.75 4.1-2.3 14l-.05.1" fill="none" stroke="#16122c" stroke-linecap="round" stroke-linejoin="round" stroke-width="2"/><path d="M15 75.45q-1.6-.4-3.7-3.55-1.35-1.8-2.2-3.65-.9-2.05-1.3-4.2l-.25-2.3q2.35 2.05 4.7 2.9 1.8.65 3.65.7 1.6.4 2.25 1.75l.25.55.25 1.65-.2 2.35Q17.15 76 15 75.45m-7.1-22.6q-.35 1.05-.55 2.25l-.3 2.3-1.7-1.5q-6.8-6.6-2.95-12.05l2.85-3.7q2.05-1.95 3.7-1.55l1.5 1.1 1.15 1.95.6 1.7q-.35 1.5-.35 3.15 0 3.15 1.1 6.95l.8 2.4.25.7.2-.45q1.35-2.85 3.95-5.3 2-1.95 4.8-3.7-2.75 3.05-3.65 6.85-.5 1.95-.45 4.15v.6l.8-.1h.25l.95-.2q4.05-.9 8.7-3.75.3-3.85-.45-6.35l-.1-.4-.4-1q-.7-1.45-1.85-2.25l-.6-.4-1.5 1.2-1.7 1.65m-8.55-8.3 1.8-1.85.55-.25q2.55-1 4.65 1.65l.55.75.95 1.6 1.75 4.75m-12.45-2.1q.6-2.6 2.2-4.55m-2.55 7.7Q9.1 49.3 7.9 52.85" fill="none" stroke="#3f4278" stroke-linecap="round" stroke-linejoin="round" stroke-width="2"/></g><g id="k" transform="translate(1.4 -2.65)"><use ffdec:characterId="54" height="66.35" transform="translate(3.15 18.9)" width="14.75" xlink:href="#H"/><use ffdec:characterId="55" height="91.85" transform="translate(42.1 41.1)" width="69.4" xlink:href="#I"/><use ffdec:characterId="56" height="53" transform="translate(30.6 66.95)" width="62.35" xlink:href="#J"/><use ffdec:characterId="57" height="67.25" transform="translate(11.95 29.8)" width="68.3" xlink:href="#K"/><use ffdec:characterId="58" height="53.2" transform="translate(-1 67.45)" width="53.1" xlink:href="#L"/><use ffdec:characterId="59" height="22.15" transform="translate(18.5 77.25)" width="19.35" xlink:href="#M"/><use ffdec:characterId="60" height="83.45" transform="translate(33.2 26.2)" width="43" xlink:href="#N"/><use ffdec:characterId="61" height="52.2" transform="translate(4.55 39.75)" width="38.95" xlink:href="#O"/><use ffdec:characterId="62" height="56.75" transform="translate(27.95 17.4)" width="29.1" xlink:href="#P"/><use ffdec:characterId="63" height="10.35" transform="translate(24.85 66.4)" width="15" xlink:href="#Q"/><use ffdec:characterId="64" height="27.05" transform="translate(5.15 51.2)" width="14.7" xlink:href="#R"/></g><g id="H"><path d="M7.8.25 8.2 0q3.6 1.9 4.55 6.45L12.2 64.3h-.35L10.3 33.75 7.8.25M.35 25.45q1.15-2.2 5.35 1.45l1.2 11.65Q3.85 30.1.35 25.45" fill="#8392cc" fill-rule="evenodd" transform="translate(1 1)"/><path d="m7.8.25 2.5 33.5 1.55 30.55-2.15.05-1.1-9.4L0 32.75V26.9q.05-.9.35-1.45 3.5 4.65 6.55 13.1L5.7 26.9l-.95-9.25Q2.95 3.7 7.8.25m.8 54.7-1.7-16.4 1.7 16.4" fill="#fafafb" fill-rule="evenodd" transform="translate(1 1)"/><path d="M12.85 65.3h.35l.55-57.85Q12.8 2.9 9.2 1l-.4.25Q3.95 4.7 5.75 18.65l.95 9.25 1.2 11.65 1.7 16.4L1 33.75V27.9q.05-.9.35-1.45 1.15-2.2 5.35 1.45m6.15 37.4-2.15.05-1.1-9.4" fill="none" stroke="#3f4278" stroke-linecap="round" stroke-linejoin="round" stroke-width="2"/></g><g id="I"><path d="M56.55.85 58.9 0q1.15 10.25-10.1 22.45l10.3-2.05q-.6 1.8-2.8 3.45-8.3.85-13.2-.9l.1-.25Q54.35 11.65 56.55.85M50.3 27q8.9 3 17.1 1.7-1.7 7.7-10.65 9.25-3-1.25-5.95-1.8 3.85-.6 6.8-2.15l3.1-2q-5.4-.85-8-2.15-2.35-1.2-2.4-2.85" fill="#cbc4ff" fill-rule="evenodd" transform="translate(1 1)"/><path d="m55.1 1.35 1.45-.5q-2.2 10.8-13.35 21.85l-.1.2v.05q4.9 1.75 13.2.9-2.2 1.65-6 3.15.05 1.65 2.4 2.85l-3.6-.4L57.6 34q-2.95 1.55-6.8 2.15l-6.9-.2-.8.1 1.7.8 5.5 5.85h3.9q-5-2.75-8.05-5.2 7.35 3.4 11.95 3.7h5.8q-7.85 9-17.85 10.15 3.15 9.4 7.75 17.15-5.25-3.35-12.6-16.7l-.4 4.35 9.6 11.05-8.8-4.85 7.15 7.05 9.65 6 .5.65q-3.8-1.45-7.95-1-4.25.35-7.75-1-6.35-2.4-10.2-10.15l2.65 6.6 3.15 6.55q2.3 4.65 7.25 8.3.85 2.15 2 4.3l.1.2-2.35-.2Q35.7 87.9 24.25 74.2L2.15 14.55q8.95-9.3 42.2-8.25l-14.7 8.65 13.2-.55-3.65 3 7.1-4.3V12l-10.8.75q15-6.15 19.6-11.4M41.4 36.3l1.7-.25-1.7.25" fill="#84a5ff" fill-rule="evenodd" transform="translate(1 1)"/><path d="m50.8 2.65 4.3-1.3q-4.6 5.25-19.6 11.4L46.3 12v1.1l-7.1 4.3 3.65-3-13.2.55 14.7-8.65Q11.1 5.25 2.15 14.55L.9 11.25Q16 1.95 33 5.3q12.2 2.2 17.8-2.65m5.95 35.3q4.6 2 9.2.75l-2.05 2.5h-5.8q-4.6-.3-11.95-3.7 3.05 2.45 8.05 5.2h-3.9l-5.5-5.85-.9-.9 6.9.2q2.95.55 5.95 1.8M53.8 68.5q2.15 3.65 4.6 6.9l-9.65-6-7.15-7.05 8.8 4.85-9.6-11.05.4-4.35q7.35 13.35 12.6 16.7m-10.6 5.55q.55 5.65 2.85 11.3-4.95-3.65-7.25-8.3l-3.15-6.55L33 63.9q3.85 7.75 10.2 10.15M57.6 34l-8.5-4.55 3.6.4q2.6 1.3 8 2.15l-3.1 2" fill="#b7fcf6" fill-rule="evenodd" transform="translate(1 1)"/><path d="M.9 11.25 0 8.75q8.45-12.5 34.8-5.2 5.85 1.8 16-.9Q45.2 7.5 33 5.3 16 1.95.9 11.25" fill="#f0ffcd" fill-rule="evenodd" transform="translate(1 1)"/><path d="m51.8 3.65 4.3-1.3 1.45-.5L59.9 1q1.15 10.25-10.1 22.45l10.3-2.05q-.6 1.8-2.8 3.45-2.2 1.65-6 3.15 8.9 3 17.1 1.7-1.7 7.7-10.65 9.25 4.6 2 9.2.75l-2.05 2.5q-7.85 9-17.85 10.15 3.15 9.4 7.75 17.15 2.15 3.65 4.6 6.9l.5.65q-3.8-1.45-7.95-1-4.25.35-7.75-1 .55 5.65 2.85 11.3.85 2.15 2 4.3l.1.2-2.35-.2Q36.7 88.9 25.25 75.2M1 9.75q8.45-12.5 34.8-5.2 5.85 1.8 16-.9m0 33.5q2.95.55 5.95 1.8m-13.65-1.9-1.7.25m2.5-.35-.8.1m.8-.1 6.9.2m-7.6 37.9Q37.85 72.65 34 64.9" fill="none" stroke="#535faf" stroke-linecap="round" stroke-linejoin="round" stroke-width="2"/></g><g id="J"><path d="M51 6.1q.2-1.65-.5-2.75-1.35-2.15-5.45-2.25Q47.8.1 50.1 0q4.2 2.55 4.7 6.5L51 6.1" fill="#ff3b59" fill-rule="evenodd" transform="translate(1 1)"/><path d="m51 6.1 3.8.4q1.9.35 3.15 1.2 2.85 1.8 2.35 5.75-.65 7.05-3.1 9.55-10.95.9-24.35-3.65l-.35-.2q-6.25-2.9-5.2-5.8.75-2.15 5.45-4.3 11.5-3 18.25-2.95m6.55 6.1q-1.5-1.9-5.2-1.85-3.7.1-6.05 1.9-2.4 1.85-2.8 4.35-.45 2.45 2.1 4.05 2.55 1.55 5.8 1.55 3.2-.05 5.4-1.7 2.2-1.7 2.2-4.05 0-2.35-1.45-4.25" fill="#86a6e1" fill-rule="evenodd" transform="translate(1 1)"/><path d="M54.8 6.5q-.5-3.95-4.7-6.5 2.75-.05 4.9 1.25 3.1 1.7 2.95 6.45-1.25-.85-3.15-1.2" fill="#ffc3b8" fill-rule="evenodd" transform="translate(1 1)"/><path d="M45.05 1.1q4.1.1 5.45 2.25.7 1.1.5 2.75-6.75-.05-18.25 2.95l-.4.1q7.2-6 12.7-8.05" fill="#8f224c" fill-rule="evenodd" transform="translate(1 1)"/><path d="M57.55 12.2Q59 14.1 59 16.45t-2.2 4.05q-2.2 1.65-5.4 1.7-3.25 0-5.8-1.55-2.55-1.6-2.1-4.05.4-2.5 2.8-4.35 2.35-1.8 6.05-1.9 3.7-.05 5.2 1.85M23.6 44.8q-.2-2.05 1.35-3.05 6.1-3.5 11.8-2.15 1.75.45 3.5 1.35-1.6 2.65-3.5 4.2-4.4 3.55-10.2 1.15-1.45-.55-2.95-1.5" fill="#fff" fill-rule="evenodd" transform="translate(1 1)"/><path d="m32.5 19.15.35.2Q46.25 23.9 57.2 23q-4.6 15.15-14.45 14.25l-.55-.1q-2.7-.5-5.45-1.75-7.8-3.5-15.85-12.9l-.85-1 7.25-8.15q-1.05 2.9 5.2 5.8m-17.15 9.7L12.5 33.3q2.45 5.6 9.75 10.6l1.35.9q1.5.95 2.95 1.5Q10.85 59.55 0 35.45q5.65-5.75 15.35-6.6m30.2 4.45q3.3-1.35 5.2-3.4 1.9-2.05 1.25-3.55-.65-1.5-3.4-1.6-2.75-.1-6.05 1.25-3.25 1.4-5.15 3.4l-.65.8q-1.1 1.55-.6 2.75l.6.8q.85.75 2.75.8l3.95-.5 2.1-.75" fill="#8f2049" fill-rule="evenodd" transform="translate(1 1)"/><path d="m20.05 21.5.85 1q8.05 9.4 15.85 12.9 2.75 1.25 5.45 1.75v.05l-1.95 3.75q-1.75-.9-3.5-1.35-5.7-1.35-11.8 2.15-1.55 1-1.35 3.05l-1.35-.9q-7.3-5-9.75-10.6l2.85-4.45 4.7-7.35" fill="#8698d9" fill-rule="evenodd" transform="translate(1 1)"/><path d="m45.55 33.3-2.1.75-3.95.5q-1.9-.05-2.75-.8l-.6-.8q-.5-1.2.6-2.75l.65-.8q1.9-2 5.15-3.4 3.3-1.35 6.05-1.25 2.75.1 3.4 1.6.65 1.5-1.25 3.55t-5.2 3.4m-2.25-1.2q0-.45-.45-.75-.4-.3-1-.3l-1.05.3q-.4.3-.4.75 0 .4.4.7l1.05.3 1-.3.45-.7" fill="#ff3a58" fill-rule="evenodd" transform="translate(1 1)"/><path d="m43.3 32.1-.45.7-1 .3-1.05-.3q-.4-.3-.4-.7 0-.45.4-.75l1.05-.3q.6 0 1 .3.45.3.45.75" fill="#ffad82" fill-rule="evenodd" transform="translate(1 1)"/><path d="M51.1 1q-2.3.1-5.05 1.1-5.5 2.05-12.7 8.05m25.6-1.45Q59.1 3.95 56 2.25 53.85.95 51.1 1M33.5 20.15q-6.25-2.9-5.2-5.8l-7.25 8.15.85 1q8.05 9.4 15.85 12.9 2.75 1.25 5.45 1.75l.55.1q9.85.9 14.45-14.25M27.55 47.3Q11.85 60.55 1 36.45q5.65-5.75 15.35-6.6M43.2 38.2l.55.05M28.3 14.35q.75-2.15 5.45-4.3" fill="none" stroke="#410f21" stroke-linecap="round" stroke-linejoin="round" stroke-width="2"/><path d="M15.35 28.85 12.5 33.3m2.85-4.45 4.7-7.35" fill="none" stroke="#3c0" stroke-linecap="round" stroke-linejoin="round" transform="translate(1 1)"/><path d="m52 7.1 3.8.4q1.9.35 3.15 1.2 2.85 1.8 2.35 5.75-.65 7.05-3.1 9.55-10.95.9-24.35-3.65l-.35-.2m-.15-10 .4-.1q11.5-3 18.25-2.95M13.5 34.3q2.45 5.6 9.75 10.6l1.35.9q1.5.95 2.95 1.5 5.8 2.4 10.2-1.15 1.9-1.55 3.5-4.2l1.95-3.75v-.05" fill="none" stroke="#313166" stroke-linecap="round" stroke-linejoin="round" stroke-width="2"/></g><g id="K"><path d="M50.65 26.9q4.7-2.5 8.3-6.95l-.3 2.9q-9.35 18.2-19.8 23.05 8.55-9.5 11.8-19m2.65 12.8q1.85-.8 3.9-1.3 2.6-.4 4.95-1.4-2.35 5.9-16.5 11.4 4.25-4.35 7.65-8.7M9.35 64.8q-3.4-.8-5.55-2.95Q4.85 20.1 17.9 6.45 10.8 24.3 9.35 46.8v18" fill="#b7fcf6" fill-rule="evenodd" transform="translate(1 1)"/><path d="M50.65 26.9q-3.25 9.5-11.8 19 10.45-4.85 19.8-23.05-1.4 9.8-7.6 17.95l2.25-1.1q-3.4 4.35-7.65 8.7Q59.8 42.9 62.15 37q2.2-.95 4.15-2.45-6.85 23.25-35.05 26.7-8.7 3.3-15 3.85l-6.9-.3v-18Q10.8 24.3 17.9 6.45h.1q-1.15 4.05-1 7.75Q22.9 3.65 43.05 1.35q-6.95 13.7-1.4 27.45l.4.9q4.7-.7 8.6-2.8m.4 13.9-1.6 2 1.6-2m-34.4-25.95.35-.65-.35.65" fill="#84a5ff" fill-rule="evenodd" transform="translate(1 1)"/><path d="M3.8 61.85q-7.05-7-1.1-28.5Q7.75 12.5 20.55 0 19.2 2.65 18.4 5.15l-.05.15-.45 1.15Q4.85 20.1 3.8 61.85" fill="#fff" fill-rule="evenodd" transform="translate(1 1)"/><path d="m59.65 23.85.3-2.9q-3.6 4.45-8.3 6.95-3.9 2.1-8.6 2.8l-.4-.9q-5.55-13.75 1.4-27.45Q23.9 4.65 18 15.2l-.35.65m42 8q-1.4 9.8-7.6 17.95l2.25-1.1q1.85-.8 3.9-1.3 2.6-.4 4.95-1.4 2.2-.95 4.15-2.45-6.85 23.25-35.05 26.7-8.7 3.3-15 3.85l-6.9-.3q-3.4-.8-5.55-2.95-7.05-7-1.1-28.5Q8.75 13.5 21.55 1 20.2 3.65 19.4 6.15m-.05.15-.3.95-.05.2q-1.15 4.05-1 7.75m32.45 28.6 1.6-2" fill="none" stroke="#525ead" stroke-linecap="round" stroke-linejoin="round" stroke-width="2"/></g><g id="L"><path d="M7 24.95V14.4L25.15 0l2.95 4.7h-.05L38.8 3.15q8.9.5 11.6 25.45l.7 7.9q.1 2.7-10.3 5.6v-4.7q-.15-2.7-.5-4.35l.4-1.75q3-18.7-9.6-18.3-.55-4.15-2.05-6.8L29 6.1l-.5-.75-.45-.65-1.95.3q-3.8 2.5-7.15 5.45l-.8.8q-5.05 4.6-9 10.35L7 24.95M38.7 42.7l-1.3.3-2.75.85q2.45-3.15 4-6.45l.35-.8v.8l-.3 5.3M15.4 27.25q.25 1.05 1.3 1.4l-.45-3.3q1.75 1.25 6.75.5 1.2 2.85-3 4.3-4.55.95-4.75-2.9h.15" fill="#352c5c" fill-rule="evenodd" transform="translate(1)"/><path d="M34.65 43.85q-6.6 2.35-12.55 6.35l-2.85 2q-3.4-1.25-5.15-3.6l-1.05.15q-7.55-8.6-7.2-10.2l.65-1.15q3.8-7.05 2.65-9v-6.8q3.95-5.75 9-10.35l1.9 3q2.1-1.35 4.65 2.6l8.55 13.4q.3 1.05 1.8 1.4l-.05.2.15-.2 2.85.15q1 .45 1 4.8l-.35.8q-1.55 3.3-4 6.45m-15.7-33.4Q22.3 7.5 26.1 5l1.95-.3.45.65.5.75.05.1q1.5 2.65 2.05 6.8 12.6-.4 9.6 18.3l-.4 1.75q-.7-2.75-2.1-2.55l-3.25-.2q-2.8-6.6-7.2-13-4.3-5.5-7.45-4.7l-1.35-2.15m-.1 8.75q-.7-.15-1.45.4-.7.65-1 1.7l-.15 1.05.2.9q.3.9 1.05 1.1.7.2 1.45-.4.7-.65 1-1.7.3-1.05-.05-1.95-.3-.9-1.05-1.1m-2.6 6.15-.25-3v-3.3q-1.65 4-.75 7.7v.5q.2 3.85 4.75 2.9 4.2-1.45 3-4.3-5 .75-6.75-.5m15.85 10.4-.95 1.15H28.6l-2.95 4.8-5.8 1.4-2.45 4.1q-1.8 1.05-3.3 1.4 1.5-.35 3.3-1.4l2.45-4.1 5.8-1.4 2.95-4.8h2.55l.95-1.15 1.1 1.65q1.15 1.85 1.8 3.85.95-1.95 1.15-3.85.2-2.8-1.15-5.55l-2.9 3.9M10.75 37.4V37l-.35.4q-2.45 2.65-1.55 3.85 2.05 1.85 1.9-3.85" fill="#8670e9" fill-rule="evenodd" transform="translate(1)"/><path d="m40.8 42.1-2.1.6.3-5.3v-.8q0-4.35-1-4.8l-2.85-.15h-.1q-1.5-.35-1.8-1.4l-8.55-13.4q-2.55-3.95-4.65-2.6l-1.9-3 .8-.8 1.35 2.15q3.15-.8 7.45 4.7 4.4 6.4 7.2 13l3.25.2q1.4-.2 2.1 2.55.35 1.65.5 4.35v4.7m-5.35-10.85-.3.4.3-.4" fill="#62ffe5" fill-rule="evenodd" transform="translate(1)"/><path d="m13.05 48.75-2.2-.3Q-.1 41.9 0 37.4l.35-1.45Q4.8 31.75 7 27.1v-2.15l2.15-3.35v6.8q1.15 1.95-2.65 9l-.65 1.15q-.35 1.6 7.2 10.2m5.8-29.55q.75.2 1.05 1.1.35.9.05 1.95-.3 1.05-1 1.7-.75.6-1.45.4-.75-.2-1.05-1.1l-.2-.9.15-1.05q.3-1.05 1-1.7.75-.55 1.45-.4" fill="#dba2ff" fill-rule="evenodd" transform="translate(1)"/><path d="M15.25 26.75q-.9-3.7.75-7.7v3.3l.25 3 .45 3.3q-1.05-.35-1.3-1.4l-.15-.5m-4.5 10.65q.15 5.7-1.9 3.85-.9-1.2 1.55-3.85l.35-.4v.4" fill="#16122c" fill-rule="evenodd" transform="translate(1)"/><path d="m32.1 35.75 2.9-3.9q1.35 2.75 1.15 5.55-.2 1.9-1.15 3.85-.65-2-1.8-3.85l-1.1-1.65" fill="#fff" fill-rule="evenodd" transform="translate(1)"/><path d="M29.05 4.7 39.8 3.15q8.9.5 11.6 25.45l.7 7.9q.1 2.7-10.3 5.6l-2.1.6-1.3.3-2.75.85q-6.6 2.35-12.55 6.35l-2.85 2q-3.4-1.25-5.15-3.6l-1.05.15-2.2-.3Q.9 41.9 1 37.4l.35-1.45Q5.8 31.75 8 27.1v-2.15m28.15 6.7.3-.4m-.45.6.15-.2M15.1 48.6q1.5-.35 3.3-1.4l2.45-4.1 5.8-1.4 2.95-4.8h2.55l.95-1.15 2.9-3.9" fill="none" stroke="#16122c" stroke-linecap="round" stroke-linejoin="round" stroke-width="2"/><path d="M36 31.85q1.35 2.75 1.15 5.55-.2 1.9-1.15 3.85-.65-2-1.8-3.85l-1.1-1.65" fill="none" stroke="#3f4278" stroke-linecap="round" stroke-linejoin="round" stroke-width="2"/></g><g id="M"><path d="M5.85 11.4Q4.55 9.55 3.9 7.75l.7-.95.15-.15 1.85 2.7.45.8.2.3q1.15 2.2 1.65 4.4L5.85 11.4" fill="#172462" fill-rule="evenodd" transform="translate(1 1)"/><path d="M2.8 15.15 1.55 13.5l1.25 1.65L.95 17.8l-.15-.1q.3-2.3.75-4.2.9-3.65 2.35-5.75.65 1.8 1.95 3.65-1.6 1.75-3.05 3.75m9.65-9.7q-2.85 2.05-5.4 4.7l-.45-.8-1.85-2.7 1.85-2.2q1.9-2.1 3.45-3.2l2.4 4.2" fill="#4665bb" fill-rule="evenodd" transform="translate(1 1)"/><path d="M2.8 15.15q1.45-2 3.05-3.75l3.05 3.45q-.5-2.2-1.65-4.4l-.2-.3q2.55-2.65 5.4-4.7 1.25 2.65 1.25 5-.05 3.45-2.85 6.15-4 3.3-8.05-1.45" fill="#7cfffb" fill-rule="evenodd" transform="translate(1 1)"/><path d="M10.05 1.25q3.3-2.4 4.95-.15l.1.15.15.25.85 1.6-3.65 2.35-2.4-4.2" fill="#acc0ff" fill-rule="evenodd" transform="translate(1 1)"/><path d="m.95 17.8 1.85-2.65q4.05 4.75 8.05 1.45 2.8-2.7 2.85-6.15 0-2.35-1.25-5L16.1 3.1q1.7 3.7 1.1 7.35-.5 3-2.6 6.05Q8.65 23.05.95 17.8" fill="#fff" fill-rule="evenodd" transform="translate(1 1)"/><path d="m2.55 14.5 1.25 1.65q4.05 4.75 8.05 1.45 2.8-2.7 2.85-6.15 0-2.35-1.25-5l-2.4-4.2" fill="none" stroke="#172462" stroke-linecap="round" stroke-linejoin="round" stroke-width="2"/><path d="M1 20.35q.65-.45.75-1.25l.05-.4q.3-2.3.75-4.2.9-3.65 2.35-5.75l.7-.95.15-.15 1.85-2.2q1.9-2.1 3.45-3.2 3.3-2.4 4.95-.15l.1.15.15.25.85 1.6q1.7 3.7 1.1 7.35-.5 3-2.6 6.05-5.95 6.55-13.65 1.3l-.15-.1" fill="none" stroke="#16122c" stroke-linecap="round" stroke-linejoin="round" stroke-width="2"/></g><g id="N"><path d="m39 .2.8-.2-15.7 19.95 7.75 11.9Q24 36.95 16.2 44.05 16.85 39.8 27.6 32q-5.7-10.45-5-12.45l1.85-2.8Q29.65 9.25 39 .2" fill="#f27f7c" fill-rule="evenodd" transform="translate(1 1)"/><path d="m20.6 7.6 1.4-.75-3.95 11.85 1 2.35 1.6 3.75.7.85q-.9 9.6-4.85 10.85l-3.15 1.75-2.45 1.3-3.75 17-.65-3L9.35 40.3l-1.1.7-2.55 8.65-3.6-16.7Q-2.65 21.6 3.35 17.5l11.6-6.9 3.25-1.75q-1.3 3.95-2.25 7.9-1 4.1-1.7 8.25L20.6 7.6m15.45-6.55Q37.55.55 39 .2q-9.35 9.05-14.55 16.55l-1.85 2.8q-.7 2 5 12.45-10.75 7.8-11.4 12.05l-1.55 1.45q-.2 4.8 2.95 14.3l-2.35 1.6q-5.15-11-3.6-16.15 4.85-6.8 15-13.65-4.75-7.25-6.1-12.6l1.7-2.25q6.1-8.05 13.8-15.7m-13.3 55.3 4.95-4.1q-3 6.25-12.85 16.15-.65.5-.95 1.55-.1 2 .7 2.45.75.65 1.9-.4l.1-.1q1.7-1.2 2.5 1.65l.25-.35q1.4-3.55-.7-4.7l3-2.15-3 2.15-1.45-.45-.65-.1q15.15-11.3 19.9-23.8Q38.9 51.2 28.5 60.8q-2.9 2.65-6.85 5.55l.45.8.45 1.5.1 1.85q8.6-5.7 18.3-13.65H41q-.5 3.3-2.3 6.25-1.75-3.45-6.65 1.35-8.75 8.25-6.25 9.7l-3.9 1.9.45.05q-2.05.45-3.15 2.05 8.1 1.1 13.35-.3Q21.9 85.75 11 76.4q1.25.7 2.5.75-1.3-1.1-.45-2.35l-.65-1.1q-1.75-4.2 4.6-10.5 4.15-3.85 5.75-6.85m-9.25 20.8q3 .1 5.6-3.6-2.6 3.7-5.6 3.6" fill="#9b5d0c" fill-rule="evenodd" transform="translate(1 1)"/><path d="M17.6 59.8q2.55-1.45 5.15-3.45-1.6 3-5.75 6.85-6.35 6.3-4.6 10.5-.8-.35-1.35-1.5l-.1-.2q-1.05-2.4 1.5-5.3 3.25-3.35 5.15-6.9m10.1-7.55 8.7-8.35.05.25q-4.75 12.5-19.9 23.8l.65.1 1.45.45q2.1 1.15.7 4.7l-.25.35q-.8-2.85-2.5-1.65l-.1.1q-1.15 1.05-1.9.4-.8-.45-.7-2.45.3-1.05.95-1.55 9.85-9.9 12.85-16.15m.8 8.55q5.75-4.25 9.65-4.45L22.1 67.15l-.45-.8q3.95-2.9 6.85-5.55m11.05-4.4q.75.15 1.4.45-9.7 7.95-18.3 13.65l-.1-1.85 17-12.25m-17.2 19.7.2.05 10.5 1.3-.5.4q-5.25 1.4-13.35.3 1.1-1.6 3.15-2.05m-7.5-7.7q.7-.5 1.7-.45-1-.05-1.7.45" fill="#ffe33e" fill-rule="evenodd" transform="translate(1 1)"/><path d="M38.7 63.1Q35 69.2 25.8 74.15q-2.5-1.45 6.25-9.7 4.9-4.8 6.65-1.35" fill="#f28a8f" fill-rule="evenodd" transform="translate(1 1)"/><path d="m22 6.85 2.9-1.4-5.85 15.6-1-2.35L22 6.85m16.15 49.5 1.4.05-17 12.25-.45-1.5 16.05-10.8M11 76.4l-1.4-.85q-4.2-4.95-.4-9.5 1.8-2.2 5.3-4.25l.75-.4 2.35-1.6q-1.9 3.55-5.15 6.9-2.55 2.9-1.5 5.3l.1.2q.55 1.15 1.35 1.5l.65 1.1q-.85 1.25.45 2.35-1.25-.05-2.5-.75m2.35-38.15L7.2 56.6l-.05-.05 3.75-17 2.45-1.3" fill="#fff" fill-rule="evenodd" transform="translate(1 1)"/><path d="M24.9 5.45Q31 2.6 36.05 1.05q-7.7 7.65-13.8 15.7L20.55 19q1.35 5.35 6.1 12.6-10.15 6.85-15 13.65-1.55 5.15 3.6 16.15l-.75.4q-3.5 2.05-5.3 4.25l-2-9.4v-.05l6.15-18.35 3.15-1.75q3.95-1.25 4.85-10.85l-.7-.85-1.6-3.75 5.85-15.6M6.5 53.55l-.8-3.9L8.25 41l1.1-.7L6.5 53.55m11.7-44.7 2.4-1.25L14.25 25q.7-4.15 1.7-8.25.95-3.95 2.25-7.9" fill="#ffe234" fill-rule="evenodd" transform="translate(1 1)"/><path d="m21.6 8.6 1.4-.75 2.9-1.4Q32 3.6 37.05 2.05q1.5-.5 2.95-.85l.8-.2-15.7 19.95 7.75 11.9Q25 37.95 17.2 45.05l-1.55 1.45q-.2 4.8 2.95 14.3 2.55-1.45 5.15-3.45l4.95-4.1 8.7-8.35.05.25Q39.9 52.2 29.5 61.8q5.75-4.25 9.65-4.45l1.4.05q.75.15 1.4.45H42q-.5 3.3-2.3 6.25-3.7 6.1-12.9 11.05l-3.9 1.9.45.05m.2.05 10.5 1.3-.5.4Q22.9 86.75 12 77.4l-1.4-.85q-4.2-4.95-.4-9.5l-2-9.4-.05-.1-.65-3-.8-3.9-3.6-16.7Q-1.65 22.6 4.35 18.5l11.6-6.9 3.25-1.75 2.4-1.25m-5.35 53.8 2.35-1.6m-2.35 1.6-.75.4q-3.5 2.05-5.3 4.25m5.4 6.35q-.8-.45-.7-2.45.3-1.05.95-1.55.7-.5 1.7-.45l.65.1 1.45.45q2.1 1.15.7 4.7l-.25.35q-2.6 3.7-5.6 3.6-1.25-.05-2.5-.75m10.65-10.05-3 2.15m9.85-7.7q-2.9 2.65-6.85 5.55" fill="none" stroke="#652a00" stroke-linecap="round" stroke-linejoin="round" stroke-width="2"/></g><g id="O"><path d="m24.55 9.95 12.4-1.85-1 7.2q-.5 2.85-2.5 5.15-6.1 1.1-12.8 4.55 1.45-7.55 3.9-15.05M33 20.9l-1.9 1.65q-5.65 2.75-11.35 7.5l.6-3.65Q25.3 23.25 33 20.9M14.6 34.75l-2.6 2.7q-.1-9.45 1.95-18.5l3.5-1.75q-2.2 8.55-2.85 17.55M19 3.9l1.85 2.45Q19.1 11 17.8 15.8l-3.45 1.4q1.7-6.75 4.65-13.3m3.3 4.35 1.15 1.55Q21 15.65 19.3 22.9q.25-2.15.65-4.3l.7-3.65 1.65-6.7" fill="#ffe234" fill-rule="evenodd" transform="translate(1 1)"/><path d="m12 37.45-2.45 2.6q-.45-9.9 2.05-19.85l2.35-1.25Q11.9 28 12 37.45m-8.25 9.7-2.3 3.05q-3-14.95.2-27.05l4.6-1q-3.15 12.05-2.5 25M2 21.85Q5.55 9.8 15.3.7q-5.8 9.75-8.75 20.25l-4.55.9M18.2 2.8l.8 1.1q-2.95 6.55-4.65 13.3l-2.3 1.15Q14.2 10.6 18.2 2.8" fill="#fff" fill-rule="evenodd" transform="translate(1 1)"/><path d="m19.75 30.05-5.15 4.7q.65-9 2.85-17.55l1.55-.85Q15.25 28.8 16.65 29.2q1.6-1.45 3.7-2.8l-.6 3.65m-10.2 10q-2.9 3.3-5.8 7.1-.65-12.95 2.5-25l2.55-.55 2.8-1.4q-2.5 9.95-2.05 19.85M15.3.7l.8-.7 2.1 2.8q-4 7.8-6.15 15.55l-4 2.3-1.5.3Q9.5 10.45 15.3.7m5.55 5.65 1.45 1.9-1.65 6.7-2.85.85q1.3-4.8 3.05-9.45m2.6 3.45.2.3.9-.15q-2.45 7.5-3.9 15.05l-3.3 1.8 2.6-8.2q-.4 2.15-.65 4.3 1.7-7.25 4.15-13.1" fill="#9b5d0c" fill-rule="evenodd" transform="translate(1 1)"/><path d="m33.45 20.45-.45.45q-7.7 2.35-12.65 5.5-2.1 1.35-3.7 2.8-1.4-.4 2.35-12.85l-1.55.85-3.5 1.75-2.35 1.25-2.8 1.4-2.55.55-4.6 1 .35-1.3 4.55-.9 1.5-.3 4-2.3 2.3-1.15 3.45-1.4 2.85-.85-.7 3.65-2.6 8.2 3.3-1.8q6.7-3.45 12.8-4.55" fill="#652a00" fill-rule="evenodd" transform="translate(1 1)"/><path d="m25.55 10.95 12.4-1.85-1 7.2q-.5 2.85-2.5 5.15l-.45.45-1.9 1.65q-5.65 2.75-11.35 7.5l-5.15 4.7-2.6 2.7-2.45 2.6q-2.9 3.3-5.8 7.1l-2.3 3.05q-3-14.95.2-27.05l.35-1.3Q6.55 10.8 16.3 1.7l.8-.7 2.1 2.8.8 1.1 1.85 2.45 1.45 1.9 1.15 1.55.2.3.9-.15z" fill="none" stroke="#652a00" stroke-linecap="round" stroke-linejoin="round" stroke-width="2"/></g><g id="P"><path d="m6.15 40.9-.35.65Q-1 30.75 1.65 24.1q.35-.85.8-1.25Q5.3 31.6 6.15 40.9" fill="#fff" fill-rule="evenodd" transform="translate(1 1)"/><path d="M6.15 40.9q-.85-9.3-3.7-18.05 2.7-2.6 8.15 9.85l-4.45 8.2" fill="#8392cc" fill-rule="evenodd" transform="translate(1 1)"/><path d="M3.45 23.85q-.45.4-.8 1.25Q0 31.75 6.8 42.55l.35-.65 4.45-8.2q-5.45-12.45-8.15-9.85z" fill="none" stroke="#3f4278" stroke-linecap="round" stroke-linejoin="round" stroke-width="2"/><path d="m0 52.4 2.2-7.9Q15.15-1.3 17.35.05q1.4.15 2.45.85.25 9.85-4.8 19.3L7 44.5l-3.5 9.2L0 52.4m15.15-22.2q7.95-8.45 11-4.8l.55 1.1Q20.1 31.95 13 36.65q-.7-1.1 2.15-6.45" fill="#fff" fill-rule="evenodd" transform="translate(1 1)"/><path d="M19.8.9q4.95 3.05 1.35 16.65l-.05.25-.05.1Q19.4 23.6 16 28.75l-.1.05-2.3 3.1 1.55-1.7Q12.3 35.55 13 36.65q7.1-4.7 13.7-10.15.4 1.1.4 2.65-.2 2.55-14.9 12.75-.75 1.15-1.45 2.6-2 4-4.2 10.25L3.5 53.7 7 44.5l8-24.3q5.05-9.45 4.8-19.3m-7.75 32.85.2-.25 1.35-1.6-1.35 1.6-.2.25" fill="#8392cc" fill-rule="evenodd" transform="translate(1 1)"/><path d="m1 53.4 2.2-7.9Q16.15-.3 18.35 1.05q1.4.15 2.45.85 4.95 3.05 1.35 16.65l-.05.25-.05.1Q20.4 24.6 17 29.75m-.1.05-2.3 3.1 1.55-1.7q7.95-8.45 11-4.8l.55 1.1q.4 1.1.4 2.65-.2 2.55-14.9 12.75-.75 1.15-1.45 2.6-2 4-4.2 10.25M14.6 32.9l-1.35 1.6-.2.25" fill="none" stroke="#3f4278" stroke-linecap="round" stroke-linejoin="round" stroke-width="2"/></g><g id="Q"><path d="M8.45 2Q9.8 7.35 6.2 8.25 2.4 7.8.3 5.75L0 1.9 2.65 0q2 1.75 5.8 2" fill="#836af0" fill-rule="evenodd" transform="translate(1 1)"/><path d="M6.2 8.25Q9.8 7.35 8.45 2l4.1-.15q1 3.25-.2 6.2l-6.15.2" fill="#2b2156" fill-rule="evenodd" transform="translate(1 1)"/><path d="m7.2 9.25 6.15-.2q1.2-2.95.2-6.2L9.45 3q-3.8-.25-5.8-2L1 2.9l.3 3.85q2.1 2.05 5.9 2.5z" fill="none" stroke="#16122c" stroke-linecap="round" stroke-linejoin="round" stroke-width="2"/></g><g id="R"><path d="M9.95 1.9Q9.45.85 8.6.05L9.65.1q2.25.6 2.85 4.65.6 4.05-.8 9.2-1.4 5.15-3.95 8.35-1.85 2.4-3.6 2.7-.95-1.35-1.55-2.85 1.05.1 1.8-.35l.45-.3q-.1-2.05.35-3.85 1.4-3.5 3.8-2.4 1.3-3.35 1.7-6.1.75-4.4-.75-7.25" fill="#6ba3f3" fill-rule="evenodd" transform="translate(1 1)"/><path d="M8.6.05q.85.8 1.35 1.85-3.15 1.3-4.4 4.5 1.15.6 1.4 1.8.25 1.25-.45 3.1-1.3 2.3-2.9 2.1l-.9-.3q-1.65 5.05-.1 9.05.6 1.5 1.55 2.85L3 24.9q-1.85-.45-2.55-3.4L.2 20.3q-.6-4.05.75-9.2 1.4-5.15 3.95-8.4Q6.85.25 8.6.05M8.95 9l.2.6-.2.65q-.15.25-.45.25l-.5-.25-.2-.65L8 9q.2-.25.5-.25t.45.25" fill="#beffd6" fill-rule="evenodd" transform="translate(1 1)"/><path d="M10.7 9.15q-.4 2.75-1.7 6.1-2.4-1.1-3.8 2.4-.45 1.8-.35 3.85l-.45.3q-2.7-1.25-.8-8.4 1.6.2 2.9-2.1.7-1.85.45-3.1 3-2.15 3.75.95M8.95 9q-.15-.25-.45-.25-.3 0-.5.25l-.2.6.2.65.5.25q.3 0 .45-.25l.2-.65-.2-.6" fill="#00258c" fill-rule="evenodd" transform="translate(1 1)"/><path d="M9.95 1.9q1.5 2.85.75 7.25-.75-3.1-3.75-.95Q6.7 7 5.55 6.4q1.25-3.2 4.4-4.5" fill="#7cfffb" fill-rule="evenodd" transform="translate(1 1)"/><path d="M4.4 21.8q-.75.45-1.8.35-1.55-4 .1-9.05l.9.3q-1.9 7.15.8 8.4" fill="url(#S)" fill-rule="evenodd" transform="translate(1 1)"/><path d="M5.15 26q1.75-.3 3.6-2.7 2.55-3.2 3.95-8.35 1.4-5.15.8-9.2-.6-4.05-2.85-4.65L9.6 1.05q-1.75.2-3.7 2.65-2.55 3.25-3.95 8.4-1.35 5.15-.75 9.2l.25 1.2q.7 2.95 2.55 3.4l1.15.1z" fill="none" stroke="#00258c" stroke-linecap="round" stroke-linejoin="round" stroke-width="2"/></g><g id="ar"><path d="m18.4 23.9-.9-2.2Q15.75 32.6 24 47.15l-3.05-.9q-5.7-1.85-8.85-6.95-.8-8.9 1-16.85l.05-.25-.2.2q-4.85 5-7.1 11.45Q3 26.2 7.2 19l.15-.3 1.45-2.1-.25.15q4.4-7.15 9.8-12.35Q8.4 9.95 1 19.9q3.05-9.9 11.2-16l.2-.15Q20.35-1.85 28.1.9q5.95 5.45 9.65 17.8l-5.3-4.5 3.4 8.4.9 7.65q-4.1-10.55-12.15-16.1 7.2 12.1 13 24.25-4.75-3.3-7.45-10.1.7 7.8 2.85 15.6-8.3-5.35-14.6-20" fill="#84a5ff" fill-rule="evenodd" transform="translate(1 1)"/><path d="M24 47.15Q15.75 32.6 17.5 21.7l.9 2.2q.7 9.5 8.25 19.4 3.95 4.2 6.25 7.8-3.6-2.3-8.9-3.95m-10.9-24.7q-1.8 7.95-1 16.85-1.8-2.9-2.75-6.85.5-6.7 3.6-10.05l.15.05" fill="#f0ffcd" fill-rule="evenodd" transform="translate(1 1)"/><path d="m35.85 22.6-3.4-8.4 5.3 4.5Q34.05 6.35 28.1.9l.95.4q10.9 6.15 13 25.8-4-1.1-6.35-5.8l.15 1.3" fill="#cbc4ff" fill-rule="evenodd" transform="translate(1 1)"/><path d="M18.4 23.9q6.3 14.65 14.6 20 1.35 4.9 3.25 9.8l-3.35-2.6q-2.3-3.6-6.25-7.8-7.55-9.9-8.25-19.4m19.2 14.5q-5.8-12.15-13-24.25 8.05 5.55 12.15 16.1l1 8.15h-.15M1 19.9Q8.4 9.95 18.35 4.4q-5.4 5.2-9.8 12.35-4.95 2.65-8.55 7l1-3.85m4.85 13.95q2.25-6.45 7.1-11.45-3.1 3.35-3.6 10.05l-.45-2.3q-1.75 3.15-1.35 7.4-1.05-1.85-1.7-3.7m2.95-4.3.1.6-.1-.6" fill="#b7fcf6" fill-rule="evenodd" transform="translate(1 1)"/><path d="M34 44.9q-2.15-7.8-2.85-15.6 2.7 6.8 7.45 10.1l.15.1v-.1l-1-8.15-.9-7.65-.15-1.3q2.35 4.7 6.35 5.8-2.1-19.65-13-25.8l-.95-.4Q21.35-.85 13.4 4.75l-.2.15Q5.05 11 2 20.9l-1 3.85q3.6-4.35 8.55-7l.25-.15-1.45 2.1-.15.3Q4 27.2 6.85 34.85q.65 1.85 1.7 3.7-.4-4.25 1.35-7.4l-.1-.6m3.3 9.75q3.15 5.1 8.85 6.95l3.05.9q5.3 1.65 8.9 3.95l3.35 2.6q-1.9-4.9-3.25-9.8m-20.9-4.6q-1.8-2.9-2.75-6.85l-.45-2.3" fill="none" stroke="#5560ae" stroke-linecap="round" stroke-linejoin="round" stroke-width="2"/><path d="m7.2 19-1.4 1.85" fill="none" stroke="#5560ae" stroke-linecap="round" stroke-linejoin="round" transform="translate(1 1)"/></g><g id="as"><path d="M100.65 26.65q4.65-5.25 4.4-10.25-.5-5.15-4.8-5.85 8-11.9 19.8-10.35-14.5 5.95-12.6 17.1-2.3 5.6-6.8 9.35" fill="#62ffe5" fill-rule="evenodd" transform="translate(1 1)"/><path d="M101.65 27.65q4.5-3.75 6.8-9.35-1.9-11.15 12.6-17.1-11.8-1.55-19.8 10.35 4.3.7 4.8 5.85.25 5-4.4 10.25z" fill="none" stroke="#62ffe5" stroke-linecap="round" stroke-linejoin="round" stroke-width="2"/><path d="M18.5 7.45q.8 9.2-8.6 10.35-.1 5.1-9.9 10.55 5.8-6 4.45-7.95-6.6-1.95-.25-10.1-1.3-.75-.65-2.85 1.9-5.6 4.5-5.8 2.05.15 2.45 2.25 7.15-4.1 8 3.55M9.9 17.8l-.25-1.5.25 1.5m-2.25-10q.05 2.65-1.6 2.85L4.2 10.3l1.85.35q1.65-.2 1.6-2.85m2.85-3.9q.4 2.3-1.05 6.8 1.45-4.5 1.05-6.8" fill="#affff2" fill-rule="evenodd" transform="translate(1 1)"/><path d="M19.5 8.45q.8 9.2-8.6 10.35-.1 5.1-9.9 10.55 5.8-6 4.45-7.95-6.6-1.95-.25-10.1-1.3-.75-.65-2.85 1.9-5.6 4.5-5.8 2.05.15 2.45 2.25 7.15-4.1 8 3.55m-9.05 3.25q1.45-4.5 1.05-6.8m-6.3 6.4 1.85.35q1.65-.2 1.6-2.85m2 8.5.25 1.5" fill="none" stroke="#62ffe5" stroke-linecap="round" stroke-linejoin="round" stroke-width="2"/><path d="M76.2 32.75q.7 4.2 4.3 5.35 6.45.55 5.75-7.6-.8-6.95-4.25-2.4 3.45-4.55 4.25 2.4.7 8.15-5.75 7.6-3.6-1.15-4.3-5.35-.4-2.35.2-5.6 3.65-12.95 15.7-9.05 8.3 3.25.9 20.25-1.3 3.75-4.2 4.75-1.8 17.2-12 17.45l-.4-.05-.9-.1q8.9-8.35 4.25-10.4-2.55-1.15-5 .65-10.2 3.75-12.55-5.55-2.55-10.05 5.25-17.55 4.7 5.55 8.75 5.2m12.15 10.5.45-.15-.45.15" fill="#affff2" fill-rule="evenodd" transform="translate(1 1)"/><path d="M83 29.1q3.45-4.55 4.25 2.4.7 8.15-5.75 7.6-3.6-1.15-4.3-5.35-4.05.35-8.75-5.2-7.8 7.5-5.25 17.55 2.35 9.3 12.55 5.55 2.45-1.8 5-.65 4.65 2.05-4.25 10.4l.9.1.4.05q10.2-.25 12-17.45l-.45.15M77.2 33.75q-.4-2.35.2-5.6 3.65-12.95 15.7-9.05 8.3 3.25.9 20.25-1.3 3.75-4.2 4.75M76.5 61.4h-.05Q62 60.5 59 74.6" fill="none" stroke="#62ffe5" stroke-linecap="round" stroke-linejoin="round" stroke-width="2"/></g><g id="au"><path d="m46.8 23.7.4-6.75L53.9 4.9Q55.3 43 21.75 62.65l17.8-18.2q2.3-2.45 3.9-6.25 2.45-5.75 3.35-14.5m8.65 29.1.15.05q-5.85 17.1-15.75 20.1-6.65 1.1-14.75.25H25l-.25-.05-.4-.1q-1.85-.45-1.2-.9l.25-.1.75-.3H29q6.65-.1 13.95-3.1 1.9-1.15 5.15-5.35l2.35-3.15 5-7.35m-15.2 23.45 1.45.3q-14.75 14.9-29 4.3l-.15-1.65q6.85 2.35 13.75 1.85l3.65-.45 2.7-.6 4.65-1.95 2.95-1.8" fill="#f27f7c" fill-rule="evenodd" transform="translate(1 1)"/><path d="m47.2 16.95-.4 6.75Q35.7 41.6 24.05 54.2 17.3 62.1 8.6 70.85L6.05 73.4l2.75-1.9.45 8.1Q4.4 83 2.95 82.4q-2-8.55 6.9-17.15l12.8-15.4q14.85-16.9 24.55-32.9M43.45 38.2q-1.6 3.8-3.9 6.25l-17.8 18.2q-.85 2 3.65.85l29.3-12.8-1.6 3.35-.1.05Q38.05 62 21.45 65.95q-5.7 1.45-2.15-2.85 11.2-14.9 24.15-24.9m-39 41.3v-5l1.6-1.1-1.6 1.1v5M48.1 63.3q-3.25 4.2-5.15 5.35-7.3 3-13.95 3.1h-4.3q3.55-3 9.3-4.8 8.7-3.4 14.1-3.65m-24.7 8.75-.25.1q-.65-.8.1-1.85 4.5-3.6 10.1-5.6 8.7-3.65 17.1-4.55l-17.1 5.8q-4.15 1.45-8.05 4.3l-1.9 1.8m6.55 8.55-8.5-4.4q7.1 1.45 15.85 1.85L32.65 80l-2.7.6m-17.7-4.4q2.75-2.95 8.95 1.75l5.1 3.1q-6.9.5-13.75-1.85l-.3-3" fill="#ffe234" fill-rule="evenodd" transform="translate(1 1)"/><path d="m53.9 4.9-6.7 12.05q-9.7 16-24.55 32.9l-12.8 15.4q-8.9 8.6-6.9 17.15-2.45.2-2.2-7.05l-.05-.2L0 73.6v-2.75Q29.65 40.7 53.55 0l.35 4.9m1.55 47.9-2.35 1.25 1.6-3.35-29.3 12.8q-4.5 1.15-3.65-.85 19.2-8.85 36.9-20.7-1.25 5.6-2.8 10.25l-.4.6" fill="#fff" fill-rule="evenodd" transform="translate(1 1)"/><path d="M46.8 23.7q-.9 8.75-3.35 14.5-12.95 10-24.15 24.9-3.55 4.3 2.15 2.85Q38.05 62 53 54.1l.1-.05 2.35-1.25-5 7.35-2.35 3.15q-5.4.25-14.1 3.65-5.75 1.8-9.3 4.8h-.55l-.75.3 1.9-1.8q3.9-2.85 8.05-4.3l17.1-5.8q-8.4.9-17.1 4.55-5.6 2-10.1 5.6-.75 1.05-.1 1.85-.65.45 1.2.9l.4.1.25.05h.1l15.15 3.05-2.95 1.8q-8.75-.4-15.85-1.85l8.5 4.4-3.65.45-5.1-3.1q-6.2-4.7-8.95-1.75l-.65-6.7-2.8 2 2.8-2 .65 6.7.3 3 .15 1.65L0 88.7V73.6l.7 1.55.05.2Q.5 82.6 2.95 82.4q1.45.6 6.3-2.8l-.45-8.1-2.75 1.9 2.55-2.55q8.7-8.75 15.45-16.65Q35.7 41.6 46.8 23.7" fill="#9b5d0c" fill-rule="evenodd" transform="translate(1 1)"/><path d="M22.75 63.65Q56.3 44 54.9 5.9L54.55 1Q30.65 41.7 1 71.85V89.7l12.7-7.85q14.25 10.6 29-4.3l-1.45-.3L26.1 74.2q8.1.85 14.75-.25 9.9-3 15.75-20.1l.1-.2.15-.45q1.55-4.65 2.8-10.25-17.7 11.85-36.9 20.7M9.8 72.5l-2.75 1.9-1.6 1.1v5m19.9-6.45.4.1.25.05h.1M9.8 72.5l2.8-2 .65 6.7.3 3 .15 1.65" fill="none" stroke="#652a00" stroke-linecap="round" stroke-linejoin="round" stroke-width="2"/></g><use ffdec:characterId="1" height="60.45" width="157" xlink:href="#T" id="b"/><use ffdec:characterId="3" height="24.65" width="18.8" xlink:href="#U" id="p"/><use ffdec:characterId="5" height="3.9" width="2.15" xlink:href="#V" id="q"/><use ffdec:characterId="7" height="3.75" width="1.85" xlink:href="#W" id="r"/><use ffdec:characterId="9" height="21.8" width="17.55" xlink:href="#X" id="s"/><use ffdec:characterId="11" height="20.9" width="19.9" xlink:href="#Y" id="t"/><use ffdec:characterId="13" height="25.25" width="19.75" xlink:href="#Z" id="u"/><use ffdec:characterId="15" height="18.25" width="19.5" xlink:href="#aa" id="v"/><use ffdec:characterId="17" height="19.1" width="19" xlink:href="#ab" id="w"/><use ffdec:characterId="19" height="24.4" width="17.6" xlink:href="#ac" id="x"/><use ffdec:characterId="21" height="26.45" width="16.15" xlink:href="#ad" id="y"/><use ffdec:characterId="23" height="28.6" width="18.45" xlink:href="#ae" id="z"/><use ffdec:characterId="25" height="27.1" width="22.35" xlink:href="#af" id="A"/><use ffdec:characterId="27" height="26.45" width="23.8" xlink:href="#ag" id="B"/><use ffdec:characterId="29" height="23.65" width="23.3" xlink:href="#ah" id="C"/><use ffdec:characterId="31" height="22.4" width="24.95" xlink:href="#ai" id="D"/><use ffdec:characterId="33" height="30.5" width="30.4" xlink:href="#aj" id="E"/><use ffdec:characterId="36" height="90.85" width="82.75" xlink:href="#ak" id="d"/><use ffdec:characterId="38" height="140.5" width="107.75" xlink:href="#al" id="e"/><use ffdec:characterId="40" height="104" width="100.2" xlink:href="#am" id="f"/><use ffdec:characterId="42" height="77.3" width="57.9" xlink:href="#an" id="g"/><use ffdec:characterId="44" height="68.3" width="51.6" xlink:href="#ao" id="h"/><use ffdec:characterId="46" height="99.5" transform="translate(0 18.4)" width="132.5" xlink:href="#ap" id="i"/><use ffdec:characterId="52" height="78" width="58.05" xlink:href="#aq" id="j"/><use ffdec:characterId="69" height="55.7" width="44.05" xlink:href="#ar" id="l"/><use ffdec:characterId="71" height="75.6" transform="translate(18.55 22.65)" width="122.05" xlink:href="#as" id="m"/><use ffdec:characterId="80" height="129.75" transform="translate(13.55)" width="158.65" xlink:href="#at" id="n"/><use ffdec:characterId="86" height="90.7" width="60.65" xlink:href="#au" id="o"/><path d="M78.5 0q32.55 0 55.5 8.85 23 8.85 23 21.35 0 12.55-23 21.4-22.95 8.85-55.5 8.85-32.6 0-55.55-8.85Q0 42.75 0 30.2 0 17.7 22.95 8.85 45.9 0 78.5 0" fill-opacity=".349" fill-rule="evenodd" id="T"/><path d="M1.6 0q1.2.85-.3 3.9L0 2.9Q.4-.1 1.6 0" fill="#8698d9" fill-rule="evenodd" id="V"/><path d="M1.4 3.75 0 3.4Q1.2-1.25 1.8.5q.25 1.25-.4 3.25" fill="#8698d9" fill-rule="evenodd" id="W"/><path d="M107.9-8q-.65-3.1-4.1-1.45-2.4.55-1.5-1 10.15-12.65 30.15-17.5-22.3 6.3-20.1 20.5l2.55-.7Q111.55 14.3 88.65 26.9l-3.55.6q-3.25.5-16.15-2.45-4.95-.55-23-13.4-18.1-12.85-37.1-4.1-9.05 3.6-1.95 29.8 6.45 19.95 18.75 31.6 3.65 3.45-2.5 2.35-8.1-8.4-13.35-19.2Q.9 37.45 0 18.75q-.6-13.8 11.1-16.3l7.45-1.3q16.9-2.8 35.4 10.15t24.7 11.8q6.15-1.15 10.45-3.75Q108.05 7.8 107.9-8" fill="#affff2" fill-rule="evenodd" transform="translate(.05 27.95)" id="ap"/><path d="M49.45-6.1q6.45-5.1 16.85-11.4l10.85-6.45q12.5-6.8 36.9-10.5 25.3-3.85 43.45-22.2-22.85 27.7-51.3 32.3l1.65-.85 1-2.6q-19.8 7.05-39.65 17.15L62.4-7.1q-.15 0-.25-.15l-.1.3Q45.9 2.25 26.1 18.7 6.2 35.05.35 72.5l-1.3.6q-1.1-3.85 3.6-22.45Q7.35 32.1 25.1 15.6 42.95-1 49.45-6.1" fill="#affff2" fill-rule="evenodd" transform="translate(1.15 56.65)" id="at"/><linearGradient gradientTransform="matrix(-.0013 -.0023 .0038 -.0022 55.35 59.5)" gradientUnits="userSpaceOnUse" id="F" spreadMethod="pad" x1="-819.2" x2="819.2"><stop offset=".024" stop-color="#1954a3"/><stop offset="1" stop-color="#7cfffb"/></linearGradient><linearGradient gradientTransform="matrix(-.0022 -.0012 .0018 -.0032 50.65 65.35)" gradientUnits="userSpaceOnUse" id="G" spreadMethod="pad" x1="-819.2" x2="819.2"><stop offset=".024" stop-color="#1954a3"/><stop offset="1" stop-color="#7cfffb"/></linearGradient><linearGradient gradientTransform="matrix(0 .0039 -.0016 0 3.15 17.85)" gradientUnits="userSpaceOnUse" id="S" spreadMethod="pad" x1="-819.2" x2="819.2"><stop offset="0" stop-color="#55bad8"/><stop offset="1" stop-color="#093494"/></linearGradient></defs></svg>