<svg xmlns:ffdec="https://www.free-decompiler.com/flash" xmlns:xlink="http://www.w3.org/1999/xlink" ffdec:objectType="frame" height="90" width="90" xmlns="http://www.w3.org/2000/svg"><use ffdec:characterId="39" height="241.4" transform="matrix(.3552 0 0 .3554 -.178 2.239)" width="250.45" xlink:href="#a"/><defs><linearGradient gradientTransform="matrix(.003 -.0052 .0016 .0009 6.25 28)" gradientUnits="userSpaceOnUse" id="p" spreadMethod="pad" x1="-819.2" x2="819.2"><stop offset="0" stop-color="#dc5b65"/><stop offset="1" stop-color="#a862ba"/></linearGradient><linearGradient gradientTransform="matrix(.0074 -.013 .0016 .0009 6.55 27.5)" gradientUnits="userSpaceOnUse" id="q" spreadMethod="pad" x1="-819.2" x2="819.2"><stop offset="0" stop-color="#dc5b65"/><stop offset="1" stop-color="#a862ba"/></linearGradient><linearGradient gradientTransform="matrix(.0053 0 0 .0125 7.05 32.3)" gradientUnits="userSpaceOnUse" id="r" spreadMethod="pad" x1="-819.2" x2="819.2"><stop offset="0" stop-color="#dc5b65"/><stop offset="1" stop-color="#c74a5c"/></linearGradient><linearGradient gradientTransform="matrix(.0075 0 0 .0099 14.65 27.85)" gradientUnits="userSpaceOnUse" id="s" spreadMethod="pad" x1="-819.2" x2="819.2"><stop offset="0" stop-color="#dc5b65"/><stop offset="1" stop-color="#823b95"/></linearGradient><linearGradient gradientTransform="matrix(.0063 -.0109 .0035 .002 23.9 23.4)" gradientUnits="userSpaceOnUse" id="t" spreadMethod="pad" x1="-819.2" x2="819.2"><stop offset="0" stop-color="#923e87"/><stop offset="1" stop-color="#6d39a8"/></linearGradient><linearGradient gradientTransform="matrix(.0068 0 0 .0078 17.55 19.5)" gradientUnits="userSpaceOnUse" id="u" spreadMethod="pad" x1="-819.2" x2="819.2"><stop offset="0" stop-color="#95355f"/><stop offset="1" stop-color="#5e2a79"/></linearGradient><linearGradient gradientTransform="matrix(.0073 .0279 -.0089 .0023 22.65 23.6)" gradientUnits="userSpaceOnUse" id="A" spreadMethod="pad" x1="-819.2" x2="819.2"><stop offset="0" stop-color="#882e37"/><stop offset=".635" stop-color="#e84024"/><stop offset="1" stop-color="#fabc07"/></linearGradient><linearGradient gradientTransform="matrix(.0193 0 0 .0202 17.9 25.1)" gradientUnits="userSpaceOnUse" id="D" spreadMethod="pad" x1="-819.2" x2="819.2"><stop offset="0" stop-color="#862e38"/><stop offset=".663" stop-color="#e24225"/><stop offset="1" stop-color="#f9b309"/></linearGradient><linearGradient gradientTransform="matrix(.0165 0 0 .0211 29.1 22.25)" gradientUnits="userSpaceOnUse" id="E" spreadMethod="pad" x1="-819.2" x2="819.2"><stop offset=".008" stop-color="#9967d3"/><stop offset="1" stop-color="#ab61b4"/></linearGradient><linearGradient gradientTransform="matrix(.0317 0 0 .0257 31.8 30.45)" gradientUnits="userSpaceOnUse" id="F" spreadMethod="pad" x1="-819.2" x2="819.2"><stop offset=".114" stop-color="#6c39a8"/><stop offset=".773" stop-color="#9967d3"/><stop offset="1" stop-color="#ab61b4"/></linearGradient><linearGradient gradientTransform="matrix(.0148 0 0 .0101 41.55 19.15)" gradientUnits="userSpaceOnUse" id="G" spreadMethod="pad" x1="-819.2" x2="819.2"><stop offset="0" stop-color="#9967d3"/><stop offset="1" stop-color="#ac61b3"/></linearGradient><linearGradient gradientTransform="matrix(.0043 0 0 .0052 63 15.95)" gradientUnits="userSpaceOnUse" id="H" spreadMethod="pad" x1="-819.2" x2="819.2"><stop offset="0" stop-color="#6d39a8"/><stop offset="1" stop-color="#8f3d89"/></linearGradient><linearGradient gradientTransform="matrix(.0056 0 0 .0083 55.95 17.45)" gradientUnits="userSpaceOnUse" id="I" spreadMethod="pad" x1="-819.2" x2="819.2"><stop offset="0" stop-color="#6d39a8"/><stop offset="1" stop-color="#8f3d89"/></linearGradient><linearGradient gradientTransform="matrix(.0112 -.0193 .0048 .0028 16.75 18)" gradientUnits="userSpaceOnUse" id="J" spreadMethod="pad" x1="-819.2" x2="819.2"><stop offset="0" stop-color="#c96384"/><stop offset="1" stop-color="#9967d3"/></linearGradient><linearGradient gradientTransform="matrix(0 -.0072 .007 0 6.45 25.5)" gradientUnits="userSpaceOnUse" id="K" spreadMethod="pad" x1="-819.2" x2="819.2"><stop offset="0" stop-color="#a03f5b"/><stop offset="1" stop-color="#7f3c97"/></linearGradient><linearGradient gradientTransform="matrix(-.0051 -.0088 .0058 -.0033 15.65 33.1)" gradientUnits="userSpaceOnUse" id="L" spreadMethod="pad" x1="-819.2" x2="819.2"><stop offset="0" stop-color="#a03f5b"/><stop offset="1" stop-color="#7f3c97"/></linearGradient><linearGradient gradientTransform="matrix(.0138 -.008 .0031 .0053 23.2 16.6)" gradientUnits="userSpaceOnUse" id="M" spreadMethod="pad" x1="-819.2" x2="819.2"><stop offset="0" stop-color="#cf7288"/><stop offset="1" stop-color="#9f67cb"/></linearGradient><linearGradient gradientTransform="matrix(.0086 0 0 .011 21.6 25.35)" gradientUnits="userSpaceOnUse" id="N" spreadMethod="pad" x1="-819.2" x2="819.2"><stop offset="0" stop-color="#a94e75"/><stop offset="1" stop-color="#692f78"/></linearGradient><linearGradient gradientTransform="matrix(.0069 0 0 .007 19.4 34.25)" gradientUnits="userSpaceOnUse" id="O" spreadMethod="pad" x1="-819.2" x2="819.2"><stop offset="0" stop-color="#8f4798"/><stop offset="1" stop-color="#6c39a8"/></linearGradient><linearGradient gradientTransform="matrix(.0077 0 0 .0252 6.25 46.2)" gradientUnits="userSpaceOnUse" id="P" spreadMethod="pad" x1="-819.2" x2="819.2"><stop offset="0" stop-color="#ffcf02"/><stop offset="1" stop-color="#9b6d35"/></linearGradient><linearGradient gradientTransform="matrix(.0083 -.0143 .0069 .004 4.65 46.6)" gradientUnits="userSpaceOnUse" id="Q" spreadMethod="pad" x1="-819.2" x2="819.2"><stop offset="0" stop-color="#f9ff01"/><stop offset="1" stop-color="#ffa400"/></linearGradient><linearGradient gradientTransform="matrix(0 -.0151 .0066 0 16.05 23.4)" gradientUnits="userSpaceOnUse" id="R" spreadMethod="pad" x1="-819.2" x2="819.2"><stop offset="0" stop-color="#ba4867"/><stop offset="1" stop-color="#733aa2"/></linearGradient><linearGradient gradientTransform="matrix(.0128 -.0128 .0063 .0063 17.45 27.25)" gradientUnits="userSpaceOnUse" id="S" spreadMethod="pad" x1="-819.2" x2="819.2"><stop offset="0" stop-color="#ba4867"/><stop offset="1" stop-color="#733aa2"/></linearGradient><linearGradient gradientTransform="matrix(.0016 -.0016 .0018 .0018 14.4 43.1)" gradientUnits="userSpaceOnUse" id="T" spreadMethod="pad" x1="-819.2" x2="819.2"><stop offset="0" stop-color="#a33d59"/><stop offset="1" stop-color="#732e6e"/></linearGradient><linearGradient gradientTransform="matrix(.0026 0 0 .0036 12.7 47.75)" gradientUnits="userSpaceOnUse" id="U" spreadMethod="pad" x1="-819.2" x2="819.2"><stop offset="0" stop-color="#c96083"/><stop offset="1" stop-color="#b361a6"/></linearGradient><linearGradient gradientTransform="matrix(.0022 0 0 .0019 12.05 53.25)" gradientUnits="userSpaceOnUse" id="V" spreadMethod="pad" x1="-819.2" x2="819.2"><stop offset="0" stop-color="#c96083"/><stop offset="1" stop-color="#b361a6"/></linearGradient><linearGradient gradientTransform="matrix(-.0067 -.0116 .0048 -.0027 14.05 35.55)" gradientUnits="userSpaceOnUse" id="Y" spreadMethod="pad" x1="-819.2" x2="819.2"><stop offset="0" stop-color="#c86685"/><stop offset="1" stop-color="#9f65ca"/></linearGradient><linearGradient gradientTransform="matrix(0 -.0097 .0019 0 19.55 39.95)" gradientUnits="userSpaceOnUse" id="Z" spreadMethod="pad" x1="-819.2" x2="819.2"><stop offset="0" stop-color="#963e5f"/><stop offset="1" stop-color="#823d95"/></linearGradient><linearGradient gradientTransform="matrix(0 -.0025 .0028 0 3.6 29.85)" gradientUnits="userSpaceOnUse" id="aa" spreadMethod="pad" x1="-819.2" x2="819.2"><stop offset="0" stop-color="#b561a3"/><stop offset="1" stop-color="#9f66cb"/></linearGradient><linearGradient gradientTransform="matrix(0 -.0027 .0036 0 16.2 29.95)" gradientUnits="userSpaceOnUse" id="ab" spreadMethod="pad" x1="-819.2" x2="819.2"><stop offset="0" stop-color="#914088"/><stop offset="1" stop-color="#6f39a5"/></linearGradient><linearGradient gradientTransform="matrix(-.0039 -.0149 .0037 -.001 6.85 45.2)" gradientUnits="userSpaceOnUse" id="ad" spreadMethod="pad" x1="-819.2" x2="819.2"><stop offset="0" stop-color="#d16878"/><stop offset="1" stop-color="#b062ac"/></linearGradient><g id="a" transform="translate(.5 -6.3)"><use ffdec:characterId="1" height="9.8" transform="matrix(3.1226 0 0 5.883 76.649 190.023)" width="55.5" xlink:href="#b"/><use ffdec:characterId="3" height="42.65" transform="translate(81.6 163.75) scale(1.4347)" width="39.6" xlink:href="#c"/><use ffdec:characterId="5" height="49.6" transform="translate(5 115.6) scale(1.4347)" width="69.95" xlink:href="#d"/><use ffdec:characterId="7" height="42.85" transform="translate(193.45 150.6) scale(1.4347)" width="33.9" xlink:href="#e"/><use ffdec:characterId="14" height="163.1" transform="translate(138.972 6.309) scale(.9827)" width="90.6" xlink:href="#f"/><use ffdec:characterId="16" height="12.75" transform="translate(169.6 165.95) scale(1.4347)" width="23.95" xlink:href="#g"/><use ffdec:characterId="18" height="52.6" transform="translate(103 132.45) scale(1.4347)" width="68.3" xlink:href="#h"/><use ffdec:characterId="20" height="51.7" transform="translate(79.85 110.45) scale(1.4347)" width="10.7" xlink:href="#i"/><use ffdec:characterId="22" height="45.05" transform="translate(88.1 91.8) scale(1.4347)" width="47.6" xlink:href="#j"/><use ffdec:characterId="24" height="80.8" transform="translate(109.35 72.8) scale(1.4347)" width="43.05" xlink:href="#k"/><use ffdec:characterId="26" height="66.8" transform="translate(97.25 105.7) scale(1.4347)" width="54.1" xlink:href="#l"/><use ffdec:characterId="32" height="56.75" transform="translate(72.05 57.2) scale(1.4347)" width="55.8" xlink:href="#m"/><use ffdec:characterId="36" height="49.45" transform="translate(163.5 163.15) scale(1.4347)" width="41.05" xlink:href="#n"/><use ffdec:characterId="38" height="57.8" transform="translate(133.35 161.556) scale(1.4347)" width="21.55" xlink:href="#o"/></g><g id="ae" fill-rule="evenodd"><path d="m19.75.2.1.4L17 15.35l.4 4.1-.1.35-1.25 1.65-1.1 4.95-.1.25q-3.65 4.1-7.45 10.2L4.75 41.2l-.45.85v.05l-.3.35-.35.2-.35-.05-.25-.35.1-.4.1-.15q-1.3-3.35-.05-12.4L.85 31l-.3.1-.3-.1-.2-.25-.05-.3 1.7-8.85q.6-8.3 5.2-13.75l.15-.1 12-7.7.4-.05q.2.05.3.2m-5.5 4.2L12.6 5.45 7.7 8.6q-3.9 4.65-4.75 11.45l.7-.45 3.25-2.05.9-.3 2.8-1 5.55-2.05 1.35-6.95 1.05-5.65-4.3 2.8m1.7 10.85v-.05l.1-.5q-7.7 3.05-11.55 5.7l-2.45 5-.75 4 .9-.65.85-.65 2.05-2 .4-.2 2.85-1.4.4-.3 5.2-2.4-2.15 1.4q-3.55 2.3-7.5 5.65l-.2 1.75-.1.6q-.7 6.25 0 9.25l.65-1.05.95-1.7 1.9-3 2.35-3.4q2.05-2.95 4.1-5.25l1.1-4.95.1-.2 1.2-1.55-.1-.65-.3-3.3v-.15" fill="#502666"/><path d="m12.6 5.45 1.65-1.05L7.8 17.25l-.9.3-3.25 2.05 3.7-7.55 5.25-6.6" fill="#a364c3"/><path d="m14.25 4.4 4.3-2.8-1.05 5.65-6.9 9-2.8 1L14.25 4.4" fill="#692c73"/><path d="m17.5 7.25-1.35 6.95-5.55 2.05 6.9-9m-6.8 10.3 5.2-2.25.05.1.3 3.3-7.5 5.5-.4.3.05-.15 2.3-6.8" fill="#803c97"/><path d="m7 19.75 2.05-1.5 1.65-.7-2.3 6.8-.05.15-2.85 1.4L7 19.75" fill="#8c3463"/><path d="m4.1 21.75 2.9-2-1.5 6.15-.4.2-2.05 2-.85.65 1.9-7" fill="#bf5f92"/><path d="m4 31.2.1-.6.8-.8q-.3 5.5.7 7.9l-.95 1.7L4 31.2" fill="#d06279"/><path d="M4.9 29.8q1.1-1.6 2.95-3.35L7.5 34.7l-1.9 3q-1-2.4-.7-7.9" fill="#a94057"/><path d="m11.8 23.2 2.15-1.4-4.1 9.5-2.35 3.4.35-8.25 3.95-3.25" fill="#9f437d"/><path d="m13.95 21.8-5.2 2.4 7.5-5.5.1.65-1.2 1.55-.1.2-1.1 4.95q-2.05 2.3-4.1 5.25l4.1-9.5.5-.3-.5.3" fill="#cdedff"/><path d="m3.65 19.6-.7.45Q3.8 13.25 7.7 8.6l4.9-3.15-5.25 6.6-3.7 7.55m.85.8-.4 1.35-1.9 7-.9.65.75-4 2.45-5m.15 19L4 40.45q-.7-3 0-9.25l.65 8.2" fill="#fff"/><path d="m10.7 17.55-1.65.7L7 19.75l-2.9 2 .4-1.35q3.85-2.65 11.55-5.7l-.1.5v.05l-.05.05-5.2 2.25M4.1 30.6l.2-1.75q3.95-3.35 7.5-5.65l-3.95 3.25Q6 28.2 4.9 29.8l-.8.8" fill="#f9ff01"/><path d="m39 16.15-7.1 1.4-4.7.3-3.45-.15q-1.55-.35-3.25-1.85-1.75-1.5-2-2.45-.2-.95-.9-1.75l-1.25-1.2q-.75-.55-2.15-.95l1.35-1.65q1.35.2 2.65 1 1.4.95 2.1 2.05.95 1.6 2.45 2.5 1.5.85 3.1 1l4.3-.35 8.1-1.65.45 1.85.3 1.9" fill="#fff"/><path d="M14.2 9.5q1.4.4 2.15.95l1.25 1.2q.7.8.9 1.75.25.95 2 2.45 1.7 1.5 3.25 1.85l3.45.15 4.7-.3 7.1-1.4.5 3.75-12.45 1.7q-5.05.3-6.6-1.2l-1.8-2.05-.3-.65-4.5-1.15-3.9-.9.55-.9 3.7-5.25" fill="#f1e1ae"/><path d="m38.25 12.4-8.1 1.65-4.3.35q-1.6-.15-3.1-1-1.5-.9-2.45-2.5-.7-1.1-2.1-2.05-1.3-.8-2.65-1l.9-1.05 1.25.35q1.1.35 1.35.6l1 1.05 1 1.2 2.15 2.3q1.15 1.15 2.8 1.15l4.05-.8 7.8-2 .4 1.75m-28.3 3.25 3.9.9 4.5 1.15.3.65 1.8 2.05q1.55 1.5 6.6 1.2l12.45-1.7.1 1.7q-9.65 1.8-13.3 1.8-2.9 0-4.75-.8l-1.95-1.3-1.4-1.2-.75-.9-.95-.1-2.7-.55-3.1-.85-1.7-.55.95-1.5" fill="#b9a173"/></g><g id="af" fill-rule="evenodd"><path d="m28.55 10.95-.1-.15q-.1-.25.05-.5.1-.2.35-.3l12.5-4.25h.3l.3.1q3.85 3.5 9.9 5.75 6.65 1.2 12.8-1.15l1-.4.5-.05.35.35v.45l-.35.35-1.15.45q-6.4 2.5-13.4 1.2h-.1Q45.35 10.5 41.4 7l-7.45 2.55-3.9 1.35-.7.25h-.55l-.25-.2m38.3 6.5.1.2-2 .55-4.2 1.1q-3.75.9-4.35 1.45-.8.65-1.4 2.2l-.3.7-.4 1.05-.3.75.05.05.1.05q1.3 1.8 3.9 1.75l.95-.25 2.3-1.5.4-.3 5.85-5.5.9-.95.3-.35 1.2-1.25-2.25 3.05-2.6 3.2Q63 26 60.85 27.15l-2.3.85q-3.4.65-5.1-1.3-7.75 3.6-14 3.2l-3.15 3.75-.4.2-.45-.15-.2-.4q-.05-.25.15-.45-.1-.15-.05-.3l.35-3.4-4.85-.9-2.9 4.6-.4.3-.45-.1-.25-.4-.9-4.25-15.25 4.2-.45-.05-.3-.35.1-.5.35-.3 2.45-.65 13.4-3.7h.3l.3.2.15.25.35 1.6.35 1.8 2.35-3.7.2-.2.2-.05h.25l.35.05.15.05 5.3 1 .35.25.1.4-.05.75-.2 1.85 2.05-2.4.2-.2.3-.05h3.2l.25-.05q4.65-.45 10.1-2.95l.55-1.6.05-.1.3-1.1q.5-1.65 1.55-2.5 2.25-1.75 10.25-2.7l1.35-.2m.2 4.7.15-.7q.2-1.3.15-.1l-.3.8" fill="#b9a173"/><path d="m29.35 11.15.7-.25q3 3.7 8.45 6.2-4.1-3.35-4.55-7.55L41.4 7q3.95 3.5 10.1 5.8h.1q7 1.3 13.4-1.2l1.45 4.55q-11.85 3.8-21.15 4.5-7.6-.55-11.2-3.85l-.6-.75-4.15-4.9" fill="#fff"/><path d="m30.05 10.9 3.9-1.35q.45 4.2 4.55 7.55-5.45-2.5-8.45-6.2m36.4 5.25.4 1.3-1.35.2q-8 .95-10.25 2.7-1.05.85-1.55 2.5l-.3 1.1-.05.1-9.5 1.35-12.9-.4-1.8 1.45.4-4.1 3.95-6.3.6.75q3.6 3.3 11.2 3.85 9.3-.7 21.15-4.5m-11.75 7.5.3-.7q.6-1.55 1.4-2.2.6-.55 4.35-1.45l4.2-1.1Q63.6 19.45 60.8 21q-3.35 1.9-6.1 2.65" fill="#f1e1ae"/><path d="m28.55 10.95.25.2h.55l4.15 4.9-3.95 6.3-.4 4.1 1.8-1.45 12.9.4 9.5-1.35-.55 1.6q-5.45 2.5-10.1 2.95h-.05l-2.35-.45q-1.2 0-2.15.45l-1.25.85.05-.75-.1-.4-.35-.25-5.3-1-.15-.05-.35-.05h-.3q-.85 0-2.15 1.2l-.9.95-.35-1.6-.15-.25-.3-.2h-.3l-13.4 3.7 15.7-19.8m38.4 6.7v.15l.15.4-1.5 2.15-3.9 4.9-.4.3-2.3 1.5q-1.65-.2-2.6-.75-1.15-.95-2.1-1.6l.4-1.05q2.75-.75 6.1-2.65 2.8-1.55 4.15-2.8l2-.55" fill="#d7c38d"/><path d="m67.1 18.2.45 1.55-5.85 5.5 3.9-4.9 1.5-2.15M42.7 28.6l-.25.05h-3.2l-.3.05-.2.2-2.05 2.4.2-1.85 1.25-.85q.95-.45 2.15-.45l2.35.45h.05m-12.25-1.65-.2.05-.2.2-2.35 3.7-.35-1.8.9-.95q1.3-1.2 2.15-1.2h.05m28.55.1-.95.25q-2.6.05-3.9-1.75l-.1-.05-.05-.05.3-.75q.95.65 2.1 1.6.95.55 2.6.75" fill="#cdeefe"/><path d="M3.4 34.7v-.05.05" fill="url(#p)"/><path d="m11.65 16.3-.25 5.75-4.6 6-3.4 6.65v-.05l.25-2.1q-.85 1.3-1.3 2.55-.6 1.5-.95 3.6v-1.2q.3-2.1.75-4.1l2.4-5.25.05.55q0 1-.85 2.25-.9 1.2-.9 1.75l.1-.15Q3.75 31 4.7 30.6q.5-.25.5-1.8l-.05-1-.1-.6 6.6-10.9" fill="url(#q)"/><path d="m11.4 22.05-.2 3.85-3.85 10.95q-1.75 3.05-2.9 5.7l-.15-1.8q0-.8.25-1.2l.95-1.15.6-1.25.2-.75-.95 1.35-1.7 1.45 1.95-3.45q1.2-2 1.2-3.65l.2-1.5.1-1.45v-.6l-1.5 4.6q-.8 2.25-2.4 3.5l-.45.35v-.5l.6-1.7.05-.1 3.4-6.65 4.6-6" fill="url(#r)"/><path d="m20.8 19.7-.35 5.05-.15.15-6 5.1-2 3.25-1.15 2.7-1.5-1.5L8.5 35.7l1.6-4.2 1.6-.6 1.4-1-1.1.2-.25-.05-.15-.05q.25-.95 1.1-1.6l1.45-.95v-.5q-.35 0-.9.35l-.85.25v-.2q.25-.55 1.65-1.5.95-.6 1-1.35l-.7.35q-.65.35-1.1.35l-.5-.2q1.7-2 3.9-3.45 2.25-1.45 4.15-1.85m-1.4 2.95h-.5q-.6.25-1.15 1.65l1.05-.5q.7-.4.6-1.15" fill="url(#s)"/><path d="m31.95 16.1-4.4 6.6-.05.05.05.05-.95.7h-.05q-1 .55-1.55 1-.45.35-1.4 1.2l-1.25 1.25-2.15 2.45q-1.15 1.35-1.5 2.25l-1.25-1.55-1.5.65 4.85-6.15.6-2.5.05-.3q.3-.7.9-1.45l1-1.45-.3-.2-.35-.05q2.25-1 4.65-1.65l4.6-.9" fill="url(#t)"/><path d="m23.1 13.15-2.25 6.55h-.05q-1.9.4-4.15 1.85-2.2 1.45-3.9 3.45l-.7.85.1-1.25h.05l.6-1.45.5-1.3 1.2-.85q.8-.6.95-1.15l-.8.4-.9.3-.35-.1 3.45-2.9q3.05-2.5 6.25-4.4" fill="url(#u)"/><path d="m38.85 7.2-5.35 6.55-1.55 2.35-4.6.9q-2.4.65-4.65 1.65l-.15-.05 1.15-1.45 2-2.3-1.65.6q-.3.15-.75.45l1.35-3.45.05-.1 3.55-1.55q3.85-1.65 5.4-2.15l3.3-1.05 1.9-.4" fill="#5e2a79"/><path d="m29.8 8.1 11.8-4.3-2.75 3.4-1.9.4-3.3 1.05q-1.55.5-5.4 2.15l-3.55 1.55.9-2.15 4.2-2.1m-4.95 0-1.75 5.05q-3.2 1.9-6.25 4.4l-3.45 2.9-1 .9.05-.9.95-.85.85-1.1 1.1-.85q.55-.45.55-1.25-.55.8-1.65 1.2l-.65.15-.95.3.1-.95 2.8-3 9.3-6" fill="#9967d3"/><path d="m21.45 21.8.65-2.3.2-.55.1-.35v-.1l.9-2.6q.45-.3.75-.45l1.65-.6-2 2.3-1.15 1.45.15.05.35.05.3.2-1 1.45q-.6.75-.9 1.45M10.1 31.5l1.9-4.95.05-.7.7-.85.5.2q.45 0 1.1-.35l.7-.35q-.05.75-1 1.35-1.4.95-1.65 1.5v.2l.85-.25q.55-.35.9-.35v.5l-1.45.95q-.85.65-1.1 1.6l.15.05.25.05 1.1-.2-1.4 1-1.6.6m2.05-6.95.25-3.2 1-.9.35.1.9-.3.8-.4q-.15.55-.95 1.15l-1.2.85-.5 1.3-.6 1.45-.05-.05m.3-4.1.1-1.25.5-.7.55-.75.65-.15q1.1-.4 1.65-1.2 0 .8-.55 1.25l-1.1.85-.85 1.1-.95.85m6.95 2.2q.1.75-.6 1.15l-1.05.5q.55-1.4 1.15-1.65h.5M4.45 42.55l-.05.1-.6 1.55-.3-2.7q-.35-2.7-.35-3.7l.05-1.15q1.6-1.25 2.4-3.5l1.5-4.6v.6L7 30.6l-.2 1.5q0 1.65-1.2 3.65L3.65 39.2l1.7-1.45.95-1.35-.2.75-.6 1.25-.95 1.15q-.25.4-.25 1.2l.15 1.8" fill="#fec600"/><path d="m12.55 19.2.1-1.15.95-.3-.55.75-.5.7m-8.75 25q-.7 1.9-.95 3.55-1.25-3.7-1.4-8.55l-.05-.5q.35-2.1.95-3.6.45-1.25 1.3-2.55l-.25 2.1-.05.15-.6 1.7v.5l.45-.35-.05 1.15q0 1 .35 3.7l.3 2.7m1.25-17 .1.6.05 1q0 1.55-.5 1.8-.95.4-1.75 1.95l-.1.15q0-.55.9-1.75.85-1.25.85-2.25l-.05-.55.3-.7.2-.25" fill="#f9ff01"/><path d="M46.8 0 40 7.05 27.8 23.5q-1.9.75-5.55 5.65l-2.5 5.3-2.6-2.75q-3.85 1.05-4.85 6.8l-2.55-2.2-2.4 2.6-.25.65Q4.7 43.2 3.75 49.6 1.05 48.25 0 39.45q.2-4.75 2.65-11 4.25-11.5 10.5-19l-.3 5.8 6.85-6.8 8.2-5.4-1.9 5.7 14.7-7.3L46.8 0m-5.2 3.8 1.25-1.55L29.8 8.1l-4.2 2.1-.9 2.15-.05.1-1.35 3.45-.9 2.6v.1l-.1.35-.2.55-.65 2.3-.05.3-.6 2.5-4.85 6.15 1.5-.65 1.25 1.55.4.55q1-2.85 2.75-3.55l2-2.65 2.45-2.3.3-.2.95-.7v-.1l4.4-6.6 1.55-2.35 5.35-6.55 2.75-3.4M24.85 8.1l.65-1.9-8.75 6.6-1.2 1.3-2.8 3-.1.95-.1 1.15-.1 1.25-.05.9-.25 3.2v.05l-.1 1.25-.05.7-1.9 4.95-1.6 4.2 1.15-1.25 1.5 1.5.5.55L14.1 31l6.05-6 .3-.25.35-5.05h.05l2.25-6.55 1.75-5.05M11.4 22.05l.25-5.75.1-2.35-4.55 7.5q-3.5 5.4-5.05 11.95-.45 2-.75 4.1v1.2l.05.5q.15 4.85 1.4 8.55.25-1.65.95-3.55l.6-1.55.05-.1q1.15-2.65 2.9-5.7L11.2 25.9l.2-3.85" fill="#502666"/><path d="m26.6 23.5-.3.2-2.45 2.3-2 2.65q-1.75.7-2.75 3.55l-.4-.55q.35-.9 1.5-2.25l2.15-2.45 1.25-1.25q.95-.85 1.4-1.2.55-.45 1.55-1h.05M20.15 25l-6.05 6-2.45 5.5-.5-.55 1.15-2.7 2-3.25 6-5.1q-.05 0-.15.1" fill="#ceefff"/><path d="m29.8 8.1 13.05-5.85L41.6 3.8 29.8 8.1m-14.25 6 1.2-1.3 8.75-6.6-.65 1.9-9.3 6M2.15 33.4Q3.7 26.85 7.2 21.45l4.55-7.5-.1 2.35-6.6 10.9-.2.25-.3.7-2.4 5.25" fill="#fff"/></g><g id="ag" fill-rule="evenodd"><path d="m.9 14.85-.9-1.6q6.4-2 14.4-6.25l.5 1-14 6.85m18.9 2.85.65 1.25Q12.3 21.9 5.6 23l-.45-.8 14.65-4.5" fill="#b9a173"/><path d="m14.9 8 1.95 3.85-15.2 4.3-.75-1.3L14.9 8" fill="#fff"/><path d="m16.85 11.85.35.7L3.85 20l-2.2-3.85 15.2-4.3" fill="#f3deab"/><path d="m17.2 12.55 2.6 5.15-14.65 4.5-1.3-2.2 13.35-7.45" fill="#dbb77c"/><path d="m9.6.55.1-.3.25-.25.35.05q7 2.65 13.95 10.15l.1.2L26 14.95l3.3 3.4.15.25 1.2 6 1.65 2.75.05.15 1.05 4.3q1.35 7.45-1.1 10.85l-.25.2h-.3l-.25-.15-13.9-15.55-.1-.2-1.3-3.65-2.65-1.45-.25-.25-.7-1.8v-.4l.05-.1v-3.05l-.75-.65v-.05h-.1l-.35-.1-.2-.35L9.6.55m1.3.85-.15-.1 1.1 10.05.4 3.5.25.15.8.8h.1l.95.95 5.05.35 1.95.35 2.5.6 1.7.45.3.1-.6-2.95-.05-.05-.1-.2-.4-1-1.3-3.55Q17.65 4.6 11.85 1.8l-.95-.4m2.55 15.65V17v.05l.05 2.2.05.15.65 1.7 1 .5.15-.15h.35l4.1 1.3 3.1.5.1.05 3 1.25 1.05.5.9.4 1.05.45-.05-2.45.1-.3.15-.1h.05l-.8-4.1-2.15-2.25.05.3.45 2.1-.05.3-.2.2h-.3q-3.3-1.05-6.25-1.55l-5.8-.5h-.1l-.15-.1-.5-.4m16.4 8.2-.05-.05v.05l.05 1.25-.1.25-.2.15h-.3l-5.35-2.35-1.2-.5-3.1-.5h-.05l-2.45-.8v.05l1.3 3.75L31.8 41.5l.8-2.2q.45-2.25.05-5.55l-.3-1.95-.95-3.95-1.55-2.6" fill="#502666"/><path d="M31.8 41.5 18.4 26.55l-1.3-3.75 1.5 1.15q2.95.45 5.65 1.65 1.05.45 2.05 1.05 2.4 3.9 4.25 10.1l.1.3 1.15 4.45" fill="url(#v)"/><path d="m21.35 17.45-1.95-.35-5.05-.35-.95-.95h-.1l-.8-.8-.25-.15-.4-3.5.45-4.75q3 2.15 9.05 10.85m-7.9-.4.5.4.15.1.05.05.45.35q3.05.4 6.2 1.3l1.85.5 3.35 4.8-3-1.25-.1-.05-3.1-.5-4.1-1.3h-.35l-.15.15-1-.5-.65-1.7-.05-.15-.05-2.2" fill="#9a67d2"/><path d="m10.9 1.4.95.4q3.6 2.2 6.8 5.25l6.9 11.45-1.7-.45Q16.9 6.5 10.9 1.4m17.05 24.05-.9-.4-2-4.5 1.05.45 1.85 4.45" fill="#5e2a79"/><path d="m32.6 39.3-.8 2.2-1.15-4.45-.1-.3-2-8.85.95.9 3.1 10.5" fill="#9a3d5d"/><path d="m29.2 23.05-.15.1-.1.3.05 2.45-1.05-.45L26.1 21l1.2.45.45-1.45 1.45 3.05" fill="#773aa0"/><path d="m24.7 14.4.4 1 .1.2.05.05.6 2.95-.3-.1-6.9-11.45q3.3 3.2 6.05 7.35" fill="#6c39a8"/><path d="M11.85 1.8q5.8 2.8 11.55 9.05l1.3 3.55q-2.75-4.15-6.05-7.35-3.2-3.05-6.8-5.25M26.35 17l-.05-.3 2.15 2.25.8 4.1h-.05L27.75 20l-1.4-3m4.1 10.1-.6-1.85 1.55 2.6.95 3.95.3 1.95-2.2-6.65" fill="#ceefff"/><path d="M30.45 29.55V27.1l2.2 6.65q.4 3.3-.05 5.55l-3.1-10.5.95.75" fill="#8d3f8d"/><path d="M11.85 11.35 10.75 1.3l.15.1q6 5.1 12.95 16.65l-2.5-.6Q15.3 8.75 12.3 6.6l-.45 4.75m15.2 13.7-1.05-.5-3.35-4.8 2.4.8 2 4.5m-.75 1.6 2.25 1.25 2 8.85q-1.85-6.2-4.25-10.1" fill="#fff"/><path d="M20 18.05q2.95.5 6.25 1.55h.3l.2-.2.05-.3-.45-2.1 1.4 3-.45 1.45-1.2-.45-1.05-.45-2.4-.8-1.85-.5-.8-1.2m9.25 8.85 1.2 2.65-.95-.75-.95-.9-2.25-1.25q-1-.6-2.05-1.05l-.35-1.05 5.35 2.35" fill="#f9ff01"/><path d="m14.2 17.55 5.8.5.8 1.2q-3.15-.9-6.2-1.3l-.45-.35.05-.05m15.6 7.7h.05l.6 1.85v2.45l-1.2-2.65h.3l.2-.15.1-.25-.05-1.25m-12.7-2.5 2.45.8h.05l3.1.5 1.2.5.35 1.05q-2.7-1.2-5.65-1.65l-1.5-1.15v-.05" fill="#fec400"/></g><g id="f" transform="translate(1.3 .5)"><use ffdec:characterId="9" height="46.9" transform="translate(16.25) scale(1.4599)" width="32.95" xlink:href="#w"/><use ffdec:characterId="11" height="43.05" transform="translate(0 12) scale(1.4599)" width="35.3" xlink:href="#x"/><use ffdec:characterId="13" height="80.8" transform="translate(28 44.65) scale(1.4599)" width="42" xlink:href="#y"/></g><g id="ah" fill-rule="evenodd"><path d="M22.15 16.7q.5-.45 1.2-.45t1.2.45q.5.5.5 1.25 0 .7-.5 1.2t-1.2.5q-.7 0-1.2-.5t-.5-1.2q0-.75.5-1.25m5 10.85-.2.75-.55.35-.55-.35q-.25-.3-.25-.75t.25-.75q.2-.3.55-.3.3 0 .55.3l.2.75M25.4 24.6q0 .6-.45 1.05-.45.45-1.05.45-.65 0-1.1-.45-.45-.45-.45-1.05 0-.65.45-1.1.45-.45 1.1-.45.6 0 1.05.45l.45 1.1m-1.35 7q.9 1.15.9 2.75 0 1.65-.9 2.8T21.9 38.3q-1.2 0-2.1-1.15-.9-1.15-.9-2.8 0-1.6.9-2.75t2.1-1.15q1.25 0 2.15 1.15m-1.5.7q-.85 0-1.45.65-.55.7-.55 1.7 0 .95.55 1.65.6.65 1.45.65.8 0 1.4-.65.55-.7.55-1.65 0-1-.55-1.7-.6-.65-1.4-.65" fill="#ffe400"/><path d="M18.35 28.25 16.8 27l2-.7 1.45 1.2-1.9.75M15.2 11l-.95-.25L15.8 9.5l.05.05 1.25.3L15.2 11m-4.55-5.35-1.2.25.85-2.65Q7.6 1.7 4.9 2.1l7.7-.3q4.8 2.45 7.85 9.65.5 3.4 0 4-.35-2.75-1.45-4.8L14.85 6.1 11.7 4.15l-1.05 1.5m14.2 22.3-.3.65-.6.25-.65-.25-.2-.65.2-.6.65-.25.6.25.3.6m-2.3 4.35q.8 0 1.4.65.55.7.55 1.7 0 .95-.55 1.65-.6.65-1.4.65-.85 0-1.45-.65-.55-.7-.55-1.65 0-1 .55-1.7.6-.65 1.45-.65m5.1 4.55q-.5.45-1.15.45-.65 0-1.1-.45-.45-.45-.45-1.1 0-.65.45-1.15.45-.45 1.1-.45.65 0 1.15.45.45.5.45 1.15l-.45 1.1" fill="#fff7dd"/><path d="M23.85 6.5q6.2 5.55 6.65 13.6-1.65 1.9-2.15 8.7l.25-5.3.8-2.9-.75-3.85q-2.4-7.05-4.8-10.25" fill="#cdedfd"/><path d="m19.5 40.9-1.05-.45q-2.15-4.3-1.05-11.8l-2.45-2.05q1.4-1.6 3.15-1.2v-5.1l-3.15-1.4 2.75-1.45-1.45-5.15-4.35-.85 2.55-2.4L12.3 6.4q-3.25.35-4.45 1.5-.3-1.5.8-4.05l-2.15-.7q-4.45.7-6.5 1.8 7.9-9.6 23.1-.6 6.5 4.75 9.05 16.25-4.6 9.05.8 26.3l-2.3-1-2.4-15.35.05-.7v-.25l.05-.8q.5-6.8 2.15-8.7-.45-8.05-6.65-13.6l-.45-.4q-5.25-3.55-10.8-4.3l-7.7.3q2.7-.4 5.4 1.15L9.45 5.9l1.2-.25 2.05-.45 3.15 4.25-.05.05-1.55 1.25.95.25 1.8.35q1.2 2.5 2 7.15h-1.4l1.6 1.6q.85 3.8-.4 6.2l-2 .7 1.55 1.25.35.3q-1.05 7.5.8 12.35" fill="url(#z)"/><path d="M19.5 40.9q-1.85-4.85-.8-12.35l-.35-.3 1.9-.75-1.45-1.2q1.25-2.4.4-6.2l-1.6-1.6H19q-.8-4.65-2-7.15L15.2 11l1.9-1.15-1.25-.3v-.1L12.7 5.2l-2.05.45 1.05-1.5 3.15 1.95L19 10.65q1.1 2.05 1.45 4.8.5-.6 0-4-3.05-7.2-7.85-9.65 5.55.75 10.8 4.3l.45.4q2.4 3.2 4.8 10.25l.75 3.85-.8 2.9-.25 5.3-.05.8v.25l-.05.7 2.4 15.35-11.15-5m2.65-24.2q-.5.5-.5 1.25 0 .7.5 1.2t1.2.5q.7 0 1.2-.5t.5-1.2q0-.75-.5-1.25-.5-.45-1.2-.45t-1.2.45m3.25 7.9-.45-1.1q-.45-.45-1.05-.45-.65 0-1.1.45-.45.45-.45 1.1 0 .6.45 1.05.45.45 1.1.45.6 0 1.05-.45.45-.45.45-1.05m1.75 2.95-.2-.75q-.25-.3-.55-.3-.35 0-.55.3-.25.3-.25.75t.25.75l.55.35.55-.35.2-.75m-2.3.4-.3-.6-.6-.25-.65.25-.2.6.2.65.65.25.6-.25.3-.65m-.8 3.65q-.9-1.15-2.15-1.15-1.2 0-2.1 1.15-.9 1.15-.9 2.75 0 1.65.9 2.8t2.1 1.15q1.25 0 2.15-1.15.9-1.15.9-2.8 0-1.6-.9-2.75m3.6 5.25.45-1.1q0-.65-.45-1.15-.5-.45-1.15-.45-.65 0-1.1.45-.45.5-.45 1.15 0 .65.45 1.1.45.45 1.1.45.65 0 1.15-.45" fill="url(#A)"/></g><g id="ai" fill-rule="evenodd"><path d="m25.85 42.6-1 .45-4.25-5.9q-5.55-6.05-9.75-5.3-6.15-6.2-8.7-11.55Q-1.1 12.15.6 5.75 2.45.8 5.8 0 4.75 1.85 4.25 5.55H6.8l-2 2.7-.85.3.9-1.65h-1.8l.2-2.05.2-2.05q-1.2 1-2.15 5.4-.95 7.6 4.2 15.25l.55.65 5.55 6.35q1.2 0 2.95.65 1.9.75 4.45 2.3l6.85 9.2" fill="url(#B)"/><path d="m4.8 8.25-.35.45 1.65 5.2 3.05-1.45-1.65 4.7 3.55 3.95 3.15-1.85-.6 4 3.15 1.5 1.95-2.25.5 3.45 3.35.65L35.3 38.5l-1.6.7-4.15-4.8-1.6-1.55-1.6-1.45q-2.25-1.95-4.8-3.7l-3.45-.9-.55-1.95-.7 1.55-4.55-2.55V21.7l-1.45 1.35-4.15-4.8.5-3.25-1.7.7-.15-.35-1.9-5.85.5-.95.85-.3" fill="url(#C)"/><path d="m33.7 39.2-5.5 2.4-7.05-7.6-4-2.45-2.6-.45q-1.75-.65-2.95-.65L6.05 24.1l-3.3-8.2q-1.05-3.95-.5-6.7l1.7-.65-.5.95 1.9 5.85v1.5L7.2 15l-.5 3.25 4.15 4.8 1.45-1.35v2.15l4.55 2.55.7-1.55.55 1.95 3.45.9q2.55 1.75 4.8 3.7-.55.2-.95.65-.7.8-.7 1.95t.7 1.95q.7.8 1.7.8 1.05 0 1.75-.8.6-.65.7-1.55l4.15 4.8M22 29.3q-.4 0-.7.3-.3.3-.3.7 0 .4.3.7.3.3.7.3l.7-.3.3-.7-.3-.7q-.25-.3-.7-.3m-2.15.85.1-.25-.1-.3-.25-.1q-.2 0-.3.1l-.1.3.1.25.3.15.25-.15M11.7 27.2l.75.35q.45 0 .8-.35l.3-.75-.3-.8q-.35-.3-.8-.3-.4 0-.75.3-.3.35-.3.8 0 .45.3.75m12.25 5q-.3-.35-.75-.35-.5 0-.85.35-.3.35-.3.8 0 .45.3.8.35.35.85.35.45 0 .75-.35l.35-.8-.35-.8" fill="url(#D)"/><path d="m26.35 31.4 1.6 1.45 1.6 1.55q-.1.9-.7 1.55-.7.8-1.75.8-1 0-1.7-.8T24.7 34q0-1.15.7-1.95.4-.45.95-.65M11.7 27.2q-.3-.3-.3-.75t.3-.8q.35-.3.75-.3.45 0 .8.3l.3.8-.3.75q-.35.35-.8.35l-.75-.35m8.15 2.95-.25.15-.3-.15-.1-.25.1-.3q.1-.1.3-.1l.25.1.1.3-.1.25M22 29.3q.45 0 .7.3l.3.7-.3.7-.7.3q-.4 0-.7-.3-.3-.3-.3-.7 0-.4.3-.7.3-.3.7-.3m6.35 4.6q0-.6-.45-1-.4-.45-1-.45-.55 0-1 .45-.4.4-.4 1t.4 1q.45.4 1 .4.6 0 1-.4.45-.4.45-1" fill="#ffe400"/><path d="m28.2 41.6-2.35 1L19 33.4q-2.55-1.55-4.45-2.3l2.6.45 4 2.45 7.05 7.6M5.5 15.7l1.7-.7-1.85 1.85V15.7h.15m.55 8.4-.55-.65Q.35 15.8 1.3 8.2q.95-4.4 2.15-5.4l-.2 2.05-.9 3.85 2-1.8h.5l-.9 1.65-1.7.65q-.55 2.75.5 6.7l3.3 8.2" fill="#fff"/><path d="m3.25 4.85-.2 2.05h1.3l-2 1.8.9-3.85" fill="#852e38"/><path d="m23.95 32.2.35.8-.35.8q-.3.35-.75.35-.5 0-.85-.35-.3-.35-.3-.8 0-.45.3-.8.35-.35.85-.35.45 0 .75.35m4.4 1.7q0 .6-.45 1-.4.4-1 .4-.55 0-1-.4-.4-.4-.4-1t.4-1q.45-.45 1-.45.6 0 1 .45.45.4.45 1" fill="#fffef7"/></g><g id="aj" fill-rule="evenodd"><path d="M4.25 19.25q-1-2.8-.65-4.85l.15-.25.25-.1.3.05 4.55 2.7Q5.95 8.45 6.45.45l.1-.3.25-.1h.35l2.8 1.8q3.1 2.15 7 5.9l2.3 2.25q1.05-4.55 4.5-8.1l.2-.15h.25l.25.15 4.35 5.05.2.25.1.3-.15.35-.35.1-.25-.1-.05-.05-2.65-3.1-1.6-1.8-.7.85q-2.65 3.2-3.4 7.25l-.15.3-.3.1-.35-.15L18 10.1q-4.2-4.2-7.5-6.7L7.35 1.25q-.35 8 2.8 16.35l.05.1v.25l-.15.25-.25.1-.3-.05-2.9-1.75-2.15-1.25.05 1.05q.15 1.4.8 3.05 2.2 5.55 10 14.15l.15.15 3.45.75.45-8.15V26l.05-1.15.1-.25.2-.15h.2q1.2.35 2.3.85l.2.05v.05q4.25 1.8 6.4 5.05l.75-2.9.45-1.5.1-.2.25-.1.25.1.65.45.15.1 1.55 1.3 2.45 2.6 1 1.3q.3-5.45-1.3-10.45l-.05-.2-.15-.55-.25-.5-.05-.2-.05-.15.05-.3q.1-.25.35-.35l.45.05.1.05.2.25.9 2.75.05.15q1.4 5.2.8 10.9v.05l.05.15.45 1.9.45 2.9.05.8.05 1.9-.2 4.15q-.4 4.15-1.7 8.85-.1 3-1.85 9.35l-.05.1q-3 5.7-6 8.15-6.75 5.85-13.35 6.75l-1.05.1h-2.65q-.25 0-.35-.2l-.15-.35.2-.35q.15-.2.35-.15l3.15-.05 1.2-.2q5.9-1.1 11.95-6.3l.35-2.85.45-2.8.15-1.4-3.05.55-.15.05-.25-.05-.2-.2-1.25-4.45-.75-2.8-1.35 1.4-.3.1-.25-.05-.05-.05-.15-.25q0-.2.15-.3l1.8-1.95.25-.1.3.05.15.25L26 63.3l3.4-.65.25.05.15.15.05.25-.75 5.5-.2 1.15q2.4-2.4 4.85-7 1.7-6.2 1.8-9.05v-.3l.05-.25-.2-1.35-.05-.5-.35-2.1-3.55 1.45-1.35.6h-.2l-.2-.1-.15-.15-1.45-4.9-4.2 2.7-.6.4-.65.35-.25.1-.25-.15-.75-.85-1.65-1.95-3.7 10.65-.25.3-.2.05-.2.1-.75.65q-.9.7-.75.3v-.05q.15-.5 1.15-1.7l3.9-11.3-.5-1.45-.45-1.2-1.05-2.55-1-2.1-1.25-2.2-1.35-1.9-.1-.35.15-.3.3-.1h.4l-3.3-3.85-2.9-3.85-.8-1.2-1.25-2.05-.8-1.45-.8-1.9M19.3 35.3h-.1l-3.95-.85h-.6l1.15 1.75.55.9 1.9 4 1.2 3.15.4 1.15.15.15.05.25 2.45 2.9 5.65-3.55.2-.1.25.1.1.2 1.5 4.95 5-2.05h.2l.25.1.1.2.4 2.65.5-2.4v-.05q1.7-8.9-.2-15.35l-.05-.05-.1-.45v-.05l-.15-.2q-1.5-2.25-3.1-3.8l-2.4-2.05-.1.35-.8 2.85-.4 1.55-.2.25-.3.05-.25-.2-.05-.1-.05-.1-.1-.15-.05-.05q-1.85-3.05-5.6-4.85l-2.5-1h-.05l-.5 9.1v.45l-.1.2-.15.15h-.15" fill="#502666"/><path d="M31.45 50.65 35 49.2l.35 2.1-3.15 5.45q-3.6 4.1-4.8 4.2l4.05-10.3m-9.05-25.3-.2-.05q-1.1-.5-2.3-.85h-.2l-.2.15-.1.25-.05 1.15-.05.25-2.65-4.5L10.5 3.4q3.3 2.5 7.5 6.7l8.25 17q-2.3-1.45-3.3-1.75h-.55M6.6 16.5l2.9 1.75.3.05.25-.1.15-.25h.1l5.35 12-4.35-4.65-4.7-8.8m12.9-5.1.3-.1.15-.3q.75-4.05 3.4-7.25l1.95 8.3 2.5 9.75.15.45.1 1.35q.25 3.25.6 5h-.15l-.1-.05q-.85-3.2-3.95-8.45-3.65-6.05-4.95-8.7m-3.15 25.7-.55-.9-1.15-1.75h.6l3.95.85h.1l.1.1q1.8 1.3 1.7 3.9l.1.2v4.25q-2.15-4.95-4.85-6.65m6.4-10.7q3.75 1.8 5.6 4.85l.05.05.1.15.05.1.05.1q1.1 2.3 1.95 9.55l-1.4 4.3-.6-.95-5 2.6.1-1.1.8-8.15.15.35.6 2.75.4-5.4q-.85-6.55-2.85-9.2m7 3.6.8-2.85q1.65 2.8 2.6 9.95l-1.65 8.7V42l-1.75-12M23.4 50.05l4.45-2.55.9 2.35-2.85 8.3q-.75-2.3-2.15-4.45l-1.85 1.95 1.25-4.9.25-.7" fill="#9967d3"/><path d="m23.9 48.8 4.2-2.7 1.45 4.9.15.15.2.1h.2l1.35-.6-4.05 10.3-.45 1.05-.25.05q-.15-2-.8-3.9l2.85-8.3-.9-2.35-4.45 2.55.5-1.25m7.5-22.4-.15-.1-.65-.45-.25-.1-.25.1-.1.2-.45 1.5-.4.5-.5.55q-.35-1.75-.6-5l-.1-1.35-.15-.45-.65-3.2-.45-3.25-.4-3-.65-7.65 2.65 3.1.05.05.25 3.5q.25 2.2.95 4.7l1 1.1 2.05 2.1 1.85 1.4.55.4.05.05v.05l.05 5.35.05 1.5-1.55-.9-1.8-.85-.4.15m-16.1 7.1q-7.8-8.6-10-14.15-.65-1.65-.8-3.05l4.75 6.85 2.05 2.15 4.35 4.65-5.35-12-.15-.35v-2l7 9.25-3.15-7.6 2.65 4.5 2.65 4.5-1 7.25h-3M18 10.1l1.15 1.15.35.15q1.3 2.65 4.95 8.7 3.1 5.25 3.95 8.45l-2.05-1.4-.1-.05-8.25-17m1.45 25.2.15-.15.1-.2v-.45l.8-3.55L23.25 42l.4 4.05-.1 1.1-.5.25-3.6-3.15-1.2-3.15-1.9-4q2.7 1.7 4.85 6.65V39.5l-.1-.2q.1-2.6-1.7-3.9l.05-.1m9.15-3.65.25.2.3-.05.2-.25.4-1.55 1.75 12v3.8l1.65-8.7.2-1-.3-7.25q1.6 1.55 3.1 3.8 1.1 7.2.5 16.1v.05l-1-1.5-4.15 1.75-2.35-3.55 1.4-4.3q-.85-7.25-1.95-9.55m5.4 26.5-1.95 5.8-.15.35-.8 1.2v-4l-1.2.15 4.1-3.5" fill="#6c39a8"/><path d="m21.4 48.65.75.85.25.15.25-.1.65-.35-2.2 5.3-.2-1.8-1.35 1.3 1.85-5.35m13.95 2.65.05.5q-.45 3.1-1.4 6.35l-4.1 3.5-2.95.35.45-1.05q1.2-.1 4.8-4.2l3.15-5.45m-25.2-33.7Q7 9.25 7.35 1.25l6.65 16 3.15 7.6-7-9.25v2m9.55 16.9.5-9.1h.05q2 2.4 3.55 9.35l.25 1.15.2.75.2 1.25-.8 8.15-.4-4.05-2.75-11.05-.8 3.55" fill="#5e2a79"/><path d="m35.4 51.8.2 1.35-.05.25v.3q-.1 2.85-1.8 9.05-2.45 4.6-4.85 7l.2-1.15 2-3.1.8-1.2.15-.35 1.95-5.8q.95-3.25 1.4-6.35m-.3-30.65q1.6 5 1.3 10.45l-1-1.3-.25-2.3-.05-1.5-.05-5.35h.05m1.05 11.5.15.2v.05l.1.45.05.05q1.9 6.45.2 15.35.6-8.9-.5-16.1M36 28.7l-.05.1h.1l-.05-.1" fill="#ceefff"/><path d="m16.05 57.35 3.7-10.65 1.65 1.95L19.55 54l-3.5 3.35" fill="#6d39a8"/><path d="m23.3 49.2.6-.4-.5 1.25-.25.7-1.25 4.9-.65.7-.15-1.85 2.2-5.3M4.5 16.3l-.05-1.05L6.6 16.5l4.7 8.8-2.05-2.15L4.5 16.3M7.35 1.25 10.5 3.4l6.15 18.35-2.65-4.5-6.65-16m16 2.5.7-.85 1.6 1.8.65 7.65.4 3 .45 3.25.65 3.2-2.5-9.75-1.95-8.3m9.15 0h.15l.4 3.5.4 4.3-.25 1.9-.4 1.4V12.7l-.25-3.65L31.5 5.1l1-1.35M20.25 25.4l2.5 1q2 2.65 2.85 9.2l-.4 5.4-.6-2.75-.35-1.6-.2-.75-.25-1.15q-1.55-6.95-3.55-9.35m10.3 1.75.1-.35 2.4 2.05.3 7.25-.2 1q-.95-7.15-2.6-9.95m9.2 5.95.65-.85.1 2.3-2.1 3.5 1.35-4.95m-22.45 24 3-2.5.25 1.85q-4.4 5.85-8.05 8.75l4.8-8.1" fill="#fff"/><path d="m5.05 21.15.8 1.45-3.6-2.4 2.8.95m10.9 17.25 1 2.1-1.75-.8-1.7-2.05 2.45.75m22.45-.35-.45-2.9 1.8-2.05-1.35 4.95M31.5 5.1l1.05 3.95.25 3.65v2.2l-.05.1-.7 2.45-1.6-2.35-.7-2.55-.4-2.65-.1-.3q.5-1.45 1.6-3.35l.65-1.15M20.55 56.45l-.05 3.35L7.95 71.35 9.55 66l3.8-5.65 3.95-3.25-4.8 8.1q3.65-2.9 8.05-8.75" fill="#f9ff39"/><path d="m7.1 24.65.8 1.2q-2.05-.85-3.8-2.9l3 1.7m9.85 15.85L18 43.05l-2.8-3.35 1.75.8m-2.1 36.6-3.15.05q-.2-.05-.35.15l-.2.35.15.35q.1.2.35.2h2.65L13 80.8l-7-3 1.95-6.45L20.5 59.8l-.2 1.6-2.2 9.15-3.25 6.55M38.5 40.75l-.05-1.9 1.8-1.5q-.45 2.5-1.75 3.4m-3.95-21.2.05.15.05.2.25.5-2.85-2.95.7-2.45.05-.1v-.05l1.05-2.25.6-1.65.3 3.15-.15 2.25-.15 2.25.05.65.05.3m-21.2 40.8L9.55 66l1.2-3.9 1.45-.8 1.15-.95" fill="#fdb500"/><path d="m9.55 66-1.6 5.35L6 77.8l-3.1-1.35 2.75-11.6 5.1-2.75-1.2 3.9" fill="#d15f00"/><path d="m4.25 19.25.8 1.9-2.8-.95q.85 1.55 1.85 2.75 1.75 2.05 3.8 2.9l2.9 3.85q-5.2-2.9-8.95-7.75l-.55-.75L0 18.65l4.25.6M14.7 36.2l1.25 2.2-2.45-.75 1.7 2.05 2.8 3.35.45 1.2q-4.65-2.75-7.2-7.6l3.45-.45m-.8 22.5v.05q-.15.4.75-.3l.75-.65.2-.1.2-.05.25-.3 3.5-3.35 1.35-1.3.2 1.8.15 1.85.1 1.15q-.15.1-.15.3l.15.25.05.05-.8 4.95-1 6.7-.25 1.6-3.3 5.55-1.2.2 3.25-6.55 2.2-9.15.2-1.6.05-3.35-.25-1.85-3 2.5-3.95 3.25-1.15.95-1.45.8-5.1 2.75.4-1.6 7.85-4.55m24.4-13.8.2-4.15q1.3-.9 1.75-3.4l.25-2.8-.1-2.3-.65.85-1.8 2.05-.45-1.9 3.75-3.5.7 2.3q.4 7.65-3.65 12.85m-2.9-25.95-.45-.05q-.25.1-.35.35h-.1l-.05-.65.15-2.25.15-2.25-.3-3.15-.35-1.5-1.3-5.7h-.3l-1 1.35-.65 1.15q-1.1 1.9-1.6 3.35l.1.3.4 2.65.7 2.55 1.6 2.35 2.85 2.95.15.55-.05.1-.55-.4-1.85-1.4-2.05-2.1-1-1.1q-.7-2.5-.95-4.7l-.25-3.5.25.1.35-.1.15-.35-.1-.3-.2-.25q.4-1.05 2-3.3l1-1.25.45-.2q.9 0 2 2.45l1 2.95.5 3.8.1 3.15-.35 4.4h-.1" fill="#b24e14"/><path d="m24.05 59.45 1.25 4.45.2.2.25.05.1.05-2.7 3.3 5.65-2.55-.45 2.8-8.75 2 1-6.7 3.45-3.6" fill="#733aa2"/><path d="m25.9 64.1 3.05-.55-.15 1.4-5.65 2.55 2.7-3.3.05-.1" fill="#9b67d1"/><path d="m29.1 68.6.75-5.5-.05-.25-.15-.15-.25-.05-3.4.65-2.15-7.55-.15-.25-.3-.05-.25.1-1.8 1.95-.1-1.15.65-.7 1.85-1.95q1.4 2.15 2.15 4.45.65 1.9.8 3.9l.25-.05 2.95-.35 1.2-.15v4l-2 3.1m6.3-38.3-2.45-2.6-1.55-1.3.4-.15 1.8.85 1.55.9.25 2.3m-5.85-2.75-.75 2.9q-2.15-3.25-6.4-5.05v-.05h.55q1 .3 3.3 1.75l.1.05 2.05 1.4.1.05h.15l.5-.55.4-.5m-10.2-1.3-.45 8.15-3.45-.75-.15-.15h3l1-7.25h.05m17.3 22.55-.5 2.4-.4-2.65-.1-.2-.25-.1h-.2l-5 2.05-1.5-4.95-.1-.2-.25-.1-.2.1-5.65 3.55-2.45-2.9-.05-.25-.15-.15-.4-1.15 3.6 3.15.5-.25 5-2.6.6.95 2.35 3.55 4.15-1.75 1 1.5" fill="#f9ff01"/><path d="M28.35 67.75 28 70.6q-6.05 5.2-11.95 6.3l3.3-5.55.25-1.6 8.75-2" fill="#6f39a6"/><path d="m21.4 58.1.25.05.3-.1 1.35-1.4.75 2.8-3.45 3.6.8-4.95" fill="#9a67d1"/><path d="m5.85 22.6 1.25 2.05-3-1.7q-1-1.2-1.85-2.75l3.6 2.4m32.6 16.25-.05-.8 2.1-3.5-.25 2.8-1.8 1.5m-5.8-35.1h.15l1.3 5.7.35 1.5-.6 1.65-1.05 2.25.4-1.4.25-1.9-.4-4.3-.4-3.5" fill="#d05d00"/></g><g id="ak" fill-rule="evenodd"><path d="M11.45 2.7 12.2.95l.15-.05.3-.1.9-.2q.3-.05 1.05.55l2.3 2.1 3.65 3.55q1.55 1.25 3.25 2.25v.2l-.2.75q-4.8-1.9-7.95-4.35L13.2 3.4l-.9-1-.8.35-.05-.05M2.3 4.3l3.8-1.45 5-1.85h.2l-.65 1.6-.2.45q-1.45.7-4.5 1L2.3 4.3" fill="#fff"/><path d="m.25 5.05 1.8-.7.25-.05 3.65-.25q3.05-.3 4.5-1l-.2 1.05.2 1 .15.6h-.15l-1.5.75-1.85 1.1-2.25 2L3 11.15 2.05 9.1.95 6.75l-.7-1.7m10.8-.15v-.3q0-.75.4-1.85h.05l.8-.35.9 1 2.45 2.25Q18.8 8.1 23.6 10l-.45.9q-2.7-.6-4.6-1.5L15.6 7.45 12.55 5.3q-1.1-.65-1.5-.4" fill="#f1e1ae"/><path d="m10.6 5.7.05.2L10 7.25 8.15 9l-1.9 1.5-2.7 1.8L3 11.15l1.85-1.6 2.25-2 1.85-1.1 1.5-.75h.15m12.45 5.45-.95-.2q-3.5-.7-4.4-1.15l-2.55-1.15-1.5-.75-1.95-1.35-.1-.15q-.5-.55-.55-1.5.4-.25 1.5.4l3.05 2.15 2.95 1.95q1.9.9 4.6 1.5l-.1.25" fill="#d7c38d"/><path d="M23.8 9.05q-1.7-1-3.25-2.25L16.9 3.25l-2.3-2.1q-.75-.6-1.05-.55l-.9.2-.3.1-.15.05-.75 1.75v.05q-.4 1.1-.4 1.85v.3q.05.95.55 1.5l.1.15 1.95 1.35 1.5.75L17.7 9.8q.9.45 4.4 1.15l.95.2-.75.85h-.1l-2.95-.8q-5.7-1.75-8-4.15l-3.4 2.9-4 2.8-.1-.1-.2-.35 2.7-1.8L8.15 9 10 7.25l.65-1.35-.05-.2-.15-.6-.2-1 .2-1.05.2-.45.65-1.6h-.2l-5 1.85L2.3 4.3l-.25.05-1.8.7L0 3.9Q6.2 2.45 9.7 1q2.3-1 3.6-1 .75 0 1.35.45l1.65 1.6q3.1 3 7.65 6.25l-.15.75" fill="#b9a173"/></g><g id="al" fill-rule="evenodd"><path d="M30.5 2.95v.15l-2.75 27.4-.3.15-.75.45-7.35-24.55q.75-.6 1.65-1.1 1.9 12.1 5.25 21.9L25.3 3.7q2.4-.65 5.2-.75" fill="#f1e1ae"/><path d="m25.3 3.7.95 23.65Q22.9 17.55 21 5.45 22.4 4.6 24.15 4l1.15-.3" fill="#fff"/><path d="M27.75 30.5 30.5 3.1v-.15l1.25-.05q6.1 0 9.15 1.9 3.05 1.95 3.05 5.65 0 3.5-1.9 7.9-1.75 3.95-3.4 5.15-2.5 1.9-6 4.05l-4.9 2.95" fill="#d7c38d"/><path d="M19.35 6.55 26.7 31.1l-9.65 7.3-6.25-27.25 8.55-4.6" fill="#fffef7"/><path d="M30.6 8.15q.1-.25.35-.3L53.6.05l.3-.05.3.15.15.3.7 3.85-.7 2.05-1.8 3.7-.25.5.2-.1 5.8-2.15h.3l.25.25v.3l-.75 1.8 9.65-3.95.15-.05h.15l.2.2.05.3L66.15 19l.05.15v.4l-2.05 4.9-.1.15L52.3 38q-3.05 6.25-6.75 8.65l-.4.1-16.1-2.8-3.8 4.35-.2.15-11.5 4.15h-.35q-5.55-1.4-9-3.2-2.65-1.35-4.05-2.95l-.15-.4q0-.25.15-.4H.2l.1-.3q.1-.2.35-.25 8.55-1.95 12.85-9.55l.3-.3h.25l7.6-6 2.3-5.9.1-.15 4.05-3.45v.05q6.1-6.75 2.95-10.85l-.15-.05-.3-.35v-.4m12-3.1L31.9 8.7q3.25 4.5-3.2 11.65h-.05l-4 3.4-2.3 5.9-.1.2-.75.55-6.95 5.5-.1.2q-4.35 7.8-13.05 10 1.6 1.55 4.45 2.85 3 1.4 7.45 2.5l11.2-4.05 11.9-13.6.15-.15q2.8-8.2 14.05-10.8 3.1-4.6 5.5-9.65l.9-2 .75-1.8h-.05l-4 1.5-.9.3q-5 1.85-8.4 1.15l-.6-.15-.3-.1-.25-.2-.05-.2.05-.1.2-.25h.3l1.5.3q2.9.35 6.9-1.05l.25-1 .4-1.2 1.15-3.9-.6-3.2-.45.15-10.3 3.6m6.7 12.65-3.85 2.25-3.45.4-8.4 4.4 8.1-5.1 3.75-.85q4.1-1.6 7.9-5.7h.05l-2.55 3.3-1.55 1.3M35.2 43.85l9.95 1.7q3.35-2.3 6.15-8.15l.1-.1 11.75-13.35 2-4.8.2-.25.45-2.6.8-4.35.75-4.2V7.7l-.05.05-1.6.65-5.6 2.3-2.4 1-.3.65q-2.3 5.05-5.25 9.6l-.95 1.5-.25.15q-10.9 2.45-13.6 10.35l.05.2-.15.4-7.35 8.4 5.3.9M61 17.05l-.7.9-4.9 3.45 4.8-4.4.35-.7.3-.55.7-1.25-.5.1-3.3.55-1.25.25q.9-.45 1.75-.8 2.05-.85 3.95-1.1h.4l-.1.3-1.5 3.25" fill="#502666"/><path d="M5.85 48.95Q3 47.65 1.4 46.1l6.75-.55q7.7-2.35 13.05-7.1l2.15-2.9 5.3-7.2-5.75 9.3q-3.45 5.25-8 8.7l-9.05 2.6" fill="#5e2a79"/><path d="m42.6 5.05 10.3-3.6-.05.75q-3.5 5.5-10.55 8l2.75-.85-2 2.2-7.2 7.75-1.45 1.6 4.9-7.15 3.3-8.7m11.1 5.85 4-1.5h.05l-4.35 3.7.3-.35-.35.35q-3.8 4.1-7.9 5.7l8.25-7.9M1.4 46.1q8.7-2.2 13.05-10l.1-.2 6.95-5.5-5.95 9.15 7.8-4-2.15 2.9q-5.35 4.75-13.05 7.1l-6.75.55M67.3 7.75l-2.5 3.75q-1.55 1.95-2.15 2l-.05-.05-.15.05h-.25l1.85-2.2 1.65-2.9 1.6-.65m-6.25 6.85.5-.1-.7 1.25q-2.15.9-3.15.9l1.1-.5q1.3-.6 2.25-1.55" fill="#fff"/><path d="m43.2 11.7.05.2.25.2.3.1.6.15-8.55 6.95 7.2-7.75.15.15" fill="#823b95"/><path d="m45.05 9.35-2.75.85q7.05-2.5 10.55-8l-.15 2.5-4.8 3.8-2.85.85" fill="#ae4655"/><path d="m52.4 9.6-.25 1q-4 1.4-6.9 1.05l-1.5-.3h-.3l-.2.25-.05.1-.15-.15 2-2.2 2.85-.85 4.8-3.8-.3 4.9" fill="#a64677"/><path d="m52.9 1.45.45-.15.6 3.2-1.15 3.9-.4 1.2.3-4.9.15-2.5.05-.75" fill="#ceefff"/><path d="m65.7 8.4-1.65 2.9-1.85 2.2q-1.9.25-3.95 1.1l1.85-3.9 5.6-2.3" fill="#b25fa7"/><path d="M67.3 7.75h.05l-.75 4.2-.3-.1-.55-.15-1.55 1.15-1.7.95.1-.3h.05q.6-.05 2.15-2l2.5-3.75" fill="#7a2f6b"/><path d="m57.05 16.85.7-1.7 3.3-.55q-.95.95-2.25 1.55l-1.1.5h-.05l-.15.05-.4.15h-.05" fill="#ac61b3"/><path d="m60.85 15.75-.3.55q-.6.65-1.6.6l-1.85-.05.4-.15.15-.05h.05q1 0 3.15-.9" fill="#7b2f6b"/><path d="m35.2 43.85 4.4-11.25q1.3-2 2.5-3.25 1.1-1.05 2.5-1.95l3.55-1.9q2.05-1 2.8-1.2l.35-.1.8-.05.65.05.1-.1 2.55-2.7 4.9-3.45.7-.9-.85 1.8-.7 1.35 2.35-.75 2.15-.65.1-.2.6-.85 1.15-1.45-.45 2.6-.2.25-2 4.8L51.4 37.3l-.1.1q-2.8 5.85-6.15 8.15l-9.95-1.7" fill="#5f2a79"/><path d="m51.3 24.2-.35.1q-.75.2-2.8 1.2l-3.55 1.9q-1.4.9-2.5 1.95-1.2 1.25-2.5 3.25l-4.4 11.25-5.3-.9 7.35-8.4.15-.4-.05-.2q2.7-7.9 13.6-10.35l.25-.15.95-1.5-.85 2.25" fill="#d3d3d3"/><path d="M57.75 9.4 57 11.2l-.9 2-6.8 4.5 1.55-1.3 2.55-3.3 4.35-3.7" fill="#7c2f6a"/><path d="m21.5 30.4.75-.55.1-.2 2.3-5.9 4-3.4h.05q6.45-7.15 3.2-11.65l10.7-3.65-3.3 8.7-4.9 7.15-1 1.05-4 5.45-.75.95-5.3 7.2-7.8 4 5.95-9.15" fill="url(#E)"/><path d="M56.1 13.2q-2.4 5.05-5.5 9.65-11.25 2.6-14.05 10.8l-.15.15-11.9 13.6-11.2 4.05q-4.45-1.1-7.45-2.5l9.05-2.6q4.55-3.45 8-8.7l5.75-9.3.75-.95 4.2-2.65 8.4-4.4 3.45-.4 3.85-2.25 6.8-4.5" fill="url(#F)"/><path d="M44.4 12.35q3.4.7 8.4-1.15l.9-.3-8.25 7.9-3.75.85-8.1 5.1-4.2 2.65 4-5.45 1-1.05 1.45-1.6 8.55-6.95" fill="url(#G)"/><path d="m65.8 16.3-1.15 1.45-.6.85-.1.2-2.15.65-2.35.75.7-1.35.85-1.8 1.5-3.25 1.7-.95 1.55-1.15.55.15.3.1-.8 4.35" fill="url(#H)"/><path d="m55.4 21.4-2.55 2.7-.1.1-.65-.05-.8.05.85-2.25q2.95-4.55 5.25-9.6l.3-.65 2.4-1-1.85 3.9q-.85.35-1.75.8l1.25-.25-.7 1.7h.05l1.85.05q1 .05 1.6-.6l-.35.7-4.8 4.4m1.65-4.55H57l.05.05v-.05" fill="url(#I)"/></g><g id="am" fill-rule="evenodd"><path d="M5.65.15 6.3 3.9q.95 4 1.1 7.6.15 3.6.9 7.05v.7h-.2l-.15-.15-1.35-3.6q-1.45-4.1-1.45-5.7l.25-2.55.25-2.1-.25-3.2-.25-1.7.5-.1m-.3 27.1.25-8.7.85.7-.35 8.55-.75-.55M9.1 33l-.35-12.35.7.35.05.35.5 12.25-.9-.6" fill="#fdb500"/><path d="m1.3.3-.1 5.35q-.05 5.5 4.7 11.25l2.05 2.2.15.15h.2v-.7q-.75-3.45-.9-7.05-.15-3.6-1.1-7.6L5.65.15 7 0l.35 2.6q.7 4.85.65 7-.1 2.65.6 6.2l.1.75 1.2 3.85.15 3.8q.75 5.2.65 12.65V47.5l-3.15 4.2-3.25-4.9-.45-16 .55-.65.7-12.05q-1.5-1.4-2.55-3.25Q-.05 10.3 0 6.1l.1-4.5L.25.35 1.3.3m4.8 27.5.35-8.55-.85-.7-.25 8.7-.1 19.25 2.7 4.25 2.05-3.6V33.6l-.5-12.25-.05-.35-.7-.35L9.1 33l.4 12.8-1.35 3.65L5.8 45.2l.3-17.4m2.3-4.7-.05-2.65-1.6-1-.1 4-.4 14.75-.05 1.9-.1 2.5-.05 2.45.3.45 1.6 2.8 1.1-2.45-.1-3.25-.05-2.75-.05-2.2-.1-2L8.4 23.1" fill="#b24e14"/><path d="M5.9 16.9Q1.15 11.15 1.2 5.65L1.3.3h2.1q0 2.55.55 5.65l.95 6.35q.2 2.05 1 4.6m.2 10.9-.3 17.4 2.35 4.25L9.5 45.8 9.1 33l.9.6v13.55l-2.05 3.6-2.7-4.25.1-19.25.75.55" fill="#f9ff39"/><path d="M7.95 19.1 5.9 16.9q-.8-2.55-1-4.6l-.95-6.35Q3.4 2.85 3.4.3H4L5.15.25l.25 1.7.25 3.2-.25 2.1-.25 2.55q0 1.6 1.45 5.7l1.35 3.6" fill="#d05d00"/><path d="m6.65 23.45.1-4 1.6 1 .05 2.65-1.75.35m2.3 19.15.1 3.25-1.1 2.45-1.6-2.8 2.6-2.9" fill="#1389e7"/><path d="m6.65 23.45 1.75-.35.35 12.55-2.5 2.55.4-14.75m2.2 14.2.05 2.2-2.8 2.75.1-2.5 2.65-2.45" fill="#02f1fd"/><path d="m8.75 35.65.1 2L6.2 40.1l.05-1.9 2.5-2.55m.15 4.2.05 2.75-2.6 2.9-.3-.45.05-2.45 2.8-2.75" fill="#fff"/></g><g id="an" fill-rule="evenodd"><path d="m43.3 15.9-.5.7q-4.2-3-9.1-3.85l5.7 8.4-11.55 15.5-6.15 2.5-8.4-8q3.2-5.25 3-7.75l-.05-.25 5-12q12.4-1.5 22.05 4.75" fill="#793a9d"/><path d="m42.8 16.6-3.4 4.55-5.7-8.4q4.9.85 9.1 3.85M15.55 41.7l-1.45.6-1.6-3.05q-2.6-1-7.35-5.85L.2 26.45l-.2-.4.8.4.75.45 2.85 3.35 1.15 2.2q2.4.35 5.8 3.45l.15.2 4.05 5.6" fill="#fff"/><path d="M34.65 8.45 26.6 1.5l-1.3.35-4.65 1.1-7.3 15.35-.35 6.05-4.05 6.7-2.05 1.4-1.95-1.5-.55-.7-2.85-3.35 1.55.75 3.9 3.8q2.6-1.95 5.2-7.5v-5.4l8-16.8L26.95 0l9.8 7.7q10.65 2.55 10.85 4.15l-7.05 10.5-11.7 15.15-17.8 7.55L9.45 39l-4.3-3.5L.2 26.45l4.95 6.95q4.75 4.85 7.35 5.85l1.6 3.05 1.45-.6 6.15-2.55 6.15-2.5 11.55-15.5 3.4-4.55.5-.7 1.15-1.5 1.2-1.6.45-.65q-4.9-3.05-11.45-3.7" fill="#502666"/><path d="m44.45 14.4-1.15 1.5q-9.65-6.25-22.05-4.75l2.65-6.1 10 3.3 3 1.2.1.05q6.95 2.85 7.45 4.8" fill="#602c7f"/><path d="M34.65 8.45q6.55.65 11.45 3.7l-.45.65Q41 10 37 9.6l-.1-.05-3-1.2.75.1" fill="#ceefff"/><path d="m25.3 1.85 1.3-.35 8.05 6.95-.75-.1-10-3.3 1.4-3.2M45.65 12.8l-1.2 1.6q-.5-1.95-7.45-4.8 4 .4 8.65 3.2" fill="#6c39a8"/><path d="m4.4 30.25.55.7 1.95 1.5 2.05-1.4 4.05-6.7.35-6.05 7.3-15.35 4.65-1.1-1.4 3.2-2.65 6.1-5 12-.5.5-6.5 9.2 2.25 3.25-.15-.2q-3.4-3.1-5.8-3.45l-1.15-2.2" fill="url(#J)"/><path d="M12.2 19.6v4.35Q9.6 29.5 7 31.45l-3.9-3.8-1.55-.75-.75-.45 11.4-6.85" fill="url(#K)"/><path d="m21.7 39.15-6.15 2.55-4.05-5.6-2.25-3.25 6.5-9.2.5-.5.05.25q.2 2.5-3 7.75l8.4 8" fill="url(#L)"/></g><g id="ao" fill-rule="evenodd"><path d="M27.2 3.75 12.7 14.7l-.05-.4q5.4-6.8 15.15-11.95l-.6 1.4M12.55 59.6l.15 2.95-6.05 7.4-.3-2.9 6.2-7.45m.25 5.25.25 4.5-5.7 6-.25-.3-.3-3.5 6-6.7M.9 38.05l-.2-2.1q.2-5.7 3.95-13.1l6-8.95.3 1.4-6.9 12.15Q1.9 31.2.9 38.05" fill="#fff"/><path d="m23 13.25-3.25 7.25-2.25 1.65 5.5-8.9m12.35-6.3L28.8 13.7l-2.85.85 9.4-7.6m-27.9 28.1.7-2.85 1.55-3.05 3-3.45v-3.05l.9 3.55q-4 2.7-6.15 8.85" fill="#ceefff"/><path d="m13.15 17.65 1.75-1.3 9-5.15-.9 2.05-5.5 8.9-3.4 2.35-.95-6.85M36.75 5.5l-1.4 1.45-9.4 7.6-2.85.8 2.35-5.15 11.3-4.7m-24.9 13.6.85 3.55v3.05l-3 3.45-1.55 3.05-.7 2.85-1 3.35-1.2 14.05.05 8.85.05 4-1.2-17.9L4 45.75l.3-7.65q1.3-10.7 6.95-18.6l.6-.4" fill="#fdb500"/><path d="M27.2 3.75 24.8 9.2l-9.9 7.15-1.75 1.3-.45-2.95L27.2 3.75m-.65 4.1L27.8 5.1Q36.45 1.8 41.1 1l-.95 1-4.45 1.25-9.15 4.6M11.85 19.1l-.6.4q-2.45 1.85-4.9 5.9Q2.6 31.6 1.9 42.35q-.65-1.3-1-4.3 1-6.85 3.15-10.6l6.9-12.15.9 3.8m-6.5 46.2-.05-4 1.25 14.25 3.15 2.5q1.05-.1 4.3-3.35L13.2 63V42l.45-9.25 2.55-8.55 3.2-2.2q-2.7 2.2-4 5.25l-1.1 4.65-.45 7.15-.05 16 .8 20-4.05 5-4.5-3.95-.7-10.8" fill="#f9ff39"/><path d="m14.9 16.35 9.9-7.15-.9 2-9 5.15m11.65-8.5 9.15-4.6L40.15 2l-3.4 3.5-11.3 4.7 1.1-2.35M11.25 19.5Q5.6 27.4 4.3 38.1L4 45.75l-1.6-2.7-.5-.7Q2.6 31.6 6.35 25.4q2.45-4.05 4.9-5.9" fill="#d05d00"/><path d="m24.8 9.2 2.4-5.45.6-1.4Q18.05 7.5 12.65 14.3l.05.4.45 2.95.95 6.85 3.4-2.35 2.25-1.65L23 13.25l.9-2.05.9-2M40.15 2l.95-1q-4.65.8-13.3 4.1l-1.25 2.75-1.1 2.35-2.35 5.15 2.85-.8 2.85-.85 6.55-6.75 1.4-1.45 3.4-3.5M28.7 3.55Q37.25-.2 43.05 0l-13.3 14.55-6.5 2-1.95 4.6q-1.85 1.3-4.25 4.05-2.45 5.6-2.5 11.4l.05.4q-.5 20.3.9 37.85-2.9 4.5-5.35 5.95L5.5 76.6 3.7 53.45l.25-6.25L1 42.7q-2.1-5.65.3-14.25 4.95-11.3 9.95-17.25l.8 1.4L22.9 3.25Q27.6.7 29.4.7l-.7 2.85M12.55 49.9v-9.65q-.8-5.8 3.15-15.95l-1.5 1v1.2l-3.65 3.75-.2.4q-3.1 5.9-4.25 19.8v.1l-.05 7.8.3 8.7.3 2.9.15 1.6.3 3.5.25.3q.9 1.25 2.6 2.05 2-1.1 3.35-3.1l-.25-4.95-.25-4.5-.1-2.3-.15-2.95v-9.7m.15-27.25-.85-3.55-.9-3.8-.3-1.4-6 8.95Q.9 30.25.7 35.95l.2 2.1q.35 3 1 4.3l.5.7 1.6 2.7-.05 1.45.2.2 1.2 17.9.7 10.8 4.5 3.95 4.05-5-.8-20 .05-16 .45-7.15 1.1-4.65q1.3-3.05 4-5.25l-3.2 2.2-2.55 8.55L13.2 42v21l.8 11.7q-3.25 3.25-4.3 3.35l-3.15-2.5L5.3 61.3l-.05-8.85 1.2-14.05 1-3.35Q9.6 28.9 13.6 26.2l-.9-3.55" fill="#b24e14"/><path d="m6.05 58.35.05-7.8v-.1q1.15-13.9 4.25-19.8l.2-.4 3.65-3.75v-1.2l1.5-1q-3.95 10.15-3.15 15.95v9.65l-6.5 8.45m7 11 .25 4.95q-1.35 2-3.35 3.1-1.7-.8-2.6-2.05l5.7-6" fill="#1389e7"/><path d="m6.05 58.35 6.5-8.45v9.7l-6.2 7.45-.3-8.7m6.65 4.2.1 2.3-6 6.7-.15-1.6 6.05-7.4" fill="#02f1fd"/></g><g id="ap" fill-rule="evenodd"><path d="m38.15 12.65 8.75.75 5.3-1.3.3 5.35q-1.75 2.55-3.45 2.9.7 2.5-1.75 3.85-2.95-.15-2.85-2.55L33.1 19.9l.3-1.5q13.65 3.65 16.65-1.45-8.25 2.95-16.25-.45l.05-.35 4.3-3.5m5.3 16.7L40.4 32.8v-2.95l.95 1.05 2.1-1.55" fill="#fff"/><path d="M33.8 16.5q8 3.4 16.25.45-3 5.1-16.65 1.45l.4-1.9m-.7 3.4 11.35 1.75q-.1 2.4 2.85 2.55 2.45-1.35 1.75-3.85 1.7-.35 3.45-2.9l.2 3.1q-2.05 2.4-6.4 5.15-8.4 2.4-15 3.2l1.8-9m14.1 10.8-.7-1.25 1.2-.8-.5 2.05m-3.75-1.35-2.1 1.55-.95-1.05 3.05-.5" fill="#f1e1ae"/><path d="m52.7 20.55.05 1L47.2 28l-1.2.85h-2.15l-.4.5-3.05.5-9.5 1 .4-1.95q6.6-.8 15-3.2 4.35-2.75 6.4-5.15" fill="#d7c38d"/><path d="m52.5 17.45-.3-5.35-5.3 1.3-8.75-.75 3.3-2.65 4.65 2.1 6.4-1.2q2.05 2.65 1.5 10.95l-4.85 6.1-1.65 4.95q-1.3 0-1.8-2.6l-1.95.45q-1.2 3.3-3.15 5.1L39 31.4l-8.35.65.25-1.2 9.5-1v2.95l3.05-3.45.4-.5H46l1.2-.85q2.3-1.8 5.6-5.35l-.05-1.1-.05-1-.2-3.1M47.2 30.7l.5-2.05-1.2.8.7 1.25" fill="#b9a173"/><path d="m52.75 21.55.05 1.1Q49.5 26.2 47.2 28l5.55-6.45" fill="#ceefff"/><path d="m15.25 21.15 1.45-.95q1-.7 1.7-.9l.05.05-1.6 1.95-1.95 1.5.35-1.65M14.05 27l2.6-2.3.05.3.05.3-.35 1.1-.1.15-.55.5q-1 .8-1 1.3 0 .8.3 1.1l.95.3q1.25 0 1.95-1.55l.8-1.75 1.35-.25 2.25-.5-1.4 1.25q-.95.65-1.85 1 0 1.3-2.15 2.95-2.25 1.7-2.4 3.45l.9-.15q.5-.1.7-.35l.4-.6.4-.55q.65-.45 1.55-.6l1.45-.3v.1l-.1.15-1.4.95q-1.25.75-1.5 1.15l-1.65 1.1q-.95.4-.95 1.05l.2.35.3.15-.65 1.25-.4.65V28.25l.25-1.25m6.3-4.2-.05-.05q.1-.6.65-1.05l.9-.55-.1.85-1.35.85v-.05l-.05-.05v.05m3.85 9.95 2.8-5.5.9-4.8q.5-.35 1.45-.65l2.05-.95h.7q-.55 1.25-2.55 1.95-1.35.5-1.55 1.65l-.05.45.1 1.15-.1.9-.05.2-.65 1.8Q26.35 31 25.9 31l.65.3q.75 0 2.1-.6l-1.8 1.7-.4-.25-.45-.25q-.3 0-.95.35l-.85.5M20.25 18.9q1.2-1.6 2.15-1.6l.6.1.75.1q-.5.15-3 1.4h-.5" fill="#ff8601"/><path d="m3.55 33.75 6.6-11.5 5.25-7.8q-2.35 9.5-2.2 15l-.05.4q-3.25 4-5.25 9.05l-.9.95-.55 1.1-.55 1.45-.05.15-.05.1v.1l-.05.1-.05.05-.7 1.7q.15-2.75 1.2-5.8l.5-3.3q.1-1.65.55-2.95-.9.85-1.3 2-.4 1.05-.55 2.95l-1.2 3.1-1.05 2.2.15.85.2.55-.2.4-.65 1.3-.1-.05.15-.85.15-1-.25-.85-.25-.95q0-.5.3-1l.3-1.05-.3-1.75-.2-1 .15-.8.2-.6q.3-1.1.75-2.25" fill="#d9758e"/><path d="m29.8 15.65 1.75-6L35.8 8.1l9.25-.35-1 2.35q-1.85-.35-6.1 1.2l-8.15 4.35" fill="#9a67d1"/><path d="m29.8 15.65 8.15-4.35q4.25-1.55 6.1-1.2l-3.2 7.1-4.3 1.4q-2.45.95-4.45 2.2l-.05.05h-.65l-2.05.95q-.95.3-1.45.65l.15-.8 1.75-6m9.8 4.55-.75 2.7-4.8.95q-3.5 1.05-6.1 3.1l.1-.9-.1-1.15.05-.45q2.3-1.65 6.05-2.8l5.55-1.45" fill="#5e2a79"/><path d="m13.15 29.85-.2 4.9-.65 2.95-.8 3.15-.1.25-.8 3.2-1.05 2.75L9.4 44l-.3.5-.9 1.1h-.05l-.1.15q.45-.95.5-2.45l.1-2.25q.1-.75.75-1.8.55-.95.55-1.95l-.1-.55-.15-.25q-.15 1.05-1 1.7l-.8.7q2-5.05 5.25-9.05" fill="#bc5b75"/><path d="m40.85 17.2-1.05 2.3-.2.7-5.55 1.45Q30.3 22.8 28 24.45q.2-1.15 1.55-1.65 2-.7 2.55-1.95v-.05q2-1.25 4.45-2.2l4.3-1.4m-2 5.7-1.45 5-1.15 2.3-4.9 2.95-1-.25-2.95 3.35-1-2.85-2.55.05.35-.7.85-.5q.65-.35.95-.35l.45.25.4.25 1.8-1.7q-1.35.6-2.1.6l-.65-.3q.45 0 1.35-2.05l.65-1.8.05-.2q2.6-2.05 6.1-3.1l4.8-.95" fill="#6c39a8"/><path d="m15.4 14.45.15-.95q-3.8 3.55-8.45 11.8l-.25.55-1.05-.3.3-.55q4.3-7.6 9.95-13 .95.6 0 3.95l7.1-7.9Q29.65 2.95 34.7 0l-2.1 8.05Q40.1 4.5 48.05 4.6q-3.25 5-6.5 12.6l-2.35 6.4-1.8 7.45-3.9 3.3h-2.85L28.1 38.9H27l-1.7-4.65h-2.05l-.95 1.65-2.6 1.2-1.3 6.6q-1.7-1.4-3.1-4.2l-1.9 1.6-.25.3-.6 1.05-.7-.8.95-3.05.15-3.85.2-4.9.05-.4q-.15-5.5 2.2-15m13.25 1.95 2-6.8.05-.25L32 5.7l1.3-3.65-10.15 7.5-7.2 8.25-.7 3.35-.35 1.65-.85 4.2-.25 1.25V39.3l2.15-1.1 1.1 1.85.9 1.5.95-5.3 3.05-1.6 4.15-6.6.75-4.2.1-.5q.7-3.15 1.7-6.95m7.15-8.3-4.25 1.55-1.75 6-1.75 6-.15.8-.9 4.8-2.8 5.5-.35.7 2.55-.05 1 2.85.4 1.25 2.55-4.6 1 .25 1.85.5 3.45-3.15.75-2.6 1.45-5 .75-2.7.2-.7 1.05-2.3 3.2-7.1 1-2.35L46 5.7q-4 .25-10.2 2.4" fill="#502666"/><path d="m6.85 25.85.25-.55q4.65-8.25 8.45-11.8l-.15.95-5.25 7.8-6.6 11.5q1.2-3.45 3.3-7.9M32 5.7l-9.55 6.6-6.5 5.5 7.2-8.25 10.15-7.5L32 5.7m13.05 2.05-9.25.35Q42 5.95 46 5.7l-.95 2.05" fill="#fff"/><path d="m12.95 34.75-.15 3.85-.95 3.05-1.35 4.5-.9 1.7-.05-.8 1.05-2.75.8-3.2.1-.25.8-3.15.65-2.95m13.9-10.9-.75 4.2-4.15 6.6-3.05 1.6-.95 5.3-.9-1.5q.35-3.05 1.65-4.1l3.45-3.25q1.8-2.05 2.9-4.2l.1-.25 1.7-4.4M37.4 27.9l-.75 2.6-3.45 3.15-1.85-.5 4.9-2.95 1.15-2.3m-7.05 5-2.55 4.6-.4-1.25 2.95-3.35" fill="#ceefff"/><path d="m5.85 42.55.05-.15.55-1.45.05 3.35q-.2 1.55-.9 2.15-.7.5-1 2.05L4.15 51q-.25-1.85.6-4 .95-2.5.95-3.8l.15-.65" fill="#b95d77"/><path d="m32 5.7-1.3 3.65-.05.25-2 6.8-6.8 4.75-.9.55q-.55.45-.65 1.05l.05.05-3.95 3.6.35-1.1-.05-.3-.05-.3-2.6 2.3.85-4.2 1.95-1.5 1.6-1.95.05-.05h-.1q-.7.2-1.7.9l-1.45.95.7-3.35 6.5-5.5L32 5.7M20.25 18.9h-.15l.1.05.05-.05h.5q2.5-1.25 3-1.4l-.75-.1-.6-.1q-.95 0-2.15 1.6" fill="url(#M)"/><path d="m16.4 26.4 3.95-3.6.05.05 1.35-.85.1-.85 6.8-4.75q-1 3.8-1.7 6.95l-.1.5-1.7 4.4-.1.25-2.35 1.4-2.7 1.9h-.05l-1.45.3q-.9.15-1.55.6l-.4.55-.4.6q-.2.25-.7.35l-.9.15q.15-1.75 2.4-3.45 2.15-1.65 2.15-2.95.9-.35 1.85-1l1.4-1.25-2.25.5-1.35.25-.8 1.75q-.7 1.55-1.95 1.55l-.95-.3q-.3-.3-.3-1.1 0-.5 1-1.3l.55-.5.1-.15" fill="url(#N)"/><path d="m17.05 40.05-1.1-1.85-2.15 1.1v-.6l.4-.65.65-1.25-.3-.15-.2-.35q0-.65.95-1.05l1.65-1.1q.25-.4 1.5-1.15l1.4-.95.1-.15.05-.1 2.7-1.9 2.35-1.4q-1.1 2.15-2.9 4.2l-3.45 3.25q-1.3 1.05-1.65 4.1" fill="url(#O)"/><path d="M6.85 25.85q-2.1 4.45-3.3 7.9Q3.1 34.9 2.8 36l-.2.6-.15.8q-2.7 14.3 1.1 24.15l1.7-5.8 4.35-7.9.9-1.7 1.35-4.5.7.8q-.55 1.4-.7 3.8-5.1 8.05-6.6 13.2L4.6 66.8Q-1.9 57.25.8 38.85l.25-.8q2.55-7.8 4.75-12.5l1.05.3" fill="url(#P)"/><path d="m2.45 37.4.2 1 .3 1.75-.3 1.05q-.3.5-.3 1l.25.95.25.85-.15 1-.15.85v.25l.1-.2.65-1.3.2-.4-.2-.55-.15-.85 1.05-2.2 1.2-3.1q.15-1.9.55-2.95.4-1.15 1.3-2-.45 1.3-.55 2.95l-.5 3.3Q5.15 41.85 5 44.6l.7-1.7.05-.05.05-.1v-.1l.05-.1-.15.65q0 1.3-.95 3.8-.85 2.15-.6 4l.45-2.5q.3-1.55 1-2.05.7-.6.9-2.15l-.05-3.35.55-1.1.9-.95.8-.7q.85-.65 1-1.7l.15.25.1.55q0 1-.55 1.95-.65 1.05-.75 1.8l-.1 2.25q-.05 1.5-.5 2.45l.1-.15h.05l.9-1.1.3-.5.15 3.05.05.8-4.35 7.9-1.7 5.8q-3.8-9.85-1.1-24.15" fill="url(#Q)"/></g><g id="aq"><path d="m4.35 25.95.75-2.2v-.05q6.3-12.9 15.95-20.25l.45-.1.15.05.4-.05.4.3.05.45-.2.75 6.65-3.55.35-.05.85-.1q.6-.1.3.3l-.7.65-.65 1.15 8.75-3.2.4-.05.9.15q.7.1.35.35l-1.1 1-1.25 1.4q4.8-1.85 10.2-1.5l.35.15.2.35-.05.35-.25.3-.85.55q5.1-.05 7.75 1.6l.6.1q1.45.45 0 1.05l-.6.25-.15-.05-10.3 3.8-6.4 5.25v.1l-.35.35-3.3 1.8-1.45 1.9-.05.05-2.15 2.1-.2.85-1.6 1.4.6-2.25-.15-.1-.15-.25-.75-4.2v-.2l1.65-6.3.1-.4.05-.15 2.55-3.35 2.25-3q.1-.15.3-.15h.1l.15.1 1.15-1.5-6.2 2.25-2.05.75-3.6 6.15v.05l-.35.25h-.1v1.6l2.25 9.5v.2l-.1.15-4.05 4.45v1.9l-.6.65-.15.3-.05-.15V27.1l.1-.25 2-2.2 2-2.25-2.2-9.3v-1.85l.1-.25.05-.05v-.05q-.05-.25.05-.45l1.35-2.35 1.55-2.65.8-1.35.05-.1.4-.65L22.7 6l-.85.45-1.8 6.4-.3.35-.1.05v2.1l2.65 7.05v.2l-.1.2-5.25 5.95.6 3.25-.05.25-.15.2-1.3.85-4.65 3.15-.35.4L8.3 39.9l-.25.1H7.9l-.05-.05-1.75-.8-.7 2.25 2.45 2.4.7.65 2.8-2.25 7-5.65.1-.05.25-.25.3-.05q.2 0 .3.15l.05.3-.15.25-.2.2-.8 2.8-.15.65-.1.15-.15.1h-.05l-4.55 1.4h-.3l-.15-.1-1.35 1.05q1.95 1.4.65 3.95l1 .3.75-4.4.1-.2.2-.15h.2l2.3.65.45.95-1.9-.5-.65-.15-.2 1.2-.5 3.2-.1.2-.2.15-.25-.05-2.65-.8-.9-.3q-.9 1.3-1.3 2.7l-.1.15v.2q-.7 2.65.35 5.5l.15.35v.3l-.25.25h-.3l-.2-.25q-1.3-3.3-.55-6.35l.1-.2v-.2Q8.1 48 9.2 46.5l.2-.2h.25l1.65.55q1-2-.4-3.05l-.1-.15-2.05 1.65-.25.1-.3-.1-.15-.15-.45-.45-1.55-1.5-1.15-1.15h-.05l-.3-.05q-.25-.05-.35-.3l-.05-.3v-.15l.8-2.5L2.8 36.7l-.15-.25-.05-.25q.2-3.3.8-6.3l.85 2.1-.4 4.05 2.25 2.1.1.25h.2l1.35.65.15.05 2.95-3.2.05-.1.1-.05 5.7-3.85-.55-3.2v-.15l.05-.2 5.25-5.9-2.55-6.9-.05-.1V12.7l.05-.2.4-1.45 1.45-5.15.2-.85-1.85 1.6q-7.25 6.45-12.35 16.5l-2.4 2.8m30.5-21.2-.05-.05-3.55 4.7-.65.85-1.65 6.55.5 3.1.15.65 1.95-2.05.95-1.2 1.95-6.2.15-.55.15-.2 1.3-1.05 4.4-3.5 3.05-2.4.95-.8q-3.95.2-7.6 1.75l-1.15.5-.1.05-.4.05-.35-.2M46 4.3l-1.35.1-.15.05-.45.1-.4-.25-4.9 3.9-3.4 2.7-1.5 4.75-.1.45 2.9-1.55.2-.4 5.55-4.5.95-.8.2-.1 7.5-2.8.55-.15 1.35-.55Q50.4 4.15 46 4.3M17.3 40.1l.6-2.1-3.95 3.15 3.35-1.05" fill="#502666" fill-rule="evenodd"/><path d="M6.75 23.15q5.1-10.05 12.35-16.5-4.4 7.25-7.3 13.65l-.6 1.4-.65 1.45L8.9 20.6l-2.15 2.55m1 15.9L6.4 38.4h-.2l-.1-.25-2.25-2.1.4-4.05 1.6 3.65q2.5-2.5 4.8-5.8l-3.15 5.2.25 4m-2.85 3 1.15 1.15q-.8.55-1.75 1.55Q3 46.1 2.4 47.1l-.25.15-.75.65q.05-1.8.95-3.45 1-1.8 2.55-2.4m3.75 13.7q-1.05-2.85-.35-5.5v-.2l.1-.15q.4-1.4 1.3-2.7l.9.3.6 3.25-.35.2h-.05l-.2.15 3.9-1.25 4.25-3.95-1-3.25 1.9-2.55q2.1 2 1.55 5.1l1.4-1.85q.15 1.45-1.3 3.65l-6.2 4.5-3.1.45-1-.3-.8 3.15-1.55.95M14.3 44.8l.2-1.2.65.15v4.3l-.35.25-.5-3.5m-6.45-1L5.4 41.4l.7-2.25 1.75.8.05.05-.05 3.8M22.7 6l4.95-2.65-.4.65-.05.1-.8 1.35-4 1.8.3-1.25m7.5-1.85 6.2-2.25-1.15 1.5-.15-.1H35q-.2 0-.3.15l-5.25 2 .75-1.3m6.65.2q3.65-1.55 7.6-1.75l-.95.8-6.65.95M46 4.3q4.4-.15 6.95.95l-1.35.55-.55.1-5.8-1.05.75-.55M7.5 22.95l.65-.75L10 27l-4 6.2-.45-1.1 3.55-5.2-.4-1.5-3.55 5.55-.45-1.25.25-1.3 3.15-4.35-.6-1.1m21.75 1.45 1.9-1.5q-.55 3.6-2.25 7.95l-6.1 6.8-.75.2-.8.15q5.45-6 8-13.6" fill="#fff" fill-rule="evenodd"/><path d="m6.05 43.2 1.55 1.5q-1.4.4-3 1.15-1.35.6-2.2 1.25.6-1 1.9-2.35.95-1 1.75-1.55m13.6-3.1 1.25-1.7.15-.2.2-.2 3.8 2.8-1.1 3.7-2.55 4.15q-2.45 2-6.3 2.85l6.2-4.5q1.45-2.2 1.3-3.65l-1.4 1.85q.55-3.1-1.55-5.1" fill="#f1e1ae" fill-rule="evenodd"/><path d="m23.5 24.65-2 2.2-.1.25v2.85l.05.15-.95 2.1.3-5.5 2.7-2.05m4.6-7.8.75 4.2.15.25.15.1-.6 2.25-.75.65.3-7.45m6.35-5.75-1.95 6.2-.95 1.2-1.95 2.05-.15-.65 1.05-1.2 1.25-1.4 2.7-6.2m7.95-1.45-5.55 4.5-.2.4-2.9 1.55.1-.45L35 14.8l1.15-.8q.5-1.1 3.65-3.65l.9-.7h1.7m-10.75 12.9.5-.4q.55 3.3-1.8 10.55l-.45.75.4-2.6 1.35-8.3m-6.6 18.25.3.2-.6 3.7-3.35 3.95 2.55-4.15 1.1-3.7" fill="#ceefff" fill-rule="evenodd"/><path d="m31.15 22.9.5-.35-1.35 8.3-7.5 6.8 6.1-6.8q1.7-4.35 2.25-7.95" fill="#d05d00" fill-rule="evenodd"/><path d="m19.55 39.15.55-4.65 2.7-5.15 6.45-4.95q-2.55 7.6-8 13.6l-.2.2-.15.2-1.35.75" fill="#f9ff39" fill-rule="evenodd"/><path d="M29.9 33.45q-2.25 3.8-4.45 5.9l-3.4-1.5.75-.2 7.5-6.8-.4 2.6" fill="#fdb500" fill-rule="evenodd"/><path d="m18.2 39.9.8-2.8.2-.2.15-.25-.05-.3q-.1-.15-.3-.15l-.3.05 1.8-4.05.95-2.1.15-.3.6-.65 5.6-4.85.75-.65 1.6-1.4 3.45-2.95v9.25Q32.2 35 26 40l-.55-.65q2.2-2.1 4.45-5.9l.45-.75q2.35-7.25 1.8-10.55l-.5.4-.5.35-1.9 1.5-6.45 4.95-2.7 5.15-.55 4.65-1.35.75" fill="#b24e14" fill-rule="evenodd"/><path d="M19.65 14.3v-1.05l.1-.05.3-.35 1.8-6.4.85-.45-.3 1.25-.7 3-.85 3.35-1.2.7m4.9-3.25 3.6-6.15 2.05-.75-.75 1.3-1.25 2.1-1.9 3.3-1.75.25v-.05m10.3-6.3.35.2.4-.05.1-.05-1 1.4-2.3 3.15h-1.15l3.55-4.7.05.05m3.9 3.45 4.9-3.9.4.25.45-.1.15-.05L46 4.3l-.75.55-1.95 1.4-2.65 1.95h-1.9M7.5 22.95l.6 1.1-3.15 4.35.3-1.25q.8-2.35 2.25-4.2m-2.35 8L8.7 25.4l.4 1.5-3.55 5.2-.4-1.15" fill="#8afd03" fill-rule="evenodd"/><path d="m16.05 33.3 1.3-.85.15-.2.05-.25-.6-3.25 5.25-5.95.1-.2v-.2l-2.65-7.05V14.3l1.2-.7-.45 1.95 2.8 7.5-5.85 6 1.1 3.55-2.4.7m6.15-4.5v-1.55l4.05-4.45.1-.15v-.2l-2.25-9.5v-1.6h.1l.35-.25 1.75-.25-1.05 1.75 2.15 10.55-5.2 5.65m7.25-8.9-.5-3.1 1.65-6.55.65-.85h1.15l-.35.45-2.2 6.6.65 2.25-1.05 1.2m4.4-4.25 1.5-4.75 3.4-2.7h1.9l-2.8 2-1.75 1.25L35 14.8l-1.15.85" fill="#63b205" fill-rule="evenodd"/><path d="M22.2 29.15v-.35l5.2-5.65-2.15-10.55 1.05-1.75 3.45-.5-1.65 6.3v.2l-.3 7.45-5.6 4.85M36.05 9.3l-1.3 1.05-.15.2-.15.55-2.7 6.2-1.25 1.4-.65-2.25 2.2-6.6.35-.45 3.65-.1m1.8.9 1.95.15Q36.65 12.9 36.15 14l-1.15.8 1.1-3.35 1.75-1.25" fill="#6c39a8" fill-rule="evenodd"/><path d="M26.4 5.45 24.85 8.1l-3.15 2.15.7-3 4-1.8m8.3-2-2.25 3-4.25 1.1 1.25-2.1 5.25-2m1 1.4 1.15-.5 6.65-.95-3.05 2.4-5.75.45 1-1.4m7.6 1.4 1.95-1.4 5.8 1.05L46 7.3l-2.7-1.05" fill="#9967d3" fill-rule="evenodd"/><path d="m24.85 8.1-1.35 2.35q-.1.2-.05.45v.05l-.05.05-.1.25v.85l-2.45 1.5.85-3.35 3.15-2.15m7.6-1.65L29.9 9.8l-.05.15-.1.4-3.45.5 1.9-3.3 4.25-1.1m8-.65-4.4 3.5-3.65.1 2.3-3.15 5.75-.45m10.6.15-7.5 2.8-.2.1-.95.8h-1.7l-.9.7-1.95-.15 2.8-2 2.65-1.95L46 7.3l5.05-1.4v.05" fill="#5e2a79" fill-rule="evenodd"/><path d="m6 33.2 4-6.2-1.85-4.8.45-.5 2.85 5.2q-2.4 4.45-5.2 7.1L6 33.2" fill="#378c06" fill-rule="evenodd"/><path d="m4.35 25.95 2.4-2.8L8.9 20.6l1.65 2.55q.9 1.6 1.45 3.25l.25.9-1.55 2.45-.05.1q-2.3 3.3-4.8 5.8L4.25 32l-.85-2.1q.35-2.05.95-3.95m3.8-3.75-.65.75q-1.45 1.85-2.25 4.2l-.3 1.25-.25 1.3.45 1.25.4 1.15.45 1.1.25.8q2.8-2.65 5.2-7.1L8.6 21.7l-.45.5" fill="#2e6f06" fill-rule="evenodd"/><path d="m11 35.75-.1.05-.05.1-2.95 3.2-.15-.05-.25-4 3.15-5.2.35 5.9m.35 6.45-2.8 2.25-.7-.65.05-3.8h.15l.25-.1 2.75-3.05.3 5.35" fill="#c74a4a" fill-rule="evenodd"/><path d="m19.3 11.05-.4 1.45-.05.2v2.75l.05.1 2.55 6.9-5.25 5.9-.05.2v.15l.55 3.2-5.7 3.85-.35-5.9.05-.1 1.55-2.45-.25-.9-.8-4.7.6-1.4 7.5-9.25" fill="url(#R)" fill-rule="evenodd"/><path d="m18.7 36.25-.25.25-.1.05-7 5.65-.3-5.35.35-.4 4.65-3.15 2.4-.7-1.1-3.55 5.85-6-2.8-7.5.45-1.95 2.45-1.5v1l2.2 9.3-2 2.25-2.7 2.05-.3 5.5-1.8 4.05" fill="url(#S)" fill-rule="evenodd"/><path d="m19.1 6.65 1.85-1.6-.2.85-1.45 5.15-7.5 9.25q2.9-6.4 7.3-13.65" fill="#5f2a79" fill-rule="evenodd"/><path d="m10.55 23.15.65-1.45.8 4.7q-.55-1.65-1.45-3.25" fill="#bc5d98" fill-rule="evenodd"/><path d="m4.15 41.4.05.3q.1.25.35.3l.3.05h.05q-1.55.6-2.55 2.4-.9 1.65-.95 3.45l.75-.65.25-.15q.85-.65 2.2-1.25 1.6-.75 3-1.15l.45.45-.5.2q-1.35.6-2.5 1.35-1.25.8-3.1 2.35L.2 50.5l-.15-.7-.05-.95q0-2.6 1.65-4.9 1.05-1.45 2.5-2.55m12.9 2.85-.45-.95 1.2-2.5.15-.1.1-.15.15-.65 1.35-.75 1.35-.75-1.25 1.7-1.9 2.55 1 3.25-4.25 3.95-3.9 1.25.2-.15h.05l.35-.2 3.6-2.45.35-.25 2.4-2.55-.5-1.25M26 40l.6.6v1.95q-2.7 5.95-6.5 8.2l-6 1.75H14l-.15-.05-1.85-.5 3.1-.45q3.85-.85 6.3-2.85l3.35-3.95.6-3.7-.3-.2-3.8-2.8.8-.15 3.4 1.5.55.65" fill="#b9a173" fill-rule="evenodd"/><path d="m16.6 43.3-2.3-.65h-.2l-.2.15-.1.2-.75 4.4-1-.3q1.3-2.55-.65-3.95l1.35-1.05.15.1h.3l4.55-1.4h.05l-1.2 2.5" fill="url(#T)" fill-rule="evenodd"/><path d="m10.6 47.5 2.65.8.25.05.2-.15.1-.2.5-3.2.5 3.5-3.6 2.45-.6-3.25" fill="url(#U)" fill-rule="evenodd"/><path d="m13.8 52.6-3.6 2.2.8-3.15 1 .3 1.85.5-.05.15" fill="url(#V)" fill-rule="evenodd"/><path d="m15.15 43.75 1.9.5.5 1.25-2.4 2.55v-4.3" fill="#7f3c97" fill-rule="evenodd"/><path d="m17.3 40.1-3.35 1.05L17.9 38l-.6 2.1" fill="#02f1fd" fill-rule="evenodd"/><path d="m14 52.5-.2.1-3.6 2.2-1.55.95" fill="none" stroke="#502666" stroke-linecap="round" stroke-linejoin="round" stroke-width="2"/><path d="M13.6 35.25v-.2l.4-.25-.05.25-.3 1.35-.4.4-.45.1-.6-.35h-.05l-.3-.4.35-.25.25.25.35.15q.4 0 .6-.35l.2-.7" fill="#fff" fill-rule="evenodd"/><path d="m13.6 35.25-.2.7q-.2.35-.6.35l-.35-.15.35-.4.8-.5m-1.45 1.3h.05l.6.35.45-.1.4-.4.3-1.35 1.45-.65-.75 1.5-.95 1.15-.85.25-1.35.05.65-.8" fill="#8afd03" fill-rule="evenodd"/><path d="M13.6 35.05v.2l-.8.5-.35.4-.25-.25 1.4-.85m-1.75 1.1.3.4-.65.8-.15.05h-.1l-.4-.05.9-1.15.1-.05m2.1-1.1.05-.25 1.65-1.05-.25.65-1.45.65" fill="#378c06" fill-rule="evenodd"/><path d="m12.2 35.9-.35.25-.1.05-.9 1.15-.55.75-.75-.35.8-1.35q2.4-2.3 6-4.15l.15.95q-.45.25-.85.55L14 34.8l-.4.25-1.4.85" fill="#502666" fill-rule="evenodd"/><path d="M15.65 33.75q.4-.3.85-.55l-.2.8-1.15 3.15-.95 1q-2.1.35-3.55.05l-.35-.1.55-.75.4.05h.1l.15-.05 1.35-.05.85-.25.95-1.15.75-1.5.25-.65" fill="#2e6f06" fill-rule="evenodd"/></g><g id="n"><use ffdec:characterId="33" height="20.85" transform="translate(0 5.75)" width="24.45" xlink:href="#W"/><use ffdec:characterId="35" height="49.45" transform="translate(18.85)" width="22.2" xlink:href="#X"/></g><g id="W" fill-rule="evenodd"><path d="M7.25 6.3 8.4 7.7l1.05 2.75q1.35 2.1 4.25 2.65l7.85-4.15.3 1.15-8.45 3.8-2.95-1.1Q7.9 9.85 6.7 6.9l.55-.6m17.05 14 .15.75Q13 27.1 12.2 26.55L4.75 20.6l-2.8-.8-.15-1.05 3.5 1.15 4.5 3.3 2.8 2.05 11.7-4.95" fill="#b9a173" transform="translate(0 -5.75)"/><path d="m22.9 14.5.85 3.6-11.45 5.05-5.2-4.05-5.6-2.75-.4-3.4L4.65 9.1q1.15 4.25 6.75 7.75-2.25.7-3.8 0 1 1.7 4.9 1.4 5.55-1.65 10.4-3.75" fill="#f1e1ae" transform="translate(0 -5.75)"/><path d="m23.75 18.1.55 2.2-11.7 4.95-2.8-2.05-4.1-3.7-3.95-1.4-.25-1.75 5.6 2.75 5.2 4.05 11.45-5.05" fill="#d7c38d" transform="translate(0 -5.75)"/><path d="m1.75 18.1 3.95 1.4 4.1 3.7-4.5-3.3-3.5-1.15-.05-.65" fill="#ceefff" transform="translate(0 -5.75)"/><path d="m21.85 10.1 1.05 4.4q-4.85 2.1-10.4 3.75-3.9.3-4.9-1.4 1.55.7 3.8 0-5.6-3.5-6.75-7.75L6.7 6.9q1.2 2.95 3.75 5.9l2.95 1.1 8.45-3.8" fill="#fff" transform="translate(0 -5.75)"/><path d="m1.95 19.8-.6-.2L0 12.75l6.8-7 .45.55-.55.6-2.05 2.2-3.55 3.85.4 3.4.25 1.75.05.65.15 1.05" fill="#502666" transform="translate(0 -5.75)"/></g><g id="ar" fill-rule="evenodd"><path d="m14.4 11.55.05.15 1.7 6.2 3.1 3.55.1.35.5 7.15 1.85 2.75.1.2q.4 3.7.4 6.8l-.15 3.7q-.4 4-1.7 6.75l-.3.25-.3.05-.35-.2-9-12.6v.05l-4.35-4.65-.05-.1-.05.05-.4-.1-.25-.3-1.05-4.9-2.4-1.5H1.8v-.05h-.05l-.4-.25-.2-.35.1-.4q.1-.15.3-.2V19.4l-1.4-1.5-.15-.35L.75.45.9.15Q1 0 1.2 0l.35.05q8.2 5.15 12.85 11.5m-.95.55Q9.3 6.45 2.3 1.8l-.55-.35-.1 2.7-.55 13.2 1.4 1.45.05.05.15.2.05-.05.3-.05q5.55.8 10.2 2.35l1.2.4 1.25.5-.5-3.75v-.15l-1.7-6.2h-.05m5.75 17.8.05 1.25-.1.25-.2.15h-.3l-7-3.45-.15-.1-3.45-.4H7.9l-2.6-1.15.25 1.35.75 3.35h.15q.25 0 .4.15L11.2 36l.05.05 7 9.8 1.5 2.05q1.4-3.65 1.4-9.2v-.4q0-2.85-.4-6.15L19.2 29.9m-.75-6.25-.1-1.6-2.15-2.5.05.3.35 2.95-.05.25-.25.15h-.25q-3.6-1.5-7.9-2.5l-5.05-.9-.15.25-.35.15v4.25l1.95 1.2.2-.15h.3l3.1 1.3 3.55.4.1.05 4.65 2.3 1.15.55.8.4-.05-2.35.1-.3.25-.15-.25-4.05" fill="#502666"/><path d="M11.65 29.25q2.3.45 5.8 3.15 1.55 5.75.8 13.45l-7-9.8-.05-.05-4.35-4.7q-.15-.15-.4-.15H6.3l-.75-3.35L8 29.25q2.25-.25 3.65 0" fill="url(#Y)"/><path d="m16.45 29.55-4.65-2.3-.1-.05-3.55-.4-3.1-1.3h-.3l-.2.15-1.95-1.2V21l2 1.1q2.25-.1 4.25.05 2.95.2 5.25 1.1l2.35 6.3" fill="#9d66ce"/><path d="M13.25 21.3q-4.65-1.55-10.2-2.35l-.3.05-.05.05-.15-.2-.05-.05-1.4-1.45.55-13.2 11.6 17.15" fill="#9967d3"/><path d="m8.8 7.8 4.65 4.3h.05l1.7 6.2v.15l.5 3.75L8.8 7.8" fill="#6c39a8"/><path d="m17.1 21.35 1.35 2.3.25 4.05-.25.15-.1.3.05 2.35-.8-.4-2.2-6.3 1.3.75.4-3.2" fill="#763aa1"/><path d="m18 32.85.85.65.9-1.55 1.4 6.35v.4q0 5.55-1.4 9.2.1-10.5-1.75-15.05" fill="url(#Z)"/><path d="m8.8 7.8-6.5-6q7 4.65 11.15 10.3L8.8 7.8m10.95 24.15-.55-2.05 1.55 2.25q.4 3.3.4 6.15l-1.4-6.35m-3.5-12.1-.05-.3 2.15 2.5.1 1.6-1.35-2.3-.85-1.5" fill="#ceefff"/><path d="m19.2 29.9.55 2.05-.9 1.55-.85-.65-.55-.45q-3.5-2.7-5.8-3.15V28.1l7 3.45h.3l.2-.15.1-.25-.05-1.25m-2.95-10.05.85 1.5-.4 3.2-1.3-.75-1.3-.55q-2.3-.9-5.25-1.1l-.7-1.45q4.3 1 7.9 2.5h.25l.25-.15.05-.25-.35-2.95" fill="#f9ff01"/><path d="M11.65 28.1v1.15q-1.4-.25-3.65 0L5.55 27.8l-.25-1.35 2.6 1.15h.15l3.45.4.15.1M2.6 21v-.8l.35-.15.15-.25 5.05.9.7 1.45q-2-.15-4.25-.05l-2-1.1" fill="#fec600"/><path d="m1.75 1.45 7.15 9q3.5 5.9 5.55 11.25l-1.2-.4L1.65 4.15l.1-2.7m15.7 30.95.55.45q1.85 4.55 1.75 15.05l-1.5-2.05q.75-7.7-.8-13.45m.15-2.3-1.15-.55-2.35-6.3 1.3.55 2.2 6.3" fill="#fff"/><path d="m2.3 1.8 6.5 6 6.9 14.4-1.25-.5Q12.4 16.35 8.9 10.45l-7.15-9 .55.35" fill="#5e2a79"/></g><g id="as"><path d="m12.8.4.05-.05.3-.3h.4l.25.25.9 2.05.05.25.2.25 5.55 12.7.05.35-.2.65-.15.2v.3l-.6 2.05 1.95 5.75v.35l-2.1 5.25 1.1 5.4-.05.35-4.4 10.25-.25.25h-.45l-.25-.25v-.4l1.5-3.55 2.85-6.6-1-4.85-.4.5-6.9 8.35-.8.9-.2.15H10l-.2-.1-3.7-3.8-1.6-1.6-.05-.05-2.15-3.05-.4 1.1-.8 2.15 3.25 10.3.1.4-.2.35-.1.05-.35.05-.3-.25-.1-.1-.05-.15-3.3-10.5v-.35l1.75-4.75L.25 26v-.35l1.7-4.4-.65-4.3.05-.4.35-.2h.25l.15.1.2.35.7 4.45v.1l.75.95 2.65 3.45 1.3 1.65 1.35 1.75 1.1-.75q2.85-1.95 5.45-5.2l2.4-3.3.5-.7v-.25l.7-2.2.15-.25v-.3l.15-.4-3.75-8.5-1.8-4.05L13.9 3l-.15-.2-.9-2.05L12.8.4M5.45 25.85 2.7 22.3l-.3.65-1.1 2.9 1.55 4.7v.3l-.2.6 2.45 3.5v-.1l.85.9 1.35 1.4 1.4 1.4 1.35 1.4 3.2-3.85 3.85-4.65 1.6-1.95.15-.3L20.5 25l-1.65-4.85-.35.5-.6.9q-3.55 5-7.45 7.65l-1.3.85-.25.05-.25-.15-3.2-4.1" fill="#502666" fill-rule="evenodd" transform="translate(0 .1)"/><path d="m8.7 38.55-1.4-1.4-.9-8.65 1.35 1.8.95 8.25" fill="#c1608f" fill-rule="evenodd" transform="translate(0 .1)"/><path d="m13.25 36.1-3.2 3.85.4-9.25 4.1-4.4-1.3 9.8" fill="#843367" fill-rule="evenodd" transform="translate(0 .1)"/><path d="m18 19.9-2.4 3.3L17.55 13l.85 2.65-.4 4.25M16.4 9.45l.5 1.5-1.25 4.5.75-6" fill="#6c39a8" fill-rule="evenodd" transform="translate(0 .1)"/><path d="m12.85.75.9 2.05.15.2.05.25 1.8 4.05.65 2.15-.75 6 1.25-4.5.65 2.05-1.95 10.2q-2.6 3.25-5.45 5.2.6-16.1 2.7-27.65" fill="#602b78" fill-rule="evenodd" transform="translate(0 .1)"/><path d="m15.75 7.3 3.75 8.5-.15.4v.3l-.15.25-.7 2.2v.25l-.5.7.4-4.25-.85-2.65-.65-2.05-.5-1.5-.65-2.15m2.35 24.25.4-.5 1 4.85-2.85 6.6 1.45-7.45v-3.5m.4-10.9.35-.5L20.5 25l-1.65 4.2-.15.3-1.6 1.95 2.05-6.8-.45-2.8-.2-1.2" fill="#ceefff" fill-rule="evenodd" transform="translate(0 .1)"/><path d="m12.8.4.05.35q-2.1 11.55-2.7 27.65l-1.1.75L7.7 27.4q-1-7.1-.65-13.15l1-8.95 1.2-2.25L12.8.4M6.4 25.75 3.75 22.3l.15-9.5 1.65-2.95.85 15.9m5.4 29.4-.65 1.45-2.1-15.4 1.15 1.1 1.6 12.85m-7.6-29.7 1 1.3 1.2 1.75.9 8.65-1.35-1.4-1.75-10.3m5.85 14.5-1.35-1.4-.95-8.25 1.3 1.8 1.4-1.4-.4 9.25m-3.8-1.45 1.35 1.3 1.7 9.6-3.05-10.9" fill="#fff" fill-rule="evenodd" transform="translate(0 .1)"/><path d="m7.7 27.4-1.3-1.65-.85-15.9 2.5-4.55-1 8.95Q6.7 20.3 7.7 27.4m-3.95-5.1L3 21.35v-.1l-.7-4.45-.2-.35-.15-.1L3.9 12.8l-.15 9.5" fill="#9967d3" fill-rule="evenodd" transform="translate(0 .1)"/><path d="m6.1 37.05 3.7 3.8.2.1h.2l.2-.15.8-.9.35 1.4-1.05 1.25-.3-.25-1.15-1.1-1.45-1.4-1.35-1.3-.15-1.45m-.9-10.3.25-.9 3.2 4.1.25.15.25-.05 1.3-.85v1.5l-1.4 1.4-1.3-1.8-1.35-1.8-1.2-1.75" fill="#f9ff01" fill-rule="evenodd" transform="translate(0 .1)"/><path d="m11.2 39.9 6.9-8.35v1.85l-6.55 7.9-.35-1.4m-.75-10.7q3.9-2.65 7.45-7.65l.6-.9.2 1.2-4.15 4.45-4.1 4.4v-1.5" fill="#fe8501" fill-rule="evenodd" transform="translate(0 .1)"/><path d="m1.9 33.45.4-1.1 2.15 3.05.05.05 1.6 1.6.15 1.45-2.55-2.45-1.8-2.6m.5-10.5.3-.65 2.75 3.55-.25.9-1-1.3-1.8-2.5" fill="#fec600" fill-rule="evenodd" transform="translate(0 .1)"/><path d="m2.4 22.95 1.8 2.5 1.75 10.3-.85-.9v.1l-2.45-3.5.2-.6v-.3l-1.55-4.7 1.1-2.9" fill="url(#aa)" fill-rule="evenodd" transform="translate(0 .1)"/><path d="m17.1 31.45-3.85 4.65 1.3-9.8 4.15-4.45.45 2.8-2.05 6.8" fill="url(#ab)" fill-rule="evenodd" transform="translate(0 .1)"/><path d="m16.65 42.5-1.5 3.55v.4l.25.25-3.6 8.45-1.6-12.85.3.25 1.05-1.25 6.55-7.9v1.65l-1.45 7.45" fill="url(#ac)" fill-rule="evenodd" transform="translate(0 .1)"/><path d="m4.15 46.7.1-.05.2-.35-.1-.4L1.1 35.6l.8-2.15 1.8 2.6 2.55 2.45L9.3 49.4l-1.7-9.6 1.45 1.4 2.1 15.4-.25.6-6.75-10.5" fill="url(#ad)" fill-rule="evenodd" transform="translate(0 .1)"/><path d="m15.4 46.7-3.6 8.45-.65 1.45-.25.6-6.75-10.5m3.9-41.4-2.5 4.55L3.9 12.8l-1.95 3.55M12.8.4 9.25 3.05 8.05 5.3" fill="none" stroke="#502666" stroke-linecap="round" stroke-linejoin="round" transform="translate(0 .1)"/></g><use ffdec:characterId="2" height="42.65" width="39.6" xlink:href="#ae" id="c"/><use ffdec:characterId="4" height="49.6" width="69.95" xlink:href="#af" id="d"/><use ffdec:characterId="6" height="42.85" width="33.9" xlink:href="#ag" id="e"/><use ffdec:characterId="8" height="46.9" width="32.95" xlink:href="#ah" id="w"/><use ffdec:characterId="10" height="43.05" width="35.3" xlink:href="#ai" id="x"/><use ffdec:characterId="12" height="80.8" width="42" xlink:href="#aj" id="y"/><use ffdec:characterId="15" height="12.75" width="23.95" xlink:href="#ak" id="g"/><use ffdec:characterId="17" height="52.6" width="68.3" xlink:href="#al" id="h"/><use ffdec:characterId="19" height="51.7" width="10.7" xlink:href="#am" id="i"/><use ffdec:characterId="21" height="45.05" width="47.6" xlink:href="#an" id="j"/><use ffdec:characterId="23" height="80.8" width="43.05" xlink:href="#ao" id="k"/><use ffdec:characterId="25" height="66.8" width="54.1" xlink:href="#ap" id="l"/><use ffdec:characterId="27" height="56.75" width="55.8" xlink:href="#aq" id="m"/><use ffdec:characterId="34" height="49.45" width="22.2" xlink:href="#ar" id="X"/><use ffdec:characterId="37" height="57.8" width="21.55" xlink:href="#as" id="o"/><radialGradient cx="0" cy="0" gradientTransform="translate(26.45 33.2) scale(.0171)" gradientUnits="userSpaceOnUse" id="v" r="819.2" spreadMethod="pad"><stop offset="0" stop-color="#c1608f"/><stop offset="1" stop-color="#9d66cf"/></radialGradient><radialGradient cx="0" cy="0" gradientTransform="translate(3.65 3.1) scale(.0643)" gradientUnits="userSpaceOnUse" id="z" r="819.2" spreadMethod="pad"><stop offset=".224" stop-color="#6c242c"/><stop offset=".392" stop-color="#6f252c"/><stop offset="1" stop-color="#eb5b1d"/></radialGradient><radialGradient cx="0" cy="0" gradientTransform="translate(4.85 2.35) scale(.0554)" gradientUnits="userSpaceOnUse" id="B" r="819.2" spreadMethod="pad"><stop offset=".224" stop-color="#6c242c"/><stop offset=".392" stop-color="#6f252c"/><stop offset="1" stop-color="#eb5b1d"/></radialGradient><radialGradient cx="0" cy="0" gradientTransform="matrix(.052 0 0 .052 4.25 9.25)" gradientUnits="userSpaceOnUse" id="C" r="819.2" spreadMethod="pad"><stop offset=".224" stop-color="#6c242c"/><stop offset=".392" stop-color="#6f252c"/><stop offset="1" stop-color="#eb5b1d"/></radialGradient><radialGradient cx="0" cy="0" gradientTransform="matrix(.014 0 0 .014 13.35 43.75)" gradientUnits="userSpaceOnUse" id="ac" r="819.2" spreadMethod="pad"><stop offset="0" stop-color="#b44f6c"/><stop offset="1" stop-color="#853f93"/></radialGradient><path d="M27.75 0q0 2-8.15 3.4Q11.5 4.9 0 4.9q-11.5 0-19.65-1.5-8.1-1.4-8.1-3.4 0-2.05 8.1-3.5Q-11.5-4.9 0-4.9q11.5 0 19.6 1.4 8.15 1.45 8.15 3.5" fill-opacity=".349" fill-rule="evenodd" transform="translate(27.75 4.9)" id="b"/></defs></svg>