<svg xmlns:ffdec="https://www.free-decompiler.com/flash" xmlns:xlink="http://www.w3.org/1999/xlink" ffdec:objectType="frame" height="90" width="90" xmlns="http://www.w3.org/2000/svg"><use ffdec:characterId="45" height="291.5" transform="matrix(.2939 0 0 .2941 -7.832 -3.66)" width="352.9" xlink:href="#a"/><defs><g id="a" transform="translate(26.65 12.45)"><use ffdec:characterId="1" height="8.6" transform="matrix(3.0654 0 0 5.7753 59.245 229.35)" width="55.5" xlink:href="#b"/><use ffdec:characterId="6" height="55.1" transform="translate(141.634 150.55) scale(1.2985)" width="112.35" xlink:href="#c"/><use ffdec:characterId="8" height="51.95" transform="translate(72.3 199.45) scale(1.1013)" width="49.8" xlink:href="#d"/><use ffdec:characterId="10" height="44.95" transform="translate(77.45 168.2) scale(1.1013)" width="48.9" xlink:href="#e"/><use ffdec:characterId="23" height="52.7" transform="matrix(1.1737 -.1571 1.0169 2.5274 -26.55 49.136)" width="85.35" xlink:href="#f"/><use ffdec:characterId="25" height="94.05" transform="translate(5.65 93.1) scale(1.2985)" width="75.15" xlink:href="#g"/><use ffdec:characterId="27" height="65" transform="translate(94.8 112.9) scale(1.1013)" width="72.8" xlink:href="#h"/><use ffdec:characterId="35" height="95.15" transform="translate(83.9 42.55) scale(1.1013)" width="85.6" xlink:href="#i"/><use ffdec:characterId="36" height=".4" transform="translate(230.25 123.68) scale(1.1013)" width="1" xlink:href="#j"/><use ffdec:characterId="38" height="54.15" transform="translate(135.25 71) scale(1.2985)" width="73.95" xlink:href="#k"/><use ffdec:characterId="23" height="52.7" transform="matrix(1.4655 .5858 .3382 3.3022 183.362 -12.441)" width="85.35" xlink:href="#f"/><use ffdec:characterId="40" height="50.3" transform="translate(173.9 120.7) scale(1.2985)" width="57.35" xlink:href="#l"/><use ffdec:characterId="42" height="101.4" transform="translate(134.6 165.2) scale(1.1013)" width="77.1" xlink:href="#m"/><use ffdec:characterId="44" height="35.3" transform="translate(111.5 169.7) scale(1.1013)" width="30.85" xlink:href="#n"/></g><g id="t" fill-rule="evenodd"><path d="m101.2 15.15 1-.5-1.15-2.4h2.4l-.4-2.4 1 .3-.85-2.25 1.25.8L102.3 4l1.3-.15q2.6 2.1 4.4 5.9Q110.7 17 104.95 22q.55-2.5-.9-7.85l-1.1 4.55-1.75-3.55" fill="#ddc7c9"/><path d="m103.6 3.85-1.3.15 2.15 4.7-1.25-.8.85 2.25-1-.3.4 2.4h-2.4l1.15 2.4-1 .5-2.55 1.2.3.65-1.55 1.75q-1.35-.35-3.05 0-4.75.9-12.3 7.7l-.1.1Q73.1 38.8 57.65 42.8q-5.55 1-11 .25l-.2-.05q-8.9-2.05-17.25-8.2h-3.85q-11.5-3.25-22.95-2L1.05 19.35q10.85-6.8 23.1.8l4.2 3.75.2.1h-1.3l-.1.05-.1.15v.1l.05.1q2.05 1.65 4.15 6.1l.1.05.1.05.1-.1.1-.1v-2.8l1.4.65h.1l.15-.1V28l-.05-.7.1.05 4.5 2.35 1.65 5.75 8.05 4 .65.95.1.1h.15l.1-.05.05-.1.05-.7q5 1.2 10.55 0 5.8-1.7 12.15-5.85l1.8-1.5.7-.55q1.5-1.25 3.15-3.7v-.1l.1-.6 6.75-7.05h.4l-1 1.5v.15l.1.1.1.05h.15l4.3-3.15.05-.05v-1.15L93 15.4l-4.85-1.95q1-1.4 6.7-1.1v.15l.05.1.1.15 4.2 1.3.15-.05.1-.1v-.15l-1.55-3.9 3.5.8h.15l.1-.1v-.1l-.05-.15-.25-.35q-.6-2.9-2.55-5.5l1.55-.45.1-.1.05-.15-.1-.15-2-1.65 1.15-.3.45.15q1.95.7 3.6 2.05" fill="#8c3722"/><path d="M104.95 22q5.75-5 3.05-12.25-1.8-3.8-4.4-5.9-1.65-1.35-3.6-2.05l-.45-.15-1.15.3 2 1.65.1.15-.05.15-.1.1-1.55.45-1.55.5 4.1 5 .25.35.05.15v.1l-.1.1h-.15l-3.5-.8 1.55 3.9v.15l-.1.1-.15.05-4.2-1.3-.1-.15-.05-.1.1-.15 1.3-1-3.9-2.7-.1-.1.05-.2 1.5-2.2-6.75-1.7v.05q-2.1 2.2-4.1 5.2l-.05.05V9.7h-1.25l.2-.35Q84 6.1 86.2 3.75l.15-.15q1.25-1.35 2.55-2.4l.2-.1q5.65-1.75 10-.7l1.25.35q5.5 1.9 8.65 8.55v.05q3.15 8.3-3.95 13.95l-.1.1-.7.5-.25.1-.3-.05-.2-.15-.85-1.3-.7 1.05-.4.2-.35-.05-.05.05-.4-.05-.3-.3q-1.7-4.4-5.9-3.6-4.5.9-11.7 7.45-9.1 12.55-24.95 16.6h-.05Q43.3 46.55 29.5 37.3q-4.4-1.6-8.8-2.5-9.1-1.9-18.15-.9l-.4.05-.4-.1-.25-.4.15-.4q.15-.2.35-.2l.4-.05q11.45-1.25 22.95 2l4.55 1.45.15.1Q38.1 41.8 46.45 43l.2.05q5.45.75 11-.25 15.45-4 24.3-16.25l.1-.1q7.55-6.8 12.3-7.7 1.7-.35 3.05 0 2.5.7 3.85 3.8l.95-1.3q.05-.2.25-.25h.35l.3.2 1 1.5.85-.7m-67.1 7.7-4.5-2.35v-1.3q2.8 1.75 5.8 3.05h.05l.7.3.55 1.65-.65-.5-1.05-.45-.9-.4m-9.5-5.8-4.2-3.75q-12.25-7.6-23.1-.8-.15.1-.25.15l-.4.1q-.25-.05-.35-.25l-.05-.4q0-.25.2-.35l.7-.45q11.2-6.8 23.9 1.05l.1.1q2.4 2.4 5 4.4l-1.55.2M97.9 1.6l.75-.15q-4-.9-9.15.65l-2.1 2 6.8 1.7.1.05.05.15v.15l-1.6 2.25 4 2.8.1.1v.1l-.1.15-1.2.9 3.35 1.05-1.55-3.9v-.15l.1-.1.15-.05 3.3.8-4.15-5.15-.05-.15.05-.1.1-.05 3-.95L97.8 2l-.05-.15.05-.15.1-.1M75.7 22.45l-1.2-.7.65-.7.95-1.25q1.8-3.95 3.7-7.15l.05-.05.2 1.8q-1.55 2.75-3 5.9l-.05.1-1 1.35h-.05l-.25.3v.4m-29.05 10.2-.95-1.35.05.05 4.3.85 4.85-.85.35 1.2-.15-.1v-.05l-4.95.9H50l-3.35-.65m15.3-2.1-1.35-.7q5.35-1.7 9.2-4.2v1.3q-3.4 2.1-7.85 3.6" fill="#632617"/><path d="m101.2 15.15 1.75 3.55 1.1-4.55q1.45 5.35.9 7.85l-.85.7-1-1.5-.3-.2h-.35q-.2.05-.25.25l-.95 1.3q-1.35-3.1-3.85-3.8L98.95 17l-.3-.65 2.55-1.2" fill="#9f8291"/><path d="m97.9 1.6-.1.1-.05.15.05.15 2.05 1.7-3 .95-.1.05-.05.1.05.15 4.15 5.15-3.3-.8-.15.05-.1.1v.15l1.55 3.9-3.35-1.05 1.2-.9.1-.15v-.1l-.1-.1-4-2.8 1.6-2.25V6l-.05-.15-.1-.05-6.8-1.7 2.1-2q5.15-1.55 9.15-.65l-.75.15" fill="#07a1bf"/><path d="M98.8 4.45q1.95 2.6 2.55 5.5l-4.1-5 1.55-.5m-3.95 7.9q-5.7-.3-6.7 1.1L93 15.4l-5.05 2.35V16.7l-.05-.15-.15-.05h-.55v-4l-.05-.1-.05-.05-4.2-2.6.05-.05q2-3 4.1-5.2v-.05l6.75 1.7-1.5 2.2-.05.2.1.1 3.9 2.7-1.3 1h-.1m-11 7.95-6.75 7.05.45-3.6-.05-.1-.05-.1h-.15l-.1.05-1.7 1.45.2-2.6v-.4l.25-.3H76l1-1.35.05-.1q1.45-3.15 3-5.9l.3-.45.95 3.95.05.1.1.1 2.2.45v1.55l.05.15.15.05m-10.7 12-1.8 1.5Q65 37.95 59.2 39.65q-5.55 1.2-10.55 0 0-1.7-1.35-3.95l1.4.35h.15l.1-.05v-.25L46.5 32.6l.15.05 3.35.65h.15l4.95-.9v.05l.15.1 3.05.7-1.2 1.55-.05.2.05.1.15.05h1.15l-2.1 3.1-.05.1.05.15.15.05q3.55.5 7.1-3.75l.05-.1-.05-.15-.15-.05-2.05-.45 1.55-2.8.05-.1-.05-.1-.1-.05-1-.4.15-.05q4.45-1.5 7.85-3.6v1.2l.05.15.15.1.15-.05 1.35-.85V30l.05.15.15.05h.1l.45-.25-.95 2.85v.15l.1.1h.1q.8-.15 1.65-.75m-25.6 7.15-8.05-4-1.65-5.75.9.4 1.05.45.65.5 2.8 2.25h-.9l-.1.05-.05.1-.05.1.1.1q3.65 3.4 5.3 5.8" fill="#bb563f"/><path d="M25.35 34.8h3.85q8.35 6.15 17.25 8.2-8.35-1.2-16.4-6.65l-.15-.1-4.55-1.45" fill="#c0fdfd"/><path d="M82.9 9.7v.05l4.2 2.6.05.05.05.1v4h.55l.15.05.05.15v2.2l-.05.05-4.3 3.15h-.15l-.1-.05-.1-.1v-.15l1-1.5h-.4l-.15-.05-.05-.15v-1.55l-2.2-.45-.1-.1-.05-.1-.95-3.95-.3.45-.2-1.8 1.8-2.9h1.25m4.1 7.2-.15-.05-.1-.15v-4.05l-4.1-2.55-1.9 3.1-.15.2 1.1 4.3 2.2.5.1.05.05.15v1.5h.6l.1.05.1.1-.05.15-.55.9 3.3-2.4v-1.8H87m-11.3 5.55-.2 2.6 1.7-1.45.1-.05h.15l.05.1.05.1-.55 4.2v.1q-1.65 2.45-3.15 3.7l-.7.55q-.85.6-1.65.75h-.1l-.1-.1v-.15l.95-2.85-.45.25h-.1l-.15-.05-.05-.15v-2.5l-1.35.85-.15.05-.15-.1-.05-.15v-2.5q2.75-1.75 4.7-3.9l1.2.7m-15.2 7.4h.1l1.35.7-.15.05 1 .4.1.05.05.1-.05.1-1.55 2.8 2.05.45.15.05.05.15-.05.1q-3.55 4.25-7.1 3.75l-.15-.05-.05-.15.05-.1 2.1-3.1h-1.15l-.15-.05-.05-.1.05-.2 1.2-1.55-3.05-.7-.35-1.2 5.6-1.5M43.95 33.7l-.15.05h-.9q3.75 3.5 5.3 5.9 0-1.8-1.55-4.2l-.05-.1.05-.1.1-.1h.1l1.35.4-2.35-3.1-.35-.05-4.45-1.4 2.9 2.35.05.1v.15l-.05.1m14.8-.8.1.1.05.15-.05.1-1.15 1.5h1.1l.15.05.05.15v.15l-2.2 3.1q3.15.2 6.2-3.4l-2-.4-.15-.05-.05-.15.05-.15 1.6-2.8-1.25-.45-.35.1-5.05 1.35 2.95.65m-16.5.75-.1-.1.05-.1.05-.1.1-.05h.9l-2.8-2.25-.55-1.65 5.8 1.9.95 1.35-.15-.05 2.45 3.15V36l-.1.05h-.15l-1.4-.35q1.35 2.25 1.35 3.95l-.05.7-.05.1-.1.05h-.15l-.1-.1-.65-.95q-1.65-2.4-5.3-5.8M75.4 25.7l-.15.05-.15-.05-.05-.15.2-3q-2.1 2.3-5 4.15v1.1l1.35-.85.15-.05.15.1.05.15v2.5l.6-.35.1-.05.1.05.1.1v.15l-1.05 3q2.25-.85 4.8-4.7l.45-3.6-1.65 1.45m-48.35-1.4v-.1l.1-.15.1-.05h1.3l-.2-.1 1.55-.2.15.1 3.2 2.2h-.05l.15.05v1.3l-.1-.05.05.7v.15l-.15.1h-.1l-1.4-.65v2.8l-.1.1-.1.1-.1-.05-.1-.05q-2.1-4.45-4.15-6.1l-.05-.1m2.35.35-.3-.2h-1.3q1.7 1.6 3.4 5v-2.2l.05-.1.1-.1h.15l1.4.65-.1-.7-.15-.1q-1.7-1.05-3.25-2.25" fill="#046898"/><path d="M87 16.9h.55v1.8l-3.3 2.4.55-.9.05-.15-.1-.1-.1-.05h-.6v-1.5l-.05-.15-.1-.05-2.2-.5-1.1-4.3.15-.2 1.9-3.1 4.1 2.55v4.05l.1.15.15.05m-28.25 16-2.95-.65 5.05-1.35.35-.1 1.25.45-1.6 2.8-.05.15.05.15.15.05 2 .4q-3.05 3.6-6.2 3.4l2.2-3.1v-.15l-.05-.15-.15-.05h-1.1l1.15-1.5.05-.1-.05-.15-.1-.1m-14.8.8.05-.1v-.15l-.05-.1-2.9-2.35 4.45 1.4.35.05 2.35 3.1-1.35-.4h-.1l-.1.1-.05.1.05.1q1.55 2.4 1.55 4.2-1.55-2.4-5.3-5.9h.9l.15-.05m31.45-8 1.65-1.45-.45 3.6q-2.55 3.85-4.8 4.7l1.05-3v-.15l-.1-.1-.1-.05-.1.05-.6.35v-2.5L71.9 27l-.15-.1-.15.05-1.35.85v-1.1q2.9-1.85 5-4.15l-.2 3 .05.15.15.05.15-.05m-46-1.05q1.55 1.2 3.25 2.25l.15.1.1.7-1.4-.65h-.15l-.1.1-.05.1v2.2q-1.7-3.4-3.4-5h1.3l.3.2" fill="#07a1bf"/></g><g id="u" fill-rule="evenodd"><path d="M6 36.25q-1 2-1.65 4.75l-2.7.9.15-1.6.95-1.85q.5-1.05 1.05-1.75l2.2-.45M6.7 46q.8-5.45 5.6-7.4l.25.45q1.3 1.5 5.6-.05L16 43q-4.65-.2-9.3 3m25.35-4.75q-.35 1.5-1.8 3.5l-4 1.5q-2.85 1.6-3.4 3.2l-.2-.45-.05-.15q.45-4 3.9-6.7l5.55-.9" fill="#b4a7d2"/><path d="M6.65 35.1 6 36.25l-2.2.45q1.55-2.2 2.85-1.6m5.9 3.95q3.7.2 6.15-1.05l-.55 1q-4.3 1.55-5.6.05m19.45.5q.3.75.05 1.7l-5.55.9.3-.25q2.7-.65 5.2-2.35" fill="#81789b"/><path d="M1.8 40.3q.6-3.6 3.35-7.3l2.45-1.45 1.25.9q-1.25 1-2.2 2.65-1.3-.6-2.85 1.6-.55.7-1.05 1.75L1.8 40.3M6.7 46l-.4.25Q4.1 40.7 10.4 32.7l4.65-.8L18.7 38q-2.45 1.25-6.15 1.05l-.25-.45Q7.5 40.55 6.7 46m15.9 2.85q-1.4-3.95 1.6-9.5l5.1-4.2q1.85 2 2.6 4.2l.1.15v.05q-2.5 1.7-5.2 2.35l-.3.25q-3.45 2.7-3.9 6.7" fill="#fff"/><path d="m4.25 32.4 1.2-.8 2.9-.75 1.7.9 1.7-.25h.15l.05-.05L15.2 31l.05.15q2.3 2.5 4.05 6.5l.2.4q-.75 2.8-1.8 4.5l-1.3 1.55-2 .5-2 .65q-3.8 1.4-7.3 3.9-1.6-2.05-1.25-6.6L.3 44.45 0 40.3q1.05-4.55 3.75-7.7l.5-.2M27.9 47.25l-1.55.6q-2.6 1.45-3.1 4.1-2.7-1.55-2.95-6.45l.4-1.85.5-1.6q.95-2.55 2.75-4.35l1.05-1q1.75-1.35 4.15-2.2 2.1 1.25 3.7 4.65l-.15 2.95-.95 2.8-.5 1-1.7.65-1.65.7M6.65 35.1q.95-1.65 2.2-2.65l-1.25-.9L5.15 33Q2.4 36.7 1.8 40.3l-.15 1.6 2.7-.9Q5 38.25 6 36.25l.65-1.15M18.7 38l-3.65-6.1-4.65.8q-6.3 8-4.1 13.55l.4-.25q4.65-3.2 9.3-3l2.15-4 .55-1m3.9 10.85.05.15.2.45q.55-1.6 3.4-3.2l4-1.5q1.45-2 1.8-3.5.25-.95-.05-1.7v-.05l-.1-.15q-.75-2.2-2.6-4.2l-5.1 4.2q-3 5.55-1.6 9.5" fill="#503f72"/><path d="M5.45 31.6q4.35-2.65 7.65-3.75l-3.05 3.9-1.7-.9-2.9.75m6.5-.15q1-1.5 4.1-3.7 4.7 1.65 9.6 1.35l.4 2.95-1.05.6-.5 2.5q-2.25 3.3-5.2 2.5-1.75-4-4.05-6.5L15.2 31l-3.25.45M37 32.85l-.1.1.2-.05q2.7 5.15-4.4 9.2l.15-2.95q-1.6-3.4-3.7-4.65-2.4.85-4.15 2.2l1.05-3.1q3.05-1.7 5.7-2.1l.3-.05 3.45-.1 1.5 1.5" fill="#e88046"/><path d="m25.65 29.1.6-.1.75-1.2h-.75q2.1-2.95 2.85-7.1l-1.6-2.4q4.85 1.3 11-3.3-2.3 4.55-4.35 6.2 4.05-.95 7.85-6.55-1.2 6-6.5 10.55 5.25-2.25 11.25-9.05l-1.2 2.95-.25.5-.15.3-4.4 8.7L37 32.85l-1.5-1.5-3.65-.9q-1.95-.55-5.8 1.6l-.4-2.95M17.7 42.55q1.05-1.7 1.8-4.5l-.2-.4q2.95.8 5.2-2.5l-.55 2.55q-1.8 1.8-2.75 4.35-2.1.9-3.5.5m24.85-11.7 2.6-1.5Q43.7 33.8 40.05 40l-7.3 5.2-1-.3.95-2.8q7.1-4.05 4.4-9.2l5.45-2.05" fill="#bb563f"/><path d="m27.5 18.3-.65-.9V8.95L46.7.4l.45 3.05L47 15.5l-.2.5-.05.15q-6 6.8-11.25 9.05 5.3-4.55 6.5-10.55-3.8 5.6-7.85 6.55 2.05-1.65 4.35-6.2-6.15 4.6-11 3.3m-6.8 25.35-3.5 1.05-2.8-.1 2-.5 1.3-1.55q1.4.4 3.5-.5l-.5 1.6M45.55 19.1l1.6-1.35.05.8-1.15 5.5-1 3.3-2.5 3.5-5.45 2.05-.1-.05 3.75-4.25 4.4-8.7.15-.3.25-.5m-.4 10.25.7-.45-.15 1.5-1.55 5.4-2.5 4.1-3.05 3.2-6.9 3.8-2.15-.35 1.7-.65.5-1 1 .3 7.3-5.2q3.65-6.2 5.1-10.65" fill="#8c3722"/><path d="M4.25 32.4q.85-2.35 7.55-5.95l2.75.55 1.9-.8q4.45 1.6 7.65 1.4l.25-.05q2.2-2.7 2.9-6.9l-1.8-2.45.45-8.8.95-.45v8.45l.65.9 1.6 2.4q-.75 4.15-2.85 7.1H27l-.75 1.2-.6.1q-4.9.3-9.6-1.35-3.1 2.2-4.1 3.7l-.2.05-1.7.25 3.05-3.9q-3.3 1.1-7.65 3.75l-1.2.8M46.7.4l.85-.4L49 6.5q1.3 5.5-.35 9.65l1.15-.45-1.55 9.15-1.25 2.5 1.7.25-2.95 10.2-5.6 5.3-8.2 5.8-4.05-1.65 1.65-.7 2.15.35 6.9-3.8 3.05-3.2 2.7-2.8 1.35-6.25v-.45l.15-1.5-.7.45-2.6 1.5 2.5-3.5 1.5-2.1q.75-4.25.65-6.7l-.05-.8-1.6 1.35 1.2-2.95.05-.15.2-.5q1.4-4.2.75-6.7l.05-.3-.65-5.05L46.7.4M20.3 45.5l-4.9.6-3-.85 2-.65 2.8.1 3.5-1.05-.4 1.85m4.2-10.35.5-2.5 1.05-.6q3.85-2.15 5.8-1.6l3.65.9-3.45.1-.3.05q-2.65.4-5.7 2.1L25 36.7l-1.05 1 .55-2.55m22.65-17.4v-.05.05" fill="#632617"/><path d="m47.15 3.45.65 5.05-.05.3q.65 2.5-.75 6.7l.15-12.05m.05 15.1q.1 2.45-.65 6.7l-1.5 2.1 1-3.3 1.15-5.5M45.7 30.4v.45l-1.35 6.25-2.7 2.8 2.5-4.1 1.55-5.4" fill="#c0fdfd"/></g><g id="v" fill-rule="evenodd"><path d="m4.6 27.75-.8-3.35 5.15-5.6Q7.1 23.95 4.6 27.75m10.1 6.45.45 6-2-.8 1.55-5.2M9 36.65 6.95 32.9l3.6-6.7L9 36.65" fill="#07a1bf"/><path d="m4.6 27.75-.9 1.3-1.85-2.25.3-3.2.95 1.55.7-.75.8 3.35m2.35 5.15L9 36.65l-4.65-2.9 2.2-.1.4-.75" fill="#0efffa"/><path d="m15.95 40.8-.4 1.65-3.45-1.75.5-1.6.8-2.6 1.6-4.65.1.55.6 5.2.25 3.2m-8.7-9.95 4.15-8.05-1.35 10.7-.35 2.65-.15 1.1-5.15-1.8-.1-.05-3.35-3.1 2.3.35 1.45.2 1.45.2.2-.4.9-1.8M.7 20.4l1.55 2.35.9 1.35 1.45-1.6 4.65-5.15.35-.4q-.1 4.55-3.3 9.4L4.55 28.8l-.95 1.1-.55-.65-1.65-2-1.3-1.6q.15-2.45.6-5.25m3.1 4-.7.75-.95-1.55-.3 3.2 1.85 2.25.9-1.3q2.5-3.8 4.35-8.95L3.8 24.4m10.9 9.8-1.55 5.2 2 .8-.45-6M9 36.65l1.55-10.45-3.6 6.7-.4.75-2.2.1L9 36.65M31 5l-.15.3-1.5 1.9 3.15 1.55-4.25 4.65q-.6-1.3.85-4.45l-2.15.95.9-3.3.1-.3.9-1.75 2.15-1V5m-8.25 4.55-.15 1.65 2.2-.5-1.85 4.5-.2-.15-.4-.35-.65-1.55-.75.4-.25-.2 1.25-.95.8 1.95 1.2-3-1.9.35.3-1.6-1.75.9-.2.2v1.95l-.55-.45.1-1.1.15-1.75.8-.65 2.05-1.25-.2 1.6m6.95-.75-1.05 3.55 2.85-3.8-2.75-1.05.9-1.9-1.15.65-.8 2.85 1.45-.6.55.3" fill="#046898"/><path d="M6.2 11.5q3.9 1.95 8 4.5l-3.9-.8-1.05 2.15L4.6 22.5l1.6-11m14.65 26.1-2 4.2-2.9-1-.25-3.2 3.2 1.15 1.95-1.15m-10.8-4.1 3.35 3-.8 2.6-1.55-.95-1.35-2 .35-2.65m-3.7-.85-1.8-3.85 1.75-2.45v2.9l.95 1.6-.9 1.8" fill="#2c2342"/><path d="m2.25 22.75 2.1-12.2 1.85.95-1.6 11-1.45 1.6-.9-1.35m.8 6.5v.8l1.65 2.8-1.45-.2L2 31.35l-.6-4.1 1.65 2m6.5 8 .15-1.1 1.35 2-1.5-.9" fill="#8e7bd2"/><path d="m14.2 16 6.85 4.5q1.75 4.75 1.85 12.9l-2.05 4.2-1.95 1.15-3.2-1.15-.6-5.2-.1-.55-1.6 4.65-3.35-3 1.35-10.7-4.15 8.05-.95-1.6v-2.9q3.2-4.85 3.3-9.4l-.35.4 1.05-2.15 3.9.8" fill="#3d3660"/><path d="m11.1 12.85.95.5q5.45 2.95 9.65 7l.25.65q.95 2.75 1.35 8.1l.35 4.5-3.9 8.55-.35.35-1.1 1.25-2.75-1.3.4-1.65 2.9 1 2-4.2 2.05-4.2q-.1-8.15-1.85-12.9L14.2 16q-4.1-2.55-8-4.5l-1.85-.95-2.1 12.2L.7 20.4l.95-5.05.2.2.45-.85v-.45l.5.95 1.45-5.5 6.85 3.15" fill="#191527"/><path d="M11.9 9.55Q7.5 7.05 3.75 5.8q-1.05 4.65-1.35 8l-.1.45v.45l-.45.85-.2-.2-.9-1.1q.9-6.95 2.1-10.3 3.9 1.2 8.9 3.75L18 11.4l1.25.85.6.45.55.45.3.2.25.2 1.4 1.15.4.35.2.15q2.35 2 4.5 4.3l.2 1.8.05 1.2.1 2V28l-.25 3.05-.15 1-.5 2.9-.55 1.1-3 6.35-.25.45-1 2.1-3.8-1.2 1.1-1.25 2.65 1.1 3.2-7.15.85-2-.25-.8.65-6.2q.4-1.95.1-6.85l-5.05-4.65q-4.05-3-7.65-5.2l-2-1.2" fill="#503f72"/><path d="m3.75 5.8.6 2.75 6.75 4.3L4.25 9.7 2.8 15.2l-.5-.95.1-.45q.3-3.35 1.35-8M19.4 42.5l.35-.35 3.9-8.55-.35-4.5q-.4-5.35-1.35-8.1l1.1 2.1 1.6 9.85-.8 1.75-3.3 7.2 1.5 1.7-2.65-1.1m12.2-12.95 2.75 1.1-2.95 2-2.55-1.05 2.75-2.05" fill="#fff"/><path d="M13.9 10.75q3.6 2.2 7.65 5.2l5.05 4.65q.3 4.9-.1 6.85l-.55-6.5-12.05-10.2" fill="#c0fdfd"/><path d="m12.05 13.35-.15-3.8 2 1.2 12.05 10.2.55 6.5-.65 6.2.25.8-.85 2-1.4-1.75.8-1.75-1.6-9.85-1.1-2.1-.25-.65q-4.2-4.05-9.65-7M34.15 36q-.25 2.55-.8 4.4l-2.6 1.35.8-3.95v-.2l2.6-1.6m-5.3-4.4-1.3-.55.25-3.05 3.8 1.55-2.75 2.05" fill="#b4a7d2"/><path d="m11.1 12.85-6.75-4.3-.6-2.75Q7.5 7.05 11.9 9.55l.15 3.8-.95-.5m14.15 23.6-3.2 7.15-1.5-1.7 3.3-7.2 1.4 1.75m9.1-5.8-.2 5.2V36l-2.6 1.6.15-4.8-.3-.15 2.95-2" fill="#81789b"/><path d="m.95 32.3-.8-.75q-.3-2.65-.05-5.9l1.3 1.6.6 4.1 1.25 1.3-2.3-.35m11.15 8.4q-4.55-2.55-7.75-5.2l.05-.05 5.15 1.8 1.5.9 1.55.95-.5 1.6" fill="#161224"/><path d="m40.1.5 4.05 6.4-11.65 9.9q-3.05 3.85-4.85 4.5l-.2-1.8q-2.15-2.3-4.5-4.3l1.85-4.5-2.2.5.15-1.65L27.8 6.6h.05l-.9 3.3 2.15-.95q-1.45 3.15-.85 4.45l4.25-4.65-3.15-1.55 1.5-1.9.15-.2V5L40.1.5m-12.4 22 4.55-1.85-4.45 3.85-.1-2m-6.75-8.95.75-.4.65 1.55-1.4-1.15m-1-1.95-.1 1.1-.6-.45.7-.65" fill="#e88046"/><path d="m29.7 8.8-.55-.3-1.45.6.8-2.85 1.15-.65-.9 1.9 2.75 1.05-2.85 3.8L29.7 8.8m-9.3 4.35V11.2l.2-.2 1.75-.9-.3 1.6 1.9-.35-1.2 3-.8-1.95-1.25.95-.3-.2" fill="#0df8f6"/><path d="m48.7 27.85.2 1.7-7.55 6.6-1.8.8V35.1l-5.05 5.15.1-.85 5.5-6 .65 2.6 2.3-2.1 5.65-6.05m-18.9 15.5-.15.05q-2.95 1.05-4.55 1l-2-1.55.25-.45 2.55 1.4 4.15-1.6q1.4-5.1.95-9.1l-.8-.25-2.8-.8.15-1 1.3.55 2.55 1.05.3.15-.15 4.8v.2l-.8 3.95-.1.3-.75.65-.1.65M31 3.55 32.25 3l7.55-3 .3.5L31 5V3.55m-2.15 1-.9 1.75-.15.3-5.05 2.95.2-1.6q3.15-2 5.9-3.4m-8.9 7.05-.7.65L18 11.4l2.1-1.55-.15 1.75" fill="#632617"/><path d="M44.15 6.9 47 11.4l1.7 16.45-5.65 6.05-2.3 2.1-.65-2.6-5.5 6 1.1-9.5-7.9-3.2v-2.2l4.45-3.85-4.55 1.85-.05-1.2q1.8-.65 4.85-4.5l11.65-9.9M27.4 32.05l2.8.8-3.85 3.2.55-1.1.5-2.9" fill="#bb563f"/><path d="m34.5 40.25-.05.45-4.65 2.65.1-.65.75-.65.1-.3 2.6-1.35q.55-1.85.8-4.4v-.15l.2-5.2-2.75-1.1L27.8 28v-1.3l7.9 3.2-1.1 9.5-.1.85" fill="#503f71"/><path d="m30.2 32.85.8.25q.45 4-.95 9.1l-4.15 1.6-2.55-1.4 3-6.35 3.85-3.2" fill="#8c3722"/><path d="m4.7 32.85-1.65-2.8v-.8l.55.65.95-1.1 1.8 3.85-.2.4-1.45-.2" fill="#564e84"/></g><g id="f" transform="translate(.35 5.25)"><filter id="o"><feColorMatrix in="SourceGraphic" result="filterResult0" values="0 0 0 0 1.0,0 0 0 0 0.0,0 0 0 0 0.0,0 0 0 1 0"/><feConvolveMatrix divisor="100" in="filterResult0" kernelMatrix="1 1 1 1 1 1 1 1 1 1 1 1 1 1 1 1 1 1 1 1 1 1 1 1 1 1 1 1 1 1 1 1 1 1 1 1 1 1 1 1 1 1 1 1 1 1 1 1 1 1 1 1 1 1 1 1 1 1 1 1 1 1 1 1 1 1 1 1 1 1 1 1 1 1 1 1 1 1 1 1 1 1 1 1 1 1 1 1 1 1 1 1 1 1 1 1 1 1 1 1" order="10 10" result="filterResult1"/><feComposite in="SourceGraphic" in2="filterResult1" result="filterResult2"/></filter><use ffdec:characterId="12" filter="url(#o)" height="36.2" transform="translate(1.1 9.3)" width="63.9" xlink:href="#p"/><use ffdec:characterId="13" height="46.95" transform="translate(-.1 -.1)" width="75.6" xlink:href="#q"/></g><g id="q"><path d="m66.1 0-.25.95q0 .7.7.7l.8-.1q.65 0 .65.55 0 1.15-1.5 1.85l-2.35.45.9-.7.6-.85q0-.45-.45-.55-.5-.1-.55-.5-.05-.4.35-.8l1.1-1m6.5 5.9-.05-.1.45.4.25 1q.1.7-.3 1.35l-.4.9q0 .7 1.25.7t1.25.7q0 1-.8 2.05-.85 1.05-2.15 1.4l-1.85-.1q-.5-.45-.4-.95v.05l.55.45.85.2q1.25 0 1.25-.65 0-.4-1.25-.85Q70 12 70 11.5q0-.6 1.45-2.2 1.4-1.6 1.4-2.4l-.25-1m-9.5 9.4-.8 1.6-.95 1.1q2.65-.7 4.5-2.55 1.9-1.95 1.9-3.85l-.25-1.95-.35-.55q1.8 1.45 1.65 3.6-.15 2.3-1.05 3.6-.9 1.25-2.65 2.15l-3.6 1.75q-1.85.8-1.85 1.95-.05 1.1.95 1.45l1.65.05 1.05-1.05.25-.55.2 1.2q0 1.55-1.35 2.7-1.35 1.15-3.2 1.15-1.35 0-1.35-1l.2-1.25q0-.6-.7-.6-1.45 0-2.9 1.5-1.5 1.5-1.5 3.1 0 .5.35.85t.95.35q1.1 0 1.9-1l.6-1.25q0-.75-.3-.9L57.7 28q.55.85.55 1.8 0 2.45-3 4.4-3.05 2-6.9 2-2.1 0-2.1-1.35 0-1.15 1.35-2 1-.7 1.95-.75-.4-.25-.9-.25-1.85 0-5.3 2.35-3.95 2.7-5.2 3.05l-3.4.5q-2.2.1-3.9.9L28 39.85l-2.8.4-5.35-.15q-1.95.05-3.05.45l-.65.25-.3.2h-.1q-.4.05-1.7 1l-1.45 1.15h.4l1.55-.4h.05l-1.95 1.9-1.6 1.3-.45-.3.6-.3 1.2-1.15.15-.2.05-.1-.8.1v-.2q-.6-.8 1.9-2.5 2.5-1.75 5.2-1.85l5.6-.3h.15Q27.45 39 29.6 38q2.2-1.05 3.6-1.1 1.4-.05 5.65-1.6l3.35-2.45.85-.65q3.45-1.8 5.65-1.8 2.7 0 2.7 1.5 0 .55-.8 1.3l-1.2 1.2 3.2-1.15q1.55-.65 2-1.85h-.1l-.8.2q-2.3.1-2.3-2.2 0-2.1 1.8-5.1l.2-.3q1.95-.3 2.85-2.4-1.15 1.2-2.15 1.4 1.9-2.45 4.4-2.6l-2-.35 2.5-.6 3.25-.5q1.25-.35 3.25-2-1.95 1.25-4.95 1.85l-4.6.95-.6.2-.55-.05-1.3.2h-.05q-5.5 0-8.95 2.2l.4-1.5-1.8 1.05-1.75.45q-1.25 0-3.5-1.05-2.2-1.05-5.45-1.05l-2.2.35q-.4.25-1 1.45l-1.3 1.8-1.65.75-1.1.15-.05-.1q-1.15-.05-3.8-2.7-.1 1.2-2.4 2.4l-2.3 1-.85.35-1.8.8q-7.15 3.2-7.15 7.7l.3 2.95-.05.65-.65 1.2-1.45 1.25Q2.8 41.65 2.8 43.75q0 1.4.25 2.15l.4.85q-.65-.2-1.35-.6-1.6-1-2-2.75-.4-1.75.7-3.35 1.1-1.65 2.9-2.25 1.8-.65 1.6-2.75-.3-2.7 1.3-5.2 1.5-2.3 3.75-3.1 8.6-3.2 10.55-6.25.65-1.05 1.85-2.2 1.2-1.15 2.5-1.95 1.25-.85 3.8-1.2-2.25.5-3.6 2.1-1.4 1.6-1.5 3.3-.1 1.7 1 1.7.8 0 1.8-.7l1-.9v-.3l-1.9.85v-.35q1.3-1.55 2.9-2.55 1.55-1.05 4.35-1.1 2.8-.05 4.7 1.95 1.9 2.05 3.1 1.85 1.2-.2 1.7-.85l.45-1.15q-.05-.55-.85-.65-.8-.05-.8-.4 0-.35 1.2-.8 1.2-.5 2.2-.65l1.8-.3 1.1-.1h.1q1.8-.05 1.8.4l-.1.6-.7.6q.25-.5-.2-.7h-.25q-.95.35-1.35.7-.45.45-.45 1.3v.4q.5-.65 1.25-.9 1.55-.55 2.8-.6l3.25.2 3.1.2 2.85-.6q2.15-.7 3.3-2.4m-16.55 4.1q-.5.6-.7 1.6.2-1 .7-1.6m4.05 13.2q-.05-.55-.75-.55l-.3.05.3-.05q.7 0 .75.55" fill="#f82206" fill-rule="evenodd" transform="translate(.1 .1)"/><path d="m15.75 25.65.85-.35 2.3-1q2.3-1.2 2.4-2.4 2.65 2.65 3.8 2.7l.05.1 1.1-.15 1.65-.75 1.3-1.8q.6-1.2 1-1.45l2.2-.35q3.25 0 5.45 1.05 2.25 1.05 3.5 1.05l1.75-.45 1.8-1.05-.4 1.5q3.45-2.2 8.95-2.2h.05l1.3-.2.55.05q-1.3.35-2.55 1.05l-1.75 1.25-1.15.65-1.1-.05q-.55.05-1.4.5 1.8-.1 1.8.6 0 .5-.45.65l-.75.25q-.8.3-1.8 1.1l-1.15.8-1.1.65-2.15.45q-2.1 0-2.1-1.05 0-.7.8-1.45.95-.95 2.4-.95l.55.15.3.3-.4.55-.6.6h.05q1.95-.45 1.95-1.65 0-.65-.75-.9l-2.3-.25q-3.85 0-5.85 1.4 0-.85-.35-1.55-.65-1.2-2.25-1.2l-1.35.2q1.65.1 2.3.85.5.6.5 1.85l-.75.8-1.65.45-1.05-.1-1.1-.15q-1.35 0-2.1 1.15-.8 1.15-1.35 1.15l-.4-.05-.6-.05-1.25.3-.15.05-1.1.2h-.05q-1.5 0-1.5-.9 0-1.5 1.2-2.45h-.75q-2.95.7-6.7 4.6l-1.2.9q.2-2.6 1.05-4.2l.5-.8m15.95-1.1q-1.15.7-1.8.8l2.3-.35q1.15-.45 1.15-1.2l-.4-.65q.05.55-1.25 1.4m-1.8.8h-.05.05" fill="#fc7800" fill-rule="evenodd" transform="translate(.1 .1)"/><path d="m53.4 24-.2.3q-1.8 3-1.8 5.1 0 2.3 2.3 2.2l.8-.2h.1q-.45 1.2-2 1.85l-3.2 1.15 1.2-1.2q.8-.75.8-1.3 0-1.5-2.7-1.5-2.2 0-5.65 1.8l-.85.65q1.55-1.7 3.35-3.1 3.15-2.45 3.7-3.35l-1.6.65V27q.15-1.05 1.6-2.1 1.3-.95 1.9-.95l1.6.1.65-.05" fill="#ff4f01" fill-rule="evenodd" transform="translate(.1 .1)"/><path d="m56.5 20.05 2 .35q-2.5.15-4.4 2.6l-.35.05H52.2v-.1q.8-1.35 2.95-2.4l1.35-.5" fill="#ff3400" fill-rule="evenodd" transform="translate(.1 .1)"/><path d="m55.35 19.95.6-.2 4.6-.95q3-.6 4.95-1.85-2 1.65-3.25 2l-3.25.5-2.5.6-1.35.5Q53 21.6 52.2 22.95v.1h1.55l.35-.05q1-.2 2.15-1.4-.9 2.1-2.85 2.4l-.65.05-1.6-.1q-.6 0-1.9.95-1.45 1.05-1.6 2.1v.05l1.6-.65q-.55.9-3.7 3.35-1.8 1.4-3.35 3.1l-3.35 2.45q-4.25 1.55-5.65 1.6-1.4.05-3.6 1.1-2.15 1-4.95 1.15-.6-.4-.6-1.15 0-.65 1.3-1.1l2.3-.8 1.8-1.25 1.05-.95.8-.75-.5 1.15-.7 1-.95.85h.05L32.15 35q1.3-.75 1.3-1.8l-.15-.9q.85-.25 1.4-1.35.45-.8.5-1.55l1.4-.85q2.2-1.5 2.55-3.55l.05.95-.1 1.55q-.15.75-.85 1.35 5.2-.4 6.8-2.1l1.15-.8q1-.8 1.8-1.1l.75-.25q.45-.15.45-.65 0-.7-1.8-.6.85-.45 1.4-.5l1.1.05 1.15-.65L52.8 21q1.25-.7 2.55-1.05" fill="#fc9700" fill-rule="evenodd" transform="translate(.1 .1)"/><path d="m26.3 28 .4.05q.55 0 1.35-1.15.75-1.15 2.1-1.15l1.1.15 1.05.1 1.65-.45.75-.8q0-1.25-.5-1.85-.65-.75-2.3-.85l1.35-.2q1.6 0 2.25 1.2.35.7.35 1.55 2-1.4 5.85-1.4l2.3.25q.75.25.75.9 0 1.2-1.95 1.65h-.05l.6-.6.4-.55-.3-.3-.55-.15q-1.45 0-2.4.95-.8.75-.8 1.45 0 1.05 2.1 1.05l2.15-.45 1.1-.65q-1.6 1.7-6.8 2.1.7-.6.85-1.35l.1-1.55-.05-.95q-.35 2.05-2.55 3.55l-1.4.85-1.7.5q.25-.75-.35-1.15-.6-.45-1.75-.45-1.85 0-4.15 1.9l-.35-1.45-.6-.75" fill="#ffe700" fill-rule="evenodd" transform="translate(.1 .1)"/><path d="M24.65 39.15h-.15l-5.6.3q-2.7.1-5.2 1.85-2.5 1.7-1.9 2.5v.2l.8-.1-.05.1-.15.2-.8.3-.8.5q-.15-.3-.15-1.9 0-1.65.8-3.65.75-1.95 2.7-3.35-1.55.15-3.1 2.3-1.65 2.3-1.65 4.65 0 1.2.8 2.15l.4.45-1.35.15-1.9-.2H7.3q-.35-.65-.35-2 0-2.5 1.4-4.7 1.35-2.15 4.7-5.05V34l-.25 1.35v.4h.05q-.05-.8 1.3-2.2l1.3-1.25q2.65-2.3 4.2-2.3l.95.2.6.45q.9-1.65 1.95-2.15h.05l1.1-.2.15-.05 1.25-.3.6.05.6.75.35 1.45q2.3-1.9 4.15-1.9 1.15 0 1.75.45.6.4.35 1.15l1.7-.5q-.05.75-.5 1.55-.55 1.1-1.4 1.35l.15.9q0 1.05-1.3 1.8l-2.95 1.15h-.05l.95-.85.7-1 .5-1.15-.8.75-1.05.95-1.8 1.25-2.3.8q-1.3.45-1.3 1.1 0 .75.6 1.15m7.05-14.6q1.3-.85 1.25-1.4l.4.65q0 .75-1.15 1.2l-2.3.35q.65-.1 1.8-.8" fill="#fffc11" fill-rule="evenodd" transform="translate(.1 .1)"/><path d="m5.5 46.45-.6.2q-.3-.8-.3-1.55 0-2.45 1.65-5.85l.15-.3.65-1.2q1-1.85 2.3-3.55.85-1.15 2.95-2.4l1.9-1.15 1.2-.9q3.75-3.9 6.7-4.6h.75q-1.2.95-1.2 2.45 0 .9 1.5.9-1.05.5-1.95 2.15l-.6-.45-.95-.2q-1.55 0-4.2 2.3l-1.3 1.25q-1.35 1.4-1.3 2.2h-.05v-.4l.25-1.35v-.15q-3.35 2.9-4.7 5.05-1.4 2.2-1.4 4.7 0 1.35.35 2-1.1 0-1.8.85" fill="#ffe103" fill-rule="evenodd" transform="translate(.1 .1)"/><path d="m11.05 45.95-1.4.65-1.6.1-.75-.2-1.8-.05q.7-.85 1.8-.85h.05l1.9.2 1.35-.15.45.3m1.35-1.75-1.2 1.15-.6.3-.4-.45q-.8-.95-.8-2.15 0-2.35 1.65-4.65 1.55-2.15 3.1-2.3-1.95 1.4-2.7 3.35-.8 2-.8 3.65 0 1.6.15 1.9l.8-.5.8-.3" fill="#fdc204" fill-rule="evenodd" transform="translate(.1 .1)"/><path d="m15.75 25.65-.5.8q-.85 1.6-1.05 4.2l-1.9 1.15q-2.1 1.25-2.95 2.4-1.3 1.7-2.3 3.55l.05-.65-.3-2.95q0-4.5 7.15-7.7l1.8-.8M12.4 29q-1.05-.25-2.7 1.95-1.6 2.2-1.6 3.6v.2q.35-.8 1.25-2.05l1.45-1.65.9-1 .7-1.05" fill="#f57305" fill-rule="evenodd" transform="translate(.1 .1)"/><path d="m4.9 46.65-1.45.1-.4-.85q-.25-.75-.25-2.15 0-2.1 2.15-3.55l1.45-1.25-.15.3Q4.6 42.65 4.6 45.1q0 .75.3 1.55" fill="#f77807" fill-rule="evenodd" transform="translate(.1 .1)"/><path d="m12.4 29-.7 1.05-.9 1-1.45 1.65q-.9 1.25-1.25 2.05v-.2q0-1.4 1.6-3.6 1.65-2.2 2.7-1.95" fill="#ffca0c" fill-rule="evenodd" transform="translate(.1 .1)"/><path d="m72.7 6 .25 1q0 .8-1.4 2.4-1.45 1.6-1.45 2.2 0 .5 1.25.95 1.25.45 1.25.85 0 .65-1.25.65l-.85-.2-.55-.45v-.05q-.1.5.4.95l1.85.1q1.3-.35 2.15-1.4.8-1.05.8-2.05 0-.7-1.25-.7t-1.25-.7l.4-.9q.4-.65.3-1.35l-.25-1-.45-.4.05.1M66.2.1l-1.1 1q-.4.4-.35.8.05.4.55.5.45.1.45.55l-.6.85-.9.7 2.35-.45q1.5-.7 1.5-1.85 0-.55-.65-.55l-.8.1q-.7 0-.7-.7L66.2.1m-3 15.3-.8 1.6-.95 1.1q2.65-.7 4.5-2.55 1.9-1.95 1.9-3.85l-.25-1.95-.35-.55q1.8 1.45 1.65 3.6-.15 2.3-1.05 3.6-.9 1.25-2.65 2.15l-3.6 1.75q-1.85.8-1.85 1.95-.05 1.1.95 1.45l1.65.05 1.05-1.05.25-.55.2 1.2q0 1.55-1.35 2.7-1.35 1.15-3.2 1.15-1.35 0-1.35-1l.2-1.25q0-.6-.7-.6-1.45 0-2.9 1.5-1.5 1.5-1.5 3.1 0 .5.35.85t.95.35q1.1 0 1.9-1l.6-1.25q0-.75-.3-.9l1.25 1.1q.55.85.55 1.8 0 2.45-3 4.4-3.05 2-6.9 2-2.1 0-2.1-1.35 0-1.15 1.35-2 1-.7 1.95-.75-.4-.25-.9-.25-1.85 0-5.3 2.35-3.95 2.7-5.2 3.05l-3.4.5q-2.2.1-3.9.9l-2.85 1.2-2.8.4-5.35-.15q-1.95.05-3.05.45l-.65.25-.3.2h-.1q-.4.05-1.7 1l-1.45 1.15h.4l1.55-.4h.05l-1.95 1.9-1.6 1.3-1.4.65-1.6.1-.75-.2-1.8-.05-.6.2-1.45.1q-.65-.2-1.35-.6-1.6-1-2-2.75-.4-1.75.7-3.35Q2 38.5 3.8 37.9q1.8-.65 1.6-2.75-.3-2.7 1.3-5.2 1.5-2.3 3.75-3.1 8.6-3.2 10.55-6.25.65-1.05 1.85-2.2 1.2-1.15 2.5-1.95 1.25-.85 3.8-1.2-2.25.5-3.6 2.1-1.4 1.6-1.5 3.3-.1 1.7 1 1.7.8 0 1.8-.7l1-.9v-.3l-1.9.85v-.35q1.3-1.55 2.9-2.55 1.55-1.05 4.35-1.1 2.8-.05 4.7 1.95 1.9 2.05 3.1 1.85 1.2-.2 1.7-.85l.45-1.15q-.05-.55-.85-.65-.8-.05-.8-.4 0-.35 1.2-.8 1.2-.5 2.2-.65l1.8-.3 1.1-.1h.05l.05-.05v.05q1.8-.05 1.8.4l-.1.6-.7.6q.25-.5-.2-.7h-.25q-.95.35-1.35.7-.45.45-.45 1.3v.4q.5-.65 1.25-.9 1.55-.55 2.8-.6l3.25.2 3.1.2 2.85-.6q2.15-.7 3.3-2.4l.1-.4.05-.65M47.9 16.2h-.05m-1.9 4.9q.2-1 .7-1.6m3 12.7.3-.05q.7 0 .75.55" fill="none" stroke="#ff6" stroke-linejoin="miter-clip" stroke-miterlimit="3" stroke-width=".2"/><path d="M74.05 25.05q1.35.5 1.35 1.2l-.35.9q-.4.55-.85.55l-.4-.05-.15-1q0-.65.95-.35l.15.05-.7-.65v-.65" fill="#f82206" fill-rule="evenodd" transform="translate(.1 .1)"/><path d="M74.15 25.15q1.35.5 1.35 1.2l-.35.9q-.4.55-.85.55l-.4-.05-.15-1q0-.65.95-.35l.15.05-.7-.65v-.65z" fill="none" stroke="#ff6" stroke-linejoin="miter-clip" stroke-miterlimit="3" stroke-width=".2"/></g><g id="x" fill-rule="evenodd"><path d="m52.3 18.2-.9.9-.5-1.8 1-2.45.3 1.55.65-.25-.55 2.05m-1.8 8.85-1.5-1.8.7-3.3 1.15 2.2-.35 2.9m-.65 11.85.2-.95.25-.15.85.85-1.3.25m1.4-2.2-.85-.75-1.3-3.9 2.2 2.35-.05 2.3" fill="#0efffa"/><path d="M52.85 16.15q1.3-.6 2.6-1.15l-3.15 3.2.55-2.05m-2 8 5.05-3-4.75 6.7-.65-.8.35-2.9M53.5 40.3v.75l1.7.8 1 3.45q-1.2-.95-2.4-3.4l-2.05.3-.65-2.75h-1.4l.15-.55 1.3-.25q1.05.95 2.25 1.6l.1.05m-8 3.65.55-1.7 1.65-.45.6 1.65.8.5-.2.6-1.75-.85-1.65.25m5.8-9.55 3.1-2.3-2.4 5.25-.75-.65.05-2.3" fill="#07a1bf"/><path d="m44.05 44.45.35-1.95 2.05-1.1 1.55-.55.35.9.65 1.8h.8l-.6 1.9-2.35-1h-2.8m4.65-9.1-.15-.35q-1.05-2.7-1.05-6.5l1.5 1.75 2.25 3.45.6-.4 3.1-2.2.25-.2-.25 1.05-2 4.55-.85 1.5-3.4-2.65m-.85-10.9-.15-.25v-.05q.55-2.95 1.3-5.4l.95 2.15 1.15 2.6 2.7-1.7 3.55-2.15-3.5 5.45-2.65 3.7q-1.4-1.1-2.45-2.75l-.9-1.6m2.2-8.7q1-3.05 2-4.45l.25 2 .2 2.05.05.3 1.65-.55 2.8-.95-2.7 2.75-2.7 2.75-.4.4-.6-2.15-.55-2.15m2.8.4-.65.25-.3-1.55-1 2.45.5 1.8.9-.9 3.15-3.2q-1.3.55-2.6 1.15m-2 8-1.15-2.2-.7 3.3 1.5 1.8.65.8 4.75-6.7-5.05 3m-1.25 14.1.45-.3-.2.95-.15.55h1.4l.65 2.75 2.05-.3q1.2 2.45 2.4 3.4l-1-3.45-1.7-.8v-.75l.4.2.25.5 1.85.6q-.3 2.75 1.15 4.75-2.5-1-3.85-3.95l-1.8.55q-.65-.55-1.05-3.1h-1.4l.55-1.6m-4.1 5.7 1.65-.25 1.75.85.2-.6-.8-.5-.6-1.65-1.65.45-.55 1.7m5.8-9.55-2.2-2.35 1.3 3.9.85.75.75.65 2.4-5.25-3.1 2.3" fill="#046898"/><path d="M54.15 10.15 55.5 7.8l.15.25-1.45 7.05-1.65.55-.05-.3 1.65-5.2m4.7 27.6q-1.25 1.8-2.45 2.55l-1.95-.5-1.5-3.3 2-4.55q2.1 4.05 3.9 5.8m-7.25-18.1 2.7-2.75-.5 4.9-2.7 1.7.5-3.85m-.4 9.15 2.65-3.7 1.1 6-3.1 2.2-.65-4.5" fill="#2c2342"/><path d="M55.65 8.05q2.35 3.45 4.7 8.65-2.5 4.25-2.6 10.15l.05.45-.1 2.6-.35 2.45q.7 2.75 1.95 3.6l-.45 1.8q-1.8-1.75-3.9-5.8l.25-1.05-.25.2-1.1-6 3.5-5.45-3.55 2.15.5-4.9 2.7-2.75-2.8.95 1.45-7.05" fill="#3d3660"/><path d="m49.65 36.95-.65-1-.3-.6L52.1 38q.9 1.2 2.35 1.8l1.95.5q1.2-.75 2.45-2.55l1.25-2.15q-1.2-.5-2.25-3.25-.15-1-.15-2.45l.1-2.6-.05-.45q.1-5.9 2.6-10.15-2.35-5.2-4.7-8.65l-.15-.25-1.35 2.35-1.85 3.15-.25-2 .2-.4q1.65-3.4 3.3-4.75L57.7 9.3l.45.9L60.4 15l.8 2.1q-2.15 1.8-2.95 10.2l.05.3q-.15 3.5.2 5.3l.7 1.05q.8 1 1.5 1-.4 4-4.3 6.3l-.1.05-2.4-.8-.4-.2-.1-.05q-1.2-.65-2.25-1.6l-.85-.85-.65-.85M47.5 28.5l.25-4 .1-.05.9 1.6.25 4.2-1.5-1.75m1.5-9.75 1.05-3 .55 2.15-.65 3-.95-2.15" fill="#161224"/><path d="m74.75 37.05.3 3.45-7.2 7.35 6.9-10.8M55.4 60.15l-.55-.45.75-2.05-.2 2.5m2.3-30.25q0 1.45.15 2.45 1.05 2.75 2.25 3.25l-1.25 2.15.45-1.8q-1.25-.85-1.95-3.6l.35-2.45M44.75 45.95v-.6q.45-.25.85-.45l-.85 1.05M66.1 48.7l-2.7 3.45Q60.75 54.7 58.5 56l7.6-7.3" fill="#c0fdfd"/><path d="m71.7 6.15 1.5 13.1q-6.55 4-11.3 9.7L61 27.1q-1.85 1.9-2.5 5.8-.35-1.8-.2-5.3l-.05-.3q.8-8.4 2.95-10.2l-.8-2.1q5.15-5.5 11.3-8.85" fill="#573798"/><path d="m71.15 1.4.55 4.75Q65.55 9.5 60.4 15l-2.25-4.8.15-.45L69.55 2.2l1.6-.8" fill="#845fea"/><path d="M58.3 9.75q1.3-2.95 7.15-5.55l4.1-2L58.3 9.75" fill="#fff"/><path d="M57.7 9.3q.9-2.3 6.6-5.75L71 0l.15 1.4-1.6.8-4.1 2Q59.6 6.8 58.3 9.75l-.15.45-.45-.9" fill="#3e2869"/><path d="M50.05 39.85h.4q.4 2.55 1.05 3.1l1.8-.55q1.35 2.95 3.85 3.95-1.45-2-1.15-4.75l-1.85-.6-.25-.5 2.4.8.1-.05q3.9-2.3 4.3-6.3-.7 0-1.5-1 0-.95.35-2.2 4.05-2.65 6.85.45 1.85 6-.3 9.2-1.85 2.4-3.35 3.15 1.45-.35 2.95-1.45l2.9-2.75.95-1-1.95 3.25q-2.15 4-7.7 6.4-6.3 1.05-9.15-3.6-.95-2.75-.7-5.55" fill="#e88046"/><path d="m73.25 20 1.1 11.3-4.8 8.05-.95 1-2.9 2.75q.85-1.05 1.85-4.15l3.05-16.9L73.25 20m1.3 14.15.2 2.9-6.9 10.8-.55.5-.4-1.25-.8 1.6-7.6 7.3q-1.5.9-2.9 1.2v.45l-.75 2.05-2.2-1.6.25-1.35q-2.1-1.2-1.7-3.2.7 1.75 3.6 1.9 7.25-3.2 11.35-8.4l8.4-12.9M43.95 48.7l-.65-.75 2.1-1.55 1.05-1.35-.55 1.7-1.95 1.95m5.65-10.45-.55 1.6h1l-1.7 1.9-.35-.9-1.55.55q1.25-1.9 3.15-3.15" fill="#8c3722"/><path d="m73.2 19.25.05.75-2.65 2.05q-5.05 4-9 7.95l-.75-1.55q-.9 1.8-1.3 3.3-.35 1.25-.35 2.2l-.7-1.05q.65-3.9 2.5-5.8l.9 1.85q4.75-5.7 11.3-9.7m1.85 21.25.1 1.75-5.35 5.2-3.1 4.05-.35-.9-.6.75Q61.5 56.4 56.8 58.7q-.05 1.5-.65 2l-.75-.55.2-2.5v-.45q1.4-.3 2.9-1.2 2.25-1.3 4.9-3.85l2.7-3.45.8-1.6.4 1.25.55-.5 7.2-7.35m-30.65 2q2.3-4.1 5.25-5.55l.65.85-.25.15-.45.3q-1.9 1.25-3.15 3.15l-2.05 1.1" fill="#632617"/><path d="m43.3 47.95-.75-.9 1.4-.5.25-.65-.15-1.45h2.8l-.4.6-1.05 1.35-2.1 1.55m1.45-2 .85-1.05q-.4.2-.85.45v.6" fill="#672818"/><path d="m74.35 31.3.2 2.85-8.4 12.9q-4.1 5.2-11.35 8.4-2.9-.15-3.6-1.9-.4 2 1.7 3.2l-.25 1.35-1.95-1.45-1.45-1.7q2-1.2 2.35-3.1.7-4.5-2.85-6.1 2.1 5.35-1 7.45l-3.8-4.5 1.95-1.95.55-1.7.4-.6 2.35 1 .6-1.9H49l-.65-1.8 1.7-1.9q-.25 2.8.7 5.55 2.85 4.65 9.15 3.6 5.55-2.4 7.7-6.4l1.95-3.25 4.8-8.05M65.7 43.1q-1.5 1.1-2.95 1.45 1.5-.75 3.35-3.15 2.15-3.2.3-9.2-2.8-3.1-6.85-.45.4-1.5 1.3-3.3L61.6 30q3.95-3.95 9-7.95l-3.05 16.9q-1 3.1-1.85 4.15" fill="#bb563f"/><path d="m48.85 54.5-.7-.8.6-.5q2.35-2.4 1.4-5.85 1.55 2.7.3 5.65l-1.6 1.5" fill="#e4470c"/><path d="m49.25 54.95-.4-.45 1.6-1.5q1.25-2.95-.3-5.65.95 3.45-1.4 5.85l-.6.5-.4-.5q3.1-2.1 1-7.45 3.55 1.6 2.85 6.1-.35 1.9-2.35 3.1" fill="#a82806"/><path d="m52.3 13.3 1.85-3.15-1.65 5.2-.2-2.05m2.15 26.5Q53 39.2 52.1 38l.85-1.5 1.5 3.3M50.6 17.9l.6 2.15.4-.4-.5 3.85-1.15-2.6.65-3m-1.85 8.15q1.05 1.65 2.45 2.75l.65 4.5-.6.4L49 30.25l-.25-4.2" fill="#564e84"/><path d="m45 47.75-3.2.95-6-.9 5.1-1.45v1.75q1.7.5 3.35-1.05l.75.7M11 60.5q-.2 2.25-.8 3.1-2.3 4.75-6.4 4.55-.25-1.75.2-3.9 2.55-3.05 5.4-4.8L11 60.5m20.15 24.7q-2.6-.9-2.9-3.85l.25-4.3q3.5-3.85 7 .95 1.2 3.1 1.3 4.25-2.35.2-4.6 1.5l-1.05 1.45m18.1-30.3-.45 1.6-.9-.1q.05-1.05 1.35-1.5m-1.1 4.8q-1.7 3.2-5.75 6.5-4.55 2.2-8.8 1.45 2.25-2.85 2.1-5.7l-.5-1.7.25.5 1.3-1.3.25 2.35q1.8 1.95 4.2 2.4l-1.9-4.1-.95.25q-.4-2.95.35-3.85l-1.95.45-.2-4.85 3.4-2.2q3.8-1.8 7.6 1.8l.65 1.2q-.95.95-2.2 1.45-1.4-2.35-1.5-3.95l-2.8.25-2.85 1.65 1.75 1.3 2.1-.4.8 1.8.8.4q-2.9 2.4-3.25 5.85 1.1-1.6 4.5-2.45.95-.1 1.45.8l.95-.25.2.35M7.8 73.35l.25.1 2.4-.5q.5 2.65-2.1 4.3L7.5 77l-1.1-2.65 1.4-1" fill="#e88046"/><path d="m35.8 47.8 6 .9 3.2-.95 4.05 4.05-.85 1.1-.65-1.2q-3.8-3.6-7.6-1.8l-3.4 2.2-.1-.95-3.95 3.2 2.7 5.9.5 1.7q.15 2.85-2.1 5.7 4.25.75 8.8-1.45 4.05-3.3 5.75-6.5l.9 1.75q.85-.35.25-3.2l.8-1.4v-.75l-1.3.4.45-1.6 1.55-1.4 2 2 .05 1.25q-.3 6.75-4.2 10.75l-6.1.75 3.65-2.9q-5.2 1.8-7.85 4.7l-.15-.45q-.25.25-.25.85l-.75 1.9q-.05 4.65 1.4 6.55l-1.2 3.35h-.6q-.1-1.15-1.3-4.25-3.5-4.8-7-.95l-.25 4.3q.3 2.95 2.9 3.85l-.75.95-.05-.05q-2.9-1.25-2.95-4.8l.3-3.3-.75-.85-1.2-2.5q-1.65-1.4-2.8-1.55-3.1.35-5.85-1.4-3.05-2.2-5.2-2.35l-1.75 1.2q-1.7 2-4.75 1-1.35-1.35-1.6-3.4 4.1.2 6.4-4.55.6-.85.8-3.1 1.85.95 4.05 1.3l1.45-.6q14.65-6.1 13.35-11.65l5.95-1.75M10.45 72.95q1.2-.4 2.35-1.15l1.1 1.35-2.8 3.9-2.55.3-.2-.1q2.6-1.65 2.1-4.3m7.75 4.55h-.25q-1.65-.65-2.1-2.5l3 .1-.65 2.4" fill="#bb563f"/><path d="M5.4 71.55q3.05 1 4.75-1l1.75-1.2q2.15.15 5.2 2.35 2.75 1.75 5.85 1.4 1.15.15 2.8 1.55l1.2 2.5-2.85-3q-3.7-.7-6.4 0-2.45-1.05-4.1-3.15l-1.4.25Q9.3 72.4 6.6 72.3q-.65-.25-1.2-.75m32 10.7 1.2-3.35q-1.45-1.9-1.4-6.55l.75-1.9.15 1.5.05.2.35 2.85 1.2 2.9q1.05 5-.45 5.85l-.7-1.45-1.15-.05m.95-12.2q2.65-2.9 7.85-4.7l-3.65 2.9 6.1-.75q3.9-4 4.2-10.75l-.05-1.25 2.85 2.8v1.8l-1.3-.8-.1 1.6q-2.3 5.85-6.95 9l-7.6 3.5q-.85-1.6-1.35-3.35m-24.45 3.1 1.05 1.15v.05q-2.35 2.3-2.45 3l-1.6.7-2.35-.7 2.55-.3 2.8-3.9m4.95 1.95h.05l3.25-.35-.75 2.4-3.2.35.65-2.4" fill="#8c3722"/><path d="M44.25 47.05Q42.6 48.6 40.9 48.1v-1.75l-5.1 1.45-5.95 1.75q1.3 5.55-13.35 11.65l-1.45.6q-2.2-.35-4.05-1.3l-1.6-1.05Q6.55 61.2 4 64.25q-.45 2.15-.2 3.9.25 2.05 1.6 3.4.55.5 1.2.75 2.2.85 5.6-1.05l1.4-.25q1.65 2.1 4.1 3.15 2.7-.7 6.4 0l2.85 3 .75.85-.3 3.3q.05 3.55 2.95 4.8l-.05.2-.15.65-.1.25-3-2.35q-1.7-1.65-.7-6.75l-2.6-2.05-.3 1.3-.55.7-1.6-.1-.75.1-1.25.3-.4-.05-.65-.15q-.9-.2-1.15-.65l-.6-.4-1.15-.65-.3-.2-1.35 1.85q-1.55 1.75-2.65 1.4l-.45-.3-1.5-1.1-.35-.1-1.5-.55-.5-.6q-.45-.8-.6-2.3l.25-.2L7.5 77l.85.25.2.1 2.35.7 1.1.3 3.2-3.75-.25-.25v-.05l-1.05-1.15-1.1-1.35q-1.15.75-2.35 1.15l-2.4.5-.25-.1-1.05-.4-1-.4-.85-.65-.8-1q-.7-1.25-.95-3.05l-.15-.2-.65-.7q-.15-1.15.7-3.05 2.85-4.1 6.35-5.95l3.75 1.8L14.8 61h1.4l-.5-.35q14.25-5.7 13.2-11.4l12.65-4.15v2.3l2.3-.7.4.35m-6.3 23.4q0-.6.25-.85l.15.45q.5 1.75 1.35 3.35l7.6-3.5 2.7-1.25 2.6-3.3q1.3-1.4 1.65-4.45l.1-1.6 1.3.8v-1.8l1 1.05q-.15 1.8-1.05 1.8-1.5 5.1-4.35 8.15L40.3 74.55l1.45 2.2q.95 5.45-1.05 8.3l-1.1 1 .1-1.3-.15-.4q1.9-1.95.85-6.95l-1.3-2.55-.95-2.7-.05-.2-.15-1.5m-15.8 4.3-3.25.35h-.05l-3-.1q.45 1.85 2.1 2.5h.25l3.2-.35.55-.05.75-1.9-.55-.45" fill="#632617"/><path d="M2.15 75.9q-.1-.9.85-3.65l1.1-1.35.8 1-1.85 2.2-.9 1.8m4.6.95.5.6 1.5.55Q6.9 80.5 7.2 81.1l-.45.75-.15-.15.15-4.85m11.5 1.3.65.15.4.05 1.25-.3q-1.4 1.75-1.8 3.9l-.25-.25q-.55-.85-.25-3.55m16.05 5.3 1.15-.3q1.1 2.1.55 3.45-.9 3.35-2.35 4.2 2.55-3.9.65-7.35" fill="#81789b"/><path d="m1.85 76.6.3-.7.9-1.8 1.85-2.2.85.65 1 .4q-3.55 1.95-4.7 4.1l-.2-.45m4.3-2.05q.15 1.5.6 2.3L6.6 81.7q-1.7-2.1-1.7-6.25l1.25-.9M16.5 77.1l.6.4q.25.45 1.15.65-.3 2.7.25 3.55-1.7-1.8-2-4.6m18.95 6.05 2.85-.55q-.65 4.3-2.25 6.85-1.6 1.75-3.4 2.65l1-1.3q1.45-.85 2.35-4.2.55-1.35-.55-3.45" fill="#b4a7d2"/><path d="m3 67.65.15.2q.25 1.8.95 3.05L3 72.25Q2.05 75 2.15 75.9l-.3.7q-.9-2.25.2-7.05l.95-1.9M32.65 92.1l-.1.05-1.6.55q1.3-1.5.7-5.95l.9-2.7q.7-.35 1.75-.6 1.9 3.45-.65 7.35l-1 1.3" fill="#fff"/><path d="m30.4 86.15.75-.95 1.05-1.45q2.25-1.3 4.6-1.5h.6l1.15.05.7 1.45.3.6.15.4-.1 1.3-.05.25q-.9 3.4-5.35 6.3-2.95 2.25-5.3 1.05 1.65-2.35 1.25-6.7l.15-.65.1-.15M3 67.65l-.95 1.9q-1.1 4.8-.2 7.05l.2.45q1.15-2.15 4.7-4.1l1.05.4-1.4 1-.25.2-1.25.9q0 4.15 1.7 6.25l.15.15.45-.75 1.9-3 1.5 1.1h-.85Q7.6 82 7.15 83.8l-1.6-1.45Q3.9 81.2 3.65 77.4L2.55 79Q.9 78.35 0 75q0-5.35 2.35-8.05l.65.7m12.35 8.8 1.15.65q.3 2.8 2 4.6l.25.25.25.25q.55-2.9 2.3-4.25l1.6.1-1.15 1.1q-1.6 2.95-1.5 5.25-1.35-.25-2.9-2.4-1.95-1.95-2-5.55m18.95 7q-1.05.25-1.75.6l-.9 2.7q.6 4.45-.7 5.95l1.6-.55.1-.05q1.8-.9 3.4-2.65l2-2.8q.55-3.1.25-4.05l-2.85.55-1.15.3" fill="#503f72"/><path d="m14.95 74.35.25.25-3.2 3.75-1.1-.3 1.6-.7q.1-.7 2.45-3M8.75 78l.35.1-1.9 3q-.3-.6 1.55-3.1m11.8.05.75-.1Q19.55 79.3 19 82.2l-.25-.25q.4-2.15 1.8-3.9m-8.35-6.8q-3.4 1.9-5.6 1.05 2.7.1 5.6-1.05m9.95 3.5.55.45-.75 1.9-.55.05.75-2.4" fill="#aecfcb"/><path d="m38.15 72.15.95 2.7 1.3 2.55q1.05 5-.85 6.95l-.3-.6q1.5-.85.45-5.85L38.5 75l-.35-2.85m16.1-11.25q-.35 3.05-1.65 4.45l-2.6 3.3-2.7 1.25q4.65-3.15 6.95-9M38.3 82.6q.3.95-.25 4.05l-2 2.8q1.6-2.55 2.25-6.85" fill="#c0fdfd"/><path d="M37.95 57.1q-.6 1.9 0 3l.5 1.2.6-.25 1.2 2.45-2.7-2.15-.65-2.95-1.2 1.2-1.85-5 2.05-1.9.55 5.45 1.5-1.05m7.15-2.3-1-.25-.8-2.2-2.7.6V51.9h.05l1.55-.65h1.7q.55 2.3 1.75 3.25l-.2.05-.35.25m3.85 3.9H49l.1 1.25-.6-.9.45-.35" fill="#07a1bf"/><path d="M49.3 58.25q.6 2.85-.25 3.2l-.9-1.75-.2-.35.55-.3.6.9-.1-1.25v-.05l.3-.4m-14.1 2-2.7-5.9 3.95-3.2.1.95.2 4.85 1.95-.45q-.75.9-.35 3.85l.95-.25 1.9 4.1q-2.4-.45-4.2-2.4l-.25-2.35-1.3 1.3-.25-.5m2.75-3.15-1.5 1.05-.55-5.45-2.05 1.9 1.85 5 1.2-1.2.65 2.95 2.7 2.15-1.2-2.45-.6.25-.5-1.2q-.6-1.1 0-3M46 54.35l-.35.15q-1.2-.95-1.75-3.25h-1.7l-1.55.65h-.05v1.05l2.7-.6.8 2.2 1 .25-.75.55-.05.05-.8-.4-.8-1.8-2.1.4-1.75-1.3 2.85-1.65 2.8-.25q.1 1.6 1.5 3.95" fill="#266c89"/><path d="m50.8 53.5-1.55 1.4q-1.3.45-1.35 1.5l.9.1 1.3-.4v.75l-.8 1.4-.3.4-.05.05-.45.35-.55.3-.95.25q-.5-.9-1.45-.8-3.4.85-4.5 2.45.35-3.45 3.25-5.85l.05-.05.75-.55.35-.25.2-.05.35-.15q1.25-.5 2.2-1.45l.85-1.1.4.4-.6.75q-1.35 1.45-3.2 2.3-3.6 2.4-4 5l1.55-1.3 1.05-.35 2.15-.1.95.5q1.9-.85 2.5-2.5-1.25.7-2.1.4l-.3-.8q.65-1.35 2.9-3l.45.4" fill="#a82806"/><path d="M44.25 58.6q4.2-4.65 4.6-5.65l.6-.75.9.9q-2.25 1.65-2.9 3l.3.8q.85.3 2.1-.4-.6 1.65-2.5 2.5l-.95-.5-2.15.1" fill="#ff7615"/><path d="m44.25 58.6-1.05.35-1.55 1.3q.4-2.6 4-5 1.85-.85 3.2-2.3-.4 1-4.6 5.65" fill="#ffd92e"/></g><g id="y" fill-rule="evenodd"><path d="m27.85 18.15 9.35-.9 22.55 13.9 2.3 2.85-1.6 3.2L55 45.4q-2.15 6.35-1 8.05l-15.55 7-2.5-.2q2.2-6.35 1.4-11.6 2.2 2.8 3 5.8 2.4-4.3 0-8.15 2.65 2.55 4.5 7.95l1.85-7q-3.9-.1-5.4-2.3l6.4-2.25q-8.05 1.25-12.1-.8l7.25-9.65-2.55 1.2q-8.3 1.65-9.15-1L33 28q-3.6 1.2-7.15 1.45l1.9 3.85.2.4-.15.05-5.45-2.4 1.2 5.8L19.5 34l-1.05.7.6-4.4 1 1.35 3.8-5.95 4-7.55m1.9 41.65-7.8-.65-.1-2.05q.6-4.1-.85-6.6L9 41.65 4.75 31l.4-10.65 13.5-1.3-1.1 4.5-1.05 4.05q-1.25 4.05-2.7 5.75-3.15-1.5-4.7-4.35l1.25 3.15.95 1.15 2.8 2.65-.2 4q6.55 7.4 10.1 13.2V49.2l5.75 10.6" fill="#8c3722"/><path d="m17.95 38.25.45-3.1 2.75 2.75v-1.6l7.25 7.9-4.3-2.1 3.15 5.55L21 44.2v1.5q-2.4-2.05-2.95-5.9l-.1-.15v-1.4m10-4.35.05-.1-.05-.1-.2-.4 4.05 1.65 2.55 2.5q-1.6.6-4.75-1.5l-1.65-2.05m-4.8-.95 1.5 1.5q4 1.25 5.15 2.5 1.9 2.35 4.35 3.45-3.2.45-7.4-1.05-3.15-2.8-3.6-6.4m8.3 14.9q.9 2.5 0 3.4-1.55-3.2-1.65-5.2l1.65 1.8m-2.9-6.15 5.7 3.2q1.9 3.35.95 5.95l-3.2-3.8-3.45-5.35" fill="#e88046"/><path d="m35.95 60.25-6.2-.45L24 49.2v3.95q-3.55-5.8-10.1-13.2l.2-4q1.85 1.45 3.85 2.3v1.4l.1.15q.55 3.85 2.95 5.9v-1.5l6.25 3.45-3.15-5.55 4.3 2.1-7.25-7.9v1.6l-2.75-2.75.05-.45 1.05-.7 4.05 3.15-1.2-5.8 5.45 2.4.15.15 1.65 2.05q3.15 2.1 4.75 1.5l-2.55-2.5-4.05-1.65-1.9-3.85Q29.4 29.2 33 28l-1.85 4.45q.85 2.65 9.15 1l2.55-1.2-7.25 9.65q4.05 2.05 12.1.8l-6.4 2.25q1.5 2.2 5.4 2.3l-1.85 7q-1.85-5.4-4.5-7.95 2.4 3.85 0 8.15-.8-3-3-5.8.8 5.25-1.4 11.6m-12.8-27.3q.45 3.6 3.6 6.4 4.2 1.5 7.4 1.05-2.45-1.1-4.35-3.45-1.15-1.25-5.15-2.5l-1.5-1.5m8.3 14.9-1.65-1.8q.1 2 1.65 5.2.9-.9 0-3.4m-2.9-6.15L32 47.05l3.2 3.8q.95-2.6-.95-5.95l-5.7-3.2" fill="#bb563f"/><path d="m27.2 18.25.65-.1-4 7.55-3.8 5.95-1-1.35-.6 4.4-.05.45-.45 3.1q-2-.85-3.85-2.3l-2.8-2.65-.95-1.15L9.1 29q1.55 2.85 4.7 4.35 1.45-1.7 2.7-5.75l1.05-4.05-1.2 6.4-.5 1.05-1.75 3.3-1.9-.9 1.95 2 3.25 2.05v-.6l.05-.15q.1-2.6 1.4-7.3l.9 1.15 4-5.7 3.45-6.6" fill="#046898"/><path d="m18.65 19.05 8.55-.8-3.45 6.6-4 5.7-.9-1.15q-1.3 4.7-1.4 7.3-.55-2.1-.65-5.7h-.95l.5-1.05 1.2-6.4 1.1-4.5" fill="#07a1bf"/><path d="m17.45 36.7-.05.15v.6l-3.25-2.05-1.95-2 1.9.9 1.75-3.3h.95q.1 3.6.65 5.7" fill="#0efffa"/><path d="m62.05 34 1.3 1.6-5.05 8.7q-2.95 5.95-2.15 8.2l-1.45.65.65-5.9 5.1-10.05 1.6-3.2m-40.1 25.15-1.2-.1q.4-6.7-.7-7.65L9.9 43.95l-.9-2.3 12 8.85q1.45 2.5.85 6.6l.1 2.05" fill="#632617"/><path d="m54.7 53.15-.7.3q-1.15-1.7 1-8.05l5.45-8.2-5.1 10.05-.65 5.9" fill="#b7b0d7"/><path d="M46.9 44.85q-2.75.4-5.25.1l2.3-2.65.35-.65 6.4-4.4 2.85-3.3q.35 1.2.05 2.6-3.55 6.05-6.7 8.3m-4.85-4.65-6.35 1.35 3.55-5.3 2.4-5 6.35-5.9-3.55 7.25q4.75-2.35 7.6-8.05-.85 4.5-5.55 11.85l-4.45 3.8m-11.6-7.85 1.45-4.85.65-3.4 5-4.05-2.1 4.75 7-6.85q-.25 4.7-6.1 11.45l-5.9 2.95" fill="#fff"/><path d="M27.25 8.95 44.95 0l19.1 2.9Q69.5 16.55 70.8 26l-.15.45-2.1-1.35-.4 1.75-4.9 7.4 2.85-8.8-2.7 3.95-2.15 2.4-2.05 2.4q3.3-4.85 2.85-13.95l-4.7 8.4 1.25-10.2-2.35 4.2V18.7l-1.75 2.35L52.75 7.6 44.7 17.8l.45-4.15-4.65 4.3 1.95-4.45Q36.2 16.15 29.2 23.65l-1.95-14.7m21.55 35.5-1.9.4q3.15-2.25 6.7-8.3-.65 3.25-4.8 7.9" fill="#9f8291"/><path d="m62.1 37.95-.55-.7-2.1 2.55v-1.65l-1.85 3v-.95l-3.7 2.45q-2.6 1.2-5.1 1.8 4.15-4.65 4.8-7.9.3-1.4-.05-2.6l-2.85 3.3-6.4 4.4 1.2-2.15-3.45.7 4.45-3.8q4.7-7.35 5.55-11.85-2.85 5.7-7.6 8.05L48 25.35l-6.35 5.9.7-1.6q-5.95 2.55-11.9 2.7l5.9-2.95q5.85-6.75 6.1-11.45l-7 6.85 2.1-4.75-5 4.05.05-.65-3.15 1.75-.25-1.55q7-7.5 13.25-10.15l-1.95 4.45 4.65-4.3-.45 4.15 8.05-10.2 1.75 13.45 1.75-2.35v3.95l2.35-4.2-1.25 10.2 4.7-8.4q.45 9.1-2.85 13.95l2.05-2.4 2.15-2.4 2.7-3.95-2.85 8.8-1.15 3.7" fill="#ddc7c9"/><path d="m65.4 3.05 1.45.25 5.4 13.55Q73.8 22.8 70.85 30l-1.55-1.95-4.2 7-1.7 7.15-1.95-2.6-1.65 2.3-3.2 1.35V41.8q-7.65 5-15.25 3.5l-.95-.15 3.75-4.55q-6.35 2.65-9.55 1.2 2.95-4 6.4-10.9-6.75 2.7-11.55 2.15l2.7-8.35-2.7 1.75q-2.75-4.2-3.1-17.05l.9-.45 1.95 14.7.25 1.55 3.15-1.75-.05.65-.65 3.4-1.45 4.85q5.95-.15 11.9-2.7l-.7 1.6-2.4 5-3.55 5.3 6.35-1.35 3.45-.7-1.2 2.15-.35.65-2.3 2.65q2.5.3 5.25-.1l1.9-.4q2.5-.6 5.1-1.8l3.7-2.45v1.9l1.85-2.3 2.1-2.55.55.7.5.65.9-3.2q3.55-4.6 4.65-8.55l.4-1.75 2.1 1.35.15-.45q1.05-2.95-.15-8.9L65.4 3.05" fill="#735d6a"/><path d="m64.05 2.9 1.35.15 5.25 14.05q1.2 5.95.15 8.9-1.3-9.45-6.75-23.1m4.1 23.95q-1.1 3.95-4.65 8.55l-.9 3.2-.5-.65 1.15-3.7 4.9-7.4m-8.7 12.95-1.85 2.3v-.95l1.85-3v1.65" fill="#c0fdfd"/><path d="m4.75 23.2.75.05q1.2 4.15 4.8 8.15l-1.55.25 4 5.2-2.65.6q3.75 4.35 7.5 5.85l-2.5.9 6.6 2.15-1.4 1.8 3.1.85-2.9 1 .55.55-2.8.45-4.3-1.05-1.35-1.05-4.95-2.8Q4 42.8 1.8 39.5l2.1.8Q-2.5 32.75 1.55 23l.8.1q-.6 1.1-.75 2.9-.3 2.6.35 6.55l.1.3q1.5 4.8 3.9 8L7 42.1H5.25q3.3 3.25 6.85 4.9l1.9.65 1.95.7h-2l3.1 1.1 1.2-.1 3.65-.3-1.65-.5-.8-.25.6-.65.8-1.05-5.05-1.65-.3-.2-1.45-.7-1.45-.35 1.1-.1 2.4-.3q-3-1.15-5.75-4.85l-.15-.1-1.1-1.75h2.65L9.1 33l-1.4-1.95h1.45l-2.4-2.85-2-5" fill="#735d6a"/><path d="m2.35 23.1 2.4.1 2 5 2.4 2.85H7.7L9.1 33l-3.3-1.5q2.05 4 4.1 5.1h-.8l1.1 1.75v.1l-1.9-.75q2.45 4.4 5.4 5.9l-1.1.1 1.45.35 1.45.7q-1.95.7-4.05-.4 3.1 3.65 8.6 3.3l-.6.65.8.25-2 .8-1.2.1-3.1-1.1h2l-1.95-.7-7.9-5.55H7l-1.05-1.25 3.45 1.5q-2.25-1.3-4.95-7.05l3.8 1q-2.5-1.5-5.7-7.1L1.6 26q.15-1.8.75-2.9" fill="#ddc7c9"/><path d="m9.1 33 2.65 3.6H9.9q-2.05-1.1-4.1-5.1L9.1 33m1.25 5.45q2.75 3.7 5.75 4.85l-2.4.3q-2.95-1.5-5.4-5.9l1.9.75h.15m5.15 6.3.3.2 5.05 1.65-.8 1.05q-5.5.35-8.6-3.3 2.1 1.1 4.05.4m4.75 3.8 1.65.5-3.65.3 2-.8" fill="#9f8291"/><path d="M14 47.65 12.1 47q-3.55-1.65-6.85-4.9h.85l7.9 5.55m-8.05-6.8q-2.4-3.2-3.9-8l-.1-.3Q1.3 28.6 1.6 26l.95 3.2q3.2 5.6 5.7 7.1l-3.8-1q2.7 5.75 4.95 7.05l-3.45-1.5" fill="#fff"/><path d="m17.3 54.75.25-2.15 3.85-2.95.4.9-4.5 4.2" fill="#b4a7d2"/><path d="m21.8 50.55-.4-.9-3.85 2.95-.25 2.15q-.15 2.05.1 3.05l.15.3 5 6.7-.35.2-5.55-6.9-.3-5.5 5.8-6.4 2.55 8.3 3.75 6.75-.95.6-3.65-6.15-2.05-5.15" fill="#503f72"/><path d="m21.8 50.55 2.05 5.15 3.65 6.15-4.95 2.95-5-6.7-.15-.3q-.25-1-.1-3.05l4.5-4.2" fill="#fff"/></g><g id="i"><use ffdec:characterId="29" height="80.7" transform="translate(1.7) scale(1.1791)" width="71.15" xlink:href="#r"/><use ffdec:characterId="31" height="54.1" transform="translate(0 19.55) scale(1.1791)" width="38.3" xlink:href="#s"/></g><g id="z" fill-rule="evenodd"><path d="m22.4 9.05.25.35 2 6.25Q28 12.2 36.15 7.7v-.05L49.6 1.8h.45l.3.35.05.4-.3.3-1.8 5.5q5.15-3.6 9.1-3.35l.35.15.2.35-.1.4-.05.05.1-.05L61.1 4 64.45.2q.15-.2.35-.2l.4.1.25.35q2.45 9.65 1.85 14.7l.05.3q5.4 13.9 3.1 19.4l-2.8 26.5-.15.3-.25.2q-4.85 1.55-9.4 2.35l-12.95.6q-7.35 1.5-9.25 4.5l-1.6 1.35q-1.5 1.05-3.7 1.9l-.7.2 2.35.5q-1.4.15-3.3 1.85-2 1.7-5.95 2.4l-3-.3-2.5 3.5q-1.55-.2-2.5-2.6-1.4.1-3.15 1.2-.5-.85.65-3.2l-4.55-.9q-2.4-2-3.1-4.05l1.85.8-2-2Q1.7 65.9 1 61.65l2.1 1.65L2.05 60l2.9 1.2-.9-2.5-.35-1-1.3-3.6-.8-2.15q-1.75-2.15-1.6-5l.25-.35q.15-.2.35-.2l.4.2.2.25q-.4-3.15.5-7.6l.25-.3q.15-.15.4-.15l.35.2 3.6 4.05-.75-4.55q-.85-3.65-2.35-8v-.35l.2-.3.35-.1.35.1 1.4 1.1-.45-7.7.05-.35.25-.2.35-.05.3.15 4.65 4.55q1-4.15 5.45-9.55l5.5-8.6q.15-.15.35-.2l.45.05m-.2 2.75-.25-.95-4.85 7.55-.05.05Q14.2 21.9 12.8 24.8q-.95 2.05-1.2 3.8l-.2.35-.4.15-.35-.15L8 26.35l-1.7-1.7.4 7.1.05.4-.15.4-.35.2H6.2l-.4-.1-.9-.7q1.35 4.1 2 7.55l.5 3.25.15 1.9-.1.35-.3.25h-.3l-.3-.15-3.35-3.8-.55-.65q-.85 4.9.15 7.95v.4l-.1.15-.1.1-.4.1-.35-.2-.6-.6Q1.5 50 2.5 51.2l.6 1.8.4 1.4.25.85.95 3.8.5 2.1.05.4q.05.4-.15-.05l-.45-.1-1.5-.4.25.95.1.3q.65 2.2 1.9 3.15l-1-.4-2.1-.8q1.2 3.2 2.85 5.35.8 1.15 1.75 1.95l1.3 1-.45-.1-2.2-.25 2.35 1.8 2.5 1.25 2.15.2 1.1.05L12.1 78l2.9-.65 2 2.25.3-.95q.6-1.3 2.1-2.2l.55-.3q1.45.7 4.65 0l4.35-2.35.1-.05-.15-.05-1.95-1q1.25.6 3.3-.8l.1-.05.3-.25.7-.45 1.35-.95.3-.2 1.65-1.3q1.6-2.75 7.2-4.35l-.85-.2-.2-.05-1.5-.3-2-.2-1.35-.25.15-.05 1.9-.05 2.7-.05 1.3.05 2.9.4h.05l10.85-.3q5.15-.7 10.75-2.5l2.75-26.2.05-.2q1.2-2.9.1-8.3-.85-4.4-3.2-10.35v-.05l-.05-.3-.5-.55-.05-.05Q64.2 19.2 61.6 21l-.15.1-.2.05h-.2L60.7 21l-.15-.3-.5-3.55-.05-.05-4.25 5.8-.2.2-.15.05.05.05-3.65 5.6-2.05 2.4-2.9 3.35h-.05L48 29.5q.6-3.55.9-8.9l.05-1.7.05-1.95-3.95 3.3.2-.8.65-2.75.7-6.65h.05l-.05-.15v-.1l.05-.1v-.05l.8-2.45 1.2-3.7L36.6 8.7h.05q-7.1 3.95-10.5 7.05l-1.3 1.4-.35.15-.4-.05-.25-.35-1.65-5.1m33.5-3.75-.15-.3q-.05-.2.05-.4l.75-1.2q-2.9.25-6.5 2.55l-.15.1-1.85 1.3-1.4 8.05 3.2-3.25.35 7.95-1.1 5.55 2-1.2 9-11.95.4-.25.4.15.25.35.6 4.05q2.1-1.95 3.3-6l.25-.3.35-.1.3.1.1.1.4.45q.1-3.1-.75-7.7l-.15-.9-.3-1.4-.45-2.05-2.75 3.05-.1.1-5.35 3.25-.35.1-.3-.1-.05-.05v-.05m-35.9 53.8-.55-2.5-4.2 8.25q-1.25 4.85-.85 7.2v.05q-.6-1.95-.4-5.8.65-3.55 1.75-5.3l2.9-5 .6-1.6q1.35 1.2 1.55 3.7 2.25-5.85 4.5-9.3 5.9-7.15 5.5-9.5 4.05 6.35 1.25 11.4l3.8-2.7.85-.6q1.05 5.7-1.5 9.1.65-1.75.95-6.1l.05-2-5.95 4.95 1.65-4.35q.4-5.2-.85-7.6-.65 2.6-5.85 9.15-3.3 6.05-4.75 10.4l-.45-1.85m8 5.35-4.1.45q-3.9.55-7.15 3.25 1.75-2.3 6.25-3.7l5.7-.5 1.4-.55q-.9 2.8-5 7.05l-2.05 1.3q2.6-2.4 4.95-5.65l1.15-1.75-1.15.1" fill="#735d6a"/><path d="m22.2 11.8 1.65 5.1.25.35.4.05.35-.15 1.3-1.4q-2.3 4.05-2.7 7.55l8.75-6.15-4.9 6.7q5.35-1.8 10.9-5.85l2.6-3.25q-.7 3.55-5.2 7.65l3.75-1.6q4.3-2.85 5.65-4.55l-.35 2.4 1.25-1.95-.65 2.75-8.2 10.25q3.1-2.8 7.05-3.9l2.15-1.2L48 22.7l-1.2 11.85-.05.1.1-.1 2.9-3.35 6.4-4.9q1.95-2.55 3.9-9.15l.5 3.55.15.3.35.15h.2l.2-.05.15-.1q2.6-1.8 4.05-6.15l.05.05.3.95q-.65 5.2-1.85 7.95 1.3-1.45 2.85-4.9l2.45 7.25q1.1 5.4-.1 8.3l-.05.2-2.75 26.2q-5.6 1.8-10.75 2.5l-4.4-1.8q-4.4-1.3-12.5 0-2.1.3-5.85 2.4l2.9-.6 1.35.25 2 .2q-2.4.9-5.2 3.3-3.4 3-3.75 4.75l-.1.05q-2.05 1.4-3.3.8l1.95 1-8.95 2.45-.55.3 1.3-3.05-2.65 3.25-.75 2-.3.95-2-2.25-2.9.65 1.55-2.55-1.1-.05-4.8-3 .45.1-1.3-1q-.95-.8-1.75-1.95 3.45 2.35 6.3 2.65L4.4 65l1 .4q-1.25-.95-1.9-3.15l1.7 1.15-.55-2 .45.1q.2.45.15.05l-.05-.4-.5-2.1 4.1 3.4 1.4 6.5q1.1 3.15 2.8 4.6l.1.1 1.2 1.95.05-.25-.05-.2-.1-.35 1.2 1.7 2.5-3.1 6.5-2.25q2.6-1.35 3.4-2.3-2.35 3.25-4.95 5.65l2.05-1.3q4.1-4.25 5-7.05l-1.4.55-5.7.5q-4.5 1.4-6.25 3.7 1.85-3.4 3.25-9.05l.45 1.85-.45 3.65q1.1-2.5 4.2-5.15l3.15-2.5-1.8 3.95q3.35-.95 7-5.45-1.5 3-3.05 4.1 1.8-.55 4.7-4.25l1.95-4.9q-.3 4.35-.95 6.1 2.55-3.4 1.5-9.1l-.85.6 3.35-4.7-4.7 3.55q2.55-2.2 2.3-10.45l-29.2 3.6-.5-3.25 2.55 1.85L6.2 32.8l.05-.05.35-.2.15-.4h.1q1.85 4.65 2.5 2.45L8 26.35l2.65 2.6.35.15.4-.15.2-.35q.25-1.75 1.2-3.8 2.7 0 5.55-2.75l.2-.15q3.5-6.15 3.65-10.1M3.5 54.4 3.1 53l.75-2.25-.65-9.45 3.35 3.8.3.15h.05l-.5 10-2.9-.85M49.7 8.8q-.75 1.7-1.15 5.55 1.05-1.55 3.4-3.2l.45-.45 3.3-2.65v.05l.05.05-2 2.9q-1.4 4-1.35 6.75l1.4-1.75 1.45-.6 4.3-1.9q3.25-.6 5.8-4.45l.4 4.15-.3-.1-.35.1-.25.3q-1.2 4.05-3.3 6l-.6-4.05-.25-.35-.4-.15-.4.25-9 11.95-2 1.2 1.1-5.55-.35-7.95-3.2 3.25 1.4-8.05 1.85-1.3" fill="#ddc7c9"/><path d="m47.45 7.2-.8 2.45v.05l-.05.1v.1L45 16.25q-1.35 1.7-5.65 4.55l-3.75 1.6 4.9-3.5q2.5-1.9 4.6-5.95l2.35-5.75m1.5 11.7-.05 1.7-.65 1.65-.25.45-1.75 1.9-2.15 1.2q3.65-2.5 4.85-6.9m6.85 44.45-10.85.3h-.05l-2.9-.4-1.3-.05-2.7.05-1.9.05-.15.05-2.9.6q3.75-2.1 5.85-2.4 8.1-1.3 12.5 0l4.4 1.8m-16.5.45 1.5.3q-1.8.4-3.95 1.85-3 2-3.85 4.05l-.3.2-1.35.95-.7.45-.3.25q.35-1.75 3.75-4.75 2.8-2.4 5.2-3.3m-10.35 10-4.35 2.35q-3.2.7-4.65 0l8.95-2.45.05.1m-9.55 2.65q-1.5.9-2.1 2.2l.75-2 2.65-3.25-1.3 3.05M4.7 59.05l-.95-3.8-.25-.85 2.9.85.5-10h.25l.3-.25.1-.35-.15-1.9 29.2-3.6q.25 8.25-2.3 10.45l4.7-3.55-3.35 4.7-3.8 2.7q2.8-5.05-1.25-11.4.4 2.35-5.5 9.5-2.25 3.45-4.5 9.3-.2-2.5-1.55-3.7l-.6 1.6-2.9 5q-1.1 1.75-1.75 5.3-.2 3.85.4 5.8l.1.3.05.2-.05.25-1.2-1.95-.1-.1q-1.7-1.45-2.8-4.6l-1.4-6.5-4.1-3.4M65.05 3.8l.3 1.4.15.9-.15 3q-2.55 3.85-5.8 4.45l-4.3 1.9q3.55-2.15 7.95-6.4 1.9-3.4 1.85-5.25M66 15.85l1 3.05q-1.55 3.45-2.85 4.9 1.2-2.75 1.85-7.95M17.9 73.4l4.05-2.05q4.6-2.35 5.85-4.15l1.15-.1-1.15 1.75q-.8.95-3.4 2.3l-6.5 2.25" fill="#9f8291"/><path d="M12.8 24.8q1.4-2.9 4.25-6.35l.05-.05 4.85-7.55.25.95q-.15 3.95-3.65 10.1l-.2.15Q15.5 24.8 12.8 24.8m13.35-9.05q3.4-3.1 10.5-7.05h-.05l12.05-5.2-1.2 3.7-2.35 5.75Q43 17 40.5 18.9l-4.9 3.5q4.5-4.1 5.2-7.65L38.2 18q-5.55 4.05-10.9 5.85l4.9-6.7-8.75 6.15q.4-3.5 2.7-7.55m19.1 3.7-.2.8 3.95-3.3-.05 1.95q-1.2 4.4-4.85 6.9-3.95 1.1-7.05 3.9l8.2-10.25m4.5 11.75 2.05-2.4 3.65-5.6.1-.1.2-.2L60 17.1l.05.05q-1.95 6.6-3.9 9.15l-6.4 4.9m-37.2 44.2-2.15-.2-2.5-1.25-2.35-1.8 2.2.25 4.8 3m-7.4-5.85Q3.5 67.4 2.3 64.2l2.1.8 7.05 7.2q-2.85-.3-6.3-2.65m-1.65-7.3-.1-.3-.25-.95 1.5.4.55 2-1.7-1.15M3.1 53l-.6-1.8q-1-1.2-1.25-2.65l.6.6.35.2.4-.1.1-.1.1-.15v-.4q-1-3.05-.15-7.95l.55.65.65 9.45L3.1 53m3.8-13.5q-.65-3.45-2-7.55l.9.7.4.1v.05l3.25 8.55L6.9 39.5m-.2-7.75-.4-7.1 1.7 1.7 1.35 8.25q-.65 2.2-2.5-2.45l-.15-.4m43-22.95.15-.1q3.6-2.3 6.5-2.55l-.75 1.2q-.1.2-.05.4l.15.3-3.3 2.65-.45.45q-2.35 1.65-3.4 3.2.4-3.85 1.15-5.55m6.05-.65.3.1.35-.1 5.35-3.25.1-.1 2.75-3.05.45 2.05q.05 1.85-1.85 5.25-4.4 4.25-7.95 6.4l-1.45.6-1.4 1.75q-.05-2.75 1.35-6.75l2-2.9M14.2 74.8q-.4-2.35.85-7.2l4.2-8.25.55 2.5q-1.4 5.65-3.25 9.05 3.25-2.7 7.15-3.25l4.1-.45q-1.25 1.8-5.85 4.15L17.9 73.4l-2.5 3.1-1.2-1.7m6.05-11.1Q21.7 59.35 25 53.3q5.2-6.55 5.85-9.15 1.25 2.4.85 7.6l-1.65 4.35L36 51.15l-.05 2-1.95 4.9q-2.9 3.7-4.7 4.25 1.55-1.1 3.05-4.1-3.65 4.5-7 5.45l1.8-3.95L24 62.2q-3.1 2.65-4.2 5.15l.45-3.65" fill="#fff"/><path d="m46.6 10.05-.7 6.65-1.25 1.95.35-2.4 1.6-6.35v.15m2.3 10.55q-.3 5.35-.9 8.9l-1.2 5.05L48 22.7l.1-.1.15-.35.65-1.65m16.8-5.7.5.55.05.3v.05q2.35 5.95 3.2 10.35L67 18.9l-1-3.05-.3-.95M40.8 64.1l.2.05.85.2q-5.6 1.6-7.2 4.35L33 70q.85-2.05 3.85-4.05Q39 64.5 40.8 64.1m24.7-58q.85 4.6.75 7.7l-.4-.45-.1-.1-.4-4.15.15-3" fill="#c0fdfd"/></g><g id="A" fill-rule="evenodd"><path d="m23.4 2.8.25-.65.3.3.5 4.25q.25 2.4 2.7 3.7 2.8 3.5 1.3 7.45l1.65-2.55q-.1 2.45-2.05 5.1l-2.25 1q1.8-1.35 1.5-2.8l-1.35.3q.4-3.85-1.8-6.4l-.5 1.05-.7-2.6.1-.3q.45-2.45.2-4.25l-.05-1.5.2-2.1M25.85 23l1.75-.75q1.35.55 3.2-.5v1.15l-1.4.7q-2.6.55-3.65-.5l.1-.1m-.6 3.45q1.25 1.85.8 3.7l-.7 1.85-.65.2q1-2.4.55-5.75m4.95 5.35-.05-3.45 1.25-3.6.25-.2q.3 5.65-1.45 7.25m-14.75-7.55-.3 1.75-.1.25-1.95 4.7-.1.3-.3.7q-.1-.4-.75.55l-.45 2-.1.2-.45-1.05.25-.6 1.4-4.65 2.85-4.15m0 7.35-.3 1.1-2.05-.05q.45.3 1.05-.4 0-.35-.85-.2.55-.55 2.15-.45M9.2 37.45l.15 3.45.35.8-.35.5-1.2-1.6.8-.15q-.4-1.8.25-3" fill="#8c3722"/><path d="M23.95 2.45q5.25 4.9 6.75 12.3l.05.25q.75 3.65-2.35 6-1.2 1.3-2.55 2l-.1.1q1.05 1.05 3.65.5l1.4-.7-.55 2.25q.45.15 1.15-.4l-1.25 3.6-.1-.9q0-.7-.95-1.1-2.4-1.25-5.5-1.7l.5.45.45.4.65.85.05.1q.45 3.35-.55 5.75l-3.2.95 1.8.4-.25.45-.2-.1-.75-.2v1.5l-1.5-.2q-.55-.45-1.5-.65-.45.35-.6 1.4l-1.15-4.1q2-.65 5.1-1 1.4-1.55 1.1-2.85.05-1.2-.65-2.4-2.05-1.9-5.45-1.8l.25.3.25.25q1.15 1.45 1.7 4.35l-2.6 1.85-.1-.5q.3-.3.4-1.85-1.05-1.8-2.3-1.75l.1-.25.3-1.75.1-.15.1-1.7h.05q1.5 1.2 3.6.75 2.25-2.45 2.25-4.7-.75 1.95-2.15 2.15l.5-2.05q-.4-1.4.35-4.8l1.5-4.15q1.1-2.7 1.45-4.7l.05 1.5-.6 3.25-1.15 2.9q-1.1 2.3-1.05 3.65l.4 2.15L22.1 18q.25 3.05-.35 4.3l.65-.4 1.25-1.65v1.15l.8-.4-.15 1.3.45-.25 1.05-.65 2.25-1q1.95-2.65 2.05-5.1l-1.65 2.55q1.5-3.95-1.3-7.45-2.45-1.3-2.7-3.7l-.5-4.25M10.6 14.35l.85 1.3-.45 1.5-.1.1-.3-2.9m1.65-5.45L14 11.35v1.55l-.45.7-1.3-4.7m7.55-2.65.45 1.6-.85 1.7-.6-.8q.5-2.4 1-2.5M19 36.7l.05-.55q.8-.65 2-.7l-1.1 1.05v1.4q.15 2.35-.5 3v-4.2H19m-3.55-5.1q-1.6-.1-2.15.45l-.2.35v.25l2.05.05-.3 1.65-.05.2q-2.15-.2-3.95 2.4-1.6 2.2-.65 4.5l-.1.05-.4.2-.35-.8-.15-3.45-.85-.2 1.4-4.85.55 1.6q.4.1.65-.35l.45 1.05.1-.2 1.2-2.55.3-.7.1-.3q1.05.55 2.55 0l-.2.65" fill="#bb563f"/><path d="m29.3 21.15.65-.5q2.1-1.05 2-5.45l1.55-2.25q.05 1.8-1.05 4.85l-1.65 2.9-1.5.45m-5.65-6.95.6-.6.8 1.95q-.8 2.55-1.7 2.9l.3-4.25m1.75 5.5 1.45-.45-.65.85-1.25.8.45-1.2m9.55.8-.05.2 1.95-.95q-.3 2-1.5 3.35-1.25 1.35-3.15 1.95l2.75-4.55m-19.6 32.75q-1.75-.8-2.7-3.2l.65-4-.05-.15q.45-.05.6-1l.3-1.85.05-.25 1.15 3.3v7.15m-4.8-1.55q-1.7-1.3-1.35-4.45l.1-.15.55-1-1.3.9-1.25-.1 1.05-1.05.5.1v-.75l.4-.45.15-.1q.4 1.45 1.8 1.15l.6-2.8v2.85q-1.4 3.75-1.25 5.85m.25-18.95-.2.55q-1-1.45-.85-4.5 1.25 1.9 1.05 3.95m.4-5.75.35-1.1 2.15-5.4h.1l.4 1.95.05.1.05.15q-.5 2.1-1.2 3.35L11.4 29l-.2-2m8.75 10.9v-1.4l1.1-1.05-.45-.45 1.5.2v-1.5l.75.2 1.75 3-2.35-1.1.8 3.1-2.1-1.7v2.65l-1-1.95m-4.1-5.9.9 6.5.45 2.5-2.1-.05v-3.7q.15-3.05.75-5.25M16 43.6l.9.1.75-1 .9-.9q-.9 4.4-2.05 5.85L16 43.6M4.55 41.45l.9 1.15q1.25.9 2.85.7v.9l-3.05-1.3-3.5-2-.85-1.25 3.65 1.8" fill="#fff"/><path d="m27.6 22.25 1.7-1.1 1.5-.45q1.25-.9 2.95-3.65l.7-1.6q.55 2.65.5 5.05l-2.75 4.55-.15.25q2.4-.55 5.1-2.9-.35 2.35-1.3 4.95-1.3 2.1-3.6 4.05l-.15.15.2-.1-2.25 7.95-6.15 7.15-2.3-7.15q-.2 6.95-1.3 11.3l-1.85 2.15-2.85.5-.25-.1V46.1l-1.15-3.3.05-.3.75.6q.45.35 1 .5l.5 4.05q1.15-1.45 2.05-5.85l.9-.9q.65-.65.5-3l1 1.95V37.2l2.1 1.7-.8-3.1 2.35 1.1-1.75-3 .2.1.25-.45 1.8.35q1.3.55 1.5 1.3 1.85.8 3.45-.75l.15-2.65q1.75-1.6 1.45-7.25l-.25.2q-.7.55-1.15.4l.55-2.25v-1.15q-1.85 1.05-3.2.5m-5.2-.35q.4-.8.25-3.3l-.5-1.2q-.05-4.05.7-4.85l.55 1.95.25-.3-.3 4.25q.9-.35 1.7-2.9.4 1.8.35 4.15l-.45 1.2 1.25-.8-1.45 1.95-.45.25.15-1.3-.8.4v-1.15L22.4 21.9m-9.75 28.15-.2-.65q-1.3 1.5-1.6 2.55l-.3-.25q-.15-2.1 1.25-5.85V43l1.45 2.9.05.15-.65 4m-3.4-2.95-.7-.1 1.3-.9-.55 1h-.05m5.05-24.4.25.5.7-1.05-.35 1.8-2.65 4.25-1.45 4.55q.2-2.05-1.05-3.95v-.55l.9 1.15q.2-1.35.55-2.4l.2 2 1.7-2.95q.7-1.25 1.2-3.35" fill="#ddc7c9"/><path d="m22.15 17.4-.35-.65q-.05.7-.55.95h-.05q-.65-1.75.3-4l1.1-2.15.25 1q-.75.8-.7 4.85m11.35-4.45.15-.25.8 2.75-.7 1.6q-1.7 2.75-2.95 3.65l1.65-2.9q1.1-3.05 1.05-4.85m3.35 6.8.4-.2-.1 2.85q-2.7 2.35-5.1 2.9l.15-.25q1.9-.6 3.15-1.95 1.2-1.35 1.5-3.35M23.9 46.55l-3.6 4.15q1.1-4.35 1.3-11.3l2.3 7.15" fill="#9f8291"/><path d="m31.95 15.2-.1-1.55v-.1l-.05-.15 1.5-3.4q2.8 3.65 2.6 8.9l1.4-1.7q2 3.45 0 8.6-2.35 4.05-5 5.65l-1.7 8.3-11.8 13.7-3.1.65q-2.45-.95-3.6-3.65l-.85 2q-1.1-.35-2.15-2.05-.55-.9-.3-2.8-2.15 0-2.6-.75l1.8-1.1.35.1L7.3 46.9l1.25.1.7.1-.05.15q-.35 3.15 1.35 4.45l.3.25q.3-1.05 1.6-2.55l.2.65q.95 2.4 2.7 3.2l.25.1 2.85-.5 1.85-2.15 3.6-4.15 6.15-7.15 2.25-7.95-.05-.05q2.3-1.95 3.6-4.05 2.15-3.65 1.4-7.8l-.4.2-1.95.95.05-.2q.05-2.4-.5-5.05l-.8-2.75-.15.25-1.55 2.25m-8.9-4.55-.1.3.7 2.6.5-1.05q2.2 2.55 1.8 6.4l1.35-.3q.3 1.45-1.5 2.8l-1.05.65 1.45-1.95.65-.85-1.45.45q.05-2.35-.35-4.15l-.8-1.95-.6.6-.25.3-.55-1.95-.25-1-.05-.2.5-.7" fill="#735d6a"/><path d="m23.95 2.45-.3-.3-.25.65-1.9 4.8-.05.2-2 5.6-.25-.75-.6-1.7q-1.15 5-2.1 7 .2-3.65 1.95-9.75l.35.55.6.8.85-1.7-.45-1.6-.1-.3-1.3 1.45-1.85 1.95Q14.6 11.5 14 12.9v-1.55L12.25 8.9q-.05 4.9-.8 6.75l-.85-1.3-.25-.45-.1 1.4q-.2 2.75-.75 4.65l1.1-2.15.3-.55v.1l.05-.1.9-.45q.05.7-1.3 2.45l-3.6 5.35-.3-1.2 1.05-1.35.9-1.05q.8-1.75 1.4-7.85l1.25.85q.1-3-.55-7.3 2.75 1.15 3.9 3.85l5.4-6.7 1 2.2q1.05-2.7 1.9-6.05L27 3.95q3.35 5.3 4.8 9.45l.05.25.1 1.55q.1 4.4-2 5.45l-.65.5-1.7 1.1-1.75.75q1.35-.7 2.55-2 3.1-2.35 2.35-6l-.05-.25q-1.5-7.4-6.75-12.3m-.7 3.95q.25 1.8-.2 4.25l-.5.7.05.2-1.1 2.15q-.95 2.25-.3 4h.05q.5-.25.55-.95l.35.65.5 1.2q.15 2.5-.25 3.3l-.65.4q.6-1.25.35-4.3l-1.25.35-.4-2.15q-.05-1.35 1.05-3.65l1.15-2.9.6-3.25M4.5 35.85l.05 2.05v1.45l.55.85q.1 1.05 1.05 1.75l2.05.5 1.1.3q-.05-.35.05-.55l.35-.5.4-.2.1-.05.6-.15h.15l2.5.25 1.05-1 .1.1.5.3 2.1.05.3-.1q.55-.3.95-1.3l-.1-1.7-.05-.35.05-.4.15-1.4q.15-1.05.6-1.4.95.2 1.5.65l.45.45q-1.2.05-2 .7l-.05.55q-.25 1.85.05 3-.25 1.4-1.75 1.85l-1.05.15-.95.05-.65-.6-1.05.85h-3.45q-.55 1-1.1 1.15l-.15.05-.6.1q-1.6.2-2.85-.7l-.9-1.15-.35-.9-.25-1.05-.25-2.05v-.25q-.2-1.5.1-3.6l.65 1.1.05 1.15m-.25-4.95.6-2.6.05-.3.15-.8q.15.95.4 1.25l-.9 3.35-.3-.9m9.05 1.15q.85-.15.85.2-.6.7-1.05.4v-.25l.2-.35m-.6-.1-1.2 2.55.45-2q.65-.95.75-.55" fill="#632617"/><path d="M26.65 28.45q-.15-1.35-1-2.5l-1.1-.45-.45-.4q3.25.25 5.7 2.75v6.3q-.8-3.25-3.15-5.7M17.7 23.9q1.95.1 4.65 1.5.65 1.3.7 3.2l-.05.5q-.85-2.5-2.8-3.5l-1.1-.4-1.15-1.05-.25-.25" fill="#07a1bf"/><path d="M26.65 28.45q2.35 2.45 3.15 5.7v.15l-2.75.8q.1-1.05-1.7-1.6l-2.7-.35 3-.65q.75-.95 1-3.1v-.95M23 29.1q-.2.85-.6 1.05-3.25.05-5.1 1.25l-.2-.8 3.05-1.8-.7-3.25-.35-.35 1.1.4q1.95 1 2.8 3.5M8.9 24.95 5.65 28.3q-.2-.95.9-2.75L7 26l2.75-2.25-.85 1.2M5 32.85l2.4-3.6-.2 1.1-2.25 4.35q-.4-.6-.45-2.25l.5.4" fill="#0efffa"/><path d="m6.65 23.4.3 1.2v.85l3.15-2.7.95-1.1q-.15 1.1-1.25 2.9-1.3 1.7-4 4.05l-.35-.15q-.25-.3-.4-1.25.65-2.3 1.6-3.8M8 28.7l-.45 1.75-.45.85L5 35.6l-.55-.9-.65-1.1.45-2.7.3.9.2.6q1.75-3.05 3.5-4.7l-.25 1m16.55-3.2 1.1.45q.85 1.15 1 2.5v.95q-.25 2.15-1 3.1l-3 .65 2.7.35q1.8.55 1.7 1.6l2.75-.8v-6.45q-2.45-2.5-5.7-2.75l-.5-.45q3.1.45 5.5 1.7.95.4.95 1.1l.1.9.05 3.45-.15 2.65q-1.6 1.55-3.45.75-.2-.75-1.5-1.3l-1.8-.35-1.8-.4 3.2-.95.65-.2.7-1.85q.45-1.85-.8-3.7l-.05-.1-.65-.85M23 29.1l.05-.5q-.05-1.9-.7-3.2-2.7-1.4-4.65-1.5l-.25-.3q3.4-.1 5.45 1.8.7 1.2.65 2.4.3 1.3-1.1 2.85-3.1.35-5.1 1l-.05-.25q1.85-1.2 5.1-1.25.4-.2.6-1.05m-5.05-4.95 1.15 1.05.35.35.7 3.25-3.05 1.8-.05-.25 2.6-1.85q-.55-2.9-1.7-4.35m-9.05.8.85-1.2L7 26l-.45-.45q-1.1 1.8-.9 2.75l3.25-3.35M5 32.85l-.5-.4q.05 1.65.45 2.25l2.25-4.35.2-1.1-2.4 3.6" fill="#046898"/><path d="M8 45.75Q5.3 45 2.85 43-.25 40.4 0 38.15l4.2 2.4.35.9-3.65-1.8.85 1.25q1.1 1.4 3.2 2.8 1.65.75 3.3 1.45l.05-.95v-.9l.6-.1-.05 2v.75l-.5-.1-.35-.1m9.3-14.35.05.25 1.15 4.1-.15 1.4q-1.05-3.25-1.7-6.85l-.05-.25v-.1l-.05.1-.65 1.7-.05.25q-.6 2.2-.75 5.25v3.7l-.5-.3q-.15-1.45-.05-3.25l.25-2.85.05-.2.3-1.65.3-1.1.2-.65q.5-1.5 1.05-2.35l.25 1.25.1.5.05.25.2.8" fill="#503f72"/><path d="m16.75 38.5.1-5.35 1.5 4.75.1 1.7q-.4 1-.95 1.3l-.3.1-.45-2.5m-15 2.4 3.5 2 3.05 1.3-.05.95q-1.65-.7-3.3-1.45-2.1-1.4-3.2-2.8" fill="#b4a7d2"/><path d="M16.55 30.05h.05l.05.25.2 2.75v.1l-.1 5.35-.9-6.5.05-.25.65-1.7" fill="#81789b"/><path d="M16.65 30.3q.65 3.6 1.7 6.85l-.05.4.05.35-1.5-4.75v-.1l-.2-2.75" fill="#bef7f9"/><path d="m10.9 17.25-.3.55-.35-2.5.1-1.4.25.45.3 2.9m7.5-9.85 1.3-1.45.1.3q-.5.1-1 2.5l-.35-.55q-1.75 6.1-1.95 9.75l-.7 1.65q1.5-.6 2.95-2.85l.45-4.1.25.75 2-5.6-.75 2.95 1.05-1.15-1.5 4.15q-.75 3.4-.35 4.8l-.5 2.05q1.4-.2 2.15-2.15 0 2.25-2.25 4.7-2.1.45-3.6-.75l-.05-.2-.1-.85-.95 1.1-.3-2.2-.9-1.9q.15 1.8-1.1 4.6l-.1.2q-1.6 3.1-1.65 5.2l-.95-.95q-.45 2.1-.1 3.95L6.8 37.4q-1.4 1.45-2.25.5l-.05-2.05q.55.75 1.1-.15l1.5-4.4.45-.85L8 28.7l3.95-6.85 1.45-3.5q.5-1.6.3-2.55l4.7-8.4M16.75 20l.95-.3q1.6-1.5 1.25-2.3l-2.2 2.6m-1.7 6.25q1.25-.05 2.3 1.75-.1 1.55-.4 1.85l-.25-1.25q-.55.85-1.05 2.35-1.5.55-2.55 0l1.95-4.7M19 36.7h.45v4.2l-.9.9-.9.9-.75 1-.9-.1q-.55-.15-1-.5l1.25-1.4 1.05-.15q1.5-.45 1.75-1.85-.3-1.15-.05-3m-4.2-2.15-.25 2.85q-2.2-.65-3.65.75-.9 2.1-.1 3.15l-.6.15q-.95-2.3.65-4.5 1.8-2.6 3.95-2.4m-5.4 10.1 1.3-2 3.45.4-.3 1.85q-.15.95-.6 1L11.8 43l-.6 2.8q-1.4.3-1.8-1.15m-1.2-2.2q-.05-1.05-.95-1.75l.9-.1 1.2 1.6q-.1.2-.05.55l-1.1-.3" fill="#e88046"/><path d="m6.95 24.6 3.6-5.35q1.35-1.75 1.3-2.45l-.9.45.05-.1.45-1.5q.75-1.85.8-6.75l1.3 4.7.45-.7q.6-1.4 2.55-3.55L18.4 7.4l-4.7 8.4q.2.95-.3 2.55l-1.45 3.5L8 28.7l.25-1q-1.75 1.65-3.5 4.7l-.2-.6.9-3.35.35.15q2.7-2.35 4-4.05 1.1-1.8 1.25-2.9l-.95 1.1-3.15 2.7v-.85m3.65-6.8-1.1 2.15q.55-1.9.75-4.65l.35 2.5m5.9.15q.95-2 2.1-7l.6 1.7-.45 4.1Q17.3 19 15.8 19.6l.7-1.65M21.45 7.8l.05-.2 1.9-4.8-.2 2.1q-.35 2-1.45 4.7l-1.05 1.15.75-2.95M7.1 31.3l-1.5 4.4q-.55.9-1.1.15l-.05-1.15.55.9 2.1-4.3m-2.55 6.6q.85.95 2.25-.5l2.7-6.05.25 1.05-1.4 4.85-.25-.05q-1.55 1.5-3.55 2.15V37.9M16.75 20l2.2-2.6q.35.8-1.25 2.3l-.95.3m-2.2 17.4q-.1 1.8.05 3.25l-.1-.1-1.05 1-2.5-.25h-.15q-.8-1.05.1-3.15 1.45-1.4 3.65-.75m.45 5.7-.75-.6-.05.3-.05.25-3.45-.4-1.3 2-.15.1-.4.45.05-2 .15-.05Q9.6 43 10.15 42h3.45l1.05-.85.65.6.95-.05L15 43.1m-9.9-2.9q.7.55 2.1.5h.05q.9.7.95 1.75l-2.05-.5q-.95-.7-1.05-1.75" fill="#ffb067"/><path d="M37.25 19.55q.75 4.15-1.4 7.8.95-2.6 1.3-4.95l.1-2.85" fill="#c0fdfd"/><path d="M9.5 31.35q-.35-1.85.1-3.95l.95.95q.05-2.1 1.65-5.2l.1-.2q1.25-2.8 1.1-4.6l.9 1.9.3 2.2.95-1.1.1.85v.2l-.1 1.7-.1.15-2.85 4.15-1.4 4.65-.25.6q-.25.45-.65.35l-.55-1.6-.25-1.05m4.8-8.65-.1-.25-.4-1.95-.1-.4v.4l-2.15 5.4-.35 1.1q-.35 1.05-.55 2.4l-.9-1.15v.55q-.15 3.05.85 4.5l.2-.55 1.45-4.55 2.65-4.25.35-1.8-.7 1.05-.25-.5" fill="#917a85"/><path d="m8.35 37.25.85.2q-.65 1.2-.25 3l-.8.15-.9.1H7.2q-1.4.05-2.1-.5l-.55-.85q2-.65 3.55-2.15l.25.05M6.7 40l1.7-.05v-2.3l-.7.65q-1.3 1.1-2.5 1.4l1.5.3" fill="#34203d"/><path d="m7.7 38.3.7-.65v2.3L6.7 40q.65-.3 1-1.7" fill="#543760"/><path d="m6.7 40-1.5-.3q1.2-.3 2.5-1.4-.35 1.4-1 1.7" fill="#885e9b"/><path d="m14 27.2.05-.05.2-.05.2.1h.05l.1.25-.1.3-.05.05-.2.05-.3-.1-.1-.3.1-.25H14m-1.2 2.65.05-.25.25-.05h.1l.1.05.1.2v.05l-.1.2-.2.1-.15-.05-.1-.05-.05-.1v-.1" fill="#fff"/><path d="M11.85 31.55h-.55l.8-3.2 1.9-3 .45.35-.2.35-.55.75-1.15 1.7-.3 1.25-.35 1.45-.05.35" fill="#735d6a"/><path d="m14.25 26.05.5 1.15h-.3l-.2-.1-.2.05-.05.05-.3-.4.55-.75m-1.3 4.6-1.05.55.35-1.45.5.2h.05l.05.1.1.05v.55" fill="#c97b0d"/><path d="M14 27.2h-.05l-.1.25.1.3q-.5.55-.75 1.8h-.1l-.25.05-.05.25-.05.1-.5-.2.3-1.25 1.15-1.7.3.4" fill="#8f2406"/><path d="m13.95 27.75.3.1.2-.05-.05.9q-.35.85-1 1.1l-.1-.2-.1-.05q.25-1.25.75-1.8" fill="#ff3f0b"/><path d="M14.75 27.2v.05l.3 1.75-1.35 1.25-.75.4v-.55l.15.05.2-.1.1-.2v-.05q.65-.25 1-1.1l.05-.9.05-.05.1-.3-.1-.25h.25" fill="#fffe0f"/><path d="M14.45 25.7h.05q1 1.25.85 3.25l-1.3 1.8-2.2.8.05-.35 1.05-.55.75-.4L15.05 29l-.3-1.75v-.05l-.5-1.15.2-.35" fill="#632617"/></g><g id="B" fill-rule="evenodd"><path d="M27.3 47.6q-4.35 1.65-8.4 1.4l.95-1q3.45.05 7.05-1.35l.15-.1.25 1.05M9.35 45.55l-.7-.5-1.05-.95.45-.95L9.3 44.2v.05l2 1.3H9.35M1.4 35.35Q-.15 31.25 0 26.4l.1-.35.25-.15L2 25.45h1.6v-.05.05l.7.1 2 .25.6.1 2.3.3.45.05 1.6.25q2 3.5 4.6 6.15l2.05 1.9.65.45 2.6 1.5q1.45.8 2.95 1.35l.05-.05h.15l.2.05.4.1 1.85.7-1.15-.1 4.05.7h1.5l2.1.7-.05.1.15-.1h.25l-.05-.05q3.35-1.15 7.25-4.8 3.4-3.35 5.35-9.2l-.6-.1-.1-.2.5-.7.45.15.65.2.4-3.55v-.1q-.05-5.4-3.3-11L41.1 6.2q-.7-.4-1.35-.7Q35.4 3.35 31 2.25 24.9.7 18.75 1.15h-.25l-1.35.15.4 2.05-1.1-.2-.4-2.25Q16 .75 16.1.65l.15-.25.25-.1q12.6-1.6 25.2 5l.15.15q6.6 8.25 6.65 16.15v.1l-.05.15-.1.2h.1l-.05.45-.2 1.5-.3 2.3-1.15-.25-1.3 3.25q-1.95 4.1-4.7 6.85Q38 38.8 34.4 40.1l-.4.2v.25l-.5 3.9-.1.25-.2.15-.8.4-1.35.6-1-.65 2.45-1.15.15-1.2.1-.65.2-1.55-2.4-.85-5.55-.7-.25-.05q-4-1.55-7.75-4.15-3.55-2.9-5.75-7.45L2.7 26.4l-1.65.4q-.1 4 1.1 7.5l.8 1.9-1.55-.85M31.9 7l.05.05-.1.05.05-.1" fill="#161224"/><path d="M18.75 1.15Q24.9.7 31 2.25q5.1 3.8 7.15 8.3-2.8-2.3-6.3-3.45l.1-.05L31.9 7l-6.75-1.85-1.35-.3-5.05-3.7M25 39.1l5.55.7 2.4.85-.2 1.55L28 43.9l-1.95-1.3.45 1.65-7.4.35-3.45-8.7q2.55 1.55 5.65 2.9l3.45.3H25M2.95 36.2l-.8-1.9 1.35-3.8 3.8.55-2.25 6.35-2.1-1.2m4.9-5.1 1.95.3q2.15 2.15 5.1 4.05l-.1 8.65-6.55-3.5-.4-4.6v-4.9" fill="#564e84"/><path d="m17.55 3.35-.4-2.05 1.35-.15h.25l5.05 3.7-5.3-1.25-.2-.05-.75-.15v-.05M2.15 34.3q-1.2-3.5-1.1-7.5l1.65-.4 8.55 1.05Q13.45 32 17 34.9q3.75 2.6 7.75 4.15v.05l-3.45-.3q-3.1-1.35-5.65-2.9l-.75-.45q-2.95-1.9-5.1-4.05l-1.95-.3v-1.65l-.55 1.6-3.8-.55-1.35 3.8" fill="#8e7bd2"/><path d="m31.05 45.85-3.7 1.75h-.05l-.25-1.05-.35-1.45-.2-.85-.45-1.65L28 43.9l1 .65 1.05.65 1 .65M18.9 49q-4.95-.25-9.55-3.45h5.4l.05-1.45.1-8.65.75.45 3.45 8.7.3.8.85 2.15-.4.45-.95 1M7.6 44.1q-4.3-3.85-6.2-8.75l1.55.85 2.1 1.2 2.25-6.35.55-1.6V36l.4 4.6.15 1.85-.35.7-.45.95m.15-4.45-.35-7.9L6 37.1l-.45 1.6-2-1.3q1.5 2.8 3.95 5.25l.35-.65-.1-2.35m20.05 6.6 1.35-.65-2.2-1.75.85 2.4m-8.7-.2-3.6-9.15V46l-2.3.55q2.8 1.25 5.75 1.4l.65-.6-.5-1.3" fill="#046898"/><path d="m24.9 37.95-.4-.1-.2-.05h-.15l-.05.05q-1.5-.55-2.95-1.35l-2.6-1.5 5.95 1.35q3.5.45 7-.15l3.3-1.6.1-.05.25-.25 5.05-4.85q.95-3.65.3-9.3.85 2.5 1.15 5.75.4 6.85-8.85 11.85l-2.15.35-5.75-.15M9.2 26.2l-2.3-.3.05-.2q-.45-12.9 5.4-18l.45 1.75q-3.15 1.9-4.1 9.5l.5 7.25m15.9-4.25.4.75.1.1 1.5.65q-2.45 1.5-5.3-.75-4.15-5.45-.05-11.4Q27.2 7 35.2 12.85q2.6 1.65 4.15 4.55-3.3-3.9-7.05-5.65-5.4-1.55-10.2 1.3-1.4 5.5.95 8.2l2.05.7M6 37.1l1.4-5.35.35 7.9L6 37.1m21.8 9.15-.85-2.4 2.2 1.75-1.35.65m-8.7-.2-3.6-1.5V36.9l3.6 9.15" fill="#07a1bf"/><path d="M15.85 32.65q-2.6-2.65-4.6-6.15l-1.6-.25q0-10.6 3.65-14.55l1.6 6.65q-.2 6.1 3.85 9.75l3.15 2.6.1.05q7.3.4 12.3-4.75l.05-.1q.8-5.05-2.65-9.05l-1.3-1-.15-.1q-1.45-.9-3-.9l-2.15.4-.1.05q-1.95 2.45.1 6.65l-2.05-.7q-2.35-2.7-.95-8.2 4.8-2.85 10.2-1.3 3.75 1.75 7.05 5.65l.85 1.8q.25 4.6-.7 9.2l-.1.4-4.25 5.5-.25.25-.1.05-3.3 1.6q-3.5.6-7 .15l-8.65-3.7m-8.1 7 .1 2.35-.35.65Q5.05 40.2 3.55 37.4l2 1.3.45-1.6 1.75 2.55m7.75 4.9 3.6 1.5.5 1.3-.65.6q-2.95-.15-5.75-1.4l2.3-.55v-1.45" fill="#0efffa"/><path d="M31 2.25q4.4 1.1 8.75 3.25 4.3 6.45 5.35 13.25l-.65 1.4-.85-3q-2.25-3.9-5.35-6.5l-.1-.1Q36.1 6.05 31 2.25m1.65 40.6-.15 1.2-2.45 1.15-1.05-.65 3.65-1.7m-24.6.3.35-.7-.15-1.85 6.55 3.5-.05 1.45H11.3l-2-1.3v-.05l-1.25-1.05M19.4 45.4l7.3-.3.35 1.45-.15.1q-3.6 1.4-7.05 1.35l.4-.45-.85-2.15" fill="#3d3660"/><path d="M39.75 5.5q.65.3 1.35.7l3.05 4.4q2.95 7.45 2.35 13.5l-.1.95-.45-.15-.15-.05-1.35-4.7.65-1.4q-1.05-6.8-5.35-13.25m-7 36.7-.1.65-3.65 1.7-1-.65 4.75-1.7m-6.25 2.05.2.85-7.3.3-.3-.8 7.4-.35" fill="#2c2342"/><path d="m18.55 35-.65-.45-2.05-1.9 8.65 3.7L18.55 35m-8.9-8.75-.45-.05-.5-7.25q.95-7.6 4.1-9.5l.5 2.25q-3.65 3.95-3.65 14.55m16.5-3.65-.3-.15-.3-.5q-2-4.05-.25-6.35l1.3-.3-1.15.8q-.5 4.1.7 6.5m4.2-6.3.2.15q1.7 5.05 2.15 10.5-2.2 1.85-4.9 2.7 1.95-.75 3.5-4.2l.05-.2-1-8.95m-16.65-5-1-4-.05-.1-.15-.1q-.1 0-.15.1-1.4 1.1-2.45 2.7l-4.9.35q-1.8 3.9-1.85 10.4-.75-9 .4-15.35L13.75 7q4.45 1.1 7.6 2.85l-1.3 1.65q-.7 1.25-1.35 5.15.15 3.3 1.05 5.2l-1.8-3.25q-.4-4.25 0-5.6l-4.25-1.7m26.5 7.9.15.45.15.5q.65 5.65-.3 9.3l-5.05 4.85 4.25-5.5.1-.4q.95-4.6.7-9.2" fill="#fff"/><path d="m6.3 25.8-2-.25-.7-.1v-.05l-.45-4.75q.05-6.5 1.85-10.4l4.9-.35q-3.75 5.4-3.35 15.85v.1l-.25-.05m18.45-1.35h.3q1.35 0 2.6-.9l.05-.1v-.15l-.1-.1-1.45-.6q-1.2-2.4-.7-6.5l1.15-.8q1.95-.2 3.75 1l1 8.95-.05.2q-1.55 3.45-3.5 4.2-2.65.85-5.7.7L19 27.8h.05q-3.95-3.55-3.75-9.5v-.05l-1.6-6.95 4.25 1.7q-.4 1.35 0 5.6l1.8 3.25.5.95q1.05 1.3 2.4 1.6l2.1.05" fill="#8a61ec"/><path d="M30.55 39.25h-.9l-4.05-.7 1.15.1 3.9-.1-.1.7m0-22.8.85.7q3.25 3.8 2.55 8.65l-1.25 1.15q-.45-5.45-2.15-10.5" fill="#573798"/><path d="m45.45 25.6.1.2.6.1q-1.95 5.85-5.35 9.2-3.9 3.65-7.25 4.8l-.2.05h-.1l-2.1-.7h-.6l.1-.7 2.25-.35.05-.05q9.6-5.2 9.1-12.3-.9-9.8-6.6-13.35-8.3-6.1-13.95-1.55V11q-4.4 6.25 0 12v.05q1.7 1.3 3.25 1.4l-2.1-.05q-1.35-.3-2.4-1.6l-.5-.95q-.9-1.9-1.05-5.2.65-3.9 1.35-5.15l1.3-1.65Q18.2 8.1 13.75 7L3.55 5.3q6.9-1.8 13.45-.9h.05l1.25.2L25.4 6l4.6.85q4.75 1.9 8.95 5.3 4.8 4.5 6.2 12.9l.3.55" fill="#5b399b"/><path d="m2 25.45.55-.1q-1.5-12.5.05-20.6l.15-.25.25-.15Q9.9 2.5 16.4 3.3h.05v-.15l1.1.2v.05l.75.15.2.05 5.3 1.25 1.35.3L31.9 7l-.05.1q3.5 1.15 6.3 3.45l.1.1q3.1 2.6 5.35 6.5l.85 3 1.35 4.7.15.05-.5.7-.3-.55q-1.4-8.4-6.2-12.9-4.2-3.4-8.95-5.3L25.4 6l-7.1-1.4-1.25-.2H17q-6.55-.9-13.45.9-1.15 6.35-.4 15.35l.45 4.75v.05H2" fill="#3e2869"/><path d="M49.65 22.45q6-.15 9.3 2.35l-.65.3q-3.05-2.2-8.65-2.65M63 28l3.4 2.15q2.05 2.1 3.6 4.55L63 28M44.15 10.6q3.25 5.6 3.3 11v.1l-.4 3.55-.65-.2.1-.95q.6-6.05-2.35-13.5" fill="#c0fdfd"/><path d="M48.5 21.65q5.65-1 10.4 1.3l2.5 1.85-.9.45q4.4 1.8 6.9 4.25 4.05 5.5 6.55 10.45l-.95.95-1.2-2.95L70 34.7q-1.55-2.45-3.6-4.55L63 28q-2.7-1.5-5.4-2.55l.7-.35.65-.3q-3.3-2.5-9.3-2.35l-1.25.05.05-.45v-.2l.05-.15v-.05M60.65 53l-1.2 1.15-15.6-1q-8.45-.85-11.9-5.9l-.9-1.4 1.35-.6q1.8 3.5 7 5.9L60.65 53" fill="#632617"/><path d="m62.85 50.8-2.2 2.2-21.25-1.85q-5.2-2.4-7-5.9l.8-.4.2-.15.1-.25.5-3.9v-.25l.4-.2q2.95 4.65 5.6 7l-3.85-1.5 6.2 4.5q9.05 1.9 17.35.85l3.15-.15M48.4 22.5l1.25-.05q5.6.45 8.65 2.65l-.7.35Q60.3 26.5 63 28l7 6.7 1.8 3.25q-6.5-8.3-14.2-11.6l-5.25-.45 3-1.55L48.2 24l.2-1.5" fill="#8c3722"/><path d="m73 40.9-10.15 9.9-3.15.15Q51.4 52 42.35 50.1l-6.2-4.5L40 47.1q-2.65-2.35-5.6-7 3.6-1.3 6.35-3.95-.65 5.9 1.65 9.3l-3.6-3.95q1.2 5 4.05 7.45L43 49q3.95 1.8 9.6 1.1h.2l7.45-.4-5.3-17.75q-3.5-5.1-9.5-2.65l1.3-3.25 1.15.25.3-2.3 7.15.35-3 1.55 5.25.45q7.7 3.3 14.2 11.6L73 40.9" fill="#bb563f"/><path d="M40.75 36.15q2.75-2.75 4.7-6.85 6-2.45 9.5 2.65l5.3 17.75-7.45.4h-.2q-5.65.7-9.6-1.1l-.15-.05Q40 46.5 38.8 41.5l3.6 3.95q-2.3-3.4-1.65-9.3" fill="#e88046"/><path d="m26.75 38.65-1.85-.7 5.75.15 2.15-.35q9.25-5 8.85-11.85-.3-3.25-1.15-5.75l-.15-.5-.15-.45-.85-1.8q-1.55-2.9-4.15-4.55-8-5.85-13.45-1.55-4.1 5.95.05 11.4 2.85 2.25 5.3.75l-1.5-.65-.1-.1-.4-.75q-2.05-4.2-.1-6.65l.1-.05 2.15-.4q1.55 0 3 .9l.15.1 1.3 1q3.45 4 2.65 9.05l-.05.1q-5 5.15-12.3 4.75l-.1-.05-3.15-2.6q-4.05-3.65-3.85-9.75l-1.6-6.65-.5-2.25-.45-1.75q-5.85 5.1-5.4 18l-.05.2-.6-.1.25.05h.05l-.05-.1Q6.15 15.3 9.9 9.9q1.05-1.6 2.45-2.7.05-.1.15-.1l.15.1.05.1 1 4 1.6 6.95v.05q-.2 5.95 3.75 9.5H19l3.1 2.55q3.05.15 5.7-.7 2.7-.85 4.9-2.7l1.25-1.15q.7-4.85-2.55-8.65l-.85-.7-.2-.15q-1.8-1.2-3.75-1l-1.3.3q-1.75 2.3.25 6.35l.3.5.3.15 1.45.6.1.1v.15l-.05.1q-1.25.9-2.6.9h-.3q-1.55-.1-3.25-1.4V23q-4.4-5.75 0-12v-.05q5.65-4.55 13.95 1.55 5.7 3.55 6.6 13.35.5 7.1-9.1 12.3l-.05.05-2.25.35-3.9.1m4.65-21.5v-.05.05" fill="#0579a4"/></g><g id="C" fill-rule="evenodd"><path d="m19.25 24.85 1.05-1.6 1.1-3q3.4-3.5 7.05-4.9l.8 1.35q1.25 2.35 1.55 4.85l-.05 3.65-.55 2.45-.35.7-.6 1-1.5 2.35-.55.75q-2.55 3.35-6.35 6.7-1.4-2.2-2.05-5.65-.15-.75 0-1.55V30.3l.4-5.4.05-.05m12.5 9.9 1-1.3q.05-.1.15-.1v-.05l.3-.3q4.75-3.85 7.85-3.55 1.55 1.45.7 6.1l-.25 1.2-1.2 1.8-1.05 1.55-.15.1-1.95 1.75L35.8 43q-4 2.9-7.55 3.55-.65-1.8.55-6 .95-2.4 2-4.2l.35-.6.6-1m10.2 15.05-5.2.5q-4.65-.25-7.3-1.5l6.65-4.1 1.2-.75 1.2-.75 1.9-.1 3.3-.25q1.3 1.2 1.85 2.7l.05.1.15.45-.35.5-1.35 1.75-.4.3-.3.3-1.4.85m-31.7-10q-.7 3.7-.45 8.05-5.25-1.55-8.2-8.55-1.35-2.6-.7-7.75l.85-1L2 30.3l.85-1.15Q4.7 28.25 7 31.1l.7 1.1 1.55 2.45 1.45 2.4.15.2-.4 1.5-.2 1.05M7.6 32.95l-1.1-1.4-1.15-1.2q-2-2.1-2.9.35-.4 4.5 0 7.35 2.45 5.45 5.75 7.9l.05.2.1-.05q.3-5.95 1.3-9.15-.8-2.2-2.05-4M29.7 20.4q-.45-2.7-1.65-4.5l-6.3 4.65-1.3 3.95q-.7 8.15.65 12.45l.2.5L22.85 36l.2-.15q2.9-3.1 6.7-9.35.35-3.45-.05-6.1m11.4 10.3-.05-.15-.2-.7q-2.65.25-6.6 2.95-2.65 3.15-4.2 9.05l-.7 3.65q5.75-2.6 11.5-8.95l.05-.2q.4-1.75.4-3.3l-.2-2.35m-8.7 17.65-.3.15q5.7 1.9 11.35-1.2l.45-.2q1.05-.55 1-1.45-.1-.9-1.45-2.25l-4.45.75-6.6 4.2" fill="#503f72"/><path d="M5.85 38.6q1.3-1.75 1.75-5.65 1.25 1.8 2.05 4-1 3.2-1.3 9.15l-.15-.15Q6.95 43.4 5.85 38.6m17.2-2.75 2.75-4.95q1.95-4 3.9-10.5.4 2.65.05 6.1-3.8 6.25-6.7 9.35m18.25-2.8q0 1.55-.4 3.3l-.05.2q-5.75 6.35-11.5 8.95l1.95-2.3.1-.05 9.9-10.1m2.6 14.05-.45.2q-5.65 3.1-11.35 1.2l.3-.15 5.55-.75 5.95-.5" fill="#b4a7d2"/><path d="m6.5 31.55 1.1 1.4q-.45 3.9-1.75 5.65l-.1-.4q.8-1.95.75-6.65M28.05 15.9q1.2 1.8 1.65 4.5-1.95 6.5-3.9 10.5l-2.75 4.95-.2.15q4.75-9.8 5.2-20.1M41.1 30.7l.2 2.35-9.9 10.1 7.1-8.95 2.6-3.5m3.8 14.95q.05.9-1 1.45l-5.95.5 6.95-1.95" fill="#81789b"/><path d="M6.5 31.55q.05 4.7-.75 6.65l.1.4q1.1 4.8 2.35 7.35-3.3-2.45-5.75-7.9-.4-2.85 0-7.35.9-2.45 2.9-.35l1.15 1.2M28.05 15.9q-.45 10.3-5.2 20.1l-1.55 1.45-.2-.5q-1.35-4.3-.65-12.45l1.3-3.95 6.3-4.65m1.3 29.6.7-3.65q1.55-5.9 4.2-9.05 3.95-2.7 6.6-2.95l.2.7.05.15-2.6 3.5-7.1 8.95-.1.05-1.95 2.3m3.05 2.85 6.6-4.2 4.45-.75q1.35 1.35 1.45 2.25l-6.95 1.95-5.55.75" fill="#fff"/><path d="m10.65 17.1 6.9-2.1-.5 1.9.8 4.15q-2.9 2.2-5 1.95l.05-.25.55-2.1q-1.65.5-2.5 0l1.15-3.05-1.55.2.1-.7m8.2-1.35 1.45-4.55q2-4.6 6.3-9.55 1.35-.55 2.75-.75Q31.1 2.6 31.5 4l-1.4-1.15L28.95 5l-1.4-1.55-1.9 3.1-.5-.6q-2.65 2.25-3.9 7.9l3.55-4.1.6 1.1 3.2-3q.8-.15 2.05 2.95l1.1-.65-2.5 6.55-.8-1.35q-3.65 1.4-7.05 4.9-1.85-1.3-2.55-4.5m17.8 7.55L37.7 21l.25-.9q2.3-3.6 5.9-5.45l2.25.05q-4.15 1.6-6.1 5.1l3.9-2.35.45 2.75 4.05-1.95 1.5 4.65-2.7 4q-3.1 2.9-4.85 4l-.2-.75q-.8-1.1-1.55-1.3-2.2-.05-4.8.8-.7-2.05.85-6.35m-34.9 7.25q-.45-2.65 1-6l1.8-3.1 2.1-1.05v3l2.6-1.45q1 2.6 2.75 3.85-1.2 4.75-4.3 6.4L7 31.1q-2.3-2.85-4.15-1.95L2 30.3l-.25.25M40.4 43.1q-.1-2.45 3.7-3.4 3.65.65 3.2 3.55-.6 1.85-1.75 2.3-.55-1.5-1.85-2.7l-3.3.25" fill="#ffb067"/><path d="m17.85 21.05 1.15 3.4-3.05 1.45q-.55 6.3-6.7 8.75L7.7 32.2q3.1-1.65 4.3-6.4l.9.5q-.55-1-.05-3.3 2.1.25 5-1.95m2.45 2.2q-1.5-2.2-1.65-6.65l-.05-.2.25-.65q.7 3.2 2.55 4.5l-1.1 3M29.35.9 33 1l2.3 2.1.1 3.75q-.3-1-1-2.25l-.85 1.95-1.9-2.4L31.5 4q-.4-1.4-2.15-3.1m3.35 32.55.5-5.85q1.6-1.1 2.6-2.6l.2-.35.65-1.35q-1.55 4.3-.85 6.35l-.35.15q-2.6 1.75-2.25 3.2l-.3.3v.05l-.2.1m5.25-13.35.6-3.4q4.3-3.2 8.7-4.8 3.15 1.4 6.1 6.45l-.55 1.95-1.45-.45-.9-4-3.55 1.05-.25-2.45-.55.25-2.25-.05q-3.6 1.85-5.9 5.45m11.95 2.8.7-.35.9.85q-2.7 5.5-8.55 9.7l-.6-2.2q1.75-1.1 4.85-4l2.7-4M31.75 10.15l.3-.2.9 1.45.85 2.3.25.9q-1.65 5.3-3.25 6.95-.3-2.5-1.55-4.85l2.5-6.55m5.4 31.8 1.95-1.75.15-.1q6.25-1.55 10-6.85 4.3-.25 6-1.45l.65 7.1h-1.25q.45-2.85-1.35-5.3-1.3.25-2.3.75-2.2 1.05-3.25 3.4l4.25-1.2q1.15 3.2-.7 5.95h1.1l-1.55 1.75q-3.5 2.1-5.45 2.35l.35-.5-.15-.45-.05-.1q1.15-.45 1.75-2.3.45-2.9-3.2-3.55-3.8.95-3.7 3.4l-1.9.1-1.2.75-.15-2" fill="#e88046"/><path d="m19 24.45.2.35v.1l-.4 5.4-.65.55q-3.6 2.05-5.4 5.1l-2.05 1.1-1.45-2.4q6.15-2.45 6.7-8.75L19 24.45M35.3 3.1l2.35 3.45q.4 2.8.2 5.8l-2.8 8.8q-2.15 3-4.3 4.05l.05-3.65q1.6-1.65 3.25-6.95l.9 3.35q1.25-3.65.8-9.7l-.35-1.4-.1-3.75m16.2 20.3.25.75-.4 1.4-1.15 3.5-.15.4-.45.4q-4.4 3.75-7.85 5.7.85-4.65-.7-6.1-3.1-.3-7.85 3.55-.35-1.45 2.25-3.2l.35-.15q2.6-.85 4.8-.8.75.2 1.55 1.3l.2.75.6 2.2q5.85-4.2 8.55-9.7m-6.1 23.2q1.95-.25 5.45-2.35l1.55-1.75h.7l-.65 2.4q-4.35 2.45-8.4 3.45l1.35-1.75" fill="#bb563f"/><path d="m31.1 27.5-1.25.85.35-.7.55-2.45q2.15-1.05 4.3-4.05l2.8-8.8q-1.1 5.95-2.65 10.15l-4.1 5m-1.85 1.85 2.45-.9.05 6.3-.6 1-1.5-1.1-1.9-2.95 1.5-2.35m-18.55 7.7 2.05-1.1q1.8-3.05 5.4-5.1l.65-.55v1.65q-2.35.9-3.95 5.7l-4.4 1.1.4-1.5-.15-.2m29.6 1.5 1.2-1.8.25-1.2q3.45-1.95 7.85-5.7-3.1 4.7-8.35 8.5l-.95.2" fill="#8c3722"/><path d="M37.85 12.35q-.3 5.05-2.2 10.85-2.35 2.65-4.55 4.3l4.1-5q1.55-4.2 2.65-10.15m11.75 17.5.45-.4Q48.4 33.2 45.4 36l-.15.05q-2.2 1.75-4 2.3 5.25-3.8 8.35-8.5m-5.95 18.8.4-.3q4.05-1 8.4-3.45l-.15.65q-2.9 2.15-5.6 2.55l-3.05.55" fill="#c0fdfd"/><path d="M10.95 15.3q3.5-.65 6.95-1.9l.1-.45.2-.25q3-7.5 7.85-11.75 3.25-1.2 6.25-.9 3.3 1.75 5.35 4.85 1.65 5.65.95 11.6 4-4.25 9.15-5.2 3.8 1.35 6.65 6.5l.1.1-.75 4.95-.7-1.85-.25-.7.55-1.95q-2.95-5.05-6.1-6.45-4.4 1.6-8.7 4.8l-.6 3.4-.25.9-1.05 2.3-.65 1.35-.2.35q-1 1.5-2.6 2.6l-.5 5.85h.05l-1 1.3-.05-6.3-2.45.9.6-1 1.25-.85q2.2-1.65 4.55-4.3 1.9-5.8 2.2-10.85.2-3-.2-5.8L35.3 3.1 33 1 29.35.9q-1.4.2-2.75.75-4.3 4.95-6.3 9.55l-1.45 4.55-.25.65.05.2q.15 4.45 1.65 6.65l-1.05 1.6-.05-.05-.2-.35-1.15-3.4-.8-4.15.5-1.9-6.9 2.1.3-1.8m41.6 11.25-.05.25-.05.1-.8 1.8-1.35 2.8-.05.15-.65 1-.35.6q-3.75 5.3-10 6.85l1.05-1.55.95-.2q1.8-.55 4-2.3l.15-.05q3-2.8 4.65-6.55l.15-.4 1.15-3.5.4-1.4.8 2.4m3.35 4.65q1.9 4.45 1.3 8.9L56 39l-.1.1v-.2l-.65-7.1.65-.6m-4.1 16.2q-1.9 1.1-4.15 2l-5.7.4 1.4-.85.3-.3 3.05-.55q2.7-.4 5.6-2.55l-.5 1.85m-15.7-2.7-.3-1.7 1.35-1.05.15 2-1.2.75m-5.3-8.35-1.7-.85-1.9-3.05.55-.75 1.9 2.95 1.5 1.1-.35.6m-12-2.85q-1.55-.3-2.55 4-1.4 1.95-4.1 2.4l-1.9-.1.2-1.05 4.4-1.1q1.6-4.8 3.95-5.7-.15.8 0 1.55M.9 31.55Q-.65 30 .5 25.9q1.25-2.45 2.65-4.55l.05-.1 1.35.2-1.8 3.1q-1.45 3.35-1 6l-.85 1" fill="#632617"/><path d="M11 24.2q-.85-1.15-1.25-3.15l-2.7 1.35v-2.9l-1.1.3 1.85-2.3 2.1-.2v1.15l1.15-.2-.7 3h2.2L11 24.2m41.65-3.35-.7 2.65-.35-1.4h-1.3l-1.75-4.3-3.95 1.7-.5-2.5-3.05 1.7 2.1-2.05 3.05-1.7.4 2.5 3.6-.9 1.1 3.85 1.35.45M34.4 5.7q1.65 5.7.4 10.3l-1-4.35-1.7-2.35-.9.65-1.9-2.35h-.95l-2.7 2.6-.9-1.1-2.6 2.9 2.8-4.9.6.65 2.1-3.15 1.4 1.2 1.3-2.2 3.05 4 1-1.9m19.3 36.55.05-.6H52.3q.8-.9.8-4-.2-1.05-.7-1.35-.4-.35-1.45 0l-1.95.45q1-1.6 3.9-2.5l.55.25q.75 1.8.95 5.1l1.15-.1-1.85 2.75" fill="#0efffa"/><path d="m10.95 15.3-.3 1.8-.1.7 1.55-.2-1.15 3.05q.85.5 2.5 0l-.55 2.1-.05.25q-.5 2.3.05 3.3l-.9-.5q-1.75-1.25-2.75-3.85l-2.6 1.45v-3l-2.1 1.05-1.35-.2Q5 18.5 7 16.4l3.95-1.1m42.1 5.7.7 1.85-1.2 3.7-.8-2.4-.25-.75-.9-.85-.7.35-1.5-4.65-4.05 1.95-.45-2.75L40 19.8q1.95-3.5 6.1-5.1l.55-.25.25 2.45 3.55-1.05.9 4 1.45.45-.15.55.4.15m4.15 19.1q-.25 1.75-.9 3.5-1.85 2.15-4.5 3.8l.5-1.85.15-.65.65-2.4h-1.8q1.85-2.75.7-5.95l-4.25 1.2q1.05-2.35 3.25-3.4 1-.5 2.3-.75 1.8 2.45 1.35 5.3h1.25v.2l.1-.1 1.2 1.1M12.55 21.25h-2.2l.7-3-1.15.2V17.3l-2.1.2-1.85 2.3 1.1-.3v2.9l2.7-1.35q.4 2 1.25 3.15.4.65.95 1l.6-3.95m40.1-.4-1.35-.45-1.1-3.85-3.6.9-.4-2.5-3.05 1.7-2.1 2.05L44.1 17l.5 2.5 3.95-1.7 1.75 4.3h1.3l.35 1.4.7-2.65M31.5 4l.15.15 1.9 2.4.85-1.95q.7 1.25 1 2.25l.35 1.4q.45 6.05-.8 9.7l-.9-3.35-.25-.9-.85-2.3-.9-1.45-.3.2-1.1.65Q29.4 7.7 28.6 7.85l-3.2 3-.6-1.1-3.55 4.1q1.25-5.65 3.9-7.9l.5.6 1.9-3.1L28.95 5l1.15-2.15L31.5 4m2.9 1.7-1 1.9-3.05-4-1.3 2.2-1.4-1.2-2.1 3.15-.6-.65-2.8 4.9 2.6-2.9.9 1.1 2.7-2.6h.95l1.9 2.35.9-.65 1.7 2.35 1 4.35q1.25-4.6-.4-10.3m21.15 33.8-1.15.1q-.2-3.3-.95-5.1l-.55-.25q-2.9.9-3.9 2.5l1.95-.45q1.05-.35 1.45 0 .5.3.7 1.35 0 3.1-.8 4h1.45l-.05.6-.3 2.25q2.2-2.2 2.5-5.05l-.35.05" fill="#046898"/><path d="m12.55 21.25-.6 3.95q-.55-.35-.95-1l1.55-2.95m43 18.25.35-.05q-.3 2.85-2.5 5.05l.3-2.25 1.85-2.75" fill="#07a1bf"/><path d="m55.7 30.95.2.25-.65.6q-1.7 1.2-6 1.45l.35-.6q3.05-.1 6.1-1.7" fill="#a82806"/><path d="m52.45 26.9.8 1.05-1.6.75.8-1.8m2.25 2.85 1 1.2q-3.05 1.6-6.1 1.7l.65-1q2.7.55 4.45-1.9" fill="#ffdf1c"/><path d="m53.25 27.95 1.45 1.8q-1.75 2.45-4.45 1.9l.05-.15 1.35-2.8 1.6-.75" fill="#fffe0f"/></g><g id="D" fill-rule="evenodd"><path d="M69.3 75.6q3.5 4.95 5.3 12.25v.2l-.2.6q-2.7-2.15-5.15-7.9l-.1-.2.15-4.95m-7.35 21.55-.4 1.5q-4.7-4.4-10.35-15 1.2-5.2 3.4-8.65l1.8-.1q3.4 7.8 5.6 18.95l-.05 3.3m-17.05-1.1-.05.6q-3.35-2.4-5.95-8.2-1.25-5.3.75-8.5 2.4 4.4 4.35 12.25l.9 3.85" fill="#fff"/><path d="M70.9 74.85q3.6 7.75 3.7 13-1.8-7.3-5.3-12.25l.05-1.3q.75.1 1.55.55m-14.5.05 1.1.1q1.25.95 2.25 2Q61.9 86.25 62 93.85 59.8 82.7 56.4 74.9m-16.75 5.05.25-.4 1.7.4 1.2 3.4q1.15 5.75 1.2 8.85-1.95-7.85-4.35-12.25" fill="#81789b"/><path d="m70.9 74.85 2 1.5 1.7 4.45q.45 4.65 0 7.05-.1-5.25-3.7-13M59.75 77q2.1 2.1 3.1 4.75.5 9.75-.9 15.4l.05-3.3q-.1-7.6-2.25-16.85M41.6 79.95q1.1.5 2.45 1.8l.1.05q1.8 4.05 1.15 10.75l-.4 3.5-.9-3.85q-.05-3.1-1.2-8.85l-1.2-3.4" fill="#b4a7d2"/><path d="m75.15 74.4.65 2.15.2 2.55q-.2-1.2-.85-2.15V74.4m-27.2-27.75 4 4.3q4.5 5.25 8.6 12-7.45-9.6-13.7-15.9l1.1-.4M74.6 80.8l-1.7-4.45 1.25 1.25.45 3.2" fill="#c0fdfd"/><path d="m63.95 67.5 6.25.3 2.05 1.85q-.05 2.95-1.5 4.35l-1.7-.45-.4 1.7q-1.9.4-3.85-1.1-2.5-2.85-.85-6.65M48.3 75.35q1.3-3.2 3.35-5.6l2.85.25q1.45 1.4 1.6 4.25l-1.4.15Q53 76.3 52 78.75q-2.75-.7-3.7-3.4m-6.75 4-1.8-.5q-2.25 2.8-2.4 6.85l-.95-3.4q1.5-5.85 3.25-7.95 1.95 3.05 1.9 5" fill="#ffb067"/><path d="M72.25 69.65q1.2 1.3 2.1 2.95l.05.2-.8 2.6q-1.2-.85-2.85-1.4 1.45-1.4 1.5-4.35m-9.55-1.7 1.25-.45q-1.65 3.8.85 6.65 1.95 1.5 3.85 1.1-.3 1.55-.35 3.7l-3.6-1.4q-.95-2.6-2.85-5.55l-.25-.1q.1-2.55 1.1-3.95m-20.65 6.1q2.15.3 4.15 3.25l-.3 2.25.4 1.7.1.25-.7 1.4-.45-1.25q-1.95-1.55-3.7-2.3.05-1.95-1.9-5l2.4-.3m8.55 9.8q-2.75-1.7-3.15-5.95.35-1.35.85-2.55.95 2.7 3.7 3.4-1 2.3-1.4 5.1M54.5 70q2.25.35 4.25 1.4 2.15 3.25 2.1 5.85-2.75-2.8-4.75-3-.15-2.85-1.6-4.25" fill="#e88046"/><path d="m74.4 72.8.75 1.6v2.55L73.6 75.4l.8-2.6m-6.1 6.15-.05 1.2.75 2.7-3.6-2.7-.7-2.6 3.6 1.4m-10-8.75q-3.85-1.35-6.75-1.45-3.2 4.2-5.35 8.55-2-2.95-4.15-3.25 1.4-.35 2.9-1.2l-4.65-.25-.25-.6q.35-2.25-1.25-7.6 6.8.55 12.95-4.15l6.55 9.95M46.4 81.5l1.5 3.5-.95 2.85q-.1-1.7-1.15-4.7l-.1-.25.7-1.4m6.05 6.7L51 86.9q-2.25-2.1-4-7.25l.45-1.75q.4 4.25 3.15 5.95l1.85 4.35m6.3-16.8q1.55.75 2.9 1.85 1.1 1.6 1.8 3.15l.2.45v4.85l-1.45-2.95-1.35-1.5q.05-2.6-2.1-5.85" fill="#bb563f"/><path d="m60.55 62.95.1.2 2 3.45-1.3 1.85 1.35-.5q-1 1.4-1.1 3.95l-3.3-1.7-6.55-9.95q-6.15 4.7-12.95 4.15 1.6 5.35 1.25 7.6l-9.3-19.45 16.1-5.5q6.25 6.3 13.7 15.9M69 82.85l.3 1.15-3.7-1.85-.2-2 3.6 2.7M47.9 85l1.75 2.9q-1.15 2.1-2.7 2.3v-2.35L47.9 85m15.75-8.15.7 2.3v4l-.7-1.45v-4.85" fill="#8c3722"/><path d="m74.4 72.8-.05-.2q-.9-1.65-2.1-2.95L70.2 67.8l-6.25-.3-1.25.45-1.35.5 1.3-1.85-2-3.45-.1-.2q-4.1-6.75-8.6-12l-4-4.3 1.75-.55 5.6 6.8q4.35 5.1 8.9 12.85l6 .25q5.3 3.5 6.9 9v4.9l-.9 1.1-.1-.8-.1-1.1-.2-2.55-.65-2.15-.75-1.6M69.3 84l.35 1.4-.05.15-3.9-1.65-.65.8-.7-1.55v-4l-.7-2.3-.2-.45q-.7-1.55-1.8-3.15-1.35-1.1-2.9-1.85-2-1.05-4.25-1.4l-2.85-.25q-2.05 2.4-3.35 5.6-.5 1.2-.85 2.55L47 79.65q1.75 5.15 4 7.25l1.45 1.3.3.7.5.9-2.5-.55q-1.95 2.7-3.9 2.65l.1-1.7q1.55-.2 2.7-2.3L47.9 85l-1.5-3.5-.1-.25-.4-1.7.3-2.25q2.15-4.35 5.35-8.55 2.9.1 6.75 1.45l3.3 1.7.25.1q1.9 2.95 2.85 5.55l.7 2.6.2 2L69.3 84m-31.9 4.1-.8-2.45-1.05-1.05q-.7-1.65-.9-3.3 1.55-5.65 4-8l-9.4-19.85 1.5-.9L40.05 72l.25.6 4.65.25q-1.5.85-2.9 1.2l-2.4.3q-1.75 2.1-3.25 7.95l.95 3.4.05 2.4" fill="#632617"/><path d="m76 79.1.1 1.1.1.8v.25q.6 6.8-.1 11.05-3.15-2.5-6.25-6.65l-.2-.25-.35-1.4-.3-1.15-.75-2.7.05-1.2q.05-2.15.35-3.7l.4-1.7 1.7.45q1.65.55 2.85 1.4l1.55 1.55q.65.95.85 2.15m-3.1-2.75-2-1.5q-.8-.45-1.55-.55l-.05 1.3-.15 4.95.1.2q2.45 5.75 5.15 7.9l.2-.6.05.05-.05-.25q.45-2.4 0-7.05l-.45-3.2-1.25-1.25m-7.85 8.35.1.15-.35.65q-.05 7.4-1.55 12.3l-1 3.6q-4.5-4.3-9-11.6l-.5-.9-.3-.7-1.85-4.35q.4-2.8 1.4-5.1 1-2.45 2.7-4.35l1.4-.15q2 .2 4.75 3l1.35 1.5 1.45 2.95.7 1.45.7 1.55m-18.2 7.2-.75 7.35q-5.75-3.85-8.6-10.7l-.1-.2v-.25l-.05-2.4q.15-4.05 2.4-6.85l1.8.5q1.75.75 3.7 2.3l.45 1.25.1.25q1.05 3 1.15 4.7v2.35l-.1 1.7M59.75 77q-1-1.05-2.25-2l-1.1-.1-1.8.1q-2.2 3.45-3.4 8.65 5.65 10.6 10.35 15l.4-1.5q1.4-5.65.9-15.4-1-2.65-3.1-4.75M41.6 79.95l-1.7-.4-.25.4q-2 3.2-.75 8.5 2.6 5.8 5.95 8.2l.05-.6.4-3.5q.65-6.7-1.15-10.75l-.1-.05q-1.35-1.3-2.45-1.8" fill="#503f72"/><path d="M36 23.05q-3.15-1.75-5.55-2.1 1.7-.6 4.65 0l.9 2.1M27.85 9.9l1.75 1.9-1.9-.55 1.95 3q-2.6-.5-7.6.75l-4.85 2.2 1.6-2.65q3.2-3.1 6.25-3l-1.75-2.3q3 0 4.55.65m8.55 32.65.2 1.85-5.25-1.65-1.85-.9h5.15l.45-1.5 1.3 2.2m5.2 10.05-5-1.25q-4.85-2.05-6.75-3.45l10.2 1.6 1.55 3.1" fill="#0efffa"/><path d="m38.6 19 1.2 1.75-2.2-.55.45 4.05Q37 23.6 36 23.05l-.9-2.1 1.05.25-1.75-2.65 4.2.45M27.85 9.9l.35.05.75-.45 5.2 4.2-2.65-1.35-1.9-.55-1.75-1.9" fill="#07a1bf"/><path d="m41.35 19.4.3.45.15.2 1.05 1.5.55.9-2.55-.65-.8-.25-1.4-.35-.45-.15q.65 1.75.6 3l-.05.3-.3.9-.25-.15-1.9-1.1q-3.85-2.1-7.6-3.4 2.5-1.05 6.65 0l-1.9-2.35q1.7-.3 3.55-.05l1 .15.7.2q1.3.3 2.65.85M29.75 8.65q5.75 3.8 9.9 8.65-1-.05-2.5-.95l-1-.6-1.3-.9q-2.95-1.45-6.35-2.8l2.35 3q-2.65-.55-6.6 0l-2.75.9-.05.05-2.3.85-1.5.65-.95.45q-.2-1.05 1.3-3.1l.55-.75.8-.6q2.75-2.2 4.85-2.45l-1.85-1.9.65-.1 5.15.4v-.8h1.6m10.05 12.1.55.15-1-1.75-.75-.15-4.2-.45 1.75 2.65-1.05-.25q-2.95-.6-4.65 0 2.4.35 5.55 2.1 1 .55 2.05 1.2l-.45-4.05 2.2.55M29.6 11.8l1.9.55 2.65 1.35-5.2-4.2-.75.45-.35-.05q-1.55-.65-4.55-.65l1.75 2.3q-3.05-.1-6.25 3l-1.6 2.65 4.85-2.2q5-1.25 7.6-.75l-1.95-3 1.9.55" fill="#046898"/><path d="m43.4 22.45 1.2 2.05h-1.25q2.3 3.7 2.65 7.1l-1.95-1.25-.4-.2-2.8-8.35 2.55.65M19.9 49.6q-8.4-3.45-13.55-12.85l-.15-.25Q1.95 29.35.35 22.45l.85-2Q4 30.5 9.15 38.75q1.9 2.6 3.9 4.6 3.3 3.2 6.85 4.8v1.45m-4.5-46 .85-.6 9.5 3.25q2.1 1.15 4 2.4h-1.6v.4Q22.9 5.6 15.4 3.6m24.25 13.7 1.7 2.1q-1.35-.55-2.65-.85l-1.55-2.2q1.5.9 2.5.95" fill="#632617"/><path d="m38 18.35-1-.15-1.8-2.5-.35-.85 1.3.9 1.85 2.6m.2 6.75.25.15.3-.9 2.1 2.45-2.2-5.6 1.4.35 2.8 8.2q-1.85-.9-3.65-1.65l-1-3m-18.15 21-.15 2.05q-3.55-1.6-6.85-4.8 3.8 2.25 7 2.75" fill="#8c3722"/><path d="m38.7 18.55-.7-.2-1.85-2.6 1 .6 1.55 2.2m1.35 3 .8.25 2.8 8.35-.8-.4-2.8-8.2M38.6 19l.75.15 1 1.75-.55-.15L38.6 19m.4 10.45L42.15 31l5.75 3.55q1.2 3.75 1.05 8.35-.65-4.75-2.05-7.55-4.2-3.8-7.9-5.9m10.15 17.8.2-.95 1.35.75q.15 1.55-.2 3.5-.55-2.85-1.35-3.3" fill="#c0fdfd"/><path d="m1.85 19 3.85-8.85 7.35-4.95L23 9.05l-.65.1 1.85 1.9q-2.1.25-4.85 2.45l-6-6.55 4.65 7.9q-1.5 2.05-1.3 3.1l.95-.45 1.5-.65 2.3 5.3-3.8-4.65 2.1 11.5Q17 27.4 13.8 22.5l3.7 10q1.85 5.25 3.55 6.65l-.65 3.95-3.15-1.3q-6.4-3.1-11.2-11.85L1.85 19m31.6-.75 1.9 2.35q-4.15-1.05-6.65 0 3.75 1.3 7.6 3.4l1.1 3.35q-3.25-1.3-6.35-2.2l-4.6-6.4 1.2 5.5-1.2-.3-4.95-8 2.75-.9q3.95-.55 6.6 0l2.6 3.2M15.25 32.2l-.1-.2-4.65-5.65q1.65 6.85 7.4 11.25-.25-1.5-2.65-5.4" fill="#e88046"/><path d="M1.2 20.45 1.85 19l4.2 10.95q4.8 8.75 11.2 11.85l3.15 1.3-.35 3q-3.2-.5-7-2.75-2-2-3.9-4.6Q4 30.5 1.2 20.45M13.05 5.2l2.35-1.6q7.5 2 12.75 5.45v.4L23 9.05 13.05 5.2M37 18.2q-1.85-.25-3.55.05l-2.6-3.2-2.35-3q3.4 1.35 6.35 2.8l.35.85 1.8 2.5m-.7 5.8 1.9 1.1 1 3-1.8-.75L36.3 24m2.45.35.05-.3q.05-1.25-.6-3l.45.15 2.2 5.6-2.1-2.45m-32.7 5.6.05.15-.05-.15" fill="#bb563f"/><path d="m19.35 13.5-.8.6-.55.75-4.65-7.9 6 6.55m-.2 3.35 2.3-.85.05-.05 4.95 8q-1.95 1.85-3.55 7.2-1.15 4.25-1.85 8-1.7-1.4-3.55-6.65l-3.7-10q3.2 4.9 5.95 6.5l-2.1-11.5 3.8 4.65-2.3-5.3m8.5 7.4-1.2-5.5 4.6 6.4-3.4-.9m-12.4 7.95q2.4 3.9 2.65 5.4-5.75-4.4-7.4-11.25L15.15 32l.1.2" fill="#ffb067"/><path d="m46 31.6 3.05 2q2.2 4.8 1.55 11.75l1.85 1.6-1.35 6.9L48 60.3l-10.95 2.65-5.8-1.45-1.6-1.65-.35-1.8q-4.55-.8-7-3l-2.3-2.3-.1-3.15v-1.45l.15-2.05.35-3 .65-3.95q.7-3.75 1.85-8 1.6-5.35 3.55-7.2l1.2.3 3.4.9q3.1.9 6.35 2.2l1.8.75q1.8.75 3.65 1.65l.8.4.4.2L46 31.6m-18.95-6.8-.25-.1q-2 4.6-3.75 11.5-1.7 9.95-1.5 16.45l.3.4q1.05 1.45 3.6 2.45l.25.1q2.15.85 5.35 1.4l14.2.65.25-.4q1.9-3.7 2.8-8.6l.05-.25q.5-2.9.6-5.5.15-4.6-1.05-8.35L42.15 31 39 29.45l-4.3-1.9q-4-1.65-7.65-2.75M50.5 50.55q.35-1.95.2-3.5l-1.35-.75-.2.95-1.35 6.8-1.65 3.5-.35.75q-8.35 1-15.15-.65l.6 2.25L38 61.25l9.65-2.2.1-.25q2.1-4.8 2.75-8.25" fill="#503f72"/><path d="M39.1 56.5q-10.25-1.2-14.55-5-1.35-11.75 4.15-22.7 5.2.8 10.1 3.55 3.5 1.95 6.85 4.95 1.65 5.75.1 13.2l-.05.25-.05.15q-.8 3.6-1.95 5.6h-4.6M36 31.8q-3.95-1.75-7.2-2.3l-.15.5-3 8.9-.65 5.3q-.3 3.95.2 6.7 4.2 3.65 12.9 5h5.35l.6-1.05q.6-1.35 1.2-3.9 1.3-6.85 0-13.5L42.7 35.3q-3.6-2.15-6.7-3.5" fill="#161224"/><path d="M27.05 24.8q3.65 1.1 7.65 2.75l.95 2.75-.45-.3q-4.1-1.75-6.75-1.95l-1.4-3.25M25.7 55.6l-.25-.1q-2.55-1-3.6-2.45l2.55-.8 4.45 2.15-3.15 1.2m23.45-8.35q.8.45 1.35 3.3-.65 3.45-2.75 8.25l-1.6-1.25 1.65-3.5 1.35-6.8" fill="#81789b"/><path d="m21.85 53.05-.3-.4q-.2-6.5 1.5-16.45 1.75-6.9 3.75-11.5l.25.1 1.4 3.25q2.65.2 6.75 1.95l.45.3 3.15 2.05q-4.9-2.75-10.1-3.55-5.5 10.95-4.15 22.7 4.3 3.8 14.55 5l-3.85-.1-6-1.8-.4-.2-4.45-2.15-2.55.8" fill="#fff"/><path d="m44.05 54.85-.6 1.05H38.1q-8.7-1.35-12.9-5-.5-2.75-.2-6.7l3.3-7.4 3.95 4.35-4.2.1 1.05.8q2.5 1.8 5.9 2.5l3.8 4.25-10.15-1.6Q35 52.85 43.2 53.3l.85 1.55" fill="#564e84"/><path d="m25 44.2.65-5.3 3-8.9 6.2 8.95-.55 2.1-2.05.1-3.95-4.35-3.3 7.4m12.2-1 2.95 5.05-.2.75-1.15-.2-3.8-4.25 2.3.35-.1-1.7" fill="#8e7bd2"/><path d="m34.85 38.95.8-2.8q1.2 2.6 1.55 7.05l.1 1.7-2.3-.35q-3.4-.7-5.9-2.5l-1.05-.8 4.2-.1 2.05-.1.55-2.1m5.3 9.3.25-.75.95-9.85q3.4 7.45 1.85 15.65-8.2-.45-14.55-6.1l10.15 1.6 1.15.2.2-.75m-5.05-7.9-.45 1.5H29.5l1.85.9 5.25 1.65-.2-1.85-.65-4.6-.65 2.4m6.5 12.25 1.1.3q.55-7.25-.95-12.8l-1.25 9.45-.45-.05-10.2-1.6q1.9 1.4 6.75 3.45l5 1.25" fill="#046a98"/><path d="m35.1 40.35.65-2.4.65 4.6-1.3-2.2m4.95 9.15.45.05 1.25-9.45q1.5 5.55.95 12.8l-1.1-.3-1.55-3.1" fill="#08a6c3"/><path d="m28.65 30 .15-.5q3.25.55 7.2 2.3 3.8 9.15 4.4 15.7l-.25.75-2.95-5.05q-.35-4.45-1.55-7.05l-.8 2.8-6.2-8.95" fill="#2c2342"/><path d="M36 31.8q3.1 1.35 6.7 3.5l2.55 2.15q1.3 6.65 0 13.5-.6 2.55-1.2 3.9l-.85-1.55q1.55-8.2-1.85-15.65l-.95 9.85q-.6-6.55-4.4-15.7" fill="#3d3660"/><path d="m34.7 27.55 4.3 1.9q3.7 2.1 7.9 5.9 1.4 2.8 2.05 7.55-.1 2.6-.6 5.5l-.05.25q-.9 4.9-2.8 8.6l-.25.4-14.2-.65q-3.2-.55-5.35-1.4l3.15-1.2.4.2 6 1.8 3.85.1h4.6q1.15-2 1.95-5.6l.05-.15.05-.25q1.55-7.45-.1-13.2-3.35-3-6.85-4.95l-3.15-2.05-.95-2.75M47.75 58.8l-.1.25-9.65 2.2-6.75-1.35-.6-2.25q6.8 1.65 15.15.65l.35-.75 1.6 1.25" fill="#b4a7d2"/><path d="M16.2 6.75 2.9 18.1.4 11.9l4.65-4.05 8.4-5.25 2.75 4.15" fill="#fff"/><path d="M19.75 1.95 21.7 4.6l-5.5 2.15-2.75-4.15 6.3-.65" fill="#81789b"/><path d="m16.2 6.75 5.5-2.15-1.95-2.65 1.45-.15 5.35 5.4-2.85-1.7-8.1 2.65-12.2 11-.5-1.05L16.2 6.75" fill="#b4a7d2"/><path d="M26.55 7.2 21.2 1.8l1.05-.1 5.4 4.8v1.35l-1.1-.65" fill="#c0fdfd"/><path d="m3.4 19.15 12.2-11 8.1-2.65 2.85 1.7 1.1.65V6.5l-5.4-4.8-1.05.1-1.45.15-6.3.65-8.4 5.25L.4 11.9l-.4-1 9.7-7.4 3.2-2L21.3 0q4.1 1.85 7.25 5.9v3.5L24 6.55l.1-.1-7.95 2.15L12 11.9l-8.4 7.85-.2-.6" fill="#503f72"/></g><g id="E" fill-rule="evenodd"><path d="m21.6 2.2-.75-.75-.6.1q-3.65.6-8.5 2.85l-3.4-1.9q-2.8 1.4-5.6 11.75l-1.45 6.9q4.8 8.65 11.25 12.1l.35.2 5.2-3.25 1.85-1.1q4.8-2.95 9.4-9.85-.55-7-2.45-11.3l-.45-.9L21.6 2.2m5.85 5.05q2.4 3.8 3.4 11.35l-1.8 3.15q-5.4 7.6-15.95 13.55l-6.6-4.5Q2.1 27.35 0 21.4q.3-3.9 2.65-11.15l.05-.3q1.95-6.5 6-8.35l3.05 1.5L19.5 0q5.7 2.55 7.95 7.25" fill="#503f72"/><path d="m11.4 8.05 5.2-2.55 1.6-.8 5.05 4.1.1.4q1.45 6 1.15 9.6-4.7 7-11.65 10.75Q5.3 25.5 2.75 21.1 3 12.7 7.65 5.4l3.75 2.65m7.2 16.35q2.85-2.15 5.5-6.35l-1.3-9-4.65-3.65-1.9.95-3.85 2-.9.45-3.85-2.85-.6 1.3q-3.3 7.2-3.7 12.95l.1.2Q5 23.65 8.6 26l.8.7.25.15q2.1 1.7 3.1 1.8l.3-.2 4.1-2.5 1.45-1.55" fill="#161224"/><path d="m16.5 10.25 1.85-1.05-1.75 2.65Q14.2 15.1 11.5 17q-2.95-2.9-3.4-5l-.1-.95 3.15 2.15.8-.45 4.55-2.5m.5 6.05 3.85-3.25-3.5 6.35L15 22.95q-1.55 1.8-2.65 2.6l-.75.45-3.15-4.85-2.1-5.25 1.7 1.7 3.45 3.35L17 16.3m-4.75-3.05-1.1.65-2.65-1.65 3.2 4.3.4-.5 4.95-5.65-4.8 2.85m-.1 7.8-.3.2h-.65L7.55 17.6l4.15 7.8.3-.4q3.55-3.4 7.05-9.4l-6.9 5.45" fill="#046898"/><path d="m12.1 16.05.15-2.8 4.8-2.85-4.95 5.65M12 25l.15-3.95 6.9-5.45q-3.5 6-7.05 9.4" fill="#07a1bf"/><path d="m18.6 24.4-1.45 1.55-4.1 2.5-.7-2.9q1.1-.8 2.65-2.6l2.35-3.55 1.25 5M12.4 8.35l3.85-2 .25 3.9-4.55 2.5.45-4.4m4.2 3.5.4 4.45-5.5 4.65V17q2.7-1.9 5.1-5.15" fill="#2c2342"/><path d="m16.25 6.35 1.9-.95 4.65 3.65 1.3 9q-2.65 4.2-5.5 6.35l-1.25-5 3.5-6.35L17 16.3l-.4-4.45 1.75-2.65-1.85 1.05-.25-3.9" fill="#3d3660"/><path d="M12.55 33.25Q6.1 29.8 1.3 21.15l1.45-6.9Q5.55 3.9 8.35 2.5l3.4 1.9q4.85-2.25 8.5-2.85l-8.4 3.4-.45 3.1L7.65 5.4Q3 12.7 2.75 21.1q2.55 4.4 10.1 8.45Q19.8 25.8 24.5 18.8q.3-3.6-1.15-9.6l1.15.8.85 7.1q.15 2.15-2.55 5.45-3.45 3.6-6.45 5.6L12.1 30.7l.45 2.55" fill="#fff"/><path d="m20.25 1.55.6-.1.75.75-4.95 1.95-.05 1.35-5.2 2.55.45-3.1 8.4-3.4M18.1 30.2l-5.2 3.25-.35-.2-.45-2.55 4.25-2.55q3-2 6.45-5.6-.45 1.6-5 5.35l.3 2.3" fill="#81789b"/><path d="m21.6 2.2 4.85 4.85.45.9 1.65 10.4-.05.2q-1.3 3.2-8.55 10.55l-1.85 1.1-.3-2.3q4.55-3.75 5-5.35 2.7-3.3 2.55-5.45L24.5 10l-1.15-.8-.1-.4-5.05-4.1-1.6.8.05-1.35L21.6 2.2" fill="#b4a7d2"/><path d="M26.9 7.95q1.9 4.3 2.45 11.3-4.6 6.9-9.4 9.85 7.25-7.35 8.55-10.55l.05-.2-1.65-10.4" fill="#bbd9eb"/><path d="m13.05 28.45-.3.2q-1-.1-3.1-1.8l-.25-.15-.95-5.55L11.6 26l.75-.45.7 2.9m-6-21.2.6-1.3L11.5 8.8l.9-.45-.45 4.4-.8.45L8 11.05V8.4l-.95-1.15M8.1 12q.45 2.1 3.4 5v3.95L8.05 17.6 8.1 12" fill="#8e7bd2"/><path d="m12.1 16.05-.4.5-3.2-4.3 2.65 1.65 1.1-.65-.15 2.8M12 25l-.3.4-4.15-7.8 3.65 3.65h.65l.3-.2L12 25" fill="#0efffa"/><path d="m9.4 26.7-.8-.7Q5 23.65 3.45 20.4l-.1-.2q.4-5.75 3.7-12.95L8 8.4v2.65l.1.95-.05 5.6-1.7-1.7 2.1 5.25.95 5.55" fill="#564e84"/></g><use ffdec:characterId="2" height="44.45" transform="translate(2.4)" width="109.95" xlink:href="#t" id="c"/><use ffdec:characterId="7" height="51.95" width="49.8" xlink:href="#u" id="d"/><use ffdec:characterId="9" height="44.95" width="48.9" xlink:href="#v" id="e"/><use ffdec:characterId="11" height="36.2" width="63.9" xlink:href="#w" id="p"/><use ffdec:characterId="24" height="94.05" width="75.15" xlink:href="#x" id="g"/><use ffdec:characterId="26" height="65" width="72.8" xlink:href="#y" id="h"/><use ffdec:characterId="28" height="80.7" width="71.15" xlink:href="#z" id="r"/><use ffdec:characterId="30" height="54.1" width="38.3" xlink:href="#A" id="s"/><use ffdec:characterId="37" height="54.15" width="73.95" xlink:href="#B" id="k"/><use ffdec:characterId="39" height="50.3" width="57.35" xlink:href="#C" id="l"/><use ffdec:characterId="41" height="101.4" width="77.1" xlink:href="#D" id="m"/><use ffdec:characterId="43" height="35.3" width="30.85" xlink:href="#E" id="n"/><path d="M27.15-.6q0 1.8-8.15 3Q10.9 3.7-.6 3.7l-19.65-1.3q-8.1-1.2-8.1-3 0-1.75 8.1-3.05L-.6-4.9 19-3.65q8.15 1.3 8.15 3.05" fill-opacity=".349" fill-rule="evenodd" transform="translate(28.35 4.9)" id="b"/><path d="m63.15 0 .5 1.2.25 1.95q0 1.95-1.7 4.6-1.05 1.65-2.35 2.5l-.6 1q-.75 1.25-.75 1.8 0 .75.75 1.15.65.3.7.9l.4 1.5-1.3 1.75-1.85 1.75h-5.4q-2.1 0-3.05 2.1-.2.3-.95.65l-.85.45-.9 1.15-3 2.3q-1.95.95-5.25 1.2h-5.05l-3.2-.45H26.8q-1.35.15-2.95 1l-2.2 1.2-.1-.15q0-.4.55-.9h-.45q-1.25 0-1.95-.7-.7-.75-1.55-.75l-.75.05-.05.05-.35.05-.2.05-.95.2h-.1l-2.35.5q-1.35.35-2.9 1.7-1.45 1.3-1.8 2.25L7.4 34.3q-1.4 1.9-3 1.9-1.5 0-1.5-1.1l.2-.8.2-.7-1.1-.7q-1.15-.75-1.4-3.1l-.5-2.05q-.3-.85-.3-1.8 0-4.5 4.45-5.35 2.65-.55 3-1.35-.1-.9.1-1.4.1-.7.8-1.4.9-.9 2.3-1.3l3.05-.1q.9-.1 2.55-.8.9-.25 1.15.3l1.2-.3 1.75-.2 1.55.25q5.1-.25 6.95-1.4 1.4-.8 1.25-2.6-.2-2.4 0-2.95.45-1.15 2.35-1.9.9-.75 2-.75l.65.2.05.05h.1l.1.25-.1.15-1.25.4-.55.35Q31.7 7.3 31.7 8.3q0 .8 1.35 1.7l1 .7q1.2.15 1.8.7l1 1.1q.3.35 2 .35l2.1-.25H41l.35-.25.95-.65.15-.2.6-.65.5-1.4.4-1.95.2-1.95q.35-2.15 2.9-4Q49.65-.4 55.2 2.7q-1.25-.35-3.1 0-1.9.35-2.55 1.6-.4.75-.4 1.6 0 .55 1.6 1.4 1.2.7 1.5 1.4l.65-.25q.4-1.5 2.55-2.65l1.6-.4 2.1-.6 1.05-.75 1.15-.9q.8-.65 1.5-2.05l.3-1.1M38.5 5.75q.5.45.5 1.05 0 .85-1.35 1.3l-.25-.25.9-1-.3-.9q0-.7.5-.2" fill="#fffc11" fill-rule="evenodd" id="w"/><path d="M.95.35.5.2.05.05" fill="none" stroke="red" stroke-linecap="round" stroke-linejoin="round" stroke-width=".1" id="j"/></defs></svg>