<svg xmlns:ffdec="https://www.free-decompiler.com/flash" xmlns:xlink="http://www.w3.org/1999/xlink" ffdec:objectType="frame" height="90" width="90" xmlns="http://www.w3.org/2000/svg"><use ffdec:characterId="39" height="106.7" transform="translate(8 -18.15)" width="80.25" xlink:href="#a"/><defs><use ffdec:characterId="1" height="26.05" width="95.45" xlink:href="#b" id="q"/><use ffdec:characterId="3" height="356.8" width="670.45" xlink:href="#c" id="r"/><use ffdec:characterId="5" height="386.35" width="391.05" xlink:href="#d" id="s"/><use ffdec:characterId="7" height="436.15" width="238.1" xlink:href="#e" id="t"/><use ffdec:characterId="9" height="146.05" width="215.6" xlink:href="#f" id="u"/><use ffdec:characterId="11" height="165.2" width="325.25" xlink:href="#g" id="v"/><use ffdec:characterId="13" height="203.15" width="113.15" xlink:href="#h" id="w"/><use ffdec:characterId="15" height="300.3" width="489.2" xlink:href="#i" id="x"/><use ffdec:characterId="17" height="354.3" transform="translate(12.75 233.85)" width="332.15" xlink:href="#j" id="y"/><use ffdec:characterId="24" height="136.1" width="181.2" xlink:href="#k" id="z"/><use ffdec:characterId="26" height="173.2" width="162.05" xlink:href="#l" id="A"/><use ffdec:characterId="28" height="298.55" width="350.4" xlink:href="#m" id="B"/><use ffdec:characterId="30" height="94.3" transform="translate(3.45)" width="210.1" xlink:href="#n" id="C"/><use ffdec:characterId="35" height="99.2" width="97.5" xlink:href="#o" id="D"/><use ffdec:characterId="37" height="113" width="120.1" xlink:href="#p" id="E"/><g id="a" transform="translate(-8 18.15)"><use ffdec:characterId="2" height="26.05" transform="translate(12.342 74.055) scale(.5566)" width="95.45" xlink:href="#q"/><use ffdec:characterId="4" height="356.8" transform="translate(26.222 44.122) scale(.0925)" width="670.45" xlink:href="#r"/><use ffdec:characterId="6" height="386.35" transform="translate(19.722 50.422) scale(.0925)" width="391.05" xlink:href="#s"/><use ffdec:characterId="8" height="436.15" transform="translate(8.122 3.822) scale(.0925)" width="238.1" xlink:href="#t"/><use ffdec:characterId="10" height="146.05" transform="translate(42.022 52.572) scale(.0925)" width="215.6" xlink:href="#u"/><use ffdec:characterId="12" height="165.2" transform="translate(38.422 43.022) scale(.0925)" width="325.25" xlink:href="#v"/><use ffdec:characterId="14" height="203.15" transform="translate(16.872 26.222) scale(.0925)" width="113.15" xlink:href="#w"/><use ffdec:characterId="16" height="300.3" transform="translate(21.872 21.772) scale(.0925)" width="489.2" xlink:href="#x"/><use ffdec:characterId="23" height="588.15" transform="translate(29.392 -18.17) scale(.0925)" width="355.45" xlink:href="#y"/><use ffdec:characterId="25" height="136.1" transform="translate(16.322 42.322) scale(.0925)" width="181.2" xlink:href="#z"/><use ffdec:characterId="27" height="173.2" transform="translate(28.972 46.372) scale(.0925)" width="162.05" xlink:href="#A"/><use ffdec:characterId="29" height="298.55" transform="translate(22.122 25.822) scale(.0925)" width="350.4" xlink:href="#B"/><use ffdec:characterId="34" height="94.3" transform="translate(28.48 31.25) scale(.0925)" width="213.55" xlink:href="#C"/><use ffdec:characterId="36" height="99.2" transform="translate(24.672 47.522) scale(.0925)" width="97.5" xlink:href="#D"/><use ffdec:characterId="38" height="113" transform="translate(28.572 41.222) scale(.0925)" width="120.1" xlink:href="#E"/></g><g id="c"><path d="m348.4 322-18.65-18.65q-11.7-11.65-20.55-25.7-6.6-10.55-12.1-21.85-5.3-10.95-8.6-22.6-4.55-15.95-4.2-32.45.2-10.55 4.1-20.45 4.8-12.3 17.55-16.05 16.15-4.7 32.95-2.95 15.5 1.35 30 6.85 13.9 5.15 26.45 12.8 12.85 7.7 24.8 17.15 12.55 9.9 24.5 20.6 10.9 9.8 17.05 14.05 6.1 4.2 18.3 17.2 12.15 12.95 17.95 16.6 5.8 3.6 10.45 10.65 9.15 14.05 15.35 29.85 4.6 11.75-2.1 22.35-5.9 9.2-15 15.3-3.1 2.1-6.3 3.7-15.25-2.95-28.75-9-20-8.85-32.9-25.75l-2.45-3.35q-11.8-17.05-24.95-33.65-11.25-14.3-22.05-28.75 1.75 14.95 1.75 17.8 0 13.9-10.15 38.25l-3 7.05q-6.9 2.3-16.5 6.05L348.4 322m23.7-103.7q3.6 11.25 10.55 20.75l6.6 8.85-6.6-8.85q-6.95-9.5-10.55-20.75M10.6 139.75q.8 16.65 2.85 33.25 5.1 41.4 17.9 81.2 12.2 37.95 44.35 62l1.4 1.05q-21.35 6.6-41.9-1.95l-4.95-2-6.1-2.4Q1.35 275.65.1 226.95q-1.1-43.75 10.5-87.2" fill="#f53c3c" fill-rule="evenodd" transform="translate(3 3)"/><path d="M500.35 348.4q3.2-1.6 6.3-3.7 9.1-6.1 15-15.3 6.7-10.6 2.1-22.35-6.2-15.8-15.35-29.85-4.65-7.05-10.45-10.65-5.8-3.65-17.95-16.6-12.2-13-18.3-17.2-6.15-4.25-17.05-14.05-11.95-10.7-24.5-20.6-11.95-9.45-24.8-17.15-12.55-7.65-26.45-12.8-14.5-5.5-30-6.85-16.8-1.75-32.95 2.95Q293.2 168 288.4 180.3q-3.9 9.9-4.1 20.45-.35 16.5 4.2 32.45 3.3 11.65 8.6 22.6 5.5 11.3 12.1 21.85 8.85 14.05 20.55 25.7L348.4 322l-9 3.05q-12.05 3.65-21.5 3.65-14.4 0-28.7-7.8-5.2-2.85-25.45-17.15-16.65-11.75-30.1-17.15-19.45-7.8-42.65-7.8-30.9 0-60 13.8l-.35-.9q-8.45 4-19.2 10.1-12.8 7.2-17.5 9.45-7.75 3.7-16.4 5.85l-.45.15-1.4-1.05q-32.15-24.05-44.35-62-12.8-39.8-17.9-81.2-2.05-16.6-2.85-33.25 3.65-13.85 8.65-27.65Q36.2 65 61.35 21.9L72.5 3.6l.3-1.1 141-1.95q81.55 38.2 109.2 64.7 18.25 17.45 38 41.4 13.3 16.1 34.3 44.15 18.55 24.75 56.6 51.1 38 26.35 64.55 40.6 26.5 14.2 60.4 13.15 35.5-8.4 79.75 32.2l-18.4 1.05q-28.45 3-45 18.9-16.55 15.9-34.6 30.35-18.05 14.45-42.35 12.4l-15.9-2.15M377.85 311l3-7.05Q391 279.6 391 265.7q0-2.85-1.75-17.8 10.8 14.45 22.05 28.75 13.15 16.6 24.95 33.65l2.45 3.35q-14.75-5.8-18.85-6.8-6.15-1.5-11.65-1.5-11.05 0-24.05 3.65l-6.3 2M133.1 290.5q-1.2.55-2.45 1.2 1.25-.65 2.45-1.2" fill="#792344" fill-rule="evenodd" transform="translate(3 3)"/><path d="M656.6 287.85q-44.25-40.6-79.75-32.2-33.9 1.05-60.4-13.15-26.55-14.25-64.55-40.6-38.05-26.35-56.6-51.1-21-28.05-34.3-44.15-19.75-23.95-38-41.4-27.65-26.5-109.2-64.7l13.45-.2.4-.35 22.75 8.15 2.55 1.15 6.05 2.9q34.65 17.8 66.1 47.95 18.25 17.45 38 41.4 13.3 16.1 34.3 44.15 18.55 24.75 56.6 51.1 38 26.35 64.55 40.6 26.5 14.2 60.4 13.15 37.8-8.95 85.5 37.65l-7.85-.35" fill="#f2e36c" fill-rule="evenodd" transform="translate(3 3)"/><path d="m351.4 325 12.95-4.95q9.6-3.75 16.5-6.05l6.3-2q13-3.65 24.05-3.65 5.5 0 11.65 1.5 4.1 1 18.85 6.8l-2.45-3.35q-11.8-17.05-24.95-33.65-11.25-14.3-22.05-28.75l-6.6-8.85q-6.95-9.5-10.55-20.75m284.5 69.55 7.85.35q-47.7-46.6-85.5-37.65-33.9 1.05-60.4-13.15Q495 226.15 457 199.8q-38.05-26.35-56.6-51.1-21-28.05-34.3-44.15-19.75-23.95-38-41.4Q296.65 33 262 15.2l-6.05-2.9-2.55-1.15L230.65 3m-.4.35-13.45.2-141 1.95m-.3 1.1L64.35 24.9Q39.2 68 22.25 115.1q-5 13.8-8.65 27.65Q2 186.2 3.1 229.95q1.25 48.7 24.05 83.95l6.1 2.4 4.95 2q20.55 8.55 41.9 1.95l.45-.15q8.65-2.15 16.4-5.85 4.7-2.25 17.5-9.45 10.75-6.1 19.2-10.1 1.25-.65 2.45-1.2m523.5-2.65-18.4 1.05q-28.45 3-45 18.9-16.55 15.9-34.6 30.35-18.05 14.45-42.35 12.4l-15.9-2.15q-15.25-2.95-28.75-9-20-8.85-32.9-25.75M134 295.6q29.1-13.8 60-13.8 23.2 0 42.65 7.8 13.45 5.4 30.1 17.15 20.25 14.3 25.45 17.15 14.3 7.8 28.7 7.8 9.45 0 21.5-3.65l9-3.05" fill="none" stroke="#3a0e29" stroke-linecap="round" stroke-linejoin="round" stroke-width="6"/></g><g id="d"><path d="m236.5 177.85 2.35-.3q12.25-2 20.45-11.4 2.15 3.35 4.95 6 5.9 5.45 12.7 9.45l2 1.1q5.9 3.2 10.45 7.9 2.45-1.8 5.2-3.25l1.1-.6 6.8-2.9q2.55-.95 4.5-2.8l3.85-3v.05q0 13.95-1.05 27.85-.75 9.5-5.75 17.4l-1.75 2.1-2.95-11.15-1.3-4.9q-.9 12.45-9.95 20.65l-.4.05q0-13.35-8.75-23.8l-2-2.15-.6-.6q-2.7-2.35-5.8-3.7-2.2-.95-4.6-1.35 1-2.5.7-4.3-.75-4.15-8.2-5.05-1.85-.25-3.35.95l-.6.6-1.75 1.45q-11.05-5.35-16.25-14.3m52.9 12.75q-4.55 3.25-8.3 7.6l-4.15 4.7-.6.65.6-.65 4.15-4.7q3.75-4.35 8.3-7.6m-214.15-7.15q12.05-1.4 26.5 7.3l2.5 1.65q2.4 1.8 4.4 4.05 2.1-2.1 4.6-3.9 6.3-4.65 9.8-6.75 4.7-2.85 6.4-4.75 2.5-2.7 2.5-6.4l-.85-4.8-.05-.2 2.1-1.5 6.25 7.55q2.75 2.3 9.15 2.3 2.3 0 7.3-1.4l1.55-.4q-1.5 3.15-3.8 6.05-4.95 6.15-15.8 10.55l-.1.05-2.55-2.4-.3-.25q-3.9-3.15-8.1 1.15-3.1 3.25-2.5 6.5-6.7 1.05-10.75 5.7-2.3 2.6-3.75 6.3-3.75 9.6-5.15 19.75l-1.95-1.75q-8.15-7.65-10.85-16.1l-4.2 13.85q-14.9-18.85-12.5-41.65l.15-.5m33.4 13 2.25 2.85 2.6 4.25-2.6-4.25-2.25-2.85" fill="#871249" fill-rule="evenodd" transform="translate(3 3)"/><path d="M178.6 138.8q3.45 1.75 3.45 4.65 0 4.65-5.5 6.35-3.35 1.05-9.65 1.05-9.45 0-19.8-8.45-10.15-8.3-10.9-16.05l1.45-.3q1.9 2.55 9.6 5.85l5.95 2.3 5.75 1.8q6.6 1.4 13.8 1.4 3.1 0 5.85 1.4m-59.9-35.05q1.5-.85 3.3-.85 2.5 0 4.2 1.75 1.7 1.8 1.7 4.65 0 6.7-6.75 6.7-2.25 0-3.95-1.7-1.7-1.75-1.7-4.15 0-1.55.5-2.75.8-2.05 3-3.1l-.3-.55m20.8 96q2.25.25 8.15 4.75l6.6 5.35-1.9.2q-3.45 0-8.75-2.1-6.45-2.5-6.45-5.6 0-1.05.7-1.9v-.05h.05l.55-.55.1-.05.65-.1.3.05m13.15 30.4q-9.6-1.85-13.65-2.9l-7.8-1.85q-3.3-.9-5.85-2.95-.95 1.65-1.7 4.9-.75 3.25-.75 5.6-1.5-2.3-1.5-5.85 0-6.2 3.1-10.85 2.85-4.3 7.9-6.6 2.15.95 3.4 2.85l3.05 7.85q1 2.6 5.75 5.7 3.95 2.55 8.1 4.05l-.05.05M77.75 360.2q-28.35-10.7-56.1-27l-4.2-8.05Q10 308.65.2 293.6l-.2-.35q.85-6.35 3.7-11.7 5.9 1.7 10.65 7.25 4.9 5.65 8.6 15.4 8.1 21.35 21.1 32.95 13 11.55 19.85 12.3-.5-3.85-1.75-7.45-6.1-18.05-9.15-36.75l8.3-.7q3 15.55 8 30.6l8.45 25.05M11.2 289.95l3.15-1.15-3.15 1.15m155.8-76.7.35.05.4.05q1.55.2 1.55 1.1 0 .65-1.75 1.25l-2.2.45-1.25-.15q-.55-.25-.55-1.15 0-.9.5-1.25l.45-.2.1-.05 2.4-.1" fill="#fff555" fill-rule="evenodd" transform="translate(3 3)"/><path d="m343.2 263.85-1.6-4.85q8-.2 15.75 2.65 22.4 8.45 27.7 30.75l-.8 1.25q-3 4.8-5.75 10l-.6-5.7q-1.4-8.8-6.55-16.05-4.7-6.6-11.85-10.85-7.35-4.35-15.4-6.9l-.9-.3M95.15 83.05q12.45-10.4 29.35-12.1 22.85-2.65 44.45 5.35 23.25 8.6 33.45 30.95 6.3 13.8 3.15 27.75-2.7 11.9-14.15 17.15-14.95 6.65-31.1 9.05 14.25 4.7 30.3 5.25 3.75 2.1 6.95 4.7 3.35 2.7 6.1 5.95 9.2 10.75 8.8 21.65-.25 7.35-3 11.7 6.55-.9 12.75-2.65l.2 2.15q0 6.75-14.8 10.85-5.7 1.55-12.45 2.5l-.25.05-20.1 1.25 18.8 1.45q-4.7 7.4-13.65 12.6-12.7 6.65-16.35 9.1-2.9 1.95-6.8 6.2l-3.2 3.6q-3.5-4.75-15.25-9.9-14.35-5.55-18.5-7.8-3.65-1.95-6.8-4-4.7-3-8.45-6.25 1.4-10.15 5.15-19.75 1.45-3.7 3.75-6.3 4.05-4.65 10.75-5.7-.6-3.25 2.5-6.5 4.2-4.3 8.1-1.15l.3.25 2.55 2.4.2.15-.1-.2q10.85-4.4 15.8-10.55 2.3-2.9 3.8-6.05 2.45-5.4 2.6-11.6v-3.35l.3-.05-.3-.1q-22.75-7.6-40.85-25.75-16.4-16.5-21.8-38.8-1.3-5.35-1.95-11l-.25-2.5m83.45 55.75q-2.75-1.4-5.85-1.4-7.2 0-13.8-1.4l-5.75-1.8-5.95-2.3q-7.7-3.3-9.6-5.85l-1.45.3q.75 7.75 10.9 16.05 10.35 8.45 19.8 8.45 6.3 0 9.65-1.05 5.5-1.7 5.5-6.35 0-2.9-3.45-4.65M116 107.4q-.5 1.2-.5 2.75 0 2.4 1.7 4.15 1.7 1.7 3.95 1.7 6.75 0 6.75-6.7 0-2.85-1.7-4.65-1.7-1.75-4.2-1.75-1.8 0-3.3.85l-1.1.7q-1.5 1.25-1.6 2.95m22.45 92.45-.55.55h-.05v.05q-.7.85-.7 1.9 0 3.1 6.45 5.6 5.3 2.1 8.75 2.1l1.9-.2-6.6-5.35q-5.9-4.5-8.15-4.75l-1.05.1m-14.2-2q.3 1.9 2 3.85l.95 1 1.3 1.15 1.25 1.05q19.15 15.35 43.4 19.45l.5.1-.5-.1q-24.25-4.1-43.4-19.45l-1.25-1.05-1.3-1.15-.95-1q-1.7-1.95-2-3.85m28.45 32.25q-4.15-1.5-8.1-4.05-4.75-3.1-5.75-5.7l-3.05-7.85q-1.25-1.9-3.4-2.85-5.05 2.3-7.9 6.6-3.1 4.65-3.1 10.85 0 3.55 1.5 5.85 0-2.35.75-5.6.75-3.25 1.7-4.9 2.55 2.05 5.85 2.95l7.8 1.85q4.05 1.05 13.65 2.9h.25l-.2-.05M82 248.6q-.4 3.55-.4 6.95 0 6.7 2.15 12.35 3.65 9.6 13.55 16.1 12.75 8.35 28.7 8.35l10.9-.15q4.5-.4 10.9-3.95 2.4 6.55 13.2 12.25l.6.3.2.15q3.7 1.85 8.25 3.6 8.75 3.4 19.25 4.4l9.05.4 7.55-.5.85.1 1.05-.05 3.15-.35q-5.7 5.55-13.5 7.9-8.1 2.6-16.75 2.95-8.25.4-16.4-.45l-12-1-14.3-1.55-17.8-2.75-14.4-3.5q-6.9-1.9-13.65-4.5-6.9-2.6-13.3-5.45-6.2-2.8-12.2-6.05-7.3-3.9-14.05-8.55l-3.1-2.25-12.05 9.45q-5.6-6.2-14.4-5.75 8.8-.45 14.4 5.75 3.8 4.25 6.05 11.6l1.15 3.55q4.1-1.85 8.35-2.7 3.05 18.7 9.15 36.75 1.25 3.6 1.75 7.45-6.85-.75-19.85-12.3-13-11.6-21.1-32.95-3.7-9.75-8.6-15.4-4.75-5.55-10.65-7.25 1.7-3.35 4.2-6.3 16-19.05 39.8-13.65-5.85 14.55-19.25 23.15-2.5 1.6-5.4 2.3-4.05.2-8.7 1.75 4.65-1.55 8.7-1.75 2.9-.7 5.4-2.3 13.4-8.6 19.25-23.15 1.4-3.65 2.4-7.6 4.3-17.25 19.2-25.4 2.25 11.9 12.7 20m91.65-24.15v.15h1.15l-1.15-.15M77.75 360.2l-8.45-25.05q-5-15.05-8-30.6l4.5.4q25.9 3.1 36.2 26.9 16.55-7.9 34.9-9.35 19.75-1.4 37.05 7.8 8.95 4.8 17.25 10.85 14.4-11.75 32.4-16.3 19.4-4.85 39.1-.65 7.15 1.55 13.85 4.25l7.9 3.65 2.15-3.65q4.9-7.65 12.15-13.45 2.1-1.65 4.25-3.05l-6.25 14.7q-7.7 17.85-32 28.35-24.35 10.5-50.75 12.55-26.45 2.05-51.65-.6-24.45-2.5-49.2-3.9-11.3-.15-22.15 1.8l-13.25-4.65m160.4-101.75q-5.3-7.5-16.25-10.95-12.45-3.9-19.95-10.8-5.05-4.65-7.8-10.65l6.55-.15 4.2 1.35q7.45 2.05 16.15 1.85 8.9-.2 14.05 6 4.55 5.45 4.55 13.3 0 5.55-1.5 10.05m-73.55-45.1-.1.05-.45.2q-.5.35-.5 1.25t.55 1.15l1.25.15 2.2-.45q1.75-.6 1.75-1.25 0-.9-1.55-1.1l-.4-.05-.35-.05-1.15-.05-1.25.15M137.9 193q3.6 3.15 7.85 5.3 25.95 13.6 55.7 12.95l8-.8-8 .8q-29.75.65-55.7-12.95-4.25-2.15-7.85-5.3" fill="#ffb536" fill-rule="evenodd" transform="translate(3 3)"/><path d="m341.6 259 1.6 4.85.25.6q4.9 12.9 14.5 22.95-9.6-10.05-14.5-22.95l.65-.3q8.05 2.55 15.4 6.9 7.15 4.25 11.85 10.85 5.15 7.25 6.55 16.05l.6 5.7q-5.35 10-9.8 21.35.4-3.4.4-7.45 0-12.65-2.3-20.2-1.8-5.8-5.4-10.55-1.75.05-3.45.6-3.3.9-6.05 2.8-4.7-3.2-8.5-9.8-2.4-4.1-8-18.15l-2-4.7q-3.15-6.8-6.7-11.4-3.9-5.05-9.05-8.6l.35-1.15 1.3-5.35q16.65 5.3 21.4 24.7l.5 1.8.4 1.45m-3.95 47.2-1.55 4.25q-3.05 7.85-7.25 15.2-4.4 7.7-9.95 14.6l-9.35 10.55q-5 5.15-10.45 9.7l-2.5.85q-106.05 36.2-205.6 3.5 10.85-1.95 22.15-1.8 24.75 1.4 49.2 3.9 25.2 2.65 51.65.6 26.4-2.05 50.75-12.55 24.3-10.5 32-28.35l6.25-14.7q-2.15 1.4-4.25 3.05-7.25 5.8-12.15 13.45l-2.15 3.65-7.9-3.65q-6.7-2.7-13.85-4.25-19.7-4.2-39.1.65-18 4.55-32.4 16.3-8.3-6.05-17.25-10.85-17.3-9.2-37.05-7.8-18.35 1.45-34.9 9.35-10.3-23.8-36.2-26.9l-4.5-.4-8.3.7q-4.25.85-8.35 2.7l-1.15-3.55q-2.25-7.35-6.05-11.6l12.05-9.45 3.1 2.25q6.75 4.65 14.05 8.55 6 3.25 12.2 6.05 6.4 2.85 13.3 5.45 6.75 2.6 13.65 4.5l14.4 3.5 17.8 2.75 14.3 1.55 12 1q8.15.85 16.4.45 8.65-.35 16.75-2.95 7.8-2.35 13.5-7.9l1-.15 7.45-1.65q17.9-4.95 22.35-19.75 4.95 2.55 10.8 3.2 9.95 1.35 19.95.25 9.5-1.05 17.75-5.4 9-4.85 13.45-13.8l1.75-4.05q6.45 4.5 9.75 11.6l1.35 2.9q3.7 7.85 6.25 16.45.5 1.75.4 3.65l-.25 3.05q-10.45.85-19.95 7.1 9.5-6.25 19.95-7.1 7.1-.6 14.7 1.35M371 289.6q-2.1-1.4-4.55-2.15-2.5-.8-5.05-.65 2.55-.15 5.05.65 2.45.75 4.55 2.15M281.7.15l6.25-.15q19.95 30.9 15.6 68.95-1 8.6-3.05 16.6-1.5 5.65-3.55 11-9.55 25.15-31.25 43.65-15.75 13.5-33.95 20.05.35 10.1 4.75 17.6 5.2 8.95 16.25 14.3l-4.55 3.35q-6.25-2.15-12.7-9.2-8.6-9.4-8.6-17.9 0-1.6.75-6.75l.2-1.45.25-1.45q8.55-4.4 16.8-9.55 22.3-13.85 35.9-35.25 13.6-21.4 16.55-49 2.95-27.65-4.75-44.9-5.75-13-10.9-19.9m-28.65.5q15 31.6 13.75 66.65-1.2 34.35-17.45 64.55-8.35 15.5-21 25.25-4.05 3.1-8.55 5.65l-2.15 1-1.95.85q-11.5 2.15-23.85 1.85h-1.25 1.25q12.35.3 23.85-1.85l1-.2.9-.15q-.35 2.1-.35 3.15 0 11.65 7.35 22.65 6.05 9.05 13.2 11.65-7.5 3.75-15.6 6.1 8.1-2.35 15.6-6.1 4.2-2.15 8.25-4.75 2.9 1.05 4.35 2.25 3 2.6 3 8.15 0 2.2-.4 3.85-9.8 6.2-21 9.65l-.45.15.5.05 6 .15q8.3 0 14.3-1.85 6.05-1.9 9-1.9 5.25 0 6.9 4.4 1.05 2.75 1.05 9.65 0 3.8-.85 9.9l-.1.05-3.25 1.45q-4.85 2.05-9.7 4.35-8.55 3.9-15.15 10.9l-1.35 1.45-.75-1.15q1.5-4.5 1.5-10.05 0-7.85-4.55-13.3-5.15-6.2-14.05-6-8.7.2-16.15-1.85l-4.2-1.35q11-.5 22-2.75l8.85-2.15-8.85 2.15q-11 2.25-22 2.75-2.8-1.05-5.6-2.45l.05-.15q6.75-.95 12.45-2.5 14.8-4.1 14.8-10.85l-.2-2.15q-6.2 1.75-12.75 2.65 2.75-4.35 3-11.7.4-10.9-8.8-21.65-2.75-3.25-6.1-5.95-3.2-2.6-6.95-4.7-16.05-.55-30.3-5.25 16.15-2.4 31.1-9.05 11.45-5.25 14.15-17.15 3.15-13.95-3.15-27.75-10.2-22.35-33.45-30.95-21.6-8-44.45-5.35-16.9 1.7-29.35 12.1-.6-6.25-.4-12.9Q95.8 33.35 111.6 3.2L253.05.65m-21.3 159.6-4.1 1.4 4.1-1.4m32.8 41.05 1.4-2.8q2.4.4 4.6 1.35 3.1 1.35 5.8 3.7l.6.6 2 2.15q8.75 10.45 8.75 23.8v.35q-2.5 2.25-5.35 4 .5-3.95-.55-8.35-1.65-6.75-4.85-12.15-4.4-7.35-11.7-12.2l-.7-.45" fill="#9d4931" fill-rule="evenodd" transform="translate(3 3)"/><path d="M317.65 237.55q5.15 3.55 9.05 8.6 3.55 4.6 6.7 11.4l2 4.7q5.6 14.05 8 18.15 3.8 6.6 8.5 9.8 2.75-1.9 6.05-2.8 1.7-.55 3.45-.6 3.6 4.75 5.4 10.55 2.3 7.55 2.3 20.2 0 4.05-.4 7.45l-1.8 4.85-.15.35q-34.15 18.55-67.65 30.3 5.45-4.55 10.45-9.7l9.35-10.55q5.55-6.9 9.95-14.6 4.2-7.35 7.25-15.2l1.55-4.25 1.45.4.7-1.3q3.45-6.4 8.25-11.75 1.75-1.95 3.85-3.35-2.1 1.4-3.85 3.35-4.8 5.35-8.25 11.75l-.7 1.3-1.45-.4q-7.6-1.95-14.7-1.35l.25-3.05q.1-1.9-.4-3.65-2.55-8.6-6.25-16.45l-1.35-2.9q-3.3-7.1-9.75-11.6 1.7-4.65 2.05-9.65v-5.05l-.15-2.4q4.8-3.25 8.15-8.35 1.3-1.9 2.15-4.2M253.05.65l28.65-.5q5.15 6.9 10.9 19.9 7.7 17.25 4.75 44.9-2.95 27.6-16.55 49-13.6 21.4-35.9 35.25-8.25 5.15-16.8 9.55l-.25 1.45-.2 1.45-10.05 2.6 10.05-2.6q-.75 5.15-.75 6.75 0 8.5 8.6 17.9 6.45 7.05 12.7 9.2l4.55-3.35 1.75-1.45.6-.6q1.5-1.2 3.35-.95 7.45.9 8.2 5.05.3 1.8-.7 4.3l-1.4 2.8q-.35.5-.4 1.5l1.1-1.05q7.3 4.85 11.7 12.2 3.2 5.4 4.85 12.15 1.05 4.4.55 8.35l-2.9 1.65-1.1.55-1.4.7-8.5 4.05q.85-6.1.85-9.9 0-6.9-1.05-9.65-1.65-4.4-6.9-4.4-2.95 0-9 1.9-6 1.85-14.3 1.85l-6-.15-.05-.2q11.2-3.45 21-9.65.4-1.65.4-3.85 0-5.55-3-8.15-1.45-1.2-4.35-2.25l2.15-1.45-2.15 1.45q-4.05 2.6-8.25 4.75-7.15-2.6-13.2-11.65-7.35-11-7.35-22.65 0-1.05.35-3.15l-.9.15-1 .2 1.95-.85 2.15-1q4.5-2.55 8.55-5.65 12.65-9.75 21-25.25 16.25-30.2 17.45-64.55 1.25-35.05-13.75-66.65m11.1 202.15q-4.55 4-9.5 7.3l-1.65 1.1 1.65-1.1q4.95-3.3 9.5-7.3" fill="#6f2b1d" fill-rule="evenodd" transform="translate(3 3)"/><path d="m319.3 231.05-1.3 5.35-.35 1.15q-.85 2.3-2.15 4.2-3.35 5.1-8.15 8.35-.75-8.75-3.05-17.25l-2-7.4 1.75-2.1q5-7.9 5.75-17.4 1.05-13.9 1.05-27.85 1.95 3.15 2.9 7.3l3.6 16.1q1.7 7.55 2.5 15.4.75 7.2-.55 14.15M83.75 267.9q4.5 4.1 9.65 7.1 11.15 6.5 22.65 6.5 7.6 0 11.85-2.05 6.55-3.15 6.55-11.25 0-4.35-3.75-10.1-2.4-3.65-8.3-10.45-6.2-7.1-8.3-10.15l-1.05-1.65q3.15 2.05 6.8 4 4.15 2.25 18.5 7.8 11.75 5.15 15.25 9.9l-1.7 2.1q-1.2 1.55-3.75 8.9-2.55 7.35-.9 17.6l.55 2.1q-6.4 3.55-10.9 3.95l-10.9.15q-15.95 0-28.7-8.35-9.9-6.5-13.55-16.1m127.2 40.65-3.15.35-1.9-.05q-4-.5-7.55.5l-9.05-.4q-10.5-1-19.25-4.4-4.55-1.75-8.25-3.6 4.75 2.2 13 3.5l8.1.85q15.85 0 28.5-9.3 12.7-9.4 12.7-21.4 0-7.1-3.5-12.9-2.1-3.4-7.85-9.25t-8-9.55q-1.8-2.95-2.8-6.2 7.5 6.9 19.95 10.8 10.95 3.45 16.25 10.95l-.15.45-1.8 5.15L240 266l2.1 1.05q3.6 1.9 5.1 3.1 1.65 1.25 6.7 3 5.2 1.8 7.6 1.8 9.75 0 14.7-11.7 1.15-2.7 1.95-5.7 1.85-6.9 1.85-15.35l-.05-1.9.75-.1q1.25-2.75 1.65-5.75 2.85-1.75 5.35-4l.4-.4q9.05-8.2 9.95-20.65l1.3 4.9 2.95 11.15 2 7.4q2.3 8.5 3.05 17.25l.15 2.4v5.05q-.35 5-2.05 9.65l-1.75 4.05q-4.45 8.95-13.45 13.8-8.25 4.35-17.75 5.4-10 1.1-19.95-.25-5.85-.65-10.8-3.2-4.45 14.8-22.35 19.75l-7.45 1.65-.1-.75-.9.9m30.8-21.55q1.3-4.4 1.4-9.65.1-5.65-1.05-10.3 1.15 4.65 1.05 10.3-.1 5.25-1.4 9.65" fill="url(#F)" fill-rule="evenodd" transform="translate(3 3)"/><path d="m104.25 192.4.4-.65q2.6-7.85 12.55-14.05l8.35-4.75 5.45-3.25.1.15.85 4.8q0 3.7-2.5 6.4-1.7 1.9-6.4 4.75-3.5 2.1-9.8 6.75-2.5 1.8-4.6 3.9-2-2.25-4.4-4.05m-29.15-8.45q-2.4 22.8 12.5 41.65l4.2-13.85q2.7 8.45 10.85 16.1l1.95 1.75q3.75 3.25 8.45 6.25l1.05 1.65q2.1 3.05 8.3 10.15 5.9 6.8 8.3 10.45 3.75 5.75 3.75 10.1 0 8.1-6.55 11.25-4.25 2.05-11.85 2.05-11.5 0-22.65-6.5-5.15-3-9.65-7.1-2.15-5.65-2.15-12.35 0-3.4.4-6.95.75-7.25 3.1-15.3l2.5-7.7-2.5 7.7q-2.35 8.05-3.1 15.3-10.45-8.1-12.7-20-1.9-9.75 1.6-22 3.15-11.1 3.85-22.65h.35m78.5 73.6 3.2-3.6q3.9-4.25 6.8-6.2 3.65-2.45 16.35-9.1 8.95-5.2 13.65-12.6h.55q2.75 6 7.8 10.65 1 3.25 2.8 6.2 2.25 3.7 8 9.55 5.75 5.85 7.85 9.25 3.5 5.8 3.5 12.9 0 12-12.7 21.4-12.65 9.3-28.5 9.3l-8.1-.85q-8.25-1.3-13-3.5l-.2-.15-.6-.3q-10.8-5.7-13.2-12.25l-.55-2.1q-1.65-10.25.9-17.6 2.55-7.35 3.75-8.9l1.7-2.1m126.35-17.25.05 1.9q0 8.45-1.85 15.35-.8 3-1.95 5.7-4.95 11.7-14.7 11.7-2.4 0-7.6-1.8-5.05-1.75-6.7-3-1.5-1.2-5.1-3.1-1.1-4.1-3.2-7.45l1.35-1.45q6.6-7 15.15-10.9 4.85-2.3 9.7-4.35l3.25-1.45.05.1.05-.15 8.5-4.05 1.4-.7 1.1-.55.5 4.2" fill="url(#G)" fill-rule="evenodd" transform="translate(3 3)"/><path d="m346.2 266.85-1.6-4.85-.4-1.45-.5-1.8q-4.75-19.4-21.4-24.7m32.6 59.15q2.75-1.9 6.05-2.8-9.6-10.05-14.5-22.95l-.25-.6m35.3 39.8q2.75-5.2 5.75-10l.8-1.25q-5.3-22.3-27.7-30.75-7.75-2.85-15.75-2.65m19.8 27.8q-1.75.05-3.45.6m-6.05 2.8q-2.1 1.4-3.85 3.35-4.8 5.35-8.25 11.75l-.7 1.3-1.45-.4q-7.6-1.95-14.7-1.35-10.45.85-19.95 7.1-2.15 1.4-4.25 3.05-7.25 5.8-12.15 13.45l-2.15 3.65-7.9-3.65q-6.7-2.7-13.85-4.25-19.7-4.2-39.1.65-18 4.55-32.4 16.3-8.3-6.05-17.25-10.85-17.3-9.2-37.05-7.8-18.35 1.45-34.9 9.35-10.3-23.8-36.2-26.9l-4.5-.4-8.3.7q-4.25.85-8.35 2.7l-1.15-3.55q-2.25-7.35-6.05-11.6-5.6-6.2-14.4-5.75 2.9-.7 5.4-2.3 13.4-8.6 19.25-23.15 1.4-3.65 2.4-7.6 4.3-17.25 19.2-25.4m229.8 131.9q33.5-11.75 67.65-30.3l.15-.35 1.8-4.85q4.45-11.35 9.8-21.35m-17.1-16.85q2.55-.15 5.05.65 2.45.75 4.55 2.15M256.05 3.65l28.65-.5 6.25-.15q19.95 30.9 15.6 68.95-1 8.6-3.05 16.6-1.5 5.65-3.55 11-9.55 25.15-31.25 43.65-15.75 13.5-33.95 20.05.35 10.1 4.75 17.6 5.2 8.95 16.25 14.3l-4.55 3.35-2.15 1.45q-4.05 2.6-8.25 4.75-7.5 3.75-15.6 6.1-6.2 1.75-12.75 2.65l-8 .8q-29.75.65-55.7-12.95-4.25-2.15-7.85-5.3l-.2-.15.1-.05q10.85-4.4 15.8-10.55 2.3-2.9 3.8-6.05 2.45-5.4 2.6-11.6v-3.5l.3.1q14.25 4.7 30.3 5.25h1.25q12.35.3 23.85-1.85l1-.2.9-.15 10.05-2.6 4.1-1.4m21.3-159.6L114.6 6.2Q98.8 36.35 97.75 73.15q-.2 6.65.4 12.9l.25 2.5q.65 5.65 1.95 11 5.4 22.3 21.8 38.8 18.1 18.15 40.85 25.75m105.95 37.4q1-2.5.7-4.3-.75-4.15-8.2-5.05-1.85-.25-3.35.95l-.6.6-1.75 1.45m.25 19.05 1.65-1.1q4.95-3.3 9.5-7.3.05-1 .4-1.5l1.4-2.8q2.4.4 4.6 1.35 3.1 1.35 5.8 3.7l.6.6 2 2.15q8.75 10.45 8.75 23.8v.35m-183.1-.85q1.4-10.15 5.15-19.75 1.45-3.7 3.75-6.3 4.05-4.65 10.75-5.7-.6-3.25 2.5-6.5 4.2-4.3 8.1-1.15l.3.25 2.55 2.4m35.95 31.6-.5-.1q-24.25-4.1-43.4-19.45l-1.25-1.05-1.3-1.15-.95-1q-1.7-1.95-2-3.85m69.35 28.2-18.8-1.45-1.15-.15M6.7 284.55q-2.85 5.35-3.7 11.7l.2.35q9.8 15.05 17.25 31.55l4.2 8.05q27.75 16.3 56.1 27L94 367.85q99.55 32.7 205.6-3.5l2.5-.85M17.35 291.8l-3.15 1.15m36.5-28.35q-23.8-5.4-39.8 13.65-2.5 2.95-4.2 6.3m10.65 7.25q4.65-1.55 8.7-1.75m242.2-85.3-1.1 1.05M235 223.85l-.45.15-8.85 2.15q-11 2.25-22 2.75l-6.55.15h-.55m38.4-5.2q11.2-3.45 21-9.65" fill="none" stroke="#48130d" stroke-linecap="round" stroke-linejoin="round" stroke-width="6"/><path d="m322.3 234.05-1.3 5.35-.35 1.15q-.85 2.3-2.15 4.2-3.35 5.1-8.15 8.35-.75-8.75-3.05-17.25l-2-7.4 1.75-2.1q5-7.9 5.75-17.4 1.05-13.9 1.05-27.85 1.95 3.15 2.9 7.3l3.6 16.1q1.7 7.55 2.5 15.4.75 7.2-.55 14.15m-82.8-53.2 2.35-.3q12.25-2 20.45-11.4 2.15 3.35 4.95 6 5.9 5.45 12.7 9.45l2 1.1q5.9 3.2 10.45 7.9 2.45-1.8 5.2-3.25l1.1-.6 6.8-2.9q2.55-.95 4.5-2.8l3.85-3v.05m-34.5 25.45.6-.65 4.15-4.7q3.75-4.35 8.3-7.6m-214.65-6.65.4-.5h.1q12.05-1.4 26.5 7.3l2.5 1.65q2.4 1.8 4.4 4.05l2.25 2.85 2.6 4.25m-8.85-11.8q2.6-7.85 12.55-14.05l8.35-4.75 5.45-3.25.05-.05 2.1-1.5 6.25 7.55q2.75 2.3 9.15 2.3 2.3 0 7.3-1.4l1.55-.4m-82.25 7.25v.1l.1-.1m-.15.5q-2.4 22.8 12.5 41.65l4.2-13.85q2.7 8.45 10.85 16.1l1.95 1.75q3.75 3.25 8.45 6.25 3.15 2.05 6.8 4 4.15 2.25 18.5 7.8 11.75 5.15 15.25 9.9l3.2-3.6q3.9-4.25 6.8-6.2 3.65-2.45 16.35-9.1 8.95-5.2 13.65-12.6m-118.5-42.1.05-.4-.4.4q-.7 11.55-3.85 22.65-3.5 12.25-1.6 22 2.25 11.9 12.7 20-.4 3.55-.4 6.95 0 6.7 2.15 12.35 3.65 9.6 13.55 16.1 12.75 8.35 28.7 8.35l10.9-.15q4.5-.4 10.9-3.95l-.55-2.1q-1.65-10.25.9-17.6 2.55-7.35 3.75-8.9l1.7-2.1m-66-31.95-2.5 7.7q-2.35 8.05-3.1 15.3m128.95 59.95-3.15.35-1.05.05-.85-.1-7.55.5-9.05-.4q-10.5-1-19.25-4.4-4.55-1.75-8.25-3.6l-.2-.15m-.6-.3q-10.8-5.7-13.2-12.25m157.65-21.05-1.75 4.05q-4.45 8.95-13.45 13.8-8.25 4.35-17.75 5.4-10 1.1-19.95-.25-5.85-.65-10.8-3.2-4.45 14.8-22.35 19.75l-7.45 1.65-1 .15m77.15-78.5q9.05-8.2 9.95-20.65l1.3 4.9 2.95 11.15m-14.2 4.6-.4.4q-2.5 2.25-5.35 4l-2.9 1.65-1.1.55-1.4.7-8.5 4.05-.1.05-3.25 1.45q-4.85 2.05-9.7 4.35-8.55 3.9-15.15 10.9l-1.35 1.45q2.1 3.35 3.2 7.45 1.15 4.65 1.05 10.3-.1 5.25-1.4 9.65m-3.6-28.55q-5.3-7.5-16.25-10.95-12.45-3.9-19.95-10.8-5.05-4.65-7.8-10.65m111.3 41.15q1.7-4.65 2.05-9.65v-5.05l-.15-2.4m-69.2 8.35.75 1.15m-43.75-36.3-.05.15m3.25 85.9q3.55-1 7.55-.5l1.9.05" fill="none" stroke="#55083b" stroke-linecap="round" stroke-linejoin="round" stroke-width="6"/><path d="m161.6 300.8-.6-.3" fill="none" stroke="#55083b" stroke-linecap="round" stroke-linejoin="round" transform="translate(3 3)"/></g><g id="e"><path d="m107.5 236.1 1.2-3.35h.75V232h3.75q8.1 3.45 14 11.6 4.25 6 6.5 13.4l-1.1 2.8.5 2.75q1.45 12.65-9.35 27.4 6.35 44.85 17.5 76.05 10.85 30.45 26.75 49.95-4.75 6.85-10.3 13.2-1.25 1.45-3.05.8-10.3-4-19.1-10.55-10.4-7.7-20.45-15.95-4.85-3.95-8.7-8.85-4.8-6.05-9.1-12.45 14 18.1 33.45 31.8l.05-32.8-5.55-23.55q-3.05-13.45-5.25-27-2.55-15.65-4-31.45-1.05-11.5-1.5-23.05-4.3 2.7-7.8 4.5 2.45-8.35 4.2-16.9 2.8-13.8-4.8-23.6l1.4-4m-36.35 97.55-15 21.4-1.15-4.3q-5.75-20.4-3.1-40.6-2.8 3.4-6.1 6.4-3.7 3.35-7.85 6.3-.05-2.3.15-4.55 2.6-29.9 12.9-58.2l1.55 9.35q2.75 14.8 6.75 29.15 4.95 17.85 11.85 35.05m-22.5-96.1-25.35-16.5q5.25-5.15 11.25-9.35 6.4-4.45 14.1-5.3-.95 15.6 0 31.15m83.95 22.25q-3.65 6.8-16.3 15.1l-1.8 1.2 1.8-1.2q12.65-8.3 16.3-15.1m-73.3 38.8-1.8 3.35q-2.5 4.35-5.6 8.2 3.1-3.85 5.6-8.2l1.8-3.35m64.45-8.65q-3.3 4.5-7.75 9.2 4.45-4.7 7.75-9.2" fill="#eea275" fill-rule="evenodd" transform="translate(3 3)"/><path d="M106.1 240.1q7.6 9.8 4.8 23.6-1.75 8.55-4.2 16.9-7.05 3.6-10.95 3.6H90.5l9.05-25.3 6.55-18.8" fill="#fff7b8" fill-rule="evenodd" transform="translate(3 3)"/><path d="m94.4 87.7 3.5 1.25 19.7 6.7q9.8 3.2 19.9 4.65l21.95 1.4 21.85.3 21.85-.8 6.4-.95q-3.7 4.35-9.6 5.4-7.25 1.45-14.7 1.2-3.9-.25-8.05 0l-4.45.35-8.05.7-5.2.55-4.65.3h-4.1l-3.55-.1q1.4 2.1 1.85 4.6l.2 2.5q-.15 7.35-4.45 13.55l-3.25 4.9q-4.9 7.8-12.5 12.75-6.4 4.3-13.7 6.6-7 2.35-14.1 4.3-6.8 1.95-13.95 2.55l-12.7.9-7.8.55-6.7-4.95q-2.15-4.25-3.35-7.65l-2.3-6.95-.2-.75-1.4-4.8q-1.65-6.1 1.2-11.15 2.8-5.1 2.8-8.9 0-10.3-3.6-19.55-4.85-12.35-9.6-12.35l-5.45.35q-.7.35-1.8 3.25-5.25-19.3-5.95-24.45-1-7.35-1.45-15.2 6.35 7.35 14.35 13.2 8.5 6.25 17.75 11.4 9.45 5.25 19.55 9.15l13.75 5.2-13.75-5.2q-10.1-3.9-19.55-9.15-9.25-5.15-17.75-11.4-8-5.85-14.35-13.2l-.3-.35q-5.7-6.6-7.65-15.25-1.1-4.95.1-9.9 1.8-7.55 5.3-14.35 7.25-5.7 17.7-7.45L47.4 1q23.25-2.25 46.45.45l6.1.8q11.9 1.6 23.65 3.95 5.7 3.25 11.2 6.95 12.65 8.55 28.05 17.3 15.35 8.75 20.55 19.7l.6 1.35q-.6.35-1.05.8-1.9 2-1.9 5.9l.2 2.4 3.3 2.1-1.2 3.05q-1.5 2.9-4.05 5.85-2.5 2.85-6.1 5.15l-.6-1.65q-.65-1.1-1.6-1.9-2.05-1.75-4.6-2.65-3.1-1.1-6.35-1.9l-8.75-2-1.9-.2q-4.35-.4-7.25 1.1-2.95 1.45-2.95 5.7l.05.5q.05 1.1.4 2.3 1.55 1.4 3.45 2.4 3.45 1.8 7.15 2.85l5.35 1.15 3.2.2q-5.8 1.45-12.75 2.25-24 2.75-44.7 2.85l-6.95-.05M63.25 17.1q.65 2.05 5.6 4.65-4.95-2.6-5.6-4.65m5.6 4.65q2.25 1.15 5.35 2.4Q83.6 28 88.1 28l5.35-.65q2.15-.95 2.15-4.05 0-2.6-3.95-4.6l-2.35-1-1.95-.5q-4.55-2.35-5.45-2.7-3.05-1.15-7.55-1.15-2.7 0-4.15.9-2.05 1.3-2.05 4.6 0 1.25.7 2.9m7.75 27.2q2.35 9.2 12.15 11.95 8.75 2.5 17.8 3.2 8.9.1 5.9-7.3-.65-1.7-2.3-2.4-4.7-2.05-12.05-3.9-2.4-.85-5-1.55-6.95-1.9-11.35-1.9-1.7 0-3.6.9-.85.4-1.5.9l-.05.1M181.25 60.6l-2.4-2.15 2.4 2.15M128.1 36.1q6.4 5.05 14.8 6.45 4.55.75 8.45-.65 2.35-.9 2-3.4-.95-6.5-7.55-9.25-2.5-1-5.1-1.15l-3-.25q-2.2-.45-5.4 1.6-3.6 2.3-4.2 6.65l-2.5-2.2 2.5 2.2m7.7 34.95 1.9 2.8.65.8 1.3 1.4-1.3-1.4-.65-.8-1.9-2.8M74.55 341.9l-3.4-8.25q-6.9-17.2-11.85-35.05-4-14.35-6.75-29.15L51 260.1q-1.7-11.3-2.35-22.55-.95-15.55 0-31.15.35-5.25 1.5-12.8 25.95.65 27.95 28.95l2.3 33.05.3 4.8 1.2 17.85q1.9 29.35-5.75 57.9l-1 3.65-.6 2.1m-4.25-73.25q1-1.25 6-4.9l4.4-3.35-4.4 3.35q-5 3.65-6 4.9m10.1-13.05-3.1-3.5q-4.7-5.3-5.55-6.7.85 1.4 5.55 6.7l3.1 3.5" fill="#abef43" fill-rule="evenodd" transform="translate(3 3)"/><path d="m209.55 100.25-6.4.95-21.85.8-21.85-.3-21.95-1.4q-10.1-1.45-19.9-4.65l-19.7-6.7-3.5-1.25 6.95.05q20.7-.1 44.7-2.85 6.95-.8 12.75-2.25l2.4.1 7.6-.3q1.75-.4 3-1.4.95-.85 1.25-2.15l.15-2v-.15q3.6-2.3 6.1-5.15 2.55-2.95 4.05-5.85l1.2-3.05q1.95 1.05 4.2 1.7 4.1 1.2 9.75 1.2 8.35 0 8.35-5 0-3.95-6.65-7.1l-1.35-.6q-6.4-2.7-10.05-2.75-3 .15-4.8 1.35l-.6-1.35q-5.2-10.95-20.55-19.7-15.4-8.75-28.05-17.3-5.5-3.7-11.2-6.95 12.1 2.35 24 5.4 26.85 7 51.05 20.55 24.2 13.6 31.6 40.8 1.85 6.85 1.85 13.7l-.05 1.65q-.75 4.95-2.55 9.5-2.75 6.85-6.55 13.25-7.4 10.75-17.1 19.8-13.85 12.85-30 22.25-6.15 3.6-12.6 6.65-7.2 3.4-14.55 6l-10.75 3.35q-13.3 3.55-27.3 4.7-17.3 1.7-32.45-5.35-2.05-.95-4-2.05l-1-.55q-3.3-1.9-6.4-4l7.8-.55 12.7-.9q7.15-.6 13.95-2.55 7.1-1.95 14.1-4.3 7.3-2.3 13.7-6.6 7.6-4.95 12.5-12.75l3.25-4.9q4.3-6.2 4.45-13.55l-.2-2.5q-.45-2.5-1.85-4.6l3.55.1h4.1l4.65-.3 5.2-.55 8.05-.7 4.45-.35q4.15-.25 8.05 0 7.45.25 14.7-1.2 5.9-1.05 9.6-5.4 6.5-1.45 12.5-4.6l1.9-1.05q4.1-2.45 7-6.3l1.15-1.65-1.15 1.65q-2.9 3.85-7 6.3l-1.9 1.05q-6 3.15-12.5 4.6m-101 105.35q-2.75 21.9-1.05 30.5l-1.4 4-6.55 18.8-9.05 25.3h5.25q3.9 0 10.95-3.6 3.5-1.8 7.8-4.5.45 11.55 1.5 23.05 1.45 15.8 4 31.45 2.2 13.55 5.25 27l5.55 23.55-.05 32.8q-19.45-13.7-33.45-31.8-10.15-13.05-17.4-28.4l-5.35-11.85.6-2.1 1-3.65q7.65-28.55 5.75-57.9l-1.2-17.85 2.15-1.95-2.45-2.85-2.3-33.05q-2-28.3-27.95-28.95.85-5.7 2.2-12.7l1.1-.2q11.8-2 21.25-9.3.9 5.6 3.25 10.4 4.8 9.7 15.55 16.1 7.3 4.4 15.05 7.7" fill="#7c8c21" fill-rule="evenodd" transform="translate(3 3)"/><path d="M184 51.5q1.8-1.2 4.8-1.35 3.65.05 10.05 2.75l1.35.6q6.65 3.15 6.65 7.1 0 5-8.35 5-5.65 0-9.75-1.2-2.25-.65-4.2-1.7l-3.3-2.1-.2-2.4q0-3.9 1.9-5.9.45-.45 1.05-.8m-10.8 25.25v.15l-.15 2q-.3 1.3-1.25 2.15-1.25 1-3 1.4l-7.6.3-2.4-.1-3.2-.2-5.35-1.15q-3.7-1.05-7.15-2.85-1.9-1-3.45-2.4-.35-1.2-.4-2.3l-.05-.5q0-4.25 2.95-5.7 2.9-1.5 7.25-1.1l1.9.2 8.75 2q3.25.8 6.35 1.9 2.55.9 4.6 2.65.95.8 1.6 1.9l.6 1.65M89.3 17.7l2.35 1q3.95 2 3.95 4.6 0 3.1-2.15 4.05L88.1 28q-4.5 0-13.9-3.85-3.1-1.25-5.35-2.4-.7-1.65-.7-2.9 0-3.3 2.05-4.6 1.45-.9 4.15-.9 4.5 0 7.55 1.15.9.35 5.45 2.7l1.95.5m-4.1-.6 2.15.1-2.15-.1m12.9 33.4q7.35 1.85 12.05 3.9 1.65.7 2.3 2.4 3 7.4-5.9 7.3-9.05-.7-17.8-3.2-9.8-2.75-12.15-11.95l.05-.1q.65-.5 1.5-.9 1.9-.9 3.6-.9 4.4 0 11.35 1.9 2.6.7 5 1.55m42.6-22.4q2.6.15 5.1 1.15 6.6 2.75 7.55 9.25.35 2.5-2 3.4-3.9 1.4-8.45.65-8.4-1.4-14.8-6.45.6-4.35 4.2-6.65 3.2-2.05 5.4-1.6l3 .25-4.65.35 4.65-.35" fill="#415516" fill-rule="evenodd" transform="translate(3 3)"/><path d="M29 48.75q.45 7.85 1.45 15.2.7 5.15 5.95 24.45 1.1-2.9 1.8-3.25l5.45-.35q4.75 0 9.6 12.35 3.6 9.25 3.6 19.55 0 3.8-2.8 8.9-2.85 5.05-1.2 11.15l1.4 4.8.2.75 2.3 6.95q1.2 3.4 3.35 7.65-4.25-3.5-8-7.35-4.9-5.15-9.05-11-3.9-5.55-7.1-11.7-3.9-7.5-7.1-15.2-6.4-15.4-10.2-31.65-4.15-17.9-5.4-36.15l-.1-6.4Q12.9 27 18.3 17.95q3.4-5.35 8.15-9.05-3.5 6.8-5.3 14.35-1.2 4.95-.1 9.9Q23 41.8 28.7 48.4l.3.35" fill="#dcff88" fill-rule="evenodd" transform="translate(3 3)"/><path d="m156.8 205.55.35 4.3q.05.65-.45.9-11.5 5.05-25.35 2.1-11.85-2.55-22.8-7.25-7.75-3.3-15.05-7.7-10.75-6.4-15.55-16.1l.4-.05 8.5-.5 13.65.8q3.05.35 6 1.35l12.25 3.75 11.85 3.7q6.2 1.75 11.75 4.45 5.7 2.7 10.5 6.7l3.95 3.55M.6 169.7q4.6-8.8 11.7-15.85 3.05-3.05 6.35-5.5-9.2-11.4-13.75-25.05 9.4.8 18.35 4.55 9.8 4.05 15.7 11.35l4.1-.65q4.15 5.85 9.05 11-7.9 15.45-15.75 19.6-7.85 4.15-14.45 2.9-10.8-.25-21.3-2.35m18.05-21.35q9.2-6.9 20.3-9.15-11.1 2.25-20.3 9.15" fill="#58cf45" fill-rule="evenodd" transform="translate(3 3)"/><path d="m60.1 156.9 6.7 4.95q3.1 2.1 6.4 4l1 .55q.1 2.55.5 5l1.8-1.5 1.7-1.45q15.15 7.05 32.45 5.35 14-1.15 27.3-4.7l10.75-3.35q7.35-2.6 14.55-6 6.45-3.05 12.6-6.65 8.35 14.85 11.25 31.85l-5.4 1.9q-14.05 4.35-28.45 4.45 2.6 6.75 3.55 14.25l-3.95-3.55q-4.8-4-10.5-6.7-5.55-2.7-11.75-4.45l-11.85-3.7-12.25-3.75q-2.95-1-6-1.35l-13.65-.8-8.5.5-.4.05q-2.35-4.8-3.25-10.4-9.45 7.3-21.25 9.3l-1.1.2Q24.55 185.1 0 170.85l.6-1.15q10.5 2.1 21.3 2.35 6.6 1.25 14.45-2.9t15.75-19.6q3.75 3.85 8 7.35M4.9 123.3l-.25-.75.2-.35q11.05-7.35 24-10.55 3.2 7.7 7.1 15.2 3.2 6.15 7.1 11.7l-4.1.65q-5.9-7.3-15.7-11.35-8.95-3.75-18.35-4.55m133.05 45.8 2.55 2.45q8.55 8.9 12.75 19.75-4.2-10.85-12.75-19.75l-2.55-2.45" fill="#186146" fill-rule="evenodd" transform="translate(3 3)"/><path d="m110.5 239.1 1.2-3.35h.75m0-.75h3.75q8.1 3.45 14 11.6 4.25 6 6.5 13.4l-1.1 2.8.5 2.75q1.45 12.65-9.35 27.4 6.35 44.85 17.5 76.05 10.85 30.45 26.75 49.95-4.75 6.85-10.3 13.2-1.25 1.45-3.05.8-10.3-4-19.1-10.55-10.4-7.7-20.45-15.95-4.85-3.95-8.7-8.85-4.8-6.05-9.1-12.45m-26.15-48.5-15 21.4-1.15-4.3q-5.75-20.4-3.1-40.6-2.8 3.4-6.1 6.4-3.7 3.35-7.85 6.3-.05-2.3.15-4.55 2.6-29.9 12.9-58.2m-2.35-22.55-25.35-16.5q5.25-5.15 11.25-9.35 6.4-4.45 14.1-5.3m58.85 29.7-1.4 4-6.55 18.8-9.05 25.3h5.25q3.9 0 10.95-3.6 3.5-1.8 7.8-4.5l1.8-1.2q12.65-8.3 16.3-15.1m-80.7 50.35q3.1-3.85 5.6-8.2l1.8-3.35m56.7.55q4.45-4.7 7.75-9.2" fill="none" stroke="#a8624c" stroke-linecap="round" stroke-linejoin="round" stroke-width="6"/><path d="m212.55 103.25-6.4.95-21.85.8-21.85-.3-21.95-1.4q-10.1-1.45-19.9-4.65l-19.7-6.7-3.5-1.25-13.75-5.2q-10.1-3.9-19.55-9.15-9.25-5.15-17.75-11.4-8-5.85-14.35-13.2l-.3-.35q-5.7-6.6-7.65-15.25-1.1-4.95.1-9.9 1.8-7.55 5.3-14.35 7.25-5.7 17.7-7.45L50.4 4q23.25-2.25 46.45.45l6.1.8q11.9 1.6 23.65 3.95 12.1 2.35 24 5.4 26.85 7 51.05 20.55 24.2 13.6 31.6 40.8 1.85 6.85 1.85 13.7l-1.15 1.65q-2.9 3.85-7 6.3l-1.9 1.05q-6 3.15-12.5 4.6M63.1 159.9l6.7 4.95q3.1 2.1 6.4 4l1 .55q1.95 1.1 4 2.05 15.15 7.05 32.45 5.35 14-1.15 27.3-4.7l10.75-3.35q7.35-2.6 14.55-6 6.45-3.05 12.6-6.65 16.15-9.4 30-22.25 9.7-9.05 17.1-19.8 3.8-6.4 6.55-13.25 1.8-4.55 2.55-9.5l.05-1.65m-43.3-36.5q3.65.05 10.05 2.75l1.35.6q6.65 3.15 6.65 7.1 0 5-8.35 5-5.65 0-9.75-1.2-2.25-.65-4.2-1.7l-3.3-2.1-2.4-2.15m-5.65 18.3v.15l-.15 2q-.3 1.3-1.25 2.15-1.25 1-3 1.4l-7.6.3-2.4-.1-3.2-.2-5.35-1.15q-3.7-1.05-7.15-2.85-1.9-1-3.45-2.4l-1.3-1.4-.65-.8-1.9-2.8m-66.95-49.3q-4.95-2.6-5.6-4.65m26.05.6 2.35 1q3.95 2 3.95 4.6 0 3.1-2.15 4.05L91.1 31q-4.5 0-13.9-3.85-3.1-1.25-5.35-2.4m18.5-4.55-2.15-.1m12.9 33.4q7.35 1.85 12.05 3.9 1.65.7 2.3 2.4 3 7.4-5.9 7.3-9.05-.7-17.8-3.2-9.8-2.75-12.15-11.95m74.7 17.7 8.75 2q3.25.8 6.35 1.9 2.55.9 4.6 2.65.95.8 1.6 1.9l.6 1.65M131.1 39.1q6.4 5.05 14.8 6.45 4.55.75 8.45-.65 2.35-.9 2-3.4-.95-6.5-7.55-9.25-2.5-1-5.1-1.15l-4.65.35M128.6 36.9l2.5 2.2m-19.55 169.5q-2.75 21.9-1.05 30.5m-10.2 146.05q-10.15-13.05-17.4-28.4l-5.35-11.85-3.4-8.25q-6.9-17.2-11.85-35.05-4-14.35-6.75-29.15L54 263.1q-1.7-11.3-2.35-22.55-.95-15.55 0-31.15.35-5.25 1.5-12.8.85-5.7 2.2-12.7m-23.5-69.25q-6.4-15.4-10.2-31.65-4.15-17.9-5.4-36.15l-.1-6.4Q15.9 30 21.3 20.95q3.4-5.35 8.15-9.05m16.6 129.65q-3.9-5.55-7.1-11.7-3.9-7.5-7.1-15.2m14.2 26.9q4.15 5.85 9.05 11 3.75 3.85 8 7.35m20.3 98.7 2.45 2.85-2.15 1.95-4.4 3.35q-5 3.65-6 4.9m1.45-23.25q.85 1.4 5.55 6.7l3.1 3.5m34.1 20.5q.45 11.55 1.5 23.05 1.45 15.8 4 31.45 2.2 13.55 5.25 27l5.55 23.55-.05 32.8q-19.45-13.7-33.45-31.8" fill="none" stroke="#1e3206" stroke-linecap="round" stroke-linejoin="round" stroke-width="6"/><path d="M178.85 156.1q8.35 14.85 11.25 31.85l-5.4 1.9q-14.05 4.35-28.45 4.45 2.6 6.75 3.55 14.25l.35 4.3q.05.65-.45.9-11.5 5.05-25.35 2.1-11.85-2.55-22.8-7.25-7.75-3.3-15.05-7.7-10.75-6.4-15.55-16.1-2.35-4.8-3.25-10.4l1.8-1.5 1.7-1.45M55.35 183.9Q27.55 188.1 3 173.85l.6-1.15q4.6-8.8 11.7-15.85 3.05-3.05 6.35-5.5-9.2-11.4-13.75-25.05l-.25-.75.2-.35q11.05-7.35 24-10.55m124.4 79.65q-4.2-10.85-12.75-19.75l-2.55-2.45m-99-29.9 4.1-.65M77.2 169.4q.1 2.55.5 5-9.45 7.3-21.25 9.3l-1.1.2m-13.4-41.7q-11.1 2.25-20.3 9.15" fill="none" stroke="#0b2c21" stroke-linecap="round" stroke-linejoin="round" stroke-width="6"/><path d="M79.8 105.1q2.8 3.85 2.5 9.3-.3 5.45-3.5 9.3-3.15 3.85-7.4 3.85-4.2 0-7-3.85t-2.5-9.3q.3-5.45 3.5-9.3 3.2-3.85 7.4-3.85 4.25 0 7 3.85" fill="#dcff88" fill-rule="evenodd" transform="translate(3 3)"/><path d="M79.8 105.1q2.8 3.85 2.5 9.3-.3 5.45-3.5 9.3-3.15 3.85-7.4 3.85-4.2 0-7-3.85t-2.5-9.3q.3-5.45 3.5-9.3 3.2-3.85 7.4-3.85 4.25 0 7 3.85z" fill="none" stroke="#abef43" stroke-linecap="round" stroke-linejoin="round" transform="translate(3 3)"/></g><g id="f"><path d="m120.35 62.05-25.3-1.4-30.2-1.6q-7.3 0-10.65 7.9-2.45 5.75-2.45 14.3 0 5.2 1.15 14.55-19.55-21.45-28.6-38.05Q11.85 34.95 0 5.1l17.55-2.75L39.8 0q23.8 23.9 46.6 40.05 17 11.95 33.95 22m63.7 78q-1.85-.9-3.95-1.7-13.65-4.55-19.6-7.45-5.6-2.75-14.8-4.55-8.4-1.6-15.25-1.6-1.85 0-3.95.7 1.75-.95 3.65-3.85 2.1-3.3 2.1-6.1 0-4.75-1.65-8.35l-.25-.5q6.75-1.1 13.1-3.55 8.5-3.4 6.65-9.85-5.05-1.85-10.2-2.95 5.15 1.1 10.2 2.95 1.85 6.45-6.65 9.85-6.35 2.45-13.1 3.55-2.05-4-5.7-3.6v-.4q4.75-1.75 9-4.55 6.2-4.05 6.2-7.55l.05-.25h-.1q-.4-1-3.4-2.85l-3.75-2.15q.7 0 .7-.35 6.15-1.6 17-2.9l19.55-2.35q17.35-2.45 30.2-7.4-3.2 7.25-8.4 12.3 11 7.55 15.95 20.25l1.95 5.15q-15.55-1.05-30.95 1.75 4.3 6.6 7.15 13.85 1.45 3.65 1.25 7.7-.15 2.5-.9 4.7-.4 1.2-1.5 2.05h-.6m7.65-55.45q-6.05 5.75-14.8 8.5 8.75-2.75 14.8-8.5" fill="#eea275" fill-rule="evenodd" transform="translate(3 3)"/><path d="M129.7 67.85 125.3 69l4.4-1.15q35.95-8.65 71.45 1.55l-.8 2.25-.25.65q-12.85 4.95-30.2 7.4l-19.55 2.35q-10.85 1.3-17 2.9 0 .35-.7.35l3.75 2.15q3 1.85 3.4 2.85l.05.25q0 3.5-6.2 7.55-4.25 2.8-9 4.55v.4q3.65-.4 5.7 3.6l.25.5q1.65 3.6 1.65 8.35 0 2.8-2.1 6.1-1.9 2.9-3.65 3.85 2.1-.7 3.95-.7 6.85 0 15.25 1.6 9.2 1.8 14.8 4.55 5.95 2.9 19.6 7.45 2.1.8 3.95 1.7-7.4-.45-14.85-1.85l-8.25-.55-29.4.55q-9.45.2-18.85-1.95-10.65-2.65-20.65-7.35-6.2-2.85-12-6.5-2.9-1.85-5.35-4.1l-1.1-1.1-.35-.45-1.95-2.4h-.5q-9.85-9.7-17.9-18.55-1.15-9.35-1.15-14.55 0-8.55 2.45-14.3 3.35-7.9 10.65-7.9l30.2 1.6 25.3 1.4 9.35 5.8m-4.05 39.4 4.7-.6-4.7.6m-8.1-18.8 10.25.3q6.1.25 12 1.55-5.9-1.3-12-1.55l-10.25-.3" fill="#fff7b8" fill-rule="evenodd" transform="translate(3 3)"/><path d="m128.3 72 4.4-1.15-9.35-5.8Q106.4 55 89.4 43.05 66.6 26.9 42.8 3L20.55 5.35 3 8.1q11.85 29.85 24.3 52.65 9.05 16.6 28.6 38.05 8.05 8.85 17.9 18.55h.5l1.95 2.4.35.45 1.1 1.1q2.45 2.25 5.35 4.1 5.8 3.65 12 6.5 10 4.7 20.65 7.35 9.4 2.15 18.85 1.95l29.4-.55 8.25.55q7.45 1.4 14.85 1.85h.6q1.1-.85 1.5-2.05.75-2.2.9-4.7.2-4.05-1.25-7.7-2.85-7.25-7.15-13.85 15.4-2.8 30.95-1.75l-1.95-5.15q-4.95-12.7-15.95-20.25 5.2-5.05 8.4-12.3l.25-.65.8-2.25q-35.5-10.2-71.45-1.55m.65 38.8-4.7.6M142.8 93.3h.1q5.15 1.1 10.2 2.95 1.85 6.45-6.65 9.85-6.35 2.45-13.1 3.55m9.45-16.35q-5.9-1.3-12-1.55l-10.25-.3M76.6 120.2l-.25-.3-.1-.15-2.45-2.4M179.9 96.1q8.75-2.75 14.8-8.5" fill="none" stroke="#a8624c" stroke-linecap="round" stroke-linejoin="round" stroke-width="6"/></g><g id="g"><path d="M240.1 136.85q-1.3 11.5-7.7 15.85-5.75 3.85-15.35 6.5-11.2-3.8-20.4-4.7l-21.75-1.55-22.2-.85-21.9-.85q-12.15-.4-24.15-2.3-10.85-1.8-21.2-6.05-11.35-4.65-20.95-11.85-5.45-4.1-10.5-8.6l8.7 1.35q30.8 4.8 38.25 4.8 1.95 0 22.4-6 23.8-6 42.45-6 28.4 0 49.75 6.8 16.05 5.1 24.55 13.45" fill="#58cf45" fill-rule="evenodd" transform="translate(3 3)"/><path d="M219.65 2.05q20.4 8.25 40.45 17.6 26.2 12.3 43.3 36Q313.3 69.4 317 85q-7.95-.95-15.75.95-14.15 3.1-28.05 6.8-12.8 3.55-26 5.55l-16.6 1.75q8.95 12.95 9.7 26.25.3 5.85-.2 10.55-8.5-8.35-24.55-13.45-21.35-6.8-49.75-6.8-18.65 0-42.45 6-20.45 6-22.4 6-7.45 0-38.25-4.8l-8.7-1.35-7.55-7.3q-8.2-8.45-15.9-17.15-8.35-9.35-16.15-19.1L1.5 62.55 0 60.65Q65.1 32.6 89.9 31.9h.65l3.85-1.5q13.35-4.9 25.45-12.5 12.3-7.55 26.25-11.3Q168.3.65 191.35.2q13.75-.75 27.4 1.7l.9.15m10.95 98q-4.75-6.85-11.75-13.6-20.4-19.55-44.55-30.9Q157.7 47.8 140.8 41q-24.15-9.8-50.25-9.1 26.1-.7 50.25 9.1 16.9 6.8 33.5 14.55 24.15 11.35 44.55 30.9 7 6.75 11.75 13.6" fill="#186146" fill-rule="evenodd" transform="translate(3 3)"/><path d="M219.65 2.05q10.6 1.8 20.9 5 15.5 4.7 29.9 12.2 11.35 5.9 21.5 13.4 7.6 5.6 13.45 12.85 6.55 8.25 10.1 18.15 3.7 10.5 3.75 21.65L317 85q-3.7-15.6-13.6-29.35-17.1-23.7-43.3-36-20.05-9.35-40.45-17.6" fill="#ecde6a" fill-rule="evenodd" transform="translate(3 3)"/><path d="m320 88 2.25.3q-.05-11.15-3.75-21.65-3.55-9.9-10.1-18.15-5.85-7.25-13.45-12.85-10.15-7.5-21.5-13.4-14.4-7.5-29.9-12.2-10.3-3.2-20.9-5l-.9-.15q-13.65-2.45-27.4-1.7-23.05.45-45.25 6.4-13.95 3.75-26.25 11.3-12.1 7.6-25.45 12.5l-3.85 1.5q26.1-.7 50.25 9.1 16.9 6.8 33.5 14.55 24.15 11.35 44.55 30.9 7 6.75 11.75 13.6 8.95 12.95 9.7 26.25.3 5.85-.2 10.55-1.3 11.5-7.7 15.85-5.75 3.85-15.35 6.5-11.2-3.8-20.4-4.7l-21.75-1.55-22.2-.85-21.9-.85q-12.15-.4-24.15-2.3-10.85-1.8-21.2-6.05-11.35-4.65-20.95-11.85-5.45-4.1-10.5-8.6l-7.55-7.3q-8.2-8.45-15.9-17.15-8.35-9.35-16.15-19.1L4.5 65.55 3 63.65Q68.1 35.6 92.9 34.9h.65M320 88q-7.95-.95-15.75.95-14.15 3.1-28.05 6.8-12.8 3.55-26 5.55l-16.6 1.75" fill="none" stroke="#0b2c21" stroke-linecap="round" stroke-linejoin="round" stroke-width="6"/></g><g id="h"><path d="M32.1 189.3q-5.65-4-10.75-9.9l-6.75-7.65q-7.2-8.6-10.9-20.4-3.7-11.6-3.7-25.2 0-25.6 15.25-69Q29 18.15 42.65 0 56.4 30.65 72.6 54.05q5.55 8.05 10.6 16.45-1.15 7.7-3.5 15.35-4.2 13.8-12.5 25.95-9.6 13.9-22.7 24.35-13.65 10.8-29.3 5.1.1 26.6 17.05 47.8l-.15.25" fill="#58cf45" fill-rule="evenodd" transform="translate(3 3)"/><path d="M83.2 70.5q9.15 15.35 16.35 31.8 4.8 11 6.55 22.1 2.05 12.45.05 24.95-1.15 4.1-2.05 8.35l-.6 3.1q-4.05 21.85-21.45 30.4-3.95 1.9-8.15 3.15-23.3 7.35-41.05-4.55l-.75-.5.15-.25q-16.95-21.2-17.05-47.8 15.65 5.7 29.3-5.1 13.1-10.45 22.7-24.35 8.3-12.15 12.5-25.95 2.35-7.65 3.5-15.35" fill="#186146" fill-rule="evenodd" transform="translate(3 3)"/><path d="M35.1 192.3q-5.65-4-10.75-9.9l-6.75-7.65q-7.2-8.6-10.9-20.4-3.7-11.6-3.7-25.2 0-25.6 15.25-69Q32 21.15 45.65 3 59.4 33.65 75.6 57.05q5.55 8.05 10.6 16.45 9.15 15.35 16.35 31.8 4.8 11 6.55 22.1 2.05 12.45.05 24.95l-.6 3.3-1.45 5.05-.6 3.1q-4.05 21.85-21.45 30.4-3.95 1.9-8.15 3.15-23.3 7.35-41.05-4.55l-.75-.5m72-31.6q.9-4.25 2.05-8.35" fill="none" stroke="#0b2c21" stroke-linecap="round" stroke-linejoin="round" stroke-width="6"/></g><g id="i"><path d="M61 4.85q-17.05 11.85-30.25 31Q10.55 65.2 9.4 92.7q-1.2 27.5 2.65 58.65l.4 3.3q-8.3-15.65-11-34.7-8-56.4 28.8-97.2 13.45-14.9 32.3-20.9l-1.55 3" fill="#ffd2ff" fill-rule="evenodd" transform="translate(3 3)"/><path d="M352.45 67.85q8.9 5.6 16.8 12.7l3.8 3.5 4.65 4.9q12.05 13.6 20.7 29.35 3.4 6.2 5.7 12.75 3.2 9 4.25 18.65 1.9 17.5-5.7 33.55-3.75 7.95-8.85 14.95 9.5-23.3 6.15-44.6-3.7-23.25-19.1-46.05-13-19.25-27.65-38.05l-1-1.3.25-.35m109.8 27.65q20.45 33.85 20.95 73.35.75 56.1-38 95.1-24.85 25-55.45 29.4 6.75-3.1 13.25-7.15 27.1-16.9 45.1-38.2l2.25-2.75q16.15-20.7 22-52.9 6.2-34.4-.6-59-5.75-20.6-9.5-37.85" fill="#f2e36c" fill-rule="evenodd" transform="translate(3 3)"/><path d="M423.3 126.9q22.35-7.6 35.6-27l2.95-4.7.4.3q3.75 17.25 9.5 37.85 6.8 24.6.6 59-5.85 32.2-22 52.9-5.9 3.15-12.45 5.05-9 2.5-18.5 3.2-10.55 1.3-20.65-1.3-10.3-2.5-18.95-8.7-4-2.9-5.5-6.9 14.85-6.15 33.9-12.1 15.1-4.75 25.8-13.7l4.85-13.1q8.25-23.75 8.25-34.05 0-8.85-1.3-12.1-3.05-5.8-6.65-14.1-2.55-5.9-11.2-9.15l-4.65-1.4m38.7 23.35q-1.2 9.6-7.75 29.6Q448 199 434 210.8q14-11.8 20.25-30.95 6.55-20 7.75-29.6" fill="url(#H)" fill-rule="evenodd" transform="translate(3 3)"/><path d="M53.65 21.4q-.5 5.05-2.6 17.55-2.1 12.4-2.1 19.8l.1 4.6q1.3 26.65 17.3 54.85l1.6 2.75q2.8 4.7 5.8 8.9L76 132.9q8.55 11.3 20.25 19.15l-.2.65 3.25 2q11.15 6.9 20.15 16.45l3.75 4.6q2.15 2.9 3.9 6.05l.3.55q5.4 10.85 6.5 22.9l1.25 10.55-3.55.75-27-1.3q-35.05-5.45-64.55-28.35-17.75-13.7-27.6-32.25l-.4-3.3Q8.2 120.2 9.4 92.7q1.15-27.5 21.35-56.85Q43.95 16.7 61 4.85q-4.15 8.05-7.35 16.55m6.5 23.75q4-6.1 7.65-10.95 3.65-4.9 6.95-8.55l-5.4 33.8-1.7 11.7q-6.55-12.4-7.5-26" fill="url(#I)" fill-rule="evenodd" transform="translate(3 3)"/><path d="m350.9 106 6.3-.65q17.2 0 25 13.2 7.8 13.2 5.15 31.9-2.65 18.65-10.8 27.6-8.15 8.95-18.35 11.15-10.25 2.15-19.25-13.15-5.2-8.9-7.4-19.75l-.05-.3q11.35-18.8 17.05-39.9l2.35-10.1" fill="url(#J)" fill-rule="evenodd" transform="translate(3 3)"/><path d="m49.05 63.35-.1-4.6q0-7.4 2.1-19.8 2.1-12.5 2.6-17.55 3.2-8.5 7.35-16.55 3.45-2.45 7.15-4.6l.9.25q-4.95 15-1.9 30.55l.65 3.15q-3.65 4.85-7.65 10.95-5.25 8-11.1 18.2 5.85-10.2 11.1-18.2.95 13.6 7.5 26l1.7-11.7 5.4-33.8h1.8l5.8 19.6q5.25-5.15 12.4-8.8 5.05-2.55 16.9-6.65 10.65-3.65 15.65-6.7 7.7-4.65 11.65-12.2 2.2 7.95 8.85 19.7 3.85 6.85 12.6 21.3l3.15 5.65 4.3 8.55q6.7-8.15 15.85-15.5 8.8-7.05 23.2-15.85.9 5.45 6.4 20.8 3.3 9.1 4.2 17.25l3.6-2.05q12.65-6.65 26.2-8.4 14.65-1.95 26.75-9.35 7.4-4.55 15.45-12.6 5.45 10.85 13.45 19.9 4.55 5.15 12.8 13.3 6.25 6.85 9.2 13.65l3.45 13.25q.6 4.9.6 10.55l-.25 5.55q4.95-7.75 9-16.1l2.2-4.8 12.25-27.5 1 1.3v2.15q1.1 14.45-1.3 28.85l-1 5.5 1-5.5q2.4-14.4 1.3-28.85V69.5q14.65 18.8 27.65 38.05 15.4 22.8 19.1 46.05 3.35 21.3-6.15 44.6-4.55 6.15-10.2 11.6-11.85 11.5-26.45 18.85-16 8.15-33.9 7.7-16.7-.45-30.25-9.65l-.8-.55-2.1-1.55q-12.8-9.8-19-24.8l-1.75-4.35 1.75 4.35q6.2 15 19 24.8l2.1 1.55.9 2.6q.35 5.75 1.4 11.05-2.25.65-3.75 1.45-3.45 1.85-13.2 1.85-12.55 0-27.1-6.15-9.35-4-25.4-13.6-17.15-10.25-24.3-13.6l-3.7-1.6q-16.55-7.1-33.5-2.4-3.3.9-6.65 2.3-5.9 2.45-11.95 4.4l-9.8 3.35-1.25-10.55q-1.1-12.05-6.5-22.9l-.3-.55q-1.75-3.15-3.9-6.05l-3.75-4.6q-9-9.55-20.15-16.45l-3.25-2 .2-.65Q84.55 144.2 76 132.9l-2.25-3.05q-3-4.2-5.8-8.9l-1.6-2.75q-16-28.2-17.3-54.85m167.55 27.7q.9-3.35 1.1-5.4l.15-6.8-.35-6.05.35 6.05-.15 6.8q-.2 2.05-1.1 5.4m-40.65 0q-1.65-11.15-8.1-24.95 6.45 13.8 8.1 24.95m-108 29.9-.55-3.5q-1.9-12.9-1.9-21.6 0-8.95 2.15-24.7-2.15 15.75-2.15 24.7 0 8.7 1.9 21.6l.55 3.5m28.3 31.1q6.25-14.25 5.1-29.75l-.35-3.85q-1.55-12.8-11.55-48.5l-7.1-24.7 7.1 24.7q10 35.7 11.55 48.5l.35 3.85q1.15 15.5-5.1 29.75m235.3 4.25q2.2 10.85 7.4 19.75 9 15.3 19.25 13.15 10.2-2.2 18.35-11.15 8.15-8.95 10.8-27.6 2.65-18.7-5.15-31.9-7.8-13.2-25-13.2l-6.3.65-2.35 10.1q-5.7 21.1-17.05 39.9l-.2.35.25-.05m-62.15 39.1q13.95-.15 26.5-5.85 9.5-4.4 17.25-11.4 10.7-9.6 18.15-21.8-7.45 12.2-18.15 21.8-7.75 7-17.25 11.4-12.55 5.7-26.5 5.85-1.75-2.45-3.15-5.25-3.7-7.6-4.3-15.9 15.85-7.25 29.7-17.85 22.6-17.25 37.1-39.8-14.5 22.55-37.1 39.8-13.85 10.6-29.7 17.85.6 8.3 4.3 15.9 1.4 2.8 3.15 5.25h-.05v.05l.05-.05" fill="url(#K)" fill-rule="evenodd" transform="translate(3 3)"/><path d="M404.1 131.05q8.8-.8 17.4-3.55l1.8-.6 4.65 1.4q8.65 3.25 11.2 9.15 3.6 8.3 6.65 14.1 1.3 3.25 1.3 12.1 0 10.3-8.25 34.05L434 210.8q-10.7 8.95-25.8 13.7-19.05 5.95-33.9 12.1 1.5 4 5.5 6.9 8.65 6.2 18.95 8.7 10.1 2.6 20.65 1.3 9.5-.7 18.5-3.2 6.55-1.9 12.45-5.05L448.1 248q-18 21.3-45.1 38.2-6.5 4.05-13.25 7.15-18.85 2.7-39.9-2.4-47.6-11.45-55.35-51.15 1.65-.55 4.3 1.3-3.6-6.8-5.7-12.35l-.1-2.05q13.55 9.2 30.25 9.65 17.9.45 33.9-7.7 14.6-7.35 26.45-18.85 5.65-5.45 10.2-11.6 5.1-7 8.85-14.95 7.6-16.05 5.7-33.55-1.05-9.65-4.25-18.65M298.8 241.1q8.7 11.55 26.75 16.2 5.8 1.45 26.7-10.2 9.5-5.35 22.05-10.5-12.55 5.15-22.05 10.5-20.9 11.65-26.7 10.2-18.05-4.65-26.75-16.2m74.25-10.65.25.25.3-.8-.25.25-.3.3" fill="url(#L)" fill-rule="evenodd" transform="translate(3 3)"/><path d="M56.65 24.4q-.5 5.05-2.6 17.55-2.1 12.4-2.1 19.8l.1 4.6q5.85-10.2 11.1-18.2 4-6.1 7.65-10.95l-.65-3.15Q67.1 18.5 72.05 3.5l.15-.5-1.05.25-5.6 1.6q-18.85 6-32.3 20.9-36.8 40.8-28.8 97.2 2.7 19.05 11 34.7 9.85 18.55 27.6 32.25 29.5 22.9 64.55 28.35l27 1.3 3.55-.75-1.25-10.55q-1.1-12.05-6.5-22.9l-.3-.55q-1.75-3.15-3.9-6.05l-3.75-4.6q-9-9.55-20.15-16.45l-3.25-2 .2-.65Q87.55 147.2 79 135.9l-2.25-3.05q-3-4.2-5.8-8.9l-1.6-2.75q-16-28.2-17.3-54.85m25.7-37.7h1.8l5.8 19.6q5.25-5.15 12.4-8.8 5.05-2.55 16.9-6.65 10.65-3.65 15.65-6.7 7.7-4.65 11.65-12.2 2.2 7.95 8.85 19.7 3.85 6.85 12.6 21.3l3.15 5.65 4.3 8.55q6.7-8.15 15.85-15.5 8.8-7.05 23.2-15.85.9 5.45 6.4 20.8 3.3 9.1 4.2 17.25l3.6-2.05q12.65-6.65 26.2-8.4 14.65-1.95 26.75-9.35 7.4-4.55 15.45-12.6 5.45 10.85 13.45 19.9 4.55 5.15 12.8 13.3 6.25 6.85 9.2 13.65l3.45 13.25q.6 4.9.6 10.55l-.25 5.55q4.95-7.75 9-16.1l2.2-4.8 12.25-27.5.2-.4.05.05q8.9 5.6 16.8 12.7l3.8 3.5 4.65 4.9q12.05 13.6 20.7 29.35 3.4 6.2 5.7 12.75 8.8-.8 17.4-3.55l1.8-.6q22.35-7.6 35.6-27l2.95-4.7.1-.2.3.5q20.45 33.85 20.95 73.35.75 56.1-38 95.1-24.85 25-55.45 29.4-18.85 2.7-39.9-2.4-47.6-11.45-55.35-51.15-2.25.65-3.75 1.45-3.45 1.85-13.2 1.85-12.55 0-27.1-6.15-9.35-4-25.4-13.6-17.15-10.25-24.3-13.6l-3.7-1.6q-16.55-7.1-33.5-2.4-3.3.9-6.65 2.3-5.9 2.45-11.95 4.4l-9.8 3.35.1.9-6.9.5 3.25-.65 3.65.15M70.65 74.15l1.7-11.7 5.4-33.8q-3.3 3.65-6.95 8.55m14.55 11.05 7.1 24.7q10 35.7 11.55 48.5l.35 3.85q1.15 15.5-5.1 29.75m-28.6-80.9Q68.5 89.9 68.5 98.85q0 8.7 1.9 21.6l.55 3.5m99.9-54.85q6.45 13.8 8.1 24.95M220.5 75.8l.35 6.05-.15 6.8q-.2 2.05-1.1 5.4M353.9 109l1-5.5q2.4-14.4 1.3-28.85V72.5m-21.9 86.85q-7.45 12.2-18.15 21.8-7.75 7-17.25 11.4-12.55 5.7-26.5 5.85h-.05v.05l1.75 4.35q6.2 15 19 24.8l2.1 1.55.8.55q13.55 9.2 30.25 9.65 17.9.45 33.9-7.7 14.6-7.35 26.45-18.85 5.65-5.45 10.2-11.6 5.1-7 8.85-14.95 7.6-16.05 5.7-33.55-1.05-9.65-4.25-18.65M334.5 159q11.35-18.8 17.05-39.9l2.35-10.1M437 213.8q14-11.8 20.25-30.95 6.55-20 7.75-29.6m-87.7 86.35q14.85-6.15 33.9-12.1 15.1-4.75 25.8-13.7m-59.7 25.8q-12.55 5.15-22.05 10.5-20.9 11.65-26.7 10.2-18.05-4.65-26.75-16.2-2.65-1.85-4.3-1.3-1.05-5.3-1.4-11.05l-.9-2.6M334.5 159l-.2.35m-2.55-39.75q-14.5 22.55-37.1 39.8-13.85 10.6-29.7 17.85.6 8.3 4.3 15.9 1.4 2.8 3.15 5.25m23.6 31.3.1 2.05q2.1 5.55 5.7 12.35" fill="none" stroke="#55083b" stroke-linecap="round" stroke-linejoin="round" stroke-width="6"/></g><g id="j"><path d="M145.6 313.1q-8.75 6.25-16.5 14.45-4.2 4.45-8.9 8.4l-6.85 5.8Q98.65 354.15 79 343q1.7-7.5 1.7-13.85 0-9.05-4.5-18.75l-.65-1.4q-2.8-5.6-9.25-15.65-7.1-11.05-9.9-17.4-1.4-3.1-2.3-6.15-2.2-7-2.2-13.75 0-13.2 6.05-25.65l4.15-9.3q1.9-5.4 1.9-11.25 0-2.6-.45-5.45-.55-3.4-1.5-4.8l-.1-.15.85-.65q2.95-2.45 4.35 7.9 1.35 10.3 6.95 15.85 5.55 5.55 11.5 3.15 5.95-2.45 16-15.4 10-13 18.15-28.95 8.15-15.95 24.85-24.7 14.45-7.45 32.05-15.2-6.45 11.85-13.4 26.8-7.7 16.55-3.8 31 3.85 14.4 20.35 16.55 6.3.8 11.3.25 8.15-.9 13-5.45 7.75-7.35 12.65-14.9 2.4-3.7 4.7-8.2-3.35 17.15-7.1 29.05-7.05 22.2-17.7 35.05l-5.55 6-6.45 6.4q-9.7 9.4-12.9 13l-4.45 4.75-2.55 2.75q-5.5 6-7.75 9.5-5.15 7.95-9.15 15l-2.25 4.1m94.8-165.15-.15-.35 7.6-11.55q3.7-6.75 3.7-14.6l-.2-4.9.2-.4q.45-.75 2-.75 2.25 0 3.85 2.95 1.45 2.55 1.45 5.3 0 9.45-5.4 15.95-4.85 5.75-13.05 8.35m-44.65-37.8q0 2.3-1.9 3.8-1.15 1-2.75 1.35l-2 .2-1.8-.2-2.2-.25 3.45-4.25 2.55-2.7q1.5-1.4 3.5-2.9 1.15 1.45 1.15 4.95" fill="#fff37b" fill-rule="evenodd" transform="translate(3 3)"/><path d="m54.1 269.8-6.05-6.55q-12-14.15-12-24.35 0-9.3 4.55-21.2 5.9-15.45 7.1-21.15.95-4.7 1.35-11.8l.55-12.25q.8-13.6 4.65-21.25l-.15 3.1q-.85 7-.5 13.9.45 8.9 5 16.25 2.9 4.7 8.15 5.4 18.95.25 34.3-10.95 19.9-14.5 33.05-35.4l6.5-10.45q6.15-10 16.85-14.85 10.2-4.65 20.65-8.9 9.75-3.95 18.2-10.25 10.85-8.15 12.95-21.6l-.2 9.3q-.15 4.75-2.45 13.95-2.3 9.15-10.05 17.8-7.15 7.95-25.75 14.8l16.55-.7q14.6-1.45 34.95-11.3 20.35-9.85 21.1-20.95.75-11.15-.35-15.15l-1.4-4.1q7.9 7.1 14.15 16.25 10.55 15.5 10.55 29.9 0 10.45-5.2 18.6-2 3.15-11.45 13.6-7.85 8.65-11.45 16.75-5.2 11.7-5.2 28.2 0 4.15 1.3 11.05 1.3 6.95 2.65 16.55 1.3 9.6-20.75 26.8-16.9 13.15-48.95 22.9l4.45-4.75q3.2-3.6 12.9-13l6.45-6.4 5.55-6q10.65-12.85 17.7-35.05 3.75-11.9 7.1-29.05-2.3 4.5-4.7 8.2-4.9 7.55-12.65 14.9-4.85 4.55-13 5.45-5 .55-11.3-.25-16.5-2.15-20.35-16.55-3.9-14.45 3.8-31 6.95-14.95 13.4-26.8-17.6 7.75-32.05 15.2-16.7 8.75-24.85 24.7-8.15 15.95-18.15 28.95-10.05 12.95-16 15.4-5.95 2.4-11.5-3.15-5.6-5.55-6.95-15.85-1.4-10.35-4.35-7.9l-.85.65.1.15q.95 1.4 1.5 4.8.45 2.85.45 5.45 0 5.85-1.9 11.25l-4.15 9.3q-6.05 12.45-6.05 25.65 0 6.75 2.2 13.75m186.3-121.85q8.2-2.6 13.05-8.35 5.4-6.5 5.4-15.95 0-2.75-1.45-5.3-1.6-2.95-3.85-2.95-1.55 0-2 .75l-.2.4.2 4.9q0 7.85-3.7 14.6l-7.6 11.55v.35h.15m-44.65-37.8q0-3.5-1.15-4.95-2 1.5-3.5 2.9l-2.55 2.7-3.45 4.25 2.2.25 1.8.2 2-.2q1.6-.35 2.75-1.35 1.9-1.5 1.9-3.8" fill="#f49714" fill-rule="evenodd" transform="translate(3 3)"/><path d="M79 343q-10.05-5.65-21.35-17.45-7.7-8-14.7-16.55-18.45-22.35-32.1-48.1-5.05-10.85-8.05-22.55-7.6-29.65 5.35-55.65t40.55-47.45Q76.05 113.9 93.85 92l.25 3.6q0 8.45-3.75 16.7-2.6 5.65-8.3 13.5-6.75 9.3-8.35 12-3.75 6.6-3.75 12.2 0 5.8 6.7 9.35 5.25 2.75 10.7 2.75 3.6 0 8.15-2.95 3.5-2.3 5.05-4.7-3.25-2.85-5.7-6.6-4.1-6.3-4.1-12.6 0-13.6 16.45-23.35 8-4.75 36.2-15.3 25.25-9.5 36.2-17.8 7.45-5.65 11.5-12.5 4.95-8.3 4.95-18.3 0-2.8-3-13l-1.95-7.2q-1.1-4.75-1.1-7.35 0-2.5 1.1-6.15 1.75-5.75 6.2-14.3 12.5 42.4 36.4 62.4 24.3 20.3 45.8 34.3 21.5 14 29.35 30.9 7.85 16.9-10.55 34.4-12.25 11.6-24.65 24.5-2.5 27.95 25.05 35.9 31.95 9.25 26.7 25.25-5.3 16-20.55 26.4-15.25 10.4-42.05 15.45-18.7 3.35-37.7 5.3-16.9 2.15-34 2.45l-4.6.05-9.95.95q-13.15 3.8-24.7 10.75-3.2 1.95-6.25 4.1l2.25-4.1q4-7.05 9.15-15 2.25-3.5 7.75-9.5l2.55-2.75q32.05-9.75 48.95-22.9 22.05-17.2 20.75-26.8-1.35-9.6-2.65-16.55-1.3-6.9-1.3-11.05 0-16.5 5.2-28.2 3.6-8.1 11.45-16.75 9.45-10.45 11.45-13.6 5.2-8.15 5.2-18.6 0-14.4-10.55-29.9-6.25-9.15-14.15-16.25l1.4 4.1q1.1 4 .35 15.15-.75 11.1-21.1 20.95t-34.95 11.3l-16.55.7q18.6-6.85 25.75-14.8 7.75-8.65 10.05-17.8 2.3-9.2 2.45-13.95l.2-9.3q-2.1 13.45-12.95 21.6-8.45 6.3-18.2 10.25-10.45 4.25-20.65 8.9-10.7 4.85-16.85 14.85l-6.5 10.45q-13.15 20.9-33.05 35.4-15.35 11.2-34.3 10.95-5.25-.7-8.15-5.4-4.55-7.35-5-16.25-.35-6.9.5-13.9l.15-3.1q-3.85 7.65-4.65 21.25l-.55 12.25q-.4 7.1-1.35 11.8-1.2 5.7-7.1 21.15-4.55 11.9-4.55 21.2 0 10.2 12 24.35l6.05 6.55q.9 3.05 2.3 6.15 2.8 6.35 9.9 17.4 6.45 10.05 9.25 15.65l.65 1.4q4.5 9.7 4.5 18.75 0 6.35-1.7 13.85m193.55-120.55q-8.25 1.45-12.85-5.5-6.1-9.1 1.35-17.15l12.6-13.3-12.6 13.3q-7.45 8.05-1.35 17.15 4.6 6.95 12.85 5.5" fill="#fe490f" fill-rule="evenodd" transform="translate(3 3)"/><path d="M82 346q-10.05-5.65-21.35-17.45-7.7-8-14.7-16.55-18.45-22.35-32.1-48.1-5.05-10.85-8.05-22.55-7.6-29.65 5.35-55.65t40.55-47.45Q79.05 116.9 96.85 95l.25 3.6q0 8.45-3.75 16.7-2.6 5.65-8.3 13.5-6.75 9.3-8.35 12-3.75 6.6-3.75 12.2 0 5.8 6.7 9.35 5.25 2.75 10.7 2.75 3.6 0 8.15-2.95 3.5-2.3 5.05-4.7-3.25-2.85-5.7-6.6-4.1-6.3-4.1-12.6 0-13.6 16.45-23.35 8-4.75 36.2-15.3 25.25-9.5 36.2-17.8 7.45-5.65 11.5-12.5 4.95-8.3 4.95-18.3 0-2.8-3-13l-1.95-7.2q-1.1-4.75-1.1-7.35 0-2.5 1.1-6.15 1.75-5.75 6.2-14.3 12.5 42.4 36.4 62.4 24.3 20.3 45.8 34.3 21.5 14 29.35 30.9 7.85 16.9-10.55 34.4-12.25 11.6-24.65 24.5-2.5 27.95 25.05 35.9 31.95 9.25 26.7 25.25-5.3 16-20.55 26.4-15.25 10.4-42.05 15.45-18.7 3.35-37.7 5.3-16.9 2.15-34 2.45l-4.6.05-9.95.95q-13.15 3.8-24.7 10.75-3.2 1.95-6.25 4.1-8.75 6.25-16.5 14.45-4.2 4.45-8.9 8.4l-6.85 5.8Q101.65 357.15 82 346m194.65-156.5-12.6 13.3q-7.45 8.05-1.35 17.15 4.6 6.95 12.85 5.5" fill="none" stroke="#5c1508" stroke-linecap="round" stroke-linejoin="round" stroke-width="6"/></g><g id="k"><path d="M63.3 4.6q9.45 3.25 10.5 11.35 1.1 8.2 1.45 17.95l.2 18.35q0 12.5-5.75 24.3-4.3 8.8-13.45 19.9-9.9 11.3-14.75 17.45-10.9 1.35-21.5 4.4-7.75 2.3-13.9 7.35l3.4-20.6q2.25-12.2 6.45-28.5 1.95-7.65 4.75-14.1 2.4-5.4 6.7-12.75 1-1.6 8.45-11.35 6.95-9.75 6.95-13.6 0-2.15-2.8-2.5l-5.7-.05h-1.55l2.1-1.85Q47.45 9.6 63.3 4.6" fill="#58cf45" fill-rule="evenodd" transform="translate(3 3)"/><path d="m63.3 4.6 4.25-1.25Q85.3-1.1 103.65.4q18.45.95 34.65 9.55 17.6 9.25 29 25.2 1.85 3.4 3.5 6.95 7.25 15.55 2.5 32.2-2 7.05-5.9 13.25-6.85 11-17.15 18.7-12.6 9.45-28 11.55-10.2 1.4-20.5-.65Q80.6 112.8 59 112.8l-17.5 1.1q4.85-6.15 14.75-17.45 9.15-11.1 13.45-19.9 5.75-11.8 5.75-24.3l-.2-18.35q-.35-9.75-1.45-17.95-1.05-8.1-10.5-11.35" fill="#186146" fill-rule="evenodd" transform="translate(3 3)"/><path d="M6.1 125.65q-2.5 2-4.7 4.45l-.5-7.05q-2.15-19.85.75-39.6Q4.3 65.2 12.6 48.6q7.55-15.1 20.15-26.4h1.55l5.7.05q2.8.35 2.8 2.5 0 3.85-6.95 13.6Q28.4 48.1 27.4 49.7q-4.3 7.35-6.7 12.75-2.8 6.45-4.75 14.1-4.2 16.3-6.45 28.5l-3.4 20.6" fill="#9afc5f" fill-rule="evenodd" transform="translate(3 3)"/><path d="m44.5 116.9 17.5-1.1q21.6 0 42.75 4.35 10.3 2.05 20.5.65 15.4-2.1 28-11.55 10.3-7.7 17.15-18.7 3.9-6.2 5.9-13.25 4.75-16.65-2.5-32.2-1.65-3.55-3.5-6.95-11.4-15.95-29-25.2-16.2-8.6-34.65-9.55-18.35-1.5-36.1 2.95L66.3 7.6q-15.85 5-28.45 15.75l-2.1 1.85Q23.15 36.5 15.6 51.6 7.3 68.2 4.65 86.45q-2.9 19.75-.75 39.6l.5 7.05q2.2-2.45 4.7-4.45 6.15-5.05 13.9-7.35 10.6-3.05 21.5-4.4z" fill="none" stroke="#0b2c21" stroke-linecap="round" stroke-linejoin="round" stroke-width="6"/></g><g id="l"><path d="M155.45 103.65q2.95 27.85-9 51.1-3.3 6.4-7.7 12.45-28.7-7.95-57.7-14.75l3.1-3.55q3.65-5 6.7-10.55 3.7-6.8 1.35-13.85-2.25-6.65-7.55-11.5-4.8-4.4-11.15-4.2-7.5.35-13.8 4.2-2.4 1.5-3.95 3.95-3.8 6.15-3.75 13.7 0 5.4 2.75 9.85l3.8 6.05q-17.15-6.2-31.05-18.5-5.45-4.8-9.8-10.05l1.3-7.15Q22.7 90.5 56 77.4q33.25-13.1 64.5.65 21.2 9.3 34.95 25.6" fill="#58cf45" fill-rule="evenodd" transform="translate(3 3)"/><path d="M17.7 118Q-4.2 91.7 1 54.85 7.1 11.55 48.75.45q40.2-3.9 69.7 26.7 31.4 32.65 36.75 74.45l.25 2.05q-13.75-16.3-34.95-25.6Q89.25 64.3 56 77.4q-33.3 13.1-37 33.45L17.7 118" fill="#186146" fill-rule="evenodd" transform="translate(3 3)"/><path d="m81.05 152.45-10.75-2.5q-6.05-1.35-11.75-3.4l-3.8-6.05Q52 136.05 52 130.65q-.05-7.55 3.75-13.7 1.55-2.45 3.95-3.95 6.3-3.85 13.8-4.2 6.35-.2 11.15 4.2 5.3 4.85 7.55 11.5 2.35 7.05-1.35 13.85-3.05 5.55-6.7 10.55l-3.1 3.55" fill="#9afc5f" fill-rule="evenodd" transform="translate(3 3)"/><path d="M20.7 121Q-1.2 94.7 4 57.85q6.1-43.3 47.75-54.4 40.2-3.9 69.7 26.7 31.4 32.65 36.75 74.45l.25 2.05q2.95 27.85-9 51.1-3.3 6.4-7.7 12.45-28.7-7.95-57.7-14.75l-10.75-2.5q-6.05-1.35-11.75-3.4-17.15-6.2-31.05-18.5-5.45-4.8-9.8-10.05z" fill="none" stroke="#0b2c21" stroke-linecap="round" stroke-linejoin="round" stroke-width="6"/></g><g id="m"><path d="M181.75 18.95 180 22q-2.9 5.1-2.9 6l.9 1.7q.9 1.6.9 3.6 0 3.4-1.65 4.8l-3.65 1.85q-3.75 1.7-4.85 6.95-1.1-2.3-1.1-5.15 0-6.65 3.9-13.25 3.55-6.1 8.8-9.35l1.4-.2" fill="#78ffe8" fill-rule="evenodd" transform="translate(3 3)"/><path d="m181.75 18.95 1.05-.15.25-.05.9.15q1.45 10.7-3 20.75-3.05 7-8.45 11.65l-1.45-1.2q-1.5-1.4-2.3-3.2 1.1-5.25 4.85-6.95l3.65-1.85q1.65-1.4 1.65-4.8 0-2-.9-3.6l-.9-1.7q0-.9 2.9-6l1.75-3.05" fill="#24cad5" fill-rule="evenodd" transform="translate(3 3)"/><path d="M172.5 51.3q5.4-4.65 8.45-11.65 4.45-10.05 3-20.75 2.8.85 4.6 7.25 1.6 5.8 1.6 11.7 0 4.9-3 9.65-3.55 5.6-8.85 5.6-3.2 0-5.8-1.8" fill="#195277" fill-rule="evenodd" transform="translate(3 3)"/><path d="m145.8 36.9.7-3.15 1.65-8.2q.95-3.75 2.9-5.95 2.4-2.6 5.65-4.6 3.25-2 18-7.8 14.2-5.55 17.35-7.2 1.2 3.25 4.65 7l6.85 6.45q3.1 2.75 6.9 5.45l7.7 5.2q8.85 5.85 11.9 10.2 2.7 3.8 3.75 9.35-2.25-2.75-5.1-5.45-12.5-11.75-27.85-14.75-2.5 14.95-7.2 21.75-6 8.65-17.8 8.65-3.15 0-5.55-.85l-2.05-.95-.3-.2q-3-2-6.3-2l-2.5 2.9q-6.1-7.8-12.7-15.15l-.65-.7m38.15-18-.9-.15-.25.05-1.05.15-1.4.2q-5.25 3.25-8.8 9.35-3.9 6.6-3.9 13.25 0 2.85 1.1 5.15.8 1.8 2.3 3.2l1.45 1.2q2.6 1.8 5.8 1.8 5.3 0 8.85-5.6 3-4.75 3-9.65 0-5.9-1.6-11.7-1.8-6.4-4.6-7.25" fill="#ffb536" fill-rule="evenodd" transform="translate(3 3)"/><path d="m233.8 43.65.3 1.9-10.35 2.7q-11.3 3.45-21.45 9.35-10.3 5.95-16.15 16.5l-6.1 11.25-5.6-10.2Q168.4 64.9 161.3 55.6l-2.15-2.85 2.5-2.9q3.3 0 6.3 2l.3.2 2.05.95q2.4.85 5.55.85 11.8 0 17.8-8.65 4.7-6.8 7.2-21.75 15.35 3 27.85 14.75 2.85 2.7 5.1 5.45" fill="#9d4931" fill-rule="evenodd" transform="translate(3 3)"/><path d="m37.2 225-4.65-1.4q-9.55-3.25-16-9.2-2.15-1.95-3.95-4.2-4.25-5.4-7.05-13-1.7-4.7-2.85-10.2Q0 173.95 0 153.35q0-34.05 10.3-50.55-2 12.7-3 22.85-1.35 13.95-1.35 28.65v4.6l.8-2.05 4.75.1q4.6.2 9.3 13.6 4.7 13.4 4.2 16.05-.55 2.65-4.35 8-3.8 4.25-3.8 4.8 0 2.05 8.45 12.1l.5.6 3.6 4.2 7.8 8.7m25.05-69.35q-3.4-4.3-6.15-8.8-9.8-16.1-11.05-35.6-1.95-29.3 14.05-50.4l.1-.1 3.4-4.4q14.1-17.85 26-26.95 6.85-5.25 13.7-11.5-7.95 17.2-22.75 30.25-4.8 4.25-9.35 8.8Q81.6 52.5 80 70.7q-1.6 18.15-15.5 23.4-5.05 1.6-7.95.1-4.6 21.1 1.95 41.3 5.75 17.65 15.8 32.85l-7.65-7.65-4.15-4.75-.25-.3" fill="#ffd2ff" fill-rule="evenodd" transform="translate(3 3)"/><path d="M102.3 17.9q6.5-5.95 13.05-12.85 7.9 9.05 15.35 16.2 7.8 7.5 15.1 15.65l.65.7q6.6 7.35 12.7 15.15l2.15 2.85q7.1 9.3 13.15 19.55l5.6 10.2 6.1-11.25Q192 63.55 202.3 57.6q10.15-5.9 21.45-9.35l10.35-2.7.95-.25 7.35-1.6 22.05-5.35q10.85-2.75 21.5-6.15 3.85-1.2 11.85-5.75l.35 1.55q1.55 21.3 2.9 44.25 1.7 29.6-3.7 55.35t-35.4 47.9q-30.05 22.1-63.5 25.85-27.65 3.25-55.55 2.15l-2.25-.1q-13.4-3.9-26.45-9.05-19.4-7.75-35.1-21.75l-4.8-4.25q-10.05-15.2-15.8-32.85-6.55-20.2-1.95-41.3 2.9 1.5 7.95-.1Q78.4 88.85 80 70.7q1.6-18.2-9.8-13.75 4.55-4.55 9.35-8.8Q94.35 35.1 102.3 17.9m86.35 86.1-4.95-11.1-3.65-7.55 3.65 7.55 4.95 11.1" fill="url(#M)" fill-rule="evenodd" transform="translate(3 3)"/><path d="M336.2 237.05q-9.2 22.55-30.6 38.15-31.8 23.1-71.85 15.45-38.85-7.3-67.25-35.25l-4-4.1.45-.45q8 2.05 14.95 2.05 8.5 0 23.95-3.85l30.1-8.4q42.2-12.25 60.65-12.25 18.2 0 30.35 3.45 6.9 1.95 13.25 5.2" fill="url(#N)" fill-rule="evenodd" transform="translate(3 3)"/><path d="M10.3 102.8q1.05-1.75 2.25-3.25 2.15 13.5 9.8 24.45 4.55 6.55 9.95 12.05L39.85 155q12.3 31.95 12.3 38.45 0 8.75-5.4 13.9-5.15 4.85-13.3 4.85l-7.3-.4-.85-.3q-8.45-10.05-8.45-12.1 0-.55 3.8-4.8 3.8-5.35 4.35-8 .5-2.65-4.2-16.05t-9.3-13.6l-4.75-.1h-.8v-2.55q0-14.7 1.35-28.65 1-10.15 3-22.85" fill="url(#O)" fill-rule="evenodd" transform="translate(3 3)"/><path d="m298.15 28 3.3 13.7 4.2 16.5q2.95 11.25 6.65 22.5 3.25 10 6.15 20.25 3.1 11.05 4.85 22.2.95 6.05 1.05 12.2.05 5.6-.65 11.25-.65 5.25-2.5 9.9l-.45 1.1q-3.95 9.3-10.7 16.7 10.15-6.45 17.75-15.7 2.7-2.9 4.6-6.35l2.25-4.7 1.75-4.85 1.25-4.85 2 7.6q6.65 26.5 3.95 53.75l-1.35 14.4q-1.6 12.5-6.05 23.45-6.35-3.25-13.25-5.2-12.15-3.45-30.35-3.45-18.45 0-60.65 12.25l-30.1 8.4q-15.45 3.85-23.95 3.85-6.95 0-14.95-2.05l-1.15-.3q-5-5.3-9.5-10.95 26.1 1.35 51.25-6.7 22.3-7.15 38.75-22.1l-12.6 2.35q-10.5 1.65-21.1 1.7l-21.3-1.35-7.05-1.25-6.4-1.05q-15.7-2.8-30.95-7.15v-.55q27.9 1.1 55.55-2.15 33.45-3.75 63.5-25.85 30-22.15 35.4-47.9 5.4-25.75 3.7-55.35-1.35-22.95-2.9-44.25M242.3 210.8l8.55-2.25q10.5-3.05 20.25-7.3 10.95-4.65 20.75-11.3 9.1-6.2 16.75-14.1l1.45-1.55-1.45 1.55q-7.65 7.9-16.75 14.1-9.8 6.65-20.75 11.3-9.75 4.25-20.25 7.3l-8.55 2.25" fill="url(#P)" fill-rule="evenodd" transform="translate(3 3)"/><path d="m104.35 221.7-1.55.45q-19.2 5.8-37.45 5.8-16.55 0-28.15-2.95l-7.8-8.7-3.6-4.2.35-.3 7.3.4q8.15 0 13.3-4.85 5.4-5.15 5.4-13.9 0-6.5-12.3-38.45l-7.55-18.95q12.7 12.8 29.95 19.6l.25.3q.7 9.35 5.15 19.2l1.95 3.9 1.8 3.3q2.75 4.8 6.4 9.7l4.35 5.5q8.25 9.9 22.2 24.15" fill="url(#Q)" fill-rule="evenodd" transform="translate(3 3)"/><path d="m116.2 233.55-8.3-8.25-3.55-3.6q-13.95-14.25-22.2-24.15l-4.35-5.5q-3.65-4.9-6.4-9.7 7.4 3.15 13.7 8.25 21.9 17.5 31.1 42.95" fill="#f53c3c" fill-rule="evenodd" transform="translate(3 3)"/><path d="m152.3 239.6-8.4-.7-24.65-2.35-3.05-3Q107 208.1 85.1 190.6q-6.3-5.1-13.7-8.25l-1.8-3.3-1.95-3.9q-4.45-9.85-5.15-19.2l4.15 4.75 7.65 7.65 4.8 4.25q15.7 14 35.1 21.75 13.05 5.15 26.45 9.05l2.25.65q15.25 4.35 30.95 7.15l6.4 1.05 7.05 1.25 21.3 1.35q10.6-.05 21.1-1.7l12.6-2.35q-16.45 14.95-38.75 22.1-25.15 8.05-51.25 6.7" fill="#792344" fill-rule="evenodd" transform="translate(3 3)"/><path d="M105.3 20.9q6.5-5.95 13.05-12.85 7.9 9.05 15.35 16.2 7.8 7.5 15.1 15.65l.65.7q6.6 7.35 12.7 15.15l2.15 2.85q7.1 9.3 13.15 19.55l5.6 10.2 6.1-11.25Q195 66.55 205.3 60.6q10.15-5.9 21.45-9.35l10.35-2.7.95-.25 7.35-1.6 22.05-5.35q10.85-2.75 21.5-6.15 3.85-1.2 11.85-5.75l.35 1.55 3.3 13.7 4.2 16.5q2.95 11.25 6.65 22.5 3.25 10 6.15 20.25 3.1 11.05 4.85 22.2.95 6.05 1.05 12.2.05 5.6-.65 11.25-.65 5.25-2.5 9.9l-.45 1.1q-3.95 9.3-10.7 16.7 10.15-6.45 17.75-15.7 2.7-2.9 4.6-6.35l2.25-4.7 1.75-4.85 1.25-4.85 2 7.6q6.65 26.5 3.95 53.75l-1.35 14.4q-1.6 12.5-6.05 23.45-9.2 22.55-30.6 38.15-31.8 23.1-71.85 15.45-38.85-7.3-67.25-35.25l-4-4.1-.7-.75q-5-5.3-9.5-10.95l-8.4-.7-24.65-2.35-3.05-3-8.3-8.25-3.55-3.6-1.55.45q-19.2 5.8-37.45 5.8-16.55 0-28.15-2.95l-4.65-1.4q-9.55-3.25-16-9.2-2.15-1.95-3.95-4.2-4.25-5.4-7.05-13-1.7-4.7-2.85-10.2Q3 176.95 3 156.35q0-34.05 10.3-50.55 1.05-1.75 2.25-3.25 2.15 13.5 9.8 24.45 4.55 6.55 9.95 12.05 12.7 12.8 29.95 19.6-3.4-4.3-6.15-8.8-9.8-16.1-11.05-35.6-1.95-29.3 14.05-50.4l.1-.1 3.4-4.4q14.1-17.85 26-26.95 6.85-5.25 13.7-11.5m-28 150.45 4.8 4.25q15.7 14 35.1 21.75 13.05 5.15 26.45 9.05l2.25.65q15.25 4.35 30.95 7.15l6.4 1.05 7.05 1.25 21.3 1.35q10.6-.05 21.1-1.7l12.6-2.35q-16.45 14.95-38.75 22.1-25.15 8.05-51.25 6.7m157.75-65.3-1.45 1.55q-7.65 7.9-16.75 14.1-9.8 6.65-20.75 11.3-9.75 4.25-20.25 7.3l-8.55 2.25M183.05 88.35l3.65 7.55 4.95 11.1M65.5 158.95l-.25-.3m.25.3q.7 9.35 5.15 19.2l1.95 3.9 1.8 3.3q2.75 4.8 6.4 9.7l4.35 5.5q8.25 9.9 22.2 24.15M77.3 171.35l-7.65-7.65-4.15-4.75" fill="none" stroke="#55083b" stroke-linecap="round" stroke-linejoin="round" stroke-width="6"/><path d="m148.8 39.9.7-3.15 1.65-8.2q.95-3.75 2.9-5.95 2.4-2.6 5.65-4.6 3.25-2 18-7.8 14.2-5.55 17.35-7.2 1.2 3.25 4.65 7l6.85 6.45q3.1 2.75 6.9 5.45l7.7 5.2q8.85 5.85 11.9 10.2 2.7 3.8 3.75 9.35l.3 1.9" fill="none" stroke="#48130d" stroke-linecap="round" stroke-linejoin="round" stroke-width="6"/><path d="m186.95 21.9-.9-.15-.25.05-1.05.15-1.4.2q-5.25 3.25-8.8 9.35-3.9 6.6-3.9 13.25 0 2.85 1.1 5.15.8 1.8 2.3 3.2l1.45 1.2q2.6 1.8 5.8 1.8 5.3 0 8.85-5.6 3-4.75 3-9.65 0-5.9-1.6-11.7-1.8-6.4-4.6-7.25z" fill="none" stroke="#0e2b3f" stroke-linecap="round" stroke-linejoin="round" stroke-width="6"/></g><g id="n" fill-rule="evenodd"><path d="M99.35 94.3q-8.75 0-18.1-3.55-9.7-3.7-10.9-8.3l-4.8 1.95q-3.8 1.35-5.7 1.35-3.7 0-5.85-1.55-2.55-1.85-2.55-5.75 0-2 .55-3.2.45-1.15 1.7-2.3-.85 6.55 5.1 8 3.9.8 7.05-1.4 2.7-1.8 5.05-3.75Q79.6 89.45 96.35 90l8.85-.35q4.15-1 5.1-4.95.6-2.55.3-3.3 1 1.15 1.6 3.45.55 2.3-.1 4.85t-4.35 3.6q-3.7 1-8.4 1m-57.3-72.8q4.2 8.65 1.35 20.15-2.8 11.45-11 18.95-8.2 7.55-16.95 6.75-8.75-.8-12.95-9.5-4.15-8.6-1.35-20.05 2.85-11.5 11-19.05Q20.35 11.2 29.1 12q8.75.8 12.95 9.5" fill="#58005b"/><path d="m14 2.35-1.3-.7-2.5-1.2L9.35 0q9.65.7 18.1 5.45Q34.8 9.55 39.4 16.3q5.2 7.6 7.1 16.75 1.4 6.55-.15 13l-4.15-10Q41 33.3 38.3 31.5q-1.2 3.6-4.4 5.2-2.4 1.1-4.85.7-2.6-.65-4.35-2.55-5.25-5.55-4.1-12.9.7-4.65 2.45-8.9L16.7 8.5q-3.4.55-6.35 2.25l-3.9 2.45 5.5-5.4q1.9-1.75 2.75-3.95l.2-.6-.4-.45-.5-.45" fill="#670090"/><path d="M28.85 59.65q-5.65 2.9-10.7 2.9-5.65 0-9.95-3.3-4.5-3.45-4.5-8.35 0-8.15 1.1-11.45 1.85-5.5 5.95-5.25t4.2 3l.05.95-.1.3-.1 1.75v1.15l-.2.9-.4 3.05q0 2.7 1.3 4.3 1.4 1.7 3.85 1.7 1.65 0 5.1-2.7 3.45-2.75 5.25-2.75 2.35 0 4.1 1.7 1.7 1.65 1.7 3.9 0 4.75-6.65 8.2" fill="#d90aff"/><path d="M19.1 21.2q2.85 0 4.7 2.05 1.9 2 1.65 4.85-.2 2.85-2.45 4.9-2.2 2.05-5.05 2.05-2.9 0-4.8-2.05-1.85-2.05-1.65-4.9.25-2.85 2.45-4.85 2.25-2.05 5.15-2.05m5.85 34.95q0 1.15-.8 1.95-.75.8-1.85.8t-1.9-.8q-.75-.8-.75-1.95t.75-1.95q.8-.8 1.9-.8 1.1 0 1.85.8.8.8.8 1.95" fill="#fff"/><path d="M194.6 61.75q0 13-7.6 22.15-7.6 9.15-18.35 9.1-10.75-.05-18.35-9.3-7.6-9.25-7.6-22.25 0-13.05 7.6-22.15 7.6-9.15 18.35-9.1 10.75.05 18.35 9.3 7.6 9.2 7.6 22.25" fill="#58005b"/><path d="M190.9 69.55q0 8.3-5.25 13.55-5.15 5.15-13.35 5.15-7.4 0-14.7-4.45-8.7-5.4-8.7-13.5 0-2.75 1.8-4.55 1.8-1.8 4.55-1.8 3.7 0 5.95 4l2.35 4.8.55.6.9.7q2.3 1.6 5.9 1.6 4 0 5.6-2.1.95-1.35 1.4-4.65.45-3.45 1.25-4.65 1.35-2.1 4.95-2.1 3.9 0 5.45 1.95 1.35 1.65 1.35 5.45" fill="#d90aff"/><path d="m178.35 23.7 16.9-.9 12.05-.3 2.8-.1q-4 1-5.5 1.55-2.6.95-4.7 2.55.75 2.95 1.7 8.85.9 5.95 1.6 8.65v.25q-2.55-3-6.05-6.25-5.6-5.2-8.05-5.2-3.3 0-10.25 2.15l.4 1.55q.3 1.4.3 4.3 0 4.05-.5 5.25l-.7 2.35-.85 2.35q-1.8 2.65-3.4 3.85-2 1.5-4.5 1.5-5 0-8.1-5.1l-3.75-8.05q-9.35 4.45-14.25 6.85-5.35 2.7-9.2 5.15 3.45-8.5 11-16.3 9.8-10.2 21.3-12.85 6.45-1.5 11.75-2.1" fill="#670090"/><path d="M149.75 52.1q2.25-2.45 5.2-2.45t4.9 2.45q1.9 2.5 1.7 6-.25 3.5-2.55 5.95-2.25 2.5-5.2 2.5t-4.9-2.5q-1.9-2.45-1.65-5.95.2-3.5 2.5-6m36.05 24.95q0 1.45-1.1 2.5t-2.65 1.05q-1.55 0-2.65-1.05-1.1-1.05-1.1-2.5t1.1-2.5q1.1-1.05 2.65-1.05 1.55 0 2.65 1.05 1.1 1.05 1.1 2.5" fill="#fff"/></g><g id="o"><path d="m19.5 27.2-4.65 2.1q-2.95 1.15-5.25 1.5l-.25.25q5.95.75 9.25 11.7 2.5 8.3 2.5 17.1 0 4.6-.65 6.95-.95 3.25-3.65 5.1 3.55 9.4 5.65 12.85 1.5 2.45 3.35 4.8-9.25-4.55-15.75-14.7Q0 59.15 0 37.9q0-7.6 1.65-11.65 1.65-4.15 5.1-5.5l1.3.7L12 23.1q3.3 1.05 6.4 3.25l1.1.85" fill="#ffa35e" fill-rule="evenodd" transform="translate(3 3)"/><path d="m29.1 37.2 2.4 3.1 3.25 5.7q1.85 3.3 4.2 3.3l4-.5 4.15-.95.1.1-3.45 3.2-2.65 2.2 3.45 6.1Q46.5 63 46.6 65.8l3.85-1.75 4-2.2.25.1q-.4 1.05-2.4 3.45l-2.7 3.4q.4.3.95 3.45L51 77q0 11.95-13.7 15.9-6.2-.75-11.5-3.35-1.85-2.35-3.35-4.8-2.1-3.45-5.65-12.85 2.7-1.85 3.65-5.1.65-2.35.65-6.95 0-8.8-2.5-17.1-3.3-10.95-9.25-11.7l.25-.25q2.3-.35 5.25-1.5l4.65-2.1q1.6 1.2 3.5 3 2.05 1.9 6.1 7-4.05-5.1-6.1-7-1.9-1.8-3.5-3l-1.1-.85q-3.1-2.2-6.4-3.25l-3.95-1.65-1.3-.7q1.65-.65 3.75-.65 3.7 0 9.9 1.95l4.85 1.35 4.3.6q11.9 0 30.45-8.05 8.2-3.55 13.75-7.05l-2.7 3.65-5.3 6.5q-1.45 1.75-4.3 3.7-3.25 2.05-4.75 3.15 1.6 5.15-3 10.3-4.4 4.95-9.6 4.95-1.65 0-4.25-1.45-3.25-1.75-3.25-4.15l-5.45 1.15-2.05.5" fill="#f53c3c" fill-rule="evenodd" transform="translate(3 3)"/><path d="m47.1 47.85-4.15.95-4 .5q-2.35 0-4.2-3.3l-3.25-5.7-2.4-3.1 2.05-.5 5.45-1.15q0 2.4 3.25 4.15 2.6 1.45 4.25 1.45 5.2 0 9.6-4.95 4.6-5.15 3-10.3 1.5-1.1 4.75-3.15 2.85-1.95 4.3-3.7l5.3-6.5 2.7-3.65Q80.8 4.4 83.4 0q4.7 1.25 6.55 4.5 1.55 2.8 1.55 9.4 0 10.35-2.85 23.15-3.2 14.25-8.9 26.05-14.5 30.1-37.35 30.1l-5.1-.3Q51 88.95 51 77l-.45-4.75Q50 69.1 49.6 68.8l2.7-3.4q2-2.4 2.4-3.45v-.1h-.25l-4 2.2-3.85 1.75q-.1-2.8-2.05-6.35l-3.45-6.1 2.65-2.2 3.45-3.2.1-.1h-.2" fill="#792344" fill-rule="evenodd" transform="translate(3 3)"/><path d="m40.3 95.9 5.1.3q22.85 0 37.35-30.1 5.7-11.8 8.9-26.05 2.85-12.8 2.85-23.15 0-6.6-1.55-9.4Q91.1 4.25 86.4 3q-2.6 4.4-9.65 8.9Q71.2 15.4 63 18.95 44.45 27 32.55 27l-4.3-.6-4.85-1.35q-6.2-1.95-9.9-1.95-2.1 0-3.75.65-3.45 1.35-5.1 5.5Q3 33.3 3 40.9q0 21.25 10.05 36.95Q19.55 88 28.8 92.55q5.3 2.6 11.5 3.35" fill="none" stroke="#3a0e29" stroke-linecap="round" stroke-linejoin="round" stroke-width="6"/><path d="m32.1 40.2 2.4 3.1 3.25 5.7q1.85 3.3 4.2 3.3l4-.5 4.15-.95h.2l-.1.1-3.45 3.2-2.65 2.2 3.45 6.1Q49.5 66 49.6 68.8l3.85-1.75 4-2.2h.25v.1q-.4 1.05-2.4 3.45l-2.7 3.4q.4.3.95 3.45L54 80q0 11.95-13.7 15.9m-8.2-55.7q-4.05-5.1-6.1-7-1.9-1.8-3.5-3l-1.1-.85q-3.1-2.2-6.4-3.25l-3.95-1.65-1.3-.7" fill="none" stroke="#3a0e29" stroke-linecap="round" stroke-linejoin="round" stroke-width="3"/></g><g id="p"><path d="m22.25 98.35-.85.15-1.65-5.65q-1-3.55-1-5.95 0-4.5 1.05-7.2l.15-.45.75-1.45 2.1-1.35 2.4-1.35q2.9-1.55 4.65-1.85 2.45-.45 4.3.9 1.8 1.35 2.75 4.75.9 3.35-1.75 7.2l-3.9 5.65q-5.8 2.75-9 6.6M3.9 71.45 2.05 70.2 0 69.05q6-7.35 13.5-12.2 5.3-3.45 10.2-4.75l1.55 1q1.7 1.45 1.7 3.95 0 1.9-4.05 4-5.85 2.55-9.45 4.35Q10.2 67 7.5 68.8q-1.95 1.25-3.6 2.65m28.5-19.8q-2.2-3.5-4-7.4-2.8-6-3.7-12.45-.85-6.35-.25-12.55.75-7.2 5.55-12.6 2.2-2.5 5-4.05-2.6 3.85-3.65 6.8-.75 2.15-1.4 6.45-.7 4.3-.7 6.8 0 1.75.5 4.85l1.9-.35 1.65-.4q5.1 0 7.75 4.7 2.15 3.8 2.15 9.2 0 4.35-1.55 8.7-2.1 5.75-5.7 5.75l-1.4-.35-.2-.3-1.95-2.8" fill="#fff555" fill-rule="evenodd" transform="translate(3 3)"/><path d="M67.35 22.45q1.25-5.45 6.2-8.15 4.15-2.25 11.15-2.6l17.6 51.5-3.85 1.85q-6.05 2.5-14.25 3.65l-9.6-28.5q-3.5-.9-5.5-4.1-2.25-3.6-2.25-9.4 0-2.3.5-4.25m1.5 78.05-.1.05-.25.25q-3.75 3.65-5.55 6.2-1.15-.4-3.05-3.65l-2.8-4.4q-3.3-3.35-4.25-5.1-1.1-2.05-1.1-5.45 0-1.35.85-5.05-2.75 7.9-13.1 11.3l-9.15 2.15-8.1 1.55q3.2-3.85 9-6.6l3.9-5.65q2.65-3.85 1.75-7.2-.95-3.4-2.75-4.75-1.85-1.35-4.3-.9-1.75.3-4.65 1.85 3.35-3.5 3.35-5.75 0-1.5-1.65-1.95l-3.3-.25-12.1.85-4 .8q2.7-1.8 5.95-3.4 3.6-1.8 9.45-4.35 4.05-2.1 4.05-4 0-2.5-1.7-3.95l-1.55-1q3.05-.85 5.95-.85l2.75.4 1.95 2.8.2.3 1.4.35q3.6 0 5.7-5.75 1.55-4.35 1.55-8.7 0-5.4-2.15-9.2-2.65-4.7-7.75-4.7l-1.65.4-1.9.35q-.5-3.1-.5-4.85 0-2.5.7-6.8.65-4.3 1.4-6.45Q32.4 6.45 35 2.6 38.25.75 42.25.3l4.4-.3q2.75 9.4 5.9 18.7l3.95 12.15 4.4 15.2q3.25 12.05 8.3 23.55l-14.8.25-8.15-.75-1.65-.35q-2.25-3.65-6.35-9.05l-3.7-4.95 3.7 4.95q4.1 5.4 6.35 9.05l1.65.35q.05 2.45.5 3.9l.45 1.1h.5q11 1.25 16.45 5.15 6.3 4.55 6.3 13.25-.15 4-1.6 8M84.9 27.25Q88.35 34 83.05 38.9l-.75.6q-1.95 1.05-4.75 1.05l-2.95-.35 2.95.35q2.8 0 4.75-1.05l.75-.6q5.3-4.9 1.85-11.65M56.3 30.9l.2-.05-.2.05q-7.1 2.45-12.45-3.3-5.65-5.95.05-12.5-5.7 6.55-.05 12.5 5.35 5.75 12.45 3.3" fill="#ffb536" fill-rule="evenodd" transform="translate(3 3)"/><path d="m84.7 11.7 2.85-.1q13.45 0 20.3 8.95 6.25 8.15 6.25 22.65 0 13.35-11.8 20L84.7 11.7m-.5 57-2.6.3q.9 2.35.9 5.2 0 11.4-7.35 19.85l-6.3 6.45q1.45-4 1.6-8 0-8.7-6.3-13.25-5.45-3.9-16.45-5.15h-.5l-.45-1.1q-.45-1.45-.5-3.9l8.15.75 14.8-.25q-5.05-11.5-8.3-23.55l-4.4-15.2-3.95-12.15Q49.4 9.4 46.65 0h1.3q7.5.55 12.95 5.6 5.35 5 6.45 12.35.35 2.15-.75 4.25l.75.25q-.5 1.95-.5 4.25 0 5.8 2.25 9.4 2 3.2 5.5 4.1l9.6 28.5m-63.5 9.1 1.2-1.55-1.5.95q-1.3.8-2.1.8-4.85 0-10.15-3.5L4.7 72l-.8-.55q1.65-1.4 3.6-2.65l4-.8 12.1-.85 3.3.25q1.65.45 1.65 1.95 0 2.25-3.35 5.75l-2.4 1.35-2.1 1.35m45.9-55.6q-3.15 6.25-10.1 8.65 6.95-2.4 10.1-8.65m15 46.8-11.65.55-.75.05.75-.05L81.6 69m-59.7 7.25q1.45-1.55 3.55-2.75-2.1 1.2-3.55 2.75" fill="#9d4931" fill-rule="evenodd" transform="translate(3 3)"/><path d="M70.35 25.45q1.25-5.45 6.2-8.15 4.15-2.25 11.15-2.6l2.85-.1q13.45 0 20.3 8.95 6.25 8.15 6.25 22.65 0 13.35-11.8 20l-3.85 1.85q-6.05 2.5-14.25 3.65l-2.6.3q.9 2.35.9 5.2 0 11.4-7.35 19.85l-6.3 6.45-.1.05-.25.25q-3.75 3.65-5.55 6.2-1.15-.4-3.05-3.65l-2.8-4.4q-3.3-3.35-4.25-5.1-1.1-2.05-1.1-5.45 0-1.35.85-5.05-2.75 7.9-13.1 11.3l-9.15 2.15-8.1 1.55-.85.15-1.65-5.65q-1-3.55-1-5.95 0-4.5 1.05-7.2l.15-.45.75-1.45 1.2-1.55-1.5.95q-1.3.8-2.1.8-4.85 0-10.15-3.5L7.7 75l-.8-.55-1.85-1.25L3 72.05q6-7.35 13.5-12.2 5.3-3.45 10.2-4.75 3.05-.85 5.95-.85l2.75.4q-2.2-3.5-4-7.4-2.8-6-3.7-12.45-.85-6.35-.25-12.55.75-7.2 5.55-12.6 2.2-2.5 5-4.05 3.25-1.85 7.25-2.3l4.4-.3h1.3q7.5.55 12.95 5.6 5.35 5 6.45 12.35.35 2.15-.75 4.25-3.15 6.25-10.1 8.65l-.2.05q-7.1 2.45-12.45-3.3-5.65-5.95.05-12.5m23.45 7.35q-.5 1.95-.5 4.25 0 5.8 2.25 9.4 2 3.2 5.5 4.1l2.95.35q2.8 0 4.75-1.05l.75-.6q5.3-4.9 1.85-11.65m-50.35 27.5 3.7 4.95q4.1 5.4 6.35 9.05l1.65.35 8.15.75 14.8-.25.75-.05L84.6 72M35.4 54.65l1.95 2.8.2.3m-9.1 18.75q-2.1 1.2-3.55 2.75" fill="none" stroke="#48130d" stroke-linecap="round" stroke-linejoin="round" stroke-width="6"/></g><linearGradient gradientTransform="matrix(-.0151 .1111 -.9849 -.1335 -767.9 77.05)" gradientUnits="userSpaceOnUse" id="F" spreadMethod="pad" x1="-819.2" x2="819.2"><stop offset="0" stop-color="#c7356c"/><stop offset="1" stop-color="#a95873"/></linearGradient><linearGradient gradientTransform="matrix(-.011 .0811 -.0797 -.0108 -2008.7 -28.8)" gradientUnits="userSpaceOnUse" id="G" spreadMethod="pad" x1="-819.2" x2="819.2"><stop offset="0" stop-color="#eb4989"/><stop offset="1" stop-color="#ffafc9"/></linearGradient><linearGradient gradientTransform="matrix(-.033 .1148 -.9602 -.2762 356.75 149.6)" gradientUnits="userSpaceOnUse" id="H" spreadMethod="pad" x1="-819.2" x2="819.2"><stop offset="0" stop-color="#eb4989"/><stop offset="1" stop-color="#ffafc9"/></linearGradient><linearGradient gradientTransform="matrix(.0322 .1911 -.9856 .1658 -45.85 134)" gradientUnits="userSpaceOnUse" id="I" spreadMethod="pad" x1="-819.2" x2="819.2"><stop offset="0" stop-color="#eb4989"/><stop offset="1" stop-color="#ffafc9"/></linearGradient><linearGradient gradientTransform="matrix(.1428 0 0 1 385.1 169.2)" gradientUnits="userSpaceOnUse" id="J" spreadMethod="pad" x1="-819.2" x2="819.2"><stop offset="0" stop-color="#eb4989"/><stop offset="1" stop-color="#ffafc9"/></linearGradient><linearGradient gradientTransform="matrix(-.0307 .0944 -.95 -.3091 325.2 145.3)" gradientUnits="userSpaceOnUse" id="K" spreadMethod="pad" x1="-819.2" x2="819.2"><stop offset="0" stop-color="#c7356c"/><stop offset="1" stop-color="#a95873"/></linearGradient><linearGradient gradientTransform="matrix(-.0749 .1117 -.8294 -.556 436.6 236.4)" gradientUnits="userSpaceOnUse" id="L" spreadMethod="pad" x1="-819.2" x2="819.2"><stop offset="0" stop-color="#c7356c"/><stop offset="1" stop-color="#a95873"/></linearGradient><linearGradient gradientTransform="matrix(-.011 .0811 -.0797 -.0108 -1916.1 -151.8)" gradientUnits="userSpaceOnUse" id="M" spreadMethod="pad" x1="-819.2" x2="819.2"><stop offset="0" stop-color="#eb4989"/><stop offset="1" stop-color="#ffafc9"/></linearGradient><linearGradient gradientTransform="translate(-1408.75 83.45)" gradientUnits="userSpaceOnUse" id="N" spreadMethod="pad" x1="-819.2" x2="819.2"><stop offset="0" stop-color="#eb4989"/><stop offset="1" stop-color="#ffafc9"/></linearGradient><linearGradient gradientTransform="matrix(.0072 .0605 -.9927 .1177 93.9 148.75)" gradientUnits="userSpaceOnUse" id="O" spreadMethod="pad" x1="-819.2" x2="819.2"><stop offset="0" stop-color="#eb4989"/><stop offset="1" stop-color="#ffafc9"/></linearGradient><linearGradient gradientTransform="matrix(-.0514 .0998 -.8848 -.4561 -574.85 -281.15)" gradientUnits="userSpaceOnUse" id="P" spreadMethod="pad" x1="-819.2" x2="819.2"><stop offset="0" stop-color="#c7356c"/><stop offset="1" stop-color="#a95873"/></linearGradient><linearGradient gradientTransform="matrix(.1304 0 0 1 55.85 106.55)" gradientUnits="userSpaceOnUse" id="Q" spreadMethod="pad" x1="-819.2" x2="819.2"><stop offset="0" stop-color="#c7356c"/><stop offset="1" stop-color="#a95873"/></linearGradient><path d="M50.7 4.95q19.75 0 33.7 3.85 14 3.8 14 9.2 0 5.4-14 9.2Q70.45 31 50.7 31q-19.8 0-33.75-3.8-14-3.8-14-9.2 0-5.4 14-9.2Q30.9 4.95 50.7 4.95" fill-opacity=".349" fill-rule="evenodd" transform="translate(-2.95 -4.95)" id="b"/></defs></svg>