<svg xmlns:ffdec="https://www.free-decompiler.com/flash" xmlns:xlink="http://www.w3.org/1999/xlink" ffdec:objectType="frame" height="90" width="90" xmlns="http://www.w3.org/2000/svg"><use ffdec:characterId="38" height="88.5" transform="matrix(1 0 0 1.0003 1.5 .5)" width="93.7" xlink:href="#a"/><defs><g id="a" transform="translate(-1.5 -.5)"><use ffdec:characterId="1" height="8.75" transform="matrix(.9572 0 0 1.8033 17.338 73.214)" width="55.5" xlink:href="#b"/><use ffdec:characterId="3" height="16.7" transform="translate(10.65 32.5) scale(.5297)" width="23.4" xlink:href="#c"/><use ffdec:characterId="10" height="148.65" transform="translate(51.45 20.8) scale(.2944)" width="148.6" xlink:href="#d"/><use ffdec:characterId="12" height="60.95" transform="translate(52.75 22.45) scale(.4672)" width="57.25" xlink:href="#e"/><use ffdec:characterId="16" height="45.05" transform="translate(8.9 58.25) scale(.5297)" width="95.65" xlink:href="#f"/><use ffdec:characterId="19" height="74.9" transform="translate(6 30.25) scale(.4672)" width="42.9" xlink:href="#g"/><use ffdec:characterId="21" height="64.95" transform="translate(42.9 53.75) scale(.4672)" width="69.25" xlink:href="#h"/><use ffdec:characterId="23" height="61.85" transform="translate(16.55 37.7) scale(.5297)" width="94.65" xlink:href="#i"/><use ffdec:characterId="25" height="63.05" transform="translate(58.1 35.6) scale(.4672)" width="58.05" xlink:href="#j"/><use ffdec:characterId="27" height="57.15" transform="translate(20.65 58.05) scale(.4672)" width="59" xlink:href="#k"/><use ffdec:characterId="29" height="56.1" transform="translate(20.15 35.45) scale(.4672)" width="89.05" xlink:href="#l"/><use ffdec:characterId="31" height="47.25" transform="translate(12.6 27.7) scale(.4672)" width="136.5" xlink:href="#m"/><use ffdec:characterId="33" height="60.5" transform="translate(56.6 31.7) scale(.4672)" width="29.85" xlink:href="#n"/><use ffdec:characterId="37" height="75.95" transform="translate(11.15 .5) scale(.4672)" width="137.3" xlink:href="#o"/></g><g id="t" fill-rule="evenodd"><path d="m2.35 10.55-.2-.45q-.45-1-.65-2.2 6 5 7.35-2.65l.55-.3q2.05 2.6-.2 7.55-5.45.25-6.85-1.95" fill="#4c7ea7"/><path d="M1.5 7.9q.2 1.2.65 2.2l.2.45q3.05 5.9 16.1 4.25l-.9 1.45q-18.2 2.6-17.5-9.9 7.1-.8 12.55-4.95l2.85-.8q-2.7 2.55-6.05 4.35l-.55.3Q5.5 6.95 1.5 7.9" fill="#344077"/><path d="M9.2 12.5q2.25-4.95.2-7.55 3.35-1.8 6.05-4.35Q27.8-2.5 21 10.45 13.75 12.3 9.2 12.5" fill="#234e76"/><path d="M2.35 10.55q1.4 2.2 6.85 1.95 4.55-.2 11.8-2.05l-2.55 4.35Q5.4 16.45 2.35 10.55" fill="#becaff"/><path d="M8.85 5.25Q7.5 12.9 1.5 7.9q4-.95 7.35-2.65" fill="#85bae3"/></g><g id="u" fill-rule="evenodd"><path d="M107.9 2.15q2 9.7.75 17.1-5.15 15.8-18.05 16.9l1.05-4.5q-1.15-3.3-4.65-1.2-2.6 3.05-4.3 5.85-6.3-5.85-2.8-16.9l1.8-2.5q-2.05 19.9 5.45 5.6-.65 12.1 10.1 2.35l-2.6 4.75q15.05-1.8 11.2-20.45l-2.3.55q-.2-3.6 3.45-6.8l.9-.75" fill="#354178" transform="translate(-10.7)"/><path d="m107.9 2.15-.9.75q-6.5 2.2-7.55 10.35-2.9 5.1-6.15 6.8 1.55-5.15-2.2-5.45-2.9 5-8.3 6.4l1.1-6.8Q94 2.8 107.9 2.15" fill="#6790d0" transform="translate(-10.7)"/><path d="M104.5 11.75q2.1 5.6-1.9 10.75 1.55-6.1-4-2.7l5.9-8.05" fill="#6b96d1" transform="translate(-10.7)"/><path d="m104.5 11.75-5.9 8.05q5.55-3.4 4 2.7 4-5.15 1.9-10.75M107 2.9q-3.65 3.2-3.45 6.8l2.3-.55q3.85 18.65-11.2 20.45l2.6-4.75Q86.5 34.6 87.15 22.5q-7.5 14.3-5.45-5.6l2.2-2.7-1.1 6.8q5.4-1.4 8.3-6.4 3.75.3 2.2 5.45 3.25-1.7 6.15-6.8Q100.5 5.1 107 2.9" fill="#4c5faf" transform="translate(-10.7)"/><path d="M108.65 19.25q1.25-7.4-.75-17.1-13.9.65-24 12.05l-2.2 2.7-1.8 2.5q-3.5 11.05 2.8 16.9l-.95 1.7q-15.5-17.6 14.4-35.55l13-2.45q5 16.75-1.4 29.9-6.6 11.05-17.6 10.1l.2-2.25q5.7.55 9.35-2.95 7.3-5.75 8.95-15.55" fill="#344077" transform="translate(-10.7)"/><path d="M82.7 36.3q1.7-2.8 4.3-5.85 3.5-2.1 4.65 1.2l-1.05 4.5-.25 1.6-.2 2.25q-.2 4.1.95 6.95 1.05 2.55 3.15 4.1Q104.8 58.1 109 66.6q12.7 23.25-9.3 46.45l.2.55-.25-.5Q54.25 150.25 11 145.6l-.1-1.6q44.05 5.15 87.7-32.55 7.95-6.1 10.8-18.75 5.8-22.05-9.4-34-8.35-5.3-10.85-11.75-2.5-6.4.85-13.9l-.45-1.15q-.65-.65-2.15.2-3.7 4.25-5.05 8.25-1.15 3.4-.55 6.6.75 4.2 4.4 8.1 24.3 16.15 18.6 33.2l-1.65 3.8-1.25 2.15-4.25 3.8-1.75 1.6v-1.3q-36 36.3-85.15 39.5l.1-1.75q46.75-3.4 85.05-39.1 19.3-18.15-10.1-39.9-5.95-4.3-6.35-10.1-.25-4.1 2.3-8.95l.95-1.7" fill="#334178" transform="translate(-10.7)"/><path d="m89.55 31.9.45 1.15q-3.35 7.5-.85 13.9Q91.65 53.4 100 58.7q15.2 11.95 9.4 34-2.85 12.65-10.8 18.75l-.55-1q17.05-18.9 9.85-39.7-4.8-10.2-14.15-15.25l-.25-.15q-4.1-4.05-5.65-8.4-2.55-7.1 1.7-15.05" fill="#bdbcff" transform="translate(-10.7)"/><path d="M82.35 40.35q1.35-4 5.05-8.25 1.5-.85 2.15-.2-4.25 7.95-1.7 15.05 1.55 4.35 5.65 8.4l.25.15q9.35 5.05 14.15 15.25 7.2 20.8-9.85 39.7l.55 1Q54.95 149.15 10.9 144l-.1-1.85-.1-3.8.05-.55q49.15-3.2 85.15-39.5v1.3l1.75-1.6q8.55-.3 5.5-5.95l1.65-3.8 1.9 1.05q4.1-14.1-5.35-25.95-12.55-5.8-15.65-16.4l-.6-2.45q.75-8.25-2.75-4.15" fill="#224578" transform="translate(-10.7)"/><path d="M82.35 40.35q3.5-4.1 2.75 4.15l.6 2.45q3.1 10.6 15.65 16.4 9.45 11.85 5.35 25.95l-1.9-1.05q5.7-17.05-18.6-33.2-3.65-3.9-4.4-8.1-.6-3.2.55-6.6" fill="#3e6993" transform="translate(-10.7)"/><path d="M90.6 36.15q12.9-1.1 18.05-16.9-1.65 9.8-8.95 15.55-3.65 3.5-9.35 2.95l.25-1.6" fill="#d6d9fb" transform="translate(-10.7)"/><path d="M103.15 92.05q3.05 5.65-5.5 5.95l4.25-3.8 1.25-2.15" fill="#3e4994" transform="translate(-10.7)"/></g><g id="v" fill-rule="evenodd"><path d="M11.25 2.3 11.8 0q46.9 22.6 45.4 60.95L0 49.15 1.45 43 55.7 58.35Q54.2 20.2 11.25 2.3" fill="#304d87"/><path d="M11.25 2.3Q54.2 20.2 55.7 58.35L1.45 43l9.8-40.7" fill="#4855a9"/></g><g id="f"><use ffdec:characterId="13" height="35.8" transform="translate(20.7)" width="74.95" xlink:href="#p"/><use ffdec:characterId="15" height="43.6" transform="matrix(.882 0 0 .882 0 6.6)" width="48.5" xlink:href="#q"/></g><g id="p" fill-rule="evenodd"><path d="m81.05 5.2 6.9.65v.05Q71.2 26.55 54.1 33.4q-7.1 1.85-13.4.45Q57.8 35.2 81.05 5.2" fill="#4b5daf" transform="translate(-20.7)"/><path d="m87.95 5.85 4.95.4Q71.1 29 54.1 33.4q17.1-6.85 33.85-27.5v-.05" fill="#d5d7fb" transform="translate(-20.7)"/><path d="m92.9 6.25 2.75.25Q62.8 39.7 40.5 35.3 18.6 22.4 20.95 0l1.45.1Q20 23 40.7 33.85q6.3 1.4 13.4-.45 17-4.4 38.8-27.15" fill="#344077" transform="translate(-20.7)"/><path d="m22.4.1 58.65 5.1Q57.8 35.2 40.7 33.85 20 23 22.4.1" fill="#374581" transform="translate(-20.7)"/></g><g id="w" fill-rule="evenodd"><path d="m9.65 10.9-.75-.5-.35-.05.9-1.65v-.05q7-5.8 14.75-8.65l1.75.65Q16.9 4.15 9.65 10.9" fill="#231013"/><path d="m16 14.5 1.8 1.5 3.8-3.8 7.5 4.5 7.95-6.7 2.7.95.85-4.85 7.9 2.95-8 9.95q1.15 11.2-1.35 17.6l-1.75-.65q2-5.15 1.2-14.55l-6.05 7.55-9.15-2.55-1.1 1.5-.95-.5.6 1.95q2.1 6 5.05 8.95-.9.75-1.8 1.65-3.25-3.9-6.15-11.95l-3.6 2.75-3.85-4.1Q9.25 27.9 6.85 29.1l-1.9-7.75L0 19.15l4.95-7.65-.85-2.85h5.35v.05l-.9 1.65.35.05.75.5.75.45 1.1 4.9L16 14.5m-5.5 3L9 12.3H7.5l1.05-1.95-2.8-.5.7 2.35-3.75 5.45-.35.55 3.95.95.2.85 1.3 6.1 4.1-1.75 4.1 3.8 5.35-4.9.5 2.3 1.25-1.2 9.15 2.7L40.3 12.7l-3-.65-8.6 6.55-6.7-4.65-4.2 3.85-2.5-1.65-4.45 1.8-.35-.45" fill="#344077"/><path d="M26.95 1.05q-5.5 2.6-10.65 6l-5.9 4.3-.75-.45Q16.9 4.15 25.95.65l1 .4" fill="#8ffcff"/><path d="m40.6 6.1-.85 4.85-2.7-.95-7.95 6.7-7.5-4.5-3.8 3.8-1.8-1.5q2-2.4.3-7.45 5.15-3.4 10.65-6L40.6 6.1" fill="#2f1313"/><path d="M8.55 10.35 7.5 12.3H9l1.5 5.2-2.45-3.15-5.35 3.3 3.75-5.45-.7-2.35 2.8.5m9.25 7.45 4.2-3.85 6.7 4.65 8.6-6.55 3 .65-8.05 14.35-9.15-2.7-1.25 1.2-.5-2.3-5.35 4.9-4.1-3.8-4.1 1.75L6.5 20l2 3.25q5.15-3.8 7.75.65 2.5-4.5 6.6-2.7l1.5-2.6L22 15.75l-4.2 2.05m13.65 6.25 1.2-5.2-4.75 2.5 3.55 2.7" fill="#45aebc"/><path d="m10.85 17.95 4.45-1.8 2.5 1.65 4.2-2.05 2.35 2.85-1.5 2.6q-4.1-1.8-6.6 2.7-2.6-4.45-7.75-.65L6.5 20l-.2-.85-3.95-.95.35-.55 5.35-3.3 2.45 3.15.15.55.2-.1m20.6 6.1-3.55-2.7 4.75-2.5-1.2 5.2" fill="#b0ecf4"/><path d="m21.95 29.35-.6-1.95.95.5 1.1-1.5 9.15 2.55 6.05-7.55q.8 9.4-1.2 14.55l-4.05-.4q-5.15-7.25-11.4-6.2" fill="#374581"/><path d="M27 38.3q-2.95-2.95-5.05-8.95 6.25-1.05 11.4 6.2-3.3.3-6.35 2.75" fill="#5e87cf"/><path d="M16.3 7.05Q18 12.1 16 14.5l-4.5 1.75-1.1-4.9 5.9-4.3" fill="#4c2230"/><path d="M30.95 40.75q-1.8-.55-3.35-1.85 1.1-.7 2.15-1.15l1.2 3" fill="#232751"/><path d="M25.2 39.95q.9-.9 1.8-1.65 3.05-2.45 6.35-2.75l4.05.4 1.75.65q-1.8 4.6-5.55 6.7-4.45 1.4-8.4-3.35M32 41l1.05.15q2.65-1.45 4.1-4.6l-1.45-.15q-2.9-.05-5.95 1.35-1.05.45-2.15 1.15 1.55 1.3 3.35 1.85L32 41" fill="#080912"/><path d="M35.7 36.4 32 41l-1.05-.25-1.2-3q3.05-1.4 5.95-1.35" fill="#13142a"/><path d="m35.7 36.4 1.45.15q-1.45 3.15-4.1 4.6L32 41l3.7-4.6" fill="#656eab"/></g><g id="y" fill-rule="evenodd"><path d="M42.7 7.25q.45 3.5-.2 8.7-.75 8.8-5.35 12.2L34.8 29.5q-3 1.2-7.2.8l-1.25-.15q-1.75-.5-2.85-1.6-.9-.85-1.35-2.1Q19.7 19.5 31 .9l2-.55Q27.75 8.9 25.4 14.8q-3.65 9.15-.4 12.05l1.8.7q7.4 2.35 12.95-6.45L42.7 7.25" fill="#53668e"/><path d="M42.7 7.25 39.75 21.1q-5.55 8.8-12.95 6.45 5.25-9.85-1.4-12.75Q27.75 8.9 33 .35q8.55-2 9.7 6.9M21.05 31.4q2.45 7.1 10.5 5.85l-2.15 18.3-3.15-2.85-3.15 1.9-2.2-2.55q6.5-13.45-.8-16.7-5.8 9.5-.7 15.9l-.95.3q-7.3-8.5 2.6-20.15" fill="#5c71af"/><path d="M2.9 57.55q-4.15-4.2-2.35-12.1L5.15 47l-.5 1.65-3-.75q-.05 4.9 2.05 7.65l-.8 2" fill="#8b6c4b"/><path d="M3.7 55.55Q1.6 52.8 1.65 47.9l3 .75-1.1 3.6 1.25.35-1.1 2.95" fill="#b9a590"/><path d="m13.05 51.85-3.5-.15-.8-3.55H7.5l-.95 3.1-1.2-.65 2.7-4.9-.8-1.75 3.2-1.05q-.8 2.4-1.15 5.15l3.55 2.6.2 1.2m-5.25.7 1.5 2.3h2.05l3.8 4.25 3.55-2.85L16.8 54l3.3-1.05 2.6 3.85 3.65-2.2 3.85 3.7-.3 5.45-3.65-3.15-4.4 1.8L19 59.5l-3.15 2.35-5.3-6.15.65 1.75-3.4.85v-5.75m-1.25 12-.25 1.5q-1.35-1.8-1.95-5.3l2.2 3.8" fill="#45aebc"/><path d="m6.55 51.25.95-3.1h1.25l.8 3.55 3.5.15.5 3.15 3.25-1 1.9 2.25-3.55 2.85-3.8-4.25H9.3l-1.5-2.3v-.7l-1.25-.6" fill="#b0ecf4"/><path d="M33.05 37q-.25 10-2.2 18.55L31.7 67l-2.95-2.25-.8-.6-2.1-1.65-3.6 1.95-3.4-2.75-1.75 1.1-1.8 1.1-.7-.8-1.5-1.7-2.15-2.45-3.7.7-.1-.65-.5-2.7L6 52.95l-1.2-.35-1.25-.35 1.1-3.6.5-1.65.6-2-.8-2.7 6.05-1q2.8-7.45 9.5-12l.4 1.55q-3.35 3.3-5.55 6.95-3 4.95-4 10.5l2.85 1.65v2.85l2.35-.7 1.9-.55.95-.3.7-.2.8 1 2.2 2.55 3.15-1.9 3.15 2.85 2.15-18.3 1.5-.25m-20 14.85-.2-1.2-3.55-2.6q.35-2.75 1.15-5.15l-3.2 1.05.8 1.75-2.7 4.9 1.2.65 1.25.6v6.45l3.4-.85-.65-1.75 5.3 6.15L19 59.5l2.85 2.9 4.4-1.8 3.65 3.15.3-5.45-3.85-3.7-3.65 2.2-2.6-3.85L16.8 54l-3.25 1-.5-3.15" fill="#344077"/><path d="m16.55 52.1-2.35.7v-2.85l-2.85-1.65q1-5.55 4-10.5-3.15 10.7 1.2 14.3" fill="#85bae3"/><path d="M27.6 30.3q4.2.4 7.2-.8l-2.4 5.55q-3.5.9-6.05-.4 2.25-.85 1.25-4.35" fill="#6a1212"/><path d="M22.15 26.45q.45 1.25 1.35 2.1l-.8 2.25q1.45 2.75 3.65 3.85 2.55 1.3 6.05.4l2.4-5.55 2.35-1.35q-.15 6.3-4.1 8.85l-1.5.25q-8.05 1.25-10.5-5.85l-.15-.55-.4-1.55 1.65-2.85" fill="#4c0d0d"/><path d="M23.5 28.55q1.1 1.1 2.85 1.6l1.25.15q1 3.5-1.25 4.35-2.2-1.1-3.65-3.85l.8-2.25" fill="#a73030"/><path d="m26.8 27.55-1.8-.7q-3.25-2.9.4-12.05 6.65 2.9 1.4 12.75m-5.9 24.5-.8-1-.7.2q-5.1-6.4.7-15.9 7.3 3.25.8 16.7" fill="#b8d8f0"/><path d="M15.35 37.8q2.2-3.65 5.55-6.95l.15.55q-9.9 11.65-2.6 20.15l-1.9.55q-4.35-3.6-1.2-14.3" fill="#4c80a7"/><path d="m17.1 62.8 1.75-1.1 3.4 2.75 3.6-1.95 2.1 1.65q-1.7 5.65-6.3 3.8Q21.3 64 17.1 62.8m-9.85-3.15 3.7-.7 2.15 2.45q-2.2-1.85-5.75-1.05l-.1-.7m1.05 6.4q2.95 1.45 5.55.8-2.3 3.1-.95 5.2l-1.5-.55-3.1-5.45" fill="#13142a"/><path d="M28.75 64.75q-1.3 7.4-7.15 5.3-2.2 5.45-8.2 4.75-5.45-1.1-7.45-6.35l.35-2.4.25-1.5.1-.65q-1.45-3.6 0-7.6l.5 2.7q-.6 4.95 2.85 6.4 4.75.9 4.6-2.3l.7.8 1.8-1.1q4.2 1.2 4.55 5.15 4.6 1.85 6.3-3.8l.8.6M8.3 66.05l-.9-.55q1.4 4.55 4 6l1.5.55 1.1.1q2.45.05 5.7-1.85.95-5.45-3.15-4.8-1.3 1-2.7 1.35-2.6.65-5.55-.8" fill="#080912"/><path d="m5.95 68.45-.2-.45Q1.3 63.1 2.9 57.55l.8-2 1.1-2.95 1.2.35.65 3.35-2.7 1.7.4 2.75q.6 3.5 1.95 5.3l-.35 2.4" fill="#231013"/><path d="M6.65 56.3q-1.45 4 0 7.6l-.1.65-2.2-3.8-.4-2.75 2.7-1.7" fill="#441f30"/><path d="M14.6 63.1q.15 3.2-4.6 2.3-3.45-1.45-2.85-6.4l.1.65.1.7Q7.85 63.2 10 64q2.5-2 4.6-.9m1.95 2.4q4.1-.65 3.15 4.8-3.25 1.9-5.7 1.85 5-3.05 2.55-6.65" fill="#48508b"/><path d="M11.4 71.5q-2.6-1.45-4-6l.9.55 3.1 5.45" fill="#636aa6"/><path d="m13.1 61.4 1.5 1.7Q12.5 62 10 64q-2.15-.8-2.65-3.65 3.55-.8 5.75 1.05m.75 5.45q1.4-.35 2.7-1.35Q19 69.1 14 72.15l-1.1-.1q-1.35-2.1.95-5.2" fill="#232751"/></g><g id="z" fill-rule="evenodd"><path d="m60.95 15.55.75.75.15 3.15-5.05 1.35v3.3l-6.15 1.1v8.85l-6.7.55-2.15 2.45-2.2-2.15-6.4 4.5-3.3-2.45-2.75 2.7-2.25-1.15-2.25-1.15-7.1 3.8-2.85-3.85-.55-.75-4.5-1L1.5 26.4v-2.3l6.15 9.4 5.45 1.1 1.5 2 1.5 2 2.9-1.4 4.05-1.9 4 2.3 3.15-2.85 3 3.15 6.65-4.8 2.35 1.8 1.65-2.05h5.3L50 23h5.3v-3.3l5.65-1.2v-2.95" fill="#32467f"/><path d="M27.8 2Q31.6.8 35.7.25l23.55 13.6 1.7 1.7v2.95l-5.65 1.2Q42.65 10.3 27.8 2" fill="#8df5ff"/><path d="M35.7.25 37.8 0l22.85 12.9 5.9 6.4 2.7 9.3-2.6 1.25 1.8 6.7-12.05 3.4v1.9H53v3.55l-1.55-.3-2.35-.45-3.9-.75V48l-13-1.65-1.5 1.8-2.7-1.4-2.35 4.4-5.45-2.7-6.8-3.3-1.35 2.1-1.7 2.7-8.05-10.3H0v-15l1.5-2.2V38.3h1.2l7.1 8.05 1.15-.95 2-1.65L25 48.95l1.35-2.05L28 44.45l2.2 2.05 1.5-1.9 12 1.9.7-3.95 7.1.65v-2.6h3.8v-1.75l2.25-.7 8.4-2.7-1.65-7.25 2.35-.95-2.45-8.5-2.5-2.45-.75-.75-1.7-1.7L35.7.25" fill="#2e4e8a"/><path d="m61.7 16.3 2.5 2.45 2.45 8.5-2.35.95 1.65 7.25-8.4 2.7 5.25-4.2v-2.5l-3.55-4.2-5.35-.85-.9-.15-2.35 7.8V25.2l6.15-1.1v-3.3l5.05-1.35-.15-3.15m3.05 8.9-2.6-1.5-.85 2 1.1 1.1 2.35-1.6" fill="#65d6e2"/><path d="M1.5 22.45Q12.45 6.85 27.8 2q14.85 8.3 27.5 17.7V23h-1.75l-4.8-3.95-3.8 3q-12.4 9.25-27.2 13.65l-3.15.9-1.5-2-5.45-1.1-6.15-9.4v-1.65" fill="#28191d"/><path d="m64.75 25.2-2.35 1.6-1.1-1.1.85-2 2.6 1.5" fill="#aaeef6"/><path d="m44.95 22.05 3.8-3 4.8 3.95H50l-.85 9.85h-.95q1.5-6.2-3.25-10.8" fill="#552b38"/><path d="M55.3 38.85v1.75h-3.8v2.6l-7.1-.65-.7 3.95-12-1.9-1.5 1.9-2.2-2.05-1.65 2.45q-6.75-5.45-1.45-8.4l2.25 1.15 2.75-2.7 3.3 2.45 6.4-4.5 2.2 2.15 2.15-2.45 6.7-.55 2.35-7.8.9.15 4.7 3-1.25 1.65L59 33l-3.7 5.85" fill="#fff"/><path d="M48.2 32.85h-4.35L42.2 34.9l-2.35-1.8-6.65 4.8-3-3.15-3.15 2.85-4-2.3L19 37.2l-1.25-1.5q14.8-4.4 27.2-13.65 4.75 4.6 3.25 10.8" fill="#995639"/><path d="m25.65 51.15 2.35-4.4 2.7 1.4 1.5-1.8 13 1.65v-2.05l3.05 1.45q-1.45 4.4-3.4 7.55-3.3-.6-6.3-.1-8.2-6.6-12.85-3.65l-.05-.05m12.5-1.85q-.35.3-.35.8 0 .45.35.8l.8.3.8-.3.35-.8q0-.5-.35-.8-.35-.35-.8-.35-.45 0-.8.35" fill="#6892d1"/><path d="M22.55 55.2q1.3-2.8 3.15-4 4.65-2.95 12.85 3.65-5.05.9-9.45 4.9-3.2-1.6-6.55-4.55m15.6-5.9q.35-.35.8-.35.45 0 .8.35.35.3.35.8l-.35.8-.8.3-.8-.3q-.35-.35-.35-.8 0-.5.35-.8" fill="#9acff8"/><path d="M45.2 45.95V43.9l3.9.75-.85 2.75-3.05-1.45m-25 2.5-1.6 2.9q-2.6-2.75-5.2-6.2l6.8 3.3" fill="#4d5fb0"/><path d="M51.45 45.1Q50.7 51.5 48.5 56q-1.85-.7-3.65-1.05 1.95-3.15 3.4-7.55l.85-2.75 2.35.45M27.3 61.65q-7.75-4.4-15.25-14.4l1.35-2.1q2.6 3.45 5.2 6.2l3.95 3.85q3.35 2.95 6.55 4.55l-1.8 1.9" fill="#344077"/><path d="M26.35 46.9 25 48.95l-12.05-5.2-2 1.65-2.1-4.35 3.85-3.75 2.85 3.85 7.1-3.8 2.25 1.15q-5.3 2.95 1.45 8.4" fill="#b0ecf4"/><path d="m10.95 45.4-1.15.95-7.1-8.05H1.5V26.4l6.15 9.15 4.5 1 .55.75-3.85 3.75 2.1 4.35" fill="#6dcfdb"/><path d="m19 37.2-2.9 1.4-1.5-2 3.15-.9L19 37.2" fill="#451f30"/><path d="m25.65 51.15.05.05q-1.85 1.2-3.15 4l-3.95-3.85 1.6-2.9 5.45 2.7" fill="#648ed0"/><path d="M48.5 56q-3.25 6.65-9.7 8.95-5.8-.15-11.5-3.3l1.8-1.9q4.4-4 9.45-4.9 3-.5 6.3.1 1.8.35 3.65 1.05m-9.6 5.1q2.95-1.75 5.25-5.1l-1.05-.15-4.6.3q-2.1.45-4.3 1.5l-4.1 2.55q4 1.8 7.7 1.45l1.1-.55" fill="#080912"/><path d="m43.1 55.85 1.05.15q-2.3 3.35-5.25 5.1l4.2-5.25m-5.3 5.8q-3.7.35-7.7-1.45l4.1-2.55 3.6 4" fill="#7380a9"/><path d="m38.5 56.15 4.6-.3-4.2 5.25-.4-4.95" fill="#1c1f34"/><path d="m38.9 61.1-1.1.55-3.6-4q2.2-1.05 4.3-1.5l.4 4.95" fill="#363c64"/><path d="m57.55 38.15-2.25.7L59 33l-1.65-1.95 1.25-1.65-4.7-3 5.35.85 3.55 4.2v2.5l-5.25 4.2" fill="#adedf5"/></g><g id="A" fill-rule="evenodd"><path d="M71.1 38.65q-2.6-5.55-9.25-9.15l-.8-.45-.15.15-7.45-1.85Q43.45 25 33.15 25q-9.5.75-18.6 3.6-1.25-1.7-2.15-3.7l-.1-.2h.2q9.8-1.9 20-2.65 9.45-.95 18.25.35 8.8 1.2 13.85 3 2.85 1.05 5.25 2.35 4.5 2.55 7.1 6.2 3.7 5.05 3.6 12.25l-1.2.45q-3.8-4.45-8.25-8" fill="#8dc4ef"/><path d="M16.6 30.95v.1l-.05-.05.05-.05m-7.55-11.6L6.8 20.5l-.15-.15q8.2-9.1 25.1-14.7Q48.8 0 67.75 0l7.1.05 5.9 2.5q1.85.75 3.85 3.05l.1.05.65-1.1q7.85 10.9 9.1 28.9-7.25-5.55-17.5.5-2.6-3.65-7.1-6.2-2.4-1.3-5.25-2.35-5.05-1.8-13.85-3-8.8-1.3-18.25-.35-10.2.75-20 2.65h-.2q-1.2-2.8-1.75-6.15l-1.5.8" fill="#4d81a8"/><path d="m53.05 31.2-4.6-1.1q-8.4-1.9-17.15-1.75-7.5.1-14.7 2.6l-.05.05.05.05.15.1Q5.3 37.5 4.9 46.3l-.1 1.2Q3 46.4 1.85 45.1L.8 43.6l.75 5.9 1.3 1.45L5.2 53.1l.65 1.95Q2.8 52.95.2 50.15v-7.5Q-1.05 30.35 5.6 22l1.2-1.5 2.25-1.15q-3.55 4.2-5.4 8.35-.85 1.85-1.35 3.65-.85 2.95-.9 5.9-.05 3.45.95 6.85l1.7 1.45q.2-1.35.55-2.55 2-7.05 9.5-11.55L15 31l1-.6.05.05.05.05q2.55-1 5.3-1.7 9.95-2.1 20.15-.9 8.75.75 17 3.85l.35-.4 3.1 1.5q4.85 2.45 9.1 5.8 4.45 3.55 8.25 8l1.2-.45q7.55-2.9 14.1-7.4v5.05Q86.1 53.3 70.1 57.8l.65-1.85q4.7-1.55 9.05-3.6l2.7-1.4.95-.5q4.7-2.6 9-5.95l1.1-.9v-3.15l-1.1 1q-3.4 2.8-8.25 4.95l-1.8.75-2.65 1-8.55 2.35-.45-1.95 4.45-.95 2.35-.45Q69.6 38.8 59.6 33.6l-1.9-1-.65-.3q-1.8-.85-3.6-1.6l-.4.5" fill="#344077"/><path d="M60.4 50.3q2.7-10.15-7.9-18.55l.55-.55.4-.5q1.8.75 3.6 1.6l.65.3 1.9 1 15.6 14-4.45.95L60.4 50.3" fill="#dfbecc"/><path d="M9.45 47.9q21.15 6.65 50.95 2.4l10.35-1.75.45 1.95-1.7.35-1 .15-5.25.85-8.7.95q-10.25.8-22.7.6-11.95-.85-19.45-2.9l-5.15-1.75-1.1-.5q-.25 3 .75 5.25l.9 1.5q8.9 5.85 22.55 5.95l11.4-.8 9.55-.3 6.6-.8.55-.1q5.35-.9 10.4-2.4l1.9-.6-.65 1.85q-15.9 4.45-39.2 4-14.85.5-25.05-6.75L5.2 53.1q-.6-2.5-.4-5.6l.1-1.2 2.65.95 1.9.65" fill="#200e13"/><path d="m69.5 50.85 1.7-.35q.35 2.7-.45 5.45l-1.9.6q1.6-2.85.65-5.7" fill="#231013"/><path d="M69.5 50.85q.95 2.85-.65 5.7-5.05 1.5-10.4 2.4v-.1l8.95-2.7L68.5 51l1-.15" fill="#a0f5ff"/><path d="M71.1 38.65q-4.25-3.35-9.1-5.8l-3.1-1.5-.35.4q-8.25-3.1-17-3.85-10.2-1.2-20.15.9-2.75.7-5.3 1.7l-.05-.05-.05-.05-1 .6-.9.45Q6.6 35.95 4.6 43l-3.2-5.75q.05-2.95.9-5.9 5.4-4.45 11.55-2.55l1.2.45-.5-.65q9.1-2.85 18.6-3.6 10.3 0 20.3 2.35l7.45 1.85.15-.15.8.45q6.65 3.6 9.25 9.15" fill="#b8d8f0"/><path d="m75.2 47.6-15.6-14q10 5.2 17.95 13.55l-2.35.45" fill="#fcf2ff"/><path d="M63.25 51.85 68.5 51l-1.1 5.15-8.95 2.7q3.3-2.75 4.8-7" fill="#804b38"/><path d="M80.55 46.2q.1-7.2-3.6-12.25 10.25-6.05 17.5-.5l.2 5.35q-6.55 4.5-14.1 7.4" fill="#6bb4bb"/><path d="M92.45 41.45v3.05q-4.3 3.35-9 5.95l.75-4.05q4.85-2.15 8.25-4.95M79.8 52.35l-.05-4.2 2.65-1 .1 3.8-2.7 1.4" fill="#a382d5"/><path d="M18.05 32.3q2.6 2.15 6.15 3.65l3.7-2.6q2.6 4.25 3.7 8.25l-15.25.8v-2.5l-6.9 8-1.9-.65q-.2-9.3 10.5-14.95m74.4 12.2v-3.05l1.1-1v3.15l-1.1.9m-8.25 1.9-.75 4.05-.95.5-.1-3.8 1.8-.75" fill="#dadcff"/><path d="M70.75 55.95q.8-2.75.45-5.45l8.55-2.35.05 4.2q-4.35 2.05-9.05 3.6" fill="#e9e7ff"/><path d="m54.55 52.8 8.7-.95q-1.5 4.25-4.8 7l-.55.2-6.6.8q3-3.15 3.25-7.05" fill="#482030"/><path d="m53.05 31.2-.55.55q10.6 8.4 7.9 18.55-29.8 4.25-50.95-2.4l6.9-8v2.5l15.25-.8q-1.1-4-3.7-8.25l-3.7 2.6q-3.55-1.5-6.15-3.65l-1.3-1.15-.15-.1v-.1q7.2-2.5 14.7-2.6 8.75-.15 17.15 1.75l4.6 1.1m-1.3 9.25.5-5.55-1.95-.95q-4.5 4.3-9.1 7.15l4.3 2.9 6.25-3.55" fill="#bd9ad1"/><path d="M51.75 40.45 45.5 44l-4.3-2.9q4.6-2.85 9.1-7.15l1.95.95-.5 5.55" fill="#dbddff"/><path d="M3.65 27.7q1.85-4.15 5.4-8.35l1.5-.8q.55 3.35 1.75 6.15l.1.2h-1l-3 .45Q5.95 26 3.65 27.7" fill="#4e83a8"/><path d="M2.3 31.35q.5-1.8 1.35-3.65 2.3-1.7 4.75-2.35l3-.45h1q.9 2 2.15 3.7l.5.65-1.2-.45Q7.7 26.9 2.3 31.35" fill="#8ec4ef"/><path d="M4.6 43q-.35 1.2-.55 2.55l-1.7-1.45q-1-3.4-.95-6.85L4.6 43" fill="#8cc3ef"/><path d="m2.85 50.95-1.3-1.45-.75-5.9 1.05 1.5 1 5.85" fill="#d9dafe"/><path d="m16.75 31.15 1.3 1.15q-10.7 5.65-10.5 14.95L4.9 46.3q.4-8.8 11.85-15.15M5.2 53.1l-2.35-2.15-1-5.85Q3 46.4 4.8 47.5q-.2 3.1.4 5.6" fill="#a480d4"/><path d="m7.25 48.75 5.15 1.75.4 5.6q-2.35-.9-4.55-1.95-1.2-2.35-1-5.4" fill="#7c3230"/><path d="M7.25 48.75q-.2 3.05 1 5.4L6.9 53.5q-1-2.25-.75-5.25l1.1.5" fill="#a15b3a"/><path d="m6.9 53.5 1.35.65q2.2 1.05 4.55 1.95 8.2 3.2 17.55 4.85Q16.7 60.85 7.8 55l-.9-1.5" fill="#efebef"/><path d="M54.55 52.8q-.25 3.9-3.25 7.05l-9.55.3-11.4.8Q21 59.3 12.8 56.1l-.4-5.6q7.5 2.05 19.45 2.9 12.45.2 22.7-.6" fill="#461b13"/></g><g id="B" fill-rule="evenodd"><path d="M44.55 35.05q-.2-1.7.55-3.7 5.55 1.35 9.65-3.65l-.65 1.6q-2.65 5.65-9.55 5.75m-5.7 14.6q5.3.3 10.3-4.15 1.4 3.15.15 5.25-2.5 1.95-6.1 3.55l-1.4.25q-3.15-1.5-2.95-4.9" fill="#fff"/><path d="M48.7 41.85q-8.7-3.5-4.4-11.45 4.75-.2 8.65-3.9L55.2 24q4.9 8.25 1.4 13.3l-1.75 1.9-.7.55q-1.3.95-2.95 1.7l-1.7.7-.8-.3m-1.15-2.2 2.05 1.1q8.15-4.85 5.5-13.5l-.35.45q-4.1 5-9.65 3.65-.75 2-.55 3.7.3 2.7 3 4.6" fill="#837d67"/><path d="M28.05 35.7q5.6-6.75 13.8-6l2.45.7q-4.3 7.95 4.4 11.45-1.2 1.55-2.95 2.8-2.25-7.4-9.25-8.65-4.8.05-8.05 3.25l-.4-3.55m10.75-2.2q0 .6.4 1 .45.4 1 .4t.95-.4q.4-.4.4-1 0-.55-.4-.95-.4-.4-.95-.4-.55 0-1 .4-.4.4-.4.95" fill="#594d62"/><path d="M38.8 33.5q0-.55.4-.95.45-.4 1-.4t.95.4q.4.4.4.95 0 .6-.4 1t-.95.4q-.55 0-1-.4-.4-.4-.4-1" fill="#87766a"/><path d="m44.3 30.4-2.45-.7q-8.2-.75-13.8 6l-.45-4 .2-.65q1.8-4.6 7.05-7.75 10.75-3.75 18.1 3.2-3.9 3.7-8.65 3.9" fill="#2b2b31"/><path d="m54.75 27.7.35-.45q2.65 8.65-5.5 13.5l-2.05-1.1Q55.05 35 54.1 29.3l.65-1.6" fill="#d7d3ca"/><path d="M47.55 39.65q-2.7-1.9-3-4.6 6.9-.1 9.55-5.75.95 5.7-6.55 10.35" fill="#afb7af"/><path d="m28.05 35.7.4 3.55.4 3.85q5.75 5 11.4 4.55 5.55-.45 10.95-6.2 1.65-.75 2.95-1.7L51.8 42.8l-2.65 2.7q-5 4.45-10.3 4.15l-3.45-.7q-2.3-.8-4.7-2.5l-1.6-1.15-1.25-1.1-.5-4.4q-.95-4.5.25-8.1l.45 4" fill="#1c2335"/><path d="m27.8 31.05-.2.65q-1.2 3.6-.25 8.1l.5 4.4.5 4.75q-2.8-2.15-7.55-1.4l-.9-11.3 7.9-5.2" fill="#17365b"/><path d="M54.6 49.45q-.75 5.4-7.45 11.4l-11.85 2.2-5.9-4.95-4.5 1.4-4.8-4.8-1.05-17.9q.45-.25.85-.55l.9 11.3.15 1.65.35 4.15 4.25 4.5q1.8-.25 2.95-1.95l1.25-2.85 1.1 1.5L30 56.6l-.3.85 6.15 3.15 10.5-2.05 5.25-6.1 3-3" fill="#08152d"/><path d="m54.85 39.2 1.75-1.9v7.85q-.45 2.25-2 4.3l-3 3-1.45 1.05-10.35 3q-7.05-.35-9.85-5.2l-.85-6 1.6 1.15-.05 2.65q2.2 3.9 5.9 5.05l5.25.4 1.4-.25q3.6-1.6 6.1-3.55 2.5-1.95 3.9-4.25 1.95-3.3 1.65-7.3" fill="#2e5592"/><path d="M30.7 46.45q2.4 1.7 4.7 2.5-.3 2.95 1.15 5.2-3.7-1.15-5.9-5.05l.05-2.65" fill="#5fdbe7"/><path d="m35.4 48.95 3.45.7q-.2 3.4 2.95 4.9l-5.25-.4q-1.45-2.25-1.15-5.2" fill="#a4f1f8"/><path d="M28.45 39.25q3.25-3.2 8.05-3.25 7 1.25 9.25 8.65-2.25 1.75-5.5 3-5.65.45-11.4-4.55l-.4-3.85" fill="#907a6b"/><path d="M20.8 47.55q4.75-.75 7.55 1.4l.1.95q.5 1.75 1.3 3.15L28.5 55.9q-.6-8.95-7.55-6.7l-.15-1.65" fill="#315989"/><path d="m28.35 48.95-.5-4.75 1.25 1.1.85 6q2.8 4.85 9.85 5.2l10.35-3-1.1.7q-2.9 1.75-6.85 3.3l-2 .75q-6.25-.2-9.35-3.7l-1.1-1.5q-.8-1.4-1.3-3.15l-.1-.95" fill="#19395e"/><path d="M20.95 49.2q6.95-2.25 7.55 6.7-1.15 1.7-2.95 1.95l-4.25-4.5-.35-4.15" fill="#678eb9"/><path d="M30.85 54.55q3.1 3.5 9.35 3.7l2-.75.75.45Q36.9 61.5 30 56.6l.85-2.05" fill="#32598a"/><path d="m50.15 53.5 1.45-1.05-5.25 6.1-10.5 2.05-6.15-3.15.3-.85q6.9 4.9 12.95 1.35l.8.45 3.15-1.65 2.15-2.55 1.1-.7" fill="#608cbb"/><path d="m54.15 39.75.7-.55q.3 4-1.65 7.3l-1.4-3.7 2.35-3.05" fill="#a7eff7"/><path d="M45.75 44.65q1.75-1.25 2.95-2.8l.8.3 1.7-.7q-5.4 5.75-10.95 6.2 3.25-1.25 5.5-3" fill="#f9feff"/><path d="m49.15 45.5 2.65-2.7 1.4 3.7q-1.4 2.3-3.9 4.25 1.25-2.1-.15-5.25" fill="#61d9e6"/><path d="M42.2 57.5q3.95-1.55 6.85-3.3l-2.15 2.55-3.15 1.65-.8-.45-.75-.45" fill="#112952"/><path d="m15.6 0 3.85.05h.4Q34.3 4.8 43.35 15.9l7.65.8-1.4 4 4.65 2.45-3.4 6.55-6.7-2.6-1.35 2.3-5.5-.65-1.35 6-4.5.7-2.85 5.7-8.9.7-4.8-5.45.55-1.15L1.25 23l15.7 8.6-4.9-5.3 4.2-3.9 3.05-2.8 9.3-.85 2.5-3.6.5-.75 4.9 2.3 2.1-1.5.75-.5 2.05 1.5q-7.6-10-20.45-14.55L15.6 0m21.15 18.25-4.9-1.55-1.8 2.3-.8 1-9.3 1.65-4.6 4.75 3.55 4.8-1.95 5.2 3.55 3.55 6.85-.55 2.3-5.05L34.7 33l1.5-5.65.15-.65 5.05.7 2-2 .45-.5.55.2 6.05 2.45 1.75-3.45-1.95-1.5-2-1.5v-3.3h-7.1l-1.65-1.35-2.75 1.8" fill="#2d5693"/><path d="M1.25 23Q-4.45.9 15.6 0l5.35 1.65Q31.15 6.5 38.6 15.2l-2.1 1.5Q31.4 8 19.85 13.6q-8.45 5.6-7.8 12.7l4.9 5.3L1.25 23" fill="#4b97b9"/><path d="m48.85 24.35-3.2-3.95.7-1.1H40.6l-1.25-1.5-2.6.45 2.75-1.8 1.65 1.35h7.1v3.3l2 1.5-.8 1.9-.6-.15" fill="#a7eff7"/><path d="m36.75 18.25 2.6-.45 1.25 1.5h5.75l-.7 1.1 3.2 3.95-3.2-.8-1.25 1.55-.55-.2-.45.5-8.15-.75-2.15 1.65h-3v-4.4l-.05-2.9 1.8-2.3 4.9 1.55m-10.4 14.5-.1-5.9 5.9 2.05-3.55 1.75-1.1 2.65-.85.25-.3-.8" fill="#fff"/><path d="m30.05 19 .05 2.9h-4.4l-2.6 2.45 3.25 8.4.3.8.85-.25 4.9-1.25.95-4.5 2.85-.2L34.7 33l-5.05 1.35-2.3 5.05-6.85.55-3.55-3.55 1.95-5.2-3.55-4.8 4.6-4.75 9.3-1.65.8-1m14.35 6.1 1.25-1.55 3.2.8.6.15.8-1.9 1.95 1.5-1.75 3.45-6.05-2.45" fill="#60dae6"/><path d="M30.1 21.9v4.4h3l2.15-1.65 8.15.75-2 2-5.05-.7-.15.65-2.85.2-.95 4.5-4.9 1.25 1.1-2.65 3.55-1.75-5.9-2.05.1 5.9-3.25-8.4 2.6-2.45h4.4" fill="#a5f0f8"/><path d="M20.95 1.65Q33.8 6.2 41.4 16.2l-2.05-1.5-.75.5Q31.15 6.5 20.95 1.65" fill="#bcd5ff"/><path d="m36.5 16.7-4.9-2.3-.5.75q-10.7-2.3-14.85 7.25l-4.2 3.9q-.65-7.1 7.8-12.7Q31.4 8 36.5 16.7" fill="#87cdf3"/><path d="m31.1 15.15-2.5 3.6-9.3.85-3.05 2.8q4.15-9.55 14.85-7.25" fill="#b1def3"/></g><g id="C" fill-rule="evenodd"><path d="M52.2 5.7q-.3-1.3-1.75-2.3-.45-1-2.9-2Q55.4 0 57.9 7.4q-2.1 7.75-11.75 11.35Q56.6 10 52.2 5.7M35.8 17.25l-.95.85-3.05 1.05v-2.3l-2.15-1.5q.05-5.4-3.7-9.05L24.6 4.55Q17 3.05 11 7.25l1-1.2q14.75-11.3 27.75 1.8-3.95 8.7 2.3 12.7-.6 1.7-1.7 3.2-8.8 6.45-4.55-6.5m-6.55 5.9-3.3 3-3.55-1.4h-.95L18.85 26l-4.45-4.55 4.85 2.5 2.2-2.6 3.4 1.8 3.3-.9 1.1.9m-4.75 3.1.55.4-2.75 1.05-.85.05q-4.35.7-2 3.6 3.8 1.6 8.15.1-.25.65-1.05 1.1-2.75.9-5.85.1L18.85 32l-5.75-6-.95-1.05-.8-6.6 4.35 9 2.45-.8 1.1.55 5.25-.85M4.8 5.1l.1-1.05q1.6-1.55 3.85-1.7L7.4 4.55H6.3Q6.45 6.7 9.2 8l-.9 1.65Q5.75 7.8 4.8 5.1m2.1 9.15q-.15 1.25-.05 2.45l-2.1-.4q1.6-.05 2.15-2.05" fill="#dbcbb9"/><path d="M50.45 3.4q1.05 2.5-9.75 5.25-1.45 3.25-1.05 5.8.45 3.15 3.65 5.25l2.85-.95Q55.8 15.15 57.9 7.4q-2.5-7.4-10.35-6 2.45 1 2.9 2m-10.1 20.35q1.1-1.5 1.7-3.2-6.25-4-2.3-12.7-13-13.1-27.75-1.8l-1 1.2q-6.85 8.5 1.15 17.7L13.1 26l5.75 6 1.85.65q3.1.8 5.85-.1 1.5-.5 2.95-1.5l6.15-3.4q2.95-1.7 4.7-3.9m2.25-1.3-1.4 1.85q-2.5 2.95-6.35 4.7l-4.65 2.8-.75.45-1.85 1.1q-2.9 1.75-6.5.7-1.4-.4-2.95-1.2l-.95-.95-4.05-4-1.6-1.55-.6-.6Q7.85 22 7.1 18.25q-7.3-.65-7.1-7.7 3.15-9.8 10.4-9.4L8.2 5.4l1.6 1.7.3-.5q15.8-13.7 31 .95Q54.8 3.7 44.4 2.1q6.7-4.8 13.8 2.05 4.35 10.95-14.75 16.8l-.85 1.5M8.3 9.65 9.2 8Q6.45 6.7 6.3 4.55h1.1l1.35-2.2Q6.5 2.5 4.9 4.05q-2.15 2.05-3.1 6.5-.3 2.85.95 4.35.75.9 2 1.4l2.1.4q-.1-1.2.05-2.45l.05-.1q.25-2.25 1.35-4.5" fill="#8b6c4a"/><path d="M39.65 14.45q3.8.4 7.6-1.15 5.7-4.6 4.95-7.6 4.4 4.3-6.05 13.05l-2.85.95q-3.2-2.1-3.65-5.25M25.95 6.3q3.75 3.65 3.7 9.05l2.15 1.5v2.3l3.05-1.05-5.6 5.05-1.1-.9.25-.1 1.65-4.65-2.6-1.2q1.4-5.7-1.5-10M22.4 24.75l2.1 1.5-5.25.85 2.2-2.35h.95M4.8 5.1q.95 2.7 3.5 4.55-1.1 2.25-1.35 4.5l-.05.1q-.55 2-2.15 2.05-1.25-.5-2-1.4Q8.1 12.65 6.3 8.8 4.8 7.35 4.8 5.1" fill="#b9a590"/><path d="M50.45 3.4q1.45 1 1.75 2.3.75 3-4.95 7.6-3.8 1.55-7.6 1.15-.4-2.55 1.05-5.8Q51.5 5.9 50.45 3.4M11 7.25q6-4.2 13.6-2.7l1.35 1.75q2.9 4.3 1.5 10l2.6 1.2-1.65 4.65-.25.1-3.3.9-3.4-1.8-2.2 2.6-4.85-2.5-3.05-3.1.8 6.6q-8-9.2-1.15-17.7M46.05 48.7q-4.4 4.05-17.8 6.2-2.2-11.55 6.15-12.1 5.1-1.1 11.65 5.9m-25.2-10.65q.05 5.3 2.1 9.4-6.65-.1-13.25 3.95-.7-6.55.5-13.15 6.5-8 10.65-.2M4.9 4.05 4.8 5.1q0 2.25 1.5 3.7 1.8 3.85-3.55 6.1-1.25-1.5-.95-4.35.95-4.45 3.1-6.5m22.7 27.4q-4.35 1.5-8.15-.1-2.35-2.9 2-3.6l.85-.05q3.85-.35 5 2.1.5.95.3 1.65" fill="#fff"/><path d="m41.2 24.3 1.4-1.85q1.15 14.1 7.4 23.1-1.25 9.9-24.3 11.6-6.9-1.2-3.85-7.8-7 .25-13.25 4.5-2.35-13.5 2.95-27.5l1.6 1.55q-1.2 3-2 6.05l-.95 4.3Q9 44.85 9.7 51.4q6.6-4.05 13.25-3.95-2.05-4.1-2.1-9.4l.05-1q.85 5.3 2.45 9.15l1.1 2.35q-3.45 7.35 3.3 6.4l.5-.05q13.4-2.15 17.8-6.2l1.4-1.7.35-.8q-5.65-8.15-6.6-21.9m-11.75 7.95.75-.45 1.6 5.25q1.25.55 1.9-3.25h.15q-.5 9.7-3.8 1.3l.15-.05-.45-.95-.3-1.85m5.4-3.25 3.4 4.65q-3.4-.65-3.4-4.65" fill="#344077"/><path d="M41.2 24.3q.95 13.75 6.6 21.9l-.35.8q-6.9-6.5-11.25-13.5l-2.35.3v-1.25l-.15 1.25q-.65 3.8-1.9 3.25l-1.6-5.25 4.65-2.8q3.85-1.75 6.35-4.7M23.35 46.2q-1.6-3.85-2.45-9.15l.2-3q3.6 1.05 6.5-.7l1.85-1.1.3 1.85-.4-.85.7 1.85q-3.05 2.1-3.3 7-.1 4.75-3.4 4.1m-12.2-12.25q.8-3.05 2-6.05l4.05 4q-3.45-1.2-6.05 2.05M34.85 29q0 4 3.4 4.65L34.85 29" fill="#778ac1"/><path d="M35.8 17.25q-4.25 12.95 4.55 6.5-1.75 2.2-4.7 3.9l-6.15 3.4q-1.45 1-2.95 1.5.8-.45 1.05-1.1.2-.7-.3-1.65 1.45-.9 0-3.25h4.1l4.4-9.3" fill="#bba793"/><path d="m34.85 18.1.95-.85-4.4 9.3h-4.1l-1.6.55-.65-.45-.55-.4-2.1-1.5 3.55 1.4 3.3-3 5.6-5.05m-4 7.65 2.6-5.1-5.6 4.65 3 .45" fill="#521414"/><path d="m47.45 47-1.4 1.7q-6.55-7-11.65-5.9-8.35.55-6.15 12.1l-.5.05q-6.75.95-3.3-6.4l-1.1-2.35q3.3.65 3.4-4.1.25-4.9 3.3-7 3.3 8.4 3.8-1.3l2.35-.3q4.35 7 11.25 13.5M20.9 37.05l-.05 1q-4.15-7.8-10.65.2l.95-4.3q2.6-3.25 6.05-2.05l.95.95q1.55.8 2.95 1.2l-.2 3" fill="#b8d8f0"/><path d="m25.05 26.65.65.45 1.6-.55q1.45 2.35 0 3.25-1.15-2.45-5-2.1l2.75-1.05" fill="#cfbdaa"/><path d="m30.85 25.75-3-.45 5.6-4.65-2.6 5.1" fill="#a73030"/><path d="M14.4 21.45 18.85 26l2.6-1.25-2.2 2.35-1.1-.55-2.45.8-4.35-9 3.05 3.1m1.85 4.8 1.1-.65-3.15-3 2.05 3.65" fill="#4c0d0d"/><path d="M16.25 26.25 14.2 22.6l3.15 3-1.1.65" fill="#a83030"/></g><g id="D" fill-rule="evenodd"><path d="M37.45 50.1q9.6-5.1 18.7-16.7l-1.25 4.1 2.35 1.9L68.6 28.35v2.35q3.9 2.05 8.2 1.65l.5-.05Q80.85 20 88 9.5l1.05.55q-7.35 11.15-9.4 23.5-7.1 1.75-12-2.2l-9.95 10.5-4.85-2.15-1.05 1.15-2.5 2.5q-5.1 4.9-10.35 8.1-5 3.1-10.1 4.65l-.75-4.05q-1.25-4.55-4.2-9.35l-4.2 2.9q-4-1.65-7-4.1l-1.45-1.3-.15-.15-.65-.65-.05-.05-1.1-1.3q-1.75-2.25-3-4.95-1.45-3.25-2.05-7.2L0 28.1q.25-6.7 7-13.45l2.8-1.75-7.6 12.2 3-1.4.4 2.6.4 1.9q2.95 11.45 13.8 16.15l4.5-3.7q4.8 6.2 5.6 12.45l2.5-.8q2.5-.85 4.95-2.15l.1-.05M35.5 23.55q8.85 1.7 13.95 9.05-6.6-5.95-15.3-7.25l1.35-1.8" fill="#53668e"/><path d="M37.45 50.1q7.6-4.8 7.5-10.55Q43.7 30 33.6 28.9q-6.95 1.2-10.25 6.55.45-2.9 5.2-6.95-2.9.6-5.4 2.05-1.7.9-3.2 2.2 1.7-2.8 6-4.1Q10 22 5.6 26.3l-.4-2.6-3 1.4 7.6-12.2Q49.55-11.05 88 9.5 80.85 20 77.3 32.3l-.5.05q-3.35-4.2-8.2-4L57.25 39.4l-2.35-1.9 1.25-4.1q-9.1 11.6-18.7 16.7M35.5 23.55l-1.35 1.8q8.7 1.3 15.3 7.25-5.1-7.35-13.95-9.05" fill="#778ac1"/><path d="M68.6 28.35q4.85-.2 8.2 4-4.3.4-8.2-1.65v-2.35" fill="#afcbed"/><path d="M23.15 30.55q2.5-1.45 5.4-2.05-4.75 4.05-5.2 6.95 8.7-4.85 14.35 0 3.55 8.2-5.3 16.85l-2.5.8q-.8-6.25-5.6-12.45l-4.5 3.7Q8.95 39.65 6 28.2q9.9-5.15 12.6 6.45l4.55-4.1" fill="#fff"/><path d="M23.35 35.45q3.3-5.35 10.25-6.55Q43.7 30 44.95 39.55q.1 5.75-7.5 10.55l-.1.05q-2.45 1.3-4.95 2.15 8.85-8.65 5.3-16.85-5.65-4.85-14.35 0M5.6 26.3Q10 22 25.95 28.65q-4.3 1.3-6 4.1 1.5-1.3 3.2-2.2l-4.55 4.1Q15.9 23.05 6 28.2l-.4-1.9" fill="#b8d8f0"/></g><g id="E" fill-rule="evenodd"><path d="m133 17.2.9.2-.8 1.35q-9.15 9.65-25.9 5.05l-10.35 5.35q-11.45 8.8-25.55 13.8-5.6 1.4-11.45 1.95 27.1-6.6 22.1-17.5-3.4-3.55-9.7-3.7-4.95-.15-11.65 1.75l-1.8 1.65q1.85 8.4-10 13.7 7.95-4.25 6.3-12.2l5.65-4.9-1.65-2.85q.5-2.85-1.65-6.8l1.35-.1-2.7-5.3q20.65 11.7 44.7 8.2 13.45-.55 22-6.25l.65.8q-1.35 13.1 9.55 5.8m-44.1 9.1q0-.55-.4-1-.4-.4-.95-.4-.6 0-1 .4-.4.45-.4 1t.4.95q.4.4 1 .4.55 0 .95-.4.4-.4.4-.95" fill="#4c80a7"/><path d="M72.25 23.7q6.3.15 9.7 3.7 5 10.9-22.1 17.5l-8.15.45 16.4-5.1Q49.65 31.7 72.25 23.7m16.65 2.6q0 .55-.4.95-.4.4-.95.4-.6 0-1-.4t-.4-.95q0-.55.4-1 .4-.4 1-.4.55 0 .95.4.4.45.4 1" fill="#b8d8f0"/><path d="m133.1 18.75.8-1.35-.9-.2q-5.95-1.55-9.55-5.8l-.65-.8 1.6-1.2q4.7 4.4 12.1 6.65-8 18.3-28.45 11.05l-9.7 5.5Q74.3 50.7 42 46.4q-20.15-2.65-26.25-18.6 5.9-6.05 4.8-12.65l1.75-.75q1.05 6.5-2.25 10.9l-2.4 2.5q2.25 4.6 5.65 8 8.85 9 25.25 9.5l3.15.05 8.15-.45q5.85-.55 11.45-1.95 14.8-3.7 27.2-13.1l8.2-4.8q18.75 5.3 26.4-6.3m-78 9.85q1.65 7.95-6.3 12.2l-2.3 1.1q-11.45 2.4-18.05-4.55-5.7-5.2-2-11.7l.15-.25.2-.35V25l.55-1.05 2.05-2.05q2.7.15 3.45 1.8l.2.8.05.7q-1.7 2.25-2.05 4.25-.2 1 0 1.95.35 1.75 2.05 3.25 5.7 4.25 11.9.8 1.25-1.2 1.95-2.5.65-1.25.8-2.55.15-2-.9-4.2l-.75-1.3.65-.7 1.55 2.95q1.25 3.5-.4 6.8l-.3.55q-5.3 5.75-12.1 2.85l-.9-.4q-6.55-3.2-3.55-10.45l.8-1.7-2.05-1.65-1.05 1.1-1.2 1.55q-2.9 4.35-.05 8.95 4.85 8.15 17.65 6.45 5.85-2.15 7.95-5.65 1.7-2.9.95-6.65-1.1-4.3-5.15-6.15l1.7-.6q2.9 2.5 4 4.95l.5 1.5" fill="#344077"/><path d="M133 17.2q-10.9 7.3-9.55-5.8 3.6 4.25 9.55 5.8" fill="#a6d4f2"/><path d="M71.3 42.95q14.1-5 25.55-13.8l10.35-5.35q16.75 4.6 25.9-5.05-7.65 11.6-26.4 6.3l-8.2 4.8q-12.4 9.4-27.2 13.1" fill="#b7c7f9"/><path d="m9.85 0-1.9 3.3Q3 3.5.6 1.1L0 .45.25.3q4.6 1.5 9.6-.3m-8.6 13.55 1.2-1q10.9.65 22.15-3.25v2.05q-11.65 6.25-23.35 2.2" fill="#bdddf5"/><path d="m22.3 14.4 2.6-1.25-1.4 3.3 3.2-.05-1.45 2.2-.5.3L26.8 25l-.2.4-.15.25-2.65-1.95-3.25 1.4-.5.2q3.3-4.4 2.25-10.9" fill="#4b62a6"/><path d="m59.1 20.85 1.65 2.85-5.65 4.9-.5-1.5 4.2-3.8-3-4.95q-11.75-4.1-24.75-.65l-.25.05-1.05.25-1.4.45-2.5.85 1.5 4.65L26.8 25l-2.05-6.1.5-.3Q34.2 13.5 46 14.45q5 .4 10.5 1.85l2.6 4.55M47.75 30.4q-.15 1.3-.8 2.55-10.1 4.15-15.9-1.55-.2-.95 0-1.95 7.25 6.75 16.7.95" fill="#813e37"/><path d="M26.7 16.4q6.9-.5 10.9-4.75 6.05 0 8.4 2.8-11.8-.95-20.75 4.15l1.45-2.2" fill="#b5cbef"/><path d="m20.05 25.3.5-.2q5.4 3.75 2.75 10.7-3.4-3.4-5.65-8l2.4-2.5" fill="#c3def1"/><path d="M48.8 40.8q11.85-5.3 10-13.7l1.8-1.65q6.7-1.9 11.65-1.75-22.6 8-4.15 16.55l-16.4 5.1-3.15-.05q-16.4-.5-25.25-9.5 2.65-6.95-2.75-10.7l3.25-1.4 2.65 1.95q-3.7 6.5 2 11.7 6.6 6.95 18.05 4.55l2.3-1.1" fill="#a1cdf1"/><path d="M32.85 23.7q-.75-1.65-3.45-1.8l-2.05 2.05-1.5-4.65 2.5-.85 1.4-.45 1.3-.2q5.85 1.2 1.8 5.9m4.65-1.1q-.3-.3-.3-.75 0-.4.3-.75.35-.3.75-.3.45 0 .75.3.35.35.35.75 0 .45-.35.75-.3.35-.75.35-.4 0-.75-.35" fill="#ffd1cc"/><path d="M38.85 10.15Q40.1 8.4 41 6.2q1.7 2.1 3.65 3.65l-5.8.3" fill="#474ba3"/><path d="M57.45 14.05q2.15 3.95 1.65 6.8l-2.6-4.55Q51 14.85 46 14.45q-2.35-2.8-8.4-2.8l1.25-1.5 5.8-.3q5.4 4.35 12.8 4.2" fill="#86aeee"/><path d="m50.6 22.15 1.5-.25-.65-2.85Q41.05 16 31.05 17.8v-.1q13-3.45 24.75.65l3 4.95-4.2 3.8q-1.1-2.45-4-4.95m-3.75 4.05q1.05 2.2.9 4.2-9.45 5.8-16.7-.95.35-2 2.05-4.25l-.05-.7L35 25.75l-.8 2.3 5.05 2.2 7.6-4.05" fill="#cf837b"/><path d="m28.75 24.25 1.05-1.1 2.05 1.65-.8 1.7-2.3-2.25" fill="#695eb3"/><path d="M31.05 26.5q-3 7.25 3.55 10.45l.9.4q-6.25-.15-6.8-7.75 1.05-2.85-1.15-3.8l1.2-1.55 2.3 2.25" fill="#a480d4"/><path d="M31.05 17.8q10-1.8 20.4 1.25l.65 2.85q-5.4-1.25-7.65 3.7l1.65-.7.75 1.3-7.6 4.05-5.05-2.2.8-2.3-1.95-1.25-.2-.8q4.05-4.7-1.8-5.9m6.45 4.8q.35.35.75.35.45 0 .75-.35.35-.3.35-.75 0-.4-.35-.75-.3-.3-.75-.3-.4 0-.75.3-.3.35-.3.75 0 .45.3.75" fill="#ffb8b0"/><path d="m52.1 21.9-1.5.25-1.7.6q-1.25.55-2.15 1.45l-.65.7-1.65.7q2.25-4.95 7.65-3.7" fill="#823c31"/><path d="M46.75 24.2q.9-.9 2.15-1.45 4.05 1.85 5.15 6.15.75 3.75-.95 6.65l-.15-4.9q-2.35-6.4-4.65-3.5l-1.55-2.95" fill="#6a5fb2"/><path d="M47.9 33.95q1.65-3.3.4-6.8 2.3-2.9 4.65 3.5l.15 4.9q-2.1 3.5-7.95 5.65 5.8-3.9 2.75-7.25" fill="#bc99d1"/><path d="M35.5 37.35q6.8 2.9 12.1-2.85l.3-.55q3.05 3.35-2.75 7.25-12.8 1.7-17.65-6.45-2.85-4.6.05-8.95 2.2.95 1.15 3.8.55 7.6 6.8 7.75" fill="#f3eeff"/><path d="M46.95 32.95q-.7 1.3-1.95 2.5-6.2 3.45-11.9-.8-1.7-1.5-2.05-3.25 5.8 5.7 15.9 1.55" fill="#a3cff1"/></g><g id="F" fill-rule="evenodd"><path d="M4 3.75Q9.65-.95 17.85.25q1.65.55 3.05 1.4 4.05 6.05 5.75 11.9 1.9 9.95-6.75 13.4-5.2 1.6-10.05-.6l2.95.2q9.45.15 11.6-5.3 1.25-8.35-3.2-9.7-3.4-1-5.1 3.15-2.15-2.35-4.95-2.5-6.25-2.45-8.8 4.2-1-5.45 1.65-12.65" fill="#7183c0"/><path d="M4 3.75q-2.65 7.2-1.65 12.65l.25 1.1q1.15 4.3 4.75 7.45l2.5 1.4q4.85 2.2 10.05.6 8.65-3.45 6.75-13.4-1.7-5.85-5.75-11.9 8.1 4.8 7.6 18.2-1 2.35-2.2 4.2l-.5.7-1.3 1.45q-2.5 2.5-5.7 3.1-2.85.5-6.25-.5l-1.7-.55-1.1-.45-.65-.25q-12-5.4-6.4-22.6L4 3.75" fill="#506c95"/><path d="M2.35 16.4q2.55-6.65 8.8-4.2 5.5 3.7 7.75 10.3l.15-1.1q3.65 3.85 4.05-.95.25-6.1-4.75-7.55 1.05-1.3 2.85-1.35 4.45 1.35 3.2 9.7-2.15 5.45-11.6 5.3 3.75-5.7-1.75-10.9-4.85-2.7-8.45 1.85l-.25-1.1" fill="#b3d7f0"/><path d="M11.15 12.2q2.8.15 4.95 2.5 1.7-4.15 5.1-3.15-1.8.05-2.85 1.35-.85 1.05-1.15 2.85 2 2.75 1.85 5.65l-.15 1.1q-2.25-6.6-7.75-10.3" fill="#526992"/><path d="m12.8 26.55-2.95-.2-2.5-1.4Q3.75 21.8 2.6 17.5q3.6-4.55 8.45-1.85 5.5 5.2 1.75 10.9m6.25-5.15q.15-2.9-1.85-5.65.3-1.8 1.15-2.85 5 1.45 4.75 7.55-.4 4.8-4.05.95m-7.6 19.8q-.2 1.2.1 2.45l.1.3.15-.55q3.5-3.05 5.5-.1 3.7 7.6-4.45 15.2-7.4-.95-10.95-7.6-.6-3.65.4-6.9 3.35-5.8 9.15-2.8" fill="#fff"/><path d="m24.5 26.2 1.3-1.45q4.05 3.95 1.35 8.35.5-4.85-2.65-6.9" fill="#b7c3ff"/><path d="M26.3 24.05q5.7 4.1 2.3 10.65l-2.15 1.85-.8.55q-1.6 1-3.3 1.6l-1.2.3-7.2-.25-1.35-.4-2.05-.85q-1.3-.95-2.05-2l-.5-.9q-1.45-3.1 1.1-7.05l.65.25q-1.1 2.6-.6 4.7.25 1 .8 1.9.8 1.2 2.25 2.25 2.85 1.15 5.5 1.15l1.85-.15q3.45-.6 6.65-3.25l.95-1.3q2.7-4.4-1.35-8.35l.5-.7" fill="#44171c"/><path d="M26.45 36.55q4.15 7.3 3.2 16.15-3.25 8.8-17.05 7.7Q1.5 58.15.15 50.7-1.2 40.95 8 34.6l.5.9q-2.65 2.05-4.25 4.4Q2.9 41.85 2.3 44q-1 3.25-.4 6.9 3.55 6.65 10.95 7.6l1.85.1 6.8-.4q4.95-1.3 6.6-5.8 1.1-6.95-2.45-15.3l.8-.55" fill="#497eab"/><path d="M22.35 38.7q1.7-.6 3.3-1.6 3.55 8.35 2.45 15.3-1.65 4.5-6.6 5.8 4-5.4 2.3-12.85-1.45 2.35-2.75 2.15 2.95-2.3 1.3-8.8" fill="#6c9ad0"/><path d="m27.15 33.1-.95 1.3q-3.2 2.65-6.65 3.25 3.55-5-.75-8.35 3.2-.6 5.7-3.1 3.15 2.05 2.65 6.9" fill="#6d1d21"/><path d="M9.15 32.5q-.5-2.1.6-4.7l1.1.45 1.7.55q-2.3.9-3.4 3.7" fill="#691314"/><path d="m19.55 37.65-1.85.15q1.95-6.1-2.85-7.6-3.75-.7-4.9 4.2-.55-.9-.8-1.9 1.1-2.8 3.4-3.7 3.4 1 6.25.5 4.3 3.35.75 8.35m.3-6.2-.55.2-.2.55.2.55.55.2.5-.2.25-.55-.25-.55-.5-.2" fill="#b64342"/><path d="M17.7 37.8q-2.65 0-5.5-1.15-1.45-1.05-2.25-2.25 1.15-4.9 4.9-4.2 4.8 1.5 2.85 7.6m2.15-6.35.5.2.25.55-.25.55-.5.2-.55-.2-.2-.55.2-.55.55-.2" fill="#f9b499"/><path d="M11.45 41.2q-5.8-3-9.15 2.8.6-2.15 1.95-4.1 4.2-2.35 7.7-.3l-.5 1.6" fill="#b1d2ef"/><path d="M8.5 35.5q.75 1.05 2.05 2l2.05.85q-.4.6-.65 1.25-3.5-2.05-7.7.3 1.6-2.35 4.25-4.4" fill="#6c75ba"/><path d="m12.6 38.35 1.35.4q-2.1 2.6-2.3 4.8l-.1.1q-.3-1.25-.1-2.45l.5-1.6q.25-.65.65-1.25" fill="#516b94"/><path d="m13.95 38.75 7.2.25q.45 2.85.4 5.15-1.45-4.7-6.7-4.4-1.85.35-3.05 3.65l-.15.15q.2-2.2 2.3-4.8" fill="#6e91ca"/><path d="M12.85 58.5Q21 50.9 17.3 43.3q-2-2.95-5.5.1 1.2-3.3 3.05-3.65 5.25-.3 6.7 4.4l-.5 3.35q1.3.2 2.75-2.15 1.7 7.45-2.3 12.85l-6.8.4-1.85-.1" fill="#b2dbf2"/><path d="m21.15 39 1.2-.3q1.65 6.5-1.3 8.8l.5-3.35q.05-2.3-.4-5.15" fill="#4c76a1"/></g><g id="o"><use ffdec:characterId="35" height="62.35" transform="translate(0 13.6)" width="137.3" xlink:href="#r"/><use ffdec:characterId="36" height="44.65" transform="translate(1.65)" width="129.35" xlink:href="#s"/></g><g id="G" fill-rule="evenodd"><path d="M68.35 1.75q8.7.15 17.5 4.7Q84 9.1 83.65 11.8 78.4 3.65 68.35 1.75" fill="#778ac1"/><path d="m53.25 4.6-2.2 1Q29.6 30.05 46.9 51q4.6 5.35 12.6 6.45l-2.3-6.05q-3.4-4.3-5.1-9.3Q57 49.55 65.15 54q12.9 7.05 34 6.65l2.2-.05q22.5-.75 32.85-17.4-11.8-.9-18.45-9.65l.65.2 6.15 4.1 5.9-4.2q-6.45-.85-9.15-5.5l1.3-.95q4.4 4.55 11.4 4.4-2.1 5.35-7.1 7.35 5.7 2.15 12.4 1.8-3.3 8.25-9.75 13.2l-1.6 1.2q-8.55 5.7-22 6.25-24.05 3.5-44.7-8.2l2.7 5.3-1.35.1q-7.4.15-12.8-4.2-1.95-1.55-3.65-3.65-.9 2.2-2.15 3.95l-1.25 1.5q-4 4.25-10.9 4.75l-3.2.05 1.4-3.3-2.6 1.25-1.75.75Q9.2 65.55.4 58.4q5.55-3.05 9.2-8.9Q3.2 49.25 0 45q9.45-6.75 15.9-14.4l.95-1.2 1.9-2.45q4.2-9.6 9.8-15.25l1.25-1.2 2.25-1.9q8.35-6.25 19.4-4.8Q69.55-4.3 88 4.85l-1.55.75-.6.85q-8.8-4.55-17.5-4.7-7.6-.2-15.1 2.85m-23.4 52.65q0 1.2-.6 2.5 11.7-1.7 13.3-10.65-1.45-2.95-2.45-5.85-5.8-16.85 4.3-30.95l.05-.1q2.15-3.05 5.1-5.9l-6.8.3q-5.7 1.05-10.4 4.85-4.4 3.55-8 9.45Q18.1 35.6 3.4 44.85l-.25.15q2.35 3.05 7.95 2.85l1.9-3.3q.3 5.85-7.4 12.55l-1.2 1q11.7 4.05 23.35-2.2v-2.85q2.15 1.85 2.1 4.2" fill="#53668e"/><path d="M119.3 28.15q2.7 4.65 9.15 5.5-5.8 1.95-12.05.1l-.95-.65.3.45q6.65 8.75 18.45 9.65-10.35 16.65-32.85 17.4l-2.2.05Q115.7 45.7 104.8 39.1q-7.95-3.7-11.7-11.85 12.15 7.15 26.2.9" fill="#7079bb"/><path d="M53.25 4.6q7.5-3.05 15.1-2.85 10.05 1.9 15.3 10.05-.9 7.25 8.55 14.85l.9.6q3.75 8.15 11.7 11.85 10.9 6.6-5.65 21.55-21.1.4-34-6.65 23.15-14.4 16.8-35.15Q72.3-2.45 53.25 4.6M86.7 39.5q-.55.65-.55 1.65 0 .95.55 1.65t1.35.7q.75 0 1.3-.7t.55-1.65q0-1-.55-1.65-.55-.7-1.3-.7-.8 0-1.35.7" fill="#c5dfef"/><path d="M65.15 54Q57 49.55 52.1 42.1q1.7 5 5.1 9.3l2.3 6.05q-8-1.1-12.6-6.45-17.3-20.95 4.15-45.4l2.2-1q19.05-7.05 28.7 14.25Q88.3 39.6 65.15 54M86.7 39.5q.55-.7 1.35-.7.75 0 1.3.7.55.65.55 1.65 0 .95-.55 1.65t-1.3.7q-.8 0-1.35-.7t-.55-1.65q0-1 .55-1.65M32.35 11.45q4.1.55 5.15 4.8-4.05 14.55-1.25 29.4.05 7.8-6.4 11.6.05-2.35-2.1-4.2v.8Q16.5 57.75 5.6 57.1q7.7-6.7 7.4-12.55-5 1.8-9.6.3Q18.1 35.6 24.35 20.9q3.6-5.9 8-9.45" fill="#fff"/><path d="m128.45 33.65-5.9 4.2-6.15-4.1q6.25 1.85 12.05-.1" fill="#b1ceed"/><path d="M29.85 57.25q6.45-3.8 6.4-11.6-2.8-14.85 1.25-29.4-1.05-4.25-5.15-4.8 4.7-3.8 10.4-4.85 3.8 1.2 1.7 5.6l-.05.1q-10.1 14.1-4.3 30.95-1.15 12.3-10.85 16.5.6-1.3.6-2.5" fill="#b9d9f0"/><path d="M44.45 12.2q2.1-4.4-1.7-5.6l6.8-.3q-2.95 2.85-5.1 5.9" fill="#798cc1"/><path d="M29.25 59.75q9.7-4.2 10.85-16.5 1 2.9 2.45 5.85-1.6 8.95-13.3 10.65" fill="#8598bf"/></g><g id="s" fill-rule="evenodd"><path d="M94.4 15.35q16.75-8.5 0-12.3Q121.65-7.15 130.9 17q1 15.05-10.3 23.8l-1.3.95q-14.05 6.25-26.2-.9l-.9-.6q-9.45-7.6-8.55-14.85.35-2.7 2.2-5.35l.6-.85 7.95-3.85m25.95-9.55-.1-.1Q111.65 0 98.9 2.9q15.75 5.65-9.05 17.1-.85 2.4-1.1 4.75-.55 4.9 1.65 9.35 5.85 10.85 19.75 8.4l2.95-.65 3.05-.9q19.25-14.8 8.75-31.2-2.1-2.35-4.55-3.95" fill="#241013" transform="translate(-1.65)"/><path d="M88.75 24.75Q89 22.4 89.85 20q24.8-11.45 9.05-17.1 12.75-2.9 21.35 2.8l.1.1q10.05 8.2 5.6 20.2l-1.45 3.35q-.45-14.1-12.2-18.1 1.8 11.6-9.3 13-7.15-4.35-14.25.5" fill="#612930" transform="translate(-1.65)"/><path d="M120.35 5.8q2.45 1.6 4.55 3.95 10.5 16.4-8.75 31.2l-3.05.9q7.65-5.35 11.4-12.5l1.45-3.35q4.45-12-5.6-20.2" fill="#95f5ff" transform="translate(-1.65)"/><path d="M110.15 42.5q-13.9 2.45-19.75-8.4-2.2-4.45-1.65-9.35 7.1-4.85 14.25-.5 11.1-1.4 9.3-13 13.55 12.2-2.15 31.25" fill="#754538" transform="translate(-1.65)"/><path d="m113.1 41.85-2.95.65q15.7-19.05 2.15-31.25 11.75 4 12.2 18.1-3.75 7.15-11.4 12.5" fill="#2a1213" transform="translate(-1.65)"/><path d="M20.1 10.85q.85-1.65 2.05-3.45-5.3 1.1-9.2 3.8-4.4 3-6.9 8.05-1.35 2.7-2.2 5.95-.1 6.15 4.9 11.5 3.1 3.3 8.1 6.3l-.95 1.2Q1.25 38 1.65 25.2 5.85 6.15 25.7 5.9q-12.4 15.4 6.35 16.3l-2.25 1.9q-15.7-1.6-9.7-13.25" fill="#231013" transform="translate(-1.65)"/><path d="M12.95 11.2q3.9-2.7 9.2-3.8-1.2 1.8-2.05 3.45-8.8 13.5 8.45 14.45-5.6 5.65-9.8 15.25L16.85 43q-5-3-8.1-6.3 6.15 2.15 8.4.5 2.8-2.05-.3-9.8-6.45-7.45-3.9-16.2" fill="#241117" transform="translate(-1.65)"/><path d="M6.05 19.25q2.5-5.05 6.9-8.05-2.55 8.75 3.9 16.2 3.1 7.75.3 9.8Q5.2 33.15 6.05 19.25m6.5 8.8q-.65.7-.65 1.6 0 .95.65 1.6.7.65 1.6.65.95 0 1.6-.65.65-.65.65-1.6 0-.9-.65-1.6-.65-.65-1.6-.65-.9 0-1.6.65" fill="#492131" transform="translate(-1.65)"/><path d="M12.55 28.05q.7-.65 1.6-.65.95 0 1.6.65.65.7.65 1.6 0 .95-.65 1.6-.65.65-1.6.65-.9 0-1.6-.65-.65-.65-.65-1.6 0-.9.65-1.6" fill="#241016" transform="translate(-1.65)"/><path d="M8.75 36.7q-5-5.35-4.9-11.5.85-3.25 2.2-5.95-.85 13.9 11.1 17.95-2.25 1.65-8.4-.5" fill="#6e433a" transform="translate(-1.65)"/><path d="M20.1 10.85q-6 11.65 9.7 13.25l-1.25 1.2q-17.25-.95-8.45-14.45" fill="#9ff6ff" transform="translate(-1.65)"/></g><use ffdec:characterId="2" height="16.7" width="23.4" xlink:href="#t" id="c"/><use ffdec:characterId="4" height="146.1" width="102.95" xlink:href="#u" id="d"/><use ffdec:characterId="11" height="60.95" width="57.25" xlink:href="#v" id="e"/><use ffdec:characterId="14" height="43.6" width="48.5" xlink:href="#w" id="q"/><use ffdec:characterId="18" height="74.9" width="42.9" xlink:href="#x" id="g"/><use ffdec:characterId="17" height="74.9" width="42.9" xlink:href="#y" id="x"/><use ffdec:characterId="20" height="64.95" width="69.25" xlink:href="#z" id="h"/><use ffdec:characterId="22" height="61.85" width="94.65" xlink:href="#A" id="i"/><use ffdec:characterId="24" height="63.05" width="58.05" xlink:href="#B" id="j"/><use ffdec:characterId="26" height="57.15" width="59" xlink:href="#C" id="k"/><use ffdec:characterId="28" height="56.1" width="89.05" xlink:href="#D" id="l"/><use ffdec:characterId="30" height="47.25" width="136.5" xlink:href="#E" id="m"/><use ffdec:characterId="32" height="60.5" width="29.85" xlink:href="#F" id="n"/><use ffdec:characterId="34" height="62.35" width="137.3" xlink:href="#G" id="r"/><path d="M19.6-3.65q8.15 1.3 8.15 3.15 0 1.8-8.15 3.05L0 3.85l-19.65-1.3q-8.1-1.25-8.1-3.05 0-1.85 8.1-3.15L0-4.9l19.6 1.25" fill-opacity=".349" fill-rule="evenodd" transform="translate(27.75 4.9)" id="b"/></defs></svg>