<svg xmlns:ffdec="https://www.free-decompiler.com/flash" xmlns:xlink="http://www.w3.org/1999/xlink" ffdec:objectType="frame" height="90" width="90" xmlns="http://www.w3.org/2000/svg"><use ffdec:characterId="24" height="186.15" transform="translate(6.23 6.755) scale(.5004)" width="183.55" xlink:href="#a"/><defs><use ffdec:characterId="2" height="159.8" transform="translate(45.95)" width="173.7" xlink:href="#b" id="j"/><use ffdec:characterId="9" height="68.6" width="94.85" xlink:href="#c" id="k"/><use ffdec:characterId="11" height="151.7" width="199.6" xlink:href="#d" id="l"/><use ffdec:characterId="13" height="58.55" width="56" xlink:href="#e" id="m"/><use ffdec:characterId="15" height="232.15" width="247.05" xlink:href="#f" id="n"/><use ffdec:characterId="22" height="72.4" width="34.75" xlink:href="#g" id="o"/><use ffdec:characterId="21" height="72.4" width="34.75" xlink:href="#h" id="g"/><g id="a" transform="translate(-12.45 -13.5)"><use ffdec:characterId="1" height="9.8" transform="matrix(1.4644 0 0 2.759 35.512 146.98)" width="55.5" xlink:href="#i"/><use ffdec:characterId="8" height="288.1" transform="matrix(-.4405 -.0447 -.0447 .4405 191.041 72.756)" width="219.65" xlink:href="#j"/><use ffdec:characterId="10" height="68.6" transform="translate(20.35 95.1) scale(.4429)" width="94.85" xlink:href="#k"/><use ffdec:characterId="12" height="151.7" transform="translate(30.65 94.6) scale(.4429)" width="199.6" xlink:href="#l"/><use ffdec:characterId="14" height="58.55" transform="translate(89.25 101.15) scale(.4429)" width="56" xlink:href="#m"/><use ffdec:characterId="20" height="232.15" transform="translate(25.95 13.5) scale(.4429)" width="247.05" xlink:href="#n"/><use ffdec:characterId="23" height="87.4" transform="translate(12.45 62.6) scale(.4429)" width="34.75" xlink:href="#o"/></g><g id="b" fill-rule="evenodd"><path d="m132.2 35.55-1.25 10.3q-1.85 13.75-4.4 21.85l.05.1q.35.6.15 1.3-.2.7-.8 1.1l-16.65 9.65q-8.55 3.2-15 3.65l-4.9-.35-.6.45q-7.05 3.2-16.55 2.85l-5.7-.5-.6-.1q-.4-.15-.65-.5l-29.25-25.9-.55-.6-.25-.8.05-.35q0-.35.25-.7l.7-.6q.25-.15.6-.2l26.35-5.6 1.5-9.8.8-4.5q2.05-11.5 4.95-24.2l2.6-10.7v-.1l.05-.15q.25-.6.75-.9.5-.3 1-.25l.35.05q.5.15.9.55l9.65 11.5q12.95 16.1 24 33.65l.05.1.3.5.05.35 1.15-.85q9.55-7 19.1-11.55l.7-.15.3.1.7.6.1.7m-6.15 24.3q1.3-6.05 2.4-14l.2-1.45.8-6.85q-6.9 3.5-13.8 8.3-3.85 2.6-7.6 5.65l-.1.2-.6 1.1-.6.7-3 17.95-.8 3.75-1.1 4.3q3.3-1.15 5.7-2.7l13.35-7.75 3.2-1.85 1.95-7.35M96.4 80.9h.1l4.4-1.1.05-2.45.35-6.3L104.35 53l-.2-.45q-.25-.7.1-1.35l2.15-4.2-.7-1.15-2.8-4.25-1.5-2.35Q91.95 25.2 81.25 12.1l-5.6-6.65-.95 3.9-.55 2.45-.1.3q-3.1 13.4-5.25 25.45l-.3 1.75-.4 2.45-1.35 8.7-.25 1.65-.25.9-.15.2.4.2 22.75 26.4.15.55.45 1.15q-.25.7 6.55-.6m-8.85-.7-.55-.65-13.75-16-1.45-1.65-6.45-7.5-.2-.55v-.1l-.2.05-9.3 2h-.15l-1.85.4-10.25 2.2-2.65.55 26.6 23.6 4.9.4q8.65.35 15.1-2.55l.3-.1-.1-.1m2.1 1.1.1.25.05-.05-.15-.2M1.15 20l.5-.1.7.1 15 4.3.9.45.2.2.05.05Q29 37.8 33.7 40.35l.4.25.5.6.2.95-.9 11.2-.1.45-.2.45-.2.2-.65.4-.35.1H32l-12.2-.05-.85-.2-.55-.45Q7.2 39.6 1.65 26.25L.15 22.3l-.05-.05-.05-.2V22L0 21.8q-.05-.45.2-.9l.05-.1.1-.2.8-.6m30 23.6.05-.6q-3.05-1.95-8-7.25l-7.1-8.15-8.45-2.45-3-.85Q9.9 37.2 20.7 51.4l9.85.05.15-1.95.35-4.35.1-1.55" fill="#0d71be"/><path d="m94.75 79.25 1.65 1.65q-6.8 1.3-6.55.6l-.45-1.15-.15-.55L66.5 53.4l-.4-.2.15-.2.25-.9.25-1.65 28 28.8m-7.2.95-.2.2q-6.45 2.9-15.1 2.55l-4.9-.4-26.6-23.6 2.65-.55q3.65 3.35 10.25 8.45l1.65 1.3 3.4 2.55 6 4.45 4.55 3.25q1.6 1.5 3.2 2.15l2.85.5 7.9-1.15 3.8-.35.55.65M7.65 25.15l2.25 4 2.75 4.65q3.4 5.4 7.4 10.8l.25.3 1.5 2q4.65.15 8.9 2.6l-.15 1.95-9.85-.05Q9.9 37.2 4.65 24.3l3 .85" fill="#e7c5ff"/><path d="m102.9 41.6-1.95-1.85q-10.5-9.9-20.75-23.1l-5.5-7.3.95-3.9 5.6 6.65q10.7 13.1 20.15 27.15l1.5 2.35m-93-12.45-2.25-4 8.45 2.45 7.1 8.15q4.95 5.3 8 7.25l-.05.6q-4.4-3.4-9.2-7.95L18 31.75l-8.1-2.6" fill="#fff"/><path d="m87 79.55-3.8.35-7.9 1.15-2.85-.5q-1.6-.65-3.2-2.15l-4.55-3.25-6-4.45-3.4-2.55 5.9-4.1 12.05-.5 13.75 16m-33.35-12.7q-6.6-5.1-10.25-8.45l10.25-2.2 5.95 6.85-5.95 3.8" fill="#047cea"/><path d="m120.9 69.05-13.35 7.75q-2.4 1.55-5.7 2.7l1.1-4.3.8-3.75 3-17.95.6-.7.6-1.1.15-.05 14.05-6.25.4 4.15-7.55 6.4-.15 6.7 7.4-1.85-1.35 8.25M95.85 46.1l.05.1 2.55 5.15-3.7 27.9-28-28.8 1.35-8.7.4-2.45 13.35 5.75 6.95 10.1.05.05h.05l6.75-9.45.2.35M30.7 49.5q-4.25-2.45-8.9-2.6v-6.15l9.25 4.4-.35 4.35m-10.65-4.9q-4-5.4-7.4-10.8l4.65.9 3.4 4.55-.65 5.35" fill="#047aea"/><path d="M122.55 49.55q.3 5.3-.3 11.25l-7.4 1.85.15-6.7 7.55-6.4M80.25 20.2 80.6 42l-11.8-4.45q2.15-12.05 5.25-25.45l.2-.15 6 8.25m-58.3 15.45q4.8 4.55 9.2 7.95l-.1 1.55-9.25-4.4v6.15l-1.5-2-.25-.3.65-5.35-3.4-4.55 4.65.95m43 18.15.2.05.2.55 6.45 7.5-3.2.25-7.65.6q-.25 0-2.4-2.95l-2.9-4 9.3-2" fill="#2cbff2"/><path d="m88.8 55.15-6.95-10.1L68.5 39.3l.3-1.75L80.6 42l-.35-21.8Q87.75 30.95 94.2 43l-5.4 12.15" fill="#4dd7f0"/><path d="m100.95 39.75-4.5 5.6-.8.4-6.75 9.45-.1-.05L94.2 43q-6.45-12.05-13.95-22.8l-6-8.25-.1-.15.55-2.45 5.5 7.3q10.25 13.2 20.75 23.1" fill="#74f9ff"/><path d="m94.75 79.25 3.7-27.9-2.55-5.15-.05-.1.6-.75 4.5-5.6 1.95 1.85 2.8 4.25.7 1.15-2.15 4.2q-.35.65-.1 1.35l.2.45-3.05 18.05-.35 6.3-.05 2.45-4.4 1.1h-.1l-1.65-1.65M9.9 29.15l8.1 2.6 3.95 3.9-4.65-.95-4.65-.9-2.75-4.65" fill="#0ff2ff"/><path d="m128.65 44.4-.2 1.45q-1.1 7.95-2.4 14l-3.8.95q.6-5.95.3-11.25l6.1-5.15" fill="#71f9ff"/><path d="m126.05 59.85-1.95 7.35-3.2 1.85 1.35-8.25 3.8-.95m-18-8.35q3.75-3.05 7.6-5.65 6.9-4.8 13.8-8.3l-.8 6.85-6.1 5.15-.4-4.15-14.05 6.25-.05-.15" fill="#17f7ff"/><path d="m55.3 68.15-1.65-1.3 5.95-3.8-5.95-6.85 1.85-.4h.15l2.9 4q2.15 2.95 2.4 2.95l7.65-.6 3.2-.25 1.45 1.65-12.05.5-5.9 4.1" fill="#10e4fc"/><path d="m170.25 154.5.65 1.3q.15 1-.45 1.85-.6.8-1.55 1l-.1.05q-46.2 7.4-74.7-33.95l-.3-.45q-15.2-27.85.5-63.35v-.1q.25-.75.9-1.15l.4-.25.15-.05 1.45-.15.3.1 1.05.75.35.55.1.15q21.3 44.55 58.25 33.35l1.3-.05.65.25q.9.5 1.2 1.5l.05.3q.15.8-.25 1.6-.5.9-1.45 1.2l-2.15.65q-30.5 8.45-51-18.2-4.6-5.95-8.7-13.7l-.25.6q-2.8 7.4-4.1 14.45l-.4 2.45-.05.45q-2.85 19.6 6.1 36.25l1.8 2.55q26.3 35.9 68 29.3 1-.2 1.85.45l.4.3" fill="#173862"/><path d="M105.6 81.4q20.5 26.65 51 18.2l1.4 1.95q2.1 3.55 2.1 8.15 0 6.65-6.9 9.4-4.65 1.9-12.25 1.9-13.9 0-24.35-11.55-10.4-11.45-11-28.05" fill="#2f6bdb"/><path d="m96.65 68.3.25-.6q4.1 7.75 8.7 13.7.6 16.6 11 28.05Q127.05 121 140.95 121q7.6 0 12.25-1.9 6.9-2.75 6.9-9.4 0-4.6-2.1-8.15l-1.4-1.95 2.15-.65q.95-.3 1.45-1.2.4-.8.25-1.6 10.85 11.9 12.75 26.5-4 6-7.5 9.05-4.85 4.25-11.55 6l-2.7-.25q-14-.1-28.95-11.8-15-11.75-21-27.4-5.6-14.5-4.85-29.95" fill="#1b4cac"/><path d="M92.55 82.75q1.3-7.05 4.1-14.45-.75 15.45 4.85 29.95 6 15.65 21 27.4 14.95 11.7 28.95 11.8l2.7.25q-4.75 1.25-10.45 1.25-16.6 0-31.35-13.6-15.75-14.55-19.9-37.5l.1-5.1" fill="#122a50"/><path d="m170.25 154.5-.4-.3q-.85-.65-1.85-.45-41.7 6.6-68-29.3-4.55-9.7-6.25-20.5-1.3-8.05-1.3-16.1 4.15 22.95 19.9 37.5 14.75 13.6 31.35 13.6 5.7 0 10.45-1.25 6.7-1.75 11.55-6 3.5-3.05 7.5-9.05l.15 1.4q1.45 14.9-3.1 30.45" fill="#193c80"/><path d="m100 124.45-1.8-2.55q-8.95-16.65-6.1-36.25l.35 2.2q0 8.05 1.3 16.1 1.7 10.8 6.25 20.5" fill="#4f9de6"/></g><g id="c" fill-rule="evenodd"><path d="m25.3 3.25.05.05Q51 33.1 83.45 34h4.15l1.05.25.4.25.15.15.15.2.05.05q3.7 4.55 4.95 10.05v-.05l.5 3.2v.05l-.05 2.15q-1.25 14.75-16 16.85l-.15.05q-13.85 2.4-27.75.65h-.15Q34 66 20 56.95l-.2-.1Q7 48.7 2.5 37.9-.45 30.85.1 22.7q.45-6.75 3.35-14.3l.05-.2.15-.3.05-.05V7.8l.05-.1Q9.05-.5 16.6.05q3.65.25 7.85 2.55l.85.65M4.65 23.5Q4.2 33.45 9.7 41.45q4.35 6.4 12.5 11.6l.25.1q13.1 8.5 28.8 10.25h.25q13.2 1.65 26.35-.65l.4-.05q11.1-1.65 12.05-12.8l.05-1.5L90 46l-.05-.05q-.95-4-3.45-7.45h-3.15q-28.95-.7-52.7-23.1-4.35-4.1-8.5-8.95L21 5.9q-8.2-3.75-13.35 4.15-2.7 7.1-3 13.45" fill="#173862"/><path d="M18.5 19.1q.95-.45 1.7-.45 5.95 0 8.9 5.25 1.65 2.8 2.1 6.65l.2 3.25q0 1.95-1.4 3.7-1.65 1.95-4 1.95-4.8.05-8.15-4.7-1.6-2.25-2.4-4.8-.7-2.3-.7-4.85 0-2.85 2.3-4.95l.3-.25v-.05l.7-.45.35-.25.05-.05h.05m-2 4.45q-.25.7-.25 1.55 0 2.9 1.05 5.5.65 1.7 1.75 3.25v.05h.05q2.8 4 6.9 4.05 1.65 0 2.85-1.4 1.05-1.3 1.05-2.75 0-2.2-.35-4.1l-.25-1.25v-.15q-.55-2-1.5-3.65-2.55-4.5-7.6-4.5l-.7.15-.3.1-.9.65h-.05q-1.3 1.1-1.75 2.5" fill="#0d71be"/><path d="M18.55 24.15q.6-.7 1.45-.7t1.45.7q.6.7.6 1.7t-.6 1.7q-.6.7-1.45.7t-1.45-.7q-.6-.7-.6-1.7t.6-1.7M17.3 30.6q-1.05-2.6-1.05-5.5 0-.85.25-1.55.75 3.5 2.35 6.2l-.4.35q-.6.45-1.15.5" fill="#affffd"/><path d="M18.55 24.15q-.6.7-.6 1.7t.6 1.7q.6.7 1.45.7t1.45-.7q.6-.7.6-1.7t-.6-1.7q-.6-.7-1.45-.7t-1.45.7m-2.05-.6q.45-1.4 1.75-2.5h.05l.9-.65.3-.1q4.3 2.1 6.8 4.55l2.95 3.5.05.1.25 1.25q-.15 1.7-.85 2.9-1.05 1.8-3.1 1.8-3.65 0-6.3-3.95l-.45-.7q-1.6-2.7-2.35-6.2" fill="#27d8fa"/><path d="M29.55 29.7q.35 1.9.35 4.1 0 1.45-1.05 2.75-1.2 1.4-2.85 1.4-4.1-.05-6.9-4.05l-.05-.05q-1.1-1.55-1.75-3.25.55-.05 1.15-.5l.4-.35.45.7q2.65 3.95 6.3 3.95 2.05 0 3.1-1.8.7-1.2.85-2.9" fill="#4ffffc"/><path d="m19.5 20.3.7-.15q5.05 0 7.6 4.5.95 1.65 1.5 3.65l-.05.05-2.95-3.5q-2.5-2.45-6.8-4.55" fill="#e9ccff"/><path d="M21 5.9q1.6 3.6.7 7.45-.8 3.35-3.25 5.7l-.1.05-.3.3-.7.45v.05l-.3.25q-1.3.95-2.9 1.65-4.45 2.05-9.5 1.7.3-6.35 3-13.45Q12.8 2.15 21 5.9M9.15 31.95q0-.85.6-1.45t1.45-.6q.85 0 1.45.6t.6 1.45q0 .85-.6 1.45t-1.45.6q-.85 0-1.45-.6t-.6-1.45" fill="#71b6ef"/><path d="M18.45 19.05q2.45-2.35 3.25-5.7.9-3.85-.7-7.45l1.15.55q4.15 4.85 8.5 8.95L32.7 21q1.55 4.05 2.25 7.45.7 3.4-.35 7.6-1.05 4.15-5.45 6.35-4.4 2.15-9.25 1.7-4.9-.45-8.4-2.15l-1.8-.5q-5.5-8-5.05-17.95 5.05.35 9.5-1.7 1.6-.7 2.9-1.65-2.3 2.1-2.3 4.95 0 2.55.7 4.85.8 2.55 2.4 4.8 3.35 4.75 8.15 4.7 2.35 0 4-1.95 1.4-1.75 1.4-3.7l-.2-3.25q-.45-3.85-2.1-6.65-2.95-5.25-8.9-5.25-.75 0-1.7.45l-.05-.05m-9.3 12.9q0 .85.6 1.45t1.45.6q.85 0 1.45-.6t.6-1.45q0-.85-.6-1.45t-1.45-.6q-.85 0-1.45.6t-.6 1.45" fill="#4591e3"/><path d="m9.7 41.45 1.8.5q3.5 1.7 8.4 2.15 4.85.45 9.25-1.7 4.4-2.2 5.45-6.35 1.05-4.2.35-7.6-.7-3.4-2.25-7.45l-2.05-5.6q23.75 22.4 52.7 23.1h3.15q2.5 3.45 3.45 7.45L90 46l.35 2.4-.05 1.5q-.95 11.15-12.05 12.8l-.4.05q-13.15 2.3-26.35.65h-.25q-15.7-1.75-28.8-10.25l-.25-.1q-8.15-5.2-12.5-11.6" fill="#2b7ac4"/></g><g id="d" fill-rule="evenodd"><path d="M37.4 55.15q8-17.55 20.8-31.65Q71.75 8.55 91.05 2.55q19.9-6.2 39.1 2.8 18.25 8.6 33 22.35 6.2 5.75 11.85 12l-1.8 2.4-.15-.15q-5.7-6.25-11.95-12.05-14.4-13.45-32.25-21.85h.05Q110.75-.45 91.95 5.4q-18.5 5.75-31.55 20.1-12.7 14.05-20.55 31.55l-2.45-1.9" fill="#173862"/><path d="m132.15 142.1-4.8 1.35-.05-.35v-.2l-.05-.1q0-.5.3-.9l.3-.35.1-.05 8.8-6.7-12.7-1.55q-.55-.05-.9-.4l-.1-.15-.3-.55-4.75-10.2-5.35 11.05-.4.4-.3.2-.1.05-.4.05-11.35.8 9.05 8.5.25.35.2.7v.3l-.05.15-.05.15-.5 2.05-2.9.25q-.2-.45-.05-.9l.4-1.45-9.15-8.65-1.75-1.65-.35-.45-.15-.55v-.1l.05-.4q.1-.35.35-.6l.75-.45.25-.05 13.95-.95 6.25-12.95.2-.3.1-.1q.25-.25.6-.35l1.1.05.3.2.15.1.35.6.75 1.7 5 10.65 15.6 1.9.55.2.25.2.2.2.15.25.15.85-.35.8-.4.35-9.2 7m-89-9.9q-7.6-4.95-13.7-10.8l1 .2 10 6.3-2.1-13.25-.05-.25.05-.15.05-.25.05-.15.2-.3q.05-.2.25-.3l.05-.05.1-.05 8.55-6.25-12.45-1.95-.5-.1-.7-.5-.25-.5-4.85-10.25-4.95 10.45-.25.45-.05.05-.1.1-.05.1-.85.25-6.15.2-1.7-2.95 6.75-.2 6-12.65q.2-.5.7-.65l.1-.05q.5-.2 1 0l.15.1.75.75.05.1 5.85 12.45 15.4 2.45h.1q.6.05 1.05.6.35.5.3 1.1-.05.6-.55 1h-.05l-10.9 7.95.45 2.65L43.95 131l-.3.85-.15.15-.35.2M169.5 78.25q.45.05.8.4l.2.2.15.25.15.85-.35.8-.25.25-7.45 5.6 1.6 10.5v.25l-.2.75-.1.1-.6.5-.2.05-.15.05h-.2l-.4-.05-.2-.05-.35-.2-8.15-4.9-8.5 4.35-.1.05-.85.2-.25-.05h-.1l-.85-.7q-.25-.4-.2-.85l.05-.25.05-.1 2.25-8.85-7.3-6.85-.45-.7-.05-.3v-.1l.05-.4q.1-.35.35-.6l.75-.45.25-.05 9.35-.65 4.1-8.7q.25-.5.75-.7l.1-.05.55-.1.6.15.75.75L159 77l10.5 1.25m-77.1 3h.05l5.15-3.95-7.6-.9q-.65-.1-1-.55l-.25-.45-2.9-6.15-3.1 6.6-.05.05-.5.6-.75.25-6.75.5 5.45 5.05.25.35.05.1.1.2.05.4v.15l-.05.45-1.65 6.45 6.25-3.2q.2-.2.5-.25l.8.05.35.15.05.05 6.2 3.7-1.2-8.05-.05-.35q0-.5.25-.9l.05-.05.3-.3m-6.5-17 .6.15.75.75 3.9 8.35 10.5 1.25q.45.05.8.4l.2.2.15.25.15.85-.35.8-.25.25-7.45 5.6 1.6 10.5v.25l-.2.75-.1.1-.8.55-.15.05h-.2l-.4-.05-.55-.25-8.15-4.9-8.5 4.35-.1.05-.85.2-.25-.05h-.1l-.85-.7q-.25-.4-.2-.85l.05-.25.05-.1 2.25-8.85-7.3-6.85-.45-.7-.05-.3v-.1l.05-.4q.1-.35.35-.6.3-.35.75-.45l.25-.05 9.35-.65 4.1-8.7.75-.7.1-.05.55-.1m73.8 22.1-.05-.35q0-.5.25-.9l.05-.05.3-.3h.05l5.15-3.95-7.6-.9q-.65-.1-1-.55l-.25-.45-2.9-6.15-3.1 6.6-.05.05-.5.6-.75.25-6.75.5L148 85.8l.25.35.05.1.1.2.05.4V87l-.05.45-1.65 6.45 6.25-3.2q.2-.2.5-.25l.8.05.35.15.05.05 6.2 3.7-1.2-8.05" fill="#92baee"/><path d="M175 39.7q6.65-8.5 13.3-13.7l.25-.2q-.05-.55.25-1.05.4-.85 1.3-1.15l1.7.1q.8.4 1.15 1.3 14.1 40.7-1.65 72.55-3.7 7.4-9 14.35-10.95 14.3-28.9 26.6l-.05.05-.3.2H153q-5.85 2.75-11.65 4.95-5.85 2.15-11.7 3.75-19 5.15-37.95 4.05l-11.75-1.3q-15.45-2.55-30.85-9.3l-.4-.15Q-1.05 113.7 0 55.8q0-.7.45-1.25l-.2-.35q-.2-.5 0-.95.2-.5.7-.65.5-.2.95 0l10.05 4.35q3.85-6.55 9.25-11.5.4-.35.9-.35l.15.05.6.2q7.25 4.2 14.55 9.8l2.45 1.9 1.7 1.4 3.25 2.75 3.3-1.35.35-.1.1-.05h.05q9.85-3.7 19.9-2.65l4.65.75 5 1.4.4.2 8.3-6.8 5.9-4.35q.25-.2.55-.2h.45l.55.3q8.1 6.1 15.75 12.8 6.9 6.1 13.45 12.7l2.75-3.3q15.9-18.85 31.8-27.35l.6-.15.4.05.6.45L167.1 51q3-4.8 6.1-8.9l1.8-2.4m11 58q16.15-30.35 3.35-69.3l-.4.3q-10.25 8.35-20.5 24.75l-.25.35v.05l-.6.35h-.6l-.55-.35-8-8q-10.6 5.85-21.2 16.4-4.6 4.5-9.15 9.95l-2.85 3.45q6 6.15 11.65 12.8.35.4.3.9l-.45.85-.9.3q-.5-.05-.85-.4l-1.25-1.5q-18.4-21.15-40.3-37.8Q78.9 61.15 61.4 78.95l-.05.05-.05.05-.85.3h-.05q-.5 0-.8-.35l-.05-.05q-10-10.8-20-18.9Q30.9 53 22.25 47.9q-4.95 4.7-8.45 10.8l-.1.4-.4.55q-1.1 1.95-2.05 4.1l-.7.7-.95-.05q-.5-.2-.65-.7-.2-.5 0-.95.8-1.85 1.75-3.6L4.5 56.5q-.4 26.2 10.25 45.75l1.7 2.95q4.4 7.25 10.35 13.55l2.65 2.65q6.1 5.85 13.7 10.8l.2.1 7.5 4.5q8.1 3.5 16.2 5.85 6.45 1.85 12.9 2.95L91.7 147q7.2.4 14.4-.05l2.9-.25q9.15-.85 18.35-3.25l4.8-1.35 9.2-3.2 2.3-.9 7.3-3.25q20.4-14 31.35-30.8l3.6-6.05.1-.2M49.8 61.9l-.35.15q-1.3.45-2.55 1 6.8 6 13.6 13.25 8.3-8.35 15.9-15.05l-4.8-1.2q-11-2.1-21.8 1.85" fill="#0d71be"/><path d="M26.8 118.75q-5.95-6.3-10.35-13.55l6.15-.2.85-.25.05-.1.1-.1.05-.05.25-.45 4.95-10.45 4.85 10.25.25.5.7.5.5.1 12.45 1.95-8.55 6.25-.1.05-.05.05q-.2.1-.25.3l-.2.3-.05.15-.05.25-.4-.1q-2.05-1.4-4.4-1.75l-.5-.1q-2.3-.2-4 1.4-2.05 2-2.25 5.05m-12.05-16.5Q4.1 82.7 4.5 56.5l6.2 2.65q-.95 1.75-1.75 3.6-.2.45 0 .95.15.5.65.7l.95.05.7-.7q.95-2.15 2.05-4.1l.4-.55.1-.4q3.5-6.1 8.45-10.8 8.65 5.1 17.3 12.15 10 8.1 20 18.9l.05.05q.3.35.8.35h.05l.85-.3.05-.05.05-.05q17.5-17.8 32.05-28.15 21.9 16.65 40.3 37.8 0 5.2-1.2 10.1-1.8 6.95-6.05 13.25-2.05 3.05-4.45 5.75-1-2.75-2.5-5.25l-1.35-1.7q-.5-.5-1.15-.9-1.15-.7-2.25-.9l-9.15.35q-1.85.1-3.6.75l-1.4.55q-1.45.65-2.85 1.4-3.25 1.6-6.1 3.8l-.1.05-4.25 3.55-7.15 7.2-.5.5-9.3 10.95q-.4.4-.95.45l-2.35.6-1.55.15q-2.75.25-6.05-2l-2-1.7q-8.65-8.2-15.6-17.7l-.45-2.65 10.9-7.95h.05q.5-.4.55-1 .05-.6-.3-1.1-.45-.55-1.05-.6h-.1l-15.4-2.45-5.85-12.45-.05-.1-.75-.75-.15-.1q-.5-.2-1 0l-.1.05q-.5.15-.7.65l-6 12.65-6.75.2M128.1 72.2q4.55-5.45 9.15-9.95L135.1 80.1l-7-7.9m-42.2-7.95-.55.1-.1.05-.75.7-4.1 8.7-9.35.65-.25.05q-.45.1-.75.45-.25.25-.35.6l-.05.4v.1l.05.3.45.7 7.3 6.85-2.25 8.85-.05.1-.05.25q-.05.45.2.85l.85.7h.1l.25.05.85-.2.1-.05 8.5-4.35L94.1 95l.55.25.4.05h.2l.15-.05.8-.55.1-.1.2-.75v-.25l-1.6-10.5 7.45-5.6.25-.25.35-.8-.15-.85-.15-.25-.2-.2q-.35-.35-.8-.4l-10.5-1.25-3.9-8.35-.75-.75-.6-.15m6.5 17-.3.3-.05.05q-.25.4-.25.9l.05.35 1.2 8.05-6.2-3.7-.05-.05-.35-.15-.8-.05q-.3.05-.5.25l-6.25 3.2 1.65-6.45.05-.45v-.15l-.05-.4-.1-.2-.05-.1-.25-.35-5.45-5.05 6.75-.5.75-.25.5-.6.05-.05 3.1-6.6 2.9 6.15.25.45q.35.45 1 .55l7.6.9-5.15 3.95h-.05m24.05 12.85q-1.25 0-2.15.85-.85.9-.85 2.15 0 .9.45 1.6l.4.5q.9.9 2.15.9t2.1-.9l.45-.5q.45-.7.45-1.6 0-1.25-.9-2.15-.85-.85-2.1-.85M49.8 61.9q10.8-3.95 21.8-1.85-2.2 2.7-5.2 4.6-10.35 6.4-16.6-2.75" fill="#fff"/><path d="m71.6 60.05 4.8 1.2q-7.6 6.7-15.9 15.05-6.8-7.25-13.6-13.25 1.25-.55 2.55-1l.35-.15q6.25 9.15 16.6 2.75 3-1.9 5.2-4.6" fill="#c4d6dc"/><path d="M68.5 57.05Q58.45 56 48.6 59.7h-.05l-.1.05-.2-.45q.6-2.5 2.2-4.5 2.3-2.95 6.1-3.7l2.65-.25q3.4 0 6.1 2.1 2.05 1.6 3.2 4.1" fill="#8dcbf2"/><path d="m126.25 70.55-2.75 3.3q-6.55-6.6-13.45-12.7l10.5 6.05 5.7 3.35M86.85 52.6l-8.3 6.8-.4-.2-5-1.4-4.65-.75q-1.15-2.5-3.2-4.1-2.7-2.1-6.1-2.1l-2.65.25q-3.8.75-6.1 3.7-1.6 2-2.2 4.5l-.15.55-3.3 1.35-3.25-2.75 4.35-3 1.35-.75q4.4-2.45 9.25-3.75 4.3-1.2 9-1.55 11.15-.8 21.35 3.2" fill="#4ca0e6"/><path d="M173.2 42.1q-3.1 4.1-6.1 8.9l-7.45-7.45-.6-.45-.4-.05-.6.15q-15.9 8.5-31.8 27.35l-5.7-3.35-10.5-6.05q-7.65-6.7-15.75-12.8l-.55-.3h-.45q-.3 0-.55.2l-5.9 4.35q-10.2-4-21.35-3.2-4.7.35-9 1.55-4.85 1.3-9.25 3.75l-1.35.75-4.35 3-1.7-1.4Q47.7 39.55 60.4 25.5 73.45 11.15 91.95 5.4q18.8-5.85 36.95 2.65h-.05q17.85 8.4 32.25 21.85 6.25 5.8 11.95 12.05l.15.15" fill="#1f57b1"/><path d="M67.05 142.65q-8.1-2.35-16.2-5.85l-7.5-4.5.15-.3.15-.15.3-.85-2.05-13.15q6.95 9.5 15.6 17.7l2 1.7q3.3 2.25 6.05 2l1.55-.15 2.35-.6q.55-.05.95-.45l9.3-10.95.5-.5 7.15-7.2 4.25-3.55.1-.05q2.85-2.2 6.1-3.8 1.4-.75 2.85-1.4l1.4-.55q1.75-.65 3.6-.75l9.15-.35q1.1.2 2.25.9.65.4 1.15.9l1.35 1.7q1.5 2.5 2.5 5.25l-1.85 2-.75-1.7-.35-.6-.15-.1-.3-.2-1.1-.05q-.35.1-.6.35l-.1.1-.2.3-6.25 12.95-13.95.95-.25.05-.75.45q-.25.25-.35.6l-.05.4v.1l.15.55.35.45 1.75 1.65-5.6 2.6-5.25 1.85q-9.65 2.95-19.4 2.25m-37.6-21.25-2.65-2.65q.2-3.05 2.25-5.05 1.7-1.6 4-1.4l.5.1q2.35.35 4.4 1.75l.35.25.05.25 2.1 13.25-10-6.3-1-.2m87-27.3q1.25 0 2.1.85.9.9.9 2.15 0 .9-.45 1.6l-.45.5q-.85.9-2.1.9t-2.15-.9l-.4-.5q-.45-.7-.45-1.6 0-1.25.85-2.15.9-.85 2.15-.85" fill="#41d1ea"/><path d="M127.35 143.45q-9.2 2.4-18.35 3.25l.5-2.05.05-.15.05-.15v-.3l-.2-.7-.25-.35-9.05-8.5 11.35-.8.4-.05.1-.05.3-.2.4-.4 5.35-11.05 4.75 10.2.3.55.1.15q.35.35.9.4l12.7 1.55-8.8 6.7-.1.05-.3.35q-.3.4-.3.9l.05.1v.2l.05.35m6.4-54.85 1.25 1.5q.35.35.85.4l.9-.3.45-.85q.05-.5-.3-.9-5.65-6.65-11.65-12.8l2.85-3.45 7 7.9 2.15-17.85q10.6-10.55 21.2-16.4l8 8 .55.35h.6l.6-.35v-.05l.25-.35q10.25-16.4 20.5-24.75.75 3.2 1.65 6.3 3 10.6 2.15 21.65-.85 10.65-3.6 21.1-2.9 11-8.35 20.95l-.2.25q-3.75 1-7.3 2.55-4.15 1.65-8 3.9-3.9 2.35-7.5 5.1l-7.55 5.95q-3.4 2.8-6.85 5l-4.2 2.3-2.75 1.15q-3.5 1.85-7.25 1.9l-1.45.05-1.55-.5q-1.4-.35-2-1.85l-1.05-3.2-1.1-3.6q2.4-2.7 4.45-5.75 4.25-6.3 6.05-13.25 1.2-4.9 1.2-10.1m35.75-10.35L159 77l-3.9-8.35-.75-.75-.6-.15-.55.1-.1.05q-.5.2-.75.7l-4.1 8.7-9.35.65-.25.05-.75.45q-.25.25-.35.6l-.05.4v.1l.05.3.45.7 7.3 6.85-2.25 8.85-.05.1-.05.25q-.05.45.2.85l.85.7h.1l.25.05.85-.2.1-.05 8.5-4.35 8.15 4.9.35.2.2.05.4.05h.2l.15-.05.2-.05.6-.5.1-.1.2-.75v-.25l-1.6-10.5 7.45-5.6.25-.25.35-.8-.15-.85-.15-.25-.2-.2q-.35-.35-.8-.4m-9.8 8.1 1.2 8.05-6.2-3.7-.05-.05-.35-.15-.8-.05q-.3.05-.5.25l-6.25 3.2 1.65-6.45.05-.45v-.15l-.05-.4-.1-.2-.05-.1-.25-.35-5.45-5.05 6.75-.5.75-.25.5-.6.05-.05 3.1-6.6 2.9 6.15.25.45q.35.45 1 .55l7.6.9-5.15 3.95h-.05l-.3.3-.05.05q-.25.4-.25.9l.05.35" fill="#acafb9"/><path d="m188.95 28.7.4-.3q12.8 38.95-3.35 69.3l-.35.05-4.1.95-.7.2-.05-.2q5.45-9.95 8.35-20.95 2.75-10.45 3.6-21.1.85-11.05-2.15-21.65-.9-3.1-1.65-6.3" fill="#8bfffe"/><path d="m185.9 97.9-3.6 6.05q-10.95 16.8-31.35 30.8l-7.3 3.25 2.95-2.25q9.95-7.45 18.75-16.4 8.55-8.7 14.65-19.3l.65-1.1.2-.05.7-.2 4.1-.95.25.15" fill="#1bbae2"/><path d="m143.65 138-2.3.9-9.2 3.2 9.2-7 .4-.35.35-.8-.15-.85-.15-.25-.2-.2-.25-.2-.55-.2-15.6-1.9-5-10.65 1.85-2 1.1 3.6 1.05 3.2q.6 1.5 2 1.85l1.55.5 1.45-.05q3.75-.05 7.25-1.9l2.75-1.15 4.2-2.3q3.45-2.2 6.85-5l7.55-5.95q3.6-2.75 7.5-5.1 3.85-2.25 8-3.9 3.55-1.55 7.3-2.55h.05l-.65 1.1q-6.1 10.6-14.65 19.3-8.8 8.95-18.75 16.4l-2.95 2.25m-37.55 8.95q-7.2.45-14.4.05l-11.75-1.4q-6.45-1.1-12.9-2.95 9.75.7 19.4-2.25l5.25-1.85 5.6-2.6 9.15 8.65-.4 1.45q-.15.45.05.9" fill="#1d6d96"/></g><g id="e" fill-rule="evenodd"><path d="m9.95 1.55.1-.4Q10.3.6 10.9.4q2.35-.9 5.2.35 4.3 1.8 7.45 5.35L26 8.6q2.95 2.75 6.5 5.1l2 1.3 2.4 1.55q18 3 19.1 17v3.2l-.55 3.4q-1.1 4.3-3.55 8.3-6.5 10.5-16.95 10.1-9.15-.2-13.35-8.4l-1.1-2.45-.15-.05q-13.6-3.3-19-19.1-.2-.6.05-1.15l.45-.55.4-.2 1.15.05q.55.25.8.85Q6 32.8 8.8 36.5q4.2 5.6 10.65 7.8-.65-2.55-1-5.5-.05-.65.35-1.1.35-.5 1-.6.6-.05 1.1.35.45.35.55 1 1.05 8.7 4.8 13 3.3 3.8 8.8 4.1 8.75.2 14.3-8.7 2.2-3.6 3.2-7.45l.45-2.8v-2.8q-1.2-11.75-16.7-14.35l-.65-.15-.05-.05-.05-.05h-.05l-2.7-1.7h.05l-2-1.3q-3.8-2.45-6.9-5.4L21.3 8.1q-2.7-3.05-6.35-4.6l-3.05-.25-1.15-.1Q10.2 2.9 10 2.3l-.05-.75" fill="#173862"/><path d="M19.5 30.15q.6.6.6 1.45t-.6 1.45q-.6.6-1.45.6t-1.45-.6q-.6-.6-.6-1.45t.6-1.45q.6-.6 1.45-.6t1.45.6m11.4 4.2q3 0 5.1 2.15 2.2 2.25 2.2 5.35 0 3.1-2.2 5.25-2.1 2.25-5.1 2.25-3 0-5.15-2.25-2.1-2.15-2.1-5.25t2.1-5.35q2.15-2.15 5.15-2.15" fill="#51a0eb"/><path d="M26.25 51.45q-3.75-4.3-4.8-13-.1-.65-.55-1-.5-.4-1.1-.35-.65.1-1 .6-.4.45-.35 1.1.35 2.95 1 5.5Q13 42.1 8.8 36.5q.55-8.65 1.95-11.55 2.25-4.85 9.3-4.85 3.8 0 6.95 2.45l6.1 4.5q3.35 1.65 5.8 4.75 2.8 3.5 2.8 7 0 7.35-2.6 10.1-2.75 2.9-10.25 2.9l-2.6-.35m-6.75-21.3q-.6-.6-1.45-.6t-1.45.6q-.6.6-.6 1.45t.6 1.45q.6.6 1.45.6t1.45-.6q.6-.6.6-1.45t-.6-1.45m11.4 4.2q-3 0-5.15 2.15-2.1 2.25-2.1 5.35 0 3.1 2.1 5.25 2.15 2.25 5.15 2.25 3 0 5.1-2.25 2.2-2.15 2.2-5.25T36 36.5q-2.1-2.15-5.1-2.15" fill="#306cdc"/><path d="m9.95 1.55.05.75q.2.6.75.85l1.15.1 3.05.25q3.65 1.55 6.35 4.6l2.65 2.7q3.1 2.95 6.9 5.4l2 1.3h-.05l2.7 1.7h.05l.05.05.05.05.65.15Q51.8 22.05 53 33.8v2.8l-.45 2.8q-1 3.85-3.2 7.45-5.55 8.9-14.3 8.7-5.5-.3-8.8-4.1l2.6.35q7.5 0 10.25-2.9 2.6-2.75 2.6-10.1 0-3.5-2.8-7-2.45-3.1-5.8-4.75l-6.1-4.5q-3.15-2.45-6.95-2.45-7.05 0-9.3 4.85-1.4 2.9-1.95 11.55-2.8-3.7-4.6-8.95-.25-.6-.8-.85l-1.15-.05-.4.2q-1.1-2.1-1.35-3-.5-1.8-.5-6.3t2.15-8.9q2.5-5.15 6.7-7.1h1.1" fill="#1c50ad"/></g><g id="f" fill-rule="evenodd"><path d="M26.55 81.05q3.35-7.9 9.15-13.7l.1-.1q.35-.3.8-.35l.6.05.6.4q.4.35.45.9L39 75.1q5.05-7.8 11.1-14.6 8.9-10.1 19.95-18l.55-.35 3.85-2.1q26-14.9 26.2-35.05l-.1-2.3q-.05-.55.15-1.05l.05-.1.15-.3.25-.35.15-.15q.6-.65 1.55-.75.65-.05 1.25.25l6.5 2.45q36.85 14.75 52.05 38.15 4.8 7.4 7.5 15.65 5.85-3.95 11.75-14.05l.7-.75.6-.35.25-.05.25-.05q.85-.15 1.6.3l.25.15q.7.5.95 1.4v.15l.05.15q.75 4.7 3.95 9.75l3.85 4.8 4.7 5.65q3.6 4.15 6 8.95 3.05 6.05 3.45 11.7l7.45-4.8.5-.25 1.25-.1h.15l.4.15.8.5.15.2.2.25.2.35.1.25.1.95.05 3.5q-2.45 1.15-4.95 2.6l-.05-.3V86.1l-6 3.85-.75.35-.45 1.85q-2.35 1.5-4.75 3.15l-.65-.85q-.4-.95 0-1.9 3.1-8.25-1.65-17.75-2.15-4.25-5.35-7.95l-4.75-5.7-4.1-5.15-.05-.05-.1-.1-.05-.15q-1.9-3-3.05-5.9l-3 4.1q-4.3 5.2-8.55 7.6 1.5 6.3 1.8 13.05.05 1-.65 1.8-.7.75-1.7.8-1.05.05-1.8-.65-.8-.7-.85-1.7-.3-7.15-2.05-13.7v-.05l-.15-.45-.35-1.25q-2.6-8.4-7.4-15.8v.05q-14.6-22.15-49.7-36.25l-3.1-1.2q-.45 22.1-28.7 38.25L73 46.55Q62.4 54.1 53.85 63.8q-8.1 9.15-14.4 20.15L36.75 89q-.5.9-1.45 1.25l-1.9-.15q-.95-.5-1.25-1.45l-.05-.15q-.25-.95.2-1.8l4.2-7.6-.2-.6-.7-6.6q-5.9 7.1-8.55 17.05-1.75 6.55-2.15 14.3l-.1 2.75v.25l-.25.85-.75.6-.2.05h-.15l-1-.25q-3.3-2.25-5.9-2.4-2.65 10.05-2.35 20.05l.25 4.1v.05q.6 6.45 2.45 12.95 2.95 10.2 9.4 18.4l3.7 4.2h-.05l.05.05 1.25 1.25.35.5 1.25.05 3.25 2.85q-2-.85-4.5-.9v5.3l-.35 6.4-.1 1.15-.2 2.05.45.9.9 1.45q.8 1.1 2.05 1.4h.05l.65.1 2.1-.35.05-.05h-.05q1.1-.5 1.7-1.55.75-1.45 1.1-3l.15-1.1v-1.2l-.1-1.7q-.15-2.75-.8-5.35v.05l-.55-1.8 2.65 1.4 2.6 3.5v.2q.9 4.95.6 8.6l-.25 2-.9 2.7Q42.3 192 40.3 193.2l-.35.2-1.7.6q-1.95.95-4.25.5l.5.4q1.1.6 2.3.8l2.4.15.55.2.25.5-.2.55-.5.25q-7.8.5-10.4-7.7l-.45-1.75q-.1-.25.05-.5l.05-.1.05-.05-.15-.2q.65-4.25.95-8.8l.05-.95.05-1 .05-.45.05-2.85v-4.45l-.45-.3-1.3-1.3-3.9-4.45q-6.8-8.65-9.95-19.4-1.95-6.75-2.55-13.55l-.3-5.85v-.85q.05-9.8 2.8-19.6l.15-.3.1-.2.2-.15q.2-.25.45-.35l.6-.1.7-.05q2.6-.1 5.75 1.55v-.55q.45-9.05 2.65-16.45l.65-2.05.9-.4q.75-.55.9-1.45.1-.95-.45-1.7m93.85 71.3 3.95-.9q9.6-1.85 16 .65 8.6 3.25 11.5 14.25l.05.15v.15l-.05.4-.05.05-.55.45H151l-.45-.1-.2-.15q-2.45-2.45-5.15-4.15 3.95 9.05 2.4 19l-.9 4.2-1.35 3.85 3.8-4.05.2-.2q.2-.15.45-.15l.65.2.15.2.15.3v.15l-.05.4q-2.45 11.85-14.9 18.05h-.05q-3.65 2.05-7.35 2.45h-.2l-2.45.05h-.05l-2.45.05h-.05q-11.65-.15-19.75-5.3l-.4-.35-.1-.3v-.35l.05-.15q.05-.3.3-.45l.3-.1h.4l4.2.7q-8-6.85-8.75-18.9-.2-3.15.2-6.25-5.2 6.85-7.95 16.2l-.05.05-.25.4-.15.1-.3.1h-.25q-.35-.05-.6-.3l-.1-.15-.1-.3v-.25q.7-6.7 2.8-12.4 1.55-4.4 3.9-8.2l2.55-3.7q2.7-3.6 6.25-6.65 2.35-2.05 5.05-3.85 3.3-2.25 7.1-4.05l.05-.05.15-.05h.05q1.35-.45 2.6-.75m10.2-8.55 1.15-1.6q5.8-2.2 10.8-6.1.3-.3.75-.25.4.05.65.4l.2.75-.35.65-1 .75.05 5.95q4.85-2.1 10-6.1.3-.3.75-.25l.65.4.2.75-.35.65-3.5 2.55q4.6 8.2 6.4 17.2-.4 2.9-.55 5.9l-.3-.15-.4-.7q-1.25-11.15-6.85-21.15-3.35 2-6.55 3.25l-.5.1-.7-.25q-.3-.3-.3-.7l-.05-6.05q-4.2 2.8-8.95 4.5l-.75-.05-.5-.45m-97.45 48.35 4.05.15 1.15-.4q1.75-.85 2.75-2.5 2.45-3.9.85-12.5l-.1-.25-.45-1.2-.75-1.65q.5 2.2.6 4.6l.05 1.75q.05 3.15-1.4 5.9-.75 1.4-2.25 2.1l-3.35.4-.15-.05-.2-.05-.6-.15q-1.2-.5-2.05-1.7h.05l-.65-.95-.2 1.55-.1 1.55-.05.55.4 1.05.65.5q.7.85 1.75 1.3m21.35-1.5-.1-.15-1.3-1.7-1.05-1.25-.05-.05-.05-.1-.05-.15.05-.15.05-.1.05-.05.15-.05.05-.05q4.3-1.3 7.75.6l.1.1h-.05l.15.25-1.85 1.65-1.6 1.2-.9.65-.7.1-.25-.3-.4-.45m3.3-1.7q1.45-1.15-.1-1.65l-4.7.15.7.85 1.25 1.7.45.65.15.05.45-.3 1.8-1.45m-28.05-1.75.05.1v.05l-.05-.15m109.45-28.7v.05h.05l-.05-.05M145 176q-.15-7.85-4.25-15.05-5.3-1.95-11.45-1.35 4.95 6.65 6.05 13.85.35 2.6.25 5.35l-.1 1.15-.35 2.6v.1l-.3 1.35v.05h-.05l-1.05 3.3-1.5 3.4-1.1 1.55-.4.5-.25.3-.05.05-2 1.9-.05.05q-6.25 4.6-16.55 3.3-.4-.05-.6-.35-.25-.3-.2-.65l.35-.6q.3-.25.7-.2 9.4 1.2 15.15-2.9l1.95-1.8h-.05l.15-.2.25-.25 1.15-1.6-.05.05 1.4-3.15 1.05-3.2v.05l.1-.55.15-.65.4-3.55q.15-2.7-.25-5.3-1.1-7.1-6.25-13.7-4.15.65-8.6 2.35-8.8 3.4-15 9.5-1.4 4.65-1.25 9.45l.05 1.1.05.6q1.05 12.95 11.7 19 8.3.25 15.35-2 3.05-1 5.95-2.5l.65-.35q4.6-3.45 6.75-8.65l.9-2.75.3-1.2.6-3.25q.35-2.65.3-5.15" fill="#18113a"/><path d="m71.7 202.1 2.95.8-.05.05-.6.5-2.15.8-.8.3q-7.25 2.85-11.3 9.65l-1.1-1.05.05-1.25q3.35-5.05 8.5-7.85 1.85-1 3.95-1.75l.55-.2" fill="#150a09"/><path d="M26.55 81.05q.55.75.45 1.7-.15.9-.9 1.45l-.9.4-.75.05q-.95-.15-1.5-.9-4.85-6.4-11.5-8.3l-.15-.05-.55 1.25q-9 21.4-5 50.75.65 4.8 1.7 9.8 6.45 22.85 14.9 31.3 3.35 3.35 7.1 4.45l.15.05-.05 2.85-.05.45-.05 1-.05.95q-.3 4.55-.95 8.8l.15.2-.05.05-.05.1q-.15.25-.05.5l.45 1.75-2.55 4.65q-.2 13.1 8.95 20.3 32.35 19.25 81.45 10.05l.2-.05q25.25-5.95 41.1-17.15h.05q10.4-7.4 16.75-17l-4.45.2q-4.25 1.9-8.5 3.85l-1.7.05q-.9-.35-1.3-1.15-.4-.85-.05-1.7l.1-.2q-2.35-10.05-2.55-19.5l-.05-.6.1-5.95q.15-3 .55-5.9 3.05-23.1 20-41.95 4.75-5.25 10.55-10.15l.65-.3 7.2-5.55 6.25-4.5v-.15q.15-.95.95-1.45l.3-.2q2.4-1.65 4.75-3.15 3.7-2.35 7.25-4.3 2.5-1.45 4.95-2.6 14.15-7 24.95-6.9h.15l.4.1.55.2q.25.15.5.4l.5.7.15.7v.35q-3.35 53.3-30.1 99.3l-.05.1-.05.1-.35.5-.45.3-.1.05q-11.85 6.9-35.6 8.9-16 28-62.35 38.95l-.45.1q-51 9.5-84.6-10.65l-.1-.05-.2-.15-.1-.1q-11.15-8.65-10.7-24.45v-.15l.05-.4.05-.1q.1-.5.45-.9 4.3-6.15 4.2-13.65 0-.9.55-1.5-14.45-4.6-24.05-38.6L3 138q-7.8-38.9 4.7-65.5l.2-.45.4-.7.45-.4.2-.1.3-.15 1.15-.1q9.55 1.65 16.15 10.45m3.2 106.15.05.15v-.05l-.05-.1m212.6-103.55.05-.7-2.5.3q-9.75 1.35-22.2 8.2-1.5.8-3.05 1.7-4.6 2.65-9.5 6.05-.8.5-1.7.35h-.1l-7.95 5.8-5.75 4.5q-.5.35-1.1.3l-.45-.1q-5.85 5-10.45 10.4l-1.25 1.45q-3.5 4.2-6.3 8.65-15.4 24.2-10.05 54.8l.9 4.65 7.6-3.45.35-.2.85-.2h.75q29.2-1.2 42.75-8.65 11.75-20.3 18.9-42 4.15-12.8 6.75-26.1 2.45-12.65 3.45-25.75" fill="#0d71be"/><path d="m43.9 176.25-2.6-3.5-2.65-1.4q-1.3-.8-2.55-1.8l-3.25-2.85q-2.9-2.85-5.85-6.75l-.3-.5q-4.65-12.2-5.35-26.8-.5-9.6.7-20.2v-.15l.3-.65q.3-.4.8-.45h.25q7.2-.7 12.9.2 3.95.6 7.2 2.05l2.8-4.1q8.15-11.3 21.55-23.15v-.05q.15-.5.6-.75l.95-.15.75.6 2.05 3.7q6.75 12.9 10 28.6l2.55-.5.2-.05 2.75-.5 1.2-.2q15.45-2.5 28.3-1.3 6.45.6 12.3 2.15 3.85 1 7.4 2.45l3.9 1.75.6.6.05.1v.85l-.05.1q-3.75 10.1-9.65 18.6l-1.15 1.6q-2.9 4-6.25 7.65l-3.95.9q.05-.5.4-.8 11.75-11.9 17.9-27.85l-2.7-1.2q-3.3-1.3-6.85-2.25-5.6-1.5-11.8-2.1-12.4-1.2-27.4 1.15l-3.5.55-3.8.75q2.75 14.6 2.55 31.65l-.35.85-.35.25q-8 15.05-20.5 25.35l-2.1 1.7q20.75-4.45 36.35-12.55l.9-.1-2.55 3.7q-15.35 7.45-35.35 11.6l-3.05.65h-.15l-.6-.1-1.25.8-.45.3-.7.15H55l-.25-.1-.05-.05-.4-.2q-6.35-3.55-10.3-8.15l-.1-.1M70.45 91.6l-1.85-3.4q-13.65 12.2-21.7 23.75l-.2.35q-3.85 5.5-6.35 10.9-3.25 4.75-5.4 10.1l-.05-.05q-.2-.35-.1-.75.5-2.05 1.25-4.15 1-3 2.45-6l.05-.1q1.55-3.3 3.6-6.7-2.15-.9-4.65-1.4l-2.6-.4q-4.7-.6-10.45-.15l-.05.5-.3 3.65-.35 6.85v.9l.05 5.35v.05l.45 6.65q1.1 11.2 4.75 20.9 5.15 6.75 9.95 10.05l.15.15.2.1-.1-.2-.1-.3 5.5 5.65.15.25q3.85 4.85 10.4 8.55l1.2-.75Q73 170.8 82.75 152.4l-.05-.2q.35-28.6-7.75-50.35-2-5.3-4.45-10.1l-.05-.15M36.5 133.4l.35-.7-.1.3-.25.4m4.8 35.05-1.15-1.3.35.1.55.55.25.65" fill="#620f19"/><path d="m44.6 173.9-5.5-5.65q-3.55-3.95-5-6.65l-.2-.35-.1-.8-.05-.2-.4-3q-.8-6.05-.95-10.85-.1-3 .1-5.5v-.05l.05-.25.35-1.3.4-1.4q.75-2.35 1.65-4.6 2.15-5.35 5.4-10.1 3.5-5.25 8.35-9.75l.05-.05.4-.2.15-.05h.05q7.9-.15 13.7 1.3l2.8.85h.05l.1.05.35.35v.05l.05.05q4.7 12.85 5.95 27.35l.05.65.3 4.85.05 2.95v2.75l-.05.35q-8.4 17.1-17.75 25.65l-.05.05-.1.1-.15.05-.25.05-.3-.05q-3.6-1.8-6.45-4l-2.85-2.45-.2-.2m-7.75-41.2-.35.7q-1.5 3.65-2.5 7.55v.05l-.1 3.4.15 4.4v.5l.4 4.5.7 5.5.25 1.65 1.5 2.3 3.25 3.9 1.15 1.3 3.5 3.55 1.05 1v.05q3.5 3.4 8.45 5.9 8.95-8.4 16.95-24.75v-3.35l-.1-3-.75-8.85q-1.45-11.75-5.3-22.4l-1.7-.5q-5.75-1.6-13.8-1.45-8.4 7.9-12.75 18.05" fill="#2e1d50"/><path d="m57.45 195.15-.25-.45q-.1-.35.1-.65.2-.3.55-.35l.65.1q14.3 9.35 27.35 8.3l2.65-.35.15-.05h.05q4.6-.8 9.1-2.95l.65-.05.5.45v.65l-.4.5-3.5 1.5q.4 15.8-17.2 19.2l-.25.05q-13.15 1.5-20.95-6.65-.3-.25-.3-.6l-.05-.2v-.1q.55-8.7-3.6-13.05l-.2-.25q-2.05.7-4.45 1l-.6-.15-.35-.6q-.05-.35.2-.6l.55-.35q5.95-.7 9.6-4.35m14.25 6.95q-6.3-1.95-12.8-6-1.85 1.9-4.2 3.15 4.1 4.45 4 12.65l-.05 1.25 1.1 1.05q6.85 5.8 17.6 4.55h.05q2.75-.55 5-1.4 10.2-3.95 10.35-14.8l-3.25.75q-1.95 6.25-8.6 8.35l-1 .3-.1.05-.65-.1q-.35-.2-.4-.5l-.85-3.65q-.35-2.15-.4-4.3l-2.85-.55-2.95-.8m8.35 7.6.1.4q5.5-1.65 7.4-6.5l-2.6.25-5.75-.15q.1 3 .85 6" fill="#600e19"/><path d="M28.9 189.65q2.6 8.2 10.4 7.7l.5-.25.2-.55-.25-.5-.55-.2-2.4-.15q-1.2-.2-2.3-.8l-.5-.4q2.3.45 4.25-.5l1.7-.6.35-.2q2-1.2 3.05-3.45l.9-2.7.3-.15 1.35-.55q3.9 3.35 8.5 4.6l.5.15.25.3.7-.1 4.25.4q4.65 0 9.75-1.2l7.85-2.55.75-.3q7.5-3.1 14.25-8-2.1 5.7-2.8 12.4v.25l.1.3.1.15q.25.25.6.3h.25l.3-.1.15-.1.25-.4.05-.05q2.75-9.35 7.95-16.2-.4 3.1-.2 6.25.75 12.05 8.75 18.9l-4.2-.7h-.4l-.3.1q-.25.15-.3.45l-.05.15v.35l.1.3.4.35q8.1 5.15 19.75 5.3h.05l2.45-.05h.05l2.45-.05h.2q3.7-.4 7.35-2.45h.05q12.45-6.2 14.9-18.05l.05-.4v-.15l-.15-.3.2-.15.65 1.45q1.55 3.95 1.55 8.9l-.35 3.15-.8 2.7q1.2.35 3.3 2.2 1.85 1.6 2.9 3-15.85 11.2-41.1 17.15l-.2.05q-49.1 9.2-81.45-10.05-9.15-7.2-8.95-20.3l2.55-4.65m2.35-9.3.35-6.4 1.1-.2q1.45 0 2.45 1 1 1 1 2.45 0 1.45-1 2.45-1 1-2.45 1l-1.45-.3m39.15-88.7L66.55 96l-.4.5-12.6 13.9-3.55.8-3 1-.1-.25q8.05-11.55 21.7-23.75l1.85 3.4-.05.05M59.9 110q-.6-2.8.7-5.55 1-2.05 3.1-1.85l.6.65.6 1.15q.8 1.8.35 3.65l-.9 3.05q-2.05-.9-4.45-1.1m-36.15 14.6.35-6.85.4-.15 1.5-.25q1.9 0 3.15 2.35 1 1.95 1 4.1 0 1.25-.65 2.15-.8 1-2.15 1-1.15 0-2.45-1.05l-1.15-1.3m94.5 3.65-1.3.45q-.9 0-1.55-.65-.6-.65-.6-1.6 0-.95.6-1.6.65-.65 1.55-.65l1.05.25v.45l.45-.05q.65.65.65 1.6 0 .95-.65 1.6l-.2.05v.15M96.5 125.4q2.7-1.85 6.55-1.85 3.85 0 6.55 1.85 2.7 1.95 2.7 4.65 0 2.75-2.7 4.6-2.7 1.95-6.55 1.95-3.85 0-6.55-1.95-2.7-1.85-2.7-4.6 0-2.7 2.7-4.65m-64.75 6.2.05.1.2 1.05q0 1-.7 1.7t-1.7.7q-1 0-1.7-.7t-.7-1.7l.1-.65q.15-.6.6-1.05.7-.7 1.7-.7t1.7.7l.45.55m12-7.35q.7.35.65 1.45-.05 1.35-.75 2.8-.7 1.5-1.65 2.2-.95.85-1.65.5-.65-.3-.6-1.6 0-1.15.7-2.65.7-1.45 1.7-2.35.95-.65 1.6-.35m-5.4 11.65q.6 0 1 .4.45.4.45 1t-.45 1q-.4.4-1 .4t-1.05-.4q-.4-.4-.4-1t.4-1q.45-.4 1.05-.4m-.7 46.4q-.4-.4-.4-1t.4-1q.4-.4 1-.4t1 .4q.4.4.4 1t-.4 1q-.4.4-1 .4t-1-.4m19.8 12.85q-3.65 3.65-9.6 4.35l-.55.35q-.25.25-.2.6l.35.6.6.15q2.4-.3 4.45-1l.2.25q4.15 4.35 3.6 13.05v.1l.05.2q0 .35.3.6 7.8 8.15 20.95 6.65l.25-.05q17.6-3.4 17.2-19.2l3.5-1.5.4-.5v-.65l-.5-.45-.65.05q-4.5 2.15-9.1 2.95h-.05l-.15.05-2.65.35q-13.05 1.05-27.35-8.3l-.65-.1q-.35.05-.55.35-.2.3-.1.65l.25.45m45.05-12.3-.05-.6-.05-1.1q.2-1.15 1.15-2.35 1.65-2 4.55-2.85l5.35-.15q2.55.85 3.15 2.8.55 1.95-1.1 3.95-1.65 2.05-4.55 2.9l-3.1.45-2.25-.35q-2.55-.75-3.1-2.7m28.05-2.2q-1.15 0-2-.7-.75-.65-.75-1.6 0-.95.75-1.65.85-.65 2-.65h.15q1.05.05 1.75.65.85.7.85 1.65t-.85 1.6q-.75.7-1.9.7" fill="#fff"/><path d="M36.05 128.35q-.75 2.1-1.25 4.15-.1.4.1.75l.05.05q-.9 2.25-1.65 4.6l-.4 1.4-.35 1.3-.05.25v.05q-.2 2.5-.1 5.5l-2.8-3.4-3.85-4.35-1.2-7.55 2.75 1-.1.65q0 1 .7 1.7t1.7.7q1 0 1.7-.7t.7-1.7l-.2-1.05-.05-.1 2.55-2 1.75-1.25m55.65 3.9 1.05 2q7 12.1 19.75 10l-.65.65q-6.6 6.35-16.3 6.35-1.75 0-2.5-.75-.85-.85-1.4-3.5l-.45-3.95-.05-3.1.15-1.25q.35-3.1.35-6.45h.05" fill="#fad905"/><path d="m66.15 96.5.4-.5 3.85-4.35.1.1q2.1 8.65 2 17.9l-.2 5.3-2.55-8.15q-2.25-7-3.6-10.3" fill="#f7b800"/><path d="M74.95 101.85q8.1 21.75 7.75 50.35l.05.2q-9.75 18.4-26.4 29.55 15.1-15.2 22.6-28.65l-4-51.45m-36 66.65q-4.8-3.3-9.95-10.05-3.65-9.7-4.75-20.9l-.45-6.65v-.05l-.05-5.35.8 5.6 1.2 7.55q1.8 11 2.9 13.8 1.75 4.5 4.5 7.2l.6.6.05.2.1.8.2.35q1.45 2.7 5 6.65l-.15.25m97.05-46 2.7 1.2q-6.15 15.95-17.9 27.85-.35.3-.4.8-1.25.3-2.6.75h-.05l-.15.05-.05.05q-3.8 1.8-7.1 4.05 16.75-13.8 25.55-34.75m-72 56.2q24.35-5.55 41.4-17.6-3.55 3.05-6.25 6.65l-.9.1q-15.6 8.1-36.35 12.55l2.1-1.7" fill="#70e7f9"/><path d="m72.3 114.95.2-5.3q.1-9.25-2-17.9 2.45 4.8 4.45 10.1l4 51.45q-7.5 13.45-22.6 28.65l-1.2.75q-6.55-3.7-10.4-8.55l.05-.05 2.85 2.45q2.85 2.2 6.45 4l.3.05.25-.05.15-.05.1-.1.05-.05q9.35-8.55 17.75-25.65l.05-.35v-2l.5-.5-.5-.25-.05-2.95-.3-4.85-.05-.65q-1.25-14.5-5.95-27.35l-.05-.1-.35-.35-.1-.05h-.05l-2.8-.85q-5.8-1.45-13.7-1.3h-.05l-.15.05-.4.2-.05.05q-4.85 4.5-8.35 9.75 2.5-5.4 6.35-10.9l.3-.1 3-1 3.55-.8 6.35-.4q2.4.2 4.45 1.1 5.2 2.25 7.55 8.85l.4-5m56.85 5.3q3.55.95 6.85 2.25-8.8 20.95-25.55 34.75-2.7 1.8-5.05 3.85-17.05 12.05-41.4 17.6 12.5-10.3 20.5-25.35l.35-.25.35-.85q.2-17.05-2.55-31.65l3.8-.75q1.4 2.35 2.15 4.95 2 7 2.45 13.95l.1 1.2-.2 1.5-.05.3.1.05.2 1.25q-.05 10.75-3.8 21.45l7.75-4.55q11.65-7.1 21.3-16.65l1.55-1.6q9.1-9.45 11.15-21.45m-103.4 18.4L29.6 143l2.8 3.4q.15 4.8.95 10.85l.4 3-.6-.6q-2.75-2.7-4.5-7.2-1.1-2.8-2.9-13.8" fill="#c16800"/><path d="m24.4 114.1.05-.5q5.75-.45 10.45.15l2.6.4q.65 1.4.8 3.95l.25 4.15-.05.05q-3-3.75-5.2-5.35-3.7-2.65-8.9-2.85" fill="#fbb65b"/><path d="M37.5 114.15q2.5.5 4.65 1.4-2.05 3.4-3.6 6.7l-.25-4.15q-.15-2.55-.8-3.95" fill="#e39104"/><path d="m86.45 119.85 3.5-.55q.65 2 1.1 4.9.6 3.8.6 7.9v.15q0 3.35-.35 6.45l-.25.05q-.45-6.95-2.45-13.95-.75-2.6-2.15-4.95m30.9-1.7q6.2.6 11.8 2.1-2.05 12-11.15 21.45l-1.55 1.6-3.95.95q5.9-5.95 5.9-10.6l-.15-5.4.2-.2q.65-.65.65-1.6 0-.95-.65-1.6l-.45-.4-.15-1.5-.5-4.8" fill="#fba652"/><path d="m91.2 143.05.45 3.95q.55 2.65 1.4 3.5.75.75 2.5.75 9.7 0 16.3-6.35l.65-.65 3.95-.95q-9.65 9.55-21.3 16.65l-7.75 4.55q3.75-10.7 3.8-21.45" fill="#f39c00"/><path d="M66.15 96.5q1.35 3.3 3.6 10.3l2.55 8.15-.4 5q-2.35-6.6-7.55-8.85l.9-3.05q.45-1.85-.35-3.65l-.6-1.15-.6-.65q-2.1-.2-3.1 1.85-1.3 2.75-.7 5.55l-6.35.4 12.6-13.9m-42.4 29v-.9l1.15 1.3q1.3 1.05 2.45 1.05 1.35 0 2.15-1 .65-.9.65-2.15 0-2.15-1-4.1-1.25-2.35-3.15-2.35l-1.5.25-.4.15.3-3.65q5.2.2 8.9 2.85 2.2 1.6 5.2 5.35v.05q-1.45 3-2.45 6l-1.75 1.25-2.55 2-.45-.55q-.7-.7-1.7-.7t-1.7.7q-.45.45-.6 1.05l-2.75-1-.8-5.6m66.2-6.2q15-2.35 27.4-1.15l.5 4.8.15 1.5-1.05-.25q-.9 0-1.55.65-.6.65-.6 1.6 0 .95.6 1.6.65.65 1.55.65l1.3-.45.15 5.4q0 4.65-5.9 10.6-12.75 2.1-19.75-10l-1.05-2-.05-.15q0-4.1-.6-7.9-.45-2.9-1.1-4.9m6.55 6.1q-2.7 1.95-2.7 4.65 0 2.75 2.7 4.6 2.7 1.95 6.55 1.95 3.85 0 6.55-1.95 2.7-1.85 2.7-4.6 0-2.7-2.7-4.65-2.7-1.85-6.55-1.85-3.85 0-6.55 1.85" fill="#feee65"/><path d="M43.75 124.25q-.65-.3-1.6.35-1 .9-1.7 2.35-.7 1.5-.7 2.65-.05 1.3.6 1.6.7.35 1.65-.5.95-.7 1.65-2.2.7-1.45.75-2.8.05-1.1-.65-1.45m-7.25 9.15.25-.4.1-.3q4.35-10.15 12.75-18.05 8.05-.15 13.8 1.45l1.7.5q3.85 10.65 5.3 22.4-2.05-4.6-3.45-9.05-1.3-4.2-3.1-12.1l-.05-.1-11.95.25q-.45 6.2 1.1 13.2l.4 1.55q-3.25-2.55-5-6.5.35 1.45.2 2.85l-1.15 7-.3 1.6q-1.65 7.35-4.35 14.3-.25.65-.7.45-3.25-1.2-5.35-3.35-1.85-1.95-2.8-4.7l.1-3.4v-.05q1-3.9 2.5-7.55m1.85 2.5q-.6 0-1.05.4-.4.4-.4 1t.4 1q.45.4 1.05.4.6 0 1-.4.45-.4.45-1t-.45-1q-.4-.4-1-.4" fill="#d7bafd"/><path d="m70.4 139 .75 8.85-7.95-4.2q-3.3-1.85-6.1-4.65-2.65-2.7-3.75-6.25l-.4-1.55q-1.55-7-1.1-13.2l11.95-.25.05.1q1.8 7.9 3.1 12.1 1.4 4.45 3.45 9.05m.85 11.85v2.9l-.2.25q-10.15 9.7-12.95 13.75l-4.55 6.1q-2.95-.45-5.5-2.1l-.35-.25-.1-.05-3.25-5.65q-2.5-4.25-2.5-6.4 0-1.25 3.4-7.85l4.6-8.8 2.25.25.05-.1.2-.15-.3-.85-.45-1.4q3.4 1.4 10.25 5.25l9.4 5.1M44.8 172l-3.5-3.55-.25-.65-.55-.55-.35-.1-3.25-3.9-1.5-2.3-.25-1.65.7-1.15 1.5-2.65q1.1 1.8 4.85 10.95l.45 1L44.8 172m-10.35-18.2-.4-4.5v-.5l-.15-4.4q.95 2.75 2.8 4.7l-1.4 2.8-.85 1.9" fill="#1b1168"/><path d="M71.25 154.2q-8 16.35-16.95 24.75-4.95-2.5-8.45-5.9V173l-1.05-1-2.15-4.55q2.25 2.25 4.95 4l.45.3q2.55 1.65 5.5 2.1l4.55-6.1q2.8-4.05 12.95-13.75l.2.2" fill="#402dfb"/><path d="m71.15 147.85.1 3-9.4-5.1Q55 141.9 51.6 140.5l.45 1.4.3.85-.2.15-.05.1-2.25-.25-4.6 8.8q-3.4 6.6-3.4 7.85 0 2.15 2.5 6.4l3.25 5.65q-2.7-1.75-4.95-4l-.45-1q-3.75-9.15-4.85-10.95l-1.5 2.65-.7 1.15-.7-5.5.85-1.9 1.4-2.8q2.1 2.15 5.35 3.35.45.2.7-.45 2.7-6.95 4.35-14.3l.3-1.6 1.15-7q.15-1.4-.2-2.85 1.75 3.95 5 6.5 1.1 3.55 3.75 6.25 2.8 2.8 6.1 4.65l7.95 4.2" fill="#864cb6"/><path d="m32.85 166.7-1.25-.05-.35-.5L30 164.9v-.05l-3.7-4.2q-6.45-8.2-9.4-18.4-1.85-6.5-2.45-12.95v-.05l-.25-4.1 1.85 2 1.65 1.75 3.65 3.75q.7 14.6 5.35 26.8l.3.5q2.95 3.9 5.85 6.75m13.45-57.35-2.8 4.1q-3.25-1.45-7.2-2.05 1.45-2.4 2.4-3.5 2.25-2.65 4.65-2.65 1.65 0 2.6 2.95l.35 1.15m85.45 32.85q5.9-8.5 9.65-18.6l.05-.1v-.85l-.05-.1-.6-.6-3.9-1.75q-3.55-1.45-7.4-2.45-5.85-1.55-12.3-2.15-12.85-1.2-28.3 1.3l-1.2.2 6.65-4.75q6.5-4.6 8.15-4.6 1.45 0 2.4 2.25t1.7 2.25q24.8 0 42.4-9 4.6-2.35 10.05-6.2 4-2.8 4.95-2.8 4.3 0 8.8 10.65 2.65 6.15 4.2 12.7-16.95 18.85-20 41.95-1.8-9-6.4-17.2l3.5-2.55.35-.65-.2-.75-.65-.4q-.45-.05-.75.25-5.15 4-10 6.1l-.05-5.95 1-.75.35-.65-.2-.75q-.25-.35-.65-.4-.45-.05-.75.25-5 3.9-10.8 6.1" fill="#151034"/><path d="M23.45 107.75h.15l.2-.05.75-.6.25-.85V106l1.25-2.35 2.3-6.4 2.9-7.15.8-1.5.1.05q.3.95 1.25 1.45l1.9.15q.95-.35 1.45-1.25l2.7-5.05q-.6 7.3-.85 14.6v2.7q4.6-6.45 11.3-10.9 11.5-7.6 23.6-14.4 10.05-5.65 20.25-10.9 6.35-3.4 12.35-9.3 3.1 9.15 4.95 16.9.55 2.35.5 4.7 9.1-3.25 15.5-10.9Q136.75 54.8 143.4 41q4.7 2.05 9.1 4.7 8.8 5.35 13.35 13.65l.35 1.25.15.45v.05q1.75 6.55 2.05 13.7.05 1 .85 1.7.75.7 1.8.65 1-.05 1.7-.8.7-.8.65-1.8-.3-6.75-1.8-13.05 4.25-2.4 8.55-7.6 7.65 6.2 12.1 16.4 4.15 9.45 4.15 17.7l-.45 7.4-.55 6.2-7.2 5.55-.65.3q-5.8 4.9-10.55 10.15-1.55-6.55-4.2-12.7-4.5-10.65-8.8-10.65-.95 0-4.95 2.8-5.45 3.85-10.05 6.2-17.6 9-42.4 9-.75 0-1.7-2.25t-2.4-2.25q-1.65 0-8.15 4.6l-6.65 4.75-2.75.5-.2.05-2.55.5q-3.25-15.7-10-28.6l-2.05-3.7-.75-.6-.95.15q-.45.25-.6.75v.05q-13.4 11.85-21.55 23.15l-.35-1.15q-.95-2.95-2.6-2.95-2.4 0-4.65 2.65-.95 1.1-2.4 3.5-5.7-.9-12.9-.2h-.25q-.5.05-.8.45l-.3.65v.15q-1.2 10.6-.7 20.2l-3.65-3.75-1.65-1.75-.2-7 .1-6.3.9-7.35 1.75 1.35q1.45 1.15 2.25 1.15 1.35 0 2.6-1.25" fill="#291c65"/><path d="M14.2 125.15q-.3-10 2.35-20.05 2.6.15 5.9 2.4l1 .25Q22.2 109 20.85 109q-.8 0-2.25-1.15l-1.75-1.35-.9 7.35-.1 6.3.2 7-1.85-2M24.8 106l.1-2.75q.4-7.75 2.15-14.3Q29.7 79 35.6 71.9l.7 6.6.2.6-4.2 7.6q-.45.85-.2 1.8l-.05.1-.8 1.5-2.9 7.15-2.3 6.4L24.8 106m14.65-22.05q6.3-11 14.4-20.15Q62.4 54.1 73 46.55l3.95-2.15q28.25-16.15 28.7-38.25l3.1 1.2q35.1 14.1 49.7 36.25v-.05q4.8 7.4 7.4 15.8-4.55-8.3-13.35-13.65-4.4-2.65-9.1-4.7-6.65 13.8-16.35 25.45-6.4 7.65-15.5 10.9.05-2.35-.5-4.7-1.85-7.75-4.95-16.9-6 5.9-12.35 9.3-10.2 5.25-20.25 10.9-12.1 6.8-23.6 14.4-6.7 4.45-11.3 10.9v-2.7q.25-7.3.85-14.6m140.7-30.05 3-4.1q1.15 2.9 3.05 5.9l.05.15.15.15 4.1 5.15 4.75 5.7q3.2 3.7 5.35 7.95 4.75 9.5 1.65 17.75-.4.95 0 1.9l.65.85-.3.2q-.8.5-.95 1.45v.15l-6.25 4.5.55-6.2.45-7.4q0-8.25-4.15-17.7-4.45-10.2-12.1-16.4m27.5 38.25.45-1.85.75-.35 6-3.85v1.45l.05.3q-3.55 1.95-7.25 4.3" fill="#6f64b2"/><path d="m16.15 102.1-.7.05-.6.1q-.25.1-.45.35l-.2.15-.1.2-.15.3q-2.75 9.8-2.8 19.6l-.9-2.25q-.9-1.85-2.1-2.65-1.25 1.5-2 6.3l-.4 3.15q-4-29.35 5-50.75l5 5.55q4.75 5.7 4.75 6.75l-2.25 6.15q-1.75 4.4-2.1 7" fill="#cff1f5"/><path d="M24.55 86.65q-2.2 7.4-2.65 16.45v.55q-3.15-1.65-5.75-1.55.35-2.6 2.1-7l2.25-6.15q0-1.05-4.75-6.75l-5-5.55.55-1.25.15.05 5.6 4.7 7.5 6.5" fill="#6cd4df"/><path d="m25.2 84.6-.65 2.05-7.5-6.5-5.6-4.7q6.65 1.9 11.5 8.3.55.75 1.5.9l.75-.05" fill="#e9cdff"/><path d="M11.15 122.85v.85l.3 5.85q.6 6.8 2.55 13.55 3.15 10.75 9.95 19.4l3.9 4.45 1.3 1.3.45.3v2.9q-3.9-1-7.25-2.95-8.45-8.45-14.9-31.3-1.05-5-1.7-9.8l.4-3.15q.75-4.8 2-6.3 1.2.8 2.1 2.65l.9 2.25" fill="#13b1f2"/><path d="M29.6 171.45v1.5h-.15q-3.75-1.1-7.1-4.45 3.35 1.95 7.25 2.95" fill="#eacfff"/><path d="m69.75 207.7.7-.15q1.25 0 1.25 1.1 0 .7-1.9 2.8-2.1 2.25-3.45 2.25-1.3 0-1.3-1.45 0-3.15 4.7-4.55" fill="#feb1a9"/><path d="M80.05 209.7q-.75-3-.85-6l5.75.15q-2.75 4.2-4.9 5.85" fill="#fdfdfd"/><path d="m77.9 207.75.85 3.65q.05.3.4.5l.65.1.1-.05 1-.3q1.2 2.45 1.5 5.7-2.25.85-5 1.4h-.05Q66.6 220 59.75 214.2q4.05-6.8 11.3-9.65 4.2.9 6.85 3.2m-8.15-.05q-4.7 1.4-4.7 4.55 0 1.45 1.3 1.45 1.35 0 3.45-2.25 1.9-2.1 1.9-2.8 0-1.1-1.25-1.1l-.7.15" fill="#e26661"/><path d="m74.65 202.9 2.85.55q.05 2.15.4 4.3-2.65-2.3-6.85-3.2l.8-.3 2.15-.8.6-.5.05-.05m6.25 8.75q6.65-2.1 8.6-8.35l3.25-.75q-.15 10.85-10.35 14.8-.3-3.25-1.5-5.7" fill="#c95350"/><path d="M58.7 211.9q.1-8.2-4-12.65 2.35-1.25 4.2-3.15 6.5 4.05 12.8 6l-.55.2q-2.1.75-3.95 1.75-5.15 2.8-8.5 7.85" fill="#932b36"/><path d="M57.8 188.95 56 190.4l-.45.3-.15-.05-.45-.65-1.25-1.7-.7-.85 4.7-.15q1.55.5.1 1.65" fill="#6febfd"/><path d="m54.3 184.5.4.2.05.05.25.1h.05l.7-.15.45-.3h.95q4.6 0 7.9 1.9 2.3 1.35 4.8 4.2-5.1 1.2-9.75 1.2l-4.25-.4.9-.65 1.6-1.2 1.85-1.65-.15-.25h.05l-.1-.1q-3.45-1.9-7.75-.6l-.05.05-.15.05-.05.05-.05.1-.05.15.05.15.05.1.05.05 1.05 1.25 1.3 1.7.1.15-.1.3q-4.6-1.25-8.5-4.6 2.75-1.1 5.55-1.55l2.85-.3" fill="#88c8f2"/><path d="M44.5 185.05q.3-3.65-.6-8.6l.1-.1q3.95 4.6 10.3 8.15l-2.85.3q-2.8.45-5.55 1.55l-1.4-1.3m11.7-.65 1.25-.8.6.1h.15l3.05-.65q7.65.2 17.2 4.6l-.75.3-7.85 2.55q-2.5-2.85-4.8-4.2-3.3-1.9-7.9-1.9h-.95" fill="#4ea3e7"/><path d="M61.25 183.05q20-4.15 35.35-11.6-2.35 3.8-3.9 8.2-6.75 4.9-14.25 8-9.55-4.4-17.2-4.6" fill="#2973c1"/><path d="m38.65 171.35.55 1.8v-.05q.65 2.6.8 5.35l.1 1.7v1.2l-.15 1.1-1.4.95-2.75.45-1.8-.35-.8-.4-2.05-1.6.1-1.15 1.45.3q1.45 0 2.45-1 1-1 1-2.45 0-1.45-1-2.45-1-1-2.45-1l-1.1.2v-5.3q2.5.05 4.5.9 1.25 1 2.55 1.8m-1 10.95q.4.4 1 .4t1-.4q.4-.4.4-1t-.4-1q-.4-.4-1-.4t-1 .4q-.4.4-.4 1t.4 1m64.75-1.15q-.15-4.8 1.25-9.45 6.2-6.1 15-9.5 4.45-1.7 8.6-2.35 5.15 6.6 6.25 13.7l-1.45-.3q-1.2 0-1.35 1.05v1.75h-.15q-1.15 0-2 .65-.75.7-.75 1.65t.75 1.6q.85.7 2 .7l-.1 1.25q-.55 4.05-2.6 6.7l-.85.95-.1.1q-3.15 3-8.65 3-3.4 0-6.65-2.4-2.45-1.85-3.75-4.35l3.1-.45q2.9-.85 4.55-2.9 1.65-2 1.1-3.95-.6-1.95-3.15-2.8l-5.35.15q-2.9.85-4.55 2.85-.95 1.2-1.15 2.35" fill="#19145d"/><path d="M39.95 182.45q-.35 1.55-1.1 3-.6 1.05-1.7 1.55v.05l-2.1.35v-1.05q0-.9-.55-2l-.5-.85 1.8.35 2.75-.45 1.4-.95m-6 6 .2.05.15.05 3.35-.4q1.5-.7 2.25-2.1 1.45-2.75 1.4-5.9l-.05-1.75q-.1-2.4-.6-4.6l.75 1.65.45 1.2.1.25q1.6 8.6-.85 12.5-1 1.65-2.75 2.5l-1.15.4-4.05-.15.35-.3q.95-.85.95-1.65l-.3-1.25-.2-.5M145 176q.05 2.5-.3 5.15l-1.95-1.1q-2.85-1.3-6.3-1.3l-.85.05q.1-2.75-.25-5.35 5.2.15 9.65 2.55m-.9 8.4-.3 1.2-.9 2.75-2.35-2.35q-1.85-1.45-5.4-3.35v-.1l.35-2.6q3.95 1.45 7.55 3.75l1.05.7m-8.6 12.95q-2.9 1.5-5.95 2.5-7.05 2.25-15.35 2-10.65-6.05-11.7-19 .55 1.95 3.1 2.7l2.25.35q1.3 2.5 3.75 4.35 3.25 2.4 6.65 2.4 5.5 0 8.65-3l.1.1q0 1.9 2.3 1.95l-.15.2h.05l-1.95 1.8q-5.75 4.1-15.15 2.9-.4-.05-.7.2l-.35.6q-.05.35.2.65.2.3.6.35 10.3 1.3 16.55-3.3l.05-.05 2-1.9.3-.1q.05.9.9 2.1l1.35 1.4q1.05.65 2.5.8m-2-23.8q.4 2.6.25 5.3l-.4 3.55-.35-.45q-.35-.35-1.3-.35l-1 .2-.25.1.1-1.25q1.15 0 1.9-.7.85-.65.85-1.6 0-.95-.85-1.65-.7-.6-1.75-.65v-1.75q.15-1.05 1.35-1.05l1.45.3" fill="#673aa2"/><path d="m35.05 187.4-.65-.1h-.05q-1.25-.3-2.05-1.4l-.9-1.45-.45-.9.2-2.05 2.05 1.6.8.4.5.85q.55 1.1.55 2v1.05m-1.9 4.75q-1.05-.45-1.75-1.3l-.65-.5-.4-1.05.05-.55.1-1.55.2-1.55.65.95h-.05q.85 1.2 2.05 1.7l.6.15.2.5.3 1.25q0 .8-.95 1.65l-.35.3m111.55-11-.6 3.25-1.05-.7q-3.6-2.3-7.55-3.75l.1-1.15.85-.05q3.45 0 6.3 1.3l1.95 1.1m-1.8 7.2q-2.15 5.2-6.75 8.65l-.65.35q-1.45-.15-2.5-.8l-1.35-1.4q-.85-1.2-.9-2.1v-.25l.4-.5 1.1-1.55 1.5-3.4 1.05-3.3h.05V184l.3-1.35q3.55 1.9 5.4 3.35l2.35 2.35m-9.55-5.95-.15.65-.1.55v-.05l-1.05 3.2-1.4 3.15.05-.05-1.15 1.6-.25.25q-2.3-.05-2.3-1.95v-.2l.85-.95q2.05-2.65 2.6-6.7l.25-.1 1-.2q.95 0 1.3.35l.35.45" fill="#9e67fb"/><path d="M135.35 173.45q-1.1-7.2-6.05-13.85 6.15-.6 11.45 1.35 4.1 7.2 4.25 15.05-4.45-2.4-9.65-2.55" fill="#2920ad"/><path d="M147.6 182.15q1.55-9.95-2.4-19 2.7 1.7 5.15 4.15l.2.15.45.1h.25l.55-.45.05-.05.6.55 3.9 3.8.05.6q.2 9.45 2.55 19.5l-.1.2q-.35.85.05 1.7.4.8 1.3 1.15l1.7-.05q4.25-1.95 8.5-3.85l4.45-.2q-6.35 9.6-16.75 17h-.05q-1.05-1.4-2.9-3-2.1-1.85-3.3-2.2l.8-2.7.35-3.15q0-4.95-1.55-8.9l-.65-1.45q-1.35-2.55-3.2-3.9" fill="#a8c3d0"/><path d="M124.35 151.45q3.35-3.65 6.25-7.65l.5.45.75.05q4.75-1.7 8.95-4.5l.05 6.05q0 .4.3.7l.7.25.5-.1q3.2-1.25 6.55-3.25 5.6 10 6.85 21.15l.4.7.3.15-.1 5.95-3.9-3.8-.6-.55.05-.4v-.15l-.05-.15q-2.9-11-11.5-14.25-6.4-2.5-16-.65" fill="#1d51ae"/><path d="m84.95 203.85 2.6-.25q-1.9 4.85-7.4 6.5l-.1-.4q2.15-1.65 4.9-5.85" fill="#bbc7ce"/><path d="m176.4 121.9 1.25-1.45q4.6-5.4 10.45-10.4l.45.1q.6.05 1.1-.3l5.75-4.5 7.95-5.8h.1q.9.15 1.7-.35 4.9-3.4 9.5-6.05l10.3.9-8.3 19.95-1.9 4.25-34.3 24.8-4.05-21.15" fill="#fffff8"/><path d="M242.35 83.65q-1 13.1-3.45 25.75-5.2-6.75-15.2.4l3.75-15.25 14.9-10.9" fill="#c4f6ea"/><path d="M217.7 91.45q12.45-6.85 22.2-8.2-5.25 2.85-12.6 8.9l-5.4-.25-4.2-.45" fill="#fffff6"/><path d="M160.05 185.35q-5.35-30.6 10.05-54.8l3.1 10.25q-7.95 13.3-11.3 31.15-1.25 6.4-1.85 13.4m13.75-42.8 1.65 6.25q-6.85 9.7-10.25 20.25 1.85-12.8 8.6-26.5" fill="#8bfffb"/><path d="m169.75 186.15-.85.2-.35.2q-2.65-5.4-4.6-15.25l-2.05.65q3.35-17.85 11.3-31.15l-3.1-10.25q2.8-4.45 6.3-8.65l4.05 21.15 34.3-24.8-14.3 42.55 11.05 13.7-.9.7-12.65-12.65-26.75 6.75-1.45 16.85m4.05-43.6q-6.75 13.7-8.6 26.5 3.4-10.55 10.25-20.25l-1.65-6.25" fill="#7fdcf1"/><path d="M170.5 186.15h-.75l1.45-16.85 26.75-6.75 12.65 12.65q-5.8 4.15-15.9 6.5l-24.2 4.45m-1.95.4-7.6 3.45-.9-4.65q.6-7 1.85-13.4l2.05-.65q1.95 9.85 4.6 15.25" fill="#10a3ef"/><path d="m239.9 83.25 2.5-.3-.05.7-14.9 10.9-3.75 15.25q10-7.15 15.2-.4-2.6 13.3-6.75 26.1l-2.35 4.7-5.65 12.05q-1.65 3.45-4.65 10.7-2.75 6.2-5.6 9.3l-2.4 2.25-11.05-13.7 14.3-42.55.2-.2 1.7-4.05 8.3-19.95-10.3-.9q1.55-.9 3.05-1.7l4.2.45 5.4.25q7.35-6.05 12.6-8.9" fill="#61cfdc"/><path d="M232.15 135.5q-7.15 21.7-18.9 42-13.55 7.45-42.75 8.65l24.2-4.45q10.1-2.35 15.9-6.5l.9-.7 2.4-2.25q2.85-3.1 5.6-9.3 3-7.25 4.65-10.7l5.65-12.05 2.35-4.7" fill="#e6c4ff"/></g><g id="h" fill-rule="evenodd"><path d="m5.05.1.9-.1.2.05L7 .4Q14.2 4.1 21 12l.45.35q.7.6.8 1.5v.4l1.25 2.6Q30 31.05 34.7 48.7l.05.1-.05 1.2-.15.4-2.15 3.95Q26.3 65.2 20 71.75q-.55.5-1.2.6l-.3.05h-.1q-.95 0-1.6-.6l-.4-.5L.5 50.7l-.4-.75-.1-.8 3.5-46.9V2.1l.05-.2q.05-.65.5-1.1.3-.4.8-.6l.2-.1m11.8 13.95q-4.5-5-9.1-8l-.35 4.7-2.4 32-.4 5.9 13.9 18q4.4-5.05 8.7-12.3l.8-1.3 2.05-3.75.1-.2-2.4-8.4q-4.05-13-9.25-23.85l-1-2.05-.65-.75m-1.1 4.65.55-1.75.1-.1q.05-.1.2-.1l.35.05.1.05.15.25-.05.35-.55 1.9-1 3.6-1.5 5.3.2.35-.05.35 1.95 8.75v.2q.15 1.95 1.05 6.05l.35 1.65 1.9 8.75.45 2.1-.05.4-.35.2-.35-.05-.25-.35-.5-2.25v-.05l-.05-.2-1.45-6.8-.35-1.55h.05q-1.25-5.45-1.45-7.9l-2.4-10.45v.05q-.75-2.05-3.6-4.75l-.3-.3-.6-.5-.2-.35q0-.25.15-.35.1-.2.35-.2l.35.15.15.1 1.4 1.35q2.4 2.35 3.15 4.25l1-4.2.65-2.25.45-1.75" fill="#0d71be"/><path d="m10.75 13.1 4.1 1.45 2.6 1.3.05.2L20.4 24l-3.05 4.3 5.8 17.4 3.9-4.4.4 1.15 2.55 6.7.05.15L28 53.05 18.65 61 7.4 44.6l3.95 3 2.75 2.05q.9 1.95 2.35 3.2l1.95 1.3.05.2v.05l.5 2.25.25.35.35.05.35-.2.05-.4-.45-2.1-1.9-8.75-.35-1.65q-.9-4.1-1.05-6.05v-.2l-1.95-8.75.05-.35-.2-.35 1.5-5.3 1-3.6.55-1.9.05-.35-.15-.25-.1-.05-.35-.05q-.15 0-.2.1l-.1.1-.55 1.75-5.3-4.3.3-1.3m-.25 9.55 2.9.55 1.9-2.75-.65 2.25-1 4.2q-.75-1.9-3.15-4.25" fill="#0fa6f1"/><path d="m10.45 14.4 5.3 4.3-.45 1.75-1.9 2.75-2.9-.55-1.4-1.35v-.1l.8-4.2.55-2.6m3.65 35.25-2.75-2.05-3.95-3-.25-.4L8.55 32l1.35 1 1.55 1.3 1.85 12.95.8 2.4m12.95-8.35-3.9 4.4-5.8-17.4L20.4 24l1 2.4q3 7.35 5.65 14.9" fill="#60e2f9"/><path d="m18.4 54.15-1.95-1.3.5-5.5 1.45 6.8" fill="#5fdff9"/><path d="m28 53.05-.8 1.3q-4.3 7.25-8.7 12.3l-13.9-18 .4-5.9 2.05 1.55.05.05.3.25L18.65 61 28 53.05" fill="#21fffa"/><path d="m7.4 10.75.85.75 1.25 1.05.3.25.4.15.55.15-.3 1.3L9.9 17l-.8 4.2v.05l-.15-.05-.35-.15q-.25 0-.35.2-.15.1-.15.35l.2.35.6.5.3.3q2.85 2.7 3.6 4.75v-.05l2.4 10.45q.2 2.45 1.45 7.9h-.05l.35 1.55-.5 5.5Q15 51.6 14.1 49.65l-.8-2.4-1.85-12.95L9.9 33l-1.35-1-1.4 12.2-.1.1L5 42.75l2.4-32" fill="#fffffa"/><path d="m7.4 10.75.35-4.7q4.6 3 9.1 8l.6 1.8-2.6-1.3-4.1-1.45-.55-.15-.4-.15-.3-.25-1.25-1.05-.85-.75" fill="#c7ffef"/><path d="m17.45 15.85-.6-1.8.65.75 1 2.05q5.2 10.85 9.25 23.85l2.4 8.4-.15.05-2.55-6.7-.4-1.15q-2.65-7.55-5.65-14.9l-1-2.4-2.9-7.95-.05-.2" fill="#e7c9ff"/></g><path d="M19.6-3.5q8.15 1.45 8.15 3.5 0 2-8.15 3.4Q11.5 4.9 0 4.9q-11.5 0-19.65-1.5-8.1-1.4-8.1-3.4 0-2.05 8.1-3.5Q-11.5-4.9 0-4.9q11.5 0 19.6 1.4" fill-opacity=".349" fill-rule="evenodd" transform="translate(27.75 4.9)" id="i"/></defs></svg>