<svg xmlns:ffdec="https://www.free-decompiler.com/flash" xmlns:xlink="http://www.w3.org/1999/xlink" ffdec:objectType="frame" height="90" width="90" xmlns="http://www.w3.org/2000/svg"><use ffdec:characterId="17" height="84.85" transform="translate(7.6 2.5)" width="82.55" xlink:href="#a"/><defs><g id="a" transform="translate(-7.6 -2.5)"><use ffdec:characterId="2" height="29.1" transform="matrix(.3631 0 0 .5614 19.166 70.99)" width="144.15" xlink:href="#b"/><use ffdec:characterId="7" height="41.2" transform="translate(59.838 49.863) scale(.5871)" width="49.45" xlink:href="#c"/><use ffdec:characterId="8" height="23.1" transform="translate(31.61 69.919) scale(.5871)" width="18.7" xlink:href="#d"/><use ffdec:characterId="9" height="45.75" transform="translate(31.653 55.031) scale(.5871)" width="57.95" xlink:href="#e"/><use ffdec:characterId="10" height="24.8" transform="translate(41.261 71.813) scale(.5871)" width="20.9" xlink:href="#f"/><use ffdec:characterId="11" height="30.65" transform="translate(55.214 61.023) scale(.5871)" width="19.7" xlink:href="#g"/><use ffdec:characterId="12" height="133" transform="translate(9.26 2.507) scale(.5871)" width="120.9" xlink:href="#h"/><use ffdec:characterId="13" height="40.9" transform="translate(27.606 30.072) scale(.5871)" width="40.15" xlink:href="#i"/></g><g id="k"><path d="M6.15 2.15 4.7-.1 5-.65h.1L6.15-.8l1-.15 1 1.1-2 2m10.2-10.2.75 3.15q0 .7-1.15 3.05L15 0l-1.55-.8q-.3 0-1.45 1.6l-.5.7L9.85.25l-.3-.3-.1-1.9L11.4-3.5l.8.7.75.8.9-1.2q-.3-.1-.75-1.05l-.3-.7.05-.05.8-.35q-.25-.35-.25-1.35 1-.4 1.4-.75.7-.6.4-1.7l1.15 1.1m-.95 10.8.05-.15.1-.2Q15 1.85 14.7 1q.35.45 2.6 1.2l.15.05-.2.3L17 4.3l-1.6-1.55m.95 2.8-1.1 1.05-.8.45q-.15-.35-.15-1 0-1.1 1.2-1.1l.85.6m-5-.25-1.1 1.35-.45-.05.1-1.35 1.45.05" fill="#1a56db" fill-rule="evenodd" transform="translate(20.8 14.2)"/><path d="M9.25-7.35 9.8-8.4l.35-.75.65 1.5.6 1.75-1.1-.8q-.8-.45-1.05-.65m0 3.8-.1-.15.3-1.75.1-.5 1.9.75-1 .95L9.4-3.2l-.05-.05-.1-.3M9-2.15l-.75.3-1.1.8v-.05l.2-2 .05-1.55.4-.55 1.15-1.75q-.1 2.15-.6 3.85l.65.75v.2m2.05-8.45.95-.1 2.05-.25.15 2.15-.75.95q-.75.85-.75 1.2 0 .75.15 1.05l-.4.15-1.05-2.3q-.55-1.2-.35-2.55v-.3M12.9 5.15l-.05.05-.2.05-.9.05h-.4L9.9 5.25v-1.1l.9-.75.55-.55L12.5 1.5q-.15.6.8 2.3l-.4 1.35M13.3.9l.05-.05.05-.05 1.2 1.55-.95 1.15-.3-.85q-.3-.55-.3-1l.2-.7.05-.05M6.35 2.4 8.2 1.3l.55 1h.05L9 .75V.7l.5.4 1.35 1.25-1 1.25-.35-1.3-.05-.15L9.4 2l-.25.65-.95 1L6.35 2.4" fill="#4ec6f8" fill-rule="evenodd" transform="translate(20.8 14.2)"/><path d="M9.45-1.95v-.4l-.45.2v-.2l.05.05 2.55-1.9 1.2-.75.3.7q.45.95.75 1.05l-.9 1.2-.75-.8-.8-.7-1.95 1.55M17 4.3l-.2.45-.45.8-.85-.6q-1.2 0-1.2 1.1 0 .65.15 1l-1.35.35h-.45l-.35-.05-.5-.25q-.85-.4-1.55-.45l1.1-1.35h.4l.9-.05.2-.05.05-.05.95-.95 1.55-1.45L17 4.3" fill="#007edb" fill-rule="evenodd" transform="translate(20.8 14.2)"/><path d="m6.2 5.4-.3-.65-.65-1.55 1.05-.8h.05L8.2 3.65l-.45.45L6.2 5.4M7.4-4.65 7.35-3.1l-.2 2v.05l1.1-.8.75-.3.45-.2v.4l.1 1.9L8.9-.6l-.75.75-1-1.1-1 .15-1.05.15H5l2.4-4" fill="#0081d9" fill-rule="evenodd" transform="translate(20.8 14.2)"/><path d="m17.6 1.2.1.05.5.2-.75.8-.15-.05q-2.25-.75-2.6-1.2.3.85.85 1.4l-.1.2-.05.15-1.55 1.45-.95.95.4-1.35q-.95-1.7-.8-2.3l-1.15 1.35-.55.55-.9.75-.05-.55 1-1.25.65-.85.5-.7q1.15-1.6 1.45-1.6L15 0l.45.2 2.15 1M6.05 2.25l.1-.1 2-2L8.9-.6l.65.55.3.3L11.5 1.5l-.65.85L9.5 1.1 9 .7v.05L8.8 2.3h-.05l-.55-1-1.85 1.1-.3-.15M4.35-.6 4.3-.7l4-11.2 6.4-1.15 1.05 3.2.6 1.8-1.15-1.1q.3 1.1-.4 1.7-.4.35-1.4.75 0 1 .25 1.35l-.8.35-.05.05-1.2.75-2.55 1.9L9-2.35l-.65-.75q.5-1.7.6-3.85L7.8-5.2l-.4.55-2.4 4-.65.05m4.9-6.75q.25.2 1.05.65l1.1.8-.6-1.75-.65-1.5-.35.75-.55 1.05m0 3.8.1.3.05.05 1.05-1.05 1-.95-1.9-.75-.1.5-.3 1.75.1.15m1.8-7.05v.3q-.2 1.35.35 2.55l1.05 2.3.4-.15q-.15-.3-.15-1.05 0-.35.75-1.2l.75-.95-.15-2.15-2.05.25-.95.1M13.3.9l-.05.05-.2.7q0 .45.3 1l.3.85.95-1.15L13.4.8l-.05.05-.05.05" fill="#fff" fill-rule="evenodd" transform="translate(20.8 14.2)"/><path d="m14.7-13.05.8-.15 4.3 8.1-2.2 6.3-2.15-1L15 0l.95-1.85Q17.1-4.2 17.1-4.9l-.75-3.15-.6-1.8-1.05-3.2m4 15.7v.25l-.45 3.2q-.3 1.05-1.55 1.75l-2.4 1.4L11.35 9l.95-1.2q.45-.15 0-.45l.35.05h.45l1.35-.35.8-.45 1.1-1.05.45-.8.2-.45.25-1.75.2-.3 1.25.4m-11.9 4L6.2 5.4l1.55-1.3.45-.45.4.35-.05.05-1.75 2.6" fill="#ffb2f3" fill-rule="evenodd" transform="translate(20.8 14.2)"/><path d="m-6.2 5.6.8.7q2.25 1.5 4.1 1.9 5.15 1.3 8.1-1.55l1.75-2.6L8.6 4l.55-1.35.35-.35.35 1.3.05.55v1.1L9.8 6.6l.45.05-.35.3L8.25 8.1q-3.05 2-5.3 2-3.85 0-7.35-2.85L-6.2 5.6" fill="#e8e8e8" fill-rule="evenodd" transform="translate(20.8 14.2)"/><path d="M11.35 9q-4 4.7-9.85 4.15-1.65-.6-2.9-1.35-2.3-1.35-3.35-2.4L-6.7 7.6l-1.8-1.35-2.95-1.6-1.95-.8-1.2-.45-1.75-.65q-1.25-.55-1.8-1.7t-.15-2.1Q-13.85-1-6.2 5.6l1.8 1.65q3.5 2.85 7.35 2.85 2.25 0 5.3-2L9.9 6.95l2.4.4q.45.3 0 .45L11.35 9" fill="#b2c1ec" fill-rule="evenodd" transform="translate(20.8 14.2)"/><path d="M1.5 13.15q-2.5-.2-5.3-1.35-11.6-7.1-13.55-6.7-3.45-2.3-2.45-6l1.5-.15q-.4.95.15 2.1.55 1.15 1.8 1.7l1.75.65 1.2.45 1.95.8 2.95 1.6 1.8 1.35 1.95 1.8q1.05 1.05 3.35 2.4 1.25.75 2.9 1.35" fill="#f19b8c" fill-rule="evenodd" transform="translate(20.8 14.2)"/><path d="M-17.35 5.1q-3.45-2.3-2.45-6m32.1 8.25q.45.3 0 .45L11.35 9m-1.1-2.35q.7.05 1.55.45l.5.25m-2.4-3.2v1.1L9.8 6.6l.45.05m-.4-3.05.05.55m-.75-1.5L9.4 2l.05.15m.05.15.35 1.3M8.6 4l.55-1.35m-2.35 4 1.75-2.6" fill="none" stroke="#473b7d" stroke-linecap="round" stroke-linejoin="round" transform="translate(20.8 14.2)"/><path d="m18.7 1.6.1.1M15 0l.45.2 2.15 1M8.15.15 8.9-.6l.65.55.3.3L11.5 1.5l.5-.7q1.15-1.6 1.45-1.6L15 0m-4.15 2.35.65-.85m-.65.85-1 1.25m-3.7-1.45 2-2" fill="none" stroke="#0e2873" stroke-linecap="round" stroke-linejoin="round" transform="translate(20.8 14.2)"/><path d="m35.5 1.15.8-.15 4.3 8.1-2.2 6.3.1.05.5.2.5.15m.1.1-.1.95v.25l-.45 3.2q-.3 1.05-1.55 1.75l-2.4 1.4-2.95-.25m-4.55-2.35L27 19.6l-.3-.65-.65-1.55-.05-.15.85-.8.1-.1-1.45-2.25-.35-.5-.05-.1 4-11.2 6.4-1.15" fill="none" stroke="#0e2873" stroke-linecap="round" stroke-linejoin="round" stroke-width="2"/><path d="M32.15 23.2q-4 4.7-9.85 4.15-2.5-.2-5.3-1.35-11.6-7.1-13.55-6.7M1 13.3l1.5-.15q4.45.05 12.1 6.65l.8.7q2.25 1.5 4.1 1.9 5.15 1.3 8.1-1.55" fill="none" stroke="#473b7d" stroke-linecap="round" stroke-linejoin="round" stroke-width="2"/></g><g id="d"><path d="m4.65-5 2.8 2.85-1.6 2.9-2.15 2.7q-.85.85-2.45 1.2l-.4.1-1.1.1-2.35.2-.25-.05q.9-.65.9-1.35l-.5-1.4h.4q3.85 0 6.7-7.25" fill="#b3c2ed" fill-rule="evenodd" transform="translate(9.35 11.55)"/><path d="m7.45-2.15.9 1.1Q6.45 2.7 3.9 5.6L.4 5.55l-3-.5 2.35-.2 1.1-.1.4-.1q1.6-.35 2.45-1.2L5.85.75l1.6-2.9" fill="#ed9e91" fill-rule="evenodd" transform="translate(9.35 11.55)"/><path d="M-8.35-10.55h.45q6.65.2 12.55 5.55-2.85 7.25-6.7 7.25h-.4l.5 1.4q0 .7-.9 1.35l-3.1-1q-2.25-5.9-2.4-14.55" fill="#eaeaea" fill-rule="evenodd" transform="translate(9.35 11.55)"/><path d="m-2.95 9.45-2-3.25q.55.15.2-.15l3.15.4q-.7 1-1.35 3" fill="#8ea7c6" fill-rule="evenodd" transform="translate(9.35 11.55)"/><path d="m-2.25 10.3-.7-.85q.65-2 1.35-3l-3.15-.4q.35.3-.2.15l-1-2.2 3.1 1-.2.1.45-.05 3 .5-1.05 1.9-1.6 2.85" fill="#205d8a" fill-rule="evenodd" transform="translate(9.35 11.55)"/><path d="M3.9 5.6q-2.65 2.9-5.95 4.95l-.2-.25 1.6-2.85L.4 5.55l3.5.05" fill="#b68c73" fill-rule="evenodd" transform="translate(9.35 11.55)"/><path d="M17.7 10.5q-1.9 3.75-4.45 6.65m-9.85-1.6Q1.15 9.65 1 1" fill="none" stroke="#473b7b" stroke-linecap="round" stroke-linejoin="round" stroke-width="2"/><path d="m-2.6 5.05 3 .5 3.5.05m-6.5-.55L-2.85 5l-3.1-1" fill="none" stroke="#0f4b56" stroke-linecap="round" stroke-linejoin="round" transform="translate(9.35 11.55)"/><path d="M13.25 17.15q-2.65 2.9-5.95 4.95l-.2-.25-.7-.85-2-3.25-1-2.2" fill="none" stroke="#0f4b56" stroke-linecap="round" stroke-linejoin="round" stroke-width="2"/></g><g id="e"><path d="M-18.05 17.8q-2.05-2.25-2.05-3.7l4.65-4.85 4.65-4.75 2.15 1.6q1.65 1 3.05 1 1.45 0 4.6-1.2 3.1-1.2 3.7-1.2 2.75 0 4.65 1.55Q8.3 7 8.9 8.1L6.3 6q.65.8 1.25 2.85.55 2 .2 5.85l-.85 2.8-2.7 2.65-3.3 1.2-1.4-1.95q-.85-1-3-.6-2.2.35-5.3-2.25-3.1-2.6-2.7-1.8.4.75 0 4.15l-5.15-.7-1.4-.4" fill="#eaeaea" fill-rule="evenodd" transform="translate(28.95 22.6)"/><path d="M13.9 8.2q.95-.4 2.15-.6 1.9-.4 4.1-1.65Q13.25 15.3 6 19.3l.9-1.8 3.1-3.6 1.6-2.15 2.1-3.25q.5-.25.2-.3m13-12.95-.25-.95q-1.95-6.85-5.45-11.1l-1.95-3.3q7.15 4.5 9.25 12.5l-1.6 2.85M-17.7 18.2l-.35-.4 1.4.4 5.15.7 2.8-.2 3 2.1 2.05 1.35-2.55-.05q-6.9-.8-11.5-3.9" fill="#ef9c8e" fill-rule="evenodd" transform="translate(28.95 22.6)"/><path d="M6.75-21.2q1.7 1.2 3 3.75 2.05 3.9 2.05 7.8 0 1.05-.7 3.75t-.7 4.45q0 2.1.5 3.35.55 1.4 2.1 2.6 3.25-5.4 7.6-7.55 2.6-1.25 6.15-1.45-3.25 5.85-6.6 10.45-2.2 1.25-4.1 1.65-1.2.2-2.15.6-1.25.8-.5.45l-2.9 2.55q-.05-1.6-1.6-3.1Q8.3 7 7.35 6.25 5.45 4.7 2.7 4.7q-.6 0-3.7 1.2-3.15 1.2-4.6 1.2-1.4 0-3.05-1l-2.15-1.6-4.65 4.75-4.65 4.85q0 1.45 2.05 3.7l-.35-.1q-4.35-3.2-6.45-8.55l1.35 1.45 1.2 1.1 1.2 1q6.15-7.65 10.9-11.1v-3.85q.2-8.65 2.55-11.15l6.35-3.8q4.25-2.8 8.05-4" fill="#b3c0ed" fill-rule="evenodd" transform="translate(28.95 22.6)"/><path d="M26.75-4.5q-3.55.2-6.15 1.45Q16.25-.9 13 4.5q-1.55-1.2-2.1-2.6-.5-1.25-.5-3.35 0-1.75.7-4.45t.7-3.75q0-3.9-2.05-7.8-1.3-2.55-3-3.75 7-2.25 12.5 1.1l1.95 3.3q3.5 4.25 5.45 11.1l.25.95-.15.25M8.9 8.1q1.55 1.5 1.6 3.1l2.9-2.55.3-.15-2.1 3.25L10 13.9l-3.1 3.6.85-2.8q.35-3.85-.2-5.85Q6.95 6.8 6.3 6l2.6 2.1" fill="#8592e0" fill-rule="evenodd" transform="translate(28.95 22.6)"/><path d="M-11.5 18.9q.4-3.4 0-4.15-.4-.8 2.7 1.8t5.3 2.25q2.15-.4 3 .6l1.4 1.95-4.55.8-2.05-1.35-3-2.1-2.8.2" fill="#b1c3eb" fill-rule="evenodd" transform="translate(28.95 22.6)"/><path d="m-28.4 2.35.3-.2q.9-.45 1.65-.45.75 0 1.95.7 1.25.7 1.3 1.35l-2.05.35-.05-.15-.25-.1-.75.05q-.4.4-.4.8l.1.2-.7.75q-.85-1.7-1.1-3.3m5.7 3.85h.3v1.2l-1.15 1.1-.05.05q-.95-.1-1.65-.65l-.6-.5 2.25-.65.9-.55" fill="#aa4501" fill-rule="evenodd" transform="translate(28.95 22.6)"/><path d="M-23.2 3.75v.05l-.3.5-.3.9.25.8.85.2-.9.55-2.25.65-.85-.75-.6-1 .7-.75.2.3.6.4q.6 0 .6-1.1l-.05-.4 2.05-.35m-1.5 2.15h-.6l-.1.5.3.4.4.3q.4 0 .4-.55l-.05-.45-.1-.1-.25-.1" fill="#ff6700" fill-rule="evenodd" transform="translate(28.95 22.6)"/><path d="m-28.35 2 .05-.05q1.25-1.55 2.6-2l2.4-.55q1-.1 2.1 1.2.9 1.1 1 2.4v.25q0 2.2-.8 3.7-.85 1.5-2.1 1.6h-.5l.05-.05 1.15-1.1V6.2h-.3l-.85-.2-.25-.8.3-.9.3-.5v-.05q-.05-.65-1.3-1.35-1.2-.7-1.95-.7t-1.65.45l-.3.2-.05-.25.1-.1" fill="#ffdc80" fill-rule="evenodd" transform="translate(28.95 22.6)"/><path d="m-26.6 4.9-.1-.2q0-.4.4-.8l.75-.05.25.1.05.15.05.4q0 1.1-.6 1.1l-.6-.4-.2-.3m1.9 1 .25.1.1.1.05.45q0 .55-.4.55l-.4-.3-.3-.4.1-.5h.6" fill="#fefeff" fill-rule="evenodd" transform="translate(28.95 22.6)"/><path d="m-16.6 1.95-.2-.85-1.45 1.05-.1.1-1.55.75h-.3q-.1-1.3-1-2.4-1.1-1.3-2.1-1.2l-2.4.55q-1.35.45-2.6 2l-.05.05Q-28.4-.2-16.6-7.8q.05 3.3 2.45 7.3l-2.45 2.45" fill="#046791" fill-rule="evenodd" transform="translate(28.95 22.6)"/><path d="M-10.2 1v.6q-4.75 3.45-10.9 11.1l-1.2-1-1.2-1.1 4.7-5 .5.2.25 1.15.8-.85.05-.1.6-.6h.05q.3-.35.6-.55h.05l2.05-1.8Q-11 .75-10.2 1m-4.65.65.1-.05 1.2-1.15.85 1.25-1.25 1.2-.25-.35-.65-.9" fill="#247682" fill-rule="evenodd" transform="translate(28.95 22.6)"/><path d="m-16.6 1.95-.6.55-.1.25.2.85.05.2-1.25 1.3-.05-2.85.1-.1 1.45-1.05.2.85" fill="#0594d6" fill-rule="evenodd" transform="translate(28.95 22.6)"/><path d="m-23.5 10.6-1.35-1.45-.1-.15 1.35-.45h.5q1.25-.1 2.1-1.6.8-1.5.8-3.7V3h.3l1.55-.75.05 2.85-.5.5-4.7 5" fill="#47c5ff" fill-rule="evenodd" transform="translate(28.95 22.6)"/><path d="m-17.05 3.8.75-.75 1.45-1.4.65.9.25.35-2 1.9v.05q-.3.2-.6.55h-.05v-.8l-.45-.8m-1.25 2 .4.2h.7l-.05.1-.8.85-.25-1.15" fill="#2fc7d2" fill-rule="evenodd" transform="translate(28.95 22.6)"/><path d="M-10.2-2.25V1q-.8-.25-3.65 2.05l-2.05 1.8-.05-.05 2-1.9 1.25-1.2-.85-1.25 3.35-2.7" fill="#ebb672" fill-rule="evenodd" transform="translate(28.95 22.6)"/><path d="m-18.3 5.1 1.25-1.3.45.8v.8l-.6.6h-.7l-.4-.2v-.7" fill="#adf0f6" fill-rule="evenodd" transform="translate(28.95 22.6)"/><path d="M-7.65-13.4Q-10-10.9-10.2-2.25l-3.35 2.7-1.2 1.15-.1.05-1.45 1.4-.75.75-.05-.2-.2-.85.1-.25.6-.55 2.45-2.45q-2.4-4-2.45-7.3l8.95-5.6" fill="#b35259" fill-rule="evenodd" transform="translate(28.95 22.6)"/><path d="m-1.3-17.2-6.35 3.8Q-10-10.9-10.2-2.25V1.6q-4.75 3.45-10.9 11.1l-1.2-1-1.2-1.1-1.35-1.45-.1-.15-1.3-1.65-.45-.7.85.75.6.5q.7.55 1.65.65h.5q1.25-.1 2.1-1.6.8-1.5.8-3.7V3q-.1-1.3-1-2.4-1.1-1.3-2.1-1.2l-2.4.55q-1.35.45-2.6 2l-.05.05-.1.1.05.25q.25 1.6 1.1 3.3l.6 1m8.4-1.55 1.25-1.3.75-.75 1.45-1.4m.1-.05 1.2-1.15 3.35-2.7m-8.1 7.35-.5.5-4.7 5m6.9-18.4Q-28.4-.2-28.35 2m11.75-9.8 8.95-5.6" fill="none" stroke="#104c56" stroke-linecap="round" stroke-linejoin="round" transform="translate(28.95 22.6)"/><path d="M6.75-21.2q-3.8 1.2-8.05 4m20.55-2.9q-5.5-3.35-12.5-1.1M26.9-4.75l1.6-2.85q-2.1-8-9.25-12.5" fill="none" stroke="#483c7a" stroke-linecap="round" stroke-linejoin="round" transform="translate(28.95 22.6)"/><path d="M4.1 31.75q2.1 5.35 6.45 8.55l.7.5q4.6 3.1 11.5 3.9l2.55.05 4.55-.8 3.3-1.2 1.8-.85q7.25-4 14.15-13.35 3.35-4.6 6.6-10.45l.15-.25" fill="none" stroke="#483c7a" stroke-linecap="round" stroke-linejoin="round" stroke-width="2"/><path d="M4.25 28.5h-.6l-.1.5.3.4.4.3q.4 0 .4-.55l-.05-.45-.1-.1-.25-.1z" fill="none" stroke="red" stroke-linecap="round" stroke-linejoin="round" stroke-width=".05"/></g><g id="f"><path d="m6.3-11.1.1.5.45 4.5q0 3.25-1.3 5.5l-.5.7Q3.1 2.7-.25 2.7q-1.6 0-5.65-2.4-1.05-.65-3.65-3.65.2 1.5-.65 1.05l.9-1.45Q-7.65-6-5.2-8.05q4.7-3.85 9.5-3.85 1.05 0 2 .8" fill="#eaeaea" fill-rule="evenodd" transform="translate(10.2 11.9)"/><path d="M5.6 2.55Q1.95 4.1-3.25 4.1L-4.9 4l-4.65-7.35q2.6 3 3.65 3.65 4.05 2.4 5.65 2.4 3.35 0 5.3-2.6l.5-.7q1.3-2.25 1.3-5.5l-.45-4.5-.1-.5-.05-.2h.2l1.2.5.35.2.15 3.4q0 3.35-1 6.3l-.1.3-1.1 2.5-.35.65" fill="#b1c3eb" fill-rule="evenodd" transform="translate(10.2 11.9)"/><path d="m-4.9 4 1.65.1q5.2 0 8.85-1.55-1.65 2.65-3.8 3.7h-.3l-5.15-.55L-4.9 4" fill="#8592e0" fill-rule="evenodd" transform="translate(10.2 11.9)"/><path d="m-3.65 5.7 5.15.55.05.1.5 1.15-.9 2.8v.05q-2.6-1.9-4.8-4.65" fill="#8ea7c6" fill-rule="evenodd" transform="translate(10.2 11.9)"/><path d="m1.95 10.9-.8-.55v-.05l.9-2.8-.5-1.15.25-.1 3.1-.5-1.35 2.7-1.6 2.45" fill="#205d8a" fill-rule="evenodd" transform="translate(10.2 11.9)"/><path d="M8.4 4.1q-1.55 4.55-4.85 7.8l-1.6-1 1.6-2.45 1.35-2.7q1.9-.6 3.5-1.65" fill="#b68c73" fill-rule="evenodd" transform="translate(10.2 11.9)"/><path d="m5.6 2.55.35-.65 1.1-2.5.1-.3q1-2.95 1-6.3L8-10.6l-.05-1h.1l.65 1 .55.9.3.5.6 1.4.05 1.95-.05.3v.05L9.6-.6 8.4 4.1Q6.8 5.15 4.9 5.75l-3.1.5q2.15-1.05 3.8-3.7" fill="#ed9e91" fill-rule="evenodd" transform="translate(10.2 11.9)"/><path d="m-3.65 5.7 5.15.55h.3l3.1-.5q1.9-.6 3.5-1.65" fill="none" stroke="#0f4b56" stroke-linecap="round" stroke-linejoin="round" transform="translate(10.2 11.9)"/><path d="M18.6 16q-1.55 4.55-4.85 7.8l-1.6-1-.8-.55q-2.6-1.9-4.8-4.65" fill="none" stroke="#0f4b56" stroke-linecap="round" stroke-linejoin="round" stroke-width="2"/><path d="m5.3 15.9 1.25 1.7m13.25-6.3L18.6 16" fill="none" stroke="#473b7b" stroke-linecap="round" stroke-linejoin="round" stroke-width="2"/><path d="M-9.55-3.35-4.9 4m15.1-9.85-.05.3v.05L9.6-.6" fill="none" stroke="#473b7b" stroke-linecap="round" stroke-linejoin="round" transform="translate(10.2 11.9)"/></g><g id="g"><path d="m-7.45 6.45 1.25.7.15.05q2.7 1.3 5.15 1.3 1.3 0 2.3-.75l1.5-1.6.8-2.65L4 .2l-.15-2.85Q3.4-4.55 3.1-6.7q-.15-1-1.25-3.35l-.55-1.1-.5-1.05.55-1.05q.5-.75 1.95-1.4Q6.5-8 6.5-.85q0 5.1-1.3 7.4-.9 1.5-4.55 4.95l-3.05 1.15q-2.5-1.5-4.2-4.05L-8.05 6l.6.45" fill="#8494e2" fill-rule="evenodd" transform="translate(9.6 14.95)"/><path d="m1.3-11.15.55 1.1Q2.95-7.7 3.1-6.7q.3 2.15.75 4.05L4 .2l-.3 3.3-.8 2.65-1.5 1.6q-1 .75-2.3.75-2.45 0-5.15-1.3l-.15-.05-1.25-.7Q-8.2 2.35-7.8-.8q.9-8.2 9.1-10.35" fill="#b2c1ec" fill-rule="evenodd" transform="translate(9.6 14.95)"/><path d="m5.1 14.7-1.25-.1Q1.4 14.3-.6 13.5q2.2-.45 3.2-1.5.95-1.05 1.85 2.6.15-.7.65.1" fill="#8fa7c9" fill-rule="evenodd" transform="translate(9.6 14.95)"/><path d="m-.6 13.5-.55-.25 1.8-1.75q2.75-1.3 5.1-3.4l-1.3 6.5q-.9-3.65-1.85-2.6-1 1.05-3.2 1.5" fill="#1f5c88" fill-rule="evenodd" transform="translate(9.6 14.95)"/><path d="M8.65 4.9q-.7 4.65-2.55 9.8h-1q-.5-.8-.65-.1l1.3-6.5 2.9-3.2" fill="#b68c73" fill-rule="evenodd" transform="translate(9.6 14.95)"/><path d="M.65 11.5Q4.3 8.05 5.2 6.55q1.3-2.3 1.3-7.4 0-7.15-3.2-13.8 2.65 1.55 2.75 1.1l.1-.4q4.1 8.3 2.5 18.85l-2.9 3.2Q3.4 10.2.65 11.5" fill="#ed9e91" fill-rule="evenodd" transform="translate(9.6 14.95)"/><path d="M3 23.55q1.7 2.55 4.2 4.05M15.75 1q4.1 8.3 2.5 18.85" fill="none" stroke="#473b7b" stroke-linecap="round" stroke-linejoin="round" stroke-width="2"/><path d="m-8.05 6 1.45 2.6M-8.05 6-9.1 3.1" fill="none" stroke="#473b7b" stroke-linecap="round" stroke-linejoin="round" transform="translate(9.6 14.95)"/><path d="M18.25 19.85q-.7 4.65-2.55 9.8h-1l-1.25-.1Q11 29.25 9 28.45l-.55-.25-1.25-.6" fill="none" stroke="#0f4b56" stroke-linecap="round" stroke-linejoin="round" stroke-width="2"/><path d="M-2.4 12.65.65 11.5q2.75-1.3 5.1-3.4l2.9-3.2" fill="none" stroke="#0f4b56" stroke-linecap="round" stroke-linejoin="round" transform="translate(9.6 14.95)"/></g><g id="h"><path d="m15.2-55.05 3.9 1.55q6.7 2.85 12.4 6.5 10.45 12.1 22.4 35.35l-1.45-.5-2.55-3.35q-2.35-3.2-5.15-4 2.7 2.8 4.25 6.75Q52.15-4.8 50.45 7.8l.3 5.2q.9 10.95 4.45 13.75L52 26.3l-1.25-.8-.9-.8-.3-.3q-7.6-7.3-7.6-13.2 0-1.8.6-3.15l.6-1.9 1.7-.85-3.6-10.7-2.6-1-.1-1.7.35-5.35q.1-2.3-.65-4.75t-1.9-4.55q-1.15-2.1-3-2.45 2.4-8.95-7.15-16.2l-.9-1.6-.25-.4Q23.3-46.15 20.9-48q-6.35-4.85-17.45-3.8-1.05-.6-3.55-.6-3.3 0-7.05 3.1-3.25 2.65-5.1 5.9-2 3.45-3.2 7.1l-.55 2q-.3 1.25-.55 1.5l-1.55.55-1.6.35-.6-.6.25-.9-.2-.3-3.1-5.45q1.45.45 2.65 1.4 1.6 1.2 1.85 2.75.05-.8.75-.95l1.25-.05q2-8.7 8.5-14.75 6.5-6.05 13.8-6.05l1.3.3 1.4.3q-3.3-1.65-4.2-2.6l10.3-.4q4.2 1.25 8.6 3.25l-4.65.4-3 .5-2.65-.95 2.65.95M42.75-21.3l2 1.8-2-1.8M-19.5-35l.25-.2-.2.1-.05.1m24 78.4 3.4-3.15.25-.25.05.9v.45l-.05.25h.05l-.05 2.1q1.05-.1 1.7-1.65l.2-.55.3-1.75 1.35-1.25 1.4-1.35.05.1.1 1.25v1.1l-.05.45Q12.8 43 10.35 45L8.6 46.15l-.1.05-2.3 1-.6.2.2-1.2-.1-.7.1.7-.2 1.2q-.65 1.4-1.95 2.6l-.65.55-.55.45-.2.1q-2.3-1.35-3.6-3.3l-.25-.35-.75-1.45-1.05-1-1.25-1.4Q-7 40.8-8.1 40l-.25-.8-.15.35-.3-1.05q-.25-.5-.6-.5l-1.85 2.5q-2.05 2.75-3.4 3.8l-1.15.7q-1.1.55-2.7.9l-3.4.75-3.7-1.4.05-.05 1.7.1 2.45-.3 3.45-1q4.9-1.75 4.9-4.25 0-.6-.8-1.25l-.9-.6q-1.65-1-2.85-1-1.85 0-3.15 1.6l-.15.2-.05-.2-.3-.6-1.05-1.55-.25-.05-1.85-.2-3.25-.65 5.7-.35q-.15-.6.3-1.5l.8-.8 1.1 1.25q1.4 1.3 3.1 1.45l4.7.3 1.2-.15 1.3-.15q0-.9.55-1.95.6-1.15 1.25-1.25 1.1 3.15 2.85 5.05l1.25 1.15.3.25-.05.55q-.3 3.2.55 5.7l.4 1-.4-1q-.85-2.5-.55-5.7 1.65 4.05 3.05 5.7 1.7 1.95 3.1.6l.55-.6 1.1-1.6m-42.45-10.15 1.75 2.35 2.95 2.9.2.2q1.3 1.35 4.4 2.4 2.5.85 5.4 1.3l.1.1-1.55 1.7-.15.2-1.5.5.2.1.4.2-1.1-.2-.95-.25-1.05-.3 1-1.25q-.7-.7-1.25-.7-.8 0-2.4 1.3l.85-1q0-.45-.8-.5h-1.2q-5.3 0-5.3 4.05l.45 1.9.05.15v.05l.4 1.3.8 1.05h-.2q-1.3-.9-2.85-2.8.7-5.3 5.05-8.4l-1.2-1.1-2-2-1.5-1.75 1-1.5" fill="#b3c2ed" fill-rule="evenodd" transform="translate(60.45 66.5)"/><path d="m19.1-53.5-3.9-1.55 3-.5 4.65-.4 3.9 1.85-7.65.6M49-12.75q-1.55-3.95-4.25-6.75 2.8.8 5.15 4l2.55 3.35-3.45-.6m-94.1 10.5q-.3 3.75.05 6l.1.5.15.5.2.65.05.15-2.9 5.25-1.85 3.4-1.35.4.6-1.95 1.25-2.9L-47 6l.05-.1.5-1.5q.35-3.75 1.1-6.2l.25-.75v.3m17.4-60.35-.1-.5q4.4 2.85 6.75 7.9-3.15 2.05-6.1 4.8l-.05.05.75-1.95 1.4-3.4q0-.5-1.9-5.05l-.75-1.85m5.8 109.25 3.4-.75q1.6-.35 2.7-.9l1.15-.7q1.35-1.05 3.4-3.8L-9.4 38q.35 0 .6.5l.3 1.05q-1.05 2.6-2.55 4.3L-12.2 45q-3.75 3.15-9.55 1.65h-.15M-8.1 40q1.1.8 3.45 3.6L-3.4 45l1.05 1 .75 1.45.25.35-.2-.05-.05-.3.05.3Q-3.9 47.2-5.6 45q-1.5-1.9-2.5-5m-29.4 8.25-.45-1.9q0-4.05 5.3-4.05h1.2q.8.05.8.5l-.85 1-.9.75-.25.25h-1.6q-1 .25-2 1.15-1.2 1.05-1.2 2.25l-.05.05m4.65 1.7 1.3-1.85.3-.3q1.6-1.6 3.05-1.6 1.5 0 1.85.5l.1.25.05.25v.35l-2.8 2.3q-1.75 1.6-2 3.05l-.25-.25-.45-.45q-.6-.5-1.15-2.25m83.6-24.45.75.7q-4.8-1.15-8.2-3.9l-3.5-4.8q-2.65-3.85-2.65-4.3v-.4q2.8 4 6.95 7.45l5.6 4.55 1.05.7m-16.2 4.1q-3.8-2.4-5.95-2.05-.65 5.75-2.85 10.65v-1.35l.85-4.8.95-9.05 1.4 1.15.5.35 2.7 1.9q1.25 1.05 2.4 3.2M22.5 35.25l-1.05 3.25-2 3.3.75-3.3.95-4.5.15-.55 1.2 1.8m6.45-11.1-.35 3.4.35-3.4" fill="#ee9b8b" fill-rule="evenodd" transform="translate(60.45 66.5)"/><path d="m-20.3-32.5.6.6 1.6-.35 1.55-.55q.25-.25.55-1.5l.55-2q1.2-3.65 3.2-7.1 1.85-3.25 5.1-5.9 3.75-3.1 7.05-3.1 2.5 0 3.55.6l-1.7.2q-5.1 2.1-8.3 5Q-8.4-44.95-9.6-43q-2.95 4.7-2 11-.1.4-1.65.75l-7.75.95.7-2.2m46.5-8.9q9.55 7.25 7.15 16.2 1.85.35 3 2.45t1.9 4.55q.75 2.45.65 4.75l-.35 5.35.1 1.7-5.05-2q-.05-9.5-4.35-17.7-.2-9.35-3.05-15.3M43.15 6.15l-.6 1.9q-.6 1.35-.6 3.15 0 5.9 7.6 13.2l.3.3.9.8-1.05-.7-5.6-4.55q-4.15-3.45-6.95-7.45v.4q0 .45 2.65 4.3l3.5 4.8q-1.9-1.5-3.35-3.45l1.5 2.4.3.55-.4-.5q-3.7-4.7-4.9-4.7-.75 0-1.1 1.4l-.2 1.7q0 2.9.95 4.8l2.25 3.2q2.15 2.85 3.35 7.35-4.1-3.6-7.15-5.45-1.15-2.15-2.4-3.2l-2.7-1.9-.5-.35-1.4-1.15-.95 9.05-.85 4.8V35.4l-.2-5.2-.2-3.4-1.9.85q-.8.45-1.1 1.75l-.9 3.55-.15.5-.15.55-.95 4.5-.75 3.3-2.7 2.9-.55-1.25q.1-1.1.35-2.3l.6-2.55V37h-.4l-1.6 1.5-1.9 1.1v-1.1l-.1-1.25.3-.45q3.9-3.9 7.15-8.4l3.55-5.5.4-.7 3.5-7.1.9-2.1 1.3-3.35 1.25.35 2.1.6.35.1 9.2-4.55m-68.75 39.1 3.7 1.4h.15q-.3.95.75 4.05.95 2.75 1.05 2.35.15.45-.1.75l-.9.8-.1.05-1.5-2.9q-1.95-4.65-2.65-4.65l-.2.05q-.4-.4-.95-.45-.35-.5-1.85-.5-1.45 0-3.05 1.6l-.3.3-1.3 1.85v-.1l-.25-1 1.55-2 .3-.25 1.85-1.6.55-.55 1.05.3.95.25 1.1.2.15.05M39.65 18.4l.3.45-.3-.45" fill="#8693e1" fill-rule="evenodd" transform="translate(60.45 66.5)"/><path d="m-44.55-37.25-1.15-1.9-4.95-2.45 7.15 8.05.15-1.2-1.2-2.5m-5.6 18.65-3.3-13.15-.1-.45-3.9-15.7 10.4 5.7 7.9 4.35.15.1-.1.4-.25.75q4.05 2.8 6.8 10 .85-.7.75-3.2l-.05-2.95.35.55.2.3-.15 1.2v.05l.5 3.3-.2 1.1-.2 1q0 .5.6 1.05l.8.8q.45-.45 1.25-.65h.15l.2-.05h.6l-.1.3-.35 1.15-1.75 1.75-2.3 2.55-.2.05v-.25q0-.8 2.4-4.65-1.95.05-3.3-2.85l-1.7-4.65q-.55-1.55-2.8-3.3l-2.3-2.15-.3-.4-3.1-1.55 2.3 3.8q1.2 2.2.95 4.4l.75.8v8.1l-1.1-7.4-12.7-11.8 3.1 15.2.8 4.05.85 4.15-1.3-.85-.25-.95m6.5-13.5v-.1l-.1.2.1-.1m1.25-.25 1.15 1.35v-.9l-.45-1.2-.75-1.2v1l.05.95m16.6-8.8-1.55.05 1.3 1.8 1.2 1.9-.2 4.4q0 .2.95.35l2.1.1-3.95 1.25-.7.2v-.8Q-27-33.35-28-35.05L-29.75-38q-.3-.55-1.25-.85-1.05-.3-1.25-.55l-2-2.2-.75 3.45q-.25 1.35-.65 2.2l-.95-.5 1.65-8.45 9.15 3.75m-4 2.55q.8.35.95.7 1.65 3.3 2.3 5.25l.4-4.4q0-.95-.8-2.25t-1.6-1.5l-1.95-.75-1.85-.75h-.2l.9 1.5.7 1.3 1.15.9" fill="#fffeff" fill-rule="evenodd" transform="translate(60.45 66.5)"/><path d="m14.25-59.2-10.3.4q.9.95 4.2 2.6l-1.4-.3-1.3-.3q-7.3 0-13.8 6.05-6.5 6.05-8.5 14.75l-1.25.05q-.7.15-.75.95-.25-1.55-1.85-2.75-1.2-.95-2.65-1.4l-.8-1.35-1.65-.65-9.15-3.75-1.65 8.45-2.4-1.3-.15-.1-7.9-4.35q15.8-13.75 14.1-23.3l.5.2q.75 1 1.15 2.15.65 2.05.65 7.15 0 1.55-.75 9.15l-.25.25h.2l.05-.25q1.75-2.05 3.3-3l.45-.3.45-.2.05-.05q2.95-2.75 6.1-4.8 15.3-10.05 35.3-4M31.5-47q2.9 1.9 5.55 4 16.6 13.2 22.4 35-2.5-2.4-5.55-3.65Q41.95-34.9 31.5-47m-84.95 15.25q-.6 2.95-.6 5.55 0 3.8 1.5 9.25 1.5 5.4 1.5 6.55 0 1.65-1.3 3.05l-2.6 3.05q-6.3-16.95 1.4-27.9l.1.45m-5.3 34.5.25-.85q1-2.7 3.55-5.05l.35-.25q1.85-1.6 4.85-2.15l2.2-.25-2.1 3.6q-.75 1.4-2.1 1.8l-2.3.4q-2.55.7-4.7 2.75m47.65 20.5-.2.55.55.2-5.3 4.05q-3.2 2.2-6.25 2.5l-2.15-.35 1.2 1.25 1.6.25q2.85 0 7.75-3.75l4.65-3.75 1.15.25 1.15.95q0-1-1.35-1.75-1.2-.65-1.9-.7-.75-.05-.9.3M-47.45 10.8q6.35-5.2 9.8-5.9l8.9-1.7 5.1-1.1 3.2-.5q-.55 1.45-4.2 7.45 0 1.85 4.6 4.85 3.85 2.55 8.3 4.4l4.95 2.55L-2.6 23q.65.2 4.65-1.4-.85 3.2-2.8 6.7l-2.8 4.7Q-.5 30.9 2 30.65q2.5-.3 2.9.8.4 1.1.45 5.2v2.65q.05 2.3-.85 4.1L3.4 45l-.55.6q-1.4 1.35-3.1-.6-1.4-1.65-3.05-5.7l.05-.55-.3-.25-1.25-1.15q-1.75-1.9-2.85-5.05-.65.1-1.25 1.25-.55 1.05-.55 1.95l-1.3.15-1.2.15-4.7-.3q-1.7-.15-3.1-1.45l-1.1-1.25-.8.8q-.45.9-.3 1.5l-5.7.35-.9-.25q-3.15-1-9.35-2.65l-.45-.15-.75-.2q-2.4-1.4-4.85-3.2l-.65-.45.65-.45 1.7-1.35q.75-.7.9-1.35l.45-3.8.35-2.9 1.1-1.9q0-.5-.6-1.3l-.6-.7q-1.2-1.3-2.05-1.5l-2.9.2-1.2.2-1.45.25-1 .25h-.05l1.85-3.4m44.5 26.1-.25 1.6-.05.25.05-.25.25-1.6m-17.95 1.8.15-.2q1.3-1.6 3.15-1.6 1.2 0 2.85 1l.9.6q.8.65.8 1.25 0 2.5-4.9 4.25l-3.45 1-2.45.3-1.7-.1.2-.2.5-.6q5.15-2.05 3.95-5.7m-18.05-3.95 1.5 1.75 2 2 1.2 1.1q-4.35 3.1-5.05 8.4l-.95-1.7q-.75-1.35-.8-3.7v-.8q.05-1.75.5-3.3l.35-1 1.25-2.75m7.45 9.05q1.6-1.3 2.4-1.3.55 0 1.25.7l-1 1.25-.55.55-1.85 1.6-.3.25-1.55 2q-.25-1.2.05-2.15.35-1.35 1.4-1.9h-.85l1-1m5.3 3.4.8-.05q.75.65.95 2.5l.3 2.75h-.1l-.2.4-.45.75.3-.4-.3.45-.65.9-.7 1.15-.45-1 .45 1 .7-1.15.65-.9.3-.45-.25.55q-.5 1.05-.5 1.95 0 1.1.55 1.9l-.15.8q0 1.15 1.05 1.6l2.55.25.1.35q0 1.5-1.6 2.85-1.6 1.3-3.35 1.3l-2.05-.5-.5-.5h.1l2.05-.1q1.05-.45 1.05-1.45t-1.1-1.9q-1.1-.95-1.1-2.8 0-1.3.3-1.9l.75-.9q-.55-1.4-.55-3.05 0-2.05 1.1-3.75l.3-.45h-.2l-.15.15v-.35m.45 6.7-.95.75.95-.75m23.95 1.25.6-.25.85-.1q.35 0 .6.65.3.75.7.95.8.45 2.2.9L6 58q.55.25.55 1.95 0 1.45-1.05 2.85-.85 1.15-2.15 1.8h-.8l1.35-.75.6-.8Q1.75 62.6.05 60.9q-1.9-1.9-1.9-4.75l.05-.75v-.25m6.15 6.45.2.85-.05.6.05-.6-.2-.85m3.85-20 1.25-1.05.9-.8-.3 1.75-.2.55q-.65 1.55-1.7 1.65l.05-2.1" fill="#eaeaea" fill-rule="evenodd" transform="translate(60.45 66.5)"/><path d="m16.55.1.1-.05.45.05.95.2h1.5l-2.5-1.5q-1.3-.6-2.05-1.25l1.25-.9 1.25-.9.8-.1.15.05-1.5 2.8 9.95.8q-.7.75-2.4.95L20.55.7l1.2 2.75 1.1 2.45.1.1 2.4-.7q1.55-.45 2.3-.9-.5-.35-.5-.8l1.2-.9q.35-.3 1-.3l1 .15 1.1.15 4.85-.3q.3 0 .6.7t.55.7q1.25 0 1.55-.5l.75-2.6.45-1.8.05-.3.5-1.35.55 1L42.65.4q.4.5.4 1.8l.05 1q-.2.55-.1 1.05l-9.4 6.35-2.1-.6-1.6-.75-.95-.4L24.55 7 20.7 5.35q-1.35-.6-1.65-1.15l-.1-.25L16.55.1m2.95-7.8-.75.8v.1q.3-.4 1.55-.65l2.15-.25 1.8.35.15.1 2 .95L23.15-4l-2.3 1.75-1.65-.4.45-2.15-.55-.7-.6-.4-.35-.2-1.3-.7 1.2-.3 1.2-.6h.25m9.1 5.6-3.75-.1h-.1l1.8-2.4q1.4-2.2 1.4-3.05l-.2-1.75v-.1q.7.75 2.75 1.8l.85.4.1.9.15 1.2.05.15-2.8 2.7-.25.25m-59.9-29.8-.2-.3-.35-.55-1.2-1.75-2.6-1.45q.4-.85.65-2.2l.75-3.45 2 2.2q.2.25 1.25.55.95.3 1.25.85l1.75 2.95q1 1.7 1.35 3.15v.8l.7-.2-.75.95q-1.25 1.65-1.65 1.65-.45 0-1.15-.8l-.6-.55-1.2-1.85M-50.25-25l-3.1-15.2 12.7 11.8 1.1 7.4v-4.85l.6 4.45v3.3h-.5l-3.65-.55q-2.2-.35-3.65-1.15-1.15-.6-2.2-2.7l-.15-.35-.15-.35v.15l-1-1.95m13.3 6.7v-5.3q.95 2.75 2.25 5.35l.1.2 2.15 4.15-4.1.2-3.8.6.25-1.85.05-.95h.4l1.15.2 1.15-.2q.7-.25.7-.55l-.3-1.85m9.25-5.9.45-1.6-.65-.95.9-1.15q1.2-1.6 1.75-1.6l2.7 1.55-.05.1-.25.75q-.95 2.85-4.85 2.9" fill="#1957dc" fill-rule="evenodd" transform="translate(60.45 66.5)"/><path d="m-32.25-18.35 2.3-2.55 1.75-1.75-2.95 9.85-4 1.5h-4.4l-9.05-5.5-.85-4.15.2-2.1.15.2.15.35q1.05 2.1 2.2 2.7 1.45.8 3.65 1.15l3.65.55h.5v-.65l1.05.2.95.25.3 1.85q0 .3-.7.55l-1.15.2-1.15-.2h-.4l-.05.95-.25 1.85 3.8-.6 4.1-.2-2.15-4.15-.1-.2h.8l1.45-.05v.2l.2-.25m6.3-12.95 3.95-1.25 1.3-.15-1.85 4.75-2.7-1.55q-.55 0-1.75 1.6l-.9 1.15-2.2-3.3.6.55q.7.8 1.15.8.4 0 1.65-1.65l.75-.95" fill="#0080d9" fill-rule="evenodd" transform="translate(60.45 66.5)"/><path d="m-48.6-16.8 9.05 5.5h4.4l-4.6 1.7-2.85-1.95-.2-.3v.15l-1.05-.75-5.8-4.05-.25-1.15 1.3.85m23.2-7.1-1.75.1-.6-.3.05-.1q3.9-.05 4.85-2.9l.25-.75.05-.1 1.85-4.75.2-.05.2.25-.7 2.2-1.55 5-.4 1.3-2.45.1" fill="#fdb2f3" fill-rule="evenodd" transform="translate(60.45 66.5)"/><path d="m-27.7-62.6.75 1.85q1.9 4.55 1.9 5.05l-1.4 3.4-.75 1.95-.45.2-.45.3.05-.35q.8-4.05.8-6.9 0-3.05-.45-5.5M-54.9-4.2l.6-.6q1.55-1.5 3.05-2.2 1.15-.55 2.65-1.95 1.95-1.8 1.95-3.05 0-.55-1.9-2.15-1.9-1.6-1.9-3.15l.3-1.3.25.95.25 1.15 5.8 4.05-.6 4.05q-.8.5-2.3 1.25l-1.5.7-1.5.9q-3 .55-4.85 2.15l-.3-.8m9.8 1.65-.25.75q-.75 2.45-1.1 6.2l-.5 1.5-.05.1-1.8 3.75-1.25 2.9-.6 1.95-.45.15q-1.55-2.15-4.9-2.25h-.55q-.25-.85 1.9-2.55 2.1-1.7 3.6-.65l-1.75-3.25q-1.25-2-3.1-2.3-1.85-.35-2.9.35l-.25.15 1.55-1.65q1.75-1.4 4.15-1.4l2.1.1q.85.2 2 1.3h.4q.45-2.85 4.05-8.3l-.3 3.15M-50.75 10l-.3-.7.3.7" fill="#8393e1" fill-rule="evenodd" transform="translate(60.45 66.5)"/><path d="m-28-63.2.3.6q.45 2.45.45 5.5 0 2.85-.8 6.9l-.05.35q-1.55.95-3.3 3 .75-7.6.75-9.15 0-5.1-.65-7.15-.4-1.15-1.15-2.15 2.45.8 4.45 2.1M-54.95-4.3l2.6-3.05q1.3-1.4 1.3-3.05 0-1.15-1.5-6.55-1.5-5.45-1.5-9.25 0-2.6.6-5.55l3.3 13.15-.3 1.3q0 1.55 1.9 3.15 1.9 1.6 1.9 2.15 0 1.25-1.95 3.05-1.5 1.4-2.65 1.95-1.5.7-3.05 2.2l-.6.6-.05-.1m-3.8 7.05Q-56.6.7-54.05 0l2.3-.4q1.35-.4 2.1-1.8l2.1-3.6-2.2.25 1.5-.9 1.5-.7q1.5-.75 2.3-1.25l-.35 2.7q-3.6 5.45-4.05 8.3h-.4q-1.15-1.1-2-1.3l-2.1-.1q-2.4 0-4.15 1.4l-1.55 1.65-.4.3.6-1.7.05-.05v-.05h.05l-.05.05.05-.05" fill="#b4c1eb" fill-rule="evenodd" transform="translate(60.45 66.5)"/><path d="m-23.35-39.15 3.1 5.45-.35.75-.1.25-1.3.15.05-.05-2.15-.05q-.95-.15-.95-.35l.2-4.4-1.2-1.9-1.3-1.8 1.55-.05 1.65.65.8 1.35" fill="#50c6f8" fill-rule="evenodd" transform="translate(60.45 66.5)"/><path d="m-44.55-37.25 1.2 2.5-.15 1.2-7.15-8.05 4.95 2.45 1.15 1.9m2.15 4.9-.05-.95v-1l.75 1.2.45 1.2v.9l-1.15-1.35m2.85 6.5v-3.25l-.75-.8q.25-2.2-.95-4.4l-2.3-3.8 3.1 1.55.3.4 2.3 2.15q2.25 1.75 2.8 3.3l1.7 4.65q1.35 2.9 3.3 2.85-2.4 3.85-2.4 4.65v.25l-1.45.05h-.8q-1.3-2.6-2.25-5.35v5.3l-.95-.25-1.05-.2v-2.65l-.6-4.45m11.25 1.75h-.05l-.2.05h-.15q-.8.2-1.25.65l-.8-.8q-.6-.55-.6-1.05l.2-1 .2-1.1-.5-3.3.05-.05h-.05l.15-1.2 1.2 1.85 2.2 3.3.65.95-.45 1.6h-.1l-.5.1m-3.55-8.65.05 2.95q.1 2.5-.75 3.2-2.75-7.2-6.8-10l.25-.75.1-.4 2.4 1.3.95.5 2.6 1.45 1.2 1.75m2.05-5.85-1.15-.9-.7-1.3-.9-1.5h.2l1.85.75 1.95.75q.8.2 1.6 1.5t.8 2.25l-.4 4.4q-.65-1.95-2.3-5.25-.15-.35-.95-.7" fill="#4ec6f8" fill-rule="evenodd" transform="translate(60.45 66.5)"/><path d="m11.4-38-.25.05.25.2.15.15q1.25 1.15 1.95 3.45l-.2 2.05-1.25-1.85-.9-1-1.05-.95Q7.35-38.15 3-39.05l1.1 1.4.25 2q0 3.2-1.3 4.75-1.4 1.6-4.4 1.6-2.3 0-3.3-.9l-1.7-2.7v.1q-.75.4-1.45 3.45L-8.1-28l-.35 2.9.1 1.4q-2-2.35-2.6-5.3l-.1-.25-.55-2.75q-.95-6.3 2-11 1.2-1.95 3.05-3.6L-8-42.65l-.85 4.3q.75-2.35 4.15-3.95 3.35-1.65 7.25-1.45Q6.4-43.6 9.2-41q1.4 1.3 2.2 3M3-39.05l-.05-.05h-.1l.15.05M8.05-11.5l2.55-2.25 3.95-4.05v1.4l-.4 6.3-.25 4-.1.7-.45 2-.5 2.1-.5 2.15Q11.3 4.9 10.65 4.9l.05.05-2.85-.65-2.25-.65.15-.4Q8.75-7 8.05-11.5m-1.6-28.9q2.7.9 4.7 2.45-2-1.55-4.7-2.45" fill="#aff0f6" fill-rule="evenodd" transform="translate(60.45 66.5)"/><path d="m-11.6-32 .55 2.75-.1.7q0 2.15 2 5.3l1.6 2.3 1.1 1.05-3.55 2.85-1.5.7.7-1.4.35-.55 1.2-1.2-.95-.6-.55-.4-.3.1Q-18.6-17.05-26-12.75l3.45-12.55 1.55-5 7.75-.95q1.55-.35 1.65-.75M5.6 13.4l-.2-.4-1.85-3 1.9-5.75q4.05 3.2 8.15 4.9 1.25 2.45 4.55 3.3l7.3.85h.1v.05q-2.95 7.6-5.8 13.1Q16.9 32 13.45 36.8l-.35.35-1.4 1.35-1.35 1.25-.9.8L8.2 41.6v-.25l.3-1.75.6-.6.45-.5.85-.95 3.55-4.25.2-.3 1.35-2.1.1-.15q2.25-4.15 2.25-10.55 0-5.3-.75-6.3-.4-.5-2.2-1.15-.95-.35-2.3-.75l-.95-.3-1 1.85-.3.55-.8 1.4Q8 11.55 6.75 11.8q-.2-.1-.85 1.05l-.3.55m-40.75-24.7 4-1.5 2.95-9.85.85-1.15h.2l1.75-.1-3.55 12.9Q-35.3-7.15-41.6-2.6l.4-2.85.45-3.7-1.35-1.75-.15-.2-.35-.45 2.85 1.95 4.6-1.7" fill="#046693" fill-rule="evenodd" transform="translate(60.45 66.5)"/><path d="M3.45-51.8q11.1-1.05 17.45 3.8l2.25 4 .25.8.65 3.4q.6 3.55.6 5.4 0 3.15-1.85 9.25-1.6 5.3-2.9 7.45 2.35-2.45 6.05-3.2.1.8.7 2.4l.8 2.7.15 2.85-.65-.95-7.5 1.3-5.1 6 .75.4.2.15 1.1.6-3.15 3.55.55.2 3.45 1.2-.6.55-.1.05-1.2 1 1.7 2.55-3.1-1.05-.1.1-.4 1.9q-.2.5-1.1.5l-1.65-.15-.05-.05q.65 0 1.7-4.05l.5-2.15.5-2.1.45-2 .1-.7.25-4 .4-6.3v-1.4l-3.95 4.05-2.55 2.25-.2-1.05L9.7-14q3.45-2.95 5.1-5.9 2.25-4.05 2.25-8.35 0-3.5-1.1-6.35-1.4-3.5-3.75-3.5l-.8.1q-.8-1.7-2.2-3-2.8-2.6-6.65-2.75-3.9-.2-7.25 1.45-3.4 1.6-4.15 3.95l.85-4.3 1.45-3.95q3.2-2.9 8.3-5l1.7-.2M-8.1-28l.3-1.35q.7-3.05 1.45-3.45v-.1l1.7 2.7q1 .9 3.3.9 3 0 4.4-1.6 1.3-1.55 1.3-4.75l-.25-2-1.1-1.4q4.35.9 7.1 3.15l1.05.95v.6q0 5.1-3.2 8.35-3.1 3.1-7.65 3.1-5.25 0-8.4-5.1" fill="#32c6d4" fill-rule="evenodd" transform="translate(60.45 66.5)"/><path d="m-11.05-29.25.1.25q.6 2.95 2.6 5.3l.85.95q1.85 1.8 4.05 2.75L-10-17.05l3.55-2.85-1.1-1.05-1.6-2.3q-2-3.15-2-5.3l.1-.7" fill="#b55159" fill-rule="evenodd" transform="translate(60.45 66.5)"/><path d="m-42.1-10.9 1.35 1.75-.45 3.7-.4 2.85q6.3-4.55 12.65-8.4l3.55-12.9 2.45-.1.4-1.3L-26-12.75q7.4-4.3 14.95-7.65l.3-.1.55.4.95.6-1.2 1.2Q-26.8-11.4-41.5-1.55l-1.1.75.15-6.8.35-3.3m52.75 24.45 1-1.85.95.3q1.05 3.1 1.55 5.9.5 3.05.5 7.75l-.35 5.45-.15 1.9-.2.3q.2-4.85-.6-10.05-.9-5.55-2.7-9.7m4.25-.8q1.8.65 2.2 1.15.75 1 .75 6.3 0 6.4-2.25 10.55l.2-1.6.05-3.9q0-8.8-.95-12.5" fill="#0594d6" fill-rule="evenodd" transform="translate(60.45 66.5)"/><path d="m-8.35-23.7-.1-1.4.35-2.9q3.15 5.1 8.4 5.1 4.55 0 7.65-3.1 3.2-3.25 3.2-8.35v-.6l.9 1 1.25 1.85q-.8 5.1-5.05 8.35-1.75 1.35-4.2 2.45-2.5 1.1-5.75 1.9l-1.75-.6q-2.2-.95-4.05-2.75l-.85-.95" fill="#257481" fill-rule="evenodd" transform="translate(60.45 66.5)"/><path d="M-11.5-16.35q-.85.4-1.75.85-15.8 7.55-29.6 16.7l-1.1-1.05.35-6.05.2-1.8.1-1.1.5-2.9.2.15.35.45.15.2-.35 3.3-.15 6.8 1.1-.75q14.7-9.85 31.05-16.75l-.35.55-.7 1.4" fill="#47c3ff" fill-rule="evenodd" transform="translate(60.45 66.5)"/><path d="M-21.45-7.95q-.1.65-.6 1.35l-.3.4-1.15.5h-.15l-1.2-.4q-.6-.4-.7-.9l-1.2.6-.05.05.05.1q0 1.45-1 1.45l-.8-.2-.4-.25-16.1 9q-.35-2.25-.05-6 .1 1.2 1.15 2.4l1.1 1.05q13.8-9.15 29.6-16.7.9-.45 1.75-.85-.2.45.05.55l1.45-1.25L-3.45-20l1.75.6 3.35.4h.65l-.7.5-.35.25q-10.85 3.6-22.9 9.35l.2.7v.25" fill="#adf0f6" fill-rule="evenodd" transform="translate(60.45 66.5)"/><path d="M20.9-48q2.4 1.85 4.15 4.6l.25.4.9 1.6-.5-.35.45 1.55q1.2 5.3 1.2 9.3 0 1.75-.6 4.4l-1.1 3.3.9-.45.75-.05q3.05 0 3.5 9.05l.35 5.25-1.4-.55-.25-.35-1.9-2.65-.15-2.85-.8-2.7q-.6-1.6-.7-2.4-3.7.75-6.05 3.2 1.3-2.15 2.9-7.45 1.85-6.1 1.85-9.25 0-1.85-.6-5.4l-.65-3.4-.25-.8-2.25-4m-9.35 10.4-.15-.4.8-.1q2.35 0 3.75 3.5 1.1 2.85 1.1 6.35 0 4.3-2.25 8.35-1.65 2.95-5.1 5.9 0-7-32.05 7.8l.3-.4q.5-.7.6-1.35l1.5-.85 7.1-2.85 5.15-2.05.05-.05.3-.1Q-1-16 .15-15.9l-1.3-.95 2.4-1.4 3.9-1.15.35-.15q2.95-.95 5.3-3.35 3.4-3.6 3.3-7.75l-.1-.8-.5-2.7q-.7-2.3-1.95-3.45M10.7 4.95l1.65.15q.9 0 1.1-.5l.4-1.9.1-.1 3.1 1.05 1.8 2.75 10 2.85-.75 5.45-.05.4-3.5 7.1-.4.7-3.55 5.5q5.55-9.9 6.25-15.4l.05-1.2-.05-1.2-.6.1-1.15-1.3q-1.1-.8-2.55-.6l-3.1-.3-3-.7q-5.5-1.15-10.9-3.95l.05-.2 2.25.65 2.85.65M-24.85-6.1l1.2.4.05.05q-8.95 4.15-20.25 9.9l-.95.5-.15-.5q.85-.55 2.05-1.15l6.45-3q3.15-1.5 9.25-4.9l2.35-1.3m54.9-4.1-.1.05.1.05v-.1" fill="#247380" fill-rule="evenodd" transform="translate(60.45 66.5)"/><path d="m31.15-9.4-.35-5.25q-.45-9.05-3.5-9.05l-.75.05-.9.45 1.1-3.3q.6-2.65.6-4.4 0-4-1.2-9.3l-.45-1.55.5.35q2.85 5.95 3.05 15.3 4.3 8.2 4.35 17.7l-2.45-1M5.45 4.25l.1-.4q5.4 2.8 10.9 3.95l3 .7 3.1.3q1.45-.2 2.55.6l1.15 1.3Q19.9 11.75 13.6 9.15q-4.1-1.7-8.15-4.9m24.8 5.4L28.95 13l-.9 2.1.05-.4.75-5.45 1.4.4" fill="#ebb674" fill-rule="evenodd" transform="translate(60.45 66.5)"/><path d="m9.7-14-1.85 1.45q-.7-2.1-2.5-2.45-8.65 2.4-18.6 6.35Q-25.5-3.85-39.7 3.4l-4.75 2.4-.1-.25-.05-.15-.2-.65.95-.5q11.3-5.75 20.25-9.9l.1-.05 1.15-.5Q9.7-21 9.7-14m3.6-18.1.8 1.45q.1 4.15-3.3 7.75-2.35 2.4-5.3 3.35l-.35.15-2.85.4h-.65l-3.35-.4q3.25-.8 5.75-1.9 2.45-1.1 4.2-2.45Q12.5-27 13.3-32.1" fill="#ebb670" fill-rule="evenodd" transform="translate(60.45 66.5)"/><path d="m1.25-18.25-2.4 1.4 1.3.95Q-1-16-7.35-13.85l-.3.1-.05.05-3.75 1.25q-.85.25-1.4.8l-7.1 2.85-1.5.85v-.25l-.2-.7q12.05-5.75 22.9-9.35m-46.3 22 16.1-9 .4.25.8.2q1 0 1-1.45v-.15l1.2-.6q.1.5.7.9l-2.35 1.3q-6.1 3.4-9.25 4.9l-6.45 3q-1.2.6-2.05 1.15l-.1-.5m43.9-20.6-.2-.05.1.1.1-.05" fill="#30c7d2" fill-rule="evenodd" transform="translate(60.45 66.5)"/><path d="m16.4-5.45-1.1-.6h1.75l1.1-.05.35.2.6.4.55.7-.45 2.15-.65-.15q0-.4.5-1.3v-.5l-.75.25-.35-.25-1.55-.85m13.1-4.85.25.35L31.3-7.8l.05.5-.85-.4q-2.05-1.05-2.75-1.8v.1l.2 1.75q0 .85-1.4 3.05l-1.8 2.4h.1l3.75.1.25-.25 2.8-2.7.2 1.65q-.75.1-.9.4l1 .4 2.55.45 3.55.75 1.6-1.4.7-.6.4.65-.5 1.35-.05.3-.45 1.8L39 3.3q-.3.5-1.55.5-.25 0-.55-.7-.3-.7-.6-.7l-4.85.3-1.1-.15-1-.15q-.65 0-1 .3l-1.2.9q0 .45.5.8-.75.45-2.3.9l-2.4.7-.1-.1-1.1-2.45L20.55.7 24.5.25q1.7-.2 2.4-.95h.25l.4-.4-.6.35-6.1-1.5L23.15-4l3.25-2.3.55.2-.25-.4-1.45-1.25-.3-.15q.7-.55 1-1.85l.35-2.55 1 .6.3.25q1.05.75 1.9 1.15m-1.95 9.2 1.05-1-1.05 1m3.9-5.3-.1-.9.45.25.75 1.05-.8.8h-.05l-.25-1.2" fill="#007fd6" fill-rule="evenodd" transform="translate(60.45 66.5)"/><path d="m38.65-6.4 2.6 1 3.6 10.7-1.7.85-9.2 4.55-.35-.1L43 4.25l.15-.15-.05-.9-.05-1q0-1.3-.4-1.8L41.3-1.75l-.55-1-.4-.65-.7.6-1.6 1.4-3.55-.75-2.55-.45-1-.4q.15-.3.9-.4l1.5-.1 2.05-.3 1.75-1.6-2.4-.4-1.3-.5h-.05l-.65-.55.1.25.1.4v1.1h-.5l-.7-.1.8-.8-.75-1.05-.5-.75-1.55-2.15 1.4.55 2.45 1 5.05 2M13.8-1.7l-.55-.2 3.15-3.55 1.55.85-.45.35-1.25.9-1.25.9-.1.1-1.1.65m1.3-4.5-.75-.4 5.1-6 7.5-1.3.65.95 1.9 2.65q-.85-.4-1.9-1.15l-.3-.25-1-.6-1.55-.4h-1.3l.7.95q.4.45.4.85l-1.6 2.1 2 .9.3.15L26.7-6.5l.25.4-.55-.2-2-.95-.15-.1-1.8-.35-2.15.25q-1.25.25-1.55.65v-.1l.75-.8.15-.15 1.4-1.45-1.3-.35L18.6-10l-.95.9-.9 1.2h2.1l-1.35.25q-.85.2-1.35.55l-1.05.9m6.4-5.7q-.15 0-.75.35-.45.3-.7.35.65.05 1.9 1.1l-.3 1.45-.1.25v.1l.25-.25L22-9l1.45-1.7q-.2-.4-1.1-.85l-.85-.35m14.2 8.85 1.45.25q.45 0 1.2-.9l.7-.75.6-.55-.75-.05-.35-.1-1-.15-1.85 2.15-.55.05.5.05h.05" fill="#fdfffe" fill-rule="evenodd" transform="translate(60.45 66.5)"/><path d="m15.3-6.05-.2-.15 1.05-.9q.5-.35 1.35-.55l1.35-.25h-2.1l.9-1.2.95-.9 1.15.35 1.3.35-1.4 1.45-.15.15h-.25l-1.2.6-1.2.3 1.3.7-1.1.05H15.3m9.65-1.85-2-.9 1.6-2.1q0-.4-.4-.85l-.7-.95h1.3l1.55.4-.35 2.55q-.3 1.3-1 1.85m-3.45-4 .85.35q.9.45 1.1.85L22-9l-.2.45-.25.25v-.1l.1-.25.3-1.45q-1.25-1.05-1.9-1.1.25-.05.7-.35.6-.35.75-.35m14.2 8.85h-.05l.05-.1v.1" fill="#50c6f4" fill-rule="evenodd" transform="translate(60.45 66.5)"/><path d="m31.85-3.4-.2-1.65.1-.15.7.1h.5v-1.1l-.1-.4.55.3h.05l1.3.5 2.4.4-1.75 1.6-2.05.3-1.5.1m3.85.25 1.85-2.15 1 .15.35.1.75.05-.6.55-.7.75q-.75.9-1.2.9l-1.45-.25v-.1" fill="#4dc5f9" fill-rule="evenodd" transform="translate(60.45 66.5)"/><path d="m17.05 3.65-1.7-2.55 1.2-1 2.4 3.85.1.25q.3.55 1.65 1.15L24.55 7l4.4 1.85-.1.4-10-2.85-1.8-2.75m-.4-3.6.6-.55-3.45-1.2 1.1-.65.1-.1q.75.65 2.05 1.25l2.5 1.5h-1.5L17.1.1l-.45-.05M26.9-.7l-9.95-.8 1.5-2.8-.15-.05.75-.25v.5q-.5.9-.5 1.3l.65.15 1.65.4 6.1 1.5-.05.05" fill="#ffb0f5" fill-rule="evenodd" transform="translate(60.45 66.5)"/><path d="m7.85-12.55.2 1.05q.7 4.5-2.3 14.75l-.15.4-.05.2-.1.4L3.55 10l1.85 3 .2.4q5 9.65 3.2 24.1l-.9-4.7-1.05-5.25Q6.3 25 3.75 26.7l.15-.5.4-1.95.3-2.2.05-2.1q.05-1.1-.2-1.3L2.6 18.4l-4 .2q-3.65 0-6.4-1.6-3.45-2.05-3.35-5.7.15-4.75-1.25-9-1.65-4.9-4.3-4.9l-6.35 1.45-5.6 1.65q-2.35.9-7.8 2.15l-3.25.75q14.2-7.25 26.45-12.05Q-3.3-12.6 5.35-15q1.8.35 2.5 2.45" fill="#8592e1" fill-rule="evenodd" transform="translate(60.45 66.5)"/><path d="m8.85 37.55 1.4-5.1q1.2-5.2 1.2-7.35 0-3.45-.9-6.6l-1-3 .8-1.4.3-.55q1.8 4.15 2.7 9.7.8 5.2.6 10.05l-3.55 4.25-.85.95-.45.5-.1-.45v-.05l-.15-.95M12.6 12q1.35.4 2.3.75.95 3.7.95 12.5l-.05 3.9-.2 1.6-.1.15-1.35 2.1.15-1.9.35-5.45q0-4.7-.5-7.75-.5-2.8-1.55-5.9" fill="#47c4fe" fill-rule="evenodd" transform="translate(60.45 66.5)"/><path d="M8.8 37.5q1.8-14.45-3.2-24.1l.3-.55q.65-1.15.85-1.05 1.25-.25 2.8 3.7l1 3q.9 3.15.9 6.6 0 2.15-1.2 7.35l-1.4 5.1-.05-.05m-59.2-18.9-.05-.05q-.8-.75-.8-1.2l.3-.75.25-.25.2-.15.4-.1 1.15.3q.6.35.6 1 0 .85-.45 1.15l-1.3.25-.3-.2m3.15-2.3q.6 0 .6.5l-.6.8h-.7v-.9l.3-.25.1-.05.3-.1" fill="#fff" fill-rule="evenodd" transform="translate(60.45 66.5)"/><path d="m-39.7 3.4 3.25-.75Q-31 1.4-28.65.5l5.6-1.65 6.35-1.45q2.65 0 4.3 4.9 1.4 4.25 1.25 9-.1 3.65 3.35 5.7 2.75 1.6 6.4 1.6l4-.2 1.85.25q.25.2.2 1.3l-.05 2.1-.3 2.2-.4 1.95-.15.5q2.55-1.7 3.1.85L7.9 32.8l.9 4.7v.25l-.25.75-.45 1.25-.2.5-3.4 3.15q.9-1.8.85-4.1v-2.65q-.05-4.1-.45-5.2-.4-1.1-2.9-.8-2.5.25-5.55 2.35l2.8-4.7q1.95-3.5 2.8-6.7-4 1.6-4.65 1.4l-4.2-2.15-4.95-2.55q-4.45-1.85-8.3-4.4-4.6-3-4.6-4.85 3.65-6 4.2-7.45l-3.2.5-5.1 1.1-8.9 1.7q-3.45.7-9.8 5.9l2.9-5.25.1.25 4.75-2.4m81.4 31.65q-1.2-4.5-3.35-7.35l-2.25-3.2q-.95-1.9-.95-4.8l.2-1.7q.35-1.4 1.1-1.4 1.2 0 4.9 4.7l.4.5q3.8 7.35 1.3 14.5l-1.35-1.25M25.4 38.2q-1.65-1.3-2.9-2.95l-1.2-1.8.15-.5.9-3.55q.3-1.3 1.1-1.75l1.9-.85.2 3.4.2 5.2v1.45l-.35 1.35m-9.2 5.25q-1.25-2.65-3-3.4l.05-.45 1.9-1.1 1.6-1.5h.4v1.6l-.6 2.55q-.25 1.2-.35 2.3" fill="#b2c1ec" fill-rule="evenodd" transform="translate(60.45 66.5)"/><path d="M20.6 28.4q-3.25 4.5-7.15 8.4 3.45-4.8 6.3-10.35 2.85-5.5 5.8-13.1v-.05h-.1l-7.3-.85q-3.3-.85-4.55-3.3 6.3 2.6 12.65 1.55l.65 1.1-.05 1.2q-.7 5.5-6.25 15.4" fill="#b35355" fill-rule="evenodd" transform="translate(60.45 66.5)"/><path d="M-43.95.15q-1.05-1.2-1.15-2.4v-.3l.3-3.15.35-2.7.6-4.05 1.05.75-.5 2.9-.1 1.1-.2 1.8-.35 6.05" fill="#fdfeff" fill-rule="evenodd" transform="translate(60.45 66.5)"/><path d="m-40.05 15.5-.35.65-.8 1.3-2.15 3.45q-2 5-3.2 5-.85 0-1.45-1.15l-1.45-2.65q-1.8-2.55-4.1-3.75l.35-.95q.6-1.75 1.15-2.05l.6-.45.15-.05.2-.1.45-.15 1.35-.4h.05l-.4.45-.85 1.55-.2.15-.25.25-.3.75q0 .45.8 1.2l.05.05-.05.35q0 .55 1 1.75 1.05 1.3 1.8 1.3l1.8-.3 1.1-1.9.9-1.75q.6-1.2.6-1.8 0-.3-1.35-1.15l-.55-1.1-.45-.5 2.9-.2q.85.2 2.05 1.5l.6.7" fill="#372300" fill-rule="evenodd" transform="translate(60.45 66.5)"/><path d="m-49.25 14.2 1-.25 1.45-.25 1.2-.2.45.5.55 1.1.05.4q0 1.1-1.3 2.9-1.4 1.9-2.65 1.9-.6 0-1-.4l-.25-.35-.5-.55v-.2h.15l1.3-.25q.45-.3.45-1.15 0-.65-.6-1l-1.15-.3-.4.1.85-1.55.4-.45m2 2.1-.3.1-.1.05-.3.25v.9h.7l.6-.8q0-.5-.6-.5" fill="#8e6013" fill-rule="evenodd" transform="translate(60.45 66.5)"/><path d="M-50.1 18.8h-.15v.2l.5.55.25.35q.4.4 1 .4 1.25 0 2.65-1.9 1.3-1.8 1.3-2.9l-.05-.4q1.35.85 1.35 1.15 0 .6-.6 1.8l-.9 1.75-1.1 1.9-1.8.3q-.75 0-1.8-1.3-1-1.2-1-1.75l.05-.35.3.2" fill="#5b3b02" fill-rule="evenodd" transform="translate(60.45 66.5)"/><path d="M-46.55 27.05h.15q1.35-.05 2.35-1.95l1.55-2.9 1.8-3.3.15-.2-.35 2.9-.45 3.8q-.15.65-.9 1.35l-1.7 1.35-.65.45-1.95-1.5" fill="#b1c2ed" fill-rule="evenodd" transform="translate(60.45 66.5)"/><path d="M-40.05 15.5q.6.8.6 1.3l-1.1 1.9-.15.2-1.8 3.3-1.55 2.9q-1 1.9-2.35 1.95h-.15q-1.35-.1-3.4-2.75l-3.7-4.9q-.15-.2.1-1.05 2.3 1.2 4.1 3.75l1.45 2.65q.6 1.15 1.45 1.15 1.2 0 3.2-5l2.15-3.45.8-1.3.35-.65" fill="#1c1302" fill-rule="evenodd" transform="translate(60.45 66.5)"/><path d="M-37.9 32.55q6.2 1.65 9.35 2.65l.9.25 3.25.65 1.85.2.25.05 1.05 1.55q-7.65.15-16.6-4.95l-.05-.4" fill="#ee9d8c" fill-rule="evenodd" transform="translate(60.45 66.5)"/><path d="m-37.95 33.25.1-.25v-.05q8.95 5.1 16.6 4.95l.3.6.05.2q1.2 3.65-3.95 5.7l.15-.2 1.55-1.7-.1-.1q-2.9-.45-5.4-1.3-3.1-1.05-4.4-2.4l-.2-.2-2.95-2.9-1.75-2.35" fill="#8494e1" fill-rule="evenodd" transform="translate(60.45 66.5)"/><path d="M-11.1 23.25q.15-.35.9-.3.7.05 1.9.7 1.35.75 1.35 1.75l-1.15-.95-1.15-.25-4.65 3.75q-4.9 3.75-7.75 3.75l-1.6-.25-1.2-1.25 2.15.35q3.05-.3 6.25-2.5l5.3-4.05-.55-.2.2-.55" fill="#22040c" fill-rule="evenodd" transform="translate(60.45 66.5)"/><path d="m-25.4 47.15.2-.05q.7 0 2.65 4.65l1.5 2.9-.6.15q-2.4 0-2.2-2.5v-.1l-.3.2-.3-2.75q-.2-1.85-.95-2.5" fill="#a7b4e8" fill-rule="evenodd" transform="translate(60.45 66.5)"/><path d="M3.35 64.6q1.3-.65 2.15-1.8 1.05-1.4 1.05-2.85 0-1.7-.55-1.95l-2.85-.7q-1.4-.45-2.2-.9-.4-.2-.7-.95-.25-.65-.6-.65l-.85.1-.6.25.4-1.75q.5-1.45 1.15-1.65l.75.9-.05.3.05.6q.15 1.3 1.1 1.7l2.45.15q3.6-.05 3.6 4.3l-.2 1.75-.4 1.85-.05.15q-1.3.8-3.15 1.15h-.5m-24.9.8-1.4.1-3.15-.3q-1.25-.3-2.15-1l2.05.5q1.75 0 3.35-1.3 1.6-1.35 1.6-2.85l-.1-.35-2.55-.25q-1.05-.45-1.05-1.6l.15-.8.35.45.65.5 1.15.4h.45q1.2 0 2.05-1l.05-.05.55 1q.5.7.5 1.75 0 1.7-1.5 3.7l-1 1.1" fill="#b3c2eb" fill-rule="evenodd" transform="translate(60.45 66.5)"/><path d="m7 63.45.05-.15.4-1.85.2-1.75q0-4.35-3.6-4.3l-2.45-.15q-.95-.4-1.1-1.7l.15.25h.6l.5-.2 1.6.45.4.05.55-.15.8-.35 1.15.4q1.3.25 1.5.9l.5 2.3v1.95q0 2.05-.35 3.65l-.9.65" fill="#8393e0" fill-rule="evenodd" transform="translate(60.45 66.5)"/><path d="m-19.35 55.5.45.5.85 1.3q.7 1.45.7 3 0 4.5-4.2 5.1l1-1.1q1.5-2 1.5-3.7 0-1.05-.5-1.75l-.55-1q.75-.95.75-2v-.35M7.5 50.8q2.6 2.55 2.55 5.95-.05 3.35-1.5 5.3l-.65.75q.35-1.6.35-3.65V57.2l-.5-2.3q-.2-.65-1.5-.9l-1.15-.4q1.1-.7 2.1-2.3l.25-.4.05-.1" fill="#ec9b8a" fill-rule="evenodd" transform="translate(60.45 66.5)"/><path d="m-22.65 58.9-1.15-.4.9-2.25 1.55.25v.6l-.95 1.4-.35.4m26-4.85-1.6-.45.55-.55q.45-.55.45-1.1l-.3-.95.55-.45.55.05.75-.1.15.1q.4.3.4.7 0 .8-.55 1.65l-.5.6-.45.5" fill="#2ec5ce" fill-rule="evenodd" transform="translate(60.45 66.5)"/><path d="m-1.55 47.75.2.05q1.3 1.95 3.6 3.3l.2-.1.3.95q0 .55-.45 1.1l-.55.55-1.25-.95-.75-.9q-1-1.5-1.3-4M-23.8 58.5l-.65-.5-.35-.45q-.55-.8-.55-1.9 0-.9.5-1.95.3 1.2 1.15 1.95l.25.25.55.35-.9 2.25" fill="#a7e7f0" fill-rule="evenodd" transform="translate(60.45 66.5)"/><path d="m-21.05 54.65.1-.05.15.45.55 2.05.15.75-.05.05q-.85 1-2.05 1h-.45l.35-.4.95-1.4v-.6l-1.55-.25-.55-.35-.25-.25q-.85-.75-1.15-1.95l.25-.55-.3.4.45-.75q.25-.3.6-.5-.2 2.5 2.2 2.5l.6-.15M4.3 50.5q.65-.25 1.4-.85l1.05-1 .5-.35.1 1.3.1 1.25v.05l-.25.4q-1 1.6-2.1 2.3l-.8.35-.55.15-.4-.05.45-.5.5-.6q.55-.85.55-1.65 0-.4-.4-.7l-.15-.1" fill="#3c7b80" fill-rule="evenodd" transform="translate(60.45 66.5)"/><path d="m-20.95 54.6.9-.8.4.65.3 1.05v.35q0 1.05-.75 2l-.15-.75-.55-2.05-.15-.45M8.5 46.2q.25 2.3-1 4.6l-.05.1v-.05l-.1-1.25-.1-1.3-.5.35-1.05 1q-.75.6-1.4.85l-.65-.5q1.3-1.2 1.95-2.6l.6-.2 2.3-1" fill="#e4b36e" fill-rule="evenodd" transform="translate(60.45 66.5)"/><path d="m19.1-53.5-3.9-1.55-2.65-.95M49-12.75q-1.55-3.95-4.25-6.75l-2-1.8M-27.2-50.35l.05-.05q2.95-2.75 6.1-4.8m-26.5 49.4-2.2.25q-3 .55-4.85 2.15m3.55 12.7.3.7m47.5 28.75.05-.25.25-1.6m-18.3 1-1.05-1.55-.25-.05m-15.3-3.3v-.05q8.95 5.1 16.6 4.95l.3.6.05.2q1.2 3.65-3.95 5.7l-1.5.5.2.1.4.2.15.05 3.7 1.4h.15q-.3.95.75 4.05.95 2.75 1.05 2.35m-17.95-20.5.05.4m29.35 6.6.15-.35.25.8q1 3.1 2.5 5 1.7 2.2 4.05 2.75l.2.05-.25-.35-.75-1.45-.4-1q-.85-2.5-.55-5.7l.05-.55m-33.2 12.05h.2m15.2 3.85.1-.05.9-.8m-4.1-1.4.3-.2v.1q-.2 2.5 2.2 2.5l.6-.15m-5-7.25h.2m17.35-7.85q-1.05 2.6-2.55 4.3L-12.2 45q-3.75 3.15-9.55 1.65m-22.8-41.1-2.9 5.25-1.85 3.4M3.35 64.6h.5Q5.7 64.25 7 63.45l.9-.65.65-.75q1.45-1.95 1.5-5.3.05-3.4-2.55-5.95m-7.75.95q-.65.2-1.15 1.65l-.4 1.75m0 .25-.05.75q0 2.85 1.9 4.75 1.7 1.7 4.45 2.15l.05-.6-.2-.85m-32.6 2.6-.5-.5h.1m4.4-11.3h.1m-6.85.5q.4.4 0 .15l-.05.15V53l.05.05m70.95-34.2-.3-.45M28.6 27.55q-.65 5.75-2.85 10.65l-.1.2-.25-.2q-1.65-1.3-2.9-2.95l-1.05 3.25-2 3.3-2.7 2.9-.55-1.25q-1.25-2.65-3-3.4Q12.8 43 10.35 45L8.6 46.15m4.55-8.9.1 1.25v1.1l-.05.45m-.1-2.9.05.1M5.6 47.4l.6-.2 2.3-1m-2.9 1.2.2-1.2-.1-.7m15.6-12.05 1.2 1.8m6.1-7.7.35-3.4M3 50.55l-.55.45-.2.1q-2.3-1.35-3.6-3.3M3 50.55l.65-.55q1.3-1.2 1.95-2.6M3.35 64.6h-.8l1.35-.75.6-.8" fill="none" stroke="#48397c" stroke-linecap="round" stroke-linejoin="round" transform="translate(60.45 66.5)"/><path d="m37.1 27.35 3.1 5.45.2.3-.25.9-.7 2.2-1.55 5-.4 1.3-2.45.1-1.75.1h-.7l.1-.3.05-.1.45-1.6-.65-.95-2.2-3.3-1.2-1.85M99.1 60.1l2.6 1 3.6 10.7-1.7.85-9.2 4.55-.35-.1-2.1-.6-1.25-.35-1.4-.4-10-2.85-1.8-2.75-1.7-2.55 1.2-1 .1-.05.6-.55-3.45-1.2-.55-.2 3.15-3.55-1.1-.6-.2-.15-.75-.4 5.1-6 7.5-1.3.65.95 1.9 2.65.25.35 1.4.55 2.45 1 5.05 2m-20.7 1.8-1.55-.85m1.9 1.1.15.05-1.5 2.8 9.95.8h.25l.4-.4 1.05-1m-10.3-2.25-.35-.25m13.35-3.2-1.55-2.15m1.9 4.9-2.8 2.7m2.9-2.85.8-.8-.75-1.05-.5-.75m.35 2.75.1-.15M10.3 47.9 7 34.75l-.1-.45m25.35 9.55.35-1.15m-3.65-8.4-.35-.55L27.4 32l-2.6-1.45-.95-.5 1.65-8.45 9.15 3.75 1.65.65.8 1.35m-15.8 1.3-7.9-4.35m11.9 30.9 4-1.5 2.95-9.85m-21.7 5L10.8 50l5.8 4.05 1.05.75.2.15 2.85 1.95 4.6-1.7m-15-7.3.25.95m10.9-20.1 2.4 1.3" fill="none" stroke="#0e2a74" stroke-linecap="round" stroke-linejoin="round" stroke-width=".5"/><path d="M13.4 24.3 3 18.6l3.9 15.7" fill="none" stroke="#0e2a74" stroke-linecap="round" stroke-linejoin="round" stroke-width="2"/><path d="M83.3 10.55q-4.4-2-8.6-3.25-20-6.05-35.3 4-2.35-5.05-6.75-7.9l-.2-.1Q30.45 2 28 1.2l-.5-.2q1.7 9.55-14.1 23.3m99.05 68.5 3.2.45q-3.55-2.8-4.45-13.75l-.3-5.2q1.7-12.6-1.45-20.55l3.45.6 1.45.5q3.05 1.25 5.55 3.65-5.8-21.8-22.4-35-2.65-2.1-5.55-4-5.7-3.65-12.4-6.5l7.65-.6-3.9-1.85M5.5 62.2l.05.1.3.8-.35.25Q2.95 65.7 1.95 68.4l-.25.85-.05.05-.05.05-.6 1.7.4-.3.25-.15q1.05-.7 2.9-.35 1.85.3 3.1 2.3L9.4 75.8q-1.5-1.05-3.6.65-2.15 1.7-1.9 2.55h.55q3.35.1 4.9 2.25M6.9 34.3Q-.8 45.25 5.5 62.2m10.35 32.85.65.45q2.45 1.8 4.85 3.2l.9.55.35.2m-.1.3.1-.25m-.1.25-1 1.5-1.25 2.75-.35 1q-.45 1.55-.5 3.3v.8q.05 2.35.8 3.7l.95 1.7q1.55 1.9 2.85 2.8m.2 0-.8-1.05-.4-1.3m0-.25q0-1.2 1.2-2.25 1-.9 2-1.15h2.6q-1.05.55-1.4 1.9-.3.95-.05 2.15l.25 1v.1q.55 1.75 1.15 2.25l.45.45.25.25q.25-1.45 2-3.05l2.8-2.3.15-.15m-11.4 1v-.2m11.6-.8-.3.45q-1.1 1.7-1.1 3.75 0 1.65.55 3.05l.45 1 .7-1.15.65-.9.3-.45m-20-24.6-1.95-1.5M41.1 122l.45.5.85 1.3q.7 1.45.7 3 0 4.5-4.2 5.1l-1.4.1-3.15-.3q-1.25-.3-2.15-1m-.4-.5 2.05-.1q1.05-.45 1.05-1.45t-1.1-1.9q-1.1-.95-1.1-2.8 0-1.3.3-1.9l.75-.9M36 119.3l.2-.4m66-30.6-.3-.55-1.5-2.4q1.45 1.95 3.35 3.45 3.4 2.75 8.2 3.9l.5.1m-10.25-4.5q3.8 7.35 1.3 14.5l-1.35-1.25q-4.1-3.6-7.15-5.45-3.8-2.4-5.95-2.05" fill="none" stroke="#48397c" stroke-linecap="round" stroke-linejoin="round" stroke-width="2"/><path d="M63.9 14.7q11.1-1.05 17.45 3.8 2.4 1.85 4.15 4.6l.25.4.9 1.6q2.85 5.95 3.05 15.3 4.3 8.2 4.35 17.7M53.9 19.9q3.2-2.9 8.3-5l1.7-.2m7.7 13.85.25.2.15.15q1.25 1.15 1.95 3.45l.5 2.7.1.8q.1 4.15-3.3 7.75-2.35 2.4-5.3 3.35M53.9 19.9q-1.85 1.65-3.05 3.6-2.95 4.7-2 11l.55 2.75.1.25q.6 2.95 2.6 5.3l.85.95q1.85 1.8 4.05 2.75l1.75.6 3.35.4h.65l2.85-.4m6-18.55q-2-1.55-4.7-2.45m23.8 50.05-1.3 3.35-.9 2.1-3.5 7.1-.4.7-3.55 5.5q-3.25 4.5-7.15 8.4m-5.25 4.8 1.25-1.05.9-.8 1.35-1.25 1.4-1.35" fill="none" stroke="#104c56" stroke-linecap="round" stroke-linejoin="round" stroke-width="1.5"/><path d="m7.85-12.55.2 1.05q.7 4.5-2.3 14.75l-.15.4-.05.2-.1.4q4.05 3.2 8.15 4.9 6.3 2.6 12.65 1.55l.6-.1.05 1.2-.05 1.2q-.7 5.5-6.25 15.4M-3.45-20-10-17.05l-1.5.7q-.85.4-1.75.85-15.8 7.55-29.6 16.7l-1.1-1.05q-1.05-1.2-1.15-2.4-.3 3.75.05 6l.1.5.15.5.2.65.05.15m52.4-18.1q-.7-2.1-2.5-2.45-8.65 2.4-18.6 6.35Q-25.5-3.85-39.7 3.4l-4.75 2.4M8.8 37.5q1.8-14.45-3.2-24.1l-.2-.4-1.85-3 1.9-5.75m-50.55-6.8.3-3.15.35-2.7.6-4.05m-1.25 9.9v.3M-21-30.3l7.75-.95q1.55-.35 1.65-.75M8.55 38.5l.25-.75v-.25m-10.4 9.95.05.3q.3 2.5 1.3 4l.75.9 1.25.95 1.6.45.4.05.55-.15.8-.35q1.1-.7 2.1-2.3l.25-.4.05-.1q1.25-2.3 1-4.6l.1-.05m-28.65 7.65.4.65.3 1.05v.35q0 1.05-.75 2l-.05.05q-.85 1-2.05 1h-.45l-1.15-.4-.65-.5-.35-.45q-.55-.8-.55-1.9 0-.9.5-1.95l.25-.55-.3.4.45-.75q.25-.3.6-.5m37.3-15.5-.35.35M8.5 39.6l-.3 1.75-.05.25h.05m.35-3.1-.05 1.1" fill="none" stroke="#104c56" stroke-linecap="round" stroke-linejoin="round" transform="translate(60.45 66.5)"/><path d="m-40.55 18.7 1.1-1.9q0-.5-.6-1.3l-.6-.7q-1.2-1.3-2.05-1.5l-2.9.2-1.2.2-1.45.25-1 .25h-.05l-1.35.4-.45.15m4.55 12.3h.15q1.35-.05 2.35-1.95l1.55-2.9 1.8-3.3.15-.2m-4-13.15.1.25" fill="none" stroke="#230209" stroke-linecap="round" stroke-linejoin="round" transform="translate(60.45 66.5)"/><path d="m-26.7 54.65.95-.75" fill="none" stroke="red" stroke-linecap="round" stroke-linejoin="round" transform="translate(60.45 66.5)"/><path d="M6.9 84.85q-.25.85-.1 1.05l3.7 4.9q2.05 2.65 3.4 2.75m-4.55-12.3-.2.1-.15.05-.6.45q-.55.3-1.15 2.05l-.35.95" fill="none" stroke="#230209" stroke-linecap="round" stroke-linejoin="round" stroke-width="2"/></g><g id="i"><path d="M-1.85-8.5q5.25-5.05 11-9.9Q11.4-4.45 6.95 5.9l.35-2.75.15-4.55-.2-5.35q-.3-1.6-.8-1.5L3.75-6.8.15-4.75q-.8-2-2-3.75" fill="#8693e1" fill-rule="evenodd" transform="translate(29.2 19.55)"/><path d="M6.95 5.9Q4.4 11.8-.35 16.55l-1 .95q-6.2 1.65-13.2-.4l3.05.35 2.4-.2 2.3-.7q2.85-1.15 5.15-3.85 2.1-2.4 3-5.15.8-2.65.55-5.55L1.5-.6q1.4-1.3 1.4-3 0-1.1-1.7-1.1H.4l-.2.05-.05-.1 3.6-2.05 2.7-1.45q.5-.1.8 1.5l.2 5.35-.15 4.55-.35 2.75" fill="#c3cbf0" fill-rule="evenodd" transform="translate(29.2 19.55)"/><path d="m-3.95-3.4-1.1-2.05 3.2-3.05q1.2 1.75 2 3.75l-.5.25-.15.05-3.45 1.05m1.3 4.65Q-1 1 .55.05L1.5-.6 1.9 2q.25 2.9-.55 5.55-.9 2.75-3 5.15-2.3 2.7-5.15 3.85l-2.3.7-2.4.2-3.05-.35q-3.85-.95-6.85-4.4l-.15-.2 2.05-2.45.9 1.15q3.1 3.45 7.15 3.5 4.05 0 6.7-3.35 2.6-3.4 2.3-8.3l-.2-1.8" fill="#570605" fill-rule="evenodd" transform="translate(29.2 19.55)"/><path d="m-6.35-1.4-.1.55q0 .95.75 1.55l.1.1q.9 3.6-.45 6.65-1.35 3.2-4.3 4-2.95.8-5.75-1.3l-1.9-1.9.8-.9 1.55 1.3q2.35 1.5 4.6.65Q-8.8 8.45-8 5.75l.35-1.6V4.1q.95-.95.95-2.3 0-1.35-.95-2.3-.55-.55-1.25-.8l-.1-.15 1.65-1.7 1 1.75M-16 6l2.95-3.2.8 1.3q.95.95 2.3.95L-9.2 5q-.65 1.45-2 2.05-1.9.8-4.05-.55L-16 6" fill="#440405" fill-rule="evenodd" transform="translate(29.2 19.55)"/><path d="m-1.35 17.5-1.55 1.35q-3.15 1.65-6.2 1.95-7.25.65-13.85-6.55l-.05-.05 1.45-1.7.15.2q3 3.45 6.85 4.4 7 2.05 13.2.4" fill="#8494e2" fill-rule="evenodd" transform="translate(29.2 19.55)"/><path d="M-3.45-10.55q6.5-5.05 12.6-7.9v.05q-5.75 4.85-11 9.9l-.25-.4-1.35-1.65M-23 14.2l-2.65-3.25 1.8-2.05q.9 1.9 2.3 3.6L-23 14.2" fill="#3d4166" fill-rule="evenodd" transform="translate(29.2 19.55)"/><path d="M-7.65 4.15-8 5.75q-.8 2.7-3.05 3.55-2.25.85-4.6-.65l-1.55-1.3L-16 6l.75.5q2.15 1.35 4.05.55 1.35-.6 2-2.05l1.55-.85" fill="#920a0a" fill-rule="evenodd" transform="translate(29.2 19.55)"/><path d="M-6.9-7.85Q-6-7-5.25-5.8l.2.35-2.3 2.3q-.9-1.3-2.15-2.25l-.1-.1 2.7-2.35" fill="#6c1615" fill-rule="evenodd" transform="translate(29.2 19.55)"/><path d="m-11.25-4 .35.25 1.75 2.4-.8-.1q-1.35 0-2.3.95-.95.95-.95 2.3l.15 1L-16 6q-1.4-1.2-2.3-3.1 3.55-3.75 7.05-6.9" fill="#200202" fill-rule="evenodd" transform="translate(29.2 19.55)"/><path d="m-18 8.25-1.5 1.8q-1.25-1.8-1.8-4l1.5-1.55q.6 2.15 1.8 3.75m-.3-5.35q.9 1.9 2.3 3.1l-1.2 1.35q-1.2-1.3-1.95-3.2l-.1-.25.95-1m9.15-4.25-1.75-2.4q1.1.95 1.9 2.3l.1.15-.25-.05" fill="#4a0404" fill-rule="evenodd" transform="translate(29.2 19.55)"/><path d="M-3.45-10.55-2.1-8.9l.25.4-3.2 3.05-.2-.35Q-6-7-6.9-7.85l3.45-2.7M-9.6-5.5l.1.1q1.25.95 2.15 2.25L-9-1.45q-.8-1.35-1.9-2.3l-.3-.3 1.6-1.45M-21.3 6.05q.55 2.2 1.8 4l-2.05 2.45q-1.4-1.7-2.3-3.6l2.55-2.85m3.3 2.2q-1.2-1.6-1.8-3.75l.55-.6.1.25q.75 1.9 1.95 3.2l-.8.9" fill="#260202" fill-rule="evenodd" transform="translate(29.2 19.55)"/><path d="m-5.05-5.45 1.1 2.05-.25.05Q-6-2.6-6.35-1.4l-1-1.75 2.3-2.3M-5.6.8q.7.5 1.9.5l1.05-.05.2 1.8q.3 4.9-2.3 8.3-2.65 3.35-6.7 3.35-4.05-.05-7.15-3.5l-.9-1.15 1.5-1.8 1.9 1.9q2.8 2.1 5.75 1.3t4.3-4Q-4.7 4.4-5.6.8" fill="#f01414" fill-rule="evenodd" transform="translate(29.2 19.55)"/><path d="M-3.95-3.4-.5-4.45l.45-.1.6-.15h.65q1.7 0 1.7 1.1 0 1.7-1.4 3L.55.05Q-1 1-2.65 1.25l-1.05.05q-1.2 0-1.9-.5l-.1-.1q-.75-.6-.75-1.55l.1-.55Q-6-2.6-4.2-3.35l.25-.05m-5.2 2.05.25.05q.7.25 1.25.8.95.95.95 2.3 0 1.35-.95 2.3v.05L-9.2 5l-.75.05q-1.35 0-2.3-.95l-.8-1.3 3.9-4.15" fill="#fffffd" fill-rule="evenodd" transform="translate(29.2 19.55)"/><path d="m-13.05 2.8-.15-1q0-1.35.95-2.3.95-.95 2.3-.95l.8.1-3.9 4.15" fill="#747474" fill-rule="evenodd" transform="translate(29.2 19.55)"/><path d="M9.15-18.4v-.05q-6.1 2.85-12.6 7.9l-3.45 2.7-2.7 2.35-1.6 1.45-.05.05q-3.5 3.15-7.05 6.9l-.95 1-.55.6-1.5 1.55-2.55 2.85-1.8 2.05-.45.5-2.6 1M9.15-18.4Q11.4-4.45 6.95 5.9 4.4 11.8-.35 16.55l-1 .95-1.55 1.35q-3.15 1.65-6.2 1.95-7.25.65-13.85-6.55m-.05-.05-2.65-3.25m34.8-29.4 1.3-.6" fill="none" stroke="#230209" stroke-linecap="round" stroke-linejoin="round" transform="translate(29.2 19.55)"/></g><use ffdec:characterId="1" height="29.1" width="144.15" xlink:href="#j" id="b"/><use ffdec:characterId="3" height="28.4" width="41.6" xlink:href="#k" id="c"/><path d="M139.65 11.95q0 6.05-21.15 10.25-21.1 4.3-50.9 4.3-29.85 0-51-4.3Q-4.5 18-4.5 11.95T16.6 1.6q21.15-4.2 51-4.2 29.8 0 50.9 4.2 21.15 4.3 21.15 10.35" fill-opacity=".349" fill-rule="evenodd" transform="translate(4.5 2.6)" id="j"/></defs></svg>