<svg xmlns:ffdec="https://www.free-decompiler.com/flash" xmlns:xlink="http://www.w3.org/1999/xlink" ffdec:objectType="frame" height="90" width="90" xmlns="http://www.w3.org/2000/svg"><use ffdec:characterId="21" height="90.55" transform="translate(0 -.55)" width="90" xlink:href="#a"/><defs><g id="a" transform="translate(0 .55)"><use ffdec:characterId="18" height="171.5" transform="matrix(.5277 0 0 .5279 2.596 -.53)" width="157.95" xlink:href="#b"/><use ffdec:characterId="20" height="63.2" transform="scale(1.25 1.4241)" width="72" xlink:href="#c"/></g><g id="b" transform="translate(2.85 1.1)"><use ffdec:characterId="1" height="32.7" transform="translate(132.45 79.15)" width="15.65" xlink:href="#d"/><use ffdec:characterId="2" height="56.4" transform="translate(15.55 114)" width="139.55" xlink:href="#e"/><use ffdec:characterId="3" height="32.65" transform="translate(118.3 106.6)" width="23.05" xlink:href="#f"/><use ffdec:characterId="4" height="20.8" transform="translate(41.75 131.8)" width="28.45" xlink:href="#g"/><use ffdec:characterId="5" height="61.25" transform="translate(43.35 86.45)" width="95.55" xlink:href="#h"/><use ffdec:characterId="6" height="65" transform="translate(35 77.7)" width="110.6" xlink:href="#i"/><use ffdec:characterId="7" height="44.65" transform="translate(89.95 117.55)" width="33.4" xlink:href="#j"/><use ffdec:characterId="8" height="131.4" transform="translate(-1 -1.1)" width="136.2" xlink:href="#k"/><use ffdec:characterId="9" height="19.8" transform="translate(5.75 63.3)" width="9.45" xlink:href="#l"/><clipPath id="m" transform="translate(1.4 54.65)"><path d="M7.55 8.65q2.65 0 4.45 2.9 1.8 2.9 1.8 7t-1.8 7l-.75 1.1q-1.6 1.8-3.7 1.8-1.8 0-3.2-1.35.9-2.35 1.15-4.85l.05-3.6q-.05-5.1.7-9.8l1.3-.2" fill="#fff" fill-rule="evenodd"/></clipPath><g clip-path="url(#m)"><use ffdec:characterId="10" height="16.9" transform="translate(.9 62.6)" width="14.4" xlink:href="#n"/></g><use ffdec:characterId="11" height="30.25" transform="translate(5 54.15)" width="15.25" xlink:href="#o"/><use ffdec:characterId="12" height="29.25" transform="translate(47.6 64.85)" width="31.35" xlink:href="#p"/><clipPath id="q" transform="translate(43.05 58)"><path d="M31.8 12.65q3.35 3.95 4 9.6.75 6.65-4.45 10.25l-.1.1q-5.15 3.5-11.4 3.5-6.35 0-10.85-4.3-1.4-1.35-2.3-2.85l-.05-.05Q5.1 26.5 4.7 23.6q-.15-1.05-.15-2.2Q4.55 15.3 9 11q4.5-4.3 10.75-4.15Q26 7 30.5 11.3l1.3 1.35" fill="#fff" fill-rule="evenodd"/></clipPath><g clip-path="url(#q)"><use ffdec:characterId="13" height="36.2" transform="translate(42.55 58.7)" width="30.7" xlink:href="#r"/></g><use ffdec:characterId="14" height="39.7" transform="translate(46.35 58)" width="40.1" xlink:href="#s"/><use ffdec:characterId="15" height="14.95" transform="translate(8.65 98.5)" width="28.05" xlink:href="#t"/><use ffdec:characterId="16" height="36.75" transform="translate(3.2 67.55)" width="31.6" xlink:href="#u"/></g><g id="d"><path d="M6.6 19.65q5-5.5 1.9-10.25 4.85 1 2.8 9.2-1.35 3.7-3.15 3.05-1.8-.65-1.55-2" fill="#b7a773" fill-rule="evenodd" transform="translate(.5 .5)"/><path d="m10.9 6.4.6 2.2q7.85 6.9-3.85 23.1L2.6 23.2q2.4-1.8 4-3.55-.25 1.35 1.55 2 1.8.65 3.15-3.05 2.05-8.2-2.8-9.2-2.35 2.6-5.7 1.5Q-1.3 9.3.65 2.5.6 6.05 4.2 5.85l.85-.1Q6.8 5.6 8.4 5.8q1.3.15 2.5.6m-1.95.1-.55-.7.55.7" fill="#7b6033" fill-rule="evenodd" transform="translate(.5 .5)"/><path d="M.65 2.5 1.5 0q.8 4.1 5.55 3.7 1-.05 1.8.35l.5.3.05.05q.9.65 1.5 2-1.2-.45-2.5-.6-1.6-.2-3.35-.05l-.85.1Q.6 6.05.65 2.5M1.5 0q0 5.15 4.55 5.15l1.1.1 1.25.55-1.25-.55-1.1-.1Q1.5 5.15 1.5 0" fill="#e8dbae" fill-rule="evenodd" transform="translate(.5 .5)"/><path d="M.65 2.5 1.5 0q.8 4.1 5.55 3.7 1-.05 1.8.35l.5.3.05.05q.9.65 1.5 2l.6 2.2q7.85 6.9-3.85 23.1L2.6 23.2q2.4-1.8 4-3.55 5-5.5 1.9-10.25-2.35 2.6-5.7 1.5Q-1.3 9.3.65 2.5" fill="none" stroke="#402f15" stroke-linecap="round" stroke-linejoin="round" transform="translate(.5 .5)"/><path d="m8.9 6.3-1.25-.55-1.1-.1Q2 5.65 2 .5m6.9 5.8.55.7" fill="none" stroke="#402f15" stroke-linecap="round" stroke-linejoin="round" stroke-width=".5"/></g><g id="f"><path d="M1.65 27.1Q.75 24.7 0 21L12.85 3.3q5.35 3.1 3.25 15.3-3.05 1.1-2.85 5.05l-2.55-.15q-2.65 1.3-2.55 7.4l-.15.05Q6.2 23.7 1.65 27.1" fill="#86704b" fill-rule="evenodd" transform="translate(1)"/><path d="M4.85 31.5q-1.75-.45-3.2-4.4Q6.2 23.7 8 30.95l-3.15.55M16.1 18.6l.95-.25Q16 22 14.6 24.7l-1.35-1.05 1.35 1.05q-2.6 4.7-6.45 6.2-.1-6.1 2.55-7.4l2.55.15q-.2-3.95 2.85-5.05" fill="#b3a46b" fill-rule="evenodd" transform="translate(1)"/><path d="m19.45 1.55 1.6.6-2.2 16-1 7.15-1.3 2.15q-3.05 3.85-8.4 4.2v-.75q3.85-1.5 6.45-6.2 1.4-2.7 2.45-6.35 1.85-6.7 2.4-16.8m-.6 16.6-1.8.2 1.8-.2m-2.3 9.3L14.6 24.7l1.95 2.75" fill="#62587d" fill-rule="evenodd" transform="translate(1)"/><path d="m12.85 3.3 2.4-3.3 4.2 1.55q-.55 10.1-2.4 16.8l-.95.25q2.1-12.2-3.25-15.3" fill="#513d1c" fill-rule="evenodd" transform="translate(1)"/><path d="m19.45 1.55 1.6.6M16.1 18.6l.95-.25 1.8-.2m-5.6 5.5 1.35 1.05 1.95 2.75m-.45-8.85q-3.05 1.1-2.85 5.05l-2.55-.15q-2.65 1.3-2.55 7.4v.75m-.15-.7.15.65m-6.5-4.5Q6.2 23.7 8 30.95" fill="none" stroke="#402f15" stroke-linecap="round" stroke-linejoin="round" transform="translate(1)"/><path d="m22.05 2.15-2.2 16-1 7.15-1.3 2.15q-3.05 3.85-8.4 4.2l-3.3-.15q-1.75-.45-3.2-4.4Q1.75 24.7 1 21" fill="none" stroke="#402f15" stroke-linecap="round" stroke-linejoin="round" stroke-width="2"/></g><g id="g"><path d="m8.15 10.1.3 2.1q3.55-5.9 6.2-1.7 1.1 1.75 1.7 3.5 3.1-5.7 8.35-1.55-2 4.65-4.75 5.9l-3.15.45q-4.1.2-8.6-1.65-1.75-.7-3.55-1.7-2.8-1.5-3.9-6.2 2.5-4.75 6.4-1.55.6.75 1 2.4m.3 2.1-.25 4.95.25-4.95m7.9 1.8q.75 2.4.45 4.8.3-2.4-.45-4.8" fill="#b5a66f" fill-rule="evenodd" transform="translate(1 1)"/><path d="M2.95.6q13-2.65 23.5 6.7l-1.75 5.15Q19.45 8.3 16.35 14q-.6-1.75-1.7-3.5-2.65-4.2-6.2 1.7l-.3-2.1Q9.6 4.75 2.95.6" fill="#796038" fill-rule="evenodd" transform="translate(1 1)"/><path d="M2.95.6q6.65 4.15 5.2 9.5-.4-1.65-1-2.4-3.9-3.2-6.4 1.55Q0 6.05 0 1.35L2.95.6" fill="#dccf9b" fill-rule="evenodd" transform="translate(1 1)"/><path d="m25.7 13.45 1.75-5.15q-10.5-9.35-23.5-6.7M25.7 13.45q-2 4.65-4.75 5.9l-3.15.45q-4.1.2-8.6-1.65-1.75-.7-3.55-1.7-2.8-1.5-3.9-6.2Q1 7.05 1 2.35" fill="none" stroke="#402f15" stroke-linecap="round" stroke-linejoin="round" stroke-width="2"/><path d="m8.15 10.1.3 2.1q3.55-5.9 6.2-1.7 1.1 1.75 1.7 3.5 3.1-5.7 8.35-1.55M0 1.35 2.95.6M.75 9.25q2.5-4.75 6.4-1.55.6.75 1 2.4m8.65 8.7q.3-2.4-.45-4.8M8.2 17.15l.25-4.95" fill="none" stroke="#402f15" stroke-linecap="round" stroke-linejoin="round" transform="translate(1 1)"/></g><g id="h"><path d="M84.15 28.05q.15.25-.4.75l-1.3 1-1.55.65-.8-.05q-.1-.2.4-.7l1.35-.95q.8-.5 1.5-.7.7-.2.8 0" fill="#e9dca8" fill-rule="evenodd"/><path d="M14.3 53.3 0 44.55l3.7-22.4L83.8 0q19.1 11.1 7.2 25.55-1.95-3.05-4.75-3.4-11.15 10.4-27 13.05-1.3 1-3.2 6.25-1.35 5.15-6.55 5.75l.25 5.35q-2.85 3.25-7.6 4.55-15.55.55-27.85-3.8" fill="#513d1c" fill-rule="evenodd"/><path d="M84.15 28.05q-.1-.2-.8 0-.7.2-1.5.7l-1.35.95q-.5.5-.4.7l.8.05 1.55-.65 1.3-1q.55-.5.4-.75m6.85-2.5-2.4 2.6q-1.45 1.35-4.3 7.45Q77.9 45.7 64 52.8l-.45.2Q56.4 56.15 50 57.95l-.25-5.4-.25-5.35q5.2-.6 6.55-5.75 1.9-5.25 3.2-6.25 15.85-2.65 27-13.05 2.8.35 4.75 3.4" fill="#856f4a" fill-rule="evenodd"/><path d="M50 57.95Q29.05 63.8 16.25 54.8q16.65 4.8 25.9 2.3 4.75-1.3 7.6-4.55l.25 5.4" fill="#635880" fill-rule="evenodd"/><path d="m16.25 54.8-1.95-1.5q12.3 4.35 27.85 3.8-9.25 2.5-25.9-2.3" fill="#86704b" fill-rule="evenodd"/><path d="M88.6 28.15Q85.45 40.9 78.7 45.2 71 49.65 64 52.8q13.9-7.1 20.3-17.2 2.85-6.1 4.3-7.45" fill="#67597c" fill-rule="evenodd"/><path d="M88.6 28.15Q85.45 40.9 78.7 45.2 71 49.65 64 52.8m-.45.2Q56.4 56.15 50 57.95 29.05 63.8 16.25 54.8l-1.95-1.5" fill="none" stroke="#402f15" stroke-linecap="round" stroke-linejoin="round" stroke-width="2"/></g><g id="i"><path d="m91.95 4.6.5 2.75q1.8 11.15.6 17.9l-.85 3.3Q90.85 5.1 87.1 4.75h-5.55Q73.05 6 73.2 1.1q16.3-2.95 18.45 2l.3 1.5" fill="#dcd5b9" fill-rule="evenodd" transform="translate(1 1)"/><path d="M73.2 1.1q-.15 4.9 8.35 3.65h5.55q3.75.35 5.1 23.8-14.7 11.35-29.85 12.5l-.3-3.4q3-11.05.55-25.45.7-7.5 6.9-10.35l3.7-.75m-1.05 21.95-3.3 11.3q5.55 1.75 14-3.3 6.05-3.25 6.05-6.55V14.45q-13.8 2-16.75 8.6" fill="#736e82" fill-rule="evenodd" transform="translate(1 1)"/><path d="m101.05 18.35 1.05 3.55q3.15 9.4 3.2 16.75-.95-7.05-4.5-10.3-8.3-9.25-4.9-11.85 2.75-.25 5.15 1.85m-40.2 10.2q-3.05 5.7-.95 12.9 2.45 5.7-9.75 11.4-5.9 1-10.4-2.5 2.75-2.1 7.65-4.3 5.35-3.55 8.1-13.45l5.35-4.05m11.3-5.5q2.95-6.6 16.75-8.6V24.5q0 3.3-6.05 6.55-8.45 5.05-14 3.3l3.3-11.3m-23.4 34.7-.8 3.6q-3.75-2.7-9-3.75-15.6-1.3-14.7-3.25 5.2-3 12.5-.2l3.9 2.25q2.9 1.9 8.1 1.35m-26.25.15q-8.35 2.45-16.2.15 1.35-1.1 2.95-2.05L8 51.45l20.65-.3-8.35.95q-1.5 4.95 2.2 5.8m-2.2-5.8Q13.85 53.3 9.25 56q4.6-2.7 11.05-3.9" fill="#a49e88" fill-rule="evenodd" transform="translate(1 1)"/><path d="M6.3 58.05h-.15q-.9-8.65-3-14.35Q6.1 45.75 8 51.45L9.25 56q-1.6.95-2.95 2.05" fill="#d7ccb8" fill-rule="evenodd" transform="translate(1 1)"/><path d="M93.05 25.25q1.2-6.75-.6-17.9 5.7 2.85 8.6 11-2.4-2.1-5.15-1.85-3.4 2.6 4.9 11.85 3.55 3.25 4.5 10.3.05 3.65-.7 6.8-3.2-1.5-2.65-7.95.9-8.15-8.9-12.25M69.5 1.85Q63.3 4.7 62.6 12.2q2.45 14.4-.55 25.45l.3 3.4q.2 5.85-1.7 7.55-4.8 4.25-9.15 5.95 3.95 3.65-2.15 8.45-17.85-2.55-26.85-5.1-3.7-.85-2.2-5.8l8.35-.95 6.15-.1q3.55.95 7.3 4.05 4.4 1.4 9.4-.55-5 1.95-9.4.55-3.75-3.1-7.3-4.05l-6.15.1-20.65.3q-1.9-5.7-4.85-7.75Q1.9 40.35.2 38-3.5 1.4 69.5 1.85m-8.65 26.7L55.5 32.6q-2.75 9.9-8.1 13.45-4.9 2.2-7.65 4.3 4.5 3.5 10.4 2.5 12.2-5.7 9.75-11.4-2.1-7.2.95-12.9m-12.1 29.2q-5.2.55-8.1-1.35l-3.9-2.25q-7.3-2.8-12.5.2-.9 1.95 14.7 3.25 5.25 1.05 9 3.75l.8-3.6" fill="#726d81" fill-rule="evenodd" transform="translate(1 1)"/><path d="m92.45 7.35-.5-2.75q9.3-.4 14.15 23.6l2.5 7.2q-.05 9-2.4 10.45l-1.6-.4q.75-3.15.7-6.8-.05-7.35-3.2-16.75l-1.05-3.55q-2.9-8.15-8.6-11" fill="#d6ccb3" fill-rule="evenodd" transform="translate(1 1)"/><path d="m92.45 7.35-.5-2.75m1.1 20.65q1.2-6.75-.6-17.9M69.5 1.85Q63.3 4.7 62.6 12.2q2.45 14.4-.55 25.45l.3 3.4m-33.7 10.1 6.15-.1q3.55.95 7.3 4.05 4.4 1.4 9.4-.55m-22.85-3.4-8.35.95q-1.5 4.95 2.2 5.8m-16.2.15q1.35-1.1 2.95-2.05 4.6-2.7 11.05-3.9" fill="none" stroke="#383740" stroke-linecap="round" stroke-linejoin="round" transform="translate(1 1)"/><path d="m92.95 5.6-.3-1.5Q90.5-.85 74.2 2.1l-3.7.75Q-2.5 2.4 1.2 39q1.7 2.35 2.95 5.7 2.1 5.7 3 14.35h.15q7.85 2.3 16.2-.15 9 2.55 26.85 5.1 6.1-4.8 2.15-8.45 4.35-1.7 9.15-5.95 1.9-1.7 1.7-7.55Q78.5 40.9 93.2 29.55l.85-3.3q9.8 4.1 8.9 12.25-.55 6.45 2.65 7.95l1.6.4q2.35-1.45 2.4-10.45l-2.5-7.2q-4.85-24-14.15-23.6z" fill="none" stroke="#383740" stroke-linecap="round" stroke-linejoin="round" stroke-width="2"/></g><g id="j"><path d="M27.7 10.05q-.45 10.5.1 15.85.35 3.65.2 6.35l-.3 2.25q-1.4 4.85-6.5 7.1l-.35-2.95q4.9-1.5 4.05-9.6-.25-12.45 2.8-19m.3 22.2q-1.05-2.85-3.1-3.2 2.05.35 3.1 3.2" fill="#625a83" fill-rule="evenodd" transform="translate(1 .25)"/><path d="M24.9 29.05q-1.7 0-2.8 1.45-5.5-12.3 5.6-20.45-3.05 6.55-2.8 19" fill="#513d1c" fill-rule="evenodd" transform="translate(1 .25)"/><path d="M9.1 34.15q5.55-2.6 5.7-11.8 5.9 0 6.3-9.9 6.8-3.7 10.3-11.7l-3.7 9.3Q16.6 18.2 22.1 30.5q1.1-1.45 2.8-1.45.85 8.1-4.05 9.6l-.65-2.6q.55-3.8 1.9-5.55-1.35 1.75-1.9 5.55-1.4-4-4.4-4.35-4.55-.7-5.1 7.3-.4-3.15-1.6-4.85" fill="#866d4f" fill-rule="evenodd" transform="translate(1 .25)"/><path d="M.35 22.3q.75-4.6 2.3-5.2 2.3-.95 3.95-2.6 4.55-6.25 6.8-6.05Q20 6.6 26.2 2.15q4.45-3.45 5.2-1.4-3.5 8-10.3 11.7-.4 9.9-6.3 9.9-.15 9.2-5.7 11.8l-.9-.95q-4.4-2-5.4 5.7 1-7.7 5.4-5.7l.9.95q1.2 1.7 1.6 4.85.55-8 5.1-7.3 3 .35 4.4 4.35l.65 2.6.35 2.95-3.2 1-7.15.75q-6.6-.4-8.05-4.45l-.9-2.7L.35 22.3m7-.35Q6.6 20.6 5.5 20.6t-1.85 1.35Q2.9 23.3 2.9 25.2t.75 3.25Q4.4 29.8 5.5 29.8t1.85-1.35q.75-1.35.75-3.25t-.75-3.25m3.5 21.4q.1-2.45-.15-4.35.25 1.9.15 4.35" fill="#b5a66f" fill-rule="evenodd" transform="translate(1 .25)"/><path d="M7.35 21.95q.75 1.35.75 3.25t-.75 3.25Q6.6 29.8 5.5 29.8t-1.85-1.35Q2.9 27.1 2.9 25.2t.75-3.25Q4.4 20.6 5.5 20.6t1.85 1.35" fill="#eadda9" fill-rule="evenodd" transform="translate(1 .25)"/><path d="m1.35 22.55 1.55 13.9.9 2.7q1.45 4.05 8.05 4.45l7.15-.75 3.2-1q5.1-2.25 6.5-7.1l.3-2.25q.15-2.7-.2-6.35-.55-5.35-.1-15.85L32.4 1M1 19.55l.35 3" fill="none" stroke="#402f15" stroke-linecap="round" stroke-linejoin="round" stroke-width="2"/><path d="M2.8 38.9q1-7.7 5.4-5.7l.9.95q1.2 1.7 1.6 4.85.25 1.9.15 4.35m14.05-14.3q2.05.35 3.1 3.2m-7.15 6.4.35 2.95m-1-5.55.65 2.6m1.25-8.15q1.1-1.45 2.8-1.45m-2.8 1.45q-1.35 1.75-1.9 5.55-1.4-4-4.4-4.35-4.55-.7-5.1 7.3" fill="none" stroke="#402f15" stroke-linecap="round" stroke-linejoin="round" transform="translate(1 .25)"/></g><g id="k"><path d="M14.35 15.95q3.7-6.5 4.1-15.95 1.2 8.95-1.3 16.25-1.1 6.65 7.2 13.25 1.65.9 2.15 4.75-.1 4.15-4.2 6.5-6.8-5.5-5.3-11.85.7-1.55.25-2.75l-.55-.8-.8-1.75q-1.05-2.8-1.55-7.65" fill="#513d1c" fill-rule="evenodd" transform="translate(1 1)"/><path d="m16.7 25.35.55.8q.45 1.2-.25 2.75-1.5 6.35 5.3 11.85l-2 .95-4.55-.95q-1.5-2.1-2.35-3.95l-.4-1q-2.55-6.75 3.7-10.45" fill="#86704b" fill-rule="evenodd" transform="translate(1 1)"/><path d="M21.45 6.4Q23.7 9.95 26.6 12q12.3 8.6 15.05 20.1-4.05 9.05-15 5.35l-.05-1.75q4.45-.45 1.5-5.85-5.65-10.1-6.65-23.45" fill="#b5a66f" fill-rule="evenodd" transform="translate(1 1)"/><path d="M18.45 0q1.3 3.65 3 6.4 1 13.35 6.65 23.45 2.95 5.4-1.5 5.85l-.1-1.45q-.5-3.85-2.15-4.75-8.3-6.6-7.2-13.25 2.5-7.3 1.3-16.25" fill="#e9dca8" fill-rule="evenodd" transform="translate(1 1)"/><path d="m15.9 23.6.8 1.75q-6.25 3.7-3.7 10.45-4-10.1 2.9-12.2" fill="#b5a66d" fill-rule="evenodd" transform="translate(1 1)"/><path d="M14.35 15.95q.5 4.85 1.55 7.65Q9 25.7 13 35.8l.4 1q.85 1.85 2.35 3.95-14.05-4.35-3.2-22.1l1.8-2.7" fill="#e4d7a3" fill-rule="evenodd" transform="translate(1 1)"/><path d="M22.45 7.4q2.25 3.55 5.15 5.6 12.3 8.6 15.05 20.1M19.45 1q1.3 3.65 3 6.4m-3-6.4q-.4 9.45-4.1 15.95l-1.8 2.7Q2.7 37.4 16.75 41.75l4.55.95" fill="none" stroke="#402f15" stroke-linecap="round" stroke-linejoin="round" stroke-width="2"/><path d="m26.65 37.45-.1 2.95m.05-4.7.05 1.75m-.15-3.2q-.5-3.85-2.15-4.75-8.3-6.6-7.2-13.25 2.5-7.3 1.3-16.25m8.05 34.25.1 1.45" fill="none" stroke="#402f15" stroke-linecap="round" stroke-linejoin="round" transform="translate(1 1)"/><path d="M6.9 77q9.6-6.55 15.2-.75 2.55 2.8 8.85 5.6l-12.8 14.6Q2.5 83.85.4 100.55q-1.55-7.2 2.65-14.05 3.3-4.4 3.85-9.5" fill="#7b613c" fill-rule="evenodd" transform="translate(1 1)"/><path d="M9.95 54.75q6.1-3.45 9.7-9.55 5-6.7 8.9-1l2.55 2.3q-1.7-.85-3.7-.85-3.4 0-5.8 2.4t-2.4 5.8q0 3.4 2.4 5.8t5.8 2.4q3.4 0 5.8-2.4t2.4-5.8q0-3.4-2.4-5.8l-.35-.35q10.95 6.7 32.35 1.9 20.35-2.5 31.15 18.15 5.05 13-5.8 31.1-6.75 21.55-41.65 22.4-34.15 1.3-47.5-17.4-.65-1.65-1-3.3 2.1-16.7 17.75-4.1l12.8-14.6q-6.3-2.8-8.85-5.6-5.6-5.8-15.2.75l.05-3.6q-.1-10.2 3-18.65m27.85 7.4q0-.95-.7-1.65-.65-.65-1.6-.65-.95 0-1.65.65-.65.7-.65 1.65t.65 1.6q.7.7 1.65.7t1.6-.7q.7-.65.7-1.6" fill="#b5a66f" fill-rule="evenodd" transform="translate(1 1)"/><path d="m31.1 46.5-2.55-2.3q-3.9-5.7-8.9 1-3.6 6.1-9.7 9.55 3.1-8.5 9.4-15.3 33.25-31 73.6-2.4 6.55 5.3 10.9 11 4.05 20.65 1.75 32.1Q100.4 95.2 90.75 106l-1.45 4.8-.95 2.25.6-5 .15-3q-14.95 21.5-28.2 21.05-23.5 1.25-42.8-4.05-2.35-1.2-4.6-2.65-9.15-7.95-12.1-15.55 13.35 18.7 47.5 17.4 34.9-.85 41.65-22.4 10.85-18.1 5.8-31.1Q85.55 47.1 65.2 49.6q-21.4 4.8-32.35-1.9-.95-.55-1.75-1.2" fill="#86704b" fill-rule="evenodd" transform="translate(1 1)"/><path d="M18.1 122.05q19.3 5.3 42.8 4.05 13.25.45 28.2-21.05l-.15 3q-3.35 9.75-10.6 14.6Q68 128.8 51.7 128.4l-12.8-.75q-11.35-.85-20.8-5.6" fill="#523e1d" fill-rule="evenodd" transform="translate(1 1)"/><path d="m88.95 108.05-.6 5q-7.25 16.15-26.4 16.35l-10.25-1q16.3.4 26.65-5.75 7.25-4.85 10.6-14.6m.35 2.75 1.45-4.8q19.8-14.25 20.8-40.5 1.8 11.3-3.75 23.9-7.95 14.85-18.5 21.4" fill="#615980" fill-rule="evenodd" transform="translate(1 1)"/><path d="M90.75 106q9.65-10.8 14.85-25.85 2.3-11.45-1.75-32.1 6.25 8.3 7.7 17.45-1 26.25-20.8 40.5" fill="#523b1b" fill-rule="evenodd" transform="translate(1 1)"/><path d="m32.85 47.7.35.35q2.4 2.4 2.4 5.8t-2.4 5.8q-2.4 2.4-5.8 2.4t-5.8-2.4q-2.4-2.4-2.4-5.8t2.4-5.8q2.4-2.4 5.8-2.4 2 0 3.7.85.8.65 1.75 1.2m4.95 14.45q0 .95-.7 1.6-.65.7-1.6.7-.95 0-1.65-.7-.65-.65-.65-1.6 0-.95.65-1.65.7-.65 1.65-.65t1.6.65q.7.7.7 1.65" fill="#e9dca8" fill-rule="evenodd" transform="translate(1 1)"/><path d="M10.95 55.75q-3.1 8.45-3 18.65L7.9 78q-.55 5.1-3.85 9.5-4.2 6.85-2.65 14.05.35 1.65 1 3.3 2.95 7.6 12.1 15.55 2.25 1.45 4.6 2.65 9.45 4.75 20.8 5.6l12.8.75 10.25 1q19.15-.2 26.4-16.35l.95-2.25q10.55-6.55 18.5-21.4 5.55-12.6 3.75-23.9-1.45-9.15-7.7-17.45-4.35-5.7-10.9-11-40.35-28.6-73.6 2.4-6.3 6.8-9.4 15.3" fill="none" stroke="#402f15" stroke-linecap="round" stroke-linejoin="round" stroke-width="2"/><path d="m89.3 110.8 1.45-4.8" fill="none" stroke="#402f15" stroke-linecap="round" stroke-linejoin="round" transform="translate(1 1)"/><path d="M6.15 82.1q3.3.3 5.45 1.8 2.25 1.45 2.1 3.2-.2 1.75-2.7 2.7-2.4 1-5.75.7-2.1-.25-3.75-.95.6-1.55 1.55-3.05 1.6-2.15 2.6-4.45l.5.05m62.4 22.55q-2.55-1.7-2.35-3.75.2-2.05 3.1-3.25 2.95-1.15 6.85-.7 3.95.4 6.5 2.15 2.65 1.75 2.45 3.8-.2 2.05-3.2 3.2-2.85 1.2-6.8.8-3.9-.45-6.55-2.25" fill="#f0a295" fill-rule="evenodd" transform="translate(1 1)"/><path d="m110.9 55.65 6.05-.9q2.55 24.25-8.3 32.55 3.75-15.8-3.85-30.8 7.4 6.75 7 23.95 6.4-14.1-.9-24.8" fill="#c8be9a" fill-rule="evenodd" transform="translate(1 1)"/><path d="m104.8 56.5 6.1-.85q7.3 10.7.9 24.8.4-17.2-7-23.95" fill="#736e84" fill-rule="evenodd" transform="translate(1 1)"/><path d="m111.9 56.65 6.05-.9q2.55 24.25-8.3 32.55 3.75-15.8-3.85-30.8l6.1-.85z" fill="none" stroke="#383740" stroke-linecap="round" stroke-linejoin="round" stroke-width="2"/><path d="m121.15 18.25 1-2.1 1.45 2.75q-1.1 6-4 7.9 4.45 16.15-7.65 31.6l-6.4 1.6 1.75-1.65q4.4-4.95 5-13.65.05-14.1 3.15-17.55 3.1-3.8 5.7-8.9" fill="#513d1c" fill-rule="evenodd" transform="translate(1 1)"/><path d="M107.3 58.35 105.55 60Q82.5 37.2 90.05 31.75 93.35 28.2 99 25q-5.55 18.45 8.3 33.35m4.65.05q12.1-15.45 7.65-31.6 2.9-1.9 4-7.9 4.25 8.35 5.8 15.35-5.15 2.35-9.6 21.25-3.55 1.65-7.85 2.9" fill="#86704b" fill-rule="evenodd" transform="translate(1 1)"/><path d="m122.15 16.15-1 2.1q-6.55 9.4-11.2 12.75-2.2 14.9-8.45 11.1-6.2-2.35 0-18.45 5.2-2.7 12.05-5.1 6.3-2.3 10.45-6.9l-1.85 4.5" fill="#e4d7a3" fill-rule="evenodd" transform="translate(1 1)"/><path d="M121.15 18.25q-2.6 5.1-5.7 8.9-3.1 3.45-3.15 17.55-.6 8.7-5 13.65Q93.45 43.45 99 25l2.5-1.35q-6.2 16.1 0 18.45 6.25 3.8 8.45-11.1 4.65-3.35 11.2-12.75m8.25 16 .65 4.25q-.35 9.3-5.9 14.65l-4.35 2.35q4.45-18.9 9.6-21.25" fill="#b5a66f" fill-rule="evenodd" transform="translate(1 1)"/><path d="m123.6 18.9-1.45-2.75 1.85-4.5q.85 6.55 4.6 11.3 10.8 14.6.7 26.1-2.2 2.2-5.15 4.1 5.55-5.35 5.9-14.65l-.65-4.25q-1.55-7-5.8-15.35" fill="#625a83" fill-rule="evenodd" transform="translate(1 1)"/><path d="m122.15 16.15-1 2.1q-2.6 5.1-5.7 8.9-3.1 3.45-3.15 17.55-.6 8.7-5 13.65L105.55 60m16.6-43.85 1.85-4.5" fill="none" stroke="#402f15" stroke-linecap="round" stroke-linejoin="round" transform="translate(1 1)"/><path d="m106.55 61 6.4-1.6q4.3-1.25 7.85-2.9l4.35-2.35q2.95-1.9 5.15-4.1 10.1-11.5-.7-26.1-3.75-4.75-4.6-11.3-4.15 4.6-10.45 6.9-6.85 2.4-12.05 5.1L100 26q-5.65 3.2-8.95 6.75" fill="none" stroke="#402f15" stroke-linecap="round" stroke-linejoin="round" stroke-width="2"/><path d="M87.45 30.35q-2.95-1.85-6-3.25-4.55-2.15-9.5-3.4-8.9-2.35-19.05-2 1.9 1.15 2.9 3.7l.25-.3q1-.95 2.4-.95t2.35.95q1 1 1 2.4t-1 2.35q-.95 1-2.35 1-1.15 0-2-.65-1.85 4.7-5.6 6.5-3.65 1.75-7.8.15-4.15-1.65-5.4-5.1-1.2-3.35.9-7.05-4.4 1.05-6.7 5.15-1.75 3.75-.95 8.7Q26 29 34.7 23.1q17.95-9.35 37.25-3.55 12.75 3.85 17.5 7.3 1.2 1.85-2 3.5" fill="#d9d5ca" fill-rule="evenodd" transform="translate(1 1)"/><path d="M81.45 27.1q-4.95 1.35-9.5 6.8l-.3.35Q56 50.8 42.55 43.1q-7.15-5.65-6.7-3.95-3.05-2.2-4-9.3 2.3-4.1 6.7-5.15-2.1 3.7-.9 7.05 1.25 3.45 5.4 5.1 4.15 1.6 7.8-.15 3.75-1.8 5.6-6.5.85.65 2 .65 1.4 0 2.35-1 1-.95 1-2.35 0-1.4-1-2.4-.95-.95-2.35-.95-1.4 0-2.4.95l-.25.3q-1-2.55-2.9-3.7 10.15-.35 19.05 2 4.95 1.25 9.5 3.4" fill="#a49e88" fill-rule="evenodd" transform="translate(1 1)"/><path d="m74.6 38.35-2.65 2.25q-20.65 16.65-35.45.05-1.45.5-2.3 2.9-2.1-2.6-3.3-5-.8-4.95.95-8.7.95 7.1 4 9.3-.45-1.7 6.7 3.95 13.45 7.7 29.1-8.85l.3-.35q4.55-5.45 9.5-6.8 3.05 1.4 6 3.25l-.85.35q-3.15 1.3-9.35 2.45-3.2.65-2.65 5.2-.55-4.55 2.65-5.2 6.2-1.15 9.35-2.45 2.7 2 .5 5.8-6.4 5-12.5 1.85" fill="#757087" fill-rule="evenodd" transform="translate(1 1)"/><path d="m86.6 30.7.85-.35q3.2-1.65 2-3.5 3.1 2.25 2.85 4.3-2.6 3.35-5.2 5.35 2.2-3.8-.5-5.8" fill="#dbd2b3" fill-rule="evenodd" transform="translate(1 1)"/><path d="M31.9 39.55q1.2 2.4 3.3 5 .85-2.4 2.3-2.9 14.8 16.6 35.45-.05l2.65-2.25q6.1 3.15 12.5-1.85 2.6-2 5.2-5.35.25-2.05-2.85-4.3-4.75-3.45-17.5-7.3-19.3-5.8-37.25 3.55Q27 30 31.9 39.55" fill="none" stroke="#383740" stroke-linecap="round" stroke-linejoin="round" stroke-width="2"/><path d="M74.6 38.35q-.55-4.55 2.65-5.2 6.2-1.15 9.35-2.45l.85-.35q3.2-1.65 2-3.5" fill="none" stroke="#383740" stroke-linecap="round" stroke-linejoin="round" transform="translate(1 1)"/></g><g id="n"><path d="M5.5 11.7q.8 1.5.8 3.6 0 2.15-.8 3.6-.8 1.5-1.9 1.5-1.15 0-1.9-1.5-.8-1.45-.8-3.6 0-2.1.8-3.6.75-1.5 1.9-1.5 1.1 0 1.9 1.5" fill="#1d0f44" fill-rule="evenodd" transform="translate(.5 -7.95)"/><path d="M7 21.85Q5.95 23.1 4.5 23.1q-1.75 0-3-2Q.25 19.15.25 16.35T1.5 11.6q1.25-1.95 3-1.95 1.8 0 3.05 1.95 1.25 1.95 1.25 4.75 0 2-.65 3.65-.5 0-.9.35-.35.35-.35.9l.1.6M5.5 11.7q-.8-1.5-1.9-1.5-1.15 0-1.9 1.5-.8 1.5-.8 3.6 0 2.15.8 3.6.75 1.5 1.9 1.5 1.1 0 1.9-1.5.8-1.45.8-3.6 0-2.1-.8-3.6" fill="#342068" fill-rule="evenodd" transform="translate(.5 -7.95)"/><path d="M8.15 20q.65-1.65.65-3.65 0-2.8-1.25-4.75Q6.3 9.65 4.5 9.65q-1.75 0-3 1.95T.25 16.35q0 2.8 1.25 4.75 1.25 2 3 2 1.45 0 2.5-1.25l.25.3q.4.4.9.4.55 0 .9-.4.4-.35.4-.9t-.4-.9Q8.7 20 8.15 20M6.7 8.45q2.75 0 4.7 2.35 2 2.3 2 5.6t-2 5.6q-1.95 2.35-4.7 2.35-2.8 0-4.75-2.35Q0 19.7 0 16.4t1.95-5.6Q3.9 8.45 6.7 8.45m4 11.65-.1-.35-.3-.1-.35.1-.1.35.1.3.35.1.3-.1.1-.3" fill="#53467b" fill-rule="evenodd" transform="translate(.5 -7.95)"/><path d="M8.15 20q.55 0 .9.35.4.35.4.9t-.4.9q-.35.4-.9.4-.5 0-.9-.4l-.25-.3-.1-.6q0-.55.35-.9.4-.35.9-.35m2.55.1-.1.3-.3.1-.35-.1-.1-.3.1-.35.35-.1.3.1.1.35" fill="#fff" fill-rule="evenodd" transform="translate(.5 -7.95)"/><path d="M6.7 8.45q2.75 0 4.7 2.35 2 2.3 2 5.6t-2 5.6q-1.95 2.35-4.7 2.35-2.8 0-4.75-2.35Q0 19.7 0 16.4t1.95-5.6Q3.9 8.45 6.7 8.45z" fill="none" stroke="#0d0723" stroke-linecap="round" stroke-linejoin="round" transform="translate(.5 -7.95)"/></g><g id="o"><path d="M4.1 27.7q1.8 1.3 4 1.3 3.8 0 6.45-3.95 2.7-3.9 2.7-9.55 0-5.55-2.7-9.55-2.65-3.9-6.45-3.9h-.25.25q3.8 0 6.45 3.9 2.7 4 2.7 9.55 0 5.65-2.7 9.55Q11.9 29 8.1 29q-2.2 0-4-1.3l.25-.6q1.4 1.35 3.2 1.35 2.1 0 3.7-1.8 5.15-3.9 3.15-12.7-1.65-8.4-7.75-7.1.45-2.45 1.2-4.8L8.55 0q9.95.4 10.3 16.05-.1 8.6-3.1 11.55-7.5 4.25-11.65.1" fill="#827250" fill-rule="evenodd" transform="translate(-3.6 .5)"/><path d="M6.65 6.85q6.1-1.3 7.75 7.1 2 8.8-3.15 12.7l.75-1.1q1.8-2.9 1.8-7t-1.8-7q-1.8-2.9-4.45-2.9l-1.3.2.4-2" fill="#b4a469" fill-rule="evenodd" transform="translate(-3.6 .5)"/><path d="M7.85 2.05h.25q3.8 0 6.45 3.9 2.7 4 2.7 9.55 0 5.65-2.7 9.55Q11.9 29 8.1 29q-2.2 0-4-1.3l.25-.6q1.4 1.35 3.2 1.35 2.1 0 3.7-1.8l.75-1.1q1.8-2.9 1.8-7t-1.8-7q-1.8-2.9-4.45-2.9l-1.3.2q-.75 4.7-.7 9.8l-.05 3.6q-.25 2.5-1.15 4.85M8.55 0l-.7 2.05q-.75 2.35-1.2 4.8l-.4 2" fill="none" stroke="#402f15" stroke-linecap="round" stroke-linejoin="round" transform="translate(-3.6 .5)"/></g><g id="r"><path d="M8 5.1q2.5 0 4.25 3.3t1.75 8q0 4.7-1.75 8T8 27.7q-2.5 0-4.25-3.3T2 16.4q0-4.7 1.75-8T8 5.1" fill="#1d0f44" fill-rule="evenodd" transform="translate(.5 -.7)"/><path d="M8 5.1q-2.5 0-4.25 3.3T2 16.4q0 4.7 1.75 8T8 27.7q2.5 0 4.25-3.3t1.75-8q0-4.7-1.75-8T8 5.1m7.6 25.8q-2.4 2.75-5.55 2.75-3.95 0-6.7-4.35-2.8-4.35-2.8-10.55 0-6.2 2.8-10.55 2.75-4.35 6.7-4.35t6.7 4.35q2.8 4.35 2.8 10.55 0 4.45-1.45 8-1.15 0-2 .8-.8.85-.8 2.05 0 .7.3 1.3" fill="#342068" fill-rule="evenodd" transform="translate(.5 -.7)"/><path d="M29.7 18.8q0 7.3-4.35 12.45Q21 36.4 14.85 36.4t-10.5-5.15Q0 26.1 0 18.8q0-7.3 4.35-12.45Q8.7 1.2 14.85 1.2t10.5 5.15Q29.7 11.5 29.7 18.8m-11.6 7.95q1.45-3.55 1.45-8 0-6.2-2.8-10.55-2.75-4.35-6.7-4.35T3.35 8.2Q.55 12.55.55 18.75q0 6.2 2.8 10.55 2.75 4.35 6.7 4.35 3.15 0 5.55-2.75l.5.7q.85.85 2.05.85 1.2 0 2-.85.85-.8.85-2t-.85-2.05q-.8-.8-2-.8h-.05m5.7.25-.3-.7q-.25-.25-.65-.25l-.7.25q-.25.3-.25.7 0 .4.25.65.3.3.7.3.4 0 .65-.3l.3-.65" fill="#53467b" fill-rule="evenodd" transform="translate(.5 -.7)"/><path d="M18.1 26.75h.05q1.2 0 2 .8.85.85.85 2.05 0 1.2-.85 2-.8.85-2 .85t-2.05-.85l-.5-.7q-.3-.6-.3-1.3 0-1.2.8-2.05.85-.8 2-.8m5.7.25-.3.65q-.25.3-.65.3t-.7-.3q-.25-.25-.25-.65t.25-.7l.7-.25q.4 0 .65.25l.3.7" fill="#fff" fill-rule="evenodd" transform="translate(.5 -.7)"/><path d="M29.7 18.8q0 7.3-4.35 12.45Q21 36.4 14.85 36.4t-10.5-5.15Q0 26.1 0 18.8q0-7.3 4.35-12.45Q8.7 1.2 14.85 1.2t10.5 5.15Q29.7 11.5 29.7 18.8z" fill="none" stroke="#1d0f44" stroke-linecap="round" stroke-linejoin="round" transform="translate(.5 -.7)"/></g><g id="s"><path d="m31.8 12.65-1.3-1.35Q26 7 19.75 6.85 13.5 6.7 9 11q-4.45 4.3-4.45 10.4l-.15.05v-.05q-.45-4.3.8-8.95 1.55-4.8 5.9-7.8 17.4-2.5 20.7 8" fill="#b3a872" fill-rule="evenodd" transform="translate(-3.3)"/><path d="M31.8 12.65q-3.3-10.5-20.7-8-4.35 3-5.9 7.8 4.75-16.75 26.55-11 12.2 3.95 11.6 22.1-2.3 12.8-19.75 16.05Q10 40.8 6.7 28.95q.9 1.5 2.3 2.85 4.5 4.3 10.85 4.3 6.25 0 11.4-3.5l.1-.1q5.2-3.6 4.45-10.25-.65-5.65-4-9.6m-20.7-8q2.1-1.45 4.9-2.5 20.8-4.45 24.3 14.6 1.35 10.6-9.05 15.85 10.4-5.25 9.05-15.85Q36.8-2.3 16 2.15q-2.8 1.05-4.9 2.5" fill="#7a6139" fill-rule="evenodd" transform="translate(-3.3)"/><path d="M4.4 21.4v.05" fill="none" stroke="#20170b" stroke-linecap="round" stroke-linejoin="round" transform="translate(-3.3)"/><path d="M4.55 21.4Q4.55 15.3 9 11q4.5-4.3 10.75-4.15Q26 7 30.5 11.3l1.3 1.35q3.35 3.95 4 9.6.75 6.65-4.45 10.25l-.1.1M4.55 21.4q0 1.15.15 2.2" fill="none" stroke="#402f15" stroke-linecap="round" stroke-linejoin="round" transform="translate(-3.3)"/><path d="M7.8 4.65q-4.35 3-5.9 7.8-1.25 4.65-.8 8.95m.3 2.2q.4 2.9 2 5.35.9 1.5 2.3 2.85 4.5 4.3 10.85 4.3 6.25 0 11.4-3.5 10.4-5.25 9.05-15.85Q33.5-2.3 12.7 2.15 9.9 3.2 7.8 4.65m-6.7 16.8.3 2.15" fill="none" stroke="#402f15" stroke-linecap="round" stroke-linejoin="round" stroke-width="2"/></g><g id="t"><path d="M9.65 99.6q6.65 10.1 16.5 10.6 3.85.05 7.7-2.1 1.9-1.35 2.6.6.2 1-.75 1.35Q17.35 118.2 9.65 99.6" fill="#7e623d" fill-rule="evenodd" transform="translate(-8.65 -98.6)"/><path d="M27.05 11.45Q8.7 19.6 1 1" fill="none" stroke="#402f15" stroke-linecap="round" stroke-linejoin="round" stroke-width="2"/></g><g id="u"><path d="m7.45 74.55-.75-2.3q-.6-3 .55-2.75 1.15.7 2.75 1.95 3.35 7.1 12.2 10.95l7.9 2.95q1.8 1.1.9 6.7-1 2.65-4.15 3.55-3.05.4-12.1-9.95-5.15-5.4-7.3-11.1" fill="#baa884" fill-rule="evenodd" transform="translate(-3.2 -67.65)"/><path d="M32.25 94.55q-8.8 7.8-13.1 4.9-7.75-5.3-11.7-24.9 2.15 5.7 7.3 11.1Q23.8 96 26.85 95.6 30 94.7 31 92.05q.9-5.6-.9-6.7l-7.9-2.95Q13.35 78.55 10 71.45l2.65 2.2 1.25.95q5.9 8.8 15.9 9.05 2.2.1-.65-2.5 1.1.15 1.85.7 2.05 1.8 2.6 4.35.4 1.8 0 4-.35 2-1.35 4.35" fill="#dbd0ba" fill-rule="evenodd" transform="translate(-3.2 -67.65)"/><path d="M7.25 69.5q-1.15-.25-.55 2.75l.75 2.3q3.95 19.6 11.7 24.9 4.3 2.9 13.1-4.9l-.65 1.3q-7 9.55-14 7Q4.85 88.9 4.25 70.45q-.45-3 3-.95m6.65 5.1 6.2 3.95q4.15 2.2 8.6 2.55l.45.05q2.85 2.6.65 2.5-10-.25-15.9-9.05" fill="#feffff" fill-rule="evenodd" transform="translate(-3.2 -67.65)"/><path d="M4.05 1.85Q.6-.2 1.05 2.8q.6 18.45 13.35 32.4 7 2.55 14-7l.65-1.3q1-2.35 1.35-4.35.4-2.2 0-4-.55-2.55-2.6-4.35-.75-.55-1.85-.7l-.45-.05q-4.45-.35-8.6-2.55l-6.2-3.95L9.45 6 6.8 3.8Q5.2 2.55 4.05 1.85z" fill="none" stroke="#625037" stroke-linecap="round" stroke-linejoin="round" stroke-width="2"/></g><path d="M119.1 48.15Q98.65 56.4 69.8 56.4q-28.9 0-49.35-8.25Q0 39.9 0 28.2T20.45 8.25Q40.9 0 69.8 0q28.85 0 49.3 8.25 20.45 8.25 20.45 19.95T119.1 48.15" fill-opacity=".349" fill-rule="evenodd" id="e"/><path d="M7.55 8.65q2.65 0 4.45 2.9 1.8 2.9 1.8 7t-1.8 7l-.75 1.1q-1.6 1.8-3.7 1.8-1.8 0-3.2-1.35.9-2.35 1.15-4.85l.05-3.6q-.05-5.1.7-9.8l1.3-.2" fill="#fff" fill-rule="evenodd" transform="translate(-4.35 -8.65)" id="l"/><path d="M31.8 12.65q3.35 3.95 4 9.6.75 6.65-4.45 10.25l-.1.1q-5.15 3.5-11.4 3.5-6.35 0-10.85-4.3-1.4-1.35-2.3-2.85l-.05-.05Q5.1 26.5 4.7 23.6q-.15-1.05-.15-2.2Q4.55 15.3 9 11q4.5-4.3 10.75-4.15Q26 7 30.5 11.3l1.3 1.35" fill="#fff" fill-rule="evenodd" transform="translate(-4.55 -6.85)" id="p"/><path d="M72 63.2H0V0h72v63.2" fill-opacity="0" fill-rule="evenodd" id="v"/><use ffdec:characterId="19" height="63.2" width="72" xlink:href="#v" id="c"/></defs></svg>