<svg xmlns:ffdec="https://www.free-decompiler.com/flash" xmlns:xlink="http://www.w3.org/1999/xlink" ffdec:objectType="frame" height="90" width="90" xmlns="http://www.w3.org/2000/svg"><use ffdec:characterId="20" height="129.25" transform="matrix(.6692 0 0 .6696 -1.606 2.009)" width="135.75" xlink:href="#a"/><defs><g id="a" transform="translate(2.4 -3)"><use ffdec:characterId="1" height="9.8" transform="matrix(1.0108 0 0 2.0559 49.351 112.076)" width="55.5" xlink:href="#b"/><use ffdec:characterId="3" height="6.25" transform="translate(44.6 85.55) scale(1.7524)" width="11" xlink:href="#c"/><use ffdec:characterId="5" height="21.15" transform="translate(0 75.05) scale(1.7524)" width="36.55" xlink:href="#d"/><use ffdec:characterId="7" height="11.9" transform="translate(86.1 82.75) scale(1.7524)" width="14.8" xlink:href="#e"/><use ffdec:characterId="9" height="12.7" transform="translate(52.65 101.15) scale(1.7524)" width="14.85" xlink:href="#f"/><use ffdec:characterId="11" height="17.4" transform="translate(72.95 93.6) scale(1.7524)" width="16.3" xlink:href="#g"/><use ffdec:characterId="13" height="22.25" transform="translate(52.9 78.45) scale(1.7524)" width="23.9" xlink:href="#h"/><use ffdec:characterId="19" height="49.7" transform="translate(24.35 4.5) scale(1.7524)" width="62" xlink:href="#i"/></g><g id="j" fill-rule="evenodd"><path d="m7.25.8 1.05.65q2.2 1.5 2.65 3.2l-.75.15-2.7.55-3.55-.55q-2.7-.65-2.7-1.5 0-.65 3.4-1.75L7.25.8" fill="#66412b"/><path d="m10.95 4.65.05.75-5.05.85h-.1l-3.6-.4Q0 5.2 0 3.65 0 2.15 2.9.9 4 .4 5.6 0q.75.2 1.65.8l-2.6.75q-3.4 1.1-3.4 1.75 0 .85 2.7 1.5l3.55.55 2.7-.55.75-.15" fill="#110602"/></g><g id="k" fill-rule="evenodd"><path d="m7.7 2.1.05.4q0 .6-.55.8-.9.4-1.1.55Q4.8 5 3.85 5q-.6 0-.6-.6l.1-.55Q4.5 2.15 6.5 2.1h1.2m11.95 5.3.4.35.1.45q0 .7-.6 1.2-.55.45-1.35.45l-.25-.05q-.15-.05-.15-.35 0-.8.3-1.3l.1-.05q.55-.35 1.45-.7M8.6 5.2q.45-.55 1.55-.55.7 0 3.9 1.25 2.9 1.15 3.4 2.25L15.3 7.6l-2.5-.65-2.35-.45Q8.6 6.05 8.6 5.3v-.1" fill="#a5c466"/><path d="m3.35 3.85-.1.55q0 .6.6.6.95 0 2.25-1.15.2-.15 1.1-.55.55-.2.55-.8l-.05-.4q1.35.15 2.15 1.1-1.25.25-1.65.5-.8.4-.95 1.4.65-.8 2.05-1.15l1.6-.2 8.45 3.1.45-.1q-.55.2-1.1.7l-.5.5-.1.2q-.3.5-.3 1.3 0 .3.15.35l.25.05q.8 0 1.35-.45.6-.5.6-1.2l-.1-.45-.4-.35q.25-.15.55-.25.85-.3 1.4-.45l1 .15.7.7q-1.05.2-2.45 1.3-1.8 1.45-1.8 3.05l.05.45-.45.2q-.8 0-1.25-.55-.55-.7-1.45-.95l-2.2-.4-1.9-.3-3.5-.8-1.95-.2Q6 9.25 6 7.9l.05-.75q-1.6 1.5-1.4 3.4l-.1.05-.9.2-.8-.35-.25-.2-.2-.35-.45-1.05q.3-3.35 1.4-5M8.6 5.2v.1q0 .75 1.85 1.2l2.35.45 2.5.65 2.15.55q-.5-1.1-3.4-2.25-3.2-1.25-3.9-1.25-1.1 0-1.55.55m12.95 3.95q1-.8 2.25-1.05l.1.1L27 9.35l-2.6 1.15-2.55.95q-.4 0-.55-.25l-.1-.7q0-.55.35-1.35" fill="#4a8d1f"/><path d="m2.85 10.45.8.35.9-.2.1-.05q-.2-1.9 1.4-3.4L6 7.9q0 1.35.4 1.45l1.95.2 3.5.8 1.9.3 2.2.4q.9.25 1.45.95.45.55 1.25.55l.45-.2.25.8-.05.05-.55.5-.95.25-.65-.15-.5-.2-.1-.95-.05-.6-.2.55-4.25-.7-5.25-.85V11l-.45-1.25-.25.55.45 1.5.4.75q-2.65.4-4.15-2l.05-.1M27 9.35l1.25.4-.95 1.3-1.55 1.6-1.5.5H22.6l-3.05-.3.05-.75q.25-1.45 1.5-2.6l.45-.35q-.35.8-.35 1.35l.1.7q.15.25.55.25l2.55-.95L27 9.35" fill="#436129"/><path d="m21.8 16.3-1-.3.05-.1.05-.25v-.2q-1.2.35-2.35 0l-1.75-.9-.1-.65-.05-.3.5.2.65.15.95-.25.55-.5.05.05.2.5v-.9l3.05.3h1.65l1.5-.5 1.55-1.6.95-1.3q2.85.9 6.45 1.8l1.85 5.7-1.8 1.2-6.8-1.15-6.15-1m-5.5-3.7-.1.65.25 1.1.05.2-8.25-1.8-1.2-1.25-.25-.45 5.25.85 4.25.7" fill="#2f3c1f"/><path d="M7.7 2.1H6.5q-2 .05-3.15 1.75-1.1 1.65-1.4 5L2.4 9.9l.2.35.2.3q1.5 2.4 4.15 2l-.4-.75-.45-1.5.25-.55L6.8 11v.05l.25.45 1.2 1.25 8.25 1.8-.05-.2-.25-1.1.1-.65.2-.55.05.6.1.95.05.3.1.65-.05.05.15.15q.1.65.45.65 1.3 1.4 3 .85l.4-.2.05-.05 1 .3L33 19.6l-2.3 1.55-9.6-3q-3.7.65-5.25-1.6l-7.8-1.9q-4.25.8-7.65-3.3-1.35-6.1 1.95-9.6l.3-.2q3.4-2.45 7-1l2.1 1.6 16.9 5.75-1.5.95 7.2 1.7.35 1q-3.6-.9-6.45-1.8L27 9.35 23.9 8.2l-.1-.1q-1.25.25-2.25 1.05l-.45.35q-1.25 1.15-1.5 2.6l-.05.75v.9l-.2-.5v-.1l-.25-.8-.05-.45q0-1.6 1.8-3.05 1.4-1.1 2.45-1.3l-.7-.7-1-.15q-.55.15-1.4.45-.3.1-.55.25-.9.35-1.45.7v-.15l.5-.5q.55-.5 1.1-.7l-.45.1-8.45-3.1-1.6.2Q7.9 4.3 7.25 5.1q.15-1 .95-1.4.4-.25 1.65-.5-.8-.95-2.15-1.1" fill="#110602"/><path d="m33 19.6-11.2-3.3 6.15 1 6.8 1.15L33 19.6M20.8 16l-.05.05-.4.2q-1.7.55-3-.85-.35 0-.45-.65l-.1-.2 1.75.9q1.15.35 2.35 0v.2l-.05.25-.05.1" fill="#3c5427"/></g><g id="l" fill-rule="evenodd"><path d="M7.2 10q-1.45-.9-1.45-3.05 0-3.1 3.8-4.15l1.05.85q2.1 1.9 2.1 3.15 0 1.45-2.45 2.45L7.2 10" fill="#5c3a2a"/><path d="M1.7 7.95V7.4q0-1.55.75-3.05.7-1.45 1.95-2.55h.1l.5-.05 1.55.05.4.05q1.2 0 2.6.95-3.8 1.05-3.8 4.15Q5.75 9.1 7.2 10h-.95q-2.3 0-4.05-1.6l-.5-.45" fill="#442d24"/><path d="M4.4 1.8Q3.15 2.9 2.45 4.35 1.7 5.85 1.7 7.4v.55Q.35 6.45.35 4.55q0-1.4 1.4-2.1 1.1-.6 2.65-.65" fill="#241a12"/><path d="M1.35.7V.65L1.5.6Q2.85 0 4.05 0 9 0 11.85 2q2.85 2.05 2.95 4.65.05 2.65-2.2 3.95-2.2 1.3-4.6 1.3l-1.6-.4-1.25-.45-1.1-.55-1.3-.65-.8-.6L.9 7.95Q0 6.55 0 5.15 0 4 .35 2.8q.35-1.4 1-2.1m.35 7.25.5.45Q3.95 10 6.25 10h.95l3.05-.75q2.45-1 2.45-2.45 0-1.25-2.1-3.15L9.55 2.8q-1.4-.95-2.6-.95l-.4-.05L5 1.75l-.5.05h-.1q-1.55.05-2.65.65-1.4.7-1.4 2.1 0 1.9 1.35 3.4" fill="#110602"/></g><g id="m" fill-rule="evenodd"><path d="m8.45 10-.55.55-1.35.15q-2.75 0-4.1-3.9-.6-1.9-.8-4.1L5.2 6.25 8.45 10" fill="#432b24"/><path d="M13.7 2.4q-2.1 2.9-4.75 6.95l-.5.65L5.2 6.25 1.65 2.7 1.55.65 1.6 0q5.65.1 12.1 2.4" fill="#231811"/><path d="m13.7 2.4 1.15.4q-2.7 5.3-4.35 7.55-1.7 2.35-3 2.35-3.45 0-5.45-2.25Q0 8.2 0 4.3L.4.9.55.05 1.2 0h.4l-.05.65.1 2.05q.2 2.2.8 4.1 1.35 3.9 4.1 3.9l1.35-.15.55-.55.5-.65Q11.6 5.3 13.7 2.4" fill="#110602"/></g><g id="n" fill-rule="evenodd"><path d="M13.5 8.25q.85 2.85.75 4.05-.1 1.65-.9 2.25-.8.6-2.6.6-2.05 0-3.9-.8V14q0-2.45 2.6-4.25 2-1.4 4.05-1.5" fill="#432b24"/><path d="M9.7.75q1.9 1.75 3.15 5.4l.65 2.1q-2.05.1-4.05 1.5-2.6 1.8-2.6 4.25v.35l-2.1-1.3Q2.4 11.25.7 8.1q2.25-2.75 6.15-5.5L9.7.75" fill="#241811"/><path d="M9.7.75 11.15 0q2.8 3.3 3.7 5.4 1.3 3.2 1.45 5.75.1 2.55-.25 3.45-.35.9-1.8 1.85l-1.75.95-1.55-.05q-4.2 0-6.7-2.15Q2.05 13.35 0 8.95l.7-.85q1.7 3.15 4.05 4.95l2.1 1.3q1.85.8 3.9.8 1.8 0 2.6-.6t.9-2.25q.1-1.2-.75-4.05l-.65-2.1Q11.6 2.5 9.7.75" fill="#110602"/></g><g id="o" fill-rule="evenodd"><path d="M22.1 2 21.7.35v-.2l.15-.1h.2l.15.15.45 1.8.75 4.5.05.2.1.95.35 5.8q-.05 2.2-3 4.4l-1.15.75q-1.45.9-3.25 1.4l-.2.1-7 .7-1.35-.1-3.25-.6Q0 18.2 0 11.2l.3-3.8.4-2.8v-.3l.1-.15.2-.1.2.1.05.2v.15l-.4 2.95Q.5 10.15.5 11.2q0 6.3 4.05 8.2l.55.2.3.15 2.55.45 2.55.05q4.05-.05 6.9-1.1 1.1-.4 2.05-1l.6-.4.7-.5.7-.55.2-.25q1.65-1.5 1.7-3L23.1 8.7l-.1-1q-.35-3.25-.9-5.7" fill="#100604"/><path d="m10.5 20.25-2.55-.05-2.55-.45-.3-.15Q3.8 18.5 3 16.65q-.9-2-.9-4.15 0-2.25.9-3.4.5-.6 1.3-.9l1.75-.35h.55q2.3.15 5.15 2.35 3 2.25 2.75 4.45t-.9 3.3q-.9 1.45-3.1 2.3" fill="#e2dfd8"/><path d="m1.25 4.45 4.7-1.2q6.35-1.3 12.15-1.3l4 .05q.55 2.45.9 5.7l.1 1q-.2 1.65-.25 3.75-.3 2.7-1.2 4l-.2.25-.7.55-.7.5-.6.4q-.95.6-2.05 1l.4-.9.5-2.05q0-3.85-2.65-6.15-2.6-2.25-6.8-2.25l-2.25.05h-.55L4.3 8.2l-1-1.4-2.05-2.3v-.05" fill="#93767a"/><path d="m23.1 8.7.25 4.75q-.05 1.5-1.7 3 .9-1.3 1.2-4 .05-2.1.25-3.75m-5.7 10.45q-2.85 1.05-6.9 1.1 2.2-.85 3.1-2.3.65-1.1.9-3.3.25-2.2-2.75-4.45Q8.9 8 6.6 7.85l2.25-.05q4.2 0 6.8 2.25 2.65 2.3 2.65 6.15l-.5 2.05-.4.9" fill="#b5a9a5"/><path d="m5.1 19.6-.55-.2Q.5 17.5.5 11.2q0-1.05.35-3.75l.4-2.95L3.3 6.8l1 1.4q-.8.3-1.3.9-.9 1.15-.9 3.4 0 2.15.9 4.15.8 1.85 2.1 2.95" fill="#d2cdbf"/><path d="M20.9 17.85q-2.45 3.1-4.4 3.95l-5.15.45-3.85-.35q-1.8-.55-2.8-1.8l3.25.6 1.35.1 7-.7.2-.1q1.8-.5 3.25-1.4l1.15-.75" fill="#110602"/></g><g id="p" fill-rule="evenodd"><path d="m51.6 3.15.35.2q8.4 6.6 9.75 13 1.5 6.55-4.25 12.8l-.45.3-2.9.9-.55 3q5.15 2.35 5.55 7.15l-.05.45-.3.45q-2.5 2.3-5.35 3.05v1.15l-.2.65-.6.4q-3.15 1.65-5.8 1.2l-.8-.15-.5-.65V47l-.05-.25h-.05l-.95.1-1.8-.25-.8-.1q-2.25 1.15-6.25 2.05-5.3 1.15-10.25 1.15H23.7l-.25-.05-6.4-.85-2.05-.6q-2.25-.8-3.45-1.9-4.15-.2-6.9-1.8-.05.25-1.95-1.3l-.15-.1v-1.2L.2 38.8q-.25-.3-.2-.7 0-.4.3-.7l4.5-4.6 1.45-9.65q-4.5-2.1-4.35-6.5 0-4.35 4.95-10.95L7 5.5Q14.25-.25 19.1 0q4.85.1 7.35 5.85l5.8-.6h.3q5.7-6.8 19.05-2.1M51.8 6l-1.05-.85q-5.7-2-9.8-1.65-4.3.35-6.8 3.25l3.4.9q1.05.35 2.05.85.85-.5 2-.75l2.2-.25q2 0 3.65.65 1.4.55 3.4 2l.1.15-.05.2v.05l-.15.05-.2-.05-3.3-1.9q-1.55-.6-3.45-.6l-2.1.25-1.5.5q4.75 2.25 8 6.7l.45.6q2.8 4.05 3.6 8.2l1.2-1.15.4-.95.1-.55.1-.15.2-.1.15.1.1.2-.25.95-.05.25-.3.55q-.6 1-1.55 1.45.25 1.85.15 3.8.15-.15.35-.2l3.2-1 1.75-2.25.1-.1q2.6-4.1 1.7-8.35-.45-1.95-1.6-3.9-2-3.4-6.2-6.9m-3.4 11.1-.8-1.1q-2.1-2.85-4.8-4.8-1.6-1.2-3.5-2l-1.45-.6q-1.95-.75-4.05-1.15h-.05l-.35-.1h-.65l-.25.05-6.6.7-.7-.2-.3.05-2.65.55q-3.85 1.05-7.05 3.55-2.85 2.25-4.75 5.35-1.25 2-2.1 4.35l-.05.15.05.1.15.65-1.5 9.9.55-.05q.4-1.9 1.4-3.6l.85-1.2q.8-.95 1.7-1.55.75-.5 1.6-.85l.65-.25-.05.05.4-.25h.05l.95-.15q1.9 0 3 1.15l.7 1q.8 1.6.8 4.75 0 3.45-1.15 6.35l-.3.85-.75 1.35-1.95 2.05q-1.15.75-2.55.75-1.05 0-2-.55l-.6-.4-1.45-1.6Q7.2 38.1 7.2 35.65l.05-1.05-.65.2-2.05 1.3-2.05 2.15 2 2.65.05.1h.05l.85-.9.2-.1.2.15.05.15-.1.2-.9.95-.05.05-.15.2v2l.2.1q2.4 1.45 6 1.75l-.15-.2-.05-.25.15-.25.25-.05.25.15.6.75.15-.1.15.05.1.05.1.25v.2l.1.05.2.15q1.25.8 3.4 1.45l1.05.3 8.1.9h.05l4.45-.2.9-.1 4.75-.85q3.95-.85 6.15-2l.05-.05 1.4-.9.25-.1.15.05.1.1.1.2v.15l-.15.1-.6.5 1.55.25.7-.05.25-.05h.15l.3-.05q.2-.2.5-.25l4.9-1.05v-.6l-.2-.35-1.15-1.45q-.95-1-2.45-2.05h-.05l-.05-.2.05-.15.15-.15.2.05.1.1 2.45 2.05 1 1.3q.05-.25.25-.4.25-.3.65-.35 2.45-.45 4.65-2.3-.65-3.55-4.9-5.2l-.5-.4-.3-.1-.05-.05-.1-.05h.05l-1.65-.55-.8-.3-.7-.15-.15-.1-.05-.1q-.1-.1-.05-.3l.15-.2.3-.05 2.15.7 1.05.35.25-1.35.05-2.3V30q.95-6.65-3.2-12.9m-10.6 7q2.2.8 3.8 2.65l.2.25 1.1 1.6q1.35 2.15 1.75 4.65l.2 2.1v.05l-.2 2.9-.35 1.2-.35.85q-.55 1.25-1.5 2.15-2.5 2.45-6.1 2.45h-.5l-3.7-.55q-1.4-.45-2.55-1.2l-1.55-1.25q-1.1-1.15-1.8-2.55-1.15-2.4-1.15-5.7 0-3.2 2.05-6.1l.75-1.05q1.25-1.55 2.9-2.65l.35-.25h.05l.9-.3h1.55q2.25 0 4.15.75m-12.4-3.35q.1-1.15 1.2-2.1l2-1.35h1.75l.15.05.05.15v.65l-.05.15-1.15 1.35-1.25.9-.15-.05-.15-.1.1-.2.1-.1 1.05-.75 1.05-1.25v-.4h-1.3L26.9 19h-.05q-.95.8-1 1.75v.1q0 .4.85.9h-.05l.05.05 1.2.45.75-.05 1.05-.6h.15l.15.1v.15l-.1.15-1.35.65h-.6q-.55.1-1.5-.5-1.1-.7-1.05-1.3v-.1m15.55 5.95q-1.65-1.75-3.85-2.45l-.2-.05-3.25-.4h-1.5l-.75.2-.05.05-.25.2h-.05q-1.35.9-2.45 2.15l-1.1 1.45q-1.95 2.8-1.95 5.85 0 3.35 1.2 5.7l.15.25q.55 1.1 1.45 2l1.15 1L32 43.9q1.9.65 4.35.65l1.9-.2.15-.05q2.15-.5 3.75-2.1 1.65-1.65 2.15-4.4l.1-2.45v-.2l-.15-1.8q-.45-2.5-1.7-4.6l-1.1-1.45-.5-.6M21.2 2.75q-1-.55-2.2-.6-3.1-.05-7.3 2.6-1.5 1-3.2 2.35L6.65 9.7q-2.5 4.1-2.6 6.95 0 3.25 3.6 4.8l.55-1.3q.4-1.05.95-2 2.15-3.95 5.6-6.65 3.1-2.55 6.9-3.65Q20.4 6.3 17.6 6.3l-1.65.05q-.85.15-1.5.6h-.2l-.2-.1-.05-.2.05-.05.05-.1h.05q.75-.55 1.7-.7l1.75-.05q3.2 0 4.6 1.95l2.5-.5q-1.35-3.3-3.5-4.45m-4.9 14.8-.1.2-.1.3.3 1.25.3.85.1.15-.05.15-.15.1-.15-.05-.45-1.05-.3-1.4.15-.5v-.05q.25-.4.45-.35 1-.05 1.7 1.2.55 1 .55 2.2 0 .75-.45 1.3v-.05q-.4.5-1.05.5-1.05 0-2.45-.85l-.1-.15v-.15l.15-.05h.15q1.3.75 2.25.75l.7-.3q.35-.4.35-1 0-1.1-.5-2-.5-.95-1.3-1m.85 22.15.6-1.1.25-.65q1.2-2.95 1.2-6.35 0-3-.8-4.55l-.9-1.2q-.95-.7-2.4-.7l-.75.1h-.05l-.4.25h-.05l-.55.2h-.05q-.8.3-1.45.8-.9.55-1.6 1.45-.5.5-.85 1.15Q8.4 30.65 8 32.45l-.05.05-.25 1.6-.05.4-.05 1.15q0 2.3 1.6 4.55l1.55 1.6.3.2q.9.5 1.85.5 1.5 0 2.7-.95l.2-.15 1.1-1.3.25-.4m4.95 4.35q-.9-.6-1.55-.6h-.05l-.15.15h-.15l-.15-.05-.05-.2.1-.1.05-.05.05-.05.05-.05.3-.05q.8 0 1.9.65l.1.1.2.15 1 .8.05.15-.05.15h-.05l-.3.5q-.15.25-.7.3l-.9.05q-1.1 0-1.5-.4-.35-.25-.5-1.1l-.05-.3.05-.15.1-.1h.05l.15.05.05.15q.15.9.45 1.15l.15.1 1.05.15h.85l.5-.3.15-.1.1-.05-1.2-.9-.1-.05" fill="#110602"/><path d="M10.45 17.4q1.9-3.1 4.75-5.35 3.2-2.5 7.05-3.55l2.65-.55.3-.05.7.2 6.6-.7.25-.05h.65l.35.1h.05q2.1.4 4.05 1.15l.2 1.3.25 4.15q.1 2.95-2.05 5t-4.5 2l-3.8-.15-2.1-.15q.05-.95 1-1.75h.05l1.9-1.3h1.3v.4l-1.05 1.25-1.05.75-.1.1-.1.2.15.1.15.05 1.25-.9 1.15-1.35.05-.15v-.65l-.05-.15-.15-.05H28.6l-2 1.35q-1.1.95-1.2 2.1l-.8-.05q-2.8 0-4.55 1.8-1.85 1.75-3.25 1.75-2.9 0-4.85-2.5-1.65-2.05-1.5-4.35m5.85.15q.8.05 1.3 1 .5.9.5 2 0 .6-.35 1l-.7.3q-.95 0-2.25-.75h-.15l-.15.05v.15l.1.15q1.4.85 2.45.85.65 0 1.05-.5v.05q.45-.55.45-1.3 0-1.2-.55-2.2-.7-1.25-1.7-1.2-.2-.05-.45.35v.05l-.15.5.3 1.4.45 1.05.15.05.15-.1.05-.15-.1-.15-.3-.85-.3-1.25.1-.3.1-.2" fill="#eae8dc"/><path d="M18.1 25.85q-1.1-1.15-3-1.15l-.95.15h-.05l-.4.25.05-.05-.65.25q-.85.35-1.6.85-.9.6-1.7 1.55l-.85 1.2q-1 1.7-1.4 3.6l-.55.05 1.5-9.9-.15-.65-.05-.1.05-.15q.85-2.35 2.1-4.35-.15 2.3 1.5 4.35 1.95 2.5 4.85 2.5 1.4 0 3.25-1.75 1.75-1.8 4.55-1.8l.8.05v.1q-.05.6 1.05 1.3.95.6 1.5.5h.6L29.9 22l.1-.15v-.15l-.15-.1h-.15l-1.05.6-.75.05-1.2-.45v-.05q-.85-.5-.85-.9v-.1l2.1.15 3.8.15q2.35.05 4.5-2t2.05-5l-.25-4.15-.2-1.3 1.45.6q1.9.8 3.5 2l.45 1.9.25 2.2q0 2.9-1.2 5.1-1.45 2.65-4.5 3.7-1.9-.75-4.15-.75H32.1l-.9.3h-.05l-.35.25q-1.65 1.1-2.9 2.65l-1.2.2-2.3.15-4.3-.55-2-.5" fill="#dad5c4"/><path d="M42.8 11.2q2.7 1.95 4.8 4.8l.8 1.1q-.6 4.65-1.65 7.2-1.35 3.15-3.85 4.3L41.8 27l-.2-.25Q40 24.9 37.8 24.1q3.05-1.05 4.5-3.7 1.2-2.2 1.2-5.1l-.25-2.2-.45-1.9M18.45 37.95q1.15-2.9 1.15-6.35 0-3.15-.8-4.75l-.7-1 2 .5 4.3.55 2.3-.15 1.2-.2-.75 1.05q-2.05 2.9-2.05 6.1 0 3.3 1.15 5.7l-2.3-.95q-1.8-.55-4.15-.55h-.05l-1.3.05" fill="#c4bbae"/><path d="M48.4 17.1q4.15 6.25 3.2 12.9v.05l-.05 2.3-.25 1.35-1.05-.35-2.15-.7-.3.05-.15.2q-.05.2.05.3l.05.1-1.6-.15H46l-1.35.1q-.4-2.5-1.75-4.65 2.5-1.15 3.85-4.3 1.05-2.55 1.65-7.2m-4.95 27.75-.15-.05-.25.1-1.4.9-.05.05q-2.2 1.15-6.15 2l-4.75.85 3.55-2.05 1.6-1.7h.5q3.6 0 6.1-2.45.95-.9 1.5-2.15L43.7 42l-.3 2.05.05.8" fill="#a18882"/><path d="m30.7 48.7-.9.1-4.45.2q4.3-2.1 4.3-5.05l-.05-.75q1.15.75 2.55 1.2l3.7.55-1.6 1.7-3.55 2.05" fill="#baafa7"/><path d="m25.3 49-8.1-.9-1.05-.3 2.2-.15 1.5.15 4.9-.6q1.75-.55 1.75-1.45 0-2.55-2.5-4.35-2.25-1.6-5.05-1.6L18 40l-.6.15.75-1.35.3-.85 1.3-.05h.05q2.35 0 4.15.55l2.3.95q.7 1.4 1.8 2.55l1.55 1.25.05.75q0 2.95-4.3 5.05h-.05m-13.05-3.35-.15-.05-.15.1-.6-.75-.25-.15-.25.05-.15.25.05.25.15.2q-3.6-.3-6-1.75l-.2-.1v-2l.15-.2.05-.05.9-.95.1-.2-.05-.15-.2-.15-.2.1-.85.9-.1-.1-2-2.65 2.05-2.15 2.05-1.3.65-.2-.05 1.05q0 2.45 1.65 4.75L10.3 42l.6.4v.45q0 1 .8 2.05l.55.75m7.65-6.8-.35.05-.35.1-.05.1v.1l.15.25.35.1.5-.15.3-.3q0-.25-.55-.25" fill="#d4d0c0"/><path d="M16.15 47.8q-2.15-.65-3.4-1.45l-.2-.15-.1-.15v-.1l-.1-.25-.1-.05-.55-.75q-.8-1.05-.8-2.05v-.45q.95.55 2 .55 1.4 0 2.55-.75l1.95-2.05.6-.15.95-.2q2.8 0 5.05 1.6 2.5 1.8 2.5 4.35 0 .9-1.75 1.45l-4.9.6-1.5-.15-2.2.15m3.8-3.95h-.05l-.1.1-.05.15.05.3q.15.85.5 1.1.4.4 1.5.4l.9-.05q.55-.05.7-.3l.3-.5h.05l.05-.15-.05-.15-1-.8-.2-.15-.1-.1q-1.1-.65-1.9-.65l-.3.05-.05.05-.05.05-.05.05-.1.1.05.2-.1.3" fill="#e5e4da"/><path d="m20.05 43.55.15.05h.15l.15-.15h.05q.65 0 1.55.6l-.6.5-.75.75-.15-.1q-.3-.25-.45-1.15l-.05-.15-.15-.05.1-.3" fill="#520d17"/><path d="m22.1 44.05.1.05 1.2.9-.1.05-.15.1-.5.3h-.85l-1.05-.15.75-.75.6-.5" fill="#a30f18"/><path d="M19.9 38.85q.55 0 .55.25l-.3.3-.5.15-.35-.1-.15-.25v-.1l.05-.1.35-.1.35-.05" fill="#180d07"/><path d="m54.05 21.5-.1.15-.1.55-.4.95-1.2 1.15q-.8-4.15-3.6-8.2l-.45-.6q-3.25-4.45-8-6.7l1.5-.5 2.1-.25q1.9 0 3.45.6l3.3 1.9.2.05.15-.05q1.4 1.35 2.25 3.5l.35 1.15q.7 2.35.7 5l-.15 1.15v.15m-44.9-3.35q-1.85-1-1.85-2.7 0-2.6 2.2-5.45 2.05-2.8 4.3-3.4h.25l-.05.05.05.2.2.1h.2q.65-.45 1.5-.6l1.65-.05q2.8 0 4.05 1.55-3.8 1.1-6.9 3.65-3.45 2.7-5.6 6.65" fill="#2f2214"/><path d="m57.8 25.25-1.75 2.25-3.2 1q-.2.05-.35.2.1-1.95-.15-3.8.95-.45 1.55-1.45l.3-.55.75 1.2q1 1.25 1.75 1.25l1.05-.15.05.05" fill="#2b1e13"/><path d="m8.2 20.15-.85-1.7q-.75-1.65-1-2.8-.2-1.25 1.3-3.75 1.55-2.6 2.6-3.55 1.05-.95 2.4-1.75 3.6-2 5.55-2 1.5.05 2.35-.8l.65-1.05q2.15 1.15 3.5 4.45l-2.5.5q-1.4-1.95-4.6-1.95l-1.75.05q-.95.15-1.7.7h-.05l-.05.1h-.25q-2.25.6-4.3 3.4-2.2 2.85-2.2 5.45 0 1.7 1.85 2.7-.55.95-.95 2" fill="#5e3f29"/><path d="M58 12.9q1.15 1.95 1.6 3.9.9 4.25-1.7 8.35l-.15.05-1.05.15q-.75 0-1.75-1.25l-.75-1.2.05-.25.25-.95-.1-.2-.15-.1-.2.1v-.15l.15-1.15q0-2.65-.7-5l-.35-1.15.65.35 1.15.4q1.05 0 2.15-.9l.9-1" fill="#563927"/><path d="M51.8 6Q56 9.5 58 12.9l-.9 1q-1.1.9-2.15.9l-1.15-.4-.65-.35q-.85-2.15-2.25-3.5v-.05l.05-.2-.1-.15q-2-1.45-3.4-2-1.65-.65-3.65-.65l-2.2.25q-1.15.25-2 .75-1-.5-2.05-.85l-3.4-.9q2.5-2.9 6.8-3.25l-.3 1.15q0 1.5 3.45 2.4l4.85.7Q51 7.75 51.8 6M21.2 2.75l-.65 1.05q-.85.85-2.35.8-1.95 0-5.55 2-1.35.8-2.4 1.75-1.05.95-2.6 3.55-1.5 2.5-1.3 3.75.25 1.15 1 2.8l.85 1.7-.55 1.3q-3.6-1.55-3.6-4.8.1-2.85 2.6-6.95l.1.1h1.1q.75-.2 2.45-2.1L12 5.45l-.3-.7q4.2-2.65 7.3-2.6 1.2.05 2.2.6" fill="#7c502f"/><path d="M40.95 3.5q4.1-.35 9.8 1.65L51.8 6q-.8 1.75-2.85 1.75l-4.85-.7q-3.45-.9-3.45-2.4l.3-1.15M11.7 4.75l.3.7-1.7 2.25Q8.6 9.6 7.85 9.8h-1.1l-.1-.1L8.5 7.1q1.7-1.35 3.2-2.35" fill="#ab7143"/><path d="M26.75 39.4q-1.2-2.35-1.2-5.7 0-3.05 1.95-5.85l1.1-1.45q1.1-1.25 2.45-2.15h.05l.25-.2.05-.05.75-.2h1.5l3.25.4.2.05q2.2.7 3.85 2.45-2.65-.1-4.85 2.05-1.95 1.9-3.1 4.9l-.15.1q-.95.45-1.75 1.05-1.15.75-2.05 1.65-.9.85-1.65 2.05l-.65.9M11.8 26.5q.65-.5 1.45-.8h.05l.55-.2h.05l.4-.25h.05l.75-.1q1.45 0 2.4.7l.9 1.2q.8 1.55.8 4.55 0 3.4-1.2 6.35l-.25.65-.6 1.1v-.05l.25-.75v-.8q0-1.4-.55-3.4-.5-1.9-1.2-3.25l-1.6-2.85-1.25-1.25-1-.85" fill="#2e2114"/><path d="m40.95 26.7.5.6 1.1 1.45q1.25 2.1 1.7 4.6l.15 1.8-.75-.45q-1.6-1-2.65-1.25l-2.1-.55-2.45-.2-1.35.05q-1.15.4-2.1.9 1.15-3 3.1-4.9 2.2-2.15 4.85-2.05M32 43.9l-2.5-1.25-1.15-1q-.9-.9-1.45-2l-.15-.25.65-.9q.75-1.2 1.65-2.05.9-.9 2.05-1.65l-.15.8-.1 2.35q0 2 .35 3.45l.8 2.5m-14.85-4.2-.25.4-1.1 1.3-.2.15.05-1.6q0-3.5-1.4-6.85-1.55-3.65-4.05-5.15.7-.9 1.6-1.45l1 .85 1.25 1.25 1.6 2.85q.7 1.35 1.2 3.25.55 2 .55 3.4v.8l-.25.75v.05" fill="#513626"/><path d="M44.4 35.15v.2l-.1 2.45q-1.25-1.6-3-1.6-2.35 0-3.95 1.5-1.55 1.45-1.55 3.5 0 .8.85 1.85.8.95 1.6 1.3l-1.9.2q-2.45 0-4.35-.65l-.8-2.5q-.35-1.45-.35-3.45l.1-2.35.15-.8q.8-.6 1.75-1.05l.15-.1q.95-.5 2.1-.9l1.35-.05 2.45.2 2.1.55q1.05.25 2.65 1.25l.75.45m-28.8 6.4q-1.2.95-2.7.95-.95 0-1.85-.5l-.3-.2q1.05-.5 1.55-1.4.45-.8.45-2.75 0-4.5-3.25-4.5l-1 .4-.8.55.25-1.6.05-.05q.4-1.8 1.35-3.35.35-.65.85-1.15 2.5 1.5 4.05 5.15 1.4 3.35 1.4 6.85l-.05 1.6" fill="#6a422c"/><path d="M44.3 37.8q-.5 2.75-2.15 4.4-1.6 1.6-3.75 2.1l-.15.05q-.8-.35-1.6-1.3-.85-1.05-.85-1.85 0-2.05 1.55-3.5 1.6-1.5 3.95-1.5 1.75 0 3 1.6m-33.55 4L9.2 40.2q-1.6-2.25-1.6-4.55l.05-1.15.05-.4.8-.55 1-.4q3.25 0 3.25 4.5 0 1.95-.45 2.75-.5.9-1.55 1.4" fill="#95593d"/><path d="m49.4 33.85 1.65.55H51l.1.05.05.05.3.1.5.4q4.25 1.65 4.9 5.2-2.2 1.85-4.65 2.3-.4.05-.65.35-.2.15-.25.4l-1-1.3-2.45-2.05v-.1l-.1-.5-.1-.55.2-1.45.35-1.65q.55-1.25 1.2-1.8m-2 6.4h.05q1.5 1.05 2.45 2.05l1.15 1.45.2.35v.6l-4.9 1.05q-.3.05-.5.25l-.3.05h-.15l-.25.05-.15-.3-.2-.9q0-1.5.95-3.15.8-1.35 1.65-1.5" fill="#d2cbbf"/><path d="m47.75 33.3.15.1.7.15.8.3q-.65.55-1.2 1.8l-.35 1.65-.2 1.45.1.55.1.5v.1l-.1-.1-.2-.05-.15.15-.05.15.05.2q-.85.15-1.65 1.5-.95 1.65-.95 3.15l.2.9.15.3-.7.05-1.55-.25.6-.5.15-.1v-.15l-.1-.2-.1-.1-.05-.8.3-2.05.25-1.65.35-.85.35-1.2.2-2.9v-.05l-.2-2.1 1.35-.1h.15l1.6.15" fill="#bcb2a9"/><path d="m14.25 28.6.05.05.3.35.35.45 1.4 1 .75.35.15.15v.2l-.15.15h-.2l-.4-.15.15 3.95q-.15 2.1-.7 3.25l-.25.45q-1.15 1.6-3.55.65l-.35-.15-.1-.1q-2.35-4.1 2-10.3l.15-.25.2-.1.2.05m1.8 7.05v-.05q.15-1.9-.1-4.75-1.15-.6-1.9-1.55-1.05 1.45-1.65 2.85l-.45 1.2q-.25.65-.35 1.25l-.05.15-.1.8v.3q-.05 1.65.65 3l.8.3q1.55.4 2.3-.7h.05l.2-.3v-.05l.35-.9.25-1.55m21.85-5.2q-1-1.4-2.7-2.45l-.9.45 1.8 2.6v.05l.75 1.75.05.3.05.1q.5 1.95-.05 3.9-.4 1.35-1.3 2.7l-.15.3-.2.1h-.05l-.1-.05-.15-.15.05-.2q1-1.45 1.35-2.95l.2-.7v-.35l.05-1.05q-.05-1.3-.6-2.6-.7-1.75-2.2-3.45l-3.1 1.6-.75 1.4q-1.1 2.35-.6 4.85l.05.2.55 1.75q2.15 2.4 4.35 2.25l.6-.15q1.9-.5 3.85-3 .6-2.3.3-4.25-.25-1.6-1.15-2.95m-1.65-3.5.15.1.05.2-.15.15-.55.3q1.85 1.25 2.85 2.85.9 1.45 1.05 3.25.2 1.85-.4 4.05l-.05.1Q36.85 41 34.45 41.3h-.1q-2.45.25-4.85-2.45l-.05-.05q-1.75-4.15.35-8.05h-.05l-.15-.15v-.2l.1-.15.65-.3.05-.05 4.65-2.4.05-.05.95-.5h.2" fill="#110602"/><path d="M16.05 35.6v.05l-1.2 1.05-.2.15-.25.15-.35.15-.2-.05h-.1q-.6-.15-.9-.85-.3-.7-.3-1.75v-.05l.05-.65h.05l.6-.25.25-.6-.25-.6q-.25-.25-.6-.25l-.25.05q.6-1.4 1.65-2.85.75.95 1.9 1.55.25 2.85.1 4.75m20.55-.8-.95-1.65q-1.25-1.7-2.25-1.7l-.6.25q-.3.35-.2 1l-.05.25.25.75.4.3h.1l.45-.2.2.4.35.85v.05l.1.5-.15 1-.05.15q-.3.6-1.05.6-.65 0-1.4-1.25L31 34.7q-.35.1-.75.55l-.2.3-.7 1.05q-.5-2.5.6-4.85L31 30.9q.3-.55.85-.55 1.95 0 2.65.45l1.5 1.4q.55 1.3.6 2.6" fill="#1c0a0d"/><path d="m29.95 31.75.75-1.4 3.1-1.6q1.5 1.7 2.2 3.45l-1.5-1.4q-.7-.45-2.65-.45-.55 0-.85.55l-1.05.85" fill="#050507"/><path d="M15.2 38.45q-.75 1.1-2.3.7l.35-.7.45-.45.1-.2h.05l.25-.15.1-.2-.1-.25-.05-.05.35-.15v.05l.2.7q.2.55.6.7m-3.6-3.85q.1-.6.35-1.25l.1.2.55.25-.05.65-.05.05-.35-.1-.4.1-.15.1m24.95 1.45-.25-.25-.4-.25-.05-.05-.3-.85Q35.1 34 34.5 34l-.4.1-.15.1-.2-.4.05-.1.25-.75-.25-.75-.5-.3q-.3 0-.5.3l-.2.5q-.1-.65.2-1l.6-.25q1 0 2.25 1.7l.95 1.65-.05 1.05v.2m-1.35.2.7.4.45.25Q36 38.4 35 39.85l-.05.2.15.15.1.05-.3.4-.6.15q-2.2.15-4.35-2.25l-.55-1.75-.05-.2.7-1.05.2-.3q.4-.45.75-.55l.75 1.4q.75 1.25 1.4 1.25.75 0 1.05-.6l.05.6-1.55.75-.15-.65-.35-.3-.3.3-.05.2-.4-.2-.65-.35h-.15v.5l1.05 1.75q.35.55 1.25.55.9.05 1.8-.9l.05-.05q.95-.65.95-1.35l-.3-.7-.25-.65m-4.55-.9-.2-.2-.15.2-.1.45.1.45.15.2.2-.2.05-.45-.05-.45" fill="#6c3821"/><path d="M34.75 39q-.9.95-1.8.9-.9 0-1.25-.55l-1.05-1.75v-.5h.15l.65.35.4.2-.05.1-.05.45q0 .45.15.75l.3.3.35-.3.15-.75v-.1l1.55-.75.15-.1q.4 0 .4 1.15l-.05.55V39" fill="#f7ed8d"/><path d="M11.45 35.85v-.3l.1-.8.05-.15.15-.1.4-.1.35.1h.05q0 1.05.3 1.75t.9.85l-.15.1-.1.25.1.2.2.15-.1.2-.45.45q-.85-.05-1.3-1l-.5-1.6m1.1.3-.1-.45-.3-.2-.25.2-.1.45.1.4.25.2.3-.2.1-.4" fill="#eca556"/><path d="m12.55 36.15-.1.4-.3.2-.25-.2-.1-.4.1-.45.25-.2.3.2.1.45M32.7 38.1v.1l-.15.75-.35.3-.3-.3q-.15-.3-.15-.75l.05-.45.05-.1.05-.2.3-.3.35.3.15.65" fill="#fffef6"/><path d="m11.95 33.35.45-1.2.25-.05q.35 0 .6.25l.25.6-.25.6-.6.25h-.05l-.55-.25-.1-.2m21.3.5-.2-.15-.15-.45.15-.45.2-.15.25.15.1.45-.05.35-.05.1-.25.15" fill="#fffec3"/><path d="m30.65 35.35.05.45-.05.45-.2.2-.15-.2-.1-.45.1-.45.15-.2.2.2" fill="#e69a5d"/><path d="m32.6 32.7.2-.5q.2-.3.5-.3l.5.3.25.75-.25.75-.05.1-.2-.2.05-.35-.1-.45-.25-.15-.2.15-.15.45.15.45.2.15-.05.15-.4-.3-.25-.75.05-.25" fill="#e79f56"/><path d="m35.85 35.55-.2-.05q-.75 0-.75.35l.25.35.05.05.25.65.3.7q0 .7-.95 1.35h-.05l.05-.55q0-1.15-.4-1.15l-.15.1-.05-.6.05-.15.15-1-.1-.5h.55l1 .4v.05" fill="#cd7c52"/><path d="m33.95 34.2.15-.1.4-.1q.6 0 1.05.65l.3.85-1-.4h-.55v-.05l-.35-.85" fill="#7f492e"/><path d="M36.9 33.15q.35-.25.75-.25.5 0 1.4.5.3 1.95-.3 4.25-1.95 2.5-3.85 3l.3-.4h.05l.2-.1.15-.3q.9-1.35 1.3-2.7.55-1.95.05-3.9l-.05-.1m-1 2.4.4.25.25.25v.15l-.2.7-.45-.25-.7-.4-.05-.05-.25-.35q0-.35.75-.35l.2.05h.05" fill="#fffef5"/><path d="m36.1 31.05.45-.3q.6-.3 1.3-.3h.05q.9 1.35 1.15 2.95-.9-.5-1.4-.5-.4 0-.75.25l-.05-.3-.75-1.75v-.05" fill="#f0bfb2"/><path d="M37.85 30.45q-.7 0-1.3.3l-.45.3-1.8-2.6.9-.45q1.7 1.05 2.7 2.45h-.05" fill="#db9599"/><path d="m12.9 39.15-.8-.3q-.7-1.35-.65-3l.5 1.6q.45.95 1.3 1l-.35.7" fill="#97333a"/><path d="m16.05 35.65-.25 1.55-.35.9-.8-1.25.2-.15 1.2-1.05" fill="#603623"/><path d="m15.45 38.15-.2.3h-.05q-.4-.15-.6-.7l-.2-.7.25-.2.8 1.25v.05" fill="#a25f34"/><path d="m14.05 37.15.05.05.1.25-.1.2-.25.15h-.05l-.2-.15-.1-.2.1-.25.15-.1.15.05h.15" fill="#fffebb"/><path d="m14.25 28.6-.2-.05-.2.1-.15.25-.55-.95.3-.1q.35 0 .8.7v.05" fill="#130602"/></g><use ffdec:characterId="2" height="6.25" width="11" xlink:href="#j" id="c"/><use ffdec:characterId="4" height="21.15" width="36.55" xlink:href="#k" id="d"/><use ffdec:characterId="6" height="11.9" width="14.8" xlink:href="#l" id="e"/><use ffdec:characterId="8" height="12.7" width="14.85" xlink:href="#m" id="f"/><use ffdec:characterId="10" height="17.4" width="16.3" xlink:href="#n" id="g"/><use ffdec:characterId="12" height="22.25" width="23.9" xlink:href="#o" id="h"/><use ffdec:characterId="14" height="49.7" width="62" xlink:href="#p" id="i"/><path d="M19.6-3.5q8.15 1.45 8.15 3.5 0 2-8.15 3.4Q11.5 4.9 0 4.9q-11.5 0-19.65-1.5-8.1-1.4-8.1-3.4 0-2.05 8.1-3.5Q-11.5-4.9 0-4.9q11.5 0 19.6 1.4" fill-opacity=".349" fill-rule="evenodd" transform="translate(27.75 4.9)" id="b"/></defs></svg>