<svg xmlns:ffdec="https://www.free-decompiler.com/flash" xmlns:xlink="http://www.w3.org/1999/xlink" ffdec:objectType="frame" height="90" width="90" xmlns="http://www.w3.org/2000/svg"><use ffdec:characterId="27" height="90.9" transform="translate(0 -.5)" width="90" xlink:href="#a"/><defs><g id="a" transform="translate(0 .5)"><use ffdec:characterId="8" height="90" width="90" xlink:href="#b"/><use ffdec:characterId="26" height="128.5" transform="matrix(.7069 0 0 .7073 9.91 -.495)" width="100" xlink:href="#c"/></g><g id="b"><use ffdec:characterId="6" height="90" width="90" xlink:href="#d"/><use ffdec:characterId="7" height="0" transform="translate(12) scale(.4296)" width="0" xlink:href="#sprite7"/></g><g id="d"><use ffdec:characterId="4" height="90" width="90" xlink:href="#e"/><use ffdec:characterId="5" height="0" transform="matrix(.669 0 0 .6701 18.8 0)" width="0" xlink:href="#sprite6"/></g><g id="e"><use ffdec:characterId="1" height="0" transform="matrix(.3991 0 0 .3989 0 1)" width="0" xlink:href="#sprite4"/><use ffdec:characterId="3" height="62.35" transform="scale(1.7324 1.4435)" width="51.95" xlink:href="#f"/></g><g id="c" transform="translate(4.3 .7)"><use ffdec:characterId="9" height="18" transform="translate(24.25 111.1) scale(.8973)" width="61" xlink:href="#g"/><use ffdec:characterId="10" height="25.35" transform="translate(-.538 69.312) scale(.8973)" width="24.15" xlink:href="#h"/><use ffdec:characterId="11" height="41.45" transform="translate(37.974 86.303) scale(.8973)" width="40.05" xlink:href="#i"/><use ffdec:characterId="12" height="38.5" transform="translate(15.862 93.212) scale(.8973)" width="33.45" xlink:href="#j"/><use ffdec:characterId="13" height="35.15" transform="matrix(.8911 .098 -.098 .8911 23.703 89.905)" width="9.15" xlink:href="#k"/><use ffdec:characterId="14" height="40.45" transform="translate(20.705 61.405) scale(.8973)" width="55.15" xlink:href="#l"/><use ffdec:characterId="15" height="35.8" transform="translate(56.185 64.662) scale(.8973)" width="23.8" xlink:href="#m"/><use ffdec:characterId="16" height="40.05" transform="translate(21.774 62.112) scale(.8973)" width="54.6" xlink:href="#n"/><use ffdec:characterId="17" height="55.6" transform="translate(7.064 20.907) scale(.8973)" width="67.45" xlink:href="#o"/><use ffdec:characterId="18" height="39.45" transform="translate(6.077 21.265) scale(.8973)" width="48.65" xlink:href="#p"/><use ffdec:characterId="19" height="71.75" transform="translate(1.412 -.538) scale(.8973)" width="100.15" xlink:href="#q"/><use ffdec:characterId="20" height="36.05" transform="translate(2.712 68.462) scale(.8973)" width="35.7" xlink:href="#r"/><use ffdec:characterId="21" height="21.8" transform="translate(.462 59.062) scale(.8973)" width="24.1" xlink:href="#s"/><use ffdec:characterId="22" height="34.3" transform="translate(41.712 72.762) scale(.8973)" width="40.9" xlink:href="#t"/></g><g id="h"><path d="M.05 8.45q3.15 2.4 3-3.65v-.05Q3.4.4 1.1 0l12.45.75q.4 14.45 9.4 16.75-4.05 6.65-10.45 6.65-7.2.05-9.8-5.8-2.35-5.6-2.65-9.9" fill="#783e2a" fill-rule="evenodd" transform="translate(.6 .6)"/><path d="M1.1 0q2.3.4 1.95 4.75v.05q.15 6.05-3 3.65Q-.3 3.9 1.1 0" fill="#c57456" fill-rule="evenodd" transform="translate(.6 .6)"/><path d="M1.7.6Q.3 4.5.65 9.05q.3 4.3 2.65 9.9 2.6 5.85 9.8 5.8 6.4 0 10.45-6.65-9-2.3-9.4-16.75L1.7.6z" fill="none" stroke="#43241b" stroke-linecap="round" stroke-linejoin="round" stroke-width="1.2"/></g><g id="i"><path d="M26.4 24.3q1.2-.45 1.4-2.05.15-1.45-.5-3.9.3 1.85-.8 3.5-1.3 1.9-4.5 3.45 2.15-.2 4.4-1m3.4 8.15Q27.9 27.2 22 25.3h-.05l-8.05-.6q6.2-.8 4.95-5.45-.6-2.05-2.6-4.85-5.3 1.3-10.65 0l.8 2.95q1.2 3.65 3.45 5.4-2.75-1.9-5.65-5.35l-2.45-3.25Q-2.4 8-2.55.15 6.85-15.5 17.15 0l6.15 10.25q5.4 4 8.55 7.1 2.85 4.75 3.3 8.1.7 5.5-5.35 7" fill="#2c0c11" fill-rule="evenodd" transform="translate(3.15 8.3)"/><path d="M22 25.3q3.2-1.55 4.5-3.45 1.1-1.65.8-3.5.65 2.45.5 3.9-.2 1.6-1.4 2.05-2.25.8-4.4 1" fill="#393b36" fill-rule="evenodd" transform="translate(3.15 8.3)"/><path d="M29.8 32.45q6.05-1.5 5.35-7-.45-3.35-3.3-8.1 4.5 4.3 4.45 6.65l-.05 2q-.55 7.4-6.45 6.45" fill="#5da7d8" fill-rule="evenodd" transform="translate(3.15 8.3)"/><path d="M9.85 22.75Q7.6 21 6.4 17.35l-.8-2.95q5.35 1.3 10.65 0 2 2.8 2.6 4.85 1.25 4.65-4.95 5.45-2-.5-4.05-1.95" fill="#441c1a" fill-rule="evenodd" transform="translate(3.15 8.3)"/><path d="M29.55 32.6q-2.25.8-4.4 1 5.9 1.9 7.8 7.15 5.9.95 6.45-6.45l.05-2q.05-2.35-4.45-6.65-3.15-3.1-8.55-7.1L20.3 8.3Q10-7.2.6 8.45q.15 7.85 4.3 14l2.45 3.25q2.9 3.45 5.65 5.35 2.05 1.45 4.05 1.95l8.05.6h.05" fill="none" stroke="#25200c" stroke-linecap="round" stroke-linejoin="round" stroke-width="1.2"/></g><g id="j"><path d="M20 37.05q2.9-2.5 4.45-4.85Q28 26.8 24.3 22q5.55 3.35 2.35 9.75l-1.3 1.35Q22.2 36.2 20 37.05" fill="#5da7d8" fill-rule="evenodd" transform="translate(.6 .6)"/><path d="m32.25 12.25-3.3 1.9Q26 16 24.8 17.85q-1.45 2.1-.5 4.15 3.7 4.8.15 10.2-1.55 2.35-4.45 4.85-2.2.8-3.4-.75-.1-3.25-3.65-6.9l-.25-.25Q.3 19.5 0 15.65.35 7.45 6.85 0H27.2l5.05 12.25m-13.45 9.6q-3-.45-4.35-1.8-1.35-1.3-1.3-3.4-2.7 2.85-6 3.5 1.7 5.6 10.5 6l.35-.3q1.45-1.55.8-4" fill="#2c0c11" fill-rule="evenodd" transform="translate(.6 .6)"/><path d="M18.8 21.85q.65 2.45-.8 4l-.35.3q-8.8-.4-10.5-6 3.3-.65 6-3.5-.05 2.1 1.3 3.4 1.35 1.35 4.35 1.8" fill="#441c1a" fill-rule="evenodd" transform="translate(.6 .6)"/><path d="M24.9 22.6q-.95-2.05.5-4.15 1.2-1.85 4.15-3.7l3.3-1.9M27.8.6H7.45Q.95 8.05.6 16.25q.3 3.85 12.7 13.5l.25.25q3.55 3.65 3.65 6.9 1.2 1.55 3.4.75 2.2-.85 5.35-3.95l1.3-1.35q3.2-6.4-2.35-9.75" fill="none" stroke="#25200c" stroke-linecap="round" stroke-linejoin="round" stroke-width="1.2"/></g><g id="k"><path d="M3.4 15.85H2.25Q3.35 9.45 0 .8l1.95.65Q3.9 8 3.8 12.5l-.4 3.35.4-3.35q2.6-3.3-.1-10.45L4.55 0q3.45 7.3 0 15.85H3.4m.45 12.5.2-.7q-.65-.4 0-1.4V23.4l.5-.45.5-.55.6 3.85q.9.75 0 1.35Q7.5 32 6.9 33.65l-.65.3v-.15l-.2-1.9-.4-1.75-.1.95-.3.85-.15-2.1q-.3-1.5-1.2-1.5h-.05m1.8-2.1h-1.6.8l-.3-3.3.3 3.3h.8m0 1.35-1.6.05 1.6-.05" fill="#821b17" fill-rule="evenodd" transform="translate(.5 .5)"/><path d="M6.25 33.95q-1.45.5-2.6-.3 1.25-1.15.4-3.1-.5-1-.2-2.2h.05q.9 0 1.2 1.5l.15 2.1.3-.85.1-.95.4 1.75.2 1.9v.15" fill="#c12622" fill-rule="evenodd" transform="translate(.5 .5)"/><path d="M3.8 12.5Q3.9 8 1.95 1.45L0 .8q3.35 8.65 2.25 15.05H3.4l.4-3.35q2.6-3.3-.1-10.45L4.55 0q3.45 7.3 0 15.85H3.4m.45 12.5.2-.7q-.65-.4 0-1.4V23.4l.5-.45.5-.55.6 3.85q.9.75 0 1.35Q7.5 32 6.9 33.65l-.65.3q-1.45.5-2.6-.3 1.25-1.15.4-3.1-.5-1-.2-2.2m.2-2.1h.8l-.3-3.3m-.5 4.7 1.6-.05m-.8-1.35h.8" fill="none" stroke="#381410" stroke-linecap="round" stroke-linejoin="round" transform="translate(.5 .5)"/><path d="m1.55 14.15.2-.1L2 14h.05l.2.05-.05-.2-.1-.5q0-.8.55-1.3.55-.55 1.3-.55.8 0 1.3.55l.35.5.25.9H5.8l-.4.2-.1.15q-.15.2-.15.5l.1.35-.15.15-1.15.35L3.2 15l-.3-.15v.2l-.15.3.35.15q.5-.35 1.05-.35l.65.1.25.15.55-.35.45.15.6-.25-.6.25-.45-.15-.1-.05-.1-.1h.15l.35-.05.1-.05.2-.15.15-.25.05-.15.05-.3-.1-.5.3.2.3.65v.2l-.3.4v.05l.6.2-.25.15-.4.3-.25.25.05.3.05.15.05.6v.4l.05.05v.05l.2.1.45.15h.2l.7-.4-.15.3-.35.5-.5.4h.05v.05l.1.4-.3.6-.6.25H6.2l.15.7-.2.8-.35.5q-.55.55-1.3.55h-.25q-.5-.1-.9-.4l-.15-.15-.35-.5-.2-.8.05-.3-.35.05-.5-.1-.15-.2-.1-.05h.25l.5-.15.25-.4v-.15l-.2-.3-.55-.2H1.7l-.1.05-.2.05-.55-.4-.1-.1.2.05q.5 0 .7-.35V16.8l.05-.4-.05-.05-.6-.3-.3-.2.1-.1.45-.3-.05-.05h.25l.6-.2.15-.4q0-.45-.4-.6l-.3-.05M5.8 17.9l.05-.05.05-.15.1-.7-.1-.65-.05-.15-.25-.35-.15-.15-.4-.3.4.3.15.15.25.35.05.15.1.65-.1.7-.05.15-.05.05-.35.4-.05.05-.4.3.45.2v.1l.05.3.15.2.4-.05.25-.05.35-.5-.2-.6-.05-.1-.25-.15-.35-.1m1.3.55-.15-.2-.25-.15-.35-.1h-.2.2l.35.1.25.15.15.2m-2.05-1.7-.35-.6-.05-.05-.75-.25q-.5 0-.85.3l-.3.55-.05.3.25.75.1.1q.35.35.85.35l.8-.35.35-.85v-.25m1.15 3h-.05l-.25-.1-.05-.05-.15-.1-.05-.05.05.05.15.1.05.05.25.1h.05M4.25 12.3q-.25-.25-.65-.25-.45 0-.7.25-.3.3-.3.7l.1.35.2.35.7.25.65-.25.15-.2.15-.5-.3-.7m1.15 7.75-.25-.4-.35-.25-.45-.05q-.45 0-.75.3-.35.35-.35.8l.05.25.3.5.3.25.45.1.5-.1.3-.25.3-.6v-.15l-.05-.4m-2.5-5.2-.3-.6-.35-.2.35.2.3.6m-1.6.6.05.05.2.15.45.15.6-.25v-.05l.15-.15-.15.15v.05l-.6.25-.45-.15-.2-.15-.05-.05m1.8.05-.25.2-.3.45-.2.7V17l.25 1 .25.3.35.3-.35-.3-.25-.3-.25-1v-.15l.2-.7.3-.45.25-.2M3 18.7l-.05-.05-.6-.25-.3.05-.35.2.35-.2.3-.05.6.25.05.05.1.25.1.2q.2-.2.5-.35l-.15-.05-.35-.15-.2.1m2-.05-.85.2-.45-.05.45.05.85-.2m-2.3 1.5.2-.2.05-.05.25-.6v-.15.15l-.25.6-.05.05-.2.2" fill="#225d1b" fill-rule="evenodd" transform="translate(.5 .5)"/><path d="m5.85 13.45.2-.05.3.05.1.5-.05.3-.05.15-.15.25-.2.15-.1.05-.35.05H5.4l-.15-.25-.1-.35q0-.3.15-.5l.1-.15.4-.2h.05m1.4 1.7.2.2.15.1.15.15.2.35.2.8v.3l-.05.2-.7.4h-.2l-.45-.15-.2-.1v-.05l-.05-.05v-.4l-.05-.6-.05-.15-.05-.3.25-.25.4-.3.25-.15m-5.65 4.7-.1-.2v-.05l-.05-.3q0-.25.15-.45l.1-.2h.15l.55.2.2.3v.15l-.25.4-.5.15H1.6m-.85-1.6-.35-.7-.1-.35v-.15q0-.7.45-1.2l.3.2.6.3.05.05-.05.4v1.15q-.2.35-.7.35l-.2-.05m.5-2.85-.05-.15-.1-.35.25-.65.2-.1.3.05q.4.15.4.6l-.15.4-.6.2h-.25m4.7-1.35-.1-.05-.1.05-.05.1.05.1.1.05.1-.05.05-.1v-.1h-.05M7.3 15.8l-.15-.05-.2.05-.1.15V16l.1.15.2.1.15-.1.1-.15-.1-.2m-2.25.95V17l-.35.85-.8.35q-.5 0-.85-.35l-.1-.1L2.7 17l.05-.3.3-.55q.35-.3.85-.3l.75.25.05.05.35.6m.5 1.7.15-.2.4-.2.05-.05.25.15.05.1.2.6-.35.5-.25.05-.4.05-.15-.2-.05-.3v-.1l.1-.4m.45.15-.05.15.05.15.15.05.1-.05.1-.15-.1-.15-.1-.05-.15.05m-.6 1.45.05.4v.15l-.3.6-.3.25-.5.1-.45-.1-.3-.25-.3-.5-.05-.25q0-.45.35-.8.3-.3.75-.3l.45.05.35.25.25.4M4.25 12.3l.3.7-.15.5-.15.2-.65.25-.7-.25-.2-.35-.1-.35q0-.4.3-.7.25-.25.7-.25.4 0 .65.25m-1.15.05-.2.1-.1.2.1.2.2.15.2-.15.15-.2-.15-.2-.2-.1m-1.2 2.4-.05-.15-.1-.05-.15.05-.05.15.05.1.15.05.1-.05.05-.1m1.05 1.9.1.25.25.1.3-.1.1-.25-.05-.25-.05-.05-.3-.1-.25.1-.1.3m-2.2.25.1.15.15.05.2-.05.1-.2-.1-.15-.2-.1-.15.1-.1.15v.05m1.2 2.4.1.05.1-.05.05-.1-.05-.1-.1-.05-.1.05-.05.1.05.1m2.35.5-.3-.1-.35.1-.1.35.05.25.05.05.35.15.3-.15.15-.3-.15-.35" fill="#65a97a" fill-rule="evenodd" transform="translate(.5 .5)"/><path d="M5.95 14.05H6v.1l-.05.1-.1.05-.1-.05-.05-.1.05-.1.1-.05.1.05M7.3 15.8l.1.2-.1.15-.15.1-.2-.1-.1-.15v-.05l.1-.15.2-.05.15.05M6 18.6l.15-.05.1.05.1.15-.1.15-.1.05L6 18.9l-.05-.15.05-.15m-2.9-6.25.2.1.15.2-.15.2-.2.15-.2-.15-.1-.2.1-.2.2-.1m-1.2 2.4-.05.1-.1.05-.15-.05-.05-.1.05-.15.15-.05.1.05.05.15m1.05 1.9.1-.3.25-.1.3.1.05.05.05.25-.1.25-.3.1-.25-.1-.1-.25m-2.2.25v-.05l.1-.15.15-.1.2.1.1.15-.1.2-.2.05-.15-.05-.1-.15m1.2 2.4-.05-.1.05-.1.1-.05.1.05.05.1-.05.1-.1.05-.1-.05m2.35.5.15.35-.15.3-.3.15-.35-.15-.05-.05-.05-.25.1-.35.35-.1.3.1" fill="#fff" fill-rule="evenodd" transform="translate(.5 .5)"/><path d="m1.55 14.15.2-.1L2 14h.05l.2.05-.05-.2-.1-.5q0-.8.55-1.3.55-.55 1.3-.55.8 0 1.3.55l.35.5.25.9.2-.05.3.05.3.2.3.65v.2l-.3.4v.05l.6.2.2.2.15.1.15.15.2.35.2.8v.3l-.05.2-.15.3-.35.5-.5.4h.05v.05l.1.4-.3.6-.6.25H6.2l.15.7-.2.8-.35.5q-.55.55-1.3.55h-.25q-.5-.1-.9-.4l-.15-.15-.35-.5-.2-.8.05-.3-.35.05-.5-.1-.15-.2-.1-.05-.1-.2v-.05l-.05-.3q0-.25.15-.45l-.1-.1h-.1l-.55-.4-.1-.1-.35-.7-.1-.35v-.15q0-.7.45-1.2l.1-.1.45-.3-.05-.05-.05-.15-.1-.35.25-.65.2-.1m3.7.5-.1-.35q0-.3.15-.5l.1-.15.4-.2h.05m.8 1.5-.6.25-.45-.15-.55.35.4.3.15.15.25.35.05.15.1.65-.1.7-.05.15-.05.05-.35.4-.05.05-.4.3.45.2.1-.4-.15-.1m.75-.35h.2l.35.1.25.15.15.2m-1.5-3.4L5.5 15l-.1-.1-.15-.25-.15.15-1.15.35L3.2 15l-.3-.15v.2l-.15.3.35.15q.5-.35 1.05-.35l.65.1.25.15m.5 3.05.15-.2.4-.2.05-.05m-.5 1.45.05.05.15.1.05.05.25.1h.05m-.55-.3-.15-.2-.05-.3v-.1m-3.2-4.8.35.2.3.6m.3 3.75-.35-.3-.25-.3-.25-1v-.15l.2-.7.3-.45.25-.2m-.35-.15-.15.15v.05l-.6.25-.45-.15-.2-.15-.05-.05m.3 3.4.1-.2.35-.2.3-.05.6.25.05.05.2-.1.35.15.15.05.45.05.85-.2m-2 .05.1.25.1.2q.2-.2.5-.35m-.5.35v.15l-.25.6-.05.05-.2.2" fill="none" stroke="#343607" stroke-linecap="round" stroke-linejoin="round" transform="translate(.5 .5)"/></g><g id="l"><path d="M2.1 39.2Q.6 38.8.25 37.5q-.4-1.3-.1-4.05l.25-11.3Q.4 13.6 2.25 8.5T13.05 0h1.75L48 6.9l5.55 27.15Q27.3 43 2.1 39.2q.75-1.25.4-1.25.35 0-.4 1.25" fill="#020d4d" fill-rule="evenodd" transform="translate(.05 .05)"/><path d="M2.15 39.25q25.2 3.8 51.45-5.15L48.05 6.95 14.85.05H13.1q-8.95 3.4-10.8 8.5Q.45 13.65.45 22.2L.2 33.5q-.3 2.75.1 4.05.35 1.3 1.85 1.7.75-1.25.4-1.25m51.05-3.9 1.5-.1" fill="none" stroke="#25200c" stroke-linecap="round" stroke-linejoin="round" stroke-width=".1"/></g><g id="m"><path d="m20.95 12.5.45 2.4Q20 25.3 16.55 26.95l.15 2.4h-.8q-.2-3.3-2.75-5.5 4.8 1.75 7.8-11.35M6.5 32.5q-6.65 4.75-7.7-1.15-.25-5.85 3.55-9.1 2.15-1.3 3.7-4.5-.8-6.2-4.1-8Q3.55 4.05 7.4 0q8.5 1.35 12 8.25-12.5-4.8-11.5 7.5 4.2 2.8-.5 7.2l-.9 9.55" fill="#783e2a" fill-rule="evenodd" transform="translate(1.8 .6)"/><path d="M15.9 29.35 6.5 32.5l.9-9.55q4.7-4.4.5-7.2-1-12.3 11.5-7.5.95 1.9 1.55 4.25-3 13.1-7.8 11.35 2.55 2.2 2.75 5.5" fill="#c57456" fill-rule="evenodd" transform="translate(1.8 .6)"/><path d="m22.75 13.1.45 2.4q-1.4 10.4-4.85 12.05l.15 2.4M8.3 33.1Q1.65 37.85.6 31.95q-.25-5.85 3.55-9.1 2.15-1.3 3.7-4.5-.8-6.2-4.1-8Q5.35 4.65 9.2.6q8.5 1.35 12 8.25.95 1.9 1.55 4.25" fill="none" stroke="#43241b" stroke-linecap="round" stroke-linejoin="round" stroke-width="1.2"/></g><g id="n"><path d="M38.3.05q3.6.4 5.6 3.85.65 1.1 1.1 2.55-21.65 8.5-50.55 32.4-8.3-2.75 7.45-16.2Q13.7 11 22 5.6l.1.2q-5.75 4.6-8 9.45 4.25-3.7 9.3-4.4 2.65-.4 5.55.05l11.5-5.4q3.6-1.8-2.15-5.45" fill="#911128" fill-rule="evenodd" transform="translate(9 .6)"/><path d="M23.4 10.85q-5.05.7-9.3 4.4 2.25-4.85 8-9.45 5.8-2.4 9.65-1.25-5.25 2.55-8.35 6.3" fill="#de1034" fill-rule="evenodd" transform="translate(9 .6)"/><path d="M23.95 4.4Q30.15.75 35.75.1L38.3.05q5.75 3.65 2.15 5.45l-11.5 5.4q-2.9-.45-5.55-.05 3.1-3.75 8.35-6.3Q27.9 3.4 22.1 5.8l1.85-1.4" fill="#f03354" fill-rule="evenodd" transform="translate(9 .6)"/><path d="M47.3.65q3.6.4 5.6 3.85.65 1.1 1.1 2.55-21.65 8.5-50.55 32.4-8.3-2.75 7.45-16.2Q22.7 11.6 31 6.2q.95-.65 1.95-1.2 6.2-3.65 11.8-4.3L47.3.65z" fill="none" stroke="#55091a" stroke-linecap="round" stroke-linejoin="round" stroke-width="1.2"/></g><g id="o"><path d="m19.45 20.55 20.7 15.5" fill="none" stroke="#381410" stroke-linecap="round" stroke-linejoin="round" stroke-width=".1"/><path d="M7.35 53.7 6.3 41.85q13.3-20.05 57.1-17.7 12.3 14.25 8.05 28.7-6.7 21.9-33.7 25.1 23.1-6 21.55-25.95-8.05-20.65-32.4-14.2Q7.15 42.85 7.35 53.7m53.45 1.75v-.05h-.15l.15.05" fill="#743d28" fill-rule="evenodd" transform="translate(-5.7 -23.3)"/><path d="M45.75 55.25v.15l-.05-.1.05-.05m15.05.2-.15-.05h.15v.05" fill="#c17458" fill-rule="evenodd" transform="translate(-5.7 -23.3)"/><path d="M33.85 78.25 24 77.8l-3.4-.75q-7.55-2.1-10.7-7.7-1-1.75-1.55-3.8Q8.2 52.4 28.1 49.25q19.85-3.2 21.9 9.85 2.05 13.05-16.15 19.15m11.9-23-.05.05.05.1v-.15" fill="#e5947f" fill-rule="evenodd" transform="translate(-5.7 -23.3)"/><path d="M7.35 53.7q-.2-10.85 19.55-15.9Q51.25 31.35 59.3 52q1.55 19.95-21.55 25.95l-3.9.3Q52.05 72.15 50 59.1q-2.05-13.05-21.9-9.85Q8.2 52.4 8.35 65.55l-1-11.85" fill="#c4795c" fill-rule="evenodd" transform="translate(-5.7 -23.3)"/><path d="M32.05 54.65q27-3.2 33.7-25.1Q70 15.1 57.7.85 13.9-1.5.6 18.55L1.65 30.4l1 11.85q.55 2.05 1.55 3.8 3.15 5.6 10.7 7.7l3.4.75 9.85.45 3.9-.3z" fill="none" stroke="#442417" stroke-linecap="round" stroke-linejoin="round" stroke-width="1.2"/><path d="M42 65.65q1.35.8 1.3 2.8-.4 1.7-1.2 3l-.5.75q1-2.95-5.75-2.25-6.85.9-6.9 4.25-2.1-.95-3.45-2.55-.65-1.05-.25-1.95l.8 1.35.8.8q.45.2.85 0 .35-.8.3-1.95l-.3-2.1 8-2.1.55 1.2q.7 1.45 1.65 1.95l.45.2q2.05-.85 1.8-3.95 1.1.1 1.85.55" fill="#ba4b44" fill-rule="evenodd" transform="translate(-5.7 -23.3)"/><path d="m41.6 72.2-.4.45q-1.8 1.95-4.95 2.95-4.3-.05-7.2-1.35l-.1-.05q.05-3.35 6.9-4.25 6.75-.7 5.75 2.25" fill="#f9b99e" fill-rule="evenodd" transform="translate(-5.7 -23.3)"/><path d="M36.25 66.9q1.65-1.1 2.5-.55l.1.6q.2 1.35-.95 1.9-.95-.5-1.65-1.95m-9.4 4.95-.8-.8q.3-1.2.8-1.5 1.15 1.3 0 2.3" fill="#fff" fill-rule="evenodd" transform="translate(-5.7 -23.3)"/><path d="m23 63.45-.65-.35-.1-.1q-.35-.5-.35-1.65v-.3q.95-.75 2.65-.6-.4-.75-2.2-.7l.05-.1.35-.35q.5-.55 1.15-.75 2.8 1 1.15 2.3-2.25.4-2.05 2.6" fill="#683d1a" fill-rule="evenodd" transform="translate(-5.7 -23.3)"/><path d="m24.8 63.45-.65.1-1.15-.1q-.2-2.2 2.05-2.6 1.65-1.3-1.15-2.3l.9-.15h.25q.65.05 1.2.4l.65.5q.85.85 1.05 1.75.15.85-1.1 1.65l-.4.25-1.65.5" fill="#502f14" fill-rule="evenodd" transform="translate(-5.7 -23.3)"/><path d="M21.9 61.05q.05-.75.45-1.3 1.8-.05 2.2.7-1.7-.15-2.65.6" fill="#bd6f2f" fill-rule="evenodd" transform="translate(-5.7 -23.3)"/><path d="M25.25 69.7q.5-1.05 2.45-1.9l.3 2.1q.05 1.15-.3 1.95-.4.2-.85 0 1.15-1 0-2.3-.5.3-.8 1.5l-.8-1.35m10.45-4 1.55-.4 1.25-.15 1.65-.05q.25 3.1-1.8 3.95l-.45-.2q1.15-.55.95-1.9l-.1-.6q-.85-.55-2.5.55l-.55-1.2" fill="#ccc" fill-rule="evenodd" transform="translate(-5.7 -23.3)"/><path d="M25.05 58.4q1.6-.65 2.85.8 1.25 1.45.75 2.6-.5 1.15-2.2 1.15l.4-.25q1.25-.8 1.1-1.65-.2-.9-1.05-1.75l-.65-.5q-.55-.35-1.2-.4" fill="#743d28" fill-rule="evenodd" transform="translate(-5.7 -23.3)"/><path d="m26.45 62.95-.6 1.3-.15.5q-.25 1.75 1.8 2.25l1.35-.35 11.35-2.8 1.8 1.8q-.75-.45-1.85-.55l-1.65.05-1.25.15-1.55.4-8 2.1q-1.55.3-2.2-.95l-.25-.4-.3-1.25-.05-.45-.05-.3v-.2l-.05-.8 1.65-.5" fill="#c17458" fill-rule="evenodd" transform="translate(-5.7 -23.3)"/><path d="M21.15 48.55q.45.2.85 0 .35-.8.3-1.95l-.3-2.1m8-2.1.55 1.2q.7 1.45 1.65 1.95l.45.2q2.05-.85 1.8-3.95m-14.1 5.95.8.8m-.8-.8-.8-1.35" fill="none" stroke="#412610" stroke-linecap="round" stroke-linejoin="round" stroke-width=".5"/><path d="M42 65.65q1.35.8 1.3 2.8-.4 1.7-1.2 3l-.5.75-.4.45q-1.8 1.95-4.95 2.95-4.3-.05-7.2-1.35l-.1-.05q-2.1-.95-3.45-2.55-.65-1.05-.25-1.95.5-1.05 2.45-1.9-1.55.3-2.2-.95l-.25-.4-.3-1.25-.05-.45-.05-.3v-.2l-.05-.8-.65.1-1.15-.1-.65-.35-.1-.1q-.35-.5-.35-1.65v-.3q.05-.75.45-1.3l.05-.1.35-.35q.5-.55 1.15-.75l.9-.15m.25 0q.65.05 1.2.4l.65.5q.85.85 1.05 1.75.15.85-1.1 1.65l-.4.25-1.65.5m2.9 4.35 8-2.1 1.55-.4 1.25-.15 1.65-.05q1.1.1 1.85.55" fill="none" stroke="#412610" stroke-linecap="round" stroke-linejoin="round" transform="translate(-5.7 -23.3)"/></g><g id="p"><path d="m13.5 49 1.35-.1q2.85 0 4.85 2 2.05 2.05 2.05 4.85 0 2.85-2.05 4.85-1.2 1.25-2.7 1.7 1.95-1.9 2.35-4.1l-4.05-.4 4.05-1.9-.3-1.4q-2.1-5.3-5.55-5.5m22.75-2.1q.55.55.55 1.4 0 .85-.55 1.45-.6.6-1.45.6t-1.45-.6q-.6-.6-.6-1.45t.6-1.4q.6-.6 1.45-.6t1.45.6m1.3-6.1 1.7-.2 1.75.2q1.95.35 3.55 1.65l.75.65q2.45 2.4 2.55 5.75v.4q0 3.6-2.55 6.05-1.7 1.8-3.85 2.3 2.65-1.95 3.35-4.95l-4.45-.75L45.1 50l-.1-1.7q-.85-6.1-7.45-7.5M34.6 53.55l-.5.25-.6-.25-.2-.5.2-.6.6-.2.5.2.25.6-.25.5m-20.7 2.1q-.6.6-1.45.6-.9 0-1.5-.6-.6-.65-.6-1.5 0-.9.6-1.5t1.5-.6q.85 0 1.45.6t.6 1.5q0 .85-.6 1.5m-2.6 3.7.2-.55.5-.2.55.2q.2.2.2.55l-.2.5-.55.25-.5-.25-.2-.5" fill="#fff" fill-rule="evenodd" transform="translate(-4.6 -23.7)"/><path d="M8 55.75q-.75-1.4-.85-3.95l2.1.05Q8 53.55 8 55.75M39.25 40.6q5.95.2 8.4-1.6 1 6.2.2 9.85-.1-3.35-2.55-5.75l-.75-.65q-1.6-1.3-3.55-1.65l-1.75-.2" fill-rule="evenodd" transform="translate(-4.6 -23.7)"/><path d="M36.25 46.9q-.6-.6-1.45-.6t-1.45.6q-.6.55-.6 1.4 0 .85.6 1.45t1.45.6q.85 0 1.45-.6.55-.6.55-1.45t-.55-1.4m5.2 10.7-2.2.25q-3.6 0-6.15-2.55-2.5-2.45-2.5-6.05 0-3.6 2.5-6.15 1.9-1.9 4.45-2.3 6.6 1.4 7.45 7.5l.1 1.7-4.75 1.9 4.45.75q-.7 3-3.35 4.95m-6.85-4.05.25-.5-.25-.6-.5-.2-.6.2-.2.6.2.5.6.25.5-.25" fill="url(#u)" fill-rule="evenodd" transform="translate(-4.6 -23.7)"/><path d="m17 62.3-2.15.35Q12 62.65 10 60.6q-2-2-2-4.85 0-2.2 1.25-3.9l.75-.95q1.55-1.55 3.5-1.9 3.45.2 5.55 5.5l.3 1.4-4.05 1.9 4.05.4q-.4 2.2-2.35 4.1m-3.1-6.65q.6-.65.6-1.5 0-.9-.6-1.5t-1.45-.6q-.9 0-1.5.6t-.6 1.5q0 .85.6 1.5.6.6 1.5.6.85 0 1.45-.6m-2.6 3.7.2.5.5.25.55-.25.2-.5q0-.35-.2-.55l-.55-.2-.5.2-.2.55" fill="url(#v)" fill-rule="evenodd" transform="translate(-4.6 -23.7)"/><path d="m13.5 49 1.35-.1q2.85 0 4.85 2 2.05 2.05 2.05 4.85 0 2.85-2.05 4.85-1.2 1.25-2.7 1.7l-2.15.35Q12 62.65 10 60.6q-2-2-2-4.85 0-2.2 1.25-3.9l.75-.95q1.55-1.55 3.5-1.9m27.95 8.6-2.2.25q-3.6 0-6.15-2.55-2.5-2.45-2.5-6.05 0-3.6 2.5-6.15 1.9-1.9 4.45-2.3l1.7-.2 1.75.2q1.95.35 3.55 1.65l.75.65q2.45 2.4 2.55 5.75v.4q0 3.6-2.55 6.05-1.7 1.8-3.85 2.3" fill="none" stroke="#000" stroke-linecap="round" stroke-linejoin="round" transform="translate(-4.6 -23.7)"/><path d="M3.4 32.05q-.75-1.4-.85-3.95l2.1.05m30-11.25q5.95.2 8.4-1.6 1 6.2.2 9.85" fill="none" stroke="#000" stroke-linecap="round" stroke-linejoin="round" stroke-width=".1"/><path d="M40.95 26.3q7.5.6 2.3 6.6-2.55 1.75-5.05 3.1-5.55 2.95-10.75 3.7 1.5-2.25 4-4.9 3.2-3.4 8-7.45l1.5-1.05M9.55 42.1l-.7-.15-.35.25q-.5.45-.75 1.15l.35-.15.2-.05q.6-.15 2.1 0l1.6.1-1.3-.7-1.15-.45m-2.3-.9q1-.75 2.7 0l.45.2.55.3 3.9 2.35q-5.95 1.2-7.45-.1l-.15-.15q-.9-.85 0-2.6m27.65-5.75q.35-1 1.9-2.65l2.3-2.25q-3.3 1.4-5.8 4.6l-1.6 2.3q.4-.5 1.3-.9l1.8-.6v-.05l.1-.45" fill="#e0b25d" fill-rule="evenodd" transform="translate(-4.6 -23.7)"/><path d="m47.55 24.35-2.75.7q4.95 3.35 7.85 5.8-3.45 3.95-10.9 8.05-9.2 5.05-16.6 4.95.9-2.1 2.3-4.15 5.2-.75 10.75-3.7 2.5-1.35 5.05-3.1 5.2-6-2.3-6.6 3.6-2.35 6.6-1.95M7.25 41.2q-.9 1.75 0 2.6l.15.15q1.5 1.3 7.45.1l3.1 1.9q-5.8 2.9-12.55-.05-.8-2.7 1.85-4.7" fill="#aa8b55" fill-rule="evenodd" transform="translate(-4.6 -23.7)"/><path d="m9.55 42.1 1.15.45 1.3.7-1.6-.1q-1.5-.15-2.1 0l-.2.05-.35.15q.25-.7.75-1.15l.35-.25.7.15m25.35-6.65-.1.45v.05l-1.8.6q-.9.4-1.3.9l1.6-2.3q2.5-3.2 5.8-4.6l-2.3 2.25q-1.55 1.65-1.9 2.65" fill="#ff6" fill-rule="evenodd" transform="translate(-4.6 -23.7)"/><path d="M42.95.65q-3-.4-6.6 1.95l-1.5 1.05q-4.8 4.05-8 7.45-2.5 2.65-4 4.9-1.4 2.05-2.3 4.15 7.4.1 16.6-4.95 7.45-4.1 10.9-8.05m-37.8 13.2L6.35 18l-.55-.3-.45-.2q-1.7-.75-2.7 0Q0 19.5.8 22.2q6.75 2.95 12.55.05l-3.1-1.9z" fill="none" stroke="#43241b" stroke-linecap="round" stroke-linejoin="round" stroke-width="1.2"/></g><g id="q"><path d="m54.6 32.7-.1-.1-1.85-1.75q-2.9-2.45-7.85-5.8l2.75-.7q7.65-1.5 18.65 2.1 6.8 2.25 5.55 8.5Q68.9 42.7 65.8 46.2l.05-1.4q0-3.2-1.3-6l-1.2-2.1q-2.85-4.3-7.3-4.3-.8 0-1.45.3" fill="#aa8b55" fill-rule="evenodd" transform="translate(.6 .6)"/><path d="M65.8 46.2q-2.85 3.15-5.9 2.75.35-4.7-.8-8.55-1.3-4.4-4.5-7.7.65-.3 1.45-.3 4.45 0 7.3 4.3l1.2 2.1q1.3 2.8 1.3 6l-.05 1.4" fill="#e0b25d" fill-rule="evenodd" transform="translate(.6 .6)"/><path d="M66.4 46.8q-2.85 3.15-5.9 2.75.35-4.7-.8-8.55-1.3-4.4-4.5-7.7m-.1-.1-1.85-1.75q-2.9-2.45-7.85-5.8l2.75-.7q7.65-1.5 18.65 2.1 6.8 2.25 5.55 8.5Q69.5 43.3 66.4 46.8" fill="none" stroke="#43241b" stroke-linecap="round" stroke-linejoin="round" stroke-width="1.2"/><path d="M89.3 38.9q4.4-3.55 5.75-6.15v-.05l.15-1.15q-.5-1.35-4.25-1.7 3.55-1.15 8 1.45-4.45 5.65-9.65 7.6M87 32.45q.65 3.8-.1 7.2l-.75 2.45q-1.1-3.2-2.8-5.8-3.35-5.15-9.1-8-4.95-2.45-11.6-3.25l-2.3-.25 2.35-.35q8.95-.85 18.7 5.45 6.2 2.55-4.8-10.65-2.55-1.35-5.7-2.3 3.6-.8-.15-4.75Q65.7 3.6 52.95.6l1.2-.1q8.25 1.3 15.1 6.05Q75.9 12.3 79.6 21q4.9 3.5 6.75 8.8l.65 2.65m-1.95 14.8q7.2 1.15 8.9 0Q95 44.5 92 40.55q5.35 3.9 2.8 9.6l-9.75-2.9M79.6 21l-3-1.75 3 1.75" fill="#6ff" fill-rule="evenodd" transform="translate(.6 .6)"/><path d="M90.95 29.85q3.75.35 4.25 1.7l-.15 1.15v.05q-1.35 2.6-5.75 6.15l-.05.05-2.35.7 2.35-.7h.05q1.55.75 2.7 1.6 3 3.95 1.95 6.7-1.7 1.15-8.9 0l-2.5-.75-1.1 4.6-.15.4-.2.45q-3.8 10.1-15.65 16.65 4.95-3.65 7.55-9.45-2.6 5.8-7.55 9.45-2.3 1.4-7.9 1.95 2.9-2.45 4.95-5.7 3.3 5.55 11.2-8.15l.85-7.6q.3-6.25-.65-11.85-4.3-9.5-8.4-4.4-1.05-2.75-2.65-5.05-1.1-1.6-2.5-3-8.8-.65-20.35 1.3l-3 .55q-16.7 3.1-24.95 8.15 9.7-6.5 21.8-9.4l.4-.15q1.6-.65 2.1-2.5Q37 16 51.8 14.45q-7.75.35-15.4 1.7l-.1-1.8Q36.15 2.3 52.95.6q12.75 3 17.8 11.6 3.75 3.95.15 4.75l-3.65-.9q-6.65-1.45-15.45-1.6 8.8.15 15.45 1.6l3.65.9q3.15.95 5.7 2.3 11 13.2 4.8 10.65-9.75-6.3-18.7-5.45l-2.35.35 2.3.25q6.65.8 11.6 3.25 5.75 2.85 9.1 8 1.7 2.6 2.8 5.8-1.15 2.8-3.6 4.4.75-4.75.8-10.2-.05 5.45-.8 10.2 2.45-1.6 3.6-4.4l.75-2.45q.75-3.4.1-7.2 1.8-1.95 3.95-2.6M75.7 38.4q-.4-4.75-1.45-10.1 1.05 5.35 1.45 10.1.45 6.15-.15 11.25-.6 4.7-2.1 8.5l-.45 1q4.3-.95 7.4-5.95l.5-2.25q.9-5.05.25-9Q78.6 34 75.7 38.4" fill="#020d4d" fill-rule="evenodd" transform="translate(.6 .6)"/><path d="M75.7 38.4q2.9-4.4 5.45 3.55.65 3.95-.25 9l-.5 2.25q-3.1 5-7.4 5.95l.45-1q1.5-3.8 2.1-8.5.6-5.1.15-11.25M52.95.6Q36.15 2.3 36.3 14.35l.1 1.8q7.65-1.35 15.4-1.7Q37 16 36.35 22.75q-.5 1.85-2.1 2.5l-.4.15q-12.1 2.9-21.8 9.4-.15-.65-.25.15-.55-4.05.5-7.15 1.6-4.9 7.2-7.4l-4.4 1.55-.2-1q-1.1-9.35 14.75-17.8 13.5-4.4 24.5-2.65l-1.2.1M36.4 16.15q-8.55 1.5-16.9 4.25 8.35-2.75 16.9-4.25m26.1 48.7q4.2-6.8 4.8-17 .35-5.4-.45-9.9-.5-2.75-1.35-5.1 4.1-5.1 8.4 4.4.95 5.6.65 11.85l-.85 7.6q-7.9 13.7-11.2 8.15M69.2 40l.1 2.1q.55 14.95-4.5 22.25 4.35-2.05 7.5-16.55-1.95-1.55-2.7-5.2l-.4-2.6m8.35-.15q.15 6-.4 10.35-.55 4.15-1.8 6.75 2.05-1.65 3.45-6.4l1.05-4.75q-1.8-.75-2.3-5.95" fill="#2b3185" fill-rule="evenodd" transform="translate(.6 .6)"/><path d="M29.65 3.15Q13.8 11.6 14.9 20.95l.2 1 4.4-1.55q-5.6 2.5-7.2 7.4-1.05 3.1-.5 7.15Q3.75 39.6 6 47.75l1.1 3.8Q-1.2 49.3.2 40.95q1.45-8.45 3.9-11.5 2.4-3.1 3.55-3.6-.6-1.2-.7-2.5-.65-6.85 12.8-16.3 5.1-2.35 9.9-3.9M69.2 40l.4 2.6q.75 3.65 2.7 5.2-3.15 14.5-7.5 16.55 5.05-7.3 4.5-22.25l-.1-2.1m8.35-.15q.5 5.2 2.3 5.95l-1.05 4.75q-1.4 4.75-3.45 6.4 1.25-2.6 1.8-6.75.55-4.35.4-10.35m-69.9-14q1.95-1.75 4.3-2.7l3.15-1.2-3.15 1.2q-2.35.95-4.3 2.7" fill="#5a4f9b" fill-rule="evenodd" transform="translate(.6 .6)"/><path d="M89.9 39.5q5.2-1.95 9.65-7.6-4.45-2.6-8-1.45-2.15.65-3.95 2.6.65 3.8-.1 7.2l2.35-.7.05-.05M54.75 1.1Q63 2.4 69.85 7.15 76.5 12.9 80.2 21.6q4.9 3.5 6.75 8.8l.65 2.65m-3.65 3.85q-.05 5.45-.8 10.2 2.45-1.6 3.6-4.4-1.1-3.2-2.8-5.8-3.35-5.15-9.1-8Q75.9 34.25 76.3 39q.45 6.15-.15 11.25-.6 4.7-2.1 8.5l-.45 1q-2.6 5.8-7.55 9.45Q77.9 62.65 81.7 52.55m.2-.45.15-.4 1.1-4.6 2.5.75 9.75 2.9q2.55-5.7-2.8-9.6-1.15-.85-2.7-1.6h-.05m-3.1 3.15.75-2.45M37 16.75q7.65-1.35 15.4-1.7 8.8.15 15.45 1.6l3.65.9q3.15.95 5.7 2.3l3 1.75M54.75 1.1q-11-1.75-24.5 2.65-4.8 1.55-9.9 3.9Q6.9 17.1 7.55 23.95q.1 1.3.7 2.5-1.15.5-3.55 3.6Q2.25 33.1.8 41.55q-1.4 8.35 6.9 10.6l-1.1-3.8q-2.25-8.15 5.8-12.8l.25-.15q8.25-5.05 24.95-8.15l3-.55q11.55-1.95 20.35-1.3l2.3.25q6.65.8 11.6 3.25M15.7 22.55 20.1 21q8.35-2.75 16.9-4.25m29.1 16.7q-1.05-2.75-2.65-5.05-1.1-1.6-2.5-3m2.15 40.05q4.2-6.8 4.8-17 .35-5.4-.45-9.9-.5-2.75-1.35-5.1m-3 32q-2.05 3.25-4.95 5.7 5.6-.55 7.9-1.95M15.7 22.55l-3.15 1.2q-2.35.95-4.3 2.7" fill="none" stroke="#020935" stroke-linecap="round" stroke-linejoin="round" stroke-width="1.2"/></g><g id="r"><path d="m10.1 2.4 3.45 3.65q1.25 6-6.4 8.75l-2.35.7q.15 1.2.6 2 1.35 2.9 5.4 2.05-2.1 4.3-2.4 7.55-3.3-1-5.2-2.8-3.9-3.85-1.6-11.4.85-2.05 2.05-4.4 3.5-4 6.45-6.1" fill="#911128" fill-rule="evenodd" transform="translate(.6 .6)"/><path d="m21 8.3-4.95-3.9.45.65q1.35 2.85-3.1 9.85l-.85 1.4-1.75 3.25q-4.05.85-5.4-2.05-.45-.8-.6-2l2.35-.7q7.65-2.75 6.4-8.75L10.1 2.4q4-2.95 7.05-2.3l.85.25.65.3 9.05 5.6q-3.2 0-6.7 2.05" fill="#de1034" fill-rule="evenodd" transform="translate(.6 .6)"/><path d="M8.4 27.1q-.15 1.35.05 2.6l.1.5L.7 23.6q-1.8-3.85.9-10.7-2.3 7.55 1.6 11.4 1.9 1.8 5.2 2.8" fill="#6ff" fill-rule="evenodd" transform="translate(.6 .6)"/><path d="m10.8 19.55 1.75-3.25.85-1.4 2-2.1q2.8-2 1.7 3.25-2.35 2.9-3.8 5.6l-2.3-.1q-.55-.55-.2-2" fill="#b25c13" fill-rule="evenodd" transform="translate(.6 .6)"/><path d="M10.8 19.55q-.35 1.45.2 2l2.3.1-.95 2.05q-1.15 2.75-1.15 5.25 0 1.85.55 3.5l1.05 1.3-4.25-3.55-.1-.5q-.2-1.25-.05-2.6.3-3.25 2.4-7.55" fill="#80410d" fill-rule="evenodd" transform="translate(.6 .6)"/><path d="M21 8.3q3.5-2.05 6.7-2.05l4.05 2.55-3.65-.15-2.2.45q-2.95 1.5-5.1 3.25-2.25 1.7-3.7 3.7 1.1-5.25-1.7-3.25 2.85-2.9 5.6-4.5" fill="#d78942" fill-rule="evenodd" transform="translate(.6 .6)"/><path d="M13.4 14.9q4.45-7 3.1-9.85l-.45-.65L21 8.3q-2.75 1.6-5.6 4.5l-2 2.1" fill="#e6889a" fill-rule="evenodd" transform="translate(.6 .6)"/><path d="m12.8 33.75-1.05-1.3q-.55-1.65-.55-3.5 0-2.5 1.15-5.25l.95-2.05q1.45-2.7 3.8-5.6 1.45-2 3.7-3.7-3.25 4.85-3.8 8.2l-.1.85q2-2.15 3.95-3.3 3.95-2.4 7.7-.6l.35.2q3.25 4.6-4.35 13.55l-.85.6q-7.5 4.75-10.85 1.95l-.05-.05" fill="#c0ae70" fill-rule="evenodd" transform="translate(.6 .6)"/><path d="M24.55 31.25q7.6-8.95 4.35-13.55l-.35-.2q-3.75-1.8-7.7.6-1.95 1.15-3.95 3.3l.1-.85q.55-3.35 3.8-8.2 2.15-1.75 5.1-3.25l2.2-.45q4.65.7 4.95 5.75.2 3.4-1.6 8.85-2.5 4.9-6.9 8" fill="#ecdca0" fill-rule="evenodd" transform="translate(.6 .6)"/><path d="M31.45 23.25q1.8-5.45 1.6-8.85-.3-5.05-4.95-5.75l3.65.15q2.65.9 2.75 4.6l-.05.25q-.85 5.45-3 9.6" fill="#f8f1d8" fill-rule="evenodd" transform="translate(.6 .6)"/><path d="M21.6 8.9q3.5-2.05 6.7-2.05l-9.05-5.6-.65-.3-.85-.25Q14.7.05 10.7 3 7.75 5.1 4.25 9.1q-1.2 2.35-2.05 4.4-2.7 6.85-.9 10.7l7.85 6.6 4.25 3.55-1.05-1.3q-.55-1.65-.55-3.5 0-2.5 1.15-5.25l.95-2.05q1.45-2.7 3.8-5.6 1.45-2 3.7-3.7 2.15-1.75 5.1-3.25l2.2-.45 3.65.15q2.65.9 2.75 4.6l-.05.25q-.85 5.45-3 9.6-2.5 4.9-6.9 8l-.85.6q-7.5 4.75-10.85 1.95l-.05-.05m-2-14.2 1.75-3.25.85-1.4 2-2.1q2.85-2.9 5.6-4.5M11.4 20.15Q9.3 24.45 9 27.7q-.15 1.35.05 2.6l.1.5M28.3 6.85l4.05 2.55" fill="none" stroke="#772b06" stroke-linecap="round" stroke-linejoin="round" stroke-width="1.2"/></g><g id="s"><path d="M2 7.45Q3.35 5.4 5.25 3.6 10.9-.55 15.45.1q-6.3 3.05-8.8 7.8-1.05 2.05-1.4 4.4-3.3.15-3.25-4.85" fill="#dfb3a4" fill-rule="evenodd" transform="translate(.6 .6)"/><path d="M15.45.1q3.35.45 6.15 3.5 3.05 5.75-1 11.5-2.65 2.5-5.1 3.85-3.5 1.9-6.55 1.6-1.7-.2-3.3-1.05-1.95-1.1-3.7-3.25v-.05q5.05 3.75 11.65.15l3.1-2Q24.05 5.95 15.45.1" fill="#783e2a" fill-rule="evenodd" transform="translate(.6 .6)"/><path d="M1.95 16.2Q.45 13.9 0 11.45q.75-2.1 2-4-.05 5 3.25 4.85.35-2.35 1.4-4.4 2.5-4.75 8.8-7.8 8.6 5.85 1.25 14.25l-3.1 2Q7 19.95 1.95 16.2" fill="#c57456" fill-rule="evenodd" transform="translate(.6 .6)"/><path d="M2.6 8.05Q3.95 6 5.85 4.2 11.5.05 16.05.7q3.35.45 6.15 3.5 3.05 5.75-1 11.5-2.65 2.5-5.1 3.85-3.5 1.9-6.55 1.6-1.7-.2-3.3-1.05-1.95-1.1-3.7-3.25v-.05M.6 12.05q.75-2.1 2-4" fill="none" stroke="#43241b" stroke-linecap="round" stroke-linejoin="round" stroke-width="1.2"/></g><g id="t"><path d="M39.25 31.6q-.85 1.75-3.15 1.45l-3-2.5q2.2.25 3.1-2.3 2.6 1.05 3.05 3.35" fill="#b25c13" fill-rule="evenodd" transform="translate(.6 .6)"/><path d="m33.1 30.55-2.95-2.45 2.2-5.4 7.35 6.6q-.05 1.45-.45 2.3-.45-2.3-3.05-3.35-.9 2.55-3.1 2.3" fill="#85430e" fill-rule="evenodd" transform="translate(.6 .6)"/><path d="m33.7 31.15-2.95-2.45 2.2-5.4 7.35 6.6q-.05 1.45-.45 2.3-.85 1.75-3.15 1.45l-3-2.5z" fill="none" stroke="#43241b" stroke-linecap="round" stroke-linejoin="round" stroke-width="1.2"/><path d="M24.6 14.35q9.05-1.45 11.8 7.95l-.05 2q-.5 2.8-2.1 4.65 2.75-5.65-1.65-9.7-.95-.75-1.85-.9-2.8-.75-3.6 2.65-1.45 2.9-6.05 4.1-2.3.05-1.25 1.6-1.7-1.05-2.5-3.95l7.25-8.4m2.75 17.8q-2.05-.1-2.3-2.25l1.45-.3q-1.6 1.3.85 2.55m-4.25-2.4q-1.45-.5-1.35-2.45l1.5-.15q-1.6 1-.15 2.6" fill="#793f2b" fill-rule="evenodd" transform="translate(.6 .6)"/><path d="M19.85 26.7q-1.05-1.55 1.25-1.6 4.6-1.2 6.05-4.1.8-3.4 3.6-2.65.9.15 1.85.9 4.4 4.05 1.65 9.7l-.7.7q-1.6-4.15-5.15-6.45 2.65 5.15 1.55 8.45l-2.6.5q-2.45-1.25-.85-2.55l-1.45.3-1.95-.15q-1.45-1.6.15-2.6l-1.5.15q-1.1-.1-1.9-.6m6.5-.8-3.1 1.25 3.1-1.25m1.6 3.25-1.45.45 1.45-.45" fill="#c3735a" fill-rule="evenodd" transform="translate(.6 .6)"/><path d="M33.55 29.65q-1.35 1.2-3.3 1.9l-.3.1q1.1-3.3-1.55-8.45 3.55 2.3 5.15 6.45" fill="#de9c86" fill-rule="evenodd" transform="translate(.6 .6)"/><path d="M36.4 22.3q-2.75-9.4-11.8-7.95l.6-.7q3.75-.75 7.7 1.6 3.2 2.8 3.5 7.05" fill="#6ff" fill-rule="evenodd" transform="translate(.6 .6)"/><path d="M37 22.9q-.3-4.25-3.5-7.05-3.95-2.35-7.7-1.6l-.6.7-7.25 8.4q.8 2.9 2.5 3.95.8.5 1.9.6l1.5-.15 3.1-1.25m7.9 3.05q1.6-1.85 2.1-4.65l.05-2m-2.15 6.65-.7.7q-1.35 1.2-3.3 1.9l-.3.1-2.6.5q-2.05-.1-2.3-2.25l-1.95-.15q-1.45-.5-1.35-2.45m4.75 2.3-1.45.3m1.45-.3 1.45-.45" fill="none" stroke="#43241b" stroke-linecap="round" stroke-linejoin="round" stroke-width="1.2"/><path d="m20.65 11.55 6.1-2.5.75 1.1.05.1q.85 1.6.7 2.75-.55-3.55-5.7-.6l.05 1.55q.6.15 2-.65-1.3.85-2.2 1.75l-.25.65 4.2-.25q-1 .5-2.55.8 3.55 2.4 0 6.05l-.7.6q3.2-4.8-1.85-6l-1.35 1.8q.4.95 2.4 1.65-2.7-.85-3.3-.75l-2.4 1.85.6.75q1.8 1.9 5.25 1.1-1.95.95-5 .5-3.35 4.3-6.65 2.7 4.95.1 4.85-4.85l-1.7.4q-1.15.35-1.6 1.55.15-.95-.05-1.65-.9-.25-1.65-.9l.25-1.3Q7.65 20 4.4 18.5q-1.45-.9-2.4-2.15l.5.35q5.3 3.3 6.9.65.4-1.95-1.75-3.7 3.9 1.8 6.55-.4 1.8-2.45-1.65-7.5 3.2 1.95 3.5 3.35 1.85-1.6 0-5.25-3-4.5-10-2.9 6.2-2.25 10.9.85 4.45 5.4 2.3 12.75l-.2.3q-1.55 1.05-2.45 0 1 1.25-.15 2.55l-.05.1q-1.2 1.2-3.4.05 1.55.95-.2 1.8l-.2.1h-.05l-1.65.3q1.2 2.05 3.95 1.05l.55-.25q2.85-1.3 4.85-4.2l.35-.6.7-1.35q.9-2.2-.65-2.85" fill="#911128" fill-rule="evenodd" transform="translate(.6 .6)"/><path d="M28.25 13q-.15 1.55-1.9 2.45l-4.2.25.25-.65q.9-.9 2.2-1.75-1.4.8-2 .65l-.05-1.55q5.15-2.95 5.7.6m-5.15 9.9-.65.4q-3.45.8-5.25-1.1l-.6-.75L19 19.6q.6-.1 3.3.75-2-.7-2.4-1.65l1.35-1.8q5.05 1.2 1.85 6m-12.3 3.6-1.05-.65.9-4.8q.75.65 1.65.9.2.7.05 1.65.45-1.2 1.6-1.55l1.7-.4q.1 4.95-4.85 4.85M.45 7Q1.7 3.25 6.05.95q7-1.6 10 2.9 1.85 3.65 0 5.25-.3-1.4-3.5-3.35 3.45 5.05 1.65 7.5-2.65 2.2-6.55.4 2.15 1.75 1.75 3.7Q7.8 20 2.5 16.7q-1.95-3.35-.4-4.3 2.4.05 4.2-.85 2.15 2.85 5.05 2.05-2.75-.2-3.95-2.65l1.8-1.8q-3.2.95-5.2.7l-.4-.7q-.35-.35-.9-.35-.5 0-.85.35Q.8 8.4.45 7M27 12.7q-.75 1.65-3.25 1.8l-.2.75Q26.6 14.7 27 12.7M15 23.1q-.9.7-1.05.25-.6 1.55-1.75 2.25 1.55 0 2.8-2.5m7.3-.75q-3.3-.05-3.95-1.25l-.65.85q2.4 1.25 4.6.4" fill="#de1034" fill-rule="evenodd" transform="translate(.6 .6)"/><path d="M2 16.35Q.65 14.65.25 12.2q-.2-.85-.25-1.85Q-.05 8.55.45 7q.35 1.4 1.4 2.15H1.8q-.4.4-.4.95 0 .5.4.9.35.35.9.35l.9-.35q.4-.4.4-.9v-.25q2 .25 5.2-.7l-1.8 1.8q1.2 2.45 3.95 2.65-2.9.8-5.05-2.05-1.8.9-4.2.85-1.55.95.4 4.3l-.5-.35m25-3.65q-.4 2-3.45 2.55l.2-.75q2.5-.15 3.25-1.8m-4.7 9.65q-2.2.85-4.6-.4l.65-.85q.65 1.2 3.95 1.25m-7.3.75q-1.25 2.5-2.8 2.5 1.15-.7 1.75-2.25.15.45 1.05-.25M1.4 11.25q-.15 0-.3.15l-.15.35.15.3.3.15.35-.15.15-.3-.15-.35q-.15-.15-.35-.15" fill="#e6889a" fill-rule="evenodd" transform="translate(.6 .6)"/><path d="m19.25 14.55.95-1.85q.85-.8 1.1 1.7l-.7 1.35-.35.6q-.05-1.1-.55-1.55-.75 1.6-2.1 2.85-1.35 1.4-5.3 2.45.2.65 2.55.7-2.75 1-3.95-1.05l1.65-.3h.05l.35-.1 2.45-1 .8-.45q1.5-.95 2.85-3.05l.2-.3" fill="#a56831" fill-rule="evenodd" transform="translate(.6 .6)"/><path d="M20.25 16.35q-2 2.9-4.85 4.2l-.55.25q-2.35-.05-2.55-.7 3.95-1.05 5.3-2.45 1.35-1.25 2.1-2.85.5.45.55 1.55" fill="#f1e55b" fill-rule="evenodd" transform="translate(.6 .6)"/><path d="m16.95 1.8.8.55q3.15 3.65 2.9 9.2l-.45 1.15.45-1.15q1.55.65.65 2.85-.25-2.5-1.1-1.7l-.95 1.85Q21.4 7.2 16.95 1.8M12.6 19.45l.2-.1q1.75-.85.2-1.8 2.2 1.15 3.4-.05l.05-.1q1.15-1.3.15-2.55.9 1.05 2.45 0-1.35 2.1-2.85 3.05l-.8.45-2.45 1-.35.1" fill="#6ff" fill-rule="evenodd" transform="translate(.6 .6)"/><path d="M4 9.85v.25q0 .5-.4.9l-.9.35q-.55 0-.9-.35-.4-.4-.4-.9 0-.55.4-.95h.05q.35-.35.85-.35.55 0 .9.35l.4.7m-2.6 1.4q.2 0 .35.15l.15.35-.15.3-.35.15-.3-.15-.15-.3.15-.35q.15-.15.3-.15" fill="#fff" fill-rule="evenodd" transform="translate(.6 .6)"/><path d="m17.55 2.4.8.55q3.15 3.65 2.9 9.2l6.1-2.5.75 1.1m.05.1q.85 1.6.7 2.75-.15 1.55-1.9 2.45-1 .5-2.55.8 3.55 2.4 0 6.05l-.7.6-.65.4q-1.95.95-5 .5-3.35 4.3-6.65 2.7l-1.05-.65.9-4.8.25-1.3Q8.25 20.6 5 19.1q-1.45-.9-2.4-2.15-1.35-1.7-1.75-4.15-.2-.85-.25-1.85-.05-1.8.45-3.35 1.25-3.75 5.6-6.05 6.2-2.25 10.9.85m2.3 12.75.95-1.85.45-1.15q1.55.65.65 2.85l-.7 1.35-.35.6q-2 2.9-4.85 4.2l-.55.25q-2.75 1-3.95-1.05l1.65-.3h.05l.35-.1 2.45-1 .8-.45q1.5-.95 2.85-3.05l.2-.3" fill="none" stroke="#55091a" stroke-linecap="round" stroke-linejoin="round" stroke-width="1.2"/><path d="m28.1 10.75.05.1M21.9 15q-.25-2.5-1.1-1.7" fill="none" stroke="#0f0" stroke-linecap="round" stroke-linejoin="round" stroke-width=".1"/></g><linearGradient gradientTransform="matrix(.0063 .0063 -.0074 .0074 38.5 52)" gradientUnits="userSpaceOnUse" id="u" spreadMethod="pad" x1="-819.2" x2="819.2"><stop offset="0" stop-color="#3f490f"/><stop offset="1" stop-color="#6ff"/></linearGradient><linearGradient gradientTransform="matrix(.006 .0035 -.0042 .0072 14.6 57.05)" gradientUnits="userSpaceOnUse" id="v" spreadMethod="pad" x1="-819.2" x2="819.2"><stop offset="0" stop-color="#3f490f"/><stop offset="1" stop-color="#6ff"/></linearGradient><path d="M51.95 62.35H0V0h51.95v62.35" fill-opacity="0" fill-rule="evenodd" id="w"/><path d="M52.05 15.35Q43.15 18 30.5 18T8.9 15.35Q0 12.75 0 9q0-3.75 8.9-6.4Q17.85 0 30.5 0q12.65 0 21.55 2.6Q61 5.25 61 9q0 3.75-8.95 6.35" fill-opacity=".353" fill-rule="evenodd" id="g"/><use ffdec:characterId="2" height="62.35" width="51.95" xlink:href="#w" id="f"/></defs></svg>