<svg xmlns:ffdec="https://www.free-decompiler.com/flash" xmlns:xlink="http://www.w3.org/1999/xlink" ffdec:objectType="frame" height="90" width="90" xmlns="http://www.w3.org/2000/svg"><use ffdec:characterId="16" height="87.6" transform="translate(-2.1 1.25)" width="89.45" xlink:href="#a"/><defs><radialGradient cx="0" cy="0" fx="6.4" fy="0" gradientTransform="matrix(-.0059 .0446 -.0711 -.0093 58.7 81)" gradientUnits="userSpaceOnUse" id="l" r="819.2" spreadMethod="pad"><stop offset="0" stop-color="#ea84ab"/><stop offset=".471" stop-color="#de3d7a"/></radialGradient><radialGradient cx="0" cy="0" gradientTransform="matrix(.0155 0 0 .0297 23 112.55)" gradientUnits="userSpaceOnUse" id="n" r="819.2" spreadMethod="pad"><stop offset=".588" stop-color="#457eaa"/><stop offset="1" stop-color="#7ac9e6"/></radialGradient><radialGradient cx="0" cy="0" gradientTransform="translate(131.1 107.95) scale(.0298)" gradientUnits="userSpaceOnUse" id="q" r="819.2" spreadMethod="pad"><stop offset=".62" stop-color="#457eaa"/><stop offset="1" stop-color="#8ee5fc"/></radialGradient><radialGradient cx="0" cy="0" gradientTransform="translate(77.3 120.15) scale(.0184)" gradientUnits="userSpaceOnUse" id="r" r="819.2" spreadMethod="pad"><stop offset="0" stop-color="#fff48c"/><stop offset="1" stop-color="#fe942e"/></radialGradient><radialGradient cx="0" cy="0" gradientTransform="translate(68.75 120.35) scale(.0089)" gradientUnits="userSpaceOnUse" id="s" r="819.2" spreadMethod="pad"><stop offset="0" stop-color="#cf160b"/><stop offset="1" stop-color="#710d0d"/></radialGradient><radialGradient cx="0" cy="0" gradientTransform="translate(29.7 120.05) scale(.0058)" gradientUnits="userSpaceOnUse" id="t" r="819.2" spreadMethod="pad"><stop offset="0" stop-color="#cf160b"/><stop offset="1" stop-color="#710d0d"/></radialGradient><radialGradient cx="0" cy="0" gradientTransform="translate(26.6 118.8) scale(.0067)" gradientUnits="userSpaceOnUse" id="u" r="819.2" spreadMethod="pad"><stop offset="0" stop-color="#fff48c"/><stop offset="1" stop-color="#fe942e"/></radialGradient><linearGradient gradientTransform="matrix(.0115 -.0115 .2666 .2666 25.45 11.1)" gradientUnits="userSpaceOnUse" id="h" spreadMethod="pad" x1="-819.2" x2="819.2"><stop offset="0" stop-color="#eb89ae"/><stop offset="1" stop-color="#de3b78"/></linearGradient><linearGradient gradientTransform="matrix(.0029 -.0013 .1507 .3452 32.5 -2.35)" gradientUnits="userSpaceOnUse" id="i" spreadMethod="pad" x1="-819.2" x2="819.2"><stop offset="0" stop-color="#9e5a86"/><stop offset="1" stop-color="#772754"/></linearGradient><linearGradient gradientTransform="matrix(.0022 -.0038 .3266 .1885 8 11.9)" gradientUnits="userSpaceOnUse" id="j" spreadMethod="pad" x1="-819.2" x2="819.2"><stop offset="0" stop-color="#e46293"/><stop offset="1" stop-color="#eb89ae"/></linearGradient><linearGradient gradientTransform="matrix(.0103 -.0382 .3642 .0976 206.85 74.35)" gradientUnits="userSpaceOnUse" id="k" spreadMethod="pad" x1="-819.2" x2="819.2"><stop offset="0" stop-color="#8987ff"/><stop offset="1" stop-color="#8ad0ff"/></linearGradient><linearGradient gradientTransform="matrix(.0295 -.017 .1885 .3266 159.95 124.9)" gradientUnits="userSpaceOnUse" id="m" spreadMethod="pad" x1="-819.2" x2="819.2"><stop offset="0" stop-color="#8fccff"/><stop offset="1" stop-color="#a7faf5"/></linearGradient><linearGradient gradientTransform="translate(196.75 144.35) scale(.3771)" gradientUnits="userSpaceOnUse" id="o" spreadMethod="pad" x1="-819.2" x2="819.2"><stop offset="0" stop-color="#84a2e8"/><stop offset="1" stop-color="#84a4e8"/></linearGradient><linearGradient gradientTransform="matrix(0 -.0497 .3771 0 288.1 53)" gradientUnits="userSpaceOnUse" id="p" spreadMethod="pad" x1="-819.2" x2="819.2"><stop offset="0" stop-color="#4ab6ff"/><stop offset="1" stop-color="#77f7eb"/></linearGradient><g id="a" transform="translate(2.1 -1.25)"><use ffdec:characterId="1" height="7.45" transform="matrix(.7762 0 0 1.4624 30.46 77.687)" width="55.5" xlink:href="#b"/><use ffdec:characterId="3" height="148.5" transform="translate(1.75 25.75) scale(.3643)" width="115.8" xlink:href="#c"/><use ffdec:characterId="5" height="63.05" transform="translate(37.85 54.7) scale(.3643)" width="94.05" xlink:href="#d"/><use ffdec:characterId="7" height="27.65" transform="translate(51.85 55.3) scale(.3643)" width="45.95" xlink:href="#e"/><use ffdec:characterId="9" height="50.25" transform="translate(37.25 53.9) scale(.3643)" width="49.1" xlink:href="#f"/><use ffdec:characterId="15" height="151.15" transform="translate(25.45 1.25) scale(.3643)" width="169.2" xlink:href="#g"/></g><g id="v" fill-rule="evenodd"><path d="m27.85 7.5 3.6-.9 5.2-.45Q39 6.4 40.35 8l8.55-1q1.35-2.95 1.5-6.95 4-.4 7.1 1.8 3.3 2.4 3.8 6.6v.05q15.6 4.05 22 17.2 6.5 13.5-.45 28.6-3.5 7.55-9.3 13.25 1.7 1.1 2.35 3.55.65 2.5-.2 4.9v.1q-.7 1.8-1.9 3.35l-1.15 1.25q-1.65 1.6-4 2.85-2.2 1.15-4.3 1.6.8-1.15.85-2.65 1.8-.65 3.65-1.85l.4-.3q3.1-2.2 3.75-5.3.6-3.15-1.55-5.5l-2.05 1.7q-4.2 3.3-9.4 5.85l-.1.05q-2.05.05-3.55 1.5l-.2.2-1.7.65.7 1.05-.3 1.3q-.95-.7-2.3-.85l-.25-.7q-12.8 4.2-25.5 1.15-16.2-3.95-22.75-17.4-5.85-12.15-.8-25.6l2.45-.05q-2.55 6.5-2.4 12.65.15 6.1 2.95 11.95 6.2 12.7 21.5 16.4 10.5 2.55 21.1-.2 4.85-1.25 9.7-3.65 15.5-7.45 22.1-21.75 6.6-14.3.45-27Q75 14.2 59.95 10.45l-.9.6-2.3.9-1.55.25q-2.2.2-4.2-.55l-1-.45q-1.5-.75-2.45-2l.05-.05h-.05q-9.3.45-18.7 5-4.65 2.25-8.5 5.1l-.55.4q-4.65 3.55-8.1 8.05l-.05.05-2.45-.25q1.35-1.85 2.95-3.6-.55-1.75 0-3.55.5-1.6 1.95-3.6l1.55-1.9q.95-1.05 2.05-1.95l2.35-1.8q1.5-1 3.2-1.8l1.85-.85 2.75-.95m74.35 114.8 10.55 18.35q-1.85 9.7-11.8 7.4l-11.85-17.3 4 .15 6 8.65 3.3 4.8.7 1q4.6-.1 6.3-3.75l-8.8-15.4q.95-1.7 1.6-3.9M58.1 9.15l.95-1.2.1-.2q-.4-2.9-2.6-4.5Q54.45 1.7 51.7 2l-.15 1.4q-.2 2.05-1 3.6l-.75 1.25.9.9 1.4.75 2.7.4.2-.05 1.9-.4.1-.05.6-.3.5-.35m-1.05 17.9 3.55-.15.8.05q4.5.4 7.65 2.8 3.45 2.65 3.25 6.1-.1 2.2-1.6 3.9l-.35.45 1.45 1.4.6-.1q2.2-.2 3.95 1.25 1.75 1.4 1.95 3.6.2 2.25-1.2 4-1.45 1.7-3.65 1.9-2.25.25-3.95-1.2-.95-.8-1.45-1.8-.4-.85-.5-1.85-.15-1.15.2-2.15l.05-.15-2.2-2.2-.3.15-1 .25-4.55.35q-3.45-.2-6.15-1.5l-2.3-1.45q-3.4-2.6-3.25-6.1.1-1.75 1.1-3.2.95-1.4 2.75-2.55 2.35-1.35 5.15-1.8m8.5 2.6q-1.45-.7-3.15-1l-1.85-.25-2.25.1q-2.7.25-4.85 1.6-2.35 1.4-2.95 3.45l-.2 1.2.1 1.4.25.85q.65 1.45 2.3 2.7l.15.15q2.75 2.05 6.75 2.25l4.25-.45 1.45-.5 3.9 3.95q-.5.95-.4 2.15.15 1.65 1.4 2.65 1.25 1.05 2.85.9 1.6-.2 2.65-1.45 1-1.25.85-2.85-.1-.95-.6-1.7l-.8-.9q-1.25-1.05-2.85-.9l-.7.15-3.65-3.6q1.75-1.6 1.9-3.8.15-2.8-2.65-4.95l-1.9-1.15M30.3 11.25l2.05-.85q3.1-1.2 6.2-2l-6.9-.25-3.5.85-1.55.55q-2.3.9-4.6 2.15-4.1 2.3-6.2 5.2-1.9 2.6-1.85 5.15 5.85-5.75 14-9.75 1.2-.55 2.35-1.05m2.8 27.45q2.8 2.05 2.65 6.35-.15 4.35-3.15 8.4-1.8 2.45-4 3.9l-.25.2.25 3.05q1.1.4 1.95 1.25 1.6 1.6 1.6 3.85t-1.6 3.8q-1.55 1.6-3.8 1.6t-3.85-1.6q-1.55-1.55-1.55-3.8t1.55-3.85l.45-.4-.15-2.05-.55.05q-2.25.05-4.05-1.25-2.8-2.05-2.65-6.4.15-4.3 3.2-8.35 3-4.05 7.1-5.45 4.05-1.4 6.85.7M23 66.9q.3.85 1 1.55 1.1 1.15 2.75 1.15 1.6 0 2.75-1.15t1.15-2.75q0-1.65-1.15-2.8-.85-.8-1.95-1.05L27 56.4q2.45-1.3 4.35-3.85 2.5-3.3 2.6-6.85.1-2.1-.65-3.5l-.5-.75-1-1q-2.3-1.7-5.65-.55-3.35 1.15-5.8 4.45-1.65 2.3-2.25 4.7l-.3 2.15q-.15 3.5 2.15 5.2 1.75 1.3 4.15.95l.45 5.1-.55.45q-1.15 1.15-1.15 2.8l.15 1.2M60.4 60l-4.3-.3q-4 4.9-6.05 9.8-5.2-1.55-10.65-2.05h-.2l-.3.25q-1.15 1.1-1.85 2.6-.45 1-.95 3.1.1-2.45 1.75-5.2l1.05-1.6 1.95.05 8.6 1.1q2.05-4.85 5.9-9.35l5.8.2 4 .65q.9-1.15 1.5-2.75.6-1.65.7-3.45-1.2-.75-2.65-.85 5-.3 7.7 3.05.75.95.55 1.4-.25.5-.8-.3-1.9-2.65-3.8-3.1-.15 2.1-.85 4.35-.7 2.3-1.7 3.8-2.65-.95-5.4-1.4" fill="#93470d"/><path d="m25.1 8.45-1.85.85q-2.6.85-2.45-1.95 2.1-.65 4.3 1.1M51.7 2q2.75-.3 4.85 1.25 2.2 1.6 2.6 4.5l-.1.2-.95 1.2.05-1.4-.6-1.75Q56.2 3.4 51.7 2m9.45 76.4 1.75 1.05.75 1.05q.4.85.4 1.85v.5q-.15 1.35-1.15 2.35l-.3.25-.5.4q-.85.55-1.95.55l1.45-.85q1.05-.95 1.3-2.5v-.3q.1-1.15-.2-2.1-.45-1.3-1.55-2.25M47.7 86.35l4.15.15q2.55-.9 2.7-2.25l-.1-.6.15.3.2.5q.2.85-.1 1.6-.4.8-1.35 1.2l-3.6.45q-1.75-.25-2-.95l-.05-.4m8.45.95.45-.15.9-.05.7.05.7.25.75.35.3.25q.85.75 1.25 2.05l.15.6q.4 2.5-.85 5.6-1.2 2.95-2.4 3.05l-.65-.05q1.15-.05 1.9-1.65.7-1.45.9-3.6.15-1.75-.1-3.2l-.15-.7q-.45-1.9-1.45-2.4l-2.4-.4M3.65 26.95l1.05.6q1.8 1 3.55 1.3l1.4.1.25 1.3-.1 1-.5-.05-2.2-.55q-2.7-1.1-3.45-3.7" fill="#fc64ba"/><path d="m20.05 11.1-2.35 1.8q-.75-2.4.8-4.05 2.3-.7 1.55 2.25M57.55 6l.6 1.75-.05 1.4-.5.35-.6.3v-.05q.7-.75.75-2.05l-.2-1.7m-2.75 4.3-2.7-.4-1.4-.75-.9-.9q.75.5 1.55.2.7-.35.85-1.05l.05-.3-.05-1.85-.65-1.85.15-1.4q3.35 2.1 3.55 5.35l-.2 2.15-.25.8" fill="#f03a3b"/><path d="M23.25 9.3q-1.7.8-3.2 1.8.75-2.95-1.55-2.25.4-.45.95-.85.65-.45 1.35-.65-.15 2.8 2.45 1.95M51.7 2q4.5 1.4 5.85 4l.2 1.7Q57.7 9 57 9.75l-.05.05-.05.05-1.9.4-.2.05.25-.8.2-2.15Q55.05 4.1 51.7 2M55 88.15l.3-.3q.35-.35.85-.55l2.4.4q1 .5 1.45 2.4l.15.7-1.05-.2-1.2-.75-1.5-.8q-.95-.45-1.4-.9M9.8 31.25l-.15.6-.5 1.25-1.05.15q-1.25.05-2.2-.5-1.8-1-2.6-4.05l.2-1.9.15.15q.75 2.6 3.45 3.7l2.2.55.5.05" fill="#8e1111"/><path d="M20.35 19.25q3.85-2.85 8.5-5.1 9.4-4.55 18.7-5v.05q.95 1.25 2.45 2-7.9-.2-16.4 2.45-6.45 2-13.2 5.7l-.05-.1m36.4-7.3 2.3-.9.9-.6Q75 14.2 81.1 26.8q6.15 12.7-.45 27-6.6 14.3-22.1 21.75-4.85 2.4-9.7 3.65 7.75-3.15 13.7-7.15l1.85-1.2q3.8-2.75 6.8-5.8 4.65-4.75 7.5-10.35l1.1-2.35q2.35-5.65 2.4-11.5.05-6.8-2.95-12.8-3.05-6-8.6-10.15-5.8-4.3-13.35-5.85l-.55-.1m12.65 59.3 2.05-1.7q2.15 2.35 1.55 5.5-.65 3.1-3.75 5.3 4.9-7.2.15-9.1m3.25 9.45 1.15-1.25 8.35 14.6-1 1.2-8.5-14.55m-40.3-70.3q4.45-3.1-4.2-1.4l3.5-.85 6.9.25q-3.1.8-6.2 2m53.15 92.4 1.45-.4 13.15 22.9-.85 1.15L85.5 102.8m14.3 24.55.8-1.15 8.8 15.4q-1.7 3.65-6.3 3.75 3.9-1.6 4.95-3.75l-8.25-14.25" fill="#ffbce4"/><path d="M49.8 8.25 50.55 7q.8-1.55 1-3.6l.65 1.85.05 1.85-.05.3q-.15.7-.85 1.05-.8.3-1.55-.2m10.3 72.1.1.6q0 .65-.5 1.15-.45.5-1.1.5-.7 0-1.2-.5-.45-.5-.45-1.15 0-.7.45-1.15.5-.5 1.2-.5h.05q.6 0 1.05.5l.4.55m-5.6 15.7q-1.25-2.9-.35-6.15l.15-.45.7-1.3q-.05 1.7.85 2.1 1.6.75 1.25 2.55-.35 1.9-2.6 3.25M6.45 35.85 6.1 36l-.55.25-1.4.1-.4-.1q-2.1-2-2.1-4.75 0-2.65 1.85-4.7l-.2 1.9q-.1 3.3 1.75 5.7l1.4 1.45" fill="#ff7b3f"/><path d="m50 11.2 1 .45q2 .75 4.2.55l1.55-.25.55.1q7.55 1.55 13.35 5.85 5.55 4.15 8.6 10.15 3 6 2.95 12.8-.05 5.85-2.4 11.5 1.55-7.55-.4-14.2-1.8-5.9-6.15-10.65-3.9-4.2-9.15-6.75-4.9-2.35-9.45-2.55 3.95 4.2 6.75 8.75l-.8-.05-3.55.15-2.2-2.3q-8.15-7.7-21.25-11.1Q42.1 11 50 11.2m10 65.9q5.2-2.55 9.4-5.85 4.75 1.9-.15 9.1l-.4.3Q67 81.85 65.2 82.5v-.2q0-1.1-.45-2.05l2.4-1 1.05-.65.85-.9q.45-.85.05-1.6-.4-.85-1.25-.65-.75.15-1.9.75l-1.75.8-2.4.45-1.8-.3v-.05m4.3-33.8 1-.25.3-.15 2.2 2.2-.05.15q-.35 1-.2 2.15.1 1 .5 1.85v2.35q2.5.75 4 1.95 1.35 1.1 1.5 2.2.1 1.05-.95 1.55l-3.15.1-2.15 2.9q-2 2.15-3.45 2.4l-3.5 4.75-4.4 4.35q3.75-.6 7.85-2.35 4.45-1.95 7.4-4.4-3 3.05-6.8 5.8l-1.85 1.2q-9.5 5.95-19.85 5.9l-1.75-.05q13-7.25 19-17.2l.45-.7q2.75.45 5.4 1.4 1-1.5 1.7-3.8.7-2.25.85-4.35 1.9.45 3.8 3.1.55.8.8.3.2-.45-.55-1.4-2.7-3.35-7.7-3.05 1.45.1 2.65.85-.1 1.8-.7 3.45-.6 1.6-1.5 2.75l-4-.65q3.9-7.55 3.15-15.3m-34-32.05q-1.15-1.85-3.7-1.7L28.15 9q8.65-1.7 4.2 1.4l-2.05.85M70.8 73.7l-.5-.2-.5.2-.2.5.2.45.5.25.5-.25.2-.45-.2-.5m31.6 70.65-3.3-4.8 1.4-.7-3.95-8.9q1.5-.7 2.65-1.9 4.8 8.65 5.45 11.05.5 1.9-.05 3.1-.5 1.2-2.2 2.15" fill="#cf6313"/><path d="M3.3 51.05Q3.15 44.9 5.7 38.4l.8-.3q1.7-.75 3.15-2.4l.95-1.3q2.6.6 4.3 2.7 2.6 3.3 1.2 8.05-1.45 4.9-5.6 6.75-4.1 1.8-7.2-.85m47.1-14.9-.1-1.4.2-1.2q.6-2.05 2.95-3.45 2.15-1.35 4.85-1.6l2.25-.1 1.85.25q1.7.3 3.15 1 1.35 1.95.5 4.1l-.7 1.3q-.85 1.2-2.35 2l-.05.05q-2.5 1.35-5.65 1.25-2.55-.1-5.05-1.25l-1.85-.95m17.8 3.4 3.65 3.6.7-.15q1.6-.15 2.85.9l.8.9q-.3 1.95-1.45 2.85-1 .75-2.2.5-1.2-.25-1.8-1.25-.75-1.1-.35-2.45-.6-2.35-2.2-4.9m-50-23.25.2.45-.2.45-.45.15-.45-.15-.2-.45.2-.45.45-.2.45.2m8.2 17.35q0 1-.75 1.7-.7.7-1.7.7t-1.7-.7q-.7-.7-.7-1.7t.7-1.7q.7-.7 1.7-.7t1.7.7q.75.7.75 1.7M23 66.9l-.15-1.2q0-1.65 1.15-2.8l.55-.45-.45-5.1q.95 2.85 2.35 4.85 1.3.55 1.7 1.8.35 1.15-.2 2.2-.55 1.1-1.8 1.4-1.4.3-3.15-.7m-4.9-17.85q.6-2.4 2.25-4.7 2.45-3.3 5.8-4.45 3.35-1.15 5.65.55l1 1q-.6 3.9-2.7 6.75-1.9 2.5-4.55 3.55l-4.6.25q-2.15-.7-2.85-2.95" fill="#fefdf0"/><path d="m65.55 29.65 1.9 1.15q2.8 2.15 2.65 4.95-.15 2.2-1.9 3.8 1.6 2.55 2.2 4.9Q69.15 42 66.85 40L65 38.6l-1.4.55q-5.65 1.9-11-.95L50.65 37l-.25-.85 1.85.95q2.5 1.15 5.05 1.25 3.15.1 5.65-1.25l.05-.05q1.5-.8 2.35-2l.7-1.3q.85-2.15-.5-4.1M24.1 57.35q-2.4.35-4.15-.95-2.3-1.7-2.15-5.2l.3-2.15q.7 2.25 2.85 2.95l4.6-.25q2.65-1.05 4.55-3.55 2.1-2.85 2.7-6.75l.5.75q-.6 8.45-7.9 12.1-.4 4.45 1.05 7.9-1.4-2-2.35-4.85" fill="#d4f4ff"/><path d="M76.2 44.8q.5.75.6 1.7.15 1.6-.85 2.85-1.05 1.25-2.65 1.45-1.6.15-2.85-.9-1.25-1-1.4-2.65-.1-1.2.4-2.15l-3.9-3.95-1.45.5-4.25.45q-4-.2-6.75-2.25l-.15-.15q-1.65-1.25-2.3-2.7l1.95 1.2q5.35 2.85 11 .95l1.4-.55 1.85 1.4q2.3 2 3.55 4.45-.4 1.35.35 2.45.6 1 1.8 1.25 1.2.25 2.2-.5 1.15-.9 1.45-2.85m-42.9-2.6q.75 1.4.65 3.5-.1 3.55-2.6 6.85-1.9 2.55-4.35 3.85l.55 5.45q1.1.25 1.95 1.05 1.15 1.15 1.15 2.8 0 1.6-1.15 2.75t-2.75 1.15q-1.65 0-2.75-1.15-.7-.7-1-1.55 1.75 1 3.15.7 1.25-.3 1.8-1.4.55-1.05.2-2.2-.4-1.25-1.7-1.8-1.45-3.45-1.05-7.9 7.3-3.65 7.9-12.1" fill="#b8e2f0"/><path d="m55.15 80.55-.7-1.05 1.7-.65q-.7.75-1 1.7m1.9-53.5q-2.8.45-5.15 1.8-1.8 1.15-2.75 2.55-2.45-3.45-5.9-6.1-9.55-7.25-22.85-5.95 6.75-3.7 13.2-5.7 13.1 3.4 21.25 11.1l2.2 2.3m-3.45 15.1q2.7 1.3 6.15 1.5l4.55-.35q.75 7.75-3.15 15.3l-5.8-.2q-3.85 4.5-5.9 9.35l-8.6-1.1Q45 64.3 47.95 61q7.3-8 5.65-18.65v-.2m14.45 7.1q.5 1 1.45 1.8 1.7 1.45 3.95 1.2 2.2-.2 3.65-1.9 1.4-1.75 1.2-4-.2-2.2-1.95-3.6-1.75-1.45-3.95-1.25l-.6.1-1.45-1.4.35-.45q1.5-1.7 1.6-3.9.2-3.45-3.25-6.1-3.15-2.4-7.65-2.8-2.8-4.55-6.75-8.75 4.55.2 9.45 2.55 5.25 2.55 9.15 6.75 4.35 4.75 6.15 10.65 1.95 6.65.4 14.2l-1.1 2.35q-2.85 5.6-7.5 10.35-2.95 2.45-7.4 4.4-4.1 1.75-7.85 2.35l4.4-4.35 3.5-4.75q1.45-.25 3.45-2.4l2.15-2.9 3.15-.1q1.05-.5.95-1.55-.15-1.1-1.5-2.2-1.5-1.2-4-1.95v-2.35M26.6 9.55q2.55-.15 3.7 1.7-1.15.5-2.35 1.05-8.15 4-14 9.75-.05-2.55 1.85-5.15 2.1-2.9 6.2-5.2 2.3-1.25 4.6-2.15m-3.75 4.7 2.1-1.5q.8-.75.6-1.05l-1.25.05q-1 .3-2.3 1.05-1.3.75-2.1 1.5t-.65 1.05q.2.3 1.25 0l2.35-1.1M18.2 16.3l-.45-.2-.45.2-.2.45.2.45.45.15.45-.15.2-.45-.2-.45m19.65 51.9q-1.65 2.75-1.75 5.2.5-2.1.95-3.1.7-1.5 1.85-2.6l.3-.25h.2q5.45.5 10.65 2.05 2.05-4.9 6.05-9.8l4.3.3-.45.7q-6 9.95-19 17.2-9.3-.5-18.25-5.85 8.7-1 15.15-3.85m29.3 11.05-2.4 1q-.35-.85-1.1-1.6-.85-.85-1.85-1.2l2.4-.45q-.75 2.65 2.95 2.25m35.95 66.1-.7-1q1.7-.95 2.2-2.15.55-1.2.05-3.1-.65-2.4-5.45-11.05-.1-.15.15-.35l.45-.35 8.25 14.25q-1.05 2.15-4.95 3.75" fill="#ff8d37"/><path d="m27.85 7.5-2.75.95q-2.2-1.75-4.3-1.1-.7.2-1.35.65-.55.4-.95.85-1.55 1.65-.8 4.05-1.1.9-2.05 1.95-1-2.5-.25-4.65.8-2.25 3.45-3.75Q21.2 5.1 23.6 5.4q2.25.35 4.25 2.1M9.2 27.5l2.45.25h.1q.65 1.95 0 4.2L10.6 34.4l-.95 1.3Q8.2 37.35 6.5 38.1l-.8.3-2.45.05-.15-.05Q-.05 35.55 0 31.45q0-3.8 2.7-6.85 3.3 2.25 6.5 2.9M52.55 81q1.35.15 2.3.85l.3-1.3q.3-.95 1-1.7l.2-.2q1.5-1.45 3.55-1.5h.1l1.8.3q1 .35 1.85 1.2.75.75 1.1 1.6.45.95.45 2.05v.2q-.05 1.5-.85 2.65l-.7.85-.05.05-.05.05q.6 1.45.8 2.95.25 2.35-.45 4.9l-.85 2.3q-1.05 2.35-2.6 3.85-1.6 1.5-3.3 1.5-3.5.05-5.15-3.05-1.5-2.9-1.05-7.9-5.3-.55-5.9-3.25-.4-1.95.6-3.55.85-1.4 2.6-2.2 1.7-.75 3.5-.7l.8.05m7.6 5.4q1.1 0 1.95-.55l.5-.4.3-.25q1-1 1.15-2.35v-.5q0-1-.4-1.85l-.75-1.05-1.75-1.05-1.15-.15q-.85 0-1.65.35-.65.3-1.2.85-.8.8-1.05 1.8l-.05.2-.1.9q0 1.4.85 2.5l.35.35q.6.65 1.35.95l1.5.25h.15m-5.7-2.75-.05-.1-.35-.3-1.15-.3-.3-.05q-2.2.05-3.8 1.45-1.15 1.05-1.1 2l.05.4q.25.7 2 .95l3.6-.45q.95-.4 1.35-1.2.3-.75.1-1.6l-.2-.5-.15-.3m.55 4.5-.7 1.3-.15.45q-.9 3.25.35 6.15l.25.55 1.2 1.75q.7.7 1.5.9l.65.05q1.2-.1 2.4-3.05 1.25-3.1.85-5.6l-.15-.6q-.4-1.3-1.25-2.05l-.3-.25-.75-.35-.7-.25-.7-.05-.9.05-.45.15q-.5.2-.85.55l-.3.3M9.8 31.25l.1-1-.25-1.3-1.4-.1q-1.75-.3-3.55-1.3l-1.05-.6-.15-.15q-1.85 2.05-1.85 4.7 0 2.75 2.1 4.75l.4.1 1.4-.1.55-.25.35-.15.35-.2.1-.05 1.35-1.25.1-.1.05-.1.75-1.05.5-1.25.15-.6" fill="#740e0e"/><path d="M11.7 27.7q3.45-4.5 8.1-8.05l.6-.3q13.3-1.3 22.85 5.95 3.45 2.65 5.9 6.1-1 1.45-1.1 3.2-.15 3.5 3.25 6.1l2.3 1.45v.2Q55.25 53 47.95 61q-2.95 3.3-7.1 5.65l-1.95-.05-1.05 1.6q-6.45 2.85-15.15 3.85 8.95 5.35 18.25 5.85l1.75.05q10.35.05 19.85-5.9-5.95 4-13.7 7.15-10.6 2.75-21.1.2-15.3-3.7-21.5-16.4-2.8-5.85-2.95-11.95 3.1 2.65 7.2.85 4.15-1.85 5.6-6.75 1.4-4.75-1.2-8.05-1.7-2.1-4.3-2.7l1.15-2.45q.65-2.25 0-4.2l-.05-.05m11.15-13.45-2.35 1.1q-1.05.3-1.25 0-.15-.3.65-1.05t2.1-1.5q1.3-.75 2.3-1.05l1.25-.05q.2.3-.6 1.05l-2.1 1.5m3.55 19.4q0-1-.75-1.7-.7-.7-1.7-.7t-1.7.7q-.7.7-.7 1.7t.7 1.7q.7.7 1.7.7t1.7-.7q.75-.7.75-1.7m6.7 5.05q-2.8-2.1-6.85-.7-4.1 1.4-7.1 5.45-3.05 4.05-3.2 8.35-.15 4.35 2.65 6.4 1.8 1.3 4.05 1.25l.55-.05.15 2.05-.45.4q-1.55 1.6-1.55 3.85t1.55 3.8q1.6 1.6 3.85 1.6t3.8-1.6q1.6-1.55 1.6-3.8t-1.6-3.85Q29.7 61 28.6 60.6l-.25-3.05.25-.2q2.2-1.45 4-3.9 3-4.05 3.15-8.4.15-4.3-2.65-6.35M64.2 77l1.75-.8q1.15-.6 1.9-.75.85-.2 1.25.65.4.75-.05 1.6l-.85.9-1.05.65q-3.7.4-2.95-2.25m6.6-3.3.2.5-.2.45-.5.25-.5-.25-.2-.45.2-.5.5-.2.5.2m28.3 65.85-6-8.65q1.9-.2 3.45-.95l3.95 8.9-1.4.7" fill="#fff562"/><path d="m109.85 81.7 4.95 6.55q-3.85 2.85-10.35 9.85-6.35 6.85-10.7 9.5l-3.85-6.75 1.35-1q5.25-3.75 6.35-7.25.5-1.55-.1-2.55-.7-1.05-2.4-1.2l1.6-.5q4.35-1.45 8.1-3.45 3.05-1.55 5.05-3.2M72.6 108.5l1.2-.1 3.2-.95 1.1-.5.35-.25q1 .75.7 1.85l-.05.2-.3.55q.25-1.2-1.1-.85l-.5.15-2.9.5h-.05q-1.05.05-1.65-.6m6 4.25.8-.05q.6.15.9.85.3.65.1 1.4-.2.7-.8 1.15l-.4.2-.8.05.55-.4q.7-.7.7-1.75-.05-1.35-1.05-1.45m-10.35-12.4q2.45.3 4.6 1.15l2.15.9.25.15q3.3 1.75 1.85 2.9l-1 .65-.65.35q.6-1.2-1.55-2.3-1.15-.6-4.1-1.6l-1.35-.4q-.55-.2-.65-.85l.15-1.35.3.4" fill="#de407b"/><path d="M83.35 89.45q13.65-2.5 25.8-8.65l.7.9q-2 1.65-5.05 3.2-3.75 2-8.1 3.45l-1.6.5-4.95 1.65q-3.3 1.25-4.8 2.4-1.6 1.2-2.5 2.4l-.9 1.4-.15.35q-.7 1.8.4 2.9.8.8 2.25 1.05l1.25.1h.5l3.45-.65 1.6-.6-1.35 1-2.95 1.55-1.45.4-1.8.05q-2.55-.25-3.4-2.55-.85-2.2.35-4.3l.5-.75 1-1.2 2.45-2.4-1.25-2.2m31.45-1.2 1 1.4q-2.45 2.05-5.15 5.05l-4.8 5.7q-6 7.1-10.5 9.95l-1.6-2.75q4.35-2.65 10.7-9.5 6.5-7 10.35-9.85m-34.75 29.3q-2.2 1.2-3.45.35-1.2-.85-1.2-3.35-4.85-1.7-4.5-5.55-7.95-.9-4.7-11.65l.9 1.35q-1.15 4.8 1.35 6.9 2.15 1.75 4.5 1.55 1.2-.05 2.5-.7l.65-.35 1-.65q1.45-1.15-1.85-2.9l-.25-.15-2.15-.9q-2.15-.85-4.6-1.15l4.05.25 1.65.35q5.15 1.25 5.15 5.3 3.55 1.35 1.45 4.4l-.35.4q1.9 2.05 1.85 3.75v.05q-.1 1.65-2 2.7m-1.25-8.25.3-.55.05-.2q.3-1.1-.7-1.85l-.35.25-1.1.5-3.2.95-1.2.1q.65 1.8 1.6 2.3l1.35.2 1.05-.25q1.25-.45 1.9-1.1l.3-.35m-.4 7.05.8-.05.4-.2q.6-.45.8-1.15.2-.75-.1-1.4-.3-.7-.9-.85l-.8.05-.4.2q-.5.35-.7.9l-.1.3q-.2.7.1 1.35.3.7.9.85" fill="#8b366f"/><path d="M95.1 88.85q1.7.15 2.4 1.2.6 1 .1 2.55-1.1 3.5-6.35 7.25l-1.6.6-3.45.65h-.5l-1.25-.1q-1.45-.25-2.25-1.05-1.1-1.1-.4-2.9l.15-.35.9-1.4q.9-1.2 2.5-2.4 1.5-1.15 4.8-2.4l4.95-1.65m.4 4.95q0-.55-.4-.95-.4-.35-.9-.35-.55 0-.95.35-.4.4-.4.95 0 .55.4.95.4.35.95.35l.9-.35q.4-.4.4-.95m-5.95-.5q-1.4.05-2.9.9l-.45.25q-1.2.8-1.85 1.85-.3.5-.35.95-.15.6.15 1.05.25.5.85.7l1 .15 2.5-.7.45-.25q1.5-.85 2.25-2.05.7-1.2.25-2.05-.5-.85-1.9-.8m-10.75 16-.3.35q-.65.65-1.9 1.1l-1.05.25-1.35-.2q-.95-.5-1.6-2.3.6.65 1.65.6h.05l2.9-.5.5-.15q1.35-.35 1.1.85m-.2 3.45q1 .1 1.05 1.45 0 1.05-.7 1.75l-.55.4q-.6-.15-.9-.85-.3-.65-.1-1.35l.1-.3q.2-.55.7-.9l.4-.2m-10.65-12.8-.15 1.35q.1.65.65.85l1.35.4q2.95 1 4.1 1.6 2.15 1.1 1.55 2.3-1.3.65-2.5.7-2.35.2-4.5-1.55-2.5-2.1-1.35-6.9l.85 1.25" fill="#ff83b2"/><path d="M95.5 93.8q0 .55-.4.95l-.9.35q-.55 0-.95-.35-.4-.4-.4-.95 0-.55.4-.95.4-.35.95-.35.5 0 .9.35.4.4.4.95m-5.95-.5q1.4-.05 1.9.8.45.85-.25 2.05-.75 1.2-2.25 2.05l-.45.25-2.5.7-1-.15q-.6-.2-.85-.7-.3-.45-.15-1.05.05-.45.35-.95.65-1.05 1.85-1.85l.45-.25q1.5-.85 2.9-.9" fill="#ffb9d5"/><path d="M73.8 79.45q1.2-1.55 1.9-3.35l7.65 13.35 1.25 2.2-2.45 2.4-8.35-14.6m21.55 30.9 6.85 11.95q-.65 2.2-1.6 3.9l-.8 1.15-.45.35q-.25.2-.15.35-1.15 1.2-2.65 1.9-1.55.75-3.45.95l-4-.15-9.05-13.2q1.9-1.05 2-2.7v-.05l7.75 11.25 2.75 4q4.3-.6 6.7-3.6l.85-1.15-13.15-22.9 2.95-1.55 3.85 6.75 1.6 2.75m-29.15-13-2.3-3.4q.7-2.55.45-4.9l3.3 4.85 4.65 6.7-4.05-.25-.3-.4-.85-1.25-.9-1.35" fill="#1a1a51"/><path d="M64.35 85.15q2.1-.45 4.3-1.6 2.35-1.25 4-2.85l8.5 14.55-.5.75q-1.2 2.1-.35 4.3.85 2.3 3.4 2.55l1.8-.05 13.75 23.65q-2.4 3-6.7 3.6l-2.75-4q2.4.45 3.75-1.65l-21.4-33.8-4.5 3.3-3.3-4.85q-.2-1.5-.8-2.95l.05-.05.05-.05.7-.85" fill="#1b222a"/><path d="m73.95 100.95-2.8-3.7q-.85-1.8.3-2.75 1.15-.9 2.2.45 3.15 4.2 6.75 9.7l6.4 10.1q.85 1.35-.35 2.25-1.2.9-2.3-.4l-3.6-5.95q2.1-3.05-1.45-4.4 0-4.05-5.15-5.3m15.1 17.95q0 .5-.4.9-.35.35-.9.35l-.9-.35q-.35-.4-.35-.9 0-.55.35-.95.4-.35.9-.35.55 0 .9.35.4.4.4.95" fill="#9eacbe"/><path d="M82.05 114.8q.05-1.7-1.85-3.75l.35-.4 3.6 5.95q1.1 1.3 2.3.4 1.2-.9.35-2.25l-6.4-10.1q-3.6-5.5-6.75-9.7-1.05-1.35-2.2-.45-1.15.95-.3 2.75l2.8 3.7-1.65-.35-4.65-6.7 4.5-3.3 21.4 33.8q-1.35 2.1-3.75 1.65l-7.75-11.25m7 4.1q0-.55-.4-.95-.35-.35-.9-.35-.5 0-.9.35-.35.4-.35.95 0 .5.35.9l.9.35q.55 0 .9-.35.4-.4.4-.9" fill="#354253"/><path d="M56.1 81.25q.25-1 1.05-1.8.55-.55 1.2-.85.8-.35 1.65-.35l1.15.15q.65 1.2.75 2.25v.9q-.15 1.05-.95 1.6l-.2.15q-1 .5-2.25 0-1.05-.4-1.95-1.45l-.45-.6m4-.9-.4-.55q-.45-.5-1.05-.5h-.05q-.7 0-1.2.5-.45.45-.45 1.15 0 .65.45 1.15.5.5 1.2.5.65 0 1.1-.5.5-.5.5-1.15l-.1-.6m-4.15 18-1.2-1.75-.25-.55q2.25-1.35 2.6-3.25.35-1.8-1.25-2.55-.9-.4-.85-2.1.45.45 1.4.9l1.5.8q.4 1.1.45 2.6.1 1.95-.55 3.6-.65 1.75-1.85 2.3" fill="#f8443e"/><path d="M60.15 86.4H60l-1.5-.25q-.75-.3-1.35-.95l-.35-.35q-.85-1.1-.85-2.5l.1-.9.05-.2.45.6q.9 1.05 1.95 1.45 1.25.5 2.25 0l.2-.15q.8-.55.95-1.6v-.9q-.1-1.05-.75-2.25 1.1.95 1.55 2.25.3.95.2 2.1v.3q-.25 1.55-1.3 2.5l-1.45.85m-5.7-2.75.1.6q-.15 1.35-2.7 2.25l-4.15-.15q-.05-.95 1.1-2 1.6-1.4 3.8-1.45l.3.05 1.15.3.35.3.05.1m3 15.6q-.8-.2-1.5-.9 1.2-.55 1.85-2.3.65-1.65.55-3.6-.05-1.5-.45-2.6l1.2.75 1.05.2q.25 1.45.1 3.2-.2 2.15-.9 3.6-.75 1.6-1.9 1.65" fill="#c32222"/><path d="m9.15 33.1-.75 1.05-.05.1-.1.1L6.9 35.6l-.1.05-.35.2-1.4-1.45Q3.2 32 3.3 28.7q.8 3.05 2.6 4.05.95.55 2.2.5l1.05-.15" fill="#f73d3e"/></g><g id="w" fill-rule="evenodd"><path d="m42.2 4.3 1.3.6q1.85 8.85 6.3 14.35 4.9 6.15 12.5 7.45 5.3.95 9.95 3.2 4.75 2.35 7.25 5.35l.05.05 1.35 2.1q.9 1.75.85 3.55l-.15 1.15q-.75 3.8-5.75 7.25l-.05-1.2q-.4-3.95-2.8-5l-.6-.2-1.7-.1q-3.1.35-7.2 4.35-12.55 12.35-25.7 14.2-13.15 1.9-24.3-7-6.25-4.95-9.65-11.95Q.2 34.95 0 25.6q-.1-4.35 1.5-11.35 1.4-6.05 2.55-8.4l1.55-.9q9.2-1.1 16.85.45 5.95 1.25 9.6 3.8l1.55 1.15q5.3 4.65 6.2 12.4 1.3-.5 3.45-1.8l3.35-2.2-1.9-3.15q-1.15-2.25-1.85-6.35-.4-2.2-.65-4.95m-6.15 10.3q-1.15-2.2-2.75-4.15-13-5.8-26.7-2.3-1.4 2.1-2.35 4.4Q3.5 14.4 3.1 16.3q-.95 4.1-1.2 12.45-.15 5.15 3.65 12.05 2.4 4.25 4.9 6.5l.35.25q3.5 2.9 8.05 2.75 8.6-.25 14.45-7.65 6-7.55 5.55-18.3l-3.45.9q-3.35-.1 0-1.25l3.4-.9q-.65-4.6-2.75-8.5m14.15 8.45-3-3.5-3.5 2.35-3.65 2q.65 6.65-1.4 12.65-1.85 5.7-5.75 9.65-3.8 3.95-8.6 5.25l-3.65.5q-3.15.1-6.25-1.1l-1.75-.8q1.65 2.15 5.1 4.25 3.7 2.15 8.15 3.45 11 3.2 19.8-.55 4.45-1.95 10.75-6.55l4.8-3.7 4.85-3.6q4.55-3.25 6.9-3.5h.3q.85-.05 1.55.4 1.55 1 1.9 4.4 2.25-.6 2.35-3.85 0-3.35-2.65-5.5-3.3-2.6-7.25-4.25-2.7-1.15-6.9-2.2l-.7-.2h-.15l-5.2-1.5q-3.05-1.1-4.85-2.85l-1.2-1.25M46.6 40.9l-.95.1q1.7 3.3.1 6.1l1.65.3.4.05h.2l2.15-.2q2.25-.5 3.4-2.3 1.4-2.25 1.05-4.65l-.05-.2q-.25-1.3-1-2.45l-1.1-1.35q-.9 2.15-2.35 3.25-1.35 1-3.5 1.35m-3.55-.6-.6-.75 1.3-.1q2.5-.2 4.35-1.25 2.2-1.2 3.05-3.2l.4-1.25q.25-1.45-.2-3.1-.7-2.3-2.8-4.3l.1-.1q5.2 1.85 4.15 9.15 2.45 1.75 3 4.6l.1.95v.15q.1 2.35-1.4 4.4-1.35 1.85-3.15 2.65l-1.25.35q-2.35.55-4.9-.6-2.25 2.95-5.25 3.4-2.9.45-5.55-1.75l-.5-.45.85.25 4.9.3q2.35-.45 3.65-2.1 1.3-1.6 1.1-3.7-.15-1.85-1.35-3.55" fill="#8b366f"/><path d="M73 39.85q-2.35.25-6.9 3.5l-4.85 3.6q-1.65-.3-6.55 2.6-6.8 4.05-9.9 5.3Q39.45 57 34.1 55.9q-4.45-.95-8.3-4l.25-.05.95-.2q3.2 0 7.4-2.1 2.65 2.2 5.55 1.75 3-.45 5.25-3.4 2.55 1.15 4.9.6l1.25-.35L54.7 48q2.1-.75 2.75-2.5 1.2-3.25 2.55-4.95 1.75-2.25 4.75-3.2l4.9-.2q2.05.65 3.35 2.7M47.4 47.4l-1.65-.3q1.6-2.8-.1-6.1l.95-.1.55.2q.5.45 1.5.6l2.45-.2 2.15-.7q.7-.25 1.3-.7l.05.2q.35 2.4-1.05 4.65-1.15 1.8-3.4 2.3l-2.15.2q.45-.1.75-.4.4-.4.4-.95 0-.55-.4-.95-.4-.35-.95-.35-.55 0-.95.35-.35.4-.35.95 0 .55.35.95l.55.35m-3.65-7.95q2.1-4.25 2.1-9.4 2.7 2.7 5.7 3.7l-.4 1.25q-.85 2-3.05 3.2-1.85 1.05-4.35 1.25m-.7.85q1.2 1.7 1.35 3.55.2 2.1-1.1 3.7-1.3 1.65-3.65 2.1l-4.9-.3q5.55-3.4 8.3-9.05" fill="#ff8db8"/><path d="M46.6 40.9q2.15-.35 3.5-1.35 1.45-1.1 2.35-3.25l1.1 1.35q-.7 1.55-3 2.75-2 1-3.4.7l-.55-.2m2.05-14.65q1.05-.15 2.5.45 1.65.65 2.8 1.8 3 3 .8 6.65 1.1.4 1.25 2.2.15 1-.1 3.6l-.1-.95q-.55-2.85-3-4.6 1.05-7.3-4.15-9.15" fill="#772855"/><path d="M62.3 28.85q4.2 1.05 6.9 2.2 3.95 1.65 7.25 4.25 2.65 2.15 2.65 5.5-.1 3.25-2.35 3.85-.35-3.4-1.9-4.4-.25-3.4-3.6-6.3-3.2-2.85-8.95-5v-.1m19.45 12.1q.05-1.8-.85-3.55 3.45 1.3 6.8 7.2l1.3 2.6q-.6 2.6-1.8 3.9-2.2-7.2-5.45-10.15" fill="#fdb6db"/><path d="m61.25 46.95-4.8 3.7q-6.3 4.6-10.75 6.55-8.8 3.75-19.8.55-4.45-1.3-8.15-3.45-3.45-2.1-5.1-4.25l1.75.8q3.1 1.2 6.25 1.1 2.4.5 5.15-.05 3.85 3.05 8.3 4 5.35 1.1 10.7-1.05 3.1-1.25 9.9-5.3 4.9-2.9 6.55-2.6" fill="#feeaf2"/><path d="M79.55 35.3v-.05q2.45.25 5.15 2.25 2.7 1.95 4.9 5.1 5.05 7.05 4.35 13.8-.45 4.45-5.15 5.75-4.65 1.3-8.7-1.65-5.4 4.45-10.6 1.2-10.9.85-11.45-7.75Q65.4 53.1 68.4 50t2.3-7.15l1.7.1.6.2q.65 4.5-3.7 8.1l-.5.4Q65.1 54.6 60.4 55q1.15 2.55 3.35 3.4l5.1-.15V56.5q4.65 7.05 11.6-1.65.8 1.8 2.35 3 1.5 1.2 3.2 1.5 1.65.25 2.85-.55 1.35-.85 1.65-2.85.6-3.95-1.5-8.75l-1.3-2.6q-3.35-5.9-6.8-7.2l-1.35-2.1" fill="#7268af"/><path d="m27.9 15.95 8.15-1.35q2.1 3.9 2.75 8.5l-3.4.9q-3.35 1.15 0 1.25l3.45-.9q.45 10.75-5.55 18.3-5.85 7.4-14.45 7.65-4.55.15-8.05-2.75l.05-.05q2.2 1.4 5.15.95 2.85-.45 5.85-2.6 2.9-2.1 5.05-5l1.8-3 1.15-2.9q.85-2.5.4-2.85-.55-.3-2.65 1.55-5.5-7.9.3-17.7m47.95 33.4q5-3.45 5.75-7.25l.15-1.15Q85 43.9 87.2 51.1q-1 1.05-2.4 1.25-.5-4.4-2.15-7.05-1.6 6.8-5.75 9l-1.3-.25.25-4.7m-6.5 2.85-.55-.55.5-.4q4.35-3.6 3.7-8.1 2.4 1.05 2.8 5-3.1 3.2-6.45 4.05" fill="#d4f4ff"/><path d="m69.35 52.2 4.25.15q.95 1.25 2 1.7l1.3.25q1.95-.05 4.15-2.65 2.15.95 3.75.7 1.4-.2 2.4-1.25 1.2-1.3 1.8-3.9 2.1 4.8 1.5 8.75-.3 2-1.65 2.85-1.2.8-2.85.55-1.7-.3-3.2-1.5-1.55-1.2-2.35-3-6.95 8.7-11.6 1.65v1.75l-5.1.15q-2.2-.85-3.35-3.4 4.7-.4 8.4-3.35l.55.55" fill="#8fdeff"/><path d="M53.55 37.65q.75 1.15 1 2.45-.6.45-1.3.7l-2.15.7-2.45.2q-1-.15-1.5-.6 1.4.3 3.4-.7 2.3-1.2 3-2.75" fill="#df4781"/><path d="M4.25 12.55q8.25 4.85 23.65 3.4-5.8 9.8-.3 17.7 2.1-1.85 2.65-1.55.45.35-.4 2.85l-1.15 2.9-1.8 3q-2.15 2.9-5.05 5-3 2.15-5.85 2.6-2.95.45-5.15-.95l-.4-.2q-2.5-2.25-4.9-6.5-3.8-6.9-3.65-12.05.25-8.35 1.2-12.45.4-1.9 1.15-3.75M48 47.45h-.2l-.4-.05-.55-.35q-.35-.4-.35-.95 0-.55.35-.95.4-.35.95-.35.55 0 .95.35.4.4.4.95 0 .55-.4.95-.3.3-.75.4m27.6 6.6q-1.05-.45-2-1.7l-4.25-.15q3.35-.85 6.45-4.05l.05 1.2-.25 4.7m9.2-1.7q-1.6.25-3.75-.7-2.2 2.6-4.15 2.65 4.15-2.2 5.75-9 1.65 2.65 2.15 7.05" fill="#fff"/><path d="M4.25 12.55q.95-2.3 2.35-4.4 13.7-3.5 26.7 2.3 1.6 1.95 2.75 4.15l-8.15 1.35q-15.4 1.45-23.65-3.4" fill="#b8e2f0"/><path d="M42.85 9.25q.7 4.1 1.85 6.35l1.9 3.15-3.35 2.2q-2.15 1.3-3.45 1.8-.9-7.75-6.2-12.4L32.05 9.2q4.95 2.4 10.8.05m7.35 13.8 1.2 1.25q1.8 1.75 4.85 2.85l5.2 1.5h.15l.7.3q5.75 2.15 8.95 5 3.35 2.9 3.6 6.3-.7-.45-1.55-.4H73q-1.3-2.05-3.35-2.7l-4.9.2q-3 .95-4.75 3.2-1.35 1.7-2.55 4.95-.65 1.75-2.75 2.5l-3.35.15q1.8-.8 3.15-2.65 1.5-2.05 1.4-4.4v-.15q.25-2.6.1-3.6-.15-1.8-1.25-2.2 2.2-3.65-.8-6.65-1.15-1.15-2.8-1.8-1.45-.6-2.5-.45l-.1.1q2.1 2 2.8 4.3.45 1.65.2 3.1-3-1-5.7-3.7 0 5.15-2.1 9.4l-1.3.1.6.75q-2.75 5.65-8.3 9.05l-.85-.25.5.45q-4.2 2.1-7.4 2.1 2.9-.8 5.45-2.65 7.6-5.6 9.6-19.1 3.2-4.6 8.15-6.85" fill="url(#h)"/><path d="M5.6 4.95q17.55-9.6 36.6-.65.25 2.75.65 4.95Q37 11.6 32.05 9.2q-3.65-2.55-9.6-3.8Q14.8 3.85 5.6 4.95m15.05 47 3.65-.5q4.8-1.3 8.6-5.25 3.9-3.95 5.75-9.65 2.05-6 1.4-12.65l3.65-2 3.5-2.35 3 3.5q-4.95 2.25-8.15 6.85-2 13.5-9.6 19.1-2.55 1.85-5.45 2.65l-.95.2-.25.05q-2.75.55-5.15.05" fill="url(#i)"/></g><g id="x" fill-rule="evenodd"><path d="M33.15 10.75q.85.2 1.6.55L32 14.55q-1.25 1.7-1.55 3.1-.25.9-.35 3-.05 1.55-.45 2l2.85-.15 3.3.4q2.8.7 4.9 2.75-.5-5.35-3.1-5.75 1.4-.85 2.75-1.3 1.75-.6 3.35-.6-2.7-3.3-8.35-4.05l3.2-.45q-3.1-4.3-1.5-8.85-2.9 2.05-3.95 4.5.15-1.05.6-2.05 1.3-3 5.3-5.5-4.9-.35-9.25 3l-1.3 1.1-2.15 2.25.9-2.75-4.65.4Q14.8 5.65 7.25.8l.8-.8q5.5 1.7 10.35 2.45l9.95.8 1.4-.95Q32.05.9 35.2.4l6.8.25q-1.65 1.1-2.5 2.55-.7 1.2-1 2.95-.4 2.25.05 3.65.35 1.2 1.65 2.75 2.4.05 3.95 2.3 1.3 1.9 1.8 4.85-2.35-1.1-5.45.6 1.45 3.5.65 7.35-2.55-2.05-5.75-2.7l-6.9-.25q-8.25.65-16.4-4.45Q4 15.15 0 6.9l.35-.5L2 8.7l1.6 2.15q2.05 3.15 5.05 5.9 3.8 3.45 7.9 5.15 3.6 1.5 6.5 1.2 2.6-.3 4.25-1.25l.8-.6q1.25-1.15 1.1-2.85-.2-1.9.75-3.6.65-1.1 2.35-2.8-1.1-.6-2.4-.8l-3.25.1q3.8-1.15 6.5-.55M19.45 9.3q-.05.55.15 1.1.25.75.9 1.3l.35.25-.55.15q-.75.3-1.25.75l-.35.25q-.75.75-.9 1.65v.55q0 .6.4 1.25.55.85 1.6 1.45-2.35-.15-2.7-3.25-1.2-.45-1.75-1.55l-.15-.35-.05-.1q-.25-.9.15-1.9.35-.9 1-1.45l.15-.1.3-.2 2.05-.25q.5-1.15 1.3-1.7.65-.5 1.75-.45.95 0 1.45.4h-.9q-.9.05-1.5.45l-.9.75-.55 1m-1.55 3.5 1.5-1.1q-1.1-1.15-.7-2.45-1.1 0-1.85.35-.85.5-1.1 1.35-.35 1.05.05 2l.05.1.7.85.6.45q.05-.65.75-1.55" fill="#8b366f"/><path d="m33.1 9.15-.05.4.1 1.2q-2.7-.6-6.5.55l3.25-.1q-5.2.65-8.9 3.6-.2-1.6-1.95-1.95.5-.45 1.25-.75l.55-.15-.35-.25q-.65-.55-.9-1.3-.2-.55-.15-1.1 2.9.65 7.55-.5l3.6-1 3.1-.7q-.45 1-.6 2.05m2.4 11.05 2.1-.3q2.6.4 3.1 5.75-2.1-2.05-4.9-2.75l-3.3-.4q1.3-1.7 3-2.3m4.85-1.6q-5.1.55-5-4.65Q41 14.7 43.7 18q-1.6 0-3.35.6m-23.9-9.3-.15.1q-.65.55-1 1.45-.4 1-.15 1.9l.05.1.15.35q.55 1.1 1.75 1.55.35 3.1 2.7 3.25 3.25 2.65 8.25 3.25-7.95.85-13.2-5.05-1.9-2.2-2.75-4.65-.75-2.25-.15-3.15l4.5.9" fill="#ffb3d1"/><path d="m33.15 10.75-.1-1.2.05-.4q1.05-2.45 3.95-4.5-1.6 4.55 1.5 8.85l-3.2.45q-.1 5.2 5 4.65-1.35.45-2.75 1.3l-2.1.3q-1.8-5.9-.75-8.9-.75-.35-1.6-.55" fill="#fff"/><path d="m33.7 7.1-3.1.7-3.6 1q-4.65 1.15-7.55.5l.55-1 .9-.75 3.05.85q.5-.55-.05-1.4l-1.2-1.3-.15-.1 4.65-.4-.9 2.75 2.15-2.25 1.3-1.1q4.35-3.35 9.25-3-4 2.5-5.3 5.5m-13.6.05q-.8.55-1.3 1.7l-2.05.25-.3.2-4.5-.9q-.6.9.15 3.15.85 2.45 2.75 4.65 5.25 5.9 13.2 5.05h.05l-.8.6q-1.65.95-4.25 1.25-2.9.3-6.5-1.2-4.1-1.7-7.9-5.15-3-2.75-5.05-5.9.35-1.6 2-3.1Q6.95 6.5 8.85 5.7q1.1-.45 2.35-.8 2.85.05 5.45.8 1.8.55 3.45 1.45" fill="url(#j)"/><path d="M34.75 11.3q-1.05 3 .75 8.9-1.7.6-3 2.3l-2.85.15q.4-.45.45-2 .1-2.1.35-3 .3-1.4 1.55-3.1l2.75-3.25" fill="#d4f4ff"/><path d="M7.25.8q7.55 4.85 15.3 4.8l.15.1L23.9 7q.55.85.05 1.4l-3.05-.85q.6-.4 1.5-.45h.9q-.5-.4-1.45-.4-1.1-.05-1.75.45-1.65-.9-3.45-1.45-2.6-.75-5.45-.8-1.25.35-2.35.8-1.9.8-3.25 2.05-1.65 1.5-2 3.1L2 8.7.35 6.4l.85-.7 3-2.4 2.6-2.1.45-.4" fill="#aa6995"/><path d="M19.05 12.85q1.75.35 1.95 1.95 3.7-2.95 8.9-3.6 1.3.2 2.4.8-1.7 1.7-2.35 2.8-.95 1.7-.75 3.6.15 1.7-1.1 2.85h-.05q-5-.6-8.25-3.25-1.05-.6-1.6-1.45-.4-.65-.4-1.25v-.55q.15-.9.9-1.65l.35-.25m-1.15-.05q-.7.9-.75 1.55l-.6-.45-.7-.85-.05-.1q-.4-.95-.05-2 .25-.85 1.1-1.35.75-.35 1.85-.35-.4 1.3.7 2.45l-1.5 1.1" fill="#ffd6e6"/></g><g id="y" fill-rule="evenodd"><path d="m40.1 2.75-.3-.05L26 1.55l-13.3.5Q6.65 2.75 6.15 4 6.7 6.3 8.4 8.15l.75.75q1.2 1.15 4.55 3.3l1 .65 1.2.9.3.2 1.4 1.35q1.1 1.35 1.2 2.95l.2-1q.8-2.5 3.25-3.15l.2-.05.3-.1.9-.1h1.85l1.8-.05 4.8-.4 5.35-1.3 3.05-1.3.3-.1 4.05-2.55 2.9-2.55Q46.4 3.85 40.1 2.75m-29.75 13.8q.7-1.35 2.4-2.15l.9-.35-.3-.1q-1.5-.6-3-1.75l-.25-.15-1-.9L7.8 9.9l-.05-.05-1.5-1.7-1.6-2.5q-.6-1.3-.35-2.25.65-2.1 7.75-2.95 6.3-.75 15.25-.3 8.75.45 14.95 1.8 6.75 1.5 6.85 3.4.05 1-.65 2.15L47.25 9l-.7.6-.8.7q-2.1 1.6-5.25 2.95l-1.1.4-2.1.75-.3.1q-3.2 1-5.75 1.15l-3 .15h-.6l-1.2-.2q1 1.45 1.15 2.8l-.05 1.2-.75 1.65-.1.15-1.95 1.35-2.6.1q-1.9-.45-2.8-2.15-.5-.85-.55-1.75l-.15.8q-.35 1.8-2.25 2.65l-.1.05q-1.9.8-3.65 0-1.25-.5-2-1.7-.5-.8-.65-1.7l-.05-.7q0-1 .4-1.8M35 25.3l2.8.15q1.15.8 1.35 2.6v.35l-.05.9q-.15 1.45-1.2 2.05l-2.75-.15.25-.55q1.35 0 2.05-.7.7-.75.6-2.05v-.2q-.15-.95-.8-1.4l-1.9-.3-.35-.7M4.2 29.45l-.5.25-2.35-.2q-1.45-.8-1.35-3 .05-2.05 1.55-2.9 1.1-.65 2.4-.35l.65.2-.55.75-1.9.2q-.9.45-1.05 1.4l-.05.2q-.05 1.3.75 2.05.8.75 2.15.75l.25.65M23.3 16.4l.55-.2h.65l.8.45-.75-1.25-1.1-.2-.75.1q-.5.15-1 .45l-.15.1-.55.4q-1.05 1-1.05 2.55l.05.45.15.55q.35.9 1.45 1.5l.55.25h.05l1.9.25.25-.05.85-.45.4-.4q1.25-1.55.65-2.8l-.05-.1-.85-.9-1.2-.2H24q-1.3.15-1.1 1.25.1.65.55.95l.55.2h-.65q-.4-.1-.65-.55l-.05-.05q-.55-.85-.05-1.65l.1-.15.6-.5m-8-1.35-1.35.5q.85 0 1.4.55.6.6.5 1.45-.1.95-1.05 1.3-.9.35-1.45-.4.85.55 1.6-.2.8-.75-.15-1.7-.75-.7-1.55-.65l-.85.2q-1 .45-1.2 1.7l-.1 1q.05.85.5 1.45.55.8 1.9 1.15l.55.1 1.05.05q1.1-.1 1.8-1 .9-1.15.7-2.5l-.2-.8-.35-.8q-.6-1.05-1.75-1.4" fill="#93470d"/><path d="m39 10 1.35-.7.15-.1q2.5-1.4 4.4-3.05-.95-1.95-4.8-3.4 6.3 1.1 7.65 2.85l-2.9 2.55-4.05 2.55-.3.1-3.05 1.3-5.35 1.3-4.8.4-1.8.05q5.6-.7 10.4-2.5l.7-.3L39 10m-11.45 9.6.05-1.2q4.2 4.6 6.65 10.65-6.55 12.5-16.5 19.2 6.7-5.6 11.5-12.85 2.2-3.35 4.05-7.05-2.5-4.75-5.75-8.75m-3.4-2.7 1.2.2.85.9.05.1q.6 1.25-.65 2.8l-.4.4-.85.45-.25.05.55-.55.2-.3q.4-.75.4-1.3v-.05l.05-.25q0-.7-.65-.95l-.4-.05q-.9-.55-.1-1.45m-1.4-2.95-.3.1-.2.05-1.45-1.25-1.7-1.3 2.05 1.3 1.6 1.1m-5.85 4-.5-1.55-1.1-1.35q1.15.35 1.75 1.4l.35.8.2.8q.2 1.35-.7 2.5-.7.9-1.8 1l-1.05-.05.65-.2q2.15-.95 2.2-2.9v-.45m21.15 9.75v.2q.1 1.3-.6 2.05-.7.7-2.05.7l.2-.45q1.6-.55 2.45-2.5m-34.25.65.15.45q-1.35 0-2.15-.75Q1 27.3 1.05 26l.05-.2 1.2 1.65q.7.6 1.5.9" fill="#ffbce4"/><path d="M39 10q.15-1.2-.7-1.85l-.1-.1-2.8.6q.7 1.05.5 2.7-4.8 1.8-10.4 2.5h-.15l-1.5-1.1q4.6-.45 4.45-3.2l-.35-1.4-.15-.45-.25-.45q-.75-.85-3.35-1.7-2.5-.8-5.55-1.25-7.45-1.15-8.65.75-.9 1.35 0 3.1v.05q.85 1.65 3.1 3.05l1.85 1 .35.2-.6.4-1-.65q-3.35-2.15-4.55-3.3l-.75-.75Q6.7 6.3 6.15 4q.5-1.25 6.55-1.95l13.3-.5L39.8 2.7l.3.05q3.75 2.15-.25 4.95l.5.45q.2.4 0 1.15L39 10m-15.7 6.4-.6.5q-.25-1.05-1-1.15.5-.3 1-.45.8.1.6 1.1m-.6 2.35q.25.45.65.55H24l-.55-.2q.3-.7.8-.75l.4.05q.65.25.65.95l-.05.25v.05l-.5.5-1.35.1-.15.3-.2.4-.85.6h-.05l-.55-.25q-1.1-.6-1.45-1.5l-.15-.55q.65 1 1.65.85 1.05-.15 1.05-1.35m-9.35-.3q.55.75 1.45.4.95-.35 1.05-1.3.1-.85-.5-1.45-.55-.55-1.4-.55l1.35-.5 1.1 1.35.5 1.55q-.4 1.3-1.25 1.75l-1.75.05q-.95-.4-1.1.2l-.05.2q-.1.8 1.3 1.35l-.55-.1q-1.35-.35-1.9-1.15-.05-.6.05-1.05.1-.4.35-.65l.35-.2.05.05.55.2.4-.15" fill="#cf6313"/><path d="M35.9 11.35q.2-1.65-.5-2.7l2.8-.6.1.1q.85.65.7 1.85l-2.4 1.05-.7.3m-7.6-1.8q.15 2.75-4.45 3.2-2.2-1.5-4.75-2.8l-.8.5q.1-.4-.35-.85l-1.2-.65-1.4-.05q-.6.15-.7.6-.15.45.3.9l1.25.65 1 .1-1.75 1.2h-.15q-3.45-2.9-3.6-4.2-.05-.5.3-.75l2.05.15 2.1.6 1.75.45q6.25 1.65 10.4.95m-5.6 7.35-.1.15q-.5.8.05 1.65l.05.05q0 1.2-1.05 1.35-1 .15-1.65-.85l-.05-.45q1.7-.25 1.05-2.55l.55-.4.15-.1q.75.1 1 1.15m.75 2.2q-.45-.3-.55-.95-.2-1.1 1.1-1.25h.15q-.8.9.1 1.45-.5.05-.8.75m-11.1-.75-.35.2q-.25.25-.35.65-.1.45-.05 1.05-.45-.6-.5-1.45l.1-1q.2-1.25 1.2-1.7l.85-.2q.8-.05 1.55.65.95.95.15 1.7-.75.75-1.6.2l.1-.1.15-.5-.2-.5-.55-.15-.5.2q-.2.25-.15.55 0 .25.15.4m23.85 9.5L35.35 26l1.9.3q.65.45.8 1.4l-1.85.15M4.05 24.2 3 26h-.05q-1 .4-1.85-.2.15-.95 1.05-1.4l1.9-.2" fill="#fff562"/><path d="M40.35 9.3q.2-.75 0-1.15l-.5-.45q4-2.8.25-4.95 3.85 1.45 4.8 3.4Q43 7.8 40.5 9.2l-.15.1m-25.4 2.95-1.85-1Q10.85 9.85 10 8.2v-.05q-.9-1.75 0-3.1 1.2-1.9 8.65-.75 3.05.45 5.55 1.25 2.6.85 3.35 1.7l.25.45.15.45.35 1.4q-4.15.7-10.4-.95l-1.75-.45-2.1-.6L12 7.4q-.35.25-.3.75.15 1.3 3.6 4.2l-.35-.1m7.75 3.05.75-.1 1.1.2.75 1.25-.8-.45h-.65l-.55.2q.2-1-.6-1.1m1.4 6.5-1.9-.25.85-.6.2-.4.15-.3 1.35-.1.5-.5q0 .55-.4 1.3l-.2.3-.55.55m-10.05-.3q-1.4-.55-1.3-1.35l.05-.2q.15-.6 1.1-.2l1.75-.05q.85-.45 1.25-1.75v.45q-.05 1.95-2.2 2.9l-.65.2m21.55 8.7.75-1.85-.15-.5 1.85-.15q-.85 1.95-2.45 2.5M2.95 26l.85 2.35q-.8-.3-1.5-.9L1.1 25.8q.85.6 1.85.2" fill="#ff8d37"/><path d="m14.7 12.85.6-.4.15-.1 1.75-1.2 1.1-.7.8-.5q2.55 1.3 4.75 2.8l1.5 1.1h-1.7l-.9.1-1.6-1.1-2.05-1.3q-.85.5-1.6 1.05l-.65.45-.95.7-1.2-.9m12.95 2.95 2.1 2.05 1.9 2.15q1.95 2.5 3.35 5.3l.35.7.85 1.85.15.5-.75 1.85-.2.45-.25.55q-1.65 3.45-3.85 6.55l-2.5 3.2q-4.5 5.25-11 9.3Q12.75 45.5 9 39.3q-1.8-3-3.4-6.5l-.7-1.65-.7-1.7-.25-.65-.15-.45L2.95 26H3l1.05-1.8.55-.75 1.2-1.75.25-.3q1.65-2.2 3.55-4.15l.75-.7q-.4.8-.4 1.8l.05.7-1.8 2.1q-1.9 2.4-3.35 5.1 1.6 5.3 4.05 9.95 1.45 2.75 3.2 5.3 2.5 3.6 5.65 6.75 9.95-6.7 16.5-19.2Q31.8 23 27.6 18.4q-.15-1.35-1.15-2.8l1.2.2" fill="#740e0e"/><path d="m17.2 11.15-1-.1-1.25-.65q-.45-.45-.3-.9.1-.45.7-.6l1.4.05 1.2.65q.45.45.35.85l-1.1.7m2.75 7.65q0-1.55 1.05-2.55.65 2.3-1.05 2.55m-6.6-.35-.4.15-.55-.2-.05-.05q-.15-.15-.15-.4-.05-.3.15-.55l.5-.2.55.15.2.5-.15.5-.1.1" fill="#fffde3"/><path d="m26.7 21.4.1-.15.75-1.65q3.25 4 5.75 8.75-1.85 3.7-4.05 7.05 2-3.2 2.9-7.4l-5-6.6h-.45m-4.45-7.3q-2.45.65-3.25 3.15l-.2 1q-.1-1.6-1.2-2.95l1.45-1.7.75-.65-.85-.45q-1.35.75-2.75 1.45l-.3-.2.95-.7.65-.45q.75-.55 1.6-1.05l1.7 1.3 1.45 1.25" fill="#8e1111"/><path d="M10 19.05q.15.9.65 1.7.75 1.2 2 1.7 1.75.8 3.65 0l.1-.05q1.9-.85 2.25-2.65l.15-.8q.05.9.55 1.75.9 1.7 2.8 2.15l2.6-.1 1.95-1.35h.45l5 6.6q-.9 4.2-2.9 7.4-4.8 7.25-11.5 12.85-3.15-3.15-5.65-6.75 5.1-4.45 8.8-10.5 1.65-2.65-.75-5.3l-2.65-2.35q-6.05 2.8-9.3-2.2l1.8-2.1m7.6-3.75-1.4-1.35q1.4-.7 2.75-1.45l.85.45-.75.65-1.45 1.7" fill="#c32222"/><path d="m17.5 23.35 2.65 2.35q2.4 2.65.75 5.3-3.7 6.05-8.8 10.5-1.75-2.55-3.2-5.3 3.2-1.2 6.3-5.5 3.35-4.55 2.3-7.35" fill="#f73d3e"/><path d="M8.2 21.15q3.25 5 9.3 2.2 1.05 2.8-2.3 7.35-3.1 4.3-6.3 5.5-2.45-4.65-4.05-9.95 1.45-2.7 3.35-5.1" fill="#ff7b3f"/></g><g id="z" fill-rule="evenodd"><path d="M51.95 12.35q-6.2 3.9-9.7 8.55-5.3 6.95-4.75 15.7.1 2.3.65 4.65-3.8-4.95-2.75-11.1.25-1.8.9-3.6l.05-.1q.7-1.9 1.8-3.85Q22 34.2 20.35 49.95q-.6 6.1 1.15 11.8 1.6 4.95 4.45 7.95-.95.7-1.75 1.55-4.2-3.4-6.3-9.75-2.25-6.75-1.05-14.2 1.3-8.35 6.75-15.55 6.25-8.2 17.15-13.9 10.2-12.65 28.7-16.8Q78.2-.9 90.7.7q5.05.7 21.9 4.15 13.05 2.65 20 2.7 9.9 0 15.6-4.6 4.75 5.15 8.85 17.3 4.3 12.65 5.9 27.15 1.85 16.25-.4 30-2.55 15.75-10.15 25.9 2.05 3.7 6.55 5.9h-3.9q-7.7-4.6-6.9-18.1 2.35-1.3 3.9-3-1.9 6.3-1.1 11 11.4-17.85 8.7-48.5-1.1-12.2-4.35-24.55-2.9-11-6.7-19.15-6.15 4.5-17.05 4.05l-12.1-1.45L110 7.65q-15.85-3.3-23.25-3.9l-1.95-.1Q73.1 3 64.75 6.15q-7.4 2.8-12.8 6.2M40.55 70.7q3.35-.9 7-3.85Q57.1 59.2 67 57.6q8.55-1.4 15.8 1.8 6.5 2.85 9.4 8.1 2.95 5.2.5 9.65 3.65 1.5 7.4 2.25l7.95.5q-1.2 1.1-2.1 2.35-4.05-.05-10-1.7L92 79.45l-2.5-.25q3.15-5.35.4-10.15-2.6-4.6-9.25-6.85-6.9-2.3-15.1-1-9.2 1.5-17.25 7.25-6.15 4.4-9.9 4.8-4.6.45-8.6-4.1l-.55-.7-.45-.65q-4.2-6.7-2.35-11.9 1.6-4.6 6.85-6.3 2.3-.75 4.55-.6 2.3.15 3.95 1.25 3.9 2.5 2.2 8.2-2.65-1.4-4-.8-1.15.5-.85 1.95.3 1.4 1.65 1.95 1.6.6 3.55-.85-.15 1.3-1.4 1.9l-2.7.2q-1.55-.3-2.5-1.45-1.1-1.25-.95-3.1.2-2.6 2.65-2.8 2.4-.25 3.95 1.75.7-3.25-1.8-5.15-2.2-1.8-5.65-1.55-3.55.25-5.7 2.6-2.55 2.7-2.05 7.15Q29.25 69 35.1 70.7q2.6.75 5.45 0m88.05 64.6q-.8-1.65-1.15-3.25 1.95-4.05 5.6-6.05 3.55-2 8.7-1.95 1.45 1.55 3.3 2.7l.95.55q-12.25-1.6-17.4 8M8.05 92.95l1.4 1.6q2.1 4.05 1.65 7.05-.45 3.1-3.65 4.65l-2.75-.4q6.3-3.05 3.35-12.9m3.15 30.7-1.1.95q1-4.25-2.1-7.75l1.35.1q2.7 3.2 1.85 6.7" fill="#7067af"/><path d="M37.5 36.6q-.55-8.75 4.75-15.7 3.5-4.65 9.7-8.55-12 11.4-14.45 24.25m-1.2-10.05q-.65 1.8-.9 3.6-1.85 3.7-1.35 8.2.45 3.85 2 5.95-4.55 1.35-6.8-.05Q27.3 43 27.6 39.9q.3-3.05 2.6-6.65 2.45-3.75 6.1-6.7m4.25 44.15q-2.85.75-5.45 0-5.85-1.7-6.9-10.45-.5-4.45 2.05-7.15 2.15-2.35 5.7-2.6 3.45-.25 5.65 1.55 2.5 1.9 1.8 5.15-.55-2.95-3.3-3.4-2.8-.45-5.3 2.5-2.55 3.75-.8 8 1.7 4.2 6.55 6.4" fill="#8fdeff"/><path d="M152.05 88.1q-1.55 1.7-3.9 3-3.45 1.95-8.65 3.05 19.3-7.4 11.35-24.35l-.6 1.15-.75 1.45-1.2 1.75q-3.45 4.65-9.2 6.75l-3.05.95-2 .4q1.25 4.05 1 7.8l-.4 2.65q-.6 2.4-2.15 3.9-3.25 3.25-6.85 3-2.8-.15-5-2.15l-.35-.3q-2.15-2.1-2.15-4.15 0-1.95 2.15-2.05h.55q-1.25.6-.65 2.15l.05.15q.5 1.15 1.65 2.05l.95.6q2.05 1.15 4.2.7 2.6-.6 4.5-3.55 1.35-3.3 1-6.7-.3-3.4-2.2-5.85-1.3-1.7-3.15-2.65l-2-.75-.9-.2-5.9.35-.95.3q-6.3 1.95-9.5 5.5-3 3.3-2.9 7.55l.3 2.2q.65 3.1 3 6.35 3.2 4.45 9.1 8.4l-4.6-.6-.45-.05q-3.7.55-5.8 3.65-1.95 2.95-1.6 6.45.35 3.7 3.1 5.7 3.15 2.35 8.35 1.45-1.5 2.7-3.75 2.45.45 3 1.35 5.3 3.65 9.35 14.7 7.2-9.2-11.35 2.45-18.9-5.05 5.85-3.75 11.85.35 1.6 1.15 3.25 1.2 2.35 3.35 4.75-10.45 5.1-16.2-1.5-2.85 3.6-7.2 4l-2.6.05q-1.05.05-1.15.45-.4 1.95 1.05 2.85 1.55.9 4.85.65-2.55 2.85-5.65 3.95l-5.95.35q-2.95-.8-5.2-3.25-1.15-1.25-2-2.85L88 146.2q-4.05 1.35-8.3 2.3l-1.4.25-2.85.55-3.05.45-14.3.65-1.15-.05q-8.9-.35-16.4-2.15l-3.8-1.05h-.05l-1.75-.55-.05-.05-5.8-2.3q-8.25-3.9-11.7-9.3-9.1 3.4-13.05-7.2 3.3-1.25 5.75-3.15l1.1-.95q2.55-2.35 3.9-5.5.2 7.35-8.7 10.35l.15.35q2.25 5.2 9.2 2.9l-.65-2.4.75-.85q2.9-3.45 4.6-8.25l.1-.25q2.15-6.4.75-11.85-1.65-6.25-2.4-11.55-.6-4-.6-7.5v-.95l.1-2.35.2-2.4q-2.15 1.35-3.4 2.75l-1.15 1.7Q13 90.05 14 92.4l.35.7-.1.05q-2.6-1.6-2.25-4.25.15-1.1.8-2.3.5-1.1 1.35-2.25-3.8-5.65-3.6-14.2l-.3.35q-2.8 2.75-4.1 5.75-2.4 5.35.05 11.35 2.1 5.05 7.6 10.5-2.4-1.6-4.35-3.55l-1.4-1.6L6.5 90.8Q3.65 86.5 3.15 82q-.55-4.75 1.6-8.55 2.35-4.15 7.5-6.5.05 3.8.85 7.6.8 3.8 2.2 6.75 1.05-.55 1.85-.75l2.1-.25q1.4-5.45 4.95-9.05.8-.85 1.75-1.55 1.3-1.05 2.85-1.9l.45.65.55.7q-7.55 5.5-9.05 14.05l-.3 2.45q-.7 8.25 2.3 22.85 1 4.8-1.2 12-2.15 7.25-5.15 8.95 3.15 7.6 14.5 12.8 11.2 5.15 25.8 5.9l7.65.1q11.3-.4 21.7-3.8 11.5-3.75 19.85-10.7l5.5-5.25v-2.05q-1.85-.7-3.3-1.6-1.9-1.25-3.2-3l-1.3-2.25q-.85-1.9-.85-4.05-.05-3.35 2-6.05 1.3-1.7 3.25-2.75 1.3-.7 2.85-1.1-5.3-4.4-7.05-9.85-1.6-5.2.25-10.05.7-1.9 1.9-3.5.9-1.25 2.1-2.35l2.6-2q5.05-3.2 12.1-3.4 6.45-.1 10.15 5.85 9.2-1.8 15.6-8.8l3.15-4.05q6.7 13.6.4 20.6m3 21.1h3.9q4.4-.25 7.95-1.85 4.1 8.1.85 14.35-2.9 5.5-9.85 7.1-6.45 1.45-11.9-1.5l-.95-.55q-1.85-1.15-3.3-2.7-3.65-3.95-4.65-10.5 2.05 6.55 7.5 10.15 5 3.3 10.6 2.85 5.75-.5 8.8-4.65 3.5-4.65 2.15-12.3l-1.1.7q-1.7.85-4.15 1.25-3.35.6-6.9.1l-.15-.05q-7-1-11.05-5.45l-.8-.95-1.15-1.6q3.6 4.05 11.3 5.25l.85.1 2.05.25M64.2 141.05q-2.25-.6-5.55 2.75 4.6-6.1 5.55-2.75m49.1-6.3q-1-1.95-1.75-4.35-6.25 8.5-17.75 13.55 2.5 3.5 5.65 4.7l.35.1q3.3 1.1 6.9-.4-3.6-.55-4.7-3.7-.45-1.35-.15-2.55.35-1.25 1.5-1.9l2.4-.25 3.15.3q4.05.05 5.4-3.65l-1-1.85M8 116.85l-2.35-.65Q2.2 114.9.8 111.9q-1.6-3.4.05-7.7 1.95 1.1 3.85 1.65l2.75.4q5 .25 9.25-3.9.25 1.25-.1 2.3l-.85 1.3-.3.3q-1.2 1.1-3.35 1.55H12q-5.35 1.15-10.85-1.6l-.05.4q-.25 2.65 1.3 4.85 1.5 2.2 4.25 3.2 2.75 1.05 5.6.55 3.1-.55 5.3-2.85-1.7 3.2-5.3 4.2l-2.9.4-1.35-.1" fill="#8b366f"/><path d="m165.05 110.3 1.1-.7q1.35 7.65-2.15 12.3-3.05 4.15-8.8 4.65-5.6.45-10.6-2.85-5.45-3.6-7.5-10.15l-.1-.5q6.1 11.7 17.05 10.2.25-1.7.9-2.75.95-1.55 2.8-1.55 1.65-.05 3.95 1.15l.1-.05q4.6-2.2 3.25-9.75M10.25 70.5l.3-.35q-.2 8.55 3.6 14.2-.85 1.15-1.35 2.25l-.65-2.1-.55-1.9-.5-1.55-.7-2.25q-.7-2.95-.6-5.5.1-1.45.45-2.8m5.6 58-.75.85.65 2.4q-6.95 2.3-9.2-2.9 3.85 2 9.3-.35M3.9 112.05q2.95 2.8 8.4 1.85 2.4-.4 5.25-1.55-2.2 2.3-5.3 2.85-2.85.5-5.6-.55-2.75-1-4.25-3.2-1.55-2.2-1.3-4.85.85 3.55 2.8 5.45" fill="#fddaec"/><path d="m124.3 76.9.9.2 2 .75q4.9 7.3 3.2 12.75-.8 2.55-2.95 3.75-2.25 1.3-5.55.95-1.15-.9-1.65-2.05l-.05-.15q3 .7 5.15-.55 2.05-1.15 2.75-3.65.75-2.6-.15-5.65-1-3.35-3.65-6.35m10.35 15.8.4-2.65q.25-3.75-1-7.8l2-.4q2.7 4.2 6.35 5.1 3.25.85 5.95-1.15l1.55-1.5q-.55 1.65-4.65 5.25l-2.7 2.25q-3.4 1.75-7.9.9m-23.3-6.75q1.15 0 1.9.8.8.75.8 1.9 0 1.1-.8 1.85-.75.8-1.9.8-1.1 0-1.9-.8-.75-.75-.75-1.85 0-1.15.75-1.9.8-.8 1.9-.8m-.25 1.3q-.75 0-1.3.5-.5.5-.5 1.25t.5 1.25q.55.55 1.3.55.7 0 1.2-.55.55-.5.55-1.25t-.55-1.25q-.5-.5-1.2-.5m.3 6.05q2-.05 2.85.65 1.15.9 1.95 3.7l1.2 3.1q.6 1.4.2 1.95-.85 1.15-1.95 1.25-7.3-6.15-4.25-10.65m-7.8 26.3 1.3 2.25q1.3 1.75 3.2 3 1.15 4.45-2.2 8.9-8.35 6.95-19.85 10.7-10.4 3.4-21.7 3.8 28.4-6.75 34.6-29.1l4.65.45m10.45 12.3q-.9-2.3-1.35-5.3 2.25.25 3.75-2.45l1.35-.4q-2.1 7 1.65 12.1-2.8-1.3-5.4-3.95m22.9-24.8q.2-3.05.85-6.25l3.05 2.75 1.15 1.6q-2.4-.65-2.7 2.55-.35 3.1 1.45 6.9 2 4.25 5.35 6 4.05 2.15 8.85-.15-.65 1.05-.9 2.75-10.95 1.5-17.05-10.2-.25-2.9-.05-5.95m28.1 3.2q1.35 7.55-3.25 9.75l-.1.05q-2.3-1.2-3.95-1.15 6.4-2.75 7.3-8.65M13.8 98.1q-5.5-5.45-7.6-10.5 3.1 3.65 5.8 1.3-.35 2.65 2.25 4.25l.1.1Q17.3 98 13.8 98.1M6.15 76.25q1.3-3 4.1-5.75-.35 1.35-.45 2.8-.55 1-.75 2.45-.25 1.65.1 2.9.2.75.85 1.35l1.1 1.05.5 1.55q-4.1 1.45-5.45-6.35M14 92.4q-1-2.35.05-4.55 2.5 1.65 4.25.3v.95q-3.45-.1-4.15 2.25L14 92.4m2.6 12.25q1.15-.1 1.55 1.1.65 1.8-.6 6.6-2.85 1.15-5.25 1.55 3.45-1.8 4.35-4.35.8-2.4-1.2-3.3l.3-.3.85-1.3" fill="#d4f4ff"/><path d="m105.35 92.8-.3-2.2q-.1-4.25 2.9-7.55 3.2-3.55 9.5-5.5l.95-.3q8.55 9.8 2.45 13.7h-.55q1.9-2.65.4-5.05-1.4-2.25-4.5-2.75-3.4-.55-6.2 1.6-3.35 2.5-4.65 8.05m33.75-11.9q5.75-2.1 9.2-6.75 1.45 4.5-1.6 6.8-3.8 2.15-7.6-.05m-28 6.35q.7 0 1.2.5.55.5.55 1.25t-.55 1.25q-.5.55-1.2.55-.75 0-1.3-.55-.5-.5-.5-1.25t.5-1.25q.55-.5 1.3-.5m4.55 16.7-1.7-.4q-1.95-.95-3.55-3.55-1.55-2.55-1.45-4.55.1-2.2 2.45-2.15-3.05 4.5 4.25 10.65m.8 20.2q-5.2.9-8.35-1.45-2.75-2-3.1-5.7-.35-3.5 1.6-6.45 2.1-3.1 5.8-3.65l.45.05q-2.65 1.75-3.8 4.35-1.05 2.45-.35 4.6.75 2.25 3.15 3.25l6.7.2 3.95-1.2 3.15-.9q3.05-.5 5.55 2.95-1.9-.3-3.85.9-2.05 1.2-3.15 3.45-2.75 5.65 2.1 12.55-2.95-2.45-4.65-5.9-1.75-3.7-1.75-8.05l-2.1.6-1.35.4m26.35-18q4.05 4.45 11.05 5.45l.15.05q-1.45 1.45-3.35 1.75l-3.75-.4q-2.4-.85-3.4-2.65-.9-1.6-.7-4.2m-127.6-20q1.25-1.4 3.4-2.75l-.2 2.4q-1.05 1.3-3.2.35M6.4 128.5q8.9-3 8.7-10.35l.55-.5q1.1 5.7-2.85 8.9-1.55 1.2-3.45 1.75l-2.95.2m4.7-47.45L10 80q-.65-.6-.85-1.35-.35-1.25-.1-2.9.2-1.45.75-2.45-.1 2.55.6 5.5l.7 2.25m.95 26.8q-1.5 5.2-8.15 4.2-1.95-1.9-2.8-5.45l.05-.4q5.5 2.75 10.85 1.6l.05.05" fill="#fff"/><path d="m118.4 77.25 5.9-.35q2.65 3 3.65 6.35.9 3.05.15 5.65-.7 2.5-2.75 3.65-2.15 1.25-5.15.55-.6-1.55.65-2.15 6.1-3.9-2.45-13.7m17.65 4.6 3.05-.95q3.8 2.2 7.6.05 3.05-2.3 1.6-6.8l1.2-1.75q2.55 3.95 2 7.85-.3 2.15-1.4 3.75l-.1.15-.1.15-1.55 1.5q-2.7 2-5.95 1.15-3.65-.9-6.35-5.1m-9.75 55.25q-3.55.3-6.85-1.25-3.75-5.1-1.65-12.1l2.1-.6q0 4.35 1.75 8.05 1.7 3.45 4.65 5.9m28.65-16.6q-4.8 2.3-8.85.15-3.35-1.75-5.35-6-1.8-3.8-1.45-6.9.3-3.2 2.7-2.55l.8.95q-.2 2.6.7 4.2 1 1.8 3.4 2.65l3.75.4q1.9-.3 3.35-1.75 3.55.5 6.9-.1 2.45-.4 4.15-1.25-.9 5.9-7.3 8.65-1.85 0-2.8 1.55m-2.9-1.35-.6-.2-.55.2q-.25.25-.25.6t.25.55l.55.25.6-.25.25-.55-.25-.6M6.2 87.6q-2.45-6-.05-11.35 1.35 7.8 5.45 6.35l.55 1.9.65 2.1q-.65 1.2-.8 2.3-2.7 2.35-5.8-1.3m7.85.25 1.15-1.7q2.15.95 3.2-.35l-.1 2.35q-1.75 1.35-4.25-.3m6.5 32.15-.1.25q-1.7 4.8-4.6 8.25-5.45 2.35-9.3.35l-.15-.35 2.95-.2q1.9-.55 3.45-1.75 3.95-3.2 2.85-8.9 2.65-3.4 4.9 2.35m-5.1-13.75q2 .9 1.2 3.3-.9 2.55-4.35 4.35-5.45.95-8.4-1.85 6.65 1 8.15-4.2l.05-.05q2.15-.45 3.35-1.55" fill="#b8e2f0"/><path d="m63.55 74.8.4.1q11.85 2.75 23 10.7 11.5 8.25 21.05 21.15-1.95 1.05-3.25 2.75-2.05 2.7-2 6.05 0 2.15.85 4.05l-4.65-.45q-7.25.05-20.85 3.4-15.65 3.85-33.35 10.3-5 1.8-8.25 1.5-3.3-.3-5.25-2.85-3.65-4.65-4.05-20.2 31.45 2.2 36.35-36.5m44.55 50.05q1.45.9 3.3 1.6v2.05l-5.5 5.25q3.35-4.45 2.2-8.9M71.3 86.2q.95.95 2.25.95t2.2-.95q.9-.9.9-2.2 0-1.3-.9-2.2-.9-.9-2.2-.9-1.3 0-2.25.9-.9.9-.9 2.2 0 1.3.9 2.2" fill="#ffb3d1"/><path d="m64.35 148.25-7.65-.1q-14.6-.75-25.8-5.9-11.35-5.2-14.5-12.8 3-1.7 5.15-8.95 2.2-7.2 1.2-12-3-14.6-2.3-22.85 9.35-8.05 20.65-10.8 10.9-2.6 22.45-.05-4.9 38.7-36.35 36.5.4 15.55 4.05 20.2 1.95 2.55 5.25 2.85 3.25.3 8.25-1.5 17.7-6.45 33.35-10.3 13.6-3.35 20.85-3.4-6.2 22.35-34.6 29.1M71.3 86.2q-.9-.9-.9-2.2 0-1.3.9-2.2.95-.9 2.25-.9t2.2.9q.9.9.9 2.2 0 1.3-.9 2.2-.9.95-2.2.95-1.3 0-2.25-.95m-7.1 54.85q-.95-3.35-5.55 2.75 3.3-3.35 5.55-2.75" fill="#ffd6e6"/><path d="M18.15 105.75q.7-.5 1.25-.4.5.1.7.8.95 3-2.55 6.2 1.25-4.8.6-6.6" fill="#84a2e8"/><path d="M127.2 77.85q1.85.95 3.15 2.65 1.9 2.45 2.2 5.85.35 3.4-1 6.7-1.9 2.95-4.5 3.55-2.15.45-4.2-.7l-.95-.6q3.3.35 5.55-.95 2.15-1.2 2.95-3.75 1.7-5.45-3.2-12.75m22.3-5.45.75-1.45.6-1.15q7.95 16.95-11.35 24.35l3.05-2.35 2.7-2.25q4.1-3.6 4.65-5.25l.1-.15.1-.15q1.1-1.6 1.4-3.75.55-3.9-2-7.85m-18.3 47.8q-11.65 7.55-2.45 18.9-11.05 2.15-14.7-7.2 2.6 2.65 5.4 3.95 3.3 1.55 6.85 1.25-4.85-6.9-2.1-12.55 1.1-2.25 3.15-3.45 1.95-1.2 3.85-.9m20.85-1.05.25.6-.25.55-.6.25-.55-.25q-.25-.2-.25-.55 0-.35.25-.6l.55-.2.6.2" fill="#fdb6db"/><path d="M99.45 148.65q-1.45-2.6-.8-4.7.65-2 3.4-4 5.45-3.6 11.25-5.2l1 1.85q-1.35 3.7-5.4 3.65l-3.15-.3-2.4.25q-1.15.65-1.5 1.9-.3 1.2.15 2.55 1.1 3.15 4.7 3.7-3.6 1.5-6.9.4l-.35-.1" fill="#4a8cff"/><path d="M99.45 148.65q-3.15-1.2-5.65-4.7 11.5-5.05 17.75-13.55.75 2.4 1.75 4.35-5.8 1.6-11.25 5.2-2.75 2-3.4 4-.65 2.1.8 4.7" fill="#8a9eff"/><path d="M51.95 12.35q5.4-3.4 12.8-6.2Q73.1 3 84.8 3.65 48.2 18.1 50.2 48.6q14.7-20.05 35.15-20.75Q67.3 41.1 64 55.05q33 .3 58.9-20-8.5 17-26 25 24.9 3.6 49.05-12.95v6.25l-15.1 13.05q2.35 4.45 5.8 4 5.35-.7 13.45-13.25 1.05 9.45-1.6 14.4-6.4 7-15.6 8.8-3.7-5.95-10.15-5.85-7.05.2-12.1 3.4l-2.6 2-7.95-.5q-3.75-.75-7.4-2.25 2.45-4.45-.5-9.65-2.9-5.25-9.4-8.1-7.25-3.2-15.8-1.8-9.9 1.6-19.45 9.25-3.65 2.95-7 3.85-4.85-2.2-6.55-6.4-1.75-4.25.8-8 2.5-2.95 5.3-2.5 2.75.45 3.3 3.4-1.55-2-3.95-1.75-2.45.2-2.65 2.8-.15 1.85.95 3.1.95 1.15 2.5 1.45l2.7-.2q1.25-.6 1.4-1.9-1.95 1.45-3.55.85-1.35-.55-1.65-1.95-.3-1.45.85-1.95 1.35-.6 4 .8 1.7-5.7-2.2-8.2-1.65-1.1-3.95-1.25-2.25-.15-4.55.6-5.25 1.7-6.85 6.3-1.85 5.2 2.35 11.9-1.55.85-2.85 1.9-2.85-3-4.45-7.95-1.75-5.7-1.15-11.8Q22 34.2 38.15 22.6q-1.1 1.95-1.8 3.85l-.05.1q-3.65 2.95-6.1 6.7-2.3 3.6-2.6 6.65-.3 3.1 1.65 4.35 2.25 1.4 6.8.05-1.55-2.1-2-5.95-.5-4.5 1.35-8.2-1.05 6.15 2.75 11.1-.55-2.35-.65-4.65 2.45-12.85 14.45-24.25" fill="url(#k)"/><path d="M29.8 69.15q4 4.55 8.6 4.1 3.75-.4 9.9-4.8 8.05-5.75 17.25-7.25 8.2-1.3 15.1 1 6.65 2.25 9.25 6.85 2.75 4.8-.4 10.15l2.5.25 3.95 1.1q5.95 1.65 10 1.7-1.2 1.6-1.9 3.5-1.85 4.85-.25 10.05 1.75 5.45 7.05 9.85-1.55.4-2.85 1.1-9.55-12.9-21.05-21.15-11.15-7.95-23-10.7l-.4-.1Q52 72.25 41.1 74.85q-11.3 2.75-20.65 10.8l.3-2.45q1.5-8.55 9.05-14.05" fill="url(#l)"/><path d="m84.8 3.65 1.95.1q7.4.6 23.25 3.9l9.45 1.85q5.7 2.2 11.6 3.4 6.85 1.35 12.25 1 4.9 25.45-16.8 34.9 4.7 1.9 10.4-.6 5.25-2.25 11.7-8.45.9 7.9-3.95 18.8-1.95 4.4-4.2 7.75-2.2 3.25-3.8 4.1-3.45.45-5.8-4l15.1-13.05V47.1Q121.8 63.65 96.9 60.05q17.5-8 26-25-25.9 20.3-58.9 20 3.3-13.95 21.35-27.2-20.45.7-35.15 20.75-2-30.5 34.6-44.95" fill="url(#m)"/><path d="M9.45 94.55q1.95 1.95 4.35 3.55 3.5-.1.55-4.85l.05-.05-.05-.1-.35-.7.15-1.05q1.55 4.75 4.75 5.25.75 5.3 2.4 11.55 1.4 5.45-.75 11.85-2.25-5.75-4.9-2.35l-.55.5q-1.35 3.15-3.9 5.5.85-3.5-1.85-6.7l2.9-.4q3.6-1 5.3-4.2 3.5-3.2 2.55-6.2-.2-.7-.7-.8-.55-.1-1.25.4-.4-1.2-1.55-1.1.35-1.05.1-2.3-4.25 4.15-9.25 3.9 3.2-1.55 3.65-4.65.45-3-1.65-7.05" fill="url(#n)"/><path d="M120.3 90.95q-2.15.1-2.15 2.05 0 2.05 2.15 4.15l.35.3q-1.4 3.4.2 6.3 1.7 3.1 5.75 2.95 2.85-.15 4.8-2.5 1.95-2.2 1.7-4.85 5.7 1.5 11.05.65 2.4 6.35 8 8.85-7.7-1.2-11.3-5.25l-3.05-2.75q-.65 3.2-.85 6.25-7.05 3.85-3.9 18.9-3.65 2-5.6 6.05-1.3-6 3.75-11.85-2.5-3.45-5.55-2.95l-3.15.9-3.95 1.2-6.7-.2q-2.4-1-3.15-3.25-.7-2.15.35-4.6 1.15-2.6 3.8-4.35l4.6.6q-5.9-3.95-9.1-8.4-2.35-3.25-3-6.35 1.3-5.55 4.65-8.05 2.8-2.15 6.2-1.6 3.1.5 4.5 2.75 1.5 2.4-.4 5.05m-8.95-5q-1.1 0-1.9.8-.75.75-.75 1.9 0 1.1.75 1.85.8.8 1.9.8 1.15 0 1.9-.8.8-.75.8-1.85 0-1.15-.8-1.9-.75-.8-1.9-.8m.05 7.35q-2.35-.05-2.45 2.15-.1 2 1.45 4.55 1.6 2.6 3.55 3.55l1.7.4q1.1-.1 1.95-1.25.4-.55-.2-1.95l-1.2-3.1q-.8-2.8-1.95-3.7-.85-.7-2.85-.65m-93.1-4.2q0 3.5.6 7.5-3.2-.5-4.75-5.25.7-2.35 4.15-2.25" fill="url(#o)"/><path d="m119.45 9.5 12.1 1.45q10.9.45 17.05-4.05 3.8 8.15 6.7 19.15 3.25 12.35 4.35 24.55 2.7 30.65-8.7 48.5-.8-4.7 1.1-11 6.3-7-.4-20.6l-3.15 4.05q2.65-4.95 1.6-14.4Q142 69.7 136.65 70.4q1.6-.85 3.8-4.1 2.25-3.35 4.2-7.75 4.85-10.9 3.95-18.8-6.45 6.2-11.7 8.45-5.7 2.5-10.4.6 21.7-9.45 16.8-34.9-5.4.35-12.25-1-5.9-1.2-11.6-3.4" fill="url(#p)"/><path d="M148.15 91.1q-.8 13.5 6.9 18.1l-2.05-.25-.85-.1q-5.6-2.5-8-8.85-5.35.85-11.05-.65.25 2.65-1.7 4.85-1.95 2.35-4.8 2.5-4.05.15-5.75-2.95-1.6-2.9-.2-6.3 2.2 2 5 2.15 3.6.25 6.85-3 1.55-1.5 2.15-3.9 4.5.85 7.9-.9l-3.05 2.35q5.2-1.1 8.65-3.05m-11.05 22.45q1 6.55 4.65 10.5-5.15-.05-8.7 1.95-3.15-15.05 3.9-18.9-.2 3.05.05 5.95l.1.5" fill="url(#q)"/><path d="m28.95 86.4-.7-1.3q-2 4.65 1 7.2l1.05-.45 1.65-.7q-.85.85-1 1.9-.2.95.25 1.8 1 1.9 3.3 1.3.95-.25 1.55-.9l.65-.95q.65-1.35.3-3.2l-.2-.5q-.4-1-1.45-2-1.55-1.45-3.05-1.4l-2.65-.35-.15-.05-.55-.4m1.2-.8q.75.55 2.5.9l2.85.65q1.5.65 2.25 2.2 1.7 3.55-.05 6.35-1.75 2.75-5.1 2.35-1.4-.25-2.3-1.5-.95-1.2-1.05-3-5.4-4.1-.45-10.7.2 1.9 1.35 2.75m3.9 35.2.05 1-.45-2.35Q32 125.3 29.95 127q-2 1.7-4.45-.5l-.7-.75q-2.95-4.1-3.3-8.55.5 2.55 1.25 3.9-.65-2.3-.9-5.2-.25-2.55-.1-5l.15-1.8q.25-2.4.8-4.2l.5-1.55-.7.15-1.15.6q.45-1 1.05-1.5.9-.75 2.1-.5 1.6.25 3.25 2.05l.8.95q2.1 2.75 3.6 6.8 1.05 2.95 1.55 6.05l.35 2.85m-6.7-15.35-.15-.2q-1.2-1.15-2.45-1.6l-1.1-.25q-1.7 6.55-1.2 12.55.25 3 1 5.3.75 2.35 2.05 3.95 2.05 2.5 4.35.65 2.25-1.8 3.7-6.95l-.05-.35-.05-.05-.15-.65-1.55-5q-.95-2.45-2.05-4.35l-1.25-1.8-.8-.95-.3-.3M55.75 87l4-.3q2.5-.05 3.65-.6 1.75-.8 2.45-3 5.4 8.75-2.9 12.65-.55 2.1-2.05 3.4-1.55 1.35-3.5 1.3-4.75-.1-6.55-3.7-1.8-3.65 1.3-7.6 1.35-1.7 3.6-2.15m8.25.65-.15.05-3.75-.1q-2.05-.35-4.5 1.1-2.15 1.3-2.8 2.7-.9 2.1-.3 3.85l.7 1.25q.7.9 1.95 1.35 1.45.55 2.65.35 1.25-.2 2.15-1.3.8-.9.8-2.1-.05-1.25-1.05-2.45l2.2 1.2 1.3.7q4.65-2.5 2.95-8.4L64.9 87.2l-.9.45m-9.75 35.8q.35-2.4 1.2-4.7 1.6-4.55 5-8.75 4.7-5.7 11.55-9.3l2.6-1.2q5.35-2.3 10.35-2.4 6.6-.1 10.25 3.75-2.85-1.2-6.05-1.5 3.1 3.65 4.3 8.9l.45 2.75q.4 3.65-.35 7.4-.75 4.25-2.8 7.55 2.35-1.85 4-5.55-1.25 6.55-10.7 12l-2.35 1q-7.8 2.65-14.2-.3-6.55-3.05-11.95-12.2l-1.4 3.45.1-.9m28.3 7.6q7.55-4.1 9.1-12.7 1.55-8.85-3.85-19.1l-3.6.15q-3.95.35-7.8 1.85l-.6.2-1 .45q-1.25.5-2.45 1.15l-4 2.45q-3.65 2.55-6.7 6-2.9 3.3-4.95 7.15l-.5.9-.05.1-.2.45q4.55 8.05 11.9 11.3 7.4 3.3 13.95.05l.75-.4" fill="#8b366f"/><path d="m28.95 86.4.55.4q0 2.45 1.4 3.55 1.7-.9 3.45.2 1.05.65 1.15 1.9.1 1.4-1.15 2.6l-3.15-.2q-.45-.85-.25-1.8.15-1.05 1-1.9l-1.65.7q-2.65-2.25-1.35-5.45m-5.5 34.85q-.75-2.3-1-5.3-.5-6 1.2-12.55l1.1.25q1.25.45 2.45 1.6l.15.2-.75 1.3q-.5 1.1-.85 2.55-.45 1.8-.55 3.8l-1.75-1.55q-.95 4.95 0 9.7M53.2 96.5q2.25.9 3.8.5 1.35-.35 1.85-1.55.5-1.15-.1-2.35-.65-1.3-2.2-1.9 2.7-1 4.8.4 2.15-1.05 2.65-3.95l.9-.45q1.1 4.1-3 6.35l-2.2-1.2q.7 2.1.1 3.65l-.95 1.35-1.05.85q-1.2.2-2.65-.35-1.25-.45-1.95-1.35m22.6 4.95.6-.2q3.85-1.5 7.8-1.85l3.6-.15q5.4 10.25 3.85 19.1-1.55 8.6-9.1 12.7 8-10.75 6.4-21.5-3.8-.15-6.65 1.2l-1.25-3.15q-1.15-2.2-2.85-4l-2.4-2.15" fill="#d4f4ff"/><path d="m30.3 91.85-1.05.45q-3-2.55-1-7.2l.7 1.3q-1.3 3.2 1.35 5.45m6.5-1.25.2.5q.35 1.85-.3 3.2l-.65.95q-.6.65-1.55.9-2.3.6-3.3-1.3l3.15.2q1.95-.85 2.45-4.45m28.1-3.4 1.25-1.35q1.7 5.9-2.95 8.4l-1.3-.7q4.1-2.25 3-6.35m-5.2 5.15q1 1.2 1.05 2.45 0 1.2-.8 2.1-.9 1.1-2.15 1.3l1.05-.85.95-1.35q.6-1.55-.1-3.65" fill="#fdb6db"/><path d="m29.5 86.8.15.05 2.65.35q1.5-.05 3.05 1.4 1.05 1 1.45 2-.5 3.6-2.45 4.45 1.25-1.2 1.15-2.6-.1-1.25-1.15-1.9-1.75-1.1-3.45-.2-1.4-1.1-1.4-3.55m-6.05 34.45q-.95-4.75 0-9.7l1.75 1.55v.9q-.05 2.45.5 4.6.6 2.3 1.65 3.75 1.7 2.3 3.35 1.1 1.4-1 2.6-4.45l.15-.45h.05l.05.35q-1.45 5.15-3.7 6.95-2.3 1.85-4.35-.65-1.3-1.6-2.05-3.95M53.2 96.5l-.7-1.25q-.6-1.75.3-3.85.65-1.4 2.8-2.7 2.45-1.45 4.5-1.1l3.75.1.15-.05q-.5 2.9-2.65 3.95-2.1-1.4-4.8-.4 1.55.6 2.2 1.9.6 1.2.1 2.35-.5 1.2-1.85 1.55-1.55.4-3.8-.5m29.35 34.55-.75.4q-6.55 3.25-13.95-.05-7.35-3.25-11.9-11.3l.2-.45.05-.1.55.8q3.75 5.45 8.35 7.3 5.3 2.1 10.75-.95 3.45-1.9 5.3-5.15 1.75-3.1 1.7-6.8-.05-2.05-.55-4 2.85-1.35 6.65-1.2 1.6 10.75-6.4 21.5M73.5 114.6l.35-.15 1.1.05.65.65q.1.4-.2.8l-.05.05-.4.4-.5.2-.7.05-.3-.05-.15-.05-.6-.65q-.1-.45.2-.85l.6-.45m-7.25 1.55q.85.35 1.05 1.1.2.75-.35 1.45t-1.6.95l-1.85-.05q-.85-.3-1.05-1.1-.2-.7.4-1.45.55-.7 1.55-.95l1.85.05m-35.35-.35.5.7.1 1-.3.65q-.3.2-.6 0l-.5-.75-.1-1q.05-.5.35-.65l.55.05m-2.85-1.45.2.3.1.6-.2.4-.05.05H28l-.2-.1-.15-.15-.15-.25v-.05l-.05-.55.2-.4.35.05.05.1" fill="#fff"/><path d="M22.4 102.6q-.5-4.95.65-5.55l.25-.1q1.45-.6 3.55 1.5 2.3 2.4 4.1 7.15 2.1 5.35 2.85 12.15l.25 3.05-.35-2.85q-.5-3.1-1.55-6.05-1.5-4.05-3.6-6.8l-.8-.95q-1.65-1.8-3.25-2.05-1.2-.25-2.1.5m71.5 8.4-.45-2.75q-1.2-5.25-4.3-8.9 3.2.3 6.05 1.5Q91.55 97 84.95 97.1q-5 .1-10.35 2.4l-2.6 1.2q-6.85 3.6-11.55 9.3-3.4 4.2-5 8.75-.85 2.3-1.2 4.7.3-2.65.9-5.1 2.35-9.95 9-17.5 5.9-6.65 13.4-9.7 7.15-2.9 12.2-1.2 5.35 1.75 5.45 7.9 2.45 1.05 3.95 3.15 1.4 1.95 1.35 4.1 0 2.25-1.55 3.8-1.75 1.7-5.05 2.1" fill="#8eb0ff"/><path d="M25.2 113.1q.1-2 .55-3.8.35-1.45.85-2.55l.75-1.3.3.3-.2.35-.55 1-.5 1.4-.05.1-.15.7q-.35 1.4-.45 2.9l-.1 1.45.1 1.75.4 2.55q.5 2.1 1.5 3.4l.3.4q1.4 1.65 2.8.65h.05l.05-.05q.95-.75 1.75-2.5l.15-.4.2-.55.1-.25.25-.8.15.65v.05l-.15.45q-1.2 3.45-2.6 4.45-1.65 1.2-3.35-1.1-1.05-1.45-1.65-3.75-.55-2.15-.5-4.6v-.9m31 6.45.5-.9.9 1.25.25.35.65.85.55.65q2.55 2.9 5.5 4.15l.35.15q4.45 1.8 9-.35l.95-.5q3.15-1.75 4.85-4.75.95-1.75 1.35-3.7l.2-2.6-.15-2.15q-.4-2.3-1.5-4.45l-.6-1.05-.1-.2-1.7-2.2-1.65-1.6-.75-.6 1-.45 2.4 2.15q1.7 1.8 2.85 4l1.25 3.15q.5 1.95.55 4 .05 3.7-1.7 6.8-1.85 3.25-5.3 5.15-5.45 3.05-10.75.95-4.6-1.85-8.35-7.3l-.55-.8" fill="#740e0e"/><path d="m27.65 105.75.8.95 1.25 1.8q-.65 1-1.05 2.35-1-1.95-2.3-2.25l.05-.1.5-1.4.55-1 .2-.35m40.7-.25 4-2.45q1.2-.65 2.45-1.15l.75.6 1.65 1.6 1.7 2.2.1.2q-4.15.1-7.25 2.8-1.3-2.15-3.4-3.8m4.85 7.25q3.8-1.4 7.9-.75l.15 2.15-.2 2.6-5-.4-1.1.05.4-.4.05-.05q.3-.4.2-.8l-.65-.65-1.1-.05-.35.15-.1-.75-.2-1.1m.7 12.95q-4.55 2.15-9 .35l-.35-.15q3.85-1 6.2-3.5l.7-.8q.7 2.75 2.45 4.1m-43.1-3.3h-.05q-1.4 1-2.8-.65.55-.8.75-2.65l.25.6q.7 1.75 1.9 2.65l-.05.05m-5.05-7-.1-1.75.1-1.45q1.25-.2 2.4.9l-.05.75-.05.5-.05-.1-.35-.05-.2.4.05.55v.05l.15.25-.35-.05q-.8-.15-1.55 0" fill="#f8433d"/><path d="m79 106.5.6 1.05q1.1 2.15 1.5 4.45-4.1-.65-7.9.75l-.6-1.8-.85-1.65q3.1-2.7 7.25-2.8m2.05 10.25q-.4 1.95-1.35 3.7-1.7 3-4.85 4.75l-.95.5q-1.75-1.35-2.45-4.1 1.4-1.8 1.9-4.1l.05-.45.05-.45.3.05.7-.05.5-.2 1.1-.05 5 .4" fill="url(#r)"/><path d="M56.7 118.65q2.05-3.85 4.95-7.15 3.05-3.45 6.7-6 2.1 1.65 3.4 3.8l.85 1.65.6 1.8.2 1.1.1.75-.6.45q-.3.4-.2.85l.6.65.15.05-.05.45-.05.45q-.5 2.3-1.9 4.1l-.7.8q-2.35 2.5-6.2 3.5-2.95-1.25-5.5-4.15l-.55-.65-.65-.85-.25-.35-.9-1.25m9.55-2.5-1.85-.05q-1 .25-1.55.95-.6.75-.4 1.45.2.8 1.05 1.1l1.85.05q1.05-.25 1.6-.95t.35-1.45q-.2-.75-1.05-1.1" fill="url(#s)"/><path d="M29.7 108.5q1.1 1.9 2.05 4.35l1.55 5-.25.8-.1.25-.2.55-.15.4q-.8 1.75-1.75 2.5-1.2-.9-1.9-2.65l-.25-.6q-.4-1.3-.55-2.8l-.05-.3v-.3l.05-.05.2-.4-.1-.6-.2-.3.05-.5.05-.75.2-1.15.3-1.1q.4-1.35 1.05-2.35m1.2 7.3-.55-.05q-.3.15-.35.65l.1 1 .5.75q.3.2.6 0l.3-.65-.1-1-.5-.7" fill="url(#t)"/><path d="M26.35 108.6q1.3.3 2.3 2.25l-.3 1.1-.2 1.15q-1.15-1.1-2.4-.9.1-1.5.45-2.9l.15-.7m1.6 13.15-.3-.4q-1-1.3-1.5-3.4l-.4-2.55q.75-.15 1.55 0l.35.05.15.15.2.1h.1v.3l.05.3q.15 1.5.55 2.8-.2 1.85-.75 2.65" fill="url(#u)"/></g><use ffdec:characterId="2" height="148.5" width="115.8" xlink:href="#v" id="c"/><use ffdec:characterId="4" height="63.05" width="94.05" xlink:href="#w" id="d"/><use ffdec:characterId="6" height="27.65" width="45.95" xlink:href="#x" id="e"/><use ffdec:characterId="8" height="50.25" width="49.1" xlink:href="#y" id="f"/><use ffdec:characterId="10" height="151.15" width="169.2" xlink:href="#z" id="g"/><path d="M19.6-4.6q8.15 1.1 8.15 2.65 0 1.55-8.15 2.6L0 1.8-19.65.65q-8.1-1.05-8.1-2.6t8.1-2.65L0-5.65 19.6-4.6" fill-opacity=".349" fill-rule="evenodd" transform="translate(27.75 5.65)" id="b"/></defs></svg>