<svg xmlns:ffdec="https://www.free-decompiler.com/flash" xmlns:xlink="http://www.w3.org/1999/xlink" ffdec:objectType="frame" height="90" width="90" xmlns="http://www.w3.org/2000/svg"><use ffdec:characterId="22" height="90.9" transform="translate(-.3 -.9)" width="90.3" xlink:href="#a"/><defs><g id="a" transform="translate(.3 .9)"><use ffdec:characterId="6" height="89.95" width="90" xlink:href="#b"/><use ffdec:characterId="21" height="109.65" transform="matrix(.8287 0 0 .8291 -.329 -.912)" width="107.75" xlink:href="#c"/></g><g id="b"><use ffdec:characterId="4" height="89.95" width="90" xlink:href="#d"/><use ffdec:characterId="5" height="0" transform="matrix(.5269 0 0 .5271 18.3 0)" width="0" xlink:href="#sprite1"/></g><g id="d"><use ffdec:characterId="1" height="0" transform="matrix(.3777 0 0 .378 21.65 .9)" width="0" xlink:href="#sprite0"/><use ffdec:characterId="3" height="39.8" transform="scale(2.651 2.2613)" width="33.95" xlink:href="#e"/></g><g id="c" transform="translate(2.75 1.1)"><use ffdec:characterId="7" height="30.2" transform="translate(25.3 74.95) scale(1.1128)" width="62.3" xlink:href="#f"/><use ffdec:characterId="8" height="28.55" transform="translate(63.637 52.655) scale(1.1128)" width="13" xlink:href="#g"/><use ffdec:characterId="9" height="37.8" transform="translate(27.937 41.487) scale(1.1128)" width="52.1" xlink:href="#h"/><use ffdec:characterId="10" height="28.65" transform="translate(72.237 57.187) scale(1.1128)" width="14.15" xlink:href="#i"/><use ffdec:characterId="11" height="23.15" transform="translate(31.737 73.87) scale(1.1128)" width="14.25" xlink:href="#j"/><use ffdec:characterId="12" height="25.5" transform="translate(49.537 73.116) scale(1.1128)" width="15.9" xlink:href="#k"/><use ffdec:characterId="14" height="14.8" transform="translate(9.687 51.237) scale(1.1128)" width="19.3" xlink:href="#l"/><use ffdec:characterId="15" height="38.85" transform="translate(26.601 39.05) scale(1.1128)" width="43" xlink:href="#m"/><use ffdec:characterId="17" height="17.95" transform="translate(-1.113 4.487) scale(1.1128)" width="29.75" xlink:href="#n"/><use ffdec:characterId="18" height="61.95" transform="translate(14.577 -1.113) scale(1.1128)" width="60.85" xlink:href="#o"/><use ffdec:characterId="20" height="18.75" transform="translate(67.894 5.637) scale(1.1128)" width="33.35" xlink:href="#p"/></g><g id="g"><path d="M6.65 8.05 4.2 8.3q-6.15.15-2.9-7.65-.85-2.1-1-3.7Q.15-4.7.25-6.35q.1-1.65 1.7-4.9Q6.1-13.8 11-11.9q.05 3.95-2.3 8.35Q8-.8 9 .65q.55 4.6-1.05 6.45l-1.3.95" fill="#4f4ab7" fill-rule="evenodd" transform="translate(1 13.7)"/><path d="M2.7 13.8H.55q1.9-4.45 2.15 0" fill="#776fb1" fill-rule="evenodd" transform="translate(1 13.7)"/><path d="m7.95 7.1.15-.15q-.3 6.35-5.4 6.85-.25-4.45-2.15 0L0 13.75q1.55-3.4 1.65-5.85l5 .15 1.3-.95" fill="#b7b1e2" fill-rule="evenodd" transform="translate(1 13.7)"/><path d="M9.1 20.65Q8.8 27 3.7 27.5H1.55L1 27.45q1.55-3.4 1.65-5.85" fill="none" stroke="#776fb1" stroke-linecap="round" stroke-linejoin="round" stroke-width="2"/><path d="M7.65 21.75 5.2 22q-6.15.15-2.9-7.65-.85-2.1-1-3.7-.15-1.65-.05-3.3.1-1.65 1.7-4.9Q7.1-.1 12 1.8q.05 3.95-2.3 8.35-.7 2.75.3 4.2.55 4.6-1.05 6.45l.15-.15m-6.45.95 5 .15 1.3-.95" fill="none" stroke="#2c2e84" stroke-linecap="round" stroke-linejoin="round" stroke-width="2"/></g><g id="h"><path d="M44.3 23q-1.9.7-4.45.9-2.4 7-10.25 9.85l-1.15.35q-8.4 2.9-16.1.9l-4 .05Q5.45 28.75.7 26.6q-.5-1.95-.65-4.3-.6-9.85 5.7-15.3 19 8.15 36.55.25 7.3 3.4 5.45 10.4-1.3 3.45-3.45 5.35m-4.1-.25-.35 1.15.35-1.15" fill="#4f4ab7" fill-rule="evenodd" transform="translate(1 1)"/><path d="M5.75 7Q13.2.55 32.25 0 51.3-.6 50 15.4q-.6 5.65-5.7 7.6 2.15-1.9 3.45-5.35 1.85-7-5.45-10.4Q24.75 15.15 5.75 7m2.6 28.05Q2.45 35.4.7 26.6q4.75 2.15 7.65 8.45" fill="#988dff" fill-rule="evenodd" transform="translate(1 1)"/><path d="M6.75 8q7.45-6.45 26.5-7Q52.3.4 51 16.4q-.6 5.65-5.7 7.6-1.9.7-4.45.9-2.4 7-10.25 9.85l-1.15.35q-8.4 2.9-16.1.9m-4 .05q-5.9.35-7.65-8.45-.5-1.95-.65-4.3-.6-9.85 5.7-15.3m34.1 16.9.35-1.15" fill="none" stroke="#2c2e84" stroke-linecap="round" stroke-linejoin="round" stroke-width="2"/></g><g id="i"><path d="M8.25.6h2q0 3.5-.4 7t.95 5.4q2.15 2.4.85 7.55Q10.05 22 8.3 22.3l1.45-6.8Q6.6 10.95 8.1 4.35q.35-1.6.15-3.75" fill="#988dff" fill-rule="evenodd" transform="translate(1 1)"/><path d="m2.6 0 5.65.6q.2 2.15-.15 3.75-1.5 6.6 1.65 11.15L8.3 22.3q-2.35.4-4.85-1.35l.35-4.6q-2 .75-3.1-1.4Q-1.35 9.7 2.6 0" fill="#4f4ab7" fill-rule="evenodd" transform="translate(1 1)"/><path d="M11.25 1.6q0 3.5-.4 7t.95 5.4q2.15 2.4.85 7.55Q11.05 23 9.3 23.3q-2.35.4-4.85-1.35l.35-4.6q-2 .75-3.1-1.4Q-.35 10.7 3.6 1" fill="none" stroke="#2c2e84" stroke-linecap="round" stroke-linejoin="round" stroke-width="2"/><path d="M8.55 20.75q1.65-.5 3.25-1.95l-.6 5.15Q9.9 25.8 7.3 26.4q.85-2.4 1.25-5.65" fill="#fff" fill-rule="evenodd" transform="translate(1 1)"/><path d="m4.7 26.65-2.8-.2Q3.95 25.8 4.65 24q1.15 1.05.05 2.65" fill="#776fb1" fill-rule="evenodd" transform="translate(1 1)"/><path d="M7.3 26.4h-.15l-2.45.25q1.1-1.6-.05-2.65-.7 1.8-2.75 2.45h-.05l.05-.1q1.3-3.05 1.6-6.3 2.6 1.35 5.05.7Q8.15 24 7.3 26.4" fill="#b7b1e2" fill-rule="evenodd" transform="translate(1 1)"/><path d="m12.8 19.8-.6 5.15q-1.3 1.85-3.9 2.45h-.15l-2.45.25-2.8-.2h-.05l.05-.1q1.3-3.05 1.6-6.3" fill="none" stroke="#776fb1" stroke-linecap="round" stroke-linejoin="round" stroke-width="2"/><path d="M8.55 20.75q1.65-.5 3.25-1.95m-8.3 1.25q2.6 1.35 5.05.7" fill="none" stroke="#2c2e84" stroke-linecap="round" stroke-linejoin="round" transform="translate(1 1)"/></g><g id="j"><path d="m10.9-2.1.95 1.05q-.65 6 .15 11.25l-.95 1.05q-1.7-5.7-.15-13.35" fill="#978cfe" fill-rule="evenodd" transform="translate(1 4.25)"/><path d="M11.05 11.25q-2.5 2.3-4.9 2.05Q7.6 3.95 3.55-4.25 8.5-4.4 10.9-2.1q-1.55 7.65.15 13.35" fill="#4f4ab7" fill-rule="evenodd" transform="translate(1 4.25)"/><path d="M3.9 12.45 1.55 10.2Q1.95 3.35 0-2.75l.75-.35Q5.8-.35 3.9 12.45" fill="#ffd6ed" fill-rule="evenodd" transform="translate(1 4.25)"/><path d="M6.15 13.3Q5 13.15 3.9 12.45 5.8-.35.75-3.1l2.8-1.15q4.05 8.2 2.6 17.55" fill="#988dff" fill-rule="evenodd" transform="translate(1 4.25)"/><path d="M12.85 3.2q-.65 6 .15 11.25m-10.45 0Q2.95 7.6 1 1.5" fill="none" stroke="#2c2e84" stroke-linecap="round" stroke-linejoin="round" stroke-width="2"/><path d="m12 10.2-.95 1.05q-2.5 2.3-4.9 2.05-1.15-.15-2.25-.85L1.55 10.2" fill="none" stroke="#2c2e84" stroke-linecap="round" stroke-linejoin="round" transform="translate(1 4.25)"/><path d="M2.8 17.3q-1-.5-1.6-1.45.75-2.55.2-5.95 1.15 1.25 2.4 1.9-.25 3.6-1 5.5" fill="#a4aaea" fill-rule="evenodd" transform="translate(1 4.25)"/><path d="M2.8 17.3q.75-1.9 1-5.5 1.2.6 2.4.6-.2 3.45.45 5.45l-1.15.05-.6-2.1q0-.95-.35-1.55-.65.25-.9 3.4l-.85-.35m7.4-6.25.1-.1 1.7-1.5.25 4.05-1.05 2.05q-.65-1.3-1-4.5" fill="#fff" fill-rule="evenodd" transform="translate(1 4.25)"/><path d="M11.2 15.55q-1.35 1.7-3.7 2.15l-.85.15q-.65-2-.45-5.45 1.95.05 4-1.35.35 3.2 1 4.5" fill="#b7b1e2" fill-rule="evenodd" transform="translate(1 4.25)"/><path d="m5.5 17.9-1.85-.25q.25-3.15.9-3.4.35.6.35 1.55l.6 2.1" fill="#776fb1" fill-rule="evenodd" transform="translate(1 4.25)"/><path d="M2.4 14.15q.55 3.4-.2 5.95.6.95 1.6 1.45l.85.35 1.85.25 1.15-.05.85-.15q2.35-.45 3.7-2.15l1.05-2.05L13 13.7" fill="none" stroke="#776fb1" stroke-linecap="round" stroke-linejoin="round" stroke-width="2"/><path d="M3.8 11.8q-1.25-.65-2.4-1.9m8.8 1.15.1-.1 1.7-1.5M3.8 11.8q1.2.6 2.4.6 1.95.05 4-1.35" fill="none" stroke="#2c2e84" stroke-linecap="round" stroke-linejoin="round" transform="translate(1 4.25)"/></g><g id="k"><path d="M13.9.7q-.8 2.1-.85 3.3-1.3 6.6-1.35 12.4l-1.45 1.1Q10.15 8.35 13.9.7m-8 18.25q-2.45-.1-4.45-2.55.7-2.15.7-5.25l4.8 1.5-1.05 6.3" fill="#988dff" fill-rule="evenodd" transform="translate(1 .3)"/><path d="M1.05 2.8Q3.5 1.05 6.1.4q3.2-.8 6.7 0l1.1.3q-3.75 7.65-3.65 16.8Q7.9 19 5.9 18.95l1.05-6.3-4.8-1.5L2 7.95Q1.6 4.3 1.05 2.8" fill="#4f4ab7" fill-rule="evenodd" transform="translate(1 .3)"/><path d="m11.7 16.4-1.45 1.1Q7.9 19 5.9 18.95q-2.45-.1-4.45-2.55" fill="none" stroke="#2c2e84" stroke-linecap="round" stroke-linejoin="round" transform="translate(1 .3)"/><path d="M14.9 1q-.8 2.1-.85 3.3-1.3 6.6-1.35 12.4m-10.25 0q.7-2.15.7-5.25L3 8.25Q2.6 4.6 2.05 3.1" fill="none" stroke="#2c2e84" stroke-linecap="round" stroke-linejoin="round" stroke-width="2"/><path d="m3.9 17.1 2.05.55q-.25 3.85-1.4 6.45v-4.05q-1.2-.05-1.75 3.5l-1.05-.5L3.9 17.1m6.25-.85 1.75-1.05q-.95 4.2-.55 6.8L9.7 23.2q.55-2.65.45-6.95" fill="#fff" fill-rule="evenodd" transform="translate(1 .3)"/><path d="M1.75 23.05Q-.1 21.95 0 20.25l1.8-4.85 2.1 1.7-2.15 5.95" fill="#a4aaea" fill-rule="evenodd" transform="translate(1 .3)"/><path d="m4.55 24.1-1.75-.55q.55-3.55 1.75-3.5v4.05" fill="#776fb1" fill-rule="evenodd" transform="translate(1 .3)"/><path d="M5.95 17.65q2 .05 4.2-1.4.1 4.3-.45 6.95-2.3 1.25-5.15.9 1.15-2.6 1.4-6.45" fill="#b7b1e2" fill-rule="evenodd" transform="translate(1 .3)"/><path d="m3.9 17.1 2.05.55q2 .05 4.2-1.4l1.75-1.05m-10.1.2 2.1 1.7" fill="none" stroke="#2c2e84" stroke-linecap="round" stroke-linejoin="round" transform="translate(1 .3)"/><path d="M12.9 15.5q-.95 4.2-.55 6.8l-1.65 1.2q-2.3 1.25-5.15.9l-1.75-.55-1.05-.5Q.9 22.25 1 20.55l1.8-4.85" fill="none" stroke="#776fb1" stroke-linecap="round" stroke-linejoin="round" stroke-width="2"/></g><g id="r"><path d="M13.4 12.75q-3.05-.7-6.45-8.15 5 4.05 9.15 5.45l-.4 2.15-2.3.55" fill="#990030" fill-rule="evenodd" transform="translate(1 1)"/><path d="M6.95 4.6q3.4 7.45 6.45 8.15-4.15.4-7.15-3Q4.2 6.75 0 2.1q9.1-4.7 17.3 1.15l-1.2 6.8q-4.15-1.4-9.15-5.45" fill="#ff5151" fill-rule="evenodd" transform="translate(1 1)"/><path d="m14.4 13.75 2.3-.55m-2.3.55q-4.15.4-7.15-3Q5.2 7.75 1 3.1q9.1-4.7 17.3 1.15" fill="none" stroke="#420519" stroke-linecap="round" stroke-linejoin="round" stroke-width="2"/><path d="M16.1 10.05q-4.15-1.4-9.15-5.45" fill="none" stroke="#420519" stroke-linecap="round" stroke-linejoin="round" transform="translate(1 1)"/></g><g id="m"><path d="M56.2 3.65q.05 4.95-5 12.7-.6-3.15-2.05-3.45l7.05-9.25M35.4 31.2q-5.8-.15-10.6-2.45-1.8-1.25-3.6-6.25 11.75 2.5 24.45-5.45-3.4 3.8-7.7 7.6-2.25 3.8-2.55 6.55" fill="#990030" fill-rule="evenodd" transform="translate(-14.2 6.65)"/><path d="m51.2 16.35-1.35 1.95q-6.25 9.75-12.5 12.85l-1.95.05q.3-2.75 2.55-6.55 4.3-3.8 7.7-7.6l.65-.65 2.85-3.5q1.45.3 2.05 3.45m-26.4 12.4q-3.95-1.95-7.15-5.3L17.2 23l-2-2.1.5-3.4.4-2.15.1.05q1.6 5.15 5 7.1 1.8 5 3.6 6.25" fill="#ff5151" fill-rule="evenodd" transform="translate(-14.2 6.65)"/><path d="m16.1 15.35 1.2-6.8Q32.55-6.7 44.4-5.6q14.1 3.95 1.9 22l-.65.65Q32.95 25 21.2 22.5q-3.4-1.95-5-7.1l-.1-.05" fill="#620a31" fill-rule="evenodd" transform="translate(-14.2 6.65)"/><path d="M44.4-5.6q4 .35 7.65 2.6 4.1 2.25 4.15 6.65l-7.05 9.25-2.85 3.5q12.2-18.05-1.9-22" fill="#be4346" fill-rule="evenodd" transform="translate(-14.2 6.65)"/><path d="m46.3 16.4 2.85-3.5 7.05-9.25m-10.55 13.4.65-.65m-30.2-1.05.1.05q1.6 5.15 5 7.1m24.45-5.45q-3.4 3.8-7.7 7.6" fill="none" stroke="#420519" stroke-linecap="round" stroke-linejoin="round" transform="translate(-14.2 6.65)"/><path d="M30.2 1.05q4 .35 7.65 2.6Q41.95 5.9 42 10.3q.05 4.95-5 12.7l-1.35 1.95Q29.4 34.7 23.15 37.8l-1.95.05q-5.8-.15-10.6-2.45-3.95-1.95-7.15-5.3L3 29.65l-2-2.1.5-3.4m1.6-8.95Q18.35-.05 30.2 1.05" fill="none" stroke="#420519" stroke-linecap="round" stroke-linejoin="round" stroke-width="2"/><path d="M24.05 27.15q-2.65-2.05-1.4-4.9.9.35 1.5 1t.8 1.7q.15 1.05-.3 1.75l-.6.45m7.65-5.6q.5.2.8.75.35.75.35 1.6l-.2 1.5-.15.3-1.35 1-.75.25q-1.6-3 1.2-5.3l.1-.1" fill-rule="evenodd" transform="translate(-14.2 6.65)"/><path d="m24.05 27.15.6-.45q.45-.7.3-1.75-.2-1.05-.8-1.7-.6-.65-1.5-1v-.05q-.95-.3-1.35.7-.45 1-.45 1.9 0 .9.55 1.5.6.65 1.7.85h.95m8.45-1.45q-.65 3.65-5.9 3.65l-2.5-.15q-7.85-4.2-1.75-10.55l.95-.65q5.9 1.25 8.1 3.45l-.05.05q-.8-.1-1.4.35-.65.45-1.2 2.2-.55 1.75.25 2.55.55.5 1.4.35l.75-.25 1.35-1" fill="#fff" fill-rule="evenodd" transform="translate(-14.2 6.65)"/><path d="M22.65 22.25q-1.25 2.85 1.4 4.9h-.95q-1.1-.2-1.7-.85-.55-.6-.55-1.5t.45-1.9q.4-1 1.35-.7v.05m8.75-.75.3.05-.1.1q-2.8 2.3-1.2 5.3-.85.15-1.4-.35-.8-.8-.25-2.55.55-1.75 1.2-2.2.6-.45 1.4-.35h.05" fill="#62509c" fill-rule="evenodd" transform="translate(-14.2 6.65)"/><path d="m31.7 21.55-.3-.05v-.05q-2.2-2.2-8.1-3.45 4.45-2.9 10.1.1 5.1 5.35-.5 10.5-.95.9-.3 2-1.8 1.05-3.6.35-1.9 1.15-3.2.25.3-1.25.8-1.85-.5.6-.8 1.85-2.8.75-1.7-2l2.5.15q5.25 0 5.9-3.65l.15-.3.2-1.5q0-.85-.35-1.6-.3-.55-.8-.75m-2.3 8.2q-.65.9-.4 1.2-.25-.3.4-1.2" fill="#b7b1e2" fill-rule="evenodd" transform="translate(-14.2 6.65)"/><path d="M26.6 29.35q-.5.6-.8 1.85 1.3.9 3.2-.25-.25-.3.4-1.2M23.3 18l-.95.65Q16.25 25 24.1 29.2q-1.1 2.75 1.7 2M23.3 18q4.45-2.9 10.1.1 5.1 5.35-.5 10.5-.95.9-.3 2-1.8 1.05-3.6.35" fill="none" stroke="#62509c" stroke-linecap="round" stroke-linejoin="round" transform="translate(-14.2 6.65)"/></g><g id="s"><path d="m5.25 3.65.2-.95.3-.65-.3.65-.2.95-2.4-1.5 2.9-.1 7.8.6q-.75.8-1.2 1.75.45-.95 1.2-1.75Q20.1 3.6 27.1 6.2q-1.15 4.3-3.85 6.9-5.8-2.5-11.65-5.75l-6.35-3.7m6.6 2.1q-.2.75-.25 1.6.05-.85.25-1.6 3.95 1.6 7.9 2.45-3.5-2.4-7.4-3.8Q9.1 3.2 5.5 2.7q3.15 1.75 6.35 3.05m-6.3.45L5.3 5.15l6.3 4q5.1 3.05 10.1 5.25l-2.9 1.55-6.8-4.5-.4-2.3.4 2.3L5.55 6.2" fill="#ffcb62" fill-rule="evenodd" transform="translate(1 1)"/><path d="m5.25 3.65 6.35 3.7v1.8l-6.3-4 .25 1.05L0 1.15 8.5.05q-2 .65-2.75 2Q6.5.7 8.5.05l8 .35q5.45.65 11.25 2.4l-.65 3.4q-7-2.6-13.55-3.55l-7.8-.6-2.9.1 2.4 1.5.05 1.5-.05-1.5m8.3-1Q14.7 1.35 16.5.4q-1.8.95-2.95 2.25" fill="#dd8752" fill-rule="evenodd" transform="translate(1 1)"/><path d="M11.6 9.15v-1.8q5.85 3.25 11.65 5.75l-1.55 1.3q-5-2.2-10.1-5.25" fill="#894029" fill-rule="evenodd" transform="translate(1 1)"/><path d="M11.85 5.75Q8.65 4.45 5.5 2.7q3.6.5 6.85 1.7l-.5 1.35.5-1.35q3.9 1.4 7.4 3.8-3.95-.85-7.9-2.45" fill="#fff68a" fill-rule="evenodd" transform="translate(1 1)"/><path d="m5.75 2.05-.3.65-.2.95.05 1.5.25 1.05m6.05 1.15q.05-.85.25-1.6l.5-1.35q.45-.95 1.2-1.75Q14.7 1.35 16.5.4M5.75 2.05Q6.5.7 8.5.05m3.1 7.3v1.8l.4 2.3" fill="none" stroke="#894029" stroke-linecap="round" stroke-linejoin="round" transform="translate(1 1)"/><path d="M9.5 1.05 1 2.15 6.55 7.2 13 12.45l6.8 4.5 2.9-1.55 1.55-1.3q2.7-2.6 3.85-6.9l.65-3.4q-5.8-1.75-11.25-2.4l-8-.35z" fill="none" stroke="#894029" stroke-linecap="round" stroke-linejoin="round" stroke-width="2"/></g><g id="o"><path d="M37.8 13.55h-3.45 3.45q-.7 2.15-1.1 4.65-.45 2.65-.55 5.7-.75 14.3 11 21.4-9.7 2.55-9.6 7.8-.4 5.65 6.5 4.4 5.85-.85 10.6-3.3.35-2.4 4.25-6.4 3.75-.6 7.85-2.85-5.5 3.9-13.05 11.35-7.95 4.2-18.5 3.6-7.3-.55-10.8-2.6-1.25-3.45-.8-10.2-8.3-16.95-3.85-27.9 4.85 6.15 8.65-1.05 3.75-7.2-4.65-6.65l6.75-6.1q6.6-2.5 12.55-.55-3.55 3.25-5.25 8.7m-3.55 4.65h2.45-2.45m-3.65 2.4q0-.5-.4-.9-.35-.35-.85-.35t-.9.35q-.35.4-.35.9t.35.85q.4.4.9.4t.85-.4q.4-.35.4-.85m-.15 28.05q.9 0 1.55-.55t.65-1.35q0-.8-.65-1.35t-1.55-.55q-.9 0-1.55.55t-.65 1.35q0 .8.65 1.35t1.55.55" fill="#988dff" fill-rule="evenodd" transform="translate(-13.1 1)"/><path d="M37.8 13.55q1.7-5.45 5.25-8.7Q46.2 1.9 50.75.7q15.1 4.35 20.5 19.2 4.9 13.55-4.5 25.05-4.1 2.25-7.85 2.85-5.65.9-10.6-1.85l-1.15-.65q-11.75-7.1-11-21.4.1-3.05.55-5.7H39h-2.3q.4-2.5 1.1-4.65h.95-.95" fill="#dfcbf9" fill-rule="evenodd" transform="translate(-13.1 1)"/><path d="M43.05 4.85Q37.1 2.9 30.5 5.4 24.75 7.55 18.45 13q2.15-3.7 5.45-6.45Q36.6-2.2 50.75.7q-4.55 1.2-7.7 4.15M58.9 47.8q-3.9 4-4.25 6.4-4.75 2.45-10.6 3.3-6.9 1.25-6.5-4.4-.1-5.25 9.6-7.8l1.15.65q4.95 2.75 10.6 1.85" fill="#4f4ab7" fill-rule="evenodd" transform="translate(-13.1 1)"/><path d="m30.5 5.4-6.75 6.1q8.4-.55 4.65 6.65-3.8 7.2-8.65 1.05-4.45 10.95 3.85 27.9-.45 6.75.8 10.2-2.15-1.3-2.9-3.1 0-5.15-3-8.9-6.6-10.05-3.3-24.45l.55-1.15q.95-3.7 2.7-6.7 6.3-5.45 12.05-7.6m.1 15.2q0 .5-.4.85-.35.4-.85.4t-.9-.4q-.35-.35-.35-.85t.35-.9q.4-.35.9-.35t.85.35q.4.4.4.9" fill="#ffd6ed" fill-rule="evenodd" transform="translate(-13.1 1)"/><path d="M30.45 48.65q-.9 0-1.55-.55t-.65-1.35q0-.8.65-1.35t1.55-.55q.9 0 1.55.55t.65 1.35q0 .8-.65 1.35t-1.55.55" fill="#2c2e83" fill-rule="evenodd" transform="translate(-13.1 1)"/><path d="M34.35 13.55h3.45q1.7-5.45 5.25-8.7Q46.2 1.9 50.75.7m16 44.25q-4.1 2.25-7.85 2.85-5.65.9-10.6-1.85l-1.15-.65q-11.75-7.1-11-21.4.1-3.05.55-5.7h-2.45m3.55-4.65h.95M36.7 18.2H39m-1.2-4.65q-.7 2.15-1.1 4.65" fill="none" stroke="#765faf" stroke-linecap="round" stroke-linejoin="round" transform="translate(-13.1 1)"/><path d="M11.3 58.3q3.5 2.05 10.8 2.6 10.55.6 18.5-3.6 7.55-7.45 13.05-11.35m-16-44.25Q23.5-1.2 10.8 7.55 7.5 10.3 5.35 14q-1.75 3-2.7 6.7l-.55 1.15q-3.3 14.4 3.3 24.45 3 3.75 3 8.9.75 1.8 2.9 3.1" fill="none" stroke="#2c2e84" stroke-linecap="round" stroke-linejoin="round" stroke-width="2"/><path d="M37.65 1.7q15.1 4.35 20.5 19.2 4.9 13.55-4.5 25.05" fill="none" stroke="#765faf" stroke-linecap="round" stroke-linejoin="round" stroke-width="2"/><path d="M34.05 59.65q-.35-1.7-.55-3.55l-5.9-1q.55 2 1.6 3.75m4-7.85q0 2.65.3 5.1l4.5.05 2.95-.15q.3-2.75-.25-6.35m6.45 9.2q1.25-2.05 1.75-4.3-3.75 1.05-7.95 1.45-.3 2.3-1.2 4M27 50.5q0 2.45.6 4.6-4.35-1.35-5.8-4.35m27.35-1.4q.3 2.7-.25 5.2 4.3-1.25 7.95-3.45" fill="none" stroke="#2c2e84" stroke-linecap="round" stroke-linejoin="round" transform="translate(-13.1 1)"/><path d="M39.25 46.3q0 .85-.6 1.4-.6.55-2.1 1.05t-1.95-.3q-.45-.8-.25-1.85l.55-2.2q.4-1.15 1.5-.8 1.1.35 1.95 1.1.85.75.9 1.6m-6.85 1.5q-.25.95-1.3.65L28.75 48q-1.25-.15-.55-1.6.7-1.45 1.45-2 .75-.6 1.4-.55.7.05 1.15.75l.45 1.45-.25 1.75m-4.55-8.05q-1.35 2.5-4.15 3.05-2.8.55-5.05-2-2.25-2.6-2.35-6-.1-3.45 2.2-6.65 2.25-3.2 4.55-3 2.3.2 3.85 3.05 1.5 2.8 1.9 5.95.4 3.1-.95 5.6m15.65-7.4q.35-3.4 2.45-5.8 2.15-2.4 5.15-2.4 3 0 5.1 2.4 2.15 2.4 3.15 6.8t-1.95 7.3q-3 2.9-7.25 1.95-4.3-.95-5.65-3.9-1.4-2.95-1-6.35" fill-rule="evenodd" transform="translate(-13.1 1)"/></g><g id="t"><path d="m22.85 5.65 5.85-1.3Q24.8 7 19.95 9.45L18.4 7.9l1.55 1.55-8.8 3.9q-1.15-.5-1.95-1.5.8 1 1.95 1.5l-6.7 2.5q-1.25-.65-2.15-1.5l6.9-2.5q4.85-1.9 9.2-3.95l4.45-2.25m9-1.9L17.8 2.65Q18.3 1.5 19.25.3q-.95 1.2-1.45 2.35L7.7 3.1l-7.25 1 .8-3.05L9.65.1q5.1-.3 9.6.2 7.1.75 12.6 3.45M9.65.1Q8.3 1.6 7.7 3.1q.6-1.5 1.95-3" fill="#dd8752" fill-rule="evenodd" transform="translate(.5 1)"/><path d="M19.95 9.45Q24.8 7 28.7 4.35l-5.85 1.3L17.8 6.9l-.45-1.55.45 1.55-9.85 2.8-.45-1.35-.25-1.3.25 1.3.45 1.35L.7 12Q-.6 8.95.45 4.1l7.25-1q-.5 1.2-.5 2.65 0-1.45.5-2.65l10.1-.45 14.05 1.1q-5 3.7-10.5 6.65l-1.4-.95 1.4.95-7.2 3.4-3.5 1.35-3.7 1.6q-1.4-.35-2.5-.9l6.7-2.5 8.8-3.9m-2.5-5.55.35-1.25-.35 1.25Q11.8 4.15 7.2 5.75q-2.1.7-3.95 1.7l4-.4 10.1-1.7 6.3-1.4q-3.25-.25-6.2-.05m-3.3 9.9-3-.45 3 .45" fill="#ffcb62" fill-rule="evenodd" transform="translate(.5 1)"/><path d="M17.45 3.9q2.95-.2 6.2.05l-6.3 1.4q-.1-.75.1-1.45-.2.7-.1 1.45l-10.1 1.7-.05-1.3q4.6-1.6 10.25-1.85M7.2 5.75l.05 1.3-4 .4q1.85-1 3.95-1.7" fill="#fff68a" fill-rule="evenodd" transform="translate(.5 1)"/><path d="M22.85 5.65 18.4 7.9l-.6-1 .6 1q-4.35 2.05-9.2 3.95l-6.9 2.5Q1.25 13.35.7 12l7.25-2.3 9.85-2.8 5.05-1.25M9.2 11.85q-.75-.9-1.25-2.15.5 1.25 1.25 2.15" fill="#894029" fill-rule="evenodd" transform="translate(.5 1)"/><path d="m18.4 7.9 1.55 1.55 1.4.95M17.8 2.65l-.35 1.25q-.2.7-.1 1.45l.45 1.55.6 1M1.25 1.05.45 4.1Q-.6 8.95.7 12q.55 1.35 1.6 2.35.9.85 2.15 1.5 1.1.55 2.5.9M7.7 3.1q.6-1.5 1.95-3m-2.4 6.95.25 1.3.45 1.35q.5 1.25 1.25 2.15.8 1 1.95 1.5l3 .45M7.7 3.1q-.5 1.2-.5 2.65l.05 1.3m12-6.75q-.95 1.2-1.45 2.35" fill="none" stroke="#894029" stroke-linecap="round" stroke-linejoin="round" transform="translate(.5 1)"/><path d="M21.85 11.4q5.5-2.95 10.5-6.65-5.5-2.7-12.6-3.45-4.5-.5-9.6-.2l-8.4.95m20.1 9.35-7.2 3.4-3.5 1.35-3.7 1.6" fill="none" stroke="#894029" stroke-linecap="round" stroke-linejoin="round" stroke-width="2"/></g><use ffdec:characterId="2" height="39.8" width="33.95" xlink:href="#q" id="e"/><use ffdec:characterId="13" height="14.8" width="19.3" xlink:href="#r" id="l"/><use ffdec:characterId="16" height="17.95" width="29.75" xlink:href="#s" id="n"/><use ffdec:characterId="19" height="18.75" width="33.35" xlink:href="#t" id="p"/><path d="M0 39.8V0h33.95v39.8H0" fill="#fc0" fill-opacity="0" fill-rule="evenodd" id="q"/><path d="M53.2 4.4q9.1 4.45 9.1 10.7 0 6.2-9.1 10.65-9.15 4.45-22.05 4.45-12.95 0-22.05-4.45Q0 21.3 0 15.1 0 8.85 9.1 4.4 18.2 0 31.15 0q12.9 0 22.05 4.4" fill-opacity=".353" fill-rule="evenodd" id="f"/></defs></svg>