<svg xmlns:ffdec="https://www.free-decompiler.com/flash" xmlns:xlink="http://www.w3.org/1999/xlink" ffdec:objectType="frame" height="100" width="100" xmlns="http://www.w3.org/2000/svg"><use ffdec:characterId="16" height="100" transform="translate(-1.25)" width="101.25" xlink:href="#a"/><defs><g id="a" transform="translate(1.25)"><use ffdec:characterId="1" height="24.85" transform="matrix(.7257 0 0 .7256 24.9 78.65)" width="100.6" xlink:href="#b"/><use ffdec:characterId="2" height="24.25" transform="matrix(.7257 0 0 .7256 77.961 48.462)" width="25.2" xlink:href="#c"/><use ffdec:characterId="3" height="26.65" transform="matrix(.7257 0 0 .7256 74.688 68.843)" width="17.6" xlink:href="#d"/><use ffdec:characterId="4" height="26.65" transform="matrix(.7257 0 0 .7256 32.302 70.266)" width="23.45" xlink:href="#e"/><use ffdec:characterId="5" height="55.5" transform="matrix(.7257 0 0 .7256 29.774 41.574)" width="76.65" xlink:href="#f"/><use ffdec:characterId="6" height="30.95" transform="matrix(.7257 0 0 .7256 52.41 71.224)" width="27" xlink:href="#g"/><use ffdec:characterId="7" height="46.85" transform="matrix(.7257 0 0 .7256 52.174 38.024)" width="48.65" xlink:href="#h"/><use ffdec:characterId="8" height="57.05" transform="matrix(.7257 0 0 .7256 26.524 33.124)" width="57.25" xlink:href="#i"/><use ffdec:characterId="9" height="90.35" transform="matrix(.7257 0 0 .7256 2.607 4.153)" width="89.3" xlink:href="#j"/><use ffdec:characterId="10" height="37.4" transform="matrix(.7257 0 0 .7256 5.945 24.215)" width="62.55" xlink:href="#k"/><use ffdec:characterId="11" height="80" transform="scale(1.25)" width="80" xlink:href="#l"/></g><g id="c"><path d="m19.35 1.5 2.3 2.65q2.05 2.8 2.05 5.95 0 5.15-2.05 8.2-3.05 4.45-10.6 4.45L7.7 22.3l-1.5-.55Q1.4 18.7 1.5 11q3.15 1.3 6.2 1.6l2.1.1q2.9 0 5.2-2.15 2.4-2.3 4.35-9.05z" fill="none" stroke="#23481e" stroke-linecap="round" stroke-linejoin="round" stroke-width="3"/><path d="M20.45 2.65q2.2 2.8 2.2 6.05 0 12.65-12.65 12.65l-3.35-.45-1.55-.55q-3.05-1.95-4-5.65 3.6 2.5 8.35 2.5 6 0 8.95-3.25 2.5-2.95 2.5-8.6l-.45-2.7m-3.5 15.2q0-1.5-1.6-1.6l-.45.1q-1.65.65-1.65 2.25 0 1.2 1.65 1.2 2.05 0 2.05-1.95" fill="#8bd683" fill-rule="evenodd" transform="translate(1.5 1.5)"/><path d="m1.1 14.7-.1-.2-.15-.55-.1-.75-.3-2.5V9.6q3.15 1.3 6.2 1.6l2.05.15q2.95 0 5.25-2.2 2.35-2.3 4.35-9l2.15 2.5.45 2.7q0 5.65-2.5 8.6-2.95 3.25-8.95 3.25-4.75 0-8.35-2.5" fill="#519a4b" fill-rule="evenodd" transform="translate(1.5 1.5)"/><path d="M16.95 17.85q0 1.95-2.05 1.95-1.65 0-1.65-1.2 0-1.6 1.65-2.25l.45-.1q1.6.1 1.6 1.6" fill="#ceffc8" fill-rule="evenodd" transform="translate(1.5 1.5)"/></g><g id="d"><path d="m13.55 1.25.85 2.6.2.65q1.75 5.45 1.75 8.5 0 9.1-4.9 11.6l-3.05.8h-.95q-2.85 0-3.75-1.55-.3-.65-1.05-4.8L1.9 17l-.65-1.1Q4.3 13.95 7 9.5l.55-1.1 1.5-3.9q1-1.95 2.4-2.7.55-.35 1.2-.45l.9-.1z" fill="none" stroke="#23481e" stroke-linecap="round" stroke-linejoin="round" stroke-width="2.5"/><path d="m2.95 23.15-.45-.55q-.35-.65-1.1-4.8l-.75-2.05-.65-1.1q3.05-1.95 5.75-6.4l.55-1.1 1.5-3.9q1-1.95 2.4-2.7L11.4.1l.9-.1.1.3.1.25.2.4v.1q-.85 21-9.75 22.1" fill="#519a4b" fill-rule="evenodd" transform="translate(1.05 1.25)"/><path d="m12.7 1.05.25.75.1.25.1.55.2.65L14 5.3l.25.75.55 2.5.3 3.2v1.05l-.2 2.75-.55 2.55q-.95 2.85-2.85 4.4l-.35.3-.2.15-1.6.7-.1.05-.7.2-1.4.25h-1L4.8 24l-.8-.2-.65-.3-.4-.35q8.9-1.1 9.75-22.1" fill="#387c33" fill-rule="evenodd" transform="translate(1.05 1.25)"/><path d="m7.9 4.65.55-1.4.25-.45Q10 .55 12.05.1h.45l.55 1.95q-2.65-.55-2.65 1.3 0 1.3 1.55 2.05-2.85-.2-2.85.75 0 1 1.3 2.85l-1.7-.3-1.2.3q-.45.35-.45.9 0 .95 1 2.5-1.65-1-2.2-1-.75 0-1.05.75-.5.65-.5 2.1 0 1.2.35 1.5l-2.15.1Q.85 15.85.2 15l.2-.1.25-.25 1.75-1.3L4 11.6l2.4-3.35.65-1.3.4-.9.15-.3v-.1l.05-.15.25-.85M7.6 5.7l.05-.2-.05.2" fill="#974d6e" fill-rule="evenodd" transform="translate(1.05 1.25)"/><path d="m12.5.1.65-.1Q14 0 14 1.4q0 1.2-1.4 4l-2.95 5.25q-1.95 3.5-2.8 4.15-.8.65-2.2.95-.35-.3-.35-1.5 0-1.45.5-2.1.3-.75 1.05-.75.55 0 2.2 1-1-1.55-1-2.5 0-.55.45-.9l1.2-.3 1.7.3Q9.1 7.15 9.1 6.15q0-.95 2.85-.75-1.55-.75-1.55-2.05 0-1.85 2.65-1.3L12.5.1M7.45 6.05l.15-.35v.05l-.15.3m.2-.55.05-.1.2-.75-.25.85" fill="#e33f88" fill-rule="evenodd" transform="translate(1.05 1.25)"/><path d="m8.95 5.9.55-1.4.25-.45q1.3-2.25 3.35-2.7h.45l.65-.1q.85 0 .85 1.4 0 1.2-1.4 4L10.7 11.9q-1.95 3.5-2.8 4.15-.8.65-2.2.95l-2.15.1q-1.65 0-2.3-.85l.2-.1.25-.25 1.75-1.3 1.6-1.75 2.4-3.35.65-1.3.4-.9.15-.35V6.9l.05-.15.05-.1.2-.75-.25.85-.05.2V7l-.15.3" fill="none" stroke="#662634" stroke-linecap="round" stroke-linejoin="round" stroke-width="2"/></g><g id="e"><path d="M1.25 1.25q.75 5 .9 14.6.1 9.55 7.3 9.55 12.7 0 12.75-16.25" fill="none" stroke="#23481e" stroke-linecap="round" stroke-linejoin="round" stroke-width="2.5"/><path d="m15.95 6.9 3.05.65 1.75.45.1 1.1v1.4q-3.8 1-5.65 7.2-1.2 4.45-3.8 6.3l-3.25.2q-7.2 0-7.3-9.55 2.5 3.9 5.9 3.9 3.25 0 5.75-5l3.45-6.65" fill="#519a4b" fill-rule="evenodd" transform="translate(1.1 1.15)"/><path d="M20.85 10.5v1.55l-.3 1.85-.2.95v.35q-.25.55-.35 1.05-2.2 6.45-8.6 7.75 2.6-1.85 3.8-6.3 1.85-6.2 5.65-7.2" fill="#387c33" fill-rule="evenodd" transform="translate(1.1 1.15)"/><path d="M7.4 12.7q0 4.35-2.4 4.35-2.65 0-2.65-2.95 0-3.8 2.85-3.8 2.2 0 2.2 2.4M3.05 7.8l.2-1q.3-1.1 1.3-1.1 1.1 0 1.1 1.45Q5.65 9 4.35 9t-1.3-1.2" fill="#ceffc8" fill-rule="evenodd" transform="translate(1.1 1.15)"/><path d="M.85 14.65Q.75 5.05 0 .05 4 4 15.95 6.9l-3.45 6.65q-2.5 5-5.75 5-3.4 0-5.9-3.9m2.2-6.85q0 1.2 1.3 1.2t1.3-1.85q0-1.45-1.1-1.45-1 0-1.3 1.1l-.2 1m4.35 4.9q0-2.4-2.2-2.4-2.85 0-2.85 3.8 0 2.95 2.65 2.95 2.4 0 2.4-4.35" fill="#8bd683" fill-rule="evenodd" transform="translate(1.1 1.15)"/><path d="m15.9 6.7 3.7.9Q16.55 8.8 12 8.8 2.3 8.8.65 4.3 1.1 3.45 2 3.45q.75 0 1.4 3.6.2-2.5 1.75-2.5 1.3 0 1.2 3.6.7-2.5 2.15-2.5.85 0 1.5 2.9-.2-1.95 1.45-1.95.65 0 1.6 1.75.55-1 1.55-1.4l1.3-.25" fill="#e33f88" fill-rule="evenodd" transform="translate(1.1 1.15)"/><path d="m.65 4.3-.2-.75-.1-.85v-.4L.55 0 .9.3l3.35 2.4 1.55.65 3 1.3 5.9 1.75.1.1 1.1.2-1.3.25q-1 .4-1.55 1.4-.95-1.75-1.6-1.75Q9.8 6.6 10 8.55q-.65-2.9-1.5-2.9-1.45 0-2.15 2.5.1-3.6-1.2-3.6-1.55 0-1.75 2.5-.65-3.6-1.4-3.6-.9 0-1.35.85" fill="#974d6e" fill-rule="evenodd" transform="translate(1.1 1.15)"/><path d="m17 7.85 3.7.9q-3.05 1.2-7.6 1.2-9.7 0-11.35-4.5l-.2-.75-.1-.85v-.4l.2-2.3.35.3m13.9 6.2 1.1.2" fill="none" stroke="#662634" stroke-linecap="round" stroke-linejoin="round" stroke-width="2"/></g><g id="f"><path d="M32.25 49.45v-.95q-3.75-2.1-3.75-4.8 0-1.95 6.55-6.1 6.4-4.15 6.4-10.85 0-2.1-.4-3.95-1.2-4.55-5.2-7.5-6.25-4.25-11.75-4.25-8.95 0-15.25 5.75Q7.2 18.25 6.1 20q-.95 1.3-1.5 2.8-1.85 4.15-1.55 9.6.35 3.45 1.1 7.3Q0 35.65 0 28.5q0-14.25 10.9-22Q20.15 0 33.75 0q10.1 0 14.9 1.4Q55.2 3.25 62.5 8.9q7.15 5.65 9.65 12.15 2.5 6.55 2.5 12.85L74 37.95q-2.3.55-3.6 3.15l-.75 2.15-1.3 2.85q-2.7 4.45-5.75 6.4-2.3-.95-4.35-2.5-2.4-1.75-3.05-1.75-1.35 0-1.35 1.75 0 .65.15 1.2.1.65.5 1.2l.8.65 1.2.45h-1.45l-.1-.1v.1q-11.75-.3-22.7-4.05M7.85 42.4l1.55.65 3 1.3 5.9 1.75.1.1q-6.65-1.75-10.55-3.8" fill="#1c58a0" fill-rule="evenodd" transform="translate(1 1)"/><path d="M4.15 39.7q-.75-3.85-1.1-7.3-.3-5.45 1.55-9.6.55-1.5 1.5-2.8 1.1-1.75 2.75-3.2 6.3-5.75 15.25-5.75 5.5 0 11.75 4.25 4 2.95 5.2 7.5.4 1.85.4 3.95 0 6.7-6.4 10.85-6.55 4.15-6.55 6.1 0 2.7 3.75 4.8v.95L27 48.4l-.1-.15h-.35l-.7-.2-.45-.2-1.9-.5-.3-.05-3.7-.9-1.1-.2-.1-.1-5.9-1.75-3-1.3-1.55-.65-3.35-2.3V40l-.35-.3M56.5 53.5l-1.2-.45-.8-.65q-.4-.55-.5-1.2-.15-.55-.15-1.2 0-1.75 1.35-1.75.65 0 3.05 1.75 2.05 1.55 4.35 2.5l-.35.25-.1.1-.55.2-3.9.45h-1.2" fill="#82b9fa" fill-rule="evenodd" transform="translate(1 1)"/><path d="M33.25 50.45q10.95 3.75 22.7 4.05h2.75l3.9-.45.55-.2.1-.1.35-.25q3.05-1.95 5.75-6.4l1.3-2.85.75-2.15q1.3-2.6 3.6-3.15l.65-4.05q0-6.3-2.5-12.85-2.5-6.5-9.65-12.15-7.3-5.65-13.85-7.5Q44.85 1 34.75 1 21.15 1 11.9 7.5 1 15.25 1 29.5q0 7.15 4.15 11.2l.35.3v.1l3.35 2.3q3.9 2.05 10.55 3.8l1.1.2 3.7.9.3.05 2.35.7.7.2h.35l.1.15 5.25 1.3v-.25m22.7 3.95.1.1" fill="none" stroke="#0f3457" stroke-linecap="round" stroke-linejoin="round" stroke-width="2"/></g><g id="g"><path d="M24.75 13.6q-1.85 7.15-3.15 9.55l-1.5 2.4q-3.5 4.15-9.4 4.15-6.1 0-8.25-4.15-1.2-2.25-1.2-5.75l.45-9.55V8.8q0-7.4 5.3-7.4 5.75 0 17.5 12.2h.25z" fill="none" stroke="#23481e" stroke-linecap="round" stroke-linejoin="round" stroke-width="2.5"/><path d="m9.45 28.7-2.05-.25q4.35-2.55 6.65-5.5 5.95-7.85 9.3-9.9-1.85 6.85-3.05 9.1-3.45 6.55-10.85 6.55" fill="#387c33" fill-rule="evenodd" transform="translate(.95 1)"/><path d="m20.65 10 2.6 2.6h.25q-.15.2-.15.45-3.35 2.05-9.3 9.9-2.3 2.95-6.65 5.5l2.05.25Q0 28.7 0 18.8l.2-1.95q2.1 6.85 7.3 6.85 4.55 0 7.75-5l5.4-8.7" fill="#519a4b" fill-rule="evenodd" transform="translate(.95 1)"/><path d="m20.65 10-5.4 8.7q-3.2 5-7.75 5-5.2 0-7.3-6.85L0 18.8l.45-9.55V7.8Q.45.4 5.75.4q5.1 0 14.9 9.6M7.6 16.7q-.2-4.55-2.9-4.55-2.1 0-2.1 4.05 0 4.45 2.95 4.45 2.2 0 2.2-3.25l-.15-.7M4 5.85q-1.4 0-1.4 2.2 0 1.7 1.55 1.7.95 0 1.4-1.4l-.1-.75v-.35q0-1.4-1.45-1.4" fill="#8bd683" fill-rule="evenodd" transform="translate(.95 1)"/><path d="M4 5.85q1.45 0 1.45 1.4v.35l.1.75q-.45 1.4-1.4 1.4-1.55 0-1.55-1.7 0-2.2 1.4-2.2M7.6 16.7l.15.7q0 3.25-2.2 3.25-2.95 0-2.95-4.45 0-4.05 2.1-4.05 2.7 0 2.9 4.55" fill="#ceffc8" fill-rule="evenodd" transform="translate(.95 1)"/><path d="M14.85 3.7h-.1l-1.8-1.2q-1.45-.85-2.7-1.4L9.2.7l2.95 1.25.95.55 1.65 1.1.1.1M.15 8.4Q1.2 5.75 1.2 4.9q0-1.2.5-1.75l.25-.35q.35-.3.85-.3.35 0 .7.25l.8 1.05v-.55l.05-.55q.2-1.05 1.3-1.05 1 0 1.35.95.25.7.15 1.85.3-1.7 1.95-1.9l.45-.05.2.05q1.2.15.85 2.45.8-.95 2.25-.95.85 0 1.3.4.35.45.35 1.2l-.45 1.45q.95-.9 1.65-.9 1.3 0 1.3 1.75l-.45 1.55q1.15-1.45 1.75-1.45 1.65 0 1.65 2.3l-.1.75q.6-.95 1.3-.95.7 0 .95.65t0 1.9q-1.75-.05-4.25-1.15-2.85-3.25-5.5-4.9Q9.75 5 7.4 5q-5 0-7.25 3.4" fill="#e33f88" fill-rule="evenodd" transform="translate(.95 1)"/><path d="m9.2.7 1.05.4q1.25.55 2.7 1.4l1.8 1.2h.1Q18.3 6.1 22.8 10l1.45 1.35.8.85-.6.2-2.35.3q.25-1.25 0-1.9-.25-.65-.95-.65t-1.3.95l.1-.75q0-2.3-1.65-2.3-.6 0-1.75 1.45L17 7.95q0-1.75-1.3-1.75-.7 0-1.65.9l.45-1.45q0-.75-.35-1.2-.45-.4-1.3-.4-1.45 0-2.25.95.35-2.3-.85-2.45l-.2-.05-.45.05q-1.65.2-1.95 1.9Q7.25 3.3 7 2.6q-.35-.95-1.35-.95-1.1 0-1.3 1.05l-.05.55v.55l-.8-1.05q-.35-.25-.7-.25-.5 0-.85.3l-.25.35q-.5.55-.5 1.75 0 .85-1.05 3.5V7.2q0-2.65.85-4.25l.05-.05.55-.95Q3 0 6 0h.2l3 .7" fill="#974d6e" fill-rule="evenodd" transform="translate(.95 1)"/><path d="m10.15 1.7 1.05.4q1.25.55 2.7 1.4l1.8 1.2h.1l-.1-.1-1.65-1.1-.95-.55-2.95-1.25-3-.7h-.2q-3 0-4.4 1.95L2 3.9l-.05.05Q1.1 5.55 1.1 8.2v1.2Q3.35 6 8.35 6q2.35 0 4.95 1.65 2.65 1.65 5.5 4.9 2.5 1.1 4.25 1.15l2.35-.3.6-.2-.8-.85L23.75 11q-4.5-3.9-7.95-6.3" fill="none" stroke="#662634" stroke-linecap="round" stroke-linejoin="round" stroke-width="2"/></g><g id="h"><path d="m29.1 6.7.4.15.85.8.9.75.5.45q-.4 1.4-.4 3.45l-.65 2.75q-.9 3.9-.9 5.45 0 .65.55.95l1.5.35q3.75 0 4.8-4.4l.35-3.35 1.75 2.1q-.6.95-.75 1.85-1 2.15-1 2.85 0 .75 4 3.1l3.5 3.15.45 3.4v.65q0 7.05-10.8 5.85-4.35-.75-8.05-2.05-2.85-1.05-7.5-4.45-3.6-2.65-4.25-3.4Q4 16.05 3.7 8.55q-.3-5.05 2.15-6.9l.6-.4q1.1-.6 2.6-1.1L11.5 0h1l3.4.45q3.1.55 6.2 2 .85 6.9.85 9.65l-.85 6q0 .65.5 1l1.55.2q4 0 4.95-4.6.4-1.65.4-3.7 0-2.6-.4-4.3M18.2 26.75q0 .6 2.25 2.65l2.6 2.05q1.55 0 1.55-3.25 0-7.35-2.6-7.5h-.1q-.25 0-1.85 3.15-1.85 2.15-1.85 2.9m21.5-.1q-2.7-2.8-4.1-2.8-1.05 0-1.05 1.75.9 2.85.8 6.1l-.1 2.25 3.95.45q3.25 0 3.25-3.4 0-1.4-2.75-4.35m-12.8 4.9q0 .8 1.25 1.45l2.85.5q2.05 0 1.65-5.5-.3-4.05-1.85-5.25-.3-.3-.8-.4l-.6-.25q-2.85-.3-2.45 2.3l.35 4.1-.4 3.05" fill="#a0145b" fill-rule="evenodd" transform="translate(1 1)"/><path d="M44.95 30.5q1.7 3.4 1.7 4.1 0 1.85-.6 3.5-1.55-.75-2-.75-2.35 0-1.7 5.2L41 43.3l-.1-.3q-.75-4.05-3.05-4.05-2.2 0-2.2 3.95l.3 1.95H33.6q0-5.65-2.35-5.65-3.2 0-3.2 4.8l-1.95-.6-.3-.1v-.5q.2-6.4-3.2-6.4-1.95 0-3.75 3.55l-.65-.45-.6-.3q1.2-2.5 1.2-3.7 0-3.4-3.6-3.4-2.15 0-4 1.95l-.95-.95q2.15-1.4 2.15-4.5 0-3.75-3.5-3.75-1.15 0-3.8 1.75l-.9-1.35q2.55-1.2 2.55-3.65t-2.9-2.45q-1.1 0-2.35.6h-.1L.95 18.3l1.1-.4q1.55-.65 1.55-1.85 0-4.15-2.4-4.15l-1.1.05L0 10.7q2.15.45 2.15-2.05 0-2.2-1.75-2.55l.2-.4.05-.35q2.4.35 2.4-1.65 0-.75-.4-1.2l.15-.2 3.65-1.05-.6.4Q3.4 3.5 3.7 8.55q.3 7.5 10.65 18.55.65.75 4.25 3.4 4.65 3.4 7.5 4.45 3.7 1.3 8.05 2.05 10.8 1.2 10.8-5.85v-.65" fill="#974d6e" fill-rule="evenodd" transform="translate(1 1)"/><path d="M46.05 38.1q-.9 2.2-3.1 3.95l-.6.5q-.65-5.2 1.7-5.2.45 0 2 .75M41 43.3q-2.35 1.2-5.05 1.55l-.3-1.95q0-3.95 2.2-3.95 2.3 0 3.05 4.05l.1.3m-7.4 1.55L28.05 44q0-4.8 3.2-4.8 2.35 0 2.35 5.65m-7.8-1.55-5.9-2.7-1.1-.65h.05l1.05.65-1.05-.65q1.8-3.55 3.75-3.55 3.4 0 3.2 6.4v.5m-8.2-4.1q-3.65-2.45-6.3-5l-.1-.15q1.85-1.95 4-1.95 3.6 0 3.6 3.4 0 1.2-1.2 3.7m-7.35-6.1Q8.4 31.15 7.1 29l-.15-.15-.95-1.1-.9-1.15q2.65-1.75 3.8-1.75 3.5 0 3.5 3.75 0 3.1-2.15 4.5M4.2 25.25q-1.1-1.7-2.05-3.6v-.2l-.4-.75-.35-.95h.1q1.25-.6 2.35-.6 2.9 0 2.9 2.45T4.2 25.25M.95 18.3l-.05-.4q-.65-2.65-.8-5.95l1.1-.05q2.4 0 2.4 4.15 0 1.2-1.55 1.85l-1.1.4M0 10.7v-.75q0-2.2.4-3.85 1.75.35 1.75 2.55 0 2.5-2.15 2.05m.65-5.35q.5-1.35 1.3-2.2l.7-.65q.4.45.4 1.2 0 2-2.4 1.65" fill="#e33f88" fill-rule="evenodd" transform="translate(1 1)"/><path d="M22.1 2.45q2.05.85 4 2.15l1.1.65q.95.65 1.9 1.45.4 1.7.4 4.3 0 2.05-.4 3.7-.95 4.6-4.95 4.6l-1.55-.2q-.5-.35-.5-1l.85-6q0-2.75-.85-9.65m9.65 6.4.8.5.85.9.7.65.15.25 2.75 2.9-.35 3.35q-1.05 4.4-4.8 4.4l-1.5-.35q-.55-.3-.55-.95 0-1.55.9-5.45l.65-2.75q0-2.05.4-3.45l1.65 1.4-1.65-1.4m7 7.3Q43.2 21.8 44.5 27.1L41 23.95q-4-2.35-4-3.1 0-.7 1-2.85.15-.9.75-1.85M18.2 26.75q0-.75 1.85-2.9 1.6-3.15 1.85-3.15h.1q2.6.15 2.6 7.5 0 3.25-1.55 3.25l-2.6-2.05q-2.25-2.05-2.25-2.65m8.7 4.8.4-3.05-.35-4.1q-.4-2.6 2.45-2.3l.6.25q.5.1.8.4 1.55 1.2 1.85 5.25.4 5.5-1.65 5.5l-2.85-.5q-1.25-.65-1.25-1.45m12.8-4.9q2.75 2.95 2.75 4.35 0 3.4-3.25 3.4l-3.95-.45.1-2.25q.1-3.25-.8-6.1 0-1.75 1.05-1.75 1.4 0 4.1 2.8" fill="#450a28" fill-rule="evenodd" transform="translate(1 1)"/><path d="M23.1 3.45q2.05.85 4 2.15l1.1.65q.95.65 1.9 1.45l.4.15.85.8.9.75.5.45 1.65 1.4.7.65.15.25 2.75 2.9 1.75 2.1Q44.2 22.8 45.5 28.1l.45 3.4M7.45 2.25q1.1-.6 2.6-1.1L12.5 1h1l3.4.45q3.1.55 6.2 2" fill="none" stroke="#250518" stroke-linecap="round" stroke-linejoin="round" stroke-width="2"/><path d="M44.95 30.5v.65q0 7.05-10.8 5.85-4.35-.75-8.05-2.05-2.85-1.05-7.5-4.45-3.6-2.65-4.25-3.4Q4 16.05 3.7 8.55q-.3-5.05 2.15-6.9l.6-.4" fill="none" stroke="#250518" stroke-linecap="round" stroke-linejoin="round" transform="translate(1 1)"/><path d="M45.95 31.5q1.7 3.4 1.7 4.1 0 1.85-.6 3.5-.9 2.2-3.1 3.95l-.6.5-1.35.75q-2.35 1.2-5.05 1.55H34.6L29.05 45l-1.95-.6-.3-.1-5.9-2.7-1.05-.65-.65-.45-.6-.3q-3.65-2.45-6.3-5l-.1-.15-.95-.95Q9.4 32.15 8.1 30l-.15-.15-.95-1.1-.9-1.15-.9-1.35q-1.1-1.7-2.05-3.6l-.4-.95-.35-.95-.45-1.45-.05-.4q-.65-2.65-.8-5.95L1 11.7v-.75q0-2.2.4-3.85l.2-.4.05-.35q.5-1.35 1.3-2.2l.85-.85 3.65-1.05" fill="none" stroke="#65344e" stroke-linecap="round" stroke-linejoin="round" stroke-width="2"/></g><g id="i"><path d="M16.25 8.9Q27.95-2.2 46.1.55q5.2 2.05 7.5 6.95 1.65 3.7 1.65 9.05 0 15.85-11.35 25.95Q33.35 51.9 16.6 55h-.95q-7 .45-11.15-2.9-3.45-2.85-3.75-7L.5 44.05q-1.5-8.4 1.6-17.3Q4.5 19.9 16.25 8.9m28 22.95q-3.4 4.6-5.45 6.1-3.15 2.4-11.2 5.55-8.15 3.15-14.6 3.15-6.4-1.1-6.4 1.2 0 1.65 2.05 2.4l2.65.75q19.85 1.65 29.15-11.85 2.15-3.25 3.8-7.3" fill="#742e64" fill-rule="evenodd" transform="translate(1 1)"/><path d="M44.25 31.85q-1.65 4.05-3.8 7.3Q31.15 52.65 11.3 51l-2.65-.75q-2.05-.75-2.05-2.4 0-2.3 6.4-1.2 6.45 0 14.6-3.15 8.05-3.15 11.2-5.55 2.05-1.5 5.45-6.1" fill="#642452" fill-rule="evenodd" transform="translate(1 1)"/><path d="M17.25 9.9Q28.95-1.2 47.1 1.55q5.2 2.05 7.5 6.95 1.65 3.7 1.65 9.05 0 15.85-11.35 25.95Q34.35 52.9 17.6 56h-.95q-7 .45-11.15-2.9-3.45-2.85-3.75-7l-.25-1.05q-1.5-8.4 1.6-17.3Q5.5 20.9 17.25 9.9z" fill="none" stroke="#491d41" stroke-linecap="round" stroke-linejoin="round" stroke-width="2"/></g><g id="j"><path d="M32.8 3.6q-3.35.9-6.5 2.25-4.6 2.2-8.5 5.15l-.5.45L15 13.3l-2.85 2.8-1.75 2.15-2.1 2.9q-1.6 2.25-2.8 5.2-1.8 4.3-2.95 9.1L2 38.6q-.6 4.4.15 9.05.5 3.8 1.95 7.3l-.55 2.7q-.65 2.95-.65 5.9v3.25l.15 1 .4 2.35q.95 4.35 4 8.1Q11.7 83.1 17.8 85.3l3.45 1.3 3.65.95 4.9.8q5.2.55 10.65-.1l1.4-.25L50 86.6l1.85-.55 1.75-.55q5.65-1.4 11.1-4.15l4.35-2.45q2.8-1.85 5.35-4.25 4.55-4.4 7.6-10.15 2.75-5.1 4-10.55.95-3.45 1.3-7l.25-4.3q.2-6.4-1.55-12.65-.7-3-1.9-5.65-1.2-2.8-2.85-5.3-2.5-3.7-5.55-6.65l-2-1.85q-4.25-3.6-9.2-5.65l-3.2-1.1-.3-.1-4.9-1.2-10.55-.75q-5 0-9.9 1.2l-2.85.65z" fill="none" stroke="#23481e" stroke-linecap="round" stroke-linejoin="round" stroke-width="3.5"/><path d="m13.25 11.5 2.3-1.85.5-.45q3.95-2.95 8.5-5.1 3.15-1.4 6.55-2.25l2.8-.65Q38.8 0 43.8 0l10.55.75 4.9 1.2.35.1 3.15 1.1q5 2.05 9.25 5.65l1.95 1.85Q77 13.6 79.5 17.3q1.65 2.45 2.85 5.3-1.2-2.85-2.85-5.3-2.5-3.7-5.55-6.65 2.75 2.4 4.8 5.2 2.15 3.05 3.6 6.75 1.2 2.6 1.95 5.65 1.75 6.2 1.5 12.65l-.25 4.3q-.35 3.5-1.25 7-1.3 5.4-4.05 10.55-3 5.75-7.6 10.1-2.5 2.4-5.35 4.25L63 79.6q-5.45 2.7-11.15 4.15 4.35-1.85 7.55-3.9 4.65-3.2 8.15-7.85 3.9-5.35 6.95-10.8 2.9-5.5 4.45-11.5 1.65-5.85 1.4-12-.2-5.85-2.7-11.4-2.5-5.55-6.65-9.9-4.25-4.35-9.9-7.05Q55.25 6.75 49 6.1q-6.25-1-12 .95-5.8 2.05-11.35 4.25-5.75 2.15-11.55 1.3l-.85-1.1" fill="#387a32" fill-rule="evenodd" transform="translate(1.3 1.65)"/><path d="m13.25 11.5.85 1.1q5.8.85 11.55-1.3Q31.2 9.1 37 7.05q5.75-1.95 12-.95 6.25.65 12.1 3.25 5.65 2.7 9.9 7.05 4.15 4.35 6.65 9.9 2.5 5.55 2.7 11.4.25 6.15-1.4 12-1.55 6-4.45 11.5-3.05 5.45-6.95 10.8-3.5 4.65-8.15 7.85-3.2 2.05-7.55 3.9l-1.75.5-1.8.55-8.2 1.45-1.4.2 1.4-.2 8.2-1.45-2.85.8-6.75.85q-5.45.65-10.65.1l-4.9-.75-3.65-1-3.45-1.3q-6.1-2.15-10.3-7.05-3.05-3.7-4.05-8.05 2.65 3.35 6 6.2 3.6 2.85 7.95 5 5 2.3 10 3.35 5.2.8 10.45.1 4.8-.65 9.05-2.35 4.9-2.05 9.3-5.45 4.15-3.4 7.45-7.7 3.1-3.95 4.65-8.2 1.5-4.45 2.4-9.1.85-4.8.75-9.35-.2-5.45-1.65-10.45-1.5-5.15-4.75-9.4-3.5-4.4-8.15-7.15-3.6-2.2-8.4-2.85l-10.3.55-10.25 2.1-2.3.75h-.45l-1.75 1q-4.45 2.7-9.1.1l-2.2-1.2q1.3-1.55 2.85-2.85" fill="#519a4b" fill-rule="evenodd" transform="translate(1.3 1.65)"/><path d="m23.9 14.45 2.3-.75 10.25-2.1 10.3-.55q4.8.65 8.4 2.85 4.65 2.75 8.15 7.15 3.25 4.25 4.75 9.4 1.45 5 1.65 10.45.1 4.55-.75 9.35-.9 4.65-2.4 9.1-1.55 4.25-4.65 8.2-3.3 4.3-7.45 7.7-4.4 3.4-9.3 5.45-4.25 1.7-9.05 2.35-5.25.7-10.45-.1-5-1.05-10-3.35-4.35-2.15-7.95-5-3.35-2.85-6-6.2l-.4-2.35.95 1.15H3.8q2.4-3.25.1-6.95l-1-.35-.95.65-.8 1.2q0-2.95.65-5.85l.55-2.7Q.95 49.7.4 45.85q-.75-4.6-.15-9 4.95.75 12-1.1 7-1.85 9.6-5.65 2.6-3.9-.7-7.7-3.1-3.75-12.5-5.9l1.75-2.15 2.2 1.2q4.65 2.6 9.1-.1-.2.95-.05 2.05l.3 1q1.9 1.25 3.6-.9l.2-1.25-.2-.9-.65-.65q-.55-.25-1-.35M4.35 68.75q-.45.4-.45 1.1 0 .65.45 1.05.4.45.95.45l1-.45.45-1.05q0-.7-.45-1.1-.45-.45-1-.45t-.95.45" fill="#8bd683" fill-rule="evenodd" transform="translate(1.3 1.65)"/><path d="M23.9 14.45q.45.1 1 .35l.65.65.2.9-.2 1.25q-1.7 2.15-3.6.9l-.3-1q-.15-1.1.05-2.05l1.75-1h.45M8.65 16.5q9.4 2.15 12.5 5.9 3.3 3.8.7 7.7-2.6 3.8-9.6 5.65-7.05 1.85-12 1.1l.6-3.15q1.1-4.8 2.95-9.15Q5 21.6 6.55 19.4l2.1-2.9m-7.5 45.25.8-1.2.95-.65 1 .35q2.3 3.7-.1 6.95H2.25l-.95-1.15V66l-.15-.95v-3.3m3.2 7q.4-.45.95-.45.55 0 1 .45.45.4.45 1.1L6.3 70.9l-1 .45q-.55 0-.95-.45-.45-.4-.45-1.05 0-.7.45-1.1" fill="#ceffc8" fill-rule="evenodd" transform="translate(1.3 1.65)"/><path d="m75.25 12.3-1.95-1.85q-4.25-3.6-9.25-5.65L60.9 3.7l-.35-.1-4.9-1.2-10.55-.75q-5 0-9.9 1.2l-2.8.65q-3.4.85-6.55 2.25-4.55 2.15-8.5 5.1l-.5.45-2.3 1.85Q13 14.45 11.7 16l-1.75 2.15-2.1 2.9Q6.3 23.25 5.1 26.2q-1.85 4.35-2.95 9.15l-.6 3.15q-.6 4.4.15 9 .55 3.85 1.95 7.35l-.55 2.7q-.65 2.9-.65 5.85v3.3l.15.95v.05l.4 2.35q1 4.35 4.05 8.05 4.2 4.9 10.3 7.05l3.45 1.3 3.65 1 4.9.75q5.2.55 10.65-.1l1.4-.2 8.2-1.45 1.8-.55 1.75-.5q5.7-1.45 11.15-4.15l4.3-2.5q2.85-1.85 5.35-4.25 4.6-4.35 7.6-10.1 2.75-5.15 4.05-10.55.9-3.5 1.25-7l.25-4.3q.25-6.45-1.5-12.65-.75-3.05-1.95-5.65-1.2-2.85-2.85-5.3-2.5-3.7-5.55-6.65z" fill="none" stroke="#23481e" stroke-linecap="round" stroke-linejoin="round" stroke-width=".5"/><path d="m21.65 61.75-.15-.3.15-.55q.7-.75 1.35-.75h.25q-.75 1.7-1.6 1.6.85.1 1.6-1.6.55.1.55.85v.35q-.1 1.15-1.2 1.15-.9 0-.95-.75m1.05-2.8q-1.4 0-1.05-2.05.65-2 5.75-1 2.5.75 2.5 3.05 0 1.5-1.65 1.5l-.65-.1-1.1-.65q-.95-1-1.75-1l-1.85.25h-.2m3.7 10.4 1 .35-.25.65q-2.5 0-3.6-1l-1.25.25q-2.3 0-2.5-2.4l1.2.65.7.1h.35q1.2 0 2.4-1.4.45 2.2 1.95 2.8m.1-8.55q.55 0 .9.3.3.25.3 1l-.1.85-1.1-2.15 1.1 2.15q-.2.55-.75.55-1.3 0-1.2-1.75.3-.95.85-.95" fill="#519a4b" fill-rule="evenodd" transform="translate(1.3 1.65)"/><path d="M21.65 61.75q.85.1 1.6-1.6m3.25.65 1.1 2.15q.45.55 1 .65" fill="none" stroke="#23481e" stroke-linecap="round" stroke-linejoin="round" transform="translate(1.3 1.65)"/><path d="M27.7 71q-1.5-.6-1.95-2.8-1.2 1.4-2.4 1.4H23l-.7-.1-1.2-.65M27.7 71l1.55.35q1.7 0 2.8-1.4" fill="none" stroke="#23481e" stroke-linecap="round" stroke-linejoin="round" stroke-width="2"/><path d="M9 17.5h-.4l.65.2-1.45 1.85-.4.55-1.2 1.65q-.35-1.2-.35-.7-.75-1.3-.75-3.9 0-4.55 1.85-7.95l-.2 1.55v.85q0 2.5 2.25 5.9m-.25-8.3.55.55.35 1q-.2 1.4-1.3 1.4H7.9q-.75-.2-.75-1.2l.1-.75q.25-.65 1-1h.5" fill="#cfffc9" fill-rule="evenodd" transform="translate(1.3 1.65)"/><path d="m62.55 9.35 1.7-1.5h.4l-.3.55-.15 1.05-.55 1.85q-1.2 2.4-3.85 6l-4-2.95 1.5-.8.35.6q.6.55 1.4.55.75 0 1.3-.55.6-.55.6-1.35 0-.75-.6-1.35l.05-.05.2-.2.25-.25-.25.3.25.35q.5.45 1.05.45t1-.45l.45-.95q0-.6-.45-1.05l-.35-.25M60.4 11.4l.1-.1.1-.05-.1.05-.1.1m-44.65 5.45h-.2l-1.2.1-4.55.35-.8.2q-2.25-3.4-2.25-5.9v-.85l.2-1.55.3 1-.1.75q0 1 .75 1.2.75 2.2 1.35 2.85 1.15 1.5 4.75 1.75l1.75.1" fill="#8bd683" fill-rule="evenodd" transform="translate(1.3 1.65)"/><path d="m64.65 7.85.25.05v2.95q0 1.95-1.4 5.45-.95 1.95-1.95 2.75L59.8 17.3q2.65-3.6 3.85-6l.55-1.85.15-1.05.3-.55m-.6 14-.25.2-.1-.2h.35m-.4-10.55.05-.1-.05.1m-45.7 1.55-.2.45.05.15v.45q0 1.3-.95 1.95v.1q-.55.35.3.9h-1.4l-1.75-.1Q10.4 16.5 9.25 15q-.6-.65-1.35-2.85h.45q1.1 0 1.3-1.4.65 1.75 2.3 2.15 2.35.25 6-.05m-11-3.65v-.1l.1-.05V9q.45-.55 1.05-.75l.65.95h-.5q-.75.35-1 1l-.3-1 .1-.15-.1.15m59.4 7.3-.25 1.1.25-1.4v.3" fill="#519a4b" fill-rule="evenodd" transform="translate(1.3 1.65)"/><path d="M64.9 7.9q2.2.65 2.2 5.9 0 2.75-1.5 5.65h-.05l-.75 1.5-.45.8-.1.1h-.55l-2.15-2.8q1-.8 1.95-2.75 1.4-3.5 1.4-5.45V7.9M7.05 9l.5-.85q1.05-1.2 2.55-1.2 1.4 0 3.25 2.05l.3.3.35.35q1.65 1.4 4.5 2.2-.35 1.4-.55 1-3.65.3-6 .05-1.65-.4-2.3-2.15l-.35-1-.55-.55-.65-.95q-.6.2-1.05.75m59.3 7.5v-.3l-.25 1.4.25-1.1" fill="#397b34" fill-rule="evenodd" transform="translate(1.3 1.65)"/><path d="m60.85 10.95.6-.45.45-.45.65-.7.35.25q.45.45.45 1.05l-.45.95q-.45.45-1 .45t-1.05-.45l-.25-.35.25-.3m-3.55 2.6 3.05-2.1q.6.6.6 1.35 0 .8-.6 1.35-.55.55-1.3.55-.8 0-1.4-.55l-.35-.6" fill="#ceffc8" fill-rule="evenodd" transform="translate(1.3 1.65)"/><path d="m62.15 12.6.6-.45.45-.45.65-.7 1.7-1.5h.4l.25.05q2.2.65 2.2 5.9 0 2.75-1.5 5.65v.05l-.8 1.45-.45.8M57.1 16l1.5-.8 3.05-2.1.05-.05.1-.1.1-.05.25-.3m-53.8-1.95.5-.85Q9.9 8.6 11.4 8.6q1.4 0 3.25 2.05l.3.3.35.35q1.65 1.4 4.5 2.2M7.15 22.7q-.75-1.3-.75-3.9 0-4.55 1.85-7.95l.1-.15v-.05" fill="none" stroke="#23481e" stroke-linecap="round" stroke-linejoin="round" stroke-width="1.2"/></g><g id="k" fill-rule="evenodd"><path d="m16.2 41.75 1.55 1.45 4.75 4.75-1.4.35-.85-.35q.95 1.75.75 6v.45q-.2 4.55-2.6 5.65-2.5.95-4.45.55-2-.45-3.7-2.2-1.75-1.85-2.85-4.25v-.1Q6.55 52 6.1 49.6q-.35-2.05-.35-4.35 0-.35.15-.75-1.65-.45-2.3-2.3 1.75 0 4-1.3 2.4-1.2 4.05-1.2 2.15 0 4.55 2.05M7.05 44.9q-.75 4.25 1.2 8.85 2 4.55 6.55 5 5.1-.45 5.2-4.8 0-4.35-1.85-8.15-1.95-3.9-6.2-4.6-4.2-.65-4.9 3.7" fill="#0a4541" transform="translate(-3.3 -26)"/><path d="m16 51.35-.35-.25q-.3-.2-.3-.5 0-1.1.65-1.1.75 0 .75.85 0 .75-.75 1M9.55 46.1l.55-.1q1.55 0 2.1 1l.2 1.3q0 1.5-1 1.95l-.95.1-.75-.1q-.65-.2-.9-.65l-.2-.45-.2-1.05q0-1.75 1.15-2" fill="#fff" transform="translate(-3.3 -26)"/><path d="M16 51.35q.75-.25.75-1 0-.85-.75-.85-.65 0-.65 1.1 0 .3.3.5l.35.25M12.2 47q-.55-1-2.1-1l-.55.1q.7-1.95 3.6-1.4 4.05 1.65 4.25 6.2.25 4.55-2.5 4.7-2.7 0-4-2.2-.9-1.4-1.2-3.15l.75.1.95-.1q.45 2.3 2.3 2.3 1.85 0 1.55-3.05-.45-2.6-2.5-2.6l-.55.1" fill="#521649" transform="translate(-3.3 -26)"/><path d="M18.8 52q-.4-5.1-3.15-7.75-1.85-2.05-3.55-2.15-1.85-.2-3.05.55-1.2.75-1.2 4.1 0 3.3 1.4 6.65 1.75 3.8 5.55 3.8t4-5.2M7.05 44.9q.7-4.35 4.9-3.7 4.25.7 6.2 4.6Q20 49.6 20 53.95q-.1 4.35-5.2 4.8-4.55-.45-6.55-5-1.95-4.6-1.2-8.85" fill="#4f0b46" transform="translate(-3.3 -26)"/><path d="M18.8 52q-.2 5.2-4 5.2t-5.55-3.8q-1.4-3.35-1.4-6.65 0-3.35 1.2-4.1 1.2-.75 3.05-.55 1.7.1 3.55 2.15Q18.4 46.9 18.8 52m-9.25-5.9q-1.15.25-1.15 2l.2 1.05.2.45q.25.45.9.65.3 1.75 1.2 3.15 1.3 2.2 4 2.2 2.75-.15 2.5-4.7-.2-4.55-4.25-6.2-2.9-.55-3.6 1.4" fill="#784973" transform="translate(-3.3 -26)"/><path d="M11.4 50.25q1-.45 1-1.95l-.2-1.3.55-.1q2.05 0 2.5 2.6.3 3.05-1.55 3.05t-2.3-2.3" fill="#021d18" transform="translate(-3.3 -26)"/><path d="M46.8 45.55q-3.25 1.55-3.6 3.9-1 5.25-1 7.65-.1 2.4 1.35 3.7 1.3 1.3 11.4-.45 7.2-1.85 7.75-9.35l.3-4.55q0-3.2-3.35-3.2l-1.35.15q-7.7.4-11.5 2.15m19.05-4.45q-.25 2.05-1.3 2.7.75 6.65-.35 10.9-1.1 4.15-3.6 5.3-7.5 3.4-13.6 3.4-6.5 0-6.5-6.95 0-4.25 1.3-8.4l-1.45.35q-1.85 0-2.35-1.2l2.9-.45q2-.65 3.7-2.05 1.45-1.2 3.05-2.1 1.2-.65 2.5-1.05l3.95-.9 3.9-.4q2.3 0 4 .85 2.1 1.2 3.85 0" fill="#0d4542" transform="translate(-3.3 -26)"/><path d="M46.8 45.55q-3.05 4.6-3.15 9.15-.25 4.35 2.7 4.45 2.4.1 9.05-1.4 5.65-1.75 5.65-8.95 0-3.7-1.75-5.1l-1-.3 1.35-.15q3.35 0 3.35 3.2L62.7 51q-.55 7.5-7.75 9.35-10.1 1.75-11.4.45-1.45-1.3-1.35-3.7 0-2.4 1-7.65.35-2.35 3.6-3.9" fill="#4e0a45" transform="translate(-3.3 -26)"/><path d="m58.3 43.4 1 .3q1.75 1.4 1.75 5.1 0 7.2-5.65 8.95-6.65 1.5-9.05 1.4-2.95-.1-2.7-4.45.1-4.55 3.15-9.15 3.8-1.75 11.5-2.15M48 47.95q-.55.2-.75 1-1.35 1.95-1.2 3.8 0 2.05 1.6 3.25 1.55 1.1 3.95 1.1 2.25-.1 4.85-3.15 2.65-3.05.8-6-1.85-3.05-4.7-2.6-2.8.4-4.55 2.6" fill="#784870" transform="translate(-3.3 -26)"/><path d="M50.4 48.8q-.55-.95-2-.95l-.4.1q1.75-2.2 4.55-2.6 2.85-.45 4.7 2.6 1.85 2.95-.8 6-2.6 3.05-4.85 3.15-2.4 0-3.95-1.1-1.6-1.2-1.6-3.25-.15-1.85 1.2-3.8-.15.4-.15.95 0 2.3 2.1 2.3.2 1.5 2.5 1.6 2.25 0 3.15-1.6h.1q.85 0 .85-1.2 0-.75-.65-.85-.3-1.1-2.05-1.85-1.5-.15-2.7.5" fill="#53174a" transform="translate(-3.3 -26)"/><path d="M49.2 52.2q1.6 0 1.6-1.65 0-1.1-.4-1.75 1.2-.65 2.7-.5 1.75.75 2.05 1.85h-.3q-.55 0-1.1.75v.3q0 .9 1.1 1-.9 1.6-3.15 1.6-2.3-.1-2.5-1.6" fill="#011c17" transform="translate(-3.3 -26)"/><path d="m48 47.95.4-.1q1.45 0 2 .95.4.65.4 1.75 0 1.65-1.6 1.65-2.1 0-2.1-2.3 0-.55.15-.95.2-.8.75-1m7.15 2.2q.65.1.65.85 0 1.2-.85 1.2h-.1q-1.1-.1-1.1-1v-.3q.55-.75 1.1-.75h.3" fill="#fafff9" transform="translate(-3.3 -26)"/><path d="M16.05 31.85q-1.2.15-1.65.9-1-1.2-1.4-1.3.55-1 2.05-1 .65 0 1 1.4m3.55-2.8q2.3.3 2.3 3.6 0 3.05-2.8 3.25h-.15q-.2 1.65-1.85 1.65-2.4 0-2.4-2.75 0-.85.25-1.1l.1-.1q.35-.85 1.3-.85 1.3 0 1.3 1.3l-.1.85q-.65.25-.75-.4l-.1-.55q-.55-.1-.55.55l.4.85 1 .35q.85 0 .85-1.55 0-1.85-1.7-2.05v-.35q0-2.05-2-2.05-1.95-.1-2.5 1.65-1.5.3-1.5 1.5 0 .75.3 1.1l.15.1q1.05.35.65-.75l-.45-.35q0-.95 1.1-.95.95 0 1.3 1.4l.1 1.2q0 2.6-2.3 2.6-1.6 0-1.6-1.65l.1-.5q-2.05-.9-1.95-3.6.1-2.95 2.8-2.95 1.55-1.75 2.85-1.75 1.1 0 1.65 1 .75-.45 1.7-.45 1.75 0 2.1 1.75h.4m-12.05 2.3q0 1.7.45 2.8l.2.45q-.35 1.3-1.2 1.3-2.05 0-1.95-2.05h-.1q-1 0-1-1.1.55-1 .55-1.95 0-1.1-.75-1.1l-.35.1-.1-.85Q3.3 26 4.8 26q.8 0 1.45 1.4.55 1.2 1.75 1.1-.45 1.3-.45 2.85m6.4 7.6q-1.5 0-1.6-1.1 1.3 0 1.6-1.3.25 1.3 1.45 1.65-.8.75-1.45.75m50.1-5.75q-2.05-1.85-2.6-1.85-.55 0-.55.95 0 .75.45 2.05 0 1.55-1 1.55l-.55-.1q-.3 2.15-2.05 2.15-2.05 0-2.4-1.85 1.2-1.5 1.2-3.35 0-1.65-.55-2.95l.85.1q1.35 0 2-1.6.75-1.65 1.85-1.65 1.85 0 2.4 2.85.4 2.6.95 3.7M52.3 29.35h.45q3.15 1.1 3.15 4.05 0 1.3-1.4 2.5l-1.45.85-.3 1q-.25.95-2.4.95-2.3 0-2.4-2.7-.2-2.7 1.95-2.7 1 0 1.3.75v.55q-.65 0-.65.55t.55.3h.25l.5-.1q.35-.3.35-1.1 0-1.6-2.2-1.85-.85-2.05-3.25-2.05-2.5 0-2.8 2.6-1.65.55-1.65 1.85 0 1.75.95 1.85 1.35-.2 1.35-.95l-.15-.35-1.2.75q-.4-.2-.4-.75 0-1.75 1.95-1.75 2.4 0 2.4 2.85 0 2.6-3.15 2.6-2.85 0-3.3-2.5l-.75.1q-2.6 0-2.6-3.45 0-2.95 2.2-3.85H41q.55-2.05 3.45-2.05.8 0 2.1.85.75-.95 3.05-.85 1.85 0 2.7 2.05M45.9 39.6q1.6-.65 1.6-1.85.45 1.1 1.85 1.5-.4 1.1-1.85 1.1-1.2 0-1.6-.75m-.55-6.95-.55.1q.2-1.55 2.05-1.55 1.85 0 2.3 1.45-1.5.3-1.85 1.5-.55-1.5-1.95-1.5" fill="#3b3734" transform="translate(-3.3 -26)"/></g><path d="M85.85 21.2q-14.7 3.65-35.5 3.65-20.9 0-35.65-3.65Q0 17.6 0 12.45t14.7-8.8Q29.45 0 50.35 0q20.8 0 35.5 3.65 14.75 3.65 14.75 8.8T85.85 21.2" fill-opacity=".353" fill-rule="evenodd" id="b"/><path d="M80 0v80H0V0h80" fill="#dcd550" fill-opacity="0" fill-rule="evenodd" id="l"/></defs></svg>