<svg xmlns:ffdec="https://www.free-decompiler.com/flash" xmlns:xlink="http://www.w3.org/1999/xlink" ffdec:objectType="frame" height="90" width="90" xmlns="http://www.w3.org/2000/svg"><use ffdec:characterId="26" height="91.15" transform="translate(-1.45 -.7)" width="91.45" xlink:href="#a"/><defs><g id="a" transform="translate(1.45 .7)"><use ffdec:characterId="4" height="90" width="90" xlink:href="#b"/><use ffdec:characterId="25" height="131.4" transform="matrix(.6935 0 0 .6936 -1.463 -.694)" width="129" xlink:href="#c"/></g><g id="c" transform="translate(7.95 1)"><use ffdec:characterId="5" height="24.7" transform="translate(12.6 105.05)" width="89.1" xlink:href="#d"/><use ffdec:characterId="6" height="47.85" transform="translate(58.75 53)" width="60.3" xlink:href="#e"/><use ffdec:characterId="7" height="28.35" transform="translate(47.55 80.35)" width="19.4" xlink:href="#f"/><use ffdec:characterId="8" height="37.4" transform="translate(21 77.75)" width="17.9" xlink:href="#g"/><use ffdec:characterId="9" height="62.95" transform="translate(15.8 35)" width="76.4" xlink:href="#h"/><use ffdec:characterId="10" height="38.45" transform="translate(66.3 76.85)" width="23.55" xlink:href="#i"/><use ffdec:characterId="11" height="33.7" transform="translate(71.8 77.2)" width="21.7" xlink:href="#j"/><use ffdec:characterId="12" height="52.6" transform="translate(28.75 73.6)" width="33.45" xlink:href="#k"/><use ffdec:characterId="13" height="34.25" transform="translate(42.75 86.15)" width="21.95" xlink:href="#l"/><use ffdec:characterId="14" height="55.9" transform="translate(-.3 4.45)" width="58.65" xlink:href="#m"/><use ffdec:characterId="15" height="17.1" transform="translate(-.1 27.85)" width="31.7" xlink:href="#n"/><use ffdec:characterId="16" height="36.15" transform="translate(1.7 -1)" width="34.55" xlink:href="#o"/></g><g id="e"><path d="M19.35 5.05q5.45 4.6 7.9 13.05 2.25 7.7 8.15.25l-1.85 4.1q-5.5 2.55-11.85-5.2-2.8-4-6.75-4.55Q13.1 7.2 6.2 3.8q-.4-.75.25-1.05l1-.2 3.85.2q3.35.55 8.05 2.3m3.2 9.35q2.7 4 3 2.8-.6-4.75-5.95-9.55-2.65-.75 2.95 6.75m-7.3 23.95q4.45-13.4-1.15-21.8 13.15 9.5 1.15 21.8" fill="#a967e3" fill-rule="evenodd" transform="translate(23.9 1)"/><path d="M22.55 14.4q-5.6-7.5-2.95-6.75 5.35 4.8 5.95 9.55-.3 1.2-3-2.8" fill="#fcbcf8" fill-rule="evenodd" transform="translate(23.9 1)"/><path d="M19.35 5.05q-4.7-1.75-8.05-2.3l-3.85-.2-1 .2q-.65.3-.25 1.05 6.9 3.4 8.75 8.9 3.95.55 6.75 4.55 6.35 7.75 11.85 5.2-2.95 5.45-6.5 4.55-2.4 7.4-8.7 13.55-2.3 2.65 6.95 5.3-18.95-.7-15.25-15.4Q7 21.85.75 20.1q-6.3-1.8-11.25-1.4-5 .4-8.9-2.8-3.9-3.25-3.45-9.3 2-3.8 4.9-3.65 2.85.15 4.35 1.1 1.45.9 3.7 1.3 2.25.35 4.5-.05 1.95-.4 4.8-2.55l.8-.6Q3.55-.6 9.05.2q3.85.8 7 2.55l3.3 2.3M.9 7.95q6.05-.2 9.05 5.15-3-5.35-9.05-5.15m-.45-2.7Q6.9 3 10.35 7.9 6.9 3 .45 5.25m14.8 33.1q12-12.3-1.15-21.8 5.6 8.4 1.15 21.8m4.75-20q.95 6.4 7.05 8.65-6.1-2.25-7.05-8.65" fill="#7c45ba" fill-rule="evenodd" transform="translate(23.9 1)"/><path d="m57.45 23.45 1.85-4.1q-5.9 7.45-8.15-.25-2.45-8.45-7.9-13.05l-3.3-2.3Q36.8 2 32.95 1.2q-5.5-.8-8.85 1.95l-.8.6Q20.45 5.9 18.5 6.3q-2.25.4-4.5.05-2.25-.4-3.7-1.3-1.5-.95-4.35-1.1-2.9-.15-4.9 3.65-.45 6.05 3.45 9.3 3.9 3.2 8.9 2.8 4.95-.4 11.25 1.4 6.25 1.75 9.3 10.35-3.7 14.7 15.25 15.4-9.25-2.65-6.95-5.3 6.3-6.15 8.7-13.55 3.55.9 6.5-4.55" fill="none" stroke="#412769" stroke-linecap="round" stroke-linejoin="round" stroke-width="2"/><path d="M10.35 7.9Q6.9 3 .45 5.25m9.5 7.85Q6.95 7.75.9 7.95M27.05 27q-6.1-2.25-7.05-8.65" fill="none" stroke="#412769" stroke-linecap="round" stroke-linejoin="round" transform="translate(23.9 1)"/></g><g id="f"><path d="M9.85 25.9q7.85-1.85 7.55-6.55L16.45 4.8 0 0q6.9 13.8 4.9 17.45-4.55 5.1-3 7.1 2.65 2.65 7.95 1.35" fill="#3692a9" fill-rule="evenodd" transform="translate(1 1)"/><path d="M10.85 26.9q-5.3 1.3-7.95-1.35-1.55-2 3-7.1Q7.9 14.8 1 1l16.45 4.8.95 14.55q.3 4.7-7.55 6.55z" fill="none" stroke="#1d4f5a" stroke-linecap="round" stroke-linejoin="round" stroke-width="2"/></g><g id="g"><path d="m14.95 13.85.95 14.55q.3 4.7-7.55 6.55-5.3 1.3-7.95-1.35-1.55-2 3-7.1 1.1-2.05-.55-7.3L1.6 15.8Q.65 12.7.4 9.6-.05 4.9.9 0l14.9 6.75-.85 7.1M7.3 27.5q-3.2 1.85-2.55 3.65.95 2.5 5.4-.25 3.9-2.1 1.4-5.75Q9.1 21 8.9 13.15q-1.5-3-2.1 1.6-.55 7.2.5 12.75" fill="#3795ae" fill-rule="evenodd" transform="translate(1 1)"/><path d="M7.3 27.5q-1.05-5.55-.5-12.75.6-4.6 2.1-1.6.2 7.85 2.65 12 2.5 3.65-1.4 5.75-4.45 2.75-5.4.25-.65-1.8 2.55-3.65" fill="#67c2d7" fill-rule="evenodd" transform="translate(1 1)"/><path d="m15.95 14.85.95 14.55q.3 4.7-7.55 6.55-5.3 1.3-7.95-1.35-1.55-2 3-7.1 1.1-2.05-.55-7.3L2.6 16.8q-.95-3.1-1.2-6.2-.45-4.7.5-9.6l14.9 6.75-.85 7.1z" fill="none" stroke="#1d4f5a" stroke-linecap="round" stroke-linejoin="round" stroke-width="2"/></g><g id="h"><path d="M74.25 38.6q-8.4 7.55-20.15 11.25-21.35 7.8-39.75 3.55Q5.5 47.45 5.4 25.05l2.25-1.55q12.1.5 19.2-8.05-.55 4.05-2.2 7.65-2.85 10.2 4.85 12.75 5.3 2 10.25-.1 5.95-3.45 11.6-.1l.4.3q8 5.5 12.75 4.8 5.85-1.4 9.25-6.25Q66.7 19.2 55.7 20.25 36.3 20.4 36.7 0q6.9 15.3 15.65 14.95Q70.5 15.6 74.2 33l.1.7.1 2.2-.15 2.7" fill="#67c2d7" fill-rule="evenodd" transform="translate(1 1)"/><path d="M36.7 0q-.4 20.4 19 20.25 11-1.05 18.05 14.25-3.4 4.85-9.25 6.25-4.75.7-12.75-4.8l-.4-.3q-5.65-3.35-11.6.1-4.95 2.1-10.25.1-7.7-2.55-4.85-12.75 1.65-3.6 2.2-7.65-7.1 8.55-19.2 8.05L5.4 25.05q.1 22.4 8.95 28.35 18.4 4.25 39.75-3.55 11.75-3.7 20.15-11.25-.5 3.9-2.3 8.4-19.4 15.25-48.55 13.8-8.7-1.95-14.25-7.5-2.95-3.25-4.65-8.5l-.6-2.15q-1.6-6.1-1.65-14.55v-1.5l-.2-3.9Q1.6 17.9 0 14.5L36.7 0" fill="#3795ae" fill-rule="evenodd" transform="translate(1 1)"/><path d="m3.9 42.65.6 2.15-.6-.4q-.4-.35-.4-.85t.4-.9" fill="#93f3ff" fill-rule="evenodd" transform="translate(1 1)"/><path d="M37.7 1 1 15.5q1.6 3.4 2.05 8.2l.2 3.9v1.5q.05 8.45 1.65 14.55l.6 2.15q1.7 5.25 4.65 8.5 5.55 5.55 14.25 7.5Q53.55 63.25 72.95 48q1.8-4.5 2.3-8.4l.15-2.7-.1-2.2-.1-.7q-3.7-17.4-21.85-18.05Q44.6 16.3 37.7 1z" fill="none" stroke="#1d4f5a" stroke-linecap="round" stroke-linejoin="round" stroke-width="2"/></g><g id="i"><path d="M7.15 2 5.25.45Q2.2-.9.7 1.9-.8 4.65 1 7.25q.45 3.4 2.05 7.4 6.8-.2 6.85-6.55.35-3.15-2.75-6.1M.85 4.25l.15 3-.15-3m1 4.35q0-.75.5-1.3t1.15-.55q.7 0 1.15.55.5.55.5 1.3t-.5 1.3q-.45.55-1.15.55-.65 0-1.15-.55-.5-.55-.5-1.3" fill="#67c2d7" fill-rule="evenodd" transform="translate(.15)"/><path d="M7.15 2q3.1 2.95 2.75 6.1-.05 6.35-6.85 6.55 1.15 2.8 2.85 5.85 1.85 5.2-1.35 10.4-6.55 7.6 5.65 6.4 8.85-1.4 8.25-9.8 1.4-12.2 3.95-21.7Q18.95.2 7.15 2" fill="#3795ae" fill-rule="evenodd" transform="translate(.15)"/><path d="M1.85 8.6q0 .75.5 1.3t1.15.55q.7 0 1.15-.55.5-.55.5-1.3t-.5-1.3q-.45-.55-1.15-.55-.65 0-1.15.55-.5.55-.5 1.3" fill="#93f3ff" fill-rule="evenodd" transform="translate(.15)"/><path d="M3.2 14.65q-1.6-4-2.05-7.4l-.15-3m2.2 10.4q1.15 2.8 2.85 5.85Q7.9 25.7 4.7 30.9q-6.55 7.6 5.65 6.4 8.85-1.4 8.25-9.8Q20 15.3 22.55 5.8" fill="none" stroke="#1d4f5a" stroke-linecap="round" stroke-linejoin="round" stroke-width="2"/></g><g id="j"><path d="M19.6 4.75q-2.25 6.05-15.15 6.4-3.4 2.15-4.45 6.3 1.1.2 2.15 1.55 2.35 4.4.25 7-2.2 3.85.75 5.15 4.4 1.5 7.15-1.2 2.8-3.8.05-8.65 2.4-2.25 5.35-2 3.3.65 2.95-1.85-3.25-.6-6.5.8l1.15-2.05q1-.5 2.05-.85 2.65-2 2.35-3.35-1.25.75-4.1.7-2.55.65-5.4 3.35l.75-2.85q1.75-1.2 4.3-1.8 3.7-1.3 5.25-3.75.85-1.3 1.1-2.9M6.35 15.9q.95-1.6 2.6-2.7-1.65 1.1-2.6 2.7m-.6 9.8q.1-.55.35-.95.3-.55.75-.55t.8.55l.3 1.35v.25l-.3 1.1q-.35.55-.8.55-.45 0-.75-.55-.35-.55-.35-1.35v-.4.4q0 .8.35 1.35.3.55.75.55t.8-.55l.3-1.1q-1.4.5-2.2-.65M9 19.85q1.75-2.4 4.3-3.65-2.55 1.25-4.3 3.65" fill="#6145bc" fill-rule="evenodd" transform="translate(1 1)"/><path d="M19.6 4.75q.3-2.1-.35-4.75.6 5.5-12.75 10.1-1.1.45-2.05 1.05 12.9-.35 15.15-6.4m-.95 12.7q-.15-1.1-1.05-2.8 3.55-1.85.9-7-1.55 2.45-5.25 3.75-2.55.6-4.3 1.8l-.75 2.85q2.85-2.7 5.4-3.35 2.85.05 4.1-.7.3 1.35-2.35 3.35-1.05.35-2.05.85l-1.15 2.05q3.25-1.4 6.5-.8m-10.7 8.9v-.25l-.3-1.35q-.35-.55-.8-.55-.45 0-.75.55-.25.4-.35.95.8 1.15 2.2.65m9.65-11.7-2.25.7 2.25-.7" fill="#a8b1fe" fill-rule="evenodd" transform="translate(1 1)"/><path d="M18.5 7.65q-1.55 2.45-5.25 3.75-2.55.6-4.3 1.8-1.65 1.1-2.6 2.7m1.6 10.45v-.25l-.3-1.35q-.35-.55-.8-.55-.45 0-.75.55-.25.4-.35.95v.4q0 .8.35 1.35.3.55.75.55t.8-.55l.3-1.1M13.3 16.2q1-.5 2.05-.85l2.25-.7m-4.3 1.55q-2.55 1.25-4.3 3.65" fill="none" stroke="#412769" stroke-linecap="round" stroke-linejoin="round" transform="translate(1 1)"/><path d="M5.45 12.15q.95-.6 2.05-1.05Q20.85 6.5 20.25 1q.65 2.65.35 4.75-.25 1.6-1.1 2.9 2.65 5.15-.9 7 .9 1.7 1.05 2.8.35 2.5-2.95 1.85-2.95-.25-5.35 2 2.75 4.85-.05 8.65-2.75 2.7-7.15 1.2Q1.2 30.85 3.4 27q2.1-2.6-.25-7Q2.1 18.65 1 18.45q1.05-4.15 4.45-6.3z" fill="none" stroke="#412769" stroke-linecap="round" stroke-linejoin="round" stroke-width="2"/></g><g id="k"><path d="M1.85 8.7Q1 9.55 1 10.75q0 1.2.85 2 .8.85 2 .85t2.05-.85q.8-.8.8-2T5.9 8.7q-.85-.8-2.05-.8-1.2 0-2 .8M23.1 3.45q1.1 4.25.15 10.5-1.55 7.2-11.6 8.9-1.4 2.9 2.2 8 2.15 3.35.7 6.95-1.15-4.95-7.6-11.85Q.5 19 0 6.8 7.3-1.25 16.6.2q6.3 1.3 6.5 3.25" fill="#67c2d7" fill-rule="evenodd" transform="translate(1)"/><path d="m23.1 3.45 5.05 9.85q7 14.05-.75 24.7-1.75 2.8-.5 7.05 1.35 4.4-12.25 6.5-12.5.95-.5-10.9.75-1.15.45-2.65l-.05-.2q1.45-3.6-.7-6.95-3.6-5.1-2.2-8 10.05-1.7 11.6-8.9.95-6.25-.15-10.5" fill="#3795ae" fill-rule="evenodd" transform="translate(1)"/><path d="M1.85 8.7q.8-.8 2-.8t2.05.8q.8.85.8 2.05 0 1.2-.8 2-.85.85-2.05.85-1.2 0-2-.85-.85-.8-.85-2t.85-2.05" fill="#93f3ff" fill-rule="evenodd" transform="translate(1)"/><path d="m15.55 37.8.05.2q.3 1.5-.45 2.65-12 11.85.5 10.9 13.6-2.1 12.25-6.5-1.25-4.25.5-7.05 7.75-10.65.75-24.7M1 6.8Q1.5 19 7.95 25.95q6.45 6.9 7.6 11.85" fill="none" stroke="#1d4f5a" stroke-linecap="round" stroke-linejoin="round" stroke-width="2"/></g><g id="l"><path d="M19.3 1.95Q18.85.85 17.9 0q1.95 5.55-10.65 10.6l-.95.5q13.4-.4 13-9.15m-.8 15.55-1.05-2-1.45.6q-4.85 1.1-7.3 4.95 1.9-1.35 3.9-1.6 4.6-.7 5.9-1.95m1.05-6.8-.25-.55-1-1.5q-2.1 3.1-7.65 4.75-2.9 1.25-4.7 4 .7 1 3.15-1.15 9.75-4.2 10.45-5.55M7.9 27.2l.05-.4q0-.75-.35-1.3t-.85-.55q-.5 0-.85.55t-.35 1.3q.95 1.05 2.35.4" fill="#a4afff" fill-rule="evenodd" transform="translate(1 1)"/><path d="M19.3 1.95q.4 8.75-13 9.15-5.05 2.75-6.3 7.65 3 .15 3.2 6-.15 1.4-1 2.5-1 3.65 2.7 4.8 4.4.9 6.1-2.6 1.45-3.6-.75-7.15 1.35-1.8 4.9-1.85 4.5.3 3.35-2.95-1.3 1.25-5.9 1.95-2 .25-3.9 1.6 2.45-3.85 7.3-4.95l1.45-.6q3.45-1.75 2.1-4.8-.7 1.35-10.45 5.55-2.45 2.15-3.15 1.15 1.8-2.75 4.7-4 5.55-1.65 7.65-4.75 1.75-2.5 1.25-5.95l-.25-.75M7.9 27.2l-.3.9q-.35.55-.85.55t-.85-.55q-.35-.55-.35-1.3 0 .75.35 1.3t.85.55q.5 0 .85-.55l.3-.9q-1.4.65-2.35-.4 0-.75.35-1.3t.85-.55q.5 0 .85.55t.35 1.3l-.05.4" fill="#563b9a" fill-rule="evenodd" transform="translate(1 1)"/><path d="M5.55 26.8q0 .75.35 1.3t.85.55q.5 0 .85-.55l.3-.9.05-.4q0-.75-.35-1.3t-.85-.55q-.5 0-.85.55t-.35 1.3m11.9-11.3-1.45.6q-4.85 1.1-7.3 4.95m9.6-12.4q-2.1 3.1-7.65 4.75-2.9 1.25-4.7 4" fill="none" stroke="#412769" stroke-linecap="round" stroke-linejoin="round" transform="translate(1 1)"/><path d="m7.3 12.1.95-.5Q20.85 6.55 18.9 1q.95.85 1.4 1.95l.25.75q.5 3.45-1.25 5.95l1 1.5m-13 .95Q2.25 14.85 1 19.75q3 .15 3.2 6-.15 1.4-1 2.5-1 3.65 2.7 4.8 4.4.9 6.1-2.6 1.45-3.6-.75-7.15 1.35-1.8 4.9-1.85 4.5.3 3.35-2.95l-1.05-2q3.45-1.75 2.1-4.8" fill="none" stroke="#412769" stroke-linecap="round" stroke-linejoin="round" stroke-width="2"/></g><g id="m"><path d="M46.8 16.5q-1.9-.95-4.25-3.85l-.7 7.1L52.5 36.3q2.7-2.7 4.55-1.2l.15-.75q-2.85-.85-2.3-3.35l-2.8.15q2.2-2 2.8-4.6-5.35-.2-4.2-4.9 1.45-1.4 1.95-2.8-2.5 1-4.85 1.1-2.45.05-1-3.45" fill="#7c45bc" fill-rule="evenodd" transform="translate(.4 -4.45)"/><path d="M57.2 34.35q.4-3-2.3-3.35-.55 2.5 2.3 3.35m-2.3-7.8.25-2.9q-4.15 2.7-4.45-2-1.15 4.7 4.2 4.9m-2.25-7.7q.75-2.15-.7-4.35-2 3.5-5.15 2-1.45 3.5 1 3.45 2.35-.1 4.85-1.1" fill="#bb74f4" fill-rule="evenodd" transform="translate(.4 -4.45)"/><path d="M47.2 12.05q-1.9-.95-4.25-3.85l-.7 7.1L52.9 31.85q2.7-2.7 4.55-1.2l.15-.75q.4-3-2.3-3.35l-2.8.15q2.2-2 2.8-4.6l.25-2.9q-4.15 2.7-4.45-2 1.45-1.4 1.95-2.8.75-2.15-.7-4.35-2 3.5-5.15 2z" fill="none" stroke="#412769" stroke-linecap="round" stroke-linejoin="round" stroke-width="2"/><path d="m2.15 18.9 1.75 5.25 1.8-1.8 6.8-6.9 3.2-3.25Q9.9 5.35 5.55 6.05 1.25 7.9 2.15 18.9m3.55 3.45q-2.8-9.7.2-11.25 1.9-1.6 6.6 4.35Q7.8 9.5 5.9 11.1q-3 1.55-.2 11.25" fill="#7b44b9" fill-rule="evenodd" transform="translate(.4 -4.45)"/><path d="m5.55 6.05-1.3.4q-4.7 2.9-2.1 12.45-.9-11 3.4-12.85" fill="#366889" fill-rule="evenodd" transform="translate(.4 -4.45)"/><path d="m5.95 1.6-1.3.4q-4.7 2.9-2.1 12.45L4.3 19.7l1.8-1.8 6.8-6.9 3.2-3.25Q10.3.9 5.95 1.6" fill="none" stroke="#1d4f5a" stroke-linecap="round" stroke-linejoin="round" stroke-width="2"/><path d="M12.5 15.45Q7.8 9.5 5.9 11.1q-3 1.55-.2 11.25" fill="none" stroke="#1d4f5a" stroke-linecap="round" stroke-linejoin="round" transform="translate(.4 -4.45)"/><path d="M1.65 45.6q.65-3 .1-5.65l-.4-2q5.7 9.35 13 7.2 10.15-5.5 8.2-13.25-3.85.65-7.3-1.1 3.5-2 5-5.3Q35.3 19.45 42.5 39.2q-5.45 7.1-12 9.6-.75.4-1.45.5-1.7.35-3.05-.8-6.2 8.45-16.1 6.05-3.7-2.25-4.05-3.45.55-2.8-.9-2.9-.25-.1-.35 1.3l-.1.1q-.65.3-2.1-1.7l-.75-2.3m-1-16.5q.2-3.25 1.1-5.8 1.75 4.45 2.65 1.85 1.4 3.15 4.1 4.5 4.2.35 5.3 1.9.75-.35 1.45-.75l-1.75 2.65q-2-.05-3.65-2.35-5.5.7-9.2-2M28.7 44.05q-.35 0-.6.25-.3.3-.3.65 0 .35.3.6.25.3.6.3l.65-.3.25-.6-.25-.65-.65-.25M16.8 48.6q-.15-.15-.4-.15t-.4.15q-.15.15-.15.4l.15.4.4.15.4-.15.15-.4-.15-.4m-4.8 4q.8.75 1 .15.3-1.4.75-1.65.9-.95-.6-1.15-1.5-.35-1.15 2.65m-8.35-6.75q-.15.15-.15.4l.15.4.4.15.4-.15.15-.4-.15-.4q-.15-.15-.4-.15t-.4.15" fill="#67c2d7" fill-rule="evenodd" transform="translate(.4 -4.45)"/><path d="M15.25 30.8q3.45 1.75 7.3 1.1 1.95 7.75-8.2 13.25-7.3 2.15-13-7.2-.9-4.95-.7-8.85 3.7 2.7 9.2 2 1.65 2.3 3.65 2.35l1.75-2.65M28.7 44.05l.65.25.25.65-.25.6-.65.3q-.35 0-.6-.3-.3-.25-.3-.6t.3-.65q.25-.25.6-.25M16.8 48.6l.15.4-.15.4-.4.15-.4-.15-.15-.4q0-.25.15-.4.15-.15.4-.15t.4.15M3.65 45.85q.15-.15.4-.15t.4.15l.15.4-.15.4-.4.15-.4-.15-.15-.4q0-.25.15-.4" fill="#93f3ff" fill-rule="evenodd" transform="translate(.4 -4.45)"/><path d="m1.65 45.6.75 2.3q1.45 2 2.1 1.7l.1-.1q.1-1.4.35-1.3 1.45.1.9 2.9.35 1.2 4.05 3.45 9.9 2.4 16.1-6.05 1.35 1.15 3.05.8.7-.1 1.45-.5 6.55-2.5 12-9.6-7.2-19.75-22.25-13.7-1.5 3.3-5 5.3-.7.4-1.45.75-1.1-1.55-5.3-1.9-2.7-1.35-4.1-4.5-.9 2.6-2.65-1.85 1.3-3.55 4-5.8 18.6-11.9 31.65-3.7 5.75 5.1 10.85 11.7l.05.05Q51.05 30.1 53.9 37L42.5 47.35q-6.3 9.4-18.75 8.55-1.3 1.15-2.95 1.9-2.55 1.25-5.35 1.5l-5.6-.45q-2.6-.8-4.9-2.65-2.25-1.85-3.2-4.4-.9-2.85-.15-5.95l.05-.25m24.2 7.95-.5.65-1.6 1.7 1.6-1.7.5-.65" fill="#3795ae" fill-rule="evenodd" transform="translate(.4 -4.45)"/><path d="M37.4 13.8q6 3.7 10.85 11.7-5.1-6.6-10.85-11.7" fill="#b66fef" fill-rule="evenodd" transform="translate(.4 -4.45)"/><path d="M12 52.6q-.35-3 1.15-2.65 1.5.2.6 1.15-.45.25-.75 1.65-.2.6-1-.15" fill="#3b95ad" fill-rule="evenodd" transform="translate(.4 -4.45)"/><path d="m1.75 33.5.4 2q.55 2.65-.1 5.65L2 41.4q-.75 3.1.15 5.95.95 2.55 3.2 4.4 2.3 1.85 4.9 2.65l5.6.45q2.8-.25 5.35-1.5 1.65-.75 2.95-1.9l1.6-1.7.5-.65M1.75 33.5q-.9-4.95-.7-8.85.2-3.25 1.1-5.8 1.3-3.55 4-5.8 18.6-11.9 31.65-3.7 6 3.7 10.85 11.7l.05.05q2.75 4.55 5.6 11.45M42.9 42.9q-6.3 9.4-18.75 8.55" fill="none" stroke="#1d4f5a" stroke-linecap="round" stroke-linejoin="round" stroke-width="2"/><path d="M39.8 5.5q-5.3-.6-11.45 5.15 4.9 11.45 14.25 10.1 5.4-10.7.65-14.1l.3 1.85q0 1.6-.65 2.7-.7 1.15-1.65 1.15-.05-1.85-1.35-2.7l-.85-.05-.1-1.1q0-1.6.7-2.75l.15-.25m1.45 6.85q.05 2.75-2.55 7.75 2.6-5 2.55-7.75m-2.2-2.75q-1.3.35-3.15 3.15 1.85-2.8 3.15-3.15" fill="#3a91ac" fill-rule="evenodd" transform="translate(.4 -4.45)"/><path d="m43.25 6.65-.45-.35q-1.45-.65-3-.8l-.15.25q-.7 1.15-.7 2.75l.1 1.1.85.05q1.3.85 1.35 2.7.95 0 1.65-1.15.65-1.1.65-2.7l-.3-1.85" fill="#64c3d7" fill-rule="evenodd" transform="translate(.4 -4.45)"/><path d="m43.65 2.2-.45-.35q-1.45-.65-3-.8-5.3-.6-11.45 5.15M43 16.3q5.4-10.7.65-14.1" fill="none" stroke="#1d4f5a" stroke-linecap="round" stroke-linejoin="round" stroke-width="2"/><path d="M41.25 12.35q-.05-1.85-1.35-2.7l-.85-.05q-1.3.35-3.15 3.15m2.8 7.35q2.6-5 2.55-7.75" fill="none" stroke="#1d4f5a" stroke-linecap="round" stroke-linejoin="round" transform="translate(.4 -4.45)"/><path d="M12.5 52.85q-.4-.2-.15-1.6.05-.95 1.15-1.05-1.3-1-1.75 1.05-.2 1.6.75 1.6m-7.75-4.4q1.15-.4.95 1.4-.15 1.35-.5 1.35 1.1.25 1.15-1.8.15-2.2-1.6-.95" fill="#1d4f5a" fill-rule="evenodd" transform="translate(.4 -4.45)"/></g><g id="n"><path d="M28.5 30.8Q22.7 38.4 15.45 42l1 .9q2.5 1.9 6.05 1.45 3.6-.45 6.05-2.95Q31 38.95 31 35.8q-.05-3.1-2.5-5M.3 33.85l.1 1.35q.35 2.85 1.8 4.85 1.4 2 3.05 2t2.6-2l.55-1.85q-4.25-.45-8.1-4.35" fill="#8fadaf" fill-rule="evenodd" transform="translate(.2 -27.85)"/><path d="M28.5 30.8q-2.5-1.85-6.1-1.4-3.55.45-6 2.9-2.55 2.5-2.5 5.6 0 2.45 1.55 4.1 7.25-3.6 13.05-11.2M8.4 38.2q.2-1.35 0-3-.35-2.8-1.75-4.8-1.45-2.05-3.1-2.05-1.65 0-2.55 2.05-.7 1.5-.7 3.45 3.85 3.9 8.1 4.35" fill="#bdd0ce" fill-rule="evenodd" transform="translate(.2 -27.85)"/><path d="M15.45 42q-1.55-1.65-1.55-4.1-.05-3.1 2.5-5.6 2.45-2.45 6-2.9 3.6-.45 6.1 1.4 2.45 1.9 2.5 5 0 3.15-2.45 5.6-2.45 2.5-6.05 2.95-3.55.45-6.05-1.45l-1-.9M8.4 38.2q.2-1.35 0-3-.35-2.8-1.75-4.8-1.45-2.05-3.1-2.05-1.65 0-2.55 2.05-.7 1.5-.7 3.45l.1 1.35q.35 2.85 1.8 4.85 1.4 2 3.05 2t2.6-2l.55-1.85z" fill="none" stroke="#1d4f5a" stroke-linecap="round" stroke-linejoin="round" transform="translate(.2 -27.85)"/><path d="M17.3 35.45q.45-.35 1.05-.35.85 0 1.4.6.6.65.6 1.5t-.6 1.45q-.55.65-1.4.65l.35.4q1.45 1.45 3.5 1.45t3.55-1.45q1.4-1.5 1.4-3.6t-1.4-3.6Q24.25 31 22.2 31t-3.5 1.5q-1.2 1.25-1.4 2.95m3.4.8q0-.5.35-.85.3-.3.8-.3t.85.3l.3.85-.3.8q-.35.35-.85.35t-.8-.35q-.35-.3-.35-.8m-19.8-2 .1-.15q.25-.45.6-.45t.65.45l.25 1.15-.25 1.1-.65.5-.05.05.2.3q.8 1.25 1.95 1.25 1.2 0 2-1.25.8-1.2.8-2.95 0-1.75-.8-3-.8-1.2-2-1.2-1.15 0-1.95 1.2-.85 1.25-.85 3m2.75-1.2q.3 0 .55.3l.2.75-.2.75-.55.3-.5-.3q-.25-.3-.25-.75t.25-.75l.5-.3" fill="#0f0e48" fill-rule="evenodd" transform="translate(.2 -27.85)"/><path d="M17.3 35.45q.2-1.7 1.4-2.95 1.45-1.5 3.5-1.5t3.55 1.5q1.4 1.5 1.4 3.6t-1.4 3.6q-1.5 1.45-3.55 1.45t-3.5-1.45l-.35-.4q-.8 0-1.4-.65-.6-.6-.6-1.45t.6-1.5l.35-.25m9.75-3.9Q25 29.7 22.15 29.7q-2.85 0-4.8 1.85-2.05 1.85-2.05 4.5t2.05 4.5q1.95 1.85 4.8 1.85 2.85 0 4.9-1.85Q29 38.7 29 36.05t-1.95-4.5M3.45 28.8Q2 28.8 1 30.35q-1 1.6-1 3.85T1 38q1 1.6 2.45 1.6 1.45 0 2.45-1.6 1-1.55 1-3.8t-1-3.85q-1-1.55-2.45-1.55M.9 34.25q0-1.75.85-3 .8-1.2 1.95-1.2 1.2 0 2 1.2.8 1.25.8 3t-.8 2.95q-.8 1.25-2 1.25-1.15 0-1.95-1.25l-.2-.3-.05-.05q-.3-.05-.5-.5-.3-.45-.3-1.1l.2-.95v-.05" fill="#090d28" fill-rule="evenodd" transform="translate(.2 -27.85)"/><path d="M18.35 39.3q.85 0 1.4-.65.6-.6.6-1.45t-.6-1.5q-.55-.6-1.4-.6-.6 0-1.05.35l-.35.25q-.6.65-.6 1.5t.6 1.45q.6.65 1.4.65m2.35-3.05q0 .5.35.8.3.35.8.35t.85-.35l.3-.8-.3-.85q-.35-.3-.85-.3t-.8.3q-.35.35-.35.85m-19.1.6.65-.5.25-1.1-.25-1.15q-.3-.45-.65-.45-.35 0-.6.45l-.1.15v.05l-.2.95q0 .65.3 1.1.2.45.5.5h.1m2.05-3.8-.5.3q-.25.3-.25.75t.25.75l.5.3.55-.3.2-.75-.2-.75q-.25-.3-.55-.3" fill="#fff" fill-rule="evenodd" transform="translate(.2 -27.85)"/><path d="M27.25 3.7q-2.05-1.85-4.9-1.85-2.85 0-4.8 1.85-2.05 1.85-2.05 4.5t2.05 4.5q1.95 1.85 4.8 1.85 2.85 0 4.9-1.85 1.95-1.85 1.95-4.5t-1.95-4.5M3.65.95Q2.2.95 1.2 2.5q-1 1.6-1 3.85t1 3.8q1 1.6 2.45 1.6 1.45 0 2.45-1.6 1-1.55 1-3.8t-1-3.85Q5.1.95 3.65.95m.2 4.25-.5.3q-.25.3-.25.75t.25.75l.5.3.55-.3.2-.75-.2-.75q-.25-.3-.55-.3z" fill="none" stroke="#090d28" stroke-linecap="round" stroke-linejoin="round" stroke-width=".05"/></g><g id="o"><path d="M11.95 8.65q-4.35 2.3-4.8 5.45-3.65.4-4.55 6.75-.2 2.8 1.6 5.3 1.3-2.8 3.15-2.95-.65 4.3.95 6.65 1.4-2.05 3.95-3.65-.7 5.55 1.35 7.95.25-3.6 2.45-4.85 6.05-.8 4.05-6.65 6.8 1.9 5.25 4.95 3.6-2.15 2.65-9.25.6 3.3 3.65 2.7-.5-2.5 2.8-4.25 2.35-6.15-3.05-9l2.2-1.6q-1.4-2.05-4.35-2.7 2.9-1.9.95-3.1-10-1.8-15.45 4.15 5.3-2.8 11.35-2.6L24.25 3.1q4.15.95 4.85 3.05-1.15 1.1-1.5 2.15 4.3-.05 2.7 7.8-1.55-1.2-2.65-4.6-2.65 3.85-2.15 9.7-3.05-2.1-5.65-5.5-.5 10.6-5.4 10.6-1.2-3.6.2-9.2-2 4.15-5.25 5.95-.75-3.2.65-6.85-1.9 2.45-3.55 2.85 1.15-4.65 5.45-10.4m16 9.1.05.6-.05-.6m1.3-14.25-.8.45.8-.45M7.15 15.4v-1.3 1.3M31.4 7.8l-.45.3.45-.3" fill="#7c45ba" fill-rule="evenodd" transform="translate(-1.6 1)"/><path d="M14.75 4.55q-1.6 1.7-2.8 4.1-4.3 5.75-5.45 10.4 1.65-.4 3.55-2.85-1.4 3.65-.65 6.85 3.25-1.8 5.25-5.95-1.4 5.6-.2 9.2 4.9 0 5.4-10.6 2.6 3.4 5.65 5.5-.5-5.85 2.15-9.7 1.1 3.4 2.65 4.6 1.6-7.85-2.7-7.8.35-1.05 1.5-2.15-.7-2.1-4.85-3.05l1.85-1.15q-6.05-.2-11.35 2.6m.05 6q1.1-.4 1 .45-2.95 4.85-4.3 8.45-.7 1.15-.75-.8 1-4.75 4.05-8.1m2.15 5.6q.3-3.2 1.1-4.5.1 6.1-2.5 10.5 1.25-2.85 1.4-6" fill="#b972f2" fill-rule="evenodd" transform="translate(-1.6 1)"/><path d="M16.95 16.15q-.15 3.15-1.4 6 2.6-4.4 2.5-10.5-.8 1.3-1.1 4.5m-2.15-5.6q-3.05 3.35-4.05 8.1.05 1.95.75.8 1.35-3.6 4.3-8.45.1-.85-1-.45" fill="#e49ff8" fill-rule="evenodd" transform="translate(-1.6 1)"/><path d="M10.35 9.65Q6 11.95 5.55 15.1 1.9 15.5 1 21.85q-.2 2.8 1.6 5.3 1.3-2.8 3.15-2.95-.65 4.3.95 6.65 1.4-2.05 3.95-3.65-.7 5.55 1.35 7.95.25-3.6 2.45-4.85 6.05-.8 4.05-6.65 6.8 1.9 5.25 4.95 3.6-2.15 2.65-9.25.6 3.3 3.65 2.7-.5-2.5 2.8-4.25 2.35-6.15-3.05-9L32 7.2q-1.4-2.05-4.35-2.7 2.9-1.9.95-3.1-10-1.8-15.45 4.15-1.6 1.7-2.8 4.1" fill="none" stroke="#412769" stroke-linecap="round" stroke-linejoin="round" stroke-width="2"/><path d="m30.95 8.1.45-.3M7.15 14.1v1.3m21.3-11.45.8-.45M28 18.35l-.05-.6" fill="none" stroke="#412769" stroke-linecap="round" stroke-linejoin="round" transform="translate(-1.6 1)"/></g><use ffdec:characterId="3" height="90" width="90" xlink:href="#p" id="b"/><use ffdec:characterId="2" height="94.35" transform="scale(.9539)" width="94.35" xlink:href="#q" id="p"/><use ffdec:characterId="1" height="94.35" width="94.35" xlink:href="#r" id="q"/><path d="M94.35 94.35H0V0h94.35v94.35" fill-opacity="0" fill-rule="evenodd" id="r"/><path d="M44.55 24.7q18.45 0 31.5-3.6 13.05-3.65 13.05-8.75T76.05 3.6Q63 0 44.55 0q-18.5 0-31.5 3.6Q0 7.25 0 12.35t13.05 8.75q13 3.6 31.5 3.6" fill-opacity=".349" fill-rule="evenodd" id="d"/></defs></svg>