<svg xmlns:ffdec="https://www.free-decompiler.com/flash" xmlns:xlink="http://www.w3.org/1999/xlink" ffdec:objectType="frame" height="90" width="90" xmlns="http://www.w3.org/2000/svg"><use ffdec:characterId="16" height="87" transform="matrix(1.0004 0 0 1 6.103 2)" width="81.45" xlink:href="#a"/><defs><g id="a" transform="translate(-6.1 -2)"><use ffdec:characterId="1" height="8.2" transform="matrix(1.2116 0 0 2.2827 10.378 69.674)" width="54.05" xlink:href="#b"/><use ffdec:characterId="3" height="48.15" transform="translate(60.45 61.55) scale(.2522)" width="85.8" xlink:href="#c"/><use ffdec:characterId="11" height="300.15" transform="translate(7 2) scale(.2522)" width="314.15" xlink:href="#d"/><use ffdec:characterId="13" height="56.9" transform="translate(14.55 68.4) scale(.2522)" width="85.85" xlink:href="#e"/><use ffdec:characterId="15" height="56.35" transform="translate(47.7 67.05) scale(.2522)" width="95.65" xlink:href="#f"/></g><g id="j" fill-rule="evenodd"><path d="m50.8 6.75 3.7-2.1-2.7 2.4-.05.05L85.8 20.15q-8.55 21-41.95 27.1l-.5-.6-3 .85-1.35.45-9.3-.25q-3.95-.8-7.5-2.45L17 42.6q-4.4-2.2-7.7-5.6-3.2-3.4-5.6-7.55L0 22.35l.15-.25q7.3-11.2 18.6-18.85 7.95-5.45 17.6-1.7l14.45 5.2m4 28.3q11.8-4.7 20-12.4-17.2-2.85-32.55-11.1l-.1.05-.1.1 2.2 14.65-6.5 13.55q9.3-1.8 17.05-4.85" fill="#215d32"/><path d="m54.8 35.05 3.25-8.2-15.9-15.25.1-.05Q57.6 19.8 74.8 22.65q-8.2 7.7-20 12.4" fill="#c3eb99"/><path d="m42.15 11.6 15.9 15.25-3.25 8.2q-7.75 3.05-17.05 4.85l6.5-13.55-2.2-14.65.1-.1" fill="#74b478"/></g><g id="d"><use ffdec:characterId="5" height="300.15" width="314.15" xlink:href="#g"/><use ffdec:characterId="7" height="49.65" transform="translate(141.8 89.95)" width="72.55" xlink:href="#h"/><use ffdec:characterId="9" height="36.6" transform="translate(63.3 101.5)" width="34.65" xlink:href="#i"/></g><g id="k" fill-rule="evenodd"><path d="M276.6 115.6q-5.2-10.5-7.2-25.05l-.55-2.45q-11-48.35-36.5-54.65l4.2 9.1 1.8 3.9-4.35-5.9q-34.9-44.9-81.75-28.65l3.15 3.1q7.55 7.85 10.5 14.15l.5 1.05q1.25 3.05 1.35 5.75-3.4-7-9.1-12.65-5.05-5-11.9-8.9Q90.8-5.8 62.1 47.45 45.45 64.6 54.2 83l2.3 4.2H44.95Q33.8 63.85 57.1 40.45q25.1-50.9 89.65-34.3 52.4-18.85 85.1 20.25 34.05 2.9 53.6 81.2 4.35 22.45 28.55 25 2.2 32.15-28.75 46.7l-.7-.7-8.05-8.35q20.2-4.2 26.8-21.95 1.4-3.8 2.2-8.2-12.45-3.6-20.75-12.5-4.8-5.1-8.15-12" fill="#942426"/><path d="m268.85 88.1.55 2.45q2 14.55 7.2 25.05l-15.65-16.55q-.1-25.85-15.55-32.55-13.2 7.85-18.55-2.05-11.1-26.8-26.55-16-19.85 12.6-33.9-18.25l-.5-1.05q-2.95-6.3-10.5-14.15 4.4-1.05 8.9-1.55 4.85 15.55 36 20 15.25 1 14.55-6.9 9.5 5.75 19.15 14l4.35 5.9-1.8-3.9q19.65 14.95 32.3 45.55m15.9 39.5q8.3 8.9 20.75 12.5-.8 4.4-2.2 8.2-6.6 17.75-26.8 21.95-1.1-5.35-2.75-10.6 19.35.6 29.55-11.35-15.55-7.55-18.55-20.7m-138-113.2q6.85 3.9 11.9 8.9-20.2 65.45-90.05 35.2l5 11.5q-3.9 3.25-5 9.75l-11.55 2.6q-9.1-16.6 5.05-34.9L65.15 51Q70.9 40.1 78.4 32.3q4.7 11.15 19.8 13.65 30.55-3.3 30.55-33.35 8.55.1 18 1.8" fill="#e35154"/><path d="M54.2 83q-8.75-18.4 7.9-35.55Q90.8-5.8 146.75 14.4q-9.45-1.7-18-1.8l-7.05 12.35q-19.2 3.9-24.4-6.2Q86.75 23.6 78.4 32.3 70.9 40.1 65.15 51l-3.05-3.55q-14.15 18.3-5.05 34.9L54.2 83m101.2-68-3.15-3.1Q199.1-4.35 234 40.55q-9.65-8.25-19.15-14-4.85-2.95-9.6-5.25-17.2 7.7-18.05-6.4-11.55-2.65-22.9-1.45-4.5.5-8.9 1.55m96.65 99.2q.7 1.1.75 2.75-.05 1.6-.75 2.75t-1.75 1.15q-1.05 0-1.75-1.15t-.7-2.75q0-1.65.7-2.75.7-1.15 1.75-1.15t1.75 1.15m-219 8.75-1.25.15q-1.55 0-2.65-.85-1.1-.8-1.1-1.95t1.1-2q1.1-.8 2.65-.8 1.55 0 2.65.8.75.55 1 1.25l-2.4 3.4" fill="#f2eca4"/><path d="m236.55 42.55-4.2-9.1q25.5 6.3 36.5 54.65-12.65-30.6-32.3-45.55m-72.25-29.1q11.35-1.2 22.9 1.45.85 14.1 18.05 6.4 4.75 2.3 9.6 5.25.7 7.9-14.55 6.9-31.15-4.45-36-20M78.4 32.3q8.35-8.7 18.9-13.55 5.2 10.1 24.4 6.2l7.05-12.35q0 30.05-30.55 33.35-15.1-2.5-19.8-13.65" fill="#f79e7a"/><path d="M276.6 115.6q3.35 6.9 8.15 12 3 13.15 18.55 20.7-10.2 11.95-29.55 11.35-3.25-10.1-8.6-19.9 10.6-7.75 5.3-22.2-11.7-27.85-36.9-22.6-4.35-5.75-12.2-9.4L228.9 78Q215 65.6 194.85 59.5 142.6 48.15 119.7 98.05 119 78.1 96.15 68.5 80.5 64.15 73.6 70l-5-11.5q69.85 30.25 90.05-35.2 5.7 5.65 9.1 12.65-.1-2.7-1.35-5.75 14.05 30.85 33.9 18.25 15.45-10.8 26.55 16 5.35 9.9 18.55 2.05 15.45 6.7 15.55 32.55l15.65 16.55M56.5 87.2 54.2 83l2.85-.65 11.55-2.6q-.6 3.3-.45 7.45H56.5" fill="#aa3436"/><path d="M162 78.15q10.1-12.35 28-17.75 3.85 2.3 8.85 4.1L183.3 69l11.5 4q-18 4.7-32.65 17.7 1.4-2.2 1.65-5.15l-.1-3.3q-.35-2.5-1.7-4.1m-91.05.6 17.8 2.7q-.85.6-1.6 1.55-1.55 2.2-1.65 4.4l-14.95-4.95q-.1-1.95.4-3.7m34.75 28.9q1.85 11.2 10.8 17.2h12.75l17.25-23 5.7.1q-8.25 9-10.3 24.95l-4.15-.3 4.05 1.15h.05l8.45 2.35q10.3 13.5 29 7.85 10.8-2.3 17.6-8.75.1 7.15 6.45 11.55l-2-.15 2.5 18.05-60.3-22.7q-13.95-11.65-32.35-6.35-4.9 2.15-9.15 4.85Q57 161.3 52.35 147.6l-3.25-12q-.35 3.55-.2 7-8.8-3.7-17.55-.75 13.2-19.15 28.6-29.85-1.05 22.4 15.7 26.1 5.25-.75 9.4-3.3Q55.6 137.1 66 108.2l-.1-.05 2.3-4.7-1.05.55-23.25 1.4q1-3.75 2.8-6.6 21.05.05 40.55-4.8 2.5 11.8 18.45 13.65m96.45 15Q207 114.5 208 102.4q3.25 2.65 6.35 6.15Q210 95.8 197 91.75q14.2-2.65 28.45.25 4.65 4.45 8.2 10-14.2-1-22.8 13.1 12.7 7.9 19.55 27.55l-21.8-1.5q11.4-.25 12.55-8.8-6.35-14.65-19-9.7m-45.85 55.1 10 6.4v-13.5q34.4 12.1 31.55 38.8-5.6 11.2-27.8-2.75l-12.95-6.35-2.4-3.05q9.3 1.45 1.6-19.55m97.85 69.95-.1.05-.15-.15v-.05l.25.15M241.1 218q1 17.1-13 8-17.8-27-4.75-41.85 11.7 2.8 20.75-1.2 25.55 21.9 8.8 50.3-9.35 10.85-11.8-15.25l-.25-12.05q-2.05-19.35-12.25-15.05-11.8 4.05-1.5 24.3 7 16.1 14 2.8m-211-74.35 2.8-.75q-9.85 15.55 0 25.25 2.8 2.6 5.45 4.1-12.2 18.4-15.5 43.75-8.6-8.7-8.45-26.95 1.25-11.3 6.25-23.1 1.5-3.65 3.4-7.35l-15-.5 21.05-14.45m52.15 84.95-12.4-15.4L62.1 227q-21.3-18.8-11.25-47.3l3.55 11.7q13.25-17.7 28.55-22l-2.75 10.5 21.2-13.7-21.25 30.25-6.75-17.3q-15.6 2.5-3.5 28.55 5.2 7.95 12.75-6.25l.15 16.9q-.6 3.75-.6 7.75l.05 2.5m107.8-20.4q-.2-21.9-15.55-25.55-13.5.75-6.75 15.55 15.05 19.65 22.3 10" fill="#c3eb99"/><path d="M190 60.4q-17.9 5.4-28 17.75-3-3.55-10.75-2.6-13 2.8-11.75 15 .5 1.35 1.4 2.35 2.05 2.25 6.15 2.75l-2.55 6.15 2 .05-17.25 23H116.5q-8.95-6-10.8-17.2-.4-2.3-.55-5.25l3.05-.85-5.85-1.5 1.8-.5q5.35-4.8-1.5-14.3-8.4-8.25-13.9-3.8l-17.8-2.7q1.8-6.4 12.2-9.75 32.95 4.3 35.55 37.05 7.65-20.15 26.55-36.55 20.3-12.85 44.75-9.1m12.15 62.25q12.65-4.95 19 9.7-1.15 8.55-12.55 8.8l-5.25-.4q-6.35-4.4-6.45-11.55 3-2.85 5.25-6.55m-45.85 55.1q7.7 21-1.6 19.55l-1.75-1.95q-12.15-12.7-29.3-12.7-7.9 0-14.75 2.7-8 3.15-14.55 10-9.45 9.9-11.55 23l-.15-16.9q-7.55 14.2-12.75 6.25-12.1-26.05 3.5-28.55l6.75 17.3 21.25-30.25 9.2 5.2q4.45 2.25 9.6 4.25l3.3-1.1 7.25 4.1 8.7-11.65.05-.05h.05l16.75 10.8M241.1 218q-7 13.3-14-2.8-10.3-20.25 1.5-24.3 10.2-4.3 12.25 15.05l.25 12.05M85.5 87.4q-.2 2.55 1.5 5.1v.05l.25 1.45q-19.5 4.85-40.55 4.8 6.95-11.15 25.95-9.3-1.9-3.85-2.1-7.05L85.5 87.4m104.55 120.8q-7.25 9.65-22.3-10-6.75-14.8 6.75-15.55 15.35 3.65 15.55 25.55" fill="#ddffc1"/><path d="M162.15 90.7q14.65-13 32.65-17.7l-11.5-4 15.55-4.5q12.35 4.4 25.5 13.5-9.2 6.35-21.5 8h15q4.1 2.7 7.6 6-14.25-2.9-28.45-.25 13 4.05 17.35 16.8-3.1-3.5-6.35-6.15-1 12.1-5.85 20.25-2.25 3.7-5.25 6.55-6.8 6.45-17.6 8.75-18.7 5.65-29-7.85l-8.45-2.35h-.05l-4.05-1.15 4.15.3q2.05-15.95 10.3-24.95l-5.7-.1-2-.05 2.55-6.15 7.95-.35q2.9-.8 4.85-2.25l2-1.95.3-.4m71.5 11.3q-8.8 5.9-7.7 13.8l-3.05-3.75q13.55 22.65 13.5 38.6l-27.15 2.1-.45-6.1-3 23.5q-26.15-14.6-47.55-15.05-6.6-12.4-14.7-19.15l60.3 22.7-2.5-18.05 2 .15 5.25.4 21.8 1.5q-6.85-19.65-19.55-27.55 8.6-14.1 22.8-13.1m-76.55 98.35 12.95 6.35q22.2 13.95 27.8 2.75 2.85-26.7-31.55-38.8v13.5l-10-6.4-16.75-10.8q7.05-4 15.1-9.4 42.9 6.9 51.2 42.65 3.5 27.05-16.8 28.8l-29.7-25.2-2.25-3.45m57.25-2.4 4.25-21.05h29.3q11.9 4.4 16.3 17.25 4.15-15.85.05-51.3 4.15 8.8 6.95 18.25l.05.1v.15Q279.4 210.8 257 237.6q-5.75 5.6-13.1 10.9l-2-18.5q-3.3 6.05-11.25 6.75-14.55-9.4-16.3-38.8m39.7 49.8-.1.1-.05-.25.15.15M241.1 218q2.45 26.1 11.8 15.25 16.75-28.4-8.8-50.3-9.05 4-20.75 1.2Q210.3 199 228.1 226q14 9.1 13-8M52.35 147.6q4.65 13.7 49.7-13.15-10.4 6.55-16.9 16.15-14 7.9-29.55 9.05l-3.25-12.05m14.8-43.6q-9.15 4.85-17.6 11.95l-6.45-6.9.8-3.65 23.25-1.4m-7.6 58.4q14.8-1.3 27.45-9.15 5.3 7.05 14.4 12.95l-21.2 13.7 2.75-10.5q-15.3 4.3-28.55 22l-3.55-11.7Q40.8 208.2 62.1 227l7.75-13.8 12.4 15.4q.1 2.45.5 4.85l-10.1-5.75-5.55 15.05q-35.1-22.05-26-61.6-18.15 40.1 0 69.1l-11-10q-18.7-24-15.7-51.2-.15 18.25 8.45 26.95 3.3-25.35 15.5-43.75 12.35 7 21.2-9.85m63.95 12.15q7.25-2.75 15.95-7.55l-8.7 11.65-7.25-4.1" fill="#74b478"/><path d="m163.7 82.25.1 3.3q-.25 2.95-1.65 5.15l-.3.4-2 1.95.85-7.7q-5.65 11.5-14.8 6.6v-3.4q3.15 2.15 6.5.75 3.95-1.7 8.15-8.25l3.15 1.2m-60.05 9.25 1.05 5.05q-4.8 4.2-13.3-1.25-4-3.25 0-5.5 4.2 2.9 7.5 2.75 2.45-.1 4.4-1.85l.35.8" fill="#17305b"/><path d="M162 78.15q1.35 1.6 1.7 4.1l-3.15-1.2q-4.2 6.55-8.15 8.25 3.55-5.5-1.9-7-5.9 1.8-4.6 6.25v3.4q-2.25-1.2-4.7-3.4l-.3 4.35q-.9-1-1.4-2.35-1.25-12.2 11.75-15 7.75-.95 10.75 2.6m-73.25 3.3q5.5-4.45 13.9 3.8 6.85 9.5 1.5 14.3l-1.8.5q-6.25 1.1-12.45-4.25-1.5-1.35-2.5-2.7l-.4-.55v-.05q-1.7-2.55-1.5-5.1.1-2.2 1.65-4.4.75-.95 1.6-1.55m10.15 11.1q-3.3.15-7.5-2.75-4 2.25 0 5.5 8.5 5.45 13.3 1.25l-1.05-5.05-.2-.95-.15.15-1.6-3.4q-3.85-.25-2.8 5.25" fill="#51ffff"/><path d="M44.95 87.2h23.2q-.15-4.15.45-7.45 1.1-6.5 5-9.75 6.9-5.85 22.55-1.5Q119 78.1 119.7 98.05q22.9-49.9 75.15-38.55Q215 65.6 228.9 78l-7.55 7.55q7.85 3.65 12.2 9.4l1.55 2.35q3.85 6.45 3.8 15.25-2.2-5.7-5.25-10.55-3.55-5.55-8.2-10-3.5-3.3-7.6-6h-15q12.3-1.65 21.5-8-13.15-9.1-25.5-13.5-5-1.8-8.85-4.1-24.45-3.75-44.75 9.1-18.9 16.4-26.55 36.55Q116.1 73.3 83.15 69q-10.4 3.35-12.2 9.75-.5 1.75-.4 3.7.2 3.2 2.1 7.05-19-1.85-25.95 9.3-1.8 2.85-2.8 6.6l-.8 3.65 6.45 6.9q8.45-7.1 17.6-11.95l1.05-.55-2.3 4.7-.05.1q-3 1.7-5.9 3.75-15.4 10.7-28.6 29.85l-1.25 1.8L9.05 158.1l11.6 7.85q-5 11.8-6.25 23.1-3 27.2 15.7 51.2l11 10q-18.15-29 0-69.1-9.1 39.55 26 61.6l5.55-15.05 10.1 5.75.7 3.75-9.8-5.95-4.55 15q-30.05-10.3-33.55-44.05-1.35 17.6 2.45 31.85 4.2 15.75 14.65 27.45l1.55 1.7q-4.25 1.4-7.7 3.2l-.65-.55-16.8-13.55q-33-35.55-18-82.65L0 156.15l22.05-17.05q-10.5-4.15-11.5-14 .75-25.65 27.05-27.55l7.35-10.35m3.9 29.35 1.75.5-1.05-1.1-.7.6q-8.5-2.9-10.75-12Q31.4 106 27 108.4q-8.5 4.55-8.25 12.45.1 3.95 2.35 8.75l12 3q7.5-9.1 15.75-16.05" fill="#2e6b3e"/><path d="m235.1 97.3-1.55-2.35q25.2-5.25 36.9 22.6 5.3 14.45-5.3 22.2l-1.85 1.2q-3.35 2-7.95 3.5l-1.6.5-6 1.4-4.35.75-3.2-1.4q.2 5.45-2.3 9.9l-28.65-2.85 27.15-2.1q.05-15.95-13.5-38.6l3.05 3.75q-1.1-7.9 7.7-13.8-6.8 12.05-5.85 16.2 10.8 14.5 12.2 25.2 7.1.25 12.65-1.25Q256.7 141 260 139q5.85-3.7 8.95-10.4-2.2-24.6-19.4-29.95-4.25-1.35-9.4-1.5l-5.05.15m-127.2 94.65q2.8-1.45 5.85-2.35-18.1 19-9.8 33.15 6.35 6.4 19.05 8 22.2 15.55 10.05 32l-2.85.6q12.35-18-7.75-29.85-9.4-.9-18.8-6.25-12.25-16.15 4.25-35.3" fill="#205d32"/><path d="m235.1 97.3 5.05-.15q3.4 2.4 6.15 5-4.9 5.6-7.4 10.4-9.6 18.35 15.6 25.2l-1.85 4.4q-5.55 1.5-12.65 1.25-1.4-10.7-12.2-25.2-.95-4.15 5.85-16.2 3.05 4.85 5.25 10.55.05-8.8-3.8-15.25m20.25 47.15q4.6-1.5 7.95-3.5l.95 1.9q4.1 35.45-.05 51.3-4.4-12.85-16.3-17.25h-29.3l-4.25 21.05q-.55 12.05 1.35 20.8l-27.4 19-11.75-14.25-11.95 9.95q.5-3.55.5-7.35 0-12.4-5.75-22.3l29.7 25.2q20.3-1.75 16.8-28.8-8.3-35.75-51.2-42.65l3.6-2.45q22.95 4.2 48.55 19.05 1.15-2.2 1.8-5.6 24.45 14.2 43.05-4.4 7-7.7 3.7-19.7m-11.25 126.8q-6.1-5.65-12.5-10.15l5.45-4.3 7.05 14.45" fill="#357e5e"/><path d="M249.55 98.65q17.2 5.35 19.4 29.95-3.1 6.7-8.95 10.4l-5.5-1.25q3.3-9.2 2.15-17.15v-.9q0-3.9-1.75-6.7l-1.3-1.6q-2.65-4.9-7.3-9.25l3.25-3.5m1.25 61.05q-4.3 7-14.4 11.2l-13.2.65-.5-5.75q17.4.65 22.8-10.45l5.3 4.35M37.95 111.6q-.5 3.45-1.7 6.3l-1.05-1.2q-1.65-1.4-4-1.4t-4 1.4q-1.65 1.4-1.65 3.35 0 1.95 1.65 3.35 1.6 1.35 3.9 1.4l-3.3 2.25-9.05-6.2q-.25-7.9 8.25-12.45 3.05 4.5 10.95 3.2m-5.85 41.35 4.45-1.9q.2 9.8 9.95 11.55l-5.9 6.7q-3.15-1.25-6.4-4.2-3.45-2.3-2.1-12.15" fill="#fdc13e"/><path d="m102.35 100.05 5.85 1.5-3.05.85q-10.35 1.95-17.75-9.3 1 1.35 2.5 2.7 6.2 5.35 12.45 4.25m44.7-4.4q-4.1-.5-6.15-2.75l.3-4.35q2.45 2.2 4.7 3.4 9.15 4.9 14.8-6.6l-.85 7.7Q157.9 94.5 155 95.3l-7.95.35m106.7 49.3 1.6-.5q3.3 12-3.7 19.7-18.6 18.6-43.05 4.4-.65 3.4-1.8 5.6-25.6-14.85-48.55-19.05 21.4.45 47.55 15.05l3-23.5.45 6.1.1 7.5-.15 3.65-.25 2.55q6.6 4.15 14.25 5.1l13.2-.65q10.1-4.2 14.4-11.2 3.8-6.25 2.95-14.75" fill="#225f34"/><path d="m243.4 147.1 4.35-.75q-.45 5.2-2.25 9-5.4 11.1-22.8 10.45-6.05-.25-13.5-1.9l.15-3.65q34.1 8.25 34.05-13.15" fill="#92d44c"/><path d="M240.15 97.15q5.15.15 9.4 1.5l-3.25 3.5q-2.75-2.6-6.15-5M260 139q-3.3 2-7.35 3.15l1.85-4.4L260 139m-12.25 7.35 6-1.4q.85 8.5-2.95 14.75l-5.3-4.35q1.8-3.8 2.25-9M222.7 165.8l.5 5.75q-7.65-.95-14.25-5.1l.25-2.55q7.45 1.65 13.5 1.9M38.1 104.55q.25 3.8-.15 7.05-7.9 1.3-10.95-3.2 4.4-2.4 11.1-3.85m-10.3 22.5q-2.95 1.6-6.7 2.55-2.25-4.8-2.35-8.75l9.05 6.2m5.4 19.8h3.9l1.95 3.1-2.5 1.1-4.45 1.9 1.1-6.1m15.3 13.55q2.95 2.4 6.4 4.4-6.75 7.45-14.3 4.5l5.9-6.7 2-2.2m73.2 11 11.05-15.5q7.2-13.95-6.25-22.55 7.85 1.85 14.1 7.75l.05.05q4.65 4.4 8.35 11l-17.95 16.4-10.8 4.85 1.45-2" fill="#d7860a"/><path d="m209.25 152.75 28.65 2.85q2.5-4.45 2.3-9.9l3.2 1.4q.05 21.4-34.05 13.15l-.1-7.5" fill="#357e5d"/><path d="M252.05 114.2q-.7-1.15-1.75-1.15t-1.75 1.15q-.7 1.1-.7 2.75 0 1.6.7 2.75t1.75 1.15q1.05 0 1.75-1.15t.75-2.75q-.05-1.65-.75-2.75m-6 4.65q0-2.8 1.25-4.8t3.05-2q1.8 0 3.05 2 1.25 2 1.3 4.8-.05 2.8-1.3 4.8t-3.05 2q-1.8 0-3.05-2-1.25-2-1.25-4.8" fill="#d25352"/><path d="M246.05 118.85q0 2.8 1.25 4.8t3.05 2q1.8 0 3.05-2 1.25-2 1.3-4.8-.05-2.8-1.3-4.8t-3.05-2q-1.8 0-3.05 2-1.25 2-1.25 4.8m10.6 1.75q-.2 3.3-1.75 5.75-1.75 2.8-4.25 2.8t-4.25-2.8q-1.75-2.75-1.75-6.65 0-3.9 1.75-6.7 1.75-2.75 4.25-2.75 1.6 0 2.95 1.15 2.3 4.4 3.05 9.2" fill="#225f32"/><path d="M253.6 111.4q-1.35-1.15-2.95-1.15-2.5 0-4.25 2.75-1.75 2.8-1.75 6.7 0 3.9 1.75 6.65 1.75 2.8 4.25 2.8t4.25-2.8q1.55-2.45 1.75-5.75 1.15 7.95-2.15 17.15-25.2-6.85-15.6-25.2 2.5-4.8 7.4-10.4 4.65 4.35 7.3 9.25" fill="#90d24b"/><path d="m276.5 170.25 8.05 8.35.25.95v.05q7.95 36.5-18.4 61.2l-12.25 6.9-.25-.15v.05l.05.25-15.2 8.55-.75-1.6-.35 1.5-.6.5-5.45 4.3-.15-.1Q198.1 284.15 162 295.4q-22.75 6.25-45.5 4.3l-1.8-.2-.1-.2q-39.1-7.3-68.75-33.45l.65.55q3.45-1.8 7.7-3.2 3.1 3.25 6.7 6.15l.5-.3q19.35 14.75 47.9 20.3l.05.1 2.9.45q24.95 3.6 52.25-3.3l.75-.15 2.2-.6-.05.05h.05q31-8.15 62-26.3l.2.15 6.75-4.95 4-18.55-9.75 3.5Q222.9 236.3 218.8 228q-1.4-2.85-2.35-6.25l-27.9 18.75-6.35-6.6-6.15-6.4-12.35 10.35.9-4.4 11.95-9.95 11.75 14.25 27.4-19q-1.9-8.75-1.35-20.8 1.75 29.4 16.3 38.8 7.95-.7 11.25-6.75l2 18.5q7.35-5.3 13.1-10.9 26.45-26.05 17.95-59.45-1.35-8.65-3.7-16.8v-.15l-.05-.1q-2.8-9.45-6.95-18.25l-.95-1.9 1.85-1.2q5.35 9.8 8.6 19.9 1.65 5.25 2.75 10.6M36.25 117.9q.6.95.6 2.15 0 1.95-1.65 3.35-1.65 1.4-4 1.4l-.05-.05-.05.05q-2.3-.05-3.9-1.4-1.65-1.4-1.65-3.35 0-1.95 1.65-3.35 1.65-1.4 4-1.4t4 1.4l1.05 1.2m-.8 1.65q-.25-.7-1-1.25-1.1-.8-2.65-.8-1.55 0-2.65.8-1.1.85-1.1 2t1.1 1.95q1.1.85 2.65.85l1.25-.15q.75-.2 1.4-.7 1.1-.8 1.1-1.95l-.1-.75" fill="#215d32"/><path d="M257 237.6q22.4-26.8 14.25-76.25 2.35 8.15 3.7 16.8 8.5 33.4-17.95 59.45" fill="#c0e998"/><path d="M105.15 102.4q.15 2.95.55 5.25Q89.75 105.8 87.25 94L87 92.55l.4.55q7.4 11.25 17.75 9.3" fill="#7bb87a"/><path d="M103.3 90.7q-1.95 1.75-4.4 1.85-1.05-5.5 2.8-5.25l1.6 3.4m42.6-2.15q-1.3-4.45 4.6-6.25 5.45 1.5 1.9 7-3.35 1.4-6.5-.75M66 108.2q-10.4 28.9 19.05 26.6-4.15 2.55-9.4 3.3-16.75-3.7-15.7-26.1 2.9-2.05 5.9-3.75l.15-.05m55.2 58.45.5 4.75-1.45 2-3.2-1.45.65-5.55 1.75-16.3 1.75 16.55m-1.8-30.95q1.85.25 3.55 1l.05.05q1.2 1.2 1.2 2.85 0 1.65-1.2 2.8-1.15 1.2-2.8 1.2t-2.85-1.2q-1.15-1.15-1.15-2.8t1.15-2.85q.9-.85 2.05-1.05m-5.65 53.9q-3.05.9-5.85 2.35-5.2 2.7-9.65 7.35-10.6 11.1-10.55 26.75-.05 15.65 10.55 26.75 10.6 11.1 25.55 11.1l6.4-.55 2.85-.6q9.1-2.5 16.25-9.95 10.55-11.1 10.55-26.75T149.3 199.3q-10.6-11.1-25.5-11.1-5.3 0-10.05 1.4m37.45 7.8q11.4 11.9 11.4 28.8 0 16.85-11.4 28.75-11.4 11.9-27.45 11.95-16.05-.05-27.4-11.95-11.4-11.9-11.4-28.75 0-16.9 11.4-28.8 11.35-11.9 27.4-11.9 16.05 0 27.45 11.9m-35.25 48.7q.9.1 1.55.75.75.75.75 1.8t-.75 1.8q-.75.75-1.8.75t-1.8-.75q-.75-.75-.75-1.8t.75-1.8q.5-.5 1.15-.65l.9-.1m-32.5-8.9q2.65 11 10.9 19.6 12.15 12.75 29.3 12.75t29.3-12.75q8-8.35 10.75-18.95l12.35-10.35 6.15 6.4q-23.65 37.5-69.2 39.65-26.4-18.35-52.85-11.75L38 234.05q-3.8-14.25-2.45-31.85 3.5 33.75 33.55 44.05l4.55-15 9.8 5.95m105.1 3.3 27.9-18.75q.95 3.4 2.35 6.25-13.65 10.15-30.25 12.5" fill="#fff"/><path d="M31.35 141.85q8.75-2.95 17.55.75-.15-3.45.2-7l3.25 12 3.25 12.05q15.55-1.15 29.55-9.05l1.85 2.65q-12.65 7.85-27.45 9.15l-2.85.2-2.6.05q-4.35-8.5-5.1-17.95-8.35-2.9-14.8-2.05l-1.3.25-2.8.75 1.25-1.8" fill="#226035"/><path d="M38.1 104.55q2.25 9.1 10.75 12-8.25 6.95-15.75 16.05l-12-3q3.75-.95 6.7-2.55l3.3-2.25h.1q2.35 0 4-1.4t1.65-3.35q0-1.2-.6-2.15 1.2-2.85 1.7-6.3.4-3.25.15-7.05m-3.9 38.1q6.45-.85 14.8 2.05.75 9.45 5.1 17.95l2.6-.05-1.8 2.2q-3.45-2-6.4-4.4-5.5-4.5-9.45-10.45l-1.95-3.1h-3.9l1-4.2" fill="#347d5c"/><path d="m32.9 142.9 1.3-.25-1 4.2-1.1 6.1q-1.35 9.85 2.1 12.15 3.25 2.95 6.4 4.2 7.55 2.95 14.3-4.5l1.8-2.2 2.85-.2q-8.85 16.85-21.2 9.85-2.65-1.5-5.45-4.1-9.85-9.7 0-25.25" fill="#236034"/><path d="m9.05 158.1 15 .5q-1.9 3.7-3.4 7.35l-11.6-7.85" fill="#478552"/><path d="M39.05 149.95Q43 155.9 48.5 160.4l-2 2.2q-9.75-1.75-9.95-11.55l2.5-1.1" fill="#93d54c"/><path d="m123.05 136.75-.1-.05q-1.15-1.1-2.75-1.1l-.8.1-3.2-.1q-12.95 6.45-12.25 13.75l13.75 17.05-.65 5.55q-18.15-8.65-29.1-21.6 11.95-14.65 29.3-19.25 8.9-2.6 17.5 1.65l5.85 8.35q-6.25-5.9-14.1-7.75 13.45 8.6 6.25 22.55l-11.05 15.5-.5-4.75q13-16.15 7.05-25.8-2.35-2.8-5.2-4.1" fill="#fbbe3b"/><path d="M123.05 136.75q2.85 1.3 5.2 4.1 5.95 9.65-7.05 25.8l-1.75-16.55-1.75 16.3-13.75-17.05q-.7-7.3 12.25-13.75l3.2.1q-1.15.2-2.05 1.05-1.15 1.2-1.15 2.85 0 1.65 1.15 2.8 1.2 1.2 2.85 1.2 1.65 0 2.8-1.2 1.2-1.15 1.2-2.8t-1.2-2.85h.05" fill="#fff203"/><path d="m140.6 141.1-5.85-8.35q10.8 5.4 21.05 21.85-13 8.25-24.75 13.95l17.95-16.4q-3.7-6.6-8.35-11l-.05-.05" fill="#fef003"/><path d="M143.55 135.95q8.1 6.75 14.7 19.15l-3.6 2.45q-8.05 5.4-15.1 9.4h-.05l-.05.05q-8.7 4.8-15.95 7.55l-3.3 1.1q-5.15-2-9.6-4.25l-9.2-5.2q-9.1-5.9-14.4-12.95l-1.85-2.65q6.5-9.6 16.9-16.15 4.25-2.7 9.15-4.85 18.4-5.3 32.35 6.35m-8.8-3.2q-8.6-4.25-17.5-1.65-17.35 4.6-29.3 19.25 10.95 12.95 29.1 21.6l3.2 1.45 10.8-4.85q11.75-5.7 24.75-13.95-10.25-16.45-21.05-21.85" fill="#a8621f"/><path d="m154.7 197.3 2.4 3.05 2.25 3.45q5.75 9.9 5.75 22.3 0 3.8-.5 7.35l-.9 4.4q-2.75 10.6-10.75 18.95-12.15 12.75-29.3 12.75t-29.3-12.75q-8.25-8.6-10.9-19.6l-.7-3.75q-.4-2.4-.5-4.85l-.05-2.5q0-4 .6-7.75 2.1-13.1 11.55-23 6.55-6.85 14.55-10 6.85-2.7 14.75-2.7 17.15 0 29.3 12.7l1.75 1.95m-3.5.1q-11.4-11.9-27.45-11.9-16.05 0-27.4 11.9-11.4 11.9-11.4 28.8 0 16.85 11.4 28.75 11.35 11.9 27.4 11.95 16.05-.05 27.45-11.95 11.4-11.9 11.4-28.75 0-16.9-11.4-28.8" fill="#256339"/><path d="M113.75 189.6q4.75-1.4 10.05-1.4 14.9 0 25.5 11.1 10.55 11.1 10.55 26.75T149.3 252.8q-7.15 7.45-16.25 9.95 12.15-16.45-10.05-32-12.7-1.6-19.05-8-8.3-14.15 9.8-33.15m9.55 31.55 5.2-7.35q5.8-12.6-8.85-15.3-9.8 5.45-2.5 11.45 7.15 2.1 6.15 11.2m-7.35 24.95 2-.35q5.65 2.7 0 8.05-12.1 1.15-9-11.3 1.55 3.85 6.1 3.7-.65.15-1.15.65-.75.75-.75 1.8t.75 1.8q.75.75 1.8.75t1.8-.75q.75-.75.75-1.8t-.75-1.8q-.65-.65-1.55-.75m51.5 39.75 3.3-5.15q-31.45 8.4-62.95 5.85l1.5 2.8q-28.55-5.55-47.9-20.3l-.5.3q-3.6-2.9-6.7-6.15l-1.55-1.7Q42.2 249.8 38 234.05l22.15 27.75q26.45-6.6 52.85 11.75 45.55-2.15 69.2-39.65l6.35 6.6q16.6-2.35 30.25-12.5 4.1 8.3 11.85 11.75l9.75-3.5-4 18.55-6.75 4.95-.2-.15q-31 18.15-62 26.3v-.05" fill="#d1c8d1"/><path d="m130.2 263.35-6.4.55q-14.95 0-25.55-11.1-10.6-11.1-10.55-26.75-.05-15.65 10.55-26.75 4.45-4.65 9.65-7.35-16.5 19.15-4.25 35.3 9.4 5.35 18.8 6.25 20.1 11.85 7.75 29.85M120.65 209l1.3-.15q1-.45 1.4-1.4.4-.95 0-1.95-.45-1-1.4-1.35-1-.45-1.95 0-1 .4-1.35 1.4-.45.95 0 1.9.35.85 1.15 1.3l-2-.45q-4.2-4.65 3.05-7.4 11.6 3.5 4.05 13.85 0-4.15-4.25-5.75M108 235.95l-2.05 8.8q-.6 13.85 14 10.8 7-8.75-2-11.55-7.45.75-9.95-8.05" fill="#264029"/><path d="M119.8 208.75q-.8-.45-1.15-1.3-.45-.95 0-1.9.35-1 1.35-1.4.95-.45 1.95 0 .95.35 1.4 1.35.4 1 0 1.95t-1.4 1.4l-1.3.15-.85-.25" fill="#fefefe"/><path d="M123.3 221.15q1-9.1-6.15-11.2-7.3-6 2.5-11.45 14.65 2.7 8.85 15.3l-5.2 7.35M120.65 209q4.25 1.6 4.25 5.75 7.55-10.35-4.05-13.85-7.25 2.75-3.05 7.4l2 .45.2.1.65.15" fill="#205c32"/><path d="M108 235.95q2.5 8.8 9.95 8.05 9 2.8 2 11.55-14.6 3.05-14-10.8l2.05-8.8m7.05 10.25q-4.55.15-6.1-3.7-3.1 12.45 9 11.3 5.65-5.35 0-8.05l-2 .35h-.25l-.65.1" fill="#235a32"/><path d="m167.45 285.85-2.2.6-.75.15q-27.3 6.9-52.25 3.3l-2.9-.45-.05-.1-1.5-2.8q31.5 2.55 62.95-5.85l-3.3 5.15" fill="#f5f3f5"/><path d="m238.75 256.4 8.95 18.3-3.6-3.45-7.05-14.45.6-.5.35-1.5.75 1.6" fill="#26673e"/></g><g id="l" fill-rule="evenodd"><path d="M.15 36.95H.1Q2.15 21 10.4 12 21.9-.75 45.55.05q5.3.4 9.65 1.75 13 4.05 17.35 16.8-3.1-3.5-6.35-6.15-5.6-4.7-11.7-7.05-1.2-.5-2.35-.85-4.25-1.35-8.7-1.6l-2.85-.1Q29.3 3 16.5 9.6 3 20.95.15 36.95" fill="#225c32"/><path d="M54.5 5.4q7.85 25.6-7.45 38.75Q42 46.65 37.5 48q-18.7 5.65-29-7.85L.05 37.8H0l.15-.85 5.95.35-.15 1.85.4-1.8 5.15.3q4.1 9.2 15.4 9.1 10.9-6.6 14.8-14.95 3.4-7.4 1.3-16.15l-4.5-11.4 2.55-.7q11.85 18.2-.45 34.6-6.1 7.35-13.7 8.6 6.7-.05 15.9-3.4Q58.3 33 52.15 4.55q1.15.35 2.35.85" fill="#2e5b33"/><path d="M43.45 2.95q4.45.25 8.7 1.6Q58.3 33 42.8 43.35q-9.2 3.35-15.9 3.4 7.6-1.25 13.7-8.6 12.3-16.4.45-34.6l2.4-.6M32.25 17.8q1.45-.75 3.25-.75 2.6 0 4.4 1.55 1.85 1.6 1.85 3.85t-1.85 3.8l-1.15.85q-1.45.75-3.25.75-2.6 0-4.45-1.6l-.45-.45q-1.35-1.4-1.35-3.35 0-2.25 1.8-3.85.55-.45 1.2-.8m-2.1 11.65q1.05-1 2.5-1t2.45 1q1.05 1.05 1.05 2.5T35.1 34.4q-1 1.05-2.45 1.05-1.45 0-2.5-1.05-1-1-1-2.45 0-1.45 1-2.5" fill="#fff"/><path d="m40.85 3.2.2.35-2.55.7q-7.8 2.3-13.75 6.15-9.85 6.25-14.8 16.45-2.35 4.8-3.6 10.5l-.25-.05Q8.95 7.2 40.85 3.2" fill="#255a31"/><path d="M.15 36.95Q3 20.95 16.5 9.6 29.3 3 40.6 2.85l.25.35Q8.95 7.2 6.1 37.3l-5.95-.35" fill="#653521"/><path d="M6.35 37.35q1.25-5.7 3.6-10.5 1.95 5.2 5.25 6.9l-3.7 3.9-5.15-.3m18.4-26.95Q30.7 6.55 38.5 4.25l4.5 11.4q2.1 8.75-1.3 16.15l-2.95-4.7 1.15-.85q1.85-1.55 1.85-3.8T39.9 18.6q-1.8-1.55-4.4-1.55-1.8 0-3.25.75-.8-5.1-7.5-7.4" fill="#954230"/><path d="M9.95 26.85q4.95-10.2 14.8-16.45 6.7 2.3 7.5 7.4-.65.35-1.2.8-1.8 1.6-1.8 3.85 0 1.95 1.35 3.35-1.15 2.5-3.1 5.35-7.5 5.05-12.3 2.6-3.3-1.7-5.25-6.9" fill="#51190e"/><path d="M41.7 31.8q-3.9 8.35-14.8 14.95-11.3.1-15.4-9.1l3.7-3.9q4.8 2.45 12.3-2.6 1.95-2.85 3.1-5.35l.45.45q1.85 1.6 4.45 1.6 1.8 0 3.25-.75l2.95 4.7m-11.55-2.35q-1 1.05-1 2.5t1 2.45q1.05 1.05 2.5 1.05t2.45-1.05q1.05-1 1.05-2.45 0-1.45-1.05-2.5-1-1-2.45-1-1.45 0-2.5 1" fill="#e35154"/></g><g id="m" fill-rule="evenodd"><path d="M16.1 5.7Q13.7 4 10.85 2.6q24 6.4 16.2 26.15.15-2.85-.15-5.5-1.35-10.8-10.8-17.55" fill="#265830"/><path d="M10.85 2.6Q13.7 4 16.1 5.7 11.95 8 9.8 10.35q-.7.25-1.3.85-1.15 1.15-1.15 2.75l.1.8q-.15.95.05 1.9l-5.3 3.4Q1.15 14.6 2.7 6.7q4-2.35 8.15-4.1" fill="#954230"/><path d="M27.05 28.75q2.7-3.1 4.65-7.45Q34.8 3.85 10.85 2.6 6.7 4.35 2.7 6.7l-.15.05 2.35-4.8q1.95-1 3.95-1.9Q39.1-.75 33.9 23.1q-5.25 12.3-21.55 13.5 5.25-.75 9.4-3.3L24 31.7l3.05-2.95" fill="#2e6b3e"/><path d="M16.1 5.7q9.45 6.75 10.8 17.55-1.7 1.65-3.4 2.5-.2-1.05-.95-1.8-.9-.9-2.25-.9t-2.3.9q-.85.85-.9 2.1-1.85-.75-3.75-2.45-5.15-3.45-5.85-6.95-.2-.95-.05-1.9.2 1.1 1.05 1.95 1.15 1.15 2.75 1.15T14 16.7q1.15-1.15 1.15-2.75T14 11.2q-1.15-1.15-2.75-1.15-.8 0-1.45.3Q11.95 8 16.1 5.7" fill="#51190e"/><path d="m2.2 20.05 5.3-3.4q.7 3.5 5.85 6.95 1.9 1.7 3.75 2.45v.2q0 1.35.9 2.25.95.95 2.3.95l1.2-.2-.9 2.7q-15.95.4-18.4-11.9" fill="#e35154"/><path d="M9.8 10.35q.65-.3 1.45-.3 1.6 0 2.75 1.15t1.15 2.75q0 1.6-1.15 2.75t-2.75 1.15q-1.6 0-2.75-1.15-.85-.85-1.05-1.95.3-2.2 2.35-4.4m7.3 15.7q.05-1.25.9-2.1.95-.9 2.3-.9 1.35 0 2.25.9.75.75.95 1.8v.5q0 1.35-.95 2.25l-1.05.75-1.2.2q-1.35 0-2.3-.95-.9-.9-.9-2.25l.05-.15-.05-.05" fill="#fff"/><path d="m24 31.7-2.25 1.6Q-7.7 35.6 2.7 6.7q-1.55 7.9-.5 13.35 2.45 12.3 18.4 11.9l3.4-.25" fill="#40744f"/><path d="M27.05 28.75Q34.85 9 10.85 2.6 34.8 3.85 31.7 21.3q-1.95 4.35-4.65 7.45" fill="#663521"/><path d="M26.9 23.25q.3 2.65.15 5.5L24 31.7l-3.4.25.9-2.7 1.05-.75q.95-.9.95-2.25v-.5q1.7-.85 3.4-2.5" fill="#6d4b30"/></g><g id="n" fill-rule="evenodd"><path d="m25.65 6.65-2.1-1.55Q8.65 18 8.8 32.9l2.6.75q2.3-16.6 14.25-27m-9-3.45q3.45-1.8 7.7-3.2 3.1 3.25 6.7 6.15 4-2.4 8.95-4.3l15.95 9.05 3.1-2.3h11l15.8 29.55q-9.1 14.7-31.8 18.75Q45.7 53.15 40 44.15 27.35 50 15.5 45.65q-.65-2.85-.95-5.5L.95 35.6q-5-21.95 15.7-32.4M51.2 15.3l2.65-2.6-14.3-8.1-1.5.5Q19 12.05 20 41.65l8.4-.8 11.9-1.2Q41.85 25.2 51.2 15.3m12.75-4.2-2.2.15-2.7.1-15.75 25.8L49.7 44l3.75 4 1.1 1.15 13.55-7.5 10.75-6-10-24.8-4.9.25" fill="#ae5915"/><path d="M25.65 6.65q-11.95 10.4-14.25 27l-2.6-.75Q8.65 18 23.55 5.1l2.1 1.55m12.4-1.55-1.4 1.7q-10.8 13.4-8.25 34.05l-8.4.8Q19 12.05 38.05 5.1m11.9 35.3 14-29.3 4.9-.25-1.95 3.5Q59.3 28.55 53.45 48l-3.75-4q.05-1.8.25-3.6" fill="#fff302"/><path d="m36.65 6.8 1.4-1.7 1.5-.5 14.3 8.1-2.65 2.6-14.55-8.5m25.1 4.45Q51.5 26.9 49.95 40.4q-.2 1.8-.25 3.6l-6.4-6.85 15.75-25.8 2.7-.1" fill="#daa727"/><path d="m61.75 11.25 2.2-.15-14 29.3q1.55-13.5 11.8-29.15" fill="#fef9c1"/><path d="m68.85 10.85 10 24.8-10.75 6 7.25-8.25-8.45-19.05 1.95-3.5" fill="#d9a527"/><path d="m36.65 6.8 14.55 8.5q-9.35 9.9-10.9 24.35l-11.9 1.2Q25.85 20.2 36.65 6.8M68.1 41.65l-13.55 7.5-1.1-1.15Q59.3 28.55 66.9 14.35l8.45 19.05-7.25 8.25" fill="#ba5d15"/></g><g id="o" fill-rule="evenodd"><path d="M43.8 46.5q-3.2 6.95-10.2 9.85-21.1-.3-33.6-17.8l.5-.9q2.55-4.95 5.45-9.55 1.6-2.65 3.3-5.15 5.05-7.4 10.8-13.9 6.9.65 12.5 3.85l.1.05 2.25 1.4q3.25 2.3 6.05 5.5 2.95 3.45 5.35 7.95.45 6.85-.5 12.15-.7 3.6-2 6.55M23.75 11.8l-2.45-.5Q11.1 21.35 7.25 36.8l2.7 3.4q2.7 3 5.85 5.1 7.2 4.75 16.75 4.8l2.25-2.2q7.25-7.85 8-20.1l-1.1-2.2q-6-10.85-17.95-13.8" fill="#b46524"/><path d="M32.65 12.95q7.55-9 18.7-12.45 3.3 1.8 6.25 4.15L65.1 0l3.05 2 1.95 1.35q6.4 4.5 12.5 10.15l3.6 3.45q4.1 4.1 8.05 8.7l1.4 1.65q-4.05 20.35-26.1 17.15-2.65 4.05-7.45 5.9L43.8 46.5q1.3-2.95 2-6.55l13.75 3.55 1.35.35 1.15-2.75 1.8-4.3 6.05-14.5L56.4 9.05 51.1 3.8 34.9 14.35l-2.25-1.4m53.75 14.6v-8L65.4 2.5l-5.7 3.85 1.65 1.5Q67.7 14 72.1 22.8q1.2 7.55.45 13.15l13.85-2.4v-6" fill="#ae5915"/><path d="M40.95 19.85q-2.8-3.2-6.05-5.5L51.1 3.8l10.95 37.3-1.15 2.75-1.35-.35-9.95-30.45-8.65 6.8" fill="#fff207"/><path d="m51.1 3.8 5.3 5.25 7.45 27.75-1.8 4.3L51.1 3.8" fill="#fffdf7"/><path d="m61.35 7.85-1.65-1.5 5.7-3.85 21 17.05v8Q71.75 6.7 61.35 7.85" fill="#ffee06"/><path d="m9.95 40.2-2.7-3.4Q11.1 21.35 21.3 11.3l2.45.5 2.5 4.8q7.35 14.95 8.55 31.3l-2.25 2.2-11-34.3-11.6 24.4" fill="#fffffe"/><path d="M56.4 9.05 69.9 22.3l-6.05 14.5L56.4 9.05m30 18.5v6l-13.85 2.4q.75-5.6-.45-13.15Q67.7 14 61.35 7.85q10.4-1.15 25.05 19.7M34.8 47.9q-1.2-16.35-8.55-31.3l15.45 9 1.1 2.2q-.75 12.25-8 20.1" fill="#e17a02"/><path d="M45.8 39.95q.95-5.3.5-12.15-2.4-4.5-5.35-7.95l8.65-6.8 9.95 30.45-13.75-3.55M21.55 15.8l11 34.3Q23 50.05 15.8 45.3l5.75-29.5m4.7.8-2.5-4.8Q35.7 14.75 41.7 25.6l-15.45-9" fill="#fecc1a"/><path d="m9.95 40.2 11.6-24.4-5.75 29.5q-3.15-2.1-5.85-5.1" fill="#fff203"/></g><use ffdec:characterId="2" height="48.15" width="85.8" xlink:href="#j" id="c"/><use ffdec:characterId="4" height="300.15" width="314.15" xlink:href="#k" id="g"/><use ffdec:characterId="6" height="49.65" width="72.55" xlink:href="#l" id="h"/><use ffdec:characterId="8" height="36.6" width="34.65" xlink:href="#m" id="i"/><use ffdec:characterId="12" height="56.9" width="85.85" xlink:href="#n" id="e"/><use ffdec:characterId="14" height="56.35" width="95.65" xlink:href="#o" id="f"/><path d="m-.75-3.1 19.1 1.15Q26.3-.7 26.3 1q0 1.7-7.95 2.85L-.75 5.1-19.9 3.85Q-27.75 2.7-27.75 1q0-1.7 7.85-2.95L-.75-3.1" fill-opacity=".349" fill-rule="evenodd" transform="translate(27.75 3.1)" id="b"/></defs></svg>