<svg xmlns:ffdec="https://www.free-decompiler.com/flash" xmlns:xlink="http://www.w3.org/1999/xlink" ffdec:objectType="frame" height="90" width="90" xmlns="http://www.w3.org/2000/svg"><use ffdec:characterId="21" height="90" transform="translate(-3.25)" width="93.25" xlink:href="#a"/><defs><g id="a" transform="translate(3.25)"><use ffdec:characterId="18" height="211.75" transform="matrix(.3936 0 0 .3934 -3.267 3.35)" width="236.95" xlink:href="#b"/><use ffdec:characterId="20" height="36.8" transform="scale(2.4456)" width="36.8" xlink:href="#c"/></g><g id="b" transform="translate(8.3)"><use ffdec:characterId="1" height="53.6" transform="translate(2.75 158.15)" width="225.9" xlink:href="#d"/><use ffdec:characterId="2" height="54.75" transform="translate(159.35 116.3)" width="37.3" xlink:href="#e"/><use ffdec:characterId="3" height="60.85" transform="translate(58.7 133.7)" width="47.95" xlink:href="#f"/><use ffdec:characterId="4" height="108" transform="translate(69.65 47)" width="155.65" xlink:href="#g"/><use ffdec:characterId="5" height="79.9" transform="translate(176.5 113)" width="48.4" xlink:href="#h"/><use ffdec:characterId="6" height="81.55" transform="translate(77.25 127.45)" width="60" xlink:href="#i"/><use ffdec:characterId="7" height="30.85" transform="translate(46.4 31.85)" width="14.65" xlink:href="#j"/><use ffdec:characterId="8" height="89.65" transform="translate(46.8 61.35)" width="120.05" xlink:href="#k"/><use ffdec:characterId="9" height="9.85" transform="translate(77.5 68.3)" width="11.75" xlink:href="#l"/><use ffdec:characterId="10" height="94.6" transform="translate(107.35 32.8)" width="34.65" xlink:href="#m"/><use ffdec:characterId="11" height="127.4" transform="translate(0 15.85)" width="63.85" xlink:href="#n"/><use ffdec:characterId="12" height="117.55" transform="translate(6.1 70.85)" width="71.7" xlink:href="#o"/><use ffdec:characterId="13" height="86.05" transform="translate(48.2)" width="69.85" xlink:href="#p"/><use ffdec:characterId="14" height="144.5" transform="translate(77.45 12.7)" width="48.3" xlink:href="#q"/></g><g id="e" fill-rule="evenodd"><path d="M21.9 0q6.35 0 9.75 4.7 2.8 3.9 3.9 11.65.65 4.75.95 15.2.25 7.8.65 12.3l.15 1.55-1.7 1.65-.5.55q-2.2 2.1-6.05 3.9-3.9 1.7-6.7 2.5-9.55 1.65-12.2-.4-1.25.75-4.15.9-3.9-1-5.45-3-1.65-1.95 1.75-12.6 1.5-2.1 2.4-2.65l-.6.3q.2-.15 1.75-.95 1.7-7.4.95-14.45Q6 13.2 4.2 5.5l2-.75 6.85-2.4Q19.7 0 21.9 0M8.8 36.95l.3.85 3.3 3.9-.3 9.55 4.65.4 5.65-.55.6-.1v-.15l.05.05q6.6-1.5 12.45-5.8-2.05-37.35-5.3-38.75-2.05-2.9-6.85-4.35L6.7 7.2q2.85 14.6 1.95 29.55h.1l.05.2M7.9 51.2q1.6-.6 2.7-1.4.6-2.5.1-7.55l-2.2-2.7q-.95-1.35-1.3-1.25l-2.8 2.35-.05.3-.15 1.15-1.05 6.85q1.15 1.75 3.4 2.7l1.35-.45" fill="#252d44"/><path d="m8.8 36.95-.05-.2h-.1Q9.55 21.8 6.7 7.2L23.35 2q4.8 1.45 6.85 4.35 3.25 1.4 5.3 38.75-5.85 4.3-12.45 5.8l-.05-.05V51l-.6.1-5.65.55q4.6-4.45-.3-17.35-3.4 2.45-7.65 2.65" fill="#6294af"/><path d="m16.75 51.65-4.65-.4.3-9.55-3.3-3.9-.3-.85q4.25-.2 7.65-2.65 4.9 12.9.3 17.35m-3.85-12.6 1.45 5.15h.55q1.55-1.15 1.6-6.5-1.9 1.35-3.6 1.35" fill="#82c6eb"/><path d="M12.9 39.05q1.7 0 3.6-1.35-.05 5.35-1.6 6.5h-.55l-1.45-5.15" fill="#f1ffff"/><path d="m4.35 40.95.05-.3 2.8-2.35q.35-.1 1.3 1.25l2.2 2.7q.5 5.05-.1 7.55-1.1.8-2.7 1.4l-.1-1.15q-.25-3.45.65-7.25-2.85-2.9-4.1-1.85" fill="#494440"/><path d="M4.35 40.95q1.25-1.05 4.1 1.85-.9 3.8-.65 7.25l-1-.35q.4-6.6-2.6-7.6l.15-1.15" fill="#c1bcb6"/><path d="m7.8 50.05.1 1.15-1.35.45q-2.25-.95-3.4-2.7L4.2 42.1q3 1 2.6 7.6l1 .35" fill="#867c72"/></g><g id="f"><path d="m15.7.6-.4-.2.4.2-.1.8-.05.35V1.5l.05-.1-.05.1v.25l-2.6 10.9-.05.2-1 2.35v.05l-.5 1.05-.15.25-.1.25v.05l-.3.55-.55 1.25.6 1.9.15 1.1-.05.05-1.3 1.8-.1.1-.4.55-.05-.8-.05-.2-.2-1.45-.15-1.15-.25-1.35-.05-.25-.3-1.55-.2-.95-.55-5 .55 5-.05-.15q-.2-.9-.5-4.85L6.9 5Q8.45 3.15 9 2.8q2.4-1.65 6.3-2.4l.45-.1-.05.3m-.1.8Q10.8 3 6.9 5q3.9-2 8.7-3.6" fill="#81c7eb" fill-rule="evenodd" transform="translate(0 1.85)"/><path d="m15.7.6.05-.3L17.9 0h1.65l.05.25 2.9-.2q.4 0-2.15 1.05l-4.75.3 4.75-.3 5.6-.65.9.35 1.8.55 7 2.25 3.3 1.15 4.3 2.15q.65.35.5 1.25.85 1.5 1 4.25l.5 9.45.45 14.9q0 14.85-6.8 18.7l-1.2.4-3.95.9h-.7l-7.05-.8q-3.4-.7-6.15-1.65l2.55-.9-.1-.7-6.4-1.05-1.15-.35h1.15q4.6-.55 7.8-5.7-.2-3.65.1-7.2.45-5.2 1.95-10.2.95-9.6-3.45-12.7-3.15-3.8-9.1-1.85l-2.05 3.2v-.05l.1-.25.15-.25.5-1.05v-.05l1-2.35.05-.2 2.6-10.9.05-.35.1-.8m9.8 54.6 1.65-2.25q.35-.55.35-1.95 0-3.15-.9-7.4-1.15-5.2-2.7-5.2h-.1.1q1.55 0 2.7 5.2.9 4.25.9 7.4 0 1.4-.35 1.95L25.5 55.2M11.15 16.85l.1.55q.4 2.1 1.95 1.8l-1.4 1.35-.75 1.1-.15-1.1-.6-1.9.55-1.25.3-.55M19.2 36.4l-1.15 2.15-.55.6-.65.7v.05l-.7.55-.25.2-2.25 1.2q-2.15 7.85.75 9.35-2.45-.85-2.8-2 1.1-1.85.35-7.55l.8-.5 3.15-2.05 1.05-.7.3-.25.25-.15 1.7-1.6m23.65 9.95q-1.5-6.4-2.7-7.45-1.05-.85-4.3-1.85-3.2-1-4.9-1-.4 0-1.95 2.05l-2.25 3.15L29 38.1q1.55-2.05 1.95-2.05 1.7 0 4.9 1 3.25 1 4.3 1.85 1.2 1.05 2.7 7.45m-26-6.45-4.1 1.25 4.1-1.25" fill="#6294af" fill-rule="evenodd" transform="translate(0 1.85)"/><path d="m11.15 16.85 2.05-3.2q5.95-1.95 9.1 1.85 4.4 3.1 3.45 12.7-1.5 5-1.95 10.2-2.25 0-5.65 1.1l-1.3.4 1.3-.4q3.4-1.1 5.65-1.1-.3 3.55-.1 7.2-3.2 5.15-7.8 5.7h-1.15l-.35-.1q-2.9-1.5-.75-9.35l2.25-1.2.25-.2.7-.55v-.05l.65-.7.55-.6 1.15-2.15v-.1q2.2-2.65 1.85-6.3l-.35-1.65q-1.9-4.85-7.5-9.15-1.55.3-1.95-1.8l-.1-.55m8.65-1.35q-2.8-1.5-4.15-.3l-1.4 1.25q-.2 1.35 1.7 3.3 2.5 2.35 4.3 5.3 1.1 1.25 2.55.95 1.45-.25.85-4.7-.65-4.45-3.85-5.8m-4.3 28.4q-.85 2 0 3.1l.4.35q.9.35 2.7-.75 1-.4 1.5-4.05l-1-1q-1.6.75-3.2 2.05l-.4.3" fill="#82c6ed" fill-rule="evenodd" transform="translate(0 1.85)"/><path d="M19.8 15.5q3.2 1.35 3.85 5.8.6 4.45-.85 4.7-1.45.3-2.55-.95-1.8-2.95-4.3-5.3-1.9-1.95-1.7-3.3l1.4-1.25q1.35-1.2 4.15.3" fill="#f1ffff" fill-rule="evenodd" transform="translate(0 1.85)"/><path d="M19.85 54.3v1.15l-5.6-1.1q-2.85-.75-3.3-1.45L9.8 51.2q-9.35-1-9.8-6.5.7-3.95 2-6.55 1.2-2.4 2.85-3.65l1.65-.05q1.5.55 2.4 1.3l.75.8 1.1 1.6.85 2.2h.05l.25 1.05.05.25q.75 5.7-.35 7.55.35 1.15 2.8 2l.25.1h.1l1.15.35 6.4 1.05.1.7-2.55.9M5.75 37.55l-.05-.05-.2.55-.1.1v.1l-.1.1L5 39q-1.55 3.1-1.8 6.55l.65.7q.65.55 2 1.1l-.05.15.25-.05.1.05 2.8.7q1.4-.3 1.65-1.35.2-1.15-.4-6.15-.15-.9-1.3-2.55l-1.95-2.4-1.2 1.8" fill="#252d44" fill-rule="evenodd" transform="translate(0 1.85)"/><path d="m4.85 34.5 1.05-4.05q.6-1.85 1.2-2.95l1.15-1.9.95-1.45.4-.55.1-.1 1.3-1.8.05-.05.75-1.1 1.4-1.35q5.6 4.3 7.5 9.15l.35 1.65q.35 3.65-1.85 6.3v.1L17.5 38l-.25.15-.3.25-1.05.7-3.15 2.05-.85.25.85-.25-.8.5-.05-.25-.25-1.05q1.95-1.05 3.5-2.2l.75-.6 2.25-2.25.95-1.6.1-.3.35-.75.3-1.2V30q-.1-1.35-.65-1.9-1.85-1.45-3.3-1.5h-.25q-2.5.7-2.8 3.35 0 2.8 1.4 2.85l1.65-.2.45-.25 1.05-1.15q.5-.65.65-1.7 1.75 2.9-2.15 4.4l-1.4.45q-3.1 2.05-4.85 2.2l-.75-.8q.8-.1 4.15-2.05-2.6-2.25-.9-6.1-4.55-.5-5.65 6.85l-1.65.05m11.05-9.1 1.65.25-4.1-4.65-.4.7q-1.9 3-3.7 4.05-.55.9-.4 1.55 1.75-1.4 4.15-.6.9-1.35 2.8-1.3" fill="#46441d" fill-rule="evenodd" transform="translate(0 1.85)"/><path d="M15.9 25.4q-1.9-.05-2.8 1.3-2.4-.8-4.15.6-.15-.65.4-1.55 1.8-1.05 3.7-4.05l.4-.7 4.1 4.65-1.65-.25M9.65 36.55q1.75-.15 4.85-2.2l1.4-.45q3.9-1.5 2.15-4.4-.15 1.05-.65 1.7l-1.05 1.15-.45.25-1.65.2q-1.4-.05-1.4-2.85.3-2.65 2.8-3.35h.25q1.45.05 3.3 1.5.55.55.65 1.9v1.45l-.3 1.2-.35.75-.1.3-.95 1.6-2.25 2.25-.75.6q-1.55 1.15-3.5 2.2h-.05l-.85-2.2-1.1-1.6m-3.15-2.1q1.1-7.35 5.65-6.85-1.7 3.85.9 6.1-3.35 1.95-4.15 2.05-.9-.75-2.4-1.3" fill="#fffe03" fill-rule="evenodd" transform="translate(0 1.85)"/><path d="m5 39 .3-.65.1-.1v-.1l.1-.1.25-.5q1.95 1.6 1.9 4.45-.5 4.85-1.6 5.4v.05l-.2-.1Q6.65 42.8 5 39" fill="#d0cbc7" fill-rule="evenodd" transform="translate(0 1.85)"/><path d="M5.85 47.35q-1.35-.55-2-1.1l-.65-.7Q3.45 42.1 5 39q1.65 3.8.85 8.35" fill="#847c71" fill-rule="evenodd" transform="translate(0 1.85)"/><path d="m5.75 37.55 1.2-1.8 1.95 2.4q1.15 1.65 1.3 2.55.6 5 .4 6.15-.25 1.05-1.65 1.35l-2.8-.7-.1-.1q1.1-.55 1.6-5.4.05-2.85-1.9-4.45" fill="#4a4541" fill-rule="evenodd" transform="translate(0 1.85)"/><path d="m15.5 43.9.4-.3q1.6-1.3 3.2-2.05l1 1q-.5 3.65-1.5 4.05-1.8 1.1-2.7.75l-.4-.35q-.85-1.1 0-3.1" fill="#f6f6f6" fill-rule="evenodd" transform="translate(0 1.85)"/><path d="m15.3 2.25.4.2" fill="none" stroke="#0f0" stroke-linecap="round" stroke-linejoin="round" stroke-width=".05"/><path d="M6.9 6.85q3.9-2 8.7-3.6l-.05.1v.25l.05-.35 4.75-.3 5.6-.65q-.15-.1.25-.05l.65.4 1.8.55 7 2.25 3.3 1.15 4.3 2.15q1.2.35.5 1.25.85 1.5 1 4.25l.5 9.45.45 14.9q0 14.85-6.8 18.7l-1.2.4-3.95.9h-.7L26 57.8q-3.4-.7-6.15-1.65m3.95-15.9h.1q1.55 0 2.7 5.2.9 4.25.9 7.4 0 1.4-.35 1.95l-1.65 2.25M9.15 25.2 9.1 25l-.6-2.85-.55-3.85-.55-5-.5-6.45m9.95 34.9 1.3-.4q3.4-1.1 5.65-1.1M25.95 2.3l.9.35m16.4 6.1q.65.35.5 1.25m-17 33.1L29 39.95q1.55-2.05 1.95-2.05 1.7 0 4.9 1 3.25 1 4.3 1.85 1.2 1.05 2.7 7.45M11.9 43.25l.85-.25 4.1-1.25" fill="none" stroke="#252d44" stroke-linecap="round" stroke-linejoin="round" stroke-width="4.5"/></g><g id="g"><path d="M46.85 3.7q63.75-9.3 85.6 4.85 2.4 1.55 4.35 3.45 21.35 20.2 14.8 70.75-12.2 8.4-29 14.15-34.5 8.65-57.7 8.6l-1.65-.05 1.65.05h-.55l-1.1-.05-3.3-.1L48 59.5q-3.8-15-3.8-25.95 0-3 .55-11.85l.15-2.45.9-4.75.05.05q1.05-3.35.95-5.5.2-2.5.05-5.35m-1 10.85-.05.05.05.15v-.2M108.8 13q-13.15-3-27 1.5.75 50.35-21.6 69.85 22.8 3.15 45.6-2.3 6.4-13.4 19.75-19.05 8.35-39.9-16.75-50m24.35 68.35v.05l.15-.05h-.15m-27.75 12.7h.05l-.05-.05v.05m-14.2 4.9h-.05l.05.1v-.1m-24.25-9.9.15.2.35-.65-.3.3-.2.15" fill="#6493af" fill-rule="evenodd" transform="translate(1.25 1.25)"/><path d="M46.85 3.7q.15 2.85-.05 5.35.1 2.15-.95 5.5l-.05-.05-.9 4.75-.15 2.45q-.55 8.85-.55 11.85 0 10.95 3.8 25.95l11.95 45.85-15.4-.15-17.15-1.05q-9.7-1.55-16.1-6.1-6.45-4.55-9.25-13.1Q-.45 77.3.1 69.35l.15-1.9v-.15l.05-3.8H.25Q.5 56.2 2.4 48.7 5.1 38 11.05 27.75q6.9-11.95 18.5-18.35 6.65-3.7 14.4-5.3l.25-.05 2.65-.35-2.65.35 2.6-.45h.05v.1M108.8 13q25.1 10.1 16.75 50-13.35 5.65-19.75 19.05-22.8 5.45-45.6 2.3 22.35-19.5 21.6-69.85 13.85-4.5 27-1.5M32.55 46.45l-.15.15-.05.25-.05.5q-1.3 2.2-1.85 4.8l.1.9q.45 4.75 1.5 4.2l.75-7.95-.25-2.85m-25.4 39.4-.05-.3q-1.5-8.9-1.45-14.4.05-8.85 3.9-8.9l-.05-.55-6.45 1.35.6 11.65.35 7.9-.25 4.35.1.15-.1 1.1 3.8-.3-.3-1.45-.1-.5v-.05l.1-.15-.1-.15v.25" fill="#81c7eb" fill-rule="evenodd" transform="translate(1.25 1.25)"/><path d="m4 82.6-.35-7.9-.6-11.65L9.5 61.7l.05.55q-3.85.05-3.9 8.9-.05 5.5 1.45 14.4l.05.3v.1l.1.5.3 1.45-3.8.3.1-1.1.15-4.5m28.55-36.15.25 2.85-.75 7.95q-1.05.55-1.5-4.2l-.1-.9q.55-2.6 1.85-4.8l.05-.5.05-.25.15-.15" fill="#6294af" fill-rule="evenodd" transform="translate(1.25 1.25)"/><path d="M66.15 106.75q23.2.05 57.7-8.6 16.8-5.75 29-14.15 6.55-50.55-14.8-70.75-1.95-1.9-4.35-3.45-21.85-14.15-85.6-4.85l-2.65.35-.25.05q-7.75 1.6-14.4 5.3Q19.2 17.05 12.3 29 6.35 39.25 3.65 49.95q-1.9 7.5-2.15 14.8h.05l-.05 3.8v.15l-.15 1.9Q.8 78.55 3.3 86.2q2.8 8.55 9.25 13.1 6.4 4.55 16.1 6.1l17.15 1.05 15.4.15 3.3.1 1.65.05z" fill="none" stroke="#262d47" stroke-linecap="round" stroke-linejoin="round" stroke-width="2.5"/></g><g id="h" fill-rule="evenodd"><path d="M1.7 19.15Q1.5 10.9 7.75 5.6 14.5-.2 23.4 0q8.45.15 15.1 5.3 6.8 5.25 8.1 12.9l-.4-.55-1.6 1-.2 4.75q-.65 2.35-1.4 8.45-.05 17.35-1.95 18.25l-.55-.5-1.3-1.05q-1.3-2.6-4.7-5.1-3.8-3.95-9.5-6.6l-.05-.05H25q1.2-1.2 7.45 1.45 3.65-6.15.65-16.55-3.85-.4-7.35-2.85-8.65-.15-15.45 4.95-3.35 2.65-3.65 8.15-1.7-5.65-3.35-7.65l-1.35-1.65.1.1-.15-1.3-.2-2.1v-.2" fill="#6294af"/><path d="M1.7 19.15v.2l.2 2.1.15 1.3-.1-.1L3.3 24.3q1.65 2 3.35 7.65Q8 36.55 8.5 42.55q.45 6.25-.05 13.95l.6-.45 1.2-1.25.75-.65q1.15.65 1.45 1.75 3.35 5.8 4.5 9.05l5.15-3.1q1.95-1.05 2.35-1.15l.65.3q2.15 1.1 2.5 2.05l.55 1.65q.1 1.1.5 1.05 1.3 2.6 2.3 7.85 4.5-.15 5.4-1.9-.85-3.75-3.55-6.85l.2-.15.4-.3.5-.4q2.4 2.15 3.6 5.65 1.85 1.15 1.95 2.3l.05-.15q.1 1.1-.4 1.65l-2.2 2.2q-1.75 1.55-6.05 1.05-1.95 1.5-3.3 2.1-9.25 3-11.3-2.05l-4.6-.3q-5.6-2.2-8.7-8.2.65-4.5 1.4-7.25.6-2.5 1.05-3.35.4-.8.85-3.3Q8 39.2 2.35 27.45L1.4 25.7l-.05-.1L0 23.2v-4.55q1 1.65 1.55.65l.15-.15m42.7 4.25.2-4.75 1.6-1 .4.55q.65.5 1.65-.6l.15.1-1.8 27.55-.5 7.45-.1 1.7q-.5-2.4-2.4-1.5l-.65-.8 1.45-28.7M17.65 66l-.05 1.6-.45 5.3q1.25 2.55 2.35 3.6l5.2-.3q2.4-.5 4.35-1.8-1.1-9.45-3.4-11.25-2.25-2.7-8 2.6V66m-7.9 5.8 2.2 1.9 3.3-.2q1.15-4.75.5-9.3l-.2-.65-.05-.05-.7-1.3v-.05L14.1 61l-3.35-4.95q-1.3 1.5-2.2 3.05l-.4.65-.6 1.25Q6.05 64.35 6 68.1l3.4 3.35.05.05.3.3m5.6-8.65.1.1-.1-.1" fill="#252d44"/><path d="M16.35 24.65q-.4 1.35 1.3 4.85 1.95 4.7 7.2 3.25l.15.65q-8.1 2.5-11 4.6l-1.3-.35q-2.35-.9-2-5.15-.45-6.65 5.65-7.85" fill="#f1ffff"/><path d="M6.65 31.95q.3-5.5 3.65-8.15 6.8-5.1 15.45-4.95 3.5 2.45 7.35 2.85 3 10.4-.65 16.55Q26.2 35.6 25 36.8h-.05l-.05.15-9.85 4.45q-1.45.55-3.4 2.9-2.05-.1-3.15-1.75-.5-6-1.85-10.6m9.7-7.3q-6.1 1.2-5.65 7.85-.35 4.25 2 5.15L14 38q2.9-2.1 11-4.6l-.15-.65q-5.25 1.45-7.2-3.25-1.7-3.5-1.3-4.85" fill="#82c6eb"/><path d="m26.5 39.65.25 1.5q-.35.5-.75.35-1.65-.5-2.7-1.3-2.25.45-3.3 1.3-.45.1-.3-.25-.1-.55.05-1.05l.25-.1.55-.15.6.4 1.95-.5 2.65.2.7-.4h.05M12.3 46.7l.3-.5.9-1.2q.75 2.2 1.15.8.35-1.05.05-1.75l.05-.05.2-.1.5-.25.35-.05q-.75 1.5-.2 3.65-1.2.45-2.05-.5l-.05-.05q-.25 1.2.4 2.5.3.8.95 1.55-1 .25-1.85-.4-.9-1.55-.7-3.65M22.75 44l.75.8 1.8 3.25q-.7-1.05-1.55-1.5-.95-.15-1.55.7-.35.25-.85 0-.45-.25-.35-2.1.8.4 1.75-1.15m4.45 7.05L27 49.9l.05-.8 1.15.1q.55-.2.7-1.1l-.35-1.1q-.35-.35-.95-.25l.2-.25.9-.9.25-.2.1-.1q.75 0 1.05.4-1.7 1.8-.45 5.2l-2.45.15m3.1 6.25q-1-.55-.8-1.85l3.55-1.35 2.5-2.3v1.1l-.05.3q-1.8 2.35-5.05 3.45-.15.3-.15.65m-13.65.05q-.55-1.5-.55-3.2V54q1.2-.9 3-1.05 2 .5 1.75 1.85-2.1 2.2-4.2 2.55" fill="#ffff01"/><path d="M25 36.85q5.7 2.65 9.5 6.6 3.4 2.5 4.7 5.1l1.3 1.05.55.5 1.9 2 .65.8q1.9-.9 2.4 1.5l-.05.85-.05.15-1.7 5.6q-2.05 6.05-4.7 10.8l-.05.15q-.1-1.15-1.95-2.3l2.85-6.25.9-2.25.05-.15q1.4-4 1.4-6.45l-2.85-3.4-.15 2.55-.1.75q-.6 3.8-2.65 6.55l-.8 1-2.25 2-.5.4-.4.3-.2.15q-2 1.2-4.15.9-.4.05-.5-1.05 4-1.1 6.45-3.7 2.75-2.95 3.55-7.7v-.45q.05-1.1-.3-2.35l-1.4-3q-1.95-2.2-3.5-2.5l-3.9.3-.1.1-.25.2-.9.9-.2.25-.05.1q-.4.7-.5 2.1v.15l-.05.8.2 1.15q.45 1.5 2.7 1.3 2.9-.3 3.15-3.95 1.75 1.7-.65 4.55-1.95 1.3-4.25 1.2-3.2-.9-2.7-5.85l.15-1.2-2.1-2.3-.75-.8-.9-1-.85.7v1.2l-.05.25q-.2 1.55-1.2 3.05-1.4 2.2-4.4 1.6-.95-.2-1.45-.6-.65-1.3-.4-2.5l.05.05q1.15 2.2 4 1.4 2.55-2.3 1.3-4.2-1.05-.9-3.05-.35l-.35.05-.5.25-.2.1-.05.05q-.75.4-1.2.9V45l-.9 1.2-.3.5-.5.9q-.75 1.25-1.15 4.15l-.4 3.05-1.2 1.25q.2-8.8 2.35-11.4l.25-.35q1.95-2.35 3.4-2.9l9.85-4.45.1-.1m-5.25 3.35-1.35.6-1.8.85 1.85.25q1.1.3 2.1 1.15l1.2-.85.2-.15.25.1q2.6 1.55 4.05 3.6 1.7-2.8 5.1-2.7-1.2-1.15-2.7-2.15l-2.15-1.3-.15-.05-1.85-.95-3.95 1.35-.55.15-.25.1m1.35 19.2-.05.05-.15.05q-1.75.8-3.5 1.25-1-.25-2.3-4.85l-.25-.9-.55 1.05q0 .8.5 2.25l.65 1.6.5 1.1.95 1.85.45.8L21 61.1l3.85-2.7v-1.1Q23 58.55 21.1 59.4m2.3-8q2.55 3.15 3.9 7.25l-2.85 2.05q-.4.1-2.35 1.15l-5.15 3.1q-1.15-3.25-4.5-9.05.8-1.25 1.85-2.25 2.6-2.8 6.8-4.75l2.3 2.5M17 58.2l.55 1.15q3.85-1.3 6.45-3.65-1.1-3.05-3.35-5.3l-.05.05h-.05q-2.7 1.05-4.45 3.2v.5q0 1.7.55 3.2l.3.85H17" fill="#46441b"/><path d="m22.2 42.15-.25-.1-.2.15-1.2.85q-1-.85-2.1-1.15l-1.85-.25 1.8-.85 1.35-.6q-.15.5-.05 1.05-.15.35.3.25 1.05-.85 3.3-1.3 1.05.8 2.7 1.3.4.15.75-.35l-.25-1.5v-.05l2.15 1.3q.25.85-.05 1.85-1.7 1.7-2.7 1.15-2.35-.95-2.9-2.4l-.8.65m-11.55 9.6q.4-2.9 1.15-4.15l.5-.9q-.2 2.1.7 3.65.85.65 1.85.4-.65-.75-.95-1.55.5.4 1.45.6 3 .6 4.4-1.6 1-1.5 1.2-3.05H21q-.1 1.85.35 2.1.5.25.85 0 .6-.85 1.55-.7.85.45 1.55 1.5l.15.25q-.5 4.95 2.7 5.85 2.3.1 4.25-1.2 2.4-2.85.65-4.55-.25 3.65-3.15 3.95-2.25.2-2.7-1.3l2.45-.15q-1.25-3.4.45-5.2-.3-.4-1.05-.4l3.9-.3q1.55.3 3.5 2.5l1.4 3q-.2 6-3.9 8.1-4.05 2.7-6.25.75l-.8-4.45q-1.55-2.95-3.5-3.5l-2.3-2.5q-4.2 1.95-6.8 4.75-2.5.1-3.65-1.9m5.15-8.15q2-.55 3.05.35 1.25 1.9-1.3 4.2-2.85.8-4-1.4.85.95 2.05.5-.55-2.15.2-3.65M36.15 62l.8-1q2.05-2.75 2.65-6.55l.1-.75q1.3-1.55 1.3 3.25-2.1 7.7-3.7 8.95-1.35-.15-1.15-3.9m-.65-8.8.05-.3v-1.1l-2.5 2.3-3.55 1.35q-.2 1.3.8 1.85l.45.15q.75.35 1.9-.45 2.5-1.55 2.85-3.8m-14.45 6.25h.05q.15.85-.1 1.65l-3.65 2.55-.45-.8.5-.15q.25 0 .15-.7l-1.3-2.4-.35-.25q-.3.2-.45.55l-.65-1.6.3-2.4q1.3 4.6 2.3 4.85 1.75-.45 3.5-1.25l.15-.05m-.45-9 .05-.05q2.25 2.25 3.35 5.3-2.6 2.35-6.45 3.65L17 58.2q2.55-.85 4.95-2.9 0-2.2-1.35-4.85" fill="#c8cb00"/><path d="m22.2 42.15.8-.65q.55 1.45 2.9 2.4 1 .55 2.7-1.15.3-1 .05-1.85 1.5 1 2.7 2.15-3.4-.1-5.1 2.7-1.45-2.05-4.05-3.6M10.25 54.8l.4-3.05q1.15 2 3.65 1.9-1.05 1-1.85 2.25-.3-1.1-1.45-1.75l-.75.65m27.6-4.3q.35 1.25.3 2.35v.45q-.8 4.75-3.55 7.7-2.45 2.6-6.45 3.7l-.55-1.65q-.35-.95-2.5-2.05l-.65-.3 2.85-2.05q-1.35-4.1-3.9-7.25 1.95.55 3.5 3.5l.8 4.45q2.2 1.95 6.25-.75 3.7-2.1 3.9-8.1M33.9 64l2.25-2q-.2 3.75 1.15 3.9 1.6-1.25 3.7-8.95 0-4.8-1.3-3.25l.15-2.55 2.85 3.4q0 2.45-1.4 6.45h-.05v.15l-.9 2.25-2.85 6.25q-1.2-3.5-3.6-5.65m-12.8-4.55v-.05q1.9-.85 3.75-2.1v1.1L21 61.1q.25-.8.1-1.65m-6.3-1.15q-.5-1.45-.5-2.25l.55-1.05.25.9-.3 2.4" fill="#7f8102"/><path d="m20.55 39.95 3.95-1.35 1.85.95.1.1-.7.4-2.65-.2-1.95.5-.6-.4M13.5 45v-.05q.45-.5 1.2-.9.3.7-.05 1.75-.4 1.4-1.15-.8m7.5-.1v-1.2l.85-.7.9 1q-.95 1.55-1.75 1.15v-.25m6.05 4.2v-.15q.1-1.4.5-2.1l.05-.1q.6-.1.95.25l.35 1.1q-.15.9-.7 1.1l-1.15-.1m8.45 4.1q-.35 2.25-2.85 3.8-1.15.8-1.9.45l-.45-.15q0-.35.15-.65 3.25-1.1 5.05-3.45m-18.6 9.65L15.95 61l-.5-1.1q.15-.35.45-.55l.35.25 1.3 2.4q.1.7-.15.7l-.5.15m3.7-12.4q1.35 2.65 1.35 4.85-2.4 2.05-4.95 2.9h-.05l-.3-.85q2.1-.35 4.2-2.55.25-1.35-1.75-1.85-1.8.15-3 1.05v-.35q1.75-2.15 4.45-3.2h.05m20.65 10.6V61h.05l-.05.05" fill="#fffdff"/><path d="M41.05 50.1q1.9-.9 1.95-18.25.75-6.1 1.4-8.45l-1.45 28.7-1.9-2" fill="#01e680"/><path d="m23.5 44.8 2.1 2.3-.15 1.2-.15-.25-1.8-3.25" fill="#777b03"/><path d="M31.35 67.7q1.5 2.1 1.7 3.25h-.4q-1.65-.75-1.7-2.5.15-.45.4-.75M17.65 66q4.7-1.85 6.15 1 .95 1.05 1.15 3.55l.05.65-1.45 4.85q-.55-1.55-.4-6.15-1.2-1.95-2.8-2.6l-2.75.3.05-1.6m-9.5-6.25.4-.65Q15.7 63.6 9.8 71q.05-8.7-1.65-11.25" fill="#d0cbc7"/><path d="M28.65 65.75q2.15.3 4.15-.9 2.7 3.1 3.55 6.85-.9 1.75-5.4 1.9-1-5.25-2.3-7.85m4.4 5.2q.95 0 .95-.7 0-1.5-1.2-2.95-.9-.15-1.45.4-.25.3-.4.75.05 1.75 1.7 2.5h.4M25 71.2l-.05-.65q-.2-2.5-1.15-3.55-1.45-2.85-6.15-1v-.25q5.75-5.3 8-2.6 2.3 1.8 3.4 11.25-1.95 1.3-4.35 1.8.4-2.9.3-5M8.55 59.1q.9-1.55 2.2-3.05L14.1 61l.7 1.15v.05l.7 1.3.05.05.2.65q.65 4.55-.5 9.3l-3.3.2-2.2-1.9.05-.8q5.9-7.4-1.25-11.9m6.8 4.05.1.1-.1-.1" fill="#494440"/><path d="M31.35 67.7q.55-.55 1.45-.4 1.2 1.45 1.2 2.95 0 .7-.95.7-.2-1.15-1.7-3.25m-13.75-.1 2.75-.3q1.6.65 2.8 2.6-.15 4.6.4 6.15L25 71.2q.1 2.1-.3 5l-5.2.3q-1.1-1.05-2.35-3.6l.45-5.3m-7.85 4.2-.3-.3-.05-.05L6 68.1q.05-3.75 1.55-7.1l.6-1.25Q9.85 62.3 9.8 71l-.05.8" fill="#857c73"/><path d="m11.65 44.3-.25.35q-2.15 2.6-2.35 11.4l-.6.45q.5-7.7.05-13.95 1.1 1.65 3.15 1.75" fill="#6594ae"/></g><g id="i" fill-rule="evenodd"><path d="M56.1 2.65q.7 1.95 2.05 3.1 1.2 1 1.8 2.15l.05.15h-.3V9.7l-.25-.15q-4.15-1.25-14.1 14.3l-5.2 19q-1.05 1.55-3.65-1.2l-.4-.4q-.95-.75-2.05-.85-2.4-.8-4.5 0l-.1-.05-2.7-1.55q-2.35-.95-5.75-1.6-2.2.4-4.6 1.6-1.8.9-3.6 2.35v-.1l-.2-2.25q-.5-4.65-1.65-9.15Q7.95 17.9.5 7.1q1.35-3.05 12.4-5.15Q23.5 0 34.45 0L44.6.45q-.6.65-1.1 3.8-.95 5.5-3.75 13.75 4.7-7.55 10.05-13.65 2.45.4 6.3-1.7m-8.6-2h-1.65l-.6-.15 2.25.15M19.25 33.6q-3.5-.55-6.1-3.1l2 6.6 5.55-.55q4.85-.45 8.05 1.35L26 34.25q-3.35.7-6.75-.65" fill="#82c6ed"/><path d="M56.1 2.65q-3.85 2.1-6.3 1.7-5.35 6.1-10.05 13.65 2.8-8.25 3.75-13.75.5-3.15 1.1-3.8l.65.05.6.15h1.65q2.6-.75 5.4 1.1.8 1.45 3.2.9" fill="#6493af"/><path d="M.5 7.1q7.45 10.8 10.45 22.55 1.15 4.5 1.65 9.15l.2 2.25-2.4 1.3.05-.7-.05-2.85-.6-6.4-.65-3.15q-.8-3.15-2-5.6L3 15.35l-.7-1.6-.7-1.7-.8-2.8-.3-1.4-.1-.55.1-.2m58.7 3.15-.55 1.95q-3.75 12.75-5.55 21l-1.75 8.45-.65 5.75-.5 4.4-.4 3.35-.15 1.75q-.75-1.75-2.4-.35.05-1.7-.25-2.5l-.3-.2.6-6.45.25-2.5.4-3.25.4-2.85q.6-3.85 1.3-7.25 1.3-5.9 2.95-10.35l.65-1.8q3.1-7.75 5.95-9.15M45.85 69.9q.95 1.85.5 3.55l-.5 1.15q-.9 1.35-2.7 2.7-2.25 1.5-4.15 2.3-2.35.9-4.25.6l-1.3-.6Q30.4 78.2 30 78.55l-.4 1.05-1.2 1.35-.5.3-10.45-.3q-2.25-.45-4.15-1.35l-2.6-1.5-2.35.6q-5.9-.55-7.6-4.1L.3 73.45q-.55-2.1 0-5.1.2-1.8 1-3.6l-.25-.05 2.6-2.05q.2.45.9.55l-.05.05h.05l4.3.55.3 1.75.3 2.35q.1.85.75 1.9.55 1.05 1.8.15l1.7-1.05q-.8.65-1.3 1.45l-.05 1.5.05.7v.9l.2 1.15q.4 2 1.45 2.75 2.55 1.2 8.65.95l4.6-.4-.05-3.3-.15-1.15q-.4-2.45-1.45-3.5l-3.1-1.6-1.15-.4q-3.2-1.2-5.15-.5l-.05-.05 1.9-1.5q3.65.25 6 1.35l1.2.65q.6 1.3.8 1.15l.1-.45.7.3q.6-1.7 1.15-2.75.95-2.05 1.6-2.1 6.35-.5 9.9.8l.2.05q.95.4 1.7.95l1.3 1.2q.55.75.8 1.65l.05.05-.05.15q-.25 3.5 2.3 1m-10.8 7.6.15.05q4.3-.65 6.7-2.95l1.05-1.15.4-.65q-2.2-6.05-3.75-6.35-6.35-1.55-9.6-.65-1.7 1-2.1 4.4 0 .7 1.1 3.25l.4.95.1.2q.4.7 2.15 1.5v.05l.45.15 2.95 1.2M3.4 67.35l-.15.3h.05q-.5 2.35-.6 5.2.95 1.2 2.6 1.9h.05l1.25.5q1.1.4 2.8 0 1.1-1.4 1.05-4.2-1.7-.2-1.45-5.55-2.6-1.35-4.75-1.05l-.7 2.1-.15.6v.2" fill="#252d44"/><path d="m53.25 19.4-.65 1.8q-1.65 4.45-2.95 10.35-.7 3.4-1.3 7.25l-.4 2.85-.4 3.25-.25 2.5-.6 6.45-2.15-1.75q.95-.9 1.55-5.15l.25-2.05.4-3.25.45-2.85q.65-3.85 1.45-7.2 1.85-7.35 4.6-12.2m-7.5 35.95.85.9q-.05 3.9-1.95 9.5 2.15-8.3 1.1-10.4" fill="#02f28f"/><path d="M29.55 40.4q2.1-.8 4.5 0 1.1.1 2.05.85l.4.4q2.6 2.75 3.65 1.2l5.2-19Q55.3 8.3 59.45 9.55l-.25.7q-2.85 1.4-5.95 9.15-2.75 4.85-4.6 12.2-.8 3.35-1.45 7.2l-.45 2.85-.4 3.25-.25 2.05q-.6 4.25-1.55 5.15l-3.05-2.45-3.15-2.25-.45-.25-.95-2.25q-1.2-2.1-2.95-2.8l-1.2-.45-2.6-.65-.65-.6" fill="#6294af"/><path d="m22.7 39.05 1.1.4q-1.35.65-1.25 1.7-2.8-.8-5 0-.1-.45-1.45-.95l1.55-.65q.05.4 4.4 0l.65-.5m-3.4 7.5q0 4.4 1.2 5.8l-1.65-1.2h-.05l-.4-.35-2.05.1-.2.05q-1.15.35-2.45 1-.4-.8-.15-1.65l1.2-.55q-.45.7 3.25.05 1-1.35 1.3-3.25m12.75-.2-.9-1.3-.25-.15-1.8-.3q-.65 0-1.1.3-.45.25-.7.8-.55 1.15.1 2.85-1.2.25-2.3-1.15l-.1-.15-.05-.1.1-.65 1.3.25q.65-.35.55-1.5l-.3-.35q-.35-.25-.9-.2.45-.7 1.2-1.2.6-.4 1.25-.65l.35.05q2.4.05 3.95.7l1.2 1.3q.8 1.15.85 2.3-.3 2.75-.9 3.7-2.25 2.6-3.2 2.75 1.1-1.35 1.55-3.65.75-.8.75-1.45l-.1-1.15q-.2-.8-.55-1.05m-23.3.3L9 46.1l.7-1.2.35-.5.15.5.7.4q.65 0 .85-.4l.05-.4q0-.75-.75-1.1.8-.65 1.85-.85l.55-.1q-1.3 1.15-1 2.45.1.55.55 1.1-1 .6-2.3-.45-1.05.65-.35 1.85l.45.65q-.35 2.05-.25 3.65-2.55.45-1.8-5.05M20.1 57.1l.4 1.6q-3.05 3.55-6.1 4.95 3.4-2.75 5.7-6.55m-7 6.3q-.95-2.95-1-6.65l1.85-1.95q0 4.1-.5 7.7l.1.15-.45.75m-5.45-3.85v2.9l-2.05-.2 2.05-2.7m13.65 5.9 1.05-.95h1.85l-.5 1.65-2.4-.7M39.05 56l-2.7 2.45-3.75 2.95 3.7-.2q2.15-1.95 2.75-5.2m-6.9 6q-1.4-1.35 2.9-4l3.5-4.5q.95-.1 1.65.7.35 2.95-.4 4.25-1.55 2.6-3 3.55h-4.65" fill="#feff00"/><path d="m22.05 38.8.65.25-.65.5q-4.35.4-4.4 0l2.55-.75h1.85m-7.3 10.95q2.45-1.35 4.35-4.85l.35-.7-.05.7-.1 1.65q-.3 1.9-1.3 3.25-3.7.65-3.25-.05M25.7 44.7q.55-.05.9.2l.3.35q.1 1.15-.55 1.5l-1.3-.25q.1-.95.5-1.6l.15-.2m-14.65-1.3q.75.35.75 1.1l-.05.4q-.2.4-.85.4l-.7-.4-.15-.5 1-1m2.9 11.4q2.1-2.1 3.2-2.7-1.65 5.8-3.7 10.4.5-3.6.5-7.7m-3 13.3q-.2-3.4.1-6.85l.4 2.15q.2 1.2.8 1.7-.35 2.45-1.05 3.75l-.25-.45v-.3M39.05 56q-.6 3.25-2.75 5.2l-3.7.2 3.75-2.95 2.7-2.45" fill="#fffeff"/><path d="M12.8 41.05v.1q1.8-1.45 3.6-2.35 2.4-1.2 4.6-1.6 3.4.65 5.75 1.6l2.7 1.55.1.05.65.6 2.6.65 1.2.45q1.75.7 2.95 2.8l.95 2.25.45.25 3.15 2.25 3.05 2.45 2.15 1.75.3.2q.3.8.25 2.5 1.65-1.4 2.4.35-.7 6.4-3.8 13-2.55 2.5-2.3-1l.05-.15v-.05l1.05-2.95q1.9-5.6 1.95-9.5l-.85-.9-2.2-2.15-.15-.2-2.5-2.2-1.4-1.15q-.95.4-1.8 2.15l-.45 1.1q-1 2.1-3.3 4.4l-1.2 1.15-.4.35q-6.1 5.25-6.1 7.75l-.05 2.05-.1.45q-.2.15-.8-1.15l-1.2-.65.9-.9v-.25q0-.6.3-1.4.4-.95 1.3-2.2-2.75.9-5.2.6l-3.3 2.8-1.9 1.5-.1.05q-1.1.65-2.4 1.45L12 69.95q-1.25.9-1.8-.15-.65-1.05-.75-1.9l-.3-2.35-.3-1.75q-.15-2.05.1-6.4l-1.3 2.15-2.05 2.7-1.05.95q-.7-.1-.9-.55l-.1-.65q3.3-2.85 4.8-6.1-1.3-2.1-1.6-4.35-.2-1.25 0-2.55l.35-1.6q.35-1.25 1.05-2.5l.55-.9 1.7-1.65 2.4-1.3m9.9-2-.65-.25-.8-.2-1.05.2-2.55.75-1.55.65-.55.3q.55.85 2.85 1.15 1.6-.25 3 0 1.1.15 2.15.65l.45.3.9.55 2.7-1.9-1.15-.6-2.65-1.2-1.1-.4m-2.55 3.85-2.35.05-.05 1.95-.15.6-.7 1.5-.35.4q-1.05 1.1-2.9 1.35l-.35.05q-1.95 1.8-.45 4.7l1.1-.9 2.2-1.55.2-.15q.65-.25 1.25-.35l1.2.6h.05q.95 1.05 2.25 4.35l1.7-.3q1.55-.55 2.6-1.7l1.45-1.7q-1.45-.35-2.25-1.25-1.05-1.15-1.05-3.15l.05-.65q0-.9.25-1.85l.1-.4q-.75-.6-1.5-.95-1.1-.5-2.3-.65m11.9 3.45q.35.25.55 1.05l.1 1.15q0 .65-.75 1.45l-.65.65q-1.45 1.25-2.45 1L28 53.2l-.75.85-.9.8-1.5.95-3 1.35q2 1.85.7 4.4 4.25-.5 7.05-2.35l3.6-2.95 1.35-1.85q.8-1.2 1.85-4.6l-.25-2.4-.05-.3-.15-.6-.6-1.35-.3-.25q-1.8-1.6-3.5-2.05l-3.05-.1-.35.1q-.65.25-1.25.65-.75.5-1.2 1.2l-.15.2q-.4.65-.5 1.6l-.1.65.05.1.05.15.1.6q.95 2.85 4.55 2.15 2.25-1.25 1.95-2.75l-.75-1.3.35.05.4.05q.2 0 .4.15m-22-1.95-.35.5-.7 1.2-.25.55-.25.7v.05q-1.25 5.6.9 7.95l.05.05 1.1.8.75-1.3-.4-1.05q-.3-.95-.35-2.15-.1-1.6.25-3.65l-.45-.65q-.7-1.2.35-1.85.05 1.05.5 1.55l.15.15.25.15q.75.35 1.95 0 1-.25 2.25-.9l.5-1.6q.4-2.55-2.45-2.45h-.4l-.55.1q-1.05.2-1.85.85l-1 1m7.4 7.55-.1.05-.2.1q-1.1.6-3.2 2.7l-1.85 1.95q.05 3.7 1 6.65l.05.25.15.4.65-.25.45-.15q3.05-1.4 6.1-4.95l-.4-1.6q-1.25-3.95-2.5-5.2v.05h-.15m-6.4 9.3-.15-.9-.1-.7-.25-1.85-.2-.1q-.25-.15-.4 0-.15.05.2 4.15.3 4.1.55 5.15l.25 1.1v.3l.25.45 3.9-2.55.4-.3q5.75-4 5.8-5.8-3.1 2.95-5.45 4.25-1.4.75-2.55.95l-1.05-.3q-.6-.5-.8-1.7l-.4-2.15m30.4 4.6q.65-.5-1.15-2.35l-.15-.15-1.55-1.45.9.3q4.6 1.5 3.25 4.85l-1.3-1.2" fill="#44451d"/><path d="m23.8 39.45 2.65 1.2-.65 1q-.7.75-1.8.95l-.45-.3q-1.05-.5-2.15-.65-1.4-.25-3 0-2.3-.3-2.85-1.15l.55-.3q1.35.5 1.45.95 2.2-.8 5 0-.1-1.05 1.25-1.7m-6.2 6.05.35-.6q1.05-1.6 2.2-2 1.2.15 2.3.65l.65 1.35q.35.85.5 1.85l-.05.65q0 2 1.05 3.15.15 1.2-.05 1.85-1.55 1.95-3.35 1.05l-2.35-2.3 1.65 1.2q-1.2-1.4-1.2-5.8l.1-1.65.05-.7-.35.7q-1.9 3.5-4.35 4.85l-1.2.55q-.25.85.15 1.65 1.3-.65 2.45-1v.1l-2.2 1.55-1.1.9q-1.5-2.9.45-4.7l.35-.05q1.85-.25 2.9-1.35l.35-.4.7-1.5m7.5 1.9q1.1 1.4 2.3 1.15-.65-1.7-.1-2.85.25-.55.7-.8.45-.3 1.1-.3l1.8.3.25.15.9 1.3q-.2-.15-.4-.15l-.4-.05-.3-.15-.95.1q.65 1.65-1.05 2.8-1.75 1.1-3.8-.9l-.1-.6h.05m6.85 2.6q-.45 2.3-1.55 3.65.95-.15 3.2-2.75.6-.95.9-3.7-.05-1.15-.85-2.3l-1.2-1.3q-1.55-.65-3.95-.7v-.15l3.05.1q1.7.45 3.5 2.05l.3.25.6 1.35.15.6v.35q0 2.5-.95 4.1-1.35 3.65-5.85 5.4-2.65.85-3.7.45-1.25-.55-.75-1.6l1.5-.95.9-.8.75-.85.85-1.55q1 .25 2.45-1l.65-.65m-23.2-3.35q-.75 5.5 1.8 5.05.05 1.2.35 2.15-1 .25-1.5 1.5Q7.25 53 8.5 47.4v-.05l.25-.7m1.95-1.1Q12 46.6 13 46q-.45-.55-.55-1.1-.3-1.3 1-2.45l.25.05q1 .3 1.3 1.5v.9q-.2 1.1-1.1 1.7-1.3.7-2.55.65l-.15-.15q-.45-.5-.5-1.55m6.8 6.4h.1v-.05q1.25 1.25 2.5 5.2-2.3 3.8-5.7 6.55l-.45.15-.65.25-.15-.4-.05-.25.45-.75q1.85-3.25 3.9-10.55l.05-.15M4.55 63.25v-.05l1.05-.95 2.05.2v-2.9l1.3-2.15q-.25 4.35-.1 6.4l-4.3-.55m7.7 1.85 1.05.3q1.15-.2 2.55-.95L15.5 66l-.4.3-3.9 2.55q.7-1.3 1.05-3.75m11.85 2.15q-2.25-1.35-5.05-1.4l3.2-2.45q1.6-.2 2.8 0l.25 1.3q-.3.8-.3 1.4v.25l-.9.9m8.65-8.8 1.2-1.15q2.3-2.3 3.3-4.4l.45-1.1q.85-1.75 1.8-2.15l1.4 1.15 2.5 2.2.15.2q-.4 8.7-4.05 9l-.9-.3 1.55 1.45.15.15q1.8 1.85 1.15 2.35-.75-.55-1.7-.95l-.2-.05q-3.55-1.3-9.9-.8-.65.05-1.6 2.1-.95-1.95 4.3-7.3l.4-.4m-11.45 7 2.4.7.5-1.65h-1.85l-1.05.95M32.15 62h4.65q1.45-.95 3-3.55.75-1.3.4-4.25-.7-.8-1.65-.7l-3.5 4.5q-4.3 2.65-2.9 4" fill="#c8cb00"/><path d="m26.45 40.65 1.15.6-2.7 1.9-.9-.55q1.1-.2 1.8-.95l.65-1M17.6 45.5l.15-.6.05-1.95 2.35-.05q-1.15.4-2.2 2l-.35.6m4.85-1.95q.75.35 1.5.95l-.1.4q-.25.95-.25 1.85-.15-1-.5-1.85l-.65-1.35m2.15 7q.8.9 2.25 1.25l-1.45 1.7q-1.05 1.15-2.6 1.7l-1.7.3q-1.3-3.3-2.25-4.35l2.35 2.3q1.8.9 3.35-1.05.2-.65.05-1.85m.55-2.55q2.05 2 3.8.9 1.7-1.15 1.05-2.8l.95-.1-.05.1.75 1.3q.3 1.5-1.95 2.75-3.6.7-4.55-2.15m11-.6.25 2.4q-1.05 3.4-1.85 4.6l-1.35 1.85-3.6 2.95q-2.8 1.85-7.05 2.35 1.3-2.55-.7-4.4l3-1.35q-.5 1.05.75 1.6 1.05.4 3.7-.45 4.5-1.75 5.85-5.4.95-1.6.95-4.1l.05-.05M13.7 42.5v-.05h.15q2.85-.1 2.45 2.45l-.5 1.6q-1.25.65-2.25.9-1.2.35-1.95 0l-.25-.15q1.25.05 2.55-.65.9-.6 1.1-1.7V44q-.3-1.2-1.3-1.5m-2.8 11.35.4 1.05-.75 1.3-1.1-.8-.05-.05q.5-1.25 1.5-1.5m4.95 10.6q2.35-1.3 5.45-4.25-.05 1.8-5.8 5.8l.35-1.55m9.45.25-.25-1.3q-1.2-.2-2.8 0l-3.2 2.45q2.8.05 5.05 1.4-2.35-1.1-6-1.35l3.3-2.8q2.45.3 5.2-.6-.9 1.25-1.3 2.2m2.75 1.45q-.55 1.05-1.15 2.75l-.7-.3.05-2.05q0-2.5 6.1-7.75v.05q-5.25 5.35-4.3 7.3m15.5-12.95 2.2 2.15q1.05 2.1-1.1 10.4L43.6 68.7h-.05q-.25-.9-.8-1.65 1.35-3.35-3.25-4.85 3.65-.3 4.05-9" fill="#808101"/><path d="M19.25 33.6q3.4 1.35 6.75.65l2.75 3.65q-3.2-1.8-8.05-1.35l-5.55.55-2-6.6q2.6 2.55 6.1 3.1" fill="#f2ffff"/><path d="m17.15 52.1.2-.1.1-.05v.15q-2.05 7.3-3.9 10.55l-.1-.15q2.05-4.6 3.7-10.4m-6.2 16L10.7 67q-.25-1.05-.55-5.15-.35-4.1-.2-4.15.15-.15.4 0l.2.1.25 1.85.1.7.15.9q-.3 3.45-.1 6.85" fill="#ff0"/><path d="m37.25 69.2.25-.95q-1.45-1.05-4-1.2-1.75.25-3.1 1.05l-.15.1q-.3 5.25 1.25 5.8l.15 2.1q-1.75-.8-2.15-1.5l-.1-.2-.4-.95q-1.1-2.55-1.1-3.25.4-3.4 2.1-4.4 3.25-.9 9.6.65 1.55.3 3.75 6.35l-.4.65-1.05 1.15q-2.4 2.3-6.7 2.95l-.15-.05.25-.8 1.7-6.65.25-.85m-17.05 1q-1.05-.85-2.65-.85-3.2.7-5.2 2.5l.05-1.5q.5-.8 1.3-1.45 1.3-.8 2.4-1.45h.15q1.95-.7 5.15.5l1.15.4 3.1 1.6q1.05 1.05 1.45 3.5l.15 1.15.05 3.3-4.6.4q.1-2.25-1.3-6.5l-1.2-1.6M3.55 66.55l.7-2.1Q6.4 64.15 9 65.5q-.25 5.35 1.45 5.55.05 2.8-1.05 4.2-1.7.4-2.8 0l-1.25-.5.9.15q1.9-2.9.95-6.15-1.2-1.9-3.65-2.2" fill="#494440"/><path d="M31.65 76.1 31.5 74q-1.55-.55-1.25-5.8l.15-.1q1.35-.8 3.1-1.05 2.55.15 4 1.2l-.25.95q-1.1-.15-2.55 0-2.05-.85-4.3-1.1.2 2.1 2.85 3.15 1.8 2.85 2.05 5.45-.1-1.55.75-4.15l.95-2.5-1.7 6.65-.25.8-2.95-1.2-.45-.2M12.4 72.55q1.9-1.55 4.1-.8 3.35 1.9 4.45 4.15.2-2.05-.75-5.7l1.2 1.6q1.4 4.25 1.3 6.5-6.1.25-8.65-.95Q13 76.6 12.6 74.6l-.2-1.15v-.9m-7.1 2.2q-1.65-.7-2.6-1.9.1-2.85.6-5.2 1.7-.1 2 7.1" fill="#857c73"/><path d="m37.25 69.2-.25.85-.95 2.5q-.85 2.6-.75 4.15-.25-2.6-2.05-5.45-2.65-1.05-2.85-3.15 2.25.25 4.3 1.1 1.45-.15 2.55 0m-24.9 2.65q2-1.8 5.2-2.5 1.6 0 2.65.85.95 3.65.75 5.7-1.1-2.25-4.45-4.15-2.2-.75-4.1.8l-.05-.7m-8.95-4.5v-.2l.15-.6q2.45.3 3.65 2.2.95 3.25-.95 6.15l-.9-.15H5.3q-.3-7.2-2-7.1l.1-.3" fill="#cfcac6"/></g><g id="j" fill-rule="evenodd"><path d="M13.4 6.15Q9.5 3.3 6 3l-.3.4q-1.15 1.45-2.05 4l-.8 3.15q1.25.75 3.3 3.5l.95 1.3-.5.7-1.15-1.45-2.75-3.5-.7 3.35.15 1.7q1.3.1 2.75 1.05v.05l.95.7-.45.75-.75-.65L4.6 18l-1.45-.8-.1-.05-1-.4q.1 3.05.4 4.55.4 1.65 1.15 3.25l-1 6.3-.4-2.2-.8-3.25L.85 23q-.5-2-.75-5.15-.25-3.2.3-6.9.55-3.75 2.7-9.9Q3.95-.15 5.85 0q1.3.15 8.8 3L13.6 5.75l-.2.4" fill="#252d44"/><path d="M5.7 3.4 6 3q3.5.3 7.4 3.15L12.15 9.1l-1.1 1.6Q9.3 12.1 7.1 15.35l-.95-1.3q1.15-1.8 3.05-3.45 2.1-1.9 2.1-2.75-1.75-2.9-5.6-4.45" fill="#81c7eb"/><path d="M3.6 24.55q-.75-1.6-1.15-3.25-.3-1.5-.4-4.55l1 .4.1.05 1.45.8.05.05.75.65-1.8 5.85m2.55-10.5q-2.05-2.75-3.3-3.5l.8-3.15q.9-2.55 2.05-4 3.85 1.55 5.6 4.45 0 .85-2.1 2.75-1.9 1.65-3.05 3.45" fill="#f1ffff"/><path d="M4.9 17.2q-1.45-.95-2.75-1.05L2 14.45l.7-3.35 2.75 3.5-.55 2.6" fill="#01ffe7"/><path d="m5.85 17.95-.95-.7v-.05l.55-2.6 1.15 1.45-.75 1.9" fill="#0cc0a7"/></g><g id="k" fill-rule="evenodd"><path d="M78.3 134.4v-.3l.1.15-.1.15" fill="#44451d" transform="translate(-47.05 -61.6)"/><path d="m85.1 62.15.4-.25.5.25-.1.05-.45.3-.35-.35" fill="#7e8100" transform="translate(-47.05 -61.6)"/><path d="m71.45 112-3.35.6.3-1.95q-7.5-1-12.9-6.15-6.55-6.1-7.95-15-1.2-7.55.35-15.05l.3-1.3.5-.1q.9-.15 1.55.5-1.1 6.25.15 14.4 1.15 8.15 5.85 12.85 4.7 4.7 10.45 5.45 4.25.55 4.75 5.75m-20.7-40.15.2-.65 1.65-2.45 1.45 2.1-1.05 1.9-.7-.95-1.55.05" fill="#252d44" transform="translate(-47.05 -61.6)"/><path d="m92.55 80.6-.05.4q6.5-4.5 8.1-8l1.55-3.75.1-.25.8 4.8q3.85-2.75 6.5-5.25 3.25-2.95 6.2-6.85l.6.65-.3 5.4q-1.5 6.35-4.5 13.25-3.4 7.7-7.85 13.95l-1.3-13.85q-.35-2.35-2.15-2.8-3.65 2.15-7.65 3.9v.15l-.15 2.15q2.7 2.9 2.45 4.6.5 3.05-6.2 3.15l-3.35 2.55q-3.55 2.1-5.4.55l-.15.85-.35 2.6q.5.7 1.3.95l.55-1.4q.55-1.6 4.15-3.45l2.7-1.3q6.05-2.65 12.45 1.45v1l.05.95q.4-.65.4-1.15l-.35-.85-1-1.5-.55-.5q-4.9-3.7-3.15-5.5l2.35-2.75-.25-.3.6-.15.2.15q.5 3.35 1.75 4.85l2.25 2.7.55 1.75.1 1.35-3.95 4.85q-5.8 6.5-17.25 9.75l-1.7.5-.4-7.2q-2.55-.05-2.6-4.65l1.4-4.65.15-.7-1.9 1.6q-3.2 6.55-3.3 13.35v.75l.2 2.85-1.4.25-1.35.2q-.5-5.2-4.75-5.75-5.75-.75-10.45-5.45-4.7-4.7-5.85-12.85-1.25-8.15-.15-14.4l.35-1.15.15-.55 1.55-.05.7.95.75 1.5-.35 1.1v.05L52.15 80q1.55 4.35 3 6.05l10.9-3.75 2.75-.25 2.1-3.65q1.8-2.9 3.75-5 2.2-.35 2.9.55l.2.3v-.2q2 1.1 2.9 1.25l2.2.3 2.2.05 1.7-.35v-.05l.4-.2q5.1-3.05 5.4 4.25l-.05.45.05.85m-4.85-3.5q-5.4 2.4-10 0-.6.5-1.25 2.2l-.1 2.45q.3 5.1 6.1 2.1.65.45-.1 1.3l.1-.05q.85.6-.7 1.9-1.6 1.3-2 3.9l.2.9.35.65 2.1-.1q3.3-2.6 7.05-4.05h.15l.4-1.2q.2-.4.05-1.15Q88.85 84 87 84.2h-.2q-.35-.35-.15-.7 1.35-2.05 1.6-3.7.2-1.55-.55-2.7" fill="#81c7eb" transform="translate(-47.05 -61.6)"/><path d="M87.7 77.1q.75 1.15.55 2.7-.25 1.65-1.6 3.7-.2.35.15.7h.2q1.85-.2 3.05 1.75.15.75-.05 1.15l-.4 1.2h-.15q-3.75 1.45-7.05 4.05l-2.1.1-.35-.65-.2-.9q.4-2.6 2-3.9 1.55-1.3.7-1.9l-.1.05q.75-.85.1-1.3-5.8 3-6.1-2.1l.1-2.45q.65-1.7 1.25-2.2 4.6 2.4 10 0" fill="#f1ffff" transform="translate(-47.05 -61.6)"/><path d="M167.05 151.25V151h.05l-.05.25m-63.35-56.3-.15.15-.1-1.35-.55-1.75-2.25-2.7q-1.25-1.5-1.75-4.85l-.2-.15-.6.15.25.3L96 87.5q-1.75 1.8 3.15 5.5l.55.5 1 1.5.35.85q0 .5-.4 1.15l-.05-.95v-1q-6.4-4.1-12.45-1.45l-2.7 1.3q-3.6 1.85-4.15 3.45l-.55 1.4q-.8-.25-1.3-.95l.35-2.6.15-.85q1.85 1.55 5.4-.55l3.35-2.55q6.7-.1 6.2-3.15.25-1.7-2.45-4.6l.15-2.15v-.15q4-1.75 7.65-3.9 1.8.45 2.15 2.8l1.3 13.85M80.65 110.2l-6.45 1.35-.2-2.85v-.75q.1-6.8 3.3-13.35l1.9-1.6-.15.7-1.4 4.65q.05 4.6 2.6 4.65l.4 7.2m-26.6-39.35.4.7-.7 2.7-.75-1.5 1.05-1.9m12 11.45.1-.05 4.65-8.1 14.5-9.8h3.9l3.55 6q.55 4.45-.2 10.25l-.05-.85.05-.45q-.3-7.3-5.4-4.25l-.4.2v.05l-1.7.35-2.2-.05-2.2-.3q-.9-.15-2.9-1.25v.2l-.2-.3q-.7-.9-2.9-.55-1.95 2.1-3.75 5l-2.1 3.65-2.75.25m72.2 55.45-.15-.2.2-.15.3-.3-.35.65" fill="#6294af" transform="translate(-47.05 -61.6)"/><path d="m85.3 64.35 2.45-1.75 1.55-1q2.7 3.45 3.45 8.75l-3.55-6h-3.9" fill="#587489" transform="translate(-47.05 -61.6)"/><path d="m117 63.25-.05-.15.05-.05v.2" fill="#82c6eb" transform="translate(-47.05 -61.6)"/><path d="m116.35 62.35.6.65-.9 4.75.3-5.4" fill="#6493af" transform="translate(-47.05 -61.6)"/><path d="M81.7 71.6q1.45-3.1-.15-3.4 1.95-1.3 4.55-2.2.55 1.55 0 2.85l-4.4 2.75" fill="#82c6eb" transform="translate(-47.05 -61.6)"/><path d="m81.7 71.6-1.5.95q-2-.8.15-3.55l1.2-.8q1.6.3.15 3.4" fill="#f0feff" transform="translate(-47.05 -61.6)"/></g><g id="l" fill-rule="evenodd"><path d="m86.25 76.7.05.25-1.05 1.15-4.6.2q-2.35-.4-2.9-2.4v-.4q-.1-1.8.55-4.25.4.1 1 2.7 8-5.05 9.6-5.4 1.4 1.3-.55 5.85v-.2l.05-2.85q-1 .05-2.4 1.2l-.35 1.5h-.15l-.4-.9-.8.45-4.3 2.7q.4.6 1.4.9h.05l3.25.25q.7-.8.8-1.8.2.5 0 1.4l.75-.35" fill="#252d44" transform="translate(-77.75 -68.55)"/><path d="m85.65 74.05.35-1.5q1.4-1.15 2.4-1.2l-.05 2.85-.15-1.55q-.7 2.3-1.3 2.4-.65-2.45-1.25-1" fill="#cfd9db" transform="translate(-77.75 -68.55)"/><path d="m86.25 76.7-.75.35q.2-.9 0-1.4-.1 1-.8 1.8l-3.25-.25h-.05q-.25-.1.6-.7l.9-.7 1.4-1.3v-.9l.8-.45.4.9h.15q.6-1.45 1.25 1 .6-.1 1.3-2.4l.15 1.55v.2l-.25.4-.25.4-1.3 1.5-.1.05v-.05l.1-.15-.3.15" fill="#fff" transform="translate(-77.75 -68.55)"/><path d="M81.4 77.2q-1-.3-1.4-.9l4.3-2.7v.9l-1.4 1.3-.9.7q-.85.6-.6.7" fill="#814c2c" transform="translate(-77.75 -68.55)"/></g><g id="m" fill-rule="evenodd"><path d="m21.75 13.05-.35.55-.3.45-1.15 1.7q-2.3 3.5-3.15 5.9-1.65 3.85-.35 3.95 3.5-3.35 7.4-5.5 3.05 6.75 4.45 19.35-7.9-3.5-13.1-2.4l3.85 2.75.15.1q6.3 4.9 10.4 11.3-.8 10.65-2.4 11.9-2.45-5.8-6.6-12.05 2.35 8.6 3.6 15.9l.1.5q.4 4.2-2 1.35-2.75-18.95-7.5-31.6l-2.05-5q1.2-8.15.35-15.7-.35-3.25-1.1-6.4 1.95-4 4.7-4.05h.25L18.8 7.9q1.85 2.15 2.95 5.15" fill="#f1ffff"/><path d="M7.05 8.05q5.05-4.8 9.25-6.2l.4.05 2.95.9 1 .55.75.6.05.1.6 1.25 1.05 2.35.1.25.45 1.2.2.8v.1l-2.1 3.05q-1.1-3-2.95-5.15l-1.85-1.85h-.25q-2.75.05-4.7 4.05.75 3.15 1.1 6.4.85 7.55-.35 15.7l2.05 5q4.75 12.65 7.5 31.6 2.4 2.85 2-1.35 2.15 12.8.95 21.3-2.6 6.15-6 1.6l-.9-.35-.35-.1q1.5-16.2-.9-31.8-1.05-6.95-2.9-13.8-1.85-7-4.55-13.85v-.2l-.6-1.75-.5 8.9Q8 46.25 8 49.25 8 60.2 11.8 75.2q2.7 10.8 5.35 15.05l-.25 2.65Q-10.95 60.3 7.05 8.05m16.8 12.05.65-.35.15-.1 1.45-.75q4.65 14.3 5.1 22l-2.9-1.45q-1.4-12.6-4.45-19.35m5.75 31.1 2.5 4.5q-.55 10.85-1.85 17.9-.8-5.05-3.05-10.5 1.6-1.25 2.4-11.9" fill="#82c6eb"/><path d="m21.75 13.05 2.1-3.05v-.1l-.2-.8-.45-1.2-.1-.25-1.05-2.35-.6-1.25-.05-.1-.75-.6-1-.55-2.95-.9-.4-.05q-4.2 1.4-9.25 6.2l-.45.4.65-.95q.2-1.85 1-2.85 7.4-8.25 15.35-1.9 2.6 6.35 4.35 11.95l.85 3 4.55 17.7-.05.15-.05-.4.05.5q.05 3.1-.45 2.3-.25 1.75-.2 3.15v.45l-1.45-.65q-.45-7.7-5.1-22l-1.45.75h-.15v.1l-.65.35q-3.9 2.15-7.4 5.5-1.3-.1.35-3.95.85-2.4 3.15-5.9l1.15-1.7.3-.45.35-.55m1.35.1-1.8 2.45q-2.35 3.5-3.9 7.65 2.75-2.8 5.9-4.35l.95-.45 1.8-.65-1.65-6.25-1.3 1.6" fill="#252d44"/><path d="M23.1 13.15q.45.65.75 2.1l.4 3.2-.95.45q-3.15 1.55-5.9 4.35 1.55-4.15 3.9-7.65l1.8-2.45m4.7 27.45.35 4.85-.25 1.6q-4-4.9-10.3-9.55 4.5.3 10.2 3.1m-1 24.65q-.35 2.75-1.45 2.7-1-5.7-2.7-12.2l3.4 7.55.5 1.3.25.65" fill="#01ffe7"/><path d="m24.25 18.45-.4-3.2q-.3-1.45-.75-2.1l1.3-1.6 1.65 6.25-1.8.65M27.8 40.6l.65.3 3 1.65q.8 6.05.5 10.75-1.6-3.15-4.05-6.25l.25-1.6-.35-4.85m-2.45 27.35q1.1.05 1.45-2.7 2.6 6.9 2.55 10.85-1.2 6.5-2.55 9.1.3-7.4-1.45-17.25" fill="#0ac0a7"/><path d="M17.15 90.25Q14.5 86 11.8 75.2 8 60.2 8 49.25q0-3 .55-11.85l.5-8.9.6 1.75-.05.05.05.15q2.7 6.85 4.55 13.85 1.85 6.85 2.9 13.8 2.4 15.6.9 31.8l-.8-.15-.05.5" fill="#81c7eb"/><path d="m31.2 40.9 1.45.65v-.45q-.05-1.4.2-3.15.5.8.45-2.3l-.05-.5.05.4q1.25 9.4 1.35 15.4.05 7.05-.35 10.5-1.2 7.2-1.45 10.35l-2.1 9.55q-2.6 9.05-3.9 10.45-4.1 5-9.95 1.1l.25-2.65.05-.5.8.15.35.1.9.35q3.4 4.55 6-1.6 1.2-8.5-.95-21.3l-.1-.5q-1.25-7.3-3.6-15.9 4.15 6.25 6.6 12.05 2.25 5.45 3.05 10.5 1.3-7.05 1.85-17.9l-2.5-4.5q-4.1-6.4-10.4-11.3l-.15-.1-3.85-2.75q5.2-1.1 13.1 2.4l2.9 1.45m-3.3 6.15q2.45 3.1 4.05 6.25.3-4.7-.5-10.75l-3-1.65-.65-.3q-5.7-2.8-10.2-3.1 6.3 4.65 10.3 9.55m-2.55 20.9Q27.1 77.8 26.8 85.2q1.35-2.6 2.55-9.1.05-3.95-2.55-10.85l-.25-.65-.5-1.3-3.4-7.55q1.7 6.5 2.7 12.2" fill="#252c46"/></g><g id="n"><path d="M35.65 32.35 38 27.6q-2.35-.85-1.3-1.7.9-.2 2.1.6 4.45-8.4 15.65-21.4L55.4 4l-2.75 1.1Q42.2 10 27.55 25.9h1.05l.3-.4q.65-.85 2.85-2.7 1.1.6 1.2 1.9v.05l-.15.1-4.95 5-.6.5-.3.3-.15.15v-.3l.55-.9.15-.2.2-.25.75-.85.1-.1.1-.1.35-.45 3.05-3.1-.15-.1h-.05v-.05l-.3-.15-1.4 1.55-1.1 1.1-.35.05h-.5l.1-.05-.15.05h-.1l-.15.15-.55-.05-.9.05-3.55 4.4 2.7 2.5-.2.5q-4.3 11.85-6.65 12.3-2.1-.05-4.9-1.85l-1.75 3.4.6.25q1.45.75 3.3 2.45l-.1.3-1.05 3.75-.95 2.9-1.2 3.2-.45 1.1v.05q.1 1.55-.7 2.35l-1.75.05q-1.2-.35-3.2-1.4l-.7 3.9Q7 68 9.8 68.4l1.6.2-.1 7.35-.15 2-.2 3.45-.8.6-.35.2h-.05l-.4.2-.15.1h-.05l-.2.1-2.05.05q.6.1 1.5-.65l1.15-1.15.05-2.9.15-2 .05-1.15.3-3.3-1.25-1.8-2.7-.65-.4.15q-.75.65-.65 3.05l2.95.45q.5.15-.05 3.25l-.1.25v.3l-.1 1.45v.1l-.1 1.15q-1.3.75-3.45.4v2.2l.15.2q2.2 2.05 3.15 1.9l2.25.25 2.9.15h2.4l2.8-.45q1.35-.35 2.3-.85l1.35-1 .1-.1q1.25-.95 1.65-5.95l.1-1.55h-.5l-.35.1-.05.05-.1.1-.1.05h-.05l-.3.35-.35.9-.1 1.65v.3q-1.1.85-.95-1.55v-.4q-.4-3 2.2-2.55l.85.2q-.15-1.05.55-5.35l-.6.4q-1.55.85-3.65.65l-.05 1.1-.5 7.9-.25 3q-.75.8-.95-.65L18.1 80v-.9l.1-3.15.65-7q-.7-.5.3-1.05l.25.05h1.55l.65-.05h.05l.1-.05 2.05-.75h.1l.55-.35.3-2h-.3l-.25.05h-.05l-1.4.05-.65-.05-.1-.05-1.95-.5q-1.3-.7-.4-1.2.5-4.8 1.45-7.95.75-2.35 1.8-3.75l.2-.3q1-1.2 2.3-1.45l.55-.05q1.2-.05 2.6.7l1.2-3.95 1.85-5.1-.15-.05-1-.5-.5-.45-.1-.2.2-.4h.2l.05-.05q.9-.3 1.95.3L33.9 36l-3.3-.2-.45.65-.4.65Q28.3 39.55 27 43.9l-.3.95q2.05 1.45.2 1.4h-.1q-.8-.25-1.4-.85l-.3-.4.3-2.25q1-5.1 4.3-8.7h.05q1.95-.05 4.6.85l.95-1.8.35-.75M3.6 105.3h-.05l-1.35-1.85q-.65-1.05-.95-2Q.2 95 .1 88.8v-1.45L0 83.6v-.8l.05-.8.3-4.05.2-2q.55-4.8 1.65-9.5l1-4.1L4.6 58l1.05-2.9 1.5-3.75.15-.3 2.5-5.2 2.9-5.2q3.4-5.75 7.7-11.25l.4-.6 4.2-5 .4-.5Q35.3 11.05 44 5.1l2.8-1.75q1.8-1.05 3.6-1.8 3-1.05 5.1-1.4 5.25-.85 4.1 3.2l-.7 1.75-.5 1-8.4 9.15-7.2 12.15q-9.25 14.75-13.5 33.45Q26.75 75.2 26.65 82q-.05 2.35.2 3.8.9 5.3 2.65 9.2l.2.5q.55 1.45-1.65 1.4-.1.2.3.95-1.15 2.05-2.95 3.6-4.45 3.85-12.7 4.3l-2.9.05H8.45q-3.15-.8-3.9-.65l-.85.15h-.1m15.15-65.2q-1.2-.25-1.45-.7l-.55.85v.05L15 43.1l-.35.55q1.2 1.3 3.55 1.8 3.3-2.95 5.8-11.2l-1.25-1.05q-.35.15-.75.4-2.2 1.3-4 4.8 1.45.75 1 1.7h-.25M7.25 61.25 7 61.9l1.05.45 2.05.7.95-.7 1.65-3.45.3-.9.85-2.9.45-1.55-.3-2.2-.05-.05-2.55-1.65-.3.65-.75 1.55 1 3.25q.4 1.8.15 2.9l-.05.25q-.55.55-1.95-.25l-1.1-.7-.1.35v.15l-.05.15-.75 2.75-.25.55m1.6-4.85 1.5.65-.2-1.95-.55-1.55-.25.75-.6 2 .1.1m19.25-4.9v-.05l.05-.05v-.05l-2.2-.75-.55.65-.1.1-.1.1-1.55 1.2h-.15l-.1.05h-.1l-.9 2.4q-1.6 4.55-1.05 6.65.5 2.1 3.1 1.7l.5-.1.45-2.25 2.3-8.45.4-1.15m-6.6 37.2.35.5.4.45q.4.15 1.25-.4-.55-3-.35-6.2L21.4 84.8l-.2.1-.05.5-.05 1.6q0 .8.25 1.45l.15.25m1 6.15.25 1.2q.85-.4 1.6-3.3-.3-.5-.55-2h-1.4l-.05 1.1.05 2.2.1.8M19 102.2q2.45-.9 4.8-2.45.9-.7 1.6-1.9l.75-1.45q-.05-.85-.5-1.55l-.25.45q-.6 1.1-1.6 2-2.7 1.9-4.85 2.75l-.95.3-4.2.75h-1.1l-1 .05-1.9-.15q-3.6-.5-5.2-1.85-.1 2.75 2.85 3.65l2.35.45 2.9.2q3.15-.1 6.2-1.2l.1-.05M7.15 91.25q.65 1.05 1.75 1-.35-1.85-.4-3.9v-2.4l-.9-.2-.9-.2v4.5l.45 1.2m11.6-5.9-.65.6-.05 1.1v.5q-.1 2.15.35 3.35l.6.7q1.05.8 1.55-2.45-.95-1.45-.5-4.2-.7-.15-1.3.4M4.95 73.5q-.3.35-.45 2.45l-.1 2v.3h2.15l.25-3.05q-.75-.8-.6-1.7H4.95m-.8 18.05q1.55.95 1.8-3.2V85.1l-1-.3-.8-.75v7.5m2.3.1-.5.6.6 1.05.5-.6-.6-1.05m-1.6.9-.6-.05v4.45l.3.25 1.15.9q.4-3.75.15-4.95l-.35-.5-.65-.1m1.75 4.4v.7l.05 1.1.8.25 1.95.45q-.65-2-.3-3.4.25-1.5-.65-2.55l-.55-.1q-.35 0-.65.3l-.1.25q-.25.3-.35.9l-.2 2.1m6.9-9.4v.55l.05.25q.15 2.2 1 3.15l.7.6q1.9 1.2 1.85-3.6v-2.55l-2.05.15-1.55.15v1.3m3.95 5.2.45.65.3-1.3-.3-.5-.45 1.15m-1.4.45h-.85l-.1.5-.25.9q-.5 1.95-.2 3.35l.15.45.05.2.35.7 1.6-.4 1.55-.4q-.6-1.2-.5-4.05-.4-.9-.95-1.25h-.85m4.8 4 1.2-.6q-.4-2.45-1.65-4.2l-.7.15-.8.1-.05.6-.1 1 .15 2.4.1.25q.05.55.25 1.1l1.6-.8m.75-6.6-.35-.45-.6 1.7.75.7.2-1.95m-10.9 2q1.2 1.1 2-1.25l.2-.75-.3-4.35H9.5l.1 1.2v1.15l.15 2.65.05.15.9 1.2m-.3 1.6-.15.65q-.5 1.8-.05 3.65v.05l.3 1.1 1.3-.1v.05l2.4-.15q-.5-.05-.6-3.3-.3-1.85-.7-2.5l-.2.1-.9.25-1.25-.2-.1.3-.05.1m-.45-.75-.45-.65-.35.45.45.6.35-.4m3.75-1.6-.45 1.35.05.05q.4.25.6.95-.05-.85.5-1.45-.65-.25-.7-.9" fill="#42431b" fill-rule="evenodd"/><path d="m27.25 30.35.6-.5 4.95-5 .15-.1v-.05q-.1-1.3-1.2-1.9-2.2 1.85-2.85 2.7l-.3.4h-1.05Q42.2 10 52.65 5.1L55.4 4l-.95 1.1q-11.2 13-15.65 21.4-1.2-.8-2.1-.6-1.05.85 1.3 1.7l-2.35 4.75-.15-.05-1.05 1h-.05l-.05.05v-.2l.4-1.25.5-.9q-2.05 2.75-2.85 3.1-.85.35-.25-1.9-.65.8.55-1.15-1.35 1.85-1.2 1.25.15-.6-.15-.4l-.5.45-.05.05-.1.05v-.2l-.65-.1-.3.25-.15.1.05-.25.1-.65.4-.75.05-.2-.45.45-.95.6h-.05v-.2l.4-1.05-.5.5q-.65.55.3-.75l-.75.55q-1 .65.4-.65-1.9 1.25-1.9 1l.55-.75" fill="url(#r)" fill-rule="evenodd"/><path d="m27.25 30.35-.55.75q0 .25 1.9-1-1.4 1.3-.4.65l.75-.55q-.95 1.3-.3.75l.5-.5-.4 1.05v.2h.05l.95-.6.45-.45-.05.2-.4.75-.1.65-.05.25-.2.3-.4.3q-2.05 4-3.6 7.55-2.3 5.35-3.55 9.8l-.2.6-.05.3-1.15 3.75L19 59.7l-1.1 5.15-1.15 5.4-.25 1.05-1.1 4.65-.65 2Q13.7 80.8 12.6 82q-.7.75-1.4.85l-2.65.05.4-.3H9l.15-.1h.05l.15-.1.4-.2h.05l.35-.2.8-.6.2-3.45.15-2 .1-7.35-1.6-.2Q7 68 5.9 67.25l.7-3.9q2 1.05 3.2 1.4l1.75-.05q.8-.8.7-2.35v-.05l.45-1.1 1.2-3.2.95-2.9 1.05-3.75.1-.3q-1.85-1.7-3.3-2.45l-.6-.25 1.75-3.4q2.8 1.8 4.9 1.85 2.35-.45 6.65-12.3l.2-.5-2.7-2.5 3.55-4.4.9-.05.55.05.15-.15q-.35.45.15 0-.45.5.5 0l.35-.05 1.1-1.1.3-.3.75-.6.65-.5v.05h.05l-1.6 1.75-1.3 1.45-.35.45-.1.1-.1.1-.75.85-.2.25-.15.2-.55.9v.3l.15-.15.3-.3m-23 50.35v-1.1q2.15.35 3.45-.4l.1-1.15v-.1l.1-1.45v-.3l.1-.25q.55-3.1.05-3.25l-2.95-.45q-.1-2.4.65-3.05 2.05.95 3.2 1.95.15 1.6-.1 4.8l-.15 2-.4 3.1-1.05.95q-.75.35-1.55 0-.7-.3-1.45-1.3m12.5-40.45.15-.2 1.85.05H19q.45-.95-1-1.7 1.8-3.5 4-4.8l.85 1.45q-2.05 5.6-4.65 9.65-1.95.2-3.2-1.6l1.75-2.8v-.05m-9.5 21 .25-.55.75-2.75.05-.15v-.15l.1-.35 1.1.7q1.4.8 1.95.25l.05-.25q.25-1.1-.15-2.9l-1-3.25.75-1.55q1 .1 1.65.75l.15.15.1.15.55 1.8L10.3 62q-1.75-.05-3.05-.75m11.3-9.9-1.6 3.75-.45 1.55-.4 1.35-1.4 4.35-.15.55q-1.1 2.9-2.15 10.5.05 1.5 2.25.5 1.2-5.65 1.75-11.3l.05-.25.3-1.85q.5-2.8 1.35-5l.1-.4 1.25-3.75.1-.3 1-3.75-1.9 3.75-.1.3m-9.8 4.95.6-2 .5 2.05h-1l-.1-.05M6 74.4l-.15 3.35H4.8l.15-3.35H6" fill="#ffff01" fill-rule="evenodd"/><path d="M28.2 26.95h.5q-.95.5-.5 0m1.95-1.15 1.4-1.55.3.15-.65.5-.75.6-.3.3m1.75-1.35.15.1-3.05 3.1 1.3-1.45 1.6-1.75" fill="#51b872" fill-rule="evenodd"/><path d="m29.6 32.5.15-.1.3-.25.65.1v.2l.1-.05.05-.05.5-.45q.3-.2.15.4-.15.6 1.2-1.25-1.2 1.95-.55 1.15-.6 2.25.25 1.9.8-.35 2.85-3.1l-.5.9-.4 1.25v.2l.05-.05h.05l1.05-1 .15.05-.35.75-.95 1.8q-2.65-.9-4.6-.85h-.05q-3.3 3.6-4.3 8.7L25.1 45l.3.4q.6.6 1.4.85l-.85 3.3-.55.05q-1.3.25-2.3 1.45l-.2.3q-1.05 1.4-1.8 3.75-.95 3.15-1.45 7.95-.9.5.4 1.2l1.95.5-1 3.15-.05.05H19.4l-.25-.05q-1 .55-.3 1.05l-.65 7-.1 3.15v.9l.05.65-.25.5-.45.85q-1.05 1.9-2.35 2.3h-2.4l-2.9-.15-2.25-.25q-.95.15-3.15-1.9l-.15-.2v-1.1Q5 81.7 5.7 82q.8.35 1.55 0l1.05-.95.4-3.1.15-2q.25-3.2.1-4.8-1.15-1-3.2-1.95l.4-.15 2.7.65 1.25 1.8-.3 3.3-.05 1.15-.15 2-.05 2.9L8.4 82q-.9.75-1.5.65l2.05-.05-.4.3 2.65-.05q.7-.1 1.4-.85 1.1-1.2 2.15-4.05l.65-2 1.1-4.65.25-1.05 1.15-5.4L19 59.7l1.45-4.6 1.15-3.75.05-.3.2-.6q1.25-4.45 3.55-9.8 1.55-3.55 3.6-7.55l.4-.3.2-.3M27 43.9q1.3-4.35 2.75-6.8l.4-.65 1.45.5-1.35 2.6v.05h-.2l-.2.4.1.2v.05L27.7 44.4l-.7-.5m-7.65 34.4.5-7.9.95.3-1.45 7.6M9 82.6h-.05H9m12.35-20.85q-.55-2.1 1.05-6.65l.9-2.4h.1l.1-.05h.15l1.55-1.2L22.5 62l-1.15-.25m-2.4 38.3q2.15-.85 4.85-2.75 1-.9 1.6-2l.25-.45q.45.7.5 1.55l-.75 1.45q-.7 1.2-1.6 1.9-2.35 1.55-4.8 2.45.25-1.1-.05-2.15" fill="#c8cb00" fill-rule="evenodd"/><path d="m18.75 40.1-1.85-.05-.15.2.55-.85q.25.45 1.45.7m-3.75 3q1.25 1.8 3.2 1.6 2.6-4.05 4.65-9.65L22 33.6q.4-.25.75-.4L24 34.25q-2.5 8.25-5.8 11.2-2.35-.5-3.55-1.8l.35-.55m-3.9 7.2.3-.65 2.55 1.65.05.05.3 2.2-.45 1.55L13 58l-.3.9-1.65 3.45-.95.7-2.05-.7L7 61.9l.25-.65q1.3.7 3.05.75l3.25-8.85-.55-1.8-.1-.15-.15-.15q-.65-.65-1.65-.75m7.45 1.05.1-.3 1.9-3.75-1 3.75-.1.3-1.25 3.75-.1.4q-.85 2.2-1.35 5l-.3 1.85-.05.25q-.55 5.65-1.75 11.3-2.2 1-2.25-.5 1.05-7.6 2.15-10.5l.15-.55L16.1 58l.4-1.35.45-1.55 1.6-3.75m-9.2 2.95.25-.75.55 1.55.2 1.95-1.5-.65v-.05h1l-.5-2.05M36.9 96.8h-.05l-.95-.4q2.8-1.95 3.2-2.75l.95.2q-2.25 1.1-3.15 2.95" fill="#f6f6f6" fill-rule="evenodd"/><path d="M26.8 46.25h.1q1.85.05-.2-1.4l.3-.95.7.5 2.25-4.15v-.05l.5.45 1 .5.15.05-1.85 5.1-1.2 3.95q-1.4-.75-2.6-.7l.85-3.3M22 64.75l.1.05.65.05 1.4-.05-.25 2.3h-.1l-2.05.75-.1.05H21l1-3.15m-3.85 15.9q.2 1.45.95.65l.25-3 1.45-7.6-.95-.3.05-1.1q2.1.2 3.65-.65l-.8 4.75q-2.6-.45-2.2 2.55v.4q-.15 2.4.95 1.55v-.3l.1-1.65.35-.9.3-.35h.05l.1-.05.1-.1.05-.05-.05 1.45q-.35 3.65-1.7 6.05l-.6 1q-.95.5-2.3.85l-2.8.45q1.3-.4 2.35-2.3l.45-.85.25-.5m7.05-29.2.1-.1.1-.1.55-.65 2.2.75v.05l-.05.05v.1q-.9 1.7-1.55 3.55l-1.15 3.6q-.6 2.25-.95 4.75-2.6.4-3.1-1.7l1.15.25 2.7-10.55" fill="#7e7f00" fill-rule="evenodd"/><path d="m30.15 36.45.45-.65 3.3.2-1.65 3.85q-1.05-.6-1.95-.3h-.05l1.35-2.6-1.45-.5" fill="#7b7d00" fill-rule="evenodd"/><path d="M24.15 64.8h.05l.25-.05h.3l-.3 2-.55.35.25-2.3m-.6 3.85.6-.4q-.7 4.3-.55 5.35l-.85-.2.8-4.75m-1 5.85.35-.1h.5l-.1 1.55q-.4 5-1.65 5.95l-.1.1-1.35 1 .6-1q1.35-2.4 1.7-6.05l.05-1.45m5.55-23-.4 1.15-2.3 8.45-.45 2.25-.5.1q.35-2.5.95-4.75l1.15-3.6q.65-1.85 1.55-3.55v-.05" fill="#00d081" fill-rule="evenodd"/><path d="M29.5 95q6.45-2.5 8.5-5l2.3-2.95 1.7-3.7h-.05l1.6-3.7.05-.15q4.15-7.95 8.15-7.6 2.15 0 4 1.2l1.05.75h.05q2.35 2 4.25 6.4l.15.4v-.05q1.95 4.85 2.45 10l.15 3.2q0 6.55-2.5 13.05-2.25 5.7-5.5 9.15v-.05L50 122.4v.05q-.8.8-4 1.85l-.05.05-.05.05-.1.05h-.15l-.05.05-.15.05-.15.05-4.3 1.65-3.9 1.15h-9.5l-2.2-.35q-8-1.6-12.7-6.65l-1.45-1.8q-.75-1-4.35-7.3l-3.3-6h.1l.85-.15q.75-.15 3.9.65l1.35 3.55.35.7q1 2.15 2.55 4.6l.05.05 7.15-.2q2.75-1 4.65-2.2l.85-.65 2.85-3.1 1.55-1.9q0 1.2-.65 2.7-1.45 2.65-3.75 4.25-1.35 1-3.05 1.6-3.5 1.3-8.35 1 5.95 6.45 11.4 7.05 8.2.85 15.3-11.5l.65-1.2q-1.65 6.6-6 10.55-2.15 1.9-4.9 3.2l6.1-.45q2.75-.7 4.5-2.15 1.8-2.1 3.45-4.95l.85-1.55-.05 1.55-.65 1.7-.65.95.7-.45.65-.5q.9-.85 1.4-1.95l-1.3 4.2 2-.9h.05l5.65-6.2.05-.1q2.8-3 4.75-7.95Q60.2 99.7 60.2 93.8l-.15-2.85q-.3-3.8-1.55-7.3l-.6-1.7-.15-.3v-.05q-1.2-2.9-2.7-4.45l-.55-.55-.6-.45-.1-.05q-.9-.6-2.05-.6-2.15.35-4.9 5.65L45.3 84.8l-1.15 2.6-.25 1.05-.65.8-.15.3-.7.75-.25.3-1.9 2.2q3.35.8 3.1 2.5-1.2-.9-3.3-1.45l-.95-.2q-.4.8-3.2 2.75l.95.4h.05l3.15 1.65 1.5 1.35q.5.55.75 1.4-1.15-1-2.45-1.7-2.5-1.5-5.5-2.1-1.65 1.1-4.25.85L28.9 98l-.55-.15q-.4-.75-.3-.95 2.2.05 1.65-1.4l-.2-.5" fill="#252d44" fill-rule="evenodd"/><path d="M40.05 93.85q2.1.55 3.3 1.45.25-1.7-3.1-2.5l1.9-2.2.25-.3.7-.75.15-.3.65-.8.25-1.05 1.15-2.6 1.55-3.65q2.75-5.3 4.9-5.65 1.15 0 2.05.6l.1.05.6.45.55.55q-1.55 4.55-4.1 8.8-2.05 3.45-5.8 8.25l-.1-.8-.65.55.25.9q.55 2 .3 2.85-.4-1.2-1.35-2.15l-2.1 2.1q1.1 2.65.8 3.55-.25-.85-.75-1.4l-1.5-1.35-3.15-1.65q.9-1.85 3.15-2.95m-9.95 4.4q2.6.25 4.25-.85 3 .6 5.5 2.1-3.4 2.8-6.1.35-1.8-.35-3.65-1.6" fill="#d1ccc6" fill-rule="evenodd"/><path d="m22.25 89.65-.4-.45-.35-.5q.45.15.75-.25v1.2m-1.1-4.25.05-.5.2-.1.2.5-.45.1M6.7 86.65v-1.1l.9.2.25 2.6.05.3-.1-.3q-.2-1.65-1.1-1.7m11.35.4.05-1.1.65-.6.25.75q-.55-.1-.95.95M4.95 84.8l.25 1.3-1.05-.7v-1.35l.8.75m-.7 8.05v-.35l.6.05.2 1.5-.8-1.2m.3 4.35-.3-.25V95.5l.05.15q.25.75.75 1-.15.75-.5.55m2.05 0 .05-.15q.3.85 1.3 1.2.35-4.7-.8-4.3l.1-.25q.3-.3.65-.3.9 2.25.5 5.5l-.95.1-.8-.25-.05-1.1v-.45m9.25-8.8-.05-.05q-1.35-1.25-2.3-.8v-1.3l1.55-.15.8 2.25v.05m-.75 5.3.1-.5h.85q1.85 2.85.75 5.7l-1.6.4-.35-.7-.05-.2 2.1-.3q.15-4.55-1.8-4.4m4.6-1.15q1.6 2.3 1.15 4.65l-1.6.8q-.2-.55-.25-1.1.75-.1 1.2-.65.3-2.15-1.35-3l.05-.6.8-.1m-8.5-6.3.65 2.1q.65 2.8-.15 3.75v-.05q.55-1.1-.4-3.7l-.35-.9H9.6l-.1-1.2h1.7m-1 12.3q1.1.5 2 0l-.4 1-1.3.1-.3-1.1m2.15-2q-.4-2.5-1.95-2.35l.05-.1.1-.3 1.25.2.55 2.55" fill="#d8d784" fill-rule="evenodd"/><path d="M22.25 89.65v-1.2q-.1-1.8-.6-3.1l-.05-.05-.2-.5 1.75-1.75q-.2 3.2.35 6.2-.85.55-1.25.4m.85 1.1h.7q.25 1.5.55 2-.75 2.9-1.6 3.3l-.25-1.2q1.4-1 .6-4.1m-15.5-5 .9.2v2.4q.05 2.05.4 3.9-1.1.05-1.75-1 .85.95.75-1.9v-.7l-.05-.3-.25-2.6m11.4.35-.25-.75q.6-.55 1.3-.4-.45 2.75.5 4.2-.5 3.25-1.55 2.45l.6-1.35q.3-1.65-.6-4.15M4.95 84.8l1 .3v3.25q-.25 4.15-1.8 3.2 1.4-.05 1.3-3.2L5.2 86.1l-.25-1.3m1.5 6.85.6 1.05-.5.6-.6-1.05.5-.6m-1.4 2.4-.2-1.5.65.1.35.5q.25 1.2-.15 4.95l-1.15-.9q.35.2.5-.55v-2.6M7.45 99l.95-.1q.4-3.25-.5-5.5l.55.1q.9 1.05.65 2.55-.35 1.4.3 3.4L7.45 99m8.6-8.05q.2-1-.2-2.55v-.05l-.8-2.25 2.05-.15v2.55q.05 4.8-1.85 3.6.6-.35.8-1.15m1.4 1.8.45-1.15.3.5-.3 1.3-.45-.65m-.65 6.15q1.1-2.85-.75-5.7h.85q.55.35.95 1.25-.1 2.85.5 4.05l-1.55.4m2.9-6.35.7-.15q1.25 1.75 1.65 4.2l-1.2.6q.45-2.35-1.15-4.65m1.9-1.95-.2 1.95-.75-.7.6-1.7.35.45m-10.4-4.35h1.4l.3 4.35-.2.75q-.8 2.35-2 1.25l.75-.25.25-.2v-.05q.8-.95.15-3.75l-.65-2.1m1 12.3.15-1.8v-.2L11.8 94l.9-.25.2-.1q.4.65.7 2.5.1 3.25.6 3.3l-2.4.15v-.05l.4-1m1.5-6.7q.05.65.7.9-.55.6-.5 1.45-.2-.7-.6-.95l-.05-.05.45-1.35m-3.75 1.6-.35.4-.45-.6.35-.45.45.65" fill="#d09d44" fill-rule="evenodd"/><path d="M22.25 88.45q-.3.4-.75.25l-.15-.25q.7-1-.25-1.45l.05-1.6.45-.1.05.05q.5 1.3.6 3.1m.85 2.3q.8 3.1-.6 4.1l-.1-.8q1.05-1-.05-2.2l.05-1.1h.7m-15.95.5-.45-1.2v-3.4q.9.05 1.1 1.7l.1.3v.7q.1 2.85-.75 1.9m10.9-4.2q.4-1.05.95-.95.9 2.5.6 4.15-.6-2.1-1.55-2.7v-.5M5.2 86.1l.25 2.25q.1 3.15-1.3 3.2v-.7q.9-.8.3-2.5l-.3-.65v-2.3l1.05.7m-.95 6.75.8 1.2v2.6q-.5-.25-.75-1 .75-.75-.05-1.45v-1.35m2.9 1.1q1.15-.4.8 4.3-1-.35-1.3-1.2 1.25-.35.15-2.2.1-.6.35-.9m6.35-6.4q.95-.45 2.3.8l.05.05q.4 1.55.2 2.55l-.35-.9q-1.15-.45-1.95-1.7l-.25-.25v-.55m1.6 6.15q1.95-.15 1.8 4.4l-2.1.3-.15-.45q1.75.85.2-3.35l.25-.9m3.9 3.2-.1-.25q1.25-1.1-.15-2.4l.1-1q1.65.85 1.35 3-.45.55-1.2.65m-9.4-8.3v-1.15h1.35l.35.9q.95 2.6.4 3.7-1.05-1.25-2.1-3.45m.65 6.25.15-.65q1.55-.15 1.95 2.35v.2l-.15 1.8q-.9.5-2 0 2.65-.45.05-3.7" fill="#fffaae" fill-rule="evenodd"/><path d="M21.35 88.45q-.25-.65-.25-1.45.95.45.25 1.45m1.05 5.6-.05-2.2q1.1 1.2.05 2.2M19 91.6l-.6-.7q-.45-1.2-.35-3.35.95.6 1.55 2.7L19 91.6m-14.85-.75V87.7l.3.65q.6 1.7-.3 2.5m.1 4.65v-1.3q.8.7.05 1.45l-.05-.15m2.4 1.55-.05-.1.2-2.1q1.1 1.85-.15 2.2m6.85-8.95.25.25q.8 1.25 1.95 1.7l.35.9q-.2.8-.8 1.15l-.7-.6q-.85-.95-1-3.15l-.05-.25m1.35 6.5q1.55 4.2-.2 3.35-.3-1.4.2-3.35m4.05 2.05-.15-2.4q1.4 1.3.15 2.4m-7.45-4.3-.75.25-.9-1.2-.05-.15-.15-2.65q1.05 2.2 2.1 3.45l-.25.3m-1.2 2.5q2.6 3.25-.05 3.7v-.05q-.45-1.85.05-3.65" fill="#fefef2" fill-rule="evenodd"/><path d="M8.45 105.8H9.8l2.9-.05q8.25-.45 12.7-4.3 1.8-1.55 2.95-3.6l.55.15q.4 7.75 9.75 7.1 1.1.85 1.85 3.6.75-1.55 1.25-5.1 2.2-.5 4.15-3.9l.2 1.65 7.6-9.55q2.85-4.05 4.8-8.15 1.25 3.5 1.55 7.3l.15 2.85q0 5.9-2.25 11.75-1.95 4.95-4.75 7.95l-.05.1-5.65 6.2h-.05l-2 .9 1.3-4.2q-.5 1.1-1.4 1.95l-.65.5-.7.45.65-.95.65-1.7.05-1.55-.85 1.55q-2.95 3.85-5.25 4.95-2.25 1-3.9-.6 4.35-3.95 6-10.55l-.65 1.2-.2-.45q-5.15 5.8-10.05 8.85-4.55-1.05-8.1-4.95 1.7-.6 3.05-1.6 2.3-1.6 3.75-4.25.65-1.5.65-2.7l-1.55 1.9q-3.8 2.75-8.8 3.8-1.45-1.55-3.65-2.3-2.8.45-5.65 0l-.35-.7-1.35-3.55" fill="#494440" fill-rule="evenodd"/><path d="M55.05 77.15q1.5 1.55 2.7 4.45v.05l.15.3.6 1.7q-1.95 4.1-4.8 8.15l-7.6 9.55-.2-1.65q-1.95 3.4-4.15 3.9-.5 3.55-1.25 5.1-.75-2.75-1.85-3.6-9.35.65-9.75-7.1l1.2.25q1.85 1.25 3.65 1.6 2.7 2.45 6.1-.35 1.3.7 2.45 1.7.3-.9-.8-3.55l2.1-2.1q.95.95 1.35 2.15.25-.85-.3-2.85l-.25-.9.65-.55.1.8q3.75-4.8 5.8-8.25 2.55-4.25 4.1-8.8m-18.5 46.7-6.1.45q2.75-1.3 4.9-3.2 1.65 1.6 3.9.6-1.25 1.45-2.7 2.15m4.15-12.1q-7.1 12.35-15.3 11.5-5.45-.6-11.4-7.05 4.85.3 8.35-1 3.55 3.9 8.1 4.95 4.9-3.05 10.05-8.85l.2.45m-12.45-3.2-2.85 3.1-.85.65q-1.9 1.2-4.65 2.2l-7.15.2-.05-.05q-1.55-2.45-2.55-4.6 2.85.45 5.65 0 2.2.75 3.65 2.3 5-1.05 8.8-3.8" fill="#857c73" fill-rule="evenodd"/><path d="M4.95 73.5H6.2q-.15.9.6 1.7l-.25 3.05H4.4v-.3l.1-2q.15-2.1.45-2.45m1.05.9H4.95l-.15 3.35h1.05L6 74.4" fill="#c8c900" fill-rule="evenodd"/><path d="M18.95 100.05q.3 1.05.05 2.15l-.1.05q-3.05 1.1-6.2 1.2l-2.9-.2-2.35-.45q-2.95-.9-2.85-3.65 1.6 1.35 5.2 1.85l1.9.15 1-.05h1.1l4.2-.75.95-.3" fill="#fdff00" fill-rule="evenodd"/><path d="M44.5 116.75q-1.65 2.85-3.45 4.95-1.75 1.45-4.5 2.15 1.45-.7 2.7-2.15 2.3-1.1 5.25-4.95" fill="#01ec87" fill-rule="evenodd"/><path d="m21.6 85.3.05.05" fill="none" stroke="#0f0" stroke-linecap="round" stroke-linejoin="round" stroke-width=".05"/></g><g id="o" fill-rule="evenodd"><path d="m46.5 2.55.95 1.65-.15.3v.05L45.85 9.9q1.7 4.75 3.2 6.6l1.75-.8q7.95-3.4 11.9-3.2l2.1-3.7q4.05 4.5 6.7 13.2-3.15.25-5.9 4.55-1.4 3.75-2.6 8.2-.3 10.45.15 19.7.45 12.15-2.45 20.4-5.25 12.4-11.8 15.95-20.85 13.3-29.45 11.8l-.25-.4v-.05l-.45-.65.25.8.2.65.2.75q.8 2.65 1.05 4.65-4.35 4.55-4.45 1.6.65-3-1.3-5.2-.95-.75-2.3-1.05l-2.4-.3-.65.3q-1.65.75-2.85 1.85l-1.1 1.1q-3.05 1.25-1.5-2.95l1.7-3.6q.1-.4.9-1.2Q8.35 97 13.75 93l.35-.1q-2.05 1.45-2.45 3.5-3.6.95-5.8 5-.1 1.65 1.45 1.8 5.6-1.5 7.85.85 2.25 2.3 2.25 3.7.95.8 2.1-.35-.05-4.3-1.8-7.3 5.5-.3 15-4.9 4.05-1.9 6.5-5.1 2.5-3.15 0-4.75-2.6-1.85-3.65-3.3l1-1.05q1.7 2.8 4.35 2.8-2.15-1.3-2.95-4.7l1-1.3q1 2.9 4.3 5.8 2.05 1.2 5.5.5 2.05-1.55.8-3.4-1.2-1.75-4.8-2.75l.6-.5Q43 76.65 41 73.5q.65-1.2 1.2-3.4 1.6 6.3 8.5 5.7 4.55-.9 6.8-10.55 1-11.3-.85-13.05-1.9-1.8-5.7-1.65-2.15-.3-3.8-1.3 1.7 0 3.2-.95-7.4-1.6-8.1-2.9l-.3-1.25q2.2 1.25 5.75 2.1 7.1.75 9.8-2.4 1.15-2.55-2.35-3.4l-7.2.55-.75-.1-2.75-1.05q-1.05-.4-3.5-3.75l-.2-2.15q2.3 3.5 6.2 3.95Q58.1 39.2 60.6 26.95q.65-2.55-.35-8.1-.55-5.3-4.2-3.65-4.4 2.5-7.95 2.7-1.7-1.1-2.95-4.75-2.3-.25-3.45 2.3l-.55.8.25-.85q1.9-6.75 5.1-12.85m-26.7 110.3-.15.25-.15.2-.15.15-.2.15-1.3 1q-1.25.6-3.05-.8 1.8 1.15 5-.95" fill="#81c7eb"/><path d="m71.55 22.2.15.45-.5 1.1q-3.65 7.5-3.3 15.35l.8 14.5q.75 8.3-.15 13.7l-.35 2.05v.1q-.95 4.95-2.05 8.3l-.15.55-2 5.75q-1.85 5.2-5.3 9.3-3.45 4.05-10.85 7.75l-5.45 2.6q-5.5 2.5-10.1 4.05-6.8 2.35-8.1 3.85l-1.35 1.6q-.45 2.95-3.65 3.95l-3.35.4q-2.25.2-4.45-3.35l-.05-1.65q.1-.6 1.45-2.85l.05-2.6q-1.35-1.85-3.5 0l-2.85 2.4q-2.75 2.05-4.55.55-2.4-1.95-1.85-5.6.55-3.65 2.6-5.95l2.85-3.3.95-1.1 3.65-2.8.75-.55q.4-.3 3.05-1.25l4.1-1.55 1.8-.65 3.4-1.7 1-.5 1.2-.7 3.1-2 3-1.75q1.8-.75 3.95-3.8 1-1.4 1.8-3.2 2-3.3 2.7-7.15l1.15-8.2v-.7L39.7 45.05l-.55-3.1q-.5-2.6-.85-9.05-.3-6.45.55-14.25.8-7.85 3.3-12.8l2.5-5 .25-.5Q47.15-.7 47.05 1.5l-.55 1.05q-3.2 6.1-5.1 12.85l-.25.85q-.35 1.6-.55 3.5v.1q-.2 2-.25 4.35-.1 4.3.4 9.75l.2 2.15q2.45 3.35 3.5 3.75l2.75 1.05.75.3q2.35 1 2.9 1l-2.25.45q-1.15 0-3.35-.75-2.15-.75-2.65-1.25l-1.15-1.3q.1 3 .5 4.8l.3 1.25q.7 1.3 8.1 2.9-1.5.95-3.2.95-2.15-.05-4.55-1.6 1.25 5.65 1.05 7.15.45 6.6-.05 9.05l-1.4 6.25q-.55 2.2-1.2 3.4 2 3.15 4.35 3.95l-.6.5-.65.2q-1.15.15-2.7-1.15L40 75.6l-1.05 2.2-1 1.3q.8 3.4 2.95 4.7-2.65 0-4.35-2.8l-1 1.05-4.15 3.35q-3.4 2.65-6.55 3.75L20.9 90.7l-1.7.6-2.55.8-2.55.8-.35.1q-5.4 4-7.25 5.9-.8.8-.9 1.2l-1.7 3.6q-1.55 4.2 1.5 2.95l1.1-1.1q1.2-1.1 2.85-1.85l.65-.3 2.4.3q1.35.3 2.3 1.05 1.95 2.2 1.3 5.2-1.65 1.7-1.8 3.05l.6.8q1.8 1.4 3.05.8l1.3-1 .2-.15.15-.15.15-.2.15-.25.15-.1H20v-.05q1.1-1.45.45-4.35-.25-2-1.05-4.65l-.2-.75-.2-.65.2-.1.25.4.7 1.1 2.15 4.1.1 1.85q.55-1.65 10.75-5.95 4.5-1.95 10.9-4.4 10.7-4.95 15.4-13.05 3.05-4.15 5.45-13.6 1.8-7 1.55-18.05-.85-8.95-.9-17.45 1.15-11.95 6-14.95" fill="#252d44"/><path d="m14.1 92.9 2.55-.8 2.55-.8 1.7-.6 3.95-1.55q3.15-1.1 6.55-3.75l4.15-3.35q1.05 1.45 3.65 3.3 2.5 1.6 0 4.75-2.45 3.2-6.5 5.1-9.5 4.6-15 4.9 1.75 3 1.8 7.3-1.15 1.15-2.1.35 0-1.4-2.25-3.7-2.25-2.35-7.85-.85-1.55-.15-1.45-1.8 2.2-4.05 5.8-5 .4-2.05 2.45-3.5m24.85-15.1L40 75.6l1.4 1.4q-2.2.5.25 3.35 3.3 1.6 2.45-2.2l.65-.2q3.6 1 4.8 2.75 1.25 1.85-.8 3.4-3.45.7-5.5-.5-3.3-2.9-4.3-5.8m3.25-7.7 1.4-6.25q.5-2.45.05-9.05.2-1.5-1.05-7.15 2.4 1.55 4.55 1.6 1.65 1 3.8 1.3 3.8-.15 5.7 1.65 1.85 1.75.85 13.05-2.25 9.65-6.8 10.55-6.9.6-8.5-5.7m-.25-25.95q-.4-1.8-.5-4.8l1.15 1.3q.5.5 2.65 1.25 2.2.75 3.35.75l2.25-.45q-.55 0-2.9-1V41l7.2-.55q3.5.85 2.35 3.4-2.7 3.15-9.8 2.4-3.55-.85-5.75-2.1m-1.2-10.2q-.5-5.45-.4-9.75l3.35.65q2.4.15 4.25-1-4.45-.5-7.3-4l-.05-.1q.2-1.9.55-3.5l.55-.8q1.15-2.55 3.45-2.3 1.25 3.65 2.95 4.75 3.55-.2 7.95-2.7 3.65-1.65 4.2 3.65 1 5.55.35 8.1Q58.1 39.2 46.95 37.9q-3.9-.45-6.2-3.95m2.5-2.4q1.15 1.55 3.7 1.85 2-.2 4-1.9 1.95-3.8-1.05-5.25-2.25 1.1-6.65.6-1.6 1.65 0 4.7M29.7 89.05q.4-.7-.95-.45L18.1 92.75q-2.3.95-2.75 3.2.8 1.75 2.4 1.4 5.55-3.05 11.95-8.3M9.35 101.9h5.3q-2.9-4.7-6.25-1.6-.2 1.35.95 1.6m41.2-82.5q-3.4.85-4.75-.7l-1.5.15q-1.7 4.6 6.85 2.95.95-1.4-.6-2.4M49.3 54.6q-1.75-1.35-3.5 0 .4 3.65 0 6.5-.75 4.9-1.75 7 .65 2.9 2.35 3.05 2.2.55 4.5-5.4 1.5-7.6-1.6-11.15" fill="#f1ffff"/><path d="M40.35 24.2q.05-2.35.25-4.35h.05q2.85 3.5 7.3 4-1.85 1.15-4.25 1l-3.35-.65" fill="#82c6eb"/><path d="M41.4 77q1.55 1.3 2.7 1.15.85 3.8-2.45 2.2Q39.2 77.5 41.4 77m1.85-45.45q-1.6-3.05 0-4.7 4.4.5 6.65-.6 3 1.45 1.05 5.25-2 1.7-4 1.9-2.55-.3-3.7-1.85M29.7 89.05q-6.4 5.25-11.95 8.3-1.6.35-2.4-1.4.45-2.25 2.75-3.2l10.65-4.15q1.35-.25.95.45M9.35 101.9q-1.15-.25-.95-1.6 3.35-3.1 6.25 1.6h-5.3m41.2-82.5q1.55 1 .6 2.4-8.55 1.65-6.85-2.95l1.5-.15q1.35 1.55 4.75.7M49.3 54.6q3.1 3.55 1.6 11.15-2.3 5.95-4.5 5.4-1.7-.15-2.35-3.05 1-2.1 1.75-7 .4-2.85 0-6.5 1.75-1.35 3.5 0" fill="#fff"/><path d="m71.5 22 .05.2q-4.85 3-6 14.95.05 8.5.9 17.45.25 11.05-1.55 18.05-2.4 9.45-5.45 13.6-4.7 8.1-15.4 13.05-6.4 2.45-10.9 4.4-10.2 4.3-10.75 5.95l-.1-1.85-2.15-4.1-.7-1.1q8.6 1.5 29.45-11.8 6.55-3.55 11.8-15.95 2.9-8.25 2.45-20.4-.45-9.25-.15-19.7 1.2-4.45 2.6-8.2 2.75-4.3 5.9-4.55" fill="#6294ad"/><path d="M20.45 108.35q.65 2.9-.45 4.35h-.05l-.15.15q-3.2 2.1-5 .95l-.6-.8q.15-1.35 1.8-3.05.1 2.95 4.45-1.6" fill="#6294af"/></g><g id="p" fill-rule="evenodd"><path d="m61.7 28.05-1.1-2q-1.1-2.55-2.55-4.75l-.2-.3-1-1.4-1.8-2.65-.6-.9-.75-1.2-.35-.45-1.75-2.55-1.1-1.5-4.1-5.15-.05-.05-1-1.2-.55-.55-.15-.2-.2-.15-.4.35-.55.55-.35.35-.85.9q-1.9 2.05-4.05 5.15l-1.9 2.7-.25.4v-.05l-.55 1-2.05 3.35-1.05 1.7-.1.3-.1.35.5.5.75.7 3.85 4.1-.2-.35q.75 1.05 1.75 3.45l-.45-.4-6.35-6.3-.5-.5-1.65-1.7-.65 1.7q-1.7 4.3-2.15 6.45 3.7 3.65 7.35 6.6l4.55 4q3.65 5.7 4.7 10.6l3.7-.45v-.05l.5.75.25 1.05-.25-.65-2.7.3-.95.5q-1.55 1.1-2.2 3.2l.25 1.3.5 1.05.15.15.1.15 1.5 1q2.45.15 2.9-1.8.45-2.15-2.3-2.6.55-.65 1.15-.65h.3l.85.45.6.6q1.45 1.95-.45 4.6l.7.35q.45.15 2.7 1.75l.1.1.05.05q.55.55.9 1.75l.5 1.45.3.9.65 2.25.3 2 .1.6v.2L52.4 73q-1.6 3.5-8.1 8l.05-.4q.75-5.8.2-10.25-.75-5.3-3.45-8.75l-1.55 1-2.45 1.75q-7.15 5.05-14.5 9.8l-4.65 8.1-.1.05-10.9 3.75q-1.45-1.7-3-6.05l1.25-4.6v-.05l1.05-3.8-.4-.7-1.45-2.1.85-7.55L3 63.7l-.15 2.1q-.2 2.6-.1 5.4l-.35 1.2-.35 1.15q-.65-.65-1.55-.5l-.5.1q.45-2.45.6-6.7l.05-2.65.15-1.1 1-6.3 1.8-5.85.45-.75.75-1.9.5-.7q2.2-3.25 3.95-4.65l1.1-1.6Q10.8 39.7 11.6 38l.2-.4 1.05-2.75q5.1-7.75 7.4-10.7l5.4-6.9 4.15-4.55.8-.85.1-.05.05-.1.1-.05 2.5-2.6 3.1-3.2.65-.65 1.3-1.25.65-.55 2.15-1.75Q42.25.9 43.1.5q.45-.25.9-.35.9-.25 1.45 0l.15.05.25.3 1.05 1.15 1.45 1.75.5.55 1 1.25 4.1 5.15L57 14.4l1.35 2.25 2.35 4.15 2.1 4.1 2.75 7.3 1.85 5.25.5 2.1q1.05 4.65 1.55 8.75l.25 3.6h.05q.2 3 0 5.65.1 2.15-.95 5.5l-1.25-1.35-.1-.15v-.05l-.05.05-.05-.1.35-3q.45-3.35.05-7.95l-.1-.75-.15-1-.8-6.1-.5-2.2-.05-.1-1.05-3.55-.1-.4-.25-.65-1.15-3.1-1.8-4.4-.1-.2m-27-14.75.1-.2 1.85-2.75 1.25-1.9-2.25 1.9-2.45 2.3-.1.15H33l.05.05-.95.95-.45.45-.1.15q-.3.2-.5.45l-.8.85-3.55 3.9-1.15 1.3-.4.4-1.25 1.4 5.55-4.3.25-.25.35.1 1.35 1.2 1.4-2.6 1.7-3.1.2-.45M13.25 53.15v.6l5.1-2.65 6.7 3.45q.75-2.8 1.55-3.3l2.1-1.8q1.75-.25 4.9-2.05 3.15-1.75 3.5-4.05l.05-2.1v-.35l-.5-2.3q-1.2-2.4-7.6-7.4-2.75 2.5-.25 6.15.7 3.5-.55 4.65-.95 4.05-3.4 5.35-1.95 1.1-3.4 1.3l-.7.05q-3.75.1-4.9-2.65-1.15-2.8.5-5.15.65-3.65 2.3-5.5l.6-.55.45-.4q2.05-1.8 1.95-2.9-5.1 2.7-8 5.4l-.65 1.1-.25.55-1.05 2.3-.1.35-.3 1.1-.1.7v.05q-.25 2.35.95 5.2l.15.4 1.1 2.2q-.15 1.15-.15 2.25m21.3 5.8 4.15 1.95 1.45-.2q-.95-1.15-1.7-1.45 1.6-1.45 3.9-1.65-.95-.35-1.65-2.55-.2-4.2 2.05-5.25-1.7-6.5-4.45-10.3.6 4.4-1.7 7.35-2.05 1.65-3.65 2.35l-3.25 1.2q-.75.25-2.05 1.45-1.3 1.2-1.35 3.1l2.25 1.1 6 2.9m17.8 5.2-.2-.7-.45-1.25q-1.5-1.55-4.8-3.8-2 .9-3.65.05l-2.9.6 1.95 1.8.05.05 1.3 1.75L45.2 66q.75 2.05 1.55 7.05l-.15 1.8-.5 3.95-.15.25.15.1q5.1-4 7.1-10.55l-.85-4.45m-15.1-1.65.45-.3.1-.05-.5-.25-5.7-3.1-8.8 9.15-7.25 1.85-2.35.6-4.65-4.75V57.9L6.8 59.6l.1.15q-.65 3.45-.8 6.2l-.1 2.4v.5l4.85 6.75 4.3-.85 3.95-.8 1.95-.4 14.4-9.8 1.8-1.25M16.7 33.4q3.25-2.1 9.2-5.7l3-7.85-4.65 4.2-.4.4-.15.1-.05.05q-4.5 4.15-8.85 10.1l.7-.45q.5-.4 1.2-.85m-14 26.1-.65 2.75 5.4-4.75Q8 54.1 7.2 51q-.75-3.15 0-4.85l-.45.55-.4.95-.7 1.4-.15.4q-1.2 2.9-2.85 8.1l.1 1.7-.05.25m6.2-5-.05 1.25v.75L12 54.6l.1-3.2q-.1-1.05-1.05-2.35l-.05-.1q-1-1.4-1.25-6L9 44.5l-1.15 2.3q.2 2.8.55 4.05l.45 2.55.05 1.1M27 33q.9-2.05 1.55-2.25l-2.3-2.35-3.45 2.35.05.85-.3 1.35-.15.3-.8 1.25-1.4 1.1-.6.55q-1 .95-1.3 1.85 2.6-3.6 6.3-1.85 2.25-.5 3.55 3.65.5-.65 0-1.7-1.3-1.3-1.35-4.3 0-.3.15-.65l.05-.1V33m-7.75 5.05q-.75.55-1.5 2.8-.3 1.8.45 2.85 1.2 1.25 4.05 0 2.65-1.95 2.55-4.65.35-2.45-2.05-2.7-1.25-.15-3.5 1.7m6.4.85q.1 1.45-.25 2.4-.55 1.5-2.2 2.85-1.6 1.35-3.9 1-1.25-.2-2.05-1.4-.55-1-.5-1.9-.6.05-.75 2v.2q1.05 4.25 4.9 3.9 1.55-.15 2.9-.9l.8-.55q1.45-1.15 2.6-3.15.6-5.35-1.75-6.25l.2 1.8m4.05 19.65-.15-.2-10.85-5.4-8.95 4.25v8.1l3.9 3.7 4.75-1.3 3.85-1.05 5.35-5.85 2.3-2-.2-.25M5.8 82.25 7 85l.25.55 9.4-4.25 3.8-6.2L10.1 77l-2.95-4.15-.4 1.65-1.55 6.35.6 1.4" fill="#44451d"/><path d="m55.05 16.95 1.8 2.65 1 1.4.2.3q1.45 2.2 2.55 4.75l1.1 2-.05.15q-1.45 5.65-2.5 6.95l3.25 5.8q.8-2.15 1.2-8.3l1.15 3.1.25.65.1.4 1.05 3.55-.05.1-1.65 6.6Q56 34.2 45.85 21.1q-4.6-8.25-1.2-17.9l.15.2.55.55 1 1.2.05.05 4.1 5.15 1.1 1.5q.9 6.85.25 10.9 1-.2 3.2-5.8M2.75 71.2q-.1-2.8.1-5.4L3 63.7l2.25-2.5-.85 7.55-1.65 2.45m48.3-11.25q-2.25-1.6-2.7-1.75l-.7-.35q1.9-2.65.45-4.6l-.6-.6q.05-1.65-2.25-2.75l2.7-.3.25.65 1.3 3.2q1.25 2.95 1.7 6.6l-.15-.1m-5.85-7.1q2.75.45 2.3 2.6-.45 1.95-2.9 1.8l-1.5-1 .1.05.15.05h.1q1.3.35 2.4-.75 1.05-1.15-.65-2.75M32.1 21.8l6.35 6.3q1.9 5.9 5 12.8.85 3.6.05 4.8-3.1-7.4-7.6-11.3-5.5-5.1-3.8-12.6m-7.55 30.5q3.05-3.7 6.85-4.7 3.85-1.85 4.05-5.05-.35-1.4-1.05-2.3l-.15-.2q-1.05-1.2-2.7-1.55-.3 2.2-1.1 4.5-1.9 4.25-5.3 6.1-6.5 2.9-9.25-1.45-1.8-1.85-.95-6.1.35-2 1.2-3.55l-.55-.15q-2 2-3.9 3.05l1.05-2.3.25-.55q6.55-5.05 6.25-3.2l-.6.55q-1.65 1.85-2.3 5.5-1.65 2.35-.5 5.15 1.15 2.75 4.9 2.65l.7-.05q1.65-.05 4.2-1.3 1.45-1.2 3.3-4.15 1.55-3.55.25-7.45.65-2.1 1.75-1.55 4.6 3 6.2 6.7v.35l-.05 2.1q-.35 2.3-3.5 4.05-3.15 1.8-4.9 2.05l-2.1 1.8q-.8.5-1.55 3.3l-6.7-3.45-5.1 2.65v-.6q2.05-1.9 4.9-2.55 2.9.45 5.15 2h.95l.3-.3m10 6.65-6-2.9q-2.2-2.05-.15-3.8 3.05-2 6.1-3l4.5-3.7q2.1 1.45 2.8 3.9-2.35 2.75-1.2 6.95-1.9 1.25-3.2 2.85l-2.85-.3m7.8 1.95-.05-.05-1.95-1.8 2.9-.6q1.65.85 3.65-.05 3.3 2.25 4.8 3.8l.45 1.25.2.7q-2.05 9-6.25 14.65l.5-3.95 2-3.85.1-.3q1.4-5.4-.45-7.8-1.4-1.9-4.75-2h-1.15M29.8 53.85q-.15.75.55 1.2l2.5.75q.55.15 1.15.45l.9.4q2.35 1.15 3.45-.55-.3-2.1 1.6-5.75.8-1.85-1.15-2.35l-2.65 2.3q-3.5 1.5-6.25 3.05l-.1.5m7.45 8.65-1.8 1.25-.2-.45q-.55-.7-1.8-.55-1.9.2-2.1.5L22.55 70q-.5-.55-1.25 0l-.95 1.35q-.75 1.15-1.25 2.6l-3.95.8.05-.1 1.7-2.8h.05q1-.9-.85-.75l-.45.25-1.1.4q-2.1.5-3.25-.9L7.15 65.1 7 59.85Q7.9 61.3 8.55 64v1.65l4.65 4.75 2.35-.6-.3.85 7.95-1.9q7.75-8.1 9.6-7.9 2.5-.2 4.1 1.3l.35.35M5.5 49.45l.15-.4.7-1.4.4-.95.45-.55q-.75 1.7 0 4.85.8 3.1.25 6.5l-5.4 4.75.65-2.75.05-.1v-.15L5.6 56.1q.4-3.05-.1-6.65m3.4 5.05 1.25-1.2q.2-2.3-1.15-5.15-.35-1.95 0-3.65l.75-1.55q.25 4.6 1.25 6l.05.1q.9 2.4 0 4.8-1.05 1.3-2.2 1.9l.05-1.25m13.95-22.9q1.9-1.3 3.15-1.65 1.75 1.1 1 3.05v.05l-.05.1q-.15.35-.15.65.05 3 1.35 4.3.5 1.05 0 1.7-1.3-4.15-3.55-3.65-3.7-1.75-6.3 1.85.3-.9 1.3-1.85l.6-.55 5.9-.3v-1.65q-.35-.9-1.3-1.5-1 0-2.25.8l.3-1.35M16 44.05q.8 2.75 4.65 3.05 3.05-.15 4.95-2.95 1.8-3.8.05-5.25l-.2-1.8q2.35.9 1.75 6.25-1.15 2-2.6 3.15l-.8.55q-1.35.75-2.9.9-3.85.35-4.9-3.9m2.4 23.65L13.65 69q2-5.9 3.4-12.9l.1-.05-.1-.1q-.95-.35-2.45 0l3.5-1.2q6.65 1.85 11.45 3.9L27.6 60.8l-9.2 6.9M7 85l.85-.25 5.3-3.25 1.55-.95.8-2.5-6.15 1.25q-1.85-1.95-2.6-4.8l.4-1.65L10.1 77l10.35-1.9-3.8 6.2-9.4 4.25L7 85" fill="#c8cb00"/><path d="m61.7 28.05.1.2 1.8 4.4q-.4 6.15-1.2 8.3l-3.25-5.8q1.05-1.3 2.5-6.95l.05-.15m-10.1-16.2 1.75 2.55.35.45.75 1.2.6.9q-2.2 5.6-3.2 5.8.65-4.05-.25-10.9m-17.35 28.2-.55-.1q.95 2.05-.2 3.95-3 2.7-6.05 4.25-1.55 1.3-2.6 2.8-.4.6-.3 1.35l-.3.3h-.95q-2.25-1.55-5.15-2-2.85.65-4.9 2.55 0-1.1.15-2.25l-1.1-2.2q1.9 2.15-.45-6.4l-.55.05.3-1.1.1-.35q1.9-1.05 3.9-3.05l.55.15q-.85 1.55-1.2 3.55-.85 4.25.95 6.1 2.75 4.35 9.25 1.45 3.4-1.85 5.3-6.1.8-2.3 1.1-4.5 1.65.35 2.7 1.55m-4.45 13.8.1-.5q2.75-1.55 6.25-3.05L38.8 48q1.95.5 1.15 2.35-1.9 3.65-1.6 5.75-1.1 1.7-3.45.55l-.9-.4 2.2-.35q2.45-2.3 3.35-6.3-1.7 2.6-4.45 3.9-5.05 2.3-5.3.35m5.65 9.9-14.4 9.8-1.95.4q.5-1.45 1.25-2.6L21.3 70q.75-.55 1.25 0l8.8-6.75q.2-.3 2.1-.5 1.25-.15 1.8.55l.2.45M6 68.75v-.4l.1-2.4q.15-2.75.8-6.2l.1.1.15 5.25 4.15 5.75q1.15 1.4 3.25.9l1.1-.4-.4.5q-1.45 1.45-3 1.95h-.15q-3.4-2.3-6.05-5.05H6M23.65 24.6q.85.75.7 1.85L16.7 33.4q-.7.45-1.2.85l-.7.45q4.35-5.95 8.85-10.1M5.5 49.45q.5 3.6.1 6.65l-2.85 3.15-.1-1.7q1.65-5.2 2.85-8.1M9 44.5q-.35 1.7 0 3.65 1.35 2.85 1.15 5.15L8.9 54.5l-.05-1.1-.45-2.55q-.35-1.25-.55-4.05L9 44.5m11.2-8.9 1.4-1.1.8-1.25.15-.3q1.25-.8 2.25-.8.95.6 1.3 1.5v1.65l-5.9.3M16 44.05v-.2q.15-1.95.75-2-.05.9.5 1.9.8 1.2 2.05 1.4 2.3.35 3.9-1 1.65-1.35 2.2-2.85.35-.95.25-2.4 1.75 1.45-.05 5.25-1.9 2.8-4.95 2.95-3.85-.3-4.65-3.05m13.7 14.5.2.25-2.3 2-5.35 5.85-3.85 1.05 9.2-6.9 1.95-2.15.15-.1m-19.95 5.9v-6.9l4.85-1.6q1.5-.35 2.45 0v.15q-1.6 1.25-3.05 6.95-2.25 2.45-4.25 1.4m3.4 17.05q.15-.7 1.45-2.4.05-.3-.7-.3-3.35 2.5-6.35 3.45-.5-.45-1-.45-.35.25-.75.45l-.6-1.4 1.55-6.35q.75 2.85 2.6 4.8l6.15-1.25-.8 2.5-1.55.95" fill="#ffff01"/><path d="m66.2 40.45.5 2.2.8 6.1.15 1 .1.75q.4 4.6-.05 7.95l-.35 3 .05.1.05-.05v.05l.1.15q-2.95 3.9-6.2 6.85-2.65 2.5-6.5 5.25l-.8-4.8-.1.05-.1-.6-.3-2-.65-2.25-.3-.9-.5-1.45q-.35-1.2-.9-1.75v-.05q-.45-3.65-1.7-6.6l-1.3-3.2-.25-1.05-.5-.75v.05l-3.7.45q-1.05-4.9-4.7-10.6l-4.55-4q-3.65-2.95-7.35-6.6.45-2.15 2.15-6.45l.65-1.7 1.65 1.7.5.5q-1.7 7.5 3.8 12.6 4.5 3.9 7.6 11.3.8-1.2-.05-4.8-3.1-6.9-5-12.8l.45.4q-1-2.4-1.75-3.45l.2.35-3.85-4.1-.75-.7-.5-.5.1-.35.1-.3 1.05-1.7 2.05-3.35.55-1v.05l.25-.4 1.9-2.7q2.15-3.1 4.05-5.15l.85-.9.35-.35.55-.55.4-.35.2.15q-3.4 9.65 1.2 17.9Q56 34.2 64.45 47.05l1.65-6.6h.1M34.7 13.3l-.2.45-1.7 3.1-.7-3.05.95-.95-.05-.05h.1l-.05.05 1.65.45m2.45 27.6q-1.6-3.7-6.2-6.7-1.1-.55-1.75 1.55 1.3 3.9-.25 7.45-1.85 2.95-3.3 4.15-2.55 1.25-4.2 1.3 1.45-.2 3.4-1.3 2.45-1.3 3.4-5.35 1.25-1.15.55-4.65-2.5-3.65.25-6.15 6.4 5 7.6 7.4l.5 2.3m-17.9-6.05q.3-1.85-6.25 3.2l.65-1.1q2.9-2.7 8-5.4.1 1.1-1.95 2.9l-.45.4m9.3 21.2-2.25-1.1q.05-1.9 1.35-3.1 1.3-1.2 2.05-1.45l3.25-1.2q1.6-.7 3.65-2.35 2.3-2.95 1.7-7.35 2.75 3.8 4.45 10.3-2.25 1.05-2.05 5.25.7 2.2 1.65 2.55-2.3.2-3.9 1.65.75.3 1.7 1.45l-1.45.2-4.15-1.95 2.85.3q1.3-1.6 3.2-2.85-1.15-4.2 1.2-6.95-.7-2.45-2.8-3.9l-4.5 3.7q-3.05 1-6.1 3-2.05 1.75.15 3.8M6.9 59.75l-.1-.15 1.75-1.7V64Q7.9 61.3 7 59.85l-.1-.1m8.65 10.05 7.25-1.85 8.8-9.15 5.7 3.1-.4.25q-1.6-1.5-4.1-1.3-1.85-.2-9.6 7.9l-7.95 1.9.3-.85m-6.7-14.05q1.15-.6 2.2-1.9.9-2.4 0-4.8.95 1.3 1.05 2.35l-.1 3.2-3.15 1.9v-.75m14-24.15-.05-.85 3.45-2.35 2.3 2.35q-.65.2-1.55 2.25.75-1.95-1-3.05-1.25.35-3.15 1.65M9.75 57.55v-.35l8.95-4.25 10.85 5.4.15.2-.15.1q-4.8-2.05-11.45-3.9l-3.5 1.2-4.85 1.6" fill="#7e8100"/><path d="M46.35 52.2q-.6 0-1.15.65l-1.15-1q-.15-.25.4-.45 1.4.25 1.9.8M43 56.1l-.15-.15-.5-1.05q.55-1.4 1.7-1.5.55 0 .95.35.35.4.35 1.3-1.1 1.5-1.9 1.3h-.1l-.15-.05-.2-.2m-9.9-43.3.1-.15 2.45-2.3 2.25-1.9-1.25 1.9-1.85 2.75-.1.2-1.65-.45.05-.05m-.3 4.05-1.4 2.6-1.35-1.2-.35-.1-.25.25.8-2.7.8-.85q.2-.25.5-.45l.1-.15.45-.45.7 3.05m1.45 23.2.15.2q.7.9 1.05 2.3-.2 3.2-4.05 5.05-3.8 1-6.85 4.7-.1-.75.3-1.35 1.05-1.5 2.6-2.8 3.05-1.55 6.05-4.25 1.15-1.9.2-3.95l.55.1m12.35 34.8.15-1.8q-.8-5-1.55-7.05l-1.55-3.35q2.3-2.4 4.8 7.45l.25.6-.1.3-2 3.85M34 56.25q-.6-.3-1.15-.45l-2.5-.75q-.7-.45-.55-1.2.25 1.95 5.3-.35 2.75-1.3 4.45-3.9-.9 4-3.35 6.3l-2.2.35m-18.85 18.5-4.3.85L6 68.85l.05-.1Q8.7 71.5 12.1 73.8h.15q1.55-.5 3-1.95l.4-.5.45-.25q1.85-.15.85.75h-.05l-1.7 2.8-.05.1m8.5-50.15.05-.05.15-.1.4-.4 4.65-4.2-3 7.85q-5.95 3.6-9.2 5.7l7.65-6.95q.15-1.1-.7-1.85M11.3 42.35l.55-.05q2.35 8.55.45 6.4l-.15-.4q-1.2-2.85-.95-5.2v-.05l.1-.7m7.95-4.3q2.25-1.85 3.5-1.7 2.4.25 2.05 2.7.1 2.7-2.55 4.65-2.85 1.25-4.05 0-.75-1.05-.45-2.85.75-2.25 1.5-2.8M13.65 69l-3.9-3.7v-.85q2 1.05 4.25-1.4 1.45-5.7 3.05-6.95-1.4 7-3.4 12.9M5.8 82.25q.4-.2.75-.45.5 0 1 .45 3-.95 6.35-3.45.75 0 .7.3-1.3 1.7-1.45 2.4l-5.3 3.25L7 85l-1.2-2.75" fill="#fffff3"/><path d="m47.5 52.65-.85-.45h-.3q-.5-.55-1.9-.8-.55.2-.4.45l1.15 1q1.7 1.6.65 2.75-1.1 1.1-2.4.75.8.2 1.9-1.3 0-.9-.35-1.3-.4-.35-.95-.35-1.15.1-1.7 1.5l-.25-1.3q.65-2.1 2.2-3.2l.95-.5q2.3 1.1 2.25 2.75m-4.4 3.6-.1-.15.2.2-.1-.05m9.25 7.9.85 4.45q-2 6.55-7.1 10.55v-.35q4.2-5.65 6.25-14.65m-8.7-1.5-1.3-1.75h1.15q3.35.1 4.75 2 1.85 2.4.45 7.8l-.25-.6q-2.5-9.85-4.8-7.45" fill="#ff0"/><path d="m29.45 18.4-5.55 4.3 1.25-1.4.4-.4 1.15-1.3 3.55-3.9-.8 2.7" fill="#feff03"/></g><g id="q" fill-rule="evenodd"><path d="m25.6 104.4 1.2-7.6.25-5.55-.05-8.3-.25-5.3q-.35-10.9-1.8-19.5l-.9-3.45-1.5-5.55-.95-2.95q-.45-3.05-1.5-5.6L19 38.05l-.55-1.4-.4-1.05-4.7-11.45-1.15-2.85-1.2-2.2-4.3-8.4-1.85-3.95-.45-1L4.1 5l-.25-.55-1-2.95-.2-.45.4-.95.25-.1 2.6.65L7.8 2.4l6.75 6.35 3.25 3.45 6.05 7.75 4.9 6.5.5.9 1.05 1.75 2.9 6.25.7 1.55.5 1.2 1.15 2.55 1.35 2.6.5 1.65.2.6 1.75 4.7-.05.05.1.15q2.65 6.85 4.55 13.85 1.85 6.85 2.9 13.8 2.35 15.65.85 31.9l-.2 3.1q0 3-1.4 7.5-.6 1.6-2.1 2.7-1.2.8-.7 1.05l-2.9.5q-6.05.85-10.4-.2-6.1-1.55-8.75-6.9l-.35-.9.1-.1.2-.3q1.75-2.3 2.85-5.55l.5-1.5.6-2.05q.85-2.55.45-2.9M30.85 36l-.3-.65-1.65-3.25q-1.35 1.3-1.75.1 0-.55 1.1-1.3-3-5.25-5.35-8.05l-5-6.25-4.25-5.15-2.75-3-1-.95-.75-.75-4.4-4.4 2.1 4.4.75 1.6.1.1 3.75 7.6q.85 1.45 3.1 6.45l2.7 6.25.05.15.2.4.15.4L21 38.35l.15.45.15.3.1.35.15.4.8 2.35L24 40.95q.5-.35 1-.55l.55-.25.05-.05.55-.25.45-.25.7-.9-1.25-3.35-.9-1.85-.45 1.85-.7 1.4-.15.15-.55.25-.35-.1-.45-.2-1-1.5q-2.2-3.3-1.9-4.5 3.65-2.95 4.35-2.15-2.25 1.6-3.05 2.75.95 2.3 2.1 3.7l.15-.35.2-.25v-.05l.3-.65-.1-.15.1.05.25-.4.05-.15.45-.9.65-1.05.05.05 1.1 2v.05l.5.95.15.3.15.25.2.5.4.9.95 2.45.05.15V39l-.25.9-.45.5-.45.4-.55.35-.1.05-.45.15-.6.25q-1.15.55-2.2 1.55l-.7.75-.1.15q.1 1.7.6 2.65 3.25-1.75 5.75-2.1l.55.4q1.45 3.95 2 6.35 1.7 3.75 1.7 6.45Q32 60.65 27.1 61q.85 3.25.8 6.5l7.7-.2.05.1.4 2.7.1 1.35.1.3.15.7.5 2.2.45 3.25q.25 3.3-.1 4.15l-1.1.75q-4.4 2.6-7.3-.35v3.7l1.7.15q4.35.3 5.6.1l.4-.1-.4 7.8-.1 2.95v2.8l-3.3.3L35 98.9l.5-10.25-1.15-1.45h-3.8l-1.6 1.15v1.25l4 .2v5.8l-3.15.45v1.35l-1.05-1.15.05 1.1.05.2v.2q.3.65 2.45 2.45l.25.2.25.2h.05l.05.05q1.3.75 3.6 1.1h.15l.1.05h.1l3.8.2 2.1-.45.3-.15q2-.7 2.95-2.15l.75-1.5.2-1.9v-.3l-.95-.1-.9-.3q-.9-3.55-.9-7.45h-1.1l-.4 11.2q-.2.3-.55 0V86.8l.25-.05 2.95.1q.1 5.55.45 7.4l1.15.1q-.4-9.45-1.2-14.5l-.6.3-1.95.4-1.55-.2-.25-.1-.05-.05-.05-.35q-2.25-12.3-2.05-14.05l.3-.15 1.7-1.4.45-.55.65-1-.05-.15-2.15-5.6-.35-1.2-.15-.6v-.05l-.1-.25q-1.2.65-2.5.75h-.65q-1.25-1.95-2.5-7.25-1.45-3.4-.05-4.45.45-.35 1.2-.4l-.1-.35-.85-2-1.35-3.25-.25-.45-.65-1.45m-6.3 13.7q.05 3.15 1.45 4.1 1.3.3 3.1-.6.7-.05.3.85l-3.55 1.4.2.9.1.6.05.1.2.7.05.4.1.3.4 1.2q2.55.3 5.05-2.15-1.3-5.65-3.9-11.9-1.6.25-2.65 1.2l-.25.2-.1.05-.5.65-.05.1v1.9m8.5 18.6h-2.3l-.2.05-.9.05-.9.1-.05.05-.35.4v.1h-.05l-.1.4V70l.1.5 1.1 2.35v.05l1.3 3.35 3.75.15.2.35v.15l-.1.25-.05.05-.05.1-.35.2H34l-3.9-.2q-1-1.7-1.8-4.5l-.05 1.7v.3q.05 2.75.45 5.2l2.5 2.25 3.55-.25 1-1.4Q36.7 77.65 35 70l-1.2-1.6h-.1l-.15-.05-.5-.05m2.35-17.85q.1-1.2 1.25-1.15-1.75-2.75-2.25-5.1-.4 0-1.1.7l2.7 9.35q.85.1 1.95-.55l-1-3.3-1.55.05m5.85 14.3-.2.15-.25.3-.35.35-.5.65-.05.1q-1.25 2.2.9 11.75.35.95 1.4 1.2h.1l.65-.1 1-.4.5-.2.2-.1q-1.05-7.7-3-14l-.35.3h-.05m-12.3 26.1v3.75q.85.8 2 .5l1.25-1.3v-1.85l-1-1.25-.15-.05-1.35-.15h-.75v.35m2.4 16.15 1.15-1.45.4-2.55-1.05-.3h-.15l-1.3-.7-.05.6v.25l-.2 2.85.25.5q.35.8.8.8h.15m4.7-3.25H36l-1.95-.5-.15.5q-.5 1.55-.25 3.25.4 1.15.9 1.45h.1q.75.25 1.75-1.55l.4-3.1-.75-.05m2.05 1.35q-.1.65.1 1.05.55 1.35 1.1 1.8.9.75 1.7-1.2l.2-3.1-.75.2-2.1-.05-.25 1.25v.05m5.05 2.75q1.2.85 2.15-1.6.65-3.45.5-5l-1.05.7-2.05 1.35-.15.7q-.25 1.55 0 3.25l.6.6m1 1.6q-.5.25-.95.85l-.2.25-.35.6-.1.2-.4.7-.1 5.4.15.2v.05q1.15 1.05 2.25-.95l.85-7.4-1.05.05-.1.05m-2.55-1.3-.5.55q.95 1.05 1 2l.8-1.35q-.85-.25-1.3-1.2m-3.5 10.35v.25q1.75 1.1 2.6-1.65.65-3.55.4-6.65-.45-1.6-1.5-1.1h-.05l-.1.05-.7.75-.1.15-.4.6-.1.25q-1.2 2.65-.05 7.35m-5.45-11.25q-.15.7-.75.7.6.65.6 1.45.4-.6.9-.45-.6-.7-.75-1.7m.95 2.55-.25.05-.05.05-.15.35q-1.3 2.35-1.3 6.65v1.35l.25.1 3.45.5q.85-2.45-.1-7.2-.35-1.8-1.25-1.9h-.55l-.05.05m3.1 2.25q.65-2.1 1.75-3.45-.85-.4-1.1-1.75-.55 1.9-1.85 2.5.95.9 1.2 2.7m-3.45 7.85-1.1-.25q-1.9-.45-3.4-1.2-2.6-1.35-3.95-3.6l-.8 1.8q-.15.75.75 1.9l.05.05.2.25 2.9 2.25q2.55 1.5 5.3 1.8l1.4.05 1.6-.05 3.3-.3q3.7-1.3 4.15-2.95-3.6 1.1-7.6.7l-2.8-.45m-5-15.1 1 .15v-3.65l-.7-.75-.35-.4-.25 1.6-.05.5-.3 1.7.65.85m-.6 1.95-.6-.55-.05.5-.15 1q-.35 2.15-1.05 4.1l-.25.65.25.7q.45 1.15 1 1.8.25-2.05 1.35-3.5.55-2.05.15-4.5l-.65-.2m1.9-.65-.35.45.3 1.9.75-.8-.5-1-.2-.55m1.1 2.45-.4.25-.15.15q-.6.8-1.2 3.5-.5.65-.8 1.9v.15l-.3 1.5.2.2.1.15q.8.8 2.1 1.1l.45-1.2q0-2.85.7-4.85.3-2.95-.55-2.8l-.15-.05" fill="#44451d"/><path d="m27 34.85-.15-.25-.15-.3-.5-.95v-.05l-1.1-2-.05-.05-.65 1.05-.45.9-.05.15-.25.4-.1-.05.1.15-.3.65v.05l-.2.25-.15.35q-1.15-1.4-2.1-3.7.8-1.15 3.05-2.75-.7-.8-4.35 2.15-.3 1.2 1.9 4.5l1 1.5.45.2.35.1.55-.25.15-.15.7-1.4.45-1.85.9 1.85 1.25 3.35-.7.9-.45.25-.55.25-.05.05-.55.25q-.5.2-1 .55l-1.65 1.25-.8-2.35-.15-.4-.1-.35-.15-.3-.15-.45-3.35-8.65-.15-.4-.2-.4-.05-.15-2.7-6.25q-2.25-5-3.1-6.45L7.7 8.45l-.1-.1-.75-1.6-2.1-4.4 4.4 4.4.75.75 1 .95 2.75 3 4.25 5.15 5 6.25q2.35 2.8 5.35 8.05-1.1.75-1.1 1.3.4 1.2 1.75-.1l1.65 3.25.3.65q1.45 4.15.55 2.65l-.7-1-.75-.75-.8-1.55-.4-1 .7 2q.7 1.75-1.5-1.45l-.6-1-.65-1q2.35 5.55.3 1.95" fill="url(#s)"/><path d="M27 34.85q2.05 3.6-.3-1.95l.65 1 .6 1q2.2 3.2 1.5 1.45l-.7-2 .4 1 .8 1.55.75.75 2.15 6.25q-1.4 1.05.05 4.45 1.25 5.3 2.5 7.25h.65q1.55 4.35 2.3 8.65l.2 1.4-.3.15q-.2 1.75 2.05 14.05l.05.35.05.05.25.1q.05 3.5.75 6.4l-.25.05v10.9l-.95 1.55q-1.95 2.55-4.35 2.55h-.1l-.1-.05h-.15q-2.3-.35-3.6-1.1l-.05-.05h-.05l-.25-.2-.25-.2q-2.15-1.8-2.45-2.45v-.2l-.05-.2-.05-1.1 1.05 1.15q2.15 2.05 4.4 1.45.8-6.25-.2-11.65h.35l1.15 1.45L35 98.9l-2.25 1.25 3.3-.3v-1.1h.1q3.9-.9 4.05-11.15-1.6-14.5-3-19.55l-1.05-3.8L35 60.1l-.6-2.2-.05-.25q-2.9-9.7-5-14.5l-1-2-.45-.75.45-.5.25-.9v-.15l-.05-.15-.95-2.45-.4-.9-.2-.5m2.4 38.05q1.3 2.5 3.05 2.5 1.75-.05 1.8-.35l.05-.4q0-2.45-.8-6.3h.05l.15.05h.1L35 70q1.7 7.65.75 10.6l-1 1.4-3.55.25L28.7 80q3.75 3 6.3.75l.1-.2-.25-.3q.1-2.05-.35-3.05l.05-.05.1-.2v-.2l-.2-.35-3.75-.15-1.3-3.35" fill="#c9ca02"/><path d="m30.7 37.65.7 1q.9 1.5-.55-2.65l.65 1.45.25.45 1.35 3.25.85 2 .1.35q-.75.05-1.2.4l-2.15-6.25m5.35 17.95q1.3-.1 2.5-.75l.1.25v.05l.15.6.35 1.2 1.55 6.75-.45.55-1.7 1.4-.2-1.4q-.75-4.3-2.3-8.65m4.6 24.75 1.55.2 1.95-.4q1.8 10.55.65 14.1-.35-1.85-.45-7.4l-2.95-.1q-.7-2.9-.75-6.4m.5 17.35v1.2q.35.3.55 0l.4-11.2h1.1q0 3.9.9 7.45l.9.5q.25 2.1-.65 3.6-.75 1.25-2.3 2.15l-.3.15-2.1.45-3.8-.2q2.4 0 4.35-2.55l.95-1.55M35.4 50.45l1.55-.05 1 3.3q-1.1.65-1.95.55l-2.7-9.35q.7-.7 1.1-.7.5 2.35 2.25 5.1-1.15-.05-1.25 1.15m5.4 14.75.25-.25q1.95 5.4 2.9 13.8l-1 .4-.65.1h-.1q-1.05-.25-1.4-1.2-2.15-9.55-.9-11.75l.05-.1.5-.65.35-.35" fill="#828500"/><path d="M29.8 97.4v-1.35l3.15-.45v-5.8l-4-.2v-1.25l1.6-1.15H34q1 5.4.2 11.65-2.25.6-4.4-1.45m6.25-.35.1-2.95.4-7.8-.4.1q-1.25.2-5.6-.1l-1.7-.15v-3.7q2.9 2.95 7.3.35l1.1-.75q.35-.85.1-4.15h.1q2.35 16.3-1.3 19.05l-.1.1M35.6 67.3l-7.7.2q.05-3.25-.8-6.5 4.9-.35 6.25-3.2 0-2.7-1.7-6.45-.55-2.4-2-6.35l-.55-.4q-2.5.35-5.75 2.1-.5-.95-.6-2.65l.1-.15.7-.75q1.05-1 2.2-1.55l.6-.25.45-.15.1-.05.55-.35.45-.4.45.75 1 2q2.1 4.8 5 14.5l.05.25q-.4 1.15 1.2 9.4m-6.2 5.6v-.05l-1.1-2.35-.1-.5v-.55l.1-.4h.05v-.1l.35-.4.05-.05.9-.1.9-.05.2-.05h2.3l.45.05q.8 3.85.8 6.3l-.05.4q-.05.3-1.8.35-1.75 0-3.05-2.5m-4.85-23.2v-1.9l.05-.1.5-.65.1-.05.25-.2q1.05-.95 2.65-1.2 2.6 6.25 3.9 11.9-2.5 2.45-5.05 2.15l-.4-1.2-.1-.3-.05-.4-.2-.7-.05-.1-.1-.6-.2-.9 3.55-1.4q.4-.9-.3-.85-1.8.9-3.1.6-1.4-.95-1.45-4.1M28.7 80q-.4-2.45-.45-5.2v-.3l.05-1.7q.8 2.8 1.8 4.5l3.9.2h.1l.35-.2.05-.1q.45 1 .35 3.05l.25.3-.1.2Q32.45 83 28.7 80m2.35 10.65v3.45H29.5l-.55-3.25v-.35h.75l1.35.15" fill="#ffff01"/><path d="m36.05 70.1-.4-2.7-.05-.1q-1.6-8.25-1.2-9.4l.6 2.2 1.15 4.15 1.05 3.8q1.4 5.05 3 19.55-.15 10.25-4.05 11.15v-1.8q3.65-2.75 1.3-19.05l-.5-3.25-.35-2.15-.45-2.4h-.1m-5 20.55.15.05 1 1.25v1.85l-1.25 1.3q-1.15.3-2-.5v-3.75l.55 3.25h1.55v-3.45" fill="#fdfff4"/><path d="m39.15 56.95 2.15 5.6.05.15-.65 1-1.55-6.75m5 23.2.6-.3q.8 5.05 1.2 14.5l-1.15-.1q1.15-3.55-.65-14.1m1.8 15.4v.3l-.2 1.9-.75 1.5q-.95 1.45-2.95 2.15 1.55-.9 2.3-2.15.9-1.5.65-3.6l.95-.1m-4.9-30.6.2-.2h.05l.35-.3q1.95 6.3 3 14l-.2.1-.5.2q-.95-8.4-2.9-13.8" fill="#0ae184"/><path d="M31.35 107h-.15q-.45 0-.8-.8.8.15 1.35-1.05v.1l-.4 1.75m-1-4.4.05-.6 1.3.7h.15v.85q-.8-.1-1.5-.95m4.15 1.75-.6-.6.15-.5 1.95.5h.05l.1.9q-.9.2-1.65-.3m5.35 2.9v-2.2H38.1l.25-1.25 2.1.05q.3 2.05-.6 3.4m4.9-5.3q.15 2.05-.45 4 .4-3.65-1.75-1.95l.15-.7 2.05-1.35m-1.75 8.6.2-.25q.45-.6.95-.85.15 3.7-.55 5.9.4-3.9-.6-4.8m-3.45-1.2.15.7-.95.1.7-.75.1-.05m-5.95.45.05-.05h.55q.65 3.75.25 5.85.35-3.75-.85-5.8m-1.5 8.55-.25-.1v-1.35q.9.65 2.2 0-.65 1.3-1.95 1.45m-3.55-17.8.15 2q-.25-.75-.75-.8l.25-1.6.35.4m-.45 15.8-.1-.15-.2-.2.3-1.5q.65 1.05 1.3 1.1-.55.75-1.3.75m-.75-4.35-.6 1.3-.6-.65q.8-.15 1.15-.8l.05.15" fill="#d9d687"/><path d="m30.4 106.2-.25-.5.2-2.85q.6 1.45 1.4 2.3-.55 1.2-1.35 1.05m3.5-2.45.6.6q-.55 2.2.75 3.3l-.05.15-.55.65h-.1q-.5-.3-.9-1.45-.25-1.7.25-3.25m5.4 4.2q-.55-.45-1.1-1.8-.2-.4-.1-1.05.8 1.1 1.75 1.5v.65l-.55.7m4.55-.85-.7.75-.6-.6q-.25-1.7 0-3.25.85 1.15 1.3 3.1m-1.65 10.6v-.05l-.15-.2.1-5.4.4-.7q.3 3.8.8 4.8l-1.15 1.55m-2.5-1.95-.1.35q-.45 1.45-1.5 2.4-1.15-4.7.05-7.35.4 4.6 1.55 4.6m-7.85 1.15q0-4.3 1.3-6.65-.35 4.9 1.2 5.9l-.25.65-.05.1q-1.3.65-2.2 0m-3.4-12.45-.2.35-.65-.85.3-1.7q.9.55.55 2.2m-1.6 3.25.45 4.15q-.35.65-1.15.8l-.35-.85q.7-1.95 1.05-4.1m3.25 1.25q-.55 3.3 0 5.1l-.1.35-.6 1.2q-.65-.05-1.3-1.1v-.15q.3-1.25.8-1.9.6-2.7 1.2-3.5" fill="#fffff5"/><path d="m31.85 102.7 1.05.3-.4 2.55-1.15 1.45.4-1.75.1-.35v-2.2m4.3 1.95-.1-.9.75.05-.4 3.1q-1 1.8-1.75 1.55l.55-.65.05-.15q.85-1.25.9-3m3.15 3.3.55-.7q.9-1.35.6-3.4l.75-.2-.2 3.1q-.8 1.95-1.7 1.2m5.45-6 1.05-.7q.15 1.55-.5 5-.95 2.45-2.15 1.6l.7-.75.45-1.15q.6-1.95.45-4m-1.15 13.4q.7-2.2.55-5.9l.1-.05 1.05-.05-.85 7.4q-1.1 2-2.25.95l1.15-1.55.25-.8m-2-7.2q.45.95 1.3 1.2l-.8 1.35q-.05-.95-1-2l.5-.55m-1.9 1.9-.15-.7h.05q1.05-.5 1.5 1.1.25 3.1-.4 6.65-.85 2.75-2.6 1.65v-.25q1.05-.95 1.5-2.4l.1-.35q.65-2.25 0-5.7m-7.05-2.8q.15 1 .75 1.7-.5-.15-.9.45 0-.8-.6-1.45.6 0 .75-.7m1.55 2.5q.9.1 1.25 1.9.95 4.75.1 7.2l-3.45-.5q1.3-.15 1.95-1.45l.05-.1.25-.65.05-.3.05-.25q.4-2.1-.25-5.85m2.5 2.3q-.25-1.8-1.2-2.7 1.3-.6 1.85-2.5.25 1.35 1.1 1.75-1.1 1.35-1.75 3.45m-8-9.5-.15-2 .7.75v3.65l-1-.15.2-.35.25-1.9m-1.2 8.95.1-.8q.2-1.6.05-3.95l.65.2q.4 2.45-.15 4.5-1.1 1.45-1.35 3.5-.55-.65-1-1.8l-.25-.7.25-.65.35.85.6.65.6-1.3.15-.5m2.05-5.4.2.55.5 1-.75.8-.3-1.9.35-.45m.55 7.95q.55-1.95.55-5.5l.15.05q.85-.15.55 2.8-.7 2-.7 4.85l-.45 1.2q-1.3-.3-2.1-1.1.75 0 1.3-.75l.6-1.2.1-.35" fill="#d09d44"/><path d="M30.35 102.85v-.25q.7.85 1.5.95v1.35l-.1.25q-.8-.85-1.4-2.3m4.15 1.5q.75.5 1.65.3-.05 1.75-.9 3-1.3-1.1-.75-3.3m5.35 2.25q-.95-.4-1.75-1.5v-.05h1.75v1.55m4.45-.65-.45 1.15q-.45-1.95-1.3-3.1 2.15-1.7 1.75 1.95m-1.3 4.6q1 .9.6 4.8l-.25.8q-.5-1-.8-4.8l.1-.2.35-.6m-3.3-.5q.65 3.45 0 5.7-1.15 0-1.55-4.6l.1-.25.4-.6.1-.15.95-.1m-6.55.2.15-.35.05-.05.25-.05q1.2 2.05.85 5.8l-.05.25-.05.3q-1.55-1-1.2-5.9m-4.45-7.7-.25 1.9q.35-1.65-.55-2.2l.05-.5q.5.05.75.8m-1.85 5.15.15-1 .05-.5.6.55q.15 2.35-.05 3.95l-.1.8-.2.35-.45-4.15m3.25 1.25.15-.15.4-.25q0 3.55-.55 5.5-.55-1.8 0-5.1" fill="#fffaae"/><path d="M28.75 118.45q1.5.75 3.4 1.2l1.1.25q.2 1.95-.05 3-2.75-.3-5.3-1.8-.25-1.8.85-2.65" fill="#fefef4"/><path d="m33.25 119.9 2.8.45q.5 1.45.15 2.55l-1.6.05-1.4-.05q.25-1.05.05-3m-5.35 1.2-2.9-2.25-.2-.25-.05-.05q-.9-1.15-.75-1.9l.8-1.8q1.35 2.25 3.95 3.6-1.1.85-.85 2.65" fill="#fdff00"/><path d="M36.05 120.35q4 .4 7.6-.7-.45 1.65-4.15 2.95l-3.3.3q.35-1.1-.15-2.55" fill="#c8cb00"/><path d="M43.3 124.3q-1.55 4.45-3.3 8-9.05 18.1-22.85 9.4-11.55-8.75-14.1-43.8l-.4-7.7Q.05 90.1 0 85.5l1.4-4.65.15-.7.55-2.1.35 2.15-.15 1.05.15.1-.15 1.15-.15.85-.3 2.6Q1.7 87.5 2 87.8l.6.5.55-1.35.5-1.45q.6-1.6 4.15-3.45l2.7-1.3q6.1-2.65 12.45 1.45l.05 1v.95q.4-.6.4-1.15l-.3-.85-1-1.5-.55-.5q-1-1.15-1.7-2.9-.9-2.3-.25-3.65l.05-.1.35-.5q.25-.3.5-.15l.3.4v.1q-.4 2.75 2.85 6.2l1.35 2.3q-.3 2.75-1.7 3.35l.1 1.25h-.1q.5 14.15 2.3 17.95.4.35-.45 2.9l-.3.1-.2-.05q-.9-.4-2.45-3.95-.25-.4-2.25-.8l-.75-.15-.3-.05-1.2-.2h-.95l-2.55.45q-1.5.3-3.45 2.25l-.15.15-2.45 2.75-1.3 1.7q-.05 3.85 1.15 7.45 1.25-3.25 4.45-4.6v.35q-1.75 1.1-2.6 2.9-.35.65-.55 1.45-1.05 3.75.6 7.05.35-2 1.4-2.9l.15.15v.1l-.1.15-.1.2q-1.05 2.15-.9 3.45.2 1.45.65 2.75l.25.9 1.05 2.2 4.1 6.4q-2.8-7.6-.3-12.6.4-1.55-.2 3.45l-.05.8q-.15 4.7 4 11l3.7 1.45 1.95.05 2.6-.5q3.75-1.4 6.65-6l-2.25.15-.65-.05-3-.95-3.25-1.65q-1.55-.9-2.6-2.2l-2-4.15q-.45-2.1-.1-4.55.85 5.4 3.55 8.3l.25.25q2.4 2.5 6.25 3l1.5.1 3.1-.15q2-1.45 4.5-7.6l.35-.85 2.9-.5m-18.75-14.95-.5 1.5q-1.5-.95-7.05-.05l-.85.1q1.95-1.35 7.15-1.5h.2l1.05-.05m-3.65 7.45.35.9q-2.3 1.3-2.65-.15l2.3-.75M18.45 82l-.55-.1-3.85-.1-1.4.15q-2.15.45-3.85 1.55l-.15.05-2.3 2L6 86l-.45.55q-.6 1.25-.35 6.55 4.25-4.1 6.3-3.75L8.6 91.6l-2.05 2-.35.35-.7.8q-.5 3.85.15 6 5.9-6.15 14.2-5.1l1.4.2q-.35-1.65-.4-3.8l-.05-1.1q-.8-.75-2.05-1.2l-.8-.25-3.4-.5.8-.2 3.85-.2 1.45 1-.15-3.3-.25-3.45q-.65-.55-1.8-.85m-.4 14.3-.75-.1h-2.1l-.55.05q-2.4.5-4.75 2.3l-.15.1-2.45 2.3-.2.25-1.05 1.15.25 5.4Q9 105 10.1 104.3q1.05-.7 2.85-1.65 1.05-.55 3.8-.9l3.15-.3h.1l1.9-.1q.3-1.25.1-2.15-.45-2.45-3.95-2.9" fill="#262e45"/><path d="M21.55 80.15q-4.95-3.7-1.95-6.6v.05q-.65 1.35.25 3.65.7 1.75 1.7 2.9m10.9 53.25q3.95-.75 7.6-7.75-2.5 6.15-4.5 7.6l-3.1.15m-4.35 7.75q2.35-1.3 4.8-4.7.05-.7-.4-1.15l2.25-.15q-2.9 4.6-6.65 6M18.45 82q1.15.3 1.8.85l.25 3.45q-.25-2.5-2.05-4.3m.3 7.75q1.25.45 2.05 1.2l.05 1.1q-.85-1.2-2.1-2.3M22 99.2q-1.35-1.8-3.95-2.9 3.5.45 3.95 2.9m-2.8 3.25.75.15q2 .4 2.25.8 1.55 3.55 2.45 3.95-.75.45-2-1.35-.65-2.25-2.9-3l-.55-.55" fill="#00f28b"/><path d="m25.15 107.3-.6 2.05-1.05.05h-.2q-4.75-.3-5.85-1.45-1.45-2.4-.7-5.75h.95l1.2.2.3.05.55.55q2.25.75 2.9 3 1.25 1.8 2 1.35l.2.05.3-.1m-1.1 3.55q-1.1 3.25-2.85 5.55l-.2.3-.1.05q-1.8.25-3-.85.3-1.5-.9-5.1 5.55-.9 7.05.05M30 124.6q4.35 1.05 10.4.2l-.35.85q-3.65 7-7.6 7.75l-1.5-.1q-3.85-.5-6.25-3 2.6 1.1 6 .7l1.1-4.9q-1.75-.85-1.8-1.5m2.5 10.7q.45.45.4 1.15-2.45 3.4-4.8 4.7l-2.6.5-1.95-.05-3.7-1.45q-4.15-6.3-4-11 1.2 6.7 6.9 10.15 3.45-.25 6.1-5l3 .95.65.05M14.05 81.8l3.85.1.55.1q1.8 1.8 2.05 4.3l.15 3.3-1.45-1q-1.1-1.3-4.8-1.75.7-2.35-.35-5.05m1.3 7-.8.2 3.4.5.8.25q1.25 1.1 2.1 2.3.05 2.15.4 3.8l-1.4-.2q-.15-1.35-5.25-2.05.65-1.1-.6-4.85l1.35.05m-.15 7.4h2.1l.75.1q2.6 1.1 3.95 2.9.2.9-.1 2.15l-1.9.1h-.1q-1.1-1.1-4.25-1.55-.75-1.7-.45-3.7m-3.85 26q-.45 2.9-.35 5.8-.45-1.3-.65-2.75-.15-1.3.9-3.45l.1.4" fill="#494440"/><path d="M21.25 117.7q2.65 5.35 8.75 6.9.05.65 1.8 1.5l-1.1 4.9q-3.4.4-6-.7l-.15-.1-.05-.1-.05-.05q-2.7-2.9-3.55-8.3-.35 2.45.1 4.55l-.6-1.25q.1 6.5-3.55 5 .4 2.7 2.5 3.65 2.6-.25 3.95-2.55l-.3-.7q1.05 1.3 2.6 2.2l3.25 1.65q-2.65 4.75-6.1 5-5.7-3.45-6.9-10.15l.05-.8q.6-5 .2-3.45-2.5 5 .3 12.6l-4.1-6.4-1.05-2.2-.25-.9q-.1-2.9.35-5.8.7 3.3 2.5 3.55 2.75-1.35 4.25-4.9-4.1 1.8-4.6-1.3-1.2 1.55-1.95 1.8l.25-.55-.5.4q-1.05.9-1.4 2.9-1.65-3.3-.6-7.05.2-.8.55-1.45 0 2.5 1.65 3.65 2.35-.6 4.3-3.35-3.75.45-3.35-3.2l1.55-.85-1.55.5q-3.2 1.35-4.45 4.6-1.2-3.6-1.15-7.45l1.3-1.7q.1 2.8 1.65 3.6 2.4-.35 4.45-3.3-2.8.35-3.65-3.05l.15-.15q1.95-1.95 3.45-2.25l2.55-.45q-.75 3.35.7 5.75 1.1 1.15 5.85 1.45-5.2.15-7.15 1.5l.85-.1q1.2 3.6.9 5.1 1.2 1.1 3 .85v.05l-2.3.75q.35 1.45 2.65.15M19.2 88.6l-3.85.2-1.35-.05q1.25 3.75.6 4.85 5.1.7 5.25 2.05-8.3-1.05-14.2 5.1-.65-2.15-.15-6l.7-.8q-.3 3.65 2.3 3.45 2.35-1.3 4.6-3.1-4.1.2-4.5-2.7l2.9-2.25Q9.45 89 5.2 93.1q-.25-5.3.35-6.55L6 86q-.4 2.75.9 3.8 2.65-1.85 5.25-2.9.2-.6-.25-.6-3.1 0-3.25-2.75l.15-.05q1.7-1.1 3.85-1.55l1.4-.15q1.05 2.7.35 5.05 3.7.45 4.8 1.75m-4 7.6q-.3 2 .45 3.7 3.15.45 4.25 1.55l-3.15.3q-2.75.35-3.8.9-1.8.95-2.85 1.65-1.1.7-3.8 3.45l-.25-5.4 1.05-1.15q-.25 1.85 1.15 2.65 3.95-.85 5.6-3.9-3.7 1.85-4.1-1.3l.15-.1q2.35-1.8 4.75-2.3l.55-.05m9.85 33q1.15-.7 2.55-3.8l-3.05-1.9q-.15 3.3-1.8 3.1.25 1.7 2.3 2.6" fill="#857c73"/><path d="m6.2 93.95.35-.35 2.05-2q.4 2.9 4.5 2.7-2.25 1.8-4.6 3.1-2.6.2-2.3-3.45M6 86l.35-.45 2.3-2q.15 2.75 3.25 2.75.45 0 .25.6-2.6 1.05-5.25 2.9Q5.6 88.75 6 86m3.75 12.65q.4 3.15 4.1 1.3-1.65 3.05-5.6 3.9-1.4-.8-1.15-2.65l.2-.25 2.45-2.3m2.7 14.05q-.4 3.65 3.35 3.2-1.95 2.75-4.3 3.35-1.65-1.15-1.65-3.65.85-1.8 2.6-2.9m-.9 8.65q.75-.25 1.95-1.8.5 3.1 4.6 1.3-1.5 3.55-4.25 4.9-1.8-.25-2.5-3.55l.1-.75.1-.1m-.95-16.3q.85 3.4 3.65 3.05-2.05 2.95-4.45 3.3-1.55-.8-1.65-3.6l2.45-2.75m14.45 24.15q-2.05-.9-2.3-2.6 1.65.2 1.8-3.1l3.05 1.9q-1.4 3.1-2.55 3.8M23 130.45l.3.7q-1.35 2.3-3.95 2.55-2.1-.95-2.5-3.65 3.65 1.5 3.55-5l.6 1.25q.45 2.4 2 4.15" fill="#d0cbc7"/></g><linearGradient gradientTransform="matrix(-.0115 .0134 -.0048 -.0041 39.8 19.65)" gradientUnits="userSpaceOnUse" id="r" spreadMethod="pad" x1="-819.2" x2="819.2"><stop offset="0" stop-color="#bc373a"/><stop offset="1" stop-color="#2ae888"/></linearGradient><linearGradient gradientTransform="matrix(.0071 .0123 -.0057 .0033 17.65 23.3)" gradientUnits="userSpaceOnUse" id="s" spreadMethod="pad" x1="-819.2" x2="819.2"><stop offset="0" stop-color="#bc373a"/><stop offset="1" stop-color="#2ae888"/></linearGradient><path d="M0 26.8Q0 15.7 33.05 7.85 66.15 0 112.95 0q46.8 0 79.85 7.85 33.1 7.85 33.1 18.95t-33.1 18.95q-33.05 7.85-79.85 7.85t-79.9-7.85Q0 37.9 0 26.8" fill-opacity=".349" fill-rule="evenodd" id="d"/><path d="M36.8 36.8H0V0h36.8v36.8" fill="#fc0" fill-opacity="0" fill-rule="evenodd" id="t"/><use ffdec:characterId="19" height="36.8" width="36.8" xlink:href="#t" id="c"/></defs></svg>