<svg xmlns:ffdec="https://www.free-decompiler.com/flash" xmlns:xlink="http://www.w3.org/1999/xlink" ffdec:objectType="frame" height="90" width="90" xmlns="http://www.w3.org/2000/svg"><use ffdec:characterId="33" height="290.4" transform="matrix(.2963 0 0 .2966 -7.008 .904)" width="379.15" xlink:href="#a"/><defs><radialGradient cx="0" cy="0" gradientTransform="translate(74.2 30.9) scale(.0314)" gradientUnits="userSpaceOnUse" id="o" r="819.2" spreadMethod="pad"><stop offset="0" stop-color="#475d1f"/><stop offset="1" stop-color="#95a31f"/></radialGradient><radialGradient cx="0" cy="0" gradientTransform="translate(72.55 60.6) scale(.0129)" gradientUnits="userSpaceOnUse" id="p" r="819.2" spreadMethod="pad"><stop offset="0" stop-color="#4a6b0f"/><stop offset="1" stop-color="#a2b418"/></radialGradient><radialGradient cx="0" cy="0" gradientTransform="translate(93.4 53.85) scale(.0202)" gradientUnits="userSpaceOnUse" id="q" r="819.2" spreadMethod="pad"><stop offset="0" stop-color="#4a6b0f"/><stop offset="1" stop-color="#a2b418"/></radialGradient><radialGradient cx="0" cy="0" gradientTransform="translate(126.6 54.05) scale(.0052)" gradientUnits="userSpaceOnUse" id="r" r="819.2" spreadMethod="pad"><stop offset="0" stop-color="#4a6b0f"/><stop offset="1" stop-color="#a2b418"/></radialGradient><radialGradient cx="0" cy="0" gradientTransform="translate(112.8 58.5) scale(.0141)" gradientUnits="userSpaceOnUse" id="s" r="819.2" spreadMethod="pad"><stop offset="0" stop-color="#4a6b0f"/><stop offset="1" stop-color="#a2b418"/></radialGradient><radialGradient cx="0" cy="0" gradientTransform="translate(95.5 62.05) scale(.0185)" gradientUnits="userSpaceOnUse" id="t" r="819.2" spreadMethod="pad"><stop offset="0" stop-color="#4a6b0f"/><stop offset="1" stop-color="#a2b418"/></radialGradient><radialGradient cx="0" cy="0" gradientTransform="matrix(.067 0 0 .067 69.95 21.3)" gradientUnits="userSpaceOnUse" id="u" r="819.2" spreadMethod="pad"><stop offset=".204" stop-color="#52671f"/><stop offset="1" stop-color="#c0ca1f"/></radialGradient><radialGradient cx="0" cy="0" gradientTransform="translate(60.6 19.1) scale(.0347)" gradientUnits="userSpaceOnUse" id="v" r="819.2" spreadMethod="pad"><stop offset=".204" stop-color="#52671f"/><stop offset="1" stop-color="#c0ca1f"/></radialGradient><radialGradient cx="0" cy="0" gradientTransform="translate(59.4 18.6) scale(.0582)" gradientUnits="userSpaceOnUse" id="w" r="819.2" spreadMethod="pad"><stop offset="0" stop-color="#4a6b0f"/><stop offset="1" stop-color="#a2b418"/></radialGradient><radialGradient cx="0" cy="0" gradientTransform="translate(75.7 93.05) scale(.0323)" gradientUnits="userSpaceOnUse" id="x" r="819.2" spreadMethod="pad"><stop offset="0" stop-color="#517010"/><stop offset="1" stop-color="#abbb19"/></radialGradient><radialGradient cx="0" cy="0" gradientTransform="translate(54.8 3.55) scale(.0177)" gradientUnits="userSpaceOnUse" id="y" r="819.2" spreadMethod="pad"><stop offset="0" stop-color="#4a6b0f"/><stop offset=".494" stop-color="#a2b418"/></radialGradient><radialGradient cx="0" cy="0" gradientTransform="matrix(.068 0 0 .068 93.25 9.7)" gradientUnits="userSpaceOnUse" id="z" r="819.2" spreadMethod="pad"><stop offset="0" stop-color="#4a6b0f"/><stop offset="1" stop-color="#a2b418"/></radialGradient><radialGradient cx="0" cy="0" gradientTransform="translate(80.4 25.4) scale(.0176)" gradientUnits="userSpaceOnUse" id="A" r="819.2" spreadMethod="pad"><stop offset="0" stop-color="#4a6b0f"/><stop offset="1" stop-color="#a2b418"/></radialGradient><radialGradient cx="0" cy="0" gradientTransform="translate(72.65 30.3) scale(.0554)" gradientUnits="userSpaceOnUse" id="B" r="819.2" spreadMethod="pad"><stop offset="0" stop-color="#4a6b0f"/><stop offset="1" stop-color="#a2b418"/></radialGradient><radialGradient cx="0" cy="0" gradientTransform="translate(104.95 85.55) scale(.0905)" gradientUnits="userSpaceOnUse" id="C" r="819.2" spreadMethod="pad"><stop offset=".204" stop-color="#52671f"/><stop offset="1" stop-color="#c0ca1f"/></radialGradient><radialGradient cx="0" cy="0" gradientTransform="translate(107.3 79.45) scale(.0103)" gradientUnits="userSpaceOnUse" id="D" r="819.2" spreadMethod="pad"><stop offset=".204" stop-color="#52671f"/><stop offset="1" stop-color="#c0ca1f"/></radialGradient><radialGradient cx="0" cy="0" gradientTransform="translate(108.95 79.25) scale(.0098)" gradientUnits="userSpaceOnUse" id="E" r="819.2" spreadMethod="pad"><stop offset=".204" stop-color="#52671f"/><stop offset="1" stop-color="#c0ca1f"/></radialGradient><radialGradient cx="0" cy="0" gradientTransform="translate(102.65 61.7) scale(.0078)" gradientUnits="userSpaceOnUse" id="F" r="819.2" spreadMethod="pad"><stop offset=".204" stop-color="#52671f"/><stop offset="1" stop-color="#c0ca1f"/></radialGradient><radialGradient cx="0" cy="0" gradientTransform="matrix(.011 0 0 .011 61.45 39.2)" gradientUnits="userSpaceOnUse" id="G" r="819.2" spreadMethod="pad"><stop offset="0" stop-color="#51710f"/><stop offset="1" stop-color="#cfda1c"/></radialGradient><radialGradient cx="0" cy="0" gradientTransform="translate(61.9 53.25) scale(.0063)" gradientUnits="userSpaceOnUse" id="H" r="819.2" spreadMethod="pad"><stop offset="0" stop-color="#51710f"/><stop offset="1" stop-color="#cfda1c"/></radialGradient><radialGradient cx="0" cy="0" gradientTransform="translate(9.7 57.25) scale(.0449)" gradientUnits="userSpaceOnUse" id="I" r="819.2" spreadMethod="pad"><stop offset="0" stop-color="#53681f"/><stop offset="1" stop-color="#b3bf1f"/></radialGradient><radialGradient cx="0" cy="0" gradientTransform="translate(23.05 49.4) scale(.0562)" gradientUnits="userSpaceOnUse" id="J" r="819.2" spreadMethod="pad"><stop offset="0" stop-color="#53681f"/><stop offset="1" stop-color="#b3bf1f"/></radialGradient><radialGradient cx="0" cy="0" gradientTransform="translate(23.4 55) scale(.0227)" gradientUnits="userSpaceOnUse" id="K" r="819.2" spreadMethod="pad"><stop offset="0" stop-color="#53681f"/><stop offset="1" stop-color="#b3bf1f"/></radialGradient><radialGradient cx="0" cy="0" gradientTransform="translate(13.95 36.5) scale(.0266)" gradientUnits="userSpaceOnUse" id="L" r="819.2" spreadMethod="pad"><stop offset="0" stop-color="#4b6c0f"/><stop offset="1" stop-color="#e1e71e"/></radialGradient><radialGradient cx="0" cy="0" gradientTransform="translate(32.4 23.4) scale(.0913)" gradientUnits="userSpaceOnUse" id="M" r="819.2" spreadMethod="pad"><stop offset="0" stop-color="#4b6c0f"/><stop offset="1" stop-color="#e1e71e"/></radialGradient><radialGradient cx="0" cy="0" gradientTransform="translate(21.55 42.25) scale(.0533)" gradientUnits="userSpaceOnUse" id="N" r="819.2" spreadMethod="pad"><stop offset="0" stop-color="#4a6b0f"/><stop offset=".494" stop-color="#a2b418"/></radialGradient><radialGradient cx="0" cy="0" gradientTransform="translate(7.95 57.6) scale(.0271)" gradientUnits="userSpaceOnUse" id="O" r="819.2" spreadMethod="pad"><stop offset="0" stop-color="#4a6b0f"/><stop offset=".494" stop-color="#a2b418"/></radialGradient><radialGradient cx="0" cy="0" gradientTransform="translate(61.9 82.75) scale(.0534)" gradientUnits="userSpaceOnUse" id="P" r="819.2" spreadMethod="pad"><stop offset=".353" stop-color="#4a6b0f"/><stop offset=".988" stop-color="#a2b418"/></radialGradient><radialGradient cx="0" cy="0" gradientTransform="translate(57 64) scale(.0216)" gradientUnits="userSpaceOnUse" id="Q" r="819.2" spreadMethod="pad"><stop offset=".353" stop-color="#4a6b0f"/><stop offset=".988" stop-color="#a2b418"/></radialGradient><radialGradient cx="0" cy="0" gradientTransform="translate(50.9 72.2) scale(.0132)" gradientUnits="userSpaceOnUse" id="R" r="819.2" spreadMethod="pad"><stop offset=".353" stop-color="#4a6b0f"/><stop offset=".988" stop-color="#a2b418"/></radialGradient><radialGradient cx="0" cy="0" gradientTransform="translate(71.2 70.55) scale(.0124)" gradientUnits="userSpaceOnUse" id="S" r="819.2" spreadMethod="pad"><stop offset=".353" stop-color="#4a6b0f"/><stop offset=".988" stop-color="#a2b418"/></radialGradient><radialGradient cx="0" cy="0" gradientTransform="translate(79.45 70.1) scale(.0137)" gradientUnits="userSpaceOnUse" id="T" r="819.2" spreadMethod="pad"><stop offset=".353" stop-color="#4a6b0f"/><stop offset=".988" stop-color="#a2b418"/></radialGradient><radialGradient cx="0" cy="0" gradientTransform="translate(62.15 72.9) scale(.0114)" gradientUnits="userSpaceOnUse" id="U" r="819.2" spreadMethod="pad"><stop offset=".353" stop-color="#4a6b0f"/><stop offset=".988" stop-color="#a2b418"/></radialGradient><radialGradient cx="0" cy="0" gradientTransform="translate(59.9 54.4) scale(.0511)" gradientUnits="userSpaceOnUse" id="V" r="819.2" spreadMethod="pad"><stop offset="0" stop-color="#324217"/><stop offset="1" stop-color="#6b7e1f"/></radialGradient><radialGradient cx="0" cy="0" gradientTransform="translate(51.25 46.65) scale(.0201)" gradientUnits="userSpaceOnUse" id="W" r="819.2" spreadMethod="pad"><stop offset="0" stop-color="#324217"/><stop offset="1" stop-color="#6b7e1f"/></radialGradient><radialGradient cx="0" cy="0" gradientTransform="translate(48.2 63.4) scale(.0157)" gradientUnits="userSpaceOnUse" id="X" r="819.2" spreadMethod="pad"><stop offset="0" stop-color="#324217"/><stop offset="1" stop-color="#6b7e1f"/></radialGradient><radialGradient cx="0" cy="0" gradientTransform="translate(41.75 73.35) scale(.0131)" gradientUnits="userSpaceOnUse" id="Y" r="819.2" spreadMethod="pad"><stop offset="0" stop-color="#324217"/><stop offset="1" stop-color="#6b7e1f"/></radialGradient><radialGradient cx="0" cy="0" gradientTransform="translate(57.2 56.95) scale(.0196)" gradientUnits="userSpaceOnUse" id="Z" r="819.2" spreadMethod="pad"><stop offset="0" stop-color="#4d6d0f"/><stop offset="1" stop-color="#b9c61a"/></radialGradient><radialGradient cx="0" cy="0" gradientTransform="matrix(.013 0 0 .013 50.4 71.15)" gradientUnits="userSpaceOnUse" id="aa" r="819.2" spreadMethod="pad"><stop offset="0" stop-color="#4d6d0f"/><stop offset="1" stop-color="#b9c61a"/></radialGradient><radialGradient cx="0" cy="0" gradientTransform="translate(44.9 78.15) scale(.0038)" gradientUnits="userSpaceOnUse" id="ab" r="819.2" spreadMethod="pad"><stop offset="0" stop-color="#4d6d0f"/><stop offset="1" stop-color="#b9c61a"/></radialGradient><radialGradient cx="0" cy="0" gradientTransform="translate(48.2 69.6) scale(.0052)" gradientUnits="userSpaceOnUse" id="ac" r="819.2" spreadMethod="pad"><stop offset="0" stop-color="#4d6d0f"/><stop offset="1" stop-color="#b9c61a"/></radialGradient><radialGradient cx="0" cy="0" gradientTransform="translate(32.5 56.85) scale(.0299)" gradientUnits="userSpaceOnUse" id="ad" r="819.2" spreadMethod="pad"><stop offset="0" stop-color="#6b7e1f"/><stop offset="1" stop-color="#324217"/></radialGradient><radialGradient cx="0" cy="0" gradientTransform="translate(38.85 64.1) scale(.0198)" gradientUnits="userSpaceOnUse" id="ae" r="819.2" spreadMethod="pad"><stop offset="0" stop-color="#cdd41f"/><stop offset="1" stop-color="#596e1f"/></radialGradient><radialGradient cx="0" cy="0" gradientTransform="translate(33.8 68.1) scale(.0158)" gradientUnits="userSpaceOnUse" id="af" r="819.2" spreadMethod="pad"><stop offset="0" stop-color="#cdd41f"/><stop offset="1" stop-color="#596e1f"/></radialGradient><radialGradient cx="0" cy="0" gradientTransform="translate(33.9 71.85) scale(.0201)" gradientUnits="userSpaceOnUse" id="ag" r="819.2" spreadMethod="pad"><stop offset="0" stop-color="#cdd41f"/><stop offset="1" stop-color="#596e1f"/></radialGradient><radialGradient cx="0" cy="0" gradientTransform="translate(32.05 76.25) scale(.0151)" gradientUnits="userSpaceOnUse" id="ah" r="819.2" spreadMethod="pad"><stop offset="0" stop-color="#cdd41f"/><stop offset="1" stop-color="#596e1f"/></radialGradient><radialGradient cx="0" cy="0" gradientTransform="translate(33.9 58.6) scale(.0304)" gradientUnits="userSpaceOnUse" id="ai" r="819.2" spreadMethod="pad"><stop offset="0" stop-color="#cdd41f"/><stop offset="1" stop-color="#596e1f"/></radialGradient><radialGradient cx="0" cy="0" gradientTransform="matrix(.024 0 0 .024 28.5 13.4)" gradientUnits="userSpaceOnUse" id="aj" r="819.2" spreadMethod="pad"><stop offset="0" stop-color="#475d1f"/><stop offset="1" stop-color="#95a31f"/></radialGradient><radialGradient cx="0" cy="0" gradientTransform="matrix(.013 0 0 .013 23.2 22.5)" gradientUnits="userSpaceOnUse" id="ak" r="819.2" spreadMethod="pad"><stop offset="0" stop-color="#475d1f"/><stop offset="1" stop-color="#95a31f"/></radialGradient><radialGradient cx="0" cy="0" gradientTransform="translate(33.05 10.8) scale(.0251)" gradientUnits="userSpaceOnUse" id="al" r="819.2" spreadMethod="pad"><stop offset="0" stop-color="#475d1f"/><stop offset="1" stop-color="#95a31f"/></radialGradient><radialGradient cx="0" cy="0" gradientTransform="translate(28.5 10) scale(.0201)" gradientUnits="userSpaceOnUse" id="am" r="819.2" spreadMethod="pad"><stop offset="0" stop-color="#4a6b0f"/><stop offset="1" stop-color="#a2b418"/></radialGradient><radialGradient cx="0" cy="0" gradientTransform="translate(34.7 5.8) scale(.0059)" gradientUnits="userSpaceOnUse" id="an" r="819.2" spreadMethod="pad"><stop offset="0" stop-color="#4a6b0f"/><stop offset="1" stop-color="#a2b418"/></radialGradient><radialGradient cx="0" cy="0" gradientTransform="translate(36.2 5.2) scale(.0087)" gradientUnits="userSpaceOnUse" id="ao" r="819.2" spreadMethod="pad"><stop offset="0" stop-color="#4a6b0f"/><stop offset="1" stop-color="#a2b418"/></radialGradient><radialGradient cx="0" cy="0" gradientTransform="translate(22.5 21.55) scale(.0025)" gradientUnits="userSpaceOnUse" id="ap" r="819.2" spreadMethod="pad"><stop offset="0" stop-color="#4a6b0f"/><stop offset="1" stop-color="#a2b418"/></radialGradient><radialGradient cx="0" cy="0" gradientTransform="translate(21.8 22.5) scale(.0056)" gradientUnits="userSpaceOnUse" id="aq" r="819.2" spreadMethod="pad"><stop offset="0" stop-color="#4a6b0f"/><stop offset="1" stop-color="#a2b418"/></radialGradient><radialGradient cx="0" cy="0" gradientTransform="translate(73.85 11.9) scale(.0469)" gradientUnits="userSpaceOnUse" id="ar" r="819.2" spreadMethod="pad"><stop offset="0" stop-color="#324217"/><stop offset="1" stop-color="#6b7e1f"/></radialGradient><radialGradient cx="0" cy="0" gradientTransform="translate(73.85 11.9) scale(.0469)" gradientUnits="userSpaceOnUse" id="as" r="819.2" spreadMethod="pad"><stop offset=".204" stop-color="#52671f"/><stop offset="1" stop-color="#c0ca1f"/></radialGradient><radialGradient cx="0" cy="0" gradientTransform="translate(63.2 23.05) scale(.0107)" gradientUnits="userSpaceOnUse" id="at" r="819.2" spreadMethod="pad"><stop offset="0" stop-color="#324217"/><stop offset="1" stop-color="#6b7e1f"/></radialGradient><radialGradient cx="0" cy="0" gradientTransform="translate(70.7 15.55) scale(.0159)" gradientUnits="userSpaceOnUse" id="au" r="819.2" spreadMethod="pad"><stop offset="0" stop-color="#4e6e0f"/><stop offset="1" stop-color="#bcc91b"/></radialGradient><radialGradient cx="0" cy="0" gradientTransform="translate(67.65 22.8) scale(.0047)" gradientUnits="userSpaceOnUse" id="av" r="819.2" spreadMethod="pad"><stop offset="0" stop-color="#4e6e0f"/><stop offset="1" stop-color="#bcc91b"/></radialGradient><radialGradient cx="0" cy="0" gradientTransform="translate(67.05 23.85) scale(.0134)" gradientUnits="userSpaceOnUse" id="aw" r="819.2" spreadMethod="pad"><stop offset="0" stop-color="#4e6e0f"/><stop offset="1" stop-color="#bcc91b"/></radialGradient><radialGradient cx="0" cy="0" gradientTransform="translate(61.65 29.5) scale(.0104)" gradientUnits="userSpaceOnUse" id="ax" r="819.2" spreadMethod="pad"><stop offset="0" stop-color="#52671f"/><stop offset="1" stop-color="#c0ca1f"/></radialGradient><radialGradient cx="0" cy="0" gradientTransform="translate(68 32.4) scale(.0078)" gradientUnits="userSpaceOnUse" id="ay" r="819.2" spreadMethod="pad"><stop offset=".204" stop-color="#52671f"/><stop offset="1" stop-color="#c0ca1f"/></radialGradient><radialGradient cx="0" cy="0" gradientTransform="translate(61.8 34.75) scale(.0088)" gradientUnits="userSpaceOnUse" id="az" r="819.2" spreadMethod="pad"><stop offset="0" stop-color="#324217"/><stop offset="1" stop-color="#6b7e1f"/></radialGradient><radialGradient cx="0" cy="0" gradientTransform="translate(64.15 36.15) scale(.0051)" gradientUnits="userSpaceOnUse" id="aA" r="819.2" spreadMethod="pad"><stop offset=".204" stop-color="#52671f"/><stop offset="1" stop-color="#c0ca1f"/></radialGradient><radialGradient cx="0" cy="0" gradientTransform="translate(66.7 30.4) scale(.0086)" gradientUnits="userSpaceOnUse" id="aB" r="819.2" spreadMethod="pad"><stop offset=".204" stop-color="#52671f"/><stop offset="1" stop-color="#c0ca1f"/></radialGradient><radialGradient cx="0" cy="0" gradientTransform="matrix(.005 0 0 .005 58.25 32.65)" gradientUnits="userSpaceOnUse" id="aC" r="819.2" spreadMethod="pad"><stop offset=".204" stop-color="#52671f"/><stop offset="1" stop-color="#c0ca1f"/></radialGradient><radialGradient cx="0" cy="0" gradientTransform="translate(57.35 37.2) scale(.0059)" gradientUnits="userSpaceOnUse" id="aD" r="819.2" spreadMethod="pad"><stop offset=".204" stop-color="#52671f"/><stop offset="1" stop-color="#c0ca1f"/></radialGradient><radialGradient cx="0" cy="0" gradientTransform="translate(54.75 41.2) scale(.0048)" gradientUnits="userSpaceOnUse" id="aE" r="819.2" spreadMethod="pad"><stop offset="0" stop-color="#324217"/><stop offset="1" stop-color="#6b7e1f"/></radialGradient><radialGradient cx="0" cy="0" gradientTransform="translate(58.4 39.55) scale(.0081)" gradientUnits="userSpaceOnUse" id="aF" r="819.2" spreadMethod="pad"><stop offset=".204" stop-color="#52671f"/><stop offset="1" stop-color="#c0ca1f"/></radialGradient><radialGradient cx="0" cy="0" gradientTransform="translate(55.1 43.05) scale(.0059)" gradientUnits="userSpaceOnUse" id="aG" r="819.2" spreadMethod="pad"><stop offset=".204" stop-color="#52671f"/><stop offset="1" stop-color="#c0ca1f"/></radialGradient><g id="a" transform="translate(23.65 -3.05)"><use ffdec:characterId="1" height="7.45" transform="matrix(4.3881 0 0 8.2672 -12.073 223.769)" width="63" xlink:href="#b"/><use ffdec:characterId="6" height="91.7" transform="translate(169.8 100.5) scale(1.2538)" width="148.1" xlink:href="#c"/><use ffdec:characterId="8" height="56.15" transform="translate(72.3 140.65) scale(1.2538)" width="108.9" xlink:href="#d"/><use ffdec:characterId="10" height="71.05" transform="translate(187.3 164.45) scale(1.2538)" width="59.2" xlink:href="#e"/><use ffdec:characterId="12" height="40.85" transform="translate(188.5 92.9) scale(1.2538)" width="79.85" xlink:href="#f"/><use ffdec:characterId="14" height="97.7" transform="translate(116.95 63.9) scale(1.2538)" width="99.65" xlink:href="#g"/><use ffdec:characterId="16" height="89.2" transform="translate(123.7 8.35) scale(1.2538)" width="72.35" xlink:href="#h"/><use ffdec:characterId="18" height="57.35" transform="translate(60.85 30.15) scale(1.2538)" width="24.6" xlink:href="#i"/><use ffdec:characterId="20" height="101.8" transform="translate(34.1 44.85) scale(1.2538)" width="130.85" xlink:href="#j"/><use ffdec:characterId="22" height="81.65" transform="translate(114.95 129.15) scale(1.2538)" width="61" xlink:href="#k"/><use ffdec:characterId="24" height="82.8" transform="translate(-19.4 156.35) scale(1.2538)" width="56.2" xlink:href="#l"/><use ffdec:characterId="26" height="79.65" transform="translate(49.05 189.6) scale(1.2538)" width="99.05" xlink:href="#m"/><use ffdec:characterId="32" height="69.4" transform="translate(19 141.25) scale(1.2538)" width="75.35" xlink:href="#n"/></g><g id="aH" fill-rule="evenodd"><path d="M39.3 9.5q-3.85.15-5.65 1.2l2.5.85.1.05v.2l-.1.1H36l-2.9-.9q-9.45-2.6-19.45 2.1h-.15l-.1-.15v-.15l.1-.1q10.1-4.75 19.65-2.15 1.65-1.2 5.4-1.45l1.6-.05.15.05.05.15-.05.15-.15.05-.85.05m-10-6.75q-14.5-3-27.7.4l-.75.2L.4 3.3l-.35-.45q-.1-.25.05-.45l.4-.35.5-.1q14.2-3.75 29.75-.3 4.1.85 8.35 2.3l.15.05q11.2 7.2 25.6 9.75h10.3l.4.1.2.35v.4Q74 20.35 63.9 24.25q7.35 3.35 15.05 3.6l1.2.05.45.15.25.4-.1.45q-2.05 3.85-5.9 6.4l-.7.4L94 41.75q-.95 2.45-7.1 6.2 5.3 4.75 17.05 3.8l.45.15.25.35v.4l-.25.35-5.5 3.6q8.7.85 17.7-2.6l.9-.3.35-.05.35.2.2.35-.05.4-1.3 2.7 2.85-1.35q3.75-1.95 7.2-4.9l4.05-3.85.4-.2h.35l.35.3.05.4q-.1 2.05-1.5 5.05L129 56.2l-.85 1.45-.05.05-.45.7-.4.3-.5-.05-.1-.05-5.4 2.75-.15.05q-2.05 0-2.5-.95l-4.7.9-3.3 2q-2.4 1.15-4.85 1.45l-.5-.15-.15-.15q-6 .55-8.35-.85l-.75.5-.05.05q-5.2 1.3-9.35 1.1-5.8-.3-9.65-3.6l-1.8.75q-6.8 2.35-13.75-2.4l-.15-.1-.1-.05-3.7-5.4q-7.2 1.6-11.05.8l.8 3.05v.15l-.15.15-.15.05-3.25-.7q-7.95-2.05-13.3-7.05L28.45 49l-.1-.2.15-.2q.05-.1.2-.1l.2.15 1.2 1.25q5.05 5.05 12.65 7.25l3.8.9L45.7 55v-.25l.15-.1h.2q3.85.95 11.45-.75l.05-.05.8-.2-.05.05 6.95-2.05h.05l3.25-.95q-5.4-4.9-13.95-6.95L50.85 43h-.05L42 38.65l-1-.1-14-2.1-.3-.1-3.2-.7-.4-.3q-.2-.25-.1-.5l.3-.4.5-.1.2.05 2.65.55q7.1 1.5 14.5 2.25l17.3.8 5.2-.15q3.8-.65 6.8-1.85 5.7-2.3 8.55-6.75l-1.4-.1q-7.9-.55-15.5-4.3l-.75.3-6.8 1.85-10.25 1.05q-10 1-1.8-.25l9.85-1.65.35-.1h.15l.95-.25.45-.1 7.55-2.15.15-.05.15-.05q9.7-3.35 12.05-8.4H64.7Q50 12.5 38.6 5.2q-4.75-1.55-9.3-2.45M73.7 36.9l-1-.4q-3.8 1.85-8.95 2.7h-.05q-10.35.4-20.1-.4l7.4 3.65 4.25.85q8.65 2.15 14.1 7.3l.1.15-.05.2-.15.15-3.2.9 1.25 1.05 4.05 3.3 18.55 1.3 7.15-1.45 4.5-2.95q-9.15.25-14.15-3.2l-2.1-1.75-11.1.5-.4-.3-.15-.35V48q0-.25.25-.4l.5-.15q3.9.45 7 .15 6.05-1.6 7.7-3.8l.4-.75-.9-.35-7.55-2.95-2.45-.95-4.9-1.9m9.55 7.4q-6.5-.9-10.05-2.1l-7.6-.55-5.2.55q4.8-2.3 14.45 0l8.4 2.1m-9 17.8 2.2-.85-5.35-4.35-.05-.05-4.2-3.35-1.55-1.25-6.8 2h-.05l-.4.1 3.6 5.2q6.4 4.35 12.6 2.55m11.9 2.6q4.2.3 9.55-1.05l.8-.55.05-.05.1-.05 2.45-1.7-8.8-3-.3-.05h-.15L81 57.6l-8.9-.65 5 4.1.1.05.05.05q3.5 3.1 8.9 3.55m23-2.15 1.8-.9 3.9-2.85 1.55-3.25-.6.2q-7.25 2.5-14.35 2.35l-4.55-.45-.35-.15-.2-.35v-.2L91.25 58l8.55 2.95.15.1.05.25-.1.15-2.65 1.8q2.35 1.2 7.8.65l.1-.2q.15-.2.45-.25l3.55-.9M128.1 52l-.1.1q-2.6 2.15-5.3 3.8-2.85 1.8-5.9 2.95l-.75.7-.05.1-.1.1-.25.1-.75.65 3.8-.7.25.05.1.2q.25.7 2 .75l4.3-2.15 1.05-.55q0-.25.15-.4l.45-.75q2.65-4.3 3.55-7.2L128.1 52" fill="#324217"/><path d="M38.55 9.1q-3.75.25-5.4 1.45-9.55-2.6-19.65 2.15l-.1.1v.15l.1.15h.15q10-4.7 19.45-2.1l2.9.9h.15l.1-.1v-.2l-.1-.05-2.5-.85q1.8-1.05 5.65-1.2l4 1.95 16.85 5.4 10.7-.05q-7.2 6.2-16.6 8.85l-.45.15-.95.25h-.15l-.35.1-9.85 1.65q-8.2 1.25 1.8.25L54.55 27l6.8-1.85-7.9 4.6 4.9.75 5.7-2.65-2.8 2.25h10.3l-6.5 2.25L48.5 31.2q1.05 4.8 9.95 6.8l-17.3-.8q-7.4-.75-14.5-2.25L24 34.4l-12.55-9.2L1.6 3.15q13.2-3.4 27.7-.4l-1.45 1 10.7 5.35M67.3 53.05 66.05 52l3.2-.9-1.95 1.95m-12.7-9.3-4.2 3 7.65 1.3 4.05 1.45-12.7-1.25 3.15 2.85-8.45-3.4h-5.3l2 7.65 1.95 1.8q-7.6-2.2-12.65-7.25L27 36.45l14 2.1 1 .1L50.8 43h.05l3.75.75M74.25 62.1q-6.2 1.8-12.6-2.55l-3.6-5.2.4-.1h.05l6.8-2 1.55 1.25-4.5 4.45 11.9 4.15" fill="#445b1f"/><path d="m39.3 9.5.85-.05.15-.05.05-.15-.05-.15-.15-.05-1.6.05-10.7-5.35 1.45-1q4.55.9 9.3 2.45 11.4 7.3 26.1 9.85h8.05l-1.9 1.75-10.7.05-16.85-5.4-4-1.95" fill="#45670e"/><path d="m69.25 51.1.15-.15.05-.2-.1-.15q-5.45-5.15-14.1-7.3L51 42.45l-7.4-3.65q9.75.8 20.1.4h.05q5.15-.85 8.95-2.7l1 .4-3.8 3.65h2.6l6.1-1.75 2.45.95-6 1.25Q83 43.4 88.6 42.7l.9.35-.4.75-5.85.5-8.4-2.1q-9.65-2.3-14.45 0l5.2-.55-2.3 1.2 4.3 4.85 6.05.45.15.35.4.3 11.1-.5 2.1 1.75q-5.65 2.8-10.6 2.95l1.55 1.95q10.95 1.3 23.2-1.7l-4.5 2.95-7.15 1.45-18.55-1.3-4.05-3.3 1.95-1.95m16.9 13.6q-5.4-.45-8.9-3.55l-.05-.05-.1-.05-5-4.1 8.9.65 5.15 7.1m15.3-6.6 7.7 4.45-3.55.9q-.3.05-.45.25l-.1.2q-5.45.55-7.8-.65l2.65-1.8.1-.15-.05-.25-.15-.1L91.25 58l5.1-1.05v.2l.2.35.35.15 4.55.45m25.35-2.25-1.45 2.8-4.3 2.15q-1.75-.05-2-.75l-.1-.2-.25-.05-3.8.7.75-.65.25-.1.1-.1.05-.1.75-.7q3.05-1.15 5.9-2.95l4.1-.05" fill="#3f541c"/><path d="m129 56.2 1.8-3.45q8.85-4.95 17.3-15.95-4.55 16.05-22.05 30.25-15.75 9.1-30.65 9.05l-8.35-.05q-20.75-2.65-33-8.85H35.7l-.65-2.05L54.7 66.2l.05.2.3-.05q11.1 5 25.8 7.05l19.1.9 2.95-.4q13.1-2.35 23.95-9.3 8.5-6.45 14.15-15.25l3.15-5.6L129 56.2" fill="#6f668c"/><path d="M30.35 50.95q5.35 5 13.3 7.05l3.25.7.15-.05.15-.15v-.15l-.8-3.05q3.85.8 11.05-.8l3.7 5.4.1.05.15.1 3.45 4.5q10.25 3.7 26.7 4l16.45-1.1q7.95-1.1 19.6-5.95 9.2-7.45 13.4-12.15-5.65 8.8-14.15 15.25-10.85 6.95-23.95 9.3l-12.8-.5q-20.15-1.4-30-8.2l-5.05 1.15-.35-.15-19.65-1.05-4.7-14.2M52.4 58.7l-3.65-.2 6.4 4.8-2.75-4.6" fill="#8c7db2"/><path d="M61.4 60.05q6.95 4.75 13.75 2.4l1.8-.75q3.85 3.3 9.65 3.6 4.15.2 9.35-1.1l.05-.05.75-.5q2.35 1.4 8.35.85l.15.15.5.15q2.45-.3 4.85-1.45l3.3-2 4.7-.9q.45.95 2.5.95l.15-.05 5.4-2.75.1.05.5.05.4-.3.45-.7.05-.05.85-1.45 15.15-12.45-3.15 5.6q-4.2 4.7-13.4 12.15-11.65 4.85-19.6 5.95l-16.45 1.1q-16.45-.3-26.7-4l-3.45-4.5m-9-1.35 2.75 4.6-6.4-4.8 3.65.2" fill="#c5b2f5"/><path d="M54.25 25.65q9.4-2.65 16.6-8.85l1.9-1.75h1.4q-2.35 5.05-12.05 8.4l-.15.05-.15.05-7.55 2.15v-.05m23.35 3.5 1.4.1Q76.15 33.7 70.45 36l7.15-6.85m-22.55 37.2 5.05-1.15q9.85 6.8 30 8.2l12.8.5-2.95.4-19.1-.9q-14.7-2.05-25.8-7.05m55.9-4.7q2.45-2.05 4.15-4.75l.7-1.15.6-.2-1.55 3.25-3.9 2.85m17.15-9.55V52l2.45-2.25q-.9 2.9-3.55 7.2l-.45.75q-.15.15-.15.4l-1.05.55 1.45-2.8.4-1.1.9-2.65" fill="#ebbad5"/><path d="m73.7 36.9 4.9 1.9-6.1 1.75h-2.6l3.8-3.65m7.35 2.85 7.55 2.95q-5.6.7-13.55-1.7l6-1.25m8.05 4.05q-1.65 2.2-7.7 3.8-3.1.3-7-.15l-.5.15q-.25.15-.25.4v.15l-6.05-.45-4.3-4.85 2.3-1.2 7.6.55q3.55 1.2 10.05 2.1l5.85-.5" fill="#769013"/><path d="m42.75 57.15-1.95-1.8-2-7.65h5.3l8.45 3.4-3.15-2.85 12.7 1.25-4.05-1.45-7.65-1.3 4.2-3q8.55 2.05 13.95 6.95l-3.25.95h-.05L58.3 53.7l.05-.05-.8.2-.05.05q-7.6 1.7-11.45.75h-.2l-.15.1V55l.85 3.05-3.8-.9" fill="#a8ba19"/><path d="M58.45 38q-8.9-2-9.95-6.8l16.55 1.15 6.5-2.25h-10.3l2.8-2.25-5.7 2.65-4.9-.75 7.9-4.6.75-.3q7.6 3.75 15.5 4.3L70.45 36q-3 1.2-6.8 1.85l-5.2.15" fill="url(#o)"/><path d="m66.85 53.5 4.2 3.35.05.05 5.35 4.35-2.2.85-11.9-4.15 4.5-4.45" fill="url(#p)"/><path d="M87.4 50.05q5 3.45 14.15 3.2-12.25 3-23.2 1.7L76.8 53q4.95-.15 10.6-2.95" fill="url(#q)"/><path d="M128 52.1h.1l-.9 2.65-.4 1.1-4.1.05q2.7-1.65 5.3-3.8" fill="url(#r)"/><path d="m110.95 61.65-1.8.9-7.7-4.45q7.1.15 14.35-2.35l-.7 1.15q-1.7 2.7-4.15 4.75" fill="url(#s)"/><path d="m81 57.6 8.85.65H90l.3.05 8.8 3-2.45 1.7-.1.05-.05.05-.8.55Q90.35 65 86.15 64.7L81 57.6" fill="url(#t)"/></g><g id="aI" fill-rule="evenodd"><path d="m79.9 14.7 8.35 2.6q6.85 5.95 14.4 7.7L96 32.45 81.9 37.3l-4.2-13.4 7.6 1.7-5.4-10.9" fill="#baa8e8"/><path d="m58.45 20.15 5-5.6-39.35-3.3-17.3 23.2L0 16.2 24.35 0 90.1 1.85l18.8 17-10.55 18.4-4.8 3.05-8.25 2.85-22.85 9.95-1.1-.1 9.85-25.3-.95-.55-11.8-7M79.9 14.7l5.4 10.9-7.6-1.7 4.2 13.4L96 32.45l6.65-7.45q-7.55-1.75-14.4-7.7l-8.35-2.6" fill="#8c7db2"/><path d="m58.45 20.15 11.8 7L44.1 40.4q-1.4 2.35-5.7 4.45-9.8 4.45-15.65 0L17.25 46l11-10.75 2-5.4-5.5 2.9q4-4.95 5.6-13.8V15.1l21.85 1.35 6.25 3.7" fill="#fff"/><path d="m6.8 34.45 17.3-23.2 39.35 3.3-5 5.6-6.25-3.7-21.85-1.35v3.85q-1.6 8.85-5.6 13.8l5.5-2.9-2 5.4-11 10.75 5.5-1.15q5.85 4.45 15.65 0 4.3-2.1 5.7-4.45l26.15-13.25.95.55L61.35 53h-.05l-34.05-2.15-9.45-2.95-7.8-4.85-3.2-8.6" fill="#c5b2f5"/><path d="m61.35 53 1.1.1 2.05.3-2.7 1.2-1.45-.35-36.45-2.6-6.1-3.75 9.45 2.95L61.3 53h.05" fill="#ebbad5"/><path d="m62.45 53.1 22.85-9.95 8.25-2.85 4.8-3.05-1.65 2.85-19.65 7.65L64.5 53.4l-2.05-.3M10 43.05l7.8 4.85 6.1 3.75 36.45 2.6 1.45.35-3.5 1.55-34.55-2.8-13.1-8.65-.65-1.65" fill="#6f668c"/></g><g id="aJ" fill-rule="evenodd"><path d="M45.15 5.35q1.85.55 4.05 3 .55 8.25 2.55 13.65l.85 2 .7 3.25-.25.35-1.9-4.6L48.1 8.75l-2.95-3.4m8.6 22.3.35-.45 1.85 1.5q.3 6 1.35 8.65.6 8.45-2.55 17.85 1.25-6.85 1.9-17.65l-1.6-7.95-1.3-1.95m.9 27.75-2.9 4.15-1.3 2.5-2.05.75.2-.75 1.35-.85 2.4-3.7 2.3-2.1m-7.25 6.7-.25.85q-3.3.5-5.8 1.7l1.75-1.35 4.3-1.2" fill="#ebbad5"/><path d="m31 30.6 7.35-13.15.9-3.7 1.65-2.65.45 4.3-2.9 9.7.85 11-.5 8.65q1.45-.15 2 .85l-1.45 5.25-2.5 1.6-.8-.9-.55-1.45 1.05 1.35 2.9-2.3q.1-2.4-.35-2.9l-2.75.3v2.8l1.05-.3 1.15-.5-1.7 2.1-1.05-1.3V46.7l1.55-2.65.5-11.1-3.05 6.95-1.2 5.5-2.2 2.3.05 4.1-.4-.5h-.55q-.4-1.7.2-3.7l.1-.15 1.45-3.15 1.3-10.25L31 30.6M42.6 7.3l.05-.1v-.05l1.8-1.95h.2l.5.15 2.95 3.4L51.15 23l1.9 4.6-1.95 2.35-.1 6.5.45-.45.3-3.8.1 3.9-1.7 8.2q-1.75-6-1.65-14.9l1.35-3.45-3.35-15.9-3.9-2.75M45.95 31l.05-.25.7-1q.55.05.6 2.1l-.65 3-.05-4.2-1.7 15.7L46.35 48l-.45 4.45-1.2 1.1-5.45-.55-4.3 5.35-.75-1.9 6.9-5.1 2.6-.9 1.75-16.2.5-3.25m-8.3 16.8-.65.75V47h.9l-.2.8h-.05" fill="#b85439"/><path d="m42.15 10.55.45-3.25 3.9 2.75 3.35 15.9-4.7-12.9-3-2.5m-2.8 40.3 1.8-1.15 4.8-18.7-.5 3.25q-1.2 7.35-3.8 16.7l-.55.4-6.9 5.1-.75-1.9 3.4-2.1 2.5-1.6m15.1-6.4L48.4 55.3l-1.45-2.1 5.9-8.9 1.65-6.1-.75-7.15 1.45 7.55-.75 5.85" fill="#ffc180"/><path d="M27.9 51.05q1-1.45 1.05-5l-1.35-8.7 1.85-4.05L31 30.6l2.55 3.45-1.3 10.25-1.45 3.15-.1.15q-.6 2-.2 3.7h-2.05l-.55-.25M41.35 15.4v.3l.8-5.15 3 2.5 4.7 12.9-1.35 3.45q-.1 8.9 1.65 14.9l1.7-8.2-.1-3.9.15-2.1 1.85-2.45 1.3 1.95 1.6 7.95q-.65 10.8-1.9 17.65l-.1.2-2.3 2.1-2.4 3.7-1.35.85q.65-3.15-.1-5.3-.45-1.15-2.05-2.4l-.25-1.15.75-1.75q.25-2.55 0-4L45.7 45.9q.85-6.5.95-11.05l.65-3q-.05-2.05-.6-2.1l-.7 1-.05.25-4.8 18.7-1.8 1.15 1.45-5.25q-.55-1-2-.85l.5-8.65-.85-11 2.9-9.7m7.05 39.9 1.45 2 5-13.55-.4.7.75-5.85-1.45-7.55.75 7.15-1.65 6.1-5.9 8.9 1.45 2.1M37.85 32.95l-1.2 11.4-1.5 2.3.35 3.45.55 1.45.8.9-3.4 2.1-2-2.75.65-4.1 2.1-2.25q1.3-6.1.6-5.55l3.05-6.95m-.45 16.1.2-.9.1-.35.2-.8h.9l-.2 1.35-.05.2-1.15.5" fill="#e88046"/><path d="m26.2 50.25 1-3.3-1-9.65 2.45-5.45 8.7-14.6L40 9.1l1.35-1.15.55-2.25 2.3-2.3 6.35 3.95 1.15 8.15 3 10.35 3 2.4.35 4.25.2.7q.05 3.45.95 3.7l-.3 7.7q-.7 5.8-2.4 11l-2.25 2.35-1.4 2.9-2.25 2.65-2.65.75.45-1.45 2.05-.75 1.3-2.5 2.9-4.15.1-.2q3.15-9.4 2.55-17.85-1.05-2.65-1.35-8.65l-1.85-1.5-.35.45-1.85 2.45-.15 2.1-.3 3.8-.45.45.1-6.5 1.95-2.35.25-.35-.7-3.25-.85-2q-2-5.4-2.55-13.65-2.2-2.45-4.05-3l-.5-.15h-.2l-1.8 1.95v.05l-.05.1-.45 3.25-.8 5.15v-.3l-.45-4.3-1.65 2.65-.9 3.7L31 30.6l-1.55 2.7-1.85 4.05 1.35 8.7q-.05 3.55-1.05 5l-1.7-.8m20.45-15.4q-.1 4.55-.95 11.05l1.25 1.55q.25 1.45 0 4l-.75 1.75.25 1.15-.9-.7-.85-.1 1.2-1.1.45-4.45-1.45-1.65 1.7-15.7.05 4.2m-8.8-1.9-.5 11.1-1.55 2.65v2.65l1.05 1.3 1.7-2.1.05-.1v-.1l.2-1.35H37v1.55l.65-.75-.05.35-.2.9-1.05.3v-2.8l2.75-.3q.45.5.35 2.9l-2.9 2.3-1.05-1.35-.35-3.45 1.5-2.3 1.2-11.4M34.8 39.9q.7-.55-.6 5.55l-2.1 2.25-.65 4.1-.05-4.1 2.2-2.3 1.2-5.5" fill="#662c1c"/><path d="m45.45 34.25-1.75 16.2-2.6.9.55-.4q2.6-9.35 3.8-16.7m9 10.2.4-.7-5 13.55-1.45-2 6.05-10.85" fill="#78301d"/><path d="m35.85 67.05-.7-2.5q.2-6.1 4.6-10.7l5.55.45 2.75 2.3.05.45q-2.95 1.55-6.75 1.45-3.35 1.8-5.5 8.55m-19.4-12.7q-.9.35-2.5 2.2l-2.1 2.9 1.1-2.65.05-.25q3.25-4.95 6.65-5.3-1.9 1.55-3.2 3.1m17 2.2q-5.3 1.4-10.55-.6l-.1-.05q-6.1 3.95-7.85 9.95-.35-6 2.3-9.85 3.2-3.75 6.15-5.2l5.2 1.6 2.25-.5q1.55 1.95 2.6 4.65" fill="#fff"/><path d="M35.85 67.05q2.15-6.75 5.5-8.55 3.8.1 6.75-1.45l-.2 2.55q-4 1.25-6.3.1l-2.35 6.15-.2.2q-1.65 1.15-2.7 2.75l-.5-1.75m-24-7.6 2.1-2.9q1.6-1.85 2.5-2.2-1.4 1.65-2.15 3.35l-2.25 4.25-1 .75q.2-1.5.8-3.25m3.1 6.4q1.75-6 7.85-9.95l.1.05q5.25 2 10.55.6l.85 2.6q-6.9 2.9-10.4-1.2-3.7 3.05-4.5 6-2.1 1.25-4.35 3.15l-.1-1.25" fill="#b2967d"/><path d="m47.9 59.6-.5 2.5-4.3 1.2-1.75 1.35q-1.15.5-2.1 1.2l2.35-6.15q2.3 1.15 6.3-.1m-35.85 2.35 2.25-4.25q-.75 1.65-.85 3.3l-1.4.95m7.35 2q.8-2.95 4.5-6 3.5 4.1 10.4 1.2l.15.4-1.2 2.9-3.6 1.2-6.05-1.75q-2 .7-4.2 2.05" fill="#f5d2b2"/><path d="m47.95 64.25-.2.55q-4.4-.15-9.9 3.8l-2.7 2.45Q33.7 69.1 33.2 64.1l-2.9 1.65-7-1.95-4.15 1.9q-3.5 2.75-4.55 4.55-1.3-2.65-1.6-7.35l-3 2.65q-.7-1.8 0-6.85 2.5-6.15 7.05-8.4 2.95-1.15 4.75-.25l2-1 2.4 1.2 1.7.8.55.25h2.6l.4.5 2 2.75.75 1.9.75 1.9 4.3-5.35 5.45.55.85.1.9.7q1.6 1.25 2.05 2.4.75 2.15.1 5.3l-.2.75-.45 1.45m.15-7.2-.05-.45-2.75-2.3-5.55-.45q-4.4 4.6-4.6 10.7l.7 2.5.5 1.75q1.05-1.6 2.7-2.75l2.3-1.4q2.5-1.2 5.8-1.7l.25-.85.5-2.5.2-2.55m-36.25 2.4q-.6 1.75-.8 3.25l1-.75 1.4-.95q.1-1.65.85-3.3.75-1.7 2.15-3.35 1.3-1.55 3.2-3.1-3.4.35-6.65 5.3l-.05.25-1.1 2.65m21.6-2.9q-1.05-2.7-2.6-4.65l-2.25.5-5.2-1.6q-2.95 1.45-6.15 5.2-2.65 3.85-2.3 9.85l.1 1.25q2.25-1.9 4.35-3.15 2.2-1.35 4.2-2.05l6.05 1.75 3.6-1.2 1.2-2.9-.15-.4-.85-2.6" fill="#826d5a"/><path d="m8.6 7.55 3.35-3.8 9.9 11.15 1.05-1.4q1.7 3.95 2.05 10.45L23.4 22.4q-.65 1.65-.45 5.45l-1.9 3.7H16.2l-4.65-2.9-4.3 7.2-2.05-1.6-1.55-2.65-.25 3.1-1-1.2-.05-.15q-2.6-5.8.15-13.15L8.6 7.55" fill="#fff"/><path d="M29.65 22.1q.2 1.9 0 3.1l-2.55.25-2.15-1.5q-.35-6.5-2.05-10.45 1.45-2.2 2.8-5.7l2.75 1q-1 3.95 0 10.35l1.2 2.95" fill="#c5b2f5"/><path d="M11.95 3.75 15.25 0l14.9 7.2.05.75-.45 1.9q-.65 5.35.65 9.15l-.1.05q-1.1.35-1.25-.25l.6 3.3-1.2-2.95q-1-6.4 0-10.35l-2.75-1q-1.35 3.5-2.8 5.7l-1.05 1.4-9.9-11.15" fill="#8c7db2"/><path d="M1.65 34.8Q-.6 32 .2 23.3q2.45-6.85 8.35-15.75h.05L2.5 20.2q-2.75 7.35-.15 13.15H2.3l-.65 1.45M30.2 7.95l.65 7.9.65 2.55-.5.35-.6.25q-1.3-3.8-.65-9.15l.45-1.9" fill="#6f668c"/><path d="m37.6 13.15-1.4 1.65-1.75 3.8-1.95.7v.8l2.45 1.25-2.35 1.5 1.7 3.45-2.15 1.9-5.6.6q.85.8.15 2.55.05.7-2 5.6V37l-3.1.55q-4.8-1.2-7.75-3.7-2.55 4.65-3.4 7.5-1.8-.3-3.65-2.6L5.75 40.7 4 38.05l-.85-2.75v3.65L8 46.05l4.85.2q7.7-.2 15.8-3.7l5.2-3.95 1.3-1.05 4.5-4.8 3.4-3.65q1.65-3.95.1-9.15l-1.7 1.4-.35-.9-2.3-5.8-.8-1.95-.4.45m-6.1 5.25 2.55-2 3.9-6 4.55 9.05 1.3-.7q1.1 2.7 1.5 7.9l-2.2 4.4q-3.2 5.5-7.35 8.2-4.55 3.8-9.05 6.35l-8.65 2.25-10.7-.55-3.55-4q-3.05-3.1-2.35-7.9l.2-.6.65-1.45.1.15 1 1.2.25-3.1 1.55 2.65 2.05 1.6 4.3-7.2 4.65 2.9h4.85l1.9-3.7q-.2-3.8.45-5.45l1.55 1.55 2.15 1.5 2.55-.25q.2-1.2 0-3.1l-.6-3.3q.15.6 1.25.25l.1-.05.6-.25.5-.35M12.8 30.55l-1.05-.6L8.7 35.3l-1.05 1.75-1-.8-2.5-1.9v1.5l-.5-.25 1.8 4 .85-1.55.35-.6q1.7 2.65 3.4 3.25.75-3.05 3.45-7.35l7.75 3.5 2.5-.25.35-.75L25.25 33l.75-1.85V28.1l.75-.05 4.1-.55 1.3-.15 1.3-1.4-1.95-3.55 2.35-.85-3.75-1.75.45 4.25-.5 1.65-1.85.45-1.2.3-3.1-2.65-.25-.4v5l-.15.3-2 3.35-.2.05h-.1l-5 .35-3.4-1.9" fill="#662c1c"/><path d="M24.7 36.95q2.05-4.9 2-5.6.7-1.75-.15-2.55l5.6-.6 2.15-1.9-1.7-3.45 2.35-1.5-2.45-1.25v-.8l1.95-.7 1.75-3.8 1.4-1.65L40.65 25l-.1.3q-2.55 8.25-6.7 13.3l-5.2 3.95q-8.1 3.5-15.8 3.7 7.4-2.2 13-6.15l.7-5.85-1.85 2.7m-11.9-6.4 3.4 1.9 5-.35h.1l1.2 2.4 1.6 1.35-.35.75-2.5.25-7.75-3.5v-.1l-.7-2.7m11.1-6.75 3.1 2.65 1.2-.3 2.65 1.35-4.1.55-.95-.85-1.9-3.4M6.3 38.05l-.85 1.55-1.8-4 .5.25v-1.5l2.5 1.9-.35 1.8" fill="#b85439"/><path d="m24.7 36.95 1.85-2.7-.7 5.85q-5.6 3.95-13 6.15L8 46.05l-4.85-7.1V35.3L4 38.05l1.75 2.65 1.05-1.95q1.85 2.3 3.65 2.6.85-2.85 3.4-7.5 2.95 2.5 7.75 3.7l3.1-.55v-.05m-3.4-4.85.2-.05 2-3.35 1.75 1.75V33l-1.15 2.85-1.6-1.35-1.2-2.4m6.9-5.95 1.85-.45.5-1.65-.45-4.25 3.75 1.75-2.35.85 1.95 3.55-1.3 1.4-1.3.15-2.65-1.35M10.05 40.7q-1.7-.6-3.4-3.25l-.35.6.35-1.8 1 .8L8.7 35.3l1.35 5.4" fill="#e88046"/><path d="m8.7 35.3 3.05-5.35 1.05.6.7 2.7v.1q-2.7 4.3-3.45 7.35L8.7 35.3m14.8-6.6.15-.3v-4.8l.25.2 1.9 3.4.95.85-.75.05v3.05L25.25 33v-2.55L23.5 28.7" fill="#ffc180"/><path d="m38.8 14.65 2.3 5.8-1.85-2.65-.45-3.15m4.35 5.3q1.55 5.2-.1 9.15l-3.4 3.65q2.2-2.8 3.5-6.7.35-2.3 0-6.1" fill="#ebbad5"/><path d="M33.85 38.6q4.15-5.05 6.7-13.3l.1-.3-3.05-11.85.4-.45.8 1.95.45 3.15 1.85 2.65.35.9 1.7-1.4q.35 3.8 0 6.1-1.3 3.9-3.5 6.7l-4.5 4.8-1.3 1.05" fill="#78301d"/></g><g id="aK" fill-rule="evenodd"><path d="m1.55 28.15-.7.2h-.5L0 27.9l.1-.5.4-.35.25-.05q8-2.45 16.7-6.05 5.7-2.4 11.7-5.3 1.65-1.35 2.15-2.45.3-.85-.4-1.5l-.15-.35V11l.25-.3Q42.6 2.3 57.2 0h.2l4.15.55q7.75-.8 12.8 0l3.1.7q.95.3 1.8.7.7.25.6 1.2L79.4 4.5l-2.85 4.05-.4.25-8.1 1.6v.65l-.05.3-.2.2-2.65 2.05-.45.15q-9.8-.95-25.3 6.2-1.75 2.1-1.6 4.2l-.05.3-.15.25-8.2 7.9-.2.15L9.55 40.8h-.5l-.35-.35q-.15-.25 0-.55.05-.25.35-.35h.05l9.3-3.85 4.85-2 3.4-1.4 1.9-.8 7.9-7.55q-.1-1.95 1.2-3.85l.2-.3.65-.85.25-.2L40.5 18q2.1-.95 4.15-1.75 11.8-4.55 19.95-3.85l2.1-1.7v-.85l.15-.4q.15-.2.45-.25l8.35-1.7 2.55-3.6.3-.8-.85-.35-3.2-.85-3.8-.35-9 .35h-.2l-4.2-.55q-13.8 2.2-24.9 10 .65 1.05.15 2.3-.5 1.4-2.6 3.05l-.15.1-10.45 4.8Q10 25.55 1.55 28.15M67 5.4q.4 0-.4.15l-.6.15-1.2.25-.7.1h-3.85Q51.5 5.65 43.2 8.4q-3.25 1.1-6.45 2.65l-.6 2.6-.1.15-12.35 9.35v1.25l-.1.1-17.95 8-.65.3h-.15l-.1-.15v-.15l.1-.1 18.45-8.25v-1.1l.05-.1.05-.05 12.35-9.4.65-2.6.05-.1.05-.05q4.35-2.15 8.75-3.4 4.55-1.3 9.2-1.65 2.9-.2 5.8-.05h3.85l1.95-.15.95-.1M30.1 23.25q-.1-.7.1-1.6l.05-.15 2.4-1.75 6.15-4.5-.85-.5-.1-.1v-.05l.05-.15 1.85-2.25.1-.1 4.95-1.9.5-.2.6-.2.1-.05 2.4.55.75.1.1.1.05.1v.1l-.05.1q-3.45 1.95-6.85 3.85l-.15.05q-.7-.1-1-.8l-.15-.45v-.1l.1-.1 2.75-1.4 1.2-.25.15.05.05.1v.15l-.05.05L43.75 13l-.15.05-.15-.1-.05-.15.1-.15.7-.45q-1.05.3-2.7 1.3.25.65.75.8l6.3-3.6-2.6-.5-1.6.6-1.55.6-2.75 1.05-1.7 2.05.95.55.05.1v.15l-.05.1-1.3.95-7.4 5.4-.1 1.05q.05.7.4 1.1l.25.2.1.15v.15l-.1.05-1.55 1.05-3.85 2.5h-.15l-.15-.1-.05-.15.05-.05.05-.05 1.45-.95.2-.15 3.55-2.25-.1-.05-.5-1" fill="#662c1c"/><path d="m19.3 21.6 10.45-4.8.15-.1q2.1-1.65 2.6-3.05.5-1.25-.15-2.3 11.1-7.8 24.9-10l4.2.55h.2l9-.35L63.8 3.3l-12.15.9-6.4 3.15q-4.4 1.25-8.75 3.4l-.05.05-.05.1-.65 2.6-12.35 9.4-.05.05-.05.1-4-1.45M74.45 1.9l3.2.85-9.6 4.35q-8.95-1.4-21 1.75L45.3 10l-.5.2q-.1-1.45-5.75 1.05-2.3 2.35-1.95 3.6l-4.45 4.9-2.4 1.75-.05.15q-.2.9-.1 1.6l-3 3.25-1.25-1.35L36.4 14.6l1.05-2.9 5.75-3.3q8.3-2.75 17.05-2.35h3.85l.7-.1L66 5.7l.6-.15q.8-.15.4-.15l5-1.15-3.25-.3q4.05-.75 5.7-2.05M42.8 11.4l1.55-.6-.4 1.05-2.75 1.4-.1.1v.1l.15.45-1.35.8-.35-.4 3.25-2.9" fill="#e88046"/><path d="m77.65 2.75.85.35-.3.8-2.55 3.6-8.35 1.7q-.3.05-.45.25l-.15.4v.2l-.35-.05L56.3 8.85q-5.9.45-7.9 1.45L46 9.75l-.1.05-.6.2 1.75-1.15q12.05-3.15 21-1.75l9.6-4.35M23.25 33.7l-4.85 2 7-7.95.05.15.15.1h.15l3.85-2.5-6.35 8.2m3.85-7.2 3-3.25.5 1 .1.05-3.55 2.25-.05-.05m3.8-2.6q-.35-.4-.4-1.1l.1-1.05 7.4-5.4-7.1 7.55" fill="#78301d"/><path d="M1.55 28.15Q10 25.55 19.3 21.6l4 1.45v1.1L4.85 32.4l-.1.1v.15l.1.15h.2l.6-.3 17.95-8 .1-.1v-1.25l12.35-9.35.1-.15.6-2.6q3.2-1.55 6.45-2.65l-5.75 3.3-1.05 2.9-10.55 10.55 1.25 1.35-.15.2-1.45.95-.05.05-.05.05-7 7.95-9.3 3.85-7.55-11.4m43.1-11.9q-2.05.8-4.15 1.75l-1.75.75-.25.2-.65.85-.2.3L35 23.35l-8.35 8.95-3.4 1.4 6.35-8.2 1.55-1.05.1-.05v-.15l-.1-.15-.25-.2 7.1-7.55 1.3-.95.05-.1v-.15l-.05-.1-.95-.55 1.7-2.05 2.75-1.05-3.25 2.9.35.4 1.35-.8q.3.7 1 .8l.15-.05q3.4-1.9 6.85-3.85l.05-.1v-.1l-.05-.1-.1-.1-.75-.1q2-1 7.9-1.45L66.35 10l-2.75 1.55q-3.5-.15-10.1 1l-8.85 3.7M67 5.4l-.95.1-1.95.15h-3.85q-2.9-.15-5.8.05L62 4.8l6.75-.85 3.25.3-5 1.15m-22.65 5.4 1.6-.6 2.6.5-6.3 3.6q-.5-.15-.75-.8 1.65-1 2.7-1.3l-.7.45-.1.15.05.15.15.1.15-.05 1.55-1.05.05-.05v-.15l-.05-.1-.15-.05-1.2.25.4-1.05" fill="#b85439"/><path d="M66.7 10.05v.65l-2.1 1.7q-8.15-.7-19.95 3.85l8.85-3.7q6.6-1.15 10.1-1L66.35 10l.35.05M37.65 20.1q-1.3 1.9-1.2 3.85l-7.9 7.55-1.9.8L35 23.35l2.65-3.25" fill="#ebbad5"/><path d="m70.65 1.55 3.8.35q-1.65 1.3-5.7 2.05L62 4.8l-7.55.9q-4.65.35-9.2 1.65l6.4-3.15 12.15-.9 6.85-1.75m-38 18.2 4.45-4.9q-.35-1.25 1.95-3.6 5.65-2.5 5.75-1.05l-4.95 1.9-.1.1-1.85 2.25-.05.15v.05l.1.1.85.5-6.15 4.5" fill="#ffc180"/></g><g id="aL" fill-rule="evenodd"><path d="m11.75 20.85-2.3 1.35-.55.05-.4-.3q-.15-.25-.05-.5l.3-.45L35.1 5.8l.25-.1 23.4-2.3L67.7.1q.25-.15.5 0l.35.35V1q-4.5 9.45-12.85 15.65 11.9.55 22.1-3.1.25-.15.5 0l.35.35v.5q-4 12.05-25.35 21Q62.55 37.55 67 41h.05Q75.1 47.55 81 49.35l.4.3.05.5-.3.4q-4.05 2.5-7.85 4.2 1.1.4 2.25.95 5.85 2.9 12 9.4v-.05q6.35 5.35 11.7 5.6l.3.1.1.25-.05.3q-2.55 4.45-19.45 3.1h-.1l-3.65-1.05q2.6 5.75 3.1 11.1.65 6.9-2.25 13l-.25.2h-.3l-.25-.2-1.55-3.15q-3.6-5.85-11.1-9.2l-.05-.05q-10.85-7.6-12.5-19.5l-10.8-2.65-.3-.2v-.35l.1-.2.1-.1h.3l11 2.7.15.05 5.4 1.35h.05L75.6 72.2h.1l4.6 1.3 8.5.35q7.35-.25 9.6-2.4-5.3-.55-11.45-5.7l-.05-.05q-6.35-6.75-12.4-9.5l-2.4-.9-.1.05q-6.4 2.6-12.2 2.95l-1.95-.35-4.15-.85q-1.75-.4-.25-.4l1.85.05 4.4.2q5.6-.35 11.8-2.85h-.05q3.8-1.6 7.75-3.95-5.6-2.05-13-8.1-4.4-3.35-13.55-5.45l-1.85-.4-6.5 1.35q-6.2 1.4-.5-.4l6.3-2.05.75-.25.5-.15-.05.05q6-2.4 10.65-5.05 11.5-6.5 14.95-14.45l-1.2.4Q68.9 17.7 61.5 18l-.85.05-6.95-.15-.35-.15-.25-.35-21.3-.7q-9.05.7-17.4 2.6l-2.65 1.55M65.2 2.45l-2.45.9L59.1 4.7l-.15.05-7.75.75-15.55 1.55-20 11.55q7.75-1.65 16.1-2.3l21.4.7.2-.35 1.9-1.35q7.1-5.4 11.3-13.4l-1.35.55m-6.1 19.3q.15.35-.55 1.1l-.35.35-1.55 1.5-3.3 2.55-2 1.45L59 27.25l1.4-.55 1.3-.45-1.25.75-1.4.65-8.45 1.6h-.05l-16.25.9-4.15.9 4.1-1.3 16.2-.9 5.95-4.45.25-.15 1.6-1.3.85-1.2m4.7 38.9-1.3-.35-.15-.05-2.2-1q-2.15-.9-.45-.35l4 1.2q2.25.6 6.65 2.85h6.95l.15.05.05.15-.05.15-.15.05h-6.2q2.85 1.45 6 3.45l1 .75 1.35 1.1q.4.4-1.05-.55l-1.5-.95-5.1-2.95v-.05l-1.5-.8-.15-.05q-3.5-1.8-6.35-2.65m14.7 22.9Q77.85 78.5 75.25 73L57 66.95V67l-4.85-1.2Q53.9 77 64.2 84.3q6.2 2.75 9.8 7.15 1.75 2.15 2.9 4.7 2.45-5.9 1.6-12.6m-8.6-7q-2.5-3.2-5.45-5.3l-.1-.15.05-.15.15-.1.15.1q3.5 2.5 6.4 6.6l.1.1q1.8 2.6 3.35 5.9l.95 2.4.05.15.35 1.2-.2-.35-1.05-2.25-.45-.95q-1.4-3-3-5.4l-.05 3.55-.15.75-.4 1.5q-.25.9-.05-.6l.05-.25.15-1.4v-4.15l-.85-1.15v-.05" fill="#324217"/><path d="M61.5 18q7.4-.3 14.2-2.35l-2.3 2.95-18 8.15-2.05.5 3.3-2.55 1.55-1.5.35-.35q.7-.75.55-1.1L61.5 18M51.2 5.5l7.75-.75.15-.05 3.65-1.35q-4.5 4.7-13.05 7.4l1.5-5.25" fill="#4c6c0f"/><path d="M61.95 29.7q-4.65 2.65-10.65 5.05l.05-.05-.5.15-.75.25-6.3 2.05q-5.7 1.8.5.4l6.5-1.35 1.85.4q-5.05 3.3-10.1 3.95l-12.8 2.85-9 2Q1.45 42.2 4.3 38.6q1.35-1.75 7.95-3.6l.75-.35 1.85-.4 15.3-3.2 4.15-.9 16.25-.9h.05l8.45-1.6 1.4-.65 1.25-.75-1.3.45-1.4.55-7.65 1.45 2-1.45 2.05-.5 18-8.15q-5.8 7.15-11.45 11.1" fill="url(#u)"/><path d="m60.65 18.05.85-.05-2.4 3.75-.85 1.2-1.6 1.3-.25.15-5.95 4.45-16.2.9 15.25-2.4q8.3-5 11.15-9.3" fill="url(#v)"/><path d="m62.75 3.35 2.45-.9q-5 8.15-9.95 12.85l-1.9 1.35-.2.35-21.4-.7q-8.35.65-16.1 2.3l20-11.55L51.2 5.5l-1.5 5.25q8.55-2.7 13.05-7.4" fill="#455c1f"/><path d="m11.75 20.85 2.65-1.55q8.35-1.9 17.4-2.6l21.3.7.25.35.35.15 6.95.15q-2.85 4.3-11.15 9.3l-15.25 2.4-4.1 1.3-15.3 3.2-1.85.4-.75.35q-6.6 1.85-7.95 3.6L0 40.55l11.75-19.7m2.9 13.05h.05-.05" fill="url(#w)"/><path d="M52.65 36.6q9.15 2.1 13.55 5.45 7.4 6.05 13 8.1-3.95 2.35-7.75 3.95h.05q-6.2 2.5-11.8 2.85l-4.4-.2-1.85-.05-13.05-7.75-10.65-5.55 12.8-2.85q5.05-.65 10.1-3.95M74.5 56.2q6.05 2.75 12.4 9.5l.05.05q6.15 5.15 11.45 5.7-2.25 2.15-9.6 2.4l-9.4-1.4q-12.15-3.1-22.45-10.65l-.25-.65 7.1-.5q2.85.85 6.35 2.65l.15.05 1.5.8v.05l3.9 3.65 6.5 2.4 5.05.55q-5.6-1.45-13.7-7.45h2.65l1.1.05 6.5.35-12.15-2.05-3.95-2.2 6.8-3.3" fill="#a3b518"/><path d="M53.45 56.7q-1.5 0 .25.4l4.15.85 1.95.35q5.8-.35 12.2-2.95l.1-.05 2.4.9-6.8 3.3 3.95 2.2 12.15 2.05-6.5-.35v-.05l.15-.05.05-.15-.05-.15-.15-.05h-6.95q-4.4-2.25-6.65-2.85l-4-1.2q-1.7-.55.45.35l2.2 1 .15.05 1.3.35-7.1.5.25.65q10.3 7.55 22.45 10.65l9.4 1.4-8.5-.35-4.6-1.3h-.1l-18.35-6.05h-.05l-5.4-1.35-.15-.05-11-2.7h-.3l-.1.1-15.9-6.85-3.6-9.9 9-2 10.65 5.55 13.05 7.75m18.35 7.5 5.1 2.95 1.5.95q1.45.95 1.05.55l-1.35-1.1-1-.75q-3.15-2-6-3.45h2.45q8.1 6 13.7 7.45l-5.05-.55-6.5-2.4-3.9-3.65" fill="#4b611f"/><path d="M74 91.45q-3.6-4.4-9.8-7.15Q53.9 77 52.15 65.8L57 67v-.05L75.25 73q2.6 5.5 3.25 10.55l-3.8-3.4q3.1 7.95 2.65 12L75.9 87.3l-.35-1.2-.05-.15-.95-2.4q-1.55-3.3-3.35-5.9l-.1-.1q-2.9-4.1-6.4-6.6l-.15-.1-.15.1-.05.15.1.15q2.95 2.1 5.45 5.3l-9.25-5.25 1.1 6.35 11.6 11.85.65 1.95M69.9 76.6l.85 1.15v4.15l-.15 1.4-.1.2-.6 1.5v-8.4" fill="#445b1f"/><path d="M78.5 83.55q.85 6.7-1.6 12.6-1.15-2.55-2.9-4.7l-.65-1.95-11.6-11.85-1.1-6.35 9.25 5.25V85l.6-1.5.05.05q-.2 1.5.05.6l.4-1.5.15-.75.05-3.55q1.6 2.4 3 5.4l.45.95 1.05 2.25.2.35 1.45 4.85q.45-4.05-2.65-12l3.8 3.4" fill="url(#x)"/><path d="m75.7 15.65 1.2-.4Q73.45 23.2 61.95 29.7q5.65-3.95 11.45-11.1l2.3-2.95M65.2 2.45l1.35-.55q-4.2 8-11.3 13.4 4.95-4.7 9.95-12.85" fill="#ebbad5"/></g><g id="aM" fill-rule="evenodd"><path d="m48 15.6.05.05.05.1.15.45-.15.65q-.5 1.95-1.35 3.5-1.2 2.1-3 3.45l3.3-1.95.6-.65.3-1.45.6-2.65v-.05l.25-.35.5-.1q.3.05.45.3l.1.5-.1.4-.5 2.3Q56 16.7 67.3 13.8h.25l4.25.75.4.2.15.35-.05.4-2.9 6.15-.25.25-3.5 2.45v1.1l-.05.3-.25.25-1.3.85L46.2 38.5l-5.1 11.2 1.6 17.65-.05.3-.15.25-5.25 5.85-.2.15-5.25 2.4-8.25 12.6-.4.3-.5-.15-.3-.4q-.1-.3.1-.5l.05-.15 8.25-12.55.3-.3 5.3-2.4 2.7-3.05 2.25-2.5-1.5-16.55-.1-1 .1-.35 5.25-11.55.25-.3 3.25-2.1 14.75-9.6-.35-1.15-10.9 5.55-.15.05-.1-.1v-.05l-.25-.4-.15-.4-.05-.1.1-.15 10.65-7.35.1-.25.4-1.15.05-.1.05-.05.4-.3-.45.25-.05.05-.7.35-14.4 5.6-.9 1.05.4.7.35.6.05.15-.05.1-9.95 12.4-2 12.4-.05.05-.15.3-.7 1.15L36.05 57v.05l1.35-2.1V51.4l.2-.7.15-.65.25-.9q.15-.6.1 0v.15l-.05.55-.25 1.55v3.75l-1.75 2.65v2.25l-.05.15-.15.05-.15-.05-.05-.15V57.2l-1.55-2.15-.05-.1.05-.1.9-1.5 1.95-12.45.1-.05 9.9-12.35-.65-1.1-11.8 13.8-3.1 16.05 1 1.65v.05q.2 2.35-1.3 5.95l-.85 1.8-1.65 5.85-.1.1-2.6 2.25 3.95-2.15.4-.2.8-.85.7-.6v.05l-.15.25-.5.75-.65.75-6.05 3.25-.85.7v.05l-4.65 5.7-.15.05-.15-.05-.1-.15.05-.15L23 76.85l.25-.25h.05l4.9-4.25 1.7-5.8 1.55-3.75q.65-2.2.55-3.8l-1-1.6-.05-.15 3.15-16.2.05-.1 13.05-15.2.05-.05 14.5-5.65L63 19.6l.6-.2 4.9-4.05-1-.2-4.05 1.1q-4.35 1.25-7.85 2.6Q47.4 22.9 39.2 27l-4.65 3.7-1.25 4-1.45 4.45-2.8 8.65-1 10.1-.2.4-.45.15h-1.3q-2.85 4.9-6.15 9l-2.85 3.4-.3.15-2.1.65-3.6 1.1-2.45.75-1.25.2q-.3-.15 1.85-1.15l1.3-.55q3.45-1.55 3.75-1.6l1.9-.6q4.9-5.45 8.95-12.35l.25-.25.35-.1h1l1-9.5v-.15l5.55-17.4.25-.3 7.6-6 .1-.1q4.3-2.05 5.55-7.2l.1-.5q.05-.3.3-.45l.5-.05q.2 0 .3.15m16.4 8.1.2-.3 3.65-2.5 2.45-5.15-.8-.15-.85-.15-6.1 5-.5 1.4-.1.1-10.5 7.3.2.45L63 24.15l.1-.05.1.1.05.05.4 1.25.65-.4V24l.1-.3M39.7 65.5v.15q-2.1 5.15-3.95 6.3h-1.8l-.1-.1q-.55-.85.65-3.4l.15-.1h.15l.1.1v.15q-1.05 2.15-.75 2.95h1.4q1.75-1.15 3.75-5.95l-.7-.65q-2.45 1.85-2.9 3.15l-.25.3-.45.55q-.35.35 0-.25l.3-.7q.5-1.5 3.2-3.5l.15-.05.15.05.85.9.05.1m-1.75 1.05q-.65.6-1.95 2.35-.45 1.05-.35 1.4l.35-.2 1.95-3.55m-2.35 2.2.05-.05q2.2-2.95 2.85-2.9l.15.05.05.1-.05.15-2.3 4.25-.1.05-.55.3q-.4.05-.5-.3-.1-.4.4-1.65" fill="#662c1c"/><path d="m54.2 1.5-1.35 2.65-4.8 4.8q-.8 2.6-.8 4.3.05 1.55.75 2.35-.1-.15-.3-.15l-.5.05q-.25.15-.3.45l-.1.5q-1.85-2.1-1-5.8 1.55-3.7 3.65-5 3-2.25 4.45-5.65 3.25 2.95 3.15 9.55-2.05 6.25-7.3 8.25l.1-.4-.1-.5q-.15-.25-.45-.3l-.5.1-.25.35-.45-.2.15-.65-.15-.45.05-.05.65.6q3.5-1.4 6.15-5 1.4-6.2-.75-9.8" fill="#324217"/><path d="M54.2 1.5q-.05 3.8-1.15 5.95l-2.2 4 1.25-4.4-4.85 6.2q0-1.7.8-4.3l4.8-4.8L54.2 1.5" fill="#e4eb1f"/><path d="m47.25 13.25 4.85-6.2-1.25 4.4 2.2-4q1.1-2.15 1.15-5.95 2.15 3.6.75 9.8-2.65 3.6-6.15 5l-.65-.6-.1-.05-.05-.05q-.7-.8-.75-2.35" fill="url(#y)"/><path d="m28.2 72.35-4.9 4.25h-.05l-.25.25-5.6 1.9 2.2-7.6.35-3.7q3.3-4.1 6.15-9h1.3l.45-.15.2-.4 1-10.1 2.8-8.65.8 3.05-1.05 5.55-1.35 9.6.75 1.55-2.8 13.45m7.5-12.15.15.05.15-.05.05-.15v-1l1.4-1.85.85 5.5-4.65 5.25 2-7.8.05.05m2.4-11.05q.05-.6-.1 0l-.25.9-.15.65-.2.7v2.35l-1 1.05-1.2-1 .15-.3.05-.05 2-12.4 9.95-12.4.05-.1-.05-.15-.35-.6 15.2-6.4-.1.25L51.45 29l-.1.15.05.1.15.4-8 5.9-4.1 7.9-1.3 5.75-.05-.05m10-32.3.45.2v.05l-.6 2.65-1.2.6q.85-1.55 1.35-3.5M33.3 34.7l1.25-4L39.2 27q8.2-4.1 16.4-8.15 3.5-1.35 7.85-2.6l-2 2.65L47 25.35l-6.45 7.25-6.4 6.6-.85-4.5" fill="#e88046"/><path d="M22.5 88 0 86.8l8.65-13.3 2.45-.75 3.6-1.1 2.1-.65.3-.15 2.85-3.4-.35 3.7-2.2 7.6 5.6-1.9-4.45 5.45-.05.15.1.15.15.05.15-.05 4.65-5.7v-.05l.85-.7 6.05-3.25.65-.75.5-.75.15-.25v-.05l-.7.6-.8.85-.4.2 1.25-7.85q1.5-3.6 1.3-5.95v-.05l-1-1.65 3.1-16.05 11.8-13.8.65 1.1-9.9 12.35-.1.05L35 53.35l-.9 1.5-.05.1.05.1 1.55 2.15v2.95l-2 7.8 4.65-5.25-.85-5.5-1.4 1.85V57.8l1.75-2.65V51.4l.25-1.55.05-.55.05-.1 5.5-12.55 8.15-6.55.1.1.15-.05 10.9-5.55-9.9 6.65-4.5 4.1-3.25 2.1-.25.3L39.8 49.3l-.1.35.1 1V65.5h-.1l-.05-.1-.85-.9-.15-.05-.15.05q-2.7 2-3.2 3.5l-.3.7q-.35.6 0 .25l.45-.55.25-.3q.45-1.3 2.9-3.15l.7.65q-2 4.8-3.75 5.95h-1.4q-.3-.8.75-2.95v-.15l-.1-.1h-.15l-.15.1q-1.2 2.55-.65 3.4l.1.1h1.8q1.85-1.15 3.95-6.3h.1v.85l-.75 3.2-2.7 3.05-5.3 2.4-.3.3L22.5 88m41.9-64.3-.1.3v1.1l-.65.4-.4-1.25-.05-.05-.1-.1-.1.05-10.95 5.55-.2-.45 10.5-7.3.1-.1.5-1.4 6.1-5 .85.15-1.85 4.2-3.5 2.75-.15 1.15m-27 30.05v1.2l-1.35 2.1V57l-1.55-2.05.7-1.15 1.2 1 1-1.05M47 27.8l-.4-.7.9-1.05 14.4-5.6.7-.35.05.05-.05.1-.4 1.15L47 27.8m.95-8.05-.3 1.45-.6.65-3.3 1.95q1.8-1.35 3-3.45l1.2-.6m-12.35 49q-.5 1.25-.4 1.65.1.35.5.3l.55-.3.1-.05 2.3-4.25.05-.15-.05-.1-.15-.05q-.65-.05-2.85 2.9l-.05.05m2.35-2.2L36 70.1l-.35.2q-.1-.35.35-1.4 1.3-1.75 1.95-2.35" fill="#b85439"/><path d="m63.45 16.25 4.05-1.1 1 .2-4.9 4.05-.6.2-1.25.45-14.5 5.65-.05.05-13.05 15.2-.05.1-3.15 16.2.05.15 1 1.6q.1 1.6-.55 3.8l-1.55 3.75-1.7 5.8L31 58.9l-.75-1.55 1.35-9.6 1.05-5.55-.8-3.05 1.45-4.45.85 4.5 6.4-6.6L47 25.35l14.45-6.45 2-2.65m-11.9 13.4.25.4v.05l-8.15 6.55-5.5 12.55 1.3-5.75 4.1-7.9 8-5.9" fill="#ffc180"/><path d="M29.85 72.75 25.9 74.9l2.6-2.25.1-.1 1.65-5.85.85-1.8-1.25 7.85" fill="#78301d"/><path d="m69.9 15.6.8.15-2.45 5.15-3.65 2.5-.2.3.15-1.15 3.5-2.75 1.85-4.2m-6.95 9 .35 1.15-14.75 9.6 4.5-4.1 9.9-6.65M39.8 50.65l1.5 16.55-2.25 2.5.75-3.2V50.65" fill="#ebbad5"/></g><g id="aN" fill-rule="evenodd"><path d="m7.1 55.45.1 1.1-.2.6q-.2.2-.5.2L6 57.2l-.3-.5-.05-.9Q4.55 42.25.3 32.3l-.05-.1-.2-.45v-.55l.4-.45q2.3-11.75 10-20.25l.05-.05L21 .2q.15-.15.4-.2l.4.05.35.3 1.3 2.05.1.35V5.3l1 2.5v.5l-5.1 12.85-.3.4-2.85 1.9.7 6.2.95 2.1.05.25.6 9.9 1.9 9.45-.05.5-.05.05-.5.35-.55-.1-.3-.5-1.9-9.55v-.05l-.6-9.85-.95-2.05-.1-.25-.7-6.7.1-.4.2-.3 3.05-2.05 1.9-4.8 1.55-3.8.95-2.5-5.7 4.2-.05.05h-.1l-.95-.35-.1-.05v-.1l-.3-1q-2.4 3.05-5.2 9.05l-.55 5.1-.05.05-3.25 4.5v1.75l.9-.3.1-.05.1.1.05.1.75 6.7-.05.15-.15.05-.15-.05-.1-.15-.05-.7-.65-5.7-.9.35H6l-.05-.1-.1-.1v-2.1l.1-.15 3.2-4.45.6-5.1.05-.05q2.95-6.4 5.5-9.5l.1-.05h.15l.1.15.35 1.3.7.25 4.6-3.35 1.55-1.15.25-.6-.9-2.25-.85 1.2-.75.95-.05.05-2.5 3.3-.15.1h-.15l-.7-.35-.1-.1v-.2l4.7-8.45-.25-.4-9.9 9.6.05-.05Q3.85 20 1.7 31.9q2.05 4.8 3.4 10.45 1.4 6.05 2 13.1m15-52.05V3l-.2-.35-4.5 8.1.4.2 2.45-3.2V7.7q1.2-3.5 1.85-4.3m-1.05 3.25 1.05-1.4V4.1q-.4.7-1.05 2.55m-17.5 26.6L3 33l-.1-.1v-2.6l.9-2.55v-.05l2.9-4.35.15-.05h.1l.1.05.05.1q.4 2.3-1.75 7.25l-.15.1-1.4.6h-.15l-.05-.1-.05-.1q.05-1.5.4-2.4.35-.9 1-1.15l.15-.05.1.1.05.1v1.05L5.2 29l-.15.05L4.9 29l-.05-.15v-.65q-.8.65-.9 2.7L5 30.45q1.8-4.15 1.75-6.35l-2.6 3.85-.3.85-.55 1.6v2.25l2.2 1.05.1.05.05.1 1.4 9.3.25 1.75v3.25l-.05.15-.15.05-.15-.05-.05-.05v-3.3L5.25 34l-1.7-.75" fill="#662c1c"/><path d="M7.1 55.45q-.6-7.05-2-13.1l-.8-7.5-.75-1.6 1.7.75L6.9 44.95v3.35l1.2 6.85-1 .3M21.35 7l.85-1.2.9 2.25-.25.6L21.3 9.8l.85-1.9-.8-.9m.25 4.85-1.55 3.8-2.65 4.4-3.5 3.1v4l1.35 4.1.75 21.8-4.8 1.25.35-19.9V21.6l3.95-6.95 2.05-.4 4.05-2.4m.5-8.45q-.65.8-1.85 4.3v.05l-2.45 3.2-.4-.2 4.5-8.1.2.35v.4m-1.05 3.25Q21.7 4.8 22.1 4.1v1.15l-1.05 1.4" fill="#b85439"/><path d="M5.1 42.35Q3.75 36.7 1.7 31.9 3.85 20 11.55 11.45l-.05.05 9.9-9.6.25.4-4.7 8.45v.2l.1.1.7.35h.15l.15-.1 2.5-3.3.05-.05.75-.95.8.9-.85 1.9-4.6 3.35-.7-.25-.35-1.3-.1-.15h-.15l-.1.05q-2.55 3.1-5.5 9.5l-.05.05-.6 5.1-3.2 4.45-.1.15v2.1l.1.1.05.1h.15l.9-.35.65 5.7-.65 4.75-1.4-9.3-.05-.1-.1-.05-2.2-1.05V30.4l.55-1.6h.1-.1l.3-.85 2.6-3.85Q6.8 26.3 5 30.45l-1.05.45q.1-2.05.9-2.7v.65l.05.15.15.05.15-.05.05-.15V27.8l-.05-.1-.1-.1-.15.05q-.65.25-1 1.15-.35.9-.4 2.4l.05.1.05.1h.15l1.4-.6.15-.1q2.15-4.95 1.75-7.25l-.05-.1-.1-.05h-.1l-.15.05-2.9 4.35v.05l-.9 2.55v2.6l.1.1.55.25.75 1.6.8 7.5" fill="#e88046"/><path d="m7.7 38.4.05.7.1.15.15.05.15-.05.05-.15-.75-6.7-.05-.1-.1-.1-.1.05-.9.3V30.8l3.25-4.5.05-.05.55-5.1q2.8-6 5.2-9.05l.3 1v.1l.1.05.95.35h.1l.05-.05 5.7-4.2-.95 2.5-4.05 2.4-2.05.4-3.95 6.95v12.8l-.35 19.9-3.1.85-1.2-6.85h.05l.15.05.15-.05.05-.15V44.9l-.25-1.75.65-4.75" fill="#78301d"/><path d="m20.05 15.65-1.9 4.8-3.05 2.05-.2.3-.1.4.7 6.7.1.25.95 2.05.6 9.85v.05l1.9 9.55.3.5-3.35.9-.75-21.8-1.35-4.1v-4l3.5-3.1 2.65-4.4" fill="#ebbad5"/></g><g id="aO"><path d="m31 40.15-.1-.1-.2-.35q-.05-.3.15-.5l.2-.3q1.4-2 3.05-4.05 8.1-10.1 20.8-21.05l.15-.1q10.3-5.2 17.05-2.65l.4.3.05.55-.35.35q-3.95 2.05-10.75 9.15-3.3 6.4-3.45 8.1l12.05-4 .55.05.3.4v.5l-.75 1.5q4.65-1.8 9.7-7.95.15-.2.45-.25l.5.15 2.6 1.9.25.3v.35q-.25 1.3 0 1.85l1 .15h.2q.6.1.8-.2.2-.8-.2-2.5v-.25l.05-.25q1.6-2.45 0-4.85l-.1-.35.1-.35L94.1.35q.15-.25.45-.3L95 .1l.35.35q5.65 17.1-7.1 35.85l-.05.05-12.5 14.9 7-2-.7 3.15q5.85-2.7 14.15-1.4l.05.05 20 7.55q7.4 2.45 14.2 0l.3.1.15.25v.3q-5.3 10.6-21.5 12 10.5 6.3 16.8 19.4v.3l-.2.25h-.35q-4.35-1.55-11.55-2.15l-.3-.05h-.1l1.7 12.3-.05.3-.25.2-.35-.05-6.5-3.5-.35-.1q-8.1-2.1-17.15-8.15l-.2-.25.1-.35.25-.15.35.05.1.1q8.65 5.7 16.35 7.8l.8.25h.1l5.8 3.1-.8-6-.45-3.1-.4-2.65-7.05-1.45q-4.15-1.35-6-2.45l5.3 1.8 8 1.35v.05l.2-.05.35.05 3.1.3q4.85.55 8.3 1.7-6.4-12.75-17-18.7l-.2-.15-.05.1q-6.1-1.35-11.55-.75-2.3.2-4.4.75 5.35-2.4 11.25-1.85l4.65 1.05h.05l.2-.1q16.3-.95 21.85-10.95-5.25 2.9-13.6 0l-.15-.05-20-7.6q-4.85-.75-8.85-.1-2.7.45-5 1.55-1.45 2.75-5.2 6.35l-2.35 1.7q-2.15 1.55-1.8 1.1l1.85-1.9L76.25 59q2.85-2.7 4.3-4.85l1.1-3.25.35-1-7.3 2.55L70.05 58l-1.6 1.9-.25.2q-15.15 2.2-30.5 12.6l-6.45 5.35q-.95.75-1.95 1.6l-.5.15-.4-.25v-.05q-.25-.2-.2-.45l.25-.45 8.5-7.05.15-.1q14.75-10.85 30.45-12.5l1.05-1.3.55-.65.55-.6 4.1-4.9 13.4-16-.1.05 3.1-4.95q8.1-14.7 4.35-28.2l-.7 1.2-7 12.45q1.7 2.8-.05 5.65.5 2.05.1 3-.35 1-1.3 1.1h-.8l-.35.05q-1.4.15-1.95-.85-.5-.75-.25-2.4l-1.75-1.25q-2.6 3.05-5.15 5.05-3.4 2.65-6.4 3.35l-.45-.1-.35-.4.1-.5.7-1.45L57.8 31h-.05l-.05.05Q47.85 35.1 39.75 44.2q-6.5 7.25-11.9 17.75V62l-.15.3-.1.15-.3.15h-.5l-.35-.45q-.1-.25.05-.45l.9-1.8 1-1.8Q39.55 38 55.15 30.7q.8-.4 1.6-.7-.1-2.25 3.6-9.3l.1-.15Q65.1 15.6 68.5 13l.35-.2q.7-.55 1.35-.95-5.95-1.25-14.45 3-11.45 9.9-19.1 19.05L31.9 40l-.4.25-.5-.1M53.9 53.2l-2.95-.1q-11.85 8-16.8 15.25l-.1.1h-.15l-.1-.15v-.15q5-7.35 16.95-15.45h.05l2.55-1.75L67.85 43q2.9-2.2 4.9-6.45l.25-.75.45-.9-.1.8-.25 1.05q-1.5 3.25-3.6 5.3l2.15-1.2h-.05q6.9-4.7 9.05-8.35l1.2-1.6q1.1-1.5.95-1.15l-.95 1.6L81 32.7q-2.15 3.75-9.15 8.55l-4 2.2v.05l-14.3 7.8-2.1 1.4q8.9.3 14.65 1.6l.1.1.05.15-.1.15H66l-3.25-.6-8.85-.9m40.2 7.15q-9.2-.05-11.95 2.8l-.15.05-.15-.05-.05-.15.05-.15q3.5-3.7 17.25-2.75h.05l1 .05h.05l15.35 3.65.15.15v.1l-.1.15h-.15l-12.05-2.85-3.1-.75q2.65 1.5 6.45 5.95l.05.15-.05.1-.15.05-.15-.05-.3-.3-.15-.15q-4.2-4.9-6.9-5.85l-5-.15M81.6 53.4l-.2-.1.15.1.2.05-.15-.05m12.7 23-2.6.25h-.15l-.1-.15.05-.15.15-.1 6.05-.4q4.65.15 8.85 1.5l.05.05h.05q5.4 1.75 10 5.8l.1.1-.05.15-.15.1-.15-.05-.45-.4q-4.1-3.4-8.8-5.1l3.95 4.5.05.1-.05.15-.15.05-.15-.05-4.35-5q-3.35-1.1-6.95-1.4-2.55-.2-5.2.05m11.35 16.75q-.1-1.25-.8-3.2l-4.8-3.05q2.85 1 6.5 3.6l2.05 2.4-2.95-2.3v2.55" fill="#324217" fill-rule="evenodd"/><path d="m31 40.15.5.1.4-.25 4.75-6.1 3.2-1.25q9.2-8.2 15.95-9.55 3.05-4 5.6-4.8-1.7 1.8-3.35 4.95-2.35 4.9-2.9 7.45Q39.55 38 28.4 58.1l2.45-18 .15.05" fill="#4a601f" fill-rule="evenodd"/><path d="M36.65 33.9q7.65-9.15 19.1-19.05 8.5-4.25 14.45-3-.65.4-1.35.95l-.35.2-5.5 3.85-1.6 1.45q-2.55.8-5.6 4.8-6.75 1.35-15.95 9.55l-3.2 1.25" fill="#5e7c11" fill-rule="evenodd"/><path d="M85.6 25.8q.95-.1 1.3-1.1.4-.95-.1-3 1.75-2.85.05-5.65l7-12.45q1.6 12.7-3.65 27l-3.1 4.95.1-.05-13.4 16-4.1 4.9-3.4-2.6-10.05-2.4 10.35-5.75 6.6-4.3q6.5-4.75 9.2-9.05l3.2-6.5" fill="url(#z)" fill-rule="evenodd"/><path d="M75.35 26.4q2.55-2 5.15-5.05l1.75 1.25q-.25 1.65.25 2.4.55 1 1.95.85-6.5 8.75-11.1 11.55 1.5-3.6 2-10.8v-.2" fill="url(#A)" fill-rule="evenodd"/><path d="M39.75 44.2q8.1-9.1 17.95-13.15l.05-.05h.05l11.15-3.7-.7 1.45-.1.5.35.4.45.1q3-.7 6.4-3.35-1.35 6.35-5.6 13.55-12.35 6.9-21.9 13.2l-9.1 7.3q1.2-8 1-16.25" fill="url(#B)" fill-rule="evenodd"/><path d="m27.6 62.45.1-.15.15-.3v-.05q5.4-10.5 11.9-17.75.2 8.25-1 16.25l9.1-7.3q9.55-6.3 21.9-13.2 4.25-7.2 5.6-13.55v.2q-.5 7.2-2 10.8 4.6-2.8 11.1-11.55l.35-.05h.8l-3.2 6.5q-2.7 4.3-9.2 9.05l-6.6 4.3-10.35 5.75 10.05 2.4 3.4 2.6-.55.6-6.4-2.9 3.25.6h.15l.1-.15-.05-.15-.1-.1q-5.75-1.3-14.65-1.6l2.1-1.4 14.3-7.8v-.05l4-2.2q7-4.8 9.15-8.55l.85-1.35.95-1.6q.15-.35-.95 1.15l-1.2 1.6q-2.15 3.65-9.05 8.35h.05l-2.15 1.2q2.1-2.05 3.6-5.3l.25-1.05.1-.8-.45.9-.25.75q-2 4.25-4.9 6.45l-14.5 7.95-2.55 1.75h-.05Q38.8 60.8 33.8 68.15v.15l.1.15h.15l.1-.1q4.95-7.25 16.8-15.25l2.95.1-11.15 9.25-3.7 3.95q10-5.55 23.2-8.65l6.35-.1-1.05 1.3q-15.7 1.65-30.45 12.5l-.15.1-8.5 7.05-.25.45q-.05.25.2.45-32.15 36.95-.8-17.05" fill="#596d1f" fill-rule="evenodd"/><path d="m69.15 57-.55.65-6.35.1q-13.2 3.1-23.2 8.65l3.7-3.95L53.9 53.2l8.85.9 6.4 2.9" fill="#dae21d" fill-rule="evenodd"/><path d="M68.5 13q-3.4 2.6-8.05 7.55l-.1.15q-3.7 7.05-3.6 9.3-.8.3-1.6.7.55-2.55 2.9-7.45 1.65-3.15 3.35-4.95l1.6-1.45L68.5 13m25.35-9.4.7-1.2q3.75 13.5-4.35 28.2 5.25-14.3 3.65-27" fill="#ebbad5" fill-rule="evenodd"/><path d="m70.05 58 4.65-5.55L82 49.9l-.35 1-5.9 4.95-5.7 2.15m17.05-6.25q4-.65 8.85.1l20 7.6.15.05q8.35 2.9 13.6 0-5.55 10-21.85 10.95l-.2.1h-.05l-4.65-1.05q-3.1-5.8-8.85-9.15l5 .15q2.7.95 6.9 5.85l.15.15 1.4 2.3-.8-2.25-.3-.85-3.05-4.35 12.05 2.85h.15l7.35.35q-6.3-1.45-12.3-4Q98 56.4 89.2 58.2l-5.2-2 3.1-4.45m9 18.85q5.45-.6 11.55.75l.25.05q10.6 5.95 17 18.7-3.45-1.15-8.3-1.7l-10.45-3.6-11.85-8.4q2.65-.25 5.2-.05l5.65 1.5 8.15 7.55-2-3.05-1.85-2.8 6.5 3.55.45.4.15.05 4.65 3.35-4.5-4.95q-5.05-3.85-8.5-5.3-7.95-2.5-15.1-2.6l3-3.45" fill="#cad41c" fill-rule="evenodd"/><path d="m113.55 94.55.8 6-5.8-3.1h-.1l-.8-.25-1.25-5.45 6.6 7.45-3.4-6.3 3.95 1.65" fill="#6c8812" fill-rule="evenodd"/><path d="m113.1 91.45.45 3.1-7.1-4.85 6.65 1.75" fill="#c4d01c" fill-rule="evenodd"/><path d="m31.25 78.05 6.45-5.35q15.35-10.4 30.5-12.6l.25-.2 1.6-1.9 5.7-2.15 5.9-4.95-1.1 3.25Q79.1 56.3 76.25 59l-1.65 1.55-1.85 1.9q-.35.45 1.8-1.1l2.35-1.7q3.75-3.6 5.2-6.35 2.3-1.1 5-1.55L84 56.2l5.2 2q8.8-1.8 21.45 2.35 6 2.55 12.3 4l-7.35-.35.1-.15v-.1l-.15-.15-15.35-3.65h-.05l-1-.05h-.05q-13.75-.95-17.25 2.75l-.05.15.05.15.15.05.15-.05q2.75-2.85 11.95-2.8 5.75 3.35 8.85 9.15-5.9-.55-11.25 1.85 2.1-.55 4.4-.75l-3 3.45q7.15.1 15.1 2.6 3.45 1.45 8.5 5.3l4.5 4.95-4.65-3.35.15-.1.05-.15-.1-.1q-4.6-4.05-10-5.8h-.05l-.05-.05q-4.2-1.35-8.85-1.5l-6.05.4-.15.1-.05.15.1.15h.15l2.6-.25 11.85 8.4 10.45 3.6-3.1-.3-.35-.05h-.2l-8-1.35-5.3-1.8q1.85 1.1 6 2.45l7.05 1.45.4 2.65-6.65-1.75 7.1 4.85-3.95-1.65 3.4 6.3-6.6-7.45 1.25 5.45q-7.7-2.1-16.35-7.8l-11.85-9.8-47.1 3.75-1.1-5.3m74.9-11.55.3.3.15.05.15-.05.05-.1-.05-.15.8 2.25-1.4-2.3m-.5 26.65V90.6l2.95 2.3-2.05-2.4q-3.65-2.6-6.5-3.6l4.8 3.05q.7 1.95.8 3.2" fill="url(#C)" fill-rule="evenodd"/><path d="M99.5 76.35q3.6.3 6.95 1.4l4.35 5 .15.05.15-.05.05-.15-.05-.1.2-.15 2 3.05-8.15-7.55-5.65-1.5" fill="url(#D)" fill-rule="evenodd"/><path d="m111.1 82.5-3.95-4.5q4.7 1.7 8.8 5.1l-6.5-3.55 1.85 2.8-.2.15" fill="url(#E)" fill-rule="evenodd"/><path d="M106.75 66.55q-3.8-4.45-6.45-5.95l3.1.75 3.05 4.35.3.85" fill="url(#F)" fill-rule="evenodd"/><path d="m113.75 89 .3.05" fill="none" stroke="red" stroke-linecap="round" stroke-linejoin="round" stroke-width=".1"/><path d="m41.5 70.2-1-.05 1.75-6.8 2.7-1.65.95-6.5-.5-1.8-.15-.45q-.4-1.9 2.55-4.55l4.8-3.6.55-.5q-1.2-3 3.35-5.65l6.3-2.1q.35 2.65-1.45 5.75-2.7 2.8-7.7 2.45l-.95 2.1-4.9 3.8v2.7l.45 1.2L50 55.9l-.9 4.5v1.75l-1.15 1.15h1.75l.7 3.45 2.05-4.4q.05-1.4 2.9-4.4l1.8-1.2q-.95-1.6 1-4.05l5.45-4.45q.75 3.4-1.75 6.8-1.65 2.1-3.55 2.3l-2.2 2.05L51 70.1l.1.6-1.5-.05-.75-6.25-1.65-1.15 1.15-1.55.85-5.7-1.9-1.75q-.8-1.35 0-3.6l5.35-4.85-3.95 2.55-2.85 3.3.6 2.8-.75 7.4-3.2 2.25-.35 2-.65 4.1M62.1 38l-.1-.5-5.85 2.05-1.05 1.05q-1.9 2.2-1.2 3.45 2.7.4 5.4-1.05 2.9-2.9 2.8-5m-4.2 16.85q-.4 1.3.1 1.8 1.45-.05 3.85-2.4l.5-2.15.5-2.2-4.15 3.15-.8 1.8M50.65 68.4l3.7-6.55 1.4-3.15-1.3 1-3.85 8.35.05.35" fill="#324217" fill-rule="evenodd"/><path d="m49.6 70.65-8.1-.45.65-4.1 4.65-3.3 1.25-6.3-.75-2.25L49.2 56l-.85 5.7-1.15 1.55 1.65 1.15.75 6.25m1.05-2.25-.05-.35 3.85-8.35 1.3-1-1.4 3.15-3.7 6.55" fill="#b85439" fill-rule="evenodd"/><path d="m42.15 66.1.35-2 3.2-2.25.75-7.4-.6-2.8 2.85-3.3 3.95-2.55-5.35 4.85q-.8 2.25 0 3.6l.75 2.25-1.25 6.3-4.65 3.3" fill="#e88046" fill-rule="evenodd"/><path d="m55.1 40.6 4.55-1.35-3.25 3.15 4.15-2.7L62.1 38q.1 2.1-2.8 5-2.7 1.45-5.4 1.05-.7-1.25 1.2-3.45" fill="url(#G)" fill-rule="evenodd"/><path d="m62.35 52.1-.5 2.15q-2.4 2.35-3.85 2.4-.5-.5-.1-1.8l3.3-2.75-1.6 2.95 2.75-2.95" fill="url(#H)" fill-rule="evenodd"/><path d="m62.1 38-1.55 1.7-4.15 2.7 3.25-3.15-4.55 1.35 1.05-1.05L62 37.5l.1.5m.25 14.1-2.75 2.95 1.6-2.95-3.3 2.75.8-1.8 4.15-3.15-.5 2.2" fill="#e4eb1f" fill-rule="evenodd"/><path d="M5.8 93.3v.55l-.4.35h-.5l-.35-.4L.3 81.35l-.05-.15q-1.6-14.3 7-27.75l.05-.1L9 50.9q5-8.1 1.95-16.95v-.4l.3-.35.4-.15q4.9.1 7.95 9.25 9.45-14.1 12.45-24.25l.2-.3q.15-.15.35-.2l.4.1.3.3q11.25 22 1 45.9l-.05.15q-6.05 8.25-11.1 12.9l-1.8 3.5v6.3l4.45-9.1.1-.15 4.8-5.7q.15-.15.4-.2l.45.05.3.35v.45l-1.2 4.35 5.05-4 2.55-1.9q5.7-4.25 6-4.35 6.05-3.1 13.95-4.9 4.9-1.1 10.4-1.75h.05q13.95-.15 26.2 2.5l.3.15.2.35v.4l-2.2 6.25-.1.15q-9.25 13.25-31.6 16.1h-.05l-31.9 2.8-.45-.15-.15-.2-.1-.3q-.05-.25.15-.45.2-.25.45-.25l31.9-2.8q17.3-2.2 26.55-10.75Q90.1 71.5 91.9 69l1.9-5.5q-11.75-2.45-25.05-2.3-5.6.6-10.45 1.75l-1.85.5Q50 65.1 44.85 67.7l-8.35 5.55-.95.65-4.95 3.2q-.45 2.35-.3 3.95l-.15.5-.45.25-.5-.15-.25-.45q-.3-2.3.7-6.1l-2.7 3.2-5.65 11.6-.3.35-.45.05-.4-.25-.15-.4v-9.4l.1-.3 1.9-3.8.15-.2q5-4.55 10.95-12.7 6.45-15.1 4.1-29.45-1.15-6.95-4.35-13.75l-.45 1.2q-2.85 7.85-9.1 17.8l-.3.45-3.1 4.7v.05q-10.85 14.1-8.95 38l.3 2.45 1.15 9.5.2 1.8-.15.45-.45.25-.5-.1-.25-.45L11 94 9.65 82.4v-.05q-1.35-16.5 3.3-28.45 2.2-5.6 5.7-10.2-2.45-7.9-6.05-9.1 2.8 9.55-3.25 18.25l-1 1.35.05-.05Q.75 66.1 1.45 78.75L1.6 81l4.2 12.3m76.25-26.55q-3.6 3.55-6.5 5.05 4.4-.55 10-4l1.5-.75.3-.15q.95-.45-.1.2l-.05.05-1.25.8-.2.2q-6.25 3.85-10.9 4.1l-3.4.15-13.4.4 2.7 1.4 2.75 1.35q5.55 3.85 10.3 3.75l.15.1.05.05v.05l-.05.15-.15.1q-4.85.05-10.5-3.85l-6.1-3q-5.85 1.05-10.7 2.35-6.95 1.85-11.85 4.2l-.55.3h-.15l-.15-.15v-.15l.1-.1.85-.4q3.85-1.85 8.95-3.3l2.6-.8q1.15-2.8 8.15-6.9l2.05-3.05.15-.05h.15l.05.15v.15L55.3 67.5q1.7-1 3.75-2.05l1.1-.55.45-.25.95-.45-.3.25-1.4.95-.4.3-.2.1-4.5 2.5h-.1q-2.75 1.65-4.6 3.05l-.25.2q-2.25 1.75-3 3.15l1.7-.4 8.7-1.85h.1l3.9-.15 13.15-.4q2.05-.8 4.45-2.8l3.2-2.9.3-.3.8-1q.55-.75-.1.4l-.75 1.2-.2.25m-73.4-7.4q.6-1.6.15.05l-.65 2.15-.2.55.05.05-.55 1.6Q5.25 70.3 4.5 75.3 5.55 86.35 8 91.85v.2l-.1.1h-.15l-.1-.1q-2.5-5.6-3.55-16.75v-.05Q4.6 71.55 6 67l1.7-5.1.15-.4.8-2.1v-.05M26.6 63l1.15-.3-1.15.6-1.2.5q-4.45 1.35-10.65 8.85-.9 3.35-1.15 6.3l.7 7.45v.15l-.15.05-.15-.05-.1-.1-.75-7.5q.3-2.95 1.25-6.4v-.15q2.15-7.3 7.55-16.8v.05l.05-.1 3.35-3.95 1.8-2.45q1.3-1.85 1.15-1.45l-.2.35-.2.35-.2.3-.95 1.5-.25.4-.8 1.25-.45.5-2.95 3.45q-5.05 8.85-7.25 15.85l3.2-3.4q3.65-3.6 6.6-4.7l.3-.1.15-.05 1.3-.4" fill="#324217" fill-rule="evenodd"/><path d="M5.8 93.3 1.6 81l-.15-2.25 1.4-5.25L6 67q-1.4 4.55-1.9 8.25v.05q1.05 11.15 3.55 16.75l.1.1h.15l.1-.1v-.2q-2.45-5.5-3.5-16.55.75-5 2.95-11.55l.55-1.6-.05-.05.2-.55.65-2.15q.45-1.65-.15-.05l.85-5.5.65 4.15 2.8-4.1Q8.3 65.85 9.65 82.35v.05L11 94l-5.2-.7" fill="url(#I)" fill-rule="evenodd"/><path d="m12.4 94.2-1.15-9.5 1.25-8.85 4.55-14.15q2.6-3.15 5.25-9.25L23 39.5l.3-.45.9 11.5 5.2-8.35.55-.85 1.25-2.4q1.9-9-.7 5.05l-2.2 3.7q.15-.4-1.15 1.45l-1.8 2.45L22 55.55l-.05.1v-.05q-5.4 9.5-7.55 16.8v.15q-.95 3.45-1.25 6.4l.75 7.5.1.1.15.05.15-.05v-.15l-.7-7.45q.25-2.95 1.15-6.3 6.2-7.5 10.65-8.85l1.2-.5 1.15-.6-1.15.3-.05-.05 5.4-2Q23.7 64.7 16.6 72.35q-1.85 15.3 0 22.4l-4.2-.55" fill="url(#J)" fill-rule="evenodd"/><path d="m18.25 68.25-3.2 3.4q2.2-7 7.25-15.85l2.95-3.45-7 15.9" fill="url(#K)" fill-rule="evenodd"/><path d="M9.35 52.85q6.05-8.7 3.25-18.25 3.6 1.2 6.05 9.1-3.5 4.6-5.7 10.2l-2.8 4.1-.65-4.15-.15-1" fill="url(#L)" fill-rule="evenodd"/><path d="M23.3 39.05q6.25-9.95 9.1-17.8l4.8 12.55q2.35 14.35-4.1 29.45-5.95 8.15-10.95 12.7l-.15.2-1.9 3.8-.1.3v9.4l.15.4H20v5.2l-3.4-.5q-1.85-7.1 0-22.4 7.1-7.65 15.35-11.4l-5.4 2-1.4.5-.3.1q-2.95 1.1-6.6 4.7l7-15.9.45-.5.8-1.25.25-.4.95-1.5.2-.3.2-.35.2-.35 2.2-3.7q2.6-14.05.7-5.05l-1.25 2.4-.55.85-5.2 8.35-.9-11.5" fill="url(#M)" fill-rule="evenodd"/><path d="m11.25 84.7-.3-2.45q-1.9-23.9 8.95-38v-.05l3.1-4.7-.7 12.95q-2.65 6.1-5.25 9.25L12.5 75.85l-1.25 8.85" fill="url(#N)" fill-rule="evenodd"/><path d="M1.45 78.75Q.75 66.1 8.4 54.15l-.05.05 1-1.35.15 1-.85 5.5v.05l-.8 2.1-.15.4L6 67l-3.15 6.5-1.4 5.25" fill="url(#O)" fill-rule="evenodd"/><path d="m35.55 73.9.95-.65 8.35-5.55q5.15-2.6 11.6-4.25-.95 3.25-7.1 7l-5.65 5.2q-5.1 1.45-8.95 3.3l.8-5.05M58.3 62.95q4.85-1.15 10.45-1.75 13.3-.15 25.05 2.3L91.9 69q-1.8 2.5-4.05 4.65L74 79.45l-.05-.05-.15-.1q-4.75.1-10.3-3.75l-2.75-1.35 10.7-1.8 3.4-.15q4.65-.25 10.9-4.1l.2-.2 1.25-.8.05-.05q1.05-.65.1-.2l1.8-2.45-8.35 4.4 1.25-2.1.2-.25.75-1.2q.65-1.15.1-.4l-.8 1-.3.3-3.2 2.9-17.6 3.2-3.9.15h-.1l-8.7 1.85q4.4-4.15 10.85-8.35l-.1-.15.2-.1.4-.3 1.4-.95.3-.25-.95.45-.45.25-1.1.55Q57 66.5 55.3 67.5l1.55-2.35v-.05l.1-.05 1.35-2.1m.4 11.9 10.25 6.3-19.6-4.25q1.85-1.5 9.35-2.05" fill="#cfd91c" fill-rule="evenodd"/><path d="m20.15 90.05.4.25.45-.05.3-.35 5.65-11.6 2.7-3.2q-1 3.8-.7 6.1l.25.45.5.15.45-.25.15-.5q-.15-1.6.3-3.95l4.95-3.2-.8 5.05-.85.4-.1.1v.15l.15.15h.15l.55-.3q4.9-2.35 11.85-4.2 4.85-1.3 10.7-2.35l6.1 3q5.65 3.9 10.5 3.85l.15-.1.05-.15v-.05l13.85-5.8Q78.6 82.2 61.3 84.4l-31.9 2.8q-.25 0-.45.25-.2.2-.15.45l.1.3-8.2 7.1-.7-.05v-5.2h.15m38.55-15.2q-7.5.55-9.35 2.05l19.6 4.25-10.25-6.3" fill="url(#P)" fill-rule="evenodd"/><path d="m56.45 63.45 1.85-.5-1.35 2.1-.1-.05-.05-.15h-.15l-.15.05-2.05 3.05q-7 4.1-8.15 6.9l-2.6.8 5.65-5.2q6.15-3.75 7.1-7" fill="url(#Q)" fill-rule="evenodd"/><path d="m48.5 74.3-1.7.4q.75-1.4 3-3.15l.25-.2q1.85-1.4 4.6-3.05h.1l4.5-2.5.1.15q-6.45 4.2-10.85 8.35" fill="url(#R)" fill-rule="evenodd"/><path d="M78.8 69.1q-2.4 2-4.45 2.8l-13.15.4 17.6-3.2" fill="url(#S)" fill-rule="evenodd"/><path d="m87.35 66.9-.3.15-1.5.75q-5.6 3.45-10 4 2.9-1.5 6.5-5.05l-1.25 2.1 8.35-4.4-1.8 2.45" fill="url(#T)" fill-rule="evenodd"/><path d="m60.75 74.2-2.7-1.4 13.4-.4-10.7 1.8" fill="url(#U)" fill-rule="evenodd"/><path d="m32.4 21.25.45-1.2q3.2 6.8 4.35 13.75l-4.8-12.55" fill="#ebbad5" fill-rule="evenodd"/></g><g id="aP" fill-rule="evenodd"><path d="m58.2 37.3-.45 2.5q-3.4 10-7.85 15.8l-.4.3q-5.1 3.75-16.65 9.8l-.3-4.55 5.75-4.75.65.55q6.95-4.5 13.3-10.3l2.05-2.7 2.6-4.45-4.85 5.45.45-1.65.2-1.1-2.8 4.75q-4.8 3.85-8.15 5.65l-7.7 3.1 2.85-4.4q1.85-2.75 5.5-5.4l8.9-4.1q5.05-2.8 6.9-4.5m-3.9 6.65.1-.1-.1.1" fill="url(#V)"/><path d="m52.5 43.3-.45 1.65-.45 1.7 2.7-2.7-2.05 2.7q-6.35 5.8-13.3 10.3l-.65-.55 12.2-9 2-4.1" fill="url(#W)"/><path d="m35.5 65.35.95-.55 5.95-.3q5.8-1.1 10.3-4.45l-.05.05-3.9 3.1 3.65-.75L47.65 64l-1.45.45-4.6.95-6.1-.05" fill="url(#X)"/><path d="m45.2 72.2-2.5.95-1.05.35q-5.55 1.45-10.55.65l.35-.85q3.55.8 8.95 0l3.4-2.35-2.2 2 3.6-.75" fill="url(#Y)"/><path d="m46.9 59 3-1.8q4.75.1 8.9-2.1l-.6 1.3-6.95 8.5-.6.6q-2.55 1.55-5.35 2.25l.9-3.3 1.45-.45 4.75-1.55-3.65.75 3.9-3.1.05-.05 1.25-1.3q-4 3.15-7.45 3.95l.4-3.7" fill="url(#Z)"/><path d="m50.25 69.85 1.7.65q-3.8 3.45-7.35 4.95l-3.55.75 1.65-3.05 2.5-.95q4.2-1.45 5.05-2.35" fill="url(#aa)"/><path d="m44.35 77.15 1.4.8L42 79.1l2.35-1.95" fill="url(#ab)"/><path d="m45.05 68.5 1-.15 3.6 1.3-5.5 1.45.9-2.6" fill="url(#ac)"/><path d="m49.9 39.6.9 1.5q-1.55.75-3.15 1.45L42.4 45.9q-3.65 2.65-5.5 5.4l-2.85 4.4-1.7 2.55-.15-2.2 3.8-6.1q4.85-7.05 13.9-10.35" fill="url(#ad)"/><path d="m58.2 37.3.2-2.25q-1.1 1.75-4.7 4.25l-.55.45q-.1-.1-.75.5l-1.6.85-.9-1.5q3.8-1.6 6.4-4.85l3.4-3.35q1.05 7.35-3.3 17.85l-4.35 6.5 8.85-2.8q.8 2.6-3.7 9.35-4.1 4.05-6.75 5.45l3.85 2.55q-4.1 4.85-7.95 6.15l1.45 1.65q-2.1 3.05-6 3.2l-13.75.35.85-2.15h10l2.3-.05h.4q3.5-.05 4.35-1.4l-.2-.1-1.4-.8-.85-.5h-4.45l2-.45 3.55-.75q5.15-1.55 7.65-4.85l-.3-.1-1.7-.65-.6-.2-3.6-1.3-1 .15-5 .8-4.65-.4 3.65-.6 6.25-.55q2.8-.7 5.35-2.25l.6-.6q5.1-4.9 6.95-8.5l.6-1.3q-4.15 2.2-8.9 2.1l-3 1.8-10.45 5.8-.95.55-2.6 1.35-.05-1q11.55-6.05 16.65-9.8l.4-.3 1.85-1.45q4.5-7.2 6-14.35l.45-2.5" fill="#324217"/><path d="M36.45 64.8 46.9 59l-.4 3.7q3.45-.8 7.45-3.95l-1.25 1.3q-4.5 3.35-10.3 4.45l-5.95.3" fill="url(#ae)"/><path d="m32.9 66.7 2.6-1.35 6.1.05 4.6-.95-.9 3.3-6.25.55-3.65.6-2.35.4-.15-2.6" fill="url(#af)"/><path d="m35.4 68.9 4.65.4 5-.8-.9 2.6 5.5-1.45.6.2q-.85.9-5.05 2.35l-3.6.75 2.2-2-3.4 2.35q-5.4.8-8.95 0l1.6-4 2.35-.4" fill="url(#ag)"/><path d="m41.05 76.2-2 .45h4.45l.85.5L42 79.1l-.4.35h-.4l-2.3.05h-10l2.2-5.35q5 .8 10.55-.65l1.05-.35-1.65 3.05" fill="url(#ah)"/><path d="m38.3 56.4-5.75 4.75-.2-2.9 1.7-2.55 7.7-3.1q3.35-1.8 8.15-5.65l2.8-4.75-.2 1.1-2 4.1-12.2 9" fill="url(#ai)"/><path d="m50.8 41.1 1.6-.85q.65-.6.75-.5l.55-.45q3.6-2.5 4.7-4.25l-.2 2.25q-1.85 1.7-6.9 4.5l-8.9 4.1 5.25-3.35q1.6-.7 3.15-1.45" fill="#e5eb1f"/><path d="M57.75 39.8q-1.5 7.15-6 14.35L49.9 55.6q4.45-5.8 7.85-15.8m.45 16.6q-1.85 3.6-6.95 8.5l6.95-8.5m-6.25 14.1.3.1q-2.5 3.3-7.65 4.85 3.55-1.5 7.35-4.95m-6.2 7.45.2.1q-.85 1.35-4.35 1.4l.4-.35 3.75-1.15" fill="#ebbad5"/><path d="m52.05 44.95 4.85-5.45-2.6 4.45-2.7 2.7.45-1.7" fill="#698512"/><path d="m13.9 8.5-1.15-1.25-2.35 3.95.75 8.25-.65 2.5-2.2-3.25-3.15-4.65-.85 1-.8 1.05v6.3Q2.75 27 .9 29.25l.35 8.45 5.35 2.85v.05l.65-.55 3.45 3.1 4.5.85 11.65 1.4.7.1 4.65-6.6.65-4.3 2.9-4.6-.95-6-1.4 1.45-1.1 1.1.5 5-1.8 3.1-1.55 3.85.55-3.1.05-.35.2-.35 1.65-3.3v-4.45l-1.5 1.5-1.2 1.2-1.8-.6.35-.15 1.35-.7 8-9.7 1.65-2.75.45-.8-1.9 1.3-.55-.3L34.7 19l-2.4 3.05-.5.55-1.9.75 1.85-1.45 3.3-4.2 1.7-2.55.45.2 2.2-.65.15-.25-1.35-6.8-.85-4.3L35.8 6.8l-.5.7v4.05l.85 2-1.45 3.15-3.45 4.9-3.9 2.05-.5.8-.9.85 1.1-1.75 3.75-2.1 4.75-7.4.2-.35-.85-2V8.15l-4.9 7.5-4.75 4.4h-1l-.25.45v2.1l-.1 1.3 1.6 5.05-1.55 8.2-.05-.05v-9.5l-.7-2.45-3.4-8.25.05-.05 2.2 3.5 1.4 2.25.1.2v-.2l-.15-1.05-.15-.85.75-1.45h.9l2.75-2.85.8-.8-3.95-4.55h-2.15l-.2 1.2 1.7 2.7v2.1q-1.25-2.9-3.75-5.65l-2.6-.45-1.7-.35-1.9-2.1m-3.45 36.4-2.9-3.5-1.2.75L0 38.4v-8.75l2.35-6.55q-.6-5.65.45-9.25l2.25-2.35 5.15 8-.95-9.25q1.7-4.15 3.1-5.05l4.75 4.25 2.4.65 1.85-.25h4.05l3.65 4.5Q33.35 9.65 37.3 0q2.15 4.2 3.5 11.35l.35 4.3-5.15 7.9 1.35 6.9-.65.85-.7.85-.35.45-1.55 1.95v4.6l-.2.35q-2.8 4.9-5.65 7.1l-.45.6-12.05-1.5-4-.5-1.15-.15-.15-.15M18 19.3l-1.3-1.5-.35 1.25-3.6 14.15 2.55 4.35-1.55-1.1-2-2.95 4.5-16.45 1.35.6 2.05 2.7v9.8l1.85 4.45q-.45 4.45-1.35 5.8v-5.3l.65.45-1.5-4-.35-1.05V20.35L18 19.3m.2 18.95v-.65l-.5-3.8-1.15-1.9.5-4.45v4.15l.95 1.25.1.65.45 3.5.05 1.55 1 1.55-1.4-1.2v-.65" fill="#662c1c"/><path d="m13.9 8.5 1.9 2.1 1.7.35.4 3.7-2.05-2.85-.7-.95L13.9 8.5m9.95 6.45-1.7-2.7.2-1.2h1.05l.45 3.9m.25-3.9h.4l3.95 4.55-.8.8-3.55-5.35m-.7 10.5.15 1.05h-.1l-1.4-2.25-2.2-3.5-.8-2.15q2.75 2.7 4.35 6.85m.55 15.6 1.55-8.2-1.6-5.05.1-1.3L27.95 33l-4.4 11.55.35-7.15.05-.25M38.2 7.65l1.35 6.8-.15.25-2.2.65-.4-3.5 1.4-4.2M31.8 22.6l.5-.55 6.45-6.3-1.65 2.75-8 9.7-1.35.7q-.55-.2-.55-1l4.6-5.3m-1.4 5.85 1.5-1.5v4.45l-1.65 3.3.15-6.25M30 35.4l-.55 3.1L31 34.65l1.8-3.1-.5-5 1.1-1.1.45 5.8-2.5 5.75v1.4l-3.8 7.1-.7-.1 1.55-6.7 1.6-3.3M4.3 15.05l.85-1L8.3 18.7l-4-3.65m13.55 5.6L18 19.3l.95 1.05V30.5l.35 1.05-1.25-1.4-.2-9.5m2.3 14.45v5.3l-.55-.3-1-1.55-.05-1.55-.45-3.5 2.05 1.6" fill="#b85439"/><path d="m17.5 10.95 2.6.45q2.5 2.75 3.75 5.65v-2.1l-.45-3.9h.7l3.55 5.35-2.75 2.85H24l-.75 1.45.15.85q-1.6-4.15-4.35-6.85l.8 2.15-.25-.35.2.4 3.4 8.25.7 2.45v9.8l-.35 7.15L27.95 33 24 22.6v-2.1l1.6-.3 3.5-2.35 5.6-5.4.85 1.6-4.75 7.4-3.75 2.1-1.1 1.75 3.95-1.95 1.9-.75-4.6 5.3q0 .8.55 1l-.35.15 1.8.6 1.2-1.2-.15 6.25-.2.35-.05.35-1.6 3.3-1.55 6.7L15.2 44 12 42.35l-7.65-7-.85-3.85 1.35-3.2L9 35.8 5.65 21.35l-2.15-4.6v-.65l.8-1.05 4 3.65 2.2 3.25.65-2.5-.75-8.25 1.5-.5 5.3 6-1.35-4.9 2.05 2.85-.4-3.7m14.8 11.1L34.7 19l2.05-3.05.55.3 1.9-1.3-.45.8-6.45 6.3m-15.95-3L15.9 32.2l1.2 2.7 1.1 3.35v.65l1.4 1.2.55.3q.9-1.35 1.35-5.8l-1.85-4.45v-9.8l-2.05-2.7-1.35-.6-4.5 16.45 2 2.95 1.55 1.1-2.55-4.35 3.6-14.15" fill="#e88046"/><path d="m10.4 11.2 2.35-3.95L13.9 8.5l1.25 2.35.7.95 1.35 4.9-5.3-6-1.5.5M24 20.5l.25-.45h1l4.75-4.4 4.9-7.5v3.55l.85 2-.2.35-.85-1.6-5.6 5.4-3.5 2.35-1.6.3M15.2 44l-4.5-.85-3.45-3.1-.65.55v-.05L1.25 37.7.9 29.25Q2.75 27 3.5 22.4v-5.65l2.15 4.6L9 35.8l-4.15-7.5-1.35 3.2.85 3.85 7.65 7L15.2 44m1.15-24.95.35-1.25 1.3 1.5-.15 1.35-.8 6.8-.5 4.45 1.15 1.9.5 3.8v.65l-1.1-3.35-1.2-2.7.45-13.15" fill="#ffc180"/><path d="m25.95 25.3.9-.85.5-.8 3.9-2.05 3.45-4.9 1.45-3.15-.85-2V7.5l.5-.7 1.55-3.45.85 4.3-1.4 4.2.4 3.5-.45-.2-1.7 2.55-3.3 4.2-1.85 1.45-3.95 1.95m7.45.15L34.8 24l.95 6-2.9 4.6-.65 4.3-4.65 6.6 3.8-7.1V37l2.5-5.75-.45-5.8m-16.35 2 .8-6.8.2 9.5 1.25 1.4 1.5 4-.65-.45-2.05-1.6-.1-.65-.95-1.25v-4.15" fill="#78301d"/><path d="M37 59.15 23.4 60l-.6-1.55-2.2-5.4q-5.05-3.55-4.85-7.35l12.05 1.5.45-.6 2.1-.65 5.95-7.25q2.7 1.3 2.2 9.6L37 59.15" fill="#fff"/><path d="m39.25 59-2.25.15 1.5-10.85q.5-8.3-2.2-9.6l-5.95 7.25-2.1.65q2.85-2.2 5.65-7.1l.2-.35v-4.6l1.55-1.95 2.7 2.95 2.35 6.3q0 1.65-.4 2.75L39.25 59m-27.5-13.8 4 .5q-.2 3.8 4.85 7.35l2.2 5.4-10.7-9.95-.35-3.3" fill="#c5b2f5"/><path d="m35.65 32.6.35-.45 3.55 2.95q1.1 4.05 1.15 6.75l-2.35-6.3-2.7-2.95" fill="#ebbad5"/><path d="m36.7 31.3 4.75 3.5.85 8.6-1.2 15.5-1.85.1 1.05-14.4q.4-1.1.4-2.75-.05-2.7-1.15-6.75L36 32.15l.7-.85M23.4 60l-3.25-1.65-9.7-9.5V44.9l.15.15 1.15.15.35 3.3 10.7 9.95.6 1.55" fill="#6f668c"/></g><g id="aQ" fill-rule="evenodd"><path d="M24.05 32.2H23q-1.7-1.95-2.15-3.05-.7-1.6-.85-3.45-.15-1.85.2-4l.25-2.35-.05-1.2q2.6.75 3.6 2.3.35-2.7 2.55-8.6l1.6-5.1.75 1.05 1 1.1 1 1.9q1.15-1.55 2.05-4.3l2.2-6.5 2.1 4.3 1.65 3.25q.7 1.7 5.4 20.5l-.8.35-1.2-5.15q-2.45-10.4-3.75-13.8l-1.6 2.25-.7.9v.05l-1.2 1.6-.2.2-.45 3.15-.1-2.25.1-3.35.1-1.55.1-1.55.25-.85.1-.25.2-2.15.15-2.55q-.75 3.2-1.85 5.45l-.3.55v.05l-1.55 2.7-.2.3.05.3q.05 1 .6 3.25l.6 2.85.15 2.45q.15 1.25 3 10.2l-.6.2q-1.85-3.55-2.95-8.4l-1.15-5.7v-.8q0-1.25-1-3.8l-1.5-3.75-.05-.05V9l-2.15 7.45q-1 3.5-1 6.35 0 2.1.6 3.3l.1.2 1.2 2.7 1 2.65.2.55h-.85q-2.45-5.25-3-6.85l-.5-2.55q-.2-.9-.95-1.65l-.35-.3-1.05-.95.6 3.3.15.65.3.75.35.95 1.1 2.25q-.95-1.3-1.95-3.5l-.15-.35-1-4.15v2.05q.05 2.85.45 5.1V27l.1.55.05.2.15.5q.55 2.35 2.1 3.95M36.1 12.35l.3-.5L38.35 9l-2.6-5.95-.25 7.25-.1.85-.55 2.35.05.1 1.2-1.25m-8 6 .05 1.4.05.8.15 1.3.85-1.05.65-.75.8-.7-1.5 2.2Q28.1 23 28.3 23.6v2.55q-1-3.65-1-5.35 0-1.15.3-2.5.2-1.1.5-1.75l.15-.25-.05.3-.1 1.75" fill="#324217"/><path d="m35.2 31.4-2.15.8H28.5l-.2-.55-1-2.65-1.2-2.7.5-1.35.35-1.45-.15-1.85q-.2-1.55.15-3.2l.85-3.9.75-3.7.2 1.45.15 1.6-.25 2.05-.2.8-.35 1.6.1-1.75.05-.3-.15.25q-.3.65-.5 1.75-.3 1.35-.3 2.5 0 1.7 1 5.35V23.6q-.2-.6.85-2.05l1.5-2.2-.8.7 1-1.65.25-1.1 1.15 5.7q1.1 4.85 2.95 8.4m-6.9-5.25v.1-.1" fill="url(#aj)"/><path d="M27.65 32.2h-3.6q-1.55-1.6-2.1-3.95l-.15-.5-.05-.2-.1-.6q0-.8.3-1.7l.4-.95q1 2.2 1.95 3.5l-1.1-2.25-.35-.95-.3-.75-.15-.65.8-2.05q.75.75.95 1.65l.5 2.55q.55 1.6 3 6.85" fill="url(#ak)"/><path d="m43.5 28.4-7.7 2.8q-2.85-8.95-3-10.2l-.15-2.45-.6-2.85q-.55-2.25-.6-3.25l-.05-.3.2-.3 1.55-2.7.95.95.4.35-.1 1.55-.1 3.35.1 2.25.45-3.15.2-.2 1.2-1.6 2.5 3.75q1.4 2.1 3.55 6.85l1.2 5.15m-7.4-16.05-1.2 1.25-.05-.1.55-2.35.7 1.2" fill="url(#al)"/><path d="m28.55 9 .05-.05 1.5 3.75q1 2.55 1 3.8v.8l-.25 1.1-1 1.65-.65.75-.85 1.05-.15-1.3-.05-.8-.05-1.4.35-1.6.2-.8.25-2.05-.15-1.6-.2-1.45-.75 3.7-.85 3.9q-.35 1.65-.15 3.2l.15 1.85-.35 1.45-.5 1.35-.1-.2q-.6-1.2-.6-3.3 0-2.85 1-6.35L28.55 9" fill="url(#am)"/><path d="M33.15 9.15V9.1l.3-.55q1.1-2.25 1.85-5.45l-.15 2.55-.2 2.15-.1.25-.25.85-.1 1.55-.4-.35-.95-.95" fill="url(#an)"/><path d="M36.25 12.65v-.05l.7-.9 1.6-2.25q1.3 3.4 3.75 13.8-2.15-4.75-3.55-6.85l-2.5-3.75m-.85-1.5.1-.85.25-7.25L38.35 9l-1.95 2.85-.3.5-.7-1.2" fill="url(#ao)"/><path d="m22.4 23.2-.6-3.3 1.05.95.35.3-.8 2.05" fill="url(#ap)"/><path d="M21.65 26.95q-.4-2.25-.45-5.1V19.8l1 4.15.15.35-.4.95q-.3.9-.3 1.7" fill="url(#aq)"/><path d="m16.25 52.25.75.65-1.6 1.5q-4.45.75-7.6 0l-2.6 3.3q-2 3.5-2.8 6.1-.6 1.9-.55 3.3l.9-.55 1.15-.75 2.65-6.9.1-.35.65-.15 3.8-.8 6.4-1.4.35-.15 1.25-.55.7-.35 2-1 4.1 2.8 2.25 2.9v2.4l6.5-2.45 3.8 3 .4.3.05.8.05.85-.2 4-.35 1.75q-2.7 1.4-5.35 1.05-5.15 4.6-6.95 8.55-2.35-3.3-3.5-9.1-7 .6-10.8 2.75-4.65 3.2-6.4 9.05l-2.5-5.7q-.9-3.3-.6-7.9l-1.2 1.4q-2.2-2.6 0-9.25 3.85-6 6.85-8.65 5.85.8 8.3-.45M27.3 59.7q-2.45-3.3-4.95-4.6l-4.05 2.95-10.65 1.8-3.9 10.5q.3 4.25 1.05 6.85l.1.3.35 1q1.1-1.95 2.95-3.85l3.85-3.15q6.3-2.45 11.4-2.35l2.25-5.85.2-.6 1.7-.3-.3-2.7m10.75 6.2.15-2v-.25q-1.65-.2-3.8-2.3-3.7 2.2-7.2 2.9l-2.65 6.3q.25 2.85 1 4.85l.55 1.3.85-.85 5.65-5.9 5.25-1.05.2-3" fill="#826d5a"/><path d="m25.7 63.3-2.25 5.85q-5.1-.1-11.4 2.35L8.2 74.65q0-4.15 3.6-9.85 5.8.75 13.9-1.5m-14.6-5.7-3.8.8v-.65l.25-.2.55-.35 3 .4m-4.55 1.3L3.9 65.8l-1.15.75q.05-2.3 2.55-6.2l1.25-1.45m20.4 16.95q-.75-4.2 2.55-9.1l8.55-.85-.2 3-5.25 1.05-5.65 5.9" fill="#f5d2b2"/><path d="m27.3 59.7.3 2.7-1.7.3-.2.6q-8.1 2.25-13.9 1.5-3.6 5.7-3.6 9.85-1.85 1.9-2.95 3.85l-.35-1-.1-.3q1-8.6 5.85-14.2 7.85-.25 16.65-3.3m-20-1.3-.65.15-.1.35-1.25 1.45q-2.5 3.9-2.55 6.2l-.9.55q-.05-1.4.55-3.3.65-1.9 2.65-4l2.25-2.05v.65m30.9 5.5-.15 2-8.55.85q-3.3 4.9-2.55 9.1l-.85.85-.55-1.3q.45-6.35 4.05-9.3 4.4-.25 8.6-2.2" fill="#b2967d"/><path d="m17 52.9.2.15.3 3.15-6.4 1.4-3-.4-.55.35-.25.2-2.25 2.05q-2 2.1-2.65 4 .8-2.6 2.8-6.1l2.6-3.3q3.15.75 7.6 0l1.6-1.5M4.8 77.2q-.75-2.6-1.05-6.85l3.9-10.5 10.65-1.8 4.05-2.95q2.5 1.3 4.95 4.6-8.8 3.05-16.65 3.3Q5.8 68.6 4.8 77.2m33.4-13.3q-4.2 1.95-8.6 2.2-3.6 2.95-4.05 9.3-.75-2-1-4.85l2.65-6.3q3.5-.7 7.2-2.9 2.15 2.1 3.8 2.3v.25" fill="#fff"/><path d="m16.25 52.25-.2-.15v-2.15L21 34.35 22.3 29l3.2-3.8 2.75 4.15-.25 1.4q1.5-2.35 5.05-5.65l8.1-6.2 1.15 1-8.5 6-5.2 5.95q-3 4.05-4.55 6.95l-3.5 10.8-.75 5.55-.7.35 2.35-15.15 2.15-3.3 2.05-3.35.9-4.15-1-2.05-.2-.35-1.75 1.9v2.4L17.85 49.7v6.35l-.35.15-.3-3.15-.2-.15-.75-.65m39.6-1.45.35 1.9-5.55 7 .25.8-4 6.3q-4.75 2.75-8.5 3.7l.35-1.75q1-.45 1.95-.85l2.85-1.15 2.5-1.05 2.65-4.8-1.35.55-2.5.95-5.9 2.35-.05-.85 8.15-3.25 1.4-.6 7.4-9.25M45 30.8l-4 5.65-2.7 3.85-.55 3.4-7 6.85-.05-.05 6.45-6.95v-3.6L45 30.8" fill="#662c1c"/><path d="m55.4 48.6.3 1.5-8.65 10.55-8.15 3.25-.05-.8-.4-.3 10.3-5.95 6.65-8.25M43.55 66.75 40.7 67.9l4.15-5.5 2.5-.95-3.8 5.3" fill="#78301d"/><path d="m25.55 27.5 1 2.05-.9 4.15-2.05 3.35 1.95-9.55m23.5-1.75 2.15 1.95 4.2 20.9-6.65 8.25-10.3 5.95-3.8-3-6.5 2.45v-2.4l-2.25-2.9 4 2.3 13.75-16.2-.4-.65-9.5 10.05 8.55-11.9-1.3-4.1 4-5.65-7.85 9.15v3.6L30.7 50.5l.05.05-4.85 4.95 6.2-8.65 3.55-4.35q-.25-2 3.15-6.55L45 30.8l4.05-5.05M40.7 67.9q-.95.4-1.95.85l.2-4 5.9-2.35-4.15 5.5" fill="#b85439"/><path d="m55.7 50.1.15.7-7.4 9.25-1.4.6L55.7 50.1m-8.35 11.35 1.35-.55-2.65 4.8-2.5 1.05 3.8-5.3" fill="#ebbad5"/><path d="M17.85 56.05V49.7l5.75-18.25v-2.4l1.75-1.9.2.35-1.95 9.55-2.15 3.3L19.1 55.5l-1.25.55m1.95-.9.75-5.55 3.5-10.8q1.55-2.9 4.55-6.95l5.2-5.95 8.5-6 6.75 5.85L45 30.8l-6.2 5.15q-3.4 4.55-3.15 6.55l-3.55 4.35-6.2 8.65 4.85-4.95 7-6.85.55-3.4 2.7-3.85 1.3 4.1-8.55 11.9 9.5-10.05.4.65-13.75 16.2-4-2.3-4.1-2.8-2 1" fill="#e88046"/></g><g id="aR" fill-rule="evenodd"><path d="M21.3 39.9q-.2.9.3 1.5-5.85 2.4-10.6 1.15-4.65 3.3-7.55 6.6-1.9 5.5-1.4 9.55l.35 1.65 3.55-4.4H8.4q1.15-3.35 3.5-4.9l6.45-.55 1.2-.4.15-.05 5.15-2.65 1.25-.65q2.4 1.05 4.5 3.85l-.05.3-.5 7-.35 4.2-.85 1-.75.8-.95 1.1-1 1.1q-6.75-.05-12.25 2.35l-.25.2q-2.65 1.8-6.5 9.2Q2.2 73.05 4.3 61.9l2.3-4.1h-.55l-3.6 4.3q-4.65-4.5-.45-13l.2-.25q3.95-5.5 9-8.25 4.8 1.55 10.1-.7m28.15 18.45.1.15-.25.65-1.15 2.6-.5 1.25-.45 1.15-1.1 2.5-1.55 1.4q-3.95 1.1-7.85 9l-.4.8-1.6 1.8-3-4.35q-2.2-3.4-.95-9l.55-1.85 2.5-5.35 3.55-2 2.2-1.25 2.8-3.2.15.1q1.2.45 2.3 1.15 2.55 1.65 4.65 4.45M9.65 70.8l2.9-3.05.2-.15q5.3-3.3 12.3-3l3.7-2.65.25-2.3.4-3.7.55-5-3.7-3.55Q23.5 51.1 18 52.9l-6.35-.25-4.95 8.4q-1.4 7-.75 11Q6.2 73.95 7 75.2q.85-2.15 2.65-4.4M47.5 57.6q-1.95-2.45-4.85-4l-2.15 4-5.7 2.8-1.95 4.95q-1.45 6.25 1.1 11.2l.75 1.3 1.7-3.15 1.55-2.85q4-5.3 7.05-6.5l2.6-5 .8-1.5-.1-.15-.8-1.1" fill="#826d5a"/><path d="M21.6 41.4q-1.35 3.05-2 5.45l-9.1.15q-6 3.55-8.45 11.7-.5-4.05 1.4-9.55 2.9-3.3 7.55-6.6 4.75 1.25 10.6-1.15M5.95 72.05q-.65-4 .75-11l4.95-8.4 6.35.25q5.5-1.8 8.25-5.5l3.7 3.55-.55 5q-7.45 2.05-13.45 1.4-7.25 4.8-10 14.7m28 4.5q-2.55-4.95-1.1-11.2l1.95-4.95 5.7-2.8 2.15-4q2.9 1.55 4.85 4-5.25 5.2-10.55 7.55-1.7 1.8-3 11.4" fill="#fff"/><path d="m19.6 46.85-.7 2.1-8.8-.1q-2.9 3.75-3.8 7.1h-.35l-3.55 4.4-.35-1.65Q4.5 50.55 10.5 47l9.1-.15M9.65 70.8Q7.85 73.05 7 75.2q-.8-1.25-1.05-3.15 2.75-9.9 10-14.7 6 .65 13.45-1.4l-.4 3.7q-8.25 1.2-13.55-.35-5.2 6.7-5.8 11.5M47.5 57.6l.8 1.1.1.15-.8 1.5q-5.15 3.8-10.3 5.3-1.5 6.15-.9 9.05l-1.7 3.15-.75-1.3q1.3-9.6 3-11.4 5.3-2.35 10.55-7.55" fill="#b2967d"/><path d="m18.9 48.95-.55 1.55-6.45.55q-2.35 1.55-3.5 4.9H6.3q.9-3.35 3.8-7.1l8.8.1M29 59.65l-.25 2.3-3.7 2.65q-7-.3-12.3 3l-.2.15-2.9 3.05q.6-4.8 5.8-11.5 5.3 1.55 13.55.35m18.6.7-2.6 5q-3.05 1.2-7.05 6.5L36.4 74.7q-.6-2.9.9-9.05 5.15-1.5 10.3-5.3" fill="#f5d2b2"/><path d="m21.3 39.9.15-.25q3.15-7.5 10.35-15.75 5.1-6.25 15.1-12.9l.25-.25 6.8-4.55q3.3.55 4.85 1.7 6.7-3.45 14.9-6.65 2.95.7 5 1.85l1.85 3.5-1.95 2.25L97.9 0q1.45 2.6 1.1 8.85l-14.5 20.8 7.55-2.5h1.15l.95 5.15-14.3 14.5-11.15 5.25-8.25 9.75-10.4 3.25-2.85-.9.45-1.15 2.7.3 3.3-1.05 6.4-2.05L65 53.6l2.1-2.7h-1.15l-.7.2-6.2 1.9-3.9 2.2-4.1 3.65-1.75.3.25-.65-.1-.15 1.4-.9 2.05-3.05 6.55-3.65 8.3-3.65h1.65l9.1-3 4.9-4.05-3.45 4.1-9.85 3.75-1.7-.4-4.65 1.9-10.5 5.3-1.45 2.55 5.1-3.95 6.7-2.55 4.8-.65 12-5.2 4.45-4.6 7.8-8.15V28l-.45.1-2 .5-6.2 2.1-.2.1-4.6 2.8-4.85-1.05-9.9 6.2-2.55 3-4.5 1.95-1.25.55 5.7-3.65 2.25-2.75 10.4-6.15 3 .65 2.7-3.25v-1.75L95.75 7.3l1.85-4.95-.35-.6-1.15.55-19.25 8.9-1.25.55-23.05 19.6-1.55.35-5.55 6.3q-4.7 2.45-8.8 7.9.9-1.6 2.75-3.8l2.75-3.15 2.8-1.6L50 31.3v-3.7q5.45-7.3 14.05-14.35l3.45-1.5 3.4-3.2-2.55 3.55-3.5 1.65-2.2 1.75q-7.35 6-12.25 12.55l.45 2.8h1.4l2.55-2.15 9.45-8.25 1-1.5 7.4-6.7v-.7l5.2-6.6-.2-.8-2.05-.6-2-.65L61.5 8l-3.45 1.45-5.05 4.5 1.45-1.9-1.4 1.25-3.4 3.75 2.8-3.9 2.9-2.35v-.05L57 8.55l-2.05-.35-6.5 8.3L54 8.35l-4.8 2.9-12.1 9.7q-9.75 9.3-13.35 18.2l-.25.35v.05l-2.2 5.2-.9 2.45q-.6 1.65-.85 2.9l-1.2.4.55-1.55.7-2.1q.65-2.4 2-5.45-.5-.6-.3-1.5m9.45 26.4-1.35.45L27.15 65l.95-1.1 1.65 1.25 1.55-.7-.55 1.85m18.6-48.85-.9 1.65-1.1.25-1.8-.25-2.1 1.45q-2.5 2.95-7.7 7.15L35 29.6 32.6 32h-.05l2-2.55.8-2.05L44.6 19l1.1-.35 2.05.3 1.6-1.5m29.1-11.2-.25-.5-5 5.45v.75l5.25-5.7M83.8 29.6l.95-1.85 1.3-3.25L97.8 8.3q.45-3.9-.05-5.55v-.1l-.05.1-1.35 4.7L80.95 27v2.25l-2.9 3.15.9.2 4.85-3" fill="#662c1c"/><path d="m20.4 47.2.9-2.45 11-17.15 9.7-8.25 2.5-1.8L46 16.4l-1.85 2.1-2.05 1.45-6.9 7.25-5.7 7.8 2.6-2.6.2-.15.3-.25 2.4-2.4.75-1.9q5.2-4.2 7.7-7.15l2.1-1.45 1.8.25 1.1-.25.9-1.65.3-.4 3.4-3.75 1.4-1.25-1.45 1.9 5.05-4.5L61.5 8Q52.15 19.65 48 28.2l-.15.25-5.25 6.5-9.05 13.1 8.9-10.35-3.05 4.4q-1.85 2.2-2.75 3.8 4.1-5.45 8.8-7.9L51 31.7l1.55-.35 23.05-19.6 1.25-.55h3.35l.5 1.2q-.95 6-6.5 11.05l-.4.35q-10.75 6.3-16.9 14l-.15.15q-6.55 8.55-7.65 12.6l1.75-1.5 4.5-5.9 3.45-3.45-6.1 7.65 4.7-3.65 4.5-1.95 2.55-3 9.9-6.2 4.85 1.05 4.6-2.8.05.05-4.65 5.75-6.85 5.8-13.95 6.5-9.05 6.15-4.45-1.95-2.4-.35-.15-.1-2.8 3.2-2.2 1.25-2-.05 11.5-14.15-1.35 1.3-.9.75-.1.1-.8.9 3.6-4.65q-6.45 7.25-15.5 10.85l-1.25-1.25.05-.3q-2.1-2.8-4.5-3.85l-1.25.65-4.45-.2" fill="#e88046"/><path d="m21.3 44.75 2.2-5.2v-.05l.25-.35q3.6-8.9 13.35-18.2l12.1-9.7 4.8-2.9-5.55 8.15-4.8 2.6.5-.6L46 16.4l-1.5 1.15-1.9 1.3-.6.5-9.7 8.25-11 17.15M61.5 8l12.1-5.1 2 .65-4.7 5-3.4 3.2-3.45 1.5Q55.45 20.3 50 27.6v1l-6.75 7.95-.8 1.15-8.9 10.35 9.05-13.1 5.25-6.5.15-.25Q52.15 19.65 61.5 8m15.35 3.2L96.1 2.3 79.25 25.5q-11.9 6.4-19.5 13.05l-.95 1.15-3.45 3.45-4.5 5.9-1.75 1.5q1.1-4.05 7.65-12.6l.15-.15q6.15-7.7 16.9-14l.4-.35q5.55-5.05 6.5-11.05l-.5-1.2h-3.35M84 30.7l6.2-2.1 2-.5-3.2 2.7-17.05 12.6-10.5 4.85q-7.6 4.8-11.7 8.2L44.8 53.9q-1.1-.7-2.3-1.15l2.4.35 4.45 1.95 9.05-6.15 13.95-6.5 6.85-5.8 4.65-5.75.15-.15M30.55 50.9l1.25 1.25q9.05-3.6 15.5-10.85l-3.6 4.65.8-.9.1-.1.9-.75-1.8 1.75h-.05q-6.25 6.5-13.6 11.95l.5-7" fill="#ffc180"/><path d="M19.55 50.1q.25-1.25.85-2.9l4.45.2-5.15 2.65-.15.05M75.6 3.55l2.05.6.2.8-5.2 6.6v.7l-7.4 6.7-1 1.5-9.45 8.25 1.2-4 6.65-9.2 2.2-1.75 3.5-1.65 2.55-3.55 4.7-5M50 28.6v2.7l-5.05 6.05-2.8 1.6-2.75 3.15 3.05-4.4.8-1.15L50 28.6M96.1 2.3l1.15-.55.35.6-1.85 4.95L80.2 27.35v1.75l-2.7 3.25-3-.65-10.4 6.15-2.25 2.75-5.7 3.65 1.25-.55-4.7 3.65 6.1-7.65.95-1.15q7.6-6.65 19.5-13.05L96.1 2.3m-3.9 25.8.45-.1-.3.6-2 4.25-5.45 6-1.5 1.2-4.9 4.05-9.1 3h-1.65l-8.3 3.65-6.55 3.65-2.05 3.05-1.4.9q-2.1-2.8-4.65-4.45l4.95 2.55q4.1-3.4 11.7-8.2l10.5-4.85L89 30.8l3.2-2.7M49.3 59.15l1.75-.3 4.1-3.65 3.9-2.2 6.2-1.9-5.3 6-11.8 4.65 1.15-2.6M45.5 44.2l1.35-1.3-11.5 14.15 2 .05-3.55 2-2.5 5.35-2.45-1.35.85-1 .35-4.2q7.35-5.45 13.6-11.95h.05l1.8-1.75" fill="#b85439"/><path d="m48.45 16.5 6.5-8.3 2.05.35-1.65 2.2v.05l-2.9 2.35-2.8 3.9-.3.4-1.6 1.5-2.05-.3-1.1.35-9.25 8.4-.8 2.05-2 2.55-.45.4-2.6 2.6 5.7-7.8 6.9-7.25 2.05-1.45-.5.6 4.8-2.6m6.35 12.2-2.55 2.15h-1.4l-.45-2.8q4.9-6.55 12.25-12.55L56 24.7l-1.2 4m30.05 11.6-4.45 4.6-12 5.2-4.8.65-6.7 2.55-5.1 3.95 1.45-2.55 10.5-5.3 4.65-1.9 1.7.4 9.85-3.75 3.45-4.1 1.5-1.2 5.45-6 2-4.25-.3 2.9-7.2 8.8m-19.6 10.8.7-.2h1.15L65 53.6l-4.8 5.25-6.55 3.4-3.3 1.05-2.7-.3.5-1.25 11.8-4.65 5.3-6m-36.4 12 2.45 1.35-1.55.7-1.65-1.25.75-.8m49.6-56.85-5.25 5.7v-.75l5-5.45.25.5m19.25-3.5-.55 5.35-12.35 17-1 4.5-4.85 3-.9-.2 2.9-3.15V27l15.4-19.55 1.35-4.7" fill="#78301d"/><path d="M92.65 28v4.15l-7.8 8.15 7.2-8.8.3-2.9.3-.6m5.1-25.3v.05q.5 1.65.05 5.55L86.05 24.5l-1.3 3.25-.95 1.85 1-4.5 12.35-17 .55-5.35.05-.05" fill="#ebbad5"/><path d="m65 53.6-4.95 6.6-6.4 2.05 6.55-3.4L65 53.6" fill="#eab8d3"/></g><g id="aS" fill-rule="evenodd"><path d="m66.6 2.1-.75-.8-2.7 1.15-6.7 2.85-.2.05-3.55 8.2-.05.05-2.15 2.9v2.55l-.1.2-1.85 1.9-.7.65q-.6.6-.45.2l.4-.75.3-.5 1.8-1.8v-2.6l.05-.15 2.2-2.85 1.05-2.8v-.05l2.45-5.25L54.2 4.1l-4 7.3-1.3 4.05v-1.2l.3-.65q.4-2.65 2.6-7.1l1.45-2.75-2.4-.45-.95 1.65-.2.2-9.5 6-1.6 1.2-2.8 3.5h-1.7l-2.9 3.05 2.9-3.65h1.55l2.55-3.35-1-.9.05-.15.85-4.95-2.65.4-.95.1-.3-.05-.3.15-1 .15-1.65 2.65-.05.15-6 5.6-.4.15-.2-.05-.3.05-.4-.15-1.05-1.2-.05-.1-.05-.15-.05-.2.55-4.55L21.1 6.3l-.05-.1-.5-.6-1.7.6-4.65 6.05.2 1v.25l-.15.2-3.15 4.35-2.55 9.5.1 3.8.15 2.85v.25h.05q.65 5.45 1.75 9.3 2.55 3.1 4.65 3.95l-4.15-4.35 2.15 1.45 5.1 3.35.3-.6.9-1.7.15-.3.3-.65.4-.8.25-.25.3-.1.35.1 6.25 4.5.15-.25 1.1-1.25 4.25-5.2q.1-.2.35-.2l.4.05.45.3.2.25.25.15 1.45.9 2-2.4 2.45-2.95-3-16.8v-.3l.7-2.25.25-.8.15-.25q.1-.15.3-.15l.3.05L43.75 19q.2.05.3.25l.1.2.65 1.35.1.15q1.95 4.15 3.65 9.4l1.95-2.3.45-.5.05-.05 1.4-.85 1.65-.9.2-.1.15.1 1.4 1.4.1.15v.1l-.1.4q-.4 1.3-2.35 3.75h1.3l.2.1.1.15.15.7.1.5.35 2.05v.15l-.05.1-.2.2-.3.35-2.4 2.7-.9 1.05-.35.4-.25.25v1.2l-.1.85-.1.35-.6.85.6 2.05v.3l-.8 5.7-.2.35-1.8 1.7-1.8 1.7-.1.05-.05.1h-.05l-1.55 1.6q-3.4 3.4-6.8 5.7l-5.2 3.55-2.95 3.1-4.3-.1-2.75-2.5-5.55-7.6v-3.4.15L9.25 47.9q-5.5-6.15-9.2-16.7v-.35l.8-3.25.15-.3q.15-.15.3-.15l.35.05 3.55 1.65.2.2 2.1 3.15-.1-3.85-.15-.35-.45-9.85v-.2l3.5-9.85.3-.3.4-.05 2 .35q.15 0 .3.15l.15.3.45 2.15L18 5.35l.3-.2 2.2-.8h.35l.35.15 3.15 3.75.1.25v.25l-.55 4.5.7.8 5.7-5.4 1.75-2.85.15-.2q.1-.1.25-.1l1.3-.2.3.05.3-.1 4.9-.7.35.1.25.25L41 7.35l.05.35-.35 1.75 8.25-5.2 1.1-1.85.25-.25.35-.05 3.55.6.2.1 1.75 1.35 9.6-4.1.4-.05.3.2 2.35 2.55.1.4-.1.4-6 6.45-2.1 6-.1.15-1.7 2.1-1.1 1.45-.4.2-.4-.15-.25-.4v-.15l.15-.25 2.7-3.45 2.1-5.95.15-.25 5.7-6.15-.95-1.05M54.75 26.95l-.6-.6-2.8 1.6-1.55 1.8L48.75 31v.05l1.15 3.7 2.65-3 .1-.1q2.35-2.9 2.65-4.15l-.55-.55m0 6.4-.2-1.2H53l-1.7 1.9-.1.15-1 1.1-.1.1.5 1.8.5 2.3 3.95-4.45-.3-1.7m-6.95 5.6-.15-.5-.5-1.65q-.45-1.4-.3-1.7.1-.25 1 1.3l.9 1.7 1.2 4 .1-.7q.05-1.4-.6-3.9l-1.8-6.1Q45.6 24.85 43.1 20l-3.05-1.2-.6-.25-.7 2.35.4 2.15 2.6 14.75v.3l-.1.2h.1v3.6l-.95 1.95v.1l-.1.2-3.15 4.6-.1.05-.15.05-.15-.05-2.5-1.95-.4-.35-.1-.15h-.05l-1.15 3.25-.05.1-3.2 3.4-.1.1-.15.1-.2-.05h-.05l-6.75-3.75-.85 4.4-.1.15-.15.05h-.15l-1.25-.65L18 52.4l.2 3.1.05.2v.6h.05l.4 2.85 3.55 4.75.55.75.85 1.1.85.25.3-5.3h.05l.5 6.5 2.2.35.45.1 1.45.2 2.2-3.25.65-4.3.7 3.95.8-.25.05-.1.3-.35Q39.05 61 44 56.1l1.25-1.25v-2.3l-.5-2.95-.3-1.65v-.25q.05-.15.25.2l1.1 2.7.6 1.95v1.15l2.65-2.5.8-5.45-.75-2.35v-.15l-1.3-4.3m-6.25-15.6 2.55 6.4.9 4.4-.4 3.4v-3.4l-.9-4.8-2.15-6M40.2 43.8l.65-1.7.35-3.3-4.45 5.45q-.15.2-.4.2v.05l2.3 1.65 1.45-2.05.15-.25-.05-.05m-.75-32.85-.1-.45.5-2.8L39 5.8l-.4.05-.8 5.1.6.6 1.05-.45.05-.05-.05-.1M21.05 6.9l.2 3.6 1.4 2.9.1.2-.05.1q-.95-.25-1.85-2.75l.2-4.05m1.35 13.9-3.05 8.05-.85 3.95.4 2.55-.9-2.7.6-2.2q1.25-5.15 3.8-9.65M12.35 9.15l-1.05-.2-3.35 9.25.3 6 1.7-6.55.1-.25 3.15-4.2-.2-.9v-.25l-.65-2.9m-9.4 21.8 1.4-1.2-2.55-1.2-.3 1.2-.3 1.2Q4.8 41.1 10.15 47.1l2.45 2.55 4.35 4.45-.35-3.95.05-.3.2-.25 1.15-.85-1.55-.55-.25 1.4q-2.85-.8-6.2-4.55l1.6 2.4-3.8-4.4-2.55-7.7-.9-.7-1.25-2.6v-1l-.15-.1m1.6 3.45 1.3 1q1.15 4.8 2.7 7.85-.7-3.4-1-8.85l-2.9-4.35L3.4 31.7l1.15 2.7m7.35 5.2 4.4 5.8q-2.75-1.95-4.4-5.8m9.7 11.2.35-1.85.1-.15.15-.05.2.05 2.05-1.25-3.25-2.35-.35.65-.95 1.8.3 2.2 1.3 1.45.1-.5m3.45-2.75-1.8 1.2 6.05 3.4 1.05-1.1-2.25-2.05-.4.2-.4-.1-2.25-1.55m9.05-4.9-.2-.25-.25-.1h-.05l-5 6.05 2.1 2.3 1.7-1.8 1.25-3.6q.05-.1.15-.1l.1-.1h.05l1.6-1.45-1.45-.95m.25 2.7.1.1.15.05 2.65 2.15 1-1.45-2.4-1.35-1.5.5M21.1 53.4l.35-1.85L18.3 50l-.5.35.15 1.3v.05l3.15 1.7m-3.05 1.85L18 55.2l-.3-.1.35.15" fill="#662c1c"/><path d="m63.15 2.45 2.7-1.15.75.8-8.05 7.2-4.5 5-1.4 1.15 10.5-13M44.8 20.8l-.65-1.35 4.65-3.7-4 5.05M20 44.9l-.3.65q-1.4-2.1-1.7-6.5l-.05-.6.4-1.7-.7-2.25v-8.4l3.65-7.25-2-5.4-8.65 10.75-2 7.15-.1-3.8 2.55-9.5 3.15-4.35.15-.2v-.25l-.2-1 4.65-6.05 1.7-.6.5.6v.7l-.2 4.05q.9 2.5 1.85 2.75l.1.05.05.1 1.05 1.2.4.15.3-.05.2.05.4-.15 6-5.6.05-.15 1.65-2.65 1-.15.3-.15.3.05.95-.1L24.3 17.95 23.45 19l-1.05 1.8q-2.55 4.5-3.8 9.65l-.6 2.2.9 2.7.45.7q-.15 2.8.2 4.45l.45 4.4m-1.35 2.65-.3.6-5.1-3.35q-1.2-1.5-2.15-5.25V37.8l.4.9.4.9q1.65 3.85 4.4 5.8l2.35 2.15m16.75-31.7h.4l2.8-3.5 1.6-1.2 9.5-6 .2-.2.95-1.65 2.4.45L51.8 6.5q-2.2 4.45-2.6 7.1l-.3.65-.55 1.25 1.2-7.55-7.8 3.4-2.8 2.55-4.4 2.95.85-1m-7.85 51.7-2.2-.35-.5-6.5-.05-.85h-.05l-.05-.9-.05-1.75 1.7 4.8 1.2 5.55m-5.3-3.65-3.55-4.75-.4-2.85-.05-.25v-.35l-.05-.2-.2-3.1 1.95 1.05.65 5.65 1.65 4.8m7.45-10.8 3.2-3.4.05-.1 1.15-3.25h.05l.1.15.4.35-1.3 3.35-3.65 2.9m9.45-30.05-.4-2.15.7-2.35.6.25 1.5 4.55 2.15 6 .9 4.8v8.6l-.9-3.1V32l-4.55-8.95M1.5 29.75l.3-1.2 2.55 1.2-1.4 1.2-1.45-1.2" fill="#ffc180"/><path d="m50.5 28.05-1.95 2.3q-1.7-5.25-3.65-9.4l-.1-.15 4-5.05.1-.3 1.3-4.05 4-7.3 1.45 1.15-2.45 5.25v.05l-1.05 2.8-2.2 2.85-.05.15v2.6l-1.8 1.8-.3.5-.4.75q-.15.4.45-.2l.7-.65 1.85-1.9.1-.2V17.6l2.15-2.15 1.4-1.15L64.4 5.7l-3.55 4.15-5 9.75-.1.1v.05q-5.2 3.15-5.25 8.3M38.3 18.4l-.7 2.25v.3l3 16.8-2.45 2.95-3.45-4.8 1.45 7.2-1.45-.9-.25-.15-.2-.25-.45-.3-.4-.05q-.25 0-.35.2l-4.25 5.2-3.95-4.25-.15-.5-.5-1.75q-1.8-11.9 7.75-19.3l6.35-2.65M20.65 43.85l-.25.25-.4.8-.45-4.4.3-4.1-.4-.45-.55-.6-.4-2.55.85-3.95 3.05-8.05 1.05-1.8.85-1.05-3.2 8.9-1.35 6.3 1.8 3.7-.9 5.1v1.9m-1.1 2-.9 1.7-2.35-2.15-4.4-5.8-.4-.9 8.05 7.15M21.1 6.3l2.15 2.55-.55 4.55h-.05l-1.4-2.9-.2-3.6.05-.6M37.2 11l1 .9-2.55 3.35H34.1l-2.9 3.65 2.2-4.05 1-.25 2.75-3.65.05.05m17.55 15.95.55.55q-.3 1.25-2.65 4.15l-.1.1-2.65 3-1.15-3.7V31l1.05-1.25.7 1.55 4.25-4.35m0 6.4.3 1.7-3.95 4.45-.5-2.3-.5-1.8.1-.1 1-1.1.65 1.95 2.9-2.8M40.05 18.8 43.1 20q2.5 4.85 4.55 11.4l1.8 6.1q.65 2.5.6 3.9l-.1.7-1.2-4-.9-1.7q-.9-1.55-1-1.3-.15.3.3 1.7l.5 1.65.15.5.8 6.85-1.4 6.35-.8.7v-.3l-.6-1.95-1.1-2.7q-.2-.35-.25-.2v.25l-.35 6.4-9.95 9.2-.3.35-.05.1-.8.25-.7-3.95-.65 4.3-2.2 3.25-1.45-.2 4.8-14.3.8 7.25q4.95-4 9.95-11.35l-.7-7.3 1.8 5.35.6-.45-.65-4.1v-5.2l.4-3.4-.9-4.4-2.55-6.4-1.5-4.55M24.8 60.7l-.3 5.3-.85-.25-.85-1.1 1.9-5.7.05.9.05.85M12.35 9.15l.65 2.9v.25l.2.9-3.15 4.2-.1.25-1.7 6.55-.3-6 3.35-9.25 1.05.2m-.75 38.3-1.6-2.4q3.35 3.75 6.2 4.55l.25-1.4 1.55.55-1.15.85-.2.25-.05.3.35 3.95-4.35-4.45-1-2.2M4.55 34.4 3.4 31.7l1.25-1.65 2.9 4.35q.3 5.45 1 8.85Q7 40.2 5.85 35.4l-1.3-1M21.6 50.8l-.1.5-1.3-1.45-.3-2.2.95-1.8.75 4.95m3.45-2.75 2.25 1.55.4.1.4-.2 2.25 2.05-1.05 1.1-6.05-3.4 1.8-1.2m9.3-2.2 1.5-.5 2.4 1.35-1 1.45L34.6 46l-.15-.05-.1-.1M21.1 53.4l-3.15-1.7v-.05l-.15-1.3.5-.35 3.15 1.55-.35 1.85" fill="#b85439"/><path d="m66.6 2.1.95 1.05L64.4 5.7l-10.35 8.6 4.5-5 8.05-7.2M38.15 40.7l-2 2.4-1.45-7.2 3.45 4.8m-9.35 6.15-1.1 1.25q-1.65-1.6-2.85-5.5l3.95 4.25m11.3-2.75-1.45 2.05-2.3-1.65v-.05q.25 0 .4-.2l4.45-5.45-.35 3.3-.65 1.7-.1.3m-.65-33-1.05.45-.6-.6.8-5.1.4-.05.85 1.9-.5 2.8.1.45v.15m-18.6 34.75.35-.65 3.25 2.35-2.05 1.25-.2-.05-.15.05-.1.15-.35 1.85-.75-4.95m13.25-2.7 1.45.95-1.6 1.45h-.05l-.1.1q-.1 0-.15.1l-1.25 3.6-1.7 1.8-2.1-2.3 5-6.05h.05l.25.1.2.25" fill="#78301d"/><path d="m44.15 19.45-.1-.2q-.1-.2-.3-.25l-4.45-1.75-.3-.05q-.2 0-.3.15l-.15.25-.25.8-6.35 2.65q-9.55 7.4-7.75 19.3l.5 1.75.15.5q1.2 3.9 2.85 5.5l-.15.25-6.25-4.5-.35-.1-.3.1v-1.9l.9-5.1-1.8-3.7 1.35-6.3 3.2-8.9L35.45 6.3l2.65-.4-.85 4.95-.1.1-2.75 3.65-1 .25-2.2 4.05 2.9-3.05h1.3l-.85 1 4.4-2.95 2.8-2.55 7.8-3.4-1.2 7.55.55-1.25v1.2l-.1.3-4.65 3.7M19.7 45.55l-.15.3-8.05-7.15-.4-.9v1.75q.95 3.75 2.15 5.25l-2.15-1.45 4.15 4.35q-2.1-.85-4.65-3.95-1.1-3.85-1.75-9.3l-.05-.1v-.15l-.15-2.85 2-7.15 8.65-10.75 2 5.4-3.65 7.25v8.4l.7 2.25-.4 1.7.05.6q.3 4.4 1.7 6.5M50.5 17.6v-1.1l2.15-2.9.05-.05 3.55-8.2.2-.05 6.7-2.85-10.5 13-2.15 2.15m-.7 12.15 1.55-1.8 2.8-1.6.6.6-4.25 4.35-.7-1.55m1.4 4.45.1-.15 1.7-1.9h1.55l.2 1.2-2.9 2.8-.65-1.95M28 67.65l-.45-.1-1.2-5.55-1.7-4.8.05 1.75-1.9 5.7-.55-.75-1.65-4.8-.65-5.65 1.25.65h.15l.15-.05.1-.15.85-4.4 6.75 3.75h.05l.2.05.15-.1.1-.1 3.65-2.9 1.3-3.35 2.5 1.95.15.05.15-.05.1-.05 3.15-4.6.1-.2v-.1l.95-1.95v-4.1l-2.6-14.75L43.7 32v7.65l.9 3.1.65 4.1-.6.45-1.8-5.35.7 7.3q-5 7.35-9.95 11.35l-.8-7.25-4.8 14.3M2.95 30.95l.15.1v1l1.25 2.6.9.7 2.55 7.7 3.8 4.4 1 2.2-2.45-2.55q-5.35-6-8.95-16.15l.3-1.2 1.45 1.2" fill="#e88046"/><path d="m19.45 35.95.4.45-.3 4.1q-.35-1.65-.2-4.45l.1-.1" fill="#692e1d"/><path d="m67.55 3.15-5.7 6.15-.15.25-2.1 5.95-2.7 3.45-.15.25-.8.4h-.1l5-9.75L64.4 5.7l3.15-2.55M46.4 55.3l1.8-1.7 7.4-2.25 6.7-3.95-7.05 5.15-8.85 2.8v-.05m1.4-16.35 1.3 4.3v.15l.75 2.35-.8 5.45-2.65 2.5v-.85l.8-.7 1.4-6.35-.8-6.85m-3.35 9 .3 1.65.5 2.95v2.3L44 56.1q-4.95 4.9-9.85 7.45l9.95-9.2.35-6.4" fill="#ebbad5"/><path d="m48.2 53.6 1.8-1.7.2-.35.8-5.7v-.3l-.6-2.05.6-.85 1.85 1.4q3.45.8 7.55 0l1.8-.5-2.85 2.5 4.55-1.25.05 1.35-1.65 1.25-6.7 3.95-7.4 2.25" fill="#c5b2f5"/><path d="m44.65 57.05 1.55-1.6h.05l.05-.1h.1l8.85-2.8 7.05-5.15 1.65-1.25-2 2.55-6.05 5.4-11.25 2.95" fill="#6f668c"/><path d="M63.9 43v1.8l-4.55 1.25 2.85-2.5 1.7-.55" fill="#fff"/><path d="m63.65 36.6-2.5 1.4-.2.05-3.8.6.65-2.95 2.35-.5 3.5 1.4m-2.8 2.45 2.85 1.55h-7.25l.2-.25 4.2-1.3m3.85 2.05.9.5q-4.85 1.75-10.5 2l.85-2 1 .05h2.25l5.5-.55" fill="#9db017"/><path d="m55.5 21.55 5.35-2.3-2.3 4.95-1.6.6-1.45-3.25" fill="#a3b518"/><path d="M56.75 19.2v.15l.25.4.4.15.4-.2 1.1-1.45 7.1-2.8q5.65-2.8 8.7-5.45-.55 10.25-8.45 18.4l9.1-2.1q-1 4-6.9 9.15l-6.7 3.15 5.25 3-3.1 1.4-1.7.55-1.8.5q-4.1.8-7.55 0L51 42.65l.1-.35 2.95 1.35 1.05-.05q5.65-.25 10.5-2l-.9-.5-1-.5-2.85-1.55-5.2.4-2.95-.9 4.45.1 3.8-.6.2-.05 2.5-1.4 2.05-1.15.95-.55 4.45-4.7-6.9 3.35-2.75.9-4.15.6 1.05-1.9.9-1.15-3.95 1-.1-.5 5.55-1.75 2.8-2.55 3.05-2.85 1.55-2 .5-.75q2.4-3.75 3.8-8.65-5.85 3.6-11 5.05l-.6.25-5.35 2.3-.45.2q-3.3 3.4-2.65 4.9l-1.4.85-.05.05-.45.5q.05-5.15 5.25-8.3l.2-.15.8-.4M65 29.55l-.1.05-4.45 3.85q4.35-1.3 9.45-3.95-3.05.7-4.9.05" fill="url(#ar)"/><path d="m55.8 27.15-1.4-1.4-.15-.1-.2.1-1.65.9q-.65-1.5 2.65-4.9l.45-.2 1.45 3.25 1.6-.6 2.3-4.95.6-.25-1.05 4.45q6.1-3.9 9.25-6.95l-4.05 5-1.35 1.35-.5.5h-.5l3.5-3.9q-3.15 3-7.85 6.4l1.85-5.05L58 26.15l-2.2 1" fill="url(#as)"/><path d="m55.8 27.8.1-.4v-.1l-.1-.15 2.2-1 2.75-5.35-1.85 5.05q4.7-3.4 7.85-6.4l-3.5 3.9h3.45l-4.35.7q-2.15 1.75-4.5 2.9l-2.05.85" fill="url(#at)"/><path d="M61.45 19q5.15-1.45 11-5.05-1.4 4.9-3.8 8.65l-4.4.25 1.35-1.35 4.05-5q-3.15 3.05-9.25 6.95L61.45 19" fill="url(#au)"/><path d="m68.65 22.6-.5.75h-4.4l.5-.5 4.4-.25" fill="url(#av)"/><path d="m68.15 23.35-1.55 2-3.05 2.85-5.5 1.9-.2-3.15q2.35-1.15 4.5-2.9l4.35-.7h1.45" fill="url(#aw)"/><path d="m55.2 32.5-.15-.7-.1-.15-.2-.1h-1.3q1.95-2.45 2.35-3.75l2.05-.85.2 3.15 5.5-1.9-2.8 2.55-5.55 1.75" fill="url(#ax)"/><path d="m64.2 33.55 6.9-3.35-4.45 4.7-.95.55h-1.4l-2.3-.7 2.2-1.2" fill="url(#ay)"/><path d="m55.1 35.85.3-.35 1.3-.4 1.65-1.95-1.05 1.9 4.15-.6 2.75-.9-2.2 1.2 2.3.7-3.4-.45-.75.2-2.35.5-2.7.15" fill="url(#az)"/><path d="m65.7 35.45-2.05 1.15-3.5-1.4.75-.2 3.4.45h1.4" fill="url(#aA)"/><path d="M65 29.55q1.85.65 4.9-.05-5.1 2.65-9.45 3.95l4.45-3.85.1-.05" fill="url(#aB)"/><path d="m55.4 35.5.2-.2.05-.1v-.15L55.3 33l3.95-1-.9 1.15-1.65 1.95-1.3.4" fill="url(#aC)"/><path d="m52.7 38.55 2.4-2.7 2.7-.15-.65 2.95-4.45-.1" fill="url(#aD)"/><path d="m51.45 40 .35-.4q3.15 1.95 6.7 2.05h-1.55l-1-.05q-2.7-.25-4.5-1.6" fill="url(#aE)"/><path d="m51.8 39.6.9-1.05 2.95.9 5.2-.4-4.2 1.3-.2.25h7.25l1 .5-5.5.55h-.7q-3.55-.1-6.7-2.05" fill="url(#aF)"/><path d="m51.1 42.3.1-.85v-1.2l.25-.25q1.8 1.35 4.5 1.6l-.85 2-1.05.05-2.95-1.35" fill="url(#aG)"/><path d="M31 30.9h-1.45l.4-.5 1.1.2-.05.3m-2.85 3 1 .95h-.05l-.1.25-.9-.7.05-.5m3.4-2.25.35-.25.1-.2q1.3 1.75.45 3.25-1.1 2-2.6 1.1l.1-.3H30q.95.1 1.95-.95.25-1.55-.4-2.65" fill="#08664b"/><path d="m31 30.9.15.5.2.2q-1 .6-1.55 3.25-.15-.15-.35-.15l-.3.15-1-.95.15-1.25 1.25-1.75H31" fill="#098260"/><path d="M29.8 34.85q.55-2.65 1.55-3.25l.2.05q.65 1.1.4 2.65-1 1.05-1.95.95l-.05-.05-.15-.35" fill="#0aeeaf"/><path d="m32 31.2.05-.3-.15-.5-.35-.2-.4.2-.1.2-1.1-.2 2.8-4 1.5 1.75-.15 1.75q-.5-.35-2.1 1.3m-3.9 3.2.9.7-.05.1.1.3.05.05.35.15h.15l.25 2.25-2.1-.8.35-2.75" fill="#c5b2f5"/><path d="m31.35 31.6-.2-.2-.15-.5.05-.3.1-.2.4-.2.35.2.15.5-.05.3-.1.2-.35.25-.2-.05m-2.2 3.25.3-.15q.2 0 .35.15l.15.35v.05l-.1.3q1.5.9 2.6-1.1.85-1.5-.45-3.25 1.6-1.65 2.1-1.3l-.85 5.8q-1.75 1.95-3.1 2.4l-.3-.15-.25-2.25h-.15l-.35-.15-.05-.05-.05-.4.1-.25h.05" fill="#fff"/><path d="m36.35 26.5-2.15-2.1-1.25 1.75 1.8 1.8q-.35 5.4-1.15 8.1-1.5 1.75-2.5 2.1 1.2.2 3.35-1.25 1.3-1.6 1.6-4.2l.3-6.2m.65-.75q.05 5.2-.85 9.8-2.65 3.25-5 3.35-2-.25-3.4-1.45-.25 1.75-.65 1.5.3-5.15 1.2-8.3l.55.3 5.85-8.2v1.45l2.3 1.55m-7.45 5.15-1.25 1.75-.15 1.25-.05.5-.35 2.75 2.1.8.3.15q1.35-.45 3.1-2.4l.85-5.8.15-1.75-1.5-1.75-2.8 4-.4.5" fill="#662c1c"/><path d="m34.75 27.95 1.6-1.45-.3 6.2q-.3 2.6-1.6 4.2-2.15 1.45-3.35 1.25 1-.35 2.5-2.1.8-2.7 1.15-8.1" fill="#b85439"/><path d="m34.75 27.95-1.8-1.8 1.25-1.75 2.15 2.1-1.6 1.45" fill="#78301d"/></g><use ffdec:characterId="2" height="76.1" width="148.1" xlink:href="#aH" id="c"/><use ffdec:characterId="7" height="56.15" width="108.9" xlink:href="#aI" id="d"/><use ffdec:characterId="9" height="71.05" width="59.2" xlink:href="#aJ" id="e"/><use ffdec:characterId="11" height="40.85" width="79.85" xlink:href="#aK" id="f"/><use ffdec:characterId="13" height="97.7" width="99.65" xlink:href="#aL" id="g"/><use ffdec:characterId="15" height="89.2" width="72.35" xlink:href="#aM" id="h"/><use ffdec:characterId="17" height="57.35" width="24.6" xlink:href="#aN" id="i"/><use ffdec:characterId="19" height="101.8" width="130.85" xlink:href="#aO" id="j"/><use ffdec:characterId="21" height="81.65" width="61" xlink:href="#aP" id="k"/><use ffdec:characterId="23" height="82.8" width="56.2" xlink:href="#aQ" id="l"/><use ffdec:characterId="25" height="79.65" width="99.05" xlink:href="#aR" id="m"/><use ffdec:characterId="27" height="69.4" width="75.35" xlink:href="#aS" id="n"/><path d="M-1.8-2.55 20.45-1.5Q29.7-.4 29.7 1.15q0 1.55-9.25 2.6L-1.8 4.9l-22.3-1.15q-9.2-1.05-9.2-2.6t9.2-2.65l22.3-1.05" fill-opacity=".349" fill-rule="evenodd" transform="translate(33.3 2.55)" id="b"/></defs></svg>