<svg xmlns:ffdec="https://www.free-decompiler.com/flash" xmlns:xlink="http://www.w3.org/1999/xlink" ffdec:objectType="frame" height="90" width="90" xmlns="http://www.w3.org/2000/svg"><use ffdec:characterId="18" height="214.8" transform="matrix(.4128 0 0 .4125 -4.396 -.35)" width="229.55" xlink:href="#a"/><defs><g id="a" transform="translate(10.65 .85)"><use ffdec:characterId="1" height="1" transform="translate(101.236 187.286) scale(.8281)" width="1.65" xlink:href="#b"/><use ffdec:characterId="2" height="51.6" transform="translate(79.55 171.2) scale(.8281)" width="135.65" xlink:href="#c"/><use ffdec:characterId="3" height="57.8" transform="translate(97.372 152.272) scale(.8281)" width="46.85" xlink:href="#d"/><use ffdec:characterId="4" height="66.15" transform="translate(129.622 147.122) scale(.8281)" width="44.85" xlink:href="#e"/><use ffdec:characterId="5" height="1.15" transform="translate(200.336 109.986) scale(.8281)" width="1.2" xlink:href="#f"/><use ffdec:characterId="6" height="66.15" transform="translate(70.964 75.172) scale(.8281)" width="28.75" xlink:href="#g"/><use ffdec:characterId="7" height="167.6" transform="translate(-.828 -.828) scale(.8281)" width="240.65" xlink:href="#h"/><use ffdec:characterId="8" height="125.15" transform="translate(81.822 57.572) scale(.8281)" width="126.45" xlink:href="#i"/><use ffdec:characterId="9" height="84.4" transform="translate(170.122 73.85) scale(.8281)" width="51" xlink:href="#j"/><use ffdec:characterId="10" height="42.35" transform="translate(147.422 57.222) scale(.8281)" width="71.95" xlink:href="#k"/><use ffdec:characterId="11" height="88.2" transform="translate(94.672 23.372) scale(.8281)" width="82" xlink:href="#l"/><use ffdec:characterId="12" height="122.85" transform="translate(117.822 96.222) scale(.8281)" width="122.05" xlink:href="#m"/></g><g id="d"><path d="m2.55 9.2 2.9-1.05 3.9-1.05q9.25 0 13.55 7.6 2.8 5.05 2.8 11.45 0 8.15-11.1 8.15-4.65 0-6.7-.85Q6.85 33 4.4 31.4l-1-.9-.65-.75Q0 25.85 0 19.75q0-2.2.35-4 .4-1.8 1.25-4.2.3-1.15.95-2.35m7.7 3.1q-1.45 0-2.75.65-.85.4-1.4.95l-.65.35q-.75.35-1.35.9-1.85 1.85-1.85 5.2 0 2.5 1.85 5.15 2.15 3.1 5.25 3.1 3.2 0 4.95-2.05t1.75-5.85q0-2.95-1.2-5.3-1.55-3.1-4.6-3.1" fill="#3f5074" fill-rule="evenodd" transform="translate(1 1)"/><path d="M10.25 12.3q3.05 0 4.6 3.1 1.2 2.35 1.2 5.3 0 3.8-1.75 5.85T9.35 28.6q-3.1 0-5.25-3.1-1.85-2.65-1.85-5.15 0-3.35 1.85-5.2.6-.55 1.35-.9l.65-.35q.55-.55 1.4-.95 1.3-.65 2.75-.65" fill="#4d6588" fill-rule="evenodd" transform="translate(1 1)"/><path d="m43.8 6.15.1.1-.1-.1.1.05v.05q3.3 11.35-4.95 13.05-.95.25-1.35 1.25-.45 1-.25 1.75l.5 2.6.85 4.8-.15.05-.4.55-1.25 1.3q-2.05 1.85-4.75 2.7l-.8.25-1.3.4-5.5 1.2-6.65.55-4.65-.4q-1.45-.25-2.8-.95L8.05 34 4.4 31.4q2.45 1.6 3.5 2.05 2.05.85 6.7.85 11.1 0 11.1-8.15 0-6.4-2.8-11.45-4.3-7.6-13.55-7.6l-3.9 1.05-2.9 1.05Q3.3 7.8 4.4 6.4L6.85 3l-.1-.4 9.7-1.85L27.6 0q8.65 0 11.3 1.05 2.85 1.05 4.9 5.1" fill="#303d58" fill-rule="evenodd" transform="translate(1 1)"/><path d="m8.05 34 2.4 1.35q1.35.7 2.8.95l4.65.4 6.65-.55 5.5-1.2 1.3-.4.8-.25q2.7-.85 4.75-2.7l1.25-1.3q.6.1.55-.6l1.05 1.55.55 1.9q.2 1.1-.25 2.25-.5 1.1-2 1.9L33 39.25q-3.55 1.2-10.8 1.2l-4.95-.2-4.7-.55h-.45q-3.15-.4-4.3-1.3-.75-.6-.9-1.55v-.2q0-.85.35-1.5l.8-1.15" fill="#a5b0c0" fill-rule="evenodd" transform="translate(1 1)"/><path d="m12.55 39.7 4.7.55 4.95.2q7.25 0 10.8-1.2l5.05-1.95q1.5-.8 2-1.9 1.2.9.45 4.95-.8 4-3.1 6.65-2.15 3.35-4.35 4.45l-3.55.15q0-1.5-1-3.15l-.1-.1v-.05h-.05q-.55-1.05-1.45-1.8-.95-1.2-2.1-1.2l-1.5.25q-.35.25-.75 2.4l-.05.05-.35-1.8q-.25-1.15.4-2.6.65-1.4.95-1.55-.3.15-.95 1.55-.65 1.45-.4 2.6l.35 1.8v.35l-.15 1.7q-.55.3-1.15.55-2.1.8-4.55.8l-3-.25q.5-.15.65-.7l.05-1.35-.25-2.25-.05-.05-.15-.5-.85-1.65q-.45-.5-1.3-.5l-1.1.15-.6.8q-.5.55-.75 1.6-.35 1.05-.4 1.65l-.3-.05-1.6-.15.15-.3.1-.95-.2-1.65q-.25-.9-1.2-1.95-1.3-1.4-2.7-.6l.25-1.05q.3-1.1.95-2.25l.7-.9Q6 37.25 6.9 36.85q.15.95.9 1.55 1.15.9 4.3 1.3h.45M8.9 48.35q-.65-1.05-.7-3.85-.05-1.75 1.55-3.2.85-.85 2.35-1.6-1.5.75-2.35 1.6-1.6 1.45-1.55 3.2.05 2.8.7 3.85" fill="#644335" fill-rule="evenodd" transform="translate(1 1)"/><path d="m29.5 51.6-3.45 2.1q-2.25 1.25-3.3 2.1l-.2-.05-.05-.7q1.4-1.35 2.4-3 2-3.05 2-5.15v-.4q.9.75 1.45 1.8l.05.05.1.1q1 1.65 1 3.15m-15.85-.45h-.05q-.95.05-2.2.9l-.9.65 1.35-2.3q1.2-2.45 1.2-5.45v-.3l.85 1.65.15.5.05.05.25 2.25-.05 1.35q-.15.55-.65.7m-6.65-3-.35.4L2.8 50.6l1.35-2.25q1.7-2.95 1.7-5.05.95 1.05 1.2 1.95l.2 1.65-.1.95-.15.3" fill="#d5cabb" fill-rule="evenodd" transform="translate(1 1)"/><path d="M22.5 55.05q-.25-1.95-.25-4l.1-1 .15-1.7v-.1l.05-.3q.4-2.15.75-2.4l1.5-.25q1.15 0 2.1 1.2v.4q0 2.1-2 5.15-1 1.65-2.4 3m-12-2.35-1.85 1.15-.2-2.05.15-1.4.3-2.05q.05-.6.4-1.65.25-1.05.75-1.6l.6-.8 1.1-.15q.85 0 1.3.5v.3q0 3-1.2 5.45l-1.35 2.3m-7.7-2.1-.75.2-.35-1.7.05-2.25q.1-1.7.45-2.55.35-.9.95-1.6 1.4-.8 2.7.6 0 2.1-1.7 5.05L2.8 50.6" fill="#fff" fill-rule="evenodd" transform="translate(1 1)"/><path d="m43.9 6.25-.1-.1M6.75 2.6l.1.4m1.2 31 2.4 1.35q1.35.7 2.8.95l4.65.4 6.65-.55 5.5-1.2 1.3-.4.8-.25q2.7-.85 4.75-2.7l1.25-1.3.4-.55.15-.05q.05.7-.55.6m-25.6 9.4 4.7.55 4.95.2q7.25 0 10.8-1.2l5.05-1.95q1.5-.8 2-1.9m-17.3 20.4-.2-.05-.05-.7m-8.85-3.9h-.05m-4.7-2.8-.3-.05M6.9 36.85q.15.95.9 1.55 1.15.9 4.3 1.3h.45-.45q-1.5.75-2.35 1.6-1.6 1.45-1.55 3.2.05 2.8.7 3.85.05-.6.4-1.65.25-1.05.75-1.6l.6-.8 1.1-.15q.85 0 1.3.5l.85 1.65.15.5.05.05.25 2.25-.05 1.35q-.15.55-.65.7m-7.8-7.85q.95 1.05 1.2 1.95l.2 1.65-.1.95-.15.3M3.15 42.7q1.4-.8 2.7.6m22.5 5 .05.05.1.1q1 1.65 1 3.15m-1.15-3.3q-.55-1.05-1.45-1.8-.95-1.2-2.1-1.2l-1.5.25q-.35.25-.75 2.4l-.05.3V48l-.35-1.8q-.25-1.15.4-2.6.65-1.4.95-1.55m-1.15 8 .15-1.7v-.1" fill="none" stroke="#3a211b" stroke-linecap="round" stroke-linejoin="round" transform="translate(1 1)"/><path d="M44.8 7.15q-2.05-4.05-4.9-5.1Q37.25 1 28.6 1l-11.15.75-9.7 1.85m.1.4L5.4 7.4q-1.1 1.4-1.85 2.8-.65 1.2-.95 2.35-.85 2.4-1.25 4.2-.35 1.8-.35 4 0 6.1 2.75 10l.65.75 1 .9L9.05 35l-.8 1.15q-.35.65-.35 1.5v.2q-.9.4-1.85 1.65l-.7.9q-.65 1.15-.95 2.25l-.25 1.05q-.6.7-.95 1.6-.35.85-.45 2.55L2.7 50.1l.35 1.7.75-.2 3.85-2.05.35-.4 1.6.15m30.1-18.6-.85-4.8-.5-2.6q-.2-.75.25-1.75.4-1 1.35-1.25 8.25-1.7 4.95-13.05M41.05 36.4q.45-1.15.25-2.25l-.55-1.9-1.05-1.55m1.35 5.7q1.2.9.45 4.95-.8 4-3.1 6.65-2.15 3.35-4.35 4.45l-3.55.15-3.45 2.1q-2.25 1.25-3.3 2.1m-.25-.75q-.25-1.95-.25-4l.1-1q-.55.3-1.15.55-2.1.8-4.55.8l-3-.25m-.05 0q-.95.05-2.2.9l-.9.65-1.85 1.15-.2-2.05.15-1.4.3-2.05" fill="none" stroke="#3a211b" stroke-linecap="round" stroke-linejoin="round" stroke-width="2"/></g><g id="e"><path d="m37.75 15.55 1.6 3.4-1.6-3.4m-32.9-3.2Q8.7 5.1 20.4 1.95 27.6 0 34.85 0q.75 0 6.7 2.85l.4.2.55 2.25q.4 2.4.35 5.1 0 2.75-1.3 5.35l-2.2 3.2 1.2 3.4q.7 1.95.6 6.55-.15 4.6-1.1 7.8l-1.25 4.15q-.3 1.05-.05.9-2.15 2.5-9.9 3.8l-10.35 1.2-2.7-.1-1.45-.3-1.9-.85-2.1-1.7-4.85-4.9-2.3-2.8q.9.65 2.55 1.3 3.4 1.4 6.3 1.4 3.55 0 5.7-1.5 3-3.45 3-8.85 0-1.6-.35-3.15l-.05-.25q-.6-2.35-1.9-4.7Q15.4 15 10.2 15q-2.75 0-5.8 1.2-1.65.65-2.75 1.45Q2.8 15 4.75 12.6l.2-.2-.1-.05" fill="#303d58" fill-rule="evenodd" transform="translate(1 1)"/><path d="m12.45 45.5 1.9.85 1.45.3 2.7.1 10.35-1.2q7.75-1.3 9.9-3.8.2 1.85-.15 3.3-.6 2.7-3.65 3.5l-6.05 1.2-3.95.45-5.5.25-4.1-.25q-2.1-.15-2.8-1.3-.8-1.2-.1-3.4" fill="#a5b0c0" fill-rule="evenodd" transform="translate(1 1)"/><path d="M12.55 48.9q.7 1.15 2.8 1.3l4.1.25 5.5-.25 3.95-.45 6.05-1.2q3.05-.8 3.65-3.5 2.35 6 .4 11.25-2 5.25-5.05 5.4-.7.1-.75-.25.55-1.05.55-2.3 0-1.25-1.05-2.85l-1.35-1.55-.55-.25q-.8-.25-1.75 0-.85.1-1.25.45-.4.2-.65 1.35-.3 1.2-.3 2.5v1.4q-.75.65-1.9.85l-1.05-.2-.7-.15.25-.55.25-1.55q0-1.2-.65-2.45l-.75-.95q-.75-.65-1.75-.65l-.9.1-.45.4-.75 2.3q-.4 1.2-.45 2.05l-.35-.6q-1.5.9-2.5.85l-1.35-.25q-.35-.15-.2-.55l.05-.2.2-.8-.15-1.15-.65-1.7-.35-.4q-.35-.3-1-.65l-1.15-.1Q9.6 54.3 9 55q0-1.2.45-2.7.6-2.15 3.1-3.4m5.1 9.9q-.3-1-.3-2.5 0-2.15.2-2.85.55-1.5 1.9-3-1.35 1.5-1.9 3-.2.7-.2 2.85 0 1.5.3 2.5m11.25-9.05-1.8 3.6q-.85 1.45-.55 4.05l.3 1.4-.3-1.4q-.3-2.6.55-4.05l1.8-3.6" fill="#644335" fill-rule="evenodd" transform="translate(1 1)"/><path d="M1.65 17.65q1.1-.8 2.75-1.45Q7.45 15 10.2 15q5.2 0 8.25 5.35 1.3 2.35 1.9 4.7l.05.25q.35 1.55.35 3.15 0 5.4-3 8.85-2.15 1.5-5.7 1.5-2.9 0-6.3-1.4-1.65-.65-2.55-1.3l-1.25-2.05Q.6 31.55.2 28.85L0 25.5q-.05-3.25.85-5.9l.8-1.95m7.8 13.65q.55-.7.55-1.7 0-1.8-2.15-5.15Q5.8 21.2 4.8 21.2l-.75.55q-.15 0-.35.2l-.5.85q-.3.95-.3 2.3 0 3.5 1.5 5.35 1.35 1.6 3.5 1.6 1.05 0 1.55-.75" fill="#3f5074" fill-rule="evenodd" transform="translate(1 1)"/><path d="M9.45 31.3q-.5.75-1.55.75-2.15 0-3.5-1.6-1.5-1.85-1.5-5.35 0-1.35.3-2.3l.5-.85q.2-.2.35-.2l.75-.55q1 0 3.05 3.25Q10 27.8 10 29.6q0 1-.55 1.7" fill="#4d6588" fill-rule="evenodd" transform="translate(1 1)"/><path d="m8.6 61.6-.15-.5q-.35-1.3-.35-2.6 0-1.9.55-3L9 55q.6-.7 1.55-1.15l1.15.1q.65.35 1 .65-.05 2.8-2.6 5.6l-1.5 1.4m18.25-2.8q0-1.3.3-2.5.25-1.15.65-1.35.4-.35 1.25-.45.95-.25 1.75 0l.55.25q-.25 3.45-1 4.85l-2.45 4.55-.6-1.3q-.35-1.15-.45-2.65v-1.4m-8.85.6q.05-.85.45-2.05l.75-2.3.45-.4.9-.1q1 0 1.75.65l-.75 4.05-3.05 3.45-.35-1.15-.25-1.6.1-.55" fill="#fff" fill-rule="evenodd" transform="translate(1 1)"/><path d="m8.6 61.6 1.5-1.4q2.55-2.8 2.6-5.6l.35.4.65 1.7.15 1.15-.2.8-.05.2-4.75 3.35-.25-.6m22.75-6.85 1.35 1.55q1.05 1.6 1.05 2.85t-.55 2.3q-1.35.25-1.95.6l-1.05.7-1.2.85-1.1.55 2.45-4.55q.75-1.4 1-4.85m-9.05.45.75.95q.65 1.25.65 2.45l-.25 1.55-.25.55-1.9 1.35q-1 .8-2.6 1.3l-.05-.1-.15-.55 3.05-3.45.75-4.05" fill="#d5cabb" fill-rule="evenodd" transform="translate(1 1)"/><path d="m39.35 18.95-1.6-3.4m-32.9-3.2.1.05m7.5 33.1 1.9.85 1.45.3 2.7.1 10.35-1.2q7.75-1.3 9.9-3.8m-26.2 7.15q.7 1.15 2.8 1.3l4.1.25 5.5-.25 3.95-.45 6.05-1.2q3.05-.8 3.65-3.5M12.7 54.6q-.35-.3-1-.65l-1.15-.1Q9.6 54.3 9 55m4.6 3.85.05-.2.2-.8-.15-1.15-.65-1.7-.35-.4m14.15 4.2q0-1.3.3-2.5.25-1.15.65-1.35.4-.35 1.25-.45.95-.25 1.75 0l.55.25 1.35 1.55q1.05 1.6 1.05 2.85t-.55 2.3m-13.75-11q-1.35 1.5-1.9 3-.2.7-.2 2.85 0 1.5.3 2.5l.35.6q.05-.85.45-2.05l.75-2.3.45-.4.9-.1q1 0 1.75.65l.75.95q.65 1.25.65 2.45l-.25 1.55-.25.55m3.65-.5v-1.4l-.3-1.4q-.3-2.6.55-4.05l1.8-3.6m-10.25 13.5.05.1" fill="none" stroke="#3a211b" stroke-linecap="round" stroke-linejoin="round" transform="translate(1 1)"/><path d="m40.35 19.95 2.2-3.2q1.3-2.6 1.3-5.35.05-2.7-.35-5.1l-.55-2.25-.4-.2Q36.6 1 35.85 1 28.6 1 21.4 2.95 9.7 6.1 5.85 13.35m.1.05-.2.2Q3.8 16 2.65 18.65l-.8 1.95q-.9 2.65-.85 5.9l.2 3.35q.4 2.7 1.75 5.2L4.2 37.1l2.3 2.8 4.85 4.9 2.1 1.7q-.7 2.2.1 3.4-2.5 1.25-3.1 3.4Q10 54.8 10 56l-.35.5q-.55 1.1-.55 3 0 1.3.35 2.6l.15.5.25.6 4.75-3.35q-.15.4.2.55l1.35.25q1 .05 2.5-.85m21.1-17.05q-.25.15.05-.9l1.25-4.15q.95-3.2 1.1-7.8.1-4.6-.6-6.55l-1.2-3.4m-.75 26.1q.35-1.45.15-3.3m-5.55 19.7q.05.35.75.25Q38 62.55 40 57.3q1.95-5.25-.4-11.25M24.2 61.7l.7.15 1.05.2q1.15-.2 1.9-.85.1 1.5.45 2.65l.6 1.3 1.1-.55 1.2-.85 1.05-.7q.6-.35 1.95-.6M19.5 63.7l.15.55m.05.1q1.6-.5 2.6-1.3l1.9-1.35m-4.7 2-.35-1.15-.25-1.6.1-.55" fill="none" stroke="#3a211b" stroke-linecap="round" stroke-linejoin="round" stroke-width="2"/></g><g id="g"><path d="M1.35 60.95q4.35 3.3 6.05-.4 1.65-3.7 2-8l.75-7.5q.2-1.6.2-8.05 0-4.3-.55-10.25-.8-8.6-2.25-8.6-.8 0-5.85-3.95 2.8-8 4.55-10.55 1.7-2.6 6-3.55 4.15-.75 7.45 5.35 5.65 12.85-3.45 40.7-1.4 5.05-4.55 11.55l-2.1 4.05q-5 5.15-8.25-.8" fill="#644335" fill-rule="evenodd" transform="translate(5.9 1)"/><path d="M1.7 14.2q5.05 3.95 5.85 3.95 1.45 0 2.25 8.6.55 5.95.55 10.25 0 6.45-.2 8.05l-.75 7.5q-.35 4.3-2 8-1.7 3.7-6.05.4-7.9-1.95-5.8-16.35 2.1-14.4 2.95-17.9l3.2-12.5" fill="#78584b" fill-rule="evenodd" transform="translate(5.9 1)"/><path d="M7.25 61.95q3.25 5.95 8.25.8l2.1-4.05q3.15-6.5 4.55-11.55 9.1-27.85 3.45-40.7-3.3-6.1-7.45-5.35-4.3.95-6 3.55Q10.4 7.2 7.6 15.2L4.4 27.7q-.85 3.5-2.95 17.9-2.1 14.4 5.8 16.35z" fill="none" stroke="#3a211b" stroke-linecap="round" stroke-linejoin="round" stroke-width="2"/></g><g id="h"><path d="m53 79.55.3-.1" fill="none" stroke="red" stroke-linecap="round" stroke-linejoin="round" transform="translate(1 1)"/><path d="M47 123.45q-5.55-7.7-2.1-14.4Q68.4 89.8 99.65 83.8q3.7 1.75 1.75 7.3-3.35 2.45-6.1 7.8l-.85 1.7q-2.9 6.1-2.9 10.1l.4 3.5-2.15 3.7q-.25-2.85-.9-5.8l-1-4.55q0-.85 2.85-5.8l1.45-2.35q-3.9 1.2-9.45 4.15l-1.95 2.9-.25-1.6-8.05 4.55-1.1 2.15-1.4 3-2-2.65q-2.6 1.6-4.55 3.15-4.65 3.8-8.2 9.2l.1.2q1.3 1.95 4.6 4.05 5.1 3.3 6.85 2.7-.35 1.05.15 2.45l-5.3.55-.8-.5-5.65-3.45q-5.95-3.9-7.9-6.1l-.4-.65.1-.05m47.65 6.95.3 1.7.4.65 1.45 3.2.3.8.5 2.65.05.1.1.85.3 2.95-.3-.3-.35-.35-.6-.55-3.75-3-.5-.4q1.75-4.25 2.1-8.3m5.65 19.65.9 3.45-2.8 4.6-2.05 3.4q-1.65 2.25-3.65 2.55l-4.45.95-4.8.6q-2.5 0-4.25-1.25L78 163.2q-1.75-2.1-1.75-4.9 0-2.4 3.3-3.85l-.7 2.35.1.85-.15.7-.25 1.85q0 2.05 2.1 2.8l4.25.5q2.75 0 5.45-1.7 2.55-1.6 4.95-3.85 2.35-2.3 3.6-4.6 1.3-2.3 1.4-3.2v-.1m-14.5 7 .15-.85q0-1.6-4.6-4.8l-.6-.35q2.05-.4 3.9-1.6 1.4.95 1.6 1.5l.55 1.4.35 2.15q0 1.3-.4 1.9l-.95.65" fill="#644335" fill-rule="evenodd" transform="translate(1 1)"/><path d="M66.95 133.65q-.5-1.4-.15-2.45-1.75.6-6.85-2.7-3.3-2.1-4.6-4.05l-.1-.2q3.55-5.4 8.2-9.2 1.95-1.55 4.55-3.15l2 2.65 1.4-3 1.1-2.15 8.05-4.55.25 1.6 1.95-2.9q5.55-2.95 9.45-4.15l-1.45 2.35q-2.85 4.95-2.85 5.8l1 4.55q.65 2.95.9 5.8-3.85 5.5-10.35 9.95-6.45 4.4-12.5 5.8m-1.45-13.4q-1.85.35-1.85 1.6 0 1.05 2.6 3l2.5 1.45.1.1q1.1 1.05 1.8 1.05l1.15-.35h.75q3.65 0 6.7-3.7 1.55-1.9 2.6-4.25.45-.85 3-4 1.5-1.85 1.5-4.7 0-1.7-1.1-1.9-1.2-.2-3 2.1l-1.1 1.25q-.5.45-1.7.85l-2.6.4q-1.9.3-2.25.85l-1.25 2.2q-1 1.7-2 2.2-2.45 1.25-5.85 1.85" fill="#98705f" fill-rule="evenodd" transform="translate(1 1)"/><path d="M65.5 120.25q3.4-.6 5.85-1.85 1-.5 2-2.2l1.25-2.2q.35-.55 2.25-.85l2.6-.4q1.2-.4 1.7-.85l1.1-1.25q1.8-2.3 3-2.1 1.1.2 1.1 1.9 0 2.85-1.5 4.7-2.55 3.15-3 4-1.05 2.35-2.6 4.25-3.05 3.7-6.7 3.7h-.75l-1.15.35q-.7 0-1.8-1.05l-.1-.1-2.5-1.45q-2.6-1.95-2.6-3 0-1.25 1.85-1.6" fill="#c4986f" fill-rule="evenodd" transform="translate(1 1)"/><path d="m91.95 114.2.6 4.25.4 2.25.35 2.15.25 1.55 1.1 6q-.35 4.05-2.1 8.3-3.1-2.7-3.1-4.5l.2-4.3 2.75-3.2 1.15-2.3-1.15 2.3-2.75 3.2.05-.9.2-3.75.05-3.65-.15-3.7 2.15-3.7m-11.2 36.85-.1-.1Q79.2 150 75.8 148l-1.6-.95q-2.75-1.85-4.75-3.95l-2.6-3.1-1.6-2.3q-1.2-1.9-3.6-3.5l5.3-.55q.6 1.4 2.15 3.2l2.8 2.9 2.35 2.2q.75.75 3.25 2.25l.4.25 3.05 2.15q.85.85 3.35 2.6l.35.25q-1.85 1.2-3.9 1.6m-6.55-4q1.85-1 3.7-2.6-1.85 1.6-3.7 2.6M66.85 140l5.05-.25-5.05.25m25.7-21.55q-.7 3.45-2.65 6.8 1.95-3.35 2.65-6.8" fill="#ddcba2" fill-rule="evenodd" transform="translate(1 1)"/><path d="m84.65 149.45-.35-.25q-2.5-1.75-3.35-2.6l-3.05-2.15 4-4.2q3.7-4.45 5.1-8.05l1.45-1.2 1.2-1.1-1.2 1.1-1.45 1.2q-1.4 3.6-5.1 8.05l-4 4.2-.4-.25q-2.5-1.5-3.25-2.25l-2.35-2.2-2.8-2.9q-1.55-1.8-2.15-3.2 6.05-1.4 12.5-5.8 6.5-4.45 10.35-9.95l.15 3.7-.05 3.65q-2.25 3.85-6.2 7.6l-3.6 2.95q3.6-1.2 6.9-3.6-3.3 2.4-6.9 3.6-4.05 3-8.2 3.95 4.15-.95 8.2-3.95l3.6-2.95q3.95-3.75 6.2-7.6l-.2 3.75-.05.9-.2 4.3q0 1.8 3.1 4.5l-1.7 3.45q-2.8 5.05-6.2 7.3" fill="#f3ede0" fill-rule="evenodd" transform="translate(1 1)"/><path d="m97.65 139.5 2.65 10.55v.1q-.1.9-1.4 3.2-1.25 2.3-3.6 4.6-2.4 2.25-4.95 3.85-2.7 1.7-5.45 1.7l-4.25-.5q-2.1-.75-2.1-2.8l.25-1.85.15-.7q.25.85 1 1.35 1 .6 2.4.6 1.35 0 2.45-1.1l1-1.45.95-.65q.4-.6.4-1.9l-.35-2.15-.55-1.4q-.2-.55-1.6-1.5 3.4-2.25 6.2-7.3l1.7-3.45.5.4 3.75 3 .6.55.35.35.3.3-.3-2.95-.1-.85" fill="#78584b" fill-rule="evenodd" transform="translate(1 1)"/><path d="m94.65 130.4.3 1.7.4.65 1.45 3.2.3.8.5 2.65.05.1 2.65 10.55.9 3.45m-22.35 3.3.1.85M89.8 117.9l2.15-3.7m-25 19.45-5.3.55m23 15.25q3.4-2.25 6.2-7.3l1.7-3.45q1.75-4.25 2.1-8.3m-5-.5-1.2 1.1-1.45 1.2q-1.4 3.6-5.1 8.05l-4 4.2q-1.85 1.6-3.7 2.6m-2.3-7.3-5.05.25m.1-6.35q6.05-1.4 12.5-5.8 6.5-4.45 10.35-9.95m.1 7.35q1.95-3.35 2.65-6.8M87 132.2q-3.3 2.4-6.9 3.6-4.05 3-8.2 3.95m17.75-9.85 2.75-3.2 1.15-2.3m-3.65.85q-2.25 3.85-6.2 7.6l-3.6 2.95m.65 15.25q2.05-.4 3.9-1.6" fill="none" stroke="#3a211b" stroke-linecap="round" stroke-linejoin="round" transform="translate(1 1)"/><path d="M48 124.45q-5.55-7.7-2.1-14.4Q69.4 90.8 100.65 84.8q3.7 1.75 1.75 7.3-3.35 2.45-6.1 7.8l-.85 1.7q-2.9 6.1-2.9 10.1l.4 3.5.6 4.25.4 2.25.35 2.15.25 1.55 1.1 6m6.55 23.1-2.8 4.6-2.05 3.4q-1.65 2.25-3.65 2.55l-4.45.95-4.8.6q-2.5 0-4.25-1.25L79 164.2q-1.75-2.1-1.75-4.9 0-2.4 3.3-3.85l-.7 2.35m.1.85q.25.85 1 1.35 1 .6 2.4.6 1.35 0 2.45-1.1l1-1.45.15-.85q0-1.6-4.6-4.8l-.6-.35-.1-.1Q80.2 151 76.8 149l-1.6-.95q-2.75-1.85-4.75-3.95l-2.6-3.1-1.6-2.3q-1.2-1.9-3.6-3.5l-.8-.5-5.65-3.45q-5.95-3.9-7.9-6.1l-.4-.65" fill="none" stroke="#3a211b" stroke-linecap="round" stroke-linejoin="round" stroke-width="2"/><path d="M193.65 17.05q0-.1-2.7-1.9-2.7-1.8-3-1.8l-.4 2.55-1.75 5.85q-1.3 4.55-1.3 5.25l-.05.35.05-.05q2.8-4.2 4-5.4 1.15-1.25 5.15-4.85m-2.5 4.4V22l.2-.2q0-.4-.2-.35m-36.4 4 13-.6v-.9l11.7 5.75-5.35-18.05h13.25l10.15 4.9-1.75-14.35 10.75 9.2L217.3 0v5.05h1.35l3.45 4.15 12.6-4.15-7 10.65-6.85-2.3-6.1 2.8 23.9 3.05-24.85 7.3.7-7.8-3.4 5.6q-1.6-1.7-6.65-4.2v.25l3.85 2.9 2.35 1.8.85 6.3-9.3-12.8-17 12.8-2.15 13.6-10.4-13.7-11.05 10.75 9.7 9.75-17.65 2.45-1.55-8.85-.65 2.55q0 2.15-3.05 11.15l-1.85 5.35-.35.95-.15.65-.25.6-.4 1-.95.15h.05l-1.5.3-4.1.6-4.75.9-4.25.45-2.9.2q2-2.75 3.45-7.15l2.55-7.2.3-.95h.05q8-9.05 12.75-17.4l8.65-12.1-6.55 10.7 9.85 3.4-3.3-14.1M133 55.9l-2.2 7.25q-.4 1.4-.25 1.7 1.05-.6 3.1-.55 1.95 0 5.1 1.15 3.15 1.1 5.9 1.65.8-.5-3.55-4.85T133 55.9m84.3-43.85v-7 7M159.5 45.1l-1.55 2.6-.8 1.75-.2.45q.2-.15 1.35-.6l3.9.15 4.85 1.2 1.65.05q-.6-1.85-3.1-4.1l-4.5-3.45q-.45.2-1.6 1.95m61.75-14.5v13.65L213 33.35l8.25-2.75M.25 137.7H0l14.45-22.25q.85-1.3 3.45-4.05l1.7-1.8.55 1.55.35 1.4v.75l-9.65 14.4-.55.9-.05.05h-.1q-4.9 4.2-9.9 9.05m72-57.85 10.35-6.7.85-.75.65 2.15h14.05l-7.8-8.5h7.3l4.15 1.45 12.35-1.85-1.4 7.25-6.75 7.9-14.45 5.75 3.8-7.8q0-.3-.05-.1-1.25 1.2-3.75 5.1l-2.05 3.6-1.85.7-15.4-8.2M132 54.05l-4.4-10.1-3.1-6.5h21.6v.1l-.1.15q-3.15 4.45-5.05 6.5l-3.5 3.9-2.9 3.5-1.95 1.9-.6.6v-.05m7.5-5.7v.3l.1.05h.35l8.7-5.35-.6-1.2q-.6-1.1-.6-2.05l.6-1.95q0-.4-.15-.2-.85.45-1.85 2.1l-1.8 2.9q-4.75 5.05-4.75 5.4m3.05 25.15q0-.35.75-.75l1.15-.6.9-.7q.65-.4 1.2.15l1.45 1.75 1.05 1.45-.4.25q-1.1 0-3.2-.75l-1.75-.2q-1.15-.2-1.15-.6m-20.4-19.3 5.7.4 3.65.35h.45l.15.05-.5 1.8-2.85 7.4-2.05 4.95-3.75 1.35-8.45 2.25 1.2-6.6 6.45-9.9-8 9.4-6.95-9.4h14.95V54.2m-26.9 27.05.55.15 8.05-1.55q0-.65-2.45-1.7-2.3-.95-2.85-.85-.55.2-2.05 1.8l-1.4 1.65.15.5m64.9-15.4 5.95-8.55 5.2 8-11.15.55M198.7 55.7l-13.9-4.95 12.75-6.45 1.15 11.4M24.85 121.9l.8-.9 2.05-3.5q1.75-3 1.85-4.2-1.35 1.9-3.35 3.3-2.05 1.4-3.3 2.7l-3.05 2.6-2.8 1.9-1.8 1q-1.55.8-4.4 2.9l10.05-13.5 8.55-1.05 9.65-2.35 10.45 4.9-17.2 6.2h-7.5" fill="#97a6b5" fill-rule="evenodd" transform="translate(1 1)"/><path d="m174.1 11.65 5.35 18.05-11.7-5.75v.9l-13 .6-8.65 12.1v-.1h-21.6l3.1 6.5 4.4 10.1-.05.05-.15-.15-1.85-3.35-3.45-6.5q-2.35-4.55-2.65-6.8l-2.7 15h-3.95l5.35-17 23.35 1.65 8-13h13.85l6.35-12.3m64.55 7.6-23.9-3.05 6.1-2.8 6.85 2.3 10.95 3.55m-3.95-14.2L222.1 9.2l-3.45-4.15h16.05m-47.35 6.6L195.2.15l4.95 4.15L217.3 0l-14.35 7.25 2.85 3 .7 1.15-10.75-9.2 1.75 14.35-10.15-4.9m12.8-7.35 2.8 2.95-2.8-2.95M19.6 109.6l.7-.7h.85v4.25h8.3l-8.55 1.05-10.05 13.5 9.65-14.4v-.75l-.35-1.4-.55-1.55m63.85-37.2 6.9-6.35 7.8 8.5H84.1l-.65-2.15m13-6.35L104 54.2h18.15v2.05H107.2l6.95 9.4-12.35 1.85-4.15-1.45h-1.2" fill="#fff" fill-rule="evenodd" transform="translate(1 1)"/><path d="M146.1 37.55q-4.75 8.35-12.75 17.4h-.05l-.3.95-2.55 7.2Q129 67.5 127 70.25l2.9-.2 4.25-.45 4.75-.9 4.1-.6 1.5-.3h-.05l.95-.15.4-1 .25-.6.15-.65.35-.95 1.85-5.35q3.05-9 3.05-11.15l.65-2.55 1.55 8.85 17.65-2.45-9.7-9.75L183.05 45l2.15-13.6 17.35 9.85 8.95-9.85-.85-6.3-2.35-1.8-3.85-2.9v-.25q5.05 2.5 6.65 4.2l3.4-5.6-.7 7.8 24.85-7.3-15.2 12.15-1.6 16.25-18.55-4.9-3.1 15.6-21.45-3.4 4.1-4.2-9.35 4.2h-5.2l5.8 2.1-1.75 11.4-16.3-.1 9.3-13.4-11.9 1.65-7.25 11 6.5-7.15-3.1 16.05-9.2-1.6-1.75-.95-.05.1-.25-.2-.7-.6h-.5l-2.2-.1-2.75.15-.4 2.5-.3 1.6-.1 1.05.1.35v1.45L115.05 80l-5.55 8.8-15.65 4.35-14.05 9.15q5.1-3.65 5.95-4.55L37.7 124l-5.35-2.1-1.15 6.25L.25 137.7q5-4.85 9.9-9.05h.1l.05-.05.4-.25 11.1-4.85 3.05-1.6h7.5l17.2-6.2-10.45-4.9-7.85-4.7 1.15-.75 39.85-25.5 15.4 8.2 1.85-.7 2.05-3.6q2.5-3.9 3.75-5.1.05-.2.05.1l-3.8 7.8L106 80.8l6.75-7.9 1.4-7.25 8-9.4-6.45 9.9-1.2 6.6 8.45-2.25 3.75-1.35 2.05-4.95 2.85-7.4.5-1.8-.15-.05q.2-.15-.15-1l.15.15h.05l.6-.6 1.95-1.9 2.9-3.5 3.5-3.9q1.9-2.05 5.05-6.5l.1-.15m75.15-6.95L213 33.35l8.25 10.9V30.6m-78.7 42.9q0 .4 1.15.6l1.75.2q2.1.75 3.2.75l.4-.25-1.05-1.45-1.45-1.75q-.55-.55-1.2-.15l-.9.7-1.15.6q-.75.4-.75.75m-10.2 4.15v-.15l.1.15h-.1m27.8-11.8 11.15-.55-5.2-8-5.95 8.55M198.7 55.7l-1.15-11.4-12.75 6.45 13.9 4.95" fill="#53698a" fill-rule="evenodd" transform="translate(1 1)"/><path d="m154.75 25.45 3.3 14.1-9.85-3.4 6.55-10.7M206.5 11.4l-.7-1.15-2.85-3L217.3 0l-10.8 11.4M21.15 108.9l2.8-.35 3.75-.5.45-.15q.55-.35 1.35-.75.2-.2.5-.3l.45-.3q.35-.2.8-.45l7.85 4.7-9.65 2.35h-8.3v-4.25m110.8-54.8.05-.05v.05h-.05M10.3 128.6l.55-.9q2.85-2.1 4.4-2.9l1.8-1 2.8-1.9 3.05-2.6q1.25-1.3 3.3-2.7 2-1.4 3.35-3.3-.1 1.2-1.85 4.2l-2.05 3.5-.8.9-3.05 1.6-11.1 4.85-.4.25" fill="#c1d0df" fill-rule="evenodd" transform="translate(1 1)"/><path d="M191.15 21.45q.2-.05.2.35l-.2.2v-.55m2.5-4.4q-4 3.6-5.15 4.85-1.2 1.2-4 5.4l-.05.05.05-.35q0-.7 1.3-5.25l1.75-5.85.4-2.55q.3 0 3 1.8t2.7 1.9M133 55.9q3.75 2 8.1 6.35t3.55 4.85q-2.75-.55-5.9-1.65-3.15-1.15-5.1-1.15-2.05-.05-3.1.55-.15-.3.25-1.7l2.2-7.25m28.6-13.85 11.05-10.75 10.4 13.7-21.45-2.95m23.6-10.65 17-12.8 9.3 12.8h-26.3m-25.7 13.7q1.15-1.75 1.6-1.95l4.5 3.45q2.5 2.25 3.1 4.1l-1.65-.05-4.85-1.2-3.9-.15q-1.15.45-1.35.6l.2-.45.8-1.75 1.55-2.6m-42.95 9.1.65-1.9h3.95l2.7-15q.3 2.25 2.65 6.8l3.45 6.5 1.85 3.35q.35.85.15 1h-.45l-3.65-.35-5.7-.4h-5.6m22.95-5.85q0-.35 4.75-5.4l1.8-2.9q1-1.65 1.85-2.1.15-.2.15.2l-.6 1.95q0 .95.6 2.05l.6 1.2-8.7 5.35h-.35l-.1-.05v-.3m-44.25 32.9-.15-.5 1.4-1.65q1.5-1.6 2.05-1.8.55-.1 2.85.85 2.45 1.05 2.45 1.7L95.8 81.4l-.55-.15" fill="#bac5cd" fill-rule="evenodd" transform="translate(1 1)"/><path d="m172.35 68.45 1.75-11.4-5.8-2.1h5.2l9.35-4.2-4.1 4.2 21.45 3.4 3.1-15.6 18.55 4.9 1.6-16.25 15.2-12.15-11.45 13.4-5.35 15h-15.5l-6.15 10.7h-17.95l-9.9 10.1m-16.3-.1-6.45 8.15 3.1-16.05-6.5 7.15 7.25-11 11.9-1.65-9.3 13.4M140.4 74.9l-8.9 5.35V78.8l-.1-.35.1-1.05.3-1.6.4-2.5 2.75-.15 2.2.1h.5l.7.6.25.2.05-.1 1.75.95m-60.6 27.4L30 134.4.25 137.7l30.95-9.55 1.15-6.25 5.35 2.1 48.05-26.25q-.85.9-5.95 4.55m52.55-24.65h.1l-.1-.15v.15" fill="#324856" fill-rule="evenodd" transform="translate(1 1)"/><path d="m211.5 31.4-8.95 9.85-17.35-9.85h26.3" fill="#798c9f" fill-rule="evenodd" transform="translate(1 1)"/><path d="m228.7 16.7 7-10.65h-17.4V1l-17.15 4.3-4.95-4.15-7.85 11.5H175.1l-6.35 12.3H154.9l-8 13-23.35-1.65-5.35 17-.65 1.9H105l-7.55 11.85h-6.1l-6.9 6.35-.85.75-10.35 6.7-39.85 25.5-1.95 1.2-.45.3m208.65-87.6L228.7 16.7m10.95 3.55-11.45 13.4-5.35 15h-15.5l-6.15 10.7h-17.95l-9.9 10.1-16.3-.1-6.45 8.15-9.2-1.6-8.9 5.35-16.45-.25-5.55 8.8-15.65 4.35-14.05 9.15L31 135.4l-29.75 3.3H1l14.45-22.25q.85-1.3 3.45-4.05l1.7-1.8.7-.7h.85l2.8-.35 3.75-.5.45-.15q.55-.35 1.35-.75" fill="none" stroke="#1d2530" stroke-linecap="round" stroke-linejoin="round" stroke-width="2"/><path d="m220.85 13.4 6.85 2.3M217.3 5.05v7m-14.35-4.8 2.85 3m-2.85-3-2.8-2.95m-78 49.9h-5.6m-18.9 11.85h-1.2" fill="none" stroke="#1d2530" stroke-linecap="round" stroke-linejoin="round" transform="translate(1 1)"/><path d="M70.4 71.75q1.95-1.3 4.2-1.35 3.55 0 8 2.75l1.55 2.05.3.3q.1.5.9 2.25t1.2 4.6q.35 2.9-.45 6.3l-.15 1.4q-.6 4.25-3.3 9.25l-.3.55-.15-.25-7.95-13.45q-4.7-8.05-6.15-9.25-1.5-1.25 2.3-5v-.15M37.15 90.8l.15-.15 2.75-.7 3 .15 3.1 1.1L51 93.95l.05.1.1.05.05.05q1.3 1.25 2 2.6l1.1 1.95q.35.7.7 3.2l.4 3.8v2.05l-.2 2.7q-3.35-2.1-4.5-2.7l-3.95-1.55-4.7-1.7q-1.85-.75-2.8-.95-.9-.2-3.1-1.4l-3.35-1.85q-1.05-.6-.85-1.95.25-1.4 1.1-2.8.85-1.5 4.1-4.75M55.4 78.75l3.9-.95q1.3 0 3.5.85 1.9.55 2.65 1.2V80h.15l1 1.1q1.05.9 3.1 3.6l.9 1.15.6 1.95.65 5.45q.35 4.3-.1 8-.35 2.65-1.25 4.75l-.7 1.5-.7-.7-2.2-2.9-1.4-2-4.15-5.3-3.4-3.35q-2.95-2.55-4.1-2.9-1.3-.35-2.3-2.75L50.4 85q-.4-.7.3-2.6.7-1.95 4.7-3.35v-.3m27.85.5q-.1-4.05-3.85-6.2-3.8-2.2-6.45-1.4-2.65.75-2.2 2.25.4 1.5 1.05 1.95.55.4.75.95l3.4 5.2q3.45 4.85 3.75 7.85l1.35 3.5q1.9-6.2 2.05-8.1l.15-6m-44.3 14.7q-1.65 0-2.4.85-.7.75-.95 2.7l11.9 5.95q-.15-.6.5-2.45l.7-1.95q0-.9-3.05-2.2-4.25-1.9-5.4-2.7l-1.3-.2m25.6-11.2Q60.7 80 60.1 80l-1.95-.05-2.35.25-2.6.9q-1.55.7.1 1.4l3.05 1.4q1.45.8 5.85 6 4.4 5.15 7.05 9.9l.55-8.25q.15-3.1-.65-4.55-.8-1.45-4.6-4.25" fill="#98705f" fill-rule="evenodd" transform="translate(1 1)"/><path d="M84.45 75.5q3.45 4.85 3.45 7l-.25 5.55-.1.9-.75 5.75-.85 2.85-.55 1.1-.85 1.7-1.8 3.2-1.95 2.9-.25-1.6-.75-2.55-.6-.95-.05-.1-2.4-3q-1.5-1.5-3.6-2.9l.2 4.7v4.4l-.1 2.05-.1.25-.65 2.65-1.1 2.15-1.4 3-2-2.65-1.2-1.25-1.15-1.1-.65-.5-2.4-2.2-6.75-6.4q.9 3.2 1.85 9.75l.05.5-.15 2.35-.3 3.45q-.25 2.95-.65 3.5l-1.35-1.5-.25-.2-2.4-2.5-.15-.15-1.25-1.1q-2.5-2.05-4.5-3-2.15-1.75-6.45-3.8l-.1-.05q-4.15-1.95-7.4-2.65l-1.55 1.05-1.75 1.05q-.15-1.55.75-5.8.75-4.25 1.55-5.3 1.3-2.5 5.25-5.35l.1.1q-3.25 3.25-4.1 4.75-.85 1.4-1.1 2.8-.2 1.35.85 1.95l3.35 1.85q2.2 1.2 3.1 1.4.95.2 2.8.95l4.7 1.7 3.95 1.55q1.15.6 4.5 2.7l.2-2.7v-2.05l-.4-3.8q-.35-2.5-.7-3.2l-1.1-1.95q-.7-1.35-2-2.6l-.05-.05-.1-.05-.05-.1-4.85-2.75q.75-3.5 1.9-6 1.15-2.55 2.2-4.1.45-.75 3.5-1.85l.9-.3.75-.2v.3q-4 1.4-4.7 3.35-.7 1.9-.3 2.6l1.15 2.6q1 2.4 2.3 2.75 1.15.35 4.1 2.9l3.4 3.35 4.15 5.3 1.4 2 2.2 2.9.7.7.7-1.5q.9-2.1 1.25-4.75.45-3.7.1-8l-.65-5.45-.6-1.95-.9-1.15q-2.05-2.7-3.1-3.6l-1-1.1-.15-.1v-.05q-.35-2.85 2.6-6.05 1.1-1.25 2.3-2l.05.1q-3.8 3.75-2.3 5 1.45 1.2 6.15 9.25L82.2 99.6l.15.25.3-.55q2.7-5 3.3-9.25l.15-1.4q.8-3.4.45-6.3-.4-2.85-1.2-4.6-.8-1.75-.9-2.25M51.2 94.15q3.25 2.6 4.1 4.75l.55 1.55-.55-1.55q-.85-2.15-4.1-4.75m21.95 1.2-.25-3-.7-3.7q-.35-1.05-1.6-2.8 1.25 1.75 1.6 2.8l.7 3.7.25 3" fill="#644335" fill-rule="evenodd" transform="translate(1 1)"/><path d="m83.25 79.25-.15 6q-.15 1.9-2.05 8.1l-1.35-3.5q-.3-3-3.75-7.85l-3.4-5.2q-.2-.55-.75-.95-.65-.45-1.05-1.95-.45-1.5 2.2-2.25 2.65-.8 6.45 1.4 3.75 2.15 3.85 6.2m-44.3 14.7 1.3.2q1.15.8 5.4 2.7 3.05 1.3 3.05 2.2L48 101q-.65 1.85-.5 2.45L35.6 97.5q.25-1.95.95-2.7.75-.85 2.4-.85m25.6-11.2q3.8 2.8 4.6 4.25.8 1.45.65 4.55l-.55 8.25q-2.65-4.75-7.05-9.9-4.4-5.2-5.85-6l-3.05-1.4q-1.65-.7-.1-1.4l2.6-.9 2.35-.25 1.95.05q.6 0 4.45 2.75" fill="#c4986f" fill-rule="evenodd" transform="translate(1 1)"/><path d="m70.6 85.85-.9-1.15q-2.05-2.7-3.1-3.6l-1-1.1M51.05 94.05l-.05-.1-4.85-2.75m24.45-5.35q1.25 1.75 1.6 2.8l.7 3.7.25 3m-17.3 5.1-.55-1.55q-.85-2.15-4.1-4.75" fill="none" stroke="#3a211b" stroke-linecap="round" stroke-linejoin="round" transform="translate(1 1)"/><path d="M71.4 72.75q1.95-1.3 4.2-1.35 3.55 0 8 2.75l1.55 2.05.3.3q3.45 4.85 3.45 7l-.25 5.55-.1.9-.75 5.75-.85 2.85-.55 1.1-.85 1.7-1.8 3.2-1.95 2.9-.25-1.6-.75-2.55-.6-.95-.05-.1-2.4-3q-1.5-1.5-3.6-2.9l.2 4.7v4.4l-.1 2.05-.1.25-.65 2.65-1.1 2.15-1.4 3-2-2.65-1.2-1.25-1.15-1.1-.65-.5-2.4-2.2-6.75-6.4q.9 3.2 1.85 9.75l.05.5-.15 2.35-.3 3.45q-.25 2.95-.65 3.5l-1.35-1.5-.25-.2-2.4-2.5-.15-.15-1.25-1.1q-2.5-2.05-4.5-3-2.15-1.75-6.45-3.8l-.1-.05q-4.15-1.95-7.4-2.65l-1.55 1.05-1.75 1.05q-.15-1.55.75-5.8.75-4.25 1.55-5.3 1.3-2.5 5.25-5.35m.25-.05 2.75-.7 3 .15 3.1 1.1q.75-3.5 1.9-6 1.15-2.55 2.2-4.1.45-.75 3.5-1.85l.9-.3.75-.2 3.9-.95q1.3 0 3.5.85 1.9.55 2.65 1.2-.35-2.85 2.6-6.05 1.1-1.25 2.3-2M66.6 81h-.15v-.15m0 .05.15.1" fill="none" stroke="#3a211b" stroke-linecap="round" stroke-linejoin="round" stroke-width="2"/></g><g id="i"><path d="m3.95 21.45.45-.9.45-.75q5.65-9.45 20.7-15.4 34.85-9.7 64.6 2l2.4.9q.65 1.75 1.1 5.3.5 3.15 3.25 6.85l-1.05 10 .05.5Q94 38.2 89.95 44q-1.8 2.6-5.4 6.1-2.7 2.65-6.45 5.75-1.7 1.4-6 3.55l-7.4 3.8q-9.1 5.1-9.1 11.6 0 1.3.3 2.25l.25.5L54.3 77l-.7-.55q-.85-.8-.85-2.1L53.2 72q-1.15-2.05-2.35-2.05-2.55 0-5.05 3.2-2.5 3.05-2.5 5.8 0 4.25 4 4.25l2-.4.75-.2.05.15-.45.45-1.2.75-3.4.4q-2.5 0-4.15-1-2.4-1.4-2.4-5.05V78q.05-1.6.5-3.1l.85-2.45.65-3.7v-.25l-.1.2-4.8 6.05q-1.65 1.85-4.1 3 .5-1.4.5-3.8l-.1-2.4q-.2-.75-1.05-1.15-13.4-3.8-20.95-13.55-7.6-9.75-7.7-17.2-.05-7.55.65-12.05.65-4.45 1.1-6.15" fill="#dabfa5" fill-rule="evenodd" transform="translate(1 1)"/><path d="M31.5 77.75q2.45-1.15 4.1-3l4.8-6.05.1.05-.65 3.7q-.25.65-3.5 4.2L34.5 78.4q-1.65 1.4-3.2 2l-1.65.3h-.05v-.25q1.4-1.55 1.8-2.6l.1-.1m18.55 4.85-.75.2-2 .4q-4 0-4-4.25 0-2.75 2.5-5.8 2.5-3.2 5.05-3.2 1.2 0 2.35 2.05-1.9-.15-4 2.55-1.95 2.55-1.95 4.45l.2 1.6.4 1.1.3.45 1.9.4v.05m6.1-5.05-.25-.5q-.3-.95-.3-2.25 0-6.5 9.1-11.6l7.4-3.8q4.3-2.15 6-3.55 3.75-3.1 6.45-5.75 3.6-3.5 5.4-6.1Q94 38.2 95.9 29.95l.1-.45h-.05l-.1-.05 1.05-10q-2.75-3.7-3.25-6.85-.45-3.55-1.1-5.3l7.2 2.85q2.15 5.85 2.3 9.35l.1 5.45q0 6.45-2.6 12.55-1 2.3-2.4 4.6l-1.45 2.35-2.45 3.2q-2.45 3.05-5.35 5.6l-4.25 3.55-3.2 2.3-7.75 4.5q-5.65 2.7-6.8 3.35-7.05 3.7-8.1 7.4l-.15.7-.1.6.25 1.3.25.9-1.9-.3" fill="#dab783" fill-rule="evenodd" transform="translate(1 1)"/><path d="m99.75 10.15 4.2 1.6q4.65 1.8 8.8 3.95l2.3 3.05q4.25 7.15 1 16.75-4.4-3.15-8.6-1.8l-2 .85q-3.85 2.05-5.9 2.95 2.6-6.1 2.6-12.55l-.1-5.45q-.15-3.5-2.3-9.35" fill="#462720" fill-rule="evenodd" transform="translate(1 1)"/><path d="m95.9 29.95-.05-.5.1.05H96l-.1.45m-64.5 47.9v-.1h.1l-.1.1" fill="#fff" fill-rule="evenodd" transform="translate(1 1)"/><path d="M116.05 35.5q-1.9 5.45-6.25 11.7-3.55 5.6-8.05 20.6-4.5 15-5.15 19.6-.6 4.55-.15 7.3l.4 2.85q-2.5 2.75-15.15 5.6l-6.1 1.25-5.75 1.05-2.8.45 2.3-4.45q3.85-2.9 6.95-10.1 1.5-3.55 2.85-8.05l6.75-23.9-3 1.85.75-4.45 4.25-3.55q2.9-2.55 5.35-5.6l2.45-3.2 1.45-2.35q1.4-2.3 2.4-4.6 2.05-.9 5.9-2.95l2-.85q4.2-1.35 8.6 1.8" fill="#644335" fill-rule="evenodd" transform="translate(1 1)"/><path d="M112.75 15.7q3.6 1.9 6.85 4.15 12.45 8.5-7.1 33.4-6.25 9.4-10.2 20.25-4.25 11.55-5 22.1l-.15 1.4-.3.55-.4-2.85q-.45-2.75.15-7.3.65-4.6 5.15-19.6 4.5-15 8.05-20.6 4.35-6.25 6.25-11.7 3.25-9.6-1-16.75l-2.3-3.05" fill="#604b92" fill-rule="evenodd" transform="translate(1 1)"/><path d="M97.3 95.6q1.25.55 1.4 1.9.25 1.15.15 3.2l-.05.75q-.15 2.25.4 4.15v.05l-.15.2q-1.25 4-15.85 8.55-9.65 3-16.25 4.1 6.6-1.1 16.25-4.1 14.6-4.55 15.85-8.55l.15.15q.6 1.9.6 2.9 0 1.1-.85 2.05l-1.8 1.85-2.2 1.8-6.35 2.95q-5 2.2-11.95 3.35l-11.4 1.65-5.25.4q4.3-2 6.95-4.45l.4-.5q2.2-2.2 3.05-5.05.45-1.65.45-3.55 0-2.1-.35-2.95l-.65-1 5.75-1.05 6.1-1.25q12.65-2.85 15.15-5.6l.3-.55.15-1.4m-69.6 24.85q-1.95-.8-3.8-1.9-1.85-2.85-3.85-7.7-1-2.3-1.45-3.85l-.1-.3-.45-2.2q0-1.5.15-2.05.25-.7 1.3-1.1.85 1.2 4 2.3-2.3.85-2.3 2.9 0 1.6.8 3.9.7 2.15 2.2 4.95 1.55 2.85 3.5 5.05m42.7-7.5 2.05-.4q15.2-2.9 25.2-10.8l1.2-1.05-1.2 1.05q-10 7.9-25.2 10.8l-2.05.4m-48.4-2.5-.5-.35q-2.4-1.6-2.9-3.1.5 1.5 2.9 3.1l.5.35" fill="#5e1111" fill-rule="evenodd" transform="translate(1 1)"/><path d="M3.95 21.45q-.45 1.7-1.1 6.15-.7 4.5-.65 12.05.1 7.45 7.7 17.2 7.55 9.75 20.95 13.55.85.4 1.05 1.15l.1 2.4q0 2.4-.5 3.8h-.1v.1q-.4 1.05-1.8 2.6v.25h.05l1.65-.3q1.55-.6 3.2-2l1.15-.2 2.85-.2v.3q0 3.65 2.4 5.05 1.65 1 4.15 1l3.4-.4 1.2-.75.45-.45.15-.2.15-.05.1-.05-.45.1-1.9-.4-.3-.45-.4-1.1q.4-.9 1.95-2.3 2.2-1.85 3.75-1.85h.45l.7.55 1.85.55 1.9.3-.25-.9-.25-1.3.1-.6.15-.7q3.85-3.4 8.8-5.75l9.8-4.1q3.3-1.35 6.5-3.25-3.1 17.05-10.2 33.2-3.5 2.6-8.1 4.6-4.65 2-10.15 3.25-5.5 1.1-8.35 1l-4.9-.35q-2-.25-6.05-1.5-4-1.25-6.2-2.9l-3.4-2.5L22 93.5l-3.5-2.6-2.2-2.35q-3.6-7.1-7.35-17.45Q4.05 57.5.1 38.7q.5-10.55 3.85-17.25" fill="#ccae91" fill-rule="evenodd" transform="translate(1 1)"/><path d="m19.5 101.35-3.9-8.75-5.75-12.45q-2.7-5.85-6.3-17.9Q0 50.2 0 42.75l.1-4.05q3.95 18.8 8.85 32.4 3.75 10.35 7.35 17.45l2.3 4.15q4.65 7.9 7.55 11.7l-2.65-.75q-3.15-1.1-4-2.3" fill="#96622e" fill-rule="evenodd" transform="translate(1 1)"/><path d="M39.85 72.45 39 74.9q-.45 1.5-.5 3.1l-2.85.2-1.15.2 1.85-1.75q3.25-3.55 3.5-4.2M53.2 72l-.45 2.35q0 1.3.85 2.1h-.45q-1.55 0-3.75 1.85-1.55 1.4-1.95 2.3l-.2-1.6q0-1.9 1.95-4.45 2.1-2.7 4-2.55m29.7-10.75q-3.2 1.9-6.5 3.25l-9.8 4.1q-4.95 2.35-8.8 5.75 1.05-3.7 8.1-7.4 1.15-.65 6.8-3.35l7.75-4.5 3.2-2.3-.75 4.45m-13.55 40.2-2.3 4.45-3.55.45-5.85.5-.7.1q-11 .75-23.3-1.1l-7.5-1.45q-2.9-3.8-7.55-11.7l-2.3-4.15 2.2 2.35 3.5 2.6 3.55 2.55 3.4 2.5q2.2 1.65 6.2 2.9 4.05 1.25 6.05 1.5l4.9.35q2.85.1 8.35-1 5.5-1.25 10.15-3.25 4.6-2 8.1-4.6l-3.35 7" fill="#be9974" fill-rule="evenodd" transform="translate(1 1)"/><path d="m82.9 61.25 3-1.85-6.75 23.9q-1.35 4.5-2.85 8.05-3.1 7.2-6.95 10.1l3.35-7q7.1-16.15 10.2-33.2" fill="#98705f" fill-rule="evenodd" transform="translate(1 1)"/><path d="m40.4 68.7.1-.2v.25l-.1-.05m9.65 13.85.45-.1-.1.05-.15.05-.1.05h-.1v-.05" fill="#ce9239" fill-rule="evenodd" transform="translate(1 1)"/><path d="m50.1 82.75-.05-.15h.1l.1-.05-.15.2" fill="#ebd1ad" fill-rule="evenodd" transform="translate(1 1)"/><path d="m60 122.95-8 .2h-1.55l-17.35-1.1q-2.75-.5-5.4-1.6-1.95-2.2-3.5-5.05-1.5-2.8-2.2-4.95 2.45 1.55 6.15 2.8l.35.1.55.25 1.3.3 3.35.6 5.8.6 4.15.35 5.25.15 5.7-.3 8.65-1.15 7.15-1.2q-.85 2.85-3.05 5.05l-.4.5-6.55.5h-.95l-8.5-.35-5.8-.5q-7.4-.8-14.8-4.25l-1.3-.3-.55-.25-.35-.1q-3.7-1.25-6.15-2.8-.8-2.3-.8-3.9 0-2.05 2.3-2.9l2.65.75 7.5 1.45q12.3 1.85 23.3 1.1l.7-.1 5.85-.5 3.55-.45 2.8-.45.65 1q.35.85.35 2.95 0 1.9-.45 3.55l-7.15 1.2-8.65 1.15-5.7.3-5.25-.15-4.15-.35-5.8-.6-3.35-.6q7.4 3.45 14.8 4.25l5.8.5 8.5.35h.95l6.55-.5q-2.65 2.45-6.95 4.45" fill="#ac2020" fill-rule="evenodd" transform="translate(1 1)"/><path d="m93.55 8.3-2.4-.9q-29.75-11.7-64.6-2-15.05 5.95-20.7 15.4l-.45.75-.45.9Q1.6 29.15 1.1 39.7L1 43.75q0 7.45 3.55 19.5 3.6 12.05 6.3 17.9L16.6 93.6l3.9 8.75M93.55 8.3l7.2 2.85 4.2 1.6q4.65 1.8 8.8 3.95 3.6 1.9 6.85 4.15 12.45 8.5-7.1 33.4-6.25 9.4-10.2 20.25-4.25 11.55-5 22.1" fill="none" stroke="#3a211b" stroke-linecap="round" stroke-linejoin="round" stroke-width="2"/><path d="M3.95 21.45q-.45 1.7-1.1 6.15-.7 4.5-.65 12.05.1 7.45 7.7 17.2 7.55 9.75 20.95 13.55.85.4 1.05 1.15l.1 2.4q0 2.4-.5 3.8m8.35-5.3L39 74.9q-.45 1.5-.5 3.1v.3q0 3.65 2.4 5.05 1.65 1 4.15 1l3.4-.4 1.2-.75.45-.45.15-.2.15-.05.1-.05-.45.1-1.9-.4-.3-.45-.4-1.1-.2-1.6q0-1.9 1.95-4.45 2.1-2.7 4-2.55l-.45 2.35q0 1.3.85 2.1l.7.55 1.85.55 1.9.3-.25-.9-.25-1.3.1-.6.15-.7q1.05-3.7 8.1-7.4 1.15-.65 6.8-3.35l7.75-4.5 3.2-2.3 4.25-3.55q2.9-2.55 5.35-5.6l2.45-3.2 1.45-2.35q1.4-2.3 2.4-4.6 2.6-6.1 2.6-12.55l-.1-5.45q-.15-3.5-2.3-9.35M82.9 61.25l.75-4.45m-14.3 44.65-2.3 4.45m2.3-4.45 3.35-7q7.1-16.15 10.2-33.2M34.5 78.4l1.85-1.75q3.25-3.55 3.5-4.2m-8.45 5.4q-.4 1.05-1.8 2.6v.25h.05l1.65-.3q1.55-.6 3.2-2" fill="none" stroke="#62401e" stroke-linecap="round" stroke-linejoin="round" transform="translate(1 1)"/><path d="M98.3 96.6q1.25.55 1.4 1.9.25 1.15.15 3.2l-.05.75q-.15 2.25.4 4.15v.4q.6 1.9.6 2.9 0 1.1-.85 2.05l-1.8 1.85-2.2 1.8-6.35 2.95q-5 2.2-11.95 3.35l-11.4 1.65-5.25.4-8 .2h-1.55l-17.35-1.1q-2.75-.5-5.4-1.6-1.95-.8-3.8-1.9-1.85-2.85-3.85-7.7-1-2.3-1.45-3.85l-.1-.3-.45-2.2q0-1.5.15-2.05.25-.7 1.3-1.1.85 1.2 4 2.3l2.65.75 7.5 1.45q12.3 1.85 23.3 1.1l.7-.1 5.85-.5 3.55-.45 2.8-.45 5.75-1.05 6.1-1.25q12.65-2.85 15.15-5.6l.3-.55.15-1.4m1.75 10.25.15-.2" fill="none" stroke="#580d05" stroke-linecap="round" stroke-linejoin="round" stroke-width="2"/><path d="m98.85 100.7-1.2 1.05q-10 7.9-25.2 10.8l-2.05.4-7.15 1.2-8.65 1.15-5.7.3-5.25-.15-4.15-.35-5.8-.6-3.35-.6-1.3-.3-.55-.25-.35-.1q-3.7-1.25-6.15-2.8l-.5-.35q-2.4-1.6-2.9-3.1m48.35 11.5q6.6-1.1 16.25-4.1 14.6-4.55 15.85-8.55m-32.1 12.65-6.55.5h-.95l-8.5-.35-5.8-.5q-7.4-.8-14.8-4.25" fill="none" stroke="#580d05" stroke-linecap="round" stroke-linejoin="round" transform="translate(1 1)"/><path d="M21.4 13.55h.1l.1-.1q2.35-.3 3.4 3.6v.1l.1.6q-.4 1.15-1.9 1.75l-2.4.75-1.55.45-.65.25h-.1l-4.45 1.25q-1.65.8-2.7 2.1 1.8-4.4 4.5-7.15l1.8-1.6q2.05-1.8 3.75-2m.5 13.35q1.75-.95 3.6-.95 1.05 0 1.3 1.55l.2 2.6-.2 2.05q-1.65.1-3.45.9-.45-.95-.9-.95-1.2 0-1.4.85l-.05 1.4q-1.1.6-2.15 1.5-2.25 1.65-3.65 3.2l-.4-.65q0-4.7 3.55-8.6l1.3-1.25 2.25-1.65m3.9 12.95q.85-.9 1.9-1.5h1.15q1.15.7 1.9 2.25l.45 1.6q-.7 1.45-2.35 3.3l-.7-.55q-1.05 0-1.35.9l.5 1.3q-2.8 2.65-5.95 4.65h-.05v-.05q.75-4.75 1.85-7.65.5-1.35 1.2-2.4.65-1.1 1.45-1.85m7.4 12.3-.35-2.35q0-1 1.8-2.05 1.55-1 3.45-1.05h1.1q2.1.95 2.1 5.9 0 3.75-2.95 9.8-2.1 4.35-4.25 5.95l.5-2.95q.25-2.9 0-4.35-.35-1.4-1-5.95l-.05-.3-.35-2.65m14.55-4.75q-1.95-2.3-2.5-4.5.5-1.85 1.8-3 1-.8 2-1 1.05.85 2.1 2.85l.35.7.2.45.35.8q.8 2.2.8 4.2 0 1.4-.35 2.25l-.85 1.8q-.7-1.15-2.15-2.65l-.55-.6-1.2-1.3m12-19.1h.05q1.1 0 1.7.8h.15l.35 3.05.05.2q-.8.25-1.05.7l-.2.9q0 1 1.1 1h.6l.2-.05.05.25.1.5 1.5 4.65-.9-1.15q-2.25-2.45-2.65-3.6-1.15-3.15-1.05-7.25M66 22q.65-1.25 1.9-2.15 1.8-1.15 4-1.05l1.75 2.1-.75 1.3-.5.85 1.1 1.15 1.3-1.45.35.85q1 2.35 1 5.9v1.95l-.15.6-.05.2-.05.4q-.55-2-1.8-3.55l-3.3-3.15L67.75 24q-1.2-.8-1.75-2m-45.2-1.75q-.2-.15-.35-.15l-1.1.2-.75.65.75-.65 1.1-.2q.15 0 .35.15" fill="#fff" fill-rule="evenodd" transform="translate(1 1)"/><path d="M25.1 17.75q.7 3.35-.75 3.9l-2.3.75-.8.1q-.1-1.8-.45-2.25l2.4-.75q1.5-.6 1.9-1.75m1.7 14.4-.65 1.55q-.55.75-2.2 1.15l-.6-1.8q1.8-.8 3.45-.9m4.4 10.05.1 1.1-.25 1.75-.25.3-1.1 1.4-.85-1.25q1.65-1.85 2.35-3.3m8 4.5 2.45.3 1.8 1.05q.6.55.45 2.55l-2.15 1.15-.1 1.05q0 .55.35.95l.55.35.7-.1q-.95 4.1-1.85 6.5-2 5.6-5.05 7.8-1.25 1-2.5 1.25l.25-1.2q2.15-1.6 4.25-5.95 2.95-6.05 2.95-9.8 0-4.95-2.1-5.9m9.85-7.8.95-.15q2.3 0 3.25 2.85l-1.75.85-.35-.7q-1.05-2-2.1-2.85m8.4-9.85q1.05-.75 2.3-.75-.1 4.1 1.05 7.25.4 1.15 2.65 3.6l.9 1.15.2.7-1.6-.7q-3.1-1.65-4-3.5-1.55-3.2-1.55-6.45l.05-1.3M68.4 26.8l-2.7-2.25q-.45-.4 0-1.9L66 22q.55 1.2 1.75 2l3.05 1.95 3.3 3.15q1.25 1.55 1.8 3.55v.1l-.05.2-.3.7q-.85-1.3-4.7-4.7l-1.15-1-1.3-1.15M53.8 43.7l.15 3.25-.1 2.25-.45 2.25-.25.8-.2.3-.65.85-.65-1.45.85-1.8q.35-.85.35-2.25 0-2-.8-4.2l.8.35.95-.35m-26.1 4.7-6.4 4.1v-.7h.05q3.15-2 5.95-4.65l.4 1.25m-6.55-12.75q-3.45 1.2-5.95 3.4 1.4-1.55 3.65-3.2 1.05-.9 2.15-1.5l.15 1.3M18.3 23.3l-4.2 1.2q-2.85 1-3.45 1.6l.7-1.8q1.05-1.3 2.7-2.1l4.45-1.25-.2 2.35" fill="#e0e2d8" fill-rule="evenodd" transform="translate(1 1)"/><path d="M56.75 37.6q-2.2-2.55-2.2-5.2v-.3l2.6-2.9.3-.15-.05 1.3q0 3.25 1.55 6.45.9 1.85 4 3.5l1.6.7.45 1.45v.1q-3.3-.2-6.55-3.25l-.5-.4-1.2-1.3" fill="#d2c2ac" fill-rule="evenodd" transform="translate(1 1)"/><path d="M21.25 22.5v.1q.15 3.25.65 4.3l-2.25 1.65-.75-1.75q-.35-.95-.4-2l-.2-1.5.2-2.35h.1l.65-.25 1.55-.45q.35.45.45 2.25m2.7 12.35.15.65q.95 3.65 1.7 4.35-.8.75-1.45 1.85-2.65-2.55-3.2-6.05l-.15-1.3.05-1.4q.2-.85 1.4-.85.45 0 .9.95l.6 1.8m5.75 11.9.8 1.55q1.8 3.55 2.7 3.85l.35 2.65.05.3q-3.1-1.45-3.9-2.45-1.05-1.3-2-4.25l-.4-1.25-.5-1.3q.3-.9 1.35-.9l.7.55.85 1.25m14.2 3.85 1.85-1.2q1-.6 2-2l1.2 1.3.55.6-3.25 2.9q-1.85 1.45-3 1.8l-.7.1-.55-.35q-.35-.4-.35-.95l.1-1.05 2.15-1.15m9.35-9 1.3-1.15 2.2-2.85 1.2 1.3.5.4-3.05 3.15-1.6 1.25-.95.35-.8-.35-.35-.8-.2-.45 1.75-.85M62 32.15l2.05-1.4 2.1-1.65q1.9-1.45 2.25-2.3l1.3 1.15-2.8 3-3.5 3.5-.7.45-.2.05h-.6q-1.1 0-1.1-1l.2-.9q.25-.45 1.05-.7l-.05-.2M73.65 20.9l2.15-3.6 1.95-4 1.05-3.85.55-3.15q-.65-4.8-7-4.3l5.3-1.75q4.45 2 3.9 5.2-1.45 7.1-3.35 11.4-1.45 3.35-3.4 5.9l-1.3 1.45-1.1-1.15.5-.85.75-1.3m-56-5.35q.2-2.1 2.2-5.25 1.8-2.9 2.85-3.55 3.6-3.45 11.4-3.9l.5 2.4q-6.35-.05-9.15 1.8-.85.25-2.1 2.45l-1.85 3.9-.1.15q-1.7.2-3.75 2" fill="#ca9b57" fill-rule="evenodd" transform="translate(1 1)"/><path d="M21.4 13.55h.1l.1-.1q2.35-.3 3.4 3.6v.1l.1.6q.7 3.35-.75 3.9l-2.3.75-.8.1v.1q.15 3.25.65 4.3 1.75-.95 3.6-.95 1.05 0 1.3 1.55l.2 2.6-.2 2.05-.65 1.55q-.55.75-2.2 1.15l.15.65q.95 3.65 1.7 4.35.85-.9 1.9-1.5h1.15q1.15.7 1.9 2.25l.45 1.6.1 1.1-.25 1.75-.25.3-1.1 1.4.8 1.55q1.8 3.55 2.7 3.85l-.35-2.35q0-1 1.8-2.05 1.55-1 3.45-1.05h1.1l2.45.3 1.8 1.05q.6.55.45 2.55l1.85-1.2q1-.6 2-2-1.95-2.3-2.5-4.5.5-1.85 1.8-3 1-.8 2-1l.95-.15q2.3 0 3.25 2.85l1.3-1.15 2.2-2.85q-2.2-2.55-2.2-5.2v-.3l2.6-2.9.3-.15q1.05-.75 2.3-.75h.05q1.1 0 1.7.8h.15l.35 3.05 2.05-1.4 2.1-1.65q1.9-1.45 2.25-2.3l-2.7-2.25q-.45-.4 0-1.9L66 22q.65-1.25 1.9-2.15 1.8-1.15 4-1.05l1.75 2.1 2.15-3.6 1.95-4 1.05-3.85.55-3.15q-.65-4.8-7-4.3l5.3-1.75q4.45 2 3.9 5.2-1.45 7.1-3.35 11.4-1.45 3.35-3.4 5.9l.35.85q1 2.35 1 5.9v1.95l-.15.6-.05.2-.05.4v.1l-.05.2-.3.7q-.85-1.3-4.7-4.7l-1.15-1-2.8 3-3.5 3.5-.6.6-.05.1.1.5 1.5 4.65.2.7.45 1.45v.1q-3.3-.2-6.55-3.25l-3.05 3.15-1.6 1.25.15 3.25-.1 2.25-.45 2.25-.25.8-.2.3-.65.85-.65-1.45q-.7-1.15-2.15-2.65l-3.25 2.9q-1.85 1.45-3 1.8-.95 4.1-1.85 6.5-2 5.6-5.05 7.8-1.25 1-2.5 1.25l.25-1.2.5-2.95q.25-2.9 0-4.35-.35-1.4-1-5.95-3.1-1.45-3.9-2.45-1.05-1.3-2-4.25l-6.4 4.1v-.75q.75-4.75 1.85-7.65.5-1.35 1.2-2.4-2.65-2.55-3.2-6.05-3.45 1.2-5.95 3.4l-.4-.65q0-4.7 3.55-8.6l1.3-1.25-.75-1.75q-.35-.95-.4-2l-.2-1.5-4.2 1.2q-2.85 1-3.45 1.6l.7-1.8q1.8-4.4 4.5-7.15l1.8-1.6q.2-2.1 2.2-5.25 1.8-2.9 2.85-3.55 3.6-3.45 11.4-3.9l.5 2.4q-6.35-.05-9.15 1.8-.85.25-2.1 2.45l-1.85 3.9-.1.15q-1.7.2-3.75 2m.85 5.4-.2 2.35m.3-2.35.75-.65 1.1-.2q.15 0 .35.15.35.45.45 2.25m-1.6 6.05 2.25-1.65m1.45 6.15.6 1.8m-2.95-.5.05-1.4q.2-.85 1.4-.85.45 0 .9.95M21 34.35l.15 1.3m3.2 6.05q.65-1.1 1.45-1.85m25.7 2.6 1.75-.85m8.8-9.25q-.8.25-1.05.7l-.2.9q0 1 1.1 1h.6l.2-.05.7-.45m-.7.45.05.25m-6 2.45 1.2 1.3.5.4m-6.95 3.15.2.45.35.8.8.35.95-.35m19.85-22.8-.75 1.3-.5.85 1.1 1.15 1.3-1.45m-5.1 5.2-1.3-1.15M49.5 49.3l-.55-.6-1.2-1.3m-3.85 3.2-2.15 1.15-.1 1.05q0 .55.35.95l.55.35.7-.1m-14.4-8.5.85 1.25m3.9 8.35-.05-.3-.35-2.65m-5.9-5 .4 1.25m1.15-2.9-.7-.55q-1.05 0-1.35.9l.5 1.3" fill="none" stroke="#3a211b" stroke-linecap="round" stroke-linejoin="round" transform="translate(1 1)"/></g><g id="j"><path d="M20.05 42.9Q25.3 39.45 32 40.75q6.05 1.5 7.6 6.5l.3 1.4v2.7q0 4.75-2.05 9.7-2.1 4.95-13.3 18.55-6 2.1-7.45 2.1-1.5-.1-3.55.55L30.35 63q3.05-4.95 3.05-8.9 0-2.95-2.2-4.05-1.8-.9-6.35-.9-3.25 0-4.9.8-1.65.8-18.8 18.4.4-1.5 2.25-4.7 11.85-13 12.4-14.15l.95-1.75.1-.1q1.45-2.8 3.2-4.75" fill="#644335" fill-rule="evenodd" transform="translate(1)"/><path d="M24.55 79.6q11.2-13.6 13.3-18.55 2.05-4.95 2.05-9.7v-2.7l-.3-1.4q-1.55-5-7.6-6.5-6.7-1.3-11.95 2.15 4-4.5 9.55-4.6 8.65-.8 13.7 4.5l-.05 1q0 .85.55 2.65-.35 7.95-4.1 14.9l-3.75 6.35q-1.45 2.6-7.85 10.85l-3.55 1.05" fill="#462720" fill-rule="evenodd" transform="translate(1)"/><path d="M1.15 68.35q17.15-17.6 18.8-18.4 1.65-.8 4.9-.8 4.55 0 6.35.9 2.2 1.1 2.2 4.05 0 3.95-3.05 8.9l-16.8 19.25q-17.5 5.25-12.4-13.9" fill="#98705f" fill-rule="evenodd" transform="translate(1)"/><path d="M21.05 42.9q-1.75 1.95-3.2 4.75l-.1.1-.95 1.75q-.55 1.15-12.4 14.15-1.85 3.2-2.25 4.7-5.1 19.15 12.4 13.9 2.05-.65 3.55-.55 1.45 0 7.45-2.1l3.55-1.05q6.4-8.25 7.85-10.85l3.75-6.35q3.75-6.95 4.1-14.9-.55-1.8-.55-2.65l.05-1q-5.05-5.3-13.7-4.5-5.55.1-9.55 4.6z" fill="none" stroke="#3a211b" stroke-linecap="round" stroke-linejoin="round" stroke-width="2"/><path d="M8.4.05Q9.95 2 11 2.75l5 4.05q3.4 2.75 5.6 5.15l4.55 4.85q2.3 2.35 3.85 5.15 1.5 2.85 4.9 6.2 2.75 3 3.95 3.4l4 .65.7.3-3.25.1q-4.35.65-4.9 3.85h-.15q0-4.05-4.1-9.45l-2.9-4.05-1.65-1.15-2.75-2.15q-2.5-2-7.9-3.6-5.45-1.6-9.4-1.9Q3.65 13.9.8 15 .7 9.3 2.15 4.35 3.35-.45 8.4.05" fill="#462720" fill-rule="evenodd" transform="translate(1)"/><path d="m42.85 32.2-4-.65q-1.2-.4-3.95-3.4-3.4-3.35-4.9-6.2-1.55-2.8-3.85-5.15l-4.55-4.85Q19.4 9.55 16 6.8l-5-4.05Q9.95 2 8.4.05q1.95.2 4.55 1.1l5.7 4.6q8.35 7.75 12.2 14.2 3.55 6 5.75 8.6l.35.35q1.4 1.6 5.9 3.3" fill="#604b92" fill-rule="evenodd" transform="translate(1)"/><path d="M42.75 43.3q-.6 1.6-1.4 2.5-.75.95-1.75 1.45l-2.8.55-1.85-.3h-.05l-.25-.15q-1.6-.75-2.9-2.7Q30 42 30 39.95v-.15q.05-1.8.95-2.55.85-.9 3.1-.9h.35q-.65.4-1.05 1.15-.65 1.15-.65 2.7 0 2.15 1.55 3.65 1.6 1.55 4.15 1.55 1.95 0 4.35-2.1m-1.7-8.8 4.75.45-2.4 1.15q-1.4.45-2.35 2.15-1.25-1.5-2-3.05l-.75-1.75 2.75 1.05M28.85 38l.4.3v.1q.4.8.4 1.3 0 2.3-2.45 4.5-2.35 2.15-4.45 2.15-3.05 0-7.3-3.2-1-.75-4.85-4.2-2.9-2.5-4.05-5.95-1.05-3.15-.75-8.2-.05-1.6 1.15-3.05 1.35-1.75 3-1.5 1.7.15 4.2 1.9 2.45 1.7 8.2 8.05 3.9 4.3 6.4 7.6l-.25-.2.35.4" fill="#98705f" fill-rule="evenodd" transform="translate(1)"/><path d="M.8 15q2.85-1.1 5.75-.85 3.95.3 9.4 1.9 5.4 1.6 7.9 3.6l2.75 2.15 1.65 1.15 2.9 4.05q4.1 5.4 4.1 9.45h.15q.55-3.2 4.9-3.85l3.25-.1L49 34.15q-3.85 2.75-4.9 4.55l-.3.6q-.3.9-.45 2.1l-.6 1.9q-2.4 2.1-4.35 2.1-2.55 0-4.15-1.55-1.55-1.5-1.55-3.65 0-1.55.65-2.7.4-.75 1.05-1.15l.85.1-.85-.1h-.35q-2.25 0-3.1.9-.9.75-.95 2.55v.15q0 2.05 1.75 4.7 1.3 1.95 2.9 2.7l.25.15h.05q-10.9 1.9-16.9 1.05L18 48.5l-1.15-.85q-4.7-3.85-8.4-8.95l-2.6-4.15q-1.65-3-2.7-6.05l-.9-3.15Q.95 19.9.8 15m40.25 19.5-2.75-1.05.75 1.75q.75 1.55 2 3.05.95-1.7 2.35-2.15l2.4-1.15-4.75-.45m-3.85 8.45q1.05.3 1.55-.25.45-.45.45-1.65 0-2-1.15-3.25l-1.2-.9-1.45-.45 1.45.45 1.2.9q1.15 1.25 1.15 3.25 0 1.2-.45 1.65-.5.55-1.55.25m-8.45-5.15q-2.5-3.3-6.4-7.6-5.75-6.35-8.2-8.05-2.5-1.75-4.2-1.9-1.65-.25-3 1.5-1.2 1.45-1.15 3.05-.3 5.05.75 8.2 1.15 3.45 4.05 5.95 3.85 3.45 4.85 4.2 4.25 3.2 7.3 3.2 2.1 0 4.45-2.15 2.45-2.2 2.45-4.5 0-.5-.4-1.3v-.1l-.4-.3-.1-.2" fill="#644335" fill-rule="evenodd" transform="translate(1)"/><path d="m28.85 38-.35-.4.25.2.1.2" fill="#96622e" fill-rule="evenodd" transform="translate(1)"/><path d="M35.25 36.45h.15l1.45.45 1.2.9q1.15 1.25 1.15 3.25 0 1.2-.45 1.65-.5.55-1.55.25m5.55.35q-.6 1.6-1.4 2.5-.75.95-1.75 1.45l-2.8.55-1.85-.3h-.05l-.25-.15q-1.6-.75-2.9-2.7Q30 42 30 39.95v-.15q.05-1.8.95-2.55.85-.9 3.1-.9h.35l.85.1" fill="none" stroke="#3a211b" stroke-linecap="round" stroke-linejoin="round" transform="translate(1)"/><path d="M43.85 32.2q-4.5-1.7-5.9-3.3l-.35-.35q-2.2-2.6-5.75-8.6Q28 13.5 19.65 5.75l-5.7-4.6m30.6 31.35-.7-.3m.7.3L50 34.15q-3.85 2.75-4.9 4.55l-.3.6q-.3.9-.45 2.1l-.6 1.9m-24.7 5.25L19 48.5l-1.15-.85q-4.7-3.85-8.4-8.95l-2.6-4.15q-1.65-3-2.7-6.05l-.9-3.15Q1.95 19.9 1.8 15" fill="none" stroke="#3a211b" stroke-linecap="round" stroke-linejoin="round" stroke-width="2"/></g><g id="k"><path d="m67.95 18.85.55.8-.2-.05q-.5-.25-.5-.8l.15.05M43.45 6.8l.35.1.15.7-.6-.2.1-.6M18.9 9.3v.05l-.35-.05h.35M50 33.1q.3-.5.4 0H50m-19.55-6.5-.15-.05.05-.05.1.1m-27.6 4-.05-.25.35-.3-.3.55" fill="#fff" fill-rule="evenodd" transform="translate(1 1)"/><path d="m65.35 24.3 1.15 1.85.55.7-11.4 5.75-2.2.15-3.05.35q-.1-.5-.4 0 .6-1.95 1.8-3.25 2-2.3 4.2-3.35 1.25-.65 2.2-1.05l1.75-.8.45-.15 4.05-.6.9.4M16.55 3.05l.5-1.2 2.65 2.1-3.15-.9m4.3 11.15 5.25.3 5.8.4 5.65.2-1.9 4.05Q33.7 17.95 30 17q-3.75-.95-9.15-2.8m-11-9.75 3.75 4.9-.05.15 3.1 4.85q-2.55-1.5-4.75-2.45L10 8.85q-.35-2.8-.35-4.15l.2-.25m38.9 27.85q-.95 2.2-3.25 4.2-2.75 2.4-7.1 3.8l2-4.4q1.1-2.75 1.15-6.4 4.3 1.15 7.2 2.8M30.3 26.55l-.35.25q-3.1 1.25-5.95 2.45-5.5 2.5-7.05 4.1l-.7.4-12-2h-1L3 30.9l-.15-.3.3-.55-.35.3-.15-.7v-.05l.05.05.45-.25q3.5-1.85 6.1-2.15l1.25.2h.2l-.1-.05q3.75.6 4.9 2.2l.25.3q1.65-3 5.45-4.6 2.8-1.2 5.1-1.45l1.45-.1v-.05l.05.05v.05l1 .9 1.55 1.8-.05.05m8.1 13.75 5.35-4.4q1.65-1.65 1.55-2.8-.2-1.15-1.35-1.55-1.2-.35-1.2.3l-.8 2.7q-.7 2.1-3.55 5.75" fill="#324856" fill-rule="evenodd" transform="translate(1 1)"/><path d="m10.15 26.9-.05.05-.15.05.2-.1" fill="#435570" fill-rule="evenodd" transform="translate(1 1)"/><path d="m65.35 24.3-.25-1q0-1.9 1.65-3.6 2.6 2.25 3.15 2.35l-1.2 2.4-1.5 2.3-.15.1-.55-.7-1.15-1.85m-29.7-5.15 1.9-4.05-5.65-.2-5.8-.4-5.25-.3-3.9-2.05 20.4 1.45 1.55 2.6-3.25 2.95m-2.25 2.3h.1l2.35.8q3.5 1.45 5.8 1.55 4.2.15 6.8 4.4 1.25 2.1 1.55 4.9l-1.2-.8h-.05q-2.9-1.65-7.2-2.8l-11.1-2.9-.1-.1-1.55-1.8-1-.9v-.05l.15-.6q.05-.55 1-.85l1.2-.35 1.6-.2 1.65-.3M2.65 29.6l-.05-2.25-.3-3.25-1.05-5.5Q.4 14.5 0 13.8l.9-.5q1.2-.7 3.7-2Q8.35 9.45 10 8.85l1.9 3.05-2 1.95-1.8 1.95q-1.15 1.35-8.1-2l6.65 3.45q.6.35.6 4 0 4.25-.35 5.6L3.15 29.4l-.45.25-.05-.05M38.4 40.3q2.85-3.65 3.55-5.75l.8-2.7q0-.65 1.2-.3 1.15.4 1.35 1.55.1 1.15-1.55 2.8l-5.35 4.4" fill="#53698a" fill-rule="evenodd" transform="translate(1 1)"/><path d="M43.95 8.35q-.55.95-.05 1.95l1.15 2 .3.25q-.9.6-2.55 1.95l-.95.2q-.45 0-1.2-.55-.75-.65-.6-1.95-.55 1.1.05 1.8l-.8-.65-.5-.6-.75-1.45.7-.45.55-.35 2.15-1.25 2.5-.9m-8.3 10.8 3.25-2.95-1.55-2.6-20.4-1.45 3.9 2.05q5.4 1.85 9.15 2.8 3.7.95 5.65 2.15M13.6 9.35l3.05-.1 2.25.05h-.35l.35.05 17.9 2.55.45.3 1.7 1.1.35.3.8 1.3-.1 1.2v.15l-.1.6q-.3.9-2.55 2.15l-3 1.7-2 .4-2.75.4q-2.55 0-4.1-.6-1.15-.45-8.85-6.55L24.3 21q1.5 1 1.85 2.2l-2 .75q-3.8 1.1-4.9 1.55l-1.7.75q-2.45 1.35-3.2 1.35l-2.9-.55-1.35-.1.05-.05-1.65-.1q-.95.05-.85-1.35l.1-2.7.1-2.45.1-1.9q0-.85.45-1.65l.8-1.5 2.7-3.35q2.2.95 4.75 2.45l-3.1-4.85.05-.15m19.9 12.1q5-2.2 6-2.2 2.75 0 9 2.8 6.6 2.9 9.7 3.4-.95.4-2.2 1.05-2.2 1.05-4.2 3.35-1.2 1.3-1.8 3.25-.3-2.8-1.55-4.9-2.6-4.25-6.8-4.4-2.3-.1-5.8-1.55l-2.35-.8M10.6 27.4l.1.05h-.2v-.05h.1" fill="#798c9f" fill-rule="evenodd" transform="translate(1 1)"/><path d="m42.8 14.5-.75.9-.6.85-.35.65q0 .35 2.3 1.55l6.05 3.1q3 1.6 4.75 2.25 2.2.85 4 .85h1.75l-1.75.8q-3.1-.5-9.7-3.4-6.25-2.8-9-2.8-1 0-6 2.2h-.1v-.2l.95-.55 3-1.7q2.25-1.25 2.55-2.15l.1-.6v-.15l.1-1.2-.8-1.3-.35-.3-1.7-1.1-.45-.3-17.9-2.55V9.3l-2.25-.05-3.05.1-3.75-4.9.9-.55q1.2.95 5.5 2.75l5.55 2.3q1.4.6 6.75 1.2l7.15.45 2-.6 1.6-.5 4.05-1.65.6-.25v.75l-2.5.9-2.15 1.25-.55.35-.7.45.75 1.45.5.6.8.65q-.6-.7-.05-1.8-.15 1.3.6 1.95.75.55 1.2.55l.95-.2" fill="#f3f8fa" fill-rule="evenodd" transform="translate(1 1)"/><path d="M69.9 22.05q-.55-.1-3.15-2.35l-5.55-1.4-10.15-3.2-.65-.15-3.95-.45H42.8q1.65-1.35 2.55-1.95l-.3-.25-1.15-2q-.5-1 .05-1.95V7.6l1.1 2.05 1.4 2 .05.15 4.55 1.75 2 .75 6.45 2.3 4.05 1.2 4.2.95h.05v.05q0 .55.5.8l.2.05q1.8 2.4 1.4 2.4M22.4.05 34.55 4.2l4.75 1.45 3.6.95.55.2-.1.6.6.2-.6.25V7.4l-4.05-.85Q26.85 3.8 22.45 3.2L22.4.05" fill="#a6c1ea" fill-rule="evenodd" transform="translate(1 1)"/><path d="M66.75 19.7q-1.65 1.7-1.65 3.6l.25 1-.9-.4-4.05.6-.45.15H58.2q-1.8 0-4-.85-1.75-.65-4.75-2.25l-6.05-3.1q-2.3-1.2-2.3-1.55l.35-.65.6-.85.75-.9h3.65l3.95.45.65.15 10.15 3.2 5.55 1.4M17.05 1.85l5.1-1.8.1-.05.15.05.05 3.15q4.4.6 16.85 3.35l4.05.85v.45L39.3 9.5l-1.6.5-2 .6-7.15-.45q-5.35-.6-6.75-1.2l-5.55-2.3q-4.3-1.8-5.5-2.75 1.2-.5 3.6-1.25l.4-.1 1.8.5 3.15.9-2.65-2.1" fill="#97a6b5" fill-rule="evenodd" transform="translate(1 1)"/><path d="m34.35 20.7-.95.55v.2l-1.65.3-1.6.2-1.2.35q-.95.3-1 .85l-.15.6-.05-.05v.05l-1.45.1q-2.3.25-5.1 1.45-3.8 1.6-5.45 4.6l-.25-.3q-1.15-1.6-4.9-2.2h-.1v.05l-1.25-.2q-2.6.3-6.1 2.15l3.75-2.55q.35-1.35.35-5.6 0-3.65-.6-4L0 13.8q6.95 3.35 8.1 2l1.8-1.95 2-1.95-2.7 3.35-.8 1.5q-.45.8-.45 1.65l-.1 1.9-.1 2.45-.1 2.7q-.1 1.4.85 1.35l1.65.1-.2.1.15-.05 1.35.1 2.9.55q.75 0 3.2-1.35l1.7-.75q1.1-.45 4.9-1.55l2-.75Q25.8 22 24.3 21l-7.65-6.65q7.7 6.1 8.85 6.55 1.55.6 4.1.6l2.75-.4 2-.4" fill="#c4cdd5" fill-rule="evenodd" transform="translate(1 1)"/><path d="m68.05 27.85.15-.1 1.5-2.3 1.2-2.4q.4 0-1.4-2.4l-.55-.8m-.2-.1-4.2-.95-4.05-1.2-6.45-2.3-2-.75-4.55-1.75-.05-.15-1.4-2-1.1-2.05-.15-.7-.35-.1-.55-.2-3.6-.95-4.75-1.45L23.4 1.05 23.25 1l-.1.05-5.1 1.8-.5 1.2-1.8-.5-.4.1q-2.4.75-3.6 1.25l-.9.55-.2.25q0 1.35.35 4.15-1.65.6-5.4 2.45-2.5 1.3-3.7 2l-.9.5q.4.7 1.25 4.8l1.05 5.5.3 3.25.05 2.25v.05l.15.7.05.25.15.3.25.85h1l12 2 .7-.4q1.55-1.6 7.05-4.1 2.85-1.2 5.95-2.45m20.45 6.3 3.05-.35 2.2-.15 11.4-5.75M51 34.1l-1.2-.8h-.05q-.95 2.2-3.25 4.2-2.75 2.4-7.1 3.8l-.05.05h-.05l.1-.05 2-4.4q1.1-2.75 1.15-6.4l-11.1-2.9-.15-.05m20.1 6.55H51" fill="none" stroke="#1d2530" stroke-linecap="round" stroke-linejoin="round" stroke-width="2"/><path d="m16.55 3.05 3.15.9-2.65-2.1m24.5 27.65q4.3 1.15 7.2 2.8" fill="none" stroke="#1d2530" stroke-linecap="round" stroke-linejoin="round" transform="translate(1 1)"/></g><g id="l"><path d="M76.8 30.6q1.85-1.1 2.8-2.75l.2.1q-.45 3.1-2.65 6-2.6 3.45-6.05 3.85l-.05.25-.15.1h.15l1.7.2-5.15.35q-2.35-.3-4.15-1.45v-.05q4.7-.2 8.15-1.85 3.7-1.75 5.2-4.75M25.35 75.2q-.25 2.6-1 5.1-.75 2.1-3.3 5.9l.05-3.6q.8-1.65 1.35-4.05l1.7-9.3h.1l.4 2.5q.3 2.4.7 3.45m-10.85-52q-3.25.25-4.9-2.8l-.3-.65 1.35.1q2.15 0 4-1.65h.05l.65.5 2.3 1-.1.45-.4 2q-.55-1.15-2.2-1.35l-.35 2.05-.1.35m6-13.9 1.15 1.05q1.2 1.6.8 4.35l-.3 2.65q-.7-.15-.95-1.3l-.85 1.9-.25.65-.85-3.15Q19 14.25 18 14l1.75-2.85.75-1.85" fill="#78584b" fill-rule="evenodd" transform="translate(1 1)"/><path d="M48.8 9q.8-.95 2-1.6 1.45-.85 2.55-.8l-.7.95Q51 8.4 50.7 9q-.35.65-.35 2.05 0 2.9 3.4 3.9V12.6l.05-.35q.65-3.35 3.25-5.4 2.65-2 5.9-2 2.65 0 4.8 2.4 1.75 1.85 2.1 4.05-.6 1-1.65 1.7-1.15.8-2.75 1.2-.1-1.9-1.2-3.05Q63.15 10 61.5 10t-2.65.85q-1.2 1.1-1.35 4l.5.05 2.25.05-1.2.8-.95.75h-.05q-.1.05-.25.15h.4l1.35-.15 2.45.35-.85.75-.4.8v.15q.05 1.1 1.15 2.3l1.1 1.1.05.05v.15q.35 1 .35 3.65l-.35 2.4q-.35 1.75-.35 2.25 0 1.05 1.5 1.6l2.8.5q1.65 0 3.8-1.15l1.85.35q2.2 0 4.15-1.15-1.5 3-5.2 4.75-3.45 1.65-8.15 1.85h-.1l.1.05q1.8 1.15 4.15 1.45l5.15-.35 3.5.55 1.45.45q1.6.55 2.3 1.05-12.4.25-17.95 1.9-5.55 1.6-6.25 1.95-4.2 1.9-7.2 3.45-3 1.75-4.8 1.75l-.75-.15-.3.65.05-.7v-.1h-.15q-.5-.35-1.15-.35-2.4 3.15-7 4.8l-.55.35-5.05.8-2.05-.05q-.8-.45-2.7-1.15v.9l-1.95.95-2.55.6.75.95q1.65.75 4.25.45v-.05l3.35.3 1.65-.05-.45 4.65-.85 3.75-.55 2.35-.45 1.55-.4 1.2-.1 2.65q0 1.15.6 4l.15.55q-.7 2.45-.75 4.1-1.05-1.25-1.2-2.6-.25-1.35-.25-4.95l-.05.35q-.4-1.05-.7-3.45l-.4-2.5h-.1l-1.7 9.3q-.55 2.4-1.35 4.05.05-9.45-.85-12.9-1.1-4.05-1.95-5.65l-1.85-3.7-2.5-4.45-3.5-5.1q-1.9-2.65-4-4.5l3.15.2-1.5-2.05-1.55-2L4.6 41.1q-1.4-.8-4.6-1.95l.1-.2 8.25-.55q0-1.2-1.3-2.75l-1.9-2.25q1.25.35 3.15-.95l1.8-1.4 1.5-1.4.65-.8.7-1.2 1.15-2.8.05-.25.35-1.4.1-.35.35-2.05q1.65.2 2.2 1.35l.4-2 .1-.45.2-1.4.2-.25q.65 1.4 1.7 1.95l-1.8 1.6q-1.7 1.6-.8 2.75l1.25 2.05.35.8q0-2.55 2.45-6.2 2.5-3.7.4-2.3l-1.65 1.2.15-1.3.25-.65.85-1.9q.25 1.15.95 1.3l.3-2.65q3.25-4.05 11.8-9.45 5.25-3.3 9.15-4.5-2.4 1.85-3.45 3.2-1.4 1.9-1.4 4.4l.05 2.1q.7-.15 2.2-1.2 1.6-1.15 2.1-1.4l.6 2.9.8 3h.2l2.8-4.4 1.55-3.2h.1l-.2 2.7V9h.05m8.1 0q.3.6 1.1.6.45 0 1.2-.7t2.2-.7l1.75-.15q.55-.2.55-.9 0-2-3.45-1.35-3.45.65-3.45 2.6l.1.6m-3.15 5.95V15h.1l-.1-.05m-1.5.6q.5-.4 1.5-.55-1 .15-1.5.55m3.45-.8 1.8.1-1.8-.1m-17.95-9.6q-3.8 1.25-7 4-2.3 1.95-3.4 3.7l.75.6.85.75H29q1.5-2.65 4.8-5.65l3.95-3.4m-12.35 8.2-1.25 2.4q-.7 1.6-1.85 1.6h-.15.15q1.15 0 1.85-1.6l1.25-2.4M7.45 34.1l.55.35.85.8q.45.5 1.15 2.15.7 1.7.5 2.1l-2.45-.2-2.2.15H3.9q3.55.95 4.5 1.45l1.75.95 1.35.6.7 1.7 1.25 5.6.15-3.65v-2.75l-.2-1.45-.1-.65-.2-.55-.55-1.95-.1-.2q-1-2.95-1.6-3.6-.7-.7-1.9-.75l-1.5-.1m35.35 2.2-.1.1.1.15v-.25" fill="#a6826a" fill-rule="evenodd" transform="translate(1 1)"/><path d="m52.65 7.55-.5.7-.1 1v.65q0 .8 1.7 2.7v2.35q-3.4-1-3.4-3.9 0-1.4.35-2.05.3-.6 1.95-1.45m17.2 3.75.1 1.3q0 3.3-1.9 5.9-1.45 1.85-3.4 2.8-.55.3-1.35.9.8-.6 1.35-.9l1.8 4.15 2.25 4.4q1.2 2 1.1.1l.1.5.9.95q-2.15 1.15-3.8 1.15l-2.8-.5q-1.5-.55-1.5-1.6 0-.5.35-2.25l.35-2.4q0-2.65-.35-3.65l.25.05-.25-.2-.05-.05-1.1-1.1q-1.1-1.2-1.15-2.3l.05-.05-.05-.1.4-.8.85-.75-2.45-.35-1.35.15-.1-.15.95-.75 1.2-.8L58 14.9l-.5-.05q.15-2.9 1.35-4 1-.85 2.65-.85t2.75 1.15q1.1 1.15 1.2 3.05 1.6-.4 2.75-1.2 1.05-.7 1.65-1.7M80 40.4q-3.25.45-8.5 3.1-5.35.35-13.15 4.85Q53 51.4 40.8 60.05l-2.9 1.85-.15.05-.4.25-4.75 4.55q-3.5 3.3-3.65 7.85l-.15.35q-.45.85-.8 2l-.3.95-.25-.15q-.6-2.85-.6-4l.1-2.65.4-1.2.45-1.55.55-2.35.85-3.75.45-4.65-1.65.05-3.35-.3h-.05l.05.05q-2.6.3-4.25-.45l-.75-.95 2.55-.6 1.95-.95v-.9q1.9.7 2.7 1.15l2.05.05 5.05-.8.55-.35q4.6-1.65 7-4.8.65 0 1.15.35l.15.1-.05.7.3-.65.75.15q1.8 0 4.8-1.75 3-1.55 7.2-3.45.7-.35 6.25-1.95Q67.6 40.65 80 40.4M43.4.75Q45.75 0 47.6 0h.95q-2.4.7-4.35 2.25-2.25 1.7-2.65 3.6v.75L43 5.8l1.5-.95q.6.55.55 2.55l2.2-1.95 1.15-2.1h.15q.35.85.4 2.45l-.1.35-1.55 3.2-2.8 4.4h-.2l-.8-3-.6-2.9q-.5.25-2.1 1.4-1.5 1.05-2.2 1.2l-.05-2.1q0-2.5 1.4-4.4Q41 2.6 43.4.75M65.45 14.2v.3q0 1.75-1.3 2.85-.85.8-3.35 1.15 2.5-.35 3.35-1.15 1.3-1.1 1.3-2.85v-.3m-50.8 4q-.85-.8-.85-1.7 0-1.25 1.5-1.95 1.15-.6 2.05-.6L18 14q1 .25 1.25 1.45l.85 3.15-.15 1.3v.15l-.2-.05q-1.05-.55-1.7-1.95l-.2.25-.2 1.4-2.3-1-.65-.5.05-.1-.1.1m22.9 43.85.2-.15 1.1-1.1-1.3 1.25M63.9 22.6l-.6-.4.6.4" fill="#6b4a47" fill-rule="evenodd" transform="translate(1 1)"/><path d="m56.9 9-.1-.6q0-1.95 3.45-2.6 3.45-.65 3.45 1.35 0 .7-.55.9l-1.75.15q-1.45 0-2.2.7-.75.7-1.2.7-.8 0-1.1-.6m-42.75 3.35q-1 .5-1.55 1.35l-.4 1.05q-.35.9-1.15.9-.65 0-1-.55l-.15-.5q0-2.6 2.45-3.9 2.5-1.3 2.5.75 0 .55-.7.9m5.6 7.65.2.05v-.15l1.65-1.2q2.1-1.4-.4 2.3-2.45 3.65-2.45 6.2l-.35-.8-1.25-2.05q-.9-1.15.8-2.75l1.8-1.6m18-14.85-3.95 3.4q-3.3 3-4.8 5.65h-.05l-.85-.75-.75-.6q1.1-1.75 3.4-3.7 3.2-2.75 7-4M7.45 34.1l1.5.1q1.2.05 1.9.75.6.65 1.6 3.6l.1.2.55 1.95.2.55.1.65.2 1.45v2.75l-.15 3.65-1.25-5.6-.7-1.7-1.35-.6-1.75-.95q-.95-.5-4.5-1.45h1.95l2.2-.15 2.45.2q.2-.4-.5-2.1-.7-1.65-1.15-2.15l-.85-.8-.55-.35" fill="#c4986f" fill-rule="evenodd" transform="translate(1 1)"/><path d="M48.95 5.8v.35h-.1l.1-.35m4.8 9.2v-.05l.05.05h-.05m7 3.5h.05l-.05.05v-.05" fill="#fff" fill-rule="evenodd" transform="translate(1 1)"/><path d="m27.7 77.9-.1.4-.15-.55.25.15m26.05-62.95.1.05h-.05l-.05-.05m4.45 1.7-.15-.15h.05l.1.15M63.05 22l.25.2-.25-.05V22m.4 15.25-.1-.05h.1v.05" fill="#96622e" fill-rule="evenodd" transform="translate(1 1)"/><path d="m64.65 21.3 4.05 5.85 1.1 2.8q.1 1.9-1.1-.1l-2.25-4.4-1.8-4.15m6.85 22.2q-3.3 1.6-7.3 4.1-10.5 6.45-15.3 9.9l-8.65 6-5.65 4.2q-2.6 2.25-4.5 5.1l-1.15 1.8q.15-4.55 3.65-7.85l4.75-4.55.4-.25.15-.05 2.9-1.85Q53 51.4 58.35 48.35q7.8-4.5 13.15-4.85" fill="#b3a077" fill-rule="evenodd" transform="translate(1 1)"/><path d="M9.3 19.75q-.95-2.1-.8-4.5.1-2.9 2.5-4.8 2.3-1.9 5.8-1.95 2.35-.05 3.7.8l-.75 1.85L18 14l-.65-.05q-.9 0-2.05.6-1.5.7-1.5 1.95 0 .9.85 1.7-1.85 1.65-4 1.65l-1.35-.1m4.85-7.4q.7-.35.7-.9 0-2.05-2.5-.75Q9.9 12 9.9 14.6l.15.5q.35.55 1 .55.8 0 1.15-.9l.4-1.05q.55-.85 1.55-1.35" fill="#98705f" fill-rule="evenodd" transform="translate(1 1)"/><path d="M42.8 36.3v.25l-.1-.15.1-.1" fill="#c51010" fill-rule="evenodd" transform="translate(1 1)"/><path d="M42.65 49.15h.15v.1l-.15-.1" fill="#e1b384" fill-rule="evenodd" transform="translate(1 1)"/><path d="m37.55 62.05 1.3-1.25-1.1 1.1-.2.15" fill="#7d78b1" fill-rule="evenodd" transform="translate(1 1)"/><path d="M79.6 27.85h.2v.1m-8.7 9.85-.05.25-.15.1M27.7 77.9l-.1.4M0 39.15l.1-.2M47.6 0h.95m-7 5.85v.75m6.85-3.25h.15m.4 2.45v.35m-.2 2.7V9h.05m4.95 5.95V12.6m0 2.4v-.05m.1.05h-.1q-1 .15-1.5.55m5.8.95q-.1.05-.25.15h.4l1.35-.15 2.45.35-.85.75-.4.8v.1h.05q2.5-.35 3.35-1.15 1.3-1.1 1.3-2.85v-.3q-.1-1.9-1.2-3.05Q63.15 10 61.5 10t-2.65.85q-1.2 1.1-1.35 4l-1.8-.1m2.35 1.75h.05l.95-.75 1.2-.8L58 14.9l-.5-.05m3.25 3.7q.05 1.1 1.15 2.3l1.1 1.1.05.05.25.2q.8-.6 1.35-.9m-3.9-2.8v.05m-46.1-.35q-.85-.8-.85-1.7 0-1.25 1.5-1.95 1.15-.6 2.05-.6L18 14q1 .25 1.25 1.45l.85 3.15.25-.65.85-1.9q.25 1.15.95 1.3l.3-2.65m-7.75 3.5.65.5 2.3 1 .2-1.4.2-.25q.65 1.4 1.7 1.95l.2.05v-.15l.15-1.3m-5.4-.4h-.05m3 1.5-.1.45-.4 2q-.55-1.15-2.2-1.35l-.35 2.05-.1.35m7.65-5.85h.15q1.15 0 1.85-1.6l1.25-2.4m37.9 8.85.6.4" fill="none" stroke="#423024" stroke-linecap="round" stroke-linejoin="round" transform="translate(1 1)"/><path d="M49.8 10q.8-.95 2-1.6 1.45-.85 2.55-.8l-.7.95-.5.7-.1 1m0 .45v.2q0 .8 1.7 2.7l.05-.35q.65-3.35 3.25-5.4 2.65-2 5.9-2 2.65 0 4.8 2.4 1.75 1.85 2.1 4.05l.1 1.3q0 3.3-1.9 5.9-1.45 1.85-3.4 2.8l4.05 5.85 1.1 2.8.1.5.9.95 1.85.35q2.2 0 4.15-1.15 1.85-1.1 2.8-2.75m.2.1q-.45 3.1-2.65 6-2.6 3.45-6.05 3.85m-.2.35h.15l1.7.2 3.5.55 1.45.45q1.6.55 2.3 1.05-3.25.45-8.5 3.1-3.3 1.6-7.3 4.1-10.5 6.45-15.3 9.9l-8.65 6-5.65 4.2q-2.6 2.25-4.5 5.1l-1.15 1.8m-.15.35q-.45.85-.8 2l-.3.95m-.1.4q-.7 2.45-.75 4.1-1.05-1.25-1.2-2.6-.25-1.35-.25-4.95l-.05.35q-.25 2.6-1 5.1-.75 2.1-3.3 5.9l.05-3.6q.05-9.45-.85-12.9-1.1-4.05-1.95-5.65l-1.85-3.7-2.5-4.45-3.5-5.1q-1.9-2.65-4-4.5l3.15.2-1.5-2.05-1.55-2L5.6 42.1q-1.4-.8-4.6-1.95m.1-.2 8.25-.55q0-1.2-1.3-2.75l-1.9-2.25q1.25.35 3.15-.95l1.8-1.4 1.5-1.4.65-.8.7-1.2 1.15-2.8.05-.25.35-1.4q-3.25.25-4.9-2.8l-.3-.65q-.95-2.1-.8-4.5.1-2.9 2.5-4.8 2.3-1.9 5.8-1.95 2.35-.05 3.7.8l1.15 1.05q1.2 1.6.8 4.35 3.25-4.05 11.8-9.45 5.25-3.3 9.15-4.5Q46.75 1 48.6 1m.95 0q-2.4.7-4.35 2.25-2.25 1.7-2.65 3.6m0 .75L44 6.8l1.5-.95q.6.55.55 2.55l2.2-1.95 1.15-2.1m.15 0q.35.85.4 2.45m0 .35-.2 2.7" fill="none" stroke="#423024" stroke-linecap="round" stroke-linejoin="round" stroke-width="2"/><path d="M14.5 25.55q.15-.3.7-.4.45-.05 1.25 2.4.75 2.4 2.2 3.95.65.75 3 1.7l.45.2 1.45.4q1.35.35 1.7 1.7.3 1.4-2.3 4.25-2.6 2.9-5 2.85-2.5-.15-3.95-2.9-1.45-2.8-1.3-5.05l.25-3.4.5-2.15.6-2.15q.2-1.05.45-1.4m-.85 10.35q.25 2.2 1.15 3.3 1.05 1.35 3.75 1.1 1.75-.2 3.15-1.95l.6-1 .7-2q-3.65-.1-5.35-2.75-1.25-2.1-2.2-6.05-.35.65-1.15 3.9-.85 3.3-.65 5.45" fill="#392b24" fill-rule="evenodd" transform="translate(1 1)"/><path d="m16 33.7-.2-.55q-.25-.85-.35-1.95l-.15 1.6-.05.9.1 1.3.05.45.3 1.05q.15.65.45 1.05l.45.45.1.1 1.45.3h.1l1.5-.65.2-.1q.6-.6-.35-.75-1.1-.1-2.45-1.35l-.8-1-.15-.3-.2-.55m-2.35 2.2q-.2-2.15.65-5.45.8-3.25 1.15-3.9.95 3.95 2.2 6.05 1.7 2.65 5.35 2.75l-.7 2-.6 1q-1.4 1.75-3.15 1.95-2.7.25-3.75-1.1-.9-1.1-1.15-3.3" fill="#340c07" fill-rule="evenodd" transform="translate(1 1)"/><path d="m15.4 35.45-.05-.45-.1-1.3.05-.9.15-1.6q.1 1.1.35 1.95l.2.55q-.2.3-.25.55l-.1.15-.25 1.05m1.3 2.65-.1-.1-.1-.2q0-.35.25-.35l.25.3q.05.3-.25.3l-.05.05m-.95-3.55.25-.15q.35 0 .45.7l-.25.45-.2.1q-.4 0-.4-.6 0-.4.15-.5" fill="#fff" fill-rule="evenodd" transform="translate(1 1)"/><path d="m19.75 37.75-1.5.65h-.1l-1.45-.3.05-.05q.3 0 .25-.3l-.25-.3q-.25 0-.25.35l.1.2-.45-.45q-.3-.4-.45-1.05l-.3-1.05.25-1.05.1-.15v.3q-.15.1-.15.5 0 .6.4.6l.2-.1.15.25.75 1.15q0 .65.85.5l.55-.15.55.3.7.15" fill="#c51010" fill-rule="evenodd" transform="translate(1 1)"/><path d="m16 33.7.2.55.15.3.8 1q1.35 1.25 2.45 1.35.95.15.35.75l-.2.1-.7-.15-.55-.3-.55.15q-.85.15-.85-.5l-.75-1.15-.15-.25.25-.45q-.1-.7-.45-.7l-.25.15v-.3q.05-.25.25-.55" fill="#6f0909" fill-rule="evenodd" transform="translate(1 1)"/><path d="m43.35 31.2.35 2.35-2.5 1.3-.1-2.65q-.45-3.7-2.75-8.4 4.2 2.75 5 7.4m1.85 8.1q.4 2 .05 3.7-.75 3.45-2.2 6.75l-.3.65.25-3.7-.05-1.6-.15-.55-.6-3 3-2.25" fill="#c41a1a" fill-rule="evenodd" transform="translate(1 1)"/><path d="m43.35 31.2 6.1-3.6 2.8-2.2 2.15-1.9 2-1.9v3.25q-.45 2.95-1.45 5.6L53.1 34.7q-.8 1.6-3.2 4.3-2.5 2.7-4.65 4 .35-1.7-.05-3.7l2.85-3.1q4.9-5.9 5.65-10.75-3.25 4.2-9.55 7.8l-.45.3-.35-2.35m-.55 13.35q-1.4.2-4.3.05-2.9-.25-5.95-2.65-3.1-2.45-3.25-4.4-.1-2.05 1.1-2.1l4.95-1.1q3.75-.95 5.75-2.15l.1 2.65-.15.05q-5.05 2.35-8.9 2.25l-1.35-.35v.1q0 1.95 2.6 3.85 2.4 1.85 4.7 1.9 1.9.05 4.1-1.1l.6 3" fill="#392b24" fill-rule="evenodd" transform="translate(1 1)"/><path d="m43.7 33.55.45-.3q6.3-3.6 9.55-7.8-.75 4.85-5.65 10.75l-2.85 3.1-3 2.25q-2.2 1.15-4.1 1.1-2.3-.05-4.7-1.9-2.6-1.9-2.6-3.85v-.1l1.35.35q3.85.1 8.9-2.25l.15-.05 2.5-1.3m-1.3 5 .4-.35q2.3-1.8 3-4.25l-1.95 1.5-.9.55-.15.05-.9.5h-.05q-.35.1-.7.3-3.15 1.3-5.6 1.55v.05l.2.65.45.45q.75.6 1.55.6 2.1.1 4.05-1.15l.6-.45" fill="#340c07" fill-rule="evenodd" transform="translate(1 1)"/><path d="m35.75 39.1-.2-.65v-.05q2.45-.25 5.6-1.55.35-.2.7-.3h.05l.9-.5v.75l-.1.05-.45-.2q-1.1-.05-1.1.9v.15l-.7 1.15-.8.4h-.55l-.95-.3-.5-.25-1.4.2-.5.2" fill="#6f0909" fill-rule="evenodd" transform="translate(1 1)"/><path d="m42.8 36.05.15-.05.9-.55 1.95-1.5q-.7 2.45-3 4.25l-.4.35v-.05l.25-.55h-.05l-.6.4q-.75-.1-.85-.65v-.15q0-.95 1.1-.9l.45.2.1.15v-.95m-4.15 3.55q0 .4-.4.35-.3 0-.45-.2l-.05-.15q0-.35.5-.35.4.05.4.35" fill="#fff" fill-rule="evenodd" transform="translate(1 1)"/><path d="m42.4 38.55-.6.45q-1.95 1.25-4.05 1.15-.8 0-1.55-.6l-.45-.45.5-.2 1.4-.2.5.25.95.3h.55l.8-.4.7-1.15q.1.55.85.65l.6-.4h.05l-.25.55v.05m-3.75 1.05q0-.3-.4-.35-.5 0-.5.35l.05.15q.15.2.45.2.4.05.4-.35" fill="#c51010" fill-rule="evenodd" transform="translate(1 1)"/><path d="M24.3 51.15h-.35q-1.5 0-2.55-1.2-1.05-1.05-1.3-2.2-.2-1.1.15-1.6.25-.55.85-.55l4 .1q3.4.35 3.4 1.95 0 1.5-1.7 2.6-1.35.8-2.5.9m-.75-4q0-.55-.95-.6-1.05-.05-1.05.5 0 .65 1.1.65l.65-.15.25-.4" fill="#392b24" fill-rule="evenodd" transform="translate(1 1)"/><path d="m16.6 52.2 1-1.2q.9-.95 1.25-.95l.35 3.85q.1 1.3.45 2.1l.75.95-.35-.15-.85-.55-.35-.25q-.8-.75-1.5-2.05l-.75-1.75m16.35 4.75.85-2.05.15-.95.15-1.8-.1-1.55-.1-.95-.15-1.3 1.85 2.25.45.65 1 1.55.65 1.35-.15.15-.25.2-2.45 1.7-1.55.65-.35.1m-9.4-9.8-.25.4-.65.15q-1.1 0-1.1-.65 0-.55 1.05-.5.95.05.95.6" fill="#fff" fill-rule="evenodd" transform="translate(1 1)"/><path d="m16.2 51.05.4 1.15 1-1.2q.9-.95 1.25-.95l.35 3.85q.1 1.3.45 2.1l.75.95q1.65.75 4.25.45l-.05-.05h.05q-.5-1-.5-2.9M16.6 52.2l.75 1.75q.7 1.3 1.5 2.05l.35.25.85.55.35.15m12.55 0 .85-2.05.15-.95.15-1.8-.1-1.55-.1-.95-.15-1.3 1.85 2.25.45.65 1 1.55.65 1.35 3.15-2.7m-7.9 5.5.35-.1 1.55-.65 2.45-1.7.25-.2.15-.15m-13.05 3.2 3.35.3 1.65-.05 3.3-.65m-8.65-5.8h-.35q-1.5 0-2.55-1.2-1.05-1.05-1.3-2.2-.2-1.1.15-1.6.25-.55.85-.55l4 .1q3.4.35 3.4 1.95 0 1.5-1.7 2.6-1.35.8-2.5.9v.05l-.15 2.35v.35m.5 3.45v.05" fill="none" stroke="#423024" stroke-linecap="round" stroke-linejoin="round" transform="translate(1 1)"/></g><g id="m"><path d="m89.45 24.6-8.55-3.55q-5.1-2.05-8.8-2.8l-5.9-1-4.6-.15-4.7.85-7.6 1.75q-3.5 1.1-7 2.85-3.6 1.65-8.6 5.9-5 4.2-9.5 13.25l-.15.3 1.2 1.05q1 .8 2.4 1.35l4.8.45 3.15.25q-.45.4-1.4 2.45-1 1.95-1 2.4-.05.45-.7-.35l-2.4-1.85q-1.8-1.25-4.9-1.15-3.15.1-3.5.55-2.75 6.4-4.2 13.2.05-3 .45-5.8 2.1-14.7 12.6-25.75 9-9.3 20.4-12.3l4.4-.85 6.05-.55h.9l3.6.15q12.4.95 22.25 8.3l1.3 1.05m-41.9 7.65q.15-.15.25-.2l.65 1.2.25.35 1 1.25 1.95 2.8 1.8 2.75q1.1 1.45 1.9 1.45.35 0 .8-.35l.1-.25.6-1.35L58 37.2q1.35-3.3 1.8-3.7l-4-1.3-2.3-.7-.95-.3-2.3-.7 2.65.55 6.95 1.3 2.4.1 2.8-.15 1.9-.25.6-.05 4.5.05 2.15-.5 2.85-1.9.55-.35-.45.4q-2.3 1.95-2.95 3.85l-1.05 6.75v.6l.05-.05q.5 1.45 4.4 4.3 4.1 3.15 5 3.15 1.95 0 3.75-1.1-1.55 1.55-2.55 3.15-2.85-.5-7.35-4.65l-4.5-4.45q1.55 4.95 3.45 8.35 1.05 1.85 6.65 4.95v.9l-3.8-1.3h-.15l-.05.05-12.1 1.5-4.25.8-3.6.7q-1.85.25-3.4 2.45-1.4 1.95-3.05 6.85l-.55 1.65q0-3.9.2-5.1l.35-3 .1-3V57q-.35-1.4-4.3-3.15L44.7 52.7l-1.25-.55-1.05-.5-2.85-1.25q7.55 2.65 9.7 2.95 2.05.2 2.35-.9.25-1.15 1.65-4.4.7-1.65 1.3-2.75-.55-1.85-1.85-4.75l-1.05-1.75-1.15-1.6-1.25-2.35-.7-1.1-1-1.5m8.7-32.2-.1.05.05-.1.05.05m2.05 6.4 1.45 6.65-.1.45-1.25-.05q-1.15-.05-1.25.35v-2.6L57.1 9.4 56.5 2l1.15 2.55.65 1.9M73.2 37.3q.65-3.15-1.1-4.1-2.05-.9-5.4-.4l-4.85.6q-.95.55-1.85 1.6-.95 1-1.75 2.45-.8 1.5-.9 2.1l-.2 1.35q-.1.8.15 1.55.2.75 1.3.75l4.85-.55 6.35-1.45q2.65-.8 3.4-3.9m-.1 9.25-1-2q-.65-1.25-.95-2.1l-6.3.3q-1.95.2-3.85.75-1.85.5-2.35.75l-2 .8q-1.25.4-1.9 1.45l-.4.8L53.2 50q-.45.9-.9 3.7-.45 2.7.6 2.75 1.9.45 4.5-.05l4.1-.75 4.75-.5 5.85-.85 5.75-.6h.05L76 51.3 74.45 49q-1.15-1.75-1.35-2.45m-59.3 15.9-3.15.6-2.55.45-.8.1-1.4.25v.05l-.45.2 1.2-.7 1.2-.6q1-.5 1.95-.85l2.35-.8 1.35-.4q.55-.25.55.9l-.25.8m102.3-7-2.25-.15-4.45.2q-.6-.2-.8-1.15l3.35-.15 1.95.45q1.8.45 2.2.8m-19.5-13.4q1-.05 2.15-1.6 1.05-1.6.45-3.15l.9.9.95 1.3.9 1.6q.55 1.15.05 1.25l-1.9.35q-1.3.25-2 1.55-1 1.8-1.4 3.4-.15 0-.55-1.1l-.6-1.5q-.9-1.9-2.45-3.25l1.95.25h1.55" fill="#fff" fill-rule="evenodd" transform="translate(1 1)"/><path d="m92.5 32.8-1.05 8.3.4.55.55.9-1.2.85-2 1.5-1.8 1.3-1.05 1q-1.8 1.1-3.75 1.1-.9 0-5-3.15-3.9-2.85-4.4-4.3l-.05-.25v-.3l1.05-6.75q.65-1.9 2.95-3.85l.7.25q3.8 1.5 7.25 4.05l7.4-1.2M56.15.1l.1-.05q6.45 7.15 9.65 15.2l-3.6-.15h-.9q-.45-3.8-1.2-6.5Q59 4.3 56.15.1M56 .4l-.6 6.15q-.45 3.8-.45 6l.2 2 .2 1.1-4.4.85Q52.05 8.45 56 .4m-3.1 30.65q3.8-1.9 8.05-2.65l4.85-.45h.85q5.2 0 9.8 1.45l.6.25-2.85 1.9-2.15.5-4.5-.05-.6.05-1.9.25-2.8.15-2.4-.1-6.95-1.3m20.2 15.5q.2.7 1.35 2.45L76 51.3l1.9 2.4h-.05l-5.75.6-5.85.85-4.75.5-4.1.75q-2.6.5-4.5.05-1.05-.05-.6-2.75.45-2.8.9-3.7l1.15-2.7.4-.8q.65-1.05 1.9-1.45l2-.8q.5-.25 2.35-.75 1.9-.55 3.85-.75l6.3-.3q.3.85.95 2.1l1 2m-24.55-12.8.7 1.1 1.25 2.35 1.15 1.6 1.05 1.75q1.3 2.9 1.85 4.75-.6 1.1-1.3 2.75-1.4 3.25-1.65 4.4-.3 1.1-2.35.9-2.15-.3-9.7-2.95l2.85 1.25-1.05-.4-4.75-2.05q.9-2.4 2.3-4.7l-3.85-8.65 9.95.75q1.7-1.6 3.55-2.85m11.3 38.9.3.05-.2-.05h-.1m-44.45-7.7-5.05.8h-1.4l-5.85-.8h-.7q2.85-2.15 5.25-3.5 4.25-2.65 6.6-2.95h.9l.25 6.45m-1.6-2.5.25-.8q0-1.15-.55-.9l-1.35.4-2.35.8q-.95.35-1.95.85l-1.2.6-1.2.7.45-.2v-.05l1.4-.25.8-.1 2.55-.45 3.15-.6" fill="#97a6b5" fill-rule="evenodd" transform="translate(1 1)"/><path d="m17.5 60.35-.05 1.45v.1q0 5 .85 9.65l-6.35-1.4-.55-.15Q5.35 68.2 0 65.35q8.3-6.95 17.95-10.8-.4 2.8-.45 5.8m19.8 19.4-.2-.25q.35-.25.65-.4 2.4-1.8.7-.7l1.95-1.5q9.45-7.35 13.45-6.25 3.9 1 5.95 1.95l.05.05h.1l.2.05.6.35.65.9h-.05q4.95 7.35 5.6 10.25l-6.75 1.25-2.55.05-2.15-.3-2.7-.55-4.25-1.05-6.7-2.1-1.4-.5-2.15-.8-1-.45m31.3 16.8q.65-3.15 1.8-5.95 2.65-6.5 8.15-11.05 2.55-2.1 5.6-3.7 1.6-.85 3.1-2.45 3.6 2.45 5.55 7.6 1.1 3.05 1.65 7h-7.8q-7.8 7.5-18.05 8.55m-53.2-31.6-.25-6.45h-.9q-2.35.3-6.6 2.95-2.4 1.35-5.25 3.5h.7l5.85.8h1.4l5.05-.8" fill="#53698a" fill-rule="evenodd" transform="translate(1 1)"/><path d="M38.85 85.35v-3.1l-1.55-2.5 1 .45 2.15.8 1.4.5q1.85 1.05 4.3 1.8l4.65 1.3 4.7 1.3q1.8.7 1.95 1.4.35 1.25-.05 3.05l-.05.3-1 3.7 1.35-3.95.5-1.35q0-.15.95-1.35.9-1.15 1.95-1.55l1.65-.65 1.85-.6 2.35-.7.9 6.9.25 5.5-2.9.15q-4.85 0-9.05-1.35l-.6-.15q-3.1-1-5.9-2.7L48.7 92l-9.85.6v-7.25" fill="#324856" fill-rule="evenodd" transform="translate(1 1)"/><path d="m92.45 42.6 2.1 3.85q3.15 6.95 3.15 15.3 0 3.5-.6 6.8-4.5 2.55-9.85 4.85-3.65-9.15-1.35-17.5t6.55-13.3m14.65 21.5.1-1.95v-.25l-.15-3.75-.05-.6.6.1 3.75.15h1l3.9-.5 3.35-1.1q-4.3 4.1-10 6.85l-2.5 1.05m-.55-10.4-.2-1.1-.5-2.45q4.85.85 8.85 2.65l-3.25-.2q-2.6 0-4.25.75l-.65.35m-33.4-13.1.05.25-.05.05v-.3m5.1 13.55 3.8 1.3-.3 9.7q-1.15 1.3-3.1 2.45l-5.15 1.75-13.35 3.35-.3-.05-.05-.05-4.05-1.95q-4.1-1.9-4.1-4.15 1.65-4.9 3.05-6.85 1.55-2.2 3.4-2.45l3.6-.7 4.25-.8 12.1-1.5.2-.05m3.8.4q-5.6-3.1-6.65-4.95-1.9-3.4-3.45-8.35l4.5 4.45q4.5 4.15 7.35 4.65-1.3 2-1.75 4.2M66.95 84.2q-.65-2.9-5.6-10.25h.05l-.65-.9-.6-.35Q73 70.65 77.8 70.35l5 1.1.25.05q1.7.45 2.85 1.05l1.35.85q-.4.15-.9.4-1.45.55-2.95 1.2-2.95 1.1-6.9 3.45l-9.2 5.5-.35.25m-9.65 24.2 5 .3q5.7 0 10.85-1.35-2.6 7.6-7.3 13.5-5.4-5.1-8.55-12.45m6.15 2.65q-1.3.55-1.3 1.6 0 1 1.25 3.15 1.15 2.15 1.95 2.6.75.4 2-2 1.25-2.5 1.2-4.15-.05-1.65-2.75-1.65-1.4 0-2.35.45" fill="#798c9f" fill-rule="evenodd" transform="translate(1 1)"/><path d="m78.05 54.2.05-.05h.15l-.2.05M51.1 68.15l.55-1.65q0 2.25 4.1 4.15l4.05 1.95q-2.05-.95-5.95-1.95-4-1.1-13.45 6.25l10.5-8.55.2-.2m9.05 4.55 13.35-3.35 5.15-1.75q1.95-1.15 3.1-2.45V66q.95 2.15 2 3.5l2.15 3.05q-1.15-.6-2.85-1.05l-.25-.05-5-1.1q-4.8.3-17.65 2.35m3.3 38.35q.95-.45 2.35-.45 2.7 0 2.75 1.65.05 1.65-1.2 4.15-1.25 2.4-2 2-.8-.45-1.95-2.6-1.25-2.15-1.25-3.15 0-1.05 1.3-1.6" fill="#d2d9df" fill-rule="evenodd" transform="translate(1 1)"/><path d="m92.4 42.55.05.05q-4.25 4.95-6.55 13.3-2.3 8.35 1.35 17.5 5.35-2.3 9.85-4.85-.9 5.3-3.25 9.95l.15 1.7.05.2.7 7.6h-.3q-.55-3.95-1.65-7-1.95-5.15-5.55-7.6-1.5 1.6-3.1 2.45-3.05 1.6-5.6 3.7-5.5 4.55-8.15 11.05-1.15 2.8-1.8 5.95l-.5.05-.25-5.5-.9-6.9-2.35.7-1.85.6-1.65.65q-1.05.4-1.95 1.55-.95 1.2-.95 1.35l-.5 1.35-1.35 3.95 1-3.7.05-.3q.4-1.8.05-3.05-.15-.7-1.95-1.4l-4.7-1.3-4.65-1.3q-2.45-.75-4.3-1.8l6.7 2.1 4.25 1.05 2.7.55 2.15.3 2.55-.05 6.75-1.25.35-.25 9.2-5.5q3.95-2.35 6.9-3.45 1.5-.65 2.95-1.2.5-.25.9-.4l-1.35-.85-2.15-3.05q-1.05-1.35-2-3.5v-.85l.3-9.7v-.9q.45-2.2 1.75-4.2 1-1.6 2.55-3.15l1.05-1 1.8-1.3 2-1.5 1.2-.85" fill="#a6c1ea" fill-rule="evenodd" transform="translate(1 1)"/><path d="m107 57.55-.45-3.85.65-.35q1.65-.75 4.25-.75l3.25.2h.05l2.7 1.35.4.2 2.2 1.4v.05l-.45.4-3.35 1.1-3.9.5h-1l-3.75-.15-.6-.1M56.15.1Q59 4.3 60.2 8.6q.75 2.7 1.2 6.5l-6.05.55-.2-1.1-.2-2q0-2.2.45-6L56 .4l.15-.3m2.15 6.35-.65-1.9L56.5 2l.6 7.4.05 1.85v2.6q.1-.4 1.25-.35l1.25.05.1-.45-1.45-6.65M52.55 31.2l.95.3 2.3.7 4 1.3q-.45.4-1.8 3.7l-1.15 2.7-.6 1.35-.1.25q-.45.35-.8.35-.8 0-1.9-1.45l-1.8-2.75-1.95-2.8-1-1.25.3-.2.25-.2q1.1-.75 2.15-1.35.7-.4 1.15-.65m20.65 6.1q-.75 3.1-3.4 3.9l-6.35 1.45-4.85.55q-1.1 0-1.3-.75-.25-.75-.15-1.55l.2-1.35q.1-.6.9-2.1Q59.05 36 60 35q.9-1.05 1.85-1.6l4.85-.6q3.35-.5 5.4.4 1.75.95 1.1 4.1m42.9 18.15q-.4-.35-2.2-.8l-1.95-.45-3.35.15q.2.95.8 1.15l4.45-.2 2.25.15" fill="#bac5cd" fill-rule="evenodd" transform="translate(1 1)"/><path d="m50 30.7.25-.2q4.35-2.4 9.3-3.25l4.8-.45h.85q5.2 0 9.8 1.45l1.45.55 1.15.5q3.15 1.4 6.05 3.55l9.05-1.45-.2 1.4-7.4 1.2q-3.45-2.55-7.25-4.05l-.7-.25.45-.4-.55.35-.6-.25q-4.6-1.45-9.8-1.45h-.85l-4.85.45q-4.25.75-8.05 2.65l-2.65-.55 2.3.7q-.45.25-1.15.65-1.05.6-2.15 1.35l-.25.2-.3.2-.25-.35-.65-1.2L50 30.7M37.1 79.5q-4.4-7.95-4.4-17.75 0-2.5.25-4.9.45-3.4 1.35-6.5l.35-.9.35-.95v-.05q.95-2.65 2.45-5.1L33.6 34.7l9.95.75q1.95-1.85 4-3.2l1 1.5Q46.7 35 45 36.6l-9.95-.75 3.85 8.65q-1.4 2.3-2.3 4.7l4.75 2.05 1.05.4 1.05.5 1.25.55 2.75 1.15q3.95 1.75 4.3 3.15v.05l-.1 3-.35 3q-.2 1.2-.2 5.1l-.2.2-10.5 8.55-1.95 1.5q1.7-1.1-.7.7-.3.15-.65.4" fill="#6f7ea2" fill-rule="evenodd" transform="translate(1 1)"/><path d="m50.25 30.5-.25.2-2.2 1.35q-.1.05-.25.2-2.05 1.35-4 3.2l-9.95-.75 3.85 8.65q-1.5 2.45-2.45 5.1v.05l-.35.95-.35.9q-.9 3.1-1.35 6.5-.25 2.4-.25 4.9 0 9.8 4.4 17.75l.2.25 1.55 2.5v3.1l-4.9-1.8q-8.6-3.35-14.35-7.05l-.6-1.95-.7-3q-.85-4.65-.85-9.65v-.1l.05-1.45q1.45-6.8 4.2-13.2.35-.45 3.5-.55 3.1-.1 4.9 1.15l2.4 1.85q.65.8.7.35 0-.45 1-2.4.95-2.05 1.4-2.45l-3.15-.25-4.8-.45q-1.4-.55-2.4-1.35L24.05 42l.15-.3q4.5-9.05 9.5-13.25 5-4.25 8.6-5.9 3.5-1.75 7-2.85l7.6-1.75 4.7-.85 4.6.15 5.9 1q3.7.75 8.8 2.8l8.55 3.55L94 28.8q9 9.35 11.85 21.35l.5 2.45.2 1.1.45 3.85.05.6.15 3.75v.25l-.1 1.95-.2 3.25q-3.85 5.7-7.95 9.05l-3.35 2.65L94 80.2l-.15-1.7q2.35-4.65 3.25-9.95.6-3.3.6-6.8 0-8.35-3.15-15.3l-2.1-3.85-.05-.05-.55-.9-.4-.55 1.05-8.3.2-1.4-9.05 1.45q-2.9-2.15-6.05-3.55l-1.15-.5-1.45-.55q-4.6-1.45-9.8-1.45h-.85l-4.8.45q-4.95.85-9.3 3.25M35 48.45q-.25.45-.35 1 .1-.55.35-1m61.6-6.4h-1.55l-1.95-.25q1.55 1.35 2.45 3.25l.6 1.5q.4 1.1.55 1.1.4-1.6 1.4-3.4.7-1.3 2-1.55l1.9-.35q.5-.1-.05-1.25l-.9-1.6-.95-1.3-.9-.9q.6 1.55-.45 3.15-1.15 1.55-2.15 1.6" fill="#d1dbe0" fill-rule="evenodd" transform="translate(1 1)"/><path d="m94 80.2 1.6-1.15 3.35-2.65q4.1-3.35 7.95-9.05-.55 4.8-1.85 9.2-3.2 10.2-11.05 18.4-9.1 9.55-20.85 12.4Q68 108.7 62.3 108.7l-5-.3q-13.9-1.5-24.5-11.25l-2.25-2.2-.95-1.05q-7.15-7.85-10-17.4 5.75 3.7 14.35 7.05l4.9 1.8v7.25l9.85-.6.95.55q2.8 1.7 5.9 2.7l.6.15q4.2 1.35 9.05 1.35l2.9-.15.5-.05Q78.85 95.5 86.65 88h8.1l-.7-7.6-.05-.2" fill="#a8b1c6" fill-rule="evenodd" transform="translate(1 1)"/><path d="M50.25 30.5q4.35-2.4 9.3-3.25l4.8-.45h.85q5.2 0 9.8 1.45l1.45.55 1.15.5q3.15 1.4 6.05 3.55l9.05-1.45-.2 1.4-1.05 8.3.4.55.55.9.05.05 2.1 3.85q3.15 6.95 3.15 15.3 0 3.5-.6 6.8-.9 5.3-3.25 9.95l.15 1.7m13.1-16.1.1-1.95v-.25l-.15-3.75-.05-.6-.45-3.85-.2-1.1-.5-2.45M17.5 60.35l-.05 1.45v.1q0 5 .85 9.65m20.55 13.8v-3.1l-1.55-2.5-.2-.25q-4.4-7.95-4.4-17.75 0-2.5.25-4.9.45-3.4 1.35-6.5l.35-.9q.1-.55.35-1 .95-2.65 2.45-5.1L33.6 34.7l9.95.75q1.95-1.85 4-3.2.15-.15.25-.2L50 30.7M17.95 54.55q-.4 2.8-.45 5.8M61.4 15.1h.9l3.6.15m-10.55.4 6.05-.55m-6.05.55-4.4.85M68.6 96.55Q78.85 95.5 86.65 88h8.1l-.7-7.6M68.1 96.6l.5-.05m-.5.05-2.9.15q-4.85 0-9.05-1.35l-.6-.15q-3.1-1-5.9-2.7L48.7 92l-9.85.6v-7.25M57.3 108.4l5 .3q5.7 0 10.85-1.35" fill="none" stroke="#18262c" stroke-linecap="round" stroke-linejoin="round" transform="translate(1 1)"/><path d="m107.9 68.35.2-3.25 2.5-1.05q5.7-2.75 10-6.85l.45-.4v-.05l-2.2-1.4-.4-.2-2.7-1.35h-.05q-4-1.8-8.85-2.65Q104 39.15 95 29.8l-4.55-4.2-1.3-1.05q-9.85-7.35-22.25-8.3-3.2-8.05-9.65-15.2L57.2 1l-.05.1-.15.3q-3.95 8.05-5.05 16.1-11.4 3-20.4 12.3-10.5 11.05-12.6 25.75Q9.3 59.4 1 66.35 6.35 69.2 12.4 71l.55.15 6.35 1.4.7 3 .6 1.95q2.85 9.55 10 17.4l.95 1.05 2.25 2.2q10.6 9.75 24.5 11.25 3.15 7.35 8.55 12.45 4.7-5.9 7.3-13.5Q85.9 105.5 95 95.95q7.85-8.2 11.05-18.4 1.3-4.4 1.85-9.2z" fill="none" stroke="#18262c" stroke-linecap="round" stroke-linejoin="round" stroke-width="2"/></g><path d="M0 0h.65" fill="none" stroke="#000" stroke-linecap="round" stroke-linejoin="round" transform="translate(.5 .5)" id="b"/><path d="M115.8 44.05Q95.95 51.6 67.85 51.6q-28.15 0-48.05-7.55Q0 36.5 0 25.8T19.8 7.55Q39.7 0 67.85 0q28.1 0 47.95 7.55t19.85 18.25q0 10.7-19.85 18.25" fill-opacity=".349" fill-rule="evenodd" id="c"/><path d="m0 0 .2.15" fill="none" stroke="#000" stroke-linecap="round" stroke-linejoin="round" transform="translate(.5 .5)" id="f"/></defs></svg>