<svg xmlns:ffdec="https://www.free-decompiler.com/flash" xmlns:xlink="http://www.w3.org/1999/xlink" ffdec:objectType="frame" height="90" width="90" xmlns="http://www.w3.org/2000/svg"><use ffdec:characterId="49" height="331.65" transform="translate(-4.02 2.01) scale(.2513)" width="391.65" xlink:href="#a"/><defs><g id="a" transform="translate(16 -8)"><use ffdec:characterId="1" height="7.2" transform="matrix(3.6359 0 0 6.85 74.28 290.21)" width="45.5" xlink:href="#b"/><use ffdec:characterId="6" height="176.15" transform="translate(-2.2 153.954) scale(.6819)" width="544.1" xlink:href="#c"/><use ffdec:characterId="8" height="47.75" transform="translate(108.45 194.35) scale(.6819)" width="42.05" xlink:href="#d"/><use ffdec:characterId="10" height="117.45" transform="translate(121 182) scale(.6819)" width="86.7" xlink:href="#e"/><use ffdec:characterId="12" height="122.4" transform="translate(94.15 237.6) scale(.6819)" width="82.3" xlink:href="#f"/><use ffdec:characterId="14" height="50" transform="translate(127.2 231.35) scale(.6819)" width="58.75" xlink:href="#g"/><use ffdec:characterId="16" height="137.5" transform="translate(149.15 229.85) scale(.6819)" width="98.5" xlink:href="#h"/><use ffdec:characterId="18" height="118.75" transform="translate(107.3 185.35) scale(.6819)" width="142.1" xlink:href="#i"/><use ffdec:characterId="20" height="324.75" transform="translate(185.6 26.6) scale(.6819)" width="261.4" xlink:href="#j"/><use ffdec:characterId="22" height="80.8" transform="translate(189.15 200.3) scale(.6819)" width="129.35" xlink:href="#k"/><use ffdec:characterId="24" height="35.1" transform="translate(178.7 194.6) scale(.6819)" width="31.5" xlink:href="#l"/><use ffdec:characterId="26" height="46.55" transform="translate(166.1 181.9) scale(.6819)" width="39.35" xlink:href="#m"/><use ffdec:characterId="32" height="283.65" transform="translate(77.2 8) scale(.6819)" width="255.1" xlink:href="#n"/><use ffdec:characterId="34" height="53.45" transform="translate(52.9 211.45) scale(.6819)" width="92.6" xlink:href="#o"/><use ffdec:characterId="42" height="187.55" transform="translate(-16 10.015) scale(.6819)" width="135.45" xlink:href="#p"/><use ffdec:characterId="45" height="53.6" transform="translate(30.214 264) scale(.6819)" width="133.65" xlink:href="#q"/><use ffdec:characterId="48" height="123.7" transform="translate(207.726 121.106) scale(.6819)" width="133.2" xlink:href="#r"/><use ffdec:characterId="42" height="187.55" transform="matrix(.7485 .0719 -.0719 .7485 266.557 64.821)" width="135.45" xlink:href="#p"/></g><g id="u" fill-rule="evenodd"><path d="m481.8 37.7 41.75 6.5L506 47.6l-24.2-9.9m25.75 12.75 17.5-2.9Q496.9 61.05 472.6 78.6l34.95-28.15" fill="#6ceaf8"/><path d="m506 47.6 17.55-3.4-41.75-6.5-12.45-1.95L460.6 39q-39.2 13.75-92 19.15l25.7 5.25 25.75 5.3Q461.7 56.5 506 47.6m-33.4 31q24.3-17.55 52.45-31.05l-17.5 2.9q-27.2 4.85-55.35 12.45-15.95 4.3-32.15 9.45-35.8-5.35-64.15-15.1-51.85-9.8-80.35-48.55 13.55 7.6 27.05 21.9 60.3 44.15 164.65 0l76.85 13.3Q457.25 83 417 141.35q-28.4 21.2-56.9 26h-78.05q-49.55-2.8-96.25 0-65.05 13.45-99.25-45.95l-11.5-9.1h-24.8Q14.9 96.8 0 66.95 21.75 76 46.6 76q35.15-8.6 62.35-17.55l34.5 14.5 18.75-7.85q20.4-21.45 38.15-47.2 7.6-6.2 15.25-10.2-29.3 41.45-62.15 74.05l3.9-8.8-16.95 5.15-16.05-6.65-16-6.65-55.7 17.55L12.3 78.1q9.2 11.3 19.55 18.25 19.4 12.9 42.9 10.2l17.55 10.9q3.85 6.7 8.2 12.5 29.35 39 79.85 33.2 62.65-4.1 123.85-2.65l57.75 2.65q27.05-10.6 48.4-25.1 8.25-10.4 17.3-20 20.45-21.7 44.75-39.3l.2-.15" fill="#2e073d"/><path d="m481.8 37.7 24.2 9.9q-44.3 8.9-85.95 21.1l-25.75-5.3 27.25-2.55 48.7-18.45-9.65-3.4 8.75-3.25 12.45 1.95" fill="#771c5b"/><path d="m394.3 63.4-25.7-5.25q52.8-5.4 92-19.15l9.65 3.4-48.7 18.45-27.25 2.55m-90.1 97.1q-61.2-1.45-123.85 2.65-50.5 5.8-79.85-33.2 42.4 46.7 171.55 9.9 34.55 13.2 72.6 18.35l-40.45 2.3" fill="#4a0c51"/><path d="M507.55 50.45 472.6 78.6l-.2.15q-24.3 17.6-44.75 39.3l-30.55 23-38.75 16.35-13.7.8q-38.05-5.15-72.6-18.35-129.15 36.8-171.55-9.9-4.35-5.8-8.2-12.5l-17.55-10.9-29.65-16.3L56.65 88l12.4-2.35L81.4 83.3l32.1-8.8 39.95 7.25 34.05-18.3Q175.15 76.25 161.6 86h-39.35L94.1 112.9l29.35 10.65q17.2 7.4 24.55 17.2 69.3 6.9 123.15-26.3 80.3 16.05 136.15-20.3h-9.05L452.2 62.9q28.15-7.6 55.35-12.45" fill="#370631"/><path d="M275.55 8.7q28.5 38.75 80.35 48.55 28.35 9.75 64.15 15.1 16.2-5.15 32.15-9.45l-53.95 31.25h9.05q-55.85 36.35-136.15 20.3-53.85 33.2-123.15 26.3-7.35-9.8-24.55-17.2L94.1 112.9 122.25 86h39.35q13.55-9.75 25.9-22.55Q211.55 38.4 231.05 1.7q22.2-5.5 44.5 7" fill="#230534"/><path d="M427.65 118.05q-9.05 9.6-17.3 20-21.35 14.5-48.4 25.1l-57.75-2.65 40.45-2.3 13.7-.8 38.75-16.35 30.55-23" fill="#6beaf8"/><path d="M153.45 81.75Q186.3 49.15 215.6 7.7q7.7-4.1 15.45-6-19.5 36.7-43.55 61.75l-34.05 18.3" fill="#8d2466"/><path d="m124.35 71.45 16.05 6.65 16.95-5.15-3.9 8.8-39.95-7.25-32.1 8.8-12.35 2.35 37.5-14.2h17.8" fill="#5f0f5c"/><path d="M31.85 96.35Q21.5 89.4 12.3 78.1l40.35 4.25 55.7-17.55 16 6.65h-17.8l-37.5 14.2L56.65 88l-29.4-3.5 4.6 11.85" fill="#98286b"/><path d="M74.75 106.55q-23.5 2.7-42.9-10.2l-4.6-11.85 29.4 3.5-11.55 2.25 29.65 16.3" fill="#691160"/></g><g id="v" fill-rule="evenodd"><path d="M.85 40.45 0 38.7l2.7-8.05 7.75-3.2L29.5 1.3l2.95-.85-15.9 21.95-4.45 6.15L4.55 31l-1.15.35-2.05 7.45-.5 1.65M41.9 5.4q.8 5.15-2.4 15.3-13.75 13.7-18.15 27.05H4.4L3.3 45.5h16.2l1-2.3q5.55-12.5 17.2-23.3 2.45-5.55 4.2-14.5" fill="#72454c"/><path d="m1.35 38.8 2.05-7.45L4.55 31l7.1 5.85 7.4-8-2.5-6.45L32.45.45q4.6-1.15 7 .5L15.3 40.05 1.35 38.8" fill="#e6d4ba"/><path d="m4.55 31 7.55-2.45 4.45-6.15 2.5 6.45-7.4 8L4.55 31" fill="#ffe"/><path d="m3.3 45.5-1.1-2.3h18.3l-1 2.3H3.3" fill="#ecddc0"/><path d="m.85 40.45.5-1.65 13.95 1.25L39.45.95q1.95 1.3 2.45 4.45-1.75 8.95-4.2 14.5-11.65 10.8-17.2 23.3H2.2L.85 40.45" fill="#b46f70"/></g><g id="x" fill-rule="evenodd"><path d="M23.3 74.2 8.75 70.05v-12.1L50.2.75l4.05-.6-8.35 12.1-4.5 6.5-3.15 4.55L26.9 39.8 12.1 61.25v6.65l7.65 2.25 7.6 2.2-3.8 1.75-.25.1" fill="#300719"/><path d="M45.9 12.25 54.25.15Q78.15-2.2 81.8 30.3L70.2 47.05 73.25 71l-2.15-3.1-10.45-23.75q5.6-14-7.55-9.8l-7.25-12.1q4.8-6.35.05-10" fill="#410b23"/><path d="m38.25 23.3 3.15-4.55 8.8 20 5.35 2.4v10.4l2.9 9.25H55.8l-5.25-2.75L38 39.8l3.15-10-2.9-6.5" fill="#8d2436"/><path d="m26.9 39.8 11.35-16.5 2.9 6.5-3.15 10 12.55 18.25-14.1-7.4-9.1 5.35-7.6 4.45 6.85-8.75.3-11.9" fill="#d02024"/><path d="m41.4 18.75 4.5-6.5q4.75 3.65-.05 10l7.25 12.1q13.15-4.2 7.55 9.8L71.1 67.9h-4.4l-5.6-7.1h-2.65l-2.9-9.25v-10.4l-5.35-2.4-8.8-20" fill="#6c172a"/><path d="m82.15 34 .15 2.75-6.95 11.5q6.15 19.5 5.15 36.6l-8.75-5.4-7.4 3.65-.4-3.9q6.75-2.65 13.05.1l-6.5-9.7h-5l-2.9-3.15L59 62.5l-3.5.15-19.2-9.55-5.8 3.35-3.15 1.85V56l9.1-5.35 14.1 7.4 5.25 2.75h5.3l5.6 7.1h4.4l2.15 3.1 2.25 3.1-2.6-26L82.15 34" fill="#250c0d"/><path d="m23.3 74.2.25-.1 3.8-1.75V58.3l3.15-1.85-.4 7.9q-.35 4.35-1.15 7.7-1.25 5.4-3.55 8.45l1.65 1.7 1.7 1.75 8.15-4.65Q49.85 86.85 52.5 96l.6 2.8 7.55-7.15L59 62.5l3.6 3.95 1.35 12.75.4 3.9 1 10.1q-3.35 5.3-8.95 9.4-7.05 14.9-22.1 19.8l-8.15-7.75-6.05 5.2-6.5-6.4-3.65 2Q-11.6 94 13.45 76.4q4.75-.2 9.85-2.2m-14.35 34 1 1.35 2.9-2.45q-5.7-10.75 1.4-21.55Q15.8 83.2 18 80.8q-21.6 10.5-9.05 27.4m40.5-15.75q-1.6-2.6-4.4-5.2-3.1-2.85-7.55-5.7-19.9 11.3-4.8 33.4l1.75 2.45q3.45-1.75 6.2-3.6 15.55-10.35 8.8-21.35m-31.5 17.25 2.45 2.7 5.45-4.85q-5-10.75 1.65-22.05l-4.5-5Q4.2 93 17.95 109.7" fill="#824f53"/><path d="M27.35 56v2.3l-8.3 4.8Q18 63.65 17 64.25l-1.3-1.45 4.05-2.35 7.6-4.45" fill="#2f051b"/><path d="M19.75 70.15 12.1 67.9v-6.65L26.9 39.8l-.3 11.9-6.85 8.75-4.05 2.35 1.3 1.45 2.75 5.9M81.8 30.3l.35 3.7-9.25 14.1 2.6 26-2.25-3.1-3.05-23.95L81.8 30.3" fill="#6a172a"/><path d="m27.35 72.35-7.6-2.2-2.75-5.9q3.45 3.35 10.35 5.35v2.75" fill="#3f0b23"/><path d="M28.95 72.05q.8-3.35 1.15-7.7Q43.95 63 44.8 79.3h-7.9l-8.15 4.65-1.7-1.75L32.8 75l-3.85-2.95M52.5 96l4.8-4.95L59 62.5l1.65 29.15-7.55 7.15-.6-2.8" fill="#e8d6bb"/><path d="M28.95 72.05 32.8 75l-5.75 7.2-1.65-1.7q2.3-3.05 3.55-8.45" fill="#ffffef"/><path d="M17 64.25q1-.6 2.05-1.15l8.3 6.5q-6.9-2-10.35-5.35" fill="#1c0d05"/><path d="M27.35 58.3v11.3l-8.3-6.5 8.3-4.8" fill="#400b22"/><path d="m30.5 56.45 5.8-3.35 19.2 9.55 3.5-.15-1.7 28.55L52.5 96q-2.65-9.15-15.6-16.7h7.9Q43.95 63 30.1 64.35l.4-7.9" fill="#aa5d67"/><path d="M14.25 85.55q-7.1 10.8-1.4 21.55l-2.9 2.45-1-1.35q-3.45-14 5.3-22.65m20.2 31.85-1.75-2.45q-.5-16.7 4.8-33.4 4.45 2.85 7.55 5.7-6.75 13.3-4.55 21.35l-6.05 8.8M23 80.5l4.5 5q-6.65 11.3-1.65 22.05l-5.45 4.85-2.45-2.7Q12.9 95.9 23 80.5" fill="#e2ceb5"/><path d="M45.05 87.25q2.8 2.6 4.4 5.2.2 12.75-8.8 21.35-2.75 1.85-6.2 3.6l6.05-8.8q-2.2-8.05 4.55-21.35" fill="#aa5e67"/><path d="M8.95 108.2Q-3.6 91.3 18 80.8q-2.2 2.4-3.75 4.75-8.75 8.65-5.3 22.65m9 1.5Q4.2 93 23 80.5q-10.1 15.4-5.05 29.2" fill="#f8f3e2"/><path d="M49.45 92.45q6.75 11-8.8 21.35 9-8.6 8.8-21.35" fill="#d9bba9"/><path d="M32.7 114.95q-15.1-22.1 4.8-33.4-5.3 16.7-4.8 33.4" fill="#ffffed"/><path d="m62.6 66.45 2.9 3.15h5l6.5 9.7q-6.3-2.75-13.05-.1L62.6 66.45" fill="#400a22"/></g><g id="y" fill-rule="evenodd"><path d="m17.3 36.35-.65-2.3-5-4.6-5.8-5.95q-2.35-2.1-4-5.65Q0 13.9 0 9.95q0-3.6 5-7Q9.35 0 12.25 0q1.1 0 11.1 9.6L28 14h30.75Q58.2 19.6 57 24.6q-7.55-2.85-14.45 3.6L45 30.15q-8.7 9.05-12.75 19.1l-9.5-.75-5.45-12.15" fill="#400a22"/><path d="m55.7 29.1-2.35 5.8Q46.15 32.6 46 46l-4.2 4-.6-10.15 8.95-10.75h5.55" fill="#8a2336"/><path d="M53.35 34.9Q50.4 41.15 46 46q.15-13.4 7.35-11.1" fill="#cf2024"/><path d="m57 24.6-1.3 4.5h-5.55L41.2 39.85 41.8 50l-9.55-.75Q36.3 39.2 45 30.15l-2.45-1.95q6.9-6.45 14.45-3.6" fill="#69172a"/><path d="M41.8 50H21.55q-2.6-4.5-4.25-13.65l5.45 12.15 9.5.75 9.55.75" fill="#2e051a"/></g><g id="z" fill-rule="evenodd"><path d="m38.75 0 2.7.1L88.1 60.9l-5.75 12.15-3.7 1.3-2.2.8-4.2 1.5-2.55-5.95 5.25-1.3-5.3-6.8-3.4.2-2.95.1-34.35 1.65v7.6l-6.7 2.4-5.15 11.8 7.9-3.3 6 10-1 3.1-5.15-9.5-11.2 3.6-13.6-39.3.35-.5L15.5 84.4l2-4.05 3.75-7.6 6-2v-8.6l31.65-1.8 11.8-.65 7.3 8.65 3.4-5.3 1.25-2L38.75 0" fill="#3e071f"/><path d="m70.7 59.7-11.8.65-8.05-9-5.6 2.9Q31.6 36.35 18.35 31.1l-8.5 9.85Q7.35 67 17.5 80.35l-2 4.05L.4 50.45 12 32.95l-2-3.05q9.8-12.85 39.65 18.15L61 45.75l9.7 13.95" fill="#69172a"/><path d="m58.9 60.35-31.65 1.8v8.6l-6 2-3.75 7.6Q7.35 67 9.85 40.95l8.5-9.85q13.25 5.25 26.9 23.15l5.6-2.9 8.05 9" fill="#8a2336"/><path d="m35.85 98.7 7.75.05 11.2-12.1q-5.4-10-13.45-15-10.05-6.5-5 12.9l-4.75-11.6q1.65-6.65 12-5.8 17.35 8.4 15.2 24.25l-2.5-.95-10.4 13.9-11.55-3.15 1.5-2.5m23.1 24.9-4.9-3.35-6.5-15 3.6-4.7q2.15 11.75 7.8 23.05m-14.9-17.35 1.55.55 5.55 12.1-7.55 11.95-1.8-1.15-1.95-5.8q8.7-7.7 4.2-17.65" fill="#e2ceb5"/><path d="M36.35 84.55q-5.05-19.4 5-12.9 8.05 5 13.45 15l-11.2 12.1-7.75-.05 3.7-6.3-3.2-7.85m34.95 44.9q-6.4-2.1-12.35-5.85-5.65-11.3-7.8-23.05l6.05-8q10.85 17.4 14.1 36.9m-29.5.25q-18.2-11.6-7.75-27l10 3.55q4.5 9.95-4.2 17.65l1.95 5.8" fill="#ffffed"/><path d="m30 96.15 1-3.1q1.35-3.35 3.7-6.55l-5.75-14.35V66.4l2.65 6.55 4.75 11.6 3.2 7.85-3.7 6.3-1.5 2.5 11.55 3.15 10.4-13.9 2.5.95 11.6 4.45 5.8-4.5 1.9-1.5-6.65-3.5-8.1-23.3-.05-.15 2.95-.1 3.45 7.9 2.55 5.95 3 7 1.5.65 4.5 2.1 2.9 1.3q24.7 18.5 6.95 39.5l-9.35-4.1-8.8 11.8-19.5-8.3-9.25 10.9q-27.9-13.75-14.95-35.9.05-2.75.75-5.45m41.3 33.3 6.35-15.55q-1.75-8.05-6.8-15.6L57.2 92.55l-6.05 8-3.6 4.7 6.5 15 4.9 3.35q5.95 3.75 12.35 5.85m-29.5.25 1.8 1.15 7.55-11.95-5.55-12.1-1.55-.55-10-3.55q-10.45 15.4 7.75 27m40.3-37.75-2.6-1.05-7.1 6.35q5.95 8.95 7.4 17.85l10.55 5.75 4.15-11.05q-3.65-13.4-12.4-17.85" fill="#7f4d52"/><path d="M28.95 66.4v-1.85L63.3 62.9l.05.15 6.6 25.1 6.25 3.2-5.8 4.5-11.6-4.45q2.15-15.85-15.2-24.25-10.35-.85-12 5.8l-2.65-6.55" fill="#aa5e67"/><path d="m31 93.05-6-10-7.9 3.3 5.15-11.8 6.7-2.4L34.7 86.5q-2.35 3.2-3.7 6.55" fill="#3f0a22"/><path d="m66.25 62.8 3.4-.2 5.3 6.8-5.25 1.3-3.45-7.9m12.4 11.55 3.7-1.3q3.5 8.1-1.1 13.35l-4.5-2.1q3.8-2.35 1.9-9.95" fill="#3d071f"/><path d="m72.25 76.65 4.2-1.5.3 9.15-1.5-.65-3-7" fill="#e14d50"/><path d="m63.35 63.05 8.1 23.3 6.65 3.5-1.9 1.5-6.25-3.2-6.6-25.1" fill="#ecdcc0"/><path d="m81.4 63.05-3.4 5.3-7.3-8.65L61 45.75l-11.35 2.3Q19.8 17.05 10 29.9l2 3.05L.4 50.45l-.4-.8Q-.85-.1 38.75 0L81.4 63.05" fill="#420f1a"/><path d="m57.2 92.55 13.65 5.75q5.05 7.55 6.8 15.6l-6.35 15.55q-3.25-19.5-14.1-36.9m22.6 22.55q-1.45-8.9-7.4-17.85l7.1-6.35 2.6 1.05q8.1 12.15 8.95 25L79.8 115.1" fill="#ab5d67"/><path d="m38.75 0 43.9 61.05-1.25 2L38.75 0" fill="#6ef6fe"/><path d="m76.45 75.15 2.2-.8q1.9 7.6-1.9 9.95l-.3-9.15" fill="#64e8f7"/><path d="m79.8 115.1 11.25 1.85q-.85-12.85-8.95-25 8.75 4.45 12.4 17.85l-4.15 11.05-10.55-5.75" fill="#ebd8bd"/></g><g id="A" fill-rule="evenodd"><path d="M37.05 15.75 26.3 31.3l-8.45 2.1 19.2-17.65" fill="#ffffb3"/><path d="m26.3 31.3 7-6.5-8.2 14.05 1.55 5.65 3.3 11.9L16.35 72v9.4l-.95 1.7-10.05 18-1.4 2.55 17.25-8.2 2.2-14.3 1.55-10.2 8.8-11.2-2-22.85Q38.2 23.85 48.7 16.4l.35 1.45q-10.7 8.7-15.75 21l2.25 22-9.4 12.35-2.85 24.55L0 107.7l13.3-26.45 1.65-10.75L28.3 56.25 23 38.55l2.3-5.45-14.7 5 26.9-25.25q2.35-1.15 4.25-1.45l-4.7 4.35-19.2 17.65 8.45-2.1" fill="#4d1f00"/><path d="m26.65 44.5-1.55-5.65 8.2-14.05-7 6.5 10.75-15.55 4.7-4.35q2.6-.45 4.35.8-15 13.95-19.45 32.3" fill="#f7c14b"/><path d="M26.65 44.5Q31.1 26.15 46.1 12.2q1.75 1.25 2.6 4.2-10.5 7.45-16.95 20.5l2 22.85-8.8 11.2-1.55 10.2-.55-11.7 7.1-13.05-3.3-11.9" fill="#954302"/><path d="m23.4 81.15-2.2 14.3-17.25 8.2 1.4-2.55 10.05-5.8V83.1l.95-1.7V72l13.6-15.6-7.1 13.05.55 11.7" fill="#f7bd48"/><path d="m5.35 101.1 10.05-18v12.2l-10.05 5.8" fill="#ffffae"/><path d="M77.65 61.85Q81.05 72.9 62 85.75l-8.4-7.4Q71.8 60.1 61.25 59.9q-4.65 5.15-8.9 0Q44.3 55.65 41 61.4q-5.95-3.25-4.85-11.95-4.55-6.45 0-10.6-.4-13.7 12.75-7.7l1.5-2.25q-.9-7.9 5-12.45-3.15 3.9-3.15 7.75-.05 1.5.4 3.05 5.2-.3 10 1l2.1.65q4.8-2.5 2.7-10.45l1.55.3 1 1.7q4.6.3 7.15 2.9l1.15 1.45q2 3.1 2.05 8.3 1.9 3.95 0 7.9 2.5 5.8 2.4 8.9 6.05 9.05 1.65 16.95V59.6Q78.1 44.4 62 57.95l4.3.2q6.05.75 11.35 3.7M49 51.85q-3.55-2.7-9.35-2.55-4 5.85 0 9.4l1.35-.85q6.3-3.55 12.6.85-1.45-4.55-4.6-6.85M38.2 35.6l-.4 2.5q5.35-.4 10.15 2.4v-7.25q-1.35-.95-2.5-1.5-5.75-2.8-7.25 3.85m19.4 20.95q-1.8-5.9.65-12.2-2.2-7.95 3.6-14.7h-8.9Q45 36.7 56.3 59.75l1.95-1.35-.65-1.85M69 28.9q5.9.25 9.5 3.45-.2-9.9-7.95-9Q70.6 25.9 69 28.9m7.7 7.15q-1.25-3.7-5.75-5.5L68.5 31q-5.4 1.2-7.45 4.7-1.7 2.85-1.15 7.25 3.2-2.4 6.3-3.4 5.5-1.75 10.8.8.3-2.4-.3-4.3m-12.45 16.8Q70.4 49 80.35 49l-.25-2.85Q78.75 39.3 68.85 41q-5.6 1.8-8.15 4.8-3.65 4.3-.95 10.9 1.9-2.25 4.5-3.85m11.7 10.65q-4.45-3.3-9.5-2.25v5.15q4.65-.3 7.7 4.2l1.8-7.1m-29.9-20.9q-2.2-1.9-4.9-2.65-8.6 1.4-3.5 8.45 5.5-2.45 13.35 2.9l-2.1-5.45q-1.3-1.95-2.85-3.25M63.7 69.55l-6.8 7.9q4.35.85 4.8 5.6l10-8.75q-2.05-5.45-8-4.75" fill="#71434b"/><path d="m41 57.85-1.35.85q-4-3.55 0-9.4 5.8-.15 9.35 2.55-6.75 1.15-8 6M38.2 35.6q1.5-6.65 7.25-3.85-.5 5.55-7.25 3.85m19.4 20.95.65 1.85-1.95 1.35Q45 36.7 52.95 29.65h6.2Q54.7 36 55.65 45.7q-.85 6.6 1.95 10.85m3.45-20.85q2.05-3.5 7.45-4.7-.1 7.7-7.45 4.7m-23.4 12.7q-5.1-7.05 3.5-8.45 2.7.75 4.9 2.65l-8.4 5.8" fill="#ffe"/><path d="M41 57.85q1.25-4.85 8-6 3.15 2.3 4.6 6.85-6.3-4.4-12.6-.85m4.45-26.1q1.15.55 2.5 1.5v7.25q-4.8-2.8-10.15-2.4l.4-2.5q6.75 1.7 7.25-3.85m18.8 21.1q-2.6 1.6-4.5 3.85-2.7-6.6.95-10.9 5.85 3.8 8.15-4.8 9.9-1.7 11.25 5.15L67.65 47.3l-3.4 5.55M46.05 42.6q1.55 1.3 2.85 3.25L51 51.3q-7.85-5.35-13.35-2.9l8.4-5.8" fill="#e5d2b8"/><path d="M77.15 23.35q-2.55-2.6-7.15-2.9l-1-1.7-1.55-.3-5.25-.85 2.85-14.4L83 .4q-.4 12.95-5.85 22.95" fill="#93505b"/><path d="m78.3 24.8-1.15-1.45Q82.6 13.35 83 .4l2.45-.4q-.1 15.3-7.15 24.8" fill="#4c0d25"/><path d="M67.45 18.45q2.1 7.95-2.7 10.45l-2.1-.65q-1.5-6-10.4-4.05 0-3.85 3.15-7.75l6.8 1.15 5.25.85" fill="#b46f70"/><path d="M62.65 28.25q-4.8-1.3-10-1-.45-1.55-.4-3.05 8.9-1.95 10.4 4.05" fill="#e6d4ba"/><path d="M59.15 29.65h2.7q-5.8 6.75-3.6 14.7-2.45 6.3-.65 12.2-2.8-4.25-1.95-10.85-.95-9.7 3.5-16.05" fill="#e5d3b9"/><path d="m68.5 31 2.45-.45q4.5 1.8 5.75 5.5l-6.65.1-3.85 3.4q-3.1 1-6.3 3.4-.55-4.4 1.15-7.25 7.35 3 7.45-4.7" fill="#e5d2b9"/><path d="M69 28.9q1.6-3 1.55-5.55 7.75-.9 7.95 9-3.6-3.2-9.5-3.45" fill="#914e5a"/><path d="m80.1 46.15.25 2.85q-9.95 0-16.1 3.85l3.4-5.55 12.45-1.15" fill="#b1696c"/><path d="M76.7 36.05q.6 1.9.3 4.3-5.3-2.55-10.8-.8l3.85-3.4 6.65-.1" fill="#b46d70"/><path d="m75.95 63.5-1.8 7.1q-3.05-4.5-7.7-4.2v-5.15q5.05-1.05 9.5 2.25M63.7 69.55q5.95-.7 8 4.75l-10 8.75q-.45-4.75-4.8-5.6l6.8-7.9" fill="#8b4956"/><path d="M77.65 61.85q-5.3-2.95-11.35-3.7 8.15-1.6 18.1 1.45v7.25q-3.2-3-6.75-5" fill="#af666b"/><path d="m66.3 58.15-4.3-.2Q78.1 44.4 84.4 59.6q-9.95-3.05-18.1-1.45" fill="#e4d1b7"/><path d="M60.7 45.8q2.55-3 8.15-4.8-2.3 8.6-8.15 4.8" fill="#ffffed"/><path d="m37.7 67.35 7.15 1.8 3.65-2.25h8.6l13.6-1.8 13.8 15.4q-5.85 13.2-19.85 16.05l4.25 8q-6.2 8.65-16.05 4.85l-4.7-21.95-8.45 18.95q-14.15 2-11.5-9.55l4.55-6.05q-11.6-8.9 4.95-23.45M38 69q-14.55 13.65-3.75 20.8l9.25-6.95-1.85-5.2L35.6 79l3.35-5.3h3.45l1.45-3.65L38 69m-8.45 28.25q-1.15 9.2 9.85 6.85l7.4-17.75-2.35-2.1q-8.2 5.5-14.9 13 4.2-1.25 6.65 0 2.95 1.55 3.2 6.85-2.05-7.75-9.85-6.85m16.1-14.5q.9 1.25 2.3 2.45l2.3-2.7v-6.2l3.2-1.7 2-4.9-1.15-.7q-5.1-2.7-8.15 1.75-4.25 6.8-.5 12M76.75 74l-6.05-6.7-11.95 1.35-3.65 5.65h8.95l3.75 1.75-1.95 3.75 1.3 2.15-7.85-5.75-3.7.3-3.65.3v6.05l11.4 11.6q6.05-.7 10.55-3.5 5.65-3.5 8.9-10.3L76.75 74m-19.1 25.75q2.8-1.05 7.4.1l-1.9-3.95-3.05-1.55-8.85-10.8-.9 1.3-.9 1.3.85 4.05 3.1 14.75q.95-4.05 4.25-5.2m-3.2 3.6-1.05 1.6.6 2.9q5.75 1.75 9.75-.85l.75-.6q1.3-1.05 2.45-2.65l-1.9-3.9q-7.35-.55-10.6 3.5m10.3-24.95 1.1-1.6-1.7-1.5H61.1l3.65 3.1" fill="#33051d"/><path d="m38 69 5.85 1.05-1.45 3.65h-3.45L35.6 79l6.05-1.35 1.85 5.2-9.25 6.95Q23.45 82.65 38 69m16.3 0-2.25 4.3q-5 2.1-6.4 9.45-3.75-5.2.5-12Q49.2 66.3 54.3 69m1.3 7.5 3.7-.3 7.85 5.75-1.3-2.15 1.95-3.75-3.75-1.75H55.1l3.65-5.65L70.7 67.3l6.05 6.7q.05 8.55-4.5 11.35-2.1.95-4.05 1.3-6.75 1.2-12.6-4.6V76.5" fill="#06dded"/><path d="M39.4 104.1q-11 2.35-9.85-6.85 7.8-.9 9.85 6.85" fill="#186b63"/><path d="M29.55 97.25q6.7-7.5 14.9-13l2.35 2.1Q42 94.7 36.2 97.25q-2.45-1.25-6.65 0" fill="#06dced"/><path d="m46.8 86.35-7.4 17.75q-.25-5.3-3.2-6.85 5.8-2.55 10.6-10.9" fill="#186c63"/><path d="M45.65 82.75q1.4-7.35 6.4-9.45L54.3 69l1.15.7-2 4.9-3.2 1.7v6.2l-2.3 2.7q-1.4-1.2-2.3-2.45" fill="#196e64"/><path d="M55.6 76.5v5.55q5.85 5.8 12.6 4.6l5.7 4.3q-4.5 2.8-10.55 3.5l-11.4-11.6V76.8l3.65-.3" fill="#196e65"/><path d="m50.35 84.85.9-1.3 8.85 10.8 3.05 1.55 1.9 3.95q-4.6-1.15-7.4-.1L52.4 89l-2.05-4.15" fill="#186962"/><path d="M50.35 84.85 52.4 89l-2.1 1.2-.85-4.05.9-1.3" fill="#258c80"/><path d="m52.4 89 5.25 10.75q-3.3 1.15-4.25 5.2L50.3 90.2l2.1-1.2" fill="#06dbed"/><path d="M68.2 86.65q1.95-.35 4.05-1.3 4.55-2.8 4.5-11.35l6.05 6.65q-3.25 6.8-8.9 10.3l-5.7-4.3" fill="#258b7f"/><path d="M54.45 103.35q3.25-4.05 10.6-3.5l1.9 3.9q-1.15 1.6-2.45 2.65.3-4.6-9.55-1.3l-.5-1.75" fill="#186762"/><path d="m53.4 104.95 1.05-1.6.5 1.75.55 1.8 8.25.1q-4 2.6-9.75.85l-.6-2.9" fill="#15b3b2"/><path d="m64.5 106.4-.75.6-8.25-.1-.55-1.8q9.85-3.3 9.55 1.3" fill="#248a7e"/><path d="m114.55 16.25-6.8 7.35v6.5l-4.1 6.2-1.3-1-4.15-11.55-12.9-6.85-6.85 4.25L88.3 6.3l20.95-2.35 5.3 12.3" fill="#954302"/><path d="M107.75 30.1v-6.5l6.8-7.35.95 2.1-7.75 11.75" fill="#ffc44b"/><path d="m88.3 6.3-9.85 14.85-1.4 2.1-2.45 28.8 1.85 5.35 3 8.55V86.5l15.25 2.75q11.1-2.75 7.75-14.65-5.05-5.7-12.4-4-7.7 6.25 0 9.7 9.6-.7 4.95-6.3 6.1 2.7 0 8.3-10.15 1.15-11.55-4.35-.3-1.1-.2-2.45l4.2-5.95L85.6 65 79 48.85l2.85-21.35 4.7-3.95 15.8 11.75 1.3 1 4.1-6.2 7.75-11.75.8 1.9-1.05 1.7-11.15 17.8L87.15 26.6 84 29l-2.75 18.95 1.85 4.4 1.5 3.6 1 2.35 4.3 10.35q1.85-.05 3.5.05l3.05.35q2.7.45 4.6 1.5 3.65 2 4.3 6.2.65 4.35-2 11l14.85 16.2 1.6 1.85-12.65 12.95-15.75-26.6-14.1-3.35V66.25l-5-13.15 2.3-30.55 10.25-15.9 3.45-.35m26.5 101.25 1.45-1.55-15.3-16.45-7.45 2 2.95 4.55 11.75 18.45 6.6-7" fill="#4b1e00"/><path d="m118.8 30.8-3.55-8.85 1.05-1.7 7.05 16.35-8.5 14.7v3.75l5 2.1-2.75 5.9 25 19.85-22.3 22.9-1.6-1.85 5.15-5.45 6.5-6.95 6.75-7.15 1.85-1.95L116.2 65.2l-3.95 2.25 4.55-10.1h-3.75V52.3l-3.35 2L120.9 36l-2.1-5.2" fill="#2e051b"/><path d="m115.25 21.95 3.55 8.85-9.1 23.5 3.35-2v5.05l-3.2 9.05 2.4 1.05 3.95-2.25 22.25 17.25-1.85 1.95Q119.35 68 108.5 69.6l-3.35-3.05v-2.7h-5q.4-4.55-2.7-8.5 2.6-8.5-9.55-2.25l-2.85-13.15-1.95 12.4-1.85-4.4L84 29l3.15-2.4 16.95 13.15 11.15-17.8" fill="#440b23"/><path d="m78.45 21.15 6.85-4.25 12.9 6.85 4.15 11.55-15.8-11.75-4.7 3.95-4.7 17.4L79 48.85 85.6 65l-9.15-7.6-1.85-5.35 2.45-28.8 1.4-2.1" fill="#f7bb47"/><path d="m79 48.85-1.85-3.95 4.7-17.4L79 48.85" fill="#934202"/><path d="m129.85 91.55-6.5 6.95q-5.2-16.95-18-21.75-.65-4.2-4.3-6.2 17.65.8 28.8 21M85.6 58.3l-1-2.35q12.55-4.45 11.85 13.1l-3.05-.35q-.85-9.65-7.8-10.4" fill="#892337"/><path d="m136.6 84.4-6.75 7.15q-11.15-20.2-28.8-21-1.9-1.05-4.6-1.5.7-17.55-11.85-13.1l-1.5-3.6 1.95-12.4L87.9 53.1q12.15-6.25 9.55 2.25 3.1 3.95 2.7 8.5h5v2.7l3.35 3.05q10.85-1.6 28.1 14.8" fill="#6b182b"/><path d="m79.45 86.5 4-8.55q1.4 5.5 11.55 4.35 6.1-5.6 0-8.3 4.65 5.6-4.95 6.3-7.7-3.45 0-9.7 7.35-1.7 12.4 4 3.35 11.9-7.75 14.65L79.45 86.5m17 9.6-2.95-4.55 7.45-2 15.3 16.45-1.45 1.55L96.45 96.1" fill="#f6b844"/><path d="M76.45 57.4 85.6 65l1.85 4.55-4.2 5.95q-.1 1.35.2 2.45l-4 8.55V65.95l-3-8.55" fill="#ffffad"/><path d="m118.8 30.8 2.1 5.2-11.2 18.3 9.1-23.5m-5.75 26.55h3.75l-4.55 10.1-2.4-1.05 3.2-9.05" fill="#6b172a"/><path d="m123.35 98.5-5.15 5.45-14.85-16.2q2.65-6.65 2-11 12.8 4.8 18 21.75M93.4 68.7q-1.65-.1-3.5-.05L85.6 58.3q6.95.75 7.8 10.4" fill="#d02024"/><path d="m114.8 107.55-6.6 7L96.45 96.1l18.35 11.45" fill="#ffffac"/></g><g id="B" fill-rule="evenodd"><path d="m145.85 173.55 3.6-12.25Q139.1 98.8 122 61.4l-4.85-9.75Q85.2-8.4 32.1 10.15q-4.9 1.75-10 4.15-3.8 1.75-7.75 3.95L18.1 10q102.6-50.1 138.6 150.7l-7.25 27.25 13.9 55.7Q229.4 264.4 261.4 312h-44.15l-25.45 12.75-76.85-14.55-70.8-136.15q-31.8-29.5-40.7-64.7L49 173.4l16.35 31.3 52 99.45 70.8 13.6 20.2-8.1 7.7-3.1h35.1q-28.85-34.8-76.9-51.95l-7.2-2.45-8.25-2.5-14.5-58.1-1.95 4.2-8.65 18.8 12.15-41" fill="#3d071f"/><path d="M122 61.4q17.1 37.4 27.45 99.9l-3.6 12.25Q138.75 119.7 122 61.4" fill="#77ebf8"/><path d="m145.85 173.55-12.15 41q8.4-69.8-25.75-163.1-33.3-33-72.25-36.75l-13.6-.4q5.1-2.4 10-4.15 49.2-1.6 85.05 41.5L122 61.4q16.75 58.3 23.85 112.15" fill="#922738"/><path d="m142.35 195.75 1.95-4.2 14.5 58.1 8.25 2.5-12.75-1.25-11.95-55.15m31.9 58.85q48.05 17.15 76.9 51.95h-7.3q-23.8-26.65-69.6-51.95" fill="#6ceaf8"/><path d="m133.7 214.55 8.65-18.8 11.95 55.15 12.75 1.25 7.2 2.45q45.8 25.3 69.6 51.95h-6.95l-29.95-10h-17.9L134.6 254.5l-5.4-12.4-19.7-11.2 3.95-12.1q-23.15 16.35-6.35-40.25l-5.75-8.15 16.6-37.85v-9.05l-14.8 3.6v-15.15l-7.55-7.25V56.3Q69.75 27.55 35.7 14.7q38.95 3.75 72.25 36.75 34.15 93.3 25.75 163.1" fill="#701629"/><path d="M236.9 306.55h-20.85l-7.7 3.1-21.4 4.5-54.5-19.1-67.1-90.35L49 173.4 3.45 109.35q-10.5-41.55 10.9-91.1 3.95-2.2 7.75-3.95l13.6.4q34.05 12.85 59.9 41.6v48.4l7.55 7.25v15.15l14.8-3.6v9.05l-16.6 37.85 5.75 8.15q-16.8 56.6 6.35 40.25l-3.95 12.1 19.7 11.2 5.4 12.4 54.45 42.05h17.9l29.95 10" fill="#450b23"/><path d="m208.35 309.65-20.2 8.1-70.8-13.6-52-99.45 67.1 90.35 54.5 19.1 21.4-4.5" fill="#6a1327"/><path d="M32.1 10.15q53.1-18.55 85.05 41.5Q81.3 8.55 32.1 10.15" fill="#d72927"/></g><g id="C" fill-rule="evenodd"><path d="M124.3 45.05q1.4.85 2.75 1.85-10.15 10.3-24.55 10.5-4.35-4-3.15-9.65 11.9-2.7 24.95-2.7m-59.85-21.1q.65 5.3-1.05 10.7-4.85 3-9.5 3.6 8.1-4.3 5.25-21.3l5.3 7m48-6.2Q107.05 35.7 93.8 41.6q-6.6-1.6-10.5-4.65 11.6-15.1 29.15-19.2M89.75 59.8l-.1-.1q-4.15-3.5-2.35-11.25 4.5-2.95 9.4-2.1-.75 6.9 1.8 10.55l-8.75 2.9" fill="#aa5e67"/><path d="M127.05 46.9q-1.35-1-2.75-1.85-11.05-6.4-24-.25-.65 1.55-.95 2.95-1.2 5.65 3.15 9.65l1.35 1.1q15.05 2.35 23.2-11.6M57.6 9.3q-2.8-3.5-6.75-6.85-11.15 6.7-13.7 16.1l-.55 2.6-.1.65-.1 2.35q-.05 4 1.25 8.4 2.35 2 4.7 3.35Q48 39 53.9 38.25q4.65-.6 9.5-3.6 1.7-5.4 1.05-10.7-1-7.5-6.85-14.65m3.1 40.1 2.55-1.25V37.4l-3 1.6-4.5 1.4-5.8.25q-3.9-.3-8.2-1.9l3.05 9.4q1.45.8 2.9 1.4 3 1.15 6.05 1.2 3.45.05 6.95-1.35M33.8 22.65q.1-1.65.45-3.2.3-1.35.75-2.65Q38.3 7.4 50.65 0q21.3 16.35 14.7 36.5l9.85-10.15Q84.55.65 115.9 14.4q-6.3 25.25-23.65 29.5h5.35q19.3-12.15 31.75 2.7-5.95 16.25-26.9 13.5L90.8 63.3q-11.85 12.05-29.2 6.5-7.1 3.7-15.15 2.85L35.9 76.6q-18.2 9.65-30.3-2.75 4.9-21.6 20.75-19.65l1.7-.15 7.35-.6 5.9-9.85-4.4-7.85-1.15-2.15q-1.7-4.4-1.95-8.5v-2.45m9.7 36.4q-2.25-1.7-6-2.9h-5q2.25 2.05 3.6 4.3 1.9 3.15 2.1 6.65.2 3.25-1.15 6.75l8.45-3.2q1.9-4.2 1-7.35-.7-2.45-3-4.25M53 52.7q-5.6-.25-11.1-4.55l-3.75 6.2q9.4 2.75 10.95 8.3.95 3.5-1.3 8.2 12.65-1.25 25.3-10l-8.05 7.7q2.85 1.05 5.5 1.35 9.7.95 17.8-7.95-1.25-.85-2.15-2.15-2.05-3.05-1.9-8.5l-5.9 4.25q-9.65-1.35-13.05-7.4Q59.1 52.9 53 52.7M34.5 64.55q-.7-2.2-2.2-4.15-1.3-1.7-3.25-3.2-15.5-4.15-21.35 16.05l1.7 1.25q6.25 4.3 14.2 3.7Q28 77.85 33 76q3.1-6.35 1.5-11.45m48.8-27.6Q87.2 40 93.8 41.6q13.25-5.9 18.65-23.85l.7-2.6-1.75-.65Q87.75 5.85 77.45 25.9q.3 3.5 1.8 6.25 1.4 2.75 4.05 4.8M70.7 50.3q2.7 2.15 7.2 2.55L89.85 43q-5.15-.7-8.5-3.15-1.4-1.05-2.45-2.4-2.15-2.65-3.1-6.55l-9.25 9.5q.1 3.05.95 5.35 1.05 2.8 3.2 4.55m27.8 6.6q-2.55-3.65-1.8-10.55-4.9-.85-9.4 2.1-1.8 7.75 2.35 11.25l.1.1 1.65 1.05 8.3-2.6-1.2-1.35" fill="#603845"/><path d="M42.35 35.9q-2.35-1.35-4.7-3.35-1.3-4.4-1.25-8.4l.1-2.35.1-.65.55-2.6q2.55-9.4 13.7-16.1Q54.8 5.8 57.6 9.3q-7.95 9.85-8.75 23.25l-6.5 3.35m5.35 13.65q-1.45-.6-2.9-1.4l-3.05-9.4q4.3 1.6 8.2 1.9 3.25 6.15-2.25 8.9m-22.4-32.2Q21 18.75 18 21q-6.6-3.4-7.3-9.9l2.05-.4 12.55 6.65m10.8 43.1q-1.35-2.25-3.6-4.3h5q3.75 1.2 6 2.9l-7.4 1.4M9.4 74.5l-1.7-1.25q5.85-20.2 21.35-16.05 1.95 1.5 3.25 3.2-5.95 10.4-17.35 9.05L9.4 74.5m69.85-42.35q-1.5-2.75-1.8-6.25 10.3-20.05 33.95-11.4-18.55 5.25-32.15 17.65M67.5 45.75q-.85-2.3-.95-5.35l9.25-9.5q.95 3.9 3.1 6.55-4.3 5.55-11.4 8.3" fill="#ffffed"/><path d="M57.6 9.3q5.85 7.15 6.85 14.65l-5.3-7q2.85 17-5.25 21.3Q48 39 42.35 35.9l6.5-3.35q.8-13.4 8.75-23.25" fill="#e3cfb6"/><path d="m60.25 39 3-1.6v10.75L60.7 49.4 60.25 39" fill="#e6d5b9"/><path d="m60.25 39 .45 10.4q-3.5 1.4-6.95 1.35 4.65-4 2-10.35l4.5-1.4M46.5 63.3q.9 3.15-1 7.35l-8.45 3.2q1.35-3.5 1.15-6.75 5.1.6 8.3-3.8m2.6-.65L53 56.9v-4.2q6.1.2 12.35-4.55 3.4 6.05 13.05 7.4l5.9-4.25q-.15 5.45 1.9 8.5-6.5 8.45-15.65 10.1-2.65-.3-5.5-1.35l8.05-7.7q-12.65 8.75-25.3 10 2.25-4.7 1.3-8.2m-14.6 1.9Q36.1 69.65 33 76q-5 1.85-9.4 2.2l-3.5-2.35q10.6-.2 14.4-11.3m46.85-24.7q3.35 2.45 8.5 3.15L77.9 52.85q-4.5-.4-7.2-2.55 4-4.85 10.65-10.45" fill="#ab5e67"/><path d="M53.75 50.75q-3.05-.05-6.05-1.2 5.5-2.75 2.25-8.9l5.8-.25q2.65 6.35-2 10.35m-17.65 9.7 7.4-1.4q2.3 1.8 3 4.25-3.2 4.4-8.3 3.8-.2-3.5-2.1-6.65m13 2.2q-1.55-5.55-10.95-8.3l3.75-6.2q5.5 4.3 11.1 4.55v4.2l-3.9 5.75M32.3 60.4q1.5 1.95 2.2 4.15-3.8 11.1-14.4 11.3l3.5 2.35q-7.95.6-14.2-3.7l5.55-5.05q11.4 1.35 17.35-9.05" fill="#e2ceb5"/><path d="m34.25 19.45-1.1-.85-5.9.45q-2.2.35-4 1.05-4.1 1.6-6.25 4.75-1.25 1.75-1.85 4-.9 3.05-.65 7.05l.2 1.95 3.45 3.45q.2-1.5.55-2.9.55-2.25 1.45-4.2 1.1-2.4 2.75-4.35 1.8-2.2 4.25-3.9 1.65-1.15 3.6-2.05 1.45-.7 3.05-1.25v2.45q-2.2.9-3.95 2-3.6 2.1-5.7 4.9-2.4 3.2-2.85 7.3-.25 2.4.15 5.05-7 2.15-9.95-5.7-.35-2.7-.15-5.05l.4-2.9q.45-2.2 1.4-4.1 1.7-3.25 4.85-5.6 3-2.25 7.3-3.65 1.5-.5 3.1-.85l5.2-.9 1.4 1.2q-.45 1.3-.75 2.65" fill="#4a1f00"/><path d="m27.25 19.05 5.9-.45 1.1.85q-.35 1.55-.45 3.2-1.6.55-3.05 1.25l-3.5-4.85" fill="#8d3c02"/><path d="m27.25 19.05 3.5 4.85q-1.95.9-3.6 2.05l-3.9-5.85q1.8-.7 4-1.05M17 24.85l5.9 5q-1.65 1.95-2.75 4.35l-5-5.35q.6-2.25 1.85-4" fill="#f6b945"/><path d="m23.25 20.1 3.9 5.85q-2.45 1.7-4.25 3.9l-5.9-5q2.15-3.15 6.25-4.75M36.9 35.75l4.4 7.85q-6.25 5.8-12 .7 2.25-4.7 7.6-8.55" fill="#ffffac"/><path d="M28.4 16.5q-1.6.35-3.1.85L12.75 10.7l2.05-.25 13.6 6.05M11.75 30.7l-.4 2.9L0 24.4l.15-1.95 11.6 8.25" fill="#613946"/><path d="M20.15 34.2q-.9 1.95-1.45 4.2l-4.2-2.5q-.25-4 .65-7.05l5 5.35" fill="#8a3900"/><path d="m14.5 35.9 4.2 2.5q-.35 1.4-.55 2.9l-3.45-3.45-.2-1.95" fill="#ffc44a"/><path d="M21.3 39.3q.45-4.1 2.85-7.3l5.65 6.85q-1.95 2.4-2.95 5.05l-5.55-4.6" fill="#681326"/><path d="M24.15 32q2.1-2.8 5.7-4.9l5.9 6.5q-3.65 2.45-5.95 5.25L24.15 32" fill="#cf2024"/><path d="m35.75 33.6 1.15 2.15q-5.35 3.85-7.6 8.55-.85 1.85-1.2 3.9-.55 2.8-.05 5.85l-1.7.15q-.8-3.65-.3-6.95.2-1.75.8-3.35 1-2.65 2.95-5.05 2.3-2.8 5.95-5.25" fill="#4a1e00"/><path d="M29.85 27.1q1.75-1.1 3.95-2 .25 4.1 1.95 8.5l-5.9-6.5" fill="#681225"/><path d="m41.3 43.6-5.9 9.85-7.3-5.25q.35-2.05 1.2-3.9 5.75 5.1 12-.7" fill="#f6b844"/><path d="M21.45 44.35q-.4-2.65-.15-5.05l5.55 4.6q-.6 1.6-.8 3.35l-4.6-2.9" fill="#2f061a"/><path d="m35.4 53.45-7.35.6q-.5-3.05.05-5.85l7.3 5.25" fill="#8b3b02"/><path d="M112.45 17.75q-17.55 4.1-29.15 19.2-2.65-2.05-4.05-4.8 13.6-12.4 32.15-17.65l1.75.65-.7 2.6" fill="#e6d6ba"/><path d="M81.35 39.85Q74.7 45.45 70.7 50.3q-2.15-1.75-3.2-4.55 7.1-2.75 11.4-8.3 1.05 1.35 2.45 2.4" fill="#e1ccb3"/><path d="M102.5 57.4q14.4-.2 24.55-10.5-8.15 13.95-23.2 11.6l-1.35-1.1m-16.3 2.4q.9 1.3 2.15 2.15-8.1 8.9-17.8 7.95 9.15-1.65 15.65-10.1m12.3-2.9 1.2 1.35-8.3 2.6-1.65-1.05 8.75-2.9" fill="#6cebf9"/><path d="M124.3 45.05q-13.05 0-24.95 2.7.3-1.4.95-2.95 12.95-6.15 24 .25" fill="ivory"/><path d="M13.15 26.6q-.95 1.9-1.4 4.1L.15 22.45q.85-6 5.1-9 1.85 9.7 7.9 13.15" fill="#ad6269"/><path d="M18 21q-3.15 2.35-4.85 5.6-6.05-3.45-7.9-13.15 2.25-1.6 5.45-2.35.7 6.5 7.3 9.9" fill="#e3d0b6"/></g><g id="D" fill-rule="evenodd"><path d="m.05 14.8 4.8-11.25 5.6 1.85q-3.5 17.55 8.4 22.75l2 6.15-3.25.8Q3.6 29.7.05 14.8" fill="#8a4956"/><path d="M4.85 3.55 6.4 0l21.2 6.95 3.9 12.1-.45 3.75L26.7 13l-1.2-2.75L15.2 6.9l-4.75-1.5-5.6-1.85M17.6 35.1Q-.65 34.4.05 14.8 3.6 29.7 17.6 35.1" fill="#693f49"/><path d="M25.35 32.05q-1.95 1.4-4.5 2.25l-2-6.15q-11.9-5.2-8.4-22.75l4.75 1.5v8.2l5.15 5.15 5 11.8" fill="#af656b"/><path d="M28.7 28.6q-1.4 2-3.35 3.45l-5-11.8-5.15-5.15V6.9l10.3 3.35L26.7 13l2 15.6" fill="#e4d0b6"/><path d="M31.05 22.8q-.75 3.35-2.35 5.8l-2-15.6 4.35 9.8" fill="#ffffed"/></g><g id="E" fill-rule="evenodd"><path d="m22.45 33.1-.65-7.45 10-10.25-9.35 17.7m-22-9.55 11.35 4.2 6.35 13.35L.1 27.5q.1-2.05.35-3.95" fill="#fdc54c"/><path d="m31.8 15.4-10 10.25.65 7.45-4.3 8-6.35-13.35-11.35-4.2q3.7-28.7 38.9-22.4L31.8 15.4" fill="#954202"/><path d="m22.45 33.1 9.35-17.7 7.55-14.25q-3.55 24.8-21.2 45.4L0 31.1l.1-3.6 18.05 13.6 4.3-8" fill="#522200"/></g><g id="F" fill-rule="evenodd"><path d="M177 28.9q7.7 3.85 4.05 13.55-2.3-7.05-6.95-9.95l2.9-3.6M87.15 129.4q-11.75-6-27.9-4.75-25.35 9.9-32.65 33.3l-4.9-1.65q6.7-25.3 30.75-49.25 14.45 2.3 27.45 6.1 5.45 7.65 7.25 16.25" fill="#fffff1"/><path d="M174.1 32.5q4.65 2.9 6.95 9.95 3.65-9.7-4.05-13.55-2.35-1.2-5.75-1.85l-3.35 3.5q3.5.25 6.2 1.95m11.05 6.4-.1 2.35q-4.25 6.4-8.85 9.3-12.25 7.65-27.05-9.75 12.6-5.7 21.8-18.6v2.75q14.35 1.1 14.2 13.95m-9.2 8.2 3.3-2.4q-2.45-11.25-13.45-12.2l-3.3 3.25-1.5 1.2q-4.15 3.05-8.8 4.3 2.55 3.3 5.3 5.35 8.65 6.65 18.45.5" fill="#a92837"/><path d="M176.2 50.55q4.6-2.9 8.85-9.3l.1-2.35q8.4-3.2 5.6-16.4Q180.2 5.8 156.5 6.2q23.9-8.1 46.65 10.1 4.3 4.75 8 10.4Q215.7 47.6 198 49.75q.75 10.15-12.8 13.9-10.35 14.9-24.1 6.7l-1.5-2.9q-1.75-2.85-3.95-4.95l-1.05-3.4q-10.45-2.65-17.55-8-12.1 12.75-27.8 3.7.1-2.4 2.55-5.9 2.35 7.2 9.35 4.75 5.25-7.2-2.75-12.25l-5.55 4.6q-10.55 0-13-4.5 2.3-2.4 7.5-5.55 2.45 6.65 18.35 3.55-.15 4 2.4 6.45 3.45.5 6.4-1.7 6.15 6.7 17.55 3.5 3.85 10.1 9.65 15.9 16.15 6.7 14.5-13.1m14.8-3.4q-1.6-1.55-3.8-1.55-2.25 0-3.85 1.55-1.6 1.6-1.6 3.85 0 2.2 1.6 3.8 1.6 1.55 3.85 1.6 2.2-.05 3.8-1.6 1.6-1.6 1.6-3.8 0-2.25-1.6-3.85" fill="#f4bc86"/><path d="M176.2 50.55q1.65 19.8-14.5 13.1-5.8-5.8-9.65-15.9-11.4 3.2-17.55-3.5 2.65-2 4.95-6.15-11.3-1.2-8.6-11.8-4.95 7.9-5.15 13.2-15.9 3.1-18.35-3.55 7.2-4.45 19.85-10.4Q142.05 11.1 156.5 6.2q23.7-.4 34.25 16.3 2.8 13.2-5.6 16.4.15-12.85-14.2-13.95V22.2q-9.2 12.9-21.8 18.6 14.8 17.4 27.05 9.75" fill="#fdeeae"/><path d="M191 47.15q1.6 1.6 1.6 3.85 0 2.2-1.6 3.8-1.6 1.55-3.8 1.6-2.25-.05-3.85-1.6-1.6-1.6-1.6-3.8 0-2.25 1.6-3.85 1.6-1.55 3.85-1.55 2.2 0 3.8 1.55" fill="#fdedad"/><path d="M107.35 35.95q-5.2 3.15-7.5 5.55-6.7 6.8 9.95 7.05l3.05-2.55 5.55-4.6q-4.3 4.25-6.6 7.5-2.45 3.5-2.55 5.9-.35 6.55 17.2 4.6 19.3-6.4 29.2 3.1 2.2 2.1 3.95 4.95l1.5 2.9q2.9 4.5 7.9 6.4 6.7 2.5 17.2.35 21.8-7.7 35.45 33.15 21.9 24.85 14.35-7.7l-2.05-8.15-4.15-13.65q-2.35-15.4-6.5-28.1-4.85-14.8-12.15-25.95-3.7-5.65-8-10.4Q180.4-1.9 156.5 6.2q-14.45 4.9-29.3 19.35-12.65 5.95-19.85 10.4m93.05 44.3q-2.75-1.8-5.85-3.1-26.05 8.5-35.7-6.7-5.25-14.4-29.05-10.25-7.3 2.25-12.25 2.35h-.35q-11.45 0-9.8-12.05l-5.4-.45q-3.95-.45-6.35-1.25-4.3-1.5-3.8-4.25 1.2-6.8 32.5-21.3 53.75-49.65 94.4 6.7l20 61.7q19.55 30.45 8.35 57.5l-1.4-7.25q6.95-12.15 1.55-26.05-.9-2.35-2.15-4.75-1.65-3.15-3.95-6.4l-1.95 17.45-1.05 1.15q-6.65 5.8-18.75-11.65-4.45-22.05-19-31.4" fill="#861f31"/><path d="M117.55 62.55q4.95-.1 12.25-2.35 23.8-4.15 29.05 10.25 9.65 15.2 35.7 6.7 3.1 1.3 5.85 3.1 12.5 20.6 19.85 38.4 9 21.75 10.3 39.3l.05 1.7q-8.55-12.6-19.7-25.95l6.7 27.85-4-5.3q3.8 6.1 6.5 11.9-9.3-11.55-18.55-19.3l12.8 35.25q8.1 7.1 10.95-1.2 4.5 19.8-6.7 34.5l-9.1-34.35 1 5.1-12-29.35q5.3 33.2 4.65 59.8l7.35-30.3 3.8 20q-.5 21.8-4.9 35.75l-3.35-10.9-9.1 23.15-22.6 11.55q14.1-10.15 18.35-28.5-1.25-7.85-2.9-15.2 4.7-37.15-6.45-71.8l7.25-19.4h12.25Q197.2 110.1 185 89.1q-17.05-3.9-28.45-17.1-16.45-8.9-39-9.45" fill="#7f1d2e"/><path d="M161.1 70.35q13.75 8.2 24.1-6.7 13.55-3.75 12.8-13.9 17.7-2.15 13.15-23.05 7.3 11.15 12.15 25.95-.6 26.4-25.15 16.75-5.75 3.1-12.5 2.25-7.1 5.55-16.65 5.1-5-1.9-7.9-6.4" fill="#ed8369"/><path d="M169 76.75q9.55.45 16.65-5.1 6.75.85 12.5-2.25 24.55 9.65 25.15-16.75 4.15 12.7 6.5 28.1l4.15 13.65Q226 80.9 222.4 92.1q-1.9 13.15 7.7 20.15 5.95 3.6 5.9-9.7 7.55 32.55-14.35 7.7Q208 69.4 186.2 77.1q-10.5 2.15-17.2-.35" fill="#c93858"/><path d="m177 28.9-2.9 3.6q-2.7-1.7-6.2-1.95l3.35-3.5q3.4.65 5.75 1.85" fill="#d1a78c"/><path d="M175.95 47.1q-9.8 6.15-18.45-.5-.5-5.1 3.5-9.65l1.5-1.2q12.05-.25 13.45 11.35m-7.65-8.25q-1.45-1.1-3.5-1.1t-3.55 1.1q-1.45 1.15-1.45 2.7 0 1.55 1.45 2.7 1.5 1.1 3.55 1.1t3.5-1.1q1.45-1.15 1.45-2.7 0-1.55-1.45-2.7" fill="#19fdff"/><path d="M168.3 38.85q1.45 1.15 1.45 2.7 0 1.55-1.45 2.7-1.45 1.1-3.5 1.1t-3.55-1.1q-1.45-1.15-1.45-2.7 0-1.55 1.45-2.7 1.5-1.1 3.55-1.1t3.5 1.1" fill="#bcffeb"/><path d="m162.5 35.75 3.3-3.25q11 .95 13.45 12.2l-3.3 2.4q-1.4-11.6-13.45-11.35" fill="#00b9ec"/><path d="M157.5 46.6q-2.75-2.05-5.3-5.35 4.65-1.25 8.8-4.3-4 4.55-3.5 9.65m-26.85-9.4-.6 6.75q-2.3-.45-1.35-8.7.8 1.1 1.95 1.95" fill="#00baec"/><path d="M134.5 44.25q-2.95 2.2-6.4 1.7-2.55-2.45-2.4-6.45.2-5.3 5.15-13.2-2.7 10.6 8.6 11.8-2.3 4.15-4.95 6.15m-4.45-.3q1.9.3 5.95-4.65-3.25-.5-5.35-2.1-1.15-.85-1.95-1.95-.95 8.25 1.35 8.7" fill="#ad2837"/><path d="M130.65 37.2q2.1 1.6 5.35 2.1-4.05 4.95-5.95 4.65l.6-6.75" fill="#1afdff"/><path d="m102 50.05 5.4.45q-1.65 12.05 9.8 12.05h.35q22.55.55 39 9.45 11.4 13.2 28.45 17.1 12.2 21 17.85 43.85H190.6l-7.25 19.4q11.15 34.65 6.45 71.8Q171.3 143.5 98 115.1q32.65 8.8 58.7 32.7 12.55-12.45 7-36.9-16.65-18.2-41.75-28.2l32.5 8.2L131 68.5q-19.8-.4-32.25-9.85L83.8 61.5 102 50.05" fill="#a5313f"/><path d="M109.25 54.8q15.7 9.05 27.8-3.7 7.1 5.35 17.55 8l1.05 3.4q-9.9-9.5-29.2-3.1-17.55 1.95-17.2-4.6" fill="#ee896c"/><path d="M118.4 41.4q8 5.05 2.75 12.25-7 2.45-9.35-4.75 2.3-3.25 6.6-7.5" fill="#fdeeaf"/><path d="m135.45 140.85-13.75 5.5-13.7 5.5q1.45 4.25 2.25 8.4 2.7 13.95-2.25 26.7 25.8-5.1 47.45-26.45l2.35 3q-8.6 8.3-18.25 14.65-15 9.8-32.5 14.9l-11.75 14.5q35.3-8.95 68.75-35.25l1.75 2.85q-13.55 12.8-32.35 22.05l-2.6 1.25-4.35 1.95-2.9 1.25q-4.75 1.95-9.75 3.7l-3.95 1.35q-9.8 3.2-20.65 5.7l-6.55 1.8-7 1.45q-15.55 2.55-29.4-.75-4.65-1.1-9.15-2.85-2.35-.95-4.65-2.05-3.6-1.7-7.05-3.85l-2.05-1.35-.75-4.8 5.5 2.85q26.85 13.4 46.6 9.6Q87.8 209.95 97.7 200q5.95-10.35 8.15-19.75 4.8-20.95-9.15-37.4-4.45-5.25-10.8-10.05-29.6-15.45-52.35 16.35-4.65 9.75-5.2 18.55-1.1 16.2 11.55 29.25l5.9 1.2q-8.2-7.85-11.35-21.3l-.25-2.05q-3.3-30.55 24.3-40 25.65-3.9 36.7 17.75 2.75 5.4 4.6 12.35 2.1 31.6-30.85 38.25l-9.75.75q-16.25-.05-29.8-8.5l-3.05-2-6.35-5.15-.55-4.65q2.9 3.65 6.2 6 3.55 2.5 7.6 3.45-9.5-15-7.15-31.35l-2.6-1.2-2.55-1.15.75-3.05 4.9 1.65q7.3-23.4 32.65-33.3 16.15-1.25 27.9 4.75 11.65 5.95 19 19.15l25.7-10.5 3.6 2.8M51.4 198.8Q80.05 207.35 95 182q8.85-26.85-14.85-42.05-6.25-2.65-11.75-3.35-22.2-2.7-32.3 26.8-1.45 25.2 15.3 35.4m29.35-48.7 4.55-3.05-3.25 6.1L59.4 195.8q-17.2-16.1-16.45-42.2l11.45 17.65q13.15-12.05 26.35-21.15M56.4 189.35l2.4 3.35L80.75 152l-13.1 11.65L54.6 175.2l-9.55-13.8q3.35 15.85 11.35 27.95" fill="#753100"/><path d="M189.8 224.15q1.65 7.35 2.9 15.2-4.25 18.35-18.35 28.5l-.3.15h.05q-2.05 1.5-4.35 2.8l-1.55-3.65q12.45-7.15 20.3-26-5.65-38.35-22.7-66l-1.75-2.85q-2.95-4.55-6.25-8.8l-2.35-3q-8.9-10.85-20-19.65l-3.6-2.8q-21.95-16.25-51.95-24.9-13-3.8-27.45-6.1l-3.6-.6-9.25-1.2-9.65 8.45q3.3-6.15 7.25-12.35 34.05 3.4 60.8 13.75 73.3 28.4 91.8 109.05" fill="#410620"/><path d="m121.7 146.35 13.75-5.5q11.1 8.8 20 19.65-21.65 21.35-47.45 26.45 4.95-12.75 2.25-26.7l11.45-13.9" fill="#1c1e34"/><path d="M95.65 48.8q2.4.8 6.35 1.25L83.8 61.5l14.95-2.85Q111.2 68.1 131 68.5l23.45 22.4-32.5-8.2q25.1 10 41.75 28.2 5.55 24.45-7 36.9-26.05-23.9-58.7-32.7-26.75-10.35-60.8-13.75-3.95 6.2-7.25 12.35-30.75 56.75-12.15 108Q-15.75 155.6 39 84.35q24.7-25 56.65-35.55" fill="#d52727"/><path d="M236 102.55q.05 13.3-5.9 9.7-9.6-7-7.7-20.15 3.6-11.2 11.55 2.3l2.05 8.15" fill="#ea7664"/><path d="m238.15 123.3 1.05-1.15 1.35-2.05 4.3 18 .85 3.8 1.4 7.25q5.75 30 8 63.55l-24.85 47.25q-25.15 17.7-60.5 10.85 2.3-1.3 4.35-2.8 9.95 1.15 18.75.35 17.6-1.6 30.75-10.85l13.9-22.25L251.4 213q-2.8-29.95-6.7-54.85l-.05-.35-.8-5.1q-2.65-15.75-5.7-29.4" fill="#3f071f"/><path d="m214.3 208.3-3.8-20v-.15l-1-5.1 9.1 34.35q11.2-14.7 6.7-34.5-1.6-7.05-5.2-14.75-2.7-5.8-6.5-11.9l4 5.3q8.2 12.05 10.7 25.9 2.95-12.35 2.3-27.8l-.05-1.7q-1.3-17.55-10.3-39.3 26.15 54.4 0 100.3l3.35 38.55-.85-4.5-8.45-44.7" fill="#3b071e"/><path d="m217.6 161.55-6.7-27.85q11.15 13.35 19.7 25.95.65 15.45-2.3 27.8-2.5-13.85-10.7-25.9" fill="#520e27"/><path d="M200.4 80.25q14.55 9.35 19 31.4 12.1 17.45 18.75 11.65 3.05 13.65 5.7 29.4-2.8 39.3-11.2 63.35v10.45L247 213.75l-9.5 21.5-13.9 22.25-3.35-38.55q26.15-45.9 0-100.3-7.35-17.8-19.85-38.4" fill="#580f28"/><path d="M245.1 111.1q1.25 2.4 2.15 4.75.75 7.65.05 13.4-9.75-8.6-2.2-18.15" fill="#e96f60"/><path d="m239.2 122.15 1.95-17.45q2.3 3.25 3.95 6.4-7.55 9.55 2.2 18.15-.6 5.25-2.45 8.85l-4.3-18-1.35 2.05" fill="#c03353"/><path d="M247.25 115.85q5.4 13.9-1.55 26.05l-.85-3.8q1.85-3.6 2.45-8.85.7-5.75-.05-13.4" fill="#a6d3d5"/><path d="m243.85 152.7.8 5.1.05.35 3.25 53.5-.95 2.1-14.35 12.75v-10.45q8.4-24.05 11.2-63.35" fill="#77182a"/><path d="M99.85 41.5q2.45 4.5 13 4.5l-3.05 2.55q-16.65-.25-9.95-7.05" fill="#ef8b6d"/><path d="M91.85 44.55q-.5 2.75 3.8 4.25Q63.7 59.35 39 84.35-15.75 155.6 17.8 221.7l.1.2 3.55 6.5 5.75-4.95-9.35 29.35Q26 262.1 37 266.2q1 2.85 3.15 5.1-14.5-1.2-29-13.8l6.05-21.2q-42.3-77.75 19.4-159.15 27.6-26.65 55.25-32.6" fill="#3d071f"/><path d="m29.95 113.7 9.65-8.45 9.25 1.2Q24 128 17.6 154.55q-5.35 22.05 2.05 47.55l3.75 2.7v6.85l10.15 16q1.3 11.2 7.7 16.95-5.9 11-4.95 18.6-17.75-6-6.65-33.1l-2.45-6.65-5.75 4.95-3.55-6.5-.1-.2q-18.6-51.25 12.15-108" fill="#9c2535"/><path d="m48.85 106.45 3.6.6Q28.4 131 21.7 156.3l-4.1-1.75Q24 128 48.85 106.45" fill="#a6665e"/><path d="m21.7 156.3-.75 3.05q-2.7 12-1.5 24.25l.55 4.65q.9 5.85 2.65 11.75l.75 4.8-3.75-2.7q-7.4-25.5-2.05-47.55l4.1 1.75" fill="#4b0922"/><path d="M68.4 136.6q8.65 5.15 12.35 13.5-13.2 9.1-26.35 21.15L42.95 153.6q-.75 26.1 16.45 42.2l22.65-42.65q7.85 21.55-3.55 36.7-11.55 11.05-27.1 8.95-16.75-10.2-15.3-35.4 10.1-29.5 32.3-26.8" fill="#595573"/><path d="M68.4 136.6q5.5.7 11.75 3.35Q103.85 155.15 95 182q-14.95 25.35-43.6 16.8 15.55 2.1 27.1-8.95 11.4-15.15 3.55-36.7l3.25-6.1-4.55 3.05q-3.7-8.35-12.35-13.5" fill="#1c1f35"/><path d="M95.2 152.55Q84.15 130.9 58.5 134.8q-27.6 9.45-24.3 40l-5.85-7.1q.55-8.8 5.2-18.55 22.75-31.8 52.35-16.35 6.35 4.8 10.8 10.05 5 12.8-1.5 9.7" fill="#ffffbd"/><path d="m26.35 193.4 3.05 2q2.5 12.55 23.55 12.45 6.9.4 6.25-3.95l9.75-.75q32.95-6.65 30.85-38.25-1.85-6.95-4.6-12.35 6.5 3.1 1.5-9.7 13.95 16.45 9.15 37.4l-5.4 3.55q-7.4 21.55-28.3 24.65l2.6 4q-19.75 3.8-46.6-9.6l-1.8-9.45" fill="#fad155"/><path d="m131.85 138.05-25.7 10.5q-7.35-13.2-19-19.15-1.8-8.6-7.25-16.25 30 8.65 51.95 24.9" fill="#cc9b86"/><path d="M105.85 180.25q-2.2 9.4-8.15 19.75-9.9 9.95-22.95 12.45l-2.6-4q20.9-3.1 28.3-24.65l5.4-3.55" fill="#ac5702"/><path d="M67.65 163.65 80.75 152 58.8 192.7l-2.4-3.35-2.1-8.25q5.2 1.55 13.35-17.45" fill="#f9d357"/><path d="M56.4 189.35q-8-12.1-11.35-27.95l9.55 13.8 13.05-11.55q-8.15 19-13.35 17.45l2.1 8.25" fill="#ffffbc"/><path d="M29.4 195.4q13.55 8.45 29.8 8.5.65 4.35-6.25 3.95-21.05.1-23.55-12.45" fill="#ffb"/><path d="m82.7 214.2 6.55-1.8q10.85-2.5 20.65-5.7l3.95-1.35q5-1.75 9.75-3.7l2.9-1.25 4.35-1.95 2.6-1.25q18.8-9.25 32.35-22.05 17.05 27.65 22.7 66-7.85 18.85-20.3 26l-3.55.95-12.15-1.55 11.6-10.25-12.2-8.2q-8.25 3.9-15.55 5-16.2 2.45-27.75-8.8v2.9l-6.35-7.55-3.05 2.55-3 2.55q7.85-17.3 20.25-29.95l-.95-1.2q-14.55-2.1-32.8.6m81.4 42.1q4.2-5.5 5.25-13.65l-7.95-2.55 2.7 16.2m7.8-28.9-1.4-.35-1.8 3.65 3.2 5.45v-8.75" fill="#be8479"/><path d="m75.7 215.65 7-1.45q18.25-2.7 32.8-.6l.95 1.2q-12.4 12.65-20.25 29.95l3-2.55q8.55 17.2 37.15 10.9 7.3-1.1 15.55-5l12.2 8.2-11.6 10.25 12.15 1.55q-23.55 5.85-48.75 5.75-.1-2.25-.65-4.55 12.8-.15 23.3-6.5-22.8.3-40.4-6.5l-8.35 9.4-5.95-3.75q4.25-.7 7.65-4.3l-5.75-7.55q-3.5 3.75-6.8 3.3l1.8-8.3-4.55-1.95-3.75 4.35q-2.6-7.7-7.95-14.95 29 16.45 38.2-11.85l-27-5.05" fill="#e6d5ba"/><path d="M37.15 212.05q4.5 1.75 9.15 2.85 13.85 3.3 29.4.75l27 5.05q-9.2 28.3-38.2 11.85 5.35 7.25 7.95 14.95l-3.2-1.8q-5.5 7.7-12.85 6.65-4.1-.6-8.75-3.95-14.3-14.3-10.5-36.35" fill="#ffffef"/><path d="M164.05 172.3q-33.45 26.3-68.75 35.25l11.75-14.5q.65 8.85 21.8 0 11.7-7.9 10.7-14.9 9.65-6.35 18.25-14.65 3.3 4.25 6.25 8.8" fill="#a95402"/><path d="m34.2 174.8.25 2.05q3.15 13.45 11.35 21.3l-5.9-1.2Q27.25 183.9 28.35 167.7l5.85 7.1" fill="#fad358"/><path d="m23.5 160.5 2.6 1.2q-2.35 16.35 7.15 31.35-4.05-.95-7.6-3.45-4.95-13.85-2.15-29.1" fill="#595673"/><path d="m20 188.25 6.35 5.15 1.8 9.45-5.5-2.85q-1.75-5.9-2.65-11.75" fill="#b46002"/><path d="m20.95 159.35 2.55 1.15q-2.8 15.25 2.15 29.1-3.3-2.35-6.2-6-1.2-12.25 1.5-24.25" fill="#1e2036"/><path d="m23.4 204.8 2.05 1.35-.5 4.6 8.65 11.55 1.75 2.35q2.7 15.65 10.9 24.8l-3.15-2.25q-14.05 21.25 15.85 29.4l3.5.85 2.9-8v9.7l17.1 1.65L84.1 269l1.8 11 27.7-1.8 1.65-8.9q.55 2.3.65 4.55v3l-.65 4.1-28.75 2.7-1.8-2.55-1.5 2.25-21.5-1.95v-2q-15.45-1.7-21.55-8.1-2.15-2.25-3.15-5.1-.5-1.4-.7-3-.95-7.6 4.95-18.6-6.4-5.75-7.7-16.95l-10.15-16v-6.85" fill="#905857"/><path d="M25.45 206.15q3.45 2.15 7.05 3.85l1.1 12.3-8.65-11.55.5-4.6" fill="#ecdec2"/><path d="m27.2 223.45 2.45 6.65q-11.1 27.1 6.65 33.1.2 1.6.7 3-11-4.1-19.15-13.4l9.35-29.35" fill="#d42625"/><path d="M32.5 210q2.3 1.1 4.65 2.05-3.8 22.05 10.5 36.35 4.65 3.35 8.75 3.95 8.3 2 16.05-4.85l3.75-4.35 4.55 1.95-1.8 8.3q-1.4-.15-2.75-1.05l-3.75 6.95q6.3 3.4 11.4 2.65l5.95 3.75 8.35-9.4q17.6 6.8 40.4 6.5-10.5 6.35-23.3 6.5l-1.65 8.9-27.7 1.8-1.8-11-1.65 11.8-17.1-1.65v-9.7l-2.9 8-3.5-.85q-23.45-11.85-12.7-27.15-8.2-9.15-10.9-24.8l-1.75-2.35-1.1-12.3" fill="#ffe"/><path d="M46.25 249.45q-10.75 15.3 12.7 27.15-29.9-8.15-15.85-29.4l3.15 2.25" fill="#e9d9be"/><path d="M136.35 253.1q-28.6 6.3-37.15-10.9l3.05-2.55 6.35 7.55v-2.9q11.55 11.25 27.75 8.8" fill="#b97a75"/><path d="M78.95 253.4q3.3.45 6.8-3.3l5.75 7.55q-3.4 3.6-7.65 4.3-5.1.75-11.4-2.65l3.75-6.95q1.35.9 2.75 1.05m1.8 7.25q3.65.15 8.05-2.1l-3.35-5q-3.05 1.8-6.35 1.85l-2.4-.15-1.9 3.3q2.7 2 5.95 2.1" fill="#3c061c"/><path d="M79.1 255.4q3.3-.05 6.35-1.85l3.35 5q-4.4 2.25-8.05 2.1l-1.65-5.25" fill="#210847"/><path d="m79.1 255.4 1.65 5.25q-3.25-.1-5.95-2.1l1.9-3.3 2.4.15" fill="#080a1f"/><path d="M56.4 252.35q7.35 1.05 12.85-6.65l3.2 1.8q-7.75 6.85-16.05 4.85" fill="#be8179"/><path d="M244.7 158.15q3.9 24.9 6.7 54.85l-13.9 22.25 9.5-21.5.95-2.1-3.25-53.5" fill="#78ecf8"/><path d="m210.5 188.3-7.35 30.3q.65-26.6-4.65-59.8l12 29.35v.15" fill="#9e2d3d"/><path d="M225.3 182.9q-2.85 8.3-10.95 1.2l-12.8-35.25q9.25 7.75 18.55 19.3 3.6 7.7 5.2 14.75" fill="#9f2e3d"/><path d="M107.05 193.05q17.5-5.1 32.5-14.9 1 7-10.7 14.9-21.15 8.85-21.8 0" fill="#f9cc52"/><path d="M171.9 227.4v8.75l-3.2-5.45 1.8-3.65 1.4.35m-7.8 28.9-2.7-16.2 7.95 2.55q-1.05 8.15-5.25 13.65" fill="#e0c8b0"/><path d="M115.9 273.85q25.2.1 48.75-5.75l3.55-.95 1.55 3.65q-27.35 5.55-53.85 6.05v-3" fill="#33051b"/><path d="m174.35 267.85 22.6-11.55 9.1-23.15 3.35 10.9q4.4-13.95 4.9-35.75l8.45 44.7q-13.8 10.65-29.9 15.35-8.8.8-18.75-.35l.25-.15" fill="#460c24"/><path d="M223.6 257.5q-13.15 9.25-30.75 10.85 16.1-4.7 29.9-15.35l.85 4.5" fill="#72ebf8"/><path d="M110.25 160.25q-.8-4.15-2.25-8.4l13.7-5.5-11.45 13.9" fill="#555170"/><path d="m130.85 198.45 2.6-1.25 2.4 2.65 27.25-13.35-6.4 4.85q17.3 5.35 14.7 27.1l7.1 10.55-8-1.95-1.8 3.65 8.6 14.55-15.9-5.15 2.7 16.2-12.2-8.2q-8.25 3.9-15.55 5-16.2 2.45-27.75-8.8v2.9l-6.35-7.55-6.05 5.1q7.85-17.3 20.25-29.95l-6.55-8.1 3.95-1.35 10 4.35 4.45-4.6-4.7-3.45 2.9-1.25 5.1 6.25-6.5 5.9-10.45-4.35 5.95 8.6q-4.3 3.75-7.2 7.15-8.8 10.5-4.5 18 9.7 10.25 23.5 9.1 8.75-.7 19.2-6.1l10.1 6.95-2.4-15 13.6 4.85-6.5-11.35 1.45-2.2 1.45-2.2h5.3l-5.45-6.6q2.05-21.75-13.8-26.7l-19.2 10-5.3-4.25" fill="#3f071f"/><path d="M132.4 251.05q-13.8 1.15-23.5-9.1-4.3-7.5 4.5-18-2.05 21.35 19 27.1" fill="#080a1f"/><path d="m130.85 198.45 5.3 4.25 19.2-10q15.85 4.95 13.8 26.7l5.45 6.6h-5.3l-1.45 2.2-12.2-18.35-35.05 6.95-5.95-8.6 10.45 4.35 6.5-5.9-5.1-6.25 4.35-1.95" fill="#080a20"/><path d="m167.85 228.2-1.45 2.2 6.5 11.35-13.6-4.85 2.4 15-10.1-6.95q-10.45 5.4-19.2 6.1-21.05-5.75-19-27.1 2.9-3.4 7.2-7.15l35.05-6.95 12.2 18.35m-46.25-6.15q-10.05 4.45-5.3 12.45 9.2 1.7 5.3-5.75v-6.7m6.9 13.7q.45-.4.45-1 0-.65-.45-1.05-.45-.45-1.05-.45-.6 0-1.05.45-.4.4-.4 1.05 0 .6.4 1 .45.45 1.05.45.6 0 1.05-.45" fill="#200846"/><path d="M128.5 235.75q-.45.45-1.05.45-.6 0-1.05-.45-.4-.4-.4-1 0-.65.4-1.05.45-.45 1.05-.45.6 0 1.05.45.45.4.45 1.05 0 .6-.45 1m-6.9-13.7v6.7q3.9 7.45-5.3 5.75-4.75-8 5.3-12.45" fill="#13fcff"/><path d="M46.3 214.9q11.35 8.45 18.2 17.65 5.35 7.25 7.95 14.95l-3.2-1.8q-5.5 7.7-12.85 6.65-4.1-.6-8.75-3.95-14.3-14.3-10.5-36.35 4.5 1.75 9.15 2.85m17.9 32.55q1.85-1.45 3.55-3.75-10-18.1-27.95-28.55-.85 5.4-.25 10.7.85 7.5 4.6 14.85 11.4 13.3 20.05 6.75" fill="#40071f"/><path d="M49.75 236.05q-.5-.45-1.2-.45t-1.2.45q-.5.5-.5 1.2t.5 1.2q.5.5 1.2.5t1.2-.5q.5-.5.5-1.2t-.5-1.2m-.15-3.85-5.9-4.4q-1.45 3.45.6 7.45 3.95 1.65 5.3-3.05m14.6 15.25q-8.65 6.55-20.05-6.75-3.75-7.35-4.6-14.85 3.15-15.8 24.65 21.6" fill="#23084a"/><path d="M49.6 232.2q-1.35 4.7-5.3 3.05-2.05-4-.6-7.45l5.9 4.4m.15 3.85q.5.5.5 1.2t-.5 1.2q-.5.5-1.2.5t-1.2-.5q-.5-.5-.5-1.2t.5-1.2q.5-.45 1.2-.45t1.2.45" fill="#15fcff"/><path d="M39.55 225.85q-.6-5.3.25-10.7 17.95 10.45 27.95 28.55-1.7 2.3-3.55 3.75-21.5-37.4-24.65-21.6" fill="#080b20"/></g><g id="G" fill-rule="evenodd"><path d="m59.3 21.9-1.15 4.7-7.75-2.8q.35-3.3-1.35-7.7h4.2l6.05 5.8m-19.4-3.05q.95-2.25.95-5l6.5 3.65q1.9 4.05 1.25 6.95l-8.7-5.6m-2.15-1.05Q25.3 4.5 9.85 11.05L6.95 6.5q14.6-9.25 29.8 0 2.85 6.95 1 11.3" fill="#ffffef"/><path d="m50.4 23.8 7.75 2.8 1.15-4.7 7.35-.8 3.7 3.15-4.85 1.85q-5.3 2.45-7.45 5.25-3.2-3.6-10.7-2 2.65-2.2 3.05-5.55m-1.8.65-.05.05-8.4 4.35-7.3-3.35q5.25-2.35 7.05-6.65l8.7 5.6M37.75 17.8q-2.05 4.9-9.9 6.55-11.15-3.75-18-13.3Q25.3 4.5 37.75 17.8m-17.8 23q-8.55.1-15.55-2.85l5-5.95 6.2 3.5h9.1l-4.75 5.3m1.5-7.1h-5.7L2.3 26.45q4.45-4.85 12.05-7.3 6 6.3 16.05 8.05l-8.95 6.5" fill="#e6d4ba"/><path d="m59.3 21.9-6.05-5.8h-4.2q1.7 4.4 1.35 7.7-.4 3.35-3.05 5.55-1.65 1.35-4.25 2.2l-5.15 3.8-1.15 1.5-1.25 1.55q3.85 3.7 9.05 1.5 4.65 0 8.45 2.05l2.2 1.45h6.45l-2.5-2.5q-4.45-5.2-1.15-9.55 2.15-2.8 7.45-5.25l7.15 2.6 1.5.3 1.35.3q2.5.6 4.55 1.65l1.3.75q8.7 5.35 7.35 19.25-8.6 2.95-18.2 2.45l-6.8-6.65-10.15-2q-1.85-2.7-7.25-3.05-6.9 3.1-12.55-2.25H29.2q-8.8 6.05-28.1 0l6-8.45L0 27.2q3.5-6.9 12.75-10Q6.4 12.5 4.1 5.25q16.05-10.5 33.6 0l7.55 8.65h8.95l3.45 4.35 7.7-.3-1.5 1.4q1.45.8 2.8 1.75l-7.35.8m-10.7 2.55q.65-2.9-1.25-6.95l-6.5-3.65q0 2.75-.95 5-1.8 4.3-7.05 6.65l7.3 3.35 2.4 1.05q5.05-1.8 6-5.4l.05-.05M9.85 11.05q6.85 9.55 18 13.3 7.85-1.65 9.9-6.55 1.85-4.35-1-11.3-15.2-9.25-29.8 0l2.9 4.55M34.5 36.8l1.3-1.05-7.25-.85v2.95h4.7l1.25-1.05m-3.65-6.5-1.35 2.8 6.65 1.5 2.35-1.7 2.35-1.75-8.6-3.65-1.4 2.8m-10.9 10.5q7.3-.4 6.85-5.3H15.6L9.4 32l-5 5.95q7 2.95 15.55 2.85m1.5-7.1h5.8l3.15-6.5q-10.05-1.75-16.05-8.05-7.6 2.45-12.05 7.3l13.45 7.25h5.7m48.35-2.15q-1.15.75-2.1 1.6-5.45 4.75-4.3 10.4l3.95 3.85 3.9 3.85 15.9-2.45q.8-15.75-15.25-18.6l-2.1 1.35m-6.5 3.2q1.85-2.85 5.55-4.85l-3.75-1.65q-3.3 2-4.75 4.1-1.1 1.45-1.25 2.95-.3 2.8 2.5 5.65-.05-2 .6-3.75.35-1.3 1.1-2.45" fill="#7d4b4f"/><path d="m70.35 24.25-3.7-3.15q-1.35-.95-2.8-1.75l1.5-1.4 4.55-4.2 3.15 1.45 1.15.65q2.05 1.25 3.5 2.8l2.05 2.7q1.35 2.4 1.7 5.25l.15 1.6v1.25l-.25 2.25-1.3-.75q0-4.15-1.35-7.35-.75-1.7-1.85-3.1-2.25-2.95-6.1-4.85l-4.4 3.5 2.35 1.8q2.35 1.9 4.1 4.15 1.55 1.95 2.7 4.2l-1.35-.3q-1.65-2.55-3.8-4.75" fill="#582100"/><path d="m68.7 20.95-2.35-1.8 4.4-3.5q3.85 1.9 6.1 4.85l-8.15.45" fill="#ffffb1"/><path d="m65.5 26.1 4.85-1.85q2.15 2.2 3.8 4.75l-1.5-.3-7.15-2.6m10.25 21.35h8.4q-4-10.85-14.35-15.9l2.1-1.35q16.05 2.85 15.25 18.6l-15.9 2.45-3.9-3.85 8.4.05" fill="#b26d6f"/><path d="M47.35 29.35q7.5-1.6 10.7 2-3.3 4.35 1.15 9.55l-6.15 1.05q-3.8-2.05-8.45-2.05l-7.8-3.05 1.15-1.5 5.15-3.8q2.6-.85 4.25-2.2" fill="#b57271"/><path d="m28.55 36.35 5.95.45-1.25 1.05h-4.7v-1.5M44.6 39.9q-5.2 2.2-9.05-1.5l1.25-1.55 7.8 3.05m-6.1-7-2.35 1.7-6.65-1.5 1.35-2.8 7.65 2.6" fill="#dcb9a7"/><path d="M28.55 36.35V34.9l7.25.85-1.3 1.05-5.95-.45m9.95-3.45-7.65-2.6 1.4-2.8 8.6 3.65-2.35 1.75" fill="#b77673"/><path d="M48.55 24.5q-.95 3.6-6 5.4l-2.4-1.05 8.4-4.35" fill="#b77572"/><path d="M24.7 35.5h2.1q.45 4.9-6.85 5.3l4.75-5.3m5.7-8.3-3.15 6.5h-5.8l8.95-6.5" fill="#b5716f"/><path d="M67.7 33.15q8.85 5.75 8.05 14.3l-8.4-.05-3.95-3.85q-1.15-5.65 4.3-10.4m-7.35-.8q1.45-2.1 4.75-4.1l3.75 1.65q-3.7 2-5.55 4.85l-2.95-2.4" fill="#ffe"/><path d="M67.7 33.15q.95-.85 2.1-1.6 10.35 5.05 14.35 15.9h-8.4q.8-8.55-8.05-14.3" fill="#e5d2b9"/><path d="M63.3 34.75q-.75 1.15-1.1 2.45l-3.1-1.9q.15-1.5 1.25-2.95l2.95 2.4" fill="#e5d3b9"/><path d="M62.2 37.2q-.65 1.75-.6 3.75-2.8-2.85-2.5-5.65l3.1 1.9" fill="#b16b6c"/><path d="m53.05 41.95 6.15-1.05 2.5 2.5h-6.45l-2.2-1.45" fill="#ebd9be"/><path d="M81.95 14.5 79 12.55l2.25-4.35q4.25 2.4 6.65 5.65l-5.95.65" fill="#fefeb1"/><path d="M87.9 13.85q-2.4-3.25-6.65-5.65L79 12.55l2.95 1.95L84 16.65q2.55 3.45 2.4 8.4l-.15 1.7h4.45l.25-2.15q.2-3.55-.85-6.55-.75-2.25-2.2-4.2m-6.05 3.05q-1.7-2-4.3-3.45l-1.15-.6 3.65-6.25q14.9 5.55 12.1 22.1l-7.85-.15.25-1.55.15-2.35q-.05-2.75-1.05-4.95-.7-1.5-1.8-2.8" fill="#532207"/><path d="M77.55 13.45q2.6 1.45 4.3 3.45l-4.15 1.75q-1.45-1.55-3.5-2.8l3.35-2.4" fill="#d22325"/><path d="M81.85 16.9q1.1 1.3 1.8 2.8l-3.9 1.65-2.05-2.7 4.15-1.75" fill="#7b172a"/><path d="m84.55 27-.25 1.55-2.7.9V28.2l2.95-1.2M76.4 12.85l1.15.6-3.35 2.4-1.15-.65 3.35-2.35" fill="#35061b"/><path d="M83.65 19.7q1 2.2 1.05 4.95l-3.25 1.95q-.35-2.85-1.7-5.25l3.9-1.65" fill="#4c0d25"/><path d="M80.05 30.95Q78 29.9 75.5 29.3q-1.15-2.25-2.7-4.2l5.9-1.5q1.35 3.2 1.35 7.35m10.05-12.9q1.05 3 .85 6.55l-4.55.45q.15-4.95-2.4-8.4l6.1 1.4" fill="#984602"/><path d="m68.7 20.95 8.15-.45q1.1 1.4 1.85 3.1l-5.9 1.5q-1.75-2.25-4.1-4.15m13.25-6.45 5.95-.65q1.45 1.95 2.2 4.2l-6.1-1.4-2.05-2.15" fill="#f7c04b"/><path d="m90.95 24.6-.25 2.15h-4.45l.15-1.7 4.55-.45" fill="#fac44c"/><path d="M84.7 24.65 84.55 27l-2.95 1.2-.15-1.6 3.25-1.95" fill="#79172a"/></g><g id="p" transform="translate(0 30.7)"><use ffdec:characterId="35" height="155.3" width="133.4" xlink:href="#s"/><use ffdec:characterId="36" height="66.65" transform="translate(31.75 85.05)" width="66.85" xlink:href="#t"/></g><g id="s" fill-rule="evenodd"><path d="M100.05 14.15q.35-1.85 1.4-4Q105.55 6.8 105.5 0q2.55 3.6 2.3 7.6-3.5 5.95-7.75 6.55m-59.75 96.6q21.15-25 47.7-42.25-1.1 29.25 35.4 13.3-16.8 16.35-42.4 25.8 21.2-3.65 30.25-2.55 15.6 1.9-4.95 17.9-12.75 7.05-26.05 8.15-5.75 2.65-11.5 4.7-18.1 6.4-36.15 6.6-25.05-9.35 3.3-26.25l4.4-5.4" fill="#79f9e9"/><path d="M107.8 7.6q-.25 3.2-2.3 6.65l-2.15 9.1q-4.55-3.4-3.3-9.2 4.25-.6 7.75-6.55M82.35 61.75q6.25-3.3 14.4-6.7 23.05-12.8 14.6-25.65 10.1 6.9 1.75 19.05-9.35 10.65-12.55 17-11.65 3.75-18.2-3.7" fill="#45f0ff"/><path d="M100.55 65.45q-7 13.8 15.05 7.3l-7.15 6.05q11.5.45 14.95 3Q86.9 97.75 88 68.5q-26.55 17.25-47.7 42.25-11.25 6.65-13.1-1.8.3-22.65 35.15-29.75 2.5-8.25 20-17.45 6.55 7.45 18.2 3.7" fill="#44e6ff"/><path d="M117.7 101.1q39.3 5.6-19.75 30.6 2.2 6.75-10.75 13.85-12.8-.5-18.45-9.75 5.75-2.05 11.5-4.7 13.3-1.1 26.05-8.15 20.55-16 4.95-17.9 8.6-1.05 6.45-3.95" fill="#41bbff"/><path d="M7.5 125.05q-17.65 11.65 6.2-16.3-8.7 12.4-6.2 16.3" fill="#41beff"/><path d="M32.6 142.4q-51 14.35-5.25-29.75l-.15-3.7q1.85 8.45 13.1 1.8l-4.4 5.4q-28.35 16.9-3.3 26.25" fill="#41c0ff"/><path d="M87.2 145.55q-5.05 2.75-12.4 5.6-21.55 8.35-31.9 0-8.15-1.4-10.3-8.75 18.05-.2 36.15-6.6 5.65 9.25 18.45 9.75" fill="#3c90ff"/><path d="M123.4 81.8q6.8 5.05-17.3 18.2l11.6 1.1q2.15 2.9-6.45 3.95-9.05-1.1-30.25 2.55 25.6-9.45 42.4-25.8" fill="#41ccff"/></g><g id="t" fill-rule="evenodd"><path d="m72.15 122.75-8.45-1.25 4.35 3.65v1.5l-5.9-1.6 3.8 3.85-6.15 9.3 1.95-.5q7.2 6.5 16.25 1.65l4.65 3.55-1.25-6.05 4.15 1.35-1.15-5.35h2.7L84.4 129q-.2-6.6-4.75-8.5l2.05-2.15-9.55 4.4m-24.6 28.95v-1.95l-9.5-4.85 2.5-5.45-2.7-7.35q-15.6-23.05 8.55-41.65 30.55-15.05 49.55 11.9 6.7 20.8-3.45 39.85-8.95 7.65-25.9 7.4l-1.65-3.3v5.4H57l-2.35-5.25v5.25H49.2v-4.75l-1.65 4.75m4.5-9.4-.8 1.35q3.25 1.7 6.5 0l-1.85-2.85q-1.95 1.85-3.85 1.5m-2.35-2.25h1.65q-4.35-9.9-13.4-13.9l.95 2.65q-.15 5.15 1.95 8.45 4.8 8.05 8.85 2.8" fill="#defdf4" transform="translate(-31.75 -85.05)"/><path d="m72.15 122.75 9.55-4.4-2.05 2.15q4.55 1.9 4.75 8.5l2.7 3.85h-2.7l1.15 5.35-4.15-1.35 1.25 6.05-4.65-3.55q-9.05 4.85-16.25-1.65l-1.95.5 6.15-9.3-3.8-3.85 5.9 1.6v-1.5l-4.35-3.65 8.45 1.25M66.6 149.6l-.2 2.1h-1.45v-5.4l1.65 3.3m-9.6 2.1h-2.35v-5.25L57 151.7m-7.8 0h-1.65l1.65-4.75v4.75m.5-11.65q-4.05 5.25-8.85-2.8-2.1-3.3-1.95-8.45l-.95-2.65q9.05 4 13.4 13.9H49.7m2.35 2.25q1.9.35 3.85-1.5l1.85 2.85q-3.25 1.7-6.5 0l.8-1.35" fill="#20f3e0" transform="translate(-31.75 -85.05)"/></g><g id="I" fill-rule="evenodd"><path d="M95.3 20.65q13.35-5.4-2.65-9.75 34.35 2.65 0 20.2v8.95q-19.95 4.55-33.4-3.9Q-58.3 57.15 57.3 0q-7.6 6.25-12.7 11.05l-.1.1q-50.6 34 12.4 20.35 21.5.8 38.4-10.85" fill="#45f0ff"/><path d="M44.5 11.15Q18.8 35.45 57.3 22.9q8.2 9.6 31.1 0l6.9-2.25Q78.4 32.3 56.9 31.5q-63 13.65-12.4-20.35m17.05 7.7 7.95-6.65-2.3 7.05-5.65-.4" fill="#79f9e9"/></g><g id="K" fill-rule="evenodd"><path d="M18.15 89.2 2.2 107.75q-10.85-6.3 32.25-47.3Q71.25 33.9 99.95 0 93.8 21.15 43.6 60.45 22.3 80.2 18.15 89.2" fill="#3dafff"/><path d="M18.15 89.2q-4.8 10.55 13.75 6.5l-9.1 10.75q-15.75 4.15-20.6 1.3L18.15 89.2" fill="#79f9e9"/><path d="m22.8 106.45 9.1-10.75q9.05-2 23.75-7.45-32.1 27.3-4.1 27.6Q9.45 136.3 32.3 103.6l-9.5 2.85" fill="#3ba4ff"/></g><use ffdec:characterId="2" height="169.85" transform="translate(0 6.3)" width="544.1" xlink:href="#u" id="c"/><use ffdec:characterId="7" height="47.75" width="42.05" xlink:href="#v" id="d"/><use ffdec:characterId="9" height="117.45" width="86.7" xlink:href="#w" id="e"/><use ffdec:characterId="11" height="122.4" width="82.3" xlink:href="#x" id="f"/><use ffdec:characterId="13" height="50" width="58.75" xlink:href="#y" id="g"/><use ffdec:characterId="15" height="137.5" width="98.5" xlink:href="#z" id="h"/><use ffdec:characterId="17" height="118.75" width="142.1" xlink:href="#A" id="i"/><use ffdec:characterId="19" height="324.75" width="261.4" xlink:href="#B" id="j"/><use ffdec:characterId="21" height="80.8" width="129.35" xlink:href="#C" id="k"/><use ffdec:characterId="23" height="35.1" width="31.5" xlink:href="#D" id="l"/><use ffdec:characterId="25" height="46.55" width="39.35" xlink:href="#E" id="m"/><use ffdec:characterId="27" height="283.65" width="255.1" xlink:href="#F" id="n"/><use ffdec:characterId="33" height="53.45" width="92.6" xlink:href="#G" id="o"/><use ffdec:characterId="44" height="41.8" transform="translate(22.05)" width="109.8" xlink:href="#H" id="q"/><use ffdec:characterId="43" height="41.8" width="109.8" xlink:href="#I" id="H"/><use ffdec:characterId="47" height="123.7" transform="translate(33.25)" width="99.95" xlink:href="#J" id="r"/><use ffdec:characterId="46" height="123.7" width="99.95" xlink:href="#K" id="J"/><path d="m-.4-3.4 16.1 1.05Q22.35-1.3 22.35.2q0 1.45-6.65 2.5L-.4 3.8l-16.1-1.1q-6.65-1.05-6.65-2.5 0-1.5 6.65-2.55L-.4-3.4" fill-opacity=".349" fill-rule="evenodd" transform="translate(23.15 3.4)" id="b"/><path d="M12.25 63.35 8 43.95l18.15-33.9Q54.2-11.7 74.55 13.7 85.7 54.4 86.7 92.05q-71.5 53-86.6-4.5-1.1-10.9 12.15-24.2" fill="#480c24" fill-rule="evenodd" id="w"/></defs></svg>