<svg xmlns:ffdec="https://www.free-decompiler.com/flash" xmlns:xlink="http://www.w3.org/1999/xlink" ffdec:objectType="frame" height="90" width="90" xmlns="http://www.w3.org/2000/svg"><use ffdec:characterId="69" height="76.75" transform="translate(7.9 8.15)" width="77.95" xlink:href="#a"/><defs><g id="a" transform="translate(-7.9 -8.15)"><use ffdec:characterId="1" height="29.15" transform="matrix(.4302 0 0 .3143 21.766 75.412)" width="112.8" xlink:href="#b"/><use ffdec:characterId="2" height="33.45" transform="matrix(.267 0 0 .267 26.533 54.183)" width="62.2" xlink:href="#c"/><use ffdec:characterId="3" height="84.2" transform="matrix(.267 0 0 .267 12.883 53.233)" width="96.5" xlink:href="#d"/><use ffdec:characterId="4" height="33.8" transform="matrix(.267 0 0 .267 16.683 38.533)" width="43.4" xlink:href="#e"/><use ffdec:characterId="5" height="68.9" transform="matrix(.267 0 0 .267 49.133 51.583)" width="76" xlink:href="#f"/><use ffdec:characterId="6" height="49.9" transform="matrix(.267 0 0 .267 53.483 43.283)" width="120.7" xlink:href="#g"/><use ffdec:characterId="7" height="117.2" transform="matrix(.267 0 0 .267 36.533 20.933)" width="116.85" xlink:href="#h"/><use ffdec:characterId="8" height="13.95" transform="matrix(.267 0 0 .267 32.383 35.533)" width="19.6" xlink:href="#i"/><use ffdec:characterId="9" height="83.7" transform="matrix(.267 0 0 .267 25.783 37.433)" width="61.85" xlink:href="#j"/><use ffdec:characterId="10" height="25" transform="matrix(.267 0 0 .267 54.233 38.283)" width="31.2" xlink:href="#k"/><use ffdec:characterId="11" height="23.85" transform="matrix(.267 0 0 .267 45.457 40.033)" width="22.8" xlink:href="#l"/><use ffdec:characterId="12" height="23.85" transform="matrix(.267 0 0 .267 47.833 41.933)" width="15.05" xlink:href="#m"/><use ffdec:characterId="13" height="111.65" transform="matrix(.267 -.0043 0 .267 44.283 40.037)" width="67" xlink:href="#n"/><use ffdec:characterId="14" height="17" transform="matrix(.267 0 0 .267 53.676 40.733)" width="24.85" xlink:href="#o"/><use ffdec:characterId="15" height="70.5" transform="matrix(.267 0 0 .267 41.483 23.026)" width="77.3" xlink:href="#p"/><use ffdec:characterId="16" height="68.55" transform="matrix(.267 0 0 .267 41.577 8.983)" width="115" xlink:href="#q"/><use ffdec:characterId="17" height="54.45" transform="matrix(.267 0 0 .267 42.538 18.701)" width="87.85" xlink:href="#r"/><use ffdec:characterId="18" height="29.45" transform="matrix(.267 0 0 .267 63.322 38.858)" width="45.4" xlink:href="#s"/><use ffdec:characterId="19" height="70" transform="matrix(.267 0 0 .267 44.193 26.817)" width="88.1" xlink:href="#t"/><use ffdec:characterId="20" height="31.95" transform="matrix(.267 0 0 .267 62.962 32.21)" width="46.7" xlink:href="#u"/><use ffdec:characterId="21" height="30.15" transform="matrix(.267 0 0 .267 42.51 30.221)" width="61.9" xlink:href="#v"/><use ffdec:characterId="22" height="2.55" transform="matrix(.267 0 0 .267 48.491 38.03)" width="8.3" xlink:href="#w"/><use ffdec:characterId="23" height="27.05" transform="matrix(.267 0 0 .267 40.8 34.7)" width="18.45" xlink:href="#x"/><use ffdec:characterId="24" height="49.65" transform="matrix(.267 0 0 .267 28.083 46.333)" width="45.15" xlink:href="#y"/><use ffdec:characterId="25" height="51.9" transform="matrix(.267 0 0 .267 45.633 44.583)" width="46.35" xlink:href="#z"/><use ffdec:characterId="26" height="31.3" transform="matrix(.267 0 0 .267 54.033 43.233)" width="23.6" xlink:href="#A"/><use ffdec:characterId="27" height="55.15" transform="matrix(.267 0 0 .267 34.633 45.583)" width="60.6" xlink:href="#B"/><use ffdec:characterId="28" height="24.45" transform="matrix(.267 0 0 .267 43.083 44.783)" width="23.75" xlink:href="#C"/><use ffdec:characterId="29" height="40" transform="matrix(.267 0 0 .267 32.15 37.183)" width="38.9" xlink:href="#D"/><use ffdec:characterId="30" height="29.5" transform="matrix(.267 0 0 .267 23.183 35.183)" width="53.1" xlink:href="#E"/><use ffdec:characterId="31" height="24.4" transform="matrix(.267 0 0 .267 15.127 30.012)" width="18.25" xlink:href="#F"/><use ffdec:characterId="32" height="50.1" transform="matrix(.267 0 0 .267 9.333 21.429)" width="39.3" xlink:href="#G"/><use ffdec:characterId="33" height="113.3" transform="matrix(.267 0 0 .267 15.42 8.133)" width="110.15" xlink:href="#H"/><use ffdec:characterId="34" height="62.3" transform="matrix(.267 0 0 .267 35.044 11.604)" width="34.6" xlink:href="#I"/><use ffdec:characterId="35" height="35.2" transform="matrix(.267 0 0 .267 17.476 25.86)" width="62.95" xlink:href="#J"/><use ffdec:characterId="36" height="4" transform="matrix(.267 0 0 .267 24.19 34.564)" width="9.45" xlink:href="#K"/><use ffdec:characterId="37" height="11.8" transform="matrix(.267 0 0 .267 7.883 33.783)" width="11.95" xlink:href="#L"/><use ffdec:characterId="38" height="26.25" transform="matrix(.267 0 0 .267 9.333 37.183)" width="26.6" xlink:href="#M"/><use ffdec:characterId="39" height="15.45" transform="matrix(.267 0 0 .267 39.483 67.533)" width="15.65" xlink:href="#N"/><use ffdec:characterId="40" height="24.9" transform="matrix(.267 0 0 .267 67.483 28.033)" width="25.2" xlink:href="#O"/><use ffdec:characterId="41" height="11.8" transform="matrix(.267 0 0 .267 72.833 22.683)" width="11.95" xlink:href="#P"/></g><g id="c"><path d="m54.55.6 1.4-.6q7.65 11.15 1.55 21.7-6.15 10.55-18.7 9.7-5.85-.45-10.9-1.9l2.85-.1 2.25.35 3.15-.1q5.95-.1 11.35-2.6 5.55-2.45 8-8.1-1.7.35-1.3-1.9.55-1.7 1.55-2.5.75-.6 1.45-.2.6-2.7.25-5.35-.65-4.6-2.9-8.4" fill="#68ffff" fill-rule="evenodd" transform="translate(1 1)"/><path d="M54.55.6q2.25 3.8 2.9 8.4.35 2.65-.25 5.35-.7-.4-1.45.2-1 .8-1.55 2.5-.4 2.25 1.3 1.9-2.45 5.65-8 8.1-5.4 2.5-11.35 2.6l-3.15.1-2.25-.35q11.15-.45 14.7-3.65 4.05-4.85-.75-4.05l-4.7-.15q-.9 3.35-1.75 2.9-.1-2.95-1.45-3.55-6.35.5-9.95-3.45Q22.8 13 22.25 10l-.6-2.55Q48.45 2.7 54.55.6" fill="#5551e1" fill-rule="evenodd" transform="translate(1 1)"/><path d="M25.2 28.6q-4.3-1.6-8.05-4.05L16.3 24Q5.85 21.45.75 12.1q-1.9-3.55.9-6.2L2.8 7.1q6.5 5.75 13.85 1.25l5-.9.6 2.55q.55 3 4.6 7.45 3.6 3.95 9.95 3.45 1.35.6 1.45 3.55.85.45 1.75-2.9l4.7.15q4.8-.8.75 4.05-3.55 3.2-14.7 3.65l-5.55-.8" fill="#55a5ff" fill-rule="evenodd" transform="translate(1 1)"/><path d="m55.55 1.6 1.4-.6q7.65 11.15 1.55 21.7-6.15 10.55-18.7 9.7-5.85-.45-10.9-1.9l-2.7-.9q-4.3-1.6-8.05-4.05L17.3 25Q6.85 22.45 1.75 13.1q-1.9-3.55.9-6.2L3.8 8.1q6.5 5.75 13.85 1.25l-1.35.2M55.55 1.6q-6.1 2.1-32.9 6.85l-5 .9" fill="none" stroke="#4928b7" stroke-linecap="round" stroke-linejoin="round" stroke-width="2"/></g><g id="d"><path d="m3.2 7.3.6-.45Q9.35 2.45 20.35.6q11-1.85 21.6 2.2 9.15 3.55 16.2 12.75l1.95 2.75q2.05 2.1 5.15 3.1l.45.15q5.55-1.35 11.1 1.55 5.8 3.05 9.75 7.7L88 33.7q1.85 4.3 1.8 8.95l-.4-.4q-2.45-.85-3.35 1.45-2.1 5.2-.6 10.65.8 2.9 3.55 3.3l.3-.1q-.2 4.2-2.3 7.9-2.3 4.2-5.4 7.95-3.1 3.6-7.35 6.1l-1.6.85q.25-1.2.15-2.95l3.55-1.7q4.5-2.35 6.3-6.95 1.55-3.9 1.35-8-.25-4.7-1.45-9.3-1.15-4.45-3.8-8.2-2.95-4.15-7.85-3.5-1.7.05-3.3.75-4.3 2-6.5 6.1-2.05 3.95-1.95 8.4.1 4.45 1.45 8.65l1.05 3-1.65.05-1.25-2.25q-2.35-4.75-2.35-10.8-.05-6.05 1-10.65 1-4.6-3-5.55-6.5-.95-9.85 5.7-3.35 6.65-2.7 12.4l.8 5.35-1.4-1.2-.75-.75q-.7-3.6-.4-7.8.3-5.15 2.05-8.35 1.75-3.2-.4-6.05-2.15-2.9-6.75-.2-2.55 1.5-4.05 3.95.35-3.05 1.6-6l.75-1.75.15-.2.3-.25 1.65-2.1.9-1.6q1.2-2.55.5-3.95-.7-1.4-2.35-2.3-1.7-.9-4.65-.9-2.9 0-5.45 1.5-1.4.75-2.4 1.95l-.05-.05q-.05-.9.15-1.75 1.15-1.3 2.55-2.05 1.5-.9 3.55-1.7l3.4-1.6 2.2-1.6q.85-.85.3-2.6t-3.6-2.15l-4.5-.55-4.25.4-4.2 1.35-2.15 1-.45-.85q2.8-2.25 6.3-3.35 2.5-.7 4.2-1.45 1.7-.75 1.7-1.4-.05-.7-1.5-1.2l-4.2-.6-5.4.5Q12 6 8.3 7.85L3.2 7.3m44.4 17.95q-6.65-.95-12.2 4.95 5.55-5.9 12.2-4.95m14.2-2.2q1.95-1 3.9-1.5-1.95.5-3.9 1.5m20.55 7.7q-.8 0-1.4.95-.55 1-.55 2.35t.55 2.3q.6 1 1.4 1 .8 0 1.35-1 .6-.95.6-2.3 0-1.35-.6-2.35-.55-.95-1.35-.95" fill="#505ff3" fill-rule="evenodd" transform="translate(1 1)"/><path d="m3.2 7.3 5.1.55q2.1.55 4.05 1.8l.1.1L14 8.9q3.05-1.5 6.4-1.35l-1.55.55-1.85.85-1.75 1.15-1.3 1.05.95 1.6.45.85 2.55 5.1q.65 1.6 1.6 2.95 1.7-3.1 4.8-4.85 1.1-.65 2.35-.95-3.45 2.5-4.5 6.7l-.1.55q-.2.85-.15 1.75V25q-.85 1-1.4 2.25l-.55-.6Q16.4 22.5 12.65 15 9.4 8.5 0 9.85L3.2 7.3" fill="#fbffff" fill-rule="evenodd" transform="translate(1 1)"/><path d="M8.3 7.85Q12 6 16 5.25l5.4-.5 4.2.6q1.45.5 1.5 1.2 0 .65-1.7 1.4-1.7.75-4.2 1.45-3.5 1.1-6.3 3.35l-.95-1.6 1.3-1.05L17 8.95l1.85-.85 1.55-.55Q17.05 7.4 14 8.9l-1.55.85-.1-.1Q10.4 8.4 8.3 7.85" fill="#b688ff" fill-rule="evenodd" transform="translate(1 1)"/><path d="m15.35 13.6 2.15-1 4.2-1.35 4.25-.4 4.5.55q3.05.4 3.6 2.15.55 1.75-.3 2.6l-2.2 1.6-3.4 1.6q-2.05.8-3.55 1.7-1.4.75-2.55 2.05l.1-.55q1.05-4.2 4.5-6.7-1.25.3-2.35.95-3.1 1.75-4.8 4.85-.95-1.35-1.6-2.95l-2.55-5.1" fill="#b98afe" fill-rule="evenodd" transform="translate(1 1)"/><path d="m21.9 25 .05-.1q2.95 2.6 6.55 4.05l1.55.55.3-.5q1.4-2.25 3.85-2.75-1.5 1.45-1.9 3.35l.25.5.25.2 1.95.7-1.3 1.55-.2.2-5.1-.95q-4.3-1-7.65-4.55.55-1.25 1.4-2.25" fill="#f9fdff" fill-rule="evenodd" transform="translate(1 1)"/><path d="M82.35 30.75q.8 0 1.35.95.6 1 .6 2.35t-.6 2.3q-.55 1-1.35 1t-1.4-1q-.55-.95-.55-2.3 0-1.35.55-2.35.6-.95 1.4-.95" fill="#5ff" fill-rule="evenodd" transform="translate(1 1)"/><path d="m72.65 80.35 1.6-.85q4.25-2.5 7.35-6.1 3.1-3.75 5.4-7.95 2.1-3.7 2.3-7.9l-.3.1q-2.75-.4-3.55-3.3-1.5-5.45.6-10.65.9-2.3 3.35-1.45l.4.4Q89.85 38 88 33.7l-1.45-2.9q3.35 3.9 5.35 9 4.3 11 1.45 18.7-2.85 7.65-8.3 14.45-4.1 5.15-12.65 8.3l.2-.7.05-.2" fill="#5affff" fill-rule="evenodd" transform="translate(1 1)"/><path d="M21.95 24.9q1-1.2 2.4-1.95 2.55-1.5 5.45-1.5 2.95 0 4.65.9 1.65.9 2.35 2.3.7 1.4-.5 3.95l-.9 1.6-.65.8-1.95-.7-.25-.2-.25-.5q.4-1.9 1.9-3.35-2.45.5-3.85 2.75l-.3.5-1.55-.55q-3.6-1.45-6.55-4.05" fill="#c78dff" fill-rule="evenodd" transform="translate(1 1)"/><path d="m42.65 60.9-.8-5.35q-.65-5.75 2.7-12.4t9.85-5.7q4 .95 3 5.55-1.05 4.6-1 10.65 0 6.05 2.35 10.8L60 66.7q-5.55-.05-8-3.5-2.55-3.65-3.4-6.65-.95 4 1.3 7.4-4.15-.65-7.25-3.05M50 53.65q.5-.8.5-1.95t-.5-1.95q-.45-.8-1.15-.8t-1.2.8q-.45.8-.45 1.95t.45 1.95q.5.8 1.2.8t1.15-.8" fill="#cc8ffe" fill-rule="evenodd" transform="translate(1 1)"/><path d="M42.65 60.9q3.1 2.4 7.25 3.05-2.25-3.4-1.3-7.4.85 3 3.4 6.65 2.45 3.45 8 3.5 1.5 2.6 3.45 4.8-2.2-.95-4.65-1.6l-4.6-1.55q-2.4-.7-4.65-1.65-2.3-.8-4.45-1.8l-1.8-.85-.65-3.15M50 53.65q-.45.8-1.15.8t-1.2-.8q-.45-.8-.45-1.95t.45-1.95q.5-.8 1.2-.8t1.15.8q.5.8.5 1.95t-.5 1.95m-15-17.1-.5 2.05q-1.3 5.9.75 11.6 1.75 5.05 5.25 8.75l.4 1.6.8 2.65-2.95-1.65q-1.85-1.15-3.3-2.75-1.45-1.55-2.4-3.35-1.05-2-1.55-4.15-.6-2.35-.7-4.75-.1-2.5.05-4.95l.1-1.1q1.5-2.45 4.05-3.95m27.25 31.6 3.15 1.65q-.5-6.55 1.05-8.15 1.55-1.7 3.95-.5 2.35 1.15 1.95 5.95-.45 4.75.15 8.2l.3 2.1-2.15.85-.6-1.4q-1.65-3.15-5.1-4.7l-1.15-.5-1.55-3.5" fill="#fff" fill-rule="evenodd" transform="translate(1 1)"/><path d="m61.65 66.65-1.05-3q-1.35-4.2-1.45-8.65-.1-4.45 1.95-8.4 2.2-4.1 6.5-6.1 1.6-.7 3.3-.75 4.9-.65 7.85 3.5 2.65 3.75 3.8 8.2 1.2 4.6 1.45 9.3.2 4.1-1.35 8-1.8 4.6-6.3 6.95l-3.55 1.7-.3-2.1q-.6-3.45-.15-8.2.4-4.8-1.95-5.95-2.4-1.2-3.95.5-1.55 1.6-1.05 8.15l-3.15-1.65-.6-1.5" fill="#bc8afe" fill-rule="evenodd" transform="translate(1 1)"/><path d="M35 36.55q4.6-2.7 6.75.2 2.15 2.85.4 6.05-1.75 3.2-2.05 8.35-.3 4.2.4 7.8-3.5-3.7-5.25-8.75-2.05-5.7-.75-11.6l.5-2.05" fill="#d190fe" fill-rule="evenodd" transform="translate(1 1)"/><path d="m40.5 58.95.75.75 1.4 1.2.65 3.15-1.6-.85-.8-2.65-.4-1.6" fill="#c8c7e7" fill-rule="evenodd" transform="translate(1 1)"/><path d="m60 66.7 1.65-.05.6 1.5 1.55 3.5-.35-.15Q61.5 69.3 60 66.7" fill="#2823a1" fill-rule="evenodd" transform="translate(1 1)"/><path d="M72.8 77.4q.1 1.75-.15 2.95l-2 .8q.3-.7.25-1.6l-.25-1.3 2.15-.85" fill="#97ffff" fill-rule="evenodd" transform="translate(1 1)"/><path d="M59.15 16.55Q52.1 7.35 42.95 3.8q-10.6-4.05-21.6-2.2-11 1.85-16.55 6.25l-.6.45L1 10.85Q10.4 9.5 13.65 16q3.75 7.5 7.3 11.65l.55.6q3.35 3.55 7.65 4.55l5.1.95h.05l.15-.2 1.3-1.55.65-.8q5.55-5.9 12.2-4.95m24.8 56q8.55-3.15 12.65-8.3 5.45-6.8 8.3-14.45 2.85-7.7-1.45-18.7-2-5.1-5.35-9-3.95-4.65-9.75-7.7-5.55-2.9-11.1-1.55-1.95.5-3.9 1.5M31.95 41.5q.35-3.05 1.6-6l.75-1.75m37.35 48.4L70.6 83.2l2.8-.95m-29.1-17.2 1.8.85q2.15 1 4.45 1.8 2.25.95 4.65 1.65l4.6 1.55q2.45.65 4.65 1.6l.35.15 1.15.5q3.45 1.55 5.1 4.7l.6 1.4.25 1.3q.05.9-.25 1.6M42.7 64.2l-2.95-1.65q-1.85-1.15-3.3-2.75-1.45-1.55-2.4-3.35-1.05-2-1.55-4.15-.6-2.35-.7-4.75-.1-2.5.05-4.95l.1-1.1M42.7 64.2l1.6.85" fill="none" stroke="#2823a1" stroke-linecap="round" stroke-linejoin="round" stroke-width="2"/><path d="m62.05 40.15.4-.3q-3.75 4.8-5 10.85-.8 4.05.25 7.95.9 3.2 2.75 6 1.95 3.05 3.3 6.45l.05.35q-2.95-3.3-5.3-7.7-2.05-3.8-2.1-8-.05-5.15 1.7-9.8.95-2.55 2.4-4.65l1.55-1.15M40 55.45q-.55-2.85-.25-5.7.65-5.6 4.75-9.05-2.5 4.1-3.55 8.7-.65 2.95.3 6.05l2.9 8.6q-3.25-3.8-4.15-8.6M21.55 25.2l-1.05.95q.1-2.8 3.35-4.95 2.6-1.8 5.4-1.4l.1.2-.3.4q-3.1.15-5.3 2.35L22.5 24l-.95 1.2M14.6 14.4q.35-1.65 3.2-3.15 3.65-2 7.75-2.5 5.05-.6 8.8 2.55-4.65-1.75-9.7-1.35-5.8.55-10.05 4.45" fill="#2823a1" fill-rule="evenodd" transform="translate(1 1)"/></g><g id="e"><path d="M28.65 3.6q.7-.5 2.55-1.7L33.5.4q.4-.3 1.75-.35l4.25.1q2.9.15 1.35 1.8Q39.3 3.6 38.1 6.1q-1.25 2.45-1.55 3.4l-1 1.75-1.1 1.35q-.45.5-1.4 2.2l-2.1 3.65-2.35 3.8-.95 1.3-2.9 2.85q-2 1.8-4.6 3-2.65 1.15-4.75 1.45-2.1.3-3.95-.45-.8-.35-1.5-.85l-.3-.3-.7-.8-.45-.95.05-.1-.05.1.45.95.7.8-2.05 1.5q-1.3 1.05-2 1.05-1.1 0-1.8-.85-.45-.6-.5-1.35-.65.6-1.5.6-.55 0-1.4-1.2l-.35-2H.3q1.4-.2 2.35-1.2l2-1.85q.85-.65 1.9-1.05l2-.3 3.6-.65q1.85-.3 3.15-1.6l.15.05-.8 1.85-.85 1.25h-.45l-3.55.55q-2.65.45-3.5.95-.85.5-2 3.05l-.8 1.35.8-1.35q1.15-2.55 2-3.05.85-.5 3.5-.95l3.55-.55-1.6.85q-.75.45-1.55 1-1.2.85-1.65 2.05 3.15 2.1 7.35.1 4.1-2 6.85-5.6 2.8-3.8 4.65-7.95 1.9-4.3 1.45-8.85l-.2-1.5M3.3 29.6l.2-.2-.2.2" fill="#f7a496" fill-rule="evenodd" transform="translate(1 1)"/><path d="m28.65 3.6.2 1.5q.45 4.55-1.45 8.85-1.85 4.15-4.65 7.95-2.75 3.6-6.85 5.6-4.2 2-7.35-.1.45-1.2 1.65-2.05.8-.55 1.55-1 1.25-.1 2.05-.85l.85-1.25.8-1.85.15-.8-.3.75q-1.3 1.3-3.15 1.6l-3.6.65-2 .3q-1.05.4-1.9 1.05l-2 1.85Q1.7 26.8.3 27H.05v-1.55l.05-.65q2-3.05 5-5 .8-.6 1.7-.75l.05.35q1.1.95 2.65.65 2.65-.6 3.1-3.05l-.7-.9.6-.5q.35-.45.25-1.1l-.25-.25-.9-.8q4.15-2.1 8.2-4.4l8.85-5.45" fill="#ffcea1" fill-rule="evenodd" transform="translate(1 1)"/><path d="m11.6 13.45.9.8.25.25q.1.65-.25 1.1l-.6.5.7.9q-.45 2.45-3.1 3.05-1.55.3-2.65-.65l-.05-.35q-.9.15-1.7.75-3 1.95-5 5 .85-6.15 9.5-10.35l1.6-.75.4-.25" fill="#fde7ba" fill-rule="evenodd" transform="translate(1 1)"/><path d="M41.85 2.95q1.55-1.65-1.35-1.8l-4.25-.1q-1.35.05-1.75.35l-2.3 1.5q-1.85 1.2-2.55 1.7l-8.85 5.45q-4.05 2.3-8.2 4.4l-.4.25-1.6.75q-8.65 4.2-9.5 10.35m8.45 2.6-.05.1.45.95.7.8.3.3q.7.5 1.5.85 1.85.75 3.95.45t4.75-1.45q2.6-1.2 4.6-3l2.9-2.85.95-1.3 2.35-3.8 2.1-3.65q.95-1.7 1.4-2.2M1.05 26.45V28l.35 2q.85 1.2 1.4 1.2.85 0 1.5-.6.05.75.5 1.35.7.85 1.8.85.7 0 2-1.05l2.05-1.5m2.1-4.9q-.75.45-1.55 1-1.2.85-1.65 2.05m4.8-3.9-3.55.55q-2.65.45-3.5.95-.85.5-2 3.05l-.8 1.35m8.25-5.05 1.6-.85" fill="none" stroke="#af6048" stroke-linecap="round" stroke-linejoin="round" stroke-width="2"/><path d="m3.5 29.4-.2.2" fill="none" stroke="#0f0" stroke-linecap="round" stroke-linejoin="round" transform="translate(1 1)"/><path d="M20.15 4.5h.45l.1 1.4-.9 3.25-.5 1.6-1.35 4.7-2.3-.3-.1-.25q.65-2.9 1.7-5.55.95-2.55 2.9-4.85" fill="#6051e2" fill-rule="evenodd" transform="translate(1 1)"/><path d="M15.65 15.15q-1.3.1-1.6.7l-.3-.65q-.3-.35-.9-.55-.6-.25-2.15 0l.25-.2q1.85-5.1 5.25-8.15 1.85-1.65 3.95-1.8-1.95 2.3-2.9 4.85-1.05 2.65-1.7 5.55l.1.25" fill="#697cfe" fill-rule="evenodd" transform="translate(1 1)"/><path d="M11.95 15.45q1.85-5.1 5.25-8.15 1.85-1.65 3.95-1.8h.45l.1 1.4-.9 3.25-.5 1.6-1.35 4.7" fill="none" stroke="#5030b7" stroke-linecap="round" stroke-linejoin="round" stroke-width="2"/></g><g id="f"><path d="M38.8 32q4.5 2.3 5.75 7 .7 2.55-.55 4.85-1.65 2.95-5.2 3 5.35-6.3 0-14.85m2.05 33.05q-13.1 3.25-30.75.8-5.9-.95-9.65-17Q-4.2 19.1 40.2 14.65q-42.6 8.95-28.95 28.8 9.35 3.05 9.6 7.8.05 3.2-3.85 4.4-.05 2.5-2.1 4.3 3.4-.55 3.55-3.4 4 .3 5.9-4.55 10.2 5.9 16.2 3.45 5.95-2.5 5.55-8.5 2.7 9.25-6.45 11.55 5.85-.05 1.2 6.55m7.2-30.2h.05q4.75-.35 7.25 2.85l.65 1.35q.6 2.3-.3 3.85h-.05L54.6 45l.3-.05.75-.6-.3.95q2.2 3.25-.2 5.55.7-2.65-1-4.95-1.05-8.3-4-9.15-1.9-.85-2.1-1.9" fill="#f272ba" fill-rule="evenodd" transform="translate(1 1)"/><path d="M38.8 46.85h-.35q-.2 0-.35.15 4.9.55 6.7-2.7 1.45-2.65.3-6.8-1.15-4.2-4.5-5.15l-2.7-.95.05.05.2.25.65.3q5.35 8.55 0 14.85m5.8 17.1-3.75 1.1q4.65-6.6-1.2-6.55 9.15-2.3 6.45-11.55.4 6-5.55 8.5-6 2.45-16.2-3.45-1.9 4.85-5.9 4.55-.15 2.85-3.55 3.4 2.05-1.8 2.1-4.3 3.9-1.2 3.85-4.4-.25-4.75-9.6-7.8Q-2.4 23.6 40.2 14.65 63.85 24.5 66.8 0l1.5.45.1.55q1.7 8.9 1.9 16.7l-.25-.35q-.5-.55-1.15-.55-.7 0-1.15.55-.5.5-.5 1.2 0 .75.5 1.25.45.55 1.15.55.65 0 1.15-.55l.3-.4q.15 31.9-25.75 44.55m9.85-39.4q3.2 0 6.05 3.1l.05-.05-.05-.3q-2.55-4.55-5.85-2.95l-.2.2m1.2 19.8.45-.45.1-.25.2-.2q1.2-1.85.45-4.65-.2-.95-.75-1.65-2.8-3.6-8.45-2.5l.1.1.3.1q.2 1.05 2.1 1.9 2.95.85 4 9.15 1.7 2.3 1 4.95 2.4-2.3.2-5.55l.3-.95m11.25-28.7q.1-1.4-.6-2.4-.75-.95-1.9-.95-1.2 0-2.1.95-.95 1-1.05 2.4-.15 1.4.6 2.35.75 1 1.9 1t2.1-1q.9-.95 1.05-2.35M30.45 41.7q.3 3.75-1.75 6.45-2.05 2.75-4.05 3.35l-.5.2.2.2h.35q4.35-1.4 5.75-4 1.45-2.55 0-6.2" fill="#b148b0" fill-rule="evenodd" transform="translate(1 1)"/><path d="m68.4 1 .55-.1q8.2 20.25 3.15 36.25-8.15 20.4-27.5 26.8Q70.5 51.3 70.35 19.4l.15-.85-.2-.85Q70.1 9.9 68.4 1" fill="#ff9fff" fill-rule="evenodd" transform="translate(1 1)"/><path d="m70.3 17.7.2.85-.15.85-.3.4q-.5.55-1.15.55-.7 0-1.15-.55-.5-.5-.5-1.25 0-.7.5-1.2.45-.55 1.15-.55.65 0 1.15.55l.25.35m-3.4-2.05q-.15 1.4-1.05 2.35-.95 1-2.1 1-1.15 0-1.9-1-.75-.95-.6-2.35.1-1.4 1.05-2.4.9-.95 2.1-.95 1.15 0 1.9.95.7 1 .6 2.4" fill="#56cce9" fill-rule="evenodd" transform="translate(1 1)"/><path d="m38.8 32-.65-.3-.2-.25-.05-.05 2.7.95q3.35.95 4.5 5.15 1.15 4.15-.3 6.8-1.8 3.25-6.7 2.7.15-.15.35-.15h.35q3.55-.05 5.2-3 1.25-2.3.55-4.85-1.25-4.7-5.75-7m15.65-7.45.2-.2q3.3-1.6 5.85 2.95l.05.3-.05.05q-2.85-3.1-6.05-3.1m1.2 19.8-.75.6-.3.05 1.05-2.1h.05q.9-1.55.3-3.85l-.65-1.35q-2.5-3.2-7.25-2.85h-.05l-.3-.1-.1-.1q5.65-1.1 8.45 2.5.55.7.75 1.65.75 2.8-.45 4.65l-.2.2-.1.25-.45.45m-25.2-2.65q1.45 3.65 0 6.2-1.4 2.6-5.75 4h-.35l-.2-.2.5-.2q2-.6 4.05-3.35 2.05-2.7 1.75-6.45" fill="#7b1c75" fill-rule="evenodd" transform="translate(1 1)"/><path d="M69.95 1.9q8.2 20.25 3.15 36.25-8.15 20.4-27.5 26.8l-3.75 1.1q-13.1 3.25-30.75.8-5.9-.95-9.65-17Q-3.2 20.1 41.2 15.65 64.85 25.5 67.8 1" fill="none" stroke="#7b1c75" stroke-linecap="round" stroke-linejoin="round" stroke-width="2"/></g><g id="g"><path d="M6.05 9.3q4.95 6.6 15.9 4.55L20.9 16.7q-2.05 7.35 3.55 10.05 6.4 3.15 10.6-1.45l1.95.3q-.4 6.65 5.35 8.9 4.25-.5 6.7 1.15v.05l.3-.4q1.75-.85 2.7.55l.6 1.2.05.2.25.55L54.2 40q-1.4 3.1-4.25 2-1.75-.7-1.85-4.85l.65-.95.3-.5-.1.05-.15.2-.15.2-.8.8q-9.7 9.95-23.5-1.7-3.8-3.3-5.3-7.25-6.35-17.15-14.8-16.05.75-1.4 1.8-2.65M55.2 40.05l1.45-1.65 4.7.2q2.6-.35 3.95-1.9 1.95.7 4.1 2.3.4-1.4.9-2.55 3.85 3.7 10.1 3.25 5.1-1.65 7.15-5.55v-.1q1.1-2.05 1.3-4.8 1.9-2.2 5.1-2.25 4.05-.05 4.7 2.6 7.8-6.55 14.45-6.45l.35.8q-8.4.5-17.15 10.7-4.5 5.3-7.85 7.2-10.15 5.25-20.3 4.75-6.95-1.1-12.95-6.55m-6.4-4.1-.05.05-.1.15.1-.15.05-.05" fill="#56cce9" fill-rule="evenodd" transform="translate(1 1)"/><path d="M20.9 16.7q10.95-2.65 14.15 8.6-4.2 4.6-10.6 1.45-5.6-2.7-3.55-10.05M37 25.6q5.1 1.45 5.35 8.9-5.75-2.25-5.35-8.9m19.65 12.8q3.7-3.55 8.65-1.7-1.35 1.55-3.95 1.9l-4.7-.2m13.65-1.95q2.95-6.85 9.05-6.75 5.35.75 7.45 4 .7-2.8 2.05-4.45-.2 2.75-1.3 4.8v.1q-2.05 3.9-7.15 5.55-6.25.45-10.1-3.25" fill="#83f4ff" fill-rule="evenodd" transform="translate(1 1)"/><path d="M65.3 36.7q1.85-2.15 1.2-6.55 1.4 3.95 3.8 6.3-.5 1.15-.9 2.55-2.15-1.6-4.1-2.3" fill="#8b5cff" fill-rule="evenodd" transform="translate(1 1)"/><path d="m41.25 16.65.45-1.05q0-.6-.45-1.05-.4-.45-1.05-.45-.6 0-1.05.45-.45.45-.45 1.05 0 .65.45 1.05.45.45 1.05.45l1.05-.45m-20.1-13.9 8.4 5.7q3.35-.95 8.95 2.2 5.6 3.15 5.55 9.5-2.35-.2-3.6.75l-.5.45 1.4-.2q2.5.8 4.1 2.2-3.3 3-.95 4.3 2.4 1.3 3.9-1.1.95 1.8 0 4.35l-.85.6.85.15q2 .15 3.1-2.75 1.7 1.2 3.75 1.1l-.65 3.05q.6-1.45 1.45-2.5 2.55-3.25 7.65-2.4l1.9.4-.2-2q.85-5.45 4.9-9.75-.95 5.9 3.45 5.8 1.6.2 2.9-1.3 3.3-3.9-.7-8.1 7.35-1.15 11.65 5l1.75 3.05q.4-2.5-1.05-4 3.45-4.25 7.95-3.8-2 4.7 1.65 5.2 5.1.2 2.9-5.2 5.4 2.05 8.7 5.05-3.95 8.25-11.6 8.15-6-.1-9.15-5-.85-1.3-1.45-2.9 1.9 6.1 1.55 10.5-1.35 1.65-2.05 4.45-2.1-3.25-7.45-4-6.1-.1-9.05 6.75-2.4-2.35-3.8-6.3.65 4.4-1.2 6.55-4.95-1.85-8.65 1.7l-1.45 1.65-.55-.55-.2-.15-1.5-1.55-.25-.55-.05-.2-.6-1.2q-.95-1.4-2.7-.55l-.3.4v-.05Q46.6 34 42.35 34.5q-.25-7.45-5.35-8.9.15-2.3 1-5.15-1.3 3.05-2.95 4.85-3.2-11.25-14.15-8.6l1.05-2.85Q11 15.9 6.05 9.3q2.7-3.35 7-5.75 3.65-2.05 8.1-.8m40.2 28.55q0-.65-.45-1.1-.4-.45-.95-.45-.55 0-.95.45-.4.45-.4 1.1 0 .65.4 1.1.4.45.95.45.55 0 .95-.45.45-.45.45-1.1m14.8-6.65q-.55 0-.9.35-.35.4-.35.9t.35.85q.35.4.9.4.5 0 .85-.4.35-.35.35-.85T77 25q-.35-.35-.85-.35" fill="#bb89fe" fill-rule="evenodd" transform="translate(1 1)"/><path d="M35.05 25.3q1.65-1.8 2.95-4.85-.85 2.85-1 5.15l-1.95-.3m53.8 3.95q.35-4.4-1.55-10.5.6 1.6 1.45 2.9 3.15 4.9 9.15 5 7.65.1 11.6-8.15 2.3 2.1 3.6 4.65-6.65-.1-14.45 6.45-.65-2.65-4.7-2.6-3.2.05-5.1 2.25" fill="#9960fe" fill-rule="evenodd" transform="translate(1 1)"/><path d="m41.25 16.65-1.05.45q-.6 0-1.05-.45-.45-.4-.45-1.05 0-.6.45-1.05.45-.45 1.05-.45.65 0 1.05.45.45.45.45 1.05l-.45 1.05m2.8 3.5q.05-6.35-5.55-9.5-5.6-3.15-8.95-2.2l-8.4-5.7q3.85 1.1 8.3 4.65 9.3-.5 14.1 5.65 2.35 4.55 1.1 7.15l-.6-.05m65.45-1.65q-3.3-3-8.7-5.05 2.2 5.4-2.9 5.2-3.65-.5-1.65-5.2-4.5-.45-7.95 3.8 1.45 1.5 1.05 4L87.6 18.2q-4.3-6.15-11.65-5 4 4.2.7 8.1-1.3 1.5-2.9 1.3-4.4.1-3.45-5.8-4.05 4.3-4.9 9.75-.2-7.5 6.3-12.95 9.45-5.9 16.6 3.65v-2.8q15.2-8.8 26.1 8.75l-1.3-.05q-1.3-2.55-3.6-4.65M48.4 30.9q.95-2.55 0-4.35-1.5 2.4-3.9 1.1-2.35-1.3.95-4.3l.5-.9 3 2.5q2.5 3.35-.55 5.95m12.95.4q0 .65-.45 1.1-.4.45-.95.45-.55 0-.95-.45-.4-.45-.4-1.1 0-.65.4-1.1.4-.45.95-.45.55 0 .95.45.45.45.45 1.1m14.8-6.65q.5 0 .85.35.35.4.35.9t-.35.85q-.35.4-.85.4-.55 0-.9-.4-.35-.35-.35-.85t.35-.9q.35-.35.9-.35" fill="#fff" fill-rule="evenodd" transform="translate(1 1)"/><path d="m44.05 20.15.6.05q1.25-2.6-1.1-7.15-4.8-6.15-14.1-5.65-4.45-3.55-8.3-4.65-4.45-1.25-8.1.8-4.3 2.4-7 5.75-1.05 1.25-1.8 2.65 8.45-1.1 14.8 16.05 1.5 3.95 5.3 7.25 13.8 11.65 23.5 1.7l.25.2q-6.65 9.55-17.6 3.8-11.75-6.15-16.7-18.3-4.95-12.15-13.8-8 17.05-23.8 30.1-9 7.85-1.05 13.05 4.4 5.15 5.4 3.8 10.75 3.45.6 4.25 5.9l4.1 1.75q2.8-5 8.65-1.3-2-10.65 6.5-15.15 8.5-4.55 16.5.5Q107.1.9 118.7 27.95q-8.8-6-18.45 5.4-9.7 11.4-21.55 13.95-17.35 2.75-24.15-6.75l.65-.5q6 5.45 12.95 6.55 10.15.5 20.3-4.75 3.35-1.9 7.85-7.2 8.75-10.2 17.15-10.7h1.35l-.4-.75q-10.9-17.55-26.1-8.75v2.8Q81.15 7.7 71.7 13.6q-6.5 5.45-6.3 12.95l.2 2-1.9-.4q-5.1-.85-7.65 2.4-.85 1.05-1.45 2.5l.65-3.05q-2.05.1-3.75-1.1-1.1 2.9-3.1 2.75l-.85-.15.85-.6q3.05-2.6.55-5.95l-3-2.5q-2.3-1.4-4.6-1.3l-1.4.2.5-.45q1.25-.95 3.6-.75" fill="#2a25a1" fill-rule="evenodd" transform="translate(1 1)"/><path d="m113.45 23.95-.35-.8 1.3.05.4.75h-1.35" fill="#a2ffff" fill-rule="evenodd" transform="translate(1 1)"/><path d="M55.55 41.55q6.8 9.5 24.15 6.75 11.85-2.55 21.55-13.95 9.65-11.4 18.45-5.4Q108.1 1.9 87.95 13.5q-8-5.05-16.5-.5-8.5 4.5-6.5 15.15-5.85-3.7-8.65 1.3l-4.1-1.75q-.8-5.3-4.25-5.9 1.35-5.35-3.8-10.75-5.2-5.45-13.05-4.4-13.05-14.8-30.1 9 8.85-4.15 13.8 8 4.95 12.15 16.7 18.3 10.95 5.75 17.6-3.8l.65-.95.3-.5-.1.05-.15.2-.05.05-.1.15M55.2 41l-1.25-2.2M55.2 41l.35.55" fill="none" stroke="#2a25a1" stroke-linecap="round" stroke-linejoin="round" stroke-width="2"/></g><g id="h"><path d="M17.15 15.65q.8 3.4-1.85 5.25-4.5 1.3-7.95 8.75l-.25-.05q2.3-9.2 10.05-13.95m.3 5.75q1.8.85-1.45 4.95-2.05 2.6-3.25 5.9-1.8 1.25-3.95 5.35-1.15-3.85 1.4-10.65 2.85-4.4 7.25-5.55m-5.7 26.2.8 5.1q.35-1.2-.35-5.65-.35-4.55.6-7.4l3 8.25q1.55 4.45.55 9.8l-2.2 10.35q-.9 3.85.2 10.55.5 2.25 1.15 3.45-1.35-8.8 1-15.15 1.8 2.1 4 3.35 1.05-1.3.7-2.35 10.35 6.75 2.25 17.85-1.35-4.65-3.75-8.4 2.75 11.55-1.05 14.55-2.55-3.7-10.55-9.1Q1.25 97.3 2 106.4q-5.2-17.75 3-29.3 9.9-13.9 6.1-19.9-1.35-1.85-2.35-3.8-1.8-13.8 1.15-15.15.45 6.85 1.85 9.35M98.9 97q-3.85 3.65-6.85.85-3-2.8-1.4-9.55 1.65-6.75 6.45-12.75l.2-.3q4.6-5.65 6.3-4.1 1.75 1.65-3.75 11 3.75-2.35 5.2-6.55.65-1.9.3-3.9-.55-3.5.85-4.6.95-.8 2-.45 1.05.3 2.15 2.85l.05-.55q-.35-2.3.35-3.7l1.4 1.9q.7 1.55.4 3.85-.35 2.3-2.5 5.3-2.15 2.95-6.3 5.5-4.15 2.5-5.25 3.65l-1.2 1.3q-1.35 1.9-1.35 3.9 0 .6.5 1.2l-.15.8q-.45 3.7 2.85 2.75L98.9 97" fill="#ea7fd6" fill-rule="evenodd" transform="translate(1 1)"/><path d="m96.75 91.05-.3.8q-.5-.6-.5-1.2l.8.4" fill="#fdfcfe" fill-rule="evenodd" transform="translate(1 1)"/><path d="M12.75 32.25q-.65 1.9-1.05 4-.85 4.35.05 11.35-1.4-2.5-1.85-9.35Q6.95 39.6 8.75 53.4 6.1 48.15 5.8 41.9q1.1-9.75 4.4-14.95-2.55 6.8-1.4 10.65 2.15-4.1 3.95-5.35m98 33-2.05-1.75-1.65-1.35-.8-.7-1.85-1.9q-1.05-1.2-1.45-2.5l-.35-1.55q-.2-2.2.55-4.45.75-2.3 2.7-5.9 1.95-3.6 2.25-12 .25-8.4-4.45-17.35Q98.9 6.85 95 2.2q25.8 16.1 11.8 46.6-2.25 4-.35 8.25.95 2.15 2.95 4.4l.65.7 1.8 1.7.1.1q-.8.45-1.2 1.3" fill="#fed9ff" fill-rule="evenodd" transform="translate(1 1)"/><path d="m15.3 20.9 2.15-.3 2.45.4-2.45.4q-4.4 1.15-7.25 5.55-3.3 5.2-4.4 14.95-.3-5.15 1-11l.3-1.3.25.05q3.45-7.45 7.95-8.75" fill="#4e0a80" fill-rule="evenodd" transform="translate(1 1)"/><path d="M78.8 111.05q4.8-1.05 9.7-2.6l.4-.15q8.1-2.6 10-11.3l.25-1.6 1.2-.45.15.4q.45 11.55-12 14.6l-9.7 1.1m33.15-47.1q8.8 7.95-9.2 20.8-3.9 2.75-5.45 5.25l-.55 1.05-.8-.4q0-2 1.35-3.9l1.2-1.3q1.1-1.15 5.25-3.65 4.15-2.55 6.3-5.5 2.15-3 2.5-5.3.3-2.3-.4-3.85l-1.4-1.9q.4-.85 1.2-1.3" fill="#ffdcff" fill-rule="evenodd" transform="translate(1 1)"/><path d="M17.15 15.65q1.1-.7 2.4-1.3L30.4 7.8Q60.05-4.15 94.95 2.15l.05.05q3.9 4.65 8.65 13.6 4.7 8.95 4.45 17.35-.3 8.4-2.25 12-1.95 3.6-2.7 5.9-.75 2.25-.55 4.45l.35 1.55q.4 1.3 1.45 2.5l1.85 1.9.8.7 1.65 1.35 2.05 1.75q-.7 1.4-.35 3.7l-.05.55q-1.1-2.55-2.15-2.85-1.05-.35-2 .45-1.4 1.1-.85 4.6.35 2-.3 3.9-1.45 4.2-5.2 6.55 5.5-9.35 3.75-11-1.7-1.55-6.3 4.1l-.2.3q-4.8 6-6.45 12.75-1.6 6.75 1.4 9.55 3 2.8 6.85-.85-1.9 8.7-10 11.3l-.4.15q-4.9 1.55-9.7 2.6l-6-.2-3.1-.25q-23.55 5.1-37.8-1.3-9.95 8.45-27.2 4.75-1.65-3.95-2.7-7.65-.75-9.1 6.1-23.6 8 5.4 10.55 9.1 3.8-3 1.05-14.55 2.4 3.75 3.75 8.4 8.1-11.1-2.25-17.85.35 1.05-.7 2.35-2.2-1.25-4-3.35-2.35 6.35-1 15.15-.65-1.2-1.15-3.45-1.1-6.7-.2-10.55l2.2-10.35q1-5.35-.55-9.8l-3-8.25q-.95 2.85-.6 7.4.7 4.45.35 5.65l-.8-5.1q-.9-7-.05-11.35.4-2.1 1.05-4 1.2-3.3 3.25-5.9 3.25-4.1 1.45-4.95l2.45-.4-2.45-.4-2.15.3q2.65-1.85 1.85-5.25" fill="url(#Q)" fill-rule="evenodd" transform="translate(1 1)"/><path d="m96 3.2-.05-.05Q61.05-3.15 31.4 8.8l-10.85 6.55q-1.3.6-2.4 1.3Q10.4 21.4 8.1 30.6l-.3 1.3q-1.3 5.85-1 11 .3 6.25 2.95 11.5 1 1.95 2.35 3.8 3.8 6-6.1 19.9-8.2 11.55-3 29.3 1.05 3.7 2.7 7.65 17.25 3.7 27.2-4.75 14.25 6.4 37.8 1.3l3.1.25 6 .2 9.7-1.1q12.45-3.05 12-14.6v-.45l-.15.05-1.2.45q-3.3.95-2.85-2.75l.15-.8.3-.8.55-1.05q1.55-2.5 5.45-5.25 18-12.85 9.2-20.8l-.1-.1-1.8-1.7-.65-.7q-2-2.25-2.95-4.4-1.9-4.25.35-8.25 14-30.5-11.8-46.6z" fill="none" stroke="#4e0a80" stroke-linecap="round" stroke-linejoin="round" stroke-width="2"/></g><g id="i"><path d="M17.6.2q-.5 5.05-3.6 8.85l-2.7 2.85Q4.9 12.35 0 10L6.7 0l10.9.2" fill="#559dc8" fill-rule="evenodd" transform="translate(1 1)"/><path d="M18.6 1.2q-.5 5.05-3.6 8.85l-2.7 2.85Q5.9 13.35 1 11L7.7 1l10.9.2z" fill="none" stroke="#31587c" stroke-linecap="round" stroke-linejoin="round" stroke-width="2"/></g><g id="j"><path d="M31.3 18.1q5.05 2.3 8.85 6.45Q41.9 26.5 42.7 29q.8 2.6 3 4.5 1.45 1.25 2.65 2.95 3.45 5.1 3.35 10.4-.05 1.65-.8 3.15 6.8 2.75 8.7 9.95.7 2.75-.55 5.2Q53.75 75.7 42 79.5q-6.7 5-14.8-1.25-2.45-1.9-3.55-5.05l-.2.05L19 72.7q-3.95-1.15-6.4-4.55l-.4-.65q3.7 3.15 8.5 3.3 1.95-.4 4.35-1.9 2.05 6.8 7.65 6.3 5.3-.55 5.25-7.75v-.15q4.65-2.3 4.25-5.25l-.3-2.2q1.5-.9 2.25-2.45 2.6-5.35-1.5-8.85 1.3-7.7-5.25-9.65l-2.85-.15-.1.2q-1.9 3.65-5.75 3.2v.05q-.35 1.15-1.4 1.95-3.6 2.55-6.65-1.2 3.7 2.95 5.8-.7.55-.95.4-2Q33.4 41 32.2 35q-1.3-6.4-5.5-8.4-2.5-1.2-4.4-1.4l2.45-1.8.05-2.55q2 1.2 4.45 2l1.1-2.55.95-2.2" fill="#6ea6f5" fill-rule="evenodd" transform="translate(1 1)"/><path d="m30.35 20.3-1.1 2.55q-2.45-.8-4.45-2l-.05 2.55-2.45 1.8h-.45q.65-1.5-.2-2.9l-1.7-2.05-1-.8.45-.15q.55-.45.35-1.15l-.45-1.05q-.8-1-2-1.65-2.35-1.15-4.6.05-2.55 1.3-4.75-.55l-1.5-1.3q-.7-.55-1.1-1.35Q4 9.5 3.55 6.4l-.3-2.25.95-1.35q10.9-4.3 22.4-2l-.65 2.45q-.4 1.55-.65 3.3l-.25 2.5-.25 2.45-.35 3.55.05 1.2q.3 2.1 2.3 2.8l2 .75 1.55.5" fill="#f7a496" fill-rule="evenodd" transform="translate(1 1)"/><path d="M3.9 28.7Q1.5 22.35.2 15.6q-.35-1.9-.1-4.8 1.2-3.6 3.15-6.65l.3 2.25q.45 3.1 1.8 5.9.4.8 1.1 1.35l1.5 1.3q2.2 1.85 4.75.55 2.25-1.2 4.6-.05 1.2.65 2 1.65l.45 1.05q.2.7-.35 1.15l-.45.15 1 .8 1.7 2.05q.85 1.4.2 2.9h.45q-2.9 2.3-5.4 5.05L13.55 34l-2.5-1.5q-3.5-2.1-7.15-3.8" fill="#ffcea1" fill-rule="evenodd" transform="translate(1 1)"/><path d="M22.3 25.2q1.9.2 4.4 1.4 4.2 2 5.5 8.4 1.2 6-5.35 5.25.15 1.05-.4 2-2.1 3.65-5.8.7 3.05 3.75 6.65 1.2 1.05-.8 1.4-1.95v-.05q3.85.45 5.75-3.2l.1-.2 2.85.15q6.55 1.95 5.25 9.65 4.1 3.5 1.5 8.85-.75 1.55-2.25 2.45-1.9 1.25-4.05 1.75-1.75.35-3.15-.8-1.95-1.45-3.35-3.35-6.55 5.25-10.6-2l-.4-.75q-7.8.7-9-9.2-.55 2.1-.8 4.25l-.35 1.45.15-1.55.05-.3-2-2.15q-6.15-7.8-4.35-18.15l-.15-.35q3.65 1.7 7.15 3.8l2.5 1.5 3.35-3.75q2.5-2.75 5.4-5.05" fill="#a1f8ff" fill-rule="evenodd" transform="translate(1 1)"/><path d="m31.3 18.1-.95 2.2-1.55-.5-2-.75q-2-.7-2.3-2.8l-.05-1.2.35-3.55.25-2.45.25-2.5q.25-1.75.65-3.3L26.6.8l2.1.45-1.95 15.7q1.95 0 4.55 1.15" fill="#f6edea" fill-rule="evenodd" transform="translate(1 1)"/><path d="m41.9 59.85.3 2.2q.4 2.95-4.25 5.25v.15q.05 7.2-5.25 7.75-5.6.5-7.65-6.3-2.4 1.5-4.35 1.9-4.8-.15-8.5-3.3-1-1.55-1.45-3.35-.95-3.55-.9-7.2l.35-5.75.35-1.45q.25-2.15.8-4.25 1.2 9.9 9 9.2l.4.75q4.05 7.25 10.6 2 1.4 1.9 3.35 3.35 1.4 1.15 3.15.8 2.15-.5 4.05-1.75" fill="#9dd4fa" fill-rule="evenodd" transform="translate(1 1)"/><path d="m13.2 68.5.4.65q2.45 3.4 6.4 4.55l4.45.55.2-.05q1.1 3.15 3.55 5.05Q36.3 85.5 43 80.5q11.75-3.8 17.05-14.35 1.25-2.45.55-5.2-1.9-7.2-8.7-9.95.75-1.5.8-3.15.1-5.3-3.35-10.4-1.2-1.7-2.65-2.95-2.2-1.9-3-4.5-.8-2.5-2.55-4.45-3.8-4.15-8.85-6.45l-.95 2.2-1.1 2.55q-2.45-.8-4.45-2l-.05 2.55-2.45 1.8q-2.9 2.3-5.4 5.05L14.55 35l-2.5-1.5q-3.5-2.1-7.15-3.8l.15.35Q3.25 40.4 9.4 48.2l2 2.15-.05.3-.15 1.55-.35 5.75q-.05 3.65.9 7.2.45 1.8 1.45 3.35" fill="none" stroke="#2e59b0" stroke-linecap="round" stroke-linejoin="round" stroke-width="2"/><path d="M4.9 29.7q-2.4-6.35-3.7-13.1-.35-1.9-.1-4.8m4.1-8-1.05.45-1.4.6M27.6 1.8Q16.1-.5 5.2 3.8m22.4-2 2.1.45-1.95 15.7q1.95 0 4.55 1.15" fill="none" stroke="#af6048" stroke-linecap="round" stroke-linejoin="round" stroke-width="2"/></g><g id="k"><path d="m21.95 15.8-2.05.25h-.25q1.2.8 1.85.8h.7q-.3.95-.8 1.3 2.05 1.2.95 2.75-2.7 1.3-7.35 2.1Q-.4 15.65 0 6.55q3.95.15 7.9 1.6Q10.05 9 10.75 10q1.35 1.95 5.25 2.3 1.65.05 2.4.75.7.6-.55 1.75 2.85-.25 4.1 1" fill="#6051e3" fill-rule="evenodd" transform="translate(1 1)"/><path d="m26.65 14.55-.5-.4-.15-.1.3-.2-3.25 1.6-1.1.35q-1.25-1.25-4.1-1 1.25-1.15.55-1.75-.75-.7-2.4-.75-3.9-.35-5.25-2.3-.7-1-2.85-1.85Q3.95 6.7 0 6.55.15 3.4 2.15 0q6.7 10.65 27 8.85.3 3.7-2.5 5.7m-4.45 2.3 1.15-.05q1.2-.1 3-1-.05 3.15-4 5.1 1.1-1.55-.95-2.75.5-.35.8-1.3" fill="#697cfe" fill-rule="evenodd" transform="translate(1 1)"/><path d="M26.65 14.55h.05l.05.7-.4.55q-1.8.9-3 1l-1.15.05h-.7q-.65 0-1.85-.8h.25l2.05-.25 1.1-.35 3.25-1.6-.3.2.15.1.5.4" fill="#323f9e" fill-rule="evenodd" transform="translate(1 1)"/><path d="M27.35 16.8q-.05 3.15-4 5.1-2.7 1.3-7.35 2.1Q.6 16.65 1 7.55 1.15 4.4 3.15 1q6.7 10.65 27 8.85.3 3.7-2.5 5.7" fill="none" stroke="#323f9e" stroke-linecap="round" stroke-linejoin="round" stroke-width="2"/></g><g id="l"><path d="m.9 16 .55-.05q.35.05.6.35.6.75 3.2 1.75-2.9.95-4.05 0-.35-.3-.75.25L0 16.1l.4.55.4-.55.1-.1" fill="#323f9e" fill-rule="evenodd" transform="translate(.35 1)"/><path d="m21.2 2.35-.3.15q-1.95.2-7.05 6.35-5.15 6.15-7.3 7.2-.4.4-.05.9.35.5 1 .3l.25-.1q.55.75-.5.7-1-.65-2.15.9l-.2.3q-.8 1.15.9 2.55l-1.85.25q-2.6-1.5-2.75-3.8 1.15.95 4.05 0-2.6-1-3.2-1.75-.25-.3-.6-.35L.9 16q-.4-1.05-.2-2.7 6.35 4.9 10.75-7.65L13 .25q7.05-1.05 8.2 2.1" fill="#697cfe" fill-rule="evenodd" transform="translate(.35 1)"/><path d="M5.8 21.6q-1.7-1.4-.9-2.55l.2-.3q1.15-1.55 2.15-.9 1.05.05.5-.7l-.25.1q-.65.2-1-.3t.05-.9q2.15-1.05 7.3-7.2 5.1-6.15 7.05-6.35l.3-.15.05.1q1.2 3.6-5.05 12.5-5.4 5.45-10.4 6.65" fill="#6051e3" fill-rule="evenodd" transform="translate(.35 1)"/><path d="M6.15 22.6q5-1.2 10.4-6.65 6.25-8.9 5.05-12.5l-.05-.1Q20.4.2 13.35 1.25l-1.55 5.4Q7.4 19.2 1.05 14.3q-.2 1.65.2 2.7m.3 2.05q.15 2.3 2.75 3.8l1.85-.25" fill="none" stroke="#323f9e" stroke-linecap="round" stroke-linejoin="round" stroke-width="2"/></g><g id="m"><path d="M.6 17.5q-.7-2.05-.6-4.25L2 8.7Q4.65 1 8 .05q2.6-.3 3.85 1.05Q5.75 15.3.6 17.5" fill="#ffece0" fill-rule="evenodd" transform="translate(1 1)"/><path d="M.6 17.5q5.15-2.2 11.25-16.4 1.6 1.65 1.1 6-3.5 11.95-9.8 14.75-1.8-2.1-2.55-4.35" fill="#f1afa8" fill-rule="evenodd" transform="translate(1 1)"/><path d="M12.85 2.1Q11.6.75 9 1.05 5.65 2 3 9.7l-2 4.55q-.1 2.2.6 4.25.75 2.25 2.55 4.35 6.3-2.8 9.8-14.75.5-4.35-1.1-6z" fill="none" stroke="#af6048" stroke-linecap="round" stroke-linejoin="round" stroke-width="2"/></g><g id="n"><path d="M32.65.5q1.55 1.35 1.65 4.05 4 .95 5.3 8.75-4.8-4.25-8.6-3.2l-2.65-1.3q-2.5-1.25-5.15-.45L23 7.4q-.55-3-2.3-4.7L32.55.1l.1.4m-9 6.6-.65.3.65-.3" fill="#f1afa8" fill-rule="evenodd" transform="translate(1 1)"/><path d="M23.2 8.35q2.65-.8 5.15.45L31 10.1q-3.3.85-5.8 5.8-2.05-2.4-5.4-2.25l-.55.7q-.25-1.5.3-3.85l.3-.4q1.7-1.25 3.35-1.75" fill="#ffece0" fill-rule="evenodd" transform="translate(1 1)"/><path d="m19.25 14.35.55-.7q3.35-.15 5.4 2.25 2.5-4.95 5.8-5.8 3.8-1.05 8.6 3.2l.3 2.1-4.55-2.7q2.3 6.05-2.55 7.85-4.9 1.75-8.4-.2-.3 1.6-2.15 1.95.15 1.95-1.1 3.4Q36.7 26.75 31 39.5q-8.25 2.1-19.15-2.05l.3-.9q2.35-6.1 8.6-13.55-4.8-4.3-1.5-8.65" fill="#ce91ff" fill-rule="evenodd" transform="translate(1 1)"/><path d="m39.9 15.4.3 5.1 6.35 5.5-.65 1.15q-5.8 10-14.9 12.35 5.7-12.75-9.85-13.8 1.25-1.45 1.1-3.4 1.85-.35 2.15-1.95 3.5 1.95 8.4.2 4.85-1.8 2.55-7.85l4.55 2.7" fill="#9f68f0" fill-rule="evenodd" transform="translate(1 1)"/><path d="M50.15 80.1q-5.85 3.2-14 5.45 4.15-5.2 2.8-12.3-1.45 2.35-4.1 1.6-1.9 1.8-4.7-.25 1.7.75 4.4-1.15 2.8-.4 3.4-2.95-3.05-8.35-34.5-15.95 3-8.7 8.7-18l-.3.9Q22.75 41.6 31 39.5q9.1-2.35 14.9-12.35 10.7 10.75 16.05 23.3-5.15-.4-3.95 6.8 1.05 3.25 3.95 2.3-3.3 12.75-11.8 20.55M21.6 98q-1.3 1.4-3.2 1.05-1.55-.3-2.4-1.7 2.75.5 5.15-1.1.85-.55 1.3-1.5.45 1.8-.85 3.25" fill="#b148b0" fill-rule="evenodd" transform="translate(1 1)"/><path d="M46.55 26q14.25 12.8 16.6 20.35Q70.2 69 50.15 80.1q8.5-7.8 11.8-20.55-2.9.95-3.95-2.3-1.2-7.2 3.95-6.8Q56.6 37.9 45.9 27.15l.65-1.15" fill="#ff9fff" fill-rule="evenodd" transform="translate(1 1)"/><path d="M36.15 85.55 32 86.6l-.15.05-.4.1-1.1.25-.35 3.7q3.85 9.8-1.85 18.95-8.15-1.25-14.05-5.7Q7.65 95.9 6.2 88.8q2.85 1.05 4.45-.85 4.8-5.7-.55-9.25-3.05-2.05-5.25.35l2.95-12.8Q1.85 73.2 1.25 83.6L.9 82.35q-2.65-13 2.55-27.8 31.45 7.6 34.5 15.95-.6 2.55-3.4 2.95-2.7 1.9-4.4 1.15 2.8 2.05 4.7.25 2.65.75 4.1-1.6 1.35 7.1-2.8 12.3m-21.25-2.8q0 .55.4.95.4.4 1 .4.55 0 .95-.4.4-.4.4-.95 0-.6-.4-1t-.95-.4q-.6 0-1 .4t-.4 1M21.6 98q1.3-1.45.85-3.25-.45.95-1.3 1.5-2.4 1.6-5.15 1.1.85 1.4 2.4 1.7 1.9.35 3.2-1.05" fill="#f272ba" fill-rule="evenodd" transform="translate(1 1)"/><path d="M14.1 103.95Q5.35 97.4 1.35 83.85v-.05l-.1-.2q.6-10.4 6.55-17.35l-2.95 12.8q2.2-2.4 5.25-.35 5.35 3.55.55 9.25-1.6 1.9-4.45.85 1.45 7.1 7.9 15.15m.8-21.2q0-.6.4-1t1-.4q.55 0 .95.4.4.4.4 1 0 .55-.4.95-.4.4-.95.4-.6 0-1-.4t-.4-.95" fill="#ffbcff" fill-rule="evenodd" transform="translate(1 1)"/><path d="M40.6 14.3q-1.3-7.8-5.3-8.75-.1-2.7-1.65-4.05M21.7 3.7q1.75 1.7 2.3 4.7" fill="none" stroke="#af6048" stroke-linecap="round" stroke-linejoin="round" stroke-width="2"/><path d="m24 8.4.65-.3m8.9-7 .4-.1m13.6 26q14.25 12.8 16.6 20.35Q71.2 70 51.15 81.1q-5.85 3.2-14 5.45L33 87.6l-.15.05-.4.1-1.1.25m-2.2 22.65q-8.15-1.25-14.05-5.7-8.75-6.55-12.75-20.1v-.05l-.1-.2-.35-1.25q-2.65-13 2.55-27.8 3-8.7 8.7-18" fill="none" stroke="#7b1c75" stroke-linecap="round" stroke-linejoin="round" stroke-width="2"/><path d="m20.25 15.35.55-.7q3.35-.15 5.4 2.25 2.5-4.95 5.8-5.8m8.9 5.3.3 5.1 6.35 5.5-.65 1.15q-5.8 10-14.9 12.35-8.25 2.1-19.15-2.05l.3-.9q2.35-6.1 8.6-13.55-4.8-4.3-1.5-8.65M40.9 16.4l-.3-2.1q-4.8-4.25-8.6-3.2" fill="none" stroke="#4e0a80" stroke-linecap="round" stroke-linejoin="round" stroke-width="2"/></g><g id="o"><path d="M9.95 12.35Q5.1 10.3 3.1 7.45l-.4-.3Q-.95 4.3.35 1.45l1.5-.8q.25 3.2 4.4 4.25 2.65.65 3.7-1.4 3.4 2.45 7.8 3.9l.25-.3q2.5 2.45 5.2 5.75-3.5 6.3-13.4-.05l.15-.45.5.2-.5-.2" fill="#f1afa8" fill-rule="evenodd" transform="translate(.65 1)"/><path d="m18 7.1-.25.3q-4.4-1.45-7.8-3.9-1.05 2.05-3.7 1.4Q2.1 3.85 1.85.65 8.65-2.1 18 7.1" fill="#ffece0" fill-rule="evenodd" transform="translate(.65 1)"/><path d="m3.35 8.15.4.3q2 2.85 6.85 4.9l.5.2m7.55-5.45Q9.3-1.1 2.5 1.65l-1.5.8M18.65 8.1q2.5 2.45 5.2 5.75" fill="none" stroke="#af6048" stroke-linecap="round" stroke-linejoin="round" stroke-width="2"/></g><g id="p"><path d="M4.45 67.3v.1l.3 1.05q3.15 9.95 9.4 16.65 12.6 11.45 22.35 2.6 12.1-.35 25.3-4.15 12.25 11.85-6.55 25.8-15.25 10.1-41.6 7.1-9.8-5.2-9.3-16.2l-.05-.1v-.05l.8-.4q-1.6-3.85-2.8-12.95 2.6-1.25 3-3.65.2-1.45-.4-3.3-.7-2.7-2.6-2.55v-.35q0-4.25 1.35-8.15l.4-.7.3-.6.1-.15M7.6 81.9q-.4 0-.75.4-.3.4-.3.95v.1q0 .6.3 1.05.35.4.75.4.45 0 .8-.4l.3-1.05-.3-1.05q-.35-.4-.8-.4" fill="#ffece0" fill-rule="evenodd" transform="translate(1 -51.6)"/><path d="M13.65 116.45q26.35 3 41.6-7.1 18.8-13.95 6.55-25.8-13.2 3.8-25.3 4.15-9.75 8.85-22.35-2.6-6.25-6.7-9.4-16.65l-.3-1.05v-.1Q9.7 55.65 30.2 52.95q20.55-2.75 38.95 16.1 13 21.3-1.4 35-12.15 13.5-25.5 14.95l-7.9 2.1q-13.35-.65-20.7-4.65" fill="#f1afa8" fill-rule="evenodd" transform="translate(1 -51.6)"/><path d="M3.65 68.75Q2.3 72.65 2.3 76.9v.35q1.9-.15 2.6 2.55.6 1.85.4 3.3-.4 2.4-3 3.65 1.2 9.1 2.8 12.95l-.8.4Q-1.75 88.15.75 76.9v-.05q.9-4.1 2.9-8.1M7.6 81.9q.45 0 .8.4l.3 1.05-.3 1.05q-.35.4-.8.4-.4 0-.75-.4-.3-.45-.3-1.05v-.1q0-.55.3-.95.35-.4.75-.4" fill="#fff" fill-rule="evenodd" transform="translate(1 -51.6)"/><path d="m5.45 15.7-.1.15-.3.6-.4.7q-2 4-2.9 8.1v.05Q-.75 36.55 5.3 48.5v.05l.05.1q-.5 11 9.3 16.2 7.35 4 20.7 4.65m7.9-2.1q13.35-1.45 25.5-14.95 14.4-13.7 1.4-35Q51.75-1.4 31.2 1.35 10.7 4.05 5.45 15.7" fill="none" stroke="#af6048" stroke-linecap="round" stroke-linejoin="round" stroke-width="2"/><path d="M50.55 107.15q1.55-.8 3.75-.8 2.15 0 3.7.8 1.6.8 1.6 1.9 0 1.1-1.6 1.85-1.55.8-3.7.8-2.2 0-3.75-.8-1.55-.75-1.55-1.85t1.55-1.9" fill="url(#R)" fill-rule="evenodd" transform="translate(1 -51.6)"/><path d="M52.15 109.2q0-.45.65-.8.7-.35 1.65-.4l1.65.25q.65.3.65.75l-.65.8-1.65.35-1.65-.2q-.65-.3-.65-.75" fill="#ffe6e4" fill-opacity=".8" fill-rule="evenodd" transform="translate(1 -51.6)"/></g><g id="q"><path d="M7.9 32.35q8.85-10 22.5-13.05-6.4 2.55-11.95 7.5-.05 9.85-6.45 7.35Q4.85 41.8.35 54.9.6 43.75 7.9 32.35m83.55-5.65.75 1q.9 1.95.05 4.55l-.05.15v.05l-2.55.4q-4.2.65-8.15.05l.3-1.15.25.1 3.4.45h.05l3.35-.4q1.15-.2 2.2-.8l.2-.25v-.3l-2.6.5-3.2.35h-.05q-1.55.15-3-.4l-.25-.1h-.05q.8-1.9 2.35-3.3h.65l1.2-.15 3.6-.4h.05l1.2-.3.3-.05m-.95-.7-.7.15-3.55.4-.4.05.1-.05q1.55-.9 3.15-.85l1.4.3m-40.4-.3q.6.6.6 1.45t-.6 1.4q-.6.6-1.4.6-.85 0-1.45-.6-.6-.55-.6-1.4 0-.85.6-1.45.6-.55 1.45-.55.8 0 1.4.55" fill="#fed9ff" fill-rule="evenodd" transform="translate(.65 1)"/><path d="m30.4 19.3 4.15-.75q14.8.45 33.5 5Q93.1 28 97.1 18.6q2.3-7.35-1.2-14.35 4.5 3.4 7.7 6.8 9.8 14.1 3.25 23.75-7.7 6.35-14.15 3.95.85-1.05 3.75-1.55 5.6-1.05 7.5-10.75-5.05 4.55-11.65 6h-.1v-.05l.05-.15q.85-2.6-.05-4.55l-.75-1 1.95-.75 2.85-1.7q1.25-1.05 1.8-2.55v-.35l-.15-.2-2.25 2.4q-1.2 1-2.6 1.6l-2.1.75-.45.1-1.4-.3q-1.6-.05-3.15.85l-.1.05-.8.1-2 .1-2.9.05h-1.4l-.3.05-.15.2q-.1.1-.05.25.2 1.45 1.2 2.6.95 1.15 2.3 1.75l.05.05-.3 1.15q-8.4-1.2-15.75-7.65 3.85 5.2-1.85 6.6l-2.5.5-.5-.25-.1-.05-.95-.2q-.55.05-.75.6l-.05.2q-7.15.65-12.75-2.45-6.75-4.25-3.05-7.5-8.75-2.8-16.65 0 8.6 1.5-5.65 10.95-14.3 9.5-17.3 32.6-1.35-.65-2.4-2.75-1-4.3-.9-8.6Q4.85 41.8 12 34.15q6.4 2.5 6.45-7.35Q24 21.85 30.4 19.3m51.7 11.6q-1.15-.55-1.95-1.5-.65-.75-.9-1.6l.95-.05 2.9-.05 1.35-.1Q82.9 29 82.1 30.9m-32-5.2q-.6-.55-1.4-.55-.85 0-1.45.55-.6.6-.6 1.45t.6 1.4q.6.6 1.45.6.8 0 1.4-.6.6-.55.6-1.4 0-.85-.6-1.45" fill="#de93fd" fill-rule="evenodd" transform="translate(.65 1)"/><path d="M84.85 60.55q-2.75 1.05-6.8 1.5-2.95-.5-6.2-1.75-14.8-19.15-38.25-16.2-11.4.7-26.35 21.5-2 1.5-3.6.65 3-23.1 17.3-32.6Q35.2 24.2 26.6 22.7q7.9-2.8 16.65 0-3.7 3.25 3.05 7.5 5.6 3.1 12.75 2.45L59 33v.05q-.1 2.1 1.95 3h.35q-1.45-1.65-1.4-3l.05-.25.05-.05.4.1.1.05 3.05 1.75.05-.25-.1-.35-2.1-1.7 2.5-.5q5.7-1.4 1.85-6.6Q73.1 31.7 81.5 32.9q-.35 1.85.35 3.3.9 1.95 3.1 2.05 2.15.1 4.3-1.65 2.05-1.7 2.95-4.15h.1q6.6-1.45 11.65-6-1.9 9.7-7.5 10.75-2.9.5-3.75 1.55-.8 1 .25 2.45 1.8 1.85.95 5.05-.85 3.15-4.15 4.5l-4.45-1.4q7.1 5.75 2.25 9.1l-2.7 2.1m-1.7-21.75-3.1-2-2.95-1.5-2.7-1.3h-.05l-3.25-1.45q-2-.9-3.2-.55-.9.25-.9 1.1-.05.6.6 1.6 1.15 1.85 2.7 2.8 1.5.9 3.45.95l.35-.1.1-.1-3.45-1.55q-1.4-.8-2.4-2.45l-.45-1.15.25-.2q.95-.25 2.6.45 1.85.8 3.2 1.5l2.8 1.25 2.85 1.5q1.55.95 3.15 1.3l.35-.05.05-.05m5.95 5.3q-.65 0-1.1.55-.45.5-.45 1.25 0 .7.45 1.25.45.5 1.1.5.65 0 1.1-.5l.45-1.25q0-.75-.45-1.25-.45-.55-1.1-.55" fill="#9e68f0" fill-rule="evenodd" transform="translate(.65 1)"/><path d="M92.7 38.75q6.9 4.75 3.95 10.45-2 2.7-6.9 1.55 3.3-1.35 4.15-4.5.85-3.2-.95-5.05-1.05-1.45-.25-2.45M81.5 32.9q3.95.6 8.15-.05l2.55-.4q-.9 2.45-2.95 4.15-2.15 1.75-4.3 1.65-2.2-.1-3.1-2.05-.7-1.45-.35-3.3m7.6 11.2q.65 0 1.1.55.45.5.45 1.25l-.45 1.25q-.45.5-1.1.5-.65 0-1.1-.5-.45-.55-.45-1.25 0-.75.45-1.25.45-.55 1.1-.55" fill="#fdacff" fill-rule="evenodd" transform="translate(.65 1)"/><path d="M103.6 11.05q4.4 4.75 6.25 9.6 5.55 16.5-12.6 20.25 7.2 13.3-8.25 10.85l1.85 1.45q.05 5.05-6 7.35l2.7-2.1q4.85-3.35-2.25-9.1l4.45 1.4q4.9 1.15 6.9-1.55 2.95-5.7-3.95-10.45 6.45 2.4 14.15-3.95 6.55-9.65-3.25-23.75" fill="#fff" fill-rule="evenodd" transform="translate(.65 1)"/><path d="M84.85 60.55q6.05-2.3 6-7.35L89 51.75q15.45 2.45 8.25-10.85 18.15-3.75 12.6-20.25-1.85-4.85-6.25-9.6-3.2-3.4-7.7-6.8 3.5 7 1.2 14.35-4 9.4-29.05 4.95-18.7-4.55-33.5-5l-4.15.75Q16.75 22.35 7.9 32.35q1.6-2.55 3.55-5.1 10.4-11.65 26.7-10.1 16.35 1.55 32.5 4.8 16.1 3.2 22.15-1.8Q98.85 15.1 90.55 0q8.6 2.35 15.7 11.05 15.95 19.6-3.9 31.4 1.95 11.6-7.8 13.85-5.05 5.85-12.35 6.05l-4.15-.3q4.05-.45 6.8-1.5M90.5 26l.45-.1 2.1-.75q1.4-.6 2.6-1.6l2.25-2.4.15.2v.35q-.55 1.5-1.8 2.55l-2.85 1.7-1.95.75-.3.05-1.2.3h-.05l-3.6.4-1.2.15h-.65l-1.35.1-2.9.05-.95.05q.25.85.9 1.6.8.95 1.95 1.5h.05l.25.1q1.45.55 3 .4h.05l3.2-.35 2.6-.5v.3l-.2.25q-1.05.6-2.2.8l-3.35.4h-.05l-3.4-.45-.25-.1-.05-.05q-1.35-.6-2.3-1.75-1-1.15-1.2-2.6-.05-.15.05-.25l.15-.2.3-.05h1.4l2.9-.05 2-.1.8-.1.4-.05 3.55-.4.7-.15m-29.1 6.35 2.1 1.7.1.35-.05.25-3.05-1.75-.1-.05-.4-.1-.05.05-.05.25q-.05 1.35 1.4 3h-.35q-2.05-.9-1.95-3V33l.05-.35.05-.2q.2-.55.75-.6l.95.2.1.05.5.25m21.75 6.45-.05.05-.35.05q-1.6-.35-3.15-1.3l-2.85-1.5-2.8-1.25q-1.35-.7-3.2-1.5-1.65-.7-2.6-.45l-.25.2.45 1.15q1 1.65 2.4 2.45l3.45 1.55-.1.1-.35.1q-1.95-.05-3.45-.95-1.55-.95-2.7-2.8-.65-1-.6-1.6 0-.85.9-1.1 1.2-.35 3.2.55L74.35 34h.05l2.7 1.3 2.95 1.5 3.1 2" fill="#4e0a80" fill-rule="evenodd" transform="translate(.65 1)"/><path d="m78.7 63.05 4.15.3q7.3-.2 12.35-6.05 9.75-2.25 7.8-13.85 19.85-11.8 3.9-31.4Q99.8 3.35 91.2 1q8.3 15.1 2.25 20.15-6.05 5-22.15 1.8-16.15-3.25-32.5-4.8-16.3-1.55-26.7 10.1-1.95 2.55-3.55 5.1Q1.25 44.75 1 55.9q-.1 4.3.9 8.6 1.05 2.1 2.4 2.75 1.6.85 3.6-.65 14.95-20.8 26.35-21.5Q57.7 42.15 72.5 61.3q3.25 1.25 6.2 1.75z" fill="none" stroke="#4e0a80" stroke-linecap="round" stroke-linejoin="round" stroke-width="2"/></g><g id="r"><path d="m76.35 46.95.05.05q3.9 4.65 8.65 13.6l1.25 2.35Q77.1 71.4 56.35 77q-10.85 9.55-26 7.15v-.3q-.85-.05-2.15-.75-1.75-1-4.3-3.05.8 2.2 3.5 4.25l1.6 1.15.15-.25q1.3.95 3.55 1.4-5 3.45-12.2 1.6Q4.9 81.95 4.3 65.9l1.15-.1q-.85.05-1.2-.5-.6-.9.1-3.35.45-1.65 1.25-2.55L5.15 62q-.1 1.9.35 3.8 1.45 6.55 9.65 13.05 2.75 2.2 5.95 2.75-4.3-6.95-5.8-16.15 4.25 9.75 13.3 12 5.5 1.3 7.1-.65-2.6-1.35-3.85-4.35 8.85 5.9 9.05 1.45-8.6-9.6-10.35-18.7 11.6 13.1 26.75 9.7 9.5-2.75 5.85-12.55l-.75-1.8 1.9 1.4-1.55-1.7-.9-.9q9.3 1 .8-9l-1.35-1.5q7.65 2.5 14.5 7.4l.55.7" fill="#a368ed" fill-rule="evenodd" transform="translate(-2.95 -35.4)"/><path d="m61.3 38.85 1.35 1.5q8.5 10-.8 9-5.7-5.6-12.05-7.6l-.1-.05q-5.55-1.75-11.65-.8H38l-3 .6q-.75.45 3.15.5 4.25-.2 8.9 1.4.4 7.25-2.75 9-4.8-1.55-7.95-.4h-.05l-.1.05q-.25.35.35.7 8.5 1.7 15.1 7.9l1.25 1.2q.7-.15-.5-2-1.95-3-4.6-5.25 3.75-3.9 1.4-10.9 6.95 2.4 13.2 6.85l.75 1.8q3.65 9.8-5.85 12.55-15.15 3.4-26.75-9.7 1.75 9.1 10.35 18.7-.2 4.45-9.05-1.45 1.25 3 3.85 4.35-1.6 1.95-7.1.65-9.05-2.25-13.3-12 1.5 9.2 5.8 16.15-3.2-.55-5.95-2.75-8.2-6.5-9.65-13.05-.45-1.9-.35-3.8l.45-2.6q.5-.65 1.25-.9 1.9 10.1 5.65 13.15-6.15-10.8-1.3-13.55 2.65-3.85 9.75.8l.05.05 4.75 3.65q-1.8-2.55-4.1-4.5-3.6-3.15-8.55-4.95 6.95-6.85 20.9-2.3-8.95-6.6-20.65-1.1l-.35-.2q3.9-6.8 14.5-10.75 18.6-4.85 33.8.05M20.55 59.9l3.55 8.05q-4.25-.75-8.3-4.95-1.85-1.9-2.4-1.55-.8 6.3.25 9.75.6 2 1.8 3l-.15-8.75q2.9 3.7 7.9 4.1 3.7.25 4.75.85l-3.05-6.15 1.4.85q1.55.85 3 .65l-.9-4.55q1.5.9 2.7.95l-1.85-1.9-.05-.05q-1.7-1.45-3.9-2.75l1.55 6.35-1.25-1.05q-3.2-2.65-4.75-3l-.4-.05.1.2" fill="#de93fd" fill-rule="evenodd" transform="translate(-2.95 -35.4)"/><path d="M13.35 49.75q11.7-5.5 20.65 1.1-13.95-4.55-20.9 2.3 4.95 1.8 8.55 4.95 2.3 1.95 4.1 4.5L21 58.95l-.05-.05q-7.1-4.65-9.75-.8-4.85 2.75 1.3 13.55Q8.75 68.6 6.85 58.5L8 58.2l3.35-4.6q.5-1.9 1.4-3.6l.6-.25" fill="#9e68f0" fill-rule="evenodd" transform="translate(-2.95 -35.4)"/><path d="m61.85 49.35.9.9 1.55 1.7-1.9-1.4q-6.25-4.45-13.2-6.85 2.35 7-1.4 10.9 2.65 2.25 4.6 5.25 1.2 1.85.5 2l-1.25-1.2q-6.6-6.2-15.1-7.9-.6-.35-.35-.7l.1-.05h.05q3.15-1.15 7.95.4 3.15-1.75 2.75-9-4.65-1.6-8.9-1.4-3.9-.05-3.15-.5l3-.6h.05q6.1-.95 11.65.8l.1.05q6.35 2 12.05 7.6m-41 10.4q1.55.35 4.75 3l1.25 1.05-1.55-6.35q2.2 1.3 3.9 2.75l.05.05 1.85 1.9q-1.2-.05-2.7-.95l.9 4.55q-1.45.2-3-.65l-1.4-.85 3.05 6.15q-1.05-.6-4.75-.85-5-.4-7.9-4.1l.15 8.75q-1.2-1-1.8-3-1.05-3.45-.25-9.75.55-.35 2.4 1.55 4.05 4.2 8.3 4.95l-3.55-8.05.3-.15" fill="#fed9ff" fill-rule="evenodd" transform="translate(-2.95 -35.4)"/><path d="m86.3 62.95-1.25-2.35Q80.3 51.65 76.4 47l-.05-.05.15-.2q7.1 5.35 13.3 13.4-.1 3.75-3.5 2.8" fill="#ffe5ff" fill-rule="evenodd" transform="translate(-2.95 -35.4)"/><path d="m29.15 85.2-.15.25-1.6-1.15q-2.7-2.05-3.5-4.25 2.55 2.05 4.3 3.05 1.3.7 2.15.75v.3l-2.3-.4-.25-.05q.45.85 1.35 1.5" fill="#4e0a80" fill-rule="evenodd" transform="translate(-2.95 -35.4)"/><path d="M86.85 24.75q-6.2-8.05-13.3-13.4l-.7-.5q-6.85-4.9-14.5-7.4-15.2-4.9-33.8-.05-10.6 3.95-14.5 10.75l-.25.45q-.9 1.7-1.4 3.6M2.65 24q-.8.9-1.25 2.55Q.7 29 1.3 29.9q.35.55 1.2.5m-1.15.1q.6 16.05 16.2 22.3 7.2 1.85 12.2-1.6-2.25-.45-3.55-1.4-.9-.65-1.35-1.5l.25.05 2.3.4q15.15 2.4 26-7.15M3.9 23.1q-.75.25-1.25.9m2.4-1.2-1.15.3" fill="none" stroke="#4e0a80" stroke-linecap="round" stroke-linejoin="round" stroke-width="2"/></g><g id="s"><path d="m107.3 115.15.2-.1 3 1.9q2.15 2.65 5.85 11 3.7 8.35 8.85-1.15-2.6 13.8-20 12.45l-7.55-1.1-1.45-.35q-8.95-2.45-11.55-8.5.4-.25.75-.55 3.3 4.1 8.05 6.2l3.2 1.15 1.4.35 4.6.65 2.55.05q-.9-4.3-4.05-9.15h-.05l-2.2-3.15-.1-.1-.45-.6.75.35q1.7.85 3.1 2.4l.2.25q2.95 3.45 4.4 10.15h2.85l.1-.5q.25-3.95-4.3-8.8l-.35-.35.15.1.25.1h.05q4.3 2.2 5.2 8.75v.25q4.35 0 7.65-2.85-2.3.7-5.65-8.1-1.2-3.15-2.6-5.85l-.1-.2-1.1-2.05-1.65-2.65" fill="#4e0a80" fill-rule="evenodd" transform="translate(-80.8 -110.9)"/><path d="M105.45 128q4.55 4.85 4.3 8.8l-.1.5h-1.4q.7-3.7-2.8-9.3" fill="#9229da" fill-rule="evenodd" transform="translate(-80.8 -110.9)"/><path d="M82.75 124.6q-4.4-13.55 11.4-12.1l2.2-.5 5.05.45q2.65.75 5.75 2.45l.15.25 1.65 2.65 1.1 2.05q-4.8-3.4-9.3-4.6.65 5.3-1.1 8.4l.15.1q1.9 1.7 2.5 3.15l.1.25-.2-.25q-1.4-1.55-3.1-2.4l-.75-.35.45.6.1.1 2.2 3.15h.05q3.15 4.85 4.05 9.15l-2.55-.05q-.35-6.5-4.4-11.75-2.1 1.55-3.8 4.8-1.35 2.5-1 4.8-4.75-2.1-8.05-6.2l-.45-.55-2.2-3.6" fill="url(#S)" fill-rule="evenodd" transform="translate(-80.8 -110.9)"/><path d="M93.45 134.95q-.35-2.3 1-4.8 1.7-3.25 3.8-4.8 4.05 5.25 4.4 11.75l-4.6-.65-1.4-.35-3.2-1.15m8.95-7.8-.1-.25q-.6-1.45-2.5-3.15l-.15-.1q1.75-3.1 1.1-8.4 4.5 1.2 9.3 4.6l.1.2q1.4 2.7 2.6 5.85 3.35 8.8 5.65 8.1-3.3 2.85-7.65 2.85v-.25q-.9-6.55-5.2-8.75h-.05l-.25-.1-.15-.1.35.35q3.5 5.6 2.8 9.3h-1.45q-1.45-6.7-4.4-10.15" fill="url(#T)" fill-rule="evenodd" transform="translate(-80.8 -110.9)"/><path d="M1.95 13.7Q-2.45.15 13.35 1.6l2.2-.5 5.05.45q2.65.75 5.75 2.45m.35.15 3 1.9q2.15 2.65 5.85 11 3.7 8.35 8.85-1.15-2.6 13.8-20 12.45l-7.55-1.1-1.45-.35q-8.95-2.45-11.55-8.5l-.3-.6-1.6-4.1" fill="none" stroke="#4e0a80" stroke-linecap="round" stroke-linejoin="round" stroke-width="2"/></g><g id="t"><path d="M10.4 109.9q1.25-.65 3-.65 1.8 0 3.05.65 1.25.6 1.25 1.5t-1.25 1.55q-1.25.65-3.05.65-1.75 0-3-.65t-1.25-1.55q0-.9 1.25-1.5" fill="url(#U)" fill-rule="evenodd" transform="translate(-9.15 -65.8)"/><path d="M11.7 111.55q0-.4.55-.65l1.3-.3 1.35.15q.55.25.55.65l-.55.6-1.35.35-1.3-.2q-.55-.25-.55-.6" fill="#ffe6e4" fill-opacity=".8" fill-rule="evenodd" transform="translate(-9.15 -65.8)"/><path d="M93.35 108.75q8.8 7.95-9.2 20.8-3.9 2.75-5.45 5.25v-3.25l1.2-1.3q1.1-1.15 5.25-3.65 4.15-2.55 6.3-5.5 2.15-3 2.5-5.3.3-2.3-.4-3.85l-1.4-1.9q.4-.85 1.2-1.3" fill="#ffdcff" fill-rule="evenodd" transform="translate(-9.15 -65.8)"/><path d="M78.7 131.55v-11.5q4.6-5.65 6.3-4.1 1.75 1.65-3.75 11 3.75-2.35 5.2-6.55.65-1.9.3-3.9-.55-3.5.85-4.6.95-.8 2-.45 1.05.3 2.15 2.85l.05-.55q-.35-2.3.35-3.7l1.4 1.9q.7 1.55.4 3.85-.35 2.3-2.5 5.3-2.15 2.95-6.3 5.5-4.15 2.5-5.25 3.65l-1.2 1.3" fill="#ea7fd6" fill-rule="evenodd" transform="translate(-9.15 -65.8)"/><path d="m90.8 106.25.65.7 1.8 1.7.1.1q-.8.45-1.2 1.3l-2.05-1.75-1.65-1.35-.8-.7h3.15" fill="#fed9ff" fill-rule="evenodd" transform="translate(-9.15 -65.8)"/><path d="M78.7 120.05v-13.8h8.95l.8.7 1.65 1.35 2.05 1.75q-.7 1.4-.35 3.7l-.05.55q-1.1-2.55-2.15-2.85-1.05-.35-2 .45-1.4 1.1-.85 4.6.35 2-.3 3.9-1.45 4.2-5.2 6.55 5.5-9.35 3.75-11-1.7-1.55-6.3 4.1" fill="url(#V)" fill-rule="evenodd" transform="translate(-9.15 -65.8)"/><path d="m81.65 40.45.65.7 1.8 1.7.1.1Q93 50.9 75 63.75 71.1 66.5 69.55 69" fill="none" stroke="#4e0a80" stroke-linecap="round" stroke-linejoin="round" stroke-width="2"/><path d="M65.3 100.75q1.1 3.55 5.5 3.4l-2.2.5-2.2-.1q-.45 1.25-.55 2.55-.1 1-.05 2.1-.7-2.05-.7-5-2.25-3.6-.5-6.2l.3.2q.05 1.45.4 2.55m.7 8.9q4.65 4.3 9.6 1.2-.45.85-1.55 1.45-1.4.85-3.85 1.3l-.35-.2q-2.7-.95-3.85-3.75" fill="#4e0a80" fill-rule="evenodd" transform="translate(-9.15 -65.8)"/><path d="M74.4 92.55q3.1 2.85 1.75 6.25-1.6 3.85-4.75 3.9-2.85.05-6.1-1.95-.35-1.1-.4-2.55 2.25 1.35 6.05.35.45-1.25-.9-2.5L73 97.2q1.1-2.5 1.4-4.65" fill="#e588e6" fill-rule="evenodd" transform="translate(-9.15 -65.8)"/><path d="M68.6 104.65q2.55 1.35 5.75.7-2.35 6.35-8.5 1.75.1-1.3.55-2.55l2.2.1" fill="#e687e4" fill-rule="evenodd" transform="translate(-9.15 -65.8)"/><path d="M74.05 112.3q2.05.3 4.2-2.6 0 3.3-4.2 5.7-1.8-.5-3.85-1.8 2.45-.45 3.85-1.3" fill="#e784de" fill-rule="evenodd" transform="translate(-9.15 -65.8)"/><path d="M76.2 115.8q7.3-3.85 6.65-14.7l1 1.5q2.3 7.15-1.85 10.7-2.5 2.65-5.8 2.5" fill="#ffe0ff" fill-rule="evenodd" transform="translate(-9.15 -65.8)"/><path d="M74.4 92.55q1.3-9.9-15.35-13.8Q42.75 74.4 39.9 66.8q34.25-3.25 44.7 13.85-5.95 12.8-1.75 20.45.65 10.85-6.65 14.7l-2.15-.4q4.2-2.4 4.2-5.7-2.15 2.9-4.2 2.6 1.1-.6 1.55-1.45-4.95 3.1-9.6-1.2l-.2-.45q-.05-1.1.05-2.1 6.15 4.6 8.5-1.75-3.2.65-5.75-.7l2.2-.5q-4.4.15-5.5-3.4 3.25 2 6.1 1.95 3.15-.05 4.75-3.9 1.35-3.4-1.75-6.25" fill="#a467ec" fill-rule="evenodd" transform="translate(-9.15 -65.8)"/><path d="M30.75 1Q33.6 8.6 49.9 12.95q16.65 3.9 15.35 13.8-.3 2.15-1.4 4.65l-2.95-1.15q1.35 1.25.9 2.5-3.8 1-6.05-.35l-.3-.2q-1.75 2.6.5 6.2 0 2.95.7 5l.2.45q1.15 2.8 3.85 3.75l.35.2q2.05 1.3 3.85 1.8l2.15.4q3.3.15 5.8-2.5Q77 43.95 74.7 36.8l-1-1.5q-4.2-7.65 1.75-20.45" fill="none" stroke="#4e0a80" stroke-linecap="round" stroke-linejoin="round" stroke-width="2"/></g><g id="u"><path d="m109.5 99.75-.05-.05-1.75-.4q-12.55-1.15-18.5-3.85-2.15-.95-3.45-2.1l-.45-.4q-.8-.8-1.15-1.75l1.5 1.3q1.6 1.1 3.9 1.85 3.6 1.15 8.9 1.55l9.05 1.8 2.4.7 1.1.3q20.1 6.2 11.65 17.55-2.25-3-4.55-3.65-1.8-.55-3.55.4-2 1.05-4.05 3.95l-3-1.9.2-.4q2.6-2.75 5.8-3.75-3.7-4.15-12.35-6.85 9.75 1.4 13.45 5.95l.25.3 2.5-.55-.3-1.05q-.45-1.35-1.5-2.7 1.95 1.5 3.1 3.05l.4.65q2.2-.3 4.45.9-.9-7.55-14-10.85" fill="#4e0a80" fill-rule="evenodd" transform="translate(-79.45 -86)"/><path d="M118.65 109.05q-1.15-1.55-3.1-3.05 1.05 1.35 1.5 2.7-3.6-4-7.45-6.8 6.1 2.1 9.05 7.15" fill="#8c3ce9" fill-rule="evenodd" transform="translate(-79.45 -86)"/><path d="M101.15 104.05q-13.85-1-17.4-8.7 2.3 1.3 4.65 2.1l.1.05 3 .8q7.6 1.55 16.2 1.45h1.8q13.1 3.3 14 10.85-2.25-1.2-4.45-.9l-.4-.65q-2.95-5.05-9.05-7.15 3.85 2.8 7.45 6.8l.3 1.05-2.5.55-.25-.3q-3.7-4.55-13.45-5.95" fill="url(#W)" fill-rule="evenodd" transform="translate(-79.45 -86)"/><path d="M84.15 91.2q.35.95 1.15 1.75l.45.4q1.3 1.15 3.45 2.1 5.95 2.7 18.5 3.85l1.75.4.05.05h-1.8q-8.6.1-16.2-1.45l-3-.8-.1-.05q-2.35-.8-4.65-2.1 3.55 7.7 17.4 8.7 8.65 2.7 12.35 6.85-3.2 1-5.8 3.75l-.2.4-.35-.15q-3.1-1.7-5.75-2.45l-5.05-.45v-.25q-14.95-6.7-15.85-16.2-.25-2.5.45-5.2l.05-.05q.4-1.6 1.2-3.3.25 2.45 1.95 4.2" fill="url(#X)" fill-rule="evenodd" transform="translate(-79.45 -86)"/><path d="M4.7 5.2Q3 3.45 2.75 1q-.8 1.7-1.2 3.3l-.05.05q-.7 2.7-.45 5.2.9 9.5 15.85 16.2M4.7 5.2l1.5 1.3q1.6 1.1 3.9 1.85Q13.7 9.5 19 9.9l9.05 1.8 2.4.7 1.1.3q20.1 6.2 11.65 17.55-2.25-3-4.55-3.65-1.8-.55-3.55.4-2 1.05-4.05 3.95" fill="none" stroke="#4e0a80" stroke-linecap="round" stroke-linejoin="round" stroke-width="2"/></g><g id="v" fill-rule="evenodd"><path d="M63.35 91.85q-2.95.05-6.35 1.2l-.5-1.85.05 1.8q-.25 4.45-4.4 5.15-3.35-.1-3.4-2.8h-1.2q.8-1.05.95-2.45.15-1.5-.5-2.55-.7-1.05-1.8-1.05t-2 1.05q-.9 1.05-1.05 2.55-.2 1.5.5 2.55l.7.8q-1.3.25-2.6 1-.55-3.4-.55-7.95 9.9-6.75 21.5-4.2.6 3.7.65 6.75m-12.2 2.85-.5-.2-.55.2-.2.5.2.55.55.2.5-.2.25-.55-.25-.5" fill="#700960" transform="translate(-2.85 -78.55)"/><path d="m58.15 95.3 1.05-.1q1.15.15 1.35 1.25.5 2.55-1.15 4.75-1.65 2.25-4.3 3.45-2.65 1.15-5.65.8-2.1-.35-3.75-1.65-2.7-2.2-.5-4.7 1.1-1.25 2.5-.35 2.6 1.65 5.5 1.1 2.15-.45 3.15-2.05l.1-.3q.3-1.6 1.7-2.2" fill="#ff90f6" transform="translate(-2.85 -78.55)"/><path d="M58.15 95.3q-1.4.6-1.7 2.2l-.1.3q-1 1.6-3.15 2.05-2.9.55-5.5-1.1-1.4-.9-2.5.35-2.2 2.5.5 4.7 1.65 1.3 3.75 1.65 3 .35 5.65-.8 2.65-1.2 4.3-3.45 1.65-2.2 1.15-4.75-.2-1.1-1.35-1.25l-1.05.1m-10.6.05h1.2q.05 2.7 3.4 2.8 4.15-.7 4.4-5.15l-.05-1.8.5 1.85q3.4-1.15 6.35-1.2.15 7.65-2.8 11.35l1-.05-.75.45q-8.05 5.15-15.85 2.7l-2.3-.85 2.45.35q-2.45-2.45-3.35-8.55 1.3-.75 2.6-1l1.05.3q1.1 0 2-1.1l.15-.1" fill="#8c168a" transform="translate(-2.85 -78.55)"/><path d="m44.35 96.25-.7-.8q-.7-1.05-.5-2.55.15-1.5 1.05-2.55.9-1.05 2-1.05t1.8 1.05q.65 1.05.5 2.55-.15 1.4-.95 2.45l-.15.1q-.9 1.1-2 1.1l-1.05-.3m6.8-1.55.25.5-.25.55-.5.2-.55-.2-.2-.55.2-.5.55-.2.5.2" fill="#fff" transform="translate(-2.85 -78.55)"/><path d="M64 78.6q.3-.2.55.3.25.5.15 2.85-.15 2.35-.85 3.7l-.95 1.45-.55.05q-14.05-2.8-24.15 5.6l-.6.2-.35-.05q5-11 16.15-10.45 11.1.55 10.6-3.65" fill="#700960" transform="translate(-2.85 -78.55)"/><path d="m14.3 100.25.45-.15.35-.05q.8 0 1.25.55.45.6.45 1.55l-.05.8q-.25 1.2-1.15 2.15-1.15 1.2-2.45 1.2-1.4 0-2.3-.65-.6-.4-.85-1.05-.3-.6-.3-1.4 0-.8.3-1.3.3-.6.85-.6.4 0 .95.65.6.6.95.6l.6-.2.2-.3.2-.9q.15-.75.55-.9" fill="#ff90f6" transform="translate(-2.85 -78.55)"/><path d="m17.95 98.35.05 2.4-.35 2.4v.1q-.45 1.6-1.25 3.05-2.75 3.8-6.7 1.55L8.35 107q1.65.25 1.9-.25l-.9-1.85q-1.2-2.75-1.75-5.85l1.8-.1v.25q.15.95 1.15 1.4l.5.15q1.2.25 1.85-.85.45-.7.4-1.5l.15-.1.2-.65-.2-.65q-.15-.15-.3-.2v-.05l.55-.05.4.25.2.45.1.45 2.7.35.85.15m-3.65 1.9q-.4.15-.55.9l-.2.9-.2.3-.6.2q-.35 0-.95-.6-.55-.65-.95-.65-.55 0-.85.6-.3.5-.3 1.3t.3 1.4q.25.65.85 1.05.9.65 2.3.65 1.3 0 2.45-1.2.9-.95 1.15-2.15l.05-.8q0-.95-.45-1.55-.45-.55-1.25-.55l-.35.05-.45.15" fill="#8c168a" transform="translate(-2.85 -78.55)"/><path d="m13.3 98.4-.45.15-.55-.25-.2-.65.2-.65q.25-.25.55-.25l.3.05q.15.05.3.2l.2.65-.2.65-.15.1m-4.65-.7q-.45-.8-.3-1.95.1-1.1.65-1.95.55-.8 1.2-.8.7 0 1.1.8.4.85.3 1.95-.1 1.15-.65 1.95t-1.25.8h-.15q-.55-.1-.9-.8" fill="#fff" transform="translate(-2.85 -78.55)"/><path d="M7.6 99.05q-.6-3.7-.25-7.9v-.05h.05l8.7.25q1.55 3.75 1.85 7l-.85-.15-2.7-.35-.1-.45-.2-.45-.4-.25-.55.05v.05l-.3-.05q-.3 0-.55.25l-.2.65.2.65.55.25.45-.15q.05.8-.4 1.5-.65 1.1-1.85.85l-.5-.15q-1-.45-1.15-1.4v-.25l-1.8.1m1.05-1.35q.35.7.9.8h.15q.7 0 1.25-.8t.65-1.95q.1-1.1-.3-1.95-.4-.8-1.1-.8-.65 0-1.2.8-.55.85-.65 1.95-.15 1.15.3 1.95" fill="#700960" transform="translate(-2.85 -78.55)"/><path d="M18.35 94.8Q16 90.65 7.15 92.3q-4.55-1.6-4.3-5.8.8 2 3.35 1.45 10.25-2.45 12.15 6.85" fill="#700960" transform="translate(-2.85 -78.55)"/></g><g id="x" fill-rule="evenodd"><path d="M13.25 20.05v.05l.3.35.25.15q1.25.8 2.35.5-1 2.2-2.5 3.3-2.25 1.55-5.6.6-1.85-.75-3.2-1.7l3.55.1 2.45-.4q1.35-.6 2.4-1.85L11.1 21l.7-.3 1.3-.55-.05.05.1-.1.1-.05" fill="#ac66e8"/><path d="m11.45 17.55.95-.35q1.5-.6 3.3-1.95.55 2.3-2.45 4.8l-.1.05-.1.1.05-.05-1.3.55-.7.3 2.15.15Q12.2 22.4 10.85 23l-1.65-.2-.95-.2-2.1-.85q-1.25-.65-2.25-1.6L2.5 18.6l-1-1.6.1-1.2v-.05q.25-2.15 1.5-4.7l.45-.85q1.1 11.75 7.9 7.35m1.3 2.5h.15-.8.65" fill="#e38bec"/><path d="m4.85 23.3-.95-.85Q1.5 20.2 1.5 17l1 1.6 1.4 1.55q1 .95 2.25 1.6l2.1.85.95.2 1.65.2-2.45.4-3.55-.1" fill="#ffd6ff"/><path d="M6.75 12.8v.15q-.5 1.55 0 2.5 1.4 3 4.7 2.1-6.8 4.4-7.9-7.35l.25-.45.3-.7Q4.85 7.4 5.15 5.5l1.55 6.25.05.1.05.35v.4l-.05.2" fill="#a966e9"/><path d="M6.75 12.8q.45 1.6 1.1 2.3 1.4 1.8 3.2 1.1 1.8-.75 3.15-1.35 1.3-.65 1.9-1.8l1 1.45q.85 2.35-1.75 5.05 1 0 2.25-1l.85-.65-.55 2.35q-.7 3-3.4 5.4Q11.6 27.4 9.4 27q-2.2-.45-3.5-1.1-1.3-.7-3.05-2.35Q-.5 20.4.1 15.6q.3-2.4 1.65-5.3l.05-.05.6-1.1-.1.2.45-.9Q3.9 5.9 4.45 2.5l.15-1.2h.05L4.8 0q.75 2 .35 5.5-.3 1.9-1.05 3.55l-.3.7-.25.45-.45.85q-1.25 2.55-1.5 4.7v.05L1.5 17q0 3.2 2.4 5.45l.95.85q1.35.95 3.2 1.7 3.35.95 5.6-.6 1.5-1.1 2.5-3.3-1.1.3-2.35-.5l-.25-.15-.3-.35v-.05q3-2.5 2.45-4.8-1.8 1.35-3.3 1.95l-.95.35q-3.3.9-4.7-2.1-.5-.95 0-2.5v-.15m6 7.25h-.65.8-.15" fill="#4e0a80"/></g><g id="y"><path d="M1.05.1q7.4 8.45 17.7 13.1 10.75 4.9 22.4 2.1l1.45 4.25.55 2.15-.05 1.2-.75 3.15q-2.2 2-5.05 3.3l-2.5.95-7.5-.2q-3.9-1.7-4.7-4.95-2.6 1-5.15.1-4.2-1.65-5.35-5.1l-.1-.2q-3.1-2.3-5.5-5.35-3.15-3.9-4.8-8.7l-1-3.3L.95.2l.1-.1" fill="#fff" fill-rule="evenodd" transform="translate(1 1)"/><path d="m2.85 35.35-1-2q-1.3-3.25-1.7-6.8-.25-2.3 0-4.4l.6-2.95q.85-2.65 2.05-5.25Q.3 8.65.7 2.6l1 3.3q1.65 4.8 4.8 8.7 2.4 3.05 5.5 5.35l.1.2q1.15 3.45 5.35 5.1 2.55.9 5.15-.1.8 3.25 4.7 4.95l7.5.2-.85 2q-.75 1.65-2.4 2.65-4.1 2.4-7.65.6l-.65-1.8-1.7.65-2.8.5q-5 0-8.3-4.4-3.1-4.1-3.2-10-2.85-3.15-4.45-6.55 1.6 3.4 4.45 6.55.1 5.9 3.2 10 3.3 4.4 8.3 4.4l2.8-.5 1.7-.65.65 1.8.05.15q.65 1.65 2.3 2.85 1.1.75 2.25.95-3.9 4.25-7.6 1.65-3.75-2.65-4.8-5.15-3.15 2.25-7.05 1.4-3.3-.6-6.2-2.05" fill="#9dd4fa" fill-rule="evenodd" transform="translate(1 1)"/><path d="M42.35 26.05 40.8 29.2q-1 13.2-1.45 14.3-11.8 7.8-21.05 1-2.15-1.55-2.8-4l-2.25.4q-3.7.15-6.9-1.95-2.15-1.45-3.5-3.6 2.9 1.45 6.2 2.05 3.9.85 7.05-1.4 1.05 2.5 4.8 5.15 3.7 2.6 7.6-1.65-1.15-.2-2.25-.95-1.65-1.2-2.3-2.85l-.05-.15q3.55 1.8 7.65-.6 1.65-1 2.4-2.65l.85-2 2.5-.95q2.85-1.3 5.05-3.3M28.5 39.5l1.8-.1q1.9-.3 3.4-1.55 2.75-2.15 4.75-5.15l2.1-3.1.25-.4-.25.4-2.1 3.1q-2 3-4.75 5.15-1.5 1.25-3.4 1.55l-1.8.1" fill="#6ea6f5" fill-rule="evenodd" transform="translate(1 1)"/><path d="M1.95 1.2 2 1l.05.1q7.4 8.45 17.7 13.1 10.75 4.9 22.4 2.1l1.45 4.25.55 2.15-.05 1.2-.75 3.15-1.55 3.15q-1 13.2-1.45 14.3-11.8 7.8-21.05 1-2.15-1.55-2.8-4l-2.25.4q-3.7.15-6.9-1.95-2.15-1.45-3.5-3.6l-1-2q-1.3-3.25-1.7-6.8-.25-2.3 0-4.4l.6-2.95q.85-2.65 2.05-5.25Q1.3 9.65 1.7 3.6l.25-2.4m39.85 29-.25.4-2.1 3.1q-2 3-4.75 5.15-1.5 1.25-3.4 1.55l-1.8.1q-1.15-.2-2.25-.95-1.65-1.2-2.3-2.85l-.05-.15-.65-1.8-1.7.65-2.8.5q-5 0-8.3-4.4-3.1-4.1-3.2-10-2.85-3.15-4.45-6.55" fill="none" stroke="#2e59b0" stroke-linecap="round" stroke-linejoin="round" stroke-width="2"/></g><g id="z"><path d="M43.8 2q.1 3.5-1.45 6.9-2.35 5.25-7.45 8.05v.15l-.3 3.35q-1 5.45-6.15 5.1 1.5 4.6-1.65 8.4-3.25 4-8.1 2.55l-1.95 3.55-.65.45q-4.55 2.85-9.6.25 5.05 2.6 9.6-.25l.2.1 1.05.65q1.4 1.05-.05 3.6-1.5 2.5-6.8.6-4.6-1.7-4-4.7-1.8-.95-3.65-2.55l-1.6-9.5.5.05q5.45 1 10.4-1.25l7.25-.25q1.8-.65 2.3-2.55 5.95-.85 8.65-6.55Q32.4 13.8 32.5 9l6.95-5.65L43.1 0l.7 2M22 39.2q7.65-.35 9.6-5.9.7.2 1.2.9.8 1 .8 2.55 0 1.65-2.5 3.45-2.5 1.8-4.65 1.8-4.35 0-4.45-2.8" fill="#9dd4fa" fill-rule="evenodd" transform="translate(1 1)"/><path d="m16.75 40.05 1.95-3.55q4.85 1.45 8.1-2.55 3.15-3.8 1.65-8.4 5.15.35 6.15-5.1l.3-3.35v-.15q5.1-2.8 7.45-8.05Q43.9 5.5 43.8 2q2.1 7.6-4.15 13.2l-.3.25-.7.55Q41 21.65 36.3 27.1q-1.65 1.85-4.05 2.4-.05 2.15-.65 3.8.6-1.65.65-3.8 2.4-.55 4.05-2.4Q41 21.65 38.65 16l.7-.55.3-.25q4.85 9.2.85 19.4-4.4 11.25-16.05 10.6-.9 2.6-3.55 3.55-9.15 3.4-16.55-3.05-.25-.15-1.5-7.5 1.85 1.6 3.65 2.55-.6 3 4 4.7 5.3 1.9 6.8-.6 1.45-2.55.05-3.6l-1.05-.65.45-.55 2.2-1.95q1.3.65 3 1.1H22h-.05q-1.7-.45-3-1.1l-2.2 1.95M31.6 33.3q-1.95 5.55-9.6 5.9.1 2.8 4.45 2.8 2.15 0 4.65-1.8 2.5-1.8 2.5-3.45 0-1.55-.8-2.55-.5-.7-1.2-.9" fill="#6ea6f5" fill-rule="evenodd" transform="translate(1 1)"/><path d="M32.5 9q-.1 4.8-2.15 9.15-2.7 5.7-8.65 6.55-.5 1.9-2.3 2.55l-7.25.25q-4.95 2.25-10.4 1.25l-.5-.05-1.25-8q10.85-.4 20.7-4.95Q27 12.9 32.5 9" fill="#fff" fill-rule="evenodd" transform="translate(1 1)"/><path d="m44.8 3-.7-2-3.65 3.35L33.5 10q-5.5 3.9-11.8 6.75Q11.85 21.3 1 21.7l1.25 8 1.6 9.5q1.85 1.6 3.65 2.55 5.05 2.6 9.6-.25l.65-.45 2.2-1.95q1.3.65 3 1.1H23q7.65-.35 9.6-5.9.6-1.65.65-3.8 2.4-.55 4.05-2.4Q42 22.65 39.65 17l.7-.55.3-.25Q46.9 10.6 44.8 3m-4.15 13.2q4.85 9.2.85 19.4-4.4 11.25-16.05 10.6-.9 2.6-3.55 3.55-9.15 3.4-16.55-3.05-.25-.15-1.5-7.5" fill="none" stroke="#2e59b0" stroke-linecap="round" stroke-linejoin="round" stroke-width="2"/></g><g id="A"><path d="M9.45.25q1-.4 1.35 1.25l.25 2.7q4.4 7.25 1 14.65-3.4 7.2-9.35 4.85l-1.8.75-.2-.4q-.6-1.4-.7-2.75 1.65-3.8 4-5.5 2.7.65 3.55-2.7Q8 11.5 6.6 10q2.15-4.9 2.15-8.75L9 .9l.45-.65m-.9 16.6-.65-.25-.7.25q-.25.25-.25.65l.25.65q.3.3.7.3l.65-.3.25-.65-.25-.65" fill="#ffece0" fill-rule="evenodd" transform="translate(1 1)"/><path d="M8.75 1.25Q8.75 5.1 6.6 10q1.4 1.5.95 3.1Q6.7 16.45 4 15.8q-2.35 1.7-4 5.5-.2-3.45 3-6.5Q4.45 7.9 8.75 1.25m-.2 15.6.25.65-.25.65-.65.3q-.4 0-.7-.3l-.25-.65q0-.4.25-.65l.7-.25.65.25" fill="#fff" fill-rule="evenodd" transform="translate(1 1)"/><path d="m.9 24.45 1.8-.75q5.95 2.35 9.35-4.85 3.4-7.4-1-14.65l-.25-2.7Q10.45-.15 9.45.25l.1-.25.75.2 7.85 3.55q1.8 1 3.3-.35.95 11.75-4.7 24.45Q13 29.7 9.5 29.15l-2.1-.55q-1.8-.8-2.6-2.95l-.4.5q-1 1-2.2.5l-1.25-2-.05-.2" fill="#f1afa8" fill-rule="evenodd" transform="translate(1 1)"/><path d="m1.9 25.45.05.2 1.25 2q1.2.5 2.2-.5l.4-.5q.8 2.15 2.6 2.95l2.1.55q3.5.55 7.25-1.3 5.65-12.7 4.7-24.45M10.55 1l-.1.25-.45.65-.25.35Q5.45 8.9 4 15.8q-3.2 3.05-3 6.5.1 1.35.7 2.75l.2.4" fill="none" stroke="#af6048" stroke-linecap="round" stroke-linejoin="round" stroke-width="2"/></g><g id="B"><path d="m58.15 21.3-33.4 4.15.95.8L31 44.8l-4.75-1.4-.5.25L22.2 29.6l-.2.35-10.1 6 .1-.55-.25-.1L19.6 27l-.95-.05-7.15-9.5 1.3-.8 4.15-9.3 4.7 15.15L35.2 12.4l2.35 1.5q10.3 2.7 20.6 7.4" fill="#ffed4b" fill-rule="evenodd" transform="translate(1 1)"/><path d="m58.15 21.3.45.25q-5.1 6.95-12.95 11.7 4.3 7.8 6 15.6l-.1.05L25.7 26.25l-.95-.8 33.4-4.15m-32.4 22.35L9 53.05l13-23.1.2-.35 3.55 14.05m-14-8.35Q4.7 32.15 0 27.15l.7-.7 17.95.5.95.05-7.85 8.3M20.7.4l14.5 12-13.55 10.1L20.7.4" fill="#fea734" fill-rule="evenodd" transform="translate(1 1)"/><path d="M25.7 26.25 51.55 48.9Q40.75 47.5 31 44.8l-5.3-18.55M8.8 53l3.1-17.05 10.1-6-13 23.1-.2-.05M.7 26.45q5.05-5.2 10.8-9l7.15 9.5-17.95-.5m16.25-19.1L20.2 0l.5.4.95 22.1-4.7-15.15" fill="#f3ffa5" fill-rule="evenodd" transform="translate(1 1)"/><path d="M52.65 49.85q-1.7-7.8-6-15.6 7.85-4.75 12.95-11.7l-.45-.25q-10.3-4.7-20.6-7.4l-2.35-1.5-14.5-12-.5-.4-3.25 7.35-4.15 9.3-1.3.8q-5.75 3.8-10.8 9l-.7.7q4.7 5 11.75 8.15l.25.1-.1.55L9.8 54l-.05.15.25-.1 16.75-9.4.5-.25L32 45.8q9.75 2.7 20.55 4.1h.1v-.05z" fill="none" stroke="#9a4c2f" stroke-linecap="round" stroke-linejoin="round" stroke-width="2"/></g><g id="C"><path d="M21.85 3.45q1.3 3.15-.1 6.2-3.6 2.85-6.1 8.6-1.4 4.2-6.1 3.35-.45-.85-.45-2.05Q16.05 17.3 12 9.4q5.75-.4 9.85-5.95m-5.65 11.7q-.1 1.8-.55 3.1.45-1.3.55-3.1M1 19.5l1.6-.3.1 2.15L1 19.5m2.85-.7q3.1-1.1 5.6-3.75-1.1 1.4-2.35 5.4-2.05.35-3.1-.4l-.15-1.25" fill="#f1afa8" fill-rule="evenodd" transform="translate(1 1)"/><path d="M9.1 19.55q0 1.2.45 2.05-3.3 1.75-6.55 0l-.3-.25-.1-2.15q.1-3 1.6-5.9-.6 2.9-.35 5.5L4 20.05q1.05.75 3.1.4 1.25-4 2.35-5.4.45-.6.9-.7-1.3 3.15-1.25 5.2" fill="#af6048" fill-rule="evenodd" transform="translate(1 1)"/><path d="M21.85 3.45Q17.75 9 12 9.4q4.05 7.9-2.9 10.15-.05-2.05 1.25-5.2-.45.1-.9.7-2.5 2.65-5.6 3.75-.25-2.6.35-5.5-1.5 2.9-1.6 5.9l-1.6.3Q-2.05 14.75 4 7q3.75-4.6 15.55-7 1.55 1.75 2.3 3.45M7.45 8.5q-.45-.7-1.2-.7t-1.35.7q-.6.75-.75 1.75-.1 1.05.3 1.8.45.7 1.2.7t1.35-.7q.65-.75.75-1.8.15-1-.3-1.75" fill="#ffece0" fill-rule="evenodd" transform="translate(1 1)"/><path d="M7.45 8.5q.45.75.3 1.75-.1 1.05-.75 1.8-.6.7-1.35.7-.75 0-1.2-.7-.4-.75-.3-1.8.15-1 .75-1.75.6-.7 1.35-.7.75 0 1.2.7" fill="#fff" fill-rule="evenodd" transform="translate(1 1)"/><path d="M10.55 22.6q4.7.85 6.1-3.35.45-1.3.55-3.1M20.55 1Q8.75 3.4 5 8q-6.05 7.75-3 12.5l1.7 1.85.3.25q3.25 1.75 6.55 0m6.1-3.35q2.5-5.75 6.1-8.6" fill="none" stroke="#af6048" stroke-linecap="round" stroke-linejoin="round" stroke-width="2"/></g><g id="D"><path d="m18.8 2.9.75 1.3q1.1 2.3 1.7 4.75l.05.35q.45 2.2.05 4.3l-.35.55q0-.85-.5-1.45-.55-.75-1.45-.75-.7 0-1.25.6l-.45-2.2-.1-1.35q0-1.25.25-2.5l.35-1.6q.45-1.6.95-2" fill="#697cfe" fill-rule="evenodd" transform="translate(.75 1)"/><path d="M21.35 13.6q.4-2.1-.05-4.3l-.05-.35q-.6-2.45-1.7-4.75l-.75-1.3q.15-.2.35-.2 2.5 0 4.9 6.15l1.25 3.6.55 2.45.1.5-.05-.05-.5-.7-1-1q-.35-.25-1-.55l-1-.25q-.35 0-.8.45l-.25.3" fill="#6051e3" fill-rule="evenodd" transform="translate(.75 1)"/><path d="M17.5 6.5q-.25 1.25-.25 2.5l.1 1.35q-3.85-2.2-8-2.45Q4.8 7.85 4 11.8 2.3 10.2.65 9.4l-.1-.45Q-.7 4.75.9.6l.15-.35q9.45 3.05 15.3 5.7l1.15.55m8.35 8.4-.55-2.45q2.85 2.7 6.15 6.35 7.6 8.6 5.05 15.45-.85-1.35-7.55-4.1.95-3.3.45-6.8-.65-4.65-3.55-8.45" fill="#f7a496" fill-rule="evenodd" transform="translate(.75 1)"/><path d="m17.35 10.35.45 2.2q.55-.6 1.25-.6.9 0 1.45.75.5.6.5 1.45l.35-.55.25-.3q.45-.45.8-.45l1 .25q.65.3 1 .55l1 1 .5.7.05.05-.1-.5q2.9 3.8 3.55 8.45.5 3.5-.45 6.8l-1-.4.75 1.3.4.7q1.55 2.6 1.55 4.05 0 .8-.75 1.6t-1.75.5l-.8-.35-.3-.6q-.85-1.7-2.45-2.6-1.55-.85-2.85-2.05l-1.55-1.9-1.85-3-.95-2.3-.1-.45-.1-.35.1-.4.45-2.4q.15-2-1.6-3.35-1.5-1.05-3.35-.4l-.65.25q-1.9-3.15-5.4-4.45l-1.3-.3-.4-.4L4 11.8q.8-3.95 5.35-3.9 4.15.25 8 2.45m3.75 8.9q-.35.45-.35 1.05 0 .6.35 1.05.4.45.95.45.55 0 .9-.45.4-.45.4-1.05 0-.6-.4-1.05-.35-.45-.9-.45t-.95.45m6.35 9.05.5 1.45-.5-1.45" fill="#ffcea1" fill-rule="evenodd" transform="translate(.75 1)"/><path d="M21.1 19.25q.4-.45.95-.45.55 0 .9.45.4.45.4 1.05 0 .6-.4 1.05-.35.45-.9.45t-.95-.45q-.35-.45-.35-1.05 0-.6.35-1.05m6.25 18.3-2.7-1.65q-2.55-1.7-5.35-2.75t-4.3-4.5l-3.05-6.2q-1.5-2.75-3.85-5.9l-2.65-3.3 1.3.3q3.5 1.3 5.4 4.45l.65-.25q1.85-.65 3.35.4 1.75 1.35 1.6 3.35l-.45 2.4-.1.4.1.35.1.45.95 2.3 1.85 3 1.55 1.9q1.3 1.2 2.85 2.05 1.6.9 2.45 2.6l.3.6" fill="#fde7ba" fill-rule="evenodd" transform="translate(.75 1)"/><path d="M19.55 3.9q-.5.4-.95 2l-.35 1.6Q18 8.75 18 10l.1 1.35.45 2.2m8.15 2.85-.1-.5-.55-2.45-1.25-3.6Q22.4 3.7 19.9 3.7q-.2 0-.35.2" fill="none" stroke="#4f1591" stroke-linecap="round" stroke-linejoin="round" stroke-width="2"/><path d="M26.05 13.45q2.85 2.7 6.15 6.35 7.6 8.6 5.05 15.45-.85-1.35-7.55-4.1l-1-.4.75 1.3.4.7q1.55 2.6 1.55 4.05 0 .8-.75 1.6t-1.75.5l-.8-.35-2.7-1.65q-2.55-1.7-5.35-2.75t-4.3-4.5l-3.05-6.2q-1.5-2.75-3.85-5.9l-2.65-3.3m-.4-.4L4.75 12.8q-1.7-1.6-3.35-2.4m.4-9.15L1 1m17.25 6.5-1.15-.55Q11.25 4.3 1.8 1.25m26.9 29.5-.5-1.45" fill="none" stroke="#af6048" stroke-linecap="round" stroke-linejoin="round" stroke-width="2"/></g><g id="E"><path d="m37.2 1.3 12.4.45 1.5-.35q-8.45 10.8-18.9 9.4l-.85-.15-1.7-.6q3.6.45 6.45-1.35-2.05-.6-1.55-3.05.65-3.1 2.65-4.35M20.65 23.4q-1.45 1.45-2.9 4.1-2.45-2.85-3.7-5.9-1.25-3.1-1.8-5.8l.15-.1q.65-.25 1.05-.35l1.35-1.25q1.95-1.25 4.8-1.85 3.2-.7 3.45 2.55.2 2.15-.9 4.2-1.1 2.1-1.5 4.4M7.6 16.15h-.05Q2.9 15.9 0 12.95l1.9-.4 1.95-.7q5.05-.6 6.45.4 2.05 1.45 1.4 2.6-.55.85-4.1 1.3" fill="#64e3da" fill-rule="evenodd" transform="translate(1 1)"/><path d="M3.85 11.85q2.85-1.3 5.1-3.9L33 .1l.25-.1 3.95 1.3q-2 1.25-2.65 4.35-.5 2.45 1.55 3.05-2.85 1.8-6.45 1.35l1.7.6.85.15q-.6 2.9-2.9 5.1l-4.2 3.75-3.7 3.1-.75.65q.4-2.3 1.5-4.4 1.1-2.05.9-4.2-.25-3.25-3.45-2.55-2.85.6-4.8 1.85-1.45.8-2.4 1.6l-.15.05-4.25.4h-.4q3.55-.45 4.1-1.3.65-1.15-1.4-2.6-1.4-1-6.45-.4" fill="#559dc8" fill-rule="evenodd" transform="translate(1 1)"/><path d="M4.85 12.85q2.85-1.3 5.1-3.9L34 1.1l.25-.1 3.95 1.3 12.4.45 1.5-.35q-8.45 10.8-18.9 9.4-.6 2.9-2.9 5.1l-4.2 3.75-3.7 3.1-.75.65q-1.45 1.45-2.9 4.1-2.45-2.85-3.7-5.9-1.25-3.1-1.8-5.8v-.05l-4.25.4h-.45Q3.9 16.9 1 13.95l1.9-.4 1.95-.7m8.55 3.85-.15.05m.15-.05q.65-.25 1.05-.35l1.35-1.25m17.4-3.3-.85-.15-1.7-.6" fill="none" stroke="#31587c" stroke-linecap="round" stroke-linejoin="round" stroke-width="2"/></g><g id="F"><path d="m22.55 94.75-.85-3.15q1.1 1.5 2.75.95 1.65-.6 2.35-2l1.05-2.4q.3-1.05.15-3.5-.1-1.1-1.1-2.5 1.2-.75 7.65 1.4l.7.3q-.4 3.45-2.15 6.7-2.9 5.25-8.7 4.5l-1.85-.3" fill="#ffeb82" fill-rule="evenodd" transform="translate(-20.7 -80.95)"/><path d="m22.55 94.75 1.85.3q5.8.75 8.7-4.5 1.75-3.25 2.15-6.7 5.1 2.85.5 20.5-2.9-.15-5.55-1.4l-2-1.15q-3.05-1.8-4.75-5l-.9-2.05" fill="#eca55a" fill-rule="evenodd" transform="translate(-20.7 -80.95)"/><path d="m14.55 2.9-.7-.3Q7.4.45 6.2 1.2q1 1.4 1.1 2.5.15 2.45-.15 3.5L6.1 9.6q-.7 1.4-2.35 2-1.65.55-2.75-.95l.85 3.15.9 2.05q1.7 3.2 4.75 5l2 1.15q2.65 1.25 5.55 1.4 4.6-17.65-.5-20.5z" fill="none" stroke="#bd7334" stroke-linecap="round" stroke-linejoin="round" stroke-width="2"/></g><g id="G"><path d="m34.95 70.65-.05-.05-.55-.7-2.15-3.25-1.75-2.9-2.3-3.1-2.05-2.35-2.2-2.1q-1.2-1.05-2.65-.65-1.05.1-1.55.85-1.1 1.5-.65 3.35.45 1.95 1.8 3.45 1.15 1.25 1.8 2.75.3.8-.2 1.5l-1.3 1.8q-.55.75-.6 1.65-.05 1.45.8 2.45l1.25 1.55.75 1.45q.35.8.35 1.7l-.2 3.3q-.2 1.6 1.05 2.5l.8.75 2.9 2.65 2 2 2.1 2.55 2.15 3.1.7 1.3-1.85-2q-6.7-8.25-16.9-9.8l1.35-2.45q1.25-2.55 1.25-4.8 0-4.25-4.45-6.95-2.4-1.5-5.25-1.3 2.35-2.35 2.55-4.85.65-10-11.9-11.65 9.3-3.9 17.9-1.9 8.55 2 16.65 8.1l.4 12.05" fill="#697cfe" fill-rule="evenodd" transform="translate(1 -48.8)"/><path d="m35.2 96.2-.7-1.3-2.15-3.1-2.1-2.55-2-2-2.9-2.65-.8-.75q-1.25-.9-1.05-2.5l.2-3.3q0-.9-.35-1.7l-.75-1.45-1.25-1.55q-.85-1-.8-2.45.05-.9.6-1.65l1.3-1.8q.5-.7.2-1.5-.65-1.5-1.8-2.75-1.35-1.5-1.8-3.45-.45-1.85.65-3.35.5-.75 1.55-.85 1.45-.4 2.65.65l2.2 2.1 2.05 2.35 2.3 3.1 1.75 2.9 2.15 3.25.55.7.05.05v.2Q35.9 95.6 37.3 97.9l-2.1-1.7" fill="#6051e3" fill-rule="evenodd" transform="translate(1 -48.8)"/><path d="m35.95 21.85-.4-12.05q-8.1-6.1-16.65-8.1Q10.3-.3 1 3.6q12.55 1.65 11.9 11.65-.2 2.5-2.55 4.85 2.85-.2 5.25 1.3 4.45 2.7 4.45 6.95 0 2.25-1.25 4.8l-1.35 2.45q10.2 1.55 16.9 9.8l1.85 2 2.1 1.7q-1.4-2.3-2.35-27.05" fill="none" stroke="#5030b7" stroke-linecap="round" stroke-linejoin="round" stroke-width="2"/><path d="M21.35 59.6q-1.35-1.75-3.7-2.2v-.05q1.55-2.55 6.35 5.3 0 .55-1.8.5h-.05l-1.3-.2-.6-.6q0-.35.4-.35l.7.2.95.2.8-.05-1.75-2.75m3.95 14.5q-.85 0-1.55.65l-.55.45-.15.15h-.1l-.05-.1-.1-.15.4-.55q1.2-1.25 3.25-1.25l2 .35-1.2.15-1.95.3" fill="#5030b7" fill-rule="evenodd" transform="translate(1 -48.8)"/><path d="m26.45 76.2-.25.3-.8.1q1.15-2.8 2.35-2.95-.4 1.45-1.3 2.55" fill="#5030b7" fill-rule="evenodd" transform="translate(1 -48.8)"/></g><g id="H"><path d="m123.25 3.05.4-.7q4.8 11.15-.75 21.55l-2.3 3.45q1.6 4.75 6.55 6.5l1.25.3q-6.85 7-4.9 16.15l.3 1.1v.05l.05.05.4.75.75 1q1.25 1.5 3.1 1.85l.7.05-6.55 11.9q-5.75 9.45-15.15 14.7l-.55.3q-4.8 2.6-8.35 2.15-4.65-.55-7.1-6.4 2.6 1.25 5.55 1.15 4.95-.45 8.45-3.85 1.2-1.25 1.75-3.05l.85-2.9-.25.05q-3.65 1.15-7.1 2.55-2.5 3.3-6.55 4.1-2.15.5-3.55-.65 4.8-.1 4.55-6.1-.3-6.6-6.4-9.7-2.05-1.1-4.2-1.85-6.55-2.45-13.8-2.15 7.25-.3 13.8 2.15-4.65 5.3-11.4 6.25-4.15 3.85-7.25 5l-.1.1Q62 73.55 56.4 75.25H56q-5 .1-9.8-1.35-4.8-1.35-8.3-4.75-3.05-3-5.2-6.85 2.45 2.1 5.7 2.95 5.75 1.5 11.65 1.55 5.65.65 10.9-1.95l-1.85-.5q-2.2-.65-4.15-1.65-2.25-1.15-4.15-2.9 5.1 1.8 11.6 2.2 6.7.35 10.1-2.15 1.8-2-.95-2.4l-7.1-.65-7.3-.65-5.2-.95-6 .45-1.4.05h-.5l-3.7-.1 3.7.1h.5l.25 1.35.65 2.9-1.3-.6q-2.7-1.25-3.8-3.75l-1.5-.2-.35-.05q-7.3-1.25-11.2-6.45L26 46.95l-.85-1.65v-.05l.15-.05q4 2.55 8.45 3.9Q39 50.8 44.6 50.3l10.9-.75 11.45.85 8.6 1.45.95.25-.85-.4q-2.55-1.2-5.3-1.7L58.6 47.7q-4.25-.65-8.2-2.45 3 .2 4.6-.65.55-.6.45-1.5-.1-.9-2.35-2.05t-7.35-.5q-2.95.15-6.05-1.3-3.1-1.5-2.4-7.4.6-5.35 5-5.1l-.1.25q-1.8.5-1.95 3.7 1.85 9.4 15.65 6.6 13.8-2.85 9.95-13.9-3.55-10-14.3-10.8 10.75.8 14.3 10.8 3.85 11.05-9.95 13.9-13.8 2.8-15.65-6.6.15-3.2 1.95-3.7-.25 1.05-.25 2.35.05 3.65 6.2 3.95 6.15.25 10.05-4.15 4-4.35.75-9.4-3.2-5.1-10.9-5.6-3.8-.45-8.3-.15 4.35-1.4 9.4-1.45l2.4.05 8.25-.8q5.55.05 11 1.65 5.35 1.75 10.85 2.85l11.4 1.05q4.3.1 8.25-1.25-1.95 1.4-5.15 2.4-4.6 1.45-9.4 2.1l-9 .35-9.1.7q1.8 2.85.9 6.4-1.4 5.5-5.75 9l.65-.1q2.4 0 5.65 1.1 3.25 1.1 8.3 1.1 7.25 0 13.75-5.6 5.4-4.65 5.4-7.05 0-1.65-4.3-1.9-4.6-.3-4.9-.95l8.55-.95q4.5-.6 8.8-1.8 4.35-1.1 8.3-3.45 4.1-2.35 6.55-6.4 2.25-3.65 2.7-8M76.5 52.1q.8.4 1.6.95 0-.5-1.6-.95m-18.05 2.05-6.5 1.05 6.5-1.05m3.2 15.2q2 .15 3.75-.5h.05l.1-.05-.1.05h-.05q-1.75.65-3.75.5m6.8-5.2 2.5-.2 1.85-.15-1.85.15-2.5.2" fill="#f0c169" fill-rule="evenodd" transform="translate(-21.8 1)"/><path d="M38.95 13.25Q43.25 6.4 50.7 2.9 59.75-1.45 69.8.75 78.65 2.6 87.15 6q8.2 3.1 16.6 5.15Q114.15 13.7 121 6.2l2.25-3.15q-.45 4.35-2.7 8-2.45 4.05-6.55 6.4-3.95 2.35-8.3 3.45-4.3 1.2-8.8 1.8l-8.55.95q.3.65 4.9.95 4.3.25 4.3 1.9 0 2.4-5.4 7.05-6.5 5.6-13.75 5.6-5.05 0-8.3-1.1-3.25-1.1-5.65-1.1l-.65.1q4.35-3.5 5.75-9 .9-3.55-.9-6.4l9.1-.7 9-.35q4.8-.65 9.4-2.1 3.2-1 5.15-2.4-3.95 1.35-8.25 1.25l-11.4-1.05q-5.5-1.1-10.85-2.85-5.45-1.6-11-1.65l-8.25.8-2.4-.05q-5.05.05-9.4 1.45 4.5-.3 8.3.15 7.7.5 10.9 5.6 3.25 5.05-.75 9.4-3.9 4.4-10.05 4.15-6.15-.3-6.2-3.95 0-1.3.25-2.35l1.05-.1-.95-.15q-4.4-.25-5 5.1-.7 5.9 2.4 7.4 3.1 1.45 6.05 1.3 5.1-.65 7.35.5t2.35 2.05q.1.9-.45 1.5-1.6.85-4.6.65 3.95 1.8 8.2 2.45L70.35 50q2.75.5 5.3 1.7l.85.4-.95-.25-8.6-1.45-11.45-.85-10.9.75q-5.6.5-10.85-1.2-4.45-1.35-8.45-3.9l.35-.15.75-.75q.75-3 .85-6.1 1.15.05 2-.65 2.4-1.95 2.95-4.9l.15-2.6q-.15-1.75-1.35-2.9-.45-.45-1.05-.7l-.15.1.05-.15q1.7-3.6 4.85-6.55l5.5-5.35-.45-.5-.8-.75M82.6 31.3q1.75-.75 1.75-1.8t-1.75-1.8q-1.75-.75-4.25-.75t-4.25.75q-1.75.75-1.75 1.8t1.75 1.8q1.75.75 4.25.75t4.25-.75m7.65 43.9q1.4 1.15 3.55.65 4.05-.8 6.55-4.1 3.45-1.4 7.1-2.55l.25-.05-.85 2.9q-.55 1.8-1.75 3.05-3.5 3.4-8.45 3.85-2.95.1-5.55-1.15l-.85-2.6m7.95 9q3.55.45 8.35-2.15l.55-.3q-1 2-2.95 3.45-4.05 2.9-8.9 2.9-1.1-1.4-1.8-3.15l1.7-.1 3.05-.65M54.15 24q0-.75-.55-1.3t-1.3-.55q-.75 0-1.3.55t-.55 1.3q0 .75.55 1.3t1.3.55q.75 0 1.3-.55t.55-1.3m-6.9 4.55q-2.4-1.5-4-1.65 1.6.15 4 1.65m28 7.45q0 .6.5 1 .55.45 1.25.45t1.2-.45q.55-.4.55-1t-.55-1.05q-.5-.4-1.2-.4t-1.25.4q-.5.45-.5 1.05m-42.5.35q-.55 0-.95.3-.35.35-.35.8 0 .45.35.75.4.35.95.35.55 0 .9-.35.4-.3.4-.75t-.4-.8q-.35-.3-.9-.3M27.3 48.9q3.9 5.2 11.2 6.45l.35.05 3.3 5.2q-5.45-1.5-10.55-3.55l-1.15-.5-.45-.15-.6-1.3q-1.3-2.95-2.1-6.2m18.65 6.75 6-.45 5.2.95 7.3.65 7.1.65q2.75.4.95 2.4-3.4 2.5-10.1 2.15-6.5-.4-11.6-2.2 1.9 1.75 4.15 2.9 1.95 1 4.15 1.65l1.85.5q-5.25 2.6-10.9 1.95-5.9-.05-11.65-1.55-3.25-.85-5.7-2.95 2.15 3.85 5.2 6.85 3.5 3.4 8.3 4.75 4.8 1.45 9.8 1.35h.4l-5.45.95q-8.05.45-14.7-5.6l-.4-.55-1.45-2.3-1.15-2.45-.9-2.55-.3-1-.5-1.7-.15-.65 1.95.75q5.45 1.8 10.9 2.7l7.35.45q-3.45-1.2-5.15-4.65l-.3-.8 3.65.55.9-.2q-2-.25-3.35-.95-1.35-.65-1.4-1.6" fill="#ffeb82" fill-rule="evenodd" transform="translate(-21.8 1)"/><path d="M128.8 55.15q1.1 0 2.15-.7-1.4 11.5-8.1 20.9-6.55 9.2-14.7 16.85-7.7 7.2-17.85 9.7-2.1-.3-4.05-1 3.5-2.7 6.5-6.1l4.15-4.85-1.65-1.85q4.85 0 8.9-2.9 1.95-1.45 2.95-3.45 9.4-5.25 15.15-14.7l6.55-11.9m-28.55 37.2-1.6-1.05-1.75-1.35 1.75 1.35 1.6 1.05" fill="#eb9a54" fill-rule="evenodd" transform="translate(-21.8 1)"/><path d="M29.45 61.95q-3.7-6.9-3.45-15l1.3 1.95q.8 3.25 2.1 6.2l.6 1.3.45.15 1.15.5q5.1 2.05 10.55 3.55l-3.3-5.2 1.5.2q1.1 2.5 3.8 3.75l1.3.6-.65-2.9-.25-1.35 1.4-.05q.05.95 1.4 1.6 1.35.7 3.35.95l-.9.2-3.65-.55.3.8q1.7 3.45 5.15 4.65l-7.35-.45q-5.45-.9-10.9-2.7l-1.95-.75.15.65.5 1.7.3 1 .9 2.55 1.15 2.45 1.45 2.3.4.55-3.1-3.2-.8-1.05-2.1-2.95-.8-1.45m-4.3-16.7-.1-.2-.75-1.95q-4.35-12.9 3.9-21.65 4.15-4.45 9.5-6.65l.45-.2 1.6-.6.45.5-5.5 5.35q-3.15 2.95-4.85 6.55l-.05.15.15-.1q.6.25 1.05.7 1.2 1.15 1.35 2.9l-.15 2.6q-.55 2.95-2.95 4.9-.85.7-2 .65-.1 3.1-.85 6.1l-.75.75-.35.15-.15.05M82.6 31.3q-1.75.75-4.25.75t-4.25-.75q-1.75-.75-1.75-1.8t1.75-1.8q1.75-.75 4.25-.75t4.25.75q1.75.75 1.75 1.8t-1.75 1.8M54.15 24q0 .75-.55 1.3t-1.3.55q-.75 0-1.3-.55t-.55-1.3q0-.75.55-1.3t1.3-.55q.75 0 1.3.55t.55 1.3m21.1 12q0-.6.5-1.05.55-.4 1.25-.4t1.2.4q.55.45.55 1.05 0 .6-.55 1-.5.45-1.2.45T75.75 37q-.5-.4-.5-1m-42.5.35q.55 0 .9.3.4.35.4.8 0 .45-.4.75-.35.35-.9.35t-.95-.35q-.35-.3-.35-.75t.35-.8q.4-.3.95-.3" fill="#f8fed8" fill-rule="evenodd" transform="translate(-21.8 1)"/><path d="M86.25 100.9q-3.85 2.9-8.35 4.9-8.95 3.95-18.9 5.1-9.1 1.05-16-.7l-1.3-.4q-6.5-1.95-7.05-5.6 2.4 1.2 5.05 2.05 6.3 2.05 13.6 2.15 11.6.1 23.3-5.65 6.5-3.2 9.7-8.15l1.25.15q1.05 0 1.75-.4.75-.4.75-.95 0-.55-.75-.95l-1.6-.4q1.3-3 1.6-6.5.85-9.85-6.25-15.75l-4.25 2.95q-4.95 3-10.45 4.65-5.5 1.8-11.35 2.1l-10.85-.85Q39.75 77.7 36.1 73q-2.3-2.95-3.75-6.65l.8 1.05 3.1 3.2q6.65 6.05 14.7 5.6l5.45-.95q5.6-1.7 9.05-6.35l.1-.1q3.1-1.15 7.25-5 6.75-.95 11.4-6.25 2.15.75 4.2 1.85 6.1 3.1 6.4 9.7.25 6-4.55 6.1l.85 2.6q2.45 5.85 7.1 6.4l-3.05.65-1.7.1q.7 1.75 1.8 3.15l1.65 1.85-4.15 4.85q-3 3.4-6.5 6.1" fill="#f7a496" fill-rule="evenodd" transform="translate(-21.8 1)"/><path d="M87.7 92.05h-.15l-1.8.4q-.7.4-.7.95 0 .55.7.95l.55.25q-3.2 4.95-9.7 8.15-11.7 5.75-23.3 5.65-7.3-.1-13.6-2.15l-.3-.45q-2.65-4.2-3.7-10.15-1.1-6-2.6-10.1-1.15-3.05-1.25-5.4V80q2.55-1.15 2.2-4.1-.3-3.1-3.4-4L30.4 70q-.3-3.3-.15-6.6l2.1 2.95q1.45 3.7 3.75 6.65 3.65 4.7 10.05 5.65L57 79.5q5.85-.3 11.35-2.1 5.5-1.65 10.45-4.65l4.25-2.95q7.1 5.9 6.25 15.75-.3 3.5-1.6 6.5m-50.45-15.7q-.35 0-.65.25l-.25.65.25.6q.3.3.65.3.35 0 .6-.3l.3-.6-.3-.65q-.25-.25-.6-.25m5.75 24.4q-.85 0-1.65.45-.85.45-1.25 1.15-.5.65-.2 1.2.3.5 1.15.55l1.6-.45 1.3-1.15q.4-.7.1-1.2-.3-.55-1.05-.55" fill="#ffcea1" fill-rule="evenodd" transform="translate(-21.8 1)"/><path d="m34.65 104.2-.05-1.05q.25-4.45-.7-8.65t-3.8-8.3q-1.6-2.55-2.1-8.15-.7-7.4 1.45-16.1l.8 1.45q-.15 3.3.15 6.6l.25 1.9q3.1.9 3.4 4 .35 2.95-2.2 4.1v.15q.1 2.35 1.25 5.4 1.5 4.1 2.6 10.1 1.05 5.95 3.7 10.15l.3.45q-2.65-.85-5.05-2.05m51.65-9.6-.55-.25q-.7-.4-.7-.95 0-.55.7-.95l1.8-.4h.15l1.6.4q.75.4.75.95 0 .55-.75.95-.7.4-1.75.4l-1.25-.15M37.25 76.35q.35 0 .6.25l.3.65-.3.6q-.25.3-.6.3t-.65-.3l-.25-.6.25-.65q.3-.25.65-.25m5.75 24.4q.75 0 1.05.55.3.5-.1 1.2l-1.3 1.15-1.6.45q-.85-.05-1.15-.55-.3-.55.2-1.2.4-.7 1.25-1.15.8-.45 1.65-.45" fill="#fde7ba" fill-rule="evenodd" transform="translate(-21.8 1)"/><path d="m101.45 4.05.4-.7q4.8 11.15-.75 21.55l-2.3 3.45q1.6 4.75 6.55 6.5l1.25.3q-6.85 7-4.9 16.15l.3 1.1.05.1.4.75.75 1q1.25 1.5 3.1 1.85l.7.05q1.1 0 2.15-.7-1.4 11.5-8.1 20.9-6.55 9.2-14.7 16.85-7.7 7.2-17.85 9.7-2.1-.3-4.05-1-3.85 2.9-8.35 4.9-8.95 3.95-18.9 5.1-9.1 1.05-16-.7l-1.3-.4q-6.5-1.95-7.05-5.6l-.05-1.05q.25-4.45-.7-8.65t-3.8-8.3q-1.6-2.55-2.1-8.15-.7-7.4 1.45-16.1-3.7-6.9-3.45-15l-.85-1.65v-.05l-.1-.2-.75-1.95q-4.35-12.9 3.9-21.65 4.15-4.45 9.5-6.65l.45-.2.3-.5.5-.85Q21.45 7.4 28.9 3.9 37.95-.45 48 1.75 56.85 3.6 65.35 7q8.2 3.1 16.6 5.15Q92.35 14.7 99.2 7.2l2.25-3.15m-71.7 9.55q10.75.8 14.3 10.8 3.85 11.05-9.95 13.9-13.8 2.8-15.65-6.6.15-3.2 1.95-3.7l1.05-.1q1.6.15 4 1.65m43 46.65.85 2.6q2.45 5.85 7.1 6.4 3.55.45 8.35-2.15l.55-.3q9.4-5.25 15.15-14.7l6.55-11.9m-44.6 2.4q2.15.75 4.2 1.85 6.1 3.1 6.4 9.7.25 6-4.55 6.1m7.95 9-3.05.65-1.7.1q.7 1.75 1.8 3.15l1.65 1.85 1.75 1.35 1.6 1.05m-67.9-26-2.1-2.95-.8-1.45m56.8 38.95q3.5-2.7 6.5-6.1l4.15-4.85M102 52.4v.05l.05.05m-72.3-38.9-2.4-.05q-5.05.05-9.4 1.45l-1.6.6M4.2 47.95l1.3 1.95q3.9 5.2 11.2 6.45m.35.05 1.5.2 3.7.1h.5l1.4-.05 6-.45 6.5-1.05m-26.1 12.2.8 1.05 3.1 3.2q6.65 6.05 14.7 5.6l5.45-.95q5.6-1.7 9.05-6.35l.1-.1q3.1-1.15 7.25-5l-1.85.15-2.5.2m-2.9 4.65-.1.05h-.05q-1.75.65-3.75.5M48.6 56.4q7.25-.3 13.8 2.15-4.65 5.3-11.4 6.25" fill="none" stroke="#bd7334" stroke-linecap="round" stroke-linejoin="round" stroke-width="2"/></g><g id="I"><path d="m123.65 14.45-.9 1.95-.9 2.25-.7 2.15-.6 2.8q-.25 1.7-.2 3.4l.25 1.9q.4 1.55 1.65 2.7-3.85 3.3-5.55 8-2.1 6 1.65 10.4 1.5 1.8 3.45 2.95 2.05 1.2 4.05 1.6-2.5 3.2-3.05 7.6-7.65.15-14.75 4.25-4.75 2.75-8.25 6.9v-.1l4.75-6.55 1-.9Q109.75 62 115 60l2.8-1.05.1-.05q.15-1.75-2.1-2.25-1.55-.35-2.2-1.25l.3-.3-.15-.15q-.1.05-.3.2-.3-.6-.3-1.35 0-1.4 1.05-3.5t1.05-2.95q0-.95-1.65-2.05l-.3-.2q-1.35-.95-1.35-1.6 0-2.25 2.9-6.6l2.9-4.75v-.35l.4-.8-.2-.25-.4.45q-.3-.75-1.25-1.25-1.45-.75-1.45-1.8 0-1.2 1.1-3.2l1.4-2.1q-3.7 2.9-6.95 6.2-3.8 3.75-6.75 8.25-2.9 4.35-5.6 9.05l-1.1 1.85q.9-4.8 3-9.35Q104.6 28.7 112.8 21.3q5.1-4.55 10.85-6.85" fill="#697cfe" fill-rule="evenodd" transform="translate(-95.3 -12)"/><path d="M125.85 54.55q-2-.4-4.05-1.6-1.95-1.15-3.45-2.95-3.75-4.4-1.65-10.4 1.7-4.7 5.55-8-1.25-1.15-1.65-2.7l-.25-1.9q-.05-1.7.2-3.4l.6-2.8.7-2.15.9-2.25.9-1.95q2.25-.9 4.6-1.45-6.8 5.9-4.75 15.4.55 2.7 2.45 4.25-7.4 4.25-8.25 12.6-.2 1.9 1.1 3.2 4.3 4.4 10.1 3.15-1.8 1.3-3.05 2.95" fill="#81ffff" fill-rule="evenodd" transform="translate(-95.3 -12)"/><path d="m117.55 31.2.4-.45.2.25-.4.8-3.55 3.3q-4.1 3.5-5.65 3.5-.7 0-.7-.7 0-1.8 2.3-5.05 2.05-2.9 3.2-3.6l.3.1q-2.3 1.5-3.55 3.95-.4.7-1.65 4.15v.45q5.5-2.65 9.1-6.7m-4.1 23.95q.2-.15.3-.2l.15.15-.3.3q-4.5 4.65-6.25 4.65-1.15 0-1.55-1.3l-.2-1.4q0-2.85 2.15-6.6 2.4-4.15 5.55-5.6-3.2 3-5 6.05-1.95 3.3-1.95 6.15l.15 1.05q.2.9.6.9 1.15 0 3.5-1.9l2.85-2.25" fill="#5030b7" fill-rule="evenodd" transform="translate(-95.3 -12)"/><path d="m96.95 48.2 1.1-1.85q2.7-4.7 5.6-9.05 2.95-4.5 6.75-8.25 3.25-3.3 6.95-6.2l-1.4 2.1q-1.1 2-1.1 3.2 0 1.05 1.45 1.8.95.5 1.25 1.25-3.6 4.05-9.1 6.7v-.45q1.25-3.45 1.65-4.15 1.25-2.45 3.55-3.95l-.3-.1q-1.15.7-3.2 3.6-2.3 3.25-2.3 5.05 0 .7.7.7 1.55 0 5.65-3.5l3.55-3.3v.35l-2.9 4.75q-2.9 4.35-2.9 6.6 0 .65 1.35 1.6l.3.2q1.65 1.1 1.65 2.05 0 .85-1.05 2.95t-1.05 3.5q0 .75.3 1.35l-2.85 2.25q-2.35 1.9-3.5 1.9-.4 0-.6-.9l-.15-1.05q0-2.85 1.95-6.15 1.8-3.05 5-6.05-3.15 1.45-5.55 5.6-2.15 3.75-2.15 6.6l.2 1.4q.4 1.3 1.55 1.3 1.75 0 6.25-4.65.65.9 2.2 1.25 2.25.5 2.1 2.25l-.1.05L115 60q-5.25 2-9.45 5.75l-1 .9-4.75 6.55q-2.7-7.05-3.35-14.25-.45-5.55.5-10.75" fill="#6051e3" fill-rule="evenodd" transform="translate(-95.3 -12)"/><path d="M28.35 2.45Q22.6 4.75 17.5 9.3 9.3 16.7 4.65 26.85q-2.1 4.55-3 9.35-.95 5.2-.5 10.75.65 7.2 3.35 14.25v.1q3.5-4.15 8.25-6.9 7.1-4.1 14.75-4.25.55-4.4 3.05-7.6 1.25-1.65 3.05-2.95-5.8 1.25-10.1-3.15-1.3-1.3-1.1-3.2.85-8.35 8.25-12.6-1.9-1.55-2.45-4.25Q26.15 6.9 32.95 1q-2.35.55-4.6 1.45z" fill="none" stroke="#5030b7" stroke-linecap="round" stroke-linejoin="round" stroke-width="2"/></g><g id="J" fill-rule="evenodd"><path d="M77.7 80.45v.2l.55 1.25q.5.95 1.25 1.35l1.85-.05 1.1-.85.55-.95.3-1.6v-1.15l-.25-1.95-.25-.9.85.7 1.1.65 1.4.4q.85.05 1.25-.65l.6-1.45q1.45 3.55 2.15 7.35 1.1 5.95-2.2 7.85-3.35 1.85-7.7 1.85-4.4 0-6.65-3.35-1.65-2.45-2.55-6.25.9-.85 2.2-1.35v.05q.75 1.2 1.8 1.2t1.75-1.2l.55-1.1.35-.05m3.7 10.6q2.95 0 5-1.25 2.1-1.25 2.35-5.3.25-4.1-1.4-4.05-1.7.05-2 1.1.6 2.25-1.5 4.25-2.1 1.95-4.3.9-2.25-1.05-3.15-2.3-2.9-.75-2.7 1.5.2 2.3 2.5 3.75 2.25 1.4 5.2 1.4m-45.05.7q.75-1.1 2.15-1.7l.7-.45q0 .8.6 1.3.55.45 1.3.45.7 0 1.15-.55.8-2.3 0-4.7l-.2-.65.8 1.05 2.9-.15 1.15 3.3q1.05 3.6.7 4.95-.4 1.3-1.6 2.5-1.25 1.15-3.75 1.7-2.55.55-4.65-3.9l-1.25-3.15m3.8.05q-1.8-.7-2.05.9-.3 1.6 1.3 3.2 1.6 1.55 3.25 1.6 1.65 0 2.8-.95t1-3.35q-.15-2.45-1.3-3.35-1.2-.9-1.35 1.45-.15 2.3-1.45 2.6-1.3.25-2.2-2.1" fill="#4930b5" transform="translate(-29.5 -65.4)"/><path d="m77.45 80.1.1-1.3q0-1.65-.75-2.85-.7-1.15-1.75-1.15t-1.8 1.15q-.7 1.2-.7 2.85 0 1.6.7 2.75-1.3.5-2.2 1.35l-.6-3.15q-.85-6.05 2.15-8.45 2.95-2.45 6.8-3.75 3.85-1.35 6.75 4l1.85 3.9-.6 1.45q-.4.7-1.25.65l-1.4-.4-1.1-.65-.85-.7.25.9.25 1.95v1.15l-.3 1.6-.55.95-1.1.85-1.85.05q-.75-.4-1.25-1.35l-.55-1.25v-.2l-.25-.35m4.25-1.35q-.35-.35-.85-.35t-.9.35q-.35.4-.35.9t.35.85q.4.4.9.4t.85-.4q.4-.35.4-.85t-.4-.9m-35.95 7.6-2.9.15-.8-1.05.2.65q.8 2.4 0 4.7-.45.55-1.15.55-.75 0-1.3-.45-.6-.5-.6-1.3l-.7.45q-1.4.6-2.15 1.7-1.1-3.15-1.65-6.7-.8-5.4.85-5.65 1.6-.3 4.55.5 2.9.8 4.3 3.45l1.35 3m-5.55 2.8q.3.3.7.3l.7-.3.3-.6-.3-.65q-.3-.25-.7-.25-.4 0-.7.25-.3.3-.3.65 0 .35.3.6m-.4-4.3q0-1.1-.65-1.9-.65-.8-1.55-.8t-1.55.8q-.65.8-.65 1.9 0 1.1.65 1.9.65.8 1.55.8t1.55-.8q.65-.8.65-1.9" fill="#2b1495" transform="translate(-29.5 -65.4)"/><path d="M73.25 81.55q-.7-1.15-.7-2.75 0-1.65.7-2.85.75-1.15 1.8-1.15t1.75 1.15q.75 1.2.75 2.85l-.1 1.3-.1.4-.55 1.1q-.7 1.2-1.75 1.2t-1.8-1.2v-.05m8.45-2.8q.4.4.4.9t-.4.85q-.35.4-.85.4t-.9-.4q-.35-.35-.35-.85t.35-.9q.4-.35.9-.35t.85.35m-41.9 6.1q0 1.1-.65 1.9-.65.8-1.55.8t-1.55-.8q-.65-.8-.65-1.9 0-1.1.65-1.9.65-.8 1.55-.8t1.55.8q.65.8.65 1.9m.4 4.3q-.3-.25-.3-.6t.3-.65q.3-.25.7-.25.4 0 .7.25l.3.65-.3.6-.7.3q-.4 0-.7-.3" fill="#fff" transform="translate(-29.5 -65.4)"/><path d="M81.4 91.05q-2.95 0-5.2-1.4-2.3-1.45-2.5-3.75-.2-2.25 2.7-1.5.9 1.25 3.15 2.3 2.2 1.05 4.3-.9 2.1-2 1.5-4.25.3-1.05 2-1.1 1.65-.05 1.4 4.05-.25 4.05-2.35 5.3-2.05 1.25-5 1.25m-41.25.75q.9 2.35 2.2 2.1 1.3-.3 1.45-2.6.15-2.35 1.35-1.45 1.15.9 1.3 3.35.15 2.4-1 3.35-1.15.95-2.8.95-1.65-.05-3.25-1.6-1.6-1.6-1.3-3.2.25-1.6 2.05-.9" fill="#9aedf1" transform="translate(-29.5 -65.4)"/><path d="m91.1 69.15-7.45-.45q-3.6.4-8.55 3.8-5 3.4-9.8 7.05l-.75.05q2.25-4.35 5.8-7.35t9.4-5.85q5.8-2.85 11.15 2.35l.2.4m-54.55 11.9-3.85-.7q-1.85 1-3.2 1.45.4-.8 1.75-2.5 1.3-1.75 1.75-1.95l1.55.1 3.3 1 3.35 1.1q1.05.4 3.15 1.35 2.1.9 2.05 1.7-.15.2-.55.2-2.9-.9-9.3-1.75" fill="#2b1495" transform="translate(-29.5 -65.4)"/><path d="M39.65 100.6q-.85 0-1.75-1-.75-.85-.75-1.1 0-.35.3-.35t1.05.8l1.15.75q.7 0 4.25-1.9 4.25-2.2 5.45-2.65l.05.2q0 .4-4.3 2.8-4.4 2.45-5.45 2.45M90.2 89.35l1.05-1.15 1.15-1.75.05.7q0 2.05-1 3.3l-2.55.95-9.35 1.4-7.35.45q0-.7 6.2-1.45l8.8-1.55 3-.9" fill="#4930b5" transform="translate(-29.5 -65.4)"/></g><g id="L"><path d="M8.55 8.3Q7.05 9.8 5 9.8T1.45 8.3Q0 6.9 0 4.8q0-2.05 1.45-3.55Q2.95-.15 4.75 0q1.8.1 3.45 1.55Q9.85 2.9 9.95 4.9q.1 2-1.4 3.4" fill="#d2f2fe" fill-rule="evenodd" transform="translate(1 1)"/><path d="M9.55 9.3Q8.05 10.8 6 10.8T2.45 9.3Q1 7.9 1 5.8q0-2.05 1.45-3.55Q3.95.85 5.75 1q1.8.1 3.45 1.55 1.65 1.35 1.75 3.35.1 2-1.4 3.4z" fill="none" stroke="#70b4d5" stroke-linecap="round" stroke-linejoin="round" stroke-width="2"/><path d="M3.15 4.8q0-.65.45-1.05.4-.45 1-.45.55 0 1 .45.4.4.4 1.05t-.4 1.05q-.45.45-1 .45-.6 0-1-.45-.45-.4-.45-1.05" fill="#a8c2ff" fill-rule="evenodd" transform="translate(1 1)"/><path d="m4.95 5.35-.7.3q-.45 0-.75-.3l-.25-.65.25-.65q.3-.3.75-.3.4 0 .7.3l.3.65-.3.65" fill="#fff" fill-rule="evenodd" transform="translate(1 1)"/></g><g id="M"><path d="M8.9 9.3q-1.05 1.05-1.05 2.65 0 1.55 1.05 2.6t2.5 1.05q1.45 0 2.5-1.05t1.05-2.6q0-1.6-1.05-2.65-1.05-1-2.5-1t-2.5 1M3.65 3.2Q7.35-.3 11.8.05q4.4.3 8.5 3.8 4.05 3.4 4.3 8.4.25 4.85-3.4 8.35-3.65 3.65-8.75 3.65t-8.8-3.65Q0 17.1 0 12q0-5.15 3.65-8.8" fill="#d2f2fe" fill-rule="evenodd" transform="translate(1 1)"/><path d="M4.65 4.2Q8.35.7 12.8 1.05q4.4.3 8.5 3.8 4.05 3.4 4.3 8.4.25 4.85-3.4 8.35-3.65 3.65-8.75 3.65t-8.8-3.65Q1 18.1 1 13q0-5.15 3.65-8.8z" fill="none" stroke="#70b4d5" stroke-linecap="round" stroke-linejoin="round" stroke-width="2"/><path d="M16.4 16.1q-1.75 1.8-4.3 1.8t-4.35-1.8Q6 14.35 6 11.8t1.75-4.35Q9.55 5.7 12.1 5.7t4.3 1.75q1.8 1.8 1.8 4.35t-1.8 4.3" fill="#a8c2ff" fill-rule="evenodd" transform="translate(1 1)"/><path d="M8.5 12.85q-.85 1.25-2.1 1.25t-2.15-1.25q-.85-1.2-.85-2.95 0-1.75.85-3 .9-1.2 2.15-1.2t2.1 1.2q.9 1.25.9 3t-.9 2.95m3.7 5.6-1 .45q-.6 0-1-.45-.4-.5-.4-1.15 0-.7.4-1.15.4-.45 1-.45.55 0 1 .45.4.45.4 1.15 0 .65-.4 1.15" fill="#fff" fill-rule="evenodd" transform="translate(1 1)"/></g><g id="N"><path d="M4.95 5.15q-.6.55-.6 1.45 0 .85.6 1.45t1.4.6q.8 0 1.4-.6.55-.6.55-1.45 0-.9-.55-1.45-.6-.55-1.4-.55-.8 0-1.4.55m-2.9-3.4Q4.1-.2 6.55 0 9 .15 11.3 2.1q2.2 1.9 2.35 4.65.15 2.7-1.85 4.65-2.05 2.05-4.9 2.05-2.8 0-4.85-2.05Q0 9.45 0 6.65q0-2.85 2.05-4.9" fill="#d2f2fe" fill-rule="evenodd" transform="translate(1 1)"/><path d="M3.05 2.75Q5.1.8 7.55 1q2.45.15 4.75 2.1 2.2 1.9 2.35 4.65.15 2.7-1.85 4.65-2.05 2.05-4.9 2.05-2.8 0-4.85-2.05Q1 10.45 1 7.65q0-2.85 2.05-4.9z" fill="none" stroke="#70b4d5" stroke-linecap="round" stroke-linejoin="round" stroke-width="2"/><path d="M9.1 8.9q-.95 1-2.35 1-1.45 0-2.45-1-.95-.95-.95-2.4 0-1.4.95-2.4 1-.95 2.45-.95 1.4 0 2.35.95 1 1 1 2.4 0 1.45-1 2.4" fill="#a8c2ff" fill-rule="evenodd" transform="translate(1 1)"/><path d="M4.75 7.15q-.45.7-1.15.7t-1.2-.7q-.45-.65-.45-1.65 0-.95.45-1.65.5-.65 1.2-.65t1.15.65q.5.7.5 1.65 0 1-.5 1.65M6.8 10.2l-.55.25-.55-.25-.2-.6.2-.65q.25-.25.55-.25.35 0 .55.25l.25.65-.25.6" fill="#fff" fill-rule="evenodd" transform="translate(1 1)"/></g><g id="O"><path d="M8.4 8.75q-1 1-1 2.5t1 2.5q1 .95 2.35.95t2.35-.95q1-1 1-2.5t-1-2.5q-1-.9-2.35-.9t-2.35.9M3.45 3q3.5-3.3 7.7-2.95 4.15.25 8 3.55Q23 6.85 23.2 11.55q.25 4.6-3.2 7.9-3.45 3.45-8.25 3.45t-8.3-3.45Q0 16.15 0 11.3 0 6.45 3.45 3" fill="#d2f2fe" fill-rule="evenodd" transform="translate(1 1)"/><path d="M4.45 4q3.5-3.3 7.7-2.95 4.15.25 8 3.55Q24 7.85 24.2 12.55q.25 4.6-3.2 7.9-3.45 3.45-8.25 3.45t-8.3-3.45Q1 17.15 1 12.3 1 7.45 4.45 4z" fill="none" stroke="#70b4d5" stroke-linecap="round" stroke-linejoin="round" stroke-width="2"/><path d="M15.5 15.2q-1.7 1.7-4.1 1.7-2.4 0-4.1-1.7-1.65-1.65-1.65-4.05Q5.65 8.7 7.3 7 9 5.35 11.4 5.35q2.4 0 4.1 1.65 1.7 1.7 1.7 4.15 0 2.4-1.7 4.05" fill="#a8c2ff" fill-rule="evenodd" transform="translate(1 1)"/><path d="M8.05 12.2q-.8 1.2-2 1.2t-2-1.2q-.8-1.1-.8-2.8 0-1.65.8-2.8t2-1.15q1.2 0 2 1.15.85 1.15.85 2.8 0 1.7-.85 2.8m3.5 5.2q-.4.45-.95.45-.55 0-.95-.45-.4-.45-.4-1.1 0-.6.4-1.05.4-.45.95-.45.55 0 .95.45.35.45.35 1.05 0 .65-.35 1.1" fill="#fff" fill-rule="evenodd" transform="translate(1 1)"/></g><g id="P"><path d="M8.55 8.3Q7.05 9.8 5 9.8T1.45 8.3Q0 6.9 0 4.8q0-2.05 1.45-3.55Q2.95-.15 4.75 0q1.8.1 3.45 1.55Q9.85 2.9 9.95 4.9q.1 2-1.4 3.4" fill="#d2f2fe" fill-rule="evenodd" transform="translate(1 1)"/><path d="M9.55 9.3Q8.05 10.8 6 10.8T2.45 9.3Q1 7.9 1 5.8q0-2.05 1.45-3.55Q3.95.85 5.75 1q1.8.1 3.45 1.55 1.65 1.35 1.75 3.35.1 2-1.4 3.4z" fill="none" stroke="#70b4d5" stroke-linecap="round" stroke-linejoin="round" stroke-width="2"/><path d="M3.15 4.8q0-.65.45-1.05.4-.45 1-.45.55 0 1 .45.4.4.4 1.05t-.4 1.05q-.45.45-1 .45-.6 0-1-.45-.45-.4-.45-1.05" fill="#a8c2ff" fill-rule="evenodd" transform="translate(1 1)"/><path d="m4.95 5.35-.7.3q-.45 0-.75-.3l-.25-.65.25-.65q.3-.3.75-.3.4 0 .7.3l.3.65-.3.65" fill="#fff" fill-rule="evenodd" transform="translate(1 1)"/></g><linearGradient gradientTransform="matrix(0 .0508 -.3002 0 76.75 73.95)" gradientUnits="userSpaceOnUse" id="Q" spreadMethod="pad" x1="-819.2" x2="819.2"><stop offset="0" stop-color="#9f68f0"/><stop offset="1" stop-color="#b962e0"/></linearGradient><linearGradient gradientTransform="matrix(0 .014 -.3002 0 50.8 113.25)" gradientUnits="userSpaceOnUse" id="S" spreadMethod="pad" x1="-819.2" x2="819.2"><stop offset="0" stop-color="#8562fd"/><stop offset="1" stop-color="#934df8"/></linearGradient><linearGradient gradientTransform="matrix(-.0001 -.0229 .2999 -.0009 -85.55 118.75)" gradientUnits="userSpaceOnUse" id="T" spreadMethod="pad" x1="-819.2" x2="819.2"><stop offset="0" stop-color="#ac80f5"/><stop offset="1" stop-color="#93a7fd"/></linearGradient><linearGradient gradientTransform="matrix(0 .0508 -.3002 0 58.15 118.75)" gradientUnits="userSpaceOnUse" id="V" spreadMethod="pad" x1="-819.2" x2="819.2"><stop offset="0" stop-color="#9f68f0"/><stop offset="1" stop-color="#b962e0"/></linearGradient><linearGradient gradientTransform="matrix(-.0001 -.0229 .2999 -.0009 -85.55 118.75)" gradientUnits="userSpaceOnUse" id="W" spreadMethod="pad" x1="-819.2" x2="819.2"><stop offset="0" stop-color="#ac80f5"/><stop offset="1" stop-color="#93a7fd"/></linearGradient><linearGradient gradientTransform="matrix(0 .014 -.3002 0 50.8 113.25)" gradientUnits="userSpaceOnUse" id="X" spreadMethod="pad" x1="-819.2" x2="819.2"><stop offset="0" stop-color="#8562fd"/><stop offset="1" stop-color="#934df8"/></linearGradient><path d="M26.55 12.05Q10.05 16.3-13.3 16.3t-39.9-4.25q-16.5-4.3-16.5-10.3 0-6.05 16.5-10.3 16.55-4.3 39.9-4.3 23.35 0 39.85 4.3Q43.1-4.3 43.1 1.75q0 6-16.55 10.3" fill-opacity=".353" fill-rule="evenodd" transform="translate(69.7 12.85)" id="b"/><path d="m33.55 107.85-.1.25q-3.1 3.5-8 1.5l-.2-.15v-.15q4.65 1.2 8.25-1.5l.05.05" fill="#af6048" fill-rule="evenodd" transform="translate(-25.25 -107.8)" id="w"/><path d="M54.65 101.1q4.75.35 8.6-2.5l.85-.6q-1.05 2.4-3.65 3.3l-3.4.7-1.95-.25-.45-.65" fill="#bd7357" fill-rule="evenodd" transform="translate(-54.65 -98)" id="K"/><radialGradient cx="0" cy="0" gradientTransform="matrix(0 .0035 -.0062 0 54.4 109.1)" gradientUnits="userSpaceOnUse" id="R" r="819.2" spreadMethod="pad"><stop offset=".541" stop-color="#efa69d" stop-opacity=".933"/><stop offset="1" stop-color="#ec948a" stop-opacity="0"/></radialGradient><radialGradient cx="0" cy="0" gradientTransform="matrix(0 .0028 -.005 0 13.5 111.45)" gradientUnits="userSpaceOnUse" id="U" r="819.2" spreadMethod="pad"><stop offset=".541" stop-color="#efa69d" stop-opacity=".933"/><stop offset="1" stop-color="#ec948a" stop-opacity="0"/></radialGradient></defs></svg>