<svg xmlns:ffdec="https://www.free-decompiler.com/flash" xmlns:xlink="http://www.w3.org/1999/xlink" ffdec:objectType="frame" height="90" width="90" xmlns="http://www.w3.org/2000/svg"><use ffdec:characterId="23" height="132.5" transform="matrix(.6172 0 0 .6179 -1.08 6.643)" width="147.95" xlink:href="#a"/><defs><g id="a" transform="translate(1.75 -10.75)"><use ffdec:characterId="1" height="9.8" transform="matrix(1.2932 0 0 2.4364 16.364 119.312)" width="55.5" xlink:href="#b"/><use ffdec:characterId="3" height="82.95" transform="translate(40.35 10.8)" width="55.65" xlink:href="#c"/><use ffdec:characterId="5" height="90.9" transform="translate(.9 27.05)" width="48.25" xlink:href="#d"/><use ffdec:characterId="7" height="30.05" transform="translate(32.25 59.65)" width="20.1" xlink:href="#e"/><use ffdec:characterId="9" height="44.6" transform="translate(22.3 82.8)" width="31.4" xlink:href="#f"/><use ffdec:characterId="11" height="57.1" transform="translate(52.15 81.9)" width="28.05" xlink:href="#g"/><use ffdec:characterId="13" height="41.95" transform="translate(36.25 60.9)" width="34.5" xlink:href="#h"/><use ffdec:characterId="18" height="53.5" transform="translate(7.35 13.05)" width="66.5" xlink:href="#i"/><use ffdec:characterId="20" height="101.95" transform="translate(67 26.45)" width="74.55" xlink:href="#j"/><use ffdec:characterId="22" height="42.25" transform="translate(58.7 55.65)" width="26.7" xlink:href="#k"/></g><g id="m" fill-rule="evenodd"><path d="M.7 26.7H.55l-.4-.2-.15-.45Q1.4 12.8 14.15.15l.4-.15.4.15.2.4v7.7q5.7-3.3 14.95-4.05H30l10.75-1.6.35.05.3.25.05.35q-.2 2.9-4.85 8.8 10.6 3.85 18 10.45l.2.35-.1.4-.3.25-10.85 3.4.25.25q8.7 8.45 11.85 19.9v.35l-.2.3-.15.05h-9.6l.55 22.65-.1.35-.25.2-.3.05-7.35-1-8.35 7.1-.3.15-.35-.05-.2-.25-.65-1.05-3 6.7-.25.3-.35.05-.3-.15-9.6-8.6-.2-.4.05-.2.1-.2.4-.2.45.15 7.6 6.8 1.4 1.25 3.1-6.85.05-.15.3-.3h.5l.25.25.8 1.4 8-6.8.25-.1.25-.05 2.55.35 4.3.6-.55-22.55.05-.3.25-.2.25-.1h9.3Q51 35.45 42.25 27.3l-.25-.2-.2-.35.1-.4.3-.25 10.85-3.4-3.8-2.95Q43.4 15.7 35.85 13l-.4-.1-.3-.25-.1-.35.15-.3.25-.35q4-5 4.7-7.8l-1.2.2-1.3.2-7.45 1.1h-.05q-9.6.8-15.25 4.4l-.4.1-.2-.05-.15-.15-.15-.4V2l-1.6 1.7q-9.25 10.15-11 20.75l-.25 1.75-.2.4-.25.1" fill="#4b3c00"/><path d="M1.4 24.45q1.75-10.6 11-20.75l-.5 4.6-3 9.55V12.9L5 23.05l-3.6 1.4m4.5-.5q3.95-8 12.35-11.75l7.55-3.05q-4.65 3.2-8.4 8.95l7.6-4.2q-7.7 5-9.7 11l16.6-5.35 8.25-2-8.6 5.65-11.9 6.8-1.5.85-12.25-6.9M31.25 32 41 35.5l-3.1-.15-8.2-.35v-2.25l1.55-.75" fill="#d4fd39"/><path d="m.7 26.7.25-.1.2-.4.25-1.75 3.6-1.4L8.9 12.9v4.95l3-9.55-.65 7.2 3.05-5.7.2.05.4-.1q5.65-3.6 15.25-4.4h.05l7.45-1.1-2.75 4.9q-2.55 5.8-7.55 8.95 3.85-1.45 8.5-5.1 7.55 2.7 13.4 6.75l-6.05 4.2-8.9 4 7.95-.65q8.75 8.15 12.1 19.3h-9.3l-.25.1-.25.2-.05.3.55 22.55-4.3-.6-2.2-16.9L45 39.75l-7.1-4.4 3.1.15-9.75-3.5q2-.8 5.25-1.4H26.1l6.7-7.65-9.3 5.85-3.85 1.2 11.9-6.8 8.6-5.65-8.25 2-16.6 5.35q2-6 9.7-11l-7.6 4.2q3.75-5.75 8.4-8.95l-7.55 3.05Q9.85 15.95 5.9 23.95l-.3.5-3.45 7.1L.7 26.7" fill="#948a02"/><path d="M12.4 3.7 14 2v7.25l.15.4.15.15-3.05 5.7.65-7.2.5-4.6m25.25.55 1.3-.2-3.5 7.6-.25.35-.15.3.1.35.3.25.4.1q-4.65 3.65-8.5 5.1 5-3.15 7.55-8.95l2.75-4.9m11.6 15.5 3.8 2.95-10.85 3.4-.3.25-.1.4.2.35.25.2-7.95.65 8.9-4 6.05-4.2m-8.5 49.4-2.55-.35-.25.05-.25.1-7.45 5.15h-2.1l-.3.3-.05.15-4.5 5.6-7.6-6.8-.45-.15-.4.2-.1.2-12.6-42.05 3.45-7.1.3-.5 12.25 6.9 1.5-.85 3.85-1.2 9.3-5.85-6.7 7.65h10.4q-3.25.6-5.25 1.4l-1.55.75V35l8.2.35 7.1 4.4-6.45 12.5 2.2 16.9" fill="#604d00"/><path d="m38.95 4.05 1.2-.2q-.7 2.8-4.7 7.8l3.5-7.6m-1.25 64.9-8 6.8-.8-1.4-.25-.25h1.6l7.45-5.15m-9.9 5.6-3.1 6.85-1.4-1.25 4.5-5.6" fill="#cda5e7"/></g><g id="n" fill-rule="evenodd"><path d="M33.15 11.45h.15l.1.05.1.1v.15L33 13.6l-.55 2.1-.3 1.3 5.75 9.85.65.2 5.65 1.45 1.85 2.45-9-3.05-5.2-9.85-.5 1.95-.5 1.95V22l-.35.55 2.7 9.35v.15l-.3.9 3.65 5.55 5.15-.5 3.9-4h1.2l-4.85 4.5-2.2.45.5 13.95-2.15 4.85-6.1 3.5q-.55-.45-1.1-.8L28.6 48.4l-.05.25-.05.1-4.65 13.2-.15.2v.25l-1.4 4-.05.1Q13.85 81.55 4.7 90.75l-.35.15-.3-.1-.25-.25v-.35q1.6-4.6 2.75-9.85 1.35-6.5 2-14l.2-2.4-8.05 2.2H.35l-.3-.25-.05-.35.2-.3 1.35-1.35q2-2.25 3.3-5.1 1.2-2.65 1.75-5.9h-.05L9.6 34.5l-4.35-2.1-.25-.2v-.4l.2-.3 3.55-2.45L17.6 18.4l.35-.2.4.15.05.05.9-.2 1.55-.35 1.75-.45.55-.1h.15l.05-.05.65-.15 8.25-5.1.9-.55M25.8 16.5l-1.6 1h-.05l-.65.2h-.15l-.1.05-4.75 1.15-.1.2-8.9 10.75-.05.05-1.2.85-1.7 1.15 3.85 1.8.85.4.05.05 11.8-6.25h.1l.1-.1 5.1-2.7 1.65-2.7.05-.05.35-.55 2.45-9.65-7.1 4.35m-5.75 34.95 2.95-2.9.15-.1.05-.1 2.65-3.2 1.25-2 2.7-10.75-1.4-6.8-4.9 2.65h-.15l-.05.05-11.8 6.25-.05.25-.3.25h-.4l-.15-.1-.25 1.5L7.6 53.1q-.55 3.2-1.7 5.95 1.75.55 6.45-1.3 4.45-3.3 7.7-6.3m7.7-3.75 4-13.55q.05-.25.25-.35l.15-.05.55-1.8-2.5-8.85-1.35 2.25 1.45 7v.1L27.6 43l-.1.35v.05l-1.8 2.7-2.15 2.6-.1.05-.1.1q-3.95 4.25-10.75 9.3l-.05.05q-5 1.95-6.85 1.3-1 2.1-2.35 3.9L2.3 64.65l6.9-1.9.6-.2q6.35-4.15 12.45-9.45l.35-.3.15-.1.2-.2 2.15-2 2.4-2.15.1-.15.15-.5m-.15.5.05-.05-.05.05m10.3-4.95.15-3.95-2 .4-3.3-6.25-.15.45.1.15.05.35-.85 2.8-.3 1 .2 7L34.75 59l2.8-1.75.35-14m-24.95 30.3 5.3-6.85 4.15-12.35q-5.95 5.1-12.15 9.1l-.15.1-.3.1-.15 2.1Q9.05 73 7.8 79.4l5.15-5.85m18.8-26.5-.4-1.85v-6.1l-1.7 5.7 1.05 6.45 1.5 9.35 2.25-1.4-2.7-12.15m-3.35 1.1.1.1.05.25-.15-.35m-4.95 5.3-.35.3-1.45 4.35-1.05 3.05-1.95 5.75v.1l-6.25 7.9-4.75 5.25-.1.4-2 7.85.05-.05q8.2-8.75 15.7-22.3l1.4-4 .2-.2v-.25l.9-2.6.95-2.75 1.95-5.45-3.25 2.65M38.55 41l-.7 16.05 2.05-4.65-.5-10.85-.15-2.5-.65.15-.05 1.8" fill="#600219"/><path d="m19.3 18.2 3.9-8.05q5.1-6.1 9.85-7.75l1.55-.55-5 3.65-3.65 4.65-3.05 3.9-2.05 3.8-1.55.35" fill="#fff"/><path d="m20.85 17.85 2.05-3.8 3.05-3.9-3.35 7.25-1.75.45" fill="#675f80"/><path d="m38.2.35-.4.6.2-.35.2-.25m-3.6 1.5 2.7-1-2.65 4.45-2.4 6.7L24 17.1l-.65.15-.05.05h-.15l-.55.1 3.35-7.25L29.6 5.5l5-3.65" fill="#9a8fae"/><path d="m17.6 18.4 5.2-9.6q7.1-7.2 15-8.8h.6l-.2.35-.2.25-.2.35-.05.05h-.05l-2.95 5.2-1.6 5.25-.9.55 2.4-6.7L37.3.85l-2.7 1-1.55.55q-4.75 1.65-9.85 7.75l-3.9 8.05-.9.2-.05-.05-.4-.15-.35.2" fill="#514a69"/><path d="m38.55 27.05-.65-.2L32.15 17l.3-1.3 6.1 11.35m-30.3 3.7 1.2-.85.05-.05 8.9-10.75.1-.2 4.75-1.15.1-.05h.15l.65-.2h.05l1.6-1 1.25 5.95-1 .65-7.3 4.65-7.4 4-3.1-1M3.35 63.4q1.35-1.8 2.35-3.9 1.85.65 6.85-1.3l.05-.05q6.8-5.05 10.75-9.3l.1-.1.1-.05 2.15-2.6-.35 2.8-6 6.1q-5.3 4.4-10.75 6.9l-5.25 1.5M5.6 88.35l-.05.05 2-7.85.1-.4 4.75-5.25 6.25-7.9v-.1l1.95-5.75 1.45-1-2.55 7.25-8.7 13.95-5.2 7" fill="#fef459"/><path d="m33 13.6 11.2 14.9-5.65-1.45-6.1-11.35.55-2.1m13.05 17.35 2.2 3.05H38.9l-5.2-7.15L31.35 20l.5-1.95 5.2 9.85 9 3.05M25.8 16.5l7.1-4.35-2.45 9.65-.35.55-.05.05-1.65 2.7-5.1 2.7-.1.1h-.1l-11.8 6.25-.05-.05 14.8-11 1-.65-1.25-5.95M27.6 43l2.7-10.55v-.1l-1.45-7 1.35-2.25 2.5 8.85-.55 1.8-.15.05q-.2.1-.25.35l-4 13.55-.15-4.7m-2.5 7.5-2.15 2-.2.2-.15.1-.35.3q-6.1 5.3-12.45 9.45l-.6.2-6.9 1.9 1.05-1.25 5.25-1.5q5.45-2.5 10.75-6.9l6-6.1-.25 1.6m6.65-3.45 2.7 12.15-2.25 1.4-1.5-9.35 1.05-4.2m-8.3 6.4 3.25-2.65-1.95 5.45-3.1 1.85 1.45-4.35.35-.3M23.8 59l-.9 2.6v.25l-.2.2-1.4 4Q13.8 79.6 5.6 88.35l5.2-7 8.7-13.95 2.55-7.25L23.8 59m14.75-18 .85.55.5 10.85-2.05 4.65.7-16.05" fill="#b26602"/><path d="m11.25 34.1-.85-.4-3.85-1.8 1.7-1.15 3.1 1 7.4-4 7.3-4.65-14.8 11M45.6 34l-3.9 4-5.15.5-3.65-5.55.3-.9v-.15l-2.7-9.35.35-.55v-.05l.5-1.95 2.35 6.85L38.9 34h6.7M27.75 47.7l-.15.5-.1.15-2.4 2.15.25-1.6.35-2.8 1.8-2.7v-.05l.1-.35.15 4.7m2.95 3.55-1.05-6.45 1.7-5.7v6.1l.4 1.85-1.05 4.2m-5.95 5L23.8 59l-1.75 1.15-1.45 1 1.05-3.05 3.1-1.85m14.65-14.7-.85-.55.05-1.8.65-.15.15 2.5" fill="#8e3611"/><path d="M20.05 51.45q-3.25 3-7.7 6.3-4.7 1.85-6.45 1.3 1.15-2.75 1.7-5.95l2.75-16.65 10-4.7q1.3 8.55-.3 19.7m17.85-8.2-.35 14-2.8 1.75-2.95-13.8-.2-7 .3-1q1.9 4.35 6 6.05m-24.95 30.3L7.8 79.4Q9.05 73 9.65 65.75l7.9-4.5-4.6 12.3" fill="#b21600"/><path d="m10.35 36.45.25-1.5.15.1h.4l.3-.25.05-.25 11.8-6.25.05-.05h.15l4.9-2.65 1.4 6.8-2.7 10.75-1.25 2-2.65 3.2-.05.1-.15.1-2.95 2.9q1.6-11.15.3-19.7l-10 4.7m21.55.75.85-2.8-.05-.35-.1-.15.15-.45 3.3 6.25 2-.4-.15 3.95q-4.1-1.7-6-6.05M9.65 65.75l.15-2.1.3-.1.15-.1q6.2-4 12.15-9.1L18.25 66.7l-5.3 6.85 4.6-12.3-7.9 4.5" fill="#7f0221"/></g><g id="o" fill-rule="evenodd"><path d="M8.85 18.95q-1.45-.55-2.7-1.75v-4.65l3.75-2 .5.2.05.05-1.2 3.85.65 1.9-1.05 2.4m-2.7 4-2.35-1.6q-.2-3.2.45-5.95l1.1-.45.4 2.25.3.5.5.5 1.4 2.05-1.8 2.7" fill="#d2986d"/><path d="m10.45 10.8 3.6 1.7.5 5.05-3.75 1.8-1.95-.4 1.05-2.4-.65-1.9 1.2-3.85m-4.3 12.15 1.8-2.7-1.4-2.05Q8 19.55 10.8 19.95l2.65-1.25-.4 3.3-4.6 1.9-2.3-.95" fill="#a2593f"/><path d="m8.7 24.5-1.6 1.55-.2-1.95 1.4.4h.4m-1.95-.45-.2.65-1.05.95-1.6.65-.6-1.3 1.3-2.15 2.15 1.2m-2.6 2.45.75.05 1-.55L7 27.75l-2.65-.25-.2-1m3.3-.2-.3.7-.2-.25.5-.45m-.85.15-.3-.6.35-.4-.05 1M5.45 28.4l.9-.5-.15.7-.75-.2m-3-1.6h.4L4 28l1.1.2q-.55.65-2 .35l-.35-.4v-.5l-.3-.85" fill="#9a8fae"/><path d="m3 20.25-2.15 2.7v3l1.35.45-.6-1.55q.5-1.8 1.2-2.7l-.75 3 2.1 2.3.2.05 2.65.25L5.9 26l-1 .55-.75-.05-.65-.1.4-.1 1.6-.65 1.05-.95.2-.65.15.05.2 1.95 1.6-1.55 1.25-.3-1.15 3.85-2.3 1.4q-1.85.8-3.4.5l-1.65-1.4h-.5l-.75-2.6q-.45-2.45.05-4.05l2.7-2.9.05 1.25m4.45 6.05-.5.45.2.25.3-.7m-.85.15.05-1-.35.4.3.6m-3.85 1.7.35.4q1.45.3 2-.35L4 28l-1.15-1.2H1.7l1.05 1.35m2.7.25.75.2.15-.7-.9.5" fill="#514a69"/><path d="m4.35 27.5-.2-.05-2.1-2.3.75-3q-.7.9-1.2 2.7l.6 1.55-1.35-.45v-3L3 20.25l.1 1.25q.7.75 1.5 1.35L3.3 25l.6 1.3-.4.1.65.1.2 1m-1.6.65L1.7 26.8h.75l.3.85v.5" fill="#fff"/><path d="M3 20.25 2.95 19q0-2.05.3-4.35L5.3 14v-.05l.05-2.6q1.9-1.1 4.5-1.55l4.55 2.25q.9 2.6.85 5.8l-.1.05-1.25.6.15 3q-1.95 1.95-4 2.65l-.1.05-1.25.3h-.4l-1.4-.4-.15-.05-2.15-1.2q-.8-.6-1.5-1.35L3 20.25m7.45-9.45-.05-.05-.5-.2-3.75 2v4.65q1.25 1.2 2.7 1.75l1.95.4 3.75-1.8-.5-5.05-3.6-1.7m-3.9 7.4-.5-.5-.3-.5-.4-2.25-1.1.45q-.65 2.75-.45 5.95l2.35 1.6 2.3.95 4.6-1.9.4-3.3-2.65 1.25q-2.8-.4-4.25-1.75" fill="#6f3a28"/><path d="M17.3 5.55 14.1 8.6l-2.2-2.35-4.6-4.8 4.15 1.15 5.85 2.95M11 16.15l-1.45-2.3.5-2.05.4.8L12 14.15q-.25 1.95-1 2" fill="#fff"/><path d="m11.9 6.25 1.15 2.05-4.9-4.05L7 1.4l.3.05 4.6 4.8" fill="#675f80"/><path d="m8.15 4.25 4.9 4.05-1.15-2.05 2.2 2.35 3.2-3.05 2.3 1.1-3.05 6.65H11.9L8.15 4.25m3.85 9.9.2.15 2.4.15-1.65 1.7H11q.75-.05 1-2" fill="#9a8fae"/><path d="m8.15 4.25 3.75 9.05h4.65L16 14.55l-.4-.05-2.65 2.35-2.1.15-1.9-2.85.9-2.85-1.6-3.45Q6.6 3.35 6.15 0l4.25 1.4 9.7 4.15-.5 1.1-2.3-1.1-5.85-2.95L7.3 1.45 7 1.4l1.15 2.85M11 16.15h1.95l1.65-1.7-2.4-.15-.2-.15-1.55-1.55-.4-.8-.5 2.05 1.45 2.3" fill="#514a69"/></g><g id="p" fill-rule="evenodd"><path d="m22.05.3 4.75 1.3 1.85 1.95-1.2 2.1-6 10.9-2.1.8-.45-2.25q.4-10.6 2.15-13.35l1-1.45" fill="#fff"/><path d="m24.4 15.7-1.3 1.65-3.25 2.25-.5-2.25 2.1-.8 6-10.9L24.4 15.7" fill="#9a8fae"/><path d="M28.65 3.55 30.5 5.6l-2.25 5.3-3.85 4.8 3.05-10.05 1.2-2.1" fill="#675f80"/><path d="m30.5 5.6.9.95-1.5 4.2q-1.45 2.8-5.05 6.65l-4.8 3.2-1.4.6-1.45-8.8Q18 3.35 20.9 0l1.15.3-1 1.45Q19.3 4.5 18.9 15.1l.45 2.25.5 2.25 3.25-2.25 1.3-1.65 3.85-4.8 2.25-5.3" fill="#514a69"/><path d="m17.6 14.55-2.65 4.3 1.15 3-.4.5-2.3-5.15 2.85-5.35 1.35 2.7m-.25 26.2-.5-1.15 1.15.95-.65.2" fill="#fef459"/><path d="m17.6 14.55.75 1.55-1.9 2.85.4 1.9-.75 1-1.15-3 2.65-4.3" fill="#8e3611"/><path d="m16.85 20.85-.4-1.9 1.9-2.85.85 1.75-2.35 3m.5 19.9.65-.2 1.15.95-1.6.65v-.85l-.2-.55" fill="#b26602"/><path d="m18.35 16.1-.75-1.55-1.35-2.7-2.85 5.35 2.3 5.15.4-.5.75-1 2.35-3-.85-1.75m-9 17.4q1.6-7.15 4.35-11.8L12.15 17q1.35-4.15 4-6.55l1 1 2.75 5.95 1.2 1.15 1.2-.3-.6.4-.35.2-.25.15-1.45-.6-3.8 4.6-1.1-.85-4.1 12.3 5.6 3.85 3.2 2.9 1.6-.35q1.2-.7 2.55-2.75 1.15-8.9-.3-20.05l1-.25q3.05 9.85.6 20.35l-4.2 4.45-3.65 1.1v-2.4l-1.1-1.6-.95-1.4-2.2-1.5-.45-.25-1.05-.7-1.15-.75-.05-.1-.75-1.5M18 40.55l-1.15-.95.5 1.15.2.55v.85l1.6-.65-1.15-.95" fill="#600219"/><path d="m10.65 34.45 4.1-12.3 1.1.85 3.8-4.6 1.45.6.25-.15-.4 5.75-4.15 12.9-5.15-2.75-1-.3" fill="#f33e1c"/><path d="m21.35 18.85.35-.2v6.6q-.2 6.2-3.4 13.05l-1.5-.8 4.15-12.9.4-5.75" fill="#7f0221"/><path d="m21.7 18.65.6-.4q2.4 9.4.2 19.6l-1.45 3-1.6.35-3.2-2.9-5.6-3.85 1 .3 5.15 2.75 1.5.8q3.2-6.85 3.4-13.05v-6.6" fill="#b21600"/><path d="m22.3 18.25 1-.2q1.45 11.15.3 20.05-1.35 2.05-2.55 2.75l1.45-3q2.2-10.2-.2-19.6" fill="#cda5e7"/><path d="M17.05 43.55q-5.6-.3-10.1.15l-3.15.9.45-3.4Q1.3 41.25 0 42.85l.6-2.6q1.25-3.9 4.6-6.2l4.15-.55.75 1.5-4.75.55Q3.4 37.3 2.6 38.9l-.45 1.2-.05.25 2.95-.75.05-.1.05-.1q.6-1.25 3.25-2.5l3.95-.35.45.25q-2.75.45-5.5 1.6-1.5 2.1-1.85 3.95l-.05.3.3-.05 6.05-.65 1.35.05 3.95.1v1.45" fill="#514a69"/><path d="m13.1 42-1.35-.05-6.05.65q.7-.5 2.45-1.1h3.35l1.6.5m-8-2.5-.05.1-2.95.75.05-.25 1.6-.6H5.1" fill="#cba4e6"/><path d="m5.7 42.6-.3.05.05-.3q1.45-1.65 4-2.85l3.5-.3q-3.25.65-4.35 2.3h-.45q-1.75.6-2.45 1.1m-3.55-2.5.45-1.2 2.9-2.3-1.75 2.9-1.6.6" fill="#675f80"/><path d="m11.3 35.85 1.05.7-3.95.35q-2.65 1.25-3.25 2.5l-.05.1H3.75l1.75-2.9.05-.05 5.75-.7m4.65 3.85 1.1 1.6v.8L13.1 42l-1.6-.5H8.6q1.1-1.65 4.35-2.3l3 .5" fill="#9a8fae"/><path d="m10.1 35 .05.1 1.15.75-5.75.7-.05.05-2.9 2.3q.8-1.6 2.75-3.35L10.1 35m2.7 1.8 2.2 1.5.95 1.4-3-.5-3.5.3q-2.55 1.2-4 2.85.35-1.85 1.85-3.95 2.75-1.15 5.5-1.6" fill="#fff"/></g><g id="q" fill-rule="evenodd"><path d="m9 23.55-4.45-7.6q.4-4.8 2.9-6.65 3.95 4.85 4.95 12l-.05 1.45-3.35.8" fill="#fff"/><path d="M4.55 15.95 4 15 .7 6.3 8.45.4l2.45 5.7 1.5 11.7v3.5q-1-7.15-4.95-12-2.5 1.85-2.9 6.65" fill="#9a8fae"/><path d="M.7 6.3 4 15l.55.95L9 23.55l-.85.2q-2.75-2.8-5.35-8.4L0 6.9l.7-.6m11.7 15v-3.5L10.9 6.1 8.45.4l.6-.4 2.45 3.75q2.15 7.15 2.6 15.15l-.7 3.55-1.05.3.05-1.45" fill="#514a69"/><path d="m9.75 17.4 5.2 6.25-1.05 3.8.4-3.2-2.35-3.45-2.2-3.4M24.3 41.3l.2.1 1.95 5.2-.8 4.85v-5.7L24.3 41.3m-8.5-16.75.4.3q4.5 5.3 8.2 12.95l.35 2.85-.9-.3-.45-3.05-.15-.35q-2.95-6.05-7.45-12.4m3.1 27 .25-2.55L18 44.7l1.85 4.75-1 5.75-.3-.2.35-3.45" fill="#cda5e7"/><path d="M13.2 28.7 9.6 17.2l.15.2 2.2 3.4 1.25 7.9m.75 13.1 1-1.2q2.25-.75 4.45-.6l-.7 1.25h-2.6l-.6 1.2-1.55-.65" fill="#8e3611"/><path d="m13.4 29.3-.2-.6-1.25-7.9 2.35 3.45-.4 3.2-.5 1.85m2.1 13.15.6-1.2h2.6q-.6 1.15-.85 2.15l-2.35-.95" fill="#b26602"/><path d="m8.7 19.7.55-2.9.35.4 3.6 11.5.2.6-.05.15-.2-.1L8.7 19.7m2.5 26 2.2-3.2 2.5 8.9 2 3.2-5.55-3.45-1.15-5.45m14.15 7.25-4.3-3.15-2.95-6.2 1.15-2.3q2 2.15 3.95 6l.4 1.1 1.75 4.55" fill="#fff"/><path d="m8.7 19.7 4.45 9.65L7.5 25.8l1.2-6.1" fill="#fef459"/><path d="m9.6 17.2-.35-.4-.55 2.9-1.2 6.1 5.65 3.55.2.1.05-.15.5-1.85 1.05-3.8-5.2-6.25-.15-.2m.45 29.9-2.6-2.15-1.5-11.25.5-7.25H6l1.1-5.1h.75l1.05-5.3 3.75 3.85v-1.15l4.1 5.45q4.9 4.8 8.6 12.4 1.05 1.9 1.1 5.55l-.2-.05-1.75-.7-.2-.1-1.8-.7-2.6-.6h-.5q-2.2-.15-4.45.6l-1 1.2-.45.6-.1.1-2.2 3.2-.95 1.5-.2-.1m.4-18.9-2.7-1.75q-.3 7.85.95 17.65l.35.25 1.7 1.2 3.85-5.25q1.4-1 3.55-.7l5.7.75.9.3-.35-2.85q-3.7-7.65-8.2-12.95l-.4-.3-.5-.35-.3 1.3-.1.55-.9 3.6-.2.8-3.35-2.25" fill="#600219"/><path d="m9.05 44.35-.35-.25q-1.25-9.8-.95-17.65l2.7 1.75q2.3 4.8 4.65 7.85l-1.1-6.4.9-3.6q2.4 2.85 5.05 7.65l1.3 4.1q-2.7-.5-6 .9-4.2 2.55-6.2 5.65" fill="#f33e1c"/><path d="m10.45 28.2 3.35 2.25.2-.8 1.1 6.4Q12.75 33 10.45 28.2" fill="#ff8770"/><path d="m14.9 26.05.1-.55 4.25 4.8q2.55 4.05 3.05 7.4l.3.2-1.35-.1-1.3-4.1q-2.65-4.8-5.05-7.65" fill="#7f0221"/><path d="m15 25.5.3-1.3.5.35q4.5 6.35 7.45 12.4l.15.35.45 3.05-5.7-.75q-2.15-.3-3.55.7l-3.85 5.25-1.7-1.2q2-3.1 6.2-5.65 3.3-1.4 6-.9l1.35.1-.3-.2q-.5-3.35-3.05-7.4L15 25.5" fill="#b21600"/><path d="m19.9 40 2.6.6 1.8.7 1.35 4.45v2.35l-2.85-4.55q-1.75-2.1-3.15-3.05l.25-.5m-6.05 2.55 3.9 1.5.25.65 1.15 4.3-.25 2.55-5.05-9" fill="#9a8fae"/><path d="m13.4 42.5.1-.1.35.15 5.05 9-.35 3.45-.65-.4-2-3.2-2.5-8.9m10.2 5.9-.5-1.9q-1.55-3.05-3.65-5.6l.2-.4q1.4.95 3.15 3.05l2.85 4.55v3.35L25.4 53l-.05-.05-1.75-4.55" fill="#675f80"/><path d="M26.25 42.1q1.45 2.75 1.8 5.2l-1.8 7.5q-2.75-1.2-4.9-3.3l-1.5 5.6q-5.6-2.55-9.1-5.65l-.7-4.35.2.1.95-1.5 1.15 5.45 5.55 3.45.65.4.3.2 1-5.75L18 44.7l-.25-.65-3.9-1.5-.35-.15.45-.6 1.55.65 2.35.95q.25-1 .85-2.15l.7-1.25h.5l-.25.5-.2.4q2.1 2.55 3.65 5.6l.5 1.9-.4-1.1q-1.95-3.85-3.95-6l-1.15 2.3 2.95 6.2 4.3 3.15.05.05.25-1.55.8-4.85-1.95-5.2 1.75.7" fill="#514a69"/></g><g id="r" fill-rule="evenodd"><path d="m16.8 12.25.15.4.05.4q0 .7-.65 1.2t-1.55.5l-.9-.1-.15-.1-.15-.5.05-.3.1-.15.05.2.3.1.2-.1.1-.3-.1-.3-.2-.1h-.05l.05-.15.1-.05.5-.7v-.05l1.05-.15.8.15.25.1" fill="url(#l)"/><path d="m13.75 14.55-.25-.15-.2-.1v-.05l-.05-.4.1-1 .15.05.3.05h.3l-.05.15h-.1l-.15.1-.05.25v.15l-.1.15-.05.3.15.5m1.5-3.3.15.05q.55.15.95.5l.45.45-.25-.1-.8-.15-1.05.15v-.2l-.2-.6.5-.1h.25" fill="#29ee1d"/><path d="m19.4 25.25-1.55.45-7.3-2.2 2.15-6.75.95.3 1.45-.1 3.1 1.7.9-.5h2.3l-2 7.1m-6.15-11q-.65-.5-.65-1.2 0-.75.65-1.4.65-.6 1.55-.5h.2v.1l-.5.1.2.6v.25l-.5.7-.1.05h-.3l-.3-.05-.15-.05-.1 1 .05.4h-.05m.8-1.15h.05l.2.1.1.3-.1.3-.2.1-.3-.1-.05-.2v-.15l.05-.25.15-.1h.1" fill="#fff"/><path d="m17.4 12 .2.9q0 .7-.4 1.25l-.4.45q-.8.7-1.95.7-1.1 0-1.95-.7-.75-.7-.75-1.7v-.1q0-.35.15-.65.15-.5.6-.9l.25-.2q.75-.5 1.7-.5 1.15 0 1.95.7l.2.2.4.55m-3.65 2.55.15.1.9.1q.9 0 1.55-.5t.65-1.2l-.05-.4-.15-.4-.45-.45q-.4-.35-.95-.5l-.15-.05-.25-.1h-.2q-.9-.1-1.55.5-.65.65-.65 1.4 0 .7.65 1.2l.05.05.2.1.25.15" fill="#277c0b"/><path d="m11.6 8.95 1.85-2.55.25 2.05 3.55-.8q3.5-.95 7-3.2L27 2.55l2.55 4.1-7.05 3.65q-2.3.95-5.5 1.15l-.2-.2q-.8-.7-1.95-.7-.95 0-1.7.5-.85-.55-1.55-2.1" fill="#f33e1c"/><path d="m22.5 10.3-2.45 1.3-2.65.4-.4-.55q3.2-.2 5.5-1.15m-10.2 1.85L9.95 12l-.3-.35 1.95-2.7q.7 1.55 1.55 2.1l-.25.2q-.45.4-.6.9" fill="#ff8770"/><path d="m29.55 6.65 1.25 2-8.95 4.3-4.65 1.2q.4-.55.4-1.25l-.2-.9 2.65-.4 2.45-1.3 7.05-3.65m-17.4 6.15-1.85-.35-.35-.45 2.35.15q-.15.3-.15.65" fill="#7f0221"/><path d="m30.8 8.65.8 1.3-5.25 3.5-8.25 4.5-2.8-1.6-2.15-.1-2.85-3.8 1.85.35v.1q0 1 .75 1.7.85.7 1.95.7 1.15 0 1.95-.7l.4-.45 4.65-1.2 8.95-4.3" fill="#b21600"/><path d="m26.2 2.45.5-.3.3.4-2.75 1.9q-3.5 2.25-7 3.2l-3.55.8-.25-2.05-1.85 2.55-1.95 2.7.3.35.35.45 2.85 3.8 2.15.1 2.8 1.6 8.25-4.5 5.25-3.5.8 1.25-7.15 4.15-.2.1-.45.1h-.05l-.5.05-3.85 2-1.1.55-.9.5-3.1-1.7-1.45.1-.95-.3-.7-.25-.1-.05-2.55-3.4q-.9-.95 0-2.8L13.6 4.7l.8-.25-.05 1.4-.15 1.85q2.3-.4 5.45-1.65l.2-.1q3.4-1.4 6.35-3.5" fill="#600219"/><path d="m14.35 5.85 1.05.2q1.9.1 4.55-.75l-.3.75Q16.5 7.3 14.2 7.7l.15-1.85M23.5 23.9l-4.1 1.35 2-7.1h-2.3l1.1-.55 3.05-.4.25 6.7" fill="#9a8fae"/><path d="m24.5.2 1.7 2.25q-2.95 2.1-6.35 3.5l-.2.1.3-.75q-2.65.85-4.55.75l-1.05-.2.05-1.4L24.5.2m-.45 23.6-.55.1-.25-6.7-3.05.4 3.85-2v8.2" fill="#675f80"/><path d="M26.2 2.45 24.5.2l.4-.2 1.8 2.15-.5.3" fill="#4b3c00"/><path d="m24.8 23.5-.75.3v-8.2l.5-.05.25 7.95" fill="#cda5e7"/><path d="m25.25 15.35.95 7.75-1.4.4-.25-7.95h.05l.45-.1.2-.1m-14.7 8.15-.2-.05.7-4.25.95-2.7.7.25-2.15 6.75" fill="#514a69"/><path d="M2.45 29.65q1.7-4.05 5.3-8.45l2-1.8 2.75 1.35L5.95 26l-3.5 3.65" fill="#fff"/><path d="m12.5 20.75.3.15L1.95 30.95l.5-1.3L5.95 26l6.55-5.25" fill="#9a8fae"/><path d="m14.1 20.75-7.35 7.5Q3.8 31.45 1.5 32.6l-1.5.75q.85-4.5 3.1-7.85 2.75-4.25 5.5-7.15 1.45.1 2.65.7l2.85 1.7m-11.65 8.9-.5 1.3L12.8 20.9l-.3-.15-2.75-1.35-2 1.8q-3.6 4.4-5.3 8.45" fill="#4f4867" fill-opacity=".992"/><path d="m24.05 20.6 1.8-.75q3.85 3.05 6.25 7.4 3.2 8.2 2.1 14.35l-.15.25-.3.1-.2-.1-.15-.25q-5.6-6.45-9.75-12.95L19 23.5l5.05-2.9m-1 1.1q-1.85.85-3.25 1.85l3 3.2q6.1 6.1 9.35 11.6.95-.85.4-4.2l-.4-1.75q-.55-2.5-1.55-4.65-1.9-4-5.1-6.95l-.65.2-1.8.7" fill="#514a69"/><path d="M32.55 34.15q-2.45-5.45-6.9-11.35l-2.6-1.1 1.8-.7q2.7 2.35 5.75 6.75 1 2.15 1.55 4.65l.4 1.75" fill="#9a8fae"/><path d="M30.6 27.75q-3.05-4.4-5.75-6.75l.65-.2q3.2 2.95 5.1 6.95" fill="#cda5e7"/><path d="m23.05 21.7 2.6 1.1q4.45 5.9 6.9 11.35.55 3.35-.4 4.2-3.25-5.5-9.35-11.6l-3-3.2q1.4-1 3.25-1.85" fill="#fff"/><path d="m14.7 21.4 2 3.2-3.5 6.95-2.25 3.65 1.1-4.75 2.65-9.05m-4.1 13.4q-.1-2.7.75-5.5l-.2 2.05v.2l-.55 3.25" fill="#b26602"/><path d="m13.45 19.9 1.25 1.5-2.65 9.05-1.1 4.75-.55.95v-.1l.2-1.25.55-3.25v-.2l.2-2.05v-.2q.6-5.25 2.1-9.2" fill="#8e3611"/><path d="m12.05 20.75 1.3-1 .1.15q-1.5 3.95-2.1 9.2v.2q-.85 2.8-.75 5.5l-.2 1.25-.35-2.4 2-12.9m-2.5 3.05-.1 1.65L6.9 28.3l.15-1.6.05-.25 2.45-2.65m-.2 2.7v.55Q7.8 29.6 6.7 33.5l.05-2.1v-.5l2.6-4.4m12-1.05-.15.35q-1.65 4.2-4.45 9.3l-.3-1.15 4-7.4-.3-.5-4.2 5.9-.35-1.5 4-5.75.1-.1-.25-.45-3.9 5.95-.15-.45 3.95-5.85-.9-1.45h-1.4l2.55-.95 1.75 4.05" fill="#fff"/><path d="M10.45 21.85q-.6.8-.85 1.6l-.05.35-2.45 2.65q.1-1.7.35-3.45l2.7-2.2.3 1.05m-1 3.6-.1 1.05-2.6 4.4.15-2.4v-.2l2.55-2.85m5.8 3.55q1.2-2.3 2.05-4.8l-1.05-1.55.8-.3h1.4l.9 1.45-3.95 5.85-.15-.65m1.2 4.95-.5-2 4.2-5.9.3.5-4 7.4m-.85-3.5-.05-.35 3.9-5.95.25.45-.1.1-4 5.75" fill="#02fffd"/><path d="m10.85 21.3-.4.55-.3-1.05.2-.15.5.65M9.3 28.7v1.05l-.05.1-.95 1.65 1-2.8m10.8-7.5 1.05-.4 2.2 4.9-.05.1h-2.1l.15-.35-1.25-4.25m2.55 6.05L20.5 32.1l-1.05 1.3.3-1.8q.75-3.15 1.8-5l1.1.65" fill="#2caff6"/><path d="M9.35 27.05 9.3 28.7l-1 2.8-1.6 2.85v-.85q1.1-3.9 2.65-6.45M20.1 21.2l1.25 4.25-1.75-4.05.5-.2m1.1 4.6h2.1l-.65 1.45-1.1-.65q-1.05 1.85-1.8 5l-.3 1.8-2.4 3-.3-1.3q2.8-5.1 4.45-9.3" fill="#0463c3"/><path d="m11.35 20.7-.5.6-.5-.65-.2.15-2.7 2.2q-.25 1.75-.35 3.45l-.05.25-.15 1.6v.2l-.15 2.4v.5l-.05 2.1v.85l1.6-2.85.95-1.65v1L6.5 35.3q-.3-1-.45-2.9.15-4.65.7-7.5l.6-2.5 3.1-2.6.9.9m3.7 8.7.2-.4.15.65.15.45.05.35.35 1.5.5 2 .3 1.15.3 1.3 2.4-3 1.05-1.3 2.15-4.85.65-1.45.05-.1-2.2-4.9-1.05.4-.5.2-2.55.95-.8.3-.2-.3 5.05-2.05q2.05 1.9 3.1 5.4l-3.5 7.5-1.3 1.7.3.55-2.85 2.6-1.1-1.15q-.8-3.2-.7-6.9v-.6" fill="#043788"/><path d="m13.45 19.9-.1-.15-1.3 1q-1.1 1.05-1.9 2.7L9.9 32.3l.15 1.35.35 2.4v.1l.55-.95 2.25-3.65 3.5-6.95-2-3.2-1.25-1.5m-2.6 1.4.5-.6 2.5-1.55 2.2 3.2.2.3 1.05 1.55q-.85 2.5-2.05 4.8l-.2.4-2.15 3.4q-1.3 3.1-2.7 3.95-.7-1.65-1-4.7l.05-1.2v-1l.05-.1V28.7l.05-1.65v-.55l.1-1.05.1-1.65.05-.35q.25-.8.85-1.6l.4-.55" fill="#600219"/><path d="M10.05 33.65 9.9 32.3l.25-8.85q.8-1.65 1.9-2.7l-2 12.9" fill="#fef459"/></g><g id="s" fill-rule="evenodd"><path d="M8.95 15.05Q5.45 10.2 2.5 3.8l2.7 2.05 3.4 5.4q10.4 10.1 21.55 16.7 4.95 3.05 9.55 4.3l-2.9-.4-12.35-4.5q-7.6-4.5-11.75-9.05l-3.75-3.25m51.3 4-7.1 7.3-10.6 7.05 1.4-1.2 7.3-6.05L62.8 11.8l.8-.55-3.35 7.8" fill="#675f80"/><path d="m51.25 49.75-.35.2q-3.3 2.2-5.95 2.4-5.75.25-9.55-3.25l-.6-5.05q2.8-1.65 6.95-2.9L43 43.9q1.15-2.1 3.25-3.25 4.15-1.35 5.75 2.5l1.45-1.55.85.7-.9 4.2-2.15 3.25M5.2 5.85 14.55 13l18.65 8.85h5.95L41.4 32.8l-1.7-.55q-4.6-1.25-9.55-4.3Q19 21.35 8.6 11.25l-3.4-5.4M58.45 38.7l-2.4 1.45 4.9-5.95 2.8-5.25 1.4-.7-.55 3.15-6.15 7.3M42.5 49.25l3.1-.3q1.75-.65 1.45-1.3l-4.55 1.6" fill="#fff"/><path d="m34.8 44.05-.5-3.9.8.45q1.05.65 8.2-2.5l-1.55 3.05q-4.15 1.25-6.95 2.9m15.4-9.2 3.3-1.7.35.2v.05l.45 8.9-.85-.7q0-3.4-3.25-6.75M32.15 16.8l1.75 3.3h-.3l-1.15-.65-.3-2.65m7.7 5.55.8-4.6 3.9 6.2-3.3 3.9-1.4-5.5M41.4 32.8l-3.15 6.1-2.15.95-1.65-.85L23 30.25 12.7 18.3q4.15 4.55 11.75 9.05l12.35 4.5 2.9.4 1.7.55m2.55-.6-1.4 1.2 10.6-7.05 7.1-7.3-1 2.3-7.45 10.9-3.05 2.5q-5 2.35-9.8 3.9l3.15-5.75 1.85-.7" fill="#9a8fae"/><path d="m34.45 39-8.1-4.4q-5.85-5.25-12.8-13.9-2.4-2.5-4.6-5.65l3.75 3.25L23 30.25 34.45 39m14.3-4.25 3.05-2.5 7.45-10.9-1.25 2.9-5.55 8.65-2.6 1.3-1.1.55m9.5 9.2 3.1-3.95 2.15-4.05L62 40.6l-3.75 3.35" fill="#cda5e7"/><path d="m58.5 45.35-.4.4q-3.75 4-10.35 7.05-5.15 1.5-9-.15-3.25-1-4.55-4.25-.15-5.95-1.6-9.2l-7.85-4.45q-5.85-4.8-12.8-14.05Q3.15 10.9 0 0q14.7 12.85 31.6 19.2l-1.15-6.8 1.15-1.3q4.45 4.25 6.1 8.1 1.35-2.05 3.05-2.9 3.05 3.2 4.35 6.1 11.75-5.95 20.05-13.65Q62.4 21.5 53.8 32.8l-.3.35-3.3 1.7-6.9 3.25q-7.15 3.15-8.2 2.5l-.8-.45.5 3.9.6 5.05q3.8 3.5 9.55 3.25 2.65-.2 5.95-2.4l.35-.2 3.35-2.4-.15-.45q1.55-.3 4.05-1.55M33.9 20.1h3.25l-5.5-7.75.5 4.45.3 2.65 1.15.65h.3m6.75-2.35-2.45 2.8 1.4.55.25 1.25 1.4 5.5 1.1 4.6-.25.45-3.15 5.75q4.8-1.55 9.8-3.9l1.1-.55 2.6-1.3L58 24.25l1.25-2.9 1-2.3 3.35-7.8-.8.55q-5.4 5.3-13.15 9.85l-5.1 2.3-3.9-6.2m.75 15.05-2.25-10.95H33.2L14.55 13 5.2 5.85 2.5 3.8q2.95 6.4 6.45 11.25 2.2 3.15 4.6 5.65 6.95 8.65 12.8 13.9l8.1 4.4 1.65.85 2.15-.95 3.15-6.1m1.1 16.45 4.55-1.6q.3.65-1.45 1.3l-3.1.3" fill="#514a69"/><path d="m32.15 16.8-.5-4.45 5.5 7.75H33.9l-1.75-3.3m8.5.95-.8 4.6-.25-1.25-1.4-.55 2.45-2.8m.6 10.1 3.3-3.9 5.1-2.3Q57.4 17.1 62.8 11.8L51.25 26.15l-7.3 6.05-1.85.7.25-.45-1.1-4.6" fill="#f6f5f7"/><path d="m43.3 38.1 6.9-3.25q3.25 3.35 3.25 6.75L52 43.15q-1.6-3.85-5.75-2.5-2.1 1.15-3.25 3.25l-1.25-2.75 1.55-3.05" fill="#c5b1e7"/><path d="m54.45 46.9.15.45-3.35 2.4 2.15-3.25-.1.45 1.15-.05" fill="#ddd9e4"/><path d="m54.9 46.25-.9-.15 1.1-3.25v-2.4l-.65-6.9 9.3-4.6-2.8 5.25-4.9 5.95 2.4-1.45-1.75 2-1.8 5.55" fill="#fef459"/><path d="m63.95 34.25-6.2 6.2-.7 4.65q-1.25 1-2.15 1.15l1.8-5.55 1.75-2 6.15-7.3-.65 2.85" fill="#8e3611"/><path d="M58.5 45.35Q56 46.6 54.45 46.9l-1.15.05.1-.45.9-4.2-.45-8.9h.1q6.3-4.85 12.55-7.4-.05 7.85-3.9 15.55l-4.1 3.8m5-9.4.05-.15.4-1.55.65-2.85.55-3.15-1.4.7-9.3 4.6.65 6.9v2.4L54 46.1l.9.15q.9-.15 2.15-1.15l.85-.8.35-.35L62 40.6l1.5-4.65" fill="#600219"/><path d="m63.95 34.25-.4 1.55-.05.15L61.35 40l-3.1 3.95-.35.35-.85.8.7-4.65 6.2-6.2" fill="#b26602"/><path d="m42.65 38.35.9-.4-.55.8L41.35 41l.7-1.6.6-1.05m1.3-.6 4.15-1.9q.9 1.25 1.05 3.05h-.1q-.5 0-.85.3-.3.35-.3.85l.05.45q-1.75.2-3 1.25l-.1-.15-.3-.1-.35.1q-.45-2.25-.25-3.85m6-2.7.4-.15q2.05 1.5 3.1 4.2.5 1.55.15 2.65l-.1-.4-1.5-3.5q-.75-1.7-2.05-2.8m.85 6.15-.05.05q-.7 1.9-2.55 3.25h-.55l1.7-1.55.85-1.65.25-1.05.3-3.65q.7 2 .05 4.6m-3.15 3.65 2.1-.55q-.95 1-3.3 1.25l-1.5-.1.85-.25-1-.95q-1.5-1.85-1.75-4.65l1.05 2.2v.15l.1.3.1.1.2.05v.05q.25 1.45 1.85 2.35h.75l-.7.35 1.25-.3m-12.25-4.1.55 2q.25 2.55-.7 2.8l-1.5-.95q-.15-2.3-1.15-5.35l1.65.9.35.85.35 1.8-.7-.55.35 1.7.05.55.15.6q.6.35.7-1l.05-.4-.45-2.35-.1-.2-.25-.75.65.35" fill="#360b3f"/><path d="M44.95 41.75q1.25-1.05 3-1.25l.25.35q.35.35.85.35 0 1.8-1.7 2.7-1.95 0-2.55-1.55l.05-.1.15-.3-.05-.2m-10.35 2.2-.35-1.7.7.55h-.1l-.2.05-.05.2.05.15.2.1.2-.1-.45.75" fill="#4d125a"/><path d="m43.55 37.95.4-.2q-.2 1.6.25 3.85l-.1.2-1.05-2.2-.05-.85.55-.8m4.55-2.1 1.25-.55 1.4 1.3-.3 3.65-.25 1.05-.3-.45.3-.8q0-.5-.35-.85-.3-.3-.7-.3-.15-1.8-1.05-3.05m-13.85 4.3.5.25.25.75-.4-.15-.35-.85" fill="#7e2292"/><path d="m48.2 44.5-.55.35-1.25.3.7-.35h-.75q-1.6-.9-1.85-2.35l.05-.05.25-.05q.6 1.55 2.55 1.55 1.7-.9 1.7-2.7.5 0 .8-.35h.05l.3.45-.85 1.65-1.7 1.55h.55M34.6 41l.4.15.1.2.45 2.35-.9.8-.05-.55.45-.75.1-.15-.05-.2h-.05l-.1-.05-.35-1.8" fill="#e42ce7"/><path d="m44.2 41.6.35-.1.3.1.1.15.05.2-.15.3-.05.1-.25.05h-.05l-.2-.05-.1-.1-.1-.3v-.15l.1-.2m3.75-1.1-.05-.45q0-.5.3-.85.35-.3.85-.3h.1q.4 0 .7.3.35.35.35.85l-.3.8h-.05q-.3.35-.8.35t-.85-.35l-.25-.35m-12.4 3.2-.05.4q-.1 1.35-.7 1l-.15-.6.9-.8m-.6-.9.15.05.05.2-.1.15-.2.1-.2-.1-.05-.15.05-.2.2-.05h.1" fill="#fff"/><path d="m42.65 38.35.55-.95 7.6-3.5.5.55-.95.45-.4.15-.6.25-1.25.55-4.15 1.9-.4.2-.9.4m-10.05.9-.3-1.5 2.8 1.85.3 1.15-.65-.35-.5-.25-1.65-.9" fill="#514a69"/><path d="m49.35 35.3.6-.25q1.3 1.1 2.05 2.8l1.5 3.5-2.7-.1v-.05q.65-2.6-.05-4.6l-1.4-1.3" fill="#c5b1e7"/></g><g id="t" fill-rule="evenodd"><path d="m50.3 22.3.5.45q10.35 9.75 20.3 15l.2.25.05.3-.1.3-.3.15-7.95 1.1q2 17.5 7.9 27.9 1.6 2.85 3.55 5.2l.1.25-.05.3-.2.2-.3.05-3.2-.55q-4.2-.85-8.45-2.3 1.3 11.4 4.1 20.4l1.05 3.15.2.6q1.1 3.05 2.45 5.85l.2.2.15.35-.15.4-.35.1-.35-.1-.25-.25-.05-.05-2.85-2.15q-4.6-3.55-9.2-7.8l-4.25-4.1Q47.4 81.75 41.7 74.9l-.05-.15-8.6-20-1.9-4L26.5 67l-.25.3-.35.1-.3-.15-11.05-11.5-.15-.35-1.65-13.55Q5.5 40.3.85 38.2l-.2.1-.4-.05-.2-.35.05-.4 7.55-12.2.15-.15.2-.05 7-1.3q7.95-5.5 10.65-10.5l.3-.25.2-.05.25.05.2.35 1.2.25 6.75 1.55.1.05 6.1 5.2 2 .5 2.8.7 3.45.9.4.1.15-.35q.15-.15.35-.15.2 0 .4.15m9 9.05q-4.6-3.5-9.25-7.85l-.3-.3-9.15-2.35-.1-.05-6.1-5.15-7.85-1.8-.95 1.6-.45.6.3.15 2.45 2.15.15.25 2.5 8v.2l-.05.2-.05.05 1.05.95.9.35L61.6 39l.7-.1h.05l6.85-1-.45-.25Q65.8 36 62.8 33.9l-3.5-2.55m7.85 35.9 2.5.4Q63.95 57.2 61.95 40l-.3.05-.25-.05-29.15-10.55-1.1 3.05-1.3 3.85 5 12.35q3.8 3.55 7.55 6.55l6.9 5.05 7.25 4.3 2.8 1.35.45.2 4.55.7 2.8.4M27.55 20.5l-.4-1.45-2.4-2.05-.15-.25q-3.15 3.85-9.1 7.95l-.2.1-6.85 1.25L3.3 34.3l-2.15 3.5 3.45 1.35.1.05q3.55 1.2 8.15 2.2.15-.15.35-.2l.35.1.2.3 2.65.5 2.95.55 2.2-2.2 4-3.95-.65-1.55-.05-.25.1-.25 4.4-7.5.15-.25-.8-2.5-1.15-3.7m3.75 10.3.55-1.5L31 29l-.15-.15-.95-.85-1.1 1.95-1.2 2.1-1.65 2.75.55 1.3v.05l5.05 12.9 2.4 5.15q4.2 3.15 8.35 5.75l1.35.85q3.55 2.15 7.05 3.95 5.65 2.95 11.15 4.9h.05q4.1 1.45 8.1 2.3l2.8.55-2.8-4.25-.05-.1-2.55-.4-7.7-1.15-.05-.05-.45-.15-2.55-1.2-7.2-4.2-6.9-5.05L34.5 49l-.05-.05-5.1-12.5v-.15l1.35-3.85.6-1.65m-4.25 17.75.5-6.85-1.85-4.75-6.1 6.1-.1.05h-.1l-2.85-.45v7.1l6.65 9.55q2.65-4.7 3.8-10.5l.05-.25m3.1 1.95.35-1.2-2.55-6.6-.25 3.05-.2 3.1-.1.45q-1.25 5.85-4 10.55l-.15.1h-.15l-.1-.05-6.85-9.9-.05-.15v-7.3l-2.25-.45.35 2.75.3 2.6.95 7.65L25.7 65.85l3.55-12.25.9-3.1m13.9 15.1-2-4.6-.3-.2-7-4.7 2.35 5.55 1.35 3.1 4.1 9.5q5.2 6.25 10.35 11.55l4.05 4.05q4.55 4.3 9.15 7.95l2.3 1.75-1.8-4.5-.2-.6-.95-2.85-.1-.4-1.15-1.05-8.75-8.05-3.2-3-3.6-3.35-.1-.05-2.9-6.5-1.6-3.6m18.6 22.45 2.4 2.25q-2.55-8.8-3.8-19.8-5-1.75-10.15-4.35-3.5-1.75-7.1-3.95l-1.25-.75 2.65 6 3.6 8L56.1 82l5.15 4.8 1.4 1.25" fill="#600219"/><path d="M50.3 22.3q-.2-.15-.4-.15t-.35.15l-.15.35-.4-.1-10.35-13.7-3.45-1.9Q26.15 2.55 20.5 2l2.15 3.35 2.2 3.4 2.35 3.65.6 1.25-1.2-.25-.2-.35-.25-.05L17.7 0q3.9-.2 8.35 1.7Q34.2 4.5 38.6 7.3l11.75 14.95-.05.05" fill="#514a69"/><path d="m42.75 20.95-2-.5-6.1-5.2-.1-.05-6.75-1.55-.6-1.25-2.35-3.65 12 4.1q3.15 2 5.9 8.1" fill="#9a8fae"/><path d="m45.55 21.65-2.8-.7q-2.75-6.1-5.9-8.1l-12-4.1-2.2-3.4 13.7 6.5q5.2 4 9.2 9.8" fill="#675f80"/><path d="m49 22.55-3.45-.9q-4-5.8-9.2-9.8l-13.7-6.5L20.5 2q5.65.55 14.7 4.95l3.45 1.9L49 22.55m10.3 8.8 3.5 2.55-21.15-6.6-3.55-1.4 21.2 5.45m-16.75 24.6 6.9 5.05 1.25 3.75q-3.5-1.8-7.05-3.95l-1.1-4.85m9.7 23.15 3.2 3 1.5 7.75-4.05-4.05-.65-6.7" fill="#fff"/><path d="m25.6 15.45.95-1.6 7.85 1.8 6.1 5.15.1.05 9.15 2.35.3.3q4.65 4.35 9.25 7.85L38.1 25.9l-.4-.2-5.45-2.2-1.7-3.75q-2.5-3.3-4.95-4.3M3.3 34.3l5.15-8.25 6.85-1.25.2-.1q5.95-4.1 9.1-7.95l.15.25 2.4 2.05.4 1.45q-1.3 4.85-11.3 9.45L3.3 34.3m27.4-1.85-1.35 3.85v.15l5.1 12.5.05.05 8.05 6.95 1.1 4.85-1.35-.85q-4.15-2.6-8.35-5.75l-2.4-5.15-5.05-12.9v-.05l-.55-1.3 1.65-2.75 3.1.4M49.45 61l7.2 4.2 2.55 1.2.45.15.05.05 7.7 1.15.55 1.1 2.05 3.1q-4-.85-8.1-2.3h-.05q-5.5-1.95-11.15-4.9L49.45 61M27.4 49.3l1.85 4.3-3.55 12.25L15.45 55.1l-.95-7.65 1.6.25v2.15l.05.15L23 59.9l.1.05h.15l.15-.1q2.75-4.7 4-10.55m18.25 19.9 2.9 6.5.1.05 3.6 3.35.65 6.7q-5.15-5.3-10.35-11.55l-4.1-9.5 7.2 4.45m9.8 12.9 8.75 8.05 1.9 7.65q-4.6-3.65-9.15-7.95l-1.5-7.75" fill="#fef459"/><path d="m68.75 37.65.45.25-6.85 1h-.05l-.7.1-29.2-10.65-.9-.35-1.05-.95.05-.05.05-.2v-.2l-2.5-8-.15-.25-2.45-2.15-.3-.15.45-.6q2.45 1 4.95 4.3l1.7 3.75 5.45 2.2.4.25 5.5 2.95 25.15 8.75M28.7 24.2l.8 2.5-.15.25-4.4 7.5-.1.25.05.25.65 1.55-4 3.95-2.55 1.7-6.1-1.8 3-5.25q7.5-2.55 12.8-10.9m.1 5.75L29.9 28l.95.85.15.15.85.3-.55 1.5-2.5-.85m38.6 37.8 2.55.4.05.1 2.8 4.25-2.8-.55-2.05-3.1-.55-1.1M30.15 50.5l-2.45-4.75.25-3.05 2.55 6.6-.35 1.2m6.95 11.15-2.35-5.55 7 4.7.3.2 2 4.6-6.95-3.95m-22.9-16.8-.35-2.75 2.25.45v2.6l-1.9-.3" fill="#b26602"/><path d="M62.8 33.9q3 2.1 5.95 3.75L43.6 28.9l-5.5-2.95v-.05l3.55 1.4 21.15 6.6M27.55 20.5l1.15 3.7q-5.3 8.35-12.8 10.9l-3 5.25-8.2-1.15-.1-.05-3.45-1.35 2.15-3.5 12.95-4.35q10-4.6 11.3-9.45m3.75 10.3-.6 1.65-3.1-.4 1.2-2.1 2.5.85m-3.6 14.95 2.45 4.75-.9 3.1-1.85-4.3.1-.45.2-3.1m-11.6-.6v2.55l-1.6-.25-.3-2.6 1.9.3M44.05 65.6l1.6 3.6-7.2-4.45-1.35-3.1 6.95 3.95M64.2 90.15l1.15 1.05.1.4.95 2.85.2.6 1.8 4.5-2.3-1.75-1.9-7.65" fill="#8e3611"/><path d="m67.15 67.25-2.8-.4-5.2-6.15q-3.9-8.8-4.95-15.65.05 8.15 2.35 19.55l-7.25-4.3-6.9-5.05q-3.75-3-7.55-6.55l-5-12.35 1.3-3.85.9.15 24.85 9.9q1.55 6.05 4.55 13.95l5.7 10.75m-40.1-18.7-.05.25q-1.15 5.8-3.8 10.5l-6.65-9.55v-2l1.8.2q4.5.15 7.35-2.5l1.35 3.1m35.6 39.5-1.4-1.25-5.9-11.85.75 7.05-7.1-6.55-3.6-8 11.2 6.2 6.05 14.4" fill="#f33e1c"/><path d="m64.35 66.85-4.55-.7-.45-.2-2.8-1.35q-2.3-11.4-2.35-19.55 1.05 6.85 4.95 15.65l5.2 6.15m-3.1 19.95L56.1 82l-.75-7.05 5.9 11.85" fill="#ff8770"/><path d="m31.15 32.5 1.1-3.05L61.4 40l.25.05.3-.05q2 17.2 7.7 27.65l-2.5-.4-5.7-10.75q-3-7.9-4.55-13.95l-24.85-9.9-.9-.15m-14.6 15.25v-5.1l2.85.45h.1l.1-.05 6.1-6.1 1.85 4.75-.5 6.85-1.35-3.1q-2.85 2.65-7.35 2.5l-1.8-.2m28.85 19.7-2.65-6 1.25.75q3.6 2.2 7.1 3.95 5.15 2.6 10.15 4.35 1.25 11 3.8 19.8l-2.4-2.25-6.05-14.4-11.2-6.2" fill="#b21600"/><path d="m21.55 40.45-2.2 2.2-2.95-.55-2.65-.5-.2-.3-.35-.1q-.2.05-.35.2-4.6-1-8.15-2.2l8.2 1.15 6.1 1.8 2.55-1.7" fill="#cda5e7"/></g><g id="u" fill-rule="evenodd"><path d="m4.5 17.7-1.85-4.65L22.4 1.55l-.7 2.65-3.65 5.7-1.65 1.85L17.85 5 14.7 7.75q-4.15 4.1-7.4 9.95H4.5m7.8 3.5-2.95-4.35 2.95-4.1 2.15 2.1q-1.9-.95-3.55.6-.4 2.3.6 3.9l.8 1.85" fill="#9a8fae"/><path d="M4.5 17.7h-.55l-2.65-4Q2.5 11.05 5 7.8L22.65.6l-.25.95-19.75 11.5L4.5 17.7m14.6 2.2-4.6 4.55-2.2-3.25-.8-1.85q-1-1.6-.6-3.9 1.65-1.55 3.55-.6l3.35 3.25 1.3 1.8" fill="#fff"/><path d="m22.4 1.55.25-.95L5 7.8q-2.5 3.25-3.7 5.9l2.65 4H7.3q3.25-5.85 7.4-9.95L17.85 5l-4.9 6.85 1.85 1.8.5.5 2.75-4.25 3.65-5.7.7-2.65m-7.9 22.9-.6.6-5.2-7.35-.35 1.45H3.7q-3-3.35-3.7-5.7L4.7 7.1Q14.15 1.45 23.65 0l-1 3.6q-2.9 6.9-6.9 11.05 2.5 2.55 3.7 4.9l-.35.35-1.3-1.8-.9-1.3-4.2-4.6-.4.55-2.95 4.1 2.95 4.35 2.2 3.25" fill="#514a69"/><path d="m14.8 13.65-1.85-1.8L17.85 5l-1.45 6.75-1.6 1.9" fill="#675f80"/><path d="m18.05 9.9-2.75 4.25-.5-.5 1.6-1.9 1.65-1.85m-5.75 2.85.4-.55 4.2 4.6.9 1.3-3.35-3.25-2.15-2.1" fill="#cda5e7"/><path d="M22.1 31.3h-1.7l-.7.45-2.6.65-3.35-3 4.1-4.95 3.25.2 1 6.65m-4.45-7.8h-.4l-.45.6-2.6 2.5-2.1-1.95.05-.05q1.65-3.6 4.5-7.1l2.4.5 1.55 4.85-2.95.65" fill="#d2986d"/><path d="m22.5 24.7 1 2.25.35 4.35H22.1l-1-6.65 1.4.05m-2.8 7.05-2.6 1.5-3.7-3.45.35-.4 3.35 3 2.6-.65M19.05 18l1.6.3 1.05 5.4-4.05-.2 2.95-.65L19.05 18m-2.25 6.1-2.45 3.35-2.5-2.25v-.1l.25-.45 2.1 1.95 2.6-2.5" fill="#a2593f"/><path d="m22.5 24.7.45.05 1.05 1.5v5.05h-.15l-.35-4.35-1-2.25m1.2 7.25h.3l1.1 3.75-1.1 1-.5.25.9-1.45-.7-3.55m.7 6.5.6-1.85.4-.35q-.3 1.65-1 2.2M20.65 18.3l.3.05 1.25 5.35h-.5l-1.05-5.4" fill="#cda5e7"/><path d="M23.85 31.3H24v-5.05l-1.05-1.5-.45-.05-1.4-.05-3.25-.2-4.1 4.95-.35.4 3.7 3.45 2.6-1.5.7-.45h3.45m-8.35 2.45h-.2l-3.25-4L13 27.3l-2.65-2.2q2.15-5.15 6.5-8.85l4.85 1.15 1.75 6.6q1.5-.15 1.65.45.45 2.35.35 6.05l-.5.7-.55.75h-3.75q-1.5.75-3.05 1.6l-.15.05-.25.15h-1.7m5.15-15.45-1.6-.3-2.4-.5q-2.85 3.5-4.5 7.1l-.05.05-.25.45v.1l2.5 2.25 2.45-3.35.45-.6h.4l4.05.2h.5l-1.25-5.35-.3-.05" fill="#6f3a28"/><path d="M17.6 33.55q1.55-.85 3.05-1.6h1.1l.9.4.95 3.25-.95 1.8q-1.2.55-2.45 1.2l-2.6-5.05" fill="#f33e1c"/><path d="M21.75 31.95h1.95l.7 3.55-.9 1.45-.85.45.95-1.8-.95-3.25-.9-.4" fill="#b21600"/><path d="m24.95 31.2 1.6 3.85-1.15 1.2-.4.35q-1.95 1.65-4.85 2.65l-.1-.1q-1.8-1.95-2.6-5.55l.15-.05 2.6 5.05q1.25-.65 2.45-1.2l.85-.45.5-.25 1.1-1-1.1-3.75h.4l.55-.75" fill="#600219"/><path d="M16.95 33.75h.25l.25-.15q.8 3.6 2.6 5.55l-.55 1.25h-.15l-1.8-3.95-.4 1.5-1.1-.35.9-3.85" fill="#fff"/><path d="m25 36.6-.6 1.85-.25.2.15-.95-1.65 2.2-1.1.5.35-1.25-1.3 1.55-1.1-.3.55-1.25.1.1q2.9-1 4.85-2.65m-7.85 1.35.4-1.5.2 1.7-.6-.2" fill="#9a8fae"/><path d="m26.55 35.05.15.25q.1 2.9-1.9 4.85l-.1.05h-.75l-1.4 1.35h-.95l-1.05.7-1.45-.35-2.05-2.55-1.25-.3-1.25-1.4.95-3.9h1.45l-.9 3.85 1.1.35.6.2-.2-1.7 1.8 3.95h.15l1.1.3 1.3-1.55-.35 1.25 1.1-.5 1.65-2.2-.15.95.25-.2q.7-.55 1-2.2l1.15-1.2" fill="#514a69"/></g><use ffdec:characterId="2" height="82.95" width="55.65" xlink:href="#m" id="c"/><use ffdec:characterId="4" height="90.9" width="48.25" xlink:href="#n" id="d"/><use ffdec:characterId="6" height="30.05" width="20.1" xlink:href="#o" id="e"/><use ffdec:characterId="8" height="44.6" width="31.4" xlink:href="#p" id="f"/><use ffdec:characterId="10" height="57.1" width="28.05" xlink:href="#q" id="g"/><use ffdec:characterId="12" height="41.95" width="34.5" xlink:href="#r" id="h"/><use ffdec:characterId="14" height="53.5" width="66.5" xlink:href="#s" id="i"/><use ffdec:characterId="19" height="101.95" width="74.55" xlink:href="#t" id="j"/><use ffdec:characterId="21" height="42.25" width="26.7" xlink:href="#u" id="k"/><radialGradient cx="0" cy="0" gradientTransform="translate(15.8 14.4) scale(.0031)" gradientUnits="userSpaceOnUse" id="l" r="819.2" spreadMethod="pad"><stop offset=".11" stop-color="#29d219"/><stop offset="1" stop-color="#277d0b"/></radialGradient><path d="M27.75 0q0 2-8.15 3.4Q11.5 4.9 0 4.9q-11.5 0-19.65-1.5-8.1-1.4-8.1-3.4 0-2.05 8.1-3.5Q-11.5-4.9 0-4.9q11.5 0 19.6 1.4 8.15 1.45 8.15 3.5" fill-opacity=".349" fill-rule="evenodd" transform="translate(27.75 4.9)" id="b"/></defs></svg>