<svg xmlns:ffdec="https://www.free-decompiler.com/flash" xmlns:xlink="http://www.w3.org/1999/xlink" ffdec:objectType="frame" height="90" width="90" xmlns="http://www.w3.org/2000/svg"><use ffdec:characterId="30" height="72.7" transform="matrix(1.1243 0 0 1.1239 -8.489 2.697)" width="97.1" xlink:href="#a"/><defs><g id="a" transform="translate(7.55 -2.4)"><use ffdec:characterId="1" height="9.8" transform="matrix(.681 0 0 1.283 21.402 61.013)" width="55.5" xlink:href="#b"/><use ffdec:characterId="3" height="241.85" transform="translate(30.15 10.45) scale(.1483)" width="148.95" xlink:href="#c"/><use ffdec:characterId="10" height="181.85" transform="rotate(56.62 -5.664 70.86) scale(.1036)" width="325.25" xlink:href="#d"/><use ffdec:characterId="12" height="169" transform="translate(26.3 41.65) scale(.1483)" width="109.25" xlink:href="#e"/><use ffdec:characterId="14" height="201" transform="translate(37.65 42.4) scale(.1483)" width="119.6" xlink:href="#f"/><use ffdec:characterId="16" height="291.75" transform="translate(37.1 6.7) scale(.1483)" width="338.85" xlink:href="#g"/><use ffdec:characterId="18" height="132.45" transform="translate(27 30.45) scale(.1483)" width="139.1" xlink:href="#h"/><use ffdec:characterId="20" height="246.5" transform="matrix(.1482 -.0024 .0003 .1492 -3.9 17.25)" width="248.45" xlink:href="#i"/><use ffdec:characterId="22" height="82.25" transform="translate(43.6 51.55) scale(.1483)" width="188.7" xlink:href="#j"/><use ffdec:characterId="24" height="44.8" transform="translate(18.55 49.05) scale(.1483)" width="132.8" xlink:href="#k"/><use ffdec:characterId="29" height="230.5" transform="translate(16.1 7.8) scale(.1483)" width="217.4" xlink:href="#l"/></g><g id="m" fill-rule="evenodd"><path d="M18.8 6.1q16.1-9.8 46.05-3.9 52.6 25.6 66.9 64.2 21.7 45.6 4 100-11.95 45.9 13.2 61.6-9.4 4.7-28.6-1.2-.75 6.8 3.4 15-27.25 1.15-41.6-20.8 21.15 14.35 36.2 15.8-5.3-10.3-4.6-18.4 12.9 7.45 22.45 7.05l2.55-.25q-13.35-12.2-11-43.8 15.8-62.55 9.2-84.6-8.8-36.1-30.6-60.05-18.6-20.4-46.6-31.95Q31.4-.85 18.8 6.1" fill="#081f50"/><path d="m82.15 221-59.6-73.8q-41.5-112.8-6.6-139.15L18.8 6.1Q31.4-.85 59.75 4.8q28 11.55 46.6 31.95l2.8 8.05q19.2 20.4 20.6 53.6-13.95-7.15-22-8 27.95 18.8 16.8 81.2-6 43 11.65 53.85-9.55.4-22.45-7.05-.7 8.1 4.6 18.4-15.05-1.45-36.2-15.8" fill="#192a59"/><path d="M106.35 36.75q21.8 23.95 30.6 60.05 6.6 22.05-9.2 84.6-2.35 31.6 11 43.8l-2.55.25q-17.65-10.85-11.65-53.85 11.15-62.4-16.8-81.2 8.05.85 22 8-1.4-33.2-20.6-53.6l-2.8-8.05" fill="#164479"/></g><g id="n"><path d="m275.45 47.35-.4-.15.3-.1.1.25" fill="#7f2828" fill-rule="evenodd" transform="translate(1.2 2.9)"/><path d="m218.25-.75-1.05 1-.2-.75 1.25-.25M275 47.2l.25.15-.9.2.65-.35" fill="#f57954" fill-rule="evenodd" transform="translate(1.2 2.9)"/><path d="m220.6 22.05-.2.75-2.3-1.45 2.5.7" fill="#dd3d3d" fill-rule="evenodd" transform="translate(1.2 2.9)"/><path d="M217.2.25q-.65.8-.95 1.8-.6 1.25-.25 2.85l.3.75q.65 4.55 5.45 8.65 7.3 6 16.55 7 22.5 1.95 27 3.05 4.7.9 5.6 6.95.8 4.2.8 5.35-.15 3.35-1.75 4.45l3.6-.6 7.45-1q1.55 3.9-5.65 7.6l-.3.1H275l-.65.35h-.1q-8.7 1.6-18 2.2l-7.45.3h-.9q-21.1.6-38.6-3.25l-3.3-.9q.95-3.55.05-6.75-2.05-6.95-4.3-8.55-4.1-3-7.05-7 4.25 2.35 7.25 4.7l2.6.55q-.05-1.15.25-1.5.3-1.6-.05-2.6-1.75-4.15-5.9-8.1-4.95-4.85-.7-8.7Q204.65 1.7 217-.5l.2.75m3.2 22.55q2.75 1.4 3.1 2.75-.05.75-2.95 3.25-3.05 2.55-2.55 4.9 1.05 4.85 4.9 6.05l8.5.45q6.5-.45 10.95.7 6.8 1.8 12.95 5.95-1.1-1.6-.2-7.6.65-5.85.9-5.9-1-4.25-18.25-7.55l-17.15-3.75-2.5-.7 2.3 1.45" fill="#87fffd" fill-rule="evenodd" transform="translate(1.2 2.9)"/><path d="M206 45.9q-5.8-1.8-8-4.65-3.3-3.85-3.45-7.55-.5-8.35-12.85-15.7l8.75 3.65 4.25 1.95q2.95 4 7.05 7 2.25 1.6 4.3 8.55.9 3.2-.05 6.75m14.6-23.85 17.15 3.75Q255 29.1 256 33.35q-.25.05-.9 5.9-.9 6 .2 7.6-6.15-4.15-12.95-5.95-4.45-1.15-10.95-.7l-8.5-.45q-3.85-1.2-4.9-6.05-.5-2.35 2.55-4.9 2.9-2.5 2.95-3.25-.35-1.35-3.1-2.75l.2-.75" fill="#2c71bb" fill-rule="evenodd" transform="translate(1.2 2.9)"/><path d="M216.3 5.65q1.7 5.25 14.6 9.05 3.5 1 8.8 1.4l4.6-.05q6.65-.6 14.5.4l10.1 1.7q14.2 2.65 19.2 7.1 4.2 4.25-2.85 11.1l1.75-.15q5.4-3.1 11-6l1.2-.2q1.5 4.05-1.85 8.5-5.85 5.85-21.9 8.85l-.1-.25q7.2-3.7 5.65-7.6l-7.45 1-3.6.6q1.6-1.1 1.75-4.45 0-1.15-.8-5.35-.9-6.05-5.6-6.95-4.5-1.1-27-3.05-9.25-1-16.55-7-4.8-4.1-5.45-8.65" fill="#192a59" fill-rule="evenodd" transform="translate(1.2 2.9)"/><path d="m256.25 49.75-1 2.55-.2.55-.45.95q-2.05 3.05-5.5 6.1l-3.6 1.55q-11.95 5.35-25.65 10.25l-3.5 1.2-3.2 1.2-7.85 2.5q-11.75 3.3-24.1 4-12.65.75-25.95-1.2-10.8-2.8-19.45-8.35-6.55-4.25-11.9-10.05l11.9 3.85 4.9 1.7q14.8 4.6 24.4 6.55l12.85 1.25h3.25q13.45-.2 24.1-2.4l7.85-2.05.6-.2 6.1-2q13-4.55 20.7-9.65l.95-.6q3.25-2.35 4.95-4.6l.4-.55 1.05-2.25h.9l7.45-.3" fill="#2a0534" fill-rule="evenodd" transform="translate(1.2 2.9)"/><path d="m249.1 59.9-3.55 2.75q-7.7 5.4-25.7 14.1l-6.7 3.2-2.45 1.1-5.4 2.4q-10.65 4.55-21 7.6l-3.1.8-4 .75q-8.5 1.45-16.45.3l-24.95-2.7-18.45-1.25-1.85-.1-3.75-.2-9.25-.45Q82.6 86.05 62.75 97q-2.3 1.25-4.55 2.7l-.25.15-5.4 3.65q-5.55 4-11.05 9l-3.75 3.95-4.55 5.05-.05.05q-2.4 2.6-5.4 4.7l-1.45.75q-2.75 1.05-5.6.85l-6.55-.9q-5.35-1.4-8.7-5.4l-1.5-2.1q-4.6-7.4-3.4-21.35.3-3.45 1.05-6.65 3.2-14.4 14.85-24.55l1.8-1.5q4.6-3.65 9.8-6.05 3.6-1.85 7.55-3.3 7.8-3 16.95-4.75l.2-.05 5.2-.85.25-.05 4.55-.5q11.95-1.05 24.35 1l8.05 1.45 5.05 1.2q5.35 1.15 11.55 3.2l3.75 1.3 1.4.5.45.15q3 .9 6.55 2.35 5.35 5.8 11.9 10.05 8.65 5.55 19.45 8.35 13.3 1.95 25.95 1.2 12.35-.7 24.1-4l7.85-2.5 3.2-1.2 3.5-1.2q13.7-4.9 25.65-10.25l3.6-1.55" fill="#642475" fill-rule="evenodd" transform="translate(1.2 2.9)"/><path d="m222 1.5-2.55.65-1.05 1q-.65.8-.95 1.8-.6 1.25-.25 2.85l.3.75q1.7 5.25 14.6 9.05 3.5 1 8.8 1.4l4.6-.05q6.65-.6 14.5.4l10.1 1.7q14.2 2.65 19.2 7.1 4.2 4.25-2.85 11.1l1.75-.15q5.4-3.1 11-6l1.2-.2q1.5 4.05-1.85 8.5-5.85 5.85-21.9 8.85m-.2 0-.9.2h-.1q-8.7 1.6-18 2.2l-7.45.3h-.9q-21.1.6-38.6-3.25l-3.3-.9q-5.8-1.8-8-4.65-3.3-3.85-3.45-7.55-.5-8.35-12.85-15.7l-7.25-3.05m43.8-15.7-1.25.25q-12.35 2.2-18.85 8.45-4.25 3.85.7 8.7 4.15 3.95 5.9 8.1.35 1 .05 2.6-.3.35-.25 1.5l-2.6-.55q-3-2.35-7.25-4.7l-4.25-1.95-8.75-3.65" fill="none" stroke="#2f0b0a" stroke-linecap="round" stroke-linejoin="round" stroke-width="3"/><path d="m257.45 52.65-1 2.55-.2.55-.45.95q-2.05 3.05-5.5 6.1l-3.55 2.75q-7.7 5.4-25.7 14.1l-6.7 3.2-2.45 1.1-5.4 2.4q-10.65 4.55-21 7.6l-3.1.8-4 .75q-8.5 1.45-16.45.3L137 93.1l-18.45-1.25-1.85-.1-3.75-.2-9.25-.45q-19.9-2.15-39.75 8.8-2.3 1.25-4.55 2.7l-.25.15-5.4 3.65q-5.55 4-11.05 9l-3.75 3.95-4.55 5.05-.05.05q-2.4 2.6-5.4 4.7l-1.45.75q-2.75 1.05-5.6.85l-6.55-.9q-5.35-1.4-8.7-5.4l-1.5-2.1q-4.6-7.4-3.4-21.35.3-3.45 1.05-6.65Q6 79.95 17.65 69.8l1.8-1.5q4.6-3.65 9.8-6.05 3.6-1.85 7.55-3.3 7.8-3 16.95-4.75l.2-.05 5.2-.85.25-.05 4.55-.5q11.95-1.05 24.35 1l8.05 1.45 5.05 1.2q5.35 1.15 11.55 3.2l3.75 1.3 1.4.5.45.15q3 .9 6.55 2.35l11.9 3.85 4.9 1.7q14.8 4.6 24.4 6.55l12.85 1.25h3.25q13.45-.2 24.1-2.4l7.85-2.05.6-.2 6.1-2q13-4.55 20.7-9.65l.95-.6q3.25-2.35 4.95-4.6l.4-.55 1.05-2.25" fill="none" stroke="#2a0534" stroke-linecap="round" stroke-linejoin="round" stroke-width="3"/><path d="M25.45 115.8q7.85-3.75 10.7-8.3 4.25-7.55 17.2-11.95Q71.8 90.6 77.85 77.9q1.2-9-11.1-9.4-15.1 3-37.6 13.85-13.35 5.85-17.1 20.75 4.8 14.35 13.4 12.7m79.6-35.2q1.95-2.65 1.45-5.85-.5-3.2-3.15-5.1-2.65-2-5.85-1.5-3.2.45-5.15 3.15-1.95 2.6-1.45 5.8.5 3.2 3.15 5.15 2.65 1.95 5.85 1.5 3.2-.5 5.15-3.15" fill="#c457a6" fill-rule="evenodd" transform="translate(1.2 2.9)"/></g><g id="o" fill-rule="evenodd"><path d="M59.2 134.35v-5q7.6-6.5 12.9-15.3 1.1-5-1-10.9L47.55 99.1q-27.6-9.35-7.05-24.15 3.4-1.6 8-1.4 4.5.1 10.2 2 11.25 4.9 28.4 3.9 2.95.15 4.5 3.8 5.4 8.5 10.8 14.9 1.8 1.05 1.5 4.9 1.2 14.7 3.8 25.5.9 4.65-1.2 16.7-2.2 4.5-6.8 3.75l1.5-3.5.1-.25.1-.4q2.25-4.7 3-12.4-1.4-3.6-1.8-9.5-.4 8.95-2.5 14.5l-10.9-10.1q-1.25-1-2.25-1.15 1.9-1.05 7.25 1.35 5.15-8.35 1.8-22.5l-5.3-12.8q-8.25-2.7-19.1-3.2-4.35 5.3-9.9 9l10.05 1.7 1.95.3q2 7.75 1.5 16.9-3.9 5.2-7.5 9.2-3.05 3.4-5.9 5.95-1.25.7-2.6 2.25m13.1-47.6q5.5-2.75 12.1-3.3-13.3-.3-23.6-3.8 3.65 8.7 11.5 7.1M81 132l-2 2.75-5.3-2.7q-1.5-1-2.4-.55 2.1-2.15 9.7.5" fill="#2a0534"/><path d="M67.7 126.15q3.6-4 7.5-9.2.5-9.15-1.5-16.9l-1.95-.3q5.35-1.75 12.55 2 3.35 4.35 2.4 13.4-.7 6.6-7.7 8.7-12.6 5.5-11.3 2.3" fill="#c457a6"/><path d="M61.8 132.1q2.85-2.55 5.9-5.95-1.3 3.2 11.3-2.3 7-2.1 7.7-8.7.95-9.05-2.4-13.4-7.2-3.75-12.55-2l-10.05-1.7q5.55-3.7 9.9-9 10.85.5 19.1 3.2l5.3 12.8q3.35 14.15-1.8 22.5-5.35-2.4-7.25-1.35-1.5-.25-2.55 1.15L81 132q-7.6-2.65-9.7-.5l-.6.55-1.05 1.85q-2.85-2.65-5.7-2.25-1.05-.1-2.15.45" fill="#642475"/><path d="M100.1 137.45q2.1-5.55 2.5-14.5.4 5.9 1.8 9.5-.75 7.7-3 12.4 1.3-6-1.3-7.4m-27.8-50.7q-7.85 1.6-11.5-7.1 10.3 3.5 23.6 3.8-6.6.55-12.1 3.3" fill="#425244"/><path d="M59.2 134.35q1.35-1.55 2.6-2.25 1.1-.55 2.15-.45 2.85-.4 5.7 2.25l1.05-1.85.6-.55q.9-.45 2.4.55l5.3 2.7 2-2.75 3.4-4.65q1.05-1.4 2.55-1.15 1 .15 2.25 1.15l10.9 10.1q2.6 1.4 1.3 7.4l-.1.4-.1.25-1.5 3.5q-2.85 6.35-6.5 12.45-1.2 5.9-4.3 7.2-3.4 1.25-5.3-1.9l-3.2-7.7q-1.5 3.75-4.5 7.1-2.15 1.35-3.9 0-2.7-1.8-4.2-6.4-1.6 4.3-5.9 2.8-3.45-6.55-6.1-15.4-1.3-6.2 3.4-12.8m26.8-6.2q-1.35 2.05-2.7 5.3l-2.1 5.6q-1.3 1.95 0 7.1l5.9 20.2 2-3.7.6-1.2 5.6-10.6 4.3-8.1q-2.8-4.2-5.6-7.4-3.95-4.5-8-7.2m-14.65 6.4q-2.7 4.3-3.95 9.5-1.35 3.25 0 6.1l6.1 13.3 1.3-2.35 3.6-6.65q-3.65-13.35 0-17.9-4.45-3.4-6.2-3.3l-.85 1.3m-6 6.75 1.85-3.2q-2.25-3.55-3.8-4.55l-3.6 6.3q-1.4 1.65 0 6.5l4 12.6.65-.9 1.75-2.7-1.8-4.45-.7-1.75q-.4-1.45-.3-2.95l.3-2.05 1.65-2.85" fill="#281e39"/><path d="M83.3 133.45q1.35-3.25 2.7-5.3 2.4 4.65 4.8 11.9 1.6 3.2 1.2 8.4l-2.3 13-.6 1.2-5.2-23q.6-6.7-.6-6.2m-9.8 30q.2-7.85-2.15-15.7-1.25-4.1 0-13.2l.85-1.3q2.95 5.5 2.8 14.4 1.1 6.9-.2 13.45l-1.3 2.35m-10.1-29.9 1.95 7.75-1.65 2.85-.3 2.05q-2.4-4.45 0-12.65" fill="#9a91b9"/><path d="M83.3 133.45q1.2-.5.6 6.2l5.2 23-2 3.7-5.9-20.2q-1.3-5.15 0-7.1l2.1-5.6m-9.8 30-6.1-13.3q-1.35-2.85 0-6.1 1.25-5.2 3.95-9.5-1.25 9.1 0 13.2 2.35 7.85 2.15 15.7M63.4 146.2q-.1 1.5.3 2.95l.7 1.75.05 7.15-.65.9-4-12.6q-1.4-4.85 0-6.5l3.6-6.3q-2.4 8.2 0 12.65" fill="#f4f5ff"/><path d="m89.7 161.45 2.3-13q.4-5.2-1.2-8.4-2.4-7.25-4.8-11.9 4.05 2.7 8 7.2 4.85 7.15 1.3 15.5l-5.6 10.6m-17.5-28.2q1.75-.1 6.2 3.3-3.65 4.55 0 17.9l-3.6 6.65q1.3-6.55.2-13.45.15-8.9-2.8-14.4m-8.8.3q1.55 1 3.8 4.55l-1.85 3.2-1.95-7.75m1 17.35 1.8 4.45-1.75 2.7-.05-7.15" fill="#3b304e"/><path d="M94 135.35q2.8 3.2 5.6 7.4l-4.3 8.1q3.55-8.35-1.3-15.5" fill="#98b49c"/><path d="M49.6 20.8q4.2-5.4 12-9.85 47.65-17.65 41.3 28.4l-3.15 5.45Q81.4 52.95 83.7 56.25q-11.5 2.9-13.95 6.55-1.6.65-2.85 1.45l1.7-.1q-1.95 4-2.6 7.3-3.05 11.6-12.7 13.6-27.6 5.2-29.9-10.4l2.6-5.9q11.8-1.5 19.3 6l5.7-2.4 7.8-13.5q-6.9-3.25-7-6-.45-4.55 1.1-7.9 2.6-7.3-3.3-24.15" fill="#441b07"/><path d="m99.75 44.8 3.15-5.45q6.35-46.05-41.3-28.4-7.8 4.45-12 9.85-2.4 3.05-3.6 6.45-.4 2.85-1.4 5.15-1.35 3.1-3.8 5.25-9.25 8.95-11.6 21.2l-1.15 3.8-2.05 6.1-2.6 5.9q2.3 15.6 29.9 10.4 9.65-2 12.7-13.6 1.95-3.65 7.9-7.7l-5.3.4-1.7.1q1.25-.8 2.85-1.45 5.8-2.35 16.15-2.55 4.55.1 13.85-15.45m8.05-3.65q-13.7 22-21.3 22.6-5.55 1.35-8.8 1.3-4.45 2.35-5.9 5.4-4.25 24.8-39.5 22.4-15.85-6.25-12.1-18.3l4-13.9q2.75-14.6 8.1-19.3 6.25-5.85 9.3-13.5.35-9.05 26.5-26.3 48.8-9.5 39.7 39.6" fill="#351302"/><path d="M66 71.45q.65-3.3 2.6-7.3l5.3-.4q-5.95 4.05-7.9 7.7m3.75-8.65q2.45-3.65 13.95-6.55-2.3-3.3 16.05-11.45-9.3 15.55-13.85 15.45-10.35.2-16.15 2.55" fill="#425244"/><path d="M49.6 20.8q5.9 16.85 3.3 24.15-1.55 3.35-1.1 7.9.1 2.75 7 6L51 72.35l-5.7 2.4q-7.5-7.5-19.3-6l2.05-6.1q2.1 1.7 6.05 0 3.05-2.2 8-1.1l7.4-11.1q-1-3.35-4.2-8.1l-.7-9.95q1-2.3 1.4-5.15 1.2-3.4 3.6-6.45" fill="#8d4b28"/><path d="m44.6 32.4.7 9.95q3.2 4.75 4.2 8.1l-7.4 11.1q-4.95-1.1-8 1.1-3.95 1.7-6.05 0l1.15-3.8q2.35-12.25 11.6-21.2 2.45-2.15 3.8-5.25" fill="#bd7c51"/><path d="M13.7 73.65q3.1.05 5.25 1.2l1.25.8q1.15 1 2.75 1.4l.9.15 2.95-.15q3.9 1.4 7 3.85 6.65 5.25 9.8 15.45.65 2.1 2.15 3.4.95.8 2.25 1.3l.3.1q-.25 2.45 1.5 3.3.65 1-.15 2.05-1.65 1.1-3.55 1.55-15.15.6-23.1-4.9-7.6-.9-9.7-5.3 2.8-.05 3.7-1.6l1-1.95 1.05-3.75.15-1.1q1.5.9 2.6-.8 1.3-1.65 0-5.5-1.8-4.15-3.6-1.3l-.8-2.25-1.2-2.6q-1.1-1.95-2.5-3.35m.45 4.9-2.85 2.2-.75-3.35 1.55-1.05 2.05 2.2m15.35 5.6q0-1.1-.55-1.85t-1.35-.75q-.8 0-1.35.75t-.55 1.85q0 1.1.55 1.85t1.35.75q.8 0 1.35-.75t.55-1.85m-.45 6.75L28 90.75q-4.8.15-4.3 3.5.25 1.8 2.05 4.5l.45.7q6.5 5.85 12.2 4.6 2.35-.75 2.8-1.95.3-.85-.3-1.9l-.7-.95q-3.05-4.1-9.4-7.6l-1.75-.75" fill="#d8b6d3"/><path d="M19.2 89.45q.15-2.45-.4-5l-.6-2.6q1.8-2.85 3.6 1.3 1.3 3.85 0 5.5-1.1 1.7-2.6.8m-7.9-8.7q-4.95 4.1-5.8 7.6l-1.7-3.7q2.5-4.2 6.75-7.25l.75 3.35m18.2 3.4q0 1.1-.55 1.85t-1.35.75q-.8 0-1.35-.75t-.55-1.85q0-1.1.55-1.85t1.35-.75q.8 0 1.35.75t.55 1.85" fill="#f9e5fb"/><path d="m13.7 73.65-3.6 2.2q3.3-6.2 10.5-5.4-1.35 1.75 2.3 1.2 9.8.6 14.8 6.3l1.35 1.7 1.6 2.2q4.35 6.5 7.55 16 .3-1.65 1.8-.5l.85.75.9 1.55q.65 1.4 1.05 3.5-1.4 2.1-3.15 3.35.8-1.05.15-2.05-1.75-.85-1.5-3.3l-.3-.1q-1.3-.5-2.25-1.3-1.5-1.3-2.15-3.4-3.15-10.2-9.8-15.45-3.1-2.45-7-3.85l-2.95.15-.9-.15q-1.6-.4-2.75-1.4l-1.25-.8q-2.15-1.15-5.25-1.2m.45 4.9.75 1.15q.9 1.55 1.4 3.5l.6 4.25-.25 5.45-.25 1.65q-.9 2.7-3.3 1.6-4.45-1.8-7.6-7.8.85-3.5 5.8-7.6l2.85-2.2" fill="#886b84"/><path d="M55.15 97.85q2.3 3.1.75 8.7-2.75 4.95-9.1 4.7-14.95 2.6-24.8-4.5-8-.3-11.9-7.4-8.4-4.1-9.9-11-1.4-4.9 7.5-13.4 1.5-9.45 13.8-7.9l.9 2.2q10.3 1.2 14.4 4.7 3.4 2.55 6 6.1L44 81.8q3.45 5.4 5.3 12.75 2.85.65 4.55 2l1.3 1.3m-5.5 8.65q1.75-1.25 3.15-3.35-.4-2.1-1.05-3.5l-.9-1.55-.85-.75q-1.5-1.15-1.8.5-3.2-9.5-7.55-16l-1.6-2.2-1.35-1.7q-5-5.7-14.8-6.3-3.65.55-2.3-1.2-7.2-.8-10.5 5.4l3.6-2.2q1.4 1.4 2.5 3.35l1.2 2.6.8 2.25.6 2.6q.55 2.55.4 5l-.15 1.1L18 94.3l-1 1.95q-.9 1.55-3.7 1.6 2.1 4.4 9.7 5.3 7.95 5.5 23.1 4.9 1.9-.45 3.55-1.55M5.5 88.35q3.15 6 7.6 7.8 2.4 1.1 3.3-1.6l.25-1.65.25-5.45-.6-4.25q-.5-1.95-1.4-3.5l-.75-1.15-2.05-2.2-1.55 1.05Q6.3 80.45 3.8 84.65l1.7 3.7m23.55 2.55 1.75.75q6.35 3.5 9.4 7.6l.7.95q.6 1.05.3 1.9-.45 1.2-2.8 1.95-5.7 1.25-12.2-4.6l-.45-.7q-1.8-2.7-2.05-4.5-.5-3.35 4.3-3.5l1.05.15m-3.65 4.4q.7 1.95 3.6 4.55l.8.7q5 2.25 8.25 1.3l.75-.3q.7-.2-.4-1.5-1.45-1.7-5.7-5.2-2.4-1.7-4.05-2.3l-.65-.2q-1.85-.5-2.6.6-.45 1.05 0 2.35" fill="#5d485a"/><path d="M25.4 95.3q-.45-1.3 0-2.35.75-1.1 2.6-.6l.65.2q1.65.6 4.05 2.3 4.25 3.5 5.7 5.2 1.1 1.3.4 1.5l-.75.3q-3.25.95-8.25-1.3l-.8-.7q-2.9-2.6-3.6-4.55" fill="#270027"/><path d="M46.25 81.65q8.4-.95 17.1-5.7l-.05 6.4q-6.45 6.95-11.25 8.8-.45-5.85-5.8-9.5" fill="#ff9a1c"/><path d="M53.85 96.55q-1.7-1.35-4.55-2Q47.45 87.2 44 81.8l2.25-.15q5.35 3.65 5.8 9.5 4.8-1.85 11.25-8.8l.05-6.4 4.85-2.9q4.55 2.9-.9 10.3-6.4 9-13.45 13.2" fill="#ad3f02"/><path d="m55.15 97.85-1.3-1.3q7.05-4.2 13.45-13.2 5.45-7.4.9-10.3l-4.85 2.9q-8.7 4.75-17.1 5.7L44 81.8l-1.2-1.75 4 .1q7.95-1.6 15.1-6.4l4.1-2.3q4.1-1.95 5.8-1 6.85 5.4-3.2 16.3-6.9 7.3-13.45 11.1" fill="#651801"/></g><g id="p" fill-rule="evenodd"><path d="M110.6 151.45q6.5 5.8 9 10.8.1 13.5-3.2 23.6-2.95 6.25-6.6 3.6-4.4-2.8-8-8.8-.55 8.95-3.4 15.6-2.3 8.25-8.4 2.2-10-6.55-17.2-21.4-3.85 9.8-9.2 15.8-5.2 6-9.6-3-2.65-5.5-4.6-14.6-1.2-9.5 5.45-18.25 1.7-2.2 3.9-4.35 1.55-1.65 3.45-3.2l.8.55q6.3 4.4 8.4 13.05l2.55-6.05 3.85-9.15q1.4-2.8 3.6-2.8t5.2 2.8q7.4 6.5 11.6 12.2l4.1-7.3.7-1.3q1-2 2.45-2.35 2.1-.55 5.15 2.35m-56.95 22.3q1.65 9.35 5.2 15.45l1.15 1.85q3.3-3.35 5.8-7.95l1.4-2.85q5.15-9.1 0-19l-.55-1.55-.1-.3q-1.55-3.9-3.95-6.95-7.1 9-9.6 17.2l.65 4.1M87.8 152.7l-.3-.3q-3.3-3.7-6.3-5.15-5 10.6-6 26 1.45 3.2 3.05 6 5.55 9.85 13 14.9l1.75 1.1 1.05-2.45q2.25-5.55 3.15-11.75.9-6.3.4-13.2-5.2-9.8-9.8-15.15m17.25 1.15q-1.8 4.1-3.55 9.7-1.25 5.9.75 10.45l.45.95q4.35 6.35 8.7 10.2 1.4-2.3 2.5-5.45.8-2.45 1.4-5.45 1-5.35 0-10.4-3-5.75-5.95-9.35-1.6-1.9-3.15-3.25l-1.15 2.6" fill="#281e39"/><path d="m58.85 189.2 1.75-28.95-6.95 13.5-.65-4.1q2.5-8.2 9.6-17.2 5.2 19.15-3.75 36.75m22.35-41.95q11.65 17 12.85 45.55L93 195.25l-1.75-1.1q-1.5-17.45-7.65-34.9-3.9 8.65-5.35 20-1.6-2.8-3.05-6 1-15.4 6-26M102.25 174q-2-4.55-.75-10.45 1.75-5.6 3.55-9.7 5.2 4.4 6.45 17.8l-.5 3.65q-2.9-5.3-5.1-13.55-1.45 2.35-3.65 12.25" fill="#9a91b9"/><path d="M58.85 189.2q-3.55-6.1-5.2-15.45l6.95-13.5-1.75 28.95m43.4-15.2q2.2-9.9 3.65-12.25 2.2 8.25 5.1 13.55-.4 4.75.4 9.85-4.35-3.85-8.7-10.2l-.45-.95m-11 20.15q-7.45-5.05-13-14.9 1.45-11.35 5.35-20 6.15 17.45 7.65 34.9" fill="#f4f5ff"/><path d="M54.85 157q-.8-8.35 3.85-16.75 6.4-11.1-4.3-41-5.45-17.4 8.7-19.6 12.5-1.45 16.9 5.9 10.9 18.95 15.2 32 4.35 18.75 10.7 26.8 5.7 3.9 4.7 7.1-3.05-2.9-5.15-2.35-4.4-2.4-8.15-11.95l5 15.6-4.1 7.3q-4.2-5.7-11.6-12.2-3-2.8-5.2-2.8 3.5-1.6 13 5.5l1-6.7q-4.95-.55-10.9-24.3-12.25 6.7-20.2 4l.8 3.65q.85 6.45-2 12.15-1.8 3.1-2.85 6.4-1.15 3.35-1.5 6.9-2.2 2.15-3.9 4.35m19.1 0-2.55 6.05Q69.3 154.4 63 150q3.55.65 10.95 7m5.85-64.95q3.1 19.6 13.5 34.1-3.35-17.05-13.5-34.1" fill="#2a0534"/><path d="M81.4 145.05q-2.2 0-3.6 2.8L73.95 157q-7.4-6.35-10.95-7l-.8-.55q-1.9 1.55-3.45 3.2.35-3.55 1.5-6.9 3.85 4.15 12.45-.3 4.75-2.2 6.4-7.5-.05-8.05-7.4-8.4-3.3-2.8-6.6-2.35l-.8-3.65q7.95 2.7 20.2-4 5.95 23.75 10.9 24.3l-1 6.7q-9.5-7.1-13-5.5" fill="#642475"/><path d="M65.1 127.2q3.3-.45 6.6 2.35 7.35.35 7.4 8.4-1.65 5.3-6.4 7.5-8.6 4.45-12.45.3 1.05-3.3 2.85-6.4 2.85-5.7 2-12.15" fill="#c457a6"/><path d="M62.6 152.45q2.4 3.05 3.95 6.95l.1.3q4.1 11.9-.85 23.4-2.5 4.6-5.8 7.95l-1.15-1.85q8.95-17.6 3.75-36.75m18.6-5.2q3 1.45 6.3 5.15l.3.3q7.8 11.7 9.4 28.35-.9 6.2-3.15 11.75-1.2-28.55-12.85-45.55M111 175.3l.5-3.65q-1.25-13.4-6.45-17.8l1.15-2.6q1.55 1.35 3.15 3.25 5.85 8.4 4.55 25.2-1.1 3.15-2.5 5.45-.8-5.1-.4-9.85" fill="#3b304e"/><path d="M105.45 149.1q-1.45.35-2.45 2.35l-.7 1.3-5-15.6q3.75 9.55 8.15 11.95M79.8 92.05q10.15 17.05 13.5 34.1-10.4-14.5-13.5-34.1" fill="#425244"/><path d="m66.65 159.7.55 1.55q5.15 9.9 0 19l-1.4 2.85q4.95-11.5.85-23.4m30.55 21.35q-1.6-16.65-9.4-28.35 4.6 5.35 9.8 15.15.5 6.9-.4 13.2m12.15-26.55q2.95 3.6 5.95 9.35 1 5.05 0 10.4-.6 3-1.4 5.45 1.3-16.8-4.55-25.2" fill="#98b59c"/><path d="m3.3 13.05-1.35.5v-.5Q15.4-7.1 46.8 3.85q13.65 6.95 26.6 20.6 2 3.65 3.2 12.6 11.65 17.05 13.05 34.5l-2.5 5.05L85.6 79v.45q-6.75 11.85-14.6 17-15.45 10.1-35.05-6.2-2.4-5.55-3.55-12.2-9.65-4.95-13.2-8.4-4.3-6.15-7.8-17Q-.55 39.55 0 16.25l2-2q1 20.95 7 30.8 7.75 7.1 13.2 21.6l1.95 1.2 12.05 7.4q2 14.4 9.2 19.8 13.35 7.05 25.65-.85Q78.5 89.4 85.6 79l-.6-4.3q.4-13.5-6.3-26.05Q74 41 72.1 33.35q-.65-5.9-2.3-8.1-14.25-15.85-28-20-22.35-6.55-38.5 7.8" fill="#351302"/><path d="m2 14.25 1.3-1.2q21.15-8 34.5-5.4 21 6.85 28.6 20l5.4 17Q82.65 62.25 85 74.7l.6 4.3q-7.1 10.4-14.55 15.2l.15-14.15-9.6-34.8q-1.15-6.7-7.8-7.2-17.15 6.85-32 6.8-5.1 5.2 2.35 23l-1.95-1.2Q16.75 52.15 9 45.05q-6-9.85-7-30.8" fill="#441b07"/><path d="M71.05 94.2q-12.3 7.9-25.65.85-7.2-5.4-9.2-19.8l-12.05-7.4q-7.45-17.8-2.35-23 14.85.05 32-6.8 6.65.5 7.8 7.2l9.6 34.8-.15 14.15M55.8 54.05q-1-6.55-5.8-10l-11 5.8H28.4q-1.1 4.05-.6 9.4l22.3 25.4 5.7-30.6" fill="#8d4b28"/><path d="m55.8 54.05-5.7 30.6-22.3-25.4q-.5-5.35.6-9.4H39l11-5.8q4.8 3.45 5.8 10" fill="#bd7c51"/><path d="M3.3 13.05Q19.45-1.3 41.8 5.25q13.75 4.15 28 20 1.65 2.2 2.3 8.1Q74 41 78.7 48.65 85.4 61.2 85 74.7q-2.35-12.45-13.2-30.05l-5.4-17q-7.6-13.15-28.6-20-13.35-2.6-34.5 5.4" fill="#425244"/><path d="m51.35 58.55.85-1q11.25 4.75 11.2 23.5-1.1 3.2 2.2 2.4-2.35 1.55-5.4 2.7l-4.65 1.2q.75-.9-.25-1.6-3.3-1.85-4.8-6.6-2.25-6.9 2.2-15.5 1.95-5.4-1.35-5.1m3.55 37.4q-.05-5.3 3-6.7l2.4-.5.95-.25q3.2 1.55 8.15-1.3 2.3-2.3 4.6-1.8-1.65 3.3-2.6 7.05-1.05 4.65 0 7.2l1.2.3q-.7 2.2 3.3 1.9 1.95-1 2.5 11.4-2.25 1.45-6.55 2.3-.5-4.1-2.85-7.1-3.2-4.8-4.1-1-.3 3.25 2.8 8.75l-2.7.25-1.9-.5q-.35-4.4-6.1-6.8-6.15-.8-8.8-4.3h9.1q4.25-1.55 2.2-4.7l-4.6-4.2" fill="#d8b6d3"/><path d="m52.2 57.55-.85 1q-9.25 11-7.25 24.3 4.05 5.55 11.45 4.5l4.65-1.2q3.05-1.15 5.4-2.7 7-4.6 7.8-12.8-6.05-12-21.2-13.1M42 69.05q2.75-8.4 9-12.9 12.2-.25 20.4 7.1 8.05 1.05 16.1 6.8 7.2 7.6 7.4 18.9-1.95 9.6-8.2 16.1l-3.7 8.2q-4.85 4-14 6.4-10.2 1.2-17.3-5.7-5.7-.95-12.1-5.6-6.5-5.95-6.3-15 2.5-15.7 8.7-24.3m0 22.1q.45 4.95 3.8 10.5 2.95 2.45 12.1.3Q49.75 93 42 91.15m15.9-1.9q-7.8 1.25-11.9-2-5.9-2.45-5.3-9.9-3.9 5.35-4 16.2.95 7.3 6.9 12.5 4.45 2.6 8.9 3.7 4 4.1 10.6 6.2l1.9.5 2.7-.25 4.15-.65q4.3-.85 6.55-2.3l1-.8q1.4-1.35 2.45-3 1.6-2.6 2.35-5.9l2.2-3.1q4.1-6.75 4.6-14.2-1.3-8.55-6.6-12.3-1.55-2.2-3.35-3.85-3.2-2.95-7.15-4.05 2.2 5.5 0 12.1-5.3 8.1-12.65 10.35l-.95.25-2.4.5m-9.7 15.6h-1.6q-6.85-6.95-5.8-15.1 6.6.1 14.1 6.2l4.6 4.2q2.05 3.15-2.2 4.7h-9.1M74 85.4q1.9-3.9 4.8-7.15 4.4-5 4.8 2.7 1.7 7.05 0 13.8-7.1 5.65-11 5.2l-1.2-.3q-1.05-2.55 0-7.2.95-3.75 2.6-7.05m8.6-2.05q-.55-6.85-2.7-4.2-5.5 5.85-6.5 18.8 3.45-.4 8.9-5.5.65-4.15.3-9.1" fill="#5d485a"/><path d="M51.35 58.55q3.3-.3 1.35 5.1-4.45 8.6-2.2 15.5 1.5 4.75 4.8 6.6 1 .7.25 1.6-7.4 1.05-11.45-4.5-2-13.3 7.25-24.3m6.55 30.7q-3.05 1.4-3 6.7-7.5-6.1-14.1-6.2-1.05 8.15 5.8 15.1h1.6q2.65 3.5 8.8 4.3 5.75 2.4 6.1 6.8-6.6-2.1-10.6-6.2-4.45-1.1-8.9-3.7-5.95-5.2-6.9-12.5.1-10.85 4-16.2-.6 7.45 5.3 9.9 4.1 3.25 11.9 2m13.95 26.3-4.15.65q-3.1-5.5-2.8-8.75.9-3.8 4.1 1 2.35 3 2.85 7.1" fill="#f9e5fb"/><path d="M42 91.15q7.75 1.85 15.9 10.8-9.15 2.15-12.1-.3-3.35-5.55-3.8-10.5m40.6-7.8q.35 4.95-.3 9.1-5.45 5.1-8.9 5.5 1-12.95 6.5-18.8 2.15-2.65 2.7 4.2" fill="#260026"/><path d="M81.05 70.1q1.8 1.65 3.35 3.85 5.3 3.75 6.6 12.3-.5 7.45-4.6 14.2l-2.2 3.1q-.75 3.3-2.35 5.9.15-6 2.95-12 2.25-5.4 2.1-16.4-1.45-6.1-5.85-10.95" fill="#98b59c"/><path d="M65.6 83.45q-3.3.8-2.2-2.4.05-18.75-11.2-23.5 15.15 1.1 21.2 13.1-.8 8.2-7.8 12.8M81.05 70.1q4.4 4.85 5.85 10.95.15 11-2.1 16.4-2.8 6-2.95 12-1.05 1.65-2.45 3l-1 .8q-.55-12.4-2.5-11.4-4 .3-3.3-1.9 3.9.45 11-5.2 1.7-6.75 0-13.8-.4-7.7-4.8-2.7-2.9 3.25-4.8 7.15-2.3-.5-4.6 1.8-4.95 2.85-8.15 1.3 7.35-2.25 12.65-10.35 2.2-6.6 0-12.1 3.95 1.1 7.15 4.05" fill="#886b84"/></g><g id="q" fill-rule="evenodd"><path d="m133.6 243.7-3.4 3q-24.7-55.55-71.55-17.1l-1.2-4.6q12.8-9.75 24-13.3 24.3-7.75 41.25 13.6 5.9 7.4 10.9 18.4" fill="#4f0c2c"/><path d="m57.45 225-12.4-47.25 82-25.5q27.1 33.65 6.55 91.45-5-11-10.9-18.4 3.15-6.55-1.5-15.4-4.55-9.95-8.1-9.1-.75-.25-1.5 2.2-1.1 6.05-15.75 4.85-2.35.75-7.95 0-7.2 1.15-6.45 3.85-11.2 3.55-24 13.3" fill="#761d49"/><path d="M122.7 225.3q-16.95-21.35-41.25-13.6-.75-2.7 6.45-3.85 5.6.75 7.95 0 14.65 1.2 15.75-4.85.75-2.45 1.5-2.2 3.55-.85 8.1 9.1 4.65 8.85 1.5 15.4" fill="#c7478f"/><path d="M60.55 138.9q3.9-5.05 8.85-6.6 23.8-.2 38.4 6 5.95 2.75 5.6 7.6-9.55-2.65-14.6 15-2 12.7 2.8 26.8 1.55.95 4 1.5l-4.55.2q-3.15-1.5-3.65-5.1-4.45-28.6 10.2-40.8-26-12.3-40.65-8.9-7.4 7-10.4 17.35l-.4 1.45q-1.2 4.55-1.55 9.7l-.1 1.95v4.35l.1 2.9.25 3.45q1.55 18.1 8.75 21.55 11.25 5.55 33.4 3 10.6-1.1 10.7-9.9l2.3-.75h.8q-1.4 7.35-7.4 12.45-17.9 2.75-31.8 0-12.2-1.55-15.2-10l-.95-3.05Q50.4 171.5 54 152.1q2.75-8.25 6.55-13.2" fill="#651801"/><path d="m89.65 160.1.35-1.4q3.1-6.9 0-8 .55-5.75-5.6-7.3-6.75-2.6-9.2-2.1 5.3 3.2 6.4 6.3H71.5q-3.1 1.7-8.1 1.5-5.1 1.05-6.85 2.85 3-10.35 10.4-17.35 14.65-3.4 40.65 8.9-14.65 12.2-10.2 40.8.5 3.6 3.65 5.1 1.5.7 3.6.95-1.9 1-3.85 5.05-5.15 2.3-15.8 3.5-13.45-.2-21.4-1.6-7.2-3.45-8.75-21.55 18.25 7.35 32.95 2.85v-3.05l.1-3.55q.1-2.1.35-4.05.45-4.25 1.4-7.85" fill="#ad3f02"/><path d="M56.55 151.95q1.75-1.8 6.85-2.85 5 .2 8.1-1.5h10.1q-1.1-3.1-6.4-6.3 2.45-.5 9.2 2.1 6.15 1.55 5.6 7.3 3.1 1.1 0 8l-.35 1.4q.15-3.75-5.65-4.3-7.85-.35-13.7-2.3-9.25-1.6-14.15-.1l.4-1.45m31.7 16Q88 169.9 87.9 172q-19.95-1.4-33.4-6.95l.1-1.95q6.75 1.85 15.5 1.7 6.65 2.15 18.15 3.15m-.45 7.6v3.05q-14.7 4.5-32.95-2.85l-.25-3.45-.1-2.9q14.8 5.8 33.3 6.15" fill="#ff9a1c"/><path d="M89.65 160.1q-.95 3.6-1.4 7.85-11.5-1-18.15-3.15-8.75.15-15.5-1.7.35-5.15 1.55-9.7 4.9-1.5 14.15.1 5.85 1.95 13.7 2.3 5.8.55 5.65 4.3M87.9 172l-.1 3.55q-18.5-.35-33.3-6.15v-4.35q13.45 5.55 33.4 6.95" fill="#ffffa0"/><path d="M136.7 179.2q-3.7 5.5-11.8 9.1-8.4 1.4-14.1 1.35l.05-.3-.85.3-2.3.75-3.05-.05q-2.1-.25-3.6-.95l4.55-.2q-2.45-.55-4-1.5-4.8-14.1-2.8-26.8 5.05-17.65 14.6-15-11.65 15.95-6 30.6 6.55 12.15 29.3 2.7" fill="#2a0534"/><path d="M113.4 145.9q25.5.65 26.35 21.15l-.05 3.4q-.4 4.85-3 8.75-22.75 9.45-29.3-2.7-5.65-14.65 6-30.6m-57.95 43.15L9.95 176.6q-26.8-39.9 18.55-42.25l32.05 4.55q-3.8 4.95-6.55 13.2-3.6 19.4 1.45 36.95" fill="#642475"/><path d="M63.6 197.3q7.95 1.4 21.4 1.6 10.65-1.2 15.8-3.5 1.95-4.05 3.85-5.05l3.05.05q-.1 8.8-10.7 9.9-22.15 2.55-33.4-3" fill="#98b5a3"/><path d="m170.45 116.9 1.85 1q63.55 36.05 93.9 92.85-62.3-76.7-83-62.05-19.55 9.1-27.6 52-6.8 18.6-4.1 32.55-9 3.3-18 7.9 14.15-44.2 6.65-89.5 3.3-48.1 30.3-34.75" fill="#761d49"/><path d="M170.45 116.9q-27-13.35-30.3 34.75-4.65-28.25-17.75-56.95 26 9.85 48.05 22.2" fill="#2a0534"/><path d="M151.5 233.25q-2.7-13.95 4.1-32.55 8.05-42.9 27.6-52 20.7-14.65 83 62.05l.15.3q4.15 7.75 7.65 15.9l.3.65.1.2.2.55.1.2 2.45 6.05q5.15 14 .35 17.2-61.55-42.35-126-18.55" fill="#c7478f"/><path d="M133.5 241.15q9-4.6 18-7.9 64.45-23.8 126 18.55-2.8 1.8-8.95-.05-63.25-41.85-136.95-5.05l1.9-5.55" fill="#4f0c2c"/><path d="M172.95 118.4q-19-11.15-41.2-21.15-18.55-13.95 5.5-26.7 28.85-3.5 54.35-3.35-58.1 12.9-18.65 51.2" fill="#2a0534"/><path d="M172.95 118.4Q133.5 80.1 191.6 67.2q86.65.6 134.5 43.75-12.9 6.15-22.75 14.2h-.05q-4.3-4.4-3.3-12.45-.2-10.45-11.2-14.4-36.25-17.85-73.85-10.8-40.05 17.15 1.2 61.1-19.05-16.05-43.2-30.2" fill="#761d49"/><path d="M289.75 248.7q-3.2 2.25-8.95-1.6-14.05-55.85-64.65-98.5-41.25-43.95-1.2-61.1 37.6-7.05 73.85 10.8 11 3.95 11.2 14.4-1 8.05 3.3 12.45-15.4 12.55-23.3 29.75-14.9 30.9 9.75 93.8" fill="#c7478f"/><path d="m326.1 110.95 1.5 1.35q-73.2 41.35-34.8 130.8-.95 4.1-3.05 5.6-24.65-62.9-9.75-93.8 7.9-17.2 23.3-29.75h.05q9.85-8.05 22.75-14.2" fill="#4f0c2c"/><path d="M154 94.2q.25-3.75 4.7 2.9 3.15 4.35 3.5 8.7l7.5 5.2q-6.55-2.6-10.5-6.3-1.45-6.95-5.2-10.5m1.9 29.3q-2.4 1.95-8-.1-4.1-4.1-3-7.5 4.7 6.35 11 7.6" fill="#425143"/><path d="M154 94.2q3.75 3.55 5.2 10.5 3.95 3.7 10.5 6.3l-7.5-5.2q-.35-4.35-3.5-8.7-4.45-6.65-4.7-2.9m43.7 39.3-5.15-3.5-8.35-5.5q-7.85-6.4-21.8-12.8-2.8-1.1-4.8-4.2-2.9-4.3-7.4-1.9-3.9 4.05-1.5 10.7 3.35 6.9 9.8 3.7l.2 1.7q2.7-.65 7.7.6 36.05 17.9 72.8 53.6 23.35 29.45 24.6 44.6 1.05 9.9-1.8 19.6-1.1 7.75 4.8 11.65-1.8 4.45-2.6 11.35-9.1-4.85-6.4-23 4.35-10.9 3.2-25-11.5-27.15-32.4-46.4-46.05-42.6-70.2-45-6.45 4.6-14.1.8-11.05-7.8-10.2-19.3 3.05-14.25 15.7-15.1 12.7 1.15 14 14.8 35.6 20.55 69.8 49.2 22.9 20.55 38.6 49l14.2 21.6q12.5 10.65 12.2 19.8-.05 13.75-9.5 19.55 1.05-7.05-2.25-11.1 3.3-13.05-6.85-22.85-6.7-16.9-17.6-32.6-9.55-18.65-25.8-34.6-18.05-15.1-38.9-29.4m-41.8-10q-6.3-1.25-11-7.6-1.1 3.4 3 7.5 5.6 2.05 8 .1" fill="#2a0534"/><path d="m192.55 130 5.15 3.5q24.65 19 42.1 38 20.7 21.65 28.4 47.6 2.2 8.3 6.6 11.4 4.95 3.35 5.8 8.2 1.9 6.1-8.6 6.4-10.2 1.9-10-5 2.85-9.7 1.8-19.6-1.25-15.15-24.6-44.6-36.75-35.7-72.8-53.6-5-1.25-7.7-.6l-.2-1.7q-4 .75-6.1-2.3-2.6-2.75-2-6.3 2.15-4.1 5.5-3 .7 3.05 5.3 5.7 14.3 5.15 31.35 15.9" fill="#be54a2"/><path d="M192.55 130q-17.05-10.75-31.35-15.9-4.6-2.65-5.3-5.7-3.35-1.1-5.5 3-.6 3.55 2 6.3 2.1 3.05 6.1 2.3-6.45 3.2-9.8-3.7-2.4-6.65 1.5-10.7 4.5-2.4 7.4 1.9 2 3.1 4.8 4.2 13.95 6.4 21.8 12.8l8.35 5.5M262 240.1q-.2 6.9 10 5 10.5-.3 8.6-6.4-.85-4.85-5.8-8.2-4.4-3.1-6.6-11.4-7.7-25.95-28.4-47.6-17.45-19-42.1-38 20.85 14.3 38.9 29.4 16.25 15.95 25.8 34.6 10.9 15.7 17.6 32.6 10.15 9.8 6.85 22.85-1.5-1.8-3.85-3.05-11.55-3.85-15.4 0l-.8 1.85q-5.9-3.9-4.8-11.65" fill="#642475"/><path d="M286.85 252.95q3.3 4.05 2.25 11.1l-1.3 5.25q-7.8 14.15-21.6 21-11.1 4.5-6.6-4.8 3.75-13 4.6-22.4.8-6.9 2.6-11.35l.8-1.85q3.85-3.85 15.4 0 2.35 1.25 3.85 3.05m-6.75-1.3q-2.55-1.15-6-1.55-7.6.05-6.2 12.6 0 15.3-4.5 24 3.25-.3 16-12.8 7.8-10.6 6.1-17.7-1.85-2.95-5.4-4.55" fill="#281e39"/><path d="M263.4 286.7q4.5-8.7 4.5-24-1.4-12.55 6.2-12.6 3.45.4 6 1.55-3.75.8-3.3 5.45-3.25 22.3-13.4 29.6" fill="#9a91b9"/><path d="M280.1 251.65q3.55 1.6 5.4 4.55 1.7 7.1-6.1 17.7-12.75 12.5-16 12.8 10.15-7.3 13.4-29.6-.45-4.65 3.3-5.45" fill="#4c4060"/><path d="M328.6 116.2q1.9-6.65-5.2-11.7-9.35-16.15-58.6-27.2l-61.5-12q-19.85-3.1-40.8-3.1-8.05 1.6-5.9 8.1 2.5 6.7 8.5 8.6-3.75 2.15-8.5 2.2-6.2-1.65-6.5-5.7-2.3 3.05 1.5 6.4 2.15 2.7 5.05 2.95 2.45.35 9.25-6.15 4.45-1.45 10.8-2.6l.25-.05q9.3-1.75 22.65-2.95l25.95 1.5q55.7 5.05 82.05 25.8 1.05 2.35 1.55 6.35.45 3.8.45 9.05.45 2.5 1.2 4.5 1.45 4 4.05 5.8-.6 3.45.55 6.9-10.6-6.85-10.4-19.8 1.4-11.75-1.4-13l-11.8-7.25Q235.95 69.05 173.5 78q-8.55.75-10.5 5.7-6.75 2.95-23 2.6-16.15-.8-22.2-13.6-4.55-15.65 9-26 15.2-4.65 27.6 4 7.95 5.1 22.8 6.4 127.5 11.4 147.2 39.4 20.1 15 12.2 29.2-3.25-7.4-8-9.5" fill="#2a0534"/><path d="M165.1 78.9q-6-1.9-8.5-8.6-2.15-6.5 5.9-8.1 20.95 0 40.8 3.1l61.5 12q49.25 11.05 58.6 27.2 7.1 5.05 5.2 11.7-1.9-.85-4-.9-9.3 1.05-9.2 8.4l-.55 2.3q-2.6-1.8-4.05-5.8 1.65-4.55 9.2-6.1 4.05-4.85 1.9-9.25-5.65-1.8-12.75 1.8-.5-4-1.55-6.35-26.35-20.75-82.05-25.8-26.1-5.55-55.85-7.5-10.35-.4-7.8 4.3 1.7 5.6 14.8 4.7-6.35 1.15-10.8 2.6l.9-.9-1.6 1.1-.1.1" fill="#642475"/><path d="M165.9 78.6q-6.8 6.5-9.25 6.15-2.9-.25-5.05-2.95-3.8-3.35-1.5-6.4.3 4.05 6.5 5.7 4.75-.05 8.5-2.2l.1-.1.7-.2" fill="#425143"/><path d="M310.8 120.2q-.75-2-1.2-4.5 0-5.25-.45-9.05 7.1-3.6 12.75-1.8 2.15 4.4-1.9 9.25-7.55 1.55-9.2 6.1m-85.25-45.7L199.6 73q-13.35 1.2-22.65 2.95l-.25.05q-13.1.9-14.8-4.7-2.55-4.7 7.8-4.3 29.75 1.95 55.85 7.5" fill="#c457a6"/><path d="M328.6 116.2q4.75 2.1 8 9.5 2.15 25.65-11.6 38.2-1.55-24.85-9.6-31-1.15-3.45-.55-6.9l.55-2.3q-.1-7.35 9.2-8.4 2.1.05 4 .9m2.85 27.5q3.15-11-.25-22.4-4.45-5.9-10.4-2-3.6 3.55 0 10 7.05 8.2 7.4 22.4 2.05-3.95 3.25-8" fill="#281e39"/><path d="M320.8 119.3q9.6 4.8 10.65 24.4-1.2 4.05-3.25 8-.35-14.2-7.4-22.4-3.6-6.45 0-10" fill="#9a91b9"/><path d="M331.45 143.7q-1.05-19.6-10.65-24.4 5.95-3.9 10.4 2 3.4 11.4.25 22.4" fill="#4c4060"/><path d="M119.55 20.55q-1.9-.95-4.55.55-4.4 4.6-9.5 6.6-4.35.25-7.3 6.6-2.7 4.6 0 6l-.7 3.6q-3.95-2.45-3.3-8.8l-6.05 2.85-.05-5.35q-3.7-9.65-13.4-10.3-4.95.35-8.3 2.7l.7-.85q6.4-6.8 15.8-3.95 7.5-3.7 12-13.7-1.8-.85-3.95-1.4Q85.6 3.65 78 3.9q-8.4 11.95-16 17.7.2 4.85-.9 10-.95 2.2-1.5 4.9-1 6.05-1.55 13.2-5.15.45-5.45 6-2.65-7.15-10.8-8.8-2.75.15-4.9 1.15 3.15-2.95 6-3.45 2.8-.55 5.3 1.3 1.95-3.85 2.7-11.3-2.65-3.75-5.1-4.85l-1.3-.45q-9.55 10.5-13.7 21.8-1.65 2.5.35 3.05-.65 1.4-1.15 3.15-4.45-2.05-2.1-7.9 4.2-10.85 11.9-21.7 2.1-4.1 8.2-1.8h9.9v-6.6Q66.75 12.25 74.8.2q14.45-.85 24.6 2.3 1.85 1.35 3.7 5.8 3 6.75 7.1 11.3 2.15-4.7 11.3-3.2 14.15 4.8 22.2 16.9 5.65 46.7 5.5 116.6 6.2 35.45-2 62.4l-2.6 13.4q1.55 3.25 0 10.4 2.55 15.5-11.8 14.8 3.9-4.45 2.8-8.45 3.6-.95 4-16.65.85-10.15 3.1-17.3 2.45-14.2 0-34 .1-15.1-3.5-33.2 1.3-22.2-.6-49.8V66.7q-1.7-27.9-10.1-29.9-4.35 7.05-11.1 11.7 1.35-2.65 1.3-5.9-1.85-6.9-10.5-9.2 4.75-1.75 8 .5 1.9.95 4.2-1.1 3.9-3.65 1.6-9.4-1-2.15-2.45-2.85M139 34.8q-4-6.95-10.3-9.7 12.5 7.3 12.1 38.6 2.9 21.1 1.2 31.4 3-7.75 2.6-27.2L139 34.8M85.05 48.15q4.8.9 5.55-4.85 1.05-3.15 2.5 0-.1 2.15-2 5.7-1.6 1.65-7.8 1.35l.8-.85.95-1.35M73.5 59.65q5.65 4.75 6.7 9.25Q78.55 78 74 84.2q-2.25.9-6.2-.05-1.5-.85-3.4-1.55 1.2-2.7 4.6-2.8 2.25.5 3.3-2.1.25-4 3.5-9.1-2.3-4.2-5.3-6.25l3-2.7m37 22.15Q108 76 108.35 70q.95 5 3.15 9.8l2.05 4 2.75 4.3q5.15 6.2 11.8 5.5-11.4 3.6-17.6-11.8M99.4 25.1q2.6-2.2 6.4-2.5-4.5-4.7-7.4-12.5 1.05 8.45 1 15m13.8 28.45.5-.65 1.5-1.35q1.55.7 4.9 0 3.8-3.7 6.8-8.95.15 3.55-4.8 10.1-1.05 1.6-8.9.85m-1.15 55.9q-2.65 1.95-7.85 3.25 4.5 15.05 5 38.8-.25 3.65.2 6.95l.15.9q1.25 7.85 6.45 13.35-7.55-.25-10-10.8-1.15-4.95-1.2-12.2-.25-21.25-4.5-36.9-4.55-1.6-7.6-5.4-1.15 1.55-4.2 2.7-3.85.9-8 4.2-1.7 2.85-3.8 2.7l-14-3.2q-8.1-3.65-6.05-9.85.9.9 2.05 1.5 2.3 3.85 10.7 5.95 5.35.8 8 0l10.2-6.2 3.8-2.3q2.5-.95 3.4 0 2.85 3.7 6.5 5.4 7.8 0 12.8-1-.7 1.15-2.05 2.15m8.55 72.95 5.5 2.7q2.6 3 2.9 9.1.85-4.65 3.6-10.1 1.8-4.95 2.4-11.8 1.4 4.4 2.1 11.3 1.4 4.05 2.1 10.6-.2 13.65-4.2 27.6-.3 3-2.55 5.15-1.3 1.2-3.15 2.15-2.8 2.25-4.3 4.25-2.3 3-1.45 5.35l-3.4 3.35q-3.45-8.2 5.25-14.55 8.9-5.75 11-21.7 1.15-11.05 0-19-2.75 6.25-7.4 11-2.4.5-2.2-2 .3-4.5-1-7.8l-5.2-5.6M58.1 30.5h-7.2l7.2 3.6v-3.6m-.45 26.4-.15 4.5q-2.6 3.45-7.15 1.55l.55-1.55q1.6 1.25 2.8 0 2.9-1.5 3.95-4.5" fill="#2a0534"/><path d="M98.2 40.3q-2.7-1.4 0-6 2.95-6.35 7.3-6.6 5.1-2 9.5-6.6 2.65-1.5 4.55-.55 1.05 3.35-5.05 6.65-5.85 2.9-9.15 6.45-5.7 1.05-7.15 6.65M31.15 54.15q-2-.55-.35-3.05 4.15-11.3 13.7-21.8l1.3.45q.55 2.85-2.9 6.45v8.4q-2.85.5-6 3.45-3.75 1.75-5.75 6.1M61.1 31.6q1.1-5.15.9-10 7.6-5.75 16-17.7 7.6-.25 12.95 1.2-1.05 2.65-7.05 2.2-12.3 7.6-16.8 16.85l-.7.85q-3.45 2.3-5.3 6.6m48.45 127.75-.15-.9q-.45-3.3-.2-6.95-.5-23.75-5-38.8 5.2-1.3 7.85-3.25 2.8-1.95 6.95 18.25 4.75 25.9 0 39.6-3.4 1.85-9.45-7.95M87.6 105.2l-10.2 6.2q-2.65.8-8 0-8.4-2.1-10.7-5.95 3.2 1.65 7.9.45 5.55-.85 5.5 2.4 2.7 1.05 6.2-1.1 5.4-3.5 9.3-2" fill="#e16ec1"/><path d="M119.55 20.55q1.45.7 2.45 2.85 2.3 5.75-1.6 9.4-2.3 2.05-4.2 1.1-3.25-2.25-8-.5l-2.85.25q3.3-3.55 9.15-6.45 6.1-3.3 5.05-6.65m8.95 16.25q8.4 2 10.1 29.9v24.8q1.9 27.6.6 49.8 3.6 18.1 3.5 33.2 2.45 19.8 0 34-2.25 7.15-3.1 17.3-.4 15.7-4 16.65-.45-1.5-1.6-2.95-3.65-4.65-8.8-2.6l-1.65 1.8q-.85-2.35 1.45-5.35-.05 2.55 5.4 1.95 4.05-1.45 4.6-3.3 1.1-4.5-2.55-5.05 2.25-2.15 2.55-5.15 4-13.95 4.2-27.6-.7-6.55-2.1-10.6-.7-6.9-2.1-11.3-.6 6.85-2.4 11.8-2.75 5.45-3.6 10.1-.3-6.1-2.9-9.1l-5.5-2.7q-11 1.3-13.8-7.1-1.5-8.9-.8-13.4 2.45 10.55 10 10.8-5.2-5.5-6.45-13.35 6.05 9.8 9.45 7.95 4.75-13.7 0-39.6-4.15-20.2-6.95-18.25 1.35-1 2.05-2.15-5 1-12.8 1-3.65-1.7-6.5-5.4-.9-.95-3.4 0l-3.8 2.3q-3.9-1.5-9.3 2-3.5 2.15-6.2 1.1.05-3.25-5.5-2.4 6.25-4.6 8-9.2 0-1.85-.4-3.7 4.6-3.9 10.4-3.4 4.2.35 5.7 3.4 1.85 2.65 7.5 1.6 4.9-1.1 7.5-4.5 1.2-3.45.4-6.7-2.3-4.45-1.1-7.8 3.05 4.2 5.9 6.2 6.2 15.4 17.6 11.8-6.65.7-11.8-5.5l-2.75-4.3q8.6 3 12.05-.1 3.9-6.7 0-16.2 3.5-19.75 2.9-30.7m-82.7-7.05q2.45 1.1 5.1 4.85-.75 7.45-2.7 11.3-2.5-1.85-5.3-1.3v-8.4q3.45-3.6 2.9-6.45M90.95 5.1q2.15.55 3.95 1.4-4.5 10-12 13.7-9.4-2.85-15.8 3.95Q71.6 14.9 83.9 7.3q6 .45 7.05-2.2" fill="#642475"/><path d="M108.2 33.4q8.65 2.3 10.5 9.2.05 3.25-1.3 5.9-.85 1.65-2.2 3.05l-1.5 1.35-.5.65Q107.55 60.9 101 65.5q-2.5 3-3.5 1.8-1.95-10.3 0-23.4l.7-3.6q1.45-5.6 7.15-6.65l2.85-.25m27.4 209.05q1.1 4-2.8 8.45-17.45 6.25-24.8 0 5-2.15 12.15-8.85l3.4-3.35 1.65-1.8q5.15-2.05 8.8 2.6 1.15 1.45 1.6 2.95M30 57.3q.5-1.75 1.15-3.15 2-4.35 5.75-6.1 2.15-1 4.9-1.15 8.15 1.65 10.8 8.8l-1.7 5.7-.55 1.55q-2.55 6.6-6.75 13.75-4.45 7.95-6.6 4.6-4.55-6.65-7-24m28.05-7.6q.55-7.15 1.55-13.2.55-2.7 1.5-4.9 1.85-4.3 5.3-6.6 3.35-2.35 8.3-2.7 9.7.65 13.4 10.3l.05 5.35q-.4 6.05-3.1 10.2l-.95 1.35-.8.85-9.8 9.3-3 2.7-7.2 5.95q-5.55 3.55-5.9 0l.1-6.9.15-4.5.4-7.2m55.45-11q-1.85-1.65-3.7-2.4-1.15-.5-2.25-.65-3.95-.5-7.75 3.15-1.15 11.35-.35 21.35l.35 3.55.95-1.05L104 59q2.55-1.7 4.75-4 2.2-2.25 4.05-5.1 4.7-3.75 2.3-9.7l-1.6-1.5m-34-13.1q-10.35-4.25-16.1 4.8-3.35 19.15-3 36.1 6-4.6 12.35-10.3l9.45-8.9q6.35-10.5 1.55-17.55-1.6-2.25-4.25-4.15M67.8 84.15q3 1.6 4.4 3.45 1.4 2.7 2 5.4.4 1.85.4 3.7-1.75 4.6-8 9.2-4.7 1.2-7.9-.45-1.15-.6-2.05-1.5l-.75-.85q-5.7-14.3-8.1-24.7 10.4 1.75 16.6 4.2 1.9.7 3.4 1.55m4.3 13.45q.8-5.6-3.5-9.7l-.9-.45q-8-3.95-15.7-5.9l-1.8-.45 8.5 19q1.2 3.15 3.25 3.85l.85.15q2.65-.15 5-1.75 1.75-1.25 3.35-3.35l.95-1.4M45.4 68.05q2.1-3.8 4-8.25 1.25-5.6-2.9-8.9-.55-.35-1.05-.6-2.4-1.25-4.7-1.3-2.15-.05-4.25.9-3.4 2.3-3.9 5.7l.55 4.1q1.6 10.65 5.25 18.7l1.65-2.05q2.85-3.7 5.35-8.3M116.5 250q8.3.9 17-4.2.9-3.15-1.2-5.9-2.95-1.7-5.9-.4-4.95 7.45-9.9 10.5" fill="#281e39"/><path d="M109.8 36.3q1.85.75 3.7 2.4 1.25 7.75-4.75 16.3-2.2 2.3-4.75 4l-3.25 3.65 7.05-22.35q-.15-3.7 2-4M79.5 25.6q2.65 1.9 4.25 4.15-.05 6.2-3.35 14.55-2.7 5.15-6.05 8.85-4.1 4.6-9.15 6.95 9.3-16.9 14.3-34.5M45.45 50.3q4.5 4.35-.05 17.75-2.5 4.6-5.35 8.3l.7-27.35q2.3.05 4.7 1.3m86.85 189.6q2.1 2.75 1.2 5.9-8.7 5.1-17 4.2 5.3-.3 11.7-5.9 1.1-3.05 4.1-4.2" fill="#3b304e"/><path d="M109.8 36.3q-2.15.3-2 4l-7.05 22.35-.95 1.05-.35-3.55q3.85-14 8.1-24.5 1.1.15 2.25.65" fill="#9b93ba"/><path d="M108.75 55q6-8.55 4.75-16.3l1.6 1.5q2.4 5.95-2.3 9.7-1.85 2.85-4.05 5.1" fill="#98b59c"/><path d="m139 34.8 5.6 33.1q.4 19.45-2.6 27.2 1.7-10.3-1.2-31.4.4-31.3-12.1-38.6 6.3 2.75 10.3 9.7m-39.6-9.7q.05-6.55-1-15 2.9 7.8 7.4 12.5-3.8.3-6.4 2.5m-41.3 5.4v3.6l-7.2-3.6h7.2" fill="#425143"/><path d="M107.55 35.65q-4.25 10.5-8.1 24.5-.8-10 .35-21.35 3.8-3.65 7.75-3.15M63.4 30.4q5.75-9.05 16.1-4.8-6.05-.9-17.5 33.9 2.5-16.55 1.4-29.1m4.4 71.95q-2.35 1.6-5 1.75l-.85-.15q-3.9-7.4-5.35-13.35 4.95 4.45 9.6 7.2 2.15 1.5 1.6 4.55m-27.75-26L38.4 78.4q-3.65-8.05-5.25-18.7l-.55-4.1q.5-3.4 3.9-5.7 2.1-.95 4.25-.9l-.7 27.35" fill="#f4f5ff"/><path d="M117.4 48.5q6.75-4.65 11.1-11.7.6 10.95-2.9 30.7 3.9 9.5 0 16.2-3.45 3.1-12.05.1l-2.05-4q3.05 1.05 6.4.1 3.95-1.5 5.1-6.9.7-7.85-4.3-10.3-7.05-2.95-9.7 2.6-.55 2.35-.65 4.7-.35 6 2.15 11.8-2.85-2-5.9-6.2-1.2 3.35 1.1 7.8.8 3.25-.4 6.7-2.6 3.4-7.5 4.5-5.65 1.05-7.5-1.6-1.5-3.05-5.7-3.4-5.8-.5-10.4 3.4-.6-2.7-2-5.4-1.4-1.85-4.4-3.45 3.95.95 6.2.05 4.55-6.2 6.2-15.3-1.05-4.5-6.7-9.25l9.8-9.3q6.2.3 7.8-1.35 1.9-3.55 2-5.7-1.45-3.15-2.5 0-.75 5.75-5.55 4.85 2.7-4.15 3.1-10.2l6.05-2.85q-.65 6.35 3.3 8.8-1.95 13.1 0 23.4 1 1.2 3.5-1.8 6.55-4.6 12.2-11.95 7.85.75 8.9-.85 4.95-6.55 4.8-10.1-3 5.25-6.8 8.95-3.35.7-4.9 0 1.35-1.4 2.2-3.05m-64.8 7.2q.3-5.55 5.45-6l-.4 7.2q-1.05 3-3.95 4.5-1.2 1.25-2.8 0l1.7-5.7m40.5 35.5q4.35.25 6.4-4.5 2.75-8.9-3.8-11.8-3-6.1-7.9-3.5-5.65 1.75-5.5 7.3-.65 5 2.6 7.7 4.9 5.4 8.2 4.8" fill="#8677ae"/><path d="M83.75 29.75q4.8 7.05-1.55 17.55l-9.45 8.9 1.6-3.05q3.35-3.7 6.05-8.85 3.3-8.35 3.35-14.55M45.45 50.3q.5.25 1.05.6 4.15 3.3 2.9 8.9-1.9 4.45-4 8.25 4.55-13.4.05-17.75" fill="#98b5a3"/><path d="M72.75 56.2Q66.4 61.9 60.4 66.5q-.35-16.95 3-36.1 1.1 12.55-1.4 29.1 11.45-34.8 17.5-33.9-5 17.6-14.3 34.5 5.05-2.35 9.15-6.95l-1.6 3.05M67.7 87.45l.9.45q4.3 4.1 3.5 9.7-1.05-5.85-4.4-10.15M71.15 99q-1.6 2.1-3.35 3.35.55-3.05-1.6-4.55-4.65-2.75-9.6-7.2 1.45 5.95 5.35 13.35-2.05-.7-3.25-3.85l-8.5-19 1.8.45q4.15 5.85 11.2 9.95 3.9 2.25 5.8 5.3-.05 2.2 2.15 2.2m61.15 140.9q-3 1.15-4.1 4.2-6.4 5.6-11.7 5.9 4.95-3.05 9.9-10.5 2.95-1.3 5.9.4" fill="#9a91b9"/><path d="M67.7 87.45q3.35 4.3 4.4 10.15l-.95 1.4q-2.2 0-2.15-2.2-1.9-3.05-5.8-5.3-7.05-4.1-11.2-9.95 7.7 1.95 15.7 5.9" fill="#3c314f"/><path d="M108.35 70q.1-2.35.65-4.7 2.65-5.55 9.7-2.6 5 2.45 4.3 10.3-1.15 5.4-5.1 6.9-3.35.95-6.4-.1-2.2-4.8-3.15-9.8M93.1 91.2q-3.3.6-8.2-4.8-3.25-2.7-2.6-7.7-.15-5.55 5.5-7.3 4.9-2.6 7.9 3.5 6.55 2.9 3.8 11.8-2.05 4.75-6.4 4.5" fill="#bfc2f9"/><path d="M132.45 226.95q3.65.55 2.55 5.05-.55 1.85-4.6 3.3-5.45.6-5.4-1.95 1.5-2 4.3-4.25 1.85-.95 3.15-2.15" fill="#c457a6"/><path d="M224.65 45.65q-2.8-4.95-3.45-8.95 7.65 14.3 19.2 11.4 1.45 7.25 15.6 2.4 12.8-.8 26.8 4.35l4.6 2.8 1.4 1.15q7.4 8.15 4.2 17.9.65-18.3-25.2-14.6-7.75-12.65-16.2-4.6 5.8-2.05 7.8 2-.45 6.2-5.4 9.4-23.1 20.6-4.2 37.8 6.95 8.2-1.3 18.05l-1.8.65q2.8-6.25 1.1-12.5-1.5 8.6-6.8 12.6-4.8 1.15-9 4.3-.5-8.05-5.8-13.3 3.5 6.2 1 17.7-3 3.25-5.6 7.7-7.55 5.15-13.8 5.8-8.5-2.9-8.8-11l3.4 3.4-3.2-10.6-1.2-10.6q-2.55-5.5-6.3-6.45l3.3.25q1.75.6 5 4.15 1.8 14.45 7.8 17.45 6.75 2.3 12-2.2 6.15-7.75 3.1-15.55-.9-6.1-5.1-15.65 2.1-8.55 5-11.6.35 7.55 4.4 11.4 6 4.65 7.6 14.4 3-12.2 0-21.4-3.45-8.65 0-16.6 5.45-7.35 2-16.2-2.9-10.5-12.15-15.25" fill="#033d4a"/><path d="M224.65 45.65q9.25 4.75 12.15 15.25 3.45 8.85-2 16.2-3.45 7.95 0 16.6 3 9.2 0 21.4-1.6-9.75-7.6-14.4-4.05-3.85-4.4-11.4-2.9 3.05-5 11.6-1.9-19.8 13-30.6 2.15-7.9 0-15.8-3.85-4.75-6.15-8.85m-32.95 66.8q3.75.95 6.3 6.45l1.2 10.6 3.2 10.6-3.4-3.4q.3 8.1 8.8 11-5.4.6-9.8-2.2-8.05-7.8-5-18.4 2.2-2.9 2.2-8-.1-4.95-8.6-3.8.3-2.85 5.1-2.85m35.5 21.75q2.5-11.5-1-17.7 5.3 5.25 5.8 13.3-2.55 1.8-4.8 4.4m13.8-8.7q5.3-4 6.8-12.6 1.7 6.25-1.1 12.5-2.6.7-5.7.1" fill="#56ab8d"/><path d="M222.9 116.55q3.05 7.8-3.1 15.55-5.25 4.5-12 2.2-6-3-7.8-17.45 2.75 3.05 6.6 8.25 8.25 6.2 15 0 2.2-2.65 1.3-8.55" fill="#03292a"/><path d="M248.5 124.75q8.25-9.85 1.3-18.05-18.9-17.2 4.2-37.8 4.95-3.2 5.4-9.4-2-4.05-7.8-2 8.45-8.05 16.2 4.6 25.85-3.7 25.2 14.6-21.85-7.35-33.2 4.8-8.7 7.6-4.4 20 2.75 7.4 0 15.6-2.75 5.65-6.9 7.65" fill="#00202a"/><path d="m311.3 131.7 1-2.2q-.75 8 4 9.1 1.05.85 1.7 1.8l.6 1.15q-4.4 1.25-7.3-4.55-2 5.45 3.4 7.9 3.6 4.2 2.3 8.4 0-4.8-4.9-8.3-4.15-2.45-3-6.4l2.2-6.9" fill="#00334b"/><path d="M317 153.3q1.3-4.2-2.3-8.4-5.4-2.45-3.4-7.9 2.9 5.8 7.3 4.55.7 2.1-1 4.35 3.7-1.45 2.35-5.55h.75l.8 2.15q2.55 4.45 6.45 7.35-1.1 5.05-8.75 5-1.15-.6-2.2-1.5v-.05" fill="#001e2b"/><path d="m311.3 131.7-2.2 6.9q-1.15 3.95 3 6.4 4.9 3.5 4.9 8.3v.05q-2.2-1.95-4.2-5.35-8.35-4.1-7.4-6.8-.1-3.25 5.9-9.5m7.3 9.85-.6-1.15q-.65-.95-1.7-1.8-4.75-1.1-4-9.1 4.7-10.05 11.3-10.9-10.7 10.5-4.5 19.9l.85 1.85q1.35 4.1-2.35 5.55 1.7-2.25 1-4.35" fill="#52a085"/><path d="M323.6 118.6q-6.55 10.9-2.9 21.75h-.75l-.85-1.85q-6.2-9.4 4.5-19.9" fill="#00354b"/><path d="m327.95 149.85 3.55 2.15q-6.8 5.7-12.3 2.85 7.65.05 8.75-5" fill="#00364d"/></g><g id="r" fill-rule="evenodd"><path d="m18.1 23.8-.9-4.45q9.25-6.8 23.55-13.9 40.9-13.25 74.2 5.8 19.4 8.55 17.9 35.05l-.05.25-.15 2.05-.5 4.3-.2 1.6-2.15 2.25q4.45-23.95-7.35-36.1-4.2-4.35-10.5-7.2Q106.7 10.8 101.3 9l-2.35-.8-5.35-1.45L88 5.6q-23.45-3.95-49.25 5.85-12.55 6-20.65 12.35" fill="#351302"/><path d="m14.8 26.6 3.3-2.8q8.1-6.35 20.65-12.35Q64.55 1.65 88 5.6q-13.75 22-4.65 47.85 8.5 22.35 14.5 27.1 8.75 6.6 20.7 4V90q-8.2 5.8-24.2 7.25-4.65-1.6-9.3-.4-.85-5.4-4.4-8.4-1.85-7.2-9.55-10.5l1.05.1q7.25 1.5 10.8 8.2 5.3 1.75 7 6.6l5.6.1q1.65-1.75 1.4-4.3-12.45-10.85-20.2-26.4-11.35-17.15-53.1-12.2 6.15 21.15 17.7 25.2 3.9 1.6 7.6 1 4.6 1.85 5.15 3.7-3.6 1.75-6.25 4.8l-.35-3.3q1.3-.85 1.85-1.8-2.45-.8-6.6-1.05-14.5-4.65-23.8-33.75L14.8 26.6m111.35 54.85.45 1.35q-1.35.75-3.25 2.75l-.05-2.65 2.85-1.45" fill="#2a0534"/><path d="M132.8 46.55q5.2 3.65 6.05 7 1.1 16.85-2.5 20-4.85 4.9-10.2 7.9l-2.85 1.45-3.55 1.35-1.2.3q-11.95 2.6-20.7-4-6-4.75-14.5-27.1Q74.25 27.6 88 5.6l5.6 1.15Q79.75 23.7 85.9 48.7l.6 2.4q1.4 5.1 3.65 10.55 4 11.05 10.6 17.3 4.25 3.35 9.55 3.8 4.45.4 9.65-1.2 11.6-4.85 16.3-12.6l.5-5.85q.3-5.85-.5-10.65-.8-1.45-3.6-3.85l.15-2.05m-6.2 36.25q1.5-.9 2.35-.35 5.8 2.35 7 13.8-1.15 12.75-16.8 20-24.4 8.5-38.8 0-.95-.65-1.5-1.55-.7-1.05-.95-2.45-.4-2.4.45-5.8 1.2-3.4 2.6-5.75 1-1.7 2.1-2.8l.7-.65 1.3-.4q4.65-1.2 9.3.4 16-1.45 24.2-7.25 1.8-1.3 3.2-2.75L123 85.9l.35-.35q1.9-2 3.25-2.75m-80.65 4.45q-10.2 2.4-12.4 0-18.25-6.75-31.8-37.2-6.6-13.15 12-28.1l1.05 4.65Q4.55 35.8 3.35 45.85q6.8 16.75 16.6 26.65 8.25 8.3 18.6 11.75 6.15-1.05 8.95-2.8l.35 3.3-1.9 2.5m83.85-30.5 2.15-2.25.2-1.6q1.1.4 1.6 2.6l-1.65 2.45-1.05 1.3q-3.65 4.2-8.7 6-7.7 1.6-14.35-.05l-1.6-.5Q93.35 39.15 98.95 8.2l2.35.8q-5.2 27.15 4.8 48.85l2.65 5.2q7 3.2 14.35-1 2.45-1.4 4.9-3.6l1.8-1.7m-6.45 32.9q-7.55 7.6-27.2 10-9.95-2.3-11.6.4-7.75 9.3-2.8 14.4l2.65 1q2.85.95 5.9 1.5 8.65 1.55 18.65-.3 13.85-3.25 20.35-10.85l2.85-4.35q1.25-9.2-5.05-17.75-.75 2.1-2.05 3.9l-1.7 2.05" fill="#651801"/><path d="m14.8 26.6 4.15 18.25q9.3 29.1 23.8 33.75-3.35-.25-7.8-.15-7.95-5.5-12.4-12.4-2.05.65-2.6 6.45-9.8-9.9-16.6-26.65Q4.55 35.8 14.8 26.6M93.6 6.75l5.35 1.45q-5.6 30.95 7.45 56.5-2.3-.7-4.45-1.85-4.15-7-5.6-17.4-5.6 2.7-10.45 3.25-6.15-25 7.7-41.95m38.5 51.2 1.65-2.45q.85 4.05-.5 14.25 1.9-2.55 3.5-6.65l-.5 5.85q-4.7 7.75-16.3 12.6-5.2 1.6-9.65 1.2l.35-4.35.2-3.15q16.2-3.7 17.8-8.1.75-1.25 3.4-2.9 3.6-5 .1-6.3h-.05M94.6 114.1l4.05-.2.25-.05q6.95-.6 12.85-3 1.6-3.7 0-6.6l13.3-9.6q1.4-3.2 0-7.05 1.3-1.8 2.05-3.9 2.55 6.5 2 14.95-3.95 5.95.2 7.15-6.5 7.6-20.35 10.85-10 1.85-18.65.3l1.45-2.9 2.85.05" fill="#ad3f02"/><path d="M101.3 9q5.4 1.8 10.65 4.45 6.3 2.85 10.5 7.2 7.05 17.45 5.55 37.8-2.45 2.2-4.9 3.6 3.75-4.6 2.05-14.6-5.25-9.8-15-4-7.6 2.45-4.05 14.4-10-21.7-4.8-48.85" fill="#441b07"/><path d="m111.45 48.55 8.2 5.3-1.2 8.5-7.2-1-3.3-9.5 3.5-3.3" fill="#bd7c51"/><path d="M106.1 57.85q-3.55-11.95 4.05-14.4 9.75-5.8 15 4 1.7 10-2.05 14.6-7.35 4.2-14.35 1l-2.65-5.2m5.35-9.3-3.5 3.3 3.3 9.5 7.2 1 1.2-8.5-8.2-5.3" fill="#8d4b28"/><path d="M118.55 90v-5.45l1.2-.3 3.55-1.35.05 2.65-.35.35-1.25 1.35q-1.4 1.45-3.2 2.75m3.9-69.35q11.8 12.15 7.35 36.1l-1.8 1.7q1.5-20.35-5.55-37.8" fill="#425244"/><path d="M42.75 78.6q4.15.25 6.6 1.05-.55.95-1.85 1.8-2.8 1.75-8.95 2.8Q28.2 80.8 19.95 72.5q.55-5.8 2.6-6.45 4.45 6.9 12.4 12.4 4.45-.1 7.8.15m63.65-13.9 1.6.5q-3.6 1.55 5.45 5.45 3.9.5 14.6-5.1 6.25-4.65 4.1-7.6 3.5 1.3-.1 6.3-2.65 1.65-3.4 2.9-1.6 4.4-17.8 8.1l-.2 3.15q-14.95-5.55-19.1-25.65-1.25-3.9-5.05-1.65l-.6-2.4q4.85-.55 10.45-3.25 1.45 10.4 5.6 17.4 2.15 1.15 4.45 1.85m-22 50.75.55-6.6q-.15-5.45 7.8-3.6-.85 7.95 1.85 8.85l-2.85-.05-1.45 2.9q-3.05-.55-5.9-1.5m14.5-1.6q2.7-.4 1.85-8.6 20.1-4.15 22.6-15.6l1.7-2.05q1.4 3.85 0 7.05l-13.3 9.6q1.6 2.9 0 6.6-5.9 2.4-12.85 3" fill="#ff9a1c"/><path d="M108 65.2q6.65 1.65 14.35.05 5.05-1.8 8.7-6l1.05-1.3h.05q2.15 2.95-4.1 7.6-10.7 5.6-14.6 5.1-9.05-3.9-5.45-5.45m2.3 17.55q-5.3-.45-9.55-3.8-6.6-6.25-10.6-17.3Q87.9 56.2 86.5 51.1q3.8-2.25 5.05 1.65 4.15 20.1 19.1 25.65l-.35 4.35m-25.9 32.7-2.65-1q-4.95-5.1 2.8-14.4 1.65-2.7 11.6-.4 19.65-2.4 27.2-10-2.5 11.45-22.6 15.6.85 8.2-1.85 8.6l-.25.05-4.05.2q-2.7-.9-1.85-8.85-7.95-1.85-7.8 3.6l-.55 6.6" fill="#ffffa0"/><path d="M80.35 116.25q-1.85 4.2-5.2 4-1.15 4-3.8 4.2-1.5 7.2-5.2 7.8-11.9 1-18.4-3.4-1.1-2.4 0-8.6-5.05-5.45-4-14-4.15-10.25 2.2-19l1.9-2.5q2.65-3.05 6.25-4.8 6.8-3.25 17-2 7.7 3.3 9.55 10.5 3.55 3 4.4 8.4l-1.3.4-.7.65q-.1-3.8-2.25-6-1.1-1.2-2.75-1.95-1.9-6-8.4-7.9l-2.15-.5-5.05-.4q-7.5.4-11.8 6.5-5.35 4.5-4.8 9.4 1.9-1.85 3.5-1 1 .5 1.9 2.1 2.25 5.75 1.2 12.2l-1.15 1.55q-1.95 1.8-4.15-1.55-.25 2.95 3.8 7.3-.7 5.7-.4 8.5l3.25 1.15 1.65.4 3.3.65 1.2.2 5.45.8.95.1 2.8-7.1q.95-2 2.7-1.4 4.9-2.75 7-6.25.55.9 1.5 1.55m-6.5-7.05q1.7-3.05 1.7-6-.1-2.9-1.8-3.9-1.7-1.05-4.1.35-2.4 1.45-4.05 4.55-1.7 3.05-1.7 5.95.05 2.95 1.75 3.95 1.7 1.05 4.1-.45 2.4-1.35 4.1-4.45M69.7 97.55q3.2-1.75 5.45-.45 2.3 1.3 2.4 4.95 0 3.75-2.25 7.65-2.25 3.9-5.45 5.65l-2.2.95q-1.9.45-3.35-.4-2.25-1.3-2.3-5.05 0-3.65 2.25-7.55 1.85-3.25 4.4-5.05l.45-.3.6-.4m-18.95 11.6-.05-4.85q-.3-2.85-1-4.85-.55-1.95-1.2-1.9-.6.1-.85 2.15-.15 2.05.15 4.9.25 2.8.9 4.8t1.25 1.9q.65-.05.8-2.15" fill="#5d485a"/><path d="M54.1 79.95q-.55-1.85-5.15-3.7-3.7.6-7.6-1-11.55-4.05-17.7-25.2 41.75-4.95 53.1 12.2 7.75 15.55 20.2 26.4.25 2.55-1.4 4.3l-5.6-.1q-1.7-4.85-7-6.6-3.55-6.7-10.8-8.2l-1.05-.1q-10.2-1.25-17 2" fill="#642475"/><path d="m67.5 81.55 2.15.5q4.05 3 4.6 9.3.1 2.7-4.5 6.15l-.65.45-.45.3q-2.55 1.8-4.4 5.05-2.25 3.9-2.25 7.55.05 3.75 2.3 5.05 1.45.85 3.35.4-3.1 2.75-4.8 8.25-1.1 3.65-2.9 4l-1.2-.2q-3.6-3.2-1.6-9-3.5 2.85-1.7 8.35l-1.65-.4q1.5-11.8-2.4-15.3 4.75 4.05 3.95-6.15-1.7-9.35-6-9.8 2.25-.5 4.1-4.1 4.1 2.5 11.3 0 4.9-3.45 2.75-10.4M64.15 94.2q-.4.4-.4 1t.4 1q.4.4 1 .4t1-.4q.4-.4.4-1t-.4-1q-.4-.4-1-.4t-1 .4m-5.45 25.15q-2.05 1.9-2.05 4.35 0 .9.6 1.65.6.7 1.25.7 1.35 0 2.05-1.2.6-1 .6-2.45 0-1.35-.4-2.35-.45-1.2-1.3-1.2h-.4l-.35.5" fill="#d8b6d3"/><path d="M49.35 96.05q-1.6-.85-3.5 1-.55-4.9 4.8-9.4 4.3-6.1 11.8-6.5l5.05.4q2.15 6.95-2.75 10.4-7.2 2.5-11.3 0-1.85 3.6-4.1 4.1m14.8-1.85q.4-.4 1-.4t1 .4q.4.4.4 1t-.4 1q-.4.4-1 .4t-1-.4q-.4-.4-.4-1t.4-1m-4.9 24.65h.2q.85 0 1.3 1.2.4 1 .4 2.35 0 1.45-.6 2.45-.7 1.2-2.05 1.2-.65 0-1.25-.7-.6-.75-.6-1.65 0-2.45 2.05-4.35l.55-.5m-7.95-6.95.1.1q3.9 3.5 2.4 15.3l-3.25-1.15q-.3-2.8.4-8.5-4.05-4.35-3.8-7.3 2.2 3.35 4.15 1.55" fill="#f9e5fb"/><path d="M80.8 91.9q2.15 2.2 2.25 6-1.1 1.1-2.1 2.8l-.15-8.8m-15.4 37.45q-1.5-7 7.25-12.5l5.25-4.6q.25 1.4.95 2.45-2.1 3.5-7 6.25-1.75-.6-2.7 1.4l-2.8 7.1-.95-.1m61.7-45.65q6.3 8.55 5.05 17.75l-2.85 4.35q-4.15-1.2-.2-7.15.55-8.45-2-14.95" fill="#98b59c"/><path d="M69.65 82.05q6.5 1.9 8.4 7.9 1.65.75 2.75 1.95l.15 8.8q-1.4 2.35-2.6 5.75-.85 3.4-.45 5.8l-5.25 4.6q-8.75 5.5-7.25 12.5l-5.45-.8q1.8-.35 2.9-4 1.7-5.5 4.8-8.25l2.2-.95q3.2-1.75 5.45-5.65 2.25-3.9 2.25-7.65-.1-3.65-2.4-4.95-2.25-1.3-5.45.45l.05-.05q4.6-3.45 4.5-6.15-.55-6.3-4.6-9.3M51.3 111.9l1.15-1.55q1.05-6.45-1.2-12.2-.9-1.6-1.9-2.1 4.3.45 6 9.8.8 10.2-3.95 6.15l-.1-.1" fill="#886b84"/><path d="M73.85 109.2q-1.7 3.1-4.1 4.45-2.4 1.5-4.1.45-1.7-1-1.75-3.95 0-2.9 1.7-5.95 1.65-3.1 4.05-4.55 2.4-1.4 4.1-.35 1.7 1 1.8 3.9 0 2.95-1.7 6m-23.1-.05q-.15 2.1-.8 2.15-.6.1-1.25-1.9t-.9-4.8q-.3-2.85-.15-4.9.25-2.05.85-2.15.65-.05 1.2 1.9.7 2 1 4.85l.05 4.85" fill="#260026"/><path d="m58.75 128.35-3.3-.65q-1.8-5.5 1.7-8.35-2 5.8 1.6 9" fill="#896c85"/><path d="m132.15 52.9.5-4.3q2.8 2.4 3.6 3.85.8 4.8.5 10.65-1.6 4.1-3.5 6.65 1.35-10.2.5-14.25-.5-2.2-1.6-2.6" fill="#98b5a3"/></g><g id="s"><path d="M152.05 145.45q4.15 11.65 8.1 25.3-19.9-13.85-42.55-3.2-24.2 12.4-37.2 35.35-7.55-28.45 3-60.55 12.4-27.3 28.4-30.2 12.8-2.45 40.25 33.3" fill="#b24081" fill-rule="evenodd"/><path d="m160.15 170.75 1.85 6.6q-22.8-18.8-49.4-2.2-27.1 17.4-35.95 45.05-3.4 5.95-6 6.8 3.6-13.25 9.75-24.1 13-22.95 37.2-35.35 22.65-10.65 42.55 3.2" fill="#4f0c2c" fill-rule="evenodd"/><path d="M70.65 227q-3.75 1.2-5.8-8.05Q56.55 133 112 82.55q22.4 13.9 40.05 62.9-27.45-35.75-40.25-33.3-16 2.9-28.4 30.2-10.55 32.1-3 60.55-6.15 10.85-9.75 24.1" fill="#761d49" fill-rule="evenodd"/><path d="M66.05 157.9q-.7-25.35 13.95-57.55 4.55-6.45 1.2-8.2-6.3-2.65-13.6 2.2-32.4 23.45-33.65 53.35-9.15-2.05-25.95 6.05 31.7-74.3 90-87.2 22.25-.65-1.2 30.4-22.5 27.4-30.75 60.95" fill="#761d49" fill-rule="evenodd"/><path d="M33.95 147.7q1.25-29.9 33.65-53.35 7.3-4.85 13.6-2.2 3.35 1.75-1.2 8.2-14.65 32.2-13.95 57.55-6.15 25-4.45 53.35-3.7 12.5-7.1 10.2 2.1-64.35-16.1-71.9-1.95-1.3-4.45-1.85" fill="#b24081" fill-rule="evenodd"/><path d="M8 153.75q16.8-8.1 25.95-6.05 2.5.55 4.45 1.85 18.2 7.55 16.1 71.9-2.05-1.35-4-8.1.4-49.9-12.5-59.8-9-8.85-32.4 5l2.4-4.8" fill="#4f0c2d" fill-rule="evenodd"/><path d="M54.1 219.85q-.8 5.8 2.25 6.95-1.5 2.3-1.45 5.65-6.55 1.95-7-10.3.8-11 6.3-20.4 1.2-1.3 1.2-3.4 1.75-40.4 16-74.6 11.7-24.85 23.1-35 .8-9.45 8.7-11.8 8.75-1.25 14.2 7.8.85 13.55-11.1 14.3-13.6 12.7-22.7 29.3-21.15 39.15-11.9 67.3l4.1 16.9q2.4 3.75 1.8 8.6-.1 7.9-4.1 11.15-.95-2.3-1.3-4.45 2.55-4.5 1-11.6-.85 5.4-2.75 8.75-1.65-1.85-4.15-2.3 5.55-.85 2.6-9.45-.35-4.6-2.8-9.1-8.15-36.45 10.3-72.2 16.9-28.45 27.3-36.2-3.75-7-7.5-6.3-7.25 6.25-13.55 16.6-5.6 9.15-10.45 21.5-14.4 37.3-13.9 68.9-.85 8.7-4.2 14.1-2.55 6.3 0 9.3m45-116.6q2.2-1.3 6.3-5.4 3.5.35 5.1-.7l-3.6-3.7q-2.55 4.25-7.8 9.8" fill="#2a0534" fill-rule="evenodd"/><path d="M82.65 106.05q3.3-3.15 4.25-3.2-6.75 10.95-9.5 21.5-17.15 37.45-16.1 75.6l1 8.9q2.35 4.45 2.5 7.4-.85 2.45-7.7 1.9-1.9 2-3 1.7-2.55-3 0-9.3 3.35-5.4 4.2-14.1-.5-31.6 13.9-68.9 4.85-12.35 10.45-21.5" fill="#c457a6" fill-rule="evenodd"/><path d="M54.1 219.85q1.1.3 3-1.7 6.85.55 7.7-1.9-.15-2.95-2.5-7.4l-1-8.9q-1.05-38.15 16.1-75.6 2.75-10.55 9.5-21.5-.95.05-4.25 3.2 6.3-10.35 13.55-16.6 3.75-.7 7.5 6.3-10.4 7.75-27.3 36.2-18.45 35.75-10.3 72.2 2.45 4.5 2.8 9.1 2.95 8.6-2.6 9.45-1.8-.35-4.1.05-4.05 1.25-5.85 4.05-3.05-1.15-2.25-6.95" fill="#642475" fill-rule="evenodd"/><path d="M99.1 103.25q5.25-5.55 7.8-9.8l3.6 3.7q-1.6 1.05-5.1.7-4.1 4.1-6.3 5.4M70.45 225q1.9-3.35 2.75-8.75 1.55 7.1-1 11.6-.7-1.7-1.75-2.85" fill="#425143" fill-rule="evenodd"/><path d="M57.9 227.35q1.25-1.75 4.5-3l3.55-.15q.9 5.65 6.05 13.2 1.35 2.7 3.3 4.85h-2.1l-.8-.7q-4.05-3.8-6.5-10.8-1.5-4.6-8-3.4" fill="#3b304e" fill-rule="evenodd"/><path d="M56.35 226.8q1.8-2.8 5.85-4.05 2.3-.4 4.1-.05 2.5.45 4.15 2.3 1.05 1.15 1.75 2.85.35 2.15 1.3 4.45 1.4 3.3 4.1 6.85 2.7 3.2 1.1 6-4.25 2.75-11.6 0-10.6-4.2-12.2-12.7-.05-3.35 1.45-5.65m9.6-2.6-3.55.15q-3.25 1.25-4.5 3-1.35 1.85-.4 4.2l1.05 1.8q5.3 8.5 14.65 8.9h2.1q-1.95-2.15-3.3-4.85-1.05-2-1.8-4.25.8-2.75 0-5.5-1.25-3-4.25-3.45" fill="#281e39" fill-rule="evenodd"/><path d="M72 237.4q-5.15-7.55-6.05-13.2 3 .45 4.25 3.45.8 2.75 0 5.5.75 2.25 1.8 4.25" fill="#98b59c" fill-rule="evenodd"/><path d="M57.9 227.35q6.5-1.2 8 3.4 2.45 7 6.5 10.8-6.2-2.95-8.8-8.4-1.15-4.05-3.5-4.6-2.5.3-1.55 4.8l-1.05-1.8q-.95-2.35.4-4.2" fill="#9a91b9" fill-rule="evenodd"/><path d="m72.4 241.55.8.7q-9.35-.4-14.65-8.9-.95-4.5 1.55-4.8 2.35.55 3.5 4.6 2.6 5.45 8.8 8.4" fill="#f4f5ff" fill-rule="evenodd"/><path d="M15.3 150.1q1.95.6 3.7-.65 1.8-2.05 1.2-6.5.35-9.25 3.8-16.1 9.8-21.2 31.7-37.8 10.7-9.2 19.8-12.5 5.75-2.65 5-6.4-1.4-3.6-8.9.1l-5.9 4.2q-16.1 11.75-28.9 26.6-12.85 13.9-21.6 30.6l-4.8 7.1q-1.6 2.15-2.5 3.95-1.55 3-1.1 5.05-3.1 1.5-4.75 4-3.6-6.65 2.55-12 4.3-3.9 8.6-10.8 21.3-41.25 62-65.2 8.2-11.7 19.4-5.6 6.5 5.65 1.4 13.4-4.85 8.1-12.6 8.2-20.1 3.8-38.6 23.4-19.95 18.35-19.2 40 2.25 6.55-1 13.2-4.3 4.9-10.2 3.6 2.9-6.45.9-9.85m74.1-74.75q.25-3.9-2.6-2.3-2.05 2.8-6.2 4.2 5.65 1.05 8.8-1.9" fill="#2a0534" fill-rule="evenodd"/><path d="m65.7 74.45 5.9-4.2q7.5-3.7 8.9-.1.75 3.75-5 6.4-9.1 3.3-19.8 12.5-21.9 16.6-31.7 37.8-3.45 6.85-3.8 16.1.6 4.45-1.2 6.5-1.75 1.25-3.7.65l-.3-.45-1.4-1.4q-3.4-1.6-6.8-.5-.45-2.05 1.1-5.05 3.25-1.95 6.5 1.85 2.75-2.2 3.6-7.1.3-5.75 3-10.7 12.75-21.85 29.5-36.8 5.1-7.3 15.2-15.5" fill="#642475" fill-rule="evenodd"/><path d="M89.4 75.35q-3.15 2.95-8.8 1.9 4.15-1.4 6.2-4.2 2.85-1.6 2.6 2.3m-77.8 74.2q2.85.95 2.7 5.7-2.05 1.1-3.75 2.75 1.7-4.05 1.05-8.45" fill="#425143" fill-rule="evenodd"/><path d="M65.7 74.45q-10.1 8.2-15.2 15.5-16.75 14.95-29.5 36.8-2.7 4.95-3 10.7-.85 4.9-3.6 7.1-3.25-3.8-6.5-1.85.9-1.8 2.5-3.95l4.8-7.1q8.75-16.7 21.6-30.6 12.8-14.85 28.9-26.6" fill="#c155a4" fill-rule="evenodd"/><path d="M6.8 147.75q3.4-1.1 6.8.5l1.4 1.4.3.45q2 3.4-.9 9.85-3.15 2.75-5.8 10.2-1.8 3.05-5.2 1.3-3.1-3.15-3.4-11.5-.15-4.95 2.05-8.2 1.65-2.5 4.75-4m3.2 1.45-3.2.3q-1.3.65-1.7 2.25-2.25 7.45-.4 13.3l.7 1.8.9-2.4q1.6-3.85 4.25-6.45 1.7-1.65 3.75-2.75.15-4.75-2.7-5.7l-1.6-.35" fill="#281e39" fill-rule="evenodd"/><path d="m6.8 149.5 3.2-.3q.7 3.25-1.5 7.65-2.5 5.05-2.2 7.6l-.9 2.4-.7-1.8q.35-7.55 3.25-11.8 1.7-2.9-1.15-3.75" fill="#9a91b9" fill-rule="evenodd"/><path d="M6.3 164.45q-.3-2.55 2.2-7.6 2.2-4.4 1.5-7.65l1.6.35q.65 4.4-1.05 8.45-2.65 2.6-4.25 6.45" fill="#3c344d" fill-rule="evenodd"/><path d="M6.8 149.5q2.85.85 1.15 3.75-2.9 4.25-3.25 11.8-1.85-5.85.4-13.3.4-1.6 1.7-2.25" fill="#f4f5ff" fill-rule="evenodd"/><path d="m169.95 105.9-.05.85v.1l.05.65-.1.65q-3-1.2-4.55-2.3l-7-5.35q-5.35-4.4-10.7-9.95l-4.8-3.8q-7.55-6.65-14.3-16.5l-.8-1.2-1.6 1.2-.05-.2q-1.75-5-.45-12.7 8.8-14.55 7.4-26.5-.7 13.2-8.5 26-2.35 6.85.9 13.15.9 1.8 2.3 3.55l11.9 12.9 3.05 2.55q2.35 2.2 4.55 5.05 3.55 3.25 7.1 7.7l4 3.95q3.9 3.7 9.55 7.7l3.05 1.95-.1 2.25-4.75-1.25 4.75 1.25q-.15 1.4.5 1.7-3.9-.7-6.7-2.8l-6.3-5.15q-8.6-7.7-15.95-17.8l-1.95-2.8-11.6-13q-5.75-3.1-7.35-8-.8-2.5-.55-5.4.2-6.9 3.6-16.15l2.6-6.45-3.2-1.9q1.7-5.7-2.9-10.1 2.45.1 4.3 1.6l.25.2 1.15 1.2 5.2-3.2-5.15-6-1.45-1.7q-15.1 2.05-14.2 8l-2.35 3q-.45-3.2-2.2-4.4-4.35 7.5-9.75 4.5.85-.5 1.75-1.05 2.1 1.45 6.4-4.05-.95-.2-2.1 0 2.15-6-1.95-12-3.6-3.9-10.6-2.8 3-1.05 5.7-1.15 5.05-.25 9 2.75 6.55-1.2 8-4.8L102.35 5.3 98.5 3.65q-4.35 4.2-8.7 6.2-5.35 2.95-3.9 5.1-1.9 4.9-3.1 9.5l-4.5-3.2q.5 2.6 3.9 5.55-.7 3.15-1.1 6.15l-1.95.9-1.85.8q-2.65-2.65-7.9-2.4.85-1.9 4.9-2.2 1.55-3.95 1.3-8.6L70.4 24l-2.8 1.35q-2.85 6.8-1.75 10-1.15 2.1-.55 5.1.65 2.4 2 4.45l-1.75 1.9q-5.05 5.8-2.95 8.45-1.2 3.05 1.8 6.1-3.25 1.15-5.7-3.9-.95-3.55 0-7.3 3.05-4.7 5.7-6.9l-2.1-2.6q-2.3-2.5-.2-6.4.25-6.4 4.1-12.4 3.85-1.2 7.7-3.9 3.5-3.1 8.2 1-1.5-9.9 5.8-12.4 4.7-2.65 6.9-4.6 2.4-3.05 7.7-1.3l13.2 6q3.8 1.4 3.8 5.2.35 4.05 2.9 6.6 4.85-1.2 6.7 1 3.4 4.8 8.2 8.8 4.55 6.2-8.4 32.3v5.5L170 105.4l-.05.5-1.85-.7 1.85.7m-3.6 29.85-.65.25q.1 4.4 2.15 7.6l1.55 1.95q-4 .05-7-1.95-2.35-1.55-4.1-4.35l-.25-.4q-1.2 14.35 10.95 22.7l2.15 2.15q3 4.05-.3 9.95l-.55-.9q-4.05-7.05-8.6-5.4 3.55-1.7.8-4.25l-.8-.65q-11-11.5-6.9-29.85l5 .9 1.25.25 3.05.7 1.6.35q1.05.75.65.95l-5.3-2 5.3 2m-7.8 42.55q-8-.9-12.2-16.25-.85-3.1-1.55-6.8-1.55-11.7-5.2-20.05l-1.8-3.65q-6-9.4-16.5-22l-27-31.9Q86.4 73.4 81.75 67.1q-3.15-4.25-4.85-9.45l-.9 3.6q-.55-2.1-2.25-5.6.15-2.2 1.5-3.6 1.2-1.3 3.35-1.9l-1.1 1.95-.3.45q2.6-.85 3 4.5l.45 1.7q1.45 4.9 4.25 8.55l1.15 1.4Q90.9 74.1 99 76.45q-2.85 2.45 4.2 7.7 19.4 22.35 33.7 42.1 1.55 1.65 3.05 4.2 4.1 7.1 7.45 21.3 2 6.3 3.8 10.6 4.2 10.15 7.35 9.1-1.1 3.55 0 6.85M117.4 43.2q3.6 2.5 6.6-.1l1.4-.95.25 1.25-.25.95v.05q-.65 1.4-3.1 2.15-4.55.2-7.25-2.85l2.35-.5m.8-23.45q-2.45-2.75-3-8.2-.35 4.2 1 8.9l2-.7" fill="#2a0534" fill-rule="evenodd"/><path d="M170.8 117.6q6.9 1.65 13.9 2.6l6.75.75q9.45.5 18.95.25 16.15-.45 31.8-5.1l1.5 2.1 1.25 2.2q3.65 6.7.7 13.25l-.6.15-.25.55-8.75 2.75q-6.8 1.4-13.8 1.85l-32.1 1.3q-12.2-.6-23.8-4.5.4-.2-.65-.95l-1.6-.35-3.05-.7-1.25-.25-5-.9q-4.1 18.35 6.9 29.85l.8.65q2.75 2.55-.8 4.25l-1.7.9q-.9 1.55-1.4 3.05l-.05.15q-3.15 1.05-7.35-9.1-1.8-4.3-3.8-10.6-3.35-14.2-7.45-21.3-1.5-2.55-3.05-4.2-14.3-19.75-33.7-42.1-7.05-5.25-4.2-7.7-8.1-2.35-12.95-7.75 1.25.7 2.75.85 4.5.4 7.3-1.5 1.65-1.15 2.7-3.1.45-3.8 1.5-5.75.7 3.3 4 6.05 7.65 4.85 13.3 0-7.25 2.15-12.3-1.4-1.85-1.95-2.95-3.9 1.9 2.7 10.25 1.2 8.35-2.1 11.8-12.95h.1q-3.4 9.25-3.6 16.15-.25 2.9.55 5.4 1.6 4.9 7.35 8l11.6 13 1.95 2.8q7.35 10.1 15.95 17.8l6.3 5.15q2.8 2.1 6.7 2.8-.65-.3-.5-1.7m-44.05-94.05 5.15 6-5.2 3.2-1.15-1.2-.25-.2q-1.85-1.5-4.3-1.6l-1.05-.8q6.85-.3 6.8-5.4M101.8 57.8q-.05.8.2 1.45l-.65-1.55v-.1l.1.05.35.15m.55-52.5L113 9.85q-1.45 3.6-8 4.8-3.95-3-9-2.75 5.9-3.5 6.35-6.6M70.4 24l5.2-2.55q.25 4.65-1.3 8.6-4.05.3-4.9 2.2 1.65-5.8 1-8.25m-3.1 20.9 1.95 2.45q-.7 2.35.5 4l-.65-.1-2.65.2q1.35-3.8-.9-4.65l1.75-1.9m10.2 7.2q2.65.55 2.7 3.65l.45 3-.45-1.7q-.4-5.35-3-4.5l.3-.45" fill="#642475" fill-rule="evenodd"/><path d="M111.1 29.85q-.9-5.95 14.2-8l1.45 1.7q.05 5.1-6.8 5.4-4.6-3-8.85.9M96 11.9q-2.7.1-5.7 1.15-2.15.7-4.4 1.9-1.45-2.15 3.9-5.1 4.35-2 8.7-6.2l3.85 1.65q-.45 3.1-6.35 6.6M69.4 32.25q-2.5 1.2-3.55 3.1-1.1-3.2 1.75-10L70.4 24q.65 2.45-1 8.25m-2.95 19.2-1.35.5q-1.85 1.65-2.5 3.3-2.1-2.65 2.95-8.45 2.25.85.9 4.65" fill="#c457a6" fill-rule="evenodd"/><path d="M163.25 168.85q2.85 1.7 4.35 7.8l.05.2q.55 2.65 2.55 4.8-3.85-1.1-5.5-7.2-1.45-3.65-4.45-1.9.25-1.8 1.45-3.1.75-.45 1.55-.6M84.3 37.35q2.75-7.45 7.6-14.4 2.5-3.6 5.6-7.1 1.4.9 2.7 2.4.65 5.45-7.65 15.25-3.9 2.15-8.25 3.9v-.05M118.55 33l1.8-1.5 1.05 1.45.5 2.95q-3.2 4.55-14.55 7.7l-2.35.25L118.55 33m-45.7 1.25q1.3 4.2 1.95 10.3l-1.1 4.1-1.6-1.1q.55-4.7-1.85-13.2l2.6-.1m-6.45 19.1q2.25-.6 3.5.3l2.8 7.7-2.3-2.95-4-5.05" fill="#3b304e" fill-rule="evenodd"/><path d="m170.85 173.65 4.65 8q1.9 4.7-3.8 4.8-6.25.05-11.7-5.2-.95-1.45-1.45-2.95-1.1-3.3 0-6.85l.05-.15q.5-1.5 1.4-3.05l1.7-.9q4.55-1.65 8.6 5.4l.55.9m-3.25 3q-.25-1.2-.2-2.4.5-3.45-1.8-4.9-1.2-.65-2.35-.5-.8.15-1.55.6-1.2 1.3-1.45 3.1-.2 1.3.1 2.85l.25 1.15q2.55 3.1 5.3 4.3 2.1.95 4.3.8-2-2.15-2.55-4.8l-.05-.2M121 29.75q4.6 4.4 2.9 10.1l-.9 2.2-5.6 1.15-2.35.5-9.85 1.95q-3.8.8-3.7 0 .95-4.4 7.25-12.8l2.35-3q4.25-3.9 8.85-.9l1.05.8m-30.7-16.7q7-1.1 10.6 2.8 4.1 6 1.95 12l-.85 1.9-3.45 2.15q-.9.55-1.75 1.05-9.5 5.55-16.1 7.6-.1-3.7.4-7.6.4-3 1.1-6.15l.6-2.35q1.2-4.6 3.1-9.5 2.25-1.2 4.4-1.9m.35 1.75q-1.6.4-3.25 1.35-1.5 4.35-2.6 8.9-1.55 6.3-2.3 13l1.8-.65q4.35-1.75 8.25-3.9l6.35-4.05q3.65-5.6 1.3-11.2-1.3-1.5-2.7-2.4-3.2-2.05-6.85-1.05m29.7 16.7q-2.85-3.35-7.05-1.75-6.15 7.25-8.3 14.1l2.35-.25q5.8-.7 12.95-2.75 1.75-1.7 1.6-4.95l-.5-2.95-1.05-1.45m-50.95.75q5.25-.25 7.9 2.4l-.2 5.8-.15 1.3-.75 4.9q-.6 6.25-4.4 2.9l-1.5-1.2-1.05-1-1.95-2.45q-1.35-2.05-2-4.45-.6-3 .55-5.1 1.05-1.9 3.55-3.1m5.4 12.3q.65-3.4 1.1-7.9-1.45-1.9-3.05-2.4l-2.6.1q-.6.2-1.25.55l-1.3.95q-1.9 1.9 0 5.9 1.2 2.1 2.35 3.6l2.05 2.2 1.6 1.1 1.1-4.1" fill="#281e39" fill-rule="evenodd"/><path d="m118.2 19.75-2 .7q-1.35-4.7-1-8.9.55 5.45 3 8.2m-36 7.05q-3.4-2.95-3.9-5.55l4.5 3.2-.6 2.35" fill="#414e42" fill-rule="evenodd"/><path d="M170.2 181.65q-2.2.15-4.3-.8-2.1-1.45-2.7-5.45-1.4-2.4-2.85 0-.3-1.55-.1-2.85 3-1.75 4.45 1.9 1.65 6.1 5.5 7.2M91.9 22.95q3.3-8.55-1.25-8.15 3.65-1 6.85 1.05-3.1 3.5-5.6 7.1m21.4 6.8q4.2-1.6 7.05 1.75l-1.8 1.5q-1.45-2.6-5.25-3.25" fill="#9a91b9" fill-rule="evenodd"/><path d="M165.9 180.85q-2.75-1.2-5.3-4.3l-.25-1.15q1.45-2.4 2.85 0 .6 4 2.7 5.45M84.8 25.05q1.1-4.55 2.6-8.9 1.65-.95 3.25-1.35 4.55-.4 1.25 8.15-4.85 6.95-7.6 14.4l.5-12.3m28.5 4.7q3.8.65 5.25 3.25L105 43.85q2.15-6.85 8.3-14.1m-43.25 15.6q-1.15-1.5-2.35-3.6-1.9-4 0-5.9l1.3-.95q1.9 3.25 1.05 10.45m.35 13.05 2.3 2.95-8.5-3.5q-.8-1.5-.05-2.85 3-.1 6.25 3.4" fill="#f4f5ff" fill-rule="evenodd"/><path d="m77.3 34.65 1.85-.8q.1 5.4-2.05 6.6l.2-5.8" fill="#8171a7" fill-rule="evenodd"/><path d="m84.8 25.05-.5 12.3v.05l-1.8.65q.75-6.7 2.3-13" fill="#7a7195" fill-rule="evenodd"/><path d="m76.95 41.75.15-1.3q2.15-1.2 2.05-6.6 1.85 7.6-2.2 7.9" fill="#2d0837" fill-rule="evenodd"/><path d="M105.2 45.65q4.65 1.5 4.8 7.9-2.75 6.1-8.2 4.25l-.35-.15-.1-.05q-.7-2-.65-4.05-.45 1.35-.55 2.65-2.75-2.45-2.35-5.95.55-4.5 3.7-4.6-.1.8 3.7 0m-12.1 5.6q2.85 5.75 1.3 8.7-1.9 4.6-4.9 5-5.9-.1-7.1-6.4-2.05-7.95 3.9-8.3 3.75-2.1 6.8 1" fill="#bfc2f9" fill-rule="evenodd"/><path d="m72.1 47.55-2.05-2.2q.85-7.2-1.05-10.45.65-.35 1.25-.55 2.4 8.5 1.85 13.2" fill="#9a92b9" fill-rule="evenodd"/><path d="M76 61.25q.45 5.65-4.2 3.7l-7.4-3.6q-3-3.05-1.8-6.1.65-1.65 2.5-3.3l1.35-.5 2.65-.2.65.1 2.05.6 1.95 3.7q1.7 3.5 2.25 5.6m-3.3.1-2.8-7.7q-1.25-.9-3.5-.3l-1.1.3q-.8.65-1.15 1.35-.75 1.35.05 2.85l8.5 3.5" fill="#2b1e3c" fill-rule="evenodd"/><path d="M72.85 34.25q1.6.5 3.05 2.4-.45 4.5-1.1 7.9-.65-6.1-1.95-10.3" fill="#788a80" fill-rule="evenodd"/><path d="m66.4 53.35 4 5.05q-3.25-3.5-6.25-3.4.35-.7 1.15-1.35l1.1-.3" fill="#9a90b9" fill-rule="evenodd"/><path d="M121.9 35.9q.15 3.25-1.6 4.95-7.15 2.05-12.95 2.75 11.35-3.15 14.55-7.7" fill="#95b19a" fill-rule="evenodd"/><path d="M102.85 27.85q1.15-.2 2.1 0-4.3 5.5-6.4 4.05l3.45-2.15.85-1.9" fill="#7f71a6" fill-rule="evenodd"/><path d="M102.35 59.95q1.1 1.95 2.95 3.9 5.05 3.55 12.3 1.4-5.65 4.85-13.3 0-3.3-2.75-4-6.05-.35-1.45-.15-3 .1-1.3.55-2.65-.05 2.05.65 4.05v.1l.65 1.55.35.7" fill="#2b0635" fill-rule="evenodd"/><path d="M169.95 105.9q7.55 2.65 15.45 3.95l6.7.85q13.85 1.4 27.4-1.8 14.45-3.4 22.7 7.2-15.65 4.65-31.8 5.1-9.5.25-18.95-.25l-6.75-.75q-7-.95-13.9-2.6l.1-2.25-3.05-1.95q-5.65-4-9.55-7.7l-4-3.95q-3.55-4.45-7.1-7.7-2.2-2.85-4.55-5.05l-3.05-2.55-11.9-12.9q-1.4-1.75-2.3-3.55-3.25-6.3-.9-13.15 7.8-12.8 8.5-26 1.4 11.95-7.4 26.5-1.3 7.7.45 12.7l.05.2 1.6-1.2.8 1.2q6.75 9.85 14.3 16.5l4.8 3.8q5.35 5.55 10.7 9.95l7 5.35q1.55 1.1 4.55 2.3l.1-.65-.05-.65v-.1l.05-.85" fill="#425143" fill-rule="evenodd"/><path d="M100.2 18.25q2.35 5.6-1.3 11.2l-6.35 4.05q8.3-9.8 7.65-15.25" fill="#98b59c" fill-rule="evenodd"/><path d="M163.25 168.85q1.15-.15 2.35.5 2.3 1.45 1.8 4.9-.05 1.2.2 2.4-1.5-6.1-4.35-7.8" fill="#96b29a" fill-rule="evenodd"/><path d="M124.5 48.2h-.1q-3.45 10.85-11.8 12.95-8.35 1.5-10.25-1.2l-.35-.7q-.25-.65-.2-1.45 5.45 1.85 8.2-4.25-.15-6.4-4.8-7.9l9.85-1.95q2.7 3.05 7.25 2.85 2.45-.75 3.1-2.15v-.05l.25-.95-.25-1.25-1.4.95q-3 2.6-6.6.1l5.6-1.15.9-2.2 3.2 1.9-2.6 6.45m-24.2 11q-1.05 1.95-1.5 5.75-1.05 1.95-2.7 3.1-2.8 1.9-7.3 1.5-1.5-.15-2.75-.85l-1.15-1.4q-2.8-3.65-4.25-8.55l-.45-3q-.05-3.1-2.7-3.65l1.1-1.95q-2.15.6-3.35 1.9-1.35 1.4-1.5 3.6l-1.95-3.7-2.05-.6q-1.2-1.65-.5-4l1.05 1 1.5 1.2q3.8 3.35 4.4-2.9l.75-4.9q4.05-.3 2.2-7.9l1.95-.9q-.5 3.9-.4 7.6 6.6-2.05 16.1-7.6 5.4 3 9.75-4.5 1.75 1.2 2.2 4.4-6.3 8.4-7.25 12.8-3.15.1-3.7 4.6-.4 3.5 2.35 5.95-.2 1.55.15 3m-7.2-7.95q-3.05-3.1-6.8-1-5.95.35-3.9 8.3 1.2 6.3 7.1 6.4 3-.4 4.9-5 1.55-2.95-1.3-8.7" fill="#8677ae" fill-rule="evenodd"/><path d="M242.2 116.1q-8.25-10.6-22.7-7.2-13.55 3.2-27.4 1.8l-6.7-.85q-7.9-1.3-15.45-3.95l-1.85-.7m2.7 12.4q6.9 1.65 13.9 2.6l6.75.75q9.45.5 18.95.25 16.15-.45 31.8-5.1l1.5 2.1 1.25 2.2q3.65 6.7.7 13.25l-.6.15-.25.55-8.75 2.75q-6.8 1.4-13.8 1.85l-32.1 1.3q-12.2-.6-23.8-4.5l-5.3-2-1.25-.25m11-15.9-4.75-1.25" fill="none" stroke="#2a0534" stroke-linecap="round" stroke-linejoin="round" stroke-width="3"/><path d="M21.15 103.65q1.1 3.05 5.25 3.3-4.85-7.3 6.25-13.65l2.1-.2Q26 98.7 27.7 106.45q2.05 6.2 8.75 7.55l-.5.55q-2.55-.65-3.75 1 5.4.15 5.6 4.9-1.7 4.25-6.35 3.65l-.8-.75q1.1-9.1-5.05-8.9-8.55.5-7.8-8.3l3.35-2.5" fill="#13504a" fill-rule="evenodd"/><path d="M21.15 103.65q1.8-1.55 2.55-3-.6-6.1 8.95-7.35-11.1 6.35-6.25 13.65-4.15-.25-5.25-3.3m24.55 24.7q-6.85.05-12.8-2.5l-1.45-1.75q4.65.6 6.35-3.65-.2-4.75-5.6-4.9 1.2-1.65 3.75-1 2.2.55 5.35 2.8 5.3 4 4.4 11M21 121.7q-2.45-1.3-3.2-4.45-3.15-5 0-11.1-.75 8.8 7.8 8.3.6 6-4.6 7.25m70.4 15.35q-6.05.9-6.8-7 .85-2.65 3.5-4.3-3.6 4.55 1 8l1.4.95.9 2.35" fill="#56ab8d" fill-rule="evenodd"/><path d="M30.65 123.35q-1.45-1.25-2.65-1l-1.65.2q1.95-6.05-.75-8.1 6.15-.2 5.05 8.9" fill="#062e2a" fill-rule="evenodd"/><path d="M26.35 122.55q-3.3.25-5.35-.85 5.2-1.25 4.6-7.25 2.7 2.05.75 8.1" fill="#15534a" fill-rule="evenodd"/><path d="m34.75 93.1 2.85-.15q-9.35 9.6-4.3 12.8 8.8 6 19.1 2l1.75-.55q-5.95 5.15-14.25 7.15l-3.45-.35q-6.7-1.35-8.75-7.55Q26 98.7 34.75 93.1" fill="#03272a" fill-rule="evenodd"/><path d="M54.15 107.2Q69 102.4 84.2 105q-27.85 1.85-24.7 18.85-2.9 2.05-6.1 3.6l-7.7.9q.9-7-4.4-11-3.15-2.25-5.35-2.8l.5-.55 3.45.35q8.3-2 14.25-7.15" fill="#0b474a" fill-rule="evenodd"/><path d="m84.2 105 2.3.45q.45.1.85.35l1.05.35q8.7 4.45 6.5 13-2.2-12.1-16.9-7.15l-2.65.75-2.45.55q-3.7.8-5.6 3.45-3.55 4.1-7.8 7.1-3.15-17 24.7-18.85m9.45 19.7q2.15.35 3.05 1.45-6.45 4.45 2 11.35-1.7 1.2-7.15-2.15-3.3-6.45 2.1-10.65" fill="#00212a" fill-rule="evenodd"/><path d="m88.1 125.75 2.8-1 1.2-.2 1.55.15q-5.4 4.2-2.1 10.65l-1.05-.65-1.4-.95q-4.6-3.45-1-8" fill="#013c4a" fill-rule="evenodd"/><path d="m98.7 137.5 1.8 1.35q-2.5 1.3-9.1-1.8l-.9-2.35 1.05.65q5.45 3.35 7.15 2.15" fill="#0e3342" fill-rule="evenodd"/></g><g id="t" fill-rule="evenodd"><path d="M92.95 73.65Q54.2 80.3 0 82.25l7.6-1.3q26.75-1.3 50.8-7.5 7.6-2.6 7.4-7.8-1.6-3.85-5.35-4.55 6.8-1.05 9.55 3.95.85 4.35-1 6.8-.55 1.8 2.4 1.3 6.7-3.6 4.85-9 1.95.25 4.2 0Q89.65 70.8 97 63q2.15-3.85 3.95-6.55l.05 3.5q-.3 9.4-8.05 13.7" fill="#16544a"/><path d="m117.85 16.4 3.15 1.8q5.95 7.1 2.2 15.55-1.25 3.1-1.15 7l-.05.05h.05q.05 3.5 1.15 7.65 3.85 7.2 12.6 5.4 4.8-1.75 4.8 2.9.15 4.75-2.95 7.3-10 3.2-20.35 4.6-1-2.25-5.2-3.3-10.4-6.95-8.2-12.9-1.3 1.5-2.95 4 .3-6.65 3.85-12.3-1.45 10.95 6 14.1-4-8.45 1.8-17.6Q124.75 27 117.85 16.4m31.05 27.8 4.1-2.75q3 2.35 6.4-2.2.85-4.6-1.25-5.95l.85-.65 1.4-.2q2.9 4.85-.2 11.6-1 4.8-4 6.4-3.6 1.1-4.8-1.8.35-2.6-2.5-4.45m33.7-33.95q2.85 3.45 3.7 7.1 2 2.5 2.35 7.35-5.55 4.7-8.55 11.25-5.85 9.2-12.9 7.1.75-4.15-.1-8.7 9.55 4.65 14.4-9.8 3-5.35 1.1-14.3m-60.4 41.5q-4.1-7.65-.2-10.95-2.3 1.1-4.2 6.25-2.1 5.05 0 9 2 2.1 4.4 1 1.6-1.65 0-5.3" fill="#013b4a"/><path d="M121 18.2q9.25 6.05 10.6 18.25-2.35 7.05 5.8 10.2 5.4 1 11.5-2.45 2.85 1.85 2.5 4.45 1.2 2.9 4.8 1.8 3-1.6 4-6.4 3.1-6.75.2-11.6 3.2-.2 6.7 1.9.85 4.55.1 8.7 7.05 2.1 12.9-7.1 3-6.55 8.55-11.25l-.15 5.95q-3.15 5.4-10.3 12.4-8.45 6.95-16.5 10.1-11.75 6.85-24.05 10.9 3.1-2.55 2.95-7.3 0-4.65-4.8-2.9-8.75 1.8-12.6-5.4-1.1-4.15-1.15-7.65v-.05q-.1-3.9 1.15-7 3.75-8.45-2.2-15.55" fill="#01232a"/><path d="m7.6 80.95 19.6-4.1q14.45-4.5 26.2-5 5.4-.95 4-6.3-2.2-2 0-3.6l1.35-1.05 1.7.2q3.75.7 5.35 4.55.2 5.2-7.4 7.8-24.05 6.2-50.8 7.5m72.85-16.8q5.2-.6 11.55-3.9 7.1-5.75 6.4-12.6-1.25-9 12.8-15.6 9.9-3.7 4-16.8l2.65 1.15q6.9 10.6-5.25 24.25-5.8 9.15-1.8 17.6-7.45-3.15-6-14.1-3.55 5.65-3.85 12.3-1.8 2.7-3.95 6.55-7.35 7.8-16.55 1.15M153 41.45q.6-4.7 5.15-8.15 2.1 1.35 1.25 5.95-3.4 4.55-6.4 2.2m14.1-7.1q10.9-.25 11.8-11.9Q180.8 6.7 169.3 0q8.95 4.9 13.3 10.25 1.9 8.95-1.1 14.3-4.85 14.45-14.4 9.8m-44.9 17.4q1.6 3.65 0 5.3-2.4 1.1-4.4-1-2.1-3.95 0-9 1.9-5.15 4.2-6.25-3.9 3.3.2 10.95" fill="#56ab8d"/><path d="M58.75 60.9q5.15-3.15 13.85 2.35 1.7.65 3.65.9 1.85 5.4-4.85 9-2.95.5-2.4-1.3 1.85-2.45 1-6.8-2.75-5-9.55-3.95l-1.7-.2m58.55 7.75q-11.3 2.75-24.35 5 7.75-4.3 8.05-13.7l-.05-3.5q1.65-2.5 2.95-4-2.2 5.95 8.2 12.9 4.2 1.05 5.2 3.3" fill="#00222a"/></g><g id="u" fill-rule="evenodd"><path d="M19.45 8.5Q34.4 2.6 58.4 0 45.85 3.45 37.5 6.7l-.25.1q-20.3 4.55-25.05 11.8-1.05 9.95 15.4 6.2-3 4.1.8 8.2 0 3.85 2.4 6.95-4.25-1.55-3.85-6.55-1.7 1-2.6 4.95L15.8 35.6q7.1-4.65 7.6-7.8-9.8 7.65-15 0-9.75-5.05 11.05-19.3M55.2 33q33.85 7.25 77.6 10.2-36.3 2.4-63.25 1.2Q58.6 41.1 55.2 33m-5.05 10L34.6 40.7q-3.25-3.8-1-13.1 4.85 11.25 9.7 8.4-5.85-5.9-4.7-12.45 7.7 2.05 7.7 12.55.55 3.6 3.85 6.9" fill="#16544a"/><path d="M24.35 38.35q.9-3.95 2.6-4.95-.4 5 3.85 6.55l-6.45-1.6M27.6 24.8q-16.45 3.75-15.4-6.2 4.75-7.25 25.05-11.8-27.05 10.35-9.65 18m11.55-3.4q3.7.65 7.85 3.4 5.45 4.1 8.2 8.2 3.4 8.1 14.35 11.4L50.15 43q-3.3-3.3-3.85-6.9 0-10.5-7.7-12.55.15-1.1.55-2.15" fill="#062f2a"/><path d="M19.45 8.5Q-1.35 22.75 8.4 27.8q5.2 7.65 15 0-.5 3.15-7.6 7.8Q-5.95 32.65 2.2 19q6.1-6.15 17.25-10.5M30.8 39.95q-2.4-3.1-2.4-6.95-3.8-4.1-.8-8.2 5.2-4.6 11.55-3.4-.4 1.05-.55 2.15Q37.45 30.1 43.3 36q-4.85 2.85-9.7-8.4-2.25 9.3 1 13.1l-3.8-.75" fill="#56ab8d"/></g><g id="v" fill-rule="evenodd"><path d="M38.95 159.6q-14.7-8.65-27.35-19.4-4.1-8.05-6.8-22.6Q3.85 88.65 6.4 55l9.2-11-6.4 12q-1.5 8.65-1.6 16.8 1.8 27.05 8.4 44.4 13.65 14.7 29.65 26.1l-6.7 16.3" fill="#642475"/><path d="M45.65 143.3q-16-11.4-29.65-26.1-6.6-17.35-8.4-44.4.1-8.15 1.6-16.8l6.4-12-9.2 11q-2.55 33.65-1.6 62.6 2.7 14.55 6.8 22.6 12.65 10.75 27.35 19.4l-2.75 6.75Q20.35 157.45 6 140.4q-2.75-7.2-4.8-19.6Q-1.85 88 3 54.6q14.35-23.4 36.6-36L17 53.6q-1.8 19.1 1.2 41 8.75 13.7 37.95 23l-1.4 3.45Q19.7 107.2 17 99.2q-5-7.1-5.4-28.8-2.4 18 4.2 33.8 14 14.15 37 21.65l-7.15 17.45" fill="#2a0534"/><path d="M52.8 125.85q-23-7.5-37-21.65-6.6-15.8-4.2-33.8.4 21.7 5.4 28.8 2.7 8 37.75 21.85l-1.95 4.8" fill="#425143"/><path d="M183.45 123.05q4.15 3.05 11.65 4.05 17.25 3.1 21.1 9.5-1.05 1.05-10 .2-10.6 2.1-17.4 1 9 9.6 14.5 22.1 7.05 16.2 14.1 26.4-8.4-1.5-18.6-1.6-16.95.45-44.2-18.1 27.25 15.65 37.8 15.8l19.45 1.15 1.55.15q-2.95-1.55-14.3-28-12.05-24.15-25.2-21.7.75-1.3 5.3-1.5 5.3 1.65 8.2 3.6h10.7q4.55-1.55 12.25-1.5l1.55.3q-7.7-4.55-22.1-7.2-2.15-1.55-4.8-2.4l-1.55-2.25" fill="#082051"/><path d="M185 125.3q2.65.85 4.8 2.4 14.4 2.65 22.1 7.2l-1.55-.3q-6.3-1.15-14.85-1.5-5.4-.05-8.7-2.6-5.8-3.3-7.2-6.2 2.9.2 5.4 1m-11.1 8.7q13.15-2.45 25.2 21.7 11.35 26.45 14.3 28l-1.55-.15q-5.55-7.5-15.35-9.55-14.25-1.45-16.8-4.5 6.35-.3 14.6-6.2-8.75-1.15-17.5-9-5.85-15.8-2.9-20.3" fill="#2c71bb"/><path d="m183.45 123.05 1.55 2.25q-2.5-.8-5.4-1 1.4 2.9 7.2 6.2 3.3 2.55 8.7 2.6 8.55.35 14.85 1.5-7.7-.05-12.25 1.5h-10.7q-2.9-1.95-8.2-3.6-4.55.2-5.3 1.5-2.95 4.5 2.9 20.3 8.75 7.85 17.5 9-8.25 5.9-14.6 6.2 2.55 3.05 16.8 4.5 9.8 2.05 15.35 9.55l-19.45-1.15q-10.55-.15-37.8-15.8-10.95-30.95 26-46.4 1.15 1.6 2.85 2.85" fill="#192a59"/><path d="m30.05 142.45-.95 1.85-2.3 21.8q-3.65 5.4-8.35 8.45-3.25-1.25-6.05-1.1 11.15-4.9 11.6-13.15.1-16.8 1-17.7 6.1-9.55 14.8-18 16.7-24.5 51-32.1-36.2 13.45-53.8 40.9-4.05 3.7-6.95 9.05M26.2 206.3l4.5-.4q.1 2.7.9 5 1.55 4.45 5.7 7.5 12.7 1.35 27.2.75l4.6-.25q5.15.15 6.65-2.5l-.65 6.45-21.8.65-1.75-.45-4.7-.7-4.95-.15-2.9.1q-9.15-.1-12.8-16m38.75-3.85q2.15-1.6 2.6-4.35 5.05-4.55 10.75-7.5 6.45-3.45 14.3-3.4 7.05-1.6 12.3-1.7 4.1-.95 9.3-13.8 3.8.4 8.7 3.8l-1.3-3.7-1.7-2.7q8.25-.45 18.4 6.2l-1.9-5.2q-3.5-8.85-7.4-14 6.5 3.5 12.85 3.3l-1.65 2.2q-4.05-.4-8.1-3.3 5.1 7.65 7.3 16.8 2.35 5.7 0 3.6-7.55-6.75-16.5-8.1 6.7 13.4.4 8.5-4.1-3.4-7.8-4.7-1.8 6.55-4.4 10-2.5 3.85-15.2 5.2h-2.05l-2.45.4q-2.4.6-5.1 2.05-3.35 2.8-7.6 3.85l-1.7.25q-1.3.25-2.55.8-2.8 1.2-5.35 3.75l-4.15 1.75m92.65-64.2.3-1.05q13.75 3.15 19.5 8 5.45 6.6 13.7 11.2-4.25 6.9-22.3 7.1 2.95 1.9 9 3.4-.05 3.4-13 3.75 9.95 3.95 17.5 14.45 2.15 7.25-1.4 4.8-4.75-1.75-9.1 0-21.75 10.3-38.75 10 5 3.8 9.75 14l-16.25-6.85q1.65 1.7 5.05 10.75-20.65-3.9-41.4-.25 1.1-2.65 1.85-5.7 6.7-2.9 12.8-3.85 9.1-1.45 16.85 1.4l-2.2-2.9q-5-6.45-9-10.2 2.7.75 5.4 3.4 6.75-.55 14.7 2.8l-5-5.3q-.65-1.3 3.1-.95l4.5.65q15.35.5 30.3-6.8 6.7-3.05 11.9-3.25 2.9-.1 5.3.65-6.25-11.05-18.4-16.85l-2.8-1.25q6.75.3 15.5-1.4l-1.05-.45q-5.75-2.4-8.45-5.45 15 .15 23.3-5.6-5.5-1.6-10.6-7.6-8.1-8.75-20.6-10.65" fill="#2a0534"/><path d="m26.8 166.1 2.3-21.8.95-1.85q2.25-2.55 14.85 6.15 16.8-4.5 18.3 3.1 2.8 1.45 0 9.9-1.15 5.1-7 5.1-15.5 2.15-29.4-.6m108.1 18.95-.2-.2q-1.2-1.4-1.4-2.95 1.1 1.75 3.7 1.3 9.05 1.35 14.5 4.1-2.75 1.3-8.3 2.2-5.9-1.9-8.25-4.4l-.05-.05m30.3-5.2 3.7-.35q-2.1-6.2-8.7-8.4l2.1-.45q12.15 5.8 18.4 16.85-2.4-.75-5.3-.65l-.8-.5q-3.75-2.6-10-1.55-6.55-2.35-10.7-1.5 3.6-2.6 11.1-3.45l.3.15-.1-.15m8.75-12.3q-6.95 1.75-13.45-.85-4.45-3.45-10.9-2.2 7.75-4.1 15.9-2.4 2.7 3.05 8.45 5.45M119.5 206.5q-4.75-3.35-12.5-5.2-4.65-.8-3-4 1.15-2.6 6.5-1 4 3.75 9 10.2m-87.9 4.4q.35-3.15 5.5 1.4 5.05 3.75 16.1 3.7 10.15 1.25 11.3 3.15-14.5.6-27.2-.75-4.15-3.05-5.7-7.5" fill="#e16ec1"/><path d="M12.4 173.45q2.8-.15 6.05 1.1l1.85.85q12.2 3.85 31-1.9 1.15-.55 2.4-.7 3.7-.35 8.2 3.3 6.9 7.95 5.7 20.9l-.05 1.1q-.45 2.75-2.6 4.35-3.6 2.55-12.05 1.85l-22.2 1.6-4.5.4q-6.35.05-10.2-3-9-7.35-8.5-21.9 0-6 3.2-7.7l1.7-.25M56.65 175l-3.15.2q-10.3 3.4-23.6 4.6-6-.7-10.5-2.6-7.55-1.9-8.4 2.3-1.65 12.05 7.4 21.15l1.4 1.35q9.5 2.25 22.4.2l15.3-1.2q6.15-.2 7-4.9 2-9.5-2.5-16.9-2.6-3.55-5.35-4.2M44.3 195q-.75.05-.7-.35.35-1.05 2-2.15 5.2-5.05 10.2-5.9 2.65.7 2.2 4.65-.9 3.05-2.55 4.35-1.8.5-1.9-1.3l.5-.85q1.15-2.45.85-4.75-4.35 1.85-9 5.95l-1.6.35m-19.75.45-1.1-.65q-3.2-4.15-4.25-4-.2 1.4 1.9 5.3.45 1.45-.95 1.25-3.3-2.25-3.8-8.1.4-2.8 3.8-1.1 3.65 3.35 5.35 6.65-.35.7-.95.65" fill="#4f0c2c"/><path d="M30.05 142.45q2.9-5.35 6.95-9.05 17.6-27.45 53.8-40.9 15.15-3.4 33.8-3.5l10.5.45-9.6 40.05q-.6 5.2-6 12.6-2.5-2.2-1.9-7.1-2.9 4.05-3.9 13.7-3.25-3.5-3.3-9.4-3.85 5.7-6.6 19.5-6.5 11.8-22.7 16-6.4 2.8-13.1 0-9.25-4.75-14.3-2-1.25.15-2.4.7-18.8 5.75-31 1.9l-1.85-.85q4.7-3.05 8.35-8.45 13.9 2.75 29.4.6 5.85 0 7-5.1 2.8-8.45 0-9.9-1.5-7.6-18.3-3.1-12.6-8.7-14.85-6.15m.65 63.45 22.2-1.6q8.45.7 12.05-1.85l4.15-1.75q2.55-2.55 5.35-3.75 1.9 9.5 1.3 19.45-1.5 2.65-6.65 2.5l-4.6.25q-1.15-1.9-11.3-3.15-11.05.05-16.1-3.7-5.15-4.55-5.5-1.4-.8-2.3-.9-5m134.45-26.15q-6.55-10.55-19.85-15.15 7.15-4.15 17.7-7 9.4-.5 15.5 0-11.45-1.3-20.9-19.35 12.5 1.9 20.6 10.65 5.1 6 10.6 7.6-8.3 5.75-23.3 5.6-8.15-1.7-15.9 2.4 6.45-1.25 10.9 2.2 6.5 2.6 13.45.85l1.05.45q-8.75 1.7-15.5 1.4l2.8 1.25-2.1.45q6.6 2.2 8.7 8.4l-3.7.35-.05-.1m-30.25 5.3.05.05q2.35 2.5 8.25 4.4 5.55-.9 8.3-2.2-5.45-2.75-14.5-4.1-2.6.45-3.7-1.3.2 1.55 1.4 2.95-3.9-2.45-4.6-6.25 7.25.75 13.4 5.4-1.45-1.95-1.8-6.1 3.35-.6 7.4 1 9.65-2.05 15.9.95-7.5.85-11.1 3.45 4.15-.85 10.7 1.5 6.25-1.05 10 1.55-4.3-2.1-15.2.45-6.7 4.1-18.4 5.7-14.4.95-17.8-7.5 7.6.6 11.7.05m-6.2 11.2q-3.75-.35-3.1.95l5 5.3q-7.95-3.35-14.7-2.8-2.7-2.65-5.4-3.4-5.35-1.6-6.5 1-1.65 3.2 3 4 7.75 1.85 12.5 5.2l2.2 2.9q-7.75-2.85-16.85-1.4-3.45-.3-2.95-4.5v-10.1q4.95-3.05 18.2 3.7-3.85-2.9-5.1-6.2 7.75 4.35 13.7 5.35" fill="#813598"/><path d="M18.4 200.65q-9.05-9.1-7.4-21.15.85-4.2 8.4-2.3 4.5 1.9 10.5 2.6 13.3-1.2 23.6-4.6l3.15-.2q5.1 3.45 4.05 17.5-2 7.05-18.1 8-11.7 1.05-24.2.15m35.65-7.2-.5.85q.1 1.8 1.9 1.3 1.65-1.3 2.55-4.35.45-3.95-2.2-4.65-5 .85-10.2 5.9-1.65 1.1-2 2.15-.05.4.7.35 1.5.95 9.75-1.55m-33.9 3.9q1.6.7 2.15-1.05 1.8.55 2.25-.85.6.05.95-.65-1.7-3.3-5.35-6.65-3.4-1.7-3.8 1.1.5 5.85 3.8 8.1" fill="#d64f77"/><path d="m67.55 198.1.05-1.1q1.2-12.95-5.7-20.9-4.5-3.65-8.2-3.3 5.05-2.75 14.3 2 6.7 2.8 13.1 0 16.2-4.2 22.7-16 2.75-13.8 6.6-19.5.05 5.9 3.3 9.4 1-9.65 3.9-13.7-.6 4.9 1.9 7.1 5.4-7.4 6-12.6l9.6-40.05q33.45 4.4 22.8 47.75l-.3 1.05q9.45 18.05 20.9 19.35-6.1-.5-15.5 0-10.55 2.85-17.7 7 13.3 4.6 19.85 15.15l-.15.1q-6.25-3-15.9-.95-4.05-1.6-7.4-1 .35 4.15 1.8 6.1-6.15-4.65-13.4-5.4.7 3.8 4.6 6.25l.2.2q-4.1.55-11.7-.05 3.4 8.45 17.8 7.5 11.7-1.6 18.4-5.7 10.9-2.55 15.2-.45l.8.5q-5.2.2-11.9 3.25-14.95 7.3-30.3 6.8l-4.5-.65q-5.95-1-13.7-5.35 1.25 3.3 5.1 6.2-13.25-6.75-18.2-3.7v10.1q-.5 4.2 2.95 4.5-6.1.95-12.8 3.85 2.25-9.15 1.8-22.25h2.05q12.7-1.35 15.2-5.2 2.6-3.45 4.4-10 3.7 1.3 7.8 4.7 6.3 4.9-.4-8.5 8.95 1.35 16.5 8.1 2.35 2.1 0-3.6-2.2-9.15-7.3-16.8 4.05 2.9 8.1 3.3l1.65-2.2q-6.35.2-12.85-3.3l-4.9-1.1q6.7 5 12.3 15.1l1.9 5.2q-10.15-6.65-18.4-6.2-4.05-5.95-7-4.1l8.7 6.8 1.3 3.7q-4.9-3.4-8.7-3.8-5.2 12.85-9.3 13.8-5.25.1-12.3 1.7-7.85-.05-14.3 3.4-5.7 2.95-10.75 7.5" fill="#3c1348"/><path d="M18.4 200.65q12.5.9 24.2-.15 16.1-.95 18.1-8 1.05-14.05-4.05-17.5 2.75.65 5.35 4.2 4.5 7.4 2.5 16.9-.85 4.7-7 4.9l-15.3 1.2q-12.9 2.05-22.4-.2l-1.4-1.35m35.65-7.2q-8.25 2.5-9.75 1.55l1.6-.35q4.65-4.1 9-5.95.3 2.3-.85 4.75m-33.9 3.9q1.4.2.95-1.25-2.1-3.9-1.9-5.3 1.05-.15 4.25 4l1.1.65q-.45 1.4-2.25.85-.55 1.75-2.15 1.05" fill="#761d49"/><path d="m119.9 169.1 1.7 2.7-8.7-6.8q2.95-1.85 7 4.1m9.1-13q3.9 5.15 7.4 14-5.6-10.1-12.3-15.1l4.9 1.1" fill="#425244"/><path d="M91.4 190q.45 8-1.5 15.95-1-9.35-3.6-13.9 2.7-1.45 5.1-2.05" fill="#98b59c"/><path d="m84.9 219.3.2-13q.2-7.5-2.3-7.9-4.3-.25-4.95 3.7l-.85-5.95 1.7-.25q4.25-1.05 7.6-3.85 2.6 4.55 3.6 13.9-1.65 6.7-5 13.35" fill="#3b304e"/><path d="M90.2 217.55Q86.75 226 80.1 229.7q-7.5 2.55-5.65-3.1l.65-3.75.65-6.45q.6-9.95-1.3-19.45 1.25-.55 2.55-.8l.85 5.95.25 2.35q.8 7.65.6 15.65v.5l-.2 4.9q1.9 1.95 6.4-6.2 3.35-6.65 5-13.35Q91.85 198 91.4 190l2.45-.4q.45 13.1-1.8 22.25-.75 3.05-1.85 5.7m-38.65 5.5q-3.5 4.9-9.65 5.45-4.4-.55-2.9-6.2l2.9-.1-.2 1.55q.15 2.8 5.15-1.4l4.7.7" fill="#281e39"/><path d="M78.7 220.6q.3 2.5 1.3 2.7 3-5.4 3.75-12.7l.1-1.15q.75-7.65-1.65-8.25-3.8-.7-4.1 3.25l-.25-2.35q.65-3.95 4.95-3.7 2.5.4 2.3 7.9l-.2 13q-4.5 8.15-6.4 6.2l.2-4.9" fill="#9a91b9"/><path d="M78.1 204.45q.3-3.95 4.1-3.25 2.4.6 1.65 8.25l-.1 1.15Q83 217.9 80 223.3q-1-.2-1.3-2.7v-.5q.2-8-.6-15.65" fill="#f4f5ff"/><path d="m41.9 222.2 4.95.15q-5 4.2-5.15 1.4l.2-1.55" fill="#f0f1fb"/><path d="m36.7 85.85-.1-3.25q-3.5-12.3-7-11 3.4 7.65 1 20.4-2.4 10.7 2.4 22.8l2.2 3.35q2.5 4.25 3.15 7.75-1.4-8.75-.6-14.95l4.85 14.65-3.8 9.6-1.1-2.95-1.9-4.85q-3.55-3.05-5.6-10.6-5.9-13.25-2.6-25.8 1.95-9.6 0-14.6-1.55-7.15 0-8.8Q33.4 66 38.4 72 42.95 54 67 36 85.25 21.7 96.6 8.8q.95-5.35 5.6-3.4 3.4 3.3 5.2 13.8 31.5-8.4 71.3 7.15l-.35 3.45-10.05-3.2q-7.25-2.1-14-3.55-41.85-9-64.5 8.35 4.9-6.65 14.8-10.8-2.6-11.1-4.4-11.4-9.45 14.5-26.9 26.3l-.25.2L71 37Q43.45 55.9 36.7 85.85" fill="#0b2456"/><path d="M29.6 71.6q3.5-1.3 7 11l.1 3.25q.45 9.1 3.7 13.15-.8-26.05 21.2-51.55Q44.45 71.3 47 97.4q3.55 21.25 1.6 39.4 4.6-10 9.2-27.4v10q6.8-10.3 10-29.4 6.6-24.85 19-36-16.05 11.75-26.6 28.2 5.65-21.45 20.75-42.15-3.7 7.5-4.55 15.35 17.3-34.3 77.9-32.35 6.75 1.45 14 3.55-19.85 30.75-37.9 36.2-12.75 4.3-20.6 13.4-5.7 4.8-11.4 12.6.05-13.1 8-23-26.9 14.3-46 56.4-6.75 19.1-16.6 23.8l1.2-26.4-6.6-12.2q-.45 1.65-.65 3.55-.8 6.2.6 14.95-.65-3.5-3.15-7.75-2.05-5.25-.8-19.35l3.05 6.55q-.5-20.75-7.85-33.75M87.8 66q6.6-6.65 21.2-15.6l12.8-16.6q-9.7 3.45-24.4 13.8-7.9 11.25-9.6 18.4m1.8 43q-4.15 17.7-12.7 21.85 2.8-13.3 12.7-21.85" fill="#2c71bb"/><path d="m42.6 125.6-4.85-14.65q.2-1.9.65-3.55l6.6 12.2-1.2 26.4q14.05-2.85 33-22l-.8 8.4 14.55-10.75 7.05-5.25q-1.6 2.2-1.95 3.5-1.05 3.5 6.55.3 5.95-2.5 17.1-9.05l4.3-2.55 20.15-2.65-5 4-24.35 5.45q-25 14-20.2 6.4L75.6 134q-2.25.7-.2-6.6-16.35 17.9-32.8 20.2v-22" fill="#092051"/><path d="M35.2 118.15 33 114.8q-4.8-12.1-2.4-22.8 2.4-12.75-1-20.4 7.35 13 7.85 33.75L34.4 98.8q-1.25 14.1.8 19.35" fill="#85fbfb"/><path d="M36.7 85.85Q43.45 55.9 71 37l2.05-1.3Q66.8 41.45 61.8 47.25l-.2.2Q39.6 72.95 40.4 99q-3.25-4.05-3.7-13.15M100.2 9.2q1.8.3 4.4 11.4-9.9 4.15-14.8 10.8 22.65-17.35 64.5-8.35Q93.7 21.1 76.4 55.4q.85-7.85 4.55-15.35 3.7-7.5 10.25-14.65 11.25-10.7 9-16.2m68.1 17.4 10.05 3.2q-5.95 51.5-34.6 76.15l-20.15 2.65-4.3 2.55q5.65-11.95 6.2-26.15-6.5 8.9-15.8 18.5-3.15 2.15-5.5 10.4l-2 6.3q-7.6 3.2-6.55-.3l2.15-3.35q3.6-6.45 5.1-14.55-7.4 8.4-12.35 19.65L76 132.4l.8-8.4q-18.95 19.15-33 22 9.85-4.7 16.6-23.8 19.1-42.1 46-56.4-7.95 9.9-8 23 5.7-7.8 11.4-12.6 7.85-9.1 20.6-13.4 18.05-5.45 37.9-36.2M89.6 109q-9.9 8.55-12.7 21.85 8.55-4.15 12.7-21.85" fill="#192a59"/><path d="m73.05 35.7.25-.2q17.45-11.8 26.9-26.3 2.25 5.5-9 16.2-6.55 7.15-10.25 14.65-15.1 20.7-20.75 42.15Q70.75 65.75 86.8 54q-12.4 11.15-19 36-3.2 19.1-10 29.4v-10q-4.6 17.4-9.2 27.4 1.95-18.15-1.6-39.4-2.55-26.1 14.6-49.95l.2-.2q5-5.8 11.25-11.55M87.8 66q1.7-7.15 9.6-18.4 14.7-10.35 24.4-13.8L109 50.4Q94.4 59.35 87.8 66" fill="#87fffd"/><path d="m102.2 120.2 2-6.3q2.35-8.25 5.5-10.4 9.3-9.6 15.8-18.5-.55 14.2-6.2 26.15-11.15 6.55-17.1 9.05m-4.4-3.65-.2-.15-7.05 5.25Q95.5 110.4 102.9 102q-1.5 8.1-5.1 14.55" fill="#165d79"/><path d="m37.7 132.25 1.1 2.95 3.8-9.6v10.1q-1 2.15-4.4 2.3-2.7-2.45-2.3-3.8l1.8-1.95m4.9 15.35q16.45-2.3 32.8-20.2-2.05 7.3.2 6.6l18.6-12.2q-4.8 7.6 20.2-6.4l24.35-5.45q-5.95 4.3-12.75 7.65-29.7 11.3-35.4 10.2-8.55 6.8-15.6 9.8-5.15 5.65-5 0-16.75 13.15-27.4 10" fill="#2a0534"/><path d="m138.85 160.15 1.95 1.85q-13.2-3.3-11.6-11.8 3.05 7.65 9.65 9.95m57.6-157.7q-3.65 4.9-6.9 9.95-13.5 10-28.35 29.2-1.9 12.1-5.55 23.65l-.75 2.35q-3.6 10.65-8.7 20.8-8.1 16.2-11 26.8l-2.2 31-.1-3.8-.9-24.4q6.25-19.65 17.6-41.2 7.6-20.3 10.4-36.6 7.35-10.5 23.8-25.8l-14.6 8.75q-19.05 12.2-18 17.45-3.1 16.35-8 27.2-9.9 17.3-22.2 32.8-6.25 4.5-11.8 21.2l-2.15 6.65-.1.25q-1.7 3.95-3.35 4.9-1.1-6.5 5.8-18.8 1.7-10.45 5.4-13.6l8.4-10.2q23.25-23.2 24.2-55.6 22.85-20.2 49.05-32.95" fill="#2a0534"/><path d="M133 146.2q-2.95 7.75 5.85 13.95-6.6-2.3-9.65-9.95l-1.8-1.2q3.5-.2 5.5-6.6l.1 3.8m36.2-123.05 14.6-8.75q-11.7 8.45-19.95 16.45l5.35-7.7M159.8 35l-11.2 36.2-17 30.8q-6.15 7.65-5.4 17.6.2 15.8-6.9 21.85-2.45-3.6-1.65-6.85 3.95-2.15 5.15-11.4-1.75-10.3 7.8-26.2L148 68l5.4-20.2q.5-8.7 6.4-12.8" fill="#813598"/><path d="M182.35 24.5q3.3-6.1 7.2-12.1 3.25-5.05 6.9-9.95L201.6 0l-28.8 60.2q-1.2 27.05.6 60.8-4.9 15.95-11.2 27.8-9.3 7.65-21.4 13.2l-1.95-1.85q4-1.6 8.25-4.15 6.55-3.9 13.7-10 7.15-14.25 9.8-24.8-2.2-36.65 0-69.6 4.55-13.85 11.75-27.1m-26.7 40.75q2.65 8.6 2.9 27.45 1.5 26-7.55 38.3 8.15-25.55 3.9-63.4l.75-2.35" fill="#4f0c2c"/><path d="M189.55 12.4q-3.9 6-7.2 12.1-19.4 10.65-20.35 52.7-1.35 26.45 0 46l-10.8 21.2q-5.45 7.65-4.1 11.6-4.25 2.55-8.25 4.15-8.8-6.2-5.85-13.95l2.2-31q2.9-10.6 11-26.8 5.1-10.15 8.7-20.8 4.25 37.85-3.9 63.4 9.05-12.3 7.55-38.3-.25-18.85-2.9-27.45 3.65-11.55 5.55-23.65 14.85-19.2 28.35-29.2" fill="#761d49"/><path d="M183.8 14.4Q167.35 29.7 160 40.2q-2.8 16.3-10.4 36.6Q138.25 98.35 132 118l.9 24.4q-2 6.4-5.5 6.6-5.7-3.95-8.1-7.55 7.1-6.05 6.9-21.85-.75-9.95 5.4-17.6l17-30.8L159.8 35l4.05-4.15q8.25-8 19.95-16.45" fill="#3c1348"/><path d="M163.85 30.85 159.8 35q-5.9 4.1-6.4 12.8L148 68l-17.4 29q-9.55 15.9-7.8 26.2-1.2 9.25-5.15 11.4-1.9 1.05-4.45.4-7.9.15-6.25-6.3l.1-.25 2.15-6.65q5.55-16.7 11.8-21.2 12.3-15.5 22.2-32.8 4.9-10.85 8-27.2-1.05-5.25 18-17.45l-5.35 7.7" fill="#e16ec1"/><path d="M182.35 24.5q-7.2 13.25-11.75 27.1-2.2 32.95 0 69.6-2.65 10.55-9.8 24.8-7.15 6.1-13.7 10-1.35-3.95 4.1-11.6l10.8-21.2q-1.35-19.55 0-46 .95-42.05 20.35-52.7" fill="#d64f77"/><path d="M90.55 145.9q-3.05-4-8.55-5.1-5.65 3.65-10.2 10.45-.4 2.25-.35 4.3.05 3.6 1.35 6.65l.4.9q1.05 1.3 2.4 2.25 2.45 1.75 6 2.25 5.9.35 9.7-7.1 1.3-2.35 1.55-5.35l-.15-4-.2-1.3-.2-1.05-1.75-2.9m-21.9 24.55.55 1.95q-7.55-9.5 0-22 8.4-12.05 19.3-15.5 12.35-1.95 17.5 4l-4.25-1.15q-6.7-1.2-15.65.85-1.45.6-2.8 1.4 5.55.15 9.5 5.3l.6.8q2.05 2.7 1.3 11.1-.6 4.85-3.8 8.2 2.75-.85 5.15-4.05 1.4-1.95 2.65-4.75 1.2-11.8 3.15-16.9.3 8.3-.4 15.7-2.15 9.05-10.55 12.2-4.8 2.2-9.6 1.8-9.35-.4-12.6 1.05l1.35-1q2.7-1.6 6.85-1.35-3-1.15-5.45-4.25l-.65-.85q-1.55-4.6-.6-9.3-3.85 7.85-1.55 16.75" fill="#2a0534"/><path d="m101.75 137.75.1 1.95q-1.95 5.1-3.15 16.9-1.25 2.8-2.65 4.75 1.8-4.85 1.25-12.85-.15-4.65-4.5-3.2-3.95-5.15-9.5-5.3 1.35-.8 2.8-1.4 8.95-2.05 15.65-.85m-33.05 32.7h-.05q-2.3-8.9 1.55-16.75-.95 4.7.6 9.3l.65.85q-2.1 2.15-1.4 5.6l-1.35 1" fill="#8d8d8d"/><path d="M71.45 155.55q1.75-5.6 6.35-4.55 1.15.45 1.9 1.3 1.7 1.95 1.4 6.1-.85 2.5-1.95 3.8-.7.8-1.55 1.1-3 .6-4.8-1.1-1.3-3.05-1.35-6.65m0 8.3q2.45 3.1 5.45 4.25-4.15-.25-6.85 1.35-.7-3.45 1.4-5.6m24.6-2.5q-2.4 3.2-5.15 4.05 3.2-3.35 3.8-8.2.75-8.4-1.3-11.1l-.6-.8q4.35-1.45 4.5 3.2.55 8-1.25 12.85M83.2 163.3l-.5-.4q-.7-.7-.7-1.65t.7-1.65q.7-.7 1.65-.7t1.65.7q.7.7.7 1.65v.3q-.1.75-.7 1.35-.7.7-1.65.7l-1.1-.3h-.05" fill="#fff"/><path d="M79.7 152.3q5.95-5.3 10.85-6.4l1.75 2.9.2 1.05q-5.4-1.75-4.6 2.35 1.15 5.5-1.1 9.25l-.1.1v-.3q0-.95-.7-1.65t-1.65-.7q-.95 0-1.65.7t-.7 1.65q0 .95.7 1.65l.5.4-4.05-1.1q1.1-1.3 1.95-3.8.3-4.15-1.4-6.1" fill="#023d22"/><path d="M77.6 163.3q.85-.3 1.55-1.1l4.05 1.1q-6.25 1.25-1.6 4.3-3.55-.5-6-2.25 1.6.35 2-2.05" fill="#19a03e"/><path d="M79.7 152.3q-.75-.85-1.9-1.3-4.6-1.05-6.35 4.55-.05-2.05.35-4.3 4.55-6.8 10.2-10.45 5.5 1.1 8.55 5.1-4.9 1.1-10.85 6.4" fill="#012213"/><path d="M72.8 162.2q1.8 1.7 4.8 1.1-.4 2.4-2 2.05-1.35-.95-2.4-2.25l-.4-.9" fill="#7edf6c"/><path d="M92.7 151.15q-.6-.45-1.35-.45-1 0-1.75.75-.75.7-.75 1.7t.75 1.75q.75.75 1.75.75.8 0 1.5-.5-.25 3-1.55 5.35-2.25-1.7-4.5.95 2.25-3.75 1.1-9.25-.8-4.1 4.6-2.35l.2 1.3" fill="#129b3b"/><path d="m92.7 151.15.15 4q-.7.5-1.5.5-1 0-1.75-.75t-.75-1.75q0-1 .75-1.7.75-.75 1.75-.75.75 0 1.35.45" fill="#abfc7f"/><path d="M91.3 160.5q-3.8 7.45-9.7 7.1-4.65-3.05 1.6-4.3h.05l1.1.3q.95 0 1.65-.7.6-.6.7-1.35l.1-.1q2.25-2.65 4.5-.95" fill="#aafb7f"/></g><use ffdec:characterId="2" height="241.85" width="148.95" xlink:href="#m" id="c"/><use ffdec:characterId="4" height="132.3" transform="translate(.25 36.95)" width="302.35" xlink:href="#n" id="d"/><use ffdec:characterId="11" height="169" width="109.25" xlink:href="#o" id="e"/><use ffdec:characterId="13" height="201" width="119.6" xlink:href="#p" id="f"/><use ffdec:characterId="15" height="291.75" width="338.85" xlink:href="#q" id="g"/><use ffdec:characterId="17" height="132.45" width="139.1" xlink:href="#r" id="h"/><use ffdec:characterId="19" height="246.5" width="248.45" xlink:href="#s" id="i"/><use ffdec:characterId="21" height="82.25" width="188.7" xlink:href="#t" id="j"/><use ffdec:characterId="23" height="44.8" width="132.8" xlink:href="#u" id="k"/><use ffdec:characterId="25" height="230.5" width="217.4" xlink:href="#v" id="l"/><path d="M27.75 0q0 2-8.15 3.4Q11.5 4.9 0 4.9q-11.5 0-19.65-1.5-8.1-1.4-8.1-3.4 0-2.05 8.1-3.5Q-11.5-4.9 0-4.9q11.5 0 19.6 1.4 8.15 1.45 8.15 3.5" fill-opacity=".349" fill-rule="evenodd" transform="translate(27.75 4.9)" id="b"/></defs></svg>