<svg xmlns:ffdec="https://www.free-decompiler.com/flash" xmlns:xlink="http://www.w3.org/1999/xlink" ffdec:objectType="frame" height="90" width="90" xmlns="http://www.w3.org/2000/svg"><use ffdec:characterId="24" height="226.1" transform="translate(-9.208 7.373) scale(.3494)" width="334.1" xlink:href="#a"/><defs><g id="a" transform="translate(26.35 -21.1)"><use ffdec:characterId="1" height="9.8" transform="matrix(3.8849 0 0 6.0268 14.045 183.269)" width="55.5" xlink:href="#b"/><use ffdec:characterId="3" height="91.85" transform="translate(178.4 107.3) scale(1.0214)" width="121.9" xlink:href="#c"/><use ffdec:characterId="5" height="115.45" transform="translate(77.75 77.95) scale(1.0214)" width="143.45" xlink:href="#d"/><use ffdec:characterId="7" height="52.45" transform="translate(142.21 142.798) scale(1.0543)" width="35.05" xlink:href="#e"/><use ffdec:characterId="9" height="132.6" transform="translate(-24.4 87.15) scale(1.0214)" width="106.15" xlink:href="#f"/><use ffdec:characterId="11" height="106.6" transform="translate(108.25 71.2) scale(1.0214)" width="75.35" xlink:href="#g"/><use ffdec:characterId="13" height="88.45" transform="translate(65.2 21.1) scale(1.0214)" width="76.65" xlink:href="#h"/><use ffdec:characterId="19" height="121.35" transform="translate(19.35 59.35) scale(1.0214)" width="118.75" xlink:href="#i"/><use ffdec:characterId="21" height="91.3" transform="translate(166.4 123.6) scale(1.0214)" width="58.1" xlink:href="#j"/><use ffdec:characterId="23" height="113.1" transform="translate(73.5 131.6) scale(1.0214)" width="118.95" xlink:href="#k"/></g><g id="l" fill-rule="evenodd"><path d="M110 29.15q-.95 0-1.7.7-.7.75-.7 1.7 0 1 .7 1.75.75.7 1.7.7 1 0 1.75-.7.7-.75.7-1.75 0-.95-.7-1.7-.75-.7-1.75-.7m2.35-6.2.3 1.95q5.05 3.3 6.7 6.3-3.5 9.25-8.1 4.4.5 4.95 4.5 5.85l-.45 1.6q-2.65 2.8-5.65 1.4l-2.65-4q4.65-4.2 0-6.6-1.9 4.2-5 1.65-.9-3.3-3.5-2.2.85 2.4 0 5.4-3.7 1.85-6.2-.5 1.25-2.15 0-4.3-4.65 5.3-10.7 1.5-.9-4.15-4-6.55 1.15-1.15 3.1-1.95 4.35.35 7.25-8.35l2.25-1q-2.1 3.6-1.45 7.7-7.5 1.15-3.5 8.5 4.65 3.75 7.3-5 3.85.85 6.8-1.55.05 6.3 5.1 5.15 3.9-.65 3.25-6.85l4.65-2.55m-90.7 1.3q.7-2.15 2.65-2.8 2.05-5.05 6.5-2.4 3-2.65 4.65 0 2.4.05 3.5 1.4-5 .9-5.95 5.95-4.75-2.5-11.35-2.15M42 31.5q-3.05-2.35-.6-5.75 3 0 4.7-2.55l-1.65-7.05q3.6-7.75 6.55-4.2.5-2.3 1.8-2.25-1.4 1.05-1.1 3.5-5.45 1.85-1.8 6.85 4.4 1.95 8.2-3.6l1.75-.95 3.05.65.35.3q-4.6.95-5.7 6.2-4.85-2.3-5.9 2.6Q43.6 24.9 42 31.5m61.6 17.6q5.5 5.8 1.05 11.4l-3.8 3.1q-5.4-.65-7.95 2.75-1.8-9.65-5.7-7.65 1.6 1 1.35 3-4.45-.15-6.65 3.85-4.4 2-4.85 6.75l-1.45.7q-.95-.45-.6-2.75-5.45-1.35-.55-6.05l.4 1.2q-2.15 0-1.65 2.9 1.7 1.8 3.1-1.3 2.8.6 4.4-2.1.8-6.1-4.4-5.3 1.35-1.95 4.1-3l-.65-1.5 2-3.65q2.15 3.7 6.9 3.8 4.75 6.55 11 1.45 2.45-9.5-6.05-9.2l-1.5-3.05 6.85 1.35-.55-1.05q4.25.45 5.2 4.35M74.75 9.55q-2-1.45-4.9-.25-2.8-3.65-7.25-2.3-.05-1.75 2.7-3.7.4 2.75 3.35 2.95Q71.4 5.4 70.7 2q4.1-.05 2.8 3.85 1.95 1.75 1.25 3.7m-4.9 11.35q-.3-2.75-2.5-3.3l.25-2.45q2.15-.95 3.85-1.45-1.95 2.35-.8 5.75l-.8 1.45m-5.8 14.5q4.35-.9 3.6-5.85l2.45-2.25q6.35 1.6 5.95-6.9 2.1-1.1 1.7-4.55l1.85 1.05 1.8-.95q3.9 4.05-.3 9.3-3.4.9-5 2.65-7.15.1-8.35 8.7-2.45.1-3.7-1.2m21.5 20.5q-.85-.8-2-.8-1.2 0-2.05.8-.85.85-.85 2.05 0 1.2.85 2 .85.85 2.05.85 1.15 0 2-.85.85-.8.85-2t-.85-2.05m-21.7 27.05q6.4-.85 6.5 4.05l-1.4 1.1q-1.55-1.65-4.05-1.8l-1.05-3.35" fill="#528604"/><path d="M110 29.15q1 0 1.75.7.7.75.7 1.7 0 1-.7 1.75-.75.7-1.75.7-.95 0-1.7-.7-.7-.75-.7-1.75 0-.95.7-1.7.75-.7 1.7-.7" fill="#a1c520"/><path d="M119.35 31.2q-1.65-3-6.7-6.3l-.3-1.95q-.95-2.65-5.3-.95-5-9.2-16.85-4.45l-2.25 1q-2.9 8.7-7.25 8.35-1.95.8-3.1 1.95-.9.85-1.35 1.9-1.35 3.35 2.05 8.65-2.6 3.85 1.4 3.65l-.35.35q-4.9.15-1.7-3.9l-1.1-1.35q-1.7 1.6-2.9.9l-.85-.75-.75-.4-1.15-.35-1-.1-2.75.15q-5.75-.55-5.05-10.05Q61.25 22 66.45 19H64.9q-.15-1.3-1.65-2.55l-.35-.3q-1.9-1.45-5.7-2.8-2.8-3.55-4.4-3.65-1.3-.05-1.8 2.25-2.95-3.55-6.55 4.2l1.65 7.05q-1.7 2.55-4.7 2.55-2.45 3.4.6 5.75 1.1.8 2.9 1.5l-1.25.75q-7.5-2.3-2.05-9.45l-1.85-1.7q-.15-1.35-.8-2.15-1.1-1.35-3.5-1.4-1.65-2.65-4.65 0-4.45-2.65-6.5 2.4-1.95.65-2.65 2.8-1.25 3.55.9 11.2l-1.2-1.1Q18.5 23.4 23.4 20.6q1.7-5.9 7.4-3.85 2.65-1.25 4.6 1.4 3.8-.7 5.25 3.35 2.4 1.15 2.05 3.1l2.2-1.4q-4.55-12.85 5.65-13.55Q51.8 5.5 57.3 12.3l7.6 3.85 1.5 1.6V15.4l-1.7-1.9q-7.9-1.05-3.15-7.45 2.65-5 6.95-5.75 6.7-1.5 6.55 5.05 2.25 3.5 0 6.05 3.55 1.1 4.45 4.55 5.35-4.2 7.9 1.6 12.7-8.8 20.15 2.7 5.4-.35 5.85 3.85 14.6 6.95 4.05 16.25-.95 13.25-7.95 11.7 4.85 9.4-2.35 15.75 1.8 8.65-8.8 8.55 0 4.25-1.6 5.95Q83.1 92.95 77.2 80.5l1.1-1.3 1-1.2.5-.55.6-.75.4-3.25q5.15-3.6 11.05-.4-1.1 4.35 2.6 3.8-4.9 2.9-3.65-3.1-4.6-2.25-9.1.45-.05 3.45-2.15 5.55l-.95.85q2.95 8.25 12.65 3.55 5.8-1.9 5.75-8.15 1.45-1.85 5.2-1.55 4.9-1.3 3.95-8.05l2.05-2.75q3.2-5.25.25-10-2-2.75-4.85-4.55-.95-3.9-5.2-4.35l-1.7-.55q-3.5-3.75-8.25-2.25-11.7 4.8-8.7 13.15l.65 1.5q-2.75 1.05-4.1 3-1.15 1.7-1.3 4.05l-.55.55q-4.9 4.7.55 6.05-.35 2.3.6 2.75l-1.1.45q-.8-.8-.05-2.95l-1.8-.35q-3.55 2.2-6.6-.55-5.05.7-6.9-3l.6-.4q1.75 3.65 6.5 2.5 2.55 2.15 5.7 1.05-2.2-1.65 1.9-6.35l.1-.65.2-.8.4-1.25.35-.7q1.45-2.7 4.7-3.65l-1.5-3.8-2.25-.55-1.05.75q-3.55 7.2-7.7 3.4l-.6-.6q5.15 3.2 7.5-3.15l1.45-.95.45-.3 2.35.45q.1-1.3.45-2.45l.35-.9q1.05-2.5 3.55-4.4l1.1-.8q1.75-1.15 4.15-2.05 4.65-1.5 7.75 1.25 3.85.95 4.85-5.15 3.5 3.1 7.5 0-3.2 4.15-6.95 1.4-1 5.05-4.15 4.75 6.3.85 7.15 5.2 1.85.8 3.45 2.45l.45.5 1.9-1.35q3.6 1.15 4.9-3.6l.6-3.4.45-1.6.5-1.65q5.7-3.9 3.1-8.6M82.3 69.3l-1.9-1.75q3.75 2.95 9.2-1.85 2.75 3.95 6.4 2.15-3.3 3.2-6-.75-2.8 2.85-6.4 2.4l-1.4 2.85.55-3.35-.45.3M48.25 31.55l-.55-.5-.8-1.2-2.2-.9 3.5.55q3.15 4.75 7.05-.55h.85l3.6-2.5-3.35 3.5h-.75L52 33.6q1.8 5.95 4.55 2.55 1 1.15 2.75.65-1.15 1.25-2.6.5l-1.95 1.3q-1.35-.55-2.25-1.9l-.35-.7-.7-1.9-.2-.9-1.85-.8-.5-.3-.65-.55m26.5-22q.7-1.95-1.25-3.7 1.3-3.9-2.8-3.85l-2.2.25q-1.6-.05-2.65.7l-.55.35Q62.55 5.25 62.6 7q0 .85.75 1.7-2.4 1.35-1.75-1.45-2.5 3.95 1.45 4.8 3.3-.5 3.2 2l6.45-1.95q1.6-1.3 2.05-2.55m-7.4 8.05-.3 2.4Q61.9 21.15 63 27.7q-.95 5.6 1.05 7.7 1.25 1.3 3.7 1.2 2.55-.9 5-.05 2.05 3.25 3.3.6l-.3-.6q-2.5-5.6.35-8.65 1.6-1.75 5-2.65l1.55-.35q4.7-3.9 2.9-8-.95-2.35-4.15-.95l-1.8.95-1.85-1.05q-.3-4.05-6.3-2.15-1.7.5-3.85 1.45l-.25 2.45m-12.6 24q.5-3.4 3.15-3 2.25-2.6 4.85-.5l.7-2.2v3.5q-3.1-2.45-5.5 0-3 0-2.9 7.1l-.95-.15.4-3.75q-4.9 2.95-6.35-2.8l.9.15q1.4 4.4 5.7 1.65m-10.2 7.95.5-.15q-.25 2.75 1.3 3.55.1 2.9 2.65 3.7l-2.55-.75-.75-2.25q-1.8-1.4-1.15-4.1M62.8 57.1l-1-.55q-.55-.5-.85-1.45l-.15-.9h.65q1.05 3.3 3.9 2.1l-1.15.8h-1.4m-3.7 23.45.95-.3.75.05 1.2.3q1.05.35 2.4 1.1l4 .75q5.1 3 1.65 7.05-2.95 4.75-6.2 0l-2.7 1.3q-3.1-2.1-3.15-5.35-.5-3.95 1.1-4.9m9.55-21.05q3.1-1.8 5.3.45l-5.3-.45M59.5 82.7l-.3.45v3.2q1.15 2.8 3.2 2.85l2.1-1.1q1.55 2.95 3.3 1.5l1.15-1.5 1.4-1.1q-.1-4.9-6.5-4.05Q61 80.5 59.5 82.7" fill="#234406"/><path d="m112.35 22.95-4.65 2.55q.65 6.2-3.25 6.85-5.05 1.15-5.1-5.15-2.95 2.4-6.8 1.55-2.65 8.75-7.3 5-4-7.35 3.5-8.5-.65-4.1 1.45-7.7 11.85-4.75 16.85 4.45 4.35-1.7 5.3.95M52.8 9.7q1.6.1 4.4 3.65 3.8 1.35 5.7 2.8l-3.05-.65-1.75.95q-3.8 5.55-8.2 3.6-3.65-5 1.8-6.85-.3-2.45 1.1-3.5M70.7 2q.7 3.4-2.05 4.25-2.95-.2-3.35-2.95l.55-.35q1.05-.75 2.65-.7L70.7 2m-3.65 18q1.4.05 2.5 1.45l.3-.55.8-1.45q-1.15-3.4.8-5.75 6-1.9 6.3 2.15.4 3.45-1.7 4.55.4 8.5-5.95 6.9l-2.45 2.25q.75 4.95-3.6 5.85-2-2.1-1.05-7.7-1.1-6.55 4.05-7.7M98.4 44.75l.55 1.05-6.85-1.35 1.5 3.05q8.5-.3 6.05 9.2-6.25 5.1-11-1.45-4.75-.1-6.9-3.8l-2 3.65q-3-8.35 8.7-13.15 4.75-1.5 8.25 2.25l1.7.55M76.3 59.6q5.2-.8 4.4 5.3-1.6 2.7-4.4 2.1-1.4 3.1-3.1 1.3-.5-2.9 1.65-2.9l-.4-1.2.55-.55q.15-2.35 1.3-4.05m9.25-3.7q.85.85.85 2.05 0 1.2-.85 2-.85.85-2 .85-1.2 0-2.05-.85-.85-.8-.85-2t.85-2.05q.85-.8 2.05-.8 1.15 0 2 .8" fill="#a3c821"/><path d="M77.6 28.85q3.1 2.4 4 6.55 6.05 3.8 10.7-1.5 1.25 2.15 0 4.3 2.5 2.35 6.2.5.85-3 0-5.4 2.6-1.1 3.5 2.2 3.1 2.55 5-1.65 4.65 2.4 0 6.6l2.65 4q3 1.4 5.65-1.4l-.6 3.4q-1.8 2.95-4.05 2.55-1.95.05-3.2 1.9-1.6-1.65-3.45-2.45-.85-4.35-7.15-5.2 3.15.3 4.15-4.75 3.75 2.75 6.95-1.4-4 3.1-7.5 0-1 6.1-4.85 5.15-3.1-2.75-7.75-1.25-2.4.9-4.15 2.05h-2.1L79 41.3v-3.1q-2.05-3.2-2.75-7.45.45-1.05 1.35-1.9m38.15 12.6q-4-.9-4.5-5.85 4.6 4.85 8.1-4.4 2.6 4.7-3.1 8.6l-.5 1.65m-93.2-6q-2.15-7.65-.9-11.2 6.6-.35 11.35 2.15.95-5.05 5.95-5.95.65.8.8 2.15l1.85 1.7q-5.45 7.15 2.05 9.45-2.6 1.55-5.4 2.45l-8.7-2.2-5.65 2.6-1.35-1.15M44.9 33q-1.8-.7-2.9-1.5 1.6-6.6 9.65-6.25 1.05-4.9 5.9-2.6 1.1-5.25 5.7-6.2 1.5 1.25 1.65 2.55h1.55q-5.2 3-4.35 8.55-.7 9.5 5.05 10.05l2.75-.15Q66.15 43.9 61.45 46l-6.4.5q-.1-7.1 2.9-7.1 2.4-2.45 5.5 0v-3.5l-.7 2.2q-2.6-2.1-4.85.5-2.65-.4-3.15 3-4.2 1.3-5.1-2.2l2.85-2.7q.9 1.35 2.25 1.9l1.95-1.3q1.45.75 2.6-.5-1.75.5-2.75-.65-2.75 3.4-4.55-2.55l3.6-3.65h.75l3.35-3.5-3.6 2.5h-.85q-3.9 5.3-7.05.55l-3.5-.55 2.2.9.8 1.2L44.9 33m27.9 5.3.85.75q1.2.7 2.9-.9l1.1 1.35q-3.2 4.05 1.7 3.9-3.55 3.1-7.4 4.4l-5.35-1.4 6.2-8.1m35.4 25.35-2.95 2.55q.4 5.5-3 6.6-5.25 0-6.9 3.75.45 4.35-3.15 6.7-10.6 3.5-12.65-3.5 2.1-2.1 2.15-5.55 4.5-2.7 9.1-.45-1.25 6 3.65 3.1-3.7.55-2.6-3.8-5.9-3.2-11.05.4l-.4 3.25h-5.25q4.65-1.95 7.6-7.7l-.55 3.35 1.4-2.85q3.6.45 6.4-2.4 2.7 3.95 6 .75-3.65 1.8-6.4-2.15-5.45 4.8-9.2 1.85l1.9 1.75-5.25 3q.45-4.75 4.85-6.75 2.2-4 6.65-3.85.25-2-1.35-3 3.9-2 5.7 7.65 2.55-3.4 7.95-2.75l3.8-3.1q4.45-5.6-1.05-11.4 2.85 1.8 4.85 4.55 2.95 4.75-.25 10M62.6 7q4.45-1.35 7.25 2.3 2.9-1.2 4.9.25-.45 1.25-2.05 2.55l-6.45 1.95q.1-2.5-3.2-2-3.95-.85-1.45-4.8-.65 2.8 1.75 1.45-.75-.85-.75-1.7m4.75 10.6q2.2.55 2.5 3.3l-.3.55q-1.1-1.4-2.5-1.45l.3-2.4m14.05-1.65q3.2-1.4 4.15.95 1.8 4.1-2.9 8l-1.55.35q4.2-5.25.3-9.3M76.1 27.9q-2.85 3.05-.35 8.65-1.6.25-3-1.25-2.75-1.6-5 1.3 1.2-8.6 8.35-8.7m2.6 21.25q-.35 1.15-.45 2.45l-2.35-.45 2.8-2m-11.6 7q4.15 3.8 7.7-3.4l1.05-.75 2.25.55 1.5 3.8q-3.25.95-4.7 3.65l-.95-.05q-2.2-2.25-5.3-.45l-3.35-.6 1.8-2.75m6.85 6.6-.1.65q-4.1 4.7-1.9 6.35-2.85.15-5.5-1.8-3.75 1.05-6.1-2.15l4.55-3.05h9.05m-11.7-8.8 13.2-4.3v.9L73.65 52q-2.8 5-6.35 2.75l.8-.85q-4.7 3.1-5.85.05M48.15 39.8q1.45 5.75 6.35 2.8l-.4 3.75q-5.45-.8-7.75-5.65l-7.4 1.65-10.8 1.05 3.05-2.85 7.75-2.3 9.2 1.55m1.25-7.4 1.85.8-2 3H45.4l4-3.8m-3.55 16.8.55-.15q6.4 3.55 14.4 5l.65.15h-.65l-6.6.4-3.65 1.55q-2.5-1.05-3.25-3.8-1.8-.6-1.45-3.15m.6 6.7-8.9-2.55q3.35-2.55 7-3.8-.65 2.7 1.15 4.1l.75 2.25m7.05 2.95q4.35-1.75 9.3-1.75h1.4q-2.85 3.7-6.1 5.35-3.8-.2-4.6-3.6m6 23.85q1.5-2.2 4.35.25l1.05 3.35q2.5.15 4.05 1.8l-1.15 1.5q-1.65-.15-1.9-1.2-2.05-2.45-4.05 0l-1.3-1.6q.1-1.95-1.05-4.1" fill="#326208"/><path d="M79.7 43.05q-4 .2-1.4-3.65-3.4-5.3-2.05-8.65.7 4.25 2.75 7.45v3.1l2.6 1.75h-1.9m27.75 7.85q1.25-1.85 3.2-1.9 2.25.4 4.05-2.55-1.3 4.75-4.9 3.6l-1.9 1.35-.45-.5m-27.9 28.85q2.05 7 12.65 3.5 3.6-2.35 3.15-6.7 1.65-3.75 6.9-3.75 3.4-1.1 3-6.6l2.95-2.55-2.05 2.75q.95 6.75-3.95 8.05-3.75-.3-5.2 1.55.05 6.25-5.75 8.15-9.7 4.7-12.65-3.55l.95-.85m-3.8-43.2.3.6q-1.25 2.65-3.3-.6-2.45-.85-5 .05 2.25-2.9 5-1.3 1.4 1.5 3 1.25m-.3 14.9L74 52.4q-2.35 6.35-7.5 3.15l-1.15.75q-2.85 1.2-3.9-2.1l.8-.25Q63.4 57 68.1 53.9l-.8.85Q70.85 57 73.65 52l1.8-1.45v.9m-3.5 18.3q-3.15 1.1-5.7-1.05-4.75 1.15-6.5-2.5l.6-.4q2.35 3.2 6.1 2.15 2.65 1.95 5.5 1.8M54.75 41.6q-4.3 2.75-5.7-1.65l.6-.55q.9 3.5 5.1 2.2m-9.7 7.8.8-.2q-.35 2.55 1.45 3.15.75 2.75 3.25 3.8l-1.3.55-.25-.05q-2.55-.8-2.65-3.7-1.55-.8-1.3-3.55M40 59.2Q24.95 55 7.2 53l-5.55.05-.2-.55H6.7q18.35.55 33.3 6.7m8.7 8.1-5.5-.9-7.6-7.6 1.8.5 6.4 6.2 4.9 1.8m19.1 22.3q-1.75 1.45-3.3-1.5l-2.1 1.1q-2.05-.05-3.2-2.85v-3.2l.3-.45q1.15 2.15 1.05 4.1l1.3 1.6q2-2.45 4.05 0 .25 1.05 1.9 1.2" fill="#b5c9ea"/><path d="m21.35 34.35 1.2 1.1 1.35 1.15 5.65-2.6 8.7 2.2q2.8-.9 5.4-2.45L44.9 33l2.8-1.95.55.5-4.5 3q-2.4 1.35-4.8 2.25l-9.5-1.2-5.65 2.6-.5.25L21.7 37l-6.3 6.5 5.4-7.35-10.95-9.8 1.35-1.05 10.15 9.05m48.55 3.1 1 .1-2.25 3.25q-6.3 8.15-12.2 6.55-6.4.95-10.5-5.7L40.6 43.3l-3.75.4-8.9 1.05-2.8-1.6-4.8 1.3 2.2 2.95h3.5l1.4 3.05 8.75 2.4q4.6-3.25 10.75-5 6.65 3.6 14.5 5.5l15.7-4.95-1.1 1.7 3-1.85-.35.9-2.8 2-.45.3v-1.8l-13.2 4.3-.8.25-.65-.15q-8-1.45-14.4-5l-.55.15-.8.2-.5.15q-3.65 1.25-7 3.8l8.9 2.55 2.55.75.25.05 1.3-.55 3.65-1.55 6.6-.4.15.9H54.6l-4.7 2.35.85 1.7 6.2-2.6h4.85l1 .55q-4.95 0-9.3 1.75l-.75.3-1.4.7 2.35 3.9 3.1-.7 1.3-.6q3.25-1.65 6.1-5.35l1.15-.8 1.15-.75.6.6-1.8 2.75 3.35.6 5.3.45.95.05-.35.7-10.3-1.05.7-2.05q-4.15 5.25-10.75 7.25l2 2.4 8.9-5.85 9.05.55-.2.8H64.9l-4.55 3.05-.6.4-.6.4-2.25 1.5q3.85 5.35 8.3 7.45 4.7-.35 9.3-2.1l1.1-.45 1.45-.7 5.25-3 .45-.3q-2.95 5.75-7.6 7.7h5.25l-.6.75h-7.25q4.3-2.1 7.75-5.85-3.65 2.15-7.65 3.3-3.9 1.1-8.15 1.3-8.55-5.4-16.1-18.4l-17.55-5.3-12.5-3.8-8.2-1.6-1.3.35 16-5.2 1.4 1.15 3.3-3.55.55-.15 8.9-2.35 1.35.3 8.35 1.5L52.15 36l.35.7-2.85 2.7-.6.55-.9-.15-9.2-1.55-7.75 2.3-3.05 2.85 10.8-1.05 7.4-1.65q2.3 4.85 7.75 5.65l.95.15 6.4-.5q4.7-2.1 8.45-8.55m2.15.45.75.4-6.2 8.1 5.35 1.4q3.85-1.3 7.4-4.4l.35-.35h4l-1.1.8h-2.2l-4.1 2.4-4.1 2.4-6.6-1.75 3.45-4.75 3-4.25M33.9 48.4l9.9-3.8 4.3 2.05 4.25 1.05-4.7-.7-4.05-1.45-9.1 3.15-.6-.3m20.5 2q-2.3-2.55 6.55-2.45 4.5 1.1 1.25 2.75l-1.5.1q-1.95 0-2.35-.8.35-2.05 4.3-.65l-.75 1q3.15-1.3-1.85-2.1-7.05.1-5.4 2.25l-.25-.1m5.85.15q3.6-1.05.2-1.45-3.4.8-.2 1.45m-9-17.35.2.9-2.15 3.1h-4l-.75-1.3 4.35-3.8.5.3-4 3.8h3.85l2-3M40 59.2l5 1.5 13.2 13.95 1.85 5.6-.95.3-1.5-5-6.95-6.75-7.95-1.1-6.8-6.95-2.1-1.95-32-5.35-.15-.4L7.2 53q17.75 2 32.8 6.2m-4.8-3-1.6-.75 13.5 3.05 8.2 10.4-8.8-9.75-11.3-2.95m13.5 11.1 1.1.2-2.8-3.15-5.1-3.75-4.5-1.3-1.8-.5 7.6 7.6 5.5.9M62 80.6l-1.2-.3V76q4.5 1.6 9.65 2 4.2.35 8.85 0l-1 1.2q-8.8 1-16.3-1.2v2.6" fill="#744326"/><path d="m70.9 37.55 1.15.35-3 4.25-.4-1.35 2.25-3.25M9.85 26.35l10.95 9.8-5.4 7.35 6.3-6.5 1.6 1.45.5-.25 3.45 2.15 2.3-.5-3.3 3.55-1.4-1.15-16 5.2 1.3-.35 8.2 1.6 12.5 3.8 1.5 2.4 1.25.55 1.6.75 9.8 4.5-5-1.5q-14.95-6.15-33.3-6.7H1.45q-5.2-15.25 8.4-26.15m72.75 17.5q-2.5 1.9-3.55 4.4l-3 1.85 1.1-1.7-15.7 4.95q-7.85-1.9-14.5-5.5-6.15 1.75-10.75 5l-8.75-2.4-1.4-3.05h-3.5l-2.2-2.95 4.8-1.3 2.8 1.6 8.9-1.05-2.95 4.7.6.3 2.3 1 9.7-2.4 7.9 3.1.25.1 4.2 1.6q9.1-1.4 18.75-4.8l-1.3-1.05 4.1-2.4h2.2M74.55 60.7l-.4 1.25-9.05-.55-8.9 5.85-2-2.4q6.6-2 10.75-7.25l-.7 2.05 10.3 1.05m-23.1-26.6.7 1.9-3.45 3.15-8.35-1.5 4.95-.45h4l2.15-3.1m21.2 40.8q4-1.15 7.65-3.3-3.45 3.75-7.75 5.85h7.25l-.5.55q-4.65.35-8.85 0l2.2-3.1M61.8 56.55h-4.85l-6.2 2.6-.85-1.7 4.7-2.35h6.35q.3.95.85 1.45m-1.75 23.7-1.85-5.6L60.8 76v4.3l-.75-.05M37.4 59.3l4.5 1.3 5.1 3.75 2.8 3.15-1.1-.2-4.9-1.8-6.4-6.2" fill="#8f5633"/><path d="m23.8 38.2 5.65-2.6 9.5 1.2q2.4-.9 4.8-2.25l.8 1.35.75 1.3-4.95.45-1.35-.3-8.9 2.35-.55.15-2.3.5-3.45-2.15m45.25 3.95L65.6 46.9l6.6 1.75 4.1-2.4 1.3 1.05q-9.65 3.4-18.75 4.8l-4.2-1.6q-1.65-2.15 5.4-2.25 5 .8 1.85 2.1l.75-1q-3.95-1.4-4.3.65.4.8 2.35.8l1.5-.1q3.25-1.65-1.25-2.75-8.85-.1-6.55 2.45l-7.9-3.1-9.7 2.4-2.3-1 9.1-3.15L47.65 47l4.7.7-4.25-1.05-4.3-2.05-9.9 3.8 2.95-4.7 3.75-.4 5.35-1.65q4.1 6.65 10.5 5.7 5.9 1.6 12.2-6.55l.4 1.35m-8.8 8.4q-3.2-.65.2-1.45 3.4.4-.2 1.45m-29.4 1.95 17.55 5.3q7.55 13 16.1 18.4 4.25-.2 8.15-1.3l-2.2 3.1q-5.15-.4-9.65-2l-2.6-1.35L45 60.7l-9.8-4.5 11.3 2.95 8.8 9.75-8.2-10.4-13.5-3.05-1.25-.55-1.5-2.4" fill="#ca844a"/><path d="m43.75 34.55 4.5-3 .65.55-4.35 3.8-.8-1.35" fill="#8b5331"/><path d="m52.75 59.15.75-.3q.8 3.4 4.6 3.6l-1.3.6q-3.6-.5-4.05-3.9" fill="#224305"/></g><g id="m" fill-rule="evenodd"><path d="m99.65 25.3 2.1-.85q10.15-3.15 8.35-14.15 4.7-3.7 10.65-5.2l-3.85 3.35 1.35 1.95 2.95.65q-9.35-.1-10.25 7.2l-1-.15q.75.3 1.3.85l-.35 2.2q-.45-.4-1.1-.65 1.1.95 1.45 2.3l-1.75.8-.7-.5.45.75q-8.85 3.6-11.25 11.3l-3.55 3.45q4.9 2.8 11.95 1.4l1.85.2q5.8-1.45 10.25-6l1-.35q1.65 3.05-.05 3.35-9.3 1.95-5.5 7.2h-3.55q-5.45-2.95-11.5-1.45l-7.7-4.2q5.45-5.85 8.45-13.45M85.4 27.35l-12.25-5q5.65.25 12.25 5m-14.95-7L54 18.25l3.3-.9 8.5.25q2.4 1.15 4.65 2.75m-18.8-1.8L50 19.3l.5-1.65 1.55-.2-.4 1.1M48.55 20l-1.45.35.8-1.4.45-1.3 1.25.05-1.05 2.3m-3.15 1.4-2.25 1.05.45-1.25-1.95 2.45-3 1.7V23.9l3.15-2.95 5.85-3.55q.15.45-.65 1.55l-1.6 2.45m67.9 34.95q-6.15-4.55-12.7-5.45l.05-1.35-.4 1.2-3.65-.3-.2-.8v.85l-9 2.35.45-1.95.9-1.3q3.8-1.3 2.8.75l-3.7.55q-.1 1.65 11.75-2.5 7.45-.6 13.8 6.1l-.1 1.85m-5.4 1.1-7.75 3-22 3.05 1.55-1.85 2 .95 15-4.35-7.65 1.45L87.4 57v3.05l-1.05.15-1-2.75v2.95l-.8.15-.8-1.85 1.3-2.75q2.1 1 3.25-.2 10.25-3.95 19.6 1.7m-26.55 3.7 1.95-2.4.35 2-2.3.4m7.85-12.2L90.55 47q2 1.35 5.1 1.9l-3.2 1.2q.55-2.25-3.25-1.15M25.2 92l-2.4 4.75-2.3-8 4-13.75.4 1.4q1.35 8.1.3 15.6m-5.55-20.2.95 8.5-2.25 4.7-1.2 1.25v3.9l-2.5-6.85 5-11.5M16 93.05q.15 3.45-.55 5.55-.85-4.9-3.3-9.6l.6-1.45 3.25 5.5m13.3-3.6q1.35-7.4-1.45-12.85v-4.8l4.35 8.9-1.45 9.15-.95 1.25-.5-1.65" fill="#ca844a"/><path d="M84.25 22.3q-1.25-2.05-1.5-4.85l-1.4-.35q-11.2-3-22-8.15l-1.65-.8L47.4 5.5l-11 7.15L8.05 31.1l2.8-4 36.6-23.4L59.4 6.95q10.2 5.65 24.4 9.5-.5 4.05 3.7 6.65 18.7 5.25 20.35-12.75 8.1-5.5 17.9-8.75 4.7 1 10.15-1.6-4.7 3.9-10.95 3.45L118 8.4l1.15 1.45 9.25 1.2q1.2 5 6.7 1.8 4.15.4 8.35-1.3-3.6 3.35-8.35 2.4-4.65 2.3-6.75-.8-12.4-1.3-13.25 4.85v6.3l-9.45 6.6q-5.2 7.3 2.25 8.3l9.05-6.45 7.1-1.6q3.45 5.55 0 11.95-13.4-.6-6.3 3.55v1.85h-4.5l.1 1.55-2.1-2.7h5.55q-2.8-1.6-2.85-2.95 0-.45.3-.85 1.15-1.5 6.65-2.55l.6-.95.6-1q-2.1-.8 0-2.55-2.7-1.2 0-3.35l-2.6.7-1 .35q-4.95 1.8-10.25 6l-1.85-.2q-2.15-.45-3.35-1.75-.7-.75-1.1-1.85l-2.6 1.2 2.5-2.6q1.35-4.85 5.6-6.85V25.9l.85 1.85 5.2-3.95Q111.4 12 126 12l-4.8-.95-2.95-.65-1.35-1.95 3.85-3.35q-5.95 1.5-10.65 5.2l-.95.85q-1 10.05-7.4 13.3l-2.1.85q-5.05 1.5-12.7-.2-1.7-1.15-2.7-2.8m-19.3-6.4q4.35 2.2 8.25 5.25 7.2.65 12.2 6.2-6.6-4.75-12.25-5l-2.7-2q-2.25-1.6-4.65-2.75-3.25-1.6-6.8-2.45H46.85l-2.15 2.6-2.9 3.2-3.15 2.95q-3.8 3.35-7.7 5.5 3.55-2.35 7.25-6 3.95-3.8 8.05-9.1l12.5-1q3.2 1.1 6.2 2.6M30.2 18.7l9-6 2.4-1.55q-4.35 3.4 0 1.6 7.3-3.85 4-4.05l1.75-.2q2.45-.05-2.9 2.9l-5.15 2.65-9.1 4.65m79.05 5.15-.45-.75.7.5q1.1 1.15-.7 2.45.8-1.15.45-2.2m2-1.05q-.35-1.35-1.45-2.3.65.25 1.1.65 1.1 1.05.5 3l-.15-1.35m0-3.85q-.55-.55-1.3-.85l1 .15q1.35.6 1.75 3.3-.45-1.65-1.45-2.6m-52.7-7.35-9.4-2.15Q55 8.3 58.55 11.6M38.3 64.9l30.4-2.35 4.65 6-7.3-1.5 7.9 2.45 3.4 5.3L98.8 65l1.85-.5 12.3-3.45q-1.25 10.35-5.6 20.2l-2.7 8.35-4.3 7.2-3.75 1.5-1.25 4.15-2.1-3.65q-1.9 2.85-2.6 9l-.15-1.1-1.7-1.85 1.6-9.4-4.2 1-.75.9-3.45.15q-.1-2.15-.05-4.45-.8 3.9-.7 7.5-7 11.9-16.45 14.9l1.3-1.65-3.55-.5L50.7 87.65Q37.6 81.5 28.6 70.2l-2.9-1.15 1.65-4.35q4.8 1.15 10.95.2m62.3-14-.15 2.85q3.9.95 7.45 3.7-9.35-5.65-19.6-1.7-1.15 1.2-3.25.2-2.9-1.45-7.55-7.15 8.2 8 10.5 6.1 4.35-1.75 8.4-1.7v-3.55l.2.8.75 2.8 1.6-2.55-.5 2.65.9.15.9-2.75.4-1.2-.05 1.35M79.7 61.65 67.4 55.5l13.95 5.65 2.3-.4-.35-2-.3-1.95.75 1.9.8 1.85.8-.15v-2.95l1 2.75 1.05-.15V57l1.65 2.7 7.65-1.45-15 4.35-2-.95m9.05-12.05.45-.65q3.8-1.1 3.25 1.15l3.2-1.2q-3.1-.55-5.1-1.9-3.25-2.2-3.6-6.55 3.7 10 13.3 6.6 7.35.1 13.15 7.45-6.35-6.7-13.8-6.1-11.85 4.15-11.75 2.5l3.7-.55q1-2.05-2.8-.75m35.55-13.3h-.95l-.1 2.9-1.55 1.8 1.55.25q1.1-1.9 1.05-4.95m-1-.6h.8l-.7-2.55-1.05 1 .95 1.55m-1.15-1.25-.7.9 1.45 1.05-.75-1.95m.6 2.4q-1.45.8 0 1.75v-1.75M83.25 77.7q1.45-2.4.3-5.05l-.3 5.05-9.45-.95 9.5 2 9.05-5-6.45 2.8q1.5-2.8-.4-5.15.8 3.4-.6 5.6l-1.65.7" fill="#744326"/><path d="M101.75 24.45q6.4-3.25 7.4-13.3l.95-.85q1.8 11-8.35 14.15m1.3 13.8q1.2 1.3 3.35 1.75-7.05 1.4-11.95-1.4L98 35.15q-.4 1.25-.65 2.6 1.9 1.45 5.7.5m5.2 1.95q5.3-4.2 10.25-6-4.45 4.55-10.25 6M36.4 12.65l11-7.15 10.3 2.65 1.65.8q-5.85.1-10.6-1.3l-1.4.85-1.75.2q3.3.2-4 4.05-4.35 1.8 0-1.6l-2.4 1.55-2.8-.05M34.65 19q-4.25 2.4-9.35 4.1l4.9-4.4 9.1-4.65 5.15-2.65q-4.15 4.45-9.8 7.6m7.15 1.95 2.9-3.2 2.15-2.6H59q3.55.85 6.8 2.45l-8.5-.25h-3.6l-1 .8-.2-.75-.2-.8-.25.85-1.55.2q.15-1.15-.2-2.5l-.7 2.55-1.25-.05q.9-3.4-3.65.1 2.75-1.1 2.95-.35l-5.85 3.55" fill="#fed784"/><path d="M81.35 17.1q.75 4.15 2.9 5.2 1 1.65 2.7 2.8 7.65 1.7 12.7.2-3 7.6-8.45 13.45l7.7 4.2q6.05-1.5 11.5 1.45h3.55q-3.8-5.25 5.5-7.2 1.7-.3.05-3.35l2.6-.7q-2.7 2.15 0 3.35-2.1 1.75 0 2.55l-.6 1q-5.35-.4-7.25 3.5-.3.4-.3.85.05 1.35 2.85 2.95h-5.55l2.1 2.7.05 4.45q-5.8-7.35-13.15-7.45-9.6 3.4-13.3-6.6.35 4.35 3.6 6.55l-1.35 1.95-.45.65-.9 1.3-.45 1.95 9-2.35v2.7q-4.05-.05-8.4 1.7-2.3 1.9-10.5-6.1 4.65 5.7 7.55 7.15l-1.3 2.75-.75-1.9.3 1.95-1.95 2.4L67.4 55.5l12.3 6.15-1.55 1.85 22-3.05 7.75-3q-3.55-2.75-7.45-3.7l.15-2.85q6.55.9 12.7 5.45l-.35 4.7-12.3 3.45-15.4 2.55V63.1l-.8 4.55h-2.1l-.9-3.4v3.7l-1.95.75-.95-3.8.05 4.15-1 .35.05-4.05-1.1 3.85-3.2-.65-4.65-6-30.4 2.35-7.95-1.8q.55-1.8-1.1-3.4v3.4H28.2V59l-1.45 3.8H25.2l-8.7-11.3 7.9 12.25 2.05.7-3.3 5.85L24.5 75l-4 13.75-.8-2.8 2.25-6.05-2.7-12.05.4 3.95-5 11.5q1.25 5.75 1.35 9.75l-3.25-5.5-.6 1.45q-2.4-4.65-6.4-9.05-7.35-15.6-1.9-40.65 1.7-4.25 4.2-8.2L36.4 12.65l2.8.05-9 6-4.9 4.4q5.1-1.7 9.35-4.1v3.35l1.35-1.6 2.2 2.65q-3.7 3.65-7.25 6 3.9-2.15 7.7-5.5v1.45l3-1.7-3.45 4.25 1.35-.15q2.45-2.45 3.6-5.3l2.25-1.05 1.7-1.05 1.45-.35-1.4 2.1q2.05-1.2 2.85-2.8l1.65-.75-.6 1.95L54 18.25l16.45 2.1 2.7 2 12.25 5q-5-5.55-12.2-6.2-3.9-3.05-8.25-5.25l16.4 1.2m39.85-6.05 4.8.95q-14.6 0-12.5 11.8l-5.2 3.95-.85-1.85v2.25q-4.25 2-5.6 6.85l-2.5 2.6 2.6-1.2q.4 1.1 1.1 1.85-3.8.95-5.7-.5.25-1.35.65-2.6 2.4-7.7 11.25-11.3.35 1.05-.45 2.2 1.8-1.3.7-2.45l1.75-.8.15 1.35q.6-1.95-.5-3l.35-2.2q1 .95 1.45 2.6-.4-2.7-1.75-3.3.9-7.3 10.25-7.2M45.85 26.4l17.45 2.15-17.75-3.3-16.65 12.1L45.85 26.4M25.7 69.05l2.9 1.15q9 11.3 22.1 17.45l11.85 25.65h-6.2L36 102.35 32.8 87l-2.05 2.85 1.45-9.15-4.35-8.9v4.8q2.8 5.45 1.45 12.85l-1.25-3.75Q28 77.4 24.9 71.25l.8-2.2M82 97.5l3.45-.15-.75.85-.85 10.25Q82.3 103.7 82 97.5m4.2-1.05 4.2-1-1.6 9.4-2.6-8.4m35.95-62 .75 1.95-1.45-1.05.7-.9m1.15 1.25-.95-1.55 1.05-1 .7 2.55h-.8m1 .6q.05 3.05-1.05 4.95L121.7 41l1.55-1.8.1-2.9h.95m-1.55.55v1.75q-1.45-.95 0-1.75m-22.5 13.9-.9 2.75-.9-.15.5-2.65-1.6 2.55-.75-2.8 3.65.3M98.8 65l-21.45 9.8-3.4-5.3L78 70.75 98.8 65" fill="#8f5633"/><path d="m81.35 17.1 1.4.35q.25 2.8 1.5 4.85-2.15-1.05-2.9-5.2m40.15 22.95-.6.95q-5.5 1.05-6.65 2.55 1.9-3.9 7.25-3.5M90.65 107.8q.7-6.15 2.6-9l-1.95 13.3-.65-4.3m4.7-5.35 1.25-4.15 3.75-1.5-1.95 3.25h-.75l-1.5 3.75-.8-1.35M27.25 64.7l-3.2 6.15Q28.8 82.4 25.2 92q1.05-7.5-.3-15.6l-.4-1.4-1.35-4.7 3.3-5.85.8.25m2.55 26.4.95-1.25L32.8 87l-2.25 6.2-.75-2.1" fill="#b5c9ea"/><path d="M59.35 8.95q10.8 5.15 22 8.15l-16.4-1.2q-3-1.5-6.2-2.6l-12.5 1q-4.1 5.3-8.05 9.1L36 20.75l-1.35 1.6V19q5.65-3.15 9.8-7.6 5.35-2.95 2.9-2.9l1.4-.85q4.75 1.4 10.6 1.3m-.8 2.65Q55 8.3 49.15 9.45l9.4 2.15" fill="#c98349"/><path d="m54 18.25-2.95 2.25.6-1.95.4-1.1.45-.05.2.75 1-.8h3.6l-3.3.9m-4 1.05q-.8 1.6-2.85 2.8l1.4-2.1 1.05-2.3.7-2.55q.35 1.35.2 2.5L50 19.3m-2.9 1.05-1.7 1.05 1.6-2.45q.8-1.1.65-1.55-.2-.75-2.95.35 4.55-3.5 3.65-.1l-.45 1.3-.8 1.4" fill="#794627"/><path d="M43.15 22.45q-1.15 2.85-3.6 5.3l-1.35.15 3.45-4.25 1.95-2.45-.45 1.25m2.7 3.95L28.9 37.35l16.65-12.1 17.75 3.3-17.45-2.15" fill="#764426"/><path d="m73.35 68.55 3.2.65 1.1-3.85-.05 4.05 1-.35-.05-4.15.95 3.8 1.95-.75v-3.7l.9 3.4h2.1l.8-4.55v3.95l15.4-2.55-1.85.5L78 70.75l-4.05-1.25-7.9-2.45 7.3 1.5m-46.9-4.1-2.05-.7-7.9-12.25 8.7 11.3h1.55L28.2 59v4.1h1.05v-3.4q1.65 1.6 1.1 3.4l7.95 1.8q-6.15.95-10.95-.2l-1.65 4.35-.8 2.2Q28 77.4 28.05 85.7l1.25 3.75.5 1.65.75 2.1L32.8 87l3.2 15.35 20.35 10.95h6.2l3.55.5-1.3 1.65-8.45-1.2-21.15-10.8-2.55-12.25-2.3 4.65-3.05-7.55q-1.4 7.3-5.5 13.55.45-8.35-3.55-15.65-.45 11.35-3.55 16.95L13.1 92.5q-8-8.3-11.6-19.4-3.9-18.6 2.35-33.8-5.45 25.05 1.9 40.65 4 4.4 6.4 9.05 2.45 4.7 3.3 9.6.7-2.1.55-5.55-.1-4-1.35-9.75l2.5 6.85v-3.9l1.2-1.25 2.25-4.7-.95-8.5-.4-3.95 2.7 12.05-2.25 6.05.8 2.8 2.3 8L25.2 92q3.6-9.6-1.15-21.15l3.2-6.15-.8-.25m54.8 36.1q-.1-3.6.7-7.5-.05 2.3.05 4.45.3 6.2 1.85 10.95l.85-10.25.75-.85.75-.9 2.6 8.4 1.7 1.85.15 1.1.65 4.3 1.95-13.3 2.1 3.65.8 1.35 1.5-3.75h.75l1.95-3.25 4.3-7.2q-2.6 6.95-5.85 12.35h-.9l-1.7 3.75-2.9-3.45v7.9L90.65 115l-1.8-7.75-1.45-1.85-1.35-5.8v5l-2.4 6.7q-2.25-5.05-2.4-10.75m-54-35.85h.1l.2-.55-.3.55m56 13 1.65-.7q1.4-2.2.6-5.6 1.9 2.35.4 5.15l6.45-2.8-9.05 5-9.5-2 9.45.95.3-5.05q1.15 2.65-.3 5.05" fill="#592613"/></g><g id="n" fill-rule="evenodd"><path d="M30.5-11q-1.3 4.5-3.95 9.6-5 9.5-5.4 14.1l-.25 2.9.15 2.15-6.1 6.1L0 21.7l.65-.8Q-.5 17.75-1 14.65q-.65-3.95-.65-10.1 0-7.5 1.5-14.25Q1.75-18 5.4-20.25L3.6-17.3Q-.8-8.7-.8 4.2q0 4.25.85 9.15l1.35 6.6-.15.15 14.1 1.85 3.9-4.5v-2.3l1.3-3.95-.2-.55.35-1.35q1.5-5.9 2.25-7.7l5.8-9.6 1.75-3" fill="#592613" transform="translate(1.65 28.6)"/><path d="M5.4-20.25q5.7-8.35 16.1-8.35 7.45 0 9.9 2.45 2 1.95 2 7.4 0 2.45-2.9 7.75l-1.75 3-5.8 9.6q-.75 1.8-2.25 7.7l-.35 1.35.2.55-1.3 3.95v2.3l-3.9 4.5-14.1-1.85.15-.15-1.35-6.6Q-.8 8.45-.8 4.2q0-12.9 4.4-21.5l1.8-2.95" fill="#744326" transform="translate(1.65 28.6)"/></g><g id="o" fill-rule="evenodd"><path d="m96 61.65 1.9.8-15.8 22.6-1.1.2 15-23.6M61.8 74.7l-.65-1.6 3.65-4.2q5.25-6.8 8.9-16.45l2 .8q-2.5 4.65-5.2 8.9L67.4 67l-5.6 7.7" fill="#744326"/><path d="M81 85.25q-8.3 1.4-13.7-3.05l4.45-2.85 2.2-1.5q10.7-7.4 20.95-16.65l1.1.45-15 23.6" fill="#8f5633"/><path d="M67.3 82.2q-3.3-2.7-5.5-7.5l5.6-7.7 4.35 12.35-4.45 2.85m8.4-28.95 19.2 7.95q-10.25 9.25-20.95 16.65l2.6-8.2-6.05-7.5q2.7-4.25 5.2-8.9" fill="#c78149"/><path d="m70.5 62.15 6.05 7.5-2.6 8.2-2.2 1.5L67.4 67l3.1-4.85" fill="#fed784"/><path d="M77.25 14.35q-2.2 19.35 2.25 36.9v.1l.5 1.8-.8 3.5 1.75 3.2-3.85-3.6q-3.15-20.5-2.5-34.3.3-6.5 1.45-11.45l1.2 3.85M71 12.05l-2.5 16.1L73.1 32l-.7 7.15-1.25 13.15-2.7-14.7 2.45 18.8 8.7 11.05 8.15 3v2.35l-7.4-1.4-9.6-12.75q-4.7-15.3-7.6-34.85l5.15 5.65q-1.55-12.2 0-24.8l2.7 7.4" fill="#cc7f86"/><path d="m78.7 19.2-1.45-4.85-1.2-3.85q-1.15 4.95-1.45 11.45-.65 13.8 2.5 34.3l3.85 3.6L88 66.4l15.8-5.15-14.45-13.5-2.7-2.5L78.7 19.2m-5.3 9.3.25-9.2L71 12.05l-2.7-7.4q-1.55 12.6 0 24.8l-5.15-5.65q2.9 19.55 7.6 34.85l9.6 12.75 7.4 1.4v-2.35l-8.15-3-8.7-11.05-2.45-18.8 2.7 14.7.7 3.95 8.3 10.05 1.8 1.05H82q4.95 2.6 9.55 2.45l-.95-1.05-.9-1.05-3.15-.8-10.6-10.1-.4-4.15L73.3 32.2l.1-3.7m2.4-22.7 11.45 38.1 18.9 17.75-15.35 5.8 2.45 3.25h-4.7v3.2l-8.7-1.75-10.8-13.55Q64.4 41.25 61.6 19.7l4.7 6.1Q65.45 12.6 68.05 0l5.5 15.5 2.25-9.7" fill="#683237"/><path d="M79.5 51.25q-2.75-17.2-.8-32.05l7.95 26.05 2.7 2.5q-5.65 4.4-8.4 12.1l-1.75-3.2.8-3.5-.5-1.8v-.1M71 12.05l2.65 7.25-.25 9.2-.3 3.5-4.6-3.85 2.5-16.1m4.55 40.6.4 4.15 5.75 7.9.25 2.65-1.8-1.05-8.3-10.05-.7-3.95 1.25-13.15 3.15 13.5" fill="#a7656b"/><path d="m77.25 14.35 1.45 4.85q-1.95 14.85.8 32.05-4.45-17.55-2.25-36.9m12.1 33.4 14.45 13.5L88 66.4l-7.05-6.55q2.75-7.7 8.4-12.1M73.3 32.2l2.25 20.45-3.15-13.5.7-7.15.2.2m2.65 24.6 10.6 10.1 3.15.8.9 1.05-8.6-1.4h-.05l-.25-2.65-5.75-7.9" fill="#834147"/><path d="m90.6 68.75.95 1.05q-4.6.15-9.55-2.45l8.6 1.4" fill="#b5c9ea"/><path d="M75.7 74.6q2.75 1.65 5.65 1.1L72.9 91.65l3.5-1.75q-3.15 9.6-6.55 15.35 4.9-4.6 7.35-16.45h-1.6l5.75-13.1q1.45-.3 2.95-1.1l.45 2.6q-5.85 6-9.55 23.3l-4.25 7.8-5.65-5.85-.1-.1-1.5-1.65 4.55-9.25-11.4 10.35q-.3-9.1-9.25-10.75l-1.25-.95-2.45 1.05q-2.35 1.95-4 4-1.85 2.35-2.85 4.8l-3.85 6.4-17.15-1.2 1.95 2.2-3.9 8.25-.1.3q-.95 1.9-1.65 4.1l-5.95 1.85q5.9-5.35 5.55-14.4l5.25-6.65q14.45 5.8 20.15-9.05l5.15-7.2Q51.05 86.1 59.55 79q-3.2 6.45-8.35 10.1l5.65-2.2q9.2 3.75 18.85-12.3m-27.5-8.95-1.15 1V65.1l-2.35-2.15H46l2.05 1.9.75-6.7q.45 2.2 1.65 2.1l-.9 9.25 3.25 1.9v3.8l-4.35 2.1 1.95-3.8-2.2-2.6v-5.25m16.55 38.8 1.9 3.6-.2 15.7-.95 2v4.1q-5.65-1.65-7.65-9.7l5.75 7.5 1.15-23.2m-12.65-9 1.4 1.35-2.85 11.8v-2.85L38.2 123.2l-8.4 5.45 3.95-7.95q6.25 1.35 10.7-9.6 5.45-6.3 7.65-15.65m14.1-7.65-5.35 6.55q11.5-5.2 16.05-17.55-5.5 4-10.7 11M6.1 112.95v1.7l-1.65-.3 1.65-1.4m14.15-20 2.7 1.5H19.6l.65-1.5" fill="#ca844a"/><path d="M84.3 74.6q-1.5.8-2.95 1.1L75.6 88.8h1.6q-2.45 11.85-7.35 16.45 3.4-5.75 6.55-15.35l-3.5 1.75 8.45-15.95q-2.9.55-5.65-1.1l-1-3.25-6.85 2.4-3.95-6.45Q53.3 78.8 39.15 81.25l-9.35 12.8 6.55-2q-7.25 7.75-21.4 2.2-9.9 11.35-7.15 23l-2.35 4.85.95-.25 5.95-1.85q.7-2.2 1.65-4.1l.1-.3q2.8-5.55 7.6-9.25 8.1 2.05 14.25 1.3-.4-4 1.1-7.7l2.85-4.8q1.65-2.05 4-4-9.2 9-6.45 22.5l-3.7 7.05-3.95 7.95q8.95 1 13-10.1 4.9-1.55 7.55-8.85v2.8q2.4-6.05 3.15-15.7l-1.4-1.35-5.75-5.35 1.25.95 7.2 5.2-2.2 13.35h2.6q3.55-5.75 8.5-8.9l1.5 1.65.1.1q3.1 3.6 5.25 8.3l.7 1.55 5.45-7.85q-.45-6.8 4.15-10.4l5.55-7.35q1.55-6.95-2.1-12.1m.5-1.75q5.4 7.9 2.8 15.15l-5.45 7.35q-5 3.1-3.7 9.3l-7 10-1.8-1.8-1.6 11.45q-2.25 4.75-1.35 8.3-12.15-4.95-10.75-21.7-1.85 1.3-3.35 0-.55 3.9-2.7 3.45-2.6 3.5-5.45 4.9-5.35 12.5-17.5 10.6 3.9-3.65 5.4-10.6l3-5v-4.75l-12.7-1.5q-7.75 5.35-9.2 13.5l-10.7 2.4q2.9-3.8 3.35-7.95l-6.1-1.1 5.9-5.05q1.45-8.2 8.55-17.15h3.65l2.3-3.35q4.1 3.15 9.6 1.5L37.95 80l5.95-1.5 3.95-4.85-2.7-2.4 1.1-5.85Q41.2 62.85 40 56.2q2 5.65 6.75 5.35V63q1.55 1.95 1.2-9.9l2 6.15 4.05-2-2.9 3.4v7.95l3.7 1.75-.7 3.85 10.3-9.1 3.45 6.65 8.15-2.5v3.6q4.4 3.4 8.8 0M48.45 77.3l4.35-2.1v-3.8l-3.25-1.9.9-9.25q-1.2.1-1.65-2.1l-.75 6.7-2.05-1.9h-1.3l2.35 2.15v1.55l1.15-1-1.45 5.45 2.5 1.85-3.05 5.45 2.25-1.1m16.3 27.15-.95-1.8-7.05 6.85q0 6.25 1.1 10.65 2 8.05 7.65 9.7v-4.1l.95-2q1.95-4.7 2.1-12.15l-1.9-3.55-1.9-3.6m-5.9-20.3h1.55l-.8 1.5 5.2-1.7-6.85 3.3 1.3-2.05h-2.1l8.95-9q-2.8 4.55-7.25 7.95m-54.4 30.2 1.65.3v-3.35l-3.25 2.75 1.6.3m18.5-19.9h5.25l1-1.6-8.3-1.4-.65 1.5-.65 1.5h3.35" fill="#744326"/><path d="m84.75 77.2-.45-2.6q3.65 5.15 2.1 12.1l-5.55 7.35q-4.6 3.6-4.15 10.4l-5.45 7.85-.7-1.55 4.65-6q.95-8.35 7.75-15.75l2.85-6.35-1.05-5.45m-18.1 30.85 1.9 3.55q-.15 7.45-2.1 12.15l.2-15.7m-16 .55 2.85-11.8q-.75 9.65-3.15 15.7v-2.8l.3-1.1" fill="#b5c9ea"/><path d="m14.1 115.6 3.9-8.25-1.95-2.2 17.15 1.2 3.85-6.4q-1.5 3.7-1.1 7.7-6.15.75-14.25-1.3-4.8 3.7-7.6 9.25m33.5-24.55q8.95 1.65 9.25 10.75l11.4-10.35-4.55 9.25q-4.95 3.15-8.5 8.9h-2.6l2.2-13.35-7.2-5.2m17.7 11.4 5.65 5.85 4.25-7.8q3.7-17.3 9.55-23.3l1.05 5.45L82.95 89q-6.8 7.4-7.75 15.75l-4.65 6q-2.15-4.7-5.25-8.3m-35.5 26.2 8.4-5.45 12.45-17.45v2.85l-.3 1.1q-2.65 7.3-7.55 8.85-4.05 11.1-13 10.1" fill="#8f5633"/><path d="M75.7 74.6q-9.65 16.05-18.85 12.3l-5.65 2.2q5.15-3.65 8.35-10.1-8.5 7.1-17.05 5.55l-5.15 7.2q-5.7 14.85-20.15 9.05l-5.25 6.65q.35 9.05-5.55 14.4l-.95.25 2.35-4.85q-2.75-11.65 7.15-23 14.15 5.55 21.4-2.2l-6.55 2 9.35-12.8Q53.3 78.8 63.9 67.3l3.95 6.45 6.85-2.4 1 3.25m-27.5-8.95v5.25l2.2 2.6-1.95 3.8-2.25 1.1 3.05-5.45-2.5-1.85 1.45-5.45m10.65 18.5q4.45-3.4 7.25-7.95l-8.95 9h2.1l-1.3 2.05 6.85-3.3-5.2 1.7.8-1.5h-1.55m-1 36q-1.1-4.4-1.1-10.65l7.05-6.85.95 1.8-1.15 23.2-5.75-7.5M66.2 87.8q5.2-7 10.7-11-4.55 12.35-16.05 17.55l5.35-6.55m-45.95 5.15.65-1.5 8.3 1.4-1 1.6h-5.25l-2.7-1.5" fill="#fed784"/><path d="m43.9 91.15 2.45-1.05 5.75 5.35q-2.2 9.35-7.65 15.65-4.45 10.95-10.7 9.6l3.7-7.05q-2.75-13.5 6.45-22.5" fill="#fcd482"/></g><g id="p" fill-rule="evenodd"><path d="m34.9 56.45.9-.15 6.7 23.75-2.25 4.2q-2.35 1.8-1.35 13.95l-1.7.4q-.95-14.6 2.1-15.25l1.5-2.65.35-.6-6.25-23.65M7.7 105.9l-2.7.7 3.95-14.05 1.6-32.75 1.55-.25-.7 15.7-.4 9.25-.3 6.2-3 15.2" fill="#5b2814"/><path d="m31.85 56.85 3.05-.4 6.25 23.65-.35.6q-2.1-4.6-3.95-9.5-2.7-6.9-5-14.35" fill="#b5c9ea"/><path d="m12.1 59.55 19.75-2.7q2.3 7.45 5 14.35l-6.95 1.15-2.1.3-16.4 2.6.7-15.7" fill="#8f5633"/><path d="m14.1 104.35-6.4 1.55 3-15.2.3-6.2q7.2-2.75 14.4-7.5.95 2.4 1.55 5.7-9 3.4-12.85 21.65m15.8-32 1.9 7.05v2.25l-2.25.75q.2-1.75.55-3.4l-2.3-6.35 2.1-.3M32 76.9q-.65-7.65 2.1-1.4 1.9 8.4-2.1 1.4" fill="#fed784"/><path d="m37.2 98.6-23.1 5.75Q17.95 86.1 26.95 82.7l.3 2.35q.55-4.25-.9-8.7l-.95.65q-7.2 4.75-14.4 7.5l.4-9.25 16.4-2.6 1 6.9q-1.1 9.2 0 17.75-.3-7.6.75-14.9l2.25-.75V79.4l-1.9-7.05 6.95-1.15q1.85 4.9 3.95 9.5l-1.5 2.65q-3.05.65-2.1 15.25M32 76.9q4 7 2.1-1.4-2.75-6.25-2.1 1.4" fill="#ca844a"/><path d="m25.4 77 .95-.65q1.45 4.45.9 8.7l-.3-2.35q-.6-3.3-1.55-5.7m4.15 5.4q-1.05 7.3-.75 14.9-1.1-8.55 0-17.75l-1-6.9L30.1 79q-.35 1.65-.55 3.4" fill="#86502d"/><path d="m46.9 7.5-.3-3.75-5.4 6.7-12.05 23.7-10.5 8.45-.85 1.1-6.2 7.7 5.1-7.65 1.35-2.05 10.15-7.9 12.65-22.9-11 13.65-7.6 6.3L9.75 41.2Q3.05 54.15 1.5 66.55.95 70.6 1 74.6l.55.8 4.4 6.65Q5 73.15 7.65 63.5l2.1-4.15Q14.2 51.45 22 44.4l4-2.05v-.05q1.5-3.4 8.1-7.05l12.4-18.1.3-2.9.15-3.8-.05-2.95M23.8 39.8l7.8-5.65L43.45 11 38.2 22.15l-4.6 9.9-1.2 2.6-8 6.05-5.75 5.75 3-3.9 2.15-2.75M49.05 0q.5 27.15-8.1 34.75Q57.6 25.2 75.35 18.8 68.15 32.55 57 45.35l13.2-4.65-19.15 22.9-21.3 9.05Q15.3 82.6 7.15 94.9q-3.3-3.5-1.4-10.5L0 75.1q-.05-17.8 9.05-35.3l19.8-15.75L48.6 0h.45m-9.3 33.4q4.8-6.25 6.4-14.45l-2.1 3.15-5.9 8.75-3.55 5.3q-5.15 2.5-8.6 6.15l10.9-5.65 2.85-3.25m25.4-2.4 7.5-9.9-30.8 14.65-8.45 8.7 1.1 1.8-7.65 5.4h-.1l-12.15 8.5-5.9 11.6 5.4-12.9 19.3-12.7-1.25-1.85 8-7.75L29.9 41.8l-3.5 5.65L14 55.4l-5.75 8.4q-1.5 8.25-1.15 14.85.15 2.2.45 4.2l5.65-12.1 6.3-6.1.1-.15 6.9-6.75 20.95-8.6 5.7-2.35 7.05-9.3 4.95-6.5M25.2 47.15l3.45-4.75L23 44.7l-7.6 8.25 9.8-5.8M37 59.65l-4.1 1.65-.75 1.1q-10.35 6.4-15.6 12.85 3.35-6.9 14.4-13.05v-.9Q45.3 54.6 59.6 47.85q-2 1.5-4.6 3.1-5.5 3.25-13.6 6.8l-4.1 1.75.6-.75-.9.9m24.9-11.2 4-4.8-16.4 6.4-22.55 8.8-13.05 12.7q-6.05 12.2-6.8 17.8-.25 1.8.05 2.9 7.5-11.6 23.15-20.65 8.8-5.05 20.15-9.3l.8-1L61.9 48.45M31.05 66.9l8.5-5.5 12.4-3.55-12.2 4.55-1.25.65-7.45 3.85M45 37.65q-11.05 5.2-5.45 6.05 9.95-4.5 20.7-13.8-9.05 8.8-20.9 14.9-7.8-2.55 8.25-9.05-5.75 7.8-6.65 5.45 1.65 0 4.05-3.55" fill="#683237"/><path d="m38.2 22.15 6.7-9.5-3.25 8.45-8.05 10.95 4.6-9.9m8.6-7.9-3.2 4.55 3.35-8.35-.15 3.8M65.15 31l-4.95 6.5-14.05 5.95 19-12.45M25.2 47.15l-9.8 5.8L23 44.7l5.65-2.3-3.45 4.75m24.3 2.9L29.65 59 13.9 71.55l13.05-12.7 22.55-8.8m-48 16.5q1.55-12.4 8.25-25.35l12.5-10.35L10.15 44 1.5 66.55" fill="#f09ea6"/><path d="m46.9 7.5-2 5.15-6.7 9.5L43.45 11 31.6 34.15l-7.8 5.65-5.15 2.8 10.5-8.45 12.05-23.7 5.4-6.7.3 3.75M11.6 51.4l-1.25 2.95-8.8 21.05-.55-.8q-.05-4 .5-8.05L10.15 44l12.1-13.15 7.6-6.3 11-13.65L28.2 33.8l-10.15 7.9-1.35 2.05-2.3 1-2.8 6.65m15.2.25h.05l7.65-5.4-1.1-1.8 8.45-8.7 30.8-14.65-7.5 9.9-19 12.45-19.2 8.15-.15.05m-19.7 27q-.35-6.6 1.15-14.85L14 55.4l12.4-7.95 3.5-5.65 10.25-5.25-8 7.75 1.25 1.85-19.3 12.7-5.4 12.9 5.9-11.6 12.15-8.5-1.6 1.9-15.05 17.4-3 7.7M55 50.95q2.6-1.6 4.6-3.1Q45.3 54.6 30.95 61.3v.9q-11.05 6.15-14.4 13.05 5.25-6.45 15.6-12.85l.75-1.1 4.1-1.65q-9.25 8.5-20.45 15.6l-.85.55-8.6 13.55q.75-5.6 6.8-17.8L29.65 59l19.85-8.95 16.4-6.4-4 4.8-6.9 2.5m-10-13.3q-2.4 3.55-4.05 3.55.9 2.35 6.65-5.45-16.05 6.5-8.25 9.05 11.85-6.1 20.9-14.9-10.75 9.3-20.7 13.8-5.6-.85 5.45-6.05" fill="#cc7f86"/><path d="m44.9 12.65 2-5.15.05 2.95-3.35 8.35 3.2-4.55-.3 2.9-12.4 18.1Q27.5 38.9 26 42.3v.05l-4 2.05q-7.8 7.05-12.25 14.95l.6-5 1.25-2.95 6.2-7.7 3.85-1.15-3 3.9 5.75-5.75 8-6.05 1.2-2.6 8.05-10.95 3.25-8.45m-6.75 18.2-1.25 5.8L26 42.3q3.45-3.65 8.6-6.15l3.55-5.3m9.3 18.3-20.95 8.6-6.9 6.75h-.05l5.6-10.95 1.6-1.9h.05l.15-.05 24.1-7.1-3.6 4.65m-30.75-5.4-5.1 7.65 2.8-6.65 2.3-1M37.3 59.5l4.1-1.75 12.75-3.05-2.9 6.6-.8 1Q39.1 66.55 30.3 71.6l8.2-8.55 1.25-.65 12.2-4.55-12.4 3.55-8.5 5.5 6.25-7.4" fill="#a7656b"/><path d="m39.75 33.4 4.3-11.3 2.1-3.15q-1.6 8.2-6.4 14.45" fill="#b5c9ea"/><path d="m18.65 42.6 5.15-2.8-2.15 2.75-3.85 1.15.85-1.1m-8.3 11.75-.6 5-2.1 4.15Q5 73.15 5.95 82.05l-4.4-6.65 8.8-21.05m33.7-32.25-4.3 11.3-2.85 3.25 1.25-5.8 5.9-8.75M60.2 37.5l-7.05 9.3-5.7 2.35 3.6-4.65-24.1 7.1 19.2-8.15L60.2 37.5M19.5 64.65l-6.3 6.1-5.65 12.1q-.3-2-.45-4.2l3-7.7 15.05-17.4-5.6 10.95v.05l-.05.1m21.9-6.9q8.1-3.55 13.6-6.8l6.9-2.5L51.25 61.3l2.9-6.6-12.75 3.05M7.1 89.35l8.6-13.55.85-.55q11.2-7.1 20.45-15.6l.3-.15-6.25 7.4 7.45-3.85-8.2 8.55Q14.65 80.65 7.15 92.25q-.3-1.1-.05-2.9" fill="#834147"/></g><g id="q" fill-rule="evenodd"><path d="M22.55 46.35q-1.35-1.4-2.3-3.2l1.05-2.65 1.75-1.05-1.6 2.45 1.1 4.45m1.6-9.1L22 37.5l2.85-2.1-2.05.7v-2.75q1.85-1.3 1.7-5.8l-6.9-3q-2-4.1-5.1-6.75 3.85.5 6.5 5.45 9.55 3.1 6.5 9.1L30.2 30l-6.05 7.25m11-9.7q12.35-7.65 11-13.9L48.9 7.4 47 13.3q1.4 7.55-11.85 14.25m-21.5 1.9q5.4-.75 9.35 1.85l-.55 1.65-.6-1.6q-3.85-1.65-8.2-1.9" fill="#fed784"/><path d="m17.5 76.65 9.05-26.95.85.8-9.55 27.4-.35-1.25m.65 2.25 10.4-28.85q-1.75-.6-3.2-1.5l-2.8-2.2-1.1-4.45 1.6-2.45 1.8-1.05-3.75.9.55-1.1 3.65-1.1-1.15.15L30.2 30l-4.7 2.35q3.05-6-6.5-9.1-2.65-4.95-6.5-5.45-1.8-1.55-4-2.6l4.4 1.15-1.1-3.5q2.4 5.75 8.2 8.2 3.9 2.65 7.1 5.8l8.05.7Q48.4 20.85 47 13.3l1.9-5.9 1.2-3.55q.15 4.85-1.35 10.4 8.45-1.8 16.45-7.65l-3.95 3.95q-8.3 3.35-14.65 8.65-3 5-6.85 8-6.35.3-10.1 5.95l-.65-.3.45.7-.6 2h-.65l.5.3-.2 1.35-.7-.25.7.8q-.1 8.65 4.65 10.2l-.35.85.7 1.2q-8.75 13.15.5 33.5l-1.1 4.35Q22.3 90.8 18.15 78.9m-4.5-49.45H10.1l1.85-1.5 2.05.8 3.6-.85 5.95 1.7-.55 1.7q-3.95-2.6-9.35-1.85M33.5 48.4l1.25.5-.6.8-.65-1.3" fill="#ca844a"/><path d="M6.9 30.35q7.1-2.5 0-3.1l-2.75-5 4.95 4 4.9 1.9 3.5-.95 6.1 1.55.1-.85q-4-2.1-6.45-2.65-5.1-9.55-17.25-13h5.8q3.25 2.2 6.3 3.25l-1.8-6.15q6.05 10.5 10 10.8l7.2 5.05 7.65.85Q45.8 19.45 45.4 13.4 48.8 7.3 50.35 0q1.9 5.6-1 13.45Q59.1 11 67.95 3.7L66.9 5.4l-.6.9-.55.7-.6.7q-1.9 2.1-4.55 4-7.45 2.65-12.7 7.5-4.3 9.15-13.95 12.75-5.1 4.7-2.5 11.55 9.75 1.85 10.65 8.85l7-3.7 8.6-1.5 3.15 1.3q-.05.9.9 1.6l-4.4-1.4-5 1.6-10.15 5.5-7.95 31.65-1.35.45L34 83.5l7.3-28.2 10.55-5.65 3.75-1.35-5.75.8-7.65 4.1-1.7.4-.1-.3-1.05-4.6q-3.25-2.8-8-3.85-1.5-.95-1.95-4.4-.15-.9-.15-1.95l-.75-.75-.7-.8.7.25.7.2v-1.2l-.5-.35-.5-.3h1.35l.4-1.25-.5-.75-.45-.7.65.3.65.3q2.8-3.3 7.55-4.9l1.9-1.35q3.85-3 6.85-8 6.35-5.3 14.65-8.65L65.2 6.6q-8 5.85-16.45 7.65 1.5-5.55 1.35-10.4L48.9 7.4l-2.75 6.25q1.35 6.25-11 13.9l-8.05-.7q-3.2-3.15-7.1-5.8-5.8-2.45-8.2-8.2l1.1 3.5-4.4-1.15q2.2 1.05 4 2.6 3.1 2.65 5.1 6.75l6.9 3q.15 4.5-1.7 5.8v2.75l2.05-.7L22 37.5l2.15-.25 1.15-.15-3.65 1.1-.55 1.1 3.75-.9-1.8 1.05-1.75 1.05-1.05 2.65q.95 1.8 2.3 3.2l2.8 2.2q1.45.9 3.2 1.5L18.15 78.9l-.3-1 9.55-27.4-.85-.8-9.05 26.95-.5-2 8.25-24.05q-4.2-3.15-7.1-7.75l3.85-9.2q-3.15-3.15-8.85-3.3H6.9m16.1.95.55-1.7-5.95-1.7-3.6.85-2.05-.8-1.85 1.5h3.55q4.35.25 8.2 1.9l.6 1.6.55-1.65m11.05 16.1-.55 1 .65 1.3.6 1.25-1 11.3.4-11L33.5 50l-.7-1.2.35-.85.3-.85.6.3m1.35.55.55.2q.05 3.2 2.55 1.8l.25.4q-3.6 2.2-3.35-2.4" fill="#744326"/><path d="m39.75 27.2-1.9 1.35q-4.75 1.6-7.55 4.9l-.65-.3q3.75-5.65 10.1-5.95m-10.3 6.35.5.75-.4 1.25h-.7l.6-2m-.75 2.3.5.35v1.2l-.7-.2.2-1.35m-.2 1.9.75.75q0 1.05.15 1.95-.1 4.4 4.05 6.65l-.3.85q-4.75-1.55-4.65-10.2M40.4 53.3l.1.3 1.7-.4 7.65-4.1 5.75-.8-3.75 1.35L41.3 55.3 34 83.5q-9.25-20.35-.5-33.5l.65 1.25-.4 11 1-11.3-.6-1.25.6-.8-1.25-.5.55-1 1.35.55q-.25 4.6 3.35 2.4l1.65 2.95m-4.45-5.15 1.3.35 1.25 1.45q-2.5 1.4-2.55-1.8" fill="#8f5633"/><path d="m65.15 7.7.6-.7q2.9 4.55 7.35 4.45l2-.3Q71.6 7 67.2 6.4l-.9-.1.6-.9q7.05.4 9.75 6.4-9.65 2.45-11.5-4.1" fill="#316107"/><path d="M6.9 30.35h2.3Q4.5 32.7 2.6 35.7l-.95-.35q.25-3.3 5.25-5M67.2 6.4q4.4.6 7.9 4.75l-2 .3-5.9-5.05m-4.6 42.55-.8-.7q5.5-5.95 10.65 0-5.2-1.1-9.85.7" fill="#a3c821"/><path d="m65.75 7 .55-.7.9.1 5.9 5.05q-4.45.1-7.35-4.45M9.2 30.35q-2.9 6.4-6.6 5.35 1.9-3 6.6-5.35m63.25 17.9q-5.2 4.5-9.85.7 4.65-1.8 9.85-.7" fill="#528604"/><path d="M9.2 30.35h.8Q6.35 39.15.6 36q1.05-6.7 6.3-5.65-5 1.7-5.25 5l.95.35q3.7 1.05 6.6-5.35" fill-opacity=".78"/><path d="M61.75 50.05q-.95-.7-.9-1.6.1-1.5 2.8-3.4 6.8-1.7 10.1 2.65-3.7 4.85-10.1 3.3-1.2-.4-1.9-.95m10.7-1.8q-5.15-5.95-10.65 0l.8.7q4.65 3.8 9.85-.7" fill="#316007"/><path d="M29.4 40.45q.45 3.45 1.95 4.4 4.75 1.05 8 3.85l1.05 4.6-1.65-2.95-.25-.4-1.25-1.45-1.3-.35-.55-.2-1.35-.55-.6-.3q-4.15-2.25-4.05-6.65" fill="#b5c9ea"/></g><g id="r" fill-rule="evenodd"><path d="m49.75 7.45-.3-4.95q-6.9 10.45-7.15 28.8-.15 9.95 1.6 22.15l7.95 7.05-8.75-6.25q-1.3-6.45-1.9-13-.65-6.95-.5-14l-4-7.25-1.1-2-.7-1.3q-1.85 11.4 1.65 20.1l3.1 8.4.2.6q.95 4.2-4.2 5.05l4.4 3.8q-5.15-.8-8.85-7.55-8.65-1.35-10.7-5.85-3.7-1.4-6.45-4.35-6.9-7.45-7.6-24.8l-.9 2.05q-.85 2-1.55 3.95l-.35 5.65v.05q-.45 14.7 3.8 16.85 2.55 5.2 10.3 11.1l.3.2v.85q0 .8.35 1.45.95 2.1 4.45 3.05l-2.1-.4q-2.75-.85-3.1-3.1-.15-.8 0-1.7-6.75-3.85-10.5-10.55-1.1-.6-1.95-1.7-3.7-5.1-1.55-20.75-5.1 15.2.4 26.7-2.55-7.4 2.25-1.95L7.55 45l5.75 5.35q1.5 1.1 1.9 2.35.25.7.15 1.4l3.1 2.65 4.65 3.9L16.75 56l-2-1.5q.5-1.9-1.8-3.8L6.2 44.45q-3.7-4.25-1.65 2.3l.95 1.65q.25-2.65 2.65-1.25 8.45 8.1 4.75 7.45-1.9-.9-3.25-3.7l2.7 2.8Q15.4 55 8 47.7q-2-1.45-2.05 1.45 2.1 3.2 5.1 6.15 2.3 2.2 5.1 4.2l11 3.8 2.25.8 3.4 1.15.25.7 4.55 12.5.55 1.45 9.3 6.55.1-.15L53.7 79l2.1 1.6 1.75 1.3.75-1.3 4.15-6.85 2.05.4q1.25-3.35 4.1-4.15-2.7 2.15-3 5.75l-2.55-.8-4.7 8.55-.5-.3-3.8-2.75-4 4.75-2.1 2.45-.65-.3-3.1-1.5 3.25 6.75q-1.05 8.6.25 15.05l1.8 2.6q2.35 4.15 1.85 8.05.8-.75 1.25-1.7 1-2 .7-5v-.15q-2.1-6.85 5.25-18.15l.2.6h.05l1.35 3.4q-2 7.45-1.35 14.3l1.15-4.15q.7 5.95 3.1 9.3l-1.25-8.35.75-.8q4.35-5.25 2.45-15.55l4.4 3.4q.9 7 3.25 12.1-.65-3.1.4-6.3l.85-2.15.15-2q-.4-2.3-1.6.3 1.05-4.7 1.6-.55l.2-3.3-.7-1.3-3.15-5.8Q68.95 80 72.1 79.7q2.65-7.45 8.8-3.2 6.55-3.65 10.7-10.2l1.9-3.45 1.3-2.9-7.2 3.55-8.25 5.8-5.2-.65L71 71.1l2.85-3.1 5.45.4q5-2.9 8.1-7.55 3.95-5.9 5-14.55.35-3.4.35-7.25l-.95.85-.35.3-2.25 1.95-14 12.3q.15 2.3-.1 3.95-.65 4.3-4.45 4.35l-3 4.15-.1-.05.7-1.4 1.45-3.1q6.2-1.1 4.75-8.25l3.75-3.5-.1-.75q.1-1.4 1.7-3.1-.6 1.5-.65 2.4 0 .6.35.9 7.3-6.35 2.4-21.85l-.45-1.35-.9-2.55L77 35.5q-4.55 5.1-7.55 10.2l-1.35 2.4q1.5 6.2-2.35 7.65l-1.15.3q4.55-3.35 1.7-8.05l1.15-1.55L75.6 35.3l1.35-2.6.45-.95h-4.65q-1.6-6.05-2.25-12.9l-.3-4.65q-.2-3.9-.05-8.05-7.3 9.9-6.75 21.55-.45 6.05-2.6 10.9l-.45.95L57.4 39l1.05 3.55q1.35 3.6 2.15 6.85 1.5 5.75 1.3 10.3l-4.55-16.6v-.05q-2.7-7-4.45-14.7-1.45-6.15-2.3-12.7-.55-4-.85-8.2M45.1 35.8q-.3-2.25-.05-5.05l.1-.25q1.25-3.05.45-7.15 1.45 2.95.7 6.1-1.3 5.3-.2 10.15-.75-1.65-1-3.8m2.75-21.25-.25-2.65.25 1.1q1.9 7.95 2.05 16.3L48 32.5q-1.95.25-.05 9.15l.05.2q1.25 3.85 2.25 4.8.8.75 1.35-.45l3.85 10.05-4.05-8.9q-.45.75-1.15.2-.9-.7-2.15-3.75Q45.5 33 47.45 32l1.8-2.9-1.4-14.55M62 31.95l.35-3.3-2.1-12-.7-3.85L53.5 26l1.9 6.4 1.7 5.75 2.75.45Q61.3 36 62 31.95M57.5 53.8l-2.55-5.75q-2.65-.95-1.75-5.1.6-3.2-2.2-13.1l2.55 7.95q.75 3.95 0 6.15.35 4.25 1.7 3.35L57 50.8l.5 3m-7.2-16.4.95 3.05q1.85 3.8-.85-5.45l-.25-.25q-1.55-1.2.1 7l.3 1.35-.1.05Q47.9 36.5 49.25 34q.5-.2.9 0 1.65.7 2.4 7.1-.8 2.1-1.55-.55l-.7-3.15m55.55-25.1-3.75-1.15-5.95 1.75-.7 9.15L86 37.3v6.85l7.35-6.95Q93.9 52.6 87.7 62l8.25-3.05q-2.75 11.95-15 18.9-7.1-5-7.3 2.85l-2.5.4q-.15 5.85 3.95 12l-.3 6.35q-2.35 5-.9 9.9-4.25-2.7-5.2-13.6l-3-2.45q2.05 7.6-.5 11.5-5.3 8.1 3.3 16.55-7.4-1.7-8.55-9.4l-1.6 3.05q-1.7-8.4 0-17.95-4.45 5.95-4.25 11.6 2.5 8.25-4.15 12.2 1.5-4.45-1.5-9.7-4.35-5.95-2.2-18.75l-3.15-7.25-6.45-5.25-4.75-13.75-16.25-5.75Q-10.65 42.15 7.3 8.25q.9 26.15 14 31.9 2.95 4.35 10.1 4.5L35 49.9q2.65.05 3.65-2.2.45-4.5-3.65-10-4.9-13.45 0-25.4 1.2 7.1 5.55 12.4Q42.6 7.95 50.95 0q0 12.1 2.45 22.5l6.95-13.75 1.9 10.8q2.8-9.85 9.1-16.95-.8 12.25 1.7 24.65Q81.3 11.2 97.9 2.6l-1.1 7.65 5.3-.8 3.55 1.9.2.95M8.2 30.45q.9 3.7 2 6.8 6.6 7.1 13.95 11.95-7.55-3.5-13.7-11.15l-.9-1.15q-3.2-6.1-4-22.75.95 9.2 2.65 16.3m80.8-9.5q-1.55 5.75-5.4 9.15l3.1-5.2 2.3-3.95m-5.45 9.15.8 3.45.4 2.15.2 1.6 4.35-7.45L92.75 24l1-1.7L96.6 4.6l.15-1q-17.1 11.2-23.5 25.45l.6 1.5h3.55l2.8-8.7q2.05 3.6 3.35 8.25m7.55-17.2 2.15-6.05q-.75 4.65-2.9 10.1L85 24.85q3.6-5.65 6.1-11.95m5.45-.75 5.2-1.7-5 .75-.2.95m-5.1 28.05.3.05q-.9 4.55-2.6 8.35l-1.3 2.55-4.55 3.9v.05l-.35.05h.35q.05 1.05-.4 2.15-1.5 3.5-7.9 7.55 8.15-6.8 7.95-9.7l-.1-.4 4.4-3.75 4.2-10.8m-2 2.6-3.85 8.65-5.7 4.3q.75 2.65-7.1 8.15 4.5-3.95 6.85-8.3l.1-.2L85.2 51l1.75-3.5 2.5-4.7m-10.1-5.85q1.4-.7.85 3.05l.25 1.5.65-.45q1.75-1.65 1.1-7.75 1.8 6.55-1.3 8.6l-.85.45-.45-1.8q.95-3.65-.35-2.95-1.05.6-3.5 3.85l-.25.3-2.1 2.9 1.3-2.05q3.25-5 4.65-5.65m7.05 21.4q-1.35 1.85-3.5 1.75 2.45-.5 3.1-2.1 2.05-3.35-1.45-.95 3.55-3.6 2.3.6l-.45.7m-8.95-17.3.3.25.4.75L76.9 46l-.15.15h-.05l-.2.25-.3-.2 1.4-4-.2-.65-.1-.05q-.75-.15-3.5 5.2 1.2-3.3 2.15-4.7l.15-.25q.75-1 1.35-.7m-.6 5.1q1.3.45.05 2.95l-1 1.7-.45.75-2.1.05.05-.05q.3-1.05 1.3-3.1-.8 2.35-.9 3.15v.05q-.05 1.4 2.65-2.8.7-1.85.1-2.4l.3-.3M78.15 74l-.6-.05q3.6-2.7 4.85-1.6 6.35-2.1 6.85-6.2 3.15-3.6-2.1-1.15 4-2.9 3.85-.3l-.25.4-.95 1.45q-1.8 4.9-7.55 6.3-2.2-.35-4.1 1.15M87 60.55q-6.1 7-6.65 3.75l.7-.75q.6-.8-1.6.2 2.25-1.6 2.6-.95l-.65 1q-1.8 3 5.6-3.25m-18.4 29.4.6 2.1 1.1-.65v2.35l-.4-1.7-1.1 1.2q-.6-.75-.5-2.4-2.35.55-.65-3.7-.9 3.1.95 2.8m2.65 2.4.15.25q-.95 1.55-.5 3.4-.6-1.25-.45-2.2.1-.85.8-1.45m-20.4 2.8q3.9-5 1.65-11.4 2.85 6.6-1 11.25l-1.65 6 1-5.85" fill="#744326"/><path d="M42.3 31.3q.25-18.35 7.15-28.8l.3 4.95-1.9 5.55-.25-1.1.25 2.65-2.25 8.8q.8 4.1-.45 7.15l-.1.25q-.25 2.8.05 5.05L44 42.5l-.7-12.45-1 1.25m27.15 14.4q3-5.1 7.55-10.2l3.55-11.2.9 2.55-2.1 10.1q-1.4.65-4.65 5.65l-.2-.1-5.05 3.2m5.65 12.7q.25-1.65.1-3.95l14-12.3.35.4-.1.25-2.5 4.7-8.8 6.6-3.05 4.3m-25.6 51.85-1.8-2.6q-1.3-6.45-.25-15.05l-3.25-6.75 3.1 1.5.3.5 2 3.45-1.5 9.95 1.4 9m8.8-29.65-.75 1.3-1.75-1.3 3.4-7.4-.75 7.05-.15.35m-10.75 5.7-.1.15-9.3-6.55-.55-1.45 9.25-4.8 7.45-3.85q-4.85 9.35-6.75 16.5M3.65 23.8v-.05L4 18.1q.7-1.95 1.55-3.95l.9-2.05q.7 17.35 7.6 24.8-3.5-1.4-5.85-6.45-1.7-7.1-2.65-16.3.8 16.65 4 22.75l.9 1.15 1.45 5.25q-6.6-6.8-8.25-19.5M75.5 41.75l.25-.3q2.45-3.25 3.5-3.85l-1.8 3.45q-.6-.3-1.35.7h-.6M61.65 91.1q-3.55-6.1 1.3-11.5l-1.3 11.5" fill="#ffe9bd"/><path d="M70.5 18.85q.65 6.85 2.25 12.9h4.65l-.45.95-4.9.15q-1.6-6.3-1.55-14M91.6 66.3q-4.15 6.55-10.7 10.2-6.15-4.25-8.8 3.2-3.15.3-1.7 6.75l3.15 5.8Q65.8 84.95 71 78.6q2.1-4.95 6.55-4.65l.6.05 3.15.9q5.25-2.5 10.3-8.6M65 92.05q1.9 10.3-2.45 15.55l1.95-6.8.25-8.9.25.15M27.15 63.3l-11-3.8q-2.8-2-5.1-4.2l1.65.2 4.85 3.5 9.6 4.3M59.8 18.25l.45-1.6 2.1 12-.35 3.3-2.2-13.7m29.5 11.6-4.35 7.45-.2-1.6 4.55-5.85" fill="#b5c9ea"/><path d="M50.6 15.65q.85 6.55 2.3 12.7.5 6.15 2.4 12.7l.1.25 1.6 9.5-1.75-3.5q-1.35.9-1.7-3.35.75-2.2 0-6.15L51 29.85q2.8 9.9 2.2 13.1-.9 4.15 1.75 5.1l2.55 5.75.8 4.6.55 1.7-2.5 2.55L47.7 51.9l.85-5.3 1.7 4.5v-3.55q.7.55 1.15-.2l4.05 8.9L51.6 46.2q-.55 1.2-1.35.45l.2-3.5.2.45-.1-.5-.3-1.35.05-4.35.7 3.15q.75 2.65 1.55.55-.75-6.4-2.4-7.1l.45-18.35m10 33.75q-.8-3.25-2.15-6.85L57.4 39l2.95.55.45-.95q3.9-4.7 5.6-13.5l-.5 9.3 4.3-20.2.3 4.65q-.25 11.35.65 15.85l-3.7 11.75L66.3 48q2.85 4.7-1.7 8.05l1.15-.3q3.9.9 5.45-3.45l2.15-.7 2.1-.05.45-.75 2.2-.95.1.75-3.75 3.5q1.45 7.15-4.75 8.25l-1.45 3.1q1-6.55-5.25-7.2-.3-5.15-2.4-8.85m21.3-21.2q4.9 15.5-2.4 21.85-.35-.3-.35-.9l1.15-2.35v-.05q.7-2.15.6-4.85 3.1-2.05 1.3-8.6.65 6.1-1.1 7.75l.8-12.85m10.5 18.1q-1.05 8.65-5 14.55-3.1 4.65-8.1 7.55l-5.45-.4L71 71.1q1.3.5 2.9-.75 5.5 2.2 10.6 0l-1.2-.6q3-1.5 5.95-3.6-.5 4.1-6.85 6.2-1.25-1.1-4.85 1.6-4.45-.3-6.55 4.65-5.2 6.35 2.55 13.65l.7 1.3-.2 3.3q-.55-4.15-1.6.55 1.2-2.6 1.6-.3l-.15 2-.85 2.15-.6-3.85-.6-3.9-.45-.9.45-.7-.6.45-5.5-10.15q-2.65 4.3-1 9.7l-.25 8.9-1.95 6.8-.75.8q-.7-3.8 1.25-7.45l.05-.15v-15l4.3-8.9q4-4.75 1.2-6.9-2.85.8-4.1 4.15l-2.05-.4-4.15 6.85.15-.35 2.2-6.15 1.8-.45q3.15-1.4 4.9-6.3l.3-.45q4.8 2.6 10.8-3.15l.6-.45q2.8-2.35 4.35-5.7l.05-.05.85-2.35 4.5-3.4 3.6-5.5m1.1 16.55-1.9 3.45q-5.05 6.1-10.3 8.6l-3.15-.9q1.9-1.5 4.1-1.15 5.75-1.4 7.55-6.3l.95-1.45.2-.2.15-.1 2.4-1.95M58.75 93.9l-.2-.6q-7.35 11.3-5.25 18.15v.15q.3 3-.7 5 .2-3.6-2.2-8.7-.5-7.6 3.1-13.4l.25 4.35q1.6-6.9 1.6-15.7l-1.4-1.35-3.9 3.4 4-4.75 3.8 2.75v.3q-.45 5.7.9 10.4m-25.7-27.95-.25-.7-3.4-1.15q-1.95-4.15-8.85-6.65l-2.1-.7-3.1-2.65q.1-.7-.15-1.4l2.45 1.1q.35 2.25 3.1 3.1l2.1.4q-3.5-.95-4.45-3.05l1.65.3-2-1.75v-.85Q29.5 60.2 38.65 64q-4.8-3.6-7.85-9.1 6.35 7.65 12.2 8.15l-1.35-1.25-1.6-7.15-4.4-3.8q5.15-.85 4.2-5.05-.65-5.05-2.5-10.45l-.1-.35q.15-8.15-1.65-17l1.1 2 1.95 8.3 2.55 12.95q.6 6.55 1.9 13l8.75 6.25.15.1-.1-.05L57.4 64l-3.1 5.8-7.45 3.85q-5.25-7.15-13.8-7.7m-22-10.65q-3-2.95-5.1-6.15Q6 46.25 8 47.7q7.4 7.3 4.35 6l-2.7-2.8q1.35 2.8 3.25 3.7 3.7.65-4.75-7.45-2.4-1.4-2.65 1.25l-.95-1.65Q2.5 40.2 6.2 44.45l6.75 6.25q2.3 1.9 1.8 3.8l2 1.5-4.05-.5-1.65-.2M7.55 45 6.3 43.85Q1.5 38.4 4.05 45.8q-5.5-11.5-.4-26.7Q1.5 34.75 5.2 39.85L7.55 45m52.7-28.35-.45 1.6-3.5 12.6-.9 1.55-1.9-6.4 6.05-13.2.7 3.85M50.3 37.4l-.1-2.4h.2q2.7 9.25.85 5.45l-.95-3.05M89 20.95q3.75-6.85 6.35-14.6L96.6 4.6l-2.85 17.7-1 1.7-8.4 9.55-.8-3.45h.05q3.85-3.4 5.4-9.15m-15.75 8.1 4.95-6.75q6.7-3.3 12.9-9.4-2.5 6.3-6.1 11.95l5.35-7.9-3.65 7.95-3.1 5.2h-.05q-1.3-4.65-3.35-8.25l-2.8 8.7h-3.55l-.6-1.5m23.3-16.9.2-.95 5-.75-5.2 1.7M86.4 58.35l.45-.7q1.25-4.2-2.3-.6 3.5-2.4 1.45.95-.65 1.6-3.1 2.1 2.15.1 3.5-1.75m.6 2.2.4.3-.4-.3q-7.4 6.25-5.6 3.25l.65-1q-.35-.65-2.6.95 2.2-1 1.6-.2l-.7.75q.55 3.25 6.65-3.75" fill="#ca844a"/><path d="M49.75 7.45q.3 4.2.85 8.2L50.15 34q-.4-.2-.9 0-1.35 2.5 1.2 9.15l-.2 3.5q-1-.95-2.25-4.8l-.05-.2q-1.9-8.9.05-9.15l1.9-3.2q-.15-8.35-2.05-16.3l1.9-5.55M60.8 38.6q2.15-4.85 2.6-10.9-.55-11.65 6.75-21.55-.15 4.15.05 8.05l-4.3 20.2.5-9.3q-1.7 8.8-5.6 13.5m4.95 17.15q3.85-1.45 2.35-7.65l1.35-2.4 5.05-3.2.2.1-1.3 2.05 2.1-2.9.45.25q-.95 1.4-2.15 4.7 2.75-5.35 3.5-5.2l.1.05.2.65-1.4 4 .3.2.05.05q.6.55-.1 2.4-2.7 4.2-2.65 2.8v-.05q.1-.8.9-3.15-1 2.05-1.3 3.1l-.05.05-2.15.7q-1.55 4.35-5.45 3.45m15.7-28.9.45 1.35-.8 12.85-.65.45-.25-1.5q.55-3.75-.85-3.05l2.1-10.1m-2.3 22.3q.05-.9.65-2.4-1.6 1.7-1.7 3.1l-2.2.95 1-1.7q1.25-2.5-.05-2.95l.05-.15 1.25-3.95-.4-.75-.3-.25 1.8-3.45q1.3-.7.35 2.95l.45 1.8.85-.45q.1 2.7-.6 4.85v.05l-1.15 2.35m-10.9 16.3-.7 1.4-.2.5q-1.75 4.9-4.9 6.3l-1.8.45-2.2 6.15.75-7.05-3.4 7.4-2.1-1.6-6.15 7.3q1.9-7.15 6.75-16.5l3.1-5.8-5.5-3.45-.05-.05-7.95-7.05q-1.75-12.2-1.6-22.15l1-1.25.7 12.45 1.1-6.7q.25 2.15 1 3.8-1.1-4.85.2-10.15.75-3.15-.7-6.1l2.25-8.8 1.4 14.55-1.8 2.9q-1.95 1 .65 11.8 1.25 3.05 2.15 3.75v3.55l-1.7-4.5-.85 5.3 8.65 10.75 2.5-2.55q2.45 6.95 4.2-.05l-.05-1.8q6.25.65 5.25 7.2m-.6 1.45 3-4.15q3.8-.05 4.45-4.35l3.05-4.3 8.8-6.6L85.2 51l-5.45 4.4-.1.2q-2.35 4.35-6.85 8.3 7.85-5.5 7.1-8.15l5.7-4.3 3.85-8.65.1-.25-.35-.4 2.25-1.95-4.2 10.8-4.4 3.75.1.4q.2 2.9-7.95 9.7 6.4-4.05 7.9-7.55.45-1.1.4-2.15v-.1l4.55-3.9.2.05-.35.9-3.4 3.1-.85 2.35-.05.05q-1.55 3.35-4.35 5.7l-.6.45q-6 5.75-10.8 3.15M71 71.1l3.15-2.45 5.2.65 8.25-5.8 7.2-3.55-1.3 2.9-2.4 1.95-.1-.1q.15-2.6-3.85.3 5.25-2.45 2.1 1.15-2.95 2.1-5.95 3.6l1.2.6q-5.1 2.2-10.6 0-1.6 1.25-2.9.75m2.05 30.15q-1.05 3.2-.4 6.3-2.35-5.1-3.25-12.1l-4.4-3.4-.05-.2-.2.05q-1.65-5.4 1-9.7l5.5 10.15q-.7.6-.8 1.45-.15.95.45 2.2-.45-1.85.5-3.4l.45.9.6 3.9.6 3.85M61.8 108.4l1.25 8.35q-2.4-3.35-3.1-9.3l-1.15 4.15q-.65-6.85 1.35-14.3l-1.35-3.4h-.05q-1.35-4.7-.9-10.4h.5l4.7-8.55 2.55.8q.3-3.6 3-5.75 2.8 2.15-1.2 6.9l-4.3 8.9v15l-.05.15q-1.95 3.65-1.25 7.45m-9.2 8.2q-.45.95-1.25 1.7.5-3.9-1.85-8.05l-1.4-9 1.5-9.95-2-3.45.35-.2 2.1-2.45 3.9-3.4 1.4 1.35q0 8.8-1.6 15.7l-.25-4.35q-3.6 5.8-3.1 13.4 2.4 5.1 2.2 8.7m-15-38.15-4.55-12.5q8.55.55 13.8 7.7l-9.25 4.8M15.2 52.7q-.4-1.25-1.9-2.35L7.55 45 5.2 39.85q.85 1.1 1.95 1.7 3.75 6.7 10.5 10.55-.15.9 0 1.7l-2.45-1.1m3.2 1.55q-.35-.65-.35-1.45l2 1.75-1.65-.3m-.35-2.3-.3-.2q-7.75-5.9-10.3-11.1Q3.2 38.5 3.65 23.8 5.3 36.5 11.9 43.3l-1.45-5.25q6.15 7.65 13.7 11.15-7.35-4.85-13.95-11.95-1.1-3.1-2-6.8 2.35 5.05 5.85 6.45 2.75 2.95 6.45 4.35 2.05 4.5 10.7 5.85 3.7 6.75 8.85 7.55l1.6 7.15L43 63.05q-5.85-.5-12.2-8.15 3.05 5.5 7.85 9.1-9.15-3.8-20.6-12.05m21.8-6.15-.2-.6-3.1-8.4q-3.5-8.7-1.65-20.1l.7 1.3q1.8 8.85 1.65 17v.15l.1.2q1.85 5.4 2.5 10.45M50.2 35l.1 2.4-.05 4.35q-1.65-8.2-.1-7l.05.25M96.6 4.6l-1.25 1.75q-2.6 7.75-6.35 14.6l-2.3 3.95 3.65-7.95q2.15-5.45 2.9-10.1L91.1 12.9q-6.2 6.1-12.9 9.4l-4.95 6.75q6.4-14.25 23.5-25.45l-.15 1m-28 85.35q-1.85.3-.95-2.8-1.7 4.25.65 3.7-.1 1.65.5 2.4l1.1-1.2.4 1.7V91.4l-1.1.65-.6-2.1m-17.75 5.2-1 5.85 1.65-6q3.85-4.65 1-11.25 2.25 6.4-1.65 11.4m10.8-4.05 1.3-11.5q-4.85 5.4-1.3 11.5" fill="#fed784"/><path d="M52.9 28.35q1.75 7.7 4.45 14.7v.05l4.55 16.6q.2-4.55-1.3-10.3 2.1 3.7 2.4 8.85l.05 1.8q-1.75 7-4.2.05l-.55-1.7-.8-4.6-.5-3-1.6-9.5-.1-.25q-1.9-6.55-2.4-12.7m24.05 4.35-1.35 2.6-8.15 11.15 3.7-11.75q-.9-4.5-.65-15.85-.05 7.7 1.55 14l4.9-.15m14.85 7.2.95-.85q0 3.85-.35 7.25l-3.6 5.5-4.5 3.4 3.4-3.1.35-.9 1.1-2.6q1.7-3.8 2.6-8.35l.05-.35M29.4 64.1l-2.25-.8-9.6-4.3-4.85-3.5 4.05.5 6.35 4.65-4.65-3.9 2.1.7q6.9 2.5 8.85 6.65M36.7 20l4 7.25q-.15 7.05.5 14L38.65 28.3 36.7 20m23.1-1.75 2.2 13.7q-.7 4.05-2.15 6.65l-2.75-.45-1.7-5.75.9-1.55 3.5-12.6m24.55 15.3 8.4-9.55-3.45 5.85-4.55 5.85-.4-2.15" fill="#8f5633"/><path d="M105.65 11.35q4.25-8.65 13.1-1.1-5.85 7-12.9 2.05l-.2-.95m11.25-.05 1-.7q-6.05-5.9-11.15.25l-.35.45q4.7 3.6 10.5 0" fill="#326208"/><path d="M106.75 10.85q5.1-6.15 11.15-.25l-1 .7q-4.85-2.2-10.15-.45" fill="#a3c821"/><path d="M116.9 11.3q-5.8 3.6-10.5 0l.35-.45q5.3-1.75 10.15.45" fill="#528604"/><path d="m56.6 60.1 1.15-1.2q2.25 2.55 3.35 4.8l-1.15.5q-1.05-1.95-3.35-4.1m-1.3 12 .8.3.3 1.05q-3.35.4-4.75-5.65 1.8 3.4 3.65 4.3" fill="#bea3c9"/><path d="m56.1 60.6.5-.5q2.3 2.15 3.35 4.1 1.65 2.95.55 5.55-1.25 1.7-2.45 2.35 2.95-2.65 2-5.9v-.1q0-.7-.5-1.2-1.05-2.05-3.45-4.3" fill="#3765d1"/><path d="M56.9 65.15q-.3.4-.3.95 0 .75.5 1.25.55.5 1.25.5h.1q-.05 1-.7 1.75l-1.05.7-.15-.15q-.3-.3-.75-.3-.4 0-.7.25l-.6-.5q-.65-.8-.65-1.9 0-1.15.65-1.95.7-.75 1.65-.75l.75.15" fill="#131c8d"/><path d="m59.95 64.2 1.15-.5q2.05 4.45-.75 7.7-2.25 1.85-3.95 2.05l-.3-1.05 1.95-.3q1.2-.65 2.45-2.35 1.1-2.6-.55-5.55m-1.5 3.65h-.1q-.7 0-1.25-.5-.5-.5-.5-1.25 0-.55.3-.95l.2-.25q.55-.5 1.25-.5t1.2.5l.5 1.3q0 .65-.5 1.15l-.35.3-.75.2M55.1 70.1q.3-.25.7-.25.45 0 .75.3l.15.15.15.6-.1.45-.2.25q-.25.25-.6.3l-.15.05-.4-.1-.35-.25q-.3-.3-.3-.7 0-.45.3-.75l.05-.05" fill="#fff"/><path d="m51.25 65.7 4.85-5.1q2.4 2.25 3.45 4.3-.5-.5-1.2-.5t-1.25.5l-.2.25-.75-.15q-.95 0-1.65.75-.65.8-.65 1.95 0 1.1.65 1.9l.6.5-.05.05q-.3.3-.3.75 0 .4.3.7l.35.25-.1.25q-1.85-.9-3.65-4.3l-.4-2.1m5.45 4.6 1.05-.7q.65-.75.7-1.75l.75-.2q.6 2.8-2.45 3.7l.1-.45-.15-.6" fill="#377ee5"/><path d="m59.2 67.65.35-.3q.5-.5.5-1.15.95 3.25-2 5.9l-1.95.3-.8-.3.1-.25.4.1.15-.05q.35-.05.6-.3l.2-.25q3.05-.9 2.45-3.7" fill="#1fe5fc"/><path d="m57.75 58.9.55-.55q7.4 7.7 2.4 13.85-8.65 5.9-10.05-5.85l.6-.65.4 2.1q1.4 6.05 4.75 5.65 1.7-.2 3.95-2.05 2.8-3.25.75-7.7-1.1-2.25-3.35-4.8" fill="#744326"/><path d="m46.45 79.7 5.4-7.95 7.6-14.15.95-4.7.25 4.7q-4.95 7.55-8.05 14.65l-6.15 7.45" fill="#b5c9ea"/><path d="m44.75 81.75 1.7-2.05 6.15-7.45q3.1-7.1 8.05-14.65l-.25-4.7-.25-3.8-1.05 3.25q-1.65 3.85-4.9 7.4-3.55 4.3-5.05 9.55-1.85-5.45-4.9-10.3.55 2 .6 3.7l-.35 3.05-.25.7-1.05 8.9-.1.1-.1-.1-4.7-5.9-.85-1.05.25 4.25.3 4.05h-.05l-1.5-4.2-2.7-2.05-2.85-2.2Q35.35 78.3 44.45 82.1l.3-.35m9.4-23.15.15-.15q4.2-4.7 5.85-12 1.85 5.95 1 11.6-4.6 7.6-7.8 14.9-5.45 5.75-8 10.45l-.25-.15q-5.65-1.1-10.85-7.05L28.1 65.65q4.9 1.4 8.25 5.75l.6-4.55 5.7 6.4.65-6.75q1.55-4.35-.2-9.65l.15-.05q4.1 4.25 6 10 1.6-4.75 4.9-8.2" fill="#b05512"/><path d="M44.75 81.75 43.2 80.5q2.4-4.9 6.75-8.25 2.1-8.5 8.55-14.9l.6-5 1.05-3.25.25 3.8-.95 4.7-7.6 14.15-5.4 7.95-1.7 2.05m3.35-9.85-.15.35-3.45-6.5.35-3.05 3.25 9.2m-5.65 4.05q-2.35 1.35-4.75-3.3l-.25-4.25.85 1.05q.45 4.15 4.15 6.5" fill="#e1851e"/><path d="m59.1 52.35-.6 5q-6.45 6.4-8.55 14.9-4.35 3.35-6.75 8.25l1.55 1.25-.3.35q-9.1-3.8-13.55-13.85l2.85 2.2 4.2 6.25.05.2v-.2l-.3-4.05q2.4 4.65 4.75 3.3l.65-.5.1-.1 1.05-8.9.25-.7 3.45 6.5.15-.35 1.15-2.35-.1-.25q1.5-5.25 5.05-9.55 3.25-3.55 4.9-7.4" fill="#ffff75"/><path d="m49.15 69.3.1.25-1.15 2.35-3.25-9.2q-.05-1.7-.6-3.7 3.05 4.85 4.9 10.3m-6.05 6.15-.65.5q-3.7-2.35-4.15-6.5l4.7 5.9.1.1m-5.15 1.25-4.2-6.25 2.7 2.05 1.5 4.2" fill="#f9aa27"/></g><g id="s" fill-rule="evenodd"><path d="m40.1 32.45 2.95-2.05 2.05-2.95q-2.05-.2-1.65-4.7l-1.5 6.6-4.3 3.1q-9.3 6.55-15.8-14h1.35q6.15 19.5 13.95 12.7l3.8-2.3 2.75-10L44.8 26l3.65-1.9-4.75 7.05-4.65 4.65 7.55 15.85 5.15 3 6.35 6.3q-6.15-.3-11.6-4.55l3.65 10.2v1.3q3.75 4.45 4.45 10.6l-2.15 10-6.15-9-4.75 9.8q-2.5-3.6-3.6-11.75Q35.7 86 29.65 91.3l-2.8-9.7-11.6 3.95 4.1-5.85v-6.35l7.4-9.9 2.3 1.7Q31.1 56.9 14.5 56.3q-4.25-5.4-8.3-13.8l3.75 5.15 5.5 7.6 8.4.95q3.75.55 5.9 3.55 1.6 2.1 2.4 5.4l-1.5-3.05q.6 3.25-.55 4.05l.95 1.4h.9q3.65-.1 6.05 2.55l.45-.7.45-.65 1.85-2.9 3.95 4.25 1.9-4.6.95.45.95.4-.4-1.65-2.2-9.75 7.05 2.85-7.4-4.8-1-2.05-.7-1.6-5.3-11.25q-.7-1.2-.5-2.4l.3-1 .05-.1q.5-1.05 1.7-2.15M28.25 66.5l-1.3-1.3L21 73.15v6.6l-2.95 3.7 2.1-.8 2.2-.85 4.3-1.6 3.4-9.25.7-1.95-2.5-2.5m6.25-23.35q-2.2-1.85-1.35-5.4 1.2-1.9 2.65.75 2.1 7.45 0 5.05 1.05.25-.5-4.35-1.1-2.9-1.9-.3-.3 2.3 1.1 4.25m1-1.35q-.85 1.05-1.45-2.95l1.45 2.95m-10 4.45h.05q3.85 2.45 5.7 6.9 3.8-1.65 6.5 11.65-3.25-12.1-7.4-11.25-.15-2.75-4.85-7.3M42.55 59.4q-4.9-13.45-6.65-12.55-4.9-1.25-4.8-9.8.65 8.85 5.25 8.85 2-1.1 6.2 13.5m-.35 9.35-1.35-1.4-2.8 3.75 1.45 10.4 1.75 4.55.2.45q6.75-10.65.75-17.75m-5.4 7.55q.35-2.8.2-5.9l-1.75-1.35q-1.45-.7-3.3-.65l-3.6 10.8v4.45l1.85 5.05 1.3-1.85 2.5-3.6 2-2.85.8-4.1m13.15-6.95-.45-.5-1.7-1.55-.65-.45-1.7 5.85 3.45 8.95 1.45 1.95.7.9.75 1q.95-2.85 1.2-5.4.65-6.45-3.05-10.75" fill="#5f2c17"/><path d="M40.1 32.45q-1.2 1.1-1.7 2.15l-.05.1-.3 1q-1.25 5.5 5.8 13.65l.7 1.6q-3.9-3.4-7.45-8.4-1.6-9.75 3-10.1m5.8 22.5 2.2 9.75q-1.55-3.25-2.55-7.65-.7 4.6 2.95 9.3l-.95-.4Q41.4 59.35 41 49.6l3.4 7.5 1.5-2.15m-7 13.8-.45.65-4.95-10.55h-3.75q-.75-4.9-13.6-4.1 6.95-4.55 16.8 1.15l-2.6-2.35q-2.9-3.05-4.85-7.3l-1.6-4.4q4 4.75 7.7 10.05 6.25 1.45 7.3 16.85M9.95 47.65 6.2 42.5l-1.65-3.65Q8.15 23.1 17 19.5L9.95 47.65m20.1 23.3-3.4 9.25-4.3 1.6 7.7-10.85m-4.55-24.7q4.7 4.55 4.85 7.3 4.15-.85 7.4 11.25-2.7-13.3-6.5-11.65-1.85-4.45-5.7-6.9h-.05M36.8 76.3l-.8 4.1-2 2.85q.6-3.5 2.8-6.95m12.7-7.45.45.5Q51.9 73.9 53 80.1q-.25 2.55-1.2 5.4l-.75-1q.6-6.8-1.55-15.65" fill="#8f5633"/><path d="M21.85 18.45q6.5 20.55 15.8 14l4.3-3.1 1.5-6.6q-.4 4.5 1.65 4.7l-2.05 2.95-2.95 2.05q-4.6.35-3 10.1 3.55 5 7.45 8.4l1 2.05 7.4 4.8-7.05-2.85-1.5 2.15-3.4-7.5q.4 9.75 6.55 16.35l-.95-.45-1.9 4.6-3.95-4.25-1.85 2.9q-1.05-15.4-7.3-16.85-3.7-5.3-7.7-10.05l1.6 4.4q1.95 4.25 4.85 7.3l2.6 2.35q-9.85-5.7-16.8-1.15l-.7.5-5.5-7.6L17 19.5q2.25-.9 4.85-1.05m16.6 50.95-.45.7q-2.4-2.65-6.05-2.55h-.9l-.95-1.4q1.15-.8.55-4.05l1.5 3.05q-.8-3.3-2.4-5.4v-.9h3.75l4.95 10.55M19 36.35l-1.05-.2L20 49.7 16.45 40q-3 .8-1.2 5.5-2.6.7.65 5.95L20 49.7l4.05-1.6L19 36.35m9.25 30.15 2.5 2.5-.7 1.95-7.7 10.85-2.2.85.85-2.9V75q3.9 2.8 7.25-8.5m7.25-24.7-1.45-2.95q.6 4 1.45 2.95m-1 1.35q-1.4-1.95-1.1-4.25.8-2.6 1.9.3 1.55 4.6.5 4.35 2.1 2.4 0-5.05-1.45-2.65-2.65-.75-.85 3.55 1.35 5.4m8.05 16.25q-4.2-14.6-6.2-13.5-4.6 0-5.25-8.85-.1 8.55 4.8 9.8 1.75-.9 6.65 12.55m-1.3 26.65.95-17.3q6 7.1-.75 17.75l-.2-.45m-6-17L37 70.4q.15 3.1-.2 5.9-2.2 3.45-2.8 6.95l-2.5 3.6.2-8.65q2.85-2.75 3.55-9.15m14.25-.2q2.15 8.85 1.55 15.65l-.7-.9Q50 75.95 47.8 67.3l1.7 1.55" fill="#ca844a"/><path d="M38.05 35.7q-.2 1.2.5 2.4l5.3 11.25q-7.05-8.15-5.8-13.65m10.05 29 .4 1.65q-3.65-4.7-2.95-9.3 1 4.4 2.55 7.65m-18.35-4.95q-2.15-3-5.9-3.55l-8.4-.95.7-.5q12.85-.8 13.6 4.1v.9M53 80.1q-1.1-6.2-3.05-10.75 3.7 4.3 3.05 10.75" fill="#b5c9ea"/><path d="m19 36.35 5.05 11.75L20 49.7l-4.1 1.75q-3.25-5.25-.65-5.95-1.8-4.7 1.2-5.5L20 49.7l-2.05-13.55 1.05.2M21 75v-1.85l5.95-7.95 1.3 1.3Q24.9 77.8 21 75m-.85 7.65-2.1.8 2.95-3.7-.85 2.9m21.1 3.4L39.5 81.5l-1.45-10.4 2.8-3.75 1.35 1.4-.95 17.3m-9.75.8-1.3 1.85-1.85-5.05V79.2l3.6-10.8q1.85-.05 3.3.65-.7 6.4-3.55 9.15l-.2 8.65m18.85-3.25-1.45-1.95-3.45-8.95 1.7-5.85.65.45q2.2 8.65 2.55 16.3" fill="#fed784"/><path d="m11.95 15.8.4-1.25 6.75-1.65 1.75 1.65q4.45 1.55 8.95.45l9.45-3 9.95-9.5-2.45 1.15-5.2 2.15q-8.65 3.05-13.1.95L13.8 7.85 3.65 21.2 2.3 22.95h3.4q-3.85 8.6-1.1 16.65l2.9-2.45q1.35-1.05 2.65-1.9 4.45-2.9 8.85-4l5.85-7.3h6.35l9.35-7.55-1.9-.1-8.7-.65q-5.25 2.1-10.35-1.6l-6.35 1.35-1.4 3.15-3.8 8.35 3.9-11.1m11.8-4.45q-10.9.35 0-3.1-8.75 3 0 3.1m9.55 3.55 10.6 1.05-12.2 9.15h-6.8l-5.65 7.35q-7.7 2.15-15.1 9.2Q1.2 34.2 3.1 24.6L0 24.1q2.15-4.05 4.8-7.85 3.65-5.2 8.3-9.9l15.15-1.1Q33.7 9.05 53.05 0l-13.5 13-6.25 1.9M40 8.35l-6.75 3.35-5.85.75 5.7-1.5 6.9-2.6m-6.75 10.6q-3.95 2.2-8.55 2.8l-3.95 2.5 3.6-3.15q3.15-.1 6.35-1.15l2.55-1" fill="#683237"/><path d="m19.1 12.9-6.75 1.65-.4 1.25-4.85 5.75 2.2-5.75-3.95 4.85-1.7.55L13.8 7.85l14.65-1.1q4.45 2.1 13.1-.95L39.6 7.4l-15.8 5.5h-4.7m-7.25 5.65 1.4-3.15 6.35-1.35q5.1 3.7 10.35 1.6l8.7.65-1 .85-4.4 1.8-2.55 1Q21.15 17.3 8.95 28.5q1.1-4.9 2.9-9.95m11.9-7.2q-8.75-.1 0-3.1-10.9 3.45 0 3.1" fill="#a7656b"/><path d="m11.95 15.8-3.9 11.1 3.8-8.35q-1.8 5.05-2.9 9.95 12.2-11.2 21.75-8.55-3.2 1.05-6.35 1.15l-3.6 3.15 3.95-2.5q4.6-.6 8.55-2.8l4.4-1.8-6.15 5.4q-7.75-1.5-13.25 7.5-4.8 1.9-8.1 5.2-1.3.85-2.65 1.9L4.6 39.6q-2.75-8.05 1.1-16.65H2.3l1.35-1.75 1.7-.55L9.3 15.8l-2.2 5.75 4.85-5.75m29.6-10 5.2-2.15-7.15 6.95-9.8 4.4q-4.5 1.1-8.95-.45L19.1 12.9h4.7l15.8-5.5 1.95-1.6M40 8.35l-6.9 2.6-5.7 1.5 5.85-.75L40 8.35" fill="#834147"/><path d="m38.65 16.3 1.9.1-9.35 7.55h-6.35L19 31.25q-4.4 1.1-8.85 4 3.3-3.3 8.1-5.2 5.5-9 13.25-7.5l6.15-5.4 1-.85m8.1-12.65L49.2 2.5 39.25 12l-9.45 3 9.8-4.4 7.15-6.95" fill="#b5c9ea"/></g><g id="t" fill-rule="evenodd"><path d="m118.55 0-5.9 10.15 6.3-1.05-4.95 4.1-4.85 2.55-6.95 19.35q-4.8 2.55-9.35 5.7-4.55 3.15-8.8 6.95l-1.5 16.85q2.65 4.25 3.9 8.5l.05.05q2.55 8.55-.35 17.05l-1.2 19.7-.1.05-14.2-21.35-.55-4.25-1 4.55q-6.35 5.95-6.95 12.6-5.65 5.65-7.4 11.6-5-14.7-2.8-32.25L49.45 79v.25q-11.55-.2-12.65 15-4 1.85-5.25 4.45l-14.1 8.35 6.45-21.1-1.1-8.35-5.35 1.4-3.95 8.2L0 92.7q5.95-6.1 3-16.2l.7-11.3 9.8-8.6q5 3.2 10.3 3.35L33.9 43.3l16.25-13.85 1.8 4.75 5.95-7.05 2.75-1.8 8.45-2.45v5.35h3.25l5.15-5.15 8.55-4.25-3.2 11q-4.6 1.6-4.95 3.95l5.75-2.7q12.1-7.15 22.55-20.65l4.95-3.3 7.4-7.15M68 30v-5.8l-.75.3-8.65 3.55-7.15 7.9-.85-1.85-1.15-2.6-4.5 3.75-5.2 8.35-5.25 4.05-1.3 2.3q8.75-7.05 3.7 1-1 2.25-2.25 3.45-1.2 1.2-2.6 1.5l.3-.9q3.05-.8 3.65-4.45 4.1-5.2-4.25.8l2.45-4.65 1.7-1.3 3.05-2.3 3.4-5.7-6.1 5.05-1.35 1.15-9.15 15.95-.55 1-1.4.05q-5.9.1-10-2.5l-8.35 7.6-.8 9.75.8 3.95q.9 6.5-2.45 10.7l1.65-.7 2.65-1.05 4.4-1.85 1.3-.55 3.15-7.75 6.65-2.1-.4-1.55-.7-2.7L31 62.3l1 .4q8.75 3.25 16-.75l.15.15q-5.15 6.45-16.5 1.45L24.1 71.8l-.7.75 1.1 8.55.3 2.4.3 2.55-5.35 18.1L30.9 96.9l1.2-.9 3.4-2.35q3-16.85 13.8-15.15l.25.05v-.05q1.35.25 2.9.8l.2-2.2.4-3.95 8.4-10.75 2-2.55 1.4 1.3 6.55 6.05v4.25q.55-3.85 3.15-7.35l.05-.05q1.3-1.75 3.1-3.35l-3.95-8.15 4.05 4.2 2 2.05-.35 2.9 1.35 1.35L83 46.3l18.6-12.7 5.8-17.65.55-1.7 6.65-3.05-5.55.8L113 6.95l-5.95 4.65Q95.8 27.1 79.3 34.6l-1.9 2.35-.95 1.1q-1.75-5.8 4.45-9l2.85-7.55-5.35 2.6-.4.1-5.25 5.35L68 30m6.75 1.5q-8.5 12.3-13 27.55-4.45 1.8-7.75 4.5-5 4.05-7.3 10.2.55-2.15 1.4-4.05 1-2.2 2.45-4 1.05-1.35 2.35-2.55 3.35-2.95 8.25-4.5 5.2-19 13.6-27.15m-42.2 35.1.75.25q-1.4 6.95-6.5 10.55l2.8-4.45v-.05l1.2-2.25q-.1-3.2-2.15.6-3.25 4.95.5 2.15-4.8 5.2-1.4-2.65 3.95-4.5 3.5-1.05l1.3-3.1M17.7 64.65q-3.95 3.25-4.5 8l-.15.35q-1.45-5.7 5.5-9.65l-.85 1.3M31.6 79.3q-.1 4.5-1.95 8.1 1.45-4.15 1.25-8.25l-.55-3.65 3.5-5.25q6.7 1.6 13.65.1l-.95.85q-6.1 1.65-11.95.25l-3.25 3.65.25 4.2m33.15-16.6-1.1-1.05-9.6 11.7-.8 6.05q-1.05 9.8-.5 18.7l.2 2.7 2 8.15 1.8-2.3 3.85-5.05.15-.55q1.95-6.9 7.45-13.25 2.65-8.35 2-20l-3.8-3.55-1.65-1.55m14.4.15-.95-1q-1.8.9-3.05 2.65-1.95 2.6-2.8 7.1l-.15.8q-1.05 6.2-.1 15.8l3.3 5.1 8 12.45.25-2.4 1.4-13.65q2.8-8.85.5-16.3-1.35-4.45-4.55-8.45l-1.85-2.1M56.7 104.3v-.35q3.95-9.15 6.25-19.1 1.25-2.35-.7-4.75-1.45-5.75 1.2-12.6-2.5 6.9-.1 11.9 2.25 2.45.9 5.25l-.3 1.5q-2.55 11-7.25 18.15M65 68.95l.1-.1 2 .1q.35 11.4-1.65 11.05-1.4-1.1-.4-6.65l.6 4.65q1.6-5 0-8.25-1.55 1.95-2.3 6.35-.7-4.7 1.65-7.15M5.25 88.3Q8.4 82.4 8.7 74.15l.6 1.25q-.15 8-4.05 12.9M56.9 99.6q2.85-11.85.7-20.6 4.1 9.35-.7 20.6m44.7-72.05q-1.05-2.85-1.35-.75-.25 1.4-.1 4.95l-.6 1.25.15.15-.65.45.3-4.15.1-.8.15-1.9q.5-3.5 1.55-1.85l1 2.45-.55.2m-23.95 18.4.05-.1 1 .75 2.45 1.8-.2 1.55-3.3-4m2.9 7.1-.2 1.7-1-2-1.95-3.9 3.15 4.2m-4.2 29.5q1.8-5-.5-11.8 2.75 4.2 2.05 10.4-.4 7.95.9 13.9-2.25-4.35-2.45-12.5m3.05-6.05q1.1-3.4-1.2-7.55 2.55 1.9 2 7.75-1.1 5.7.4 10.8 1.85 6.95.5 12.1.8-4.6-1-12.3-2.15-4.9-.7-10.8" fill="#592613"/><path d="m67.25 24.5.75-.3V30q-6.1 8.65-8.5 20.35l-.4-.1-8.65 8.6 7.05-9.3 9.75-25.05m9.2 13.55.95-1.1.25 8.85-.25-.2.25.35 3.3 4-.4 3.1-3.15-4.2 1.95 3.9-1.55 4-4.05-4.2 3.95 8.15q-1.8 1.6-3.1 3.35l-.05.05q-2.6 3.5-3.15 7.35V67.2l-6.55-6.05 3.8-3.3 5.95-21.6q.5 1 1.85 1.8m-15 24.35-8.4 10.75-.4 3.95-8.25-2.2.4 1.1-12.7 8.65 3.8-.9-3.35 11.8-.45.45-1.2.9q2.3-4.25-.65-7.5l-2.95 4.05q1.95-3.8.45-10v3.75l-2.95-3.7-.3-2.4.2-5.5 2.1 1.8q2.2 1.3 4.1 1.75.2 4.1-1.25 8.25 1.85-3.6 1.95-8.1 5.45.85 8.45-5.75 3.7-.1 6.5-2.35l.95-.85.6-.65q-.85 1.9-1.4 4.05 2.75-2 4.7-5.05l1.65 4.45 4.05-8.9 4.35-1.85M24.1 71.8l7.55-8.25q11.35 5 16.5-1.45l.1-.15.05-.05.1-.15 5.15-1.5-.65 2.9q-1.3 1.2-2.35 2.55 1.2-3.3-3.25-2.1-5.25 6.05-14 3.25l-.75-.25-.65-.25-7.8 5.45M48 61.95q-7.25 4-16 .75l-1-.4-9.3 9.55.7 2.7q-5.55.95-8.4 5.65v-6.65L11.6 77l1.45-4 .15-.35q.55-4.75 4.5-8-3.15 5-3.3 7.5 4-1.9 5.25-8.9 4.15.8 5.55-2.7l.55-1 2.4 1.6 4.2-6.15-.3.9-1.9 5.35.3.3h10.6l10-6.75-3.25 6.75.2.4M7.3 88.35 4.65 89.4l.6-1.1q3.9-4.9 4.05-12.9 2.35 6.15-2 12.95M74.35 34.9l-5.75 10-5.05 14.05-10.1 6 .55-1.4q3.3-2.7 7.75-4.5 4.5-15.25 13-27.55v-.05q2.6-2.5 5.55-4l-.2.3q-5.55 4.3-5.75 7.15M66.4 64.25l3.8 3.55-2.8 18.7q-5.9 6.7-6.65 14.55l-.15.55-3.85 5.05-.05-2.35q4.7-7.15 7.25-18.15L67 80.4q3.5-8.1-.6-16.15m5.8 8.15q.8 13.35 3.2 20.9l-3.3-5.1q-.95-9.6.1-15.8m10.9 27.05L81.2 80l2.05 4.95q.55-9.45-4.1-19.85v-2.25l1.85 2.1q5.2 11.95 3.75 20.3-2.1 7.85-1.65 14.2m17.05-67.7q-.15-3.55.1-4.95.3-2.1 1.35.75l.2.55-1.65 3.65m2-4.4-1-2.45 4.95-6.1-3.95 8.55m-2.7 1.3-.1.8-.3 4.15L81.5 45.5l-.35 2.9-2.45-1.8 1.1-3.7 11-8.4-6.75 7.65q7.75-4.4 15.4-13.5" fill="#ca844a"/><path d="m68 30 4.75-.45L78 24.2l.4-.1 5.35-2.6-3.45 5.95q-2.95 1.5-5.55 4v.05q-8.4 8.15-13.6 27.15-4.9 1.55-8.25 4.5l.65-2.9-5.15 1.5-.05.05-.1.05h-.05l-.15.1H48l-.2-.4 3.25-6.75-10 6.75h-10.6l-.3-.3 1.9-5.35q1.4-.3 2.6-1.5-1.3 3.85-2.6 6.05 2.85-1.9 5.3-4.2Q47.65 54.7 56.4 41.4q9.25-13.5 2.65-9.95l-.1.05-.05.05Q52.4 40.9 45.25 46.5q3.3-5.55 5.35-12.4l.85 1.85 7.15-7.9 8.65-3.55-9.75 25.05-7.05 9.3 8.65-8.6.4.1Q61.9 38.65 68 30m9.4 6.95 1.9-2.35q16.5-7.5 27.75-23L113 6.95 109.05 12l5.55-.8-6.65 3.05-.55 1.7-1.3 2.85-4.95 6.1q-1.05-1.65-1.55 1.85l-.15 1.9q-7.65 9.1-15.4 13.5l6.75-7.65-11 8.4-1.1 3.7-1-.75-.05-.05-.25-8.85m-12.55 24.2-1.4-1.3-2 2.55-4.35 1.85-4.05 8.9-1.65-4.45 2.05-3.75 10.1-6L68.6 44.9l5.75-10q-.05.75.25 1.35l-5.95 21.6-3.8 3.3M30.9 96.9l-11.15 7.25 5.35-18.1-.3-2.55 2.95 3.7v-3.75q1.5 6.2-.45 10l2.95-4.05q2.95 3.25.65 7.5m-6.4-15.8-1.1-8.55.7-.75 7.8-5.45.65.25-1.3 3.1q.45-3.45-3.5 1.05-3.4 7.85 1.4 2.65-3.75 2.8-.5-2.15 2.05-3.8 2.15-.6l-1.2 2.25v.05l-2.8 4.45q5.1-3.6 6.5-10.55 8.75 2.8 14-3.25 4.45-1.2 3.25 2.1-1.45 1.8-2.45 4l-.6.65q-6.95 1.5-13.65-.1l-3.5 5.25.55 3.65q-1.9-.45-4.1-1.75l-2.1-1.8-.2 5.5m-12.8 5.4-4.4 1.85q4.35-6.8 2-12.95l-.6-1.25Q8.4 82.4 5.25 88.3l-.6 1.1-1.65.7q3.35-4.2 2.45-10.7L7.3 67.2l6.5-9.1q4.1 2.6 10 2.5l1.4-.05q-1.4 3.5-5.55 2.7-1.25 7-5.25 8.9.15-2.5 3.3-7.5l.85-1.3Q11.6 67.3 13.05 73l-1.45 4 2.4-3.45v6.65q-1.55 2.6-2.3 6.3m14.05-26.95L34.9 43.6l1.35-1.15-.35 2.95-1.7 1.3-2.45 4.65q8.35-6 4.25-.8-.6 3.65-3.65 4.45l-4.2 6.15-2.4-1.6M31.6 79.3l-.25-4.2 3.25-3.65q5.85 1.4 11.95-.25-2.8 2.25-6.5 2.35-3 6.6-8.45 5.75m33.15-16.6 1.65 1.55q4.1 8.05.6 16.15l-3.05 5.75.3-1.5q1.35-2.8-.9-5.25-2.4-5 .1-11.9-2.65 6.85-1.2 12.6 1.95 2.4.7 4.75-2.3 9.95-6.25 19.1v.35l.05 2.35-1.8 2.3-2-8.15-.2-2.7q1.9-24.85 12-35.4m7.45 9.7.15-.8q.85-4.5 2.8-7.1 1.25-1.75 3.05-2.65l.95 1v2.25q4.65 10.4 4.1 19.85L81.2 80l1.9 19.45.05.65.5 3.25-.25 2.4-8-12.45q-2.4-7.55-3.2-20.9M65 68.95q-2.35 2.45-1.65 7.15.75-4.4 2.3-6.35 1.6 3.25 0 8.25l-.6-4.65q-1 5.55.4 6.65 2 .35 1.65-11.05l-2-.1-.1.1M56.9 99.6q4.8-11.25.7-20.6 2.15 8.75-.7 20.6m22.5-23.1q-1.45 5.9.7 10.8 1.8 7.7 1 12.3 1.35-5.15-.5-12.1-1.5-5.1-.4-10.8.55-5.85-2-7.75 2.3 4.15 1.2 7.55m-3.05 6.05q.2 8.15 2.45 12.5-1.3-5.95-.9-13.9.7-6.2-2.05-10.4 2.3 6.8.5 11.8" fill="#fed784"/><path d="m5.45 79.4-.8-3.95.8-9.75 8.35-7.6-6.5 9.1-1.85 12.2m30.8-36.95 6.1-5.05-3.4 5.7-3.05 2.3.35-2.95m-1.6 11.95q1.25-1.2 2.25-3.45 5.05-8.05-3.7-1l1.3-2.3 5.25-4.05 5.2-8.35 4.5-3.75 1.15 2.6q-2.05 6.85-5.35 12.4 7.15-5.6 13.65-14.95l.05-.05.1-.05q6.6-3.55-2.65 9.95-8.75 13.3-19.05 14.85-2.45 2.3-5.3 4.2 1.3-2.2 2.6-6.05m18.1 43.7q-.55-8.9.5-18.7l.8-6.05 9.6-11.7 1.1 1.05q-10.1 10.55-12 35.4" fill="#ffe9bd"/><path d="m83.75 21.5-2.85 7.55q-6.2 3.2-4.45 9-1.35-.8-1.85-1.8-.3-.6-.25-1.35.2-2.85 5.75-7.15l.2-.3 3.45-5.95m23.65-5.55-5.8 17.65L83 46.3l-2.2 16.75-1.35-1.35.35-2.9.55-4.05.2-1.7.4-3.1.2-1.55.35-2.9 17.55-11.9.65-.45-.15-.15.6-1.25 1.65-3.65.35-.75 3.95-8.55 1.3-2.85M49.3 78.5q-10.8-1.7-13.8 15.15L32.1 96l.45-.45 1.85-2Q38.2 74.6 49.3 78.5m-26.9-3.95.4 1.55-6.65 2.1L13 85.95l-1.3.55q.75-3.7 2.3-6.3 2.85-4.7 8.4-5.65m47.8-6.75q.65 11.65-2 20-5.5 6.35-7.45 13.25.75-7.85 6.65-14.55l2.8-18.7m13.45 35.55-.5-3.25-.05-.65q-.45-6.35 1.65-14.2Q86.2 76.9 81 64.95q3.2 4 4.55 8.45 2.3 7.45-.5 16.3l-1.4 13.65" fill="#b5c9ea"/><path d="m79.8 58.8-2-2.05 1.55-4 1 2-.55 4.05M52.65 77.1l-.2 2.2q-1.55-.55-2.9-.8h-.25q-11.1-3.9-14.9 15.05l-1.85 2 3.35-11.8-3.8.9L44.8 76l-.4-1.1 8.25 2.2M54 63.55l-.55 1.4-2.05 3.75q-1.95 3.05-4.7 5.05Q49 67.6 54 63.55" fill="#8f5633"/></g><use ffdec:characterId="2" height="91.85" width="121.9" xlink:href="#l" id="c"/><use ffdec:characterId="4" height="115.45" width="143.45" xlink:href="#m" id="d"/><use ffdec:characterId="6" height="52.45" width="35.05" xlink:href="#n" id="e"/><use ffdec:characterId="8" height="132.6" width="106.15" xlink:href="#o" id="f"/><use ffdec:characterId="10" height="106.6" width="75.35" xlink:href="#p" id="g"/><use ffdec:characterId="12" height="88.45" width="76.65" xlink:href="#q" id="h"/><use ffdec:characterId="14" height="121.35" width="118.75" xlink:href="#r" id="i"/><use ffdec:characterId="20" height="91.3" width="58.1" xlink:href="#s" id="j"/><use ffdec:characterId="22" height="113.1" width="118.95" xlink:href="#t" id="k"/><path d="M27.75 0q0 2-8.15 3.4Q11.5 4.9 0 4.9q-11.5 0-19.65-1.5-8.1-1.4-8.1-3.4 0-2.05 8.1-3.5Q-11.5-4.9 0-4.9q11.5 0 19.6 1.4 8.15 1.45 8.15 3.5" fill-opacity=".349" fill-rule="evenodd" transform="translate(27.75 4.9)" id="b"/></defs></svg>