<svg xmlns:ffdec="https://www.free-decompiler.com/flash" xmlns:xlink="http://www.w3.org/1999/xlink" ffdec:objectType="frame" height="90" width="90" xmlns="http://www.w3.org/2000/svg"><use ffdec:characterId="32" height="63.3" transform="translate(-.7 12.45)" width="90.25" xlink:href="#a"/><defs><g id="a" transform="translate(.7 -12.45)"><use ffdec:characterId="2" height="34.45" transform="translate(40.8 65.25) scale(.3046)" width="101.4" xlink:href="#b"/><use ffdec:characterId="4" height="167.7" transform="translate(52.8 49.85) scale(.1478)" width="117.25" xlink:href="#c"/><use ffdec:characterId="6" height="178.8" transform="translate(32.65 33.75) scale(.1478)" width="128.25" xlink:href="#d"/><use ffdec:characterId="8" height="249.05" transform="translate(1.4 29.05) scale(.1478)" width="293" xlink:href="#e"/><use ffdec:characterId="10" height="137.85" transform="translate(41.4 51.05) scale(.1478)" width="90" xlink:href="#f"/><use ffdec:characterId="12" height="191.25" transform="translate(42.75 31.3) scale(.1478)" width="158.25" xlink:href="#g"/><use ffdec:characterId="18" height="209.7" transform="translate(35 12.75) scale(.1478)" width="220.15" xlink:href="#h"/><use ffdec:characterId="20" height="251.6" transform="translate(64.55 33.45) scale(.1478)" width="150.05" xlink:href="#i"/><use ffdec:characterId="22" height="141.8" transform="translate(54.05 24.1) scale(.1478)" width="171.9" xlink:href="#j"/><use ffdec:characterId="31" height="118.4" transform="translate(25.55 29.1) scale(.1478)" width="427.7" xlink:href="#k"/></g><g id="q" fill-rule="evenodd"><path d="m46.35.25 5.3-.25 1.3 1.6 3.5 4.55 3.3 4.7 2.9 4.85 2.55 5.05 2.15 5.3 1.65 5.4 1.35 5.65.9 5.2.75 6.85q.25 3.65.05 7.4-.2 3.55-.8 7.1 5.75-.9 11.45-9.35 5.65 9 6.95 25.15l2.05-5.75q2.45 15.55 5.95 27 2.5 8.35 5.55 14.5v.05l.1.2 5.55 5.6-3.15.5-5.45-6.75-3.5 8.15-2.05.3.1-.75q.5-3 3.55-6.95l-1.3-3.3q-2.1-5.45-3.6-11.55-2.2-8.45-3.4-18.2l-2.75 4-1.1 1.6-1-7.8-2.7-20.1q-2.2 4-5 5.7l-.45.25q-3.75 2-8.5.05l-1.15-7.7q1.1-9.5 0-19.1-1.35-11.3-7.7-20.75-6.35-9.5-13.35-18.4M84.7 161.2q-30.75 5.15-50.8-3.15l-.05-.25q-3.15-16.15 12.25-40.9 11.75-.55 15.5 4.15l-.3 1.5v1.2l-11.15-3.35-2.5-.75q-8.1 19.85-10.55 36.2v.05q21.45 3.75 45.95 2.2.4 1.9.2.4l-.05-.15q.6 1.5 1.5 2.85m-22.55-45q.55-7.55-.85-15.5l1.6-2.25q3.3 5.6 2.7 17.25l-3.45.5m-33-25.4v.05Q4 73.45 0 20.9l2.25-2.45Q8.9 73.2 28.5 87.9l.65 2.9" fill="#381a0e"/><path d="m30.85 61.85-2.3-10 11.05 14-8.75-4M82.6 156.4l.25.9.25.8h-.05q-24.5 1.55-45.95-2.2v-.05q2.45-16.35 10.55-36.2l2.5.75 1.5 3.1-.1.2-1.65 5q-3.45 11.2-5.3 23.5 8.35 3.05 21.2 3.65 7.55.35 16.65-.1l.15.65" fill="#ca926d"/><path d="m108.85 121.05 7.8-1.2q3.05 12.35-9.6 22.05 3.9 4.35 3.9 10.45 0 6.4-4.25 10.85-4.2 4.5-10.15 4.5-6 0-10.25-4.5l-1.6-2q-.9-1.35-1.5-2.85l.05.15q.2 1.5-.2-.4h.05l-.25-.8-.25-.9.05-.05-.35-1.55-1.6-3.55-.45-.85q-7.05-14.15-18.95-26.45v-1.4l.3-1.5.55-4.85 3.45-.5q2.5-.05 5.05.85 4.45 1.7 8.55 3.85l.1.05q4.25 2.35 7.9 5.65l4.55 4.05 2.7-6.85.25-.05 2.05-.3 8.95-1.4 3.15-.5M61.3 100.7h-.05l-5.95 8.2q-6.3-3.5-13.05-8.2l-12.3-9.25-.6-.45-.2-.2-.65-2.9-5.55-24.25L39 74.1l27.15-24.15 1.25 8.55 1.15 7.7.75 4.9 2.3 15.45-8.35 11.4-.35.5-1.6 2.25M41.45 85.45l-2.25-8-13.45-9.65.9 3.65 4.05 16.2 2.45.75 10.05 3.05 1.95.6.25.05 10.3 14.05 3.15-5.15.05-.05 10-16.25-1.85-12.8-1.6-11.25-.85-6.05.6-.8-.65.6-24.25 21 .05.1.1.7L42 86.25l-.3.1-.25-.9m23.2-11.8.6-.45 1.8-1.3-1.65 1.85-.55.55-2.65 2.65q-6.95 6.65-15.1 12l-.85.2.7-.7 9.25-8.15 3.85-3.15 4.6-3.5M43.4 92.2l-.1-.45-.15.4-5.3-1.3-6.55-1.65 20.8 15.25-6.55-11.7-2.15-.55m53.4 33.15-.15.05.1.1-3.2 7.25 1.9 4.35.1.25.15-.25.85-.05q3.1 0 5.7 1.2l1.8 1 7.55-5.45.85-10.9-15.65 2.45m-13.05 2.7.55.2q.75.35.75 1l-.35 1.7q-.55 1.4-1.95 3-2.55 2.85-5.4 2.85-1.6 0-1.6-1.7 0-.9.35-1.7l.1-.2q.55-1.3 2.05-2.5 1.35-1.1 3.1-1.8l.9-.35 1.5-.5m8.5 9.65.95-.25q-2.6-4.85-6.8-8.6-3.8-3.35-8.1-6-2.6-1.6-5.35-2.8-.6 2.1-2.05 3.65l-1.45 1.25q-1.65 1.2-3.45 1.1 0-2.05.85-3.55.95-1.85 3.05-3 .4-.2.85-.35-2.6-.8-5.3-1.05-.1 1.75-1 3.35l-1.55 2.15.9.75 2.2 1.9 1.3 1.2.25.25q2.2 2.15 4.1 4.65l.3.4.05.05q3.45 4.5 6.05 9.45 2.65 5.15 4.1 10.75v-.65q0-6.35 4.15-10.85 2.65-2.75 5.95-3.8m-9.7-8.1q-2.15 1.2-3.15 1.9-1.85 1.3-2.35 2.8v.65h.8q2.05-.9 3.5-2.35 1.6-1.65 1.45-3.1l-.25.1m7.85 11.3q-1.3.85-2.4 2.2l-1.3 1.95-.05.1q-1.4 2.5-1.6 5.65l-.05 1.25q0 5.25 3 8.95 2.95 3.6 7.1 3.7l.2.1.05-.1q4.3 0 7.3-3.7 2.8-3.4 3.05-8.15v-.8q0-5.25-3.05-8.95l-.95-1.05-.1-.05q-2.65-2.6-6.25-2.6-2.75 0-4.95 1.5m5.45 5 .95-.15 1.55.75 1.5 1.15.15.2q2.55 2.6 1.25 6.45-.6 1.75-2.05 2.6-4.7 2.8-7.55-1.65-.6-1-.65-2.15 0-.95.15-1.8l.05-.15.15-.55q.8-2.85 3.95-4.4l.55-.3m.75 1.85h-.05l-.1.05-.3.1q-.9.55-1.45 1.1l-.85.9q-.65 1-.75 2.35l-.05.55q0 2.9 2.75 2.9 1.9 0 2.7-1.4.6-1.1.6-3.3l-.15-1.45q-.45-1.8-2.2-1.8h-.15m-26-25.3q1.1-.8.9-2.15-2.2.85-3.4 2.75l-.25.4-.6 1.1 2.65-1.6.7-.5" fill="#7a340c"/><path d="m30.85 61.85 8.75 4-11.05-14-1.6-2.1L20.3 57l10.55 4.85M51.1 56.1l-9.4 13.85-26.25-10.1 12.4-13.7 11.4 13.6L51.1 56.1m30.3 60.05-11.5-4.5v-.05l6.5-24.5 13.35 22.4q-5.35 2.1-8.35 6.65m-15.6 39.7q-12.85-.6-21.2-3.65 1.85-12.3 5.3-23.5 3.4 3.3 5.95 7.4l5.9 9.95q2.6 4.65 4.05 9.8M51.65 123.5l-1.5-3.1 11.15 3.35v.2q11.9 12.3 18.95 26.45l-2.1-2.15q-3.4-3.5-6.3-7.25-2.9-3.85-6.25-7.1-3.5-3.5-7.3-6.55-3.05-2.4-6.65-3.85" fill="#7f594a"/><path d="m80.25 150.4.45.85 1.6 3.55.15.95q-9.1.45-16.65.1-1.45-5.15-4.05-9.8l-5.9-9.95q-2.55-4.1-5.95-7.4l1.65-5 .1-.2q3.6 1.45 6.65 3.85 3.8 3.05 7.3 6.55 3.35 3.25 6.25 7.1 2.9 3.75 6.3 7.25l2.1 2.15" fill="#64473a"/><path d="m65.45 60.65 1.6 11.25 1.85 12.8-10 16.25-3.6-2.9 11.35-13.6.95-.45-.3-.35.35-.4-.05-.15-2.2-9.35 1.65-1.85-1.8 1.3-.6.45-1.55-5.05q1.3-3.5 2.35-7.95M33.15 88.4l-2.45-.75-4.05-16.2 4.65 4.4.35 2.25 1.4 9.45.1.85M47.3 81l3.6.5-3.95 6.95-.7.7-.85.8L47.3 81m-4.15 11.15.25.05 2.15.55 6.55 11.7L31.3 89.2l6.55 1.65 6.3 5.05-1-3.75m52.3 44.95-1.9-4.35 3.2-7.25 3.05 3.15-.1.2-4 8.25h-.25M70.9 123.7l2.8 1.25-2 1.45q-1.65.95-3.4 1.3h-.75l-.25-.25-1.3-1.2-2.2-1.9-.9-.75 1.55-2.15q.9-1.6 1-3.35 2.7.25 5.3 1.05-.45.15-.85.35-2.1 1.15-3.05 3-.85 1.5-.85 3.55 1.8.1 3.45-1.1l1.45-1.25m24.2 41q-4.15-.1-7.1-3.7-3-3.7-3-8.95l.05-1.25.45.25 1.55.65q.9.1 1.85-.4l1.2-1 .3-.35q.35.4.95.65l-.15.55-.05.15q-1.35.35-1.85 1.25t-.5 3.3q0 6.1 6.3 8.85" fill="#fdef3a"/><path d="m28.55 51.85 2.3 10L20.3 57l6.65-7.25 1.6 2.1m-1.9 19.6-.9-3.65 13.45 9.65 2.25 8-10.15-9.6-4.65-4.4M42 86.25 40.45 76.2 42 77.85q2.15 2 4.95 3l.35.15-1.9 8.95-.35.3.35-.2h.05l9.85 8 3.6 2.9-.05.05-3.15 5.15L45.4 92.1l-1.05-1.45.8 1.4-1.95-.6-.8-2.8-.4-2.4m42.7 44.7.35-1.7q0-.65-.75-1l-.55-.2-.75-.1q-.2 0-.75.6l-.9.35-2.7-1.5-4.95-2.45-2.8-1.25q1.45-1.55 2.05-3.65 2.75 1.2 5.35 2.8 4.3 2.65 8.1 6 4.2 3.75 6.8 8.6l-.95.25-1.45-1.45-6.1-5.3" fill="#f8ff86"/><path d="m82.55 129.6.25-.1q.15 1.45-1.45 3.1-1.45 1.45-3.5 2.35h-.8v-.65q.5-1.5 2.35-2.8 1-.7 3.15-1.9m-11.95-7.15-.7.5-2.65 1.6.6-1.1.25-.4q1.2-1.9 3.4-2.75.2 1.35-.9 2.15" fill="#84798f"/><path d="m41.45 85.45.25.9-3.5 1.05-6.55-9.3-.35-2.25 10.15 9.6m10.6-5.9 9.4-16.15 1.65 5.2q-2.35 6.15-5.4 9.25l-5.65 1.7m44.7 45.95.05-.15 15.65-2.45-.85 10.9-7.55 5.45-1.8-1 6.85-4.95 1.25-8.2-10.4 3.7-.15-.15-3.05-3.15m-15.4 3.4q-1.75.7-3.1 1.8-1.5 1.2-2.05 2.5l-.1.2-2.95-.5-1.15-.15h-.05l-.3-.4q-1.9-2.5-4.1-4.65h.75q1.75-.35 3.4-1.3l2-1.45 4.95 2.45 2.7 1.5" fill="#ffb526"/><path d="M43.2 91.45 33.15 88.4l-.1-.85 5.15-.15 3.5-1.05.7 2.5v-.2l.8 2.8M63.1 68.6l1.55 5.05-4.6 3.5-2.35.7q3.05-3.1 5.4-9.25m2.3 5.15 2.2 9.35.05.15-.35.4-5.1-6.7 2.65-2.65.55-.55m1.25 10.7L55.3 98.05l-9.85-8 1.65-1.1 19.55-4.5m-28.8 6.4 5.3 1.3 1 3.75-6.3-5.05m64.4 47.4q-2.6-1.2-5.7-1.2l-.85.05 4-8.25.25-.05 10.4-3.7-1.25 8.2-6.85 4.95M76.1 133.4q-.35.8-.35 1.7 0 1.7 1.6 1.7 2.85 0 5.4-2.85 1.4-1.6 1.95-3l6.1 5.3 1.45 1.45q-3.3 1.05-5.95 3.8-4.15 4.5-4.15 10.85v.65q-1.45-5.6-4.1-10.75-2.6-4.95-6.05-9.45v-.05l1.15.15 2.95.5m29.6 19.45q-.25 4.75-3.05 8.15-3 3.7-7.3 3.7h-.25q-6.3-2.75-6.3-8.85 0-2.4.5-3.3.5-.9 1.85-1.25-.15.85-.15 1.8.05 1.15.65 2.15 2.85 4.45 7.55 1.65 1.45-.85 2.05-2.6 1.3-3.85-1.25-6.45l1.15-.9.6-1.1h.05l.8.5.75.75q1.1 1.25 1.7 2.75l.65 3" fill="#da5c00"/><path d="m64.6 54.6.85 6.05Q64.4 65.1 63.1 68.6l-1.65-5.2-9.4 16.15-1.15 1.95-3.6-.5 1.35-6.3L64.6 54.6m25.8 86.3q2.2-1.5 4.95-1.5 3.6 0 6.25 2.6-.45.05-.9.85-.45.8-.45 1.35 0 .3.6.9l.9.75-.6 1.1-1.15.9-.15-.2-1.5-1.15-1.55-.75-.55-.1-.4.25-.55.3q-3.15 1.55-3.95 4.4-.6-.25-.95-.65l-.3.35-1.2 1q-.95.5-1.85.4l-1.55-.65-.45-.25q.2-3.15 1.6-5.65l2.2 3 1.55 1.8.45-.7.6-1 .65-1.5.4-1.7q.05-1-.35-1.85l-.85-1.25-.9-1.05" fill="#fefb66"/><path d="m40.45 76.2-.1-.7-.05-.1 24.25-21 .05.2-15.95 20.1L47.3 81l-.35-.15q-2.8-1-4.95-3l-1.55-1.65m46.2 68.95.05-.1 1.3-1.95q1.1-1.35 2.4-2.2l.9 1.05.85 1.25q.4.85.35 1.85l-.4 1.7-.65 1.5-.6 1-.45.7-1.55-1.8-2.2-3M101.6 142l.1.05.95 1.05q3.05 3.7 3.05 8.95v.8l-.65-3q-.6-1.5-1.7-2.75l-1.6-1.5v.25l-.9-.75q-.6-.6-.6-.9 0-.55.45-1.35t.9-.85" fill="#fdffe1"/><path d="m98.95 149.55.15 1.45q0 2.2-.6 3.3-.8 1.4-2.7 1.4-2.75 0-2.75-2.9l.05-.55h1.5q2.05-.6 3.35-1.55l1-1.15" fill="#5e2471"/><path d="m96.45 147.8.15-.05h.15q1.75 0 2.2 1.8l-1 1.15q-1.3.95-3.35 1.55h-1.5q.1-1.35.75-2.35l.85-.9q.55-.55 1.45-1.1l.3-.1" fill="#82728f"/><path d="m96.75 122.95 3.5-8.15 5.45 6.75-8.95 1.4" fill="#fff"/><path d="m97.05 112.25 1.3 3.3q-3.05 3.95-3.55 6.95l-.35.8-2.7 6.85-4.55-4.05q-3.65-3.3-7.9-5.65.8-2.4 2.1-4.3l7.9 3.05 3.65-4.3-3.2-5.4 1.7-.65 2.4-.65q1.45 2.4 3.2 4.05M69.3 71.1q2 .35 4.15 0 2.9-.45 5.15-1.45Q80.65 76 77.25 83.2q-4.05 8.6-12.3 13.7l-1.7 1.05 8.35-11.4-2.3-15.45" fill="#3f2c24"/><path d="m85.2 80.3 1 7.8 1.1-1.6q2.1 14.35 6.55 21.7l-2.4.65-1.7.65L76.4 87.1l-6.5 24.5v.05l11.5 4.5q-1.3 1.9-2.1 4.3l-.1-.05q-4.1-2.15-8.55-3.85-2.55-.9-5.05-.85.6-11.65-2.7-17.25l.35-.5 1.7-1.05q8.25-5.1 12.3-13.7 3.4-7.2 1.35-13.55l1.35-.7q4.1 5.65 5.25 11.35m4.55 29.2 3.2 5.4-3.65 4.3-7.9-3.05q3-4.55 8.35-6.65" fill="#563c32"/><path d="M77.5 65.9q2.8-1.7 5-5.7l2.7 20.1q-1.15-5.7-5.25-11.35L77.5 65.9m9.8 20.6 2.75-4q1.2 9.75 3.4 18.2 1.5 6.1 3.6 11.55-1.75-1.65-3.2-4.05-4.45-7.35-6.55-21.7" fill="#ffeea0"/><path d="M68.55 66.2q4.75 1.95 8.5-.05l.45-.25 2.45 3.05-1.35.7q-2.25 1-5.15 1.45-2.15.35-4.15 0l-.75-4.9" fill="#b86f4a"/><path d="m33.05 87.55-1.4-9.45 6.55 9.3-5.15.15M50.9 81.5l1.75-.15 3.55-1.05-9.25 8.15 3.95-6.95m11.3-4.55 5.1 6.7-.65.8-19.55 4.5q8.15-5.35 15.1-12" fill="#f78b01"/><path d="m50.9 81.5 1.15-1.95 5.65-1.7 2.35-.7-3.85 3.15-3.55 1.05-1.75.15" fill="#fde202"/><path d="M2.25 18.45q4.5-4.6 10.15-7.9 7.7-4.6 16.4-7.05Q37.3 1.05 46 .25h.35q7 8.9 13.35 18.4 6.35 9.45 7.7 20.75 1.1 9.6 0 19.1l-1.25-8.55L39 74.1 22.95 63.65 28.5 87.9Q8.9 73.2 2.25 18.45M51.1 56.1l-11.85 3.65-11.4-13.6-12.4 13.7 26.25 10.1 9.4-13.85" fill="#5d4236"/></g><g id="r" fill-rule="evenodd"><path d="m41.05 28.8 4.3-3.9q2.2-1.85 4.55-3.65 5.85-4.4 12.7-8.2l2-1.1q2.3-1.25 4.7-2.4 5-2.45 10.45-4.6l3.95 1.1 4.8 1.6q14.7 5.25 24.8 14.15 9.5 8.25 14.95 19.75-6.5 6.25-12 13.3-3.6 4.6-6.75 9.5-4.9 7.5-8.85 15.8l-.65 1.4Q95.65 90.8 92.5 101l-25.55-2.3-3.35-.2-13.8-.65-7.9-.25-6.2-.1-8.2-.1-3.2-.05h-1.2l7.75-21.85h-14.4q1.7-9.85 5.35-18.6l1.05-2.5.6-1.3.85-1.7q2.85-5.7 6.55-10.85l1-1.35.85-1.15.9-1.15 3.7-4.25q1.8-2 3.75-3.85M20.5 157.55 0 160.4l34.2-50 4.05 1.05L8 156.3l16.25-2.3 10.45-1.5 11.85-1.7.05-37.2 2.15.6v39.35l-24.6 3.5-3.65.5M85.95 8.85 81.4 7q-4.7 1.95-9.05 4.05Q64.6 14.85 58 19.1l-1.35.9-1.1.75-.1-.05-.3.35h-.05l-5.25 3.85q-3.25 2.55-6.15 5.25-3.35 3.1-6.25 6.4-2 2.25-3.75 4.6l-.1.1q-4.5 6-7.6 12.6-4 8.35-5.75 17.7 6.45-.1 11.3 1.05l2.05.55q11.1 3.5 12.5 14.55l.2 3.65q1.9-1.35 3.9-2.55l1.85-1.1q6.5-3.7 13.3-5.9 11.3-3.65 23.5-3.1l9.5 1q10.25-22 25.7-38.8l-.05-.1q-4.75-7.25-10.7-13.25-11.45-11.65-27.35-18.7M26 53.85l-.6-.85q.1.55.6.85m30.1 8.85q-2.8-4.05-2.8-9.15 0-6.95 5.1-11.95 2.2-2.05 4.75-3.2 3.5-1.65 7.7-1.65 7.2 0 12.3 4.85 5.2 5 5.2 11.95 0 6.9-5.2 11.8-5.1 5-12.3 5l-4.95-.65q-3.7-1-6.75-3.65l-.75-.7-1.25-1.3-1.05-1.35m6.05 3.15q3.6 2.35 8.1 2.35 6.2 0 10.55-4.45 4.35-4.25 4.45-10.2v-.3q0-6.2-4.45-10.65-4.35-4.35-10.55-4.35-6.15 0-10.6 4.35l-1.1 1.25q-3.25 4.05-3.25 9.4v.3l.05.85q.15 2.65 1.2 4.95l.6 1.15q1 1.75 2.5 3.25l2.5 2.1m16.6 30.65 12.2 1.65Q94 89.2 97.75 81q-4.25-.9-8.9-.9Q78.65 80 66.7 84q-4.65 1.55-9.55 3.7-7.1 3.1-14.7 7.45h1.2l6.9-.1 28.2 1.45m-45.65-15-2.4 6.65-2.8 7.8 3.3-.25 4.75-.25H36l4.25-.2.85-.05 2.85-2.2.55-.4.25-.2q.05-2.5-.4-4.7-1.6-7.5-9.35-11.45l-1.9 5.25" fill="#7a340c"/><path d="M31.55 72.6q-4.85-1.15-11.3-1.05Q22 62.2 26 53.85l1.85 1.35 2.35 1.75.3.25q-.65 1.65-1.2 3.45 3.05 3 3 7.45 0 2.35-.75 4.5m23.8-18.2-.05-.85v-.3q0-5.35 3.25-9.4 2.75.65 3.3 4l.1.8q-.05.95-.5 1.95-.75 1.65-1.8 2.65l-.15.15-.25.15q-1.1.8-2.55.9l-.05-.45.05.45-1.35-.05" fill="#ffffef"/><path d="M26 53.85q3.1-6.6 7.6-12.6l.1-.1q1.75-2.35 3.75-4.6 2.9-3.3 6.25-6.4 2.9-2.7 6.15-5.25l5.25-3.85.05.05q-2.4 1.7-4.6 3.8l-.65.6q-9.5 9.1-16.3 24.15-1.65 3.6-3.1 7.55l-.3-.25-2.35-1.75L26 53.85" fill="#f8ff86"/><path d="m55.15 21.1-3 3.8-2.25 3.2Q39.8 43.15 34.95 63.2l-.3-.7-1.05-2.05-.8-1.05q-1.05-1.25-2.3-2.2 1.45-3.95 3.1-7.55Q40.4 34.6 49.9 25.5l.65-.6q2.2-2.1 4.6-3.8" fill="#ffdb01"/><path d="M50.2 88.8q-2 1.2-3.9 2.55l-.2-3.65q-1.4-11.05-12.5-14.55l-2.05-.55q.75-2.15.75-4.5.05-4.45-3-7.45.55-1.8 1.2-3.45 1.25.95 2.3 2.2l.8 1.05 1.05 2.05.3.7-.5 2q11.3 6.15 14.1 14.8 2.4-3.35 4.1-6.85 2.5-5.1 3.45-10.45l1.05 1.35q-.3 13.5-6.3 23.65l-.65 1.1" fill="#ffdb00"/><path d="m55.55 20.75 1.1-.75 1.35-.9q6.6-4.25 14.35-8.05Q76.7 8.95 81.4 7l4.55 1.85Q69.2 17.3 63.15 38.4q-2.55 1.15-4.75 3.2-5.1 5-5.1 11.95 0 5.1 2.8 9.15-.95 5.35-3.45 10.45-1.7 3.5-4.1 6.85-2.8-8.65-14.1-14.8l.5-2Q39.8 43.15 49.9 28.1l2.25-3.2 3-3.8.4-.35m-5 74.3-6.9.1 7.15-2.55-.25 2.45M43.95 93l-2.85 2.2-.85.05q-1.3-2.3-3.45-4l1.3-7.05q1.95 1.5 3.4 3.5 1.55 2.3 2.45 5.3m-5.1 18.6 4.25 1.1-8.4 39.8-10.45 1.5 14.6-42.4" fill="#f78b01"/><path d="m62.15 65.85-2.5-2.1q-1.5-1.5-2.5-3.25l-.6-1.15q-1.05-2.3-1.2-4.95l1.35.05q1.45-.1 2.55-.9l.25-.15q-.15 4.5.95 8.6.6 2.15 1.7 3.85m-29 23.25 2-6.75q1.6.8 2.95 1.85l-1.3 7.05Q35.2 90 33.15 89.1m5.1 22.35.6.15-14.6 42.4L8 156.3l30.25-44.85" fill="#fdef3a"/><path d="M65.35 81.8q-6.8 2.2-13.3 5.9l-1.85 1.1.65-1.1q6-10.15 6.3-23.65l1.25 1.3.75.7q2.3 8.9 6.2 15.75m1.2-39.35q-1.8 1.8-2.45 4.05-.35 1.2-.35 2.55 0 2.5 1.2 4.5l1.6 2.05q2.9 2.8 6.9 2.8t6.85-2.8l1.7-2.05q1.2-2 1.2-4.5 0-3.85-2.9-6.6-2.85-2.7-6.85-2.7-4 0-6.9 2.7m-8 1.4 1.1-1.25q4.45-4.35 10.6-4.35 6.2 0 10.55 4.35 4.45 4.45 4.45 10.65v.3q-.1 5.95-4.45 10.2-4.35 4.45-10.55 4.45-4.5 0-8.1-2.35-1.1-1.7-1.7-3.85-1.1-4.1-.95-8.6l.15-.15q1.05-1 1.8-2.65.45-1 .5-1.95l-.1-.8q-.55-3.35-3.3-4M66.7 84q4.9 7.7 12.05 12.5l-28.2-1.45.25-2.45-7.15 2.55h-1.2q7.6-4.35 14.7-7.45 4.9-2.15 9.55-3.7m-31.55-1.65-1.55-.65-.5-.2 1.9-5.25q7.75 3.95 9.35 11.45.45 2.2.4 4.7l-.25.2-.55.4q-.9-3-2.45-5.3-1.45-2-3.4-3.5-1.35-1.05-2.95-1.85m7.95 30.35 3.5.9-.05 37.2-11.85 1.7 8.4-39.8" fill="#da5c00"/><path d="m68.75 43.4-.65.55q-2.15 2.2-2.15 5.25 0 2.5 1.4 4.35l.35.45.4.4q2.2 2.2 5.25 2.2t5.2-2.2l.75-.85q1.45-1.9 1.45-4.35 0-3.05-2.2-5.25-2.15-2.15-5.2-2.15-2.6 0-4.6 1.6m-2.2-.95q2.9-2.7 6.9-2.7t6.85 2.7q2.9 2.75 2.9 6.6 0 2.5-1.2 4.5l-1.7 2.05q-2.85 2.8-6.85 2.8-4 0-6.9-2.8l-1.6-2.05q-1.2-2-1.2-4.5 0-1.35.35-2.55.65-2.25 2.45-4.05" fill="#6c0d0b"/><path d="M68.75 43.4q2-1.6 4.6-1.6 3.05 0 5.2 2.15 2.2 2.2 2.2 5.25 0 2.45-1.45 4.35l-.75.85q-2.15 2.2-5.2 2.2-3.05 0-5.25-2.2l-.4-.4.5-.45 1.1-1.6q1.9-4.45-.55-8.55" fill="#b0112f"/><path d="m67.7 54-.35-.45q-1.4-1.85-1.4-4.35 0-3.05 2.15-5.25l.65-.55q2.45 4.1.55 8.55l-1.1 1.6-.5.45" fill="#e8234f"/><path d="m40.25 95.25-4.25.2.8-4.2q2.15 1.7 3.45 4" fill="#fde202"/><path d="m30.7 88.15 2.4-6.65.5.2 1.55.65-2 6.75q-1.15-.55-2.45-.95m5.3 7.3h-.05l-4.75.25 1.95-6.6q2.05.9 3.65 2.15l-.8 4.2" fill="#fefb66"/><path d="M30.7 88.15q1.3.4 2.45.95l-1.95 6.6-3.3.25 2.8-7.8" fill="#fdffe1"/><path d="M85.95 8.85q15.9 7.05 27.35 18.7 5.95 6 10.7 13.25l.05.1q-15.45 16.8-25.7 38.8l-9.5-1q-12.2-.55-23.5 3.1-3.9-6.85-6.2-15.75 3.05 2.65 6.75 3.65l4.95.65q7.2 0 12.3-5 5.2-4.9 5.2-11.8 0-6.95-5.2-11.95-5.1-4.85-12.3-4.85-4.2 0-7.7 1.65 6.05-21.1 22.8-29.55M66.7 84q11.95-4 22.15-3.9 4.65 0 8.9.9-3.75 8.2-6.8 17.15l-12.2-1.65Q71.6 91.7 66.7 84" fill="#db4700"/><path d="M64.6 11.95Q50.85 4.55 11.25 2.7l20.6 36.5-1 1.35-6 1.8L19.1 44l-5.2 1.55 9.2 7.3-.25 1.55-1.05 2.5-14-11.8 19.3-7.6L7.8.15q38.55-1.35 61.5 9.4-2.4 1.15-4.7 2.4m51.65 42.9Q108.15 79.9 100.4 102q-10.85 31-21 56.15l-4.45 4-9.1 6.55q-6.5 4.45-10.7 6.4-7.9 3.7-15.35 3.7-7.65 0-12.9-2.85-7-3.85-7-11.85 0-1.9.6-4.55v-2l3.65-.5q-.55.95-.75 2l-.1 3.5q0 5.65 5.2 9 4.75 3.05 11.95 3.05 10.95 0 22.35-7.3 7.15-4.55 12.2-10.15 7.9-18.25 16.25-40.5l5.5-15.15Q103 84.05 109.5 64.35q3.15-4.9 6.75-9.5" fill="#381a0e"/><path d="M62.6 13.05q-9.45-4.3-39.1-5.2l.6 1.95 5.65 18.45 2.95 9.8-.85 1.15-20.6-36.5q39.6 1.85 53.35 9.25l-2 1.1m-39.5 39.8-9.2-7.3L19.1 44l4.45 6.3.75 1.1-.85 1.7-.35-.25" fill="#f4d169"/><path d="m24.1 9.8 12.6 4.65.45 13.75q-3.1-.25-7.4.05L24.1 9.8m-5 34.2 5.75-1.65-1.3 7.95L19.1 44m33.1 93.4 12.6-20.8 4.05 5.65-16.65 28V137.4" fill="#ca926d"/><path d="m37.15 28.2 3.9.6q-1.95 1.85-3.75 3.85l-.15-4.45m-12.3 14.15 6-1.8q-3.7 5.15-6.55 10.85l-.75-1.1 1.3-7.95" fill="#462823"/><path d="m24.1 9.8-.6-1.95q29.65.9 39.1 5.2-6.85 3.8-12.7 8.2-2.35 1.8-4.55 3.65l-4.3 3.9-3.9-.6-.45-13.75L24.1 9.8m24.65 106.5 15.2-6.9 8.95 1.7 2.65 23.35L48.75 157v-40.7m16.05.3-1.3-1.8-11.3 5.05v30.4l16.65-28-4.05-5.65" fill="#7f594a"/><path d="m32.7 38.05-2.95-9.8q4.3-.3 7.4-.05l.15 4.45-3.7 4.25-.9 1.15" fill="#b86f4a"/><path d="m34.2 110.4-12.45-3.25 2.55-9.8 3.2.05-2.1 6.75 23.1 7.3.9-1.15q6.8-8.8 14.2-11.8l3.35.2q-9.6 3.95-15.9 12.2l-2.1 2.95-.2.35-2.15-.6-3.5-.9-4.25-1.1-.6-.15-4.05-1.05" fill="#31123b"/><path d="m49.4 110.3-.9 1.15-23.1-7.3 2.1-6.75 8.2.1-.5 3.4q4.35 1.85 7.55 3.75l2.15 1.4q2.95 2.05 4.5 4.25" fill="#85808f"/><path d="M42.75 104.65q-3.2-1.9-7.55-3.75l.5-3.4 6.2.1.85 7.05" fill="#7f5c8f"/><path d="m44.9 106.05-2.15-1.4-.85-7.05 7.9.25q-1.6 6.65-4.9 8.2" fill="#723786"/><path d="M49.4 110.3q-1.55-2.2-4.5-4.25 3.3-1.55 4.9-8.2l13.8.65q-7.4 3-14.2 11.8" fill="#5e2471"/><path d="M66.95 98.7 92.5 101q3.15-10.2 7.5-19.45l.65-1.4q3.95-8.3 8.85-15.8-6.5 19.7-12.75 37.15l-5.5 15.15q-10.3-15.9-40.2-5.75 6.3-8.25 15.9-12.2" fill="#3f2c24"/><path d="M91.25 116.65Q82.9 138.9 75 157.15q-5.05 5.6-12.2 10.15-11.4 7.3-22.35 7.3-7.2 0-11.95-3.05-5.2-3.35-5.2-9l.1-3.5q.2-1.05.75-2l24.6-3.5V157l26.8-22.55-2.65-23.35-8.95-1.7-15.2 6.9v-2.1l.65.15-.45-.5 2.1-2.95q29.9-10.15 40.2 5.75" fill="#5d4236"/><path d="M52.2 137.4v-17.55l11.3-5.05 1.3 1.8-12.6 20.8" fill="#ffeea0"/></g><g id="s" fill-rule="evenodd"><path d="m211.05 186.85 3.25 2.25q-4.4 7.8-8 17.45l-.55 1.55 6.9 11.05 8.15 13.15 1.95-.4 5.35-1.15 3.8-.95q8.15-2.15 16.35-5.15l1.85-.7q6.25-2.35 12.5-5.25l.3-1.85 1-5.85 3-17.75.4-2.55-8.95 3.7-1.4 2.8-2 1.25-6.7 3.75q-5.25 2.6-10.5 4.35-6.15 2.05-12.25 2.9l-.9.1.95-3 2-8.3.6-3.7 1-9.35q.35-5.8.3-12.15l-.05-3.65-.05-1.95-.1-2-.05-.4-.05-1.05q2.25-1.1 4.45-2.05 17.1-7.65 27.65-7.15l-1.35 7.05-.4-1h-.05v-4.5q-8.4.65-20.65 6.05-3.35 1.45-6.95 3.25l.05 1.5q.15 13.2-1.35 24.35l-.7 4.3q-.95 5.65-2.4 10.75l-.25.8 1.7-.35 1.8-.45q8.95-2.25 17.65-6.8l6.75-3.9.25-.15 1.35-.9 4.15-17.8.35-1.6q.55 6.1-1.95 16.65 13.25-7.1 20.45-5.7l-7.75 2.65q2.35 1.6 4.2 3.5l.75.8.9 1.05q4.1 5.1 5.15 12.2l.2 1.9q.6 7.7-.85 15.1l-1.45 5.6-.15.4-.65 1.8-12.75 10 10.2 3.65v-.05l11.45-19.45q.7-7.45-.85-14.6l-1.25-4.35q-2.55-6.85-8.05-11.7 7.5 4 10.4 11.7 1.05 2.8 1.5 6.1.85 6.3 2.3 12.45-3.75 12.45-13.1 23.95-9.05-.85-16.65-4.55l-8.4 4.35-.4-.15q-11.5-4.5-23.7-14.25l-11 1.9q-9.25-9.45-17.75-26.8l.9-3q3.45-11.1 8.15-19.7m33.35 41.35h-.05L234.3 232l19.1 12.2.65.4.35.25 1.15-.7 6.75-3.8 12.8-7.35 4.35-2.5q.9-3.25 1.4-6.5.45-3.4.5-6.75 0-5.35-1.2-10.7l-.5-2.1q-2.35-8.95-9.15-14.95l-1.45.5q-.8 8.45-2.25 16.55l-.95 4.95-.45 2.15v.05l-1.05 4.65-.6 2.5-16.35 6.2-3 1.15" fill="#381a0e"/><path d="M260.3 209.35q-1.75-1.15-2.9-2.8-1.9-2.65-2.35-6.6l-.1-1.5 2-1.25 1.4-2.8 8.95-3.7-.4 2.55-6.6 16.1m5.1 4.35v-.05l.45-2.15.95-4.95q1.45-8.1 2.25-16.55l1.45-.5q6.8 6 9.15 14.95l.5 2.1q1.2 5.35 1.2 10.7l-2.1 2.3q-1.95 1.85-4.7 2.2l-3.05-.1q-2.85-.7-4.05-3.25l-2.05-4.7" fill="#3f2c24"/><path d="m231.9 167.15-.05-1.5q3.6-1.8 6.95-3.25l9.8 1.2-3.2 20.65-.15.1-5.5-8.15q-3.3-5.2-7.85-9.05M218.4 211l4.75 1.4.4.1-.4 9.55-.4 9.85-1.95.4-8.15-13.15q2.4-1.7 4.25-3.95l.75-1.35.75-2.85" fill="#ffeea0"/><path d="m214.9 189.5 12.65 8.75-2 8.3-.95 3 .9-.1-2.35 2.95-4.75-1.4q.25-1.8.05-3.75l-.1-.7q-.45-2.9-2.3-5.65l-1.15-1.4v-10m30.4-5.05-.1.15-4.5 6.9q-2.6-.75-5.95-.75-2.5 0-4.2.75 1.5-11.15 1.35-24.35 4.55 3.85 7.85 9.05l5.5 8.15.05.1m-22.15 37.6.4-9.55 3.2 10.55q-1.65-.85-3.6-1m39.75-5.2-.3 1.85q-6.25 2.9-12.5 5.25l-1.75.3 5.25-16.2.3-.95 5.1 5.5 3.9 4.25m-14.65 7.8q-8.2 3-16.35 5.15-.15-1.45-.8-2.65l-2.5.4.5-2.9q1.25 1.1 2 2.5l17.25-2.9-.1.4m-3.85 3.55 3-1.15 3.05 8.75-1.35.4-4.7-8" fill="#ca926d"/><path d="M240.7 191.5q-6.3 9.1-12.6 15.05l-.9.8.25-.8q1.45-5.1 2.4-10.75l.7-4.3q1.7-.75 4.2-.75 3.35 0 5.95.75" fill="#b86f4a"/><path d="m277.8 194.35 1 .5q5.5 4.85 8.05 11.7l1.25 4.35q1.55 7.15.85 14.6l-11.45 19.45v.05l-10.2-3.65 12.75-10 .65-1.8.15-.4 1.45-5.6q1.45-7.4.85-15.1l-.2-1.9q-1.05-7.1-5.15-12.2m-18.35-33.5v.15l-2.35 6.3q-2.25 5.3-3.85 10.5l-.2.65.1 1.2.2 3.3q.35 6.25 1.6 12.25l-2.35-3.2q-1.95-2.5-4.7-5.3l-4.2 6.05q-6.5 8.6-14.15 13.8l-.65.45-1.7.35.9-.8q6.3-5.95 12.6-15.05l4.5-6.9.1-.15.1-.2 3.2-20.65-9.8-1.2q12.25-5.4 20.65-6.05v4.5m-36.3 51.55 2.35-2.95q6.1-.85 12.25-2.9 5.25-1.75 10.5-4.35l6.7-3.75.1 1.5q.45 3.95 2.35 6.6 1.15 1.65 2.9 2.8l-1.3 3.25-5.1-5.5-.3.95-2.35-2.6-21.1 12.65-1.05 6.5-.1-.05q-1.05-.9-2.25-1.5l-3.2-10.55-.4-.1m43.75-19.15-3 17.75q-2.05-.6-3.6-1.65l6.6-16.1m-19.5 33.8 16.35-6.2.6-2.5 1.05-4.65 2.05 4.7q1.2 2.55 4.05 3.25l3.05.1q2.75-.35 4.7-2.2l2.1-2.3q-.05 3.35-.5 6.75-.5 3.25-1.4 6.5l-4.35 2.5-9-10.65-11.5 9.3.3 3.95-4.45.2-3.05-8.75" fill="#5d4236"/><path d="m228.9 207 .65-.45q7.65-5.2 14.15-13.8l2.05 1.55q2.35 2.35 2.6 5.45-8.7 4.55-17.65 6.8l-1.8.45" fill="#563c32"/><path d="M259.9 161.85q1.55 4.75.95 15.15l-4.15 17.8-1.35.9-.4-.5q-1.25-6-1.6-12.25l-.2-3.3-.1-1.2.2-.65q1.6-5.2 3.85-10.5l2.35-6.3v3l.45-2.15m-16.2 30.9 4.2-6.05q2.75 2.8 4.7 5.3l2.35 3.2.15.65-6.75 3.9q-.25-3.1-2.6-5.45l-2.05-1.55M263.9 211l-1 5.85-3.9-4.25 1.3-3.25q1.55 1.05 3.6 1.65m-34.8 13.6 1.05-6.5 21.1-12.65 2.35 2.6-5.25 16.2-17.25 2.9q-.75-1.4-2-2.5v-.05m46 8.4-12.8 7.35q-1.35-2.85-4.2-3.9-1.6-.65-3.2-.85l.65 8.55-1.15.7-.35-.25-1.25-2.1-2.35-6.7 4.45-.2-.3-3.95 11.5-9.3 9 10.65" fill="#7f594a"/><path d="m214.3 189.1.6.4V210l3.5 1-.75 2.85-.75 1.35q-1.85 2.25-4.25 3.95l-6.9-11.05.55-1.55q3.6-9.65 8-17.45m39.1 55.1L234.3 232l10.05-3.8h.05l4.7 8 3.7 6.3.6 1.7" fill="#fff3be"/><path d="m214.9 199.5 1.15 1.4q1.85 2.75 2.3 5.65l.1.7q.2 1.95-.05 3.75l-3.5-1v-10.5m7.85 32.4.4-9.85q1.95.15 3.6 1l1.4 4.55.35.7.1-.75 2.5-.4q.65 1.2.8 2.65l-3.8.95-5.35 1.15" fill="#dbb590"/><path d="m229 224.55.1.1-.5 2.9-.45.05-1.4-4.55q1.2.6 2.25 1.5" fill="#7b5848"/><path d="m262.3 240.35-6.75 3.8-.65-8.55q1.6.2 3.2.85 2.85 1.05 4.2 3.9m-8.25 4.25-.65-.4-.6-1.7-3.7-6.3 1.35-.4 2.35 6.7 1.25 2.1" fill="#a87662"/><path d="m90.85 40.7 19.05-25.35Q61.6-4.45 3.55 10.2L48.8 41.45l-.05 2.3L3.6 12.55Q7.15 84.1 38 118.25L58.95 84.8l.8 1.2 1.05.25-20 33.05q82.65-5.2 113.05 49.3l2.75-.25 13.8-.45 7.55.4q8.2.7 14.85 2.8 8.8-9.7 15-19.45l1.85-3q-7.65-13.8-12.75-35.5l-4.7-2.05-.1-.05q-25.95-11.6-43.65-27.6-29.75-26.9-36.35-66.1l-4.05 5.55L94.1 42.05l-3.3-1.2.05-.15m14.3 45.75 2-.45.05-1.35 68.4 52.55-.1.1-70.35-50.85m105.9 100.4-5.65-3.95-.05.05q-7.75 8.35-17.5 14.3-10 6.1-14.1 7.75-4.15 1.6-5.85.25-.9-5.1.35-10.3 1.25-5.25 3.95-11.5 2.4-5.55 5.7-11.75l-6.8.1-13.75.65-5.3.35Q119.3 117.1 38.8 123.95-3.25 81.65.25 9q52.9-20.3 116.15 5.1 12.8 67.8 84.5 95.85-.7 11.25 5.15 20.15 21.05-17.3 29.1-15.95 6.35 11.35-11.5 41.2l9.95 6.6q-2.2.95-4.45 2.05l.05 1.05-7.85-6.1-1 1.6q-6.1 9.35-13.75 18.3l21.55 15.7-.6 3.7-12.65-8.75v-1.55l-.6 1.15-3.25-2.25M190.4 172l-8.1-.3q-3 5.7-5.3 11.9-2.95 8.15-5.3 16.35 12.8-4.2 24.5-14.5l2.85-2.6 2.25-2.25q7.7-7.85 14.9-18.35l.75-1.15 1.9-2.95q15-22.95 13.7-41.7-11.2 4.55-26.05 19.65l4.5 10.15 3.5-6.85-.65 2.45-2.05 6.2-2.6 5.95q-5.75 11.15-15.25 17.5l2.6.95-3.65-.3-2.3 1.35 1.3-1.4-1.5-.1" fill="#525873"/><path d="m57.65 38.7-.35-9.2h5.45l.55 8.4-5.65.8m8.85-1.05.45-8.6 2.85.45 1.15-16.15 2.4.3V29.6h.05l16.25 2.9 7.55-15.6 5.25.7-11.6 23.1-.1.15Q79.1 37 66.5 37.65m-17.75 6.1q-.6 23.75 10.2 41.05L38 118.25Q7.15 84.1 3.6 12.55l45.15 31.2m12.05 42.5 1.9.45q19.95 4.35 42.45-.25l70.35 50.85q-31.5-21.7-63-38.05-8.3-4.3-16.6-8.65l-28.5 1.5-5.35.3-5.9 18.9q82.65 9.45 97.7 57.3-30.4-54.5-113.05-49.3l20-33.05m46.4-1.6q.85-22.9-12.05-42.2l-1.05-.4 13.95-19.15q9.2 37.45 40.4 60.55 17.7 16 43.65 27.6l-13.95-4.6v32.7l-2.55-1.95-68.4-52.55M120 69.4l-3.95-16.25-8.9-19.7-2.75 4.5.7 3.4 8.6 42.15 59.25 42.8-6.35-20.8-1.55-5.05q-21.6-9.8-40.4-33.05v21.25L120 69.4M44.15 58.15v-.1l-32.4-1.4q8.1 29.9 24.4 52.1 4.1-13.3 16.75-22.5l-8.75-28.1m-.95-10.6.65-4.35L6.2 17.05 7.6 35.5v.1l35.6 11.95m.5 7.75v-4.1L10 46.45l.45 7.75 33.25 1.1m176.65 105.25 1-1.6 7.85 6.1.05.4.1 2-5.45-4.15-3.55-2.75m-24.15 24.9q-11.7 10.3-24.5 14.5 2.35-8.2 5.3-16.35 2.3-6.2 5.3-11.9l8.1.3-3.95 6.45 11.25.55q2.5.5 3.6 1.6l-2.25 2.25-4.6-.35-10.8.85-7.45 12.3 9.2-4.7 10.8-5.5m17.65-43.6.65-2.45-3.5 6.85-4.5-10.15q14.85-15.1 26.05-19.65 1.3 18.75-13.7 41.7l-.15-.1q6.65-12.25 9.35-28.05l-3.65-1.25.05-.3-.2.25-10.4 13.15" fill="#c2c3d4"/><path d="m57.3 29.5-.7-17.05h5v.05l1.15 17H57.3m9.65-.45.85-16.15 3.15.45L69.8 29.5l-2.85-.45m6.4-15.4L97.2 16.9l-7.55 15.6-16.25-2.9h-.05V13.65M48.5 32.85 20.3 13.2h22.3l5.9 19.65m56.6 8.5-.7-3.4 2.75-4.5 8.9 19.7L120 69.4l-14.9-28.05m19.55 33.9V67.4q18.8 23.25 40.4 33.05l1.55 5.05q-20.05-7.9-41.95-30.25m83.15 76.4q-6.2 9.75-15 19.45-6.65-2.1-14.85-2.8l-4.5-24.1 13.6 7.9 5.45-26.15 15.3 25.7m-37.4 16.25-13.8.45q-7.3-34.2-36.3-51.4l1-4.75 44.1 27.55 5 28.15m-57.9-68.65-2.95 15.35-44.6-7.2 2.45-15.3 28.5-1.5q8.3 4.35 16.6 8.65m-69.3-51.7L7.6 35.6v-.1L6.2 17.05 43.85 43.2l-.65 4.35m.95 10.6 8.75 28.1q-12.65 9.2-16.75 22.5-16.3-22.2-24.4-52.1l32.4 1.4v.1m-.45-2.85-33.25-1.1-.45-7.75 33.7 4.75v4.1M190.4 172l1.5.1-1.3 1.4 2.3-1.35 3.65.3-2.6-.95q9.5-6.35 15.25-17.5l2.6-5.95 2.05-6.2 10.4-13.15.15.05q-8.35 29.45-26.7 50.25l-11.25-.55 3.95-6.45m-5 18.95-9.2 4.7 7.45-12.3 10.8-.85-9.05 8.45" fill="#7d86a6"/><path d="M105.1 41.35 120 69.4l4.65 19.25v-13.4q21.9 22.35 41.95 30.25l6.35 20.8-59.25-42.8-8.6-42.15m87 69.7.1.05 4.7 2.05q5.1 21.7 12.75 35.5l-1.85 3-15.3-25.7-5.45 26.15-13.6-7.9 4.5 24.1-7.55-.4-5-28.15-44.1-27.55-1 4.75q29 17.2 36.3 51.4l-2.75.25q-15.05-47.85-97.7-57.3l5.9-18.9 5.35-.3-2.45 15.3 44.6 7.2 2.95-15.35q31.5 16.35 63 38.05l2.65 1.9v.05l1.75 1.25-1.75-1.35v-32.7l13.95 4.6m24.85 50.05-.75 1.15q-7.2 10.5-14.9 18.35-1.1-1.1-3.6-1.6 18.35-20.8 26.7-50.25l3.65 1.25q-2.7 15.8-9.35 28.05l-1.75 3.05m-17.9 21.75-2.85 2.6-10.8 5.5 9.05-8.45 4.6.35m30.3-15.4.05 1.95.05 3.65q.05 6.35-.3 12.15l-1.85-13.8.05-.05-.1-.05-3.3-2.7-.05-5.3 5.45 4.15" fill="#999eb6"/><path d="M57.65 38.7q-4.35.75-8.8 2l-.05.75L3.55 10.2Q61.6-4.45 109.9 15.35L90.85 40.7l11.6-23.1-5.25-.7-23.85-3.25-2.4-.3-3.15-.45-.85 16.15-.45 8.6-3.2.25-.55-8.4-1.15-17v-.05h-5l.7 17.05.35 9.2m-9.15-5.85L42.6 13.2H20.3l28.2 19.65m59.55-9.95 4.05-5.55q6.6 39.2 36.35 66.1-31.2-23.1-40.4-60.55" fill="#f4f4f9"/><path d="m48.8 41.45.05-.75q4.45-1.25 8.8-2l5.65-.8 3.2-.25q12.6-.65 24.25 3.2h.05l3.3 1.2 1.05.4q12.9 19.3 12.05 42.2l-.05 1.35-2 .45q-22.5 4.6-42.45.25l-1.9-.45-1.05-.25-.8-1.2q-10.8-17.3-10.2-41.05l.05-2.3m28.45-1.5Q64.5 38.9 49.75 42.1l.15 2.4.7 7.35q2.5 20.4 10.9 33.1l-.4.75.95.1q25.35 1.7 43.7-1.4l.25.25q-.9-21.9-12.8-41.4-7.55-2.6-15.95-3.3" fill="#0f4b2d"/><path d="m77.3 42.8.05-1.25-.05-1.35-.05-.25q8.4.7 15.95 3.3 11.9 19.5 12.8 41.4l-.25-.25-4-4.6.8-.05Q98 60.5 90.95 44.35l-.05-.15q-5.85-1.1-13.6-1.4m-26.7 9.05q3.25 2.55 4.6 3.25l.65.35q3.65 12.9 8.4 24.2l-2.75 5.3q-8.4-12.7-10.9-33.1" fill="#144a54"/><path d="m101.75 79.8 4 4.6q-18.35 3.1-43.7 1.4l-.55-.85 2.75-5.3.15.3-.4.2 1.9-1.05q16.45 1.75 35.85.7" fill="#0b8b4e"/><path d="M77.3 42.8q7.75.3 13.6 1.4l.05.15q7.05 16.15 11.6 35.4l-.8.05q-19.4 1.05-35.85-.7l.45-.6H99.6L79.85 62.4l.05-.05 19.35 12.3-9.2-26.05-12 10.95 9.6-14.3-11.05.3.7-2.75" fill="#149d50"/><path d="m66.35 78.5 13.5-16.1L99.6 78.5H66.35" fill="#7eff90"/><path d="m59.2 56.45 6.9 22.05-.3.55-1.4.9-.15-.3q-4.75-11.3-8.4-24.2 1.55.75 3.35 1" fill="#179e52"/><path d="m68.2 54.6 8.4 5.8-10.5 18.1-6.9-22.05 1.8.1q3.7 0 7.2-1.95" fill="#3ce65f"/><path d="M55.85 55.45 52.7 43.4q14.05-1.05 24.6-.6l-.7 2.75-20.6.65h-.05l.05.05 3.2 10.2q-1.8-.25-3.35-1" fill="#28c771"/><path d="m56 46.25 12.2 8.35q-3.5 1.95-7.2 1.95l-1.8-.1-3.2-10.2" fill="#50ee7e"/><path d="m77.25 39.95.05.25.05 1.35-.05 1.25q-10.55-.45-24.6.6l3.15 12.05-.65-.35q-1.35-.7-4.6-3.25l-.7-7.35-.15-2.4q14.75-3.2 27.5-2.15" fill="#1b626f"/><path d="m79.9 62.35-.55-.35.5.4-13.5 16.1h-.25l10.5-18.1-8.4-5.8L56 46.25v-.05l20.6-.65 11.05-.3-9.6 14.3 12-10.95 9.2 26.05-19.35-12.3" fill="#f4ffe7"/><path d="m228.15 194.55-21.55-15.7q7.65-8.95 13.75-18.3l3.55 2.75.05 5.3 3.3 2.7.05.1 1.85 13.8-1 9.35" fill="#806c81"/></g><g id="t" fill-rule="evenodd"><path d="M19.15 45.4Q41.1 10.65 56.8 1.25l.75-.25 4.4-.55 5.7-.45q14.1 0 18.45 5.95 1.7 2.3 2.8 6.6l.3 1.2.8 3.6Q80.2 40.2 69.85 55.5q4.6 3.4 11.75 1.5l-1.2 6.75 2.7-2.65q1.85 1.5-4.1 33.75l-3.6.45q-.3-12.6 4.6-27.85l-7.15 9.3-3.3 4.3-1.5 1.95.2-.5 4.5-9.95 5.05-11.4-6.85.4q-5.25-.6-7.3-4.6 8.4-6 24.35-40.6-2.05-7.9-9.9-11.1-7.25-2.9-14.85-2.65l-1.4.05Q49.65 6.95 35.25 26q-7.3 9.6-15.15 22.95l-.95-3.55m37.2 91.25q-26.6 2.7-51.75-.9 6.65-28.55 27.45-43.5l9.25 4.1-.05.25-.55 4.65-5.1-2.15-1.9-.8-2.75-1.25-.05-.05q-15.6 14.25-23.1 35.6 20.7 1.85 43.75.05L52.7 134q1.65 1.7 3.65 2.65M46 92.7q5.1-5.2 5.35-11.65l-15.1 2.5 5.4-5.05q9.65-1 16.85.7l1 .25-3.75 1.3-.05.3q-2.05 6.7-7.05 14L46 92.7" fill="#381a0e"/><path d="m70.95 61.55 6.85-.4-5.05 11.4.55-6.1-2.35-4.9m1.9 15.2 7.15-9.3Q75.1 82.7 75.4 95.3l-2.2.4-.2-10.15-.15-8.8m-39.2-42.3.3-.5q4.3 4.05 9.8 5.85l-9.15 3.85q-1.5-3.25-.95-9.2" fill="#ffeea0"/><path d="M63.65 56.95q2.05 4 7.3 4.6l2.35 4.9-.55 6.1-4.5 9.95 3.6-15.3.3-1.4q-1.05-.35-3.05-1.65-2.5-1.65-4.2-3.65-1.65-1.9-1.25-3.55M34.6 43.65 24.45 47.9l9.2-13.45q-.55 5.95.95 9.2" fill="#ca926d"/><path d="M20.1 48.95Q27.95 35.6 35.25 26q15.15 12.25 25.3 26.2-3.65-3.05-12-6.75v-1.5l-27.7 7.7-.75-2.7M68.25 82.5l-.2.5 1.5-1.95-.1 6q-6.45 3.2-10.6 9.65l-3-2.25L66.6 66.1h.05l5.2 1.1-3.6 15.3M34.6 43.65l9.15-3.85q-5.5-1.8-9.8-5.85l-.3.5-9.2 13.45 10.15-4.25m1 55.45 5.1 2.15-.05.3.2.35q5.75 13.25 8.35 25.4l.1.55q.45 2 1.5 3.7l-.65.05h-.05q-4.5-18.55-14.5-32.5m-6 3.9q5 13.15 5.25 28.95-11.1-.15-19.15-1.8Q18.8 116.2 29.6 103" fill="#7f594a"/><path d="M35.25 26q14.4-19.05 26.6-23.35l1.4-.05q7.6-.25 14.85 2.65 7.85 3.2 9.9 11.1-15.95 34.6-24.35 40.6-.4 1.65 1.25 3.55 1.7 2 4.2 3.65 2 1.3 3.05 1.65l-.3 1.4-5.2-1.1h-.05L55.85 94.45l3 2.25q-1.85 2.75-3.2 6.15-3.1-4.2-7-7.8 5-7.3 7.05-14l.05-.3 3.75-1.3-1-.25q1.45-15-9.95-28.05v-5.7q8.35 3.7 12 6.75Q50.4 38.25 35.25 26m34.3 55.05 3.3-4.3.15 8.8q-1.85.65-3.55 1.5l-.8 7.4q-2.35-.6-6.1 5.05l-3.7-2.8q4.15-6.45 10.6-9.65l.1-6" fill="#563c32"/><path d="m19.15 45.4.95 3.55.75 2.7 27.7-7.7v28.5l-6.9 6.05-5.4 5.05-16.6 15.4q-4.65-.2-7.2-4.2Q5.7 80.05 0 61.3l15.6-28.65 3.55 12.75M75.4 95.3l3.6-.45 10.4.55q-2.05 13.7-8.45 23.85l-6.55 3.1.05.05.15 2.3q0 5.45-3.8 9.3-3.7 3.85-9 3.85-2.55 0-4.7-.85l-.75-.35q-2-.95-3.65-2.65l-1.15-1.35-.75-1.1q-1.05-1.7-1.5-3.7l-.1-.55q-2.6-12.15-8.35-25.4l-.2-.35.05-.3.55-4.65.25-.15.15-.1 4.35-3.6v-.05l2.65 2.35q3.9 3.6 7 7.8l.15.15q2.45 3.45 4.45 7.3l6.95-13 .4-.15h.1q2.8-.9 5.5-1.45l2.2-.4m-3.7 21.1 1.55 2.35 6.5-2.7 5.7-17.5h-17.2l-2.7 5.5-3.7 7.55q3.15 0 5.75 1.4 1.75.9 3.2 2.45l.9.95M43.1 69.55l2.6.15 1.25-23.55-10.6 2.95L18.8 54l-3.65 5.65-4.9 7.65 1.6-3.15 3.3-6.45 3.2-6.25-2.6-15.55L2.2 60.85l2.05 1.35 5 3.35-6.1-2.05L1.8 63l11 25.15-.95-10.05-.6-6.4-.2-1.8 6.45 26.5 2.75-2.55L40.75 75l2.35-2.2 2.55-2.35v-.05l-2.55-.05-.55-.05-16.1-.35-11.25-.25-.35-.6-.4-.7.25-.15 13.05.6 3.7.15 11.65.55m7.5 40.15q1.65-1.4 3.6-2.3h.1l1.35-.5q-1.05-2.2-3.95-5.75l-1.05 1.95-1.7 1.6q-2 1.35-4.35 1l1.6 3.9.05.1 1.2 3.65q1.25-1.95 3.15-3.6v-.05m5.8.6-.15.25-1.1 1.4-1.1 1-1.2.9-.5.3-.75.2-1.15.45-2.65-.2q1 3.75 1.4 7.4.7-3.7 3.5-6.55l.15-.1q2.1-2.15 4.75-3.05l1-.3-.65-1.5-.75-1.55-.8 1.35m.05 4.1-.1.05q-1.3.75-2.45 1.9-2.35 2.45-2.85 5.65-.15.85-.15 1.8 0 4.35 3 7.45 2.4 2.45 5.6 3l1.7.1q4.25 0 7.25-3.1l1.25-1.5q1.8-2.6 1.8-5.95 0-4.35-3.05-7.45-1.85-1.9-4.15-2.65l-3.1-.45q-2.6 0-4.75 1.15m1.25 10.35-.05-.95q0-2.25 1.35-3.85l1.1-.9.05-.05q1-.65 2.25-.65 1.15 0 2.05.55l1.2 1.05q1.45 1.6 1.45 3.85 0 2.3-1.45 3.9-1.35 1.6-3.25 1.6-1.95 0-3.4-1.6-1.05-1.25-1.3-2.95M46.75 100.7q1.45-1.05 3.4-1.3l-2.95-2.7h-.05l-2.7 2.1-2.75 2.1 2.4 3.3q.95-2.3 2.65-3.5m3.7.3q-.95.2-1.75.65-2.1.9-3.5 2.8l1.4-.2q2.75-.75 3.85-3.25m-1.5 12.7q2.6-.95 4.6-2.75 1.2-1.05 2.05-2.65-2.05.85-3.9 2.35-1.8 1.3-2.75 3.05m10.15 10.55q.05 1.35.9 2.3.95 1.05 2.2 1.05 1.3 0 2.2-1.05.95-1.05.95-2.55 0-1.5-.95-2.55l-.85-.7q-.6-.35-1.35-.35-1.25 0-2.2 1.05-.9 1.05-.9 2.55v.25" fill="#7a340c"/><path d="M70.65 107.5 67.6 113q-2.6-1.4-5.75-1.4l3.7-7.55q1 2.05 3.05 2.9l2.05.55m-32.1-54.25q-.1-2.2-1.45-2.2-.95 0-1.65.55-.8.6-.8 1.6l.15.35h-.2l-1.3-.4-1.5-.4 4.55-3.65 10.6-2.95L45.7 69.7l-2.6-.15v-19.2l-2 1.25-2.55 1.65M13.7 67.3l.65.9.1.2.4.7.5 1.4 4.45 11.8 2.05 5.5L32.3 79l8.45-4-20.5 18.85L12.3 68.4l1.4-1.1m-9.45-5.1L2.2 60.85 15.75 35.9l2.6 15.55-3.2 6.25-.2-17.7-3.6 7.45-7.1 14.75m7.6 15.9.95 10.05L1.8 63l1.35.5 8.7 14.6m31.25-7.75 2.55.05v.05L43.1 72.8v-2.45m13.35 44.05q2.15-1.15 4.75-1.15l3.1.45q.55 1.2.6 2.55l-.15 1.6-.3 1.05q-.9-.55-2.05-.55-1.25 0-2.25.65l-.8-1.4q-1.25-1.75-2.9-3.2m3.05 19.85q-3.2-.55-5.6-3-3-3.1-3-7.45 0-.95.15-1.8 1.15 1.6 2.95 2.55.95.55 2.05.5-.05 1.85.3 3.65.45 2.2 1.7 3.95l1.45 1.6M46.75 100.7q-1.7 1.2-2.65 3.5l-2.4-3.3 2.75-2.1 2.3 1.9" fill="#fdef3a"/><path d="m41.1 51.6 2-1.25v19.2L31.45 69l9.65-17.4m-25.95 6.1-3.3 6.45-.5-16.7 3.6-7.45.2 17.7M32.3 79l10.25-8.7.55.05v2.45L40.75 75l-8.45 4m22 28.4h-.1q-1.95.9-3.6 2.3v.05l-3.55-.05h-.8l-.05-.1-1.6-3.9q2.35.35 4.35-1l1.7-1.6 3.65 4.3m-1.95 6.75.5-.3 1.2-.9 1.1-1 1.1-1.4.15-.25 1.2 2q-2.65.9-4.75 3.05l-.5-1.2" fill="#ffb526"/><path d="m14.7 68.25 6.35-4q2.55 1.25 5.05 1.2l.75 1.5.9 1.9-13.05-.6m-2.85-4.1-1.6 3.15 1 4.4.6 6.4-8.7-14.6 6.1 2.05-5-3.35 7.1-14.75.5 16.7m14.6 5.8L25 72.2q-2.95 4.9-5.2 10.1l-4.45-11.8-.15-.8 11.25.25" fill="#f78b01"/><path d="m18.45 63.5-4.75 3.8-1.4 1.1 7.95 25.45-2.75 2.55-6.45-26.5.2 1.8-1-4.4 4.9-7.65 3.3 3.85m35.85 43.9-3.65-4.3 1.05-1.95q2.9 3.55 3.95 5.75l-1.35.5m3.3 4.9-1.2-2 .8-1.35.75 1.55.65 1.5-1 .3m-6.55 9.7q.5-3.2 2.85-5.65 1.15-1.15 2.45-1.9l.1-.05q1.65 1.45 2.9 3.2l.8 1.4-.05.05-1.1.9q-1.35 1.6-1.35 3.85l.05.95-1 .2-.65.1q-1.1.05-2.05-.5-1.8-.95-2.95-2.55m13.25-8.3q2.3.75 4.15 2.65 3.05 3.1 3.05 7.45 0 3.35-1.8 5.95l.35-2.55q.15-1.95-.25-4-.5-2.3-1.95-4.3-1.2-1.6-2.95-2.65-.05-1.35-.6-2.55M44.45 98.8l2.7-2.1h.05l2.95 2.7q-1.95.25-3.4 1.3l-2.3-1.9" fill="#f8ff86"/><path d="m36.35 49.1-4.55 3.65L18.45 63.5l-3.3-3.85L18.8 54l17.55-4.9" fill="#fdffe1"/><path d="m68.75 98.55 3.85 5.35-1.95 3.6-2.05-.55q-2.05-.85-3.05-2.9l2.7-5.5h.5M31.8 52.75l1.5.4 1.3.4h.2l-.15-.35q0-1 .8-1.6.7-.55 1.65-.55 1.35 0 1.45 2.2l-.7.4L24.1 62.3l-3.05 1.95-6.35 4-.35-.05-.65-.9 4.75-3.8L31.8 52.75" fill="#fefb66"/><path d="m78.05 101.85 4.75-1.8-3.35 12.35-7.75 4-.9-.95q-1.45-1.55-3.2-2.45l3.05-5.5q1.3 0 2.6-.7 1.95-.95 3.4-2.8l1.4-2.15m-39.5-48.6 2.55-1.65L31.45 69l-3.7-.15-.9-1.9-.75-1.5q3.35-.05 6.5-2.55 3-2.4 4.6-6.15.6-1.5.65-3.1l.7-.4M19.8 82.3q2.25-5.2 5.2-10.1l1.45-2.25 16.1.35L32.3 79l-10.45 8.8-2.05-5.5m26.45 27.4h.8l3.55.05q-1.9 1.65-3.15 3.6l-1.2-3.65m6.1 4.45.5 1.2-.15.1q-2.8 2.85-3.5 6.55-.4-3.65-1.4-7.4l2.65.2 1.15-.45.75-.2m17.35 15.6-1.25 1.5q-3 3.1-7.25 3.1l-1.7-.1-1.45-1.6q-1.25-1.75-1.7-3.95-.35-1.8-.3-3.65l.65-.1 1-.2q.25 1.7 1.3 2.95 1.45 1.6 3.4 1.6 1.9 0 3.25-1.6 1.45-1.6 1.45-3.9 0-2.25-1.45-3.85l-1.2-1.05.3-1.05.15-1.6q1.75 1.05 2.95 2.65 1.45 2 1.95 4.3.4 2.05.25 4l-.35 2.55" fill="#da5c00"/><path d="m72.6 103.9 5.45-2.05-1.4 2.15q-1.45 1.85-3.4 2.8-1.3.7-2.6.7l1.95-3.6M24.1 62.3l13.75-8.65q-.05 1.6-.65 3.1-1.6 3.75-4.6 6.15-3.15 2.5-6.5 2.55-.9-1.65-2-3.15" fill="#f6a200"/><path d="m21.05 64.25 3.05-1.95q1.1 1.5 2 3.15-2.5.05-5.05-1.2" fill="#fde200"/><path d="M48.55 51.15Q59.95 64.2 58.5 79.2q-7.2-1.7-16.85-.7l6.9-6.05v-21.3m7.1 51.7q1.35-3.4 3.2-6.15l3.7 2.8q3.75-5.65 6.1-5.05l.8-7.4q1.7-.85 3.55-1.5l.2 10.15q-2.7.55-5.5 1.45h-.1l-.4.15-6.95 13q-2-3.85-4.45-7.3l-.15-.15" fill="#3f2c24"/><path d="m50.8 131.55.75 1.1q-23.05 1.8-43.75-.05 7.5-21.35 23.1-35.6l.05.05 2.75 1.25-3.95 4.55-.15.15q-10.8 13.2-13.9 27.15 8.05 1.65 19.15 1.8 7 .1 15.25-.35h.05l.65-.05" fill="#ad7d60"/><path d="m33.7 98.3 1.9.8q10 13.95 14.5 32.5-8.25.45-15.25.35-.25-15.8-5.25-28.95l.15-.15 3.95-4.55" fill="#5d4236"/><path d="M50.45 101q-1.1 2.5-3.85 3.25l-1.4.2q1.4-1.9 3.5-2.8.8-.45 1.75-.65m-1.5 12.7q.95-1.75 2.75-3.05 1.85-1.5 3.9-2.35-.85 1.6-2.05 2.65-2 1.8-4.6 2.75m14.6 7.05.85.7q.95 1.05.95 2.55 0 1.5-.95 2.55-.9 1.05-2.2 1.05-1.25 0-2.2-1.05-.85-.95-.9-2.3l2.85-1.8 1.6-1.7" fill="#5e2471"/><path d="M59.1 124.25V124q0-1.5.9-2.55.95-1.05 2.2-1.05.75 0 1.35.35l-1.6 1.7-2.85 1.8" fill="#82678f"/><path d="m78.05 101.85.9-1.9.5-1.4h6l-5.7 17.5-6.5 2.7-1.55-2.35 7.75-4 3.35-12.35-4.75 1.8" fill="#f78800"/><path d="m79.45 98.55-.5 1.4-.9 1.9-5.45 2.05-3.85-5.35h10.7" fill="#ffed43"/></g><g id="u" fill-rule="evenodd"><path d="m116.45 16.35.8-1 2.65 1.35q7.25 3.9 13.55 9.45 8.8 7.9 15.45 17.7 5.6 8.2 9.3 17.45l-27.5 39.05-6.95-.3-5.55 8.2.7-.3q8 11.7 8.8 29.9l.1 4.45-.05 3.3-.15.05q-12.1 3.4-22.8 3.45l-45.7 12.6-18.5-17.8-6.25-6-2.9.2-4.55-.45-.75-.4-.05-.15h-.05l.55-1.75 5.25-17.55-4.15-3.3-.8.8-.5.5q-3.75-1.85-7.15-4.6-11.8-9.6-19.25-30 7.1-14.3 12.3-30l4.4 6.7 1.65 2.55.95 1.25q5.4 6.95 13.95 11.3 12.4-.15 22.95-2.95l3.4-.95q6.3-2.05 11.95-5.05 8.7-4.75 15.8-11.95l.85-.9 28.25-34.85m7.95 8.4q-3.4-2.5-7.1-4.9l-3.15 3.85-22.6 27.5-1.05 1.25-3.6 3.6q-1.5 9.6-3.45 16.55l-.05.25 4.1 5 9 10.85q-2.35-.2-4.95.65-1.85.6-3.85 1.75l.3.75q19.45.3 35.3 3.65l3.1.7 1.65.4L153.9 61q-1.15-3.1-2.65-6.1-4.05-8.25-10.8-15.8-6.75-7.5-16.05-14.35m-51.25 41.3L67.6 68.8q-13.1 5.8-28.95 6.5 14.3 5.25 38.2.1l3.95-.9.2-.7q2.1-6.65 3.35-15.5-5.3 4.45-11.2 7.75m14.05 14.9-3.9-4.9-.15.05-5.2 1.55-3.45.85q-9.3 2.15-17.5 2.2l-5.7-.25-.7-.05-.35-.05q-23.6-2.6-37.75-24.7l-1.7 4.5L6.3 71l-.1.25-5 10.35 2.7 5.65q3 5.85 6.4 10.7 4.2 5.95 8.95 10.3l3.1 2.6 2.8 2 .55.35.6.4.6-.65 4.3-4.45q8.3-8 17.3-12.3l1.5-.7 1.3-.55q6.9-2.85 14.15-3.5l.55-.05 11.4.4 1.9.3 1.7.3q6.55-4.5 10.85-5.65l-1.55-1.9-3.1-3.9m-.55 13.6L85.6 91.7l-4.15 3.05q-8.2-2.7-19.05-.55l-2.3.5 1.4.8 1.3.7q12.95 7 27.9 9.55l-4.05-11.2m24.4 1.25-2.75-.3-5.1-.4-14.3-.7 4.2 10.65.45 1.05q11.6 2.35 19.85 1.75 2.7-3.15 6.4-11l-1.75-.2-.15-.05-3.05-.4-3.05-.35-.75-.05M74.3 125.25l5.1-1.6q16.25-5.35 33.55-13L95 109.35l-.15-.05-1.05-.15Q74.95 106.2 58.7 96.2l-1.15-.7-.15-.1-.25.1-1.7.7q-2.1.9-4.15 1.9-8.35 3.95-15.3 9.2l8.55 9.1q-1.2 1.5-1.75 2.9l-1.15-.35-2.75-.8-1.75-.55-1.25-.4-.6 1.4 1.4.5 2.35.75 2.6.85.65.2.05.05.05.15.5 1.35-1.3-.45-2.6-.95-2.5-.85-1.65-.6-7.05 16.05 2.65.05h.15l8.65-1.15 3.35-.9 4.3-1.55 1.1 2.4q-4.75 1.95-9.3 2.75l-2.35.35 22.75 21.2L97 148.6l-.5-.05-.75-.1q-10-1.5-18.65-6.3-3.7-2.1-7.15-4.75l.05-.15.7-1.85q6.15 4.45 12.9 7.25 10.05 4.1 21.3 4.45 9.75.25 20.4-2.35-1.75-18.05-7.55-33.7l-2.15 1.05h-.05l-9.4 4.3h-.05q-8.2 3.6-16 6.5-8.75 3.3-17 5.7l1.2-3.35m17.1-.8 15.2-5.7 9.85-3.7.4 1.35.05.4-24.2 8.5-14.95 5.25-.5-.1.05-.7 14.1-5.3" fill="#7a340c"/><path d="M127.7 137.85q8.75.85 17.05-9 4.3 7.35-2.05 19 6.7 1.85 15-2.2 2.05 7.8-3.35 11.9 1.55 2.5 2.5 5.05 2.25 6.3.45 13.05-5.2-2.95-14.75-3.5L146 176q-10.1 3.45-19.5-6.8-1.3 6.7-4.2 10.45-5.35-9.4-16.55-14.3-.65 8.2-2.8 12.15-5.65-6.05-14.75-10.55-2.8 11.35-6.75 18.15l-4.9-10.65h-.1l-.3 1.55q-3.35 12.1-9.6 15.25l-5.5-13.4-2.25 6.9q-5.1-4.6-9.55-14.25-1 1.95-2.65 3.4l-1.2 1-1.75-3.75q-2.1-4.8-5.65-8.55l-.5-.5-1.3-1.3-1.15 1.8q-1.5 2.6-2.4 5.5l-.35 1.2q-3.6-2.05-5.4-5.35l-.6-1.35q-.55-1.3-.85-2.8l-5.5 1.65-.7.2q-4.3 1.3-8.7 2.85l-1.95.7 3.1-7.1-.05-.05q-4.5-3.05-5.45-8.6 4.75 1.05 9.5-1.7-5.1-12.6-2.3-18.65 2.5 3.75 5.85 5.3 3.25 1.5 7.35.95l-.55 1.75-6.8-.2q-2.55-.95-4.6-3.35-.5 8.15 4.6 18.05l1.2 2.15-.25-.05-2.65-2.85-1.25-1.35q-4 2.15-8.1 2.35l2.35 3.15.35.4q2.7 3.1 5.95 4.95l-3.7-1-.05.1-1.6 3.15q2.9-1.3 5.4-2.25l2.35-.8Q24 158 26.9 158q2.4 0 3.6 1.1-.9-.75-3.6 0l-.3.1.3.9.95 2.25.05.05.1.2q1.3 2.4 2.95 3.35.85-1.9 1.9-3.35l1.15-1.35q2-2.2 4.7-3.2l-1.75 1.8.7.6L40 162.6q3.55 3.65 6.65 8.95l4.65-10.35.2.35-1.15 5.7-.45 2.35q4.4 7.9 8.55 11.65 1.85-9.75 7.3-14.55l.55.15-4.35 9.5 6.1 10.65q4.85-6.5 9.35-18.25l-.55 3.15-.2 1.25q3.95 2.95 5.35 7.95l1-2.2.2-.45q2.6-6.25 3.8-13.3l.4-2.55.1-1 .7 3.7q-.2.15.05.25 7.05 2.6 10.95 5.6 2.1 1.65 3.3 3.4l2.6-9.45.4-1.45 3.5 1.45q7.6 3.5 12.85 9.9l.1 1.05.3-.6q2.5-5.2 3.05-12.85l.05-.65.1-2.85.95 3.5.45 4.3.05.45q5.95 6 13.6 6.5-2.25-3.6.45-8.25v4.05q8.9-1.95 13.1 1.2 0-3.65-1.6-8.25l-1.1-2.65-.55.5-3.25 2.15q-1.4.7-2.85 1.05l-.05-.45.9-.6q4.9-3.45 8.5-10.7-8.2 1.35-15.15-1.2l-.65-.25-1.05-.45 1.2-1.2.5-.6q4-5.05 4.6-13.45-5.8 7.6-13.15 7.75l-2.55-.2-.1-4.45M73.05 122.8l-1.3-1.55q-7.65-8.9-13.85-12.65l-.15-.1q-3.05 1.75-6.45 4.7-3.3 2.85-6.9 6.85l.85 2.2 3.5 9.05 2.55.05 3 .1 2.9.15 4.2.45q4.3.6 7.75 1.65v-.05l3.8-10.65.55.35-.45-.55m-8.15-11.9q4.9 4.5 10.35 11.1l.15.2-1.1 3.05-1.2 3.35-2.4 6.8-.7 1.85-.5-.2-1.55-.55q-6.25-2-16.65-2.3l-2.15-.05h-.45l-.7.35-1.1-2.4q-.45-1.7-1.9-4.75l-2.1-4.9-.5-1.35-.05-.15-.05-.1.1-.45.4-1.1q.55-1.4 1.75-2.9 1.3-1.75 3.45-3.65l3.3-2.7 6.75-4.6.15.1q2.75 1.85 5.75 4.45l.95.9" fill="#6c0d0b"/><path d="m125.35 161.95-.05.65q-.55 7.65-3.05 12.85l-.4-.45-.4-4.9-.05-.8 3.95-7.35m-20.25 3.15-2.6 9.45q-1.2-1.75-3.3-3.4l1.5-1.35q2.35-2.5 4.4-7.2l.25-.55-.25 3.05m-21.9 13.35-.2.45-1 2.2q-1.4-5-5.35-7.95l.2-1.25 5.6 3.05.75.4v3.1M65.75 166.7q-5.45 4.8-7.3 14.55-4.15-3.75-8.55-11.65l.45-2.35 5.75 7.25q7-8.05 9.65-7.8m-14.45-5.5-4.65 10.35q-3.1-5.3-6.65-8.95l-2.35-2.15 8.95 4.45.1.65.35-.4 3.8-4.9.45.95m-17.3.05-1.15 1.35q-1.05 1.45-1.9 3.35Q29.3 165 28 162.6l-.1-.2-.05-.05q4.3-2.95 6.15-1.1m-23.1-5.85-.35-.4-2.35-3.15q4.1-.2 8.1-2.35l1.25 1.35q-1.4 3.9-5.7 4.65l-.95-.1m9.55-1.65-1.2-2.15q-5.1-9.9-4.6-18.05 2.05 2.4 4.6 3.35l6.8.2v.05l.1.1.75.4 4.55.45q-2.3 1.05-4.55 1.55-3.85.8-7.65-.05l-2.3-.7q.65 4.1 1.55 7.4l.3 1 .45 1.5q.8 2.35 1.75 4.25 3.05-1.25 5-3.75l.15-.25.75.05q3.8.35 5.85 3.85l-.15.75-5.7.75-5.7-.55-.6-.1-.15-.05" fill="#fd8c6d"/><path d="M130.35 142.5q7.35-.15 13.15-7.75-.6 8.4-4.6 13.45l1.25-6.25q-5 2.05-9.8.55m8.55 8.2q6.95 2.55 15.15 1.2-3.6 7.25-8.5 10.7l-.9.6-.2-2.45 4.95-5.4q-7.6-1.15-10.5-4.65m11.9 9.75.55-.5 1.1 2.65q1.6 4.6 1.6 8.25-4.2-3.15-13.1-1.2v-1.05q5.6-2.85 9.85-2.25v-5.9M121.85 175q-5.25-6.4-12.85-9.9l.2-2.5q-.15-4.5-3.15-10.1 7.75 4.05 11.9 10.1 1.9 2.8 3.05 6.1l.45 1.4.4 4.9m-22.65-3.85q-3.9-3-10.95-5.6v-.05q2.95-.4 5.7-2.9l2.9-3.25.65 3.25q1.1 4.35 3.2 7.2l-1.5 1.35m-12.2-6q-1.2 7.05-3.8 13.3v-3.1l-.75-.4q.3-3.9-2.25-9.8 3.6 2.4 6.8 0m-69.45-14.3 2.65 2.85.15.2-.15.1-.95.5q-3.55 1.65-7.4 1.1v-.1q4.3-.75 5.7-4.65M68.6 162.6l-.25-1.45 6.55 8.1q-2.55 7-5.6 9.65.85-7.05-.7-16.3m-37.15-24.5 2.9-.2 6.25 6-6.3-3.05q-4 1.7-7.4 2.35-4.35.85-7.65-.1l-.4-.15-.35 3.35q-.9-3.3-1.55-7.4l2.3.7q3.8.85 7.65.05 2.25-.5 4.55-1.55m-5.3 10.95.75-1.15 1.2-2.7q5.65.35 4.65 7.75-2.05-3.5-5.85-3.85l-.75-.05M46.6 164.9l-1.55-10.2q3.65 1.6 5.8 5.55l-3.8 4.9-.45-.25" fill="#ff3734"/><path d="m40.6 143.9 18.5 17.8 45.7-12.6q10.7-.05 22.8-3.45l.15-.05.05-3.3 2.55.2q4.8 1.5 9.8-.55l-1.25 6.25-.5.6-1.2 1.2 1.05.45.65.25q2.9 3.5 10.5 4.65l-4.95 5.4.2 2.45-1.05.6 1.1-.15q1.45-.35 2.85-1.05l3.25-2.15v5.9q-4.25-.6-9.85 2.25v-3q-2.7 4.65-.45 8.25-7.65-.5-13.6-6.5l-.05-.45-.45-4.3-.95-3.5-.1 2.85-3.95 7.35-.4-.6q-1.15-3.3-3.05-6.1-4.15-6.05-11.9-10.1 3 5.6 3.15 10.1l-.2 2.5-3.5-1.45-.4 1.45.25-3.05-.25.55q-2.05 4.7-4.4 7.2-2.1-2.85-3.2-7.2l-.65-3.25-2.9 3.25q-2.75 2.5-5.7 2.9l-.05-.2-.7-3.7-.1 1-.4 2.55q-3.2 2.4-6.8 0 2.55 5.9 2.25 9.8l-5.6-3.05.55-3.15Q72.9 180.5 68.05 187l-6.1-10.65 4.35-9.5.45-1-1 .85q-2.65-.25-9.65 7.8l-5.75-7.25 1.15-5.7.25-1.4-.45 1.05-.45-.95q-2.15-3.95-5.8-5.55l1.55 10.2-8.95-4.45-.7-.6 1.75-1.8q-2.7 1-4.7 3.2-1.85-1.85-6.15 1.1l-.95-2.25-.3-.9.3-.1q2.7-.75 3.6 0-1.2-1.1-3.6-1.1-2.9 0-7.65 1.55l-2.35.8h-.05q-3.25-1.85-5.95-4.95l.95.2q3.85.55 7.4-1.1l.95-.5.2-.05.4.45-.3-.55.1-.05.6.1 5.7.55 5.7-.75.15-.75q1-7.4-4.65-7.75l-1.2 2.7-.75 1.15-.15.25q-1.95 2.5-5 3.75-.95-1.9-1.75-4.25l-.45-1.5-.3-1 .35-3.35.4.15q3.3.95 7.65.1 3.4-.65 7.4-2.35l6.3 3.05m28 18.7q1.55 9.25.7 16.3 3.05-2.65 5.6-9.65l-6.55-8.1.25 1.45" fill="#b62b2a"/><path d="m74.7 151.85 4.3-.3L90.2 150q2.8-.5 5.55-1.55l.75.1.5.05-37.9 10.2-22.75-21.2 2.35-.35L48.75 144l7.5 5q4.2-1.95 9.15-9.05l2.85.2h.15q-.1 3.15-1.7 6.2-1.7 3.25-3.85 6.1l7.4-.3 4.45-.3" fill="#ffffa1"/><path d="M65.4 139.95q-4.95 7.1-9.15 9.05l-7.5-5q2.1-2.05 4.8-3.2 3.05-1.35 6.2-1.35l4.65.35 1 .15" fill="#ffe954"/><path d="m114.15 23.7 3.15-3.85q3.7 2.4 7.1 4.9l-4.55 17.3-.35 1.25q-5.35 19-11.6 35.2l-4.45 10.85q-5.7-.15-11.9 0 2.6-.85 4.95-.65l.05-.1 3.4-10.1.2-.7q8-24.9 14-54.1M87.2 80.95l3.1 3.9q-4.9 2.05-11 7.25l-1.9-.3 9.8-10.85M57 80.7q8.2-.05 17.5-2.2l3.45-.85-12.4 13.7q-6.9-.6-14.25 1.9-2.75.9-5.55 2.25l-1.4.7q-1.4.7-2.75 1.5l15.4-17m9.55 15.8q10.45.65 15.1 3.5l2.65-2.85 4.2 6.85q-12.05-2.5-21.95-7.5m36.65-1.4-.1.4-.15.7q-1.5 6.4-4 9.75l-5.85-.9-4.2-10.65 14.3.7m-18.65 43.7-1.5-.5q4.65-1.95 7.15-5.95l-12.45-1.8 14.95-5.25q-.65 4.1-2.5 7.05l19.05.9.3.65q-2.95 2.9-4.05 8.85-11.85-.95-20.95-3.95m11.2 9.65Q93 149.5 90.2 150L79 151.55l-4.3.3.4-3.4q0-1.8.6-3.4.55-1.55 1.4-2.9 8.65 4.8 18.65 6.3m-27.35-8.3h-.15l-2.85-.2-1-.15-4.65-.35q-3.15 0-6.2 1.35-2.7 1.15-4.8 3.2l-10.05-6.75q4.55-.8 9.3-2.75l.7-.35h.45l2.15.05q10.4.3 16.65 2.3.45 1.85.45 3.65M37.15 117.6l-.45 1.5-1.4-.5.6-1.4 1.25.4m1.9 2.25-.15-1.7 2.75.8v1.75l-2.6-.85m-.05 1.2 2.6.95 1 11.65-3.35.9-.25-13.5" fill="#f78b01"/><path d="M114.15 23.7q-6 29.2-14 54.1-2.95 1.5-6.35 1.45-3.4-.05-6.3-1.4l-4.1-5 .05-.25q1.95-6.95 3.45-16.55l3.6-3.6 1.05-1.25 22.6-27.5M77.1 142.15q-.85 1.35-1.4 2.9-.6 1.6-.6 3.4l-.4 3.4-4.45.3-7.4.3q2.15-2.85 3.85-6.1 1.6-3.05 1.7-6.2 0-1.8-.45-3.65l1.55.55.45.35q3.45 2.65 7.15 4.75" fill="#bf4c00"/><path d="m70.9 121.7 2.05 1.3-3.8 10.65v.05q-3.45-1.05-7.75-1.65l1.25-2.8q.75-1.55 1.9-2.85 2.75-2.85 6.35-4.7m-25.65.55.35-.15 1.7-.95 2.8-1.35q.35 1.9.85 3.8l.35 1.25.8 2.15.55 1.25 1.65 3.2-3-.1-2.55-.05-3.5-9.05" fill="#d61941"/><path d="m72.95 123-2.05-1.3-6.75-4.3-6.8-4.4q-.8 3.35-1 6.95-.3 5.5.85 11.65l-2.9-.15-1.65-3.2-.55-1.25-.8-2.15-.35-1.25q-.5-1.9-.85-3.8l-2.8 1.35-1.7.95-.35.15-.85-2.2q3.6-4 6.9-6.85 3.4-2.95 6.45-4.7l.15.1q6.2 3.75 13.85 12.65l1.3 1.55-.1.2" fill="#ed344f"/><path d="M57.2 131.6q-1.15-6.15-.85-11.65l.95.2q1.85.1 3.5-.55 1.85-.85 3.35-2.2l6.75 4.3q-3.6 1.85-6.35 4.7-1.15 1.3-1.9 2.85l-1.25 2.8-4.2-.45" fill="#a40f2c"/><path d="M56.35 119.95q.2-3.6 1-6.95l6.8 4.4q-1.5 1.35-3.35 2.2-1.65.65-3.5.55l-.95-.2" fill="#e11c4c"/><path d="m100.15 77.8-.2.7-3.4 10.1-.05.1-9-10.85q2.9 1.35 6.3 1.4 3.4.05 6.35-1.45m-23.3-2.4q-23.9 5.15-38.2-.1 15.85-.7 28.95-6.5 3.4 4.5 9.25 6.6m1.1 2.25 5.2-1.55.15-.05 3.9 4.9-9.8 10.85-11.4-.4-.45-.05 12.4-13.7M10.8 60.15l1.7-4.5q14.15 22.1 37.75 24.7-12.15 4.55-30.95-8.7Q19 85.1 20.9 96.2l.4 2.15-2.05-.5-1.65-.25q-7.2-18.15-6.8-37.45M50.6 80.4l.7.05 5.7.25-15.4 17-1.6.95L50.6 80.4m11.8 13.8q10.85-2.15 19.05.55l4.15-3.05 1.05 2.85-2.35 2.6-2.65 2.85q-4.65-2.85-15.1-3.5l-.55-.3-1.3-.7-2.3-1.3M79 79.45q-2 .1-3.5 1.15-1.8 1.25-1.8 3.2 0 3.45 4.8 3.45 2.2 0 3.55-1.5 1.25-1.4 1.25-3.35 0-1.75-1.55-2.55l-.45-.15-1.05-.3-1.25.05m27.6 39.3-.1-.7-.4-1.65h.05l9.4-4.3.7 2.2.2.75-9.85 3.7m12.55-28.4-11.4-.85 9.35-9.45q.45 5.2 2.05 10.3m-2.2 26.45q1.55 5.95 2.25 12.1-5.05 1.2-9.05 4.45l-.6.55-.3-.65-19.05-.9q1.85-2.95 2.5-7.05l24.2-8.5h.05m-6.45 26.25-5-.3q1.1-5.95 4.05-8.85 1.65 4.25.95 9.15m-67.6-20.6 2.1 4.9q1.45 3.05 1.9 4.75l-4.3 1.55-1-11.65 1.3.45M30.6 135.7h-.15l-2.65-.05 7.05-16.05 1.65.6-5.9 15.5" fill="#da5c00"/><path d="M65.45 91.45q-7.25.65-14.15 3.5l-1.3.55-1.5.7q-9 4.3-17.3 12.3l-.8-2.9q4.9-4.05 9.6-6.95l1.6-.95q1.35-.8 2.75-1.5l1.4-.7q2.8-1.35 5.55-2.25 7.35-2.5 14.25-1.9l-.1.1m-55.15 6.5q-3.4-4.85-6.4-10.7 1.95-1.25 3-3.4 2.35-4.95 1-9.25l1.15-1.5q1.05 8.05 3.35 15.85 1.3 4.3 3.05 8.5l-5.15.5m52.1-3.75 2.3 1.3 1.3.7.55.3q9.9 5 21.95 7.5l-4.2-6.85 2.35-2.6 4.05 11.2q-14.95-2.55-27.9-9.55l-1.3-.7-1.4-.8 2.3-.5m29 30.25-1.3-1.55q7.8-2.9 16-6.5l.4 1.65.1.7-15.2 5.7m-7.8 18.2.95-3.85q9.1 3 20.95 3.95l-.6 4.35q-11.25-.35-21.3-4.45m-41.95-23.7 1.15.35-.4 1.1-.1.45v.05l-.65-.2v-1.75m-4.95.15.45-1.5 1.75.55.15 1.7-2.35-.75m-.2 1.1 2.5.85.25 13.5-8.65 1.15 5.9-15.5" fill="#fdef3a"/><path d="m31.2 108.5-4.3 4.45-.6.65-.6-.4-1-2.55q-2.1-5.7-3.4-12.3l1.9.65q2.15.8 3.7 2 2.4 1.8 3.5 4.6l.8 2.9m-8.85 2.35-3.1-2.6q-4.75-4.35-8.95-10.3l5.15-.5 3.2 6.85.6 1.15 3.1 5.4M90.1 122.9l1.3 1.55-14.1 5.3-.05.7v.3l-.45 4.9 6.25 2.65 1.5.5-.95 3.85q-6.75-2.8-12.9-7.25l2.4-6.8q8.25-2.4 17-5.7" fill="#fefb66"/><path d="M115.55 112.1h.05l2.15-1.05q5.8 15.65 7.55 33.7-10.65 2.6-20.4 2.35l.6-4.35 5 .3 9.25.1q.25-7.25-.55-14.25-.7-6.15-2.25-12.1v-.05l-.1-.35-.25-1.4-.35-.7-.7-2.2" fill="#fded2b"/><path d="m83.05 138.3-6.25-2.65.45-4.9.5-.2 12.45 1.8q-2.5 4-7.15 5.95" fill="#fde202"/><path d="M140.45 39.1q6.75 7.55 10.8 15.8l-26.4 36.25-5.7-.8q-1.6-5.1-2.05-10.3l1.35-1.55q16.3-18.7 22-39.4M67.6 68.8l5.55-2.75Q76.2 70.4 81 73.8l-.2.7-3.95.9Q71 73.3 67.6 68.8m50.3 27.8-5.9 10-11.7-.5q4.95-3.4 10.4-9.9l1.1-.35 3.05.35 3.05.4m1.3 32.3q.8 7 .55 14.25l-9.25-.1q.7-4.9-.95-9.15l.6-.55q4-3.25 9.05-4.45" fill="#db4700"/><path d="m74.3 125.25 1.1-3.05-.15-.2q-5.45-6.6-10.35-11.1l8.55 3.85 1.8-3.3L57.3 97.3l-13.25 10.2 3.95 5.25q-2.15 1.9-3.45 3.65L36 107.3q6.95-5.25 15.3-9.2 2.05-1 4.15-1.9l1.7-.7.25-.1.15.1 1.15.7q16.25 10 35.1 12.95l-14.4 14.5-5.1 1.6" fill="#5d4236"/><path d="m48 112.75-3.95-5.25L57.3 97.3l17.95 14.15-1.8 3.3-8.55-3.85-.95-.9q-3-2.6-5.75-4.45l-.15-.1-6.75 4.6-3.3 2.7" fill="#7f594a"/><path d="m79.4 123.65 14.4-14.5 1.05.15.15.05 17.95 1.3q-17.3 7.65-33.55 13" fill="#3f2c24"/><path d="M91.55 89.35q6.2-.15 11.9 0l4.3.15 11.4.85 5.7.8 26.4-36.25q1.5 3 2.65 6.1l-25.85 35.6-1.65-.4-3.1-.7q-15.85-3.35-35.3-3.65l-.3-.75q2-1.15 3.85-1.75m7.4 16.6.9.1.2.05h.25l11.7.5 5.9-10 .15.05 1.75.2q-3.7 7.85-6.4 11-8.25.6-19.85-1.75l-.45-1.05 5.85.9" fill="#fdec21"/><path d="m103.45 89.35 4.45-10.85q6.25-16.2 11.6-35.2l-.25 2.4-1.6 14.35q-1.1 8.35-.8 16.55l.1 1.9.15 1.55-9.35 9.45-4.3-.15m-4.5 16.6q2.5-3.35 4-9.75l.15-.7.1-.4 5.1.4 2.75.3-.35.4q-7.4 1.65-10.85 9.85l-.9-.1" fill="#fe9019"/><path d="m119.5 43.3.35-1.25 4.55-17.3q9.3 6.85 16.05 14.35-5.7 20.7-22 39.4l-1.35 1.55-.15-1.55-.1-1.9q-.3-8.2.8-16.55l1.6-14.35.25-2.4m-19.65 62.75q3.45-8.2 10.85-9.85-5.45 6.5-10.4 9.9h-.25l-.2-.05" fill="#fe780f"/><path d="M12.3 51.2 29.35 16l70-16 17.1 16.35L88.2 51.2l-.85.9q-7.1 7.2-15.8 11.95l-3.2-4.95-8.75 10-3.4.95-.3-9.45h-.4q-.6.6-3.8 1.1l-4.75.45-9.55-1.25-9.6-1.25q-1 0-4.85 1L19.3 61.7l-.95-1.25-1.65-2.55-4.4-6.7" fill="#55073d"/><path d="M71.55 64.05q-5.65 3-11.95 5.05l8.75-10 3.2 4.95m-15.35 6Q45.65 72.85 33.25 73 24.7 68.65 19.3 61.7l3.65-1.05q3.85-1 4.85-1l9.6 1.25 9.55 1.25 4.75-.45q3.2-.5 3.8-1.1h.4l.3 9.45" fill="#551c68"/><path d="m6.2 71.25.1-.25 4.5-10.85q-.4 19.3 6.8 37.45l-2.15-.15q-1.75-4.2-3.05-8.5-2.3-7.8-3.35-15.85L7.9 74.6q-.55-1.75-1.7-3.35" fill="#f8ff86"/><path d="M3.9 87.25 1.2 81.6l5-10.35q1.15 1.6 1.7 3.35 1.35 4.3-1 9.25-1.05 2.15-3 3.4" fill="#ffffbf"/><path d="m25.7 113.2-.55-.35-1-1.7q-2.75-4.8-4.9-9.65l-1.65-3.9 1.65.25 2.05.5q1.3 6.6 3.4 12.3l1 2.55" fill="#f6a200"/><path d="m25.15 112.85-2.8-2-3.1-5.4-.6-1.15-3.2-6.85 2.15.15 1.65 3.9q2.15 4.85 4.9 9.65l1 1.7" fill="#fcfee0"/><path d="m50.25 80.35.35.05L40 98.65q-4.7 2.9-9.6 6.95-1.1-2.8-3.5-4.6-1.55-1.2-3.7-2l-1.9-.65-.4-2.15Q19 85.1 19.3 71.65q18.8 13.25 30.95 8.7" fill="#ffb526"/><path d="M73.15 66.05q5.9-3.3 11.2-7.75Q83.1 67.15 81 73.8q-4.8-3.4-7.85-7.75" fill="#c13b00"/><path d="m80.25 79.4 1.05.3.45.15q1.55.8 1.55 2.55 0 1.95-1.25 3.35-1.35 1.5-3.55 1.5-4.8 0-4.8-3.45 0-1.95 1.8-3.2 1.5-1.05 3.5-1.15l.6-.05h.65m-2.4 2.55-.75.15q-1.1.35-1.1 1.5 0 1.45 2.85 1.45 2.3 0 2.3-1.8 0-1.15-1.6-1.2l-.65-.15-1.05.05" fill="#6c2c42"/><path d="M79.55 82.05q1.6.05 1.6 1.2 0 1.8-2.3 1.8-2.85 0-2.85-1.45 0-1.15 1.1-1.5l.75-.15 1.5.1h.2" fill="#6b277f"/><path d="m90.3 84.85 1.55 1.9Q87.55 87.9 81 92.4l-1.7-.3q6.1-5.2 11-7.25" fill="#fcee3a"/></g><g id="v" fill-rule="evenodd"><path d="m201.6 14.75-.35-.95-.35.6q-10.65-5.2-25.35-8l-10.2-1.6-6.6-.7-10.8-.7q12.4 6.2 18.4 13.05 5.8 6.6 5.7 13.85v.25q-.15 4.1-2.2 8.4-5.75 11.9-26.1 25.3l-9.9 6.1-6.3 3.5-.7-2.3.6-.35.2-.1q12-5.9 22.85-14 5.85-4.35 10.15-9.9l1.7-2.35 2.1-3.4 1.65-3.1.2-.3h-.05q4.4-9.35-2.15-18.1Q155.05 7.9 140.7 2.9L136 1.05q44.6-5.7 82.5 20.05 7.2 15.1-16.8 42.95l-2.4 2.75-3.9 4.25q-8.45 8.9-19.75 19l-6.05 5.3-.5.45-.35.35q-4.55 2.95-9.65 3.45l11.55-9.55q16.7-14.3 27.35-26.4l2.2-2.55q7.6-9.1 11.7-16.9 5.5-10.6 4.6-18.85-6-6.15-14.9-10.6M57.35 19.5l1.8-2.1Q48.8 23 39.85 29.6 24.7 40.7 13.55 54.7l-3.4 4.45-.9 1.25q-3.35 4.65-6.2 9.55 1.25 6.9 4.55 13.9l1.5 2.95.6 1.15q2.85 5.1 6.8 10.25l-.1.25q-.55 2.1.45 3.8.95 1.55 2.2 2.8-9.1-8.7-13.4-17.1Q.8 78.55 0 68.55 6.2 58 13.55 49.1 37.8 19.7 74.2 8.45 52.15 27.9 37.9 57.6l2 7.2 1.25 4.55-2.3.95q-5.35-6.25-5.45-17.25l.05-1.85 1.45 2.4q3-7.35 8.35-15.6 3.45-5.3 7.9-10.95 2.85-3.7 6.2-7.55" fill="#0c1c41"/><path d="M159.1 99.6q5.1-.5 9.65-3.45l-.85.75-.9.75-3.35 2.75-1.45 1.15q2.35 5.6 3.05 11.6 1.3 10.3-1 19.95l-1.25 4.35q-4.9 3.05-9.35 6.3l-2.95 2.15q-23.05 17.25-35.2 37.95-7.25 12.3-10.65 25.85-4.7-11.65-6.65-25.85-.7-5-1-10.3l-.1-2q-.8-15.25 1.2-33.05l1.65-.9q2.95-1.75 5.8-3.85 4.65-3.5 8.95-8.05l-8.55-9-2.6 1.3-15 7.4-16.45-8.9-26.75 16.8-7.25-11-1.1 2.75-.35.7v.2l-1.95 4.9.95 4.25-.5 2.15-.45 3.05-4.25-13.5-.1-.45v.6l-3.55 5.7 3 20.5-1.65 2.35-4.7-22.05 2.3-5.45-4.6-19.3 4.55 4.35.2.9 2.35 12.15 3.1-3.35 3.9-4.25-3.5 7 1.7 5.8 3.45-11.95-1-1.55 1.1-1.25 9.45 13.8.05.05v-.1l24.9-16.1 17.65 9.1 18.8-9.55 1.15-.55-1.4 2.35 8.4 8.3.2.2q6.05-6.85 11.25-15.9-6.25-3.1-10.2-10.05-1.95-3.45-3.3-7.8l-.1-.25q-.75-2.4-1.35-5.1l-.8-4.4q-8.05-2.9-18.5-3.4l-5.8-.1-2.15.05h-.4l-6.6.4-3.15-9.4-4.2-12.45-.35.3Q53.55 67.8 41.75 79l-.05.05-.45.4-12.9 22.2-1.45-2.3 1.4-2.25 5.9-9.55L39.5 79l4.35-4.35q-1.85-.85-3.1-2.8l-.15-.2-.15-.2q-5.5 2.65-9.4 6.5-3.05 3-5.05 5.5l-1.1 1.3-.95 1.35-.05.1-1.2 1.75-1.25 2.1-.9 1.75-1.3 2.85q-1.25 3.1-.55 6.45.15.75.75 1.35 1.75 1.65 3.75 2.85l-1.25 2.05q-1.35-.85-2.5-1.9l-.4-.4q-1.25-1.25-2.2-2.8-1-1.7-.45-3.8l.1-.25q.85-3.45 2.3-6.65l.55-1.2.15-.3 1.05-1.95.1-.15q1-1.7 2.15-3.35l1.95-2.75 1.75-2.2q2.65-3.2 6.1-5.65 1.3-.95 2.7-1.8 1.7-1.05 3.55-1.9l2.3-.95h.05l.3-.15q.45 1.25 1.5 2.4 1 1.1 1.6 1.4l.7.3 1.55-1.4q1.95-1.8 4.05-3.55 9.4-8 20.55-15l4.8 14.2 2.5 7.45 6.1-.25 1.2-.05h1.35l6.7.25q9.7.7 17.75 3.4L125.8 72l1.05-.45.7 2.3 1.7 5.45q.85 2.75 2.15 5.2 1.25 2.3 2.9 4.3l.95 1.1.15.15 2.85 2.65.1.1q5.7 4.65 12.75 6.2l2.85.5q2.65.35 5.15.1m-32.4-19.45q-1.1-2.45-1.85-5.05l-6.15 2.5-5.35 2.2-.1.05q.2 2.65.75 5.2l.9 3.65.4 1.3.05.05q1.65 5.1 5.3 9.05 4.55 5 10.7 7.65 6.4 2.8 13.2.9 6.3-1.7 11.6-5.4-7.05.65-13.3-3.5-3.35-2.15-6.2-4.8l-1.3-1.3-2.35-2.6-2.15-2.75q-2.45-3.45-4.15-7.15m27.95 60 5.7-4.3q1.05-3.45 1.55-6.9 1.95-13.45-2.1-25.7l-5 2.85-3.85 1.75-4.65 2.1q-8.05 1.45-14.3-.1l-2-.6-.9-.35-2.5 4.25q-7.55 11.85-20.75 22.15l-6.15 4.45-.2 3.8v.35l-.2 11.6v.15q-.05 12.4.95 23.45l.5 4.75q.9 7.85 2.35 14.95l1.4 6.15.55-2q2.3-7.85 6.45-15.6l1.95-3.5q5-8.45 12.2-16.85 9.9-11.55 24.1-23l4.9-3.85" fill="#7a340c"/><path d="m133.85 70.35 9.9-6.1q2.2 3.65 2.25 7.75l-9.6 8.5q.1-5.1-2.55-10.15m32.5-53.9q-6-6.85-18.4-13.05l10.8.7q6.45 3.65 9.8 8.95l1.2 2.05q-1.55 1-3.4 1.35M39.85 29.6q8.95-6.6 19.3-12.2l-1.8 2.1q-5.6 3.8-10.9 7.95l-6.1 5q-.45-1.45-.5-2.85m11.3-2.55Q46.7 32.7 43.25 38l-1.35-2 3.05-3.05q1.9-1.95 3.9-3.75l2.3-2.15M7.6 83.85q-3.3-7-4.55-13.9 2.85-4.9 6.2-9.55 1.45 1.05 2.5 2.25l-.2.25q-3.05 4.3-5.6 8.7 1.6 4.8 4.65 8.8l-3 3.45" fill="#72d2e3"/><path d="m135.25 89.9 7.4-4.1q-1.05 2.2-2.45 4.25l-1.95 2.65-2.85-2.65-.15-.15m-77.9-70.4q-3.35 3.85-6.2 7.55l-2.3 2.15q-2 1.8-3.9 3.75L41.9 36l-1-2-.55-1.55 6.1-5q5.3-4.15 10.9-7.95" fill="#4073c5"/><path d="m127.55 73.85 6.3-3.5q2.65 5.05 2.55 10.15l-5 4q-1.3-2.45-2.15-5.2l-1.7-5.45m16.2-9.6q20.35-13.4 26.1-25.3Q163.45 55.35 146 72q-.05-4.1-2.25-7.75m28.3-33.95q.1-7.25-5.7-13.85 1.85-.35 3.4-1.35 3.2 6.45 2.3 15.2M16.5 98.2q-3.95-5.15-6.8-10.25l-.6-1.15 3.6-3.9.55.6.3.3 3.8 4.15 1.8 2.1.2.3-.55 1.2q-1.45 3.2-2.3 6.65m-6.35-39.05 3.4-4.45q11.15-14 26.3-25.1.05 1.4.5 2.85l-7.45 6.9-2.25 2.3q-3.8 3.3-7.35 7-5.25 5.45-9.75 11.5l-.65.9-2.75-1.9" fill="#3c8db6"/><path d="M198.75 19.6q-1.65 5.6-.25 11.6 1.65 7.15 6.8 10.5-4.55 8.9-15.35 21.65-12.4.5-26.5 7.2 12.5-10.95 24.65-25.85 9.7-17.3-17.15-30.55 2.8-2.4 4.05-5.85 15.1 5.75 23.75 11.3M40.35 32.45 40.9 34l1 2-.95.95-4 4.25-3.35 4q-2.1 2.55-3.4 5.35-.75 1.5-1.2 3.15l-.4 1.8q-3 2.5-4.2 7.2-1.55 6-1.5 12.25 0 3.95 1.85 6.9L22.8 84.6l-3.15-4.2q-1.8-2.5-2.75-5.35l.15-.85q.8-5.3-1.05-9.1.75-6.1 4.65-11.55 4.6-6.35 10-11.9l2.25-2.3 7.45-6.9" fill="#223d76"/><path d="M30.65 41.65q-5.4 5.55-10 11.9Q16.75 59 16 65.1q1.85 3.8 1.05 9.1l-.15.85q-.55-1.6-.8-3.35-.5-3.4-.1-6.6-.9-1.9-2.45-3.4l-.65-.65.65-.9q4.5-6.05 9.75-11.5 3.55-3.7 7.35-7" fill="#315e90"/><path d="m200.2 61.1-2.2 2.55-8.05-.3q10.8-12.75 15.35-21.65l.15.1q-1 9.55-5.25 19.3m-30.35-22.15q2.05-4.3 2.2-8.4v-.25q.9-8.75-2.3-15.2l.3-.25.9-.7Q197.8 27.4 188.1 44.7q-12.15 14.9-24.65 25.85-9.25 4.3-19.15 11.3 1.35-4.1 1.65-8.55L146 72q17.45-16.65 23.85-33.05m5.7-32.55q14.7 2.8 25.35 8-1.4 2.55-2.15 5.2Q190.1 14.05 175 8.3l.55-1.9M43.25 38q-5.35 8.25-8.35 15.6l-1.45-2.4-.05 1.85q-2.8.75-4.8 2.45l.4-1.8q.45-1.65 1.2-3.15 1.3-2.8 3.4-5.35l3.35-4 4-4.25.95-.95 1.35 2M16.9 75.05q.95 2.85 2.75 5.35l3.15 4.2q-1.15 1.65-2.15 3.35l-.1.15-1.05 1.95-.15.3-.2-.3-1.8-2.1-3.8-4.15-.3-.3-.55-.6.05-.1.8-.9q2.55-3.05 3.35-6.85" fill="#315f90"/><path d="M198 63.65q-10.65 12.1-27.35 26.4L159.1 99.6q-2.5.25-5.15-.1l-2.85-.5 32.45-28.4 6.4-7.25 8.05.3M142.65 85.8l1.65-3.95q9.9-7 19.15-11.3-10.25 8.95-20.8 15.25M33.4 53.05q.1 11 5.45 17.25-1.85.85-3.55 1.9-1.4.85-2.7 1.8l-2.5-6.25q-1.35-3.6-1.75-7.5-.2-2.4.25-4.75 2-1.7 4.8-2.45" fill="#21406d"/><path d="M198.75 19.6q3.25 2.05 5.6 4.15 1.95 8.7 1.15 17.5l-.2.45q-5.15-3.35-6.8-10.5-1.4-6 .25-11.6m-35.3 50.95q14.1-6.7 26.5-7.2l-6.4 7.25L151.1 99q-7.05-1.55-12.75-6.2l-.1-.1 1.95-2.65q1.4-2.05 2.45-4.25 10.55-6.3 20.8-15.25m-138.7 11.3q-1.85-2.95-1.85-6.9-.05-6.25 1.5-12.25 1.2-4.7 4.2-7.2-.45 2.35-.25 4.75.4 3.9 1.75 7.5L32.6 74q-3.45 2.45-6.1 5.65l-1.75 2.2" fill="#172950"/><path d="M136.4 80.5q-.1 3.8-1.75 7.6l-.35.7q-1.65-2-2.9-4.3l5-4M16 65.1q-.4 3.2.1 6.6.25 1.75.8 3.35-.8 3.8-3.35 6.85l-.8.9-.05.1-2.1-2.5q1.65-2.35 2.65-5.1l.3-.85q1.65-5.1 0-8.95-.65-1.55-1.8-2.85l1.15-1.6.65.65q1.55 1.5 2.45 3.4" fill="#417eb3"/><path d="m146 72-.05 1.3q-.3 4.45-1.65 8.55l-1.65 3.95-7.4 4.1-.95-1.1.35-.7q1.65-3.8 1.75-7.6L146 72M11.75 62.65q1.15 1.3 1.8 2.85 1.65 3.85 0 8.95l-.3.85q-1 2.75-2.65 5.1-3.05-4-4.65-8.8 2.55-4.4 5.6-8.7l.2-.25" fill="#5db3d3"/><path d="m9.25 60.4.9-1.25 2.75 1.9-1.15 1.6q-1.05-1.2-2.5-2.25" fill="#4cabc9"/><path d="m9.1 86.8-1.5-2.95 3-3.45 2.1 2.5-3.6 3.9" fill="#50b1ce"/><path d="m199.3 66.8 2.4-2.75Q216.55 79 218.6 88.3l-11.4-2.7 1.65 4.45q13.2 37.9 2.75 67.85l-27.2-14.85L173 173.7q-3.7-10.45-22.3-27.8l2.95-2.15q9.8 6.5 15.75 16.7l3.55 6.65 10.15-28.5 21.55 10.85 5.9 2.95q8.4-31.6-5.2-62.35l-3.85-7.85 12.15 1.7q-5.9-9.1-14.35-17.1m-33.2-28.45-1.65 3.1q-13.25-4.75-38.3-4.95l-3.3-.05 7.8-8.55Q116.6 26.25 87.4 38.25l-2.55 1.05-3.2 1.35-1.65.75q1.75-7.95 4.85-11l.95-.8-.95.4q-20.5 8.2-43.5 39.1l-.15.25h-.05L39.9 64.8l2.35-3.25 5.7-7.2 6.35-7 7-6.6 7.6-6.25q3.55-2.8 7.45-4.9 3.55-1.8 7.2-3.4l1.3-.5q1.25-.5 2.55-.85 3.1-.95 6.35-1.3l-8.55 12.6 2.2-1.1q31.45-15.5 52.65-10.65-7.85 4.25-10.85 9.5 26.1-1.65 37.05 4.15l-.15.3m6.85 128.75-.6 1.6q1.05-.65.75-1.2l-.15-.4" fill="#6c0d0b"/><path d="m164.45 41.45-2.1 3.4q-11.7-4.65-36.2-8.35 25.05.2 38.3 4.95m-42.2-5-.9-3.45-39.7 7.65 3.2-1.35 2.55-1.05q29.2-12 43.25-10.35l-7.8 8.55h-.6m-43.05 5.3q-.7-2.05-.8-6.7Q55.95 56.3 46.85 71.9l-1.55 1.4-.7-.3q-.6-.3-1.6-1.4-1.05-1.15-1.5-2.4l-.15-.1q23-30.9 43.5-39.1l.95-.4-.95.8q-3.1 3.05-4.85 11l-.8.35m6.85 32.95-1.2.05-6.1.25-2.5-7.45 8.6-3.3 2.55-.95q8.4-3 14.75-4.6Q91.4 65.65 87.4 72.1q-.85 1.3-1.35 2.6" fill="#fd8c6d"/><path d="m195.4 71.05 3.9-4.25q8.45 8 14.35 17.1l-12.15-1.7 3.85 7.85q13.6 30.75 5.2 62.35l-5.9-2.95q6.05-31.4-2.25-59.4L199.65 82l4.4-2.5-8.65-8.45m-33.05-26.2-1.7 2.35q-14.15-6.45-58.15-1.45l7-5.55q-9.2 1.7-22.1 6.6l-2.55 1-9.9 4.1 1.7-5.7q-8.9 5.45-25.75 22.15-2.1 1.75-4.05 3.55 9.1-15.6 31.55-36.85.1 4.65.8 6.7l.3.65.5-1 1.65-.75 39.7-7.65.9 3.45.1.55.5-.55 3.3.05q24.5 3.7 36.2 8.35M94.1 74.95l-6.7-.25h-1.35q.5-1.3 1.35-2.6 4-6.45 14.75-13.4 4.85-1.25 8.5-1.7Q98.1 66.4 94.1 74.95" fill="#ff3532"/><path d="m168.75 96.15.35-.35.5-.45 6.05-5.3q11.3-10.1 19.75-19l8.65 8.45-4.4 2.5 2.75 8.05q8.3 28 2.25 59.4L183.1 138.6l-10.15 28.5-3.55-6.65q-5.95-10.2-15.75-16.7 4.45-3.25 9.35-6.3l1.25-4.35q2.3-9.65 1-19.95-.7-6-3.05-11.6l1.45-1.15 3.35-2.75.9-.75.85-.75m-8.1-48.95q-4.3 5.55-10.15 9.9-10.85 8.1-22.85 14l-.2.1-.6.3-1.05.5-13.95 6.35q-8.05-2.7-17.75-3.4 4-8.55 16.55-17.95-3.65.45-8.5 1.7-6.35 1.6-14.75 4.6l-2.55.95-8.6 3.3-4.8-14.2q-11.15 7-20.55 15 16.85-16.7 25.75-22.15l-1.7 5.7 9.9-4.1 2.55-1q12.9-4.9 22.1-6.6l-7 5.55q44-5 58.15 1.45" fill="#b62b2a"/><path d="m158.75 4.1 6.6.7L175 8.3q-1.25 3.45-4.05 5.85l-.9.7-.3.25-1.2-2.05q-3.35-5.3-9.8-8.95" fill="#2d519c"/><path d="m200.9 14.4.7.35q1.75 4.45 2.75 9 2.25 2 3.65 3.95l.25.8q1.1 4.85-2.75 12.75.8-8.8-1.15-17.5-2.35-2.1-5.6-4.15.75-2.65 2.15-5.2" fill="#213b72"/><path d="M201.6 14.75q8.9 4.45 14.9 10.6.9 8.25-4.6 18.85l-.25-.1q-3.55-.65-6.2-2.3l.05-.55q3.85-7.9 2.75-12.75l-.25-.8q-1.4-1.95-3.65-3.95-1-4.55-2.75-9" fill="#2f5b9b"/><path d="M211.9 44.2q-4.1 7.8-11.7 16.9 4.25-9.75 5.25-19.3 2.65 1.65 6.2 2.3l.25.1M165.35 4.8l10.2 1.6-.55 1.9-9.65-3.5" fill="#4687be"/><path d="M136.65 93.95q2.85 2.65 6.2 4.8 6.25 4.15 13.3 3.5-5.3 3.7-11.6 5.4l-3.75-.6q-4.3-.8-7.8-3.1l-.05-.85-.05-1.85q.1-2.1 1.4-3.9l2.35-3.4m-4.65 15.9q6.25 1.55 14.3.1l4.65-2.1 3.85-1.75 5-2.85q4.05 12.25 2.1 25.7-.5 3.45-1.55 6.9l-5.7 4.3q-7.1.4-13-4.05-6.7-5-8.75-13-1.7-6.55-.9-13.25" fill="#c13b00"/><path d="m118.7 77.6 6.15-2.5q.75 2.6 1.85 5.05l-1.35.9-4.6 1.5-1.55.8q-.6-2.85-.5-5.75m-1.45 20.5q3.95 6.95 10.2 10.05-5.2 9.05-11.25 15.9l-.2-.2 1.25-25.75m-9.4 15.65-18.8 9.55-17.65-9.1-.35-.2 2.35-1.2 14.25 7.1 20.2-6.15" fill="#fe9019"/><path d="M126.7 80.15q1.7 3.7 4.15 7.15l2.15 2.75 2.35 2.6q-1.7 1.3-2.8 3.05-1.4 2.15-1.05 4.65l.75 3.05-2.6-2.25q-4.85-4.9-8.05-11.1l-.05-.05q-1.65-3.25-2.35-6.65l1.55-.8 4.6-1.5 1.35-.9M149.75 144q-14.2 11.45-24.1 23-1-17.8 2.55-36.8l-12.5 13q-.3-3.1-1.8-5.65l15.5-17.4v.35l.05.25q.55 4.45 2.7 8.5 3.2 6 7.95 10.6 4.1 4.05 9.65 4.15M116 123.85l-8.4-8.3 1.4-2.35-1.15.55-20.2 6.15-14.25-7.1-2.35 1.2-23.75 12.45.45-2.15.85-4 .05.05q7.4-4.9 14.15-11.75 4-4.05 7.75-8.8-1.05-4.95-2.65-9.75l-.7-2.1q-2.55-7.2-6.2-14.05l1.65-3.1q2.55.85 5.05.55 3.85 6.8 8.85 13.05l2.9 3.55 1.7 2.1 3.7 4.6 1.45 1.75 27.65-6.1q1.35 4.35 3.3 7.8L116 123.85m-80.1-6.05 1 1.55-3.45 11.95-1.7-5.8 3.5-7 .65-.7m-5.45 9 4.25 13.5-.05 1.1q-.15 2.5.3 4.55l-4.6 6.45v-25.45l.1-.15M23.7 92.7l1-2.65.95-2.1q1-2.1 2.35-4 1.8-2.55 3.95-4.8l-.15 1.65q0 1.95 1.45 4.95l.95 1.8-5.9 9.55-1.25-1.85q-1.5-1.7-3.35-2.55m71.95 15.85-5.85-10.1-8.6 7.35 6.35 9 8.1-6.25" fill="#da5c00"/><path d="m135.35 92.65 1.3 1.3-2.35 3.4q-1.3 1.8-1.4 3.9l.05 1.85.05.85-.75-.55-.75-3.05q-.35-2.5 1.05-4.65 1.1-1.75 2.8-3.05m19.3 47.5-4.9 3.85q-5.55-.1-9.65-4.15-4.75-4.6-7.95-10.6-2.15-4.05-2.7-8.5l-.05-.25.2-3.8.4-7.45 2 .6q-.8 6.7.9 13.25 2.05 8 8.75 13 5.9 4.45 13 4.05m-122.7-61 3.75-3.6 4.9-3.9.15.2q1.25 1.95 3.1 2.8L39.5 79l-5.3 8.55-.95-1.8q-1.45-3-1.45-4.95l.15-1.65" fill="#bf4c00"/><path d="M114 85.05q-.55-2.55-.75-5.2l.1-.05 5.35-2.2q-.1 2.9.5 5.75l-1.4.7q-1.85.95-3.8 1" fill="#ffffbf"/><path d="M144.55 107.65q-6.8 1.9-13.2-.9-6.15-2.65-10.7-7.65-3.65-3.95-5.3-9.05l-.05-.05-.4-1.3-.9-3.65q1.95-.05 3.8-1l1.4-.7q.7 3.4 2.35 6.65l.05.05q3.2 6.2 8.05 11.1l2.6 2.25.75.55q3.5 2.3 7.8 3.1l3.75.6m-17.95 5.5 2.5-4.25.9.35-.4 7.45q-.4 1.75-.2 3.45l-15.5 17.4q-1.15-2.05-3.1-3.75 9.05-9 15.8-20.65m-89.6 3.4-1.1 1.25-.2-.3-.45 1-3.9 4.25-4.65-9.45 5-4.1-1 10.45 6.05-3.4.25.3M78.25 77.5l6.6-.4h.4l2.15-.05 5.8.1q10.45.5 18.5 3.4l.8 4.4-34.25-7.45M44.1 121.55q-1.65-6.1-3.15-12.95-1.25-5.9-2.35-12.4 1.5 6.95 3.6 12.4 2.7 7.15 6.4 11.65v.05l-.85 4-3.65-2.75M60.75 73.4l-1.65.95q-5.9 3.55-15 13.6l-1.9 2.1-2.65 3.1 2.2-12.65L62 67.1l-1.25 6.3m48.4 82q-2.3 12.6-3.95 25.1l-2.6-.95q-.75-11.05-.85-23.2l5.85-.45 1.55-.5" fill="#fdef3a"/><path d="M125.65 167q-7.2 8.4-12.2 16.85l-1.95 3.5q-2-4.8-6.3-6.85 1.65-12.5 3.95-25.1 6.2-2.5 6.6-9.6l-.05-2.6 12.5-13q-3.55 19-2.55 36.8m-11.75-29.45q1.5 2.55 1.8 5.65l-5.35 5.55-1.9-3.95-.35-.7 5.8-6.55m-81.95-58.4Q29.8 81.4 28 83.95q-1.35 1.9-2.35 4l-.95 2.1-1 2.65q-1.45-.75-3.15-.9l.9-1.75 1.25-2.1 1.2-1.75.05-.1.95-1.35 1.1-1.3q2-2.5 5.05-5.5 3.9-3.85 9.4-6.5l.15.2-4.9 3.9-3.75 3.6m-.25 30.05.85-.65-1.15-1.95 7.15-16.95v4.65l-.3.35.1.35.05.2.2 1q1.1 6.5 2.35 12.4 1.5 6.85 3.15 12.95l-6.95-5.2.65-.7-.9.5-.4-.3.25.4-6.05 3.4 1-10.45" fill="#f78b01"/><path d="M111.5 187.35q-4.15 7.75-6.45 15.6l-1.3-10.25q.65-6.1 1.45-12.2 4.3 2.05 6.3 6.85M20.55 91.8q1.7.15 3.15.9l-.5 1.65q-1.25 4.45 2.6 6.8l-2.6 4.15q-2-1.2-3.75-2.85-.6-.6-.75-1.35-.7-3.35.55-6.45l1.3-2.85m95.15 51.4.05 2.6q-.4 7.1-6.6 9.6l1.15-6.3.3.2-.25-.55 5.35-5.55" fill="#fde202"/><path d="M23.7 92.7q1.85.85 3.35 2.55l1.25 1.85-1.4 2.25-1.1 1.8q-3.85-2.35-2.6-6.8l.5-1.65m51.4-24.6 3.15 9.4 34.25 7.45q.6 2.7 1.35 5.1l.1.25-27.65 6.1-1.45-1.75-3.7-4.6-1.7-2.1-2.9-3.55q-5-6.25-8.85-13.05-2.5.3-5.05-.55L65 66.4l2.2 4 .5.95q2.9-.35 5.7-2.2l1.7-1.05" fill="#f6a200"/><path d="m41.7 79.05.05-.05q11.8-11.2 28.8-23.05L65 66.4l-2.35 4.4L61 73.9l-.25-.5L62 67.1 41.75 80.5l-.05-1.45" fill="#ffffef"/><path d="m25.7 113.05-4.55-4.35.8-1.35 1.25-2.05 2.6-4.15 1.1-1.8 1.45 2.3 3.05 4.95 1.15 1.95-.85.65-5 4.1-.4.3-.6-.55M38.6 96.2l-.2-1 .15-.9 1-1.15 2.65-3.1 1.9-2.1q9.1-10.05 15-13.6l1.65-.95-.3 1.5.55-1q3.65 6.85 6.2 14.05l.7 2.1q1.6 4.8 2.65 9.75-3.75 4.75-7.75 8.8-6.75 6.85-14.15 11.75l-.05-.1q-3.7-4.5-6.4-11.65-2.1-5.45-3.6-12.4M29 107.8l.5-.5-1.9-4.35-3 4.8.45 4.15 2.2-2.25L29 107.8m59.4-5.65-.05-.35-.15.1.15.15-.05.15-3.7 3.9.05.05 2.75 3.9.7.95 3.65-3.95.35-.35h-.6l-3.1-4.55m-40.65 11.1 1.15 2.9.1 1.1.25-.25 19.3-17.6.15-.15-.25-.15-8.7-23.05-2.3 2.35L40.7 95.7l6.8 16.95.25.6m47.9-4.7-8.1 6.25-6.35-9 8.6-7.35 5.85 10.1" fill="#0f4b2c"/><path d="m28.35 101.65 12.9-22.2.45-.4.05 1.45-2.2 12.65-1 1.15v-4.65L31.4 106.6l-3.05-4.95" fill="#feffba"/><path d="m29 107.8-1.75-2.1v3.95l-2.2 2.25-.45-4.15 3-4.8 1.9 4.35-.5.5m58.4 2.25-2.75-3.9-.05-.05 3.7-3.9-.5 4.5-.4 3.35m-22.45-13.5-.35.35-7.55-14.35-6 12.85 11.05 1.7-11.7.1-2.9 15.45-6.8-16.95 16.75-17.3 7.5 18.15" fill="#f4ffe7"/><path d="M27.25 109.65v-3.95l1.75 2.1-1.75 1.85m61.05-7.45.1-.05 3.1 4.55h-3.7l.5-4.5m-23.7-5.3-.05.1-.55.05-1.9.05-11.05-1.7 6-12.85L64.6 96.9" fill="#3ce65f"/><path d="M46.45 130.35 37 116.55l.15-.2 6.95 5.2 3.65 2.75-.45 2.15-.8 3.85-.05.05m-15.1-7.6-3.1 3.35-2.35-12.15.4-.35.4-.3 4.65 9.45" fill="#f7ff7e"/><path d="M91.75 107.05 88.1 111l-.7-.95.4-3.35h3.7l.25.35M62.1 97.1l2 .3-16.35 15.85-.25-.6 2.9-15.45 11.7-.1" fill="#7eff90"/><path d="m65.6 97.55-.55-.3-.1-.7-7.5-18.15 2.3-2.35 8.7 23.05-2.85-1.55" fill="#144a54"/><path d="m64.1 97.4.35-.35h.2l.05.05.2.35.7.1 2.85 1.55.1.3-19.3 17.6-.35-.85-1.15-2.9L64.1 97.4" fill="#0b8b4e"/><path d="m70.55 55.95.35-.3 4.2 12.45-1.7 1.05q-2.8 1.85-5.7 2.2l-.5-.95-2.2-4 5.55-10.45" fill="#ffe32c"/><path d="m71.4 114.2-24.9 16.1.8-3.85L71.05 114l.35.2" fill="#f0b234"/><path d="m29.8 153.15-3-20.5 3.55-5.7v25.45l-.55.75" fill="#ff9"/><path d="m28.15 155.5 1.65-2.35.55-.75 4.6-6.45q-.45-2.05-.3-4.55l.05-1.1.45-3.05.5-2.15.5 10.95.95.2 1.05.25h.1q26.55 5.8 35.35 19.65l.3.45q8.05 4.8 10.15 9.5l.6 2.2q5.4-5.35 12.45-6.75l.1 2q-9.65 2.55-14.85 10.3l-1.6 2.7-.2.35-10.85 2.25-15.2-3.65-4.05 3.8q-5.65-2.4-10.6-5.45Q28.5 176.9 20.5 166.3l-.05-.05 7.7-10.75m23.15-3.35q-6-2.4-12.8-3.75l-2.85-.55-14 18.2 2.25 2.15q10.25 9.55 21.1 15.65l4.8 2.5 1.1.05-.55-.55 17.9-16.5 3.95-3.6q-3.4-3.45-7.3-6.25l-.35-.25q-6.05-4.3-13.25-7.1m28.2 33.2 3-6.55-23.1 5.55 12.5 2.8 7.6-1.8m-34.7-16.5q4.25-1.95 8.65-2.75l3-.35q-1.1 2.95-3.6 4.9l-4.45 3.55 3.7-4.1q.95-1.05 1.35-2.2l-5.95 1.5-2.7.25v-.8m28.6-.4L56.95 182.8l25.1-6.05-8.65-8.3" fill="#381a0e"/><path d="m37 125.05 1.1-2.75 7.25 11 26.75-16.8 16.45 8.9.55.3 12.75 7.2-1.9 4.7-1.65.9q-2 17.8-1.2 33.05-7.05 1.4-12.45 6.75l-.6-2.2 8.1-16.2-.45-14.4q-13.3-.4-30.35 2.4l28.8-13.55-13.7-10.6.8-.85-31.8 10.5-.1-.1-.05.05-8.6-7.55.3-.75" fill="#7f594a"/><path d="m35.65 135.1-.95-4.25 1.95-4.9 1.5 20.55-1.05-.25-.95-.2-.5-10.95m37.95 31.05q-5.3-9.55-20.15-19.9l23-22.5 13.7 10.6-28.8 13.55q17.05-2.8 30.35-2.4l.45 14.4-8.1 16.2q-2.1-4.7-10.15-9.5l-.3-.45" fill="#ca926d"/><path d="m36.65 125.95.05-.15 8.6 7.55-.4.2.5-.15h.05l31.8-10.5-.8.85-23 22.5q14.85 10.35 20.15 19.9-8.8-13.85-35.35-19.65h-.1l-1.5-20.55m.7 24.05q6.05 2.5 11.5 5.5l-11.9 16.3 10.95 11.5 2.45 2.55-.55.5-4.8-2.5q-10.85-6.1-21.1-15.65L37.35 150" fill="#ffeea0"/><path d="m38.5 148.4-1.15 1.6-13.45 18.2-2.25-2.15 14-18.2 2.85.55" fill="#e9c784"/><path d="m37.35 150 1.15-1.6q6.8 1.35 12.8 3.75l-2.45 3.35q-5.45-3-11.5-5.5" fill="#f9d895"/><path d="m48.85 155.5 2.45-3.35q7.2 2.8 13.25 7.1l-3.05 4.4q-5.85-4.45-12.65-8.15" fill="#b9956e"/><path d="M44.8 168.85v.8l2.7-.25 5.95-1.5q-.4 1.15-1.35 2.2l-3.7 4.1 4.45-3.55q2.5-1.95 3.6-4.9l-3 .35q-4.4.8-8.65 2.75m3.1 14.45-10.95-11.5 11.9-16.3q6.8 3.7 12.65 8.15L47.9 183.3" fill="#e3be85"/><path d="m61.5 163.65 3.05-4.4.35.25q3.9 2.8 7.3 6.25l-3.95 3.6q-3.2-3-6.75-5.7" fill="#b88f5e"/><path d="M61.5 163.65q3.55 2.7 6.75 5.7l-17.9 16.5-2.45-2.55 13.6-19.65" fill="#e3bb77"/><path d="m79.5 185.35-7.6 1.8-12.5-2.8 23.1-5.55-3 6.55m-6.1-16.9 8.65 8.3-25.1 6.05 16.45-14.35" fill="#f4f4f9"/><path d="m88.55 125.4 15-7.4q3.05 7.9 2.2 15.75-2.85 2.1-5.8 3.85l1.9-4.7-12.75-7.2-.55-.3" fill="#5d4236"/><path d="m103.55 118 2.6-1.3 8.55 9q-4.3 4.55-8.95 8.05.85-7.85-2.2-15.75" fill="#3f2c24"/><path d="M100.25 179.1q-1-11.05-.95-23.45l2.45.7q.1 12.15.85 23.2l-2.35-.45m-.75-35.55.2-3.8 6.15-4.45q13.2-10.3 20.75-22.15-6.75 11.65-15.8 20.65-4.25 4.25-9.05 7.95l-2.25 1.8" fill="#f8ff86"/><path d="m105.05 202.95-.55 2-1.4-6.15q-1.45-7.1-2.35-14.95l-.5-4.75 2.35.45q.45 6.8 1.15 13.15l1.3 10.25m-5.75-47.3v-.15l.2-11.6v-.35l2.25-1.8 6 2.75.7.3 1.9 3.95-.05.35-8.5-5.2-.05 12.45-2.45-.7" fill="#fdffe1"/><path d="M110.8 133.8q1.95 1.7 3.1 3.75l-5.8 6.55-.35.4-6-2.75q4.8-3.7 9.05-7.95m-9.05 22.55.05-12.45 8.5 5.2-1.15 6.3-1.55.5-5.85.45m3.45 24.15q-.8 6.1-1.45 12.2-.7-6.35-1.15-13.15l2.6.95" fill="#fefb66"/><path d="m77.25 139.25-.3.15q-2.1 1.15-4.2 2.45-1.1.6-2.2 1.3l12.05-1.75 1.3-.2 1.9-.3 11.35-11.55-6.85 3.1-3.25 1.55q-4.85 2.4-9.8 5.25m-4.5.7q8.25-4.65 16.45-8.8 7.7-3.9 15.35-7.3l-18.25 18.2-26.75 5.7q6.6-4.05 13.2-7.8" fill="#0f4b2c"/><path d="m87.05 134 3.25-1.55 6.85-3.1L85.8 140.9l-1.9.3 3.15-7.2" fill="#0b8b4e"/><path d="M77.25 139.25q4.95-2.85 9.8-5.25l-3.15 7.2-1.3.2-5.35-2.15" fill="#7eff90"/><path d="m82.6 141.4-12.05 1.75q1.1-.7 2.2-1.3 2.1-1.3 4.2-2.45l.3-.15 5.35 2.15" fill="#3ce65f"/></g><g id="w" fill-rule="evenodd"><path d="m78.3 30.4 2.8-2.75.6-.6L91 18.4q24.55 40.25 37.55 79.85l8.05-9.85q5.2 14.15 3 37.15l8.9 16 .8 2.2q1.2 4.85.45 14.4-11.75 11.25-21.4 19.4l-3.35 2.8-8.35 6.8-15.5 11.95-3.4 2.5-5.35 3.8-.9.65-2.55 1.75q-2.9 2-7.05 5.4l-5.85-7.05-.05-.1Q64.1 191.2 53.1 173.6q-10.3-16.45-19.8-35.3l-.85-1.75-.1-.15q-5.4-10.8-10.5-22.35l-.55-1.8 5.15-10.8.85-1.65q6.75-13.15 14.9-25.45 3.95-5.95 8.25-11.7l1.6-2.2 4.15-5.35h.4l-.05-.4q8.9-11.2 19.1-21.6l2.65-2.7M61.9 53.35l-6.65 8.1-1.45 1.8q-19.25 24.7-29.9 49.4 7.2 17 16.1 33.55l6.7 11.95 3.7 6.2 7.8 12.35 8.35 12.3 1 1.45q6.6 9.35 13.85 18.55l1.05 1.35L115.3 182l29.75-25.8v-10.15l-.25.25-10.2-19.75-7 6.15q-15.25 12.45-29.95 16.65l2 5.9-7.4-10.05-13.8-18.75 26.5-62.95.05.05-1.8 4.65-22.3 59.2 11 14.2 21.95-31.35q5.95 11.05 4.4 26.2l8.35-5.85 6.65-4.65Q125.65 100.6 115.1 75q-7.8-18.85-17.2-37.8l-7.05-13.8-.15-.25-.05.05q-16 15.05-28.75 30.15m73.6 71.1q2-15.35.15-28.75l-5.25 8.45.3 1.1 4.8 19.2M93.25 144.1l3.25 3.9.05.05 1.1 1.3-.55-1.6 17.05-9.85 1.8-1.05q.85-12.6-2.95-22.9l-19.9 30-.85 1.25 1-1.1" fill="#7a340c"/><path d="M77.15 53.2q-7.65 2.6-15.25.15 12.75-15.1 28.75-30.15l.2.2-13.7 29.8" fill="#fff600"/><path d="M61.9 53.35q7.6 2.45 15.25-.15l-15 28.85-8.35-18.8 1.45-1.8 6.65-8.1m15.25-.15 13.7-29.8 7.05 13.8q-7.3 10.2-18.45 15.05l-2.3.95M59.2 117l-1.1 11.75 4.85 9.1-16.25 20.3L40 146.2l7-6.65 6.3-6.05 1.65-17.3 4.25.8m-8.8 47.35q1.8-.35 3.5-2.5l11.75-15.1 2.15-3.1L75 154.8q-6.9 12.1-16.8 21.9l-7.8-12.35m28.85 11.15 4-5.45 2.6 3.7 6.4 8.95-.1.15Q85.85 194.7 81.4 209q-7.25-9.2-13.85-18.55.05-1 .25-1.85h.05l2.2-.65 9.2-12.45m28.9-.9.45-.3q10.3-6.55 20.85-14.9l15.35-13.1.25.5v2.35q-7.85 6.95-15.45 12.75-11.05 8.35-21.65 14.1l-7.55 3.85-4.05 1.8-.1-.15 11.9-6.9m27.35-50.15-2.65-21.4-2.15 2.2-.3-1.1 5.25-8.45q1.85 13.4-.15 28.75m-23.5 6.7-1.75-5.4-9.1 9.85-7.85 8.5-.2-.15 19.9-30q3.8 10.3 2.95 22.9l-1.8 1.05-2.15-6.75" fill="#ffdb00"/><path d="m53.8 63.25 8.35 18.8-.15.25.3.15L59.2 117l-4.25-.8 2.95-31.65-34 28.1q10.65-24.7 29.9-49.4" fill="#f8ff86"/><path d="M67.8 188.5q2.3-9.45 11.45-13l-9.2 12.45-2.2.65-.05-.1m18.05-14.75 3.75-.5q9.35-.2 18.55 1.35l-11.9 6.9-.6.35-3.35.95-.05-.1-6.4-8.95m26.15-42.6-.55.55q-4.45 4.55-10.3 3.9l9.1-9.85 1.75 5.4" fill="#f6a200"/><path d="M23.9 112.65q15.3 5.4 23.1 26.9l-7 6.65q-8.9-16.55-16.1-33.55m102.7 17.95-8.35 5.85q1.55-15.15-4.4-26.2L91.9 141.6l-11-14.2 22.3-59.2q18.75 27.45 23.4 62.4m-25.45 5q5.85.65 10.3-3.9l.55-.55 2.15 6.75-17.05 9.85-.55.3-.05-.05-3.25-3.9h.05l7.85-8.5" fill="#da5c00"/><path d="m62.15 82.05 15-28.85 2.3-.95Q90.6 47.4 97.9 37.2q9.4 18.95 17.2 37.8-6.3-9.85-10.1-11.45l.55-1.55-.6 1.5-26.5 62.95 13.8 18.75 7.4 10.05-2-5.9q14.7-4.2 29.95-16.65l1.85 26.7q-10.55 8.35-20.85 14.9l-.45.3q-9.2-1.55-18.55-1.35l-3.75.5-2.6-3.7-4 5.45q-9.15 3.55-11.45 13v.1l-1.25.4-8.35-12.3q9.9-9.8 16.8-21.9l-7.2-11.15-2.15 3.1-11.75 15.1q-1.7 2.15-3.5 2.5l-3.7-6.2 16.25-20.3-4.85-9.1L59.2 117l3.1-34.55-.15-.4m-7.2 34.15-1.65 17.3-6.3 6.05q-7.8-21.5-23.1-26.9l34-28.1-2.95 31.65" fill="#f78b01"/><path d="M81.4 209q4.45-14.3 10.75-26.15l.15-.05 3.35-.95-.6.3 1.3-.5 4.05-1.8 7.55-3.85q3 .05 5.2 2.2 1.7 1.6 2.15 3.8l-32.85 28.35L81.4 209" fill="#f14c0a"/><path d="m129.45 159.4-1.85-26.7 7-6.15 10.2 19.75-15.35 13.1M105 63.55q3.8 1.6 10.1 11.45 10.55 25.6 18.15 50.95l-6.65 4.65q-4.65-34.95-23.4-62.4l1.8-4.65m25.7 41.7 2.15-2.2 2.65 21.4-4.8-19.2m14.35 43.9v7.05L115.3 182q-.45-2.2-2.15-3.8-2.2-2.15-5.2-2.2 10.6-5.75 21.65-14.1 7.6-5.8 15.45-12.75" fill="#fd6900"/><path d="m58.05 1.6 1.4-1.6q4.25 4.1 7.8 8.75Q73 16.4 76.45 25.3l1.65 4.45q-1.45 1-2.85 2.05-3.1-9.95-8.1-19-3.55-6.5-9.1-11.2m70.3 175.95q-.45 22.85-4 40.2l-20.45 22.2-32.5 7.4-14.1 4.25-.3-.1q-23.4-8-39.7-31.4l14.15-1.4q-15.6-13.65-18.65-41.15 3.35-15.4 13.85-32.35l3.1-4.75 2.7-3.9.85 1.75-4.6 10.5-3.9 9.05-8.7 19.9q4.05 16.25 9.45 26.6 2.55 4.95 5.4 8.55l1.55-4.9q4.7-14.05 9.7-21.65 5.35-8.15 11.15-8.85l-2.8 3.5 3.2 16.45 1 5.3-1 1.7-1.45 2.2q-5.8 8.8-12.7 14.35l-5.05.15-.9-.65-.15.7-13.6.35.6.8 2.45 3.15q12.7 15.15 35.8 22.55 18.45-6.5 35.5-26.95l.4 1.05 3.1-20.55 3.4-2.5-1.25 6.45L96.5 223q-11.05 13-21.45 19.15l24-5-.45.85.65-.9 1.15-.2 21.15-19.65.4-.35-.3-.4 3.35-36.15 3.35-2.8M15.6 95.85l4.85-20.1L0 32.95l3.95-1.6 12.25 25.6L17.65 60l3.15 6.65 4.75 10 7.35-7.4-.7 1.4L29 77.1l-9.55 19.1-1.65-.85-2.2.5m35.9 107.9-4.4-16q-7.7 11.3-12.9 30.65l5.5-.5 11.8-14.15" fill="#381a0e"/><path d="m26.65 145.2-12.4-43.7 1.35-5.65 2.2-.5 1.65.85L25.6 99l1.7.8-.85 1.65-8.25-2.35-.45 1.2 3.55 11.95.55 1.8 7.9 26.4-3.1 4.75" fill="#6c0d0b"/><path d="m26.45 101.45-5.15 10.8-3.55-11.95.45-1.2 8.25 2.35m-4.6 12.6q5.1 11.55 10.5 22.35l.1.15-2.7 3.9-7.9-26.4" fill="#612875"/><path d="m46.6 11.25 4.15-3q4-3.05 7.3-6.65 5.55 4.7 9.1 11.2 5 9.05 8.1 19-5.95 4.5-11.5 9.6l-3.3 3.05-1.45-4.4q-2-6.8-5.15-13.05-3.95-7.75-7.25-15.75M3.95 31.35l8-3.2Q22.1 24.2 32.1 19.6q5.4-2.6 10.5-5.75 3.15 8.85 7.35 18.5 5.7 13.15 6.6 22.35l-.35.4-14.1-.4v-.1l-.8-.05q-7.4.15-14.7 1.8l-10.4.6-12.25-25.6" fill="#55073d"/><path d="m78.1 29.75.2.65-2.65 2.7q-10.2 10.4-19.1 21.6-.9-9.2-6.6-22.35-4.2-9.65-7.35-18.5l4-2.6q3.3 8 7.25 15.75Q57 33.25 59 40.05l1.45 4.4 3.3-3.05q5.55-5.1 11.5-9.6 1.4-1.05 2.85-2.05M56.2 55.1l-4.15 5.35-.85-.25q-9.05-2.45-18.75-3.35l-5.85-.5q7.3-1.65 14.7-1.8l.8.05-.35.1h.35l14.1.4" fill="#551c68"/><path d="M50.45 62.65q-4.3 5.75-8.25 11.7-2.5 1.45-5.3 2.55l-3.55 1.35q2.8-6.9 6.15-13.55l-1.15.35-2.4.1q-7.6.3-15.15 1.5L17.65 60q7.65-1.25 15.55-1.35 9 .6 17.25 4m25.6 143.5 5.85 7.05q4.15-3.4 7.05-5.4l.3.7-28.3 31-38-14-2.45-3.15 37.55 9.95.9.25L75 207.75l1.05-1.6m25.1-7.05 15.5-11.95 1.6 22.6-19 27.35-.2.05 15.45-29.05-4.35-8.25-10.25 5.7 1.25-6.45" fill="#5d4236"/><path d="m52.05 60.45-1.6 2.2q-8.25-3.4-17.25-4-7.9.1-15.55 1.35l-1.45-3.05 10.4-.6 5.85.5q9.7.9 18.75 3.35l.85.25" fill="#31123b"/><path d="m32.2 70.65.7-1.4-7.35 7.4-4.75-10q7.55-1.2 15.15-1.5l-3.75 5.5m-3.5 78.15q3.2 7.9 8.25 13.6L23.2 181.1l1.6-23.25 3.9-9.05M39.6 221l18.15 9.2.3 2.1-37.55-9.95-.6-.8 13.6-.35 1.05-.05 5.05-.15m59.65 16.1 19-27.35.2 2.45 3.2 4.3-.1.75-21.15 19.65-1.15.2" fill="#ffeea0"/><path d="m35.95 65.15 2.4-.1 1.15-.35q-3.35 6.65-6.15 13.55L31.8 82.2l-4.55 4 .65-2.5.75-3.65.35-2.95 3.2-6.45 3.75-5.5" fill="#c9916d"/><path d="m29 77.1-.35 2.95-.75 3.65-.65 2.5 4.55-4-2.6 7.4q-1.6 4.75-3.6 9.4l-6.15-2.8L29 77.1" fill="#563c32"/><path d="M42.2 74.35q-8.15 12.3-14.9 25.45l-1.7-.8q2-4.65 3.6-9.4l2.6-7.4 1.55-3.95 3.55-1.35q2.8-1.1 5.3-2.55m-8.9 63.95q9.5 18.85 19.8 35.3-6-2.35-10.75-6.1-2.95-2.3-5.4-5.1-5.05-5.7-8.25-13.6l4.6-10.5" fill="#3f2c24"/><path d="m24.8 157.85-1.6 23.25-.45.6.05.5q.6 14.2 2.75 22.15-5.4-10.35-9.45-26.6l8.7-19.9" fill="#d8a77a"/><path d="M53.1 173.6q11 17.6 22.9 32.45l.05.1-1.05 1.6-21.25-10.3-3.2-16.45 2.8-3.5q-5.8.7-11.15 8.85l4.75-11.7-5.2-6.35-10.3 14.2L32.5 208l-1.55 4.9q-2.85-3.6-5.4-8.55-2.15-7.95-2.75-22.15l.4-1.1 13.75-18.7q2.45 2.8 5.4 5.1 4.75 3.75 10.75 6.1" fill="#5f4337"/><path d="m32.5 208-1.05-25.5 10.3-14.2 5.2 6.35-4.75 11.7q-5 7.6-9.7 21.65m21.25-10.55L75 207.75l-16.05 24.8-.9-.25-.3-2.1-4-25.75 1-1.7-1-5.3m35.5 11.05 5 12.6q-17.05 20.45-35.5 26.95-23.1-7.4-35.8-22.55l38 14 28.3-31m10.65-2.95 10.25-5.7 4.35 8.25-15.45 29.05-24 5Q85.45 236 96.5 223l3.4-17.45" fill="#7f594a"/><path d="m88.95 207.8 2.55-1.75.9-.65 5.35-3.8-3.1 20.55-.4-1.05-5-12.6-.3-.7m27.7-20.65 8.35-6.8-3.35 36.15-3.2-4.3-.2-2.45-1.6-22.6M39.6 221q6.9-5.55 12.7-14.35l1.45-2.2 4 25.75L39.6 221" fill="#ca926d"/></g><g id="x" fill-rule="evenodd"><path d="m142.6 76.95 1.85 3 2.5 4.25 4 7.5q-7.65 1.3-15.5 4h-.05l-.35.15-.25.1-.7.25q-.4.1-.8.3l-.4.15-.45.15q-.1 0-.25.1-26.2 9.9-54.4 35.15v9.75q-13.2-3.05-31.4-19.6-8.65 6.55-18.1 7.35-10.95.9-19.6-8.35Q0 111.9 0 98.75q0-2.7.4-5.25-.15-15.9 3.35-28.9 9.8-36.55 47.8-50.5l.75.15q16.65 3.3 29.15 8.3-.95.65-1.85 1.4-11-4.85-28.6-7.75-16.2 7.4-27 17.75l-.15.15Q10.15 47.25 5.2 65.15 2.4 75.1 2.3 86.5q2.2-5.35 6.55-9.6 3.8-3.75 8.2-5.9 3.2-1.55 6.8-2.25l.35-.05 5.75-.55q12.35 0 20.95 8.75 2.15 2.2 3.7 4.65 1.95 3 3.1 6.45 1.55 4.85 1.4 10.55-.15 5.3-1.85 9.9l-1.4 3q-2.45 4.75-6.85 8.6 14.85 11.15 24.7 15.9l.35-2.6.15-1.75.25-3.55q.25-4.2 1-8.3.75-3.8 1.95-7.35 1.1-3.2 2.55-6.35l.85-1.9q2.05-4.3 4.6-8.1 2.5-3.75 5.6-6.8 2.1-2 4.3-3.85l2.45-1.95 2.15-1.6 2.2-1.45.6-.4q2.45-1.55 4.95-2.8 4.3-2.05 8.7-3.7l3.45-1.05 2.25-.4 3.2-.35q3.15-.2 6.15.6 1.75.45 3.45 1.25l2.4 1.1q-7.85-14.3-15-19.85l.65-4.7 8.25 10.4 1 1.35q5.05 6.7 9.3 13.3l1.15 1.8M22.1 71.4l-.9.3-.35.1q-5.5 2-10 6.45-8.15 8-8.15 20.1 0 5.8 1.85 10.85 1.2 3.25 3.25 6.2l2.9 3.6q4.25 4.55 9.15 6.45l.25.1q3.15 1.2 6.6 1.25l2.05-.1 3.85-.55q7.95-1.8 15.2-8.2 2.45-2.15 4.3-4.65l2.1-3.3q2.75-5.35 2.9-11.85.15-5.5-1.45-10.15l-1.05-2.55-.4-.85q-1.8-3.45-4.65-6.35-7.9-8.05-19.25-8.05-4.35 0-8.2 1.2m102.95 4.5-2.35-1.85-.9.1q-1.9.25-3.45.85l-.7.3q-4.05 1.5-8 3.4l-1.35.7q-3.25 1.75-6.4 3.95l-2.65 2.05-1.95 1.5-4.3 3.85q-3.1 3.05-5.6 6.8-2.55 3.8-4.6 8.1l-.55 1.2q-1.6 3.45-2.85 7.05l-.9 2.95q-.6 2.15-1.05 4.4l-.25 1.55q-.45 2.65-.65 5.35 8.15-7.35 16.85-13.6 15.75-11.3 33.4-18.95 7.8-3.4 15.95-6.1l-2.65-2.05-14.95-11.5-.1-.05m3.85-1.6-3.4-.3 16.1 11q.7-1.85-2.7-5.7-3.65-4.15-10-5" fill="#7a340c"/><path d="M144.45 79.95 168.7 44.4l-.9.1-23.3 22.25-1.9 10.2-1.15-1.8 2.2-9.95-11.5-3.35-1-1.35L145 63.4l19.05-18.6-40.85 3.3-.3 2-.65 4.7-.4 3.1-1.65 11.75q-23.25 6.5-43.55 5.15l-.1-.15-.1.05h-.05v.05h-.25l-2.55-.2-.7-.95.1-.2-.15.1-1.7-2.6Q67.5 53.7 68 34.25l2.6-2.55v-.05q4.2-4 9-7.7.9-.75 1.85-1.4Q99.25 9.25 125.25.1l1.4-.1q2.05 0 3 1.65l-5.75 41.4q27.5-2.85 48-.7L146.95 84.2l-2.5-4.25m-26-72.25.2-.85q-19.2 7.6-33.7 17.15Q77 29.25 70.5 35.05v.45q-.3 21.75 3 36.4l.2.8q18.8-16.05 33.95-24.75l10.8-40.25m5.5-2.9-2.5.95-11.95 42.7 8 19.55.5 1.2.05-.35.05-1v-.15q1.8-28.45 7.85-63.65l-2 .75m-9.1 64 .6-.2-6.7-17.5L73.9 73.65l4.2.1q18.6.05 36.75-4.95" fill="#381a0e"/><path d="M79.6 23.95q-4.8 3.7-9 7.7h-.05q-11 2.3-15.6-7.35-2.95.8-5.7 2.15-10.5 4.95-18.2 13.25l-.15-.15q-.45-1.15-1.3-2.05-.9-.95-2.05-1.65-1.6-1.1-3.35-1.7l-.2-.2Q34.8 23.6 51 16.2q17.6 2.9 28.6 7.75M5.2 65.15l1.75.15 4.75-.05q3.55-.45 6.55-1.9-.9 3.7-1.2 7.65-4.4 2.15-8.2 5.9-4.35 4.25-6.55 9.6.1-11.4 2.9-21.35" fill="#f8ff86"/><path d="m121.85 57.9.4-3.1q7.15 5.55 15 19.85l-2.4-1.1q-1.7-.8-3.45-1.25-3.95-3.75-7.45-7.85.75-2 1.8-3.9l-.95-.45q-1.6-.95-2.95-2.2M24.2 34.15q1.75.6 3.35 1.7 1.15.7 2.05 1.65.85.9 1.3 2.05l.1.25q-2.25 2.4-4.25 5.1-6.2 8.45-8.5 18.45-3 1.45-6.55 1.9l-4.75.05-1.75-.15q4.95-17.9 18.65-31.05l.35.05" fill="#fdffe1"/><path d="M18.25 63.35q2.3-10 8.5-18.45 2-2.7 4.25-5.1 1.45 4.15.4 8.75-1.15 4.7-4.25 8.15l-2.75 2.55-4.5 3.15-1.65.95" fill="#fff600"/><path d="M70.6 31.7 68 34.25q-.5 19.45 3.15 36.65-6.2-9.75-8.8-21.25-1.6-7.05-1.85-14.45-3.7 2-7.15 4.25-6.2 4.1-11.7 9.1-9.8 9.1-17.45 20.15l-.35.05q-3.6.7-6.8 2.25.3-3.95 1.2-7.65l1.65-.95 4.5-3.15 2.75-2.55q3.1-3.45 4.25-8.15 1.05-4.6-.4-8.75l.05-.1q7.7-8.3 18.2-13.25 2.75-1.35 5.7-2.15 4.6 9.65 15.6 7.35l.05.05" fill="#ffdb00"/><path d="M123.95 64.45q3.5 4.1 7.45 7.85-3-.8-6.15-.6l-3.2.35q.5-3.95 1.9-7.6" fill="#fde202"/><path d="M73.5 71.9q-3.3-14.65-3-36.4v-.45Q77 29.25 84.95 24q14.5-9.55 33.7-17.15l-.2.85-32.9 30.15L73.5 71.9" fill="#f7dc8d"/><path d="m122.9 50.1.3-2 40.85-3.3L145 63.4l-13.85-2.9-8.25-10.4m-18.15-21L100 43.25 86.55 52.8 93.2 35l11.55-5.9" fill="#ca926d"/><path d="m73.5 71.9 12.05-34.05 32.9-30.15-10.8 40.25Q92.5 56.65 73.7 72.7l-.2-.8m44-3.9-8-19.55 11.95-42.7 2.5-.95-11 38.65 4.75 24.5-.2.05m-12.75-38.9L93.2 35l-6.65 17.8L100 43.25l4.75-14.15" fill="#9a7056"/><path d="m142.6 76.95 1.9-10.2 23.3-22.25.9-.1-24.25 35.55-1.85-3m-24.9-9-4.75-24.5 11-38.65 2-.75q-6.05 35.2-7.85 63.65v.15l-.4.1m-39.6 5.8-4.2-.1 34.85-22.55 6.7 17.5-.6.2-9.3-11.8L78.1 73.75" fill="#704024"/><path d="m132.15 61.85 11.5 3.35-2.2 9.95q-4.25-6.6-9.3-13.3M78.1 73.75 105.55 57l9.3 11.8q-18.15 5-36.75 4.95" fill="#462823"/><path d="M76.65 74.8q20.3 1.35 43.55-5.15l1.65-11.75q1.35 1.25 2.95 2.2l.95.45q-1.05 1.9-1.8 3.9-1.4 3.65-1.9 7.6l-2.25.4-3.45 1.05q-4.4 1.65-8.7 3.7-2.5 1.25-4.95 2.8l-3.35.25-3.45-.3q-9.95-1.8-19.25-5.15M24.2 68.7q7.65-11.05 17.45-20.15 5.5-5 11.7-9.1Q48.8 52.15 52 65.3q2.65 11.1 14.1 12.05-3.2 9.75-2.65 20.3l.35 7.8v.2q-3.35.9-6.55 2.8 1.7-4.6 1.85-9.9.15-5.7-1.4-10.55-1.15-3.45-3.1-6.45-1.55-2.45-3.7-4.65-8.6-8.75-20.95-8.75l-5.75.55m93.45 6.6.7-.3q1.55-.6 3.45-.85l.9-.1 2.35 1.85q-1.95 1.55-3.35 3.4l-4.05-4m-35.4 31.55.55-1.2q2.05-4.3 4.6-8.1 2.5-3.75 5.6-6.8l4.3-3.85 1.95-1.5 10.8 14.15q-9.95 5.35-19.4 12.3-3.8-3.2-8.4-5M128.9 74.3q6.35.85 10 5 3.4 3.85 2.7 5.7l-16.1-11 3.4.3" fill="#da5c00"/><path d="m71.15 70.9 1.7 2.6.05.1.7.95 2.55.2h.25l.25.05q9.3 3.35 19.25 5.15l3.45.3-.05.15q-13.4.65-20.4 13.45-2.9 5.35-4.4 11-5.5-.7-10.65.8l-.05-.2-.35-7.8q-.55-10.55 2.65-20.3Q54.65 76.4 52 65.3q-3.2-13.15 1.35-25.85 3.45-2.25 7.15-4.25.25 7.4 1.85 14.45 2.6 11.5 8.8 21.25m53.9 5 .1.05 14.95 11.5-8.2 1.85-10.2-10q1.4-1.85 3.35-3.4m-25.8 9.5 2.65-2.05q3.15-2.2 6.4-3.95l10.1 13.4 1.7 2.25h-.85l-.45.2q-4.45 2-8.75 4.3L99.25 85.4" fill="#f78b01"/><path d="M74.5 104.85q1.5-5.65 4.4-11 7-12.8 20.4-13.45h2.8l-2.2 1.45-2.15 1.6-2.45 1.95q-2.2 1.85-4.3 3.85-3.1 3.05-5.6 6.8-2.55 3.8-4.6 8.1l-.85 1.9-2.45-.65-3-.55m52.3-9.25q-17.65 7.65-33.4 18.95l-2.75-2.7q9.45-6.95 19.4-12.3 4.3-2.3 8.75-4.3l.45-.2h.85l3.9.15v.15l1-.15h1.5l.3.4m-18.5-16.2 1.35-.7q3.95-1.9 8-3.4l4.05 4q-4.25 5.5-3.3 13.5l-10.1-13.4" fill="#fdef3a"/><path d="M63.85 105.65q5.15-1.5 10.65-.8-2.3 8.5-1.45 17.7.4 4.55 1.15 9.05l-.15 1.75-.35 2.6q-9.85-4.75-24.7-15.9 4.4-3.85 6.85-8.6 5.25 11.75 14.95 20l-1.1-2.4q-5.3-11.2-5.9-23.4h.05" fill="#f77201"/><path d="M57.25 108.45q3.2-1.9 6.55-2.8.6 12.2 5.9 23.4l1.1 2.4q-9.7-8.25-14.95-20l1.4-3m21.25 8.4.9-2.95q1.25-3.6 2.85-7.05 4.6 1.8 8.4 5-6.15 4.55-12.15 9.8v-4.8" fill="#db4700"/><path d="M93.4 114.55q-8.7 6.25-16.85 13.6.2-2.7.65-5.35l.25-1.55q.45-2.25 1.05-4.4v4.8q6-5.25 12.15-9.8l2.75 2.7m-18.9-9.7 3 .55 2.45.65q-1.45 3.15-2.55 6.35-1.2 3.55-1.95 7.35-.75 4.1-1 8.3l-.25 3.55q-.75-4.5-1.15-9.05-.85-9.2 1.45-17.7" fill="#fdec21"/><path d="m140.1 87.45 2.65 2.05q-8.15 2.7-15.95 6.1l-.3-.4H125l-1 .15v-.15l-3.9-.15-1.7-2.25q-.95-8 3.3-13.5l10.2 10 8.2-1.85" fill="#fefa62"/><path d="m21.2 71.7 1.1.1q3.3 6.25-1.1 12.5-4.3 6.1-10.8 4.05h-.1q-3.75 6.2-4.6 13.7-.4 3.4.1 6.7.5 3.4 2 6.65-2.05-2.95-3.25-6.2-1.85-5.05-1.85-10.85 0-12.1 8.15-20.1 4.5-4.45 10-6.45l.35-.1" fill="#ffffa1"/><path d="M5.8 108.75q-.5-3.3-.1-6.7.85-7.5 4.6-13.7h.1q6.5 2.05 10.8-4.05 4.4-6.25 1.1-12.5 6.35 1 8.65 7.45.95 2.75 1.3 5.85-1.75-.65-3.7-.65-4.8 0-8.2 3.7-3.2 3.55-3.35 8.5v.25q-1.25 1.3-3.15 1.35l-.5.1q-1.2 4.8-1.05 9.4-3.3-.1-6.5 1" fill="#ffe954"/><path d="M7.8 115.4q-1.5-3.25-2-6.65 3.2-1.1 6.5-1 .3 7.1 3.9 13.75 1.3 2.35 3.65 3.95-4.9-1.9-9.15-6.45l-2.9-3.6" fill="#fff994"/><path d="M26.7 126.8q-3.45-.05-6.6-1.25l-.25-.1q-2.35-1.6-3.65-3.95-3.6-6.65-3.9-13.75l4.8.7 1.2.4q-.15 4.7 3.05 8.95 2.25 2.95 5.1 5.05l.25 3.95" fill="#fee400"/><path d="m22.3 71.8-.2-.4q3.85-1.2 8.2-1.2 11.35 0 19.25 8.05 2.85 2.9 4.65 6.35-2.6-.55-4.85-.05-4.2-6-11.55-8.45l.25.6q3.4 6.8.4 13.8l-1.75-2.35q-2-2.2-4.45-3.05-.35-3.1-1.3-5.85-2.3-6.45-8.65-7.45m10.3 54.35-3.85.55-2.05.1-.25-3.95q-2.85-2.1-5.1-5.05-3.2-4.25-3.05-8.95l-1.2-.4-4.8-.7q-.15-4.6 1.05-9.4l.5-.1q1.9-.05 3.15-1.35v.25q0 4 1.95 7.1l.2.3q-.75 2.2-.85 4.3 3.7 1.4 5.45 5.1 2 4.35 2.7 8.9 2.75 2.05 6.15 3.3" fill="#fa9400"/><path d="M38.45 90.5q3-7-.4-13.8l-.25-.6q7.35 2.45 11.55 8.45-4.15.85-7.2 4.95-1.65 2.25-2.3 4.95-.4-2.1-1.4-3.95m13.65 22.8q-1.85 2.5-4.3 4.65-7.25 6.4-15.2 8.2-3.4-1.25-6.15-3.3-.7-4.55-2.7-8.9-1.75-3.7-5.45-5.1.1-2.1.85-4.3l1.2 1.55q3.4 3.75 8.2 3.75 4.8 0 8.15-3.75 1.55-1.7 2.4-3.7.25 7.2 7.1 10.6 3.15 1.5 5.9.3" fill="#bf4c00"/><path d="m54.2 110-2.1 3.3q-2.75 1.2-5.9-.3-6.85-3.4-7.1-10.6l.35-.95q.5-1.55.65-3.25v-1.05l-.25-2.7q.65-2.7 2.3-4.95 3.05-4.1 7.2-4.95 1.45 2.1 2.55 4.65 3.1 7.2 2.8 15.05l-.5 5.75" fill="#c13b00"/><path d="M49.35 84.55q2.25-.5 4.85.05l.4.85L55.65 88q1.6 4.65 1.45 10.15-.15 6.5-2.9 11.85l.5-5.75q.3-7.85-2.8-15.05-1.1-2.55-2.55-4.65" fill="#fa7d00"/><path d="M32.25 85.1q2.45.85 4.45 3.05l1.75 2.35q1 1.85 1.4 3.95l.25 2.7v1.05q-.15 1.7-.65 3.25l-.35.95q-.85 2-2.4 3.7-3.35 3.75-8.15 3.75-4.8 0-8.2-3.75l-1.2-1.55-.2-.3q-1.95-3.1-1.95-7.1v-.5q.15-4.95 3.35-8.5 3.4-3.7 8.2-3.7 1.95 0 3.7.65m5.55 8.6-.25-.75q-.75-1.95-2.2-3.55-2.9-3.2-7.05-3.2t-7.1 3.2q-2.9 3.25-2.9 7.8 0 2.65 1 4.85.65 1.4 1.7 2.65l.15.2.05.05q2.95 3.25 7.1 3.25 4.15 0 7.05-3.25 2.95-3.2 2.95-7.75l-.3-2.8-.2-.7" fill="#6c0d0b"/><path d="M21 104.7q-1.05-1.25-1.7-2.65-1-2.2-1-4.85 0-4.55 2.9-7.8 2.95-3.2 7.1-3.2 4.15 0 7.05 3.2 1.45 1.6 2.2 3.55l.25.75-.1.25q-1.7-2.5-4.4-4.25l-1.35-.85h-.65q-2.65 6.85-9.6 8.4l-.5 5.4-.2 2.05" fill="#ee374f"/><path d="m21.2 102.65.5-5.4q6.95-1.55 9.6-8.4h.65l1.35.85q2.7 1.75 4.4 4.25-.65 2.65-2.8 4.7-6.4 5.9-13.7 4" fill="#db1b47"/><path d="m38 94.4.3 2.8q0 4.55-2.95 7.75-2.9 3.25-7.05 3.25t-7.1-3.25l-.05-.05-.15-.2.2-2.05q7.3 1.9 13.7-4 2.15-2.05 2.8-4.7l.3.45" fill="#9f0d2b"/></g><g id="k"><use ffdec:characterId="24" height="47.1" transform="translate(403.95 59.5)" width="23.75" xlink:href="#l"/><use ffdec:characterId="26" height="32.3" transform="translate(0 35.6)" width="19.1" xlink:href="#m"/><use ffdec:characterId="28" height="72.85" transform="translate(15.8 45.55)" width="38.85" xlink:href="#n"/><use ffdec:characterId="30" height="76.65" transform="translate(374.35)" width="38.8" xlink:href="#o"/></g><g id="y" fill-rule="evenodd"><path d="M14.85 23.35 8.45 33.5l2.6 6.65L19.1 25l.65-1.2-5.7-14.25.8 13.8m-7.3 8.1 5.5-8.45-1.4-16.1L2.2 20.3l5.35 11.15M13.05 0l10.7 24.65-13.1 22.45L0 19.35 13.05 0" fill="#381a0e"/><path d="m19.1 25-8.05 15.15-2.6-6.65 6.4-10.15L19.1 25" fill="#392017"/><path d="m14.85 23.35-.8-13.8 5.7 14.25-.65 1.2-4.25-1.65" fill="#704024"/><path d="M7.55 31.45 2.2 20.3l9.45-13.4 1.4 16.1-5.5 8.45" fill="#ca926d"/></g><g id="z" fill-rule="evenodd"><path d="m11.15 6.4.35-1.2-.6.85L2.65 16.8l4.2 8.7v.05h.1v-.1l9.25-12 2.1 1.4L6 32.3 0 14.25 12.6 0l6.5 13.7-.8 1.15-2.35-1.7-4.8-6.75" fill="#381a0e"/><path d="m10.9 6.05.25.35L7.9 16.6l-.2 2.1-.35.2-4.7-2.1L10.9 6.05" fill="#f7dc8d"/><path d="m16.2 13.45-9.25 12 .75-6.75 8.25-5.55.25.3" fill="#462823"/><path d="m2.65 16.8 4.7 2.1.35-.2.2-2.1 3.25-10.2 4.8 6.75L7.7 18.7l-.75 6.75-.1.05-4.2-8.7" fill="#9a7056"/></g><g id="A" fill-rule="evenodd"><path d="m6.75 33.15-1.1-.8L23.4 5.75l5.25 12.35L15.9 32.45l-6.25-2.5-2.9 3.2" fill="#f7dc8d"/><path d="m8.95 37.05 5.15 3.7v22.1l-1.9-4.3-3.25-21.5m-2.2-3.9 2.9-3.2 6.25 2.5L28.65 18.1l1.65 3.85L14.65 38.7l-7.9-5.55" fill="#9a7056"/><path d="M8.95 37.05 4.6 33.9 2.55 37l9.65 21.55 1.9 4.3v-22.1l-5.15-3.7m19.7-18.95L23.4 5.75 5.65 32.35l1.1.8 7.9 5.55L30.3 21.95l-1.65-3.85m5.9 16.55.65-1.1-4-9.4-14.45 16.6L16.6 63l2-3.15 15.95-25.2M24.75 0l14.1 34.9L13.4 72.85 0 36.7 24.75 0" fill="#381a0e"/><path d="M12.2 58.55 2.55 37l2.05-3.1 4.35 3.15 3.25 21.5" fill="#7f594a"/><path d="m34.55 34.65-4.1-5.85-10.7 14.75-1.15 16.3-2 3.15.15-22.25 14.45-16.6 4 9.4-.65 1.1" fill="#704024"/><path d="m18.6 59.85 1.15-16.3 10.7-14.75 4.1 5.85-15.95 25.2" fill="#462823"/></g><g id="B" fill-rule="evenodd"><path d="m35.3 38 .15-.2h-.25l-11.05.65L14.6 54.7l-.05.05-2.9 4.9 3.15 11.3 12.35-19.8L35.3 38M14.85 12.6l-11 19.35 6.8 24.2 10.75-18.9-6.55-24.65M0 31.6 18.8 0l20 37.15-26.15 39.5L0 31.6m23.25 5.35 10.7-1.6L18.75 5.7l-2.55 4.55 7.05 26.7" fill="#381a0e"/><path d="m35.2 37.8.1.2-8.15 13.15q-.8-.8-1.85-1-3.7-.9-10.65 4.55l-.1.05.05-.05 9.55-16.25 11.05-.65" fill="#552f22"/><path d="m23.25 36.95-7.05-26.7 2.55-4.55 15.2 29.65-10.7 1.6" fill="#854b23"/><path d="m14.85 12.6 6.55 24.65-10.75 18.9-6.8-24.2 11-19.35" fill="#ca926d"/><path d="m14.55 54.75.1-.05q6.95-5.45 10.65-4.55 1.05.2 1.85 1L14.8 70.95l-3.15-11.3 2.9-4.9" fill="#392017"/></g><use ffdec:characterId="1" height="34.45" width="101.4" xlink:href="#p" id="b"/><use ffdec:characterId="3" height="167.7" width="117.25" xlink:href="#q" id="c"/><use ffdec:characterId="5" height="178.8" width="128.25" xlink:href="#r" id="d"/><use ffdec:characterId="7" height="249.05" width="293" xlink:href="#s" id="e"/><use ffdec:characterId="9" height="137.85" width="90" xlink:href="#t" id="f"/><use ffdec:characterId="11" height="191.25" width="158.25" xlink:href="#u" id="g"/><use ffdec:characterId="13" height="209.7" width="220.15" xlink:href="#v" id="h"/><use ffdec:characterId="19" height="251.6" width="150.05" xlink:href="#w" id="i"/><use ffdec:characterId="21" height="141.8" width="171.9" xlink:href="#x" id="j"/><use ffdec:characterId="23" height="47.1" width="23.75" xlink:href="#y" id="l"/><use ffdec:characterId="25" height="32.3" width="19.1" xlink:href="#z" id="m"/><use ffdec:characterId="27" height="72.85" width="38.85" xlink:href="#A" id="n"/><use ffdec:characterId="29" height="76.65" width="38.8" xlink:href="#B" id="o"/><path d="M50.7 0q21 0 35.85 5.05Q101.4 10.1 101.4 17.2q0 7.15-14.85 12.2-14.85 5.05-35.85 5.05-21.05 0-35.9-5.05Q0 24.35 0 17.2q0-7.1 14.8-12.15Q29.65 0 50.7 0" fill-opacity=".349" fill-rule="evenodd" id="p"/></defs></svg>