<svg xmlns:ffdec="https://www.free-decompiler.com/flash" xmlns:xlink="http://www.w3.org/1999/xlink" ffdec:objectType="frame" height="90" width="90" xmlns="http://www.w3.org/2000/svg"><use ffdec:characterId="18" height="137.75" transform="matrix(.6283 0 0 .6286 9.55 1.634)" width="103.35" xlink:href="#a"/><defs><g id="a" transform="translate(-15.2 -2.6)"><use ffdec:characterId="1" height="9.8" transform="matrix(1.3607 0 0 2.5636 35.74 115.239)" width="55.5" xlink:href="#b"/><use ffdec:characterId="3" height="42" transform="translate(32.4 81.1) scale(.4893)" width="53.8" xlink:href="#c"/><use ffdec:characterId="5" height="87.2" transform="translate(59.15 86.55) scale(.4893)" width="57.35" xlink:href="#d"/><use ffdec:characterId="7" height="58.55" transform="translate(57.25 77.45) scale(.4893)" width="97.05" xlink:href="#e"/><use ffdec:characterId="9" height="56.8" transform="translate(41.5 88.35) scale(.4893)" width="53.65" xlink:href="#f"/><use ffdec:characterId="15" height="172.05" transform="translate(19.7 2.6) scale(.4893)" width="201.75" xlink:href="#g"/><use ffdec:characterId="17" height="35" transform="translate(75.8 74.3) scale(.4893)" width="59.8" xlink:href="#h"/></g><g id="i" fill-rule="evenodd"><path d="M34.4 3.5q3.1.75 5.85 2.9 1.8 1.25 4.9 1.85L52.2 9.9l.25.25v.4q-.15 0-.15.1h-.35l-6.9-1.6Q41.8 8.4 39.75 7l-.5-.5h-.1v.15l.85 4.4v.25l.15.1v.25l.1.75.65 5.15 1.25-.85 1.15-.65.5-.5q1.25-1 1.6-2.15l.25-.1q.15-.15.25-.15l.25.25v.25l-.85 1.5-.65.65-1 .9q-.85.35-1.35.85l-1.4.9v.75l-.75.25V18.3q0-2.25-.65-5.75l-.1-.9-.15-.25v-.5l-.85-4.15.1-.35q0-.15.25-.15-3.75-2.5-8.5-2.5L27 4.9h-.25l-1.9-.4-.9-.1q-8.75 0-10.9 5.75l-.1.25q-1.65 1-2.4 1.75-1.5 1.25-1.9 2.4-1.35 3.9-1.35 6.25v.4l-.15.25 1 2.5 2.65 6.25 1.75 1q1.5.75 4 1.15l.9.15 1.9.1h2.6q.9-.1 2-1.25l1.4-2.15-2.5-1.35-.9-.65h-.1l-.25-.25-2.15-1.75-1-.9v.15l-.5-.5-.5-.65-.5-.6q-.75-.9-1.4-2.15-1.25-2.25-2.6-5.65v-.25l.25-.25h.25l.25.25q1.35 3.65 2.75 5.9.75 1.4 1.65 2.25l.85 1 .15.15 1.25 1 2 1.65.35.25.25.25 2.9 1.5 1.25.25-.25.75-.85-.15q-.4 1.15-1.55 2.4-1.1 1.25-2.1 1.5v.5q-.15 1.15-.15 2.4v.5q-.1 1.35-2.35 1.35L18.7 38l-2.25-.15-2.4-.1h-.1l-2.25-.25q-1.65-.5-2.55-1.9l-.6-.75q-2.4-3.4-3.4-5.5-1-2-1-3 0-.4.15-.75.1-.75.5-1.65l.75-1.25q.25-.9.85-1.5l.15-.25q0-2.5 1.35-6.65.4-1.4 2.15-2.75L12.3 9.9q2.25-6.25 11.65-6.25h.65l2.25.5Q28.5 3.5 30 3h.1l4.3.5m4.35 2.75h.15-.15m-11 3.4v-.1L28 9.4l.25-.1h.1l.15.25.25.5.6 1 .25.35 1.15 2.15 1 1.85q2.5 5.3 2.5 7.3l-.1 1.5v.1l-.9.3.15-.4.1-1.5q0-2-2.4-6.9l-1.25-2.15-1.1-2.25-.25-.35-.65-1.15-.1-.25M17.05 37.1l2.8.25q1.35 0 1.6-.75v-.5q0-1.25.15-2.5v-.25h-.4l-3.35-.1q-3.8-.4-5.9-1.4l-.25-.15-1.4-.85v-.15q-.75-1.25-3-6.75l-.75-1.65-.4.75-.5.9q-.75 1.4-.75 2.4 0 2.1 4.65 8.5l.25.25v.15q.9 1.25 2.4 1.6l1.75.15 3.1.1" fill="#62240d"/><path d="m27.1 28.85-1.25-.25-2.9-1.5-.25-.25-.35-.25-2-1.65 3.85-1 1.8-.75 1.75-1.4q1.1-1.5 1.1-3.75 0-1.25-.75-4.4l-.25-.85-.25-1.4-.1-.25L27 9.4l.75.25.1.25.65 1.15.25.35 1.1 2.25 1.25 2.15q2.4 4.9 2.4 6.9l-.1 1.5-.15.4v.1l-.25.4v.1l-.65 1-.5.65-.25.1q-1.85 1.9-4.35 1.9h-.15m-4.25-1 2.5 1.35-1.4 2.15q-1.1 1.15-2 1.25h-2.6l-1.9-.1-.9-.15 1.05-.65 2.85-1.5q1.9-1.1 2.4-2.35m16.4-16.95v.5l.15.25.1.9q.65 3.5.65 5.75v1.4q-.25 3.1-2.75 4.5l-1.25.65-.9.1H34q0-.35.15-.65v-.1l.1-1.5q0-2-2.5-7.3l-1-1.85-1.15-2.15-.25-.35-.6-1-.25-.5-.15-.25q.75-1.05 5.15-1.05 2.5 0 5.75 2.65m6.05 4.25.85-1.5v-.25l-.25-.25q-.1 0-.25.15l-.25.1q-.35 1.15-1.6 2.15l-.5.5-1.15.65-1.25.85-.65-5.15-.1-.75v-.25l-.15-.1v-.25l-.85-4.4.1-.15.5.5q2.05 1.4 5.3 2.05l6.9 1.6h.35q0-.1.15-.1l.75.85.25 1.15.35 3.75q-1.35-.65-3.75-.9l-4.75-.25m-27.45 18.1 3.35.1h.4v.25q-.15 1.25-.15 2.5v.5q-.25.75-1.6.75l-2.8-.25.25-.35.55-.75.25-1.5-.25-1.25" fill="#b96342"/><path d="M18.1 22.8q-.9-.85-1.65-2.25-1.4-2.25-2.75-5.9l-.25-.25h-.25l-.25.25v.25q1.35 3.4 2.6 5.65.65 1.25 1.4 2.15l.5.6.15.9q0 1.15-1.9 4.4l-.9 1.1-.35.25-.75.5-1.15.75-1.75-1-2.65-6.25-1-2.5.15-.25v-.4q0-2.35 1.35-6.25.4-1.15 1.9-2.4.75-.75 2.4-1.75l.1-.25Q15.2 4.4 23.95 4.4l.9.1.5 3.5.4 3.4v.4q0 4.6-1.8 6.75l-2.1 2.15q-2.4 2-3.75 2.1m-5.9 14.05q-1.5-.35-2.4-1.6v-.15l-.25-.25q-4.65-6.4-4.65-8.5 0-1 .75-2.4l.5-.9.4-.75.75 1.65q2.25 5.5 3 6.75v.15l1.4.85.25.15.5 1.25.1 1.65v1.1l-.35 1" fill="#f6d08e"/><path d="m20.35 24.95-1.25-1-.15-.15-.85-1q1.35-.1 3.75-2.1l2.1-2.15q1.8-2.15 1.8-6.75v-.4l-.4-3.4-.5-3.5 1.9.4H27l3.25-1.15q4.75 0 8.5 2.5-.25 0-.25.15l-.1.35.85 4.15Q36 8.25 33.5 8.25q-4.4 0-5.15 1.05h-.1l-.25.1-.25.15v.1L27 9.4l.5 1.75.1.25.25 1.4.25.85q.75 3.15.75 4.4 0 2.25-1.1 3.75L26 23.2l-1.8.75-3.85 1m-2.9-1.65.5.65.5.5v-.15l1 .9 2.15 1.75.25.25h.1l.9.65q-.5 1.25-2.4 2.35l-2.85 1.5-1.05.65q-2.5-.4-4-1.15l1.15-.75.75-.5.35-.25.9-1.1q1.9-3.25 1.9-4.4l-.15-.9m-.4 13.8-3.1-.1-1.75-.15.35-1v-1.1l-.1-1.65-.5-1.25q2.1 1 5.9 1.4l.25 1.25-.25 1.5-.55.75-.25.35" fill="#e8a76d"/><path d="M34.4 3.5 30.1 3H30q-1.5.5-3.15 1.15l-2.25-.5h-.65q-9.4 0-11.65 6.25l-2.25 1.65Q8.3 12.9 7.9 14.3q-1.35 4.15-1.35 6.65l-.15.25q-.6.6-.85 1.5l-.75 1.25q-.4.9-.5 1.65-.15.35-.15.75 0 1 1 3 1 2.1 3.4 5.5l.6.75q.9 1.4 2.55 1.9l2.25.25h.1l2.4.1 2.25.15.75 2.9-.1.75-2.8.35q-3.85 0-6.5-1.35-1.9-.9-4.4-3.3-1.1-1-2-2.75L2.3 31.7.4 28.45q-.4-.75-.4-3 0-2.5 1.25-4.25 1.15-1.65 1.55-3.15l.1-.85q.65-5.4 3.25-8.05l3.15-3 2.65-2.75Q13.8 0 20.35 0q11.4 0 14.05 3.5" fill="#72240d"/><path d="m26.85 29.6.25-.75h.15q2.5 0 4.35-1.9l.25-.1.5-.65.65-1v-.1l.25-.4v-.1l.9-.3q-.15.3-.15.65h1.25l.9-.1 1.25-.65q2.5-1.4 2.75-4.5v-.25l.75-.25q-.15 3.35-2.15 5-1.35 1.15-3.35 1.5h-.15l-1.6-.1-.9 1.25-.65.6Q30 29.6 27.25 29.6h-.4" fill="#1c0502"/></g><g id="j" fill-rule="evenodd"><path d="m44.4 40.65-.25-2.15-.15-.35q0-.25.15-.4l.35-.1.4.1.25.65.1 1.75.4 4.9.5 14-.15 7.9v.5l-.85 5.05v.1l-.9 2.25q-.5 1-1.1 3.4-.65 2.25-2.05 3.25H41l-2.15.9h-.1l-2.75.5h-3.15q-2.25-.15-3.9-2.9h-.1l-1.65-4.65-.1-.25-.65-2V73l-2.5-8.8-.65-2.1-3.5-7.9-1.9-4.65q-1.5-3.9-2.35-7.9l.1-.4q0-.25.25-.25l.4.15.25.25.1.35q.75 3.8 2.15 7.3l1.9 4.75 1.85 4 1.65 4.05.75 2.1 2.4 8.4.6-.1h.15l7 1.6h.15l2.85-.1q3.65-.4 6.15-1.65.65-2.5.75-5.25l.15-1.15v-6.65l-.5-13.9-.25-4.5M35 74.85h-.15l-6.9-1.6q-.1 0-.25.1l.4 1.75 1.75 4.55v-.15q1.25 2.25 3 2.4H36l2.5-.5v.1l2-.85q1-.9 1.65-2.65.6-2.4 1.25-3.5.1-.65.35-1.15-2.25 1-5.4 1.4l-3 .1H35" fill="#120401"/><path d="M35.25 73.85h-.15l-7-1.6h-.15l-.6.1-2.4-8.4-.75-2.1-1.65-4.05q1.5-2.1 3.9-2.1 3.15 0 5.15 4 1 1.9 1.75 4.65l1.9 9.5" fill="#ffefc8"/><path d="m38.1 73.75-2.85.1-1.9-9.5q-.75-2.75-1.75-4.65-2-4-5.15-4-2.4 0-3.9 2.1l-1.85-4-1.9-4.75 1.4-.15q9.25 0 13.9 10.05l.15.25q1.85 4.15 3.85 14.55" fill="#937081"/><path d="M45.15 65.7 45 66.85q-.1 2.75-.75 5.25-2.5 1.25-6.15 1.65-2-10.4-3.85-14.55l-.15-.25Q29.45 48.9 20.2 48.9l-1.4.15q-1.4-3.5-2.15-7.3l2.55.4 13 1.1 5.55-.35 1.6 3.5 2.25 5.4 1.05 3.5 2.5 10.4" fill="#7c586e"/><path d="m44.4 40.65.25 4.5.5 13.9v6.65l-2.5-10.4-1.05-3.5-2.25-5.4-1.6-3.5 4.5-1.25 2.15-1" fill="#937181"/><path d="M15.55 41.65q.85 4 2.35 7.9l1.9 4.65 3.5 7.9.65 2.1 2.5 8.8v.1l.65 2 .1.25L28.85 80h.1q1.65 2.75 3.9 2.9H36l2.75-.5h.1l2.15-.9h.1q1.4-1 2.05-3.25.6-2.4 1.1-3.4l.9-2.25v-.1l.85-5.05v-.5l.15-7.9-.5-14-.4-4.9-.1-1.75.75-.15q2.1 0 3.35 5.5l.4 2.05q.5 3 .5 5.75l-.25 2.4-.5 10.65-.9 9.4-1.85 5.65q-1.4 3.6-2.4 4.9-1.1 1.25-5.4 2.1l-5 .5-2.65-1.1-2.1-1.25q-1.75-1.05-3.15-4.15l-2.75-5.3q-.5-.85-1-3l-1-3.25-2.4-5.75q-3.9-10.4-5.75-22.6.6.5 1.85.75l.65.15" fill="#0b0c17"/><path d="M35 74.85h.35l3-.1q3.15-.4 5.4-1.4-.25.5-.35 1.15-.65 1.1-1.25 3.5-.65 1.75-1.65 2.65l-2 .85v-.1l-2.5.5h-3.15q-1.75-.15-3-2.4v.15L28.1 75.1l-.4-1.75q.15-.1.25-.1l6.9 1.6H35" fill="#211413"/><path d="m47.4 50.3-5.55 3.15-3.75 1.75q-2.75 1.1-4.25 1.1l-4.15-.25h-.5q-3.5-.5-6-1.6l-1.25-.65-2.15-1.15-.85-.6-2.65-1.9-1-.85-.25-.25-.5-.4-.4-.25v-.1l-.5-.4-.6-.6-2.65-2.65.4.1-5.3-5.5-.25-.25-3.4-3.65L1.5 35l-.4-.5-.25-.15-.75-.85-.1-.4.1-.35q.15-.15.4-.15t.35.15l.65.6L7 39.4l7.4 7.9 1.25 1 1.15 1 2 1.5 1.75 1.25 2.5 1.25.5.25q3.05 1.25 7.15 1.65l3.15.1q1.75 0 5.4-1.75l2.1-1 6.4-3.65q2.3-1.35 4.15-5.25l.5-2.25.15-1.25V30.5l-.25-2.4-.4-2.5q0-3.65-1.25-7.3v-.1L49 12.55l-.85-2.65v-.1q-1.75-5.4-3.4-8.15l-.6-.75L44 .5q0-.25.25-.35.15-.15.4-.15l.25.25.85 1.25q1.65 2.75 3.4 8.05l1.15 3.25 1.35 5.15q1.25 3.75 1.25 7.65l.4 2.25.25 2.65v9.75l-.5 3.15-.25.6q-2 4.3-4.55 5.8l-.85.5" fill="#120401"/><path d="m23.05 53.3-2.5-1.25-1.75-1.25-2-1.5q1.4-2.25 3.75-4.65l4 3.75.25.25.4.15q0 1 .35 2.5 0 .85-1.6 1.65l-.9.35" fill="#79583d"/><path d="M30.7 55.2q-4.1-.4-7.15-1.65l-.5-.25.9-.35q1.6-.8 1.6-1.65-.35-1.5-.35-2.5l-.4-.15-.25-.25-4-3.75q-2.35 2.4-3.75 4.65l-1.15-1-1.25-1 .9-4.4.85-4.5 6.15-2.3 12.45 14.2-4.05 4.9" fill="#593834"/><path d="M39.25 53.55q-3.65 1.75-5.4 1.75l-3.15-.1 4.05-4.9L22.3 36.1l-6.15 2.3-.85 4.5-.9 4.4L7 39.4l4.8.85q-.65-.5-.65-2.5 0-3.15 1.15-4.4l.5-.35q1-.9 3.35-1.9.65-.35 3.8-1.35 3.35-1.05 4.6-1.05 1.8 0 6.55 3.8 2.85 2.25 5.9 3.35l3.75 1q2.65 0 2.9.9l1.1 7.4q0 1.5-2.35 4.5l-3.15 3.9" fill="#352323"/><path d="m40.6 2.9 4.15-1.25q1.65 2.75 3.4 8.15v.1l.85 2.65 1.65 5.65v.1q1.25 3.65 1.25 7.3l.4 2.5.25 2.4v9.65l-.15 1.25-1.5-5.65-1.15-3.9-2.5-6.75q-1.85-5.15-3.1-9.9l-1-4.15L42 6.9l-1.4-4" fill="#342222"/><path d="M1.5 33.35q3.65-6 9.4-11.5 5.75-5.65 13.65-10.7 2.9-1.75 5.55-3.25 5.65-3.25 10.5-5l1.4 4 1.15 4.15 1 4.15q1.25 4.75 3.1 9.9l2.5 6.75 1.15 3.9 1.5 5.65-.5 2.25q-1.85 3.9-4.15 5.25l-6.4 3.65-2.1 1 3.15-3.9q2.35-3 2.35-4.5l-1.1-7.4q-.25-.9-2.9-.9l-3.75-1q-3.05-1.1-5.9-3.35-4.75-3.8-6.55-3.8-1.25 0-4.6 1.05-3.15 1-3.8 1.35-2.35 1-3.35 1.9l-.5.35q-1.15 1.25-1.15 4.4 0 2 .65 2.5L7 39.4l-5.5-6.05" fill="#261716"/><path d="M45.75 1.5 48 1.15l.15.25q1.5 2.35 3.5 7.4l2 5 1.9 5q1.25 4.05 1.5 9.15l.25 8.4q.25 5.55-.9 9.05-1.35 3.5-3.5 5.5-2.25 1.9-3.4 1.65-1.25-.4-1.6-1l-.5-1.25.85-.5q2.55-1.5 4.55-5.8l.25-.6.5-3.15V30.5l-.25-2.65-.4-2.25q0-3.9-1.25-7.65L50.3 12.8l-1.15-3.25q-1.75-5.3-3.4-8.05m-26.8 50.55.35 1.15.75 2.75.15.6-.15.15-.6.5q-1.25 0-3.3-1.25l-1.5-1.15-1.35-1.1-4.15-3.8Q7 48.3 4.75 45.4q-3.25-4.15-3.25-7 .1-1.55.35-3.05L5.25 39l.15.25h.1l5.3 5.5-.4-.1 2.65 2.65.6.6.5.4v.1l.4.25.5.4.25.25 1 .85 2.65 1.9" fill="#0b0c17"/></g><g id="k" fill-rule="evenodd"><path d="m53.15 28.95.25.35.4.65.15.25q0 .75-1.3 1.9l-.5.35 1.9-.35h.25l1.4-.4 5.75-1.75v.1q.4-.25.75-.35l.9-.25h.25q.25-.25.6-.25l1.9-.5 1.6-.25 5.3-.9L74 27.3q4.4-.85 9.65-3l3-1.5 5.9-3q.1-.15.35-.15l.25.15.15.35v.25l-5 8.65-2 4.15q-1.55 2.9-3.4 2.75l-4.25-.25q-3.65 0-15.45 2.4l-2.9.5-8.25 1.65-1.25.1q-.75 0-3-1.15l-2.55-1.5-.35.5.1.15q1.55 1.75 3.55 2.9 1.6.85 3.75 1.35l3.65.25L66.2 41.6q7.05-1.35 10.05-1.35 4.15 0 4 1.85 0 1.15-2.25 6.8l-1.5 3.25-.65 1q-1 1.6-1.5 1.5-.5 0-3.5-1.5l-.75-.4-.75-.25-3.75-1-8.15-1.6-1.5-.15q-5.05-.25-8.4-2.25l-.65-.4-.85-.75Q43 44.1 42 40.85l-.75.15-2.25-.75q-2.15-.65-2.45-1l.05.1-.5-.5q-2.25 1-6.75 1.75h-.15l-8.75.65h-.65q-6.15 0-11-1l-.65-.15-1.5-.4-.25-.25-.1-.35q0-.25.25-.25.1-.15.35-.15l.25.1v.05q4.5 1.15 10.3 1.4h3l8.75-.65q4.3-.65 6.4-1.65l-.25-1v-.1l-.1-1.9-1.5.4h-.5q-1.4.6-8.4 1.85l-5.05.9-4.6.35-5.4-.6-.9-.25-.75-.15-2.4-.5q-2.35-.6-2.6-1.1L3 35.6v-.15q0-.25.25-.25l.4-.1q.25 0 .35.25l.9.35 4.15.9.35.1 3 .5 2.8.25 4.6-.35 4.9-.9 6.55-1.25-3.15-1.35-1-.65-6.3-4-.25-.25-.25-.25h-.1l-.4-.25-.6-.5-1-.75-.65-.65-1.1-.85-5.55-4.55-1.1-1.1-1.75-1.75Q5 15 3.9 12.9q-.5-.9-.65-1.65 0-.25.15-.35 0-.25.25-.25l.35.1.25.25q.15.75.65 1.65 1.25 2.25 4.75 5.65l2.15 2 .1.1 1.9 1.65 3.25 2.65 2.15 1.6.6.5 1 .75.15.25q.1 0 .25.15l1.4 1q3.35 2.35 6 3.75l1.5.75q1.65.65 3 .9h.4l1.85-.4.25-.25.65-.5-.25-.1-1.25-.5-.5-.25-.9-.4-1.1-.65-2.3-1.25-2-1.25h-.1l-.25-.35h-.25l-2.75-2-1.9-1.65-1-.9-1.25-1v-.1l-.25-.25-.4-.25-.25-.25-2.35-2.4q-2.4-2.5-4.3-5.15-1.35-1.75-2.35-3.5l-.25-.5q-.15-.1-.15-.35 0-.25.25-.25.15-.15.4-.15l.35.25.4.75q2.35 4 5.9 7.8l.6.6 1.75 1.9 1 .85.25-.5q1.65-2.35 3.15-5.9l.4-.75 1.5-4.5q.5-2.25.35-3.9l-.1-.75.1-.35q0-.25.25-.25l.4.1.25.25.1.5q.25 1.75-.35 4.4l-1.65 4.9-.25.5-.6 1.4-2.65 5q-.25.1-.4.5l.65.6h.15l1.6 1.4v.15h.15l.1-.25.25-.55q0-.1.15-.1l3.6-6.4.5-.75.25-.75q.75-2.5 1.3-5.65l.5-5.65V3.1l.1-.35.4-.15.35.15.15.35v1.15l-.5 6q-.5 3.15-1.3 5.65-.25.5-.35 1.15-.15 0-.15.25l-3.85 6.75-.25.5-.25.4-.25.25h-.15l1.65 1.25 1.6 1.1.15.25q.1 0 .25.15l.35.1 1.15.75 1.15.75 1.5.75.6.4 1.65.75 2.75 1.15q.65-.4 1.5-.65 1.5-.65 3.4-1.15h.1q.5-.1 1.5 1l4.55-3.35h.1l.5-.5q0-.15.15-.15l.1-.25 1-1-1-1.6h.15l-.15-.15-1.25-3-1-1.75-2.5-4.8-.9-1.75-1.6-3.25q-1.65-3.65-3.4-8.4L38.4.75q-.15-.25 0-.4 0-.25.25-.25.1-.15.35 0l.25.25.4 1.15.1.35 3.5 8.4Q44 12 44.9 13.5l.6 1.25 2.8 5.3.75 1.25v.1l.35.9 1 2.25.75 1.5.25.15.9 1.5v.25l.35.25v.1l.5.65m7.05 8.75 2.9-.6q11.9-2.4 15.55-2.4l4.25.25q1.35-.1 2.5-2.25l1.9-3.75.1-.25v-.15l4.15-7.15q-1.9.9-3.25 1.65L84 25.2l-6 2.1-5.15 1.25-2.75.5-3.9.65h-.1l-.9.25-.85.1-2 .65-.5.25q-1.4.35-2.8.85l-3.1.9-2.55.65-2.35.5h-.4l-.1-.15-1.15.65-3 1.6-.65 1h.15l2.4 1.4q2 1 2.5 1l1-.15 8.4-1.5m-12.65 4.05q-1.9-1.15-3.3-2.8l-1.35 1.4.1.25q.9 3 3.55 5l.85.65 1.4.75q3 1.5 7.15 1.75l9.9 1.75 4.5 1.25.15.15 1.1.5 1.5.75 1.25.5.5-.5.5-1 .15-.25 1.6-3.4q2.15-5.25 2.15-6.4-.1-.85-3-.85-3 0-9.8 1.35l-10.5 1.25q-5.05 0-8.4-2.1m-4.05-8.9v-.15h-.1l-.75-.9-3.5 1.15H39l-1.25.5q-.15 0-.15.15-.85.35-1.35 1l.1.75v1.5l.4 1.1.35.5h.15l1.75.75h.25l.15.15 1.85.65q1.5-.15 4.15-4.4l.1-.25-1.35-1.75-.65-.75m1.15-.25q-.15 0-.15.1l.9 1 1 1 3-1.5 1.5-1q1.75-1.15 2-1.9l-.85-1.25-.25-.35-.15-.25-.25-.15v-.1l-.5-.75-.5.6-.25.25-.25.15-.1.25-.4.35-4.75 3.55" fill="#150402"/><path d="m62.35 30.7 2-.65.85-.1.9-.25h.1l3.9-.65 2.75-.5L78 27.3l6-2.1 4.3-2.15q1.35-.75 3.25-1.65l-4.15 7.15v.15l-.1.25-1.9 3.75q-1.15 2.15-2.5 2.25l-4.25-.25q-3.65 0-15.55 2.4l-2.9.6q0-2.25 1-4.75l.5-1.15.65-1.1m-14.8 11.05q3.35 2.1 8.4 2.1l10.5-1.25q6.8-1.35 9.8-1.35 2.9 0 3 .85 0 1.15-2.15 6.4l-1.6 3.4-.15.25-.5 1-.5.5-1.25-.5-1.5-.75-1.1-.5-.15-.15-4.5-1.25-9.9-1.75Q51.8 48.5 48.8 47l-1.4-.75-.85-.65V44q0-1.75 1-2.25" fill="#9f0d07"/><path d="m60.2 37.7-8.4 1.5v-.25q0-3.35 1.6-5.6l2.55-.65 3.1-.9q1.4-.5 2.8-.85l.5-.25-.65 1.1-.5 1.15q-1 2.5-1 4.75" fill="#650d0e"/><path d="m5.75 36.95 2.4.5.75.15.9.25 5.4.6 4.6-.35 5.05-.9q7-1.25 8.4-1.85h.5l1.5-.4.1 1.9v.1l.25 1q-2.1 1-6.4 1.65l-8.75.65h-3q-5.8-.25-10.3-1.4v-.05l-1.4-1.85M51.8 39.2l-1 .15q-.5 0-2.5-1l-2.4-1.4h-.15l.65-1 3-1.6 1.15-.65.1.15h.4l2.35-.5q-1.6 2.25-1.6 5.6v.25m-8.3-6.35.65.75 1.35 1.75-.1.25q-2.65 4.25-4.15 4.4l-1.85-.65-.15-.15H39l-1.75-.75h-.15l-.35-.5-.4-1.1v-1.5l-.1-.75q.5-.65 1.35-1 0-.15.15-.15l1.25-.5h.15l3.5-1.15.75.9h.1v.15m3.05 12.75q-2.65-2-3.55-5l-.1-.25 1.35-1.4q1.4 1.65 3.3 2.8-1 .5-1 2.25v1.6m-1.9-13 4.75-3.55.4-.35.1-.25.25-.15.25-.25.5-.6.5.75v.1l.25.15.15.25.25.35.85 1.25q-.25.75-2 1.9l-1.5 1-3 1.5-1-1-.9-1q0-.1.15-.1" fill="#3e080c"/><path d="m28.2 17.4-3.6 6.4q-.15 0-.15.1l-.25.55-.25.1-1.6-1.4h-.15l-.65-.6q.15-.4.4-.5l2.65-5 2.25.5 1.35-.15" fill="#a98f94"/><path d="m17.2 19.65 2.35 2.4.25.25.4.25.25.25v.1l1.25 1 1 .9q-1.75.4-2.65 1.5l-.25.5-.6-.5-2.15-1.6-3.25-2.65 1-.9 1.15-.75 1.25-.75" fill="#a88d92"/><path d="m30.75 4.6-.5 5.65q-.55 3.15-1.3 5.65l-.25.75-.5.75-1.35.15-2.25-.5.6-1.4.25-.5 1.65-4.9q.6-2.65.35-4.4 1.9-.85 3.3-1.25M10.55 11q1 1.75 2.35 3.5 1.9 2.65 4.3 5.15l-1.25.75-1.15.75-1 .9-1.9-1.65-.1-.1-2.15-2q-3.5-3.4-4.75-5.65l4.75-1.4.5-.1.4-.15m21.7 20.3 1.1.65.9.4.5.25 1.25.5.25.1-.65.5-.25.25-1.85.4h-.4q-1.35-.25-3-.9l-1.5-.75q2.15-.35 3.65-1.4" fill="#987b83"/><path d="m22.7 24.8 1.9 1.65 2.75 2h.25l.25.35h.1l2 1.25 2.3 1.25q-1.5 1.05-3.65 1.4-2.65-1.4-6-3.75l-1.4-1q-.15-.15-.25-.15l-.15-.25-1-.75.25-.5q.9-1.1 2.65-1.5" fill="#fff0cf"/><path d="m31 29.55-1.15-.75-1.15-.75-.35-.1q-.15-.15-.25-.15l-.15-.25-1.6-1.1v-.15q0-.35.5-.75l.75-.5q.35-.25.75-.25l1-.25q1.25 0 2 .9l.65 1 .1 1.1-.5 1.25-.25.25-.1.15-.25.35m-12.8-2.6 1 .75.6.5.4.25h.1l.25.25.25.25 6.3 4-4 .75-.5.15q-4.8 1.35-10.7 1.25v-1q.15-3.3.75-5.05.75-2.75 2.8-2.75h.25l2.5.65" fill="#193a9d"/><path d="M26.45 6.35q.15 1.65-.35 3.9l-1.5 4.5-.4.75q-1.5 3.55-3.15 5.9l-.25.5-1-.85-1.75-1.9-.6-.6q-3.55-3.8-5.9-7.8l3.65-.85 6-1.5q1.75-.4 4.65-1.8l.6-.25" fill="#b45b3c"/><path d="M38.75 1.85q1.75 4.75 3.4 8.4l1.6 3.25.9 1.75 2.5 4.8 1 1.75 1.25 3v.15l1 1.6-1 1-.1.25q-.15 0-.15.15l-.5.5h-.1L44 31.8q-1-1.1-1.5-1h-.1q-1.9.5-3.4 1.15-.85.25-1.5.65l-2.75-1.15 1.1-2.65.5-2v-.5q-.35-1.5-2.85-4.9-2.15-3.1-3-3.85-.25-.25-.4-.25h-.65q0-.25.15-.25.1-.65.35-1.15.8-2.5 1.3-5.65l.5-6q2.5-1 7-2.4M3.9 12.9Q5 15 8.05 18.05L9.8 19.8l1.1 1.1q-1.6 1.4-2.35 3-.4 1.05-.5 2.4-.15 1-.15 2.15v.6q.15 2.4.75 5.05l.75 2.6-.35-.1-4.15-.9-1.15-1.6-1.1-1.65q-.9-1.65-1.5-3.4l-.65-2.5Q0 24.2 0 21.8q0-1.25 1-4.65l1.25-3.65v-.1l1.65-.5" fill="#091629"/><path d="m34.75 31.45-1.65-.75-.6-.4-1.5-.75.25-.35.1-.15.25-.25.5-1.25-.1-1.1-.65-1q-.75-.9-2-.9l-1 .25q-.4 0-.75.25l-.75.5q-.5.4-.5.75v.15L24.7 25.2h.15l.25-.25.25-.4.25-.5 3.85-6.75h.65q.15 0 .4.25.85.75 3 3.85 2.5 3.4 2.85 4.9v.5l-.5 2-1.1 2.65M10.9 20.9l5.55 4.55 1.1.85.65.65-2.5-.65h-.25q-2.05 0-2.8 2.75-.6 1.75-.75 5.05v1.1q0 1.25.5 2l-3-.5-.75-2.6q-.6-2.65-.75-5.05v-.6q0-1.15.15-2.15.1-1.35.5-2.4.75-1.6 2.35-3" fill="#173857"/><path d="m27.1 32.95 1 .65 3.15 1.35-6.55 1.25-4.9.9-4.6.35-2.8-.25q-.5-.75-.5-2v-.1q5.9.1 10.7-1.25l.5-.15 4-.75" fill="#061224"/><path d="m52.05 40.25 8.25-1.65 2.9-.5q11.8-2.4 15.45-2.4l4.25.25q1.85.15 3.4-2.75l2-4.15 5-8.65v-.25l-.15-.35-.25-.15q-.25 0-.35.15l-5.9 3-3 1.5q-5.25 2.15-9.65 3l-1.25.25-5.3.9-1.6.25-1.9.5q-.35 0-.6.25h-.25l-.9.25q-.35.1-.75.35v-.1L55.7 31.7l-1.4.4h-.25l-1.9.35.5-.35q1.3-1.15 1.3-1.9l-.15-.25-.4-.65-.25-.35 1.15-.4.9-.35 1.1-.5 2.75-.15 5.4.15q1.5-2.15 7.05-7.05l1.1-1 1-.75q12.95-2.25 19.7-2.25 2.25 0 3.15 1.25.6 1 .6 3.5 0 1.65-.5 3.15l-1.1 2.25-3.55 4.75-3 5.05q-2.25 3.4-4.9 3v1.25q.4.75.4 2.4 0 2.6-2.75 8.4l-.5 1.1q-.15 0-.15.15l-.1.25-2.65 3.25L76 57.9l-1.65.65q-1 .1-2-.75-1-.9-2.6-1.25-4.15-2.15-6.65-2.05-2.55.15-3.55-.6l-.6-.75q-.75-1-1.5-3.25l8.15 1.6 3.75 1 .75.25.75.4q3 1.5 3.5 1.5.5.1 1.5-1.5l.65-1L78 48.9q2.25-5.65 2.25-6.8.15-1.85-4-1.85-3 0-10.05 1.35l-10.25 1.25-3.65-.25-.25-2.35" fill="#0b0c17"/><path d="m53.15 28.95-.5-.65v-.1l-.35-.25v-.25l-.9-1.5-.25-.15-.75-1.5-1-2.25-.35-.9 8.15.25 9-1.5 5.4-1 2-.25-1 .75-1.1 1q-5.55 4.9-7.05 7.05l-5.4-.15-2.75.15-1.1.5-.9.35-1.15.4" fill="#08172b"/></g><g id="l" fill-rule="evenodd"><path d="m37.85 46.05.55-.15h.1q1-.35 1.9-1l.6-.35q1.4-1.15 2.4-1.75l.1-.25-.25-1.4-.6-3.4L42 34.4 40.15 26v-.25l-.25-.4-.15-.65-.35-.5-.15-.25v-.1l.15-.4.35-.1.4.1.25.4.25.35.1.5.15.4v.4l.25.25 1.85 8.4v.1l.5 2.9.15.5.6 3.35.25 1.65v.4q.4 2.1.4 3.5l-.15 1.6-.5 1.65-1.1 1.25q-.15 0-.15.15l-1.85.85h-.4l-.25.15-2.5.1q-1.9 0-4.4-1.1l-4.15-2.65-.35-.15-.15-.1-2.6-2-1.4-1.4-1.75-1.5-4-4.25-1.65-2-.85-1.65-.15-.35-.1-.4.1-.35q0-.25.25-.25l.4.1.25.25v.15l.1.25 1.15 2 1.5 2 3.4 3.5 2 1.75.75.75 3.25 2.5 1.5-.1 3.25-.4 3.5-.85m-6.75 2.5 3.5 2q1.9.75 3.4.75l2.4-.1h.1q.15-.15.25-.15l1.75-.75.9-1 .35-1.25v-.15l.15-1.35-.25-2.75-2 1.5-.4.1-.35.25-.25.4-1.65.85h-.35l-3.05.75-4.75.65.25.25" fill="#120401"/><path d="m20.2 38.9 1.75-.25 3.15.35 1.35.5q2.4.9 3.15 2.3l2.65 3.25q1 1.25 2.1 1.85l-3.25.4-1.5.1-3.25-2.5-.75-.75-2-1.75-3.4-3.5" fill="#fff1cd"/><path d="m18.7 36.9 1.75-.15 5.65.4.1.1q1.65.4 4.65 2 2.75 1.65 3.9 3.3.6 1 3.1 3.5l-3.5.85q-1.1-.6-2.1-1.85L29.6 41.8q-.75-1.4-3.15-2.3L25.1 39l-3.15-.35-1.75.25-1.5-2" fill="#9e7f88"/><path d="M37.85 46.05q-2.5-2.5-3.1-3.5-1.15-1.65-3.9-3.3-3-1.6-4.65-2l-.1-.1-5.65-.4-1.75.15-1.15-2q1.5-1.15 5.3-3.3 3-1.6 7.9-4.25 3.5-2.15 6.35-2.9l.5.9 1.65 3.25q2.15 4.5 3.4 9.15l.6 3.4.25 1.4-.1.25q-1 .6-2.4 1.75l-.6.35q-.9.65-1.9 1h-.1l-.55.15" fill="#8a6878"/><path d="M42.65 37.75q-1.25-4.65-3.4-9.15l-1.65-3.25-.5-.9 1.65-.5h.5l.15.25.35.5.15.65.25.4V26L42 34.4l.65 3.35" fill="#937081"/><path d="m16.55 35.15.15.35.85 1.65 1.65 2 4 4.25 1.75 1.5 1.4 1.4 2.6 2 .15.1.35.15 4.15 2.65q2.5 1.1 4.4 1.1l2.5-.1.25-.15h.4L43 51.2q0-.15.15-.15l1.1-1.25.5-1.65.15-1.6q0-1.4-.4-3.5v-.4L44.25 41l-.6-3.35 3.15 4.25 1 1.5q.6 2.9.6 4.5 0 4.3-3.4 6.55-4.75 2.35-6.9 2.35-1.85 0-7.5-3.5l-.65-.35q-5.6-3.5-5.85-4.05l-2.05-1.75-3.1-3.1q-3.75-3.8-3.75-6.9 0-.5.75-1.4l.6-.6" fill="#0b0c17"/><path d="m30.85 48.3 4.75-.65 3.05-.75H39l1.65-.85.25-.4.35-.25.4-.1 2-1.5.25 2.75-.15 1.35v.15l-.35 1.25-.9 1-1.75.75q-.1 0-.25.15h-.1l-2.4.1q-1.5 0-3.4-.75l-3.5-2-.25-.25" fill="#281816"/><path d="m9.55 8.3.5-.5.5-.65v.15q2.25-2.4 4.65-4Q20.05.15 25.85 0h.5q5.25 0 9 2.05 3.15 1.5 6.3 5.25l7.4 8 4.5 4.3.1.35-.1.4-.4.1-.25-.1-3.6-3.4-.65-.65-.25-.25-7.5-8.15q-2.25-2.6-4.4-4-.15-.25-.4-.25v-.1l-1.25-.65q-3-1.65-7-1.75L26.35 1Q20.2 1 15.2 4.55 13.15 5.9 11.3 7.9q-4.5 4.65-5.8 10.3-.5 2.15-.5 4.4l.15.5v.5Q6 28.25 10.9 34.4h.15l.35.35 1.5 1h.15v-.1l3.25 1 2.75.6 4.05.65q2 0 8.9-2.4l5.25-1.85h.1q3.9-3.3 5.15-4.9 2-3 1.4-6.9v-.75q0-.5.25-.9l.35.5.4 1 .1 1q.25 3.65-1.6 6.65-1.4 1.75-5.55 5.05l-.1.1-7.65 2.65q-5.25 1.75-7 1.75l-3.9-.5-3.15-.75-3.4-1q-1.85-.75-2.5-1.65L8.8 33.25q-3.9-5.4-4.65-9.55v-.6L4 22.6q0-7.9 5.55-14.3" fill="#0f0201"/><path d="m12.9 20.1 2.4 2.6 1.4 1.65 1.1 1.15q1.15.6 3.75.85h3.55q-.5 1.9-1.75 3.75-1.9 3.15-4.15 3.15h-.9q-2.85-.25-4.9-1.9-3.35-4.5-3.35-5.75 0-.75 1.35-3l1.5-2.5" fill="#8e6f48"/><path d="m11.4 34.75-.35-.35h-.15Q6 28.25 5.15 23.6v-.5L5 22.6q0-2.25.5-4.4H6q5.55 0 8.05-4.5l.1-.25h.25l1.15-.15q3.75-.5 8.05-3.9h.1q1.4 1.15 5.15 6.8 1.65 2.4 2 4 .4 1.65-.25 5.8-.65 4.1-2.9 7-2.35 2.75-8.65 2.75h-.1L13.9 35l-2.5-.25m1.5-14.65-1.5 2.5q-1.35 2.25-1.35 3 0 1.25 3.35 5.75 2.05 1.65 4.9 1.9h.9q2.25 0 4.15-3.15 1.25-1.85 1.75-3.75h-3.55q-2.6-.25-3.75-.85l-1.1-1.15-1.4-1.65-2.4-2.6" fill="#724b3f"/><path d="M9.55 8.3Q4 14.7 4 22.6l.15.5v.6q.75 4.15 4.65 9.55L10.15 35q.65.9 2.5 1.65l3.4 1 3.15.75-.65 2.5q-.35.65-2.1.65-2.15-1.05-3.8-1.05-1.25 0-3.75-1.1-2.65-1.4-4.65-5.15-2.35-4.5-3.1-6.9-1.15-3.4-1.15-8 0-1.15 1.75-3.8l2-2.85q.9-2 5.8-4.4" fill="#0b0c17"/><path d="M32 35.5q-6.9 2.4-8.9 2.4l-4.05-.65-2.75-.6-3.25-1q-.15 0-.15.1l-1.5-1 2.5.25 5.05.75h.1q6.3 0 8.65-2.75 2.25-2.9 2.9-7 .65-4.15.25-5.8-.35-1.6-2-4-3.75-5.65-5.15-6.8h-.1q-4.3 3.4-8.05 3.9l-1.15.15h-.25l-.1.25q-2.5 4.5-8.05 4.5h-.5q1.3-5.65 5.8-10.3 1.85-2 3.9-3.35Q20.2 1 26.35 1l1.5.15q4 .1 7 1.75l1.25.65v.1q.25 0 .4.25.6.5 1.1 2.25l.8 2.9.1.9q.65 3.1.65 6.75 0 6.65-1.9 11.3-1.75 4.25-5.25 7.5" fill="#462f2a"/><path d="m45 22.7-.1-1-.4-1-.35-.5q-.25.4-.25.9v.75q.6 3.9-1.4 6.9-1.25 1.6-5.15 4.9h-.1L32 35.5q3.5-3.25 5.25-7.5 1.9-4.65 1.9-11.3 0-3.65-.65-6.75l-.1-.9-.8-2.9q-.5-1.75-1.1-2.25 2.15 1.4 4.4 4l7.5 8.15.25.25.65.65q3.5 3.75 2.75 5.15-.9 1.5-7.05.6" fill="#2b1a16"/></g><g id="m" fill-rule="evenodd"><path d="m131.3 16.05-1.15-.75-1.4-.75-1.85-1.15q-2.65-1.35-15.55-6.65l-.25.4-.9.75-1.1.1Q91.4 4.15 85.9 4h-.15L77 4.65q.5.75 6 2L97.65 9.5q9.05 1.65-5.75.75l-15.65-1h-2.8q-4.35-.5-11.4-.25l-12.4.25q-5.5-.25-10.8.25-8.75.75-9.15 2.3l1.65 1.35.5.5h.1l2.15 1.65 1.75 1.5.75 1v.1h.25l5.4.25q1.65 0 2.75.8l.4.5-.15.5-.35.35h-.25l-.4-.1q-.85-.5-2-.5l-5.65-.25h-.25l-.5.5-1.15.35q-8.75.15-21.4 2.75l-1.8.4-6.35 1.35q-.15 0-.4.15l-.5.1q.65 3.8 2.15 7.8.5 1.6 1.35 3.25l1 2.15.25.6 4.65 9.4 1.15 2.55 1 1 .6.6 3.55 4.15 3.5 4.5.1.15 1.75 2.6 1.75 2.15 2.9 1.25h.15q2 1 3.35 1.9l.5.35 3.8 2.65q2 1.35 2.25 1.75.1.25-1.4-.5l-4.4-2.25-1.6-.75-1.4-.9-1.75-.85q-2.25-1-3-1.25l-.15-.15q-.75-.35-2.25-2.5l-1.6-2.65-4.65-5.65-1.25-1.5.5 1.5 3.15 8.55 2.75 3.9.5.6 3.35 5.3v.5q-.1.25 1.8 3.35l1.35 2.25.4.5q3.5 5.65-.4.4l-1.75-2.5-.5-.75-2.4-3.4-3.6-5.4 1.35 4.4.75 2.5.4 1.65q1.35 5.4 1.35 8 .25 1.5-2.25 3.5l-.75.55v.1q-1 .65-1.35.4l.1.25 2.5 2.85 2.25 2.5.9.9q.5.65.5 1.4v.85l-1.25 2.25v.15l-.5.6q-.15.25-.15.4.25 1 1.9 2.6 2.75 2.8 3.25 3.9l.15.15v.1l2 3.9.75 1.5q2.15 3.9 3.4 5.4 1.25 1.4.85 2.25-.35.65-2.5 1.15l-3.25.6-2.5 2.4-.4.5 1 .1q.15 0 .25.15l.9.25 1-.15 2.5-.35h.65l.35.1 1.4.5q.25 0 .35.15l.65.35H36l-.5.25-2.15.4.75 1.4v.1l.1.65.75 2.1.15.15.1.6h1.55l.25.15.6.25q.25 0 .5.35v.5l-.35.5h-.65l-.35-.25H35.6v.75l-.25 1.65v.25l-.65 1.5-1.85 3.4q-1.15 1.5-1.65 2.75-.5 1-.6 1.75l.35.5q.75.75 3.25 1.5 2.55.9 5.8 1.5h.25l2.25 1q1.75 1 3.5 2.8v.1l.4.4.5.5-.25-.75-.15-.4-.35-1.1-.4-1.55-.5-2.35-.25-2.75q0-1 .75-3.55 0-.25.15-.35-1.75-.5-2.8-2.25l-.35-.75q-.5-1.15-.5-1.9 0-.6.75-2.15l.4-.5q-.15-.1 0-.1l.1-.4.65-2-.15-1.5v-.25l-.1-.6-.65-2.65-.9-2.75v-.25l-.6-1.65-1.4-3.5q-.35-.25-.35-.5l-.25-.5-.15-.25q-.35-1.75-2.6-5.15l-.15-.15q-1.25-2-2-3.6-1-2.4-1-4.3l.1-3 .25-2.5v-.35q.25-1.75.65-3.3.35-1.6 1-3v-.1l.75-1.4.9-1.75.6-1.25v-.15l3.15-6.6.25-.55q.1-.35.35-.35.25-.15.65 0l.5-.15.4.4q1.1 1.75 4.25 4.15v.1q3.1 2.5 5.65 2.9h.1l-.1-.15q-3.15-3.1-4.9-5.35l-1.4-1.8-.1-.35q0-.25.25-.35v-.05l.35-.1.4.25q1.75 2.65 6.15 7l.1.4-.1.35-.25.15h.5l2.75-.75q2.9-1.4 6.9-5.15l.6-.6q.15-.15.25-.15l7.55-7.75.5-.3q.25 0 .5.3l.6.5.15.1 6.9-5.4 1.6-1.25q.3-.25.65-.25l.5.25.15.65v.75q0-.15.1-.15l.65-.25 8.75-5.65.65-.35 13.15-8.9q.15-.15.4-.15h.1l.25.15.4.35q.35.75.35 2.9v2.65h.9l8.25-5.9.5-.15.5.25.15.5v4.15q-.4.75-1.5 6.4v1.9h.35q.65-.5 2-1.15l1.25-1q.15-.25.5-.4.25-.1.5.15l.4.35v.5q-.15.25 0 .55 0 .75.65 1.75l.85 1.35.65 1.4v.1l.35 3.15q.25.65 1 .75h.25l2.4-.9q2.25-1.1 2.75-1.85l.5-.4q.25 0 .5.15l.4.5-.15.5q-.5.85-2.9 2.25l.65 4.25.5 4.15v.9l-.1 2.85q-.25 4.15-1.3 8.15l-.1.25.35-.25.4-.1h1.65l.5.1.25.4v.35q-.15.65 0 1.15 0 .75.35 1.4.4.85 1.15 1.6l1 .9 1 1 1.85 1.75h.15l.5.6 1.9 2.15 1.75 2.15q2.35 2.85 2.25 3.6l-.15 2.15q-.5 4.25-3.1 9.8-1.9 4.1-4.05 7.25l-.1.15-1.5 2-1.25 1.35-.4.4-.6.6q-2.5 2.3-6.05 4.55l-1.85 1.1-1.4.9-2 1.35q-1.25 1-1.4 1.55.15 1.1 2.05 1.6l1.6.25h3.15l.25-.25q0-.25.25-.25t.35.15l.25.25v.1h.15l.85-.1h2.55l.5.25.25.5-.25.5-.5.25-4.4.1-3.15 3.65-1 1.15-4.25 3.5-7.4 5-5.3 2.9q-6.5 3-13.15 5l-.75.15-.35.1q-7.05 1.65-12.55 1.65h-1.9l-7.15-.4q-3.35-.5-6.5-2.25l-.4-.1-8.15-4.9-3.85-2.4-1.55-1.15-.35.65-1.25.75q-.9.15-1.5-.35-1.15-.8-4.05-4.15H43q-1.9-2-3.9-2.65l-6.15-1.6q-1.75-.65-3-1.3-3.75-1.85-3.4-4.5v-.1q0-.5.15-.9.35-2.25 2.75-5.75l.9-1.4q1.1-2.1 1.25-3.15v-.25l-.25-1-.15-.5q-1-2.5-1-3l-.75-.1-2.65-.5-.5-.25-.6-.5-.25-.25q-.4-.5-.4-1.15v-2.4l.25-.75q.5-1 4.05-4.25h.1q1.75-1.65 2.15-1.65l-1.5-2.75-1.9-3.5-1.15-2.25v-.15l-2-2.25-.5-.5q-3.25-3.25-3-5.5v-.4q.15-1.35 1.5-3.1l.15-.25-2.25-2.55-.25-.25q-3.65-4-3.55-5.5v-.1q-.1-.5.25-1.15.5-1.15 2.9-2.65 1-.75 1.25-.75 0-2.75-1.6-8.4l-2.55-8.4-4.75-13.4-.6-1.65-1.15-2.5L5.15 40l-.65-1.15-1.15-2.5L2 32.85q-1.5-4.4-2-8.65v-.65q0-.75.5-1.25.35-.5 1-.6 16.3-4.15 27.7-5.05l-1.25-1.1-1.65-1.9q-.75-1.1-.6-1.85-.5-5.15 12.8-6.3 5.4-.5 11.15-.25L61.95 5q6.4-.25 10.75.15v-2.9q0-.9.65-1.4.5-.6 1.35-.6L77 .6l8.75-.6q5.15 0 21.85 3.65h.25q.1-.5.5-.9.1-.4.35-.5.25-.25.65-.25.6-.25 1.25 0 15.3 6.4 18.15 7.9 4.8 2.5 8.3 5.4l3.9 3.9.75-1.15q.35-.5 1-.75.6-.25 1.25 0 .6.1 1 .75l1.9 2.15.1.1.75.9 6.25 5.65.15.1 2.15 2.4q3.5 4.25 5 9.5l.35 1.15 1.8 4.15 3.75 8.65q5.65 13 5.5 15.3v.85l-.6 5.55q.25 1 2 3.6h.1l2.25 3.75.65 1.15v.15q.9 4.6 3.75 6l.4.25 4 .35 5.25.65.15.15q11.65 2.1 11.15 5.85.15 1.25-.75 3.05l-.5.75-2.5 3.35-.9 1q-2.5 2.9-6.5 6.65l1.1.5-.25-.1q2.55 1.1 2.55 4l-.25 2.25v.15l-.15.25.5.5q2 2.25 1.75 3.25.25 5-9 13.15l-.15.15-5.15 4.25-9.5 6.8-5.4 3.1-1.5.25q-.9-.25-1.25-1-.4-.75-.15-1.5.25-.85 1-1.25.5-.35 1.25-.6 5.55-3.3 13.2-9.05v.1q.6-.6 1.35-1.1l.15-.15 1.5-1.25q9.4-7.65 9.65-11.9-.25 0-.65-.35l-.1-.15-1.25-1.25-.75-.9q-.25-.5-.15-1l.5-1 .5-.6.15-.5q-.15-.15-.15-.65l-.1-.35-.4-.15-1.1-.35-1.15-.75h-.75q-.9 0-1.4-.65-.5-.65-.5-1.5 0-.9.75-1.4l6.4-5.9 1.15-1.1 3-3.4.65-.75q1.1-1.9 1.25-2.9l-.65-.35q-1.6-.65-7.15-1.65l-10.75-1.5-.15-.1-.6-.25q-2.8-1.5-4.15-4.9-.75-1.65-1.15-3.75v.1l-2.35-3.65q-2.9-4.25-2.8-6v-.1l.65-6.3q-.25-2.15-5.15-13.55l-4.25-9.75L158.1 42l-.35-.9V41l-.65-2.15q-1.85-5-5.9-9h.15l-.15-.15q-4.85-4-7.65-7.15-.35.4-.35.75l-.65 1.15q-.35.35-1 .5l-1.1-.15-.9-.75-.75-1.1-2.15-2.5-.1-.15q-2.25-2.25-5.25-4.25M42.35 83.4l-2.25 4.75-1 2-.25.5-.6 1.4-1 2v-.15l-.15.15-.75 2.35-.6 3.4q-.15.65-.15 1.4l-.1 1.35-.15 3q0 1.9 1.25 4.4l1.5 2.65.75 1q1.9 3.15 2.25 4.9l.25.5v.6l.15.4 1.1 3.15.8 2V125l1 3.15.6 2.65v.5l.15.5v1.35l-.25 1.15-.25.85-.4.9-.1.1q-.9 1.65-.9 2.15 0 .75.65 1.9l.1.25q.75 1.35 2.15 1.85l.25-1.25.1-.5.15-.25v-.25q0-.25.25-.25l.35-.1.4.25v.75l-.4 1.25-.25 1v.1l-.25.75q-.75 2.3-.75 3.3 0 1.25.4 2.85.1 1 .5 2.25l.25 1.3 1 3.1q.1.65.35 1.15l1 .85.4.5.1-.1.4.1.25.25v.5l1.15.9q1.6 1.15 4.35 2.75l8.15 4.9 2.15 1q2.15.9 4.4 1.25l7.65.4h1.25q5.65 0 12.65-1.75l4.4-1.3q4.75-1.6 9.4-3.75h-.15l7.3-4.15 5.25-3.6 3.5-2.9 1.15-1 .65-.75 2.5-2.9h-2.15l-2.5-.35q-2.75-.75-2.65-3-.1-1.65 5.4-4.9l.15-.15.5-.25.1-.1q3.25-2 5.8-4.05l.75-.6.35-.4.5-.35 1.75-2 .75-1q0-.15.15-.15 2.35-3.25 4.5-7.9 2.15-4.5 2.9-8.15l.25-3.15q-.15-.6-3.25-4.25v-.1l-.65-.65-2.15-2.4v-.1l-.35-.4-2.25-2-.5-.5-.75-.6q-1.4-1.4-1.9-2.75l-.25-1.4v-.5h-.5l-.5.5q-.65.35-1 .65l-.65.1-.5-.25-.25-.5v-.4l.15-.25q1.35-4.6 1.6-9.25l.15-2.4v-1.5l-.5-3.9-.5-4-1.9.75h-.25l-1.1-.1q-1.25-.4-1.65-1.75v-.25l-.35-3.05-.9-1.75-.4-.6v.1l-.75-1.75q-.35.15-.6.4-1.5.6-2 1.1l-.5.15h-1.25l-.5-.25-.25-.5v-2.9q1.1-5.5 1.5-6.65V56.4l-7.15 5.15-.5.15h-1.9l-.5-.25-.25-.5v-4.8l-.25.15-11.15 7.65-1.5.85-.4.25-7 4.4q-1.75 1-3.25 2l-.4.15-.5.1-.5-.25-.15-.5.15-.5-.25.25q-7.3 5.8-8.15 5.65l-.5-.25-.25-.25-.15-.1-.6.6-5.25 5.4-.4.4-1.75 1.75q-4 3.75-7.15 5.25-2.15 1-3.75 1-1.75 0-3.8-1l-3.5-2.25L43.4 84l-.8-.85-.1-.25-.15.5M76.5 119l-.15.25-.35.1h-.4l-.75-.1q-2.4-.65-3.15-1.25-1.35-1-1.35-2.9-.15-.6.1-1.25v-.4q0-.25.25-.25l.4-.1.35.25v.4q-.5 2.35.9 3.5.85.6 3.75 1.1l.25.25.15.25v.15m-8.8 3.9q.15-.15.4-.15l2.25-.35v.1l1.6-.85q.15-.15.4-.15l.35.25v.4l-.25.35-1.75.9-2.6.35-.4-.1-.1-.4.1-.35m-6.65-2.8v.15q0 1.25-1.25 3.25l-.35.25h-.4l-.25-.35.1-.4q1.05-1.65 1.15-2.65-.6-2.85-1-3.25l-.25-.25.1-.35.4-.25.4.1q.5.4 1.35 3.75m5.5 17.45 2.9-.1 5.4.25 4.5.35 1.4.25.35.25.15.4.35 1.1v.65q-.1.85-1.1 1.75l-1.5-.4 1.1-1 .25-.35v-.25l-.25-.9-1.6-.25-4.4-.5-4.65-.1-4 .1-1.5.15q-5.15.35-8.65 1.5l-.75.25q-1.15.35-2.15 1l-.75.5h-.1v.1l.1.15-.65 1v.1l-.35-.35-.5-.65-.15-.25-.1-.1q-.25-.5-.25-1.25v-.65l.1-2.25.25-1.9.25-1v-.1l.25-.25.15-.15.35-.1.3.1.1.25.15.25v.15q-.15.35-.15.85-.5 2.05-.5 4.3v.6q.5-.35 1.15-.6.25-.25.6-.4 4.75-2.25 13.9-2.5m17.1 2.15.1-.4.25-.25q1.75-.6 2.5-2.9l.25-1 .15-.85.1-1.75v-2.25l-.25-1.55q0-.25.15-.35l.25-.25.35.1.25.25.25 1.8v4l-.1.85-.25 1-.75 1.8-.5.85q-.9.9-2 1.25h-.5l-.25-.25v-.1m-8.3 16.65q1.9.65 3.65 1.65l.25.25v.35l-.4.25h-.35q-2.25-1.25-4.9-2-.5-.25-1.15-.35l-4-.75-2.25-.5h-.65v.1l-.5.65q-1.5 2.1-1.5 2.75l-.1.35-.4.15-.35-.15-.15-.35.15-.65.35-.75 1-1.85.65-.75.25-.25-.15-.5.4-.15.85-.25.15.65h.1l1.55.35 4.85.9 1 .25 1.65.6" fill="#72240d"/><path d="M174.3 87.65q1.35 3.4 4.15 4.9l-7.15.35q.25.65 2.1 2.5h-1.25l-3.65.5-4 .4-5-.4q-1.5.15-4 2.15l-1.15.75-.5.5q-2.5 1.75-4.15 3.15l-1.85 1.35-1 .75q-3.05 2.4-4.65 4.3l-1.75-2.15 1.1-2.15 1.4-2.25q.75-1.5 1.85-3.25l.5-1 .25-.4q3.15-6.25 3.15-11.25l-.1-1.65.25-.45.1-.4.5-1 1.25 1.25 2 2 .65.5V84.4q-.25-7.9-1.5-14.95l-.25-1.35-.25-1.15-2.9-12.15.25-.15q8.8 5.65 14.05 13.8l.65 1 .1.25q6.25 10.4 4.9 22.2 3.9-.6 4.9-2l1-2.25m22.8 8.4.65.35q-.15 1-1.25 2.9l-.65.75-3 3.4-1.15 1.1-6.4 5.9q-.75.5-.75 1.4 0 .85.5 1.5t1.4.65h.75l1.15.75 1.1.35.4.15.1.35q0 .5.15.65l-.15.5-.5.6-.5 1q-.1.5.15 1l.75.9 1.25 1.25.1.15q.4.35.65.35-.25 4.25-9.65 11.9h-3.75l-6.15 1.25-.75.25q-3.8.75-7.15 1.65-4.3 1.15-7.05 2.4l-2.85 1.25q-3.3 1.85-3.3 3.6 0 2.8 4.55 2.8 2.35 0 7.4-1.25l1.5-.25.1.35q-.75.4-1 1.25-.25.75.15 1.5-8.4 3.4-12.2 4.5l-.6.3-3.65 1q-7.75 2-14.65 2-3.3 0-5.4-1.4l-1.75-1.35-1.15-1.15 3.15-3.65 4.4-.1.5-.25.25-.5-.25-.5-.5-.25h-2.55q2.55-1.9 7.15-4.3l4.9-2.35 4-2 1.9-1.15 3.15-2.15.35-.25 14.7-10.65 10.25-8 7.65-6.55 5.8-5.4 1.25-1.1 3.15-3.4q.25-.5.75-.85l2.6-3.15" fill="#641609"/><path d="m158.1 42 1.15 2.65 4.25 9.75q4.9 11.4 5.15 13.55l-.65 6.3v.1q-.1 1.75 2.8 6l2.35 3.65v-.1q.4 2.1 1.15 3.75l-1 2.25q-1 1.4-4.9 2 1.35-11.8-4.9-22.2l-.1-.25-.65-1q-5.25-8.15-14.05-13.8h-.25v.15l2.9 12.15.25 1.15.25 1.35q1.25 7.05 1.5 14.95v2.25l-.65-.5-2-2-1.25-1.25.15-1.05q0-2.5-3.55-4.6L141.7 75l.35-.75v-.15h-.25l-10.9 9.65v-.25l-.5-4.15-.65-4.25q2.4-1.4 2.9-2.25l.15-.5-.4-.5q-.25-.15-.5-.15l-.5.4q-.5.75-2.75 1.85l-2.4.9h-.1q1.5-2.75 2.35-5.4l.75-2.6.15-.5q.75-3.65.75-12.05 0-2.15-.75-6.15V48l-1-5q-1 2.25-3 5.4l-1.75 2.65-4.65 6V54.9l-.15-.5-.5-.25-.5.15-8.25 5.9h-.9v-.9l5.25-9.9.4-1q2.25-5.25 2.65-9.55v-3.6q-.25-.4-2-.4-2.3 0-7.65 3.4l-.8-3.5-.35-1.4-.5-1.5-.25 1.6q-.5 2.4-1.75 5.4l-.25.4q-2.75 6.4-5.8 9l-3.25 2.4q-3.25 2.5-6.75 6-2.9 2.9-5.3 5.8-3.1 3.5-5.35 7-1.75 2.65-3.05 5.3l-.6-.5 1-5.55v-.6l-.15-.5q-.85-3.05-6.1-6.65l-.9-.65-8.3-4.4 3.15 3.55.75 1q1.9 2.35 1.9 4.5v.6l-.65 3.9-2.85 8.65-1.25 3.5-2.9 6.3-2.75.75-.15-.5-.1-.4q-4.4-4.35-6.15-7l-.4-.25-.35.1v.05l-.4.2-.5-.6-5-5.65-.65-.65-.35-.35-2.65-3-1-1.15q-6-6.75-9.55-11.4l-.6-.9-3.9-5.5-5.5-8.4-.35-.45-.05-.05v-.1l-.6-3.65q5.75 4.65 14.9 9.9l1.15.6 3.4 1.9q2 1 4 2.15l10.9 5.65 11.3 6-3.8-5.25-3.1-4.3q-1.75-2.35-2.9-4.5-1.65-2.75-2.25-5h.85l.65.1 2.25.15q5 2.25 11.3 3.75l4 .9 5.9.75-6.65-3.9 12.8.5 3-.15 1.75-.35Q74.2 44.5 71.1 40q6.25-.4 17.05-.15 2.35 0 4.15-1 2.1-1.25 3.25-4l.25-.75q.75-2.75.85-7.4v-2l.15-.15-.15-.1-.75-5.75q1.9-1.05 3.65-1.3l2.15-.1h2.75q6.9 0 13.65 2.4l1.9.6 1 .4 9.65 3 1.4.25 2.5.75q3.6 1.6 7 5.9l.5.6 5.9 7.65 1.75 2.4-.35-2.4-.4-1.5-.6-3.4q1.85 1.9 5.6 4.9l3.4 2.65.75.5" fill="#a8390b"/><path d="M131.3 16.05q3 2 5.25 4.25l.1.15 2.15 2.5.75 1.1.9.75 1.1.15q.65-.15 1-.5l.65-1.15q0-.35.35-.75 2.8 3.15 7.65 7.15v.15q4.05 4 5.9 9l.65 2.15v.1l-.4.4-3.4-2.65q-3.75-3-5.6-4.9l.6 3.4.4 1.5.35 2.4-1.75-2.4-5.9-7.65-.5-.6q-3.4-4.3-7-5.9l-1.25-1.25-3.65-2.9-.25-.25-3.25-2q-3.15-1.75-6.4-3l-5.4-1.75-4.9-1 10.05.75 3.65.75 4.1 1 1 .25 3.05.75M5.15 24.8l6.35-1.35 1.8-.4 1.1.25q7.65 1.75 23.95 3.8l1.9.35.85.25q1.5.75 4.8 3.5l1.85 1.5 3.9 2.55 1.4.85q1.25.75 2.1 1.4l-17.4-.65q-6.55-.1-11.55-1.25l-2.9-.85 7.65 14.15q-9.15-5.25-14.9-9.9l.6 3.65-2.25-3.55-.25-.25L12.4 36l-2-3.15-5.25-8.05m67.8-11.25 3.8-.4 5.85-.25 13.3-.5-1.25.65-5.25 2.25-1.25.5h4.25l6.3.6 3 .9-2.15.1q-1.75.25-3.65 1.3l.75 5.75-3.85-2.75-.75-.4-1.9-1q-2.75-1.1-5.9-1.1l-7.4.6-.1-.25q-.65-2-2.3-4.25l-1.5-1.75" fill="#b35816"/><path d="m178.45 92.55.6.25.15.1 10.75 1.5q5.55 1 7.15 1.65l-2.6 3.15q-.5.35-.75.85l-3.15 3.4-1.25 1.1-5.8 5.4-7.65 6.55q-4.85 2.75-10 6.15-2.9 1.75-8.15 4.25-6.55 3-8.3 3l-.85-.1 15.15-10.3q13.3-9.3 17.55-14.95l.9-1.35.25-.25-.5.25-2.15 1.35q-2 1.3-5 2.8l-7.9 3.75 4.4-3.65q2-1.6 2.75-2.9l.25-.25-.4.25q-2.85 2.4-11.25 6.4-9.95 4.4-13.05 6.05l-.25-1.25q3.75-5.9 9.9-10.7l.6-.5 2.55-1.85 4.25-3.15 1.5-1.1 4-3.05h1.25q-1.85-1.85-2.1-2.5l7.15-.35" fill="#a5380b"/><path d="m129.5 147.35-.85.1h-.15v-.1l-.25-.25q-.1-.15-.35-.15-.25 0-.25.25l-.25.25h-3.15l-1.6-.25q-1.9-.5-2.05-1.6.15-.55 1.4-1.55l2-1.35 1.4-.9 1.85-1.1q3.55-2.25 6.05-4.55l.6-.6.4-.4q8.5-4.1 13.4-8.75l-.25 1.1q0 1.75 1.15 2.3l.85.1q1.75 0 8.3-3 5.25-2.5 8.15-4.25 5.15-3.4 10-6.15l-10.25 8-14.7 10.65-.35.25-3.15 2.15-1.9 1.15-4 2-4.9 2.35q-4.6 2.4-7.15 4.3" fill="#9e4611"/><path d="m182.2 133.9-1.5 1.25-.15.15q-.75.5-1.35 1.1v-.1q-7.65 5.75-13.2 9.05l-1.35.25-1.5.25q-5.05 1.25-7.4 1.25-4.55 0-4.55-2.8 0-1.75 3.3-3.6l2.85-1.25q2.75-1.25 7.05-2.4 3.35-.9 7.15-1.65l.75-.25 6.15-1.25h3.75" fill="#8f2d09"/><path d="m134.3 135.15 1.25-1.35 1.5-2 .1-.15q2.15-3.15 4.05-7.25 2.6-5.55 3.1-9.8l2.9-3.65 1.15 2 1 2.8.25 1.25q3.1-1.65 13.05-6.05 8.4-4 11.25-6.4l.4-.25-.25.25q-.75 1.3-2.75 2.9l-4.4 3.65 7.9-3.75q3-1.5 5-2.8l2.15-1.35.5-.25-.25.25-.9 1.35q-4.25 5.65-17.55 14.95l-15.15 10.3q-1.15-.55-1.15-2.3l.25-1.1q.65-.65.75-1.5l-.5.85-.25.65q-4.9 4.65-13.4 8.75" fill="#d59525"/><path d="m144.3 114.6.15-2.15q.1-.75-2.25-3.6 1.6-1.9 4.65-4.3l1-.75 1.85-1.35q1.65-1.4 4.15-3.15l.5-.5 1.15-.75q2.5-2 4-2.15l5 .4 4-.4 3.65-.5-4 3.05-1.5 1.1-4.25 3.15-2.55 1.85-.6.5q-6.15 4.8-9.9 10.7l-1-2.8-1.15-2-2.9 3.65" fill="#a84c12"/><path d="m140.45 106.7-1.9-2.15-.5-.6h-.15l-1.85-1.75-1-1 1.85-2.4 1-1.25 3.65-4.25.5-.4.9-1.1 4.5-5.4 1.15-1.65.1 1.65q0 5-3.15 11.25l-.25.4-.5 1q-1.1 1.75-1.85 3.25l-1.4 2.25-1.1 2.15" fill="#a4370b"/><path d="m135.05 101.2-1-.9q-.75-.75-1.15-1.6-.35-.65-.35-1.4-.15-.5 0-1.15v-.35l-.25-.4-.5-.1h-1.55l4.65-8.3.4-.6 1.75-3 4-7.3q.9 2 1 7.3v3.25l-.35 5.9-.15.75-3.65 4.25-1 1.25-1.85 2.4" fill="#b85d0e"/><path d="m141.7 75 4.35 2.25q3.55 2.1 3.55 4.6l-.15 1.05-.5 1-.1.4-.25.45-1.15 1.65-4.5 5.4-.9 1.1-.35-.35.35-5.9V83.4q-.1-5.3-1-7.3.25-.6.65-1.1" fill="#a94c12"/><path d="M130.25 95.3h-.1l-.4.1h-.25q1.05-4 1.3-8.15l.1-2.85v-.65l10.9-9.65.25.15-.35.75q-.4.5-.65 1.1l-4 7.3-1.75 3-.4.6-4.65 8.3" fill="#d99f28"/><path d="M126.15 74.85H126q-.75-.1-1-.75l-.35-3.15v-.1l-.65-1.4-.85-1.35q-.65-1-.65-1.75-.15-.3 0-.55v-.5l-.4-.35q-.25-.25-.5-.15-.35.15-.5.4l-1.25 1q-1.35.65-2 1.15h-.35v-1.9q1.1-5.65 1.5-6.4v-2l4.65-6 1.75-2.65q2-3.15 3-5.4l1 5v.15q.75 4 .75 6.15 0 8.4-.75 12.05l-.15.5-.75 2.6q-.85 2.65-2.35 5.4m-18.45-20.7h-.1q-.25 0-.4.15l-13.15 8.9-.25-2.65q0-.6.6-2.5l.65-2.15h-.25q-1.65.4-5.9 6.55l-.4.6Q86 66.6 84.65 69.2l-.65.25q-.1 0-.1.15v-.75l-.15-.65-.5-.25q-.35 0-.65.25L81 69.45l-6.9 5.4-.15-.1q1.3-2.65 3.05-5.3 2.25-3.5 5.35-7 2.4-2.9 5.3-5.8 3.5-3.5 6.75-6l3.25-2.4q5.15-3.6 9.95-4.85 0 2 .6 6.5v.35q0 1.65-.5 3.9m-66.45 28-3.15 6.6-.35-.1.35.25-.6 1.25-.9 1.75-.75 1.4v.1q-.65 1.4-1 3-.4 1.55-.65 3.3v.35l-.35-.35q-1.4-1.4-1.65-3.3l-.1-1.25q0-1.6.6-2.6-.6-.25-1-.9l-.6-1.6-.25-1.65v-1.15q-.25-2.6-1.25-3.5l-3.05-3-1.6-2.5-1.15-1.65-.75-2.5-1.35-4.4 3.6 5.4 2.4 3.4.5.75 1.75 2.5q3.9 5.25.4-.4v-.1l3 3.15 3.25 3.25-1-4.65q-.5-2.25-.65-3.75l-.1-1.75V76l3.75 3.6 2.65 2.55M41.1 27.7l9.15 2.5 1.9.4 4.15.85 1.85.65-2.25-1.75-2-1.65-6.9-5.25 16.2 1.5-3.25-3-1.55-1.25-.35-.4-4.4-3.75q1.9-.75 4.75-1.25l14.55-1.75 1.5 1.75q1.65 2.25 2.3 4.25l.1.25 7.4-.6q3.15 0 5.9 1.1l1.9 1 .75.4 3.85 2.75v2.25q-.1 4.65-.85 7.4l-.25.75q-1.15 2.75-3.25 4-1.8 1-4.15 1-10.8-.25-17.05.15 3.1 4.5 14.4 7.9l-1.75.35-3 .15-12.8-.5-1.75-.25h-.15L53.4 46.4l-2.25-.15-.65-.1h-.85q.6 2.25 2.25 5 1.15 2.15 2.9 4.5l3.1 4.3 3.8 5.25-11.3-6-10.9-5.65q-2-1.15-4-2.15l-3.4-1.9-1.15-.6-7.65-14.15 2.9.85q5 1.15 11.55 1.25l17.4.65q-.85-.65-2.1-1.4l-1.4-.85-3.9-2.55-1.85-1.5q-3.3-2.75-4.8-3.5" fill="#bd6510"/><path d="m94.05 63.2-.65.35-8.75 5.65q1.35-2.6 3.85-6.15l.4-.6q4.25-6.15 5.9-6.55h.25l-.65 2.15q-.6 1.9-.6 2.5l.25 2.65" fill="#d9a028"/><path d="M40 73.85q-.25-.4-2.25-1.75l-3.8-2.65-.5-.35q-1.35-.9-3.35-1.9h-.15l-2.9-1.25-1.75-2.15-1.75-2.6-.1-.15-3.5-4.5-3.55-4.15-.6-.6-1-1-1.15-2.55-.1-2.1q0-2.65.35-4.4l.5-2.65 2.25 3.55v.1l.05.05.35.45 5.5 8.4 3.9 5.5.6.9q3.55 4.65 9.55 11.4l1 1.15 2.65 3-.25.25" fill="#fadd5c"/><path d="M42.5 81.25q-.4-.15-.65 0-.25 0-.35.35l-.25.55-2.65-2.55-3.75-3.6v1.5l.1 1.75q.15 1.5.65 3.75l1 4.65-3.25-3.25-3-3.15-.4-.4-1.35-2.25q-1.9-3.1-1.8-3.35v-.5l-3.35-5.3-.5-.6-2.75-3.9-3.15-8.55-.5-1.5 1.25 1.5 4.65 5.65 1.6 2.65q1.5 2.15 2.25 2.5l.15.15q.75.25 3 1.25l1.75.85 1.4.9 1.6.75 4.4 2.25q1.5.75 1.4.5l.25-.25.35.35.65.65q.1 2.25.85 5.25l.4 1.4m-8.3 18.8-.25 2.5-.1 3q0 1.9 1 4.3.75 1.6 2 3.6l.15.15q2.25 3.4 2.6 5.15l.15.25.25.5q0 .25.35.5l1.4 3.5q-1 .5-1.65 1.15l-.75.5h-.1l-1.65 2-1.1-1.25q-.9-1-1.15-2 2.15-.5 2.5-1.15.4-.85-.85-2.25-1.25-1.5-3.4-5.4l-.75-1.5-2-3.9v-.25l.6-2 .9-3.25q0-.65-.4-1.5v-.15q-.5-.75-.5-1.75l.4-1.1.25-1.5-.75-1.8-.5-.85q-1.15-2.25-1.25-4V89.9l.25-2.65h1v1.15l.25 1.65.6 1.6q.4.65 1 .9-.6 1-.6 2.6l.1 1.25q.25 1.9 1.65 3.3l.35.35M46 155q-1.75-1.8-3.5-2.8l-2.25-1H40q-3.25-.6-5.8-1.5-2.5-.75-3.25-1.5l-.35-.5q.1-.75.6-1.75l.75.25 1.25.25q1.75 0 2.9-1.5 1-1.5 1-3.65 0-.75-.35-1.35-.4-1-1.4-1.65v-.25l.25-1.65v-.75h1.15l.35.25h.65l.35-.5v-.5q-.25-.35-.5-.35l-.6-.25-.25-.15H35.2l-.1-.6-.15-.15-.75-2.1-.1-.65v-.1l-.75-1.4 2.15-.4.5-.25h1.25q-.15.65-.15 1.65v.5l.15.75q.25 1.5 1 3.25l.25.5.5 1 .75 1.3 1.75 2.6.85 1.25-.6 3q0 2.3 1.5 4.9l.25.5 1.5 2.5.9 1.65.25-.1-.15.25.4.85-.4.15M13.65 48.25 9 38.85l-.25-.6-1-2.15q-.85-1.65-1.35-3.25-1.5-4-2.15-7.8l.5-.1q.25-.15.4-.15l5.25 8.05 2 3.15 1.75 2.85.25.25-.5 2.65q-.35 1.75-.35 4.4l.1 2.1" fill="#e1af33"/><path d="M13.3 23.05q12.65-2.6 21.4-2.75l1.15-.35.5-.5h.25l5.65.25q1.15 0 2 .5l.4.1h.25l.35-.35.15-.5-.4-.5q-1.1-.8-2.75-.8l-5.4-.25h-.25v-.1l-.75-1-1.75-1.5-2.15-1.65h-.1l-.5-.5-1.65-1.35q.4-1.55 9.15-2.3 5.3-.5 10.8-.25L62.05 9q7.05-.25 11.4.25h2.8l15.65 1q14.8.9 5.75-.75L83 6.65q-5.5-1.25-6-2L85.75 4h.15q5.5.15 23.2 4l1.1-.1.9-.75.25-.4q12.9 5.3 15.55 6.65l1.85 1.15 1.4.75 1.15.75-3.05-.75-1-.25-4.1-1-3.65-.75-10.05-.75-6.75-.25-6.8.1-13.3.5-5.85.25-3.8.4L58.4 15.3q-2.85.5-4.75 1.25l4.4 3.75.35.4 1.55 1.25 3.25 3-16.2-1.5 6.9 5.25 2 1.65 2.25 1.75-1.85-.65-4.15-.85-1.9-.4-9.15-2.5-.85-.25-1.9-.35q-16.3-2.05-23.95-3.8l-1.1-.25" fill="#dfad2f"/><path d="m95.9 12.4 6.8-.1 6.75.25 4.9 1 5.4 1.75q3.25 1.25 6.4 3l3.25 2 .25.25 3.65 2.9 1.25 1.25-2.5-.75-1.4-.25-9.65-3-1-.4-1.9-.6q-6.75-2.4-13.65-2.4h-2.75l-3-.9-6.3-.6h-4.25l1.25-.5 5.25-2.25 1.25-.65" fill="#bf6910"/><path d="M73.35 74.25q-.25-.3-.5-.3l-.5.3L64.8 82q-.1 0-.25.15l-.6.6q-4 3.75-6.9 5.15l2.9-6.3 1.25-3.5 2.85-8.65.65-3.9 9.5 2.05.15.5v.6l-1 5.55M53.4 46.4l12.65 1.25h.15l1.75.25 6.65 3.9-5.9-.75-4-.9q-6.3-1.5-11.3-3.75" fill="#a84b12"/><path d="M64.7 65.55v-.6q0-2.15-1.9-4.5l-.75-1-3.15-3.55 8.3 4.4.9.65q5.25 3.6 6.1 6.65l-9.5-2.05" fill="#b55c0d"/><path d="M108.7 59.3v-1.75q0-2.15-.35-2.9l-.4-.35-.25-.15q.5-2.25.5-3.9v-.35q-.6-4.5-.6-6.5-4.8 1.25-9.95 4.85 3.05-2.6 5.8-9l.25-.4q1.25-3 1.75-5.4l.25-1.6.5 1.5.35 1.4.8 3.5q5.35-3.4 7.65-3.4 1.75 0 2 .4v3.6q-.4 4.3-2.65 9.55l-.4 1-5.25 9.9" fill="#af5414"/><path d="m46.9 81 .1.35 1.4 1.8q1.75 2.25 4.9 5.35v.15q-2.55-.4-5.65-2.9v-.1q-3.15-2.4-4.25-4.15l-.4-.4-.5.15-.4-1.4q-.75-3-.85-5.25l5 5.65.5.6.15.15m-15.7 64.95q.5-1.25 1.65-2.75l1.85-3.4.65-1.5q1 .65 1.4 1.65.35.6.35 1.35 0 2.15-1 3.65-1.15 1.5-2.9 1.5l-1.25-.25-.75-.25M37.25 128l-1.4-.5-.35-.1h-.65l-2.5.35-1 .15-.9-.25q-.1-.15-.25-.15l-1-.1.4-.5 2.5-2.4 3.25-.6q.25 1 1.15 2l1.1 1.25-.1.1q-.15.15-.15.4l-.1.35m-6.4-18.4-.15-.15q-.5-1.1-3.25-3.9-1.65-1.6-1.9-2.6 0-.15.15-.4l.5-.6v-.15l1.25-2.25v-.85q0-.75-.5-1.4l-.9-.9-2.25-2.5-2.5-2.85-.1-.25q.35.25 1.35-.4v-.1l.75-.55q2.5-2 2.25-3.5 0-2.6-1.35-8l-.4-1.65 1.15 1.65 1.6 2.5 3.05 3q1 .9 1.25 3.5h-1l-.25 2.65v1.65q.1 1.75 1.25 4l.5.85.75 1.8-.25 1.5-.4 1.1q0 1 .5 1.75v.15q.4.85.4 1.5l-.9 3.25-.6 2v.15" fill="#fcde60"/><path d="m41.75 123.5.6 1.65v.25l.9 2.75.65 2.65.1.6v.25l.15 1.5-.65 2-.1.4q-.15 0 0 .1l-.4.5q-.75 1.55-.75 2.15 0 .75.5 1.9l.35.75q1.05 1.75 2.8 2.25-.15.1-.15.35-.75 2.55-.75 3.55l.25 2.75.5 2.35.4 1.55-.25.1-.9-1.65-1.5-2.5-.25-.5q-1.5-2.6-1.5-4.9l.6-3-.85-1.25-1.75-2.6-.75-1.3-.5-1-.25-.5q-.75-1.75-1-3.25l-.15-.75v-.5q0-1 .15-1.65h1l-.65-.35q-.1-.15-.35-.15l.1-.35q0-.25.15-.4l.1-.1 1.65-2h.1l.75-.5q.65-.65 1.65-1.15" fill="#c67715"/><path d="m78.5 171.05-7.65-.4q-2.25-.35-4.4-1.25l-2.15-1-8.15-4.9q-2.75-1.6-4.35-2.75l-1.15-.9v-.5l-.25-.25-.4-.1-.1.1-.4-.5-1-.85q-.25-.5-.35-1.15l-1-3.1-.25-1.3q-.4-1.25-.5-2.25-.4-1.6-.4-2.85 0-1 .75-3.3l.25-.75v-.1l.25-1 .4-1.25.6-.4.15-.1v.1q0 2.15.85 3.4l1.4-.5.35.35q2.9 2.9 5.55 4.15l4.25 1.9h.15l.35.1.65 1.65.1.85.15 1.3q0 .75-.4 1.6l-.35.65v.1q-.65 1.15-.5 2.5l.85.4.9-.65-.15.65.15.35.35.15.4-.15.1-.35q0-.65 1.5-2.75 1.25.75 4.55 2.35l3 1.5.75.5q6 3.55 6 6.4l-.1 2.4q-.15 1.15-.75 1.9m-32-30.5-.1.5-.25 1.25q-1.4-.5-2.15-1.85l-.1-.25q-.65-1.15-.65-1.9 0-.5.9-2.15l.1-.1.4-.9.25-.85.5.85.35 1 .75 3.9v.5m23.95-27.1v-.5q-.35-5.5 3.75-9.65l2.65-2.6 3.75-3.65q0-.15.15-.15l.75-.75q1 .25 1.75 1l.75.8q.9 1.25 1.25 3l.15 2.25v.6q-.25 4.4-4.05 9.8h-.1l-.4.5q-2.6 3.4-4.25 4.65l-.25-.15-.25-.25q-2.9-.5-3.75-1.1-1.4-1.15-.9-3.5v-.4l-.35-.25-.4.1q-.25 0-.25.25M41.85 95.4l1.15 1 1.4 1.4 2 2.25.35 1.15-.25 1.35-.35 1.65q0 2.65 4.6 6.75l.4.4 2.25 2.25q1.9 2.25 1.9 3.75 0 2.25-1.25 3.15-1 .6-3.55.6l-4.5-.75-2.9-.5h-.5l-2.25-5.25q-.25-.5-.35-1-.9-2-1.25-3.4-.75-2.1-.75-3.25 0-1 1.1-4.4l.9-2.5.1-.1 1.15-3.55.25-.6.35-.4m9.05 38 .5-1.35.65-1q.6-1.25 1.5-2.3 1-1.5 2.5-2.75l.85-.25q5.15-1.25 9.15-1.25 2.05 0 2.65 1 .4.65.4 2.65v1.4l-.25 1.85-.25 1.65-.75 2.1-.5 1-.8 1.4q-9.15.25-13.9 2.5-.35.15-.6.4-.65.25-1.15.6v-.6q0-2.25.5-4.3 0-.5.15-.85v-.15l-.15-.25-.1-.25q0-1-.4-1.25m30.7 7.3 2.05-1v.1l.25.25h.5q1.1-.35 2-1.25l1.6-.1q2.5 0 5.55 2l1.5 1.1q4.15 3.4 4.15 6.9 0 2-1.05 3.65l-.25.5q-1.5 1.75-4.35 3-4.05 1.65-8.65 1.65-5.05 0-9.55-1.15l-1.65-.6-1-.25-4.85-.9-1.55-.35h-.1l-.15-.65-.75-3.4h.75q.5.15 8.05-4.35v-.15q.35-.25 1.4-.65l2.6-1.1 2.4-1.5q1-.9 1.1-1.75" fill="#fef9bd"/><path d="M40.1 88.15q.65-.65 2.25-.65 3.9 0 7.9 1.65 2.05 1 3.8 1 1.6 0 3.75-1 1.9 0 10.05-4.15 5.6-2.1 10-2.1h.75l2.5.1q7.05.65 10.2 3.9 1 1 1.6 2.35 1.25 2.55 1.75 6.55l.15 1.75v2.15l-.25 1.5-1.5 2.85q-2 3.4-6.65 8.65l-.75 1.05Q78.25 122 74.7 123.9l1.4 3.1q.65 1.5.75 2.9v1.65l-.25 2-.35 1.35v.25l-.5 1-.9 1.55-5.4-.25-2.9.1.8-1.4.5-1 .75-2.1.25-1.65.25-1.85v-1.4q0-2-.4-2.65-.6-1-2.65-1-4 0-9.15 1.25l-.85.25q-1.5 1.25-2.5 2.75-.9 1.05-1.5 2.3l-.65 1-.5 1.35q-1.5-1-2.75-1.5-1.65-.75-2.65-.75l-.5.15v-.5l-.6-2.65-1-3.15v.15l-.8-2-1.1-3.15-.15-.4v-.6l-.25-.5q-.35-1.75-2.25-4.9l-.75-1-1.5-2.65q-1.25-2.5-1.25-4.4l.15-3 .1-1.35q0-.75.15-1.4l.6-3.4.75-2.35h.15l1-2 .6-1.4.25-.5 1-2M96.8 168l-4.4 1.3q-7 1.75-12.65 1.75H78.5q.6-.75.75-1.9l.1-2.4q0-2.85-6-6.4l-.75-.5-3-1.5q-3.3-1.6-4.55-2.35l.5-.65v-.1h.65l2.25.5 4 .75q.65.1 1.15.35 2.65.75 4.9 2h.35l.4-.25v-.35L79 158q-1.75-1-3.65-1.65 4.5 1.15 9.55 1.15 4.6 0 8.65-1.65 2.85-1.25 4.35-3l.25-.5q1.05-1.65 1.05-3.65 0-3.5-4.15-6.9l-1.5-1.1q-3.05-2-5.55-2l-1.6.1.5-.85 3.5-1.8.65-.35q.6-.4 1.35-.65l1.15-.5q4.1-1.6 8.9-1.6 3.35 0 6.65 2.1l.75.5.6.5q2.5 2.15 3.5 4.55.5 1.35.5 2.85 0 4.3-1.6 8.9h-.15l-.25.9Q110.6 158 107.6 160q-.9.5-7.05 5.25L96.8 168m-20.2-49.25q1.65-1.25 4.25-4.65l.4-.5h.1q3.8-5.4 4.05-9.8v-.6l-.15-2.25q-.35-1.75-1.25-3l-.75-.8q-.75-.75-1.75-1l-.75.75q-.15 0-.15.15l-3.75 3.65-2.65 2.6q-4.1 4.15-3.75 9.65v.9q-.25.65-.1 1.25 0 1.9 1.35 2.9.75.6 3.15 1.25l.75.1h.4l.35-.1.15-.25.1-.25M41.5 95.8l-.25.6-1.15 3.55-.1.1-.9 2.5q-1.1 3.4-1.1 4.4 0 1.15.75 3.25.35 1.4 1.25 3.4.1.5.35 1l2.25 5.25h.5l2.9.5 4.5.75q2.55 0 3.55-.6 1.25-.9 1.25-3.15 0-1.5-1.9-3.75l-2.25-2.25-.4-.4q-4.6-4.1-4.6-6.75l.35-1.65.25-1.35-.35-1.15-2-2.25-1.4-1.4-1.15-1h-.1l-.25.4m19.55 24.3q-.85-3.35-1.35-3.75l-.4-.1-.4.25-.1.35.25.25q.4.4 1 3.25-.1 1-1.15 2.65l-.1.4.25.35h.4l.35-.25q1.25-2 1.25-3.25v-.15m6.65 2.8-.1.35.1.4.4.1 2.6-.35 1.75-.9.25-.35v-.4l-.35-.25q-.25 0-.4.15l-1.6.85v-.1l-2.25.35q-.25 0-.4.15M64.8 154l.15.5-.25.25-.65.75-1 1.85-.35.75-.9.65-.85-.4q-.15-1.35.5-2.5v-.1l.35-.65q.4-.85.4-1.6l-.15-1.3-.1-.85-.65-1.65 2.75.5v.15l.75 3.65" fill="#f6d08e"/><path d="M57.8 89.15q3.15-1.5 7.15-5.25l1.75-1.75.4-.4 8.4-3.9q5.25-2.5 10-2.5 8.4 0 11.15 3.75l3.4 4.15.25.4q2.65 3.35 2.65 4.1l-.15 1.15q-.35 2.25-2 7.4l-.25.75-.1.6-1.25 3.65-1.15 3-.5 1.15-3.15 7.5-.5.9q-.85 1.25-1.35 2.25-1.5 2.65-1.5 3.5 0 2.8 9 6.8 8.3 3.75 11.55 3.75l6.75-.9q2.4 0 4.8 2.15h.1l.65.5q1.75 1.65 1.85 3.25v1q-.1 2.3-.6 3.9v.25l-.5.25-.15.15q-5.5 3.25-5.4 4.9-.1 2.25 2.65 3l-2.75 3.85-.75 1.05-2.25 3-2.65 3.6-7.3 4.15h.15q-4.65 2.15-9.4 3.75l3.75-2.75q6.15-4.75 7.05-5.25 3-2 4.85-6.65l.25-.9h.15q1.6-4.6 1.6-8.9 0-1.5-.5-2.85-1-2.4-3.5-4.55l-.6-.5-.75-.5q-3.3-2.1-6.65-2.1-4.8 0-8.9 1.6l-1.15.5q-.75.25-1.35.65l-.65.35-3.5 1.8.75-1.8.25-1 .1-.85v-4l-.25-1.8-.25-.25-.35-.1-.25.25q-.15.1-.15.35l.25 1.55v2.25l-.1 1.75-.15.85-.25 1q-.75 2.3-2.5 2.9l-.25.25-.1.4-2.05 1v-.65l-.35-1.1-.15-.4-.35-.25-1.4-.25-4.5-.35.9-1.55.5-1v-.25l.35-1.35.25-2v-1.65q-.1-1.4-.75-2.9l-1.4-3.1q3.55-1.9 10.95-10.15l.75-1.05q4.65-5.25 6.65-8.65l1.5-2.85.25-1.5v-2.15l-.15-1.75q-.5-4-1.75-6.55-.6-1.35-1.6-2.35-3.15-3.25-10.2-3.9l-2.5-.1h-.75q-4.4 0-10 2.1-8.15 4.15-10.05 4.15" fill="#edba80"/><path d="M47.65 140.7v-.75l-.4-.25-.35.1q-.25 0-.25.25h-.15l-.75-3.9-.35-1-.5-.85.25-1.15v-1.35l-.15-.5.5-.15q1 0 2.65.75 1.25.5 2.75 1.5l-.4 1.4-.25.25v.1l-.25 1-.25 1.9-.1 2.25v.65q0 .75.25 1.25l.1.1.15.25.5.65-1.4.5q-.85-1.25-.85-3.4v-.1l-.15.1-.6.4" fill="#f8db9f"/><path d="m42.35 83.4.25-.25.8.85 3.35 2.9 3.5 2.25q-4-1.65-7.9-1.65-1.6 0-2.25.65l2.25-4.75m24.75-1.65 5.25-5.4.75-.5.25.25.5.25q.85.15 8.15-5.65l.1.25.15.5.5.25.5-.1.4-.15q1.5-1 3.25-2l7-4.4.4-.25 1.5-.85 11.15-7.65.25.25q-.5 1.5 0 3.4v1l.25.5.5.25h1.9l.5-.15 7.15-5.15v2.15q-.4 1.15-1.5 6.65v2.9l.25.5.5.25H118l.5-.15q.5-.5 2-1.1.25-.25.6-.4l.75 1.75v-.1l.4.6.9 1.75.35 3.05v.25q.4 1.35 1.65 1.75l1.1.1h.25l1.9-.75.5 4 .5 3.9v1.15l-.5.35h.5l-.15 2.4q-.25 4.65-1.6 9.25l-.15.25v.4l.25.5.5.25.4.25.25-.35q.35-.3 1-.65l.5-.5h.5v.5l.25 1.4q.5 1.35 1.9 2.75l.75.6.5.5 2.25 2 .35.4v.1l2.15 2.4-.1.75h.75q3.1 3.65 3.25 4.25l-.25 3.15q-.75 3.65-2.9 8.15-2.15 4.65-4.5 7.9-.15 0-.15.15l-.75 1-1.75 2-.5.35-.35.4-.75.6q-2.55 2.05-5.8 4.05l-.1-.15q.5-1.6.6-3.9v-1q-.1-1.6-1.85-3.25l-.65-.5h-.1q-2.4-2.15-4.8-2.15l-6.75.9q-3.25 0-11.55-3.75-9-4-9-6.8 0-.85 1.5-3.5.5-1 1.35-2.25l.5-.9 3.15-7.5.5-1.15 1.15-3 1.25-3.65.1-.6.25-.75q1.65-5.15 2-7.4l.15-1.15q0-.75-2.65-4.1l-.25-.4-3.4-4.15q-2.75-3.75-11.15-3.75-4.75 0-10 2.5l-8.4 3.9m54.65 66.85 2.5.35h2.15l-2.5 2.9-.65.75-1.15 1-3.5 2.9-5.25 3.6 2.65-3.6 2.25-3 .75-1.05 2.75-3.85" fill="#c06d43"/><path d="m51.65 142.45-.1-.15.1-.1.75-.5q1-.65 2.15-1l.75-.25q3.5-1.15 8.65-1.5l1.5-.15 4-.1 4.65.1 4.4.5 1.6.25.25.9v.25l-.25.35-1.1 1-1.4.75q-.85.25-1.5.65-2.15.85-2.75 1.25h.1l-7.4 4.25-4.75-.6-.35-.15-3.9-1.6q-2.5-1.25-5.4-4.15" fill="#62463a"/><path d="M51 143.55v-.1l.65-1q2.9 2.9 5.4 4.15l3.9 1.6.35.25v-.1l4.75.6 7.4-4.25h-.1q.6-.4 2.75-1.25.65-.4 1.5-.65l1.4-.75 1.5.4-2.4 1.5-2.6 1.1q-1.05.4-1.4.65v.15q-7.55 4.5-8.05 4.35h-.75l.75 3.4-.85.25-.4.15-.75-3.65v-.15l-2.75-.5-.35-.1h-.15l-4.25-1.9q-2.65-1.25-5.55-4.15" fill="#1b0301"/><path d="m86.15 124.4-.4-2.15v-.9l.15-.25 1.25.9 2.6 1.5 1.65.75.15.15.25.1q3 1.15 6.6 1.15h.9l2.9-.5h.25l1.6-.75.9-.5h-.15l2.3-1.65 2.35-3.15q0-.35.25-.6v-.15l.75-2.6.25-2.65v-1.5l-.1-1.15-.5-2.75q-1-3.9-3.4-7.15l.75-1 .4.65q1.6 2.25 2.75 4.85l.1.5.65 2.05q.5 2 .6 4.1v1.4l-.1 2.5-1 3.4-.9 1.6-.5.75-1.5 1.8-.5.35-1.9 1.4q-.35.1-.5.35l-2.25 1-4.4.65-2.1-.15h-.75q-2.4-.35-4.5-1.25l-2.9-1.5-1.25-.6.75.85 1 1.15q1.5 1.5 3.15 2.5l.85.35q2.15.9 4.4.9l7-.9 1-.25 1.15-.35q5.15-1.5 7.9-3.4l.25-.1 2.75-3.15 1.25-2.4 1.15-3.6q.1-1.15.35-2.3l.15-3.5v-1.75l-.4-2.65-.25-1.1-1.1-3.15q-1.65-3.4-4.3-6.25l-2-1.9-.25-.25q.15 0 .25.15l.25-1 .15-.25 1.35 1.25q4.4 4.25 6.3 9.4l.75 2.35.25 1.5.25 1.9v1.75l-.15 3.75q-.25.9-.35 1.9l-1 3.65-.9 2-2.25 3.25-1.75 1.5q-2.75 2.15-8.3 3.65h-.1l-.9.25-.1.1h-.15q-4.6 1.15-8.25 1.15-3.15 0-5.75-1.4-.5-.35-1.05-.6l-2.5-2.15-1.5-1.6-.1-.25m.6-7.9h-.1.1m-37.5 20.55q-2.6-1.25-5.35-4.9l-.9-1.35-.5-.65-.75-1.5-.4-.9q-1-2.25-1-4.25t.15-3.65l.6-3.6.25-.25.65 1-.25 1.25q-.4 1.85-.4 4.5v.75q0 1.65.75 3.5l.5 1.25q.25.65.8 1.3l.35.75.9 1.25q2.5 3.35 4.85 4.5l-.25 1M43 118.35l.5.65v.1q-.25.75-.25 2.25v.8l.25 2.6v.15l.15.6.6 2 .15.25.35.75.5 1.05q1.5 2.5 3.9 2.5h.75q.35-.25 1-.4l.25.15-.4.75-1.6.25h-.65l-.5-.15q-2-.5-3.35-2.75l-.4-.75-.1-.15v-.1l-.5-1.15-.55-1.6-.1-.5q-.4-1.25-.4-2.5l-.1-1v-.25q0-2.65.5-3.55m9.55 7.55.75.25.25 1.1q-.4.5-.65 1.15l-.35-2.5" fill="#1a0401"/><path d="M85.9 121.1h-.15v-.35l-.1-.5-.25-1.4 2-1.35.35-.25.5-.25 3.55-2.75h.1q1.15-1.3 3.65-3.15l.1-.15 1.5-1.35.4-.25 1.65-1.4 1.5-1.35.5-.5 3.35-3.8.4-.5 1.35-1.6.4.35q2.4 3.25 3.4 7.15l.5 2.75-1-1.85-.5-.9-.4-.6q-1.5-2.8-2.75-2.8-.75 0-2.4 1.4-1.5 1.15-1.6 2.15-.15.1-.15.35l.4 1.15.25 1 .1.25q.75 2 .75 3.5 0 1.4-.5 2.5l-1.1 1.5q-1.75 1.65-4.65 1.65l-1.9-.25-.75-.4-.35-.35-1-1-1.15.85-.6.5-2.65 2.15v.1l.1.4 1 1.75-2.6-1.5-1.25-.9m-42.25-2 1 1.25 1 .9L47 122.5l3.25 2.25 2.15 1 .15.15.35 2.5.15.35q-.65 1.05-1.15 2.15l-.1.25-.25-.1q-.25-2.65-.9-2.9h-.25q-.25 0-.65.35-.35.4-.85.4-.65 0-1.25-.65l-.65-.6-.25-.5-.1-.15-.25-.35q-1-1.65-1-2.5v-.25l.1-1.5v-.15h-.1l-1.25-1q-.4 0-.9.65v-.55q0-1.5.25-2.25h.15" fill="#350d02"/><path d="m107.45 99.55-.35-.5.1-.1.15-.15.6-.75 1.65-2.25 2.1-3.65.25.25 2 1.9q2.65 2.85 4.3 6.25l-1.65-.1-2 .25q-1 .25-1.75.75l-.25.25-.25.1-.75.75q-.9 1-1 2.5-1.15-2.6-2.75-4.85l-.4-.65m-3.4 28.7-7 .9q-2.25 0-4.4-.9l-.85-.35q-1.65-1-3.15-2.5l-1-1.15-.75-.85 1.25.6 2.9 1.5q2.1.9 4.5 1.25h.75l2.1.15 4.4-.65q.4 1.4 1.25 2m-50.75-2.1.6.25.65.1-.9 1.4-.1-.65-.25-1.1" fill="#c1afa7"/><path d="m89.75 123.5-1-1.75-.1-.4v-.1l2.65-2.15.6-.5 1.15-.85 1 1 .35.35.75.4 1.9.25q2.9 0 4.65-1.65l1.1-1.5q.5-1.1.5-2.5 0-1.5-.75-3.5l-.1-.25-.25-1-.4-1.15q0-.25.15-.35.1-1 1.6-2.15 1.65-1.4 2.4-1.4 1.25 0 2.75 2.8l.4.6.5.9h-.9q-1.85 1-1.85 2.35l.1 3.65-.4-.1q-1.35 0-1.35 1.6v.25l.35.9.25.25-2.25 2.35q-1.85 1.4-4.25 2.05l-4.15.35-1.6-.25q-1.15 0-1.5.75-.4.4-.4 1.15l.15.6-.25-.1-.15-.15-1.65-.75m-38.2 8.05q-.15.1-.15.35l-.1-.1h-.15l-.25-.15q-.65.15-1 .4h-.4l.15-.15.25-.75q0-.6-1.9-1.1-.75-.25-1.75-1.15l.75-1.25.65.6q.6.65 1.25.65.5 0 .85-.4.4-.35.65-.35h.25q.65.25.9 2.9v.5m-8.05-6.8-.25-2.6v-.25q.5-.65.9-.65l1.25 1 .1.15-.1 1.5v.25q0 .85 1 2.5l-.65.1q-.75-1.5-1.35-1.85l-.75-.15h-.15" fill="#7c386b"/><path d="M41.35 116q-3.6-5.4-3.35-10.95 1 5.55 5.5 10.8l1.65 1.65 1.35 1.35 2.25 2 3.4 2.55.5.25 2.15 1.1 1.1.5-1.35 1.25-.65-.1-.6-.25-.75-.25-.15-.15-2.15-1L47 122.5l-1.35-1.25-1-.9-1-1.25-.15-.1-.5-.65-.65-.85-.35-.5-.65-1" fill="#7d2e10"/><path d="m109.6 108.6 1 1.85.1 1.15v1.5l-.25 2.65-.75 2.6h-.1l-1-1.1.1-.65-.1-.6-.9-.9-.75-.5-.1-3.65q0-1.35 1.85-2.35h.9m-7.4 16.55-2.9.5h-.9q-3.6 0-6.6-1.15l-.15-.6q0-.75.4-1.15.35-.75 1.5-.75l1.6.25 4.15-.35-.1.6q0 2.15 2.25 2.65h.75m-57.8 2.6-.15-.25-.6-2-.15-.6.15-.15.75.15q.6.35 1.35 1.85-.85.15-1.1.5v.15l-.25.35" fill="#d550c9"/><path d="M109.7 118.5q-.25.25-.25.6l-2.35 3.15-2.3 1.65h.15l-.9.5-1.6.75h-1q-2.25-.5-2.25-2.65l.1-.6q2.4-.65 4.25-2.05l2.25-2.35q.65.6 1.15.6.65 0 1.25-.5l.4-.35 1 1.1.1.15m-63.45 10.4q1 .9 1.75 1.15 1.9.5 1.9 1.1l-.25.75-.15.15h-.35q-2.4 0-3.9-2.5.5-.15 1-.65" fill="#f7a4f7"/><path d="m118.25 100.55 1.1 3.15.25 1.1.4 2.65v1.75l-.15 3.5q-.25 1.15-.35 2.3l-1.15 3.6-1.25 2.4-2.75 3.15-.25.1q-2.75 1.9-7.9 3.4l-1.15.35-1 .25q-.85-.6-1.25-2l2.25-1q.15-.25.5-.35l1.9-1.4.5-.35 1.5-1.8.5-.75.9-1.6 1-3.4.1-2.5v-1.4q-.1-2.1-.6-4.1l-.65-2.05-.1-.5q.1-1.5 1-2.5l.75-.75.25-.1.25-.25q.75-.5 1.75-.75l2-.25 1.65.1m-11.3 14.05.75.5.9.9.1.6-.1.65-.4.35q-.6.5-1.25.5-.5 0-1.15-.6l-.25-.25-.35-.9v-.25q0-1.6 1.35-1.6l.4.1M42 117l.35.5.65.85q-.5.9-.5 3.55v.25l.1 1q0 1.25.4 2.5l.1.5.55 1.6.5 1.15v.1l.1.15.4.75q1.35 2.25 3.35 2.75l.5.15h.65l1.6-.25q.15-.15.4-.15l-1.25 3.9-.4-.25q-2.35-1.15-4.85-4.5l-.9-1.25-.35-.75q-.55-.65-.8-1.3l-.5-1.25q-.75-1.85-.75-3.5v-.75q0-2.65.4-4.5L42 117m5 10.65-.75 1.25q-.5.5-1 .65l-.5-1.05-.35-.75.25-.35v-.15q.25-.35 1.1-.5v.15l.9.1.1.15.25.5" fill="#fff6d9"/><path d="m86.15 124.4-.75-1.25-.4-.75-.1-.4-.4-.35q-.25-.3-.25-1.15-.1-1-3.15.6l-4 1.4 7.3-4.4.1-.1q0-.15.15-.15.75-.6 2-1.25l.1-.1 4.3-3.15v-.15l3.6-3 .15-.1.75-.65 1.25-1.1.5-.25 2.5-2.4.5-.5 4.5-5.25.65-.65v-.1l.25-.15.25-.5h.1q0-.25.15-.35l.75-.9q2.65-3.5 3.9-6.25l.1-.15.5-1.75h.15l.25-1.5.25-1.25.1-.5q.25-1.65.5-2 .25-.4.4 1.75v2.25l-.4 1.6-.5 1.55h.15l-.15.25-.25 1q-.1-.15-.25-.15l-2.1 3.65-1.65 2.25-.6.75-.15.15-.1.1.35.5-.75 1-.4-.35-1.35 1.6-.4.5-3.35 3.8-.5.5-1.5 1.35-1.65 1.4-.4.25-1.5 1.35-.1.15q-2.5 1.85-3.65 3.15h-.1L88.25 117l-.5.25-.35.25-2 1.35.25 1.4.1.5v.35h.15l-.15.25v.9l.4 2.15m-30.25.85.4-.1.25.25.1.25v.1l-.1.25-.9.9q-.75.6-1.25 1.6l-.5.75-.35.65q-.4.5-.5 1-1.4 2.5-2.3 6.15l-.1.25-.25.15h-.25l-.9-.4.25-1 .4.25 1.25-3.9q-.25 0-.4.15l.4-.75h.15l.1.1q0-.25.15-.35l.25-.4.1-.25q.5-1.1 1.15-2.15l-.15-.35q.25-.65.65-1.15l.1.65.9-1.4 1.35-1.25" fill="#7f3010"/></g><g id="n" fill-rule="evenodd"><path d="M46.9 23.6q-.75.5-1.65.75l-1 .1h-.1q-3.9 0-7.3 1.9h-.5q0 4.5-1.35 6.25-1.75 2.4-6.55 2.4l-.35-.15-.5.15q-2.25-.4-5.4-2.5l-.4-.25-2.35.75h-.15l-2.5.25q-1.4 0-4.4-2-2.25-1.4-3-2.4-3.9-.5-5.65-1.15l-1-.35h-.1Q0 25.95 0 23.2v-.75q.15-1.75.9-4 .5-2 1.5-4.3l.35-1.1 1.5-3q1.4-3.4 5.65-5.55 3.75-2.1 7.15-2.1l2.25.1 5.05.75 3.5.15 1.1.25L35.75 2l3.1-1H39q2.5-1 4.25-1 .75 0 3.9 1.4l3.15 1.25.75.1q1.1.15 2.25 1h-.25q.85.4 1.6 1.4 1.3 1.75 1.55 3.4v.6q0 2.15-2.55 6.55v-.15l-.35.5-2.65 3.65-.6.75-.25.25-2.15 2.4-.75.5m4.65-7.05.75-1.25h.1q0-.1.15-.25 2.35-4 2.35-5.9l-.1-1.1q-.4-1.15-1.15-2.15-.5-.75-1.1-1l-.15-.15q-.75-.6-1.5-.75l-1.5-.35-2.75-1.15Q44 1.25 43.25 1.25q-1.5 0-3.9.9l-3.25 1.1H36L31.45 4.4l.55.25.25.35-.15.5-.35.25-.4-.1q-.9-.5-2.15-.65l-1.5-.1-3.5-.4h-.1l-4.9-.75-2.15-.1q-1.9 0-4 .75l-.9.35q-.85.4-1.6.9-3.9 2-5.15 4.9v.1l-1.9 4-.75 1.8-.75 2.5q-.75 2.35-.75 4.25l.15.9q.25 1.1 1.35 1.85l.4.25.85.25.15.15 4.9.85q0-.6.35-2.85v-.5q.25-2.9.65-3.9v-.4l2-6.15.85-2.35q0-.4.25-.4h.5l.4.25v.5l-.9 2.25q-1.5 4.4-1.85 6.15v.15l-.25 1.25v.1l-.4 2.65-.1 1.4-.25 2 .1.35v.15q.5.85 2.65 2.1 2.6 1.8 3.75 1.8l2.25-.25 1.65-.5q-1.5-1.4-2-2.55-.4-.75-.4-1.5v-.85l.25-1.65q.65-3.15 2.4-8.5l.1-.5q.15-.4.4-.4h.5l.35.25v.5l-.1.4q-1.75 5.35-2.4 8.5l-.25 2.15v.1l.25 1q.5 1.25 2.5 2.8l.15.1.5.4q2.9 1.85 4.9 2.25l.25.1.35-.1q4.05 0 5.55-1.9 1.1-1.65 1.1-5.75v-1.9q0-.5-.35-.5-1.5 0-2.5 1.4l-.65 1q-.65.75-.65.1v-1.1l.25-.75q1.55-1.9 3.55-1.9 1.35 0 1.6 1.65v1q3.65-1.9 7.8-1.9 1.5-.1 2.6-1l1.65-1.9.4-.5h.1l2.65-3.25m-23.2-12.8.25.15v-.15h-.25" fill="#5e210b"/><path d="M51.55 16.55 48.9 19.8h-.1l-.4.5-1.65 1.9q-1.1.9-2.6 1-4.15 0-7.8 1.9v-1q-.25-1.65-1.6-1.65-2 0-3.55 1.9l-.25.75v1.1q0 .65.65-.1l.65-1q1-1.4 2.5-1.4.35 0 .35.5v1.9q0 4.1-1.1 5.75-1.5 1.9-5.55 1.9l-.35.1-.25-.1q-2-.4-4.9-2.25l-.5-.4-.15-.1q-2-1.55-2.5-2.8l-.25-1 .15-.1q2 1.25 3.6 1.25 1.9 0 3.4-2.4l2.25-4.4q.75-1.5 2.65-3.25l.25-.35 2.75-2.75.5-1.3q.25-.6.75-.6l2.15-.15 4.25-1.25q5.55-2.1 6.05-6l2.75 3.15q.6 1 .6 3.35l-.1 4.15M18.3 26.6v.6q0 .75.4 1.5.5 1.15 2 2.55l-1.65.5-2.25.25q-1.15 0-3.75-1.8-2.15-1.25-2.65-2.1v-.15l-.1-.35.25-2 .35.5q1.15 1.35 3.65 1.35l3.75-.85m-8.9-2q-.35 2.25-.35 2.85l-4.9-.85-.15-.15-.85-.25-.4-.25q-1.1-.75-1.35-1.85 1.5 1 4.75 1l3.25-.5" fill="#b35b3e"/><path d="M13.05 4.4q2.1-.75 4-.75l2.15.1 4.9.75h.1l3.5.4 1.5.1q1.25.15 2.15.65l.4.1.35-.25.15-.5-.25-.35-.55-.25L36 3.25h.1l3.25-1.1q2.4-.9 3.9-.9.75 0 3.4 1.25l2.75 1.15 1.5.35q.75.15 1.5.75l.15.15q.6.25 1.1 1 .75 1 1.15 2.15l.1 1.1q0 1.9-2.35 5.9-.15.15-.15.25h-.1l-.75 1.25.1-4.15q0-2.35-.6-3.35L48.3 5.9q-.5 3.9-6.05 6L38 13.15l-2.15.15q-.5 0-.75.6l-.5 1.3-2.75 2.75-.25.35q-1.9 1.75-2.65 3.25l-2.25 4.4q-1.5 2.4-3.4 2.4-1.6 0-3.6-1.25h-.15l.25-2.15q.65-3.15 2.4-8.5l.1-.4v-.5l-.35-.25h-.5q-.25 0-.4.4l-.1.5q-1.75 5.35-2.4 8.5l-.25 1.65v.25l-3.75.85q-2.5 0-3.65-1.35l-.35-.5.1-1.4.4-2.65h.1q.65.65 1.9.65 2.75 0 4.9-1.65.6-.6 1.25-2.25.5-1.6 1-2.35l.1-.25q1.5-2.65 4.3-3.55l2.85-.5q1.4-.35 1.4-1.85 0-2-6.4-3.9-5.15-1.5-6.8-1.5h-2.6m-3 15.8q-.4 1-.65 3.9v.5l-3.25.5q-3.25 0-4.75-1l-.15-.9q0-1.9.75-4.25l1.75.85q1.75.75 3.4.75l2.9-.35" fill="#e7a269"/><path d="m11.05 21.45.25-1.25v-.15q.35-1.75 1.85-6.15l.9-2.25v-.5l-.4-.25h-.5q-.25 0-.25.4l-.85 2.35-2 6.15v.4l-2.9.35q-1.65 0-3.4-.75L2 18.95l.75-2.5.75-1.8 1.9-4v-.1q1.25-2.9 5.15-4.9.75-.5 1.6-.9l.9-.35h2.6q1.65 0 6.8 1.5 6.4 1.9 6.4 3.9 0 1.5-1.4 1.85l-2.85.5q-2.8.9-4.3 3.55l-.1.25q-.5.75-1 2.35-.65 1.65-1.25 2.25-2.15 1.65-4.9 1.65-1.25 0-1.9-.65l-.1-.1" fill="#f5cd89"/><path d="M50.3 2.65Q51.15 2 51.65 2q.5 0 5.15 1.9 2.15.5 2.65 1.1.35.5.35 2.55l-.1 2.35-1 4q-1.25 4.15-2.25 5.65l-.75 1.25-.9 1q-1.25 1.4-3.15 1.55l-4.75.25.75-.5 2.15-2.4.25-.25.6-.75 2.65-3.65.35-.5v.15q2.55-4.4 2.55-6.55v-.6q-.25-1.65-1.55-3.4-.75-1-1.6-1.4h.25q-1.15-.85-2.25-1l-.75-.1" fill="#72240d"/></g><use ffdec:characterId="2" height="42" width="53.8" xlink:href="#i" id="c"/><use ffdec:characterId="4" height="87.2" width="57.35" xlink:href="#j" id="d"/><use ffdec:characterId="6" height="58.55" width="97.05" xlink:href="#k" id="e"/><use ffdec:characterId="8" height="56.8" width="53.65" xlink:href="#l" id="f"/><use ffdec:characterId="10" height="172.05" width="201.75" xlink:href="#m" id="g"/><use ffdec:characterId="16" height="35" width="59.8" xlink:href="#n" id="h"/><path d="M27.75 0q0 2-8.15 3.4Q11.5 4.9 0 4.9q-11.5 0-19.65-1.5-8.1-1.4-8.1-3.4 0-2.05 8.1-3.5Q-11.5-4.9 0-4.9q11.5 0 19.6 1.4 8.15 1.45 8.15 3.5" fill-opacity=".349" fill-rule="evenodd" transform="translate(27.75 4.9)" id="b"/></defs></svg>