<svg xmlns:ffdec="https://www.free-decompiler.com/flash" xmlns:xlink="http://www.w3.org/1999/xlink" ffdec:objectType="frame" height="90" width="90" xmlns="http://www.w3.org/2000/svg"><use ffdec:characterId="42" height="91.75" transform="translate(0 -.35)" width="90" xlink:href="#a"/><defs><g id="a" transform="translate(0 .35)"><use ffdec:characterId="39" height="242.8" transform="matrix(.3777 0 0 .378 19.081 -.347)" width="148.2" xlink:href="#b"/><use ffdec:characterId="41" height="39.8" transform="scale(2.651 2.2613)" width="33.95" xlink:href="#c"/></g><g id="b" transform="translate(6.8 3.3)"><use ffdec:characterId="1" height="31.4" transform="translate(24.5 210.25) scale(.8116)" width="87.8" xlink:href="#d"/><use ffdec:characterId="2" height="109.25" transform="matrix(.9302 0 0 .4443 16.12 178.656)" width="110" xlink:href="#e"/><use ffdec:characterId="3" height="82.15" transform="translate(17.474 46.179) scale(.9302)" width="81.15" xlink:href="#f"/><use ffdec:characterId="5" height="89.7" transform="translate(3.335 39.435) scale(.9302)" width="28.2" xlink:href="#g"/><use ffdec:characterId="6" height="60.25" transform="translate(8.67 99.82) scale(.9302)" width="46.1" xlink:href="#h"/><use ffdec:characterId="7" height="50.05" transform="translate(39.67 143.624) scale(.9302)" width="22" xlink:href="#i"/><use ffdec:characterId="8" height="95.75" transform="translate(48.57 117.03) scale(.9302)" width="32.9" xlink:href="#j"/><use ffdec:characterId="10" height="30.8" transform="translate(18.835 76.435) scale(.9302)" width="29.95" xlink:href="#k"/><use ffdec:characterId="12" height="37.7" transform="translate(15.77 95.899) scale(.9302)" width="20.35" xlink:href="#l"/><use ffdec:characterId="13" height="53.15" transform="translate(28.02 63.785) scale(.9302)" width="56.45" xlink:href="#m"/><use ffdec:characterId="14" height="72.75" transform="translate(27.87 100.735) scale(.9302)" width="68.05" xlink:href="#n"/><use ffdec:characterId="15" height="28.3" transform="translate(12.035 120.52) scale(.9302)" width="27.9" xlink:href="#o"/><use ffdec:characterId="16" height="54.45" transform="translate(7.22 64.935) scale(.9302)" width="35" xlink:href="#p"/><use ffdec:characterId="18" height="45.85" transform="translate(10.17 -.93) scale(.9302)" width="36.8" xlink:href="#q"/><use ffdec:characterId="19" height="72.45" transform="translate(25.844 11.37) scale(.9302)" width="58.8" xlink:href="#r"/><use ffdec:characterId="21" height="72.8" transform="translate(71.385 35.535) scale(.9302)" width="41.85" xlink:href="#s"/><use ffdec:characterId="23" height="50.7" transform="translate(71.235 -3.28) scale(.9302)" width="40.55" xlink:href="#t"/><use ffdec:characterId="24" height="72.4" transform="translate(50.635 70.07) scale(.9302)" width="55.45" xlink:href="#u"/><filter id="v"><feConvolveMatrix divisor="4" in="SourceGraphic" kernelMatrix="1 1 1 1" order="2 2" result="filterResult0"/></filter><use ffdec:characterId="27" filter="url(#v)" height="24.4" transform="translate(59.73 95.445) scale(.9302)" width="24.4" xlink:href="#w"/><filter id="x"><feConvolveMatrix divisor="4" in="SourceGraphic" kernelMatrix="1 1 1 1" order="2 2" result="filterResult1"/></filter><use ffdec:characterId="32" filter="url(#x)" height="119.85" transform="translate(12.608 53.726) scale(.9302)" width="124.85" xlink:href="#y"/></g><g id="e"><path d="M94.95 58.45q1.6-2.15 2.05-6.05-.4-11.25-7-14.6-4.9-4.9.3-12.2 5.15-7.4 13.85-6.55-10.25 1.8-12.2 8.6-2 6.75 6.6 14.25 8.6 7.4 9.4 19.55.8 12.1-8.65 20.6-1.4 8.7-5.65 14.35-6.35 1.2-13.45.9-2.85-.55-3.45 1.05-28.1 11.4-28.25-11.25 1.65 4.25 6.4 6.55 15.8 1.6 16.55-10.55-.35-3.75-1.75-6-2.15-3.2-6.5-3.45-3.4-.1-4.65 2.25 1.25-2.35 4.65-2.25 4.35.25 6.5 3.45-6.1-2.9-11.15-1.2v-.1q3.8-7.7 11.2-3.55 5.35 1.95 7.3 12.7 2.45 12.2 12.55 7.4 9-2.7 9.3-17.3.05-3.2 1.2-5.55 1.55-1.85 3.3-6.45l.05-7.65q-1.65-4.05-4.6-8.15-.5 8.8-3.9 11.2M74.8 58.3q3-2.1 3.6-7.6.65-5.8-1.7-8.7 7.05 2.9 8.6 8.5 1.55 5.45-2.35 9.2-4.05-1.6-8.15-1.4M51.65 9.7h2.85q7.75-3.45 14.05 2.35.25-4.25-.05-8.35 3.55 4.2 1.65 11.8 0 .75.55 1.3-.65 3.1-1.6 4.2-.6-4.85-5.65-5.95-1.95-2.55-11.8-5.35M68.8 24.4q-3.45-2.05.35-2.65.6.95-.35 2.65m9.05 1.3q-3.35-1.6-2.55-8.5l.3-.6q7.75-4.4 12.8 4.4-4.25-3.15-9.75-1.4-2 .75.5 2.75 1.6 2.3-.75 3.25l-.55.1m-74.3-.75q1.6-6.35 7.5-.75 3.85.55 4.2 7.6 0 4.85-3.1 6.55-1.55.35-1.2-1.6l.75-.45q2.75-1.8 1.45-3.4-3.6-1.95-7.95 2.15l1.85-2.25q5.2-5.5-3.5-7.85m13.5-14.6q-4.9 3.1.7 10.4-3.55-.65-3.55-8.55Q15.35 4.9 18.9.8q7.1-1.3 14.2.75-14.85 1.2-16.05 8.8m1.85 11.8q3.35 3 5.25 7l.15.3q1.7 17.7-6.35 21.8-2.2-.35-5-1.4-14.6-5.5-7.75-14.8 4.35-4.1 7.95-2.15 1.3 1.6-1.45 3.4l.7-2.1-7 1.9q-1.6 6.45 4 9.9 7.55 2.9 11.35-3.55 3.6-3.1 1.3-11.15-.6-3.55-2.45-5.5-1.05-1.4-.7-3.65m7.25 59.35q1.75 2.05 4.45-1.05-1.1 4.4-3.75 4.6l-.6 2.15q-4.65 1.8-7.85.65-6.55 5.25-10.9 2.65-.75-2.15-.6-4.7l.35-2.25q.65 5.15 3.85 6 2.95-.85 3.35-5.25 6.2 4.7 11.7-2.8" fill="#ff9076" fill-rule="evenodd" transform="translate(1 1)"/><path d="M94.95 58.45q3.4-2.4 3.9-11.2 2.95 4.1 4.6 8.15l-.05 7.65q-1.75 4.6-3.3 6.45-1.15 2.35-1.2 5.55-.3 14.6-9.3 17.3-10.1 4.8-12.55-7.4-1.95-10.75-7.3-12.7-7.4-4.15-11.2 3.55l-.05.1h.05q5.05-1.7 11.15 1.2 1.4 2.25 1.75 6-.75 12.15-16.55 10.55-4.75-2.3-6.4-6.55-1.65-4.3-.1-10.75 2.55-7.6 6.35-10.4 6.8-6.45 14.7-6.25 3.2.1 5.35-1.4 4.1-.2 8.15 1.4l.55.25q8.1 2.9 11.45-1.5M68.5 3.7q.3 4.1.05 8.35-6.3-5.8-14.05-2.35h-3.1q-6.2-.65-10.3-4.8l14.4-3.8q7.25-2.85 12 1.55l1 1.05m.6 17.3q.95-1.1 1.6-4.2.65.55 2.2.65l2.4-.25q-.8 6.9 2.55 8.5-4.95.95-8.7-1.05l-.35-.25q.95-1.7.35-2.65L69.1 21M3.55 24.95Q-.8 23.45.15 16.7 2.4 6.6 12.4 2.75q3.25-1.3 6.5-1.95-3.55 4.1-4.7 11.4 0 7.9 3.55 8.55l.85 1.1.3.3q-.35 2.25.7 3.65 1.85 1.95 2.45 5.5 2.3 8.05-1.3 11.15Q16.95 48.9 9.4 46q-5.6-3.45-4-9.9l7-1.9-.7 2.1-.75.45q-.35 1.95 1.2 1.6 3.1-1.7 3.1-6.55-.35-7.05-4.2-7.6-5.9-5.6-7.5.75m6.75 12.1.65-.3-.65.3m-3.05 46.5q.7-4.4 3-5.4-.6-15.2 7.85-15.1 9.45 1.5 6.85 16.2.5 1.5 1.2 2.25-5.5 7.5-11.7 2.8-.4 4.4-3.35 5.25-3.2-.85-3.85-6" fill="#ffea81" fill-rule="evenodd" transform="translate(1 1)"/><path d="M48.5 87.1q.15 22.65 28.25 11.25.6-1.6 3.45-1.05 7.1.3 13.45-.9L91.4 99q-7.25 5.15-11.85-.65-10.4 8.7-17.9 8.9-13.75-.3-18.3-14.05-2.6-10.2 5.05-16.85-1.55 6.45.1 10.75M41.1 4.9q4.1 4.15 10.3 4.8h.25q9.85 2.8 11.8 5.35Q57.2 13.8 42.9 16.7q-7.2-4.5-14.55-6.9-7.35-2.35-11.3.55 1.2-7.6 16.05-8.8 4 1.2 8 3.35M24.3 29.45q2.35 4.95 2.45 11.15-.4 11.6-8.8 10.65 8.05-4.1 6.35-21.8m1.95 57.75q-3 8.7-12.05 5.05-1.9 3.2-4.55 1.8-1.55-1.6-2.15-3.55 4.35 2.6 10.9-2.65 3.2 1.15 7.85-.65" fill="#ffbe9a" fill-rule="evenodd" transform="translate(1 1)"/><path d="M94.65 97.4q4.25-5.65 5.65-14.35 9.45-8.5 8.65-20.6-.8-12.15-9.4-19.55-8.6-7.5-6.6-14.25 1.95-6.8 12.2-8.6-8.7-.85-13.85 6.55-5.2 7.3-.3 12.2 6.6 3.35 7 14.6-.45 3.9-2.05 6.05-3.35 4.4-11.45 1.5M94.65 97.4 92.4 100q-7.25 5.15-11.85-.65-10.4 8.7-17.9 8.9-13.75-.3-18.3-14.05-2.6-10.2 5.05-16.85 2.55-7.6 6.35-10.4 6.8-6.45 14.7-6.25 3.2.1 5.35-1.4 3-2.1 3.6-7.6.65-5.8-1.7-8.7-1.45-1.7-3.9-2.45M83.95 60.7q3.9-3.75 2.35-9.2-1.55-5.6-8.6-8.5M69.5 4.7l-1-1.05q-4.75-4.4-12-1.55L42.1 5.9q-4-2.15-8-3.35Q27 .5 19.9 1.8q-3.25.65-6.5 1.95Q3.4 7.6 1.15 17.7q-.95 6.75 3.4 8.25 8.7 2.35 3.5 7.85L6.2 36.05q-6.85 9.3 7.75 14.8 2.8 1.05 5 1.4 8.4.95 8.8-10.65-.1-6.2-2.45-11.15m39.15-14.4q5.05 1.1 5.65 5.95l.05.75q-3.8.6-.35 2.65l.35.25q3.75 2 8.7 1.05l.55-.1q2.35-.95.75-3.25-2.5-2-.5-2.75 5.5-1.75 9.75 1.4-5.05-8.8-12.8-4.4l-.3.6-2.4.25q-1.55-.1-2.2-.65-.55-.55-.55-1.3 1.9-7.6-1.65-11.8m-51.45 6.65q3.95-2.9 11.3-.55 7.35 2.4 14.55 6.9 14.3-2.9 20.55-1.65m-45.7 5.7q-5.6-7.3-.7-10.4m.7 10.4.85 1.1.3.3q3.35 3 5.25 7m-16.9 54.4q.7-4.4 3-5.4-.6-15.2 7.85-15.1 9.45 1.5 6.85 16.2.5 1.5 1.2 2.25 1.75 2.05 4.45-1.05-1.1 4.4-3.75 4.6l-.6 2.15q-3 8.7-12.05 5.05-1.9 3.2-4.55 1.8-1.55-1.6-2.15-3.55-.75-2.15-.6-4.7l.35-2.25" fill="none" stroke="#b15c48" stroke-linecap="round" stroke-linejoin="round" stroke-width="2"/><path d="m84.5 60.95-.55-.25" fill="none" stroke="red" stroke-linecap="round" stroke-linejoin="round" stroke-width=".05"/><path d="M58.55 75.9q1.25-2.35 4.65-2.25 4.35.25 6.5 3.45 1.4 2.25 1.75 6-.75 12.15-16.55 10.55-4.75-2.3-6.4-6.55-1.65-4.3-.1-10.75m-37.45-39.6-.65.3m1.4-.75q2.75-1.8 1.45-3.4-3.6-1.95-7.95 2.15m6.5 1.25-.75.45m47.6 39.15h-.05" fill="none" stroke="#b15c48" stroke-linecap="round" stroke-linejoin="round" transform="translate(1 1)"/></g><g id="f"><path d="M15.35 45.2Q12.1 68.9 24.8 88.5q18-3.75 34.05-14.9l26.5-18.9q10.5-7.65 10.5-18.5t-10.5-18.55Q74.9 10 58.7 7.4q-16.25-2.65-28.2 5.7T15.35 45.2" fill="#b48be8" fill-rule="evenodd" transform="translate(-14.7 -6.75)"/><path d="M.65 38.45Q3.85 14.7 15.8 6.35 27.75-2 44 .65q16.2 2.6 26.65 10.25 10.5 7.7 10.5 18.55 0 10.85-10.5 18.5l-26.5 18.9Q28.1 78 10.1 81.75-2.6 62.15.65 38.45z" fill="none" stroke="#000" stroke-linecap="round" stroke-linejoin="round" stroke-opacity="0" stroke-width="0"/></g><g id="B"><path d="m25.5 0 .25 1.8.15 1.6Q7.05 25.8 0 47.5q.1-4.85 2.75-11.1Q6.9 21.75 25.5 0m-4.15 26.65q-7.3 13.45-10.6 27.75-.75-23.05 10.6-36.8-1.4 6.3 0 9.05" fill="#fff" fill-rule="evenodd" transform="translate(.5 .5)"/><path d="m25.9 3.4.7 6.8v1.3q0 3.25.6 5.95Q16.85 38.3 16.65 60q.05 11.55 8 28.7-9.25-14.6-13.8-28.1-4.55-13.5 1.3-33Q1.7 40.3 2.2 56-.05 51.5 0 47.5 7.05 25.8 25.9 3.4M12.15 27.6l3.2-6.4-3.2 6.4m9.2-.95q-1.4-2.75 0-9.05Q10 31.35 10.75 54.4q3.3-14.3 10.6-27.75" fill="#caabdb" fill-rule="evenodd" transform="translate(.5 .5)"/><path d="M27.2 17.45Q16.85 38.3 16.65 60q.05 11.55 8 28.7-9.25-14.6-13.8-28.1-4.55-13.5 1.3-33Q1.7 40.3 2.2 56l.35 4.4M25.5 0Q6.9 21.75 2.75 36.4.1 42.65 0 47.5 7.05 25.8 25.9 3.4M15.35 21.2l-3.2 6.4M0 47.5q-.05 4 2.2 8.5" fill="none" stroke="#6e588f" stroke-linecap="round" stroke-linejoin="round" transform="translate(.5 .5)"/></g><g id="h"><path d="M44.6 28.75V29l-.3-.5.3.25" fill="#9f98cb" fill-rule="evenodd" transform="translate(1 1)"/><path d="m44.6 28.75-.3-.25.3.05v.2" fill="#fff" fill-rule="evenodd" transform="translate(1 1)"/><path d="M1.55 15.25q-.6-1.1-.2-2.2l.2-.45Q12.5.7 30.35.05l.4-.05h.05q6.95 27.35-5.3 54.75-3.35 6.75-7.45.4-1.7 4.4-3.7-2.2-1.9 3.3-3.8-6.05-2.1 3.2-2.15-4.6.6-6.5-1.6-10.6Q4 31.4 4.6 25q-3.8 4.75-3.05-1.5-3.1-1.7 0-8.25m10.2 12.9q-.5-.5-1.2-.5t-1.2.5q-.5.5-.5 1.2t.5 1.2q.5.5 1.2.5t1.2-.5q.5-.5.5-1.2t-.5-1.2m-3.25-4.1q-.4-1.15-1.05-.85-.65.3-1.1 1.15-.5.8-.5 1.65 0 .85.45 1.4.45.6 1.05.6.6 0 1.05-.6.45-.55.45-1.4l-.35-1.95M4.8 15.9q-.2-1.65-1.2-.9-1 .75-1.5 1.6-.5.85-.5 1.55-.05.7.4 1.5t1.05.5l1.05-.8.7-1.15q.2-.65 0-2.3" fill-rule="evenodd" transform="translate(1 1)"/><path d="M4.8 15.9q.2 1.65 0 2.3l-.7 1.15-1.05.8q-.6.3-1.05-.5-.45-.8-.4-1.5 0-.7.5-1.55.5-.85 1.5-1.6 1-.75 1.2.9m3.7 8.15L8.85 26q0 .85-.45 1.4-.45.6-1.05.6-.6 0-1.05-.6-.45-.55-.45-1.4 0-.85.5-1.65.45-.85 1.1-1.15.65-.3 1.05.85m3.25 4.1q.5.5.5 1.2t-.5 1.2q-.5.5-1.2.5t-1.2-.5q-.5-.5-.5-1.2t.5-1.2q.5-.5 1.2-.5t1.2.5" fill="#4c4c4c" fill-rule="evenodd" transform="translate(1 1)"/><path d="m44.3 28.5.3.5m0-.45-.3-.05" fill="none" stroke="#685f9c" stroke-linecap="round" stroke-linejoin="round" transform="translate(1 1)"/><path d="M2.55 16.25q-3.1 6.55 0 8.25Q1.8 30.75 5.6 26q-.6 6.4 2.2 6.7 2.2 4.1 1.6 10.6.05 7.8 2.15 4.6 1.9 9.35 3.8 6.05 2 6.6 3.7 2.2 4.1 6.35 7.45-.4Q38.75 28.35 31.8 1" fill="none" stroke="#000" stroke-linecap="round" stroke-linejoin="round" stroke-width="2"/></g><g id="i"><path d="M3.6 11.3Q6.55 8.35 3.45 0q-4.25-14.1 7.1-16.7 11.3-2.65 9.1 7.2-2.2 9.85-.95 15 1.25 5.15-1.4 13.7-15.4 4.45-13.7-7.9" fill="#2f2364" fill-rule="evenodd" transform="translate(1 18.25)"/><path d="M3.6 11.3q-1.7 12.35 13.7 7.9 3.6 12.2-9.25 11.55-.95-3.5 0-7.65-1.7 2.1-2.2 7.4-10.4-9.1-2.25-19.2" fill="#8888bf" fill-rule="evenodd" transform="translate(1 18.25)"/><path d="M18.3 37.45q2.65-8.55 1.4-13.7-1.25-5.15.95-15t-9.1-7.2Q.2 4.15 4.45 18.25q3.1 8.35.15 11.3" fill="none" stroke="#161340" stroke-linecap="round" stroke-linejoin="round" stroke-width="2"/><path d="M18.3 37.45Q21.9 49.65 9.05 49q-.95-3.5 0-7.65-1.7 2.1-2.2 7.4-10.4-9.1-2.25-19.2" fill="none" stroke="#544d83" stroke-linecap="round" stroke-linejoin="round" stroke-width="2"/><path d="M3.6 11.3q-1.7 12.35 13.7 7.9" fill="none" stroke="#161340" stroke-linecap="round" stroke-linejoin="round" transform="translate(1 18.25)"/></g><g id="j"><path d="M4.7 18.5Q5.2 6.15 10-1.15q3.7-5.7 10.8-8.05 16.5-3.1 6.1 31.45l.15.9-2.15-2.45q-4.9-5.2-9.55-6.2l-4.6 5.4-6.05-1.4" fill="#2f2364" fill-rule="evenodd" transform="translate(1 10.45)"/><path d="m4.7 18.5 6.05 1.4q5 1.55 9.95 4.3-1.8 2.45-.55 3-1.15 2.2-3.05 3.45-.25.35-.35.85L12 33.2l-1.75-1.5-5.05-4.2q-.65-4.9-.5-9m6.9 9.5q0 .4.3.7l.7.3.7-.3.3-.7-.3-.7q-.3-.3-.7-.3-.4 0-.7.3-.3.3-.3.7M9 27.3q.9 1.75 1.25 4.4Q9.9 29.05 9 27.3" fill="#988dff" fill-rule="evenodd" transform="translate(1 10.45)"/><path d="M11.6 28q0-.4.3-.7.3-.3.7-.3.4 0 .7.3l.3.7-.3.7-.7.3-.7-.3q-.3-.3-.3-.7" fill="#fcd2ff" fill-rule="evenodd" transform="translate(1 10.45)"/><path d="m10.75 19.9 4.6-5.4q4.65 1 9.55 6.2 1.8 9.35-2.55 16.2-7.6 6.7-15.25.5-1.3-5.3-1.9-9.9l5.05 4.2L12 33.2l4.75-1.7q.1-.5.35-.85 1.9-1.25 3.05-3.45l.55-1.3-.55 1.3q-1.25-.55.55-3-4.95-2.75-9.95-4.3m5.85 14.7q-.15-1.95.15-3.1-.3 1.15-.15 3.1m-6.2-.6-.15-2.3.15 2.3" fill="#4f4ab7" fill-rule="evenodd" transform="translate(1 10.45)"/><path d="m24.9 20.7 2.15 2.45q.65 5.35-.15 8.65-2.25 3.1-4.55 5.1 4.35-6.85 2.55-16.2" fill="#b48be8" fill-rule="evenodd" transform="translate(1 10.45)"/><path d="M20.15 27.2Q19 29.4 17.1 30.65q-.25.35-.35.85-.3 1.15-.15 3.1m-6.35-2.9.15 2.3m-.15-2.3Q9.9 29.05 9 27.3m11.15-.1.55-1.3" fill="none" stroke="#161340" stroke-linecap="round" stroke-linejoin="round" transform="translate(1 10.45)"/><path d="m28.05 33.6-.15-.9Q38.3-1.85 21.8 1.25 14.7 3.6 11 9.3q-4.8 7.3-5.3 19.65-.15 4.1.5 9 .6 4.6 1.9 9.9M28.05 33.6q.65 5.35-.15 8.65" fill="none" stroke="#161340" stroke-linecap="round" stroke-linejoin="round" stroke-width="2"/><path d="m6.4 40-.35-.65-.35-.8q-.8-2.5 1.8-1.6 1.6 1.5 3.7 2.1 1.05 2.2-.45 4.1l-.6-.25Q7.6 41.85 6.4 40m12.05-1.25q4.55-2 6.8-5.55.4 3.35-2.6 7.45Q20 42.25 17.6 43q-.6-1.6.85-4.25" fill="#ca7d5e" fill-rule="evenodd" transform="translate(1 10.45)"/><path d="m25.25 33.2 1.15-2.25q2.65 3.05-1.8 8.4l-1.95 1.3q3-4.1 2.6-7.45M11.2 39.05q2.8.8 6.55 0l.7-.3Q17 41.4 17.6 43q-3.7 1.1-6.85.15 1.5-1.9.45-4.1" fill="#ffd370" fill-rule="evenodd" transform="translate(1 10.45)"/><path d="m24.6 39.35.3-.2q-1.45 1.9-2.45 4l-3.3 1.2q-6.35 1.7-12.2-1.65L6.4 40q1.2 1.85 3.75 2.9l.6.25q3.15.95 6.85-.15 2.4-.75 5.05-2.35l1.95-1.3" fill="#2f2364" fill-rule="evenodd" transform="translate(1 10.45)"/><path d="M22.45 43.15q-3.15 6.45-1.7 14.4l-2.9 1.6q-1.8-6.9 1.3-14.8l3.3-1.2" fill="#b48be8" fill-rule="evenodd" transform="translate(1 10.45)"/><path d="m17.85 59.15-.05.05Q10 62.65 6.1 55.75q2.05-5.85.85-13.05 5.85 3.35 12.2 1.65-3.1 7.9-1.3 14.8" fill="#4f4ab7" fill-rule="evenodd" transform="translate(1 10.45)"/><path d="m25.25 33.2 1.15-2.25m-1.8 8.4.3-.2m-17.4-2.2q1.6 1.5 3.7 2.1 2.8.8 6.55 0l.7-.3q4.55-2 6.8-5.55" fill="none" stroke="#8f4839" stroke-linecap="round" stroke-linejoin="round" transform="translate(1 10.45)"/><path d="m20.75 57.55-2.9 1.6m-.05.05Q10 62.65 6.1 55.75q2.05-5.85.85-13.05L6.4 40" fill="none" stroke="#161340" stroke-linecap="round" stroke-linejoin="round" transform="translate(1 10.45)"/><path d="M25.9 49.6q-1.45 1.9-2.45 4-3.15 6.45-1.7 14.4" fill="none" stroke="#161340" stroke-linecap="round" stroke-linejoin="round" stroke-width="2"/><path d="M27.4 41.4q2.65 3.05-1.8 8.4l-1.95 1.3Q21 52.7 18.6 53.45q-3.7 1.1-6.85.15l-.6-.25Q8.6 52.3 7.4 50.45l-.35-.65-.35-.8q-.8-2.5 1.8-1.6" fill="none" stroke="#8f4839" stroke-linecap="round" stroke-linejoin="round" stroke-width="2"/><path d="M6.2 54.6q-1.05-2.2 1.3-3.65 0 2.35 2.5 3.6l-.65 3.4L7.2 56l-1-1.4m8.55.9q2.65-.7 4.3-2.5.05 2.35-2.35 5.8l-2.85.55.9-3.85" fill="#ba6f54" fill-rule="evenodd" transform="translate(1 10.45)"/><path d="m5.2 56.05 1-1.45 1 1.4 2.15 1.95q1.75 1.25 3.6 1.35l.9.05 2.85-.55q2.25-.85 4.35-3.05l.65 1.4-2.05 1.5q-8.2 5.05-14.45-2.6" fill="#2f2364" fill-rule="evenodd" transform="translate(1 10.45)"/><path d="M10 54.55q1.5.75 3.9 1.1l.85-.15-.9 3.85-.9-.05q-1.85-.1-3.6-1.35l.65-3.4M19.05 53q1.05-1.15 1.65-2.75 1.45.2.7 5.1l-.35.4q-2.1 2.2-4.35 3.05 2.4-3.45 2.35-5.8" fill="#ffd370" fill-rule="evenodd" transform="translate(1 10.45)"/><path d="M21.7 57.15q.95 2.55 2.05 7.45-.3.35-.25.65l-2.15 3.15q-.3-5.9-1.7-9.75l2.05-1.5" fill="#b48be8" fill-rule="evenodd" transform="translate(1 10.45)"/><path d="M1.5 65.25q.8-4.9 3.7-9.2 6.25 7.65 14.45 2.6 1.4 3.85 1.7 9.75-3.1 3.95-6.85 5.35-.25-4.1.65-11.35-3.9 0-8.45-4.05L2.95 69.4q-1-2.25-1.45-4.15" fill="#4f4ab7" fill-rule="evenodd" transform="translate(1 10.45)"/><path d="M2.95 69.4 6.7 58.35q4.55 4.05 8.45 4.05-.9 7.25-.65 11.35l-3.65.7q-5.55.2-8.1-5.45l.2.4" fill="#988dff" fill-rule="evenodd" transform="translate(1 10.45)"/><path d="M21.2 78.6q-2.6 3.3-7.65 4.9-.65-2.95 0-7.45l-5.1.35-.2-.05.15-.65.05.5v.2-.2l-.05-.5-.15.65q-2.75-.75-5.15-3.4l-.8 7.3q-4.15-6.55-.8-15 .45 1.9 1.45 4.15l-.2-.4q2.55 5.65 8.1 5.45l3.65-.7q3.75-1.4 6.85-5.35.25 4.45-.15 10.2" fill="#8888bf" fill-rule="evenodd" transform="translate(1 10.45)"/><path d="M23.5 65.25q1.45 8.5-2.3 13.35.4-5.75.15-10.2l2.15-3.15" fill="#d0ebff" fill-rule="evenodd" transform="translate(1 10.45)"/><path d="m13.55 83.5-3.55.8q-1.4-2.2-1.55-7.9l5.1-.35q-.65 4.5 0 7.45m-5.3-7.15q-1.5 5.1-1.6 6.35-.15 1.3-1.6.45-2.15-2-2.75-2.9l.8-7.3q2.4 2.65 5.15 3.4" fill="#fff" fill-rule="evenodd" transform="translate(1 10.45)"/><path d="M7.5 50.95q0 2.35 2.5 3.6 1.5.75 3.9 1.1l.85-.15q2.65-.7 4.3-2.5 1.05-1.15 1.65-2.75m.7 5.1-.35.4q-2.1 2.2-4.35 3.05l-2.85.55-.9-.05q-1.85-.1-3.6-1.35L7.2 56l-1-1.4" fill="none" stroke="#8f4839" stroke-linecap="round" stroke-linejoin="round" transform="translate(1 10.45)"/><path d="m23.75 64.6.05.15" fill="none" stroke="#161340" stroke-linecap="round" stroke-linejoin="round" transform="translate(1 10.45)"/><path d="M7.2 65.05q-1.05-2.2 1.3-3.65m13.2-.7q1.45.2.7 5.1" fill="none" stroke="#8f4839" stroke-linecap="round" stroke-linejoin="round" stroke-width="2"/><path d="m23.8 64.75-.3.5-2.15 3.15q-3.1 3.95-6.85 5.35l-3.65.7q-5.55.2-8.1-5.45M1.5 65.25q.45 1.9 1.45 4.15" fill="none" stroke="#685f9c" stroke-linecap="round" stroke-linejoin="round" transform="translate(1 10.45)"/><path d="M24.5 75.7q1.45 8.5-2.3 13.35-2.6 3.3-7.65 4.9l-3.55.8q-1.4-2.2-1.55-7.9v-.2l-.05-.5-.15.65q-1.5 5.1-1.6 6.35-.15 1.3-1.6.45-2.15-2-2.75-2.9-4.15-6.55-.8-15" fill="none" stroke="#685f9c" stroke-linecap="round" stroke-linejoin="round" stroke-width="2"/><path d="m6.2 66.5 1-1.45m14.85 1.15.65 1.4q.95 2.55 2.05 7.45M2.5 75.7q.8-4.9 3.7-9.2" fill="none" stroke="#161340" stroke-linecap="round" stroke-linejoin="round" stroke-width="2"/></g><g id="C"><path d="M28.95 4.15Q24.35 23.1 14 29.8 4.95 28.1 0 22 1.7 7.25 12 0q8.8.3 16.95 4.15" fill="#2f2364" fill-rule="evenodd" transform="translate(.5 .5)"/><path d="M28.95 4.15Q24.35 23.1 14 29.8M0 22Q1.7 7.25 12 0" fill="none" stroke="#2a274c" stroke-linecap="round" stroke-linejoin="round" transform="translate(.5 .5)"/></g><g id="D"><path d="M11.2 10.15q1.05.15 2 .6l2 1.25q.6 2.15-.8 2l-.05-.05q-.45-.4-.9-.6-.9-.5-2.05-.65l-3.35.15-1.7.4-.15-2.4.75-.35 4.25-.35m5.1 20.25q-2.85.45-5.25 1.55-1.2-2.65-2.05-5.4 2.55-1.5 5.9-1.4.5 2.6 1.4 5.25" fill="#ffd370" fill-rule="evenodd" transform="translate(1 .7)"/><path d="M13.2 10.75q-.95-.45-2-.6-.15-3.1 0-6.25 1.5 3.1 2 6.85m-1.8 1.95q1.15.15 2.05.65.2 3.95-.6 8.6-1.05-4.55-1.45-9.25" fill="#ffe3b9" fill-rule="evenodd" transform="translate(1 .7)"/><path d="m11.2 10.15-4.25.35-.75.35-.05-4.95Q8.25 7.5 9.6.3q3.1.65 5 3.2 3.05 5.2 2.6 11.15l-1.05-1.75-.95-.9-2-1.25q-.5-3.75-2-6.85-.15 3.15 0 6.25" fill="#988dff" fill-rule="evenodd" transform="translate(1 .7)"/><path d="M4.2.3q3.05-.55 5.4 0-1.35 7.2-3.45 5.6l.05 4.95Q.45 13.5.6 19.05-1.6 10.1 4.2.3" fill="#4f4ab7" fill-rule="evenodd" transform="translate(1 .7)"/><path d="m6.35 13.25 1.7-.4 3.35-.15q.4 4.7 1.45 9.25.8-4.65.6-8.6.45.2.9.6-.65 5.4.55 11.2-3.35-.1-5.9 1.4-2.1-6.35-2.65-13.3" fill="#ff5151" fill-rule="evenodd" transform="translate(1 .7)"/><path d="m14.35 13.95.05.05q1.6 1.35 2.2 4.05-.65 4.25.75 8.55-.8-.85-2.15-1.45h-.3q-1.2-5.8-.55-11.2M4.2 32.4q-.7-5.25-3-9.7-.15-7.65 5.15-9.45Q6.9 20.2 9 26.55l-2.4 1.8q-2.2 2.3-2.4 4.05" fill="#6a2e6d" fill-rule="evenodd" transform="translate(1 .7)"/><path d="m6.2 10.85.15 2.4q-5.3 1.8-5.15 9.45-.6-1.95-.6-3.65-.15-5.55 5.6-8.2M14.4 14q1.4.15.8-2l.95.9 1.05 1.75q.6 1.8-.6 3.4-.6-2.7-2.2-4.05m2.95 12.6q1.35 1.45.85 3.6-1.4 7.25-12.2 5.4-2.05-1.3-1.8-3.2.2-1.75 2.4-4.05l2.4-1.8q.85 2.75 2.05 5.4 2.4-1.1 5.25-1.55-.9-2.65-1.4-5.25h.3q1.35.6 2.15 1.45M6 35.6q2.2-2.3 5.05-3.65Q8.2 33.3 6 35.6m12.2-5.4-1.9.2 1.9-.2" fill="#ca7d5e" fill-rule="evenodd" transform="translate(1 .7)"/><path d="M13.2 10.75q-.95-.45-2-.6l-4.25.35-.75.35Q.45 13.5.6 19.05M15.2 12l-2-1.25m2 1.25.95.9 1.05 1.75m-2.3 10.5h.3q1.35.6 2.15 1.45m-1.05 3.8q-2.85.45-5.25 1.55Q8.2 33.3 6 35.6m10.3-5.2 1.9-.2m-14 2.2q.2-1.75 2.4-4.05l2.4-1.8q2.55-1.5 5.9-1.4" fill="none" stroke="#944a39" stroke-linecap="round" stroke-linejoin="round" transform="translate(1 .7)"/><path d="m6.35 13.25 1.7-.4 3.35-.15q1.15.15 2.05.65.45.2.9.6l.05.05q1.6 1.35 2.2 4.05m-10.25-4.8q-5.3 1.8-5.15 9.45" fill="none" stroke="#411333" stroke-linecap="round" stroke-linejoin="round" transform="translate(1 .7)"/><path d="M18.2 15.35q.6 1.8-.6 3.4m.75 8.55q1.35 1.45.85 3.6-1.4 7.25-12.2 5.4-2.05-1.3-1.8-3.2m-3-9.7q-.6-1.95-.6-3.65" fill="none" stroke="#944a39" stroke-linecap="round" stroke-linejoin="round" stroke-width="2"/><path d="M15.6 4.2q3.05 5.2 2.6 11.15m-16.6 4.4Q-.6 10.8 5.2 1" fill="none" stroke="#2c2e83" stroke-linecap="round" stroke-linejoin="round" stroke-width="2"/><path d="M17.6 18.75q-.65 4.25.75 8.55M5.2 33.1q-.7-5.25-3-9.7" fill="none" stroke="#411333" stroke-linecap="round" stroke-linejoin="round" stroke-width="2"/></g><g id="m"><path d="M1.7 10.2Q6.85-1.15 27.35-1.65q10.65.1 17.8 3.5 2 1.05 3.6 2.5-12.2 14.95-25.7 14.85l-1.65-.9q-3.95-2-7.6-3.1 2.15 1.85 4.45 3.45-8.05-1.6-16.55-8.45m10.8 3.85 1.3 1.15-1.3-1.15m8.9.9v3.35-3.35" fill="#2f2364" fill-rule="evenodd" transform="translate(1 2.65)"/><path d="m53.95 26.45-.4 2.5-.15.2-8.8 8.35-.75-.25q-1-2.45-6.05-4.5 3.4.1 6.25-3.05l.75-.95q-6.2-14.25 9.15-2.3" fill="#342867" fill-rule="evenodd" transform="translate(1 2.65)"/><path d="M53.5 29.25q-3.75 5.35-6.2 9.2l-2.7-.95 8.8-8.35.1.1" fill="#ba94e9" fill-rule="evenodd" transform="translate(1 2.65)"/><path d="M48.75 4.35q7.4 6.7 5.2 22.1-15.35-11.95-9.15 2.3l-.75.95q-3.3-6.6-10.1-8.8l-7.65.2-3.25-1.9q13.5.1 25.7-14.85m-34.7 45.3-2.5-.6-.15-.05q-.25-10.2-3.65-14.5-1.65-.95-2.9-2.15Q1.8 29.5.6 25.45-1 16.1 1.7 10.2q8.5 6.85 16.55 8.45l2.9 1.95q-5.8-.9-10.5-3.2L9.45 19q.75 4.15-3.35 7.65-.8 3.45 3.15 6.8l1.1-.2Q16.1 30 21.6 28.75q8 1.15 13.1 3.3 1.6.65 3.1.7 5.05 2.05 6.05 4.5-10.1-3.55-21.6-6.45-7.75.55-11 4.4l2.8 14.45m-4.8-16.2q-2.75.3-4.4-1.1 1.65 1.4 4.4 1.1" fill="#4f4ab7" fill-rule="evenodd" transform="translate(1 2.65)"/><path d="M47.3 38.45q-3.85 5.95-4.6 8.4-15.75 5.4-28.65 2.8l-2.8-14.45q3.25-3.85 11-4.4 11.5 2.9 21.6 6.45l.75.25 2.7.95m-21-17.35 7.65-.2q6.8 2.2 10.1 8.8-2.85 3.15-6.25 3.05-1.5-.05-3.1-.7-5.1-2.15-13.1-3.3-5.5 1.25-11.25 4.5l-1.1.2Q5.3 30.1 6.1 26.65q4.1-3.5 3.35-7.65l1.2-1.6q4.7 2.3 10.5 3.2l.25.15v6.6-6.6q6.05 3.75 12.9 6-4.15-3.25-8-5.65m13 16.05-7.25-.75-6.95-2.85h-6.2l-2.1 2.75-3 .85 3-.85 2.1-2.75h6.2l6.95 2.85 7.25.75m-3.1-9.8-1.9-.6 1.9.6" fill="#988dff" fill-rule="evenodd" transform="translate(1 2.65)"/><path d="M18.25 18.65q-2.3-1.6-4.45-3.45 3.65 1.1 7.6 3.1l1.65.9 3.25 1.9q3.85 2.4 8 5.65-6.85-2.25-12.9-6v-.1l-.25-.05-2.9-1.95m3.15 2V18.3v2.35" fill="#8565df" fill-rule="evenodd" transform="translate(1 2.65)"/><path d="M2.7 12.85Q7.85 1.5 28.35 1q10.65.1 17.8 3.5 2 1.05 3.6 2.5 7.4 6.7 5.2 22.1l-.4 2.5-.05.3q-3.75 5.35-6.2 9.2-3.85 5.95-4.6 8.4" fill="none" stroke="#1a1742" stroke-linecap="round" stroke-linejoin="round" stroke-width="2"/><path d="M18.25 18.65q-2.3-1.6-4.45-3.45l-1.3-1.15M44.05 29.7l.75-.95M21.4 18.3v-3.35M44.05 29.7q-2.85 3.15-6.25 3.05-1.5-.05-3.1-.7-5.1-2.15-13.1-3.3m-.45-8.15.25.15V18.3q-3.95-2-7.6-3.1m9.25 4-1.65-.9m4.9 2.8-3.25-1.9m11.25 7.55 1.9.6m-14.8-6.6v6.6m-.25-6.75-2.9-1.95m3.15 2.1q6.05 3.75 12.9 6-4.15-3.25-8-5.65" fill="none" stroke="#1a1742" stroke-linecap="round" stroke-linejoin="round" transform="translate(1 2.65)"/><path d="m9.25 33.45 1.1-.2Q16.1 30 21.6 28.75m-7.8 8.4 3-.85 2.1-2.75h6.2l6.95 2.85 7.25.75m-34.45-4.8q1.65 1.4 4.4 1.1" fill="none" stroke="#2c2e83" stroke-linecap="round" stroke-linejoin="round" transform="translate(1 2.65)"/><path d="m12.55 51.7-.15-.05q-.25-10.2-3.65-14.5Q7.1 36.2 5.85 35 2.8 32.15 1.6 28.1 0 18.75 2.7 12.85" fill="none" stroke="#2c2e83" stroke-linecap="round" stroke-linejoin="round" stroke-width="2"/></g><g id="n"><path d="M19.1 17.8q.65.65 1.75.15t2.25.2q-.2 1.8-.8 2.5 5.25-.65 5.15-3.9l-.5-.7q5.4-4.6 1.95-9.55l-1-1.05 2.45-.15q5.55-1.85 9-.8l1.4 2.7q3.55 7.6-.95 9.1l-4.3.25-.5 1.1-1.55 3.1q-2.4 4.35-4.15 4.55-.6.05-1.15-.4-4.1 4.55-6.9 3.95l.55-3.15q1.85.45 2-1.05.15-1.55-.9-1.75-.6-.45 0-1.4-2.15.25-3.55-.85-.4-1.3-.3-2.8l.05-.05m8.05 4.9-.3-.7-.65-.25q-.4 0-.7.25l-.05.05-.45-.1q-.5 0-.85.4-.3.4-.3 1t.3 1q.35.4.85.4t.8-.4l.35-.7h.05l.65-.3.3-.65m1.25-1.25-.2-.45-.45-.2-.45.2-.2.45.2.45q.2.2.45.2l.45-.2.2-.45" fill="#070705" fill-rule="evenodd" transform="translate(1 .5)"/><path d="M25.35 13.7h.15q1.05-.2 1.75-1t.7-1.9q0-1.1-.7-1.9l-.15-.15q-.65-.65-1.45-.6-.9 0-1.55.85-.3.35-.45.8L23.5 9q-.35-3.35-3.85-3.85-1.7.25-3.95 1.9l.6-1 .9-1.15q5.55-4.4 10.7.55l1 1.05q3.45 4.95-1.95 9.55l.5.7q.1 3.25-5.15 3.9.6-.7.8-2.5-1.15-.7-2.25-.2-1.1.5-1.75-.15l-.05-.05-.05-.3q.8-.95 2.3-.8 1.25-.6.95-1.55.95-1.1 1.25-2.5l.25.35q.6.8 1.6.75m1.6 2.35q-1.05-1.15-2.2-.75-1.5.45-1.65 2.55v.3-.3q.15-2.1 1.65-2.55 1.15-.4 2.2.75m-7.6 4.6.05.15q-1.8-1.05-2.65-2.05l-.15-.2q1.15.05 2.45-.7-.1 1.5.3 2.8" fill="#caabdb" fill-rule="evenodd" transform="translate(1 .5)"/><path d="m27.1 8.75.15.15q.7.8.7 1.9 0 1.1-.7 1.9-.7.8-1.75 1h-.15q-1.85-2.85 1.75-4.95M5.65 14.1l-.4-.25q1.15-4.2-.65-10.4L8.8 0q.65 1.25 0 3.45l.35.1q-.7 2.1 1.4 3.85l1.2 1.9q-4.15.5-6.1 4.8m10.8 4.45q-4.4-2.85-1.45-7.8.15 2.2 1.6 4.8-1.2 1.45 0 3h-.15m1.4-9.45.6 1.65.2 2q-.05.7-.65.7-1.8-2.7-.15-4.35" fill-rule="evenodd" transform="translate(1 .5)"/><path d="m40.75 7.2 4.2-.45L63 33.95q-6.3 4.2-12.2 5.5l-5.95-12.6-2.7-5.65-2.35-4.9q4.5-1.5.95-9.1m-7.3 13.55q4 19.65-3.5 44.1l1.4-19.1V32.4H28.9l-1.25-2.65 1.65-4.45q1.75-.2 4.15-4.55m-8.5 48.35q-3.55.2-7.5-1.6l-1.6-.2q-.2 2.25-1.2 3.95-5.85-.2-10.35-2.85l16.25-17.55q-4.8 8.7-11.3 17.65 2.05-2.4 6.4-1.25l12.3-16.65q0 7.05-1.25 13.7-1.7 2.75-1.75 4.8M5.55 39.2Q1.1 35.15 0 29.75L8 14.8l3.45.15q-1.05 2.4-1.25 4.6-.15 1.8.35 3.45l2-2.25Q10.75 29 11.2 37.3l3.05 7.65v9q-2.35-7.45-2.95-14.8l-2.7-12.9 1.6-6.7-1.6 6.7L5.55 39.2m15.7-10.35q2.8.6 6.9-3.95.55.45 1.15.4l-1.65 4.45Q25.5 34 21.55 38.1q-6.3-4.95-6.4-13 1.1 1.1 2.65 1.75l-.5-2.6q1.55 4.1 3.95 4.6m-5.4 38.45-.2-.05.2.05m-4.65-30 .1 1.85-.1-1.85m3.45 33.95q-3.7-1-5.4-2.75 1.7 1.75 5.4 2.75" fill="#6a2e6d" fill-rule="evenodd" transform="translate(1 .5)"/><path d="m63 33.95 3.05 4.65q-3.35 2.8-6.95 4.8-1.15-1.65-3.6-1.2-5 .55-10.3-.2-3.5-6.9-6.55-14.5l6.2-.65 5.95 12.6q5.9-1.3 12.2-5.5" fill="#ca7d5e" fill-rule="evenodd" transform="translate(1 .5)"/><path d="M36.25 21.1 35 17.65l.5-1.1 4.3-.25 2.35 4.9-5.9-.1" fill="#cf8868" fill-rule="evenodd" transform="translate(1 .5)"/><path d="M59.1 43.4q-4.1 2.2-8.55 3.35-2.35 1.3-3.55-1.35L45.2 42q5.3.75 10.3.2 2.45-.45 3.6 1.2M38.65 27.5l-2.4-6.4 5.9.1 2.7 5.65-6.2.65" fill="#ffd370" fill-rule="evenodd" transform="translate(1 .5)"/><path d="m16.3 6.05-.6 1q-.85 1.7-.7 3.7-2.95 4.95 1.45 7.8l.3.2q.85 1 2.65 2.05l-.05-.15q1.4 1.1 3.55.85-.6.95 0 1.4 1.05.2.9 1.75-.15 1.5-2 1.05l-.55 3.15q-2.4-.5-3.95-4.6l.5 2.6q-1.55-.65-2.65-1.75-1.75-1.8-2.35-4.65l-.25.3-2 2.25q-.5-1.65-.35-3.45.2-2.2 1.25-4.6L8 14.8q-1.4-.2-2.3-.7h-.05q1.95-4.3 6.1-4.8l-1.2-1.9q-2.1-1.75-1.4-3.85 3.2.65 5.15 2.45l2 .05m12.1 15.4-.2.45-.45.2q-.25 0-.45-.2l-.2-.45.2-.45.45-.2.45.2.2.45m-1.25 1.25-.3.65-.65.3h-.05l-.35.7q-.3.4-.8.4t-.85-.4q-.3-.4-.3-1t.3-1q.35-.4.85-.4l.45.1.05-.05q.3-.25.7-.25l.65.25.3.7m-7.6.3-.25-.15q-.15 0-.25.15l-.1.45.1.4.25.2.25-.2.1-.4-.1-.45m-2.2-1.2-.15.55.15.5q.2.25.45.25l.4-.25.2-.5-.2-.55-.4-.2-.45.2m-1-1.25-.4-.35-.45.35q-.15.4-.15.95 0 .55.15.9l.45.4.4-.4.2-.9-.2-.95M13.5 17.7q-.15-.15-.4-.15l-.45.15-.15.45q0 .25.15.4l.45.2.4-.2.2-.4-.2-.45m1.1 1.45-.45-.2-.45.2-.2.45.2.45q.2.2.45.2l.45-.2.2-.45-.2-.45" fill="#4c4c4c" fill-rule="evenodd" transform="translate(1 .5)"/><path d="m29.95 64.85-1.05 3.3q-1.9.8-3.95.95.05-2.05 1.75-4.8 1.25-6.65 1.25-13.7l-12.3 16.65q-4.35-1.15-6.4 1.25 6.5-8.95 11.3-17.65L4.3 68.4l-.3-.2Q2.55 66.4.15 66.75l3.3-18.6 2.1-8.95L8.6 26.25l2.7 12.9q.6 7.35 2.95 14.8v-9L11.2 37.3q-.45-8.3 1.35-16.55l.25-.3q.6 2.85 2.35 4.65.1 8.05 6.4 13 3.95-4.1 6.1-8.35l1.25 2.65h2.45v13.35l-1.4 19.1m-16.4.25 1.9-.2q6.05-9.35 9.3-17.95-6.35 9.25-11.2 18.15m6-22.95q-5.25-7.7-6.7-15.9.95 9.9 6.25 18.9 3.65-1.55 6.55-6.7l-6.1 3.7m9.35-9.75q-3.25 9.1-8.35 18.45 5.1-9.35 8.35-18.45" fill="#ff5151" fill-rule="evenodd" transform="translate(1 .5)"/><path d="M23.5 12.6q-.3 1.4-1.25 2.5.3.95-.95 1.55-1.5-.15-2.3.8l.05.3v.1q-1.3.75-2.45.7-1.2-1.55 0-3-1.45-2.6-1.6-4.8-.15-2 .7-3.7 2.25-1.65 3.95-1.9 3.5.5 3.85 3.85l.15.8-.35 1.15q-.2.9.2 1.65M19 17.45q-.6-3.1-2.4-1.9 1.8-1.2 2.4 1.9M17.85 9.1l-.1-.2q-.4-.65-.95-.65-.55 0-.95.65-.4.7-.3 1.7.1 1 .65 1.8.55.75 1.5 1l.3.05q.6 0 .65-.7l-.2-2-.6-1.65" fill="#fff" fill-rule="evenodd" transform="translate(1 .5)"/><path d="M25.35 13.7q-1 .05-1.6-.75l-.25-.35q-.4-.75-.2-1.65l.35-1.15q.15-.45.45-.8.65-.85 1.55-.85.8-.05 1.45.6-3.6 2.1-1.75 4.95M18 13.45l-.3-.05q-.95-.25-1.5-1-.55-.8-.65-1.8-.1-1 .3-1.7.4-.65.95-.65.55 0 .95.65l.1.2q-1.65 1.65.15 4.35" fill="#62509c" fill-rule="evenodd" transform="translate(1 .5)"/><path d="m17.35 21.8.45-.2.4.2.2.55-.2.5-.4.25q-.25 0-.45-.25l-.15-.5.15-.55m2.2 1.2.1.45-.1.4-.25.2-.25-.2-.1-.4.1-.45q.1-.15.25-.15l.25.15m-4.95-3.85.2.45-.2.45-.45.2q-.25 0-.45-.2l-.2-.45.2-.45.45-.2.45.2m-1.1-1.45.2.45-.2.4-.4.2-.45-.2q-.15-.15-.15-.4l.15-.45.45-.15q.25 0 .4.15m2.85 2.85.2.95-.2.9-.4.4-.45-.4q-.15-.35-.15-.9t.15-.95l.45-.35.4.35" fill="#dc9db7" fill-rule="evenodd" transform="translate(1 .5)"/><path d="M13.55 65.1q4.85-8.9 11.2-18.15-3.25 8.6-9.3 17.95l-1.9.2m6-22.95 6.1-3.7q-2.9 5.15-6.55 6.7-5.3-9-6.25-18.9 1.45 8.2 6.7 15.9" fill="#ffe9bd" fill-rule="evenodd" transform="translate(1 .5)"/><path d="m19 17.45.05.3.05.05q.65.65 1.75.15t2.25.2v-.3q.15-2.1 1.65-2.55 1.15-.4 2.2.75 5.4-4.6 1.95-9.55l-1-1.05Q22.75.5 17.2 4.9l-.9 1.15-.6 1q-.85 1.7-.7 3.7.15 2.2 1.6 4.8 1.8-1.2 2.4 1.9m7.95-1.4.5.7q.1 3.25-5.15 3.9.6-.7.8-2.5m-3.75 2.5.05.15q-1.8-1.05-2.65-2.05l-.15-.2q-1.2-1.55 0-3m2.45 2.3q-.1 1.5.3 2.8m-.3-2.8v-.1" fill="none" stroke="#62509c" stroke-linecap="round" stroke-linejoin="round" transform="translate(1 .5)"/><path d="m40.75 7.2-1.4-2.7q-3.45-1.05-9 .8l-2.45.15m7.1 12.2-1.55 3.1q-2.4 4.35-4.15 4.55-.6.05-1.15-.4-4.1 4.55-6.9 3.95-2.4-.5-3.95-4.6l.5 2.6q-1.55-.65-2.65-1.75-1.75-1.8-2.35-4.65l-.25.3-2 2.25q-.5-1.65-.35-3.45.2-2.2 1.25-4.6L8 14.8q-1.4-.2-2.3-.7m-.05 0-.4-.25q1.15-4.2-.65-10.4L8.8 0q.65 1.25 0 3.45l.35.1q3.2.65 5.15 2.45l2 .05M39.8 16.3q4.5-1.5.95-9.1M35 17.65l.5-1.1 4.3-.25" fill="none" stroke="#070705" stroke-linecap="round" stroke-linejoin="round" transform="translate(1 .5)"/><path d="m41.75 7.7 4.2-.45L64 34.45l3.05 4.65q-3.35 2.8-6.95 4.8-4.1 2.2-8.55 3.35-2.35 1.3-3.55-1.35l-1.8-3.4q-3.5-6.9-6.55-14.5l-2.4-6.4L36 18.15" fill="none" stroke="#8f4839" stroke-linecap="round" stroke-linejoin="round" stroke-width="2"/><path d="m39.8 16.3 2.35 4.9 2.7 5.65 5.95 12.6q5.9-1.3 12.2-5.5" fill="none" stroke="#8f4839" stroke-linecap="round" stroke-linejoin="round" transform="translate(1 .5)"/><path d="m27.65 29.75 1.65-4.45M15.65 67.25l.2.05M10.2 19.55l-1.6 6.7L5.55 39.2m5.75-.05-.1-1.85q-.45-8.3 1.35-16.55m2.6 4.35q.1 8.05 6.4 13 3.95-4.1 6.1-8.35m-13.4 24.2q-2.35-7.45-2.95-14.8m4.35 28.1q-4.35-1.15-6.4 1.25 1.7 1.75 5.4 2.75m-5.4-2.75q6.5-8.95 11.3-17.65 5.1-9.35 8.35-18.45" fill="none" stroke="#411333" stroke-linecap="round" stroke-linejoin="round" transform="translate(1 .5)"/><path d="M34.45 21.25q4 19.65-3.5 44.1l-1.05 3.3q-1.9.8-3.95.95-3.55.2-7.5-1.6l-1.6-.2q-.2 2.25-1.2 3.95-5.85-.2-10.35-2.85l-.3-.2q-1.45-1.8-3.85-1.45l3.3-18.6 2.1-8.95Q2.1 35.65 1 30.25L9 15.3" fill="none" stroke="#411333" stroke-linecap="round" stroke-linejoin="round" stroke-width="2"/></g><g id="o"><path d="M21.6 6.85q.45-2.05.35-4.6l.75 1.9q7.8 11.45-.8 19.5v-.4q0-1.2-.45-2.05-.45-.85-1.1-.85-.65 0-1 1-.2.55-.25 1.2-1.6-.4-.7-5.3 1.65-2.4-.85-4.85.65-.85 1.4-1.25l1.15-.65q1-1.6 1.5-3.65-.05 2.45-1.5 3.65 1.45-1.2 1.5-3.65" fill="#4f4ab7" fill-rule="evenodd" transform="translate(.5 1)"/><path d="M21.95 2.25q.1 2.55-.35 4.6-.5 2.05-1.5 3.65l-1.15.65q-.75.4-1.4 1.25-1 1.3-1.75 3.7.2 3-2.2 4.15l-.3-2.5q-.6-1.8-2.3-1.45-.7.15-1.55.65l.1-2.15q-2.1 3.7-4.25 4.05l-.25-2.4q-.6-2.15-2.65-1.1-.45-1.6 2.05-4.35-.25.4-.25.9 0 .65.45 1.1.5.5 1.15.5.65 0 1.1-.5.5-.45.5-1.1 0-.65-.5-1.15l-.3-.2L8.55 9.5q9.85-14.1 13.4-7.25M9.9 13.05q-.25.75-.35 1.75.1-1 .35-1.75l.45.55q.6.45 1.4.45.8 0 1.35-.45.6-.45.6-1.05 0-.6-.6-1.05-.5-.4-1.15-.45h-.2q-1.3.25-1.85 2m4.1-5.6q.5 3.3-2.05 3.6 2.55-.3 2.05-3.6" fill="#988dff" fill-rule="evenodd" transform="translate(.5 1)"/><path d="m6.6 10.55.3.2q.5.5.5 1.15 0 .65-.5 1.1-.45.5-1.1.5-.65 0-1.15-.5-.45-.45-.45-1.1 0-.5.25-.9l2.15-.45m3.3 2.5q.55-1.75 1.85-2h.2q.65.05 1.15.45.6.45.6 1.05 0 .6-.6 1.05-.55.45-1.35.45t-1.4-.45l-.45-.55" fill="#fcd2ff" fill-rule="evenodd" transform="translate(.5 1)"/><path d="M21.6 6.85q-.05 2.45-1.5 3.65l-1.15.65q-.75.4-1.4 1.25m-8 2.4q.1-1 .35-1.75.55-1.75 1.85-2h.2q2.55-.3 2.05-3.6" fill="none" stroke="#161340" stroke-linecap="round" stroke-linejoin="round" transform="translate(.5 1)"/><path d="M18.05 13.4q2.5 2.45.85 4.85-.9 4.9.7 5.3m2.8 1.1q8.6-8.05.8-19.5l-.75-1.9Q18.9-3.6 9.05 10.5L7.1 11.55 4.95 12q-2.5 2.75-2.05 4.35m2.9 3.5q2.15-.35 4.25-4.05l-.1 2.15m8.1-4.55q-1 1.3-1.75 3.7.2 3-2.2 4.15" fill="none" stroke="#161340" stroke-linecap="round" stroke-linejoin="round" stroke-width="2"/><path d="M5.05 16.45 1.7 20.5l.7-5.15q2.05-1.05 2.65 1.1m8.25 1.3q-2.95 2.75-3.35 5.9Q9.5 20 11 16.3q1.7-.35 2.3 1.45" fill="#fff" fill-rule="evenodd" transform="translate(.5 1)"/><path d="m2.4 15.35-.7 5.15 3.35-4.05.25 2.4Q2.4 22.9.2 24.75q-.75-4.05 1.1-8.7.6-.45 1.1-.7m10.9 2.4.3 2.5q-2.15 2.05-3.7 6.55-2.05-4.75-.45-9.8v-.05q.85-.5 1.55-.65-1.5 3.7-1.05 7.35.4-3.15 3.35-5.9m5.8 4.8q.05-.65.25-1.2.35-1 1-1t1.1.85q.45.85.45 2.05v.4l-.05 1.95q-.1 1.1-.8 1.05-.7-.05-1.25-.75-.55-.75-.7-2.15v-1.2" fill="#9f98cb" fill-rule="evenodd" transform="translate(.5 1)"/><path d="M5.05 16.45q-.6-2.15-2.65-1.1-.5.25-1.1.7-1.85 4.65-1.1 8.7 2.2-1.85 5.1-5.9l-.25-2.4M11 16.3q-.7.15-1.55.65V17q-1.6 5.05.45 9.8 1.55-4.5 3.7-6.55l-.3-2.5q-.6-1.8-2.3-1.45m8.1 6.25q.05-.65.25-1.2.35-1 1-1t1.1.85q.45.85.45 2.05v.4l-.05 1.95q-.1 1.1-.8 1.05-.7-.05-1.25-.75-.55-.75-.7-2.15v-1.2z" fill="none" stroke="#685f9c" stroke-linecap="round" stroke-linejoin="round" transform="translate(.5 1)"/></g><g id="p"><path d="M31.6 8.2q-2.45-3.8-5.5-5.5v1.7q2.25 3.6-3.3-.2-6.9 2.15-11.05 5.8-2-.15-2.1-.8-.45-2.9 13.5-5.15-1-2.15 1.9 0Q20.9-2.7 28.3 1.8l3.3 6.35v.05M15.65 9.9l.9.3q3.2.85-.55 1.4 6.1.25 0 2.35 2.35 1.1-.1 3.25-1.2 1.05-2.05 1.1-1.25.05-1.7-2.05L8.2 19l-1.85-.35q1.25-2.1 6.45-4.6-2.1-.6 1.85-2.2-4.35-.45 1-1.95M0 37.95l2.85-8.85 1.4-.9q2.7-1.55 4.7-3.85h.95Q5.25 28.8 2.45 33.3.95 35.6 0 37.95m5.7-13.6q-.15-2.9 4.4-5.05 1.7.25 2.7 0-5.15 2.65-7.1 5.05m9.25-11.25q-1.25 1.35-2.15.95.9.4 2.15-.95m.4 7.8q-.7-.2-.55-1.15l.15-1.5q0-.6 1.5-.95 1.5-.4 1.75.45l.15 1.6q-.1.75-.6 1.2-.45.5-1.1.5l-1.3-.15m1.9.65q0-.4.25-.7.3-.25.7-.25l.65.25.3.7-.3.65-.65.3q-.4 0-.7-.3l-.25-.65m2.8 1.45.15-.4.4-.15.4.15.15.4-.15.4-.4.15-.4-.15-.15-.4" fill="#dc9db7" fill-rule="evenodd" transform="translate(1 .5)"/><path d="M11.75 10Q15.9 6.35 22.8 4.2q5.55 3.8 3.3.2V2.7q3.05 1.7 5.5 5.5-1.45 1.45-1.25 4.9-3.2 14.4-4.5 3.05-.4 6.25-1.6 9.75-1.2 2.4-2 0-2.75 5.3-3.95.95-2.8 7-1.35 11.85-1.75-1.5-2.75-5.8-.35 7.65-2.55 6.6-2.55 9.45-2.05 0-10.95 12.85-3.65-1.55-6.05 2.1 4.2-6.65l-7.7 2q2.8-4.5 7.45-8.95h-.95q-2.15.9-3.25 0 1.95-2.4 7.1-5.05-1 .25-2.7 0L8.2 19l3.95-2.75q.45 2.1 1.7 2.05.85-.05 2.05-1.1 2.45-2.15.1-3.25 6.1-2.1 0-2.35 3.75-.55.55-1.4l-.9-.3-3.9.1m8.7-.1-3.9.3 3.9-.3m-3.2 11.65.25.65q.3.3.7.3l.65-.3.3-.65-.3-.7-.65-.25q-.4 0-.7.25-.25.3-.25.7m-1.9-.65 1.3.15q.65 0 1.1-.5.5-.45.6-1.2l-.15-1.6q-.25-.85-1.75-.45-1.5.35-1.5.95l-.15 1.5q-.15.95.55 1.15m-2.7 2q-1.7 1.15-2.75 1.45 1.05-.3 2.75-1.45m7.4.1.15.4.4.15.4-.15.15-.4-.15-.4-.4-.15-.4.15-.15.4" fill="#4c4c4c" fill-rule="evenodd" transform="translate(1 .5)"/><path d="m2.45 33.3 7.7-2q-10.25 8.75-4.2 6.65-7.3 14.4 3.65 1.55-.5 9.45 2.05 0 2.2 1.05 2.55-6.6 1 4.3 2.75 5.8-1.45-4.85 1.35-11.85 1.2 4.35 3.95-.95.8 2.4 2 0 1.2-3.5 1.6-9.75 1.3 11.35 4.5-3.05-.2-3.45 1.25-4.9l.15.25 1.75 3.35q-.2 8.05-2.65 5.8.05 3.8-1.4 4-.6 5.8-3.2 4.3-1.2 2.65-2 0l-1.2 4.1-.8-4.1q-1.5 5.4-5.35 8.05.7 4.2.05 4.75-.6.6-2.55-2.45-1.55 6.65 0 10.55-1.15-.15-2.25-3.5-3.1 4.5-2.8 8-3.55 3.3-6.05-.1l-2.2 1.75Q-.2 47.6 2.45 41.6q-3.35 1.4 0-4.3L0 37.95q.95-2.35 2.45-4.65" fill-rule="evenodd" transform="translate(1 .5)"/><path d="M31.6 8.15 28.3 1.8q-7.4-4.5-3.25 2.25-2.9-2.15-1.9 0Q9.2 6.3 9.65 9.2q.1.65 2.1.8l3.9-.1.9.3 3.9-.3m11.3-1.45-.15-.3m.15.3 1.75 3.35q-.2 8.05-2.65 5.8.05 3.8-1.4 4-.6 5.8-3.2 4.3-1.2 2.65-2 0l-1.2 4.1-.8-4.1q-1.5 5.4-5.35 8.05.7 4.2.05 4.75-.6.6-2.55-2.45-1.55 6.65 0 10.55-1.15-.15-2.25-3.5m-7.9-15.1q2.7-1.55 4.7-3.85-2.15.9-3.25 0-.15-2.9 4.4-5.05L8.2 19l-1.85-.35q1.25-2.1 6.45-4.6-2.1-.6 1.85-2.2-4.35-.45 1-1.95m-2.85 4.15q.9.4 2.15-.95m-6 11.25h.95q1.05-.3 2.75-1.45m-2.55-3.6q1.7.25 2.7 0" fill="none" stroke="#000" stroke-linecap="round" stroke-linejoin="round" transform="translate(1 .5)"/><path d="m4.3 51.7-2.2 1.75Q.8 48.1 3.45 42.1q-3.35 1.4 0-4.3L1 38.45l2.85-8.85 1.4-.9" fill="none" stroke="#000" stroke-linecap="round" stroke-linejoin="round" stroke-width="2"/></g><g id="E"><path d="M14.85 7.15q-2.4-1.8-5.5-1.45l-.45.35.45-.35q3.1-.35 5.5 1.45 2.45 4.05.75 9.6-1.45 3.4-.8 5.2-2.95-.35-3.85-3.25.9 2.9 3.85 3.25l.3.05q-2.55.75-4.6 1.9 2.05-1.15 4.6-1.9l.15.05 7.25.45h.5l11.4-.7.3 3.2-15.5-.4-3.9-.25q-3.45.4-4.8-.45-1.45-.85-.65-3.05l1.1-2.15q.7-2.15.75-4.2.05-4.4-2.8-8.45L6.15 2.8q.95 2.15 1.5 4.3Q6.4 8.3 6.1 9.55 6.4 8.3 7.65 7.1q.95 3.75.55 7.55-1.7.45-2.75 1.8 1.05-1.35 2.75-1.8-.35 3.4-1.85 6.85-1.1 2.55-2.85 5.1-.05 1.9.3 3.55-1 1.6-1.7 3.55Q.9 30.95.65 27.2l.9-2.75.6-1.4q2.3-3.25 3.3-6.6.95-3.35.65-6.9-.3-3.1-1.65-6.3-.8-2.2.2-3.25 7.55 2.7 10.2 7.15m.05 8.05-3.2-.7 3.2.7m-5.05 5.65 1.05.05-1.05-.05M22.5 22.5q-1.8.95-3.3 2.1 1.5-1.15 3.3-2.1M2.1 33.7q.7-1.95 1.7-3.55.65 3.2 2.8 5.3-1.75-1.05-2.45-2.65 1.3 4.45 7 6.45 3.55 1.2 8.75 1.5-5.15.7-8.9-.05-6.5-1.3-8.9-7m9.05 5.55L11 40.7l.15-1.45M6.35 21.5q-2.45.85-4.8 2.95 2.35-2.1 4.8-2.95" fill="#c47849" fill-rule="evenodd" transform="translate(1 1)"/><path d="M7.65 7.1q-.55-2.15-1.5-4.3L8.9 6.05q2.85 4.05 2.8 8.45-.05 2.05-.75 4.2l-1.1 2.15q-.8 2.2.65 3.05-1.45.75-2.6 1.7.35-2.05 1.7-4.7v-.05q.25-3.25 0-6.45-.25-2.9-.9-5.75.6 3 .45 5.8-.2 3.25-1.45 6.25l-.2.45-1.15.35 1.15-.35Q5.25 25.5 5.3 28.1l-1.5 2.05 1.5-2.05q.05 3.9 5.3 3.75Q7.05 30 7.9 25.6q1.15-.95 2.6-1.7 1.35.85 4.8.45l3.9.25 15.5.4v.05q.35 5.25-.3 10.15-15.25 2.95-22.9 1.8-3.05-.45-4.9-1.55-2.15-2.1-2.8-5.3-.35-1.65-.3-3.55 1.75-2.55 2.85-5.1 1.5-3.45 1.85-6.85l.95-.2-.95.2q.4-3.8-.55-7.55l.45-.4.8-.65-.8.65-.45.4m4.05 7.4-2.1-.1 2.1.1m-1.85 6.35H9.6h.25m9.35 3.75q-6.15 4.65-7.7 12.4 1.55-7.75 7.7-12.4" fill="#ffcb62" fill-rule="evenodd" transform="translate(1 1)"/><path d="m9.6 14.4-.45.05.45-.05q.25 3.2 0 6.45l-2.1.3 2.1-.3v.05q-1.35 2.65-1.7 4.7-.85 4.4 2.7 6.25-5.25.15-5.3-3.75-.05-2.6 2.2-6.95l.2-.45q1.25-3 1.45-6.25.15-2.8-.45-5.8.65 2.85.9 5.75M7.9 25.6l-2.6 2.5 2.6-2.5" fill="#fff68a" fill-rule="evenodd" transform="translate(1 1)"/><path d="m33.45 40.3-.8 2.7q-10.1 1.6-21.7.15L6.1 42.4Q2.65 40 1.15 36.9q-2-4.2-.5-9.7.25 3.75 1.45 6.5 2.4 5.7 8.9 7l-.05 2.45.05-2.45q3.75.75 8.9.05l1.25.05 12.3-.5M2.1 33.7l-.95 3.2.95-3.2" fill="#e5b96e" fill-rule="evenodd" transform="translate(1 1)"/><path d="m34.4 35.2-.95 5.1-12.3.5-1.25-.05q-5.2-.3-8.75-1.5L11.5 37l-.35 2.25q-5.7-2-7-6.45.7 1.6 2.45 2.65 1.85 1.1 4.9 1.55 7.65 1.15 22.9-1.8" fill="#894029" fill-rule="evenodd" transform="translate(1 1)"/><path d="m8.9 6.05.45-.35q3.1-.35 5.5 1.45M6.1 9.55Q6.4 8.3 7.65 7.1l.45-.4.8-.65m2.8 8.45 3.2.7m-3.95 3.5q.9 2.9 3.85 3.25l.45.1m-6.1-7.6.45-.05 2.1.1m-4.2 6.65 2.1-.3h.25l1.05.05m-2.7-6.25.95-.2m-3.7 2q1.05-1.35 2.75-1.8m-.7 6.5-1.15.35q-2.45.85-4.8 2.95m2.25 5.7 1.5-2.05 2.6-2.5q1.15-.95 2.6-1.7 2.05-1.15 4.6-1.9m7.4.5h.5m-3.8 2.1q1.5-1.15 3.3-2.1M1.15 36.9l.95-3.2q.7-1.95 1.7-3.55M11 40.7l.15-1.45.35-2.25q1.55-7.75 7.7-12.4M11 40.7l-.05 2.45" fill="none" stroke="#8a452d" stroke-linecap="round" stroke-linejoin="round" transform="translate(1 1)"/><path d="M15.85 8.15Q13.2 3.7 5.65 1q-1 1.05-.2 3.25 1.35 3.2 1.65 6.3.3 3.55-.65 6.9-1 3.35-3.3 6.6l-.6 1.4-.9 2.75q-1.5 5.5.5 9.7 1.5 3.1 4.95 5.5l4.85.75q11.6 1.45 21.7-.15l.8-2.7.95-5.1q.65-4.9.3-10.15m-19.9-3.1q-.65-1.8.8-5.2 1.7-5.55-.75-9.6M16.1 23l-.3-.05m.45.1 7.25.45m.5 0 11.4-.7.3 3.2m-19.45-2.95L16.1 23" fill="none" stroke="#8a452d" stroke-linecap="round" stroke-linejoin="round" stroke-width="2"/></g><g id="r"><path d="M70.35 32.8q-2-7.15-7.55-10.8-7.4-.15-10.95-3.4-7.9 2.3-14.2 1.9l-4.3-.7-9.9 8.2q3.55-7.25 7.4-10.55 4.2-2.15 7.55-.5 1.85 1.25 3.7 1.35 5-4.2 9.65-1.5 4 2.2 8.6 2.15Q75.4 23.4 73.4 41.2h-1.9q-.1-4.7-1.15-8.4m-32.7-12.3q3.1-.95 4.45-2.2-1.35 1.25-4.45 2.2" fill="#fcd2ff" fill-rule="evenodd" transform="translate(-15.85 -14.75)"/><path d="m23.45 28 9.9-8.2 4.3.7q6.3.4 14.2-1.9Q55.4 21.85 62.8 22q5.55 3.65 7.55 10.8-5.25 9-30.4 11 3.85 18.4 19 11.55 2.1 1.85-.2 8.4-7 6.9-6.3 17.75l-1.05.9q-3.75 4.55-12.75 4.2-5.55.15-8.6-1.2-3.75-1.65-3.85-5.5l-.5-3.05q2.05-1.6 2.1-3.95 15.35 3.5 14.9-9.95l-2.8-1.55q-2.55 10.8-12.1 11.5-.05-1.8-1.2-4-6.85-5.05-7.85-12v-1.3l-.3-2.95q10.85 11.5 15.3-8.85-3.8 2.9-6.85 0l-6.75-4.55q4.35-6.4 3.3-11.25" fill="#988dff" fill-rule="evenodd" transform="translate(-15.85 -14.75)"/><path d="m20.15 39.25 6.75 4.55q3.05 2.9 6.85 0-4.45 20.35-15.3 8.85l-.55-5.45-.25-1.8-.25-2.65 2.75-3.5m-1.4 17.65q1 6.95 7.85 12 1.15 2.2 1.2 4 9.55-.7 12.1-11.5l2.8 1.55q.45 13.45-14.9 9.95-.05 2.35-2.1 3.95-.95-3.9-3.55-7.45-2-2.65-2.8-6.55-.6-2.7-.6-5.95m33.7 24.6q-.7-10.85 6.3-17.75 2.3-6.55.2-8.4-15.15 6.85-19-11.55 25.15-2 30.4-11 1.05 3.7 1.15 8.4h1.9q0 4.15-.45 7.75-.45 3.55-1.65 8.25l-1.95 7.75-.65 1.15q-4.8 7.95-14.4 14.25l-.1.05-.45.2-.3.2-1 .7M22.4 24.6q4.6-5.2 8.45-7.15Q27 20.75 23.45 28q-2.65 6.5-5.65 8.7 1-6.15 4.6-12.1" fill="#4f4ab7" fill-rule="evenodd" transform="translate(-15.85 -14.75)"/><path d="M68.65 68.25q-1.85 7.3-12.85 11.4-.8.25-1.5.7 9.6-6.3 14.4-14.25-.3.6-.25.8l.2 1.35" fill="#b48be8" fill-rule="evenodd" transform="translate(-15.85 -14.75)"/><path d="M57.55 26.45q2-17.8-13.05-22.25-4.6.05-8.6-2.15-4.65-2.7-9.65 1.5-1.85-.1-3.7-1.35Q19.2.55 15 2.7q-3.85 1.95-8.45 7.15" fill="none" stroke="#2c2e83" stroke-linecap="round" stroke-linejoin="round" stroke-width="2"/><path d="M26.2 79.9q.1 3.85 3.85 5.5 3.05 1.35 8.6 1.2 9 .35 12.75-4.2l1.05-.9 1-.7M73.4 41.2q0 4.15-.45 7.75-.45 3.55-1.65 8.25l-1.95 7.75-.7 3.3q-1.85 7.3-12.85 11.4-.8.25-1.5.7l-.1.05-.45.2" fill="none" stroke="#20194e" stroke-linecap="round" stroke-linejoin="round" transform="translate(-15.85 -14.75)"/><path d="m18.45 52.65.3 2.95v1.3q0 3.25.6 5.95.8 3.9 2.8 6.55 2.6 3.55 3.55 7.45l.5 3.05m15.9-61.6q-1.35 1.25-4.45 2.2M17.8 36.7q-.55 3-.4 6.05l.25 2.65.25 1.8.55 5.45M17.8 36.7q1-6.15 4.6-12.1" fill="none" stroke="#2c2e83" stroke-linecap="round" stroke-linejoin="round" transform="translate(-15.85 -14.75)"/><path d="M54.75 42.25q3.65-.5 5.3 2.05t1.5 5.65q-.15 3.1-2.3 5.45-2.15 2.3-5.2 2.15-3.05-.2-5.7-2.15-2.65-2-2.45-5.7.2-3.75 2.7-5.35 2.5-1.6 6.15-2.1m-25.45 3.4q1.55 1.7 1.55 4.1 0 2.4-2 4.85-2 2.4-3.75 1.8-1.85-.7-3.25-2.25-1.4-1.65-1.45-4.8-.05-3.15 1.25-4.85 1.25-1.7 3.7-1.1 2.4.55 3.95 2.25" fill="#ff1f1f" fill-rule="evenodd" transform="translate(-15.85 -14.75)"/><path d="m54.25 72.4-.05.25q-1.45 6-4.3 7.4l3.1-11.9 1.25 4.25L53 68.15l-3.1 11.9h-.05l-1.5.4-.2.05.6-4.25L48 73.6l-2.25.25 1-4.55L48 73.6l-1.25-4.3-1 4.55-3.6.15H39.8l1.1-4.55L39.8 74l-4-.25-1.45-.15.35-3.65-.35 3.65-4.15-.7-1.6-.35.2-2.95 1.4 3.3-1.4-3.3-.2 2.95-2.65-.7q-.55-2.15-.25-4.35.55 1.5 3.1 2.1l5.9.35h.05l5.75-.55.4.05q8.05.4 15.2-2.45-1.35 2.6-1.8 5.15l-.05.25M42.15 74l-1.25-4.55L42.15 74m7.7 6.05-1.1-3.8 1.1 3.8m-15.1-10.1 1.05 3.8-1.05-3.8" fill="#a0a0e2" fill-rule="evenodd" transform="translate(-15.85 -14.75)"/><path d="m48.15 80.5-4.1.55-6.05.35 1.8-7.4-1.8 7.4h-.1l-4.25-.4.7-7.4-.7 7.4-.1-.05q-4.6-1-5.1-4.2l-.2-.25q-1.7-2.25-2.3-4.65l2.65.7 1.6.35 3.35 8.05-3.35-8.05 4.15.7 1.45.15 2.1 7.65-2.1-7.65 4 .25h2.35l1.9 7.05 1.7-7.2-1.7 7.2-1.9-7.05 3.6-.15L48 73.6l.75 2.65-.6 4.25m-19.9-4 .35-3.95-.35 3.95" fill="#fff" fill-rule="evenodd" transform="translate(-15.85 -14.75)"/><path d="M49.9 80.05q2.85-1.4 4.3-7.4l.05-.25.05-.25q.45-2.55 1.8-5.15-7.15 2.85-15.2 2.45l-.4-.05-5.75.55h-.05l-5.9-.35q-2.55-.6-3.1-2.1-.25-.55-.2-1.15m24.35 13.7-1.5.4-.2.05-4.1.55-6.05.35h-.1l-4.25-.4-.1-.05q-4.6-1-5.1-4.2m21.4 3.3h.05" fill="none" stroke="#282977" stroke-linecap="round" stroke-linejoin="round" transform="translate(-15.85 -14.75)"/><path d="M54.25 72.4 53 68.15l-3.1 11.9-.05.05v-.05l-1.1-3.8L48 73.6l-1.25-4.3-1 4.55-1.7 7.2-1.9-7.05-1.25-4.55L39.8 74 38 81.4l-.05.15-.05-.15-2.1-7.65-1.05-3.8-.05-.05v.05l-.35 3.65-.7 7.4-.05.15-.05-.2-3.35-8.05-1.4-3.3-.2 2.95-.35 3.95q-1.7-2.25-2.3-4.65-.55-2.15-.25-4.35m2.75 9.25-.2-.25" fill="none" stroke="#63639f" stroke-linecap="round" stroke-linejoin="round" transform="translate(-15.85 -14.75)"/><path d="M64.4 36.45q-2.8 4.65-7.3 4-4.95-.5-10.3 2.15-5.35 2.65-7-1.45 5.85-10 18.2-13.5.6 3.5 4.65 6.1l1.75 2.7m-16.45 3.5q.8-1.6-.25-1.9l-2.4.25q-1.4.55-2.05 1.1-.65.55-.85 1.5-.2.9.6 1.35l1.85.45q.95-.05 1.6-.6l1.5-2.15m-13.3 3.5q-2.95 2.35-6.25.2-2.5-3.1-7.45-4.15l-1-.4q-.25-.4.9-.4 3.95 2.4 4.6.35.9-2.65-2.45-3.65l1.75-6.3q10.2 6.65 9.9 14.35" fill="#988dff" fill-rule="evenodd" transform="translate(-15.85 -14.75)"/><path d="M39.8 41.15q1.65 4.1 7 1.45 5.35-2.65 10.3-2.15 4.5.65 7.3-4 1.45 2.95.25 5.5-2.5 2.55-5.15 1.5-6.25-2.2-12.35 2.6-2.5 2.65-4.75 1.25-2.5-1.95-2.6-6.15M19.95 39.1l1 .4q4.95 1.05 7.45 4.15 3.3 2.15 6.25-.2l-.55 3.2q-3.1 2.3-5.4.7Q25.65 45 20.25 44q-2.65-.9-3.9-6.15.5-.9 1.25-1.65.55 1.9 2.35 2.9" fill="#4f4ab7" fill-rule="evenodd" transform="translate(-15.85 -14.75)"/><path d="m47.95 39.95-1.5 2.15q-.65.55-1.6.6L43 42.25q-.8-.45-.6-1.35.2-.95.85-1.5.65-.55 2.05-1.1l2.4-.25q1.05.3.25 1.9m-28-.85q-1.8-1-2.35-2.9 1.15-1.15 2.95-1.9.85-2.65 3.25-5.8l.95.6L23 35.4q3.35 1 2.45 3.65-.65 2.05-4.6-.35-1.15 0-.9.4" fill="#fcd2ff" fill-rule="evenodd" transform="translate(-15.85 -14.75)"/><path d="m64.4 36.45-1.75-2.7q-4.05-2.6-4.65-6.1m-18.2 13.5q.1 4.2 2.6 6.15 2.25 1.4 4.75-1.25 6.1-4.8 12.35-2.6 2.65 1.05 5.15-1.5 1.2-2.55-.25-5.5m-46.8-.25q-.75.75-1.25 1.65 1.25 5.25 3.9 6.15 5.4 1 8.45 3.35 2.3 1.6 5.4-.7M17.6 36.2q1.15-1.15 2.95-1.9.85-2.65 3.25-5.8" fill="none" stroke="#2c2e83" stroke-linecap="round" stroke-linejoin="round" transform="translate(-15.85 -14.75)"/><path d="m39.35 64.7.9-.3.15.45q.95 3.75-3.25 5.25-5.5 1.25-8.9-2.7-.15-.9.05-1.85l.05-.15-.05-.05q-.65-4.7 1.6-9.05.85.85 1.4 3.15.2 2.1-.1 3.5l-.5-2.2-1.15 1.6q.25 2.4 1.1 3.6h.05q.15 2.05 2.05 2.6 6.15.95 6.7-3.35l-.1-.5m-11 .7v-.05q.35-1.6 1.15-2.95l.05-.05-.05.05q-.8 1.35-1.15 2.95v.05" fill="#ffcb62" fill-rule="evenodd" transform="translate(-15.85 -14.75)"/><path d="m39.35 64.7.1.5-3.2.75q.5-5.3 3.75-9.55 3.45 4.8 2.5 7.3l-.85.5-.85-2.4q-1.55-1.8-2.5.65.7 1 1.05 2.25m-8.65 1.25q-.1-1.15.45-2.85l.05-.15q.3-1.4.1-3.5l.45 2.4q1 2.6.1 4.1H30.7" fill-rule="evenodd" transform="translate(-15.85 -14.75)"/><path d="M28.25 67.4q3.4 3.95 8.9 2.7 4.2-1.5 3.25-5.25l-.15-.45-.9.3q-.35-1.25-1.05-2.25.95-2.45 2.5-.65l.85 2.4q.4 2.4-.85 4.85-4.05 4.4-9.85 2.05-2.4-1.5-2.7-3.7m2.45-1.45h-.05q-.85-1.2-1.1-3.6l1.15-1.6.5 2.2-.05.15q-.55 1.7-.45 2.85" fill="#c47849" fill-rule="evenodd" transform="translate(-15.85 -14.75)"/><path d="m39.35 64.7.1.5q-.55 4.3-6.7 3.35-1.9-.55-2.05-2.6-.1-1.15.45-2.85l.05-.15m-1.65-.6-.05.05q-.8 1.35-1.15 2.95v.05l-.05.15q-.2.95-.05 1.85.3 2.2 2.7 3.7 5.8 2.35 9.85-2.05 1.25-2.45.85-4.85l-.85-2.4q-1.55-1.8-2.5.65.7 1 1.05 2.25m-8.65-3.95-1.15 1.6" fill="none" stroke="#8a4526" stroke-linecap="round" stroke-linejoin="round" transform="translate(-15.85 -14.75)"/><path d="M59.85 18.95q-5.3 1.25-9.1 3.45-2.05 1.15-3.65 2.6-4.95 4.4 4 8.4l-2.5 3.1q1.65 1.45-1 6.45-1.55-7.8.9-7.95-1.2-2.85-5.2-6.15.85-3.5 2.95-6.45 2.05-2.95 5.4-5.4l.45-.35q2.8 2.2 7.75 2.3M30.7 18.6q.85 1.9 1.35 3.8.65 2.55.65 5-1.9 2.85-4.25 4.35 3.85 5.2-.15 10.75-1.65-5.15.7-6.7-.15-1.55-2.1-2.65-1.05-.35.4-1.65 2.5-2.45 3.6-4.75-.7-2.7-1.65-4.35L28 20.7q1.45-1.45 2.7-2.1" fill="#ffff4e" fill-rule="evenodd" transform="translate(-15.85 -14.75)"/><path d="M59.85 18.95q-5.3 1.25-9.1 3.45-2.05 1.15-3.65 2.6-4.95 4.4 4 8.4l-2.5 3.1q1.65 1.45-1 6.45-1.55-7.8.9-7.95-1.2-2.85-5.2-6.15.85-3.5 2.95-6.45 2.05-2.95 5.4-5.4l.45-.35M28 20.7l1.25 1.7q.95 1.65 1.65 4.35-1.1 2.3-3.6 4.75-1.45 1.3-.4 1.65 1.95 1.1 2.1 2.65-2.35 1.55-.7 6.7 4-5.55.15-10.75 2.35-1.5 4.25-4.35 0-2.45-.65-5-.5-1.9-1.35-3.8" fill="none" stroke="#ffb64e" stroke-linecap="round" stroke-linejoin="round" transform="translate(-15.85 -14.75)"/><path d="M36.25 1.9q2.8 2.2 7.75 2.3m-29.15-.35q-1.25.65-2.7 2.1" fill="none" stroke="#ffb64e" stroke-linecap="round" stroke-linejoin="round" stroke-width="2"/></g><g id="F"><path d="m.75 7.45 3 1.5.6 3.6v.05-.05l-.6-3.6 4.4 2.4q6.35 18.2 8.85 31.9L4.4 12.8l-.05-.2v.2q1.55 22.65 9.5 52.25l-3.2-1.85q-.8-18.4-7.3-36.15l-.2-1.35-.1-.65Q1.7 16.35.75 7.45m16.2 13.75q-4.1-3.55-5-7.6 6.4 4.05 13.45 9.4l5.5 25.05L16.95 21.2" fill="#fff" fill-rule="evenodd" transform="translate(.5 .5)"/><path d="m3.75 8.95-3-1.5L0 0h8.1q38 27.25 31.9 56.8.65-17.65-7.2-25.4 6.45 19.6-.4 31.65-1.3-8.8-6.95-17.6Q29.15 62 24.2 69.6q-3.8-1.3-7.4-3Q9.4 42.3 4.4 12.8q5 29.5 12.4 53.8l-2.95-1.55Q5.9 35.45 4.35 12.8h.05L17 43.25q-2.5-13.7-8.85-31.9l-4.4-2.4L3.6 8l.15.95m4.85.65 1.65 3Q19.1 29 25.1 44.45l.35.85v.15-.15l-.35-.85Q19.1 29 10.25 12.6l-1.65-3m22.8 17.8 1.4 4-1.4-4m-14.45-6.2L30.9 48.05 25.4 23q-7.05-5.35-13.45-9.4.9 4.05 5 7.6" fill="#caabdb" fill-rule="evenodd" transform="translate(.5 .5)"/><path d="M.75 7.45q.95 8.9 2.3 17.6m7.6 38.15 3.2 1.85 2.95 1.55q3.6 1.7 7.4 3 4.95-7.6 1.25-24.15 5.65 8.8 6.95 17.6 6.85-12.05.4-31.65l-1.4-4M4.35 12.6v-.05l-.6-3.6L3.6 8m.8 4.8-.05-.2m21.1 32.85v-.15l-.35-.85Q19.1 29 10.25 12.6l-1.65-3m-4.2 3.2q5 29.5 12.4 53.8M.75 7.45 0 0h8.1q38 27.25 31.9 56.8.65-17.65-7.2-25.4m-.4 31.65q.6 4.4.2 8.75m-21.95-8.6.35 1.4" fill="none" stroke="#6e588f" stroke-linecap="round" stroke-linejoin="round" transform="translate(.5 .5)"/></g><g id="G"><path d="m23.25.9-.45 1.7q-3.2 2.2-4.9 5.65-.75-1.35-.85-3.05.1 1.7.85 3.05-1.6 3.25-1.9 7.65-.1 1.45-.05 3.1.5 2.2.45 4.5l-.35 3.2-.1.4-.1.45-5.5-.8-7.05-.4 1.55-2.05q3.1-1 7.85-1.05l3.15.05-.1-.3q-1.7-5.05-1.7-9.05 0-5.25 3-8.75 2.25-2.65 6.2-4.3M22.2 11.75Q22.25 5 25.95.05q2.7-.4 2.45 1.35-4.85 4.5-4.5 9.8-.75.5-1.6.55h-.1.1q.85-.05 1.6-.55.2 3.1 2.2 6.55l-2.95 1.5 2.95-1.5q2.3 4.05 7.15 8.5v.05q-2.55 1.55-7.1 2.3l-.4-.1.4.1q4.55-.75 7.1-2.3 1.7 7.4-1.2 11.95-3.5-.35-6.7-2.1 3.2 1.75 6.7 2.1-3.1 4.65-11.2 6.15l-10.45.75L7.35 45l2.85-.3.2.45-.2-.45q5.4-.7 8.85-2.2l1.8 1.9-1.8-1.9q4.5-1.95 5.75-5.35l.55-1q1.25-2.95.4-7.65l-1.35-4.95-1.25-4.3q-.85-3.7-.95-6.9v-.6M16 15.9l-1.95-1.95L16 15.9m-3.3 7.35q-1.35 1.75-2.35 3.5 1-1.75 2.35-3.5m3.05-.25.65.5-.65-.5m.1.3q.45 1.85.2 3.4.25-1.55-.2-3.4" fill="#c47849" fill-rule="evenodd" transform="translate(.5 1)"/><path d="m22.8 2.6.45-1.7 1.5-.6 1.2-.25Q22.25 5 22.2 11.75v.6q-.25 3.5.05 7.05l-1.65-.7 1.65.7q.25 4.1 1.25 8.25v.05l-2.25-1.05 2.25 1.05q.6 4.25-.7 6.75-1.65 3.05-6.2 3.65 3.35-1.65 4.4-5.15.75-2.6.25-6.3l-.7-3.5q-.05-2.25.05-4.45.1-3.75.6-7.4.55-4.4 1.6-8.7m-.6 9.15-1-.45 1 .45m.6 22.7-1.8-1.5 1.8 1.5" fill="#fff68a" fill-rule="evenodd" transform="translate(.5 1)"/><path d="m28.4 1.4-.85 1.95q-1.1 2.3-1.2 4.65-.25 3.95 2.2 7.9l.25.4q3.2 3.55 7.2 5.8l.4.5q4.35 5.65 1.55 15.1l-.45 1.4q-3.45 6.25-9.65 8.4-4.2 1.4-9.6 1l-5.6.15Q7.6 48.3 2.7 46.4l-.55-1.15 5.2-.25 3.05.15 10.45-.75q2.85 2.5 7 3.1-4.15-.6-7-3.1 8.1-1.5 11.2-6.15 2.9-4.55 1.2-11.95h.05l-.05-.05q-4.85-4.45-7.15-8.5-2-3.45-2.2-6.55 1.4-.9 2.45-3.2-1.05 2.3-2.45 3.2-.35-5.3 4.5-9.8m.15 14.5-2.45 1.85 2.45-1.85m7.85 6.7q-.65 2.2-3.1 3.7 2.45-1.5 3.1-3.7m1.55 15.1-5.9.55 5.9-.55m-25.3 10.95q-1.3-1.8-2.25-3.5.95 1.7 2.25 3.5" fill="#e5b96e" fill-rule="evenodd" transform="translate(.5 1)"/><path d="M17.9 8.25q1.7-3.45 4.9-5.65-1.05 4.3-1.6 8.7-2.25-1.2-3.3-3.05 1.05 1.85 3.3 3.05-.5 3.65-.6 7.4-.1 2.2-.05 4.45l.7 3.5-4.85-3.15 4.85 3.15q.5 3.7-.25 6.3-2.65-2.4-5.05-5.85 2.4 3.45 5.05 5.85-1.05 3.5-4.4 5.15 4.55-.6 6.2-3.65 1.3-2.5.7-6.75v-.05q-1-4.15-1.25-8.25l.3.1.6-.25-.6.25-.3-.1q-.3-3.55-.05-7.05.1 3.2.95 6.9l1.25 4.3 1.35 4.95-2.25-.8 2.25.8q.85 4.7-.4 7.65l-2.55-1.7 2.55 1.7-.55 1-1.75 1.8-5.4 1.4-1.1-2.25q-1.4-3.5-2-8.25.9-1.05 1.3-2.3-.4 1.25-1.3 2.3.6 4.75 2 8.25l1.1 2.25-8.8 1.3q-4.9.2-8.3-.9-1.9-7.75 2.75-14.4l7.05.4 5.5.8.1-.45.1-.4.35-3.2q.05-2.3-.45-4.5-.05-1.65.05-3.1.3-4.4 1.9-7.65M16 15.9q1.95 1.55 4.6 2.8-2.65-1.25-4.6-2.8m-2.25 14.7.8-.75-.8.75m-3.4-3.85q-4.1 7.3-1.5 14.9-2.6-7.6 1.5-14.9" fill="#ffcb62" fill-rule="evenodd" transform="translate(.5 1)"/><path d="M2.15 45.25q-1.1-2.3-1.6-4.5 3.4 1.1 8.3.9.5 1.5 1.35 3.05-.85-1.55-1.35-3.05l8.8-1.3 5.4-1.4 1.75-1.8q-1.25 3.4-5.75 5.35-3.45 1.5-8.85 2.2l-2.85.3-5.2.25m15.5-4.9 1.4 2.15-1.4-2.15" fill="#894029" fill-rule="evenodd" transform="translate(.5 1)"/><path d="M23.75 1.9q-3.95 1.65-6.2 4.3-3 3.5-3 8.75 0 4 1.7 9.05l.1.3-3.15-.05q-4.75.05-7.85 1.05m21.1-24.25-1.2.25-1.5.6m2.7-.85q2.7-.4 2.45 1.35l-.85 1.95q-1.1 2.3-1.2 4.65-.25 3.95 2.2 7.9l.25.4q3.2 3.55 7.2 5.8l.4.5q4.35 5.65 1.55 15.1L38 40.1q-3.45 6.25-9.65 8.4-4.2 1.4-9.6 1l-5.6.15Q8.1 49.3 3.2 47.4" fill="none" stroke="#8a452d" stroke-linecap="round" stroke-linejoin="round" stroke-width="2"/><path d="M17.05 5.2q.1 1.7.85 3.05 1.05 1.85 3.3 3.05l1 .45h.1q.85-.05 1.6-.55 1.4-.9 2.45-3.2M2.7 46.4l-.55-1.15q-1.1-2.3-1.6-4.5-1.9-7.75 2.75-14.4l1.55-2.05m17.4-4.9.3.1.6-.25 2.95-1.5 2.45-1.85m-6.3 3.5-1.65-.7q-2.65-1.25-4.6-2.8l-1.95-1.95m7.2 12.7 2.25 1.05 2.25.8.4.1q4.55-.75 7.1-2.3h.05q2.45-1.5 3.1-3.7m-20 .9 4.85 3.15m-.25 6.3 1.8 1.5 2.55 1.7q3.2 1.75 6.7 2.1l5.9-.55m-27.6-10.95q1-1.75 2.35-3.5m3.7.25-.65-.5m.3 3.7q.25-1.55-.2-3.4m0 4.25.1-.45q2.4 3.45 5.05 5.85m-5.15-5.4q-.4 1.25-1.3 2.3.6 4.75 2 8.25l1.1 2.25 1.4 2.15 1.8 1.9q2.85 2.5 7 3.1m-13.3-17.65-.8.75M10.2 44.7q-.85-1.55-1.35-3.05-2.6-7.6 1.5-14.9m.05 18.4-.2-.45m.2.45q.95 1.7 2.25 3.5" fill="none" stroke="#8a452d" stroke-linecap="round" stroke-linejoin="round" transform="translate(.5 1)"/></g><g id="u"><path d="M26.8.4q17.5-2.9 19.2 15 2.8 2.45 3.3 4.85 3.7 5.35 4.1 12.6l-1.5.95q-.1-2.3-1.6-5.65-3.25-5.35-5.3-12-.85-7.1-7.8-11.7Q32.35.6 26.8.4" fill="#b48be8" fill-rule="evenodd" transform="translate(.5 1)"/><path d="m51.9 33.8-3.4 1.75q.45-9.55-5.9-16.95Q40 2.95 28.45 2.4q-2.65-.6-6.2 1.8-2.25 3.45-2.1 6 4.4 6.9 9.95 9.1 3.35 6.8 7.4 11.45l-1.9 5.8-1.4-.4q-5.35-5.55-8.45-15.5l-.3-.15q-3.3-1.6-6.45-4.85-2.15-6.85.1-14 4-1.4 7.7-1.25 5.55.2 10.4 4.05 6.95 4.6 7.8 11.7 2.05 6.65 5.3 12 1.5 3.35 1.6 5.65M29 21.75q-1.65-.35-3.25-1.1 1.6.75 3.25 1.1" fill="#4f4ab7" fill-rule="evenodd" transform="translate(.5 1)"/><path d="M48.5 35.55q-6.45 2.65-12.9 1l1.9-5.8q-4.05-4.65-7.4-11.45-5.55-2.2-9.95-9.1-.15-2.55 2.1-6 3.55-2.4 6.2-1.8Q40 2.95 42.6 18.6q6.35 7.4 5.9 16.95M28.7 5.95q0-.6-.55-1t-1.3-.4q-.8 0-1.35.4-.5.4-.5 1t.5 1q.55.4 1.35.4.75 0 1.3-.4t.55-1m10.6 21.1q-.3-4.1-4.8-8.9 1.5 5.85 4.8 8.9" fill="#988dff" fill-rule="evenodd" transform="translate(.5 1)"/><path d="M28.7 5.95q0 .6-.55 1t-1.3.4q-.8 0-1.35-.4-.5-.4-.5-1t.5-1q.55-.4 1.35-.4.75 0 1.3.4t.55 1m10.6 21.1Q36 24 34.5 18.15q4.5 4.8 4.8 8.9" fill="#fcd2ff" fill-rule="evenodd" transform="translate(.5 1)"/><path d="M27.3 1.4q17.5-2.9 19.2 15 2.8 2.45 3.3 4.85 3.7 5.35 4.1 12.6M19.6 2.65q4-1.4 7.7-1.25" fill="none" stroke="#2c2e83" stroke-linecap="round" stroke-linejoin="round" stroke-width="2"/><path d="M26.8.4q5.55.2 10.4 4.05" fill="none" stroke="#2c2e83" stroke-linecap="round" stroke-linejoin="round" transform="translate(.5 1)"/><path d="M25.75 20.65q1.6.75 3.25 1.1" fill="none" stroke="#2a274c" stroke-linecap="round" stroke-linejoin="round" transform="translate(.5 1)"/><path d="M34.7 37.15q-5.35-5.55-8.45-15.5l-.3-.15q-3.3-1.6-6.45-4.85" fill="none" stroke="#2a274c" stroke-linecap="round" stroke-linejoin="round" stroke-width="2"/><path d="m52.65 43.4-.2.2q-1.35 1-2.35 3.9-.4-2.65-1.7-4.65l2-2.4q-.75-3.5-2.4-4.95.65-6.4-2.5-11.95l1.6-.2q5.25 6.75 4.6 16.45 1 1.25.95 3.6M34.2 29.65l.8-.7 2.55 2q-2.05 4.5-3.1 8.7-3.2 1.6-3.85 5.25-.1-4.25 2.4-9.8 1.15-2 1.2-5.45" fill="#5f5abc" fill-rule="evenodd" transform="translate(.5 1)"/><path d="M45.5 23.55Q48.65 29.1 48 35.5q1.65 1.45 2.4 4.95l-2 2.4q-2.1-3.1-6.6-4.55h-.75l.55-3.95q-1.45 1.85-2.35 4.05-2.9.25-4.8 1.25 1.05-4.2 3.1-8.7l-2.55-2q5.1-4.55 10.5-5.4" fill="#988dff" fill-rule="evenodd" transform="translate(.5 1)"/><path d="M50.1 47.5v.3q-.2 2.2-2.4 4.75.55-4.4-1.3-7.35l2-2.35q1.3 2 1.7 4.65m-19.35-1.2-.35.55.2-1.95q.65-3.65 3.85-5.25l-.75 3.4q-1.6 1.25-2.95 3.25" fill="#ca7d5e" fill-rule="evenodd" transform="translate(.5 1)"/><path d="M41.9 57.95h-2q-.7-3.4-4.35-5.15-3.7-1.75-7.7 3.7l-1.25-.55q.8-2.9 2.75-4.25 1.55-1.15 3.8-1.25l2.05.1q3.05.45 4.7 2.25 1.75 1.85 2 5.15m6.5-15.1-2 2.35q-1.6-2.6-5.05-4.15l-.85-.1-2.1.05q-2.6.3-4.7 2.05l.75-3.4q1.9-1 4.8-1.25l1.8-.1h.75q4.5 1.45 6.6 4.55" fill="#ffd370" fill-rule="evenodd" transform="translate(.5 1)"/><path d="m38.4 41 2.1-.05q-1.05 4-2.8 7.1-.2-3.8.7-7.05m2.65-2.7-1.8.1q.9-2.2 2.35-4.05l-.55 3.95" fill="#fcd2ff" fill-rule="evenodd" transform="translate(.5 1)"/><path d="m40.5 40.95.85.1q3.45 1.55 5.05 4.15l-6.5 7.6q-1.65-1.8-4.7-2.25l-2.05-.1q-.15-3.6.55-7.4 2.1-1.75 4.7-2.05-.9 3.25-.7 7.05 1.75-3.1 2.8-7.1" fill="#ff5151" fill-rule="evenodd" transform="translate(.5 1)"/><path d="M47.7 52.55q-3.95 4.95-5.8 5.4-.25-3.3-2-5.15l6.5-7.6q1.85 2.95 1.3 7.35m-18.35-.85q1.65-2.5 1.4-5.4 1.35-2 2.95-3.25-.7 3.8-.55 7.4-2.25.1-3.8 1.25" fill="#6a2e6d" fill-rule="evenodd" transform="translate(.5 1)"/><path d="m47.1 23.35 3.3.1q3.05 5.1 2.65 8.15-.15 4.4.9 7.15-.15 3.5-1.3 4.65.05-2.35-.95-3.6.65-9.7-4.6-16.45" fill="#b48be8" fill-rule="evenodd" transform="translate(.5 1)"/><path d="M50.1 47.5v.3q-.2 2.2-2.4 4.75.55-4.4-1.3-7.35-1.6-2.6-5.05-4.15l-.85-.1-2.1.05q-2.6.3-4.7 2.05-1.6 1.25-2.95 3.25l-.35.55-.3.5m11.8 10.6h-2q-.7-3.4-4.35-5.15-3.7-1.75-7.7 3.7l-1.25-.55q.8-2.9 2.75-4.25 1.55-1.15 3.8-1.25l2.05.1q3.05.45 4.7 2.25 1.75 1.85 2 5.15m6.5-15.1q1.3 2 1.7 4.65m-19.5-2.6q.65-3.65 3.85-5.25 1.9-1 4.8-1.25l1.8-.1h.75q4.5 1.45 6.6 4.55m-18 4 .2-1.95" fill="none" stroke="#8f4739" stroke-linecap="round" stroke-linejoin="round" transform="translate(.5 1)"/><path d="M50.9 24.45q3.05 5.1 2.65 8.15-.15 4.4.9 7.15-.15 3.5-1.3 4.65l-.2.2q-1.35 1-2.35 3.9M33.5 36.1q-2.5 5.55-2.4 9.8" fill="none" stroke="#4c48b3" stroke-linecap="round" stroke-linejoin="round" stroke-width="2"/><path d="M34.2 29.65q-.05 3.45-1.2 5.45" fill="none" stroke="#4c48b3" stroke-linecap="round" stroke-linejoin="round" transform="translate(.5 1)"/><path d="M48.2 53.55q-3.95 4.95-5.8 5.4M29.85 52.7q1.65-2.5 1.4-5.4" fill="none" stroke="#411333" stroke-linecap="round" stroke-linejoin="round" stroke-width="2"/><path d="M27.25 55.4q4.25-2.95 7.55-2.55 3.25.35 6.5 4.15l-.4-.2q-4.9 2.35-6.25 8.25l-.25 1.25q-7 1.8-12.3 1.35-1.4-3.95-2.9-6.45.65 7.8-1.7 8.45l-1.35-1.35q-2.25.8-5.7-1.7l.55-.75q.5-.75.5-1.5-.1-1.4-2.05-2.65l-1.8-.2q2-1.75 3.95-.95l.35.9q.9 1.8 2.8 1.8l1.2-.2.35-.55q1.15-2.15-.2-5 1.6 1.1 3.1 3.7-1.05-2.6.5-2.6.45 1.75 1.85 2.75l.5.35.6-.05 1.05-.4q1.45-1.3.45-5.95l.9.7 2.2-.6 4.45-.3-4.45.3m.35 6.85Q27.1 58 25.05 56q2.05 2 2.55 6.25 1.8.45 3.05-.7 3.8 1.6 4 3.5-.2-1.9-4-3.5-1.25 1.15-3.05.7l.1 3.55-.1-3.55m5.3-4.45q3.3-3.55 8-1-4.7-2.55-8 1M16.15 68.3q-3.15-3.25-4.2-6.85 1.05 3.6 4.2 6.85" fill="#988dff" fill-rule="evenodd" transform="translate(.5 1)"/><path d="M41.3 57q-4.75 4.8-1.8 8-4.25 3.5-13.45 3.9-2.95 1.3-3.85-.9l.2.6q-2.25 2.05-4.1 1.75l-.8-.7q2.35-.65 1.7-8.45 1.5 2.5 2.9 6.45 5.3.45 12.3-1.35l.25-1.25q1.35-5.9 6.25-8.25l.4.2M22.2 68l-.1-.35.1.35" fill="#4f4ab7" fill-rule="evenodd" transform="translate(.5 1)"/><path d="M46.6 63.75q.35-1.3.3-3.05 2.9 3.15 3.25 8.15-3.8-.1-5.55-2.25.35-.2.65-.45l3.95 1.05-2.6-3.45" fill="#9f98cb" fill-rule="evenodd" transform="translate(.5 1)"/><path d="M45.25 66.15q.95-.9 1.35-2.4l2.6 3.45-3.95-1.05" fill="#fff" fill-rule="evenodd" transform="translate(.5 1)"/><path d="m22.2 68 .2.6M41.3 57l-.4-.2q-4.7-2.55-8 1m-10.8 9.85.1.35m12.45-2.95q-.2-1.9-4-3.5-1.25 1.15-3.05.7l.1 3.55M25.05 56q2.05 2 2.55 6.25m-8.4-1.05q1.5 2.5 2.9 6.45m-10.15-6.2q1.05 3.6 4.2 6.85" fill="none" stroke="#161340" stroke-linecap="round" stroke-linejoin="round" transform="translate(.5 1)"/><path d="M40 66q-4.25 3.5-13.45 3.9-2.95 1.3-3.85-.9m.2.6q-2.25 2.05-4.1 1.75l-.8-.7-1.35-1.35q-2.25.8-5.7-1.7m-2.8-5.1q2-1.75 3.95-.95m4.5-3.05q1.6 1.1 3.1 3.7-1.05-2.6.5-2.6m4.45-3.3.9.7 2.2-.6 4.45-.3" fill="none" stroke="#161340" stroke-linecap="round" stroke-linejoin="round" stroke-width="2"/><path d="M47.4 61.7q2.9 3.15 3.25 8.15-3.8-.1-5.55-2.25" fill="none" stroke="#685f9c" stroke-linecap="round" stroke-linejoin="round" stroke-width="2"/><path d="M21.55 61.35q-1.4-1-1.85-2.75-1-3.7 2.2-10.7 1.65 4.4 2.25 7.4 1 4.65-.45 5.95-1.55-4.15-1.4-10.15-1.95 4.45-.75 10.25m-6.8 1.9q-1.9 0-2.8-1.8l-.35-.9q-1-2.95-.3-9.05 3.55 3.3 4.8 6 1.35 2.85.2 5L12 54.3q-.25 4.6 2.75 8.95M11 65.85l-.55.75-.4.35Q2.65 65 0 61v-.25q3.65 3.05 11 5.1M1.35 60.7l8.1 1q1.95 1.25 2.05 2.65-6.9-.75-10.15-3.65" fill="#9f98cb" fill-rule="evenodd" transform="translate(.5 1)"/><path d="M21.55 61.35q-1.2-5.8.75-10.25-.15 6 1.4 10.15l-1.05.4-.6.05-.5-.35M16.3 62.5l-.35.55-1.2.2q-3-4.35-2.75-8.95l4.3 8.2m-4.8 1.85q0 .75-.5 1.5-7.35-2.05-11-5.1v-.2l1.35.15q3.25 2.9 10.15 3.65" fill="#fff" fill-rule="evenodd" transform="translate(.5 1)"/><path d="M23.7 61.25q1.45-1.3.45-5.95-.6-3-2.25-7.4-3.2 7-2.2 10.7.45 1.75 1.85 2.75l.5.35.6-.05 1.05-.4m-8.95 2q-1.9 0-2.8-1.8l-.35-.9q-1-2.95-.3-9.05 3.55 3.3 4.8 6 1.35 2.85.2 5l-.35.55-1.2.2m-3.25 1.1q0 .75-.5 1.5l-.55.75-.4.35Q2.65 65 0 61m0-.45 1.35.15 8.1 1q1.95 1.25 2.05 2.65" fill="none" stroke="#685f9c" stroke-linecap="round" stroke-linejoin="round" transform="translate(.5 1)"/><path d="M39.5 65q-2.95-3.2 1.8-8l1.8.4q3.25 1.05 3.8 3.3.05 1.75-.3 3.05-.4 1.5-1.35 2.4-.3.25-.65.45-2.1 1.35-5.1-1.6" fill="#9f98cb" fill-rule="evenodd" transform="translate(.5 1)"/><path d="M39.5 65q-2.95-3.2 1.8-8" fill="none" stroke="#161340" stroke-linecap="round" stroke-linejoin="round" transform="translate(.5 1)"/><path d="m41.8 58 1.8.4q3.25 1.05 3.8 3.3.05 1.75-.3 3.05-.4 1.5-1.35 2.4-.3.25-.65.45Q43 68.95 40 66" fill="none" stroke="#161340" stroke-linecap="round" stroke-linejoin="round" stroke-width="2"/></g><g id="w" transform="translate(1.85 2.8)"><use ffdec:characterId="25" height="19.2" width="19.7" xlink:href="#z"/><use ffdec:characterId="26" height="16.5" transform="translate(1.2 1.15)" width="18.5" xlink:href="#A"/></g><g id="z" fill-rule="evenodd"><path d="M.8 5.15 1 4.7q.7-1.15 1.9-2.1Q6.1 0 10.1 0t6.8 2.8l.75.85Q19.7 6.2 19.7 9.6v.2q-.05 3.85-2.8 6.6-2.25 2.25-5.3 2.7Q-1 17.5.8 5.15m5.9 4.1q-.15-.15-.35-.15L6 9.25l-.15.35.15.35.35.15.35-.15.15-.35-.15-.35m-1-.4.1.2.2.1.2-.1.1-.2-.1-.2-.2-.1-.2.1-.1.2m2.7 1.85.1.15-.05-.2-.05.05m-1.8 1.95-.1-.1.1.15v-.05m9.75 1.85-.05-.05-.05.2.1-.15" fill="#ffa125"/><path d="m5.7 8.85.1-.2.2-.1.2.1.1.2-.1.2-.2.1-.2-.1-.1-.2m1 .4.15.35-.15.35-.35.15L6 9.95l-.15-.35.15-.35.35-.15q.2 0 .35.15" fill="#ffa447"/><path d="m11.6 19.1-1.5.1q-4 0-6.9-2.85Q.3 13.45 0 9.3q-.15-2.35.8-4.15Q-1 17.5 11.6 19.1" fill="#ffb746"/></g><g id="A" fill-rule="evenodd"><path d="m9.8 2.45-.75.25q-1.6.6-2.8 1.5 2.2-.75 4-.55-3.75.95-4.45 2.6 3.05-2.5 5.65-1.75 1.45 1.1 3.6 3.55l-.15 2.55-1.1 2.1-.2-1.15-.3-1.05-1.6 1.95-1 .95q1.05-2 .7-3.85l.45-1.3.05-.2-.2-1.25-.2-.45q-.45-.7-1.65-.85Q8.6 5.35 8 6h-.05q-.55.55-.8 1.7 1.2-1.25 2.95-.95l.6.9q-2.1-.35-3.65.75l.15 1.15.1.15.4.55q.8.8 1.8.75h.05l.8-.3q-.7 2.85-2 3l-.7.45 2.85-.55-1.3 1.15q1.35.1 3.7-.95l-.8.7q1.35-.25 3-1.2l-.05.2q-1.3 1.35-2.85 2.2-4.2.35-6.45-1.25L4.4 13.1l-.3-.5q-.1-.75.35-1.8-.65-1.2-.8-2.8l.3.2q.45-.05.8-2l-.3-.3-.6-.05q.45-1.2 2.05-2.3 1.8-.9 3.9-1.1m1.9 4q1.4.75 3 3.25-.9-2.5-3-3.25M5.5 8.1q-.15-.15-.35-.15-.2 0-.35.15-.15.15-.15.35l.15.35.35.15.35-.15.15-.35-.15-.35m-.7-.7-.2.1-.1.2.1.2.2.1.2-.1.1-.2-.1-.2-.2-.1m.5 4 .1.15v-.05l-.1-.1" fill="#ff5102"/><path d="m9.8 2.45 3.9.1q1.35 2.05 1.25 3.55l-.15-.2q-2.5-3.7-5.75-3.2l.75-.25m5.2 4.3.05.55q-1.7-2.25-3.6-2.8-2.6-.75-5.65 1.75.7-1.65 4.45-2.6h.3q2.75.4 4.45 3.1M10.3 8l.15.05.1.2-.1.15-.15.1-.2-.1-.05-.15.05-.2.2-.05M7.25 9.5q-.1-.75.35-1.2.45-.45 1.15-.3l1.15.6q.45.45.45 1.05 0 .6-.45 1.05l-.35.3H9.5q-1 .05-1.8-.75l-.4-.55-.05-.2m1.9.9.25-.7-.25-.7q-.2-.3-.5-.3T8.1 9l-.2.7.2.7.55.3.5-.3" fill="#ff800f"/><path d="M9.05 2.7q3.25-.5 5.75 3.2l.2.85q-1.7-2.7-4.45-3.1h-.3q-1.8-.2-4 .55 1.2-.9 2.8-1.5" fill="#ff6706"/><path d="m14.8 5.9.15.2q.1-1.5-1.25-3.55l-3.9-.1q-2.1.2-3.9 1.1l-1.85 1.2L5.3 3.3q-.05-1.2-1.8-.15.65-.95 2.05-1.5l.2-.1q4.3-.9 8 0l2.7.95q2.05 2.55 2.05 5.95v.2q-.95 7.9-9.4 7.85l-3.7-.65q-2.15-.4-2.95-2.7-1.7-2.2-2.35-5.1.7.7.95-.5.65-1.8 1.15-1.8-.15 2.2.7 1.7 0 3.15 1.2 5.15l.3.5 1.35 1.35Q8 16.05 12.2 15.7q1.55-.85 2.85-2.2l.1-.15 1.9-2.5q1.4-6-2-7.9l.6 2.15q.25 3.05-.75 5.5l.15-2.55V7.3L15 6.75l-.2-.85m-4.1 1.75q.55.95.7 1.9l-.25.45-.8.7-.8.3.35-.3q.45-.45.45-1.05 0-.6-.45-1.05L8.75 8q-.7-.15-1.15.3-.45.45-.35 1.2l-.05.05-.15-1.15q1.55-1.1 3.65-.75m-.4.35-.2.05-.05.2.05.15.2.1.15-.1.1-.15-.1-.2L10.3 8" fill="#ff6606"/><path d="m11.7 6.8.2 1.25-.05.2-.45 1.3q-.15-.95-.7-1.9l-.6-.9q-1.75-.3-2.95.95.25-1.15.8-1.7H8q1.9-.6 3.7.8" fill="#ff740c"/><path d="M11.4 9.55q.35 1.85-.7 3.85l-.2.2-2.85.55.7-.45q1.3-.15 2-3l.8-.7.25-.45M8 6q.6-.65 1.85-.5 1.2.15 1.65.85l.2.45Q9.9 5.4 8 6" fill="#ff4001"/><path d="m15.65 5.1-.6-2.15q3.4 1.9 2 7.9l-1.9 2.5-.05-.05q1.55-3.55.55-8.2m-6.5 5.3-.5.3-.55-.3-.2-.7.2-.7q.25-.3.55-.3.3 0 .5.3l.25.7-.25.7" fill="#ffa125"/><path d="M15.05 7.3v.75Q12.9 5.6 11.45 4.5q1.9.55 3.6 2.8M4.1 12.6q-1.2-2-1.2-5.15l.3-.25.45.8q.15 1.6.8 2.8-.45 1.05-.35 1.8m7.6-6.15q2.1.75 3 3.25-1.6-2.5-3-3.25" fill="#ff5f05"/><path d="M14.9 10.6q1-2.45.75-5.5 1 4.65-.55 8.2-1.65.95-3 1.2l.8-.7.2-.2.7-.9 1.1-2.1" fill="#ff8210"/><path d="m4.05 4.75 1.85-1.2q-1.6 1.1-2.05 2.3l-.4.1.6-1.2" fill="#ff8211"/><path d="M2.9 7.45q-.85.5-.7-1.7-.5 0-1.15 1.8-.25 1.2-.95.5-.75-5 5.7-7.4 4.7-1.7 7.95.9-3.7-.9-8 0l-.2.1q-1.4.55-2.05 1.5 1.75-1.05 1.8.15L4.05 4.75l-.6 1.2.4-.1.6.05.3.3q-.35 1.95-.8 2l-.3-.2-.45-.8-.3.25" fill="#ffcb62"/><path d="m4.8 7.4.2.1.1.2-.1.2-.2.1-.2-.1-.1-.2.1-.2.2-.1m.7.7.15.35-.15.35-.35.15-.35-.15-.15-.35q0-.2.15-.35.15-.15.35-.15.2 0 .35.15" fill="#ffa447"/><path d="m13.6 11.55.2 1.15-.7.9-.5-.7q-.2-.7 1-1.35" fill="#ffc961"/><path d="M12.9 13.8q-2.35 1.05-3.7.95l1.3-1.15q.55.15 2.1-.7l.5.7-.2.2" fill="#ff7d0e"/><path d="m10.7 13.4 1-.95 1.6-1.95.3 1.05q-1.2.65-1 1.35-1.55.85-2.1.7l.2-.2" fill="#ff4f02"/></g><use ffdec:characterId="4" height="89.7" width="28.2" xlink:href="#B" id="g"/><use ffdec:characterId="9" height="30.8" width="29.95" xlink:href="#C" id="k"/><use ffdec:characterId="11" height="37.7" width="20.35" xlink:href="#D" id="l"/><use ffdec:characterId="17" height="45.85" width="36.8" xlink:href="#E" id="q"/><use ffdec:characterId="20" height="72.8" width="41.85" xlink:href="#F" id="s"/><use ffdec:characterId="22" height="50.7" width="40.55" xlink:href="#G" id="t"/><use ffdec:characterId="28" height="117.1" transform="translate(18.75 1.8)" width="96.45" xlink:href="#H" id="y"/><use ffdec:characterId="40" height="39.8" width="33.95" xlink:href="#I" id="c"/><path d="M74.95 4.6Q87.8 9.25 87.8 15.7q0 6.5-12.85 11.1T43.9 31.4q-18.2 0-31.05-4.6Q0 22.2 0 15.7 0 9.25 12.85 4.6 25.7 0 43.9 0q18.2 0 31.05 4.6" fill-opacity=".353" fill-rule="evenodd" id="d"/><path d="M46.75 36.6Q48.8 17.55 56.15 0q-6.95 18.9-8.5 35.9 1.7-10.8 4.5-19.1l-4 20.3q7.4.2 10.5 5.25-1.2.1 0 1.75l5.05-2.45q9.85-7.6 21.85-14.95l-13.5 9.5 24.4-13.9L76.3 34.85q-9.3 4.8-16.7 12.4L63.8 57q-1.85 2.45-1.9 3.65l13.35 3.95q-5.5.5-13.8-3.1l-5.4 8 2.9-6.7q-4.6 3.1-7.2 8.6-.3 1.6-4.1 1.2-.85.15-1.1 2.75Q53.1 73.85 60.1 70q7.05-3.95 14.55-4.8-8.4 2.2-15.65 8-5.65 4.35-13.05 3.8h-4L39.7 94.9l-.6-1.1q-3.35 15-8.25 23.3l4.9-14q.7-10.55 5.4-25h-2.1q-1.75-.4-2.9-8.7l-6.95-3.7q.3 1.1-.6 1.2-1.5-6.6 0-15.4-1.35 1.2-3.7 1.8l-.2.15-4.3 3.1q-2.6 1.75-10.15 5.1l10.85-6.4Q12.95 59.15.4 57.9q-1.05-1.6.65-1.45 7.25-.3 8.5.7 6.95.6 18.9-6.9Q36.4 37.4 42.75 36.7q-2.75-5.4-7.1-9.05-3.15.7-6.5-.6.35 1.5-.4 1.85 2.85 9.8-.25 15.55 1.9-11.35-.75-16-.95-4.55 1-2.75 2.7 1.3 8.8 1.25-.05-2.15 5.85 9.55l3.35.1m-.15 1.8h-2.15l1.8 3.2.35-3.2m-2.75.3-2.95 1.4q2.25 5.95 1.15 6.35-.65.45-1.5-2.4-4.15 8.25-3.4 24.3 5.5 2.35 5.6 3.35l-5.6-1.9 1.25 7.35 2.7-.3.4-2.35 2.15-2.05q-1.55-1.1 2.9-1.3l1.75-11.6q.35-6.85-1.85-14.8-1.45 3.8-.5-1.6-2-2.05-2.1-4.45m4.2-.4-1.2 5q5.35 7.75.5 27.8 1.45.45 3.45-.5 2.3-4.7 8.3-9.15l1-1.2-5.25-4.35 5.8 3.45q-.2-4.3 1.7-2.85-3.45-7.05-5.3-14.7-3.8-4.1-9-3.5m11.4 7.7 3.7-3.4-4.3 1.9.6 1.5M39.6 41q-2.95 2.45-5.95 3.1L29 50q.95-.7 0 15.3l7.4 2.75Q35.1 54.45 39.6 41m4.7 31.6-2.1 2.15v1.75l3.7-.95V72.6h-1.6m-3.75 11.2q-3.05 9.3-4.1 17l2.65-7 1.45-10" fill="#fff" fill-rule="evenodd" id="H"/><path d="M0 39.8V0h33.95v39.8H0" fill="#fc0" fill-opacity="0" fill-rule="evenodd" id="I"/></defs></svg>