<svg xmlns:ffdec="https://www.free-decompiler.com/flash" xmlns:xlink="http://www.w3.org/1999/xlink" ffdec:objectType="frame" height="90" width="90" xmlns="http://www.w3.org/2000/svg"><use ffdec:characterId="22" height="178.85" transform="matrix(.4837 0 0 .484 -5.03 -.46)" width="195.55" xlink:href="#a"/><defs><g id="a" transform="translate(10.4 .95)"><use ffdec:characterId="1" height="8.45" transform="matrix(1.3382 0 0 2.5211 70.816 156.447)" width="57.45" xlink:href="#b"/><use ffdec:characterId="3" height="71" transform="translate(71.66 33.51) scale(1.7823)" width="58.65" xlink:href="#c"/><use ffdec:characterId="5" height="67.45" transform="translate(1.4 44.65) scale(1.7823)" width="53.7" xlink:href="#d"/><use ffdec:characterId="7" height="14.7" transform="translate(65.75 123.35) scale(1.7823)" width="19.9" xlink:href="#e"/><use ffdec:characterId="9" height="15.3" transform="translate(81.7 142.7) scale(1.7823)" width="15.95" xlink:href="#f"/><use ffdec:characterId="11" height="16.8" transform="translate(104.6 143.75) scale(1.7823)" width="17.25" xlink:href="#g"/><use ffdec:characterId="13" height="18" transform="translate(92.05 126) scale(1.7823)" width="18.8" xlink:href="#h"/><use ffdec:characterId="15" height="14.95" transform="translate(117.2 121.95) scale(1.7823)" width="9.8" xlink:href="#i"/><use ffdec:characterId="21" height="74.15" transform="translate(53.95 3.7) scale(1.7823)" width="73.6" xlink:href="#j"/></g><g id="k"><path d="M18.3 61.45q7.9 7.85 16.95 8.7 10.45.95 21.7-7.45-4.05-.65-5.45-4.5-1.25-3.5.4-7.05 3.35-7.25 3.3-15.85l-.05-2.75q-.45-6.55-2.9-12.1-2.85-6.4-9.4-10.2Q36.5 6.55 28.8 6.6q.1 2.95-1.8 4.3l.3-.45.3-.45q1.15-2.25.15-4.95Q26.8 2.5 24.7 1.3l-.4-.2-.5-.2q.1 3.4-.95 5-.8 1.2-2.7 1.85l-3.65 1.2q-2.3 1-3.85 3Q13.85 9.4 17.9 8l2.75-1q1.3-.6 1.6-1.4-1.5-2.75-3.9-3.85-2.1-.95-4.95-.65 1.95 1.9.85 3.95-.8 1.5-3.4 3.25-3.35 2.25-5.6 5.15l-.4.55-.05.05q-1 1.45-1.75 3-1.15 2.3-1.7 4.9-1.9 8.2 1.25 20.75 1.65 6.4 5.8 11.8l3.05 4q1.65 2.35 2.45 4.65 2.25-4.35.25-10.75.75 1.1 1.1 2.85l.4 3.3 2.65 2.9m25.8-51q7.65 5 10.15 14.05 1.8 6.7 1.35 13.65-.45 6.95-3.15 13.35-1.85 4.3.2 7.7.95 1.5 2.45 2.3 1.6.8 3.45.65-11 9.6-22.7 8.65-11.6-.9-20.4-11.75.1 2.65-1.65 5.3-1-3.05-2.95-5.65L7.2 54.1Q5 51 3.5 47.1 1.6 42 .45 34.3q-1.25-8.25.8-14.55Q3.3 13.4 8.5 9.5q4.3-3.25 5.2-5.05 1-2-1.35-3.85 3.3-.5 5.75.45 2.65 1 4.55 3.75 1-1.95.6-4.8 3.6 1.05 5.4 6.1 8.6-.15 15.45 4.35" fill="#011a46" fill-rule="evenodd" transform="translate(.05 .05)"/><path d="M55.15 32.55q-.8.25-1.8 2.15-1.2 2.15-1.5 4.55-.6 4.25-1.85 7.95l-1.3 2.9q-1 2.05-1.5 3.5-1.5 4.85.85 10.65-2.35-1.15-3.6-4.55-1.15 4.35.5 7.8-13.1 4.5-26.65-6.05l-2.65-2.9-.4-3.3q-.35-1.75-1.1-2.85 2 6.4-.25 10.75-.8-2.3-2.45-4.65l-3.05-4q-4.15-5.4-5.8-11.8-3.15-12.55-1.25-20.75.55-2.6 1.7-4.9.75-1.55 1.75-3l.05-.05q1.2-1.25 3-2.2l3.3-1.5q4.2-2 6.3-5.65l-.7 3.1Q18.1 7 18.5 5.05q.3-1.6-.15-3.3 2.4 1.1 3.9 3.85-.3.8-1.6 1.4L17.9 8q-4.05 1.4-5.25 3.95l-.75 1.3q1.8-2.1 5-3.4l.7-.25q5.7-.15 7.85-2.85.95-1.25.8-2.65-.2-1.45-1.55-2.8 2.1 1.2 3.05 3.75 1 2.7-.15 4.95l-.95.75-1.15.7q-1.05.65-1.2 1.85.2-.55 1.3-1.2l1.4-1.2q1.9-1.35 1.8-4.3 7.7-.05 14.05 3.65 6.55 3.8 9.4 10.2 2.45 5.55 2.9 12.1m-34.1-20.9q-.65.45-1.05 1.2.6-.7 1.75-1.1l2-.5q2.3-.55 2.4-2.5-.6.95-3.1 1.85-1.25.45-2 1.05m4.8 3.6 1.25-1.5 2.65-3.35L28 11.85l-2.3 1.5q-2.05 1.35-2.05 4.4.8.65 1.35.5l.1-.05.05-.7.1-1 .6-1.25m-11-2.35q-3.05 2.45-3.2 5.7l1.8-.1.75-.05q-.65-2.85.65-5.55" fill="#16366c" fill-rule="evenodd" transform="translate(.05 .05)"/><path d="M18.3 61.45Q31.85 72 44.95 67.5q-1.65-3.45-.5-7.8 1.25 3.4 3.6 4.55-2.35-5.8-.85-10.65.5-1.45 1.5-3.5l1.3-2.9q1.25-3.7 1.85-7.95.3-2.4 1.5-4.55 1-1.9 1.8-2.15l.05 2.75q.05 8.6-3.3 15.85-1.65 3.55-.4 7.05 1.4 3.85 5.45 4.5-11.25 8.4-21.7 7.45-9.05-.85-16.95-8.7M27 10.9l-1.4 1.2q-1.1.65-1.3 1.2.15-1.2 1.2-1.85l1.15-.7.95-.75-.3.45-.3.45m-2.3-9.6q1.35 1.35 1.55 2.8.15 1.4-.8 2.65-2.15 2.7-7.85 2.85l4.95-1.65q1.9-.6 2.35-3.25.5-2.65-1.1-3.8l.5.2.4.2m-6.35.45q.45 1.7.15 3.3-.4 1.95-1.75 2.7l.7-3.1q-2.1 3.65-6.3 5.65l-3.3 1.5q-1.8.95-3 2.2l.4-.55Q6.3 12.2 8.2 10.9l3.25-1.95Q13.8 7.5 14.8 6.2t1.1-3.05q.35.55.25 2.4.95-.8.85-2.15-.15-1.45-1.45-2.05 1.4-.15 2.8.4m2.7 9.9q.75-.6 2-1.05 2.5-.9 3.1-1.85-.1 1.95-2.4 2.5l-2 .5q-1.15.4-1.75 1.1.4-.75 1.05-1.2m4.8 3.6-.6 1.25-.1 1-.05.7-.1.05q-.55.15-1.35-.5 0-3.05 2.05-4.4l2.3-1.5 1.75-1.45-2.65 3.35-1.25 1.5m-12.4 3.25-1.8.1q.15-3.25 3.2-5.7-1.95 2.35-1.4 5.6" fill="#4779aa" fill-rule="evenodd" transform="translate(.05 .05)"/><path d="m17.6 9.6-.7.25q-3.2 1.3-5 3.4l.75-1.3q1.55-2 3.85-3l3.65-1.2q1.9-.65 2.7-1.85 1.05-1.6.95-5 1.6 1.15 1.1 3.8-.45 2.65-2.35 3.25L17.6 9.6M5.25 13.45q2.25-2.9 5.6-5.15 2.6-1.75 3.4-3.25Q15.35 3 13.4 1.1q2.85-.3 4.95.65-1.4-.55-2.8-.4 1.3.6 1.45 2.05.1 1.35-.85 2.15.1-1.85-.25-2.4-.1 1.75-1.1 3.05-1 1.3-3.35 2.75L8.2 10.9q-1.9 1.3-2.95 2.55m9.6-.55q-1.3 2.7-.65 5.55l-.75.05q-.55-3.25 1.4-5.6" fill="#9ef" fill-rule="evenodd" transform="translate(.05 .05)"/><path d="M44.15 10.5q7.65 5 10.15 14.05 1.8 6.7 1.35 13.65-.45 6.95-3.15 13.35-1.85 4.3.2 7.7.95 1.5 2.45 2.3 1.6.8 3.45.65-11 9.6-22.7 8.65-11.6-.9-20.4-11.75.1 2.65-1.65 5.3-1-3.05-2.95-5.65l-3.65-4.6q-2.2-3.1-3.7-7-1.9-5.1-3.05-12.8-1.25-8.25.8-14.55 2.05-6.35 7.25-10.25 4.3-3.25 5.2-5.05 1-2-1.35-3.85 3.3-.5 5.75.45 2.65 1 4.55 3.75 1-1.95.6-4.8 3.6 1.05 5.4 6.1Q37.3 6 44.15 10.5z" fill="none" stroke="#000" stroke-linecap="round" stroke-linejoin="round" stroke-width=".1"/></g><g id="l" fill-rule="evenodd"><path d="m8.45 15.95-.2.85q-1-2.65-1.1-6.3Q1.45 19 .8 27.6q-.6 8 3.2 14.2 3.75 6.1 10.55 8.6l3 .85 2.3.4q4.6.5 9.75-.75h.3q.2-.15.3-.15-4.7-1.6-6.1-4.8l.7.05q1.05 1.75 2.85 2.95 2.1 1.35 4.7 1.65-4.45 1.9-9.75 1.75-4.8-.1-9.15-1.8-7.65-2.95-11.3-10Q.45 37.3.1 33.2q-.3-3.55.4-8.1.65-4.4 2.1-7.9 1.6-3.9 4.3-7.15l.7-.85q.05 3.85.85 6.75" fill="#584439"/><path d="m8.25 16.8.2-.85q1.1 3.95 3.7 5.95 2.05 1.65 4.7 1.5 2.75-.1 5.8-2.05l.3.7Q20.4 23.8 17.4 23.9q-2.8.1-5-1.1-2.15-1.2-4.05-5.75-1.9 11.9 2.5 19.8 2.75 4.95 7.4 7.2 2.05 1 4.5 1.5l1.25.2q-1.25-3.1-.65-6.8.8-4.6 4.35-6.85l.15.3q-3.15 2.35-3.9 6.85-.7 4.1.85 6.75l-.7-.05-1.25-.15-2.65-.6-1.55-.6-1.1-.5-1.5-.85-1.15-.8q-2.85-2.3-4.7-5.85-1.8-3.45-2.45-7.8l-.15-1.6-.05-.15-.1-3.05.05-1.05.05-1q.15-2.55.7-5.15M27.1 30.9l-1.45-3.05.55-.3 1.9-1 1.05-.6.75-.45 1.7 2.95-.8.45-1.1.55-2 1.1-.6.35m-2.15-4.5-1.35-2.9-.05-.15.45-.25 1.75-.9 1-.5.7-.4L29 24l-.75.45-1 .6-1.75 1q-.3.2-.55.35m7.45 3.45q3.4-1.45 4.75-4.55 1.4-3.25-.55-5.95-2-2.8-5.2-2.65H31q-1.9.2-3.4 1.35l-1.35 1.25-.25-.45q2.3-2.75 5.45-2.85 3.4-.15 5.6 2.95 2.15 3 .75 6.5-1.4 3.35-5.05 4.95l-.35-.55m-11.35-12.2-.45.1-.45-.3q-.4-.65 0-1.2l-.1-.15L14.45 0l9.3 14.4.6.2.3.6-.05.6-.25.25-.15.1-.4.2-.35.1-.75.25-.65.4-.7.4-.05.05-.25.1m1.85-1.3.55-.25.2-.05.55-.25.15-.45q-.1-.7-.7-.65l-1.35.45-.4.2-.7.4-.7.5q-.5.5-.15 1l.5.15.75-.35.15-.1q.6-.4 1.15-.6M25.05 23l-.85.45 1.05 2.2.75-.45 1-.65.95-.65L26.9 22l-1 .5-.85.5m-2.85-8.05 1.05-.4L15.5 2.3 20.35 16l1-.6.85-.45m7.2 14 1.05-.65-1.1-1.95-1.05.55-1.1.55-.85.4 1.15 2.25.7-.4 1.2-.75" fill="#20202e"/><path d="m17.55 51.25-3-.85Q7.75 47.9 4 41.8.2 35.6.8 27.6q.65-8.6 6.35-17.1.1 3.65 1.1 6.3-.55 2.6-.7 5.15-1.55-.7-3.3-.75l-.25.9q1.75-.05 3.5.85L7.45 24q-1.8-.85-3.65-.75l-.5 2.55q2.25.25 4.25 1.25l.05.15.15 1.6q-2.45-.4-4.9 0-1.05 13.25 9.1 19.7 1.45.95 3.2 1.75l2.15.9.25.1" fill="#fff"/><path d="M29.6 50.9q-5.15 1.25-9.75.75-.2-2.9.35-6.45l2.65.6q.7 1.65 2.5 3.05 1.85 1.5 4.25 2.05M7.55 21.95l-.05 1q-1.75-.9-3.5-.85l.25-.9q1.75.05 3.3.75M7.45 24l.1 3.05q-2-1-4.25-1.25l.5-2.55q1.85-.1 3.65.75m.3 4.8q.65 4.35 2.45 7.8 1.85 3.55 4.7 5.85-2.05 2.9-2.95 6.05-10.15-6.45-9.1-19.7 2.45-.4 4.9 0m9.8 15.3 1.1.5q-1.05 3.3-1.35 6.55l-2.15-.9q.85-3.3 2.4-6.15" fill="#e4d4bc"/><path d="M24.1 45.95q1.4 3.2 6.1 4.8-.1 0-.3.15h-.3q-2.4-.55-4.25-2.05-1.8-1.4-2.5-3.05l1.25.15m-4.25 5.7-2.3-.4-.25-.1q.3-3.25 1.35-6.55l1.55.6q-.55 3.55-.35 6.45m-4.95-9.2 1.15.8 1.5.85q-1.55 2.85-2.4 6.15-1.75-.8-3.2-1.75.9-3.15 2.95-6.05" fill="#8e7d73"/><path d="M18.25 44.05q-4.65-2.25-7.4-7.2-4.4-7.9-2.5-19.8 1.9 4.55 4.05 5.75 2.2 1.2 5 1.1 3-.1 5.55-1.85l.6 1.3.05.15q-2.45 1.95-5.7 2.25-3.5.35-6.4-1.4l-1.15.1q-.45.55-.4 2 .3 10.9 8.3 17.6m3.5-27.1-.15.1-.75.35-.5-.15q-.35-.5.15-1l.7-.5q-.15.9.55 1.2m7.25 1.6q.35-.4.9-.4t.95.4q.4.4.2.95l-.4.95q-.25.35-.75.35-.55 0-.9-.4-.4-.4-.4-.9 0-.55.4-.95m-3 6.65-.75.45-1.05-2.2.85-.45q.55.75.95 2.2m-4.65-9.8-1 .6L15.5 2.3l5.85 13.1M12.9 27.25l.15.7-.25.5h-.6l-.5-.5-.2-.7.3-.5q.25-.15.55 0l.55.5m15.3 2.45-.7.4-1.15-2.25.85-.4q.6.7 1 2.25" fill="#d3d3e4"/><path d="M18.25 44.05q-8-6.7-8.3-17.6-.05-1.45.4-2l1.15-.1q2.9 1.75 6.4 1.4 3.25-.3 5.7-2.25l1.35 2.9.7 1.45 1.45 3.05.15.25q-2.95 1.2-4.5 5.95-1.55 4.8 0 8.45-2.45-.5-4.5-1.5m9.35-26q1.5-1.15 3.4-1.35 3.2.85 3.9 3.1.7 2.15-1.35 3.65-1.25.95-2.55.65-1.15-.25-2.15-1.4-.9-1.05-1.25-2.35-.4-1.35 0-2.3m-4.7-1.7q-.55.2-1.15.6-.7-.3-.55-1.2l.7-.4.4-.2q.7.35.6 1.2m6.1 2.2q-.4.4-.4.95 0 .5.4.9.35.4.9.4.5 0 .75-.35l.4-.95q.2-.55-.2-.95-.4-.4-.95-.4-.55 0-.9.4M25.05 23l.85-.5 1.1 2.05-1 .65q-.4-1.45-.95-2.2M15.5 2.3l6.7 12.65-.85.45L15.5 2.3m-2.6 24.95-.55-.5q-.3-.15-.55 0l-.3.5.2.7.5.5h.6l.25-.5-.15-.7m16.5 1.7-1.2.75q-.4-1.55-1-2.25l1.1-.55 1.1 2.05" fill="#888"/><path d="M22.75 45.55q-1.55-3.65 0-8.45 1.55-4.75 4.5-5.95l.45.95q-3.55 2.25-4.35 6.85-.6 3.7.65 6.8l-1.25-.2M31 16.7h.4q3.2-.15 5.2 2.65 1.95 2.7.55 5.95-1.35 3.1-4.75 4.55l-.8-1.4-1.7-2.95L29 24l-1.55-2.7-1.2-2 1.35-1.25q-.4.95 0 2.3.35 1.3 1.25 2.35 1 1.15 2.15 1.4 1.3.3 2.55-.65 2.05-1.5 1.35-3.65-.7-2.25-3.9-3.1m-8.7-1.55 1.35-.45q.6-.05.7.65l-.15.45-.55.25-.2.05-.55.25q.1-.85-.6-1.2m3.6 7.35 1-.5 1.05 1.9-.95.65-1.1-2.05M15.5 2.3l7.75 12.25-1.05.4L15.5 2.3m12.8 24.6 1.05-.55 1.1 1.95-1.05.65-1.1-2.05" fill="#49495a"/><path d="m22.95 22.05-.3-.7-1.6-3.7.25-.1.05-.05.4.85L24 23.1l-.45.25-.6-1.3m4.3 9.1-.15-.25.6-.35q4.6 9.75 11.9 21.25l.55.9L44 58.55q2.2 3.3 3.5 4.7l3.35 3.6 1.6-.05q1.05-.7 0-2.15l-1.4-2.2-6-9.6Q34.9 36.55 30.8 28.9l.8-.45.8 1.4.35.55 10.3 17.8q4.7 7.75 10.55 16.8.45 1.35-1.05 2.3-1.45.95-5.35-3.8l-2.9-3.45-4.65-6.85q-7.4-11.5-11.8-20.8l-.15-.3-.45-.95m-1.6-3.3-.7-1.45q.25-.15.55-.35l.7 1.5-.55.3m.35-9 .25.45 1.2 2-.7.4-2.95-5.35.4-.2.15-.1 1.65 2.8m2.25 5.6L29 24l.9 1.5-.75.45-.9-1.5" fill="#170d08"/><path d="m21.35 17.5.7-.4.65-.4.75-.25.35-.1 2.95 5.35-1 .5-2.45-4.7-1.55.85-.4-.85m8.35 11.95 1.1-.55q4.1 7.65 14.25 23.95l6 9.6 1.4 2.2q1.05 1.45 0 2.15l-1.6.05q1.5-.1-.05-2.45l-4.35-6.9q-.9.75-2.45 1.05l-3.85-5.85-.55-.9q1.55-.05 2.45-.95l-3.55-5.9-8.8-15.5m-.55-3.5-1.05.6-.85-1.5 1-.6.9 1.5" fill="#121014"/><path d="m25.75 22.2-1.75.9-2.25-4.75 1.55-.85 2.45 4.7m2.35 4.35-1.9 1-.7-1.5 1.75-1 .85 1.5m-.4 4 2-1.1 8.8 15.5 3.55 5.9q-.9.9-2.45.95-7.3-11.5-11.9-21.25m16.3 28q1.55-.3 2.45-1.05l4.35 6.9q1.55 2.35.05 2.45l-3.35-3.6q-1.3-1.4-3.5-4.7" fill="#393331"/></g><g id="m" fill-rule="evenodd"><path d="M17.2.35 11.3 3.5l-1.8 1q-1.4-1-3.2-1.4-1.1.05-2.35.65t-1.1 1.1Q3.5 7.35 4.9 8.9L5 9l.2.15q.75-.05 2-.95-1-1.7-.7-3.2.2 1.35.65 2l1.8-.6q1.2 1.2 1.75 2.75 5-1.75 8.95-4.15l.25.4q-4.15 2.45-8.85 4.3l.15 1.4q0 .7-.45 1-1.15.85-2.5 1.55l-2.6 1.05q-.6.15-2.4-2.15L.35 8.6q-.3-.4-.35-.95-.05-.55.2-.7L2.7 5.8l-.3-.75q-.1-.45.05-.7.35-.45 1.6-1.1 1.45-.75 2.35-.6 1.5.2 2.9 1.25L17.05 0l.15.35M3.1 6.85l-.25-.55-1.25.55q-.7.3-.85.7Q.5 8.3 2.9 11.2l2.45 2.5q.35.3.55.25 1.5-.25 4.05-1.8.75-.6.55-2.25-.8-2.3-1.8-3.15l-1.5.45.45 1.2-1.55.85-1 .2-.3-.15-1-1.2-.7-1.25" fill="#8b4e00"/><path d="M11.3 3.5q-.7 1.1-1.55 1.3-.9.2-2.1-.55l-2.1-.05q-1.3.45-1.4 1.05-.1.75.1 1.65l.65 1.8.05.15-.05.05Q3.5 7.35 2.85 4.85q-.15-.5 1.1-1.1 1.25-.6 2.35-.65 1.8.4 3.2 1.4l1.8-1M5.35 13.7 2.9 11.2Q.5 8.3.75 7.55q.15-.4.85-.7l1.25-.55.25.55Q.4 8.25 5.35 13.7" fill="#ffffaf"/><path d="m17.2.35 1.1 2.05-6.5 3.45q-1.9 1.1-3.4 0-.95-1.6-1.8-1.35-.8.3-.8 1.3l.25 2-.3.35-.55.2q-.2.1-.25.35H4.9l-.65-1.8q-.2-.9-.1-1.65.1-.6 1.4-1.05l2.1.05q1.2.75 2.1.55.85-.2 1.55-1.3L17.2.35M5.35 13.7Q.4 8.25 3.1 6.85l.7 1.25 1 1.2.3.15.65 1.2h.55l-.4.25.7 1.35h.45q0 .65-.45 1-.45.4-1.25.45" fill="#ffe03a"/><path d="M4.95 8.7q.05-.25.25-.35l.55-.2.3-.35-.25-2q0-1 .8-1.3.85-.25 1.8 1.35 1.5 1.1 3.4 0l6.5-3.45L19.65 5Q15.7 7.4 10.7 9.15 10.15 7.6 8.95 6.4l-1.8.6q-.45-.65-.65-2-.3 1.5.7 3.2-1.25.9-2 .95L5 9l-.05-.15V8.7m.15.75 1-.2 1.55-.85-.45-1.2 1.5-.45q1 .85 1.8 3.15.2 1.65-.55 2.25-2.55 1.55-4.05 1.8-.2.05-.55-.25.8-.05 1.25-.45.45-.35.45-1H6.6l-.7-1.35.4-.25h-.55l-.65-1.2" fill="#e18702"/></g><g id="n" fill-rule="evenodd"><path d="m15.75 2.45.2.15-4.7 9.6-2.7.2.05-.5 2.4-.25 1.7-3.3 3.05-5.9M4.95 6.5 7.4 0h.3L6.6 3.1 5.5 6.15l-.55.35" fill="#011a46"/><path d="m8.55 12.4-7.3 2.9.55-1.8-1.8.6 1.55-5.7 3.4-1.9.55-.35.2-.1V8.1l.7-.35 1.4-.65.15.35q.85 2.15.65 4.45l-.05.5M.3 13.65l1.6-.55.6-1.45.4-1 .65-1.5.65-.3.95-.45.25-1.95L1.65 8.6.3 13.65M7.75 7.7l-.1-.3-3.8 1.95L2.3 13.4l-.5 1.3.35-.15 2.75-1.1 3.4-1.4q.1-1.55-.2-3.1L7.75 7.7" fill="#170d08"/><path d="m2.5 11.65-.6 1.45-1.6.55 2.2-2M7.75 7.7l.35 1.25-.15 2.65-3.05 1.85-2.75 1.1.35-.65q4.2-2.35 5.25-6.2" fill="#1a1310"/><path d="m15.05 2.05.7.4-3.05 5.9 2.35-6.3M8.1 8.95q.3 1.55.2 3.1l-3.4 1.4 3.05-1.85.15-2.65" fill="#c7cae8"/><path d="M.3 13.65 1.65 8.6 5.4 6.45 5.15 8.4l-.95.45.65-1.6L1.9 8.8l-.95 3.4 1.95-1.55-.4 1-2.2 2M7.65 7.4l.1.3Q6.7 11.55 2.5 13.9l-.35.65-.35.15.5-1.3q3.75-2.55 5.35-6" fill="#524640"/><path d="m4.2 8.85-.65.3-.65 1.5L.95 12.2l.95-3.4 2.95-1.55-.65 1.6M2.3 13.4l1.55-4.05 3.8-1.95q-1.6 3.45-5.35 6" fill="#a58d81"/><path d="M7.7 0q4 .05 7.35 2.05l-2.35 6.3-1.7 3.3-2.4.25q.2-2.3-.65-4.45 1.1 1.15 1.65 3.1l1.05-.15 1.25-2.2-.35-1.7-1.2 1.2-1.2.7-.8-3.85Q7.5 3.45 6.6 3.1L7.7 0m-2 6.05.7 1.7-.7.35V6.05" fill="#16366c"/><path d="M5.5 6.15 6.6 3.1q.9.35 1.75 1.45l.8 3.85 1.2-.7 1.2-1.2.35 1.7-1.25 2.2-1.05.15q-.55-1.95-1.65-3.1L7.8 7.1l-1.4.65-.7-1.7-.2.1" fill="#4779aa"/></g><g id="o" fill-rule="evenodd"><path d="M.95 5.3q.85 1.15 1.8 1.4l2.4 5.4 3.05.6v.15l.6.5q-2.1-.2-3.95-1L2.45 7.4l-1.2-1.25Q.7 5.4.35 4.25l.6 1.05m9.4-5.3h.3L14 7.1l-.55-.35L10.35 0" fill="#011a46"/><path d="m8.8 13.35-.6-.5v-.15q-.05-3.25.6-6.25l3.05 2.05q-.3-1.25 0-2.65l1.4.8.2.1.55.35 2.05 1.2q.8 3.35 1.2 6.95-1.45-.35-2.9-1.45l.35 3q-2.9-1.2-5.9-3.45m.1-6.65-.45 6.05L14.2 16l-.95-5.7Q11.2 8.15 8.9 6.7m3.15-.55-.1-.05v.4q-.1 1.15.15 2.15l.6.65.85.8.6 3.15q1.3 1 2.6 1.4l-.05-.6-.15-1.95-.7-3.65L12.6 6.5l-.55-.35" fill="#170d08"/><path d="m14.2 16-1.5-4.9-3.8-4.4 4.05 3.75L14.2 16m-2.15-9.8v-.05l.55.35 3.05 2.05.9 3.55.15 1.95.05.6q-1.3-.4-2.6-1.4l-.6-3.15-.85-.8 1.2.75q.15 1.15.45 2l.2.45q.55 1.35 1.55 1.55V14l-1.15-4.6-2.9-3.2" fill="#1a1310"/><path d="M8.9 6.7q2.3 1.45 4.35 3.6l.95 5.7-1.25-5.55L8.9 6.7m4.35-.05L9.95 0h.4l3.1 6.75-.2-.1m3.3 5.45-.9-3.55L12.6 6.5l3.25 1.95.7 3.65" fill="#c7cae8"/><path d="m14.2 16-5.75-3.25.45-6.05 3.8 4.4 1.5 4.9m-2.15-9.85v.05l2.15 3.5 1.9 4.3v.05q-1-.2-1.55-1.55l-.2-.45q-.3-.85-.45-2l-1.2-.75-.6-.65q-.25-1-.15-2.15v-.4l.1.05m-1.75 6.1 3.45 3.05-1.35-4.2-3.35-3.8 1.25 4.95" fill="#524640"/><path d="m16.1 14-1.9-4.3-2.15-3.5 2.9 3.2L16.1 14m-5.8-1.75L9.05 7.3l3.35 3.8 1.35 4.2-3.45-3.05" fill="#a58d81"/><path d="m5.15 12.1 2.25.05q.2-3.85 1.1-6.4l2.1.85L8.5 3l-7.2.65L.95 5.3l-.6-1.05Q-1.85.6 9.95 0l3.3 6.65-1.4-.8q-.3 1.4 0 2.65L8.8 6.45q-.65 3-.6 6.25l-3.05-.6" fill="#16366c"/><path d="m5.15 12.1-2.4-5.4Q1.8 6.45.95 5.3l.35-1.65L8.5 3l2.1 3.6-2.1-.85q-.9 2.55-1.1 6.4l-2.25-.05" fill="#4779aa"/></g><g id="p" fill-rule="evenodd"><path d="M17.2 8h-.1l-.35.2q-.4-2.85 0-6.35-.2 3.3.45 6.15M2.1 6.05 2.3 5q.2-.75.75-2l-.6 2-.3 2.9-.3.6L2 6.55l.1-.5" fill="#8b4f01"/><path d="M16.75 1.85q-.4 3.5 0 6.35l-3.9 1.45q.8-2.95-.15-3.7-1.15-.45-1.65-2-2.25 1.1-4.85.9l2.1 5.4h-.55Q6.4 6.6 4.65 3.8l-.8 1.25.45-1.15-1.1-.55L2.45 5l.6-2 .4-.7.5-.8L16.25 0l.5 1.85" fill="#e18702"/><path d="m12.85 9.65-.4.1-4.15.5-2.1-5.4q2.6.2 4.85-.9.5 1.55 1.65 2 .95.75.15 3.7M2.45 5l.75-1.65 1.1.55-.45 1.15-1.7 2.85.3-2.9" fill="#ffe03a"/><path d="m7.75 10.25-.25-.05-.55-1.4L4.6 4.1q-2.15 3.05-3.4 6.4.65 4.1 2 7.2l2.95-3.6 1.3-1.5.2.05Q5.7 15.6 3.15 18q-1.25-2.9-1.9-6.05l-.05-.35-.15-.9v-.05l-.05-.3.4-.95.2-.35.25-.55.3-.6 1.7-2.85.8-1.25q1.75 2.8 3.1 6.45" fill="#633717"/><path d="m7.5 10.2-.5-.1q-.8-.1-1.05 1t.75 1.35l.75.15-1.3 1.5-2.5 2.5L5 11.85 4.65 4.7l2.3 4.1.55 1.4" fill="#945e36"/><path d="m6.95 8.8-2.3-4.1.35 7.15-1.35 4.75 2.5-2.5-2.95 3.6q-1.35-3.1-2-7.2 1.25-3.35 3.4-6.4l2.35 4.7M3.2 17.35l1.25-4.4-.05-7.8-2.2 5.65q.35 3.65 1 6.55" fill="#c29b75"/><path d="M3.2 17.35q-.65-2.9-1-6.55l2.2-5.65.05 7.8-1.25 4.4" fill="#fffbac"/><path d="m6.3 10.85-.1.25q-.2.8.75 1.15l.95.3 5.05-.25q2.75-.65 5.1-2.15.85-.6.45-1.5l-.3-.4q-.45-.35-1.2 0-5.45 2.6-9.8 2.1-.65-.1-.9.5M16.75 8.2l.35-.2h.1q1-.4 1.45.6.45 1-.45 1.65-4.9 3.5-10.55 2.4l-.2-.05-.75-.15q-1-.25-.75-1.35t1.05-1l.5.1.25.05h.55l4.15-.5.4-.1 3.9-1.45m-15.5 3.75q-.75-.1-1.05-.9-.3-.7-.15-2.15.1-1.45.65-2.2.55-.7 1.4-.65l-.1.5-.35.05Q.7 6.9.45 9.1v.95l.15.75q.2.6.6.8l.05.35"/><path d="m18.2 8.25.3.4q.4.9-.45 1.5-2.35 1.5-5.1 2.15l-5.05.25-.95-.3Q6 11.9 6.2 11.1l.1-.25q.5.8 2.5.85 2.15.1 5.4-.75 2.1-.6 3.15-1.35 1-.65.85-1.35M1.65 6.6 2 6.55 1.85 8.5l-.25.55q-.15-.95.05-2.45m-1.2 3.45q.35.25.95-.65l-.4.95.05.3v.05l.15.9q-.4-.2-.6-.8l-.15-.75" fill="#990204"/><path d="M6.3 10.85q.25-.6.9-.5 4.35.5 9.8-2.1.75-.35 1.2 0 .15.7-.85 1.35-1.05.75-3.15 1.35-3.25.85-5.4.75-2-.05-2.5-.85M1.65 6.6q-.2 1.5-.05 2.45l-.2.35q-.6.9-.95.65V9.1q.25-2.2 1.2-2.5" fill="#ed1b23"/></g><g id="q" fill-rule="evenodd"><path d="m9.05 3.2-.2-.2Q7.5 1.7 3.3.25L3.45 0q3.4 1.1 5.05 2.4 1.7 1.3 1.15 2.35-1.3 2.7-3.45 5.1 1.45 3.55.45 4.7-1 1.15-3.85-.95Q.85 12.1 0 10.4q1.4-2.9 3.2-5.3l-2-1.15.1-.15 2.05 1.1.9-.95L2.6 6.3l-.65 1.05-1.65 3.1 1.85 2.2 1.6 1.4q1.65 1.15 2.45.55 1-.65.5-2.65-.3-1.4-1.1-2.4l-.85-.85 1.3.9q2.2-2.25 3.35-5 .25-.7-.35-1.4" fill="#8b4f01"/><path d="M3.3.25Q7.5 1.7 8.85 3l.2.2q.65 1.15-3 6.4l-1.3-.9.65-.05.65-1.4Q4.1 7.5 2.6 6.3l1.65-2.35-.9.95L1.3 3.8l2-3.55m2.3 9.3q.8 1 1.1 2.4.5 2-.5 2.65-.8.6-2.45-.55l-1.6-1.4-1.85-2.2 1.65-3.1q.3.05.45.25l.05.45L1.8 9.2l-.3 1q-.35 1.4.65 2.45 1.85 1.45 2.9.55 1.05-.95.55-3.65" fill="#e18702"/><path d="m4.75 8.7.85.85q.5 2.7-.55 3.65-1.05.9-2.9-.55-1-1.05-.65-2.45l.3-1 .65-1.15-.05-.45q-.15-.2-.45-.25L2.6 6.3q1.5 1.2 3.45.95l-.65 1.4-.65.05" fill="#ffe03a"/><path d="M9.05 3.2q.6.7.35 1.4-1.15 2.75-3.35 5 3.65-5.25 3-6.4" fill="#c7cae8"/></g><g id="r" fill-rule="evenodd"><path d="m3.55 38.3-.2 3q4.95 4.5 10.85 7.65l-.1.6q-5.6-3.5-11.2-7.85Q4.1 23.95 6.55 10q3.25 11.05 5.4 23l5.55-.6-.05.25-5.75.75-2.45-1.8 2.4 1.35-3.45-14.9-1.45-6.1Q4.55 24.5 3.55 38.3" fill="#170d08"/><path d="m3.35 41.3 4.75 1.8q-.05-4.5 2.15-9.25l-1.7-1.05q-1.05-8.25-1.4-17.7l1.05 2.95 3.45 14.9-2.4-1.35 2.45 1.8 5.75-.75-3.25 16.3Q8.3 45.8 3.35 41.3" fill="#1a1311"/><path d="m3.35 41.3.2-3q1.5 2.5 3.4 2.8.2-3 1.55-5.5L7 33.5q-.45-10.25-.25-21.55l1.45 6.1-1.05-2.95q.35 9.45 1.4 17.7l1.7 1.05Q8.05 38.6 8.1 43.1l-4.75-1.8" fill="#524640"/><path d="M6.75 11.95q-.2 11.3.25 21.55l1.5 2.1q-1.35 2.5-1.55 5.5-1.9-.3-3.4-2.8 1-13.8 3.2-26.35" fill="#a58d81"/><path d="m48.4 44.2 3.2-1.75q5.45-3.2 10.55-7.15l-3.3-7.25q-4.1-8.25-9.2-15.7-4-5.85-8.6-11.25L44.2 25l2.3-1.95q-.35-5.2-1.8-10.4 1.6 4.9 2.55 10.55l-2.6 2.3-8.3 7.3L36 41q2.25 2.7 4.6 4.6l.3.2 1.7 1.25 3.9-1.85 1.9-1m-1.9 1.5-3.95 1.8Q39 45.35 35.7 41.1l.3-7.45.05-1.15 7.7-6.9L40.6 0q13.8 15.7 22.45 35.5-7.9 5.95-16.55 10.2" fill="#170d08"/><path d="M48.4 44.2h-1.15l-4.55-6.7.85-.7q5.9-4.85 9.65-10.95-2.4-9.3-9.25-19.9l5.7 6.4q5.1 7.45 9.2 15.7l2.4 6.15q-3.7 4.45-9.65 8.25l-3.2 1.75m-7.5 1.55Q38.55 44 37 41.05q2.7-1.2 5.25-3.25 2.05 3.5 4.3 6.6l.15.2-.15.05-3.95 2.1-1.7-1" fill="#1a1311"/><path d="m49.65 12.35-5.7-6.4q6.85 10.6 9.25 19.9-3.75 6.1-9.65 10.95l-.85.7 4.55 6.7h1.15l-1.9 1-3.9 1.85-1.7-1.25-.3-.2Q38.25 43.7 36 41l.35-8.2 8.3-7.3-3.8 3.7.75 6q4.25-2.95 7.05-6.65-.35-.45.1-.85-.8-5.45-3.1-13.45-2.35-8-4.6-13.15 4.6 5.4 8.6 11.25m1.95 30.1q5.95-3.8 9.65-8.25l-2.4-6.15 3.3 7.25q-5.1 3.95-10.55 7.15m-10.7 3.3 1.7 1 3.95-2.1.15-.05-.15-.2q-2.25-3.1-4.3-6.6-2.55 2.05-5.25 3.25 1.55 2.95 3.9 4.7m-.55-16.15-3.2 2.7-.55 6.35 4.55-3.1-.8-5.95" fill="#524640"/><path d="M41.05 1.1q2.25 5.15 4.6 13.15 2.3 8 3.1 13.45-.45.4-.1.85-2.8 3.7-7.05 6.65l-.75-6 3.8-3.7 2.6-2.3q-.95-5.65-2.55-10.55 1.45 5.2 1.8 10.4L44.2 25 41.05 1.1m-.7 28.5.8 5.95-4.55 3.1.55-6.35 3.2-2.7" fill="#a58d81"/><path d="m20.5 35.15.5 1.65q-2.2 4.45-3.8 9.95l-.1.4-1.9-2.9-1.6-2.8-.15-.3-1.9-3.75q1.95-7.9 5.3-14.8l3.65 12.55M17.35 45.2q1.3-4.45 3.2-8.5l-.5-1.35-2.2-6.85-1.1-4.4q-2.7 6.1-4.5 13.45l1.45 3.2.15.25q1.25 2.55 2.65 4.65l.5.8.35-1.25" fill="#633717"/><path d="m17.85 28.5-1.05-2.8 1.2 5.25q.5 2.7.6 4.95v.2q.05 1.8-.3 4.15l-.95 4.95-.35 1.25-.5-.8q-1.4-2.1-2.65-4.65l-.15-.25-1.45-3.2q1.8-7.35 4.5-13.45l1.1 4.4m-.15 8.1.1-2-1.3-9-2.4 9.5.9 3.85.05.3 1.7 5.75.95-8.25v-.15" fill="#c29b75"/><path d="m17.35 45.2.95-4.95q.35-2.35.3-4.15v-.2q-.1-2.25-.6-4.95l-1.2-5.25 1.05 2.8 2.2 6.85.5 1.35q-1.9 4.05-3.2 8.5" fill="#945e36"/><path d="M17.7 36.6v.15L16.75 45l-1.7-5.75-.05-.3-.9-3.85 2.4-9.5 1.3 9-.1 2" fill="#fffbac"/><path d="M44.75 49.55q.25-1.4-.4-1.65l-2.05.6q-4.1-2.6-7.75-7.05l-.35-5.8-1.25.3q-1 2.5-4.9 3.95v-3.3q-2.85-.05-6.3 1.45-1.55 4.3-4.5 8.8l-.05-.1q1.6-5.5 3.8-9.95l-.5-1.65.1-.05q8.5-2.9 15.4-1.45l-.3 7.45q3.3 4.25 6.85 6.4l3.95-1.8-.05 1.5q-1 1.1-1.7 2.35m-29.55-5.3q-1.6-1.3-2.75.45.35-1.7 1.15-3.25l1.6 2.8M27.05 71.9q1.25.25 2.5 0 4.65-1.25 8.55-3.3 4.25-2.2 6.25-4.75.45-.65.2-1.6-.25-.95.25-1.6 1 1.2 2.55 1.8-4.25 4.35-11.3 7.6l-5.35 1.9-3.25.15-.4-.2m39.7-28.3q-2.1.1-4.5 2.85-2.45 2.75-4.7 7.5-.95 2-2.3 3.2-1.55 1.35-3.8 1.85-3.55.6-5.2-.75-1.6-1.2-1.3-4 .95.75 2.1.7 1.55-.1 2.85-1.55l2.3-2.8q1.4-1.85 2.65-2.75 1.9-1.45 4.1-2.45-.05 6.2-5.15 10.7 5.4-4.3 5.45-10.8 1.9-.8 3.95-1.25l3.55-.45M44.5 53.8l-.35-.55.1-.85q-.05.9.6 1.35.6.45 1.6.3 2.4-.35 4.2-3.15 1.25-1.95 4.25-3.9 3.05-2.05 5.55-2.45-3.05 1.1-5.6 3.05-1.25.9-2.7 2.7l-2.35 2.85q-1.35 1.4-2.65 1.55-1.25.15-2.65-.9m-38-7.1 1.8.35 1.25.2q1.4.15 2.05 1.1v.05l.15.75.35.7q.7 1.2 1.1 2.9.45 1.9.4 3.85l-.05.55q-1.45-3.4-4.2-5.45L6.8 50.05q1.9.75 3.05.65 1.05-.1 1-.85-.05-.7-1.2-1.55-1.2-.85-3.15-1.55v-.05m.5 5.35-.7-1.4q4.4 1.05 7.25 6.65l-.4 1.4-.45 1.65-.4-1.25.3-.3.4-.6q.1-.4-.3-.6l-.75.05-.15.1q-1.75-4.2-4.8-5.7" fill="#e18702"/><path d="M44.75 49.55q.7-1.25 1.7-2.35 1.65-1.85 4.05-3.3 3.7-2.15 8.2-2.85l8.4.35q4.15 1.1 6.5 3.9l-4.45-.1q-2.65 1-5.15 3.9-.7.8-1.65 2.9l-1.75 3.8q-1.8 3.3-4.4 5.1l-.05.05-.85.5-.1.05-1.8.8-.95.25.1-.35q3.25-.95 5.95-3.9.95-1.1 2.55-4.9 1.5-3.65 3.2-5.3 1.7-1.7 3.85-2.8 2.15-1.1 3.6-1.1l-4.9-.6h-.05l-3.55.45q-2.05.45-3.95 1.25-.05 6.5-5.45 10.8 5.1-4.5 5.15-10.7-2.2 1-4.1 2.45-1.25.9-2.65 2.75l-2.3 2.8q-1.3 1.45-2.85 1.55-1.15.05-2.1-.7l-.45-.45q1.4 1.05 2.65.9 1.3-.15 2.65-1.55l2.35-2.85q1.45-1.8 2.7-2.7 2.55-1.95 5.6-3.05l2.75-.8q4.65-.95 8.5.15-2.95-1.9-6.8-2.5-3.1-.5-6.35-.05l-1.2.2q-3.9.75-7.1 2.75-2.7 1.7-4.55 4l-.95 1.25m-32.3-4.85-.1.7q-.2 1.65 0 3.45 1.25 3.15 1.5 5.1.3 1.9-.15 4.45v.25q-1 3.25 1 5.85l.15.25.4.45.25.25.35.35.15.1 1.55 1.15.3.2 2.25 1.25 3.05 1.55.4.2.85.4 2.65 1.25.4.2 3.25-.15 5.35-1.9q7.05-3.25 11.3-7.6-1.55-.6-2.55-1.8 2.5 2.25 6.05 1.85l-.1.35-2.5-.15-.6-.15-.45.4-.05.05v.05l-.3.25q-5.9 5.6-13.4 8l-.1.05-3.7.95-2.45-.15-3.55-1.55-.45-.2-.8-.35-4.65-2.15-.1-.05-.3-.2-1.45-.95-.15-.1-.4-.35h-.05l-.65-.65-.2-.2q-1.9-2.05-1.8-4.6v-.05l-.95-.5.15-.35.85.45.45-1.65.4-1.4q-2.85-5.6-7.25-6.65l.7 1.4.4.95 1.1 2.75q.95 2.1 2.25 3.35l-.15.35q-1.95-1.7-3.1-4.6l-1-2.95q-.45-1.4-.85-1.7l-3.3-2.55Q.8 46 0 42.95q3.45 2.8 6.75 3.45l2.65.4q1.35.25 2.2 1 0-3.25 1.65-6.3l.2-.35.15.3q-.8 1.55-1.15 3.25m-7.3 1.75q-2.55-.7-4.25-2.3.55 1.4 1.6 2.6l.95 1.05 1.35 1.15 2 1.1 2.55 1.65q2.75 2.05 4.2 5.45l.05-.55q.05-1.95-.4-3.85-.4-1.7-1.1-2.9l-.35-.7-.15-.75v-.05q-.65-.95-2.05-1.1l-1.25-.2-1.8-.35-.35-.05H6.1l-.95-.2M32.8 67q-3.5 1.8-8.15.6 4.8.65 7.9-1.05l.4.05-.15.4" fill="#8b4f01"/><path d="m17.2 46.75.05.1q2.95-4.5 4.5-8.8 3.45-1.5 6.3-1.45v3.3q3.9-1.45 4.9-3.95l1.25-.3.35 5.8q3.65 4.45 7.75 7.05l2.05-.6q.65.25.4 1.65l.95-1.25q-1 1.9.1 2.85.4.4 1 .35l1.05-.6q2.6-3 4.3-4.35 2.25-1.7 6.6-3.85.55-.25.45-.65l-.65-.7q3.25-.45 6.35.05 3.85.6 6.8 2.5-3.85-1.1-8.5-.15l-2.75.8q-2.5.4-5.55 2.45-3 1.95-4.25 3.9-1.8 2.8-4.2 3.15-1 .15-1.6-.3-.65-.45-.6-1.35l-.1.85.35.55.45.45q-.3 2.8 1.3 4 1.65 1.35 5.2.75 2.25-.5 3.8-1.85 1.35-1.2 2.3-3.2 2.25-4.75 4.7-7.5 2.4-2.75 4.5-2.85h.05l4.9.6q-1.45 0-3.6 1.1-2.15 1.1-3.85 2.8-1.7 1.65-3.2 5.3-1.6 3.8-2.55 4.9-2.7 2.95-5.95 3.9.35-1.25 1-1.85l.5-.7q.05-.5-.4-.75l-.85.1q-.8.6-1.5 2.25l-.45 1.25q-3.55.4-6.05-1.85-.5.65-.25 1.6.25.95-.2 1.6-2 2.55-6.25 4.75-3.9 2.05-8.55 3.3-1.25.25-2.5 0-1.05-.8-2.95-1.75l-.65-.3-.4-.2-2.2-1.1-2.8-1.85-.25-.2-1.7-1.7-.15-.15-.4-.5-.1-.15-.4-.6-.2-.3-.1-.2q-.6-1-.5-2.5l.05-.2.05-.15.4-3.1q.25-1.85-.05-3.25l-.8-2.7-.55-1.2-.55-1.2q-.4-1.1-.45-3.2l.1-.7q1.15-1.75 2.75-.45l1.9 2.9.1-.4m-12.05-.3.95.2h.05l.35.1q1.95.7 3.15 1.55 1.15.85 1.2 1.55.05.75-1 .85-1.15.1-3.05-.65l-2-1.1-1.35-1.15q1.45.95 2.5 1.2l1.15-.2q.25-.4-.25-1.05l-1.7-1.3m5.6 12.65q-1.3-1.25-2.25-3.35L7.4 53l-.4-.95q3.05 1.5 4.8 5.7l-1.05 1.35m1.95 1.25-.85-.45.45-.8.4 1.25M32.8 67l.15-.4-.4-.05q-3.1 1.7-7.9 1.05 4.65 1.2 8.15-.6m-4.45-6.75q-6.5-6.8-11.15 0 5.45-1.55 11.15 0" fill="#ffe03a"/><path d="M12.35 45.4q.05 2.1.45 3.2l.55 1.2.55 1.2.8 2.7q.3 1.4.05 3.25l-.4 3.1-.05.15-.05.2q-.1 1.5.5 2.5l.1.2.2.3.4.6.1.15.4.5.15.15 1.7 1.7.25.2 2.8 1.85 2.2 1.1.4.2.65.3q1.9.95 2.95 1.75l-2.65-1.25-.85-.4-.4-.2-3.05-1.55-2.25-1.25-.3-.2L16 65.9l-.15-.1-.35-.35-.25-.25-.4-.45-.15-.25q-2-2.6-1-5.85v-.25q.45-2.55.15-4.45-.25-1.95-1.5-5.1-.2-1.8 0-3.45m46.2-4.05.65.7q.1.4-.45.65-4.35 2.15-6.6 3.85-1.7 1.35-4.3 4.35l-1.05.6q-.6.05-1-.35-1.1-.95-.1-2.85 1.85-2.3 4.55-4 3.2-2 7.1-2.75l1.2-.2M3.45 47.8l-.95-1.05q-1.05-1.2-1.6-2.6 1.7 1.6 4.25 2.3l1.7 1.3q.5.65.25 1.05l-1.15.2q-1.05-.25-2.5-1.2m24.9 12.45q-5.7-1.55-11.15 0 4.65-6.8 11.15 0" fill="#ffffaf"/><path d="m50.85 62.5.45-1.25Q52 59.6 52.8 59l.85-.1q.45.25.4.75l-.5.7q-.65.6-1 1.85l-.1.35-.1.25q-.35 1.55-.25 3.45.05 1.8.55 3 .55 1.35 1.3 1.3.55-.05 1.1-1l.8-2.35q.7-3.45-.65-5.7l.1-.05.5.95q.45 1.15.45 2.6l-.2 2.3-.85 2.4-.45.6-.8.45-.3-.05q-.6-.2-1.05-1.2-.55-1.15-.65-2.95-.2-2.35.3-3.95l.1-.35q.4-1.2 1.2-2 .65-.7.15-1.1l-.8-.1-.2.1q-.7.7-1.35 2.35l-.1.15-.25.85-.1.35-.5 2.2-.1 1.8q-.1 2.6.85 4.35l.4.6.4.5.05.1q1 1.05 2.75.45 1.85-.65 2.2-2.6.95-5.35-.8-9.3l.05-.05q1 1.75 1.2 4.25.2 2.45-.35 5.25-.4 2-2.3 2.65Q53 73.7 52 72.7l-.1-.15-.9-1.35q-1.25-2.4-.7-6.25.15-1.1.45-2.1l.1-.35M10.6 59.45l.15-.35 1.05-1.35.15-.1.75-.05q.4.2.3.6l-.4.6-.3.3-.45.8-.15.35-.2.65q-.3 1.35-.25 2.95.1 1.55.55 2.6.45 1.1 1.15 1.05.5 0 .95-.85l.55-1.25.2.2-.6 1.2-.4.55q-.35.35-.7.35l-.3-.05q-.55-.15-.9-1-.5-1-.65-2.55-.15-2.4.5-3.95l.15-.3.55-.8.25-.3q.6-.65.15-1l-.7-.1-.2.15-.95 1.35-.15.35-.1.25-.05.15q-.6 1.4-.8 2.95l-.1 1.5q-.1 2.65 1.1 4.25l.4.45q.9.95 2.5.4 1.7-.5 2-2.2l.1-.65.15.1-.15.7q-.35 1.7-2.1 2.3-1.65.55-2.55-.45Q9 67 9.65 62.75q.25-1.75.9-3.15l.05-.15" fill="#20202e"/><path d="m15.35 66.25.4.35-.1.65q-.3 1.7-2 2.2-1.6.55-2.5-.4l-.4-.45q1.2.95 2.3.65 1.15-.3 1.9-1.9l.4-1.1m-4.2-6.35.2-.35.6-.95.15-.15q.5-.7-.1-.8l.7.1q.45.35-.15 1l-.25.3-.55.8-.15.3q-.65 1.55-.5 3.95.15 1.55.65 2.55.35.85.9 1-1 .05-1.65-1.5-.5-1.05-.55-2.25l-.05-.15v-.5q.05-1.85.7-3.25l.05-.1m41.75-.85.8.1q.5.4-.15 1.1-.8.8-1.2 2l-.1.35q-.5 1.6-.3 3.95.1 1.8.65 2.95.45 1 1.05 1.2-1.1.05-1.85-1.75-.5-1.15-.6-2.4l-.05-.2v-.8q.05-1.55.4-2.8l.1-.35.25-.65q.4-.9.95-1.65.8-.95.05-1.05m2.9 3.35-.5-.95.85-.5q1.75 3.95.8 9.3-.35 1.95-2.2 2.6-1.75.6-2.75-.45l-.05-.1-.4-.5.45.35q1.05.7 2.05.4 1.3-.35 2.15-2.2l.45-1.5.05-.1.05-.6.05-.15.05-1.75q0-2.55-.75-4.1l-.3.25" fill="#49495a"/><path d="M15.3 66.25h.05l-.4 1.1q-.75 1.6-1.9 1.9-1.1.3-2.3-.65-1.2-1.6-1.1-4.25.35 2.2.6 2 .25-.15.2-2.45.05 1.2.55 2.25.65 1.55 1.65 1.5l.3.05q.35 0 .7-.35-.2.4 0 .4.4 0 .85-.4l.8-1.1m-3.3-8.6q.6.1.1.8l-.15.15-.6.95-.2.35v-.05l.1-.35-.15-.25-.1.05-.25.25-.2.35.05-.15.1-.25.15-.35.95-1.35.2-.15m39.35 3.85q.65-1.65 1.35-2.35l.2-.1q.75.1-.05 1.05-.55.75-.95 1.65.3-.8.05-.85-.25-.1-.6.6m2.3 9.2.3.05.8-.45q-.25.55 0 .55.45 0 .95-.5l.95-1.5-.45 1.5q-.85 1.85-2.15 2.2-1 .3-2.05-.4l-.45-.35-.4-.6q-.95-1.75-.85-4.35.4 2.55.7 2.3.25-.15.15-2.6h.05q.1 1.25.6 2.4.75 1.8 1.85 1.75m2.6-5.7q0-1.45-.45-2.6l.3-.25q.75 1.55.75 4.1L56.8 68h-.05l-.15-2.5q-.15-.75-.35-.5" fill="#888"/><path d="m14.65 65.6.65.65-.8 1.1q-.45.4-.85.4-.2 0 0-.4l.4-.55.6-1.2m-4.1-5.7.2-.35.25-.25.1-.05.15.25-.1.35-.05.15q-.65 1.4-.7 3.25v.5l.05.15q.05 2.3-.2 2.45-.25.2-.6-2l.1-1.5q.2-1.55.8-2.95m39.75 6.95.1-1.8.5-2.2.1-.35.25-.85.1-.15q.35-.7.6-.6.25.05-.05.85l-.25.65-.1.35q-.35 1.25-.4 2.8v1q.1 2.45-.15 2.6-.3.25-.7-2.3m4.45 3.45.45-.6.85-2.4.2-2.3q.2-.25.35.5l.15 2.5v.15l-.05.6-.05.1-.95 1.5q-.5.5-.95.5-.25 0 0-.55" fill="#d3d3e4"/><path d="m17.35 67.65.3.2.1.05q-.1.75.15 1.3l.1.2q.55 1 2.05 1.9 1.4.85 1.8 1.65 1.5-.95 1.35-2.55l.45.2q.3 2.1-2.3 2.95-.25-.8-1.3-1.6L18.2 70.6q-1.3-1.2-.85-2.95m16 3.7.1-.05q0 1.1.45 1.75l1.1.8q-.2-.7.45-1.2t1.65-.55l1.9.15 1 .15 1.15.2q2.75.4 4.75-.85 2.65-1.6 3-4.6l.05-.4q.2-2.65-1.8-3.7V63l.05-.05q1.5.6 1.9 2.25.4 1.55-.3 3.35-.7 1.85-2.3 3-1.85 1.35-4.25 1.35l-2.5-.3-2.45-.35q-2.85.35-1.75 1.9-2.6-.55-2.2-2.8" fill="#5a1300"/><path d="m17.75 67.9 4.65 2.15.8.35q.15 1.6-1.35 2.55.5-1.3-.3-2.3-.65-.95-1.95-1.2.05.55.6.95-1.15-.35-1.8-1.9h-.5v.7q-.25-.55-.15-1.3m15.7 3.4q7.5-2.4 13.4-8 1.8.4 2.1 3.45l-.05.4q-.35 3-3 4.6-2 1.25-4.75.85L40 72.4l2.95-.15-1.6-.6q4.7.9 5.9-2.5.45-1.25.2-2.45-.25-1.2-.85-1.2 0 1-.65 1.95 0-1.05-.35-1.5.05 1.2-1.05 2.35.2-.95-.1-1.45-4.35 2.65-8.9 4.05-.95.65-1.05 1.3-.2-.3.15-.9-1.35 0-.75 1.75-.45-.65-.45-1.75" fill="#a02903"/><path d="M17.9 69.2v-.7h.5q.65 1.55 1.8 1.9-.55-.4-.6-.95 1.3.25 1.95 1.2.8 1 .3 2.3-.4-.8-1.8-1.65-1.5-.9-2.05-1.9l-.1-.2m16 3.85q-.6-1.75.75-1.75-.35.6-.15.9.1-.65 1.05-1.3 4.55-1.4 8.9-4.05.3.5.1 1.45 1.1-1.15 1.05-2.35.35.45.35 1.5.65-.95.65-1.95.6 0 .85 1.2t-.2 2.45q-1.2 3.4-5.9 2.5l1.6.6-2.95.15-1-.15-1.9-.15q-1 .05-1.65.55-.65.5-.45 1.2l-1.1-.8" fill="#f26421"/><path d="m46.85 63.3.3-.25q2 1.05 1.8 3.7-.3-3.05-2.1-3.45" fill="#c7cae8"/><path d="m15 50.25-.1-.05-.4-.2q-1.05-.25-1.2 1.55l-.2-.65q.2-1.2.85-1.4.65-.25 1.4.5 1.8 1.8 2.3 6.15l-.45-1.4q.05 6.4-1.2 6.65-.75.1-1.35-1.2-.6-1.3-.75-3.35l.05-.35v-.65l.1.5.8 3.25q.55 1.5 1.05 1.5.35-.05.6-1l.05-.15.2-1 .1-1v-.25q.2-3.05-.5-5.15-.55-1.7-1.35-2.3m13.7 6.8q2.85 5.85 7.45 4.2 2.55-.9 3.7-3l.55-1.55q.85-3.4-1.35-6.9l-1.55-.9q-2-.95-3.9-.85l-1.15.15-1.6.6q-1.45.75-2.45 2.2-.7.95-1.2 2.2l1.5 3.85m-2.35.2q-.3-4 1.65-6.8 1.7-2.55 4.65-3.25 2.85-.75 5.55.75 2.9 1.6 4.4 5.3l-2.3-2.5q1.65 3.1.5 6.4-1.15 3.4-4.65 4.4-3.3.95-5.65-1.3-2.3-2.15-3.35-6.85-.65 1.7-.8 3.85" fill="#8b4e00"/><path d="m14.9 50.2.1.05q-.35.6-.5 2.35v.55l.05 2.1.15 1.55q.25 1.95.7 2.95l.05.1q.45.95 1 .25l.1-.15-.05.15q-.6.95-1.15-.15-.5-.95-.8-3.05l-.15-1.7-.05-2.15v-.15l.05-.25q.1-1.85.5-2.45m14.4 3.9.1.8q.4 2.45 1.9 3.95 1.5 1.55 3.15 1.25 1.7-.25 2.6-2.2l.35-.75q.5-1.65.15-3.6l-.7-2.3q-.45-.95-1.2-1.65-1.45-1.5-3.15-1.25-1.7.3-2.6 2.2-.75 1.6-.6 3.55m7.9-2.65.6 2.05q.45 2.6-.5 4.6-1 2.05-2.75 2.35-1.8.3-3.4-1.3-1.55-1.6-1.95-4.2l-.05-.35q-.35-2.35.55-4.25.45-1 1.15-1.55l1.6-.6 1.15-.15q1.15.2 2.2 1.25.9.9 1.4 2.15" fill="#102b2a"/><path d="M15 50.25q.8.6 1.35 2.3.7 2.1.5 5.15l-.3.45-.1-2.6-.05-.8q-.1-.95-.4-1.55l-.65-.5-.15-.1-.1.05h-.05l-.3.3-.05.05-.05.15h-.15v-.55q.15-1.75.5-2.35m14.65 3.2-.35.65q-.15-1.95.6-3.55.9-1.9 2.6-2.2 1.7-.25 3.15 1.25.75.7 1.2 1.65l-1.65-.5q-2.05-.35-3.65.65-.45-.4-1-.3-.55.1-.85.65-.3.6-.2 1.3l.15.4" fill="#1f8445"/><path d="m14.65 53.9.25.45.15.15h.3l.35-.35.1-.4.65 1.8-.15.9q-.2.8-.55.9l.05-.35-.1-.4-.2-.2-.25.2-.1.4-.1-.15-.4-1.6V53.9m17.1-2.25q.35-.4.85-.45.8-.15 1.55.65t.95 2.1q.25 1.3-.2 2.35-.45 1-1.25 1.15h-.05l.1-.45-.2-.55q-.2-.25-.5-.25t-.5.25l-.2.55-.25-.25q-.75-.8-.95-2.1v-.05h.05l.85-.65q.3-.6.2-1.35l-.45-.95" fill="#174645"/><path d="m15.35 52.7.65.5q.3.6.4 1.55l.05.8-.65-1.8v-.3l-.1-.4-.1-.15-.05-.1h-.05l-.15-.1" fill="#0e2928"/><path d="m16.45 55.55.1 2.6-1.45.05q.05.95.5 1.6.5.7.95-.25l-.1.55q-.55.7-1-.25l-.05-.1q-.45-1-.7-2.95l-.15-1.55-.05-2.1h.15v2.1l.4 1.6.1.15.1.45.25.15.2-.15.05-.1q.35-.1.55-.9l.15-.9m13.2-2.1.45.8q.45.4 1 .35v.05q.2 1.3.95 2.1l.25.25.2.55.5.25.5-.25.1-.1h.05q.8-.15 1.25-1.15.45-1.05.2-2.35-.2-1.3-.95-2.1t-1.55-.65q-.5.05-.85.45l-.15-.2-.05-.05q1.6-1 3.65-.65l1.65.5.7 2.3q.35 1.95-.15 3.6.1-1.5-.8-1.6-.8-.1-1.1 1.15l-.35 1-.85.7-1.05.1q-.55-.1-1-.55-.85-.95-1.2-.65-.35.3.25 1.55-1.5-1.5-1.9-3.95l-.1-.8.35-.65m7.25.3q-.15-.15-.4-.15l-.45.15-.2.45.2.45.45.2.4-.2.2-.45-.2-.45m.1-1-.15-.35q-.15-.15-.35-.15-.2 0-.35.15-.15.15-.15.35l.15.4.35.15.35-.15.15-.4" fill="#35e276"/><path d="M16.85 57.7v.25l-.1 1-.2.6q-.45.95-.95.25-.45-.65-.5-1.6l1.45-.05.3-.45m14.45 1.15q-.6-1.25-.25-1.55.35-.3 1.2.65.45.45 1 .55l1.05-.1.85-.7.35-1q.3-1.25 1.1-1.15.9.1.8 1.6l-.35.75q-.9 1.95-2.6 2.2-1.65.3-3.15-1.25m5.7-6.1-.15.4-.35.15-.35-.15-.15-.4q0-.2.15-.35.15-.15.35-.15.2 0 .35.15l.15.35m-.1 1 .2.45-.2.45-.4.2-.45-.2-.2-.45.2-.45.45-.15q.25 0 .4.15" fill="#d0ffd1"/><path d="M16.5 60.1q-.25.95-.6 1-.5 0-1.05-1.5l-.8-3.25-.1-.5-.1-1.9-.1-.7.3-.2h.3l.05 2.15.15 1.7q.3 2.1.8 3.05.55 1.1 1.15.15m-1.85-6.95.05-.15.05-.05.3-.3h.05l.1-.05.15.1.15.1h.05l.05.1.1.15.1.4v.3l-.1.4-.35.35h-.3l-.15-.15-.25-.45v-.75m.5 3.85.1-.4.25-.2.2.2.1.4-.05.35-.05.1-.2.15-.25-.15-.1-.45m15.95-2.4q-.55.05-1-.35l-.45-.8-.15-.4q-.1-.7.2-1.3.3-.55.85-.65.55-.1 1 .3l.05.05.15.2.45.95q.1.75-.2 1.35l-.85.65h-.05m2.5 2.85-.1.1-.5.25-.5-.25-.2-.55.2-.55q.2-.25.5-.25t.5.25l.2.55-.1.45m-4.45-2.85.05.35q.4 2.6 1.95 4.2 1.6 1.6 3.4 1.3 1.75-.3 2.75-2.35.95-2 .5-4.6l-.6-2.05q1.05.55 1.8 1.6 1.55 2.2.85 5.2-1.15 2.1-3.7 3-4.6 1.65-7.45-4.2.05-1.35.45-2.45" fill="#fff"/><path d="M13.3 51.55q.15-1.8 1.2-1.55l.4.2q-.4.6-.5 2.45l-.05.25v.15h-.3l-.3.2-.45-1.7m15.85 3.05q-.4 1.1-.45 2.45l-1.5-3.85q.5-1.25 1.2-2.2 1-1.45 2.45-2.2-.7.55-1.15 1.55-.9 1.9-.55 4.25m10.7 3.65q.7-3-.85-5.2-.75-1.05-1.8-1.6-.5-1.25-1.4-2.15-1.05-1.05-2.2-1.25 1.9-.1 3.9.85l1.55.9q2.2 3.5 1.35 6.9l-.55 1.55" fill="#959595"/><path d="M30.85 30.8q1.25.55 1.65 1.75.35 1.15-.15 2.5-1.15 3.15-5 4.2 1-4.85-2.05-5.85l.9.35q1.75.95 1.6 3.5v.3l-.05.15-.05.25-.15 1 2.2-1.05 1.05-.85q.95-.9 1.4-2.1.95-2.65-1.35-4.15" fill="#021a44"/><path d="M25.3 33.4q-.75-2.2 1.4-3.1 2.15-.85 4.15.5 2.3 1.5 1.35 4.15-.45 1.2-1.4 2.1 1.5-2.6.25-4.6-1-1.6-2.7-1.85l1.25 1.9q-2.8-1.35-4.3.55l.9.7-.9-.35" fill="#16366c"/><path d="m29.75 37.9-2.2 1.05.15-1 .05-.25.05-.15V34.6q-.25-1.65-.95-2.3 1.05.4 1.7 1.4.65 1.05.8 2.4.85-1.8.6-3.75 2.1 2.1-.2 5.55" fill="#9ef"/><path d="m30.8 37.05-1.05.85q2.3-3.45.2-5.55.25 1.95-.6 3.75-.15-1.35-.8-2.4-.65-1-1.7-1.4.7.65.95 2.3v2.65q.15-2.55-1.6-3.5l-.9-.7q1.5-1.9 4.3-.55l-1.25-1.9q1.7.25 2.7 1.85 1.25 2-.25 4.6" fill="#4779aa"/></g><use ffdec:characterId="2" height="71" width="58.65" xlink:href="#k" id="c"/><use ffdec:characterId="4" height="67.45" width="53.7" xlink:href="#l" id="d"/><use ffdec:characterId="6" height="14.7" width="19.9" xlink:href="#m" id="e"/><use ffdec:characterId="8" height="15.3" width="15.95" xlink:href="#n" id="f"/><use ffdec:characterId="10" height="16.8" width="17.25" xlink:href="#o" id="g"/><use ffdec:characterId="12" height="18" width="18.8" xlink:href="#p" id="h"/><use ffdec:characterId="14" height="14.95" width="9.8" xlink:href="#q" id="i"/><use ffdec:characterId="16" height="74.15" width="73.6" xlink:href="#r" id="j"/><path d="M21.25-3.7q8.45 1.25 8.45 3 0 1.8-8.45 3L1 3.55-19.35 2.3q-8.4-1.2-8.4-3 0-1.75 8.4-3L1-4.9l20.25 1.2" fill-opacity=".349" fill-rule="evenodd" transform="translate(27.75 4.9)" id="b"/></defs></svg>