<svg xmlns:ffdec="https://www.free-decompiler.com/flash" xmlns:xlink="http://www.w3.org/1999/xlink" ffdec:objectType="frame" height="90" width="90" xmlns="http://www.w3.org/2000/svg"><use ffdec:characterId="27" height="173.95" transform="matrix(.5055 0 0 .5061 8.315 1.417)" width="150.75" xlink:href="#a"/><defs><g id="a" transform="translate(-16.45 -2.8)"><use ffdec:characterId="2" height="34.45" transform="matrix(.86 0 0 .86 44.9 147.1)" width="101.4" xlink:href="#b"/><use ffdec:characterId="4" height="34.85" transform="translate(109.75 114.55) scale(.5391)" width="60.6" xlink:href="#c"/><use ffdec:characterId="5" height="49.2" transform="matrix(.7277 0 0 .5829 55.29 127.263)" width="97.15" xlink:href="#d"/><use ffdec:characterId="7" height="136.95" transform="translate(19.8 64.9) scale(.5391)" width="239.55" xlink:href="#e"/><use ffdec:characterId="9" height="23.95" transform="translate(82.95 86.9) scale(.5391)" width="29.95" xlink:href="#f"/><use ffdec:characterId="11" height="25.65" transform="translate(60.05 86.35) scale(.5391)" width="21.4" xlink:href="#g"/><use ffdec:characterId="13" height="47.2" transform="translate(108.55 21.85) scale(.5391)" width="108.8" xlink:href="#h"/><use ffdec:characterId="15" height="47.75" transform="translate(66.3 2.8) scale(.5391)" width="64.2" xlink:href="#i"/><use ffdec:characterId="21" height="165.65" transform="translate(41.15 11.3) scale(.5391)" width="181.4" xlink:href="#j"/></g><g id="l" fill-rule="evenodd"><path d="m49.6 13.55-1.1 1.25q-2.25 2.85-4.2 6.4-1.15 2.1-2.2 5.35l-.2.6-1.35 4.2 4.4-.65q.2-1.3 1.05-3.25.9-2.25 2.7-5.45 1.55-2.75 2.85-4.35 1.1-1.4 2.05-1.95-1.15-2.05-2.5-3.8l-.55.6-.75.75-.2.3m-7.8 6.35v.45l-.55.05q-8.25.3-15.95-2.15-6.05-2.05-10.1-5.6l-.5-.45q-4.1-3.8-6-9.15L7.05 4.1 2.7 6.75q7.35 10.6 18.8 14.1 8.5 1.75 17.8 1.3l-.35.35q-1.85 1.3-3 2.8-2.5 3-2.15 6.45l6.25-.35q.1-1.7 1.1-4.4 1.1-3 3.3-7.15 1.45-2.8 2.8-4.75 1.8-2.75 3.35-3.85l-3.4-3.5Q41.5 14 41.8 19.9m15.4 7.05.6-.3-.2-.85q-1.35-5.15-3.55-9.3L52 18.2l-.95 1.2q-1.45 2-2.6 4.2-.95 1.75-1.8 3.8l-1.15 3.2q5.95-1.25 11.7-3.65m3.05-1.55.35 2.15-2.55 2.25q-10.2 7.55-29.65 3.85-.15-3.85 3.4-8.4Q6.95 24.2 0 6.85L9.9 0q9.05 16.3 28.5 15.85 2.65-8.5 8.9-11.1 10.2 5.4 12.95 20.65" fill="#4d1a03"/><path d="M47.25 15.1q-2.15 1.5-3.45 2.75l-2 2.05q-.3-5.9 5.4-12.15l3.4 3.5q-1.55 1.1-3.35 3.85m-6 5.3-1.95 1.75q-9.3.45-17.8-1.3-11.45-3.5-18.8-14.1L7.05 4.1q1.8 3.35 5.25 6.05l2.3 2.1.6.4q4.05 3.55 10.1 5.6Q33 20.7 41.25 20.4M52 18.2l2.05-1.7q2.2 4.15 3.55 9.3l.2.85-.6.3-.45-1-.05-.1-2.1-3.5-2.35-3.8-.25-.35" fill="#ba633a"/><path d="m41.8 19.9 2-2.05q1.3-1.25 3.45-2.75-1.35 1.95-2.8 4.75-2.2 4.15-3.3 7.15l-1.7-.5-3.5-1.2q1.15-1.5 3-2.8l.45-.35h-.1l1.95-1.75.55-.05v-.45m4.85 7.5q.85-2.05 1.8-3.8 1.15-2.2 2.6-4.2l.95-1.2.25.35 2.35 3.8 2.1 3.5.05.1-3.45.5-6.65.95" fill="#dd9e53"/><path d="m35.95 25.3 3.5 1.2 1.7.5q-1 2.7-1.1 4.4l-6.25.35q-.35-3.45 2.15-6.45m21.25 1.65q-5.75 2.4-11.7 3.65l1.15-3.2 6.65-.95 3.45-.5.45 1" fill="#f6db74"/><path d="M46 27.45q-.85 1.95-1.05 3.25l-4.4.65 1.35-4.2 2.95.4 1.15-.1" fill="#9658e9"/><path d="M51.55 17.65q-1.3 1.6-2.85 4.35-1.8 3.2-2.7 5.45l-1.15.1-2.95-.4.2-.6q1.05-3.25 2.2-5.35 1.95-3.55 4.2-6.4 1.5.85 3.05 2.85" fill="#492bc4"/><path d="m48.5 14.8 1.1-1.25.95-1.05.55-.6q1.35 1.75 2.5 3.8-.95.55-2.05 1.95-1.55-2-3.05-2.85" fill="#2e26b4"/><path d="M7.05 4.1 8.7 3.05q1.9 5.35 6 9.15l-.1.05-2.3-2.1Q8.85 7.45 7.05 4.1" fill="#fff"/></g><g id="d"><path d="M92.6 11.3q.3.5.25 1.15 0 .6-.4.95-.45.45-.95.45-.55-.05-.9-.5-.3-.4-.3-1 .05-.65.45-1.1l.05-.05q.4-.35.9-.3.45 0 .8.3l.1.1" fill="#fff" fill-opacity="0" fill-rule="evenodd" transform="translate(.15 .15)"/><path d="m58.4 2.4 1.4-.2 5.6-.75L74.25.3l4.1-.3 4.75.35q4.85 0 9.25 1.6l.55.25 1 .45q1.6 1.2 2.35 3.5l.1.35q.85 2.85.2 5.2l-.2.55q-.7 1.6-2.3 2.9l-.55.4-.2.15-.2.1q-2.7 1.7-5.4 2.75l-4.95 1.7-4.3 1.35-6.1 1.55-6.65 1.05h-.35l-9.25.2-6.7.3-1.55.1-12.05 1.35-.8.1-.35.05h-.1l-1.1.1-5.45-.15-6.95-.6-6-.75q-3-.45-2.35.2l2.35 1.4 1.45.6 4.6 1.6.25.05h.05L26.25 30l5.1.85 2.1.35 1.1.2.45.1.95.2q3.05.3 3.95.75l-2 .4-2.9.2h-.45l-1.1.05-.8.05-5.45-.35-5.3-1.1-5.2-1.55-1.65-.6-3.6-1.65-2.6-1.45L6.1 24.8q-2.7-1.7-4.35-4.1l-.1-.2-.1-.05Q-.1 17.95 0 15.25q.05-1.8.7-3.35l1.6-2.5.9-.6.75-.25L13.9 5.6q25.5-6.65 44.5-3.2m22 27.3.05-.05.3-.2 1.7-1.35 1.35-1.8q.5-.95 1.1-1.15l.2-.05q1.35-.15 1.2 1.55-.15 1.7-1.15 2.9L83.2 31.3l-.1.1-.4.35-.9.65q-2.35 1.65-4.85 2.15l-5.7.5-3.5-.4q-.2-.35 2.3-.65l3.8-.5q2.2-.7 3.9-1.85l1.75-1.25.9-.7M53.05 32l-2.75.15h-2.2q-.65 0-1.5-.6l-.3-.25-.05-.25q0-.7 1.3-1.05l1.85-.25h.2l2.2.2h.05l3.05.2 1.2-.05 3.9-.35 5.35-.6 1.75.15q.55.3-1.4 1.25-1.95.9-3.85 1.05l-4.8.55-.95-.05-.75-.05-1.3-.1h-.4l-.55.05h-.05M92.6 11.3l-.1-.1q-.35-.3-.8-.3-.5-.05-.9.3l-.05.05q-.4.45-.45 1.1 0 .6.3 1 .35.45.9.5.5 0 .95-.45.4-.35.4-.95.05-.65-.25-1.15M6.75 15l-.1-.65V11.9l-.15-.15q-.85-.45-1.55.15-1.1.85-1.45 2.3-.4 1.55.5 2.95l.5.7q1.45 1.65 3.55 2.45l1.6.5q.9-.3-.25-1.1-1.2-.8-1.95-2.55L6.75 15" fill="#fff" fill-rule="evenodd" transform="translate(.15 .15)"/><path d="m93.3 15.7-1.4 2q-1.6 1.9-3.8 2.9l-4.15 2.25-3.95 1.8q-1.45.7-2.4 1.6-.4.35-.7.85-.7 1.45 3.5 2.6l-.9.7-1.75 1.25q-1.7 1.15-3.9 1.85l-3.8.5q-2.5.3-2.3.65l3.5.4 5.7-.5q2.5-.5 4.85-2.15l.9-.65q.55 2.05-.8 4.05-1.8 2.5-4.45 3.75l-4.9 1.65-.7.15-5.7.75H61.1q-2.4-.15-4.65-.9l-.35-.1q-2.05-.8-3.9-2.45-2.4-2.15-.85-4.65l.15-.3q1.75-.5 1.55-1.7h.05l.55-.05h.4l1.3.1.75.05.95.05 4.8-.55q1.9-.15 3.85-1.05 1.95-.95 1.4-1.25l-1.75-.15-5.35.6-3.9.35-1.2.05-3.05-.2-.05-.05q-.85-.5-1.7-.65l-3.4-.5-5.9-.4-5.2-.15h-2.15l-4.95.1-5.05.35-2.1.05h-.25l-4.6-1.6-1.45-.6-2.35-1.4q-.65-.65 2.35-.2l6 .75 6.95.6 5.45.15 1.1-.1h.1l.35-.05.8-.1 12.05-1.35 1.55-.1 6.7-.3 9.25-.2h.35l6.65-1.05 6.1-1.55 4.3-1.35 4.95-1.7q2.7-1.05 5.4-2.75l.2-.1M8.85 26.45l-1.4-.2q-2.25-.55-4.1-2-1.75-1.4-1.6-3.55 1.65 2.4 4.35 4.1l2.75 1.65m50.8 18.8q1.45-.8 3.5-.9 2.05-.1 3.45.5 1.45.6 1.45 1.55 0 .95-1.45 1.75-1.4.8-3.45.9l-3.5-.5q-1.4-.6-1.4-1.55 0-.95 1.4-1.75M6.75 15l.7 2.15Q8.2 18.9 9.4 19.7q1.15.8.25 1.1l-1.6-.5q-2.1-.8-3.55-2.45l-.5-.7.25-.35q1.1-1.3 2.5-1.8" fill="#7fc5ff" fill-rule="evenodd" transform="translate(.15 .15)"/><path d="m58.55 2.55 1.4-.2 5.6-.75L74.4.45l4.1-.3 4.75.35q4.85 0 9.25 1.6l.55.25 1 .45q1.6 1.2 2.35 3.5l.1.35q.85 2.85.2 5.2l-.2.55q-.7 1.6-2.3 2.9l-.55.4-.2.15-.2.1q-2.7 1.7-5.4 2.75l-4.95 1.7-4.3 1.35-6.1 1.55-6.65 1.05h-.35l-9.25.2-6.7.3-1.55.1-12.05 1.35-.8.1-.35.05h-.1l-1.1.1-5.45-.15-6.95-.6-6-.75q-3-.45-2.35.2l2.35 1.4 1.45.6 4.6 1.6.25.05h.05l4.85 1.25 5.1.85 2.1.35 1.1.2.45.1.95.2q3.05.3 3.95.75l-2 .4-2.9.2h-.45l-1.1.05-.8.05-5.45-.35-5.3-1.1-5.2-1.55-1.65-.6-3.6-1.65L9 26.6l-2.75-1.65q-2.7-1.7-4.35-4.1l-.1-.2-.1-.05Q.05 18.1.15 15.4q.05-1.8.7-3.35l1.6-2.5m78.1 20.3.05-.05.3-.2 1.7-1.35 1.35-1.8q.5-.95 1.1-1.15l.2-.05q1.35-.15 1.2 1.55-.15 1.7-1.15 2.9l-1.95 1.75-.1.1-.4.35-.9.65Q79.6 34.2 77.1 34.7l-5.7.5-3.5-.4q-.2-.35 2.3-.65l3.8-.5q2.2-.7 3.9-1.85l1.75-1.25.9-.7m-27.35 2.3-2.75.15h-2.2q-.65 0-1.5-.6l-.3-.25-.05-.25q0-.7 1.3-1.05l1.85-.25h.2l2.2.2H52l3.05.2 1.2-.05 3.9-.35 5.35-.6 1.75.15q.55.3-1.4 1.25-1.95.9-3.85 1.05l-4.8.55-.95-.05-.75-.05-1.3-.1h-.4l-.55.05h-.05M3.35 8.95l.75-.25m88.65 2.75q.3.5.25 1.15 0 .6-.4.95-.45.45-.95.45-.55-.05-.9-.5-.3-.4-.3-1 .05-.65.45-1.1l.05-.05q.4-.35.9-.3.45 0 .8.3l.1.1M4.15 17.3q-.9-1.4-.5-2.95.35-1.45 1.45-2.3.7-.6 1.55-.15l.15.15v2.45l.1.65.7 2.15q.75 1.75 1.95 2.55 1.15.8.25 1.1l-1.6-.5q-2.1-.8-3.55-2.45l-.5-.7z" fill="none" stroke="#89d6e8" stroke-linecap="round" stroke-linejoin="round" stroke-width=".3"/></g><g id="m" fill-rule="evenodd"><path d="M186 39.3q-40.05-11.95-70.9-11.7l-9.4.35-3.45.35Q74.5 31 55.2 44.9l-2.25-3.75q47.7-28 133.85-4.5l-.8 2.65" fill="#4d1a03"/><path d="M55.2 44.9Q74.5 31 102.25 28.3q-25.7 3.1-43.55 19.65l-3.5-3.05" fill="#dd9e53"/><path d="m102.25 28.3 3.45-.35 9.4-.35q30.85-.25 70.9 11.7-23.1 21.45-84.35 23.2Q73.05 59 58.7 47.95 76.55 31.4 102.25 28.3" fill="#85311b"/><path d="M87.3 29.1q14.9-10.55 36-10.55t36 10.55q14.9 10.6 14.9 25.55 0 14.95-14.9 25.5-14.9 10.6-36 10.6t-36-10.6Q72.4 69.6 72.4 54.65T87.3 29.1" fill="#d38565"/><path d="m165.3 76.45.1-.35V76v.1l-.05.4-.05-.05" fill="#00f"/><path d="M229.65 33.55q-5.7-6.6-15.85-6h-.9q-11.75-.1-23.6 9.4.8 7.7.8 14l-.1 3.65q2.7-3.45 7.6-6.1 2.35-1.25 4.5-1.95l.35-.1h.05q2.3-.7 4.4-.7 4.65 0 7.1 4.9 1.5 3 1.8 6.85l-.15.35-.9 1.8 1.1-1.45.05 1.5q0 3.6-1.95 8.25-1.5 3.75-3.4 5.85l-.75.8-.45.4q-2.2 1.85-3.8 2.45-2 .8-5.75.8l-5.55-.85-3.9-.85q-4.5 0-6.55 4.5l-.45 1.2q-1.05 2.9-1.05 7l.2 1.1-.05.05.1.1.2.75.05.3q.9 3.05 4.15 5.45 3.3 2.35 6.45 2.35 5.65 0 10.3-5.7l2.4-4.85q.8-1.8 2.05-2.65l.35-.25 1.15-.15q6.3-1.15 13.15-6.4 14.4-12.45 12.4-33.8-1.8-7.65-5.55-12m-42.5 4.7 2.15-1.3 11.5-12.2q28.65-5.3 36.7 13.1 4.4 12.8-.6 30.1-5.9 13.4-26.4 21.1-4.65 10.45-18 13.1-7.45.45-12.3-8.7-14.7 11.15-29.9 17.1 11.85 1.4 18.9 16.4-10.2 7.15-27 7.9l-11.55 1.35h-.05v-1.05l-.2-2.8 10.65-1.1q9.9-1.6 19.45-5.15l3.2-1.25q-6-11.95-18.2-11.4-1.1.6-1.3 2.3-.2 1.6.4 4.15l-.05.15-.25-.1q-3.4-3.65-1.7-9.7l-2.8.45q-12.05 1.75-23.7.95 1.25 2.85 1.4 5.3.15 2.85-1.2 5.2.5-3.5-.7-5.6-2.45.4-4.6 1.1-.05-.5-1.25-1.5l-1-.75q2-.95 3.65-2.85-19.15.75-35.8-11-26.45.55-43-16.4-3.45-4.65-6.25-11.8-2.15-5.55-3.9-12.6-2.25-9-3.85-20.4-.75-8.25-4.3-9.8-6.95-2.4-11.2-4.8l8.8-1.1q1.25.35 2.4.85 5.4 2.4 7.6 8.55 2.5 9.55 3.7 23.4l1.35 5.05q3 10.2 8.25 17.5l.2.25q3.1 4.3 7 7.55 12.15 10.15 31.8 10.35-2.1-1.65-3.95-3.75l-.05-.05Q58.9 80.55 57 47.55q-3.05-10.45-7.25-18L49.1 28l-.3-.1-2.3-3.5-3.85-4.65L40.4 15l-3.8-6.7q3.15 2.15 6.1 4.85 3.15 2.6 6.2 6.55 4.7 6.05 9.2 15.25l.4 4.9Q60.25 71.55 68.65 87l-.85-.6h-.05l-.1.35q0 .3 1.7 1.45 3.75 6.45 8.85 9.75l3.85 2.3q14.7 8.2 33.9 9.35 14.1.85 30.65-2.05 5.85-2.05 11.15-4.55 9.8-4.7 17.6-11.1l4.85-4.35q-.05-2.85.85-5.3l.6-1.35q.7-1.45 1.75-2.75l2.5-2.4Q189 65.3 188.55 52q-.3-6.55-1.4-13.75m21.95 12.8q-1.9-1.4-4.55-1.4-3.9 0-7.05 2.2-3.35 2.4-4.8 6.7-.8 2.4-.6 7.3.05 1.1-.6 3.4-.6 1.9-.5 3.05l1.75.25q1.25.35 2.05.9l2 1.55q1.1.75 2.15.75 3.95 0 8.25-6.7t4.3-12.85q0-3.4-2.4-5.15M59.9 41.6q2.8 3.1 7.1 4.85 24.15 11.7 49.6 10.4l10.95-1.05q26.75-3.3 52.15-13.05l4.15-2.5v.25l-6.15 4.55q-24.9 9.3-49.2 12.35l-6.4.65q-21.4 2.45-44.3-5.5-6.7-2.3-10.95-4.65-5.5-3.05-6.95-6.3" fill="#4d1a03"/><path d="m36.6 8.3 3.8 6.7 2.25 4.75q-1.95-2-4.05-3.6l-1.4-1Q23.1 2.5 3.5 2.45q.55 1.95 1.55 3.7 2.9 5.15 9.6 8.4l1.55.7q4.2.7 2.1 3-3.45 5-7.8 5.9l2.4.5-8.8 1.1h-.05L4 25.7l-.1-.05q.45-5.1 4.2-10.5-2.05-1.7-3.55-3.55l-.2-.25Q.4 6.45 0 .65 20.6-2.2 35.9 7.8l.7.5m72.15 107.1 1 .75q1.2 1 1.25 1.5-9.4 3-12.2 11.8 16.25 3.75 31.6 2.9l.2 2.8v1.05q-32.3 3-36.7-5.75 6.1-10.95 14.85-15.05m-97.2-97.3q-1.15 1.65-2.05 4.55 2.3-.8 4.45-2.25 2.1-1.5 2.9-2.75v-.05q-1.1-.85-2.45-1.55h-.95q-1.3 1.15-1.9 2.05m26.05-3.75h-.2l.35.45-.15-.45" fill="#8e4210"/><path d="M212.9 27.55h.9q10.15-.6 15.85 6l2.25 7.95q1.3 4.95 1.3 7.25 0 9.55-3.2 16.65-3.4 7.65-11 13.75-2.55 2.05-7 3.8l-3.85.7q-2.65.35-3.55 1.3-2.8 4.05-4.75 6.25-3.55 4.15-7.95 4.15-2.7 0-5.85-1.85-1.75-1-2.9-2.3l-.6-.7-.05-.15-.2-1.1q0-4.1 1.05-7 .85 2.7 3.2 4.45 2.35 1.85 4.85 1.85 4.8 0 6.4-2.4 1.05-1.6 2.75-2.25l3.05-.75q2.65-.65 6.5-3.15l5.5-3.85q5.5-3.85 9.15-9.9 3.65-6.1 3.65-11.6 0-2.65-1.2-4.7-1.25-2.2-3.1-2.2-2.75 0-5.65 5.95l-2.3 4.05-.35-.25q1-2.1 1-3.05 0-4.7-4.2-9.4-4.2-4.65-4.2-7.9 0-3.5 1.1-5.6 1-2.05 3.4-4M68.65 87q-8.4-15.45-10.15-47.15l.95 1.25.45.5q1.45 3.25 6.95 6.3-1.45 1.9-1.45 7.55 0 3 2.35 12.75-1.15 1.35-1.15 2.55l.5 5.6q1.1 5 4.2 5.4l.05.15 1.2 4.3q.6 2.45 1.4 4.15L68.65 87m-26-67.25 3.85 4.65 2.3 3.5.1.2.85 1.45q1.7 4.3 2.75 9.75l1.5 9.85 1.25 8q.35 2.2.35 6.2 0 11.15-2.4 15.4-2.25 4-8.1 4-3.35 0-8.6-2.6l-.3-.15q-5.25-7.3-8.25-17.5l2.75.45q6.25 0 10.1-5.6 4-5.8 4-15.6 0-6.75-.9-11.85l-.55-2.55q-1.5-5.95-4.75-11.2 2.1 1.6 4.05 3.6m68.35 97.9q2.15-.7 4.6-1.1 1.2 2.1.7 5.6l.2.2-.15.1-2.15.7-2.8-.4q-1.6-.55-1.6-1.7l.6-1.35q.6-1 .6-2.05m30.05 13.6-10.65 1.1q-.6-5.25-3.15-9.4t-6-5.6l4.25.2 6.4-1q1.2 0 2.1 1.4.8 1.25.8 2.6 0 1.05-.85 2.45-.8 1.35-1.65 1.7l-.3.05h.2l.1-.05 8.7-2 5.45-1.3 3.25-.65q1.1 0 2.5 1t1.4 1.8q0 1.45-9.4 6.15l-3.15 1.55m-6.6-53.05q.75-3.6.75-5.45 0-4.4-3.5-10.45l4.6 2.7q4.1 2.15 7.1 2.15 2.95 0 4.8-2 1.8-1.9 1.8-4.8l-.3-2.2-.25-1.45 1.65.7q2.15.75 3.3.75 5.15 0 8.55-2.4l2.5-2.1.35 6 .2 6.8-.05 2.85-1.2-2.65-1.45-2.95-.55-1.55q-.6-1.05-2.2-1.05-2.7 0-4.45 5.1-1.25 3.6-1.25 5.6 0 2.1 1.35 4.95 2.05 4.35 5.95 4.35 1.85 0 2.95-2.35l-.5 5.6-.5 5.85q-6.4-2.35-15.6-6.35-8.55-3.7-14.05-5.65" fill="#dd9e53"/><path d="M229.65 33.55q3.75 4.35 5.55 12 2 21.35-12.4 33.8-6.85 5.25-13.15 6.4l-1.15.15-.35.25q-1.25.85-2.05 2.65l-2.4 4.85q-4.65 5.7-10.3 5.7-3.15 0-6.45-2.35-3.25-2.4-4.15-5.45l-.05-.3-.2-.75.6.7q1.15 1.3 2.9 2.3 3.15 1.85 5.85 1.85 4.4 0 7.95-4.15 1.95-2.2 4.75-6.25.9-.95 3.55-1.3l3.85-.7q4.45-1.75 7-3.8 7.6-6.1 11-13.75 3.2-7.1 3.2-16.65 0-2.3-1.3-7.25l-2.25-7.95M215.8 57.5q-.3-3.85-1.8-6.85-2.45-4.9-7.1-4.9-2.1 0-4.4.7h-.05l-.35.1q-3.25.1-7.7 2.05-2.45 1.1-4.3 2.35 0-6.3-.8-14 11.85-9.5 23.6-9.4-2.4 1.95-3.4 4-1.1 2.1-1.1 5.6 0 3.25 4.2 7.9 4.2 4.7 4.2 9.4 0 .95-1 3.05M49.75 29.55q4.2 7.55 7.25 18 1.9 33 14.2 46.8-8.3 0-16.85-2.45-5.75-1.6-10.95-4.1-3.9-3.25-7-7.55l.1-.1q5.25 2.6 8.6 2.6 5.85 0 8.1-4 2.4-4.25 2.4-15.4 0-4-.35-6.2l-1.25-8-1.5-9.85q-1.05-5.45-2.75-9.75m67.75 87.4q-.15-2.45-1.4-5.3 11.65.8 23.7-.95l-.3.95q-.3.7-.3 1.5 0 3.05 2.45 5.15 1.05.9 2.65 1.65l.4.4-.05-.25-.05-.2q-.6-2.55-.4-4.15l.7-.2q4.55 0 9.05 3.25 3.9 2.8 6.55 7.3-9.55 3.55-19.45 5.15l3.15-1.55q9.4-4.7 9.4-6.15 0-.8-1.4-1.8t-2.5-1l-3.25.65-5.45 1.3-8.7 2q.85-.35 1.65-1.7.85-1.4.85-2.45 0-1.35-.8-2.6-.9-1.4-2.1-1.4l-6.4 1-4.25-.2-1.05-.2-.8-.2h-1.9M11.55 18.1q.6-.9 1.9-2.05h.95q1.35.7 2.45 1.55v.05q-.8 1.25-2.9 2.75-2.15 1.45-4.45 2.25.9-2.9 2.05-4.55M131.7 62.3l-3.2-4.9q24.3-3.05 49.2-12.35l6.15-4.55q1.95 14.6 1.95 18.15 0 9.6-2.65 18.05-1.6-1.55-3.3-2l-.6.2q-4.75 4.9-12.75 14.7h.15l-1.15 1.25-.05-.15-1.35-.5.5-5.85.5-5.6.35-.8q.9-2.45.9-5.5l-.25-2.7-.15-.45.05-2.85-.2-6.8-.35-6-2.5 2.1q-3.4 2.4-8.55 2.4-1.15 0-3.3-.75l-1.65-.7.25 1.45.3 2.2q0 2.9-1.8 4.8-1.85 2-4.8 2-3 0-7.1-2.15l-4.6-2.7" fill="#ba633a"/><path d="m183.35 82.25.45-1.2q2.05-4.5 6.55-4.5l3.9.85 5.55.85q3.75 0 5.75-.8 1.6-.6 3.8-2.45l.45-.4.75-.8q1.9-2.1 3.4-5.85 1.95-4.65 1.95-8.25l-.05-1.5.3-.45 2.3-4.05q2.9-5.95 5.65-5.95 1.85 0 3.1 2.2 1.2 2.05 1.2 4.7 0 5.5-3.65 11.6-3.65 6.05-9.15 9.9L210.1 80q-3.85 2.5-6.5 3.15l-3.05.75q-1.7.65-2.75 2.25-1.6 2.4-6.4 2.4-2.5 0-4.85-1.85-2.35-1.75-3.2-4.45M27.95 62.5l-1.35-5.05q-1.2-13.85-3.7-23.4-2.2-6.15-7.6-8.55l.1-.45-2.5-.4-2.4-.5q4.35-.9 7.8-5.9 2.1-2.3-2.1-3l.05-.65-1.6-.05q-6.7-3.25-9.6-8.4H6.6L18.1 8.9q8.6 2.45 10.9 4.85 2.55 2.6 3.55 6.2l.95 5.75q.5 3 1.75 4.2 1.7 1.65 5.85 1.65 1.65 0 2.8-1.65.9 5.1.9 11.85 0 9.8-4 15.6-3.85 5.6-10.1 5.6l-2.75-.45m88.35 59.65q1.35-2.35 1.2-5.2h1.9l.8.2 1.05.2q3.45 1.45 6 5.6 2.55 4.15 3.15 9.4-15.35.85-31.6-2.9 2.8-8.8 12.2-11.8 0 1.05-.6 2.05l-.6 1.35q0 1.15 1.6 1.7l2.8.4 2.15-.7.15-.1-.2-.2M67.75 68.2q-2.35-9.75-2.35-12.75 0-5.65 1.45-7.55 4.25 2.35 10.95 4.65 22.9 7.95 44.3 5.5l6.4-.65 3.2 4.9q3.5 6.05 3.5 10.45 0 1.85-.75 5.45l-1.35-.5-.6.1-.05-.1L120 88.25q-8.15 7-8.15 7.5l-.1.15-7.5-7.4 1.35-1.35 2.15-2.75q.95 1.3 2.35 1.3 2.85 0 5.55-3.15 2.9-3.45 2.9-7.85 0-3.55-.85-6.25-1.35-4.3-4.55-5.4-3.85-1.25-5.75 2.4-.4.8-.7 1.85l-1.3-1.75q-4.75-5.8-11.6-5.8-4.7 0-9.45 5-3.35 3.5-4.05 6.95-.3 1.25-.2 2.5l-.05.75-.05.5q0 5.35 4.4 10.7l1.05 1.15-6.25 5.85-.35.2-4.9-3q-.8-1.7-1.4-4.15l-1.2-4.3.45-.15q.9 0 2-1.25 1.15-1.2 1.25-2.2l.45-3.55-.3-3.45q-.3-1.7-1.35-3.8-2.25-3.1-4.95-.6l-1.15 1.3" fill="#f6db74"/><path d="M202.1 46.55q-2.15.7-4.5 1.95-4.9 2.65-7.6 6.1l.1-3.65q1.85-1.25 4.3-2.35 4.45-1.95 7.7-2.05m-14.95-8.3q1.1 7.2 1.4 13.75.45 13.3-2.65 23.75l-2.5 2.4-.6-.45.35-1q2.65-8.45 2.65-18.05 0-3.55-1.95-18.15l3.3-2.25m-6.1 44q-.9 2.45-.85 5.3l-4.85 4.35q3.4-4.45 5.7-9.65M71.2 94.35l.05.05q1.85 2.1 3.95 3.75-19.65-.2-31.8-10.35 5.2 2.5 10.95 4.1 8.55 2.45 16.85 2.45m68.6 16.35 2.8-.45q-1.7 6.05 1.7 9.7-1.6-.75-2.65-1.65-2.45-2.1-2.45-5.15 0-.8.3-1.5l.3-.95m4.4 5.05q.2-1.7 1.3-2.3 12.2-.55 18.2 11.4l-3.2 1.25q-2.65-4.5-6.55-7.3-4.5-3.25-9.05-3.25l-.7.2M43.9 29.9q-1.15 1.65-2.8 1.65-4.15 0-5.85-1.65-1.25-1.2-1.75-4.2l-.95-5.75q-1-3.6-3.55-6.2-2.3-2.4-10.9-4.85L6.6 6.15H5.05q-1-1.75-1.55-3.7 19.6.05 33.7 12.7l1.4 1q3.25 5.25 4.75 11.2l.55 2.55" fill="#e6ffc2"/><path d="M69.35 88.2q-1.7-1.15-1.7-1.45l.1-.35h.05l.85.6 5.3 3.35 4.9 3-.05.25-4.4-2.35-.05-.05-1.7-1-3.3-2m-1.6-20 1.15-1.3q2.7-2.5 4.95.6 1.05 2.1 1.35 3.8l.3 3.45-.45 3.55q-.1 1-1.25 2.2-1.1 1.25-2 1.25h-.5q-3.1-.4-4.2-5.4l-.5-5.6q0-1.2 1.15-2.55M79.2 93.15l6.25-5.85 1-.95q4.25-3.9 8.6-5.85l.4.4q3.85 2.85 8.55 7.35l.25.25 7.5 7.4.15.15-.05-.3q0-.5 8.15-7.5l12.45-10.55.05.1-9.8 9.25-10.5 9.05h-.25l.1.1q.2.15-.3.15-.7 0-7.35-6.25l-1-.95-6.75-6.8-1.6-1.85-8.85 7.6-6.4 5.3-.6-.25m27.5-25.85q.3-1.05.7-1.85 1.9-3.65 5.75-2.4 3.2 1.1 4.55 5.4.85 2.7.85 6.25 0 4.4-2.9 7.85-2.7 3.15-5.55 3.15-1.4 0-2.35-1.3-1.05-1.55-1.5-4.75l-.3-6.5q0-3.45.75-5.85m26.4 10.4 1.35.5q5.5 1.95 14.05 5.65 9.2 4 15.6 6.35l1.35.5.05.15v.05l-.15.1h-.15l-1.2-.15q-2.2-.5-6.9-2.4-4.65-1.9-9.3-4.15l-7.45-2.9q-4.1-1.65-6-2.8l-1.25-.9m32.85-8.4.15.45.25 2.7q0 3.05-.9 5.5l-.35.8q-1.1 2.35-2.95 2.35-3.9 0-5.95-4.35-1.35-2.85-1.35-4.95 0-2 1.25-5.6 1.75-5.1 4.45-5.1 1.6 0 2.2 1.05l.55 1.55 1.45 2.95 1.2 2.65m.7 20.3h-.15q8-9.8 12.75-14.7-2.2 3.75-7.1 9.1l-5.1 5.2-.3.3-.1.1m13.2-14.9q1.7.45 3.3 2l-.35 1-1.1-1-1.85-2m-14-3.65-.2-1.2q-.3-1.25-1.25-2.75l-1.1-2.95q-.65-1.7-2.15-2.2-2.4-.8-4.2 3.75-1.4 3.6-1.4 6.1 0 1.9 1.35 4.65 1.95 3.95 5.3 3.95 1.1 0 2.15-1.7l.95-2.25.05.05.05-.4V76l.05-.1.45-3.45-.05-1.4m-57.65 12.6q.75 1.3 1.85 1.3 4.05 0 6.3-4.45 1.55-3.1 1.55-5.8 0-4.6-1.75-7.9-1.6-3-3.85-3.6-2.35-.65-3.9 1.7-.8 1.25-1.25 3.15-.5 2.15-.5 5.1l.3 6.05q.4 3 1.25 4.45M71 80.85l.75.05q.55 0 1.45-1.15.85-1.05 1.1-1.9l.45-3q0-2.55-1.1-5.85-1.3-3.65-3.8-1.9-1.05.75-1.9 2.05l-.3.45.05 3.2.3 4.2q.75 3.35 3 3.85"/><path d="M157.75 103q-5.3 2.5-11.15 4.55-16.55 2.9-30.65 2.05 5.95-1.75 8.45-4.75 1.15-1.35 2.2-3.8 1.3-3 2-4.1 1.2-2 3.85-11.05l1.9-7.3q1.9 1.15 6 2.8l7.45 2.9q4.65 2.25 9.3 4.15 4.7 1.9 6.9 2.4l-.65 2.9q-1.65 4.9-5.6 9.25m-75.7-2.75-3.85-2.3q-5.1-3.3-8.85-9.75l3.3 2 1.7 1v.05q1.95 3.8 7.7 9m-14.1-31.1 2.85 11.2.2.5q-2.25-.5-3-3.85l-.3-4.2-.05-3.2.3-.45" fill="#492bc4"/><path d="m181.65 80.9-.6 1.35q-2.3 5.2-5.7 9.65-7.8 6.4-17.6 11.1 3.95-4.35 5.6-9.25l.65-2.9 1.2.15h.15l.15-.1v-.05l1.15-1.25.1-.1.3-.3 5.1-5.2q4.9-5.35 7.1-9.1l.6-.2 1.85 2 1.1 1-.6 1.7-.55 1.5m-16.35-4.45-.95 2.25q-1.05 1.7-2.15 1.7-3.35 0-5.3-3.95-1.35-2.75-1.35-4.65 0-2.5 1.4-6.1 1.8-4.55 4.2-3.75 1.5.5 2.15 2.2l1.1 2.95q.95 1.5 1.25 2.75l.2 1.2-.4 4.85-.05.1v.1l-.1.35" fill="#2e26b4"/><path d="M115.95 109.6q-19.2-1.15-33.9-9.35-5.75-5.2-7.7-9h.05l4.4 2.35.05-.25.35-.2.6.25 6.4-5.3q4.1 3.85 8.9 3.85 4.6 0 8.3-2.8l1 .95q6.65 6.25 7.35 6.25.5 0 .3-.15l.15-.1 10.5-9.05 9.8-9.25.6-.1 1.25.9-1.9 7.3q-2.65 9.05-3.85 11.05-.7 1.1-2 4.1-1.05 2.45-2.2 3.8-2.5 3-8.45 4.75m-8.8-41.55q.45-1.9 1.25-3.15 1.55-2.35 3.9-1.7 2.25.6 3.85 3.6 1.75 3.3 1.75 7.9 0 2.7-1.55 5.8-2.25 4.45-6.3 4.45-1.1 0-1.85-1.3 1.6-2.95 1.6-6.2 0-5.1-2.65-9.4m-39.2 1.1q.85-1.3 1.9-2.05 2.5-1.75 3.8 1.9 1.1 3.3 1.1 5.85l-.45 3q-.25.85-1.1 1.9-.9 1.15-1.45 1.15l-.75-.05-.2-.5-2.85-11.2" fill="#9658e9"/><path d="M107.15 68.05q2.65 4.3 2.65 9.4 0 3.25-1.6 6.2-.85-1.45-1.25-4.45l-.3-6.05q0-2.95.5-5.1m-3.75 21.1q-3.7 2.8-8.3 2.8-4.8 0-8.9-3.85l8.85-7.6 1.6 1.85 6.75 6.8" fill="#ffa8ff"/><path d="m85.45 87.3-1.05-1.15Q80 80.8 80 75.45l.05-.5.05-.75q-.1-1.25.2-2.5.7-3.45 4.05-6.95 4.75-5 9.45-5 6.85 0 11.6 5.8l1.3 1.75q-.75 2.4-.75 5.85l.3 6.5q.45 3.2 1.5 4.75l-2.15 2.75-1.35 1.35-.25-.25q-4.7-4.5-8.55-7.35l-.4-.4q-4.35 1.95-8.6 5.85l-1 .95" fill="#ffffa6"/></g><g id="n" fill-rule="evenodd"><path d="M4.05 12.45Q8.4 15.4 12.6 17.5v.05q.05.3.6.25 6.1 2.95 11.9 4.05l.75.05q2-.2 2.15-3.15.35-6.85-1.25-12.1.35-.3.7-.3 1.05 0 1.85 2.05l.5 1.5.15 1.9q.25 6-2.25 11.95-9.45 1.65-23.65-11.3" fill="#915237"/><path d="M4.05 12.45 4 12.4 0 8.55l21.65-6.9.2.45q.65 1.35.65 2.85l-.35 1.6h1.15q1.9-.05 2.85 3.05.75 2.35.75 5.45 0 1.15-.6 3-.35-2.05-1.8-3.6-2.1-2.3-5.45-2.3-2.6 0-4.25.9-2.2 1.2-2.2 3.85v.6q-4.2-2.1-8.55-5.05" fill="#d38565"/><path d="M12.6 17.5v-.6q0-2.65 2.2-3.85 1.65-.9 4.25-.9 3.35 0 5.45 2.3 1.45 1.55 1.8 3.6.6-1.85.6-3 0-3.1-.75-5.45-.95-3.1-2.85-3.05h-1.15l.35-1.6q0-1.5-.65-2.85l-.2-.45L26.8 0q2.4 5 3 9.9l-.5-1.5q-.8-2.05-1.85-2.05-.35 0-.7.3 1.6 5.25 1.25 12.1-.15 2.95-2.15 3.15l-.75-.05q-5.8-1.1-11.9-4.05l-.55-.3h-.05" fill="#e6ffc2"/></g><g id="o" fill-rule="evenodd"><path d="M17.3 13.6q-5.6 6.8-13.2 11.95-2.65.4-3.6-.7-.45-.55-.5-1.4-.35-13.7 5.4-22.4l3-.8Q4.45 6.4 2.7 12.1l-.1.45q-1.55 5.25-1.1 10.1.05 1.05.65 1.45l1.95-.05 1.2-.75 2.2-1.7q3.95-3.35 7.8-8.5l.75-.25.05.05v-.05q1.1 0 1.2.75" fill="#915237"/><path d="m5.3 23.3-1.2.75-1.95.05q3.25-1.6 5.15-3.95 2.3-2.95 2.3-6.55 0-1.35-.7-2.25-.85-1.1-2.35-1.1-1.05 0-2.15.65l-1.7 1.2Q4.45 6.4 8.4.25q3.95-.75 7 .85-.65 6.5-1.35 8.55l-2.25 4.5-2.6 4.7q-.3.35-.85 1.25l-.95 1.25-2.1 1.95" fill="#d38565"/><path d="M2.15 24.1q-.6-.4-.65-1.45-.45-4.85 1.1-10.1l.1-.45 1.7-1.2q1.1-.65 2.15-.65 1.5 0 2.35 1.1.7.9.7 2.25 0 3.6-2.3 6.55-1.9 2.35-5.15 3.95" fill="#ffd7b8"/><path d="M17.3 13.6q-.1-.75-1.2-.75h-.05l-.75.25q-3.85 5.15-7.8 8.5l-.1-.25.95-1.25q.55-.9.85-1.25l2.6-4.7 2.25-4.5q.7-2.05 1.35-8.55l1.3.75q2.75 2 4.7 6.1l-4.1 5.65" fill="#e6ffc2"/></g><g id="p" fill-rule="evenodd"><path d="M71.15 12.85q-5.6-1.45-12.6-2.55Q46.6 8.4 38.6 8.4l-5.35.1-7 1.55-1.65-.75-.1.15.9.45.4.2q7.75 3.9 14.05 9.25 5.2 4.4 8.55 9.05l.45.85 1.05 2.2q-4.25-5.7-6.45-7.35-3.2-1.5-6.25-3.5l-6.8-4.2q-4.1-2.25-6.6-2.55h-.05l-1.8 4.05q-1.4 2.4-3.75 4.1l-5.6 4-4 1.95-4.45-2.75q12.9-6.7 14.05-22 31.15-.7 52.95 9.65" fill="#b15ed1"/><path d="m26.25 10.05 7-1.55 5.35-.1q8 0 19.95 1.9 7 1.1 12.6 2.55Q90.9 22.2 103 40.6q-48-17.65-48.4-5.4l-3.5-2.05-1.2-1.7.15.35.6 1.1q-21.05-11.55-29.6 2.85L8.6 27.95l4-1.95 5.6-4q2.35-1.7 3.75-4.1l1.8-4.05h.05q2.5.3 6.6 2.55l6.8 4.2q3.05 2 6.25 3.5 2.2 1.65 6.45 7.35l-1.05-2.2H49l.05-.1q-1.7-4.85-8.3-10.25-6.1-5-14.5-8.85" fill="#6a339e"/><path d="M71.15 12.85Q49.35 2.5 18.2 3.2q-1.15 15.3-14.05 22L0 22.6Q12.4 18.5 15.6.4q68.65-4.75 93.2 46.8Q60.45 24.85 55.6 40q-23.45-14.95-32.2-2.8l-2.35-1.45q8.55-14.4 29.6-2.85l1.05 1.7-.6-1.45 3.5 2.05q.4-12.25 48.4 5.4-12.1-18.4-31.85-27.75M48.4 28.4q-3.35-4.65-8.55-9.05Q33.55 14 25.8 10.1l-.4-.2-.9-.45.1-.15 1.65.75q8.4 3.85 14.5 8.85 6.6 5.4 8.3 10.25l-.05.05-.6-.8" fill="#3a0b67"/><path d="m49.05 29.15-.05.1v-.05l.05-.05" fill="#00f"/></g><g id="q" fill-rule="evenodd"><path d="m5.6 47.6-2.8.15Q3.9 39.9 0 28.35q14.05-19.8 36.4-26.6 14.45-3.5 27.8 0-5 2.8-9.15 5.5-26.1 16.85-18.85 28.9l-3.9 1.2-1.1-.6.75.75q-11.4 3.95-9.55 9.05l-3.85.25q-.15-9.3 10.25-11.05 1.3.45 2.4 1l-1.25-1.15.25-.05q.25-15.2 17.95-27.2 4.05-2.8 9.05-5.4-26.55-.7-52.8 25.6Q8.15 40.8 5.6 47.6m15.65-17.25q-5.85-1.1-11.55-1.1L8.85 29l5.4-.3 4.6.15 1.45.2q2.25.45 7.65 2.9-3.35-1-6.7-1.6" fill="#3a0b67"/><path d="m14.15 47.1-8.55.5q2.55-6.8-1.2-19.05 26.25-26.3 52.8-25.6-5 2.6-9.05 5.4-5.1 1-8.6 2.3-2.35.85-8.35 3.9-4.8 2.4-9.1 5.5-6.7 4.8-7.85 8.65l-5.4.3.85.25q5.7 0 11.55 1.1 2 .95 4.15 1.9 1.9 1 4.55 3.35l-1.15.15q-2.6-.95-6.1-1.6l-9.5-1-1.8.15-.2 4.35q0 4.9 1.25 7.2.6 1 1.7 2.25" fill="#b15ed1"/><path d="m18.55 46.8-4.4.3q-1.1-1.25-1.7-2.25-1.25-2.3-1.25-7.2l.2-4.35 1.8-.15 9.5 1q3.5.65 6.1 1.6Q18.4 37.5 18.55 46.8m29.6-38.45q-17.7 12-17.95 27.2l-.25.05q-2.65-2.35-4.55-3.35-2.15-.95-4.15-1.9 3.35.6 6.7 1.6-5.4-2.45-7.65-2.9l-1.45-.2-4.6-.15q1.15-3.85 7.85-8.65 4.3-3.1 9.1-5.5 6-3.05 8.35-3.9 3.5-1.3 8.6-2.3" fill="#6a339e"/></g><g id="r" fill-rule="evenodd"><path d="m122.85 161.8.25-.45.15.15-.4.3m11.45-61-.3-.3.05-.1.25.4m-5.25-8.05-.15.1v-.1h.15m36.05 18.2h-.2l.1-.3.1.3M25.65 59.35l-.05.1-.1-.1h.15M31 78.3v.05l-.15-.05H31m89.95 15.45h-.1l.2-.4-.1.4" fill="#00f"/><path d="M174.35 104.4q-.1 7.5-1.35 11.2-15.55 28.85-50.7 49.55l-.1.15-.4.35-.55-.7 1.25-2.4.35-.75.4-.3-.15-.15q2-3.75 2.55-7.65l1.05-9.7-1.35.1q-.7 0-.85.5l-.3.8-1 1.4q-1.1.9-3.9.9-2.5 0-5.15-1.75l-1.65-1.25q-2.75-2.35-2.95-3.2l-.05-.15q0-.8.7-.35l.55.45 1.95 2.05 2.45 1.6.8.45q1.95.95 3.4.95 2.8 0 3.7-1.9.9-1.95 3.2-1.95l.45.05v-.25l-.35-3.85q0-5.1-3.3-14.5l-.25-.8q-2.25 3.1-4.45 5.25l-2.65 2.15v.05l-2.25 1.35-2 .75-1.2.3q-2.1.35-4.15-.05 7.7-5.4 9.3-19.1 1.4-9.25-5.3-25.25l1.1-.45 2.7 6.35q3.4 9.15 2.8 16.45l.05 1.35-.05.75q-.3 10.95-6.5 18.3l1.85-.65q1.3-.55 2.6-1.3 3.9-2.5 7.75-7.35-2.65-7.65-2.65-9.45-1.2-7.35-1.2-8.7 0-2.6.65-5.5.65-2.75 1.65-4.8h.1l-1.2 4.75q-.7 3.65-.7 5.55v.2q.05 6.8 4.55 19.25 4.5 12.6 4.5 19.05 0 2.75-1.2 11.7-.25 2.55-.95 4.75l-1.45 3.25q13.5-7.45 36.2-30.35 10.6-11.2 12.4-27.25l1.25-.25m-131.2 41.65q-1.5 3.7-6.4 6.45-2.85 1.6-9.15 4.3h-1.4q.75-1.25 1.6-5.8.8-4.2.8-5.9 0-10.5-5.3-19.1-2.75-4.45-3.65-6.85Q18 114.8 18 109l.3-5.1Q3.4 90.1 0 78.2q1.9-19.9 14-34l4.4 1q-2.15 2.75-3.95 5.75l-.35.55q-7.3 12-10.3 27.2l-.2.9q4.05 6.05 7.8 10.85 11.1 14.15 19.8 17.2l.45 2.05-.05.05-.05.4q-3.6-.55-10.55-6.35-.05 2.45.25 5 .5 4.2 2.1 8.55l3.85 10.05-.3.2.55.9 1.35 7.6q1.4 8.6 1.4 11.4l-.45 3.65q-.5 2.35-1.15 2.85 4-2.25 6.45-3.85l.35.1.25-.5q4.05-2.85 4.9-6.1 1.15 1.3 2.6 2.4m134.4-45.25v.3l-.9-.05-.2.15-.1-.1.3-.05.9-.25m-12.65 10.15h.2l.15 1.2q0 5.9-9.65 16.35-8.8 9.55-10.9 9.55l-.4-.1-.1-.05-.05-.35q1.8-5.65 1.95-8.05v-.4l-.05-2q-.1-1.15-.55-2.05h-.1l-.5 1.6-.3.7q-1.1 2.6-2.95 5.4-3.2 4.85-5.65 4.85-2 0-5.3-5.85-2.7-4.9-4.1-9.35-.5-1.65-1.2-7.25-.75-5.75-.75-8.2l.05-1.35.1-1.65.2-2.35.05-.35.45-2.75q.35-1.85 1.2-2.55l.1-.05.1.35-.35 1.15q-.4.9-.4 1.6l-.25 2.55v.05l-.15 1.25q-.35 2.5-.35 3.65l-.05.4q0 4.45.35 6.9.35 2.6 1.7 7.8.45 1.9 4.1 8.1 3.7 6.4 4.65 6.4 1.55 0 3.35-2.7l2.15-3.55q3.05-3.6 3.05-6.9l.15-.1q.15-.15.45-.15 1.15 0 1.6 3.25l.2 2.3v1l-.05 2.85L146 136l.05.05q16.55-14.35 18.85-25.1M64.25 81.55l-11.75-4.6q-10.75-3.9-16.45-7.85l-2.3-1.75q-3.55-2.95-8.15-7.9l.05-.1q5.6 5.95 12.3 9.75 6.8 3.85 18.5 7.7 5.25 1.7 20.15 7.15 4.25 1.45 13.45 3 10.35 1.75 16.35 3.25l.85.2-.85.55-2.5.2h-.1l-3.75-.1q-8.45-.6-19.3-3.7l-2.2-.65-6.85-2.2-5.35-2.1-2.1-.85" fill="#682506"/><path d="M118.35 128.55q2.2-2.15 4.45-5.25l.25.8q3.3 9.4 3.3 14.5l.35 3.85v.25l-.45-.05q-2.3 0-3.2 1.95-.9 1.9-3.7 1.9-1.45 0-3.4-.95l.7-.25q3.35-1.2 4.35-3.3l1.7-4.1.2-.9q-.25 1-2.35 2.05-2.1 1.1-4.25 1.45 1.45-1.05 2.5-2.7 1.6-2.65 1.6-4.5l-.1-1.3q-.25 1-3.4 3.2l-2.95 1.95q2.8-3.65 4.4-8.6m-86.55-18.4v.05l1.8 3.6q2.05 4.2 2.4 6.4l1 6.25.2 4.9-.3 5.3.2 1.55q1.25 3.05 3.45 5.45-.85 3.25-4.9 6.1l1.25-2.3q.7-1.45.7-3.1l-.2-1.55q.15.85-1 2.6-1.15 1.7-2.35 2.6l-.05-.1q.5-.85 1.2-3.65.8-3.3.8-5.55 0-3.1-.4-5.9l-.9-5v-.3l-.1-1.05v-.4l-.05-.45-.4-.35-.6-2.7q-.95-3.75-3.55-8.75l-.15-.3-4.3-1q-1.5-.75-4.3-3.7-.3-2.55-.25-5 6.95 5.8 10.55 6.35h.25m89.05-16.4q-1 2.05-1.65 4.8-.65 2.9-.65 5.5 0 1.35 1.2 8.7 0 1.8 2.65 9.45-3.85 4.85-7.75 7.35l2.7-5.35q1.15-3 1.15-7 0-2.6-.4-5l-.1-.35-.65-2.65-.05-.1v.1l-.2 1.85-.4.05q.6-7.3-2.8-16.45l6.95-.9" fill="#aa4205"/><path d="m147.1 128.25-.2-2.3q-.45-3.25-1.6-3.25-.3 0-.45.15l-.15.1q0 3.3-3.05 6.9l-2.15 3.55q-1.8 2.7-3.35 2.7-.95 0-4.65-6.4-3.65-6.2-4.1-8.1-1.35-5.2-1.7-7.8-.35-2.45-.35-6.9l.25-.15-.2-.25q0-1.15.35-3.65l.15-1.25h.3l1.7.45 1.2.25h.2l7.55 12.7 4 7.05 8.8-8.85q3.85-3.8 5.65-6.15l-1 6.4q-.65 3.65-2.2 6.65-2 3.85-3.55 6.1l-1.45 2.05m-33.15 8.9 2.95-1.95q3.15-2.2 3.4-3.2l.1 1.3q0 1.85-1.6 4.5-1.05 1.65-2.5 2.7 2.15-.35 4.25-1.45 2.1-1.05 2.35-2.05l-.2.9-1.7 4.1q-1 2.1-4.35 3.3l-.7.25-.8-.45-2.45-1.6-1.95-2.05-.55-.45 3.35-3.3.4-.55M11.4 90.45q-3.75-4.8-7.8-10.85l.2-.9 2 3q2.85 3.35 6.8 4.2-1.25-2.15-1.7-3.65l-.5-2.85-.4-3.95-.3-4.95q0-2.1.65-5.6.6-3.05 1.1-3.9.1 1.3 1.5 3.9 1.85 3.5 4.2 4.25-1.15-2.35-1.85-6-.9-4.55-.9-9.3 0-1.45.15-2.15 3.8 1.5 6.55 5.45 3.2 4.6 3.2 9.9 0 3.3-1.35 7.2-1.45 4.3-3.7 6.35-1.35-1.4-2.35-3-1.25-2-2.15-4.65l-.2-.55-.05.6q0 4.85 2.25 12.3 1.6 5.25 3.15 8.35l-4.05-1.45-4.45-1.75m9.85 18.35q2.8 2.95 4.3 3.7l4.3 1 .15.3q2.6 5 3.55 8.75l.6 2.7.4 4.45-1 5.15q-1.35 5.95-2.85 7.65l.2-1.8q0-2.7-.8-5.75-.9-3.35-2.65-6.45l-.25-1.1-3.85-10.05q-1.6-4.35-2.1-8.55m96.85 3.4q.4 2.4.4 5 0 4-1.15 7l-2.7 5.35q-1.3.75-2.6 1.3 5-6.6 6.05-18.65" fill="#e2822e"/><path d="M14.55 51.7q-.15.7-.15 2.15 0 4.75.9 9.3.7 3.65 1.85 6-2.35-.75-4.2-4.25-1.4-2.6-1.5-3.9-.5.85-1.1 3.9-.65 3.5-.65 5.6l.3 4.95.4 3.95.5 2.85q.45 1.5 1.7 3.65-3.95-.85-6.8-4.2l-2-3q3-15.2 10.3-27.2l.45.2m20.15 76.1.9 5q.4 2.8.4 5.9 0 2.25-.8 5.55-.7 2.8-1.2 3.65v.1h.05q1.2-.9 2.35-2.6 1.15-1.75 1-2.6l.2 1.55q0 1.65-.7 3.1l-1.25 2.3-.6.4q-2.45 1.6-6.45 3.85.65-.5 1.15-2.85l.45-3.65q0-2.8-1.4-11.4l-1.35-7.6q1.75 3.1 2.65 6.45.8 3.05.8 5.75l-.2 1.8q1.5-1.7 2.85-7.65l1-5.15.15-1.9m82.4-16.75.2-1.85h.05l.65 2.65.1.35q-1.05 12.05-6.05 18.65l-1.85.65q6.2-7.35 6.5-18.3l.05-.75.35-1.4" fill="#ffc02e"/><path d="m18.4 45.2 109.85 24.6q5.8 9.2 3.65 15.7-2.2 6.45-9.25 8.05l-1.7.2.1-.4-.2.4-6.95.9-2.7-6.35-1.1.45-3.7 1.45q-6-1.5-16.35-3.25-9.2-1.55-13.45-3-14.9-5.45-20.15-7.15-11.7-3.85-18.5-7.7-6.7-3.8-12.3-9.75h-.15l.1.1q4.6 4.95 8.15 7.9-2.2-.15-2.85 3.65-2.45 8.9-1.6 23l.1.5 1.3 2.7h.1q-.7 4.95.4 10.45-8.7-3.05-19.8-17.2l4.45 1.75 4.05 1.45q-1.55-3.1-3.15-8.35Q14.5 77.85 14.5 73l.25-.05q.9 2.65 2.15 4.65 1 1.6 2.35 3 2.25-2.05 3.7-6.35 1.35-3.9 1.35-7.2 0-5.3-3.2-9.9-2.75-3.95-6.55-5.45l-.1-.75q1.8-3 3.95-5.75m106.3 60.4-.05 1.35q0 2.45.75 8.2.7 5.6 1.2 7.25 1.4 4.45 4.1 9.35 3.3 5.85 5.3 5.85 2.45 0 5.65-4.85 1.85-2.8 2.95-5.4.25 4.1-2.1 10.15-2.3 5.9-5.7 10.3-2.65 3.45-8.05 8.55l-2.8 2.65q.7-2.2.95-4.75 1.2-8.95 1.2-11.7 0-6.45-4.5-19.05-4.5-12.45-4.55-19.25h.05q1.15-.55 3.95-.55l1.65 1.9" fill="#a94713"/><path d="m128.9 92.85 2.95 5.8 1.5 2.85 2.7 5q4.75 8.4 5.75 8.4 2.5 0 5-5.3 2.05-4.3 2.05-5.65l.2-.75.15-.75 8.2 1.4 10.2 1.3 5.5-.5q-1.8 16.05-12.4 27.25-22.7 22.9-36.2 30.35l1.45-3.25 2.8-2.65q5.4-5.1 8.05-8.55 3.4-4.4 5.7-10.3 2.35-6.05 2.1-10.15l.3-.7.5-1.6h.1q.45.9.55 2.05l.05 2v.4q-.15 2.4-1.95 8.05l.05.35.1.05.4.1q2.1 0 10.9-9.55 9.65-10.45 9.65-16.35l-.15-1.2-.1-.3-.1.3q-2.3 10.75-18.85 25.1L146 136l1.05-3.9.05-2.85v-1l1.45-2.05q1.55-2.25 3.55-6.1 1.55-3 2.2-6.65l1-6.4q-1.8 2.35-5.65 6.15l-8.8 8.85-4-7.05-7.55-12.7h-.2l-1.2-.25-1.7-.45-.3-.05.25-2.55q0-.7.4-1.6l.35-1.15-.1-.35h-.05l-.05.05q-.85.7-1.2 2.55l-.45 2.75-.05.35-.2 2.35-.1 1.65-1.65-1.9q-2.8 0-3.95.55l-.05-.2q0-1.9.7-5.55l1.2-4.75 1.7-.2 6.25-.75v.05" fill="#802402"/><path d="m128.25 69.8 25.15 5.6q-1.3-.2-1.3 1.15 0 1.2 6.7 6.5l7.05 5.45q7.05 6.75 11.7 12.3l-.9.25-.4-.05q-4.45-5.35-10.9-8.6-7.5-3.7-15.3-3.5l-4.1.55q-2.85.7-4.65 1.95-1.8 1.2-3.7 3.4-2.4 2.7-3.55 5.6l-5-7.65h-.15v.05l-6.25.75q7.05-1.6 9.25-8.05 2.15-6.5-3.65-15.7m-94.5-2.45 2.3 1.75q5.7 3.95 16.45 7.85l11.75 4.6-10.9-.85-2.8-.25q-3.8-2.8-7.45-4.25l-4.8-2-1.6-.5-3.15-.5-1.6.2q.7-3.1 1.8-6.05m47 20q10.85 3.1 19.3 3.7l-8.5 2.25-2.3-.75q-3.35-.95-5.55-.95l-6.9-.75q-5.3-.85-7.55-2.25l6.3-.45 5.2-.8" fill="#062f73"/><path d="m176.25 101-8.1-.3-7.85-.4-5.35-.55-3.55-.85q-1.8-.85-4.1-2.9l-2.25-2.5-1.6-1.6.65 4.8q0 2.45-1.3 5.25l-1.7 2.8q-1.5-.25-3.65-1.6l-3.15-2.35-.25-.4q1.15-2.9 3.55-5.6 1.9-2.2 3.7-3.4 1.8-1.25 4.65-1.95l4.1-.55q7.8-.2 15.3 3.5 6.45 3.25 10.9 8.6M31.95 73.4l1.6-.2 3.15.5q-.85 1.4-1.4 5.25l-4.05-.65-.25-.05q.35-2.45.95-4.75v-.1m34.4 9 5.35 2.1 6.85 2.2-1.75.25-7 .65h-.35l-.6-.15-.4-.1-8.1-2.4q-3.3-1.2-6.55-3.3l11.9.8.65-.05m-35.8 1.2.4.05 3.8 1.45v.05q-.15 2.6-.15 5.35V93l.1.95-2.3-.65-.35 1.05q-.2.75-.65.75-.25 0-.4-.4l-.05-.3.1-.3q-.7-5.45-.5-10.5m28.95 4.35 9.35.65h.4q2.25 1.4 7.55 2.25l6.9.75q2.2 0 5.55.95l2.3.75q-13.6 3.2-26.3 3.7 0-2.15-1.25-4.45-1.6-2.8-4.5-4.6" fill="#2d6dc5"/><path d="m176.3 101.15-3.5.8-5.7.9-17.2-1.5-.75.15-.2.1-.55-.2-2.3 4.6q-2.4 5.1-4.1 6.8l-6.4-10.05-1.3-1.95 3.15 2.35q2.15 1.35 3.65 1.6l1.7-2.8q1.3-2.8 1.3-5.25l-.65-4.8 1.6 1.6 2.25 2.5q2.3 2.05 4.1 2.9l3.55.85 5.35.55 7.85.4 8.1.3v.05l.05.1M36.7 73.7l1.6.5 4.8 2q3.65 1.45 7.45 4.25l-8.25-.65-3.85-.3-1.95-.3-1.2-.25q.55-3.85 1.4-5.25m-1.95 11.45h.1l9.65 1.15L57 87.65l2.1.25.4.05q2.9 1.8 4.5 4.6 1.25 2.3 1.25 4.45-16 .65-30.55-3.05l-.1-.95v-2.5q0-2.75.15-5.35" fill="#60bfff"/><path d="m153.4 75.4.35.1q3.25.9 13 9.75 14.65 13.3 14.65 16.45 0 .9-3.3 1.85l-2.3.55-1.45.3-1.25.25-5.5.5-10.2-1.3-8.2-1.4-.15.75-.2.75q0 1.35-2.05 5.65-2.5 5.3-5 5.3-1 0-5.75-8.4l-2.7-5-1.5-2.85-2.95-5.8.15-.1 5 7.65-.05.1.3.3 1.3 1.95 6.4 10.05q1.7-1.7 4.1-6.8l2.3-4.6.55.2.2-.1.75-.15 17.2 1.5 5.7-.9 3.5-.8.05-.05.1.1.2-.15.9.05v-.3q-4.65-5.55-11.7-12.3l-7.05-5.45q-6.7-5.3-6.7-6.5 0-1.35 1.3-1.15M33.75 67.35q-1.1 2.95-1.8 6.05v.1q-.6 2.3-.95 4.75v.05h.25l4.05.65 1.2.25 1.95.3 3.85.3 8.25.65 2.8.25 10.9.85 2.1.85-.65.05-11.9-.8-.7-.05-.4-.05-1.2-.1-9.7-.85-6.05-.9-.5-.15-4.25-1.2v-.05h-.15l.15.05q-.35 2.55-.45 5.25-.2 5.05.5 10.5l-.1.3.05.3q.15.4.4.4.45 0 .65-.75l.35-1.05 2.3.65q14.55 3.7 30.55 3.05 12.7-.5 26.3-3.7l8.5-2.25 3.75.1Q88.2 96.75 75 98q-27 2.5-42.4-2.8l-1 .9q-.8.8-.8 1.1h-.1l-1.3-2.7-.1-.5q-.85-14.1 1.6-23 .65-3.8 2.85-3.65m44.8 19.35 2.2.65-5.2.8-6.3.45h-.4l-9.35-.65-.4-.05-2.1-.25-12.5-1.35-9.65-1.15-.1-.05-3.8-1.45.05-.1q1.8.45 3.75 1.2l.2.05 10.35 1 12.4 1.05.4.05 1.15.1 9.2.6h1.35l7-.65 1.75-.25" fill="#020f37"/><path d="M53.8 81.65q3.25 2.1 6.55 3.3l8.1 2.4v.25l-9.2-.6-1.15-.1-.35-.2-2.3-1.35q-1.55-1.15-3.95-3.9l1.2.1.4.05.7.05M31 78.35l4.25 1.2-.2 1.45-.3 3.75Q32.8 84 31 83.55l-.05.1-.4-.05q.1-2.7.45-5.25" fill="#c5d0d1"/><path d="M51.5 81.45q2.4 2.75 3.95 3.9l2.3 1.35-.05.15-12.4-1.05-10.35-1-.2-.05.3-3.75.2-1.45.5.15 6.05.9 9.7.85" fill="#fff"/><path d="m109.55 141.5-1.95 1.3q-29.9 15.6-59.8 6-2.6-1.2-4.65-2.75-1.45-1.1-2.6-2.4-2.2-2.4-3.45-5.45l-.2-1.55.3-5.3-.2-4.9-1-6.25q-.35-2.2-2.4-6.4l-1.8-3.6v-.05l-.15-.45-.45-2.05q-1.1-5.5-.4-10.45 0-.3.8-1.1l1-.9-.3 1.25q-.6 3 .1 5.45.2 6.95 3.1 11.2 3.2 5.7 3.6 18.5-.45 4.3.3 6.3 2.25 11.1 24.8 12.6l8.3.3q11.7-.2 22.25-3.65l4.85-1.85q10.9-2.85 16.1-14.55v-.05l2.65-2.15q-1.6 4.95-4.4 8.6l-.4.55-3.35 3.3q-.7-.45-.7.35l.05.15" fill="#915237"/><path d="M103.8 91.15h.1l2.5-.2.85-.55-.85-.2 3.7-1.45q6.7 16 5.3 25.25-1.6 13.7-9.3 19.1 2.05.4 4.15.05l1.2-.3q-4.2 8.35-16.7 14.3-10.55 3.45-22.25 3.65 17.5-2.2 27.6-16.1 7.85-15.1-1.1-33.6-25.85 3.6-53.4 0-6.95-.3-13.3-4.65l.3-1.25Q48 100.5 75 98q13.2-1.25 28.8-6.85" fill="#d38565"/><path d="m72.5 150.8-8.3-.3q-22.55-1.5-24.8-12.6-.75-2-.3-6.3-.4-12.8-3.6-18.5-2.9-4.25-3.1-11.2-.7-2.45-.1-5.45 6.35 4.35 13.3 4.65 27.55 3.6 53.4 0 8.95 18.5 1.1 33.6-10.1 13.9-27.6 16.1" fill="#ffd7b8"/><path d="M94.75 147.15q12.5-5.95 16.7-14.3l2-.75 2.25-1.35q-5.2 11.7-16.1 14.55l-4.85 1.85" fill="#e6ffc2"/><path d="M137.4 72.55V73l-1.7-.1 1.7-.35M115 89.6h.1-.1" fill="#00f"/><path d="m137.4 72.55-1.7.35 1.7.1q0 6.3-6.8 10.95l-.1.05-3 1.75q-7.45 3.85-12.4 3.85h-.1q-7.2-.05-12.75-8.35-4.3-6.45-4.3-9.6 0-.8.3-.9 1.65 5.7 3.75 9.2Q106.75 88 114 88q5.4 0 11.7-3.45 4.15-2.3 6.15-4.3 1.05-1.1 3-5.4l.85-1.95.9-2.1q.6 0 .8 1.75M123.65 97.6q5.05-1 9-3.75 4.45-3.15 7.4-8.7 4-7.45 4-13.95l.05-.6.1-.05.4-.1q1.05 0 .9 3.1 0 1.35-.95 4.7-1.4 4.9-3.85 8.95-5 8.25-13.05 11.15-4.25 1.5-9.25 1.5H117l-2.05-.1q-4.75-.25-8.55-1.35-2.95-.85-5.3-2.2-2.75-1.6-5.4-4.3l-.2-.25q-2.3-2.4-4.45-5.7L90 84.35q-1.65-2.65-3.6-8.15-2.15-6.15-2.15-9.25 0-.9.35-1.1 2.75 11.15 6.85 18.3 1.7 2.9 3.6 5.15 1.7 2 3.55 3.45 3.4 2.65 8.3 4l4.3.85 5.5.45h1.4l5.55-.45" fill="#4d1a03"/><path d="M130.6 84q.95 0 1.75.85.85.85.85 1.85 0 3.2-5.05 7.6-2.2 1.9-4.5 3.3l-5.55.45h-1.4l.1-.95q0-1.15-1-1.9-.85-.6-1.9-.6-2.9 0-2.9 2.3l.2.7-4.3-.85.5-1.1q.4-.65.4-1.15 0-1.55-3-4.7-3.25-3.4-5.7-3.4-1.85 0-2.9.8-1 .75-1.15 2.1-1.9-2.25-3.6-5.15.5-1.6 1.25-2.35 1.05-1 3.5-1 1.45 0 3.05 1.4l3.05 3.1q4.7 4.5 11.3 4.5l1.4-.2h.1q4.95 0 12.4-3.85l3-1.75h.1" fill="#dd9e53"/><path d="M137.4 73v-.45l3.95-.8.05 1.55q0 5.8-3.2 12.4-2.3 4.6-5.55 8.15-3.95 2.75-9 3.75 2.3-1.4 4.5-3.3 5.05-4.4 5.05-7.6 0-1-.85-1.85-.8-.85-1.75-.85v-.05q6.8-4.65 6.8-10.95m-39.15-2.25q-.3.1-.3.9 0 3.15 4.3 9.6 5.55 8.3 12.75 8.35l-1.4.2q-6.6 0-11.3-4.5l-3.05-3.1q-1.6-1.4-3.05-1.4-2.45 0-3.5 1-.75.75-1.25 2.35-4.1-7.15-6.85-18.3l13.65 4.9" fill="#ba633a"/><path d="M95.05 89.3q.15-1.35 1.15-2.1 1.05-.8 2.9-.8 2.45 0 5.7 3.4 3 3.15 3 4.7 0 .5-.4 1.15l-.5 1.1q-4.9-1.35-8.3-4-1.85-1.45-3.55-3.45m16.15 8.3-.2-.7q0-2.3 2.9-2.3 1.05 0 1.9.6 1 .75 1 1.9l-.1.95-5.5-.45" fill="#f6db74"/><path d="M132.65 93.85q3.25-3.55 5.55-8.15 3.2-6.6 3.2-12.4l-.05-1.55 2.7-.55q0 6.5-4 13.95-2.95 5.55-7.4 8.7" fill="#fff"/><path d="m171.9 77.2 3.1-.2q-5.75-14.5-15.7-18.15-.85.55-3.05 1.35l-4.5 1.35q-5.15 1.4-10.3 2.05l-4.75.4-.85.05-2.75.05q-16.8 0-34.2-2.6-13.45-2.05-27.25-5.65l-3.35-.9q-18.7-5.1-29.8-11.3l-2-1.2q-4.45-2.7-7.5-5.6l-.4-.35-.85-.9Q15.65 33.9 6 41.4q6.6 4.9 14.4 9.1 5.4 2.9 11.4 5.4l.1.05Q46.25 62 63.8 66l4.5 1.1q15.8 3.75 31.15 6.2l.4.1q15.4 2.35 30.35 3.45l4.6.55 2.95-.1q17.35.85 34.15-.1m-17.6-18.05 2.85-.95-5.3-.6-.3-.2q-24.8-18.4-51.8-25.5h-.05l-.1.5.85 1.55.3.45 1 1.55-2.1-1.35-.5-.55Q98 32.75 98 31.6q0-1.45 2.1-3l3.1-2.2q-.65-11.35-3.6-17.6l-.15-.3-1.85-3.1-1.9 1.1q-8.15 5-15.7 16.1l1.65 1.7 1.6 1.4q1.95 1.7 1.95 3.6 0 .7-.9 1.85l-.6.7-.95.85-.3-1.05-.4-.95-2.1-.05h-.7L74 30.6q-31-.1-46 5h-.05l.05.05 1.85 1.3q3.8 2.65 7.7 4.85l2.6 1.4.1.05.35.2q7.7 3.85 17 6.5l10.45 3 11.9 3.45 7.75 1.45 5.55.9 8.2 1q3.35.35 7.9 1.7l24.85 1.25 6.6-.35q5.35-.6 10.25-2.15l3.25-1.05m24.3 21.05q-32.65 4.3-82.05-5-10.15-1.9-20.95-4.4Q22.95 61.25.6 41q7.5-10 27.8-9.6 25.4-5.25 51.35-4.3L76 23Q85.75 9.15 98.6 0q8.05 15.1 7.6 28.6l-2.6.75q26.8 6.75 47.2 25.85 20.5.65 27.8 25" fill="#4d1a03"/><path d="M130.2 76.85q-14.95-1.1-30.35-3.45l.1-.65q1.45-1.65 1.45-4.05 0-4.95-2.5-7.2 17.4 2.6 34.2 2.6l2.75-.05.85-.05 4.75-.4.7 1.05.3.4.4-.45 7.75-.4 3.65.05q2.15.1 3.15.95l2.8 2.1q1.4 1.3 1.6 2.8l-.15.15q-2.8 2.4-10.45 4.6-7.2 2.05-13.45 2.45l-7.55-.45M20.4 50.5Q12.6 46.3 6 41.4q9.65-7.5 21.75-5.8l.85.9-.3.3q-4.6 0-7.1 3.2-2 2.55-2 5.9 0 2.15.15 2.65l1.05 1.95m76.15-21.8-.05.05-6.45 6.05H97l4.6 1.65 6.65 2.25q6.85 2.6 12.75 6.1 7.35 4.4 13.2 9.6l5 5.4 1.6 2.55-6.6.35-24.85-1.25q-4.55-1.35-7.9-1.7l-8.2-1q1.55-4.8 1.55-5.85 0-5.55-1.5-10-1.75-5.1-5.25-7.7 3.45-3.55 4.85-7.45 1.5-4.15 1.5-11.25l-.2-5.55q-1.8.6-3.65 2.55l-3.15 3.7-3.8 4.05q-1.3 1.55-1.95 3.05L80 22.6q7.55-11.1 15.7-16.1 1.45 1.6 2.2 6.6.5 3.5.5 6.8 0 6-1.85 8.8M28 35.6q15-5.1 46-5l5.25.05h.7l2.1.05.4.95-2.45-.2h-.75L74 31.4q-8.9 0-19.7 3.15-9.9 2.9-16.75 7.25-3.9-2.2-7.7-4.85L28 35.65v-.05" fill="#dd9e53"/><path d="M171.9 77.2q-16.8.95-34.15.1 6.25-.4 13.45-2.45 7.65-2.2 10.45-4.6l.15.25v-.4q-.2-1.5-1.6-2.8l-2.8-2.1q-1-.85-3.15-.95l-3.65-.05-7.75.4-.7.05-.7-1.05q5.15-.65 10.3-2.05l4.5-1.35q6.85 3.8 8.9 5.6 4.35 3.9 6.75 11.4m-20.05-19.6 2.45 1.55-3.25 1.05q-4.9 1.55-10.25 2.15l-1.6-2.55-5-5.4q-5.85-5.2-13.2-9.6-5.9-3.5-12.75-6.1l-6.65-2.25L97 34.8h-6.95l6.45-6.05.45.25q-.75.85-.75 2.7 0 1.4 1.85 2.05l1.1.3.5.55 2.1 1.35-1-1.55-.3-.45-.85-1.55.15-.5q27 7.1 51.8 25.5l.25.2h.05M95.7 6.5l1.9-1.1 1.85 3.1.15.3q.05 2.1.9 5.6.9 3.75.9 5.4 0 6.05-2.6 7.8L97 28.9l-.45-.2q1.85-2.8 1.85-8.8 0-3.3-.5-6.8-.75-5-2.2-6.6" fill="#ba633a"/><path d="M99.45 73.3Q84.1 70.85 68.3 67.1q3.1-2.55 3.1-5.3 0-2.6-.95-4.3-.7-1.25-2.15-2.55l3.35.9q13.8 3.6 27.25 5.65 2.5 2.25 2.5 7.2 0 2.4-1.45 4.05l-.5.55M31.8 55.9q-6-2.5-11.4-5.4l-1.05-1.95q-.15-.5-.15-2.65 0-3.35 2-5.9 2.5-3.2 7.1-3.2l.7.05q3.05 2.9 7.5 5.6l2 1.2q-3.75 1.15-5 2.35-1.9 1.85-1.9 6.9 0 2.05.25 2.9l-.05.1m49.85-31.6q.65-1.5 1.95-3.05l3.8-4.05 3.15-3.7q1.85-1.95 3.65-2.55l.2 5.55q0 7.1-1.5 11.25-1.4 3.9-4.85 7.45 3.5 2.6 5.25 7.7 1.5 4.45 1.5 10 0 1.05-1.55 5.85l-5.55-.9-7.75-1.45-11.9-3.45-10.45-3q-9.3-2.65-17-6.5l-.45-.25-2.6-1.4q6.85-4.35 16.75-7.25Q65.1 31.4 74 31.4l5.25.05H80l2.45.2.3 1.05.95-.85.6-.7q.9-1.15.9-1.85 0-1.9-1.95-3.6l-1.6-1.4" fill="#f6db74"/><path d="M68.3 67.1 63.8 66q-17.55-4-31.9-10.05l-.05-.15q-.25-.85-.25-2.9 0-5.05 1.9-6.9 1.25-1.2 5-2.35 11.1 6.2 29.8 11.3 1.45 1.3 2.15 2.55.95 1.7.95 4.3 0 2.75-3.1 5.3" fill="#ffffa6"/><path d="M156.25 60.2q2.2-.8 3.05-1.35Q169.25 62.5 175 77l-3.1.2q-2.4-7.5-6.75-11.4-2.05-1.8-8.9-5.6m-1.95-1.05-2.45-1.55 5.3.6-2.85.95" fill="#fff"/><path d="m65.15 145.05-.05-.05h-.05.05l.1-.05-.05.1" fill="#00f"/><path d="m40.55 112.9-7.25 1q.95-2 4-4.4l-2.5-2q5.25-.85 9.8.15 2 .45 3.85 1.25l.75.35q2.55 1.2 4.85 3.2 1.95 1.6 3.65 3.75l-2-.85-1.55-.55q-5.85-2.05-12.15-1.95l-1.45.05m15.8 19q1.55-.35 3.55-3.9-1.05 4.9-4.2 7.4-5.1 2.7-12.4-2 3.95 1.55 6 1.55l3.3.1q2.4-.65 3.75-3.15m52.25-11.15Q95 109.8 81.1 126.6q.1-3.85 4.7-8.7-3.05 1.3-7.3 5.7 7.6-10.35 16.9-10.7 11.7-.95 13.2 7.85" fill="#020d33"/><path d="m55.7 115.35 1.35 3.75q.65 2.45.8 4.7.15 3-.6 5.65l-.9 2.45q-1.35 2.5-3.75 3.15l-3.3-.1q-1.75-.65-3.55-2.4-3.45-3.4-4.95-9.1-1.55-5.7-.3-10.4l.05-.15 1.45-.05q6.3-.1 12.15 1.95l1.55.55m.25 4.3-.05-.25-.05.15q-.35-.25-.9-.25-1.1 0-1.85 1-.7.95-.7 2.2l.5 3.65q0 1.2-.6 2.05-.65.9-1.8.9-1.35 0-2.65-1.1-1.25-1-1.75-2.4 3.1-.9 3.1-4.95 0-1.7-1.3-3.35-1.5-1.9-3.55-1.9-1 0-2 .65-.75.45-1 1.05v.4q0 2.65.75 5.6l.55 1.65.15.5q1.35 3.7 3.7 6.15l1.55 1.4q2.2 1.55 4.35 1 2.85-.8 3.85-5.05l.15-.5v-.2l.3-3-.1-2.15-.65-3.25m-4.75 7.3q0-.65-.5-1.05l-.95-.4q-.8 0-1.25.55v.45q0 1.4 1.45 1.4 1.25 0 1.25-.95" fill="#062f73"/><path d="m55.85 119.55.1.1.65 3.25q-.8-.7-1.2-.7-.35 0-.7.3-.4.35-.4.9 0 .45.7 1.1.7.6 1.15.6l.55-.05-.3 3-.45-.25q-1.8 0-2.45 1.75-.6 1.75-2 1.75l-1.45-.45-1.15-.45q-.3 0-.8.4t-.5.7l.2.65.25.65-1.55-1.4q-2.35-2.45-3.7-6.15l.3.15 1.05.4 1.95-.2q.5 1.4 1.75 2.4 1.3 1.1 2.65 1.1 1.15 0 1.8-.9.6-.85.6-2.05l-.5-3.65q0-1.25.7-2.2.75-1 1.85-1 .55 0 .9.25" fill="#2ab4e2"/><path d="m56.6 122.9.1 2.15-.55.05q-.45 0-1.15-.6-.7-.65-.7-1.1 0-.55.4-.9.35-.3.7-.3.4 0 1.2.7m-.2 5.15v.2l-.15.5q-1 4.25-3.85 5.05-2.15.55-4.35-1l-.25-.65-.2-.65q0-.3.5-.7.5-.4.8-.4l1.15.45 1.45.45q1.4 0 2-1.75.65-1.75 2.45-1.75l.45.25" fill="#91fff3"/><path d="m42.8 125.25-.15-.5-.55-1.65q-.75-2.95-.75-5.6v-.4q.25-.6 1-1.05 1-.65 2-.65 2.05 0 3.55 1.9 1.3 1.65 1.3 3.35 0 4.05-3.1 4.95l-1.95.2-1.05-.4-.3-.15m8.4 1.7q0 .95-1.25.95-1.45 0-1.45-1.4v-.45q.45-.55 1.25-.55l.95.4q.5.4.5 1.05" fill="#fff"/><path d="m65.2 144.95 3 .65 10.4-.7 3.65-1.25.1.15q0 .65-2.5 1.55-3.05 1.1-6.8 1.1l-5.85-.4q-1-.65-2.05-1l.05-.1" fill="#915237"/></g><use ffdec:characterId="1" height="34.45" width="101.4" xlink:href="#k" id="b"/><use ffdec:characterId="3" height="34.85" width="60.6" xlink:href="#l" id="c"/><use ffdec:characterId="6" height="136.95" width="239.55" xlink:href="#m" id="e"/><use ffdec:characterId="8" height="23.95" width="29.95" xlink:href="#n" id="f"/><use ffdec:characterId="10" height="25.65" width="21.4" xlink:href="#o" id="g"/><use ffdec:characterId="12" height="47.2" width="108.8" xlink:href="#p" id="h"/><use ffdec:characterId="14" height="47.75" width="64.2" xlink:href="#q" id="i"/><use ffdec:characterId="16" height="165.65" width="181.4" xlink:href="#r" id="j"/><path d="M50.7 0q21 0 35.85 5.05Q101.4 10.1 101.4 17.2q0 7.15-14.85 12.2-14.85 5.05-35.85 5.05-21.05 0-35.9-5.05Q0 24.35 0 17.2q0-7.1 14.8-12.15Q29.65 0 50.7 0" fill-opacity=".349" fill-rule="evenodd" id="k"/></defs></svg>