<svg xmlns:ffdec="https://www.free-decompiler.com/flash" xmlns:xlink="http://www.w3.org/1999/xlink" ffdec:objectType="frame" height="90" width="90" xmlns="http://www.w3.org/2000/svg"><use ffdec:characterId="39" height="84" transform="translate(9.15 2.7)" width="79.8" xlink:href="#a"/><defs><g id="a" transform="translate(-9.15 -2.7)"><use ffdec:characterId="2" height="34.45" transform="translate(11.3 61.25) scale(.5413)" width="101.4" xlink:href="#b"/><use ffdec:characterId="3" height="169.8" transform="translate(29.9 7.3) scale(.1346)" width="278.9" xlink:href="#c"/><use ffdec:characterId="5" height="107.8" transform="matrix(.436 0 0 .436 14 25.45)" width="171.95" xlink:href="#d"/><use ffdec:characterId="7" height="22.6" transform="matrix(.436 0 0 .436 18.5 37.95)" width="22.2" xlink:href="#e"/><use ffdec:characterId="9" height="73.75" transform="matrix(.436 0 0 .436 9.15 29.1)" width="46.45" xlink:href="#f"/><use ffdec:characterId="11" height="30.2" transform="matrix(.436 0 0 .436 20.6 41.9)" width="19.45" xlink:href="#g"/><use ffdec:characterId="13" height="28.25" transform="matrix(.436 0 0 .436 27.7 42.25)" width="27.2" xlink:href="#h"/><use ffdec:characterId="15" height="70.8" transform="matrix(.436 0 0 .436 30.65 48.65)" width="48.1" xlink:href="#i"/><use ffdec:characterId="17" height="50.05" transform="matrix(.436 0 0 .436 14.4 49.4)" width="35.95" xlink:href="#j"/><use ffdec:characterId="19" height="21.75" transform="translate(41.5 25) scale(.4359)" width="37.1" xlink:href="#k"/><use ffdec:characterId="21" height="39.9" transform="matrix(.436 0 0 .436 42.4 39.45)" width="30.8" xlink:href="#l"/><use ffdec:characterId="23" height="44.15" transform="matrix(.436 0 0 .436 23.1 30.85)" width="51.85" xlink:href="#m"/><use ffdec:characterId="25" height="75" transform="matrix(.436 0 0 .436 19.85 6.1)" width="56.5" xlink:href="#n"/><use ffdec:characterId="27" height="39.3" transform="matrix(.436 0 0 .436 30.6 24.35)" width="49.9" xlink:href="#o"/><use ffdec:characterId="29" height="38.1" transform="matrix(.436 0 0 .436 43.6 6.75)" width="37.9" xlink:href="#p"/><use ffdec:characterId="31" height="98.45" transform="matrix(.436 0 0 .436 43.4 43.75)" width="62.75" xlink:href="#q"/><use ffdec:characterId="33" height="35.6" transform="matrix(.436 0 0 .436 38.5 5.6)" width="14.7" xlink:href="#r"/></g><g id="c" fill-rule="evenodd"><path d="m40.3 47.85.05.05h-.05v-.05m226.6 45.6.65.8-1.05.8.4-1.6M205.6 10.2l.8.25-.45 1.05-.35-1.3M150 27.05l-.8.25-.2-1.05 1 .8" fill="#223ca7"/><path d="M253.55 27.15v.05q-2.8 5.05-6.45 8.15-4.8 4-10.4 4-2 0-3.45-.8-1.45-.85-2.1-.85-.7 0-1.7.7-.95.7-2.15.7t-2.05-.5q-1.2-.65-1.2-2.05 0-2.3 1.85-3.45 1.85-1.1 1.85-2.15 0-2.05-3.2-3.45-3.2-1.35-3.2-4.5 0-1.7 1.6-3.55l.45-.5q.65-.6 2.95-1.8l1.05-.55q3.25-1.65 4.3-1.65 2.15 0 4.75 1.5 2.95 1.7 2.95 3.65l-.5 2.7q-.5 1.95-.5 3 0 1.35 1 3.35 1.25 2.4 2.8 2.4 2.25 0 6.05-1.55 3.4-1.35 5.3-2.85m-56.45 82.7q3.4-.2 3.25 3.15-.2 3.35-1.9 5.6-1.75 2.3-1.75 3.85 0 1.25.55 2.4.65 1.35 1.6 1.35-.55.75-2.65 1.7-2.1.9-3.35.9-3.65 0-3.65-2.95 0-1.65 2.15-4.45 2.15-2.75 2.15-4.45 0-1.65-1.4-3.5-1.15-1.5-2.4-2.1 1.4-.7 2.7-1l4.7-.5" fill="#1e35c2"/><path d="M76.35 57.05q1.95-2.55 1.85-5.65-.05-1.85-.85-3.5-1-2-3.1-3.75-3.8-3.2-8.9-3.7-4.9-.5-10 .15 39.9-18.05 52.8-5.8l.4.4.7.55q2 1.75 4.1 5.5 2.65 4.8 3.6 9.45.9 4.6 3.15 6.35 2.2 1.7 7.05 2.35 4.85.65 23.7-8.95 18.85-9.65 26.55-9.8 7.2-.1 9.25 3.05l.25.4q3.25 7.2 8.5 11.55 5.35 4.45 16.6 6 11.25 1.55 20.05.3 8.75-1.25 10.3 1.45 1.5 2.65 1.45 4.75-.05 2.1-1.35 4.8-1.35 2.65-1.35 3.9 0 2.3 1.8 3.9 1.7 1.55 4.1 1.55 7.25 0 13.5-3.2 6.25-3.25 10.45-3.25l1.55.2.6 1.25q.35 1-.7 4.25l-1.75 4.75-.1.55q-.5-2.05-1.45-3.3-1.55-1.95-5.15-2-3.6-.1-8.8 2.25-5.25 2.3-10.5 6.05L232.6 97.9q-9.35 5.9-12.9 5.9-1.8 0-3.25-1.35Q214.9 101 214.9 99q0-3.05 1.45-6.95 1.2 1.55 5 1.55 7.1 0 13.7-3.55l9.85-5.75v-.25l-6.2-.55q-1.25-.35-2.05-.9l1.75-2.75q-1.1 1.2-2.65 1.8-.6-.85-.6-2 0-1.6 1.35-4.25 1.3-2.6 1.3-4.1 0-2.3-3-4.1-1.85-1.1-3.55-1.4l-1.35.25-2.2.35-6.25.55q-6.9 0-13.1-2.55-5.05-2.55-5.95-2.55l-3.7.65-6.4.65q-9 0-12.95-5.3l-2.5-3.7q-1.35-1.65-3.3-1.65-5.6 0-18.95 4.7l-5.15 1.7-.7-.2h-.2l-.65.05-1.3 1q-7.6 2.1-12.35 2.1-11.2 0-19.8-7.45l-6.1-5.1q-3.45-2.35-7.3-2.35-3.4 0-14.2 5.05l-.2.05-10.3 5M165.7 15.5q-.2-2.1-1.15-3.2-1.4-1.7-5-1.7l-2.55.2q4.75-4.6 10.1-4.6 2.5 0 3.55.5 1.45.65 1.45 2.45l-.95 2.4q-1 1.95-.35 3l1.25 1.95q.65.95 3.2 1.4 2.55.35 10.3-6.85 7.7-7.2 8.25-7l.5.25q-1.25 1.3-2.35 3.7l-1.45 3.4-2.05 4.35Q186 17.5 182.9 18.6q-3.65 1.45-4.75 1.85l-3.75.65q-3.55 0-5.05-2.8-1.35-2.6-3.65-2.8m-43.75 8.25-.45-1.2-1.4-2.6 1.75.2 5.35 1.2q2.25.8 2.25 3.15 0 2.75-2.9 5.25l-.5.45q-1.6-5.05-4.1-6.45" fill="#3081f7"/><path d="m188.45 15.75-1 2.05q-2.2 4.35-3.55 6.3-1.4 1.95-5.05 5.1-4.15 3.55-8.95 3.55l-6.75-.9q-5.2-1-6.15-1.75 4.5-1.95 6.65-5.2 2.1-3.2 2.1-8.1l-.05-1.3q2.3.2 3.65 2.8 1.5 2.8 5.05 2.8l3.75-.65q1.1-.4 4.75-1.85 3.1-1.1 5.55-2.85m-62.4 14.45q-2.45 2.15-2.45 3.45 0 1.8 1.05 2.85 1.15 1.1 3.15.7-.3.7-1.55 1.15l-1.8.35q-2.1 0-2.75-1.95-.3-.95-.3-3.75l.4-4 .35-3.3-.2-1.95q2.5 1.4 4.1 6.45" fill="#2394fa"/><path d="m216.35 92.05.45-1.2q1.9-4.65 1.9-5.35 0-2.15-2.25-3l-2.5-.5q-2.05-1.8-5.45-1.3l-8.25-.15-9 .05q-4.25 0-8.45 1.25-4.4 1.45-8.3 3.75l-.45.3-1.45-.15q4.05-5.35 9.1-8.2 5.1-2.95 14.55-4.85h2.15q.05 4.7.3 5.35.7 2.05 3.95 2.05 1.65 0 11.75-4.85L225.15 70h-.9l-.6.2-7.35 2-8.75 2.1-2.9-.2q-.05-5.3-2.55-7.35-2.25-1.8-7.65-1.8l-5.6.4-8.75.85-4.05.2-3.45.7-3.45 1.55-3.35.6q-2.55 0-5.55-1.3-3.05-1.35-5.45-1.35-5.8 0-14.6 2.55l-7.8 2.55q-.6 0-6.15-2.4-5.5-2.45-10.5-2.45-2.25 0-8.1 1.25-5.25 1.1-7.55 1.9l-.05-.25q.45-2.25 2.25-4.05 1.3-1.25 3.8-2.7h-1.45q-6.1.65-15.7 4.5l-8.9 3.7q-2.3 0-3.85-1.2-1.65-1.3-1.65-3.5l.05-.4q3.45-1.55 6.8-4.6 5.45-5.05 5.45-9.4V52q10.8-5.05 14.2-5.05 3.85 0 7.3 2.35l6.1 5.1q8.6 7.45 19.8 7.45 4.75 0 12.35-2.1l.1.2-.25.2-1.25 1.55-.9 1.3-.05.05-.05.05h.3l3.55-1.15 3.85-1.35-1.45-1.2-1-.5 5.15-1.7q13.35-4.7 18.95-4.7 1.95 0 3.3 1.65l2.5 3.7q3.95 5.3 12.95 5.3l6.4-.65 3.7-.65q.9 0 5.95 2.55 6.2 2.55 13.1 2.55l6.25-.55 2.2-.35 1.35-.25q1.7.3 3.55 1.4 3 1.8 3 4.1 0 1.5-1.3 4.1-1.35 2.65-1.35 4.25 0 1.15.6 2-1.6.6-3.6.6l-2.1-.15q-.4-.35-.35-2l-1.65 1.6q-1.2 1.55-1.2 2.95 0 1.15 1 2.4 1.1 1.45 2.65 1.45 1.65 0 4.75-4.05l1.4-1.85q.8.55 2.05.9l6.2.55v.25l-9.85 5.75q-6.6 3.55-13.7 3.55-3.8 0-5-1.55" fill="#60c1fc"/><path d="M19.6 106.6q4.1-8.85 16-15.45 5.6-3.1 11.85-5.1 5.15-1.6 7.6-1.6.8 0 2.15.55l2 .5q1.6 0 3.65-2t5.15-2q3.3 0 4.75 1.1l2 1.45v.65q0 2.45.75 3.45.85 1.1 2.95 1.1 3.15 0 17.8-7.75 14.6-7.8 20.75-7.8 1 0 1.85.8.8.75.8 1.5l-.5 2.8q0 1.4 1.85 1.4l9.3-2.45q8.8-2.45 11.2-2.45 2.15 0 6 1.05 3.6 1 6.15.85-1.85 1.55-4.9 7-3 5.3-4.2 9.05l-2.85 7.9q-2.45 6.7-2.45 7.65l.5 3.95q0 2.5-3.2 4.65l-5.9 3.15q-3.05 1.6-5.15 5.3l-4.25 7.85q-3.8 5.95-8.1 7.1l-6.6.15q-5.7 0-10.65 1.2-2.2.55-3.85 1.3-18.8-12.75-38.6-19.85-6.5-2.35-14.9-6.75L21 107.4l-1.4-.8" fill="#c1eafe"/><path d="M8.7 78.65Q14.85 71 23.1 65.7q5.5-3.6 10.35-6.05 8.25-2.05 17.3-2.05l3.45.2 2.65.5q1.1.6 1.2 2.15.15 2.1.35 2.5 1.25 2.6 3.5 3.65l.8.35-2.75.25-7.75.45-6.9-.2q-3.75.1-8.85 1.55-13.8 3.3-18.5 4.8-5.15 1.7-9.25 4.85" fill="#6ed4fd"/><path d="M33.45 59.65q7.95-4 14.1-4.95 9.8-1.5 12.8-.35 2.95 1.15 2.95 3.1 0 1.35-1 2.55l-.3.35q1.3.95 2.7 1.2l3.45.1q3.4 0 6.8-3.1l1.25-1.3.15-.2 10.3-5 .2.05q0 4.35-5.45 9.4-3.35 3.05-6.8 4.6-3.55 1.5-7.2 1.5l-4.7-.65-.8-.35q-2.25-1.05-3.5-3.65-.2-.4-.35-2.5-.1-1.55-1.2-2.15l-2.65-.5-3.45-.2q-9.05 0-17.3 2.05" fill="#5babf9"/><path d="M2.6 87.65q2.75-4.85 6.1-9 4.1-3.15 9.25-4.85 4.7-1.5 18.5-4.8 5.1-1.45 8.85-1.55l6.9.2 7.75-.45 2.75-.25 4.7.65q3.65 0 7.2-1.5l-.05.4q0 2.2 1.65 3.5 1.55 1.2 3.85 1.2l8.9-3.7q9.6-3.85 15.7-4.5h1.45q-2.5 1.45-3.8 2.7-1.8 1.8-2.25 4.05V70h.05q2.3-.8 7.55-1.9 5.85-1.25 8.1-1.25 5 0 10.5 2.45 5.55 2.4 6.15 2.4l7.8-2.55q8.8-2.55 14.6-2.55 2.4 0 5.45 1.35 3 1.3 5.55 1.3l3.35-.6 3.45-1.55 3.45-.7 4.05-.2 8.75-.85 5.6-.4q5.4 0 7.65 1.8 2.5 2.05 2.55 7.35l2.9.2 8.75-2.1 7.35-2 .6-.2h.9l-10.75 5.25q-10.1 4.85-11.75 4.85-3.25 0-3.95-2.05-.25-.65-.3-5.35h-2.15q-9.45 1.9-14.55 4.85-5.05 2.85-9.1 8.2h-.15l-4.9-.15q-6.45 0-9.65.95-5.3 1.55-5.35 4.5-.1 2.95 3.85 5.85 1.95 1.45 3 3.3l-3.7 5.05q-1.7 2.5-2.25 5.35l-1.55.45-5.95 1.55q-2.7.8-2.7 1.9 0 .95 1.7 3.85 1.65 2.9 1.65 5.45 0 3.85-2.85 7.45-1.75 2.25-6.2 6l-5.3 4.8-.9 1q-2 2.4-2.55 4.9-2.4-1.1-4.95-1.8-6.5-1.65-13.4-1.7-6.45-.05-12.2 3.35l-.15-.1-6.05-4.25q1.65-.75 3.85-1.3 4.95-1.2 10.65-1.2l6.6-.15q4.3-1.15 8.1-7.1l4.25-7.85q2.1-3.7 5.15-5.3l5.9-3.15q3.2-2.15 3.2-4.65l-.5-3.95q0-.95 2.45-7.65l2.85-7.9q1.2-3.75 4.2-9.05 3.05-5.45 4.9-7-2.55.15-6.15-.85-3.85-1.05-6-1.05-2.4 0-11.2 2.45L121 80.2q-1.85 0-1.85-1.4l.5-2.8q0-.75-.8-1.5-.85-.8-1.85-.8-6.15 0-20.75 7.8-14.65 7.75-17.8 7.75-2.1 0-2.95-1.1-.75-1-.75-3.45v-.65l-2-1.45Q71.3 81.5 68 81.5q-3.1 0-5.15 2-2.05 2-3.65 2l-2-.5q-1.35-.55-2.15-.55-2.45 0-7.6 1.6-6.25 2-11.85 5.1-11.9 6.6-16 15.45-6.05-3.65-12-11.6l-5-7.35m91-9.05h1.45q3.65-1.4 6.55-3.65 2.6-2 3.75-4.05-4.1 1.55-6.3 2.55-4.2 2.05-5.45 4.45v.7m30.7-4.6-.05.05v.05q.05 1.2 1.8 1.2 1.9 0 4.35-1 3-1.2 4.6-1.5v-.1l-1.35-.5-5.25.95-4.1.85m21.3 31.05h1.9l3.75-3.4q1.15-1.25 2.15-3.85l-4.35 2.5q-3.05 1.7-3.45 3.65v1.1" fill="#88dffe"/><path d="m149.45 58.9 1 .5 1.45 1.2-3.85 1.35-3.55 1.15-.25-.05.05-.05.9-1.3 1.25-1.55.25-.2.55-.4 2.2-.65m87.2 23.7-1.4 1.85q-3.1 4.05-4.75 4.05-1.55 0-2.65-1.45-1-1.25-1-2.4 0-1.4 1.2-2.95l1.65-1.6q-.05 1.65.35 2l2.1.15q2 0 3.6-.6 1.55-.6 2.65-1.8l-1.75 2.75m-143.05-4v-.7q1.25-2.4 5.45-4.45 2.2-1 6.3-2.55-1.15 2.05-3.75 4.05-2.9 2.25-6.55 3.65H93.6m30.65-4.5.05-.1 4.1-.85 5.25-.95 1.35.5v.1q-1.6.3-4.6 1.5-2.45 1-4.35 1-1.75 0-1.8-1.2m21.35 30.95v-1.1q.4-1.95 3.45-3.65l4.35-2.5q-1 2.6-2.15 3.85l-3.75 3.4h-1.9" fill="#c5edfe"/><path d="m213.95 82-2.7-.15-7.8.85q-3.65.7-6.5 1.65l-1.15.2q-2.6.55-7.45 2.45-6.15 2.4-17.4 12.75-11.3 10.3-11.25 14.45.05 4.2 2.65 4.6 2.55.35 6.45-.05 3.15 0 5.55 1.2 2.65 1.35 2.65 3.5 0 .95-1.95 4.3l-1.2 2-.4.6-1.6 2.05q-2.9 3.75-4.65 6.4-4.45 6.85-4.45 10.5 0 2.25 1.45 2.75l3.15.8q1.75.3 4.7-1.1l2.3-1.1q-2.65 5.15-6.85 9.15-5.2 4.8-12.35 4.15-4.2-.4-7.7-2.7-6.1-3.85-11.5-8.65-3.3-2.9-7.15-4.65.55-2.5 2.55-4.9l.9-1 1.35.05q3.4.15 5.45 2.75l3.2 4.45 5.15 6.75 1.35 1q5.4 2.3 11.15.65l.45-.7-.05-.25q-.9-3.5-.55-7.15.35-3.55 1.8-6.9 1.75-4.05 3.9-7.6 2.5-4.3.2-8.35l-.3-.15q-4.85-1.1-8.5-4.3-3.8-3.3-3.75-8.6 0-1.6.35-3.1 7.1-2.45 7-6.45-.1-2.2-1.05-3.95l2-2.65q3-3.8 6.6-7.15 2.75-2.55 6.05-4.5l.45-.3q3.9-2.3 8.3-3.75 4.2-1.25 8.45-1.25l9-.05 8.25.15q3.4-.5 5.45 1.3" fill="#1e71f6"/><path d="m172.6 85.75 1.45.15q-3.3 1.95-6.05 4.5-3.6 3.35-6.6 7.15l-2 2.65q-1.05-1.85-3-3.3-3.95-2.9-3.85-5.85.05-2.95 5.35-4.5 3.2-.95 9.65-.95l4.9.15h.15" fill="#4bb6fc"/><path d="M153.45 110.6q-.35 1.5-.35 3.1-.05 5.3 3.75 8.6 3.65 3.2 8.5 4.3l.3.15q2.3 4.05-.2 8.35-2.15 3.55-3.9 7.6-1.45 3.35-1.8 6.9-.35 3.65.55 7.15l.05.25-.45.7q-5.75 1.65-11.15-.65l-1.35-1-5.15-6.75-3.2-4.45q-2.05-2.6-5.45-2.75l-1.35-.05 5.3-4.8q4.45-3.75 6.2-6 2.85-3.6 2.85-7.45 0-2.55-1.65-5.45-1.7-2.9-1.7-3.85 0-1.1 2.7-1.9l5.95-1.55 1.55-.45m2.2 14q-1.1 0-1.95.45l-1.9 1.25 1.7 1.7q2.2 2.6 2.2 4.25 0 1.35-1.25 4.4-1.25 3.05-1.25 4.35 0 1.35 1.4 2.25 1.1.7 1.95.7l.45-.05q-.9-2.8 2.2-6.65 3.5-4.25 3.5-6.45 0-3.55-1.95-5-1.65-1.2-5.1-1.2" fill="#5cd4ff"/><path d="M159.4 100.2q.95 1.75 1.05 3.95.1 4-7 6.45.55-2.85 2.25-5.35l3.7-5.05" fill="#68b4fa"/><path d="M155.65 124.6q3.45 0 5.1 1.2 1.95 1.45 1.95 5 0 2.2-3.5 6.45-3.1 3.85-2.2 6.65l-.45.05q-.85 0-1.95-.7-1.4-.9-1.4-2.25 0-1.3 1.25-4.35t1.25-4.4q0-1.65-2.2-4.25l-1.7-1.7 1.9-1.25q.85-.45 1.95-.45" fill="#84e1ff"/><path d="M256.4 12.25q1.1 3.05 1.1 6.1 0 9.75-4.65 16.35-5.4 7.6-15.05 7.6-4.5 0-6.7-1.95l-1.85 1.15q-1.15.55-2.75.55-3.1 0-4.65-2.15-1.25-1.85-1.25-4.9 0-1.5.55-3.25l.95-2.65-.2-.1-.05-.15q-2.05-.5-3.2-1.5-1.15-1.05-1.4-4.8-.25-3.8 3.95-6.9 4.2-3.1 10.6-3.65 6.35-.55 8.75 1.45 2.4 1.95 2.7 4.9.3 2.95-.1 5.15l-.3 1.3-.15.35-.15 1 .05.8q.25 1.65 2.45 1.65 3.8 0 6.3-4.35 2.2-3.85 2.2-8.55l-.25-8.5q1.9 1.95 3.1 5.05m-2.85 14.95.25-.2q-.1.05-.25.15-1.9 1.5-5.3 2.85-3.8 1.55-6.05 1.55-1.55 0-2.8-2.4-1-2-1-3.35 0-1.05.5-3l.5-2.7q0-1.95-2.95-3.65-2.6-1.5-4.75-1.5-1.05 0-4.3 1.65l-1.05.55q-2.3 1.2-2.95 1.8l-.45.5q-1.6 1.85-1.6 3.55 0 3.15 3.2 4.5 3.2 1.4 3.2 3.45 0 1.05-1.85 2.15-1.85 1.15-1.85 3.45 0 1.4 1.2 2.05.85.5 2.05.5 1.2 0 2.15-.7 1-.7 1.7-.7.65 0 2.1.85 1.45.8 3.45.8 5.6 0 10.4-4 3.65-3.1 6.45-8.15M40.3 47.85q22.35-18.9 51.95-22.3l.25.1q23.2-.45 28.5 24.5l.15.75q.6 1.95 2.9 2.95 2.1.9 5.2.9 5.2 0 11.65-3 3.25-1.5 11.9-6.6 12.25-7.2 19.9-8.7l4.55-.4q8.1.45 11 3.1 2.85 2.6 5.7 7.7 2.8 5.05 6.7 7.85 3.9 2.75 10.75 3.35 3.35.3 10.5.1 7.1-.25 14.7.15 7.6.35 9.9 4.5 2.3 4.1 1.1 7.9l-.5 1.45-.45 1.3v.15l-.35.95.3.05q0 1.75.8 2.7.8.9 10.1-2.25 9.25-3.2 12.3-4 3-.8 6.05 1.2 3.05 1.95 3.05 6.3-.05 4.35-5.7 11.3-3.8 2.85-5.65 4.4l-.65-.8.6-3.65-.2-2.65q-.45-1.55-1.8-1.55-4.8 0-11.1 3.45-3.45 1.9-11.45 7.55-7.6 5.4-11.85 7.55-6.7 3.45-12.2 3.45-3.8 0-6.2-3.15-2.25-2.95-2.25-7.2 0-3.1 1.4-6.05l2.4-4.5v-.9l-6.85.2-5 .6-2.6.6q-4.85.7-10.9 4.25Q181 96 176 99.95t-8.95 8.8q-4 4.85-3.75 5.8.2.95 3.2 1.35 1.8.25 6.9 0 5.8.5 7.45 5.9 1.6 5.4-6.15 13.4-7.8 8-7.8 10.7-.05 2.65 2.25 2.65 2.2 0 7.95-3.2 2.85-1.55 6.2-4.7.1 4.45-4.05 10.85-4.35 6.6-8.55 11.8-4.2 5.25-12.35 6.35-8.25 1.1-14.4-5.95-6.15-7.1-14.05-10.3-7.85-3.25-16.2-4.3-6.65-.8-12.5.9l-2.95-2.2q5.75-3.4 12.2-3.35 6.9.05 13.4 1.7 2.55.7 4.95 1.8 3.85 1.75 7.15 4.65 5.4 4.8 11.5 8.65 3.5 2.3 7.7 2.7 7.15.65 12.35-4.15 4.2-4 6.85-9.15l-2.3 1.1q-2.95 1.4-4.7 1.1l-3.15-.8q-1.45-.5-1.45-2.75 0-3.65 4.45-10.5 1.75-2.65 4.65-6.4l1.6-2.05.4-.6 1.2-2q1.95-3.35 1.95-4.3 0-2.15-2.65-3.5-2.4-1.2-5.55-1.2-3.9.4-6.45.05-2.6-.4-2.65-4.6-.05-4.15 11.25-14.45Q182.2 89.4 188.35 87q4.85-1.9 7.45-2.45l1.15-.2q2.85-.95 6.5-1.65l7.8-.85 2.7.15 2.5.5q2.25.85 2.25 3 0 .7-1.9 5.35l-.45 1.2q-1.45 3.9-1.45 6.95 0 2 1.55 3.45 1.45 1.35 3.25 1.35 3.55 0 12.9-5.9l12.05-8.05q5.25-3.75 10.5-6.05 5.2-2.35 8.8-2.25 3.6.05 5.15 2 .95 1.25 1.45 3.3l.1-.55 1.75-4.75q1.05-3.25.7-4.25l-.6-1.25-1.55-.2q-4.2 0-10.45 3.25-6.25 3.2-13.5 3.2-2.4 0-4.1-1.55-1.8-1.6-1.8-3.9 0-1.25 1.35-3.9 1.3-2.7 1.35-4.8.05-2.1-1.45-4.75-1.55-2.7-10.3-1.45-8.8 1.25-20.05-.3t-16.6-6q-5.25-4.35-8.5-11.55l-.25-.4q-2.05-3.15-9.25-3.05-7.7.15-26.55 9.8-18.85 9.6-23.7 8.95-4.85-.65-7.05-2.35-2.25-1.75-3.15-6.35-.95-4.65-3.6-9.45-2.1-3.75-4.1-5.5l-.7-.55-.4-.4q-12.9-12.25-52.8 5.8 5.1-.65 10-.15 5.1.5 8.9 3.7 2.1 1.75 3.1 3.75.8 1.65.85 3.5.1 3.1-1.85 5.65l-.3.1.15.1-1.25 1.3q-3.4 3.1-6.8 3.1l-3.45-.1q-1.4-.25-2.7-1.2l.3-.35q1-1.2 1-2.55 0-1.95-2.95-3.1-3-1.15-12.8.35-6.15.95-14.1 4.95Q28.6 62.1 23.1 65.7 14.85 71 8.7 78.65q-3.35 4.15-6.1 9L0 83.9Q7.4 72 20.8 62.75q9.95-6.9 18.8-10.1 7.65-2.8 14.45-2.85 14.3-.1 13.35 8.15l3.5-.9q3.5-1.7 3.5-4.35 0-2.8-1.4-4.8-3.4-4.65-14.6-4.65-4.85 0-11.05 1.8-4.25 1.25-7 2.85l-.05-.05m166.1-37.4-.8-.25q-.35-1.7-1.05-2.75L203.05 6l-2.85-.4q-2.1-.05-4.2 3.9-2.1 3.9-2.8 7.2-.75 3.3-3.25 7.1-2.45 3.75-5.85 7-3.9 3.7-9.8 4.95l-1.65.3-8.05.4q-4.65 0-9.15-2.25-5.25-2.6-6.25-6.9l.8-.25q.85.4 2.45.4 4.1 0 6.75-3.35 2.65-3.35 2.45-6.45-.2-3.1-2.9-3.35-2.75-.3-5.65 1.8-2.6 1.9-4.55 4.7 1.1-6.5 7.6-12.05 6.6-5.65 11.85-5.8 5.2-.2 6.3.55 1.45 1 1.45 3.9 0 1-.6 3l-.6 2.25q0 1.1.95 1.1 1.4 0 3.7-2.25l6.65-7.05q5.2-5.75 14.85-4.1 9 1.55 5.7 10.1m-17.95 5.3 2.05-4.35 1.45-3.4q1.1-2.4 2.35-3.7l-.5-.25q-.55-.2-8.25 7-7.75 7.2-10.3 6.85-2.55-.45-3.2-1.4l-1.25-1.95q-.65-1.05.35-3l.95-2.4q0-1.8-1.45-2.45-1.05-.5-3.55-.5-5.35 0-10.1 4.6l2.55-.2q3.6 0 5 1.7.95 1.1 1.15 3.2l.05 1.3q0 4.9-2.1 8.1-2.15 3.25-6.65 5.2.95.75 6.15 1.75l6.75.9q4.8 0 8.95-3.55 3.65-3.15 5.05-5.1 1.35-1.95 3.55-6.3l1-2.05m14.3 102.55q-2.15 2.05-2.15 4.15 0 1.3.4 1.6l1.85.25q1.5 0 2.6-.6l.1.25q-3.3 4.4-6.35 6.65t-6.35 2.05q-3.35-.2-5.35-1.5-2.05-1.3-2.15-4.9-.15-3.6 1.95-4.8 2.1-1.25 2.1-4.2 0-2.4-1.9-3.7-1.6-1.1-4.1-1.1l-2.1.15-.25-.2q2.35-2.7 6.45-4.25 4.1-1.5 8.75-1.5 3.75 0 6 1.7 2.2 1.65 2.4 4.8.2 3.1-1.9 5.15m-5.65-8.45-4.7.5q-1.3.3-2.7 1 1.25.6 2.4 2.1 1.4 1.85 1.4 3.5 0 1.7-2.15 4.45-2.15 2.8-2.15 4.45 0 2.95 3.65 2.95 1.25 0 3.35-.9 2.1-.95 2.65-1.7-.95 0-1.6-1.35-.55-1.15-.55-2.4 0-1.55 1.75-3.85 1.7-2.25 1.9-5.6.15-3.35-3.25-3.15M126.05 30.2l.5-.45q2.9-2.5 2.9-5.25 0-2.35-2.25-3.15l-5.35-1.2-1.75-.2 1.4 2.6.45 1.2.2 1.95-.35 3.3-.4 4q0 2.8.3 3.75.65 1.95 2.75 1.95l1.8-.35q1.25-.45 1.55-1.15-2 .4-3.15-.7-1.05-1.05-1.05-2.85 0-1.3 2.45-3.45m7.05-6.4q.3 3.3-2.2 5.3t-2.5 3.35q0 .85.15 1.15.15.3.6.3.35 0 .7-.35.4-.4.35-1h.15v4.95q-.65 2.8-1.45 3.85-1.05 1.3-4 1.4-2.95.1-5.3-3.2-2.35-3.35-2.25-5.65.05-2.35.9-3.3.85-1 .6-4.35-.3-3.35-2.75-5.8l-1.7-1.6-.7-.55 5.75-1.1 5.55.25q3.5.5 5.65 1.75 2.1 1.25 2.45 4.6" fill="#091895"/></g><g id="u"><path d="M146 90.55q3.95-10.45 2.95-18.7v-.3q-.05-.65.25-1.25.35-.75 2.4-.9 2-.2 7.05 1.5 5 1.7 7.8 5.15 2.7 3.4 3.2 9.9l.45-2.7q.05-3.95-.9-6.2-.9-2.1-2.3-3.85l-.25-.35q-3.15-4.65-6.6-8.7-3.75-4.4-8-8.4l-4.45-3.8q-4.5-3.6-9.4-6.75-2.7-1.7-5.5-3.3l-5.9-3.55h-.05l-15.05-6.8q-6.45-3-7.7-4l1.2.55 18.5 7.85q-.7-4.25-3.3-6.35l-.4-.3q-2.85-2.05-4.25-2.65l-.15-.05-9.25-2.7-2.6-.7q-5.3-1.4-8.25-4.8-2.75-3.15-3.05-7.7l2.8 3.7q4.25 6.55 8.55 6.85 19.7 3 21.6 14.3 21.85 10.85 37.5 28.7 4.85 6.55 6.95 10.35 2 3.75 2.1 7.05.1 3.25-1.4 6.8-1.55 3.55-7.45 4.5 1.95-3.35 1.95-6.5.3-14.15-13.25-15.1h-.1q-.6 0-.75.65l-.05.75-.05.6q.3 3.8-.15 7.55l-.05.3-.75 4.05-.5 2q-1.85 6-5.7 11.9 2.15-17-17.5-39.3-12.4-14.05-18.3-17.4l-.3-.15-.3-.15Q97.75 37.7 93 33.8L82.75 22.75 71.8 11.05Q68.85 8.6 67.4 6.2 65.5 3.1 66.05 0l2.55.05.4.55q.6 2.95 3.15 5.85l.2.25 4.05 4.55q3.9 4.4 7.9 11.05l1.3 2.3 1 .95L93 32.4q3.15 2.75 9.1 5.9l.35.2 4.85 2.35q8.45 4.15 19.8 18 15.2 15.2 18 33.9l.9-2.2m22.7-2.6.2-.35q.1-9.8-7-14.6 6.2 7.1 4.65 17.6l2.15-2.65" fill="#441118" fill-rule="evenodd"/><path d="M138.2 45.2q4.9 3.15 9.4 6.75l4.45 3.8q4.25 4 8 8.4 3.45 4.05 6.6 8.7l.25.35q1.4 1.75 2.3 3.85.95 2.25.9 6.2l-.45 2.7q-.5-6.5-3.2-9.9-2.8-3.45-7.8-5.15-5.05-1.7-7.05-1.5-2.05.15-2.4.9-.3.6-.25 1.25v.3q1 8.25-2.95 18.7 1.8-18.2-7.9-34.1l17.3 8.3q-2.3-8.2-17.2-19.55" fill="#691664" fill-rule="evenodd"/><path d="m168.7 87.95-2.15 2.65q1.55-10.5-4.65-17.6 7.1 4.8 7 14.6l-.2.35" fill="#8f329d" fill-rule="evenodd"/><path d="m146 90.55-.9 2.2q-2.8-18.7-18-33.9-11.35-13.85-19.8-18l-4.85-2.35-.35-.2q-5.25-3.9-9.1-9.2l-2.3-3.55-1.75-3.3 17.4 1.65 9.25 2.7.15.05q1.4.6 4.25 2.65l.4.3q-7.75 1.4-15.2-1.5l-1.2-.55q1.25 1 7.7 4l15.05 6.8h.05l5.9 3.55q2.8 1.6 5.5 3.3 14.9 11.35 17.2 19.55l-17.3-8.3q9.7 15.9 7.9 34.1" fill="#b32f6b" fill-rule="evenodd"/><path d="M120.4 29.6q2.6 2.1 3.3 6.35l-18.5-7.85q7.45 2.9 15.2 1.5" fill="#78175e" fill-rule="evenodd"/><path d="M102.1 38.3q-5.95-3.15-9.1-5.9l-6.4-6.85-1-.95-1.3-2.3q-4-6.65-7.9-11.05L72.35 6.7l-.2-.25Q69.6 3.55 69 .6l-.4-.55h.3l5.6.5Q79 1.7 85 4.8q4.1 2.1 7.45 5.9.3 4.55 3.05 7.7 2.95 3.4 8.25 4.8l2.6.7-17.4-1.65 1.75 3.3L93 29.1q3.85 5.3 9.1 9.2M69 .6l-.1-.55.1.55" fill="#9b1e6a" fill-rule="evenodd"/><path d="M82.75 22.75 93 33.8q4.75 3.9 14.3 8.35l.3.15.3.15q5.9 3.35 18.3 17.4 19.65 22.3 17.5 39.3 3.85-5.9 5.7-11.9-1.7 10.85-6.1 17.35-2.05-3-6.25-5.05-3.6-1.75-8.35-3l-1.9-.45q-7.9-3.85-11.3-6.15-2.4-1.55-4.45-3.85-1.35-1.5-2.05-2.85-.7-1.35-.7-2.5l.35-2.85-.1-2.7q-.4-1.5-5.1-5.85l.05-.05 1.35-2.1q1.05-1.3 2.85-1.75l-1.75-2.1q-1.25-1.85-.75-4 .4-1.65 1.45-3l-1-1.3q-1.5-2.35-.85-5.05l.65-2.5q.75-2.55 1.85-5-3.6 1.85-6.65 4.2-4.65 3.55-7.75 8.6-2.95 4.7-4.1 10.25-1 4.95-2.4 9.85-12.5-9.8-14.8-12.75-2.85-3.7-4.5-6.6-2.2-3.9-2.2-6.35l.2-1.55q.5-2.3 2.2-6.5l3.4-8.2q2-5.3 7.3-8.5 2.25-1.35 4.75-2.2" fill="url(#s)" fill-rule="evenodd"/><path d="M86.4 75.4q1.4-4.9 2.4-9.85Q89.95 60 92.9 55.3q3.1-5.05 7.75-8.6 3.05-2.35 6.65-4.2-1.1 2.45-1.85 5l-.65 2.5q-.65 2.7.85 5.05l1 1.3q-1.05 1.35-1.45 3-.5 2.15.75 4l1.75 2.1q-1.8.45-2.85 1.75l-1.35 2.1-.05.05q4.7 4.35 5.1 5.85l.1 2.7-.35 2.85q0 1.15.7 2.5t2.05 2.85q2.05 2.3 4.45 3.85 3.4 2.3 11.3 6.15l-1.25-.3q-5.85-1.25-10.2-3.1l-12-17.35-2.05-.55-5.05-.35-4.9.65-3.65.85-.4.15-.9-.7" fill="#450e52" fill-rule="evenodd"/><path d="M62.05 5.7q-2.9 2.05-6.4 7-5 6.95-5 11 0 .45.35 1.55l.3 1.35-1.3 4.45q0 .45 5.8 3.55 6.85 3.7 9.85 6.25-3.5 1.55-4.25 2l3.7 5.3-.2 1.55q0 2.45 2.2 6.35h-3.25l-4.7-1.35h-.65q1 .65 1.8 2.55.85 2.05 1.75 2.85l2.9 2.35 2.5 2.1q-.5.5-.75 1.6l-.6 2v2l2.25.25v.75l-.65 1.6-.7 1.4q0 .6 1.6 1.65 1.8 1.2 2 1.55l.85 2.1 1.15 2.35 1.15-.5 1.1-.6.95 2.2q.55 1.5.4 2.5.35-.45 2.2-1.15l-.2 2.45q-.25 1.7-.25 4.05 0 .9.35 3.8-11.6-5.55-19.75-15l-.9-1.05-6.25-4.2-.1-.2q-5.1-11.65-7.55-19.05-4.5-13.9-4.5-29.8 0-6.95 4.2-13.2 2.6-3.85 6.2-6.2 6.45-1 12.4-.15m-34.2 63.65v-9q0-1.1 3.15-6.55 2.6-4.6 4.3-6.25l-.8 4.7-.45 3.7-.55 2.2-.5 2.35q0 .85 2.2 5.1l1.5 3.2-3.2-.6q-2 0-5.65 1.15M87.3 76.1l.4-.15 3.65-.85 4.9-.65 5.05.35 2.05.55 12 17.35-1.4-.6q-4.8-2.3-6.75-3.7-2-1.4-3.45-1.85l-2.8-.6-.7-.05-12.95-9.8" fill="#2d0e20" fill-rule="evenodd"/><path d="m149.4 87.25.5-2 .75-4.05q.45 15.6-8.15 26.6.95-2.7-3.7-5.7t-11.4-4.55q-6-1.4-10.85-3.1l-1.2-.4q-5.3-1.95-7.8-3.95-2.1-1.65-4.85-2.35l-2.45-1.85.7.05 2.8.6q1.45.45 3.45 1.85 1.95 1.4 6.75 3.7l1.4.6q4.35 1.85 10.2 3.1l1.25.3 1.9.45q4.75 1.25 8.35 3 4.2 2.05 6.25 5.05 4.4-6.5 6.1-17.35" fill="#470f1a" fill-rule="evenodd"/><path d="m51.4 74.3 6.25 4.2.9 1.05q8.15 9.45 19.75 15 8.7 4.2 19.3 6.25l.7.05q13.9 1.25 1.35-14.95h.6l2.45 1.85-1.15-.25q5.55 3.65 6.25 10.3.3 2.95-2.8 4.1-3.1 1.1-9.65.65-6.35-.5-12.55-3.4l-.35-.15-3.85-2q-15.5-8.25-21.3-15.3-3-3.6-5.55-5.55-3.2-2.5-5.8-2.55-4.75-.15-8.1-2.7l-.5-.35q-3.1-1.8-9.5.3-.8.25-1.65.6l-6.5 1.95q-6.45 1.05-9-2.3l-1.4-2.35q-.7-1.05-1.75-1.05-1.8 0-4.4 3.3L1.5 67.55q.8-.45 2.15-.75l3.05-.4q1.9 0 4.25 2.85t6.3 2.85q2.85 0 8.25-1.95l2.35-.8q3.65-1.15 5.65-1.15l3.2.6q1.1.35 2.15 1.05 2.9 1.85 6.3 2.25 3.25.45 5.95 2.05l.3.15" fill="#470f18" fill-rule="evenodd"/><path d="M67.4 6.2q1.45 2.4 4.4 4.85l10.95 11.7q-2.5.85-4.75 2.2-5.3 3.2-7.3 8.5l-3.4 8.2q-1.7 4.2-2.2 6.5l-3.7-5.3q.75-.45 4.25-2-3-2.55-9.85-6.25-5.8-3.1-5.8-3.55l1.3-4.45-.3-1.35q-.35-1.1-.35-1.55 0-4.05 5-11 3.5-4.95 6.4-7l.65.1-.15.1h.7l-.55-.1 2.5.15 2.2.25m-17.75-.35q-3.6 2.35-6.2 6.2-4.2 6.25-4.2 13.2 0 15.9 4.5 29.8 2.45 7.4 7.55 19.05l-.2.05q-2.7-1.6-5.95-2.05-3.4-.4-6.3-2.25-1.05-.7-2.15-1.05l-1.5-3.2Q33 61.35 33 60.5l.5-2.35.55-2.2.45-3.7.8-4.7Q33.6 49.2 31 53.8q-3.15 5.45-3.15 6.55v9l-2.35.8q-5.4 1.95-8.25 1.95-3.95 0-6.3-2.85Q8.6 66.4 6.7 66.4l-3.05.4q-1.35.3-2.15.75l-.3-.6Q0 64.15 0 61.45q0-1.9 1.65-10.1 1.5-7.35 2.1-9.4 1.35-4.4 6.15-9.25 4.95-5 5.85-7.6 2.8-8.15 18.25-14.7 8.2-3.5 15.65-4.55m28.65 88.7q-.35-2.9-.35-3.8 0-2.35.25-4.05l.2-2.45q-1.85.7-2.2 1.15.15-1-.4-2.5l-.95-2.2-1.1.6-1.15.5-1.15-2.35-.85-2.1q-.2-.35-2-1.55-1.6-1.05-1.6-1.65l.7-1.4.65-1.6v-.75l-2.25-.25v-2l.6-2q.25-1.1.75-1.6l-2.5-2.1-2.9-2.35q-.9-.8-1.75-2.85-.8-1.9-1.8-2.55h.65l4.7 1.35h3.25q1.65 2.9 4.5 6.6 2.3 2.95 14.8 12.75l.9.7 12.95 9.8h-.6q12.55 16.2-1.35 14.95l-.7-.05Q87 98.75 78.3 94.55" fill="#4e1329" fill-rule="evenodd"/><path d="m69 .6-.4-.55m.3 0 .1.55m-.2-.55h.1" fill="none" stroke="red" stroke-linecap="round" stroke-linejoin="round" stroke-width=".05"/></g><g id="v" fill-rule="evenodd"><path d="M10.75 12.95q.55 1.1.75 2.3l1.1.15q1.3 0 2.8-1.35 1.5-1.4 3.25-1.5 1.6-.1 2.65-1.45l.1-.15q.55-.75.3-1.6-.3-1-1.35-.95-1.1.05-1.9.75-.85.65-2.05.95-1.4 0-2.55-.65l-.85-.9-.4-.35-.5-.3q-.3.1-1.25 1.1-1.05 1.2-1.05 1.75 0 .5.8 1.9l.15.3m5.85-3.4q.2.15 1.5-.75 1.3-.95 2.6-.85 1.3.05 1.5 1.5.15 1.45-1 2.45-1.15.95-2.25 1-1.1 0-1.75.4l-.85.5q-.3.15-.55.45l-.6.55q-1.45 1.5-3.65 1 .05 1.3-.3 1.9l-1.1.95.05.45-.35 1.4q-.45.7-.85.7l-.3-.05-.2-.2-1.1-1q-1.3-1-2.5-1.3-.8-.05-1.05-.95l-.7-2.6-.15-.45-.05-.25-.35-1.6-.15-.85.15-.4 1.15-1.35.2-.3q.4-.45.9-.65l1.05-.4.35-.8L7.6 7.5l1.75-.4q.95 0 1.85.85l.75-.6q.4-.2 1 .35l1.2 1.25q.9.5 2 .6h.45M11.15.05l.5.05.35.05q2.4 3.05 2.35 5.05l-.75-.65Q13 2.8 11.15.05M9.9 17.75l.75-.75.4-1.4q.1-.75-.8-2.6-.95-1.9-.95-2.5-.05-.6 1.1-1.75l.4-.4-.65-.45-.75-.1-.65.05-.85.2q-.85.2-1.1.45l-.5 1.35q-.35 1-.45 3.55Q7.9 14.8 8.8 16l.95 1.75h.15m-4.35-7.6.15-.7-.5.05q-.35.05-1.2 1.35l-.85 1.45q0 .7.5 2.6l.1.4q.6 2.3 1.05 2.7l.4.1q1.95.45 3.6 2.2h.15l.35-.4.2-.45-.05-.7-.4-1.15-.2-.4-1.4-1.8Q6.4 14.35 5.2 13.95l.05-1.9.3-1.9" fill="#170a42"/><path d="m12.6 8.2.4.35.85.9q1.15.65 2.55.65 1.2-.3 2.05-.95.8-.7 1.9-.75 1.05-.05 1.35.95.25.85-.3 1.6l-.1.15q-1.05 1.35-2.65 1.45-1.75.1-3.25 1.5-1.5 1.35-2.8 1.35l-1.1-.15q-.2-1.2-.75-2.3l.25-.25.1-.4-.2-.95-.2-1q0-.35.85-1.25l1.05-.9" fill="#534aa3"/><path d="M3.75 10.2 2.6 11.55l-.15.4.15.85q-.95-.65-1.7-2.6-.4-3.2.85-8l.45-.25Q3.7 1.05 5.35.6l.2-.05.3.25L7.8 2.75q-1.5.1-4.05 7.45" fill="#534ba1"/><path d="m5.55.55 5.6-.5Q13 2.8 13.6 4.55q-2.65-2-5.6-1.8h-.2L5.85.8l-.3-.25" fill="#141e65"/><path d="M16.6 9.55h-.45L15.9 8.5v-.05q-1.45-3.05-3.8-4.1-2.4-1.05-3.45-1.1-1.1-.1-1.5.8Q6 5.5 4.85 9.25q-.5.2-.9.65l-.2.3Q6.3 2.85 7.8 2.75H8q2.95-.2 5.6 1.8l.75.65q1.9 1.75 2.25 4.35" fill="#8b520d"/><path d="m5.9 8.85-1.05.4Q6 5.5 7.15 4.05q.4-.9 1.5-.8 1.05.05 3.45 1.1 2.35 1.05 3.8 4.1h-.05q-1.75-2.3-3.1-3.2-1.35-.9-2.85-1.05-1.5-.15-2.75 1.65-1.3 1.75-1.25 3" fill="#fde857"/><path d="M16.15 9.55q-1.1-.1-2-.6l-1.2-1.25q-.6-.55-1-.35l-.75.6q-.9-.85-1.85-.85l-1.75.4-1.35.55-.35.8q-.05-1.25 1.25-3Q8.4 4.05 9.9 4.2q1.5.15 2.85 1.05t3.1 3.2l.05.05.25 1.05" fill="#c97310"/><path d="m8.75 7.85.65-.05.75.1.65.45-.4.4Q9.25 9.9 9.3 10.5q0 .6.95 2.5.9 1.85.8 2.6l-.4 1.4-.75.75q-.2-1.5-.95-2.5-.6-.9-1.9-1.75h.25q1-.3 1-1.45l-.25-1-.7-.65-.35-.15q-.05-.75.6-1.3l1.15-1.1" fill="#4f4b9f"/><path d="M9.9 17.75h-.15L8.8 16q-.9-1.2-2.95-2.6.1-2.55.45-3.55l.5-1.35q.25-.25 1.1-.45l.85-.2-1.15 1.1q-.65.55-.6 1.3l.35.15.7.65.25 1q0 1.15-1 1.45h-.25q1.3.85 1.9 1.75.75 1 .95 2.5" fill="#9667d1"/><path d="m10.75 12.95-.15-.3q-.8-1.4-.8-1.9 0-.55 1.05-1.75.95-1 1.25-1.1l.5.3-1.05.9q-.85.9-.85 1.25l.2 1 .2.95-.1.4-.25.25" fill="#9768d0"/><path d="m5.2 18.1-.4-.1q-.45-.4-1.05-2.7l-.1-.4q-.5-1.9-.5-2.6L4 10.85q.85-1.3 1.2-1.35l.5-.05-.15.7-1.45 1.6.05.35.4 3.45.65 2.55" fill="#9566d0"/><path d="m5.2 18.1-.65-2.55-.4-3.45-.05-.35 1.45-1.6-.3 1.9-.05 1.9q1.2.4 2.25 1.45l1.4 1.8.2.4.4 1.15.05.7-.2.45-.35.4H8.8q-1.65-1.75-3.6-2.2" fill="#524da1"/><path d="m2.6 12.8.35 1.6-.15-.15Q1.4 12.75.1 10.2q-.45-2.75.75-7.4l.9-.6Q.5 7 .9 10.2q.75 1.95 1.7 2.6" fill="#1c0e49"/><path d="m2.95 14.4.05.25.15.45-.4 1.7-.3 1.5q0 .5.4.9l.65.4 7.3 2.35q1 0 2.8-2.55 1.75-2.6 2.2-5.15.25-.3.55-.45-2.35 8.1-5.25 8.8l-7.15-2q-2.3-.85-2.3-2.3 0-.6.5-2.25l.65-1.8.15.15" fill="#8d5109"/><path d="m3.15 15.1.7 2.6q.25.9 1.05.95 1.2.3 2.5 1.3l1.1 1 .2.2.3.05q.4 0 .85-.7l.35-1.4-.05-.45 1.1-.95q.35-.6.3-1.9 2.2.5 3.65-1l.6-.55q-.45 2.55-2.2 5.15-1.8 2.55-2.8 2.55L3.5 19.6l-.65-.4q-.4-.4-.4-.9l.3-1.5.4-1.7" fill="#c87412"/></g><g id="w" fill-rule="evenodd"><path d="m39.85 18.2-.15.9q-17.45 7.6-18.8 9.75l-.1.35Q14.85 50 14.9 57.45q.05 8.5-2.35 13.1-2.4 4.5-5.9 2.65l.85-.2q.8-.25.7-3.75Q8.05 65.75 4 59q-4.1-6.8-4-9.75.05-3 .25-4.65.2-1.65 1.05-3.15 2.3-3.1 4.2-5.1l2.85-3.7q.95-1.75 2.65-8.2 4.95-3.5 8.5-4.5l2.7-5.3-.6-4.95q-.25-1.3 2-2.75 2.1-1.35 4.3-2.05l.15-.25L29 2.5Q29.65.95 30.5.55l2.65-.5q2.5-.15 13.3.25l-.95 1.8-8.75-.25 1.6 2.45q1.05 1.45 4.25 4.1l-.35.9q-3.4-3.1-4.4-4.6L37 3.3l-.8-1.45-4.4.2q-.95.8-2.15 3.85-.9 2.3-1.8 3.35l-.25.3.6-1.5.3-1.45.4-.15-.4.15q-1.2.35-2.55 1.15l-2.85 1.8.5 4.45q.25 1.45 1.15 2.6 1.55 2 4.95 3.1l-1.8-.45-1.85-.7q-1.95-1-2.9-2.55l-.6 1.2q-.85 1.5-1 2.45l2.65-.6-2.55 1.2-4.35 1.95q-2.4 1-5 2.75l-1.05 5.2-.2 1.3q-1.25 9.4.05 16.5l.9 3.65q2.85-16.9 10.6-28.45l-1.25 4.15q4.75-3.5 18.5-9.1m-5.6-12.4q1.5 2.5 3.4 4.05l-.85.1q-1.2-.75-2-2.65l-.55-1.5M25.5 9.2q5.7 4.35 6.9 4.05 1.05-.15 2.3-.7l-.9-.1q-2.4-.1-4.55-.95l6.9.3 2.55-1.85q-1.3 1.75-3.2 2.9-1.55.95-3.15 1.3l-.45.05-.35-.15Q26.4 11.4 25.5 9.2M9.85 41.8q-.1-4.8.8-9.75l-.5 1.15Q9 35.15 2.8 42.25l-.45 2.7q-.2.85-.15 4.15.05 3.3 4.1 10.05 4 6.7 4.2 10.55l-.15 1.2q3.55-4.5 1.45-16.35Q9.95 48.3 9.85 41.8" fill="#470f18"/><path d="m42.25 9.3-.05.15q-1.4 3.7-2.05 7.05l-.3 1.7q-13.75 5.6-18.5 9.1l1.25-4.15q1.25-1.95 5.3-3.9l1.8.45 2.5.35q-4.25-1.35-7.4-9.8l.7-1.05q1.4-1.9 3-2.6l-.3 1.45-.6 1.5.25-.3v.5l.45.15q.85 0 2.1-2.35l2.1 2.35q.45.3 4.3.05l.85-.1q-1.9-1.55-3.4-4.05-.3-.8-.25-1.05 0-.45 1.45-1 1.15-.4 1.55-.45l.85 1.4q1 1.5 4.4 4.6M25.5 9.2q.9 2.2 6.05 4.85l.35.15.45-.05q1.6-.35 3.15-1.3 1.9-1.15 3.2-2.9l-2.55 1.85-6.9-.3q2.15.85 4.55.95l.9.1q-1.25.55-2.3.7-1.2.3-6.9-4.05m6.7 10.85h.1-.1" fill="#b42e69"/><path d="M45.5 2.1 45 3q-1.25 2.5-2.4 5.4-3.2-2.65-4.25-4.1l-1.6-2.45 8.75.25" fill="#670035"/><path d="M28.5 6.6q-1.6.7-3 2.6l-.7 1.05q3.15 8.45 7.4 9.8l-2.5-.35q-3.4-1.1-4.95-3.1-.9-1.15-1.15-2.6l-.5-4.45 2.85-1.8q1.35-.8 2.55-1.15" fill="#fc5a6f"/><path d="M37 3.3q-.4.05-1.55.45-1.45.55-1.45 1-.05.25.25 1.05l.55 1.5q.8 1.9 2 2.65-3.85.25-4.3-.05l-2.1-2.35Q29.15 9.9 28.3 9.9l-.45-.15v-.5q.9-1.05 1.8-3.35 1.2-3.05 2.15-3.85l4.4-.2.8 1.45m-9.1 15.95q-4.05 1.95-5.3 3.9Q14.85 34.7 12 51.6l-.9-3.65q.25-11.75 6.7-22.3-2.5.25-6.75 5.8l.2-1.3 1.05-5.2q2.6-1.75 5-2.75l4.35-1.95 2.55-1.2.2-.05 1.65-.45 1.85.7M10.5 69.7q-.2-3.85-4.2-10.55Q2.25 52.4 2.2 49.1q-.05-3.3.15-4.15l.45-2.7q6.2-7.1 7.35-9.05l.5-1.15q-.9 4.95-.8 9.75L7.6 50.05q4.05 9.85 2.9 19.65" fill="#fa5b71"/><path d="m24.2 19.05-2.65.6q.15-.95 1-2.45l.6-1.2q.95 1.55 2.9 2.55L24.4 19l-.15.05h-.05M9.85 41.8q.1 6.5 1.95 12.75 2.1 11.85-1.45 16.35l.15-1.2q1.15-9.8-2.9-19.65l2.25-8.25" fill="#b32f6b"/><path d="M11.05 31.45q4.25-5.55 6.75-5.8-6.45 10.55-6.7 22.3-1.3-7.1-.05-16.5" fill="#b4306c"/></g><g id="x" fill-rule="evenodd"><path d="M17 16.05h-.25l-.05-.5q0-.35 1.2-.9l1.1-.45.45.45q-2.3 1.1-2.45 1.4" fill="#17093e"/><path d="M16.75 16.05H17q.8.15.8 1.8 0 1.15-.75 2.95l-1.25 2.75-1.2 5.35-1.25.75 3.1-9.25.85-3.05-.4-.45q-.2 0-.4.15l-.15.15-3.3 2.35-3.7-2.95-3.3-3.05.35-.5L8.7 15l2.9 2.5 1.5 1.25 3.35-2.55.3-.15m-14 2.3.4-.6q.95 3.05 2.5 5.75l.15.25q2.05 3.55 5.15 6.45-1.25-.1-2.25-1.05l-.4-.4-.45-.6q-3.95-5.25-5.1-9.8" fill="#466081"/><path d="m19 14.2-1.1.45q-1.2.55-1.2.9l.05.5-.3.15-3.35 2.55-1.5-1.25v-4.15l-4.05-5.4Q7.95 4.8 9.7 1.2l.3-.55.2-.4q.15 3.95 4.35 9Q16.4 11.5 19 14.2" fill="#151e69"/><path d="m10.2.25-.2.4-.3.55Q7.55 3.55 6.75 6.85q-.4 1.55-.5 3.3L5.7 9.7q.1-6.15 4.6-9.7l-.1.25" fill="#140a3f"/><path d="M2 8.55.6 6.45l6.05 4.95-3.9 5.55L4 11.5 2 8.55" fill="#ca7411"/><path d="M.6 6.45 2 8.55l.75 8.4-.5.7Q.85 13.35.6 6.45" fill="#fcfddb"/><path d="m8.7 15-2.3-1.95 1.2-1.75q.2 1.95 1.1 3.7m1-13.8Q7.95 4.8 7.55 7.95q-.2 1.7 0 3.25l-1.3-1.05q.1-1.75.5-3.3.8-3.3 2.95-5.65" fill="#9669ce"/><path d="m6.4 13.05-.35.5-2.9 4.2-.4.6-.65.9Q.3 14.55 0 5.15L5.7 9.7l.55.45 1.3 1.05.05.1-1.2 1.75m-3.65 3.9 3.9-5.55L.6 6.45q.25 6.9 1.65 11.2l.5-.7" fill="#8b5108"/><path d="m5.35 15.75.95-.95q2.6 2.9 4.1 5.7 1 1.75 1.5 3.5l-.45.6-2.4.2-.45-.35q-1.8-3.55-3.25-8.7" fill="#cbd9ff"/><path d="m6.05 13.55 3.3 3.05 1.05 3.9q-1.5-2.8-4.1-5.7l-.95.95-2.2 2 2.9-4.2" fill="#798ab6"/><path d="m2 8.55 2 2.95-1.25 5.45L2 8.55" fill="#feea57"/><path d="m9.35 16.6 3.7 2.95 3.3-2.35-1 3.8q-2 1.2-3.45 3-.5-1.75-1.5-3.5l-1.05-3.9" fill="#7db2d2"/><path d="m8.6 24.45.45.35 1.45 1.3q.4-.8.95-1.5l-.5 5.6q-3.1-2.9-5.15-6.45l-.15-.25q.35-1.15 2.95.95" fill="#0e4ba6"/><path d="m11.45 24.6.45-.6q1.45-1.8 3.45-3l-3.05 9.05-1.35.15.5-5.6" fill="#279ad0"/><path d="M5.35 15.75q1.45 5.15 3.25 8.7-2.6-2.1-2.95-.95-1.55-2.7-2.5-5.75l2.2-2" fill="#fffeff"/><path d="m16.35 17.2.15-.15q.2-.15.4-.15l.4.45-.85 3.05-3.1 9.25-1.05.4L15.35 21l1-3.8" fill="#c9d8ff"/><path d="M11.6 17.5 8.7 15q-.9-1.75-1.1-3.7l-.05-.1q-.2-1.55 0-3.25l4.05 5.4v4.15" fill="#514ca0"/><path d="m9.05 24.8 2.4-.2q-.55.7-.95 1.5l-1.45-1.3" fill="#6f76aa"/></g><g id="y" fill-rule="evenodd"><path d="M.55 7.65.8 7.3Q2.6 4.85 5 3l3.05-1.8q2.1-1 4.5-1.15h.1L15.05 5Q8.8 7.75 5.8 10.6l-1.9 1.9-.45.5-.95 1.15q-1.2-3-1.95-6.5" fill="#151d65"/><path d="m12.65.05.6-.05L27.2 27.85l-.85.05L15.05 5 12.65.05" fill="#150a42"/><path d="m12.9 28.05-1.55-.4-.3-.2q-8.2-6.4-11.05-19l.55-.8q.75 3.5 1.95 6.5 3.45 9 10.4 13.9" fill="#170a42"/><path d="m14.75 28.25-1.85-.2q-6.95-4.9-10.4-13.9L3.45 13q.75 2.55 2.05 4.4H6q1.45.5 2.05 1.15.65.7.65 2.05l-.25.6-.45.5q2.3 3.35 6.75 6.55M9.6 21l.6-.2q.7 0 .7.85l-.1.55-.7.2q-.8 0-.8-.9 0-.3.3-.5" fill="#9869d1"/><path d="M19.9 28.25h-5.15Q10.3 25.05 8 21.7l.45-.5.25-.6q0-1.35-.65-2.05-.6-.65-2.05-1.15h-.5Q4.2 15.55 3.45 13l.45-.5q.55 1.15 2.65 3 2.5 2.25 6.6 1.4l6.75 11.35M9.6 21q-.3.2-.3.5 0 .9.8.9l.7-.2.1-.55q0-.85-.7-.85l-.6.2" fill="#514ca0"/><path d="m26.35 27.9-.45.05-3.7.25-2.3.05-6.75-11.35q-4.1.85-6.6-1.4-2.1-1.85-2.65-3l1.9-1.9q3-2.85 9.25-5.6l11.3 22.9" fill="#141e65"/></g><g id="z" fill-rule="evenodd"><path d="M8.4 10.05Q7.8 5.6 7.9 0h.5l6.45 8.3.45-1.2.05-.05q.15-.25.5-.15l.6.75.55.7 2.85 3.5-.15.7-3.9-4.8q-1 .9-.1 2.95L9.55 2.25 8.3.5l.2 5.25q.15 2.9.6 5.35.4 2.2.95 4.05l.25-.4.4-.35.85 1v.05l2.2 2.2q4.3 4.15 6.1 4.65l-.45-.9-1.8-7.05 1.6 4.05q.95 2.7 1.5 5.15-5.75-3.15-10-8.5l-.2.65-.6.3h-.1l-.2-.15-.1-.3Q9 13.8 8.65 11.8l-.15-1.05-.1-.7" fill="#111b9f"/><path d="m16.45 7.65 4-4.8L23 6v2.05l2.9 2.75-2.05 5.35-.4.75-.65 1.25-1.85 3.25v-.15q4.1-9.5 4-10.45L22.9 8.65q-.45.4-1.55.45l.9-.55.3-.25v-2L20.4 3.9l-.65.85L18.7 6.1 17 8.35l-.55-.7m17.65 29.5L39 39.7l-.2.8-.6 2.15-.05.05-.75 2.1-.45-.35.6-1.65.2-.65.45-1.95-3.1-1.8-1.25-.75.25-.5" fill="#446181"/><path d="m19.75 4.75.65-.85 2.15 2.4v2l-.3.25-2.5-3.8m18 37.4q-.15-1.4-.9-1.9-.4-.3-1.85-.55l.1-1.3 3.1 1.8-.45 1.95" fill="#c9d8ff"/><path d="M21.35 9.1q1.1-.05 1.55-.45l2.05 2.15q.1.95-4 10.45.6-2.5 1.7-6 1.05-3.6.85-4.45-.2-.9-.55-.95l-1.55-.2-.05-.55" fill="#c8d7fe"/><path d="m22.25 8.55-.9.55.05.55v3l-.85-.55.4-4.1-.2.65L18.7 6.1l1.05-1.35 2.5 3.8" fill="#7cbcd8"/><path d="m19.7 12.55.15-.7.9-3.2.2-.65-.4 4.1-.7 3.9-.65 2.4q-.05-3 .5-5.85" fill="#44617f"/><path d="m20.55 12.1.85.55q-.15 3-.75 5.85l-.8-2.5.7-3.9" fill="#0b46a2"/><path d="m21.4 9.65 1.55.2q.35.05.55.95.2.85-.85 4.45-1.1 3.5-1.7 6l-.35-2.3.05-.45q.6-2.85.75-5.85v-3" fill="#7a91ba"/><path d="M19.85 11.85 17 8.35l1.7-2.25 2.05 2.55-.9 3.2" fill="#229ed1"/><path d="m19.2 18.4-1.6-4.05 1.8 7.05-1-2.05-1.25-2.45-2.25-4.5-.85 1.35L12.6 10 9.55 2.25l6.15 8.45q-.9-2.05.1-2.95l3.9 4.8q-.55 2.85-.5 5.85" fill="#262ac1"/><path d="M8.5 5.75 8.3.5l1.25 1.75L12.6 10 8.5 5.75" fill="#4bfffc"/><path d="m13.75 17.65-2.2-2.2h.05q2.9 1.2 5.55 1.45l1.25 2.45q-2.15-.2-4.65-1.7" fill="#3089e7"/><path d="m11.55 15.4-.85-1-.4.35-.25.4Q9.5 13.3 9.1 11.1q2.65 2 4.95 2.65l.85-1.35 2.25 4.5q-2.65-.25-5.55-1.45l-.05-.05" fill="#4ffeff"/><path d="M8.65 11.8q.35 2 .85 3.75l.1.3.2.15h.1l.6-.3q2.7 4.65 10.25 8.6-2.35 1.95-2.9 3.9-.5 1.55.2 3.05-.95.2-1.9.7L8.6 23.8v-2.2q5.3 2.45 7.9 2l-4.3-1.3-.25-.1q-6.1-5.75-6.7-7.85Q4.6 12.2 6.5 12.4l1.45.05-.1-.3q0-.35.8-.35M23.7 48.95l-.65-.85q-.65-.9-.65-1.55l.05-.2q0-.25.15-.35l.15.05 9.55.4 2 3.85-10.6-1.35" fill="#cbd9ff"/><path d="m10.5 15.7.2-.65q4.25 5.35 10 8.5-.55-2.45-1.5-5.15l.65-2.4.8 2.5-.05.45.35 2.3-.05.15-.1.2.15-.2 1.85-3.25.8.95-.8 1.7q-.45.65-.45 1.4-.05.8.6 1.25l1.25.55.8.25v.65q-1.65-.8-3.85-.95l-.4.35q-7.55-3.95-10.25-8.6" fill="#629baf"/><path d="m14.45 33.35-.1-.05q-5.65-6.15-7.8-9v-2.4q-5.3-2.6-5.25-2.95V16.3Q-.05 13.15 0 8.7q4.35.2 8.4 1.35l.1.7-7.85-1.3q-.15 2.3.85 5.6h1.1l.2.75-.15 1.95q4.95 2.8 9.3 4.45l.25.1 4.3 1.3q-2.6.45-7.9-2v2.2l7.55 8.15-.35.2q-.9.55-1.35 1.2" fill="#465e80"/><path d="m19.4 21.4.45.9q-1.8-.5-6.1-4.65 2.5 1.5 4.65 1.7l1 2.05" fill="#4ffdfe"/><path d="m23.85 16.15 2.7 3.1v6.65l-.8-.6v-5.9l-1.5-1.65-.8-.85.4-.75" fill="#476280"/><path d="m22.8 18.15.65-1.25.8.85-.65 1.35-.8-.95" fill="#a9cdff"/><path d="m23.6 19.1.65-1.35 1.5 1.65v5.9l-.75-.4v-4.05l-1.4-1.75" fill="#cbd7ff"/><path d="m25 24.25-.8-.25-1.25-.55q-.65-.45-.6-1.25 0-.75.45-1.4l.8-1.7 1.4 1.75v3.4" fill="#809abf"/><path d="M18.05 31.25q-.7-1.5-.2-3.05.55-1.95 2.9-3.9l.4-.35q2.2.15 3.85.95l.75.4-.1.6-.05-.05q-2.05-1.4-4.4-1.15-4.15 3.1-2.75 7.3l-.3-.55-.1-.2" fill="#8b500e"/><path d="M9.1 11.1q-.45-2.45-.6-5.35L12.6 10l1.45 3.75q-2.3-.65-4.95-2.65" fill="#2f87eb"/><path d="m8.5 10.75.15 1.05q-.8 0-.8.35l.1.3-1.45-.05q-1.9-.2-1.25 1.95.6 2.1 6.7 7.85-4.35-1.65-9.3-4.45l.15-1.95-.2-.75H1.5q-1-3.3-.85-5.6l7.85 1.3" fill="#fdfdff"/><path d="m28.8 29.15-.05-.1-.3-.7q1-.35 2.3.3 1.3.6 2 3.3.65 2.6.75 5l-.35.4Q33 32.5 31.1 30l-.6.35q-3.25 1.55-8.45-3.5 1.65 5.9.35 9.95l-.15.5q-.3.25-.3.75 0 .45.5 1.3l.55.8q-3.35-3.35-4.6-5.8v-.5l.25-.35.8.25 1.25.5 1.1-.35q-1.15-.05-1.85-.85-.65-.85-.65-2.1 0-1.45 1.05-3.35 1.15-2.15 2.45-2.15l2.8.4.05.05q1.65 1.1 3.1 3.3l.1.2-.05-.25" fill="#ffe957"/><path d="M26.55 25.9q1.05.8 1.7 2.05l1.4-.25q2 0 3.3 3.3 1.3 3.3 1.15 6.15l-.25.5q-1.3 1.9-4.45 3.05l-1 .3q-3.2.75-7.15-.45l-2.45-1.9q-2.5-2.1-4.65-4.55l.1-.5.2-.25q.45-.65 1.35-1.2l.35-.2q.95-.5 1.9-.7l.1.2q-1.1.75-1.5 1.4-.5.85-.45 2.2l2.7 2.85 3.25 2.55 1.35.2 4.15-.25 1.9-.6 1.1-.55 2.5-1.9.35-.4q-.1-2.4-.75-5-.7-2.7-2-3.3-1.3-.65-2.3-.3l.3.7.05.1-.05.05q-1.45-2.2-3.1-3.3l.1-.6.8.6" fill="#8b500c"/><path d="m23.5 40.65-1.35-.2-3.25-2.55-2.7-2.85q-.05-1.35.45-2.2.4-.65 1.5-1.4l.3.55q-1.4-4.2 2.75-7.3 2.35-.25 4.4 1.15l-2.8-.4q-1.3 0-2.45 2.15-1.05 1.9-1.05 3.35 0 1.25.65 2.1.7.8 1.85.85l-1.1.35-1.25-.5-.8-.25-.25.35v.5q1.25 2.45 4.6 5.8l.3.3.2.2" fill="#fefedc"/><path d="m27.65 40.4-4.15.25-.2-.2-.3-.3-.55-.8q-.5-.85-.5-1.3 0-.5.3-.75l.15-.5q2.1-4.1.45-8.55 2.5 2.75 3.4 4.55l-.35-.1-.55.15q-.9.95-.9 3.65 0 1.05.65 2.75l-.05-2.8q-.05-1.5.4-2.45 2.45 1.75 2.2 6.4" fill="#ca740d"/><path d="M22.4 36.8q1.3-4.05-.35-9.95 5.2 5.05 8.45 3.5 2.5 2.85-.85 4.8l-.35-.35-1.9-1.4-1.15-.6q-.9-1.8-3.4-4.55 1.65 4.45-.45 8.55" fill="#ca9630"/><path d="m26.25 32.8 1.15.6 1.9 1.4.35.35q.5.65.9 2.05l-.35-.5-.85-1-1.1-.85-1.45-.95-1.05-.5-.3.6q-.45.95-.4 2.45l.05 2.8q-.65-1.7-.65-2.75 0-2.7.9-3.65l.55-.15.35.1" fill="#8a510e"/><path d="m29.55 39.8-1.9.6q.25-4.65-2.2-6.4l.3-.6 1.05.5 1.45.95 1.1.85.85 1 .1.75-.3 1.4-.45.95" fill="#cb9630"/><path d="M38.8 40.5q1.8.85 2.25 3.05.4 2.15.2 4.5l.75.75q1.9 2 3.8 4.6l2.3 3.35q-1.45 7.4-4.25 13.45l-.2.35-.45.25-.85-.25-14.4-7.2q-1.2-.25-4.35-7.5L20.75 54l-1.85-1.95q-.05-.4.65-.65h.3l-2.9-3.15q-1.8-2.2-1.85-2.75-.05-.6.8-.7l1.75-.15-.6-1.7-.4-1.7q0-.65.9-1.45l-2.4-2.6Q14 35.85 14 35.05l.15-.95q2.15 2.45 4.65 4.55-.05 1.4.15 2.45l-.15-.15-.3.1v.4q0 1.75 1.45 4.7l.55.2-.15.65-.05-.15q-.2-.3-1.15-.4l-1.55-.05h-.4l1.65 1.75 2.45 2.4 2.35 2.55-1.85-.2 2.7 2.05 3.7 6.6q7.6 4.35 14.65 6.6l2.1-6.5 1.2-4.95-.5-.75-1.75-2.55-1.35-1.75-2.45-2.85-.3-.35-.15-.1-1.5-.75q-.35-1.65 0-4.9l.05-.05.6-2.15m-15.1 8.45 10.6 1.35.2.6q-6.95-.55-10.5-1.6l-.3-.35m15.2-5.15q-.25 1-.3 3.4l1.2.9q-.05-5.9-.5-5-.25.05-.4.7" fill="#446183"/><path d="m20.5 46.35-.55-.2q-1.45-2.95-1.45-4.7v-.4l.3-.1.15.15.9 1.2L21 44.15l-.5 2.2m3.15 6.75-2.35-2.55-2.45-2.4-1.65-1.75h.4l1.55.05q.95.1 1.15.4V47l-1.1.2 4.45 5.9m8.65-6.65-9.55-.4-.15-.05q-.15.1-.15.35l-.05.2q0 .65.65 1.55l.65.85-1.75-.5-.7-.65-.3-.3.55-3.2 2.4.55q5.85 1.2 7.9.6l.5 1" fill="#fff"/><path d="m21 44.15-1.15-1.85-.9-1.2q-.2-1.05-.15-2.45l2.45 1.9q2.7 1.65 5.45 1.8l3.15-.4q.9 2.25 1.95 3.5-2.05.6-7.9-.6l-2.4-.55-.5-.15m1.7-.6 6 .5-5.5-1.2-1.8-1.55 1.3 2.25" fill="#504ca0"/><path d="M21.25 40.55q3.95 1.2 7.15.45l1-.3q3.15-1.15 4.45-3.05l1.25.75q-.9 3.8-3 6.65l-.3.4q-1.05-1.25-1.95-3.5l-3.15.4q-2.75-.15-5.45-1.8m16.9 2.15q-.35 3.25 0 4.9l1.5.75.05 1 4.1 5.5q-.35 4.05-2 6.65-3-3.15-2.65-1.65L34.3 50.3q1.75-2.15 3.1-5.5l.75-2.1" fill="#141e66"/><path d="m22.7 43.55-1.3-2.25 1.8 1.55 5.5 1.2-6-.5" fill="#121e66"/><path d="m20.5 46.35.5-2.2.5.15-.55 3.2.3.3.7.65.9.75q.85.75 1.3 1.6l-.55-.45-1.65-1.25-1.1-.8-.7-.7.15-.6h.05l.15-.65" fill="#455f80"/><path d="m20.3 47-.15.6.7.7 1.1.8 1.65 1.25q1.95 2.7 3.55 6.1l-3.5-3.35-4.45-5.9 1.1-.2" fill="#ccd8fe"/><path d="m21.95 48.45 1.75.5.3.35q3.55 1.05 10.5 1.6 1.65 5.2 4.25 8.5l-.9 3.35-.5-2.3-.8-3.35-2.5-4.1-1.35-2.15-7.85-.75q1 3.1 3.75 7.1l2.45 1.6h.05l4.9 3.25-6.65-2.65L27.6 58l-.45-1.55q-1.6-3.4-3.55-6.1l.55.45q-.45-.85-1.3-1.6l-.9-.75" fill="#9868ce"/><path d="m33.15 37.35-2.5 1.9-1.1.55.45-.95.3-1.4-.1-.75.35.5q-.4-1.4-.9-2.05 3.35-1.95.85-4.8l.6-.35q1.9 2.5 2.05 7.35" fill="#c77311"/><path d="M35 39.7q1.45.25 1.85.55.75.5.9 1.9l-.2.65-.6 1.65-.55-.45q-1-.6-2.4-1.05.8-1.7 1-3.25" fill="#7cbbda"/><path d="M32.1 45.05q2.1-2.85 3-6.65l-.1 1.3q-.2 1.55-1 3.25l-1 1.9-.1.2-.4.25-.25-.1-.15-.15" fill="#446284"/><path d="M38.9 43.8q.15-.65.4-.7.45-.9.5 5l-1.2-.9q.05-2.4.3-3.4" fill="#ccdaff"/><path d="m31.8 45.45.3-.4.15.15.25.1.4-.25.1-.2.15.2.65.7 2.1 1.15-1.6 3.4-2-3.85-.5-1" fill="#7d99be"/><path d="m35.9 46.9-2.1-1.15-.65-.7-.15-.2 1-1.9q1.4.45 2.4 1.05l.55.45-1.05 2.45" fill="#6e74a8"/><path d="m39.65 48.35.15.1.3.35 4.2 6q-.5 5.2-2.45 7.45l-2.7-2.4q-.35-1.5 2.65 1.65 1.65-2.6 2-6.65l-4.1-5.5-.05-1" fill="#170841"/><path d="m34.3 50.3 1.6-3.4 1.05-2.45.45.35q-1.35 3.35-3.1 5.5" fill="#436082"/><path d="m40.1 48.8 2.45 2.85 1.35 1.75 1.75 2.55q-.6-.15-.8-.45l-.15-.15-.4-.55-4.2-6" fill="#9eb2d7"/><path d="m45.65 55.95.5.75-1.2 4.95v-3.6l-.1-2.55q.2.3.8.45" fill="#cad8ff"/><path d="m44.95 61.65-2.1 6.5q-.9-3.75-3.7-8.3l2.7 2.4Q43.8 60 44.3 54.8l.4.55.05.05.1.1.1 2.55v3.6" fill="#79bedb"/><path d="m34.5 50.9-.2-.6 4.85 9.55-.4-.45q-2.6-3.3-4.25-8.5" fill="#140a3e"/><path d="m31.05 58.8-2.45-1.6q-2.75-4-3.75-7.1l7.85.75L34.05 53l-6.9-1 3.9 6.8" fill="#504ca1"/><path d="m34.05 53-3.3.45 1.35 3.65 4.1 3.05-5.1-1.35h-.05l-3.9-6.8 6.9 1" fill="#141e65"/><path d="m34.05 53 2.5 4.1.8 3.35-1.15-.3-4.1-3.05-1.35-3.65 3.3-.45" fill="#514ca0"/><path d="m37.85 62.75.9-3.35.4.45-.85 3.7-9.1-3.3-2.55-3.05.95.8 1.75 1.4L36 62.05l1.85.7" fill="#140a3f"/><path d="m37.35 60.45.5 2.3-1.85-.7-4.9-3.25 5.1 1.35 1.15.3" fill="#504aa0"/><path d="M42.85 68.15q-7.05-2.25-14.65-6.6l-3.7-6.6-2.7-2.05 1.85.2 3.5 3.35.45 1.55-.95-.8 2.55 3.05 9.1 3.3.85-3.7q2.8 4.55 3.7 8.3" fill="#dbe2fc"/></g><g id="A" fill-rule="evenodd"><path d="m25 11.1-4.25-4.4-.95 1.8q-3.6-1.9-6.95-5L10.5 1.1l.95 2.55 2 4.9 1.3 2.55 1.3 2.3 1.75 2.45 2.3 2.05.3 1.95-1.3-.9-.15-.1q-6.4-9.2-8.7-16.5l-.1-.4L10 .9l.1-.9.25.1q4.35 4.75 9.1 7.5l1.15-2.05 4.75 4.95-.35.6" fill="#0a1895"/><path d="M21.25 11.4 19.1 9.15l-1.5 1.55-1.3-1.6-1.15-1.65-2.3-3.95q3.35 3.1 6.95 5l.95-1.8L25 11.1l-1.2 2.15q-1.3-.7-2.55-1.85" fill="#2b28c1"/><path d="M23.8 13.25 25 11.1l.35-.6 2.85-4.3 2.75 2.1-.55 2.1-.6.05-.1-.1.5-1.95L28.3 7l-.25.45H28L22.45 16l.65-1.4-2.75-1.75q.1 4.35.6 7.45l-.55-.45-.3-1.95-.15-1.6-.1-2.1v-1.95q.35-.6 3.5 1.9l.45-.9" fill="#436183"/><path d="m16.3 9.1 1.3 1.6 1.5-1.55 2.15 2.25-6.5-.3-1.3-2.55q1.5.75 2.85.55m-3.45-5.6 2.3 3.95q-2-1.25-3.7-3.8L10.5 1.1l2.35 2.4m4.95 12.35-1.75-2.45q2 .7 3.8.8l.1 2.1-2.15-.45" fill="#50ffff"/><path d="M21.25 11.4q1.25 1.15 2.55 1.85l-.45.9q-3.15-2.5-3.5-1.9v1.95q-1.8-.1-3.8-.8l-1.3-2.3 6.5.3m-6.1-3.95L16.3 9.1q-1.35.2-2.85-.55l-2-4.9q1.7 2.55 3.7 3.8M20.1 17.9l-2.3-2.05 2.15.45.15 1.6" fill="#2e86e8"/><path d="M20.95 20.3q-.5-3.1-.6-7.45l2.75 1.75-.65 1.4.4 2.3q0 .55.25.95l.55.7q.65.75 1 1.95.35 1.15.2 2.2-1.5-1.95-3.9-3.8" fill="#feffff"/><path d="M25.4 24.8q2.65-4.4 2.65-6.5 0-2.6-1.7-3.75-2.6 1.45-3.9 1.45 3.5-3.9 5.95-5.05 2.2 2 2.5 3.2l.15 1.05-3.95 13.35q-.4-1.9-1.7-3.75" fill="#788bb6"/><path d="M22.45 16q1.3 0 3.9-1.45 1.7 1.15 1.7 3.75 0 2.1-2.65 6.5l-.55-.7q.15-1.05-.2-2.2-.35-1.2-1-1.95l-.55-.7q-.25-.4-.25-.95l-.4-2.3m4.65 12.55 3.95-13.35-.15-1.05q-.3-1.2-2.5-3.2l.15-.1 1.25-.4L32.25 14l.2.9-.2.95-4.65 12.8-.5-.1" fill="#cad8fd"/><path d="m19.1 18.95 1.3.9.55.45q2.4 1.85 3.9 3.8l.55.7q1.3 1.85 1.7 3.75l.5.1q1 .15 1.9.75 1.7 1 2.95 3.3l.45.95-1.45.7-2.9 1.4-4 1.95-2-.3q-4.3-.9-7.15-3.75l-.25-.3-.85-1 .55-1.2.25-.65 1.7-4.5q.6-2.15.75-4.3 0-.6.15-1.1.25-1.2.95-1.65h.45m2.35 2.65-1.95-1.05-2.45 6.9-.2.6-1.95 4.4 1.1 1 .45.4q4.25 3.5 8.1 3.15l3.05-1.5 2.45-1.2 1.85-.95q-1.4-3.6-5.15-4.15-1.55-5.15-5.3-7.6" fill="#8e520c"/><path d="m6.5 35.25 2.65-4.2 4.8-1.6 3.75-8.85q-.15.5-.15 1.1-.15 2.15-.75 4.3l-1.7 4.5q-2.55.2-4.7 1.7l-2.05 3.25q-1.3.65-1.85-.2" fill="#436082"/><path d="m19.5 20.55 1.95 1.05q2.75 1.9 2.7 9.55-.15.5.7.9l1.6.35 1.7-.5q.75-.55 1.05-.55.55 0 .8.85l.2 1.35-.15.75-2.45 1.2 1-1.4.6-1.8q-1.9 2.05-3.7 2.05-1.25 0-2.05-.95-.75-.9-.75-2l.1-.7.05-.2q.85-6.15-3.35-9.95" fill="#ca952f"/><path d="m5.7 42.75-.45-.2q-.35-.05-.35-.3l.2-.45.2-.25.25-.3L7.3 37.4q1.75-1.95 3.65-2.3l.5.7Q9.3 37.05 5.7 42.75" fill="#9766cf"/><path d="M3.35 43.5q-.45-.1-.45-.5l.15-.3q1.3-3.75 3.45-7.45.55.85 1.85.2L7.3 37.4l-1.75 3.85-.25.3-.2.25-.2.45q0 .25.35.3l.45.2h.05v.05l.25.45.15.1h.35q8.2.1 18.3-2.6l-.15.15-4.25 1.35Q13.65 44 6.2 44q-.55.15-.85-.3l-.4-.4-.1-.05-1.25.25h-.25" fill="#15083e"/><path d="m30.5 26.6 4.45 5.3-.8 2.85q0 .35.9 1t.9 1.15l-.55 2.05-.9 2.05-.1.15q-.65.95-2.8 1.3-2.4.35-2.05 1.1.3.7.9 1.3l.55.75q-1.8 1.2-9.95.6l-17.4 3.85H2.5q-.9-.15-1.45-.65l-.8-.8-.25-.65q0-.85 3.35-4.45h.25l1.25-.25.1.05-1.65 1.95q-1.5 1.8-1.4 2.5.05.7.7.65l1.55-.25.2-.05 13.9-2.9 1.05-.25h.75l8.6-.35-1.05-.85 2.8-2.8 1.3-.1q.95-.15 1.3-.6l.55-1.4.45-1.6q0-.35-.75-.95t-.75-.9l.5-1.45.5-1.5-.05-.3-3.35-4.45.4-1.1" fill="#436080"/><path d="m11.45 35.8-.5-.7.65-.05q7.35 5.8 13.95 5.5l-.75.2q-10.1 2.7-18.3 2.6h-.35l-.15-.1-.25-.45v-.05q7.9-.8 11.7-2.55-3.5-1.05-6-4.4" fill="#151d66"/><path d="M5.7 42.75q3.6-5.7 5.75-6.95 2.5 3.35 6 4.4-3.8 1.75-11.7 2.55H5.7" fill="#514ba1"/><path d="m4.95 43.3.4.4q.3.45.85.3 7.45 0 14.2-1.75-3.95 2.2-15.15 3.2-.75 1.4-1.1 2.7l-1.55.25q-.65.05-.7-.65-.1-.7 1.4-2.5l1.65-1.95" fill="#fff"/><path d="M28.4 10.95Q25.95 12.1 22.45 16L28 7.45l.55 3.4-.15.1m-13.55 20.2-.55 1.2.85 1 .25.3q2.5 3.05 7.2 5.5l2.95 1.4q-6.7-.6-12.85-5.45-1.6-.9-1.85-2 1.05-.95 4-1.95m16.6 3.2 1.45-.7-.45-.95q-1.25-2.3-2.95-3.3l.6-1.7 3.35 4.45.05.3-.5 1.5-.5 1.45q0 .3.75.9.75.6.75.95l-.45 1.6-.55 1.4q-.35.45-1.3.6l-1.3.1-2.8 2.8 1.05.85-8.6.35 2.4-.35 4.25-.65 1.7-2-1.3-.3 1.3-.55 3-1.4 1.6-2.5-1.45-1.6-.1-1.25m-11.05 7.9 4.25-1.35-2.25 1.75q-2.4 1.7-4.15 2.55l-13.9 2.9-.2.05q.35-1.3 1.1-2.7 11.2-1 15.15-3.2" fill="#cbd9ff"/><path d="M18.6 27.8q1.75-4.85.9-7.25 2.95 5.55.95 9.4-1.05-1.55-1.85-2.15" fill="#feea57"/><path d="M27.6 35.5 24.55 37q-3.85.35-8.1-3.15 1.6-.2 2.4-3.65 1.4 2.2.75 5.05 2.2-3.5-1.3-6.75l-1.25-1.05q.65-.35 1.55.35.8.6 1.85 2.15 2-3.85-.95-9.4 4.2 3.8 3.35 9.95l-.05.2-.1.7q0 1.1.75 2 .8.95 2.05.95 1.8 0 3.7-2.05l-.6 1.8-1 1.4" fill="#c77311"/><path d="m17.05 27.45 2.45-6.9q.85 2.4-.9 7.25-.9-.7-1.55-.35" fill="#fffdde"/><path d="m16.85 28.05.2-.6 1.25 1.05q3.5 3.25 1.3 6.75.65-2.85-.75-5.05l-.8-1.05-1.2-1.1" fill="#8d510b"/><path d="m16 33.45-1.1-1 1.95-4.4 1.2 1.1-2.05 4.3" fill="#fffcdc"/><path d="m16.45 33.85-.45-.4 2.05-4.3.8 1.05q-.8 3.45-2.4 3.65" fill="#ffe957"/><path d="M21.45 21.6q3.75 2.45 5.3 7.6 3.75.55 5.15 4.15l-1.85.95.15-.75-.2-1.35q-.25-.85-.8-.85-.3 0-1.05.55l-1.7.5-1.6-.35q-.85-.4-.7-.9.05-7.65-2.7-9.55" fill="#ffe958"/><path d="m15.1 30.5-.25.65q-2.95 1-4 1.95.25 1.1 1.85 2l-1.1-.05-.65.05q-1.9.35-3.65 2.3l1.05-1.95 2.05-3.25q2.15-1.5 4.7-1.7" fill="#fffeff"/><path d="m11.6 35.05 1.1.05q6.15 4.85 12.85 5.45-6.6.3-13.95-5.5" fill="#140943"/><path d="m22.55 37.4 2 .3 4-1.95-.15 5.35-1.3.55 1.3.3-1.7 2-4.25.65-.05-1.95 2.25-1.75.9-.35-2.95-1.4-.05-1.75" fill="#6e6fa7"/><path d="M15.4 33.65q2.85 2.85 7.15 3.75l.05 1.75q-4.7-2.45-7.2-5.5m2.85 11.55q1.75-.85 4.15-2.55l.05 1.95-2.4.35h-.75l-1.05.25" fill="#7f9bc2"/><path d="M28 7.45h.05l1.5 1.1.15 1.8.1.1-1.25.4-.55-3.4" fill="#7cb5d2"/><path d="M28.05 7.45 28.3 7l1.9 1.4-.5 1.95-.15-1.8-1.5-1.1" fill="#c9d9fd"/><path d="m30.4 10.4 2.05 2.8h.45L34 13q.5 0 .25 1.8-.2 1.55-3.75 11.8l-.4 1.1-.6 1.7q-.9-.6-1.9-.75l4.65-12.8.2-.95-.2-.9-2.45-3.55.6-.05" fill="#446181"/><path d="m28.55 35.75 2.9-1.4.1 1.25L33 37.2l-1.6 2.5-3 1.4.15-5.35" fill="#7bbbd7"/></g><g id="B" fill-rule="evenodd"><path d="M4.9.25q22.35-.1 29.3 17.3-6.8-3.15-11.2-1.9 2.05-2.85 9.25-.55Q24.95 1.85 6.6 1.4l-.9-.05-2.85.6q-1.8.8-2.8 1.95Q.8 1.55 4.9.25m17.9 13.5q-1.25-6.45-8.1-6.6 7.75-2.8 8.1 6.6" fill="#4b1b35"/><path d="m23 15.65-.2-1.9q-.35-9.4-8.1-6.6Q12.8-.25 0 4.05l.05-.15q1-1.15 2.8-1.95l2.85-.6.9.05q18.35.45 25.65 13.7-7.2-2.3-9.25.55" fill="#250b28"/><path d="M4.9.25Q30.3-2.3 36.75 20l.35 1.2-.15.3-.6.25h-.05l-.45-.15-.25-.4q-4.3-6.2-13.3-4.95-.25-8.3-8.3-8.5-1.25-6.35-14-3.7 12.8-4.3 14.7 3.1 6.85.15 8.1 6.6l.2 1.9q4.4-1.25 11.2 1.9Q27.25.15 4.9.25" fill="#1b000f"/></g><g id="C" fill-rule="evenodd"><path d="M9.15 4.75q-2.35-3.3-6-3.3-1.5 0-2 .6L1 2.4l-.05.15-.1.8-.45-.4-.35-.15v-.05Q.2-.15 5.2 0q4.9.15 7.9 1.35v.05q.5.6 1.7 1.2 1.1.55 1.55 1.25L18 7.55q-4.7-2.85-8.35-4.4l-.5 1.6" fill="#131d65"/><path d="m.85 3.35.1-.8L1 2.4l.15-.35q.5-.6 2-.6 3.65 0 6 3.3-1.25 4.2-1.5 6.55l6.1 7.65-1.35-.05-.05-.05Q9 14.75 5.55 11.5l-4.5-3.7Q.6 5.95.85 3.35" fill="#504aa0"/><path d="m.05 2.8.35.15.45.4q-.25 2.6.2 4.45l4.5 3.7q3.45 3.25 6.8 7.35l-2.2-1.95-.6-.6-.2-.25-.2-.2-2.9-2.6-3.55-3-1.9-1.9Q.2 7.6.15 6.4L0 4.05.05 2.8" fill="#160843"/><path d="m18 7.55-1.65-3.7q-.45-.7-1.55-1.25-1.2-.6-1.7-1.2v-.05q2.95 1.2 3.35 1.6L18.8 8l-.8-.45" fill="#16093f"/><path d="m9.15 4.75.5-1.6Q13.3 4.7 18 7.55l.8.45 1.1.7-.25 3.55-.05.75-.05.7-.2 3.8-.65.3.55-8.65-8.45-4.7-.65-.35-.4 1.15q-.9 2.55-1.4 6.05L13.9 18l.05.05.7.85-.9.05-6.1-7.65q.25-2.35 1.5-6.55" fill="#8b500a"/><path d="M13.95 18.05 13.9 18l-5.55-6.7q.5-3.5 1.4-6.05l.4-1.15.65.35-.25.95q-.65 3-.45 5.45l1.3-.2q1.85 0 1.85 1.7 0 1.2-.9 1.5 1.55 1.6 3.05 3.95l-.75.45-.4-.05-.3-.15" fill="#fefedc"/><path d="m10.8 4.45 8.45 4.7-.55 8.65-.5.2-.05-8.5-7.6-4.1.25-.95m5.3 19.45q.15-.6.85-1.05l1.3-.45 2.1-.3q.9 0 2.55.75 1.6.7.75 2.2l-1 1 .25-1.2q.05-1.1-1.15-1.65l-1.5-.55h-.5l-1.45.1-.8.25-.85.45-.55.45" fill="#ca952f"/><path d="M15.4 17.8q-1.5-2.35-3.05-3.95.9-.3.9-1.5 0-1.7-1.85-1.7l-1.3.2q-.2-2.45.45-5.45 3.1 4.45 4.85 10.7v.1l.1.85-.1.75" fill="#ffe959"/><path d="m10.15 16.9 2.2 1.95v.05L9 18.15l1.15-1.25" fill="#c77414"/><path d="m9.55 16.3.6.6L9 18.15l1.35.9q-.85 2.35.6 7.95-.75-.3-1.2-.75-1.5-3.5-1.55-8.45l1.35-1.5" fill="#fee958"/><path d="M11.55 27.85q-1.65-.45-2.5-1.45-1.4-3.9-1.55-8.9l1.65-1.65.2.2.2.25-1.35 1.5q.05 4.95 1.55 8.45.45.45 1.2.75 1.3.5 3.7.6l4.1-.15.35-.05q2.3-.55 3.5-1.35h.05l1-1q.85-1.5-.75-2.2-1.65-.75-2.55-.75l-2.1.3-1.3.45q-.7.45-.85 1.05l-.05.25v.1q0 .6.7.7l.75.05.4-.05q.65-.1 1.35-.6l.85-.8-.1.55-1.05 1.1q-1 .6-2.35.5-1.25-.1-1.3-1.6v-.25q.5-1.05 1.8-1.7 1.3-.65 2.75-.65 1.4-.05 2.8.45 1.45.45 1.75 1.45.25.9.1 1.25l-.05.1q-.5 1.05-1.6 1.85-1 .65-2.65 1.1l-.7.15-.15.05q-4.5.65-7.2.1l-.6-.15" fill="#865314"/><path d="m12.4 18.9 1.35.05.9-.05 3.55-.9.5-.2.65-.3 1.65-.95.05.05v-.1l2.45-1.85-.8 1.1q-1.75 1.95-4.1 2.8l-.35.1-5.25.9h-.5l-2.15-.5-1.35-.9 3.35.75h.05" fill="#8d500d"/><path d="M10.95 27q-1.45-5.6-.6-7.95l2.15.5q.65 5.3 2.15 8.05-2.4-.1-3.7-.6" fill="#fffddc"/><path d="M19.65 12.25q3.1.25 5.25 1.1 1.7 3.5 2.3 6.45.6 1.15.05 2.35l-.3.45q-.5-4.5-2.6-8.75-1.9-.8-4.25-.85h-.5l.05-.75" fill="#8b5309"/><path d="m19.55 13.7.05-.7h.5l.25.5q.75 1.95.7 3l-.05.05-1.45-2.85" fill="#170841"/><path d="m22.7 15.75.8-1.1q-.4-1.05-3.15-1.15l-.25-.5q2.35.05 4.25.85 2.1 4.25 2.6 8.75v.05l-.5.55q-.1-1.35-1.2-3.55-1.1-2.25-2.55-3.9" fill="#ffe857"/><path d="m10.55 5.4 7.6 4.1.05 8.5-3.55.9-.7-.85.3.15.4.05.75-.45.1-.75-.1-.85v-.1q-1.75-6.25-4.85-10.7M24.5 24.65q.15-.35-.1-1.25-.3-1-1.75-1.45-1.4-.5-2.8-.45-1.45 0-2.75.65t-1.8 1.7v-.15q.05-2.3 2.05-3.25 1.95-1 4.5-1.05 2.45-.1 2.95 1.85.4 1.9-.3 3.4" fill="#c97310"/><path d="M12.5 19.55h.5l5.25-.9.35-.1q-3.4 1.6-3.65 2.6t0 1.6l.35.95v.4q.05 1.5 1.3 1.6 1.35.1 2.35-.5L20 24.1l.1-.55-.85.8q-.7.5-1.35.6l-.4.05-.75-.05q-.7-.1-.7-.7v-.1l.05-.25.55-.45.85-.45.8-.25 1.45-.1h.5l1.5.55q1.2.55 1.15 1.65l-.25 1.2h-.05q-1.2.8-3.5 1.35l-.35.05-4.1.15q-1.5-2.75-2.15-8.05" fill="#ffe957"/><path d="m19.35 17.5.2-3.8L21 16.55l-1.65.95m5.1 7.25 2-1.55.5-.55q2.3 4.8 3.15 9.6-2.55-1.05-7.4-1.25-1.45.1-2.6.6 1.25-.75 1.2-1.35-.05-.6-.6-1.55l-.5-1q1.65-.45 2.65-1.1 1.1-.8 1.6-1.85" fill="#141e66"/><path d="M18.6 18.55q2.35-.85 4.1-2.8 1.45 1.65 2.55 3.9 1.1 2.2 1.2 3.55l-2 1.55.05-.1q.7-1.5.3-3.4-.5-1.95-2.95-1.85-2.55.05-4.5 1.05-2 .95-2.05 3.25l-.35-.95q-.25-.6 0-1.6t3.65-2.6" fill="#cb9630"/><path d="m23.5 14.65-2.45 1.85q.05-1.05-.7-3 2.75.1 3.15 1.15" fill="#ca7312"/><path d="M27.25 22.15q2.8 4.9 3.55 10.65 0 1.7-.6 2.8l-.85 1.05-1.15.7q-5.8 2.45-13.55 2.55h-.95l-1.3-.9q-.75-.55-.6-1.05l-.25-10.1.6.15.2 9.8.2.55.6.4-.05.05.45.25 4.05.2 6.8-1.15 3.4-1q2.4-1.55 2.4-4.2l-.1-.65q-.85-4.8-3.15-9.6v-.05l.3-.45" fill="#17093e"/><path d="m30.1 32.25.1.65q-7.05-2.15-10.95-.3l-2.75 2.5-3.4 3.7.05-.05q3.05-4.45 6.1-6.7l.85-.45q1.15-.5 2.6-.6 4.85.2 7.4 1.25" fill="#19083c"/><path d="M30.2 32.9q0 2.65-2.4 4.2l-3.4 1-7.9-3 2.75-2.5q3.9-1.85 10.95.3" fill="#141d68"/><path d="m13.15 38.75-.6-.4-.2-.55-.2-9.8q2.7.55 7.2-.1l.15-.05.7-.15.5 1q.55.95.6 1.55.05.6-1.2 1.35l-.85.45q-3.05 2.25-6.1 6.7" fill="#504b9f"/><path d="m24.4 38.1-6.8 1.15-4.05-.2-.45-.25 3.4-3.7 7.9 3" fill="#524ca2"/></g><g id="D" fill-rule="evenodd"><path d="m28.4 13.95.3.9-3.05 4.45 1.4 2.35 3.25 1.15.95-.5q5.1 1.8 11.85 6.4l-7.25.2 16 15.25q-12.9-2.8-28.35-5h-.05q-.75 2.3-3.7 2.8-3.1.5-4.7-1.5-1.65-2-2.15-4.2l.7-.6q.9 5.75 5.6 5.75 1.75 0 2.9-1.15l.6-.75q.55-1 .55-2.25 0-1-1.2-1.8-1.1-.75-2.1-.75l-1.5.4q-.7.45-.7 1.2l.4.75.8.3.5-.15q-.35.6-1.25.6l-.8-.5q-.35-.45-.35-.85 0-1.05.85-1.75.8-.65 1.85-.65l1.55.4q1.1.5 1.3.9V31.8l3.15-3 .9-.95-1.65-2.2h-.9l.1-.25-.05-.5 1.4.2 2.85-1.4.9-.4-2.65-1.2-.9.5-2.05 1.05-.35-.4 2.25-1.45.55-.4-1.2-2.4 3.45-5.05M46.15 42.3l1.7.3 2.1.35q-8.45-7.55-18.6-17.4l-.45-.45q1.7.95 3.9 3.05l5.45-.05H41q-4.75-3.2-9.5-5.2l-2.75 1.3-2.8 1.35.7.8 1.05 1.25-4.5 4.45v3.75q.7.75.7 2l-.05.6 22.3 3.9" fill="#8c5008"/><path d="m28.15 13.15.25.8L24.95 19l1.2 2.4-.55.4-1.4-2.65 3.95-6M16.5 22.6l1.25-.35q-.15 1.95.45 2.7l-1.65.7-.05-3.05m11.9 1.1q-1.5.05-2.65-1.1l.9-.5 2.65 1.2-.9.4m-4.3 1.95h.9l1.65 2.2-.9.95q.15-1.55-2.05-2.65l.4-.5m25.85 17.3q-8.6-6.7-17.9-15.4-1.05-.9-.7-2 10.15 9.85 18.6 17.4m-9.7-14.85q-1.7-1.25-9.35-4.1l-.75.45-1.4-.25 2.75-1.3q4.75 2 9.5 5.2h-.75" fill="#ffe958"/><path d="m27.65 11.55.5 1.6-3.95 6 1.4 2.65-2.25 1.45-.3.05q-.45-1.1-.85-1.1l-.95.3q-.35.15-.55.25l-.1-.5.1-.85-.1-.4.4.15.6.2.05-.1.4-.65.65-1 .25-.1q2.5-2.15 4.7-7.95m-6.25 10.1.05-.05h-.05v.05" fill="#c7740e"/><path d="m2.35 18.45-1.2-2.35Q6.8 4.9 10.45 0l.8.1-.8 1.1q-3.45 5-8.5 15Q2.3 18.45 6 21.5l-.8-.35L3.6 20l-1.25-1.55" fill="#150b40"/><path d="m11.25.1 1.3.2 1.35 5-2 1.9.5-.3q-3.85 7.15-3.5 10.8.5 1.7 9.5-3.95-.75 3.65-2.95 7.35l-3.3.8 3.15-.5-.85 1.25q-.95 0-1.45.65-.85 1.05-.6 3.85l-.6.2-3.3-3.55-2.65 2.55-.65-5.2.8.35-2.4-4.15Q6.2 9.3 10.45 1.2l.8-1.1" fill="#534aa3"/><path d="m12.55.3.8.1 1.3 5.1-2.25 1.4-.5.3 2-1.9-1.35-5" fill="#130840"/><path d="M13.35.4 26 3.05l.5 9.35q-.6 2.3-3.25 6.25l-.9.35-6.9 2.1q2.2-3.7 2.95-7.35-9 5.65-9.5 3.95-.35-3.65 3.5-10.8l2.25-1.4-1.3-5.1" fill="#141e63"/><path d="m26 3.05 1.65 8.5q-2.2 5.8-4.7 7.95l-.25.1-.65 1-.4.65-.05.1-.6-.2.85-1.3-6.55 1.55-3.15.5 3.3-.8 6.9-2.1.9-.35q2.65-3.95 3.25-6.25L26 3.05" fill="#140941"/><path d="m20.6 21 .1.4-.1.85.1.5-.2.1.1.25.1.15.2.25-.1.1-.15.05q-.9-.45-.8-1.95l-2.1.55-1.25.35-2.1.6-.85.25-.05 3.3-.55.2.05-3.65q.5-.65 1.45-.65l6-1.65h.15" fill="#8b520d"/><path d="m21 21.15-.4-.15h-.15l-6 1.65.85-1.25 6.55-1.55-.85 1.3" fill="#151d66"/><path d="m12.9 36.25-4 3.05-8.25-7.4-.35-.3q-.3-.3-.3-.8l.05-.15.05-.1q.8-3 3-5.25l.95.5.45.4.55.9.8-.75L8.5 23.8l3.3 3.55.6-.2.55-.2.55-.2.75-.25 2.3-.85 1.65-.7 2.45-1.3.15-.05.1-.1-.2-.25v-.5q.2-.1.55-.25l.95-.3q.4 0 .85 1.1l.3-.05.35.4.2.55.25.7.05.5-.1.25-.4.5-2.1 2.3-6.5 6-1.5 1.2-.7.6m1.9-2.35q6.35-5.2 8.85-8.75-.95-2.35-1.6-2.35-.6 0-.75.4l.3.1q.35-.05.35.2l-.15.2q-1.2 1.15-5.25 2.65l-.3.15-4.8 1.6-2.8-3.25-.4.35-3.2 2.8q-1-1.3-2-1.45-1.65 1.15-2.3 3.6l-.2.9L3 33.25l1.7 1.5 3 2.7 1.15 1 .8-.6 4.9-3.75.25-.2" fill="#46617f"/><path d="m17.75 22.25 2.1-.55q-.1 1.5.8 1.95l-2.45 1.3q-.6-.75-.45-2.7m8 6.55-3.15 3v3.55q-.2-.4-1.3-.9l-1.55-.4q-1.05 0-1.85.65-.85.7-.85 1.75 0 .4.35.85l.8.5q.9 0 1.25-.6l.3-.3.6-.45.95.3q.4.3.4.8 0 1.15-2.05 1.6l-.35.05-1.65-.2-1-1.1q-.7-.85-.3-2.4.35-1.6 3.15-3.8 2.8-2.2 2.8-2.7 0-.55-.7-.55l2.1-2.3q2.2 1.1 2.05 2.65" fill="#c77311"/><path d="m28.4 23.7-2.85 1.4-1.4-.2-.25-.7-.2-.55 2.05-1.05q1.15 1.15 2.65 1.1" fill="#ca7411"/><path d="m16.25 26.5.3-.15q4.05-1.5 5.25-2.65l.15-.2q0-.25-.35-.2l-.3-.1q.15-.4.75-.4.65 0 1.6 2.35-2.5 3.55-8.85 8.75 3.9-5.1 1.45-7.4" fill="#7bbcdc"/><path d="m19.45 37.2-.5.15-.8-.3-.4-.75q0-.75.7-1.2l1.5-.4q1 0 2.1.75 1.2.8 1.2 1.8 0 1.25-.55 2.25l-1.4.65-1.5.15q-2.25 0-3.5-1.25-1.3-1.3-1.3-3.65l.1-.95 6.5-6q.7 0 .7.55 0 .5-2.8 2.7t-3.15 3.8q-.4 1.55.3 2.4l1 1.1 1.65.2.35-.05q2.05-.45 2.05-1.6 0-.5-.4-.8l-.95-.3-.6.45-.3.3" fill="#fee958"/><path d="m14.4 23.2 2.1-.6.05 3.05-2.3.85.15-3.3" fill="#fefedc"/><path d="m9.65 37.85-.8.6-.6-13.25.4-.35 2.8 3.25q-.4 5.75-1.8 9.75" fill="#929df6"/><path d="m13.5 26.75.05-3.3.85-.25-.15 3.3-.75.25" fill="#fce966"/><path d="M16.25 26.5q2.45 2.3-1.45 7.4l-.25.2-4.9 3.75q1.4-4 1.8-9.75l4.8-1.6" fill="#cbd9ff"/><path d="m22.7 39.5-.6.75q-1.15 1.15-2.9 1.15-4.7 0-5.6-5.75l1.5-1.2-.1.95q0 2.35 1.3 3.65 1.25 1.25 3.5 1.25l1.5-.15 1.4-.65" fill="#fdfddb"/><path d="m8.85 38.45-1.15-1-2.25-7.65-1.65-.85.9 5.8-1.7-1.5-1-4.3-1.25 1.2q.65-2.45 2.3-3.6 1 .15 2 1.45l3.2-2.8.6 13.25" fill="#fffeff"/><path d="m24.3 33.7.3-1.4 2.25-2.1 21 12.4-1.7-.3q-11.7-3.95-21.85-8.6" fill="#ffe957"/><path d="m47.85 42.6-21-12.4-2.25 2.1-.3 1.4-.4 4.1q0-1.25-.7-2v-3.75l4.5-4.45-1.05-1.25 3.5-1.9.75-.45q7.65 2.85 9.35 4.1l-5.45.05q-2.2-2.1-3.9-3.05l.45.45q-.35 1.1.7 2 9.3 8.7 17.9 15.4l-2.1-.35" fill="#c97310"/><path d="M24.3 33.7q10.15 4.65 21.85 8.6l-22.3-3.9.05-.6.4-4.1" fill="#fffddc"/><path d="m30.15 24.45-3.5 1.9-.7-.8 2.8-1.35 1.4.25" fill="#ca932c"/><path d="m3.6 20 1.6 1.15.65 5.2-.8.75L3.6 20" fill="#9669d0"/><path d="m4.05 25.8-1.7-7.35L3.6 20l1.45 7.1-.55-.9-.45-.4" fill="#130b3e"/><path d="M6 21.5q-3.7-3.05-4.05-5.3 5.05-10 8.5-15Q6.2 9.3 3.6 17.35L6 21.5" fill="#9568cf"/><path d="m3 33.25-2.45-2.2.2-.9L2 28.95l1 4.3" fill="#ccd8ff"/><path d="m7.7 37.45-3-2.7-.9-5.8 1.65.85 2.25 7.65" fill="#cad8ff"/></g><g id="E" fill-rule="evenodd"><path d="m54.35 40.95.1.1 2.05 2.05-1.4 5.8-.9-.8 1.2-4.65-1.35-1.9q-9.5.9-16.85 4.75l-4.1 2.45-2.2 1.6v.3q-.1 1.8.5 4.6l-1.15-4.85q1.25-1.15 2.65-2.15 2.6-1.9 5.6-3.3 4.15-2.05 9.05-3.05l6-.9.8-.05" fill="#8d520e"/><path d="M15.35 24.65Q16.9 24 18.3 22.2q1.35-1.8 1.7-3.85.35-2.05-.4-1.8-.75.25-1.6 1.55l-1 1.6Q15.55 12.3 0 0q36.95 4.05 38.2 31l-2.45-.4Q34.85 9.5 8.95 3L4.9 2.1q8.75 5.7 12.45 14.5l.95-.9q.95-.8 1.7-.9h.4q.8.05 1.15 1l.25 1.1.15 1.95q.05 1.9-2.2 5.1-1.65 2.25-3.05 2.9l-1.35-2.2" fill="#46617f"/><path d="m4.9 2.1 4.05.9q25.9 6.5 26.8 27.6l-1.45-.5q-1-8.45-3.45-11.85-5.75-8.3-20.75-14.3Q16.55 9.4 20.4 14.8H20q-.75.1-1.7.9Q15.25 8.35 4.9 2.1" fill="#cad8fd"/><path d="M7.4 39.4q-3.8-14-.6-27.15l.2-.8q.15-.25.55-.25l.6.4.65 1.25 6.55 11.8 1.35 2.2-.7.25h-.4q1.9 3 5.9 6.7-.25 3.45-2.6 7.25l-.65 1-1.85 2.5-.6.65-.55.65q-1.6-1.35-1.75-4.5l.1-1.55-2.2 5.3h-.1l-1.5-1.75-.95-2-.35 1.4-1.1-3.35m.1-24-.1 8.05q0 2.8.15 5.3.15 2.55.45 4.75.5 4 1.45 6.8.75 2.2 1.75 3.6l.65-1.7q.65-1.65 1.65-3.05.1-.2.55-.2l.2-.4-.2 2.3.05.55q.25 2.9 1.2 3.6l.4-.4 1-1.25q2.85-3.65 4.15-8.4l.25-.95q-8.35-7.4-13.6-18.6" fill="#091696"/><path d="m7.85 17.8-.35-2.4Q12.75 26.6 21.1 34l-.25.95q-8.2-7.7-13-17.15" fill="#5643ae"/><path d="m7.5 15.4.35 2.4Q8.6 23 10 27.75l-2.6-4.3.1-8.05M13 36l1.6-1.9-.35 4.45-.2.4q-.45 0-.55.2-1 1.4-1.65 3.05l-.65 1.7q-1-1.4-1.75-3.6L13 36" fill="#4fffff"/><path d="M8 33.5q-.3-2.2-.45-4.75l4.15 4.05.85 2.2L8 33.5" fill="#4dffff"/><path d="M10 27.75Q8.6 23 7.85 17.8q4.8 9.45 13 17.15-1.3 4.75-4.15 8.4-.7-6.65-2.1-9.25L13 36l-.45-1-.85-2.2-1.7-5.05" fill="#2728c1"/><path d="m7.4 23.45 2.6 4.3 1.7 5.05-4.15-4.05q-.15-2.5-.15-5.3" fill="#3086e9"/><path d="m8 33.5 4.55 1.5.45 1-3.55 4.3Q8.5 37.5 8 33.5" fill="#2f87e9"/><path d="m53.55 41-6 .9q-.85-1.75-2.65-2.9l-2.45-1.5 1.8.2q1.15 0 2-.5 1.85-.2 2.55-1l4.75 4.8M11.4 45.1l2.2-5.3-.1 1.55q.15 3.15 1.75 4.5l.55-.65q3.5 1.15 11.3-1.3 1.9 2.5 3.15 6.5h-.05q-.05 1.9 1.05 6.9l.3-.95.55 4.95H25l-.2.3-.3-1.7-.3-2.45q0-.6 2.05-2 2-1.45 1.95-3.1-.05-1.65-1.35-4l-.95-3.45-7.7 5.1q-5.6-.6-6.6-1.6l-.2-3.3" fill="#ccd8ff"/><path d="m16.4 55.55-.2 1.15q-5.55-3.05-8.5-10.1l.8-3.85.35-1.4.95 2 1.5 1.75h.1l.2 3.3q1 1 6.6 1.6l-.55 1.3q-2.45.85-4.65.7 2.45 3.45 3.4 3.55m1.9-39.85-.95.9Q13.65 7.8 4.9 2.1q10.35 6.25 13.4 13.6" fill="#fff"/><path d="M16.2 57.4Q8.6 53.3 5.9 46.6l1.5-7.2 1.1 3.35-.8 3.85q2.95 7.05 8.5 10.1l.2-1.15q.35-2 1.25-4.25l.55-1.3 7.7-5.1.95 3.45.95 3.45-.8.45q-1.2.75-2.5 2l-.2.25-.05-1 1.5-1.1.95-.75.3-.25-.3-1.25-.15-.6-.05-.35-.35-1.4-.45-1.9-6.7 4.6q-.8 1.75-1.45 3.6l-.5 1.8-.15.5-.25 1.05-.05.15-.4-.2" fill="#456284"/><path d="m21.8 16.9-.25-1.1q-.35-.95-1.15-1-3.85-5.4-10.3-10.85 15 6 20.75 14.3 2.45 3.4 3.45 11.85l-2.5-1.3q-3.55 5.4-6.9 8.5 3.3-10.05-3.1-20.4" fill="#8fb2ea"/><path d="M38.5 44.95q-3 1.4-5.6 3.3-1.2-2.85-2.95-5.25l1.35-.65q1.15-.6 2.25-.6t4.95 3.2M16 27.1l.7-.25q1.4-.65 3.05-2.9 2.25-3.2 2.2-5.1l-.15-1.95q6.4 10.35 3.1 20.4L23 38.9l.15-1.25q0-2.95-1.85-5.5T16 27.1m22.55 32.75L36.6 61.3H35q.15-5.35-1-9.75l1.75-2.6q1.05 6.65 2.8 10.9" fill="#cbd9ff"/><path d="m31.95 29.65.15.05 1.2 1.3 2.65 2.55.35.3q-8.75 5.9-13.05 5.45 6.15-.15 8-3.95 1.65-3 .7-5.7M50.1 51.2l-4.7 3.5q-1.85-4.5-5.8-8.7 3-1.7 8.1-3 2.4 4.15 2.4 8.2" fill="#c97310"/><path d="M32.1 29.7q6.65 4.25 13.6-.6 1 1.95 1.25 3.4.2 1.45 0 2.25l-.05.25-.45-.75q-1-2.05-2.55-3.35-1.05 1.05-3.4 1.5 2.3 1.4 3.6 3.6l.45.8-.2.1-2.5-.15q-2.1-.35-3.35-1.2l-2.15-1.65-.05-.05-.35-.3L33.3 31l-1.2-1.3" fill="#d39a2f"/><path d="M38.2 31q3.85.05 7.5-2.95.75.15 1.45 2.2.7 2.1.75 3.6.05 1-.4 1.9l-.35.55-.15.2-.75.7q-.85.5-2 .5l-1.8-.2-2.7-.85Q37.1 35.5 36.2 34.8q-7.15 5.45-13.6 5.2l.15-.3.25-.8 1.9-1.6q3.35-3.1 6.9-8.5l2.5 1.3 1.45.5 2.45.4m-6.25-1.35v-.05q-4.3 6.35-8.7 9.7 4.3.45 13.05-5.45l.05.05 2.15 1.65q1.25.85 3.35 1.2l2.5.15.2-.1h.05l.8-.35.9-.5.05-.05.55-.9.05-.25q.2-.8 0-2.25-.25-1.45-1.25-3.4-6.95 4.85-13.6.6l-.15-.05" fill="#8e540b"/><path d="M23.25 39.3q4.4-3.35 8.7-9.7v.05q.95 2.7-.7 5.7-1.85 3.8-8 3.95" fill="#ffe957"/><path d="M18.9 41.05q2.35-3.8 2.6-7.25-4-3.7-5.9-6.7h.4q3.45 2.5 5.3 5.05 1.85 2.55 1.85 5.5L23 38.9q-2.05 1.5-4.1 2.15" fill="#429cea"/><path d="m16.4 44.55 1.85-2.5q2.05-.75 4.1-2.1l.25.05q-.7 1.5-2.45 2.75-2.05 1.45-3.75 1.8" fill="#45a1ea"/><path d="m18.25 42.05.65-1q2.05-.65 4.1-2.15l-.25.8-.4.25q-2.05 1.35-4.1 2.1" fill="#436080"/><path d="M14.6 34.1q1.4 2.6 2.1 9.25l-1 1.25-.4.4q-.95-.7-1.2-3.6l-.05-.55.2-2.3.35-4.45" fill="#2d87e8"/><path d="M47.55 41.9q-4.9 1-9.05 3.05-3.85-3.2-4.95-3.2t-2.25.6l-1.35.65q1.75 2.4 2.95 5.25-1.4 1-2.65 2.15-1.25-4-3.15-6.5-7.8 2.45-11.3 1.3l.6-.65q1.7-.35 3.75-1.8Q21.9 41.5 22.6 40q6.45.25 13.6-5.2.9.7 3.55 1.85l2.7.85L44.9 39q1.8 1.15 2.65 2.9" fill="#9097f1"/><path d="m19 50.5 6.7-4.6.45 1.9-2.7 1.6L19 50.5" fill="#141e65"/><path d="m46.9 35-.55.9-.05.05-.9.5-.8.35h-.05l-.45-.8q-1.3-2.2-3.6-3.6 2.35-.45 3.4-1.5 1.55 1.3 2.55 3.35l.45.75m5.5 14.45q.15-3.35-2-6.85l2.2-.4q1.85 4.7 1.6 5.9l-1.8 1.35m-33.85 9.1 1.3 1.65q-3.6 1.55-4.25 5.2-.35-1.2-.55-2.85.95-1.45 3.5-4" fill="#c77310"/><path d="m54.35 40.95-.8.05-4.75-4.8q-.7.8-2.55 1l.75-.7.15-.2 1.9-.8 5.3 5.45" fill="#455f82"/><path d="M37.2 46.3q7.35-3.85 16.85-4.75l1.35 1.9-1.2 4.65q.25-1.2-1.6-5.9l-2.2.4q2.15 3.5 2 6.85l-2.3 1.75q0-4.05-2.4-8.2-5.1 1.3-8.1 3 3.95 4.2 5.8 8.7l-4.35 3.25q-.5-8.2-3.85-11.65" fill="#d59b30"/><path d="M31.4 55.25q-.6-2.8-.5-4.6l.05-.05-.05-.25 2.2-1.6 4.1-2.45q3.35 3.45 3.85 11.65L39 59.5q-1.7-5.3-2.85-11.5-1.15.9-2.35 2.8l-.5-1.5-2.35 1.3.7 4.15-.25.5" fill="#fee95a"/><path d="m54.2 48.1.9.8-17.7 13.4-7.6.15h-.95L25 62.5l-1.2 2.4-.3-.6-.25-.5q-.6-1.55-.75-3.9v-.6q-.15-2.05.1-4.6l1.65-1.2.05 1-1 1q-.5 4.5.55 7.5l.95-1.4.2-.3h11.6l1.95-1.45.45-.35 2.05-1.55 4.35-3.25 4.7-3.5 2.3-1.75 1.8-1.35" fill="#446183"/><path d="m30.25 50.4 1.15 4.85.25-.5q1.05-2.35 2.15-3.95 1.2-1.9 2.35-2.8Q37.3 54.2 39 59.5l-.45.35q-1.75-4.25-2.8-10.9L34 51.55q-1.7 2.6-2.45 4.8l-.3.95q-1.1-5-1.05-6.9h.05" fill="#8c510b"/><path d="m30.95 50.6 2.35-1.3.5 1.5q-1.1 1.6-2.15 3.95l-.7-4.15" fill="#c9730e"/><path d="m26.7 50.15.3 1.25-.3.25-2.45-.2v-.05l1.35-.5 1.1-.75" fill="#0b4696"/><path d="m26.15 47.8.35 1.4q-1.2.2-2.45.85l-.35.9q0 .4.4.45l.15.05 2.45.2-.95.75-1.25-.15-3.4-.4-1.7 1.4q1-1.9 4.05-3.85l2.7-1.6" fill="#0b1b94"/><path d="m26.5 49.2.05.35-1.45.5q-.75.3-1.4.9l.35-.9q1.25-.65 2.45-.85" fill="#0c8af0"/><path d="m26.55 49.55.15.6-1.1.75-1.35.5h-.15q-.4-.05-.4-.45.65-.6 1.4-.9l1.45-.5" fill="#16e2fd"/><path d="M24.5 54.25q1.3-1.25 2.5-2v.55L24.5 55v-.75" fill="#cbd7ff"/><path d="m24.3 54.5.2-.25V55l2.5-2.2v-.55l.8-.45-.95-3.45q1.3 2.35 1.35 4 .05 1.65-1.95 3.1-2.05 1.4-2.05 2l.3 2.45.3 1.7-.95 1.4q-1.05-3-.55-7.5l1-1" fill="#fefeff"/><path d="m25.75 52.4-1.5 1.1.25-1.25 1.25.15" fill="#141d68"/><path d="m24.5 52.25-.25 1.25-1.65 1.2q-.25 2.55-.1 4.6l-1.65.7q-2.35-2.7-3.3-5.9.65-1.85 1.45-3.6l4.45-1.1q-3.05 1.95-4.05 3.85l1.7-1.4 3.4.4" fill="#514ca0"/><path d="m32.1 61.3-.55-4.95q.75-2.2 2.45-4.8 1.15 4.4 1 9.75h-2.9" fill="#8e92f3"/><path d="M22.5 59.3v.6q-1.5 1.1-2.25.85l-.4-.55-1.3-1.65-.35-.45-1.3-1.7.15-.5 3.15 4.05.65.05 1.65-.7" fill="#160941"/><path d="m16.65 57.45.25-1.05 1.3 1.7q-2.1 1.9-3.6 3.8-.55 2 1.4 5.65l-.35 1.25-.35 4.05q-1.65-3.65-2.4-10.9l3.25-3.6.45-.75.05-.15" fill="#fffdda"/><path d="M29.8 62.45Q17.4 76.15 15.45 74.9q-2.55-4.95-3.15-13.1l3.9-4.4.4.2-.45.75-3.25 3.6q.75 7.25 2.4 10.9l.35-4.05.45.2v5.25q2.9-.85 12.75-11.8h.95" fill="#8c5209"/><path d="m23.25 63.8.25.5h-.05Q17 67.95 16 67.55q-1.95-3.65-1.4-5.65 1.5-1.9 3.6-3.8l.35.45q-2.55 2.55-3.5 4 .2 1.65.55 2.85l.4.95.45.8q2.9-1 6.8-3.35" fill="#93550c"/><path d="m19.85 60.2.4.55q-3.55 1.1-4.25 5.6l-.4-.95q.65-3.65 4.25-5.2" fill="#835025"/><path d="M17.55 54.1q.95 3.2 3.3 5.9l-.65-.05-3.15-4.05.5-1.8" fill="#9768d2"/><path d="M16.4 55.55q-.95-.1-3.4-3.55 2.2.15 4.65-.7-.9 2.25-1.25 4.25" fill="#cbd7fd"/><path d="m23.5 64.3.3.6 1.2-2.4 3.85-.05Q19 73.4 16.1 74.25l7.35-9.95h.05" fill="#c87411"/><path d="m15.65 68.8.35-1.25q1 .4 7.45-3.25l-7.35 9.95V69l-.45-.2" fill="#ffe955"/></g><g id="F" fill-rule="evenodd"><path d="m29.35 7.2-.5.65-.55.85-1.4 2.15q-1.15 2.05-.25 3.1.85 1.05 5.75 1.2-2.55.35-4.2 1.15-1.65.8-3.5 2.4-1.9 1.65-1.65 2.75.25 1.05.7 1.15.4.1.8.55l-1.6-.5-.25-.65.05.05q-.2-.45-.1-1.55v-.2q.25-1.05 2.55-2.8l.6-.45.1-.1q1.9-1.35 2.9-1.5l-.65-.1q-.85-.2-1.55-.75l-.5-.5q-.5-.6-.4-1.45l.05-.5q.15-1 .8-1.95l1.3-2.05.8-1 2.4-2.3q1.45-1.4 3-2.3l2.5-1.1 2.1-.85-4.55.7-.4.1Q14.7 5 10.35 16.65l-.4-.25Q14.25 2.95 38.2.15L40.05 0l2 .3Q41.7.2 38.4 1.35 35.1 2.5 32.35 4.5q-1.85 1.3-3 2.7" fill="#1c0114"/><path d="m33.7 1.4.4-.1 4.55-.7-2.1.85-2.5 1.1Q25.3 6.5 19.7 11.05h-.05l-.35.35q-.2.2-.25.55-.1.35 1.55.45l3 .45q1.3.4 2.5 1.25l.5.5q.7.55 1.55.75-8.25-1.25-9.65.35-1.05 1.6 1.2 3.5 1.9 1.6 3 2.8-.7-.4-1.8-.5h-.3q-3-2.15-3.85-2.3l-1.7.05-.85.25-3.2-2.45q.95-2.9 4.35-7.1Q22.6 4.85 33.7 1.4" fill="#250b28"/><path d="M34.05 2.55q-1.55.9-3 2.3l-2.4 2.3q-1.3.25-4.1 1.35-2.9 1.1-2.65 2.4.2 1.25 3.85 1.25l-.05.5q-.1.85.4 1.45-1.2-.85-2.5-1.25l-3-.45q-1.65-.1-1.55-.45.05-.35.25-.55l.35-.35h.05q5.6-4.55 14.35-8.5" fill="#4b1a37"/><path d="m28.65 7.15-.8 1-1.3 2.05q-.65.95-.8 1.95-3.65 0-3.85-1.25-.25-1.3 2.65-2.4 2.8-1.1 4.1-1.35" fill="#b575d6"/><path d="M28.85 7.85h3.35q-2.1 1.2-3.3 3.05-1.15 1.75.35 3.15.95.85 2.1.9l2.8.1q-2.05.2-6.55 2.95-4.7 2.85-2.85 5.3l-4.7-.05-2.7.35-.25.05-.25.1q-.9.35-.55.9l.05.4-2.1-.85q1.95-1.6 4.45-1.95l4.25.4 1.6.5q-.4-.45-.8-.55-.45-.1-.7-1.15-.25-1.1 1.65-2.75 1.85-1.6 3.5-2.4 1.65-.8 4.2-1.15-4.9-.15-5.75-1.2-.9-1.05.25-3.1l1.4-2.15.55-.85" fill="#7bbedb"/><path d="M41.55 23.85v2.6l-.75.05q.2-5.95-1.1-10.75-1.45-5.8-3.8-7.9h-7.05l.5-.65h6.75q5.1 5.8 5.45 16.65" fill="#436082"/><path d="m28.15 15.35.65.1q-1 .15-2.9 1.5l-.1.1q-1.3-.7-1.8-.85l-2.1-.15q-1.6-.05-1.75.55-.15.5 0 1.05.15.5.45.75l.75.75 1.3 1.15v.2q-.1 1.1.1 1.55L22.7 22q-1.1-1.2-3-2.8-2.25-1.9-1.2-3.5 1.4-1.6 9.65-.35" fill="#4f1e3c"/><path d="m25.8 17.05-.6.45q-2.3 1.75-2.55 2.8l-1.3-1.15-.75-.75q-.3-.25-.45-.75-.15-.55 0-1.05.15-.6 1.75-.55l2.1.15q.5.15 1.8.85" fill="#b476d7"/><path d="M32.2 7.85H35q2.8 7.4.75 12l.05-.35q0-.6-.4-1t-1-.4q-.6 0-1 .4t-.4 1q0 .6.4 1t1 .4q.6 0 1-.4l.05.05Q34.3 22.65 32 24.1l.35-1.2q0-1.1-.95-1.85t-2.3-.75q-1.35 0-2.3.75-.95.75-.95 1.85t.95 1.85l.35.25q-6.5-.3-10.05-1.35l.25-.05 2.7-.35 4.7.05Q22.9 20.85 27.6 18q4.5-2.75 6.55-2.95l-2.8-.1q-1.15-.05-2.1-.9-1.5-1.4-.35-3.15 1.2-1.85 3.3-3.05" fill="#ccd8fe"/><path d="m13.55 26.6-.2.6-1.25 3.3-.05.1-.25.3-.05.05-.4.15-.15-.05h-.05L9.8 30.7l-.7-.2Q4.65 29.2.4 27.4q-.75-2.65 0-7.55Q3.7 17.6 9.1 16l.85.4.4.25q.3.15.65.4l3.2 2.45.5.45.4.85-.15.65-.45 1.85-.25.9-.5 1.85-.2.55M9 16.7l-.05.05Q4.3 17.95 1.2 20.1l-.4.3q-.5 3.5 0 6.65l.5.2 9.8 3.15.55-.2q1.2-2.95 2.05-6.2l.65-2.85-.1-.8q-2.35-2.3-5.05-3.7l-.2.05" fill="#651413"/><path d="M10.35 16.65Q14.7 5 33.7 1.4 22.6 4.85 15.35 9.95q-3.4 4.2-4.35 7.1-.35-.25-.65-.4" fill="#4a1a34"/><path d="m14.2 19.5.85-.25 1.7-.05q.85.15 3.85 2.3l-.85-.05h-.15l-1.45-.9q-1.15-.7-2.25.2l-.4.8-.1 1.1-.9.65.45-1.85.15-.65-.4-.85-.5-.45" fill="#4b1932"/><path d="m15.4 22.65.1-1.1.4-.8q1.1-.9 2.25-.2l1.45.9q-2.25.05-4.2 1.2" fill="#b376d5"/><path d="M35 7.85h.9q2.35 2.1 3.8 7.9 1.3 4.8 1.1 10.75l-2.4.2q2.5-4.3-.95-12.4 1.95 9.45-3.55 12.65-10.65.35-17.55-1.9l-.05-.4q-.35-.55.55-.9l.25-.1Q20.65 24.7 27.15 25q.85.5 1.95.5 1.35 0 2.3-.75l.6-.65q2.3-1.45 3.45-3.55l.05-.1.25-.6q2.05-4.6-.75-12" fill="#a9ceff"/><path d="m22.7 22 .25.65-4.25-.4q-2.5.35-4.45 1.95l.25-.9.9-.65q1.95-1.15 4.2-1.2h.15l.85.05h.3q1.1.1 1.8.5" fill="#1d010f"/><path d="M11.35 29.75q2.2-5.8 2.5-8.75L9 16.7l.2-.05q2.7 1.4 5.05 3.7l.1.8L13.7 24q-.85 3.25-2.05 6.2l-.3-.45" fill="#e152ac"/><path d="M8.95 16.75 9 16.7l4.85 4.3q-.3 2.95-2.5 8.75L9.5 27.1l.25-1.9.15-1.2.25-1.75-.65-.65L7.75 20l1.2-3.25" fill="#73153a"/><path d="M10.15 22.25 9.9 24l-4.95 2.05-1.65-.35.15-1.25 6.7-2.2" fill="#ff62cb"/><path d="m9.5 21.6.65.65-6.7 2.2-.15 1.25v.05l-2 1.5-.5-.2Q.3 23.9.8 20.4l.4-.3 1.85 1.45h.05q-.2.85.15 1.1l1 .15q1.6 0 5.25-1.2m.4 2.4-.15 1.2-3.5 1.1-1.3-.25L9.9 24" fill="#ffabc5"/><path d="m43.9 36.25-6.4-.4-1.45-.3-4.7-1.2q-3.95-1.1-7.15-2.3-6.9-2.5-10.65-5.45l.2-.55q7.95 4.1 16.7 6l.9.2 8.7 1.25 3.85 2.75M27.15 25l-.35-.25q-.95-.75-.95-1.85t.95-1.85q.95-.75 2.3-.75 1.35 0 2.3.75.95.75.95 1.85L32 24.1l-.6.65q-.95.75-2.3.75-1.1 0-1.95-.5" fill="#fff"/><path d="M41.55 24.65v-.8l4.2 2.65v2.85q2.15 2.85 4.15 7.55l-13.2-.55-1-.2-4.35-1.05-2.3-.7h-.15l-.1-.05-.3-.1-1.45-.45-1.2-.4-1.25-.5-1.05-.4q-3.3-1.35-6.3-3l-3-1.75-.9-.55.2-.6q3.75 2.95 10.65 5.45 3.2 1.2 7.15 2.3l4.7 1.2 1.45.3 6.4.4h4.85q-1.1-3.4-3.65-6.8l-.1-2.8-2.95-1.7-.5-.3" fill="#446183"/><path d="m13.35 27.2.9.55.9 1.5v.05l-.5-.4-.95-.3q-.25.15-.55.25.05.3.45.8l.7.7.05.2.05.2.05.15.3.25q.5.1.3.8l.15-.1.45-1.1.1-1.05.7.1q1.05.9 1.35 1.8l.4 1.55v.6q.85 0 .85-.7l-.1-.35v-.3l.3-.25 1.2.05 1.25.4.7.3h2.2l1.25.5.05.55v.25l-.05.3-.25.4-.5.2-1.1.1.1-.05q.2-.1.45-.25l.6-.75v-.05q0-.55-.55-.55-.35 0-.8.3l-.25.2-.15.1-.1.05q-.25.25-.25.6l.1.3-.5-.05-.25-.1.3-.5h.05v-.3q-.05-.55-.4-.55-.25 0-.25.3l-.1.25-.55.65q-.55.5-1.25.75h-.35l-1.5-.35-1.1-.8.4-.3.15-.1.05-.05.1-.5q0-.65-.8-1.8l-.95-1.2.05 1.05-.25 1.35-.05.1-.75.3h-.45l-1-.15-.75-.3-.5-.6h.9l.85-.05.45-.15h-.4q.05-.7-.6-1.1l-.7-.25-.9-.15 1.25-3.3m6 5.2.2.4.1.3q0 .55-.4.85l-.2.15-.1.15-.25.35.9.15.75-.15.65-.35.15-.1q.5-.45.35-.85l-.75-.5q-.8-.5-1.15-.5l-.25.1m3.05 2.55v.1l-.05-.1h.05" fill="#6a71bf"/><path d="m9.5 27.1 1.85 2.65.3.45-.55.2-9.8-3.15 2-1.5v-.05l1.65.35 1.3.25 3.05.55.2.25" fill="#d7305e"/><path d="m9.8 30.7 1.35.35h.05l.15.05.4-.15.05-.05.25-.3.05-.1.9.15.7.25q.65.4.6 1.1l-.25-.05-2.6-.35-.3-.1-.45-.15-.9-.65" fill="#a6b7e2"/><path d="m14.25 27.75 3 1.75.9.85.65 1.05q1.3-.45 2.65.5l.55.45.4.55-.7-.3-1.25-.4-1.2-.05-.3.25-1.15-1.5-1.35-1.1-.7-.1-.1 1.05-.45-1.4v-.05l-.05-.05-.9-1.5m14.55 6.6.1.05h.15q-.5.8-1.3.85-.95.05-1.4-.4l-.05-.1-.1.1v.05q-.8.8-1.8.9l4.45 3.5-.55-.1-.65-.1-4.45-3.4-1.05-.45-.35.25-1.55.5q-2.8 0-3.3-1.45l-1 .3-.9-.1-1.25-.55q-1.15-.7-1.6-2.05l-1.05-.1-.45-.15q-1.05-.35-1.6-1.4l.7.2.9.65.45.15.3.1 2.6.35.25.05h.4l-.45.15-.85.05h-.9l.5.6q1.1 1.3 2.2 1.6h1.1l.85-.2.3-.1.35-.1-.15.1-.4.3 1.1.8 1.5.35h.35l1.25-.3.9-.3.05.1v-.1l.25.1.5.05.4.05h.1l.35.05 1.1-.1.5-.2.25-.15.65-.55.55-.4-.3.4v.35l.2.15.5.2 1.25-.5.1-.05" fill="#140a3f"/><path d="M17.25 29.5q3 1.65 6.3 3l1.05.4h-2.2l-.4-.55-.55-.45q-1.35-.95-2.65-.5l-.65-1.05-.9-.85m8.6 3.9 1.2.4 1.45.45.3.1-.1.05-1.25.5-.5-.2-.2-.15v-.35l.3-.4-.55.4-.65.55-.25.15.25-.4.05-.3v-.25l-.05-.55m-10.2-2.65-.45 1.1-.15.1q.2-.7-.3-.8l-.3-.25-.05-.15-.05-.2-.05-.2-.7-.7q-.4-.5-.45-.8.3-.1.55-.25l.95.3.5.4h.05v.05l.45 1.4m.8-.95 1.35 1.1 1.15 1.5v.3l.1.35q0 .7-.85.7v-.6l-.4-1.55q-.3-.9-1.35-1.8m3.75 5.75q.7-.25 1.25-.75l.55-.65.1-.25q0-.3.25-.3.35 0 .4.55v.3h-.05l-.3.5h-.05l-.9.3-1.25.3" fill="#355bc8"/><path d="m13 32.8.75.3 1 .15h.45l.75-.3.05-.1.25-1.35-.05-1.05.95 1.2q.8 1.15.8 1.8l-.1.5-.05.05-.35.1-.3.1-.85.2h-1.1q-1.1-.3-2.2-1.6" fill="#a6b4e1"/><path d="M47.1 36.25h-3.2l-3.85-2.75-8.7-1.25-.9-.2q-8.75-1.9-16.7-6l.5-1.85q6.55 5 27.2 6.4l5.65 5.65" fill="#ced7ff"/><path d="m7.75 20 1.75 1.6q-3.65 1.2-5.25 1.2l-1-.15q-.35-.25-.15-1.1L7.75 20" fill="#fe61ca"/><path d="M8.95 16.75 7.75 20 3.1 21.55h-.05L1.2 20.1q3.1-2.15 7.75-3.35" fill="#d7305c"/><path d="m9.75 25.2-.25 1.9-.2-.25-3.05-.55 3.5-1.1" fill="#fe63c9"/><path d="m23.15 35.1-.1-.3q0-.35.25-.6l.1-.05.15-.1.25-.2q.45-.3.8-.3.55 0 .55.55v.05l-.6.75q-.25.15-.45.25l-.1.05-.35-.05h-.1l-.4-.05m-3.8-2.7.25-.1q.35 0 1.15.5l.75.5q.15.4-.35.85l-.15.1-.65.35-.75.15-.9-.15.25-.35.1-.15.2-.15q.4-.3.4-.85l-.1-.3-.2-.4" fill="#a7b5e2"/><path d="M35.4 20.5q-.4.4-1 .4t-1-.4q-.4-.4-.4-1t.4-1q.4-.4 1-.4t1 .4q.4.4.4 1l-.05.35-.25.6-.1.05" fill="#fefffd"/><path d="m40.8 26.5.75-.05.05.15q-3.8.9-8 1-10.4.65-17.35-2.4l.1-.15q6.9 2.25 17.55 1.9 5.5-3.2 3.55-12.65 3.45 8.1.95 12.4l2.4-.2" fill="#309ce4"/><path d="m41.55 24.65.5.3v.8l2.4 1.25v2.5l4.3 6.75H47.1l-5.65-5.65q-20.65-1.4-27.2-6.4l2 1q6.95 3.05 17.35 2.4 4.2-.1 8-1l1.1-.3-1.15.15v-1.8" fill="#79bedb"/><path d="m42.05 24.95 2.95 1.7.1 2.8q2.55 3.4 3.65 6.8l-4.3-6.75V27l-2.4-1.25v-.8" fill="#ccd8ff"/><path d="m29.05 34.4 2.3.7 4.35 1.05-.7.85q-.9 1.05-1.95 1.4l-2.65.65-1.55.25-4.45-3.5q1-.1 1.8-.9v-.05l.1-.1.05.1q.45.45 1.4.4.8-.05 1.3-.85" fill="#151d65"/></g><g id="G" fill-rule="evenodd"><path d="m31.05 2.05 1.65-.45-4 .35Q18.55 3.6 9.2 13.6 1.4 24.1.1 37.3H0Q.25 9.5 25.85.85L26 .8q2.75-.8 5.3-.8 2.65 0 6.6 1.2-7.05 1.45-11.45 7.9-3.65 5.5-1.65 12.3-3.65-.5-7.7 1.8-4.05 2.2-4.6 4.55-.55 2.35-.1 2.95-4.3.2-7.9 3.1 3.6-3.85 6.7-3.45l.5.1-.05-.75q-.7-2.85 2.1-5.2 3-2.5 7.3-3.45l2.65-.35q-2-1.05-.9-7.5 2.05-6.65 8.25-11.15" fill="#1c0112"/><path d="m28.7 1.95 4-.35-1.65.45-1.1.35Q18.85 5.85 13.8 12.7q.5 2.55-.4 6.25-.95 3.65-3.15 4-2.25.35-3.1-.35l-1.2-.85.5-.85q.3.55 1.1.85l1.2.25q2.15 0 3-2.1.8-2.1.65-3.65l-.3-1.7-.6-1.05Q16 7.2 28.7 1.95" fill="#4b1a37"/><path d="m29.95 2.4 1.1-.35q-6.2 4.5-8.25 11.15-1.1 6.45.9 7.5l-2.65.35q-4.3.95-7.3 3.45-2.8 2.35-2.1 5.2-.55-1.1-.5-2.85 0-2.2 2.2-4.15 2.2-2 7.25-3.2-1.55-10.15 9.35-17.1" fill="#4b1b35"/><path d="m5.95 21.75 1.2.85q.85.7 3.1.35 2.2-.35 3.15-4 .9-3.7.4-6.25 5.05-6.85 16.15-10.3-10.9 6.95-9.35 17.1-5.05 1.2-7.25 3.2-2.2 1.95-2.2 4.15-.05 1.75.5 2.85l.05.75-.5-.1-3.25-.6q-2.7-.25-4.35 1.85-1.3 1.6-1.85 3.8.4-7.55 4.2-13.65" fill="#250b28"/><path d="M28.7 1.95Q16 7.2 11.5 13.5l.6 1.05.3 1.7q.15 1.55-.65 3.65-.85 2.1-3 2.1l-1.2-.25q-.8-.3-1.1-.85l-.5.85q-3.8 6.1-4.2 13.65v.5l-.25.85Q1.1 38.1.65 38.1l-.35-.25-.25-.4.05-.15q1.3-13.2 9.1-23.7 9.35-10 19.5-11.65" fill="#b575d6"/><path d="M11.2 30.35q-3.1-.4-6.7 3.45l-.35.25-2.65 2.7.25-.85v-.5q.55-2.2 1.85-3.8 1.65-2.1 4.35-1.85l3.25.6" fill="#4a1a34"/></g><g id="H"><path d="M33.2 13.3v-.05Q32.15 8.9 35.25 4.5l.15-.2q1.4-1.95 3.7-3.95L41 .2q-2.85 1.25-4.9 4.1-.85 1.25-1.55 2.75-2 4.95.4 8.55-1.75.05-3 1.1-1.35 1.05-1.35 2.55 0 .65.4 1.25l.75.8q1.1.9 2.4.9l1.2-.05-1.9.15-1.7-.1-1.3-1.3-.35-.8-.1-.6v-.3q0-1.6 1.3-2.75l1.3-.8q.55-.25 1.25-.45l-.2-.55-.45-1.35" fill="#1d0211" fill-rule="evenodd"/><path d="M33.2 13.3q-3.25-.65-2.85-4.3.25-2.25 2.4-4.7 1.3-1.55 3.4-3.2 1.5-.55 2.95-.75-2.3 2-3.7 3.95l-.15.2q-6.85 3.95-2.05 8.75v.05M23 25.6q-.45-1.65.55-3.6 1.05-2.15 2.6-2.15.85 0 2.6.9l2.05 1.4-1.3.1q-1.75-1.15-3.05-1.2-1.4-.05-2.1 1.05-.75 1.05-1.35 3.5m7.1-5.5-.5-.35q-.9-.6-1.65-1.5-.8-.95-.75-2.35.05-1.45 2.65-1.55l3.8.3.2.55q-.7.2-1.25.45l-1.8-.35q-2 0-2 1.5 0 .7.6 1.8l.6.9.1.6" fill="#4a1936" fill-rule="evenodd"/><path d="M36.15 1.1q-2.1 1.65-3.4 3.2-2.15 2.45-2.4 4.7-.4 3.65 2.85 4.3l.45 1.35-3.8-.3q-2.6.1-2.65 1.55-.05 1.4.75 2.35.75.9 1.65 1.5l.5.35.35.8 1.3 1.3-.85-.05h-.1l-2.05-1.4q-1.75-.9-2.6-.9-1.55 0-2.6 2.15-1 1.95-.55 3.6l-.45-.4-.05-.55Q22.1 14.1 31.95 4.3l3-2.75 1.2-.45M16.7 30.7h.05l1.45 7.15q-.85-1.65-1.8-1.65-.25-1.05.3-5.5" fill="#250b28" fill-rule="evenodd"/><path d="M39.1.35q-1.45.2-2.95.75l-1.2.45Q32.7 2.8 30.85 4.3 22.4 11.1 20.8 23.65l-.45-.35.05-.35q.85-6.95 4.1-12.3 2.15-3.55 5.45-6.35 1.9-1.65 4.2-3Q37.5-.45 41 .2l-1.9.15" fill="#1c0112" fill-rule="evenodd"/><path d="M33.2 13.25q-4.8-4.8 2.05-8.75-3.1 4.4-2.05 8.75m-.6 2.4-1.3.8Q30 17.6 30 19.2v.3l-.6-.9q-.6-1.1-.6-1.8 0-1.5 2-1.5l1.8.35M23 25.6q.6-2.45 1.35-3.5.7-1.1 2.1-1.05 1.3.05 3.05 1.2-1.75.15-3 .75-1.7.8-2.9 2.6l-.25.3-.35-.3" fill="#b376d5" fill-rule="evenodd"/><path d="m22.55 25.2.45.4.35.3.25-.3q1.2-1.8 2.9-2.6 1.25-.6 3-.75l1.3-.1h.1l.85.05 1.7.1 1.9-.15.05.05q-1.1.55-2.65.55l-2.25-.15q-2.65 0-5 1.8L24 25.75l-.05.05-.4.3-.3.1q-.45 0-.65-.8l-.05-.2m1.95.9q11.8 1.25 17.65 10l-1.8-1q-4.55-2.25-5.6-.2h-.1l-1-.15-1.95.4q-.45-.3-1.1-.3l-.45.05.05-.5.2-.15h.5l1.1.25.25-.15.65-.2.9-.1.65.05.2-.15q1.9-1.75 5.5.8-2.45-2.35-4.65-3.9-4.8-3.3-8.8-2.9l-2.2-1.85" fill="#1d0213" fill-rule="evenodd"/><path d="m24 25.75.5.35 2.2 1.85q2 1.75 3.9 3.85l1.7 2h-2.05l-.05.6-.05.5-.05.3-.15 1.1-.15 1.4-1.05 5.85-.4.4-1.25-.7-3.4-2.05-1.05-.7-2.95-2-1.1 1.4-.3-1.55-.1-.5-1.45-7.15-.4-1.95-.2-.8h.3l-.15-.05q.2-.65.45-.7-.3.25 2.2 11.25l.75-.8q2.45 2 7.35 4.7l1 .55q.8-3 1.45-7.75v-.1l.1-.5.15-1.55 1.2.15-.6-.7q-2.75-3.1-6-5.7l-.8-.65.4-.3.05-.05m-7.1-1.05q0-2.55.5-3.85l.15-.05q1.2.15 2.85 2.15l-.05.35-1.25-1q-1.1-.7-1.25-.65-.4 1.7-.55 3.75l-.4-.7" fill="#8c510b" fill-rule="evenodd"/><path d="m21.75 25.3.5-.4.3.3.05.2q.2.8.65.8l.3-.1.8.65q3.25 2.6 6 5.7l.6.7-1.2-.15-.15 1.55-.1.5v.1q-.65 4.75-1.45 7.75l-1-.55q1.9-3.3 1.7-10.6-2.2-3.15-5.8-5.4l-1.2-1.05" fill="#ca952f" fill-rule="evenodd"/><path d="m18.35 22.8 1.9 1.25v.05q0 1.55.7 1.55l.8-.35 1.2 1.05q3.6 2.25 5.8 5.4.2 7.3-1.7 10.6l-.8-2.45.55-6.55q-3.75-5.5-7.25-7.45l-1.2-3.1" fill="#c77311" fill-rule="evenodd"/><path d="m34.95 1.55-3 2.75q-9.85 9.8-9.45 20.35l-.25.25-.5.4-.8.35q-.7 0-.7-1.55v-.05l.1-.75.45.35Q22.4 11.1 30.85 4.3q1.85-1.5 4.1-2.75" fill="#4a1a34" fill-rule="evenodd"/><path d="m21.6 34.55-.1-.9.7-.7.45-1.25q.05-.75-.55-1.25-.65-.55-1.15-.5v-1.4l4.1 4.7v4.3l-3.45-3m1.65-1.75-.25.05-.1.05-.15.25-.1.65q0 .6.75.6.9 0 .9-.75 0-.85-1.05-.85" fill="#73153a" fill-rule="evenodd"/><path d="m25.7 39.2-5.5-4q-.4-4.4 0-8.25l.75 1.6v1.4q.5-.05 1.15.5.6.5.55 1.25l-.45 1.25-.7.7.1.9 4.1 4.65" fill="#ffa9c5" fill-rule="evenodd"/><path d="M23.25 32.8q1.05 0 1.05.85 0 .75-.9.75-.75 0-.75-.6l.1-.65.15-.25.1-.05.25-.05" fill="#feacc3" fill-rule="evenodd"/><path d="m30.1 35.2 30.25 44.15q1.9 4.85 2.4 19.1l-18.7-11.1-21.4-46.85 1.05.7 5.75 12.05 1 2.1 2.5 5.25 2 4.15 4 8.3 4.8 10.1 1.5 3.1L48.1 88l1.65 1 5.4 3.25.7.45 4.9 2.95-.4-5.5-.05-.1q-.65-5.75-1.95-10.1-10.65-15.1-20.9-31.45l-7.5-12.2.15-1.1" fill="#466081" fill-rule="evenodd"/><path d="m25.7 39.2-4.1-4.65 3.45 3v-4.3l-4.1-4.7-.75-1.6q3.6 3.4 5.85 6.65l-.35 5.6" fill="#ff64ca" fill-rule="evenodd"/><path d="M17.85 21.65q.15-.05 1.25.65l1.25 1-.1.75-1.9-1.25-.5-1.15" fill="#c99530" fill-rule="evenodd"/><path d="m17.85 21.65.5 1.15 1.2 3.1q-.6 5.15 0 9.55 4.85 4.05 6.7 4.45l.8 2.45q-4.9-2.7-7.35-4.7l-.75.8q-2.5-11-2.2-11.25l1.05.4.3-.1.05.1v-.1l-.85-2.1q.15-2.05.55-3.75" fill="#ffea53" fill-rule="evenodd"/><path d="M15.85 27.95 14 27.9l-1.65.25-1.65.85.25-1.1q0-.7-.55-1.4-1.75-2-4.25-.3 1.2-3.3-6.15-9.5 13.15 2.55 16.9 8l.4.7.85 2.1h-.05l-1.2-1.9-.2-.3Q13.25 21 5.6 18.75l-.6-.2-3.25-.8 1.15.95.85.75q2.45 2.4 3.15 5l.15.6.65-.05h.2q3.3-.05 3.6 2.8l.2-.05.5-.15.7-.15.25-.05q1.7-.2 3.05.45l.1.05.15.05h-.6" fill="#1d0012" fill-rule="evenodd"/><path d="m2.9 18.7-1.15-.95 3.25.8-2.1.15m2.7.05Q13.25 21 16.7 25.3q-.35-.25-.8-.25-1.45 0-2.15.55-.65.55-.85 1.85l-.7.15q.5-.4.5-1.4 0-1.05-.6-1.8-.65-.8-1.75-.8-.85 0-1.45.45l-.65.65-.05.05-.3.25h-.2q1.65-4.75-2.1-6.25" fill="#270a28" fill-rule="evenodd"/><path d="m2.9 18.7 2.1-.15.6.2q3.75 1.5 2.1 6.25l-.65.05-.15-.6q1.35-4.8-3.15-5l-.85-.75" fill="#4b1b33" fill-rule="evenodd"/><path d="m16.7 25.3.2.3 1.2 1.9-.3.1-1.05-.4q-.25.05-.45.7l-.1-.05q.1-.5-.4-1-.55-.5-1.15-.5-.75 0-1.5 1.05l-.25.05q.2-1.3.85-1.85.7-.55 2.15-.55.45 0 .8.25m-5 2.45q.3-.85-.05-1.9-.4-1.15-1.3-1.25l-1.75-.1-.35.2.65-.65q.6-.45 1.45-.45 1.1 0 1.75.8.6.75.6 1.8 0 1-.5 1.4l-.5.15" fill="#4b1a37" fill-rule="evenodd"/><path d="M3.75 19.45q4.5.2 3.15 5-.7-2.6-3.15-5m4.5 5.25.35-.2 1.75.1q.9.1 1.3 1.25.35 1.05.05 1.9l-.2.05q-.3-2.85-3.6-2.8l.3-.25.05-.05m7.95 3.15q-1.35-.65-3.05-.45.75-1.05 1.5-1.05.6 0 1.15.5.5.5.4 1" fill="#b375d6" fill-rule="evenodd"/><path d="M17.45 39.7v.1q-.85-.55-2.05 3.5-2.05-5.05.45-15.35h.3l.2.8q-1.8 6.75-1 12.8l.65-1.3q.45-.85 1.15-.85l.3.3" fill="#1c020f" fill-rule="evenodd"/><path d="m18.3 38.35-.7 1.1q-.3-2.65-1.8-2.35-.15-2.75.9-6.4-.55 4.45-.3 5.5.95 0 1.8 1.65l.1.5" fill="#4b1936" fill-rule="evenodd"/><path d="m17.6 39.45-.15.25-.3-.3q-.7 0-1.15.85l-.65 1.3q-.8-6.05 1-12.8l.4 1.95h-.05q-1.05 3.65-.9 6.4 1.5-.3 1.8 2.35" fill="#b476d7" fill-rule="evenodd"/><path d="M26.25 39.9q-1.85-.4-6.7-4.45-.6-4.4 0-9.55 3.5 1.95 7.25 7.45l-.55 6.55M20.2 26.95q-.4 3.85 0 8.25l5.5 4 .35-5.6q-2.25-3.25-5.85-6.65" fill="#681316" fill-rule="evenodd"/><path d="m43.75 83.15-4.8-10.1-.3-10.35-3.5-5.75-.2 7.8-2-4.15-.05-7.4-2.4-3.6-.05 5.75-1-2.1.05-5.6-2.4-4.4 1.25.7.4-.4 15.1 25 1.3 4.95-1.65-2.55.25 12.2" fill="#fdfcff" fill-rule="evenodd"/><path d="m38.95 73.05-4-8.3.2-7.8 3.5 5.75.3 10.35m-6-12.45-2.5-5.25.05-5.75 2.4 3.6.05 7.4m-3.5-7.35L23.7 41.2l3.4 2.05 2.4 4.4-.05 5.6" fill="#b3c1e6" fill-rule="evenodd"/><path d="m28.75 43.55 1.05-5.85 27.55 43.75 2.8 8.05-4.6-1.95-2.75-3.85q.2-1.85-.15-3.95l-8.5-10.7-.3-.5-15.1-25" fill="#7aa6cd" fill-rule="evenodd"/><path d="m29.95 36.3 7.5 12.2q10.25 16.35 20.9 31.45 1.3 4.35 1.95 10.1l-.15-.55-2.8-8.05L29.8 37.7l.15-1.4" fill="#b4c1eb" fill-rule="evenodd"/><path d="M55.15 92.25 49.75 89l-.15-5.85 1.65.75 4.05 6.6-.15 1.75M48.1 88l-2.85-1.75-1.5-3.1-.25-12.2 1.65 2.55q1.35 5.1 2.95 9.05V88" fill="#b4c2e9" fill-rule="evenodd"/><path d="m43.85 68.55.3.5 8.5 10.7q.35 2.1.15 3.95l-.15.75-1.4-.55-1.65-.75-1.5-.6q-1.6-3.95-2.95-9.05l-1.3-4.95m2.9 4.95-1.6-2.05q1.45 6.05 3.45 10.8l3.4 1.1.1.05v-3.2l-5.35-6.7" fill="#651411" fill-rule="evenodd"/><path d="m52 83.35-3.4-1.1q-2-4.75-3.45-10.8l1.6 2.05.45 1.65.95 3.45.65-.1q1.35 0 1.35 1.6l-.15.7-.8.25 2.35 1.55.45.75" fill="#ffaac7" fill-rule="evenodd"/><path d="m51.55 82.6-2.35-1.55.8-.25.15-.7q0-1.6-1.35-1.6l-.65.1-.95-3.45 3.7 4.55.65 2.9" fill="#74143a" fill-rule="evenodd"/><path d="m46.75 73.5 5.35 6.7v3.2l-.1-.05-.45-.75-.65-2.9-3.7-4.55-.45-1.65" fill="#fe62cd" fill-rule="evenodd"/><path d="m52.8 83.7 2.75 3.85-.25 2.95-4.05-6.6 1.4.55.15-.75" fill="#fefcff" fill-rule="evenodd"/><path d="m60.3 90.05.05.1L56 88.7l-.05 2.05-.1 1.95-.7-.45.15-1.75.25-2.95 4.6 1.95.15.55" fill="#895317" fill-rule="evenodd"/><path d="M55.95 90.75 56 88.7q2.25 2.5 3.8 5.1l-3.85-3.05" fill="#ffe857" fill-rule="evenodd"/><path d="m60.35 90.15.4 5.5-.95-1.85q-1.55-2.6-3.8-5.1l4.35 1.45" fill="#ca740f" fill-rule="evenodd"/><path d="m60.75 95.65-4.9-2.95.1-1.95 3.85 3.05.95 1.85" fill="#fdfddb" fill-rule="evenodd"/><path d="m35.5 30.85.05 1.2.15 1.2q-1-2.3-3.55-1.95l-1 .15-.55.35q-1.9-2.1-3.9-3.85 4-.4 8.8 2.9" fill="#240a25" fill-rule="evenodd"/><path d="m30.6 31.8.55-.35 1-.15q2.55-.35 3.55 1.95l-.15-1.2-.05-1.2q2.2 1.55 4.65 3.9-3.6-2.55-5.5-.8l-.2.15-.65-.05-.9.1-.65.2-.25.15-1.1-.25h-.5l-.2.15.05-.6h2.05l-1.7-2" fill="#481a36" fill-rule="evenodd"/><path d="m52 83.35-3.4-1.1q-2-4.75-3.45-10.8l1.6 2.05 5.35 6.7v3.2l-.1-.05-.45-.75-2.35-1.55.8-.25.15-.7q0-1.6-1.35-1.6l-.65.1-.95-3.45-.45-1.65m4.8 9.1-.65-2.9-3.7-4.55" fill="none" stroke="red" stroke-linecap="round" stroke-linejoin="round" stroke-width=".05"/></g><g id="I" fill-rule="evenodd"><path d="M5.5 35.55q1.1-11.1 2.05-13.3.9-2.25 3.35-3.9-1.35-.5-2.1-2.35-.7-1.75-.7-4.1 0-1.95.85-4.45l1.45-4L9.2 4.6 7.5 6.4l-.8.95Q1.3 14.1.2 23.05l-.2-2.8q-.05-3.8 1.65-8.05 1.7-4.25 5.95-8.3Q11.8-.15 14.7 0q-1.6.75-3.2 4.9t-1.75 7.9q-.2 3.75 2.25 5.6-4 2.45-4.9 7.9l-1.6 9.3v-.05" fill="#1a0210"/><path d="M9.2 4.6q-2.25 4.05-2.5 8-.3 3.9 1.25 6.85-4.35 2.85-4.75 8.1l-.05.95-.1 1.1q-.5-2-.6-5.75-.1-5.15 1.1-9.35 1-3.7 3.15-7.15l.8-.95 1.7-1.8" fill="#230a27"/><path d="m3.15 28.5.05-.95q.4-5.25 4.75-8.1Q6.4 16.5 6.7 12.6q.25-3.95 2.5-8l1.2-1.15-1.45 4q-.85 2.5-.85 4.45 0 2.35.7 4.1.75 1.85 2.1 2.35-2.45 1.65-3.35 3.9-.95 2.2-2.05 13.3h-.05q-.3-3.05-.3-6.1-.05-4.5 1.85-8.5-2.75 3.25-3.2 5l-.65 2.55" fill="#4b1a37"/><path d="M6.7 7.35Q4.55 10.8 3.55 14.5q-1.2 4.2-1.1 9.35.1 3.75.6 5.75l.25.65.75 3.1.55 1.25q-2.35-2.75-3.35-6.35-.7-2.55-1-4.9l-.05-.3q1.1-8.95 6.5-15.7" fill="#4a1a34"/><path d="m3.15 28.5.65-2.55q.45-1.75 3.2-5-1.9 4-1.85 8.5 0 3.05.3 6.1l-.85-.95-.55-1.25-.75-3.1-.25-.65.1-1.1" fill="#250b28"/></g><use ffdec:characterId="1" height="34.45" width="101.4" xlink:href="#t" id="b"/><use ffdec:characterId="4" height="107.8" width="171.95" xlink:href="#u" id="d"/><use ffdec:characterId="6" height="22.6" width="22.2" xlink:href="#v" id="e"/><use ffdec:characterId="8" height="73.75" width="46.45" xlink:href="#w" id="f"/><use ffdec:characterId="10" height="30.2" width="19.45" xlink:href="#x" id="g"/><use ffdec:characterId="12" height="28.25" width="27.2" xlink:href="#y" id="h"/><use ffdec:characterId="14" height="70.8" width="48.1" xlink:href="#z" id="i"/><use ffdec:characterId="16" height="50.05" width="35.95" xlink:href="#A" id="j"/><use ffdec:characterId="18" height="21.75" width="37.1" xlink:href="#B" id="k"/><use ffdec:characterId="20" height="39.9" width="30.8" xlink:href="#C" id="l"/><use ffdec:characterId="22" height="44.15" width="51.85" xlink:href="#D" id="m"/><use ffdec:characterId="24" height="75" width="56.5" xlink:href="#E" id="n"/><use ffdec:characterId="26" height="39.3" width="49.9" xlink:href="#F" id="o"/><use ffdec:characterId="28" height="38.1" width="37.9" xlink:href="#G" id="p"/><use ffdec:characterId="30" height="98.45" width="62.75" xlink:href="#H" id="q"/><use ffdec:characterId="32" height="35.6" width="14.7" xlink:href="#I" id="r"/><linearGradient gradientTransform="matrix(-.0581 0 0 -1 102.8 215.25)" gradientUnits="userSpaceOnUse" id="s" spreadMethod="pad" x1="-819.2" x2="819.2"><stop offset="0" stop-color="#8e329f"/><stop offset="1" stop-color="#641157"/></linearGradient><path d="M50.7 0q21 0 35.85 5.05Q101.4 10.1 101.4 17.2q0 7.15-14.85 12.2-14.85 5.05-35.85 5.05-21.05 0-35.9-5.05Q0 24.35 0 17.2q0-7.1 14.8-12.15Q29.65 0 50.7 0" fill-opacity=".349" fill-rule="evenodd" id="t"/></defs></svg>