<svg xmlns:ffdec="https://www.free-decompiler.com/flash" xmlns:xlink="http://www.w3.org/1999/xlink" ffdec:objectType="frame" height="90" width="90" xmlns="http://www.w3.org/2000/svg"><use ffdec:characterId="46" height="268.3" transform="translate(.213 -1.211) scale(.3274)" width="272.45" xlink:href="#a"/><defs><g id="a" transform="translate(-.65 3.7)"><use ffdec:characterId="1" height="9.8" transform="matrix(2.5871 0 0 4.8741 44.459 216.817)" width="55.5" xlink:href="#b"/><use ffdec:characterId="3" height="94.7" transform="translate(110.2 173.2) scale(.5997)" width="63.25" xlink:href="#c"/><use ffdec:characterId="12" height="49.1" transform="matrix(1.5419 1.2497 -1.3811 1.7353 193.318 115.513)" width="47.95" xlink:href="#d"/><use ffdec:characterId="15" height="216.85" transform="translate(132.8 10.1) scale(.7403)" width="189.1" xlink:href="#e"/><use ffdec:characterId="18" height="184.9" transform="translate(.95 22.9) scale(.7403)" width="163.5" xlink:href="#f"/><use ffdec:characterId="25" height="172.7" transform="matrix(.7326 -.045 0 .7403 59.27 58.413)" width="186.65" xlink:href="#g"/><use ffdec:characterId="27" height="80.65" transform="translate(53.45 180.75) scale(.7403)" width="65.55" xlink:href="#h"/><use ffdec:characterId="29" height="72.95" transform="translate(79.65 144.45) scale(.7403)" width="102.1" xlink:href="#i"/><use ffdec:characterId="31" height="66.9" transform="translate(78.85 115.3) scale(.7403)" width="59.95" xlink:href="#j"/><use ffdec:characterId="3" height="94.7" transform="translate(137 164.9) scale(.7403)" width="63.25" xlink:href="#c"/><use ffdec:characterId="33" height="109.75" transform="translate(96.85 177.05) scale(.7403)" width="92.6" xlink:href="#k"/><use ffdec:characterId="39" height="126.7" transform="translate(58.434 116.802) scale(.7403)" width="171.5" xlink:href="#l"/><use ffdec:characterId="45" height="112.05" transform="translate(51.9 69.5) scale(.7403)" width="91.95" xlink:href="#m"/></g><g id="D" fill-rule="evenodd"><path d="M5.4 3.05Q9.5-.2 14.65 0q4.75.2 9.15 3.25 4.4 3 7 7.8 2.8 5.05 2.75 10.55 5.05 1 10.05-2.5-5.6 14.45 0 25.7l3.9 8.55q1.45 3.8 1.9 7.15l-2.7 3.75q.45-3.9-.5-8-.75-2.95-2.55-7.2l-3-7.1q-1.55-4.15-1.9-7.75-.6-6.2 3.1-12.9-1.8 1.3-4.1 1.65l-4.35-.1-1.25 1.4Q31.7 11.4 24 5.5 16.45-.3 5.4 3.05M22.8 70.7l.95-3.95q.95-3.8-1.65-19.3Q4 45.6.1 21.35q3.1 10.4 9.25 16.85Q14.9 44.1 21.2 45h.3q5.95.8 9.8-3.4 4.3-4.65 4.1-13.65 2.25 5.65.55 10.15l-1.2 2.35q-3 4.65-10 6.85l.35 2.5q.55 4.5.7 8.75.2 4.05-.05 6.85l-.35 2.7-.1.1q-1.3 1.05-2.5 2.5" fill="#405c79"/><path d="M2.75 6.8q1.1-2.05 2.65-3.75Q16.45-.3 24 5.5q7.7 5.9 8.15 18.75l1.25-1.4 4.35.1q2.3-.35 4.1-1.65-3.7 6.7-3.1 12.9.35 3.6 1.9 7.75l3 7.1q1.8 4.25 2.55 7.2.95 4.1.5 8l-.05.1Q45.2 66.6 44.7 68.6q-2.75-2-5.4-3 3.1-13.2-3.35-27.5 1.7-4.5-.55-10.15 2.4-5.25-4-1.1Q29.65 14.6 22.35 9q-7.8-5.95-19.6-2.2" fill="#84a6e0"/><path d="m1.4 9.9 1.35-3.1q11.8-3.75 19.6 2.2 7.3 5.6 9.05 17.85 6.4-4.15 4 1.1.2 9-4.1 13.65-3.85 4.2-9.8 3.4 6.55-.55 8.8-5.45l-1.85-5.9q-3.2 2.5-6.95 0 12.05-5.8 0-22.9-9.8.95-20.1-.85m34.55 28.2q6.45 14.3 3.35 27.5-7.55-2.85-13.9 2.5l.35-2.7q4.55-4.55 10.9-3.25 2.2-7.1-1.55-15.95-4.45 4.15-10 3.6l-.35-2.5q7-2.2 10-6.85l1.2-2.35" fill="#a4c3ee"/><path d="M.1 21.35q-.45-6.5 1.3-11.45 10.3 1.8 20.1.85 12.05 17.1 0 22.9 3.75 2.5 6.95 0l1.85 5.9q-2.25 4.9-8.8 5.45h-.3q-6.3-.9-11.85-6.8Q3.2 31.75.1 21.35M25.75 65.4q.25-2.8.05-6.85-.15-4.25-.7-8.75 5.55.55 10-3.6 3.75 8.85 1.55 15.95-6.35-1.3-10.9 3.25" fill="#fefeed"/><path d="M49.4 60.5q3.5-5 3.35-10.1 7 2.85 5.7 16.25 2.7 1.1 4.8-.65v2.45q-.45 3.85-2.3 6.35-2.5 3.4-7.3 3.9l-1.55 1.05 1.95 7.85q-16.1 11.4-34.1 4.55.05-9.4 2.85-21.45 1.2-1.45 2.5-2.5l.1-.1q6.35-5.35 13.9-2.5 2.65 1 5.4 3 .5-2 1.95-4.25l.05-.1 2.7-3.75m11.55 7.8q-3.05.15-3.7-.65l-.1-.25q-.35-8.05-2.7-12.35.1 1.6-.6 2.8L51.2 61.9l-1.5 2.6q-2.45 4.3-3.05 6.9-.7 3.3.4 5.2 1.1 2 3.35 1.65 3.7-.9 6.55-7.9.45 1.65.15 3.05-.25 1.3-1.1 2.45 5.55-2.7 5.65-7.6l-.7.05m-15 10.5-.15-.15Q44.5 77 44.15 74.4q-.3-2.45.35-5.1-1.9-1.05-3.75-1.8l-3.65-1.1q-8.1-1.55-13.7 5.2l-.1 1.25-.2 1.6-1.85 15.8q4.05 1.5 8.05 1.95L31 79.55l.85 12.85q4.2.1 8.25-1 3.75-1 7.45-3 1.7-.95 3.4-2.1l-1.6-5.85h-.15q-1.95-.1-3.25-1.65" fill="#f7ff8d"/><path d="m23.3 72.85.1-1.25q5.6-6.75 13.7-5.2-.15 4.8-1.75 7.4-1.55 2.6-5.5 4.45-2.35 1.05-4-.3t-2.55-5.1" fill="#f8fbff"/><path d="M40.75 67.5q1.85.75 3.75 1.8-.65 2.65-.35 5.1.35 2.6 1.65 4.25l.15.15 1.6 9.6q-3.7 2-7.45 3-.3-5.65-.15-11.75.2-5.85.8-12.15" fill="#65b882"/><path d="m23.1 74.45.2-1.6q.9 3.75 2.55 5.1 1.65 1.35 4 .3 3.95-1.85 5.5-4.45 1.6-2.6 1.75-7.4l3.65 1.1q-.6 6.3-.8 12.15-4.45 6-8.95-.1-9.05 7.35-7.9-5.1" fill="#dde5e7"/><path d="M40.1 91.4q-4.05 1.1-8.25 1L31 79.55 29.3 92.2q-4-.45-8.05-1.95l1.85-15.8q-1.15 12.45 7.9 5.1 4.5 6.1 8.95.1-.15 6.1.15 11.75" fill="#8ad5c8"/><path d="M45.95 78.8q1.3 1.55 3.25 1.65h.15l1.6 5.85q-1.7 1.15-3.4 2.1l-1.6-9.6" fill="#b4d17c"/><path d="m49.7 64.5 1.5-2.6 2.65-4.05q.7-1.2.6-2.8 2.35 4.3 2.7 12.35l.1.25q.65.8 3.7.65-.8 1.85-1.85 3.3-1.15 1.5-2 1.8.3-1.4-.15-3.05-.4-3.3-2.5-1.4-6.1 7.65-4.75-4.45" fill="url(#n)"/><path d="M49.7 64.5q-1.35 12.1 4.75 4.45 2.1-1.9 2.5 1.4-2.85 7-6.55 7.9-2.25.35-3.35-1.65-1.1-1.9-.4-5.2.6-2.6 3.05-6.9m7.4 8.9q.85-.3 2-1.8 1.05-1.45 1.85-3.3l.7-.05q-.1 4.9-5.65 7.6.85-1.15 1.1-2.45" fill="url(#o)"/></g><g id="d" transform="translate(3.55 6.8)"><use ffdec:characterId="4" height="24.3" transform="translate(-.25 7.65)" width="34.05" xlink:href="#p"/><use ffdec:characterId="6" height="18.55" transform="translate(-3.25 10.95)" width="22.25" xlink:href="#q"/></g><g id="p"><path d="M32.1 17.55v.05l-.05-.1.05.05m-32.3 1.6h-.05l.05-.05v.05" fill="#474e99" fill-rule="evenodd" transform="translate(.25 -7.65)"/><path d="M31.9 17h.05-.05" fill="#a2b4e4" fill-rule="evenodd" transform="translate(.25 -7.65)"/><path d="m30.65 13.6-.15-.15-1.75-1.7-2.25-2q-1.75-1.2-3.75-.95l-1.2.05-1.4.1q-1.9.3-3.55 1.3l-2.55 1.8-2.2 1.5-3.25 1.7-1.25.55 2.35-1.7 2.45-2.05h-.05l2.55-1.95 2.5-1.25L19.8 8l1.05-.05 2.4.15 2.8.8q1.75.8 2.95 2.2l1.65 2.5" fill="#fff" fill-rule="evenodd" transform="translate(.25 -7.65)"/><path d="m32.05 17.5-1.1-.05q-.8-.25-1.1-.9-1.45-2.6-3.4-4.85l-1.25-1.15-1.2-.45-.8-.2-.9-.05q-4.05-.05-7.45 2.4l-8.9 6.6L4.3 17.6l.25-.1.05-.05.85-.4.2-.25.25-.1 1.2-.75.25-.15 1.25-.55 3.25-1.7 2.2-1.5 2.55-1.8q1.65-1 3.55-1.3l1.4-.1 1.2-.05q2-.25 3.75.95l2.25 2 1.75 1.7.15.15.3.6v.05l.1.3.05.05.85 2.4h-.05l.15.5" fill="#a5c4fa" fill-rule="evenodd" transform="translate(.25 -7.65)"/><path d="m4.3 17.6 1.65 1.25 8.9-6.6q3.4-2.45 7.45-2.4l.9.05.8.2 1.2.45 1.25 1.15q1.95 2.25 3.4 4.85.3.65 1.1.9l1.1.05.05.1v-.05l.6 2.6.2.25.05.05-.15.2q-1.15 1.6-2.25 1.95l-.05-.05v.05q-1.55.4-3-1.65l-.15.05-.3-.05-.2-.25-.1-.6q-.6-2.5-1.7-4.1-1.3-1.75-4.3-1.8-3.1-.05-7.8 4.9-4.4 4.55-8.45 4.45h-.1l-.05-.05-.65-.6v-.05l-3-2.75-.35-.4 1.6-.85 2-1.05.05-.05.2-.05.1-.1" fill="#86a8fb" fill-rule="evenodd" transform="translate(.25 -7.65)"/><path d="m32.3 9.85-.15-.5m.05 0-.85-2.4-.05-.05-.1-.3v-.05l-.3-.6-1.65-2.5q-1.2-1.4-2.95-2.2l-2.8-.8L21.1.3l-1.05.05-2.65.85-2.5 1.25-2.55 1.95h.05L9.95 6.45 7.6 8.15l-.25.15-1.2.75-.25.1-.2.25-.85.4-.05.05-.25.1-.1.1-.2.05-.05.05-2 1.05-1.6.85m4 3.8.05.05h.1q4.05.1 8.45-4.45 4.7-4.95 7.8-4.9 3 .05 4.3 1.8 1.1 1.6 1.7 4.1l.1.6.2.25.3.05.15-.05q1.45 2.05 3 1.65v-.05l.05.05q1.1-.35 2.25-1.95l.15-.2-.05-.05-.2-.25-.6-2.6" fill="none" stroke="#405c79" stroke-linecap="round" stroke-linejoin="round" stroke-width=".6"/><path d="M19.25 30.05q.85-.65 1.2-1.55.65-1.45 0-3.95l-.1-.5-.45-1.55-.1-2q.05-1.6.7-2.75.65-1.2 1.85-1.8 1.2-.6 2.9-.45 2.85.25 4.75 1.35 1.8 1.05 2.6 2.75.7 1.65.25 3.6-.5 2.05-2.1 4.15l-.5.4-.6.4-1.85 1.15q-4.5 2.4-9.95 1.55l1.4-.8m.4-5.1q.25 1.75-.15 3-.75 2.45-3.95 3.25 3.9 1.15 7.7.5l1.95-.4 3.05-1.3 1.25-.8 1.1-.9h.05q1.75-1.6 2.55-3.7.7-1.8.55-3.6l-.35-1.15-.1-.1-.55-.95Q30.8 16 26.6 15.05l-.8-.05-1.5-.1-1.25.15q-2.2.6-3.35 1.85-1.75 1.95-.7 5.05l.25.9.4 2.1" fill="#405c79" fill-rule="evenodd" transform="translate(.25 -7.65)"/><path d="m29.65 28.15.6-.4.5-.4q1.6-2.1 2.1-4.15.45-1.95-.25-3.6-.8-1.7-2.6-2.75-1.9-1.1-4.75-1.35-1.7-.15-2.9.45t-1.85 1.8q-.65 1.15-.7 2.75l.1 2 .45 1.55.1.5q.65 2.5 0 3.95-.35.9-1.2 1.55 1.15-.6 1.85-1.5l.6-1.2-.1-1.2-.45-2-.15-.8-.2-1.35-.05-.85q-.05-1.85 1.2-3.4l.65 5.1.6-2.15.05-2.15.7 1.75q.95 2.55.8 4.6l-.15 1.3.55-.75q.9-1.3 1.35-3.25.45-1.75.5-4.15.9.9 1.3 2.25.4 1.3.2 2.75l-.35 1.55-.55 1.15-1.2 1.55-.65.6 1.7-3.6-1.55 2.25L24.25 28q-1.55 1.15-3.3 1.7l3.45.2 3.2-.85 2.05-.9" fill="#a5c4f9" fill-rule="evenodd" transform="translate(.25 -7.65)"/><path d="M20.95 29.7q1.75-.55 3.3-1.7l1.65-1.45 1.55-2.25-1.7 3.6.65-.6 1.2-1.55.55-1.15.35-1.55q.2-1.45-.2-2.75-.4-1.35-1.3-2.25-.05 2.4-.5 4.15-.45 1.95-1.35 3.25l-.55.75.15-1.3q.15-2.05-.8-4.6l-.7-1.75-.05 2.15-.6 2.15-.65-5.1q-1.25 1.55-1.2 3.4l.05.85.2 1.35.15.8.45 2 .1 1.2-.6 1.2q-.7.9-1.85 1.5l1.7-.35" fill="#fffffc" fill-rule="evenodd" transform="translate(.25 -7.65)"/><path d="m29.65 28.15-2.05.9-3.2.85-3.45-.2-1.7.35-1.4.8q5.45.85 9.95-1.55l1.85-1.15" fill="#c2d3f8" fill-rule="evenodd" transform="translate(.25 -7.65)"/></g><g id="E" fill-rule="evenodd"><path d="m11.95 1.95-.95.8-3.9 3.1L8.7 9.7l.05.15.65 1.4 1.4-2.7 3.15-1L12.9 1.2l-.95.75M.9 14.1l-.9-.35 2.75-7.7 1.45-3.9 2.5 2.8L13.45 0 15 7.1l7.25-4.4q-1.6 5.45-7.5 10.15l5.45.6q-2.95 3.45-8.35 5.1l-.8-.4q2.6-.85 4.65-2.1 1.4-.8 2.6-1.8l-5.65-.4-1.4-.15 2.4-.65 1.4-1.25q3.7-3.3 4.85-6.45l-1.95 1.3q-3.25 1.8-6.85 2.3l-.65 1.2-1.2 2.15-1.4 2.4 1.1-2.85-.15-.5-.4-1.2q-.85-2.25-2.15-4.2l-.55-.8-.6-.8-.5-.7-.3 1.25q-1 4.85-3.4 9.2" fill="#f7ff8d"/><path d="M.9 14.1q2.4-4.35 3.4-9.2l.3-1.25.5.7.6.8-1.45 5.2L7.1 12.9l.55-1.2.6.55.55-.9.15.5-1.1 2.85 1.4-2.4 5.8-.5-1.4 1.25-2.4.65 1.4.15 1.4 1.5q.85.55 1.65.7-2.05 1.25-4.65 2.1L.9 14.1" fill="#0266eb"/><path d="m5.7 5.15.55.8-.9 3.4 2.3 2.35.75-1.55.4 1.2-.55.9-.6-.55-.55 1.2-2.85-2.55 1.45-5.2" fill="#0da7ef"/><path d="M6.25 5.95q1.3 1.95 2.15 4.2l-.75 1.55-2.3-2.35.9-3.4" fill="#61d7e8"/><path d="m9.25 12.3 1.2-2.15 5-.6 2.5-2.9 1.95-1.3q-1.15 3.15-4.85 6.45l-5.8.5" fill="#0ec3e3"/><path d="m12.65 13.85 5.65.4q-1.2 1-2.6 1.8-.8-.15-1.65-.7l-1.4-1.5" fill="#0ec7dd"/><path d="m10.45 10.15.65-1.2q3.6-.5 6.85-2.3l-2.5 2.9-5 .6" fill="#6ee7e1"/><path d="m11.95 1.95.95-.75 1.05 6.35-3.15 1-1.4 2.7-.65-1.4 3.9-3.15-.7-4.75" fill="#03d492"/><path d="m11 2.75.95-.8.7 4.75-3.9 3.15-.05-.15q3-3.6 2.3-6.95" fill="#12edad"/><path d="M8.7 9.7 7.1 5.85l3.9-3.1q.7 3.35-2.3 6.95m.5-3.6.45.2.45-.15.25-.35-.15-.45-.4-.2-.5.1-.2.4.1.45" fill="#89f4c7"/><path d="m9.2 6.1-.1-.45.2-.4.5-.1.4.2.15.45-.25.35-.45.15-.45-.2" fill="#fff"/></g><g id="G" fill-rule="evenodd"><path d="M149.35 128.45q-12.75 3.55-18.15 1.9l-33.1 7.1 32.8-9.6q33.65-20.2 48.65-53.1l2.2-5.25q2.05-5.05 3.6-10.35-2.15 1.4-7.95 6.3l-6.9 5.5-6.2 3.8-6.8 3.8q-16.55 8.75-23.8 6.6-7.8 7.55-15.55 11.3l-2.4 1.05q12.5-9.95 21.35-22.75 19-27.6 21.05-68.55l-8 6.2q-11.05 9-19.85 19.1-4.6 5.35-10 12.45l-9.5 13q-7.45 10.25-15.45 17.8l-3.45 3.1-3.05 2.55q-7.2 5.7-15.2 9.7 6.15-3.9 11.6-8.75l6.75-6.6q20.55-22.4 28.7-60.2-36.15 25.5-56 60.2-9.45 16.55-15.2 35.15 1.4-21.5-5.9-33.1.4 38.15-18.5 33.1.05 8.05-1.95 14.45-.95 2.9-2.25 5.55-1.55 2.9-3.6 5.4 5.05-1.1 13.8-5.55 12.55-6.4 13.65-6.85 1.9-.8 3.5-1.3 4.25-1.35 6.45-.4l.35.15q3.35 1.8 2.5 9.6-.9-11.55-9.6-6.45-.9.5-1.85 1.2 4.6 5.25 7.2 12.65 2.45 7.15 2.6 14.95v.25q.1 7.65-2.15 14.25-2.4 7-7.05 11.45l-7.25 6.1q-4.75 3.95-8.55 6.7Q20.5 199.5 8.75 204q3.5 1.25 9.6.8 6.65-.5 13.7-2.8l4.45-1.6 3-1.3q12.55-5.9 20.5-16.45l-1.2-2.8.8.25q4.6 1.5 7.9 7.1 2.6 4.45 4.9 12.75 11.25 8.95 25.35 12.3 14.75 3.55 26.95-.5l-2-.15q-3.6-.4-7.7-1.8-1.85-.6-3.75-1.4-6.35-2.65-10.25-5.55l-10.2-8.1q-8.55-7.35-11.7-13.6-1.4-2.75-1.75-5.3 23.2 28.25 54.8 13.6-10.15-3.7-18.25-9.2-5.25-3.55-9.6-7.85l-3.4-3.7q11.15 3.55 23.5 0-12.65-3.2-24.1-13.8l3.5 2.55q5.8 3.7 11.6 4.15 38-9.1 59.45-42.4-17.1 6.7-22.45 8.35l-3.05.9m32.55-53.7q-13.9 31.7-48.85 54.05 24.15-1.25 47.2-15.95-17.3 37.9-61.6 50 6.2 3.9 13.45 4.6-10.95 8.3-23.2 5.6 16.15 12.35 33.45 16.4-24.55 11-51.25 2.8 20.65 15.1 43.5 19.15-34.3 14.6-64.65-9.9-2.3-11.4-7.75-16.4Q34.6 215.8 0 204.6q37.3-14.05 48.1-35.75 10.75-21.65-6.05-42.25-17.25 11.85-29.4 11.45 11.55-16.65 7.15-39.9 5.05 7.5 10.05 8.2 4.75.65 7.75-4.85 3.15-5.65 3.2-15.6 0-5.3-.85-11.15-.95-6.1-2.85-12.8 6.05 5.65 9.55 12.8 4.1 8.45 4.7 19.05 4.85-9.95 10.35-19.05 25-41.5 63-66.35-2.5 22-12.35 40.3 21.2-28 47.35-48.7 2.55 40.25-18.55 74.75l-5.9 8.85q13.55-2.45 25.4-8.85 15.75-8.5 28.45-23.95-2.25 12.6-7.2 23.95" fill="#f7ff8d"/><path d="m181.75 69.5-2.2 5.25q-15 32.9-48.65 53.1l-32.8 9.6 33.1-7.1q5.4 1.65 18.15-1.9-7.25 9.3-18.3 17.35-14.5 10.6-27.25 11.65l-3.5-2.55q11.45 10.6 24.1 13.8-8.75-1.45-18.75-5.35-12.1-4.8-17.15-10.1 23.15-.4 41.8-10.85-22.45 5-39-4.05 55.05-14.6 62.5-39.9-29 15.15-54.7 12l16.65-12.95 2.4-1.05q11.6 2.1 32.3-7.55 8.6-4 17.2-9.35l7.25-4.8q3.7-2.65 6.85-5.25M104.3 172.4q4.35 4.3 9.6 7.85-3.85 4.05-13.7 2.9-9.25-4.6-15.1-14.75 9.05 4.35 19.2 4m-25.2 8.75q3.15 6.25 11.7 13.6l10.2 8.1q3.9 2.9 10.25 5.55 1.9.8 3.75 1.4l-.2.5q-6.75-1.4-13.3-3.6l-11.15-3.95q-7.85-8.35-15.15-22.3l-2.8-3.5q3.35 3.45 6.7 4.2m-55.95-56.8q2-6.4 1.95-14.45 18.9 5.05 18.5-33.1 7.3 11.6 5.9 33.1 5.75-18.6 15.2-35.15 19.85-34.7 56-60.2-8.15 37.8-28.7 60.2l-6.75 6.6q2.9-3.25 5-6.6 6.65-10.4 6-21.5-14.65 9.05-25.3 21.5l-4.1 5.15Q54.5 96.3 49.5 116.7l-4.05-19.8q-1.95 9.3-7.7 16.6-6.05 7.65-14.6 10.85m65.7-43.95 3.05-2.55 3.45-3.1q8-7.55 15.45-17.8l9.5-13q5.4-7.1 10-12.45 8.8-10.1 19.85-19.1 1.2 25.8-6.55 45.9-3.5 9-8.65 16.45-3.45 5-7.6 9.25 3.75-4.15 6.35-9.25 7.55-14.7 5.55-36.95-7 13.75-21.1 25.15-7.95 6.4-17.85 11.8-5.45 2.95-11.45 5.65" fill="#86fdb5"/><path d="M55.9 153.3q-.15-7.8-2.6-14.95-2.6-7.4-7.2-12.65.95-.7 1.85-1.2 4.45 3.6 7.15 10.9 3.45 9.15.9 17.9h-.1" fill="#0dc9f5"/><path d="m58.8 179.85 1.2 2.8q-7.95 10.55-20.5 16.45l-3 1.3-1.55-4.45q11.9-7.85 18.85-19.7l5.15 3.4-.15.2" fill="#02ccc4"/><path d="m149.35 128.45 3.05-.9q5.35-1.65 22.45-8.35-21.45 33.3-59.45 42.4-5.8-.45-11.6-4.15 12.75-1.05 27.25-11.65 11.05-8.05 18.3-17.35m-35.45 51.8q8.1 5.5 18.25 9.2-31.6 14.65-54.8-13.6 8.55 4.65 19.1 6.7l3.75.6q9.85 1.15 13.7-2.9m1.1 29.55q4.1 1.4 7.7 1.8l2 .15q-12.2 4.05-26.95.5-14.1-3.35-25.35-12.3-2.3-8.3-4.9-12.75-3.3-5.6-7.9-7.1 1.65-.3 4.5.6 2.9.95 6 2.9 3.6 2.2 7.7 6.5 3.9 4.1 5.55 7.35 1.8 3 5.9 4.85l1.1.45 11.15 3.95q6.55 2.2 13.3 3.6l.2-.5m3.15-113.35q7.75-3.75 15.55-11.3 7.25 2.15 23.8-6.6l6.8-3.8 6.2-3.8 6.9-5.5q5.8-4.9 7.95-6.3-1.55 5.3-3.6 10.35-3.15 2.6-6.85 5.25l-7.25 4.8q-8.6 5.35-17.2 9.35-20.7 9.65-32.3 7.55" fill="#11fa9d"/><path d="M124.4 168.7q-12.35 3.55-23.5 0l3.4 3.7q-10.15.35-19.2-4 5.85 10.15 15.1 14.75l-3.75-.6q-10.55-2.05-19.1-6.7.35 2.55 1.75 5.3-3.35-.75-6.7-4.2-9-12.05-7.75-18.45 6.35 3.5 13.15 4 6.95.5 13.15-2.15-10.2-5.75-19.15-17.65 27.7-5.35 55.4-22.9-20.2 4.05-41.4 3.15 18.15-18 26.95-48.2l.95-3.35-3.35 3.35-11.5 10.35L83.2 97.75q-9.85 7.75-14.3 11.6l-7.6 6.2q-4.35 3.65-6.25 5.8l-.35-.15q-2.2-.95-6.45.4l-3.4-18.8q-2.3 22.15-23.95 27.1 1.3-2.65 2.25-5.55 8.55-3.2 14.6-10.85 5.75-7.3 7.7-16.6l4.05 19.8q5-20.4 17.35-36.8l4.1-5.15q10.65-12.45 25.3-21.5.65 11.1-6 21.5-2.1 3.35-5 6.6-5.45 4.85-11.6 8.75 8-4 15.2-9.7 6-2.7 11.45-5.65 9.9-5.4 17.85-11.8 14.1-11.4 21.1-25.15 2 22.25-5.55 36.95-2.6 5.1-6.35 9.25 4.15-4.25 7.6-9.25 5.15-7.45 8.65-16.45 7.75-20.1 6.55-45.9l8-6.2q-2.05 40.95-21.05 68.55-8.85 12.8-21.35 22.75L99.1 110.45q25.7 3.15 54.7-12-7.45 25.3-62.5 39.9 16.55 9.05 39 4.05-18.65 10.45-41.8 10.85 5.05 5.3 17.15 10.1 10 3.9 18.75 5.35m-65.45 10.95-5.15-3.4 1.25-2.3q10.65 6.15 20.15 6.5 7.3 13.95 15.15 22.3l-1.1-.45q-4.1-1.85-5.9-4.85-1.65-3.25-5.55-7.35-4.1-4.3-7.7-6.5-3.1-1.95-6-2.9-2.85-.9-4.5-.6l-.65-.45" fill="url(#r)"/><path d="m36.5 200.4-4.45 1.6q-7.05 2.3-13.7 2.8-6.1.45-9.6-.8 11.75-4.5 22.15-11.95 3.8-2.75 8.55-6.7l7.25-6.1q4.65-4.45 7.05-11.45 2.25-6.6 2.15-14.25l.1-.25q2.55-8.75-.9-17.9-2.7-7.3-7.15-10.9 8.7-5.1 9.6 6.45.85-7.8-2.5-9.6 1.9-2.15 6.25-5.8l7.6-6.2q4.45-3.85 14.3-11.6L98.85 85.1l11.5-10.35 3.35-3.35-.95 3.35q-8.8 30.2-26.95 48.2 21.2.9 41.4-3.15-27.7 17.55-55.4 22.9 8.95 11.9 19.15 17.65-6.2 2.65-13.15 2.15-6.8-.5-13.15-4-1.25 6.4 7.75 18.45l2.8 3.5q-9.5-.35-20.15-6.5l-1.25 2.3q-6.95 11.85-18.85 19.7l1.55 4.45" fill="url(#s)"/><path d="M48.25 121.6q-1.6.5-3.5 1.3-1.1.45-13.65 6.85-8.75 4.45-13.8 5.55 2.05-2.5 3.6-5.4 21.65-4.95 23.95-27.1l3.4 18.8" fill="url(#t)"/></g><g id="I" fill-rule="evenodd"><path d="m86 66-2.55-2.1q-8.4-7.15-15.9-17.45l-7.9-10.7q-4.4-5.9-8.25-10.2Q44.15 17.3 35 9.95 31.8 7.4 28.4 5q.35 49.15 33.75 75.45l-2.1-.9q-6.7-3.2-13.25-9.6-6.4 1.9-20.5-5.5-4.85-2.5-11.05-6.35L9.5 53.5l-6.65-5.25Q4 52.7 5.55 56.9 16.7 87.7 47.9 106.35l28.75 8.25-29.1-6.15q-4.85 1.45-16-1.6l-2.65-.8q-4.6-1.35-19.45-7.15 17.65 28.8 51.15 36.75 5.2-.4 10.45-3.65l3.2-2.2q-10.45 9.3-21.85 12.1 10.9 3.15 21 0l-3.2 3.3q-4 3.8-8.8 6.95-7.35 4.85-16.6 8.15 27.95 13.1 49.45-12.1-.35 2.25-1.65 4.7-3 5.6-10.8 12.15l-9.4 7.25q-3.6 2.6-9.4 5l-3.4 1.25q-3.8 1.25-7.05 1.6l-1.8.15q10.9 3.65 24.35.45 12.8-3.05 23.15-11.05 2.2-7.45 4.65-11.4 3-4.95 7.2-6.35l.7-.2-1.15 2.5q7 9.4 18.25 14.65l2.65 1.2 4.05 1.45q6.3 2.05 12.3 2.5 5.5.35 8.65-.7Q145 169.3 135.7 162.6l-7.6-5.95-6.5-5.45q-4.05-3.9-6.15-10.1-1.9-5.8-1.7-12.45v-.25q.25-6.8 2.5-12.95 2.4-6.45 6.55-10.95l-1.65-1.05q-7.6-4.4-8.55 5.55-.65-6.7 2.35-8.25l.3-.15q1.95-.8 5.7.35 1.4.4 3.05 1.15.95.35 11.95 5.85 7.75 3.85 12.2 4.8-1.8-2.15-3.15-4.65-1.15-2.25-1.95-4.8-1.75-5.5-1.6-12.35-16.7 4.35-15.95-28-6.5 9.75-5.55 28-14.7-48.45-59.8-79.2 6.9 35.8 29.05 55.05 4.6 4.05 9.9 7.35Q92.2 70.8 86 66M66.35 39.65q-7.95-15.05-9.5-32.9 39.1 24.65 61.7 70.55 1.2-16.45 12.7-26.7-3.35 10.85-3.4 20.05-.05 8.4 2.65 13.2 2.6 4.65 6.75 4.1 4.4-.6 8.9-7-4.05 19.8 6.1 34.2-10.75.3-25.95-9.85-15.1 17.8-5.8 36.75 9.45 19.2 43 31.8-31.35 10.1-55.85-17.4-4.95 4.45-7.2 14.65-17.55 13.8-36.15 13.8-11.1 0-22.5-4.9 20.8-3.7 39.75-17.2-24.2 7.3-45.95-2.5 15.7-3.6 30.5-14.55-11.05 2.4-20.55-4.95 6.5-.6 12.1-4.05-38.95-10.55-52.7-43.3 19.75 12.6 41 13.7Q5.35 81.2 0 41.35 18.15 63.9 45.5 68.7 23.1 36.95 27.3 0q21.6 16.7 39.05 39.65" fill="#f7ff8d"/><path d="M86 66q-14.55-6.3-25-14.6Q49.1 42 43.5 30.65q-3.3 24.8 8.9 38.4-8.75-8.95-13.3-21.5Q33.05 31 35 9.95q9.15 7.35 16.4 15.6 3.85 4.3 8.25 10.2l7.9 10.7q7.5 10.3 15.9 17.45L86 66M62.15 80.45l14.25 11Q53.7 94.1 28.75 81.2q5.65 21.6 53.9 34.25-14.95 7.8-34.7 3.45 16.25 9.15 36.85 9.45-4.6 4.65-15.55 8.85-9.05 3.4-16.85 4.7 11.4-2.8 21.85-12.1l-3.2 2.2q-11.3-.9-23.85-10.1-9.55-7-15.65-15.05 11.15 3.05 16 1.6l29.1 6.15-28.75-8.25Q16.7 87.7 5.55 56.9q5.05 4.15 11.85 8.35 7.3 4.55 14.65 7.9 17.8 8.15 28 6.4l2.1.9m8.05 64.75q9.1.25 17.3-3.55-5.5 8.95-13.85 13.05-8.9 1.05-12.25-2.55 4.8-3.15 8.8-6.95m22.4 7.7q3-.65 6.05-3.75l-2.55 3.15q-6.85 12.4-14.1 19.95l-10.15 3.5q-5.95 1.95-12.1 3.25l-.15-.45 3.4-1.25q5.8-2.4 9.4-5l9.4-7.25q7.8-6.55 10.8-12.15m50.45-49.6q-7.55-2.75-12.8-9.3-5-6.2-6.6-14.1l-3.75 16.85q-4.15-17.35-14.7-31.2-10-13.15-25-22.15-1.05 12.15 9 23.4-22.15-19.25-29.05-55.05 45.1 30.75 59.8 79.2-.95-18.25 5.55-28-.75 32.35 15.95 28-.15 6.85 1.6 12.35" fill="#86fdb5"/><path d="M113.7 128.4q-2.2-7.65 1-15.5 2.5-6.35 6.45-9.45l1.65 1.05q-4.15 4.5-6.55 10.95-2.25 6.15-2.5 12.95h-.05" fill="#0dc9f5"/><path d="M115.3 148.6q6.1 10.45 16.7 17.5l-1.45 4-2.65-1.2q-11.25-5.25-18.25-14.65l1.15-2.5-.15-.15 4.65-3" fill="#02ccc4"/><path d="m73.65 154.7 3.35-.5q9.5-1.85 17.25-6-21.5 25.2-49.45 12.1 9.25-3.3 16.6-8.15 3.35 3.6 12.25 2.55M5.55 56.9Q4 52.7 2.85 48.25L9.5 53.5l5.75 4.6q6.2 3.85 11.05 6.35 14.1 7.4 20.5 5.5 6.55 6.4 13.25 9.6-10.2 1.75-28-6.4-7.35-3.35-14.65-7.9-6.8-4.2-11.85-8.35m65.5 75.1q-5.25 3.25-10.45 3.65Q27.1 127.7 9.45 98.9q14.85 5.8 19.45 7.15l2.65.8q6.1 8.05 15.65 15.05 12.55 9.2 23.85 10.1m39.05 19.95q-4.2 1.4-7.2 6.35-2.45 3.95-4.65 11.4-10.35 8-23.15 11.05-13.45 3.2-24.35-.45l1.8-.15q3.25-.35 7.05-1.6l.15.45q6.15-1.3 12.1-3.25l10.15-3.5 1-.45q3.7-1.7 5.4-4.35 1.6-2.9 5.2-6.6 3.7-3.8 7-5.75 2.85-1.75 5.45-2.55 2.55-.85 4.05-.6" fill="#11fa9d"/><path d="M35 9.95Q33.05 31 39.1 47.55q4.55 12.55 13.3 21.5-12.2-13.6-8.9-38.4Q49.1 42 61 51.4 71.45 59.7 86 66q6.2 4.8 13.1 8.15-5.3-3.3-9.9-7.35-10.05-11.25-9-23.4 15 9 25 22.15 10.55 13.85 14.7 31.2l3.75-16.85q1.6 7.9 6.6 14.1 5.25 6.55 12.8 9.3.8 2.55 1.95 4.8-19.1-4.3-20.9-23.2l-3.15 16.05q-3.75-1.15-5.7-.35l-.3.15q-1.65-1.85-5.45-4.95l-6.55-5.3q-3.85-3.3-12.35-9.9L77.2 69.95q-7.05-5.9-12.6-11.45 6.8 27.4 23.2 43.65-18.7.75-36.4-2.75 24 15.1 48.4 19.8-8.15 10.35-17.4 15.4 5.5 2.3 11.7 1.85 6.1-.45 11.75-3.5 1.05 5.65-7.2 16.2-3.05 3.1-6.05 3.75 1.3-2.45 1.65-4.7-7.75 4.15-17.25 6l-3.35.5q8.35-4.1 13.85-13.05-8.2 3.8-17.3 3.55l3.2-3.3q-10.1 3.15-21 0 7.8-1.3 16.85-4.7 10.95-4.2 15.55-8.85-20.6-.3-36.85-9.45 19.75 4.35 34.7-3.45Q34.4 102.8 28.75 81.2 53.7 94.1 76.4 91.45l-14.25-11Q28.75 54.15 28.4 5q3.4 2.4 6.6 4.95M96.1 152.3q8.5-.3 18.1-5.75l1.1 2.05-4.65 3-.55.35q-1.5-.25-4.05.6-2.6.8-5.45 2.55-3.3 1.95-7 5.75-3.6 3.7-5.2 6.6-1.7 2.65-5.4 4.35l-1 .45q7.25-7.55 14.1-19.95" fill="url(#u)"/><path d="M98.65 149.15q8.25-10.55 7.2-16.2-5.65 3.05-11.75 3.5-6.2.45-11.7-1.85 9.25-5.05 17.4-15.4-24.4-4.7-48.4-19.8 17.7 3.5 36.4 2.75Q71.4 85.9 64.6 58.5q5.55 5.55 12.6 11.45L90.6 80.6q8.5 6.6 12.35 9.9l6.55 5.3q3.8 3.1 5.45 4.95-3 1.55-2.35 8.25.95-9.95 8.55-5.55-3.95 3.1-6.45 9.45-3.2 7.85-1 15.5l.05.25q-.2 6.65 1.7 12.45 2.1 6.2 6.15 10.1l6.5 5.45 7.6 5.95q9.3 6.7 19.85 10.75-3.15 1.05-8.65.7-6-.45-12.3-2.5l-4.05-1.45 1.45-4q-10.6-7.05-16.7-17.5l-1.1-2.05q-9.6 5.45-18.1 5.75l2.55-3.15" fill="url(#v)"/><path d="m120.95 100.95 3.15-16.05q1.8 18.9 20.9 23.2 1.35 2.5 3.15 4.65-4.45-.95-12.2-4.8-11-5.5-11.95-5.85-1.65-.75-3.05-1.15" fill="url(#w)"/></g><g id="J" fill-rule="evenodd"><path d="M99.15 7.15q3.5 2.25 5 5.2 1.6 3.2.15 5.95-1.95 3.8-5.05 7.45 3.65-5.15 2.9-11.55l-.25-1.55-.95-2.9q-.85-1.9-1.8-2.6m10.25 49.9q2.85.8 4.2 2.4 2.7 3.1-1.2 8.15-7.75 7.65-17.35 9.25-1.95-.75-3.6-.45 25.35-10.15 17.95-19.35" fill="#fde3ff" transform="translate(-1.4 -1.35)"/><path d="M33.2 28.5q1.65 4.15-.25 10.1-6.45 2.65-7.45 6.25 8.9-3.95 18.25-5.8Q54.3 36.95 67.6 37q5.15 0 11.85-2.95Q86.3 31 89.85 27.1l.2-.2q5.8-4.1 8.35-9.25 2.65-5.4.75-10.5.95.7 1.8 2.6l.95 2.9q-.75 5.55-7.25 13.55-6.1 7.35-13.75 12.95-8.35 6.1-13.5 14.1-4.75 7.3-6 15-4.15-7-2.2-20.85-15.7 13.85-19.6 36.55-9.25-31.7 17.95-43.35-34.3 3.45-43.95 31.45-5-4.35-5.45-9.9-.5-5.6 3.65-13.1 2.4-2.05 5.05-3.55 6.15 1.35 6.05-4.05 2.85-1.75 6.05-6 2.8-3.65 4.25-6.95m55.35 49.85q-.85 1.15-1 2.75-.3 2.75 1.8 4.75 2.45 2.4 7.35 2.75l-2.25 1-2.9.75q-2.45-.05-3.7.05-4.85.45-5.85 4.2-2.9-.15-3.95 1.65-.65 1.05-.5 2.25l-.2-.2-1-.55q-.6-.05-1.05.4-.4.35-.4 1 0 .6.4 1.05.45.45 1.05.5.6.05 1-.35l.45-.7h.1q.65 1.75 2.05 2.3l3 3.1q-4.65 1.85-9.15.6-5.05-1.45-8.5-6.6-3.85-5.7-3.5-12.5.45-7.3 5.65-16.45l1.25 1.5q2.65 2.55 6.35 2.35 4.2-.15 8.35-4 2.85-.25 5.3-2.55 2.25-2.2 3.3-5.2 1-3.05.25-5.4-.85-2.7-3.6-3.35l.4-.45 5.35-1.8q-3.85 13 7.1 13.35 5.9 2.6-2.35 4.8Q87.25 70.8 82 75.7q-5.5 5.2-.75 11.8-.15-8.35 7.3-9.15M99.6 116.7l-.25-1.25-.45-1.1-2.3-4q-1.15-2.25-.4-3.95.7-1.6 3.1-3.2.8-.55 1.7-1.05-2.55 3.05-1.7 6.85.4 1.85 2.2 2.65l4.15 1.35q4.65 1.6 7.65 3.5 3.95 5.2-14.05 11.85-2.15.75-3.65 1.45-3.25 1.65-4.15 3.75-.55 1.45-.7 2.95-.15 1.95.45 3.45-3.65-4.25-2.45-8 1.15-3.75 6.5-6 3.1-1.35 4.5-3.85 1.55-2.8-.15-5.4m15.1-31.45 2.45-.1 2.4.65 1.8.9 1.1.9q.55.65.2 1.15-.3.45-1.1.5l-.15-.05.05.1q.35.8.1 1.35l-.75 1.15q-2.1-4.1-6.1-6.55m-88.95-45.1-.4.1-.2.45.2.4.4.2.4-.15.15-.4-.15-.45q-.15-.15-.4-.15M69.4 79.9q.6 0 1.05-.4l.45-.95q0-.6-.45-1.1-.45-.5-1.05-.5-.6-.05-1 .35-.45.45-.45 1.05 0 .6.45 1l1 .55" fill="#95faf4" transform="translate(-1.4 -1.35)"/><path d="m2.3 75.55-.6-4.35Q.6 61.15 3.5 54.65q2.5-5.5 8.5-10.8 3.6-3.15 11.25-9.1 6.65-5.7 10-11.45 5.3 7.35 2.3 14.2 12.65-4.2 25.8-4.8l8.9-.4q4.55-.45 8.2-1.85 15.4-5.8 17.75-14.8.95-3.8-.5-7.7-1.35-3.55-4.55-6.6 5.8 1.35 9.75 4.3 3.8 2.8 5.25 6.5 1.5 3.7.45 7.4-1.05 3.85-4.65 7-19.55 17.1-26.5 26.85-7.35 10.25-1.35 13.25 3.05 1.6 6.95.25 3.35-1.1 5.7-3.8 2.35-2.6 1.85-4.55-.55-2.1-4.75-1.85-1.7-2.95.95-5.65 1.75-1.8 7.3-4.7 6.85-3.45 9.05-4.9 4.8-3.15 6.05-6.5 3.4 3 1.2 7.3l-3.05 4.6-4.3 5.4-.1.25q-.15.35 1.1.9 1.25.6 2.2.6 7.1-.1 10 2.3 1.75 1.5 2.35 3.7 1.2 4.9-3.5 10.3-3.55 3.5-8.6 6.1-4.55 2.35-10.05 3.7-1.35-1.6-2.7-.45-1.2 1.1-.95 3.05.25 2.25 2.4 3 2.7.95 7.5-.95.55 3.2-.95 5.5-1.6 2.45-5.15 3.65l-3.15.5-2.65.25q-1.25.15-1.5.75-.25.45-.2 1 .05.7.6 1.25 1.15 1 2.15.4.8-.5 2.15-2.55 1.4 4 .5 10.7-.9 6.25-3.55 13.05 6.05.5 7.45-.65 1.4-1.15-.8-4.45-2.05-2.4-1.9-5.5.05-2.9 2.05-5.55 2-2.65 5.15-3.8 3.5-1.35 7.4-.35-6.15 3.85-5.65 7 .5 3.25 7.65 4.75 4.7 1 7.95 3.5 3.05 2.35 4 5.4.95 3.1-.5 5.85-1.6 3-5.7 4.85l-7.65 2q-6.3 1.45-9.05 2.7-4.1 1.9-3 4.3 1.1 2.45 7.5 5.6l2.9 1.3q3.55 2.1 5.8 4.9l1.15 1.8q1.95 3.5 1.25 7.55-1.15 2.5-2.6 4.55l-1.65 1.95-.8-.2-.65-.5-.8.5 3.5-5.55q2.55-5.6-2.5-9.6-2.55-2.6-6.5-4.95l-1.95-1-4-2.3q-2.7-1.65-2.95-3-.55-4.2 4.2-7 3.9-2.35 13.3-4.5 5-1.15 7.1-3.5 2-2.2 1.2-4.95-.75-2.65-4-5-3.4-2.4-8.45-3.65-5-1.25-6.55-3.95-1.6-2.7.65-5.95l-.5.3q-.9.5-1.7 1.05-2.4 1.6-3.1 3.2-.75 1.7.4 3.95l2.3 4 .45 1.1.25 1.25q.1 1.15-.3 2.2-1.05 3.15-5.7 3.5-3.9.35-8.5-1.3 4.65-7.85 5.55-19.25l.1-1.15-3.9-.1q-1.5-.8-2.1-2.5-.6-1.7.05-3.35.75-1.8 2.75-2.6 1.35-.55 3-.65l2.55-.05q2.65-.2 3.6-2.85-4.9-.35-7.35-2.75-2.1-2-1.8-4.75.15-1.6 1-2.75l.15-.15 1.15-1.1q.75-.45 1.6-.7 1.65-.3 3.6.45 9.6-1.6 17.35-9.25 3.9-5.05 1.2-8.15-1.35-1.6-4.2-2.4-2.65-.7-6.5-.75-3.15-.05-4.6-1.95-1.4-1.8 0-3.3l4.4-4.6q2.6-2.95 3.75-5.55-1.8 1.8-5.15 3.6-.2.15-.45.25L94.2 48q-3.9 1.85-5.75 3.1-2.55 1.8-3.05 3.6 2.2 0 3.55 1.1 1.35 1.1 1.6 2.9.3 2.15-.65 4.1-1 2.1-3.25 3.85-4.05 3.05-8.95 2.65-4.6-.3-7.95-3.4-1.95-2.95-1.2-7.05l.05-.2q.5-2.45 2.05-5.45 3.8-7.15 10.55-11.85 11.65-7.9 18.05-15.6 3.1-3.65 5.05-7.45 1.45-2.75-.15-5.95-1.5-2.95-5-5.2 1.9 5.1-.75 10.5-2.55 5.15-8.35 9.25l-.2.2q-4.85 3.45-9 5.25-5.2 2.1-10.6 2.35-25.55-.65-44.75 10.15 1-3.6 7.45-6.25 1.9-5.95.25-10.1l-.25-.6q-2.15 3.45-8 8.8l-7.1 6.05-3.95 3.15-5.2 5.6q-2.3 2.7-3.55 5.15l-.2.45q-2.9 6-2.65 18.45m118 6.05q3.25.85 5 3.05 1.85 2.2 1.55 5.25-1.25 2.65-3.75 2.25-.1 1.4-.65 2.25-.6.95-1.5.7-1.3-.4-2.6-2.25l-2.6-3.65q-3.95-4.85-11.65-4.75 4.35-2.4 8.75-3.1l7.45.25m1.25 7.65q2.25.65 2.95-.3.7-.9-.5-2.25-1.3-1.55-3.8-2.2-3.05-.85-6.85-.05l.7.55.65.25q4 2.45 6.1 6.55l.75-1.15q.25-.55-.1-1.35l.1-.05" fill="#5d4a95" transform="translate(-1.4 -1.35)"/><path d="m108.45 166.75-6.6-.3-1.2-.2-14.9-3.2Q75.8 160.8 65.3 155q-7.85-4.3-15.95-10.6-18.8-14.6-31.8-33.9Q5.3 92.3 2.3 75.55 2.05 63.1 4.95 57.1l.2-.45q2.95-4.5 6.65-7.6-4.15 7.5-3.65 13.1.45 5.55 5.45 9.9 9.65-28 43.95-31.45-27.2 11.65-17.95 43.35 3.9-22.7 19.6-36.55-1.95 13.85 2.2 20.85 1.25-7.7 6-15 5.15-8 13.5-14.1 7.65-5.6 13.75-12.95 6.5-8 7.25-13.55l.25 1.55q.75 6.4-2.9 11.55-6.4 7.7-18.05 15.6-6.75 4.7-10.55 11.85-1.55 3-2.05 5.45l-.05.2q-2.75 3-2.55 6.75.15 2.5 1.45 4.5-5.2 9.15-5.65 16.45-.35 6.8 3.5 12.5 3.45 5.15 8.5 6.6 4.5 1.25 9.15-.6l-3-3.1.4.15q2 .55 3.95-1.6.85 1.35 2.75 1.7l3.6-.35q-.9 11.4-5.55 19.25 4.6 1.65 8.5 1.3 4.65-.35 5.7-3.5.4-1.05.3-2.2 1.7 2.6.15 5.4-1.4 2.5-4.5 3.85-5.35 2.25-6.5 6-1.2 3.75 2.45 8 .9 2.15 3.2 3.8l4.05 2.55 1.6.95q5.95 3.7 9.4 4.35 5.05 4 2.5 9.6l-3.5 5.55M101.3 44.5q3.35-1.8 5.15-3.6-1.15 2.6-3.75 5.55l-4.4 4.6q-1.4 1.5 0 3.3 1.45 1.9 4.6 1.95 3.85.05 6.5.75 7.4 9.2-17.95 19.35-.85.25-1.6.7l-1.15 1.1-.15.15q-7.45.8-7.3 9.15-4.75-6.6.75-11.8 5.25-4.9 17.15-6.35 8.25-2.2 2.35-4.8-10.95-.35-7.1-13.35L89.05 53q1.75-1.85 5.75-4.2l6.15-3.95.35-.35m20.25 44.75q.8-.05 1.1-.5.35-.5-.2-1.15l-1.1-.9-1.8-.9-2.4-.65-2.45.1-.65-.25-.7-.55q3.8-.8 6.85.05 2.5.65 3.8 2.2 1.2 1.35.5 2.25-.7.95-2.95.3m-8.25 27.25q1.8 1.15 2.95 2.45 3 3.35-.2 5.45l-12.1 2.65-4.7 1.3q18-6.65 14.05-11.85" fill="#ae95fa" transform="translate(-1.4 -1.35)"/><path d="M5.15 56.65Q6.4 54.2 8.7 51.5l5.2-5.6 3.95-3.15 7.1-6.05q5.85-5.35 8-8.8l.25.6q-1.45 3.3-4.25 6.95-3.2 4.25-6.05 6 .1 5.4-6.05 4.05-2.65 1.5-5.05 3.55-3.7 3.1-6.65 7.6m20.35-11.8q19.2-10.8 44.75-10.15 5.4-.25 10.6-2.35 4.15-1.8 9-5.25-3.55 3.9-10.4 6.95Q72.75 37 67.6 37q-13.3-.05-23.85 2.05-9.35 1.85-18.25 5.8m43.05 14q-.75 4.1 1.2 7.05 3.35 3.1 7.95 3.4 4.9.4 8.95-2.65 2.25-1.75 3.25-3.85.95-1.95.65-4.1-.25-1.8-1.6-2.9-1.35-1.1-3.55-1.1.5-1.8 3.05-3.6 1.85-1.25 5.75-3.1l6.65-3.25.1.1-6.15 3.95q-4 2.35-5.75 4.2l-.4.45q2.75.65 3.6 3.35.75 2.35-.25 5.4-1.05 3-3.3 5.2-2.45 2.3-5.3 2.55-4.15 3.85-8.35 4-3.7.2-6.35-2.35l-1.25-1.5q-1.3-2-1.45-4.5-.2-3.75 2.55-6.75M96.7 88.6q-.95 2.65-3.6 2.85l-2.55.05q-1.65.1-3 .65-2 .8-2.75 2.6-.65 1.65-.05 3.35.6 1.7 2.1 2.5l3.9.1-.1 1.15-3.6.35q-1.9-.35-2.75-1.7-1.95 2.15-3.95 1.6l-.4-.15q-1.4-.55-2.05-2.3l-.1-.15v-.15l-.25-.85.25 1v.15l-.45.7q-.4.4-1 .35-.6-.05-1.05-.5-.4-.45-.4-1.05 0-.65.4-1 .45-.45 1.05-.4l1 .55.2.2q-.15-1.2.5-2.25 1.05-1.8 3.95-1.65 1-3.75 5.85-4.2 1.25-.1 3.7-.05l2.9-.75 2.25-1m4.3 13.55.5-.3q-2.25 3.25-.65 5.95 1.55 2.7 6.55 3.95 5.05 1.25 8.45 3.65 3.25 2.35 4 5 .8 2.75-1.2 4.95-2.1 2.35-7.1 3.5-9.4 2.15-13.3 4.5-4.75 2.8-4.2 7 .25 1.35 2.95 3l4 2.3 1.95 1q3.95 2.35 6.5 4.95-3.45-.65-9.4-4.35l-1.6-.95-4.05-2.55q-2.3-1.65-3.2-3.8-.6-1.5-.45-3.45.15-1.5.7-2.95.9-2.1 4.15-3.75 1.5-.7 3.65-1.45l4.7-1.3 12.1-2.65q3.2-2.1.2-5.45-1.15-1.3-2.95-2.45-3-1.9-7.65-3.5l-4.15-1.35q-1.8-.8-2.2-2.65-.85-3.8 1.7-6.85m-75.25-62q.25 0 .4.15l.15.45-.15.4-.4.15-.4-.2-.2-.4.2-.45.4-.1M69.4 79.9l-1-.55q-.45-.4-.45-1t.45-1.05q.4-.4 1-.35.6 0 1.05.5.45.5.45 1.1l-.45.95q-.45.4-1.05.4" fill="#fff" transform="translate(-1.4 -1.35)"/></g><g id="K" fill-rule="evenodd"><path d="m59.4 7.9 2.1.85q-1.75 22.35-7.95 40.9l-.85 2.5-.25.65-.4-1-.35-.55-.55-1.55Q59.2 30.9 59.4 7.9M30.2 30.3q9-13.55 9.95-30.3l1.4.55-.2 6.85q-.45 5.2-1.65 9.95l-.55 1.85-.05.15q-2.25 7.5-6.4 11.7l-.95-.35-.5-.15-1.05-.25" fill="#405c79"/><path d="M41.55.55 59.4 7.9q-.2 23-8.25 41.8l-.4-.95-.4-.85-.45-.8-.8-1.6q-1.2-2-3-4.05l-.9-.9-3.85-3.7q8.35-25 0-29.45l.2-6.85" fill="#86a8fa"/><path d="m20.05 36.85 3.35-5.1q1.85-1.7 4.65-1.7l1.3.1.85.15 1.05.25.5.15.95.35q2.25.85 4.5 2.4 1.7 1.15 3.4 2.7l.75.7 3.85 3.7.9.9q1.8 2.05 3 4.05l.8 1.6.45.8.4.85.4.95.55 1.55.35.55.4 1q.4 1.1.45 2.45l-.05 1.65-.2 1-.15.35q-1.3 2.85-3.75 6.2h-2l-.05-.35-.5-3.4-.2-.9q-1.95-7.7-8.45-12.45l-1.2-1.45q-5.75-5.3-13.6-8.15L22 37.5l-.95-.35-1-.3m9.5-3.45-3.1-.65-3.15 3.4q1.7.3 3.4.9 6.15 2 12.4 7.2l.75.7 1 .9 1.2 1.3 1.35 1.6q2.2 2.85 3.5 5.95.85 2.05 1.3 4.2l.4 2.7 2.1-3.5-.35-2.2-1-3.7q-1.25-3.3-3.4-6.4l-1.45-1.95-1.15-1.35v-.05l-.85-.95q-5.8-6.1-12.95-8.1" fill="#5e2414"/><path d="M37.2 33.45q-2.25-1.55-4.5-2.4 4.15-4.2 6.4-11.7 4.45 3.8-1.9 14.1" fill="#fffff9"/><path d="m39.1 19.35.05-.15.55-1.85q1.2-4.75 1.65-9.95 8.35 4.45 0 29.45l-.75-.7q-1.7-1.55-3.4-2.7 6.35-10.3 1.9-14.1" fill="#cfdbf9"/><path d="M26.7 37.05q-1.7-.6-3.4-.9l3.15-3.4 3.1.65-2.85 3.65m17.8 6.8 1.45 1.95-2.55 2.95-1.35-1.6 2.45-3.3m4.85 8.35 1 3.7-2.15 3q-.45-2.15-1.3-4.2l2.45-2.5" fill="#fca44d"/><path d="M29.55 33.4q7.15 2 12.95 8.1l-2.65 3.45-.75-.7q-6.25-5.2-12.4-7.2l2.85-3.65m13.8 9.1 1.15 1.35-2.45 3.3-1.2-1.3 2.45-3.4.05.05m-9.55-6.55q-.6-.4-1.3-.25-.6.1-.95.7-.3.5-.1 1.2.15.65.75 1.05l1.25.25.95-.7q.35-.6.15-1.2-.15-.65-.75-1.05m3.95 4.3q.25-.45.1-.85l-.5-.75-.9-.15q-.45.05-.7.45-.25.4-.1.9.1.45.55.7l.85.2q.5-.15.7-.5" fill="#f8e769"/><path d="m16.85 46.8.6-1.35-.1 1.3-.5.05m1.3-5.7 1.9-4.25 1 .3.95.35.75.25q3.55 1.65 6.9 5.15l-2.6 3.65q-3.35-.5-7.5-.1l.4-.2 2.65-2-.15-5.95-4.3 2.8m13.35 6.75-1.8-.7q-.05-.5.25-1 .35-.55.85-.8l.9.05q.45.25.5.8.1.55-.2 1.1l-.5.55" fill="#04dbe9"/><path d="m21.8 39.45.15-.05-.2 4.5-2.4 1.9.1.05-.8.7-.55.05 1-.95h.05l1.65-1.3.5-.4v-.4L21 40.9l.8-1.45" fill="#fccdff"/><path d="m17.45 45.45.35-4.1.35-.25 4.3-2.8.15 5.95-2.65 2-.4.2-.9.1.8-.7-.1-.05 2.4-1.9.2-4.5-.15.05-3.65 2.4-.25 4.8-.55.1.1-1.3" fill="#0266e8"/><path d="m21 40.9.3 2.65-1.6-.4 1.2-2.05.1-.2m-.2 3.45-1.65 1.3h-.05l-1 .95-.05.05.2-1.6.25-1.05 1.05-.35 1.25.7" fill="#73adfd"/><path d="M21.8 39.45 21 40.9l-.1.2-2.25 1.1-.15 1.8-.25 1.05-.2 1.6h-.15l.25-4.8 3.65-2.4" fill="#efffdf"/><path d="M21.3 43.55v.4l-.5.4-1.25-.7-1.05.35.15-1.8 2.25-1.1-1.2 2.05 1.6.4" fill="#9cfbd2"/><path d="m16 48.55.85-1.75.5-.05.55-.1h.15l.05-.05.55-.05.9-.1q4.15-.4 7.5.1l2.4.5.25.1 1.8.7q2.75 1.2 6.7 4 6.5 4.45 7.8 7.95l.2.9.5 3.4-.65.5-3.25-4.8q-5.3-6.75-12.15-9.55l-4.25-1.3-7.75-.6-2.65.2" fill="#067a68"/><path d="m53.55 49.65 12-3.4q-1.05 9.3-5.6 15.35-4.7 6.25-12.8 8.75 0 2.5-.35 4.65Q11.05 87.95 0 71.2q.6-14.25 16-22.65l2.65-.2-1.85 1.4-2.35 1.85q-5.7 4.3-8.75 9.1-2.2 3.55-2.95 7.35l-.25 1.6q2.45 3.1 5.45 4.5.7-14.4 14.95-24.3-6.95 6.05-10.4 13.95-2.3 5.25-3.05 11.3 7.55 2.95 15.7 2.8 7.9-.1 15.8-3.15l3-1.3q2-6.4-1.15-13.65l3.25 4.8.65-.5.05.35.3 2.85q13.3-4.8 15.55-17.9-4.7 3.15-9.9 2.75l.85-2.5" fill="#f7ff8d"/><path d="m14.45 51.6 2.35-1.85 1.85-1.4 7.75.6-.6 2Q22 50 12.5 63.8q3.45-7.9 10.4-13.95-14.25 9.9-14.95 24.3-3-1.4-5.45-4.5l.25-1.6q1.6 1.95 3.2 2.3 1.1-3.85 3.15-7.7l2-3.4q4.05-6.15 7.95-7.65h-4.6" fill="#b1d184"/><path d="M46 59.8q-1.3-3.5-7.8-7.95-3.95-2.8-6.7-4l.5-.55q.3-.55.2-1.1-.05-.55-.5-.8l-.9-.05q-.5.25-.85.8-.3.5-.25 1l-.25-.1-2.4-.5 2.6-3.65q-3.35-3.5-6.9-5.15 7.85 2.85 13.6 8.15l1.2 1.45Q44.05 52.1 46 59.8" fill="#0289ef"/><path d="M37.75 40.25q-.2.35-.7.5l-.85-.2q-.45-.25-.55-.7-.15-.5.1-.9t.7-.45l.9.15.5.75q.15.4-.1.85m-3.95-4.3q.6.4.75 1.05.2.6-.15 1.2l-.95.7-1.25-.25q-.6-.4-.75-1.05-.2-.7.1-1.2.35-.6.95-.7.7-.15 1.3.25" fill="#fffffc"/><path d="m42.5 41.5.85.95h-.05l-2.45 3.4-1-.9 2.65-3.45m3.45 4.3q2.15 3.1 3.4 6.4l-2.45 2.5q-1.3-3.1-3.5-5.95l2.55-2.95" fill="#be6711"/><path d="m26.4 48.95 4.25 1.3q5.05 6.7 2.2 24l-2.65-.15q-1.25-14.5-4.95-1.5l-2.4-1.65q-.05-9.4 2.95-20l.6-2" fill="#86d7d8"/><path d="M14.45 51.6h4.6q-3.9 1.5-7.95 7.65l-2 3.4q-1.25-2.2-3.4-1.95 3.05-4.8 8.75-9.1" fill="#fdfde4"/><path d="M9.1 62.65q-2.05 3.85-3.15 7.7-1.6-.35-3.2-2.3.75-3.8 2.95-7.35 2.15-.25 3.4 1.95m3.4 1.15Q22 50 25.8 50.95q-3 10.6-2.95 20l2.4 1.65q3.7-13 4.95 1.5l2.65.15 8.1.5q-7.9 3.05-15.8 3.15-8.15.15-15.7-2.8.75-6.05 3.05-11.3" fill="#dde5e7"/><path d="M30.65 50.25q6.85 2.8 12.15 9.55 3.15 7.25 1.15 13.65l-3 1.3-8.1-.5q2.85-17.3-2.2-24" fill="#6fa9d2"/><path d="m50.35 55.9.35 2.2-2.1 3.5-.4-2.7 2.15-3" fill="#fde3ff"/><path d="m52.45 52.8.25-.65q5.2.4 9.9-2.75-2.25 13.1-15.55 17.9l-.3-2.85h2q2.45-3.35 3.75-6.2l.15-.35.2-1 .05-1.65q-.05-1.35-.45-2.45" fill="url(#x)"/></g><g id="L" fill-rule="evenodd"><path d="M100.4 38.55q-.05-2.45-.9-4.5-.75-1.85-2.55-2.65-1.4-.7-4.1-.95l-5.35-.35q-3.45-.3-6.1-1-5.15-1.4-10.95-5-2.8-1.7-10.05-6.95-12-8.65-16-16.8L46.15 0q7.75 10.75 20.4 18.7Q74 23.35 80.3 25.65q5.55 1.95 12.55 2.85 2.4.25 4.35 1.2 2.1 1 3.25 2.65 1.7 2.4 1.65 6.25-.05 2.65-1 6.55-.8 3.5-3.6 8.35-3.7 6.35-8.95 11.2-5.7 5.2-14.2 7.1-7.65 1.7-18.4.9l-4.85-.55q-6.6-1-13.45-3.35-4.9-1.7-10.9-4.45Q20.1 61.3 16.4 58.8q-6.6-4.4-8.9-6.85Q3.65 48 1.5 41.5-.95 33.9.55 24.65q1.5-9.4 6.6-17.55l2.25-.45Q-2.35 27.85 4.25 42q.95 2.15 2.35 4.2 2.45 3.6 5.95 6.75 6.65 5.9 17.2 10.2l4.8 1.8q7.75 2.65 17.3 4.55 9.05 1.85 18.15-.05 8.9-1.8 15.9-6.7 7.2-5.05 10.8-12.2 2.45-4.95 3.2-8.15l.35-1.9.15-1.95" fill="#405c79"/><path d="M44.4.35q4 8.15 16 16.8 7.25 5.25 10.05 6.95 5.8 3.6 10.95 5 2.65.7 6.1 1l5.35.35q2.7.25 4.1.95 1.8.8 2.55 2.65.85 2.05.9 4.5-1.3-2.6-4.3-2.35-25.5 2.75-47.5-18.25Q37 25.2 33.75 34.85 19 33.5 4.25 42-2.35 27.85 9.4 6.65l35-6.3" fill="#86a8fc"/><path d="m100.4 38.55-.15 1.95-1.5-.9q-18.3 2.75-33.6-5.25-8.8 2.1-16.6 10-7.55 7.65-14 20.6l-4.8-1.8q-1.5-5.5-5.85-8-4.25-2.4-11.35-2.2-3.5-3.15-5.95-6.75-1.4-2.05-2.35-4.2 14.75-8.5 29.5-7.15Q37 25.2 48.6 17.95q22 21 47.5 18.25 3-.25 4.3 2.35" fill="#a5c4fc"/><path d="m100.25 40.5-.35 1.9q-.75 3.2-3.2 8.15-3.6 7.15-10.8 12.2-7 4.9-15.9 6.7-9.1 1.9-18.15.05-9.55-1.9-17.3-4.55Q41 52 48.55 44.35q7.8-7.9 16.6-10 15.3 8 33.6 5.25l1.5.9m-70.5 22.65q-10.55-4.3-17.2-10.2 7.1-.2 11.35 2.2 4.35 2.5 5.85 8" fill="#fffffc"/></g><g id="M" fill-rule="evenodd"><path d="m34 .7 1.25-.7q4.15 19.4 10.2 29.2 5.75 9.25 14.5 11.75-3.05 2.25-4.85 2.9-2.7 1-5.15-.1 1.35 2.9 1.6 5.6.15 1.8-.25 5.25-3.6-3.65-8.85-4.95.6 5.75-.1 9.6-.9 4.7-3.85 7.65-4.5-7.3-10.45-12.35.2 1.65-.3 3.7l-1.2 3.45q-2.05-3.35-4.45-6.25-2.25-2.65-5-4.85-1.1 2.1-2.8 3.55-1.65 1.35-3.9 1.7.55-2.6 0-4.95-2.65 1.6-4.9 2.35-2.6.9-5.5 1.05 5.25-9.25 6.55-17 1.3-7.95-.45-20.8l1.05-.6Q8.6 27.4 8.35 35q-.4 10.1-3.8 16.35l2.45-.2q2.25-.45 4.45-1.9.55 3.1 0 5.9 1.75-1 3.15-2.55l2.3-3.35q5.5 4.2 9.25 9.75l.7-2.6.2-2.9-4.8-3.8q4.35 1.65 8.45 5.2l.7.6q4.45 4.05 7.15 9 3.9-9.6 1.8-20.8L42.4 48q2.65.55 4.65 1.7 2.15 1.2 3.85 3.15-.2-5.8-2.8-10.85 2.45.7 4.95.6 2.55-.2 4.95-1.25-5.05-.4-10.55-6.75l-1.2-1.5q-3.95-5-7.3-12.95-2.35-5.6-3.65-10.9Q34.15 4.5 34 .7" fill="#405c79"/><path d="M30.7 54.9q-4.1-3.55-8.45-5.2l4.8 3.8-.2 2.9-.7 2.6q-3.75-5.55-9.25-9.75l-2.3 3.35q-1.4 1.55-3.15 2.55.55-2.8 0-5.9-2.2 1.45-4.45 1.9 5.05-2.9 4.8-8.3 3.25 1.15 6.25 5.3l1.85 2.5q.85 1.05 1.45.9.85-.2.45-3.1-.35-2.45-1.3-5.3 8.55 2.45 10.2 11.75" fill="#fafaba"/><path d="M34 .7q.15 3.8 1.3 8.55 1.3 5.3 3.65 10.9 3.35 7.95 7.3 12.95l1.2 1.5q5.5 6.35 10.55 6.75-2.4 1.05-4.95 1.25-2.5.1-4.95-.6 2.6 5.05 2.8 10.85-1.7-1.95-3.85-3.15-2-1.15-4.65-1.7l-2.05-4.3q2.1 11.2-1.8 20.8-2.7-4.95-7.15-9l-.7-.6q-1.65-9.3-10.2-11.75.95 2.85 1.3 5.3.4 2.9-.45 3.1-.6.15-1.45-.9l-1.85-2.5q-3-4.15-6.25-5.3.25 5.4-4.8 8.3l-2.45.2Q7.95 45.1 8.35 35q.25-7.6-1.2-19.1L34 .7" fill="#dfc37d"/></g><g id="N" fill-rule="evenodd"><path d="M19.35 24.25q3 .95 6.15 1.5l-2.95.65q2.65 5.75 4.3 14.65l-.45.3q-.85.5-1.55 1.05l-1.4-8q-1-4.5-2.25-7.1-5.45-1.05-10-3.6Q4.6 20 0 13.2l.25-.05q5.75 5.2 12.3 8.4 3.3 1.6 6.8 2.7M46.7 4.95q1.25 1.15 1.5 5.5l.15 8.05 1.9-1.65q.35 2.55.05 4.7L50 23q-.4 1.75-1.2 2.95 5.5 4.9 8.9 13.35l-2.95-.9q-2.6-6.8-6.95-11.25 1.55-2.2 1.9-5.6l.1-3.05q-1.65.7-3.05 3.05l-.2.35.1-.35q1.3-7 .05-16.6" fill="#405c79"/><path d="M26.85 41.05Q30.8 38.9 36.9 38.1l6.75-.75 1.4-.05 5.6.3 2 .35 1.05.2 1.05.25 2.95.9.75.1q2.05.4 3.9 1.65 1.35.9 2.25 2.05l.2.35q1.5 2.95 2.5 7.15l.1.4-1.9 1.6-3.25-2-.75-.4q-8.85-4.5-18.5-2.75l-1.15-1.9-.9 1.8q-6.95.55-13.4 3.25-1.55.6-3 1.35-1.6.8-3.2 1.75l.25-3.1.2-3.15q.25-2.85 3.05-5.05.7-.55 1.55-1.05l.45-.3m.25 3.2-2.6 1.7v4.25l3-1.75q5.85-3 14.35-4.2l1.05-.1 1.5-.1 2-.1 2.35.05q4.15.25 7.95 1.4 2.55.75 4.9 1.95L64.45 49l-1.4-4.2-2.35-1.3q-2-1-4.15-1.7-3.8-1.3-8.15-1.65L45.75 40h-3.4q-8.8.45-15.25 4.25" fill="#5e2414"/><path d="m60.7 43.5 2.35 1.3 1.4 4.2-2.85-1.65-.9-3.85" fill="#fde3ff"/><path d="m27.5 48.45-3 1.75v-4.25l2.6-1.7.4 4.2M45.75 40l2.65.15.35 3.85-2.35-.05-.65-3.95m10.8 1.8q2.15.7 4.15 1.7l.9 3.85q-2.35-1.2-4.9-1.95l-.15-3.6" fill="#fca44d"/><path d="M42.35 40h1.35l.7 4.05-1.5.1-.55-4.15m6.05.15q4.35.35 8.15 1.65l.15 3.6q-3.8-1.15-7.95-1.4l-.35-3.85" fill="#be6711"/><path d="m46.55 21.9.2-.35q1.4-2.35 3.05-3.05l-.1 3.05q-.35 3.4-1.9 5.6 4.35 4.45 6.95 11.25l-1.05-.25-1.05-.2Q50.5 32 46.55 29q-1.85-1.4 0-7.1" fill="#86a8fc"/><path d="M24.45.15q-2.4 2-5 3.45-2.85 1.5-4.3 2.35-2.15 1.25-3.3 2.4-1.35 1.3-1.8 2.85l-.05.25q-.85 3.45 1.45 6.7 1.25 1.8 3.4 3.4 1.9 1.45 4.5 2.7-3.5-1.1-6.8-2.7Q6 18.35.25 13.15 11.2 1.3 24.45.15m20.6 37.15q-3.95-3.7-4.35-14.65l1.15-1.1q5.75-6.2 4.85-16.6 1.25 9.6-.05 16.6l-.1.35q-1.85 5.7 0 7.1 3.95 3 6.1 8.95l-2-.35-5.6-.3" fill="#a5c4fc"/><path d="m67.4 51 .55-.4q1.05-.8 2.9-1.75l3.95-2.1 3.65-2.05 5.85-3.05q2.35-1.25 4.75-3l3.3-2.5q.75 6.9-.55 12.7l-.45 1.75q-1.5 5.3-4.85 9.85l4.3-2.05q.45 9.05-4.45 14.85-2.95 8.25-9.6 9.6 1.1 6.7.65 12.7-.25 3.2-.95 6.2-39.2 18-62.25-4.5l-.2-1.7q-1.4-13.25 6.25-25.7l.2-.15q1.8-1.1 3.7-1.95-4.45 6.9-6.25 13.75-1.6 6.05-1.15 12.1l.2 1.95.2 1.4q11.35 10.6 25.7 9.3-.85-5.45-.8-10.7l.3-5.25.7-4.85L44.1 81l1.05 25.55 7.8-.45 6.5-1.2q5.85-1.35 11.6-3.85l2.9-1.3.65-4.2q.6-6.6-1.25-12.85-2.5-.3-4.8-1.3l-3-1.7q-2.25-1.55-4.3-3.8-3.25-4.2-3.4-8.55l.1-2.1q.35-2.35 1.55-4.8 1-2.15 2.65-4.3l3.35-3.55 1.9-1.6m11.25-3.9-4.1 2.2-2.3 1.3q-3.55 2.15-5.75 4.2-3.85 3.6-5.55 8.55-.8 5.65 3.15 10.45 3.5 4.25 8.55 5.5l.55.15 3.9-.1q1.35-.45 2.9-1.7 1.15-.9 2.15-2.75 1.05-1.9 1.35-3.75.7-4.5-3.5-4.65l-.35-.05q1.05-1.2 2.75-1.05l.6.05q2.25.45 2.55 2.7 1.9-2.4 2.5-6.4l-2.5.2q-.7-.2-1.25-.75l-2.15.8q4.65-5 7-11.4 2.1-5.7 2.45-12.45-3.1 3.4-8.15 6.4l-4.8 2.55" fill="#f7ff8d"/><path d="m61.5 50.2.75.4 3.25 2-3.35 3.55-.65-5.95" fill="#dcbfff"/><path d="m85.55 61.95 2.5-.2q-.6 4-2.5 6.4-.3-2.25-2.55-2.7l-.6-.05q2.9-1.45 3.15-3.45" fill="#04dbe9"/><path d="M24.55 51.95q1.45-.75 3-1.35 6.45-2.7 13.4-3.25l-1.75 3.4q-5.75-.15-12.15 2.7L26.5 65.2q-1.4.7-2.65 1.55l.7-14.8M43 47.45q9.65-1.75 18.5 2.75l.65 5.95q-1.65 2.15-2.65 4.3-1.2 2.45-1.55 4.8-3.95-1.25-7.55-2l.05-10.85-5.35-1.5-2.1-3.45" fill="#0289ef"/><path d="m57.85 67.35-3.05-.9q-17.25-4.7-30.65 1.3-1.9.85-3.7 1.95 1.6-1.65 3.4-2.95 1.25-.85 2.65-1.55 1.45-.8 3.05-1.35 4.5-1.6 10-1.7h1.75l2.3.15.5.05 1.55.15 4.75.75q3.6.75 7.55 2l-.1 2.1" fill="#067a68"/><path d="m54.8 66.45 3.05.9q.15 4.35 3.4 8.55 2.05 2.25 4.3 3.8-.25 9.45 1.15 14.1l.65 1.75q1.4 2.95 3.8 2.65l-.1 2.85q-5.75 2.5-11.6 3.85l.25-9.35q-.1-8.7-1.55-16.6-1.2-6.55-3.35-12.5" fill="#65b882"/><path d="M71.15 98.2q-2.4.3-3.8-2.65l-.65-1.75q-1.4-4.65-1.15-14.1l3 1.7q1.65 5.1 2.4 14.15l.2 2.65" fill="#a2d3a0"/><path d="m71.05 101.05.1-2.85-.2-2.65q-.75-9.05-2.4-14.15 2.3 1 4.8 1.3 1.85 6.25 1.25 12.85l-.65 4.2-2.9 1.3" fill="#b4d17c"/><path d="M54.8 66.45q2.15 5.95 3.35 12.5.4 10.9-2.35 16.6-2.25 4.6-6.55 5.85h-.05q-1.95-3.3-1.8-5.85l.1-.9q2.7-16.3-1.25-26.5l8.55-1.7M42.35 90.3q-1.4 3.05-3 5.25-7.85 10.7-20.45 0l-2.15-1.95q-.45-6.05 1.15-12.1 8.75 21 25.15 3.95l-.7 4.85" fill="#dde5e7"/><path d="M24.15 67.75q13.4-6 30.65-1.3l-8.55 1.7q3.95 10.2 1.25 26.5l-.1.9q-.15 2.55 1.8 5.85l.1.15q1.8 3 3.65 4.55l-7.8.45L44.1 81l-1.05 4.45Q26.65 102.5 17.9 81.5q1.8-6.85 6.25-13.75" fill="#f8fbff"/><path d="m50.4 63.25-4.75-.75 2.7-6.25-3.25-5.35 5.35 1.5-.05 10.85m-20.85.6q-1.6.55-3.05 1.35l.55-11.75q6.4-2.85 12.15-2.7l-1.3 2.6Q33.7 52.9 30 55l-.45 8.85" fill="#3abbed"/><path d="M19.35 24.25q-2.6-1.25-4.5-2.7-2.15-1.6-3.4-3.4-2.3-3.25-1.45-6.7l.05-.25q.45-1.55 1.8-2.85 1.15-1.15 3.3-2.4 1.45-.85 4.3-2.35 2.6-1.45 5-3.45l8.9.4Q39.8 1.6 46.7 4.95q.9 10.4-4.85 16.6l-1.15 1.1q.4 10.95 4.35 14.65l-1.4.05-6.75.75q-6.1.8-10.05 2.95-1.65-8.9-4.3-14.65l2.95-.65q-3.15-.55-6.15-1.5m11.15 20.4q-.15-.55.25-1.1.35-.55 1.05-.7l1.25.05q.6.3.8.85.15.6-.25 1.15l-1.05.75-1.25-.1q-.65-.3-.8-.9m5.05-2.15.75-.55.95.1.55.6q.1.45-.2.85l-.75.5-.95-.05q-.45-.2-.55-.65-.1-.4.2-.8" fill="#fffffc"/><path d="M27.1 44.25q6.45-3.8 15.25-4.25l.55 4.15-1.05.1q-8.5 1.2-14.35 4.2l-.4-4.2M43.7 40h2.05l.65 3.95-2 .1-.7-4.05m-13.2 4.65q.15.6.8.9l1.25.1 1.05-.75q.4-.55.25-1.15-.2-.55-.8-.85l-1.25-.05q-.7.15-1.05.7-.4.55-.25 1.1m5.05-2.15q-.3.4-.2.8.1.45.55.65l.95.05.75-.5q.3-.4.2-.85l-.55-.6-.95-.1-.75.55" fill="#f8e769"/><path d="m20.25 69.85 1.1-16.15q1.6-.95 3.2-1.75l-.7 14.8q-1.8 1.3-3.4 2.95l-.2.15m20.7-22.5.9-1.8 1.15 1.9 2.1 3.45 3.25 5.35-2.7 6.25-1.55-.15 2.4-5.85-4.45-8.45-.15.3-4.1 8.15 2.9 5.65h-1.15l-2.95-6.2 1.3-2.6 1.3-2.6 1.75-3.4" fill="#0266e8"/><path d="m44.1 62.35-.5-.05 1.6-4.05.5-1.3-.45-.6-3.35-4.5v-3.5l.15-.3 4.45 8.45-2.4 5.85" fill="#fccdff"/><path d="M41.3 62.15h-.6l-2.9-5.65 4.1-8.15v3.9l-2.85 4.4 1.65 3.4.6 2.1" fill="#efffdf"/><path d="m43.6 62.3-2.3-.15-.6-2.1 1.45-1.8h3.05l-1.6 4.05m-1.7-10.45 3.35 4.5-3.35.9v-5.4" fill="#73adfd"/><path d="M45.2 58.25h-3.05l-1.45 1.8-1.65-3.4 2.85-4.4v5l3.35-.9.45.6-.5 1.3" fill="#9cfbd2"/><path d="M39.55 62.15q-5.5.1-10 1.7L30 55q3.7-2.1 7.9-1.65l-1.3 2.6 2.95 6.2" fill="#0ef2f1"/><path d="M58.15 78.95q1.45 7.9 1.55 16.6l-.25 9.35-6.5 1.2q-1.85-1.55-3.65-4.55l-.05-.15q4.3-1.25 6.55-5.85 2.75-5.7 2.35-16.6M16.75 93.6l2.15 1.95q12.6 10.7 20.45 0 1.6-2.2 3-5.25l-.3 5.25q-.05 5.25.8 10.7-14.35 1.3-25.7-9.3l-.2-1.4-.2-1.95" fill="#94cfd3"/><path d="m78.65 47.1 4.8-2.55q5.05-3 8.15-6.4-.35 6.75-2.45 12.45-2.35 6.4-7 11.4l2.15-.8q.55.55 1.25.75-.25 2-3.15 3.45-1.7-.15-2.75 1.05l.35.05q2.45 4.1 2 6.9-.45 2.95-3.95 3.3-3.35.25-3.6-4.55-.3-4.85 2.85-11-3.5-.1-7.25 4-1.55-6.1 5.45-14.55l3.15-3.5" fill="url(#y)"/><path d="M80 66.5q4.2.15 3.5 4.65-.3 1.85-1.35 3.75-1 1.85-2.15 2.75-1.55 1.25-2.9 1.7l-3.9.1-.55-.15q-5.05-1.25-8.55-5.5-3.95-4.8-3.15-10.45 1.7-4.95 5.55-8.55 2.2-2.05 5.75-4.2l2.3-1.3 4.1-2.2-3.15 3.5q-7 8.45-5.45 14.55 3.75-4.1 7.25-4-3.15 6.15-2.85 11 .25 4.8 3.6 4.55 3.5-.35 3.95-3.3.45-2.8-2-6.9" fill="url(#z)"/></g><g id="l" transform="translate(6.1 .2)"><use ffdec:characterId="35" height="84.7" transform="translate(0 20.1)" width="33.9" xlink:href="#A"/><use ffdec:characterId="36" height="33.7" transform="translate(12.7 55.4)" width="33.7" xlink:href="#B"/><use ffdec:characterId="38" height="110.05" transform="translate(39.2)" width="116.05" xlink:href="#C"/></g><g id="O" fill-rule="evenodd"><path d="m18.35 39.55-.7.55-1.15 1.3-1.15-5.1-.6-3-.35-2.5-.75-7-.15-2.35q-.15-5.05.65-9.2l.7-2.85.25-.85 1.2-2.85q1.85-3.2 4.75-4.4l4.15.55q.9.2 1.6 1.05.95 1.15 1.3 2.9-2-2-3.3-2.5l-2.45.1q-4.1 3.15-5 15.7-.7 10.35 1 20.45M19.8 55.5l-.65-2.2q-1.45-6.1 1.95-.15 4.7 17.9 6.2 21.45l1 2.6-2.3-3.95q-1.1-2.3-1.75-4.55l-2-6.15-2.45-7.05" fill="#fde3ff"/><path d="M21.1 53.15q1.35-4.3 5.6 15.5 2.5 9.75 7.2 16.05-4.95-3.35-9.6-8.3l-4.95-5.6q-2.6-3.35-4.95-7-3.85-5.95-6.8-12.6Q2.45 39.9.75 28.5q-1.8-12.45.7-23.15Q7.7 2.1 13 .75 15.9 0 18.65 0l5.25.5q2.2.5 3.45 2.25 1.2 1.7.85 3.15l-.1-.1q-.35-1.75-1.3-2.9-.7-.85-1.6-1.05l-4.15-.55q-2.5-.2-5.05.1-3.95.55-7.65 1.75Q4.8 4.4 2.3 5.85q-.3 2-.45 3.95l-.3 4.35-.1 4.3q.05 6.7 1.1 13.05L3 33.85q.65 3.45 1.7 6.75L5.8 44l1.25 3.15.8 1.6q1.05 2.65 2.6 5.15l.15.3.15.25q2.35 4.45 5.6 9.4l2.7 4 5.2 6.55.4.45 5.15 5.6-1.5-3.25-1-2.6q-1.5-3.55-6.2-21.45m-.25-45.3q-1.5 5.35-1.65 11.9-.2 7.7 1.55 17.9-1.3.8-2.4 1.9-1.7-10.1-1-20.45.9-12.55 5-15.7l-1.5 4.45" fill="#5e2414"/><path d="m28.2 5.9-7.35 1.95 1.5-4.45 2.45-.1q1.3.5 3.3 2.5l.1.1M17.4 54.8q1.35 1.25 1.8-.9l.6 1.6 2.45 7.05 2 6.15q.65 2.25 1.75 4.55l2.3 3.95 1.5 3.25q-1.6-1.95-3.95-5.7l-1.6-2.9q-1.4-2.5-6.85-17l-.15-.35.15.3M5.8 44l-1.1-3.4 9.7-9.8.35 2.5L5.8 44M3 33.85l-.45-2.35q-1.05-6.35-1.1-13.05l9.75-4.75.8-3.85.55-3.05-10.7 3Q2 7.85 2.3 5.85q2.5-1.45 6.05-2.7 3.7-1.2 7.65-1.75 2.55-.3 5.05-.1-2.9 1.2-4.75 4.4l-1.2 2.85-.25.85-.7 2.85q-.8 4.15-.65 9.2l.15 2.35L3 33.85" fill="#be6711"/><path d="M15.35 43q-2.4 3.55.65 3.35l-5.55 7.55q-1.55-2.5-2.6-5.15L14 41.3l1.35 1.7M1.55 14.15l.3-4.35 10.7-3L12 9.85l-10.45 4.3" fill="#fffffe"/><path d="m16 46.35 1.4 8.45-.15-.3.15.35q5.45 14.5 6.85 17l1.6 2.9q2.35 3.75 3.95 5.7l-5.15-5.6-.4-.45-5.2-6.55-2.7-4q-3.25-4.95-5.6-9.4l-.15-.25-.15-.3L16 46.35m-8.95.8L5.8 44l8.95-10.7.6 3-8.3 10.85m-5.6-28.7.1-4.3L12 9.85l-.8 3.85-9.75 4.75" fill="#fca44d"/><path d="M16.5 41.4 15.35 43 14 41.3l-6.15 7.45-.8-1.6 8.3-10.85 1.15 5.1m-11.8-.8Q3.65 37.3 3 33.85L13.65 23.8l.75 7-9.7 9.8" fill="#f8e769"/></g><g id="B" fill-rule="evenodd"><path d="m32.65 58.4 2.45-.4h.45l.8.15.3.5.1.2q2.4 4.5 2.45 9.2l-.3 3.2q.1-2.2-.25-4.1-1.05-5.5-6-8.75M24.8 87.15l-.55-.15q-2.1-.8-3.9-2.15l1.3.15 2.6.1 6.35-.9.65-.2q4.4-1.4 7.95-4.7v.1q3.55-3.85 3.65-9.05h.05v.2l.05 1.15q.1 5.8-3.3 10.15l-.4.5-.6.65-.45.45-.6.55q-4 3.35-9.9 3.35l-2.9-.2" fill="#a5c4fc" transform="translate(-12.7 -55.4)"/><path d="m32.65 58.4-2.1-1.25-1-.45v-.05l3.4.35 1.6.45 1.8.7-.8-.15h-.45l-2.45.4" fill="#d9fffd" transform="translate(-12.7 -55.4)"/><path d="M15.95 74.75q-.45-3.05 1.55-5.95l.75-1 .65.95q-.55.6-.55 1.4 0 .8.6 1.35.6.65 1.4.65.8 0 1.4-.65l.6-.95.3-.4 1.6.2 1.8-.35q1.55-.55 2.4-1.85 2.05-3.1-.8-7.1.9-1.6 4.4-2.55l.6-.1q4.95 3.25 6 8.75-2.1 4.1-5.5 6.7-3.1 2.35-6.8 3.05l-2.1.25q-2.45.1-4.75-.6l-2-.8-1.55-1M27.3 73.3q-.4-.4-1-.4t-1.05.4q-.45.45-.45 1.05 0 .6.45 1.05.45.45 1.05.45.6 0 1-.45l.45-1.05q0-.6-.45-1.05" fill="#a2fcd2" transform="translate(-12.7 -55.4)"/><path d="m29.55 56.7 1 .45 2.1 1.25-.6.1q-3.5.95-4.4 2.55 2.85 4 .8 7.1-.85 1.3-2.4 1.85l-1.8.35-1.6-.2.2-.85q0-.85-.65-1.45-.55-.6-1.35-.6-.85 0-1.45.6-.4.4-.5.9l-.65-.95-.75 1q-2 2.9-1.55 5.95L14 73l-.05-.8q0-2.15.5-4.1.85-3.2 3.05-5.8l1-1.1q2.6-2.6 5.75-3.7 2.35-.85 5.05-.85l.25.05m-3.45 7.9q0-.6-.45-1.05-.45-.4-1.05-.4l-.35.05q-.4.05-.7.35-.4.45-.4 1.05 0 .6.4 1.05l.7.4.35.05 1.05-.45q.45-.45.45-1.05" fill="#f2ffcf" transform="translate(-12.7 -55.4)"/><path d="m36.35 58.15-1.8-.7-1.6-.45-3.4-.35h-.25q-2.7 0-5.05.85-3.15 1.1-5.75 3.7l-1 1.1q-2.2 2.6-3.05 5.8-.5 1.95-.5 4.1l.05.8q.05 1.85.5 3.55.85 3.1 3 5.65l.45.5.1.1.45.45.3.3.55.45 1 .85q1.8 1.35 3.9 2.15l.55.15 2.5.55 2.25.15q5.5 0 9.6-3.25l1.15-1.05.05-.05.45-.45.15-.15q4.3-4.4 4.3-10.6l-.05-1.05-.5-3.2-.05.05-.6-1.8-.35-.8-.1-.25-.15-.2Q42.35 63 40.6 61.2q-1.95-1.95-4.25-3.05m1.35-.7q1.85 1 3.5 2.6l.25.25.15.15.95 1.05.05.05.35.4 1.7 2.7.9 2.1q.65 2.05.8 4.3l.05 1.2q0 6.85-4.8 11.75l-.15.15-.5.5-.85.8-.95.7q-3.7 2.65-8.45 2.95h-2.25l-1.7-.25-1.35-.25-1.15-.3-.2-.1-2.05-.85q-1.55-.8-2.95-1.9l-.9-.8-.5-.5-.15-.15q-4.8-4.9-4.8-11.75l.05-1.2q.1-2.05.7-3.85l.2-.7.15-.3.7-1.55q.35-.8.85-1.5l.85-1.2.3-.4.45-.5.55-.6.15-.15.25-.25.45-.4.45-.4 1.4-1.05.1-.05.5-.35.65-.35 2.8-1.25 1.35-.35 3.6-.45h.35q2.8 0 5.3.8l2.85 1.25" fill="#3086e0" transform="translate(-12.7 -55.4)"/><path d="M18.9 68.75q.1-.5.5-.9.6-.6 1.45-.6.8 0 1.35.6.65.6.65 1.45l-.2.85-.3.4-.6.95q-.6.65-1.4.65-.8 0-1.4-.65-.6-.55-.6-1.35t.55-1.4m7.2-4.15q0 .6-.45 1.05l-1.05.45-.35-.05-.7-.4q-.4-.45-.4-1.05 0-.6.4-1.05.3-.3.7-.35l.35-.05q.6 0 1.05.4.45.45.45 1.05m1.2 8.7q.45.45.45 1.05l-.45 1.05q-.4.45-1 .45t-1.05-.45q-.45-.45-.45-1.05 0-.6.45-1.05.45-.4 1.05-.4.6 0 1 .4" fill="#fffffe" transform="translate(-12.7 -55.4)"/><path d="m14 73 1.95 1.75 1.55 1 2 .8q2.3.7 4.75.6l2.1-.25q3.7-.7 6.8-3.05 3.4-2.6 5.5-6.7.35 1.9.25 4.1-.7 3.35-3.05 5.6-4.7 4.5-10.2 4.65h-1.4q-3.2-.25-6.15-2.05l-.6-.35-3-2.55q-.45-1.7-.5-3.55" fill="#73efc3" transform="translate(-12.7 -55.4)"/><path d="m38.9 71.25.3-3.2q-.05-4.7-2.45-9.2l-.1-.2-.3-.5 1 .8 2.45 2.65q2.35 3.15 2.95 7.3l.1.8v.65q-.1 5.2-3.65 9.05v-.1q-3.55 3.3-7.95 4.7l-.65.2-6.35.9-2.6-.1-1.3-.15-1-.85-.55-.45-.3-.3-.45-.45-.1-.1-.45-.5q-2.15-2.55-3-5.65l3 2.55.6.35q2.95 1.8 6.15 2.05h1.4q5.5-.15 10.2-4.65 2.35-2.25 3.05-5.6" fill="#246dfc" transform="translate(-12.7 -55.4)"/><path d="M36.35 58.15q2.3 1.1 4.25 3.05 1.75 1.8 2.85 3.85l.15.2.1.25.35.8.6 1.8.05-.05.5 3.2.05 1.05q0 6.2-4.3 10.6l-.15.15-.45.45-.05.05-1.15 1.05q-4.1 3.25-9.6 3.25l-2.25-.15-2.5-.55 2.9.2q5.9 0 9.9-3.35l.6-.55.45-.45.6-.65.4-.5q3.4-4.35 3.3-10.15l-.05-1.15v-.2l-.05-.6v-.05l-.1-.8q-.6-4.15-2.95-7.3l-2.45-2.65-1-.8" fill="#fde3ff" transform="translate(-12.7 -55.4)"/></g><g id="P" fill-rule="evenodd"><path d="M84.2 14.8h-.1q-8.05 3.15-16.45 7.25-11.1 5.4-17.25 9.05-4.45 2.6-8.2 5.4l-2.95 2.3-1.2 1q-4.7 4-9.3 9.85l-.85 1.05-.7.95q-2.7 3.6-5.6 8.2l-.1-.05q3-5.05 6.4-9.9l.85-1.2q3.7-5.05 7.9-9.9l.45-.55q35.85-28.5 74.15-36.1-7.8 4.1-15.2 8.65-4.3 1-11.85 4M3.6 72.15q1-1.45 2.2-2.45l1.1-.85 1.2-.7q2.85-1.35 6.3-.75l.6.1-.6 1.15-.3.65-3.7-.25q-1.7.3-3.3 1.05l-1.2.55-2.3 1.5" fill="#fde3ff"/><path d="m84.15 14.85.05-.05q7.55-3 11.85-4Q71.35 26 50.7 46.55q-9.05 9-17.35 19.05l-2.65 3.25-12.05-1.05 3.9-6.2 14.55-2.15 3.95-5.4 2.55-3.45-17.95 5.75 5.25-7.9 22.45-7.15q6.95-7 15.4-14.25 7.15-6.05 15.4-12.2M5.55 104l7.55-13.45-3.4-1.4q1.75-6.6 4.7-13.05l1-2.1 9.35 2.55-2.65 3.65q-3.95 5.45-7.7 11.2-4.7 7.2-9.05 14.85l.2-2.25M21.8 64.7l9.1 2.45 1.7-2.45H21.8M2.25 82.65l-.1-.25-.3-.85q-.85-2.7-.05-5.5 1.8 1.4 3.35 1.35l1.45-.45q2.4-1.5 3.8-7.9 1.9 4.6-.8 9.15-2.25 3.85-5.95 4.35l-1.4.1m4.65-2.5.3-.8-.3-.75q-.3-.3-.75-.3H6.1q-.4 0-.7.3-.35.35-.35.75l.25.7.1.1.75.3q.45 0 .75-.3" fill="#f8e769"/><path d="m84.1 14.8.05.05Q75.9 21 68.75 27.05 56.05 29.4 42.2 36.5q3.75-2.8 8.2-5.4 6.15-3.65 17.25-9.05 8.4-4.1 16.45-7.25M41.05 54.05l-3.95 5.4-14.55 2.15-3.9 6.2-1.35 2.45L15.4 74l-1 2.1q-2.95 6.45-4.7 13.05l3.4 1.4L5.55 104q1.6-14.65 8.85-30.65l.85-1.85 2.05-4.15 1.9-3.6 2.4-3.9q3.15-1.4 6.3-2.45l.85-.3q6.3-2.15 12.3-3.05M8.4 83.35l-1.35 4.5L4.9 86.2q2.2-.4 3.5-2.85" fill="#fca44d"/><path d="m30.7 68.85 2.65-3.25q8.3-10.05 17.35-19.05Q71.35 26 96.05 10.8q7.4-4.55 15.2-8.65-38.3 7.6-74.15 36.1l-.45.55q-4.2 4.85-7.9 9.9l-.85 1.2q-3.4 4.85-6.4 9.9l-2.3 3.95-1.9 3.6-2.05 4.15-.85 1.85q-7.25 16-8.85 30.65l-.2 2.25Q9.7 98.6 14.4 91.4q3.75-5.75 7.7-11.2l2.65-3.65q1.95-2.7 4-5.25l1.95-2.45m20-19.25q-7.45 7.65-14.55 16l-7.4 9.05-4.3 5.55q-5.1 6.75-10.05 13.95-4.35 6.3-8.55 12.95L4 110.05v-2.95q.1-6.95 2-15.15l.7-2.85q-3.25-1.9-4.95-4.45l-.65-1.1-.15-.35-.5-1.35Q.05 80.6 0 79.3q-.05-2.05.65-4.25 1.1-3.2 3-5.35l1.8-1.6.75-.55.3-.2q3.5-2.05 7.9-1.3l1.2.25 1.7-3.2q4.55-8.25 10.6-16.35l.85-1.15 5.4-6.8 1.4-1.65Q79 3.05 116.05 0 80.65 18.85 50.7 49.6M3.6 72.15 3 73.2q-.8 1.45-1.2 2.85-.8 2.8.05 5.5l.3.85.1.25.5.95Q3.6 85 4.9 86.2l2.15 1.65 1.35-4.5q1.7-5.25 4-10.45l1.7-3.6.3-.65.6-1.15-.6-.1q-3.45-.6-6.3.75l-1.2.7-1.1.85q-1.2 1-2.2 2.45" fill="#5e2414"/><path d="M68.75 27.05Q60.3 34.3 53.35 41.3L30.9 48.45l-5.25 7.9L43.6 50.6l-2.55 3.45q-6 .9-12.3 3.05l-.85.3q-3.15 1.05-6.3 2.45 2.9-4.6 5.6-8.2l.7-.95.85-1.05q4.6-5.85 9.3-9.85l1.2-1 2.95-2.3q13.85-7.1 26.55-9.45M14.1 69.3l-1.7 3.6q-2.3 5.2-4 10.45-1.3 2.45-3.5 2.85-1.3-1.2-2.15-2.6l-.5-.95 1.4-.1q3.7-.5 5.95-4.35 2.7-4.55.8-9.15l3.7.25" fill="#be6711"/><path d="m18.65 67.8 12.05 1.05-1.95 2.45q-2.05 2.55-4 5.25L15.4 74l1.9-3.75 1.35-2.45m3.15-3.1h10.8l-1.7 2.45-9.1-2.45m-20 11.35q.4-1.4 1.2-2.85l.6-1.05 2.3-1.5 1.2-.55q1.6-.75 3.3-1.05-1.4 6.4-3.8 7.9l-1.45.45q-1.55.05-3.35-1.35m5.1 4.1q-.3.3-.75.3l-.75-.3-.1-.1-.25-.7q0-.4.35-.75.3-.3.7-.3h.05q.45 0 .75.3l.3.75-.3.8" fill="#fffffe"/></g><g id="Q" fill-rule="evenodd"><path d="M8.25 66.85Q5.3 61.9 6.75 49.3 10 25 4.55 9.1q6.35 4.15 11.55 13.2 2.7 4.75 3.9 9.55 1.1 4.45.8 8.6-.25-2.25-1.05-3.95-2.5-14.1-13.25-25.15l-.3-.3Q9 17.1 9.25 26.2l-.05 7.9-.2 7.85-.5 4.25q-.6 4.25-.85 8.05L7.6 55q-.15 2.5.15 5l.7 4.2-.2 2.65M53.6 41.8q4.1-4.6 10.55-11.05l10.45-10.4Q86.45 8.2 90.85 0q1.95 7.4.5 14.2-1.05 5.05-4.4 10.95-3.9 6.2-5.5 9.1-2.3 4.2-2.7 7.6l3.4-1.95q-.2 14.7-9.5 27.5l4.25-.95q-3.1 3.75-3.1 6.4 9.85-3.85 16.95-14.5Q88.6 75.9 71.1 90.1q3.9 3.65 6.15 8.05 2.25 4.4 2.55 8.9-7.85-5.9-19.4-8.6 2.95 2.6 3.25 7.15-6.25-3.45-14-3.5l-.1.05q-10.1 7.75-19.35 9.9-.55-.8-1.5-1.3-.95-.45-2.7-.8l-3.65-.4-6.1-.45q-2.1-.45-3.65-2.55l.95-.6q1.75 2.75 8.35 2.5l9.15-3.55h3.15l1.75-2.4-1.45 3.2h-.9q-.25 2.6-2.2 3.7-1-1.9-3.1-2.4l-5.05 1.8 4.05.4q1.5.4 2.75 1.3l.4.3 4.95-1.75q9.15-3.8 17.4-10.9l-2.75 3.25q5.1-.5 9.3 1.05l2.55 1.1-1.25-2.95-2.05-2.95 3.25.2q3.55.35 7.05 1.35l1.35.45q4.35 1.45 7.55 3.8-1.7-7.4-7.6-12.7-3.7 1.8-7.7 1.75l-1.75-.1 1.35-.15q4.5-.85 8.95-4.85 3-2.7 9.25-9.4 3.25-3.1 5.6-7.4 2.3-4.2 3.5-9-2.9 4.6-9.65 8.95l-4.4 2.55Q71.3 75.15 68 75.55q1.6-.55 4.95-2.25-.55-1.1 1.65-5l-5.5 2.25q4.75-6.75 7.85-14.05l1.35-3.4q2-5.55 2.85-10.95l-3.25 2Q76.8 42.1 79 37.1l.2-.4q9.65-17.45 10.3-28.85l-8.7 9.5-5.55 5.6-3.65 3.55Q57.55 40.2 53.05 45.05l.55-3.25m-43 61.9 1.85-2.4q1.05-1.5 1.55-2.95.55-1.7.75-3.9l.05-3.9.5.6.05 3.4-.55 3.05q-.8 2.95-2.6 5.35-.85.3-1.6.75m3.95-13.45q-5.05-3.3-8.7-9Q2 75.35 0 67.3q3.85 4.8 7.95 6.7-1.75-2.35-2.65-5.55 1.45.85 2.95 1.25v.7l-1-.25-1.1-.6q.95 2.4 2.35 4l.1.7.15 1.05q-3.5-1.25-6.95-4.9 4.3 11.75 10.8 16.95l.5.85 1.45 2.05m46.55-15.8Q55.25 78.6 51.05 85.9q-.05-1.1 1-2.5-1.05-2.45-1.2-6.2-.1-2.95.4-6.2Q53.5 56.4 67.7 40.2l3.3-3.6-.4 4.1 4.6-4.85q6.2-7.35 8.8-15.4-1.9 7.7-2.6 9.5-2.05 5.75-6.05 9.95L72.3 43l-.6.65q3.15 14.1-5.8 20.3 7.8-7.6 5.25-19.75l-3.25 3.4q-3.95 4.15-6 7.4l5.55-2.1q-2.1 4.4-5.55 7.9l3.25.95q-.75 2.35-2.6 3.75l4.6 3.95q-5.6 1.25-11.55 0l-.3 4.8q-2.1-9.3 5.75-20.15 2-3.1 5.55-6.85l3.35-3.3 3.8-3.75 3.1-3.45q1.25-1.75 2-3.75l-4.25 4.75q-3.3 3.3-4.9 3.9V39.4q-6.05 6.7-10.1 13.9-4.95 8.8-6.9 18.35-1.25 6.25-.45 11.35 1.75-2.7 3.65-4.9 3-3.45 6.3-5.8l-.9 4.95q4.45-4.55 10.15-7.05l-5.5 5.75q-2.15 2.3-4.15 4.7l-3.45 4.1q3.65-6.1 10.1-12.2-4.2 2.35-8 6.1l.65-4.2m.65-8.75q1.45-1.3 2.2-3.5L61 61.3q2.75-3.15 4.5-7.05l-4.4 1.6q-5.05 6.6-5.4 12.85 4.6.9 9.25.05l-3.2-3.05m-28.8 39.95-1.45-.4-2.15 1.35q1.5.55 2.4 1.85l.1-.05q1-1.05 1.1-2.75" fill="#405c79"/><path d="m8.45 64.2-.7-4.2q-.3-2.5-.15-5l.2-.75q2.3-9.15 6.4-14.35-.6-8.2-2.25-15.2Q9.85 16 6.5 11.35 17.25 22.4 19.75 36.5q-5.7 7.65-7.85 21.8l-1.35-2.6Q9 59.75 8.45 64.2m-.2 6.2.25 3.15q-1.4-1.6-2.35-4l1.1.6 1 .25m.5 4.9.05.5q1.15 6.9 3.8 11.55-6.5-5.2-10.8-16.95 3.45 3.65 6.95 4.9m11.4 14.95q10.4-4.6 17.75-11.8 8.5-8.35 12.4-19.65l-2.85 1.05q3.3-5.8 5-12.3l.6-2.5q4.5-4.85 18.55-18.55l3.65-3.55-18.1 22.1-.75 3.55-3.1 2.35q.4.65.6 4.15v.85l-2.9 6.5q-2.95 5.95-5.9 10.5l-2.7 3.95-.2.15q4.05 1.2 2.65 5.85-.55 1.95-1.9 3.65-1.35 1.8-2.85 2.6-4 2.2-12.05 1.85l-7.9-.75m45.8-14.3 5.5-5.75q-5.7 2.5-10.15 7.05l.9-4.95q-3.3 2.35-6.3 5.8l-.6-3.85.3-4.8q5.95 1.25 11.55 0l-4.6-3.95q1.85-1.4 2.6-3.75l-3.25-.95q3.45-3.5 5.55-7.9L61.9 55q2.05-3.25 6-7.4l3.25-3.4q2.55 12.15-5.25 19.75 8.95-6.2 5.8-20.3l.6-.65q.95 3.35 1.05 8.3.1 4.8-1.95 8.55 3.7-1.85 6.9-6.75l-1.35 3.4q-3.1 7.3-7.85 14.05l5.5-2.25q-2.2 3.9-1.65 5Q69.6 75 68 75.55l-2.05.4m9.4-2.85 4.4-2.55q6.75-4.35 9.65-8.95-1.2 4.8-3.5 9-2.35 4.3-5.6 7.4-6.25 6.7-9.25 9.4-4.45 4-8.95 4.85-.25-1.05.85-2.6l3.05-3.6q5.95-6.65 9.35-12.95M62.5 92.5q4 .05 7.7-1.75 5.9 5.3 7.6 12.7-3.2-2.35-7.55-3.8-.85-1.55-4.5-3.85-1.55-.95-2.35-1.75-.9-.85-.9-1.55" fill="#86a8fc"/><path d="M20.8 40.45q.15 1.8-.1 4.05 6.85-10.95 17.2-18.05 4.75 7.4 4.7 16.95 5.6-6.1 11.55-8.75-.05 3.65-.55 7.15l-.55 3.25-.6 2.5q-1.7 6.5-5 12.3l2.85-1.05q-3.9 11.3-12.4 19.65-7.35 7.2-17.75 11.8L16.1 91.9l-.8-.75-.5-.6-.25-.3-1.45-2.05-.5-.85Q9.95 82.7 8.8 75.8l-.05-.5-.15-1.05-.1-.7-.25-3.15v-3.55l.2-2.65q.55-4.45 2.1-8.5l1.35 2.6q2.15-14.15 7.85-21.8.8 1.7 1.05 3.95m-2.25 8.25 1-2.3q.55-4.8 0-8.15l-.65 1.05-1.75 3.2-1.05 2.25Q14.3 49 13.25 55.6q-1 6.05-1.15 12.3l-.2-2.95-.3-4.3-.95-3.15-.7 3.05-.55 3.6-.2 2-.05 2q-.05 2.75.3 5.45l.25 1.65q.45 2.75 1.15 5.2 1.7 5.8 4.85 9.8l.5.6q9.7-3 20-13.4 9-9.05 12.55-17.15l-.7.3-1.65.7-3.8 5.15q-2.1 2.4-4.3 4l-1.85 1.2q15.4-14.7 17.1-36l-2 1.4-.9.65q-12.1 9.3-23.4 28.65l-.1-.05q4.45-8.75 10.5-16.8l2.4-3.1 1.6-1.95q-.1-9.55-4.15-17.05l-.95.75-.85.7-1 .85q-2.45 2.1-4.7 4.55-4.6 5-8.25 11.35l-.65 1.15-1.25 2.3q-1.7 3.3-3.15 6.9l-.9 3.15-.85 3.15h-.05q.15-2.8 1.7-7.9l.9-2.7 1.05-2.95" fill="#591e0d"/><path d="m17.5 51.65-.9 2.7q-1.55 5.1-1.7 7.9L14 63.9q-.7-5.65 2.1-12.35v-.3q.8-3.9 0-6.5l1.05-2.25q.8 3 .35 9.15M34.7 29.7l1-.85Q37 32.9 37.5 38q.55 5.45.15 11.5-6.05 8.05-10.5 16.8l-.7 1.5.8-1.45q-1.5 6.6.3 7.3 1.75.65 7.1-4.3 7.1-8.35 11.2-16.45 4.2-8.25 4.8-15.2l.9-.65q-1.1 18.55-18 36.35l2.9-1.75 1.85-1.2q-3.4 4.4-7.75 7.8-1.3.5-1.95 1.9-6.55 4.75-10.1 5.8l-.1 3.1-2.7 1.2.15-3.9q1.95-.85 2.9-2.7 4.75-3.75 7-11.3.1-4.2-.6-7.9 2.85-4.05 4.9-8.35l2.55-6.6.4-1.4.5-1.8q1.95-8 1.2-16.6M9.15 68.15l.05-2 .2-2q.8 4.25 2.4 6.2l.05 2.85q-1.6-1.55-2.7-5.05m16.2 12.5.25.55.55.25.55-.25.2-.55-.2-.55-.55-.2-.55.2-.25.55" fill="#be6711"/><path d="m18.9 39.3.65-1.05q.55 3.35 0 8.15l-1 2.3q.85-6.25.35-9.4m17.65-11.15.95-.75q4.05 7.5 4.15 17.05l-1.6 1.95q0-11-3.5-18.25m15 8.9 2-1.4q-1.7 21.3-17.1 36l-2.9 1.75q16.9-17.8 18-36.35m-3.5 23.55.7-.3Q45.2 68.4 36.2 77.45q-10.3 10.4-20 13.4l-.5-.6 2.7-1.2q5.7-2.75 9.6-6.8.15-1.25.6-2.1.65-1.4 1.95-1.9l3.35-.15q8.8-7.6 14.15-17.5m-38.1-.05.7-3.05.95 3.15.3 4.3q-1.1-1.5-1.95-4.4" fill="#fde3ff"/><path d="m15.3 91.15.8.75 4.05-1.65 7.9.75q-5.3 4.1-12.7 3.55l-.05-3.4m29.8-18.2q2.95-4.55 5.9-10.5l2.9-6.5v-.85q-.2-3.5-.6-4.15l3.1-2.35q-.9 3.35-2.5 7.35.1 2.65-.15 3.6-1.4 3.8-3.35 7.2-2.8 4.9-5.3 6.2m16 1.5-.65 4.2q3.8-3.75 8-6.1-6.45 6.1-10.1 12.2l3.45-4.1q2-2.4 4.15-4.7l2.05-.4q3.3-.4 7.35-2.45-3.4 6.3-9.35 12.95l-3.05 3.6q-1.1 1.55-.85 2.6l-1.35.15 1.75.1q0 .7.9 1.55l-6.35 1.75 4.8 2.05-3.25-.2 2.05 2.95 1.25 2.95-2.55-1.1q-4.25-7-11.7-8.8 10.85-1.3 19.85-11.4-3.4.65-5.45-1.35-1.65 3.05-3.05 4.8-1.75 2.15-2.8 1.75-3-1.15 4.9-13M72.3 43l3.05-3.1q4-4.2 6.05-9.95.7-1.8 2.6-9.5-2.6 8.05-8.8 15.4 3.95-9.1 5.6-18.5l8.7-9.5q-.65 11.4-10.3 28.85l-.2.4q-2.2 5-1.1 7.05l3.25-2q-.85 5.4-2.85 10.95-3.2 4.9-6.9 6.75 2.05-3.75 1.95-8.55-.1-4.95-1.05-8.3M52.8 98.15q-8.25 7.1-17.4 10.9Q41.8 104.8 46.3 99l6.5-.85m-19.85 7.5q-.1 1.7-1.1 2.75.1-1.15-.45-2.45.45-.5 1.55-.3" fill="#a5c4fc"/><path d="M59.6 53.3q4.05-7.2 10.1-13.9v2.25q1.6-.6 4.9-3.9L78.85 33q-.75 2-2 3.75l-3.1 3.45-3.8 3.75q-2.45 1.25-5.1 3.6-3.15 2.75-5.25 5.75" fill="#fafaba"/><path d="M55.9 78.1Q54 80.3 52.25 83q-.8-5.1.45-11.35 1.95-9.55 6.9-18.35 2.1-3 5.25-5.75 2.65-2.35 5.1-3.6l-3.35 3.3Q63.05 51 61.05 54.1 53.2 64.95 55.3 74.25l.6 3.85" fill="#dfc37d"/><path d="M7.65 54.25q.25-3.8.85-8.05l.5-4.25.2-7.85.05-7.9Q9 17.1 6.2 11.05l.3.3Q9.85 16 11.95 24.7q1.65 7 2.25 15.2-4.1 5.2-6.4 14.35h-.15M56.4 48.6l.75-3.55 18.1-22.1 5.55-5.6q-1.65 9.4-5.6 18.5l-4.6 4.85.4-4.1-3.3 3.6-11.3 8.4" fill="#cedaf1"/><path d="m18.55 48.7-1.05 2.95q.45-6.15-.35-9.15l1.75-3.2q.5 3.15-.35 9.4M35.7 28.85l.85-.7q3.5 7.25 3.5 18.25l-2.4 3.1q.4-6.05-.15-11.5-.5-5.1-1.8-9.15m2.6 41.6q2.2-1.6 4.3-4l3.8-5.15 1.65-.7Q42.7 70.5 33.9 78.1l-3.35.15q4.35-3.4 7.75-7.8m-28.9-6.3.55-3.6q.85 2.9 1.95 4.4l.2 2.95-.2.5-.1 1.95q-1.6-1.95-2.4-6.2M33.5 46.3l-5.85-4.5q3.2-6.3 7.05-12.1.75 8.6-1.2 16.6m-10.15 4.85 6.7 4.95q-2.05 4.3-4.9 8.35-.95-5.15-3.3-9.45l1.5-3.85m-4.95 37.9.1-3.1q3.55-1.05 10.1-5.8-.45.85-.6 2.1-3.9 4.05-9.6 6.8" fill="#fca44d"/><path d="M16.7 55.95q1.45-3.6 3.15-6.9l3.9-2.5.8-1.85-3.45 2.05.65-1.15 3.35-2.2q2.1-4.6 4.9-9.15 2.25-2.45 4.7-4.55-3.85 5.8-7.05 12.1l-.75 1.45L33 48.1l-.4 1.4-6.4-4.75q-1.5 3.15-2.85 6.4L21.85 55l-.65-1.05.65-2.1-5.15 4.1m-5.85 24.5q-.7-2.45-1.15-5.2l-.25-1.65q.4-2.35 1.65 1.4l.5 3q.25 2.85-.75 2.45m33.1-34.05q.5 0 .8.3.35.35.35.85l-.35.8-.8.35q-.45 0-.8-.35-.3-.3-.3-.8t.3-.85q.35-.3.8-.3m-1.9 6 .25.65q0 .95-1.05 2.95-1.55 2.85-4.35 6.05-2.6 2.95-4.75 4.45-1.4.95-2.1.95-.35 0-.5-.25l-.2-.6q0-.8.8-2.35 1.2-2.4 3.6-5.35 2.55-3.2 4.95-5.1 1.75-1.4 2.65-1.55.45-.1.7.15m-16.7 28.25.25-.55.55-.2.55.2.2.55-.2.55-.55.25-.55-.25-.25-.55m-13.45 2.1.2-.55.55-.2.55.2.25.55-.25.55-.55.25-.55-.25-.2-.55" fill="#fff"/><path d="m14.95 62.25.85-3.15.9-3.15 5.15-4.1-.65 2.1q-3.6 3.75-6.25 8.3m4.9-13.2 1.25-2.3 3.45-2.05-.8 1.85-3.9 2.5m1.9-3.45Q25.4 39.25 30 34.25q-2.8 4.55-4.9 9.15l-3.35 2.2m5.5 20.75Q38.55 47 50.65 37.7q-.6 6.95-4.8 15.2-4.1 8.1-11.2 16.45-5.35 4.95-7.1 4.3-1.8-.7-.3-7.3M15.7 90.25q-3.15-4-4.85-9.8 1 .4.75-2.45l-.5-3q-1.25-3.75-1.65-1.4-.35-2.7-.3-5.45 1.1 3.5 2.7 5.05.4 6.95 3.85 12.3 1.65-.75 3.05-1.85-.95 1.85-2.9 2.7l-.15 3.9M12.1 67.9q.15-6.25 1.15-12.3Q14.3 49 16.1 44.75q.8 2.6 0 6.5v.3q-2.8 6.7-2.1 12.35l-1.9 4M33 48.1l-6.1-4.85.75-1.45 5.85 4.5-.5 1.8m10.95-1.7q-.45 0-.8.3-.3.35-.3.85t.3.8q.35.35.8.35l.8-.35.35-.8q0-.5-.35-.85-.3-.3-.8-.3m-1.9 6q-.25-.25-.7-.15-.9.15-2.65 1.55-2.4 1.9-4.95 5.1-2.4 2.95-3.6 5.35-.8 1.55-.8 2.35l.2.6q.15.25.5.25.7 0 2.1-.95 2.15-1.5 4.75-4.45 2.8-3.2 4.35-6.05 1.05-2 1.05-2.95l-.25-.65m-18.7-1.25q1.35-3.25 2.85-6.4l6.4 4.75-2.55 6.6-6.7-4.95M11.9 82.75l.2.55.55.25.55-.25.25-.55-.25-.55-.55-.2-.55.2-.2.55" fill="#f8e769"/><path d="M14.9 62.25h.05q2.65-4.55 6.25-8.3l.65 1.05q2.35 4.3 3.3 9.45.7 3.7.6 7.9-2.25 7.55-7 11.3-1.4 1.1-3.05 1.85-3.45-5.35-3.85-12.3l-.05-2.85.1-1.95.2-.5 1.9-4 .9-1.65m-1.15 4.65-.9 1.95v3.45l.1 1.25q.4 6.25 2.75 10.6 5.45-3.35 8.45-10.75l.2-.55.45-1.25q-.3-9.4-4.1-15.9-4.1 5-6.95 11.2" fill="#2c83e0"/><path d="m12.85 70.15 5.05-4.65-.35 2-4.7 4.8v-2.15m.1 3.4 3.6-4-.7 9.3q2.85-3.15 4.6-7.45l3.9 1.45-.2.55-3.25-1.45Q19 77 16 80.6l-.3 3.55q-2.35-4.35-2.75-10.6M20.7 55.7l-2.4 7.45-4.55 3.75q2.85-6.2 6.95-11.2" fill="#f1ffcd"/><path d="M12.85 70.15v-1.3l.9-1.95 4.55-3.75 2.4-7.45.4 14.05 3.7 1.85-.45 1.25-3.9-1.45q-1.75 4.3-4.6 7.45l.7-9.3-3.6 4-.1-1.25 4.7-4.8.35-2-5.05 4.65" fill="#9bfad2"/><path d="m24.8 71.6-3.7-1.85-.4-14.05q3.8 6.5 4.1 15.9m-9.1 12.55.3-3.55q3-3.6 4.9-8.65l3.25 1.45q-3 7.4-8.45 10.75" fill="#73adfd"/><path d="M28.05 91q8.05.35 12.05-1.85 1.5-.8 2.85-2.6 1.35-1.7 1.9-3.65 1.4-4.65-2.65-5.85l.2-.15 2.7-3.95q2.5-1.3 5.3-6.2 1.95-3.4 3.35-7.2.25-.95.15-3.6 1.6-4 2.5-7.35l11.3-8.4Q53.5 56.4 51.25 71q-.5 3.25-.4 6.2.15 3.75 1.2 6.2-1.05 1.4-1 2.5 4.2-7.3 10.05-11.45-7.9 11.85-4.9 13 1.05.4 2.8-1.75 1.4-1.75 3.05-4.8 2.05 2 5.45 1.35-9 10.1-19.85 11.4 7.45 1.8 11.7 8.8-4.2-1.55-9.3-1.05l2.75-3.25-6.5.85q-4.5 5.8-10.9 10.05l-4.95 1.75-.4-.3q-1.25-.9-2.75-1.3l-4.05-.4 5.05-1.8q2.1.5 3.1 2.4 1.95-1.1 2.2-3.7h.9l1.45-3.2-1.75 2.4h-3.15l-9.15 3.55q-6.6.25-8.35-2.5 2.5-1.65 2.35-3.05l-2.75-.15-.95.2q1.8-2.4 2.6-5.35l.55-3.05q7.4.55 12.7-3.55m42.2 8.65-1.35-.45q-3.5-1-7.05-1.35l-4.8-2.05 6.35-1.75q.8.8 2.35 1.75 3.65 2.3 4.5 3.85m-38.4 8.75-.1.05q-.9-1.3-2.4-1.85l2.15-1.35 1.45.4q-1.1-.2-1.55.3.55 1.3.45 2.45" fill="#fffffc"/><path d="M12.6 106.55q-1.8-.15-2.45-2.6l.45-.25q.75-.45 1.6-.75l.95-.2 2.75.15q.15 1.4-2.35 3.05l-.95.6m2.7-3.25-2.2-.15q-1.25.25-2.3.95.45 1.9 1.85 2.05 2.8-1.6 2.65-2.85" fill="#8d291e"/><path d="M15.3 103.3q.15 1.25-2.65 2.85-1.4-.15-1.85-2.05 1.05-.7 2.3-.95l2.2.15" fill="#d85453"/><path d="m61.75 65.7 3.2 3.05q-4.65.85-9.25-.05.35-6.25 5.4-12.85l4.4-1.6q-1.75 3.9-4.5 7.05l2.95.9q-.75 2.2-2.2 3.5" fill="#83a5ba"/><path d="M28.65 88.75q4.95-4.45 10.1-8.45-2.05 3.6-5.85 5.7.95.25.95 1.25l-.15.1-1.8 1.2q-.65.65-.55.85l.95-.05 1.65-.7q-.5 2.8-3.9 2.4l-2.5 2.35h-.15q.25-2 1.25-4.65" fill="#1371a3"/><path d="m28.65 88.75-1.1 1-3.3 3.05Q32.7 81.35 45.7 75l-2.65 1.95-1.2.9-.95.75-1.65 1.3-.35.25-.15.1v.05q-5.15 4-10.1 8.45" fill="#405c79"/><path d="m27.55 89.75 1.1-1q-1 2.65-1.25 4.65h.15q9.7-1.4 11.2-13.1l.15-.15.35-.25-.65 4.1-.2.7-.5 1.4q-.85 2-2.15 3.55l-.75.85q-2.25 2.1-5.6 2.9l-2.05.35-.05 1 3.55-.55q2.95-.65 6-2.1l2.1-1.1q1-2 1.5-4.15l.35-1.75.15-.8q.3-2.75-.05-5.7l.95-.75q.55 5.35-.7 10.9l-.05.1-.6 2.25q-7.05 4.2-14.4 4.55l1.45-5.9" fill="#0259eb"/><path d="m30.85 94.2-3.55.55.05-1 2.05-.35q.55.75 1.45.8M35 90.5l.75-.85q1.3-1.55 2.15-3.55 1.4.1 2.55.75-.5 2.15-1.5 4.15l-2.1 1.1q-1.25-.3-1.85-1.6m3.4-5.8.2-.7 2.35.3-.15.8q-1-.6-2.4-.4m-.5 3.9-.1.35.1.35.35.15.35-.15.15-.35-.15-.35-.35-.1-.35.1" fill="#ced3ff"/><path d="m39.25 79.9 1.65-1.3q.35 2.95.05 5.7L38.6 84l.65-4.1M29.4 93.4q3.35-.8 5.6-2.9.6 1.3 1.85 1.6-3.05 1.45-6 2.1-.9-.05-1.45-.8m8.5-7.3.5-1.4q1.4-.2 2.4.4l-.35 1.75q-1.15-.65-2.55-.75" fill="#5ee7e5"/><path d="m41.85 77.85 1.2-.9q3.25 6.75-1.9 11.8 1.25-5.55.7-10.9" fill="#a5c4fc"/><path d="m33.95 88.65-1.65.7-.95.05q-.1-.2.55-.85l1.8-1.2.15-.1 1.75-.8.95-.05-.6.85-1.75 1.25-.25.15m3.95-.05.35-.1.35.1.15.35-.15.35-.35.15-.35-.15-.1-.35.1-.35" fill="#f9f6ff"/><path d="m27.55 93.4 2.5-2.35q3.4.4 3.9-2.4l.25-.15 1.75-1.25.6-.85-.95.05-1.75.8q0-1-.95-1.25 3.8-2.1 5.85-5.7-1.5 11.7-11.2 13.1" fill="#3895d8"/></g><use ffdec:characterId="2" height="94.7" width="63.25" xlink:href="#D" id="c"/><use ffdec:characterId="5" height="18.55" width="22.25" xlink:href="#E" id="q"/><use ffdec:characterId="14" height="216.85" width="189.1" xlink:href="#F" id="e"/><use ffdec:characterId="13" height="216.85" width="189.1" xlink:href="#G" id="F"/><use ffdec:characterId="17" height="184.9" width="163.5" xlink:href="#H" id="f"/><use ffdec:characterId="16" height="184.9" width="163.5" xlink:href="#I" id="H"/><use ffdec:characterId="19" height="165.6" transform="translate(6.15)" width="125.5" xlink:href="#J" id="g"/><use ffdec:characterId="26" height="80.65" width="65.55" xlink:href="#K" id="h"/><use ffdec:characterId="28" height="72.95" width="102.1" xlink:href="#L" id="i"/><use ffdec:characterId="30" height="66.9" width="59.95" xlink:href="#M" id="j"/><use ffdec:characterId="32" height="109.75" width="92.6" xlink:href="#N" id="k"/><use ffdec:characterId="34" height="84.7" width="33.9" xlink:href="#O" id="A"/><use ffdec:characterId="37" height="110.05" width="116.05" xlink:href="#P" id="C"/><use ffdec:characterId="40" height="112.05" width="91.95" xlink:href="#Q" id="m"/><linearGradient gradientTransform="matrix(.0082 -.0082 .2736 .2736 5.4 18.15)" gradientUnits="userSpaceOnUse" id="n" spreadMethod="pad" x1="-819.2" x2="819.2"><stop offset="0" stop-color="#0dd4f5"/><stop offset="1" stop-color="#74fbb5"/></linearGradient><linearGradient gradientTransform="matrix(.0023 -.0085 .3737 .1001 -16.7 52.15)" gradientUnits="userSpaceOnUse" id="o" spreadMethod="pad" x1="-819.2" x2="819.2"><stop offset="0" stop-color="#02acf2"/><stop offset="1" stop-color="#10f4a6"/></linearGradient><linearGradient gradientTransform="translate(-500.5 204.3) scale(.3869)" gradientUnits="userSpaceOnUse" id="t" spreadMethod="pad" x1="-819.2" x2="819.2"><stop offset="0" stop-color="#02acf2"/><stop offset="1" stop-color="#02fa85"/></linearGradient><linearGradient gradientTransform="matrix(-.3299 0 0 .3299 590.25 174.2)" gradientUnits="userSpaceOnUse" id="w" spreadMethod="pad" x1="-819.2" x2="819.2"><stop offset="0" stop-color="#02acf2"/><stop offset="1" stop-color="#02fa85"/></linearGradient><linearGradient gradientTransform="matrix(.008 -.0022 .1001 .3737 33 -26.05)" gradientUnits="userSpaceOnUse" id="x" spreadMethod="pad" x1="-819.2" x2="819.2"><stop offset="0" stop-color="#0dd4f5"/><stop offset="1" stop-color="#74fbb5"/></linearGradient><linearGradient gradientTransform="matrix(.0102 -.0177 .3351 .1935 11.8 21.45)" gradientUnits="userSpaceOnUse" id="y" spreadMethod="pad" x1="-819.2" x2="819.2"><stop offset="0" stop-color="#0dd4f5"/><stop offset="1" stop-color="#74fbb5"/></linearGradient><linearGradient gradientTransform="matrix(.0038 -.0065 .3351 .1935 .2 23.9)" gradientUnits="userSpaceOnUse" id="z" spreadMethod="pad" x1="-819.2" x2="819.2"><stop offset="0" stop-color="#02a9f2"/><stop offset="1" stop-color="#10f4a6"/></linearGradient><radialGradient cx="0" cy="0" gradientTransform="translate(78.9 129.4) scale(.1038)" gradientUnits="userSpaceOnUse" id="r" r="819.2" spreadMethod="pad"><stop offset="0" stop-color="#0ddcf5"/><stop offset="1" stop-color="#35fa9f"/></radialGradient><radialGradient cx="0" cy="0" gradientTransform="translate(54.65 143.05) scale(.0913)" gradientUnits="userSpaceOnUse" id="s" r="819.2" spreadMethod="pad"><stop offset="0" stop-color="#02acf2"/><stop offset="1" stop-color="#02fa85"/></radialGradient><radialGradient cx="0" cy="0" gradientTransform="matrix(-.0885 0 0 .0885 96.2 110.35)" gradientUnits="userSpaceOnUse" id="u" r="819.2" spreadMethod="pad"><stop offset="0" stop-color="#0ddcf5"/><stop offset="1" stop-color="#35fa9f"/></radialGradient><radialGradient cx="0" cy="0" gradientTransform="matrix(-.0778 0 0 .0778 116.85 121.95)" gradientUnits="userSpaceOnUse" id="v" r="819.2" spreadMethod="pad"><stop offset="0" stop-color="#02acf2"/><stop offset="1" stop-color="#02fa85"/></radialGradient><path d="M27.75 0q0 2-8.15 3.4Q11.5 4.9 0 4.9q-11.5 0-19.65-1.5-8.1-1.4-8.1-3.4 0-2.05 8.1-3.5Q-11.5-4.9 0-4.9q11.5 0 19.6 1.4 8.15 1.45 8.15 3.5" fill-opacity=".349" fill-rule="evenodd" transform="translate(27.75 4.9)" id="b"/></defs></svg>