<svg xmlns:ffdec="https://www.free-decompiler.com/flash" xmlns:xlink="http://www.w3.org/1999/xlink" ffdec:objectType="frame" height="90" width="90" xmlns="http://www.w3.org/2000/svg"><use ffdec:characterId="27" height="207.35" transform="matrix(.3763 0 0 .3761 4.968 8.537)" width="227.3" xlink:href="#a"/><defs><g id="a" transform="translate(-13.2 -22.7)"><use ffdec:characterId="1" height="9.8" transform="matrix(2.0019 0 0 3.7716 75.748 193.07)" width="55.5" xlink:href="#b"/><use ffdec:characterId="3" height="283.95" transform="translate(73.7 120.3) scale(.2695)" width="179.75" xlink:href="#c"/><use ffdec:characterId="5" height="227.1" transform="translate(113.75 148.35) scale(.2695)" width="464.9" xlink:href="#d"/><use ffdec:characterId="9" height="374.8" transform="translate(18.2 87.05) scale(.2695)" width="298.25" xlink:href="#e"/><use ffdec:characterId="14" height="397.2" transform="translate(95.7 33.25) scale(.2695)" width="269.35" xlink:href="#f"/><use ffdec:characterId="16" height="225.35" transform="translate(83.4 159.8) scale(.2695)" width="122.75" xlink:href="#g"/><use ffdec:characterId="18" height="217.5" transform="translate(100.9 129.8) scale(.2695)" width="224.65" xlink:href="#h"/><use ffdec:characterId="20" height="265.4" transform="translate(124.55 156.05) scale(.2695)" width="189.3" xlink:href="#i"/><use ffdec:characterId="22" height="248.8" transform="translate(146.65 133.25) scale(.2695)" width="174.7" xlink:href="#j"/><use ffdec:characterId="24" height="179.85" transform="translate(106 107.55) scale(.2695)" width="337.8" xlink:href="#k"/><filter id="l"><feColorMatrix in="SourceGraphic" result="filterResult3" values="0 0 0 0 1.0,0 0 0 0 1.0,0 0 0 0 0.0,0 0 0 1 0"/><feConvolveMatrix divisor="342" in="filterResult3" kernelMatrix="1 1 1 1 1 1 1 1 1 1 1 1 1 1 1 1 1 1 1 1 1 1 1 1 1 1 1 1 1 1 1 1 1 1 1 1 1 1 1 1 1 1 1 1 1 1 1 1 1 1 1 1 1 1 1 1 1 1 1 1 1 1 1 1 1 1 1 1 1 1 1 1 1 1 1 1 1 1 1 1 1 1 1 1 1 1 1 1 1 1 1 1 1 1 1 1 1 1 1 1 1 1 1 1 1 1 1 1 1 1 1 1 1 1 1 1 1 1 1 1 1 1 1 1 1 1 1 1 1 1 1 1 1 1 1 1 1 1 1 1 1 1 1 1 1 1 1 1 1 1 1 1 1 1 1 1 1 1 1 1 1 1 1 1 1 1 1 1 1 1 1 1 1 1 1 1 1 1 1 1 1 1 1 1 1 1 1 1 1 1 1 1 1 1 1 1 1 1 1 1 1 1 1 1 1 1 1 1 1 1 1 1 1 1 1 1 1 1 1 1 1 1 1 1 1 1 1 1 1 1 1 1 1 1 1 1 1 1 1 1 1 1 1 1 1 1 1 1 1 1 1 1 1 1 1 1 1 1 1 1 1 1 1 1 1 1 1 1 1 1 1 1 1 1 1 1 1 1 1 1 1 1 1 1 1 1 1 1 1 1 1 1 1 1 1 1 1 1 1 1 1 1 1 1 1 1 1 1 1 1 1 1 1 1 1 1 1 1 1 1 1 1 1 1 1 1 1 1 1 1 1 1 1 1 1 1 1 1 1 1 1 1" order="18 19" result="filterResult4"/><feComposite in="SourceGraphic" in2="filterResult4" result="filterResult5"/></filter><use ffdec:characterId="26" filter="url(#l)" height="80.8" transform="translate(86.6 22.7) scale(.2695)" width="210.5" xlink:href="#m"/></g><g id="q" fill-rule="evenodd"><path d="m47.3 137.1 1.6 2.15-2.65 2.65q-7.25 7.5-13 15.95-12.95 18.95-18.45 42.8l-9.05-9.4Q11 148.1 38.55 125.4l6.25 8.35Q14.95 156.95 14 198.3q8.3-37.05 33.3-61.2" fill="#7688a7"/><path d="m44.8 133.75 2.5 3.35q-25 24.15-33.3 61.2.95-41.35 30.8-64.55" fill="#fdfdfe"/><path d="m46.25 141.9 2.9-2.35 26.5 35.4-7.05 12.85-17.55 9-4.3 9.45-21.8 1.1-.05 3.75-10.1-10.45q5.5-23.85 18.45-42.8 5.75-8.45 13-15.95" fill="#fff"/><path d="m24.95 207.35 19.85 3.2-6.25 13.8-.2.65-13.45-13.9.05-3.75" fill="#bad6e3"/><path d="m176.8 84.1 2.95 5.05-49.55 53.05 23.5 82.65-61.1 59.1H39.55l-1.05-9.5h51.1l20.05-21 35-36.6-4.45-17.1-48.05-21.5H77.1l-4.5 9.7-3.35-1.3 6.4-11.7.95-1.7 18.05 3 44.6 19.7-15.1-58.2q-14.65-3.9-22.5-14.55 2.35 14.55 14.75 24.05l-3.25 1.45q-16.6-10-15.3-37.9l5.3-1.15-2.5 9.55 1.95 2.25q12 13.25 25.35 12.5L176.8 84.1" fill="#7486a6"/><path d="m102.6 121.45-1.95-2.25 2.5-9.55-5.3 1.15-5.35 1.25-9.55 2.7q-19.7 10.5-34.05 24.5l-1.6-2.15q10.75-10.45 24.65-18.45-15.7 6.2-27.15 15.1l-6.25-8.35q21.95-18.15 58.05-23.25l33.55-47.05 6.7 1.35-34.25 65m-33.35 65.2 3.35 1.3-.55 1.15-19 9.7-.75 1.9-9.25 22.65 3.25 11.45 2.8 9.7 2.95 10.4L36.8 257l-.8-1.6h-6l-17.5-24.55-2 10.05 28 33.55 1.05 9.5h-5.5L.5 241.85l4-14-4.5-9.5 4.5-8.05q.15-9.95 1.25-19.05l9.05 9.4q-2.3 9.65-3.3 20.15l3.55 5.75L28.25 248l3.3 5.4h17l-10-29.05 6.25-13.8-19.85-3.2 21.8-1.1 4.3-9.45 17.55-9 .65-1.15" fill="#7688a7"/><path d="M44.8 133.75q11.45-8.9 27.15-15.1-13.9 8-24.65 18.45l-2.5-3.35" fill="#fdfdfe"/><path d="M97.85 110.8q-1.3 27.9 15.3 37.9l3.25-1.45q-12.4-9.5-14.75-24.05 7.85 10.65 22.5 14.55l15.1 58.2-44.6-19.7-18.05-3 13-13V120.2q-13.1-2.85-40.45 19.35l-2.9 2.35 2.65-2.65q14.35-14 34.05-24.5l9.55-2.7 5.35-1.25" fill="#97adcd"/><path d="M84.6 178.25h7.55l48.05 21.5 4.45 17.1-35 36.6q-1.3-22.55-14.35-41.75-34.7.6-44.3 26.4-1.15 3-1.9 6.4l-2.8-9.7 19.3-36-13.3 1.9.75-1.9 19-9.7 1.55-.8 3.25 2.75 7.75-12.8M24.9 211.1 38.35 225q-2.55 7.95-.7 18.55l-9.4 4.45-13.2-21.45 11 6.8q-1.2-11.4-1.15-22.25" fill="#bad6e3"/><path d="m176.8 84.1-48.85 49.85q-13.35.75-25.35-12.5l34.25-65Q163.1 62.7 176.8 84.1M76.6 173.25l-.95 1.7-26.5-35.4q27.35-22.2 40.45-19.35v40.05l-13 13m-4 14.7 4.5-9.7h7.5l-7.75 12.8-3.25-2.75-1-.35m-57.8 12.7 10.1 10.45q-.05 10.85 1.15 22.25l-11-6.8-3.55-5.75q1-10.5 3.3-20.15m37.5.05 13.3-1.9-19.3 36-3.25-11.45 9.25-22.65" fill="#fff"/><path d="m109.65 253.45-20.05 21H45.3L36.8 257l15.25-2.1-2.95-10.4q.75-3.4 1.9-6.4 9.6-25.8 44.3-26.4 13.05 19.2 14.35 41.75M38.35 225l.2-.65 10 29.05h-8.5q-1.65-5.2-2.4-9.85-1.85-10.6.7-18.55" fill="#bb6e42"/><path d="m28.25 248 9.4-4.45q.75 4.65 2.4 9.85h-8.5l-3.3-5.4" fill="#e6ad4d"/><path d="m38.5 274.45-28-33.55 2-10.05L30 255.4l8.5 19.05" fill="#bad6e1"/><path d="M45.3 274.45h-6.8L30 255.4h6l.8 1.6 8.5 17.45" fill="#e6ad4e"/><path d="m82.1 49.6 6.5-18.05 25.05-11 10-20.05q5.6-.85 10.4-.25l-14.4 22.3-.8 5-2.7.95-20.5 7.05L93.1 50.2l-.5 2.9-10.5-3.5" fill="#7486a6"/><path d="m82.1 49.6 10.5 3.5 24.05-11.55 2.2-14 .8-5 14.4-22.3 3.35.6q36 8.55 24.8 105.3l-63.6-6Q73.35 89 62.55 59.1l19.55-9.5m18.95 21.75q5.5-1.55 12.1-4.25 13.75-2.25 10.3-44.55l-1.3 2-3.5 19L77.9 60.7l-3.35 1.4q2.75 15.8 26.5 9.25" fill="#177396"/><path d="m77.9 60.7 40.75-17.15 3.5-19 1.3-2q3.45 42.3-10.3 44.55-6.6 2.7-12.1 4.25l.1-6.25-23.25-4.4m32.1 6q2.4 0 4.1-1.75 1.75-1.7 1.75-4.1 0-2.4-1.75-4.15-1.7-1.7-4.1-1.7-2.4 0-4.15 1.7-1.7 1.75-1.7 4.15 0 2.4 1.7 4.1 1.75 1.75 4.15 1.75" fill="#3efefe"/><path d="m92.6 53.1.5-2.9 23.05-21.7 2.7-.95-2.2 14L92.6 53.1" fill="#bad6e3"/><path d="m93.1 50.2 2.55-14.65 20.5-7.05L93.1 50.2m7.95 21.15Q77.3 77.9 74.55 62.1l3.35-1.4 23.25 4.4-.1 6.25M110 66.7q-2.4 0-4.15-1.75-1.7-1.7-1.7-4.1 0-2.4 1.7-4.15Q107.6 55 110 55q2.4 0 4.1 1.7 1.75 1.75 1.75 4.15 0 2.4-1.75 4.1-1.7 1.75-4.1 1.75" fill="#fff"/></g><g id="r" fill-rule="evenodd"><path d="m300.65 85.3-5.7-21.6Q260.3 51.85 226.6 52.35L215.55 63.8q-4.1 15.95-.4 22.3 32.3 17.6 69.6 8.45-16.05 12.75-51.9 10.85l39.95 3.35q9.1-2.65 17.45-7.25 7-6.8 10.4-16.2M448.2 214.95l3.95 1.25-4.8-12.2-69.6-87.7q-7.05 3.7-16.15 4.7l23.8 31.35 43.4 43.25 19.4 19.35m-110.5-109.6q4.45-3.25 9.9-5.85l-19.2-15.65-1.2 16.7q5.2 2.4 10.5 4.8m-186.15-81.6 2-1.65Q105 9.2 49.1 17.75l.4-5.25Q19.05 24.25 4.35 55.15q-3.5 61.15 50.3 61.7 37.25.25 57-18.2-37.35 15.3-71.6 12.2-37.55-13.3-25.1-64.5Q28.1 17.8 42.6 31.8q-15.15 27.5 2.55 35.25Q76.8 79.3 132 36.6q-16.55 27-13.75 47.7 4.25-33.1 26.65-54.7 3.15-3.1 6.65-5.85m51.2 28.45Q186.3 30.15 165.6 25.95q-13.5 9.85-21.55 24.65l6.3 2.85q2.7 29.15 39.95 9.35-5.75 20.3-3 27.8 2-21.8 15.45-38.4M136.3 94.1q24.8 12.9 46.85 1.75L136.3 94.1" fill="#abcdd9"/><path d="m215.55 63.8 11.05-11.45q33.7-.5 68.35 11.35l5.7 21.6q3.55-9.6 3.35-22-46.45-25.45-85.6-15.55l-3.15 2.35q-8.7 13.5-11.3 25.75l11.6-12.05M447.35 204q-20.55-50.8-56.1-99.75-5.4 7.8-13.5 12.05l69.6 87.7M49.5 12.5l-.4 5.25Q105 9.2 153.55 22.1l-2 1.65 1.25 6.8 7.6-5.45 5.2.85q20.7 4.2 37.15 26.25 2-2.45 4.15-4.75Q182.85 2.85 98.65 5.2q-28.3-.85-49.15 7.3" fill="#fff"/><path d="M300.65 85.3q-3.4 9.4-10.4 16.2-8.35 4.6-17.45 7.25l-39.95-3.35-16.25 2q-12.7-3.65-26.25-9.95 2.4-29.65 24.9-47.35l3.15-2.35q39.15-9.9 85.6 15.55.2 12.4-3.35 22m70.4 22.4q9.7-.95 18.95-5.2l1.25 1.75q35.55 48.95 56.1 99.75l4.8 12.2-3.95-1.25q-52.35-17.9-104.1-63.25l-4-3.55q14.8-17.9-8.75-31.25l14.85-12 4.3 1.2q10.5 2.55 20.55 1.6m93.85 119.4q-23.1-80.45-75.05-137.15-12.6 17.1-41.5 6.15-52.45-62.45-134.5-54.7-18.95-24.2-51.1-35.15-67-12.55-116.85.2-79.7 49.7-21 112.35 54.8 20.4 98.2-20.6 32.3 9.45 67.2 6.75 63.6 24.8 106.65 2.05l33.3 18.4q15.35 8.55-1.45 20.45 63.7 62.8 136.1 81.25M317.35 74.85l3.35 2.75 7.7 6.25 19.2 15.65q-5.45 2.6-9.9 5.85-4.2 3.05-7.6 6.65-2.4 2.65-4.35 5.5l-18.2-10.55-7.25-4.3q9.6-14.15 8.9-34.45l8.15 6.65M49.5 12.5q20.85-8.15 49.15-7.3 84.2-2.35 108.25 42.25-2.15 2.3-4.15 4.75-13.45 16.6-15.45 38.4l-.2 3.1-3.95 2.15Q161.1 107 136.3 94.1l-3.4-1.9q-3.75-2.15-7.5-4.9.65-30.45 20.35-50.45l-.85-7.25q-22.4 21.6-26.65 54.7l-.7 7.9q-2.7 3.45-5.9 6.45-19.75 18.45-57 18.2-53.8-.55-50.3-61.7 14.7-30.9 45.15-42.65" fill="#4e6b8d"/><path d="M391.25 104.25 390 102.5q-9.25 4.25-18.95 5.2l6.7 8.6q8.1-4.25 13.5-12.05" fill="#bad6e3"/><path d="M371.05 107.7q-10.05.95-20.55-1.6l-5.8 5.75 40.7 40.5L361.6 121q9.1-1 16.15-4.7l-6.7-8.6m-26.95 44q51.75 45.35 104.1 63.25l-19.4-19.35-72.65-61.9q-1.6 15.05-12.05 18m-14-39.7q3.4-3.6 7.6-6.65-5.3-2.4-10.5-4.8l1.2-16.7-7.7-6.25-1.85 25.85L330.1 112" fill="#7dabc0"/><path d="M232.85 105.4q35.85 1.9 51.9-10.85-37.3 9.15-69.6-8.45-3.7-6.35.4-22.3l-11.6 12.05q-2.4 11.3.4 21.5l28.5 8.05m117.65.7-4.3-1.2-14.85 12q23.55 13.35 8.75 31.25l4 3.55q10.45-2.95 12.05-18l72.65 61.9-43.4-43.25-40.7-40.5 5.8-5.75m-29.8-28.5-3.35-2.75q.1 17.2-9.8 32.1l18.2 10.55q1.95-2.85 4.35-5.5l-11.25-8.55 1.85-25.85m-202.45 6.7q-2.8-20.7 13.75-47.7-55.2 42.7-86.85 30.45-17.7-7.75-2.55-35.25-14.5-14-27.65 14.55-12.45 51.2 25.1 64.5 34.25 3.1 71.6-12.2 3.2-3 5.9-6.45l.7-7.9m69.05 6.3q-2.75-7.5 3-27.8-37.25 19.8-39.95-9.35l-6.3-2.85q-9.35 17.35-11.15 41.6l3.4 1.9 46.85 1.75 3.95-2.15.2-3.1" fill="#658bae"/><path d="M203.95 75.85q2.6-12.25 11.3-25.75-22.5 17.7-24.9 47.35 13.55 6.3 26.25 9.95l16.25-2-28.5-8.05q-2.8-10.2-.4-21.5m113.4-1-8.15-6.65q.7 20.3-8.9 34.45l7.25 4.3q9.9-14.9 9.8-32.1M165.6 25.95l-5.2-.85-7.6 5.45q-3.8 2.95-7.05 6.3-19.7 20-20.35 50.45 3.75 2.75 7.5 4.9 1.8-24.25 11.15-41.6 8.05-14.8 21.55-24.65" fill="#252322"/><path d="m152.8 30.55-1.25-6.8q-3.5 2.75-6.65 5.85l.85 7.25q3.25-3.35 7.05-6.3" fill="#a9cad6"/></g><g id="e"><filter id="n"><feColorMatrix in="SourceGraphic" result="filterResult0" values="0 0 0 0 1.0,0 0 0 0 1.0,0 0 0 0 0.0,0 0 0 1 0"/><feConvolveMatrix divisor="1026" in="filterResult0" kernelMatrix="1 1 1 1 1 1 1 1 1 1 1 1 1 1 1 1 1 1 1 1 1 1 1 1 1 1 1 1 1 1 1 1 1 1 1 1 1 1 1 1 1 1 1 1 1 1 1 1 1 1 1 1 1 1 1 1 1 1 1 1 1 1 1 1 1 1 1 1 1 1 1 1 1 1 1 1 1 1 1 1 1 1 1 1 1 1 1 1 1 1 1 1 1 1 1 1 1 1 1 1 1 1 1 1 1 1 1 1 1 1 1 1 1 1 1 1 1 1 1 1 1 1 1 1 1 1 1 1 1 1 1 1 1 1 1 1 1 1 1 1 1 1 1 1 1 1 1 1 1 1 1 1 1 1 1 1 1 1 1 1 1 1 1 1 1 1 1 1 1 1 1 1 1 1 1 1 1 1 1 1 1 1 1 1 1 1 1 1 1 1 1 1 1 1 1 1 1 1 1 1 1 1 1 1 1 1 1 1 1 1 1 1 1 1 1 1 1 1 1 1 1 1 1 1 1 1 1 1 1 1 1 1 1 1 1 1 1 1 1 1 1 1 1 1 1 1 1 1 1 1 1 1 1 1 1 1 1 1 1 1 1 1 1 1 1 1 1 1 1 1 1 1 1 1 1 1 1 1 1 1 1 1 1 1 1 1 1 1 1 1 1 1 1 1 1 1 1 1 1 1 1 1 1 1 1 1 1 1 1 1 1 1 1 1 1 1 1 1 1 1 1 1 1 1 1 1 1 1 1 1 1 1 1 1 1 1 1 1 1 1 1 1 1 1 1 1 1 1 1 1 1 1 1 1 1 1 1 1 1 1 1 1 1 1 1 1 1 1 1 1 1 1 1 1 1 1 1 1 1 1 1 1 1 1 1 1 1 1 1 1 1 1 1 1 1 1 1 1 1 1 1 1 1 1 1 1 1 1 1 1 1 1 1 1 1 1 1 1 1 1 1 1 1 1 1 1 1 1 1 1 1 1 1 1 1 1 1 1 1 1 1 1 1 1 1 1 1 1 1 1 1 1 1 1 1 1 1 1 1 1 1 1 1 1 1 1 1 1 1 1 1 1 1 1 1 1 1 1 1 1 1 1 1 1 1 1 1 1 1 1 1 1 1 1 1 1 1 1 1 1 1 1 1 1 1 1 1 1 1 1 1 1 1 1 1 1 1 1 1 1 1 1 1 1 1 1 1 1 1 1 1 1 1 1 1 1 1 1 1 1 1 1 1 1 1 1 1 1 1 1 1 1 1 1 1 1 1 1 1 1 1 1 1 1 1 1 1 1 1 1 1 1 1 1 1 1 1 1 1 1 1 1 1 1 1 1 1 1 1 1 1 1 1 1 1 1 1 1 1 1 1 1 1 1 1 1 1 1 1 1 1 1 1 1 1 1 1 1 1 1 1 1 1 1 1 1 1 1 1 1 1 1 1 1 1 1 1 1 1 1 1 1 1 1 1 1 1 1 1 1 1 1 1 1 1 1 1 1 1 1 1 1 1 1 1 1 1 1 1 1 1 1 1 1 1 1 1 1 1 1 1 1 1 1 1 1 1 1 1 1 1 1 1 1 1 1 1 1 1 1 1 1 1 1 1 1 1 1 1 1 1 1 1 1 1 1 1 1 1 1 1 1 1 1 1 1 1 1 1 1 1 1 1 1 1 1 1 1 1 1 1 1 1 1 1 1 1 1 1 1 1 1 1 1 1 1 1 1 1 1 1 1 1 1 1 1 1 1 1 1 1 1 1 1 1 1 1 1 1 1 1 1 1 1 1 1 1 1 1 1 1 1 1 1 1 1 1 1 1 1 1 1 1 1 1 1 1 1 1 1 1 1 1 1 1 1 1 1 1 1 1 1 1 1 1 1 1 1 1 1 1 1 1 1 1 1 1 1 1 1 1 1 1 1 1 1 1 1 1 1 1 1 1 1 1 1 1 1 1 1 1 1 1 1 1 1 1 1 1 1 1 1 1 1 1 1 1 1 1 1 1 1 1 1 1 1 1 1 1 1 1 1 1 1 1 1 1 1 1 1 1 1 1 1 1 1 1 1 1 1 1 1 1 1 1 1 1 1 1 1 1 1 1 1 1 1 1 1 1 1 1 1 1 1 1 1 1 1 1 1 1 1 1 1 1 1 1 1 1 1 1 1 1 1 1 1 1 1 1 1 1 1 1 1 1 1 1 1 1 1 1 1 1 1 1 1 1 1 1 1 1 1 1 1 1 1 1 1 1 1 1 1 1 1 1 1 1 1 1 1 1 1 1 1 1 1 1 1 1 1 1 1 1 1 1 1 1 1 1 1 1 1 1 1 1 1" order="38 27" result="filterResult1"/><feComposite in="SourceGraphic" in2="filterResult1" result="filterResult2"/></filter><use ffdec:characterId="7" filter="url(#n)" height="168" width="158.25" xlink:href="#o"/><use ffdec:characterId="8" height="297.15" transform="translate(78.2 77.65)" width="220.05" xlink:href="#p"/></g><g id="p" fill-rule="evenodd"><path d="m148.8 124.85-48.6-20.15v2L88.65 87.15l73.65 28.45-13.5 9.25" fill="#ecbc4e" transform="translate(-78.2 -77.65)"/><path d="M100.2 106.7v4.5L88.65 93.15v-6l11.55 19.55" fill="#ffffd5" transform="translate(-78.2 -77.65)"/><path d="M100.2 111.2v57.1l-11.55 8V93.15l11.55 18.05" fill="#ffff8f" transform="translate(-78.2 -77.65)"/><path d="M100.2 106.7v-2l48.6 20.15 4.45 1.85-2.3 49.15-.2 3.45-50.55-11v-61.6m50.55 22.05L104.7 113.2l2.5 51.1 40.55 10.5 3-46.05" fill="#cf9541" transform="translate(-78.2 -77.65)"/><path d="M162.3 115.6 88.65 87.15v89.15l64.1 10q11-40.45 10.9-66.85l-.05-1.85.2-1.4-1.5-.6m-76.7 66.6-7.4-1.05 3.95-103.5 90.15 34.55-.4 2.1-1.85 9.05-1.4 7.15-.75 3.55-.9 4.55-.7 3.45-1.65 8.3-.4 1.9-1.65 8.3-1.75 8.95-4.6 22.8-17.05-2.45-5.8-.8-4.3-.6-2.75-.4-7.55-1.1-2.45-.35-6.7-.95-5.15-.75-8.4-1.2-2.6-.35-7.9-1.15m120.8 32.45 7.1 10.45q-1.25 5.5-3.35 10.15-6.4 13.9-20.65 19.3-4.5 1.7-9.75 2.55l-7.7-9.25q5.05-1.05 9.5-3.05 5.1-2.3 9.35-5.8 2.75-2.3 5.15-5.15 3.6-4.2 6.35-9.55 2.3-4.45 4-9.65m-3.5 25.85q2.9-3.6 5.25-8.1l-3.85-5.45-4.55 6.45q-4 5.1-8.45 8.85-3.65 3.05-7.6 5.2l3.65 4.45q4.55-1.8 8.4-4.6 3.95-2.85 7.15-6.8" fill="#a34e31" transform="translate(-78.2 -77.65)"/><path d="M114.85 120.7 110 119l-2.3-.8.1 1.2 2.75 40.45.15 2.45 27.95 7.7 6.1 1.65.5.15.2-2.75 2.75-35.95.05-.85-2.45-.85-2.15-.75-22.95-7.9-5.85-2.05m35.9 8.05-3 46.05-40.55-10.5-2.5-51.1 46.05 15.55" fill="#0a75a0" transform="translate(-78.2 -77.65)"/><path d="m110 119 4.85 1.7 11.1 15.6 13.3 3.8 6.55-8.7 2.45.85-.05.85-7.6 8.25.75 16.15 4.1 11.55-.2 2.75-.5-.15-5.5-13.05-16.4-2.4-2.85 1.45-9.3 4.65-.15-2.45 9.4-4.65 1.5-.75.75-19.5L110 119m14.85 19.1-1.5 16.8 16 1.85-1-14.1-13.5-4.55" fill="#8494b0" transform="translate(-78.2 -77.65)"/><path d="m145.8 131.4-6.55 8.7-13.3-3.8-11.1-15.6 5.85 2.05 8 10.2q4.5 1.6 11.3 3.1l3.65-5.4 2.15.75" fill="#1a7596" transform="translate(-78.2 -77.65)"/><path d="m150.75 179.3.2-3.45 2.7 4.8-.9 5.65-2-7m2.5-52.6-4.45-1.85 13.5-9.25 1.5.6-.2 1.4-.35 2.1-10 7" fill="#fbf485" transform="translate(-78.2 -77.65)"/><path d="M171.9 114.3q24.65 6.7 39.15 18.15l-25 12.3 16 15.5q-11.95 7.9-26.25 9.4-5.8.55-12 .1l-2.95-.25 1.75-8.95 19.7-2 8-.8-2.6-1.7-21.4-14 .7-3.45 32.3-6.15-2.65-.8-6.05-1.9-20.55-6.4 1.85-9.05m12.95 68.65 8.95 13.15q-1.3 6.3-3.3 11.35-6.9 17.05-22.95 20.25l-11.7.65-11.05-13.3 12.05-.4q6.05-.95 10.8-3.4 4.25-2.2 7.5-5.6 4.1-4.35 6.55-10.55 2.15-5.4 3.15-12.15m-51.65 18.1-15.7 29.3-8.55-23.8-17 20.3-6.35-44.65 7.9 1.15 1.2 30.45 14.95-28.15 6.7.95 2.65 27.7 2.75-4.75 11.65-20.5 5.8.8-1.05 1.9-4.95 9.3m48.05 2.1q-5.75 7.15-13.6 11.4-3.75 2.05-8.05 3.45l6.55 8.05q4.05-1.65 7.45-3.7 7.45-4.7 11.9-11.9 1.7-2.75 2.95-5.85l-4.1-5.8-3.1 4.35" fill="#51122c" transform="translate(-78.2 -77.65)"/><path d="M163.65 119.45q.1 26.4-10.9 66.85l.9-5.65 9.6-60.95.4-.25" fill="#d69549" transform="translate(-78.2 -77.65)"/><path d="m150.95 175.85 2.3-49.15 10-7-9.6 60.95-2.7-4.8" fill="#bb6e42" transform="translate(-78.2 -77.65)"/><path d="m167.9 134.05.75-3.55 21.95-.75 6.05 1.9-28.75 2.4" fill="#f9c2ce" transform="translate(-78.2 -77.65)"/><path d="m129.1 188.45 4.3.6-11.65 20.5 7.35-21.1m33.5-27.9 1.65-8.3 18.05 6.3-19.7 2m4.4-21.95.9-4.55 28.75-2.4 2.65.8-32.3 6.15" fill="#671f32" transform="translate(-78.2 -77.65)"/><path d="m164.25 152.25.4-1.9 23.05 5.7 2.6 1.7-8 .8-18.05-6.3" fill="#f8b6c4" transform="translate(-78.2 -77.65)"/><path d="m96.1 183.7 8.4 1.2-8.4 16.9v-18.1m22.7 3.25 7.55 1.1-4.6 16.5-2.95-17.6m45.85-36.6 1.65-8.3 21.4 14-23.05-5.7m4-19.85 1.4-7.15 20.55 6.4-21.95.75m-1 84.05q7.85-4.25 13.6-11.4l4.25 7.3q-4.45 7.2-11.9 11.9l-5.95-7.8" fill="#f06280" transform="translate(-78.2 -77.65)"/><path d="m120 157.65 2.85-1.45 16.4 2.4 5.5 13.05-6.1-1.65q-3.45-7.65-18.65-12.35m25.45 11.4-4.1-11.55-.75-16.15 7.6-8.25-2.75 35.95" fill="#1f2e59" transform="translate(-78.2 -77.65)"/><path d="m175.8 169.65 9.05 13.3q-1 6.75-3.15 12.15l-9.4-13.3-8.5-12.05q6.2.45 12-.1m18 26.45 12.6 18.55q-1.7 5.2-4 9.65l-7.9-11.2-4-5.65q2-5.05 3.3-11.35m19.7 29L296.45 347q8 33.65-20 26.55l-96.7-116.45q5.25-.85 9.75-2.55l3 3.65 86.95 106.35q3.65 1.15 6.25.55 4.45-1.05 6-7.15.65-2.7.75-6.45L212.7 238.8l-2.55-3.55q2.1-4.65 3.35-10.15m-41.45 22.75-16.2-19.5 11.7-.65 3.25 4 10.75 13.1q-4.45 2-9.5 3.05m-27.25-32.8-11.6-14 4.95-9.3 8.85 10.8 9.85 12.1-12.05.4" fill="#7486a6" transform="translate(-78.2 -77.65)"/><path d="m139.2 189.85 17.05 2.45 4.6-22.8 2.95.25 8.5 12.05-6.05 9.5 8.9 14.35q-3.25 3.4-7.5 5.6l-8.4-14.45-12.25 5.75-8.85-10.8 1.05-1.9m31.6 41.85-3.25-4q16.05-3.2 22.95-20.25l4 5.65-6.2 8.25 7.75 12.5q-2.4 2.85-5.15 5.15l-9.1-12.15-11 4.85m41.9 7.1-4.4 9.6 83.4 109.55q-1.55 6.1-6 7.15l-83.4-112.7-9.8 5.8-3-3.65q14.25-5.4 20.65-19.3l2.55 3.55" fill="#bad6e3" transform="translate(-78.2 -77.65)"/><path d="m119.95 155.2-9.4 4.65-2.75-40.45 12.15 15.95v19.85m.75-32.45 22.95 7.9-3.65 5.4q-6.8-1.5-11.3-3.1l-8-10.2m4.15 15.35 13.5 4.55 1 14.1-16-1.85 1.5-16.8" fill="#46fefe" transform="translate(-78.2 -77.65)"/><path d="m110.7 162.3 9.3-4.65q15.2 4.7 18.65 12.35l-27.95-7.7" fill="#177396" transform="translate(-78.2 -77.65)"/><path d="m116.35 186.6 2.45.35 2.95 17.6 4.6-16.5 2.75.4-7.35 21.1-2.75 4.75-2.65-27.7" fill="#fce6ec" transform="translate(-78.2 -77.65)"/><path d="m93.5 183.35 2.6.35v18.1l8.4-16.9 5.15.75L94.7 213.8l-1.2-30.45" fill="#fef5f7" transform="translate(-78.2 -77.65)"/><path d="m172.3 181.8 9.4 13.3q-2.45 6.2-6.55 10.55l-8.9-14.35 6.05-9.5M147 202.55l12.25-5.75 8.4 14.45q-4.75 2.45-10.8 3.4l-9.85-12.1m49.05 31.3-7.75-12.5 6.2-8.25 7.9 11.2q-2.75 5.35-6.35 9.55m95.65 124.1L208.3 248.4l4.4-9.6 79.75 112.7q-.1 3.75-.75 6.45m-99.2-99.75 9.8-5.8 83.4 112.7q-2.6.6-6.25-.55L192.5 258.2m-1.6-19.2q-4.25 3.5-9.35 5.8l-10.75-13.1 11-4.85 9.1 12.15" fill="#fff" transform="translate(-78.2 -77.65)"/><path d="m100.2 168.3 50.55 11 2 7-64.1-10 11.55-8" fill="#bc6e41" transform="translate(-78.2 -77.65)"/><path d="m181.25 203.15 3.1-4.35 4.1 5.8q-1.25 3.1-2.95 5.85l-4.25-7.3m-7.65 19.2q-3.4 2.05-7.45 3.7L159.6 218q4.3-1.4 8.05-3.45l5.95 7.8" fill="#9c294e" transform="translate(-78.2 -77.65)"/><path d="m199.75 233.4 4.55-6.45 3.85 5.45q-2.35 4.5-5.25 8.1l-3.15-7.1m-4 13.9q-3.85 2.8-8.4 4.6l-3.65-4.45q3.95-2.15 7.6-5.2l4.45 5.05" fill="#b86940" transform="translate(-78.2 -77.65)"/><path d="m199.75 233.4 3.15 7.1q-3.2 3.95-7.15 6.8l-4.45-5.05q4.45-3.75 8.45-8.85" fill="#e8b04e" transform="translate(-78.2 -77.65)"/></g><g id="t" fill-rule="evenodd"><path d="m62 306.45 130.75-21-29.05 91.65-110.15 20.05q-18.95 1.9 8.45-90.7" fill="#252322"/><path d="m207.8 236.05 1.6-4.75 50.4 42.15-1.65 6.2-3.95-3.4-12.4-10.75-34-29.45" fill="#faffff"/><path d="m258.15 279.65 1.65-6.2-50.4-42.15 3.6-10.95 56.35 50.05-16.05 62.15-9.75 1.35 14.6-54.25" fill="#0473a1"/><path d="m241.8 265.5 12.4 10.75-34.95 19.7 22.55-30.45" fill="#3efefe"/><path d="m207.8 236.05 34 29.45-22.55 30.45 34.95-19.7 3.95 3.4-14.6 54.25-71.35 9.65 35.6-107.5" fill="#177396"/><path d="M64.4 180.45q-5.9-46.5 8.7-89.3l-3.35-2.6-28.4-22.05-5-3.9L34 45.1q18.4 24.6 44.55 39.55-11.25 45.8-10.9 93.3l-3.25 2.5m92.2-18.8q-.95-33.95 15.6-69.45l-3.6-3.4-9.75-9.15L115.1 38.5l-2.5-20.45q31.3 36.75 71.6 69.6-23.35 42.3-23.3 76.8l-4.3-2.8m-147.35 75L6.5 204.3l7.7 16.55q-2.85 8.1-4.95 15.8m88.55-4.45q-18.8-4.85-58.65-44.9l-.2 2.05L34.1 239l-3.1.3q-1.55-24.4 8.55-56.5 38.8 39.55 58.25 49.4m-72.65 18.6 1.3-.1q4.25 0 7.25 3 1 1 1.7 2.15 1.3 2.3 1.3 5.1 0 4.25-3 7.25t-7.25 3q-4.25 0-7.25-3t-3-7.25q0-4.25 3-7.25 2.5-2.5 5.95-2.9m20.8 28.55q1.35-.9 3.05-.9 2.3 0 3.9 1.6t1.6 3.9q0 2.3-1.6 3.9t-3.9 1.6q-2.3 0-3.9-1.6t-1.6-3.9q0-2.3 1.6-3.9l.85-.7m96.85-2.4.25-4.55 1.1-18.75q2.35 1.05 5.3 1.45l.7.1-.2 3.25 10-2.35q6.45 10.45 3.85 20.9l-8.1 5.45L144.65 344l-7 20.05 1.15-19 .2-3.95 3.15-53.55.65-10.6m28.1-106.05 23.8 27.35-4.15 2.5-6.35-7.5-13.15-15.45q-.2-3.45-.15-6.9m-77.35 18.7-.75.8q-3.1 3.1-7.5 3.1t-7.5-3.1q-3.1-3.1-3.1-7.5t3.1-7.5q1.6-1.6 3.55-2.35l12.2 16.55m2.35 121.25q.65.65.65 1.5t-.65 1.45q-.6.65-1.45.65t-1.5-.65q-.6-.6-.6-1.45t.6-1.5q.65-.6 1.5-.6t1.45.6m32.15 1q-4 9.15-11.9 14.15l-2.65.65q5.25-6.95 8.1-14.8h6.45m-16.25-10.5q1.6 1.6 1.6 3.9t-1.6 3.9q-1.6 1.6-3.9 1.6t-3.9-1.6q-1.6-1.6-1.6-3.9t1.6-3.9q1.6-1.6 3.9-1.6t3.9 1.6m70.95-25.8-5.05 8.4-11.5 6-7.65 36.75-10.15 12.6 14.8-51.35 19.55-12.4m-28-40.65q0 2.05-1.45 3.45-1.4 1.45-3.45 1.45-2.05 0-3.5-1.45-1.4-1.4-1.4-3.45 0-2.05 1.4-3.5 1.45-1.4 3.5-1.4t3.45 1.4q1.45 1.45 1.45 3.5m-37.1 111.65 1-4.25-19.55 3.5 18.55.75m-62.1.15q31.9-9.15 70.85-12.9-.95 14.55-10.25 25.95-3.3 1.9-6.55 3.3-35.15 2.55-53.55-13l-.5-3.35" fill="#fff"/><path d="m69.75 88.55 3.35 2.6q-14.6 42.8-8.7 89.3l-3.65 3.05q-5.85-49.35 9-94.95m98.85.25 3.6 3.4q-16.55 35.5-15.6 69.45l-4.5-2.9q1.85-40.8 16.5-69.95m-67.75 184.8 9.75-5.65-2.9-12.8 4.8-3.65 3.1 12.45 2.45-.85-7.1 12.8q-32.55 18.5-54.2 52.45L46.5 315q6.9-2.8 12.5-9.4 9.6-11.45 9.6-27.6 0-10.4-3.95-18.8l15.4 19.25-3-31.05 20.1 5.95v.55h-13.6l6.4 26.05 7.75-4.5q1.6-.95 3.15-1.85" fill="#bc6e41"/><path d="m41.35 66.5 28.4 22.05q-14.85 45.6-9 94.95l-2.6 2.3-16.8-119.3m117.5 13.15 9.75 9.15q-14.65 29.15-16.5 69.95l-3-1.9 9.75-77.2m-119.9 109.7.2-2.05Q79 227.35 97.8 232.2q5.8 2.9 9.85 3.2-27.55 7.65-68.7-46.05M14.5 248.3q2.05-31.8 25.05-65.5-12.75 32.55-11.85 57.25-7.3 2.1-13.2 8.25m44.65 83.15-2.4-3.1q21.65-33.95 54.2-52.45l-6.15 11.2q-25.55 15.3-45.65 44.35m-17.95-14.9 12.05 15.25-21-15 3.55.2 5.4-.45m82.1-75q1.25 13.5-5.25 21.55l-2.45.85-3.1-12.45q6.1-4.95 10.8-9.95M97.15 253.9l.55 21.55-7.75 4.5-6.4-26.05h13.6" fill="#e6ad4d"/><path d="M67.65 177.95q-.35-47.5 10.9-93.3Q52.4 69.7 34 45.1l2.35 17.5 17.2 127.7 8.55 8.55 1.7 1.65 1.05 1q32.6 31.35 44.25 29.35 7.2-3.55 11.65-10.45 8.2-12.85 6.9-37.35-.45-7.55-1.7-16.1l-1.4-8.05-2.2-10.65-.45-1.8L101.1 0l95.15 87.15q-22.3 39.25-25 74.45-.35 4.6-.35 9.2h-.1l-9.9-6.35q-.05-34.5 23.3-76.8-40.3-32.85-71.6-69.6l2.5 20.45 12.8 104.7 4.75 39.1q.5 32.35-12.45 45.6-5.2 5.25-12.55 7.5-4.05-.3-9.85-3.2-19.45-9.85-58.25-49.4-10.1 32.1-8.55 56.5l-3.3.75q-.9-24.7 11.85-57.25-23 33.7-25.05 65.5l-1.85 2.1q-7.25 8.55-9.05 19.75.4-8 1.9-16.6 1.4-8.2 3.75-16.9 2.1-7.7 4.95-15.8 2.1-6.05 4.65-12.3Q26 190.8 36.5 171.3l5.55 1.95L21 21.05Q51.6 55 88.1 80.15q-10.45 39.7-12.95 82.3l-.5 10.85q-3.6 2.15-7 4.65M44.2 315.8l12.85 18.7 2.1-3.05q20.1-29.05 45.65-44.35 17.8-10.7 38.25-14.7l-.25 4.55q-6.15 1.1-10.95 2.6-3.95 1.25-7.8 2.8l-2.55 1.1q-3.5 1.5-6.9 3.25l-2 1.05Q97 296.1 83.05 309.7l-1.35 1.35q-3.65 3.65-7.15 7.65l-1.7 2q-6.9 7.95-13.3 17.35l-5.75-2.15-3.15-1.35q-23.15-10.3-38-28.95 8.3 9.9 19.6 11.2l21 15-12.05-15.25 3-.75" fill="#a34e31"/><path d="m36.35 62.6 5 3.9 16.8 119.3v.05l-4.6 4.45-17.2-127.7m78.75-24.1 43.75 41.15-9.75 77.2-21.2-13.65-12.8-104.7M38.95 189.35q41.15 53.7 68.7 46.05 7.35-2.25 12.55-7.5l1.95 11.5q-6.65 6.5-15.25 12.15l.8 3.6 2.9 12.8-9.75 5.65-1.75-19.7-1.85-.8-23.15-10.2 2 21.55-13.6-9.2q-1.55-2.55-3.5-4.85-9.65-11.45-23.2-11.45l-1.7.05 4.85-49.65m14.3 58.95q2.15 1.8 4.1 4.1 8.8 10.5 8.8 25.35 0 14.8-8.8 25.3-3.7 4.35-8 6.95 24.5-33.65 3.9-61.7m-9.05 67.5 2.3-.8 10.25 13.35 2.4 3.1-2.1 3.05-12.85-18.7" fill="#ffff8f"/><path d="M14.2 220.85 6.5 204.3l2.75 32.35q-2.35 8.7-3.75 16.9L0 188.8l18.85 19.75q-2.55 6.25-4.65 12.3" fill="#7486a6"/><path d="m31 239.3 3.1-.3 1.7-.05q13.55 0 23.2 11.45 1.95 2.3 3.5 4.85l2.15 3.95q3.95 8.4 3.95 18.8 0 16.15-9.6 27.6-5.6 6.6-12.5 9.4l-2.3.8-3 .75-5.4.45-3.55-.2q-11.3-1.3-19.6-11.2l-.2-.25Q3 294 3 278q0-4.1.6-7.85 1.8-11.2 9.05-19.75l1.85-2.1q5.9-6.15 13.2-8.25l3.3-.75m22.25 9q-5.65-4.8-12.55-6l-4.6-.35q-12.45-.05-21.3 10.45Q6 262.9 6 277.75q0 14.8 8.8 25.3 6.35 7.55 14.65 9.65l6.65.85q7.2-.05 13.25-3.55 4.3-2.6 8-6.95 8.8-10.5 8.8-25.3 0-14.85-8.8-25.35-1.95-2.3-4.1-4.1" fill="#51122c"/><path d="M29.45 312.7q-8.3-2.1-14.65-9.65-8.8-10.5-8.8-25.3 0-14.85 8.8-25.35 8.85-10.5 21.3-10.45l4.6.35q-11.05 2.6-15.55 8.5-3.45.4-5.95 2.9-3 3-3 7.25t3 7.25q3 3 7.25 3t7.25-3q3-3 3-7.25 0-2.8-1.3-5.1Q45.6 259 46.15 273.3q.1 2.8-.2 6.05l-.85.7q-1.6 1.6-1.6 3.9-5 6.05-10.95 7.9-7.15 2.15-15.6-1.9 1.6 16.95 12.5 22.75m120.25-61.25q-6.25-1.05-9.1-5.95-2.95-5.15-.4-11.5l.25-.55q7.25-7.15 14.4-3.3l-.2 1.75q0 3.35 2.35 5.7 1.4 1.4 3.1 2 2.75 9.35-9.8 11.75l-.6.1m5.05-16.55q0-2.05-1.45-3.5-1.4-1.4-3.45-1.4-2.05 0-3.5 1.4-1.4 1.45-1.4 3.5t1.4 3.45q1.45 1.45 3.5 1.45t3.45-1.45q1.45-1.4 1.45-3.45" fill="#f06280"/><path d="M40.7 242.3q6.9 1.2 12.55 6 20.6 28.05-3.9 61.7-6.05 3.5-13.25 3.55l-6.65-.85q-10.9-5.8-12.5-22.75 8.45 4.05 15.6 1.9-4.25 11.85 9.95 12.65 17.35-5.1 15.5-31.15-3.25-22.7-11.85-.05-.55-14.3-10.75-17.45-.7-1.15-1.7-2.15-3-3-7.25-3l-1.3.1q4.5-5.9 15.55-8.5" fill="#ab2e55"/><path d="M46.15 273.3q8.6-22.65 11.85.05 1.85 26.05-15.5 31.15-14.2-.8-9.95-12.65 5.95-1.85 10.95-7.9 0 2.3 1.6 3.9t3.9 1.6q2.3 0 3.9-1.6t1.6-3.9q0-2.3-1.6-3.9t-3.9-1.6q-1.7 0-3.05.9.3-3.25.2-6.05" fill="#671f32"/><path d="M143.05 272.4q-20.45 4-38.25 14.7l6.15-11.2q13.2-7.55 28.2-12.5-6.9-13.8-2.65-18.25.45 1.35 1.2 2.65 2.3 3.95 6.45 5.85l-1.1 18.75m6.05-115.55 3 1.9q-1.1 23.4 2.05 50.6-32.8 25.65-25.5 50.1l-10.6 3.65q6.5-8.05 5.25-21.55 8.95-9.7 12.65-19.9 5.65-10.15 7.7-21.8l5.45-43" fill="#9a8b41"/><path d="m152.1 158.75 4.5 2.9q.75 26.6 12.25 52.3l-6.6 4q-7-.3-13.9 3.7-8 4.6-11.15 12.25-2.45 6.05-.7 11.25-4.25 4.45 2.65 18.25-15 4.95-28.2 12.5l7.1-12.8 10.6-3.65q-7.3-24.45 25.5-50.1-3.15-27.2-2.05-50.6" fill="#7e5837"/><path d="M170.9 170.8q0-4.6.35-9.2l30.05 32.65-6.6 4-23.8-27.35v-.1" fill="#0473a1"/><path d="M173.7 211q-12.75-21.2-12.8-46.55l9.9 6.35.1.1q-.05 3.45.15 6.9.4 8.1 1.95 16 1.5 7.7 4.05 15.15L173.7 211" fill="#6d3e2a"/><path d="m156.6 161.65 4.3 2.8q.05 25.35 12.8 46.55l-4.85 2.95q-11.5-25.7-12.25-52.3m-32.05-2.75 1.4 8.05-21.85 10.35q-13.05-1.8 17.9-18.25l2.55-.15m60.3 51.8 55.85-32.3-46.65 78.15L163.8 277q2.6-10.45-3.85-20.9 40.35-11.65 24.9-45.4m-103.5-37.65q1.8-.75 3.95-.75 4.4 0 7.5 3.1 3.1 3.1 3.1 7.5 0 3.85-2.35 6.7l-12.2-16.55" fill="#abcdd9"/><path d="m168.85 213.95 4.85-2.95 3.35-2.05 13.5-8.2 4.15-2.5 6.6-4 53.5-32.5-15 99.15-102.15 103.15 7-20.05 87.65-83.6 1.4-7.65 12-66.8 2.1-11.7-7.1 4.15-55.85 32.3-15.25 8.85q-2.25-1.05-5.1-1.4l-2.25-.2 6.6-4m-118.2 120.6 3.15 1.35 1.75 10.8.5 3.35q18.4 15.55 53.55 13 3.25-1.4 6.55-3.3 6.95-4.1 14.3-10.5l8.55-8.15-.2 3.95q-11.3 14.05-28.2 21.05-33.1 5.7-57.55-14.55l-2.4-17" fill="#7d93b3"/><path d="M136.5 245.15q-1.75-5.2.7-11.25 3.15-7.65 11.15-12.25 6.9-4 13.9-3.7l2.25.2q2.85.35 5.1 1.4 4.35 1.85 6.7 5.95 3.55 6.15.45 13.8-3.1 7.65-11.1 12.3-7.65 4.4-15.5 3.6l-.7-.1q-2.95-.4-5.3-1.45-4.15-1.9-6.45-5.85-.75-1.3-1.2-2.65m27.65 3.35q6.35-3.85 8.85-10 2.55-6.35-.4-11.5-1.9-3.3-5.35-4.85-1.95-.9-4.4-1.2-6.8-.95-13.4 2.9-6.35 3.65-9 9.6l-.25.55q-2.55 6.35.4 11.5 2.85 4.9 9.1 5.95l.65.1q6.8.95 13.45-2.85l.35-.2" fill="#3e1d36"/><path d="m169.6 219.55 15.25-8.85q15.45 33.75-24.9 45.4l-10 2.35.2-3.25q7.85.8 15.5-3.6 8-4.65 11.1-12.3 3.1-7.65-.45-13.8-2.35-4.1-6.7-5.95m76.1-33.6-12 66.8-38.45 37.2 41.4-90.4 9.05-13.6" fill="#7dabc0"/><path d="M167.25 222.15q3.45 1.55 5.35 4.85 2.95 5.15.4 11.5-2.5 6.15-8.85 10 12.9-13.2 3.1-26.35" fill="#aacb79"/><path d="m164.15 248.5-.35.2q-6.65 3.8-13.45 2.85l-.05-.2q12.55-2.4 9.8-11.75l2.65.4q3.35 0 5.7-2.4 2.4-2.35 2.4-5.7t-2.4-5.75q-2.35-2.35-5.7-2.35t-5.75 2.35q-1.7 1.75-2.15 4-7.15-3.85-14.4 3.3 2.65-5.95 9-9.6 6.6-3.85 13.4-2.9 2.45.3 4.4 1.2 9.8 13.15-3.1 26.35" fill="#732548"/><path d="M154.85 230.15q.45-2.25 2.15-4 2.4-2.35 5.75-2.35t5.7 2.35q2.4 2.4 2.4 5.75t-2.4 5.7q-2.35 2.4-5.7 2.4l-2.65-.4q-1.7-.6-3.1-2-2.35-2.35-2.35-5.7l.2-1.75" fill="#45192a"/><path d="M127.65 183.05q1.3 24.5-6.9 37.35l-4.15.3-8.8-11.9q4.55-.6 9.3-2 9.2-6.95 10.55-23.75m56.55 10.2 6.35 7.5-13.5 8.2q-2.55-7.45-4.05-15.15l11.2-.55m56.5-14.85 7.1-4.15-2.1 11.7-9.05 13.6-49.95 74.9-2 19.5-20.8 26 2.3-30 11.5-6 5.05-8.4 11.3-19 46.65-78.15" fill="#105c80"/><path d="M125.95 166.95q1.25 8.55 1.7 16.1-1.35 16.8-10.55 23.75-4.75 1.4-9.3 2l-14.25-19.2q2.35-2.85 2.35-6.7 0-4.4-3.1-7.5-3.1-3.1-7.5-3.1-2.15 0-3.95.75l-1.85-2.5q19.15-10.25 42.5-11.5-30.95 16.45-17.9 18.25l21.85-10.35m45.1 10.85 13.15 15.45-11.2.55q-1.55-7.9-1.95-16" fill="#29ccd8"/><path d="m122.15 239.4-1.95-11.5q12.95-13.25 12.45-45.6l-4.75-39.1 21.2 13.65-5.45 43q-2.05 11.65-7.7 21.8-5.35 9.55-13.8 17.75" fill="#abcd7a"/><path d="m122.35 148.25 2.2 10.65-2.55.15q-23.35 1.25-42.5 11.5-2.5 1.3-4.85 2.75l.5-10.85q30.05-15.15 47-14.2h.2" fill="#035c89"/><path d="m64.4 180.45 3.25-2.5q3.4-2.5 7-4.65 2.35-1.45 4.85-2.75l1.85 2.5q-1.95.75-3.55 2.35-3.1 3.1-3.1 7.5t3.1 7.5q3.1 3.1 7.5 3.1t7.5-3.1l.75-.8 14.25 19.2q-28.15 3.7-49.65-22.95v-.05l2.6-2.3 3.65-3.05m129.65 76.1-11.3 19-19.55 12.4-14.8 51.35-3.75 4.7 11.05-61.55 8.1-5.45 30.25-20.45" fill="#3efefe"/><path d="m64.85 201.5-1.05-1-1.7-1.65-8.55-8.55 4.6-4.45q21.5 26.65 49.65 22.95l8.8 11.9q-29.25 1.45-51.75-19.2m15.6 121.05 5.3-5.8q3 3.1 6.85 4.25 2.45-2.65 4.45-4.25l-5 10.15q-6.05-1.35-11.6-4.35" fill="#177396"/><path d="M120.75 220.4q-4.45 6.9-11.65 10.45-11.65 2-44.25-29.35 22.5 20.65 51.75 19.2l4.15-.3m-46.2 98.3q3.5-4 7.15-7.65 1.8 3.4 4.05 5.7l-5.3 5.8q-3.05-1.65-5.9-3.85m8.5-9Q97 296.1 112.6 287.75q5.25 27.7-5.7 32.25-1.3-15.4-15.05-1.25-7-4.9-8.8-9.05m12.85 1.15q-.6-.6-1.45-.6t-1.5.6q-.6.65-.6 1.5t.6 1.45q.65.65 1.5.65t1.45-.65q.65-.6.65-1.45t-.65-1.5m15.9-9.5q-1.6-1.6-3.9-1.6t-3.9 1.6q-1.6 1.6-1.6 3.9t1.6 3.9q1.6 1.6 3.9 1.6t3.9-1.6q1.6-1.6 1.6-3.9t-1.6-3.9" fill="#1f2e59"/><path d="m99.1 253.9 1.75 19.7q-1.55.9-3.15 1.85l-.55-21.55h1.95" fill="#dfa24b"/><path d="m62.5 255.25 13.6 9.2-2-21.55 23.15 10.2-.1.25-20.1-5.95 3 31.05-15.4-19.25-2.15-3.95m45.2-.1-.8-3.6q8.6-5.65 15.25-12.15 8.45-8.2 13.8-17.75-3.7 10.2-12.65 19.9-4.7 5-10.8 9.95l-4.8 3.65" fill="#fffffd"/><path d="m72.85 320.7 1.7-2q2.85 2.2 5.9 3.85 5.55 3 11.6 4.35l16.6.55q12.05-12.15 13.4-29.95l.15-4.9q-.05-4.4-.7-9.15l2.55-1.1.7 6.9q.2 4.25-.1 8.3-.65 7.5-3.05 14.3-2.85 7.85-8.1 14.8l2.65-.65q7.9-5 11.9-14.15 2.45-5.65 3.5-12.85.9-6.7.6-14.75l-.3-4.7q4.8-1.5 10.95-2.6l-.65 10.6q-4.2 24.8-19.2 36.75-2.95 2.35-6.3 4.2-12.6 3.8-24.45 1.15-9.95-2.2-19.35-8.95m8.85-9.65 1.35-1.35q1.8 4.15 8.8 9.05Q105.6 304.6 106.9 320q10.95-4.55 5.7-32.25l2-1.05q.95 4.8 1.4 8.95l.35 5.2q.7 19.55-11.7 21.4 1.05-12.65-7.6-5.5-2 1.6-4.45 4.25-3.85-1.15-6.85-4.25-2.25-2.3-4.05-5.7m35.95 35.5-18.55-.75 19.55-3.5-1 4.25"/><path d="M124.05 282.35q3.85-1.55 7.8-2.8l.3 4.7-7.4 5-.7-6.9m109.65-29.6-1.4 7.65-87.65 83.6 3.75-4.7 10.15-12.6 5.35-6.75 20.8-26 2-19.5 49.95-74.9-41.4 90.4 38.45-37.2" fill="#658bae"/><path d="m122.2 292.6-.15 4.9-5.7 3.35-.35-5.2 6.2-3.05" fill="#1f8eaa"/><path d="M114.6 286.7q3.4-1.75 6.9-3.25.65 4.75.7 9.15l-6.2 3.05q-.45-4.15-1.4-8.95" fill="#1e2d58"/><path d="M59.55 338.05q6.4-9.4 13.3-17.35 9.4 6.75 19.35 8.95l-32.65 8.4m72.6-53.8q.3 8.05-.6 14.75l-6.9-1.45q.3-4.05.1-8.3l7.4-5m-9.2 40.05q15-11.95 19.2-36.75L139 341.1l-8.55 8.15q8.8-29.55-7.5-24.95" fill="#97adcd"/><path d="m53.8 335.9 5.75 2.15 32.65-8.4q11.85 2.65 24.45-1.15 3.35-1.85 6.3-4.2 16.3-4.6 7.5 24.95-7.35 6.4-14.3 10.5 9.3-11.4 10.25-25.95-38.95 3.75-70.85 12.9l-1.75-10.8m77.75-36.9q-1.05 7.2-3.5 12.85h-6.45q2.4-6.8 3.05-14.3l6.9 1.45" fill="#bad6e3"/><path d="m92.05 326.9 5-10.15q8.65-7.15 7.6 5.5 12.4-1.85 11.7-21.4l5.7-3.35q-1.35 17.8-13.4 29.95l-16.6-.55" fill="#37e0e0"/><path d="m166.2 289.95-2.3 30-5.35 6.75 7.65-36.75" fill="#16264d"/></g><g id="u" fill-rule="evenodd"><path d="M118.45 22.5q1.4 3.5 2.35 7.4L70.05 79 50 80.1l.3-4 3.7-2 2.3-25.25 11.5-11.5q-1.3 7.3-1.15 12.25.45 18.1 19.9 5l31.9-32.1" fill="#177396"/><path d="m118.45 22.5-31.9 32.1q-19.45 13.1-19.9-5L82.3 35.55q10.95-3.65 0-12.75l20.6-20.55q10.6 7.7 15.55 20.25" fill="#3efefe"/><path d="m67.8 37.35-11.5 11.5L52 53.1l-1.7 23-.3 4L70.05 79l49.3-2.75-.75 3.35-7.75.45-9.6.55-4.95.25-1 .05-25.2 1.45-2 .1-7.15.4-10.9.6-2.55.15.25-2.9 1.65-21.1v-.05l.2-2.95.4-5 35.8-37.3 9.55-9.9 4.2-4.4 3.35 2.25L82.3 22.8 67.8 37.35" fill="#1a7496"/><path d="M56.3 48.85 54 74.1l-3.7 2 1.7-23 4.3-4.25" fill="#3cf6f8"/><path d="M85.8 14.3 50 51.6l-.4 5-10.1-2q27.2-35.55 46.3-40.3M28.2 78.05l2.25 11.1 5.65-1.8q26.3 36.25 25.3 53.6-6.8-5.55-14.9-10.25-3.1 5.1-3.95 13.5l-10.1-4.5q-7.85-17.3-5.5-51.55-4.15 33.2 1.05 49.55v5.5l-9.05-7.5-2.5 17.05Q14.3 112.5 28.2 78.05m7.8 121.3q.05-3.15.25-6.1 1.8-26.65 17.25-36.5l13.45 13.05q-18.05-12.95-27.5 27.45l-3.45 2.1M22.2 155l4.8 1.85-11.55 17.9q-3.15 1.6-5.75 4.2l-.75-5.7L22.2 155m-1.75 29.15-1.5-8.9 7.8-15.45L39 158.75l5 2.5q-1.55 2.35-2.85 4.8-12.9-4.85-20.7 18.1" fill="#fff"/><path d="m38.4 57.7-3.4-.6Q54.15 22.15 95.35 4.4l-9.55 9.9q-19.1 4.75-46.3 40.3l10.1 2-.2 2.95-3.55-.6-3.65-.6-3.8-.65" fill="#7587a7"/><path d="M66.65 49.6q-.15-4.95 1.15-12.25L82.3 22.8q10.95 9.1 0 12.75L66.65 49.6" fill="#feffff"/><path d="m70.1 82.35 25.2-1.45h.3l-8.15 11.6L70.1 82.35m-18.35 54.7q15.35 8.25 27.8 26.7l-7.35 6.3q-6.85-9.05-18.7-16.8l-1.75 1v-17.2m-15.6 8.4 6.15 2.2q-.2 3.55 0 7.65l-5.45.75-.7-10.6m-12.9-2.5 4.75 4.5v7.8l-1 1.6-4.8-1.85 1.05-12.05" fill="#252322"/><path d="m96.3 80.85 4.95-.25-10.5 13.85-3.3-1.95 8.15-11.6.7-.05m-49.8 76.3Q42.7 148 48 135.2l3.75 1.85v17.2l-5.25 2.9" fill="#696968"/><path d="M97.05 98.15q15.05 26.3 13 51.95-11.15 13.95-23.85 21.55-2.35-4.65-5.15-8.95l6.6-4.8 13.45-9.7q.6-16.55-3.5-29.65l-5.1-2.8L39 86.4l2.85-.95L78.9 105l11.25 5.9L96 114q-7.9-20.15-27.9-31.55l2-.1L87.45 92.5l3.3 1.95 6.3 3.7m-24.85 71.9q3.25 4.3 5.35 8.9l-7.75 4.8.7-5.4.55-4.6-4.1-3.95-13.45-13.05q-15.45 9.85-17.25 36.5-1.95.95-3.95 1.85 1.05-10.7 4.75-20.25 1.75-4.55 4.1-8.8 1.3-2.45 2.85-4.8l-5-2.5-12.25 1.05-7.8 15.45 1.5 8.9 1.6 9.35 2.5 14.85-2.6 2.45-3.6-19.95-2.9-16.1L27 156.85l1 .4 3.45-.45 5.4-.75 5.45-.75.05 1.85h4.15l5.25-2.9 1.75-1q11.85 7.75 18.7 16.8" fill="#7486a6"/><path d="m60.95 82.85 7.15-.4Q88.1 93.85 96 114l-5.85-3.1q-4.95-9.85-29.2-28.05m8.85 100.9-1.25 10.05q-16.8 13.05-32.05 18.5 1.35-8.25 2.95-15.05l31.05-18.9-.7 5.4M32.3 195.1q-.3 3.05-.35 6.2l-7.4 7.05q.65-15.25 7-26.7l5.5-6.8q-3.7 9.55-4.75 20.25m-13.95-4.25-6.4 5.95-2.25-17.85q2.6-2.6 5.75-4.2l2.9 16.1" fill="#bb6e42"/><path d="m110.85 80.05-13.8 18.1-6.3-3.7 10.5-13.85 9.6-.55m-24.65 91.6q-3.55 2.05-7.15 3.65l-.4 2.95-1.1.7q-2.1-4.6-5.35-8.9l7.35-6.3q-12.45-18.45-27.8-26.7L48 135.2q-5.3 12.8-1.5 21.95h-4.15l-.05-1.85q-.2-4.1 0-7.65l-6.15-2.2L30 143.2l1.45 13.6-3.45.45v-9.8l-4.75-4.5-2.3-2.2-2.6 12.75-1.9-.75 2.5-17.05 9.05 7.5v-5.5l4.45 2 10.1 4.5q.85-8.4 3.95-13.5 8.1 4.7 14.9 10.25 11.75 9.6 19.65 21.75 2.8 4.3 5.15 8.95"/><path d="m49.4 59.6-1.65 21.1-4.3 1.2 3.4-18.55 2.55-3.75" fill="#e45c79"/><path d="M49.4 59.55v.05l-2.55 3.75-14.9 21.8-2-11.5 1.4-1.75 1.6 6.75 12.9-19.7 3.55.6" fill="#f0bcc9"/><path d="M31.35 71.9 42.2 58.35l3.65.6-12.9 19.7-1.6-6.75" fill="#f06280"/><path d="M26.95 72.15 38.4 57.7l3.8.65L31.35 71.9l-1.4 1.75 2 11.5 11.5-3.25 4.3-1.2-.25 2.9-5.65 1.85-2.85.95-2.9.95-5.65 1.8-2.25-11.1-1.25-5.9" fill="#7f8da8"/><path d="M.9 195.1q-1.8-10.2.05-26.85l9.5-13q-15.75-59.4 16.5-83.1l1.25 5.9q-13.9 34.45-11.75 74.7l1.9.75 3.85 1.5-13.25 18.25.75 5.7q-5.85 5.7-8.8 16.15" fill="#7586a6"/><path d="m36.1 87.35 2.9-.95 53.5 29.35q8.6 31.6-4.85 42.15l-6.6 4.8q-7.9-12.15-19.65-21.75 1-17.35-25.3-53.6m-15.65 96.8q7.8-22.95 20.7-18.1-2.35 4.25-4.1 8.8l-5.5 6.8-9.5 11.85-1.6-9.35m46.5-14.35 4.1 3.95-.55 4.6-31.05 18.9q9.45-40.4 27.5-27.45" fill="#bad6e3"/><path d="m47.5 83.6 2.55-.15L78.9 105 41.85 85.45l5.65-1.85" fill="#fbf78a"/><path d="m46.85 63.35-3.4 18.55-11.5 3.25 14.9-21.8" fill="#671f32"/><path d="m18.35 153.5 2.6-12.75 2.3 2.2L22.2 155l-3.85-1.5" fill="#666665"/><path d="M31.45 156.8 30 143.2l6.15 2.25.7 10.6-5.4.75" fill="#6a6a69"/><path d="M28 137.7q-5.2-16.35-1.05-49.55-2.35 34.25 5.5 51.55l-4.45-2" fill="#8998b3"/><path d="m92.5 115.75 5.1 2.8q4.1 13.1 3.5 29.65l-13.45 9.7q13.45-10.55 4.85-42.15" fill="#fefefe"/><path d="m50.05 83.45 10.9-.6q24.25 18.2 29.2 28.05L78.9 105 50.05 83.45M36.5 212.3q-.55-6.85-.5-12.95l3.45-2.1q-1.6 6.8-2.95 15.05m-14.45-18.8 9.5-11.85q-6.35 11.45-7 26.7l-2.5-14.85" fill="#e6ad4d"/><path d="m77.55 178.95.8 1.75-2.3 16.6Q55.35 219.45 33 225.35l-5.55-7h-9.5l-3.5-9.5-10-3.55q-2.5-3.85-3.55-10.2 2.95-10.45 8.8-16.15l2.25 17.85 6.4-5.95 3.6 19.95 2.6-2.45 7.4-7.05q.05-3.15.35-6.2 2-.9 3.95-1.85-.2 2.95-.25 6.1-.05 6.1.5 12.95 15.25-5.45 32.05-18.5l1.25-10.05 7.75-4.8" fill="#a34e31"/><path d="m70.05 79 50.75-49.1q4.5 18.8-1.45 46.35L70.05 79" fill="#1f2e59"/></g><g id="v" fill-rule="evenodd"><path d="M138.2 96.85q-8.85-25.45 0-42.05l14.55-36.55q6.05.95 11.4 2.6 85.9-37.95 29.65 80h-50.55l-5.05-4" fill="#4e6b8c"/><path d="M152.75 18.25 138.2 54.8q-8.85 16.6 0 42.05-6.25 3.5-12.4 6 5.2-12.95-2.55-29.55-2.1-19.4 7.6-48.6l21.9-6.45M96.35 34.8l19.6-5.75q6.7 40.9-6.6 36.7l-4.65-20q-1.8-4.05-4.5-7.25-1.75-2.05-3.85-3.7m41.75 89.45-16.9-8.85 8.95-5.9 22.05 22.15-14.1-7.4m42.2 22.15 6.95 2.3-7.4 5.65-47.6-46.2v-.05l7.1-4.65 6.9 6.05q11.6 9.5 27.45 18.3l-8.4-1.4 11.25 18.05 3.75 1.95" fill="#658bae"/><path d="m70.75 26.85 4.45.25q10 11.95 16.15 23.85 4.6 9 7.05 17.95l-2.65 1.25q-4.75-18.55-25-43.3" fill="#191d1e"/><path d="M62.9 68.25q-1.3-2.15-3.2-4.05-6-6-14.55-6t-14.6 6q-6 6.05-6 14.6t6 14.55q6.05 6.05 14.6 6.05l1.4-.05q1.4 18.7 16.9 15.85l-18.25 5.05q14.55 4.25 31.45-5.35l3.3 1.5q-12.8 9.3-24.85 9.3l-2.6-.15q-6.05-.55-11.9-3.45l-4.2-2.35q-6.8-4.45-13.35-12.1l8.5-7.8q-18.4-30.9-2.5-53.55V33.25q20.55-5.8 35.75-6.4 21.8 23 25.8 46-3.9 2.25-7.45 4.9-11.1-24.95-20.25-9.5" fill="#177396"/><path d="m46.55 99.35-1.4.05q-8.55 0-14.6-6.05-6-6-6-14.55t6-14.6q6.05-6 14.6-6t14.55 6q1.9 1.9 3.2 4.05 1.7 2.8 2.4 6.05-1.65.1-2.85 1.3-1.35 1.35-1.35 3.3 0 1.95 1.35 3.3 1.15 1.15 2.8 1.35-1.25 5.55-5.55 9.8-5.5 5.55-13.15 6m30.1 15.55q-16.9 9.6-31.45 5.35l18.25-5.05 4.05-1.05 4.7-1.85q2.15 1.45 4.45 2.6m-30.1-34.1q0-3.75-2.65-6.4-2.6-2.6-6.35-2.6-3.75 0-6.4 2.6-2.6 2.65-2.6 6.4 0 3.75 2.6 6.35 2.65 2.65 6.4 2.65 3.75 0 6.35-2.65 2.65-2.6 2.65-6.35" fill="#3efefe"/><path d="M90.6 72.85q-4-23-25.8-46h5.95q20.25 24.75 25 43.3-2.65 1.25-5.15 2.7" fill="#3df9fb"/><path d="M130.85 24.7q-9.7 29.2-7.6 48.6 7.75 16.6 2.55 29.55-5.7 2.25-11.35 3.7l3.25-3.2h-10.45l-2.4-3.55q12.5-10.95 12.35-27.5l-7.5-5-.35-1.55q13.3 4.2 6.6-36.7l14.9-4.35m-13.45 110 20.7-10.45 14.1 7.4 24.7 24.8q-8.35 6.05-17.3 11.75l-19.35 5.25q-28.5 6.45-52.5 20.2l.45-29.2-24.05 11.5 7 28.5-6 4.55-17-35.05q53.2-16.65 69.25-39.25m73.2-4.05q-3.45 9.1-10.3 15.75l-3.75-1.95-11.25-18.05 8.4 1.4 16.9 2.85m-47.85 11.75 12 20.55 16.05-12.05-15.55-13-12.5 4.5" fill="#7dabc0"/><path d="M83.15 77.75q3.55-2.65 7.45-4.9 2.5-1.45 5.15-2.7l2.65-1.25q3.75-1.7 7.8-3.1l-6-27.3q2.7 3.2 4.5 7.25l4.65 20 .35 1.55-4.85 2.3-5.6 2.95q-22.05 12.2-33.6 30.3l1.9 1.75q21.35 18.8 51.15 7.25l18-10.95 2.65 2.55-7.1 4.65v.05l-2.1 1.35-8.95 5.9q-23.25 8.5-41.25 1l-3.3-1.5q-2.3-1.15-4.45-2.6-5.55-3.6-10.55-8.95 7.75-15.5 21.5-25.6" fill="#4b6788"/><path d="M98.4 68.9q-2.45-8.95-7.05-17.95Q101.4 54 106.2 65.8q-4.05 1.4-7.8 3.1" fill="#475559"/><path d="M75.2 27.1q13.2 1.3 21.15 7.7 2.1 1.65 3.85 3.7l6 27.3Q101.4 54 91.35 50.95 85.2 39.05 75.2 27.1" fill="#191c1d"/><path d="M65.25 83.55q-1.65-.2-2.8-1.35-1.35-1.35-1.35-3.3 0-1.95 1.35-3.3 1.2-1.2 2.85-1.3l.45-.05q1.95 0 3.3 1.35 1.35 1.35 1.35 3.3 0 1.95-1.35 3.3-1.35 1.35-3.3 1.35h-.5m.4 19.3q11.55-18.1 33.6-30.3l5.6-2.95q5.8 12.2-1.65 27.75l1.65 2.45-4.7 3.55h7.1l2.75 4.2q-22.4 4.3-44.35-4.7M46.55 80.8q0 3.75-2.65 6.35-2.6 2.65-6.35 2.65-3.75 0-6.4-2.65-2.6-2.6-2.6-6.35 0-3.75 2.6-6.4 2.65-2.6 6.4-2.6 3.75 0 6.35 2.6 2.65 2.65 2.65 6.4m41.9 66.5-.25 2.1 24.9-12.55q-6.45 12.9-64.45 32.9l5.05-34.45q12.1 1.1 28.5-2.9l-3.55 21.5 9.8-6.6M50.7 134.95l-6.4 32.7-16.75-20 9.05-17.7q5.95 3.75 14.1 5m-25.15-36.6q-12 3.45-22.15-9.95 4.85-26.55 22.65-47.6-14.15 33.4-.5 57.55" fill="#fff"/><path d="m104.85 99.8 2.4 3.55h-7.1l4.7-3.55m-50.2 29.05q15.45 1.4 36.05-3.55l-2.25 22-9.8 6.6 3.55-21.5q-16.4 4-28.5 2.9l.95-6.45m-2.7-.3-1.25 6.4q-8.15-1.25-14.1-5l2.35-4.65q5.95 2.3 13 3.25m84.75-27.65-18 10.95q-29.8 11.55-51.15-7.25 29.7 17.65 69.15-3.7M71.15 204.45l-7-28.5 24.05-11.5-.45 29.2q-8.6 4.9-16.6 10.8m-23-30.5 12.2 31q-22.4-20.2-33.75-55.55l21.55 24.55" fill="#bad6e3"/><path d="M143.25 100.85h50.55q.65 7.1.2 13.4l-47.75-4.75-6.9-6.05 3.9-2.6M109.7 67.3l7.5 5q.15 16.55-12.35 27.5l-1.65-2.45q7.45-15.55 1.65-27.75l4.85-2.3m33.05 75.1 12.5-4.5 15.55 13-16.05 12.05-12-20.55" fill="#abcdd9"/><path d="M107.25 103.35h10.45l-3.25 3.2-4.45 1-2.75-4.2" fill="#a9ccd8"/><path d="m138.2 96.85 5.05 4-3.9 2.6-2.65-2.55q-39.45 21.35-69.15 3.7l-1.9-1.75q21.95 9 44.35 4.7l4.45-1q5.65-1.45 11.35-3.7 6.15-2.5 12.4-6" fill="#58799b"/><path d="M62.9 68.25q9.15-15.45 20.25 9.5-13.75 10.1-21.5 25.6 5 5.35 10.55 8.95l-4.7 1.85-4.05 1.05q-15.5 2.85-16.9-15.85 7.65-.45 13.15-6 4.3-4.25 5.55-9.8h.5q1.95 0 3.3-1.35 1.35-1.35 1.35-3.3 0-1.95-1.35-3.3-1.35-1.35-3.3-1.35l-.45.05q-.7-3.25-2.4-6.05" fill="#1f2e59"/><path d="M193.8 100.85q56.25-117.95-29.65-80 93.35-64.2 42.7 69.5 2.75 32.05-17.6 59l-2-.65-6.95-2.3q6.85-6.65 10.3-15.75 2.8-7.4 3.4-16.4.45-6.3-.2-13.4M29.05 33.25V46.3q-15.9 22.65 2.5 53.55l-8.5 7.8-8.5 7.75Q1 108.45 0 88.85q1.85-18.65 29.05-55.6m7.35 86.5 4.2 2.35-1.65 3.2-2.35 4.65-9.05 17.7 16.75 20 6.4-32.7 1.25-6.4.55-3 2.6.15-.45 3.15-.95 6.45-5.05 34.45q58-20 64.45-32.9l4.3-2.15q-16.05 22.6-69.25 39.25l17 35.05 6-4.55q8-5.9 16.6-10.8 24-13.75 52.5-20.2l19.35-5.25q-31.35 19.85-69.45 34.8L67.1 217.5q-36.7-20.6-44.55-70.1l13.85-27.65m-22.85-9.35 6.05-6q-10.25-1.3-15.4-9.25 3.45 13.1 9.35 15.25m12-12.05q-13.65-24.15.5-57.55Q8.25 61.85 3.4 88.4q10.15 13.4 22.15 9.95m22.6 75.6L26.6 149.4q11.35 35.35 33.75 55.55l-12.2-31" fill="#7486a6"/><path d="M40.6 122.1q5.85 2.9 11.9 3.45l-.55 3q-7.05-.95-13-3.25l1.65-3.2m14.5 3.6q12.05 0 24.85-9.3 18 7.5 41.25-1l16.9 8.85-20.7 10.45-4.3 2.15-24.9 12.55.25-2.1 2.25-22q-20.6 4.95-36.05 3.55l.45-3.15m-41.55-15.3q-5.9-2.15-9.35-15.25 5.15 7.95 15.4 9.25l-6.05 6" fill="#97adcd"/><path d="m130.15 109.5 2.1-1.35 47.6 46.2-2.95 2.1-24.7-24.8-22.05-22.15" fill="#4e6c8e"/><path d="M194 114.25q-.6 9-3.4 16.4l-16.9-2.85q-15.85-8.8-27.45-18.3l47.75 4.75" fill="#7ba9c0"/></g><g id="w" fill-rule="evenodd"><path d="m140.55 139-12.45 10.1-9.75-5.2q-26.85-30.75 3.8-19.2l-5.75-10.85q13.25 11.4 24.15 25.15m15.3 22.45 1.9 3.3 12 12.75-.95 16.3-12.95-32.35m-1.55 29.75 10.45 6.25 3.55 10.7-12.05-7.35-1.95-9.6m-28.7-16.35 23.4 12.3-2.3 18.15-21.1-30.45" fill="#7dabc0"/><path d="M124.3 152.2q-9.35-6.55-20.65-11.5L88.6 114l9.75 12.05 10.3 12.65 9.7 5.2 9.75 5.2-3.8 3.1m30 39-1.05-4.9-7.5-5.5 8.2-15.7 10.8 32.35-10.45-6.25m-37.65-16.4 2.05-3.55 18 31.55 6.65 22.4-10.05-2.05-16.65-48.35" fill="#abcdd9"/><path d="m142.1 141-15.15 13.1-2.65-1.9 3.8-3.1 12.45-10.1 1.55 2" fill="#050606"/><path d="M134.45 160.25q-3.55-3.25-7.5-6.15L142.1 141q5.75 7.45 10.85 15.65l-1 2.4-17.5 1.2" fill="#475559"/><path d="M126.95 154.1q3.95 2.9 7.5 6.15 6.4 5.75 11.65 12.5l-.95 2.2q-16.2-19.7-38.55-28.65l-1.45-.55-.8 2.1-10.2 26.9 1.2 3.05 6.1 15.7-1.8 2.8-3.3-1.95-5.7-19.1-17.65-9.5-6.4-3.5-10.5 29.55 1.35 3.85 6.15 17.4-4.5 8.8-8.55-25.55 3.85-9.95 11.2-29.1 25.5 14 11.2-27.2 1.35-3.35q11.3 4.95 20.65 11.5l2.65 1.9" fill="#010101"/><path d="m134.45 160.25 17.5-1.2-5.85 13.7q-5.25-6.75-11.65-12.5M106.6 146.3q22.35 8.95 38.55 28.65l-1.45 3.35-25.05-12.05-1.15 1.9-10.9-21.85" fill="#191c1d"/><path d="m151.95 159.05 1-2.4 2.9 4.8-1.9 3.65-8.2 15.7 7.5 5.5 1.05 4.9 1.95 9.6-2 5-5.25-18.65-23.4-12.3-6.9-3.6-2.05 3.55-14.45 24.5 11.5 13-1 6.75-.45 3.3-1.4 1.65-4 4.75 3.8-13.9-5.05-4.45-14.5-12.85-11-9.75-13.5 32.55 7.8 11.3-12.85-5.3-2.45-4.5 4.5-8.8 7.35-14.35 7.65-14.9 5.65 3.35 12.1 7.2 3.3 1.95 1.8-2.8 4.75-7.55 8.55-13.45 2.75-4.35 1.15-1.9 25.05 12.05 1.45-3.35.95-2.2 5.85-13.7m-97.55 27.3-3.85 9.95-9-5.5-11-47.6q-1.95-15.8 16-33.55Q56.6 104.1 65.2 101l-20.3 31.9-3.75 5.9-1.55 2.4 9.5 44.05 5.3 1.1" fill="#7486a6"/><path d="M152.95 156.65q-5.1-8.2-10.85-15.65l-1.55-2q-10.9-13.75-24.15-25.15-5.4-4.65-11.15-8.9l-6.1-4.3q16.55 1.45 63.6 58.1l22.65 18.75-4.8 11.55-10.85-11.55-12-12.75-1.9-3.3-2.9-4.8m-49.3-15.95-1.35 3.35h-.05l-6.15-11.2-6.55-11.95L76.8 97.8l2.4-.4 9.4 16.6 15.05 26.7" fill="#4e6b8d"/><path d="m153.95 165.1 1.9-3.65 12.95 32.35.95-16.3 10.85 11.55-8.8 21.25-3.5-2.15-3.55-10.7-10.8-32.35" fill="#668caf"/><path d="m116.4 113.85 5.75 10.85q-30.65-11.55-3.8 19.2l-9.7-5.2-10.3-12.65q-6.65-8.85 6.9-21.1 5.75 4.25 11.15 8.9" fill="#658bae"/><path d="m180.6 189.05 4.8-11.55 3.9 3.25-5 54.1-21.55-6.5-7 23-38.05-12.5-14.5 26.55-27.55-13.05-14.1-26 12.85 5.3 11.2 16.25 14.05 7 7.2-26.15 4-4.75 1.1.25-.25 1.6 25.85 9.75 10 3.75 2.7 1 7-25.55 2.5.5 17.55 8.55 4.5-33.55-1.2-1.25" fill="#a34e31"/><path d="m180.6 189.05 1.2 1.25-4.5 33.55-5.5-13.55 8.8-21.25" fill="#988741"/><path d="m159.75 215.3-2.5-.5-7 25.55-2.7-1-4.2-14.15.9.15 10-19.55 2-5 3.5 14.5" fill="#7e5837"/><path d="m177.3 223.85-17.55-8.55-3.5-14.5 12.05 7.35 3.5 2.15 5.5 13.55m-29.75 15.5-10-3.75-4.25-12.45 10.05 2.05 4.2 14.15" fill="#abcd7a"/><path d="m154.25 205.8-10 19.55-.9-.15-6.65-22.4-18-31.55 6.9 3.6 21.1 30.45 2.3-18.15 5.25 18.65" fill="#658cae"/><path d="m65.6 157.25-11.2 29.1-5.3-1.1-9.5-44.05 1.55-2.4 10.95 11.4q25-24.4 44-17.35l6.15 11.2-14.1 17.15-22.55-3.95m47.1 61.8 1-6.75-11.5-13 14.45-24.5 16.65 48.35-11.95-2.35-8.65-1.75M80.1 187.8l12.8 21.05 4.55 31.05-.8.95-22.25-9.2-7.8-11.3 13.5-32.55" fill="#fff"/><path d="m137.55 235.6-25.85-9.75.25-1.6 12.25 2.6-2.85-6.05 11.95 2.35 4.25 12.45m-37.9 19.3-14.05-7-11.2-16.25 22.25 9.2.8-.95 2.2 15" fill="#ffff8f"/><path d="m121.35 220.8 2.85 6.05-12.25-2.6.3-1.9.45-3.3 8.65 1.75" fill="#e6ad4d"/><path d="m66.6 162.25 6.4 3.5 11.25 21.4-5.65-3.35-12-21.55m37.75-14.4.8-2.1 1.45.55 10.9 21.85-2.75 4.35-10.4-24.65" fill="#d2d3d2"/><path d="m99.15 100.65 6.1 4.3q-13.55 12.25-6.9 21.1L88.6 114l-9.4-16.6q11.9-1.6 19.95 3.25" fill="#97adcc"/><path d="m102.3 144.05-11.2 27.2-25.5-14 22.55 3.95 14.1-17.15h.05M89.55 120.9l6.55 11.95q-19-7.05-44 17.35l-10.95-11.4 3.75-5.9 9.2 9.8q17.7-27.4 35.45-21.8m1.55 76.65 14.5 12.85-3.95 14.95-10.55-27.8" fill="#bad6e3"/><path d="m76.8 97.8 12.75 23.1q-17.75-5.6-35.45 21.8l-9.2-9.8L65.2 101q6.15-2.25 11.6-3.2m14.3 99.75 10.55 27.8 3.95-14.95 5.05 4.45-3.8 13.9-9.4 11.15-4.55-31.05-12.8-21.05 11 9.75" fill="#97adcd"/><path d="m63.6 213.05-6.15-17.4q10.05-24.85 13.5 3.05l-7.35 14.35m9.4-47.3 17.65 9.5 5.7 19.1-12.1-7.2L73 165.75m28.45 27.75-6.1-15.7 6.8-11.55 4.05 19.7-4.75 7.55" fill="#252322"/><path d="m57.45 195.65-1.35-3.85 10.5-29.55 12 21.55-7.65 14.9q-3.45-27.9-13.5-3.05m37.9-17.85-1.2-3.05 10.2-26.9 10.4 24.65-8.55 13.45-4.05-19.7-6.8 11.55" fill="#6a6a69"/><path d="m106.85 228.75-7.2 26.15-2.2-15 9.4-11.15" fill="#bc6e41"/><path d="m113.35 69.75 2.4-5.5 9.95-23.2q-15.9-2.1-29.6-7-12.55-4.45-23.25-11.2Q61.3 15.55 51.9 5.6l1.55-2.4q33.9 25.65 78.75 33.85l-20.55 51-5.9-.6 5.15-11.95 2.45-5.75" fill="#191d1f"/><path d="M96.1 34.05q13.7 4.9 29.6 7l-9.95 23.2-25.1-26.2 5.45-4m-28 32.55-13-21 14.5-6.15L84.9 52.8 68.1 66.6" fill="#abcdd9"/><path d="m115.75 64.25-2.4 5.5L93.15 53l-20.3-30.15q10.7 6.75 23.25 11.2l-5.45 4 25.1 26.2m-60.6 4.9V63.4L37.6 32.55l15.3-7.75 16.7 14.65-14.5 6.15 13 21 18.35-2.65-6.35 3.8-16 9.4-8.95-8" fill="#7dabc0"/><path d="m113.35 69.75-2.45 5.75L93.15 60l-8.25-7.2-15.3-13.35L52.9 24.8 40.5 12.25q3.05 2.05 3.05-2.1L93.15 53l20.2 16.75" fill="#4e6b8d"/><path d="m36 122.8-3.45 4.4L0 108.15Q1.6 60.9 12.5 15.5L19.05 0 29.8 18.9l7.8 13.65L55.15 63.4v5.75L55.1 95.9l-2.5-3.75-1-27.05L44.25 52l-22.8-40.7-2.4-4.3Q2.95 46.25 6 97.65l25.75 15.9 4.75 2.9-2.45 3.7L36 122.8" fill="#0473a1"/><path d="M31.75 113.55 6 97.65Q2.95 46.25 19.05 7l2.4 4.3Q4.7 40.5 9.5 93.15l6.05 5.55 16.2 14.85m-13.4-61.2h7.2l7.5 26.25q5.6-17.7-9-37.55-11.6 2.3-5.7 11.3M15 89.1q-8.55-38.75 5.55-55.05 13.65-4.9 19 46.55Q31.9 99.75 15 89.1" fill="#3efefe"/><path d="M18.35 52.35q-5.9-9 5.7-11.3 14.6 19.85 9 37.55l-7.5-26.25h-7.2m33.75 46.8v20.25l-7.4-9.35 7.4-10.9" fill="#fff"/><path d="M51.9 5.6q9.4 9.95 20.95 17.25L93.15 53l-49.6-42.85q5.25 0 8.35-4.55M37.6 32.55 29.8 18.9q6.7-.4 10.7-6.65L52.9 24.8l-15.3 7.75M93.15 60l-6.7 3.95L68.1 66.6l16.8-13.8 8.25 7.2" fill="#658bae"/><path d="m36.5 116.45-4.75-2.9-16.2-14.85 16.5 3.95 15-16.05-2.8-34.6 7.35 13.1 1 27.05-16.1 24.3" fill="#1f2e59"/><path d="m110.9 75.5-5.15 11.95Q85.9 86.25 66 98.4l14.1-30.65 6.35-3.8 6.7-3.95 17.75 15.5" fill="#97adcd"/><path d="M21.45 11.3 44.25 52l2.8 34.6-15 16.05-16.5-3.95-6.05-5.55Q4.7 40.5 21.45 11.3M15 89.1q16.9 10.65 24.55-8.5-5.35-51.45-19-46.55Q6.45 50.35 15 89.1" fill="#177396"/><path d="m105.75 87.45 5.9.6-1.5 3.65q-17-2.8-33.3 5.75-2.55 1.3-5.1 2.95-4.6 2.9-9.15 6.75l-3-4.5q3.2-2.3 6.4-4.25 19.9-12.15 39.75-10.95m-22.6 14.25q11.85-5.05 24.6-3.95l-1.6 3.9q-19.25 1.7-38.5 13.1l-1.5-2.25q4.1-3.55 8.35-6.25t8.65-4.55" fill="#b1613b"/><path d="M107.75 97.75q-12.75-1.1-24.6 3.95l-6.3-4.25q16.3-8.55 33.3-5.75l-2.4 6.05" fill="#bb6e42"/><path d="m76.85 97.45 6.3 4.25q-4.4 1.85-8.65 4.55l-2.75-5.85q2.55-1.65 5.1-2.95" fill="#e6ad4d"/><path d="M74.5 106.25q-4.25 2.7-8.35 6.25l-3.55-5.35q4.55-3.85 9.15-6.75l2.75 5.85" fill="#ebbf5b"/><path d="m55.1 95.9.05-26.75 8.95 8 16-9.4L66 98.4q-3.2 1.95-6.4 4.25l-4.5-6.75" fill="#bad6e3"/><path d="m36 122.8-1.95-2.65 2.45-3.7 16.1-24.3 2.5 3.75 4.5 6.75 3 4.5 3.55 5.35 1.5 2.25 4.95 7.45-18.5 25-18-24.3h.05l1.4-1.75 14.55 18.5 2 2.55 14-20.55-13.95-19.6V102l-2.05-2.85-7.4 10.9L36 122.8" fill="#7584a4"/><path d="m52.1 99.15 2.05 2.85v.05l-.05 40.15-2-2.55v-40.5" fill="#da6d89"/><path d="M52.1 119.4v20.25l-14.55-18.5-1.4 1.75-.15-.1 8.7-12.75 7.4 9.35m2.05-17.35 13.95 19.6-14 20.55 8-20.55-7.95-19.6" fill="#f06280"/><path d="m54.1 142.2.05-40.15 7.95 19.6-8 20.55" fill="#671f32"/></g><g id="x" fill-rule="evenodd"><path d="M70.15 2.4 72.7 0Q90.4 17.25 101 34.9q3.45 5.75 6.15 11.5 3.35 7.25 5.55 14.55l-2.5.95Q96.35 29.05 70.15 2.4M54 71.85l-23.8-31.8 2.5-2.35 7.4 8.75 22.55 26.6q-4.8-.15-8.65-1.2" fill="#040608"/><path d="M70.15 2.4q26.2 26.65 40.05 59.5l-7.95 2.95-11-28.35-51.15 9.95-7.4-8.75L70.15 2.4m62.15 179.85 12.35-5.8-5.2 21.8-11.75 3.65 4.6-19.65m-5.85-9.75-1.65 10.4-30.95 2.65 32.6-13.05" fill="#191c1d"/><path d="m110.2 61.9 2.5-.95q10.1-4.05 21.6-9.4-6.15-6.4-27.15-5.15-2.7-5.75-6.15-11.5l37.3 5.1q48.25 42.05 32.55 102.15l-15.5 33.6-5-7q24.7-49.5 9.25-85.55l-2.35-5q-6.5-12.4-17.95-23.15-18.6 9.05-36.6 14.5-22.7 6.9-44.5 8.05l-22.05 29.05v17.9l-4.5 2.1 1.5-23 16.05-33.6q2.2 1.1 4.8 1.8 3.85 1.05 8.65 1.2 6.85.15 15.6-1.45l4.7-1 .65-.15q8.5-2.05 18.65-5.6l7.95-2.95m45.15 131.35h4L142.75 229l-8.95.95 13.05-28.7-7.9 2.15-12.4 3.4-5.75 24.55-10.1 3.15-6.9-1.8 14-3.85 1.95-8.1 5.5-23.35 2.05-8.65-2.6.15-35.4 2.1h-.15l-10.35.6-3.1.15-2-4.5 6.05-.5h.05l7.05-.6 7-.6 30.95-2.65 3.5-.3 4-.35-4.6 19.65 11.75-3.65 4.7-1.5 11.2-3.5" fill="#4e6b8d"/><path d="M83.6 70.45q7.4-2.35 1.15-14.9l-2.95-.45-10.1-1.55 3.3 9 3.25 9.05q-8.75 1.6-15.6 1.45L40.1 46.45l51.15-9.95 11 28.35Q92.1 68.4 83.6 70.45M61.95 118.2q12.15 19.6 7.3 46l-5.65 2.15q-5-22.65-18.95-40.15l17.3-8" fill="#252322"/><path d="m75 62.55-3.3-9 10.1 1.55q5.35 10.75-6.8 7.45m3.05 39.2Q93.2 104.1 91.9 89L85 84.8l-.9-.55-2-1.25q-1.85-.9-4.1-.9-4.05 0-6.9 2.85-2.85 2.85-2.85 6.9 0 4.05 2.85 6.9 2.25 2.25 5.25 2.75l.4.05 1.3.2m-17.3 9.9-19.55 10.5-5.05 2.4v-17.9L58.2 77.6q21.8-1.15 44.5-8.05 16.2 52.1 1.55 90.5l-15 2.15q-10.05-39.55-28.5-50.55M33.3 129.4q-15.45 24.45-23.5 51l-1.65-39.2 25.15-11.8m45.5 62.2 10.35-.6-12.55 20.6 2.2-20" fill="#fff"/><path d="m81.8 55.1 2.95.45Q91 68.1 83.6 70.45l-.65.15-4.7 1L75 62.55q12.15 3.3 6.8-7.45" fill="#6a6a69"/><path d="M84.9 84.95q2.85 2.85 2.85 6.9 0 4.05-2.85 6.9-2.85 2.85-6.9 2.85l-1.25-.05-.4-.05q-3-.5-5.25-2.75-2.85-2.85-2.85-6.9 0-4.05 2.85-6.9 2.85-2.85 6.9-2.85 2.25 0 4.1.9l2 1.25.8.7M80.2 97.5q1.5-.45 2.7-1.65 1.85-1.8 1.85-4.35t-1.85-4.4q-1.8-1.8-4.35-1.8-2.15 0-3.8 1.3h-.1q-1.05 0-1.8.75t-.75 1.8q0 .7.35 1.3l-.1 1.05q0 2.55 1.8 4.35l.55.5q.75.6 1.65.95l1.85.4h.35l1.65-.2" fill="#187497"/><path d="M74.75 86.6q1.65-1.3 3.8-1.3 2.55 0 4.35 1.8 1.85 1.85 1.85 4.4 0 2.55-1.85 4.35-1.2 1.2-2.7 1.65l-.1-.35 1.55-1.05q1.4-1.4 1.4-3.4t-1.4-3.4q-1.4-1.4-3.4-1.4l-1.3.15-.5-.7q-.7-.7-1.7-.75" fill="#177396"/><path d="m76.95 88.05 1.3-.15q2 0 3.4 1.4t1.4 3.4q0 2-1.4 3.4l-1.55 1.05-1.85.35-1.85-.35-1.55-1.05q-1.4-1.4-1.4-3.4 0-.65.15-1.2l1.05.2q1.05 0 1.8-.75t.75-1.8l-.25-1.1" fill="#1f2e59"/><path d="M78 101.6q4.05 0 6.9-2.85 2.85-2.85 2.85-6.9 0-4.05-2.85-6.9l.1-.15 6.9 4.2q1.3 15.1-13.85 12.75l-.05-.15m-10.25 67.15 3.5-1q9.15-35.25-10.5-56.1 18.45 11 28.5 50.55l15-2.15q-4 10.5-10.3 19.95l-9.1 4.35-17.1-15.6m-9.45-3.5-33.6 3.5 15.5-42.6q15.2 18.8 18.1 39.1" fill="#bad6e3"/><path d="M74.75 86.6q1 .05 1.7.75l.5.7.25 1.1q0 1.05-.75 1.8t-1.8.75l-1.05-.2-.75-.55-.4-.5q-.35-.6-.35-1.3 0-1.05.75-1.8t1.8-.75l.05.05.05-.05" fill="#3efdfe"/><path d="M155.35 175.75v17.5l-11.2 3.5 3.15-21.55-2.65 1.25-12.35 5.8-4 .35 1.2-11.35.35-3.55-43 18.45-7.05.6 5.05-2.4 9.1-4.35 38.35-18.3v18.05l2.7-1.65 15.35-9.35 5 7m-93.4-57.55-1.7-2.55-17.45 8.3-1.6-1.8 19.55-10.5q19.65 20.85 10.5 56.1l-3.5 1-3.5 1-.45-2.3-.2-1.1 5.65-2.15q4.85-26.4-7.3-46" fill="#020303"/><path d="m42.8 123.95 17.45-8.3 1.7 2.55-17.3 8-1.85-2.25" fill="#8a8a89"/><path d="m6.05 139.05.1-.35 25.5-12.05 4.5-2.1 5.05-2.4 1.6 1.8 1.85 2.25q13.95 17.5 18.95 40.15l.2 1.1-5.05 1.8-.45-4q-2.9-20.3-18.1-39.1l-6.9 3.25-25.15 11.8-2.1-2.15" fill="#6e7e9c"/><path d="m33.3 129.4 6.9-3.25-15.5 42.6 33.6-3.5.45 4-13.2 3L9.8 180.4q8.05-26.55 23.5-51" fill="#97adcd"/><path d="m157.25 78.2 2.35 5q4.15 57.1-24.6 94.9l-2.7 1.65v-3.05q29.05-45.55 24.95-98.5" fill="#547394"/><path d="M102.7 69.55q18-5.45 36.6-14.5 11.45 10.75 17.95 23.15 4.1 52.95-24.95 98.5v-4.75q21.95-32.75 23.05-89.85l-12-15q2.75 71.55-39.1 92.95 14.65-38.4-1.55-90.5M89.15 191h.15l35.4-2.1q-23.5 26.5-50.45 43.7l2.35-21L89.15 191" fill="#abcdd9"/><path d="M112.7 60.95q-2.2-7.3-5.55-14.55 21-1.25 27.15 5.15-11.5 5.35-21.6 9.4m-8.45 99.1q41.85-21.4 39.1-92.95l12 15q-1.1 57.1-23.05 89.85V161.7L93.95 180q6.3-9.45 10.3-19.95m21 37.35-5.5 23.35-21 3.55 26.5-26.9m13.7 6 7.9-2.15-13.05 28.7-7.45.8 12.6-27.35" fill="#7dabc0"/><path d="m144.65 176.45 2.65-1.25-3.15 21.55-4.7 1.5 5.2-21.8" fill="#445258"/><path d="m86.85 186.15 43-18.45-.35 3.55-3.05 1.25-32.6 13.05-7 .6" fill="#98b6c1"/><path d="m129.5 171.25-1.2 11.35-3.5.3 1.65-10.4 3.05-1.25" fill="#465458"/><path d="M159.6 83.2q15.45 36.05-9.25 85.55L135 178.1q28.75-37.8 24.6-94.9m-34.9 105.7 2.6-.15-2.05 8.65-26.5 26.9 21-3.55-1.95 8.1-14 3.85-29.55-.05v-.05q26.95-17.2 50.45-43.7m-3.9 42.45 5.75-24.55 12.4-3.4-12.6 27.35-5.55.6" fill="#658bae"/><path d="m110.7 234.5 10.1-3.15 5.55-.6 7.45-.8-2 4.35-42.15 6.7 21.05-6.5m-36.45-1.85 29.55.05-46.1 12.65 1.3-3.9q7.75-4.05 15.25-8.8" fill="#7e5837"/><path d="m142.75 229-6.45 13.85q-28.75 7.65-57.55 5.5H65.7L89.65 241l42.15-6.7 2-4.35 8.95-.95" fill="#6d3e2a"/><path d="m79.75 186.75-15.5-17 3.5-1 17.1 15.6-5.05 2.4h-.05" fill="#4f6d8f"/><path d="M65.7 248.35h-13l21-61.1 2 4.5-15.95 47.55-.75 2.15-1.3 3.9 46.1-12.65 6.9 1.8-21.05 6.5-23.95 7.35m-1.45-78.6L3.65 200.8q-8.35-27.2 2.4-61.75l2.1 2.15q-5.05 30.6-2.5 55.05l53.1-27 5.05-1.8.45 2.3" fill="#a35237"/><path d="m75.7 191.75 3.1-.15-2.2 20-16.85 27.7 15.95-47.55m-68.55-1.9-1.5 6.4Q3.1 171.8 8.15 141.2l1.65 39.2q-1.45 4.7-2.65 9.45" fill="#ffff8f"/><path d="m45.55 172.25 13.2-3-53.1 27 1.5-6.4 38.4-17.6" fill="#e3a94c"/><path d="m76.6 211.6-2.35 21v.05q-7.5 4.75-15.25 8.8l.75-2.15 16.85-27.7" fill="#abcd7a"/><path d="m9.8 180.4 35.75-8.15-38.4 17.6q1.2-4.75 2.65-9.45" fill="#bc6e41"/></g><g id="y" fill-rule="evenodd"><path d="m229.8 63.5-3.9-.9q-6.65-17.2-22.9-21-5.6-1.3-12.4-1-34.8 3.5-55.55 64.65-1.5 14.35 7.85 25.3l-4.55 2.85q-6.85-9.55-6.3-22.15 2.4-45.5 46.05-71.65 40.25-13.8 51.7 23.9" fill="#683d2c"/><path d="M203 41.6q-41.4 5.55-53.45 39.55-3.5 9.8-4.55 22.05 1.95 11.7 7.5 19.2-4.7 4.75-9.6 8.15-9.35-10.95-7.85-25.3Q155.8 44.1 190.6 40.6q6.8-.3 12.4 1" fill="#15254c"/><path d="m316.15 10.9.3.05 9.3.65-6.35 3.25-.25.15-43.4 11.65-14.6 3.05-41-6.1q43.9-12.3 96-12.7m-6.25 9.25q-25.05 14.75-45 35.2l-6.1 6.45-.05.05q-3.05 3.35-5.95 6.85l-4.55-1 15.95-19.05-15-7 28.05-3.5q15.7-15 32.65-18m-184 117.95-9.15.95-4.3-8.75-21.5 2q-5.65-1.55-11.45-2.1.9-13.2 28.95-6.95 5.3 2.6 9.75-1.2 4 9.95 7.7 16.05" fill="#9a8b41"/><path d="M319.15 15q-4.75 2.45-9.25 5.15-16.95 3-32.65 18l-28.05 3.5 15 7-15.95 19.05-18.45-4.2q-11.45-37.7-51.7-23.9-43.65 26.15-46.05 71.65-.55 12.6 6.3 22.15-4.95 2.7-10.05 4.1-2.75-5.3-4.8-11.75l-2.1-7.5q8.4-12.7 13.25-52.05 5.1-5.95 11.9-11.55 31.6-29.4 71.1-22.5 19.9 1.7 43.5-2.45l14.6-3.05L319.15 15m-213.7 101.25 3 7Q80.4 117 79.5 130.2l-6.45-.3 8.9-11.15 23.5-2.5" fill="#7e5837"/><path d="m135.45 59.45.8-8.05q42.5-37.2 102.4-47.85Q310.8-6.9 337.8 13.6q-33.25 15.1-59.05 39.55l-13.85 2.2q19.95-20.45 45-35.2 4.5-2.7 9.25-5.15l.25-.15 6.35-3.25-9.3-.65-.3-.05q-113.6-7-180.7 48.55" fill="#6b3d2a"/><path d="M135.45 59.45q67.1-55.55 180.7-48.55-52.1.4-96 12.7l41 6.1q-23.6 4.15-43.5 2.45-39.5-6.9-71.1 22.5-6.8 5.6-11.9 11.55l.8-6.75" fill="#abcd7a"/><path d="m100.15 97.3 1.45-1.95q6.2-8.4 13-15.95 9.8-10.85 20.85-19.95l-.8 6.75q-19.75 23.15-13.25 52.05-1.55 2.35-3.2 3.8-6.55-15.15-9.75 1.2l-3-7-27.55-2.5 26.05-2.5-2.95-10.8-.85-3.15m158.6-35.45.05-.05 64 10.85-5.9 3.55-34.15-2.95v-.6l-1.7.45-16.15-1.4-6.15-9.85M107.2 112.5h8.55l4-29.55-3.3-2.25-13.7 18.1 4.45 13.7m17.8 35.3-1 4.25-1 4.3 12.6 5-1.1 1-20-3.55 10.5-11m-104.65-3.5-1.55-24.05L31.85 85.2l2 .25-6.5 24.3 7.5 9 22.4-4.3q-15.95 9.9-37.45 10.85l5.05 20.5-4.5-1.5" fill="#fff"/><path d="m264.9 55.35 13.85-2.2-1.55 1.5q41.95 5.85 59.6 16.55-19.6 18.85-48.7 34.55-1.4-5.6-3.8-9.9l31.2-18.8 1.4-.85 5.9-3.55-64-10.85 6.1-6.45" fill="#7486a6"/><path d="m281.05 73.1-13.15 3.45-3-4.85 16.15 1.4m1.7.15 34.15 2.95-1.4.85-32.75 8.65V73.25" fill="#b9d5e2"/><path d="m262.75 80.95-.85-2.85 6-1.55 13.15-3.45 1.5.15-5.3 14-2.85-2.05 3.35-8-15 3.75" fill="#788baa"/><path d="m277.25 87.25 5.3-14h.2V85.7l32.75-8.65-31.2 18.8q-2.85-5.2-7.05-8.6" fill="#97adcd"/><path d="m191 60.05 7.75 1.5q-17.45 17.3-3.65 32.85-11.55 1.95-19.3 1.1L191 60.05m93.3 35.8q-6.6 4-13.25 7.95l6.2-16.55q4.2 3.4 7.05 8.6m-17.85 8.35q.45-8.95-3.7-23.25 6.6 1.1 11.65 4.25l-7.95 19m-4.55-26.1-2.7-7.95-6.4-1.45q2.9-3.5 5.95-6.85l6.15 9.85 3 4.85-6 1.55m-30.3 43.3q3.55-33 20.05-39.2 4.4 1.3 6.75 6.1 0 33.45-26.8 33.1" fill="#658bae"/><path d="m262.75 80.95 15-3.75-3.35 8q-5.05-3.15-11.65-4.25" fill="#bad6e3"/><path d="m191 60.05 2.1-4.9 32.8 7.45 3.9.9 18.45 4.2 4.55 1 6.4 1.45 2.7 7.95.85 2.85q4.15 14.3 3.7 23.25l-.25 2.5 4.85-2.9q6.65-3.95 13.25-7.95 2.4 4.3 3.8 9.9-8.1 4.4-16.9 8.5l-5.5 18-34.95 2.8-.1 6.25-24.2 1.55 3.05-5.4 15.65-2.15q5.9-47.1 23-55.1 9.6-3.55 14.05 9.5l-4.5-17-46.15-8.75-12.8-2.4-7.75-1.5m40.6 61.35-.7 8.85 27.3-2.5q5.45-28.65.2-39.45-2.35-4.8-6.75-6.1-16.5 6.2-20.05 39.2" fill="#4e6b8d"/><path d="m271.05 103.8-4.85 2.9.25-2.5 7.95-19 2.85 2.05-6.2 16.55" fill="#4e6c8e"/><path d="m225.9 62.6-32.8-7.45-2.1 4.9-15.2 35.45q7.75.85 19.3-1.1l13.25-2.9q8.85-2.3 19.3-5.8-4.65 27-18.15 51.75l-3.05 5.4-4.35 6.95-15.65 3.45-5.45-1.55 19.6-4.4q18.3-32.3 23.5-57.1l-36.55 12q-45.65 6.5-4.5-48.05-15-1.6-33.5 27 12.05-34 53.45-39.55 16.25 3.8 22.9 21" fill="#0c5c83"/><path d="m211.55 63.95 46.15 8.75q-23.45 4.35-33.55 45.05l3.5-32.05q-10.45 3.5-19.3 5.8-18.85-15.5 3.2-27.55m-10.95 48.1q-18.6 11.1-32.2 9.45v-5.25l32.2-4.2m-34.3-1.95q0 2.85-2.05 4.85-2 2.05-4.85 2.05-2.85 0-4.9-2.05-2-2-2-4.85 0-2.85 2-4.9 2.05-2 4.9-2 2.85 0 4.85 2 2.05 2.05 2.05 4.9" fill="#abcdd9"/><path d="m198.75 61.55 12.8 2.4Q189.5 76 208.35 91.5l-13.25 2.9q-13.8-15.55 3.65-32.85M258.4 88.3q5.25 10.8-.2 39.45l-27.3 2.5.7-8.85q26.8.35 26.8-33.1" fill="#7dabc0"/><path d="M149.55 81.15q18.5-28.6 33.5-27-41.15 54.55 4.5 48.05l36.55-12q-5.2 24.8-23.5 57.1l-19.6 4.4q-7.25-2.2-13.35-4.7 9.65 1.9 28.45-2.7l6.2-10.65q9.2-16.65 16.3-34.4-9.55 7.75-18 12.8l-32.2 4.2v5.25l-2.6-.45q-12.8-2.8-20.8-17.85 1.05-12.25 4.55-22.05m16.75 28.95q0-2.85-2.05-4.9-2-2-4.85-2-2.85 0-4.9 2-2 2.05-2 4.9 0 2.85 2 4.85 2.05 2.05 4.9 2.05 2.85 0 4.85-2.05 2.05-2 2.05-4.85" fill="#29ccd8"/><path d="m196.95 134.6 5.35-.95-6.2 10.65q-18.8 4.6-28.45 2.7l-.3-.15Q151 140 142.9 130.55q4.9-3.4 9.6-8.15 12.75 17.2 44.45 12.2" fill="#1f2e59"/><path d="M168.4 121.5q13.6 1.65 32.2-9.45 8.45-5.05 18-12.8-7.1 17.75-16.3 34.4l-5.35.95q-22.3 0-31.15-13.55l2.6.45" fill="#105c80"/><path d="m257.7 72.7 4.5 17q-4.45-13.05-14.05-9.5-17.1 8-23 55.1l-15.65 2.15Q223 112.7 227.65 85.7l-3.5 32.05q10.1-40.7 33.55-45.05" fill="#78a4ba"/><path d="m181 151.7 5.45 1.55 10.65 2.55q-8.6 23.45-51.05 17.55l-5 3.25-11.1-7.45 4.75-1.7 9.85-3.65q36.45 10.05 47.05-5.5l-2-.35q-38.55-6.85-51.25-24.55l4.55-2.85q8.1 9.45 24.45 16.3l.3.15q6.1 2.5 13.35 4.7" fill="#a44f32"/><path d="m189.6 157.95 2 .35q-10.6 15.55-47.05 5.5l-4-6.95L125 147.8h-4l-4.25-8.75 9.15-.95q4.7 7.8 8.9 9.2 18 21.05 54.8 10.65m-54.9 9.5-4.75 1.7-15.45-10.35 20 3.55.2 5.1m-94.3-80.8q6.65 1.5 12.15 4l8.35 11.1q-37.25 12.2-20.5-15.1m-11.55 2.1.2.1-13.25 31.4-6.05-5V108h.1l.45 2.25 18.55-21.5m-2 55.8V128.8q12.55 4.15 25.05-5.55-7.5 9.4-1.35 10.3-11.65 3.65-23.7 11" fill="#e6ad4d"/><path d="m70.6 100.2 28.85-1.95.7-.95.85 3.15-26.8 4.6q-1.55-2.55-3.6-4.85" fill="#ffffea"/><path d="m136.25 51.4-.8 8.05q-11.05 9.1-20.85 19.95-6.8 7.55-13 15.95l-1.45 1.95-.7.95-28.85 1.95-2.75-2.85 30.6-2.65q16.75-24.9 37.8-43.3" fill="#a25537"/><path d="m101 100.45 2.95 10.8-26.05 2.5q-1.25-4.65-3.7-8.7l26.8-4.6m6.2 12.05-4.45-13.7 13.7-18.1 3.3 2.25-4 29.55h-8.55m16.8 39.55 16.55 4.8-4.95 4.5-12.6-5 1-4.3m-71.45-61.4q16.5 7.5 22.85 24.1l-8-8q-4.75 4.35-10.15 7.7l-22.4 4.3-7.5-9 6.5-24.3 6.55 1.2q-16.75 27.3 20.5 15.1l-8.35-11.1" fill="#ffff8f"/><path d="m121.4 118.25 2.1 7.5q2.05 6.45 4.8 11.75l-2.4.6q-3.7-6.1-7.7-16.05 1.65-1.45 3.2-3.8" fill="#a7bf8e"/><path d="M108.45 123.25q3.2-16.35 9.75-1.2-4.45 3.8-9.75 1.2" fill="#e7af4f"/><path d="m67.85 97.35 2.75 2.85q2.05 2.3 3.6 4.85 2.45 4.05 3.7 8.7l-2.5 1q-6.35-16.6-22.85-24.1-5.5-2.5-12.15-4l-6.55-1.2-2-.25-13.05 35.05 1.55 24.05 4.5 1.5 2-1.25q12.05-7.35 23.7-11 11.45-3.65 22.5-3.65l6.45.3q5.8.55 11.45 2.1l21.5-2 4.3 8.75 4.25 8.75h4l-10.5 11v-5.7l3.5-3.3-4.5-16-24.55 2.5Q69.7 125 20.85 150.8l-18-31.55Q-7.4 93.15 19.05 59.8q-7.7 22.15-6.75 40.9l18.05-20q25.3 5.25 37.5 16.65m-38.8-8.5.3-.7-.5.6-18.55 21.5-.45-2.25-.05-.1q-3.1-15.75 2.5-35.2-12.45 20-6.4 42.65v.05q3.7 13.95 14.45 28.9l-3.4-18.15-1.15-5.9 13.25-31.4" fill="#a35436"/><path d="M134.8 147.3q-4.2-1.4-8.9-9.2l2.4-.6q2.85 5.55 6.5 9.8" fill="#f8e97f"/><path d="M189.6 157.95q-36.8 10.4-54.8-10.65-3.65-4.25-6.5-9.8 5.1-1.4 10.05-4.1 12.7 17.7 51.25 24.55" fill="#bd6f41"/><path d="M165.8 121.05q8.85 13.55 31.15 13.55-31.7 5-44.45-12.2-5.55-7.5-7.5-19.2 8 15.05 20.8 17.85" fill="#177396"/><path d="m140.55 156.85 4 6.95-9.85 3.65-.2-5.1 1.1-1 4.95-4.5m-62.65-43.1 27.55 2.5-23.5 2.5-8.9 11.15q-11.05 0-22.5 3.65-6.15-.9 1.35-10.3-12.5 9.7-25.05 5.55v15.75l-2 1.25-5.05-20.5q21.5-.95 37.45-10.85 5.4-3.35 10.15-7.7l8 8 2.5-1M9.8 107.9l-.05.1-3.85 7.35Q-.15 92.7 12.3 72.7q-5.6 19.45-2.5 35.2m124.85-41.7q-4.85 39.35-13.25 52.05-6.5-28.9 13.25-52.05" fill="#bc6e41"/><path d="m129.95 169.15 11.1 7.45-5 3.25-21.55-9.5-4.5-13.05 4.5-4.2v5.7l15.45 10.35" fill="#6d3e2a"/><path d="m125 147.8 15.55 9.05-16.55-4.8 1-4.25" fill="#e6ae4e"/><path d="M9.75 108v7.25l6.05 5 1.15 5.9L5.9 115.4v-.05L9.75 108" fill="#fefb8c"/><path d="m5.9 115.4 11.05 10.75 3.4 18.15Q9.6 129.35 5.9 115.4" fill="#f3d76e"/></g><use ffdec:characterId="2" height="283.95" width="179.75" xlink:href="#q" id="c"/><use ffdec:characterId="4" height="227.1" width="464.9" xlink:href="#r" id="d"/><use ffdec:characterId="6" height="168" width="158.25" xlink:href="#s" id="o"/><use ffdec:characterId="10" height="397.2" width="269.35" xlink:href="#t" id="f"/><use ffdec:characterId="15" height="225.35" width="122.75" xlink:href="#u" id="g"/><use ffdec:characterId="17" height="217.5" width="224.65" xlink:href="#v" id="h"/><use ffdec:characterId="19" height="265.4" width="189.3" xlink:href="#w" id="i"/><use ffdec:characterId="21" height="248.8" width="174.7" xlink:href="#x" id="j"/><use ffdec:characterId="23" height="179.85" width="337.8" xlink:href="#y" id="k"/><use ffdec:characterId="25" height="80.8" width="210.5" xlink:href="#z" id="m"/><path d="M27.75 0q0 2-8.15 3.4Q11.5 4.9 0 4.9q-11.5 0-19.65-1.5-8.1-1.4-8.1-3.4 0-2.05 8.1-3.5Q-11.5-4.9 0-4.9q11.5 0 19.6 1.4 8.15 1.45 8.15 3.5" fill-opacity=".349" fill-rule="evenodd" transform="translate(27.75 4.9)" id="b"/><path d="m125.7 68.1 32.55 18.8-29.05 11.5V168l-54.8-34.8-18.8 26.3-4.5-43.55-51.1 18L38.1 89.4 2.05 64.35l44.3-2.5L31.8 4.5l47.35 33.8L99.65 0l4.05 40.3 48.8-15.25-26.8 43.05M83.4 53.35q-13.05 0-22.3 9.25t-9.25 22.3q0 13.05 9.25 22.3t22.3 9.25q13.05 0 22.3-9.25t9.25-22.3q0-13.05-9.25-22.3t-22.3-9.25" fill="#ffffca" fill-rule="evenodd" id="s"/><path d="M.35 72.7q-3.3-10.05 25.2-26.55Q54 29.6 97.4 16.25 140.9 2.9 173.9.45q33-2.4 36.25 7.65t-25.2 26.55q-28.4 16.55-71.85 29.9-43.45 13.4-76.45 15.8Q3.6 82.7.35 72.7M96.9 25.05q-30.9 8.4-51.5 18.6Q24.8 53.9 26.55 60q1.7 6.15 24.8 4.55 23.1-1.55 54-9.9 30.9-8.4 51.5-18.6 20.65-10.25 18.9-16.35-1.75-6.15-24.85-4.6-23.05 1.6-54 9.95" fill="#ffffca" fill-rule="evenodd" id="z"/></defs></svg>