<svg xmlns:ffdec="https://www.free-decompiler.com/flash" xmlns:xlink="http://www.w3.org/1999/xlink" ffdec:objectType="frame" height="90" width="90" xmlns="http://www.w3.org/2000/svg"><use ffdec:characterId="14" height="92.15" transform="matrix(1.0004 0 0 1 -3.551 -1.65)" width="90.2" xlink:href="#a"/><defs><g id="a" transform="translate(3.55 1.65)"><use ffdec:characterId="1" height="8.6" transform="matrix(1.0141 0 0 1.9768 29.374 73.486)" width="48.6" xlink:href="#b"/><use ffdec:characterId="2" height="28.45" transform="translate(31.322 36.738) scale(.7015)" width="43.7" xlink:href="#c"/><use ffdec:characterId="3" height="29.4" transform="translate(35.94 54.188) scale(.7015)" width="18.7" xlink:href="#d"/><use ffdec:characterId="4" height="15.4" transform="translate(24.107 42.598) scale(.7015)" width="30.2" xlink:href="#e"/><use ffdec:characterId="5" height="54.5" transform="translate(2.222 23.628) scale(.7015)" width="50.4" xlink:href="#f"/><use ffdec:characterId="6" height="8.3" transform="translate(26.146 43.439) scale(.7015)" width="5" xlink:href="#g"/><use ffdec:characterId="7" height="28.45" transform="translate(53.322 36.938) scale(.7015)" width="43.7" xlink:href="#h"/><use ffdec:characterId="8" height="19.45" transform="translate(40.247 48.745) scale(.7015)" width="23.15" xlink:href="#i"/><use ffdec:characterId="9" height="20.45" transform="translate(38.323 42.395) scale(.7015)" width="29.3" xlink:href="#j"/><use ffdec:characterId="10" height="33.1" transform="translate(50.643 54.84) scale(.7015)" width="22.45" xlink:href="#k"/><use ffdec:characterId="11" height="70.75" transform="translate(26.316 -1.634) scale(.7015)" width="84.25" xlink:href="#l"/><use ffdec:characterId="12" height="13.1" transform="translate(36.466 56.655) scale(.7015)" width="24.95" xlink:href="#m"/><use ffdec:characterId="13" height="29.5" transform="translate(54.464 45.002) scale(.7015)" width="27.95" xlink:href="#n"/></g><g id="c"><path d="m-8.1-10.1-1.35.2q-9.8 1.7-9.8 5.25 0 1.25 2.45 2.15l.2.05-.3-.5-.35-1.3.2-.85q.65-1.2 3.55-2l1.95-.7q2.25-1 3.45-2.3m-4.35 11.75-.2.05-.55.35Q-21.55 6.4-21.55 12l.35 1.4 2.25.4-.2-1.15q0-1.9 3.95-5.55 4.2-3.9 8-4.95v-.1h-1.1l-2.1-.2-2.05-.2M20.6-2.1q-1.15-.6-3.3-.8-3.3-.4-12.1-.15l-1.3.1q.25.75 1.35 1.25l1.1.5L9-.85q8.95-.4 11.6-1.25" fill="#f3ecf3" fill-rule="evenodd" transform="translate(21.85 14.2)"/><path d="M-8.1-10.1q-1.2 1.3-3.45 2.3l-1.95.7q-2.9.8-3.55 2l-.2.85.35 1.3.3.5.75.25q2.85.8 5.65.8 3.4 0 6.9-1.1v-1.3l.05-1.6-.7.05h-.2l-.95-.15q-.35-.2-.35-.85v-.5q.15-.9.7-1.2l.45-.2 1.95-.25Q.7-8.5.7-7q0 1.6-1.3 1.6L-.2-4l.05.35q1.45-.7 2.95-1.5 6.4-3.65 9.45-8.75h-.2L-8.1-10.1m4.85 8.3q-4.55 1.15-9.2 3.45l2.05.2 2.1.2h1.1v.1q-3.8 1.05-8 4.95-3.95 3.65-3.95 5.55l.2 1.15q7.2.75 19.25-2.5l4.65-1.4 3.2-1.3q8.4-3.75 13.4-9.95l-.95-.75Q17.95-1.25 9-.85L6.35-1.2l-1.1-.5q-1.1-.5-1.35-1.25h-.1L0-2.5l.8 3.6.9-.15.7.25q.95.4 1.95 2.15l-1.1.9.3.1.55.35 1.15.6q1.15-.95 1.95-.95 1.15 0 1.15.95l-.3 1.3-.55.75-.2.2-.3.3-.75.6Q4.55 9.6 3.75 9.6q-.6 0-1-.55l-.35-.6.6-.8-.2-.15-2-1.2-.3-.45q-1.85.9-2.65.9-.5 0-1.05-.95l-.05-.05-.4-1.15v-.35q0-.6 1.3-1.6L-2.8.85-3.05-.4l-.2-1.4" fill="#968cb0" fill-rule="evenodd" transform="translate(21.85 14.2)"/><path d="m-3.3-2.5.05.7.2 1.4.25 1.25.45 1.8.45-.3.15-.1.8-.55-.8.55-.15.1-.45.3q-1.3 1-1.3 1.6v.35l1-.55.8-.35 1.7-.7Q1.7 2.05 2.4 1.2L1.7.95l-.9.15-1.6.55-.15.05-1.35-4.8q-.35-2.05-.15-3.25-.45.45-.8.45l-.9-.25L-4.4-7v-.05l.1-1.2-.45.2q-.55.3-.7 1.2v.5q0 .65.35.85l.95.15h.2l.7-.05-.05 1.6v1.3m.05-2.9v-.5.5M3 7.65l.25.05.55.2 1.1.2.4-.45-1.7-.55-1.55-.95q0-.2.9-.7l.4-.2.75-.55-.55-.35-.3-.1-.6.4-1.9 1.1-.25.1.3.45 2 1.2.2.15" fill="#4d64a5" fill-rule="evenodd" transform="translate(21.85 14.2)"/><path d="m0-2.5-.15-1.15L-.2-4l-.4-1.4Q.7-5.4.7-7q0-1.5-3.05-1.5l-1.95.25-.1 1.2V-7l.25.85.9.25.15-.4q.2-.5 1.05-.5.95 0 1.45 1.4-.5-1.4-1.45-1.4-.85 0-1.05.5l-.15.4q.35 0 .8-.45-.2 1.2.15 3.25l1.35 4.8.15-.05L.8 1.1 0-2.5m2.4 3.7Q1.7 2.05-.15 3l-1.7.7-.8.35-1 .55.4 1.15.05.05q.55.95 1.05.95.8 0 2.65-.9l.25-.1 1.9-1.1.6-.4 1.1-.9Q3.35 1.6 2.4 1.2m2.85 4.1 1.2.65.2.05L5.6 7.3l-.3.35.3-.35L6.65 6l-.2-.05-1.2-.65-1.15-.6-.75.55-.4.2q-.9.5-.9.7l1.55.95 1.7.55-.4.45-1.1-.2-.55-.2L3 7.65l-.6.8.35.6q.4.55 1 .55.8 0 2.5-1.15l.75-.6.3-.3.2-.2.55-.75.3-1.3q0-.95-1.15-.95-.8 0-1.95.95" fill="#4c335a" fill-rule="evenodd" transform="translate(21.85 14.2)"/><path d="m5.25 11.75-.2-.05Q2.6 10.8 2.6 9.55 2.6 6 12.4 4.3l1.35-.2L33.9.3h.2q-3.05 5.1-9.45 8.75-1.5.8-2.95 1.5m-16.45 1.2L6 12q2.85.8 5.65.8 3.4 0 6.9-1.1m.05.7q-4.55 1.15-9.2 3.45l-.2.05-.55.35Q.3 20.6.3 26.2l.35 1.4 2.25.4q7.2.75 19.25-2.5l4.65-1.4 3.2-1.3q8.4-3.75 13.4-9.95l-.95-.75q-1.15-.6-3.3-.8-3.3-.4-12.1-.15l-1.3.1m-.1 0-3.8.45" fill="none" stroke="#456bbe" stroke-linecap="square" stroke-linejoin="miter-clip" stroke-miterlimit="3" stroke-width=".5"/><path d="m18.55 11.7.05.7.2 1.4.25 1.25.45 1.8.45-.3.15-.1.8-.55.15-.05 1.6-.55.9-.15.7.25q.95.4 1.95 2.15l-1.1.9-.6.4-1.9 1.1-.25.1.3.45 2 1.2.2.15.25.05.55.2 1.1.2.4-.45.3-.35 1.05-1.3-.2-.05-1.2-.65q1.15-.95 1.95-.95 1.15 0 1.15.95l-.3 1.3-.55.75m-7.5-9.85-.15-1.15-.05-.35-.4-1.4q-.5-1.4-1.45-1.4-.85 0-1.05.5l-.15.4v.5l-.7.05h-.2l-.95-.15q-.35-.2-.35-.85v-.5q.15-.9.7-1.2l.45-.2 1.95-.25q3.05 0 3.05 1.5 0 1.6-1.3 1.6m-2.65 0-.05 1.6v1.3m-.35 7.1v-.35q0-.6 1.3-1.6m2.85 3.2q-1.85.9-2.65.9-.5 0-1.05-.95l-.05-.05-.4-1.15m10.95 2.95-.3.3-.75.6q-1.7 1.15-2.5 1.15-.6 0-1-.55l-.35-.6.6-.8m1.1-2.95 1.15.6m-1.15-.6-.55-.35-.3-.1m-2.45-3.15-.8-3.6" fill="none" stroke="#2a266e" stroke-linecap="square" stroke-linejoin="miter-clip" stroke-miterlimit="3" stroke-width=".5"/></g><g id="d" fill-rule="evenodd"><path d="M6.7-13.4q.85 2.35.85 4.35 0 5.05-3.3 6.6.65 1.05 2.6 3.4Q8.5 3.15 8.5 4.9q0 1.1-.55 2.3Q7.8 6 6.85 4.15 5.1.7 1.2-1.4l.3-.95q0-1.6-1.2-3.6-.85-1.6-1.2-1.8l5.05-6.7 1.9.5.65.55" fill="#070c2c" transform="translate(9.35 14.7)"/><path d="M6.7-13.4q1.85 1.6 1.85 5.25 0 3.9-3.15 6.3 2.15 1.5 3 2.9.95 1.45.95 3.8 0 2.3-2.25 5.35L4 13.05Q1.9 14.7 1.15 14.7q-.9 0-1.25-1.3L-.35 10l.05-2.9v-.15q-.75-.4-2.65-1.25l-3.2-1.95q-1.3-1-2.3-3.05-.75-1.5-.9-2.75.85-.95 3.85-1.5l.3-.05 3.7-5.15L3-14.7l1.15.25-5.05 6.7-1.95 2.65-3.2 4.15-.2-.05.2-.6.25-.65-2.65.2h-.35Q-8.05.7-4.15 3.7q2.3 1.75 4.05 2.35l2.1.3-1.6.25.05 4.35q.1 2.65 1.3 2.65.55 0 2.45-1.75l.6-.55.9-.9.75-.8L7.6 7.9l.35-.7Q8.5 6 8.5 4.9q0-1.75-1.65-3.95-1.95-2.35-2.6-3.4 3.3-1.55 3.3-6.6 0-2-.85-4.35" fill="#0d1057" transform="translate(9.35 14.7)"/><path d="M.3-5.95q1.2 2 1.2 3.6l-.3.95q-.2.2-.55.3l-1.75.25L-3.3-1l-2 .15h-.15L.3-5.95" fill="#4c335a" transform="translate(9.35 14.7)"/><path d="m-6.05-.95 3.2-4.15L-.9-7.75q.35.2 1.2 1.8l-5.75 5.1h-.3l-.3-.1" fill="#96709d" transform="translate(9.35 14.7)"/><path d="m4.8 11.3-.6.55Q2.3 13.6 1.75 13.6q-1.2 0-1.3-2.65L.4 6.6 2 6.35l-2.1-.3q-1.75-.6-4.05-2.35-3.9-3-4.65-5.75h.35l2.65-.2-.25.65h-1.5q0 .05-.1.05.95 2.3 6.15 4.9 4.8 2.5 4.8 3l-.6 2Q2.1 10 2.1 11.1l.2.65.45.1 2.05-.55" fill="#745196" transform="translate(9.35 14.7)"/><path d="m7.95 7.2-.35.7-1.15 1.7-.75.8-.9.9-2.05.55-.45-.1-.2-.65q0-1.1.6-2.75l.6-2q0-.5-4.8-3-5.2-2.6-6.15-4.9.1 0 .1-.05h1.5l-.2.6-.1.2h.1l.2-.15.3.1h.45l2-.15 2.2.15L.65-1.1q.35-.1.55-.3Q5.1.7 6.85 4.15 7.8 6 7.95 7.2" fill="#121654" transform="translate(9.35 14.7)"/></g><g id="e" fill-rule="evenodd"><path d="m-.2-.9 2.3.2 1.95.2.1-.1.65-2.3q.4-1.55 1.5-2.8l.2-.1.35-.35Q8.4-7.7 10.8-7.7q1.85 0 2.85.75Q15.1-5.9 15.1-3q0 4.1-2.45 6.5Q10.6 5.45 8.1 5.45q-.7 0-1.6-.4l-.8-.45-5.45.45h-1.4V5l.45-.8 4.35.05L5.4 4.1q-.8-1.6-1.15-3l-.2-.95h-4.2V.1l-.05-1m6.9 5.1q.95.85 2 .85 1.9 0 3.75-3.25Q14-1.05 14-2.95q0-3.15-2.65-3.15-3.6 0-5.25 2.35l-.25.45-.1.05-.4.75q-.45.9-.45 2.2 0 2.3 1.35 3.95l.45.55" fill="#0a0c43" transform="translate(15.1 7.7)"/><path d="M4.25 1.1q.35 1.4 1.15 3l-1.75.15L-.7 4.2q.4-1.1.55-2.95l4.4-.15M6.1-3.75Q7.75-6.1 11.35-6.1 14-6.1 14-2.95q0 1.9-1.55 4.75Q10.6 5.05 8.7 5.05q-1.05 0-2-.85-.8-2.85-.8-5.5l.2-2.45" fill="#121654" transform="translate(15.1 7.7)"/><path d="M-.15.15h4.2l.2.95-4.4.15V.15m6.25-3.9L5.9-1.3q0 2.65.8 5.5l-.45-.55Q4.9 2 4.9-.3q0-1.3.45-2.2l.4-.75.1-.05.25-.45" fill="#745196" transform="translate(15.1 7.7)"/><path d="m-3.9 6-.2.3-.75.45-1.5.55-2.5.4q-2.6 0-4.4-2.3Q-15.1 3.1-15.1.1q0-3.45 2.05-5.15 1.6-1.35 4.15-1.35 1.55 0 3.25 1.75l.8.95.35.45Q-2.75-.7-2.75 1.8q0 1.5-.8 3.45L-3.9 6m.4-6.25-.1-.4-.15-.35q-.5-1.3-1.3-2.25l-.05-.05-.35-.35-2-.85q-1.8-.7-3.05-.85h-.6q-1.4.1-2.25 1.35-.95 1.45-.95 4.05 0 2.3 1.25 4l.1.2.1.05.6.75.15.15q1.7 1.65 3.95 1.65 2.2 0 3.65-1.8l.05-.05Q-3.3 3.35-3.3 1.45l-.2-1.7" fill="#28226a" transform="translate(15.1 7.7)"/><path d="M-11.1-5.35h.6q1.25.15 3.05.85l2 .85.35.35.05.05q.8.95 1.3 2.25l.15.35.1.4q-.25 1.6-1.15 3.2Q-6.35 6-9.25 6q-.75 0-2.3-.6l-.55-.2-.15-.15-.6-.75-.1-.05h.5l.05-.05-.45-1.9-.3-2.6q0-2.05.75-3.55l1.3-1.5" fill="#4c335a" transform="translate(15.1 7.7)"/><path d="m-12.95 4.25-.1-.2q-1.25-1.7-1.25-4 0-2.6.95-4.05.85-1.25 2.25-1.35l-1.3 1.5q-.75 1.5-.75 3.55l.3 2.6.45 1.9-.05.05h-.5" fill="#96709d" transform="translate(15.1 7.7)"/><path d="m-.2-.9.05 1v1.15Q-.3 3.1-.7 4.2l-.45.8v.05Q-2 6-3.8 6h-.1l.35-.75.7.15q.6 0 1.05-.45l.3-.45q.6-1.05.6-3.65V.7q0-2.65-1.3-3.4l-2.3-.55-.35-.45-.8-.95 3.75.8Q-.5-3.1-.2-.9" fill="#87260f" transform="translate(15.1 7.7)"/><path d="m-4.5-3.25 2.3.55Q-.9-1.95-.9.7v.15h-.4l-.95-.2.15.8q0 .55-.7 3.3h.9l.4-.25-.3.45q-.45.45-1.05.45l-.7-.15q.8-1.95.8-3.45 0-2.5-1.75-5.05" fill="#f9342f" transform="translate(15.1 7.7)"/><path d="M-.9.85q0 2.6-.6 3.65l-.4.25h-.9q.7-2.75.7-3.3l-.15-.8.95.2h.4" fill="#640102" transform="translate(15.1 7.7)"/><path d="m-3.5-.25.2 1.7q0 1.9-1.15 3.55l-.05.05q-1.45 1.8-3.65 1.8-2.25 0-3.95-1.65l.55.2q1.55.6 2.3.6 2.9 0 4.6-3.05.9-1.6 1.15-3.2" fill="#4d64a5" transform="translate(15.1 7.7)"/></g><g id="f"><path d="m6.95-10.9 1.6 1.2-1.45 5 2.65 5q6.85 12.8 10.9 19.05l2.2.9q2.05.75 2.05 1 0 1.55-2.05 3.35l-.25.2.15-1.05q0-1.55-.35-1.75-1-.45-2.1-2.3l-3.95-5.5L8.4 1.75 5.15-3.1l.8-4.2h-.1l-3.1 1.7.45-1.75q1.3-.5 2.4-1.6.9-.85 1.35-1.95" fill="#1b1f5a" fill-rule="evenodd" transform="translate(25.2 27.4)"/><path d="m2.75-5.6 3.1-1.7h.1l-.8 4.2L8.4 1.75l7.95 12.45 3.95 5.5q1.1 1.85 2.1 2.3.35.2.35 1.75l-.15 1.05q-1.9 1.5-4.15 1.95h-.75l.4-1.1q1.15-.4 1.85-1.15.75-.8.6-1.7 0-.75-1.4-2.75l-2.25-3.2-2.55-3.95-2.45-3.95-4.4-6.2L6.15.65 4.1-3.15 3-3.7q-.6-.25-.65-.95l.05-.2.35-.75" fill="#3c3f89" fill-rule="evenodd" transform="translate(25.2 27.4)"/><path d="m-4.25-25.1.35.35.25 1.8.05.35.7 3.35.2.85.1.15-.65.5-.6.75-1.9-9.75 1.5 1.65m-.8 11.6-4.65 3-5.05 3.75q-4.8 4.4-6.3 10l-.45.6-.7 1q-1.35 2.25-2.25 5.3l-.45.85q1.05-8.6 6.75-15.6 3.3-4 7.9-7.25L-8-13.4l3.25-1.9-.3 1.8" fill="#fffffe" fill-rule="evenodd" transform="translate(25.2 27.4)"/><path d="M-3.9-24.75.75-19.6l-1.8.4-2.55-3.4-.05-.35-.25-1.8m-17.15 28q1.55-2 4-3.95 2.45-2.05 5-3l4.1-1.15 1.3-.35h.3l1.2 1.5-2.45.2q-5.3.7-9.3 4.3-2.85 2.5-5.85 6.7l-1.7 2.65q.9-3.05 2.25-5.3l.7-1 .45-.6M-4.3-3.7l-.75-1.1-1.05-1.4L-4-9.8l.75.85.1.1-.45 1.3v.05l-.05.55-.15 1.5.35 1.8-.85-.05" fill="#536198" fill-rule="evenodd" transform="translate(25.2 27.4)"/><path d="M6.95-10.9Q6.5-9.8 5.6-8.95q-1.1 1.1-2.4 1.6l-2 .25-1.45-.15q2.5-.1 4.35-1.4 2.4-1.65 2.4-4.45 0-2.7-2-4.15-1.6-1.15-5.4-1.8h-.5l.15-.1.2-.05 1.8-.4h.45q2.55 0 4.4 1.85 1.85 1.8 1.85 4.4 0 1.3-.5 2.45" fill="#675972" fill-rule="evenodd" transform="translate(25.2 27.4)"/><path d="m-2.6-18.25.85-.6.35-.2h.5q3.8.65 5.4 1.8 2 1.45 2 4.15 0 2.8-2.4 4.45-1.85 1.3-4.35 1.4l-1-.3q-1.05-.5-1.9-1.3l-.1-.1L-4-9.8l-.2-.35-.05-.15-.35-.55v-.1l-.2-.55-.2-.7v-.45l-.05-.65v-.2l.3-1.8.9-1.7.6-.75.65-.5m-.55 4.9v.05l.2 1.15.1.55.95 1.4.65.5q1.05.75 2.5.75Q3-8.95 4.3-10.2q1.3-1.3 1.3-3.15 0-1.75-1.3-3.05-1.3-1.3-3.05-1.3-1.45 0-2.5.8l-.65.5q-.8.8-1.05 1.9l-.15.45-.05.7" fill="#7d6f91" fill-rule="evenodd" transform="translate(25.2 27.4)"/><path d="m-3.6-22.6 2.55 3.4-.2.05-.15.1-.35.2-.85.6-.1-.15-.2-.85-.7-3.35" fill="#e4cdd0" fill-rule="evenodd" transform="translate(25.2 27.4)"/><path d="M-5.05-13.5v.2l.05.65q-2.3 1-4.55 2.55l-2.4 1.8q-4.2 3.4-6.3 7 1.5-1.4 4.15-2.65 3-1.45 4.7-1.6l1.2-.3 1.55-1.4 2.45-2.9.2.35-2.1 3.6 1.05 1.4.75 1.1h-.85l-1.2-1.5h-.3l-1.3.35-4.1 1.15q-2.55.95-5 3-2.45 1.95-4 3.95 1.5-5.6 6.3-10l5.05-3.75 4.65-3" fill="#e7def1" fill-rule="evenodd" transform="translate(25.2 27.4)"/><path d="m-3.15-13.35.05-.7.15-.45q.25-1.1 1.05-1.9l.65-.5q1.05-.8 2.5-.8 1.75 0 3.05 1.3 1.3 1.3 1.3 3.05 0 1.85-1.3 3.15Q3-8.95 1.25-8.95q-1.45 0-2.5-.75l-.65-.5-.95-1.4-.1-.55-.2-1.15v-.05m1.55-.75-.05.6v.15q0 .7.4 1.3l.35.4q.8.8 1.9.8 1.05 0 1.8-.8l.3-.2.1-.2.45-1.45q0-1.05-.85-1.9-.75-.75-1.8-.75-1.1 0-1.9.75l-.35.5-.35.8" fill="#f1903f" fill-rule="evenodd" transform="translate(25.2 27.4)"/><path d="m3.2-12.05-.1.2-.3.2q-.75.8-1.8.8-1.1 0-1.9-.8l-.35-.4q-.4-.6-.4-1.3v-.15l.05-.6.35-.35.05-.05 1.1-.8q-.35.3-.35.95 0 .6.4 1Q.3-13 .7-13q.6 0 1.05-.4.4-.45.4-.9v-.05L2.8-13l.4.95" fill="#fede61" fill-rule="evenodd" transform="translate(25.2 27.4)"/><path d="m-1.6-14.1.35-.8.35-.5q.8-.75 1.9-.75 1.05 0 1.8.75.85.85.85 1.9l-.45 1.45-.4-.95-.65-1.35-.15-.2.15.25q0 .45-.4.9-.45.4-1.05.4-.4 0-.75-.35-.4-.4-.4-1 0-.65.35-.95l-1.1.8-.05.05-.35.35" fill="#feeedf" fill-rule="evenodd" transform="translate(25.2 27.4)"/><path d="m-5-12.2.2.7.2.55v.1l-1.75 1.9Q-8-7.1-8.55-7.1q-1.7-.05-6.3 2.45 1-.8 4.25-3.8l1.3-1.05q2.4-1.8 4.3-2.7m-6 4.65 2-1.05q1.75-1.1 2.1-1.85l-2.25 1.5-1.9 1.3v.1h.05" fill="#f8342f" fill-rule="evenodd" transform="translate(25.2 27.4)"/><path d="m-4.2-10.15-2.45 2.9-1.55 1.4-1.2.3q-1.7.15-4.7 1.6-2.65 1.25-4.15 2.65 2.1-3.6 6.3-7l2.4-1.8Q-7.3-11.65-5-12.65v.45q-1.9.9-4.3 2.7l-1.3 1.05q-3.25 3-4.25 3.8 4.6-2.5 6.3-2.45.55 0 2.2-1.85l1.75-1.9.35.55.05.15m-10.65 5.5-.3.15h.1l.2-.15" fill="#87260f" fill-rule="evenodd" transform="translate(25.2 27.4)"/><path d="m18.1 25.65 1.25-3.25L10.1 7.5 7.25 3.1Q3.75-2.05 3.1-2.05q-.35 0-.65.45L1.25-3l1.1-1.65q.05.7.65.95l1.1.55L6.15.65l1.35 2.1 4.4 6.2 2.45 3.95 2.55 3.95 2.25 3.2q1.4 2 1.4 2.75.15.9-.6 1.7-.7.75-1.85 1.15" fill="#6d66b4" fill-rule="evenodd" transform="translate(25.2 27.4)"/><path d="m-11.05-7.65 1.9-1.3 2.25-1.5Q-7.25-9.7-9-8.6l-2 1.05-.05-.1" fill="#fff" fill-rule="evenodd" transform="translate(25.2 27.4)"/><path d="m47.8 52.2.25-.2q2.05-1.8 2.05-3.35 0-.25-2.05-1l-2.2-.9Q41.8 40.5 34.95 27.7l-2.65-5 1.45-5-1.6-1.2q-.45 1.1-1.35 1.95-1.1 1.1-2.4 1.6l-.45 1.75-.35.75-.05.2-1.1 1.65 1.2 1.4q.3-.45.65-.45.65 0 4.15 5.15l2.85 4.4 9.25 14.9-1.25 3.25-.4 1.1h.75q2.25-.45 4.15-1.95M21.3 2.65l4.65 5.15h.45q2.55 0 4.4 1.85 1.85 1.8 1.85 4.4 0 1.3-.5 2.45m-10.8-6.1L19.45.65l1.5 1.65m3.2 5.9 1.8-.4M22.6 9.15l.85-.6m.35-.2.15-.1.2-.05m.8 11.95 1.45.15 2-.25m-7.95-7.95.9-1.7.6-.75.65-.5m-.55 4.9.05-.7.15-.45q.25-1.1 1.05-1.9l.65-.5q1.05-.8 2.5-.8 1.75 0 3.05 1.3 1.3 1.3 1.3 3.05 0 1.85-1.3 3.15-1.3 1.25-3.05 1.25-1.45 0-2.5-.75l-.65-.5-.95-1.4-.1-.55-.2-1.15v-.05m-1.85.7-.05-.65v-.2l.3-1.8L17.2 14l-2.25 1.55q-4.6 3.25-7.9 7.25-5.7 7-6.75 15.6l.45-.85 1.7-2.65q3-4.2 5.85-6.7 4-3.6 9.3-4.3l2.45-.2h.85l.85.05-.35-1.8.15-1.5.05-.55m-.4-2.3-.2-.35-.05-.15-.35-.55v-.1l-.2-.55-.2-.7v-.45m1.85 3.8-.1-.1-.75-.85m.4 2.25.45-1.3q.85.8 1.9 1.3l1 .3" fill="none" stroke="#2b499a" stroke-linecap="square" stroke-linejoin="miter-clip" stroke-miterlimit="3" stroke-width=".5"/></g><g id="g" fill-rule="evenodd"><path d="m-1.4-.35.95-1.95q1-1.5 2.05-1.65h.2l.4.85.2 1.15v.4l-1.1-.3q-.75 0-1.7.65l-1 .85" fill="#95709d" transform="translate(2.5 4.15)"/><path d="m2.35-1-.15-.35h-.05Q1.6 1.05 1.1 1.9.5 3.15-.6 3.15q-1.05 0-1.05-1.5l.1-1.45.15-.55 1-.85q.95-.65 1.7-.65l1.1.3-.05.55" fill="#4c335a" transform="translate(2.5 4.15)"/><path d="m2.35-1 .15 1q-.1 1.65-1.05 2.85-1.1 1.3-2.55 1.3-.85 0-1.1-.35l-.3-1q0-2.4.85-4.5Q-.7-4.15.7-4.15l.9.2Q.55-3.8-.45-2.3L-1.4-.35l-.15.55-.1 1.45q0 1.5 1.05 1.5 1.1 0 1.7-1.25.5-.85 1.05-3.25h.05l.15.35" fill="#18195a" transform="translate(2.5 4.15)"/></g><g id="h"><path d="m8.1-10.1 1.35.2q9.8 1.7 9.8 5.25 0 1.25-2.45 2.15l-.2.05.3-.5.35-1.3-.2-.85q-.65-1.2-3.55-2l-1.95-.7q-2.25-1-3.45-2.3m4.35 11.75.2.05.55.35Q21.55 6.4 21.55 12l-.35 1.4-2.25.4.2-1.15q0-1.9-3.95-5.55-4.2-3.9-8-4.95v-.1h1.1l2.1-.2 2.05-.2M-20.6-2.1q1.15-.6 3.3-.8 3.3-.4 12.1-.15l1.3.1q-.25.75-1.35 1.25l-1.1.5L-9-.85q-8.95-.4-11.6-1.25" fill="#f3ecf3" fill-rule="evenodd" transform="translate(21.85 14.2)"/><path d="M8.1-10.1q1.2 1.3 3.45 2.3l1.95.7q2.9.8 3.55 2l.2.85-.35 1.3-.3.5-.75.25q-2.85.8-5.65.8-3.4 0-6.9-1.1v-1.3l-.05-1.6.7.05h.2l.95-.15q.35-.2.35-.85v-.5q-.15-.9-.7-1.2l-.45-.2-1.95-.25Q-.7-8.5-.7-7q0 1.6 1.3 1.6L.2-4l-.05.35q-1.45-.7-2.95-1.5-6.4-3.65-9.45-8.75h.2L8.1-10.1M3.25-1.8q4.55 1.15 9.2 3.45l-2.05.2-2.1.2H7.2v.1q3.8 1.05 8 4.95 3.95 3.65 3.95 5.55l-.2 1.15q-7.2.75-19.25-2.5l-4.65-1.4-3.2-1.3q-8.4-3.75-13.4-9.95l.95-.75q2.65.85 11.6 1.25l2.65-.35 1.1-.5q1.1-.5 1.35-1.25h.1L0-2.5l-.8 3.6-.9-.15-.7.25q-.95.4-1.95 2.15l1.1.9-.3.1-.55.35-1.15.6q-1.15-.95-1.95-.95-1.15 0-1.15.95l.3 1.3.55.75.2.2.3.3.75.6q1.7 1.15 2.5 1.15.6 0 1-.55l.35-.6-.6-.8.2-.15 2-1.2.3-.45q1.85.9 2.65.9.5 0 1.05-.95l.05-.05.4-1.15v-.35q0-.6-1.3-1.6L2.8.85 3.05-.4l.2-1.4" fill="#968cb0" fill-rule="evenodd" transform="translate(21.85 14.2)"/><path d="m3.3-2.5-.05.7-.2 1.4L2.8.85l-.45 1.8-.45-.3-.15-.1-.8-.55.8.55.15.1.45.3q1.3 1 1.3 1.6v.35l-1-.55-.8-.35L.15 3Q-1.7 2.05-2.4 1.2l.7-.25.9.15 1.6.55.15.05L2.3-3.1q.35-2.05.15-3.25.45.45.8.45l.9-.25L4.4-7v-.05l-.1-1.2.45.2q.55.3.7 1.2v.5q0 .65-.35.85l-.95.15h-.2l-.7-.05v-.5.5l.05 1.6v1.3M-3 7.65l-.25.05-.55.2-1.1.2-.4-.45 1.7-.55 1.55-.95q0-.2-.9-.7l-.4-.2-.75-.55.55-.35.3-.1.6.4 1.9 1.1.25.1-.3.45-2 1.2-.2.15" fill="#4d64a5" fill-rule="evenodd" transform="translate(21.85 14.2)"/><path d="m0-2.5.15-1.15L.2-4l.4-1.4Q-.7-5.4-.7-7q0-1.5 3.05-1.5l1.95.25.1 1.2V-7l-.25.85-.9.25-.15-.4q-.2-.5-1.05-.5Q1.1-6.8.6-5.4q.5-1.4 1.45-1.4.85 0 1.05.5l.15.4q-.35 0-.8-.45.2 1.2-.15 3.25L.95 1.7.8 1.65-.8 1.1 0-2.5m-2.4 3.7q.7.85 2.55 1.8l1.7.7.8.35 1 .55-.4 1.15-.05.05q-.55.95-1.05.95-.8 0-2.65-.9l-.25-.1-1.9-1.1-.6-.4-1.1-.9q1-1.75 1.95-2.15m-2.85 4.1-1.2.65-.2.05 1.05 1.3.3.35-.3-.35L-6.65 6l.2-.05 1.2-.65 1.15-.6.75.55.4.2q.9.5.9.7l-1.55.95-1.7.55.4.45 1.1-.2.55-.2.25-.05.6.8-.35.6q-.4.55-1 .55-.8 0-2.5-1.15l-.75-.6-.3-.3-.2-.2-.55-.75-.3-1.3q0-.95 1.15-.95.8 0 1.95.95" fill="#4c335a" fill-rule="evenodd" transform="translate(21.85 14.2)"/><path d="m38.45 11.75.2-.05q2.45-.9 2.45-2.15 0-3.55-9.8-5.25l-1.35-.2L9.8.3h-.2q3.05 5.1 9.45 8.75 1.5.8 2.95 1.5m16.45 1.2-.75.25q-2.85.8-5.65.8-3.4 0-6.9-1.1m-.05.7q4.55 1.15 9.2 3.45l.2.05.55.35q8.35 4.35 8.35 9.95l-.35 1.4-2.25.4q-7.2.75-19.25-2.5l-4.65-1.4-3.2-1.3Q5.3 19.05.3 12.85l.95-.75q1.15-.6 3.3-.8 3.3-.4 12.1-.15l1.3.1m.1 0 3.8.45" fill="none" stroke="#456bbe" stroke-linecap="square" stroke-linejoin="miter-clip" stroke-miterlimit="3" stroke-width=".5"/><path d="m25.15 11.7-.05.7-.2 1.4-.25 1.25-.45 1.8-.45-.3-.15-.1-.8-.55-.15-.05-1.6-.55-.9-.15-.7.25q-.95.4-1.95 2.15l1.1.9.6.4 1.9 1.1.25.1q1.85.9 2.65.9.5 0 1.05-.95l.05-.05.4-1.15v-.35q0-.6-1.3-1.6m-2.35-5.15.15-1.15.05-.35.4-1.4q-1.3 0-1.3-1.6 0-1.5 3.05-1.5l1.95.25.45.2q.55.3.7 1.2v.5q0 .65-.35.85l-.95.15h-.2l-.7-.05.05 1.6v1.3m-.05-3.4v.5m-2.65 0q.5-1.4 1.45-1.4.85 0 1.05.5l.15.4m-8.55 13.55-.3-.35-1.05-1.3.2-.05 1.2-.65q-1.15-.95-1.95-.95-1.15 0-1.15.95l.3 1.3.55.75m.2.2.3.3.75.6q1.7 1.15 2.5 1.15.6 0 1-.55l.35-.6-.6-.8-.25.05-.55.2-1.1.2-.4-.45m1.2-2.95-1.15.6m4.75.55-.3.45-2 1.2-.2.15m-1.1-2.95.55-.35.3-.1m2.45-3.15.8-3.6" fill="none" stroke="#2a266e" stroke-linecap="square" stroke-linejoin="miter-clip" stroke-miterlimit="3" stroke-width=".5"/></g><g id="i" fill-rule="evenodd"><path d="M-7 1.6h.25q1.9 0 3.2.75 1.05.6 2.05 2.05Q.75 2.85 2.9 2.2l2.55-.45L5.9 0l-.45-.45-3.3.55-4.85.1-2.8-.1-2.45-1.05-.15-.45-.8-2.15L-10-6.4l-.15-.35L-9-8.45q1.25-1.3 2.9-.95L3-9.7l3.8.5 2.6.4q-1.5 5.5-2.15 11l.1.3-.15.4v.6l-.15.7-.95.9-2.9 2.3 1.3.2.95.2h.05l.7.25q-.55.45-1.5.9-1.5.8-2.6.8-4.55 0-7.8-3.5-2.1-2.35-2.6-4.3h.05q.5-.25 1.25-.35" fill="#070c2c" transform="translate(11.55 9.7)"/><path d="M-7.95-.95-5.5.1l2.8.1L2.15.1l3.3-.55.45.45-.45 1.75-2.55.45q-2.15.65-4.4 2.2-1-1.45-2.05-2.05-1.3-.75-3.2-.75H-7l-.95-2.55" fill="#121654" transform="translate(11.55 9.7)"/><path d="M-7 1.6q-.75.1-1.25.35l-.1-.25-.2-.5-1.85-3.15q-1.15-1.8-1.15-3.1 0-.9.4-1.5.35-.6.8-.6l.2.4.15.35 1.1 2.85.8 2.15.15.45L-7 1.6M6.2 8.05l-.7-.25L7 6.45Q8.15 4.8 8.55 2q.4-3.2 1.25-6.35.75-2.8 1.55-4.45h.25Q10.8-6.35 9.2.65l-1.5 5.3-1.05 2-.15.2-.3-.1" fill="#0d0c5a" transform="translate(11.55 9.7)"/><path d="M5.5 7.8h-.05l-.95-.2-1.3-.2 2.9-2.3.95-.9.15-.7v-.6l.15-.4-.1-.3q.65-5.5 2.15-11l.75.1 1.2-.1q-.8 1.65-1.55 4.45Q8.95-1.2 8.55 2 8.15 4.8 7 6.45L5.5 7.8" fill="#745196" transform="translate(11.55 9.7)"/></g><g id="j"><path d="m9.1-7.6 1.15 1.65-1.5 1.4q-1.1 1.1-1.3 1.9l-.1.5.1.65L6.3.15l-.85 1.5q-.25 0-.35.15l-2.55 1-2.85.75-2.5.45-2.7.35h-.15l-3.4-1.1-.6-.3q-2.2-1.25-2.2-3.3 0-1.4 1.5-3.05l1.15-1.2q-.95 1.9-.95 3.1 0 2.05 2.1 2.05 1.6 0 10.3-4.4L9.1-7.6m4.4 3.45.85 2.35Q13.4 1.45 9.7 3.7 7.85 4.75 3.75 6.65L6.1 4.9 8 3.05q1.9-2.3 2-4.4l3.5-2.8" fill="#f3ecf3" fill-rule="evenodd" transform="translate(14.65 10.2)"/><path d="M5.45 1.65 6.3.15 7.45-1.5l-.1-.65.1-.5q.2-.8 1.3-1.9l1.5-1.4L9.1-7.6l1.3-.8 1.2 1.05q1.05 1.15 1.9 3.2L10-1.35q-.1 2.1-2 4.4L6.1 4.9 3.75 6.65 2.5 7.2l-2.1.95-3.2.45q-1.85 0-4.85-1.2-3.1-1.25-4.8-2.85l.6.2.95-.1h.75l4.5-.3h.15q2.45 2 4.65 2 2.55 0 4.3-2l1.45-2.1.55-.6 3.5-2.3L10-1.5l-1.05.85-3.5 2.3m4.6-3.2L10-1.5l.05-.05" fill="#968cb0" fill-rule="evenodd" transform="translate(14.65 10.2)"/><path d="M9.1-7.6 2.25-3.85Q-6.45.55-8.05.55q-2.1 0-2.1-2.05 0-1.2.95-3.1l.3-.6 1-1.8 5.5-1.55L4.4-9.9l3.7.45 1 1.85" fill="#121654" fill-rule="evenodd" transform="translate(14.65 10.2)"/><path d="m-9.2-4.6-1.15 1.2q-1.5 1.65-1.5 3.05 0 2.05 2.2 3.3l.6.3 3.4 1.1-4.5.3-.45-.1-.3.1-.95.1-.6-.2q1.7 1.6 4.8 2.85 3 1.2 4.85 1.2l3.2-.45q-4.3 1.8-5.5 1.8-2.75 0-6-2.45t-3.25-4.55q0-1.45 1.5-3.9l3.95-5.5 1-.55-1 1.8-.3.6" fill="#fcfdfd" fill-rule="evenodd" transform="translate(14.65 10.2)"/><path d="M-5.5 4.35-2.8 4l.75.85 1.45.45q1.2 0 2.15-.85l1-1.65 2.55-1-.2.45-1.45 2.1q-1.75 2-4.3 2-2.2 0-4.65-2" fill="#f9342f" fill-rule="evenodd" transform="translate(14.65 10.2)"/><path d="m-2.8 4 2.5-.45 2.85-.75-1 1.65Q.6 5.3-.6 5.3l-1.45-.45L-2.8 4" fill="#b80a06" fill-rule="evenodd" transform="translate(14.65 10.2)"/><path d="M23.75 2.6 16.9 6.35q-8.7 4.4-10.3 4.4-2.1 0-2.1-2.05 0-1.2.95-3.1l.3-.6 1-1.8 5.5-1.55L19.05.3l3.7.45q1.25.35 2.3 1.05l1.2 1.05q1.05 1.15 1.9 3.2L29 8.4q-.95 3.25-4.65 5.5-1.85 1.05-5.95 2.95l-1.25.55-2.1.95q-4.3 1.8-5.5 1.8-2.75 0-6-2.45T.3 13.15q0-1.45 1.5-3.9l3.95-5.5 1-.55M9 14.55h.15l2.7-.35 2.5-.45L17.2 13l2.55-1q.1-.15.35-.15l3.5-2.3 1.05-.85.05-.05m-.95-6.05 1.3-.8m-5.5 10.65.2-.45m-10.6 2.55q2.45 2 4.65 2 2.55 0 4.3-2l1.45-2.1m-10.4 2.1h-.1m-5.3.3h.75l4.5-.3" fill="none" stroke="#456bbe" stroke-linecap="square" stroke-linejoin="miter-clip" stroke-miterlimit="3" stroke-width=".5"/></g><g id="k" fill-rule="evenodd"><path d="M-8.35-11.25h-.05l.45-1.55-.3-.4.05-.75q.25 0 .55.35l.05.1q.2.5.75.5t1.05-1.75q.4-1.8 1.6-1.8 2.25 0 6.15 4.95.6.75 1.35 3.55l.75 3.15-.35 1.05-.2.5-.15.15H2.8L1-3.5l-.95-.25-2.9-1.15q-4.45-2.05-5.3-5.3l-.2-1.05m1.25-1.3-.85-.25v.9q.35 2.45 3.4 4.95 2.65 2.1 4.5 2.8l1.7.3q.85 0 1.05-.4l.1-1.15q0-2.7-2.1-6.05-2.35-3.8-5.25-3.8-.6 0-1.05 1.35-.4 1.35-1.5 1.35" fill="#456bbe" transform="translate(11.2 16.55)"/><path d="m-8.35-11.25.2 1.05q-1.25 1-1.7 2.3l-.1.25-.2 1.35q0 1.6 1.6 3.4L-6-.55l-.15-.85v-.05q0-2.15 1.85-2.6l.85-.05q.7 0 1.85.55l1.65.75v-.95L1-3.5l1.05 1.05Q3.15-1.6 3.9-.3q1.15 2.1 1.3 3 .05.55.35.6.75.3 1.15.55 4.25 2.95 4.25 10.7l.3 1-.15.75h-.2l-.2.05-.4.1-1.25.1q-.75 0-3.05-.75-2.5-.8-3.95-1.6-1.5-.9-1.9-2.25Q-.2 10.1-.8 8.5l-.4-.25Q-2.7 7.2-4.4 5.1-6.55 2.35-6.3.6l-2.65-2.65q-2.25-2.4-2.25-4.45 0-1.35 2.4-4.2l.4-.45.05-.1m4.1 7.95-.7.85q-.55 1-.55 2.5l.1.35.4 1.7q1 3.25 3.8 5 1.15.7 1.5 1.85l.9 2.5q1.4 2.55 4.55 3.6 1.6.65 4.55.95v-.8q-.2-3-1.5-6.2-1.65-3.8-3.65-4.95V5.4q-.65-2.65-3-5.4-3-3.5-5.85-3.5l-.55.2" fill="#0d1057" transform="translate(11.2 16.55)"/><path d="M-7.1-12.55q1.1 0 1.5-1.35.45-1.35 1.05-1.35 2.9 0 5.25 3.8Q2.8-8.1 2.8-5.4l-.1 1.15q-.2.4-1.05.4l-1.7-.3q-1.85-.7-4.5-2.8-3.05-2.5-3.4-4.95v-.9l.85.25M.5-9.9q-1.4-2.1-1.9-2l-.25.8q-.25.55-.75.55-.45 0-.65-.5l-.2-.65.35-.9h-.05q-1.1-.7-1.65-.7-1.65 0-1.65 1.9 0 1.95 3.35 3.95 2.85 1.7 4.3 1.7.6 0 .6-.8Q2-7.7.5-9.9" fill="#968cb0" transform="translate(11.2 16.55)"/><path d="m-6.15-1.4.15.85-2.55-2.35q-1.6-1.8-1.6-3.4l.2-1.35q1.35 3.55 2.55 5l1.25 1.25" fill="#4d64a5" transform="translate(11.2 16.55)"/><path d="M-8.15-10.2q.85 3.25 5.3 5.3l2.9 1.15v.95l-1.65-.75q-1.15-.55-1.85-.55l-.85.05q-1.85.45-1.85 2.6v.05L-7.4-2.65q-1.2-1.45-2.55-5l.1-.25q.45-1.3 1.7-2.3" fill="#4c335a" transform="translate(11.2 16.55)"/><path d="M.5-9.9Q2-7.7 2-6.55q0 .8-.6.8-1.45 0-4.3-1.7-3.35-2-3.35-3.95 0-1.9 1.65-1.9.55 0 1.65.7h.05l-.35.9.2.65q.2.5.65.5.5 0 .75-.55l.25-.8q.5-.1 1.9 2" fill="#f3ecf3" transform="translate(11.2 16.55)"/><path d="M10.3 15.2v.8q-2.95-.3-4.55-.95Q2.6 14 1.2 11.45l-.9-2.5Q-.05 7.8-1.2 7.1-4 5.35-5 2.1L-5.4.4l-.1-.35q0-1.5.55-2.5l.7-.85q0 2.4 2.25 6.05Q.3 6.35 2.5 8q.8.6 2.65 3.65Q6.95 14 10.3 15.2" fill="#745196" transform="translate(11.2 16.55)"/><path d="m-4.25-3.3.55-.2q2.85 0 5.85 3.5 2.35 2.75 3 5.4V4.05Q7.15 5.2 8.8 9q1.3 3.2 1.5 6.2-3.35-1.2-5.15-3.55Q3.3 8.6 2.5 8 .3 6.35-2 2.75-4.25-.9-4.25-3.3m9.4 8.7v.2l.1.55-.1-.75" fill="#121654" transform="translate(11.2 16.55)"/></g><g id="l"><path d="M-39.9-4.5v-.15q.1-5.4 1.25-11.5l.45-2.05 1.45-6.65 1.6 2.5-.8 3.7v.1q-1.9 8.85-1.9 12.6-1 .75-1.9 1.35l-.15.1m30.8-22.55q4.45-4 9.8-6.85l-1.1 3.05Q-3.7-29-9.7-23.1l-3.8 4.15q-6.25 7.2-8.55 14.5l-.15.25v.7l1 .4q.35.35.35 1 0 1.05-.8 2-.9.95-1.9.95-.65 0-1.4-.55-.95 2.95-4.75 8.15l-.35.5q-3.65 4.9-6.9 6.8l-.3-1.15q-.1-.7-.35-1.3l2.75-2.2Q-32 8.55-29.6 4.7l.5-.85 3.35-6.35L-24-6.15l1.65-3.55.3-.55q2.5-4.8 5.7-8.95l2.9-3.55 4.35-4.3M24.65 11.4l3.25-.35 1 .25-.55 1.15-5.6 1.6-4.35 1.35q-.25.05-.35.15Q8.1 18.65 6.2 20.7q.75.55 1.65.55h2.7l.75-.15h1.9l2.2.1-4.15 1.45-.55.25q-4.9 1.6-7.35 1.6H2.8l-.95-.4q-.65-.5-.65-1.1l.1-.4 4.25-4.9 7.6-2.9 7.15-2.4 2-.55 2.35-.45" fill="#ffffba" fill-rule="evenodd" transform="translate(42.1 35.4)"/><path d="m-35.15-22.35 1.1 2.05.75 1.5.7 1.45-.2.2-.85.65q-1.9 2.55-2.55 6l-.5 3.8-1.15.75q0-3.75 1.9-12.6v-.1l.8-3.7M.7-33.9l2.1-1.15q-.55 4.5-2.05 9.1-1.4 4.3-3.7 8.65-1.85 3.45-4.15 7l-3 4.15-2.5 3.1q-4.8 5.8-9.9 10.75l-1.05.95-6.75 5.8q-2.85 2.25-5.85 4.2l-.15-.4-.05-.15-.35-1.05 6.55-4.65Q-24 7.4-18.4.8q7.2-8.5 12.45-18.65 3.1-6.2 5.55-13L.7-33.9" fill="#ea710e" fill-rule="evenodd" transform="translate(42.1 35.4)"/><path d="m-32.6-17.35 2.35-1.7q8.5-5.75 21.15-8l-4.35 4.3q-2.85 1.35-4.9 2.85l-.8.6q-3.05 2.35-7.05 6.6l-.85-1.25q-1.7-2.35-3.65-2.35-.75 0-1.35.5-1.1.8-1.9 2.9-.85 2.1-1.1 5l-1.65 1.2.5-3.8q.65-3.45 2.55-6l.85-.65.2-.2m41-5.45 1.7.95 4.05 2.45q2.95 1.9 4.45 3.4.25 1.8.1 3.65-.25 3-1.7 5.85l-.45.95q-.2-3.75-2.05-7.8-1.2-2.65-3.1-5.45l-3-4" fill="#fcfdfd" fill-rule="evenodd" transform="translate(42.1 35.4)"/><path d="m.75-25.95 1.9.6Q1.5-21.7-.8-16.9l-.8 1.7q-2.3 4.7-4.15 7.7l-1.35-2.8q2.3-3.55 4.15-7 2.3-4.35 3.7-8.65M20.5-15.9l2.45 3.4.85 1.45.75 1.45q1.35 2.7 1.35 3.4l-.2 1.6-.1.5q-.65 2-2.25 5.3l-1.1 2.1-1.1 1.85-8 2.25q-1.1-2.25-1.1-3.5 0-.55 1.55-1.6Q15.5 1 16.25-.4l2.9-5.95q1.2-3.05 1.45-5.6V-13l-.1-2.9M26.15-.45l.3 3.95v.15l-1.55.4-1.5.4-.25.05q1.55-2.2 2.9-4.9l.1-.05M32.3 2Q37 .7 37.55.7q2.6 0 3.45 1.1.85 1 .85 4.15 0 5.35-9.35 12.85l-1.05.9-4.3 3.05q-5.25 3.4-9.25 4.05-3.75.65-10 2.4l-6.85 1.3H.9q-1.35 0-1.35-.6l.35-1.05-.35 1.05q0 .6 1.35.6l.05.05-3.45 1.55q-6.05 2.75-12.15 2.95l-5.1-.3q1.8-.8 4.05-2.1 3.7-1.55 9.65-4.75.5-.2 1.3-.95Q-1.7 23.95 6.2 13l-.65-3.2.25-.95-4.5 1.45.75-1.85L6.8 5.4l2.6-1.95 1.85 4.4V8q0 .85-.6 2.25l.2.4q.4.8 1.5.8 4.1 0 9.7-3.05v-.05l1.1-.65q4.6-2.5 5.9-2.5l.8.15.15.45q0 .85-3.05 3.6l-2.3 2-2.35.45-2 .55-7.15 2.4-7.6 2.9q3.8-4.8 5.1-7.45-1.3 2.65-5.1 7.45L1.3 22.6l-.1.4q0 .6.65 1.1l.95.4-1.35 1.85-.4.65-1.15 1.85 5.4-1.5q7.05-2.05 13-4.6l6.4-3.15q4.5-2.5 7.35-5.15 4.75-4.5 4.75-9.3 0-1.8-3-2.8L32.3 2m-65.8 18q-1.55-.45-2.65-1.35 3-1.95 5.85-4.2l6.75-5.8 1.9 1.45-4.65 3.85q-2.7 2.2-4.2 3.2l-1.65.95q.55.55 1.7.9l1.65.35h.25l3.6.15q-5.3 1.4-8.55.5m-1.55-27.9q.25-2.9 1.1-5 .8-2.1 1.9-2.9.6-.5 1.35-.5 1.95 0 3.65 2.35L-34.2-8.6l-.85.7" fill="#968cb0" fill-rule="evenodd" transform="translate(42.1 35.4)"/><path d="m-41.6-3.45 1.7-1.05.15-.1 1.55.85 1.45-1.4 1.95-1.4L-36.9-4l2.65.5.7.15q.4 0 8.75-5.85l.3.8-7.25 6.3q.25.25.55 1.3v.1l.1.05-1.7 1.1q.3 1.5.3 3.6l-.2 2.6 3.1-1.95q-2.4 3.85-5.25 6.4l.15-1.3.1-1.55-1.3.4-1.05-.2-.65-.4-.3-1.55q0-1.65 1.05-3.75 1.3-2.5 3.55-3.55l-.45-.75-.7-.65-.35-.2q-1.6-1.1-4.5-1.1l-2.3.05" fill="#f9342f" fill-rule="evenodd" transform="translate(42.1 35.4)"/><path d="M-38.55 10.9Q-41.8 2.95-41.8-1.4l.15-1.95.05-.1 2.3-.05q2.9 0 4.5 1.1-1.6.45-2.7 1.75-1.55 1.85-1.55 5.05 0 2.1 1 3.25l.45.4.65.4 1.05.2 1.3-.4-.1 1.55q-1.45.95-3.85 1.1" fill="#ffccca" fill-rule="evenodd" transform="translate(42.1 35.4)"/><path d="m-37.6 13.3-.8-2-.15-.4q2.4-.15 3.85-1.1l-.15 1.3-2.75 2.2m-2.15-17.9q.9-.6 1.9-1.35l1.15-.75 1.65-1.2.85-.7 7.15-5.35.85 1.25.25.55.7 1.5-4.85 3.15q-3.1 2.35-4.15 4L-36.9-4l2.1-2.55-1.95 1.4-1.45 1.4-1.55-.85m10.15 9.3-3.1 1.95.2-2.6q0-2.1-.3-3.6l1.7-1.1.25 1.1q1.1-.85 5.1-2.95l-3.35 6.35-.5.85" fill="#a21211" fill-rule="evenodd" transform="translate(42.1 35.4)"/><path d="m-34.8-2.4.35.2.7.65.45.75q-2.25 1.05-3.55 3.55-1.05 2.1-1.05 3.75l.3 1.55-.45-.4q-1-1.15-1-3.25 0-3.2 1.55-5.05 1.1-1.3 2.7-1.75m10-6.8q-8.35 5.85-8.75 5.85l-.7-.15q1.05-1.65 4.15-4l4.85-3.15.4 1.3.05.15" fill="#f27d90" fill-rule="evenodd" transform="translate(42.1 35.4)"/><path d="m-36.7 17.05-.25-1.3q3.25-1.9 6.9-6.8l.35-.5q3.8-5.2 4.75-8.15.75.55 1.4.55 1 0 1.9-.95.8-.95.8-2 0-.65-.35-1l-1-.4v-.7l.15-.25q2.3-7.3 8.55-14.5l3.8-4.15q6-5.9 9.3-7.75-2.45 6.8-5.55 13Q-11.2-7.7-18.4.8-24 7.4-30.15 12.4l-6.55 4.65m65.05-4.6q-1.45 2.4-4.75 4.6l-3.8 2.15-2.85 1.3-1.55.7-2.2-.1h-1.9l-.75.15h-2.7q-.9 0-1.65-.55 1.9-2.05 11.85-5.15.1-.1.35-.15l4.35-1.35 5.6-1.6" fill="#fee640" fill-rule="evenodd" transform="translate(42.1 35.4)"/><path d="M2.65-25.35q2.55.85 5.75 2.55l3 4q1.9 2.8 3.1 5.45 1.85 4.05 2.05 7.8L17-6.5q1.45-2.85 1.7-5.85.15-1.85-.1-3.65-1.5-1.5-4.45-3.4l3.05-.15q.55 0 3.3 3.65l.1 2.9v1.05q-.25 2.55-1.45 5.6L16.25-.4Q15.5 1 13.6 2.3q-1.55 1.05-1.55 1.6 0 1.25 1.1 3.5l8-2.25 1.1-1.85 1.1-2.1q1.6-3.3 2.25-5.3l.45 3.4.1.25-.1.05q-1.35 2.7-2.9 4.9l.25-.05 1.5-.4 1.55-.4L32.3 2l1.5.35q3 1 3 2.8 0 4.8-4.75 9.3-2.85 2.65-7.35 5.15l-6.4 3.15q-5.95 2.55-13 4.6l-5.4 1.5L1.05 27l.4-.65L2.8 24.5h.55q2.45 0 7.35-1.6l.55-.25 4.15-1.45q1.4 0 1.55-.7l2.85-1.3 3.8-2.15q3.3-2.2 4.75-4.6l.55-1.15-1-.25-3.25.35 2.3-2Q30 6.65 30 5.8l-.15-.45-.8-.15q-1.3 0-5.9 2.5l-1.1.65v.05q-5.6 3.05-9.7 3.05-1.1 0-1.5-.8l-.2-.4q.6-1.4.6-2.25v-.15L9.4 3.45q4.4-3.85 7.15-9-2.75 5.15-7.15 9L6.8 5.4 2.05 8.45q-4.55 2.65-9.3 4.7l-11.35 4.3-4.85 1.6-1.5.45-3.6-.15h-.25l-1.65-.35q-1.15-.35-1.7-.9l1.65-.95q1.5-1 4.2-3.2l4.65-3.85 1.5.8q1.7.7 4.75.7 5.5 0 8.7-3.15Q-3.6 5.35-3.6.1q0-2.4-1.6-6.4l-.55-1.2q1.85-3 4.15-7.7l.8-1.7q2.3-4.8 3.45-8.45m-22.4 60.1q-3.6-.4-7.1-1.55-5.95-1.95-7.05-4.9 1.65-3.95 1.65-4.8v-.15l1.05.5q.85.45 2.05 2.7l1.45 2.6q1.2 2 2.15 2 2.85 0 7.95-4.15l5.7-4.95 8.95-5.85q2.5-2.35 4.15-5.55l.1-.35 4.5-1.45-.25.95.65 3.2Q-1.7 23.95-4.75 26.95q-.8.75-1.3.95-5.95 3.2-9.65 4.75-2.25 1.3-4.05 2.1M-26.2-12.7q4-4.25 7.05-6.6l.8-.6q2.05-1.5 4.9-2.85l-2.9 3.55q-3.2 4.15-5.7 8.95l-.3.55L-24-6.15l-.5-2.25-.3-.8-.05-.15-.4-1.3-.7-1.5-.25-.55M13.15 7.4l-1.9.45 1.9-.45m10-2.9-1.1.35-.9.3.9-.3 1.1-.35" fill="#f3ecf3" fill-rule="evenodd" transform="translate(42.1 35.4)"/><path d="M-31.2-.8q-.3-1.05-.55-1.3l7.25-6.3.5 2.25-1.75 3.65q-4 2.1-5.1 2.95l-.25-1.1q.2-.15-.1-.15" fill="#640102" fill-rule="evenodd" transform="translate(42.1 35.4)"/><path d="m-32.25 23.35-.55-1.65-.7-1.7q3.25.9 8.55-.5l1.5-.45 4.85-1.6 11.35-4.3q4.75-2.05 9.3-4.7L1.3 10.3l-.1.35q-1.65 3.2-4.15 5.55l-8.95 5.85-5.7 4.95q-5.1 4.15-7.95 4.15-.95 0-2.15-2l-1.45-2.6q-1.2-2.25-2.05-2.7l-1.05-.5m8.7-14.7 1.05-.95q5.1-4.95 9.9-10.75l2.5-3.1 3-4.15 1.35 2.8.55 1.2q1.6 4 1.6 6.4 0 5.25-3.1 8.35-3.2 3.15-8.7 3.15-3.05 0-4.75-.7l-1.5-.8-1.9-1.45m1.05-.95 1.85 1.3q2.3 1.35 4.95 1.35 4.35 0 6.8-2.55 2.35-2.45 2.35-6.7 0-2.3-1.45-4.6l-2.1-2.65L-8-3.5q1.45 2.3 1.45 4.6 0 4.25-2.35 6.7-2.45 2.55-6.8 2.55-2.65 0-4.95-1.35l-1.85-1.3" fill="#43ff13" fill-rule="evenodd" transform="translate(42.1 35.4)"/><path d="M2.2 30.9v-.15q.1-5.4 1.25-11.5l.45-2.05 1.45-6.65 1.6 2.5 1.1 2.05.75 1.5.7 1.45M33 8.35q4.45-4 9.8-6.85L44.9.35q-.55 4.5-2.05 9.1-1.4 4.3-3.7 8.65-1.85 3.45-4.15 7l-3 4.15-2.5 3.1q-4.8 5.8-9.9 10.75l-1.05.95-6.75 5.8q-2.85 2.25-5.85 4.2m-.15-.4-.05-.15-.35-1.05-.25-1.3-.3-1.15q-.1-.7-.35-1.3l2.75-2.2q2.85-2.55 5.25-6.4l.5-.85 3.35-6.35 1.75-3.65 1.65-3.55.3-.55q2.5-4.8 5.7-8.95l2.9-3.55L33 8.35M66.75 46.8l3.25-.35 1 .25-.55 1.15q-1.45 2.4-4.75 4.6l-3.8 2.15-2.85 1.3-1.55.7-4.15 1.45-.55.25q-4.9 1.6-7.35 1.6h-.55l-.95-.4q-.65-.5-.65-1.1l.1-.4 4.25-4.9 7.6-2.9 7.15-2.4 2-.55 2.35-.45" fill="none" stroke="#d78f0c" stroke-linecap="square" stroke-linejoin="miter-clip" stroke-miterlimit="3" stroke-width=".5"/><path d="m9.5 18.05 2.35-1.7q8.5-5.75 21.15-8m9.85 1.1 1.9.6q2.55.85 5.75 2.55l1.7.95L56.25 16l3.05-.15q.55 0 3.3 3.65l2.45 3.4.85 1.45.75 1.45Q68 28.5 68 29.2l-.2 1.6-.1.5.45 3.4.1.25.3 3.95v.15l5.85-1.65q4.7-1.3 5.25-1.3 2.6 0 3.45 1.1.85 1 .85 4.15 0 5.35-9.35 12.85l-1.05.9-4.3 3.05Q64 61.55 60 62.2q-3.75.65-10 2.4l-6.85 1.3-.1.05-3.45 1.55q-6.05 2.75-12.15 2.95l-5.1-.3q-3.6-.4-7.1-1.55-5.95-1.95-7.05-4.9 1.65-3.95 1.65-4.8v-.15L9.3 57.1l-.7-1.7q-1.55-.45-2.65-1.35v.1l-.15-.5.15.4M5.4 28.7l.5-3.8q.65-3.45 2.55-6l.85-.65.2-.2M7.05 27.5q.25-2.9 1.1-5 .8-2.1 1.9-2.9.6-.5 1.35-.5 1.95 0 3.65 2.35l.85 1.25.25.55.7 1.5.4 1.3m.35.95-.3-.8m.8 3.05L17.6 27m37.65 15.8 8-2.25 1.1-1.85 1.1-2.1q1.6-3.3 2.25-5.3m-9.05-1.45.45-.95q1.45-2.85 1.7-5.85.15-1.85-.1-3.65-1.5-1.5-4.45-3.4m2.4 13.85q-2.75 5.15-7.15 9l1.85 4.4 1.9-.45M42 64.25l-.35 1.05q0 .6 1.35.6h.15m22.1-26 .25-.05 1.5-.4 1.55-.4M44.9 59.9l-1.35 1.85-.4.65L42 64.25m21.25-23.7.9-.3 1.1-.35m-11.9 3.35v.15q0 .85-.6 2.25-1.3 2.65-5.1 7.45m-3.5-9.25q-4.55 2.65-9.3 4.7l-11.35 4.3-4.85 1.6-1.5.45q-5.3 1.4-8.55.5m35.55-11.55 4.75-3.05 2.6-1.95" fill="none" stroke="#456bbe" stroke-linecap="square" stroke-linejoin="miter-clip" stroke-miterlimit="3" stroke-width=".5"/><path d="m4.5 48.7-.8-2-.15-.4Q.3 38.35.3 34l.15-1.95.05-.1 1.7-1.05.15-.1q.9-.6 1.9-1.35l1.15-.75 1.65-1.2.85-.7 7.15-5.35" fill="none" stroke="#87260f" stroke-linecap="square" stroke-linejoin="miter-clip" stroke-miterlimit="3" stroke-width=".5"/><path d="M36.35 27.9 35 25.1M20.45 45.5l1.5.8q1.7.7 4.75.7 5.5 0 8.7-3.15 3.1-3.1 3.1-8.35 0-2.4-1.6-6.4l-.55-1.2M32 29.25l2.1 2.65q1.45 2.3 1.45 4.6 0 4.25-2.35 6.7-2.45 2.55-6.8 2.55-2.65 0-4.95-1.35l-1.85-1.3m23.8 2.6.75-1.85m-25.6.2 1.9 1.45M9.85 58.75l1.05.5q.85.45 2.05 2.7l1.45 2.6q1.2 2 2.15 2 2.85 0 7.95-4.15l5.7-4.95 8.95-5.85q2.5-2.35 4.15-5.55" fill="none" stroke="#5dd210" stroke-linecap="square" stroke-linejoin="miter-clip" stroke-miterlimit="3" stroke-width=".5"/></g><g id="m" fill-rule="evenodd"><path d="m11.75-5.9.1.3-.15.4q-.55.95-3.25 2.5l-.4.3Q5.85-1.25 4.5-.8l3.2.1L9-.5l.95.2H10l1 .35.5.2q1 .55 1 1.3 0 1.4-4.75 1.4l-2.1-.05-.2-.1-1.5-.3-.05.1-1.6 2.05-.2.3Q.55 6.55-.65 6.55q-2.35 0-5.25-4.4l-.2-.3.15-.85H-8q-1.1.2-2.65 0-1.8-.3-1.8-.9 0-1.2 4.9-2.25l-1.95-3 .05-.65q.2-.75 1.35-.75 1.25 0 3.5.75.1.05.4.15l.45-.5 1.25-.35h.25q1.9 0 3.2.75L3-3.7q2.25-1.55 4.4-2.2l2.55-.45h.4q1.15 0 1.4.45m-17.3 7.55.1.7 1.1 1.55 1.7 1.5q.8.7 1.85.7.8 0 1.9-1.15l.2-.3q1.25-1.35 1.45-2.5l-1.5-.2q-1.1-.3-1.1-.7Q.15.8.6.4l.9-.7 4.75-1.65 1.8-.75q2.9-1.5 2.9-2.7 0-.6-.75-.6h-.4l-2.25.4-2.3.8Q1.9-3.35.7-1.25L.5-.9q.25.6 1 .6l-.8.05q-.7 0-.7-.4 0-1 2.75-2.9L2-4.5q-.65-.7-1.1-.7-.55 0-2.65 2.4L-4.25.1l-.85.8Q-4.75-.5-2.35-3q1.8-2 2.9-2.65l-2.5-.45-.35.1q-.7 0-1.15.4l-.2.2-.5.8-.8 3.2-.2.95-.3 1.15-.1.7v.25m.1-3.8q.25-1.55.7-2.55l-.9-.3L-7-5.15l-.9.1h-.05l-.25.1q0 .5 1.15 2l1.1 1.3h-.35l-.35.05-.75.15-.2.05-.35.1-2.05.7-.95.55q-.05.5.65.65l1.6.05h.9l1-.05q1.1-.2 1.15-.65V-.3l.15-1.25.05-.6M9.85.45 9.4.25l-.2-.1-1.65-.4H7.3l-2-.2q-1.6 0-3.1.75-.85.35-1.6.95l1.6.5L4.55 2l1.8.1 2.75.1q2.55-.05 2.55-.45 0-.65-1.3-1.15l-.5-.15" fill="#456bbe" transform="translate(12.45 6.55)"/><path d="M-5.55 1.65V1.4l.1-.7.3-1.15.2-.95.8-3.2.5-.8.2-.2Q-3-6-2.3-6l.35-.1 2.5.45Q-.55-5-2.35-3-4.75-.5-5.1.9l-.35.5-.1.25M.7-1.25q1.2-2.1 4.55-3.55l2.3-.8L9.8-6h.05l-.05.05-.7.55-1.2.8-1 .7Q2.75-1.2.9-1.2l-.2-.05m-8.6-3.8.9-.1 1.35.15.9.3q-.45 1-.7 2.55l-1.15-1.4-.05-.1-.05-.05-1.2-1.35m2.4 3.5L-5.65-.3l-.85.15-.65.05h-.65Q-9.15-.15-10-.6l2.05-.7.35-.1.2-.05.75-.15.35-.05.35.05.45.05m15.35 2H9.4L9.25.5 8.6.6 7.15.7 4.5.85Q2.95.85 2.2.3q1.5-.75 3.1-.75l2 .2h.25l1.65.4.2.1.45.2" fill="#fcfdfd" transform="translate(12.45 6.55)"/><path d="M9.85-6h.35q.75 0 .75.6 0 1.2-2.9 2.7l-1.8.75L1.5-.3.6.4q-.45.4-.45.85 0 .4 1.1.7l1.5.2q-.2 1.15-1.45 2.5l-.2.3Q0 6.1-.8 6.1q-1.05 0-1.85-.7l-1.7-1.5-1.1-1.55-.1-.7.1-.25.35-.5.85-.8 2.5-2.9Q.35-5.2.9-5.2q.45 0 1.1.7l.75.95Q0-1.65 0-.65q0 .4.7.4l.8-.05q-.75 0-1-.6l.2-.35.2.05q1.85 0 6-2.7l1-.7 1.2-.8.7-.55.05-.05m-15.3 3.85-.05.6-.45-.05v-.05l-1.1-1.3q-1.15-1.5-1.15-2l.25-.1h.05l1.2 1.35.05.05.05.1 1.15 1.4m-.2 1.85v.25Q-5.7.4-6.8.6l-1 .05h-.9L-10.3.6q-.7-.15-.65-.65L-10-.6q.85.45 2.2.5h.65l.65-.05.85-.15M2.2.3q.75.55 2.3.55L7.15.7 8.6.6l.65-.1.15-.05h.45l.5.15q1.3.5 1.3 1.15 0 .4-2.55.45l-2.75-.1-1.8-.1-2.35-.25-1.6-.5Q1.35.65 2.2.3" fill="#968cb0" transform="translate(12.45 6.55)"/></g><g id="n" fill-rule="evenodd"><path d="M-8.45-13.25q2.25-1.1 4-1.1 1.8 0 3.4 1.45 1.15 1 2.85 3.4h-.1L.55-9.85q-2.4 0-3.7 2.15v.1q-.35-.2-.35-.55 0-.6.75-1.65.75-1 .75-1.6 0-.55-.8-1.15-1-.75-2.45-.75L-7-13.4l-1.45.15m6.95 5.3q1.1-.9 2.25-.9.95 0 1.55.55.55.5.55 1.15 0 .75-.55 1.7-.15-1-.75-1.55-.9-.8-3.05-.95m2.7 3.6.35.3 1.9 1.8L5-.4q-1.25.2-2.5.9Q1.7-1.1.4-2.1q-1.35-1-1.35-1.75 0-.65 1.35-.65l.8.15" fill="#745196" transform="translate(13.95 14.75)"/><path d="M-3.15-7.6v-.1q1.3-2.15 3.7-2.15l1.15.35h.1q-1.7-2.4-2.85-3.4-1.6-1.45-3.4-1.45-1.75 0-4 1.1l-1.15.7-.2.05-2.25 1.65-.45.95v.1q-.85 1.7-.85 2.55 0 2.9 1.85 5.2Q-9.75.15-7.85.15q1.65 0 2.75-2.3l.85-2.65q.45-1.7 1.1-2.8m3.5 9.85Q-.2 1.3-1.1.35-2.6-1.4-4.25-1.9h-.1L-5.65 0q-.9 1.05-2.1 1.05-3.15 0-4.75-2.6-1.45-2.2-1.45-5.45 0-3.75 2.5-5.8l.3-.25q2.15-1.7 5-1.7 4.05 0 6.75 2.5 2.6 2.4 2.6 5.75 0 1.25-1.05 2.45l2.25 2.3 1.55 1.2L5-.4 3.45-2.25l-1.9-1.8-.35-.3q.4-.05.9-.75l.2-.25v-.1q.55-.95.55-1.7 0-.65-.55-1.15-.6-.55-1.55-.55-1.15 0-2.25.9l-.3.2-.85.8q-1.6 1.8-1.6 3.5l2.45 2.3L.8 1.7l-.05.05-.4.5" fill="#0d1057" transform="translate(13.95 14.75)"/><path d="M-8.45-13.25-7-13.4l1.75.1q1.45 0 2.45.75.8.6.8 1.15 0 .6-.75 1.6-.75 1.05-.75 1.65 0 .35.35.55-.65 1.1-1.1 2.8l-.85 2.65Q-6.2.15-7.85.15q-1.9 0-3.65-2.2-1.85-2.3-1.85-5.2 0-.85.85-2.55v-.1l.45-.95 2.25-1.65.2-.05 1.15-.7M.8 1.7l-2.6-2.85-2.45-2.3q0-1.7 1.6-3.5l.85-.8.3-.2Q.65-7.8 1.55-7q.6.55.75 1.55v.1l-.2.25q-.5.7-.9.75L.4-4.5q-1.35 0-1.35.65Q-.95-3.1.4-2.1q1.3 1 2.1 2.6l-.15.05Q1.5 1.05.8 1.7" fill="#121654" transform="translate(13.95 14.75)"/><path d="m.35 2.25.4-.5.05-.05q.7-.65 1.55-1.15L2.5.5Q3.75-.2 5-.4l.95-.15h.3q1.2 0 1.75.4Q8.75.4 9.35 2L7.6 1.5l-.05-.2Q7.2.2 6.25.2l-.8.15Q4.35.6 2.9 1.5l-.25.15-1.8 1.4Q.1 3.8.1 4.55l.15.95-1.3 2.1-.2-1.7.15-1.55.55-1 .9-1.1" fill="#87260f" transform="translate(13.95 14.75)"/><path d="M.25 5.5.1 4.55q0-.75.75-1.5l1.8-1.4.25-.15Q4.35.6 5.45.35l.8-.15q.95 0 1.3 1.1l.05.2h-.25Q5 1.5 2.3 3.55l-.8.65L.25 5.5" fill="#f9342f" transform="translate(13.95 14.75)"/><path d="m9.35 2 .45.2.85.55.75.6Q14 5.6 14 9.1q0 2.1-2.5 3.95-2.35 1.7-4.45 1.7-.9 0-2.5-1.1l-.3-.1-1-.75-.5-.4-.6.4-.35.1q-1.4 0-2.3-2.35l-.6-2v-.2l.05-.75 1.3-2.1L1.5 4.2l.8-.65Q5 1.5 7.35 1.5h.25l1.75.5m1.4 2.1-.3-.3q-1-1-2.3-1.3l-.3-.05L6.8 2.3q-2.05 0-4.85 2.05l-.65.55q-.65.5-1.05.95l-.35.4-.65 1.35-.1.45q.1.05.25.2l.05.45.8 2q.7 1.2 1.65 1.25h.05l.55-.05-.2-1q0-1.05.4-1.7.4-.75 1.15-.75.5 0 .95.65l.5 1.3Q4.75 9 3.95 9 2.7 9 2.7 10.6q0 1.3 1.3 2.4l.6.45q.95.65 2.05.65 2.1 0 3.9-1.3 1.95-1.45 1.95-3.55 0-3.25-1.75-5.15" fill="#28226a" transform="translate(13.95 14.75)"/><path d="m1.3 4.9.65-.55Q4.75 2.3 6.8 2.3l1.05.15.3.05q1.3.3 2.3 1.3l.3.3q-.1 3.6-1.45 5.4l-.2.3Q8 11 6.6 11q-.85 0-1.4-.45l-.1-.15v.4l.25 1.3q0 1.05-.75 1.35L4 13q-1.3-1.1-1.3-2.4Q2.7 9 3.95 9q.8 0 1.35 1.4l-.5-1.3q-.45-.65-.95-.65-.75 0-1.15.75-.4.65-.4 1.7l.2 1-.55.05H1.9l-.1-.1q-.65-1.9-.75-3.95v-.55q0-1.55.25-2.45" fill="#4c335a" transform="translate(13.95 14.75)"/><path d="M4.6 13.45q.75-.3.75-1.35l-.25-1.3v-.4l.1.15q.55.45 1.4.45Q8 11 9.1 9.8l.2-.3q1.35-1.8 1.45-5.4Q12.5 6 12.5 9.25q0 2.1-1.95 3.55-1.8 1.3-3.9 1.3-1.1 0-2.05-.65" fill="#96709d" transform="translate(13.95 14.75)"/><path d="M1.3 4.9q-.25.9-.25 2.45v.55q.1 2.05.75 3.95l.1.1Q.95 11.9.25 10.7l-.8-2-.05-.45q-.15-.15-.25-.2l.1-.45.65-1.35.35-.4q.4-.45 1.05-.95" fill="#4d64a5" transform="translate(13.95 14.75)"/></g><path d="M21.8-2.45Q28.95-1.2 28.95.6q0 1.8-7.15 3-7.1 1.3-17.15 1.3-10.1 0-17.25-1.3-7.05-1.2-7.05-3t7.05-3.05Q-5.45-3.7 4.65-3.7L21.8-2.45" fill-opacity=".349" fill-rule="evenodd" transform="translate(19.65 3.7)" id="b"/></defs></svg>