<svg xmlns:ffdec="https://www.free-decompiler.com/flash" xmlns:xlink="http://www.w3.org/1999/xlink" ffdec:objectType="frame" height="90" width="90" xmlns="http://www.w3.org/2000/svg"><use ffdec:characterId="20" height="149.1" transform="translate(6.332 2.274) scale(.5757)" width="132.15" xlink:href="#a"/><defs><linearGradient gradientTransform="matrix(.0047 .0027 -.0022 .0039 8.45 31.7)" gradientUnits="userSpaceOnUse" id="j" spreadMethod="pad" x1="-819.2" x2="819.2"><stop offset="0" stop-color="#ac693f"/><stop offset="1" stop-color="#86666d"/></linearGradient><linearGradient gradientTransform="matrix(-.0068 .0121 -.0071 -.0039 18.75 12.5)" gradientUnits="userSpaceOnUse" id="k" spreadMethod="pad" x1="-819.2" x2="819.2"><stop offset="0" stop-color="#b2c99b"/><stop offset="1" stop-color="#98d2d7"/></linearGradient><linearGradient gradientTransform="matrix(-.0103 .0177 -.013 -.0076 17.85 13.05)" gradientUnits="userSpaceOnUse" id="l" spreadMethod="pad" x1="-819.2" x2="819.2"><stop offset="0" stop-color="#a7ded3"/><stop offset="1" stop-color="#9edfec"/></linearGradient><linearGradient gradientTransform="matrix(-.0024 -.0111 .0206 -.0045 18.5 28.5)" gradientUnits="userSpaceOnUse" id="m" spreadMethod="pad" x1="-819.2" x2="819.2"><stop offset="0" stop-color="#acdeca"/><stop offset="1" stop-color="#7192d3"/></linearGradient><linearGradient gradientTransform="matrix(0 -.0016 .0034 0 5.3 16.85)" gradientUnits="userSpaceOnUse" id="n" spreadMethod="pad" x1="-819.2" x2="819.2"><stop offset="0" stop-color="#e3831b"/><stop offset="1" stop-color="#b13937"/></linearGradient><linearGradient gradientTransform="matrix(-.001 -.0034 .0038 -.0011 5 26)" gradientUnits="userSpaceOnUse" id="o" spreadMethod="pad" x1="-819.2" x2="819.2"><stop offset="0" stop-color="#e3831b"/><stop offset="1" stop-color="#b13937"/></linearGradient><linearGradient gradientTransform="matrix(.0062 0 0 .0027 6.75 42.4)" gradientUnits="userSpaceOnUse" id="p" spreadMethod="pad" x1="-819.2" x2="819.2"><stop offset="0" stop-color="#e6891a"/><stop offset="1" stop-color="#b33f35"/></linearGradient><linearGradient gradientTransform="matrix(.0019 -.0072 .0037 .001 16.55 36.3)" gradientUnits="userSpaceOnUse" id="q" spreadMethod="pad" x1="-819.2" x2="819.2"><stop offset="0" stop-color="#b23e36"/><stop offset="1" stop-color="#e6871a"/></linearGradient><linearGradient gradientTransform="matrix(.0003 0 0 .0001 11.5 41.55)" gradientUnits="userSpaceOnUse" id="r" spreadMethod="pad" x1="-819.2" x2="819.2"><stop offset="0" stop-color="#e6891a"/><stop offset="1" stop-color="#b33f35"/></linearGradient><linearGradient gradientTransform="matrix(.0003 0 0 .0001 11.85 41.65)" gradientUnits="userSpaceOnUse" id="s" spreadMethod="pad" x1="-819.2" x2="819.2"><stop offset="0" stop-color="#e6891a"/><stop offset="1" stop-color="#b33f35"/></linearGradient><linearGradient gradientTransform="matrix(.0039 -.0069 .0029 .0017 10.15 48.4)" gradientUnits="userSpaceOnUse" id="t" spreadMethod="pad" x1="-819.2" x2="819.2"><stop offset="0" stop-color="#e6891a"/><stop offset="1" stop-color="#b33f35"/></linearGradient><linearGradient gradientTransform="matrix(.0048 .0048 -.0046 .0046 19.9 41.8)" gradientUnits="userSpaceOnUse" id="u" spreadMethod="pad" x1="-819.2" x2="819.2"><stop offset="0" stop-color="#b23e36"/><stop offset="1" stop-color="#e6871a"/></linearGradient><linearGradient gradientTransform="matrix(-.007 -.004 .002 -.0034 16.8 48.3)" gradientUnits="userSpaceOnUse" id="v" spreadMethod="pad" x1="-819.2" x2="819.2"><stop offset="0" stop-color="#b23e36"/><stop offset="1" stop-color="#e6871a"/></linearGradient><linearGradient gradientTransform="matrix(.0187 .0187 -.0156 .0156 33.2 56.8)" gradientUnits="userSpaceOnUse" id="w" spreadMethod="pad" x1="-819.2" x2="819.2"><stop offset="0" stop-color="#cadb79"/><stop offset="1" stop-color="#a4dfdd"/></linearGradient><linearGradient gradientTransform="matrix(-.001 0 0 -.0039 53 53.35)" gradientUnits="userSpaceOnUse" id="x" spreadMethod="pad" x1="-819.2" x2="819.2"><stop offset="0" stop-color="#475bdf"/><stop offset="1" stop-color="#3e3dc0"/></linearGradient><linearGradient gradientTransform="matrix(.0045 0 0 .0033 51.9 57.65)" gradientUnits="userSpaceOnUse" id="y" spreadMethod="pad" x1="-819.2" x2="819.2"><stop offset="0" stop-color="#475bdf"/><stop offset="1" stop-color="#3e3dc0"/></linearGradient><linearGradient gradientTransform="matrix(0 .0044 -.0085 0 24.75 57.15)" gradientUnits="userSpaceOnUse" id="z" spreadMethod="pad" x1="-819.2" x2="819.2"><stop offset="0" stop-color="#cadb79"/><stop offset="1" stop-color="#a4dfdd"/></linearGradient><linearGradient gradientTransform="matrix(.004 0 0 .0056 29.1 50.85)" gradientUnits="userSpaceOnUse" id="A" spreadMethod="pad" x1="-819.2" x2="819.2"><stop offset="0" stop-color="#a21f42"/><stop offset="1" stop-color="#e7901f"/></linearGradient><linearGradient gradientTransform="matrix(0 -.0046 .0017 0 33.95 48.05)" gradientUnits="userSpaceOnUse" id="B" spreadMethod="pad" x1="-819.2" x2="819.2"><stop offset="0" stop-color="#b24135"/><stop offset="1" stop-color="#f3bb0d"/></linearGradient><linearGradient gradientTransform="matrix(0 .0005 -.003 0 37.8 47.55)" gradientUnits="userSpaceOnUse" id="C" spreadMethod="pad" x1="-819.2" x2="819.2"><stop offset="0" stop-color="#ffba55"/><stop offset="1" stop-color="#ffba55"/></linearGradient><linearGradient gradientTransform="matrix(.0031 .0117 -.0051 .0014 12.55 24.6)" gradientUnits="userSpaceOnUse" id="D" spreadMethod="pad" x1="-819.2" x2="819.2"><stop offset="0" stop-color="#c7db83"/><stop offset="1" stop-color="#abdec9"/></linearGradient><linearGradient gradientTransform="matrix(-.0007 .0012 -.0053 -.0032 20.3 39.1)" gradientUnits="userSpaceOnUse" id="E" spreadMethod="pad" x1="-819.2" x2="819.2"><stop offset="0" stop-color="#c7db83"/><stop offset="1" stop-color="#abdec9"/></linearGradient><linearGradient gradientTransform="matrix(.001 .0014 -.0124 .009 24.35 45.75)" gradientUnits="userSpaceOnUse" id="F" spreadMethod="pad" x1="-819.2" x2="819.2"><stop offset="0" stop-color="#e5871a"/><stop offset="1" stop-color="#c3542d"/></linearGradient><linearGradient gradientTransform="rotate(121.891 .606 21.111) scale(.0053)" gradientUnits="userSpaceOnUse" id="G" spreadMethod="pad" x1="-819.2" x2="819.2"><stop offset="0" stop-color="#e5871a"/><stop offset="1" stop-color="#c3542d"/></linearGradient><linearGradient gradientTransform="matrix(-.0029 -.0045 .0126 -.0081 21.4 41.8)" gradientUnits="userSpaceOnUse" id="H" spreadMethod="pad" x1="-819.2" x2="819.2"><stop offset="0" stop-color="#db781f"/><stop offset="1" stop-color="#c3542d"/></linearGradient><linearGradient gradientTransform="matrix(.0045 0 0 .0032 11.85 47)" gradientUnits="userSpaceOnUse" id="I" spreadMethod="pad" x1="-819.2" x2="819.2"><stop offset="0" stop-color="#db781f"/><stop offset="1" stop-color="#c3542d"/></linearGradient><g id="a" transform="translate(-11 -3.95)"><use ffdec:characterId="1" height="8.4" transform="matrix(2.2262 0 0 4.1941 21.232 117.724)" width="50.6" xlink:href="#b"/><use ffdec:characterId="3" height="35.9" transform="translate(25.55 90.15) scale(1.2079)" width="20.85" xlink:href="#c"/><use ffdec:characterId="5" height="19" transform="translate(34.65 112.75) scale(1.2079)" width="17" xlink:href="#d"/><use ffdec:characterId="7" height="32.4" transform="matrix(1.4117 0 0 1.2296 77.15 94.6)" width="44.35" xlink:href="#e"/><use ffdec:characterId="9" height="41.1" transform="translate(42.85 79.27) scale(1.2079)" width="35.3" xlink:href="#f"/><use ffdec:characterId="11" height="25.5" transform="translate(61.6 114.05) scale(1.2079)" width="21.7" xlink:href="#g"/><use ffdec:characterId="17" height="72.9" transform="translate(13.65 4) scale(1.2079)" width="104.5" xlink:href="#h"/><use ffdec:characterId="19" height="59.25" transform="translate(71.6 73.55) scale(1.2079)" width="36" xlink:href="#i"/></g><g id="J" fill-rule="evenodd"><path d="M19.5.05q-.3 6.75-1.15 7.25-4.4 2.9-5.4 2.95-.5-.4-.8-1.45l-.1-.45V8.3q-.35-2.15.5-5.3l2.25-1.7q1.05-.6 2-.95l2.7-.3M18.4 2.6l.05-1.1-1.45.1q-.85.25-1.8.8-.95.55-1.55 1.15-.7 2.5-.3 4.05l.2.5.35.5 1.4-.55.4-.2 1.95-1.3q.55-.3.75-3.95" fill="#953322"/><path d="M18.4 2.6h-1.15l-.3.05q-.65.15-1.25.6L15.55 3l-.4-.2-.45.2q-.15.2-.15.45l.15.45.15.1-.35.4q-.5.6-.7 1.65-.1.8.4 1.35l1.1.65-1.4.55-.35-.5-.2-.5q-.4-1.55.3-4.05.6-.6 1.55-1.15.95-.55 1.8-.8l1.45-.1-.05 1.1" fill="#dbab17"/><path d="M15.7 3.25q.6-.45 1.25-.6l.3-.05h1.15q-.2 3.65-.75 3.95l-1.95 1.3-.4.2-1.1-.65q-.5-.55-.4-1.35.2-1.05.7-1.65l.35-.4.3.1q.25 0 .4-.2l.2-.45-.05-.2" fill="#a1684b"/><path d="m14.85 4-.15-.1-.15-.45q0-.25.15-.45l.45-.2.4.2.15.25.05.2-.2.45q-.15.2-.4.2l-.3-.1" fill="#f5f9ff"/><path d="m6.6 27.15.15.05 4.4 1.85q1.8 1 2.85 2Q10.35 35 6.45 34.6L6 34.55l-.15-.15-1.6-1.2q-.6-.2-.85-.9l-.05-.65q1.85.9 2.8-2.1l.45-2.4" fill="url(#j)"/><path d="M9 19.9q5.15 3.6 11.5 3.15.1 1.8-1 3.5-7.1.7-12.3-3Q7.75 21.9 9 19.9" fill="#ae6b3e"/><path d="m3.75 20.25.5-1.35 1.4-2 3 2.75.35.25q-1.25 2-1.8 3.65l-1-.8-2.45-2.5m2.1 14.3q-1.1-.25-2.1-.85l-1-.7q-2.45-2.3-.7-8.45l.75-1.95.4.65q2.15 3.25 3.4 3.9l-.45 2.4q-.95 3-2.8 2.1l.05.65q.25.7.85.9l1.6 1.2v.15" fill="#daa817"/><path d="m4.95 16 .3.45.4.45-1.4 2-.5 1.35-.9-1.25-.15-.3.4-.7 1.85-2" fill="#932e22"/><path d="m14.75 31.95-2.35 2.1q-2.55 1.8-5.35 1.85h-.1q-1.7.05-3.5-.6-3-1.8-3.35-3.55-.35-1.5.65-7.05.4-2.25 1-3.9l1.05 1.8-.75 1.95Q.3 30.7 2.75 33l1 .7q1 .6 2.1.85H6l.45.05q3.9.4 7.55-3.55l.75.9" fill="#953322"/><path d="m16 5.8-.05.8q-.45 3.05-4.5 10l-2.4 3.25-.05.05-.35-.25-3-2.75 3.6-4.05 4.2-4.15L16 5.8M3.75 20.25l2.45 2.5 1 .8Q6.7 25 6.75 26.2l-.15.95q-1.25-.65-3.4-3.9l-.4-.65.95-2.35" fill="#eee"/><path d="m17.55 1 .1.95Q17.4 3.75 16 5.8l-2.55 2.9-4.2 4.15-3.6 4.05-.4-.45-.3-.45.6-.7 3.8-4.2q2.3-1.75 6.9-6.65L17.3.5q-.05.5.25.5M1.75 20.8q.4-1.2.95-2.1l.15.3.9 1.25-.95 2.35-1.05-1.8" fill="#282a7e"/><path d="M16 5.8q1.4-2.05 1.65-3.85l-.1-.95 3.3-.4L20.7 7q-.55 8.8-2.45 11.6l1.8 2.65.45 1.8Q14.15 23.5 9 19.9l.05-.05 2.4-3.25q4.05-6.95 4.5-10l.05-.8" fill="url(#k)"/><path d="m19.5 26.55-.65.85-4.1 4.55-.75-.9q-1.05-1-2.85-2l-4.4-1.85-.15-.05.15-.95q-.05-1.2.45-2.65 5.2 3.7 12.3 3" fill="#98d2d7"/></g><g id="K" fill-rule="evenodd"><path d="M8.8.55 10.05 0l.2.05 2.85 1.8q3.05 2.6 3.75 6.8-1.45 4.7-3.15 5.65-1.75.9-2.25.5-.15 1.75-1.95 2.25l-1.8.1q-.25-.55-1.1-1.35l-.85-.75-1.15.8.45-3.5L5.1 10q1.65.35 2.65-.7l.7-1.1q.65-1.7.5-5.45L8.8.55" fill="#abdecb"/><path d="m4.6 15.85-.2.2-.75.55q0-.7-.7-1.5l-.7-.65q.15-.65.85-1.05l.15-.05Q3 7.7 4.2 5.05L5.4 3.6Q6.5 1.8 8.5.65l.3-.1.15 2.2q.15 3.75-.5 5.45l-.7 1.1q-1 1.05-2.65.7l-.05 2.35-.45 3.5" fill="#fff"/><path d="m16.85 8.65.15 2.8-.05.25q-.65 2.6-2.5 3.8-1 .6-1.95.85-1.25 1.75-3.45 2.35l-1.95.25q-4.6.2-6.3-.75l-.8-1 .55-.85.35-.4q.15-.8 1-2l.85-1q-.15-2.35.2-5.35l.5-2Q4.9 2.75 7.5.75L8.75.1l.05.45-.3.1Q6.5 1.8 5.4 3.6L4.2 5.05Q3 7.7 3.25 13.35l-.15.05q-.7.4-.85 1.05l.7.65q.7.8.7 1.5l.75-.55.2-.2 1.15-.8.85.75q.85.8 1.1 1.35l1.8-.1q1.8-.5 1.95-2.25.5.4 2.25-.5 1.7-.95 3.15-5.65M2.3 15.45l.05-.25L2 15l-.1.2-.4.55q-.3.55-.2.95l.2.45.05.05.25.15 1.7-.05q-.15-1.1-.8-1.65l-.4-.2m2.65 2.05.9-1.6-.35-.2-1.7 1.9 1.15-.1m.7-.1 1.45.05-1-1.25-.45 1.2" fill="#282a7e"/><path d="m1.8 17.35.5-1.9.4.2q.65.55.8 1.65l-1.7.05m3.85.05.45-1.2 1 1.25-1.45-.05" fill="#3a3dc5"/><path d="m1.8 17.35-.25-.15-.05-.05-.2-.45q-.1-.4.2-.95l.4-.55.1-.2.35.2-.05.25-.5 1.9m3.15.15-1.15.1 1.7-1.9.35.2-.9 1.6" fill="#56d7f3"/></g><g id="L" fill-rule="evenodd"><path d="m5 2.7-.45.3L2.9 4.35l-.75 1-.45.9-.2.65-.35 1.35L.5 12q-.75 4.45 3.7 10.95 3.55 5.2 10.65 7.2l1.2.2q4.45-2.55 6.3-6.1l1.35-2.4.2-1.1.45-2.15.4-2q.65-5.55-2.25-10.95l-2.35-3.4q-3.3-1.1-6.4-1.05l-5.8.5Q6 2.15 5 2.7M2.55 3.85l1.2-1.3.6-.45 2.15-.95Q9.2.15 12.35 0 22.1-.45 31.9 7.5l.45.35L38.3 14q5.95 6.65 6.05 9.1l-1.75 1.8q-2.3 2.1-5.1 3.7-4.65 2.65-9.7 3.45-4.8.75-9.95-.05l-1.55-.3Q5.95 29.45 1.65 20.35q-1.8-3.85-1.65-8l.1-2q.2-2.6.75-3.7.7-1.55 1.7-2.8m25.1 27.1.95-.15 2-3.15.25-.4q1.55-2.4 2.15-4.9.9-3.6-.2-10.55l-.4-2.05-.45-.45q-5.75-4.9-11.1-6.8l2.3 3.4q2.9 5.4 2.25 10.95l-.2 1.45-.85 2.8-.4.9-.4 2.15-.9 1.4-3.1 3.45-1.95 1.75 1.05.2q4.7.65 9 0m15.3-7.8.25-.25q-.6-2.2-5.9-8.1l-4.15-4.3.2 1.15q.65 4.05.6 6.95 0 2.1-.4 3.6-.55 2.25-1.8 4.4l-.35.5-2.25 3.6q3.9-.9 7.4-2.9 2.5-1.4 4.55-3.3l1.85-1.35" fill="#282a7e"/><path d="M27.65 30.95q-4.3.65-9 0l-1.05-.2L19.55 29l3.1-3.45.9-1.4q1.55-2.6 2.2-5.4l2.1.55 4.75-.2-.2 3.35q-.75 2.85-2.8 5.95l-1.95 2.55" fill="#343397"/><path d="m23.9 20.75-.2 1.1-1.35 2.4q-1.85 3.55-6.3 6.1l-1.2-.2q-7.1-2-10.65-7.2Q-.25 16.45.5 12l.65-3.75q1.95-3.2 4.7-3.75l.55 2.05Q7.25 9 8.8 11.1q5 6.7 15.5 7.5l-.4 2.15" fill="#7da4c5"/><path d="M42.95 23.15 41.1 24.5q-2.05 1.9-4.55 3.3-3.5 2-7.4 2.9l2.25-3.6.35-.5q1.55-1.65 2.4-3.65l.85-4.3.95.1 3.3.1 2.35 2.5 1.35 1.8" fill="#98d2d7"/><path d="m23.55 24.15.4-2.15.4-.9.85-2.8.2-1.45q.65-5.55-2.25-10.95l-2.3-3.4q5.35 1.9 11.1 6.8l.45.45.4 2.05q1.1 6.95.2 10.55-.6 2.5-2.15 4.9l-.25.4-2 3.15-.95.15 1.95-2.55q2.05-3.1 2.8-5.95l.2-3.35-4.75.2-2.1-.55q-.65 2.8-2.2 5.4" fill="#5ebbe1"/><path d="M1.15 8.25 1.5 6.9l.2-.65.45-.9Q3.7 3.55 7.95 3l3.8.35L16.3 9.2l7.65 5.95.2 3.35.15.1q-10.5-.8-15.5-7.5Q7.25 9 6.4 6.55L5.85 4.5q-2.75.55-4.7 3.75" fill="#8abbcd"/><path d="m2.15 5.35.75-1L4.55 3 5 2.7l2.95.3q-4.25.55-5.8 2.35" fill="#f6f6f6"/><path d="M5 2.7q1-.55 2.95-1l5.8-.5q3.1-.05 6.4 1.05l2.35 3.4q2.9 5.4 2.25 10.95l-.4 2h-.05l-.15-.1-.2-3.35L16.3 9.2l-4.55-5.85L7.95 3 5 2.7m26.75 23.9q1.25-2.15 1.8-4.4.4-1.5.4-3.6.05-2.9-.6-6.95l-.2-1.15 4.15 4.3q5.3 5.9 5.9 8.1l-.25.25-1.35-1.8-2.35-2.5-3.3-.1-.95-.1-.85 4.3q-.85 2-2.4 3.65" fill="#fff"/></g><g id="M" fill-rule="evenodd"><path d="M10.4 6.05q3.75.1 7 1.05 4.05 1.15 5.35-.75 1.3-1.9 4.35-3.6l1.3-2.1.35-.65q1.4.7 2.2 3.2l1.75 8.05q-.15-.35-.35 0l-.15.2-.05.1-.8-.4q-4.75-2.4-5.95-3.1-.2-.5-.9-.45-1.45.05-4.1 2.75-2.7 2.8-5.4 4.75l-2.8 1.75-.9 1.3-1.8 2.3 1.8 3.95-1.25-.2h-.2l-.25-.7-.65-1.55-1.4-2 2.45-2.8-.15-.55-.05-.15-.7-1.5q-1.15-2.2-3-3.9l-.45-.4q1-1.4 2.3-2.65l2.45-1.95M7 19.8l-.3.3-.5.45-.85.75-.15.1.1-.1.75-.85.45-.5-.3-.35.35-.3.25.3.2.2m-2-3.85V16l-.05-.05H5M1.65 19.7l.45.8-.9 1.75q.15-1.3.45-2.55" fill="url(#l)" transform="translate(0 1.35)"/><path d="M32.7 11.25q.8 2.7.3 5l-2.55 2.6-.1.15h-.05l-3.05 2.25-2.2 1.2-.1-.45-.65-4.95q-.35-2.95-.85-2.55l-.45.95q.4 3.95-1.35 7.15l-.8 1.3-4.25.65-5.3-.15-1.8-3.95 1.8-2.3.9-1.3L15 15.1q2.7-1.95 5.4-4.75 2.65-2.7 4.1-2.75.7-.05.9.45 1.2.7 5.95 3.1l.8.4.05-.1.15-.2q.2-.35.35 0m-28.85 2.7L4 13.7l.1-.05.55-.25.3-.05q.55 0 .9.35.4.4.4.95 0 .55-.4.9-.35.4-.85.4h-.05q-.55 0-.95-.4-.35-.35-.35-.9l.2-.7M5.8 17.6l.15.45-.15.4-.05.1-.35.1q-.25 0-.4-.2l-.15-.4.05-.2.1-.25q.15-.15.4-.15l.4.15M4.25 28.85H4.2l-.1-.1-.2-.4.1-.55.35-.25.5.15.2.5-.1.45-.1.2h-.6m-2-4.45q0-.55.45-.8l.25-.15.6-.1.75.3.25.25.1.5q0 .55-.35.85l-.1.15-.75.25H3.4l-.45-.1-.35-.3-.35-.75v-.1m8.3 4.7q3.05 1.55 8.95.45-3.95 4.65-9.3 4.6l-3.3-.5-1.3-.5q1.55-.5 3.45-2.35l1.5-1.7" fill="#fff" transform="translate(0 1.35)"/><path d="m20.85 23.9.8-1.3q1.75-3.2 1.35-7.15l.45-.95q.5-.4.85 2.55l.65 4.95.1.45-1.75.7-2.45.75" fill="#9edfec" transform="translate(0 1.35)"/><path d="M23.1 23.7q-.75 1.6-3.35 2.2l.15-.3-.1-.25-4.05-.15 4-.5.6-.15 2.75-.85m-11.35 2.15-1.25-.1-.45-.05.25-.45 1.45.6" fill="#5b9bff" transform="translate(0 1.35)"/><path d="M1.9 32.05Q1.15 30.4.8 28.4l-.1-.65-.1-.9.65 1.2.1.1.3 2q.5 1.8 1.35 3.05l-1.1-1.15m-1.4-8v-.6l.15-.95H.7l-.05-.05.1-1.15.65-2.3.15.45.1.25q-.3 1.25-.45 2.55l-.7 1.8m3.95-12.4 1.6-2.5L9.25 6l1.15.05L7.95 8q-1.3 1.25-2.3 2.65l-.15-.15-1.05 1.15m20.6 10.8 2.2-1.2L30.3 19v.05l-2.5 2.35-2.15 1.2-.45.25-1.6.65-.5.2-2.75.85-.6.15-4 .5h-.85l-4.7-.2-.35-.8h.2l1.25.2 5.3.15 4.25-.65 2.45-.75 1.75-.7m-15.4 4 3.2.65q4.9 1.05 10.4-1.05l2.8-1.2q2.55-1.3 4.1-2.75l.1-.05.05-.2 1.35-.1q1.85-.3-1.35 1.3l-1.7.8-8.25 3.6q-2.05.7-5.05.7l-6.05-.95.4-.75" fill="#212173" transform="translate(0 1.35)"/><path d="m23.1 23.7.5-.2 1.6-.65q.25 1.05.85 2l-2.8 1.2q-5.5 2.1-10.4 1.05l-3.2-.65.4-.75.45.05 1.25.1 5.25.4 2.75-.35q2.6-.6 3.35-2.2" fill="#3a2dad" transform="translate(0 1.35)"/><path d="m33 16.25.45-.55.55 3.75.4 2.9-1.25 3.85q-2.4 5.55-7.25 9.05-3.6 2.65-10.15 3l-5.85-.2q-1.75-.1-4.85-2.8L4 34.3l-1-1.1q-.85-1.25-1.35-3.05l-.3-2q1.5 2.5 3.4 4.5l.95-.85q1.85-1.85 3.55-4.6l6.05.95q3 0 5.05-.7l8.25-3.6 1.7-.8q3.2-1.6 1.35-1.3l-1.35.1-.05.2-.1.05q-1.55 1.45-4.1 2.75-.6-.95-.85-2l.45-.25 2.15-1.2 2.5-2.35h.05V19l.1-.15 2.55-2.6M5.45 28.85l-.7.1h-.2l-.3-.1h1.2m5.1.25-1.5 1.7q-1.9 1.85-3.45 2.35l1.3.5 3.3.5q5.35.05 9.3-4.6-5.9 1.1-8.95-.45" fill="url(#m)" transform="translate(0 1.35)"/><path d="m28.4.65-.15-1.3v-.7h.7q2.5 1.6 3.65 4.55 1.1 2.75 1.15 5.85 0 2.65.55 5.35l.85 5.25q.45 3.15-.5 6.1l-.65 1.8-.4 1.45q-2.2 6.8-8.95 9.4-2.9 1.1-6.2 1.3H15.7q-4.65.3-6.3-.6l-.7-1q-4.8-1.6-6.8-6.05L3 33.2l1 1.1 1.05.95q3.1 2.7 4.85 2.8l5.85.2q6.55-.35 10.15-3 4.85-3.5 7.25-9.05l1.25-3.85-.4-2.9-.55-3.75-.45.55q.5-2.3-.3-5L30.95 3.2q-.8-2.5-2.2-3.2l-.35.65" fill="#282a7e" transform="translate(0 1.35)"/><path d="m19.75 25.9-2.75.35-5.25-.4-1.45-.6v-.05l-.1-.2 4.7.2h.85l4.05.15.1.25-.15.3" fill="#5ac9fe" transform="translate(0 1.35)"/><path d="m.6 26.85-.6-1.1.5-1.7.7-1.8.9-1.75-.45-.8-.1-.25L1.4 19l-.75-1.7.6-1.25q.9-1.8 2.4-3.6l.8-.8L5.5 10.5l.15.15.45.4q1.85 1.7 3 3.9l.7 1.5.05.15.15.55-2.45 2.8 1.4 2 .65 1.55.25.7.35.8.1.2v.05l-.25.45-.4.75-.4.75q-1.7 2.75-3.55 4.6l-.95.85q-1.9-2-3.4-4.5l-.1-.1-.65-1.2M9 15.7l-.4-.8q-1.05-1.95-2.45-3.2l-.35-.3-.4-.3-2 2.6-.1.2-1.8 2.7-.3.7.8 1.75.45.85.35.65.35.5 1 1.2.05.05.1-.05.9-.85.15-.1.85-.75.5-.45.3-.3q2.05-1.95 2.5-2.7l-.05-.2L9 15.7m.6 9.15-.25-.7-.85-1.75-1.25-2.2-.65.7-1.1 1-.65.6-.5.45-.2.15-1.3-1.45-.35-.55-.1.15-.8 1.6v.05l-.45.95Q.6 25.1.6 25.65l1.1 1.9q1.35 2.35 3.1 4.15l.45-.4q.45-.45.75-.6l.1-.1 2.6-3.55.5-.65.45-.8v-.1l.05-.55-.1-.1" fill="#993619" transform="translate(0 1.35)"/><path d="m1.5 16.6 1.8-2.7.1-.2 2-2.6.4.3.35.3q1.4 1.25 2.45 3.2l.4.8-1.35-1.45-.8-.85-1.4-1.5-1.35 1.75-.1.05-.15.25-2.25 2.9-.1-.25m2.65 5.65-1-1.2-.35-.5-.35-.65-.45-.85-.8-1.75.4-.45.95 2.05v.05l1.6 3.3m1.1 9.05-.45.4q-1.75-1.8-3.1-4.15l-1.1-1.9 1.55 1.9.8.95 2.3 2.8" fill="#ff0" transform="translate(0 1.35)"/><path d="m6.85 13.4.8.85q.55.85.45 2.05l-.5 1.8-1.05 1.2-.35.3-.65.55-.25.05H4.15l-.45-.1-.55-.3-.6-.85v-.05l-.05-1.55 1.65-.15q.7-.35.85-1.2v-.05q.5 0 .85-.4.4-.35.4-.9t-.4-.95q-.35-.35-.9-.35l-.3.05-.05-.35 2.05.2.2.15M5.8 17.6l-.4-.15q-.25 0-.4.15l-.1.25-.05.2.15.4q.15.2.4.2l.35-.1.05-.1.15-.4-.15-.45" fill="url(#n)" transform="translate(0 1.35)"/><path d="m9 15.7.45 1.2-2.65 2.7-.25-.3 1.05-1.2.5-1.8q.1-1.2-.45-2.05L9 15.7m-3.8 5.7-.9.85-.1.05-.05-.05-1.6-3.3.6.85.55.3.45.1H5.3l.25-.05.65-.55.3.35-.45.5-.75.85-.1.1m-4-4.1.3-.7.1.25 2.25-2.9-.2.7q0 .55.35.9.4.4.95.4L5 16q-.15.85-.85 1.2l-1.65.15.05 1.55-.95-2.05-.4.45m2.9-3.65 1.35-1.75 1.4 1.5-.2-.15-2.05-.2.05.35-.55.25m-3.5 12q0-.55.55-1.8l.45-.95v-.05l.8-1.6.1-.15.35.55 1.3 1.45.2-.15.5-.45.65-.6 1.1-1 .65-.7 1.25 2.2.85 1.75.25.7v.05l-.3.6-.45.8-.5.7-.3.4Q6.7 29.05 6.1 30.6l-.1.1q-.3.15-.75.6l-2.3-2.8 1.05.3.2.05h.05l.3.1h.2l.7-.1q1.55-.5 2.35-2l.2-.45.15-.75-.1-.55-.1-.5-.2-.6q-.5-1.1-1.35-1.35l-.9.1.1 1.7q-.25.8-1 1.1l-1.05.15H3.5l-1.55-.2.15 1.9.05.15-1.55-1.9m1.65-1.25v.1l.35.75.35.3.45.1h.05l.75-.25.1-.15q.35-.3.35-.85l-.1-.5-.25-.25-.75-.3-.6.1-.25.15q-.45.25-.45.8" fill="#ffd505" transform="translate(0 1.35)"/><path d="m9.45 16.9.05.2q-.45.75-2.5 2.7l-.2-.2 2.65-2.7m.15 7.95.1.1-.05.55v.1l-.45.8-.5.65-2.6 3.55q.6-1.55 1.95-3.2l.3-.4.5-.7.45-.8.3-.6v-.05" fill="#7adac6" transform="translate(0 1.35)"/><path d="m2.15 27.55-.05-.15-.15-1.9 1.55.2h.05l1.05-.15q.75-.3 1-1.1l-.1-1.7.9-.1q.85.25 1.35 1.35l.2.6.1.5.1.55-.15.75-.2.45q-.8 1.5-2.35 2h-.6l.1-.2.1-.45-.2-.5-.5-.15-.35.25-.1.55.2.4.1.1-.2-.05-1.05-.3-.8-.95" fill="url(#o)" transform="translate(0 1.35)"/></g><g id="N" fill-rule="evenodd"><path d="m.35 10.75-.25.05q.2-1 .95-2.4l1.1-1.9L4.2 3.55Q7.75-1.2 14.1.45L14 4.1q.6 5.55 4.2 9.35l1.1 2.2.85 2.55.05 1.25h-.05l-2.05.1-.45 2.7-3.35-1.2-1.05 1.1q-1.05 1.15-1.05 1.4-1.7-1.6-3.2-2.2L7.35 22.4l-.95-2.05-.05-.2.45.1 2 .2-2.65-1.05-.6-1.7 1.9-.35Q8.8 17.1 9.7 15.9q.85-1.25 1.35-3.35.5-2.1-.9-4Q8.8 6.6 6.3 6.65q-2.5.05-3.5 1l-.65.6-.45.4v-.3l-.1.4-.4 1.7-.85.3" fill="#a7ded3"/><path d="m7.35 22.4-.45.25q-.25.05-.55-.9l-.45-1.7.45.1.05.2.95 2.05m-5.6-6.2-.1-4.1.05-3.35v-.1l.45-.4.65-.6q1-.95 3.5-1 2.5-.05 3.85 1.9 1.4 1.9.9 4-.5 2.1-1.35 3.35-.9 1.2-2.25 1.45l-1.9.35q-1.85.1-3.4-1.15l-.35-.3-.05-.05" fill="#fff"/><path d="m14.1.45 1.65.55q-.3 1.35-.3 2.55-.2 3.75 1.85 6.45l2.85 4.25q1.1 1.95 1.4 3.25.7 3.25-1.4 5.25L17.7 24.3l-5.05 1.2q-5.25 0-7.25-2.45L4.35 20l-2.2-1.15-1.05-.8Q.6 17.5.25 16.5 0 15.75 0 13.75l.05-1.35H.1q0-.9.25-1.65l.85-.3.4-1.7h.1l-.05 3.35.1 4.1v.1l.05.45.35.5q.9.85 4 2.15l2.65 1.05-2-.2-.45-.1-.45-.1.45 1.7q.3.95.55.9l.45-.25L9 21.35q1.5.6 3.2 2.2 0-.25 1.05-1.4l1.05-1.1 3.35 1.2.45-2.7 2.05-.1h.05l-.05-1.25-.85-2.55-1.1-2.2Q14.6 9.65 14 4.1l.1-3.65m.3 21.25-1.8 2.15 1.9.1-.1-2.25m.8.35v1.7l2.4-.8-2.4-.9m-5.7 1.6 1.7.2-1.7-1.55v1.35m8.55-1.05 1.55-1.1-1.1-1.35-.45 2.45m-9-.7L7.6 23.15l1.3.2.15-1.45m10.85-1 .15-.55-.6-.05.45.6" fill="#282a7e"/><path d="M6.15 19.4q-3.1-1.3-4-2.15l-.35-.5-.05-.45.05-.05.35.3q1.55 1.25 3.4 1.15l.6 1.7" fill="#9edfec"/><path d="m14.4 21.7.1 2.25-1.9-.1 1.8-2.15m-5.35.2-.15 1.45-1.3-.2 1.45-1.25m9 .7.45-2.45 1.1 1.35-1.55 1.1" fill="#59e6ff"/><path d="m15.2 22.05 2.4.9-2.4.8v-1.7m-5.7 1.6V22.3l1.7 1.55-1.7-.2m10.4-2.75-.45-.6.6.05-.15.55" fill="#393dc3"/></g><g id="O" fill-rule="evenodd"><path d="m54.85 3.85-.5.2-4.1 1.45-2.3.55L49 7.35q-3.9 1.8-7.35 1.9l.05-.05q3.8-.8 4.5-1.7l-4.25-1q-4.45-1.35-5.6-3l5.1 1.05 9.4-.5 3.9-.35.1.15" fill="#ffd70a"/><path d="M62.4 0q1.55-.05.75 1.45-3.1 2.5-7.5 4.4l1.15.3q.9.5-.05 1.55-.65.5-2.3 1.2-3.35 1.35-8.3 2.3l-7.95.65q-6.05.2-8.85-.85-1.7-.7-.35-1.35 2-1 6.4-1.1l5.95-.7Q40.2 7.6 37.7 6l-2.25-1.55-.7-1.25q-.15-1.15 2.85-.6l6.05.6Q51.5 3.25 60.7.35L62.4 0M50.85 4.05l-9.4.5-5.1-1.05q1.15 1.65 5.6 3l4.25 1q-.7.9-4.5 1.7l-.4.05-2.45.35-6.2.7q6.3 1.05 14.75-.85 4.25-.95 7.25-2.1l-2.7-.8-.75-.4Q55 5 59.25 2.25l-8.4 1.8" fill="#953322"/><path d="M41.65 9.25q3.45-.1 7.35-1.9l-1.05-1.3 2.3-.55 4.1-1.45.5-.2.45-.25-.55.1-3.9.35 8.4-1.8Q55 5 51.2 6.15l.75.4 2.7.8q-3 1.15-7.25 2.1-8.45 1.9-14.75.85l6.2-.7 2.45-.35h.35" fill="#e5871a"/><path d="m60.35 48.1 1.35.1 7.25-.5 1.1-.25-1.65-1.3 2.15 1.15q3.8 1.85 6.65 2.65l2.6.4q2.15-.95 3.5-1.85l-.9-1.05 1.25.7.1.05L86 49.25q6.6 3.05 10.15 4.4 4.5 1.8 6.25 2.1l-1.15-1.7-12.15-15.7-8.5-2.8q-2.25-5.75-8.5-11.15-3.4-2.9-7.1-4.9l-.25-.1q-4.35-2.3-9.15-3.35l-3-.5-4.75-.15h-.15l-.2.05-1.45.15-2.55.5q-3.45 1-5.8 3l-.1.05-.8.8Q31.1 26 27.15 31.5l-1.1 1.65-2.05 3.1-.15.25-1.2 2.15-.35-.15.9-1.75.05-.05q.75-1.5 1.85-3.15l1.2-1.8 2.05-2.85 6.25-7.75q1.7-2.35 5-4.4 2.45-1.5 5.15-2.2l.25.15-.2-.2-1.95-1.55q-1.6-1.05-3.65-1.8-7.25-2.75-14.7 1.6h-.05q-3.5-2-7.8-1.95h-1.1l-1.15.25Q7.35 12.7 4.05 21.25l-.8 4.45Q3.1 31.15 5.6 38.15l-.5.2-.15-.7-1 .4Q.9 29.6 2.35 22.55q.55-2.45 1.55-4.4l.9-1.5q5.15-7.7 12.85-7.4 3.85.2 6.65 1.9 8.6-4.55 16.85-.5 3.05 1.5 5.15 3.5 3.2-.6 6.75-.15l1.55.25Q59.95 15.3 64.85 18l.65.35q3.15 1.8 6.15 4.35 6.6 5.55 9.75 11.95l3.55.85q3.85 1 5.15 1.95l13.1 17 .55.9.65.95q.45.45-1.8.3-2.3-.15-8.3-2.5l-8.1-3.25-1.9-1.15q-3.6 1.55-4.75 1.75-1.15.15-3.7-.65-2.6-.85-4.55-2.2l-6.7.4q-2.2 0-3.05.7-.7 6.3-4.2 11.4l-1.75 2.3-1.55 1.6-.9.8.8-1.05.95-1.25q-.55-1.85-4.1-3.5l-3.5-1.25q.3-1.8.05-3.4l-.15-.6.45.15v.05l.2 1.3-.1 1.95.55.2 2.65 1q3.35 1.55 4.35 3.45 2.2-3.35 3.45-6.85l1.05-4.25.35-3.65h.2m-20.9 22.8h-.2l-4.5.6q-.4.05-1.25.45l-1.15.45-2.15.4-1.9.1q-5.75 0-7.7-.95l-.4-.25-.25.05-2.7.3-4-.1q-1.85-.35-2.7-1.3l-.95-1.2-.65-1-1.25-2-.75-1.75q-.05-.5 1.8-5.35L8 58.25Q6.5 55.9 5.5 53.7l.95-.25.15-.05q1.3 3.1 3.75 6.15l-.3.15-.1-.05v.1Q9.9 60.8 9.3 62.3l-1.1 2.3.45.95.95 1.55.6.95q.4.6 2.1 1.85l.8.35 1.05.35h2.35l1.9-.05.35-.05 1.55-.4 1.15-.3.05-.05 1.2-.55 2.05-1q.95-.5 2-.45l2.3.05h.25l.4-.05h.05l5.4.15 2.8-1.05 2.35-1.75q-.15.4.1 1.35l.5 1.25.75.6 2.05 1.1 1.45 1-1.8-.55q-.9-.2-2.95-1.35l-.05-.3q-.05-1.15-.5-2.05l-.5.6-2.1 1.15q-.25 0-.5.15l-1.7.3-1.1.05q-5.2-.25-7 0l-1.8.3-.8.35q-.9.2-1.95.7l-.55.3-1.25.65 3.5.95 3.25.6 4.65-.4q2.05-.45 3.35-1.2l.1-.05.1.15.4.05 1.45-.2h1.85l1.25.2.1.05-.05.05h-1.1M4.05 49.6q-.65-2.45-.6-4.7 0-.75.15-1.45l.75.6.5-.4.3.2q-.15.95-.15 2l.1 1.75-.2.5h-.5l-.35 1.5M20 26.7l.4-.45.2.55h-.05q-1.35 1.3-2.45 3.05l-.2-.65 1.2-1.6.9-.9m-2.95 33 1.75-.95.3-.1v-.05h.05l.4-.15-1.8 1.25-1 .65q-1.65 1.1-2.55 1.9l-.75.9-1.05 1.75q-.55 1.05-1.35 3.35l.1-1.6.5-1.2q.35-1 .85-1.9l1.1-1.6 1.1-.8 2.35-1.45" fill="#212379"/><path d="m5.5 53.7-2.65.55.85-3.5.35-1.15.35-1.5h.5l.2-.5 1.1-2.95-1.05-.8-.3-.2-.5.4-.75-.6L1 41.2l-1-1.05q.2-.45 2.6-1.55l1.35-.55 1-.4.15.7.5-.2 2.05-.85 2.75-1.2q1.3-2 4.5-4.8l2.9-2.4.1.3.2.65 1.15 4.35.45 2.15.25 1.25.5.2 1.15.4.7.3.35.15 6.3 2.95-7.7 5.15v5.05l.3 3.85-9.15-4.85-5.85 2-.05.35-.05.3-.95.25M17.25 30l-2.75 2.5q-2.95 2.8-3.95 4.3l-.8.35-.7.3-.1.05-1.2.5-1.9.75-1.4.55-2.5.95-.25.1 5.1 4-.05.25-1.2 4-.25.4.05.25-1.1 3.5.3-.05.45-.15 1.15-.35 6.15-2.05 8.55 4.4v-.2l-.2-1.65-.05-2.65v-3.3h-.1v-.05l.15-.3.15-.15.2-.1.35-.3 1.7-1 .25-.2.35-.25q3.35-2.45 3.9-2.45l-.4-.2-4.85-2.5-.3-.1-.5-.25-1.8-.75-.15-.1-.2-.05-.3-1.25-.6-2.25-.95-3.65-.2-.75v-.05l-.05-.05" fill="#953322"/><path d="M59 45.8v.45l-3.1-4.3q-1-1.9-2.55-1.8l-.05-.1-.1-.25h-1.4q-3.1-.05-5.4-.95l-1.9-.65-.55-.15L47 34.9l6.15.45 2.3.4Q58 43.55 59 45.8M26.3 31.75l-1.2 1.8-2.2 1.1.65-1.95.05-.1 2.7-.85m-3.1 5-.9 1.75-.7-.3-1.15-.4 1.35-.55 1.4-.5M37.7 19.1q2.35-2 5.8-3l2.55-.5 1.45-.15.2-.05h.15l4.75.15-.4 3.25-1.5-.45-2.35-.75q-2.95-.7-6.45.1l-4.2 1.4m-17.75-5.55q.1.35 1.6.6L19.1 17.4q-1.75 4.25.9 9.3l-.9.9-1.2 1.6-.1-.3-2.9 2.4q-3.2 2.8-4.5 4.8l-2.75 1.2Q6.3 27.05 7.7 23.75q1.6-3.8 3.65-6.45 2-2.7 8.6-3.75" fill="#9edfec"/><path d="M24.45 12.75h.05q7.45-4.35 14.7-1.6 2.05.75 3.65 1.8l1.95 1.55.2.2-.25-.15-2.05-1.45q-2.15-1.65-5.3-1.4-3.15.2-3.75.9l-3.95 3.75q-.6-1.6 0-3.2-2.45 1.6-3.6 3.35-1.15 1.7-1.3 5.4-2.25-.55-2.25-1.35l-.3-2.55q-.45-.15-.85 1.85-.45 2-.4 4.05l.15 1.55.15.85-.7.5-.2-.55q-.5-1.25-.65-2.5l-.15-1-.2.05q-.95-3.15 1.1-6.25.55-.9 1.4-1.7l1.15-1.1 1.4-1" fill="#59a9ff"/><path d="m52.6 15.55 3 .5q4.8 1.05 9.15 3.35l-2.7 3.45v.05l-2.4-1.3q-2.95-1.45-6.25-2.5l-1.2-.3.4-3.25M42.35 39l-.25.05-.95.2-1.7.35q-.65.15-1.15.45l1.15-2.55.9-.45 1.65 1.6.35.35" fill="#3c3fc9"/><path d="M44.75 14.55q-2.7.7-5.15 2.2-3.3 2.05-5 4.4l-6.25 7.75-2.05 2.85-2.7.85-.75.25-.75.3q.3-3.15-.35-5.15l-.45-1.7-.15-.85L21 23.9q-.05-2.05.4-4.05.4-2 .85-1.85l.3 2.55q0 .8 2.25 1.35.15-3.7 1.3-5.4 1.15-1.75 3.6-3.35-.6 1.6 0 3.2l3.95-3.75q.6-.7 3.75-.9 3.15-.25 5.3 1.4l2.05 1.45m-19.65 19Q24 35.2 23.25 36.7l-.05.05-1.4.5-1.35.55-.5-.2-.25-1.25 2-1.1 1.2-.6 2.2-1.1" fill="#3c3dc7"/><path d="M101.25 54.05 92 49.45q-4.2-2.15-9-4-3.35-.5-3 .7l1 1.3-3.1.1q-1.15 0-4.3-1-3.4-1.05-5.1-2.1-1.5-.95-1.5.25 0 .6.3 1.35l-1.15.15-.35.25h-3.45l-.65.05-.3-4.25q-.2-2.7-.95-5.8l7.05-.7 5.2 8.9 1.4.1q-2.2-4.5-4.3-9.7.1-.1.25-.15 1.65-.75 1.65-1.55-1.45-4.05-5.15-7.3Q65.3 22.2 65 19.5q3.7 2 7.1 4.9 6.25 5.4 8.5 11.15l8.5 2.8 12.15 15.7" fill="#3c3bc4"/><path d="m61.7 46.5.65-.05h3.45l.35-.25 1.15-.15q-.3-.75-.3-1.35 0-1.2 1.5-.25 1.7 1.05 5.1 2.1 3.15 1 4.3 1l3.1-.1-1-1.3q-.35-1.2 3-.7 4.8 1.85 9 4l9.25 4.6 1.15 1.7q-1.75-.3-6.25-2.1Q92.6 52.3 86 49.25l-2.25-1.05-.1-.05-1.25-.7.9 1.05q-1.35.9-3.5 1.85l-2.6-.4q-2.85-.8-6.65-2.65l-2.15-1.15 1.65 1.3-1.1.25-7.25.5-1.35-.1L59 46.25v-.45l.4.75 2.3-.05" fill="#5ba4ff"/><path d="M65 19.5q.3 2.7 1.55 6.55-1.95-1.65-4.45-3.15l-.05-.05 2.7-3.45.25.1m4.8 15.55q2.1 5.2 4.3 9.7l-1.4-.1-5.2-8.9 2.3-.7" fill="#97ddea"/><path d="m19.25 34.2-1.15-4.35q1.1-1.75 2.45-3.05h.05l.7-.5.45 1.7q.65 2 .35 5.15l-2.85 1.05" fill="#59d0ff"/><path d="M15.55 10.8h1.1q4.3-.05 7.8 1.95l-1.2.1-1.95.4-.55.15-.8.15-2.9-1.6q-1.3-.75-1.5-1.15" fill="#5584ff"/><path d="m24.45 12.75-1.4 1-1.15 1.1q-.85.8-1.4 1.7-2.05 3.1-1.1 6.25l.35.95q.15 1.25.65 2.5l-.4.45q-2.65-5.05-.9-9.3l2.45-3.25q-1.5-.25-1.6-.6l.8-.15.55-.15 1.95-.4 1.2-.1" fill="#383abe"/><path d="M40.35 37.05q1.95-1 3.85-1.7l2.8-.45-3.05 3.15-1.95.6-1.65-1.6" fill="#3a2dac"/><path d="M29.75 67.7v.05h-.05l.05-.05" fill="#afdebf"/><path d="m47 54.1-2.5-.5 1.4-2.85-2.85-1 .05-1.3 3.65 2.1-.6 2.5.85 1.05M17.25 30l-.05.3h-.05q-.8 1.35-1.05 2.4L15 35.1l-.45.95-2.5 5.3.1.1q.9-.55 3.95-1.95l2.65-1.2q.2-.15.45-.2l.15-.1.2.05.15.1 1.8.75.5.25.3.1 4.85 2.5H21.1l-2.35-.05-6.45-.05h-.2l-.2-.05v-.05h.1v-.15l-.1-.15-2.15-4.1.8-.35q1-1.5 3.95-4.3l2.75-2.5M12 41.55l.1.05-.05-.1-.05.05m-10.05-1.3 2.5-.95 1.4-.55 1.9-.75 1.2-.5.1-.05.25.3 2.35 3.6.1.15-.5-.05v.05l-.15-.05-9.15-1.2m3.6 8.35L7 44.55q1.35-.55 4.8-2.65l-.1.15-.15.25-5.8 8.7-.85 1.25-.35.45-.3.05 1.1-3.5.2-.65m6.35-6.65v-.1l.05-.05.2-.15.15.05q6.55 3.35 8.35 4.7l-.15.3-3.85-2.25-4-2.2v.05l.1.15-.1-.2 6.8 10.15 1.4 1.95v.2l-8.55-4.4q-.25-1.7-.35-7l-.05-1.2" fill="#ffd70a"/><path d="m9.75 37.15 2.15 4.1.1.15v.15h-.05l-.05-.05h-.15l-.1-.15-2.35-3.6-.25-.3.7-.3" fill="#e3821d"/><path d="M66.55 26.05q3.7 3.25 5.15 7.3 0 .8-1.65 1.55-.15.05-.25.15l-.65-1.65-2.6-7.35m.95 9.7-7.05.7H58.6l-3.15-.7-2.05-6.5q-1.35.7-6.05 5.3l-.35.35-2.8.45q-1.9.7-3.85 1.7l-.45-.35q2-3.6 5.85-8.05 3.35-3.85 6.45-6.6V18.8l1.2.3q3.3 1.05 6.25 2.5l2.4 1.3h.05l.75 2.65q1.3 4.25 2.15 5.8l2.5 4.4" fill="#59a5ff"/><path d="m43.95 38.05.55.15 1.9.65q2.3.9 5.4.95h1.4l.1.25.05.1q1.95 4.7 3.45 6.55.75 1 1.1.95l1 .2-.3 4-4.5-1.1q-.75-.6-4.5-2.4l-3.6-1.7q-.05-3.75-3.65-7.65l-.35-.35 1.95-.6" fill="#3a28a5"/><path d="m42.15 39.15-.05-.1.25-.05q3.6 3.9 3.65 7.65l3.6 1.7q3.75 1.8 4.5 2.4l4.5 1.1.3-4 1.25.2v.05l-.35 3.65L58.75 56q-1.25 3.5-3.45 6.85-1-1.9-4.35-3.45l-2.65-1 2.7.45q2.85.6 3.55 1.5l1-1.45-4.75-3.6-.75-.6-1.65-2 1.7-3.85-5.65-2.25q-1.1-6.15-2.3-7.45M57.1 55.4q-4.6-3.1-6.8-5.3l-.65 2.1 2.95 1.65 4.1 2.7.4-1.15m-9.35-.5.4.1h.1l.1 1.25-.05 2.15-.55-.2.1-1.95-.2-1.3.1-.05" fill="#5987ff"/><path d="m59 46.25 1.35 1.85h-.2v-.05l-1.25-.2-1-.2q-.35.05-1.1-.95-1.5-1.85-3.45-6.55 1.55-.1 2.55 1.8l3.1 4.3m-53.4-8.1q-2.5-7-2.35-12.45l.8-4.45q3.3-8.55 10.35-10.2l1.15-.25q.2.4 1.5 1.15l2.9 1.6q-6.6 1.05-8.6 3.75-2.05 2.65-3.65 6.45-1.4 3.3-.05 13.55l-2.05.85m17.05.5 1.2-2.15.25-.1-.1-.15 2.05-3.1 1.1-1.65Q31.1 26 36.8 19.95l.8-.8.1-.05 4.2-1.4q3.5-.8 6.45-.1l2.35.75 1.5.45v3.25q-3.1 2.75-6.45 6.6-3.85 4.45-5.85 8.05l-.45.8-5.25 2.95q-8.55 5.3-12.95 11.35v-5.05l7.7-5.15-6.3-2.95M47 34.9l.35-.35q4.7-4.6 6.05-5.3l2.05 6.5-2.3-.4L47 34.9m20.5.85-2.5-4.4q-.85-1.55-2.15-5.8l-.75-2.65q2.5 1.5 4.45 3.15l2.6 7.35.65 1.65-2.3.7m-47.8.6-.45-2.15 2.85-1.05.75-.3.75-.25-.05.1-.65 1.95-1.2.6-2 1.1m-9.35 23.2 1.15-.5q2.55-.8 3.9.3l.85.3.8.05-2.35 1.45-1.1.8-1.1 1.6q-.5.9-.85 1.9l-.5 1.2-.1 1.6q.8-2.3 1.35-3.35l1.05-1.75 3.05-1.85q1.9-1 3.45-1.5 1.95-.65 3.35-.5l3.95 1.1 1.7.35 2.75-.1.85-.15q2.85-.5 5.6-3.5L41 52.9l-.05 1.9q-.65 3.65-3.8 6.25l.65.85q.55 1.05.2 2.05-1 2.6-8.25 3.75l-.45.1h-.25l-2-.05h-.3q-1.05-.05-2 .45l-2.05 1-1.2.55-.05.05-1.15.3-1.55.4-.35.05-1.9.05.3-.05-.35.05h-2.3l-1.05-.35-.8-.35q-1.7-1.25-2.1-1.85l-.6-.95-.95-1.55-.45-.95 1.1-2.3q.6-1.5.65-2.55l.1-.05 1 .7-.7-.85M40.3 68.3l-.55-1.2h-.25q-.85.7-2.25.8l2.1-1.15.5-.6q.45.9.5 2.05l-.05.1m-18.45 1.75 3.75.9 4.8.55 2.6-.2 2.35-.65q-1.3.75-3.35 1.2l-4.65.4-3.25-.6-3.5-.95 1.25-.65m-4.65-16.1-3 1.7-4.6-1.4 3.25-2.15 4.35 1.85" fill="#fff"/><path d="m43.05 49.75-1.5-.6q-1.5-.65-1.1-3.5.3-2.3 1.6-4.75l.55.95q1.4 2.85 1.2 5.05l5.5 2.25-1.6 3.55 1.5 1.8-2.2-.4-.85-1.05.6-2.5-3.65-2.1-.05 1.3" fill="#d57022"/><path d="M42.15 39.15q1.2 1.3 2.3 7.45l5.65 2.25-1.7 3.85 1.65 2 .6.75-2.4-.45h-.1l-.4-.1h-.1l-.45-.15-3.5-.75 1.65-3.1-2.35-.6-.1-.05q-3.85-.55-2.7-5.9l1.5-4 .45-1.2M47 54.1l2.2.4-1.5-1.8 1.6-3.55-5.5-2.25q.2-2.2-1.2-5.05l-.55-.95q-1.3 2.45-1.6 4.75-.4 2.85 1.1 3.5l1.5.6 2.85 1-1.4 2.85 2.5.5" fill="#9a3217"/><path d="M19.95 59.8q-1.55.5-3.45 1.5l-3.05 1.85.75-.9q.9-.8 2.55-1.9l1-.65 2.2.1" fill="#a4dfdd"/><path d="m1.95 40.25 9.15 1.2.15.05.5.15h.05l-.15.1h.2l-.05.1v.05Q8.35 44 7 44.55l-.25.05.05-.25-5.1-4 .25-.1" fill="url(#p)"/><path d="m19.35 38-.15.1q-.25.05-.45.2l-2.65 1.2q-3.05 1.4-3.95 1.95l-.1-.1 2.5-5.3.45-.95 1.1-2.4q.25-1.05 1.05-2.4h.05l.1-.2.2.75.95 3.65.6 2.25.3 1.25" fill="url(#q)"/><path d="M11.25 41.5v-.05l.5.1v.1l-.5-.15" fill="url(#r)"/><path d="M11.9 41.55v.05l.2.05h.05l-.35.1h-.15l.15-.1h-.05v-.1h.15" fill="url(#s)"/><path d="m4.55 52.7.35-.45.85-1.25 5.8-8.7.15-.25.1-.15h.05l.05.05.05 1.2q.1 5.3.35 7L6.15 52.2 5 52.55l-.45.15" fill="url(#t)"/><path d="m12.3 41.65 6.45.05 2.35.05-.05.35.1-.35h6l.4.2q-.55 0-3.9 2.45l-.35.25-.25.2-1.7 1-.35.3-.2.1-.15.15q-1.8-1.35-8.35-4.7v-.05" fill="url(#u)"/><path d="m12.65 42.25 4 2.2 3.85 2.25.1.25v3.1l.05 2.65.2 1.65-1.4-1.95-6.8-10.15" fill="url(#v)"/><path d="m53.15 65.8-.1.1 1.05-.7q.6 2.35-5 4.65l-7.7 2.3L39.45 71v-.1h1.1l.15.05-.1-.1-.1-.05-1.25-.2H37.4l-1.45.2-.4-.05.4-.5-.5.35-.1.05-2.35.65-2.6.2-4.8-.55-3.75-.9.55-.3q1.05-.5 1.95-.7l.8-.35 1.8-.3q1.8-.25 7 0l1.1-.05 1.7-.3.3-.1.2-.05q1.4-.1 2.25-.8h.25l.55 1.2.1.25v-.05q2.05 1.15 2.95 1.35l1.8.55-1.45-1-2.05-1.1-.75-.6-.5-1.25q-.25-.95-.1-1.35l-2.35 1.75-2.8 1.05-5.4-.15v-.05Q37 66.55 38 63.95q.35-1-.2-2.05l-.65-.85q3.15-2.6 3.8-6.25l.05-1.9-2.85 4.1q-2.75 3-5.6 3.5l-.85.15q-.5-1.5-2.2-3.85-2.3-3.2-3.9-3.2-1.75 0-3.75 2.2l-2.75 2.8v.05l-.3.1-1.75.95-.8-.05-.85-.3q-1.35-1.1-3.9-.3l-1.15.5Q7.9 56.5 6.6 53.4l-.1-.25.05-.35 5.85-2 9.15 4.85-.3-3.85q4.4-6.05 12.95-11.35l5.25-2.95-1.15 2.55q.5-.3 1.15-.45l1.7-.35.55 1.1-1.5 4q-1.15 5.35 2.7 5.9l.1.05 2.35.6L43.7 54l3.5.75.15.6q.25 1.6-.05 3.4L50.8 60q3.55 1.65 4.1 3.5l-.95 1.25-.8 1.05M17.2 53.95l-4.35-1.85-3.25 2.15 4.6 1.4 3-1.7" fill="url(#w)"/><path d="m57.1 55.4-.4 1.15-4.1-2.7-2.95-1.65.65-2.1q2.2 2.2 6.8 5.3" fill="url(#x)"/><path d="m50.8 55.3 4.75 3.6-1 1.45q-.7-.9-3.55-1.5l-2.7-.45.05-2.15-.1-1.25 2.4.45.15-.15" fill="url(#y)"/><path d="m19.1 58.6 2.75-2.8q2-2.2 3.75-2.2 1.6 0 3.9 3.2 1.7 2.35 2.2 3.85l-2.75.1-1.7-.35-3.95-1.1q-1.4-.15-3.35.5l-2.2-.1 1.8-1.25-.4.15h-.05" fill="url(#z)"/><path d="m61.7 46.5-2.3.05-.4-.75q-1-2.25-3.55-10.05l3.15.7h1.85q.75 3.1.95 5.8l.3 4.25" fill="#3c3cc5"/><path d="M35.35 47.55v-.05l-.45-3.25-1.2.85-1.1.8.1.75q.25 2.3.1 4.6l-.05.55v.15l-.35 1.7-.05.2-.35 1.1-.5 1.15-.8 1.2-.5.45-.05.05-1 .35h-.25l-.6-.05-.9-.45-.7-.65.6.4.15.05 1.4.35h.2l1.05-.45.35-.3.35-.4.4-.7.2-.4v-.05l.35-.9.4-1.6.1-.4.1-1.1.05-2.4-.25-2.85-1 .75q-3.25 2.45-5.25 4.6-.25 2.2.4 3.85l-.05.25.25.95-.2-.35-.3-.6q-.8-1.65-.6-3.8l-.7.7.15 1.75q.25 1.25.85 2.35l.1.2.1.15q1.5 1.65 3.4 1.6l1.1-.15 1.1-.4.85-.45 1.3-1.8.6-.9.65-1.8.4-1.95.15-2.3-.1-1.35m-2.6-3.25q6.4-5.3 9.2-5.8l1.7.1.3.05L42.7 40q-.75 1.2-1.05 2.3 0 4.1-.6 9.5-.45 2.25-1.35 3.95-1.35 2.35-3.55 3.75-1.2.75-2.35 1.1l-.45.1-.4.1h-.4q-3.85-.25-6.15-2.05l-.5-.45-.8-.9-1.35-3q-.2-.35-1.3.7l-.6.6-1.6 1.8q.05-1.1 3.55-4.75l3.45-3.45 3.35-3.1 2.15-1.9m6.9 8.1.5-2.8q.3-3.85-.4-7.2l-.25-1.2q-1.95 1.2-4.15 2.75l.6 3.7-.1 3.4q-.35 2.75-1.6 4.7l-1.8 2.3-.6.4-1.15.5-1.25.1q-1.25-.1-2.65-.9l1.7 1.3 2.05.35q6.8.85 8.7-5.5l.25-1.15.15-.75"/><path d="m26.5 54.45-.05-.35q0-1.45.7-2.45.75-1 1.8-1t1.75 1l.45.8.3 1.65-.2 1.35-.55 1.1v.05l-.35.35-.3.25-1.05.35h-.05l-.85-.2.15-.05.25-.15.25-.2.2-.3.35-.8q.15-.65-.35-1.25-.55-.65-1.2-.65-.7 0-1.1.5h-.15" fill="#610f24"/><path d="m32.4 49.1-.05 2.4-.1 1.1-.1.4-.4 1.6-.35.9v.05l-.2.4-.4.7-.35.4-.35.3-1.05.45h-.2l-1.4-.35-.15-.05.95-.1-.15.05.85.2H29l1.05-.35.3-.25.35-.35v-.05l.55-1.1.2-1.35-.3-1.65.45-1 .8-2.35" fill="#441116"/><path d="m32.75 51.8.3-.25 1.8-.8.35-1.85.15-1.35.1 1.35-.15 2.3-.4 1.95-.65 1.8-.6.9q-.9-.15-1.5-.7l-.15-.2.35-1.1h.2q.35.4.85.4t.8-.4l.35-.85q0-.5-.35-.9-.3-.35-.8-.35-.4 0-.65.2v-.15" fill="#ff536d"/><path d="m33.65 55.85-1.3 1.8-.85.45-.8-.8.8-1.2.5-1.15.15.2q.6.55 1.5.7M30.4 58.5l-1.1.15-.15-.5 1-.35.25.7" fill="#ffcf00"/><path d="M25.7 56.7q-.6-1.1-.85-2.35l-.15-1.75.7-.7q-.2 2.15.6 3.8l-.3 1" fill="#a9313a"/><path d="M26.3 55.45q-.65-1.65-.4-3.85 2-2.15 5.25-4.6l1-.75.25 2.85-.8 2.35-.45 1-.45-.8q-.7-1-1.75-1t-1.8 1q-.7 1-.7 2.45l.05.35v.3l-.2.7" fill="url(#A)"/><path d="M29.3 58.65q-1.9.05-3.4-1.6l-.1-.15-.1-.2.3-1 .3.6.2.35.15.25.05.05V57l.7.65.9.45.6.05h.25l.15.5" fill="#ff4c86"/><path d="m32.75 51.8.05-.55q.15-2.3-.1-4.6l-.1-.75 1.1-.8 1.2-.85.45 3.25v.05l-.15 1.35-.35 1.85-1.8.8-.3.25" fill="url(#B)"/><path d="m35.85 51.05.1-3.4-.6-3.7q2.2-1.55 4.15-2.75l.25 1.2q.7 3.35.4 7.2l-.5 2.8-.25-1.8-3.1.3-.45.15" fill="url(#C)"/><path d="m26.5 56.65-.25-.95.05-.25.2-.7v-.3h.15q.4-.5 1.1-.5.65 0 1.2.65.5.6.35 1.25l-.35.8-.2.3-.25.2-.25.15-.95.1-.6-.4v-.05l-.05-.05-.15-.25m5.85-2.8.05-.2.35-1.7q.25-.2.65-.2.5 0 .8.35.35.4.35.9l-.35.85q-.3.4-.8.4t-.85-.4h-.2m3.5-2.8.45-.15 3.1-.3.25 1.8-.15.75-.25 1.15q-1.9 6.35-8.7 5.5l-2.05-.35-1.7-1.3q1.4.8 2.65.9l1.25-.1 1.15-.5.6-.4 1.8-2.3q1.25-1.95 1.6-4.7" fill="#fff"/></g><g id="P" fill-rule="evenodd"><path d="M.4 21.8 0 17.85q.45-1.95 1.05-2.9Q2 13.5 3.4 14.8q1.2 1.1 3.2 1.15l.2 3.8q1.3 6.85 6.45 10.95l3.25 3.15-.2.85q-1.85 7.45-6.1 9.65-1.5-1.5-3.1-3.8l-.3-.45q-1.45-2.2-3-5l-1.05-3.65L.4 21.8m6.4 14.5q1.5.95 3.35-.85l.55-2.2q.2-2.35-1.55-3.05l-.3 2.35q-.75 2.55-3.2 2.4L6.8 36.3m8.7 11.05q3.35-3 4.7-9.55 3.35 4.65 1.05 6.75-3.15 2.8-5.75 2.8" fill="#fff"/><path d="m11.45 18.6 3.45 3.75 2.5 2.55v1.05q-2.05-2.2-5.95-7.35M21 27.4l1.45.35.25.6-1.7-.4v-.55m14.6 16.4h.15q.75 1.1-.6 6.65l.25.5q-.55 2.5-3.15 3.8-1.3.65-2.5.8L26 53.95l1.25 2.1q-1.15 2.3-4.8 2.95-2.85.5-4.7-.05-1.05-.3-3.05-2.9l-2.65-3.7.85-.15q3.9 5.4 5.5 5.75l3.6-.45q3.7-.6 3.9-1.55l-.55-.6-.05-.05q-2.9-3.4-3.05-4.7l.7.45.45.35 1.2.75 1.65.65 1.65.5 1.85 1q1.75.1 3.3-1.5.9-.95 1.45-2.3l.65-2.75.35-2.3.1-1.65m-25.3 6-2.6-4.6-.35-.65-.25-.45v-.05L5.15 40.1 3 35.05l-1.05-3.4q-.8-3.2-1.35-7.6L.4 21.8l2.35 9.65L3.8 35.1l1.7 5 1.6 3.2.5.7.5 1.1.15.1 2.9 4.45-.85.15" fill="#282a7e"/><path d="M6.6 15.95h.6l2.05-.35.6.8 1.6 2.2q3.9 5.15 5.95 7.35l-.05 1.2q-.15 3.65-.85 6.7l-3.25-3.15Q8.1 26.6 6.8 19.75l-.2-3.8" fill="url(#D)"/><path d="M11.15 49.65q2.5-.65 4.35-2.3 2.6 0 5.75-2.8 2.3-2.1-1.05-6.75l.2-1.05q.7-4.05.6-8.8l1.7.4.1.15q1.25 2.85 1.7 5.75 1.45 9.25-5.75 15.2-1 1-3.05 1.85l-2.3.8-.25.05-.25.05-.6-.85-1.15-1.7" fill="url(#E)"/><path d="m32.95 37.25.1.4-3.55.35-2.2.25q.4-.65 2.35-1.25l1.9-.45-3-6.25.3-.05h.2l1.5 2.4 2.4 4.6m2.2 6.2.05-.05.15.1.25.2v.1l-.1 1.65-.35 2.3-.65 2.75q-.55 1.35-1.45 2.3-1.55 1.6-3.3 1.5l-1.85-1-1.65-.5-1.65-.65-1.65-1.1-.7-.6-.15.05q-.65-.6.3-.6l1.25.2 1.45.3h.4q2.45.2 4.95 1.3-1.05-2.2-3.35-3.4-1.75-.9-1.65-2.65.15-1.8 1.95-1.6 2.4.25 6.7 4.15.15.4.35-.25.35-1.05.7-4.5m-24.95.9q4.25-2.2 6.1-9.65l.2-.85 2.4 2.3 1.3 1.65q-1.35 6.55-4.7 9.55l-2.15-.5q-1.5-.75-3.15-2.5m2.7 7.85.25-.05.25-.05 2.45 2.2 3.6 2.9h.85q-.85-1.7-1.25-3.15-.75-2.9 1.6-1.6 3.85 2.95 3.9 3.35l.75-.5.05.05.55.6q-.2.95-3.9 1.55l-3.6.45q-1.6-.35-5.5-5.75" fill="#ffd70a"/><path d="m22.85 28.4-.05.1v-.1h.05" fill="url(#F)"/><path d="m20.2 37.8-1.3-1.65-2.4-2.3q.7-3.05.85-6.7l.05-1.2q1.2 1.35 1.75 1.6l1.85.4q.1 4.75-.6 8.8l-.2 1.05" fill="url(#G)"/><path d="M35.15 43.35v.1q-.35 3.45-.7 4.5-.2.65-.35.25-4.3-3.9-6.7-4.15-1.8-.2-1.95 1.6-.1 1.75 1.65 2.65 2.3 1.2 3.35 3.4-2.5-1.1-4.95-1.3h-.4l-1.45-.3-1.25-.2q-.95 0-.3.6l.15.1q.15 1.3 3.05 4.7l-.75.5q-.05-.4-3.9-3.35-2.35-1.3-1.6 1.6.4 1.45 1.25 3.15h-.85l-3.6-2.9-2.45-2.2 2.3-.8q2.05-.85 3.05-1.85 7.2-5.95 5.75-15.2-.45-2.9-1.7-5.75l.05-.1q1.5.3 4.9 1.5l.3.15.5.25 3 6.25-1.9.45q-1.95.6-2.35 1.25l-.1.1 3.6 2.45 4.35 2.55" fill="url(#H)"/><path d="m8.2 45.1 2-.75q1.65 1.75 3.15 2.5l2.15.5q-1.85 1.65-4.35 2.3l-2.9-4.45-.05-.1" fill="url(#I)"/><path d="M3.8 35.1q1.55 2.8 3 5l.3.45q1.6 2.3 3.1 3.8l-2 .75h-.1L7.6 44l-.5-.7-1.6-3.2-1.7-5" fill="#99deeb"/><path d="m29.55 30.25.35.45q1.4 1.9 2.4 4.6l.65 1.95-2.4-4.6-1.5-2.4h.5m3.5 7.4.1.4-3.6.45-1.15.3q2.05.6 6.75 4.5v.05L30.8 40.8l-3.6-2.45.1-.1 2.2-.25 3.55-.35" fill="#953322"/><path d="m17.4 24.9 2.25 2.15 1.35.35v.55l-1.85-.4q-.55-.25-1.75-1.6V24.9m5.05 2.85 5.1 1.6.65.25 1.1.4.1.05.15.2h-.7l-.3.05-.05-.1-.45-.15-.3-.15q-3.4-1.2-4.9-1.5h-.05l-.1-.05-.25-.6m-10.4 24.6-.65-.9-1.1-1.65.85-.15 1.15 1.7.6.85-.85.15" fill="#912c22"/><path d="m6.8 36.3-1.15-1.35q2.45.15 3.2-2.4l.3-2.35q1.75.7 1.55 3.05l-.55 2.2q-1.85 1.8-3.35.85" fill="#9edfec"/><path d="M8.7 1.25 9.9 0l3.7 3.6-1.3 3.3 2.4 1 1.7 3.2q1.6 3.35 1.2 4.2l-2.7 1.5 1 1.75 1 2.15q0 .5-4.1.95L7 21.5l-3.1-7.6h.9l2.4 6.6 1.4.5 6.6-.25.4-.05q-1.65-3.7-2.85-5.45l.35.35 3-.6h.05l.45-.1-2.5-6.1-.5-.35-.15-.1q-1-.5-2.5-.65L6.7 7.6l-1.6-.1.45-.1 2-.25 1.2-.2L9 7l.65.1.65.1 1.55-1.7.6-1.3-.3-.3L8.7 1.25" fill="#902c23"/><path d="m7.6 2.4 1.1-1.15 3.45 2.65q-1.55 2.55-2.5 3.2L9 7v-.1l.9-1.45.2.05.25-.15.15-.3-.15-.35-.25-.1-.3.1-.1.35-.05.05L7.6 2.4M4.15 13.9l-.6-1.75Q3 10.6 3 10.05q0-.7.8-2.2l.6-1q.1.45.7.65l1.6.1 4.25.1q1.5.15 2.5.65l.5 1.35-.3-.4Q13 8.75 12 8.4q-1.9-.75-3.45.25l-.4.5q-.35.65.1 1.5l1.95-.2.7.2.15.3.35.15h.2q.8.7 1.05 2.2.95-.15 1.55-.7.45-.45.5-1.05L16.1 15l-3 .6-.35-.35-1.4-1.5-.05-.05h-.45L12.3 16l-.65-.45-2.25-.85q-1.45-.2-2 .75-.3.45-.3.95 1.3.05 2.25.9l1 1.25.75 2.05q1.4.4 2.05-.3l.35-.8-.05-1.6 1.75 2.85-6.6.25-1.4-.5-2.4-6.6h-.65m5.15 3.45q-.4-.35-1-.35t-1 .35q-.4.4-.4.9t.4.85q.4.4 1 .4t1-.4q.4-.35.4-.85t-.4-.9" fill="#e2a614"/><path d="m9.7 5.05.1-.35.3-.1.25.1.15.35-.15.3-.25.15-.2-.05V5.4l-.2-.25v-.1m1.2 5.6v-.05l.15-.35q.15-.15.35-.15l.35.15.15.35-.15.35-.15.15h-.2l-.35-.15-.15-.3m3.4.6-.4.15-.45-.15-.15-.25.15-.3.45-.1.4.1.2.3-.2.25m-1.4 6.7-.2.4-.5.15-.5-.15-.2-.4.2-.4.5-.15.5.15.2.4m-3.6-.6q.4.4.4.9t-.4.85q-.4.4-1 .4t-1-.4q-.4-.35-.4-.85t.4-.9q.4-.35 1-.35t1 .35" fill="#fff"/><path d="M4.4 6.85q-.1-.35.15-.85.2-.55.75-1.25L7.6 2.4l2.05 2.7.05.05.1.2.1.1L9 6.9l-.25.05-1.2.2-2 .25-.45.1q-.6-.2-.7-.65" fill="#b9512d"/><path d="m10.9 10.65-.7-.2-1.95.2q-.45-.85-.1-1.5l.4-.5q1.55-1 3.45-.25 1 .35 1.65.9l.3.4.65 1.3.1.55q-.05.6-.5 1.05-.6.55-1.55.7-.25-1.5-1.05-2.2l.15-.15.15-.35-.15-.35-.35-.15q-.2 0-.35.15l-.15.35v.05m2.55 7.25.05 1.6-.35.8q-.65.7-2.05.3l-.75-2.05-1-1.25q-.95-.85-2.25-.9 0-.5.3-.95.55-.95 2-.75l2.25.85.65.45q.85.8 1.15 1.9m.85-6.65.2-.25-.2-.3-.4-.1-.45.1-.15.3.15.25.45.15.4-.15m-1.4 6.7-.2-.4-.5-.15-.5.15-.2.4.2.4.5.15.5-.15.2-.4" fill="#b2492f"/><path d="M9.65 7.1q.95-.65 2.5-3.2l.3.3-.6 1.3-1.55 1.7-.65-.1m3.8 1.25.15.1.5.35 2.5 6.1-.45.1h-.05l-1.4-3.45-.1-.55-.65-1.3-.5-1.35m-.7 6.9q1.2 1.75 2.85 5.45l-.4.05-1.75-2.85q-.3-1.1-1.15-1.9l-1.45-2.3h.45l.05.05 1.4 1.5" fill="#5bc9f7"/></g><use ffdec:characterId="2" height="35.9" width="20.85" xlink:href="#J" id="c"/><use ffdec:characterId="4" height="19" width="17" xlink:href="#K" id="d"/><use ffdec:characterId="6" height="32.4" width="44.35" xlink:href="#L" id="e"/><use ffdec:characterId="8" height="41.1" width="35.3" xlink:href="#M" id="f"/><use ffdec:characterId="10" height="25.5" width="21.7" xlink:href="#N" id="g"/><use ffdec:characterId="12" height="72.9" width="104.5" xlink:href="#O" id="h"/><use ffdec:characterId="18" height="59.25" width="36" xlink:href="#P" id="i"/><path d="M20.35-2.8q7.4 1.25 7.4 3 0 1.7-7.4 2.9L2.45 4.4q-10.5 0-17.95-1.3-7.35-1.2-7.35-2.9 0-1.75 7.35-3L2.45-4l17.9 1.2" fill-opacity=".349" fill-rule="evenodd" transform="translate(22.85 4)" id="b"/></defs></svg>