<svg xmlns:ffdec="https://www.free-decompiler.com/flash" xmlns:xlink="http://www.w3.org/1999/xlink" ffdec:objectType="frame" height="90" width="90" xmlns="http://www.w3.org/2000/svg"><use ffdec:characterId="33" height="96.3" transform="translate(7.05 -8.15)" width="84.65" xlink:href="#a"/><defs><g id="a" transform="translate(-7.05 8.15)"><use ffdec:characterId="2" height="34.45" transform="translate(20.75 72.7) scale(.4489)" width="101.4" xlink:href="#b"/><use ffdec:characterId="3" height="171" transform="matrix(.1526 -.0884 .0628 .1977 25.05 27.85)" width="278.9" xlink:href="#c"/><use ffdec:characterId="5" height="37.5" transform="translate(7.35 47.5) scale(.5477)" width="51.5" xlink:href="#d"/><use ffdec:characterId="7" height="46.2" transform="translate(35.9 52.05) scale(.5477)" width="74.5" xlink:href="#e"/><use ffdec:characterId="9" height="24.7" transform="translate(46.35 56.9) scale(.5477)" width="19.1" xlink:href="#f"/><use ffdec:characterId="11" height="16.65" transform="translate(33.2 61.75) scale(.5477)" width="12.1" xlink:href="#g"/><use ffdec:characterId="13" height="33" transform="translate(27.15 61.75) scale(.5477)" width="27" xlink:href="#h"/><use ffdec:characterId="15" height="17.25" transform="translate(38.05 62.15) scale(.5477)" width="21.7" xlink:href="#i"/><use ffdec:characterId="17" height="37.45" transform="translate(42.35 65.3) scale(.5477)" width="36.4" xlink:href="#j"/><use ffdec:characterId="19" height="28.8" transform="translate(30 51.85) scale(.5477)" width="30.45" xlink:href="#k"/><use ffdec:characterId="25" height="53.9" transform="translate(28.95 28.8) scale(.5477)" width="42.95" xlink:href="#l"/><use ffdec:characterId="27" height="27.75" transform="translate(37.35 50.45) scale(.5477)" width="29.15" xlink:href="#m"/></g><g id="c" fill-rule="evenodd"><path d="M243.25 18.35q.3 2.95-.1 5.15l-.3 1.3-.15.35-.15 1 .05.8q.25 1.65 2.45 1.65 3.8 0 6.3-4.35 2.2-3.85 2.2-8.55l-.25-8.5q1.9 1.95 3.1 5.05 1.1 3.05 1.1 6.1 0 9.75-4.65 16.35-5.4 7.6-15.05 7.6-4.5 0-6.7-1.95l-1.85 1.15q-1.15.55-2.75.55-3.1 0-4.65-2.15-1.25-1.85-1.25-4.9 0-1.5.55-3.25l.95-2.65-.2-.1-.05-.15q-2.05-.5-3.2-1.5-1.15-1.05-1.4-4.8-.25-3.8 3.95-6.9 4.2-3.1 10.6-3.65 6.35-.55 8.75 1.45 2.4 1.95 2.7 4.9m10.3 8.85.25-.2q-.1.05-.25.15-1.9 1.5-5.3 2.85-3.8 1.55-6.05 1.55-1.55 0-2.8-2.4-1-2-1-3.35 0-1.05.5-3l.5-2.7q0-1.95-2.95-3.65-2.6-1.5-4.75-1.5-1.05 0-4.3 1.65l-1.05.55q-2.3 1.2-2.95 1.8l-.45.5q-1.6 1.85-1.6 3.55 0 3.15 3.2 4.5 3.2 1.4 3.2 3.45 0 1.05-1.85 2.15-1.85 1.15-1.85 3.45 0 1.4 1.2 2.05.85.5 2.05.5 1.2 0 2.15-.7 1-.7 1.7-.7.65 0 2.1.85 1.45.8 3.45.8 5.6 0 10.4-4 3.65-3.1 6.45-8.15M2.6 87.65 0 83.9Q7.4 72 20.8 62.75q9.95-6.9 18.8-10.1 7.65-2.8 14.45-2.85 14.3-.1 13.35 8.15l3.5-.9q3.5-1.7 3.5-4.35 0-2.8-1.4-4.8-3.4-4.65-14.6-4.65-4.85 0-11.05 1.8-4.25 1.25-7.05 2.85v-.05q22.35-18.9 51.95-22.3l.25.1q23.2-.45 28.5 24.5l.15.75q.6 1.95 2.9 2.95 2.1.9 5.2.9 5.2 0 11.65-3 3.25-1.5 11.9-6.6 16.3-9.6 24.45-9.1 8.1.45 11 3.1 2.85 2.6 5.7 7.7 2.8 5.05 6.7 7.85 3.9 2.75 10.75 3.35 3.35.3 10.5.1 7.1-.25 14.7.15 7.6.35 9.9 4.5 2.3 4.1 1.1 7.9l-.5 1.45-.45 1.3v.15l-.35.95.3.05q0 1.75.8 2.7.8.9 10.1-2.25 9.25-3.2 12.3-4 3-.8 6.05 1.2 3.05 1.95 3.05 6.3-.05 4.35-5.7 11.3l-6.7 5.2.4-1.6.6-3.65-.2-2.65q-.45-1.55-1.8-1.55-4.8 0-11.1 3.45-3.45 1.9-11.45 7.55-7.6 5.4-11.85 7.55-6.7 3.45-12.2 3.45-3.8 0-6.2-3.15-2.25-2.95-2.25-7.2 0-3.1 1.4-6.05l2.4-4.5v-.9l-6.85.2-5 .6-2.6.6q-4.85.7-10.9 4.25Q181 96 176 99.95t-8.95 8.8q-4 4.85-3.75 5.8.2.95 3.2 1.35 1.8.25 6.9 0 5.8.5 7.45 5.9 1.6 5.4-6.15 13.4-7.8 8-7.8 10.7-.05 2.65 2.25 2.65 2.2 0 7.95-3.2 2.85-1.55 6.2-4.7.1 4.45-4.05 10.85-4.35 6.6-8.55 11.8-4.2 5.25-12.35 6.35-8.25 1.1-14.4-5.95-6.15-7.1-14.05-10.3-7.85-3.25-16.2-4.3-6.65-.8-12.5.9l-2.95-2.2q5.75-3.4 12.2-3.35 6.9.05 13.4 1.7 2.55.7 4.95 1.8 3.85 1.75 7.15 4.65 5.4 4.8 11.5 8.65 3.5 2.3 7.7 2.7 7.15.65 12.35-4.15 4.2-4 6.85-9.15l-2.3 1.1q-2.95 1.4-4.7 1.1l-3.15-.8q-1.45-.5-1.45-2.75 0-3.65 4.45-10.5 1.75-2.65 4.65-6.4l1.6-2.05.4-.6 1.2-2q1.95-3.35 1.95-4.3 0-2.15-2.65-3.5-2.4-1.2-5.55-1.2-3.9.4-6.45.05-2.6-.4-2.65-4.6-.05-4.15 11.25-14.45Q182.2 89.4 188.35 87q4.85-1.9 7.45-2.45l1.15-.2q2.85-.95 6.5-1.65l7.8-.85 2.7.15 2.5.5q2.25.85 2.25 3 0 .7-1.9 5.35l-.45 1.2q-1.45 3.9-1.45 6.95 0 2 1.55 3.45 1.45 1.35 3.25 1.35 3.55 0 12.9-5.9l12.05-8.05q5.25-3.75 10.5-6.05 5.2-2.35 8.8-2.25 3.6.05 5.15 2 .95 1.25 1.45 3.3l.1-.55 1.75-4.75q1.05-3.25.7-4.25l-.6-1.25-1.55-.2q-4.2 0-10.45 3.25-6.25 3.2-13.5 3.2-2.4 0-4.1-1.55-1.8-1.6-1.8-3.9 0-1.25 1.35-3.9 1.3-2.7 1.35-4.8.05-2.1-1.45-4.75-1.55-2.7-10.3-1.45-8.8 1.25-20.05-.3t-16.6-6q-5.25-4.35-8.5-11.55l-.25-.4q-2.05-3.15-9.25-3.05-7.7.15-26.55 9.8-18.85 9.6-23.7 8.95-4.85-.65-7.05-2.35-2.25-1.75-3.15-6.35-.95-4.65-3.6-9.45-2.1-3.75-4.1-5.5l-.7-.55-.4-.4q-12.9-12.25-52.8 5.8 5.1-.65 10-.15 5.1.5 8.9 3.7 2.1 1.75 3.1 3.75.8 1.65.85 3.5.1 3.1-1.85 5.65l-.3.1.15.1-1.25 1.3q-3.4 3.1-6.8 3.1l-3.45-.1q-1.4-.25-2.7-1.2l.3-.35q1-1.2 1-2.55 0-1.95-2.95-3.1-3-1.15-12.8.35-6.15.95-14.1 4.95Q28.6 62.1 23.1 65.7 14.85 71 8.7 78.65q-3.35 4.15-6.1 9M203.05 6l-2.85-.4q-2.1-.05-4.2 3.9-2.1 3.9-2.8 7.2-.75 3.3-3.25 7.1-2.45 3.75-5.85 7-3.9 3.7-9.8 4.95l-9.7.7q-4.65 0-9.15-2.25-5.85-2.9-6.45-7.95l1 .8q.85.4 2.45.4 4.1 0 6.75-3.35 2.65-3.35 2.45-6.45-.2-3.1-2.9-3.35-2.75-.3-5.65 1.8-2.6 1.9-4.55 4.7 1.1-6.5 7.6-12.05 6.6-5.65 11.85-5.8 5.2-.2 6.3.55 1.45 1 1.45 3.9 0 1-.6 3l-.6 2.25q0 1.1.95 1.1 1.4 0 3.7-2.25l6.65-7.05q5.2-5.75 14.85-4.1 9.55 1.65 5.25 11.15l-.35-1.3q-.35-1.7-1.05-2.75L203.05 6m-14.6 9.75 2.05-4.35 1.45-3.4q1.1-2.4 2.35-3.7l-.5-.25q-.55-.2-8.25 7-7.75 7.2-10.3 6.85-2.55-.45-3.2-1.4l-1.25-1.95q-.65-1.05.35-3l.95-2.4q0-1.8-1.45-2.45-1.05-.5-3.55-.5-5.35 0-10.1 4.6l2.55-.2q3.6 0 5 1.7.95 1.1 1.15 3.2l.05 1.3q0 4.9-2.1 8.1-2.15 3.25-6.65 5.2.95.75 6.15 1.75l6.75.9q4.8 0 8.95-3.55 3.65-3.15 5.05-5.1 1.35-1.95 3.55-6.3l1-2.05m17 107.95.1.25q-3.3 4.4-6.35 6.65t-6.35 2.05q-3.35-.2-5.35-1.5-2.05-1.3-2.15-4.9-.15-3.6 1.95-4.8 2.1-1.25 2.1-4.2 0-2.4-1.9-3.7-1.6-1.1-4.1-1.1l-2.1.15-.25-.2q2.35-2.7 6.45-4.25 4.1-1.5 8.75-1.5 3.75 0 6 1.7 2.2 1.65 2.4 4.8.2 3.1-1.9 5.15-2.15 2.05-2.15 4.15 0 1.3.4 1.6l1.85.25q1.5 0 2.6-.6m-8.35-13.85-4.7.5q-1.3.3-2.7 1 1.25.6 2.4 2.1 1.4 1.85 1.4 3.5 0 1.7-2.15 4.45-2.15 2.8-2.15 4.45 0 2.95 3.65 2.95 1.25 0 3.35-.9 2.1-.95 2.65-1.7-.95 0-1.6-1.35-.55-1.15-.55-2.4 0-1.55 1.75-3.85 1.7-2.25 1.9-5.6.15-3.35-3.25-3.15m-64-86.05q.3 3.3-2.2 5.3t-2.5 3.35q0 .85.15 1.15.15.3.6.3.35 0 .7-.35.4-.4.35-1h.15v4.95q-.65 2.8-1.45 3.85-1.05 1.3-4 1.4-2.95.1-5.3-3.2-2.35-3.35-2.25-5.65.05-2.35.9-3.3.85-1 .6-4.35-.3-3.35-2.75-5.8l-1.7-1.6-.7-.55 5.75-1.1 5.55.25q3.5.5 5.65 1.75 2.1 1.25 2.45 4.6m-7.05 6.4.5-.45q2.9-2.5 2.9-5.25 0-2.35-2.25-3.15l-5.35-1.2-1.75-.2 1.4 2.6.45 1.2.2 1.95-.35 3.3-.4 4q0 2.8.3 3.75.65 1.95 2.75 1.95l1.8-.35q1.25-.45 1.55-1.15-2 .4-3.15-.7-1.05-1.05-1.05-2.85 0-1.3 2.45-3.45" fill="#223ca7"/><path d="M253.55 27.15v.05q-2.8 5.05-6.45 8.15-4.8 4-10.4 4-2 0-3.45-.8-1.45-.85-2.1-.85-.7 0-1.7.7-.95.7-2.15.7t-2.05-.5q-1.2-.65-1.2-2.05 0-2.3 1.85-3.45 1.85-1.1 1.85-2.15 0-2.05-3.2-3.45-3.2-1.35-3.2-4.5 0-1.7 1.6-3.55l.45-.5q.65-.6 2.95-1.8l1.05-.55q3.25-1.65 4.3-1.65 2.15 0 4.75 1.5 2.95 1.7 2.95 3.65l-.5 2.7q-.5 1.95-.5 3 0 1.35 1 3.35 1.25 2.4 2.8 2.4 2.25 0 6.05-1.55 3.4-1.35 5.3-2.85m-56.45 82.7q3.4-.2 3.25 3.15-.2 3.35-1.9 5.6-1.75 2.3-1.75 3.85 0 1.25.55 2.4.65 1.35 1.6 1.35-.55.75-2.65 1.7-2.1.9-3.35.9-3.65 0-3.65-2.95 0-1.65 2.15-4.45 2.15-2.75 2.15-4.45 0-1.65-1.4-3.5-1.15-1.5-2.4-2.1 1.4-.7 2.7-1l4.7-.5" fill="#1e35c2"/><path d="M76.35 57.05q1.95-2.55 1.85-5.65-.05-1.85-.85-3.5-1-2-3.1-3.75-3.8-3.2-8.9-3.7-4.9-.5-10 .15 39.9-18.05 52.8-5.8l.4.4.7.55q2 1.75 4.1 5.5 2.65 4.8 3.6 9.45.9 4.6 3.15 6.35 2.2 1.7 7.05 2.35 4.85.65 23.7-8.95 18.85-9.65 26.55-9.8 7.2-.1 9.25 3.05l.25.4q3.25 7.2 8.5 11.55 5.35 4.45 16.6 6 11.25 1.55 20.05.3 8.75-1.25 10.3 1.45 1.5 2.65 1.45 4.75-.05 2.1-1.35 4.8-1.35 2.65-1.35 3.9 0 2.3 1.8 3.9 1.7 1.55 4.1 1.55 7.25 0 13.5-3.2 6.25-3.25 10.45-3.25l1.55.2.6 1.25q.35 1-.7 4.25l-1.75 4.75-.1.55q-.5-2.05-1.45-3.3-1.55-1.95-5.15-2-3.6-.1-8.8 2.25-5.25 2.3-10.5 6.05L232.6 97.9q-9.35 5.9-12.9 5.9-1.8 0-3.25-1.35Q214.9 101 214.9 99q0-3.05 1.45-6.95 1.2 1.55 5 1.55 7.1 0 13.7-3.55l9.85-5.75v-.25l-6.2-.55q-1.25-.35-2.05-.9l1.75-2.75q-1.1 1.2-2.65 1.8-.6-.85-.6-2 0-1.6 1.35-4.25 1.3-2.6 1.3-4.1 0-2.3-3-4.1-1.85-1.1-3.55-1.4l-1.35.25-2.2.35-6.25.55q-6.9 0-13.1-2.55-5.05-2.55-5.95-2.55l-3.7.65-6.4.65q-9 0-12.95-5.3l-2.5-3.7q-1.35-1.65-3.3-1.65-5.6 0-18.95 4.7l-5.15 1.7-.7-.2h-.2l-.65.05-1.3 1q-7.6 2.1-12.35 2.1-11.2 0-19.8-7.45l-6.1-5.1q-3.45-2.35-7.3-2.35-3.4 0-14.2 5.05l-.2.05-10.3 5M165.7 15.5q-.2-2.1-1.15-3.2-1.4-1.7-5-1.7l-2.55.2q4.75-4.6 10.1-4.6 2.5 0 3.55.5 1.45.65 1.45 2.45l-.95 2.4q-1 1.95-.35 3l1.25 1.95q.65.95 3.2 1.4 2.55.35 10.3-6.85 7.7-7.2 8.25-7l.5.25q-1.25 1.3-2.35 3.7l-1.45 3.4-2.05 4.35Q186 17.5 182.9 18.6q-3.65 1.45-4.75 1.85l-3.75.65q-3.55 0-5.05-2.8-1.35-2.6-3.65-2.8m-43.75 8.25-.45-1.2-1.4-2.6 1.75.2 5.35 1.2q2.25.8 2.25 3.15 0 2.75-2.9 5.25l-.5.45q-1.6-5.05-4.1-6.45" fill="#3081f7"/><path d="m188.45 15.75-1 2.05q-2.2 4.35-3.55 6.3-1.4 1.95-5.05 5.1-4.15 3.55-8.95 3.55l-6.75-.9q-5.2-1-6.15-1.75 4.5-1.95 6.65-5.2 2.1-3.2 2.1-8.1l-.05-1.3q2.3.2 3.65 2.8 1.5 2.8 5.05 2.8l3.75-.65q1.1-.4 4.75-1.85 3.1-1.1 5.55-2.85m-62.4 14.45q-2.45 2.15-2.45 3.45 0 1.8 1.05 2.85 1.15 1.1 3.15.7-.3.7-1.55 1.15l-1.8.35q-2.1 0-2.75-1.95-.3-.95-.3-3.75l.4-4 .35-3.3-.2-1.95q2.5 1.4 4.1 6.45" fill="#2394fa"/><path d="m216.35 92.05.45-1.2q1.9-4.65 1.9-5.35 0-2.15-2.25-3l-2.5-.5q-2.05-1.8-5.45-1.3l-8.25-.15-9 .05q-4.25 0-8.45 1.25-4.4 1.45-8.3 3.75l-.45.3-1.45-.15q4.05-5.35 9.1-8.2 5.1-2.95 14.55-4.85h2.15q.05 4.7.3 5.35.7 2.05 3.95 2.05 1.65 0 11.75-4.85L225.15 70h-.9l-.6.2-7.35 2-8.75 2.1-2.9-.2q-.05-5.3-2.55-7.35-2.25-1.8-7.65-1.8l-5.6.4-8.75.85-4.05.2-3.45.7-3.45 1.55-3.35.6q-2.55 0-5.55-1.3-3.05-1.35-5.45-1.35-5.8 0-14.6 2.55l-7.8 2.55q-.6 0-6.15-2.4-5.5-2.45-10.5-2.45-2.25 0-8.1 1.25-5.25 1.1-7.55 1.9l-.05-.25q.45-2.25 2.25-4.05 1.3-1.25 3.8-2.7h-1.45q-6.1.65-15.7 4.5l-8.9 3.7q-2.3 0-3.85-1.2-1.65-1.3-1.65-3.5l.05-.4q3.45-1.55 6.8-4.6 5.45-5.05 5.45-9.4V52q10.8-5.05 14.2-5.05 3.85 0 7.3 2.35l6.1 5.1q8.6 7.45 19.8 7.45 4.75 0 12.35-2.1l.1.2-.25.2-1.25 1.55-.9 1.3-.05.05-.05.05h.3l3.55-1.15 3.85-1.35-1.45-1.2-1-.5 5.15-1.7q13.35-4.7 18.95-4.7 1.95 0 3.3 1.65l2.5 3.7q3.95 5.3 12.95 5.3l6.4-.65 3.7-.65q.9 0 5.95 2.55 6.2 2.55 13.1 2.55l6.25-.55 2.2-.35 1.35-.25q1.7.3 3.55 1.4 3 1.8 3 4.1 0 1.5-1.3 4.1-1.35 2.65-1.35 4.25 0 1.15.6 2-1.6.6-3.6.6l-2.1-.15q-.4-.35-.35-2l-1.65 1.6q-1.2 1.55-1.2 2.95 0 1.15 1 2.4 1.1 1.45 2.65 1.45 1.65 0 4.75-4.05l1.4-1.85q.8.55 2.05.9l6.2.55v.25l-9.85 5.75q-6.6 3.55-13.7 3.55-3.8 0-5-1.55" fill="#60c1fc"/><path d="M92.05 143.45q-18.8-12.75-38.6-19.85-6.5-2.35-14.9-6.75L21 107.4l-1.4-.8q4.1-8.85 16-15.45 5.6-3.1 11.85-5.1 5.15-1.6 7.6-1.6.8 0 2.15.55l2 .5q1.6 0 3.65-2t5.15-2q3.3 0 4.75 1.1l2 1.45v.65q0 2.45.75 3.45.85 1.1 2.95 1.1 3.15 0 17.8-7.75 14.6-7.8 20.75-7.8 1 0 1.85.8.8.75.8 1.5l-.5 2.8q0 1.4 1.85 1.4l9.3-2.45q8.8-2.45 11.2-2.45 2.15 0 6 1.05 3.6 1 6.15.85-1.85 1.55-4.9 7-3 5.3-4.2 9.05l-2.85 7.9q-2.45 6.7-2.45 7.65l.5 3.95q0 2.5-3.2 4.65l-5.9 3.15q-3.05 1.6-5.15 5.3l-4.25 7.85q-3.8 5.95-8.1 7.1l-6.6.15q-5.7 0-10.65 1.2-2.2.55-3.85 1.3" fill="#c1eafe"/><path d="M8.7 78.65Q14.85 71 23.1 65.7q5.5-3.6 10.35-6.05 8.25-2.05 17.3-2.05l3.45.2 2.65.5q1.1.6 1.2 2.15.15 2.1.35 2.5 1.25 2.6 3.5 3.65l.8.35-2.75.25-7.75.45-6.9-.2q-3.75.1-8.85 1.55-13.8 3.3-18.5 4.8-5.15 1.7-9.25 4.85" fill="#6ed4fd"/><path d="M33.45 59.65q7.95-4 14.1-4.95 9.8-1.5 12.8-.35 2.95 1.15 2.95 3.1 0 1.35-1 2.55l-.3.35q1.3.95 2.7 1.2l3.45.1q3.4 0 6.8-3.1l1.25-1.3.15-.2 10.3-5 .2.05q0 4.35-5.45 9.4-3.35 3.05-6.8 4.6-3.55 1.5-7.2 1.5l-4.7-.65-.8-.35q-2.25-1.05-3.5-3.65-.2-.4-.35-2.5-.1-1.55-1.2-2.15l-2.65-.5-3.45-.2q-9.05 0-17.3 2.05" fill="#5babf9"/><path d="M2.6 87.65q2.75-4.85 6.1-9 4.1-3.15 9.25-4.85 4.7-1.5 18.5-4.8 5.1-1.45 8.85-1.55l6.9.2 7.75-.45 2.75-.25 4.7.65q3.65 0 7.2-1.5l-.05.4q0 2.2 1.65 3.5 1.55 1.2 3.85 1.2l8.9-3.7q9.6-3.85 15.7-4.5h1.45q-2.5 1.45-3.8 2.7-1.8 1.8-2.25 4.05V70h.05q2.3-.8 7.55-1.9 5.85-1.25 8.1-1.25 5 0 10.5 2.45 5.55 2.4 6.15 2.4l7.8-2.55q8.8-2.55 14.6-2.55 2.4 0 5.45 1.35 3 1.3 5.55 1.3l3.35-.6 3.45-1.55 3.45-.7 4.05-.2 8.75-.85 5.6-.4q5.4 0 7.65 1.8 2.5 2.05 2.55 7.35l2.9.2 8.75-2.1 7.35-2 .6-.2h.9l-10.75 5.25q-10.1 4.85-11.75 4.85-3.25 0-3.95-2.05-.25-.65-.3-5.35h-2.15q-9.45 1.9-14.55 4.85-5.05 2.85-9.1 8.2h-.15l-4.9-.15q-6.45 0-9.65.95-5.3 1.55-5.35 4.5-.1 2.95 3.85 5.85 1.95 1.45 3 3.3l-3.7 5.05q-1.7 2.5-2.25 5.35l-1.55.45-5.95 1.55q-2.7.8-2.7 1.9 0 .95 1.7 3.85 1.65 2.9 1.65 5.45 0 3.85-2.85 7.45-1.75 2.25-6.2 6l-5.3 4.8-.9 1q-2 2.4-2.55 4.9-2.4-1.1-4.95-1.8-6.5-1.65-13.4-1.7-6.45-.05-12.2 3.35l-.15-.1-6.05-4.25q1.65-.75 3.85-1.3 4.95-1.2 10.65-1.2l6.6-.15q4.3-1.15 8.1-7.1l4.25-7.85q2.1-3.7 5.15-5.3l5.9-3.15q3.2-2.15 3.2-4.65l-.5-3.95q0-.95 2.45-7.65l2.85-7.9q1.2-3.75 4.2-9.05 3.05-5.45 4.9-7-2.55.15-6.15-.85-3.85-1.05-6-1.05-2.4 0-11.2 2.45L121 80.2q-1.85 0-1.85-1.4l.5-2.8q0-.75-.8-1.5-.85-.8-1.85-.8-6.15 0-20.75 7.8-14.65 7.75-17.8 7.75-2.1 0-2.95-1.1-.75-1-.75-3.45v-.65l-2-1.45Q71.3 81.5 68 81.5q-3.1 0-5.15 2-2.05 2-3.65 2l-2-.5q-1.35-.55-2.15-.55-2.45 0-7.6 1.6-6.25 2-11.85 5.1-11.9 6.6-16 15.45-6.05-3.65-12-11.6l-5-7.35m91-9.05h1.45q3.65-1.4 6.55-3.65 2.6-2 3.75-4.05-4.1 1.55-6.3 2.55-4.2 2.05-5.45 4.45v.7m30.7-4.6-.05.05v.05q.05 1.2 1.8 1.2 1.9 0 4.35-1 3-1.2 4.6-1.5v-.1l-1.35-.5-5.25.95-4.1.85m21.3 31.05h1.9l3.75-3.4q1.15-1.25 2.15-3.85l-4.35 2.5q-3.05 1.7-3.45 3.65v1.1" fill="#88dffe"/><path d="m149.45 58.9 1 .5 1.45 1.2-3.85 1.35-3.55 1.15-.25-.05.05-.05.9-1.3 1.25-1.55.25-.2.55-.4 2.2-.65m87.2 23.7-1.4 1.85q-3.1 4.05-4.75 4.05-1.55 0-2.65-1.45-1-1.25-1-2.4 0-1.4 1.2-2.95l1.65-1.6q-.05 1.65.35 2l2.1.15q2 0 3.6-.6 1.55-.6 2.65-1.8l-1.75 2.75m-143.05-4v-.7q1.25-2.4 5.45-4.45 2.2-1 6.3-2.55-1.15 2.05-3.75 4.05-2.9 2.25-6.55 3.65H93.6m30.65-4.5.05-.1 4.1-.85 5.25-.95 1.35.5v.1q-1.6.3-4.6 1.5-2.45 1-4.35 1-1.75 0-1.8-1.2m21.35 30.95v-1.1q.4-1.95 3.45-3.65l4.35-2.5q-1 2.6-2.15 3.85l-3.75 3.4h-1.9" fill="#c5edfe"/><path d="m213.95 82-2.7-.15-7.8.85q-3.65.7-6.5 1.65l-1.15.2q-2.6.55-7.45 2.45-6.15 2.4-17.4 12.75-11.3 10.3-11.25 14.45.05 4.2 2.65 4.6 2.55.35 6.45-.05 3.15 0 5.55 1.2 2.65 1.35 2.65 3.5 0 .95-1.95 4.3l-1.2 2-.4.6-1.6 2.05q-2.9 3.75-4.65 6.4-4.45 6.85-4.45 10.5 0 2.25 1.45 2.75l3.15.8q1.75.3 4.7-1.1l2.3-1.1q-2.65 5.15-6.85 9.15-5.2 4.8-12.35 4.15-4.2-.4-7.7-2.7-6.1-3.85-11.5-8.65-3.3-2.9-7.15-4.65.55-2.5 2.55-4.9l.9-1 1.35.05q3.4.15 5.45 2.75l3.2 4.45 5.15 6.75 1.35 1q5.4 2.3 11.15.65l.45-.7-.05-.25q-.9-3.5-.55-7.15.35-3.55 1.8-6.9 1.75-4.05 3.9-7.6 2.5-4.3.2-8.35l-.3-.15q-4.85-1.1-8.5-4.3-3.8-3.3-3.75-8.6 0-1.6.35-3.1 7.1-2.45 7-6.45-.1-2.2-1.05-3.95l2-2.65q3-3.8 6.6-7.15 2.75-2.55 6.05-4.5l.45-.3q3.9-2.3 8.3-3.75 4.2-1.25 8.45-1.25l9-.05 8.25.15q3.4-.5 5.45 1.3" fill="#1e71f6"/><path d="m172.6 85.75 1.45.15q-3.3 1.95-6.05 4.5-3.6 3.35-6.6 7.15l-2 2.65q-1.05-1.85-3-3.3-3.95-2.9-3.85-5.85.05-2.95 5.35-4.5 3.2-.95 9.65-.95l4.9.15h.15" fill="#4bb6fc"/><path d="M153.45 110.6q-.35 1.5-.35 3.1-.05 5.3 3.75 8.6 3.65 3.2 8.5 4.3l.3.15q2.3 4.05-.2 8.35-2.15 3.55-3.9 7.6-1.45 3.35-1.8 6.9-.35 3.65.55 7.15l.05.25-.45.7q-5.75 1.65-11.15-.65l-1.35-1-5.15-6.75-3.2-4.45q-2.05-2.6-5.45-2.75l-1.35-.05 5.3-4.8q4.45-3.75 6.2-6 2.85-3.6 2.85-7.45 0-2.55-1.65-5.45-1.7-2.9-1.7-3.85 0-1.1 2.7-1.9l5.95-1.55 1.55-.45m2.2 14q-1.1 0-1.95.45l-1.9 1.25 1.7 1.7q2.2 2.6 2.2 4.25 0 1.35-1.25 4.4-1.25 3.05-1.25 4.35 0 1.35 1.4 2.25 1.1.7 1.95.7l.45-.05q-.9-2.8 2.2-6.65 3.5-4.25 3.5-6.45 0-3.55-1.95-5-1.65-1.2-5.1-1.2" fill="#5cd4ff"/><path d="M153.45 110.6q.55-2.85 2.25-5.35l3.7-5.05q.95 1.75 1.05 3.95.1 4-7 6.45" fill="#68b4fa"/><path d="M155.65 124.6q3.45 0 5.1 1.2 1.95 1.45 1.95 5 0 2.2-3.5 6.45-3.1 3.85-2.2 6.65l-.45.05q-.85 0-1.95-.7-1.4-.9-1.4-2.25 0-1.3 1.25-4.35t1.25-4.4q0-1.65-2.2-4.25l-1.7-1.7 1.9-1.25q.85-.45 1.95-.45" fill="#84e1ff"/><path d="m164.6 161.35 3.35-2.05.8 5.95q-3.95 4-11.2 4.55l-10.7.55-18.15.3q-13.45.95-26.8-.7-8.9-1.15-17.35-4.1l-4.4-1.9-3.2-1.95 1.6-4 1.3 1q2.95 2.1 6.15 3.4 12.95 4.2 26.7 4.15l10.8-.25h8.9q6.2-.1 13.1.25l9.95-.45q2.45-.65 9.15-4.75" fill="#223ca7"/><path d="m123.5 166.3-10.8.25q-13.75.05-26.7-4.15-3.2-1.3-6.15-3.4l-1.3-1 12.5-30.4q10.3 22.85 47.95 8.95-3.7 13.65-4.95 16.1-3.5 5.95-8.2 11.05l-2.35 2.6" fill="#c1eafe"/><path d="M132.4 166.3h-8.9l2.35-2.6q4.7-5.1 8.2-11.05 1.25-2.45 4.95-16.1 3.75 8.35 16.55 21.85-2.4-1.45-8.65 0l-14.5 7.9" fill="#88dffe"/><path d="M164.6 161.35q-6.7 4.1-9.15 4.75l-9.95.45q-6.9-.35-13.1-.25l14.5-7.9q6.25-1.45 8.65 0-14.2 7.05 9.05 2.95" fill="#60c1fc"/></g><g id="o"><path d="m22.05 5.5-.7-.65-19.7-3.3 9.5 17.5q6.75 2.8 17.1 4.4L26.9 24.7l-.6.45q-6.7-.95-15.35-4.1-.95-.45-1.65-1.5L.35 2.05.1 1.7 0 .95Q0 .25.6 0h.9l19.05 2.95h.35q1.55.2 2.7 1.5l.15.2 8.35 9.05.85 3.35-.6-.6-1.05-1.15-2.85-3.1-2.8-3-3.6-3.7" fill="#436080" fill-rule="evenodd"/><path d="M4.2 3.7 1.65 1.55l19.7 3.3.7.65Q17.4 6.7 9.5 7.55l-.2-.1L4.2 3.7m25.95 18.15-9.3-6.65-.2-.3-2.95-4.05 7.95-1.65 2.8 3-6.7 1.45 4.85 3.25q3-.8 4.7-1.6l1.05 1.15q-1.4.85-4.05 1.65l1.9 1.2.1.3.85 2.15-.45-.05-.55.15" fill="#fcfdff" fill-rule="evenodd"/><path d="M1.65 1.55 4.2 3.7l8.2 14.5q4.35 2.15 15.85 5.25-10.35-1.6-17.1-4.4l-9.5-17.5" fill="#cbd9fe" fill-rule="evenodd"/><path d="m4.2 3.7 5.1 3.75q-.4-.1 2.6 5.45 3.45 1.3 8.6 1.95l.35.35 9.3 6.65q-1.05.35-1.65 1.25l-.25.35q-11.5-3.1-15.85-5.25L4.2 3.7" fill="#8eabed" fill-rule="evenodd"/><path d="M36.45 10.7q-.85.65-1.5 1.6-1.45 2-1.4 3.8.05 1.8.35 2.7l-.55-.05-.4-1.7-.85-3.35q.6-2.15 2.75-3.65.7-.55 2.05-1.25 1.6-.8 2.35-.8l.45.05h.25l.35.65-.2 1.15q-.2.95-.05 2.4.1 1.45 1.4 2.95.1.7-.3 1.95-.25.8-.1 1.8l.15 1.1-.25.3-.45.5-.7 1-.05.05-.3.8-.2 1.2.1.05 1.2.55.45.25-2.55.45h-.2l-1.8-.5-.4-.15q.7-.4 1.95-.6h1.1l-.25-.55-.15-.25q.05-.8.45-1.55l1.05-1.7q-1.1-1.1-1.1-2.3l.25-1.1q.4-.95.55-.85l-.1-.1-.05-.05-.25-.25-.6-.6q-.5-.55-.65-1.25-.2-.7-.1-1.45l.15-1.35.05-.15.15-.85-.1.05q-1.05.4-1.95 1.05" fill="#1a030d" fill-rule="evenodd"/><path d="M33.9 18.8q-.3-.9-.35-2.7-.05-1.8 1.4-3.8.65-.95 1.5-1.6-1.85 2.25-2.15 3.9h.5q.7.1.65 1.05-.05.85-1 .8l-.3-.05-.1 1.55-.15.85m5.9-3.25.1.1q-.15-.1-.55.85l-.25 1.1q0 1.2 1.1 2.3l-1.05 1.7q-.4.75-.45 1.55l-.5-.9-.05-.65q0-1.6 1.05-2.1l-.95-1.05q-.6-.85-.3-1.65.25-.8.85-1l1-.25" fill="#b375d8" fill-rule="evenodd"/><path d="m38.35 10.45-.05.15-.15 1.35q-.1.75.1 1.45.15.7.65 1.25l.6.6q-1.1-.1-1.6-.5-.75-.5-.75-1.65 0-.95.25-1.5.2-.5.95-1.15" fill="#b574d8" fill-rule="evenodd"/><path d="M34.45 16.45q.95.05 1-.8.05-.95-.65-1.05l.95-1.7q.6-1.15 2.65-3.25l.1-.05-.15.85q-.75.65-.95 1.15-.25.55-.25 1.5 0 1.15.75 1.65.5.4 1.6.5l.25.25.05.05-1 .25q-.6.2-.85 1-.3.8.3 1.65l.95 1.05q-1.05.5-1.05 2.1l.05.65-2.55-3.3-.95-.1-.2-1.65-.05-.75" fill="#250b26" fill-rule="evenodd"/><path d="m38.7 23.15.15.25.25.55H38l-1.75-.1-1.4-.1-2.9-.35-.8-1.65-.85-2.15-.1-.3-.2-.75 3.35.2.55.05.8.05.95.1 2.55 3.3.5.9m-7.9-3.95q.55 2.05 1.55 3.7l1.15.3 4.7.4v-.05q-1.4-2.85-2.65-3.9l-4.4-.45h-.35" fill="#661514" fill-rule="evenodd"/><path d="m32.95 17.05.4 1.7-3.35-.2.2.75-1.9-1.2q2.65-.8 4.05-1.65l.6.6" fill="#ccd8ff" fill-rule="evenodd"/><path d="m30.8 19.2.85.55.3.2.35 1.3q.35-.45 1-.45.85 0 .85.9l-.1.4-.15.25 3.4.6h.05l.85.65-4.7-.4-1.15-.3q-1-1.65-1.55-3.7m4.5 2.1q.65 0 .65.45 0 .75-.55.75-.7 0-.7-.55 0-.45.25-.55l.2-.05.15-.05" fill="#ffacc6" fill-rule="evenodd"/><path d="m31.95 19.95-.3-.2-.85-.55h.35l4.4.45q1.25 1.05 2.65 3.9v.05l-.85-.65-.05-.05-1-1.2-1.3-1.25-2.75-.45h-.2l-.1-.05" fill="#fe63cb" fill-rule="evenodd"/><path d="m33.9 18.8.15-.85.1-1.55.3.05.05.75.2 1.65-.8-.05m.9-4.2h-.5q.3-1.65 2.15-3.9.9-.65 1.95-1.05-2.05 2.1-2.65 3.25l-.95 1.7" fill="#4a1a32" fill-rule="evenodd"/><path d="M9.5 7.55q7.9-.85 12.55-2.05l3.6 3.7-7.95 1.65Q16.25 9.1 15.2 8.3q-1.85-.55-5.7-.75m18.95 4.65 2.85 3.1q-1.7.8-4.7 1.6l-4.85-3.25 6.7-1.45" fill="#cbd9ff" fill-rule="evenodd"/><path d="m9.3 7.45.2.1q3.85.2 5.7.75 1.05.8 2.5 2.55l2.95 4.05-.15-.05q-5.15-.65-8.6-1.95-3-5.55-2.6-5.45m9.8 6.5-.2-.3-2.4-3.3q-1.2-1.7-1.75-1.5L10.1 8.1l2.35 4.45 1.85.5 4.8.9" fill="#651516" fill-rule="evenodd"/><path d="m18.9 13.65-.05.05L15.3 10q-.9-.5-3.8-.7l-1.4-1.2 4.65.75q.55-.2 1.75 1.5l2.4 3.3" fill="#fe63c9" fill-rule="evenodd"/><path d="m18.85 13.7.25.25-4.8-.9-1.85-.5L10.1 8.1l1.4 1.2 1.05 1.2 1.2-.1q.55 0 .85.6l.2 1 1.9.85 2.15.85m-3.5-2.15.05-.15.25-.1.15-.05q.55 0 .55.45l-.45.45q-.55 0-.55-.6" fill="#ffabc5" fill-rule="evenodd"/><path d="m26.3 25.15.6-.45 1.35-1.25.25-.35q.6-.9 1.65-1.25l.55-.15.45.05.8 1.65 2.9.35-1.75.3q-1.1.25-1.1 1l.45 1.05.35.5h-.95q-1 .15-1.35.5-.4.35-.3 1.1l.5 1.55q-.75.4-1.25.85l-.15.15q-.3.3-.45.7-.4.65-.45 1.45-.45-2.05-.5-3.7-.05-2.2.9-4.1.95-1.95 2.5-2.95-1.75.2-2.85 2.25-1.15 2.05-1.1 4.3-.05 2.25.6 4l.4.85.35.55q-.15.15.05.05l-.05-.05v-.05l.75-1.45q.45-.95 2.65-1.65l.25-.1.4-.1h.05l-.1-.95-.05-.55q-.05-.95.75-1.65l.85-.55.1-.1q-.05-1.2.45-2 .25-.45.65-.75l.25-.15.55-.2 1.75.1q-1.25.2-1.95.6-.6.3-.9.75-.25.4-.2.9l.05.9.15 1.2q-1 .5-1 1.85 0 .75.15 1.05l.35.5h-.95q-1.65.2-2.85 1.5-1.2 1.3-1.15 2.4l.2 1.7.05.2q-2.05-.4-3.2-3.55-1.25-3.2-1.25-5.55l.2-2.3q.2-.55.6-.95m8.85.15-.05-.1v.05l.05.05" fill="#1e0211" fill-rule="evenodd"/><path d="m37.3 22.95-3.4-.6.15-.25.1-.4q0-.9-.85-.9-.65 0-1 .45l-.35-1.3.1.05h.2l2.75.45 1.3 1.25 1 1.2v.05m-2-1.65-.15.05-.2.05q-.25.1-.25.55 0 .55.7.55.55 0 .55-.75 0-.45-.65-.45" fill="#75153b" fill-rule="evenodd"/><path d="M29.45 30.6q.5-.45 1.25-.85l-.5-1.55q-.1-.75.3-1.1.35-.35 1.35-.5h.95l-.35-.5-.45-1.05q0-.75 1.1-1l1.75-.3 1.4.1-.55.2-.25.15-2.1.15q-.65.4-.65.9 0 1.45 1.55 1.8l-.85.55q-.35-.5-1.25-.5-1.45 0-1.45.9 0 .85.7 1.4.6.45 1.3.4l.1.95h-.05l-.4.1-.25.1-1.6-.4-1 .1-.05-.05" fill="#4a1833" fill-rule="evenodd"/><path d="M38.25 25.2h.2l2.55-.45q.5.4.5 1.2l-.45 1.8-.55 1.2-1.2 1.7-.55.15q-.8-.1-2.05-1.1l-1.35-1.1-.2-.15v-.15L35 27.1l-.05-.9q-.05-.5.2-.9h.05q2.3 3.25 3.1 3.25.45 0 2.15-1.6l.1-.15.25-.45.25-.5q.25-.5-1.15-.35-1.35.1-1.65-.3" fill="#45607e" fill-rule="evenodd"/><path d="m36.05 24.55.4.15.4 1.15.85 1.05q.65.5 1.45.4l1.3-.35q-1.7 1.6-2.15 1.6-.8 0-3.1-3.25h-.05q.3-.45.9-.75" fill="#fefefc" fill-rule="evenodd"/><path d="m36.45 24.7 1.8.5q.3.4 1.65.3 1.4-.15 1.15.35l-.25.5-.25.45-.1.15-1.3.35q-.8.1-1.45-.4l-.85-1.05-.4-1.15m4.05-3.85.45-.5q.4.15 1.1 1.4.7 1.35.6 1.8l-.55.4H42l-.4-.55q-.85-1.2-1.1-2.55" fill="#d3eae2" fill-rule="evenodd"/><path d="M35.45 24.2q-.4.3-.65.75-.5.8-.45 2l-.1.1q-1.55-.35-1.55-1.8 0-.5.65-.9l2.1-.15m-2.05 3.4q-.8.7-.75 1.65l.05.55q-.7.05-1.3-.4-.7-.55-.7-1.4 0-.9 1.45-.9.9 0 1.25.5m-1.3 3.35q-2.2.7-2.65 1.65l-.75 1.45-.3-1.15q.05-.8.45-1.45.15-.4.45-.7l.2-.1 1-.1 1.6.4" fill="#b473d7" fill-rule="evenodd"/><path d="m28.35 33.55-.4-.85q-.65-1.75-.6-4-.05-2.25 1.1-4.3 1.1-2.05 2.85-2.25-1.55 1-2.5 2.95-.95 1.9-.9 4.1.05 1.65.5 3.7l-.05.65" fill="#4b1b35" fill-rule="evenodd"/><path d="m18.85 13.7-2.15-.85-1.9-.85-.2-1q-.3-.6-.85-.6l-1.2.1-1.05-1.2q2.9.2 3.8.7l3.55 3.7m-3.5-2.15q0 .6.55.6l.45-.45q0-.45-.55-.45l-.15.05-.25.1-.05.15" fill="#74163a" fill-rule="evenodd"/><path d="M41.05 18.95q-.15-1 .1-1.8.4-1.25.3-1.95l.55 1.65 9.5 7.2q-1.9 5.65-2.9 5.65l-1.75-.35h-5.6l-1.95 1.3 1.2-1.7.55-1.2.6.05 2.35.1h.55l2.7.15 1.25.05 1.1-3-7.25-6.4.25 1.2-1.2-.95h-.35" fill-rule="evenodd"/><path d="m40.95 20.35.25-.3-.15-1.1h.35l1.2.95.1.1.3.35.4.85.35 1.35q0 .65-.5 1.3v-.15q0-1-.85-2.25-.8-1.25-1.45-1.1" fill="#8599f2" fill-rule="evenodd"/><path d="m41 24.75-.45-.25-1.2-.55-.1-.05.2-1.2 1 1.45q.35.3 1.2.4.85.1 1.45-.55l.15-.15q.5-.65.5-1.3l-.35-1.35-.4-.85-.3-.35-.1-.1-.25-1.2 7.25 6.4-1.1 3-1.25-.05.25-.8.3-1.45q0-.85-.6-.85-.4 0-1 .7l-.9 1.1-.45.75-.3.4H44l.1-1.2q-.05-1.05-.55-1.05-.6 0-1.1.8l-.8 1.35-.6-.05.45-1.8q0-.8-.5-1.2" fill="#430f11" fill-rule="evenodd"/><path d="m39.45 22.7.3-.8q.1.6.85 1.35.75.65 1.4.7h.1l.55-.4q.1-.45-.6-1.8-.7-1.25-1.1-1.4.65-.15 1.45 1.1.85 1.25.85 2.25v.15l-.15.15q-.6.65-1.45.55-.85-.1-1.2-.4l-1-1.45" fill="#436183" fill-rule="evenodd"/><path d="m47.25 28.05-2.7-.15.3-.4.45-.75.9-1.1q.6-.7 1-.7.6 0 .6.85l-.3 1.45-.25.8M44 27.9l-2.35-.1.8-1.35q.5-.8 1.1-.8.5 0 .55 1.05l-.1 1.2" fill="#74163b" fill-rule="evenodd"/><path d="m39.75 21.9.05-.05.7-1q.25 1.35 1.1 2.55l.4.55q-.65-.05-1.4-.7-.75-.75-.85-1.35" fill="#fefffd" fill-rule="evenodd"/><path d="m35.3 21.3-.15.05-.2.05q-.25.1-.25.55 0 .55.7.55.55 0 .55-.75 0-.45-.65-.45z" fill="none" stroke="red" stroke-linecap="round" stroke-linejoin="round" stroke-width=".05"/></g><g id="p" fill-rule="evenodd"><path d="m24.7 1.65-3.15-.15q-5 0-10.65 1.25l-1.55.45h-.1l-1.7.45-1.4.35.45-1.5 4.8-1.25Q17.05 0 22.05 0q3.7 0 6.65.75 2.05.5 4.5 1.6l1.7 1.25q6.3 4.5 14.55 6.95 8.2 2.4 11.8 2.45 3.6.05 6.85-1.3 3.15-1.25 6.4-1.55-5.9 7.1-7.55 10.3-1.7 3.2-1.7 5.6-.05 2.35.5 5.75t-1.15 6.75q-1.75 3.35-8.05 6.8-2.45 1.3-9.4.65l.35-1.3 6.8-.2 1.8-.75q6.2-4.05 7.35-6.6 1.15-2.55.55-6.4-.65-3.85-.4-5.85.25-1.95 1.4-4.65-10.8 2.25-18.6-4.05l-2.9-2.7.05-.1q10.25 9.05 21.65 6.4v.1l.05-.1q1.3-2.95 4.75-6.8-10.95 4.75-25.5-1.85Q38.75 8.5 32.45 4.1 30.1 2.8 28.3 2.3l-3.6-.65" fill="#451018"/><path d="m9.35 3.2 1.55-.45Q16.55 1.5 21.55 1.5l3.15.15 3 7.1-3.6 4.55-1.8 2.7q-1.65 2.6-2.35 4.85L9.35 3.2" fill="#2c0d1f"/><path d="m47.5 44.7-.35 1.3Q36.4 44.95 14.8 39.1l-1.3-.35-3.25-2.05Q6.6 34.15 4.6 34.05l-2.6-.2Q1.4 33.8.7 32.5 0 31.2 0 30.8V28q0-2.45.3-4.1.35-2 5.85-19.9l1.4-.35Q5.85 9.25 3.8 17.4l-.65 2.65q-1.4 6.1-1.15 8.6.25 2.95.9 3.25 1 .55 1.8.5h.5l1.3.05h.05l.35.05q1.35.1 3.35 2.05 1.8 1.75 3.55 2.2l.45.1 5.15 1.55q18.6 5.45 28.1 6.3" fill="#440f17"/><path d="m7.55 3.65 1.7-.45h.1l10.6 17.65 3.75 6.35q5.05 2.8 9.5 10.75 2.1-3.35 6-3.6l.4.05q3.2 1.2 2.2 7.3l.2.7q2.7.15 4.45-2.45l.3-.45L48.5 41l-.7 2.75-.3.95q-9.5-.85-28.1-6.3L8.45 26 5.8 23.05l-2.65-3 .65-2.65Q5.85 9.25 7.55 3.65M22.3 16l1.8-2.7 3.6-4.55 8.25 1.5q-.2 1.15-.7 1.65-.7.7-2.25.8l.9 1.6q-1.65.35-3.15 1 3.85 7.95 7.65 13.8l-1.6 2.15q-3.05 3.5-4.75 2.35l-.05-.05q.55-1.35-.05-2.95-1.55-4.25-4.3-8.05-2.5-3.5-5.35-6.55" fill="#2b0e20"/><path d="M19.95 20.85q.7-2.25 2.35-4.85 2.85 3.05 5.35 6.55 2.75 3.8 4.3 8.05.6 1.6.05 2.95l.05.05q1.7 1.15 4.75-2.35l1.6-2.15q4.2 6.45 8.35 10.4l-.3.45Q44.7 42.55 42 42.4l-.2-.7q1-6.1-2.2-7.3l-.4-.05q-3.9.25-6 3.6Q28.75 30 23.7 27.2l-3.75-6.35m16-10.6 2.8.9q2.15.85 3.55 1.95l.2.1q.95.8 1.55 1.7-5.5-1.65-10.15-.6l-.9-1.6q1.55-.1 2.25-.8.5-.5.7-1.65" fill="#440f15"/><path d="m3.15 20.05 2.65 3-.6 8.65v.7h-.5q-.8.05-1.8-.5-.65-.3-.9-3.25-.25-2.5 1.15-8.6" fill="#2d0e1e"/><path d="M5.8 23.05 8.45 26q-1.65 2.5-1.9 5.4l-.05 1.05-1.3-.05v-.7l.6-8.65" fill="#450e52"/><path d="M8.45 26 19.4 38.4l-5.15-1.55-.45-.1q-1.75-.45-3.55-2.2-2-1.95-3.35-2.05l-.35-.05H6.5l.05-1.05q.25-2.9 1.9-5.4" fill="#5b1146"/><path d="M44.5 11.15Q59.05 17.75 70 13q-3.45 3.85-4.75 6.8h-.05q-11.4 2.65-21.65-6.4l-.25-.25-.25-.2.2.2-.75.05-.2-.1q-1.4-1.1-3.55-1.95h5.75" fill="#b32f6b"/><path d="m24.7 1.65 3.6.65q1.8.5 4.15 1.8 6.3 4.4 12.05 7.05h-5.75l-2.8-.9-8.25-1.5-3-7.1" fill="#901a64"/><path d="m43.5 13.5 2.9 2.7-.3 4.7q-.2 8.05 2.8 15.4-.3-.7-.9-1.1-.05 2.3-1.25 4.3-4.15-3.95-8.35-10.4 1.5-2.3 1.55-3.95.05-2.4-1.85-4-1.9-1.6-2.4-2.65l-1.8-4.2q4.65-1.05 10.15.6-.6-.9-1.55-1.7l.75-.05v.05l.25.3" fill="#60104f"/><path d="M38.4 29.1q-3.8-5.85-7.65-13.8 1.5-.65 3.15-1l1.8 4.2q.5 1.05 2.4 2.65 1.9 1.6 1.85 4-.05 1.65-1.55 3.95" fill="#480c52"/><path d="M46.4 16.2q7.8 6.3 18.6 4.05-1.15 2.7-1.4 4.65-.25 2 .4 5.85.6 3.85-.55 6.4-1.15 2.55-7.35 6.6l-1.8.75q-2.9-1.1-5.8-3.5l.4-1.4q.55-2.05 0-3.3-3-7.35-2.8-15.4l.3-4.7" fill="#882e92"/><path d="m48.5 41-1.75-1.5q1.2-2 1.25-4.3.6.4.9 1.1.55 1.25 0 3.3l-.4 1.4" fill="#460f53"/><path d="m54.3 44.5-6.8.2.3-.95.7-2.75q2.9 2.4 5.8 3.5" fill="#662752"/></g><g id="q" fill-rule="evenodd"><path d="M.1 5.05.05 3.2Q.2 2 1.5.8T4.3.25l.25.15.4.15L8.6 6.4q-2.25 1.65-3.85 3.7L.1 5.05" fill="#131d64"/><path d="m4.95.55 1.15.55 2.95 5-.45.3L4.95.55m-.75 10.3L.3 6.55l-.1-1-.1-.5 4.65 5.05-.55.75" fill="#150c45"/><path d="M9.05 6.1q1.4-1.05 3.1-1.85l.5-.05 1.3 1.6q.95 1.4 1.45 4.65l1.95 1.9q1.45 1.5 1.4 2.25l-.6 1.9q.05.5.45 1.3l.5 1.45-4.95 4.95-.35.3-.75.2q-.75 0-.6-.75l.45-2q-1.45-2.1-1.7-2.1l-.2.3q.3 2.05-.1 2.05-.85 0-2.3-1.15-1.5-1.2-1.5-1.95 0-.85.5-2.35-1.95-.5-2.6-1.4-1.8-1.85-1.8-2.7l.15-.4.85-1.4.55-.75q1.6-2.05 3.85-3.7l.45-.3M7.9 7.65q-2.3 1.85-3.7 4.3l-.2.45-.2.15q0 .5 1.55 2.3l1.3 1 .8.2.55-.1.15-.05.15-.05.05.35v.15L8.1 17.6q-.35.95-.4 1.85-.1.85 2.85 1.9l.05-.5v-.15l.3-1.8 1.5 1.4q1 1 .9 2.05l-.1 1.85q3.5-2.85 5.05-5.7l-2.45-6.25q.6 0 1.2 1.6l.7 1.65.35-.25.2-.6-.2-.3q-2.2-3.15-3.45-3.95-.55-3.65-2.45-5.45-2.1 1-3.75 2.3v.05l-.5.35" fill="#476587"/><path d="m8.15 15.9-.15.05-.55.1-.8-.2-1.3-1q-1.55-1.8-1.55-2.3l.2-.15.2-.45q1.4-2.45 3.7-4.3l.05.05L6.8 9.35q-1.25 1.75-1.2 2.9 0 1.15 1.25 2.05l.3.2.9.8.1.2v.4" fill="#fefffd"/><path d="m7.15 14.5-.3-.2q-1.25-.9-1.25-2.05-.05-1.15 1.2-2.9L7.95 7.7q.85.75 1.1 1.9.6 3.1-1.9 4.9" fill="#cad8ff"/><path d="M8.15 15.9v-.4l-.1-.2-.9-.8q2.5-1.8 1.9-4.9-.25-1.15-1.1-1.9l.45-.4v-.05q1.65-1.3 3.75-2.3 1.9 1.8 2.45 5.45 1.25.8 3.45 3.95l.2.3-.2.6-.35.25-.7-1.65q-.6-1.6-1.2-1.6l2.45 6.25q-1.55 2.85-5.05 5.7 2.3-2.6 2.65-5.85.3-3.3-2.15-4-2.45-.75-4.7 1.95l-.05.05h-.6v-.15l-.05-.35-.15.05m6.05-5.65q-1.3-.05-3.05 1.05-1.7 1.05-3 3.8l2.35-2.55q.95-.9 2.05-1.45l1.65-.85" fill="#8387f5"/><path d="m14.2 10.25-1.65.85q-1.1.55-2.05 1.45L8.15 15.1q1.3-2.75 3-3.8 1.75-1.1 3.05-1.05" fill="#45607e"/><path d="m13.2 24.2.1-1.85q.1-1.05-.9-2.05l-1.5-1.4-.3 1.8v.15l-1.1-1.4q-.9-1.25-.5-3.1v-.05q2.25-2.7 4.7-1.95 2.45.7 2.15 4-.35 3.25-2.65 5.85" fill="#ccd8fe"/><path d="m10.6 20.85-.05.5Q7.6 20.3 7.7 19.45q.05-.9.4-1.85l.25-1.25H9q-.4 1.85.5 3.1l1.1 1.4" fill="#fefefc"/></g><g id="r" fill-rule="evenodd"><path d="m4.4 1-.45.6-.65.95.25.6.75-1.75.2.25.3.3.05.05.15.15-4.5 9.9-.5-.7L3.15 4 2.4 2.7q.2-.65.95-1.65L4.25 0l.15 1" fill="#180942"/><path d="m8.85 4.5.55.4 2.15 1-3.95 6.8q-.1.5-.05 1.35v.45l.1 2.15-1.7-.5-1.55-.95q.4-2.25 1.6-5.15 1.1-2.8 2.85-5.55" fill="#151f67"/><path d="m6.75 3.15.3.15 1.8 1.2Q7.1 7.25 6 10.05q-1.2 2.9-1.6 5.15l-.3-.2-3.05-2.35q1.8-3.45 5.7-9.5" fill="#514ca0"/><path d="m4.5 1.65-.2-.25-.75 1.75-.25-.6.65-.95.45-.6.1.65m-4 10.4L5 2.15l1.75 1q-3.9 6.05-5.7 9.5l-.55-.6" fill="#9867d2"/><path d="m11.55 5.9.55.3-4.55 7.85q-.05-.85.05-1.35l3.95-6.8" fill="#180a3f"/></g><g id="s" fill-rule="evenodd"><path d="m8.75 5.85-.1-.3-.5-1.2.6-2.05q.15 2.55.7 4.05L10.5 8.4l.5-.25q.55 2.15.4 3.55l-.15 1.25-.25.3-1.65 1.55-.9.65q.75-1.45 1-3.2.2-1.95-.15-4.15l-.55-2.25" fill="#c6720f"/><path d="m8.15 4.35.5 1.2.1.3-.2 1.35-.3 3.55q-.2 2.3.1 4.75l-.15.05-.85-.05-.05-3.75.3-4.55q.2-1.45.55-2.85" fill="#fffedf"/><path d="m8.45 15.45.9-.65L11 13.25l.25-.3.45-.7.8-2q.15-.85-.75-3.4l-.55.95-.2.35-.5.25-1.05-2.05q-.55-1.5-.7-4.05l-.6 2.05Q7.8 5.75 7.6 7.2l-.3 4.55.05 3.75.85.05.15-.05.1-.05m-5.55 8.6-.05-.4-.05-1.3.15-1.55.45-2.15.4-1.9.3-1.05q.2-.65.55-.8.35-.2 1 .15v-3.5q0-2.6.4-5.05.4-2.45 1.2-3.85L8.95 0l1.75 6.3q.55-1.4 1.15-1.4.45 0 .65 1.2l.05.3.05.8.25 1.2.15.5.2 1.35q.05 1.15-1.35 3.05-1.4 1.8-3.4 3l-.1.05q-.45.3-.45.7l2.9 2.55.8.8 1.8 2.15.2.3q1.05 1.55.5 2.65-2.3 1.1-5.1 1.7h-.25l-4.55.3h-.05q-.5-.3-.8-1l-.05-.15L2.95 25l-.05-.95m3.55-6.9-.65-.3q-1 3.5-1.3 6.25.7.3 1.1.75l-.05.05h.05q.5.55.7 1.4l.1 1.5.45-.05 1.7-.15.4-.05.65-.15h.15l.45-.1q2.1-.5 3.3-1.2.15-.75-.55-1.9l-1.2-1.65-.5-.6-.25-.25-2.45-2.25-.85-.6-1.25-.7m-.95 7.2q-.35-.4-.9-.6h-.2l-.05 2.95h.15l-.2.35.45-.3 1.6.05-.2-1.35-.65-1.1" fill="#8b520d"/><path d="m13 8.9-.15-.5-.25-1.2-.05-.8-.05-.3 1.95-3.15.05 8 4.25 4.25.5.45 1.3 1.3-3.75 6-1.2-.05 3.9-6-3.7-3.8-1.6-1.65-.15-.15q-.2-1.9-.1-3.8V6.4L13 8.9" fill="#436183"/><path d="m11.6 20.4-.8-.8-2.9-2.55q0-.4.45-.7l.1-.05q2-1.2 3.4-3 1.4-1.9 1.35-3.05L13 8.9l.95-2.5v1.1q-.1 1.9.1 3.8l.15.15q-.7 1.95-2.25 3.35l-1.65 1.25-1.35.8L12.4 19l-.8 1.4" fill="#a5cefc"/><path d="m14.2 11.45 1.6 1.65-3.4 5.9-3.45-2.15 1.35-.8 1.65-1.25q1.55-1.4 2.25-3.35" fill="#cbd7ff"/><path d="m15.8 13.1 3.7 3.8-3.9 6q.15-1.5-3.2-3.9l3.4-5.9" fill="#8599f0"/><path d="m11.25 12.95.15-1.25q.15-1.4-.4-3.55l.2-.35.55-.95q.9 2.55.75 3.4l-.8 2-.45.7" fill="#c9952f"/><path d="M8.75 5.85 9.3 8.1q.35 2.2.15 4.15-.25 1.75-1 3.2l-.1.05q-.3-2.45-.1-4.75l.3-3.55.2-1.35" fill="#ffdc35"/><path d="M5.6 23.9h-.05l.05-.05q-.4-.45-1.1-.75.3-2.75 1.3-6.25l.65.3-.2 3.05.3.8.3 1q0 1.35-1.25 1.9m-1.1 2.8h-.15l.05-2.95h.2q.55.2.9.6l-1 2.35" fill="#fefedc"/><path d="m7.7 17.85.85.6q.5 2-.3 3.85-.5 1.15-1.4 2.3l-.3.35q.85-1 1.1-2.5.4-2.2.05-4.6" fill="#cb962e"/><path d="M5.6 23.9q1.25-.55 1.25-1.9l-.3-1-.3-.8.2-3.05 1.25.7q.35 2.4-.05 4.6-.25 1.5-1.1 2.5l-.25.35q-.2-.85-.7-1.4m-.1.45.65 1.1-1.4 1.3-.25-.05 1-2.35" fill="#fdda34"/><path d="m11 20.7.25.25.5.6q-.15 2.25-1.8 3.95l-1 1.05-.4.05-1.7.15 2.1-2.2q1.35-1.8 2.05-3.85" fill="#cb9531"/><path d="M8.55 18.45 11 20.7q-.7 2.05-2.05 3.85l-2.1 2.2-.45.05-.1-1.5.25-.35.3-.35q.9-1.15 1.4-2.3.8-1.85.3-3.85m-2.4 7 .2 1.35-1.6-.05 1.4-1.3" fill="#c97310"/><path d="m3.3 26.35.05.15q.3.7.8 1l.05.05-1.7 3.7-.3.05h-.25q0-2.15 1.35-4.95" fill="#9768d2"/><path d="m2.9 24.05.05.95.35 1.35q-1.35 2.8-1.35 4.95h.25l.3-.05 2.9-.5.45-.1.85-.3L12 28.7q2.6-.95 4.95-2.45l-1.35-3.3v-.05l1.2.05 1.15 4.4-3.6 2.3q-1.25.7-3.7 1.6l-5.1 1.35-3.85.4Q.45 32.85.1 31.9q-.35-.95.4-3.3.75-2.4 2.4-4.55" fill="#16093f"/><path d="m4.2 27.5 4.55-.3-2.9 3.45-.45.1-2.9.5 1.7-3.7v-.05" fill="#514ca0"/><path d="M8.95 27.2H9q2.8-.6 5.1-1.7.55-1.1-.5-2.65l-.2-.3 2.2.4 1.35 3.3Q14.6 27.75 12 28.7l-5.3 1.65-.85.3 2.9-3.45h.2" fill="#141e66"/><path d="m11.75 21.55 1.2 1.65-.3.65-.75 1-1.2 1.1-.5.35-.45.1H9.6l-.65.15 1-1.05q1.65-1.7 1.8-3.95" fill="#fedb35"/><path d="M12.95 23.2q.7 1.15.55 1.9-1.2.7-3.3 1.2l.5-.35 1.2-1.1.75-1 .3-.65" fill="#ca952d"/><path d="m13.4 22.55-1.8-2.15.8-1.4q3.35 2.4 3.2 3.9v.05l-2.2-.4" fill="#327df4"/><path d="m18.75 15.2-.2-1.85.5.2.2 2.1-.5-.45" fill="#170843"/><path d="m19.8 16.85-.25-.25-.6-.05q-2.05.55-3.85 2l-1.25 1.1q-.85.9-1.2 1.8l-.35 1.85.05.7q.35 1.7 2.5 1.35l.95.1.7.55.15 1q-.1.65.3.65l1.8-1.2q1.5-1.2 1.8-1.2.55 0 .55 1.05v.65l.3.5q.1.25 1.5-.9l.3-.25.25-.3q1-1.1 1.65-3l.45-1.85.05-.55v-2.55q-.25 1.9-1.6 3.35l-2.6 2.2-2.35-.15-.15-.55-.05-.2q-.35-1.5.2-3.25l.75-2.6m-1.15-.9h1.7q.55.1.65 1.1.1 1-.35 2.45-.5 1.4-.5 2.15t.75.4l2-1.95q2.2-3 2.85-6.5.6 1.05.8 2.35.45 2.35.45 4.7 0 2.45-1.05 4.75-1.05 2.1-2.4 3.3-1.4 1.2-2.6 1.1-1.25-.15-1.3-1.6-.95 1-2.5 1.2-1.6.2-2.3-.9l-.95-1.1-.85.1q-.95 0-1.25-.65-.25-.5-.25-1.85 0-2.3.75-3.95l.05-.05q.5-1.2 2.7-2.95 2.45-2 3.6-2.1" fill="#0a1797"/><path d="M19.55 16.6q-2.6 1.4-3.3 2.05-.7.6-.75 2.05l-.05-.05-.45-.35-.95 1q-.85.9-1.4 2.15l-.3.55-.05-.7.35-1.85q.35-.9 1.2-1.8l1.25-1.1q1.8-1.45 3.85-2l.6.05" fill="#54fdff"/><path d="m19.8 16.85-2.3 1.2q.5.4.5 1l-.45 1.3q-.5.6-1.2.6l-.85-.25q.05-1.45.75-2.05.7-.65 3.3-2.05l.25.25" fill="#b8feff"/><path d="m15.5 20.7.85.25q.7 0 1.2-.6l.45-1.3q0-.6-.5-1l2.3-1.2-.75 2.6q-.55 1.75-.2 3.25l.05.2-.4.25-.4.15q-.75.55-.75 1.25l.05.4-.2-.55q-.05-.35.05-.75l.1-.3.1-.2.15-.7-.8.4-.8.15-.15-.2q-.35-.55-.35-2.05v-.05m1.9 4.25.25.15h1l1.2-.05-.4.2-.95.35-.6.1-.15-.15-.35-.6" fill="#6af0f1"/><path d="m18.9 22.9.15.55 2.35.15 2.6-2.2q1.35-1.45 1.6-3.35v2.55l-.05.55q-1.85 2.6-4.25 3.5h-.4q-.3 0-1.05.4l-1.2.05h-1l-.25-.15-.05-.4q0-.7.75-1.25l.4-.15.4-.25" fill="#b9ffff"/><path d="m16 23 .8-.15.8-.4-.15.7-.1.2q-.95 0-1.35-.35" fill="#538de1"/><path d="M14.05 21.3q.05.7.25 1.05.4.65 1.45.65H16q.4.35 1.35.35l-.1.3-.95.35-1.15.2q.5 1.4 1.85 1.5h.9l.6-.1.95-.35.4-.2 1.45-.4h.3l.45 1.15q.45.5 1 .5h.15l-.3.25q-1.4 1.15-1.5.9l-.3-.5v-.65q0-1.05-.55-1.05-.3 0-1.8 1.2l-1.8 1.2q-.4 0-.3-.65l-.15-1-.7-.55-.95-.1q-2.15.35-2.5-1.35l.3-.55q.55-1.25 1.4-2.15" fill="#0054c6"/><path d="m14.05 21.3.95-1 .45.35.05.05v.05q0 1.5.35 2.05l.15.2h-.25q-1.05 0-1.45-.65-.2-.35-.25-1.05m3.2 2.35q-.1.4-.05.75l.2.55.35.6.15.15H17q-1.35-.1-1.85-1.5l1.15-.2.95-.35" fill="#01b6d3"/><path d="M25.55 21.15 25.1 23q-.65 1.9-1.65 3l-.25.3h-.15q-.55 0-1-.5l-.45-1.15h-.3q2.4-.9 4.25-3.5" fill="#00b7d1"/></g><g id="t" fill-rule="evenodd"><path d="m1.35 3.45.8-.8Q3.9 1.2 6 .5l10.55 16.7-1.3.05-2.85-.45-2.25-2.4.35-.7.2-.75q0-1.65-.85-2.8-1-1.35-2.7-1.35l-1.2.1-4.6-5.45" fill="#514ca0"/><path d="m6 .5.4-.15Q8.6-.4 10.7.4l2.35 1.1 8.25 14.35-.95.55-3.8.8L6 .5" fill="#141e66"/><path d="m13.05 1.5 1.15.7 7.5 13.05-.4.6L13.05 1.5" fill="#180b39"/><path d="m.35 4.8 1-1.35 4.6 5.45 1.2-.1q1.7 0 2.7 1.35.85 1.15.85 2.8l-.2.75-.35.7-9.8-9.6" fill="#9568cf"/><path d="m12.4 16.8-1.2-.5-.6-.3L0 5.55l.35-.75 9.8 9.6 2.25 2.4" fill="#140943"/></g><g id="u" fill-rule="evenodd"><path d="m7.65 16.9.1-.35.3-3.05-.25-3.9-.1-.55q-.5-2.3-1.5-3.25L4.9 4.55l-1.15-.8-.1-.1.1-.95q2 1.35 3.25 2.8l.3.35q1.75 2.05 1.8 4.2.85 4.45-1.45 6.85" fill="#398bef"/><path d="m3.65 3.65.1.1 1.15.8L6.2 5.8q1 .95 1.5 3.25l.1.55.25 3.9-.3 3.05-.1.35-.3.3-.3.05-.25-.1-.2-.05-1.35-.7q-.75-.6-1.95-2.3l-.9-1.5-1.2-3.05Q.25 6.65.05 4.25-.1 2.1.4 0q.55 2.7 2.65 4.2l.2-.8.4.25m3.55 6.1-.05-.2L7 8.7Q6.45 6 3.65 4.55l.05.65-.2.7-1.9-1.8-.4-.6-.05-.1-.4-.7q-.35.4-.3 1.2L.9 6.6l.2.8.5 1.8q.9 2.85 2.1 4.55 1.2 1.7 1.95 2.3.5.45 1.45.75l.15-.8.05-.25.15-2.1-.25-3.9" fill="#8b520b"/><path d="M7.3 5.85 7 5.5 3.85 1.45l7.9 8.1.7-5.45 8.5 14.45-.05.2-.05.55q-5.05-2.95-5.5-3.75-2.1-4.75-4.55-6.1l-3.5-3.6M6.6 17.1l.2.05.25.1.3-.05 2.45 5.5-.1 1.5-3.1-7.1" fill="#cbd9ff"/><path d="M6.85 9.7q-.4-.25-.8-1.45-.55-1.6-1.1-1.65h-1.1q-.55 0-1.05-.5l-.2-.2-.3-.55-.7-1.25 1.9 1.8.2-.7-.05-.65Q6.45 6 7 8.7l.15.85.05.2h-.1l-.25-.05m-5.7-6.3.15 1.15q-.45.8-.4 2.05L.45 3.9q-.05-.8.3-1.2l.4.7m.3 2 1.2 3.05q.65 1.8 2.5 3.5 1.75 1.6 2.15 3.8l-.05.25q-1.2-.9-2.55-2.8-1.5-2-2.4-4.6l-.85-3.2" fill="#fddb33"/><path d="m2.6 5.9.2.2q.5.5 1.05.5h1.1q.55.05 1.1 1.65.4 1.2.8 1.45l-.4.2h-.4l-.35-.1-1.5-1.55L2.6 5.9" fill="#cb9630"/><path d="m6.85 9.7.25.05h.1l.25 3.9-.15 2.1q-.4-2.2-2.15-3.8-1.85-1.7-2.5-3.5L1.45 5.4l-.15-.85-.15-1.15.05.1.4.6.7 1.25.3.55 1.6 2.35L5.7 9.8l.35.1h.4l.4-.2m8.2 15.4q-.25-4.7-2.1-7.95 1.85 1.1 3.6 2.55.65 3.35.4 6.4-.8-.7-1.9-1m0 .25q1.3.75 1.85 1.35l-.25 1.65-.7.9-.05.05-.9-.35.05-.6v-3" fill="#c97211"/><path d="m3.75 2.7-.1.95-.4-.25-.2.8.05-1 .25-1.9.1-.25.05-.1.35-.05.35.15.2.1 7.15 7.4.55-6.2L20.85 17l.1 1.55-8.5-14.45-.7 5.45-7.9-8.1-.1 1.25M2.4 12.6l.9 1.5q1.2 1.7 1.95 2.3l2.9 6.95q-.5.55-.05 1.5L6.4 23.3l-.1-.2-4.8-10.75.9.25" fill="#436082"/><path d="M7.65 16.9q2.3-2.4 1.45-6.85-.05-2.15-1.8-4.2l3.5 3.6q2.45 1.35 4.55 6.1.45.8 5.5 3.75l-.05.4q-7.35-4.15-9.8-4.5-.9 3.55-1.2 7.5l-2.45-5.5.3-.3" fill="#83b4ef"/><path d="M7 5.5Q5.75 4.05 3.75 2.7l.1-1.25L7 5.5" fill="#8c9ef0"/><path d="m1.3 4.55.15.85.85 3.2q.9 2.6 2.4 4.6 1.35 1.9 2.55 2.8l-.15.8q-.95-.3-1.45-.75-.75-.6-1.95-2.3-1.2-1.7-2.1-4.55l-.5-1.8-.2-.8q-.05-1.25.4-2.05" fill="#fefdde"/><path d="m12.95 17.15-1.5-.85q-1.15 5.15-1.3 9.55v.05l2.9 2.05.3-1.1.7-1.6.25-.35.75.2q1.1.3 1.9 1l.65.7q1.05-1.9 1.9-4.4L18.05 21l-1.5-1.3q-1.75-1.45-3.6-2.55M9.7 24.2l.1-1.5q.3-3.95 1.2-7.5 5.4 2.9 9.2 6.55-.5 2.25-2.4 5.6L16.15 30q-2.05-.75-3.95-1.95L9.6 26.1v-.4l.1-1.5m7.2 2.5q-.55-.6-1.85-1.35l-.75-.45-.2.65q-.3.75-.45 1.6l-.15 1.05 1.5.75.9.35.05-.05.7-.9.65-1-.4-.65" fill="#8b520d"/><path d="m11.45 16.3 1.5.85q1.85 3.25 2.1 7.95l-.75-.2-.25.35q-.7-4.8-2.4-7.8l-.2-1.15m2.65 9.25.2-.65.75.45v3l-.7-.55-.25-2.25" fill="#cc9530"/><path d="m11.45 16.3.2 1.15q.15 2.15-.55 5.95 1.05 2.1 2.25 3.45l-.3 1.1-2.9-2.05v-.05q.15-4.4 1.3-9.55M15 28.95l-1.5-.75.15-1.05.7.65.7.55-.05.6" fill="#fffdde"/><path d="m5.25 16.4 1.35.7 3.1 7.1-.1 1.5-1.5-.85q-.45-.95.05-1.5l-2.9-6.95" fill="#fdfffe"/><path d="M20.85 17v-.05q1.85 1.45 4.25 4.4-2.35 12.65-6.5 16.1-6.9-2.9-12.35-9.6-.4-2.1.05-4.75l.1.2 1.7 1.55v.05q-.7 3.1 9 9.65l1.2.8.35-.5q3.4-5.75 4.35-14.3L20.85 17" fill="#170a42"/><path d="M11.65 17.45q1.7 3 2.4 7.8l-.7 1.6q-1.2-1.35-2.25-3.45.7-3.8.55-5.95m6.4 3.55 1.45 1.4q-.85 2.5-1.9 4.4.6-1.85.45-5.8m-4.4 6.15q.15-.85.45-1.6l.25 2.25-.7-.65" fill="#fedb35"/><path d="m16.55 19.7 1.5 1.3q.15 3.95-.45 5.8l-.65-.7q.25-3.05-.4-6.4m.35 7 .4.65-.65 1 .25-1.65" fill="#ca952f"/><path d="m20.85 19.3.05-.55.05-.2-.1-1.55L23 20.55q-.95 8.55-4.35 14.3.7-2.05-.85-7.5 1.9-3.35 2.4-5.6l.6-2.05.05-.4" fill="#141e66"/><path d="M20.2 21.75Q16.4 18.1 11 15.2q2.45.35 9.8 4.5l-.6 2.05" fill="#319ef1"/><path d="M12.2 28.05q1.9 1.2 3.95 1.95l1.65-2.65q1.55 5.45.85 7.5l-.35.5-1.2-.8q-2.75-2.45-4.9-6.5" fill="#514ca0"/><path d="M9.6 25.7v.4l2.6 1.95q2.15 4.05 4.9 6.5-9.7-6.55-9-9.65v-.05l1.5.85" fill="#9667d1"/><path d="M23.4 13.45q.75-.6 2-1.25l2.25-.15q1 .5.05 3.55-.95 3-.55 3.5.5.15 1.9-.95l3.4-3.05q1.95-1.95 3.7-4.55l.2.3.05.15-.05 1.9q-.15 1.75-2.2 7.05-1.95 4.95-7.05 7l-.8.35-.65.15-.7-.1q-.35-.1-.7-1.05-.4-1-2.15-1.8-1.8-.85-2.5-1.6-.7-.75-.7-1.9v-.15l.15-.25q.25-2.2 1.4-3.95l1.65-2.05 1.3-1.15m-2.35 3.35-.1.15q-1.1 1.55-1.5 3.25l-.15.65q-.2.55.35.8l1.1.35.95.75 1.05.7.6-.1q.8-.05 1.3.75l.95 1.5q3.15-1.2 5.4-3.3l.25-.25q2.8-2.8 4.05-7.2l.05-.2.6-3-2.55 3.25-.55.6-3.05 2.9-1.9 1.25-.45.2-.75-.15h-.05l-.15-.3v-.15l-.05-.3q-.05-.6.55-2.9l.55-2.2.05-.6q0-.45-.45-.6h-.55q-1.2.1-2.8 1.3-1.55 1.1-2.75 2.85m4.7 8.95h-.05l.05.05v-.05" fill="#091899"/><path d="M19.45 20.2q.4-1.7 1.5-3.25l.1-.15 1.05-.45.45-.1q-2.1 1.9-2.35 3.6l-.05.4-.15.25-.25.1-.25-.2-.05-.2" fill="#51e1fc"/><path d="M21.05 16.8q1.2-1.75 2.75-2.85 1.6-1.2 2.8-1.3h.55q.45.15.45.6l-.05.6-1.2.25-.35 1.3-.85 1.55-.15.15-.75-1-.65-.1-.7.15.1-.3-.45.4-.45.1-1.05.45" fill="#b3ffff"/><path d="m22.9 16.15.7-.15.65.1q-.6.6-.6 1.2l.1.6h-.05l-.45-.05q-.35-.15-.45-.7-.15-.55.05-.95l.05-.05" fill="#52e1ff"/><path d="m31.25 22.05-.25.25q-2.25 2.1-5.4 3.3l-.95-1.5q-.5-.8-1.3-.75l-.6.1-1.05-.7-.95-.75-1.1-.35q-.55-.25-.35-.8l.15-.65.05.2.25.2.25-.1.15-.25.05-.4q.25-1.7 2.35-3.6l.45-.4-.1.3-.05.05q-.2.4-.05.95.1.55.45.7l.45.05.05 1.15-.4-.25q.5 2.45 2 3.2h-.25l-1.45-.25q-.05.75 1.5 1.65 1.55.85 4.45-1.7l.15-.1 1.7-1.65 1.9-2.6.05.05q-.45 2.1-1.75 3.95l-.4.7" fill="#0155c5"/><path d="M26.5 19.25v.15l.15.3-1.75-.15-1.15-.5-.05-1.15h.05l.4-.15.85-.65.15.35q.55 1.45 1.35 1.8" fill="#02b7d6"/><path d="m24.25 16.1.75 1-.85.65-.4.15-.1-.6q0-.6.6-1.2" fill="#55fffe"/><path d="m27.55 13.85-.55 2.2q-.6 2.3-.55 2.9l.05.3q-.8-.35-1.35-1.8L25 17.1l.15-.15.85-1.55.35-1.3 1.2-.25m-.9 5.85h.05q-.25.1-.25.55 0 .4.3.55v.05h-.4q-2.25-.3-3-2.05l.4.25 1.15.5 1.75.15" fill="#64eff2"/><path d="m35.35 14.65-.05.2-1.9 2.5h-.05l-1.9 2.6-1.7 1.65q1.95-1.8 2.95-4.35l2.65-2.6" fill="#15c8df"/><path d="M35.3 14.85q-1.25 4.4-4.05 7.2l.4-.7q1.3-1.85 1.75-3.95v-.05l1.9-2.5M23.35 18.8q.75 1.75 3 2.05h.8l.45-.05q-1 1.1-2.25 1.2-1.5-.75-2-3.2" fill="#528be2"/><path d="m33.4 14.9 2.55-3.25-.6 3-2.65 2.6.7-2.35" fill="#b7fdfd"/><path d="m26.7 19.7.75.15.45-.2 1.9-1.25 3.05-2.9.55-.6-.7 2.35-1.65 1.6q-1.75 1.7-3.45 1.95l-.45.05-.4-.05q-.3-.15-.3-.55 0-.45.25-.55" fill="#b9ffff"/><path d="M27.6 20.8q1.7-.25 3.45-1.95l1.65-1.6q-1 2.55-2.95 4.35l-.8.45-3.25.1-.35-.15q1.25-.1 2.25-1.2" fill="#65ecef"/><path d="m29.75 21.6-.15.1q-2.9 2.55-4.45 1.7-1.55-.9-1.5-1.65l1.45.25h.25l.35.15 3.25-.1.8-.45" fill="#00b7d3"/></g><g id="v" fill-rule="evenodd"><path d="m23 17.5-4.8 6.3q-1.25-2.3-2.8-2.5-1.5-.2-2.1.4-.65.55-.7 1.7-.05 1.15.95 1.45.9.3 1.7-.4-.7.8-1.55.75l-.55-.1L13 25q-.65-.55-.8-1.3-.15-.85.1-1.5t1.05-1.3q.8-.65 2.05-.6l1.7.55 1.45.85 4-4.5.45.3" fill="#c9710f"/><path d="m5.35 13.6-.55-.5-.7-4.65L9.9 2h14.35l5.05 6.15-5.2 9-.5.7-.6-.35-.45-.3-2.5-1.55-.6-.35-2.8 2.55-4.05-2.45-4.75.6-1.95-1.9q4.1.65 8-1.15l1.45-1.2q2.3-3.1-.2-4.25-2.5-1.2-5.4-.1-2.95 1.1-4.4 6.2" fill="#151f66"/><path d="m23.6 17.85-1.4 1.75-1.2 1.55-.95 1.3-1.1 1.45-.7.8q.3 1.55-.6 2.6-.9 1.05-2.35 1.4-1.5.35-2.95-.4-1.45-.75-2.2-2.05-.75-1.3.05-3.35l-1.9-3.45.5-1.05v-.05l.25-.5.25-.45.25-.5.4-.7 1.05 1 1.65 1.75.6-1.05.25-.45 1.6 1.75 1.55-1.35 2.8-2.55.6.35-2.9 2.4-.1.05L15 19.8l-.6-.5-.85-.75-.95 1.5-2.05-2.4-.5-.55-1.1 2.15 1.95 3.45-.4.85-.15 1.45q-.05 1.15 1.15 2.15.5.45 1.2.7l.25.1 1.35.2q1.6 0 2.5-.7.95-.75.95-2.05 0-1.6-.9-2.6t-1.95-.95q-1.05 0-1.35.55v.05q-.3.55-.25 1.4 0 .8.85.8l1.1-.2q-.8.7-1.7.4-1-.3-.95-1.45.05-1.15.7-1.7.6-.6 2.1-.4 1.55.2 2.8 2.5l4.8-6.3.6.35" fill="#89530d"/><path d="m23.6 17.85.5-.7 5.2-9L24.25 2H9.9L4.1 8.45l.7 4.65.55.5.55.5L7.85 16q-.45-.05-1.15.25l-3.05-3.2-.55-5.2L9.55 1h15.1l5.8 7.2-5.65 9.45-2.6 1.95 1.4-1.75" fill="#16083d"/><path d="m14.4 19.3.6.5 2.05-1.7.1-.05 2.9-2.4 2.5 1.55-4 4.5-1.45-.85-1.7-.55q-1.25-.05-2.05.6-.8.65-1.05 1.3t-.1 1.5q.15.75.8 1.3-1.15-.65-1.1-2.3 0-1.9 2.5-3.4" fill="#cc952e"/><path d="m5.9 14.1-.55-.5q1.45-5.1 4.4-6.2 2.9-1.1 5.4.1 2.5 1.15.2 4.25l-1.45 1.2q-3.9 1.8-8 1.15m10.75 3.75L15.1 19.2l-1.6-1.75-.25.45-.6 1.05L11 17.2l-1.05-1-.4.7-.25.5L7.85 16l4.75-.6 4.05 2.45" fill="#514ba1"/><path d="M12.7 27.85q-.7-.25-1.2-.7-1.2-1-1.15-2.15l.15-1.45.4-.85-1.95-3.45 1.1-2.15.5.55-.25.55q-.2.45-.25.95-.05.25.25.8l.6 1.4.45 1.45q-.5 1.05-.45 1.7.05.6.7 1.4.6.8 2.85.65l1.1-.3-.05.95-.15.1-.5.25-1.9.35-.25-.05" fill="#fffdda"/><path d="m15.25 24.45-1.1.2q-.85 0-.85-.8-.05-.85.25-1.4v-.05l.7-.2q.95 0 1.7.9.7.85.7 2.15 0 1.2-1.15 1.95l.05-.95-1.1.3q-2.25.15-2.85-.65-.65-.8-.7-1.4-.05-.65.45-1.7l-.45-1.45-.6-1.4q-.3-.55-.25-.8.05-.5.25-.95l.25-.55 2.05 2.4.95-1.5.85.75q-2.5 1.5-2.5 3.4-.05 1.65 1.1 2.3l.05.05.1.05.55.1q.85.05 1.55-.75l.05-.05-.05.05" fill="#ffdb35"/><path d="M13.55 22.4q.3-.55 1.35-.55 1.05-.05 1.95.95.9 1 .9 2.6 0 1.3-.95 2.05-.9.7-2.5.7l-1.35-.2v-.05l1.9-.35.4-.2.2-.1.05-.05q1.15-.75 1.15-1.95 0-1.3-.7-2.15-.75-.9-1.7-.9l-.7.2" fill="#ca9630"/><path d="M24.45 3.75h.05l.9.2v.1Q24.7 9 21.35 11q-3.05 1.85-6.9 3.1l-1.7.55q-4.65 1.3-9.6 1.15l-.1-.25Q.85 10.6.35 7.95 0 6.35 0 5.05L1.9 3.6Q4.55 1.5 7.75.15L8.1 0l1.2.2-1.9 1.05Q2.95 3.7 1.85 5.45l-.15.3q-.35 3.8.9 7.6l.85 1.9 2.15.05h.65l1.2-.15 1.9-.4.9-.2 4.85-1.35q7.1-2.1 9.35-9.45M12.7 1.95l.05.05Q7.15 6.75 6.4 9.4l2.3.35 4.05-.25 2.6-.85q2.5-2.3 4.5-5.35l.1-.15.85.15q-3.45 4.65-6.05 6.45-1.15.75-2.1 1l1.7-1.25-1.9.55-2.6.25-1.6-.1Q5.75 9.95 4 8.65l.1-.1 1.25.55.3.1Q6.8 5.95 12.7 1.95" fill="#8b520b"/><path d="m20.8 3.3 2.2.35 1.45.1Q22.2 11.1 15.1 13.2l.2-1.8q0-1.15-.55-1.65 2.6-1.8 6.05-6.45" fill="#ca952f"/><path d="m9.3.2.75.25q-3.6 2.25-4.6 3.7Q4.2 5.8 4.2 8.45l-.1.1-.1.1v.05q-.9 1.1-1.05 1.9-.45-1.45-.45-2.9l.1-1.8Q4 3.5 7.4 1.25L9.3.2" fill="#fddc35"/><path d="m10.25 14.55-.9.2-1.9.4.5-.45q.55-.7.55-1.75 0-1.75-1.8-2.4l-1.05-.5L4 8.7v-.05q1.75 1.3 4.25 1.55l1.6.1q1.05.25 1.05 2.8 0 .8-.45 1.25l-.2.2" fill="#cb9630"/><path d="m15.1 13.2-4.85 1.35.2-.2q.45-.45.45-1.25 0-2.55-1.05-2.8l2.6-.25 1.9-.55-1.7 1.25q.95-.25 2.1-1 .55.5.55 1.65l-.2 1.8" fill="#c97310"/><path d="M10.05.45q1.55.5 2.65 1.5-5.9 4-7.05 7.25l-.3-.1-1.25-.55.1-.1q0-2.65 1.25-4.3 1-1.45 4.6-3.7" fill="#c77310"/><path d="M5.85 15.3H5.6l-2.15-.05-.85-1.9q-1.25-3.8-.9-7.6l.15-.3q1.1-1.75 5.55-4.2Q4 3.5 2.6 5.9l-.1 1.8q0 1.45.45 2.9Q3.1 9.8 4 8.7l1.65 1.35-.1 1.7.15 2.2.15 1.35" fill="#fffddc"/><path d="m7.45 15.15-1.2.15h-.4l-.15-1.35-.15-2.2.1-1.7 1.05.5q1.8.65 1.8 2.4 0 1.05-.55 1.75l-.5.45" fill="#ffda34"/></g><g id="w" fill-rule="evenodd"><path d="m29.65 15.4-1.65.3-1.95-.2-.7.2-.45.3q-.35-8.05-6.3-12.95l-.25-.25-1.6-1.65L16.7 1q6.9 2.8 9.95 7.55 2.35 3.7 3 6.85m-4.2 35.85 1.7-2.8 1.5-3.05 1.2-3.25 1.2-3.55.7-2.85.25-2.25.1-.8q5.15-.7 10.15-8.45 1.05 6-11.3 19.9-2.7 3.05-5.5 7.1m-.2.3v-.05.05" fill="#8396f2"/><path d="M18.6 3.05q5.95 4.9 6.3 12.95l.45-.3.7-.2 1.95.2 1.65-.3.2 1.25q-2.05.45-3.75 0-4.55 1.9-8.35 4.7.15 3.2-4.75 8.15 1.4-2 2.35-4.95l.05-.2-.4-.6-.15-1.2.95-1.15.35.45q6.2-3.85 5.8-10.1.05-4.3-3.6-8.9l.25.2" fill="#3188f1"/><path d="m15.8 21.4-.95 1.15-.35.4-1.35-2.2h.15l1.8.2q.4.15.7.45m14.05-4.75-.2-1.25 3.4-1.3q3.05-1.3 3.7-1.8l.7.8q-4.3 2.85-7.6 3.55" fill="#a9cdff"/><path d="M29.65 15.4q-.65-3.15-3-6.85Q23.6 3.8 16.7 1q10.35.15 20.05 11.3-.65.5-3.7 1.8l-3.4 1.3m.25 1.95q3.4-.7 7.9-3.75l.05-.05 1.95-1.9q-2.3 9.75-7.4 12.75l-1.35.7-1.45-.55q5.25 3.6 12.65-.3-5 7.75-10.15 8.45.25-6.1-4-9.3 1.95-2.7 1.8-6.05m-17.95 15.3q1.35 1.7 1.2 5.05l-2.35 3.35q-4.4-5.5-5.7-8.7-.5-1.25-.05-3.6.25 2.5 1.3 4.75 2.25 2.05 5.55-.8l.05-.05m12.7 20.4q-1.35-7.2-3.75-13.4 7.75-.35 7.6-2.85.05-3.35-.5-5.55 2.85 9.05-2.75 20.3l-.15.4.15-.4v-.05.05l-.3.75-.15.45-.15.3" fill="#cbd9ff"/><path d="M36.75 12.3Q27.05 1.15 16.7 1h-1q4.5 6.2-4.05 14.45L10.6 13.8Q17.5 6.6 13.8.15q13.95-.3 24.2 12.5l-.3.25-.05.05-.2.15-.7-.8" fill="#436082"/><path d="m37.45 13.1.2-.15.05-.05.3-.25q2.3-1.85 2.6-4.35 3.6 5.2-2.1 16.8l-1.1.25q3-5.5 3.7-9.8l.05-.4q.4-2.9-.3-5.25l-1.05 1.75-1.95 1.9-.05.05q-4.5 3.05-7.9 3.75l-.05-.7q3.3-.7 7.6-3.55" fill="#455f82"/><path d="m16.75 1.15 1.6 1.65v.05q3.65 4.6 3.6 8.9.4 6.25-5.8 10.1l-.35-.45q3-4.35 2.05-12.7.15-3.55-1.1-7.55" fill="#84b7ec"/><path d="m16.7 1 .05.15q1.25 4 1.1 7.55-.35 6.35-5.25 11.15l-1.95-3.45 1-.95Q20.2 7.2 15.7 1h1m-13 38.05.1-.05q.2-.3.75-.45l.85-.3L9.65 49.3l-5.95-9v-1.25" fill="#fff"/><path d="M6.05 14.2 3.5 11.6l.1-.3q.75-2.9 1.85-5.9l.2.5.05 1.25.1 2.2.25 4.85" fill="#4dffff"/><path d="m3.5 11.6 2.55 2.6.3 4.9-3.7-3.45q.35-2 .85-4.05" fill="#2f87e9"/><path d="M6.05 14.2 5.8 9.35q3.2 8.15 7.4 14.6.45 3.25-.75 5.15l-.6.8-.2.25-1.8 1.5L9.9 30l-.55-4.75-.5-2.95-1.2 1.75-.85 1.25-.15-2.05-.3-3.6v-.55l-.3-4.9" fill="#2728c0"/><path d="m15 23.75.4.6-.05.2Q14.4 27.5 13 29.5q-1.2 1.65-2.7 2.65l-.7.4q-1.45.75-3.25.95-1.05-2.25-1.3-4.75l-.1-2.3.1-1.55-1.1.85-1.75 1.8Q.9 29.1.25 31-1.2 12.2 6.15 0q.25 6.25 4.45 13.8l1.05 1.65-1 .95 1.95 3.45.55.9 1.35 2.2.5.8M5.7 7.15 5.65 5.9l-.2-.5q-1.1 3-1.85 5.9l-.1.3q-.5 2.05-.85 4.05l-.4 3.45Q2 21.8 2.1 24.45l.05 1.15.6-.7 2.5-2.85v.05q0 2.6.25 4.7.35 3.9 1.35 5.95 1.6-.3 3-1.1l1.8-1.5.2-.25.6-.8q1.4-1.9 2.35-4.75-5.35-7.5-9.1-17.2" fill="#0a1799"/><path d="m5.8 9.35-.1-2.2q3.75 9.7 9.1 17.2-.95 2.85-2.35 4.75 1.2-1.9.75-5.15Q9 17.5 5.8 9.35" fill="#5741ae"/><path d="M12.6 19.85q4.9-4.8 5.25-11.15.95 8.35-2.05 12.7-.3-.3-.7-.45l-1.8-.2h-.15l-.55-.9" fill="#cad8fd"/><path d="m2.65 15.65 3.7 3.45v.55l.3 3.6-1.4-1.15V22v.05l-3-2.95.4-3.45m5 8.4 1.2-1.75.5 2.95-1.7-1.2M9.9 30l-.05 1.65q-1.4.8-3 1.1-1-2.05-1.35-5.95L9.9 30m-7.15-5.1-.6.7-.05-1.15.65.45" fill="#4fffff"/><path d="M17 25.55q1-1.85 1.4-3.95 3.3-2.25 7.85-4.35l.2.05-.15 1.45q-.3 3.5-1.15 6.6-4.95 3.3-10.3 10.1l-1.7 2.25q.15-3.35-1.2-5.05 3.2-2.9 5.05-7.1" fill="#86b4ef"/><path d="M13 29.5q4.9-4.95 4.75-8.15 3.8-2.8 8.35-4.7 1.7.45 3.75 0l.05.7q-1.9.35-3.45-.05l-.2-.05q-4.55 2.1-7.85 4.35-.4 2.1-1.4 3.95-1.9 3.6-6.05 6.2l-.65.4q1.5-1 2.7-2.65" fill="#42617e"/><path d="M9.35 25.25 9.9 30l-4.4-3.2q-.25-2.1-.25-4.7l1.4 1.15.15 2.05.85-1.25 1.7 1.2m-4.1-3.2-2.5 2.85-.65-.45q-.1-2.65.15-5.35l3 2.95" fill="#2c88ed"/><path d="m13.15 37.7 1.7-2.25q8.5-8.75 10.4-8.2 1.2.5 2 1.9l.75 2.1q.55 2.2.5 5.55.15 2.5-7.6 2.85 2.4 6.2 3.75 13.4-4.2-4.35-6.1-15.3 9.7-.65 9.65-1.6-.95-4.9-2.75-8.05-3.45 1-14.6 13.4L3.3 33.75l-.25-.1-.1.25v.05l-.05-.1v.05l.05.05V34l.1.25v.1L4.5 38.1l-.7.9-.1.05v-.35l.05-1.05q-.05-.65-.45-.8l-.7-.65-.35-.4v-.25q.35-4.35 2.8-10.65l-.1 1.55.1 2.3q-.45 2.35.05 3.6 1.3 3.2 5.7 8.7l2.35-3.35" fill="#fffdfe"/><path d="m2.2 27.55 1.75-1.8 1.1-.85q-2.45 6.3-2.8 10.65v.25l.35.4.7.65q.4.15.45.8L3.7 38.7v1.6l5.95 9L5.4 38.25l-.85.3Q4 38.7 3.8 39l.7-.9-1.45-3.75.05-.05q.65.75 1.05 1.95L4.9 38l.9-.15 1.95 4.65.85 2.1.35.95H8.9l-.05-.05H8.8l.1.05.05.05 2.1 6-2.8-3-2.75-3.1L2.65 42q-1.4-1.8-.4-3.85-.85-.6-1.15-1-.45-.45-.55-1l.05-.45q.6-5.45 1.6-8.15" fill="#44617f"/><path d="m37.4 25.35 1.1-.25 4.35-1.6q1.25 6.35-11.3 20.95-2.6 3-6.75 9.45-3.25-2.65-5.1-8.2l-.2-.5v-.05l-.55-1.85-.15-.6-.8-4.2-.2-1.1q7.35-.75 9.5-1.45l-.1-.6q-.4-2.5-1.1-4.25l-.15-.35-1-1.85q-4.6 3.55-7.9 6.8-3.05 2.95-4.95 5.65l-.05.1-.55.55-.25.2-.4.05-.1-.05-.4-.1-7.25-7.8-.05-.05-.1-.25v-.1l.1-.25.25.1 7.55 7.75Q22 29.1 25.45 28.1q1.8 3.15 2.75 8.05.05.95-9.65 1.6 1.9 10.95 6.1 15.3l.15-.3.65-1.5q2.8-4.05 5.5-7.1 12.35-13.9 11.3-19.9-7.4 3.9-12.65.3l1.45.55 6.35.25M24.95 52.3l.3-.75-.15.4-.15.35" fill="#466081"/><path d="m3.1 34.3 7.25 7.8.4.1.1.05.4-.05.25-.2.55-.55.05-.1q2.5-1.8 5.9-2.85l.8 4.2.15.6q.05 1.6-1.15 2.5l-.65.4-.75.25-1.9.1q-1.75-.05-4.05-1.8l-2.7-2.25-1.95-4.65-.9.15-.75-1.75q-.4-1.2-1.05-1.95m13.05 8.45-1.4.05-1 .2v.15l1.55.2q1.25 0 1.35-.3.1-.3-.5-.3" fill="#514ba1"/><path d="M6.35 33.5q1.8-.2 3.25-.95l.7-.4.65-.4q.6.35 1 .9l-.05.05q-3.3 2.85-5.55.8" fill="#a8ccfe"/><path d="M17 25.55q-1.85 4.2-5.05 7.1-.4-.55-1-.9 4.15-2.6 6.05-6.2" fill="#33a5ec"/><path d="M12.1 41.35q1.9-2.7 4.95-5.65l10.15-.35.1.6q-2.15.7-9.5 1.45l.2 1.1q-3.4 1.05-5.9 2.85m6.85 1.95.55 1.85v.05l-2.15 1-.1.05-.2.05.1-.1.65-.4q1.2-.9 1.15-2.5" fill="#141e66"/><path d="M41.1 15.55q-.7 4.3-3.7 9.8l-6.35-.25 1.35-.7q6.3.05 8.7-8.85" fill="#3289f0"/><path d="M25.15 25.35q.85-3.1 1.15-6.6l.15-1.45q1.55.4 3.45.05.15 3.35-1.8 6.05 4.25 3.2 4 9.3l-.1.8-.25 2.25-.7 2.85-1.2 3.55-1.2 3.25-1.5 3.05-1.7 2.8-.65 1.5.15-.45.15-.35.15-.4q5.6-11.25 2.75-20.3l-.75-2.1q-.85-1.95-2.1-3.8" fill="#848bf3"/><path d="M14.85 35.45q5.35-6.8 10.3-10.1 1.25 1.85 2.1 3.8-.8-1.4-2-1.9-1.9-.55-10.4 8.2" fill="#cad8ff"/><path d="M26.05 31.4q.4 1.2-.95 2.15-1.2.9-2.95.9-.9 0-.95-.4.1-.3.35-.5.65-.7 2.5-.95 1.65-.25 2-1.2" fill="#19e1ff"/><path d="M17.05 35.7q3.3-3.25 7.9-6.8l1 1.85.15.35q.7 1.75 1.1 4.25l-10.15.35m9-4.3q-.35.95-2 1.2-1.85.25-2.5.95-.25.2-.35.5.05.4.95.4 1.75 0 2.95-.9 1.35-.95.95-2.15" fill="#042a8f"/><path d="m19.5 45.2.2.5-1.25.65-2.6 1.2-1.8.6q-.55 0-2.65-1.15l-2.45-1.4v-.05l-.35-.95L11 46q2.5 1.35 3.15 1.4l2.2-.75.65-.3.25-.1.1-.05 2.15-1" fill="#15083e"/><path d="M16.15 42.75q.6 0 .5.3-.1.3-1.35.3l-1.55-.2V43l1-.2 1.4-.05" fill="#16093f"/><path d="m7.75 42.5 2.7 2.25q2.3 1.75 4.05 1.8l1.9-.1.6-.1-.65.3-2.2.75Q13.5 47.35 11 46l-2.4-1.4-.85-2.1" fill="#9168ce"/><path d="m39.8 11.65 1.05-1.75q.7 2.35.3 5.25l-.05.4q-2.4 8.9-8.7 8.85 5.1-3 7.4-12.75" fill="#86afef"/></g><g id="x" fill-rule="evenodd"><path d="m19.15 8.3-.2-1.25.1-.65q.2-.6.75-1.25.75-.7 1.5-1.1 1.25-.6 3.05-.6l.15.05-.15.35q-.8 1.6-.8 3.6 0 1.15.15 1.9l-1.05.05q-1.8 0-2.95-.7l-.55-.4m-1.1 5.8q-.1-.65.1-1.25l.05-.25.15-.2q.3-.6.95-.75l.85-.05q1.35 0 3.05 1.2L21.95 14q-1.05 1-1.35 2l-.75-.35-1.3-.95-.5-.6" fill="#b575d6"/><path d="M19.8 5.15q-.55.65-.75 1.25l-.1.65.2 1.25q.25.75.9 1.35 1.4 1.15 4.75 1.85l-.35.25-1.65-.25-1.55-.05-1.5.1-.45.1q-.65.15-.95.75l-.15.2-.05.25q-.2.6-.1 1.25l.05.35.55 1.2.8 1.05 1 .95.05.35.3.65-1.05-.55-.9-.15-.4-.05h-.75l-.5.35q.2-3.45-.4-7.7l-3.6 3.55-2.2-1.85-.05-.05q1.1-2.25 2.85-4.3 1.95-2.25 4.35-3.8 2.45-1.45 5.1-2.4l3.2-.8-.3.35q-2.2.6-4.65 2.4l-1.7 1.5" fill="#250b28"/><path d="m24.5 3.5-.15-.05q-1.8 0-3.05.6-.75.4-1.5 1.1l1.7-1.5q2.45-1.8 4.65-2.4-1 1.05-1.55 2.1l-.1.15" fill="#4a1936"/><path d="m19.15 8.3.55.4q1.15.7 2.95.7l1.05-.05q.05.5.25.8.3.65 1.45.85l-.6.5q-3.35-.7-4.75-1.85-.65-.6-.9-1.35m7.3-7.4-3.2.8q-2.65.95-5.1 2.4-2.4 1.55-4.35 3.8-1.75 2.05-2.85 4.3l-.5-.4q.8-3.35 6.2-7.7 5-3.45 10.2-3.55l-.25.2-.15.15m-7.6 17.05.9.15 1.05.55.2.15-1.25.1-.9-.95m1.6-.3-1-.95-.8-1.05-.55-1.2-.05-.35.5.6 1.3.95.75.35q-.25.65-.2 1.3l.05.35m-1.15-6 .45-.1 1.5-.1 1.55.05 1.65.25-1.25 1.05q-1.7-1.2-3.05-1.2l-.85.05" fill="#4b1b35"/><path d="m16.3 11.85-1.2 2.55q-1.4 2.75-2.4 2.75l-.25-.05q-1.4-1.8-2.75-2.8l-.25-2.45 2.3 1.85 1.5 1.45 3.05-3.3" fill="#d92f5e"/><path d="m12.45 17.1.25.05q1 0 2.4-2.75l1.2-2.55.05-.1q.45 4.8-.2 8.65-1.7-.75-2.85-1h-.25l-.5 1.9-.75.7.45-1.9.05-.3.15-1.3-.05-.8.05-.6" fill="#721438"/><path d="m10.95 12.2.05.05 2.2 1.85 3.6-3.55q.6 4.25.4 7.7l-.15 1.65-.05.15-.1.65-.05.4q-.8 4.15-3.05 6.65Q3.25 24.65 0 16.05l4.3.55.2-1 .3-.9.35-1 .4-.95.5-1 .85-1.5.3-.6q1.2.65 2.7 1.75l.55.4.5.4m5.35-.35-3.05 3.3-1.5-1.45-2.3-1.85L7.5 10.7l-1.8 3.5q-.6 1.45-1.05 3.2l-3.8-.5q4.75 8.4 12.9 10.05l.2-.35q1.55-2.7 2.15-6.1l.05-.1q.65-3.85.2-8.65l-.05.1" fill="#661512"/><path d="M23.7 9.35q-.15-.75-.15-1.9 0-2 .8-3.6l.15-.35.1-.15q.55-1.05 1.55-2.1l.3-.35.15-.15.25-.2q-5.2.1-10.2 3.55-5.4 4.35-6.2 7.7l-.55-.4q.85-3.45 6.25-7.8Q21.75-.35 27.7.05l.3.05.2.25V.4l-.4.25-.3.15q-1.15.8-2.05 2.45-1.15 2.15-1.1 4.2.05 2 .35 2.55.25.55 1.2.55l1.7-.25 1.55-.6-2.4 1.25q-1.9.9-3.65 2.6-1.45 1.35-1.9 2.75l-.6-.3q.3-1 1.35-2l1.25-1.2 1.25-1.05.35-.25.6-.5q-1.15-.2-1.45-.85-.2-.3-.25-.8" fill="#1c020f"/><path d="m.85 16.9 3.8.5q.45-1.75 1.05-3.2l1.8-3.5q.2 2.55.75 4.2-1.3 2.15-1.75 3.95L.85 16.9" fill="#d82e5d"/><path d="m9.45 11.85.25 2.45q1.35 1 2.75 2.8l-.05.6-.05-.25-.35-.5-.25-.25q-1.05-.95-3.5-1.8-.55-1.65-.75-4.2l1.95 1.15" fill="#741439"/><path d="m12.4 17.7.05.8q-1.6 1.4-3.15 2.2l-.95-.75q2.45-1.2 3.65-3l.35.5.05.25m-.15 2.4L11.8 22l-.1.4-1-1 .9-.75.65-.55" fill="#ff63cc"/><path d="m12.45 18.5-.15 1.3-.05.3-.65.55-.9.75 1 1v.05l.15.25q.95 1.3 1.9 4.25Q8.5 20 .85 16.9l5.65 1.95q.45-1.8 1.75-3.95.1 1-.35 2.2l-.75 1.95q3.35-.95 4.6-2.35l.25.25q-1.2 1.8-3.65 3l.95.75q1.55-.8 3.15-2.2" fill="#ffaac9"/><path d="m12.55 21.3.5-1.9h.25q1.15.25 2.85 1l-.05.1q-.6 3.4-2.15 6.1l-1.4-5.3" fill="#bf2c73"/><path d="M11.75 16.7q-1.25 1.4-4.6 2.35l.75-1.95q.45-1.2.35-2.2 2.45.85 3.5 1.8" fill="#ff62cb"/><path d="m11.8 22 .75-.7 1.4 5.3-.2.35q-.95-2.95-1.9-4.25l-.15-.25v-.05l.1-.4" fill="#731539"/><path d="m20.8 18.65-.3-.65-.05-.35-.05-.35q-.05-.65.2-1.3l.6.3-.15.65q-.3 1.65 2.45 2.55-2.2-.15-3.5 0l-.25-.6 1.25-.1-.2-.15" fill="#1d0310"/><path d="m17.2 18.25.5-.35h.75l.4.05.9.95-.55.1q-1.1.2-2.15.9l.15-1.65" fill="#b375d6"/><path d="m19.75 18.9.25.6-1.65.35-1.45.85.1-.65.05-.15q1.05-.7 2.15-.9l.55-.1" fill="#1d0213"/><path d="M.85 16.9Q8.5 20 13.75 26.95 5.6 25.3.85 16.9" fill="#ff62c9"/></g><use ffdec:characterId="1" height="34.45" width="101.4" xlink:href="#n" id="b"/><use ffdec:characterId="4" height="37.5" width="51.5" xlink:href="#o" id="d"/><use ffdec:characterId="6" height="46.2" width="74.5" xlink:href="#p" id="e"/><use ffdec:characterId="8" height="24.7" width="19.1" xlink:href="#q" id="f"/><use ffdec:characterId="10" height="16.65" width="12.1" xlink:href="#r" id="g"/><use ffdec:characterId="12" height="33" width="27" xlink:href="#s" id="h"/><use ffdec:characterId="14" height="17.25" width="21.7" xlink:href="#t" id="i"/><use ffdec:characterId="16" height="37.45" width="36.4" xlink:href="#u" id="j"/><use ffdec:characterId="18" height="28.8" width="30.45" xlink:href="#v" id="k"/><use ffdec:characterId="20" height="53.9" width="42.95" xlink:href="#w" id="l"/><use ffdec:characterId="26" height="27.75" width="29.15" xlink:href="#x" id="m"/><path d="M50.7 0q21 0 35.85 5.05Q101.4 10.1 101.4 17.2q0 7.15-14.85 12.2-14.85 5.05-35.85 5.05-21.05 0-35.9-5.05Q0 24.35 0 17.2q0-7.1 14.8-12.15Q29.65 0 50.7 0" fill-opacity=".349" fill-rule="evenodd" id="n"/></defs></svg>