<svg xmlns:ffdec="https://www.free-decompiler.com/flash" xmlns:xlink="http://www.w3.org/1999/xlink" ffdec:objectType="frame" height="90" width="90" xmlns="http://www.w3.org/2000/svg"><use ffdec:characterId="37" height="86.2" transform="translate(3.55 2.35)" width="79.95" xlink:href="#a"/><defs><g id="s" transform="translate(70.9 73.9)"><use ffdec:characterId="1" height="9.8" transform="matrix(1.8069 0 0 3.4042 -58.04 40.57)" width="55.5" xlink:href="#b"/><use ffdec:characterId="4" height="41.45" transform="translate(39.318 23.928) scale(.6581)" width="27.3" xlink:href="#c"/><use ffdec:characterId="6" height="115.15" transform="translate(-8.862 -23.07) scale(.6581)" width="101.7" xlink:href="#d"/><use ffdec:characterId="8" height="20.3" transform="translate(-17.179 11.77) scale(.6581)" width="32.05" xlink:href="#e"/><use ffdec:characterId="10" height="68.3" transform="translate(-50.835 -68.622) scale(.6581)" width="38.4" xlink:href="#f"/><use ffdec:characterId="12" height="24.6" transform="translate(-38.042 14.106) scale(.6581)" width="21.1" xlink:href="#g"/><use ffdec:characterId="14" height="47.6" transform="translate(-39.279 30.038) scale(.6581)" width="32" xlink:href="#h"/><use ffdec:characterId="16" height="24.6" transform="translate(-9.585 46.856) scale(.6581)" width="38.45" xlink:href="#i"/><use ffdec:characterId="18" height="69.2" transform="translate(-30.727 10.082) scale(.6581)" width="47.85" xlink:href="#j"/><use ffdec:characterId="20" height="40.6" transform="translate(-8.59 27.992) scale(.6581)" width="33.45" xlink:href="#k"/><use ffdec:characterId="27" height="121" transform="translate(-46.128 -61.194) scale(.6581)" width="105.7" xlink:href="#l"/><use ffdec:characterId="29" height="92.95" transform="translate(2.836 -73.916) scale(.6581)" width="66.3" xlink:href="#m"/><use ffdec:characterId="31" height="52.8" transform="translate(-33.393 10.127) scale(.6581)" width="48.05" xlink:href="#n"/><use ffdec:characterId="33" height="27.85" transform="translate(-13.823 16.353) scale(.6581)" width="29.4" xlink:href="#o"/><use ffdec:characterId="35" height="29.95" transform="translate(-41.59 19.212) scale(.6581)" width="17.95" xlink:href="#p"/></g><g id="u" fill-rule="evenodd"><path d="M-1.3-17.1q2.6 4.05 4.9 4.8l5.45.6q4.6.7 4.6 2.25Q13.65-8.7 11-4 8.35.65 8.35 2.4T9.8 9.85q1.4 5.75 1.4 7.4l-.1 2.25q-.35 1.25-1.65 1.25-2 0-3.85-2.15l-3.3-4.15-3-3.4q-1.05-1.65-2-2.75l-1.35-1.35q-.65-.35-1.2-.35l-2.7-.45-3.9-.95q-1.8-.55-1.8-2.25 0-1.75 2-5.65 2-3.95 2.05-9l.15-6.3q.1-1.3 2.4-2.4 2.3-1.15 5.25 2.5l.15.25.35.55m-3.1 2.85-.55-.55-.2-.2-.15.25-.05 3 .05 1.15-.05 2.25v.6l.05.9q0 .6-.15 1.25l-.7 1.75-.65 1.05-.9 1.25-.75 1.25-.2.7-.15.4-.05.2.05.1 1.4.45 2.65.25 1.2.25q.5.25 1.05.6l.15.1.3.2 1.4 1.3 2.8 3.15.6.65.8 1 .8 1.05.65.85.2.2h.15l.05-.05.25-.25.05-.35v-.8l-.3-1.95L5.05 6l-.3-1.65-.3-1.4-.3-1.75V.6l.1-.55.7-1.7.55-1 .7-1.15.8-1.15.05-.05.25-.4.65-.95.1-.1q.5-.7.15-1.15l-.8-.3-.25-.05L4.35-8 1.9-8.1Q.55-8.25.05-8.65L-1.3-10.6l-3.1-3.65" fill="#a64b19" transform="translate(13.65 20.7)"/><path d="M-5.45-5.6q.15-.65.15-1.25l-.05-.9v-.6l.05-2.25-.05-1.15.05-3 .15-.25.2.2.55.55L.25-2.15l5.1 13.3H5.2l-.2-.2-.65-.85-.8-1.05-.8-1-.6-.65-2.8-3.15-1.4-1.3-.3-.2-.15-.1 1.5-4.8v-.1l-.65-.5-3.8-2.85" fill="#fffad1" transform="translate(13.65 20.7)"/><path d="m-4.4-14.25 3.1 3.65L.05-8.65q.5.4 1.85.55L1-3.9v.3h.55Q3.3-4.05 5.7-5.85 7.65-7.4 7.4-7.9l.8.3q.35.45-.15 1.15l-.1.1-.65.95-.25.4-.05.05-.8 1.15-.7 1.15-.55 1-.7 1.7-.1.55-3.9-2.75-4.65-12.1" fill="#e67b26" transform="translate(13.65 20.7)"/><path d="m1.9-8.1 2.45.1 2.8.05.25.05q.25.5-1.7 2.05-2.4 1.8-4.15 2.25H1v-.3l.9-4.2M-8.8 1.1l-.05-.1.05-.2.15-.4.2-.7.75-1.25.9-1.25.65-1.05.7-1.75 3.8 2.85L-8.8 1.1" fill="#ffec59" transform="translate(13.65 20.7)"/><path d="M4.15.6v.6l.3 1.75.3 1.4.3 1.65.35 1.75.3 1.95v.8l-.05.35-.25.25-.05.05-5.1-13.3L4.15.6M-2.5 2.65q-.55-.35-1.05-.6l-1.2-.25-2.65-.25-1.4-.45 7.15-3.85.65.5v.1l-1.5 4.8" fill="#e69a26" transform="translate(13.65 20.7)"/></g><g id="v" fill-rule="evenodd"><path d="M9.85-50.7q-3.75.05-7.75 1.1-8 2.1-14.95 5.75 5.1-4.6 11.85-7.1 9.05-3.35 18.05 0l4.2 1.65 2.2.95q2.8 1.25 5.05 3 2.2 1.8 3.45 3.2l1.65 1.8Q31.85-41 30-42.6l-.85-.8-.4-.35q-2.9-2.85-8.85-5.1l-1.7-.6q-3.95-1.3-8.35-1.25m32 27.7L40-31.65q1.4 2.75 2.45 5.85 2.3 6.9 1.9 12.85l-.5 3.5-1.4 5.85-.3.95-.9 1.55-.65 1.05-2.45 3.35q-2.55 3.05-6.1 4.65l-2.1.75-5.55.45q-4.75-.45-8.35-3.5l-.2-.2-1-1.15q4.95 4.65 13.3 3.2 7.6-1.35 11.3-7.9l.1-.2.5-1.05q3.55-7.7 2.55-16.1l-.65-4.85-.05-.1-.05-.3M16.05 8.85l.9.7q-.5 1.15-.45 2.65l.1 1.55q1 3.65 1.25 7.55.35 5.25-.65 10.95-1.8 9.9-12.55 16.95-10.75 7.05-21.9 2.2-6.15-2.65-11.1-6.65l1-.25q5.8 4.4 13 6.05 8.4 1.9 16-1.5 8.2-3.8 12.25-11.8 3.9-7.7 2.5-17.1l-.1-.7q-1.3-7.6-.25-10.6" fill="#91f0e7" transform="translate(50.85 57.55)"/><path d="M-12.85-43.85Q-5.9-47.5 2.1-49.6q4-1.05 7.75-1.1-3.9 1.5-6.9 5.25-2.5 3.2-3.45 6.9l-.35.3-1.8 1.75-3.9 4.15-5.1 6.1-4.45 5.55-2.7 3.4-4.45 6.1q-2.35 3.25-3.95 6.65-1.75 3.7-2.55 7.5-.7 3.6-.2 7.1l.55 2.4-1.25.6q-2.3 1.15-3.55 1.35l-6.5 1.45-4.6 1-.1-.5-.6-3.9-.05-.25-.25-1.1-.4-2.15q-.7-12.45 1.45-15.8 2.15-3.5 7.05-9.1l10.55-12.35q6.25-7.4 11.35-12.2l.7-.65 1.6-1.65 1.15-1.05m-15.5 88.6q-4.05-3.25-7.3-7.35l-3.65-5.25.4-.15q7.85-3.7 12.7-5.55 4.05-1.6 4.85-2.25l.05.05 2.65 3.45q2.1 2.8 4.6 4.75l4.05 2.9q-2.65 3.45-7.1 5.4-5.25 2.3-10.25 3.75l-1 .25" fill="#6a152f" transform="translate(50.85 57.55)"/><path d="m33.6-40.35-1.65-1.8q-1.25-1.4-3.45-3.2-2.25-1.75-5.05-3l-2.2-.95-4.2-1.65q-9-3.35-18.05 0-6.75 2.5-11.85 7.1L-14-42.8l-1.6 1.65-.7.65q-5.1 4.8-11.35 12.2L-38.2-15.95q-4.9 5.6-7.05 9.1-2.15 3.35-1.45 15.8l.4 2.15.25 1.1.05.25.6 3.9.1.5q.95 4.45 2.6 8.5 1.4 3.55 3.4 6.8l3.65 5.25q3.25 4.1 7.3 7.35 4.95 4 11.1 6.65 11.15 4.85 21.9-2.2Q15.4 42.15 17.2 32.25q1-5.7.65-10.95-.25-3.9-1.25-7.55l-.1-1.55q-.05-1.5.45-2.65l-.9-.7q-3.6-2.95-4.35-5.9-.9-3.4-.4-5.95.45-2.6 3.2-5.3 2.7-2.7 6.35-2.65 3.6.05 5.65 2.85 2.05 2.8 2.05 6.15 0 2.4-1.4 4t-3.35 1.6q-1.25 0-2.55-.9 1.75-.1 3.3-1.1Q26.5.4 26.5-1.95q0-.95-.8-3Q24.85-7 23.5-7.6L21-8.3l-2.55.1q-1.5.3-3.3 2.35-1.85 2.05-1.95 4.5-.1 2.4.65 3.95l1 1.7 1 1.15.2.2q3.6 3.05 8.35 3.5l5.55-.45 2.1-.75q3.55-1.6 6.1-4.65L40.6-.05l.65-1.05.9-1.55.3-.95 1.4-5.85.5-3.5q.4-5.95-1.9-12.85-1.05-3.1-2.45-5.85-2.55-4.85-6.4-8.7m10.15 3.55.3.5q5.15 8 6.4 14.8 1.3 7-1.75 16.05l-.6 1.65-1.75 3.75Q43.4 5.4 38.45 9.3 31.2 15 22.7 15.05q2.25 15.2-5.2 27.45l-1.15 1.75q-5.15 7.5-13.2 10.95-3.8 1.65-8.25 2.4-13.85-.55-22.4-4.95Q-39 47.05-43.35 35l-.3-.85-2.6-7.6-2.5-8.95Q-54-4.25-46.2-11.4q11.35-10.55 21.25-23.85Q-15.1-48.6-2.45-54.6q12.6-6 25.05.15Q34.75-48.4 43.75-36.8" fill="#6d1d03" transform="translate(50.85 57.55)"/><path d="M19.9-48.85q5.95 2.25 8.85 5.1l.4.35q-4.95-1.85-9.1-2.35l-7.1.2-.4.1q-3 .65-5.75 1.9v-.05q1.95-1.8 4.4-2.8 4.1-1.7 8.7-2.45m-15.75 26q3.1-1.9 6.7-3.3 14.95-5.8 23.35-1.4Q41.05-24 41.85-23l.05.3.05.1q-1.5 2.3-6.55 3.1l-13.7 1.7q-7.25.7-12.65-1.15-3.15-1.1-4.9-3.9" fill="#b05b2c" transform="translate(50.85 57.55)"/><path d="m29.15-43.4.85.8q1.85 1.6 3.6 2.25 3.85 3.85 6.4 8.7L41.85-23q-.8-1-7.65-4.55-8.4-4.4-23.35 1.4-3.6 1.4-6.7 3.3-1.3-2.05-1.85-5-1.3-7 1.45-11.85 1.25-2.25 3-3.8l.05-.05q2.75-1.25 5.75-1.9l.4-.1 7.1-.2q4.15.5 9.1 2.35" fill="#eb9329" transform="translate(50.85 57.55)"/><path d="M9.85-50.7q4.4-.05 8.35 1.25l1.7.6q-4.6.75-8.7 2.45-2.45 1-4.4 2.8l-.05.1q-2.85 1.25-5.1 3.1L-.5-38.55q.95-3.7 3.45-6.9 3-3.75 6.9-5.25M39.55-.6q-1.2-9.1-9.55-13-8.5-4-16.55.35Q5.4-8.95.5-2.4-3.4 2.7-5.2 8.65l-.85 3.25-.1 1.3.45 6.25q.4 5.1-2.05 11.7-.85 2.3-2.25 4.2l-4.05-2.9q-2.5-1.95-4.6-4.75l-2.65-3.45.25-.2q1.2-.95 2.05-2.15 1.2-2.8 1.75-7.25l.85-6.95q.2-2.45 1.25-4.85l2.05-4.7q1.35-1.7 2.25-3.7 5.1-11.25 15-17.3 1.75 2.8 4.9 3.9 5.4 1.85 12.65 1.15l13.7-1.7q5.05-.8 6.55-3.1l.65 4.85q1 8.4-2.55 16.1l-.5 1.05" fill="#7a2810" transform="translate(50.85 57.55)"/><path d="m-29.4 12.45-.55-2.4q-.5-3.5.2-7.1.8-3.8 2.55-7.5 1.6-3.4 3.95-6.65l4.45-6.1 2.7-3.4 4.45-5.55 5.1-6.1 3.9-4.15 1.8-1.75.35-.3 2.15-1.85q2.25-1.85 5.1-3.1-1.75 1.55-3 3.8Q1-34.85 2.3-27.85q.55 2.95 1.85 5-9.9 6.05-15 17.3-.9 2-2.25 3.7l-2.05 4.7q-1.05 2.4-1.25 4.85l-.85 6.95Q-17.8 19.1-19 21.9q-.85 1.2-2.05 2.15l-.25.2-.05-.05-1.75-2.15-4.35-5.6q-1.25-1.85-1.95-4M14.85 4.3l-1-1.7q-.75-1.55-.65-3.95.1-2.45 1.95-4.5 1.8-2.05 3.3-2.35L21-8.3l2.5.7q1.35.6 2.2 2.65.8 2.05.8 3 0 2.35-1.95 3.6-1.55 1-3.3 1.1 1.3.9 2.55.9 1.95 0 3.35-1.6 1.4-1.6 1.4-4 0-3.35-2.05-6.15-2.05-2.8-5.65-2.85Q17.2-11 14.5-8.3 11.75-5.6 11.3-3q-.5 2.55.4 5.95.75 2.95 4.35 5.9-1.05 3 .25 10.6l.1.7-1.3 6.1q-.7 3.15-1.75 5.35l-2.05 3.75q-.95 1.55-4 2.95-3.05 1.35-6.5.95-3.45-.45-5.95-1.5-2.55-1.05-4.6-2.25l-.25-.15q1.4-1.9 2.25-4.2 2.45-6.6 2.05-11.7l-.45-6.25.1-1.3.85-3.25Q-3.4 2.7.5-2.4q4.9-6.55 12.95-10.85Q21.5-17.6 30-13.6q8.35 3.9 9.55 13l-.1.2q-3.7 6.55-11.3 7.9-8.35 1.45-13.3-3.2" fill="#cc6a22" transform="translate(50.85 57.55)"/><path d="m-45.3 16.85 4.6-1 6.5-1.45q1.25-.2 3.55-1.35l1.25-.6q.7 2.15 1.95 4l4.35 5.6 1.75 2.15q-.8.65-4.85 2.25-4.85 1.85-12.7 5.55l-.4.15q-2-3.25-3.4-6.8-1.65-4.05-2.6-8.5m35.3 18.5.25.15q2.05 1.2 4.6 2.25 2.5 1.05 5.95 1.5 3.45.4 6.5-.95 3.05-1.4 4-2.95l2.05-3.75q1.05-2.2 1.75-5.35l1.3-6.1q1.4 9.4-2.5 17.1-4.05 8-12.25 11.8-7.6 3.4-16 1.5-7.2-1.65-13-6.05 5-1.45 10.25-3.75 4.45-1.95 7.1-5.4" fill="#b65b24" transform="translate(50.85 57.55)"/></g><g id="w" fill-rule="evenodd"><path d="M14.7 6.7q-.1-.1.1-1.7.15-1.65-2.75-4.35L10.4-.85 9.2-1.9l-.4-.2-.9-.5-.4-.2Q2.1-5.35-11.8-9.1q5.1-1.85 9.4-.45l1 .4.15.05 2.5 1.15Q5.8-5.9 9-4.1l1.2.7.25.15.05.05h.05l1.5 1.05.8.75 1.9 2.15q1.75 2.1 1.1 3.8L14.7 6.7" fill="#6d1d03" transform="translate(16 10.15)"/><path d="m14.7 6.7-.1.5q-.9 3.4-4.9 2.9-6.1.3-11.25-1.45-4.8-1.6-8-5.35l-.15.6q-3.25-1.55-5.1-4.75-3.35-5.9 2.7-8.15l.3-.1Q2.1-5.35 7.5-2.8l.4.2.9.5.4.2 1.2 1.05 1.65 1.5q2.9 2.7 2.75 4.35-.2 1.6-.1 1.7" fill="#cc6a22" transform="translate(16 10.15)"/></g><g id="x" fill-rule="evenodd"><path d="M15-26.15q.1 3.4-1.9 6.55-2 3.1-6.85 7.1.4.95 2.1 2.35l2.6 2.2q1.35 1.3 3.35 2.75 2.3 1.65 2.85 2.7Q18.5.05 19.2 7.35l-2.5 3.35L9.95 20q-3 4.3-7.25 9.15l-4.45 5-2.95-3.8-2.4-2.8q-5.25.65-8.95-2.65-3.75-3.4-3-7.15.75-3.8 1.7-5.05l3.25-3.9q-1.35-3.75-1.35-6.1 0-2.8 1.35-6.5l1.35-3.35-.9-1.35q-.9-1.15-1.35-4.2-.5-3.05.9-6.85 1.35-3.85 3.75-4.7 2.35-.9 3.55-.7l1.7.3q.25-2.15 4.05-5.75 3.8-3.55 8.2-3.75 4.4-.25 6.05 2.15 1.65 2.4 1.8 5.85M8.75 9.5 11 7.05q.8-.9 2.35-1.9Q14.9 4.1 15.15 4l.85-.65q1-.9 1-1.7 0-.9-1.25-1.15-1.25-.25-3.1-1.2-1.85-1-2.6-1.5L7.4-4.25l-2.75-2.1Q3.8-6.95 2.5-8.9l-.55-.75-.1-.1q-1.1-1.2-2.4-1.45l-.35-.05q.6.05 2.55-1.95 2-2.05 3.55-4.35l2.95-4.75Q10-25.35 10-26.55q0-1.35-.55-2.3Q8.7-30.2 6.8-30.3q-1.45-.1-3.1 1.2l-.1-.05-.3.4-.6.55-3 3.35-1.35 2.2-.8 1.35-1 1.6-1.65 2.4-.3.45-.5-2.35q-.6-1.7-1.4-1.85l-.2-.05q-.75 0-1.45.95l-1.15 2-.25 2.2-.05 2.2.25 2.75.6 2.25.65 2.4.1.75-1.05 3.8q-1 3.05.05 10.75 2.15.1 2.15-.5l-.5-.85q-.5-.9-.5-2 0-1.75.85-2.7.8-1 2.2-.95 1.4.05 2.35.55.9.5.95.55h.6l.15-.65q0-.45-.6-1.45L-3.3-.9l-1.05-1.25q-.55-.45-.6-.9v-.6h.55q1.5.1 3.35 2.75Q.75 1.7 1.8 3.8l1.7 4.1.85 2.8.45 3.85.6-.65 1.25-1.65q.4-.75 1.15-1.65l.75-.9.2-.2m-19.3 2.85-.35.3-1.5 1.35q-.95.95-1.4 4.45-.45 3.55 3.55 4.05l2.8.25L-5 22.4l2.45-1.35h.05v.1h.45l-.75 1.7-.3 1.25.5.95q.55.5.9.45l.4-.1.6-1.75.85-2.2 2.15-2.8 1.45-2.15-.2-.8-.35-.85L1.65 8.6Q1.45 7.7.9 7L-.7 5.35-2.5 4.2l-3.35-.15-.45.15-.2.2-.25.4-.05.75q0 2.15 2.75 3.7 1.6.95 3.75 1.4l.15.55-1.9-.45q-1.7-.55-2.75-.55l-2.3.3q-1.75.45-3.05 1.55l-.4.3" fill="#6d1d03" transform="translate(19.2 34.15)"/><path d="m1.95-9.65.55.75q1.3 1.95 2.15 2.55l2.75 2.1 2.65 2.05q.75.5 2.6 1.5 1.85.95 3.1 1.2T17 1.65q0 .8-1 1.7l-.85.65q-.25.1-1.8 1.15-1.55 1-2.35 1.9L8.75 9.5h-.1q.55-2.05.6-4.1.15-3-.9-5.65-1-2.65-3.05-4.45L1.8-8.15l-.5-.5.05-.05.6-.95" fill="#cc6a22" transform="translate(19.2 34.15)"/><path d="m1.3-8.65.5.5L5.3-4.7Q7.35-2.9 8.35-.25q1.05 2.65.9 5.65-.05 2.05-.6 4.1l-.1.2-.75.9q-.75.9-1.15 1.65L5.4 13.9l-.6.65-.45-3.85-.85-2.8-1.7-4.1Q.75 1.7-1.05-.9-2.9-3.55-4.4-3.65h-.55v.6q.05.45.6.9L-3.3-.9-2.15.95q.6 1 .6 1.45l-.15.65h-.6q-.05-.05-.95-.55-.95-.5-2.35-.55-1.4-.05-2.2.95-.85.95-.85 2.7 0 1.1.5 2l.5.85q0 .6-2.15.5-1.05-7.7-.05-10.75l1.05-3.8-.1-.75 6.3.4Q-1-6.3.1-7.25l1.2-1.4" fill="#f09e3c" transform="translate(19.2 34.15)"/><path d="M-7.45 22.75q2.8-2 4.2-3.6 1.4-1.65 1.6-3.1.15-1.5-.8-2.35-.95-.85-3.75-1.15l-3-.3-1.35.1.4-.3q1.3-1.1 3.05-1.55l2.3-.3q1.05 0 2.75.55l1.9.45-.15-.55-1.6-1.5-1.35-1.4-1.7-1.95-1.55-1.4.2-.2.45-.15 3.35.15 1.8 1.15L.9 7q.55.7.75 1.6l1.55 6.25.35.85.2.8-1.45 2.15-2.15 2.8-.85 2.2-.6 1.75-.4.1q-.35.05-.9-.45l-.5-.95.3-1.25.75-1.7h-.45V21l-.05.05L-5 22.4l-2.45.35" fill="#dfc893" transform="translate(19.2 34.15)"/><path d="m-7.45 22.75-2.8-.25q-4-.5-3.55-4.05.45-3.5 1.4-4.45l1.5-1.35.35-.3 1.35-.1 3 .3q2.8.3 3.75 1.15.95.85.8 2.35-.2 1.45-1.6 3.1-1.4 1.6-4.2 3.6m7.15-12.1q-2.15-.45-3.75-1.4Q-6.8 7.7-6.8 5.55l.05-.75.25-.4 1.55 1.4 1.7 1.95 1.35 1.4 1.6 1.5" fill="#fff5d6" transform="translate(19.2 34.15)"/><path d="m1.95-9.65-.6.95-.05.05-1.2 1.4q-1.1.95-2.7 1.3l-6.3-.4-.65-2.4-.6-2.25.35.05q1.3 0 2.25-.65.9-.7 1.3-2.85.35-2.15-.2-4.15l-.85-2.45q.8.15 1.4 1.85l.5 2.35.3-.45 1.65-2.4 1-1.6-.45 2.3q-.35 2.8.4 3.55t1.55.5q.7-.25 1.65-1.1l3.1-3.15q2.15-2.25 2.15-5.15 0-2.9-.45-3.6-.5-.65-1.8-1.15 1.65-1.3 3.1-1.2 1.9.1 2.65 1.45.55.95.55 2.3 0 1.2-1.85 4.25L5.2-17.55q-1.55 2.3-3.55 4.35-1.95 2-2.55 1.95l.35.05q1.3.25 2.4 1.45l.1.1" fill="#7a2810" transform="translate(19.2 34.15)"/><path d="m-10.15-11-.25-2.75.05-2.2.25-2.2 1.15-2q.7-.95 1.45-.95l.2.05.85 2.45q.55 2 .2 4.15-.4 2.15-1.3 2.85-.95.65-2.25.65l-.35-.05m7.7-10.3.8-1.35 1.35-2.2 3-3.35.6-.55.35-.35h.05q1.3.5 1.8 1.15.45.7.45 3.6 0 2.9-2.15 5.15L.7-16.05q-.95.85-1.65 1.1-.8.25-1.55-.5T-2.9-19l.45-2.3" fill="#b05b2c" transform="translate(19.2 34.15)"/></g><g id="y" fill-rule="evenodd"><path d="M-7.5 8.5Q-8.95 7-10.1 4.85q-1.15-2.2.6-4.4.6-1.2 4.3-4.3l1.65-1.55 3.8-4 .3-.55q.6-.85 2.3-1.5 2.2-.85 4.3-.85 1.6 0 2.55.95.85.85.85 2.15l-.4 1.6-.55 1.55-.9 1.6q-2.45 4.4-2.8 5.7Q5.45 3 2.85 4.5.25 6-.05 7.95L-.9 12.3l-.1-.15-4.3-1.95.75-1.95q.85-1.75 1.4-1.9l.75-.65Q5.55-1.4 6.5-4q.95-2.8-.35-3.75Q3-6.8.4-4.55L-2.9-1.7l-.85.75-1.95 2.6q-2.05 3.1-2.05 5.1l.25 1.75" fill="#6d1d03" transform="translate(10.55 12.3)"/><path d="m-7.5 8.5-.25-1.75q0-2 2.05-5.1l1.95-2.6.85-.75L.4-4.55Q3-6.8 6.15-7.75q1.3.95.35 3.75-.95 2.6-8.9 9.7l-.75.65q-.55.15-1.4 1.9l-.75 1.95-2.2-1.7" fill="#cc6a22" transform="translate(10.55 12.3)"/></g><g id="z" fill-rule="evenodd"><path d="m-6.95-22.8.05-.05q1.6-.85 3.15-.95h.95q5.9.35 8.5 2.85 3.4 3.3 5.6 14 .25 1.3.05 5.1-.2 3.25.55 4.95l2.4 4.65Q16 11 16 12.25q0 6.25-4.7 8.9-4.7 2.65-8.2 2.65-3.5-.05-8.55-1.55-3.05-2-3.8-3.85l-4.35-3.15q-1.4-1.4-1.25-3.2.15-1.8 1-3.1.8-1.35 1.9-2.4-1.4-.8-2.8-4.35t-1.2-7.5q.2-4 1.85-8.25 1.65-4.25 7.15-9.25M-3.6 8.25l.5.2 2 .4h.3q5.7-.2 6.85-2.35Q7.3.95 7.1-5q-.2-6.05-3.6-10.05Q.05-19.1-3.9-18.6q-3.95.45-5.85 7.6-.8 3.15-.85 6.05-.1 3.7 1.15 7.05Q-7.95 6.35-4.3 8l.7.25m7.3 2.3-3.65.5-2.35-.35-1.75-.55-1.8-.85-.85-.35q-.55-.35-1.25.2l-1.4 1.5q-.4.55-.35 1.15l.4 1.1.6.55q.25.1 1.05-1.05.8-1.15 1.55-1.3.7-.15.7.25l-.45 1.45-.5 1.7q0 .95.5.95l1.15-.95 1.65-1.45h.25v.35l-.5 1.55-.2.85q0 1.65 1.85 2.5 1.5.7 3.95.4l3.7-.75 1.85-.85 1.75-1.3q1.2-.9 2.1-3.4l.3-.9q.6-1.85.6-2.7 0-.7-.45-1.2-.45-.55-1.2-.55-1.7 0-4.3 2v.05q-1.35.95-2.95 1.45" fill="#6d1d03" transform="translate(16 23.8)"/><path d="M-3.3 14.95q2.05 2.5 5.35 2 3.3-.65 2.65-4.2-.25-1.3-1-2.2 1.6-.5 2.95-1.45 1.7 1.25 3.8 1.95l1.55.45-.3.9q-.9 2.5-2.1 3.4l-1.75 1.3-1.85.85-3.7.75q-2.45.3-3.95-.4-1.85-.85-1.85-2.5l.2-.85" fill="#dfc893" transform="translate(16 23.8)"/><path d="m-3.3 14.95.5-1.55v-.35h-.25L-4.7 14.5l-1.15.95q-.5 0-.5-.95l.5-1.7.45-1.45q0-.4-.7-.25-.75.15-1.55 1.3-.8 1.15-1.05 1.05l-.6-.55-.4-1.1q-.05-.6.35-1.15l1.4-1.5q.7-.55 1.25-.2l.85.35 1.8.85 1.75.55 2.35.35 3.65-.5q.75.9 1 2.2.65 3.55-2.65 4.2-3.3.5-5.35-2" fill="#fff5d6" transform="translate(16 23.8)"/><path d="M6.65 9.1v-.05q2.6-2 4.3-2 .75 0 1.2.55.45.5.45 1.2 0 .85-.6 2.7l-1.55-.45q-2.1-.7-3.8-1.95" fill="#e7a54d" transform="translate(16 23.8)"/><path d="m-.8 8.85.15-1.6.15-2.1q0-4.05-1.2-6.9Q-3.5-6-7.5-6l-.25.05-1.7.4-1.15.6q.05-2.9.85-6.05 1.9-7.15 5.85-7.6 3.95-.5 7.4 3.55 3.4 4 3.6 10.05Q7.3.95 6.05 6.5 4.9 8.65-.8 8.85" fill="#cc6a22" transform="translate(16 23.8)"/><path d="m-3.6 8.25-3.05-3.8q-1.9-2.8-1.9-6.1 0-2.75.8-4.3L-7.5-6q4 0 5.8 4.25Q-.5 1.1-.5 5.15l-.15 2.1-.15 1.6h-.3l-2-.4-.5-.2" fill="#eb9329" transform="translate(16 23.8)"/><path d="M-7.75-5.95q-.8 1.55-.8 4.3 0 3.3 1.9 6.1l3.05 3.8-.7-.25q-3.65-1.65-5.15-5.9-1.25-3.35-1.15-7.05l1.15-.6 1.7-.4" fill="#ffbf98" transform="translate(16 23.8)"/></g><g id="A" fill-rule="evenodd"><path d="M-15.15-3.7q.9-3.3 4.15-4.25 4.65-1.4 9.6-2 3.85-.6 7.55 1.1v.5q0 1.25.7 1.9L8.9-5.2l1.65 1.1 1.2 1.1Q12.9-1.95 13.3-.55l.35 2.5-.3.25q-.95-2.4-1.75-3L9.95-2q2.7 2.7 1.85 5.45-.9 2.7-3.5 3.65-.15-3.55-1.55-4.95Q5.35.7 4.15.7 5.8 5.8 5.2 7q-.65 1.15-3.35 1.45-2.75.25-5.4-1.85L-5.25 5l.05-.05q1.5 0 3.6.95 2.1.9 2.95.9 1.3 0 2.1-.85.65-.75.65-1.7 0-1.1-.7-2.45L1.95-.55l-2.2-2.2Q-2.25-5-4.95-5l-2.6.2-2.7 1.05q-2.5 1.2-3.1 2l-.2-.15-1.5-1-.1-.8" fill="#dfc893" transform="translate(19.2 12.3)"/><path d="M-5.3 4.95q-1.3-1.4-1.95-2.9Q-8.35-.4-10.4-.8q-1.85-.35-2.95-.95.6-.8 3.1-2l2.7-1.05 2.6-.2q2.7 0 4.7 2.25l2.2 2.2L3.4 1.8q.7 1.35.7 2.45 0 .95-.65 1.7-.8.85-2.1.85-.85 0-2.95-.9-2.1-.95-3.6-.95h-.1" fill="#fff5d6" transform="translate(19.2 12.3)"/><path d="m6.15-8.85 1.75.9q4.5 2.7 6.3 5.35 1.65 2.5-.55 4.55l-.35-2.5q-.4-1.4-1.55-2.45l-1.2-1.1L8.9-5.2 6.85-6.45q-.7-.65-.7-1.9v-.5" fill="#91f0e7" transform="translate(19.2 12.3)"/><path d="M7.35-11.9q4.4.7 6.25 2.95l3.75 4.4q1.95 2.15 1.9 3.6L19.05 2q-.2 1.45-1.75 2.55-1.6 1.1-4 3.8Q10.9 11 9.25 11l-1.2-.25L7 10.5l-1.85.9q-1.9.9-3.2.9L-.7 12l-3.65-1q-1.4-.65-2.95-2-1.65-1.4-2.95-3.55-1.35-2.2-2.4-2.85-.35-.25-2.5-.8-1.65-.45-2.65-1.3-.85-.65-1.4-2.65.2-2.65 3.45-6.05 1.05-1.15 3.1-2.3 2.1-1.2 3.2-1.2l4.65-.3 3.8-.3 8.35.4m-1.2 3.05q-3.7-1.7-7.55-1.1-4.95.6-9.6 2-3.25.95-4.15 4.25h-.1l.2.8 1.5 1 .2.15q1.1.6 2.95.95 2.05.4 3.15 2.85.65 1.5 1.95 2.9l.05.05 1.7 1.6q2.65 2.1 5.4 1.85Q4.55 8.15 5.2 7 5.8 5.8 4.15.7q1.2 0 2.6 1.45 1.4 1.4 1.55 4.95 2.6-.95 3.5-3.65Q12.65.7 9.95-2L11.6-.8q.8.6 1.75 3l.3-.25q2.2-2.05.55-4.55-1.8-2.65-6.3-5.35l-1.75-.9v-.1.1" fill="#6d1d03" transform="translate(19.2 12.3)"/></g><g id="B" fill-rule="evenodd"><path d="M-16.45 19.95q-1.2-2-1.1-4 .15-3.7 2.1-7.75 5.3 1.55 11.35 1.75 6.05.2 9.4 3.8 3.25 3.5.25 8.2l-.25.3q-1.65 2.4-4.1 3.55.55-1.75.15-3.85-.45-2.5-3.15-3.2-2.7-.7-4.8 0-2.1.7-4.75.85l-5.1.35" fill="#dfc893" transform="translate(23.9 34.6)"/><path d="m-16.45 19.95 5.1-.35q2.65-.15 4.75-.85t4.8 0q2.7.7 3.15 3.2.4 2.1-.15 3.85l-.4.15q-1.9.75-4.25.8-6 .1-10.1-3.5-1.9-1.65-2.9-3.3" fill="#fff5d6" transform="translate(23.9 34.6)"/><path d="m-17.55 20.2.25.4.2.25 1.9 2.3 1.85 1.85.3.25q3.05 2.9 8.2 3.85l8.85.55 1.3-.15q3.35-.6 7.95-2.55 5-2.15 10.2-5.35l-3.1 3.1-4.15 2.6q-2.35 1.15-3.45 2.8-.35.5-.4.95-6.75 4.8-16.7 3.15-1.6-.45-2.9-1.45l-.8-.65-.9-.85-5.3-3.8q-4-2.8-3.3-7.25" fill="#6d1d03" transform="translate(23.9 34.6)"/><path d="M-17.55 20.2-18.8 18l-1.65-4.15Q-23.85 3.4-23.9-7.7q-.05-12.25 8.25-21.05 8.65-9.15 20.05-4 2 .95 5.15 3.25 3.1 2.3 4.45 4.45l1.35 2.35q-.6-.9-1.65-.75.6 3.5-.05 5.4-.65 1.85-.7 3.35-.05.9.25 1.7.45 1.3 1.25 2.4 1.7 2.25 4.15 3.6l4.5 18.4q1.5 6.45.35 10.2-5.2 3.2-10.2 5.35-4.6 1.95-7.95 2.55l-1.3.15-8.85-.55q-5.15-.95-8.2-3.85l-.3-.25-1.85-1.85-1.9-2.3-.2-.25-.25-.4M1.2 25.8q2.45-1.15 4.1-3.55l.25-.3q3-4.7-.25-8.2-3.35-3.6-9.4-3.8-6.05-.2-11.35-1.75-1.95 4.05-2.1 7.75-.1 2 1.1 4 1 1.65 2.9 3.3 4.1 3.6 10.1 3.5 2.35-.05 4.25-.8l.4-.15" fill="#cc6a22" transform="translate(23.9 34.6)"/></g><g id="C" fill-rule="evenodd"><path d="m-3.35-4.3 3.3.6q2.1.45 3.85 1.9Q6-.1 7.15 2.45q1.1 2.55 1.2 5.3.05 2.75-1.7 4.95-1.4 1.75-3.5 2.35L-.4 14.5q-2.35-.8-4.15-2.2-1.85-1.4-2.3-2.4 2.5.8 4.25-1.15 1.75-2 1.1-3.7-.65-1.7-2.85-2.45-2.2-.75-5 .6 1-3.9 3.4-5.7l2.1-1.5.5-.3M-.1 10.1q.45.4.95.4.55 0 .95-.4l.45-.85q0-.5-.45-.9Q1.4 8 .85 8q-.5 0-.95.35-.4.4-.4.9t.4.85" fill="#eb9329" transform="translate(16.7 20.3)"/><path d="m-3.35-4.3-.5.3-2.1 1.5q-2.4 1.8-3.4 5.7 2.8-1.35 5-.6 2.2.75 2.85 2.45.65 1.7-1.1 3.7-1.75 1.95-4.25 1.15.45 1 2.3 2.4 1.8 1.4 4.15 2.2l3.55.55-1.1.25-5.7-.15q-2.8-.6-4.65-1.95-1.9-1.35-3.4-4-1.55-2.65-.85-6.2.65-3.55 2.95-5.2 2.25-1.7 5.2-2.15l1.05.05M-.1 10.1q-.4-.35-.4-.85t.4-.9Q.35 8 .85 8q.55 0 .95.35.45.4.45.9l-.45.85q-.4.4-.95.4-.5 0-.95-.4" fill="#ffbf98" transform="translate(16.7 20.3)"/><path d="M-10.05-20.3q7.7 3.2 11.3 5.25 4.65 2.6 7.8 6.65 2.8 3.7 4 6.75l.2.55q2.1 7.75-.15 12.45-2.35 4.9-8.9 6-6.6 1.1-11.75-1.05-4.1-1.7-7.55-5.1-.7-.65-.95-.6l-.35-1.95-.3-2.85Q-16.7-.8-15-9q1.35-6.55 4.95-11.3m13.2 35.35q2.1-.6 3.5-2.35 1.75-2.2 1.7-4.95-.1-2.75-1.2-5.3Q6-.1 3.8-1.8 2.05-3.25-.05-3.7l-3.3-.6-1.05-.05q-2.95.45-5.2 2.15-2.3 1.65-2.95 5.2-.7 3.55.85 6.2 1.5 2.65 3.4 4 1.85 1.35 4.65 1.95l5.7.15 1.1-.25" fill="#cc6a22" transform="translate(16.7 20.3)"/><path d="M-16.05 10.6q.25-.05.95.6 3.45 3.4 7.55 5.1 5.15 2.15 11.75 1.05 6.55-1.1 8.9-6 2.25-4.7.15-12.45l-.2-.55q-1.2-3.05-4-6.75-3.15-4.05-7.8-6.65-3.6-2.05-11.3-5.25 8.3 2.35 11.9 4.05 4.5 2.1 8.9 6.4 4.4 4.3 5.45 9.65 1 5.35.1 9.45-.75 3.15-1.95 5.05l-.2.35-.7.6L9.35 18q-4.85 2.95-12.5 2.15-7.65-.85-10.2-5.65l-2.9-3.75.2-.15" fill="#6d1d03" transform="translate(16.7 20.3)"/></g><g id="l" transform="translate(52.85 60.7)"><use ffdec:characterId="21" height="121" transform="translate(-52.85 -60.7)" width="105.7" xlink:href="#q"/><use ffdec:characterId="22" height="32.75" transform="translate(-45.8 9.1)" width="66.9" xlink:href="#r"/></g><g id="q" fill-rule="evenodd"><path d="m77.5 6.05-4.95.2-5.3.6q-2 .3-5.9 1.35-3.9 1.05-4.65 1.55l-.1.05q-5.1 3.2-7.1 5.55L45.6 20q-1.85 2.3-2.65 5-.85 2.65-1 4.9-.15 2.2.2 3.15l-1.55-.25-.6-1.75q-.5-1.45-.5-2.7l.05-2.75.85.35q.2-1.2 1.25-4.45 1-3.25 5.2-7.85 4.15-4.6 7.4-6.5Q57.45 5.2 64.3 4.2q5.15-.75 13.2 1.85M28.85 29.7q-1.05 1.85-2.9 3.65 5.55 2.95 5.55 7 0 1.1-1.1 2.45-1.3 1.55-2.85 1.55l-3.3-.5q-.9-.55-1.35-.5-.5 0-1.6 2.5l-.6 1.55-.15.45-.9-.25-.45-.1h-.35q-3.25-.35-6.15.75l2.35-4.1q2.2-3.55 4.6-6.7 3.35-4.45 7-8.05l2.45-2.3-.15 1.4v.1l-.1 1.1M39.9 45.8q0 1.05-.85 1.8-.8.75-1.95.75t-2-.75q-.8-.75-.8-1.8t.8-1.8q.85-.75 2-.75t1.95.75q.85.75.85 1.8" fill="#ffbf98"/><path d="m40.6 32.8 1.55.25q-.35-.95-.2-3.15.15-2.25 1-4.9.8-2.7 2.65-5l3.9-4.65q2-2.35 7.1-5.55l.1-.05q.75-.5 4.65-1.55 3.9-1.05 5.9-1.35l5.3-.6 4.95-.2 1.3.45q-9.55 2.25-14.75 9.9-5.8 8.35-6.6 12.5-.85 4.15-3.95 5.65-3.05 1.45-7.25 2.1H46l-.15.2q-.4 1 1.3 1.6l3.7.9 4.95 1.05q2.9.75 5.6 1.9 2.7 1.15 4.8 3.15l1.9 1.8.5.45-.05.05-.05-.05h-.05q-9.4.5-15.1 3.3-6.1 2.95-8.55 4.5l-6.45 4.25-8.2 5.7q-1.85-5.85-4-10.6l-.7-1.55q-1.45-3-3.25-4.45l-1.5-.95v.05l-.15-.1.15-.45.6-1.55q1.1-2.5 1.6-2.5.45-.05 1.35.5l3.3.5q1.55 0 2.85-1.55 1.1-1.35 1.1-2.45 0-4.05-5.55-7 1.85-1.8 2.9-3.65.1 1.55 1.25 2.75l.2-3.95q.25-3.15 1.2-6.05l.65-1.7 2.5 5.2q1.25 2.35 2.85 4.5 1.35 1.75 3.1 2.35m-.7 13q0-1.05-.85-1.8-.8-.75-1.95-.75t-2 .75q-.8.75-.8 1.8t.8 1.8q.85.75 2 .75t1.95-.75q.85-.75.85-1.8" fill="#eb9329"/><path d="M77.5 6.05q-8.05-2.6-13.2-1.85-6.85 1-10.05 2.95-3.25 1.9-7.4 6.5-4.2 4.6-5.2 7.85-1.05 3.25-1.25 4.45l-.85-.35q-4.6-2.2-6.5-6.85l-.9 2-.65 1.7q-.95 2.9-1.2 6.05l-.2 3.95q-1.15-1.2-1.25-2.75l.1-1.1v-.1l.15-1.4-2.45 2.3q-3.65 3.6-7 8.05-2.4 3.15-4.6 6.7l-2.35 4.1-.15.3q-3.3 6.4-4.6 12.95-1.8 8.85-2.1 15.85-.3 6.85 1.45 14.3l.1.3v.25q0 .85-1.4 3-1.45 2.15-1.15 5 .3 2.85 5.15 7.15 9.55 8.2 23.15 9.7l1.1.1 4.5.2h1l2.9-.1 21.75-1.4q10-1.1 17.6-6.65l1.15-.7 2.15.65 2.35.4 5.75.45 3.55-.15.5-.1q1.6-.25 2.55-.8l-.25-.5-.45-1q-.9-2.55-.55-5.15v-.35l-.4.35-.4.3-1 .65q-1.65.9-3.45.9l-1.55-.15-1.4-.45q3.15-.3 6.55-3.15 1.6-1.35 2.85-3.45l.7-1.2.5-1.1.8-1.85.45-1.35.2-1.9q.25-3.75-.2-7.85-.65-6.05-1.7-11.45l-.7-4.1 2.5 6.35.65 1.65q.85 2.2 1.35 5.4l.25 1.75.9 6.7q.3 3.05-2.3 7.3l-.25.45q-2.35 4-2.35 8.05 0 .9.6 3 .55 2 1 2.85l-.1.1h-1.05q-2.45 2.95-7.9 3.05-5.5.05-10.05-1.2-5 3.1-10.8 4.75-5.8 1.6-11.6 2L45 120.7q-14.85 1.4-26.95-3.4Q5.9 112.5 2.1 105.5q-3.2-5.9-1.55-9.55l.7-1.25q1.25-2.7.8-6.4-.65-4.65-.95-10.5-.35-5.85.15-9.65l.5-3.35.15-1.05.15-.45Q4.2 56.6 7.1 52.9q3.15-4.1 6.35-9.5 2.8-4.85 6.2-8.8l.8-.95q3.7-4.2 7.6-8.05l1-1-.15-2.05v-.1q-.45-3.65.15-5.5.6-1.9 4.8-4.85l1.35-.3q-.2 4.45 2.95 7.6Q46.4-.3 68.35 0q12.4 0 21.15 6.7-7.05 12.65 2.9 24.45 2.6 3.15 4.6 8.1l-1.05-.85q-7.5-6.05-13.8-13.55-7.2-8.65.6-16.85L78.8 6.5l-1.3-.45m-54.15 90.6q0 1.9.15 2.2v1q-.6-.4-.9-1.55l-.4-1.85L21 94.6 20 93q0-.75 1.2-1.25.85-.35 1.4-.35l2.95.5 2.6.8q.7.55-1.45 1.2l-2.6.85-.55.2-.05.2-.15 1.5m4.25 6.5-.7-.5-.15-.1-.1-.05-.75-.15q-.45 0-.55.3v.35q.05.65.55 1.45l1.15 1.8.75 1.6q.6 1 1.3 1 1.6 0 1.65-1.8l-.1-2.6q-.05-.7-1.35-.85l-.55-.05-1.15-.4m3.8 7.25-1.85.35q-1.7 0-2.65-.7-.95-.75-1.8-2.8-.35-.8-.75-3.1-.15-.7-.65-1.45l-.05-.05q-.8-.8-.8-1.25 0-.6.8-1l.4-.2 1.2-.1.6-.1q.35-.15 2.2.85 1.6.85 3.75 1.45l.55.1 4.45.75 1.65-.05q1.1-.15 2.2-.65 1.6-.8 3.55-2.35v.45q-.15 1.75-1 2.9l-.1.45-.2.05-.35.15q-1.45 1.2-4.1 1.45H37.4l-1.75-.2-1.8-.4q-1.05-.2-1.2.6l-.35 3.1q-.45 1.35-.9 1.75" fill="#6d1d03"/><path d="m68.6 47.7-.5-.45-1.9-1.8q-2.1-2-4.8-3.15-2.7-1.15-5.6-1.9l-4.95-1.05-3.7-.9q-1.7-.6-1.3-1.6l.15-.2h.25q4.2-.65 7.25-2.1 3.1-1.5 3.95-5.65.8-4.15 6.6-12.5 5.2-7.65 14.75-9.9L82.75 8q-7.8 8.2-.6 16.85 6.3 7.5 13.8 13.55l1.05.85q4.6 11.65 5.5 33.25l-2.5-6.35.7 4.1q1.05 5.4 1.7 11.45.45 4.1.2 7.85l-.2 1.9-.45 1.35-.8 1.85-.5 1.1-.7 1.2q-1.25 2.1-2.85 3.45-3.4 2.85-6.55 3.15l1.4.45 1.55.15q1.8 0 3.45-.9l1-.65.4-.3.4-.35v.35q-.35 2.6.55 5.15l.45 1 .25.5q-.95.55-2.55.8l-.5.1-3.55.15-5.75-.45-2.35-.4-2.15-.65-1.15.7q-7.6 5.55-17.6 6.65l-21.75 1.4-2.9.1-1-.2-2.25-.5 4.25-1.05q4.8-1.25 10.05-1.8l.6-.1 2.05-.05.1-.05 9.3-.8q6.2-.75 11.1-3.6 4.9-2.9 6.75-8.3 1.7-5.15.15-10.55l-.05-.25.15-.2 6-7.65q3.3-4.35 4.25-9.85.9-5.55-1.55-10.6-2.45-5-7.35-9.35-4.95-4.4-12.8-4.8l-.9.05" fill="#cc6a22"/><path d="m68.55 47.75.05-.05.9-.05q7.85.4 12.8 4.8 4.9 4.35 7.35 9.35 2.45 5.05 1.55 10.6-.95 5.5-4.25 9.85l-6 7.65-.15.2.05.25q1.55 5.4-.15 10.55-1.85 5.4-6.75 8.3-4.9 2.85-11.1 3.6l-9.3.8q2.45-1.25 4.85-2.35 3.8-1.8 7.25-3.8 4.2-2.35 6.5-6.5 2.15-3.85 3.4-8.15l.1-.3q1.2-3.8 2.1-8.55.9-4.75.8-10.4-.1-5.65-3.1-14.6-2.8-8.35-6.9-11.2M43.1 103.9q-.5 1.55-2.6 3.05-2.6 1.85-5.15 2.8-1.95.7-3.95.65.45-.4.9-1.75l.35-3.1q.15-.8 1.2-.6l1.8.4 1.75.2h1.05q2.65-.25 4.1-1.45l.35-.15.2-.05" fill="#dfc893"/><path d="M20.7 47.95v-.05l1.5.95q1.8 1.45 3.25 4.45l.7 1.55q2.15 4.75 4 10.6l8.2-5.7 6.45-4.25q2.45-1.55 8.55-4.5 5.7-2.8 15.1-3.3h.05l.05.05q4.1 2.85 6.9 11.2 3 8.95 3.1 14.6.1 5.65-.8 10.4t-2.1 8.55l-.1.3q-1.25 4.3-3.4 8.15-2.3 4.15-6.5 6.5-3.45 2-7.25 3.8-2.4 1.1-4.85 2.35l-.1.05-2.05.05-.6.1q-5.25.55-10.05 1.8l-4.25 1.05-6.9-1.4q-4.9-.8-9.45-2.85-4.35-1.85-7.45-5.35-2.7-3.1-3.9-7.1l-.1-.25-.3-2.1q-.15-1.6 0-6.5l.45-11.8q.25-6.9 1.8-11.85 1.4-4.6 9-17.75l1.05-1.75m2.65 48.7.15-1.5.05-.2.55-.2 2.6-.85q2.15-.65 1.45-1.2l-2.6-.8-2.95-.5q-.55 0-1.4.35-1.2.5-1.2 1.25l1 1.6 1.2 1.85.4 1.85q.3 1.15.9 1.55v-1q-.15-.3-.15-2.2m19.75 7.25.1-.45q.85-1.15 1-2.9v-.45q-1.95 1.55-3.55 2.35-1.1.5-2.2.65l-1.65.05-4.45-.75-.55-.1q-2.15-.6-3.75-1.45-1.85-1-2.2-.85l-.6.1-1.2.1-.4.2q-.8.4-.8 1 0 .45.8 1.25l.05.05q.5.75.65 1.45.4 2.3.75 3.1.85 2.05 1.8 2.8.95.7 2.65.7l1.85-.35q2 .05 3.95-.65 2.55-.95 5.15-2.8 2.1-1.5 2.6-3.05" fill="#fff5d6"/><path d="m39.55 25.6-.05 2.75q0 1.25.5 2.7l.6 1.75q-1.75-.6-3.1-2.35-1.6-2.15-2.85-4.5l-2.5-5.2.9-2q1.9 4.65 6.5 6.85" fill="#d67329"/><path d="m20.55 47.85.15.1-1.05 1.75q-7.6 13.15-9 17.75Q9.1 72.4 8.85 79.3L8.4 91.1q-.15 4.9 0 6.5l.3 2.1.1.25q1.2 4 3.9 7.1 3.1 3.5 7.45 5.35 4.55 2.05 9.45 2.85l6.9 1.4 2.25.5 1 .2h-1l-4.5-.2-1.1-.1q-13.6-1.5-23.15-9.7-4.85-4.3-5.15-7.15-.3-2.85 1.15-5 1.4-2.15 1.4-3v-.25l-.1-.3q-1.75-7.45-1.45-14.3.3-7 2.1-15.85 1.3-6.55 4.6-12.95l.15-.3q2.9-1.1 6.15-.75h.35l.45.1.9.25m7.05 55.3 1.15.4.55.05q1.3.15 1.35.85l.1 2.6q-.05 1.8-1.65 1.8-.7 0-1.3-1l-.75-1.6-1.15-1.8q-.5-.8-.55-1.45v-.35q.1-.3.55-.3l.75.15.1.05.15.1.7.5" fill="#fff"/></g><g id="r" fill-rule="evenodd"><path d="M-44.8 16.15q.8 2.45 3.5 4.3 2.7 1.9 4.5 4.5 1.8 2.6 1.95 5.05.1 2.4-1.35 4.75-.6.9-2.55 1.55-1.95.65-3.85-1.15-1.95-1.85-2.35-4.6l-.75-5.85q-.3-3.1.3-5.85l.6-2.7m2.75 7.1h-.75q-.8.4-1.25 1.9l-.05.35-.05.15.05 3.05q.3 2.3 1.35 4.35 1.05 2 2.5 1.9l1-.15 1.05-.45.1-.05q.5-.45.7-1.2v-.05l.1-.6q.05-1.3-.55-3.35l-.95-2.75-.2-.35q-.5-1.05-1.45-1.9l-.65-.5q-.55-.35-.95-.35m62.75-7q.85 5.75-.2 11.3-1.05 5.5-2.7 8.65-1.7 3.15-5.7 4.6-4.05 1.45-8.45.9-4.4-.55-6.1-1.95-1.7-1.35-1.45-6.5.2-5.2 4.7-8.6 4.5-3.4 9.6-4 5.05-.6 6.85-1.65L20 16.95l.7-.7m-3.9 12.8q.2-1.65-.1-2.65-.7-2.1-1.55-2.65l-1.25-.4-6.05.4-1.55.4-1.75.7q-.6.25-1.1.6l-1.25.85-.55.45q-1.15.9-2.1 2.1-2.75 3.4-1.8 6.45l.55 1.35q1 1.85 2.95 2.4l5.25.35 1.5-.15 2.6-.65q1.7-.65 2.9-1.8 1.45-1.35 2.15-3.35.9-2.55 1.15-4.3l.05.15-.05-.25" fill="#2e0717" transform="translate(45.8 -9.1)"/><path d="m-44.1 25.5.05-.35q.45-1.5 1.25-1.9h.75l-.4 3.05-.35-.3q-.65-.55-1-.55l-.3.05m51.95-1.75 6.05-.4 1.25.4q.85.55 1.55 2.65.3 1 .1 2.65l-.9.05h.1l-1 .1h-.55l-.9-1.95q-2.15-3.2-5.7-3.5" fill="#c9a279" transform="translate(45.8 -9.1)"/><path d="m-44.1 25.5.3-.05q.35 0 1 .55l.35.3-.05 1.15q-.05 2.6 1.05 4.65 1 1.85 2.2 2.7l-1 .15q-1.45.1-2.5-1.9Q-43.8 31-44.1 28.7l-.05-3.05.05-.15m2.85 2.6q0-.65.4-1.1.4-.45.9-.45l.6.15.35.3q.4.45.4 1.1 0 .65-.4 1.1l-.1.1-.15.15-.7.2q-.5 0-.9-.45t-.4-1.1m2.25 2.3.15-.05h.1q.4.05.65.3.3.3.3.75t-.3.75l-.1.1-.65.2q-.45 0-.75-.3l-.3-.75q0-.45.3-.75.25-.25.6-.25m53.45-1.2H15l1-.1h-.1l.9-.05v.1q-.25 1.75-1.15 4.3-.7 2-2.15 3.35 1.8-4.5.95-7.6m-5.7 6.15.05.35-.15.55-.25.25-.95.35q-.55 0-.95-.35-.4-.3-.4-.8t.4-.85q.4-.3.95-.3l.95.3.35.5m-7.6-.85-.2-.2Q.2 33.45.2 32.25q0-1.25.75-2.15.75-.85 1.85-.85t1.85.85q.6.7.75 1.65v.5q0 1.2-.75 2.05-.75.95-1.85.95-1 0-1.65-.75" fill="#f4f2f3" transform="translate(45.8 -9.1)"/><path d="M7.85 23.75q3.55.3 5.7 3.5l.9 1.95q.85 3.1-.95 7.6-1.2 1.15-2.9 1.8.85-1.1 1.4-2.75.8-2.3.8-4.55l-.2-1.95q-.4-1.85-1.65-2.75Q9.1 25.25 7 25.05l-2.45-.2 1.75-.7 1.55-.4" fill="#410c21" transform="translate(45.8 -9.1)"/><path d="m-38.2 34.35-1.05.45q-1.2-.85-2.2-2.7-1.1-2.05-1.05-4.65l.05-1.15 1 .7.1 1.05.5 2.3q.7 2.7 2.65 4" fill="#430d24" transform="translate(45.8 -9.1)"/><path d="m-42.45 26.3.4-3.05q.4 0 .95.35l-.25 1.9-.1 1.5-1-.7" fill="#420d22" transform="translate(45.8 -9.1)"/><path d="m-41.1 23.6.65.5q.95.85 1.45 1.9l.2.35-.5.3-.05.05-.6-.15q-.5 0-.9.45t-.4 1.1l-.1-.05-.1-1.05.1-1.5.25-1.9m43.3 2.7 1.25-.85q.5-.35 1.1-.6l2.45.2q2.1.2 3.95 1.55 1.25.9 1.65 2.75l-3.7.9-.45.15-1.05-1.85q-1.75-2.3-4.65-2.3l-.55.05" fill="#6b193c" transform="translate(45.8 -9.1)"/><path d="M-37.4 33.05v.05q-.2.75-.7 1.2l-.1.05q-1.95-1.3-2.65-4l-.5-2.3.1.05q0 .65.4 1.1.4.45.9.45l.7-.2.25.95q-.35 0-.6.25-.3.3-.3.75l.3.75q.3.3.75.3l.65-.2.1.2.7.6" fill="#752066" transform="translate(45.8 -9.1)"/><path d="m-38.8 26.35.95 2.75q.6 2.05.55 3.35l-.1.6-.7-.6-.1-.2.1-.1q.3-.3.3-.75t-.3-.75q-.25-.25-.65-.3h-.1l-.15.05-.25-.95.15-.15.1-.1q.4-.45.4-1.1 0-.65-.4-1.1l-.35-.3.05-.05.5-.3m37.1 10.3-.55-1.35q-.95-3.05 1.8-6.45.95-1.2 2.1-2.1l.55-.45.55-.05q2.9 0 4.65 2.3l1.05 1.85Q6.6 31 5.4 31.75q-.15-.95-.75-1.65-.75-.85-1.85-.85t-1.85.85Q.2 31 .2 32.25q0 1.2.75 2.05l.2.2-1.15.7-1.7 1.45" fill="#3b0a1b" transform="translate(45.8 -9.1)"/><path d="m6.5 39.4-5.25-.35q-1.95-.55-2.95-2.4L0 35.2l1.15-.7q.65.75 1.65.75 1.1 0 1.85-.95.75-.85.75-2.05v-.5Q6.6 31 8.45 30.4q.45 1.3.45 2.8l-.15 2.15-.35-.5-.95-.3q-.55 0-.95.3-.4.35-.4.85t.4.8q.4.35.95.35l.95-.35q-.05.7-.7 1.7l-1.2 1.2" fill="#4b0f3a" transform="translate(45.8 -9.1)"/><path d="m10.6 38.6-2.6.65-1.5.15 1.2-1.2q.65-1 .7-1.7l.25-.25.15-.55-.05-.35.15-2.15q0-1.5-.45-2.8l.45-.15 3.7-.9.2 1.95q0 2.25-.8 4.55-.55 1.65-1.4 2.75" fill="#88277e" transform="translate(45.8 -9.1)"/><path d="M.4 18.65Q1.45 17 1.6 15.4q.15-1.65-.75-2.35-.9-.65-2.2 0-1.4.7-2.45 2.35-1.05 1.65-1.2 3.3-.15 1.65.75 2.3.85.7 2.2 0 1.4-.65 2.45-2.35m.5.4Q-.4 21.15-2.15 22q-1.7.85-2.8 0-1.2-.85-.95-2.9.2-2.05 1.55-4.2 1.35-2.05 3-2.9 1.7-.85 2.85 0 1.1.85.95 2.9-.2 2.1-1.55 4.15m-33.4-8.45q1 1.6 1.15 3.85.2 2.2-.6 3.75-.85 1.6-2.15 1.6-1.25 0-2.3-1.6-1-1.55-1.2-3.75-.15-2.25.65-3.85.8-1.5 2.05-1.5 1.3 0 2.4 1.5m-2.4-.2q-.9 0-1.45 1.05-.6 1.1-.5 2.7.15 1.55.85 2.6.75 1.1 1.65 1.1.9 0 1.45-1.1.55-1.05.4-2.6-.1-1.6-.75-2.7-.75-1.05-1.65-1.05" fill="#6d1d03" transform="translate(45.8 -9.1)"/><path d="M.4 18.65Q-.65 20.35-2.05 21q-1.35.7-2.2 0-.9-.65-.75-2.3.15-1.65 1.2-3.3t2.45-2.35q1.3-.65 2.2 0 .9.7.75 2.35-.15 1.6-1.2 3.25m-35.3-8.25q.9 0 1.65 1.05.65 1.1.75 2.7.15 1.55-.4 2.6-.55 1.1-1.45 1.1-.9 0-1.65-1.1-.7-1.05-.85-2.6-.1-1.6.5-2.7.55-1.05 1.45-1.05" fill="#b46234" transform="translate(45.8 -9.1)"/></g><g id="D" fill-rule="evenodd"><path d="M-9.2-17.05-5.45-20l.3.4.3-2.5.8-4.6q.55 1.4 1.4 1.7 1.45.55 4.9-4.65L5-34.4l.45 1.7q1.3-2.35 5.25-4.75l3.1-1.65.15-.05.35-.2-2.95 1.9q-4.5 3.2-5.05 6-.8 3.6 2.95 2.65 4.4.1 8.5-4.25 2.45-2.65 3.55-4.4l.85-2q-.65-2.15-2.7-1.95 2.95-1 5.05-.9h.05l.35.35q1 1 .85 2.85-.2 1.8-7.1 7-5.55 4.2-7.15 6.2l-.75.3-1.95.85-.8.35-1.35.6-3.2 1.35H2.7q-3 .05-3 .85 0 1.35 2.3 1.3h.7l4.25.25 1.8 5.4.5 1.7Q4.7-11-.45-10.7q-5.7-.65-8.5-5.85l-.25-.5" fill="#7a2810" transform="translate(33.15 46.45)"/><path d="m-31.2-6.7-1.95-.1 2.55-1.65q3-1.9 5.95-3.3 4.15-2.05 7.8-4.75 3.5-2.65 6.85-5.9l.1-.15v-.2q.45-8.9 4.65-16.15Q-1-46.4 4.9-46.4q2.2 0 3.25 1.6.8 1.2 1.3 4 3.95-2.8 6.9-4.15 2.9-1.35 6.15-1.5 3.25-.15 6.9 2.35 3.75 2.55 3.75 5.6 0 3.1-1.35 5.2-1.55 2.35-6.15 5.8-3.3 2.4-7.1 3.45l-5.6 1.2.8 2.55q2.4 7.95 2.9 16.3.45 8.3-.6 16.65-1.05 8.3-5.3 16.4-2.75 5.1-7.15 6.4L.5 38.4q.85.45 1.7 2.1.9 1.7.9 3.25 0 1.45-1.6 2.1-1.6.65-4.4.65-1.5 0-2.35-.7-.8-.65-1.05-1.95l.8.15.25.05 3.5.1 1.8-.25q.6.1.55-.65-.1-.8-.7-1.7l-1.1-1.35-1.15-1.7q1.85-1.45 3.85-4L4.8 30q5.55-8.05 7.7-23.5 1.4-10.35-1.25-19.9-1.3-4.7-3.55-9.15l-4.25.1 3.2-1.35L8-24.4l.8-.35 1.95-.85.75-.3.5-.25q3.15-1.35 4.35-2.35 1.95-1.65 7.4-4.95 1.8-1.25 2.9-2.55 1.65-1.9 1.65-3.85 0-2.3-3.75-2.45l-.05-.05v.05q-2.1-.1-5.05.9l-.75.25q-2 .65-4.4 1.8l-.35.2-.15.05-3.1 1.65q-3.95 2.4-5.25 4.75L5-34.4l.2-.45q.65-1.55.75-2.65.25-2.6 0-3.3-.3-.7-1.6-1.6H3.7q-3.45 1.1-5.5 7.5-1.45 4.25-2.25 8.2l-.8 4.6-.3 2.5-.3-.4-3.75 2.95-3.6 2.65-5.05 3.15-4.55 2.3q-3.05 1.4-5.85 1.95l-2.95.3m8.3 24.8-.7 4.65q-2.55-2.95-.05-9.8l.35-.9q2.4-6.25 5.75-10.45Q-14-2.9-8.5-6.25-3-9.6.25-9.3q3.25.25 3.2.95L2.5-8.4l-.55.15q-7.9 2-15.75 9.55 3.4-1.55 5.5-1.55 1.55 0 2.55.6 1 .6 1 1.6 0 1.1-.8 1.7v.2l3.05-.1q5.25.4 7.4 2.05 2.15 1.6 2.3 4.8.15 3.2-3.4 5.55-3.6 2.3-7.15 1.95h-2.5l1.15 1.3q.25.5.25 1.35 0 2.3-2.35 3.65-1.8 1-3.7 1-1.8 0-3.6-1.5-1.95-1.65-1.95-3.65l.15-.8 1.05 1.1q1 1.1 2.2 1.7 1.15.6 2.05.6l1.65-.2q.75-.2 1.45-2 .7-1.85-1.6-3.75-2.35-1.9-2.75-3.3l1.45 1.3q3 1.6 5.4 1.65 2.35 0 5.65-1.7L3.1 13.2q1.3-1.2 1.3-2.45 0-1.85-1.3-3.1l-.1-.1-.05-.05-1.7-1.1-2.4-.85-3.75-.4-2.2.4-2 .7-2.8 1.2-.8.25h-1.5v-.1l1.1-.5.15-.05 2.2-1.5L-7.5 2.1l-.85-.2q-3.05 0-5.6 1.55l-2.65 2.1L-19 8.5l-1.15 1.95q-1.65 3-2.5 6.55l-.25 1.1" fill="#6d1d03" transform="translate(33.15 46.45)"/><path d="M24.55-42.3q3.75.15 3.75 2.45 0 1.95-1.65 3.85-1.1 1.3-2.9 2.55-5.45 3.3-7.4 4.95-1.2 1-4.35 2.35l-.5.25q1.6-2 7.15-6.2 6.9-5.2 7.1-7 .15-1.85-.85-2.85l-.35-.35M3.45-22.45l4.25-.1q2.25 4.45 3.55 9.15Q13.9-3.85 12.5 6.5 10.35 21.95 4.8 30l-3.3 4.5q-2 2.55-3.85 4l1.15 1.7 1.1 1.35q.6.9.7 1.7.05.75-.55.65l-5-5.75q2.1-1.5 4.05-3.65 4-4.5 7.15-11.75 4.05-9.45 4.45-18.7v-2.4l-.15-6.7-.35-3.45-.95-4.45-.5-1.7-1.8-5.4-4.25-.25H2q-2.3.05-2.3-1.3 0-.8 3-.85h.75" fill="#91f0e7" transform="translate(33.15 46.45)"/><path d="M-4.05-26.7q.8-3.95 2.25-8.2 2.05-6.4 5.5-7.5h.65q1.3.9 1.6 1.6.25.7 0 3.3-.1 1.1-.75 2.65l-.2.45-2.75 4.75q-3.45 5.2-4.9 4.65-.85-.3-1.4-1.7M14.3-39.35q2.4-1.15 4.4-1.8l.75-.25q2.05-.2 2.7 1.95l-.85 2q-1.1 1.75-3.55 4.4-4.1 4.35-8.5 4.25-3.75.95-2.95-2.65.55-2.8 5.05-6l2.95-1.9" fill="#b05b2c" transform="translate(33.15 46.45)"/><path d="M-28.25-7q2.8-.55 5.85-1.95l4.55-2.3h1.9l2.1.4q.45.05 1.15.95.7.85-1.15 3.7-1.9 2.8-3.8 4.8l-3.55 3.05q-1.65 1.05-3.25 1-1.6-.1-3.6-1.2Q-30.05.3-30-2.3q0-1.85 1.75-4.7" fill="#eb9329" transform="translate(33.15 46.45)"/><path d="m-20.55 18.35-1.5.15q-.7 0-.85-.4l.25-1.1q.85-3.55 2.5-6.55L-19 8.5l2.4-2.95 2.65-2.1-.25 1.45.1 1.45 1 .75-1.1.5v.1h1.5l.8-.25q-.35.6.1 2.8.45 2.45 6.75 2.45 6.1 0 8.05-5.1l.1.05q1.3 1.25 1.3 3.1 0 1.25-1.3 2.45L.65 14.85q-3.3 1.7-5.65 1.7-2.4-.05-5.4-1.65l-1.45-1.3q.4 1.4 2.75 3.3 2.3 1.9 1.6 3.75-.7 1.8-1.45 2l-1.65.2q-.9 0-2.05-.6-1.2-.6-2.2-1.7l-1.05-1.1.05-.1.2-.6q0-.55-1.3-.65h-1.5l-1.95.2-.15.05" fill="#dfc893" transform="translate(33.15 46.45)"/><path d="M-13.95 3.45q2.55-1.55 5.6-1.55l.85.2-3.25 3.45-2.2 1.5-.15.05-1-.75-.1-1.45.25-1.45m2.05 4 2.8-1.2 2-.7 2.2-.4 3.75.4 2.4.85 1.7 1.1.05.1q-1.95 5.1-8.05 5.1-6.3 0-6.75-2.45-.45-2.2-.1-2.8" fill="#fff5d6" transform="translate(33.15 46.45)"/><path d="M-5.5 44q-.45-1.85-1.9-5.2-1.45-3.45-2.7-5.8-.45-.9-4.9-6.4-3.65-4.65-5.55-8.25l.15-.05 1.95-.2h1.5q1.3.1 1.3.65l-.2.6-.05.05v.05l-.15.8q0 2 1.95 3.65 1.8 1.5 3.6 1.5 1.9 0 3.7-1 2.35-1.35 2.35-3.65 0-.85-.25-1.35l-1.15-1.3h2.5q3.55.35 7.15-1.95 3.55-2.35 3.4-5.55-.15-3.2-2.3-4.8-2.15-1.65-7.4-2.05l-3.05.1v-.2q.8-.6.8-1.7 0-1-1-1.6-1-.6-2.55-.6-2.1 0-5.5 1.55 7.85-7.55 15.75-9.55l.55-.15.95.05q.05-.7-3.2-.95Q-3-9.6-8.5-6.25-14-2.9-17.55 1.6q-3.35 4.2-5.75 10.45-1.65-.75-3.05-2.65l-2.2-2.95q-3.2-3.2-3.2-8.1l.1-3.1.45-1.95 2.95-.3Q-30-4.15-30-2.3q-.05 2.6 1.95 3.75 2 1.1 3.6 1.2 1.6.05 3.25-1l3.55-3.05q1.9-2 3.8-4.8Q-12-9.05-12.7-9.9q-.7-.9-1.15-.95l-2.1-.4h-1.9l5.05-3.15 3.6-2.65.25.5q2.8 5.2 8.5 5.85 5.15-.3 9.7-2.25l.95 4.45.35 3.45.15 6.7v2.4q-.4 9.25-4.45 18.7Q3.1 30-.9 34.5q-1.95 2.15-4.05 3.65l5 5.75-1.8.25-3.5-.1-.25-.05" fill="#cc6a22" transform="translate(33.15 46.45)"/></g><g id="E" fill-rule="evenodd"><path d="m6.3-13.8-1.15-.6-1.45-1q.65-1.2 1.85-2.45l.1-.15q2.4.55 4.7-.55 2.3-1.1 3.6-3.3h.35l2.7-.95 2.55-.4q2 0 2 .85 0 2.75-6.45 5.8-5.2 2.45-8.8 2.75" fill="#699a0d" transform="translate(24 26.4)"/><path d="m5.65-18 2.95-2.7q3.85-3.15 5.5-3.15l.3.4-.05.45-.15.4-.25.7v.05q-1.3 2.2-3.6 3.3-2.3 1.1-4.7.55" fill="#a9e32a" transform="translate(24 26.4)"/><path d="m5.35-20.1 1.5-1.35 2-1.65q1.3-1.15 3.15-2.2 1.85-1.1 3.2-1.1h.1q1.15.05 1.9.8l1.1.8 1.15-.15q1.25 0 2.8.7 1.8.8 1.8 1.85 0 1.55-2.7 3.45l-4.2 2.6q-.8.5-4.45 1.75-3.45 1.15-4.4 1.25h-.2q-.8 0-1.8-.45 3.6-.3 8.8-2.75 6.45-3.05 6.45-5.8 0-.85-2-.85l-2.55.4-2.7.95h-.35v-.05l.25-.7.15-.4.05-.45-.3-.4q-1.65 0-5.5 3.15L5.65-18l-.1.15Q4.35-16.6 3.7-15.4l-.6-.6-.05-.05 1.6-2.45.3-.55.4-1.05" fill="#364b0a" transform="translate(24 26.4)"/><path d="M2.65-18.7q-.55.7-1.1.7-1.9.25-3.95-.45-1.1-.15-1.2-1.05-.5-1.45-.5-2.6v-.6l.2-.25.2-.1 3.7.8 2.3.85.8.8.1.8-.55 1.1M-19.5-1.6l2.6-.6.55.35.05.1.5 2 1.4 3.65 2.65 4.35q1.55 2.3 3.15 3.8 1.55 1.5.65 4.35-.85 2.8-2.55 4.95l-1.6 1.7-1.75 1.5-.1-.05q-4.9-7.65-5-11.85v-.6q1.15.2 2.15-1.3t.95-4q-.05-2.5-1.2-3.65-1-.95-2.45-1.05V-1.6m5.45 15.8q-.5-.55-1.25-.55t-1.3.55q-.5.55-.5 1.3t.5 1.3q.55.55 1.3.55t1.25-.55q.55-.55.55-1.3t-.55-1.3" fill="#9f2b18" transform="translate(24 26.4)"/><path d="M8.3-13.35Q13.1-9 13.5-.8q.4 8.2-.75 11.05-1.15 2.85-2.9 4.95-1.8 2.1-3.95 3.8l-4.8 3.1q-2.65 1.35-5.35 2.35l-5.6 1.4-5.8.55-1.65-1.15q-4.7-3.9-5.95-12.2Q-23.9 8.6-24 4.3l.4-15.7.05-.55q.2-2.35 1.7-4.75 1.6-2.6 3.9-2.65l5.5.4 6.5-.4v-3.05l.05-1q2.3-1.55 5.25-1.05Q3-23.8 4.6-22.5q1.1.85.75 2.4l-.4 1.05-.3.55-1.6 2.45.05.05.6.6 1.45 1 1.15.6q1 .45 1.8.45h.2M2.65-18.7l.55-1.1-.1-.8-.8-.8-2.3-.85-3.7-.8-.2.1-.2.25v.6q0 1.15.5 2.6.1.9 1.2 1.05 2.05.7 3.95.45.55 0 1.1-.7m-9.15 2.25h-.6l-1.95-.1-5.35.55q-2.95.55-4.1 1.75-.9.9-1.85 3.3l-.1.25-.6 1.55q-1.4 3.85-1.2 5.15l.2.1Q-19.6-5-17.85-6l1.4-.7.4-.15 1.85-.55.75 2.4.8 2.6.05.15.05.2L-10.4 3l2.65 4.3.25.35q2.65-.9 4.1-1.95L.4 3.2 3.9.95l1.85-1.4q.45 2.6 2.5 5.25L9.5 6.15l1.75-.05q1-1.4 1.1-3.2.1-1.8-.85-4.65l-.2-.65-1.7-4.4q-1.15-2.45-2.9-4.3-1.75-1.9-4.85-3.4-3.1-1.5-5.6-1.75l-2.75-.2m-7.45 40.95.1.05h.1l3.2-.45 5.1-1.45q2.6-.85 5.35-2.5l4.25-3L7.5 13.7q1.75-2 3.1-4.35L8.65 8.3Q6.6 6.9 5.3 4.6l-.75-1.4.2-.6Q-.7 8.45-7.3 9.65q-1.55-.15-2.6-1.4-4.9-5.7-5.85-13.35-2.75 1.45-5.45 2.95l-.3.95-.05.2-.4 2.35V4.2l.15 4.25q.1 2.45.8 5 .65 2.5 1.8 4.8l2.1 3.75 2.25 2.4.9.1" fill="#50090b" transform="translate(24 26.4)"/><path d="m-6.5-16.45 2.75.2q2.5.25 5.6 1.75 3.1 1.5 4.85 3.4 1.75 1.85 2.9 4.3l1.7 4.4-.95 4.85q-.6 2.1-.85 3.7L8.25 4.8Q6.2 2.15 5.75-.45L3.9.95.4 3.2l-3.8 2.5q-1.45 1.05-4.1 1.95l-.25-.35q2.2-1.1 3.55-2.7l.7-1.05.2-.35Q-1.95.75-1.05-2-.1-4.85.25-7.7q.3-2.85-.9-4.75t-3.1-2.7l-2.75-1.3M-13.45-5l-.75-2.4-1.85.55q.05-1.05.9-1.6.6-.4 1.05-.4.55 0 .95.9.3.7.3 1.3 0 .5-.6 1.65" fill="#9f4318" transform="translate(24 26.4)"/><path d="m-12.1 23.05 1.6-1.7q1.7-2.15 2.55-4.95.9-2.85-.65-4.35-1.6-1.5-3.15-3.8L-14.4 3.9-15.8.25l-.5-2-.05-.1-.55-.35-2.6.6-2 .4.3-.95q2.7-1.5 5.45-2.95.95 7.65 5.85 13.35 1.05 1.25 2.6 1.4Q-.7 8.45 4.75 2.6l-.2.6.75 1.4q1.3 2.3 3.35 3.7Q7.2 11.05 4.9 14q-2.75 3.45-7.7 6.2-4.45 2.45-9.3 2.85" fill="#631416" transform="translate(24 26.4)"/><path d="M-7.75 7.3-10.4 3l-2.15-5.05-.05-.2-.05-.15q.85-2.2 2.7-3.3 1.4-.9 2.95-.9 2 0 3.05 1.65 1 1.6 1 4.45 0 1.75-.15 2.6l-.4 1.45-.7 1.05q-1.35 1.6-3.55 2.7m-8.7-14-1.4.7q-1.75 1-4.2 2.1l-.2-.1q-.2-1.3 1.2-5.15l.6-1.55.1-.25.4-.05q3.65 0 3.65 3 0 .7-.15 1.3" fill="#f0852b" transform="translate(24 26.4)"/><path d="M-20.35-10.95q.95-2.4 1.85-3.3 1.15-1.2 4.1-1.75l5.35-.55 1.95.1h.6l2.75 1.3q1.9.8 3.1 2.7 1.2 1.9.9 4.75Q-.1-4.85-1.05-2-1.95.75-3.3 3.2l-.2.35.4-1.45q.15-.85.15-2.6 0-2.85-1-4.45Q-5-6.6-7-6.6q-1.55 0-2.95.9-1.85 1.1-2.7 3.3l-.8-2.6q.6-1.15.6-1.65 0-.6-.3-1.3-.4-.9-.95-.9-.45 0-1.05.4-.85.55-.9 1.6l-.4.15q.15-.6.15-1.3 0-3-3.65-3l-.4.05M11.3-2.4l.2.65q.95 2.85.85 4.65-.1 1.8-1.1 3.2l-1.75.05q.25-1.6.85-3.7l.95-4.85" fill="#ce6218" transform="translate(24 26.4)"/><path d="m-13.85 24.55 1.75-1.5q4.85-.4 9.3-2.85 4.95-2.75 7.7-6.2 2.3-2.95 3.75-5.7l1.95 1.05Q9.25 11.7 7.5 13.7l-3.35 3.45-4.25 3q-2.75 1.65-5.35 2.5l-5.1 1.45-3.2.45h-.1" fill="#d64f29" transform="translate(24 26.4)"/><path d="M-19.5-1.6v3.65q1.45.1 2.45 1.05 1.15 1.15 1.2 3.65.05 2.5-.95 4t-2.15 1.3v.6q.1 4.2 5 11.85l-.9-.1-2.25-2.4-2.1-3.75q-1.15-2.3-1.8-4.8-.7-2.55-.8-5l-.15-4.25V1.35l.4-2.35.05-.2 2-.4m5.45 15.8q.55.55.55 1.3t-.55 1.3q-.5.55-1.25.55t-1.3-.55q-.5-.55-.5-1.3t.5-1.3q.55-.55 1.3-.55t1.25.55" fill="#ea916f" transform="translate(24 26.4)"/></g><g id="F" fill-rule="evenodd"><path d="m5.3-12.65 1.45-1.25 3.65 2.55.85.75q2.5 2.5 3.15 6.1l.25 2.1-.05 3.75q-.2 2.3-.7 3.6l-.75 1.85-1.3 2.1q-1.05 1.5-2.6 2.7-1.55 1.2-3.75 1.85l-4.95.5q-2.75-.1-5.05-2.25-2.3-2.2-3.95-6.05-1.8.2-3.4-.85-1.65-1.05-1.75-2.6l-.05-1.7.65-.8q-1.7-.25-1.7-2 0-1.6.5-2.1l.95-1q-.35-.65-.2-1.4l.3-.9 1.25-1.85q.7-.6 2.2-.95 1.45-.35 3 1 1.35 1.15 3.55 1.4.8-1.4.75-3.2l.05-.9q1.75.85 2.15 3.45.85-.8 1.35-2.25.45.3.55.95.2.8-.15 2.15Q1.25-6.65.3-6q-.85.5-2.2.55-2.95 0-4.55-1.8Q-8.1-9.1-9.85-9.1q-.8 0-1.4.65-.7.75-.7 1.95l.05.4q.3 1.05 2 2.1l-1.3.25q-1.15.5-1.15 1.6 0 1.05 2 1.45l-.8.85q-.45.4-.3 1.5l.25 1.05.45.75q.6.8 1.65.8l1-.15.5-.75Q-6.5 6.7-2.25 9.9q4.45 3.35 9.8-.45 4-2.85 4.5-8.05V.5q.05-2.3-.25-4.5l-.5-1.65q-1.85-4.5-6-7" fill="#6d1d03" transform="translate(14.7 13.9)"/><path d="m-11.2 2.7-.25-1.05q-.15-1.1.3-1.5l.8-.85q-2-.4-2-1.45 0-1.1 1.15-1.6L-9.9-4q-1.7-1.05-2-2.1l-.05-.4q0-1.2.7-1.95.6-.65 1.4-.65 1.75 0 3.4 1.85 1.6 1.8 4.55 1.8Q-.55-5.5.3-6l2.65.35q3.05.35 4.8 2.9 1.3 1.9.8 4.25-.6 2.85-2.85 4.4Q2.65 8-.85 6.85-4.5 5.6-4.95 1.6q-.6.25-2.4 1.05-1.85.75-3.85.05m.45-5.65-.3.65.3.6q.3.3.75.3t.75-.3q.3-.25.3-.6l-.3-.65-.75-.25-.75.25m.05-4.1q-.1.6.5 1.15.55.5 1.2.5.65 0 1.1-.5.45-.45.45-1.1 0-.65-.45-1.15-.45-.45-1.1-.45-.65 0-1.1.5l-.6 1.05m2.7 8.3Q-8 .9-8.3.6-8.6.35-9 .35l-.75.25-.25.65.25.6.75.3.7-.3q.3-.25.3-.6" fill="#eb9329" transform="translate(14.7 13.9)"/><path d="m-10.75-2.95.75-.25.75.25.3.65q0 .35-.3.6-.3.3-.75.3t-.75-.3l-.3-.6.3-.65M-8 1.25q0 .35-.3.6l-.7.3-.75-.3-.25-.6.25-.65.75-.25q.4 0 .7.25.3.3.3.65" fill="#fdef92" transform="translate(14.7 13.9)"/><path d="m-10.7-7.05.6-1.05q.45-.5 1.1-.5.65 0 1.1.45.45.5.45 1.15 0 .65-.45 1.1-.45.5-1.1.5-.65 0-1.2-.5-.6-.55-.5-1.15" fill="#ffbf98" transform="translate(14.7 13.9)"/><path d="M5.3-12.65q4.15 2.5 6 7L11.8-4q.3 2.2.25 4.5v.9q-.5 5.2-4.5 8.05-5.35 3.8-9.8.45Q-6.5 6.7-7.6 3.35l-.5.75-1 .15q-1.05 0-1.65-.8l-.45-.75q2 .7 3.85-.05 1.8-.8 2.4-1.05.45 4 4.1 5.25Q2.65 8 5.7 5.9q2.25-1.55 2.85-4.4.5-2.35-.8-4.25Q6-5.3 2.95-5.65L.3-6q.95-.65 1.25-1.9.35-1.35.15-2.15l2.95-2.15.65-.45" fill="#cc6a22" transform="translate(14.7 13.9)"/></g><g id="G" fill-rule="evenodd"><path d="m1.85 11.8-.05.15V12l-.4.3-.1.05-.75.05H.5l-.05-.05-.85-.3-1.7-1.8q-1.45-1.75-1.95-3.6l-.25-.9-.35-3.05Q-4.7.6-3.5-2.2l2.05-3.85.75-1.05v-.05l.35-.45-.35.6-.4.85q-1 2-1.35 3.8-.45 2.05-.2 5 2.7.15 2.4 1.55-.25.95-1.1 1.55l-.85.45q.45 2.15 2 3.8l.7.65.4.3.5.45.45.4" fill="#ffbf98" transform="translate(8.95 14.95)"/><path d="m4.5-4.8.05.3.15.7.45 1.15.15 2.5.05.3.3 1.2.4.6.25.2 1.55 1.2q1.1.85 1.15 2.2l-.3 1.3-.65.75q-.95.7-.95 1.25l-.6 1.6-.2.4-.1.15q-1.3.85-2.1.95h-.4q-1 3.3-5.7 3-2.75-.2-4.45-2.6-1.25-1.75-1.9-4.65l-.4-1.95Q-9.6 0-7.2-4.7q1.6-3.2 4.2-5.75l.6-.55 1.7-1.4 3.25-2.55q.85.75 1.2 3.2l-1.3 1.15-.35.3-.7.7-.55.55-1.2 1.45-.35.45v.05l-.75 1.05L-3.5-2.2Q-4.7.6-4.65 2.7l.35 3.05.25.9q.5 1.85 1.95 3.6l1.7 1.8.85.3.05.05h.05l.75-.05.1-.05.4-.3v-.05l.05-.15q.15-.45.45-.75l1.1-.65.2-.05.5-.1q.75-.2.75-.65L4.6 8.45l-.3-.7q0-.3 1.3-.8l.7-.35.55-.85v-.1q0-.75-.55-1.35l-1.05-.8q-1.3-.7-1.55-2.15l-.1-.8.05-.4.1-.8.4-2.5.35-1.65" fill="#6d1d03" transform="translate(8.95 14.95)"/><path d="m3.75-11.75.15-.1.3 1.4-.1 2.75.05.55.25 1.7.05.2.05.25v.2l-.35 1.65-.4 2.5-.1.8-.05.4.1.8Q3.95 2.8 5.25 3.5l1.05.8q.55.6.55 1.35v.1l-.55.85-.7.35q-1.3.5-1.3.8l.3.7.25 1.15q0 .45-.75.65l-.5.1-.2.05-1.1.65-.25-.8v-.1q0-.3.6-.6t.6-.7l-.05-.9q-.05-.3.2-.7V7.2q.25-.35 1-.55.8-.25.85-.75v-.15Q5.1 5.3 3.7 4.7l-.3-.15q-1.3-.8-1.3-2.9v-.3l.2-1.2.1-.5.4-2.6q.05-1.4-.55-2.3l-.2-.25-.65-.55-.2-.1-1-.2-.9.15-.4.05.4-.85.35-.6 1.2-1.45.55-.55.7-.7.35-.3 1.3-1.15" fill="#cc6a22" transform="translate(8.95 14.95)"/><path d="M2.3 11.05q-.3.3-.45.75l-.45-.4-.5-.45-.4-.3-.7-.65q-1.55-1.65-2-3.8l.85-.45q.85-.6 1.1-1.55.3-1.4-2.4-1.55-.25-2.95.2-5 .35-1.8 1.35-3.8l.4-.05.9-.15 1 .2.2.1.65.55.2.25q.6.9.55 2.3l-.4 2.6-.1.5-.2 1.2v.3q0 2.1 1.3 2.9l.3.15q1.4.6 1.55 1.05v.15q-.05.5-.85.75-.75.2-1 .55v.05q-.25.4-.2.7l.05.9q0 .4-.6.7-.6.3-.6.6v.1l.25.8" fill="#eb9329" transform="translate(8.95 14.95)"/></g><use ffdec:characterId="36" height="148.65" transform="translate(.02 -.02) scale(.5801)" width="137.8" xlink:href="#s" id="a"/><use ffdec:characterId="3" height="41.45" width="27.3" xlink:href="#t" id="c"/><use ffdec:characterId="2" height="41.45" width="27.3" xlink:href="#u" id="t"/><use ffdec:characterId="5" height="115.15" width="101.7" xlink:href="#v" id="d"/><use ffdec:characterId="7" height="20.3" width="32.05" xlink:href="#w" id="e"/><use ffdec:characterId="9" height="68.3" width="38.4" xlink:href="#x" id="f"/><use ffdec:characterId="11" height="24.6" width="21.1" xlink:href="#y" id="g"/><use ffdec:characterId="13" height="47.6" width="32" xlink:href="#z" id="h"/><use ffdec:characterId="15" height="24.6" width="38.45" xlink:href="#A" id="i"/><use ffdec:characterId="17" height="69.2" width="47.85" xlink:href="#B" id="j"/><use ffdec:characterId="19" height="40.6" width="33.45" xlink:href="#C" id="k"/><use ffdec:characterId="28" height="92.95" width="66.3" xlink:href="#D" id="m"/><use ffdec:characterId="30" height="52.8" width="48.05" xlink:href="#E" id="n"/><use ffdec:characterId="32" height="27.85" width="29.4" xlink:href="#F" id="o"/><use ffdec:characterId="34" height="29.95" width="17.95" xlink:href="#G" id="p"/><path d="M27.75 0q0 2-8.15 3.4Q11.5 4.9 0 4.9q-11.5 0-19.65-1.5-8.1-1.4-8.1-3.4 0-2.05 8.1-3.5Q-11.5-4.9 0-4.9q11.5 0 19.6 1.4 8.15 1.45 8.15 3.5" fill-opacity=".349" fill-rule="evenodd" transform="translate(27.75 4.9)" id="b"/></defs></svg>