<svg xmlns:ffdec="https://www.free-decompiler.com/flash" xmlns:xlink="http://www.w3.org/1999/xlink" ffdec:objectType="frame" height="90" width="90" xmlns="http://www.w3.org/2000/svg"><use ffdec:characterId="44" height="293.6" transform="matrix(.2996 0 0 .3 -1.918 1.05)" width="305.15" xlink:href="#a"/><defs><g id="a" transform="translate(6.4 -3.5)"><use ffdec:characterId="1" height="9.8" transform="matrix(3.8648 0 0 7.2812 32.003 225.722)" width="55.5" xlink:href="#b"/><use ffdec:characterId="6" height="97.65" transform="translate(5.017 146.838) scale(.9368)" width="293.25" xlink:href="#c"/><use ffdec:characterId="11" height="133.05" transform="translate(16.4 38.327) scale(.9368)" width="293.95" xlink:href="#d"/><use ffdec:characterId="15" height="138.65" transform="matrix(.935 -.0548 .0548 .935 -6.4 20.25)" width="305.6" xlink:href="#e"/><use ffdec:characterId="17" height="122.95" transform="translate(53.1 164.55) scale(.9368)" width="73" xlink:href="#f"/><use ffdec:characterId="19" height="143.45" transform="translate(126.3 159.95) scale(.9368)" width="100" xlink:href="#g"/><use ffdec:characterId="21" height="38.35" transform="translate(137.1 110.85) scale(.9368)" width="32.55" xlink:href="#h"/><use ffdec:characterId="23" height="76.95" transform="translate(158.5 93) scale(.9368)" width="68.45" xlink:href="#i"/><use ffdec:characterId="25" height="22.15" transform="translate(96.2 121.65) scale(.9368)" width="15.3" xlink:href="#j"/><use ffdec:characterId="27" height="62.85" transform="translate(42.75 90.55) scale(.9368)" width="62" xlink:href="#k"/><use ffdec:characterId="29" height="59.95" transform="translate(99.55 108.35) scale(.9368)" width="42.5" xlink:href="#l"/><use ffdec:characterId="35" height="88.75" transform="translate(82.25 35.4) scale(.9368)" width="114" xlink:href="#m"/><use ffdec:characterId="37" height="53.25" transform="translate(78.25 90.3) scale(.9368)" width="40.25" xlink:href="#n"/><use ffdec:characterId="39" height="64.35" transform="translate(128.3 81.35) scale(.9368)" width="60.6" xlink:href="#o"/><use ffdec:characterId="41" height="20.45" transform="translate(113.05 114.65) scale(.9368)" width="20.05" xlink:href="#p"/><use ffdec:characterId="43" height="44.8" transform="translate(90.1 145.15) scale(.9368)" width="65.75" xlink:href="#q"/></g><g id="u" fill-rule="evenodd"><path d="M256.7 86.55q-3.5-4.15-6.65-8.55-10.85-15.05-17.6-32.85-2.2-5.85-4-12l-.1-.3-3.55-6.35-.05-.05q-4.7-7.55-10.25-12.35-6.65-5.75-14.5-7.55l-.7-.1Q187.95 4.5 176.85 3.7h-.3q-48.6-3.35-92.7 9.4l-.2.05h-.1l-.35.1-.5.15-6.15 1.9q-5.3 5.2-11.3 9.05l-.45.3q-10.75 6.7-23.9 9.2-8.15 1.55-17.2 1.45-13.7 4.4-20 31-1.35 10.05-.35 18.5.3 2.4.75 4.7l.3 1.4h-.3L4 94.35Q.75 94.1.05 81.05-.4 70.9 2.7 58q7.35-20.95 20.5-25.1 29.2.35 51.8-19.35 55.15-21.4 129-9.05 20.85 8.15 28.6 33.15l4.9 10.7q9.85 25.1 29.55 44.8 3.35 5.2-5.9 3.45-37.55-10.55-51.7-24.25-13.85-13.25-13.6-13.75h.15v-.05l.45-3.65q22.6 29.85 67.3 39.4-3.5-3.55-6.7-7.35l-.35-.4" fill="#890c2e"/><path d="m256.7 86.55.35.4q3.2 3.8 6.7 7.35-44.7-9.55-67.3-39.4v-.05l-.1-.1-5.05-6.5Q187 37.5 181.7 30.9q7.1 6.4 12.95 14.6 7.85 9.85 17.05 17.9 8.95 6.5 17.45 11.4l1.8 1q13.45 7.45 25.75 10.75" fill="#fcfcfc"/><path d="M250.05 78q3.15 4.4 6.65 8.55-12.3-3.3-25.75-10.75 5.55 2.45 19.1 2.2" fill="#332655"/><path d="m224.75 26.45.05.05 3.55 6.35.1.3q1.8 6.15 4 12-11.25-13.85-19.65-12.3-9 1.5-6.8 10.7l-5.5-4.2q-10.65-10.9-27.75-15.45-10.05-6.8-22.15-10.65 15.85-1.75 34.35 6.3l.4.1q21.1 12.85 39.4 6.8" fill="#312355"/><path d="M232.45 45.15q6.75 17.8 17.6 32.85-13.55.25-19.1-2.2l-1.8-1q-8.5-4.9-17.45-11.4-9.2-8.05-17.05-17.9-5.85-8.2-12.95-14.6-4.25-3.8-8.95-7 17.1 4.55 27.75 15.45l5.5 4.2q-2.2-9.2 6.8-10.7 8.4-1.55 19.65 12.3" fill="#473197"/><path d="M83.85 13.1q44.1-12.75 92.7-9.4h.3l2.7 3.2q7.75 4.85 34.95 7.2 5.55 4.8 10.25 12.35-18.3 6.05-39.4-6.8l-.4-.1q-18.5-8.05-34.35-6.3l-10.25-2.65-56.5 2.65v-.15" fill="#201740"/><path d="M176.85 3.7q11.1.8 22.45 2.75l.7.1q7.85 1.8 14.5 7.55-27.2-2.35-34.95-7.2l-2.7-3.2" fill="#281c4f"/><path d="m196.45 54.9-.45 3.65h-.05l-.05.05h-.05q-20.95 10.15-27.1-8.2-.85-2-9.75.3-6.15-.55-12.6-3.6-20.35 8.5-35.4 2.85-4.45-2.95-9.15-4.05l-1.7-.3-.8-.15-1.2-.1q-2.2-.2-4.45.05l-2.7.35-2.35.55-2.9 1.55-3.9 1.35-2.4.35-2.25-.25-.7-.2-1.4-.6q-1.4-.85-2.5-2.25l-.1-.15-1.35 1.5-.75.75-1.3 1.3-1.9 1.75-3.8 3-1.75 1.15-1.15.7-1.05.55-.45.25-3.05 1.3-.55.2q-8.5 3.05-17.5.4Q19.6 70.3 6.1 93.4q-1.15 1-2.1.95l.1-3.45h.3q9.3-19 31.25-34.15l2.4-1.6q9.5 4.9 18.25.2l.85-.5 1.55-1 2.65-2.6Q63.3 49.2 76.7 39.3l.25-.15 5.6-4.15q1.2 2.25 2.6 3.95 6.45 7.9 17.65 4.4 4.5.35 11.75 5.15 2.25.9 5.8.8 4.8-.15 11.9-2 4.45-1.2 9.75-3.1 11.3 5.1 22.85 2.7l.2-.05q2.8-.6 4.85 1.1 1.7 1.4 2.85 4.5l.2.5q3.35 9.45 17.15 4.6 2.9-1 6.3-2.7l.05.05" fill="#230f09"/><path d="M196.4 54.85q-3.4 1.7-6.3 2.7-13.8 4.85-17.15-4.6l-.2-.5q-1.15-3.1-2.85-4.5-2.05-1.7-4.85-1.1l-.05-.05-.15.1Q153.3 49.3 142 44.2q-5.3 1.9-9.75 3.1l13.05-16.7q13.65-5.3 32.65 3.45 6.85 6.2 13.35 14.2l5.05 6.5.05.1M96.35 35.05l1.85-.65.15.1q10.1 10 22 14.8-3.55.1-5.8-.8-7.25-4.8-11.75-5.15-11.2 3.5-17.65-4.4l11.2-3.9M76.7 39.3q-13.4 9.9-15.35 11.95l-2.65 2.6-1.55 1-.85.5q-8.75 4.7-18.25-.2l6.15-4.2q1.85 4.25 32.5-11.65" fill="#060839"/><path d="m82.7 13.4.5-.15.35-.1v.1h.3l56.5-2.65 10.25 2.65q12.1 3.85 22.15 10.65 4.7 3.2 8.95 7 5.3 6.6 9.6 17.35-6.5-8-13.35-14.2Q161 18.7 141.75 14L79.2 19.15l-.2.2q-8.6 11.35-13.95 16.6l-6.9 5.15-4.15 3-1.1.2 2.15-3.7q3.55-2.3 7.25-4.25l.25-.3q3.1-2.25 5.9-6.4L82.7 13.4" fill="#c1a7ab"/><path d="M177.95 34.05q-19-8.75-32.65-3.45l-13.05 16.7q-7.1 1.85-11.9 2-11.9-4.8-22-14.8l-.15-.1-1.85.65q-21.7-5.15-38.2 6.05l6.9-5.15Q70.4 30.7 79 19.35l.2-.2L141.75 14q19.25 4.7 36.2 20.05" fill="#040619"/><path d="m96.35 35.05-11.2 3.9q-1.4-1.7-2.6-3.95l-5.6 4.15-.25.15Q46.05 55.2 44.2 50.95l8.1-5.65 1.7-1.2 4.15-3q16.5-11.2 38.2-6.05" fill="#0f1336"/><path d="m64.8 24.65.45-.3q6-3.85 11.3-9.05l6.15-1.9-14.25 16.25q-2.8 4.15-5.9 6.4l-.25.3q-3.7 1.95-7.25 4.25-4.75 3.05-9.2 6.65l-.25.15-.3.15q-1.55.75-3 1.6-2.95 1.35-6.75 2.4 18.65-14.6 29.25-26.9" fill="#372b57"/><path d="m4.4 90.9-.3-1.4q-.45-2.3-.75-4.7 2.25-3.45 4.75-6.7 9.7-12.5 23.65-22.4 5.1-3.5 10.55-6.55 1.45-.85 3-1.6l.3-.15.25-.15q4.45-3.6 9.2-6.65l-2.15 3.7-.6 1-8.1 5.65-6.15 4.2-2.4 1.6Q13.7 71.9 4.4 90.9" fill="#fdfdfd"/><path d="M40.9 33.85q13.15-2.5 23.9-9.2-10.6 12.3-29.25 26.9 3.8-1.05 6.75-2.4-5.45 3.05-10.55 6.55Q17.8 65.6 8.1 78.1q6.6-23.45 30-34.85h.05q10-4.4 14.05-9.55-7.65.95-11.3.15" fill="#47366b"/><path d="M3.35 84.8q-1-8.45.35-18.5 6.3-26.6 20-31 9.05.1 17.2-1.45 3.65.8 11.3-.15-4.05 5.15-14.05 9.55h-.05q-23.4 11.4-30 34.85-2.5 3.25-4.75 6.7" fill="#6145a9"/></g><g id="v" fill-rule="evenodd"><path d="m275.5 9.25.3-.25.4.45q11.4 13 .85 28.85-2.6 3.9-6.5 7.95-8.95 9-22.7 10.25l1.6-.8q8-1.7 15.75-5.95l2.6-2.2q12.9-11.5 13.25-21.85l.15-.2q.7-7.7-5.7-16.25m-31.75 44.8 3.75 2.5q-7.5 0-15.95-2.2l-22.3-11.3q-11.15-4.8-26.7-2.45l-1.3.2q-6.65 1.1-14 3.5l-4.4.45q13.4-6.1 13.65-6.1 16.65-3.25 32.5.65 20.95 13 34.75 14.75" fill="#230f09"/><path d="M277.05 38.3q10.55-15.85-.85-28.85l-.4-.45-5.2-5.8q25.75 16.15 19.85 49.9-6.35 22.6-32.55 34.15 20.85-24.3 19.15-48.95" fill="#282e55"/><path d="m270.6 3.2-.9-.55-1.35-.8-.15-.1-1.8-1.4 2.7-.2q23.95 11.15 24.8 39.55 1.25 36.85-42 52.9-33.35 7.65-45.3 18.05-1.85 1.15-5.25 1.3 10.25-11.7 31.8-17.05l3.6-.85q11.8-2.7 21.15-6.8 26.2-11.55 32.55-34.15 5.9-33.75-19.85-49.9" fill="#160602"/><path d="M275.5 9.25q6.4 8.55 5.7 16.25l-.15.2q-.35 10.35-13.25 21.85 6.25-14.2 3.3-22.05 3.25-15.4-2.8-23.6l.05-.05 1.35.8 2.9 3.05 2.9 3.55" fill="#777fa7"/><path d="m249.45 55.7-1.6.8-.15.05h-.2l-3.75-2.5 1.05.1q8.4-2.45 13.65-8.85 15.6-19.7 8.8-39.35l-.1-.4q-2.1-4.1-.75-5.2l1.8 1.4.1.15q6.05 8.2 2.8 23.6l-1.45 5.7-.05.05Q262.8 49 249.45 55.7" fill="#262c45"/><path d="M247.85 56.5q13.75-1.25 22.7-10.25 3.9-4.05 6.5-7.95 1.7 24.65-19.15 48.95-9.35 4.1-21.15 6.8l-3.6.85q1.5-19.7-10.7-34.75l-.1-.4q-10.9-14.2-39.8-19.15 15.55-2.35 26.7 2.45l22.3 11.3q8.45 2.2 15.95 2.2h.2l.15-.05" fill="#1c253d"/><path d="m267.8 47.55-2.6 2.2q-7.75 4.25-15.75 5.95Q262.8 49 269.6 31.25l.05-.05 1.45-5.7q2.95 7.85-3.3 22.05" fill="#4b588d"/><path d="m162.85 44.75 4.4-.45q7.35-2.4 14-3.5l1.3-.2q28.9 4.95 39.8 19.15l.1.4q12.2 15.05 10.7 34.75-21.55 5.35-31.8 17.05l-2.65-.05q-21.95 2.15-43.35-1.9-14.05 0-28.45 3.2-17.9.6-36.95 3.85l-.4.1q-17.6-3.15-23.65-14.1l-.75-1.4-15.55-53.5 18.35 7.4q35.1 16.3 67.3 1.7l27.6-12.5" fill="#12172a"/><path d="m49.6 48.15-.55-.2-2.6-1.05q-8.1-4.25-20.65-.85-3.5.9-7.4 2.45-6.1 2.7-10.75 6.3l-.4.3q-2.1 1.6-3.85 3.4 18.6-8.35 23.25 1l.55 9.35 1.15 21.4q-1.15 28.2 37.85 29.35l2 .05 9.3-.25-3.2 2.85q-50.75.65-48.7-32.6 1.4-26.55-2.85-30.7-8.5-5.8-19.1 3.2-5.75 1.1-2.5-4.75 7.75-10.1 27.7-14.7 13.4-1.65 20.15 2.35l.2-.25 2.2 1.45q8.35 5.45 16.55 9.3l-18.35-7.4" fill="#343d50"/><path d="m49.05 47.95.55.2 15.55 53.5.75 1.4q6.05 10.95 23.65 14.1l-9.6 1.75q-20.05-4.45-28.2-21.35l-.2-.45-6.65-42.45.65-2.65-.95-.65-.15-.05 4.6-3.35" fill="#253046"/><path d="M25.8 46.05q12.55-3.4 20.65.85l2.6 1.05-4.6 3.35q-6.25-3.95-18.65-5.25" fill="#8497ae"/><path d="M7.65 54.8q4.65-3.6 10.75-6.3 3.9-1.55 7.4-2.45 12.4 1.3 18.65 5.25l.15.05.95.65-.65 2.65-2.9 11.6-5-13.8q-14.3-4.2-29.35 2.35" fill="#66769f"/><path d="m27.2 68.85-.55-9.35Q22 50.15 3.4 58.5q1.75-1.8 3.85-3.4l.4-.3Q22.7 48.25 37 52.45l5 13.8.2.65-15 1.95" fill="#2e3a4e"/><path d="M66.2 119.6q-39-1.15-37.85-29.35l-1.15-21.4 15-1.95q-10.9 19.8-7.35 34.2 5.35 6.85 13.8 11.15 12.35 5.8 17.55 7.35" fill="#7587a9"/><path d="m77.5 119.4-9.3.25-2-.05q-5.2-1.55-17.55-7.35-8.45-4.3-13.8-11.15-3.55-14.4 7.35-34.2l-.2-.65 2.9-11.6 6.65 42.45.2.45q8.15 16.9 28.2 21.35l-2.45.5" fill="#2d365e"/></g><g id="e"><filter id="r"><feColorMatrix in="SourceGraphic" result="filterResult0" values="0 0 0 0 1.0,0 0 0 0 0.4,0 0 0 0 1.0,0 0 0 1 0"/><feConvolveMatrix divisor="4" in="filterResult0" kernelMatrix="1 1 1 1" order="1 4" result="filterResult1"/><feComposite in="SourceGraphic" in2="filterResult1" result="filterResult2"/></filter><use ffdec:characterId="13" filter="url(#r)" height="136.45" transform="translate(41.65)" width="263.95" xlink:href="#s"/><use ffdec:characterId="14" height="57.2" transform="translate(0 81.45)" width="93.9" xlink:href="#t"/></g><g id="w"><path d="m239.25 11.1-.1-.05q-11.3-2.45-23.7-2.15 2.15-3.35 12.85-7.4 16.95-1.45 34.45.95Q249.9 18.6 233.3 31.1q-8.85 1.7-10.7-.15 10.15-8.6 17.15-19.75l-.5-.1" fill="#fdadfb" fill-rule="evenodd"/><path d="m239.15 11.05.1.05q-7.05 10.5-17.35 19.8l-2.05 1.8-23.4-1.8q-9.8 4.25-19.65 8.45-1.9-.95-1.6-4.1l19.45-8.15q8.7-11 15.65-17.55 14.8-.6 28.85 1.5M210 25.9l6.85.5 8.75-9.5q-5.9-1.7-13.2-.95l-4.6 5.55-2.85 3.45 5.05.95" fill="#fff3c6" fill-rule="evenodd"/><path d="m239.25 11.1.5.1q-7 11.15-17.15 19.75l-2.75 2.2q-10.2.45-22.9-1.35L163.5 45.7l-23.2 9.7-7.25 2.95v-.25l-.05-.7 6.2-2.5 22.15-9.15.1-.05 15.35-6.35q9.85-4.2 19.65-8.45l23.4 1.8 2.05-1.8q10.3-9.3 17.35-19.8m-23.8-2.2q12.4-.3 23.7 2.15-14.05-2.1-28.85-1.5-6.95 6.55-15.65 17.55l-19.45 8.15-15.7 6.55-23.25 9.7-5.3 2.35-.7-.45 6.95-3.05 23.8-9.9 33.35-14q7.65-10 15.6-17.3l5.5-.25" fill="#d89b3e" fill-rule="evenodd"/><path d="M222.6 30.95q1.85 1.85 10.7.15-6.25 4.7-13 8.85l-19.75 4.5q-13.15 2.95-24.8 6.2-9.6-.6-12.25-4.95l33.45-13.9q12.7 1.8 22.9 1.35l2.75-2.2m5.7-29.45q-10.7 4.05-12.85 7.4l-5.5.25q-7.95 7.3-15.6 17.3l-33.35 14q-.5-4.9 3.45-10.45 21.2-11.1 41.4-24.85Q216.9 2.5 228.3 1.5" fill="#c331f3" fill-rule="evenodd"/><path d="m207.8 21.5 4.6-5.55q7.3-.75 13.2.95l-8.75 9.5-6.85-.5q-2.25-1.75-2.2-4.4" fill="#f7a2fa" fill-rule="evenodd"/><path d="M207.8 21.5q-.05 2.65 2.2 4.4l-5.05-.95 2.85-3.45" fill="#db51f5" fill-rule="evenodd"/><path d="M233.3 31.1q16.6-12.5 29.45-28.65-17.5-2.4-34.45-.95-11.4 1-22.45 3.65-20.2 13.75-41.4 24.85-12.7 6.65-25.8 12.35l-.1-.9q21.25-9.5 42.3-22.15 12.8-7 24.85-14.95 32.65-7.45 58.25-2.2-15.95 21.9-43.2 38.5-36.4 7.8-71.15 18.65l-41 30.15q-.4-.35-.25-.9l2.6-2L148.6 58.9v-.05l.35-.2L165 53.8l10.75-3.15q11.65-3.25 24.8-6.2l19.75-4.5q6.75-4.15 13-8.85" fill="#d0104d" fill-rule="evenodd"/><path d="M175.2 35.25q-.3 3.15 1.6 4.1l-15.35 6.35-.1.05q-1.8-1.1-1.85-3.95l15.7-6.55" fill="#ffe19e" fill-rule="evenodd"/><path d="M138.65 42.35q13.1-5.7 25.8-12.35-3.95 5.55-3.45 10.45l-23.8 9.9q-1.6-2.95 1.3-7.6l.15-.4m1.65 13.05 23.2-9.7q2.65 4.35 12.25 4.95L165 53.8l-16.05 4.85-.45.1-2.45-.4q-2.2-.4-5.75-2.95" fill="#b824e4" fill-rule="evenodd"/><path d="m138.55 41.45.1.9h-.05l-7.7 3.25-23.6 4.1-24.05 3.1h-.2l-3.6.35q-8.8-1.75-19.05-1.75l-12.55.5h-.4l-9.2 1.4Q19.8 56.8 2.5 65.25l6.85-.1q9.8-6.25 23.6-6.8 3.55 1.1.85 4.55l-.5.3q-4.65 3.15-10.2 4.4 7.1 2.8 12.3 3.35 6.4-3.35 14.85.35Q54 75 45.85 83.6l-.65-.4q10.25-11.75.7-12.45-6.35-1.45-10.4 1.1-7.95-.95-13.1-3.75l-.95-.55q13.55-4.5 12.3-7.8Q25.8 57.7 9.8 65.7l-9.8.6 1.95-1.05h.55L2.4 65q26.5-14.35 58-14.35 2.55-.05 5.1.05h.4l11.5.85 3.1-.25 26.8-3.1 26.25-4.55 5-2.2" fill="#6e0721" fill-rule="evenodd"/><path d="m137.2 50.35-6.95 3.05q-1.15-.6-2.5-.6-2.2 0-3.75 1.55-1 1-1.35 2.35-.15.45-.15.95l-.05.45q0 1.8 1.05 3.15l.5.6.05.1h.05q1.5 1.45 3.65 1.45 2.2 0 3.75-1.55 1.45-1.45 1.55-3.5l7.25-2.95q3.55 2.55 5.75 2.95l2.45.4.1.1v.05l-37.65 27.65q-1.5-1.25-3.25-2.15-1.35-.7-2.9-1.15-5.9-1.8-7.65-4.55-1.3-2.1-5.55-4.45-3.85-2.1-3.85-2.65l4.85-5.3q4.8-5.5 4.8-6.7V59l1.15-.9-2.05-.7-8.3-2.55q-2.75-.8-5-1.95l-.15-.1.15.1q2.25 1.15 5 1.95l8.3 2.55 2.05.7-1.15.9-6.65 4.95-2.85 3.3-2.55 2.4H84.3l-1.9.3-2-.25-1.25-.15v.9q0 2.6-.5 5.05 4.1.3 8.15 1.4 7.75 2 7.75 5.8 0 .8-1.1 2.65-.9 1.6-1.75 2.05l8.8-2q2.65 0 6.8 3.05l.4.3.65-.2-6.9 10.7q-1.95 2.95-10.5 12.8-.45-4.3-2.8-8.45h.15q-.8-2.4-1.95-4.2v.05l-.85-1.25-.25-.35-5.35-7.55 1.85-.4q3.4-1.2 3.4-4.95 0-2.45-3.25-2.45l-4.5.6-2.35.8-.05-.1q-7.7-9.9-14.6-16.6Q48 55.05 38.25 53.3l9.2-1.4h.4l12.55-.5q10.25 0 19.05 1.75l3.6-.35h.2l24.05-3.1 23.6-4.1 7.7-3.25-.1.4q-2.9 4.65-1.3 7.6m-58.05 19.2-.35-3.5.35 3.5M75 83.8q2.7-3.8 3.65-8.3Q77.7 80 75 83.8m16.2 3.75.5-.15-.5.15" fill="#9f1fbd" fill-rule="evenodd"/><path d="m136.25 51.5 23.25-9.7q.05 2.85 1.85 3.95L139.2 54.9q-3.15-1-2.95-3.4" fill="#fdc973" fill-rule="evenodd"/><path d="m130.25 53.4.7.45 5.3-2.35q-.2 2.4 2.95 3.4l-6.2 2.5.05.7v.25q-.1 2.05-1.55 3.5-1.55 1.55-3.75 1.55-2.15 0-3.65-1.45l-.1-.1-.5-.6q-1.05-1.35-1.05-3.15l.05-.45q0-.5.15-.95.35-1.35 1.35-2.35 1.55-1.55 3.75-1.55 1.35 0 2.5.6" fill="#d8993f" fill-rule="evenodd"/><path d="m110.95 86.55-2.6 2-.65.2-.4-.3q-4.15-3.05-6.8-3.05l-8.8 2q.85-.45 1.75-2.05 1.1-1.85 1.1-2.65 0-3.8-7.75-5.8-4.05-1.1-8.15-1.4.5-2.45.5-5.05v-.9l1.25.15 2 .25 1.9-.3h1.05l2.55-2.4 2.85-3.3L97.4 59v.6q0 1.2-4.8 6.7l-4.85 5.3q0 .55 3.85 2.65 4.25 2.35 5.55 4.45 1.75 2.75 7.65 4.55 1.55.45 2.9 1.15 1.75.9 3.25 2.15m-35.9-2.65 2.35-.8 4.5-.6q3.25 0 3.25 2.45 0 3.75-3.4 4.95l-1.85.4-6.4.95q-2.8.4-5.2 1.25l-.65-1.2 1.2-1.35q3.65-2.75 6-6l.2-.05" fill="#701a62" fill-rule="evenodd"/><path d="m90.95 112.05-5.3 5.55-1 1.05-1.1 1.05-5.05 4.95q-3.25 3.1-9.45 7.2-6.2 4.1-11.45 4.1l-1.5-.25-1.2-1.1 10.55-8.05q6.75-5.8 8.1-11.05-2.65-.95-4.6-.95-2 0-5.45 1.9l-5 2.65h-.9l-.45-3.1-.45-2.6q0-1.15 1.15-1.95 1.1-.8 1.1-2.8 0-3.2-6.35-7.8l-2.15-1.6.4-.15q.85-.25 1.2-.95l.2-.7v-.15l-.3-3.8q-1.05-6.4-6.1-9.9Q54 75 50.25 71.3q-8.45-3.7-14.85-.35-5.2-.55-12.3-3.35 5.55-1.25 10.2-4.4l.5-.3q2.7-3.45-.85-4.55-13.8.55-23.6 6.8l-6.85.1Q19.8 56.8 38.25 53.3 48 55.05 60.4 67.2q6.9 6.7 14.6 16.6l-.15.15.15-.15.05.1-.2.05q-2.35 3.25-6 6l-1.2 1.35.65 1.2q2.4-.85 5.2-1.25l6.4-.95 5.35 7.55.25.35.85 1.25v-.05q1.15 1.8 1.95 4.2h-.15q2.35 4.15 2.8 8.45M68.3 92.5l15.25 27.2L68.3 92.5" fill="#9018a7" fill-rule="evenodd"/><path d="m83.05 52.8.15.1q2.25 1.15 5 1.95l8.3 2.55 2.05.7-1.15.9-6.65 4.95-2.85 3.3-2.55 2.4H84.3l-1.9.3-2-.25-1.25-.15v.9q0 2.6-.5 5.05 4.1.3 8.15 1.4 7.75 2 7.75 5.8 0 .8-1.1 2.65-.9 1.6-1.75 2.05l8.8-2q2.65 0 6.8 3.05l.4.3.65-.2M78.8 66.05l.35 3.5m-4.3 14.4.15-.15q2.7-3.8 3.65-8.3m-3.6 8.4 2.35-.8 4.5-.6q3.25 0 3.25 2.45 0 3.75-3.4 4.95l-1.85.4-6.4.95q-2.8.4-5.2 1.25l-.65-1.2 1.2-1.35q3.65-2.75 6-6l.2-.05m16.65 3.5-.5.15m-7.65 32.15L68.3 92.5" fill="none" stroke="#200b00" stroke-linecap="round" stroke-linejoin="round"/><path d="m108.35 88.55-6.9 10.7q-1.95 2.95-10.5 12.8l-5.3 5.55-1 1.05-1.1 1.05-5.05 4.95q-3.25 3.1-9.45 7.2-6.2 4.1-11.45 4.1l-1.5-.25-1.2-1.1 10.55-8.05q6.75-5.8 8.1-11.05-2.65-.95-4.6-.95-2 0-5.45 1.9l-5 2.65h-.9l-.45-3.1-.45-2.6q0-1.15 1.15-1.95 1.1-.8 1.1-2.8 0-3.2-6.35-7.8l-2.15-1.6" fill="none" stroke="#6e0721" stroke-linecap="round" stroke-linejoin="round"/></g><g id="t" fill-rule="evenodd"><path d="m87.05 84.2-.95-.75q-2.85.75-4.8 1.55-2.5.95-3.6 2l-.35.4q2.3.7 3.95 2.6 3.2 3.55 3.95 11.45l1.25-.55 6.3-2.6.25-1.2q.3-1.95.05-3.75-.3-1.65-1-3.2-.65-1.35-1.65-2.6v-.1q-1.35-1.75-3.4-3.25m-12.1 1.85 8.2-4.6q2.05.7 3.7 1.75l.65.4q5.05 3.5 6.1 9.9l.3 3.8v.15l-.2.7q-.35.7-1.2.95l-7.85 3.25q-.7-4.3-1.65-7.3-.75-2.25-1.7-3.7-1.7-2.7-3.95-2.8h-.3L76.5 88l-1.55-1.95m-51.9 44.5-.05.05-1.45 2.8-8.6 4.3q-1.45 1.05-3.45.95-11.2-7.7-9.2-18.8l10.2-6 3 .2-.1 2.35-.1.2-.15-.15-1-.75-10.05 5.35q.5 12.1 8.75 15.05l6.35-3.05 2.7-1.8.3-1.2-.25-1.05.05-.7q-.05-1.95-.5-3.6l-1.05-2.65-1.5-2.25q-1.45-1.75-3.5-3.15h-.05l.05-.1.5.2q2.1 1.2 3.6 2.95 1 1.15 1.75 2.6.95 1.85 1.5 4.05l.25 2.1.05.6 1.95 1.5" fill="#856268" transform="translate(0 -81.45)"/><path d="M77.7 87q1.1-1.05 3.6-2 1.95-.8 4.8-1.55l.95.75-7.4 3.7q-.9-.55-1.95-.9m12.75.45v.1q1 1.25 1.65 2.6l-6.75 3.65q-.7-1.7-1.95-3.05l7.05-3.3m2.6 9.65-.25 1.2-6.3 2.6 6.55-3.8" fill="#cfbbb7" transform="translate(0 -81.45)"/><path d="M87.05 84.2q2.05 1.5 3.4 3.25l-7.05 3.3-2.1-1.85-1.65-1 7.4-3.7M13.4 116.65h.05q2.05 1.4 3.5 3.15l-8.4 4.5q-1.2-1.35-2.95-2.55 4.4 4 5.95 11.7l.05.25v-.25l.4.5.2 1.1-1.7.35q-7.25-3.25-7.6-13.95 2.85-3.1 10.5-4.8" fill="#fdfdfd" transform="translate(0 -81.45)"/><path d="M92.1 90.15q.7 1.55 1 3.2.25 1.8-.05 3.75l-6.55 3.8-1.25.55Q84.5 93.55 81.3 90q-1.65-1.9-3.95-2.6l.35-.4q1.05.35 1.95.9l1.65 1 2.1 1.85q1.25 1.35 1.95 3.05l6.75-3.65" fill="#916376" transform="translate(0 -81.45)"/><path d="M77.05 88.55h.3q2.25.1 3.95 2.8.95 1.45 1.7 3.7l-4.95-1.7-.2.3-.4-1.85-.55-3.25h.15" fill="#41091a" transform="translate(0 -81.45)"/><path d="m76.9 88.55.55 3.25-59.9 27.9q-1.5-1.75-3.6-2.95l62.6-28.15.35-.05" fill="#7d0926" transform="translate(0 -81.45)"/><path d="m76.5 88 .55.55h-.15l-.35.05-62.6 28.15-.5-.2-.05-.15L76.5 88" fill="#7e0a27" transform="translate(0 -81.45)"/><path d="m84.65 102.35-37.3 16.7-1.6 1.9-22.65 9.65-.05-.05-1.95-1.5-.05-.6 29.7-13.55 18.2-8.35 7.25-10.5 1.65-2.4.2-.3 4.95 1.7q.95 3 1.65 7.3" fill="#230f09" transform="translate(0 -81.45)"/><path d="m77.45 91.8.4 1.85-1.65 2.4-56.9 26.25q-.75-1.45-1.75-2.6l59.9-27.9" fill="#65061f" transform="translate(0 -81.45)"/><path d="m13.5 114.05 61.45-28L76.5 88l-63.1 28.4.1-2.35" fill="#2e1103" transform="translate(0 -81.45)"/><path d="m76.2 96.05-7.25 10.5-18.2 8.35q-13.9 3.9-29.95 11.45-.55-2.2-1.5-4.05l56.9-26.25" fill="#40091a" transform="translate(0 -81.45)"/><path d="m19.9 131.25-2.7 1.8-6.35 3.05q-8.25-2.95-8.75-15.05l10.05-5.35 1 .75.15.15.1.05q-7.65 1.7-10.5 4.8.35 10.7 7.6 13.95l1.7-.35q2.7-.9 7.7-3.8" fill="#a37c72" transform="translate(0 -81.45)"/><path d="m16.95 119.8 1.5 2.25-8 4.9q-.75-1.45-1.9-2.65l8.4-4.5" fill="#d9cac2" transform="translate(0 -81.45)"/><path d="m18.45 122.05 1.05 2.65-8.2 4.35-.85-2.1 8-4.9M20 128.3l-.05.7.25 1.05-8.2 3.9-.4-.5.05-1q1.9-.1 8.35-4.15" fill="#c0a6a1" transform="translate(0 -81.45)"/><path d="M19.5 124.7q.45 1.65.5 3.6-6.45 4.05-8.35 4.15.05-1.8-.35-3.4l8.2-4.35" fill="#986d7c" transform="translate(0 -81.45)"/><path d="M11.55 133.45q-1.55-7.7-5.95-11.7 1.75 1.2 2.95 2.55 1.15 1.2 1.9 2.65l.85 2.1q.4 1.6.35 3.4l-.05 1h-.05" fill="#9b746d" transform="translate(0 -81.45)"/><path d="m20.2 130.05-.3 1.2q-5 2.9-7.7 3.8l-.2-1.1 8.2-3.9" fill="#d3c0bb" transform="translate(0 -81.45)"/><path d="m50.75 114.9-29.7 13.55-.25-2.1q16.05-7.55 29.95-11.45" fill="#57041b" transform="translate(0 -81.45)"/></g><g id="x" fill-rule="evenodd"><path d="m39.85 28.45-1.6-.35q2-9.3 3.95-11.3 2-9.2 6.3-16.8l.6.5-1.3 2.6-.3.6q-2.55 5.55-4.6 13.15-1.75 2.8-2.5 6.4l-.05.25q-.45 2.2-.5 4.75v.2" fill="#1c0701"/><path d="M40.4 23.25q.75-3.6 2.5-6.4 2.05-7.6 4.6-13.15 1.7 6 3.95 8.55l-11.05 11" fill="#554331"/><path d="M39.85 28.25q.05-2.55.5-4.75l.05-.25 11.05-11Q49.2 9.7 47.5 3.7l.3-.6q2.85 5.3 7.1 6.75l.7 2.9-12.3 14-.85-.85-2.6 2.35" fill="#3a2f2c"/><path d="M39.85 28.45v-.2l2.6-2.35.85.85 12.3-14-.7-2.9Q50.65 8.4 47.8 3.1L49.1.5q11.2 1.6 12.1 11.55l.1 2.05-7.4 10.2 1.95-.25-4.8 6.2q-5.4.8-11.2-1.8" fill="#2a1d1f"/><path d="m58.7 21.25-1.85 2.7-1 .1-1.95.25 7.4-10.2q-.3 2.5-4.05 8l1.45-.85" fill="#342929"/><path d="M56.85 23.95q-2.15 3-5.2 6.4l-.6-.1 4.8-6.2 1-.1" fill="#2b1c20"/><path d="m61.2 12.05.55 2.25q-.7 3.1-3.05 6.95l-1.45.85q3.75-5.5 4.05-8l-.1-2.05" fill="#1c0703"/><path d="M40.45 19.2q.5-1.3 1.6-2.4v-.1l.45.05q-4.25 4.5.95 11.95L53 26.2q4.15-2.55 4.65-3.85l.7-.45q-.6 1.8-2.25 3.15l-1.95 1.25q-2.2 1.05-5.4 1.7l-.4.05q-2.65.1-3.95.9l-.1.05q-2.15.4-4 1.95-2.45 2-4.4 5.85-.45-.45-.7-1.9l-2.75.65.4-.5q.55-.5 1.85-.75-.9-2.2-1.2-4.3l-.05-.85-.05-.85q-.05-3.8 2.05-7.45 2.7-4.5 6.8-5.8l-.05.6q-2.3.45-5.15 3.8-1.3 2.25-2 4.4-.95 2.8-.8 5.4l.1.8q.3 2.65 1.8 5.1l.05.05.05-.1q1.45-2.7 3.35-4.35 1.4-1.25 3.1-1.9l-1.6-2.7-.05-.15q-.8-1.6-1-3.05-.3-2.05.4-3.75M39.3 38l-.1-.1.5-.35q1.7-1.05 5.5-1.45l2.75.05q8.45-.2 13.2-5.15l.2-.2q.95-1.85 1.1-3.7.3-3.65-2.65-7.25l.4-.5q2.95 2.95 3.2 6.7v.1l-.15 1.1q-.5 2.75-1.7 4.5L57.7 34.7l-.5.25Q53.5 36.8 49 36.5l-5.35.5q-.25 1.15.75 2.85-1.55 1.2-3.2 2-2.9 1.5-6 1.7l-1.1.05-.85-1.5-.35-.85q-.9-2.45-.55-5.45h.1q.35 3.75 1.85 6.8l.3.6 2.9-.65q3.2-1 6.15-3-.8-1.2-.8-2.4-1.7-.1-3.55.85" fill="#582c19"/><path d="M42.05 16.7v.1q-1.1 1.1-1.6 2.4-1.85-1-3.25 3.25l-2.15 1.4q.7-2.15 2-4.4 2.85-3.35 5.15-3.8l-.15 1.05m-1 9.3.05.15q-1.65 1.6-2.9 4-1.15 2.15-1.95 4.95l-.1.05q-1.5-2.45-1.8-5.1l1.35-2.15 1.95-2.45.1-.1q1.5 2.05 3.3.65" fill="#edb765"/><path d="M40.45 19.2q-.7 1.7-.4 3.75-2.15-.65-2.3 2.4l-.1.1-1.95 2.45-1.35 2.15-.1-.8q-.15-2.6.8-5.4l2.15-1.4q1.4-4.25 3.25-3.25m-8 16.35 2.75-.65q.25 1.45.7 1.9 1.95-3.85 4.4-5.85 1.85-1.55 4-1.95l-.1.95q-.85.55-1.65 1.25-5.45 4.4-8.25 11.4-1.5-3.05-1.85-6.8l-.05-.15.05-.1" fill="#ebd884"/><path d="m41.1 26.15 1.6 2.7q-1.7.65-3.1 1.9-1.9 1.65-3.35 4.35.8-2.8 1.95-4.95 1.25-2.4 2.9-4M39.3 38q1.85-.95 3.55-.85 0 1.2.8 2.4-2.95 2-6.15 3-.2-.05 1.8-4.55" fill="#d9823b"/><path d="m48.35 28.05.4-.05q3.2-.65 5.4-1.7l-.05 1.1q-.45 2.4-3.7 4.95-9 2.45-10.7 5.2l-.5.35-.3.3.4-.2q-2 4.5-1.8 4.55l-2.9.65-.3-.6q2.8-7 8.25-11.4.8-.7 1.65-1.25.1.65.75.9l1.85.2 2.05-1.55q.55-.85-.5-1.45" fill="#edb564"/><path d="m54.15 26.3 1.95-1.25.7 2q.95 4.5-4.8 8.05-2.05-.25-4.05 1.05l-2.75-.05q-3.8.4-5.5 1.45 1.7-2.75 10.7-5.2 3.25-2.55 3.7-4.95l.05-1.1" fill="#cf6a2f"/><path d="M56.1 25.05q1.65-1.35 2.25-3.15 2.35 2.25 2.9 5.1.35 1.85-.1 4-4.75 4.95-13.2 5.15 2-1.3 4.05-1.05 5.75-3.55 4.8-8.05l-.7-2" fill="#773021"/><path d="M59.8 19.85q2.95 3.6 2.65 7.25-.15 1.85-1.1 3.7l-.2.2q.45-2.15.1-4-.55-2.85-2.9-5.1l.55-.85.9-1.2" fill="#6d0724"/><path d="M40.05 22.95q.2 1.45 1 3.05-1.8 1.4-3.3-.65.15-3.05 2.3-2.4M44.3 29l.1-.05q1.3-.8 3.95-.9 1.05.6.5 1.45l-2.05 1.55-1.85-.2q-.65-.25-.75-.9l.1-.95" fill="#fdf4b4"/><path d="m33.4 28.3.05.85q-.65.55-1.35 1.45l-1.8 2.45-1.05 1.65q-.65 4.5.5 11.4l-.1.2-2.1 3-1.4 1.35-.9-1.75 1.6-3.3-.4-10.25q1.2-1.85 3.15-2.6 1.75-3 3.8-4.45" fill="#7d0c2c"/><path d="m17.4 62.75-.2-.3q-2.35-6.1-3.1-11.6.45-5.1 1.75-9.7l2.6-.8.05-.15.9-3.2q1.1-3.5 2.9-6.55l.25 8.2L24.7 37l.05.2q.65 6.25 2.1 8.4l-1.6 3.3q-2.4-5.15-3.15-10.2l-.3-3.2-.05-2.45q-.8 1.5-1.5 3.45l-1.2 3.5-1.15 4.3.65 4.05q1.5 7.95 3.9 13.35l.05.3.3 2.05q.6 5.35-.45 10.05-.55 2.5-1.6 4.85-1 2.15-2.45 4.1l-.1-1 1.55-2.6q1.05-2.2 1.65-4.8 1-4.35.8-9.75l-.1-2.25.05-.25q-3.4-6.7-4.4-17.4l-.65 2.9-.55 2.8q1.05 4.7 3.4 11.7l-1 2.85-1.55-2.5m10.1-8.15-.25-2.05.3.55q2.35 5.45-1.4 15.95l-.1.3q.95.4 1.45 1.5l.4 2V74l-.15 1.55-.45.4.25-1.75q.1-2.15-.7-3.6-.5-.9-1.35-1.5 2.15-5.95 2.15-11.7v-.05l-.15-2.75" fill="#5b2c19"/><path d="m32.85 35.05-.4.5-.05.1-.05.15q-.35 3 .55 5.45l.35.85.2 3 5.3 2.15 1.35 5.5-9.85 10.9q.05-5.4-2.7-14.35l2.1-3 .1-.2q-1.15-6.9-.5-11.4l1.05-1.65 1.8-2.45.75 4.45" fill="#d2103d"/><path d="m33.25 42.1.85 1.5 1.1-.05q2.05 1.1 7.2 1.95 1.15.15.15 6.2l-.15.2q-4.35 9.5-14.9 18.95-.5-1.1-1.45-1.5l.1-.3q3.75-10.5 1.4-15.95l-.3-.55-1.1-1.9 1.4-1.35q2.75 8.95 2.7 14.35l9.85-10.9-1.35-5.5-5.3-2.15-.2-3" fill="#8c102f"/><path d="M35.2 43.55q3.1-.2 6-1.7 2.55 1.7 6.05 1.25 1.1 4.1-3.45 14.35l-15.9 15.4-.4-2Q38.05 61.4 42.4 51.9l.15-.2q1-6.05-.15-6.2-5.15-.85-7.2-1.95" fill="#760b2a"/><path d="M41.2 41.85q1.65-.8 3.2-2-1-1.7-.75-2.85l5.35-.5q4.5.3 8.2-1.55l.1 3.55q-1.7 1.7-4.95 2.25Q54.9 47 51.1 50.2l-1.15.6q-1.95.8-2.3 1.8l3.45-1.5-.1 3.95q-12.25 3.3-14.4 16.85-4.55-.45-7.85 3.55-.2-.4-.85.45l-.15-.35.15-1.55v-1.15l15.9-15.4q4.55-10.25 3.45-14.35-3.5.45-6.05-1.25" fill="#50051b"/><path d="m33.45 29.15.05.85q.3 2.1 1.2 4.3-1.3.25-1.85.75l-.75-4.45q.7-.9 1.35-1.45" fill="#941132"/><path d="m18.55 48.35-.65-4.05 1.15-4.3 1.2-3.5q.7-1.95 1.5-3.45l.05 2.45.3 3.2q.75 5.05 3.15 10.2l.9 1.75 1.1 1.9.25 2.05q-4.8 1.55-8.95-6.25" fill="#fdf4b6"/><path d="M19.95 62.4q-2.35-7-3.4-11.7l.55-2.8.65-2.9q1 10.7 4.4 17.4l-.05.25.1 2.25-1.75-.6-.5-1.9m2.85 1.65L22.5 62l-.05-.3q-2.4-5.4-3.9-13.35 4.15 7.8 8.95 6.25l.15 2.75v.05q-2.55 6.8-4.85 6.65" fill="#ead57e"/><path d="M22.2 64.9q.2 5.4-.8 9.75l-2.3-.5q2-6 1.35-9.85l1.75.6m.15 9.2q1.05-4.7.45-10.05 2.3.15 4.85-6.65 0 5.75-2.15 11.7.85.6 1.35 1.5-2.25 3.7-4.5 3.5" fill="#ecb160"/><path d="m11.9 77.2 5.45-14.4.05-.05 1.55 2.5 1-2.85.5 1.9q.65 3.85-1.35 9.85l-1.3 3.45-.15-1.45q2.95-5.9 2.1-11.15l-.05-.2q-.7.6-2.9 7.45l-1.6 4.35-.2.4q-.65 1.25-1.15 1.3l-1.5-1.45-.45.35" fill="#740a2a"/><path d="m15.2 76.6 1.6-4.35q2.2-6.85 2.9-7.45l.05.2q.85 5.25-2.1 11.15l-.15-1.45-2.3 1.9" fill="#d00f3c"/><path d="m57.2 34.95.5-.25 3.85-2.95q1.2-1.75 1.7-4.5l.15-1.1.05-.05 1.75 1.7q.3 4.25-5.3 8.35l-.7 10.05q.25 1.55-5.35 5.7l.05.25-2.2 1.9.3 1.4q-5.75 1.3-9.4 5.1-3.8 3.95-5.3 10.6l-.2.85q-6.65 1.65-8.05 4.25l-.25.5.05-1.05-.1-.25q3.3-4 7.85-3.55Q38.75 58.35 51 55.05l.1-3.95-3.45 1.5q.35-1 2.3-1.8l1.15-.6q3.5-2 5.25-4.15.85-3.4.95-7.55l-.1-3.55m-2.35 41.5q.05 5.65-1.05 7.95l-6.1 6.2-.25 2.6q-1.05 1.9-3.5 4.3l-1.05-1.6q1.8-2 2.6-3.95v-2.6q3.2-2.35 6.4-6.7 1.05-4.05.75-7.65l2.2 1.45" fill="#230f09"/><path d="M57.3 38.5q-.1 4.15-.95 7.55-1.75 2.15-5.25 4.15 3.8-3.2 1.25-9.45 3.25-.55 4.95-2.25" fill="#60051f"/><path d="M53.9 52.15q8.4-1.7 15.95-18.65 2.2-.7 3.15 1.05-.7 11.95-7.1 32.5Q60.15 72.9 54.8 75l.05 1.45-2.2-1.45-.25-1.85 1.25-.65 4.1-2.2q3.4-2.05 5.55-4l1.75-5.95-2.9 2.45.1-.2q-7.7 7.1-12.6 7.85-7.55 4-10.35 16.6l-.3-1.9q1.05-8.8 10-15.05l.75-.55q2.2.85 12.9-7.95l.15-.35 2.7-2.6 2.65-10.55 1.9-9.55-3.5 6.2-1.75 3q-2.25 3.1-9.2 6.25l-.8.35L52 55.5v-.05l-.3-1.4 2.2-1.9" fill="#3d1911"/><path d="m28.8 76.75.25-.5q4.5 2.9 6.7-2.5L37.1 72l.2-.85q4.35-5.75 12.35-8.55 7.7-2.3 5.95-8.6 6.95-3.15 9.2-6.25l1.75-3q1.5-.95-1.4 6.35-5.6 5.4-10.6 9.1-6 5.8-10.85 9.35l-.65.45q-2.1 1.45-4 2.5l-.4.2v.05l-1.2 1q-3.3 5.45-8.85 4.55l.05-.45.05-.15.1-.95" fill="#e4974c"/><path d="M37.3 71.15q1.5-6.65 5.3-10.6 3.9 3.1 5.25-.35 2.1-3.05 6.95-5.85l.8-.35q1.75 6.3-5.95 8.6-8 2.8-12.35 8.55" fill="#e1c66a"/><path d="M65.15 51.1q2.9-7.3 1.4-6.35l3.5-6.2-1.9 9.55-1.1 1.1-.05.05-1.85 1.85" fill="#e2c66b"/><path d="M42.6 60.55q3.65-3.8 9.4-5.1v.05l2.8-1.15q-4.85 2.8-6.95 5.85-1.35 3.45-5.25.35" fill="#fdf1ad"/><path d="M43.7 69.55Q48.55 66 54.55 60.2q5-3.7 10.6-9.1L67 49.25l.05-.05 1.1-1.1-2.65 10.55-2.7 2.6q1.1-3 1.45-5.9Q53.4 64.8 43.7 69.55" fill="#c65829"/><path d="M38.65 72.75v-.05l.4-.2q1.9-1.05 4-2.5l.65-.45q9.7-4.75 20.55-14.2-.35 2.9-1.45 5.9l-.15.35q-10.7 8.8-12.9 7.95l-.75.55q-8.95 6.25-10 15.05l-1.2-6.2Q32.5 83.2 29.4 89l-.6-8.4 1.9 1.9q10-6.4 7.95-9.75m19.1-2.45-4.1 2.2-1.25.65-.2.1h-.05l-.05.05q-7 4.1-7.35 14.85L40.3 92.9l-1-5.85q2.8-12.6 10.35-16.6 4.9-.75 12.6-7.85l-.1.2q-1.65 3.7-4.4 7.5" fill="#68261d"/><path d="m62.15 62.8 2.9-2.45-1.75 5.95q-2.15 1.95-5.55 4 2.75-3.8 4.4-7.5" fill="#c65529"/><path d="M52.1 73.3q-6.05 4.9-6.55 15l-.05 1.05v2.6q-.8 1.95-2.6 3.95l-.05.1-1.9.4q2.5-2 3.85-4.3l-.05-3.95Q45.1 77.4 52.1 73.3" fill="#150703"/><path d="m44.75 88.15.05 3.95q-1.35 2.3-3.85 4.3l-.65-3.5 4.45-4.75" fill="#c75328"/><path d="m52.1 73.3.05 1.9-2.2 8.45-4.4 4.65q.5-10.1 6.55-15" fill="#340312"/><path d="m49.95 83.65 2.2-8.45q.05 4.55-.85 7l-1.35 1.45" fill="#4f041c"/><path d="m52.4 73.15.25 1.85q.3 3.6-.75 7.65-3.2 4.35-6.4 6.7l.05-1.05 4.4-4.65 1.35-1.45q.9-2.45.85-7l-.05-1.9.3-.15" fill="#0d0300"/><path d="M29.05 76.25q1.4-2.6 8.05-4.25l-1.35 1.75q-2.2 5.4-6.7 2.5" fill="#e9d379"/><path d="M28.6 78.3q5.55.9 8.85-4.55l1.2-1q2.05 3.35-7.95 9.75l-1.9-1.9-.2-2.3" fill="#d46f34"/><path d="M21.4 74.65q-.6 2.6-1.65 4.8-1.45-.45-1.9-1.1l-.05-.75 1.3-3.45 2.3.5m-.65 4.3q1.05-2.35 1.6-4.85 2.25.2 4.5-3.5.8 1.45.7 3.6-3.4 3.95-6.8 4.75" fill="#d57437"/><path d="m19.75 79.45-1.55 2.6-.35-3.7q.45.65 1.9 1.1m-1.45 3.6q1.45-1.95 2.45-4.1 3.4-.8 6.8-4.75l-.25 1.75q-4.8 3.85-8.85 8.7l-.15-1.6" fill="#833e29"/><path d="m43.95 97.5-.1.15q.9 2.5.5 5.3-9.5 8.85-17.4 20h-2.3q-2.8-2.4-2.85-12.6l-.05.05-10.2 10.1-2.45.05q-1.65-1.05-1.65-12.25l-3.65 3.75-2.35.1-.9-1.05q-1.4-15.1.7-22.8Q6.9 81.4 11.9 77.2l.45-.35 1.5 1.45q.5-.05 1.15-1.3l.2-.4 2.3-1.9.15 1.45.15 1.45.05.75.35 3.7.1 1 .15 1.6q4.05-4.85 8.85-8.7l.45-.4.15.35q.65-.85.85-.45l.1.25-.05 1.05-.1.95-.05.15-.05.45.2 2.3.6 8.4q3.1-5.8 8.4-10.05l1.2 6.2.3 1.9 1 5.85.65 3.5 1.9-.4.05-.1 1.05 1.6m-27-20.9-.05-.7q-7.45 6.85-13.05 14Q2.2 96.4 3 108.55l.4-.35 1.1-1.1 5.35-5.1q-.05-6.55 1.4-9.85l6.35-6.7-.25-3.8-.4-5.05m11.2 4.15-.25-4.85-.95 1-.35.3q-7.25 5.95-14.3 15.55l-.25.3q-1.4 3.5-1.8 8.6-.55 6.35.35 15.25l.6-.55 3.9-3.75 3.9-3.75 4.2-4.05q-.05-4.45.5-7.8l4.95-7.45-.15-3.3-.35-5.5m9.5 1.55-.2-2.1v-.05l-.05.05q-5.3 5.7-13 16.5-.65 5.2-.25 9.2.5 9.2 1.4 12.1l.15.45.55.85.1-.1 1.95-2.5 2.35-3 .4-.45 2.1-2.55q4.55-5.45 8.8-9.55-2.25-5.9-3.5-13.1l-.25-1.75-.55-4" fill="#5f454f"/><path d="M38.45 88.05q1.25 7.2 3.5 13.1-4.25 4.1-8.8 9.55l7.1-10.25q-1.45-5.4-1.8-12.4" fill="#94697c"/><path d="m28.5 86.25.15 3.3L23.7 97q-.55 3.35-.5 7.8l-4.2 4.05 3.1-12.7 6.4-9.9m9.7.05.25 1.75q.35 7 1.8 12.4l-7.1 10.25-2.1 2.55q2.65-15.7 7.15-26.95" fill="#67415a"/><path d="M15.1 112.6q2.2-20.7 13.05-31.85l.35 5.5-6.4 9.9-3.1 12.7-3.9 3.75m22.55-30.3.55 4q-4.5 11.25-7.15 26.95l-.4.45-2.35 3q2.5-18.75 9.35-34.4" fill="#9e7483"/><path d="m16.95 76.6.4 5.05-6.2 8.85Q6.2 98.1 4.5 107.1l-1.1 1.1q0-19.05 13.55-31.6m9.65.6.35-.3.95-1 .25 4.85Q17.3 91.9 15.1 112.6l-3.9 3.75q2.1-23.8 15.4-39.15m10.85 3 .2 2.1q-6.85 15.65-9.35 34.4l-1.95 2.5q-.4-21.65 11.05-39h.05" fill="#c4a9ad"/><path d="m17.35 81.65.25 3.8-6.35 6.7q-1.45 3.3-1.4 9.85l-5.35 5.1q1.7-9 6.65-16.6l6.2-8.85" fill="#a8818d"/><path d="m3.4 108.2-.4.35q-.8-12.15.85-18.65 5.6-7.15 13.05-14l.05.7Q3.4 89.15 3.4 108.2m23.2-31q-13.3 15.35-15.4 39.15l-.6.55q-.9-8.9-.35-15.25.4-5.1 1.8-8.6l.25-.3q7.05-9.6 14.3-15.55m-.25 42-.1.1-.55-.85-.15-.45q-.9-2.9-1.4-12.1-.4-4 .25-9.2 7.7-10.8 13-16.5-11.45 17.35-11.05 39" fill="#fdfcfd"/></g><g id="y" fill-rule="evenodd"><path d="M38.05 28.65Q32.1 18.15 24.5 3.25L22.75.3l.95-.3 14.8 28.25-.45.4m-36-22.5 3.5 5.9q5.1 8.1 20.45 26.65l-.3.25Q12.1 23.2 4.95 12.55L1.15 6.4l.9-.25" fill="#490f16"/><path d="M5.55 12.05q4.05 2.6 10.6 10.55l-.75-2.1 9.65 3.1q1.5 1.45 3.25 6.05l-5.7-.85 6.75 7.3L26 38.7Q10.65 20.15 5.55 12.05" fill="#2b2124"/><path d="M20.95.8 36.8 29.9l-.05.05-7.4 6.15-6.75-7.3 5.7.85q-1.75-4.6-3.25-6.05l-9.65-3.1.75 2.1Q9.6 14.65 5.55 12.05l-3.5-5.9L20.95.8" fill="#24181c"/><path d="m22.75.3 1.75 2.95q7.6 14.9 13.55 25.4L36.8 29.9 20.95.8l1.8-.5" fill="#2c2224"/><path d="M79.25 82.5q8.7 7.65 16.15 16 4.95 16.25 4.6 29.65-1.05 2.25-3.25 1.5-3.8-4.15-5.5-4.65 1.6 9.3 1.8 16.65-.75 2.45-3.6 1.6-7.5-7.5-18-16.2.65 9.35-.3 13.85-1.7 3.05-5.25-1.4-11.4-12.8-20.15-20.7l.15-7.75 2.2-1.65.05.05v-.1l.2-9.5v-1.8l.1-6.1.05-3.2.5.35q4.4 3.25 12.5 13.7l-1.2-13.7-.1-1.05-.5-5.9.7.45 2.15 1.45q4.55 3.35 11.1 9.7l-.15-2.4-.05-.6-.55-7.5-.05-.6-.15-1.95.9.7 2.2 1.6 2.05 1.5 1.4-2m-28.5 9.4-1.65-1.6.25 5.15.05.65q.35 11.7-1.5 21.45 6.15 4.5 17.25 16.65l3.75 4.15-.25-10.35q-.6-10.95-2.35-17.5l-.05-.3-6.65-8.6q-4.45-5.4-8.85-9.7m10.85-7.2-1-.75q1.4 6.1 1.8 15.4l.1 4.75.15.4 3.7 4.1q1.95 6.55 2.75 12.3l.05.2 3.9 2.95q9.15 7.1 16.65 15.1l-.2-2.45-.05-.4-.6-5.6q-.85-7-2-12.7l-.05-.25q-1-4.75-2.2-8.65l-1.15-3.2-.2-.5-.15-.15q-11-12.45-20.4-19.7l-1.1-.85M96 125.35l1.15 1.1Q96.4 110.4 92 98.95 81.5 88.2 73.55 81.8l.6 7.5.35 4.1.1 1.6q3.55 2.6 9.2 9.7 1.85 3.4 3.95 12.95l8.25 7.7" fill="#4d354a"/><path d="M65.15 134.2q-11.1-12.15-17.25-16.65 1.85-9.75 1.5-21.45.55-2.3 3.7 18.15l12.05 19.95M62.4 99.35q-.4-9.3-1.8-15.4l1 .75 16.65 35.6 11.2 16 .05.4.2 2.45q-7.5-8-16.65-15.1L68.5 108l-6.1-8.65" fill="#c0a4ab"/><path d="m49.4 96.1-.05-.65-.25-5.15 1.65 1.6q5.35 6.2 10.75 16.5 3.8 12.4 7.4 29.95l-3.75-4.15-12.05-19.95Q49.95 93.8 49.4 96.1m12.2-11.4 1.1.85q4.85 4.65 10 10.9l5.55 7.1q5.8 10.8 10.6 27.15l.6 5.6-11.2-16L61.6 84.7" fill="#fcfcfc"/><path d="M50.75 91.9q4.4 4.3 8.85 9.7 4.85 6.6 9.05 26.4l.25 10.35q-3.6-17.55-7.4-29.95-5.4-10.3-10.75-16.5" fill="#bfa3aa"/><path d="m59.6 101.6 6.65 8.6.05.3q1.75 6.55 2.35 17.5-4.2-19.8-9.05-26.4m27.2 16.15.05.25q1.15 5.7 2 12.7-4.8-16.35-10.6-27.15l-5.55-7.1q4.2 3.15 9.25 9.35l4.85 11.95" fill="#9b7184"/><path d="m73.05 124.05-3.9-2.95-.05-.2q-.8-5.75-2.75-12.3l-3.7-4.1-.15-.4-.1-4.75 6.1 8.65 4.55 16.05" fill="#9a7083"/><path d="M62.7 85.55q9.4 7.25 20.4 19.7l.15.15.2.5 1.15 3.2q1.2 3.9 2.2 8.65l-4.85-11.95q-5.05-6.2-9.25-9.35-5.15-6.25-10-10.9m11.45 3.75-.6-7.5Q81.5 88.2 92 98.95q4.4 11.45 5.15 27.5l-1.15-1.1q-1-8.35-4.35-20.3l-.2-.15q-5.05-7.5-17.3-15.6" fill="#bda0a8"/><path d="M74.15 89.3q12.25 8.1 17.3 15.6l.2.15Q95 117 96 125.35q-2.7-8.35-10.55-21.8L74.5 93.4l-.35-4.1" fill="#93677c"/><path d="m96 125.35-8.25-7.7q-2.1-9.55-3.95-12.95-5.65-7.1-9.2-9.7l-.1-1.6 10.95 10.15Q93.3 117 96 125.35" fill="#673f5a"/><path d="M70.7 67.9q3.4 4.5 6.15 9.7l-1.7 2.35L68.55 69l.1-1.75.1-1.7 1.95 2.35" fill="#1e0c07"/><path d="m76.85 77.6 2.4 4.9-1.4 2L75.8 83q-3.15-6.8-7.3-13.15l.05-.85 6.6 10.95 1.7-2.35m-8.5-4.8.05-1.05q1.1 5.5 4.45 10.9l.05.6q-3.25-3.65-4.55-10.45" fill="#110601"/><path d="m68.45 70.95.05-1.1Q72.65 76.2 75.8 83l-2.2-1.6-5.15-10.45" fill="#4c051d"/><path d="m68.4 71.75.05-.8L73.6 81.4l-.9-.7.15 1.95q-3.35-5.4-4.45-10.9" fill="#310212"/><path d="m56.7 51.45 1.05-6.7 1.85 2.3q.85-10.85-2.35-21.35l1.1 1.45q4.2 7.5 8.55 18.85v.5l.8.6.55 1.35 2.35.15 1.05 2.65q1.05 7.5-.95 16.65l-1.95-2.35.55-13.35-2.1-4.8v6.35q-.3 8.65-1.6 13.8-.1 4.9 1.7 10.4 1.95 6.05 6.15 12.8l.05.6q-6.55-8.75-7.9-17.65-.5-3.25-.3-6.5 1.5-6.95 1.4-20.3-3.05-8.9-8.45-19.25 2.1 6.95 2.3 13.35.2 5-.75 9.7l-.9 3.35-2.2-2.6" fill="#381710"/><path d="M60.55 41q-.2-6.4-2.3-13.35Q63.65 38 66.7 46.9q.1 13.35-1.4 20.3-.2 3.25.3 6.5l-1.1 10.65-1.95-.3-2.15-1.45q-.05-2.65 1.15-4.05-1.2-1.9-2.05-4.7h.05q2.4 1.75 2.6-.65-.25-7.3 1.2-14l.9-3.5v-.25q0-9.75-3.7-14.45m6.75 36.95q-1.8-5.5-1.7-10.4 1.3-5.15 1.6-13.8.55-1.35 1.3 5.5l.1 6.2.05 1.8-.1 1.75-.05.85-.05 1.1-.05.8-.05 1.05-.45 5.35-.6-.2" fill="#c44d26"/><path d="M65.6 73.7q1.35 8.9 7.9 17.65l.15 2.4q-6.55-6.35-11.1-9.7l1.95.3 1.1-10.65m7.85 17.05q-4.2-6.75-6.15-12.8l.6.2.45-5.35q1.3 6.8 4.55 10.45l.55 7.5" fill="#60241c"/><path d="M59.8 50.7q.95-4.7.75-9.7 3.7 4.7 3.7 14.45v.25l-.9 3.5q-1.45 6.7-1.2 14-.2 2.4-2.6.65l-.05-.05-.1-.1-1.75-5.9 3.15-8.65v-.25q0-4.15-1-8.2" fill="#e29046"/><path d="m58.9 54.05.9-3.35q1 4.05 1 8.2v.25l-3.15 8.65q-.95-5.3.25-10.4.35-1.7 1-3.35" fill="#fbeea0"/><path d="M67.2 53.75V47.4l2.1 4.8-.55 13.35-.15-.1-.1-6.2q-.75-6.85-1.3-5.5" fill="#69281e"/><path d="m43.1 29.7 4.85 5 .4.85q3.85-1.7 3.9 10.6l4.45 5.3 2.2 2.6q-.65 1.65-1 3.35l-.7-.7-.15-.2-7.2-8.9-.25-.3-.05-.05v-.1l-.3-5.7q-.4-4.7-1.1-5.2l-5.1-5.5.05-1.05" fill="#150604"/><path d="m45.9 111.05-.1.1-3.95-3.55-.1-1.15 1.9-2v-.05l-.1-.4q-1.15-5.95-3.75-9.85l-.15-.2q-2.3-3.45-5.7-5.25-.95-.55-2-.95l-.75-.25-.1.4q-.4 1.3-1.9 1.5h-.05q-6.7-.8-13.9-6.9l-2.5-4.8Q.05 52.6 0 45.75q.15-1.9 3.15-1.3 6.45 9.5 12.3 14.35 4.75 3.05 8.5 4.05l3.9 3.2 1.25.15 5.45.45.5.55-.1.05-4.2-.45-2-.2-4.85-.9-.95-.25q-10.75-3.3-19.55-15l5.7 13q2.45 5.5 4.45 9.6 12.9 9.2 22 10.3 3.1 1.45 5.7 3.95 3.35 3.2 5.85 8.05l1.25 2.7v1.8Q44.8 92.3 41 88q-2.5-2.6-5.05-3.9-13.05-2.75-21.65-9.55 2.05 4.2 3.6 6.7Q19.15 82.5 28 86.2q5.45.95 8.2 3.4 1.7 1.05 3.1 2.65 4 4.6 5.25 14 .9 1.55 3.55 3.15l-2.2 1.65m-31.5-69.2q-2.3-2.25-3.45-4.3l1.55-2.35q1.35 2.75 4.35 5.4l.05.05-2.5 1.2M35.25 67.3l4.3 1.1q2.1 1.2 4.1 3.35l-1-.25q-3.35-3.05-7.4-4.2" fill="#3d1911"/><path d="M41.75 106.45q-5.6-3.1-9.65-7.85l-2.9-9.2q1.5-.2 1.9-1.5 1.2 4.85 3.45 9.75 4 4.55 9.1 6.8l-1.9 2m-17.8-43.6 1.7.35-.5-4.55q-6.55-3.2-8.55-8.4-1.45-8.6-2.2-8.4l2.5-1.2.45.3.7 2.6 2.15 8.25 1.9 1.4q4.2 2.85 8.85 4.65-1.35-.05-3-.7l1.15 9.05-1.25-.15-3.9-3.2" fill="#600722"/><path d="m30.75 66.8 4.2.45.2.1q9.6 4.9 12 16.3-1.8 3.85-5.9 3.65-2.6-2.5-5.7-3.95l3.2.05q3.3-.55-.75-8.8-2.7-4.4-7.25-7.8m8.55 25.45q-1.4-1.6-3.1-2.65-2.75-2.45-8.2-3.4-8.85-3.7-10.1-4.95-1.55-2.5-3.6-6.7 8.6 6.8 21.65 9.55Q38.5 85.4 41 88q1.6 4.05-1.7 4.25" fill="#e8a050"/><path d="m22.95 65.45.95.25 4.85.9 2 .2q4.55 3.4 7.25 7.8 4.05 8.25.75 8.8l-3.2-.05q-9.1-1.1-22-10.3-2-4.1-4.45-9.6 4.85 5.3 9.55 8.25l8.1.65-3.8-6.9" fill="#e5cb6e"/><path d="m9.1 63.45-5.7-13q8.8 11.7 19.55 15l3.8 6.9-8.1-.65q-4.7-2.95-9.55-8.25" fill="#fcf1ac"/><path d="M35.15 67.35v-.05h.1q4.05 1.15 7.4 4.2 4.7 4.4 7.85 12.65 2.65-.75 5.1.45.25 4.5-.65 7L49 89.1l-.5-.35-.05 3.2-1.35 3.4q-2.5-4.85-5.85-8.05 4.1.2 5.9-3.65-2.4-11.4-12-16.3m4.15 24.9q3.3-.2 1.7-4.25 3.8 4.3 7.35 11.85l-.2 9.5-.05.05q-2.65-1.6-3.55-3.15-1.25-9.4-5.25-14" fill="#cc5a2c"/><path d="M33.95 88.7q3.4 1.8 5.7 5.25l.15.2 1.5 8.45q-2.85-1.95-5.7-4.55l-1.65-9.35" fill="#c50931"/><path d="M31.95 87.75q1.05.4 2 .95l1.65 9.35-.55-.5q-2.05-5.05-3.1-9.8m7.85 6.4q2.6 3.9 3.75 9.85l-2.25-1.4-1.5-8.45" fill="#720925"/><path d="m31.1 87.9.1-.4.75.25q1.05 4.75 3.1 9.8l.55.5q2.85 2.6 5.7 4.55l2.25 1.4.1.4v.05q-5.1-2.25-9.1-6.8-2.25-4.9-3.45-9.75" fill="#4c051c"/><path d="M44.25 72.35q3.55 4.05 6.8 10.9 5.5-.75 9.15 4.8l.1 1.05q-2.25-3.25-4.7-4.5-2.45-1.2-5.1-.45-3.15-8.25-7.85-12.65l1 .25.6.6" fill="#24050b"/><path d="m48.35 98.05-1.25-2.7 1.35-3.4-.1 6.1M49 89.1l5.95 2.5q.9-2.5.65-7 2.45 1.25 4.7 4.5l1.2 13.7Q53.4 92.35 49 89.1" fill="#6d2c20"/><path d="M42.95 48.65q1.7-6 .35-10.55l-1.65-1.15q.9-2.75 1.25-5.1 4.8 5.5 6.35 9.6l.3 5.7v.1l.05.05.25.3q.4.7.5 2.85L57 56.5l.2.2.7.7q-1.2 5.1-.25 10.4l1.75 5.9.1.15q.85 2.8 2.05 4.7-1.2 1.4-1.15 4.05l-.7-.45.5 5.9q-3.65-5.55-9.15-4.8-3.25-6.85-6.8-10.9 2.45.9 4.5 2.15 2.3 1.35 4.05 3.15 1.75-6.1 1.9-17.55l.05-.25q-6.2-6.7-11.8-11.2" fill="#350314"/><path d="m39.7 49.75 2.85.15.4-1.25q5.6 4.5 11.8 11.2l-.05.25q-.15 11.45-1.9 17.55-1.75-1.8-4.05-3.15l2.8-13.7L39.8 50.5l-.1-.75" fill="#4e051e"/><path d="M48.75 74.5q-2.05-1.25-4.5-2.15l-.6-.6q-2-2.15-4.1-3.35l6.8 1.7 2.8-7.85-8.9-5.75-.45-6 11.75 10.3-2.8 13.7" fill="#690821"/><path d="M29.85 46.3q3.85 2.8 9.85 3.45l.1.75.45 6 8.9 5.75-2.8 7.85-6.8-1.7-4.3-1.1-.15-.05-.05-.05-.5-.55-3.85-4.15q-.15-3 1-5.7-4.85-1-9.6-3.6l-1.9-1.4-2.15-8.25-.05-1.8 2.8 3.7 9.05.85" fill="#c2082f"/><path d="M22.1 53.2q4.75 2.6 9.6 3.6-1.15 2.7-1 5.7l3.85 4.15-5.45-.45-1.15-9.05q1.65.65 3 .7-4.65-1.8-8.85-4.65" fill="#760926"/><path d="M12.5 35.2q-2.55-5.35.75-11.2l.3.35q-1.4 3.4-1.4 6.35 0 2.55 1.1 4.75 1 2.1 3.05 3.85l1.9 1.4q2.55 1.15 11 1.2 4.05 0 7.1 1.6l-.2.3q-2.25-.85-5.15-1.2-.1 1.55-.7 3.1l.9.6q3.65 2.15 10.45 2.65h.1q2.45-5.35 1.25-10.45l-1.35-.85-2.2 4.25q-3.1-5.6-8.55-7.85-3.35-1.45-7.55-1.6L22 32.4l-2.1-.45-.4-.1q-2.65-.9-3.75-2.6-.95-1.4-.85-3.4l.45.5.05.3q.6 3.55 4 4.65l3.25.5q4.35.15 9.35 1.75.7-2.8 3.1-8.05.65-.8-2.5-7.9 1.35 1.15 2.15 2.7 1.4 2.65 1 6.5-2.35 3.75-3 7.25 2.25 1.2 4.05 3.2l2.25 3.1q4.6-7.75 3.05-14.05l-.95-2.65Q36.55 15.5 32.1 16l-.15-.55Q37.2 15.2 41 22.3q2.25 2.85 2.1 7.4l-.05 1.05-.15 1.1q-.35 2.35-1.25 5.1l1.65 1.15q1.35 4.55-.35 10.55l-.4 1.25-2.85-.15q-6-.65-9.85-3.45l-.35-.25q.85-1.5.6-3.65-9.85.15-12.75-1.45l-.45-.3-.05-.05q-3-2.65-4.35-5.4" fill="#37160f"/><path d="M41.6 48.95q-6.8-.5-10.45-2.65v-1.05q2.05-2.05 4.9-1.4l1.05.3q3 1.2 4.5 4.8" fill="#e69c4f"/><path d="M17.35 40.95q2.9 1.6 12.75 1.45.25 2.15-.6 3.65l.35.25-9.05-.85-2.8-3.7.05 1.8-.7-2.6" fill="#750925"/><path d="M30.85 34.05q5.45 2.25 8.55 7.85l2.2-4.25 1.35.85q1.2 5.1-1.25 10.45h-.1q-1.5-3.6-4.5-4.8l-1.05-.3.05-.05.2-.3q-3.05-1.6-7.1-1.6-8.45-.05-11-1.2l-1.9-1.4q6.85 2.4 13.65-.55 2.9-2.5.9-4.7" fill="#c75929"/><path d="M16.3 39.3q-2.05-1.75-3.05-3.85 3.6 1.8 6.65.5.65.95 2.1 1.3 3.25.35 4.4-.4l1.3-1.3q-.5-2.2-4.4-3.1 4.2.15 7.55 1.6 2 2.2-.9 4.7-6.8 2.95-13.65.55" fill="#e69c4e"/><path d="m13.55 24.35 1.35 1.5q-.1 2 .85 3.4-1.8.15-3.6 1.45 0-2.95 1.4-6.35" fill="#e59b4f"/><path d="M13.25 35.45q-1.1-2.2-1.1-4.75 1.8-1.3 3.6-1.45 1.1 1.7 3.75 2.6-.6 2.65.4 4.1-3.05 1.3-6.65-.5" fill="#e2c66b"/><path d="M23.3 32.45q3.9.9 4.4 3.1l-1.3 1.3q-1.15.75-4.4.4-1.45-.35-2.1-1.3-1-1.45-.4-4.1l.4.1 2.1.45 1.3.05" fill="#fcefa6"/><path d="M41.2 25.3q.9 3.05.35 5.6-1.4 6.75-4.75 6.35-1.8-2-4.05-3.2.65-3.5 3-7.25.4-3.85-1-6.5 2.75.7 6.45 5" fill="#6b281d"/><path d="M36.8 37.25q3.35.4 4.75-6.35.55-2.55-.35-5.6l.9 1q1.55 6.3-3.05 14.05l-2.25-3.1" fill="#c85829"/><path d="m31.15 46.3-.9-.6q.6-1.55.7-3.1 2.9.35 5.15 1.2l-.05.05q-2.85-.65-4.9 1.4v1.05" fill="#c95b2b"/><path d="m49.85 47.6 7.2 8.9H57l-6.65-6.05q-.1-2.15-.5-2.85" fill="#4c041c"/><path d="m15.4 26.65 4 4.65q-3.4-1.1-4-4.65" fill="#2c2124"/><path d="m32.6 17.6-.25-.5-.25-1.1q4.45-.5 9.05 7.65l.95 2.65-.9-1q-3.7-4.3-6.45-5-.8-1.55-2.15-2.7" fill="#5a051e"/><path d="m42.9 31.85.15-1.1 5.1 5.5q.7.5 1.1 5.2-1.55-4.1-6.35-9.6" fill="#51051c"/></g><g id="z" fill-rule="evenodd"><path d="m15.05.45.4-.45 8.1 11.15q5.8 7.8 8.95 14.6l.05.15-.45.55-1.5-3.15q-3.25-6.45-7.45-11.75L15.05.45m8.7 37.4-.4.5q-2.25-6.4-4.65-8.3l-6.6-5.35L0 16.35l.3-.3 18.55 13.2q1.25 1.3 2.35 3.1 1.4 2.3 2.55 5.5" fill="#2f1e1f"/><path d="m15.05.45 8.1 11.1q4.2 5.3 7.45 11.75l-3.2 4.9-2.1-6.9-3.7-1.25-3.2-.3-1.15 7.35 3.35 3.1.6 2.15q-1.1-1.8-2.35-3.1L.3 16.05 15.05.45" fill="#372a34"/><path d="m30.6 23.3 1.5 3.15-8.35 11.4q-1.15-3.2-2.55-5.5l-.6-2.15-3.35-3.1 1.15-7.35 3.2.3 3.7 1.25 2.1 6.9 3.2-4.9" fill="#594542"/></g><g id="A" fill-rule="evenodd"><path d="m30.8 15.4 2.75-3.65 30.85 3.9q1.15 4.2.95 9.6-1.65-2.1-.65-.15-1.5-2.85-1.8-1.7l.05 10.35-1.4 1.2-.05-2.2q-.7-2.4-.85-.95-.8 1.3-1.2 3.75-3.5 4.7-7.15 7.5 1.25.5 5.45-1.6-1.65 1.2-3.55 2 4.25-1 6.65-3.75l-4.8 6.8-.45.3q-14.7 9.45-35.15-9.35 1.7-5.65 3.95-10.65.55 4.95 7.6 9.75l1-4.5-2.2-16.65" fill="#2b212c"/><path d="M30.8 15.4 33 32.05l-1 4.5q-7.05-4.8-7.6-9.75 2.8-6.2 6.4-11.4" fill="#67524b"/><path d="M57.75 41.45q-4.2 2.1-5.45 1.6 3.65-2.8 7.15-7.5.4-2.45 1.2-3.75l-.05.7v6.55l-2.85 2.4m5.2-7.7L62.9 23.4q.3-1.15 1.8 1.7l.05.1q1.1 3.25 1.1 6l-2.9 2.55m2.4-8.5q.2-5.4-.95-9.6l.7.05 2.45 4.5q0 2.55-1.9 5.45l-.3-.4" fill="#453338"/><path d="M60.85 39.7q-2.4 2.75-6.65 3.75 1.9-.8 3.55-2l2.85-2.4V32.5l.05-.7q.15-1.45.85.95l.05 2.2 1.4-1.2 2.9-2.55q0-2.75-1.1-6l-.05-.1q-1-1.95.65.15l.3.4q1.9-2.9 1.9-5.45l-2.45-4.5 1.4 1.45 1.65 2.65q1.2 1.4-2.5 6.95l.8 4.9q-1.9 2.25-4.9 4.2l-.35 3.35-.35.5" fill="#160602"/><path d="M.9 57q1.05.6 3.35 1l3 .35 10.35.4.45 1.4q-5.9.35-11.4-1.35-4.3-.4-6.65-1.6l.9-.2m11.25-15.45q-3-.75-7.55 4.7v-.05q2.9-5.35 7.3-5.45l.25.8" fill="#211a1d"/><path d="M4.25 58q6.75-.4 11.7-4.45l1.65 5.2-10.35-.4-3-.35" fill="#2c202b"/><path d="M4.25 58q-2.3-.4-3.35-1l3.65-10.7.05-.05q4.55-5.45 7.55-4.7l3.8 12Q11 57.6 4.25 58" fill="#594542"/><path d="M28 22.05q-5.1 10.8 2.05 18.85 5.6 6.4 14.35 7.05 9.1-.35 16.6-8.75v-2.9l1.15-.1.4 6.6Q59.05 54.7 47 56.05q-3.55 6.3-12.5 7.05-7.6 7.95-11.05 13.85-2.4-5.3-2.55-15-9.65-3.9-11.9-16.3-.1-5 2.75-10.15 2.9-3.15 6-3.7.1-8.2 10.3-12.4 2.6-1-.05 2.65m-2.5 10.5q-.7-3.7.35-6.75.45-1.45 1.3-2.7 3.45-5.35-2.5-1.25-3.25 1.8-4.85 4.85-1.55 2.95-1.6 7.1v.1q1 8.1 4.65 12.6l-.35.35q-1.65-1.85-2.8-4.7-1.25-3-1.9-7.05l-.15-.8q.1-.9-2 1.7-1.35 2.2-1.6 4.65-.5 4 1.7 8.5l1.4 2.55-.4.35q-1.5-1.25-2.15-3.8l-.7-2.45q-.9-4.05.05-7.2.95-3.15 3.75-5.4-.2-.6 0-.85-6.25 1.7-7.8 8.75l-.05.2q-.25 2.3-.15 4.35.4 6.65 4.85 10.8 2.25 2.65 5.8 4.25 2.2 1 4.9 1.6-.2.3.25.4-2.35.2-3.9-.8-.1 6.5 1.85 13.6l.1-.2q5.4-8.1 10.95-12.85 8.25-1.45 11.85-6.2l-4.45.15q-4.25 3.7-12.65 3.2-4.2-.25-7.5-2.4l-.25-.15-.95-.75-.55.5-.3.25-.25-.45 6-5.3.25-.75L27.75 52q2.25 1.4 4.9 2.35 4.1 1.4 9 1.5 7.25-.05 12.1-2.6 3.8-2 6.15-5.6l1.65-3.2q.65-2 .35-7.75l-.55.15-.15 2.65-.9 1.1-2.35 2.85-.15.15q-8.35 6.4-17.45 4.7h-.15l-.2-.05q-2.7-.85-5-2.25-2.55-1.65-4.65-4-2.25-2.5-3.9-5.9-.7-1.85-.95-3.55m.75 26.05q3.65.8 8.9.2 3.9-1 5.5-2.05-5.6-.65-10-2.5-2.6-1.15-4.8-2.7l-5 4.5q2.05 1.8 5.4 2.55" fill="#3d180d"/><path d="M25.85 25.8q-1.05 3.05-.35 6.75-3.8 4.75-7.25 1.3l-.05-.05q.05-4.15 1.6-7.1 5.65-4 6.05-.9" fill="#fdf5bb"/><path d="M25.5 32.55q.25 1.7.95 3.55 1.65 3.4 3.9 5.9-2.2 3.35-7.5 7.85-7.4 4.65-6.35 3.1v-.05l.7-.5q3.35-2.75 5.4-5.5l.25-.4Q19.2 42 18.2 33.9l.05-.05q3.45 3.45 7.25-1.3m-5.7-5.85q1.6-3.05 4.85-4.85 5.95-4.1 2.5 1.25-.85 1.25-1.3 2.7-.4-3.1-6.05.9" fill="#edda89"/><path d="M9.9 41.1q1.55-7.05 7.8-8.75-.2.25 0 .85-2.8 2.25-3.75 5.4-1.95.35-4.05 2.5" fill="#ecd988"/><path d="M9.7 45.65q-.1-2.05.15-4.35l.05-.2q2.1-2.15 4.05-2.5-.95 3.15-.05 7.2-1.15 2.35-4.2-.15" fill="#fdf5ba"/><path d="M30.35 42q2.1 2.35 4.65 4-2.5 4.35-7.25 6l-2.05-1.45-.25.75-6 5.3.25.45.3-.25q.25 1.45 1.6 2.9l-1.25 1q-3.55-1.6-5.8-4.25-4.45-4.15-4.85-10.8 3.05 2.5 4.2.15l.7 2.45q.65 2.55 2.15 3.8l-.5.5q-.3.55.15.4l.05-.05.05.05q-1.05 1.55 6.35-3.1 5.3-4.5 7.5-7.85" fill="#e9ab5a"/><path d="M35 46q2.3 1.4 5 2.25l.2.05q-1.8 3.9-7.55 6.05Q30 53.4 27.75 52q4.75-1.65 7.25-6M20 56.8l.55-.5.95.75.25.15q1.8 2.35 6.8 4.7-3.2 6.9-5 13.4l-.1.2q-1.95-7.1-1.85-13.6 1.55 1 3.9.8-.45-.1-.25-.4-2.7-.6-4.9-1.6l1.25-1q-1.35-1.45-1.6-2.9" fill="#cd662d"/><path d="M40.2 48.3h.15q9.1 1.7 17.45-4.7l.2-.05q1.25 3.1-4.25 9.7-4.85 2.55-12.1 2.6-4.9-.1-9-1.5 5.75-2.15 7.55-6.05m-18.45 8.9q3.3 2.15 7.5 2.4 8.4.5 12.65-3.2l4.45-.15q-3.6 4.75-11.85 6.2-5.55 4.75-10.95 12.85 1.8-6.5 5-13.4-5-2.35-6.8-4.7" fill="#722c1f"/><path d="m57.95 43.45 2.35-2.85q.6 3.45-.4 7.05-2.35 3.6-6.15 5.6 5.5-6.6 4.25-9.7l-.05-.1" fill="#cb642c"/><path d="m60.3 40.6.9-1.1.15-2.65.55-.15q.3 5.75-.35 7.75l-1.65 3.2q1-3.6.4-7.05" fill="#e6a254"/><path d="m17.15 51.7-1.4-2.55q2-2.1 3.95-7 1.15 2.85 2.8 4.7l-5.35 4.85m-3.1-11.05q.25-2.45 1.6-4.65 2.1-2.6 2-1.7l.15.8-3.75 5.55" fill="#9c1033"/><path d="M15.75 49.15q-2.2-4.5-1.7-8.5l3.75-5.55q.65 4.05 1.9 7.05-1.95 4.9-3.95 7" fill="#d51242"/><path d="M30.65 54.25q-1.15 2.95-4.4 4.35-3.35-.75-5.4-2.55l5-4.5q2.2 1.55 4.8 2.7" fill="#3f0315"/><path d="M30.65 54.25q4.4 1.85 10 2.5-1.6 1.05-5.5 2.05-5.25.6-8.9-.2 3.25-1.4 4.4-4.35" fill="#750823"/><path d="m16.75 52.05.4-.35 5.35-4.85.1.05q-2.05 2.75-5.4 5.5l-.7.5h-.05l-.05.05q-.45.15-.15-.4l.5-.5" fill="#3d160d"/><path d="m34.35 2.45.5-.35.1-.05q3.9-.3 7.55 1.1 9.95-5.8 18.25-.9 4 4 5.45 14.9-4.05 3.65-6.25 3.3.9 1.5.4 4.7-2.1 3.1-4.65 2.8 1.2 3.85.7 6.75-3.85 3.5-12.65 4.25Q42 37.9 39.3 35q-4.3 1.15-5.85.5-1.1-3.25 1.15-9.85l-1.8.5q-.75-.9.35-4.8l-4.6 4.45q-3.5-7.7-.35-16 1.85-5.25 6.05-7.45l.1.1Q25.2 8.95 28.6 24.9l.55-.5 4.2-3.8q1.95-7.05 3.55-9.5 1.65-1 2.7-1.25-.25-1.75 1.1-4.15l1.25-1.95q-3.35-1.6-7.6-1.3m26.35.5-.3-.35-.05-.15q-7-3.8-16.2.55-2.2.6-4.15 6.65l5.05-.9 7.95.2q1 .4 1.95 1.3 2.75 2.65 4.8 9.65 1.55.1 5.65-2.8l.05-.05Q64.9 12.1 63.7 8.6q-1.2-3.55-3-5.65m-8.1 6.4Q40.65 8.6 37.3 11.4q-2.65 4.9-4.15 13.9l.5-.1 1.35-.25q1.2-3.1 5.85-4.2l5.45-.55h1.1l4.8 1q2.5 2.35 3.2 6.1-.15.6 4.25-2.15l-.2-2.5-.45-2.6Q57.5 13 52.7 9.35h-.1m-18.9 25.5v.1h.55l5.55-.35.4.35 3.6 3.3q6.95-.9 12.05-3.5l.2-.1-.9-5.8Q53.8 22.8 51.7 21.5l-1.95-.3q-7.3-.95-12.05 1.3-3.05.7-4 12.35" fill="#55394a"/><path d="M34.35 2.45q4.25-.3 7.6 1.3L40.7 5.7q-2.6.55-4.6 2.4-4.4 8.5-6.95 16.3l-.55.5Q25.2 8.95 34.35 2.45m10.7 6.3-5.05.9Q41.95 3.6 44.15 3q9.2-4.35 16.2-.55l.05.15.3.35q-13.6 3.2-15.65 5.8M33.65 25.2l-.5.1q1.5-9 4.15-13.9 3.35-2.8 15.3-2.05l.05.05q1.3 1.7 1.35 2.85-6.5-.05-12.55 3.4l-7.8 9.55m16.1-4 1.6.75q-5.3 1.15-9.6 3.7l-8.05 9.2q.95-11.65 4-12.35 4.75-2.25 12.05-1.3" fill="#fdfdfd"/><path d="M40.7 5.7q-1.35 2.4-1.1 4.15-1.05.25-2.7 1.25-1.6 2.45-3.55 9.5l-4.2 3.8q2.55-7.8 6.95-16.3 2-1.85 4.6-2.4m4.35 3.05q2.05-2.6 15.65-5.8 1.8 2.1 3 5.65-2.5-2.1-4.2-2.25L53 8.95l-7.95-.2M33.65 25.2l7.8-9.55Q47.5 12.2 54 12.25q-.05-1.15-1.35-2.85l.05-.05Q57.5 13 59 20.05q-3.35-5-4.6-4.9-12.7 3.65-13.55 5.6-4.65 1.1-5.85 4.2l-1.35.25m.6 9.75h-.55v-.1l8.05-9.2q4.3-2.55 9.6-3.7l-1.6-.75 1.95.3q2.1 1.3 3.45 7.35-3.5-2.7-6.4-3-8.7 2.75-14.5 9.1" fill="#d2beba"/><path d="M63.7 8.6q1.2 3.5 1.75 8.45l-.05.05q-2.05-6-10.45-6.85-.95-.9-1.95-1.3l6.5-2.6q1.7.15 4.2 2.25M59 20.05l.45 2.6q-1.85-2-5.25-3.5-4.85-1.15-7.9 1.05l-5.45.55q.85-1.95 13.55-5.6 1.25-.1 4.6 4.9m-24.75 14.9q5.8-6.35 14.5-9.1 2.9.3 6.4 3l.9 5.8-.2.1Q53.2 32.6 48.05 31q-3.95 2-7.85 3.95l-.4-.35-5.55.35" fill="#ae8d93"/><path d="M65.4 17.1q-4.1 2.9-5.65 2.8-2.05-7-4.8-9.65 8.4.85 10.45 6.85m-5.95 5.55.2 2.5q-4.4 2.75-4.25 2.15-.7-3.75-3.2-6.1l-4.8-1h-1.1q3.05-2.2 7.9-1.05 3.4 1.5 5.25 3.5M40.2 34.95Q44.1 33 48.05 31q5.15 1.6 7.8 3.75-5.1 2.6-12.05 3.5l-3.6-3.3" fill="#754c64"/></g><g id="B" fill-rule="evenodd"><path d="m15 9.85.3.55q-1.25 4-5.6 8l-.5.45q-1.8.2-4.15 3.3l-.3-.5q2.75-3.6 4.85-3.25Q14.5 13 15 9.85M.45 12l-.4-.85q-.5-1.45 6.35-5.6Q7.65 2.9 10.15 0l.2.45q-2.3 2.4-3.4 5.35Q.4 9.6.45 11v1" fill="#24110e"/><path d="m11.1 1.95 3.9 7.9Q14.5 13 9.6 18.4q-2.1-.35-4.85 3.25L3 17.75l1.75.1q.6-2.4.45-5.1 5.2-5.2 5.9-10.8" fill="#312530"/><path d="M3 17.75.45 12v-1Q.4 9.6 6.95 5.8q1.1-2.95 3.4-5.35l.75 1.5q-.7 5.6-5.9 10.8.15 2.7-.45 5.1L3 17.75" fill="#56403f"/></g><g id="C" fill-rule="evenodd"><path d="M13.55 40.85q-1.5-.6-3.35-2.85Q4.1 36.65.45 24.1l.5-.15q4.25 12.8 9.45 13.7l3.15 3.2" fill="#260b01"/><path d="m.95 23.95 8.8-3.35q.85 13.05 1.25 14 .65 1.7 2.35 2.25 2.6 2.55 4 2.15 1.95 2.2 4.55 1-4.1 3.35-3.2 4.5l2.5 1.7-3.3-.1-4.35-5.25-3.15-3.2q-5.2-.9-9.45-13.7" fill="#634a47"/><path d="m9.75 20.6 17.6-6.75 5.9 10.45Q23.7 36.55 30.7 37.8l4.55.6q-8.3 7-14.05 7.8l-2.5-1.7q-.9-1.15 3.2-4.5-2.6 1.2-4.55-1-1.4.4-4-2.15-1.7-.55-2.35-2.25-.4-.95-1.25-14" fill="#392c35"/><path d="m33.25 24.3 5.9 10.55-3.9 3.55-4.55-.6q-7-1.25 2.55-13.5" fill="#5d4543"/><path d="m51.25 37.75.4-.75q7.8 5.25 8.9 9.25-4.35-6.35-9.3-8.5" fill="#210902"/><path d="m61.95 55.05.05.4q-8.55.8-18.15-3.05l.25-.55q7.55 3.25 17.85 3.2" fill="#1f0b05"/><path d="m44.1 51.85 2.6-5.05q6.85 3.3 14.75 4.35l.5 3.9q-10.3.05-17.85-3.2" fill="#362933"/><path d="m46.7 46.8 4.55-9.05q4.95 2.15 9.3 8.5l.9 4.9q-7.9-1.05-14.75-4.35" fill="#56403f"/><path d="M41.05 29.8q-.5-3.4-2.85-4.8 1.4-.15 2.65 2.35 3.6-.45 8.05 4.3 2.9 2.95 3.2 8.7.4 4.95-2.65 8.4L46.8 51q2.85 9.45 2.15 11.85-5.2-4.2-12.8-8.6-7.4 1.1-10.3-3.2-12.5.6-12.45-9.6l.05-.55.45.7v.05q-.45 8.6 10.45 8.95h1.7l3.45-1.25 1.85-.95q2.7-1.55 4.9-3.85l1-1.15-.1-.7q7.3 2.5 9.4 4.45l-1.25-.5q-1.95 3.6-7.4 4.2-5.5.55-6.95-1.4l-.65.35-.7.3-3.3.85q2.2 3.2 10.25 3.05h.15q6.7 3.55 11.7 7.75l.05-.7q-.05-3.6-2.15-9.95-2.5 1.4-3.05 1.15 3.3-1.65 5.4-3.95l1.7-2.35.8-1.7q.65-2.95.45-5.45-.45-4.7-3.9-7.9l-2.3-1.8q-2.3-1.35-4.4-1.3l.2.6v.05q1.85 1 3.2 2.25 3.25 3 3.45 7.2.1 2.2-.65 4.75l.75.55-.2.35-8.2-4.35q1-2.05 1.4-4.45v-.1q.4-2.8.1-4.85m.5 1.65q.1 2.05-.3 4.15l-1.05 3.45 6.65 3.3q.4-2 .4-3.75 0-2.65-1-4.75-1.45-3.05-5-4.85l.3 2.45m-4.8 18.8h.2l3-.35 1.75-.55.15-.1q2.1-1 3-2.85-3.3-1.75-6.95-3-1.15 1.6-2.85 3.1l-2.1 1.65-1.5 1q1.15 1.25 5.3 1.1" fill="#612718"/><path d="M13.9 41.65v-.05l-.45-.7q4.1 3.25 9.3 3.15 6.55-2.5 11.35-9.25 1.8-1.7 1.4-7.15.85 3.2.35 5.3-.35 1.45-1.4 2.35l-1.75 2.2-3.7 3.7q-2.6 2.15-5 2.9l-.15.05q-.85.55-1.95.7l-2-.05q2-.55-.8-.75l-1-.15q-2.25-.5-4.2-2.25" fill="#1d0901"/><path d="M38.2 25q2.35 1.4 2.85 4.8l-5.55-2.15v-.05q1.4-2.5 2.7-2.6m6.2 5.7q-1.35-1.25-3.2-2.25v-.05l-.2-.6q2.1-.05 4.4 1.3l2.3 1.8-3.3-.2" fill="#eede8f"/><path d="M47.85 37.9q-.2-4.2-3.45-7.2l3.3.2q3.45 3.2 3.9 7.9l-3.75-.9" fill="#fdf7c1"/><path d="m35.5 27.65 5.55 2.15q.3 2.05-.1 4.85v.1l-5.1-1.8q.5-2.1-.35-5.3" fill="#fdf6be"/><path d="M40.95 34.75q-.4 2.4-1.4 4.45l8.2 4.35.2-.35-.75-.55q.75-2.55.65-4.75l3.75.9q.2 2.5-.45 5.45l-.8 1.7Q39.65 41.3 32.7 37.5l1.75-2.2q1.05-.9 1.4-2.35l5.1 1.8" fill="#edb765"/><path d="m50.35 45.95-1.7 2.35-2.1-1.15q-2.1-1.95-9.4-4.45l.1.7-1 1.15q-4.05-.4-7.25-3.35l3.7-3.7q6.95 3.8 17.65 8.45" fill="#db8c3a"/><path d="M48.65 48.3q-2.1 2.3-5.4 3.95.55.25 3.05-1.15 2.1 6.35 2.15 9.95-4.8-7.25-10.1-9.25-5.95.95-8.05-2l.65-.35q1.45 1.95 6.95 1.4 5.45-.6 7.4-4.2l1.25.5 2.1 1.15m-12.4-3.75q-2.2 2.3-4.9 3.85-4.55-1-7.35-4.3 2.4-.75 5-2.9 3.2 2.95 7.25 3.35" fill="#a14f2e"/><path d="m48.45 61.05-.05.7q-5-4.2-11.7-7.75h-.15l-1.7-1.6q-3.05.2-5.25-2.3l.7-.3q2.1 2.95 8.05 2 5.3 2 10.1 9.25M31.35 48.4l-1.85.95q-5.75-1.05-7.6-4.5 1.1-.15 1.95-.7l.15-.05q2.8 3.3 7.35 4.3" fill="#e19c43"/><path d="M36.55 54q-8.05.15-10.25-3.05l3.3-.85q2.2 2.5 5.25 2.3l1.7 1.6m-7.05-4.65-3.45 1.25h-1.7q-5.1-2.55-6.25-6.7l1 .15q2.8.2.8.75l2 .05q1.85 3.45 7.6 4.5" fill="#f1c574"/><path d="M24.35 50.6q-10.9-.35-10.45-8.95 1.95 1.75 4.2 2.25 1.15 4.15 6.25 6.7" fill="#fdf6c0"/><path d="m32.95 48.15 3.8 2.1q-4.15.15-5.3-1.1l1.5-1" fill="#db1449"/><path d="m41.7 49.35-1.75.55-3 .35h-.2l-3.8-2.1 2.1-1.65 6.65 2.85" fill="#a51236"/><path d="m41.7 49.35-6.65-2.85q1.7-1.5 2.85-3.1 3.65 1.25 6.95 3-.9 1.85-3 2.85l-.15.1" fill="#5a051c"/><path d="m41.25 35.6 6 3q0 1.75-.4 3.75l-6.65-3.3 1.05-3.45" fill="#970c2e"/><path d="M41.25 35.6q.4-2.1.3-4.15l4.7 2.4q1 2.1 1 4.75l-6-3" fill="#d90e42"/><path d="m46.25 33.85-4.7-2.4-.3-2.45q3.55 1.8 5 4.85" fill="#a91337"/><path d="M6.6 7.65q4.6-.45 10.15 1.2.45-4.25 2.1-6.75l.8-.25L21.05 0q6.7 1.55 9.25 4.05-.2 5.35 1.35 12 7.25 2.7 9.55 6.6-.1 3.45-8.6 8.95l-.4-.05-.3-.1v.1l-11.9-.5q-.05-2.45 1.3-5.45-4.75.05-6.8-1.05 1.35 8.2.75 8.6-9.85-.4-13.75-4.25Q-.85 25.3.45 15.05l4.9.65q-.2-4.85 1.25-8.05M5.2 16.3l-4.5-.65q0 8.9 1.35 13.15 4 2.75 12.4 3.65l.5.05q-1.3-11.9-2.5-13.05-1.2-.95-2.7-1.65-2-1-4.55-1.5m2.95-8.35h-1.2q-1 2.25-.85 8.05l.2.05q5.4 1.35 6.65 3.4l.15.3L14.35 24q2.75 1.1 5.65 1.15l1.6-.05q.5-1.2.95-1.4-.2-4.95-1.55-8.5l-.6-1.4-.5-.9q-1-1.8-2.4-3.05-2.7-1.35-6.8-1.75l-2.55-.15m11.5-5.2-.8-.05Q17.4 5.15 17.2 8.95l.75.65 2.45 2.85q2 3.1 2.05 7.05l1.95 1.25 2.25-2.45q2.1-1.95 4.05-2.4l-.1-1.55q-.55-6.9-1.9-8.45-2.9-1.6-5.35-2.35L21.45 3h-.2l-1.6-.25m19.1 18.05q-5.05-4.2-8-4.35h-.25Q22.95 20.7 20.7 30l-.15.65.5-.05q5.5-.9 10.85.85 6.85-4.7 8.95-8.8l-.1-.05-2-1.8m-15.95-.6.25 2.2 1-1.25-1.25-.95" fill="#947276"/><path d="M14.45 32.45q-8.4-.9-12.4-3.65Q.7 24.55.7 15.65l4.5.65q1.75.5 2.45 2.35.65 1.85.95 5.95l4.4 5.95 1.45 1.9M6.3 16.05 6.1 16q-.15-5.8.85-8.05h1.2q3.25 1.5 6.05 5.45-.1 2.85-.9 4.5-2.1-1.25-7-1.85M17.95 9.6l-.75-.65q.2-3.8 1.65-6.25l.8.05q3.3 3.3 4.5 6.2 1.25 2.25-.85 4.45-2.75-2.7-5.35-3.8M20.7 30q2.25-9.3 9.8-13.55h.25q2.95.15 8 4.35l-6.55-.35q-7.05 4.7-11.5 9.55" fill="#fdfdfd"/><path d="M13 30.55 8.6 24.6q-.3-4.1-.95-5.95-.7-1.85-2.45-2.35 2.55.5 4.55 1.5 2.9 3.35 3.25 12.75m-6.7-14.5q4.9.6 7 1.85.8-1.65.9-4.5-2.8-3.95-6.05-5.45l2.55.15q4.2 1.2 9.2 4.8l.5.9q-6.2-4.25-5.55-2.85 4.3 3.15 3.25 10.8-2.65-2.25-5.15-2.3-1.25-2.05-6.65-3.4m13.35-13.3 1.6.25h.2q2.5 2.35 3.8 4.45 1 1.6 1.25 3.1v1.1l-.1.75-2.7 2.5q-1.75-1.8-3.3-2.45L17.95 9.6q2.6 1.1 5.35 3.8 2.1-2.2.85-4.45-1.2-2.9-4.5-6.2M20.7 30q4.45-4.85 11.5-9.55l6.55.35 2 1.8-2.45-.35-6.95.2L21.8 30l-.75.6-.5.05.15-.65" fill="#dacbc3"/><path d="M14.45 32.45 13 30.55q-.35-9.4-3.25-12.75 1.5.7 2.7 1.65 1.2 1.15 2.5 13.05l-.5-.05M20.4 13.8l.6 1.4-2.2-.85q1.9 3.15 1.2 10.8-2.9-.05-5.65-1.15l-1.25-4.25-.15-.3q2.5.05 5.15 2.3 1.05-7.65-3.25-10.8-.65-1.4 5.55 2.85M21.45 3l1.9.55q5.05 2.9 6.3 7.85-.7-1.5-1.6-2.45l-2.8-1.5q-1.3-2.1-3.8-4.45m.35 27 9.55-7.55 6.95-.2L34.2 26q-3.8-.35-12.4 4" fill="#bba19c"/><path d="m26.65 18.3-2.25 2.45-1.95-1.25q-.05-3.95-2.05-7.05 1.55.65 3.3 2.45l2.7-2.5.1-.75q.95 1.65.15 6.65" fill="#c7afa8"/><path d="m30.6 14.35.1 1.55q-1.95.45-4.05 2.4.8-5-.15-6.65v-1.1q-.25-1.5-1.25-3.1l2.8 1.5q.9.95 1.6 2.45l.95 2.95" fill="#a57a86"/><path d="M10.7 8.1q4.1.4 6.8 1.75 1.4 1.25 2.4 3.05-5-3.6-9.2-4.8" fill="#fefefe"/><path d="M21 15.2q1.35 3.55 1.55 8.5-.45.2-.95 1.4l-1.6.05q.7-7.65-1.2-10.8l2.2.85" fill="#a97f89"/><path d="M23.35 3.55q2.45.75 5.35 2.35 1.35 1.55 1.9 8.45l-.95-2.95q-1.25-4.95-6.3-7.85" fill="#dbccc4"/><path d="m40.75 22.6.1.05q-2.1 4.1-8.95 8.8-5.35-1.75-10.85-.85l.75-.6q8.6-4.35 12.4-4l4.1-3.75 2.45.35" fill="#986c7c"/></g><g id="D" fill-rule="evenodd"><path d="M35.9 33.4q-1.75 1.25 1.95 7.95l-.5.5q-3.35-6-2.2-8.25l.75-.2M9.15 43.2l-.4-.25Q13.1 35.2 14 32.7l.4.1q-.65 2.5-5.25 10.4" fill="#1a0802"/><path d="M23.2 47.55q-6.65 0-14.05-4.35 4.6-7.9 5.25-10.4 1.05.3 2.9 1.45l1.2-1.15q7 2.25 4.7 14.45" fill="#6b5f57"/><path d="M34.5 44q-5.35 3.55-11.3 3.55 2.3-12.2-4.7-14.45 1.4-1.35 2.8-2.15l4.05 4.1 8.4-1.15.75 10.1" fill="#362a34"/><path d="m31.85 30.6.05.65.75-.15v-.45l.75-.1.05.5.9-.1.95-.1 1.4-.15.2.1.6 2.15-1.6.4v.05l-.75.2-1.4.3-8.4 1.15-4.05-4.1q-1.4.8-2.8 2.15l-1.2 1.15q-1.85-1.15-2.9-1.45l-.4-.1-1.1-.75 2.05-1.5.4.3.55.4.35.25.75.55 4.45-2.7.35-2.6.2.3v2.4l-.15 1.5 3.7 3.8 3.55-.6 2.55-.45 3.65-.65 1.6-.3q.2-1.3-.95-1.5l-.9.1-3.4.5-2.9.8-2.45.85q-2.85-1.5-3.9-4 .85.45 3.15 3l.45.5.75-.4q2.2-.9 4.35-.85l.05-.95.7-.1m-10.25-1q-2.15 1.65-4.55 3l-2.15-1.55-.95.75 3.1 1.9 4.25-3.35.3-.75" fill="#501d13"/><path d="M28.75 32.55q.55.2.35 1.5l-3.55.6-3.7-3.8.15-1.5.4.05q1.05 2.5 3.9 4l2.45-.85M21.6 29.6l-.3.75-4.25 3.35-3.1-1.9.95-.75 2.15 1.55q2.4-1.35 4.55-3" fill="#ecdb89"/><path d="M29.1 34.05q.2-1.3-.35-1.5l2.9-.8v1.85l-2.55.45m5.95-2.8.9-.1q1.15.2.95 1.5l-1.6.3-.25-1.7" fill="#d47a34"/><path d="M31.65 33.6v-1.85l3.4-.5.25 1.7-3.65.65" fill="#873823"/><path d="M34.95 22.1 40.2 13l2.3-1.7v.4l-9.95 15.85.1 3.1v.45l-.75.15-.05-.65-.2-2.8 3.3-5.7" fill="#803522"/><path d="m34.95 22.1-3.3 5.7.2 2.8-.7.1v-2.85Q33 24 34.95 22.1m-2.3 8.55-.1-3.1L42.5 11.7l-.1 1.35-9.3 14.45.3 3.05-.75.1m7.9-9.4L36.4 30.5l.3.2-1.4.15-.05-.5 5.3-9.1" fill="#170701"/><path d="m40.2 13-5.25 9.1Q33 24 31.15 27.85v2.85l-.05.95q-2.15-.05-4.35.85 2.95-2.1 2.95-5.9-4.95.15-6.6-.85l.05-.1q8.5-6.3 17.05-12.65m2.2.05q-.2 3.9-.8 5.55-5.7 7.85-7.25 12.35l-.9.1-.05-.5-.3-3.05 9.3-14.45" fill="#4a0419"/><path d="M34.35 30.95q1.55-4.5 7.25-12.35l-1.05 2.65-5.3 9.1.05.5-.95.1" fill="#740624"/><path d="M37.35 41.85 34.5 44l-.75-10.1 1.4-.3q-1.15 2.25 2.2 8.25" fill="#533e3f"/><path d="m22.4 29.4-.4-.05V27.2q1.35 1.2 3.9.95.4.6.55 4.15l-.9.1q-2.3-2.55-3.15-3m-4.85-.5q1.6-3 3.05-3.9l1.2 1.65-.35 2.6-4.45 2.7-.75-.55q.65-1.75 1.3-2.4v-.1" fill="#d10c3c"/><path d="M23.1 25.75q1.65 1 6.6.85 0 3.8-2.95 5.9l-.75.4-.45-.5.9-.1q-.15-3.55-.55-4.15-2.55.25-3.9-.95v-.25l-.2-.3L20.6 25q-1.45.9-3.05 3.9l-.35-6.4 5.9 3.15-.05.05.05.05" fill="#890a28"/><path d="m16.8 22.25.4.25.35 6.4v.1q-.65.65-1.3 2.4l-.35-.25.4-1q.45-1.05.95-1.55l-.45-6.35m-1.85 8.2.5-1.65.35-.3.45-.4-.2-2.55.85 2.6q-.85.65-1.4 2.05l-.15.55-.4-.3" fill="#1e0403"/><path d="m15.5 30.2.8-.05-.4 1-.55-.4.15-.55" fill="#f0de8c"/><path d="m14.65 21.1 2.15 1.15.45 6.35q-.5.5-.95 1.55l-.8.05q.55-1.4 1.4-2.05l-.85-2.6-.45-1.45-.95-3" fill="#e08f3f"/><path d="m15.6 24.1.45 1.45.2 2.55-.45.4-.2-4.4" fill="#910b2c"/><path d="m12.5 20 2.15 1.1.95 3 .2 4.4-.35.3-.1-2.25Q13.5 23.05 12.5 20" fill="#190802"/><path d="M42.5 11.3 40.2 13q-8.55 6.35-17.05 12.65h-.05l-5.9-3.15-.4-.25-2.15-1.15L12.5 20Q9 9.1 16.35 2.9L42.2 0q.35 6.8.3 11.3" fill="#3b2e36"/><path d="M40.2 46.05q-3.6-3.4-5.3-10l-1.5 1.55v.1l-.15 4.15q-5.4 3.45-9.95 4.25-6.35 1.1-10.95-3l-.45-.45q.2-2.05 1.15-4l-1.1-.95L.9 58l-.9-.75 12-20.3q.85.15 1.5 1.7-.75 3-.8 3.95 6.05 4.5 15.9 1.15 2.2-.75 4-2.25l-.15-4.1 2.85-2.45q.65 3.55 4.45 9.5l.45 1.6" fill="#210e06"/><path d="M12.35 43.1q4.6 4.1 10.95 3L7.2 51.15l.15-.2 5-7.85" fill="#55574b"/><path d="m.9 58 11.05-20.3 1.1.95q-.95 1.95-1.15 4l.45.45-5 7.85-4.8 7.8-.9-.15L.9 58" fill="#6d5e43"/><path d="M33.4 37.7v-.1l1.5-1.55q1.7 6.6 5.3 10l1.65 6.35-1.05 1.05q-3.65-9.9-7.4-15.75" fill="#372b2a"/><path d="M33.4 37.7q3.75 5.85 7.4 15.75-10.5 9.25-38.25 5.3l4.8-7.8-.15.2 16.1-5.05q4.55-.8 9.95-4.25l.15-4.15" fill="#2d1e21"/></g><g id="E" fill-rule="evenodd"><path d="m23.55 73.1-.45-.1Q11.1 62.25 5 51.6-.9 41.3.15 41.9l.05.05Q15.85 56.35 22 58.1l1.1 1.65-3.55-1.85L16.4 56l-4.15-2.85q-5.9-4.25-11-9.55 7.95 15.2 22.3 29.5" fill="#906b72"/><path d="m26.25 73.6-2.7-.5Q9.2 58.8 1.25 43.6q5.1 5.3 11 9.55 7.3 15.2 14 20.45" fill="#fdfdfd"/><path d="M12.25 53.15 16.4 56q4.15 10.85 9.85 17.6-6.7-5.25-14-20.45" fill="#dcccc3"/><path d="m27.7 73.8-1.45-.2q-5.7-6.75-9.85-17.6l3.15 1.9q1.95 7.05 8.15 15.9" fill="#c6afa7"/><path d="m23.1 59.75 8.6 14.55-4-.5q-6.2-8.85-8.15-15.9l3.55 1.85" fill="#a97f89"/><path d="M28.15 85.25Q24.7 83.65 22 80.2q-4-4.35-5-6.95l-.35-1.3q-1.8-6.8-6.65-8.15-2.1-1.35 21.1-.45h.4L36 64.5l-3.8.3-20.65-1.05q4.95 2.8 5.4 8.45L18 74l2.55 3.65q2.2 2.75 4.45 4.2h.05q3.15.6 5.9 0l-.4.75q-2.45.35-5.15-.05-.25.6 3 2.55l-.25.15" fill="#5b041c"/><path d="m106.9 58.95-2.45-.35-6.35.25-1.1.2-.2.05-.85.2-38.15 3.3-5.7.5h-.2l-1 15.9q5.85 7.15 17.05-.15l-1.35-.05q-4.45-.35-7.25-2.9l.15-.85.05-.35q3.75 5 11.9 2.1l-.7.7q7.3.45 13.5-.25 20.4-2.35 28-17.65l.75-1.7q-1.9 1.05-4.5 1.1h-1.35l-.25-.05m-75.4 4.4q32.75-6.6 65.5-5.25l7.4.15q5.9.9 9.6-1.15-8.45 23.85-43.75 20.85l-1.55 1.3q-3.2 2.45-6.7 3.6-9.15 1.3-11.55-3.45l.95-16.25-.25.05-1.1.1-2.2.2h-.15l-1.45.1-3.25.3-2.7.2-4.3.4-4.5-1.15" fill="#150400"/><path d="m36 64.5 4.3-.4-7.8 6.85-1.75 1.5-2.7 2.4Q20.3 76.3 18 74l-1.05-1.8q-.45-5.65-5.4-8.45L32.2 64.8l3.8-.3" fill="#f5c7a1"/><path d="M18 74q2.3 2.3 10.05.85l2.7-2.4-1.35 3.25q-.25 2.55-8.85 1.95L18 74" fill="#ec9288"/><path d="m30.75 72.45 1.75-1.5-.3.95-.8 2.7-.15.5q-.55 7.05-6.2 6.75H25q-2.25-1.45-4.45-4.2 8.6.6 8.85-1.95l1.35-3.25" fill="#e35c68"/><path d="M25.05 81.85q5.65.3 6.2-6.75l.15-.5.3 3.8q.1 1.75-.75 3.45-2.75.6-5.9 0" fill="#aa335b"/><path d="m30.55 82.6-2.15 2.5q-3.25-1.95-3-2.55 2.7.4 5.15.05" fill="#a73159"/><path d="m36.2 85.75-.2.15q-5.9 4.8-11.5 1.45 2.65-1.05 3.65-2.1l.25-.15 2.15-2.5.4-.75q.85-1.7.75-3.45l-.3-3.8.8-2.7.1 4.75q.75 7-6.45 10.85l3.45.6q5.3-.2 10.3-6.9l6.65-17.6 1.45-.1-7.45 17.95-2.7 3.05-1.35 1.25" fill="#63031c"/><path d="m40.3 64.1 2.7-.2-5.7 13.3q-1.7 6.2-8 10.9l-3.45-.6q7.2-3.85 6.45-10.85l-.1-4.75.3-.95 7.8-6.85" fill="#e77d7a"/><path d="m43 63.9 3.25-.3-6.65 17.6q-5 6.7-10.3 6.9 6.3-4.7 8-10.9L43 63.9" fill="#d84f5d"/><path d="M47.7 63.5h.15l2.2-.2-6.9 17.95q-2.4 2.8-5.6 3.25l2.7-3.05L47.7 63.5" fill="#ad3b60"/><path d="M51.15 63.2 44.2 82.05q-5.1 3.05-8 3.7l1.35-1.25q3.2-.45 5.6-3.25l6.9-17.95 1.1-.1" fill="#630620"/><path d="m66.6 78.8 1.35.05q-11.2 7.3-17.05.15l1-15.9h.2l1.4 11.8q6.2 6 13.1 3.9" fill="#e37171"/><path d="m59.5 75.05-.15.85q2.8 2.55 7.25 2.9-6.9 2.1-13.1-3.9l-1.4-11.8 5.7-.5-.6 8.6 2.3 3.85" fill="#d44455"/><path d="M84.25 77.25q-6.2.7-13.5.25l.7-.7q-8.15 2.9-11.9-2.1l-.05.35-2.3-3.85.6-8.6 38.15-3.3v.05q-4.55 1.6-8.9 7.25h-.15l-1.15 4.35v.15l-1.5 6.15" fill="#99264f"/><path d="m106.9 58.95.25.05-.85 1.7 2.2-1.7q2.6-.05 4.5-1.1l-.75 1.7q-5.05 7.05-26.5 11.35l1.15-4.35h.15q6.65-.75 13.85-5 2.55-1.65 6-2.65" fill="#e37071"/><path d="m96.8 59.1.2-.05 1.1-.2 6.35-.25 2.45.35q-3.45 1-6 2.65-7.2 4.25-13.85 5 4.35-5.65 8.9-7.25l.85-.25m10.35-.1h1.35l-2.2 1.7.85-1.7m5.1.6q-7.6 15.3-28 17.65l1.5-6.15v-.15q21.45-4.3 26.5-11.35" fill="#d34153"/><path d="M53.1 75.1q.6-1.4.45-2.6.7-2.1.2-5.2l-.5-2.3.4-.05Q55.3 72 53.4 75.5q-.8 2.95-7.6 8.15h-.3l-.15-.45h.3q3.6-2.85 5.55-5.2l1.9-2.9" fill="#680822"/><path d="m33.25 75.85 1.9 2.7q.9 1.55 2.45 2.6 2.8 1.95 7.75 2.05l.15.45q-8.2-.25-10.6-4.2l-.55-1.55-1.2-1.95.1-.1" fill="#b33e63"/><path d="m53.75 67.3-2.45 3.05q-5.5-.35-8.5-2.3-2.05-.4-4.7 3l-4.85 4.8-.85-1.2q-1.65-3-2.8-6.15Q56.15 49 53.25 65l.5 2.3" fill="#e4ada5"/><path d="M53.75 67.3q.5 3.1-.2 5.2.15 1.2-.45 2.6-14.2-6-17.95 3.45l-1.9-2.7 4.85-4.8q2.65-3.4 4.7-3 3 1.95 8.5 2.3l2.45-3.05" fill="#ffd8bd"/><path d="M35.15 78.55Q38.9 69.1 53.1 75.1L51.2 78q-12.55-5.5-13.6 3.15-1.55-1.05-2.45-2.6" fill="#ffe7d3"/><path d="M51.2 78q-1.95 2.35-5.55 5.2h-.3q-4.95-.1-7.75-2.05Q38.65 72.5 51.2 78M47 79.3l.1-.5h-.55l-.1.4-1.05-.05q-2.15 1.4-3.75 1.3 1.25.95 3.8-1L47 79.3" fill="#fff8ee"/><path d="m47 79.3-1.55.15q-2.55 1.95-3.8 1 1.6.1 3.75-1.3l1.05.05.1-.4h.55l-.1.5" fill="#b75570"/><path d="m30.25 29.5-.4-.1v-.1l-1.05-.7q.85-7.1-3.9-13.1-.75-2.35.5-3.35 8.65-.75 17.55 10.25 2.85-4.15 3.3-9.15-1.3-2.85-.9-4.8 1.75-1.6 3.25-.85 4.85 4.3 6.85 13.35Q65.8 17.5 71.7 12 76 7.4 75.1 1q1.6-1.75 3.4-.45Q81.35 2 82.8 17.7L80.1 19l.1 1.2-.6-.2q.15-9.85-1.95-15l-.15 1.75Q76.3 14.3 65.75 19.8q-9.4 3.2-14.95 6.85-5.85 3.85-5.3 11.65v.45l.1.65.15.15-.15.1q-1-.8-1.05-1.35-.85-8.3 8.4-13.75.3-5.2-2.85-10.25l-1.85-2.55q.8 8.9-5 14.9Q35.9 34.3 33 41.6q-2.15 5.25-2 10.35-.45-2.85-.15-5.6 1.05-9.7 10.9-18.9l-.05-.1q-2.4-6.1-7.6-9.45-2.65-1.75-6-2.75 4.35 5.25 2.15 14.35" fill="#b33e63"/><path d="M80.2 20.2q.15 5.55-3.05 13.25 2.15-1.7 9-1.1 5.75 2.45 8.25-.05l.05 1.1q4.2-2.8 5.6-1.4-3.05.55-3.6 4.15 5.05-.95 12.2-4.4 2.25-1.55 3.45-.3 1.3 12.5-6.85 21.35l-3.65.75L97 58.3Q83.65 71.2 67.9 70.35l.15-.9q19.2.2 31.2-14.75l.35-.45 1.1-1.05q8.4-8.2 8.95-19.25-7.1 4.9-15.25 5.35-9.75 1.8-16.95 7.1l-1 .8.1-.2.15-.15v-.05l.1-.1.35-.5q3.15-3.75 11.1-6l1.45-1.1q2.85-2.35 4.2-5.55-2.15 1.35-5.95.3l-2.4-.8q-4.25-.6-8.8 1.15l-.3.1Q73.2 40 70.2 43.35l-.05-.05 1.05-1.75-.05-.05.35-.4.4-.7 3.8-6.2q3.4-6.5 3.9-14.2l.6.2M17.65 56.15l-.1.05q-5.1-7.15-.95-17.95 3.3-4.95 2.25-10.75l.9.75-.2.2.2-.15q2.25 2.25 3.4 7.35.2 4.7 1.55 6.55l2.5-6.15q1.8-3.1 2.4-4.95l.3.1v.05q-1.05 4.45-2.4 5.55l-2.85 6.55-.4-.6q-1.2-1.95-1.65-6.7l-.35-1.25q-1.2-3.7-2.7-6.35.45 4.15-1.05 7.4-5.6 11.05-.85 20.3" fill="#640620"/><path d="m18.55 56.8-.8-.5-.1-.15q-4.75-9.25.85-20.3 1.5-3.25 1.05-7.4 1.5 2.65 2.7 6.35l-2.15 5.8-.05-.4q-1.6 3.65-1.5 8.25v.25q-1.05.35 0 8.1M29.9 31.2l.25-1.15.1-.55q2.2-9.1-2.15-14.35 3.35 1 6 2.75 7.15 10-3.7 22.65Q23 47.1 24.75 59.8h-.1q-3.85-6.8 0-16.45l2.85-6.55q1.35-1.1 2.4-5.55v-.05M33 41.6q2.9-7.3 10.25-14.95 5.8-6 5-14.9l1.85 2.55q.15 10.9-7.4 17.25-.65 4.45-4.15 10-4.15 8.3-3.95 19.1-3.7-10.6-1.6-19.05m12.75-2.05-.15-.15-.1-.65v-.45q-.55-7.8 5.3-11.65Q56.35 23 65.75 19.8 76.3 14.3 77.5 6.75q-.15 14.4-18.9 20.6Q49.4 31 48.5 43l-2.75-3.45M21.25 58.4q-2.6-9-1.35-16.25.2 3.1 2.5 6.5-1.25 4.45.2 8l.15.3q-1 2.65.5 5.75l-2-4.3" fill="#ffefc7"/><path d="M34.1 17.9q5.2 3.35 7.6 9.45l.05.1q-9.85 9.2-10.9 18.9-2.75 1.85-3.1 13.85 4.25 8.7 8.5 11.65l-.1.15q-5.25-2.85-8.9-9.15 1.1 3.25 3.3 5.45-2.2-.65-6.15-3.6l-1.15-2q-1.5-3.1-.5-5.75.65 1.5 1.9 2.85l.15.25-.05-.25Q23 47.1 30.4 40.55 41.25 27.9 34.1 17.9M31 51.95q-.15-5.1 2-10.35-2.1 8.45 1.6 19.05-.2-10.8 3.95-19.1 3.5-5.55 4.15-10 7.55-6.35 7.4-17.25 3.15 5.05 2.85 10.25Q43.7 30 44.55 38.3q.05.55 1.05 1.35l.15-.1L48.5 43q.9-12 10.1-15.65 18.75-6.2 18.9-20.6L77.65 5q2.1 5.15 1.95 15-.5 7.7-3.9 14.2l-3.8 6.2q2.85-7.35 4.45-12.9 1.45-5.3 1.8-8.95-3.55 7.8-10.3 13.3-7 13.6-12.05 11.2-2.9-2.05 4.9-11.9-9.8 5.55-11 15.9l-5.2-5.45q-9.25 17.35-6.65 26.55l-.15.35q-7.05-6.7-6.7-16.55" fill="#f5c9a2"/><path d="m20.5 58.35-.15-.4-.3-.15q-1.4-4.95-1.5-9.1v-.25q-.1-4.6 1.5-8.25l.05.4q.7 4.3 2.5 6.9l1.65-4.75.4.6q-3.85 9.65 0 16.45-1.25-1.35-1.9-2.85l-.15-.3q-1.45-3.55-.2-8-2.3-3.4-2.5-6.5-1.25 7.25 1.35 16.25l-.75-.05" fill="#b63d63"/><path d="M54.25 67.15h-.05q-1.9-2.45-1.9-6.25l-6.85 9q-2.6-.5-2.65-6.6-3.2 2.45-5.85 10L33 70.75l.35 2.9q-8.65-3.7-12.85-15.3l.75.05 2 4.3 1.15 2q3.45 5.55 8.25 8.05l-.2-2.9-1.15-.9-.75-.65q-2.2-2.2-3.3-5.45 3.65 6.3 8.9 9.15l.05.05.15.1-.1-.3 1.45-3.35.15-.35q2.05-4.2 4.3-6.1l.9-.65h.05q-.05 3.05.95 6.45l.7 1.05.15.2.2.4 4.6-5.9 2.85-3.7q-.1 4.5 1.8 6.75l-.1.5" fill="#6c0624"/><path d="m20.05 57.8-1.5-1q-1.05-7.75 0-8.1.1 4.15 1.5 9.1m2.2-23 .35 1.25q.45 4.75 1.65 6.7L22.6 47.5q-1.8-2.6-2.5-6.9l2.15-5.8" fill="#f5c8a3"/><path d="M30.85 46.35q-.3 2.75.15 5.6-.35 9.85 6.7 16.55l-1.45 3.35Q32 68.9 27.75 60.2q.35-12 3.1-13.85m7 21.8q-2.6-9.2 6.65-26.55l5.2 5.45q1.2-10.35 11-15.9-7.8 9.85-4.9 11.9 5.05 2.4 12.05-11.2 6.75-5.5 10.3-13.3-.35 3.65-1.8 8.95-6.4 8.8-12.75 14.75Q55.55 49.2 48.45 49l-.15-.85q-3.85 4.55-6.15 13.9-2.25 1.9-4.3 6.1M24.4 64.7q3.95 2.95 6.15 3.6l.75.65 1.15.9.2 2.9q-4.8-2.5-8.25-8.05m18.65-3.35q2.15-5.2 4.6-7.25-2.65 7.4-2.9 14.8l-.7-1.05q-1-3.4-.95-6.45l-.05-.05" fill="#ed968c"/><path d="m49.15 53.05.2.95q1.25.75 2.7.95L49.7 63.6l-4.6 5.9-.2-.4-.15-.2q.25-7.4 2.9-14.8-2.45 2.05-4.6 7.25v.05l-.9.65q2.3-9.35 6.15-13.9l.15.85.7 4.05" fill="#a52d56"/><path d="M76.35 27.5q-1.6 5.55-4.45 12.9l-.4.7-.35.4-2.75 2.6Q58.2 53 49.15 53.05l-.7-4.05q7.1.2 15.15-6.75 6.35-5.95 12.75-14.75" fill="#dc5561"/><path d="m67.9 70.35-5.85-.8q-5.8-2.45-7.35-4.3v-5.2q3.35-4.6 9.2-10.6l3.35-3.35 1.8-1.75 1.1-1.05.05.05q3-3.35 6.25-9.05l.3-.1q-3.45 5.9-5.65 11-5.65 12.95-3.4 20.5 13.5 1.55 31.55-11-12 14.95-31.2 14.75l-.15.9" fill="#aa315a"/><path d="M62.05 69.55q-3.85-.8-7.8-2.4l.1-.5q-1.9-2.25-1.8-6.75l-2.85 3.7 2.35-8.65q5.05.65 11.85-5.5-5.85 6-9.2 10.6v5.2q1.55 1.85 7.35 4.3" fill="#e47676"/><path d="m89.7 39.1-1.45 1.1q-7.95 2.25-11.1 6l-.35.5-.1.1v.05l-.15.15-.1.2q-2.15 1.5-3.95 5.2 7.7-1.9-.75 7.1l10.15-3.95-4.2 3.25q12.15-2.8 26.1-11.55-1.15 2.85-3.1 5.95l-1.1 1.05-.35.45Q81.2 67.25 67.7 65.7q-2.25-7.55 3.4-20.5 2.2-5.1 5.65-11 4.55-1.75 8.8-1.15l2.4.8Q81.5 36.9 78.2 41q9.4-2.85 11.5-1.9" fill="#d74a5b"/><path d="m71.15 41.5.05.05-1.05 1.75-1.1 1.05-1.8 1.75-3.35 3.35q-6.8 6.15-11.85 5.5-1.45-.2-2.7-.95l-.2-.95Q58.2 53 68.4 44.1l2.75-2.6" fill="#ea8e86"/><path d="M87.95 33.85q3.8 1.05 5.95-.3-1.35 3.2-4.2 5.55-2.1-.95-11.5 1.9 3.3-4.1 9.75-7.15M76.45 47.2l1-.8q7.1-4.25 11.15-4.65-9.4 6.5-10.1 9.8 5.3-4.1 14.2-6.05 7.05-.4 12.5-2.95-.4 2.15-1.3 4.5l-.1.2Q89.85 56 77.7 58.8l4.2-3.25-10.15 3.95q8.45-9 .75-7.1 1.8-3.7 3.95-5.2" fill="#eb8c86"/><path d="M77.45 46.4q7.2-5.3 16.95-7.1 8.15-.45 15.25-5.35Q109.1 45 100.7 53.2q1.95-3.1 3.1-5.95l.1-.2q.9-2.35 1.3-4.5-5.45 2.55-12.5 2.95-8.9 1.95-14.2 6.05.7-3.3 10.1-9.8-4.05.4-11.15 4.65" fill="#f4c39d"/><path d="m30.6 74.25-5.65-.1.15.2q2.65 3.1 10.45 2l-.2 1.05q-8.55 1.4-13.7-3.75 7.05-1.2 11.05-.15l3.4-.05-.1.9-5.4-.1" fill="#ffebd6"/><path d="m25.1 74.35 5.5.3v-.4l5.4.1-.45 2q-7.8 1.1-10.45-2" fill="#e5aca5"/><path d="m25.1 74.35-.15-.2 5.65.1v.4l-5.5-.3m7.6-.85q-4-1.05-11.05.15 5.15 5.15 13.7 3.75l-.2.9q-9 .85-14.8-5.1 11.5-1.4 12.35.3" fill="#ae345c"/><path d="m32.1 74.5-.75-.15h-.1q-1.8-.6-3.55-4.5 3.65 2.5 8.45 4.05l.25.35q-3.7-.65-7.3-3 .15 1 1.95 2.4 2.65 1.05 5.15 1.15l.05.3-4.15-.6" fill="#6d0622"/><path d="M36.2 74.8q-2.5-.1-5.15-1.15-1.8-1.4-1.95-2.4 3.6 2.35 7.3 3l.4.55h-.6" fill="#c1477b"/><path d="m32.1 74.5 4.15.6q.2 2.1-2.1 1.8v-.05q1.25-.2 1.4-.7l-.1-.55-.5-.2q-1.4-.5-1.95.4l-.9-1.3" fill="#962581"/><path d="m37.85 76.2.15.25q-2.45 2.05-3.5 1.65l-.85-1.25.35.05h.15q1.35 1.2 3.7-.7" fill="#6d0329"/><path d="m36.25 75.1-.05-.3h.6l1.05 1.4q-2.35 1.9-3.7.7 2.3.3 2.1-1.8m-1.3.3.5.2.1.55q-.95-.35-.6-.75m-.75.4.25.05.1.2-.1.15-.25.1-.25-.1-.1-.15.1-.2.25-.05" fill="#fff"/><path d="M33.65 76.85 33 75.8q.55-.9 1.95-.4-.35.4.6.75-.15.5-1.4.7l-.15.05-.35-.05m.55-1.05-.25.05-.1.2.1.15.25.1.25-.1.1-.15-.1-.2-.25-.05" fill="#d768d1"/><path d="m47.95 67.75 3.1-2.15 2.3-1.15q.85-3.35.05-8.95-3.8 7.05-10.85 14.7l-.1 2.9 1.1-1.25.25.65-.05.05-.9.95-.65.65-.1-4.3q7.5-8.35 11.5-16.15 1.35 3.05.4 11.35-1.3.45-2.75 1.35h-.05l-.35.25q-1.3.8-2.7 1.95l-.2-.85" fill="#6a0720"/><path d="m47.95 67.75.2.85h-.05l-.3.25-4 3.65-.25-.65q2.1-2.35 4.4-4.1" fill="#941565"/><path d="m50.85 66.65.35-.25q1.15 6.2-3.5 7.55l-3.15.55q5.75-1.05 6.35-5.4l.05-1.25-.1-1.2" fill="#4d1e12"/><path d="m48.3 69.3.1.35q.25 1.4-.5 2.6-1.85 2-3.55.8 3.3.35 3.55-2.45l-.1-1.75.3-.25.1.25.1.45" fill="#5d1244"/><path d="m47.8 68.85.1 1.75-.5.15-.15-.15-.45-.1-.45.1-.2.35.2.3.3.15q-.65 1.1-1.3.95l-.15-.15-.3-.1-.35.1-.1.25.1.25-.4.2-.25-.2-.1-.2 4-3.65" fill="#8b2084"/><path d="M47.9 70.6q-.25 2.8-3.55 2.45l-.2-.15.4-.2.35.1.3-.1.15-.25v-.1q.65.15 1.3-.95h.15l.45-.15.2-.3-.05-.2.5-.15" fill="#d159cc"/><path d="m42.85 73.5.9-.95.15.15.25.2.2.15q1.7 1.2 3.55-.8.75-1.2.5-2.6 1.9-.95 2.5-.55-.6 4.35-6.35 5.4-1.35-.05-1.7-1" fill="#fff"/><path d="m50.95 67.85-.05 1.25q-.6-.4-2.5.55l-.1-.35q2.45-1.85 2.65-1.45" fill="#d5bbbe"/><path d="M48.15 68.6q1.4-1.15 2.7-1.95l.1 1.2q-.2-.4-2.65 1.45l-.1-.45-.05-.25" fill="#c29eac"/><path d="m43.55 71.85-1.1 1.25.1-2.9q7.05-7.65 10.85-14.7.8 5.6-.05 8.95l-2.3 1.15-3.1 2.15q-2.3 1.75-4.4 4.1" fill="#eb838d"/><path d="m46.65 71.4-.3-.15-.2-.3.2-.35.45-.1.45.1.15.15.05.2-.2.3-.45.15h-.15m-1.3.95v.1l-.15.25-.3.1-.35-.1-.1-.25.1-.25.35-.1.3.1.15.15" fill="#fdfcfe"/><path d="m73.45 57.9.1-.6q-2.15.2-5.5 1.75-13.1 5.75-13.5 8.95l-.3-1 .05-.2q4.1-4.85 13.65-8.5 5.75-2.2 6.3-1.5-.5 4.85-10.8 14.65Q58.3 75 53.15 72.5l.05-.15q4.4.9 7.8-.45 2.75-1.15 5-3.8 6.55-6.9 7.45-10.2" fill="#510118"/><path d="m54.25 67 .3 1q.4-3.2 13.5-8.95 3.35-1.55 5.5-1.75l-.1.6Q66.9 64.15 61 71.9q-3.4 1.35-7.8.45L54.25 67m2.2 2.05q-.5 1.3 4.3.7 3-4.9 9.75-10.35l1.05-.65-1.15.5q-4.5 2-7.45 4.05-9.2 5.6-6.5 5.75" fill="#ffcaaf"/><path d="M73.45 57.9q-.9 3.3-7.45 10.2-2.25 2.65-5 3.8 5.9-7.75 12.45-14" fill="#ffdcc7"/><path d="M70.5 59.4q-6.75 5.45-9.75 10.35-4.8.6-4.3-.7-1.05-.4 14.05-9.65" fill="#da9292"/><path d="M70.5 59.4q-15.1 9.25-14.05 9.65-2.7-.15 6.5-5.75 2.95-2.05 7.45-4.05l.1.15" fill="#b7596d"/><path d="M63.3 60.6q.2-8.65-4.95-13.25l-.3-.2-8.55-7.7-3.25-2.65q-5.55-4.35-10.9-7.65L35.1 29q-5.1-3.1-10.05-5.3-.75.05 2.5 2.95 6.35 6.2 11.45 14.1 5.6 7.85 9.8 16.75l.7 1.55 2.5-.2q2-.15 4 .05h.05q3.5.3 6.85 1.55v.1l-13.6-.9q-7.05-14.4-19.95-30.7l-3.9-.25q-1.95-2.4-4.85-4.95-.55-4.4 3.7-3.6L30.6 23l-.1 2.5q11.7 6.05 19.7 13.95 6 4.4 7.95 7.3 5.7 3.8 5.6 13.85h-.45" fill="#8a666d"/><path d="M48.8 57.5q-4.2-8.9-9.8-16.75-5.1-7.9-11.45-14.1-3.25-2.9-2.5-2.95Q30 25.9 35.1 29l.25.15q4 4.55 7.7 7.85 7.25 11.05 5.75 20.5" fill="#fdfdfd"/><path d="M62.9 60.45q-1.65-7.8-5.25-12.05l-3.75-4.15-4.4-4.8 8.55 7.7.3.2q5.15 4.6 4.95 13.25h-.05l-.35-.15M52 58.85l-2.5.2-.7-1.55q1.5-9.45-5.75-20.5-3.7-3.3-7.7-7.85 5.35 3.3 10.9 7.65Q56.65 48.75 52 58.85" fill="#dbccc3"/><path d="m49.5 39.45 4.4 4.8q2.5 6.1 2.1 14.65-2-.2-4-.05 4.65-10.1-5.75-22.05l3.25 2.65" fill="#c7b0a8"/><path d="m53.9 44.25 3.75 4.15q3.6 4.25 5.25 12.05-3.35-1.25-6.85-1.55H56q.4-8.55-2.1-14.65" fill="#a37985"/></g><g id="F" fill-rule="evenodd"><path d="m16.7 31.55-.05.1Q2.35 26.85 0 15q6.95 6.8 13.05 7.5v.1l.15.35-2.8-.2q-4-1.05-9.65-6.2 2.45 6.9 9.4 11.3 2.8 1.75 6.3 3.15l.25.55" fill="#6c3612"/><path d="M14.5 24.25Q10.75 14.1 8.8 2.3q2.55 6.75 8.3 14.5l.05 8.95-2.65-1.5m-4.1-1.5q2.15 4.95 1.5 5.1h-1.75q-6.95-4.4-9.4-11.3 5.65 5.15 9.65 6.2" fill="#fdf6bd"/><path d="m22.25 22.4-.1-.15q1.35-.65 2.85-.95.3 2.65 1.35 4.75l-4.1-3.65m1.9 12.8q-1.55 1-2.45 2.45-.45 1.3-1 .3-3.55-6.4-6.2-13.7l2.65 1.5q2.65 4.7 7 9.45M10.4 22.75l2.8.2L16.45 31q-3.5-1.4-6.3-3.15h1.75q.65-.15-1.5-5.1" fill="#efe196"/><path d="m20.75 21.5.55.65q1.15 4.55 6.25 11.5-2 .6-3.4 1.55-4.35-4.75-7-9.45l-.05-8.95 3.65 4.7" fill="#f1c776"/><path d="m21.3 22.15 1.2 1.4 3.55 4q3.15 3.25 6.35 5.4 3.85 2.4 6.8 2.85l-.3 1.2q-3.9 9.2-9.65 13.6h-.05q2.45-2.95 4.35-10.55L29.2 35.2l-1.35-1.65-.3.1q-5.1-6.95-6.25-11.5m5.45 5.4q-2.8-2.85-4.5-5.15l4.1 3.65Q25.3 23.95 25 21.3l4.95-.3q-1.55 5.45 1.15 9.65L28.2 29l-1.45-1.45" fill="#e19b43"/><path d="m20.8 20.25 1.2 1.4q2.85-2 9.35-1.1-.35 1.95.35 4.3 3.65 8 8.55 8.35l-.4 2.05-.45-.3.15-.8q-8.75-4.05-8.7-13.05l-.9-.1-4.95.3q-1.5.3-2.85.95l.1.15q1.7 2.3 4.5 5.15h-.7l-3.55-4-1.2-1.4-.55-.65.05-1.25" fill="#230901"/><path d="m20.8 20.25-.05 1.25-3.65-4.7Q11.35 9.05 8.8 2.3q1.95 11.8 5.7 21.95 2.65 7.3 6.2 13.7.55 1 1-.3.9-1.45 2.45-2.45 1.4-.95 3.4-1.55l.3-.1 1.35 1.65q1.45 2.2 2.35 5.7l-.25.25-2.75 2.45-.1.05-2.1-1.65.65 3.25.9 4.5.3 1.6.25 1.15Q36.1 47.2 38.9 37l.3-1.2.2-.85.45.3q-2.75 12.35-11.65 18-1.8-5.85-2.7-12.4.8 0 2.9 2.35l2.55-2.2q-.5-2.95-3.25-7-4.6 1.85-6.1 5.3-2.2-1.45-4.85-7.6l-.05-.15-.25-.55-3.25-8.05-.15-.35v-.1Q7.55 3.65 8.5 0q3.2 9.7 12.3 20.25m5.25 7.3h.7L28.2 29l4.2 3.95q-3.2-2.15-6.35-5.4" fill="#6b3218"/><path d="m29.95 21 .9.1q-.05 9 8.7 13.05l-.15.8-.2.85q-2.95-.45-6.8-2.85L28.2 29l2.9 1.65q-2.7-4.2-1.15-9.65" fill="#9e4a2d"/><path d="m31.3 41.15.25-.25q-.9-3.5-2.35-5.7l4.35 4.85q-1.9 7.6-4.35 10.55l-.1.1-.9.65-.3-1.6q2.15-2.3 3.4-8.6" fill="#edb766"/><path d="m28.2 51.35.9-.65.15-.1Q35 46.2 38.9 37q-2.8 10.2-10.45 15.5l-.25-1.15" fill="#e9d27d"/><path d="m27.9 49.75-.9-4.5q1.85-.7 1.45-1.6l.1-.05 2.75-2.45q-1.25 6.3-3.4 8.6" fill="#ead683"/><path d="M28.45 43.65q.4.9-1.45 1.6L26.35 42l2.1 1.65" fill="#fff8bd"/></g><g id="G" fill-rule="evenodd"><path d="m58.15 22.25 1.3-2.8Q52.25 25 46.1 26.8l-1.65.4-3.95.45-4.4 9.2q5.55-.3 12.6-5.3l4.8-3.8q2.95-2.75 4.65-5.5M47.2 0q-.45 12.95-6.55 27.35 11.5-2.45 19.95-10.1-1.5 8.7-12.75 16-5.4 3.9-12.15 4.35-5.3 9.8-6.4 9.6-4.4-4.6-10.45-5.95-2.95 3.6-4.45 8.35l3.75 2.45 4.65-3.1q-1.05 8.15-3.35 15.4Q6.5 59.1 0 41.95q15.45-8.4 12.8-16.6 6.25-1.6 14.6.95Q45.2 6.2 46.05 1.45 46.65-.1 47.2 0M21.25 32.35l3.05-2.95 2.35-2.5q-2.15-1-5.7-1.25-2.4-.2-5.45 0l-1.8.15h-.15q2.7 8.55-12.8 16.4l1.1 2.4 1.3 2.55.6 1.1 1.3 2.15 2.75 3.95 3.25 3.7q2.45 2.4 5.15 4.05l2.65 1.45 2.55-10.5.7-2.95-3.65 2.6q-1.4-.3-3.6-1.95L13.5 49.7q2.5-7.1 5.05-8.95l1.7.25 2.95.8q2.95 1.05 4.8 3l1.3 1.7q4.8-6.85 8.4-14.5 2.95-6.3 5.1-13.15l.55-1.85.7-2.55Q45.45 8.9 46.4 3q-4.15 6.85-8.7 12.8l-.45.6Q30.4 25.25 22.8 32.05l-2.1 1.9q-3.8 3.25-7.65 5.4l-1.2.4h-.15l.1-.2q4.45-2.6 9.45-7.2" fill="#512013"/><path d="m37.25 16.4.45-.6Q42.25 9.85 46.4 3q-.95 5.9-2.35 11.45-6.35 6-10.7 9.6 2.4-3.75 3.9-7.65" fill="#fcf2b1"/><path d="M46.1 26.8q6.15-1.8 13.35-7.35l-1.3 2.8q-6.2 4.9-12.65 7l.6-2.45m-21.8 2.6q.3-2.3-3.35-3.75 3.55.25 5.7 1.25l-2.35 2.5m-3.6 4.55 2.1-1.9q7.6-6.8 14.45-15.65-1.5 3.9-3.9 7.65 4.35-3.6 10.7-9.6l-.7 2.55q-12 13.6-23.1 24l-1.7-.25Q16 42.6 13.5 49.7l1.35 1.05-3.8 7.3-3.25-3.7 7.45-12.8h.05l5.4-7.6" fill="#e7d37d"/><path d="M58.15 22.25q-1.7 2.75-4.65 5.5l-4.8 3.8q-4.35 1.65-5.85 1.35l1.6-5.7 1.65-.4-.6 2.45q6.45-2.1 12.65-7M43.35 17l-.55 1.85Q31.95 34.05 23.2 41.8l-2.95-.8q11.1-10.4 23.1-24" fill="#ebb05f"/><path d="M48.7 31.55q-7.05 5-12.6 5.3l4.4-9.2 3.95-.45-1.6 5.7q1.5.3 5.85-1.35m-5.9-12.7Q40.65 25.7 37.7 32q-5.75 9.75-9.7 12.8-1.85-1.95-4.8-3 8.75-7.75 19.6-22.95" fill="#d57b33"/><path d="M37.7 32q-3.6 7.65-8.4 14.5L28 44.8q3.95-3.05 9.7-12.8" fill="#e9ad5d"/><path d="M21.25 32.35q.55-4.35-5.75-6.7 3.05-.2 5.45 0 3.65 1.45 3.35 3.75l-3.05 2.95" fill="#d68034"/><path d="M15.5 25.65q6.3 2.35 5.75 6.7-5 4.6-9.45 7.2l-.1.2q-3 .1-8.55 7.4l-1.3-2.55q2.75-.45 9-6.7 5.65-8.6 2.85-12.1l1.8-.15" fill="#8c3924"/><path d="M13.7 25.8q2.8 3.5-2.85 12.1-6.25 6.25-9 6.7l-1.1-2.4q15.5-7.85 12.8-16.4h.15" fill="#d78136"/><path d="M3.15 47.15q5.55-7.3 8.55-7.4h.15l-8.1 8.5-.6-1.1" fill="#d67f35"/><path d="m5.05 50.4-1.3-2.15 8.1-8.5 1.2-.4q3.85-2.15 7.65-5.4l-5.4 7.6h-.05L11.9 42.6q-3.15 2.75-6.85 7.8" fill="#ebb160"/><path d="M7.8 54.35 5.05 50.4q3.7-5.05 6.85-7.8l3.35-1.05-7.45 12.8" fill="#fcf2b0"/><path d="M14.85 50.75q2.2 1.65 3.6 1.95l3.65-2.6-.7 2.95q-.9.7-1.2-.15l-4 9.2q-2.7-1.65-5.15-4.05l3.8-7.3" fill="#e9ab5c"/><path d="m21.4 53.05-2.55 10.5-2.65-1.45 4-9.2q.3.85 1.2.15" fill="#d27331"/></g><g id="H" fill-rule="evenodd"><path d="M17.45 2.5q5.3 6-.2 13.7Q9.4 23.35 4.1 18.45q-1.9 1.3-3.95 1.3-.55-3.2.65-5.65-1.3-7.5 3.1-11 6.25-5.9 13.55-.6M10.3 19.4q3.95-.7 7.75-5.35 1.95-4.8 1-8Q17.8 1.9 11.6.4-.7 2.3 1.4 14.35.45 15.7.45 19.3l.45-.15 3-1.2.5.3q3 1.65 5.9 1.15" fill="#220e06"/><path d="m.9 19.15-.45.15q0-3.6.95-4.95Q-.7 2.3 11.6.4q6.2 1.5 7.45 5.65l-1.2-1.6q-1.05-1.15-2.3-1.7-2.7-1.25-6.45.05Q3.6 3.9 3.3 10q.05 2.4.75 2.95-2.4 3-3.15 6.2" fill="#fdfefe"/><path d="m4.4 18.25-.5-.3-3 1.2q.75-3.2 3.15-6.2 2.2 2.7 4.4 2.4-1.65 1.7-4.05 2.9" fill="#d1c0bb"/><path d="M19.05 6.05q.95 3.2-1 8-3.8 4.65-7.75 5.35 9.8-7.75 7.55-14.95l1.2 1.6" fill="#cbb7b4"/><path d="M10.3 19.4q-2.9.5-5.9-1.15 2.4-1.2 4.05-2.9 7.4-.85 6.85-8.6-1.3-.4-3.65-.05.4-2 3.9-3.95 1.25.55 2.3 1.7 2.25 7.2-7.55 14.95" fill="#b69e9d"/><path d="M11.65 6.7q-.15-.95.8-3.35-1.85-.7-3.35-.55 3.75-1.3 6.45-.05-3.5 1.95-3.9 3.95" fill="#d6cac5"/><path d="M9.1 2.8q1.5-.15 3.35.55-.95 2.4-.8 3.35 2.35-.35 3.65.05.55 7.75-6.85 8.6-2.2.3-4.4-2.4-.7-.55-.75-2.95.3-6.1 5.8-7.2M3.9 8.25Q3 13.3 7.5 14.6q7.45.15 7.3-7.45l-3.7.3q-.2-1.8.65-3.9-6.4-1-7.85 4.7" fill="#408176"/><path d="M3.9 8.25q1.45-5.7 7.85-4.7-.85 2.1-.65 3.9l3.7-.3q.15 7.6-7.3 7.45Q3 13.3 3.9 8.25" fill="#a3fcee"/></g><g id="I" fill-rule="evenodd"><path d="m36.9 14.05-.4.35-1.1.8q-1.95 1.15-4.35 1.15-3.5 0-5.95-2.4l-.1-.1-.15-.15q-2.2-2.3-2.2-5.5 0-3.45 2.45-5.8Q27.55 0 31.05 0T37 2.4q2.45 2.35 2.45 5.8 0 3.4-2.45 5.75l-.1.1m1.85-5.65v-.3q.05-3.05-2.2-5.25L34.3 1.3Q33.05.7 31.55.65h-.4q-3.25 0-5.6 2.2-1.5 1.45-2.05 3.3-.3.9-.3 1.95-.1 2.95 2 5.15l.1.1.35.35q1.75 1.5 4.1 1.8l1 .05q3.25 0 5.55-2.2 2.25-2.1 2.45-4.95" fill="#5a2b19"/><path d="M35.85 6.75Q35.65 8.7 34 10.1l-1.8 1.1-2 .35-1.3-.1q-1.4-.35-2.4-1.35-1.2-1.2-1.3-2.75V6.6q.15-2.05 1.8-3.55 1.65-1.45 3.9-1.45l1 .1q1.5.25 2.6 1.35 1.5 1.5 1.35 3.55v.15M25.8 6.4q-.1 1.8 1.1 3.05 1.3 1.3 3.2 1.3 1.9 0 3.3-1.3Q34.9 8.2 35 6.4q.15-1.75-1.15-3.05-1.2-1.25-3.1-1.25-1.9 0-3.4 1.25-1.4 1.3-1.55 3.05" fill="#509b8d"/><path d="M23.5 6.15q.55-1.85 2.05-3.3 2.35-2.2 5.6-2.2h.4l.35 1.05-1-.1q-2.25 0-3.9 1.45-1.65 1.5-1.8 3.55v.75l-1.7-1.2" fill="#fdf9d3"/><path d="M31.55.65q1.5.05 2.75.65 3.65 4.05 1.65 5.4l-.1-.1Q36 4.55 34.5 3.05q-1.1-1.1-2.6-1.35L31.55.65" fill="#e0b378"/><path d="m34.3 1.3 2.25 1.55q2.25 2.2 2.2 5.25v.3Q37 12.65 33.3 14.45q.4-1.65-1.1-3.25l1.8-1.1q1.65-1.4 1.85-3.35l.1-.05q2-1.35-1.65-5.4" fill="#975940"/><path d="M29.75 15.5q-2.35-.3-4.1-1.8 2.95-.3 3.25-2.25l1.3.1 2-.35q1.5 1.6 1.1 3.25l-3.55 1.05" fill="#de9b56"/><path d="m25.65 13.7-.35-.35-.1-.1q-2.1-2.2-2-5.15 0-1.05.3-1.95l1.7 1.2q.1 1.55 1.3 2.75 1 1 2.4 1.35-.3 1.95-3.25 2.25" fill="#eee19a"/><path d="M38.75 8.4q-.2 2.85-2.45 4.95-2.3 2.2-5.55 2.2l-1-.05 3.55-1.05q3.7-1.8 5.45-6.05" fill="#eddb89"/><path d="M36.9 14.05q1.95 1.1 3.1 2.45-.7-6.9 5.25-10.05Q52.4 1.7 60.4 9.5q8.75 8.65 3.15 21.55-1.55 2.35-2.65 2V33l-.05-.25q-1.6-6.55-4.7-9.1-5.05 6.95-11.85 1.6-2.35 9.15-10.7 8.5 0 3.8 5.2 8.75 2.65 1.65.2 2.3-23 .65-23.4-19.95-5.65.55-6.6-3.65-2.95 1.05-5 7.85l-.4-.15-.1-.1-.05.05q-2.4-1.2-3.45-6.8.15-10.45 8.85-15.1 11.25-4.6 14.5 7.3l1.5-.55.15.15.1.1H25l-.1.25q-1.4.45-2.55 1.15-5.4 3.05-5.85 9.85-.25 2.5.25 4.8.5 2.45 1.9 4.7 2.3 3.75 7 7Q31 44.8 38.2 44.5q1.25-.2 1.35-.65l-.05-.2q-3.75-2.25-5.35-4.9-1.6-2.7-1.1-5.75l3-.15q3.25-.6 5.05-3 5.1-5.15-1.15-12.75l-3.45-2.7.4-.35M2.65 13.9Q1.2 16.75.7 20.55q0 4.95 2.8 8.25l.15-1q1.15-5.55 5.55-7.5 1.65 4.2 5.75 3.9l.75-.05q.35-2.7 1.6-4.8 1.8-3.15 5.45-5.1l-.35-1.35q-.95-3-2.75-4.7-1.6-1.5-3.85-1.95l-2.6-.2q-1.95.45-3.55 1.2-4.75 2.05-7 6.65M60.5 29.85l.35 2.9q2.7-.5 4.2-8.35.3-10.1-5.7-15.15-3.05-2.55-7.7-3.8-10.6.05-11.15 11l.85.95q1.85 2.2 2.55 4.4.4 1.4.35 2.75 7.1 4.7 11.15-1.85.9.25 1.7.8 2.55 1.75 3.4 6.35" fill="#0b222b"/><path d="M25.8 6.4q.15-1.75 1.55-3.05 1.5-1.25 3.4-1.25t3.1 1.25q1.3 1.3 1.15 3.05-.1 1.8-1.6 3.05-1.4 1.3-3.3 1.3t-3.2-1.3Q25.7 8.2 25.8 6.4" fill="#9dfaec"/><path d="m36.05 32.85-3 .15q-.5 3.05 1.1 5.75-7.85-5.1-6.4-10.05-3.7-6.85.7-10.45.8-.9.35-1.05-2.3-.6-3.75-3.05l-.15.05.1-.25h.1q2.45 2.4 5.95 2.4 2.4 0 4.35-1.15 3.05 3.05 3.65 6 .45 6.75-5.4 9.15-.55 1.9 2.4 2.5m-4.5-6.6q2.3-.75 2.15-2.7-1.25-3.25-4.35-2.6l-1.45 2q-.05 3.7 3.65 3.3" fill="#29524d"/><path d="M60.5 29.85q-.85-4.6-3.4-6.35-.35-5.5-1.85-6.35-.15 3.35-3.45 4.2h-.1q-6.35.15-5.9-6.5l.05-.65.3-.55q.55-1 1.25-1.75l.7-.6q2.1-1.65 5.3-1.2 5.5.6 8.55 7.75v.25q1.25 7.85-1.45 11.75M48.95 13.9q-.65.75-.65 1.75t.65 1.7q.7.75 1.65.75t1.6-.75q.7-.7.7-1.7t-.7-1.75q-.65-.7-1.6-.7-.95 0-1.65.7" fill="#1c3f42"/><path d="m41.35 17.4-.85-.95q.55-10.95 11.15-11 4.65 1.25 7.7 3.8 2.4 2.55 2.6 8.6-3.05-7.15-8.55-7.75-3.2-.45-5.3 1.2-1.7-2.85-4.05-.25l-.25.3-.75-1.1q-2.2 1.95-1.7 7.15" fill="#2c6462"/><path d="m60.85 32.75-.35-2.9q2.7-3.9 1.45-11.75v-.25q-.2-6.05-2.6-8.6 6 5.05 5.7 15.15-1.5 7.85-4.2 8.35" fill="#3c8592"/><path d="M57.1 23.5q-.8-.55-1.7-.8-4.05 6.55-11.15 1.85.05-1.35-.35-2.75 4.65 4.15 8.05 1.15l-.15-1.6q3.3-.85 3.45-4.2 1.5.85 1.85 6.35" fill="#285a5c"/><path d="M43.9 21.8q-.7-2.2-2.55-4.4-.5-5.2 1.7-7.15l.75 1.1q-.9 3.2 2 3.5-.45 6.65 5.9 6.5h.1l.15 1.6q-3.4 3-8.05-1.15" fill="#428e97"/><path d="m48.1 11.3-.7.6q-.6-1.2-1.5-1.2l-1.85.35q2.35-2.6 4.05.25m-1.95 2.35-.3.55-.05.65q-2.9-.3-2-3.5l.25-.3q-.5 2.5 2.1 2.6" fill="#93d4b6"/><path d="M47.4 11.9q-.7.75-1.25 1.75-2.6-.1-2.1-2.6l1.85-.35q.9 0 1.5 1.2" fill="#96ffe1"/><path d="m36.5 14.4 3.45 2.7q6.25 7.6 1.15 12.75-1.8 2.4-5.05 3-2.95-.6-2.4-2.5 5.85-2.4 5.4-9.15-.6-2.95-3.65-6l1.1-.8" fill="#2e6464"/><path d="M29.9 25.4q-1.85-.85-1-3.05.75-1.15 2.5-.2 1.35.65 1.5 2.1-1.15 2-3 1.15" fill="#090c23"/><path d="M29.9 25.4q1.85.85 3-1.15-.15-1.45-1.5-2.1-1.75-.95-2.5.2-.85 2.2 1 3.05m1.65.85q-3.7.4-3.65-3.3l1.45-2q3.1-.65 4.35 2.6.15 1.95-2.15 2.7M49.6 14.4q-.35.45-.35 1.1 0 .6.35 1.05l1 .45q.55 0 .9-.45.45-.45.45-1.05l-.45-1.1q-.35-.4-.9-.4t-1 .4m-.65-.5q.7-.7 1.65-.7t1.6.7q.7.75.7 1.75t-.7 1.7q-.65.75-1.6.75-.95 0-1.65-.75-.65-.7-.65-1.7t.65-1.75" fill="#0f252f"/><path d="M49.6 14.4q.45-.4 1-.4t.9.4l.45 1.1q0 .6-.45 1.05-.35.45-.9.45l-1-.45q-.35-.45-.35-1.05 0-.65.35-1.1" fill="#291c1f"/><path d="M34.15 38.75q1.6 2.65 5.35 4.9l.05.2q-8.8-1.75-13.35-6.55l-.65-.75q-3.45-4.1-4-10.15 1.55-.2 3.7-2.75 2.8-8.4-3.15-6.8l.25-1.5q1.15-.7 2.55-1.15l.15-.05q1.45 2.45 3.75 3.05.45.15-.35 1.05-4.4 3.6-.7 10.45-1.45 4.95 6.4 10.05" fill="#407971"/><path d="M39.55 43.85q-.1.45-1.35.65-7.2.3-12.55-2.8-4.7-3.25-7-7-1.55-3.45 1.95-3.7 2.45 4.1 4.95 5.55l.65.75q4.55 4.8 13.35 6.55" fill="#9effe4"/><path d="M18.65 34.7q-1.4-2.25-1.9-4.7.2-6.35 1.65-7.25 1.05 3.9 3.15 3.65.55 6.05 4 10.15-2.5-1.45-4.95-5.55-3.5.25-1.95 3.7" fill="#58a3a5"/><path d="M16.75 30q-.5-2.3-.25-4.8.45-6.8 5.85-9.85l-.25 1.5q-3.3 1.75-3.7 5.9-1.45.9-1.65 7.25" fill="#417e74"/><path d="m24.75 19.3-.05-.1q-.75-2.9-3.3-1.25-1.95 2.95.8 3.65 2.5-.05 2.55-2.3m-2.65-2.45q5.95-1.6 3.15 6.8-2.15 2.55-3.7 2.75-2.1.25-3.15-3.65.4-4.15 3.7-5.9" fill="#a3dbbd"/><path d="M3.5 28.8Q.7 25.5.7 20.55q.5-3.8 1.95-6.65.75-.15 1.05.45.35.75-.15 2.8v.2q-1.25 7.45.1 10.45l-.15 1m21.25-9.5q-.05 2.25-2.55 2.3-2.75-.7-.8-3.65 2.55-1.65 3.3 1.25l.05.1" fill="#a9ffe6"/><path d="M19.65 8.2q1.8 1.7 2.75 4.7-2.3 4.35-7.05 3.2 1.1-1.15.7-2.35 3.65.25 3.6-5.55" fill="#438075"/><path d="M15.8 6.25q2.25.45 3.85 1.95.05 5.8-3.6 5.55h-.15q-.1-1.7-.85-2.35 1.95-2.2.75-5.15" fill="#5da9a9"/><path d="M9.65 7.25q1.6-.75 3.55-1.2l2.6.2q1.2 2.95-.75 5.15H15l-2.35.4q.4-2.9-1.25-3.1-3-.05-4.5 2.8-1.15 3.35 2.75 2.8-.7 1.45-.7 3.55l-.05.05q-4.05 2.55-5.35-.55v-.2q.5-2.05.15-2.8l5.95-7.1" fill="#a8ddc0"/><path d="M2.65 13.9q2.25-4.6 7-6.65l-5.95 7.1q-.3-.6-1.05-.45" fill="#5eaaa8"/><path d="M12.65 11.8q-2.1.65-3 2.5-3.9.55-2.75-2.8 1.5-2.85 4.5-2.8 1.65.2 1.25 3.1" fill="#acffe6"/><path d="M14.95 24.2q-4.1.3-5.75-3.9-4.4 1.95-5.55 7.5-1.35-3-.1-10.45 1.3 3.1 5.35.55.85 1.2 2.2 1.45-.2 2.95 3.85 4.85" fill="#5ba6a7"/><path d="M17.3 19.35q-1.25 2.1-1.6 4.8l-.75.05q-4.05-1.9-3.85-4.85 1.5.25 3.6-.9 1.05.95 2.6.9" fill="#3f7b72"/><path d="m22.4 12.9.35 1.35q-3.65 1.95-5.45 5.1-1.55.05-2.6-.9-2.1 1.15-3.6.9-1.35-.25-2.2-1.45l.05-.05q0-2.1.7-3.55.9-1.85 3-2.5l2.35-.4h.05q.75.65.85 2.35-1.05-2.25-3.75.45-.35 3.3 2.5 2.5l.7-.6q4.75 1.15 7.05-3.2" fill="#305b53"/><path d="M13.3 16.1q1.6.6 2.15-1.3.15-3-2.6-.6-.45.95.45 1.9m2.6-2.35h.15q.4 1.2-.7 2.35l-.7.6q-2.85.8-2.5-2.5 2.7-2.7 3.75-.45" fill="#1d3e40"/><path d="M13.3 16.1q-.9-.95-.45-1.9 2.75-2.4 2.6.6-.55 1.9-2.15 1.3" fill="#412e2c"/></g><use ffdec:characterId="2" height="97.05" transform="translate(14.5 .6)" width="267.95" xlink:href="#u" id="c"/><use ffdec:characterId="7" height="122.25" transform="translate(0 10.7)" width="293.95" xlink:href="#v" id="d"/><use ffdec:characterId="12" height="136.45" width="263.95" xlink:href="#w" id="s"/><use ffdec:characterId="16" height="122.95" width="73" xlink:href="#x" id="f"/><use ffdec:characterId="18" height="143.45" width="100" xlink:href="#y" id="g"/><use ffdec:characterId="20" height="38.35" width="32.55" xlink:href="#z" id="h"/><use ffdec:characterId="22" height="76.95" width="68.45" xlink:href="#A" id="i"/><use ffdec:characterId="24" height="22.15" width="15.3" xlink:href="#B" id="j"/><use ffdec:characterId="26" height="62.85" width="62" xlink:href="#C" id="k"/><use ffdec:characterId="28" height="59.95" width="42.5" xlink:href="#D" id="l"/><use ffdec:characterId="30" height="88.75" width="114" xlink:href="#E" id="m"/><use ffdec:characterId="36" height="53.25" width="40.25" xlink:href="#F" id="n"/><use ffdec:characterId="38" height="64.35" width="60.6" xlink:href="#G" id="o"/><use ffdec:characterId="40" height="20.45" width="20.05" xlink:href="#H" id="p"/><use ffdec:characterId="42" height="44.8" width="65.75" xlink:href="#I" id="q"/><path d="M27.75 0q0 2-8.15 3.4Q11.5 4.9 0 4.9q-11.5 0-19.65-1.5-8.1-1.4-8.1-3.4 0-2.05 8.1-3.5Q-11.5-4.9 0-4.9q11.5 0 19.6 1.4 8.15 1.45 8.15 3.5" fill-opacity=".349" fill-rule="evenodd" transform="translate(27.75 4.9)" id="b"/></defs></svg>