<svg xmlns:ffdec="https://www.free-decompiler.com/flash" xmlns:xlink="http://www.w3.org/1999/xlink" ffdec:objectType="frame" height="90" width="90" xmlns="http://www.w3.org/2000/svg"><use ffdec:characterId="28" height="174.5" transform="translate(.177 13.598) scale(.3941)" width="232.95" xlink:href="#a"/><defs><g id="a" transform="translate(-.45 -34.5)"><use ffdec:characterId="1" height="9.8" transform="matrix(1.1366 0 0 2.1414 109.159 188.007)" width="55.5" xlink:href="#b"/><use ffdec:characterId="3" height="182.65" transform="translate(136.3 37.2) scale(.7427)" width="124.7" xlink:href="#c"/><use ffdec:characterId="5" height="15.3" transform="translate(126.15 125.55) scale(.7427)" width="12.5" xlink:href="#d"/><use ffdec:characterId="7" height="182.65" transform="translate(61.2 37.65) scale(.7427)" width="96.3" xlink:href="#e"/><use ffdec:characterId="9" height="55.45" transform="translate(.9 75.3) scale(.7427)" width="175.35" xlink:href="#f"/><use ffdec:characterId="11" height="49.55" transform="translate(122.5 86.5) scale(.7427)" width="32.75" xlink:href="#g"/><use ffdec:characterId="13" height="71.4" transform="translate(136 80.05) scale(.7427)" width="62.75" xlink:href="#h"/><use ffdec:characterId="19" height="41.55" transform="translate(121.55 64.5) scale(.7427)" width="42.9" xlink:href="#i"/><use ffdec:characterId="21" height="38.7" transform="translate(107.65 115.9) scale(.7427)" width="33.95" xlink:href="#j"/><use ffdec:characterId="23" height="83.3" transform="translate(96.7 122.3) scale(.7427)" width="46.5" xlink:href="#k"/><use ffdec:characterId="25" height="107.85" transform="translate(128.95 113.35) scale(.7427)" width="71.8" xlink:href="#l"/><use ffdec:characterId="27" height="29.75" transform="translate(117.6 111) scale(.7427)" width="44.7" xlink:href="#m"/></g><g id="n" fill-rule="evenodd"><path d="M8.2 89.15 6.65 96.3v.05l-.1.05-.05-.05-.6-.65q-3-3.8-5.5-12.05V78.9q-1.25-4.55 1.2-10.8l1.55-1.85q5.7-6.9 10.35-16.6v-.05l5.1-10.1.1-.45 1.2-4.8.9-3.15 2.15-7.35v-.1l2.35-7.45-.05-1.05q-.05-9.7 5.45-13.8h.05V1.3q1-.75 2.2-1.25L33 0l.05.05.75.85.25.4v.05l.05.05.2.45Q35 3.4 35.7 6.2L37 9.1q8.05.95 16.05 8.25v.05l2.35 3.65v.1h.05q2.1 3.75 2.8 6.95 4.65 4.4 10.95 6.05l5.5.95 1.35.15q6.95.7 16.05.15h.1v.1q.45 3.3-14.55 4.8l-8.6.25q4.45 3.05 13.4 4.05l.05.05.05.05-.05.05-3.15 2.55q-2.65 1.85-5.1 2.75Q79.8 54.95 87 58.2q10.4 4.75 24.4 6.15l.05.05.05.05v.05q-6.25 9.95-12.5 13.65 5.55 3.2 10.2 7.45 9.25 8.35 14.95 20.45 1.15 14.55 0 21.25l-.05.05-.05.05H124l-.05-.05q-8.05-12.6-16.85-20.2 8.05 35.25.7 64.6v.05l-4.45 10.8-.05.05h-.15v-.05q-1.15-11.25-21.4-27.7-10.1-6.15-25.1-26.3-.8 10.5-3.9 13.65l-.1.05h-.05l-.05-.1-5.5-8.35v.05l-15.1-15.1v-.05l-7.25-12.6 1.95 15.4v.05l-.05.1h-.1l-.05-.05-11.6-13.25v-.05q-3.75-5.5-6.1-14.5l-.15-.6-.4-4.1-.1-1.3q-1.25-.65-2.45-1.7L5.5 86l-.25-.2-1.6-1.7H3.6q-2.1-2-3-4.55v4.05q2.45 8 5.3 11.75l.6.75 1.5-7 .05-.05h.05l.1.05v.05m77-53.3-9.15-.4-9.2.95h-.05q-8.9 0-14.75-2-4.2-1.45-6.8-3.9l-6-6.7-.05-.05h-.05L34 18.05l.85 3.65 2.9 2.9-.8 3.5 2.15 2.2 3.15 3.25.7.75 1.55.75q8.15 3.8 15.7 5l5.3.55h.1l3.15-.25h.35l4.95-.25h3.6q14.5-1.5 14.4-4.5l-6.85.25m-6.4 11.6 3.4-2.7q-9.05-1-13.45-4.15l-3.25.2-5.5-.55q-2.9-.5-5.9-1.35-4.7-1.35-9.6-3.65l-1.7-.75v-.05l-3.15-3.25L38.5 30l-3.55-3.7-.45 2.2q-1.45 3.3-3.75 2.55L30.7 31h-.1l-.1-.05q-1.25-.5-2.7-2.1l-.3-.3q-.65-.75-.95-2-.35-1.15-.45-2.75l.05-.05-.05-.1v-4.2l.05-.7-.8-1.85-.05-.05v-.05.05l-2.1 6.85-.05.05v.05l-2 6.9-1.05 3.6-1.2 4.8-.1.4v.05l-.25.5-4.85 9.7Q8.95 59.6 3.2 66.55L1.75 68.2Q-.65 74.35.6 78.85q.85 2.9 3.15 5.1V84l1.5 1.5.2.25.2.15Q6.9 87 8.2 87.65l.05.05q2.1 1.05 4.25 1.05L15 81.9l.05-.05.1-.05.05.05q5.65 5.35 12.55 7.65l1.1.35-2.5-11.4v-.05l.05-.05h.1l8.05 3.35h-.05l10.75 3.45.75-3.25q.45-2.95 0-6.15L45.5 73l-.3-1.15.05-.1.05-.05.05.05 10.75 4.9.4-9.75.05-.05.1-.05.05.05 12.8 7q-.05-5.25-2.65-12.55l-1.5-4-3-6.05v-.05l.05-.05.05-.05 11.5-1.2.05.05.05-.05h.05l.05-.05q2.25-.8 4.65-2.4m8.6 11.15q-7.6-3.35-13.35-8.5H74l-11.4 1.2 2.25 4.6.65 1.3v.05l1.6 4.15q2.55 7.35 2.6 12.65l-.05.1h-.1l-12.8-7.05-.45 9.7v.1h-.1L45.45 72l.4 1.7.35 2.2q.45 3.25 0 6.2l-.8 3.2-.05.05h-.2l-6.8-2.2-3.9-1.25-1.9-.8-5.95-2.5 1.85 8.55.65 2.85v.05l-.05.05h-.1l-1.1-.3q-5.1-1.7-9.5-5l-3.2-2.7-2.5 6.8v.05h-.1q-2.15.05-4.25-1l.5 5.25.35 1.25q2.25 8.5 5.85 13.8l11.4 13-2-15.55v-.1l.1-.05.05.05h.05l7.5 13.05 15.1 15.1h.05l5.4 8.25q3.05-3.2 3.75-13.65-1.05-1.7-2.05-4.25-1.3-3.55-2.4-8.8v-.1l.05-.05h.1l.05.05q1.05 5.1 2.3 8.6h.05q1 2.7 2.15 4.45v.05q15.05 20.25 25.2 26.45h.05q20 16.25 21.4 27.45l4.35-10.5h-.05q7.35-29.45-.8-64.8l.05-.05v-.05h.15q8.9 7.6 17 20.2 1.1-6.7-.05-20.9-5.6-11.85-14.55-20.1-4.8-4.4-10.55-7.7l-.05-.05h-.05l-.05-.05h-.05q-4.25-2.5-9.05-4.45h-.05l-4.5-1.65-.05-.05V72l.05-.05.1-.05q2.4.8 4.7 1.75 4.7 1.9 8.9 4.35l.05.05q6.2-3.65 12.4-13.5-13.6-1.4-23.8-5.95M36.7 8.85 35.55 6.3l-.05-.05-1.15-3.75-.2-.45Q29.9 7 31.3 12.35l.55 1.6 2.05 3.65 5.4 6 .05.05.05.05 6 6.65q2.6 2.4 6.7 3.8 5.85 2.05 14.7 2.05l7.9-.8.4-.05-.4-.05-5.55-.9q-3.3-.9-6.15-2.5-2.65-1.55-4.9-3.65l-.05-.05q-.7-3.25-2.75-6.95l-.05-.05-.05-.05-2.3-3.65q-8-7.25-15.95-8.2l-.05-.05h-.05l-.15-.4m-2.05 17.9.1-.55v-.15l.05-2.3h.05l-.05-.1-.25-2.2-.85-3.7-2.65-2.8-3.15-.05-.15.15q-1.1.95-1.4 3.75-.2 2.8-.05 4.85v.1q.25 3.35 1.35 4.65 1.7 1.9 3.1 2.4 2.2.7 3.55-2.35l.35-1.7M33.7 1.1l-.75-.85q-1.15.5-2.05 1.2l-.05.05h-.05q-5.35 4.05-5.35 13.45l.05 1.25v.65l.7 1.55q.35-2.7 1.55-3.65h.05q1.25-.95 3.4.05l2.1 2.2-1.65-2.95-.45-1.35Q29.5 7 34.1 1.85l-.2-.35v-.05l-.05-.05-.15-.3" fill="#a8681c"/><path d="m36.7 8.85.15.4h.05l.05.05q7.95.95 15.95 8.2l2.3 3.65.05.05.05.05q2.05 3.7 2.75 6.95l.05.05q2.25 2.1 4.9 3.65-6.2 3.35-12.75-2.45l3.4-2.1-10.7-1.75-5.6-6.1Q33 14.35 36.7 8.85m-5.4 3.5Q29.9 7 34.15 2.05l.2.45-3.05 9.85m-5.85 2.6q0-9.4 5.35-13.45h.05l.05-.05q.9-.7 2.05-1.2l.75.85q-2.05 1.6-3.75 6.6l-.8 3.95-3.7 3.3m3.2 7.8 1.1-.7v1.2l-.5.75-.5-.1q-.35 0-.1-1.15m1.45 2.85q0-1.95.7-1.95.6 1.05 0 2.05l-.25.3h-.15l-.3-.4m2.9-5.5q-.5.6-1.65.65-1.6-.85-1.6-2.45l.15-1.1q.7-1.2 3.35 1.55l.15.15q0 .75-.4 1.2" fill="#fff"/><path d="m29.25 24 .5-.75v-1.2l-1.1.7v-.85q-.4-2.7 1.1-3.6 0 1.6 1.6 2.45 1.15-.05 1.65-.65 1.3 3.6-.2 5.5-1.4 1.1-2.25.4l.25-.3q.6-1 0-2.05-.7 0-.7 1.95l-.85-1.6" fill="#1c61be"/><path d="m34.65 26.75-.35 1.7q-1.35 3.05-3.55 2.35-1.4-.5-3.1-2.4-1.1-1.3-1.35-4.65v-.1q-.15-2.05.05-4.85.3-2.8 1.4-3.75l-.55 5.75q.8 6.15 2.85 7.3 2.5 1.25 4.6-1.35" fill="#2063bc"/><path d="m34.8 23.75-.05 2.3v.15l-.1.55q-2.1 2.6-4.6 1.35-2.05-1.15-2.85-7.3l.55-5.75.15-.15 3.15.05 2.65 2.8.85 3.7.25 2.2v.1m-5.55.25.85 1.6.3.4h.15q.85.7 2.25-.4 1.5-1.9.2-5.5.4-.45.4-1.2l-.15-.15Q30.6 16 29.9 17.2l-.15 1.1q-1.5.9-1.1 3.6v.85q-.25 1.15.1 1.15l.5.1" fill="#51b0f6"/><path d="m34.35 2.5 1.15 3.75.05.05 1.15 2.55q-3.7 5.5.65 10.65l5.6 6.1 10.7 1.75-3.4 2.1Q56.8 35.25 63 31.9q2.85 1.6 6.15 2.5l5.55.9v.1l-7.9.8q-8.85 0-14.7-2.05-4.1-1.4-6.7-3.8l-6-6.65-.05-.05-.05-.05-5.4-6-2.05-3.65-.55-1.6 3.05-9.85" fill="#cbefec"/><path d="m39.1 30.3-2.15-2.2.8-3.5-2.9-2.9-.85-3.65 5.15 5.7h.05l.05.05 6 6.7q2.6 2.45 6.8 3.9 5.85 2 14.75 2h.05l9.2-.95 9.15.4-11.15 1.35v2.9l-4.95.25.9-2.8-3.65-.2-3.15-.15-8.6-.5q-7.45-1.8-10.1-4.35v2.7l-1.55-.75-.7-.75.6-2.95-3.15-3.05-.6 2.75m-17.95.4 2-6.9v-.05l.05-.05 2.1-6.85.05.05.8 1.85-.05.7q-1.6 5.95-3.9 9.8l-1.05 1.45M33.7 1.1l.15.3.05.05v.05l.2.35Q29.5 7 31.2 12.7l.45 1.35L33.3 17l-2.1-2.2q-2.15-1-3.4-.05h-.05q-1.2.95-1.55 3.65l-.7-1.55v-.65l-.05-1.25 3.7-3.3.8-3.95q1.7-5 3.75-6.6m-9.1 28.1q-2.15 2.35-1.7.35l1.4-2q.9-.2.3 1.65m-2.85 4.35q-.35-.35.45-1.1.85-.3.55.55-.3.95-1 .55" fill="#ffff20"/><path d="m18.55 40.05.25-.5v-.05l.1-.4 1.2-4.8 1.05-3.6 1.05-1.45q2.3-3.85 3.9-9.8v4.2l.05.1-.05.05q.1 1.6.45 2.75l-2.3 6.6q-2.8 6.35-5.7 6.9M24.6 29.2q.6-1.85-.3-1.65l-1.4 2q-.45 2 1.7-.35m-2.85 4.35q.7.4 1-.55.3-.85-.55-.55-.8.75-.45 1.1" fill="#df8412"/><path d="M26.55 26.55q.3 1.25.95 2l.3.3q-2.3 4.85-3.25 8.2l-.15.15-6.45 8 .6-5.15q2.9-.55 5.7-6.9l2.3-6.6" fill="#b55d0d"/><path d="M27.8 28.85q1.45 1.6 2.7 2.1l.05.05q-2.85 1.85-6 6.05.95-3.35 3.25-8.2" fill="#e28512"/><path d="M42.25 33.55 39.1 30.3l.6-2.75 3.15 3.05-.6 2.95" fill="#e38611"/><path d="m85.2 35.85 6.85-.25q.1 3-14.4 4.5h-3.6v-2.9l11.15-1.35m-16.1 4.5h-.35l-3.15.25.75-3.25 3.65.2-.9 2.8m-8.9-.3q-7.55-1.2-15.7-5v-2.7q2.65 2.55 10.1 4.35l8.6.5-3 2.85" fill="#bc6a0f"/><path d="m39.65 31.2 3.15 3.25v.05l1.7.75q4.9 2.3 9.6 3.65l-7.05 2.2-6.05-.7v2.05q3.2 5.9 3 10.1Q39.65 44 30.95 46.3q-4.6.1-4.9 11.45-2.25 6.3-13.8 11.8l-2.5 2.6L8 73.95q-4.2 5.4-4.7.6l3.45-6.1 6.15-6.05 8.05-13.45 4.5-8.75q6.85-8.85 14.2-9" fill="#ffce06"/><path d="m46 81.9-.75 3.25L34.5 81.7h.05l-8.05-3.35h-.1l-.05.05v.05l2.5 11.4-1.1-.35q-6.9-2.3-12.55-7.65l-.05-.05-.1.05-.05.05-2.5 6.85q-2.15 0-4.25-1.05l-.05-.05Q6.9 87 5.65 85.9l-.2-.15-.2-.25-1.5-1.5v-.05q-2.3-2.2-3.15-5.1-1.25-4.5 1.15-10.65l1.45-1.65.3 2.5q2.55-.25 6.3-5.4l9.75-16.05q3.8-8 8.9-12.7Q33.6 30.1 38.5 30l1.15 1.2q-7.35.15-14.2 9l-4.5 8.75L12.9 62.4l-6.15 6.05-3.45 6.1q.5 4.8 4.7-.6l1.75-1.8-2.25 5.9v.6q-.2 6.45 2.55 6.25.85-7.15 4.95-9.95 1.9 7.95 8.7 9.4-1.2-9 2.05-13.55l1.1-3.6q2.5 4.95 4.1 6.75l10.5 3.95 4.55 4" fill="#fff010"/><path d="M3.2 66.55q5.75-6.95 10.5-16.8l4.85-9.7-.6 5.15 6.45-8 .15-.15q3.15-4.2 6-6.05h.15l.05.05q2.3.75 3.75-2.55l.45-2.2L38.5 30q-4.9.1-10.05 4.9-5.1 4.7-8.9 12.7L9.8 63.65q-3.75 5.15-6.3 5.4l-.3-2.5" fill="#ffffd7"/><path d="m45.15 85.35-2.65 4.6-4.15-6.8 6.8 2.2m-12.6-4.25 1.65 9.65-5.75-3.6-1.85-8.55 5.95 2.5M9.15 94.45 8.8 93.2l-.5-5.25q2.1 1.05 4.25 1h.1v-.05l2.5-6.8 3.2 2.7q-2.5 6.75-2.95 17l-.1 2.65-6.15-10" fill="#ffbc0d"/><path d="m27.85 89.8 7.75 17.6.2.25q5.3 5.65 10.7 12.55-1-10.35-.65-22 5.45 11.85 15.65 13.15l25.8 23.7 3.7 5.3-3.25-19.4-6.35-18.15 15.95 14.65q5.25-14.65-4.7-33.2l12 8.45q-3.5-9.8-15.1-18.95h.05q4.8 1.95 9.05 4.45h.05l.05.05.1.05q5.75 3.3 10.55 7.7 10.15 13.6 8.9 24.9-5.1-7.8-18.85-14.8 8 25.1 3.95 44.6l-3.8-5.45q3.65 17.55 2.3 27.1L84.45 144.6l-22.2-11.8-7.75-9h-.05q-1.25-3.5-2.3-8.6l-.05-.05H52l-.05.05v.1q1.1 5.25 2.4 8.8l-4.15 12.35-14.8-18.25q-6.65-8-11.7-21.1l-1.45 13.25-6.85-8.55q.45-10.25 2.95-17 4.4 3.3 9.5 5" fill="#fff10d"/><path d="m87.4 58.6 4.2 4.25 13.65 3.85-15.4 6.95q-2.3-.95-4.7-1.75l-.1.05L85 72v.05l.05.05 4.5 1.65q11.6 9.15 15.1 18.95l-12-8.45q9.95 18.55 4.7 33.2L81.4 102.8l6.35 18.15 3.25 19.4-3.7-5.3-25.8-23.7q-10.2-1.3-15.65-13.15-.35 11.65.65 22-5.4-6.9-10.7-12.55l-.2-.25-7.75-17.6 1.1.3h.1l.05-.05V90l-.65-2.85 5.75 3.6-1.65-9.65 1.9.8 3.9 1.25 4.15 6.8 2.65-4.6h.2l.05-.05.8-3.2q.45-2.95 0-6.2l12.05 9.65 14 23.05q3.2-7.25-1.7-22.3l21.85 9.3q-5.05-10.7-12.95-20.65l-7.65-5h6.55l9.4-3.65q3.05-.6 5.3-2.05l-16.55-1.6-11.65-6.75-2.25-4.6L74 50.1h.05q5.75 5.15 13.35 8.5" fill="#ffe109"/><path d="M54.1 38.9q3 .85 5.9 1.35l5.5.55 3.25-.2q4.4 3.15 13.45 4.15l-3.4 2.7-6.25 1.3q-7.85 1-15-3.15l1.5 3.55H55.1q6.75 7 9.9 15.5-4.2 1.1-14.35-5.8l1 2.55-1.05-.8q2.6 6.15 2.25 10.8l-7.45-3.05q-2.55-1.4-3.25-3.8l.9 3.7L45.5 73l.5 2.75q.45 3.2 0 6.15l-4.55-4-10.5-3.95q-1.6-1.8-4.1-6.75l-1.1 3.6q-3.25 4.55-2.05 13.55-6.8-1.45-8.7-9.4-4.1 2.8-4.95 9.95-2.75.2-2.55-6.25v-.6l2.25-5.9 2.5-2.6q11.55-5.5 13.8-11.8.3-11.35 4.9-11.45Q39.65 44 44 52.55q.2-4.2-3-10.1V40.4l6.05.7 7.05-2.2" fill="#ffffdc"/><path d="M5.9 95.35Q3.05 91.6.6 83.6v-4.05q.9 2.55 3 4.55h.05l1.6 1.7.25.2v.15l.4 9.2" fill="#ffea0d"/><path d="M8.2 89.15v-.05l-.1-.05h-.05L8 89.1l-1.5 7-.6-.75-.4-9.2h.15q1.2 1.05 2.45 1.7l.1 1.3M64.85 55.9l11.65 6.75 16.55 1.6q-2.25 1.45-5.3 2.05-4 .8-9.4.2L67.1 61.4l-1.6-4.15v-.05l-.65-1.3" fill="#eb9e11"/><path d="m89.85 73.65 15.4-6.95-13.65-3.85-4.2-4.25q10.2 4.55 23.8 5.95-6.2 9.85-12.4 13.5l-.05-.05q-4.2-2.45-8.9-4.35M109.4 86q8.95 8.25 14.55 20.1 1.15 14.2.05 20.9-8.1-12.6-17-20.2h-.15v.05l-.05.05q8.15 35.35.8 64.8h.05l-4.35 10.5q-1.4-11.2-21.4-27.45h-.05q-10.15-6.2-25.2-26.45v-.05q-1.15-1.75-2.15-4.45l7.75 9 22.2 11.8 17.45 17.75q1.35-9.55-2.3-27.1l3.8 5.45q4.05-19.5-3.95-44.6 13.75 7 18.85 14.8 1.25-11.3-8.9-24.9m-55.05 38.1q1 2.55 2.05 4.25-.7 10.45-3.75 13.65l-5.4-8.25h-.05l-15.1-15.1-7.5-13.05h-.05l-.05-.05-.1.05v.1l2 15.55-11.4-13q-3.6-5.3-5.85-13.8l6.15 10 .1-2.65 6.85 8.55L23.7 97.1q5.05 13.1 11.7 21.1l14.8 18.25 4.15-12.35" fill="#ffffae"/><path d="m87.75 66.3-9.4 3.65H71.8l7.65 5q7.9 9.95 12.95 20.65l-21.85-9.3q4.9 15.05 1.7 22.3l-14-23.05L46.2 75.9l-.35-2.2-.4-1.7 10.75 4.9h.1v-.1l.45-9.7 12.8 7.05h.1l.05-.1q-.05-5.3-2.6-12.65l11.25 5.1q5.4.6 9.4-.2" fill="#ffac0d"/><path d="M65.6 40.6h-.1l-5.3-.55 3-2.85 3.15.15-.75 3.25" fill="#ffaf0d"/><path d="M78.8 47.45q-2.4 1.6-4.65 2.4l-.2.05-11.5 1.2-.05.05-.05.05v.05l3 6.05 1.5 4q2.6 7.3 2.65 12.55l-12.8-7-.05-.05-.1.05-.05.05-.4 9.75-10.75-4.9-.05-.05-.05.05-.05.1.3 1.15-2.45-4.75-.9-3.7q.7 2.4 3.25 3.8l7.45 3.05q.35-4.65-2.25-10.8l1.05.8-1-2.55q10.15 6.9 14.35 5.8-3.15-8.5-9.9-15.5h3.95l-1.5-3.55q7.15 4.15 15 3.15l6.25-1.3" fill="#fff10e"/></g><g id="o" fill-rule="evenodd"><path d="M1.55 4.95 6.7 0l3.15 1.35.3 6.95v4.85l-4.75-1.3Q3.35 12 2.85 10.5l-1.3-5.55" fill="#16204e"/><path d="m9.85 1.35 1.15.5.45 4.75.1 7.75-8.8-1.15L.7 5.8l.85-.85 1.3 5.55q.5 1.5 2.55 1.35l4.75 1.3V8.3l-.3-6.95" fill="#2a41a0"/><path d="m11 1.85.75.35.75 9.9-.45 3.2L2 13.9 0 6.45l.7-.65 2.05 7.4 8.8 1.15-.1-7.75L11 1.85" fill="#0c2e52"/></g><g id="p" fill-rule="evenodd"><path d="M60.75 81.65q.15 1.95.65 3.8l.65-.5q1.9-1.1 4.45-2.15l4.1-1.55 2.3-.75 2.95-2.25h.05l.05.05.05.05-1.8 11.75q5.05-2.35 8.15-5.5l2.15-2.65.05-.05.05.05.05.05 2.1 6.95q6.1-1 8.9-11.65l.2-.9q.1-5.25-2.1-9.75l-.2-.35q-6.45-9.75-10.7-24.45l-.65-2.35-.15-.3.35 6.6v.1h-.1l-.05-.05q-2.35-4.8-5.2-8.9l-.3-.45q-2.15-3.05-4.6-5.7-.8.25-1.8 0-1.35-1.2-1.8-4.05l-2.4 3.45-.6.95-.15.15-2.75 4.1h-.05l-.7.35q-4.1 2.1-7.5 3.3l-4.8 1.35-4 .35-1.6-.2q-4.45 4.1-11.15 4.05l2.4 2.65q1.9 1.75 4.05 2.8h.1l.05.05.05.05q4 1.8 8.95 1.25l.1.05v.1q-1.45 2.85-2.6 5.65-1.15 2.75-1.95 5.5-1.7 5.7-2.05 11.35l10.75-7.3.05-.05.05.05.05.05v10.4l8.4-5.75.05-.05.05.05.05.05v.05l-.4 2.1-.25 2.25q-.3 3 0 5.75m30.45 12.3.45 2.15q1.85-3.25 3.5-10.05 1.5-5.55.6-8.4Q94.3 83 92 85.9q-2.2 2.8-5.3 3.25h-.05l-.05-.05-2.05-6.85-2.2 2.6q-3.1 3.15-8.2 5.5l-.05.05H74l-.05-.05v-.05l.55-3.55 1.25-8.2-2.75 2.1-.05.05-2.35.75-4.3 1.6q-2.4 1.05-4.2 2.15l-.75.5h-.05l-.05-.05-.05-.05q-1.1-4.35-.7-9.4l.25-2 .4-2.45-8.35 5.8h-.05l-.1-.05V67L41.9 74.35h-.15l-.05-.1q.4-5.75 2.05-11.5l1.9-5.45q1.15-2.85 2.6-5.65-4.85.5-8.8-1.35h-.05q-5.1 5-11.1 8.4-7.95 4.45-17.4 6.05Q13.1 71 20.15 78.6l8.4-4.2 2.5-1.25h.1l.05.05v.1l-.05.05-4.65 2.35-6.35 3.15q-4.95 4-8.7 8.15Q.4 99.4.2 113.2l.8 14.1q6.7-13.35 12.7-20.05l.05-.05.1.05h.05v.1q-3.35 17.35-3.3 29.35-.2 27.2 6.4 45.4 1.75-14.3 14.05-24.7 13.85-11.95 20.7-28.05l.3-.75v-.05q2.5-6.15 4.05-12.9l.05-.05.1-.05.05.05v.1q-.85 3.85-2.1 7.55l-1.95 5.35q.6 8.8 3.35 13.4 4.1-9.9 7.9-12.15 10.5-12.3 13.2-26.25l.05-.05h.1l.05.05v.05l-.95 17.9q10.2-9.2 14.7-29.15v-.05l-.4-1.95-.4-1.95.05-.05.05-.05H90l.05.05.8 3.9v.05h.05v.1l-.05.1.05.05.05.05.25 1.3m4.65-16.6q1.1 2.85-.5 8.75-1.75 7.1-3.65 10.35l-.05.05h-.05l-.1-.05v-.05l-.7-3.45q-4.6 19.85-14.95 28.9l-.05.05-.1-.05v-.05l.05-.1-.05-.05.9-16.65q-2.9 13.2-13 25v.05q-3.75 2.2-7.9 12.2l-.05.05h-.1l-.05-.05q-2.75-4.5-3.45-13.2v.05q-6.85 16.3-20.85 28.45-12.45 10.5-14.05 25.05l-.05.05H17l-.05-.05q-6.75-18.35-6.55-45.9-.05-11.9 3.2-29.05-5.95 6.75-12.55 20.1l-.05.05H.85v-.1L0 113.2q.2-14.1 11.65-26.65 3.6-3.95 8.3-7.8-7.05-7.65-9.3-13.9v-.1l-.05-.05.05-.05.05-.05q9.65-1.65 17.65-6.2 5.8-3.3 10.85-8.2-2.3-1.15-4.25-3l-.15-.15-2.25-2.5v-.05l.05-.1h.05q6.65.1 11.1-3.9l-1.2-.15h-.05l-5.45-.55q-6.4-.65-9.45-1.8-3.1-1.25-2.7-3v-.1h.15l11.8.4.9-.1q2.8-.4 5.35-1.5 4-1.75 7.4-5.3l1-3.85q2.65-10.6 11.5-14.6l.05-.05q2.05-.05 2.95-.85l.2-.3.1-.1q.55-3.75 1.2-6l.2-.6.55-1.25.35-.65.05-.1.05-.05.1.05.2.1q6.9 3.45 6.7 15.8v1q2.3 5.9 4.75 15.6l1.55 6.3.15.25.25.35Q86.7 55.55 93.55 66l.4.55q2.2 4.55 2.15 9.85v.05l-.25.9M70.7 11.95q.35-6.75-2.85-9.7l-.25.8Q67 5.2 66.5 8.7v.05l-.55.6q-1 .7-2.9.75-8.75 4.05-11.35 14.5l-1 3.9-.05.05q-2.1 2.15-4.4 3.65l-2.75 1.55q-2.3 1.05-4.8 1.5l7.85.45q3.55.5 6.75-.5 5.1-1.7 9.25-7.3l6.2-9.5.1-.85.7-1.4v-.05l.95-1.8.2-2.35m4.8 3.75Q75.65 3.75 68.9.35L68.8.3h-.05l-.4.7-.4 1.05q3.4 3.1 2.95 10.35l-.2 1.9v.05l-.75 1.5q1.25-1 2.2-1.15 1.1-.15 1.8.85 1 1.45 1.15 5.3l-.05 3.05-.25 2.5-.7 2.55q-.7 1.4-1.75 1.8l4.3 5.3q3.1 4.25 5.55 9.3l-.3-4.65-.1-1.7-1.7-6.95Q77.7 22.7 75.5 17v-1.3m-2.05-.4q-.5-.5-1.25-.4-1.05.15-2.45 1.35l-.05.05-.65 1.3-.1.8v.1q-.4.9-.4 3.45-.1 2.75.15 4.4v.1l.05.25v.1q.45 2.65 1.7 3.8.9.2 1.65 0h.05q2.45-.85 2.7-6.7.25-6.3-1.05-8.2l-.35-.4m-4.7 3.2v-.05.05m-.65 3.7v-.05q0-1.15.3-2.8L62.75 28l-.05.05q-4 5.4-8.9 7.2-3.45 1.2-7.3.65l-8.75-.5-.9.1-7.2.4-4.55-.75q-.2 1.55 2.6 2.65 3 1.15 9.35 1.8l2.2.2 3.2.35 1.5.15H44l1.5.2 3.95-.25q5.1-1 12.4-4.7l.6-.3 1.05-1.55 1.95-2.85 1.85-2.65 1.2-1.8h.05v-.05q-.45-1.65-.45-4.15" fill="#a8681c"/><path d="m68.35 1 .4-.7h.05l.1.05q6.75 3.4 6.6 15.35l-3.05-3.2-.9-5.35q-1.4-3.6-3.2-6.15" fill="#ffffdb"/><path d="m67.6 3.05.25-.8q3.2 2.95 2.85 9.7l-3.1-8.9M53.3 35.2q-3.2 1-6.75.5l-7.85-.45q2.5-.45 4.8-1.5l9.8 1.45m-7.05-3q2.3-1.5 4.4-3.65l.05-.05 1-3.9q2.6-10.45 11.35-14.5 1.9-.05 2.9-.75 4.4 4.25-2.25 15.05-4.1 1.95-9.2 3.1l2.6 2.3q-4 5.2-10.85 2.4m23.5-11.65v-.1q-1.15-1.65.8-2.95 1.55-1.55 1.65.55 0 3.5-2.45 2.5m3.5 2.75v.15l-.25.9q-.65-.3-.8-1.85.5-.7 1.05.8m-1.05 2.6-.3.3q-1.05-1.5-.35-2.6.9-.1.65 2.3" fill="#fff"/><path d="m29.65 35.9 7.2-.4.9-.1 8.75.5q3.85.55 7.3-.65 4.9-1.8 8.9-7.2l.05-.05 5.65-8.65q-.3 1.65-.3 2.8v.05l-1.6 2.25-.3.35.65 1.95.45 1.45-1.85 2.65-.75-3.3-2.15 2.6.95 3.55-1.05 1.55-.6.3-.3-3.7q-3.25 4.2-7.35 4.35l-6.6 1.2-3.35.15h-.1l-2.3-.1.6 2.7-3.2-.35-.9-2.8-8.7-1.1" fill="#ffff20"/><path d="M68.1 22.2q0 2.5.45 4.15v.05h-.05l-1.2 1.8-.45-1.45-.65-1.95.3-.35 1.6-2.25m-2.65 8.65L63.5 33.7l-.95-3.55 2.15-2.6.75 3.3" fill="#e58a11"/><path d="M61.85 35.55q-7.3 3.7-12.4 4.7L47.6 37.4l6.6-1.2q4.1-.15 7.35-4.35l.3 3.7M45.5 40.5l-1.5-.2h-.05l-1.5-.15-.6-2.7 2.3.1h.1l1.25 2.95" fill="#b45d0d"/><path d="m49.45 40.25-3.95.25-1.25-2.95 3.35-.15 1.85 2.85m-10.2-.45-2.2-.2q-6.35-.65-9.35-1.8-2.8-1.1-2.6-2.65l4.55.75 8.7 1.1.9 2.8" fill="#e48711"/><path d="m70.7 11.95-.2 2.35-.95 1.8v.05l-.7 1.4-.1.85-6.2 9.5q-4.15 5.6-9.25 7.3l-9.8-1.45 2.75-1.55Q53.1 35 57.1 29.8l-2.6-2.3q5.1-1.15 9.2-3.1 6.65-10.8 2.25-15.05l.55-.6V8.7q.5-3.5 1.1-5.65l3.1 8.9" fill="#cbf0ec"/><path d="M69.75 20.55q2.45 1 2.45-2.5 1 1.1 1.05 2 .3 1.7 0 3.25-.55-1.5-1.05-.8.15 1.55.8 1.85l-.25.65-.55.9q.25-2.4-.65-2.3-.7 1.1.35 2.6-.5.3-1.1 0-1.75-.9-1.05-5.65" fill="#1e63bf"/><path d="M68.95 18.5v-.1l.1-.8.65-1.3.05-.05q1.4-1.2 2.45-1.35.75-.1 1.25.4l.7 5.1q.3 4.2-1.15 7.25-2.4 2.65-4.2-.85l-.05-.1-.05-.25v-.1q-.25-1.65-.15-4.4 0-2.55.4-3.45m3.25-.45q-.1-2.1-1.65-.55-1.95 1.3-.8 2.95v.1q-.7 4.75 1.05 5.65.6.3 1.1 0l.3-.3.55-.9.25-.65.25-.9v-.15q.3-1.55 0-3.25-.05-.9-1.05-2" fill="#55b3f7"/><path d="m73.45 15.3.35.4q1.3 1.9 1.05 8.2-.25 5.85-2.7 6.7h-.05q-.75.2-1.65 0-1.25-1.15-1.7-3.8h.05q1.8 3.5 4.2.85 1.45-3.05 1.15-7.25l-.7-5.1" fill="#2063bc"/><path d="M80.1 32.05 81.8 39l.1 1.7-3.75-4.65-3.35-9.65.25-2.5.05-3.05 3.95 9.6 1.05 1.6m-3.55-4.3q0 .6.45 1.45l.8 1.3h.2l.1-.45q0-.7-.55-1.35l-1-.95m2.6 5.55q0-.45-.4-.65l-.55-.05-.15.15.35.65.45.45q.3 0 .3-.55" fill="#da8316"/><path d="m76.65 36.05-4.3-5.3q1.05-.4 1.75-1.8l2.1 4.75.45 2.35" fill="#e18412"/><path d="m81.9 40.7.3 4.65q-2.45-5.05-5.55-9.3l-.45-2.35-2.1-4.75.7-2.55 3.35 9.65 3.75 4.65" fill="#b25d0f"/><path d="M75.5 15.7V17q2.2 5.7 4.6 15.05l-1.05-1.6-3.95-9.6q-.15-3.85-1.15-5.3-.7-1-1.8-.85-.95.15-2.2 1.15l.75-1.5v-.05l.2-1.9q.45-7.25-2.95-10.35l.4-1.05q1.8 2.55 3.2 6.15l.9 5.35 3.05 3.2m3.65 17.6q0 .55-.3.55l-.45-.45-.35-.65.15-.15.55.05q.4.2.4.65m-2.6-5.55 1 .95q.55.65.55 1.35l-.1.45h-.2l-.8-1.3q-.45-.85-.45-1.45" fill="#fff81c"/><path d="m93.55 66.3.2.35q2.2 4.5 2.1 9.75l-.2.9q-2.8 10.65-8.9 11.65L84.65 82l-.05-.05-.05-.05-.05.05-2.15 2.65q-3.1 3.15-8.15 5.5L76 78.35l-.05-.05-.05-.05h-.05L72.9 80.5l-2.3.75-4.1 1.55q-2.55 1.05-4.45 2.15l-.65.5q-.5-1.85-.65-3.8 6.4-5.7 12.05-7.6L75.6 67l.8 4.35q2.6 7.9 1.4 13.7 5.85-4.9 6.75-9.95 2.8 4.7 3.15 10.5 3.4-1.25 3.1-6.95 2.2-.5 3.05-4.1l-4.5-7.85-4.3-6.3-4.15-10.35L73.65 36q-4.4-4.5-8.1-4.85l.6-.95q3.5-.25 7.6 3.6 3.85 4.55 6.95 13.15l6.7 14.45q3.5 7.15 6 7.6l.15-2.7" fill="#fff110"/><path d="M54.4 39.05q3.4-1.2 7.5-3.3l.7-.35h.05l2.75-4.1.15-.15q3.7.35 8.1 4.85l7.25 14.05 4.15 10.35 4.3 6.3 4.5 7.85q-.85 3.6-3.05 4.1-1.65-5.75-4.8-10-5.2-3.55-9.9-9.4l-.4-4.75q-.15-8.45-5.1-8.2-6.75-.6-8.35 6.55v-3.4l2.6-9.3-3.55.7-6.9-1.8" fill="#ffce06"/><path d="m66.15 30.2 2.4-3.45q.45 2.85 1.8 4.05 1 .25 1.8 0 2.45 2.65 4.6 5.7l.3.45q2.85 4.1 5.2 8.9l.05.05h.1v-.1l-.35-6.6.15.3.65 2.35q4.25 14.7 10.7 24.45L93.4 69q-2.5-.45-6-7.6l-6.7-14.45q-3.1-8.6-6.95-13.15-4.1-3.85-7.6-3.6" fill="#ffffd5"/><path d="M60.75 81.65q-.3-2.75 0-5.75l.25-2.25 1.9-3.8.75-5.15q-1 5.45-7.45 6.6-1.45-2.05 1.1-10.1h-1.1l.6-2.25Q51.25 64 46.7 64.9l2-6.2.15-.4q1.8-5.6 4.65-8.65l-3.1-.25 1.75-3.65-4 2.45q-7.85 1.8-12.9-.95l-2.4-2.65q6.7.05 11.15-4.05l1.6.2 4-.35 4.8-1.35 6.9 1.8 3.55-.7-2.6 9.3v3.4q1.6-7.15 8.35-6.55 4.95-.25 5.1 8.2l.4 4.75q4.7 5.85 9.9 9.4 3.15 4.25 4.8 10 .3 5.7-3.1 6.95-.35-5.8-3.15-10.5-.9 5.05-6.75 9.95 1.2-5.8-1.4-13.7L75.6 67l-2.8 7.05q-5.65 1.9-12.05 7.6" fill="#ffffdc"/><path d="m61 73.65.4-2.1v-.05l-.05-.05-.05-.05-.05.05-8.4 5.75V66.8l-.05-.05-.05-.05-.05.05-10.75 7.3Q42.3 68.4 44 62.7q.8-2.75 1.95-5.5 1.15-2.8 2.6-5.65v-.1l-.1-.05q-4.95.55-8.95-1.25l-.05-.05-.05-.05h-.1q-2.15-1.05-4.05-2.8 5.05 2.75 12.9.95l4-2.45-1.75 3.65 3.1.25q-2.85 3.05-4.65 8.65l-.15.4-2 6.2q4.55-.9 10.1-5.95l-.6 2.25h1.1q-2.55 8.05-1.1 10.1 6.45-1.15 7.45-6.6l-.75 5.15-1.9 3.8" fill="#fff312"/><path d="M43.75 62.75q-1.65 5.75-2.05 11.5l.05.1h.15L52.65 67v10.5l.1.05h.05l8.35-5.8-.4 2.45-.25 2-8.8 9.7-12 24.8-.1-.05v-8.45q-.2-10.8 2.45-16.8L25.1 96.9l4.2-11.7q5.6-10.4 11.2-14.6l-10.25-3.1-.45-.15-.55-.45q6 .7 14.5-4.15" fill="#fc9a0e"/><path d="m45.65 57.3-1.9 5.45q-8.5 4.85-14.5 4.15l-3.35-2.55q9.3.25 19.75-7.05" fill="#eb9d12"/><path d="m26.5 75.7 4.65-2.35.05-.05v-.1l-.05-.05h-.1l-2.5 1.25-8.15-5.35q4.2-.1 9.8-1.4l.05-.15 10.25 3.1q-5.6 4.2-11.2 14.6l-4.2 11.7 16.95-11.5q-2.65 6-2.45 16.8v8.45l.1.05 12-24.8 8.8-9.7q-.4 5.05.7 9.4l.05.05.05.05h.05l.75-.5.55 5.1 3.65-7.25 4.3-1.6-.75 9.45 4.65-4.15-.55 3.55v.05l.05.05h.1l.05-.05v.05l-2.45 12.3-11.05 16.5-.05-20.35q-3.7 11.6-12.7 13.55-11.7 13.65-20.75 26.75l.6-11.25q.3-11.7 7.15-26.5-8.85 7.8-13.25 17.85-2.1-7.65-1.1-19.05v-.5l5.15-15.95-11.3 10.7 1.5-5.6L26.5 75.7" fill="#ffc504"/><path d="M54.2 123.25q1.25-3.7 2.1-7.55v-.1l-.05-.05-.1.05-.05.05q-1.55 6.75-4.05 12.9v.05l-.3.75-8.2 6.8q-6.6 3.35-14.15 9.9l-11.35 15.9v-16.6l2-10.05-3.35 4.95-1.4-17.45q-.6-11.6 4-26.4-10.6 8.15-14.75 15.05l1.25-9.4L11.45 87q3.75-4.15 8.7-8.15l6.35-3.15-10.6 13.15-1.5 5.6 11.3-10.7-5.15 15.95v.5q-1 11.4 1.1 19.05 4.4-10.05 13.25-17.85-6.85 14.8-7.15 26.5l-.6 11.25q9.05-13.1 20.75-26.75 9-1.95 12.7-13.55l.05 20.35 11.05-16.5 2.45-12.3v-.05q5.1-2.35 8.2-5.5l2 18.8-5.2 6.7-1.1-12.75-6.55 16.25-10.1 15.2-4.7 8.05-2.5-13.85M28.3 58.7q6-3.4 11.1-8.4h.05q3.95 1.85 8.8 1.35-1.45 2.8-2.6 5.65-10.45 7.3-19.75 7.05l3.35 2.55.55.45.4.3q-5.6 1.3-9.8 1.4l8.15 5.35q-7.8-2.4-13.1-7.6L25 62.75l3.1-3.15.2-.9" fill="#fff10d"/><path d="m28.55 74.4-8.4 4.2Q13.1 71 10.9 64.75q9.45-1.6 17.4-6.05l-.2.9-3.1 3.15-9.55 4.05q5.3 5.2 13.1 7.6" fill="#ffffad"/><path d="M51.75 129.35q-6.85 16.1-20.7 28.05-12.3 10.4-14.05 24.7-6.6-18.2-6.4-45.4-.05-12 3.3-29.35v-.1h-.05l-.1-.05-.05.05q-6 6.7-12.7 20.05l-.8-14.1Q.4 99.4 11.45 87L5.8 102.05l-1.25 9.4q4.15-6.9 14.75-15.05-4.6 14.8-4 26.4l1.4 17.45 3.35-4.95-2 10.05v16.6l11.35-15.9q7.55-6.55 14.15-9.9l8.2-6.8" fill="#ffffaf"/><path d="M92 85.9q2.3-2.9 3.75-8.25.9 2.85-.6 8.4-1.65 6.8-3.5 10.05l-.45-2.15.8-8.05" fill="#ffee0d"/><path d="m91.2 93.95-.25-1.3-.05-.05-.05-.05.05-.1v-.1h-.05v-.05l-.8-3.9-.05-.05h-.05l-.05.05-.05.05.4 1.95-5.9 13.25-2-18.8 2.2-2.6 2.05 6.85.05.05h.05q3.1-.45 5.3-3.25l-.8 8.05M62.1 85.2q1.8-1.1 4.2-2.15l-3.65 7.25-.55-5.1m8.5-3.75 2.35-.75.05-.05 2.75-2.1-1.25 8.2-4.65 4.15.75-9.45" fill="#ffb90d"/><path d="m90.25 90.4.4 1.95v.05q-4.5 19.95-14.7 29.15l.95-17.9v-.05l-.05-.05h-.1l-.05.05q-2.7 13.95-13.2 26.25-3.8 2.25-7.9 12.15-2.75-4.6-3.35-13.4l1.95-5.35 2.5 13.85 4.7-8.05 10.1-15.2 6.55-16.25 1.1 12.75 5.2-6.7 5.9-13.25" fill="#ffffa8"/></g><g id="q"><path d="m152.95 30 .05.2 8.4 1.7-1.8-1.9-5.6-.9-.3.2-.75.7m5.95 1.6-5.9-1.2-.1.1-.3.1q-8.05.15-13.75-.3l-.85-.1-.3-.15-.1-.25.15-.3.3-.1h.15l13.8.45q.5-.75 1.3-1.25 1.3-.9 3.6-1.15-3.35-5.65-2.55-11.7v-.05l2.35-8.45.2-.25.2-.05.25-.05.25.2 3 3.9 7.05 9.25v.05-.05l7.6 8.3.1.3-.15.3-.25.1h-.1l-.2-.15-7.6-8.3-6.8-8.95-.15.7-.55 2.75-.35 1.95-.3 1.25q-.55 4.6 4.9 10v.05l5.55 8.85 2-.85 1.05-.4.05-.05h.3l.2.25v.3l-.2.2-3.1 1.3-20.55 7.75h-.3l-.25-.25v-.3l.25-.2 1-.4 16.8-6.3-2.5-3.55-9.4 3.15h-.05l-1.3.05q-3.3.2-7.3 1.7l-.25.1h-.05l-.05-.05v-.1l.05-.05.2-.05q3.9-1.5 7.25-1.75l1.4-.05 6.45-2.15 2.95-1-.55-.75-1.75-1.8-2.8-.55m-8.35 4.35v.15l-.1.05-.05-.05-1.55-2.05V34l.05-.1h.05l.05.05 1.55 2m9.1-24.85-.4-.5-1.9-2.55-2.2 7.85q-.75 6.05 2.8 11.65l.05.25-.05.15 3.3 3.45.3.3 1.55 1.6.5.5v.05l.65.85 2.55 3.65 2.35-.85-5.5-8.85q-5.55-5.5-4.95-10.15v-.05l1.35-6.85-.1-.15h-.05l-.25-.35m-2 17.05q-2.05.2-3.35.8l5.1.8-1.6-1.65-.15.05" fill="#0c2e52" fill-rule="evenodd"/><path d="m152.95 30 .75-.7.3-.2 5.6.9 1.8 1.9-8.4-1.7-.05-.2m18.4 6.55-2 .85-5.55-8.85v-.05q-5.45-5.4-4.9-10l.3-1.25.8 4.8 11.35 14.5m-11.8-21.25.55-2.75 13.2 21.1-.4 1.05-7.65-8.3q-2.05-1.8-3.95-4.75-1.15-2.7-1.75-6.35m-.3-4.7.4.5-1 3.1-.65 6.1q.5 3.1 1.9 4.75l2.75 4-1.2 1.25-.2-.7q-1.2-3.2-2.6-4.9-2.6-4.15-1.15-9.35l1.75-4.75m-1.6 17.55.15-.05 1.6 1.65-5.1-.8q1.3-.6 3.35-.8" fill="#cb7810" fill-rule="evenodd"/><path d="m163.1 33.3-1.55-1.6 1.15-1.7 1.2 1.75-.8 1.55m-1.85-1.9-3.3-3.45.05-.15-.05-.25q-3.55-5.6-2.8-11.65l2.2-7.85 1.9 2.55-1.75 4.75q-1.45 5.2 1.15 9.35 1.4 1.7 2.6 4.9l.2.7v.2q.05.65-.2.9" fill="#faffc6" fill-rule="evenodd"/><path d="M138.85 30.3q5.7.45 13.75.3l.3-.1.1-.1 5.9 1.2q2.35 2.45 2.15 4.1l-6.45 2.15-1.4.05-4.05-5.15-.15.85-.9-.4 1.45 4.85-4.25.75-6.45-8.5" fill="#fff" fill-rule="evenodd"/><path d="m158.9 31.6 2.8.55 1.75 1.8.55.75-2.95 1q.2-1.65-2.15-4.1m-5.7 6.3q-3.35.25-7.25 1.75l-.65-.85 4.25-.75-1.45-4.85.9.4.15-.85 4.05 5.15m-7.15 1.9q4-1.5 7.3-1.7l1.3-.05h.05l9.4-3.15 2.5 3.55-16.8 6.3-3.75-4.95m4.5-3.85-1.55-2-.05-.05h-.05l-.05.1v.05l1.55 2.05.05.05.1-.05v-.15" fill="#b5d7d3" fill-rule="evenodd"/><path d="m172.4 36.15-1.05.4L160 22.05l-.8-4.8.35-1.95q.6 3.65 1.75 6.35 1.9 2.95 3.95 4.75l7.65 8.3-.5 1.4v.05" fill="#6f3809" fill-rule="evenodd"/><path d="m160.1 12.55.15-.7 6.8 8.95 7.6 8.3.2.15-1.55 4.4-13.2-21.1m-.45-1.45.25.35h.05l.1.15-1.35 6.85v.05q-.6 4.65 4.95 10.15l5.5 8.85-2.35.85-2.55-3.65-.65-.85v-.05l-.5-.5.8-1.55-1.2-1.75-1.15 1.7-.3-.3q.25-.25.2-.9v-.2l1.2-1.25-2.75-4q-1.4-1.65-1.9-4.75l.65-6.1 1-3.1" fill="#ffe61a" fill-rule="evenodd"/><path d="m119.25 29.6-.15-.3q0-.2.15-.3l1.55-1.55.15-.1h.2l5.9.6.15.05h.1l17.3 1.8.25.15.15.3-.2.3h-.05l-.25.1-15-1.55-1.85-.2q2.1 2.65 3.4 5.55 1.4 3.25 1.85 6.75l.15 1.65L144 40.1l2.7-.85 2.1-.7.1.05.05.05v.1l-.1.05-2.1.65-2.7.85-10.95 2.75h-.05v.05q.2 4.2-.9 8.9l16-6.4.5-.2.35.05.25.2V46l-.25.2-23.05 9.2-.2.05-.25-.1-5.9-4.4-.15-.25.1-.35.05-.05.2-.15q.15 0 .3.15l5.75 4.2q1.55-4.75 1.75-11.95l-.1-1.55q-.4-3.3-1.55-6.25-1.05-2.7-2.8-5.15h-3.3l-.3.15-.3-.15m3.75-.2-.85-1.1-.9-.1-1.2 1.2H123m7.95 5.35q-1.35-3.1-3.6-5.85l-.1-.05h-.3l-4.5-.5.85 1.1q1.8 2.55 2.9 5.45 1.15 2.85 1.5 6.1l.1 1.55q-.15 7.1-1.7 11.85l1.75-.7 4.05-1.6V52l.7-3.6q.4-2.75.25-5.3l.05-.05-.05-.05-.15-1.8q-.4-3.4-1.75-6.45" fill="#0c2e52" fill-rule="evenodd"/><path d="m129.5 29.1 15 1.55.25-.1 1.9 8.3q-6.25 1-9.85-.2-3.35-3.65-7.3-9.55" fill="#fff" fill-rule="evenodd"/><path d="M126.2 34.9q-1.1-2.9-2.9-5.45l-.85-1.1 4.5.5h.3l.1.05q2.25 2.75 3.6 5.85l-.7 2-4.05-1.85m6.4 13.5-.7 3.6v.1l-4.05 1.6q-.1-4.15 2-4.5l2.75-.8" fill="#ffe61a" fill-rule="evenodd"/><path d="M130.95 34.75q1.35 3.05 1.75 6.45l-5-.2q-.35-3.25-1.5-6.1l4.05 1.85.7-2" fill="#f4b83a" fill-rule="evenodd"/><path d="m119.25 29.6.3.15.3-.15h3.3q1.75 2.45 2.8 5.15 1.15 2.95 1.55 6.25l.1 1.55q-.2 7.2-1.75 11.95l-5.75-4.2q-.15-.15-.3-.15l-.2.15-.35-20.7m3.75-.2h-2.95l1.2-1.2.9.1.85 1.1m9.7 11.8.15 1.8.05.05-.05.05q.15 2.55-.25 5.3l-2.75.8q-2.1.35-2 4.5l-1.75.7q1.55-4.75 1.7-11.85l-.1-1.55 5 .2" fill="#cb7810" fill-rule="evenodd"/><path d="m148.15 45.6-16 6.4q1.1-4.7.9-8.9l.05-.05 10.95-2.75 2.7-.85 1.4 6.15m-1.45-6.35-2.7.85-10.95 2.75-.15-1.65q-.45-3.5-1.85-6.75-1.3-2.9-3.4-5.55l1.85.2q3.95 5.9 7.3 9.55 3.6 1.2 9.85.2l.05.4" fill="#b5d7d3" fill-rule="evenodd"/><path d="m112.25 19.8-.45.4-3.6 8.45 1.05.9h.05v.05l3.6 3.1h.05l.95 1.7 1.6 2.6v.1l-.75 1.5-2.1 3.1.6-.3.3-.05.15.05.1-.05 28.6 6.9v-.05l.25-.2.3-.05 1.85.7.1.05.55-.45-1-1.75-1.4-2.5L126 37.95l-11.3-4-.25.15h-.2l-.15-.05-.2-.3-.2-1.7-.55-4V28l-.7-6.35-.15-1.85h-.05m.1-1.25.3-.1.3.15.1.25 1.75 14.8v.1l28.35 10 2.8-1.35-.8-3.5.05-.05.05-.05h.05l7.9 4.3.2-.15.35.05 10.5 6.35.2.2v.25l-.1.2-.3.1-22.7 2.8-.25-.05-.2-.2-.05-.3.1-.2 2.95-2.9-1.25-.5-.2-.2-.05-.1h-.05l-28.5-6.85v.25l-.2.25-.05.05-6.5 3.8-5.05 6.05-.2.15h-.3l-.2-.15-3.05-4.6-14.2 6.8-.15.2-.25.2-.35-.05-.2-.25v-.35l.25-.3.1-.1 6.65-10.15-9 1-.25-.05-5.5-3.15-.2-.25v-.25l.2-.25 3.25-1.95-6-1.55L46.3 32.4l-.2-.1h-.25L28.1 29.2l-.2-.1L.15 5.85 0 5.6l.1-.3q.1-.2.3-.2L39.05 0l.2.05L46.1 3l.1.05 38 16.45-1.05-5.2V14l.2-.15.25-.1 7.15.75.25.1 6.65 5.5L96.3 9.95q-.05-.15.05-.25l.2-.2h.3l.2.15 9.95 13.5 5.35-4.6m-7.05 20.9.55.25.05.05v.05l8.8-1.45h.05l.5-1.3-.15-.3-2.35-3.95-3.35-2.85-.2-.2-7.95.45-.55.1q-2.25.5-2.65 1.55l-.1.5q2.3 4.45 7.35 7.1m4.15-7q1.4 1.2 1.6 2.35.2 1.15-.9 2.2l-.05.05h-.05l-4.6.3q-1.75-.5-3.45-1.9v-.05q-1.35-2.3-.6-3.4.45-.65 1.5-.9h.2l1.85-.1h.05l1.65.25 2.2.8.55.35.05.05m1.2 10.45q.85-.55 1.7-1v-.15l2.15-3.15-8.65 1.4h-.05l-.05-.1-1.5.3-3 10.1.25.35.25.35 4.75-5.65.1-.1 4.05-2.35m35.55-.5v.1l-.1.05-2.85 1.4.3.55 1.65 2.9.45.8v.15l-.6.5.05.3-.15.25-2.45 2.45 2.95-.35 10.6-1.3 6.65-.8-1.3-.8-.35-.2-7.75-4.65-.2-.3v-.2L147 39.9l-1.6-.8.8 3.3m-101-25.05.75.2h.1l3.95 1.1h.05l.05-.05 9.7-.55 2.75-.1 8.2-.45.9-.05h.05v.05l17.55 9.9 7.95 4.5L86.45 21l-.05.05h-.35l-1.4-.65-.1-.05-38.8-16.6L39.05.9l-7.8 1 7.6 13.8 6.35 1.65m39.45 3.05h.3l.15-.15-.25.2-.2-.05M66.6 32.2l-17-13.5-2.2-.55-8.55-2.2L23.15 24l5.2 4.35L46 31.45l.25.1h.2l17.4 3 8.95 1.6h.05l7.05 1.8.25.15 3.5-1.45 2.5-.8L97 32.5h.05l.55-.15-3.2-1.8L71.65 17.7l-3.2 1.55-5.8 2.9 34.4 10.15.05.05v.05l-.05.1H97l-4.45.05-25.1.3h-.05l-.8-.65m23.4.2 2.55.15L90 32.4l6.35-.1-33.8-9.95 4.35 8.55.55 1.1v.05l-.05.1h-.1l-.05-.05L66 29.6l-3.7-7.35-.65-.2-11.6-3.25 17.4 13.85 22.5-.25H90M38.55 15.65l-7.5-13.7L1.5 5.85l21.5 18 .05-.05 15.5-7.95-36-9.3-.05-.05v-.1l.05-.05h.05l35.95 9.3m23.8 6.4 8.8-4.35-20.7 1.1 11.9 3.25m35.25-10.2-.2-.35 1.2 9.4.05.05.1.1.15.2v.1l-.15.3-.25.1 3.1 2.2 6.05 4.15.4.35 3.4-7.95-4.25 3.6-.2.1h-.25l-.15-.15-6-8.1-3-4.1m-8.25 3.35-5.25-.5.5 2.35.55 2.7 1.25.5.2.2v.4L97.75 32.1l.1-.3q.4-1.15 2.8-1.7l.4-.1.7-.1 7.2-.35-.95-.8-.1-.15-.15-.15-1.2-.8-8.35-5.8-.15-.15v-.15H98v-.05h-.05l-.05-.05-7.4-6.1-1.15-.15m-4.15 4.75-.05.2v-.3l.05.1M83.35 37l-3.15 1.3v.2l-.2.25-3.55 2.05.65.4 1.7.95 2.4 1.4 9.55-1.1-.05-.1v-.05l.1-.05 11.8-2 1.55-.25h.05l1.3-.25q-3.1-1.55-5.15-3.7-1.55-1.6-2.55-3.55l-14.1 4.35-.35.15m26.35 0 .3-.15q1-.95.85-2-.2-1.1-1.6-2.3-1.1-.85-3.25-1.2l-1.05-.15q-2.65-.1-3.35.85v.05q-.7 1 .55 3.2 1.65 1.35 3.3 1.85l4.25-.15m-15.25 4.85-3.5.55.3.1.05.05.15.25-.1.3-5.1 7.8L85 52.75l3.2-1.5 10.05-4.8h.3q.2 0 .25.15l2.3 3.45 2.9-9.85-2 .35-7.55 1.3" fill="#0c2e52" fill-rule="evenodd"/><path d="m45.2 17.35-6.35-1.65-7.6-13.8 7.8-1 6.7 2.85 38.8 16.6.1.05 1.4.65 3.2 6.35-17.55-9.9v-.05h-.05l-.9.05-14.5-6.95 6.3 7.4-2.75.1q-4.55-6-13.25-5.6l-3.7-6.3h-3.7l6.05 11.2M23.15 24l15.7-8.05 8.55 2.2 2.2.55 17 13.5-1.8 1.05.45.05-1.4 1.25-17.4-3h-.2l-.25-.1-17.65-3.1-5.2-4.35m15.4-8.35L2.6 6.35h-.05l-.05.05v.1l.05.05 36 9.3-15.5 7.95-.05.05-21.5-18 29.55-3.9 7.5 13.7m23.8 6.4-11.9-3.25 20.7-1.1-8.8 4.35M103.2 33.1q-.7-.8.4-1.45l1.6-.1q.95.25.95.75l-.15.45-2.8.35m3.9-.6.95.2q-.1 1.15-1.05.75-.7-.45.1-.95m1.85 3.2-.55.3q-1.45-.75-.8-1.95 1.1-.25 1.25.75l.1.9m-2.05-.8q.75.75.35.85-.55.1-.9-.95l.55.1" fill="#fff" fill-rule="evenodd"/><path d="m70.75 17.5-8.2.45-6.3-7.4 14.5 6.95" fill="#d2d29a" fill-rule="evenodd"/><path d="m59.8 18.05-9.7.55-.05.05H50l-3.95-1.1h-.1l-.75-.2-6.05-11.2h3.7l3.7 6.3q8.7-.4 13.25 5.6" fill="#ebebb2" fill-rule="evenodd"/><path d="m62.6 27.35-.45-.3-6.75-5.3 6.65 2.5.55 3.1" fill="#ec943b" fill-rule="evenodd"/><path d="m61.65 22.05.65.2L66 29.6l-3.4-2.25-.55-3.1-.4-2.2" fill="#ffff85" fill-rule="evenodd"/><path d="m89.95 32.4-22.5.25-17.4-13.85 11.6 3.25.4 2.2-6.65-2.5 6.75 5.3.45.3L66 29.6l1.25 2.5.05.05h.1l.05-.1V32l-.55-1.1.95.1 22.1 1.4" fill="#ffff68" fill-rule="evenodd"/><path d="m67.85 31-1.65-3.25q-1.1-4 13.05 1.45l10.7 3.2-22.1-1.4m29.2 1.5.05-.1v-.05l-.05-.05-34.4-10.15 5.8-2.9q4.4 6.65 16.95 8.1l9 3.2 3.2 1.8-.55.15" fill="#e28d21" fill-rule="evenodd"/><path d="m68.45 19.25 3.2-1.55L94.4 30.55l-9-3.2q-12.55-1.45-16.95-8.1" fill="#ffff76" fill-rule="evenodd"/><path d="M90 32.4h-.05l-10.7-3.2Q65.1 23.75 66.2 27.75L67.85 31l-.95-.1-4.35-8.55 33.8 9.95-6.35.1" fill="#9f642f" fill-rule="evenodd"/><path d="m113.9 34.4.35-.3h.2l.25-.15 11.3 4 14.35 8.35 4.1.2 1 1.75-.55.45-.1-.05-1.85-.7-.3.05-.25.2v.05l-28.6-6.9-.1.05-.15-.05-.3.05-.6.3 2.1-3.1.75-1.5V37l-1.6-2.6M86.05 21.05h.35l.05-.05L97.2 31.9l-7.95-4.5-3.2-6.35M66.6 32.2l.8.65h.05l25.1-.3L97 32.5l-10.85 3.35-20.9-2.55-.45-.05 1.8-1.05" fill="#989863" fill-rule="evenodd"/><path d="M126 37.95 143.05 44l1.4 2.5-4.1-.2L126 37.95m-62.15-3.4 1.4-1.25 20.9 2.55-2.5.8-3.5 1.45-.25-.15-7.05-1.8h-.05l-8.95-1.6" fill="#ecece3" fill-rule="evenodd"/><path d="m146.2 42.4-.8-3.3 1.6.8.55 3.1-1.35-.6m16.5 7-6.65.8-2.55-1.25 5.6.05 3.6.4m-17.25 2.1-2.95.35 2.45-2.45.15-.25-.05-.3 7.7.1-7.3 2.55M84.1 14.7l5.25.5q3.35 5.7 8.15 9.65 5.3 3.55 9.05 2.8l1.2.8.15.15.1.15.95.8-7.2.35L84.1 14.7m16.25 21.35q2.05 2.15 5.15 3.7l-1.3.25h-.05l-1.55.25q-2.8-1.5-8.35-1.45-10.1 1.5-15.45 3.35l-1.7-.95 18.25-4.3 5-.85" fill="#6f3809" fill-rule="evenodd"/><path d="m89.35 15.2 1.15.15 7.4 6.1.05.05H98v.05h.05v.15l.15.15 8.35 5.8q-3.75.75-9.05-2.8-4.8-3.95-8.15-9.65m13.25 25.05-11.8 2-.1.05v.05l.05.1-9.55 1.1-2.4-1.4q5.35-1.85 15.45-3.35 5.55-.05 8.35 1.45" fill="#af5b0a" fill-rule="evenodd"/><path d="m147 39.9 6.1 3.35v.2l.2.3 7.75 4.65-.05.1-13.45-5.5-.55-3.1m9.05 10.3-10.6 1.3 7.3-2.55h.75l2.55 1.25m-55-20.2-.4.1q-2.4.55-2.8 1.7l-.1.3L86.6 20.85v-.4l-.2-.2-1.25-.5-.55-2.7L101.05 30m-17.7 7 .35-.15 14.1-4.35q1 1.95 2.55 3.55l-5 .85-13.95 2.3 1.95-2.2M102 40.55l2-.35-2.9 9.85-2.3-3.45q-.05-.15-.25-.15h-.3l-10.05 4.8 13.8-10.7" fill="#cb7810" fill-rule="evenodd"/><path d="m143.55 44.5-.3-.55 2.85-1.4.1-.05v-.1l1.35.6L161 48.5l-17.45-4m1.5 4.35.6-.5v-.15l-.45-.8 13.9 1.6-5.6-.05h-.75l-7.7-.1m-43.3-18.95-.7.1L84.6 17.05l-.5-2.35 17.65 15.2M77.1 41.2l-.65-.4L80 38.75l.2-.25v-.2l3.15-1.3-1.95 2.2 13.95-2.3-18.25 4.3m17.35.65 7.55-1.3-13.8 10.7-3.2 1.5 1.25-1.85 8.2-9.05" fill="#ffdb53" fill-rule="evenodd"/><path d="m161.4 48.6 1.3.8-3.6-.4-13.9-1.6-1.65-2.9 17.45 4 .4.1m-59.8-24.65-3.1-2.2.25-.1.15-.3v-.1l-.15-.2-.1-.1-.05-.05-1.2-9.4.2.35 4 12.1M86.25 50.9l5.1-7.8.1-.3-.15-.25-.05-.05-.3-.1 3.5-.55-8.2 9.05" fill="#faffc6" fill-rule="evenodd"/><path d="m101.5 50.65-.25-.35 3-10.1 1.5-.3.05.1h.05l8.65-1.4-2.15 3.15v.15q-.85.45-1.7 1l-4.05 1-5.1 6.75" fill="#fff76c" fill-rule="evenodd"/><path d="m110.65 42.9-4.05 2.35-.1.1-4.75 5.65-.25-.35 5.1-6.75 4.05-1" fill="#ffffd5" fill-rule="evenodd"/><path d="m103.2 33.1 2.8-.35.15-.45.95.2q-.8.5-.1.95.95.4 1.05-.75 1.3.9 1.3 2 0 .7-.4 1l-.1-.9q-.15-1-1.25-.75-.65 1.2.8 1.95h-1.5q-3.9-1.25-3.7-2.9m3.7 1.8-.55-.1q.35 1.05.9.95.4-.1-.35-.85" fill="#478ae2" fill-rule="evenodd"/><path d="M106.15 32.3q0-.5-.95-.75l-1.6.1q-1.1.65-.4 1.45-.2 1.65 3.7 2.9h1.5l.55-.3q.4-.3.4-1 0-1.1-1.3-2l-.95-.2-.95-.2m-4.55-.2v-.05q.7-.95 3.35-.85l1.05.15q2.15.35 3.25 1.2 1.4 1.2 1.6 2.3.15 1.05-.85 2l-.3.15q-2.75.1-5.1-1-2.9-1-3-3.9" fill="#4dffff" fill-rule="evenodd"/><path d="m109.7 37-4.25.15q-1.65-.5-3.3-1.85-1.25-2.2-.55-3.2.1 2.9 3 3.9 2.35 1.1 5.1 1" fill="#4285dc" fill-rule="evenodd"/><path d="m115.1 36.75.15.3-.5 1.3h-.05l-8.8 1.45v-.05l-.05-.05-.55-.25.15-2.1 4.6-.3h.05l.05-.05q1.1-1.05.9-2.2-.2-1.15-1.6-2.35l1.15.55q1.1 1.15 1.55 2.9l2.95.85" fill="#f8a233" fill-rule="evenodd"/><path d="M105.3 39.45q-5.05-2.65-7.35-7.1l.1-.5 1.4.4.95-.65 2.5-.5q-1.05.25-1.5.9-.75 1.1.6 3.4v.05q1.7 1.4 3.45 1.9l-.15 2.1m4.1-9.5 3.35 2.85 2.35 3.95-2.95-.85q-.45-1.75-1.55-2.9l-1.15-.55-.05-.05-.55-.35-2.2-.8 2.45-.35.3-.95" fill="#ffff39" fill-rule="evenodd"/><path d="M98.05 31.85q.4-1.05 2.65-1.55l.55-.1 7.95-.45.2.2-.3.95-2.45.35L105 31h-.05l-1.85.1h-.2l-2.5.5-.95.65-1.4-.4" fill="#fffff4" fill-rule="evenodd"/><path d="m97.6 11.85 3 4.1 7.05 12.15-6.05-4.15-4-12.1" fill="#ffec62" fill-rule="evenodd"/><path d="m100.6 15.95 6 8.1.15.15h.25l.2-.1 4.25-3.6-3.4 7.95-.4-.35-7.05-12.15" fill="#e69124" fill-rule="evenodd"/><path d="M112.25 19.8h.05l.15 1.85q-3.1 5.9-.3 10l1.55.4.2 1.7.2.3.15.05-.35.3-.95-1.7h-.05l-3.6-3.1v-.05h-.05l-1.05-.9 3.6-8.45.45-.4" fill="#fff56a" fill-rule="evenodd"/><path d="m113.7 32.05-1.55-.4q-2.8-4.1.3-10l.7 6.35v.05l.55 4" fill="#ffffdb" fill-rule="evenodd"/><path d="M92.55 32.55 90 32.4" fill="none" stroke="red" stroke-linecap="round" stroke-linejoin="round" stroke-width=".1"/><path d="M116.75 37.85v-.05l-.05-.05.05-.05q1.15-.75 2.25-1.05l.35-.1q-4.5-1.45-6.7-5.5l-.05-.05.05-.05.75-1.75.05-.05h.1l.05.05v.1l-.15.25-.25.7-.35.75q2.2 4.1 6.9 5.5l2.6.05 1.15-.95.8-.95q.4-.7-.15-1.05v-.05l-4.5-3.8-.7-.65-.05-.05V29l.1-.05h.05l.45.4 4.75 4.05q.75.45.25 1.35l-.8.9-1.1.95.05.05 1.2 1.65q3.35-1 5.1 1.7v.15q2.35-.35 3.4.75l.05.05q1.05 1.15.65 3.85v.05q-1.15 2.85-3.25 2.65-1.95 1.6-5.15 2.65h-4l-.05.05-.95.7-7.1-1.45-.65-.75q-2.6-.55-5.2-2.55l.2-.7q.05-3.5 3.25-8.05l.05-.05h.05l5.25-.6h.05l1.2 1.1v.1l-2.3 6.45-.05.05h-.05l-.05-.05-.05-.1h.05l2.2-6.35-1.05-1-5.15.6q-1.2 1.75-1.95 3.35-.95 1.95-1.15 3.65l-.1.9v.1q3 2.05 5.15 2.15l.6.9q4.5 1.5 7.7 1.4l.65-.5.25-1.2.05-.05.05-.05.1.05v.1l-.25 1.2-.05.05v.05q-.2.1-.35.25h3.45q4-1.25 4.9-2.5l-.05-.05v-.05l-.4-4.05v-.1l.1-.05.05.05.05.05.45 4.05q2.15.35 3.3-2.45.35-2.6-.6-3.75l-.1-.1q-1-.9-3.2-.6v1.95l-.05.05-.05.05-.1-.05V40.1q-1.7-2.5-4.85-1.6l-1.05 6.25v.05l-.1.05-.05-.05-.05-.05 1.05-6.3-1.2-1.65-.15-.05-2.6-.05-.35.05-.35.1q-1.1.3-2.2 1h-.1" fill="#0c2e52" fill-rule="evenodd"/><path d="M116.75 37.85h.1q1.1-.7 2.2-1l.35-.1.35-.05 2.6.05.15.05 1.2 1.65-1.05 6.3-8.2-.35 2.3-6.45v-.1m6.1 6.9 1.05-6.25q3.15-.9 4.85 1.6v2.15l-5.9 2.5m6.1-2.6v-1.8q2.2-.3 3.2.6l-3.2 1.2m-20.6-1.25q.75-1.6 1.95-3.35l5.15-.6 1.05 1-2.2 6.35q-3-.85-5.95-3.4m11.3-11.15 4.5 3.8v.05q.55.35.15 1.05l-.8.95q-3.9.85-7-1.8l-3.3-3.55.25-.7 2.7-1.75 3.5 1.95" fill="#fff" fill-rule="evenodd"/><path d="m122.65 44.75.05.05.05.05.1-.05v-.05l5.9-2.5v.1l.1.05.05-.05.05-.05v-.15l3.2-1.2.1.1q.95 1.15.6 3.75-1.15 2.8-3.3 2.45l-.45-4.05-.05-.05-.05-.05-.1.05v.1l.4 4.05v.05l.05.05q-.9 1.25-4.9 2.5H121q.15-.15.35-.25v-.05l.05-.05.25-1.2v-.1l-.1-.05-.05.05-.05.05-.25 1.2-.65.5q-3.2.1-7.7-1.4l-.6-.9q-2.15-.1-5.15-2.15v-.1l.1-.9q.2-1.7 1.15-3.65 2.95 2.55 5.95 3.4h-.05l.05.1.05.05h.05l.05-.05 8.2.35" fill="#d1d2b9" fill-rule="evenodd"/><path d="m123.5 35.6-1.15.95-2.6-.05q-4.7-1.4-6.9-5.5l.35-.75 3.3 3.55q3.1 2.65 7 1.8" fill="#dbdcc3" fill-rule="evenodd"/><path d="m119.5 29.35-.45-.4H119l-.1.05v.05l.05.05.7.65-3.5-1.95-2.7 1.75.15-.25v-.1l-.05-.05h-.1l.55-1.55 2.15-.7q2.2.8 3.1 1.85l.25.6" fill="#0a2849" fill-rule="evenodd"/></g><g id="r" fill-rule="evenodd"><path d="M27.25.65V.3l.25-.25h.3l.25.2.55 1.2q2.5.2 3.35 1.15l.2.2.05.2v.2l-.85 3.6 1.4 5.55v.2l-.1.2-6.8 7.65-.05.05-1.5 10-.05.15-.05.25-2.05 3.05-.15.2h-.25l-.2-.05-1.1-.8-.65 2.45q1.75.35 2.4 1.6.4.6.45 1.4L22.4 41l-.2.25-.35.05-.25-.2-.05-.35.25-1.45-.3-1.6q-.65-1-2.3-1.25l-.25-.1-.1-.2v-.25l.8-3.05.2-.25.35-.05h.05l.05-.05v-.05l-3.85-3.2-2.05 1.8.05 1.05.15 7.2.05 3.75v.05h-.05l-.1.05-.05-.05-.05-.05-.1-7-.1-4.8-1.9 1.7-.05.05h-.05l-.05-.05-.3-.4-1.6-2.05v-.05h-.05l-.75.95-1.6 1.7-.05.05h-.05l-.05-.05-.35-.25L6 31.15l-.5-.85v.1l-.05.05-.65.35V37l-.3 1.2-1.15 4.5-.25 1-.05.05h-.1l-.05-.05-.05-.05.3-1.05 1.15-4.55.3-1.1v-6.1l-2.15 1v.2l-.05.15v4.05l-.05.15-.55 5.5-.15.75v.05l-.1.05-.05-.05-.05-.05.75-6.4v-3.9l-1.3.7-.3.05-.25-.15-.1-.25L0 30.15v-.1l.55-4.85.2-.3.2-.1.7-2.3.05-.05 3.2-5.5.05-.05H5L.55 11.55v-.1L8.45.5l.1-.05.05.05.05.1-.05.05-.15.2L.8 11.4l-.05.1 6.6 7.95 1.15-1.1q-2.35-2.6-4.95-6.3l-.2-.3-.3-.45-.05-.05.05-.05 7-10.35.2-.35.05-.05.05.05.05.05v.1l-.15.2-7 10.4.5.75q2.55 3.65 4.9 6.2l.5-.5h.05l.55.05 1.7-4.2v-.05l1.1-.85.15-.65-.95-7.2v-.05l.1-.05h.05l.05.1.95 7.2-.1.65-.05.05v.1l-1.15.85-1.65 4.15 1.05.85 2.65-4.3 1.3-2.15H15l.05-.05 3-.2-.4-11.2L17.6.6l.05-.1.05-.05.1.05v.1l.05.15.4 11.15q2.1-.55 3.65-2.15L27.35.8l-.1-.15M1.75 31.6l.1-.05h.3l.2.15 2.25-1.05.05-.05.7-.3.1-.05.05.05-.8-1.85-3.1 1.3-.7.25-.05.15.2 1.8.7-.35m2.95-3.15.05-.05H4.7v.05M31.1 9.5l-.1-.45-.5-2.15v-.2l.85-3.5q-.8-.75-3.05-.9l-.2-.1-.15-.15-.5-1.05-5.35 8.9h-.05l-2.3 1.7-1.6.55-.15.05-2.9.15-4 6.45.7 1.5.05.25.35 1.2 3.25-2 4.3-2.55 10.4-7.7.1-.05.05.05v.15l-7.45 5.5-1.55 7.95-.85 6.65 1.7 1.05 1.4-1.1 1.4-9.4.15-.3h.05l.1-.2 6.6-7.45-.75-2.85m-26 7.55L5.05 17v.05l-.4.7-2.75 4.8-.75 2.3.2.15.05.3-.4 3.55-.1.95 3.75-1.55-.2-.8-.1-1.25q.05-3.05 2.85-6.65l-2.1-2.5m4.65.9-.5-.05-.5.5H8.7l-.05.05-1.25 1.2q-2.85 3.6-2.85 6.65l.15 1.45.15.55q.6 1.6 1.35 2.75l1.1 1.45.45.4.05-.05 1.45-1.55 2.25-2.95h.05l1.35-2.2.15-.2-1.4-5.35-.75-1.7q-.5-.75-1.1-.95h-.05m2.95-5.35.05.05-.05-.05m-.95 15.8 1.05 1.15h.05l3.3-2.5-.25-2.6-2.35 3.75-.25-2.2-.15.15-1.4 2.2-.05.1.05-.05m1.1 1.55-.15.1-1.1-1.45-1.25 1.7.05.05 1.85 2.4.35-.35 1.65-1.45.05-.05 1.9-1.65.2-.2h.1l4 3.35.3.05.45.35.45.25 1.75-2.65v-.05l-.05.05-1.35.75-.8-.5-4.85-3.25-.3.25-3.25 2.3" fill="#0c2e52"/><path d="m1 28.85.4-3.55-.05-.3-.2-.15.75-2.3 2.75-4.8q.55 1.95 0 3.45v.2L3.1 27.5l-.15.05L1 28.85" fill="#7388db"/><path d="M8.65 18.2Q6.3 15.65 3.75 12q1.5-3.1 3.75-.65 2.85 2.6 1.15 6.85" fill="#768add"/><path d="m3.35 11.75.2.3q2.6 3.7 4.95 6.3l-1.15 1.1-6.6-7.95.05-.1 2.55.35" fill="#9fdeee"/><path d="m10.05.85-7 10.35-.05.05.05.05.3.45L.8 11.4 8.45.85h1.6m4.6 42.25v-.05l-.05-3.75 3.45-6.15q-.2-.95-1.6-2.25l-2 1.2-.05-1.05 2.05-1.8 3.85 3.2-.05.1h-.05l-.35.05-.2.25-.8 3.05v.25l.1.2.25.1q1.65.25 2.3 1.25l.3 1.6-7.3 5 .15-1.2M18 12.2l.15-.05 1.6-.55 2.3-1.7h.05L27.45 1l.5 1.05.15.15.2.1q2.25.15 3.05.9l-4.1 3.55L26.1 7.8l-3.55 3.85q-3.45 2.2-6.1 2.55l-.5-1.3 2.05-.7" fill="#649ac1"/><path d="m27.25.65.1.15-5.45 8.95q-1.55 1.6-3.65 2.15L17.85.75l9.4-.1M11.85 4.7l-.1.05v.05l.95 7.2-.15.65-1.1.85v.05l-1.7 4.2-.55-.05h-.05l-.5.5q1.7-4.25-1.15-6.85Q5.25 8.9 3.75 12l-.5-.75 7-10.4h.9l.75 3.85h-.05m19.5-1.5-.85 3.5v.2l.5 2.15q-.8-2.55-3.75-2.3l4.1-3.55" fill="#233584"/><path d="m17.65.75.4 11.2-3 .2-.05.05h-.05l-1.3 2.15-.8-1.6-.05-.05v-.05l.1-.65-.95-7.2-.05-.1-.75-3.85 6.5-.1" fill="#d1d2b9"/><path d="M13.65 14.35 11 18.65l-1.05-.85 1.65-4.15 1.15-.85.1-.05.8 1.6M2.35 36.4l.05-.15v-3.2l2.2-1.15v5.05l-.3 1.1-1.95-1.65m2.15 1.8.3-1.2v-5.2l1.2-.65 1.35 1.7.35.25.05.05h.05l.05-.05 1.6-1.7 2.4 1.15.3.4.05.05h.05l.05-.05 1.9-1.7.1 4.8q-2.9 1.8-5.85 3.55-2.05.3-3.95-1.4m.05-11.9q0-3.05 2.85-6.65l1.25-1.2.05-.05h.05l.5-.5.5.05-.25.75-.7 2.3-1.35.25q.7.45.9 1.3v1.1q-.8 1.85-2.1 1.1v-.1l-.3-1.6q-.45 1.15-.5 3l.05.55-.95-.3m4.55-.4q-1 1.3-1.2 0 .5-1.45 1-1.7.4.55.2 1.7m-2.3-.15q.65-.2.6.4-.05.5-.65.55-.75-.35 0-.9l.05-.05" fill="#fff"/><path d="m31 9.05.1.45-.8.1v-.1l-.05-.05-.1.05-10.4 7.7-4.3 2.55q-.8-2.55 1.25-4.55l4.6-2.15q1.4-1.05 1.25-1.4L26.1 7.8l1.15-1.05Q30.2 6.5 31 9.05" fill="#6a7fd1"/><path d="m31.1 9.5.75 2.85-6.6 7.45-.1.2h-.05l-.15.3-1.4 9.4-1.4 1.1-1.7-1.05.85-6.65 1.55-7.95 7.45-5.5V9.6l.8-.1M15.45 19.75l-3.25 2-.35-1.2-.05-.25 4.45-6.1h.2q2.65-.35 6.1-2.55.15.35-1.25 1.4l-4.6 2.15q-2.05 2-1.25 4.55m-3.7 8.6 1.4-2.2.15-.15.25 2.2 2.35-3.75.25 2.6-3.3 2.5h-.05l-1.05-1.15v-.05" fill="#2e4192"/><path d="m1.8 41.9.55-5.5 1.95 1.65-1.15 4.55-1.35-.7m1.55.8 1.15-4.5q1.9 1.7 3.95 1.4 2.95-1.75 5.85-3.55l.1 7 .05.05.05.05.1-.05h.05l-.15 1.2-3.25 5.25-7.9-6.85m11.25-3.4-.15-7.2 2-1.2q1.4 1.3 1.6 2.25L14.6 39.3" fill="#b5d7d3"/><path d="M2.4 33.05v-.85l.05-.15v-.2l2.15-1v1.05l-2.2 1.15m2.4-1.25v-1l.65-.35.05-.05v-.1l.5.85-1.2.65m4.65-.4.75-.95.05.05 1.6 2.05-2.4-1.15" fill="#caece8"/><path d="m12.9 26.15-1.35 2.2h-.05L9.25 31.3 7.8 32.85v-3.8l.75-.15v-.05q1.2-1.05 1.65-2.75l.9-.1v-.05l1.8.2" fill="#c9782b"/><path d="M9.75 17.95h.05q.6.2 1.1.95l.75 1.7 1.4 5.35-.15.2-1.8-.2-.35-2.75-.8-2.2-.45-2.3.25-.75" fill="#f19b2e"/><path d="M6.25 24.75q1.3.75 2.1-1.1v-1.1q.75-.25.95.5.45 2.5-.25 3.9-1.55 1.55-2.9.3-.15-1.15.1-2.5M9.1 25.9q.2-1.15-.2-1.7-.5.25-1 1.7.2 1.3 1.2 0m-2.3-.15-.05.05q-.75.55 0 .9.6-.05.65-.55.05-.6-.6-.4" fill="#4689e1"/><path d="m5.5 26.6-.05-.55q.05-1.85.5-3l.3 1.6v.1q-.25 1.35-.1 2.5 1.35 1.25 2.9-.3.7-1.4.25-3.9-.2-.75-.95-.5-.2-.85-.9-1.3L8.8 21l1.2 1.3.15 2.25-.65 2.75q-.8 1.25-1.95 1.3-1.05-.2-1.8-.95l-.05-.15-.2-.9" fill="#77d0ff"/><path d="m10 22.3.5.6q.1 1.8-.3 3.2-.45 1.7-1.65 2.75v.05l-.75.15q-1.5.2-2.05-1.4.75.75 1.8.95 1.15-.05 1.95-1.3l.65-2.75L10 22.3" fill="#4083da"/><path d="m8.8 21 .7-2.3.45 2.3.8 2.2.35 2.75V26l-.9.1q.4-1.4.3-3.2l-.5-.6L8.8 21" fill="#ffff3e"/><path d="m7.8 32.85-.05.05-.45-.4-.4-2.5q-.9-1.95-2.2-2.25l-.15-1.45.95.3.2.9.05.15q.55 1.6 2.05 1.4v3.8" fill="#f59f30"/><path d="m5.5 30.3-.05-.05-.1.05-.7.3-.05.05-2.25 1.05-.2-.15h-.3l-.1.05-.15-1.85 3.1-1.3.8 1.85" fill="#77aed5"/><path d="m1.75 31.6-.7.35-.2-1.8L.9 30l.7-.25.15 1.85m10.85.8-.35.35-1.85-2.4-.05-.05 1.25-1.7 1.1 1.45.15-.1-.25 2.45m3.5-4.75.3-.25 4.85 3.25v2.15l-.45-.35-.3-.05-4-3.35h-.1l-.2.2-.1-1.6" fill="#b7f7ff"/><path d="m12.85 29.95 3.25-2.3.1 1.6-1.9 1.65-.05.05-1.65 1.45.25-2.45m8.4.7.8.5 1.35-.75h.05l-1.75 2.65-.45-.25v-2.15" fill="#72a9d1"/><path d="m7.3 32.5-1.1-1.45q-.75-1.15-1.35-2.75l-.15-.55q1.3.3 2.2 2.25l.4 2.5" fill="#ffff39"/><path d="m11.8 20.3-.7-1.5 4-6.45 2.9-.15-2.05.7.5 1.3h-.2l-4.45 6.1" fill="#a8e8f8"/><path d="m5.1 17.05 2.1 2.5q-2.8 3.6-2.85 6.65l.1 1.25.2.8L.9 29.8l.1-.95 1.95-1.3.15-.05 1.55-6.1v-.2q.55-1.5 0-3.45l.4-.7h.05" fill="#394c9e"/></g><g id="s" fill-rule="evenodd"><path d="m33.25 36.6-.35-.3-.15-.35.15-.3q.1-.15.3-.15.15 0 .3.15l1.3 1.2 12.65 6.7 3.3.7q2.45.5 4.55 1.3l.2.05q1.45.55 2.75 1.2l.2.25v.3l-1.9 4 2.5.2.25.15q2.45 2.25 3.1 4.7v.1l.05.05.1.3.2 5.4q.1 1.3-.5 1.8-.5.5-1.35.45l.15 1.15-.05.25-.15.15q-2.75 1.95-6-3.2l-.9-.3 1.1 1.7.05.3-.3 6.4-.15.3-.25.1q-2.9.2-4.05-1t-.7-3.6l-2.9-1.9-1.5 1.8q-.6 2.75-1.3 3.85v.05l-.3.3q-.6.7-1.3.4l-.95-.9-1.55.2-.15.15-.3.1-.3-.15-3.55-4.55h-.05l-1.25-2q-4.95-7.95-7.8-18.3L23 43.9l-.2-.25v-.35q.1-.15.3-.2l.3.05 1.15.65L27 45.1l.25.3q2.7 9.9 7.35 17.65.35-2.5 1.3-4.8v-.05h-.1l-.05-.05q-3.6-6.1-6.65-14.85v.05l-1.4-1.9v-.1l.05-.1h.05l.05.05 1.4 1.9.05.05q3.05 8.7 6.6 14.8v.05h.05l.05-.25q1.9-4.6 5.85-8.7h.05q3-2.75 7.7-4.3l-2.35-.45-.1-.05-12.8-6.75-.1-.05-1-.95m18.9 13.85 3.3 1.1.05-.05 1.8-3.8h-4.45q-1.95.6-3.65 1.6l2.9.95.05.05v.15m8.75 5.85-3.7-2.1-.05-.1v-.05l.05-.05h.1l4.15 2.35q-.6-2-2.6-3.9l-3-.3-.25-.1-.15-.25-3.25-1.1q.05 2.3-.85 3.7l-.05.05q-3.05 2.25-6.5 3.65-2.3.9-4.8 1.4l-1.25 3.9-.2 1q2.8 2.8 3.15 5l.1.05.2.2.65.75.4-.1.35-.55.95-2.95q-.5-1.5-.65-2.55l.05-.05v-.05l1.95-1.45.1-.05.05.05 1.45 1.4v.05l3.05 2.05.15.2.05.15v.1q-.45 2.1.45 3.1.9.85 2.95.75l.15-3.3.15-2.55-1.7-2.8-.1-.25.1-.25q.1-.1.25-.15h.3l2.2.9.2.2.25.4q2.45 3.7 4.4 2.75l-.15-1.4q-.05-.15.05-.25l.2-.2h.05l-.3-3.45-.05-.55-4-2.9-.05-.05.05-.05.05-.05h.1l4 2.9.05.05v.05l.35 4.05 1.15-.15q.3-.35.25-1.15l-.2-5.4-.15-.25-.65-.35M37.25 66.9l.6.75.45-3.25h.05q.45-2.3 1.5-5v-.05q3.4-6.8 8.95-10.05h.05l.05-.05q1.8-1.1 3.9-1.75h4.6l.05-.15q-1.5-.7-3.25-1.25l-3.65-1.05-.55-.1q-4.9 1.55-8 4.35-3.95 4.1-5.8 8.7l-.45 1.25q-.7 2-1 4.1l.2.3 1.25 1.95v-.05l1.05 1.35M49.9 49.75l-.95-.3-.05.05q-5.4 3.15-8.75 9.75l4.65-1.35q3.4-1.35 6.35-3.6.9-1.45.85-3.65v-.15l.05-.05H52l-2.1-.7m-3.25 14-.9-.85-1.8 1.35.5 2.15.1-.2L46.3 64q.1-.15.3-.2h.1l-.05-.05m-7.15 6 2-.3q-.4-2.15-3-4.75-.4 1.65-.45 3.2l1.45 1.85" fill="#0e2d4c"/><path d="m33.25 36.6 1 .95.1.05 12.8 6.75.1.05 2.35.45q-4.7 1.55-7.7 4.3h-.05q-3.95 4.1-5.85 8.7l-.05.25-.05-.05q-3.55-6.1-6.6-14.8l-.05-.05-1.4-1.9-.05-.05-.05-.1 5.5-4.55m5.5 26.8L40 59.5q2.5-.5 4.8-1.4 3.45-1.4 6.5-3.65l.05-.05q.9-1.4.85-3.7l3.25 1.1.15.25.25.1 3 .3q2 1.9 2.6 3.9L57.3 54h-.1l-.05.05v.05l.05.1 3.7 2.1-.75 3.2-.05-.05-4-2.9H56l-.05.05-.05.05.05.05 4 2.9.05.55q-1.65 2.1-4.25 2.55l-.25-.4-.2-.2-2.2-.9h-.3q-.15.05-.25.15l-.1.25.1.25 1.7 2.8-.15 2.55q-1.75.4-3.55-.65l-.05-.15-.15-.2-3.05-2.05v-.05l-1.45-1.4-.05-.05-.1.05-1.95 1.45v.05l-.05.05q.15 1.05.65 2.55l-.95 2.95-4.65-6.35" fill="#fff"/><path d="m60.9 56.3.65.35.15.25.2 5.4q.05.8-.25 1.15l-1.15.15-.35-4.05v-.05l.75-3.2m-.9 3.85.3 3.45h-.05l-.2.2q-.1.1-.05.25l.15 1.4q-1.95.95-4.4-2.75 2.6-.45 4.25-2.55m-5.9 7.05-.15 3.3q-2.05.1-2.95-.75-.9-1-.45-3.1v-.1q1.8 1.05 3.55.65m-10.7 2.55-.35.55-.4.1-.65-.75-.2-.2-.1-.05q-.35-2.2-3.15-5l.2-1 4.65 6.35m6.5-20 2.1.7v.2q.05 2.2-.85 3.65-2.95 2.25-6.35 3.6v-1.8l.05-.25q.75-4.35 5.05-6.1" fill="#d1d2b9"/><path d="m44.8 57.9-4.65 1.35q3.35-6.6 8.75-9.75l.05-.05.95.3q-4.3 1.75-5.05 6.1l-.05.25v1.8" fill="#989863"/><path d="M27.8 41.25h-.05l-.05-.05.05-.05.05.1M36.2 58q1.85-4.6 5.8-8.7 3.1-2.8 8-4.35l.55.1 3.65 1.05q-4.3 1.6-9.35 4.9l-6.8 9.05L36.2 58" fill="#ffe61a"/><path d="m37.25 66.9-1.05-1.35v.05l-1.25-1.95-.2-.3q.3-2.1 1-4.1 2.15 2.4 1.5 7.65" fill="#f4b83a"/><path d="M52.15 50.4v-.1l-.05-.05-2.9-.95q1.7-1 3.65-1.6h4.45l-1.8 3.8-.05.05-3.3-1.1v-.05m2.05-4.3q1.75.55 3.25 1.25l-.05.15h-4.6q-2.1.65-3.9 1.75l-.05.05h-.05q-5.55 3.25-8.95 10.05v.05q-1.05 2.7-1.5 5h-.05l-.45 3.25-.6-.75q.65-5.25-1.5-7.65L36.2 58l1.85 2.05 6.8-9.05q5.05-3.3 9.35-4.9m-9.75 20.3-.5-2.15 1.8-1.35.9.85-.05.05q-.2.05-.3.2l-1.75 2.2-.1.2m-4.95 3.35-1.45-1.85q.05-1.55.45-3.2 2.6 2.6 3 4.75l-2 .3" fill="#cb7810"/><path d="m27.75 41.25-.05.1v.1l1.4 1.9v-.05q3.05 8.75 6.65 14.85l.05.05.1.05q-.95 2.3-1.3 4.8-4.65-7.75-7.35-17.65l-.25-.3-2.45-1.3 3.15-2.6.05.05" fill="#b5d7d3"/><path d="M29.7 52.85v.4l-.25.2-.35-.05h-.05l-.15-.25-2.15-6.9v-.15l-1.25-1.3L6.2 34.05 6 33.8v-.15L.1 33l-.05-.05L0 32.9v-3.2l.05-.05L0 29.6v-.75q.75-2 3.2-5.35l1-1.3v-.05l5.7-3.5 2.5-3-.1-.25.1-.35 3.05-3.55.1-.1L31.95.05 32.2 0l.3.1.1.3q.8 8.75-.95 17.45l-.75 3.2-.1.15-3.55 4.2q1.85 1.9 2.05 4.3v.2l.05.05 5.15 6.6 12.65 6.95.25.3-.05.3-.25.25-.35-.05-3.55-1.95-9.2-5.1-.1-.1-4.3-5.45-.95-1.2-.05-.1-.05.05q-.25 1.6-1.05 2.25l-.05.05q-4.95.95-11 0h-.05l-3.85-1.2-.05-.05-.8.5 4.75 2.95 9.1 5.65.8.45 1.35.3.55-1.6.05-.05.1-.05.05.05v.1l-.5 1.6H28l.05.05 2 3.9 2.25 5.5.3.75v.1l-.05.05h-.05l-.1-.05-.25-.75-2.15-5.2-2.1-4.2-.5 1.4-.05.05h-.1l-.05-.05-.05-.1.5-1.3-1.35-.3h-.05l-4.5-2.8-5.45-3.35-4.75-2.95v-.05l-.05.05-.15.05h-.05l-.05.05-4.15 1.3 6.9 3.8 10.2 5.75 1.75.95.1.1 1.35 1.35.1.3v.1l.05.1 2.15 6.85m1.75-39.15.35-3.6.1-1.2.05-2.45v-1.7L31.8 1.2l-4.25 3L27 16.95l-.05.1-5.6 6.15h-.05l-8.4 2.7-5.95 4.4H6.9l-6.7-.45v2.95l5.85.6q.1-.15.25-.15h.35l.25.15 4.3-1.35h.05l.05-.05.1-.05h.05v-.05l3.65-2.3h.1l.05-.05.15-.05h.05l10.8-4.05.1-.3 3.75-4.45.3-1.3.45-2.25.6-3.45m-4.3-4.65.2-4.75-11.25 7.8-2.85 3.35-.2.2q-.1.1-.25.15l-.2-.05h-.05L11 17.65l-1 1.15v.05l-.6.35-5.05 3.1-.05.05-1.25 1.7Q.9 27.05.2 28.9v.7h.05l.85.1 5.75.4 2.7-2 3.25-2.4h.05l8.4-2.65 5.55-6.1.35-7.9m-.75 16.7-.05-.1-.55.2.75 3.8v.1l-.05.05q-2.75 2.45-11.05-.1l-.15.1h-.1l-2.5 1.6 3.75 1.15q6.05.95 10.95 0 .85-.75 1.05-2.65l-.05-.1q-.15-2.3-2-4.05m-.05 3.9-.75-3.7-9.8 3.65q7.85 2.35 10.55.05" fill="#0c2e52"/><path d="m13.25 15.45 2.85-3.35 11.25-7.8-.2 4.75-13.9 6.4M1.1 29.7l-.85-.1H.2v-.7q.7-1.85 2.85-4.85l-.65 2.1-.95 2.55-.35 1m8.3-10.5.6-.35v-.05l1-1.15 13.85-3.1-1.25 2.9q-8.95.15-14.2 1.75" fill="#ffe61a"/><path d="m31.45 13.7-.6 3.45-2.5-2.45.65-1.55 2.45.55m-1.05 5.7-.3 1.3-3.75 4.45-.1.3-10.8 4.05h-.05l-.15.05-.05.05h-.1l-3.65 2.3-.05.05-.1.05-.05.05h-.05L6.9 33.4l-.25-.15H6.3q-.15 0-.25.15L.2 32.8v-1.65l8.4.45q3.2-2.2 6.45-4.45 4.4-.9 9.7-4.55l3.05-4.85 2.6 1.65M11 17.65l1.55-1.9h.05l.2.05q.15-.05.25-.15l.2-.2 13.9-6.4-2.3 5.5L11 17.65" fill="#f4b83a"/><path d="m9.55 28.1-2.7 2-5.75-.4.35-1 8.1-.6m-6.5-4.05 1.25-1.7.05-.05 5.05-3.1q5.25-1.6 14.2-1.75l-.25.5-8.8 4.25-4.25 2.7-7.9 1.25.65-2.1m23.35 1.7q1.85 1.75 2 4.05l.05.1q-.2 1.9-1.05 2.65-4.9.95-10.95 0L12.7 31.4l2.5-1.6h.1l.15-.1q8.3 2.55 11.05.1l.05-.05v-.1l-.75-3.8.55-.2.05.1m-.05 3.9q-2.7 2.3-10.55-.05l9.8-3.65.75 3.7" fill="#cb7810"/><path d="m27.15 9.05-.35 7.9-5.55 6.1-8.4 2.65h-.05l-3.25 2.4-8.1.6.95-2.55 7.9-1.25 4.25-2.7 8.8-4.25.25-.5 1.25-2.9 2.3-5.5" fill="#6f3809"/><path d="M24.2 43.1 14 37.35l2.3-2.25 5.45 3.35 2.45 4.65m8.1 7.75-2.25-5.5.55-6-1.75.45-.3-1.8-3 2.6-9.1-5.65 8.8-.25q2.9-.15 4.35-3l4.3 5.45.1.1 9.2 5.1-10.9 8.5" fill="#fff"/><path d="M29.7 52.85 27.55 46l-.05-.1v-.1l-.1-.3-1.35-1.35-.1-.1-1.75-.95-2.45-4.65 4.5 2.8h.05l1.35.3-.5 1.3.05.1.05.05h.1l.05-.05.5-1.4 2.1 4.2 2.15 5.2-2.45 1.9M14 37.35l-6.9-3.8 4.15-1.3.05-.05h.05l.15-.05h.05l4.75 2.95-2.3 2.25m16.05 8-2-3.9-.05-.05h-.05l.5-1.6v-.1l-.05-.05-.1.05-.05.05-.55 1.6-1.35-.3-.8-.45 3-2.6.3 1.8 1.75-.45-.55 6m-13.6-10.4L11.7 32l.8-.5.05.05 3.85 1.2h.05q6.05.95 11 0l.05-.05q.8-.65 1.05-2.25l.1.05.95 1.2q-1.45 2.85-4.35 3l-8.8.25" fill="#b5d7d3"/><path d="M.2 31.15v-1.3l6.7.45h.05l5.95-4.4 8.4-2.7h.05l5.6-6.15.05-.1.55-12.75 4.25-3 .15 3.55v1.7L31.9 8.9l-.1 1.2-.35 3.6-2.45-.55-.65 1.55 2.5 2.45-.45 2.25-2.6-1.65-3.05 4.85q-5.3 3.65-9.7 4.55Q11.8 29.4 8.6 31.6l-8.4-.45" fill="#faffc6"/></g><g id="t" fill-rule="evenodd"><path d="M28.25 35.75v.1l-.05.05h-.15v-.05l.05.05h.05l-1.95.3.75 1.55v.15h-.05l-6.25.55-.75.75-1.6 1.35q-4.75 2.35-8.25-.75l-.05-.05q-.65-1.05-.75-2.8l-3.05-2.5-.1.15-.3.15-.3-.15q-3.7-3.7-3.65-10.4Q-1 21.15.6 15.6l.05-.1.05-.2q1.9-3.25 3.1-6.85l.1-.15.1-.25.3-.15.3.1 2.25 1.9.35.15Q6.8 5.5 10.7 3.3l.35-.05.25.2.05.15.05.1.7 1.7q1-1 1.65-2.6l.25-.25h.3l.2.15 1.65 2.4q2.5-3.65 5.65-5.05h.3l.15.05.3.15.1.3v3.1q1.85.35 2.3 4l3.9-2.6.8-1 .2-.15h.3l.2.15q1.3 1.9 1 4.35l1.4-1.35q.1-.15.3-.15l.25.1.15.3.55 3.4.7-.6.2-.05h.2l.25.15.8 1.05 6.35.85.25.2.1.3.05.3q-1.1 3.8-4.4 7.35l2.8-.3.25.05.2.15.05.25-.05.95q-.7 5.75-9.85 8.7l-.15.05q-.75.65-1.4 1.25l-.35.15-.25-.15h-.05l-.1-.35.05-.2.1-.05 1.55-1.4q.1-.1.3-.1h.05q5.75-1.9 7.95-4.9l.25-.35.85-1.9.2-1.25-3.5.4-.25-.05-.15-.25-.05-.25.1-.2q3.15-3.1 4.5-6.45l.45-1.1v-.05l-6.1-.8-.3-.15-.7-.85-.9.8-.3.1-.3-.1-.15-.25-.05-.3-.45-2.95v-.2L31.3 9.6l-.3.1h-.15l-.05.05-9.65 3.5-.2.1h-.05q-3 1.65-4.5 4.6-.6 1.2-.95 2.6l-.05.1h-.1l-.05-.05v-.1q.4-1.6 1.15-2.95 1.5-2.8 4.4-4.35l-.1-1.8q-.35-1.2-1.35-2.2L17.2 7.75l.1 2.1-.05.05-.05.05-.1-.05-.05-.05q.15-1.3-.1-2.25l-.15-.45-.3-.65-.25.05L16 6.4l-.2-.25-.1-.1-.55.55v.05q-3.05 3.2-6.1 5.4-1.45 1.85-2.3 3.7-.65 1.45-.9 2.9-.3 1.45-.2 2.9.1 1.65.6 3.35l.05.05v.1l-.05.05h-.1l-1.4-.35-1.9-.4-.1.1-.05.05q0 2.2.5 4 .75 3.3 2.9 5.5l.15.2 1.05.85 2.1 1.7h.05v.05h.05l1.15.95.15.15-.05-.2q-.5-2.4-.3-6.1-2.25-3.05-3.7-5.7v-.1l.1-.2q1-2.5 2.5-4.7l1.75-2.3.65-.75.05-.05h.05l.05.05 3.8 8.3L17.05 25l4.2-3.7.55-.55h.05l1.3.05 6.35.15h.1v.15l-4.05 6.7 1.45-.35.05.05.05.05.05.4V28q-.05.85-1.05 2.2l1 .2 1.7.35.05.05.05.05-.05.1-2.4 2.6.2.2 1.45 1.85.1.15h.05m6.2-17.55q-.65 3.7-3.6 6.25l-.45.35h-.15v-.1l.05-.05 1.5-1.4q1.85-2.1 2.4-4.85l.15-1.1-2.7-.6-.05-.05-.05-.05.05-.05.1-.05.85.2 1.95.35.05.05v.1l-.1 1M6.6 15.6q.85-1.8 2.25-3.6l-.9-.85-.15.1-.3-.05-1.05-.5-.1-.1L4.5 9.05l-.05.25-.75 1.85-.2.5-2.05 4.05v.1q-1.5 5.1 1.15 7.9l.15.15.1.3 2.4.5.8.2q-.55-1.65-.6-3.25-.1-1.6.25-3.15.25-1.45.9-2.85m8.25-10.9-.6-.85q-.8 1.65-2.05 2.65l-.25.1-.25-.05-.2-.2-.8-2.05q-1.35.85-2 2.1-.95 1.8-.6 4.35l-.05.3.35.25.6.55q3.3-2.45 6.6-6l-.75-1.15m6.95-2.65V1q-2.85 1.45-5.15 4.85l.1.3-.1.25.25.4.25.7q2.7 1.3 3.5 3.2.5 1.1.4 2.4l.65-.25 2.4-.9 6.35-2.3-.1-.15-.05-.35q.45-1.85-.05-3.3l-.35-.8-.45.55-.1.1L25 8.6l-.1.25-.35.15-.3-.15-.1-.15v-.3q-.15-1.8-.6-2.8l-.05-.1-.4-.55-.45-.35v.5l-.1.3-.35.1-.3-.1-.1-.3V2.05m4.7 19-4.6-.1-6.1 5.4-.05.05-.15.2-1.85 1.85-3.1 3.15q-.2 3.45.25 5.8l.15.6 1.1-.95q3.6-3.05 8.1-6.15l5-3.05 1.7-2.8 2.35-3.85.05-.05h-.05l-2.8-.1m-14.15-1.8-.55-1.2-.45.55-.35.4q-2.55 3.1-4 6.85 1.3 2.45 3.35 5.25l.2.3 3.05-3.1 2-2-.1-.2-2.7-5.85-.45-1m14.55 9 .05-.55-1.6.35-4.95 3q.5 1.45.35 4.2l.3-.1 1.8-.6.05.05.05.05v.05q-.6 1.85-2.1 3.5l.9-.05 4.95-.45-.15-.3-.6-1.2-.05-.05.05-.05v-.05H26l1.95-.3-.15-.2-1.55-1.95-.05-.05.05-.05 2.35-2.55-2.7-.6h-.05l-.05-.1.05-.05q.9-1.2 1.05-1.95m-15.6 9.8-.2.2-.1.05h-.05l-.05-.05-1.4-1.15q.1 1.6.7 2.55 3.4 3 8 .75l1.8-1.55.55-.55v-.05q1.45-1.6 2.15-3.4l-2 .65h-.05l-.05-.05-.05-.05q.15-2.8-.3-4.25-5 3.45-8.95 6.9" fill="#0c2e52"/><path d="M6.75 15.75q.85-1.85 2.3-3.7 3.05-2.2 6.1-5.4-.3 1.55-2.85 3.9l-2.85 2.9.25.25.3.5L8.65 16l-1.05.25q-.45-.05-.85-.5m9.65 2.2q1.5-2.95 4.5-4.6l.1.05q-2.25 2.3-4.5 6.3l-.1-1.75m-4.95-.75.05-.15.05-.05-.05.1-.05.05v.05m.05-.15q-1.2 1.05-2.2 1.15-1.4-.3.7-1.9 1.05-1.05 1.9 0l-.4.75m8.6-.55q-.45-1.2 1.1-2.05 1 .05.65.7-1.2 1.65-1.75 1.35M20 38.85l-1.8 1.55q-4.6 2.25-8-.75-.6-.95-.7-2.55l1.4 1.15.05.05H11l.1-.05.2-.2 9.2-2-.5 2.8" fill="#fff"/><path d="m16.8 7.15.15.45q.25.95.1 2.25l.05.05.1.05.05-.05.05-.05-.1-2.1 2.15 1.45-1.5 2.6-4.45 4.9.6-3.5q-.85.55-2.1 3.1-.85-1.05-1.9 0-2.1 1.6-.7 1.9 1-.1 2.2-1.15l-.05.15-.9 1.3q-1.7.1-2 .6L7 20.25l.6-4L8.65 16 10 14.2l-.3-.5q.45.05 1.55-1.15l5.55-5.4m4.35 6.1 9.65-3.5.05-.05H31l.3-.1 1.45-1.4v.2q-.75 3.5-3.15 5.65l-2.35 1.75.65-1.6-2.8 2.05-4.15 3.8-.1.15-4.15 3.5-.2-4q2.25-4 4.5-6.3l.15-.15m12.1-1.6.15.25.3.1.3-.1.9-.8.7.85.3.15 6.1.8v.05l-3.45 2.55-1.8 1.6 1.1-2.35-3.4 3.45.1-1v-.1l-.05-.05-1.95-.35.7-5.05M4.45 9.3l.05-.25 1.85 1.55.1.1 1.05.5.3.05.15-.1.9.85q-1.4 1.8-2.25 3.6l-1.05-1.8-.6 2-.5-1.65V9.3M8.7 6.4q.65-1.25 2-2.1l.8 2.05.2.2.25.05.25-.1q1.25-1 2.05-2.65l.6.85q-2.05 3.75-4.2 5.35l-.6-1.6L9 11.85l-.6-.55q.45-1.8.3-4.9m13.1-4.35V5.1l.1.3.3.1.35-.1.1-.3v-.5l.45.35-2.5 3.8-1.15-2.95-.65 1.95q-.9-1.15-.5-3.4 1.35-1.55 3.5-2.3m2.35 6.65.1.15.3.15.35-.15.1-.25 4.35-2.9.1-.1.45-.55.35.8L28.8 9.2l-4.7 2.75-2.4.9v-.65q1.25-2.6 2.45-3.5M11.55 17l-.05.05.05-.05m-.05.1-.05.05.05-.05m8.6-.6q.55.3 1.75-1.35.35-.65-.65-.7-1.55.85-1.1 2.05" fill="#cef7ff"/><path d="m26.65 33.75-.2-.2 2.4-2.6.05-.1-.05-.05-.05-.05-1.7-.35q1.85-2.65 3.3-2.85v.75q1.5-.85 1.9-.35 3.65-1.85 7.3-3.6-2.2 3-7.95 4.9h-.05q-.2 0-.3.1l-1.55 1.4-.1.05-1.3 1.1 2.05 3.05-.5.15-3.25-1.35m.5-5.8-.05-.4-.05-.05-.05-.05-1.45.35 4.05-6.7v-.15h-.1l-6.35-.15.3-.65 6.1-3.9-1.7 4.35 6.5-3.3-.15 1.1q-.55 2.75-2.4 4.85l-3.3 1.3.9.45-1.5 1.8.25.5-.95.7-.05-.05m-5.9-6.65-4.2 3.7-1.05-.2q-1.05-1.1-1.8-3.6-.1-2.65 1.2-6.15 2.65-4 5.3-3.65l.1 1.8q-2.9 1.55-4.4 4.35-.75 1.35-1.15 2.95v.1l.05.05h.1l.05-.1q.35-1.4.95-2.6l.1 1.75.2 4 4.15-3.5.1-.15 4.15-3.8-3.85 5.05M11.1 18.6l-1.75 2.3q-2.85 2.95-3.7.65-.1-1.45.2-2.9L7 20.25l1.55-1.15q.3-.5 2-.6l.9-1.3v-.05l.05-.05-.15.3-.25 1.2M42 12.95l-.45 1.1q-1.85 1.15-4.5 4.1l-4.35 6.3h-1.85q2.95-2.55 3.6-6.25l3.4-3.45-1.1 2.35 1.8-1.6L42 12.95M6.6 15.6q-.65 1.4-.9 2.85-.35 1.55-.25 3.15.05 1.6.6 3.25l-.8-.2-.7-6.15-1.4.95.35-3.05v-4.75l.2-.5.75-1.85v4.85l.5 1.65.6-2 1.05 1.8m8.25-10.9.75 1.15q-3.3 3.55-6.6 6l1.05-3.4.6 1.6q2.15-1.6 4.2-5.35m8.7.9q.45 1 .6 2.8v.3q-1.2.9-2.45 3.5v.65l-.65.25q.1-1.3-.4-2.4l1.2-1.75Q23 8 23.55 5.6" fill="#4aa0de"/><path d="M5.85 18.65q.25-1.45.9-2.9.4.45.85.5l-.6 4-1.15-1.6m9.3-12V6.6l.55-.55.1.1.2.25.25.15.25-.05.3.65-5.55 5.4q-1.1 1.2-1.55 1.15l-.25-.25 2.85-2.9q2.55-2.35 2.85-3.9m18.05 4.7.05.3-.7 5.05-.85-.2-.1.05-.05.05.05.05.05.05 2.7.6-6.5 3.3 1.7-4.35-6.1 3.9 1.45-2.85 1.6-.5 2.8-1.75q2.05-1 3.9-3.7m8.35 2.7q-1.35 3.35-4.5 6.45l-.1.2.05.25.15.25.25.05 3.5-.4-.2 1.25-4.4 3-4.1 2.15 1.45-2.15-4.05 2.2h-1.45l-.25-.5 1.5-1.8-.9-.45 3.3-1.3-1.5 1.4-.05.05v.1h.15l.45-.35h1.85l4.35-6.3q2.65-2.95 4.5-4.1m-36.3 10.6-2.4-.5-.1-.3-.15-.15q-2.65-2.8-1.15-7.9v-.1l2.05-4.05v4.75l-.35 3.05 1.4-.95.7 6.15M23.1 4.95l.4.55.05.1Q23 8 21.85 8.95l-1.2 1.75q-.8-1.9-3.5-3.2l-.25-.7q.5-1.4 1.4-2.45-.4 2.25.5 3.4l.65-1.95 1.15 2.95 2.5-3.8" fill="#9fdeee"/><path d="m29.3 21.2-2.35 3.85-4.4 2q-4.25 1.85-9.45 8.4l-.95 1.6-1.1.95-.15-.6 1.5-3q2.55-4.05 6.05-7.05 4-3.5 9.2-5.6l1.65-.55m-17.95-2.6.45-.55.55 1.2q-1.5.6-1.45 5.95l3.4.65 1.2.25.1.2-2 2q-1.55-1.7-4.15-1.6l-.25-1.1q1-4.3 2.15-7" fill="#6f3809"/><path d="m7.3 35.05-1.05-.85-.15-.2q-2.15-2.2-2.9-5.5 1.95 1.5 3.45 4.45l.65 2.1m19.65-10-1.7 2.8-5 3.05q-4.5 3.1-8.1 6.15l.95-1.6q5.2-6.55 9.45-8.4l4.4-2m-14.6-5.8.45 1 1.5 5.6-3.4-.65q-.05-5.35 1.45-5.95m1.25 9.05-3.05 3.1-.2-.3-.9-4.4q2.6-.1 4.15 1.6" fill="#cb7810"/><path d="M9.35 20.9q-1.5 2.2-2.5 4.7l-.1.2v.1q1.45 2.65 3.7 5.7-.2 3.7.3 6.1h-.05l-1.55-2.4-.05-.15-4.35-10.4 1.4.35h.1l.05-.05v-.1l-.05-.05q-.5-1.7-.6-3.35.85 2.3 3.7-.65m6.25 5.7.15-.2.05-.05 6.1-5.4 4.6.1-7.95 4.75-2.95.8m-4.7 10.8q-.45-2.35-.25-5.8l3.1-3.15 4.7-1.1q-3.5 3-6.05 7.05l-1.5 3m1.9-17.15 2.7 5.85-1.2-.25-1.5-5.6M10.35 31.1Q8.3 28.3 7 25.85l2.2-.25.25 1.1.9 4.4m10.7 4.05-.3.1q.15-2.75-.35-4.2l4.95-3 1.6-.35-.05.55-5.85 6.9m.7 3-.9.05q1.5-1.65 2.1-3.5v-.05l-.05-.05-.05-.05 3.5-3-1.55 3.2-.1.2-.8.9-.85.9-1.3 1.4" fill="#ffe61a"/><path d="m2.85 24.35 1.9.4 4.35 10.4-6.25-10.8M8.4 11.3l-.35-.25.05-.3q-.35-2.55.6-4.35.15 3.1-.3 4.9m8.5-4.5-.25-.4.1-.25-.1-.3q2.3-3.4 5.15-4.85v1.05q-2.15.75-3.5 2.3-.9 1.05-1.4 2.45m9.6 14.25 2.8.1v.05l-1.65.55q-5.2 2.1-9.2 5.6l-4.7 1.1 1.85-1.85 2.95-.8 7.95-4.75M7 25.85Q8.45 22.1 11 19l.35-.4q-1.15 2.7-2.15 7l-2.2.25" fill="#faffc6"/><path d="M10.65 37.75 9.5 36.8h-.05v-.05H9.4l-2.1-1.7-.65-2.1Q5.15 30 3.2 28.5q-.5-1.8-.5-4l.05-.05.1-.1 6.25 10.8.05.15 1.55 2.4-.05.05" fill="#a2530c"/><path d="M11.3 38.05q3.95-3.45 8.95-6.9.45 1.45.3 4.25l.05.05.05.05h.05l2-.65q-.7 1.8-2.15 3.4v.05l-.55.55.5-2.8-9.2 2" fill="#d1d2b9"/><path d="M26.9 28.25q-.15.75-1.05 1.95l-.05.05.05.1h.05l2.7.6-2.35 2.55-.05.05.05.05 1.55 1.95-3-.8 1.55-3.2-3.5 3-1.8.6 5.85-6.9m-.95 7.85-.05.05.05.05.6 1.2-3.5-.65.85-.9 2.05.25" fill="#ce7e10"/><path d="m27.8 35.55.15.2-1.95.3h-.05v.05l-2.05-.25.8-.9.1-.2 3 .8m-1.25 1.85.15.3-4.95.45 1.3-1.4 3.5.65" fill="#bb690e"/><path d="m28.1 35.6-1.45-1.85 3.25 1.35-1.8.5m-1-5.2-1-.2q1-1.35 1.05-2.2h.05l.95-.7h1.45l4.05-2.2-1.45 2.15 4.1-2.15 4.4-3-.85 1.9-.25.35q-3.65 1.75-7.3 3.6-.4-.5-1.9.35v-.75q-1.45.2-3.3 2.85m-3.95-9.6-1.3-.05h-.05l-.55.55 3.85-5.05 2.8-2.05-.65 1.6 2.35-1.75Q32 11.9 32.75 8.4l.45 2.95q-1.85 2.7-3.9 3.7l-2.8 1.75-1.6.5-1.45 2.85-.3.65m-6.1 4.2-1.35 1.15-3.8-8.3-.05-.05h-.05l-.05.05-.65.75.25-1.2.15-.3.05-.1-.05.05.4-.75q1.25-2.55 2.1-3.1l-.6 3.5 4.45-4.9 1.5-2.6q1 1 1.35 2.2-2.65-.35-5.3 3.65-1.3 3.5-1.2 6.15.75 2.5 1.8 3.6l1.05.2m-5.6-7.8v-.05l.05-.05-.05.05v.05" fill="#1957ab"/><path d="M30.25 5.85q.5 1.45.05 3.3l.05.35.1.15-6.35 2.3 4.7-2.75 1.45-3.35" fill="#a1dfee"/><path d="M28.25 35.75h-.05l-.1-.15 1.8-.5.5-.15-2.05-3.05 1.3-1.1-.05.2.1.35h.05l-.8.65 2.1 3.3-2.8.45" fill="#0b2d51"/><path d="m20.35 31.9.05.05V32q0 1.8-.7 3.3l-.3.55-.55.85-.05.05-.3.25-.35.2q-1.2.75-2.6.75l-1.6-.25-.05-.05v-.05l.45-2.4.05-.05 4.6-3.3.05-.05 1.3.1m-.5 2.55v.05l.1-.3.1-.35.2-1.8-1.2-.1-1.35 1-3.2 2.35-.3 1.4-.15.85 1.1.2h.15q1.9.15 3.4-1.15l1.15-2.15" fill="#170e22"/><path d="m16 35 .15-.05q.2 0 .2.15v.05l-.05.15-.15.2h-.05l-.15-.1-.05-.25.1-.15m1.15.3h-.05q-.25 0-.35-.35l-.1-.5v-.15l.2-.4q.4-.3.7-.3l.4.1.1.45-.05.2v.05l-.25.45-.6.45m.75-2.2 1.6-.35q.4 0 .35 1.7L18.7 36.6l.15-.4.05-.75-.25-1.6-.75-.75m-3.7 3.6.25.3.7.65v.1l-1.1-.2.15-.85" fill="#fff"/><path d="m17.15 35.3.6-.45.25-.45q.5.35.5.9l-.25.45-.05-.1q-.15-.15-.3-.15l-.1-.05-.05.1-.4.55q-.5.65-1.05.65l-.15.3.05.25.15.05-.1.05-.2.05-.8-.45q-.3-.4-.3-.9 0-.3.15-.35l.45-.1.55.05h.05l.1.25.45.3.3-.2.15-.75" fill="#990b30"/><path d="m16 35-.1.15.05.25.15.1h.05l.15-.2.05-.15v-.05q0-.15-.2-.15L16 35m2-.6v-.05l.05-.2-.1-.45-.4-.1q-.3 0-.7.3l-.2.4v.15l.1.5q.1.35.35.35h.05l-.15.75-.3.2-.45-.3-.1-.25h-.05l-.55-.05-.45.1q-.15.05-.15.35 0 .5.3.9l.8.45.2-.05.1-.05.2.05.25-.05.3-.05.4-.2.55-.55.3-.5-.05-.25-.05-.05.25-.45q0-.55-.5-.9m-.3-1.45.2.15.75.75.25 1.6-.05.75-.15.4q-1.5 1.3-3.4 1.15l-.15-.1-.7-.65-.25-.3.3-1.4 3.2-2.35" fill="#1b0d24"/><path d="m18.25 35.75.05.05.05.25-.3.5-.55.55-.4.2-.3.05-.25.05-.2-.05-.15-.05-.05-.25.15-.3q.55 0 1.05-.65l.4-.55.05-.1.1.05q.15 0 .3.15l.05.1" fill="#ffd447"/><path d="m17.9 33.1-.2-.15 1.35-1 1.2.1-.2 1.8-.1.35-.1.3v-.05q.05-1.7-.35-1.7l-1.6.35" fill="#1f0310"/></g><g id="u" fill-rule="evenodd"><path d="m30.35 7.65 2.7-1.75.1-.05.1.05V6l-.1.05-2.7 1.8q-5.1 3.55-9.3 7.7-3 2.95-5.55 6.2l-.6 1-6.5 11.5-.1.05h-.05l-.05-.1v-.05l.05-.15 7.05-12.35q2.65-3.35 5.7-6.35 4.2-4.1 9.25-7.65m2.3 3.65.5-.8.25-.2.35.05.2.25-.05.35-9 14.5-.05.05-6.75 6.3q-4.8 4-9.6 6.85l-.35.05-.25-.2-.05-.35.2-.25 1.2-.7 1.05-.7 7.35-5.5 6.5-6.05h.05l.05-.05 2.8-4.5 5.6-9.1M6.4 34.2v-.1q2.3-6.15 8.65-15.3 2.85-3.35 5.9-6.1Q25 8.9 29.4 6.1l.5-.3.05-.05.1.05v.1L30 6l-.5.3q-4.45 2.8-8.55 6.65-2.95 2.7-5.7 5.95-6.3 9.15-8.65 15.3l-.05.05h-.1l-.05-.05m-4.95-5.1-.6 1.85-.2.25-.3.05-.3-.2v-.35l.7-2.3q1.8-4.85 5.9-11.65v-.05L17.3 2.95q.1-.15.3-.2L19.75.9q2-1.85.35.1l-.65.8-.05.05L18 3.5l-.05.1-10.6 13.6v.05q-3.05 5-4.75 8.95l-1.15 2.9" fill="#0c2e52"/><path d="M21.1 15.3q-3.05 3-5.7 6.35L8.35 34l-.05.15-.9 1.15-1.05-1.1h.05l.05.05h.1l.05-.05q2.35-6.15 8.65-15.3 2.75-3.25 5.7-5.95l.15 2.35" fill="#2be7fd"/><path d="M30.35 7.65Q25.3 11.2 21.1 15.3l-.15-2.35q4.1-3.85 8.55-6.65l.85 1.35" fill="#01a6ba"/><path d="m15 22.75.6-1q2.55-3.25 5.55-6.2 4.2-4.15 9.3-7.7l2.2 3.45-5.6 9.1-9.9 9.55-2.15-7.2M6.4 34.1l-.05.05-4.9-5.05 1.15-2.9 4.75-.25q3.7-2.95 7.4-8.15 6.8-5.7 5.05-11.9l-1.85-2.3.05-.1 1.4-1.65.05-.05 8.7 2.35L29.4 6.1q-4.4 2.8-8.45 6.6-3.05 2.75-5.9 6.1Q8.7 27.95 6.4 34.1" fill="#b5d7d3"/><path d="M8.3 34.15v.05l.05.1h.05l.1-.05 6.5-11.5 2.15 7.2-6.85 6.55-1.05.7-1.85-1.9.9-1.15" fill="#2a41a0"/><path d="m17.95 3.6 1.85 2.3q1.75 6.2-5.05 11.9-3.7 5.2-7.4 8.15l-4.75.25q1.7-3.95 4.75-8.95v-.05l10.6-13.6" fill="#fff"/><path d="m17.65 31-7.35 5.5 6.85-6.55.5 1.05" fill="#6a7fd1"/><path d="m27.05 20.4-2.8 4.5-.05.05h-.05L17.65 31l-.5-1.05 9.9-9.55" fill="#d0e5e3"/></g><g id="v" fill-rule="evenodd"><path d="m24.5 19.85.05.05 1.6 1.85q3.8.35 4.95 2.7l.25-.15h.35l.2.25q2.7 7.65 3.05 13.95 1.45 6.4 3.05 8.2l.1.15q1.75-.1 2 .55.45.6-.5 1.7 3.75 3.15 6.85 8.25l.05.3-.2.3-.3.05-7.45 8.15q-2.7 5.75-6.1 8.9l-.05.05-13.65 8.15-.35.05-.25-.2-.05-.3 1.3-7.25-1.5-10.45.05-.3.2-.15.3-.05.25.15 2.2 2.65.45-12.4.1-.25.25-.15.3.05.2.2 3.45 7.05q.75-3.5-.2-9.65-.5-.4-.7-.8-.4-.8.35-1.85-1.1-6.15-6.2-11.4h-.35l-.6-.3q-7.75-4-9.85-9.5l-.2-.15-.05-.05-.05-.1-.1-.05q-4.6-4.15-6.05-13.3v-.05L0 .5.1.25l.2-.2h.3l.25.2L9.1 14.9v-.6l.1-.25.25-.2h.3l6.9 2.85.25.25v.3l-.05.05 7.65 2.55m6.75 5.65v-.05q-.75-3.1-5.15-3.5l-.05-.05-.05-.05-.05-.05v.05l-.35 1.05v.05l-.2.5-2.25 5.15L20 33.8v.1l-.05.15 1.15-.15 1.65-.35 1.3-.5h.05q2.3-1 4-2.75l1.65-2.05.15-.2 1.35-2.55m-5.4-3.75.05-.05h-.05l-1.4-1.65-2-.65-1.5-.5-4.3-1.45v.05h-.3l-.75-.3-2.3-.95-3.3-1.3v1.65l-.1.25-.05.1 1.2 2.55.25.5 3.65 1.25q6.2 1.95 10.45 1.6v-.05l.1-.25.25-.75.1-.05m4.6 5.8-.6 1-1.6 1.9Q26.5 32.2 24.2 33.2q1.25 5.1.6 8.8l-.6 2.15q1.3 2.65 1.75 5.5l1.5.15h1.5l4.6-.75 2.8-1 1.25-.5-.05-.1-.25-.2q-1.65-1.9-3.15-8.65l-.05-.05q-.35-5.85-2.7-12.85l-.95 1.85M2.15 4.35l-1-1.75 1.35 12q1.4 8.8 5.8 12.85l.15.1.3.25.1.2.05.1 1.7.9.7-1.85q.55-2.35.2-5.75v-.15l-.1-.5-.25-.65h-.05L9.65 17H9.4l-.25-.2L8 14.75 2.15 4.35m9.55 17.1.1 1.05q.2 2.9-.4 5l-.1.35-.6 1.35-.05.05h-.1l-1.5-.8q2 4.65 8.4 8.2l.15.1.5.25.8.4.2-.05.55-3.1.05-.05v-.05l.05-.35h.05l-.05-.05.05-.05q3.25-4.55 5.55-10.65-4.7.35-11.75-2l-2.2-.8.2.4v.05l.1.75M23.8 43.3l.3.6q1.45-4.15-.1-10.6l-1.3.45-1.55.35-1.25.15v.05l-.6 3.1.1.1q2.75 2.8 4.4 5.8m.65 29.85 3.5-2.25-2.65-7v-.05l-.05-.1-.05-.35.1-.2-3.15-6.4-.05 1.15-.4 10.6-.05.25-.15.1 2.95 4.25m-2.9 1.9 2.7-1.8-3-4.3h-.05l-.25-.15L19 66.5l.4 2.7.9 6.25v.15l-.05.3 1.3-.85m2.2-1.2-3.55 2.3-.65 3.3L19.1 82l12.8-7.65q3.25-3 5.85-8.6l.1-.1 1.4-1.5 6.1-6.75.05-.05-2.35-3.4q-2.25 1.65-4.6 4.25h-.1v.1l-.05.05-.05.05-.45.45-2.5 3.1h-.05l-.1.05v.05l-.1.15-.05.05v.05h-.05v.05q-2.15 3.5-4.35 6.05l-2.35 2.5-.05.05-.1.05v.05l-.4.25-1.15.75-2.05 1.3v.05h-.05l-.7.45m13.55-24.4-5.15 1.45-.35.05-3.95.25-2.15.15.35.25.2.3.05.2.55 5.65h11.3l-.2-8.5-.65.2m-9.15 8.5h-1.3q.05 2.5-.35 4.3l1.45-.05h2.45l4.45-.1h.05l.1-.2.1-.1h.05q1.3-1.75 2.6-3.15l.35-.4.05-.05v-.25h-10m-2.2-8.1-.05.15q-.5.6-.35 1.1v.05l6.55-.45 5.8-1.65h.05l.1-.05h.05l.55-.15.05-.05.65-.95-1.3-.1-.3-.05-1.3.55-2.85.95-4.7.85h-1.35l-1.6-.2m12.9-.25-.15-.2-.15-.3-.35.1h-.05l.2 8.8q2.35-2.55 4.55-4.2-1.9-2.4-4.05-4.2m-10.9 12.8-1.5.05-.25.8-.05.05-.15.4-.2.25-.3.05 1.05 2.65 1.55 4.15v-.05l1.7-1.8.8-.85q2.05-2.45 4.15-5.8l-4.4.1h-2.4" fill="#0c2e52"/><path d="m27.45 49.8-1.5-.15q-.45-2.85-1.75-5.5l.6-2.15 2.65 7.8M8.3 27.45Q3.9 23.4 2.5 14.6l-1.35-12 1 1.75 5.05 15.9 1.1 7.2m14.45 6.1-1.65.35-1.15.15.05-.15v-.1l3.15-5.2-.4 4.95m1.7 39.6L21.5 68.9l.15-.1.05-.25.4-10.6 2.35 15.2m-2.9 1.9-1.3.85.05-.3v-.15l-.9-6.25 2.15 5.85m-2 4.4.65-3.3 3.55-2.3-.3 3.65-3.9 1.95m8.6-21.7h-1.3l-.55-5.65-.05-.2-.2-.3-.35-.25 2.15-.15.3 6.55m-2.2-7.9 1.6.2h1.35l4.7-.85 2.85-.95 1.3-.55.3.05 1.3.1-.65.95-.05.05-.55.15h-.05l-.1.05h-.05l-5.8 1.65-6.55.45v-.05q-.15-.5.35-1.1l.05-.15m2 12.35-1.45.05q.4-1.8.35-4.3h1.3v.65l-.2 3.6m-1.4 4.45L25.5 64l.3-.05.2-.25.15-.4.05-.05.25-.8 1.5-.05-.05.7-1.35 3.55" fill="#faffc6"/><path d="m11.05 19.5-1.2-2.55.05-.1.1-.25v-1.65l3.3 1.3.4 3.5-2.65-.25m4.55-2.3.75.3h.3v-.05l4.3 1.45v2.35l-4.1-.7-1.25-3.35m14.85 10.35.95-1.85q2.35 7 2.7 12.85l.05.05q1.5 6.75 3.15 8.65l.25.2.05.1-1.25.5-2.2-5.65-1.35-6.3q-.15-6.5-2.35-8.55M2.15 4.35 8 14.75q.95 9 3.3 12.4L10.6 29l-1.7-.9-.05-.1-.1-.2-.3-.25-.15-.1-1.1-7.2-5.05-15.9m19.95 53.6.05-1.15 3.15 6.4-.1.2.05.35.05.1v.05l2.65 7-3.5 2.25-2.35-15.2M19.4 69.2l-.4-2.7 1.95 2.3.25.15h.05l3 4.3-2.7 1.8-2.15-5.85m12.4-18.25.35-.05 5.15-1.45q-2.65 2.8-6 8.3h-1.6l2.1-6.8m-2.15 7h1.85l-1.1 4.25h-1.45l.6-3.85.1-.4m9.2-8.35q2.15 1.8 4.05 4.2-2.2 1.65-4.55 4.2l-.2-8.8h.05l.35-.1.15.3.15.2m-9.9 12.8h1.4l.25 5.7-.8.85-.85-6.55" fill="#ebc12a"/><path d="m8 14.75 1.15 2.05.25.2h.25l1.45 3.1h.05l.25.65.1.5v.15q.35 3.4-.2 5.75-2.35-3.4-3.3-12.4" fill="#ffe61a"/><path d="M31.25 25.45v.05l-1.35 2.55-.15.2-1.65 2.05q-1.7 1.75-4 2.75h-.05Q30 22.6 25.4 23.45l.2-.5v-.05l.35-1.05H26l.05.05.05.05q4.4.4 5.15 3.5m-16.3-4.2L11.3 20l-.25-.5 2.65.25-.4-3.5 2.3.95 1.25 3.35 4.1.7V18.9l1.5.5-.85 1.85q-.65.95-1.5.8l-5.15-.8m14.9 7.3.6-1q2.2 2.05 2.35 8.55l1.35 6.3 2.2 5.65-2.8 1-1.25-3.55-.25-7-2.2-9.95m-6.1 45.3.7-.45h.05v-.05l2.05-1.3-.3 3.75-2.8 1.7.3-3.65m3.95-2.55.4-.25V71l.1-.05.05-.05 2.35-2.5q2.2-2.55 4.35-6.05v-.05H35v-.05l.05-.05h.1v4.7q-2.7 5-6.85 7.15l-.6-2.75m2-13.55h-1.55l-.3-6.55 3.95-.25-2.1 6.8m-1.55.2h1.5l-.1.4-.6 3.85h-1l.2-3.6v-.65m-.2 4.45h1l.85 6.55-1.7 1.8v.05l-1.55-4.15 1.35-3.55.05-.7" fill="#cb7810"/><path d="m11.7 21.45-.1-.75v-.05l-.2-.4 2.2.8q7.05 2.35 11.75 2-2.3 6.1-5.55 10.65l-.05.05.05.05h-.05l-.05.35v.05l-.05.05-.55 3.1-.2.05-.8-.4.5-3.2 1.35-4.5q1.5-3.35-2.7-5.85l-5.55-2" fill="#7cb4af"/><path d="m11.8 22.5-.1-1.05 5.55 2q4.2 2.5 2.7 5.85l-1.35 4.5-.5 3.2-.5-.25-.15-.1q0-7.65-1.55-10.7l-4.1-3.45" fill="#b5d7d3"/><path d="M17.45 36.65q-6.4-3.55-8.4-8.2l1.5.8h.1l.05-.05.6-1.35.1-.35q.6-2.1.4-5l4.1 3.45q1.55 3.05 1.55 10.7" fill="#fff"/><path d="M25.4 23.45q4.6-.85-1.35 9.6l-1.3.5.4-4.95 2.25-5.15m3.55 26.35h-1.5L24.8 42q.65-3.7-.6-8.8 2.3-1 4.05-2.75 2.4 2.5 3.25 8.65.95 8.85-2.55 10.7m8.35-.35.65-.2.2 8.5H31.3q3.35-5.5 6-8.3m-5.8 8.5h6.65v.25l-.05.05-.35.4q-1.3 1.4-2.6 3.15h-.05l-.1.1-.1.2h-.05l-4.45.1 1.1-4.25m-1.15 4.45 4.4-.1q-2.1 3.35-4.15 5.8l-.25-5.7" fill="#ffdb53"/><path d="M23.8 43.3q-1.65-3-4.4-5.8l-.1-.1.6-3.1v-.05l1.25-.15q2.7 4.7 2.65 9.2" fill="#2be7fd"/><path d="m21.15 34.1 1.55-.35 1.3-.45q1.55 6.45.1 10.6l-.3-.6q.05-4.5-2.65-9.2" fill="#6a7fd1"/><path d="m25.85 21.75-.1.05-.25.75-.1.25v.05q-4.25.35-10.45-1.6l5.15.8q.85.15 1.5-.8l.85-1.85 2 .65 1.4 1.65v.05m7.7 27.3-4.6.75q3.5-1.85 2.55-10.7-.85-6.15-3.25-8.65l1.6-1.9 2.2 9.95.25 7 1.25 3.55m4.25 9.8.45-.45.05-.05.05-.05v-.1h.1q2.35-2.6 4.6-4.25l2.35 3.4-.05.05-6.1 6.75-1.45-5.3" fill="#6f3809"/><path d="m26.55 72.05 1.15-.75.6 2.75q4.15-2.15 6.85-7.15V62l.1-.05h.05l2.5-3.1 1.45 5.3-1.4 1.5-.1.1q-2.6 5.6-5.85 8.6L19.1 82l.45-2.55 3.9-1.95 2.8-1.7.3-3.75" fill="#a2530c"/></g><g id="w" fill-rule="evenodd"><path d="M9 1.4 8.2.8 8 .5l.1-.35Q8.2 0 8.4 0l.3.1q4 3 7.75 6.8 5.7 5.8 10.95 13.55l.05.1 3.2 8.3q3 8.65 3.85 15.95l.15 1.35-.1.3-.3.2-.35-.15-.15-.25-.1-1.15q-.75-6.8-3.35-14.75-1.5-4.5-3.6-9.4-5.2-7.7-10.9-13.5Q12.5 4.1 9 1.4m16.55 46.55.55.5.1.3-.1.3-.3.15-.3-.15L14.15 38.5l-.1-.1-14-25.25L0 12.8l.2-.25.35-.05.25.2.15.25 2.5 4.5 7.5 13.5 1.2 2.2 2.65 4.75 5.45 5.1 3 2.8-1.4-4.55q-4.25-8.3-8.6-15.45-5.2-8.55-10.55-15.4l-.55-.7-.05-.1.05-.05.1-.05.05.05.55.7Q8.1 17.05 13.3 25.5q4.15 6.75 8.2 14.55-4-12.25-10.25-22.1L9.5 15.3 4.15 8.35l-.25-.3v-.1l.05-.1H4l.05.05.25.25 5.35 7h.05l1.55 2.4Q17.9 28 22.05 41.2l.75 2.4.75 2.5 2 1.85" fill="#0c2e52"/><path d="m2.85 10.25 1.3-1.9L9.5 15.3l1.75 2.65q6.25 9.85 10.25 22.1-4.05-7.8-8.2-14.55-5.2-8.45-10.45-15.25" fill="#2be7fd"/><path d="M15.8 7.45q5.7 5.8 10.9 13.5 2.1 4.9 3.6 9.4l-.7 2.6h-7.5l.7 10.65-.75-2.4Q17.9 28 11.25 17.55V11.9q2.75-5 4.55-4.45m-12.35 10 4.75 6.6 2.75 6.9-7.5-13.5" fill="#fff"/><path d="M9 1.4q3.5 2.7 6.8 6.05-1.8-.55-4.55 4.45v5.65l-1.55-2.4h-.05l-5.35-7L9 1.4m21.3 28.95q2.6 7.95 3.35 14.75l-8.1 2.85-2-1.85-.75-2.5-.7-10.65h7.5l.7-2.6M.95 12.95 2.7 10.4q5.35 6.85 10.55 15.4l-.55 3.7-.55 3.65-1.2-2.2-2.75-6.9-4.75-6.6-2.5-4.5" fill="#b5d7d3"/><path d="M12.7 29.5q2.05-.15 4.15 4.95l3.4 8.55-5.45-5.1-2.65-4.75.55-3.65" fill="#6a7fd1"/><path d="m12.7 29.5.55-3.7q4.35 7.15 8.6 15.45l1.4 4.55-3-2.8-3.4-8.55q-2.1-5.1-4.15-4.95" fill="#2a41a0"/><path d="m29.8 35.75-2.65-.8 5.9 7.05.05-.05q5.7 1.65 7.3 5.5l.05-1.3v-.05l-.05-.05-.05-.35.1-.2q.15-1.45-.35-2.95L39 40.3l-.05-.1-6.4-3.5-.1-.1-2.65-.85M34 47.9q.05-2.45-1-5.75h-.1l-6.1-7.3v-.05l-.8-.9-7.45-8.95-.7-.85L22 36.85v.05l-.05.15v.05l.05.05 2.55 8.2.7 2.2h.05l.05.05q3.3 4.2 7.85 3.6.7-1.4.8-3.3m-1.65-11.55.05-.25q.05-.15.25-.2H33l6.5 3.6.2.25v.05h.05q.9 1.45 1.3 2.8.4 1.5.3 2.9 4.9 1.2 4.55 8.3l-.05.75q3.7 5.25 6.2 13.25 1.35 2.6 2.6 4.25l.1.25.15.15q1.55 2.05 2.85 2.55 1.8.3 2.05 1.8l.1.65.15.1 9.85 10.1.15.3 1.75 19.45-.1.3-.25.15-.3-.05-18.35-10-.2-.25-2.1-5.95-1.3-3.65-.7-2.1-.35-.15v.05Q46.6 85 47.4 82.8q-1.35-3.7-5.75-8.65l-1.5-1.2-.15-.2-.2-.1-.05-.05q-3.95-3.5-7.85-9.1-6.75-.95-7.3-7.25l-.05-.75-3.3-1.7-.15-.1q-2.5-2.85-1-10.05l.15-.25.35-.05.2.1.95-6.3v-.1l.05-.15-4.35-13.25.05-.05v-.05l.1-.05.05.05 9.25 11.1 5.45 1.7m8.95 10-.6-.15h-.05l-.6 13.5q1.7-.75 3.05-2.2l.7-.95 1.15-1.9v-.05l.1-.85q.25-6.15-3.75-7.4m2.9 10.05-.9 1.15q2.7 7.2 4.05 12.95l1.05 1.8v.05l.05.05 1.2 1.95 4.1.95 4.95 1.1q-.4-.45-1.1-.6h-.05q-1-.3-2.05-1.35l-1.3-1.5-.1-.2-.15-.15q-1.25-1.75-2.65-4.4l-.05-.1q-2.05-6.55-4.95-11.25l-.2-.35-1.05-1.6-.85 1.5m-3.8-8.8h-.1l-.05-.05q-1.55-3.7-7-5.35 1.1 3.45.95 5.95-.15 1.85-.85 3.15l-.05.05h-.05q-3.85.6-6.85-2.3l-1.05-1.15v.05q-1.25 5.9 3.05 8.9l.95.6 9.5 3.55h.05l.55.15.5.2v-1.4l-.05-.05-.05-.05.55-12.25m-12.45 9.15q-4-3-2.85-8.85l-3.2-10.35-.35 2.5-.6 3.65v.05l-.05.05v.05q-.5 2.65-.5 4.7.05 2.1.7 3.5l.65 1.05 3.45 1.75.2.15.05.2.05 1.2q.55 5.25 6.2 6.15l.45-.1 2.25-.5 4.05-.9-4.35-1.6-4.85-1.85-1.3-.85M40.1 59.9h-.05.1-.05m5.75 9.85 1.25.6q-1.35-5.6-3.95-12.65-1.35 1.45-3 2.2v1.65h-.1l-1.2-.35-3.15.7.8.8q4.75 4.5 9.35 7.05m-13.5-7.1h-.1l.1.05.15.15q3.95 5.7 7.85 9.15l.15.15.2.15 1.55 1.2.05.1q3.05 3.45 4.65 6.3l1.1 2.15 1.4-7.3.05-.05h.1l-1.3-2.2-.05-.05-.05-.05-1.05-1.8-1.15-.55q-4.85-2.6-9.8-7.35l-.65-.65-.05-.1.05-.05h-.05l-2.15.5-1 .25m26.5 17.2-3.9-.3 3 2.9h5.7l-2.35-2.4-2.45-.2m-.7 6.85 6.6 3.95-.2-1.6-6.65-6.35-.05-.05-3.25-3.15h-.1l-3.35-3.15-.45-.05h-.15l7.3 18.4v.1l1.8.9-2-9.1.05-.05.05-.05h.05l.35.2m-.4-9.25-6.2-1 3.05 2.9.05-.05 4.1.35 2.3.15-1.6-1.65-.1-.1-.25-.15-.1-.25-1.25-.2m1.25 0-.15-.85-9-1.85h-.1l-.05.1.05.1h.05-.15l-1.5 7.45.05.05v.05l.05.15v.3q-.5 1.3.15 1.85l1.85-8.5.05-.05v-.15l.05-.05h.15l.65.1.05.05h.1l.05.05.1-.05L59 77.45m1.3 5.25h-2.1l6.35 6-.35-2.75-.4-3.3-.1.05h-3.4m-9.55 1.75 1.35-3.55.05-.05-1.75-4.35-.95 4.4-.9 4.05.4.15.2.1.1.2.6 1.65.9-2.6m.15.3-.95 2.6.1.3 1.1 3.05 1.05-2.5 1.45-3.35.05-.05-1.45-3.7-1.35 3.65m1.4 3.75L51.25 91l.1.3.1.3 2.5 1.25 3.7 1.85L53.8 85l-1.5 3.5m6.9-.95-1.3-.75 2 9.05 5.9 3.2-.4-3.35-.6-4.75-5.6-3.4m6.6 11.5v.05-.05m4.2-1.8-.8-9.05-3.5-3.6-1.65-1.7.7 6.05V89l.25 1.85 1 8.45v.05l-.05.05h-.1l-.5-.35L63 97.8 59.75 96l-8.2-4.1 1.25 3.65.55 1.55 17.45 9.55h.05v-.1l-.85-9.3" fill="#0c2e52"/><path d="M24.55 45.35 22 37.15l-.05-.1.05-.15v-.05L17.85 24.1l.7.85 12.7 22.55v1.4l-6.7-3.55m7.8 17.35v-.05l1-.25 6.5 7.35 6.2 6.25.9 3.9q-1.6-2.85-4.65-6.3l-.05-.1-1.55-1.2-.2-.15-.15-.15q-3.9-3.45-7.85-9.15l-.15-.15m18.4 21.75-.9 2.6-.6-1.65-.1-.2-.2-.1-.4-.15.9-4.05 1.3 3.55m1.45 3.75-1.05 2.5-1.1-3.05-.1-.3.95-2.6 1.3 3.45m1.75 4.65-2.5-1.25-.1-.3-.1-.3 1.05-2.5 1.65 4.35m16.85 13.8L53.35 97.1l-.55-1.55q6.75 3.2 13.25 7.75L63 97.8l2.35 1.25 5.5 7.5-.05.1" fill="#faffc6"/><path d="M34 47.9q-.1 1.9-.8 3.3-4.55.6-7.85-3.6l-.05-.05h-.05l-.7-2.2 6.7 3.55v-1.4l-12.7-22.55L26 33.9l2.65 6.8L34 47.9m-12.45-7.85 2.15 6.7v6.1l-3.3-4.3q0-2.05.5-4.7v-.05l.05-.05v-.05l.6-3.65m37.3 39.8 2.45.2 2.35 2.4h-3.6l-1.2-2.6m-.7 6.85-.35-.2h-.05l-.05.05h-.05L50.7 76.3l.45.05 3.35 3.15h.1l3.55 7.2m-.4-9.25 1.25.2.1.25.25.15.1.1 1.6 1.65-2.3-.15-1-2.2m2.55 5.25h3.4l.1-.05.4 3.3-3.9-3.25m-2.4 4.1 1.3.75 6.2 8.15.4 3.35-7.9-12.25" fill="#ebc12a"/><path d="m26 33.9.8.9v.05l6.1 7.3h.1q1.05 3.3 1 5.75l-5.35-7.2L26 33.9" fill="#ffe61a"/><path d="m29.8 35.75 2.65.85.1.1 6.4 3.5.05.1 1.1 2.25-5.85-.45-4.45-6.35m14 20.8-.7.95q-1.35 1.45-3.05 2.2l.6-13.5h.05l.6.15.35 6q1.15 4.3 2.15 4.2m.4-.15.85-1.5 1.05 1.6.2.35v4.8Q48 69.3 52.85 73.2l2.65 1.25q1.05 1.05 2.05 1.35h.05q.7.15 1.1.6l-4.95-1.1q-5.4-1.85-7.55-11.05l-2-7.85m-17.35.2-1.35-.2-.05-1.2-.05-.2-.2-.15-3.45-1.75-.65-1.05 2.6 1.65v-6.95l-2.15-6.7.35-2.5 3.2 10.35q-1.15 5.85 2.85 8.85l-1.1-.15m7.25 2.85 4.35 1.6-4.05.9q.8-.65-.3-2.5m25.95 23h-2.1l-3-2.9 3.9.3 1.2 2.6m-1.3-2.8-4.1-.35-.05.05-3.05-2.9 6.2 1 1 2.2m5.45 6.3.35 2.75-6.35-6h2.1l3.9 3.25m-11.4 9.6-1.25-3.65 8.2 4.1L63 97.8l3.05 5.5q-6.5-4.55-13.25-7.75" fill="#cb7810"/><path d="M40.1 42.55q.5 1.5.35 2.95l-.1.2.05.35.05.05v.05l-.05 1.3q-1.6-3.85-7.3-5.5l-.05.05-5.9-7.05 2.65.8 4.45 6.35 5.85.45M53.75 75.3l-4.1-.95-1.2-1.95-.05-.05v-.05l-1.05-1.8Q46 64.75 43.3 57.55l.9-1.15 2 7.85q2.15 9.2 7.55 11.05M70 97.25l.85 9.3-5.5-7.5.5.35h.1l.05-.05v-.05l-1-8.45-.25-1.85v-.05l-.7-6.05 1.65 1.7 1.65 10.05 2.65 2.6" fill="#6f3809"/><path d="M40.35 47.6h.05l-.55 12.25.05.05.05.05v1.4l-.5-.2q-.85-8.3-3.9-14.45 0 3.9-1.9 6.2l-5.1-1.5-2.15-2.35q3 2.9 6.85 2.3h.05l.05-.05q.7-1.3.85-3.15.15-2.5-.95-5.95 5.45 1.65 7 5.35l.05.05h.05" fill="#b5d7d3"/><path d="m26.4 49.05 2.15 2.35 5.1 1.5q1.9-2.3 1.9-6.2 3.05 6.15 3.9 14.45L38.9 61h-.05l-9.5-3.55-.95-.6q-4.3-3-3.05-8.9v-.05l1.05 1.15M57.65 86.6l2 9.1-1.8-.9v-.1l-7.3-18.4h.15l6.95 10.25v.05M59 77.45l-7.55-1.25-.1.05-.05-.05h-.1l-.05-.05-.65-.1h-.15l-.05.05v.15l-.05.05-1.85 8.5q-.65-.55-.15-1.85v-.3l-.05-.15v-.05l-.05-.05 1.5-7.45h.15-.05l-.05-.1.05-.1h.1l9 1.85.15.85m6.8 21.6-5.9-3.2-2-9.05 7.9 12.25" fill="#fff"/><path d="m25.5 56.4 1.35.2 5.3 5.85-.45.1q-5.65-.9-6.2-6.15m-1.8-3.55v.85l-2.6-1.65q-.65-1.4-.7-3.5l3.3 4.3" fill="#eaefbc"/><path d="M41.3 46.35q4 1.25 3.75 7.4l-.1.85v.05l-1.15 1.9q-1 .1-2.15-4.2l-.35-6m5 10.5q2.9 4.7 4.95 11.25l.05.1q1.4 2.65 2.65 4.4l.15.15.1.2 1.3 1.5-2.65-1.25Q48 69.3 46.3 61.65v-4.8m-19.45-.25 1.1.15 1.3.85 4.85 1.85q1.1 1.85.3 2.5l-2.25.5-5.3-5.85m20.1 23.3-.9-3.9-6.2-6.25-6.5-7.35 2.15-.5v.05l.05.1.65.65q4.95 4.75 9.8 7.35l1.15.55 1.05 1.8.05.05.05.05 1.3 2.2h-.1l-.05.05-1.4 7.3-1.1-2.15m7.65-.4 3.25 3.15.05.05 6.65 6.35.2 1.6-6.6-3.95-3.55-7.2m-5.15 1.4.95-4.4 1.75 4.35-.05.05-1.35 3.55-1.3-3.55m1.45 3.85 1.35-3.65 1.45 3.7-.05.05-1.45 3.35-1.3-3.45m1.4 3.75 1.5-3.5 3.85 9.7-3.7-1.85-1.65-4.35m6.9-.95 5.6 3.4.6 4.75-6.2-8.15" fill="#ffdb53"/><path d="M45.85 69.75q-4.6-2.55-9.35-7.05l3.55-.2 1.35-1.1q2.9 4.65 4.45 8.35" fill="#2be7fd"/><path d="m35.7 61.9 3.15-.7 1.2.35h.1V59.9q1.65-.75 3-2.2 2.6 7.05 3.95 12.65l-1.25-.6q-1.55-3.7-4.45-8.35l-1.35 1.1-3.55.2-.8-.8" fill="#6a7fd1"/><path d="m65.7 84.6 3.5 3.6.8 9.05-2.65-2.6L65.7 84.6" fill="#a2530c"/></g><g id="x" fill-rule="evenodd"><path d="M41.7 16.1v.05l2.95 8.55.05.25-.15.2-.3.1-.25-.05-2.4-1.55-.15-.25v-.25Q33.05 17.2 27.8 11.3l-2.25.45-1.5 6.9-.05.05-8.55 11.05h-.1l-.05-.05-5.5-8.25-.05-.05v-.05l-.95-1.4h-.05l-.9-8.5-.2.1q-1.15.55-2.35.6l-1.8-.25-2.5 3-.1.55-.2.3-.3.05-.3-.15-.1-.3q.55-4 4.15-9.05l.05-.05Q6.05 4 7.65 2.75l.85-.65L8.25.5l.1-.35q.1-.15.3-.15l.3.1.15.25.3 1.9v.25l-.1.3q-.1.1-.25.15L8.8 4.5v.05l5.15 5.3 1.5-1.1.2-.2h.05V8.5l.25-.15q.55-.4 1.05-.7 4.35-2.9 8.5-4.25-.05-.15.05-.25.1-.15.3-.2 1.3-.2 2 .7l.3-1.5.2-.25.15-.05.05-.05.3-.1q6.75.45 12.85 14.4m-1.4 2.5 1.9 1.55-1.25-3.7q-5.3-12-10.9-13.65-.6 3.1 1.05 6.65l1.35 2.5.35.45 7.5 6.2m.95 4.15.3.25.25-.1.3.05 1.35.85-1.15-3.3-9.65-8h-.05l-.1-.15q-.95-1.4-1.6-2.8-1.65-3.6-1.05-6.8l-.75-.15h-.15l-.45 2.3-.2.25-.05.05-.15.1-.95 4.7.55.8.2.3 1.55 1.7q4.8 4.95 11.8 9.95M27.85 5.5v-.2l-.1-.05-.1-.05q-4.7 2.65-8.2 5.3l3.1.4h.1l2.9.45.05.05v.1h.05l2-.4-.35-.55-.35-.5v-.1l.9-4.45m-1.7-1.65H26l-.35-.1-.1-.1q-4.15 1.3-8.45 4.2l-1 .7V8.5l-.3.2-.05.05-.2.15L14.1 10l-.1.05-.1.05-.05-.05-5.2-5.35v-.05l-.5-.2L7.7 5.6l-.5 1.3.45.6h.05l.05.05 2.1 2.4V10l.45.5.05.05 3.7 4.3.1.1.15-.1 1.1-1.2.25-.15v-.05h.05l.25-.25h-.05l1.1-.95 2.15-1.8Q22.7 7.75 27.5 5q-.3-1.25-1.35-1.15m-.8 7.75.05-.05h.05-.05l-2.65-.45-.65 4.95-.05.05v.05l-.9 1.65q-1.9 3.4-4.05 5.85l-.35.4-.2.25-.8.85-.7.7h-.15v-.05l-2.35-4.35-.05-.05v-.05L10.65 18l-.05-.05-.1-1.8-.35-5.5-.4-.45-1.1.8-.6.35H8l.05.1.9 8.45.35.5.6.85v.1h.05L15 28.9l.4.6 7.75-10.05.7-.85 1.5-7m-3.5 4.45h.05V16l.65-4.9-2.55-.35-.65-.1h-.05v-.05l-2.2 1.8-1 .95-.25.2-.05.05-.05.05-.2.2-1.25 1.3-.05.05-.05.05h-.05l-.05-.05-3.75-4.3.45 7 1.85 3.35v.1h.05L15 25.6l.75-.75 1-1.1.2-.2q2.6-3.05 4.9-7.5M7.55 5.5 8 4.25l.05-.05h.1l.45.2.25-1.45-.2.1-1 .8-2.8 2.95h.05q-2.65 3.7-3.6 6.8l-.25.9 2.3-2.7v-.05l.05-.05.05-.05.05-.05 4-4L7 7l-.05-.05L7 6.9l.55-1.4m.9 3.1-.8-.85L3.7 11.7l1.8.2 2.15-.55.2-.15h.1v-.05l.7-.4.95-.7L8.45 8.6" fill="#0c2e52"/><path d="m21.9 16-.05.05q-2.3 4.45-4.9 7.5l-.2.2q-.35-2 .55-6.4l2.75-1.7-.5-3.15-2.65 2.1 3.1-3.85 2.55.35-.65 4.9" fill="#ffdb53"/><path d="m32.45 11.95-1.35-2.5Q29.45 5.9 30.05 2.8q5.6 1.65 10.9 13.65l1.25 3.7-1.9-1.55Q37.55 13.05 32.05 8l.4 3.95M16.9 14.6l2.65-2.1.5 3.15-2.75 1.7-1.55.95q-.5 4.55 0 6.55l-.75.75-2.3-4.25h-.05v-.1L10.8 17.9l-.45-7 3.75 4.3.05.05h.05l.05-.05h.05v1.45l2.6-2.05" fill="#faffc6"/><path d="m20 10.75-3.1 3.85-2.6 2.05v-1.5l1.25-1.3.2-.2.05-.05.05-.05.25-.2 1-.95 2.2-1.8v.05h.05l.65.1m-2.7 6.6q-.9 4.4-.55 6.4l-1 1.1q-.5-2 0-6.55l1.55-.95" fill="#f4b83a"/><path d="m29.45 12.8 3.1 1.15q4.2 3.35 6.75 6.55l1.95 2.25q-7-5-11.8-9.95M26 3.9l.15-.05Q27.2 3.75 27.5 5q-4.8 2.75-8.35 5.45L17 12.25l-1.1.95h.05l-.25.25h-.05v.05l-.25.15-1.1 1.2-.15.1-.1-.1q-.25-1.15.75-3.4l-.15-.1q2.4-4.15 7.55-5.7L26 3.9m-2.85 15.55L15.4 29.5l-.4-.6v-3.05h.05l.7-.7.8-.85.2-.25.35-.4q2.15-2.45 4.05-5.85l2 1.65" fill="#a2530c"/><path d="m30.9 9.55-2.15 1 .35-7.95.75.15q-.6 3.2 1.05 6.8m-16.85 5.3-3.7-4.3-.05-.05-.45-.5v-.05l-2.1-2.4-.05-.05h-.05l-.45-.6.5-1.3 6.95 5.75.15.1q-1 2.25-.75 3.4M15 28.9l-5.05-7.55H9.9v-.1l-.6-.85 1.05-1.05.15-3.2.1 1.8.05.05 1.85 3.35v.05l.05.05 2.35 4.35v.05h.1v3.05" fill="#cb7810"/><path d="m28.75 10.55-1.05.25-.55-.8.95-4.7.15-.1.05-.05.2-.25.45-2.3h.15l-.35 7.95M26 3.85v.05l-3.8 1.75q-5.15 1.55-7.55 5.7L7.7 5.6l.45-1.15.5.2v.05l5.2 5.35.05.05.1-.05.1-.05 1.45-1.1.2-.15.05-.05.3-.2v.05l1-.7q4.3-2.9 8.45-4.2l.1.1.35.1M9.3 20.4l-.35-.5-.9-8.45v-.1l.6-.35 1.1-.8.4.45.35 5.5-.15 3.2L9.3 20.4m-8-6.8q.95-3.1 3.6-6.8h-.05l2.8-2.95 1-.8.2-.1L8.6 4.4l-.45-.2h-.1L8 4.25 7.55 5.5 1.3 13.6" fill="#ffe61a"/><path d="M7.55 5.5 7 6.9l-.05.05L7 7l.5.6-4 4-.1.1-.05.05v.05l-2.3 2.7.25-.9 6.25-8.1" fill="#a4550c"/><path d="m27.85 5.5-.9 4.45v.1l.35.5-5.8-.45 6.35-4.6M5.5 11.9l-1.8-.2 3.95-3.95.8.85-2.95 3.3" fill="#6a7fd1"/><path d="m22.55 10.9-3.1-.4q3.5-2.65 8.2-5.3l.1.05.1.05v.2l-6.35 4.6 5.8.45.35.55-2 .4-.05-.05v-.05l-.05-.05-2.9-.45h-.1M8.45 8.6l1.15 1.45-.95.7-.7.4v.05h-.1l-.2.15-2.15.55 2.95-3.3" fill="#2a41a0"/><path d="M30.9 9.55q.65 1.4 1.6 2.8l.1.15h.05l9.65 8 1.15 3.3-1.35-.85-.3-.05-.25.1-.3-.25-1.95-2.25q-2.55-3.2-6.75-6.55l-3.1-1.15-1.55-1.7-.2-.3 1.05-.25 2.15-1m-5.55 2.05-1.5 7-.7.85-2-1.65.9-1.65v-.05l.05-.05.65-4.95 2.65.45-.05.05" fill="#6f3809"/><path d="m40.3 18.6-7.5-6.2-.35-.45-.4-3.95q5.5 5.05 8.25 10.6" fill="#f3d76d"/></g><use ffdec:characterId="2" height="182.65" width="124.7" xlink:href="#n" id="c"/><use ffdec:characterId="4" height="15.3" width="12.5" xlink:href="#o" id="d"/><use ffdec:characterId="6" height="182.65" width="96.3" xlink:href="#p" id="e"/><use ffdec:characterId="8" height="55.45" width="175.35" xlink:href="#q" id="f"/><use ffdec:characterId="10" height="49.55" width="32.75" xlink:href="#r" id="g"/><use ffdec:characterId="12" height="71.4" width="62.75" xlink:href="#s" id="h"/><use ffdec:characterId="14" height="41.55" width="42.9" xlink:href="#t" id="i"/><use ffdec:characterId="20" height="38.7" width="33.95" xlink:href="#u" id="j"/><use ffdec:characterId="22" height="83.3" width="46.5" xlink:href="#v" id="k"/><use ffdec:characterId="24" height="107.85" width="71.8" xlink:href="#w" id="l"/><use ffdec:characterId="26" height="29.75" width="44.7" xlink:href="#x" id="m"/><path d="M27.75 0q0 2-8.15 3.4Q11.5 4.9 0 4.9q-11.5 0-19.65-1.5-8.1-1.4-8.1-3.4 0-2.05 8.1-3.5Q-11.5-4.9 0-4.9q11.5 0 19.6 1.4 8.15 1.45 8.15 3.5" fill-opacity=".349" fill-rule="evenodd" transform="translate(27.75 4.9)" id="b"/></defs></svg>