<svg xmlns:ffdec="https://www.free-decompiler.com/flash" xmlns:xlink="http://www.w3.org/1999/xlink" ffdec:objectType="frame" height="90" width="90" xmlns="http://www.w3.org/2000/svg"><use ffdec:characterId="39" height="227.45" transform="translate(-.963 -1.297) scale(.3931)" width="284.35" xlink:href="#a"/><defs><g id="a" transform="translate(2.45 3.3)"><use ffdec:characterId="1" height="8.3" transform="matrix(2.0681 0 0 3.8963 49.811 191.814)" width="62.65" xlink:href="#b"/><use ffdec:characterId="8" height="95.1" transform="translate(48.305 111.908) scale(1.1446)" width="104.95" xlink:href="#c"/><use ffdec:characterId="10" height="47.75" transform="translate(85 95.45) scale(1.1446)" width="46.2" xlink:href="#d"/><use ffdec:characterId="12" height="102.9" transform="rotate(25.829 -61.19 126.046) scale(1.1431)" width="52.6" xlink:href="#e"/><use ffdec:characterId="14" height="52.2" transform="rotate(28.866 -98.852 153.986) scale(1.1429)" width="32.5" xlink:href="#f"/><use ffdec:characterId="16" height="46.9" transform="rotate(15.294 -93.505 339.976) scale(1.1436)" width="24.5" xlink:href="#g"/><use ffdec:characterId="18" height="39.5" transform="matrix(1.1446 0 .0458 1.1446 93.5 63.9)" width="43.3" xlink:href="#h"/><use ffdec:characterId="20" height="125.65" transform="matrix(.899 -.7054 .7054 .899 122.3 87.4)" width="78.95" xlink:href="#i"/><use ffdec:characterId="22" height="58.7" transform="matrix(1.1431 -.3944 .7054 .899 111 110.45)" width="60.5" xlink:href="#j"/><use ffdec:characterId="24" height="62.6" transform="matrix(1.1046 -.2963 .2963 1.1046 125.1 33.45)" width="35.6" xlink:href="#k"/><use ffdec:characterId="38" height="98.8" transform="rotate(-3.553 194.97 -1202.19) scale(1.1443)" width="64.25" xlink:href="#l"/></g><g id="s" fill-rule="evenodd"><path d="m476.1 214.45 3.05.35q24.7-2.05 32.05 15 13 11.2 29.75 7.25-9.6 4.55-21.1 5.35-8.45-12-71.75 7.95-69.45 20.85-82.1 55.05 4.45 8.35 12.8 10.85 7.45 36.6-37.85 59.3 16.25 42.55-101.45 112.8-66.1 22.15-120.9 34.9Q210 491.5 283.95 435.1l3.9-3q45.9-49.1 15.55-65.6 72.8-33.25 58.55-55.6-18.95-21.8-118.65-5 32.3-15.1 60.05-39.05 24.4-38.35-17.5-33.55-.15-9.4-20.5-2.95l-6.75 1.45q5.35-5.45 1.7-13.5-22.35-13.6-67.6 16.5l-8-2.5 33.05-31.55q15.45-34.25-30.05-11.5h-13.5q27.05-29.25 75.1-54.1l.25-.3 2.35-3.05 2.4-3.7-4.9-4.25q8.85-17.05 5.35-46.5v-.05l2.65-4.1q35.75 47.55 11.8 71.45l-3.05 2.7-3.05 2.3q-9.2 6.4-23.8 10.6h35.55l-2.1 5.1q-12.8 27.55-49 48.95 94.65-50.1 114.2-35.05 30.6 21.8 1.8 49 50.9-16.05 54.75-64.5 56.7 70.8-86.6 124.2 137.9-36.2 168.2-73.5" fill="#241549" transform="translate(-14 16)"/><path d="m657.35 178.5 7.05-7.8q-24.2 6.1-18.05-22 11.65-20.85 44.1-36.55-25.35 3.35-47.1 17.5l1.35 1.9 4.6 6.4q-11.95 16.65-3.45 34.25.2 13.4-10.5 19.7-7.7 4.5-21 5.35v3.5l12-2q22.65-.3 26.95-15.5l3.8-4.5.25-.25m-206-180.9q47.45 29.3 40.35 105.05l-25.6 79.6q-6.4 31.25 19.55 28.05 22.45-.8 31 17 2.25 6.25 17.55 7.55 19.85-14.1 43.55-16.55 12.35-3.1 26.05-19.55 6.55-10.85 20.55-11.5 22.75-6.75 15-21.55-6.25-8.25-21.55-9 44.3-21.8 16.05-24.5 32.75-24.15 92.65-26.55-54 8.35-76.6 42.55-5.25 29.3 18.05 16.55 1.05 8.05-11.55 19.5-3 14.75-27.55 17.05-14-1.9-18.5 9.5-10 15.1-28.05 15.5-23.45 1.1-35.55 13.55-18.05 22.85-42.05 16 20.45-10.2-4.55-10.5-81.2 17.85-123.15 54.6 3.6 16.15 53.05-5 1.75 17.8 32.05-2.5 36.95 2.25 72.1-6.55-14.75 27.1-73.05 46.6-79.9 114-238.35 168.75-129.1 31.5-208.8 83.6 28.15-35.55 140.2-85.1 114.1-50.1 146.15-100.2 14.55-30.55-25.05-17.5l3.55-5.5q-33.4 10.15-64.1 27 45.05-32 102.65-54.55 48.05-24.75 23.05-39.05-155.35 2.5-258.9 50.6Q100 333.75 221.8 305.4q93.15-44 79.6-61.05-41.05-.05-25.55-8.55-48.6 15.25-19-2.5-58.05 14-109.65 44.1 44-31.2 107.15-53.6l-16.55 2.55q-44.55 26.85-53.6 17-8.95-8.05-26.5-9 24.4-6.45 50.55-33.55l3.8-5.9q9.2-16.15-18.4 1.1l-3 1.9-4.45 2.9-1.9-1.05-2.05-.9q-12.05-4.9-30.55-1.1 33.95-39.35 89.1-68.1l1-1.2q-25.5-19.3-66.05-28.5 10.8-1.75 21-4.95 37.6-11.9 66.5-44.15 3.9-4.3 7.6-9l5.6-.65q-33.9 47.9-84.65 59.7 30.4 7.6 52.25 24.35l3.05 2.45-1.8 2.45-.75.45q-56.1 31.3-84.4 62.65 14.6-1.35 26.55 4 11.3-11.5 29.55-14.5 8.7 16.35-43.55 50.6l10 3q8.85 14.85 42.55-10.55 29.85-14.65 33.55 0l-31.05 12.55 30.85-6.55 6.75-1.45q-17.55 7.25 16.5 3.5-10.65 5.4 18.55 7 30.7 16.6-69.1 65.1-74.85 17.45-122.2 40.55 70-26.9 150.75-35.55 79.95-11.65 92.1 2.5 14.7 25.7-77.55 59.3l21.5-3.2-4 4q36.9 2.75-10.5 55.1l-8.35 6.45q-51.35 38.65-125.4 71.65Q90 532.7 46.5 559.85q84.15-38.4 182.5-64.6l3.8-1Q389.5 433.5 458.6 329.5q50.45-15.5 67.6-38.6-31.3 8.35-64.1 6.5-23.75 18.95-36.55 3-48.9 23.4-51.05 0 36.1-42.3 132.7-59.05 14.95 2.4 7 13l5.25-.55q13.65-2.75 27.3-17.95l5.5-6.05q-5.3 4.35-11.3 7.25-16.75 3.95-29.75-7.25-7.35-17.05-32.05-15l-3.05-.35q-25.05-4.15-9.95-48.7l20.6-70.85q-6.45-72.1-35.4-97.3M606.8 211.3l-16 4-12 6.5q-13.6-.4-24.05 7 11-5.05 27.05-5 19.2-5.4 25-12.5m-360.6-89.95q7.35-14.9 4.65-37.75l3.9-6.25q3.5 29.45-5.35 46.5l-3.2-2.5" transform="translate(-14 16)"/><path d="m276.45 41.2 4.65-.55q-29.15 47.1-76.3 60.75 23.3 6.15 41.4 19.95l3.2 2.5 4.9 4.25-2.4 3.7-2.35 3.05-.25.3q-48.05 24.85-75.1 54.1h13.5q45.5-22.75 30.05 11.5L184.7 232.3l8 2.5q45.25-30.1 67.6-16.5 3.65 8.05-1.7 13.5l-30.85 6.55 31.05-12.55q-3.7-14.65-33.55 0-33.7 25.4-42.55 10.55l-10-3q52.25-34.25 43.55-50.6-18.25 3-29.55 14.5-11.95-5.35-26.55-4 28.3-31.35 84.4-62.65l.75-.45 1.8-2.45-3.05-2.45Q222.2 108.5 191.8 100.9q50.75-11.8 84.65-59.7" fill="#e48fff" transform="translate(-14 16)"/><path d="M208.25 200.8q-14.6 1.85-17.6-2.9l3-1.9q5.95 5.25 18.4-1.1l-3.8 5.9m-23.95-1.05q-13.05 16.65-34.1 25.05-20.05 17.35-43.1 13.5-39.95 5.95-33.05-21 14-22.8 25.05-8.5-16.1 12.9 5 14.5 12.4-8.05 26.55 0 27.1-1.05 51.6-24.45l2.05.9M552.75 353.5q5.55 4.45 0 7.05-8.3 2.55-3 8.5 14.55 1.4 16 14.5-5.5 6.6 0 9.55 28.7-.6 41.1-63.1 12.65 89.45-75.6 126.65 29.9-29.8-12.05-21-32.15 17.75-15 30.05-59.1-.7 5-36.1 30.1-6.5 20.5-19 10.95-8.25 5.55-16.55-17.25-1-20.05-10 23.65-57.65 75.6-62.6-29.65 14.5-38.05 32.05m-8.55 92.7-.95 1.95q59.25-31.65 61.1-94.65-10.45 32.35-30.55 41.6-19.05 3.8-11.5-12.05-.95-6.5-8.05-8.5-12.05-5.2-7.5-14.5 5.8-2.1 2.5-6.05 7.25-16 24.55-27-11.75 5.4-21.35 12.75-20.35 15.55-31.25 39.8-2.75 10.85 15.55 10.5 9.55 10.8-2.5 21.55 1 3.25.05 6.15-.45 1.35-1.3 2.6-5.05 7.4-24.3 12.3-47.05 29.3-14.5 29.55-6.45-18.95 35.55-32.55 22.8-2.4 14.45 16.55M111.75 224.4q-3.95 1.15-8.15 3.9-21.75-4.55-12.25-16.85v-.05l2.25-2.6q-16.1-6.65-16.55 20 11.55 11.1 29.55 6l1.65.2q22.55 2.35 36.4-9.2h-19q-6.35-3.65-13.9-1.4" fill="#2a1950" transform="translate(-14 16)"/><path d="M653.3 183.25q-4.3 15.2-26.95 15.5l-12 2v-3.5q13.3-.85 21-5.35 8.95.85 17.95-8.65M519.45 253.8l-5.25.55q7.95-10.6-7-13-96.6 16.75-132.7 59.05 2.15 23.4 51.05 0 12.8 15.95 36.55-3 32.8 1.85 64.1-6.5-17.15 23.1-67.6 38.6-69.1 104-225.8 164.75l-3.8 1q11.45-5.4 22.5-10.95 14.95-7.55 29.1-15.4 113.85-63.15 176.5-146.95 25.15-5.45 45.6-20.55h-35.6q-24 22.1-44.05 4-28.85 15.45-44.25 10.85-8.35-2.5-12.8-10.85 12.65-34.2 82.1-55.05 63.3-19.95 71.75-7.95 2.75 3.95-.4 11.4m33 85.95q9.6-7.35 21.35-12.75-17.3 11-24.55 27 3.3 3.95-2.5 6.05-4.55 9.3 7.5 14.5 7.1 2 8.05 8.5-7.55 15.85 11.5 12.05 20.1-9.25 30.55-41.6-1.85 63-61.1 94.65l.95-1.95q23.15-13.1 36.65-39.55 2.65-5.25 4.95-11.05-28.95 18.25-29.05-4.55 1.2-11.95-11.5-12-5.6-11.2.9-27.15 2.35-5.8 6.3-12.15M125.2 231.25l1.95-.45-15.4-6.4q7.55-2.25 13.9 1.4h19q-13.85 11.55-36.4 9.2l16.95-3.75" fill="#bc34e4" transform="translate(-14 16)"/><path d="M546.15 351.9q-6.5 15.95-.9 27.15 12.7.05 11.5 12 .1 22.8 29.05 4.55-2.3 5.8-4.95 11.05-13.05 20.55-26.1 26-4.2-13.6-21.75-12.3.85-1.25 1.3-2.6 26.3-26.5-5.05-37.7 2.35-17.6 16.9-28.15M91.35 211.45q-9.5 12.3 12.25 16.85 4.2-2.75 8.15-3.9l15.4 6.4-1.95.45-17.1-2.95q-42.9 5.5-16.75-16.85" fill="#221442" transform="translate(-14 16)"/><path d="m281.1 40.65 17.6-2.05q105.75-81.8 152.65-41 28.95 25.2 35.4 97.3l-20.6 70.85q-15.1 44.55 9.95 48.7-30.3 37.3-168.2 73.5 143.3-53.4 86.6-124.2-3.85 48.45-54.75 64.5 28.8-27.2-1.8-49-19.55-15.05-114.2 35.05 36.2-21.4 49-48.95l2.1-5.1H239.3q14.6-4.2 23.8-10.6l3.05-2.3 3.05-2.7q23.95-23.9-11.8-71.45l-2.65 4.1v.05l-3.9 6.25q2.7 22.85-4.65 37.75-18.1-13.8-41.4-19.95 47.15-13.65 76.3-60.75m50.85 54-34.05 63.1 51.05-30.55q17.85-37.1-17-32.55" fill="#09041c" transform="translate(-14 16)"/><path d="m644.7 131.55 15.7-5.4q-6.85 5.85-11.1 11.8l-4.6-6.4m1.15 40.65 11.4 6.25-.15.3-3.7 4-.1.5q-9 9.5-17.95 8.65 10.7-6.3 10.5-19.7m-39.05 39.1q-5.8 7.1-25 12.5-16.05-.05-27.05 5 10.45-7.4 24.05-7l12-6.5 16-4m-54.35 128.45q-3.95 6.35-6.3 12.15-14.55 10.55-16.9 28.15 31.35 11.2 5.05 37.7.95-2.9-.05-6.15 12.05-10.75 2.5-21.55-18.3.35-15.55-10.5 10.9-24.25 31.25-39.8m28.4 66.9q-13.5 26.45-36.65 39.55 8.35-18.95-14.45-16.55-42 13.6-35.55 32.55-32.55-.25 14.5-29.55 19.25-4.9 24.3-12.3 17.55-1.3 21.75 12.3 13.05-5.45 26.1-26m-489.5-195.2Q65.2 233.8 108.1 228.3l17.1 2.95-16.95 3.75-1.65-.2q-18 5.1-29.55-6 .45-26.65 16.55-20l-2.25 2.6v.05" fill="#8b53ff" transform="translate(-14 16)"/><path d="m273.05 435.1 8.35-6.45q47.4-52.35 10.5-55.1l4-4-21.5 3.2q92.25-33.6 77.55-59.3-12.15-14.15-92.1-2.5-80.75 8.65-150.75 35.55 47.35-23.1 122.2-40.55 99.8-48.5 69.1-65.1-29.2-1.6-18.55-7-34.05 3.75-16.5-3.5 20.35-6.45 20.5 2.95 41.9-4.8 17.5 33.55-27.75 23.95-60.05 39.05 99.7-16.8 118.65 5 14.25 22.35-58.55 55.6 30.35 16.5-15.55 65.6l-3.9 3h-10.9" fill="#d083ff" transform="translate(-14 16)"/><path d="M378.8 316.25q15.4 4.6 44.25-10.85 20.05 18.1 44.05-4h35.6q-20.45 15.1-45.6 20.55-35.8 15.7-93.15 88.1L280.6 468.9q-14.15 7.85-29.1 15.4l-12 4.05q117.7-70.25 101.45-112.8 45.3-22.7 37.85-59.3" fill="#140c31" transform="translate(-14 16)"/><path d="M229 495.25q-98.35 26.2-182.5 64.6 43.5-27.15 101.15-53.1 74.05-33 125.4-71.65h10.9Q210 491.5 118.6 523.25q54.8-12.75 120.9-34.9l12-4.05q-11.05 5.55-22.5 10.95" fill="#fcf" transform="translate(-14 16)"/><path d="m644.7 131.55-1.35-1.9q21.75-14.15 47.1-17.5-32.45 15.7-44.1 36.55-6.15 28.1 18.05 22l-7.05 7.8-.05-.05h-.05l-11.4-6.25q-8.5-17.6 3.45-34.25 4.25-5.95 11.1-11.8l-15.7 5.4" fill="#b833e0" transform="translate(-14 16)"/><path d="M540.95 237.05q6-2.9 11.3-7.25l-5.5 6.05q-13.65 15.2-27.3 17.95 3.15-7.45.4-11.4 11.5-.8 21.1-5.35" fill="#371ba3" transform="translate(-14 16)"/><path d="M331.95 94.65q34.85-4.55 17 32.55l-51.05 30.55 34.05-63.1" fill="#100929" transform="translate(-14 16)"/><path d="m280.6 468.9 83.35-58.85q57.35-72.4 93.15-88.1-62.65 83.8-176.5 146.95" fill="#301d59" transform="translate(-14 16)"/><path d="m492.2 25.15 3-1.35q2.5 49.5 16.85 90.15l3.15 8.5.8 2 .85 2q5.9 14.35 13.4 27.55-57.35-.05-60.55 42.55l-5.3-2.5q3.75-45 59.35-43.55Q492 99 492.2 25.15" fill="#29184e" fill-opacity=".98" transform="translate(-14 16)"/><path d="M464.4 194.05q-168.15-80.95 27.8-168.9Q492 99 523.75 150.5q-55.6-1.45-59.35 43.55" fill="#050212" transform="translate(-14 16)"/></g><g id="t" fill-rule="evenodd"><path d="m24.25 12.8-3.15-.3q-.2 2.35-1.6 4.45L18 18.7q.1-4.95-1.45-9.25 3.15 2.95 8.4 2.9l-.7.45m-6.65 7.95q4.55-.05 10.35-3.1l-.35.65-1.5.7-3.9 4.2-1.2.2 4-3.8-6.7 2.05-.9 1.8-.5-.05.7-2.65m3.15-8.35q-1.85-.45-3.35-1.35 1.35 2.55 1.05 6.2 1.7-1.85 2.3-4.85" fill="#f88c2e"/><path d="M19.5 16.95q1.4-2.1 1.6-4.45l3.15.3q-2.55 1.75-4.75 4.15m-4.25 1.35 1.7 2.35-.4 2.75q-1.05-1.5-1.95-3.55l.65-1.55M21 23.4l1.2-.2 3.9-4.2 1.5-.7q-.9 1.85-1.2 3.95-4.8 2.65-9.6 1.55l.1-.4.5.05 3.6-.05m15 2.2 1.55-3.1.15-1.95 3.55 1.1Q38.9 24 36 25.6" fill="#651a22"/><path d="m24.25 12.8.7-.45 1.25-.7q3.05-1.7 6.55-2.35L40 5.25l-1.7.1 1.3-.95 4.65-.25q-3.05 2.6-5.8 6.35l-.65 9.15 4.15 1.2q.85 6.85 3.75 9.4Q48.6 41.65 34 47.7q-7.3.6-10.75-11.3-3-7.25-11.85-7.7L8.25 31Q5.55 36.55 0 38.75q1.3-3.05.7-8.95-1.4-6.35.4-11.75l5.95.55.4 1.1h.4l.25.5 1.45 2.5q1.6 2.25 4.1 4.35l.55.45q-2.55-3.85-2.65-8.7l.4-.25.1.8.4 2.5.35 1.15q.65 2.15 1.85 4.05l.65.95.65-1.95.15-.55.35-1.65.1-.45.4-2.75.05-.85V19l-.05-2.1-.45-3.65L16 11l-.45-1.5-.35-1v-.05Q14 5.1 12 1.7q2.6 3 4.05 6.45l.5 1.3q1.55 4.3 1.45 9.25l1.5-1.75q2.2-2.4 4.75-4.15M37.9 9.95l3.85-4.9q-5.15 1.85-8.7 4.6-8.7 1.8-15.15 9.85l-.15.6-.15.65-.7 2.65-.1.4-1.15 4.25.75.05.5.05q8.5.3 14.15-1.95l.8-.35 1.4-.7q1.7-.9 3.05-2.15l.6-.55.05-.2.4-5.65-.95 1.4-2.1 2.2-.55.4-.55.4-1.45.7h-.05l-.65.15v-.15l-.05.15q-1.4.05-1.6-1.9.65-3.35 3.85-3.3 1.75 1.3-.8 2.6.85-.9.9-1.4.1-.65-1.25-.55-3.6 2.5-1.2 4.05 3.35-.65 5.65-4.4l.85-1.55.1-1.35.05-.75.2-2.4.05-.75.1-.2m-26.75-9-.7-.15q3.85 7.6 3.6 12.65l-1.3-3.2v-.1q-.9-4-3.3-10.15l2.25.15 1 1.25-1.55-.45m1.75 9.9.15.9-.55 1.55-.2.65q-.7 2.45-.4 3.95l-.35.45Q10.3 15 12.9 10.85M8.2 21.3l-.75-1.6-5.75-.65q-1 3.8-.2 7.55l.65 8.35 1.8-3.9q4.95-3.7 10.4-3l-2-1.5Q9.8 24.4 8.2 21.3m21.6 6.1-.3.1-5.9 1.35q7.2-.4 12.4-3.25 2.9-1.6 5.25-3.95l-3.55-1.1-.15 1.95-1.5 1.55q-2.5 2.05-6.25 3.35m11.3-4.9-2 1.7-.05.05q-8.15 6.25-20.55 4.7l-1.8-.3q6.75 3 7.15 7.9 2.35 9.05 8.5 10.65l.6.15 4.15-1.95q8.65-4.85 8.45-12.55l-.15-1.95q-4.6-3.5-3.9-8.85l-.4.45M4.25 31.45l-2.7 5.3q1.9-.95 4.9-6.2l2.3-1.5q-2.3.65-4.5 2.4M6.8 31l-3.15 4.9q2.7-1.75 4.35-5.35l2.4-1.85-1.1.2L6.8 31" fill="#132453"/><path d="m27.35 12.55-1.15.65-2.35 1.3-6.1 5.6.15-.6q6.45-8.05 15.15-9.85 3.55-2.75 8.7-4.6l-3.85 4.9-.1.15v.05l-.5.8.15-1.2.35-.8q.55-1.1 1.7-2.35l-3.7 2.05-.9.5-.7.4-1 .55-5.35 2.2-.5.25m9.15 3.8-.1-1.3 1.1-1-.1 1.35-.85 1.55-.05-.6M36.4 18l.95-1.4-.4 5.65-.55.05V18m1.35-7.1-.2 2.4-.8.85v-.6l.05-1.25.95-1.4" fill="#fbfbfc"/><path d="m26.2 13.2 1.15-.65q.8 1.5-.55 2.7l-.75.4-1.5-.15q2.6-.6 1.65-2.3m8.7-4.05.9-.5 2 .3-.35.8q-1.9-.05-2.55-.6m-20.85.15-.2-1.3 1.7 1.5L16 11l-1.95-1.7m-1.6 12.55 1.05-1.95.4 1.2-.45.75L12.8 23l-.35-1.15m16.3-6.75.2.4-.2.45-.55.15-.5-.15-.25-.45.25-.4q.2-.2.5-.2l.55.2m-1.75 8q1.8.2 1.6 1.7-.75.6-1.55.65-.25-1.05-.05-2.35m7.8-13.55.4.15.2.45-.2.4-.4.2-.45-.2-.15-.4q0-.25.15-.45.2-.15.45-.15m6.3 12.95.4-.45q-.7 5.35 3.9 8.85l.15 1.95Q40.1 29 41.1 22.5m-18.85 8.8 1.5 1.65q3.8.7 1.15 4.55l-.25-.45q1.65-2.75-.95-2.75l-1.45-2.95v-.05m6.25 11.45q-.15-3.4 2.15-6.55-1.4 3.95-1.2 7.7l-.95-1.15" fill="#8fadff"/><path d="m27.35 12.55.5-.25 5.35-2.2 1-.55-2.45 3.2-4.95 2.5q1.35-1.2.55-2.7m-9.6 7.55 6.1-5.6q.05.7.7 1l1.5.15-5.65 2.9-.35 1.25-2.3.3M13.85 8 12.6 3.75l2.6 4.7v.05l.35 1-1.7-1.5m-1.8 11.35L13 18.2l.5 1.7-1.05 1.95-.4-2.5m1.4 2.5.45-.75 1.45 3.2-.1.5-1.8-2.95m3.1 5.75.55-2.25q2.75.05 6.6-1.25-3.05 2.45-7.15 3.5m15.3-1.75-.8.35q2.5-3.2.15-2.95l.25-.65q2.75.65.4 3.25M1.95 27.4q-.3-3.6.35-6.85H5q.85 1.7 2.35 1.2L9.9 25l-6.1-2.65-1.85 5.05m30.9 2.4q1.1.45 1.65 1.2-2.9 1.95.65 7.6-5.1 1.45-5.3 5.8l-.4-.5q-.2-3.75 1.2-7.7-2.3 3.15-2.15 6.55l-3.6-5.25q2.65-3.85-1.15-4.55l-1.5-1.65q3.35-.25 6.25-1.1l2.6-.85 1.75.45" fill="#436bd6"/><path d="M24.95 12.35q-5.25.05-8.4-2.9l-.5-1.3q3.75 3.95 10.15 3.5l-1.25.7m-10.9 1.1.15.35q1.65 3.85 2.8 5.2v.8q-2-2.5-3.05-5.5l-.5 2.2-.3-.95.1-.85q.1-1.25-.2-2.95l-.15-.9-.15-.6 1.3 3.2m3.55 7.3.15-.65 2.3-.3q3.8-.7 8.4-3l-.5.85q-5.8 3.05-10.35 3.1" fill="#490f15"/><path d="m23.85 14.5 2.35-1.3q.95 1.7-1.65 2.3-.65-.3-.7-1M11.15.95l.85.75q2 3.4 3.2 6.75l-2.6-4.7L13.85 8l.2 1.3q.35 2.35.15 4.5l-.15-.35Q14.3 8.4 10.45.8l.7.15M7.45 19.7l.75 1.6-.85.45-.95-1.2H2.3q-.65 3.25-.35 6.85l.3 2.5.05.35-.15 4.7-.65-8.35q-.8-3.75.2-7.55l5.75.65m5.4-2 .3-.6q.9 4.25 3.3 6.75l-.35 1.65-.75-1.2-1.45-3.2-.4-1.2-.5-1.7-.15-.5m3.95 6.1q4.8 1.1 9.6-1.55l-.1.55h-.05q-5.55 2.2-9 2l-.15.55-.55 2.25-.15.5-.75-.05 1.15-4.25m17.8-10.05q0-2.3-2.3.3l-.35.55.4.9q-.45.85-2.15 1.1l-.4.55Q27.45 20.6 27 23.1q-.2 1.3.05 2.35.8-.05 1.55-.65 1.2-.85 2.4-2.95h.05q-.5 2.5-3.2 3.9-2.3.5-1.1-3 .8-6.1 7.15-10.6 1.35-1.3.7 1.6M32.35 47.2q-6.15-1.6-8.5-10.65-.4-4.9-7.15-7.9l1.8.3q1.15.5 2.15 1.15l1.6 1.2v.05l1.45 2.95q2.6 0 .95 2.75l.25.45 3.55 6.55.05-1.3.95 1.15.4.5 2.5 2.8" fill="#fff"/><path d="m12 1.7-.85-.75 1.55.45.65.85L12 1.7" fill="#199a95"/><path d="M13.05 11.75q.3 1.7.2 2.95l-.75-1.4.55-1.55m3.45 1.5.45 3.65q-2.7-1.85-.45-3.65M15.25 24.8l.7 1.25L15.3 28l-.65-.95.6-2.25m15.25-4.85q-.05-1.25 1.45-1.8 0 1.5-1.45 1.8m6.6 25.45-4.15 1.95-.6-.15-2.5-2.8q.2-4.35 5.3-5.8l2.5.65-.55 6.15m-4.4-16.75 1.1.4-.95.75-1.75-.45 1.6-.7" fill="#5991ff"/><path d="m34.2 9.55.7-.4q.65.55 2.55.6l-.15 1.2q-1.1 1.5-2 1.95.25-1.9-.55-1.8-4.15 2.45-6.3 5.7-4.6 2.3-8.4 3l.35-1.25 5.65-2.9.75-.4 4.95-2.5 2.45-3.2m1.6-.9 3.7-2.05q-1.15 1.25-1.7 2.35l-2-.3M14.2 13.8q.2-2.15-.15-4.5L16 11l.5 2.25q-2.25 1.8.45 3.65L17 19q-1.15-1.35-2.8-5.2m-2.3 4.1q-.3-1.5.4-3.95l.7 2.15-.4.8-.7 1m.45 8.65 2 1.5q-5.45-.7-10.4 3l-1.8 3.9.15-4.7-.05-.35 1.85-6.65 8.25 3.3m1.1-4.7 1.8 2.95-.6 2.25q-1.2-1.9-1.85-4.05l.65-1.15m12.8.95h.05l-.05.6q-1.15 3.45 1.9 2.7 2.05-.7 3.05-2.85 2.35-.25-.15 2.95-5.65 2.25-14.15 1.95 6.05-2.15 9.35-5.35m2.5-7.7-.55-.2q-.3 0-.5.2l-.25.4.25.45.5.15.55-.15.2-.45-.2-.4m1.85 5.45-.1-.6q1.45-.3 1.45-1.8l1.4-.3q-.05.5-.9 1.4 2.55-1.3.8-2.6-3.2-.05-3.85 3.3.2 1.95 1.6 1.9-1.2 2.1-2.4 2.95.2-1.5-1.6-1.7.45-2.5 2.8-5.95 2.65-.5 2.55-1.65.3-.6-.05-1.45 2.3-2.6 2.3-.3l-.25.95q-.25 2.25 2.05.35l.1 1.3q-3.25 4.85-5.9 4.2m1.1 1.15h.05l1.45-.7.55-.4q0 1.8 2.55 2.4-1.35 1.25-3.05 2.15.85-2.45-1.6-3.1l.05-.35m2.6-1.5 2.1-2.2v4.3q-1.95-.05-2.1-2.1m.5-10.65q-.25 0-.45.15-.15.2-.15.45l.15.4.45.2.4-.2.2-.4-.2-.45-.4-.15m1.95 4v.6q-2.4 2.25-1.85.4l1.85-1m2.3 10.7.05-.05 2-1.7q-1 6.5 4.45 10.35.2 7.7-8.45 12.55l.55-6.15q.1-8.1-3.85-10.2l-1.1-.4q3.55-1.7 6.35-4.4" fill="#2a4898"/><path d="m13.45 16.5.5-2.2q1.05 3 3.05 5.5l-.05.85-1.7-2.35-1.1-2.35-.55 1.1-.15-.55M8.1 20.2l-.25-.5q2.3-.1 3.7-.9.1 4.85 2.65 8.7l-.55-.45q-1.2-1.6-1.9-3.5-.6-1.6-.85-3.35H8.1" fill="#f5842f"/><path d="m13.15 15.55.3.95.15.55 1 2.8q.9 2.05 1.95 3.55l-.1.45q-2.4-2.5-3.3-6.75l-.3.6-.1.2-.8.65-.4.25v-.45l.35-.45.7-1 .4-.8.15-.55" fill="#1a306d"/><path d="m13.6 17.05.55-1.1 1.1 2.35-.65 1.55-1-2.8M9.55 22.7 8.1 20.2h2.8q.25 1.75.85 3.35l-2.2-.85m7.85.75.9-1.8L25 19.6l-4 3.8-3.6.05m18.65.6-1.55 1.9-4.7 1.45q3.75-1.3 6.25-3.35M20.75 12.4q-.6 3-2.3 4.85.3-3.65-1.05-6.2 1.5.9 3.35 1.35" fill="#d62537"/><path d="m13.25 14.7-.1.85-.15.55-.7-2.15.2-.65.75 1.4" fill="#1f1d41"/><path d="M7.85 19.7h-.4l-.4-1.1 4.5-.25v.45q-1.4.8-3.7.9m5.8 7.35q-2.5-2.1-4.1-4.35l2.2.85q.7 1.9 1.9 3.5" fill="#4a0f15"/><path d="m11.95 18.55.8-.65.1-.2.15.5-.95 1.15-.1-.8m3.3 6.25.1-.5.75 1.2-.15.55-.7-1.25m18.55 4.25q3.95 2.1 3.85 10.2l-2.5-.65q-3.55-5.65-.65-7.6-.55-.75-1.65-1.2l.95-.75m-26.45-7.3q-1.5.5-2.35-1.2h1.4l.95 1.2M28.5 30.2q-2.9.85-6.25 1.1l-1.6-1.2q3.2.7 7.85.1m-3.6 7.3 3.6 5.25-.05 1.3-3.55-6.55" fill="#8fecff"/><path d="M8.2 21.3q1.6 3.1 4.15 5.25l-8.25-3.3-1.85 6.65-.3-2.5 1.85-5.05L9.9 25l-2.55-3.25.85-.45" fill="#8cacff"/><path d="m17.1 25.35.15-.55q3.45.2 9-2-3.3 3.2-9.35 5.35l-.5-.05.15-.5q4.1-1.05 7.15-3.5-3.85 1.3-6.6 1.25" fill="#8baaff"/><path d="m37.3 10.95.5-.8-.05.75-.95 1.4-1.7 1.65-.2.6q-.55 1.85 1.85-.4l.8-.85-.05.75-1.1 1q-2.3 1.9-2.05-.35l.25-.95q.65-2.9-.7-1.6-6.35 4.5-7.15 10.6-1.2 3.5 1.1 3 2.7-1.4 3.2-3.9l.65-.15-.05.35-.2.55-.25.65q-1 2.15-3.05 2.85-3.05.75-1.9-2.7l.05-.6.1-.55q.3-2.1 1.2-3.95l.35-.65.5-.85q2.15-3.25 6.3-5.7.8-.1.55 1.8.9-.45 2-1.95" fill="#11214b"/><path d="m30.5 19.95.1.6.3.8q-2.4-1.55 1.2-4.05 1.35-.1 1.25.55l-1.4.3q-1.5.55-1.45 1.8" fill="#e7eeff"/><path d="M32.3 14.05q.35.85.05 1.45.1 1.15-2.55 1.65l.4-.55q1.7-.25 2.15-1.1l-.4-.9.35-.55m4.5-1.75-.05 1.25-1.85 1 .2-.6 1.7-1.65" fill="#5890ff"/><path d="M36 25.6q-5.2 2.85-12.4 3.25l5.9-1.35.3-.1 4.7-1.45 1.55-1.9 1.5-1.55L36 25.6" fill="#f6892e"/><path d="m30.9 21.35-.3-.8q2.65.65 5.9-4.2l.05.6q-2.3 3.75-5.65 4.4" fill="#97b4ff"/><path d="m33.75 20.6.55-.4q.15 2.05 2.1 2.1l.55-.05-.05.2-.6.55q-2.55-.6-2.55-2.4" fill="#11214a"/><path d="m33.25 25.15-1.4.7q2.35-2.6-.4-3.25l.2-.55q2.45.65 1.6 3.1" fill="#132352"/><path d="m6.8 31 2.5-2.1 1.1-.2L8 30.55q-1.65 3.6-4.35 5.35L6.8 31m-2.55.45q2.2-1.75 4.5-2.4l-2.3 1.5q-3 5.25-4.9 6.2l2.7-5.3" fill="#293658"/><path d="M18.5 28.95q12.4 1.55 20.55-4.7-2.8 2.7-6.35 4.4l-1.6.7-2.6.85q-4.65.6-7.85-.1-1-.65-2.15-1.15" fill="#548dff"/><path d="m22.65 6.1-.85-.35q-4.8-3-9.1-4.35l-1-1.25q5.4.7 10.15 4l6.65 1.9q4.1-1.1 11.1-1.65l-1.3.95q-5.15.4-10.6 1.75l-5.05-1" fill="#132453"/><path d="m21.8 5.75.45.25.4.1 5.05 1q5.45-1.35 10.6-1.75l1.7-.1-7.25 4.05q-3.5.65-6.55 2.35-6.4.45-10.15-3.5Q14.6 4.7 12 1.7l1.35.55 8.45 3.5" fill="#2a4898"/><path d="m21.8 5.75-8.45-3.5-.65-.85q4.3 1.35 9.1 4.35" fill="#199a95"/></g><g id="u" fill-rule="evenodd"><path d="m47.2 6.05.4-.5 3.4-4.2q-13.05 1-20.1 15.95l-.95 2.15q-1.35 2.4-3.2 2.35-1.9-.45-2.9-1.9-2.9-4.15 2.15-16.5-8.95 11.05-14.7 24.45Q7.55 36.6 5.2 46.4.1 67.75 1.55 94l.9-5v-.05q2.85-15.5 7.6-28.15Q14.3 49.6 20.1 40.55q2.65-4.1 5.6-7.8 3.85-3.35 5.85-3.45 1-.05 1.55.7 1.2 1.65.2 7.3 1.25-5.4 5.4-4.7l2.9 1.75-.85.9q-.9-2.9-4.95-.9-1.25 4.6-5.7 6 5.1-7.65 1.6-9.35-3.85-2.45-13.75 15.95Q4.1 74 1.9 102.9q-6.7-41.1 10.2-81.25Q18.15 8.2 28.35 0 21.1 16.05 26 20.5q2.15 1.25 3.2-3.5Q37.5 1.15 52.6.15 35.95 22.2 38.85 23.4q1.25 1.5 2.5 0 2.85 3.7 2.45 7.45L41.5 25h-2.05q-6.7-.5 7.75-18.95" fill="#2c1a53"/><path d="M30.9 17.3Q37.95 2.35 51 1.35l-3.4 4.2q-9.35 1.7-16.7 11.75" fill="#8b53ff"/><path d="m47.6 5.55-.4.5q-6.75 1.2-12.6 9.9-4.9 12.15-10.2 6.85 2.6 3.95 0 6.15 9.15-5.4 7.15.35-2 .1-5.85 3.45-2.95 3.7-5.6 7.8l-4.75-2.05q1.4-1.35 3.5-2.4l-5.4 1.75 6.05-6.7q5.5-7.15.35-7.6l4-3.65q1 1.45 2.9 1.9 1.85.05 3.2-2.35l.95-2.15Q38.25 7.25 47.6 5.55" fill="#301e5d"/><path d="M47.2 6.05Q32.75 24.5 39.45 25h2.05l2.3 5.85-.25 1.4-1.4 1.5q-3.55-4.15-7.1-1Q34.55 30 33.1 30q-.55-.75-1.55-.7 2-5.75-7.15-.35 2.6-2.2 0-6.15 5.3 5.3 10.2-6.85 5.85-8.7 12.6-9.9" fill="#100926"/><path d="M11.3 27.85Q17.05 14.45 26 3.4q-5.05 12.35-2.15 16.5l-4 3.65q5.15.45-.35 7.6l-1.3-.25q5.7-7.75.35-5.6l-2.15 4.75-5.1-2.2" fill="#b76fff"/><path d="M5.2 46.4q2.35-9.8 6.1-18.55l5.1 2.2L13.3 37l4.9-6.1 1.3.25-6.05 6.7 5.4-1.75q-2.1 1.05-3.5 2.4-3.5 3.3-3 8.6l-2-.05q.3-4.2 2.5-8.3-3.05 3.9-4.2 7.8L5.2 46.4" fill="#ffacff"/><path d="M18.2 30.9 13.3 37l3.1-6.95 2.15-4.75q5.35-2.15-.35 5.6" fill="#301e5b"/><path d="M20.1 40.55Q14.3 49.6 10.05 60.8L5.7 58.85l1-3.15q5.6.55 5.85-7.15l-.2-1.45q-.5-5.3 3-8.6l4.75 2.05" fill="#6f7ab5"/><path d="M2.45 88.95V89l-.9 5Q.1 67.75 5.2 46.4l3.45.15L8 49.7q1.45-.95 2.35 0v-2.65l2 .05.2 1.45q-.25 7.7-5.85 7.15l-1 3.15Q1.05 73.9 2.45 88.95m8.25-37.5Q10.2 51 9.4 51q-.75 0-1.3.45-.5.4-.5 1 0 .55.5.95.55.45 1.3.45l1.3-.45q.55-.4.55-.95 0-.6-.55-1" fill="#fff"/><path d="M10.35 47.05v2.65q-.9-.95-2.35 0l.65-3.15q1.15-3.9 4.2-7.8-2.2 4.1-2.5 8.3" fill="#6456a1"/><path d="M10.7 51.45q.55.4.55 1 0 .55-.55.95l-1.3.45q-.75 0-1.3-.45-.5-.4-.5-.95 0-.6.5-1Q8.65 51 9.4 51q.8 0 1.3.45" fill="#6f70b2"/><path d="m41.6 34.35-2.9-1.75q-4.15-.7-5.4 4.7 1-5.65-.2-7.3 1.45 0 1.95 2.75 3.55-3.15 7.1 1l-.55.6" fill="#9358fc"/><path d="M10.05 60.8Q5.3 73.45 2.45 88.95 1.05 73.9 5.7 58.85l4.35 1.95" fill="#96bce4"/></g><g id="v" fill-rule="evenodd"><path d="m32.35 6.25.1.6Q28.8 13.35 27.8 20l-3.6 4.35-.9.25-.6-.8 4.1-4.7v-.15q1.3-6.25 5.55-12.7" fill="#140b34"/><path d="m32.45 6.85.05 2.1q-3.4 5.95-4.05 11.25l-3.6 4.7-2.1.35-.35-.45.9-.2.9-.25L27.8 20q1-6.65 4.65-13.15M16.2 33.2l-.15-.65 1.15 1.25q-.05 4.65-2.5 7.9h-.45q2.1-3.35 2.15-6.45l-.2-2.05m-3.05 15.05.8.1q2.95-.7 4.85-3.15-.35 2.95-3.2 4.55l1.5-2.15q-2.6 1.8-4.25.85l-.5-.35.8.15" fill="#bc34e4"/><path d="m32.5 8.95-.05.8q-2.6 5.15-3.6 10.55l-3.55 5.1-2.15.45v-.05l-.4-.55 2.1-.35 3.6-4.7q.65-5.3 4.05-11.25m-16.45 13.1q-.3-3.8-2.8-.4-2.05-3.25 2.5-4.6-1.2-1.5 1.35-3.05-2.95-1-.65-4.4 1.3 2.15 3.5.4.45-1.95 2.5-3.15.8-2.3-.45-3.75-1.05-2.65.95-2.85l.6-.1q-1.9 1.3-1.1 2.1 1.75 4.3 0 5.2-2 1.6-1.95 2.9-2.5 2.05-4.1 0-1.05 2.5 1.45 3.65-2.95 1.65-1.55 3.3-4.15 1.25-3.05 3.55 2.95-3.2 3.5 1.15l-.7.05" fill="#2c1a53"/><path d="m23.55.15.9-.1q-2.5 2.05-.7 3.8l.15.4.1 1.6q-.2 1.4-1.4 2.65-1.8.9-1.75 2.05-1.95 1.85-4.1 1.2.05 1.95 1.7 2.3l-.6-.05q-2.5-1.15-1.45-3.65 1.6 2.05 4.1 0-.05-1.3 1.95-2.9 1.75-.9 0-5.2-.8-.8 1.1-2.1" fill="#fff0ff"/><path d="M18.45 14.05q-1.65-.35-1.7-2.3 2.15.65 4.1-1.2Q20.8 9.4 22.6 8.5q1.2-1.25 1.4-2.65L26.4 8l-.35.85-.1.25q-2.35-.3-4.65 2.8l1.65.2.95 2.4q-6.35 1.4-5.2 5 2.1-2.05 5.05-2 1.15 4.1-2.7 5-1.6-.9-3.85-1.1-.25-3.15-3.1-2.15.2-.9 2.55-1.8-.25-1.6 1.8-3.4" fill="#442c7e"/><path d="M27.05.15q4.6.7 5.3 6.1-4.25 6.45-5.55 12.7v.15l-4.1 4.7-1.65-1.3q3.85-.9 2.7-5-2.95-.05-5.05 2-1.15-3.6 5.2-5l-.95-2.4q1 .35 2.15 1.25 3.1.4 2.7-2.8-.35-1.35-1.75-1.7L26.4 8 24 5.85l-.1-1.6 3.15-4.1" fill="#0f0824"/><path d="m24.45.05 2.6.1-3.15 4.1-.15-.4q-1.8-1.75.7-3.8" fill="#8d70d0"/><path d="m25.15 12.35 1.3.5Q28 11.95 27 10l-.85-.4q-1.75-.55-3.9 1.6l.5.2 2.05.8.35.15m-2.2-.25-1.65-.2q2.3-3.1 4.65-2.8l.1-.25q1.4.35 1.75 1.7.4 3.2-2.7 2.8-1.15-.9-2.15-1.25" fill="#170f3a"/><path d="m26.15 9.6.85.4q1 1.95-.55 2.85l-1.3-.5q1.9-1.1 1-2.75" fill="#211348"/><path d="M7.65 41.65q0 .75.5 1.5l-1.1 1.05-1.4-.9v-4.9q1.25-.3.8-2.05 1.95-1.2 3.3-2.7 1.85 1.5 1.45 3.5-1.05 1.1-2.1.5V36q-4.05 3.1-1.45 5.65" fill="#27174b"/><path d="M9.75 33.65q-1.35 1.5-3.3 2.7.45 1.75-.8 2.05v4.9l1.4.9 1.1-1.05q-.5-.75-.5-1.5.05-1.45 1.95-2.75 1.6-.8 3-.35 1.1-.9 1.85-2.85l.35-.9q-.05 2.7-2.05 4.85-1.5-1.5-3.65 0-1.65 1.75-.55 3.2.6 2.3-.85 4.1.15-2.2-2.5-3.15-.6-2.7-.05-7.65 3.2-1.4 5.5-5.2 3.15-.25 5.4 1.6l.15.65q-2.1-1.85-4.8-1.9l-1.65 2.35m-1.7 12 .15-1.9-.8.8.65 1.1" fill="#8b53ff"/><path d="m25.15 12.35-.35-.15.7-1.2q-1.2.2-1.1-.65-.8.55-1.65 1.05l-.5-.2q2.15-2.15 3.9-1.6.9 1.65-1 2.75" fill="#e88fff"/><path d="m24.8 12.2-2.05-.8q.85-.5 1.65-1.05-.1.85 1.1.65l-.7 1.2" fill="#39246b"/><path d="m21.05 22.5 1.65 1.3.6.8-.9.2q-2.25-2.75-5.65-2.8l.45-.6q2.25.2 3.85 1.1" fill="#9f5fff"/><path d="m23.15 25.85.75 1.3Q22.7 30 20.4 31.4q-.4 2.3-2.4 3.5l-.25-.35-.55-.75-1.15-1.25q-2.25-1.85-5.4-1.6l-.6.05q-.2-2.1 1.65-4.45h.45q.05-2.1.95-3.95l2.95-.55.7-.05q3.4.05 5.65 2.8l.35.45.4.55v.05m-9.55.7 1.6.2 1.5.4 1.15.65q1.25.8 2 2.2l.2.4q2-1.15 2.9-3.4l-.3-.5q-2.9-5-8.85-3.5l-.7 3.55h.5m6.05 4.55-.1-.25q-1.8-4.1-7.2-3.85L11 30.35q4.8-.25 7.05 3.3l1.6-2.55" fill="#132453"/><path d="m17.85 14 .6.05q-2.05 1.8-1.8 3.4-2.35.9-2.55 1.8 2.85-1 3.1 2.15l-.45.6q-.55-4.35-3.5-1.15-1.1-2.3 3.05-3.55-1.4-1.65 1.55-3.3" fill="#ffabff"/><path d="m15.75 25.05.7-2-1.3.2-.75.1-.8 3.2h-.5l.7-3.55q5.95-1.5 8.85 3.5l-.05.1q-1.85-2.1-4.55-2.9l-.7 1.75q-1.05 0-1.6-.4M7.5 47.5l.35.05Q12 50.8 17.9 50.1q-5.6 2.2-11.7 1.3l-.05-.65q3.7.7 7.15 0-3.6-.9-5.8-3.25" fill="#fff"/><path d="M15.15 23.25q-.15 1.25.6 1.8l-.55 1.7-1.6-.2.8-3.2.75-.1m2.2 2.2.7-1.75q2.7.8 4.55 2.9l-.2.25-2.8-2.05-.55.9q-.2-.15-.5-.15t-.55.25q-.25.2-.25.55 0 .35.25.55l.25.2-.4.7-1.15-.65.65-1.7m-1.25 5.1-.9-.4.9-1.95 1 .35-1 2m-4.45-.85.4-2h2.45l-.9 2.3-1.95-.3" fill="#436bd6"/><path d="M15.75 25.05q-.75-.55-.6-1.8l1.3-.2-.7 2m2.5 2.05-.25-.2q-.25-.2-.25-.55 0-.35.25-.55.25-.25.55-.25.3 0 .5.15l-.8 1.4" fill="#8fecff"/><path d="m19.05 25.7.55-.9 2.8 2.05L19.85 30q-.75-1.4-2-2.2l.4-.7.3.05.6-.25.2-.55q0-.35-.2-.55l-.1-.1m-2.95 4.85 1-2q1.7.8 2.3 2.5l-1.25 1.65q-.65-1.3-2.05-2.15" fill="#2a4898"/><path d="m19.05 25.7.1.1q.2.2.2.55l-.2.55-.6.25-.3-.05.8-1.4" fill="#5991ff"/><path d="m15.2 26.75.55-1.7q.55.4 1.6.4l-.65 1.7-1.5-.4m7.2.1.2-.25.35.4q-.9 2.25-2.9 3.4l-.2-.4 2.55-3.15" fill="#8fadff"/><path d="m17.1 28.55-1-.35-.9 1.95.9.4q1.4.85 2.05 2.15l1.25-1.65q-.6-1.7-2.3-2.5m2.55 2.55-1.6 2.55Q15.8 30.1 11 30.35L12.35 27q5.4-.25 7.2 3.85l.1.25m-8-1.4 1.95.3.9-2.3h-2.45l-.4 2" fill="#f9faff"/><path d="M17.75 34.55q-.45 4.45-2.9 7.5-4.1.5-3.2 4.15.1 1.05 1.6 1.8 4.2-.95 6-4.1.45 3.9-2.15 5.65h2.4q-5.55 3.7-13.7 2.2.15-1.25-1.55-2.55-4.6-2.65-4.25-7.05Q2.3 45 4.3 41.6l.4-5.85q2.85-1.2 5.35-4.75l.6-.05q-2.3 3.8-5.5 5.2-.55 4.95.05 7.65.65 2.8 2.5 3.15 1.45-1.8.85-4.1-1.1-1.45.55-3.2 2.15-1.5 3.65 0 2-2.15 2.05-4.85l.05.85q0 2.45-2.1 4.6-1.45-1.8-3.4-.3-1.4 1.6-.25 2.6l.05.5q.35 2.5-.8 4.4 1.1.85 2.35 1.4 2.25.95 4.9.9 2.85-1.6 3.2-4.55-1.9 2.45-4.85 3.15l-.8-.1q-2.1-.55-2.15-3.35.75-2.95 3.25-3.2h.45q2.45-3.25 2.5-7.9l.55.75M4.5 43.45l-.1-.75Q2.6 44 1 43.55l-.65-.25q.6 2.7 3.1 4.65l1.15.85q1.05.9 1.4 1.65l.15.3.05.65q6.1.9 11.7-1.3-5.9.7-10.05-2.55l-.35-.05q-2.55-.5-3-4.05" fill="#2a1950"/><path d="M7.65 41.65Q5.05 39.1 9.1 36v1.65q1.05.6 2.1-.5.4-2-1.45-3.5l1.65-2.35q2.7.05 4.8 1.9l.2 2.05-2.45 5.85q-2.7.9-3.3 3.1l-1.5-1.15-.05-.5q1.95-2.4 4.15-1.5l-.5-.8q2.1-2.15 2.1-4.6l1-2-2.25-.85.85 2.9q-.75 1.95-1.85 2.85-1.4-.45-3 .35-1.9 1.3-1.95 2.75" fill="#120a29"/><path d="m14.8 34.8-.35.9-.85-2.9 2.25.85-1 2-.05-.85" fill="#221442"/><path d="M9.1 42.55q-1.15-1 .25-2.6 1.95-1.5 3.4.3l.5.8q-2.2-.9-4.15 1.5" fill="#130b2d"/><path d="M14.25 41.7q-2.5.25-3.25 3.2.05 2.8 2.15 3.35l-.8-.15q-1.75-.55-1.8-3.4l.1-.5q.6-2.2 3.3-3.1l2.45-5.85q-.05 3.1-2.15 6.45" fill="#df86fe"/><path d="M10.7 48.85q-1.25-.55-2.35-1.4 1.15-1.9.8-4.4l1.5 1.15-.1.5-1.05 1.8q1.45 1.8 3.35 1.95l-2.15.4" fill="#190f3b"/><path d="M10.55 44.7q.05 2.85 1.8 3.4l.5.35q-1.9-.15-3.35-1.95l1.05-1.8" fill="#402876"/><path d="M15.6 49.75q-2.65.05-4.9-.9l2.15-.4q1.65.95 4.25-.85l-1.5 2.15" fill="#896ccc"/><path d="M1 43.55q1.6.45 3.4-.85l.1.75q-.85 1.6-2.8 1 4.55 4.8 4.3 6-.35-.75-1.4-1.65l-1.15-.85Q1.2 45.75 1 43.55" fill="#9357ff"/><path d="M5.2 43.8q2.65.95 2.5 3.15-1.85-.35-2.5-3.15" fill="#160d35"/><path d="m8.05 45.65-.65-1.1.8-.8-.15 1.9" fill="#2f1d5a"/><path d="M3.45 47.95Q.95 46 .35 43.3l.65.25q.2 2.2 2.45 4.4" fill="#f3d4fb"/><path d="M4.5 43.45q.45 3.55 3 4.05 2.2 2.35 5.8 3.25-3.45.7-7.15 0l-.15-.3q.25-1.2-4.3-6 1.95.6 2.8-1" fill="#4f348d"/></g><g id="w" fill-rule="evenodd"><path d="m16.6 24.4-.6-1.15-1.45-1.85-6.35-8.25-1.2-1.5.1-2.15.3-7.9Q2.05 9.5.95 23.1q2.45 5.8 5.2 11.25L7.6 37.2l.3.55 3.05 5.6 3.75 2.4q2.1-1.1 4.15-2.85l.25-.2.3-.3.65-.6.6-.6 3-3.5-.85-1.6-1.3-2.5-.2-.35-4.7-8.85m7.9 13.4q-5.9 7.65-10.05 9.1l-4-3.25Q4.1 33.35 0 22.6 1.15 6.05 8.2 0v11.55l8.85 10.9L24.5 37.8" fill="#162a60"/><path d="M14.55 21.4 16 23.25l.6 1.15-5.95-4.5-.8 5.9-2.15-3.3 1.35-6.25 5.5 5.15" fill="#d62537"/><path d="m22.8 36.1.85 1.6-3 3.5L8.1 36.45l2.4-3.55 12.3 3.2m-8.15 9.35-2.45-1.8 2.15-2.15 3.05 1.7-2.75 2.25m-10.5-17.3-.55-3 5.05 6q-.5 0-.9.35-.35.4-.35.95l.05.35-.95 1.1-2.35-5.75m6.05 8.35.65.25q.4 0 .65-.25l.25-.65-.25-.65q-.25-.25-.65-.25l-.65.25q-.25.25-.25.65l.25.65m-1.8 1.45 4.85 1.95-2.35 2.15-2.5-4.1" fill="#2a4898"/><path d="m21.5 33.6 1.3 2.5-12.3-3.2-.55-.35v-.1q0-.55-.4-.95-.3-.35-.8-.35l.25-.3-3.35-5 4.4 4.7 1 1.3L21.5 33.6M2.25 21.05q1.15-7.55 4.2-13.9L7.1 9.5 5.2 12l1.65 4.3-.5 1.7-1.8-4.75-2.3 7.8" fill="#8fecff"/><path d="m21.3 33.25.2.35-10.45-1.75-1-1.3L6.3 25.5l1.35-11.1.25-.6-1.1 11.55 2.55 3.25 2.1 2.7 9.85 1.95m-1.25 8.55-.65.6-3.7-1.5q.75.9 3.4 1.8l-.25.2q-3.1-.55-5.05-2.75l-.55-.25-4.85-1.95-.5-.2-.3-.55 12.45 4.6" fill="#132453"/><path d="m16.6 24.4 4.7 8.85-9.85-1.95-2.1-2.7-2.1-3.9.45-2.2 2.15 3.3.8-5.9 5.95 4.5m2.8 18-.3.3q-2.65-.9-3.4-1.8l3.7 1.5" fill="#651a22"/><path d="M18.85 42.9q-2.05 1.75-4.15 2.85l-3.75-2.4-3.05-5.6.5.2 2.5 4.1 2.35-2.15.55.25q1.95 2.2 5.05 2.75m-4.2 2.55 2.75-2.25-3.05-1.7-2.15 2.15 2.45 1.8M6.5 33.9l.95-1.1.3.55.9.35q.55 0 .9-.35l.4-.8.55.35-2.4 3.55-.1.15-1.5-2.7" fill="#5991ff"/><path d="m20.65 41.2-.6.6L7.6 37.2l.4-.6.1-.15 12.55 4.75M10.2 36.5l-.25-.65q0-.4.25-.65l.65-.25q.4 0 .65.25l.25.65-.25.65q-.25.25-.65.25l-.65-.25" fill="#8fadff"/><path d="M6.15 34.35Q3.4 28.9.95 23.1 2.05 9.5 7.4 1.6l-.3 7.9-.65-2.35q-3.05 6.35-4.2 13.9l3.1 2.5q.25-2.9 1-5.55l.5-1.7.8-1.9L6.3 25.5l3.75 5.05-4.4-4.7-.4-.4-3.2-2.4 2.1 5.1L6.5 33.9l-.35.45M8.7 31.2l.05-.05q.5 0 .8.35.4.4.4.95v.1l-.4.8q-.35.35-.9.35l-.9-.35-.3-.55 1.25-1.6" fill="#fff"/><path d="M7.1 9.5 7 11.65l1.2 1.5-.3.65-.25.6-.8 1.9L5.2 12l1.9-2.5M6.35 18q-.75 2.65-1 5.55l-3.1-2.5 2.3-7.8L6.35 18m2.3 13.15-5.05-6 .55 3-2.1-5.1 3.2 2.4.4.4 3.35 5-.25.3h-.1" fill="#436bd6"/><path d="m8.2 13.15 6.35 8.25-5.5-5.15L7.7 22.5l-.45 2.2 2.1 3.9-2.55-3.25L7.9 13.8l.3-.65" fill="#f88c2e"/><path d="m7.45 32.8-.05-.35q0-.55.35-.95.4-.35.9-.35l.05.05-1.25 1.6" fill="#85a7ff"/></g><g id="x" fill-rule="evenodd"><path d="m41.1 8.6-1.6-7L25.35.45 27.8 0l12.25.95L43.3 15.2q-2.4 10.2-9.35 11.75l-2.1 2.55q-5.8 4-9 9.05l-1.2.3q3.75-6.4 10.1-10.65l2.85-3.35v-.05l.8-.65-.8 2q5.15-2.6 8.05-10.75l-.5-2.2-1.05-4.6" fill="#28184d"/><path d="M25.35.45 39.5 1.6l1.6 7-6.55-1.7-.2-4.85-3-.5-6.4-1 .4-.1" fill="#fff"/><path d="m31.35 1.55 3 .5.2 4.85q.35 4.4 1.45 8.2l3 4.55q-1.15 2.4-2.9 3.95-2.85-.45-3.75-3.1.25 3.55-2.9 7.05l-3 4q-2.1 2.2-3.7 4.65-2.7.55-5.55 1.9 2.5-4.15 7.85-7.2-3.9 1.35-6.65.45 5.3-.5 6.95-3.95l-4.05.85q-.3-2.05 2.3-3.85 7.6-2.9 10-10.1l-2.15 2.1q-4.7-1.75-.1-14.85m-20.6 24.9 6.7-.45-6.5 2.5-2.4.3q11.85 5.15.8 7.35l1.85 1.55q-2.25-.75-3.6-2.5.45-2.1-.75-5.7.85-.5 1.25-1.6l1.75-1.45h.9M1.2 13.7l1.5-1.5q6.2 9.1 2.9 11.85l-1.85-1.6q-2-4.6-2.55-8.75m4.4 12 1.85.25q.6 1.15-.85 1.95l-.1-1.3-.9-.9m18.05-8.1q-1.1 7.6-10.6 5.75 5.65-1.75 10.6-5.75" fill="#221442"/><path d="m34.55 6.9 6.55 1.7 1.05 4.6L39 19.65l-3-4.55q-1.1-3.8-1.45-8.2" fill="#fcbaff"/><path d="m24.95.55 6.4 1q-4.6 13.1.1 14.85-7.65 6.75-20.7 10.05h-.9L8.1 27.9H6.6q1.45-.8.85-1.95l.3.05-2.15-1.95Q8.9 21.3 2.7 12.2 12.05 3.3 24.95.55m-1.3 17.05q-4.95 4-10.6 5.75 9.5 1.85 10.6-5.75" fill="#120a29"/><path d="m31.45 16.4 2.15-2.1q-2.4 7.2-10 10.1-2.75 1.05-6.15 1.6l-6.7.45q13.05-3.3 20.7-10.05m-3.6 3.6-4.15 2.45q-3.75 1.9-8.2 3.2 5.1-.5 8.75-2.05 2.45-1.05 4.25-2.6 2.1-1.8 3.35-4.2l-4 3.2M2.8 21.55l.95.9 1.85 1.6L7.75 26l-.3-.05-1.85-.25-.7-.1-1.05-.15Q2.75 23.5 1.7 20.6l1.1.95m3.1 6.35h2.2q-.4 1.1-1.25 1.6l-.65.25-.65.15-.4-2h.75m-1.4-2.95 2 .55-3.15-2.7 1.15 2.15m2.8 3.45H5.95l.1.75 1.25-.75" fill="#199a95"/><path d="M23.7 22.45 27.85 20l.65 1q-1.8 1.55-4.25 2.6l-.55-1.15" fill="#9ffcf8"/><path d="m23.7 22.45.55 1.15q-3.65 1.55-8.75 2.05 4.45-1.3 8.2-3.2M28.5 21l-.65-1 4-3.2Q30.6 19.2 28.5 21m-24 3.95L3.35 22.8l3.15 2.7-2-.55m15.95 5.15L20.3 29l4.1-.8q-1.95 1.4-3.95 1.9M7.3 28.4l-1.25.75-.1-.75H7.3" fill="#1ff0e9"/><path d="m42.15 13.2.5 2.2q-2.9 8.15-8.05 10.75l.8-2 .7-.55q1.75-1.55 2.9-3.95l3.15-6.45M34.6 24.85l-2.85 3.35q-6.35 4.25-10.1 10.65l-.55.1 1.65-2.75q1.6-2.45 3.7-4.65 3.3-3.5 7.85-6.5l.3-.2" fill="#bc34e4"/><path d="m35.4 24.15-.8.65-.3.25q-4.55 3-7.85 6.5l3-4q3.15-3.5 2.9-7.05.9 2.65 3.75 3.1l-.7.55" fill="#100926"/><path d="M17.2 38.1q2.85-1.35 5.55-1.9l-1.65 2.75q-9.75 2-14.15-3.6l.1-.95q0-1.45-.55-3.85l-.3-.8.65-.25q1.2 3.6.75 5.7 1.35 1.75 3.6 2.5 2.35.8 5.65.55l.35-.15M.6 14.4l.6-.7q.55 4.15 2.55 8.75l-.95-.9Q1.6 18.6.6 14.4m5 11.3.9.9.1 1.3h-.7l.05-1.05L4.9 25.6l.7.1" fill="#8b53ff"/><path d="M1.7 20.6 0 15.05l.6-.65q1 4.2 2.2 7.15l-1.1-.95m3.2 5 1.05 1.25-.05 1.05h-.75L5 27.3l-1.15-1.85 1.05.15m2.05 9.75-.75-1q.5-1.9-.6-4.25l-.05-.2.65-.15.3.8q.55 2.4.55 3.85l-.1.95" fill="#2c1a53"/><path d="m20.3 29 .15 1.1-4.65.1.1-.9 4.4-.3" fill="#9afbf9"/><path d="m15.9 29.3-.1.9q-1.55-.35-3.2-1.15l3.3.25" fill="#62f6f2"/><path d="m21.3 28.25 4.05-.85q-1.65 3.45-6.95 3.95-5.35-.2-6.65-2.8l9.55-.3m-.85 1.85q2-.5 3.95-1.9l-4.1.8-4.4.3-3.3-.25q1.65.8 3.2 1.15l4.65-.1" fill="#158581"/><path d="M23.6 24.4q-2.6 1.8-2.3 3.85l-9.55.3q1.3 2.6 6.65 2.8 2.75.9 6.65-.45-5.35 3.05-7.85 7.2l-.35.15q-3.3.25-5.65-.55l-1.85-1.55q11.05-2.2-.8-7.35l2.4-.3 6.5-2.5q3.4-.55 6.15-1.6" fill="#110927"/></g><g id="y" fill-rule="evenodd"><path d="M56.7 9.05q2-.25 1.8-3.75 4.6 10.8 2 23.65l-.4.45q.65-3.5.35-7.15Q60 15.9 56.7 9.05" fill="#8b53ff"/><path d="m60.1 29.4.4-.45q2.6-12.85-2-23.65.2 3.5-1.8 3.75-2.65 10.8-4.95 1.15-1.2-3.15-3.35-2.6 2.1 6.5 1.3 12.55-6 10.45-8.45 6.45l-2.5 2.35q-2.05 7.95-6.7 1.95l2.15-.5q2.35 5.1 3.55-2.35 3.55-.75 3.75-4.85-.05 3.5 2.05 3.7 9.95-7.6 2.65-22.25 3.5.65 6.15 4.7 1.9 9 3.8-1.45 1.95-3.5 0-7.9 9.8 10.05 5.55 29.8-4.95 5.35-2.05 8.5 9.2 1.5 19.3-17.85-2.2 13.65-6.6 26Q54.5 96.7 0 125.65 42.05 85.6 45.9 44.4q-.7-9.1-11.7 0-8.25-4.95-8.65-8.35L32 41.5l1.95 1.6 3.45-2.25q11.85-6.5 8.65 12.35l-.25 1.35q-1.9 9.5-5.5 18.6-5.6 14.1-15.25 27.15-7.6 10.2-17.7 19.8Q38.1 100.4 55.8 74.8q5.05-7.3 9-15 3.95-7.65 6.8-15.8 2.65-7.35 4.4-15.05Q69.15 39.4 62.8 40.1l-2.2-.05q-1.35-.2-2.7-.9-2.6-3.8 2.2-9.75" fill="#2c1a53"/><path d="m60.6 40.05 2.2.05 8.8 3.9q-2.85 8.15-6.8 15.8l-6.05-3.5 1.5-2.7-1.65-2q-1.25 1.8-2.15 3.8l-1.65-.6q2.6-7.25 6.6-3.05 2.75-5.85-.8-11.7" fill="#d487ff"/><path d="M60.45 22.25q.3 3.65-.35 7.15-4.8 5.95-2.2 9.75 1.35.7 2.7.9 3.55 5.85.8 11.7-4-4.2-6.6 3.05l-.7 2.2-8.3-2.45.25-1.35q3.2-18.85-8.65-12.35 10.25-8.2 12.6 4.9v-8.2l2.2-2.2q.3 4.9 3.35 3.65Q54 32.8 58.9 28.65l1.55-6.4" fill="#3f2b6d"/><path d="M62.8 40.1q6.35-.7 13.2-11.15-1.75 7.7-4.4 15.05l-8.8-3.9" fill="#bf77ff"/><path d="m32 41.5-6.45-5.45q-.35-3.3 6.5-5.15 4.65 6 6.7-1.95l2.5-2.35q2.45 4 8.45-6.45.8-6.05-1.3-12.55 2.15-.55 3.35 2.6 2.3 9.65 4.95-1.15 1.25 14.6-5.4 20.3 3.85-7.65 0-17.35-.3 21.5-9.9 17.2-1.05 7-9.4 12.3" fill="#2a194e"/><path d="M56.7 9.05q3.3 6.85 3.75 13.2l-1.55 6.4Q54 32.8 55.55 39q-3.05 1.25-3.35-3.65l-2.2 2.2v8.2q-2.35-13.1-12.6-4.9l-3.45 2.25L32 41.5q8.35-5.3 9.4-12.3Q51 33.5 51.3 12q3.85 9.7 0 17.35 6.65-5.7 5.4-20.3M44 34.6q6.25 2.05 5.25-5.1L44 34.6" fill="#140c30"/><path d="m44 34.6 5.25-5.1q1 7.15-5.25 5.1" fill="#2d1c56"/><path d="M64.8 59.8q-3.95 7.7-9 15l-5.25-3.45q1.35-4.55-.4-9.25.25 4.9-.95 8.3l-1.25-.95q2.55-5.1-.75-12.15 4.45 2 5.3 8 .7-4.95 1.6-8.3l.7-2.2 1.65.6q-2.05 4.25-2.35 9.2l4.65-8.3 6.05 3.5" fill="#ffc8ff"/><path d="M56.45 55.4q.9-2 2.15-3.8l1.65 2-1.5 2.7-4.65 8.3q.3-4.95 2.35-9.2" fill="#4f3f83"/><path d="M40.3 73.15q3.6-9.1 5.5-18.6L54.1 57q-.9 3.35-1.6 8.3-.85-6-5.3-8 3.3 7.05.75 12.15-1.25 2.55-4.1 4.65l-.65.5-2.9-1.45" fill="#5a7ab0"/><path d="M55.8 74.8q-17.7 25.6-48.45 45.3 10.1-9.6 17.7-19.8L39.2 86.05q-1.9-6.4 4-11.45l.65-.5q2.85-2.1 4.1-4.65l1.25.95q-1.5 4.1-5.2 6 2.65.8 2.05 2.65 3.4-3.8 4.5-7.7l5.25 3.45m-14.7 3.45q-.65.65-.65 1.6 0 .9.65 1.55.7.65 1.6.65.95 0 1.6-.65.65-.65.65-1.55 0-.95-.65-1.6-.65-.65-1.6-.65-.9 0-1.6.65" fill="#fff"/><path d="M41.1 78.25q.7-.65 1.6-.65.95 0 1.6.65.65.65.65 1.6 0 .9-.65 1.55t-1.6.65q-.9 0-1.6-.65-.65-.65-.65-1.55 0-.95.65-1.6" fill="#6aacd4"/><path d="M49.2 70.4q1.2-3.4.95-8.3 1.75 4.7.4 9.25-1.1 3.9-4.5 7.7.6-1.85-2.05-2.65 3.7-1.9 5.2-6" fill="#5e90c0"/><path d="M25.05 100.3Q34.7 87.25 40.3 73.15l2.9 1.45q-5.9 5.05-4 11.45L25.05 100.3" fill="#74bbdc"/></g><g id="z" fill-rule="evenodd"><path d="M26.65 24.35q4.45-4.7.95-4.6.65-1.9 2.7-3.5 4.55-1.7 2.2-4.45.7-1.05-1.4-1.9 3.55 0 5.95-3.65l2.2-2.35q-1 2-2.25 3.4l-.05.1q-1.9 2.1-4.25 2.85l.45 1.4q2 3.15-2.25 4.9l-2.65 2.7q3.05.9-.85 5.2l-.75-.1" fill="#2c1a53"/><path d="M27.4 24.45q3.9-4.3.85-5.2l2.65-2.7q4.25-1.75 2.25-4.9l-.45-1.4q2.35-.75 4.25-2.85l-1.3 1.55-1.3 1.7q1.5 3.75-2.45 5.95l-2.4 2.35q1.9 2.25-.45 5.05 2.15.7 3.75 1.65 2.2 1.35 3.6 3.2l1.15 2.1-.65.4q-.95-2.1-2.7-3.85-3.15-2.6-6.8-3.05m-9.45 7.9q.8.45 1.85.3l1.35.2q6.35 2.75 6.2 8.7-2.45 2.95-.75 6.2-1.9 1.8-2.8 4.4-6.55 5.7-13.9 6.2l1.1-.8 2-.45 3.45-1.2q1.9-.85 3.8-2l2.6-1.75 2.7-3.95q-1.35-3.75 1.1-6.8-.1-6.1-5.65-7.85l-.5-.15q-2.1.75-3.25-.5-3.1 3.55-6.6 2.55L9.7 36H8.3l-2.05 2.45q.2 2.45-.8 4.05 2.5-.55 3.9-3.65 3-.7 3.8 2.15-2.95 6.15-8.6 12.05l-1.55.5q5.6-5.45 9.65-12.6-1.05-2.1-3.4-1.3-1.7 3.6-5.05 3.65 1.75-2.05 1.55-5.25l3.45-3.6q5.7 2.1 7.5-2.25l1.25.15" fill="#8b53ff"/><path d="M32.8 25.65q-1.6-.95-3.75-1.65 2.35-2.8.45-5.05l2.4-2.35q3.95-2.2 2.45-5.95l1.3-1.7 4.3.85q1.35 1.9-3.7 5.2 2.65 1.55 0 4.25-2.4 2.45-4.85.35 2.55 3.45 1.4 6.05M22.25 40.3q.8-1.9-.05-4.1l3.95 4.1h-3.9" fill="#221442"/><path d="m25.55 29.2.15-3.45 4.2 1-2.1 3.5q-1-.6-2.25-1.05m6.95.05.5-.45 1.7 2.25-3.4 2.5-1.6-1.85 1.8-1.55v.3q0 .5.35.85t.8.35l.85-.35.35-.85q0-.5-.35-.85t-.85-.35h-.15m-3.65 3.45.7.75q-.65.75-.6 1.55l-1.8 1.35-.7-1.2 2.4-2.45m-4.25.55-2.4-1.2 1.15-2.15 3.2 1.3-1.95 2.05" fill="#436bd6"/><path d="m29.9 26.75-4.2-1-.15 3.45-.45-.15V25.4q9.85-.65 12 8.95-1.5-4.1-4.9-6.75L28.9 31l-.7-.45L30.8 27l-.9-.25m6.55 8.3.75-.25.15.75-4.65 1.4-.1-.6 3.85-1.3m-7.6-2.35-.65-.6-2.15 2.5.4.55.7 1.2.4.9.55 1.75.3 2.1 4.05-1.45v.85l-4.5 1.55q.4-6.5-6.55-9.85l1.9-2.85q8.95 2.05 9.15 10.25-.4-2.2-1.4-4.05l-.95-1.4-.55-.7-.7-.75m-2.3-1.5-3.2-1.3-1.15 2.15 2.4 1.2.65.3 2.05-2-.75-.35" fill="#fff"/><path d="m26.65 24.35.75.1q3.65.45 6.8 3.05 1.75 1.75 2.7 3.85l.4.9q.7 1.95.85 4.25l-4.7 1.15q.55 3.05-.3 3.8l-5.9 1.25.1-1.15q.15-5.95-6.2-8.7l-.8-.3L23 28.7h1.25l.05-4.25 2.3-.1h.05m1.55 6.2.7.45.8.7 1.6 1.85q.85 1.25 1.3 2.8l.1.6 4.65-1.4-.15-.75-.1-.4v-.05q-2.15-9.6-12-8.95v3.65l.45.15q1.25.45 2.25 1.05l.4.3m4.25 9.05q-.2-8.2-9.15-10.25l-1.9 2.85q6.95 3.35 6.55 9.85l4.5-1.55v-.9" fill="#12224f" fill-opacity=".976"/><path d="m29.9 26.75.9.25-2.6 3.55-.4-.3 2.1-3.5m-1 4.25 3.3-3.4q3.4 2.65 4.9 6.75v.05l.1.4-.75.25q-.25-1.8-1.75-4L33 28.8l-.5.45q-.4.05-.65.35l-.35.55-1.8 1.55-.8-.7m-2.45 4.15-.4-.55 2.15-2.5.65.6-2.4 2.45m-1.85-1.9 1.95-2.05.75.35-2.05 2-.65-.3" fill="#8fadff"/><path d="m31.5 30.15.35-.55q.25-.3.65-.35h.15q.5 0 .85.35t.35.85l-.35.85-.85.35q-.45 0-.8-.35-.35-.35-.35-.85v-.3m-1.95 3.3.55.7-1.15.85q-.05-.8.6-1.55" fill="#8fecff"/><path d="m48.45.05 1.2.1q1.2 3.15 4.2 5.05l-.45.6-.75-.35q-3.15-1.6-4.2-5.4" fill="#bc34e4"/><path d="M47.4.05h1.05q1.05 3.8 4.2 5.4-2.2 3.25.3 6.25 2.15 1.3 3.75-.95 3.55-2.15 1.9 2-2.85 4.85-3.4 9.7l-1.15-.35-.15-1.4q1.95-3.45-.45-5.45-2.7-.2-4.35 2.6.85-1.7-.35-4.1 2.55 1.3 3.6-1.35-1.95.95-2.15-1.65l-.75-1.6.65-2.1-2.7-7" fill="#442b7e"/><path d="m49.65.15.75.1q2.1 4.55 4.95 4.6-3.45 2.8-2.25 5.35 1.25 2.35 4-.95 4.85-2.3 2.8 3.8-4.35 6.3-3.6 12.65-2.6-3.75-3.25-1.5-1.5 3.45 1.65 6.9-3.15-.2-4.45-4.2.1-2.45 2.35-4.9.6-3.1-1.75-2.95-2.2 1 0 3.9-3.5.55-2.5-3.2-1.75-2.1-2.05.95-2.9-1.9-2.75 1.2.4 1.5 2.3 2.05-5.65 2-5.9 4.5 1.4 1.9 3.15.5.55-.35.85-1.9 1.65 2.15-.8 4.05-1.1.45-2.45-.4-2.15-.1-3.4 1.55l-.4-.9.65-.4q.8-.45 1.7-.55l2.9.3q1.75-.35 2.2-1.8-3.1 2.15-4.45.35Q38 26.4 44.35 24q-2-1.45-1.25-4 1.5-1.2 2.8-.4.95-2.45 2.6-.65l.3.95q-.7 2.2.8 2.5-1.1-2.9 1.1-4.05 2.75-.2 2.55 3.55-4.4 5.15-.2 8.3-2.35-4.95.65-7.2.65-.35 1.9 1 .25-5.9 3.55-10.95 1.95-5.2-1.65-3.45-2.95 3.45-4.75.9-1.1-2.15.65-4.7l.45-.6q-3-1.9-4.2-5.05" fill="#27174a"/><path d="m52.65 5.45.75.35q-1.75 2.55-.65 4.7 1.8 2.55 4.75-.9 3.6-1.75 1.65 3.45Q55.85 18.1 55.6 24q-1.25-1.35-1.9-1-3 2.25-.65 7.2-4.2-3.15.2-8.3.2-3.75-2.55-3.55-2.2 1.15-1.1 4.05-1.5-.3-.8-2.5l-.3-.95q-1.65-1.8-2.6.65-1.3-.8-2.8.4-.75 2.55 1.25 4-6.35 2.4-4.45 5.25 1.35 1.8 4.45-.35-.45 1.45-2.2 1.8l-2.9-.3q-1.65-4.25 3.4-6.35-1.15-3.65.6-4.8.75-.55 2.2-.5 1.6-2 3.35-.35l.35.35q4.05-2.6 4.75 1.95l.15 1.4 1.15.35q.55-4.85 3.4-9.7 1.65-4.15-1.9-2-1.6 2.25-3.75.95-2.5-3-.3-6.25" fill="#c87fff"/><path d="M50.8 13.45q-1.35-.2-1.85-2.1-.65-2.15-2.1-.3l-.75-.2q1.25-2.35 3.5-.3.35 1.8 1.75 2.5l-.55.4" fill="#d07fff"/><path d="M46.85 11.05q1.45-1.85 2.1.3.5 1.9 1.85 2.1-1.05.65-2.45-.4-.2-1.5-1.5-2" fill="#301d5a"/><path d="m50.8 13.45.55-.4q-1.4-.7-1.75-2.5-2.25-2.05-3.5.3l.75.2q1.3.5 1.5 2 1.4 1.05 2.45.4m-2.05.3-.75-.4q-1-2.25-3-2 1.6-2.9 4.45-2.2l.75 1.6q.2 2.6 2.15 1.65-1.05 2.65-3.6 1.35" fill="#221443"/><path d="m36.95 7.4.05-.1q1.25-1.4 2.25-3.4Q43.15.3 47.4.05l2.7 7-.65 2.1q-2.85-.7-4.45 2.2 2-.25 3 2l.75.4q1.2 2.4.35 4.1l-.2.3-.1.25q-1.75-1.65-3.35.35-1.45-.05-2.2.5-3 1-3.45 4.8-3.2 1.5-3.4 4.8-1.4-1.85-3.6-3.2 1.15-2.6-1.4-6.05 2.45 2.1 4.85-.35 2.65-2.7 0-4.25 5.05-3.3 3.7-5.2l-4.3-.85 1.3-1.55m10.9 9.15q-2.75-2.45-2.55.95l2.55-.95" fill="#100926"/><path d="M43.25 19.25q-1.75 1.15-.6 4.8-5.05 2.1-3.4 6.35-.9.1-1.7.55l-1.15-2.1q.2-3.3 3.4-4.8.45-3.8 3.45-4.8" fill="#140b34"/><path d="M53.9 20.7q-.7-4.55-4.75-1.95l-.35-.35.1-.25.2-.3q1.65-2.8 4.35-2.6 2.4 2 .45 5.45" fill="#19103d"/><path d="m47.85 16.55-2.55.95q-.2-3.4 2.55-.95" fill="#261748"/><path d="M34.7 31.05q1.5 2.2 1.75 4l-3.85 1.3q-.45-1.55-1.3-2.8l3.4-2.5m-.6 2.2-.2-.5-.5-.2-.5.2-.2.5.2.5.5.2q.3 0 .5-.2l.2-.5m-3.05 2.3q1 1.85 1.4 4.05v.05L28.4 41.1l-.3-2.1q1.9-.15 1.2-1.75-.55-.75-1.75 0l-.4-.9 1.8-1.35q.1.6.6 1.2 1 .6 1.5-.65" fill="#2a4898"/><path d="m34.1 33.25-.2.5q-.2.2-.5.2l-.5-.2-.2-.5.2-.5.5-.2.5.2.2.5m-4 .9.95 1.4q-.5 1.25-1.5.65-.5-.6-.6-1.2l1.15-.85m-2 4.85-.55-1.75q1.2-.75 1.75 0 .7 1.6-1.2 1.75" fill="#5991ff"/><path d="M22.25 40.3h3.9l-3.95-4.1q.85 2.2.05 4.1M21 33.55q5.55 1.75 5.65 7.85-2.45 3.05-1.1 6.8l-2.7 3.95 1.05-5.4-1.9 3.2.9-5.2.3-1.8q-6.65 2.4-12.75 6.4 2.55-2.4 4.7-7.15l-.05 2.6 3-1.05.95-4.1L15.2 42l1.2-2.95q-3.75.6-5.55-1.45 3.05-.05 5-2.55 3.05.5 5.15-1.5" fill="#110926"/><path d="M27.25 42.7q-1.45 1.85.05 5.2-2.1 2.15-3.15 4.55-6.9 6.35-15.75 6.25 5.75-3.1 8.9-10.2-7.85 5.3-17.3 7 6.9-5.7 12.1-14.4-.75-2.1-2.55-1.1-1.95 4.05-6 3.6 1.8-2.5 1.85-5.85l3.65-4.1q6.4 2.85 7.5-2.7.55 1 1.4 1.4l-1.25-.15q-1.8 4.35-7.5 2.25l-3.45 3.6q.2 3.2-1.55 5.25 3.35-.05 5.05-3.65 2.35-.8 3.4 1.3Q8.6 48.1 3 53.55l-1.4 1.3q8.6-2.45 16.6-7.55-2.35 6.6-7.2 10.25l-1.1.8q7.35-.5 13.9-6.2.9-2.6 2.8-4.4-1.7-3.25.75-6.2l-.1 1.15" fill="#100a28"/><path d="M16.45 55.9 13 57.1q4-4.05 5.2-9.8-7.6 3.7-13.65 5.75 5.65-5.9 8.6-12.05-.8-2.85-3.8-2.15-1.4 3.1-3.9 3.65 1-1.6.8-4.05L8.3 36h1.4l.95-.55q3.5 1 6.6-2.55 1.15 1.25 3.25.5l.5.15q-2.1 2-5.15 1.5-1.95 2.5-5 2.55 1.8 2.05 5.55 1.45L15.2 42l-.05.2q-2.15 4.75-4.7 7.15 6.1-4 12.75-6.4l-.3 1.8L20 48.6v2.5l-3.55 4.8" fill="#4b3088"/><path d="m15.2 42 3.85-2.35-.95 4.1-3 1.05.05-2.6.05-.2m7.7 2.75-.9 5.2-2 1.15v-2.5l2.9-3.85" fill="#b36fff"/><path d="M11 57.55q4.85-3.65 7.2-10.25-1.2 5.75-5.2 9.8l-2 .45" fill="#ffbfff"/><path d="M20.25 53.9q-1.9 1.15-3.8 2L20 51.1l.25 2.8" fill="#1b1040"/><path d="m22.85 52.15-2.6 1.75-.25-2.8 2-1.15 1.9-3.2-1.05 5.4" fill="#2f1d59"/><path d="M18.2 47.3q-8 5.1-16.6 7.55l1.4-1.3 1.55-.5Q10.6 51 18.2 47.3" fill="#ae36d9"/></g><g id="A" fill-rule="evenodd"><path d="m11.7 37.85 11.9-8.3q-.25-8.75 1.3-17.2 3.55-3.75 3.65-10.5l.65 1.05.05 2.1-.05.5-.55 2.35q-.8 2.25-2.7 4.2-2.15 8.45-2.2 18.2l-1.5 1.05-10.35 7.35q-1.4 2.55-2.45 5-1 2.4-1.65 4.75l-.15.5-6.55-5.5-.4-13.95 2.65-3.5 5.05 1.8-3.5-.35-1.4-.15-1 1.45-1.05 1.4v4.05L9.5 41.2l.15-.25.25-.35 1.8-2.75m-9.7-2-.45-.5v7.2l.8.7 4.35 3.8 2-4.8-6.7-6.4M5.7 55q3.4 2.9 9.35 1.35 9.2-2.25 12.9-8.5 3 .45 6.8-1.5Q32.5 56.9 19.7 60.85q-6.8 1.65-13.35 0l-1.8-4.3L5.7 55m3.8 5.55.8.15-.6-3.5-3.85-1.15-.5.65 1.45 3.35 2.7.5m8.55-23.45.3.7q0 .45-.35.75-.3.35-.75.35-.4 0-.75-.35l-.25-.45 1.8-1m-5.6 4.95v-.25q0-.65.45-1.15.5-.5 1.2-.5.6 0 1.05.45l-2.7 1.45m-1.65 16.2.75 2.55q16.45.45 22-12.65-2.65 1.15-5 .35-2.25 3.1-5.55 5.2-.25.15-.45.25-2.35 1.4-5.2 2.35L13 57.4l-2.35.35.15.5" fill="#fff"/><path d="m29.2 2.9-.65-1.05q-.1 6.75-3.65 10.5-1.55 8.45-1.3 17.2l-11.9 8.3-5.8-4.4.75-5.25 1.75-.45-5.05-1.8-2.65 3.5.4 13.95 6.55 5.5.3.3q10.4-2.3 19.45-8.85L29.2 35l.35-.55v-.05q8.65-15.05-.35-31.5m-5.75 15.6-.35-.5 1.1-6q3.55-3.9 3.7-12 13.75 16.1 2.3 35.1-.25 3.7-1.95 5.9l-4.4 2.75-1.1.6-.5.3q-6.35 3.3-13.05 4.8l-1.7.3-.7-.6L.5 43.7 0 28.35l3.05-3.15 6.25 1.75-.5 1.3-1.85.4-.65 4.55.85.6 3.75 2.8.8.6L23 29.15l.45-10.65m-.3 33.6q2.4-1.65 3.75-3.45l.6-.85.5-1q2.95.35 7.6-1.95.1 10-11.85 15.45-11.65 4.05-18.3 1l-2-5.1 1.9-2.55.75.8q2.95 2.7 10.2 1.1 4.1-1.6 6.85-3.45M5.7 55l-1.15 1.55 1.8 4.3q6.55 1.65 13.35 0 12.8-3.95 15.05-14.5-3.8 1.95-6.8 1.5-3.7 6.25-12.9 8.5Q9.1 57.9 5.7 55" fill="#132453"/><path d="M11.7 37.85 9.9 40.6l-6.45-6.7 1.45-6.5 3.5.35-1.75.45-.75 5.25 5.8 4.4M7.8 48.4q.65-2.35 1.65-4.75l3-1.6q.05.5.45.9.5.5 1.2.5.65 0 1.15-.5.45-.45.45-1.15 0-.65-.45-1.15l-.1-.05 11.3-6.1-.05-1.4q-.15-9.85 1.2-20.1 1.8-3.6 1.6-7.5l.05-.5 1 2.15Q26.65 22.65 29.2 35l-2.85 4.95Q17.4 46.05 7.8 48.4M33 17.75q.6 8.3-3.45 16.65l-.25-1.6q-.5-11.3 1.3-23.3l2.4 8.25m-10.45 36.2q.2-.1.45-.25 3.3-2.1 5.55-5.2 2.35.8 5-.35-5.55 13.1-22 12.65l-.75-2.55 2.55-.1q.6.95 1.75.9 1.75.25 2.15-1.75l5.3-3.35m-1.3 4.3.95-.35q.4-.3.4-.75t-.4-.8q-.4-.3-.95-.3-.6 0-1 .3-.35.35-.35.8 0 .45.35.75.4.35 1 .35" fill="#2a4898"/><path d="m29.25 5-.05-2.1q9 16.45.35 31.5Q33.6 26.05 33 17.75q-.4-5-2.5-10.05l-.25-.55-1-2.15m-13 33.1-.05-.3q0-.4.3-.75.35-.3.75-.3.45 0 .75.3l.05.05-1.8 1" fill="#8fecff"/><path d="m30.25 7.15.25.55q-2.5 14-1.2 25.1l.25 1.6-.35.6q-2.55-12.35 1.05-27.85" fill="#4782fb"/><path d="m9.9 40.6-.25.35-7.45-6.9-.3-1.15q2.35-1.85.6-4.2l1-1.45 1.4.15-1.45 6.5 6.45 6.7m12.35-9.3 1.5-1.05 1.3 3-7 3.85-.05-.05q-.3-.3-.75-.3-.4 0-.75.3-.3.35-.3.75l.05.3L12 40.4l.25-1.6 10-7.5m6.4-23.45.55-2.35q.2 3.9-1.6 7.5-1.35 10.25-1.2 20.1l-2.15-4.15V26.8q3.95-2.1.65-4.45l1.4-9.7q1.55-1.9 2.35-4.8M2 35.85l6.7 6.4-2 4.8-4.35-3.8-.35-7.4m7.5 24.7-2.7-.5-1.45-3.35 3.25.8.9 3.05m1.3-2.3-.15-.5L13 57.4l.35.75-2.55.1m6.55-1.95q2.85-.95 5.2-2.35l-5.3 3.35.1-1" fill="#436bd6"/><path d="m23.1 18 .35.5Q17.4 26.05 8.8 28.25l.5-1.3q7.45-2.7 13.8-8.95M6.8 49.15l.7.6-1.3 4.55-.1.15-.75-.8 1.45-4.5m15.95-4.8 1.1-.6q1.35 2.7 4.15 3.05l-.5 1q-2.8-.6-4.75-3.45" fill="#4a0f15"/><path d="M23.45 18.5 23 29.15 22.35 22l-.05-.95q-4.2 4.75-10.85 7.55 1.8 4.6-3.35 3.4l-.95 1.8-.85-.6.65-4.55 1.85-.4q8.6-2.2 14.65-9.75M7.5 49.75l1.7-.3-.15.5-1 4q4.2 1.1 8.8.2 3.05-.6 6.3-2.05-2.75 1.85-6.85 3.45-7.25 1.6-10.2-1.1l.1-.15 1.3-4.55" fill="#f88c2e"/><path d="m10.9 36.6-3.75-2.8.95-1.8q5.15 1.2 3.35-3.4 6.65-2.8 10.85-7.55l.05.95-2.85 2.5q2.8 4.95-8.6 12.1m11.35 8.05.5-.3q1.95 2.85 4.75 3.45l-.6.85q-3.25-.85-4.65-4m-13.2 5.3 9.9-.45q.3 2.45-2.1 4.65-4.6.9-8.8-.2l1-4" fill="#d62537"/><path d="m9.65 40.95-.15.25-8.05-7.05V30.1l1.05-1.4q1.75 2.35-.6 4.2l.3 1.15 7.45 6.9m-.2 2.7q1.05-2.45 2.45-5l10.35-7.35-10 7.5-.25 1.6 4.25-2.3.25.45q.35.35.75.35.45 0 .75-.35.35-.3.35-.75l-.3-.7 7-3.85-1.3-3q.05-9.75 2.2-18.2 1.9-1.95 2.7-4.2-.8 2.9-2.35 4.8l-1.4 9.7q3.3 2.35-.65 4.45v2.15l2.15 4.15.05 1.4-11.3 6.1q-.45-.45-1.05-.45-.7 0-1.2.5-.45.5-.45 1.15v.25l-3 1.6m-7.1-.4-.8-.7v-7.2l.45.5.35 7.4m3 13.45.5-.65L9.7 57.2l.6 3.5-.8-.15-.9-3.05-3.25-.8m7.65.7 4.35-1.1-.1 1q-.4 2-2.15 1.75-1.15.05-1.75-.9L13 57.4m8.25.85q-.6 0-1-.35-.35-.3-.35-.75t.35-.8q.4-.3 1-.3.55 0 .95.3.4.35.4.8 0 .45-.4.75l-.95.35" fill="#8fadff"/><path d="M23 29.15 11.7 37.2l-.8-.6q11.4-7.15 8.6-12.1l2.85-2.5.65 7.15M9.2 49.45q6.7-1.5 13.05-4.8 1.4 3.15 4.65 4-1.35 1.8-3.75 3.45-3.25 1.45-6.3 2.05 2.4-2.2 2.1-4.65l-9.9.45.15-.5" fill="#651a22"/><path d="M30.5 7.7q2.1 5.05 2.5 10.05L30.6 9.5q-1.8 12-1.3 23.3Q28 21.7 30.5 7.7" fill="#12214e"/><path d="m7.65 48.9.15-.5q9.6-2.35 18.55-8.45L29.2 35l-1.8 5.35Q18.35 46.9 7.95 49.2l-.3-.3m7.5-8.3.1.05q.45.5.45 1.15 0 .7-.45 1.15-.5.5-1.15.5-.7 0-1.2-.5-.4-.4-.45-.9l2.7-1.45" fill="#5991ff"/></g><g id="l" transform="translate(3.65 3.8)"><use ffdec:characterId="25" height="4.9" transform="translate(43.9 90.1)" width="5.65" xlink:href="#m"/><use ffdec:characterId="37" height="471.15" transform="translate(-3.648 -3.794) scale(.1459)" width="440.45" xlink:href="#n"/></g><g id="m" fill-rule="evenodd"><path d="m44.9 91.45-.25-.35q-1.3 2.35 1.2 3.5 1.25-.3 2.05-.95 1.15-.95 1.35-2.55-2.2 3.25-4.35.35m4.6-1.1q.5 4.1-3.7 4.65-3.1-1.1-1.15-4.9 1.1 2.45 2.55 2.2l.15-.05.35-.15.1-.05 1.7-1.7" fill="#2a194f" transform="translate(-43.9 -90.1)"/><path d="M47.9 93.65q-.8.65-2.05.95-2.5-1.15-1.2-3.5l.25.35q.3 2.05 3 2.2" fill="#221442" transform="translate(-43.9 -90.1)"/><path d="M44.9 91.45q2.15 2.9 4.35-.35-.2 1.6-1.35 2.55-2.7-.15-3-2.2" fill="#8b53ff" transform="translate(-43.9 -90.1)"/></g><g id="n" transform="translate(25 26)"><use ffdec:characterId="26" height="445.15" width="372.15" xlink:href="#o"/><use ffdec:characterId="27" height="85.15" transform="translate(39.45 231.95)" width="162.25" xlink:href="#p"/><use ffdec:characterId="28" height="107.3" transform="translate(39.45 141.8)" width="100.85" xlink:href="#q"/></g><g id="o" fill-rule="evenodd"><path d="M303.95 63.4q-2.9 7.2-7.85 14.8l-1.65 2.4q-12.9 16.05-27.15 22.75-3.95 1.85-8 3-10.75 3-22.2.95l-4.2-.95q-4.4-1.15-8.9-3-11.75-4.9-24.2-14.75-22.05-11.85-41-4.5l-1.3-7.55q18.9-7.55 38.25 2.1 20.5 19.15 44.1 24.5l3.05.2h4.45q36.6-1.5 56.05-53.25 4.1-38.4-43.05-12.5 49.3-30.45 69.1 0-8.95-10.35-26-12.6 8.95 17.55.5 38.4" fill="#ffecff"/><path d="M296.1 78.2q4.95-7.6 7.85-14.8 8.95-16.7 25.5-25.8-1.25-11.35-9-16.1 33.8 1.95 0 30.1-31.85 29.1-12.2 51.75l2.2 2.35-.5.65q-12.9 16.75-13.15 32.45-17.05 18.3-39.95 12.7-11.1-5.25-21.5-2.8l-2.95-.8q-29.55-7.25-39.55 23.15l-1.1 3.7 1.1 2.2q8.05 17 0 34.75-3.65 8-10.6 16.15 5.4-.75 10.6-2.8 18.6-7.3 34.45-30.75 14.2 25.2 5.65 47.3l-.4 1q-2.8 6.8-7.75 13.3-.1 12.25 4.35 18.95l2.4 2.85q8.35 8 27.15 3.1-30.25 35.1-65.85 50.65l-2.55 1.05q-29.05 15.6-66.55 15.1-19.75-.25-41.85-5l-8.8-17.1-7.95-19q-2.2-2.4-3.85-5-3.7-5.75-4.95-12.6-1.8-10-5.9-21.4l-14.9-24.6-.15-.3-.6-1q-9.05-15.6-5.75-31.25l-6.4 7.05q.7-3.95 2.6-7.95 11.9-6.9 23.8-20.7 14.35-46.05-11-35.95-15.9-.75-31.8 6.2 16.4-29.95 52.35-58.35-3.5 22.4 15.5 30.55 27.2.35 49.65-17.75 4-3.25 7.9-7.1l5.9-6.3 3.65-4.4q8.45-8 17.6-11.55 18.95-7.35 41 4.5-22.5 1.35-36.55 14.05l-2.75 3.7q-19.9 27.95 2.75 37.35 15.5 3.35 29.6-1.05 17.3-5.4 32.5-22.45 5.75 3.35 12 4.8 21.6 4.85 49.1-13.85-13.8 26.15-54.65 30.05 39.65 10.7 59.6-10.55l9-22-2.25-2.3q-1.2-1.4-2.1-3-5.4-9.55.05-25.15M134.35 241.6l-.75 1q-4.25 5.45-9.85 9.6l-1.6 1.15h1.6q12.8-.3 22.55-10.75l.9-1q2.6-3 5-6.75 9.6-19.45-8-14.55-3.25 12.35-9.85 21.3" fill="#140c30"/><path d="M237.1 107.3q11.45 2.05 22.2-.95 4.05-1.15 8-3 14.25-6.7 27.15-22.75l1.65-2.4q-5.45 15.6-.05 25.15.9 1.6 2.1 3l2.25 2.3-9 22q-19.95 21.25-59.6 10.55 40.85-3.9 54.65-30.05-27.5 18.7-49.1 13.85l-.25-17.7" fill="#6d50af"/><path d="M353.15 7.25q-6.2-4.4-14.7-7.25 51.3 9 24.55 79.6l-4.5 16.05q-19.1 1.1-30.95 7.7-2.5 1.4-4.7 3-10.15 7.55-13.4 20.35-.3 25.9-11 34.55-34.3 16.05-54.6-4.5-7.85-7.35-12 0-9.2 16.4 3 29.55 29.5 16.5 41.55-13.55 34.05 24.5 78.65 0-4.6 14.75-21.05 21-20.65 9.7-24.55 23.05-20.2-9.35-30.05 5.5-8.4 20 13.55 18.55l.85.75 1.1 1q21.15 18.25 44.1 10.25-4.25 10.35-26.05 14.85-13.4-3.2-22 0l-.7-3q11.9-2.95 23.75 0l15-5.8q-20.2-.65-38.55-14.05l-5-.55q-3.05-.6-5.3-1.7l-1.75-1q-9-6.15-2-23.8 14.4-11.5 30.05-6 6.45-13.6 24.55-19l17.05-12.55q-37.05 19.05-70.6-2-9.6 12.4-19.4 15.6-14.55 4.7-29.7-10.6-13.35-18.2 7-34.55 1.95.2 4.2 1.15 2.55 1.1 5.45 3.15 3 2.1 6.4 5.25 19.9 10 44.05 0 8.75-5.3 12-40.1 5.1-6.8 11.4-11.8l4.15-3q3.5-2.3 7.35-4.15Q341.3 94 355 92.65q29.65-62.9-1.85-85.4M51.1 315.45l-2-17.05q-9.35-11.5-5.55-23l-11.5-26.55q-3.05-3.1-5.4-6.25l-.7-1q-13.8-19.15-2.45-39.3 42.1-51.5 0-45.05Q8.4 165.5 0 161.7q8.05-30.05 76.65-83.1-32.4 50.6 22 37.05 17.25-4.95 42.55-33.55 36.05-28.1 72.1 5.5 55.1 37 87.1-37.05 8.05-41.1-62.55 4 27.8-34.8 70.1-36.5 4.05.2 7.35 1.2 2.85.85 5.15 2.25 7.75 4.75 9 16.1-19.8-30.45-69.1 0 47.15-25.9 43.05 12.5-19.45 51.75-56.05 53.25h-4.45l-3.05-.2q-23.6-5.35-44.1-24.5-19.35-9.65-38.25-2.1-14.05 5.55-27.85 20.6Q116.8 113.7 95.6 120.7q-44 14-32.05-28.55-51.15 42.6-59.05 67.6.85-.4 1.75-.75 15.9-6.95 31.8-6.2l5.5.45q16 15.8-14.05 49.05-2.6 3.6-4.25 7.15-1.9 4-2.6 7.95-2.2 12.35 7.1 24.2l.8 1 6 6.25 9.05 24.05 2 4 2.45 11.25 5.05 28.3q-.3 1.6-.35 3.1l-3.65-4.1" fill="#251747" fill-opacity=".929"/><path d="M303.95 63.4q8.45-20.85-.5-38.4 17.05 2.25 26 12.6-16.55 9.1-25.5 25.8" fill="#b598f8"/><path d="M330.35 99.2q-3.85 1.85-7.35 4.15l-4.15 3q-6.3 5-11.4 11.8-3.85 17.35-10.2 27.35-.55-3.35-.45-6.7.25-15.7 13.15-32.45l.5-.65-2.2-2.35Q288.6 80.7 320.45 51.6q33.8-28.15 0-30.1-2.3-1.4-5.15-2.25 43-1.4 14.65 29.3-43.8 35.8-15 51.1l15.4-.45M56.9 339.9q-5.7-5.05-9.8-11.4l4.5-6.55q1.2 17.45 25.05 23.55 24.15 6.65 47.1 6.85 26.35.2 51.15-8l.35 4.95q-25.75 8.05-51.5 10.4l-4.1.3v6.55l4.1.2q23.1.9 49.65-4.1l.7 3.45-6.35 1.95q-23.05 3.9-44 3.25-39.8-1.25-72.15-18.8l-.45-2.4 8.1 3.8q28.4 12.55 52.45 12.15v-7q-35.95-2.4-54.8-19.15m137.85 88.05-12.45 5.65q-59.55 15.8-110.2-10.5l-1.15-4 5.8 2.85q20 9.15 38.95 8.7v-6.05q-22.95-3.45-40.3-12.45-4.05-2.15-7.8-4.55l6.5-4.55q44.1 29.55 105.5 12.35l-28.3 10.2q-13.8 1.05-29.6 0v8.05q37.25.95 71.1-10.55l1.95 4.85" fill="#fff"/><path d="M307.95 18.05q51-6.8 31.55 23.5L315 68.6q-22.35 34.85 24.5 23.55 47.05-43.4 13.65-84.9 31.5 22.5 1.85 85.4-13.7 1.35-24.65 6.55l-15.4.45q-28.8-15.3 15-51.1 28.35-30.7-14.65-29.3-3.3-1-7.35-1.2M61.3 301.5q1.65 2.6 3.85 5l7.95 19 8.8 17.1-4.8-1.1-1.55-.45L62.1 321l-1.05-19.8.25.3" fill="#221442"/><path d="m157.5 76.55 1.3 7.55q-9.15 3.55-17.6 11.55l-3.65 4.4-5.9 6.3q-3.9 3.85-7.9 7.1-22.45 18.1-49.65 17.75-19-8.15-15.5-30.55Q22.65 129.05 6.25 159q-.9.35-1.75.75 7.9-25 59.05-67.6Q51.6 134.7 95.6 120.7q21.2-7 34.05-23.55 13.8-15.05 27.85-20.6" fill="#ffbfff"/><path d="M199.8 88.6q12.45 9.85 24.2 14.75 4.5 1.85 8.9 3l4.2.95.25 17.7q-6.25-1.45-12-4.8-15.2 17.05-32.5 22.45-14.1 4.4-29.6 1.05-22.65-9.4-2.75-37.35l2.75-3.7q14.05-12.7 36.55-14.05" fill="#462c80"/><path d="M307.45 118.15q-3.25 34.8-12 40.1-24.15 10-44.05 0-3.4-3.15-6.4-5.25 9.35 4.5 22.9 5.55l4 .2q15.6 1.95 25.35-13.25 6.35-10 10.2-27.35m-49.4 75.7q9.8-3.2 19.4-15.6 33.55 21.05 70.6 2L331 192.8q-18.1 5.4-24.55 19-15.65-5.5-30.05 6-7 17.65 2 23.8l1.75 1q2.25 1.1 5.3 1.7l5 .55q18.35 13.4 38.55 14.05l-15 5.8q-11.85-2.95-23.75 0l-1.45-6.15 7.15-3.15-5-5.9h-4.3l-1.2-5.15-2.85 4.5q-6.9-2.15-10.35-6.25l-.75-1-1.2-1.95q-3.7-7.5 1.1-19.8 9.05-10.95 19.45-14.55 7-2.4 14.6-1.5l7-8.5q-22.15-1.35-35.55-11.5-37.9 33.8-14.5 51.05 2.45 3.65 2.45 6.75l-.05 1q-.35 2.55-2.4 4.75-21.2 9.95-30.85 30.35l-2.4-2.85q4.85-22.1 28.9-31.95l-.35-.3-1.15-1q-19-17.15-3.25-41.25l.15-.3q2-3.05 4.6-6.2" fill="#bc34e4"/><path d="M134.35 241.6q6.6-8.95 9.85-21.3 17.6-4.9 8 14.55-2.4 3.75-5 6.75l-.9 1q-9.75 10.45-22.55 10.75h-1.6l1.6-1.15q5.6-4.15 9.85-9.6l.75-1" fill="#2a1a50"/><path d="M229.15 274.85q-4.45-6.7-4.35-18.95 4.95-6.5 7.75-13.3l.4-1q8.55-22.1-5.65-47.3-15.85 23.45-34.45 30.75-5.2 2.05-10.6 2.8 6.95-8.15 10.6-16.15 8.05-17.75 0-34.75l-1.1-2.2 1.1-3.7q10-30.4 39.55-23.15-23.1 17.45-7.6 40.85 7.35 12.05 28.5 11.6-15.75 24.1 3.25 41.25l1.15 1 .35.3q-24.05 9.85-28.9 31.95" fill="#3b256e"/><path d="M245 153q-2.9-2.05-5.45-3.15-2.25-.95-4.2-1.15 10.4-2.45 21.5 2.8 5.4 2.6 11.05 7.05-13.55-1.05-22.9-5.55" fill="#ffcbff"/><path d="M235.35 148.7q-20.35 16.35-7 34.55 15.15 15.3 29.7 10.6-2.6 3.15-4.6 6.2l-.15.3q-21.15.45-28.5-11.6-15.5-23.4 7.6-40.85l2.95.8" fill="#f89fff"/><path d="M256.85 151.5q22.9 5.6 39.95-12.7-.1 3.35.45 6.7-9.75 15.2-25.35 13.25l-4-.2q-5.65-4.45-11.05-7.05" fill="#573b95"/><path d="M231.55 277.7q9.65-20.4 30.85-30.35 2.05-2.2 2.4-4.75l.05-1q0-3.1-2.45-6.75-23.4-17.25 14.5-51.05 13.4 10.15 35.55 11.5l-7 8.5q-7.6-.9-14.6 1.5-24.4-9.5-31.45 10.5-3.65 11.9 10.9 23.85l1.2 1.95.75 1q3.45 4.1 10.35 6.25-11.5 17.6-23.9 31.95-18.8 4.9-27.15-3.1" fill="#432a7c"/><path d="M290.85 205.3q-10.4 3.6-19.45 14.55-4.8 12.3-1.1 19.8-14.55-11.95-10.9-23.85 7.05-20 31.45-10.5" fill="#1c1142"/><path d="M286.65 249.5h4.3l5 5.9-7.15 3.15-2.15-9.05" fill="#3a246b"/><path d="m290.95 267.7 2.5 10.7-1.6 2.3 9.1 43.75-4.4 10.25q-10.2 21.5-27.15 41.85-6.45 7.5-13.05 14.2-43.4 43.9-94.1 52.4-53.4 8.4-92.65-18.55l-5-20 8.5-5.5q-2.45-17.75-14.5-39.3l-9-4.25-5.55-29.05 7.05-11.05 3.65 4.1q-.65 15.15 20.8 21.5l1.55.45 4.8 1.1q22.1 4.75 41.85 5 37.5.5 66.55-15.1l2.55-1.05q35.6-15.55 65.85-50.65 12.4-14.35 23.9-31.95l2.85-4.5 1.2 5.15 2.15 9.05 1.45 6.15.7 3m-239.8 82.4.45 2.4q32.35 17.55 72.15 18.8 20.95.65 44-3.25l6.35-1.95q11.45-3.75 22.25-8.65l11-5.4q14.35-7.6 27.5-17.35l4-3.05q27.75-21.6 50.1-53.25l-5-26.55q-17.35 29.65-47.1 55.2Q222.3 319.5 204.8 331l-6.9 3.7-7.45 3.55q-7.7 3.45-15.55 6.1-24.8 8.2-51.15 8-22.95-.2-47.1-6.85-23.85-6.1-25.05-23.55l-4.5 6.55 4.05 21.6m58 24.25q-18.45-2.5-36.75-9.05l-1.95-.7-6.65-2.6 4.3 8.95.9 2.05q7.4 16.9 8.05 28.95 3.25 2.2 6.9 4.1l5.2 2.45q6.45 2.8 13.95 4.8 13.3 3.5 29.85 4.45 12.9.7 27.8-.15 14.2-3.6 28.05-10.25 14.05-6.75 27.8-16.6l3.35-2.45q7.6-5.7 15.15-12.4 14.55-12.95 28.7-29.45l9.6-11.75 2.15-2.8q9.2-11.9 18.25-25.4l-5-21.55q-13.25 17.95-27.85 32.6L250.2 327.7l-8.25 7q-16.2 13.15-33.9 22.6-9.65 5.15-19.75 9.25-29 9.45-57.55 9.3l-7-.2-7.55-.5-7.05-.8m132.95 1.35q-8.25 7.7-16.85 14.35l-.9.7q-16.4 12.55-34.05 21.35l-10.7 3.3q-61.4 17.2-105.5-12.35l-6.5 4.55 3.35 11.5 1.15 4q50.65 26.3 110.2 10.5l12.45-5.65q11.65-5.7 22.35-12.5 14.05-8.95 26.5-19.8l5.35-4.9q25.4-23.8 43.55-56.05l5.45-10.25-3.25-14.2q-8.05 12.9-16.55 24.45-17.1 23.25-36.05 41" fill="#132453"/><path d="M236.85 307.05q29.75-25.55 47.1-55.2l5 26.55q-22.35 31.65-50.1 53.25 3.75-11.4-2-24.6m5.25 68.65q18.95-17.75 36.05-41 8.5-11.55 16.55-24.45l3.25 14.2-5.45 10.25q-18.15 32.25-43.55 56.05l-5.35 4.9-1.5-19.95" fill="#232c71"/><path d="M188.8 407.35q9.65-6.4 12.8-16.6 1.1-3.6 1.4-7.7 6.4 5.75 16.95 5.25l-3.35 2.45q-13.75 9.85-27.8 16.6m17.5-31.3.4-5.6 3.1-2.4v-8.55l-3.05 2.1 1.3-4.3q17.7-9.45 33.9-22.6l8.25-7q20.35-9.15 15.35 7-1.15 3.75-3.65 8.8l1.9 2.95q-14.15 16.5-28.7 29.45l.75-19.9 26.55-21-3-4.5-31.55 22.5q1.25 38.15-21.55 23.05m70.15-68.6q-3.35 7.75 2 7l9-9v-11l-11 13m-15.5 10.1q14.6-14.65 27.85-32.6l5 21.55q-9.05 13.5-18.25 25.4 1.3-15.7-14.6-14.35" fill="#232f63"/><path d="m203 383.05-2.7-3 6-4q22.8 15.1 21.55-23.05l31.55-22.5 3 4.5-26.55 21-.75 19.9q-7.55 6.7-15.15 12.4-10.55.5-16.95-5.25m3.7-12.6-5.4 3.75 1.2-9.9 4.25-2.7 3.05-2.1v8.55l-3.1 2.4m57.1-24-1.9-2.95q2.5-5.05 3.65-8.8 5-16.15-15.35-7l10.75-10.15q15.9-1.35 14.6 14.35l-2.15 2.8-9.6 11.75m12.65-39 11-13v11l-9 9q-5.35.75-2-7" fill="#a54dcd"/><path d="M236.85 307.05q5.75 13.2 2 24.6l-4 3.05q-13.15 9.75-27.5 17.35 1.8-7.95-1.2-17.35l-1.35-3.7q17.5-11.5 32.05-23.95m-11.6 83q8.6-6.65 16.85-14.35l1.5 19.95q-12.45 10.85-26.5 19.8l-2.1-14q5.35-4.85 9.75-10.7l.5-.7" fill="#2a4898"/><path d="M173.4 362.65q-26.55 5-49.65 4.1l-4.1-.2V360l4.1-.3q25.75-2.35 51.5-10.4 8.25-2.6 16.5-5.8l-1.3-5.25 7.45-3.55 6.9-3.7 1.35 3.7q3 9.4 1.2 17.35l-11 5.4q-11.8 3.1-22.95 5.2" fill="#436bd6"/><path d="M47.1 328.5q4.1 6.35 9.8 11.4l2.35 14-8.1-3.8-4.05-21.6m128.15 20.8-.35-4.95q7.85-2.65 15.55-6.1l1.3 5.25q-8.25 3.2-16.5 5.8m-104.3 69.8-3.35-11.5q3.75 2.4 7.8 4.55l1.35 9.8-5.8-2.85m108.65-3.7 10.7-3.3q17.65-8.8 34.05-21.35l.9-.7-.5.7q-4.4 5.85-9.75 10.7-23.1 21.1-63.7 24.15l28.3-10.2" fill="#8fecff"/><path d="m72.4 365.3 2.7 4.75 2.05.35-1.95 4.75Q72.35 374 69 373l-.9-2.05 2.35-6.35 1.95.7m15.2 35.8q2.45 4.6 10.05-9.5h3.5q2.35-7.5 15.05-16.45l7.55.5 7 .2v5.25l-7-.9q-16.7-.75-20.1 15.9 2.65 19.9 28.55 15.05l.75 6.6q-16.55-.95-29.85-4.45l-6.45-13.2q-2.75 7.15-7.5 8.4l-5.2-2.45 3.65-4.95m113.7-26.9q-6.35 4.05-12.7 6.65l-.25-9.15q7.1-3.1 14.15-7.4l-1.2 9.9m-25.25 23.85v8.55q-11.35 7.1-25.3 6.5l-.5-6.5 21-4.5 4.8-4.05m-34.85-6.45h13.05q5 2.5 0 7H141.2v-7" fill="#dc8bff"/><path d="M77.15 370.4q17.7 3.5 21.5 16.7 1-8.1 10.5-12.75l7.05.8q-12.7 8.95-15.05 16.45h-3.5q-7.6 14.1-10.05 9.5 10.55-16.95-12.4-25.95l1.95-4.75m111.45 10.45q-6.25 2.5-12.55 3.6v13.6l-4.8 4.05-3.5-24.05q10.3-1.9 20.6-6.35l.25 9.15m-47.4 10.75v7h-24.05q-5.3-3.5 1.55-7h22.5" fill="#ecbeff"/><path d="m77.15 370.4-2.05-.35-2.7-4.75q18.3 6.55 36.75 9.05-9.5 4.65-10.5 12.75-3.8-13.2-21.5-16.7m-6.7-5.8-2.35 6.35-4.3-8.95 6.65 2.6M69 373q3.35 1 6.2 2.15 22.95 9 12.4 25.95l-3.65 4.95q-3.65-1.9-6.9-4.1Q76.4 389.9 69 373m63.95 44.75-.75-6.6q-25.9 4.85-28.55-15.05 3.4-16.65 20.1-15.9l7 .9v-5.25q28.55.15 57.55-9.3 10.1-4.1 19.75-9.25l-1.3 4.3-4.25 2.7q-7.05 4.3-14.15 7.4-10.3 4.45-20.6 6.35l3.5 24.05-21 4.5.5 6.5q13.95.6 25.3-6.5v-22.15q6.3-1.1 12.55-3.6 6.35-2.6 12.7-6.65l5.4-3.75-.4 5.6-6 4 2.7 3q-.3 4.1-1.4 7.7-3.15 10.2-12.8 16.6-13.85 6.65-28.05 10.25-14.9.85-27.8.15m8.25-19.15h13.05q5-4.5 0-7H118.7q-6.85 3.5-1.55 7h24.05m-52.05 9.9q4.75-1.25 7.5-8.4l6.45 13.2q-7.5-2-13.95-4.8" fill="#2b47ab"/><path d="m22.65 217.4 6.4-7.05Q25.75 226 34.8 241.6l.6 1 .15.3 14.9 24.6q4.1 11.4 5.9 21.4 1.25 6.85 4.95 12.6l-.25-.3L62.1 321l13.45 20.05q-21.45-6.35-20.8-21.5.05-1.5.35-3.1l-5.05-28.3-2.45-11.25-2-4-9.05-24.05-6-6.25-.8-1q-9.3-11.85-7.1-24.2" fill="#8b53ff"/><path d="M56.9 339.9q18.85 16.75 54.8 19.15v7q-24.05.4-52.45-12.15l-2.35-14m160.2 75.55q-10.7 6.8-22.35 12.5l-1.95-4.85q-33.85 11.5-71.1 10.55v-8.05q15.8 1.05 29.6 0 40.6-3.05 63.7-24.15l2.1 14m-141.7-3.3q17.35 9 40.3 12.45v6.05q-18.95.45-38.95-8.7l-1.35-9.8" fill="#3e7ab8"/><path d="M38.05 152.8q25.35-10.1 11 35.95-11.9 13.8-23.8 20.7 1.65-3.55 4.25-7.15 30.05-33.25 14.05-49.05l-5.5-.45" fill="#9b5fff"/></g><g id="p" fill-rule="evenodd"><path d="m133.2 280.5-15.5 12 42.05 2.5 18.05-23.5-44.6 9m-6 19.05-23.05.5q12.45-26.5 43.1-27.55l14.5-1.2q19.3-3.65 31.55-17.85-4.65 34.3-31.55 47.65-4.65 2.25-10 3.95l-24.55-5.5" fill="#3df3ed" transform="translate(-39.45 -231.95)"/><path d="m133.2 280.5 44.6-9-18.05 23.5-42.05-2.5 15.5-12" fill="#c3fffd" transform="translate(-39.45 -231.95)"/><path d="M130.2 304.05q-16.45-3.6-29.05.5.95-27.45 40.6-35.55 11.05.25 20-1.4 26.95-5.05 34.55-27.65 3.05 46.45-34.55 65.2l-3 1.4q-15.2 4.2-28.55-2.5m-3-4.5 24.55 5.5q5.35-1.7 10-3.95 26.9-13.35 31.55-47.65-12.25 14.2-31.55 17.85l-14.5 1.2q-30.65 1.05-43.1 27.55l23.05-.5" fill="#199994" transform="translate(-39.45 -231.95)"/><path d="M130.2 304.05q13.35 6.7 28.55 2.5l3-1.4q37.6-18.75 34.55-65.2-7.6 22.6-34.55 27.65-8.95 1.65-20 1.4-39.65 8.1-40.6 35.55 12.6-4.1 29.05-.5m-33.05 2.5q.1-26.55 36.55-44.05l37.1-5q20.05-9.85 26.5-25.55 15.2 47.9-21.95 75.6-6.1 4.55-13.6 8.55-16.25 3.75-32.55-6.55-14.75-6-32.05-3" fill="#af6bff" transform="translate(-39.45 -231.95)"/><path d="m49.4 280.05 6.95 17.7L48.6 296l-4-18.5q2.55 1.15 4.8 2.55" fill="#99fefd" transform="translate(-39.45 -231.95)"/><path d="m56.35 297.75 7.75 1.75q-2.9-10.95-12.1-17.7l-2.6-1.75q-2.25-1.4-4.8-2.55l4 18.5 7.75 1.75m-1.15 2.75-6.1-1.5h-3q-9.35-11.5-5.55-23l2.05-2.5q4.75 1.8 8.75 4.45 13 8.6 18.25 26.1l-14.4-3.55" fill="#199a95" transform="translate(-39.45 -231.95)"/><path d="m49.4 280.05 2.6 1.75q9.2 6.75 12.1 17.7l-7.75-1.75-6.95-17.7" fill="#73f8f3" transform="translate(-39.45 -231.95)"/><path d="m51.35 277.95-1.1-6.4q17.35 11.7 25.15 36.5l-19.35-2.4v-.1l-.85-5.05 14.4 3.55q-5.25-17.5-18.25-26.1" fill="#8b53ff" transform="translate(-39.45 -231.95)"/></g><g id="q" fill-rule="evenodd"><path d="M53.35 100.65Q59.5 99.6 64.75 97q-32.55-6.05-9.9-32.5 36.45-22.2 40.7-41.45 1.25-5.6-.25-11-3.1 21.05-68.9 36.6-40.55 30.45-6.35 48.75 19.15 5.65 33.3 3.25M98.3 7q10.5 23.05-22.65 49.3-20.45 9.6-22.7 21.45Q61.1 86.2 89 59.45q5.85 39.7-39.85 46.75-20.75 3.85-34.75-5.65-34.85-30.25 14.5-58.2Q93.65 34.2 94.05 0q2.65 3.5 4.25 7M66 93.2l3.5.95q11.1-7.8 16.95-23.95l-4.65 3.2q-19.5 12.9-29.4 8.25.1 3.45 3 6.2Q58.8 91 66 93.2" fill="#271a4a"/><path d="M95.55 23.05 91.4 26.7Q64.75 49.05 32.05 49.95q-49 37.1 12.65 44.8l.4.35q3.2 3.05 8.25 5.55-14.15 2.4-33.3-3.25-34.2-18.3 6.35-48.75 65.8-15.55 68.9-36.6 1.5 5.4.25 11" fill="#a373ff"/><path d="m91.4 26.7 4.15-3.65Q91.3 42.3 54.85 64.5 32.2 90.95 64.75 97q-5.25 2.6-11.4 3.65-5.05-2.5-8.25-5.55l-.4-.35q-14.55-14.6 14.55-39.7Q81.1 44.75 91.4 26.7" fill="#b633de"/><path d="M91.4 26.7Q81.1 44.75 59.25 55.05q-29.1 25.1-14.55 39.7-61.65-7.7-12.65-44.8 32.7-.9 59.35-23.25" fill="#241746"/><path d="m81.8 73.4 4.65-3.2Q80.6 86.35 69.5 94.15L66 93.2l7.95-9.9 7.85-9.9" fill="#bb35e5"/><path d="M73.95 83.3 66 93.2q-7.2-2.2-10.6-5.35l18.55-4.55" fill="#221442"/><path d="m81.8 73.4-7.85 9.9-18.55 4.55q-2.9-2.75-3-6.2 9.9 4.65 29.4-8.25" fill="#8f5bff"/></g><use ffdec:characterId="7" height="651.85" transform="translate(0 -.021) scale(.1459)" width="719.3" xlink:href="#r" id="c"/><use ffdec:characterId="2" height="600.85" transform="translate(6.8 25.95)" width="712.5" xlink:href="#s" id="r"/><use ffdec:characterId="9" height="47.75" width="46.2" xlink:href="#t" id="d"/><use ffdec:characterId="11" height="102.9" width="52.6" xlink:href="#u" id="e"/><use ffdec:characterId="13" height="52.2" width="32.5" xlink:href="#v" id="f"/><use ffdec:characterId="15" height="46.9" width="24.5" xlink:href="#w" id="g"/><use ffdec:characterId="17" height="39.5" width="43.3" xlink:href="#x" id="h"/><use ffdec:characterId="19" height="125.65" width="78.95" xlink:href="#y" id="i"/><use ffdec:characterId="21" height="58.7" width="60.5" xlink:href="#z" id="j"/><use ffdec:characterId="23" height="62.6" width="35.6" xlink:href="#A" id="k"/><path d="M25.7-3.75Q34.9-2.5 34.9-.8q0 1.7-9.2 2.9L3.6 3.35-18.6 2.1Q-27.75.9-27.75-.8t9.15-2.95l22.2-1.2 22.1 1.2" fill-opacity=".349" fill-rule="evenodd" transform="translate(27.75 4.95)" id="b"/></defs></svg>