<svg xmlns:ffdec="https://www.free-decompiler.com/flash" xmlns:xlink="http://www.w3.org/1999/xlink" ffdec:objectType="frame" height="90" width="90" xmlns="http://www.w3.org/2000/svg"><use ffdec:characterId="23" height="91" transform="translate(-3.15 -.5)" width="95.45" xlink:href="#a"/><defs><g id="a" transform="translate(3)"><use ffdec:characterId="10" height="91" width="90.3" xlink:href="#b"/><use ffdec:characterId="22" height="68.65" transform="matrix(.7585 0 0 .758 -3.022 19.487)" width="125.85" xlink:href="#c"/></g><g id="b" transform="translate(.3)"><use ffdec:characterId="8" height="91" width="90" xlink:href="#d"/><use ffdec:characterId="9" height="0" transform="matrix(.4936 0 0 .4933 -.3 22)" width="0" xlink:href="#sprite9"/></g><g id="d"><use ffdec:characterId="6" height="91" width="90" xlink:href="#e"/><use ffdec:characterId="7" height="0" transform="translate(7.2 .9) scale(.5229)" width="0" xlink:href="#sprite8"/></g><g id="e" transform="translate(0 1)"><use ffdec:characterId="4" height="90" width="90" xlink:href="#f"/><use ffdec:characterId="5" height="0" transform="matrix(.6902 0 0 .6907 3.3 -1)" width="0" xlink:href="#sprite7"/></g><g id="f"><use ffdec:characterId="1" height="0" transform="matrix(.3874 0 0 .3875 6.1 0)" width="0" xlink:href="#sprite5"/><use ffdec:characterId="3" height="62.25" transform="scale(1.6933 1.4458)" width="53.15" xlink:href="#g"/></g><g id="c" transform="translate(2.6 1.6)"><use ffdec:characterId="11" height="50.35" transform="translate(5.05 27.55) scale(.7702)" width="146.9" xlink:href="#h"/><use ffdec:characterId="12" height="30.75" transform="translate(96.58 6.78) scale(.7702)" width="31.7" xlink:href="#i"/><use ffdec:characterId="13" height="75.55" transform="translate(51.85 -1.62) scale(.7702)" width="89.1" xlink:href="#j"/><use ffdec:characterId="14" height="36.75" transform="translate(93.33 23.765) scale(.7702)" width="35.55" xlink:href="#k"/><use ffdec:characterId="15" height="64.95" transform="translate(.83 6.93) scale(.7702)" width="85.9" xlink:href="#l"/><use ffdec:characterId="16" height="38.5" transform="translate(40.572 10.01) scale(.7702)" width="31.1" xlink:href="#m"/><use ffdec:characterId="17" height="38.05" transform="translate(59.957 33.25) scale(.7702)" width="41.1" xlink:href="#n"/></g><g id="i"><path d="m3.35 11.45-.1.1q3.2 5.55 6.55 8.95 1.35 1.35 4.35 2.75l3.15 1.55 1.25-1.95q1-1.9 1-5.4 0-3.4-.2-4.45-.25-1.35-1.45-3.3-.6-1.1-1.35-1.6-.55-.35-1.7-.75-2.25-1-3.4-1-1.95 0-8.1 5.1" fill="#479260" fill-rule="evenodd" transform="translate(1 1)"/><path d="M3.35 11.45q6.15-5.1 8.1-5.1 1.15 0 3.4 1 1.15.4 1.7.75.75.5 1.35 1.6 1.2 1.95 1.45 3.3.2 1.05.2 4.45 0 3.5-1 5.4L17.3 24.8l2.05 1.05 1.15.7q5.85-10.25 5.85-15.6l-.2-4.25Q19.25.25 9.85 0 3.25-.15 0 5.55l2.85 5.3.5.6" fill="#296647" fill-rule="evenodd" transform="translate(1 1)"/><path d="m20.5 26.55 3.8 1.5 2.35.7q3.5-5.85 3-12.65-.35-5.2-3.5-9.4l.2 4.25q0 5.35-5.85 15.6" fill="#768051" fill-rule="evenodd" transform="translate(1 1)"/><path d="m26.15 6.7.2 4.25q0 5.35-5.85 15.6" fill="none" stroke="#15581d" stroke-linecap="round" stroke-linejoin="round" transform="translate(1 1)"/><path d="M27.65 29.75q3.5-5.85 3-12.65-.35-5.2-3.5-9.4" fill="none" stroke="#5d4e00" stroke-linecap="round" stroke-linejoin="round" stroke-width="2"/><path d="M27.15 7.7q-6.9-6.45-16.3-6.7Q4.25.85 1 6.55" fill="none" stroke="#15581d" stroke-linecap="round" stroke-linejoin="round" stroke-width="2"/></g><g id="j"><path d="m48.1 4.85-.55-.2-1.1-.25q-2.55 0-5.2 3.15-.85 1-2.95 4.3l.1.6.3 2.9q0 1.5-.4 2.55l-.45 1.3q0 1.7 2.25 1.9h.95q.4-3.15 1.45-6.05.65-1.75 1.45-3.1.65-1.1 1.4-1.9l.1 1.8V12q0 2.95-.9 7.45l.9.25 2.6.45q.75 0 1.05-3.35l.05-.5.15-3.65v-.95q-.1-4.7-1.2-6.85m-14.85.3q-1.25.4-2.7 2l-1.6 1.95.05.1 1.15 2.55.5 1.4q.6 1.85.6 3.2l-.15 1.25q.4.75 1.5 1.05l1.9.2h.4V17.8l-1.05-4.95-.3-2.2-.4-4.8.1-.7M18.75 0h-.05q-1.15 0-3.85 4l-2.6 4.25L9.9 12.3l-.75 1.35-.5 1.55-.15.7.05.4.3 1.25.05.15.4.65q.9 1.1 2.8 1.1 1.6 0 2.65-.55 1.1-.55 2.15-.55 1.6 0 2.15 1.2.25.65.8.95l.3-1.95v-.05l.3-4.2.05-1.75q0-2.15-.55-4.4-.55-2.25-1.5-3.35l.3-4.8m8.35 20.25q0-1.15-.7-3.7l-.85-2.85-.3-1.05q-.35-1.45-1.35-2.9l-1.35-2h-.1l.35 3.75.1 2.45.1 2.25-.2 3.85-.05.2-.1.5.7-.05 1.9-.15 1.7-.25.15-.05" fill="#8d9063" fill-rule="evenodd" transform="translate(0 1)"/><path d="M58.7 17.1q-2.4-4-5.05-7.3-3.25-3.9-5.55-4.95Q49.2 7 49.3 11.7v.95l-.15 3.65-.05.5q-.3 3.35-1.05 3.35l-2.6-.45-.9-.25q.9-4.5.9-7.45v-.15l-.1-1.8q-.75.8-1.4 1.9-.8 1.35-1.45 3.1-1.05 2.9-1.45 6.05l2.85-.1.7.1q1.1.2 2.6 1.05 2.05 1.05 3.1 1.05l2.6-.2q1.45-.35 1.45-1.1 0-.65-.65-1.35l-.7-.95q0-1 2.6-1.25 2.7-.3 3.1-1.2v-.05m-20.4-5.25-.65-2.45q-.35-1.3-1.55-2.75-1.3-1.6-2.15-1.6l-.7.1-.1.7.4 4.8.3 2.2 1.05 4.95.15 1.05q2.2-.1 3.25-.95.4-1.05.4-2.55l-.3-2.9-.1-.6M28.95 9.1 27.3 6.75q-2-2.45-4.15-4.3-2.8-2.4-4.4-2.45l-.3 4.8q.95 1.1 1.5 3.35t.55 4.4l-.05 1.75-.3 4.2v.05l-.3 1.95 1.5.25h1.3l.1-.5.05-.2.2-3.85-.1-2.25-.1-2.45-.35-3.75h.1l1.35 2q1 1.45 1.35 2.9l.3 1.05.85 2.85q.7 2.55.7 3.7l1.45-.6.55-.2 1.65-.95.35-.9.15-1.25q0-1.35-.6-3.2l-.5-1.4L29 9.2l-.05-.1" fill="#605e3f" fill-rule="evenodd" transform="translate(0 1)"/><path d="M8.55 13.35q-4.9-.1-7.95 1L.4 16.9 0 23.65q0 10.45 2.45 26.9l4.55.3L37.25 52q10.65-.35 14.7-.05l5.8-.25 4.8-.9q2.65-.6 6.7-2.3 4.95-2.25 12.05-6.1-.15-4.35-2.95-5.25l-1.75-.3.9-1.25.05-.15.05-.05.6-1.4q.85-2.3.85-4.1l-.55-4.35-.65-3.3-.15-.2q-2.8-3.55-6.55-4.75h-5.5l.15.05 1.95.35 1.9.35q1.55.4 3.4 1.5 2.6 1.7 2.6 3.55l-.1.85-.3 1.35q-.3.85-.3 1.5l.05.8.15.5.85 1.65q1.1 1.6 1.1 2.8 0 1.05-.8 1.95l-.45.4q-.6.55-1.3.55l-.6-.25q-.4-.3-.9-.3l-.9.2q-.45.05-.65-.5l-.3-1.65-.25-.9-.35-.55q-1.05-.95-2.9-1.45l-.5-.1-2.85-1.05h-.1v-.05l-1.2-.8q-1.8-1.5-2.8-4.1-.5-1.4-1-4.15l-.4-2.45-.15-.2q-.4.9-3.1 1.2-2.6.25-2.6 1.25l.7.95q.65.7.65 1.35 0 .75-1.45 1.1l1.45 2.2q.65 1.3.65 2.7l-.7 2.5q-.65 1.75-.65 2.8 0 1.15.45 2.65l.25.9.25 1.45q0 .9-.8 2.25-.75 1.3-.8 2.35v.15l-.15 2.7q-.35.95-2 .95l-.65-.05q-.8-.15-1.45-.45-1.35-.65-1.95-2.45l-.55-2.05-.1-.45-.25-.8-.5-1.15-.45-1.05-1.2-2.15-1.7-2-.95-.85-1-.9q-.95-.85-.95-2.2v-.35l.15-.85.15-1.15q0-.7-1.05-1.25l-.15-.05q-1.1-.6-1.1-2.15 0-1.4-.4-2.15-1.45-.65-2.65-1.5-.95-.75-1.5-1.95-1.1-.3-1.5-1.05l-.35.9-1.65.95-.4 1.65-.2 1.7q0 .85.6 2.05.6 1.25.6 1.8 0 .7-.65 1.3-.7.55-.7 1.05l.45 1.4q.4 1.05.4 2.05 0 1.55-.7 3.5l-.3.6-.1.3q-.75 1.55-1.8 1.55-.55 0-1.15-.8-.6-.85-1.25-.85-.5 0-1.1.5l-1.45.45q-1.35 0-2.3-.65l-2-1.6q-.75-.6-1.65-.8l-.7-.1-2.75-.05q-3.25-.25-5.5-2-1.3-1-2-2.85-.4-1.2-.5-2.35l-.05-.85q0-2.1 2.25-4.95l2.75-3.8-.05-.15-.3-1.25-.05-.4.15-.7.5-1.55-.6-.3" fill="#479260" fill-rule="evenodd" transform="translate(0 1)"/><path d="m65.65 17.3-1.75-.8q-.75-.35-1.9-.35l-1.6.3-1.65.75.1.15.4 2.45q.5 2.75 1 4.15 1 2.6 2.8 4.1l1.25.05.35-4.75.1-.45q.4-3.85 2.55-3.85 2.9 0 4.75 3.2Q73.7 25.8 75 27.6l-.05-.8q0-.65.3-1.5l.3-1.35.1-.85q0-1.85-2.6-3.55-1.85-1.1-3.4-1.5l-1.9-.35-1.95-.35-.15-.05m-24.6 3.8h-.95q-2.25-.2-2.25-1.9l.45-1.3q-1.05.85-3.25.95h-.55l-1.9-.2q.55 1.2 1.5 1.95 1.2.85 2.65 1.5.4.75.4 2.15 0 1.55 1.1 2.15v-1.8q.05-.85.9-.85 1.55 0 3.85 1.85l2 1.7 3.25 3.55.55-.4q.4-.4.75-.4 1 0 1.7.65.75.7 1 1.85l.25 5.15.05.25-.15 4.75q-.4 2.6-2.2 3.85l.65.05q1.65 0 2-.95l.15-2.7v-.15q.05-1.05.8-2.35.8-1.35.8-2.25l-.25-1.45-.25-.9q-.45-1.5-.45-2.65 0-1.05.65-2.8l.7-2.5q0-1.4-.65-2.7L52.9 23l-2.6.2q-1.05 0-3.1-1.05-1.5-.85-2.6-1.05l-.7-.1-2.85.1m-18.4-.35h-1.3l-1.5-.25q-.55-.3-.8-.95-.55-1.2-2.15-1.2-1.05 0-2.15.55-1.05.55-2.65.55-1.9 0-2.8-1.1l-.4-.65-2.75 3.8Q3.9 24.35 3.9 26.45l.05.85 1.25-.4 2.1-.65Q9.8 25 11.75 25l5.2.1 5.2-.2.95.1q2.45.35 3.55 2.95.9 2.1 1.5 8l.05.6.3-.6q.7-1.95.7-3.5 0-1-.4-2.05l-.45-1.4q0-.5.7-1.05.65-.6.65-1.3 0-.55-.6-1.8-.6-1.2-.6-2.05l.2-1.7.4-1.65-.55.2-1.45.6-.15.05-1.7.25-1.9.15-.7.05" fill="#116029" fill-rule="evenodd" transform="translate(0 1)"/><path d="M28.15 35.95q-.6-5.9-1.5-8-1.1-2.6-3.55-2.95l-.95-.1-5.2.2-5.2-.1Q9.8 25 7.3 26.25l-2.1.65-1.25.4q.1 1.15.5 2.35.7 1.85 2 2.85 2.25 1.75 5.5 2l2.75.05.7.1q.9.2 1.65.8l2 1.6q.95.65 2.3.65l1.45-.45q.6-.5 1.1-.5.65 0 1.25.85.6.8 1.15.8 1.05 0 1.8-1.55l.05-.9m10.25-9.5q1.05.55 1.05 1.25l-.15 1.15-.15.85 2.25 1.85 1.45 1.7q2.55 3.35 2.7 4.85v.15l-.15.95.5 1.15.25.8.1.45 1.35 1.35q1.25 1.35 1.25 2.5l-.1.65q.65.3 1.45.45 1.8-1.25 2.2-3.85l.15-4.75-.05-.25-.25-5.15q-.25-1.15-1-1.85-.7-.65-1.7-.65-.35 0-.75.4l-.55.4L45 27.3l-2-1.7q-2.3-1.85-3.85-1.85-.85 0-.9.85v1.8h.05l.1.05m37.45 8.45.45-.4q.8-.9.8-1.95 0-1.2-1.1-2.8l-.85-1.65-.15-.5q-1.3-1.8-2.95-5.35-1.85-3.2-4.75-3.2-2.15 0-2.55 3.85l-.1.45-.35 4.75 3 .2.6.15q1.85.35 3.1 1.7l.8 1.45.25.65q.5 1.35 1 1.45 1 .1 1.9.75l.9.45" fill="#097b23" fill-rule="evenodd" transform="translate(0 1)"/><path d="M39.15 29.7v.35q0 1.35.95 2.2l1 .9.95.85 1.7 2 1.2 2.15.45 1.05.15-.95v-.15q-.15-1.5-2.7-4.85l-1.45-1.7-2.25-1.85m7.1 11.9.55 2.05q.6 1.8 1.95 2.45l.1-.65q0-1.15-1.25-2.5l-1.35-1.35m18.1-12.7 2.85 1.05.5.1q1.85.5 2.9 1.45l.35.55.25.9.3 1.65q.2.55.65.5l.9-.2q.5 0 .9.3l.6.25q.7 0 1.3-.55l-.9-.45q-.9-.65-1.9-.75-.5-.1-1-1.45l-.25-.65-.8-1.45q-1.25-1.35-3.1-1.7l-.6-.15-3-.2-.05.75.1.05" fill="#91fa73" fill-rule="evenodd" transform="translate(0 1)"/><path d="m85.1 40.25-2.35-7.8-.05-.25q-1.9-6.25-4.85-9.95l.65 3.3.55 4.35q0 1.8-.85 4.1l-.6 1.4-.05.05-.05.15-.9 1.25 1.75.3q2.8.9 2.95 5.25l3.8-2.15" fill="#296647" fill-rule="evenodd" transform="translate(0 1)"/><path d="M2.45 50.55q.9 5.95 2.15 12.75l.3 1.8h3.75q1.6.65 1.6 2.95 0 1.8-1.6 2.65-1.15.7-2.55.55.4 1.85.75 2.2 21.9.7 44.55-4.6Q76.65 62.9 87.15 49.5l.95-1.2-.45-.45-.6-1.3-1.95-6.3-3.8 2.15q-7.1 3.85-12.05 6.1-4.05 1.7-6.7 2.3l-4.8.9-5.8.25q-4.05-.3-14.7.05L7 50.85l-4.55-.3M52.3 55.9q0-1.3.55-1.45l3-.2 1.9-.25 2.05-.25 4.1-.35 2.1.05.3 1.85q0 1.25-1.15 1.7l-2.4.5-1.95.35-2.9.55-3.95.6q-.8 0-1.25-1-.4-.95-.4-2.1" fill="#768051" fill-rule="evenodd" transform="translate(0 1)"/><path d="m4.9 65.1 1 5.2.2.85v.1q1.4.15 2.55-.55 1.6-.85 1.6-2.65 0-2.3-1.6-2.95H4.9m47.4-9.2q0 1.15.4 2.1.45 1 1.25 1l3.95-.6 2.9-.55 1.95-.35 2.4-.5q1.15-.45 1.15-1.7l-.3-1.85-2.1-.05-4.1.35-2.05.25-1.9.25-3 .2q-.55.15-.55 1.45" fill="#8e9064" fill-rule="evenodd" transform="translate(0 1)"/><path d="m58.75 17.2-.05-.1v.05q-.4.9-3.1 1.2-2.6.25-2.6 1.25l.7.95q.65.7.65 1.35 0 .75-1.45 1.1l-2.6.2q-1.05 0-3.1-1.05-1.5-.85-2.6-1.05l-.7-.1-2.85.1h-.95q-2.25-.2-2.25-1.9l.45-1.3q.4-1.05.4-2.55l-.3-2.9-.1-.6M18.75 0h-.05m12.4 17.6.15-1.25q0-1.35-.6-3.2l-.5-1.4L29 9.2l-.05-.1m-6.3 11.65h-1.3l-1.5-.25q-.55-.3-.8-.95-.55-1.2-2.15-1.2-1.05 0-2.15.55-1.05.55-2.65.55-1.9 0-2.8-1.1l-.4-.65m-.05-.15-.3-1.25-.05-.4.15-.7.5-1.55m17.8 6.65-1.7.25-1.9.15-.7.05m4.45-.5 1.45-.6.55-.2 1.65-.95.35-.9q.4.75 1.5 1.05l1.9.2h.55q2.2-.1 3.25-.95m20.55-.55-.1-.15" fill="none" stroke="#5d4d00" stroke-linecap="round" stroke-linejoin="round" transform="translate(0 1)"/><path d="M8.55 13.35q-4.9-.1-7.95 1m65.05 2.95-1.75-.8q-.75-.35-1.9-.35l-1.6.3-1.65.75m-49.85.5-.05-.15m-4.9 9.75-.05-.85q0-2.1 2.25-4.95l2.75-3.8m20.2 1.75-.4 1.65-.2 1.7q0 .85.6 2.05.6 1.25.6 1.8 0 .7-.65 1.3-.7.55-.7 1.05l.45 1.4q.4 1.05.4 2.05 0 1.55-.7 3.5l-.3.6m-.1.3q-.75 1.55-1.8 1.55-.55 0-1.15-.8-.6-.85-1.25-.85-.5 0-1.1.5l-1.45.45q-1.35 0-2.3-.65l-2-1.6q-.75-.6-1.65-.8l-.7-.1-2.75-.05q-3.25-.25-5.5-2-1.3-1-2-2.85-.4-1.2-.5-2.35m28.65-8.65q.55 1.2 1.5 1.95 1.2.85 2.65 1.5.4.75.4 2.15 0 1.55 1.1 2.15h.05l.1.05q1.05.55 1.05 1.25l-.15 1.15-.15.85v.35q0 1.35.95 2.2l1 .9.95.85 1.7 2 1.2 2.15.45 1.05.5 1.15.25.8m.1.45.55 2.05q.6 1.8 1.95 2.45.65.3 1.45.45l.65.05q1.65 0 2-.95l.15-2.7v-.15q.05-1.05.8-2.35.8-1.35.8-2.25l-.25-1.45-.25-.9q-.45-1.5-.45-2.65 0-1.05.65-2.8l.7-2.5q0-1.4-.65-2.7L52.9 23m5.95-5.65.4 2.45q.5 2.75 1 4.15 1 2.6 2.8 4.1l1.2.8.1.05 2.85 1.05.5.1q1.85.5 2.9 1.45l.35.55.25.9.3 1.65q.2.55.65.5l.9-.2q.5 0 .9.3l.6.25q.7 0 1.3-.55l.45-.4q.8-.9.8-1.95 0-1.2-1.1-2.8l-.85-1.65m-.15-.5-.05-.8q0-.65.3-1.5l.3-1.35.1-.85q0-1.85-2.6-3.55-1.85-1.1-3.4-1.5l-1.9-.35-1.95-.35-.15-.05M81.3 42.4q-7.1 3.85-12.05 6.1-4.05 1.7-6.7 2.3l-4.8.9-5.8.25q-4.05-.3-14.7.05L7 50.85l-4.55-.3M81.3 42.4l3.8-2.15" fill="none" stroke="#1a5b28" stroke-linecap="round" stroke-linejoin="round" transform="translate(0 1)"/><path d="M6.85 74.45q21.9.7 44.55-4.6Q76.65 63.9 87.15 50.5l.95-1.2M58.7 18.1q-2.4-4-5.05-7.3-3.25-3.9-5.55-4.95m-.55-.2-1.1-.25q-2.55 0-5.2 3.15-.85 1-2.95 4.3l-.65-2.45q-.35-1.3-1.55-2.75-1.3-1.6-2.15-1.6l-.7.1q-1.25.4-2.7 2l-1.6 1.95-1.65-2.35q-2-2.45-4.15-4.3-2.8-2.4-4.4-2.45m-.05 0q-1.15 0-3.85 4l-2.6 4.25L9.9 13.3l-.75 1.35" fill="none" stroke="#5d4d00" stroke-linecap="round" stroke-linejoin="round" stroke-width="2"/></g><g id="k"><path d="M28.25 0Q26 1.8 21.05 3.8h-.1l2.95.5q1.65.65 2 2.35l.15-.05.1-.1q3.05-1.9 3.9-2.15L30.8 4l-.05-.05L28.25 0" fill="#296647" fill-rule="evenodd" transform="translate(1 .5)"/><path d="m5.95 18.25-.1.05-.1.05-.05.05v.05q-4.5 4-5.45 7.35Q-.7 29.15 1.7 32l1.5-1.9q.8-.9 2.95-.9l1.35-.45q.85-.55 1-1.35v-1.8q.05-1.25.65-1.25l1.05.25q.95 0 .85-1.05-1.3-.15-1.9-1-.5-.85-.5-2.6l.05-1.5.05-.35.15-.4-.85.1-2 .35-.1.1m23.1 7.4q7.9-9.85 1.9-21.35l-.9.05q-.85.25-3.9 2.15l-.1.1q.95.7 1.45 3.25.4 2 .4 3.85v.1q0 2.5-1 4.35-1.1 1.9-2.9 2.35l-.05.05 1.7 1.55q3.1 2.7 3.4 3.55" fill="#15581d" fill-rule="evenodd" transform="translate(1 .5)"/><path d="M20.95 3.8Q10.15 7 6.15 17.6l-.1.55 2-.35.85-.1.25-.05 4.05-.25.45.05q.7.1 1.3.65.75.7.75 1.3 0 .6-1.2 1.3l-.4.2-1.25.55-.7.25q-1.1.5-1.1 1.65l.15.2.25.25q1.35 1.45 3.35 1.45 2.1 0 4.15-.75l.75-.35q2.85-1.25 4.25-3.6v-.05l-1.05-1.55-.25-1q0-.4.45-1.15l.4-1.1-.55-1.2-.6-1.05q0-.6 1.1-.85l.95-.35.1-.3-.9-.85q-.95-.75-.95-1.4 0-.75 1.95-2.15l.4-.25.9-.65q-.35-1.7-2-2.35l-2.95-.5" fill="#479260" fill-rule="evenodd" transform="translate(1 .5)"/><path d="m26.05 6.6-.15.05-.9.65-.4.25q-.3.65-.3 1.25 0 .9.75 1.65.7.8.7 1.6l-.2.7-.5.45q-.75.25-.75 1l.25 1.25.35 1.2q0 .9-.8 1.6l-1.2.7 1.05 1.55H24q1.8-.45 2.9-2.35 1-1.85 1-4.35v-.1q0-1.85-.4-3.85Q27 7.3 26.05 6.6m-15 16.75q0-1.15 1.1-1.65l.7-.25.25-1.35.1-.65.45-2-.45-.05-4.05.25-.25.05-.15.4-.05.35-.05 1.5q0 1.75.5 2.6.6.85 1.9 1v-.2" fill="#097a23" fill-rule="evenodd" transform="translate(1 .5)"/><path d="M24.6 7.55q-1.95 1.4-1.95 2.15 0 .65.95 1.4l.9.85-.1.3-.95.35q-1.1.25-1.1.85l.6 1.05.55 1.2-.4 1.1q-.45.75-.45 1.15l.25 1 1.2-.7q.8-.7.8-1.6l-.35-1.2-.25-1.25q0-.75.75-1l.5-.45.2-.7q0-.8-.7-1.6-.75-.75-.75-1.65 0-.6.3-1.25m-11.75 13.9 1.25-.55.4-.2q1.2-.7 1.2-1.3 0-.6-.75-1.3-.6-.55-1.3-.65l-.45 2-.1.65-.25 1.35" fill="#9fff7a" fill-rule="evenodd" transform="translate(1 .5)"/><path d="m1.7 32 .05.05.45.4q7.15 7 23.8-3.55l3.05-3.25q-.3-.85-3.4-3.55l-1.7-1.55q-1.4 2.35-4.25 3.6l-.75.35q-2.05.75-4.15.75-2 0-3.35-1.45l-.25-.25h-.15q.1 1.05-.85 1.05l-1.05-.25q-.6 0-.65 1.25v1.8q-.15.8-1 1.35l-1.35.45q-2.15 0-2.95.9L1.7 32" fill="#286546" fill-rule="evenodd" transform="translate(1 .5)"/><path d="M6.05 18.15H6l-.05.1-.1.05-.1.05-.05.05v.05M30.95 4.3 30.8 4l-.05-.05L28.25 0m2.7 4.3-.9.05q-.85.25-3.9 2.15l-.1.1-.15.05-.9.65m-.4.25q-1.95 1.4-1.95 2.15 0 .65.95 1.4l.9.85-.1.3-.95.35q-1.1.25-1.1.85l.6 1.05.55 1.2-.4 1.1q-.45.75-.45 1.15l.25 1 1.05 1.55v.05l1.7 1.55q3.1 2.7 3.4 3.55m-18-2.3q0-1.15 1.1-1.65l.7-.25 1.25-.55.4-.2q1.2-.7 1.2-1.3 0-.6-.75-1.3-.6-.55-1.3-.65l-.45-.05-4.05.25m-.25.05-.85.1-2 .35m5 5.4q.1 1.05-.85 1.05l-1.05-.25q-.6 0-.65 1.25v1.8q-.15.8-1 1.35l-1.35.45q-2.15 0-2.95.9L1.7 32m9.35-8.65v.2" fill="none" stroke="#14571c" stroke-linecap="round" stroke-linejoin="round" transform="translate(1 .5)"/><path d="M6.7 18.95q-4.5 4-5.45 7.35-.95 3.35 1.45 6.2l.05.05.45.4q7.15 7 23.8-3.55l3.05-3.25q7.9-9.85 1.9-21.35" fill="none" stroke="#14571c" stroke-linecap="round" stroke-linejoin="round" stroke-width="2"/></g><g id="l"><path d="M26.05 4.9q-2.9 3.6-3.85 6.9l-.25 1.15-2.8.9.35.9.4.8q0 .8-3.75 2.45l-.05.05-4.15 1.7q.55 1.05 2 1.85.95.6.95 2.2 0 1.4-.55 2.4-.7 1.15-1.95 1.05l-1 1.55-.5.55-.35.4Q9.25 30.8 7.6 30.8h-.2q.75 10.15 12.85 16.45l1.7.8q24.8.8 25.65-5.2 1.6 6.55 8.15 6l.6-.15q5.55-.85 6.55-5.05l3.25 1.45q7.15 2.1 17.8-2L83.6 39q-.45-4.1-1.9-12l-.5-2.75-.75 1.15q-4.2 6.35-6.5 8.1-2.5 1.8-6.45 2.2l-3.2.05-4.35-.8q-3.6-1-6.4-2.3-2.7-1.35-4.9-7.45-2.15-6.15-3.75-7.2l-.3.15-.25.1-.45-.1-.95-.8q-.65-1-1.25-1.2-2.05-.65-2.05-2.2l.05-1 .9-.9v-.9l-.25-.1-.45-.1-.7.05q-.35.1-.65.6h-.95v-1.35q.2-.45 1.65-1.7l.7-.65.65-1.2-.45-.5-.5-.25Q39.95 4.9 42 3.8q2.1-1.05 2.45-2.6l-.2-.1-.25.05q-2.4.65-4.8 1.65l-1.55.75q-4.6 2.2-9 5.75-.6-.3-.6-.9 0-.25.35-.65l2.05-1.85 1.5-1.15 1.15-1.1-.25-.2-1.1-.45q-1-.35-2.45.5l-1.65.75-.05.05-1.55.6m-14.2 22.45-.5-.35-.8-.2q-1.2 0-2.25 1l-1.85 1.8.05.15.15.2 1.05.25q1.4 0 2.6-.95l.25-.25.5-.55.8-1.1m10.1-14.4L25.6 12l3.05-2.7L25.6 12l-3.65.95m.25 23.75-1.85-.1h-.3l-1.75.35q-1.2.5-1.8 1.6h-.05l-.1.2-.05.05-.1.3.3.05h.6q1.45 0 2.75-.6l.55-.3.7-.5 1.1-1.05m-2.7-2.2 1.45-.25q2.25 0 2.25 1.25 0 .5-.6 1.25l-.05.05-.85 1.05-1.15.95q-.15.05-.25.15-1.5.9-3.25.9h-.2l-.85-.1q-.6-.15-.6-.6l.4-1.25q.35-.75 1-1.55l.4-.45q1.1-1.05 2.3-1.4" fill="#479260" fill-rule="evenodd" transform="translate(1 1)"/><path d="M39.2 2.8q-1.65-.95-3.15-1.45L33.5.75q-3.6-.3-6.25 2.7l-1.2 1.45 1.55-.6.05-.05 1.65-.75q1.45-.85 2.45-.5l1.1.45.25.2-1.15 1.1-1.5 1.15-2.05 1.85q-.35.4-.35.65 0 .6.6.9 4.4-3.55 9-5.75l1.55-.75M2 26.65.85 28.6q-5.25 19.75 21.6 26.5l.4.1 8.6.6h.35q10.25-.25 17.4-5.4 4.1 2.95 8.25 1.95 3.6-.85 7.2-4.65l1.95 1.65q5.8 3.85 13.05-2.3h4.6l-.3-3.95q-10.65 4.1-17.8 2l-3.25-1.45q-1 4.2-6.55 5.05l-.6.15q-6.55.55-8.15-6-.85 6-25.65 5.2l-1.55-.35Q4.7 43.4 2 26.65m79.2-2.4-.2-1.3L79.75 17l-6.7-.5-10.15-.8-4.55.1-6.2.6-2.25.35-2.1-.1q-.8-.2-1.9.65l-1 .7q1.6 1.05 3.75 7.2 2.2 6.1 4.9 7.45 2.8 1.3 6.4 2.3l4.35.8 3.2-.05q3.95-.4 6.45-2.2 2.3-1.75 6.5-8.1l.75-1.15" fill="#296647" fill-rule="evenodd" transform="translate(1 1)"/><path d="M62 .95q-10.2-1.9-17.6.1l.05.15Q44.1 2.75 42 3.8q-2.05 1.1-2.35 2.15l.5.25.45.5-.65 1.2-.7.65q-1.45 1.25-1.65 1.7v1.35h.95q.3-.5.65-.6l.7-.05.45.1.25.1v.8l.75.1.35.1.7.1 3.2-.25 2.7-.6q.95-.75 2.9-.95l1.15-.95.9-1.1 1.8-1.7L58 3.95l.3-.25q2-1.8 3.7-2.75" fill="#097b23" fill-rule="evenodd" transform="translate(1 1)"/><path d="m79.75 17-1.8-6.65q-2-5.8-4.25-7.4l-3.95-1.1-2.6-.15-.1.35-.65-.15L62 .95q-1.7.95-3.7 2.75l-.3.25-2.95 2.75-1.8 1.7-.9 1.1-1.15.95q-1.95.2-2.9.95l-2.7.6-3.2.25-.7-.1-.35-.1-.75-.1v.1l-.9.9-.05 1q0 1.55 2.05 2.2.6.2 1.25 1.2l.95.8.45.1.25-.1.3-.15 1-.7q1.1-.85 1.9-.65l2.1.1 2.25-.35 6.2-.6 4.55-.1 10.15.8 6.7.5m-14-14.7.65-.4-.65.4m1.3-.25q2.65.65 5.5 1.6-2.85-.95-5.5-1.6" fill="#115b25" fill-rule="evenodd" transform="translate(1 1)"/><path d="M31.8 55.8q13.75 5.05 30.65 6.55l4.65.35q8.1.45 16.8.15.5-3.7.5-7.55l-.15-8.25h-4.6q-7.25 6.15-13.05 2.3l-1.95-1.65q-3.6 3.8-7.2 4.65-4.15 1-8.25-1.95-7.15 5.15-17.4 5.4m32.95-4.7 2.05 1.3q1.6.7 4.2 1.1l3.95.1q1.45.2 1.45 2.45 0 1.95-3.35 3l-5.2.7h-.75l-6.4-.8-2.75-.55Q49.6 56.75 49.6 55q0-.5.75-.85l.8-.2 2.5.2 2.7.15 1.95-.15 2.65-.8 3.75-2.2-.1-.25.15.2" fill="#768051" fill-rule="evenodd" transform="translate(1 1)"/><path d="m18.85 13.95-1.2.5Q7.35 18.5 2 26.65 4.7 43.4 20.4 47.7l1.55.35-1.7-.8Q8.15 40.95 7.4 30.8q-1.05-.05-1.35-.8l-.1-1.15q0-2.9 3.3-4.15 3.4-1.25 3.4 1.65l-.25.9q1.25.1 1.95-1.05.55-1 .55-2.4 0-1.6-.95-2.2-1.45-.8-2-1.85l4.15-1.7.05-.05q3.75-1.65 3.75-2.45l-.4-.8-.65-.8" fill="#63da8d" fill-rule="evenodd" transform="translate(1 1)"/><path d="m11.85 27.35.35-.95q0-2.3-2.9-1.15-2.85 1.15-2.85 3.5v.85l1.85-1.8q1.05-1 2.25-1l.8.2.5.35M22.2 36.7q.55-.65.55-1.2l-.3-.4-.75-.35-1.35-.05-.7.3-2 1.3-.35.25q-1 1-1.2 1.9l-.05.45v.15l.15.05.1-.3.05-.05.1-.2h.05q.6-1.1 1.8-1.6l1.75-.35h.3l1.85.1" fill="#2a694a" fill-rule="evenodd" transform="translate(1 1)"/><path d="m12.4 27.25.25-.9q0-2.9-3.4-1.65-3.3 1.25-3.3 4.15l.1 1.15q.3.75 1.35.8h.2q1.65 0 2.95-1.05l.35-.4.5-.55 1-1.55M6.45 29.6v-.85q0-2.35 2.85-3.5 2.9-1.15 2.9 1.15l-.35.95-.8 1.1-.5.55-.25.25q-1.2.95-2.6.95l-1.05-.25-.15-.2-.05-.15m9.75 9.5-.15-.05v-.15l.05-.45q.2-.9 1.2-1.9l.35-.25 2-1.3.7-.3 1.35.05.75.35.3.4q0 .55-.55 1.2l-1.1 1.05-.7.5-.55.3q-1.3.6-2.75.6h-.6l-.3-.05m3.3-4.6q-1.2.35-2.3 1.4l-.4.45q-.65.8-1 1.55l-.4 1.25q0 .45.6.6l.85.1h.2q1.75 0 3.25-.9.1-.1.25-.15l1.15-.95.85-1.05.05-.05q.6-.75.6-1.25 0-1.25-2.25-1.25l-1.45.25" fill="#0b2603" fill-rule="evenodd" transform="translate(1 1)"/><path d="m64.7 51.15-3.75 2.2-2.65.8-1.95.15-2.7-.15-2.5-.2-.8.2q-.75.35-.75.85 0 1.75 8.35 3.4l2.75.55 6.4.8h.75l5.2-.7q3.35-1.05 3.35-3 0-2.25-1.45-2.45L71 53.5q-2.6-.4-4.2-1.1l-2.05-1.3-.05.05" fill="#8d9063" fill-rule="evenodd" transform="translate(1 1)"/><path d="m19.15 13.85-.3.1m48.2-11.9-.65-.15-.65.4M44.4 1.05l-.15.05.2.1Q44.1 2.75 42 3.8q-2.05 1.1-2.35 2.15l.5.25.45.5-.65 1.2-.7.65q-1.45 1.25-1.65 1.7v1.35h.95q.3-.5.65-.6l.7-.05.45.1.25.1v.9l-.9.9-.05 1q0 1.55 2.05 2.2.6.2 1.25 1.2l.95.8.45.1.25-.1M39.2 2.8l-1.55.75q-4.6 2.2-9 5.75L25.6 12l-3.65.95M31.8 55.8q10.25-.25 17.4-5.4 4.1 2.95 8.25 1.95 3.6-.85 7.2-4.65l1.95 1.65q5.8 3.85 13.05-2.3h4.6M79.75 17l-6.7-.5-10.15-.8-4.55.1-6.2.6-2.25.35-2.1-.1q-.8-.2-1.9.65l-1 .7M72.55 3.65q-2.85-.95-5.5-1.6" fill="none" stroke="#15581d" stroke-linecap="round" stroke-linejoin="round" transform="translate(1 1)"/><path d="M40.2 3.8q-1.65-.95-3.15-1.45l-2.55-.6q-3.6-.3-6.25 2.7l-1.2 1.45q-2.9 3.6-3.85 6.9l-.25 1.15-2.8.9m-.3.1-1.2.5Q8.35 19.5 3 27.65L1.85 29.6q-5.25 19.75 21.6 26.5l.4.1 8.6.6M67.4 2.9 63 1.95q-10.2-1.9-17.6.1m-.15.05-.25.05q-2.4.65-4.8 1.65" fill="none" stroke="#15581d" stroke-linecap="round" stroke-linejoin="round" stroke-width="2"/><path d="M32.45 56.8h.35q13.75 5.05 30.65 6.55l4.65.35q8.1.45 16.8.15" fill="none" stroke="#5d4e00" stroke-linecap="round" stroke-linejoin="round" stroke-width="2"/></g><g id="m"><path d="M59.85 7.8h.3l1.25-.1q2.7-.3 5.2.05 2.5.3 2.65 1.35.15 1.05-.15 1.05l-1.05.1.35.3 1.05 1.05.45.35.65-.5q.3-.55.8-.55t2.25 2.8l1.75 3q1.35 2.75 2 6.8l.85.65q1.7 1.45 1.6 3.05-.1 1.6-2.05 3.3-4.45 2.4-8.55 2.85l-2.85.15-1.75 1.7q-.9.8-1.8.8l-1.55-.3-1.1-.6-3.3-2.3q-1.8-1.45-3-3.3-1.2-1.9-1.3-3.2l-.1-.2-.6-.3.05.45.05.15q.3 1.75.85 3.4 1.1 2.9 3.1 5.35L57.55 37q3.75 3.5 8.6 3.5 6 0 10.35-5.35 2.7-3.45 3.7-7.85.5-2.4.5-5.05 0-7.6-4.2-12.95Q72.15 4 66.15 4q-4.7 0-8.3 3.2l-.65.7 2.65-.1" fill="#2a6649" fill-rule="evenodd" transform="translate(-50.6 -3)"/><path d="M68.05 10.25q-1-1-2.2-1.1h-.05l-.3-.05q-1.45 0-1.65 1.25l-.05.15q-.35 2.05-.8 2.75-.85 1.15-2.3 1.6l-2.4.75-.2.1-.6.9-.9 1.5-.05.05-1.75 2.3-1 1.45-1.4 1.6-.75.7.2 1.6.6.3-.05-.15q-.1-.8.7-1.8.85-1 2.7-2.15l2.35-1.3 2.5-1q3.35-1.05 6.7-.6l3 .6.25.1q3.35 1.1 6.75 3.7-.65-4.05-2-6.8l-1.75-3q-1.75-2.8-2.25-2.8t-.8.55l-.65.5-.45-.35-1.05-1.05-.35-.3m-1.65 5.1-.2.05q-2.3.3-2.85.55h-1.7v-.25l1.4-1.3.55-.6v-.05l.05-.05.45-.65.45-1.4.2-.5q.35-1.1.95-1.1.8 0 3.3 1.9l.1.1q2.5 1.9 2.85 2.95v.5l-1.5-.5H69.2l-2.8.35" fill="#115b24" fill-rule="evenodd" transform="translate(-50.6 -3)"/><path d="m53.8 21.9 1-1.45 1.75-2.3.05-.05.9-1.5.6-.9.2-.1 2.4-.75q1.45-.45 2.3-1.6.45-.7.8-2.75l.05-.15q.2-1.25 1.65-1.25l.3.05h.05q1.2.1 2.2 1.1l1.05-.1q.3 0 .15-1.05T66.6 7.75q-2.5-.35-5.2-.05l-1.25.1h-.3q-3.25 2.8-3.35 3.3-.1.5.7.95.8.4.8 1.95l-.3 1.3-.85.7-1.35.35h-1l-.3 2.85-.4 2.7" fill="#479260" fill-rule="evenodd" transform="translate(-50.6 -3)"/><path d="m66.4 15.35 2.8-.35h1.25l1.5.5V15q-.35-1.05-2.85-2.95l-.1-.1q-2.5-1.9-3.3-1.9-.6 0-.95 1.1l-.2.5-.45 1.4-.45.65-.05.05v.05l-.55.6-1.4 1.3v.25h1.7q.55-.25 2.85-.55l.2-.05" fill="#097b23" fill-rule="evenodd" transform="translate(-50.6 -3)"/><path d="m53.8 21.9.4-2.7.3-2.85h1l1.35-.35.85-.7.3-1.3q0-1.55-.8-1.95-.8-.45-.7-.95.1-.5 3.35-3.3l-2.65.1-1.3 1.4q-1.35 1.7-2.3 3.6-2 4.15-2 9.35l.05 1.95.75-.7 1.4-1.6" fill="#63da8d" fill-rule="evenodd" transform="translate(-50.6 -3)"/><path d="m60.65 19.7-2.5 1L55.8 22q-1.85 1.15-2.7 2.15-.8 1-.7 1.8l.05.15.1.2q.4.8 1.8 1.4 2.45 2.5 5.15 3.9l3 .15.3.05 2.15.55 1.35.15 2.85-.35 1.75-.6q2.6-1.3 2.6-3.8L73.25 26l-1.45-1.35h-.5q-.2 2.3-1.45 3.9l-.85.85q-1.45 1.2-3.6 1.2-1.85 0-3.2-1.5l-.2-.2q-.95-1.25-.95-2.65l.05-.4-.4-.3-.15-.2L60 24.1v-.45q0-1.45.95-2.1v-1l-.3-.85" fill="#b9a9b9" fill-rule="evenodd" transform="translate(-50.6 -3)"/><path d="M59.5 31.6q-2.7-1.4-5.15-3.9-1.4-.6-1.8-1.4.1 1.3 1.3 3.2 1.2 1.85 3 3.3l3.3 2.3 1.1.6 1.55.3q.9 0 1.8-.8l1.75-1.7h-.2l-1.35-.15-2.35-.5Q61 32.4 59.5 31.6" fill="#499463" fill-rule="evenodd" transform="translate(-50.6 -3)"/><path d="m61.1 25.85.8.25h.15l1.35-.55q1-.7 1-1.95l-.3-1.55q-.35-.95-.95-1-1.4 0-2.2.5-.95.65-.95 2.1v.45l.55 1.25.15.2.4.3m5.95 2.45.8-.6.85-1.05q.5-.95.5-2.1l-.15-1.25h-.65l-.2.2q-.65.7-.85 2.25l-.3 2.55" fill="#fff" fill-rule="evenodd" transform="translate(-50.6 -3)"/><path d="m70.6 19.8-.25-.1-3-.6q-3.35-.45-6.7.6l.3.85v1q.8-.5 2.2-.5.4-.45.95-.55l1.25-.05q1.5 0 2.5.95l.2.2q.75.7 1 1.7l.15 1.25q0 1.15-.5 2.1l-.85 1.05-.8.6q-.9.6-1.95.6-1.15 0-2.15-1.2-.8-.85-.9-1.6h-.15l-.8-.25-.05.4q0 1.4.95 2.65l.2.2q1.35 1.5 3.2 1.5 2.15 0 3.6-1.2l.85-.85q1.25-1.6 1.45-3.9l.05-.95q0-2.8-.75-3.9" fill="#180029" fill-rule="evenodd" transform="translate(-50.6 -3)"/><path d="M62.05 26.1q.1.75.9 1.6 1 1.2 2.15 1.2 1.05 0 1.95-.6l.3-2.55q.2-1.55.85-2.25l.2-.2h.65q-.25-1-1-1.7l-.2-.2q-1-.95-2.5-.95l-1.25.05q-.55.1-.95.55.6.05.95 1l.3 1.55q0 1.25-1 1.95l-1.35.55" fill="#320055" fill-rule="evenodd" transform="translate(-50.6 -3)"/><path d="M77.35 23.5q-3.4-2.6-6.75-3.7.75 1.1.75 3.9l-.05.95h.5L73.25 26l.25 1.75q0 2.5-2.6 3.8l-1.75.6-2.85.35-1.35-.15-2.15-.55-.3-.05-3-.15q1.5.8 2.95 1.25l2.35.5 1.35.15h.2l2.85-.15q4.1-.45 8.55-2.85 1.95-1.7 2.05-3.3.1-1.6-1.6-3.05l-.85-.65" fill="#837382" fill-rule="evenodd" transform="translate(-50.6 -3)"/><path d="M77.35 23.5q-3.4-2.6-6.75-3.7m-.25-.1-3-.6q-3.35-.45-6.7.6l-2.5 1L55.8 22q-1.85 1.15-2.7 2.15-.8 1-.7 1.8m13.95 7.55 2.85-.15q4.1-.45 8.55-2.85 1.95-1.7 2.05-3.3.1-1.6-1.6-3.05l-.85-.65M59.5 31.6q-2.7-1.4-5.15-3.9-1.4-.6-1.8-1.4m13.8 7.2h-.2l-1.35-.15-2.35-.5Q61 32.4 59.5 31.6" fill="none" stroke="#15581d" stroke-linecap="round" stroke-linejoin="round" transform="translate(-50.6 -3)"/><path d="m1.25 22.8-.2-1.6L1 19.25q0-5.2 2-9.35.95-1.9 2.3-3.6l1.3-1.4.65-.7q3.6-3.2 8.3-3.2 6 0 10.35 5.3 4.2 5.35 4.2 12.95 0 2.65-.5 5.05-1 4.4-3.7 7.85-4.35 5.35-10.35 5.35-4.85 0-8.6-3.5L5.3 32.15q-2-2.45-3.1-5.35-.55-1.65-.85-3.4l-.05-.15-.05-.45z" fill="none" stroke="#15581d" stroke-linecap="round" stroke-linejoin="round" stroke-width="2"/></g><g id="n"><path d="M37.8 25.35q3.85-6.9.55-14.2-1.05-2.3-2.8-4.65l-.15-.2-4.4-.55 1.7 2.2.6 1.45q.5 1.75.5 4.65l-.05 1.15q-.05 3-.75 4.4l-.1.15q-.95 1.75-3.15 2.05l1.8.7 1.9.5q3.2.9 4.35 2.35" fill="#15581d" fill-rule="evenodd" transform="translate(.25)"/><path d="m31 5.75-.35-.05-1.25.15q-1.25.2-2.45 1-1.15.7-1.65 1.5h.8q1.4.5 1.4 1.7v.1q-.05.65-.6 1.15-.65.55-1.3.55h-.1l-.2.15-1.6.95.55.6.05 1.05-.05.45-.5.95-.55.7.6.05q2.25.25 2.4.75.2 1.8.75 2.25l1.8 1.5.25.2.75.35q2.2-.3 3.15-2.05l.1-.15q.7-1.4.75-4.4l.05-1.15q0-2.9-.5-4.65l-.6-1.45-1.7-2.2" fill="#097a23" fill-rule="evenodd" transform="translate(.25)"/><path d="m35.4 6.3-1.35-1.6-.35-.95q-.95-1.85-3.25-2.4l-8-1.1L21.8.2q-4.75-.3-7.65-.1-1.55.1-3.7 1.3-2.2 1.15-5.1 3.45Q0 9.1 0 11.65l.2.7.55.75v-.4q.05-.6.7-.6.8 0 2 1.6 1.25 1.55 1.9 1.55.5 0 1.45-1.7t3-1.7q1.85 0 3.05 1 1.25.9.55 2.7l-.35 1.1-.45 1.75q-.1.95 1.25 1.45l1.75.65h.1l2.1.3q1.15.25 1.15 1.25l-.2.45-.65.05-.95.05v.05L15.9 23l-2.3.35q-1.9.55-1.9 2.2 0 1.65 1.95 2.7 1.65.85 3.85.85h.35q3.75-.1 8.25-2.15l.9-.4q4-2 4.55-4.05l-1.8-.7-.75-.35-.25-.2-1.8-1.5q-.55-.45-.75-2.25-.15-.5-2.4-.75l-.6-.05-.4-.1q-1.1-.3-1.1-1.1 0-.75.6-1.5l1.3-1h.05l.05-.05 1.6-.95.2-.15.05-.05-.3-1.15-.25-1.1.05-.4.25-.8q.5-.8 1.65-1.5 1.2-.8 2.45-1l1.25-.15.35.05 4.4.55" fill="#479260" fill-rule="evenodd" transform="translate(.25)"/><path d="m25.3 8.35-.25.8-.05.4.25 1.1.3 1.15-.05.05h.1q.65 0 1.3-.55.55-.5.6-1.15v-.1q0-1.2-1.4-1.7h-.8m-1.6 4.6-.05.05h-.05l-1.3 1q-.6.75-.6 1.5 0 .8 1.1 1.1l.4.1.55-.7.5-.95.05-.45-.05-1.05-.55-.6" fill="#9fff7a" fill-rule="evenodd" transform="translate(.25)"/><path d="M.75 13.1Q3 18.25 7.4 20.65q2.75 1.45 6.3 1.8l2.15.15h1.3l.95-.05.65-.05.2-.45q0-1-1.15-1.25l-2.1-.3h-.1l-1.75-.65q-1.35-.5-1.25-1.45l.45-1.75.35-1.1q.7-1.8-.55-2.7-1.2-1-3.05-1-2.05 0-3 1.7-.95 1.7-1.45 1.7-.65 0-1.9-1.55-1.2-1.6-2-1.6-.65 0-.7.6v.4" fill="#63da8d" fill-rule="evenodd" transform="translate(.25)"/><path d="M7.4 20.65Q1.85 23.3 3.25 32.1q7.6 9.75 26.6.35 5.55-2.75 7.9-7l.05-.1Q36.65 23.9 33.45 23l-1.9-.5Q31 24.55 27 26.55l-.9.4Q21.6 29 17.85 29.1h-.35q-2.2 0-3.85-.85-1.95-1.05-1.95-2.7 0-1.65 1.9-2.2l2.3-.35 1.25-.35v-.05h-1.3l-2.15-.15q-3.55-.35-6.3-1.8" fill="#286546" fill-rule="evenodd" transform="translate(.25)"/><path d="m37.75 25.45.05-.1Q36.65 23.9 33.45 23l-1.9-.5-1.8-.7M35.4 6.3 31 5.75l-.35-.05-1.25.15q-1.25.2-2.45 1-1.15.7-1.65 1.5l-.25.8-.05.4.25 1.1.3 1.15-.05.05m-.2.15-1.6.95m-.05.05h-.05l-1.3 1q-.6.75-.6 1.5 0 .8 1.1 1.1m.4.1.6.05q2.25.25 2.4.75.2 1.8.75 2.25l1.8 1.5.25.2M17.15 22.6l.95-.05M.75 12.7v.4m16.4 9.5h-1.3l-2.15-.15q-3.55-.35-6.3-1.8" fill="none" stroke="#14571c" stroke-linecap="round" stroke-linejoin="round" transform="translate(.25)"/><path d="M1 13.1q2.25 5.15 6.65 7.55Q2.1 23.3 3.5 32.1q7.6 9.75 26.6.35 5.55-2.75 7.9-7m.05-.1q3.85-6.9.55-14.2-1.05-2.3-2.8-4.65l-.15-.2" fill="none" stroke="#14571c" stroke-linecap="round" stroke-linejoin="round" stroke-width="2"/></g><path d="M53.15 62.25H0V0h53.15v62.25" fill="url(#o)" fill-rule="evenodd" id="p"/><path d="M125.4 42.95q-21.55 7.4-51.95 7.4-30.45 0-51.95-7.4Q0 35.6 0 25.2 0 14.75 21.5 7.35 43 0 73.45 0q30.4 0 51.95 7.35 21.5 7.4 21.5 17.85 0 10.4-21.5 17.75" fill-opacity=".349" fill-rule="evenodd" id="h"/><linearGradient gradientTransform="matrix(.0324 0 0 .038 26.55 31.1)" gradientUnits="userSpaceOnUse" id="o" spreadMethod="pad" x1="-819.2" x2="819.2"><stop offset=".008" stop-color="#ffc" stop-opacity="0"/><stop offset="1" stop-color="#9f0" stop-opacity="0"/></linearGradient><use ffdec:characterId="2" height="62.25" width="53.15" xlink:href="#p" id="g"/></defs></svg>