<svg xmlns:ffdec="https://www.free-decompiler.com/flash" xmlns:xlink="http://www.w3.org/1999/xlink" ffdec:objectType="frame" height="90" width="90" xmlns="http://www.w3.org/2000/svg"><use ffdec:characterId="20" height="346.75" transform="matrix(.2598 0 0 .2601 13.849 -.193)" width="237.3" xlink:href="#a"/><use ffdec:characterId="21" height="43.3" transform="scale(2.0785)" width="43.3" xlink:href="#b"/><defs><g id="a" transform="translate(9.05 .55)"><use ffdec:characterId="1" height="37.4" transform="translate(31.8 316.35) scale(.7987)" width="177.45" xlink:href="#c"/><use ffdec:characterId="2" height="140.25" transform="translate(115.951 84.151) scale(.7987)" width="133.95" xlink:href="#d"/><use ffdec:characterId="3" height="98.2" transform="translate(-.749 225.901) scale(.7987)" width="131.15" xlink:href="#e"/><use ffdec:characterId="4" height="30.55" transform="translate(102.151 183.151) scale(.7987)" width="26.75" xlink:href="#f"/><use ffdec:characterId="5" height="47.4" transform="translate(81.451 193.701) scale(.7987)" width="27.4" xlink:href="#g"/><use ffdec:characterId="6" height="25" transform="translate(65.201 209.651) scale(.7987)" width="27.55" xlink:href="#h"/><use ffdec:characterId="7" height="55.25" transform="translate(116.451 58.751) scale(.7987)" width="53.9" xlink:href="#i"/><use ffdec:characterId="8" height="36.45" transform="translate(119.501 101.751) scale(.7987)" width="49.2" xlink:href="#j"/><use ffdec:characterId="9" height="34.4" transform="translate(126.951 125.801) scale(.7987)" width="48.75" xlink:href="#k"/><use ffdec:characterId="10" height="244.05" transform="translate(23.451 36.801) scale(.7987)" width="140.95" xlink:href="#l"/><use ffdec:characterId="11" height="88.4" transform="translate(95.9 19.051) scale(.7987)" width="60.25" xlink:href="#m"/><use ffdec:characterId="12" height="201.95" transform="translate(107.112 88.462) scale(.7987)" width="84.3" xlink:href="#n"/><use ffdec:characterId="13" height="140.4" transform="translate(.951 -.549) scale(.7987)" width="127.25" xlink:href="#o"/><use ffdec:characterId="14" height="22.05" transform="matrix(.6458 -.467 .467 .6458 20.737 85.421)" width="45.55" xlink:href="#p"/><clipPath id="q" transform="translate(22.65 32.7) scale(.7957)"><path d="M30.55 66.9q4.8-12.05-3.1-16.5 4.15-3.25 8.25-4.85 2.5 4.4 2.85 11.65.05 4.85-1.75 6.7l-6.25 3" fill="#2c2c2c" fill-rule="evenodd"/><path d="M30.55 66.9q-12 5.25-25.35 7.95l.05-.05 1.65-1.45q7.25-10.3 13.75-16.9 3.45-3.55 6.8-6.05 7.9 4.45 3.1 16.5" fill="#c8d0e5" fill-rule="evenodd"/></clipPath><g clip-path="url(#q)"><use ffdec:characterId="16" height="28.1" transform="translate(22.244 73.836) scale(.7957)" width="28.1" xlink:href="#r"/></g><use ffdec:characterId="17" height="76" transform="translate(23.673 32.316) scale(.7987)" width="37.45" xlink:href="#s"/><use ffdec:characterId="18" height="48.15" transform="translate(77.851 37.701) scale(.7987)" width="28.9" xlink:href="#t"/></g><g id="d"><path d="M128.35 102.95q-5.3-2-9.8-1.45-31.5-36.45-56.35-50Q24.3 29.3 2.7 9.6L0 0q31.15 29.8 53.85 39.5 61.35 29.85 74.5 63.45" fill="#c8ddee" fill-rule="evenodd" transform="translate(1 1)"/><path d="M82.2 113.25q-2.5 3.7-4.9 8.8Q53.55 47.6 5.35 19.15q26.2 11.2 46.95 40.8 20.4 20.55 29.9 53.3" fill="#afb5d5" fill-rule="evenodd" transform="translate(1 1)"/><path d="M2.7 9.6q21.6 19.7 59.5 41.9 24.85 13.55 56.35 50-6.65.8-11.45 7.15-3.5-3.4-6.95-4.65-9.4-3.5-17.95 9.25-9.5-32.75-29.9-53.3-20.75-29.6-46.95-40.8L2.7 9.6m74.2 65.1q14.25 12.25 23.25 29.3-9-17.05-23.25-29.3" fill="#7da2bc" fill-rule="evenodd" transform="translate(1 1)"/><path d="M118.55 101.5q4.5-.55 9.8 1.45 3.5 8.85 3.6 17.95l-3.35-3.95q-.65-12.4-10.05-15.45m-10.95 18.05q4.95-8.55 10.45-7.55-4.95 1.25-8.55 10.7l-1.9-3.15m-30.3 2.55q1.75 1.6 3.55.55l2-1.6q-.55 2.6.75 3.75 4.3-10.25 11.7-12.75-7.25 3.2-13.3 26.2-2.2-8.35-4.7-16.15" fill="#1d536f" fill-rule="evenodd" transform="translate(1 1)"/><path d="M118.55 101.5q9.4 3.05 10.05 15.45-5.85-6.15-10.55-4.95-5.5-1-10.45 7.55-6.05-9.3-11.45-7.8l-.85.3q-7.4 2.5-11.7 12.75-1.3-1.15-.75-3.75 1.1-1.25.8-2.4l-1.45-5.4q8.55-12.75 17.95-9.25 3.45 1.25 6.95 4.65 4.8-6.35 11.45-7.15m-16.2 6.85-2.2-4.35 2.2 4.35" fill="#11445f" fill-rule="evenodd" transform="translate(1 1)"/><path d="m82.2 113.25 1.45 5.4q.3 1.15-.8 2.4l-2 1.6q-1.8 1.05-3.55-.55v-.05q2.4-5.1 4.9-8.8" fill="#7b88a8" fill-rule="evenodd" transform="translate(1 1)"/><path d="M129.35 103.95q-13.15-33.6-74.5-63.45Q32.15 30.8 1 1l2.7 9.6 2.65 9.55q48.2 28.45 71.95 102.9v.05" fill="none" stroke="#345265" stroke-linecap="round" stroke-linejoin="round" stroke-width="2"/><path d="m100.15 104 2.2 4.35m-2.2-4.35q-9-17.05-23.25-29.3" fill="none" stroke="#345265" stroke-linecap="round" stroke-linejoin="round" transform="translate(1 1)"/><path d="m129.6 117.95 3.35 3.95q-.1-9.1-3.6-17.95m-10.3 9.05q4.7-1.2 10.55 4.95m-33.3-4.9.85-.3q5.4-1.5 11.45 7.8l1.9 3.15q3.6-9.45 8.55-10.7m-22.75.05q-7.25 3.2-13.3 26.2-2.2-8.35-4.7-16.15" fill="none" stroke="#0e3647" stroke-linecap="round" stroke-linejoin="round" stroke-width="2"/></g><g id="e"><path d="m46.9 91.85-3.1-4.7L55.6 85 52 91.5l-5.1.35m4.35 1.05-1.85 3.3-1.7-3 3.55-.3" fill="#227a9e" fill-rule="evenodd" transform="translate(.75 1)"/><path d="m46.9 91.85 5.1-.35-.75 1.4-3.55.3-.8-1.35" fill="#adcce1" fill-rule="evenodd" transform="translate(.75 1)"/><path d="m52.75 92.5 3.6-6.5-11.8 2.15 3.1 4.7.8 1.35 1.7 3L52 93.9l.75-1.4z" fill="none" stroke="#345265" stroke-linecap="round" stroke-linejoin="round" stroke-width="2"/><path d="m17.15 49.35-9.2 6.2V44.9q3.25 3.85 9.2 4.45" fill="#237394" fill-rule="evenodd" transform="translate(.75 1)"/><path d="M17.9 50.35q-5.95-.6-9.2-4.45v10.65l9.2-6.2z" fill="none" stroke="#345265" stroke-linecap="round" stroke-linejoin="round" stroke-width="1.5"/><path d="M46.9 91.7 43.8 87l11.8-2.15-3.6 6.5-5.1.35m4.35 1.05-1.85 3.3-1.7-3 3.55-.3" fill="#227a9e" fill-rule="evenodd" transform="translate(.75 1)"/><path d="m46.9 91.7 5.1-.35-.75 1.4-3.55.3-.8-1.35" fill="#adcce1" fill-rule="evenodd" transform="translate(.75 1)"/><path d="m52.75 92.35 3.6-6.5L44.55 88l3.1 4.7.8 1.35 1.7 3 1.85-3.3.75-1.4z" fill="none" stroke="#345265" stroke-linecap="round" stroke-linejoin="round" stroke-width="1.5"/><path d="m72.55 85-1.35-.75 4.2-2.85.05 1.6-2.9 2" fill="#267294" fill-rule="evenodd" transform="translate(.75 1)"/><path d="m75.45 83 .05 3.75L72.55 85l2.9-2m-4.25 1.25q-2.45-1.3-5.05-2.5l9.15-7.8.1 7.45-4.2 2.85" fill="#adcce1" fill-rule="evenodd" transform="translate(.75 1)"/><path d="m76.2 84 .05 3.75L73.3 86l-1.35-.75q-2.45-1.3-5.05-2.5l9.15-7.8.1 7.45.05 1.6z" fill="none" stroke="#345265" stroke-linecap="round" stroke-linejoin="round" stroke-width="1.5"/><path d="m113.2 62.9-2.3 2.4q-2.8-.2-6.25-.05L112.2 58q.25 2.8 1 4.9" fill="#247a9d" fill-rule="evenodd" transform="translate(.75 1)"/><path d="m110.9 65.3 2.3-2.4q.6 1.65 1.55 2.85l-3.85-.45m1.3-7.3-7.55 7.25-6.6.5L112.3 49.5q-.45 4.85-.1 8.5" fill="#7ca4bd" fill-rule="evenodd" transform="translate(.75 1)"/><path d="m111.65 66.3 3.85.45q-.95-1.2-1.55-2.85-.75-2.1-1-4.9-.35-3.65.1-8.5L98.8 66.75l6.6-.5q3.45-.15 6.25.05z" fill="none" stroke="#345265" stroke-linecap="round" stroke-linejoin="round" stroke-width="1.5"/><path d="m97 9.2 6.6.45h.05q5.7 1.9 10.45 6.2l.2 3.1Q108.2 11.8 97 9.2" fill="#b3c8d9" fill-rule="evenodd" transform="translate(.75 1)"/><path d="M114.3 18.95q.35 2.65 1.35 5Q99.7 18.75 91.4 7.5q2.8 1.15 5.6 1.7 11.2 2.6 17.3 9.75" fill="#7ca4be" fill-rule="evenodd" transform="translate(.75 1)"/><path d="M103.65 9.65q5.95-.3 12-3.3-1.55 5.1-1.55 9.5-4.75-4.3-10.45-6.2" fill="#57acc1" fill-rule="evenodd" transform="translate(.75 1)"/><path d="M115.05 19.95q.35 2.65 1.35 5-15.95-5.2-24.25-16.45 2.8 1.15 5.6 1.7l6.6.45h.05q5.95-.3 12-3.3-1.55 5.1-1.55 9.5l.2 3.1z" fill="none" stroke="#345265" stroke-linecap="round" stroke-linejoin="round" stroke-width="1.5"/><path d="M122.3 29.9q-3.85 2.1-9.7 2.55l-.3-13q4 2.3 7.5 3.2 3.1 2.85 2.5 7.25" fill="#b3c8d9" fill-rule="evenodd" transform="translate(.75 1)"/><path d="m119.8 22.65 8.9-.3q-1.7 5-6.4 7.55.6-4.4-2.5-7.25" fill="#247a9d" fill-rule="evenodd" transform="translate(.75 1)"/><path d="m120.55 23.65 8.9-.3q-1.7 5-6.4 7.55-3.85 2.1-9.7 2.55l-.3-13q4 2.3 7.5 3.2z" fill="none" stroke="#345265" stroke-linecap="round" stroke-linejoin="round" stroke-width="1.5"/><path d="M121.4 44.1q1.45-2.7 1.35-6.15 3.15 2.6 6.9 4l-8.25 2.15" fill="#247a9d" fill-rule="evenodd" transform="translate(.75 1)"/><path d="m121.4 44.1-6.2.75 1.9-13.1q2.55 3.65 5.65 6.2.1 3.45-1.35 6.15" fill="#9dbed1" fill-rule="evenodd" transform="translate(.75 1)"/><path d="M123.5 38.95q-3.1-2.55-5.65-6.2l-1.9 13.1 6.2-.75 8.25-2.15q-3.75-1.4-6.9-4z" fill="none" stroke="#345265" stroke-linecap="round" stroke-linejoin="round" stroke-width="1.5"/><path d="m98.55 70.3-.25 6.75q-3.9-1.25-8.1-2l8.35-4.75" fill="#227a9e" fill-rule="evenodd" transform="translate(.75 1)"/><path d="m90.2 75.05-7.1-.85-1.05-.1L98.8 63.55l-.25 6.75-8.35 4.75" fill="#d0d1ef" fill-rule="evenodd" transform="translate(.75 1)"/><path d="m90.95 76.05-7.1-.85-1.05-.1 16.75-10.55-.25 6.75-.25 6.75q-3.9-1.25-8.1-2z" fill="none" stroke="#345265" stroke-linecap="round" stroke-linejoin="round" stroke-width="1.5"/><path d="M15.4 79.65 0 78.3l8.2-6.65 7.2 8" fill="#1e6e93" fill-rule="evenodd" transform="translate(.75 1)"/><path d="m16.15 80.65-7.2-8-8.2 6.65 15.4 1.35z" fill="none" stroke="#345265" stroke-linecap="round" stroke-linejoin="round" stroke-width="1.5"/><path d="m19.1 86.45 5.15 1.1-2.1 1.45-3.05-.5v-2.05" fill="#227a9e" fill-rule="evenodd" transform="translate(.75 1)"/><path d="M19.1 86.45v-5.4l9.45 4.2-4.3 2.3-5.15-1.1M22.15 89l-3.05 2.9v-3.4l3.05.5" fill="#80a6bd" fill-rule="evenodd" transform="translate(.75 1)"/><path d="m25 88.55 4.3-2.3-9.45-4.2V92.9L22.9 90l2.1-1.45z" fill="none" stroke="#345265" stroke-linecap="round" stroke-linejoin="round" stroke-width="1.5"/><path d="m90.9 4.95.25.35q3.15 4.2 11.95 8.5 10.7 4.05 14.35 11.05-5.05-5.1-10.95-2.4 1.15-1.75 3.6-2-3.95-3-11.75-6.55-9.8-4.75-11.75-8.6l-.1-.15-.2.15q-5.75 3.75 0 5.75 14.2 3.9 19.2 11.9l-1.6 1q-2.95-7.2-14.25-10.45-7.7-2.25-8.7-3.85.95-3.2 3.5-4.35.85-.4 1.9-.55l4.55.2M17.95 59.8q-1.7 3.6-1.05 6.4-.65 4.4 1.3 7.55-3.35 1.55-7.5 1.55 5.2-1.25 4.5-2.45-2.05-1.45-1.2-11.9-3-2.3-2.2-6.35.2-1.1.7-2.35-.3 5.85 5.45 7.55m.8 9.7 1.05.95q4.95 8.85 16.4 4.05 9.1-.05 17.15-1.8-4.9 2.1-9.8 3.2 12.35-.55 30.05-7.65l.4-.2q11.4-6.35 19.2-16.2l1.5-1.6q1.1.5 2 1.25-3.95 5.35-10.3 10.4-7.95 6.4-18.3 9.85l-7.75 2.15-1.05.25q-37.7 9.4-40.55-4.65M52.8 0H58l-4.05 1.4Q53.3.8 52.8 0m11.55 0h4.05q2.25 1.85 4.3 2.2 3 .5 4.75 1.25 1.9-1.95 4.3-3.45h4.5q-.45 1.85-.2 3.55-2.75.15-4.5 1.75-1.35 1.2-2.15 3.2-3.2-1.35-6.55-3.2-4.15-2.25-8.5-5.3m9.75 11.95-.6-.8Q70.7 7.9 65.7 5.3l-4.3-1.95-4.95-.55L61.7 1l6.45 4.3q4.35 2.6 9.1 4.6-1.85.8-3.15 2.05m1.35 1.1q1.75-2.2 4.25-2.3 4.5 3.55 14 5.85 5.35 1.4 8.05 7.65l-2.65.15q-.4-1.9-2.3-3.15-8.95-7.1-19.9-8.05l-1.45-.15M102.8 27.7q2.05 11.55-4.9 22.1-.9-.7-1.95-1.15l2.6-4.05q5.05-13.4.3-17.1l3.95.2m-3.05 23.85q4.95-8.4 4.95-19 .45-2.85.1-5.3 4.4-4.05 9.8-1.25 1.15 1.95 1.65 4.1-2.2-3.15-4.8-3.45-4.5-.65-4.5 1.85.3 11.9-3.65 19.6-1.65 2.1.2 5.7 1.1 2 .6 3.7l-1.35 1.45q-.7-4.65-3-7.4m-81 23.05q2.55 3.35 8.4 5.1 13.75 2.85 35.7-4.15-.05 4.1-1.05 6.9-1.65.2-2.85 0l.9-.95q3.2-3.75-.55-3.25-8.8 3.8-15.3 4.1-10.75.5-19.25-2.55t-10.9-2.75q2.5-.55 4.9-2.45m45.6.45q5.6-1.9 11.75-4.4Q91.35 63.9 98.5 53.5q1.9 2.8 2.3 7.45l-1.2 1.1q-.25-8.3-2.8-4.8-12.45 14.4-30.4 18.7-1.45 5-.6 5.6l-1.9.55q.7-3.05.45-7.05" fill="#7da2bc" fill-rule="evenodd" transform="translate(.75 1)"/><path d="M51.95 87.05q-25.05 4.65-41.8-9.9l3.7-.1q2.4-.3 10.9 2.75T44 82.35q6.5-.3 15.3-4.1 3.75-.5.55 3.25l-.9.95q-2.95 2.95-7 4.6M44.75 0h8.05q.5.8 1.15 1.4L48 2.4Q46.15 1.35 44.75 0M68.4 0h13.35q-2.4 1.5-4.3 3.45Q75.7 2.7 72.7 2.2q-2.05-.35-4.3-2.2m37.1 22.95q-5-8-19.2-11.9-5.75-2 0-5.75l.2-.15.1.15q1.95 3.85 11.75 8.6 7.8 3.55 11.75 6.55-2.45.25-3.6 2l-1 .5m-33.8-7.6-.05-.05q-3-4.2-10.5-9.4l-4.65-.6q-2.85-.5-5.25-1.4l5.2-1.1 4.95.55 4.3 1.95q5 2.6 7.8 5.85l.6.8q-1.5 1.4-2.4 3.4m3.75-2.3 1.45.15q10.95.95 19.9 8.05 1.9 1.25 2.3 3.15-1.75.45-3.35 2-6.2-8.35-15.3-8.75-4.35-.05-6.95-1.2.85-2.1 1.95-3.4M11.8 54.6q-.8 4.05 2.2 6.35-.85 10.45 1.2 11.9.7 1.2-4.5 2.45h-.05Q6.7 63.4 11.8 54.6m54 26.95q-.85-.6.6-5.6 17.95-4.3 30.4-18.7 2.55-3.5 2.8 4.8-11.35 10.65-33.8 19.5m38.3-24.05q.5-1.7-.6-3.7-1.85-3.6-.2-5.7 3.95-7.7 3.65-19.6 0-2.5 4.5-1.85 2.6.3 4.8 3.45 2.8 11.3-12.15 27.4M94.35 48q6.75-8.35 3.75-18l-.8-1.35q.6-.85 1.55-1.15 4.75 3.7-.3 17.1l-2.6 4.05-1.6-.65" fill="#c9deef" fill-rule="evenodd" transform="translate(.75 1)"/><path d="M86.25 0h3.1q-.15 1.85.8 3.7l-4.1-.15q-.25-1.7.2-3.55" fill="#d2e0e0" fill-rule="evenodd" transform="translate(.75 1)"/><path d="m90.15 3.7.75 1.25-4.55-.2-.3-1.2 4.1.15m27.3 21.15q1.05 2.05 1.5 4.4-2.25-2.15-4.35-3.25-5.4-2.8-9.8 1.25-.25-1.75-.9-3.3l1.6-1 1-.5q5.9-2.7 10.95 2.4m-15.7-.6.75 2.05.3 1.4-3.95-.2q.5-1.75.25-3.1l2.65-.15M97.9 49.8l1.85 1.75q2.3 2.75 3 7.4l-1.95 2q-.4-4.65-2.3-7.45l-1.8-2q-.9-.75-2-1.25-.85-.4-1.75-.65l1.4-1.6 1.6.65q1.05.45 1.95 1.15" fill="#bbc9c9" fill-rule="evenodd" transform="translate(.75 1)"/><path d="M8.2 75.15q-4.8-6.75-2-17.1 2.4-6.1 7.05-9.8-.65 2.15-.75 4-.5 1.25-.7 2.35-5.1 8.8-1.15 20.7l-2.45-.15m11.6-4.7q3.1 2.45 9.5 3.8l6.9.25q-11.45 4.8-16.4-4.05M86.85 53.2l3.5-4.1 2.6.5-1.45 1.45q-3.75 3.5-4.65 2.15m4.75-5.75.35-.5q7.35-10.25 4.4-15.75.25-1.6.95-2.55l.8 1.35q3 9.65-3.75 18l-2.75-.55m2.3-18.95q-1.2-.85-2.8-1.5l-16.25-6.65-2.35-.75 1-3.15q2.6 1.15 6.95 1.2 9.1.4 15.3 8.75l-1.85 2.1m-23.3-9.55Q52.4 12.6 42.8 5.3L41.15 4q5.05.6 10.1-.1Q49.5 3.25 48 2.4q-4.65.3-9.45-.75L37 0h7.75q1.4 1.35 3.25 2.4l5.95-1L58 0h6.35q4.35 3.05 8.5 5.3 3.35 1.85 6.55 3.2.8-2 2.15-3.2 1.75-1.6 4.5-1.75l.3 1.2q-1.05.15-1.9.55-2.55 1.15-3.5 4.35 1 1.6 8.7 3.85 11.3 3.25 14.25 10.45.65 1.55.9 3.3.35 2.45-.1 5.3 0 10.6-4.95 19L97.9 49.8q6.95-10.55 4.9-22.1l-.3-1.4-.75-2.05Q99.05 18 93.7 16.6q-9.5-2.3-14-5.85-2.5.1-4.25 2.3-.75-.35-1.35-1.1 1.3-1.25 3.15-2.05-4.75-2-9.1-4.6L61.7 1l-5.25 1.8-5.2 1.1q2.4.9 5.25 1.4l4.65.6q7.5 5.2 10.5 9.4l.05.05q-.75 1.6-1.1 3.6" fill="#effafe" fill-rule="evenodd" transform="translate(.75 1)"/><path d="m72.5 19.6-1.9-.65q.35-2 1.1-3.6.9-2 2.4-3.4.6.75 1.35 1.1-1.1 1.3-1.95 3.4l-1 3.15M41.15 4l-2.6-2.35q4.8 1.05 9.45.75 1.5.85 3.25 1.5-5.05.7-10.1.1" fill="#fdfff2" fill-rule="evenodd" transform="translate(.75 1)"/><path d="M17 45.75q1.15-.6 2.4-1.1 4.5-1.2 7.8-1-1.55.95-2.65 2.15-10.2 6.15-7.55-.05m13.5-1.45q6.2 2.35 5.55 12.7l-.2 1.55q-2.25-3.2-5.25-2.95-.3-3.15-3.4-4.3-2.05-.8 1.4-3.65l-2.7-.05q1.6-2 4.6-3.3" fill="#288aa7" fill-rule="evenodd" transform="translate(.75 1)"/><path d="m15.2 46.8 1.8-1.05q-2.65 6.2 7.55.05-1.95 2.05-2.55 4.8-2.7.8-6.6 4.85-1.55-2.85-.2-8.65" fill="#247a9d" fill-rule="evenodd" transform="translate(.75 1)"/><path d="m13.25 48.25 1.95-1.45q-1.35 5.8.2 8.65 1.1 1.9 3.55 2.45l-1 1.9q-5.75-1.7-5.45-7.55.1-1.85.75-4" fill="#c8dade" fill-rule="evenodd" transform="translate(.75 1)"/><path d="m21.7 54.3-.7.65-2.05 2.95q-2.45-.55-3.55-2.45 3.9-4.05 6.6-4.85-.4 1.7-.3 3.7" fill="#165878" fill-rule="evenodd" transform="translate(.75 1)"/><path d="m27.2 43.65 3.3.65q-3 1.3-4.6 3.3-1.9 2.2-2.05 5.35-1.05.4-2.15 1.35-.1-2 .3-3.7.6-2.75 2.55-4.8 1.1-1.2 2.65-2.15" fill="#a5cdd5" fill-rule="evenodd" transform="translate(.75 1)"/><path d="M29.3 55.85q-.05-2.25-1.8-3l-3.65.1Q24 49.8 25.9 47.6l2.7.05q-3.45 2.85-1.4 3.65 3.1 1.15 3.4 4.3l-1.3.25" fill="#16587a" fill-rule="evenodd" transform="translate(.75 1)"/><path d="m29 57.9.3-2.05 1.3-.25-.05 1.9q-.75.05-1.55.4" fill="#456071" fill-rule="evenodd" transform="translate(.75 1)"/><path d="M35.4 60.2q-1.65 4.6-6.85 4.2-4.25-1.25-1.2-4 .95-.55 1.65-2.5.8-.35 1.55-.4l-.35 1.75q-.95 3.15 1 1.7-1 4.3 4.2-.75" fill="#5098ae" fill-rule="evenodd" transform="translate(.75 1)"/><path d="M35.4 60.2q-5.2 5.05-4.2.75-1.95 1.45-1-1.7l.35-1.75q2.5-.25 4.85 2.7" fill="#59b1c7" fill-rule="evenodd" transform="translate(.75 1)"/><path d="m35.85 58.55-.45 1.65q-2.35-2.95-4.85-2.7l.05-1.9q3-.25 5.25 2.95" fill="#a9ced4" fill-rule="evenodd" transform="translate(.75 1)"/><path d="M16.9 66.2q.4 1.8 1.85 3.3 2.85 14.05 40.55 4.65l1.05-.25 7.75-2.15q10.35-3.45 18.3-9.85 6.35-5.05 10.3-10.4l1.8 2q-7.15 10.4-22.4 17.15-6.15 2.5-11.75 4.4l-1.5.5q-21.95 7-35.7 4.15-5.85-1.75-8.4-5.1l-.55-.85q-1.95-3.15-1.3-7.55m79.45-35q-.85-1.5-2.45-2.7l1.85-2.1 1.55 2.25q-.7.95-.95 2.55" fill="#dde9e7" fill-rule="evenodd" transform="translate(.75 1)"/><path d="M10.15 77.15 8.85 76l-.65-.85 2.45.15h.05q4.15 0 7.5-1.55l.55.85q-2.4 1.9-4.9 2.45l-3.7.1" fill="#e8e9eb" fill-rule="evenodd" transform="translate(.75 1)"/><path d="M100.85 64.6q-12.9 10.5-34.6 18.45l-3 1.05-2.65.85-8.65 2.1q4.05-1.65 7-4.6 1.2.2 2.85 0 1-2.8 1.05-6.9l1.5-.5q.25 4-.45 7.05l1.9-.55q22.45-8.85 33.8-19.5l1.2-1.1.05 3.65" fill="#cad1c9" fill-rule="evenodd" transform="translate(.75 1)"/><path d="M53.35 72.7q19.85-4.4 33.5-19.5.9 1.35 4.65-2.15l1.45-1.45q.9.25 1.75.65l-1.5 1.6Q85.4 61.7 74 68.05l-.4.2q-17.7 7.1-30.05 7.65 4.9-1.1 9.8-3.2" fill="#c8ddf0" fill-rule="evenodd" transform="translate(.75 1)"/><path d="M118.95 29.25q.95 4.85-.8 10.8-3.55 12.5-15.1 22.7l-.3-3.8 1.35-1.45q14.95-16.1 12.15-27.4-.5-2.15-1.65-4.1 2.1 1.1 4.35 3.25" fill="#b0b6d6" fill-rule="evenodd" transform="translate(.75 1)"/><path d="M95.75 26.4q1.6-1.55 3.35-2 .25 1.35-.25 3.1-.95.3-1.55 1.15l-1.55-2.25" fill="#e7f1f0" fill-rule="evenodd" transform="translate(.75 1)"/><path d="m90.35 49.1 1.25-1.65 2.75.55-1.4 1.6-2.6-.5" fill="#e8f1f6" fill-rule="evenodd" transform="translate(.75 1)"/><path d="m103.05 62.75-2.2 1.85-.05-3.65 1.95-2 .3 3.8" fill="#c8cbd0" fill-rule="evenodd" transform="translate(.75 1)"/><path d="M90.1 1q-.15 1.85.8 3.7l.75 1.25.25.35q3.15 4.2 11.95 8.5 10.7 4.05 14.35 11.05 1.05 2.05 1.5 4.4.95 4.85-.8 10.8-3.55 12.5-15.1 22.7l-2.2 1.85Q88.7 76.1 67 84.05l-3 1.05-2.65.85-8.65 2.1q-25.05 4.65-41.8-9.9L9.6 77l-.65-.85q-4.8-6.75-2-17.1 2.4-6.1 7.05-9.8l1.95-1.45 1.8-1.05q1.15-.6 2.4-1.1 4.5-1.2 7.8-1l3.3.65q6.2 2.35 5.55 12.7l-.2 1.55-.45 1.65q-1.65 4.6-6.85 4.2-4.25-1.25-1.2-4 .95-.55 1.65-2.5l.3-2.05q-.05-2.25-1.8-3l-3.65.1q-1.05.4-2.15 1.35l-.7.65-2.05 2.95-1 1.9q-1.7 3.6-1.05 6.4.4 1.8 1.85 3.3l1.05.95q3.1 2.45 9.5 3.8l6.9.25q9.1-.05 17.15-1.8 19.85-4.4 33.5-19.5l3.5-4.1 1.25-1.65.35-.5q7.35-10.25 4.4-15.75-.85-1.5-2.45-2.7-1.2-.85-2.8-1.5L75.6 21.35l-2.35-.75-1.9-.65Q53.15 13.6 43.55 6.3L41.9 5l-2.6-2.35L37.75 1" fill="none" stroke="#345265" stroke-linecap="round" stroke-linejoin="round" stroke-width="2"/></g><g id="f"><path d="M19.35 18.55q1.8 4 4.85 6.95 1.8 3.75.5 3.55-3.5-4.5-7-8.25l1.65-2.25M16.8 5.5l.1 2.4q.25 4.05 1.3 7.45l-2.75 3.1-2-1.95q-1.05-.75-1-3 .95-3.65 4.35-8" fill="#c9deef" fill-rule="evenodd" transform="translate(.75 .75)"/><path d="M14.15 19.9Q7 14.6.25 14.85l-.25.4v-2.1L17.05 0l-.25 5.5q-3.4 4.35-4.35 8-.05 2.25 1 3l2 1.95-1.3 1.45" fill="#7aa4bc" fill-rule="evenodd" transform="translate(.75 .75)"/><path d="M19.35 18.55 17.7 20.8l-2.25-2.35 2.75-3.1 1.15 3.2" fill="#4296ae" fill-rule="evenodd" transform="translate(.75 .75)"/><path d="m16.8 22-2.65-2.1 1.3-1.45 2.25 2.35-.9 1.2" fill="#1a425c" fill-rule="evenodd" transform="translate(.75 .75)"/><path d="M17.7 20.8q3.5 3.75 7 8.25l-2.35-1.45q-2.8-3.2-5.55-5.6l.9-1.2" fill="#4a6078" fill-rule="evenodd" transform="translate(.75 .75)"/><path d="M25.45 29.8q1.3.2-.5-3.55-3.05-2.95-4.85-6.95l-1.15-3.2q-1.05-3.4-1.3-7.45l-.1-2.4.25-5.5L.75 13.9m24.7 15.9-2.35-1.45q-2.8-3.2-5.55-5.6l-2.65-2.1Q7.75 15.35 1 15.6l-.25.4" fill="none" stroke="#345265" stroke-linecap="round" stroke-linejoin="round" stroke-width="1.5"/></g><g id="g"><path d="M25.9 0v2.1q-4.3 6.25-5.3 14.05l-8.95 6.9q-.8 1.1 1.1 2.6l2.05 2.7-.5.55q-4.2-5.6-10.7-6.7l-.85-.15.4 4-.8-2.15L0 20 25.9 0" fill="#7aa4bc" fill-rule="evenodd" transform="translate(.75 .75)"/><path d="m14.8 28.35-2.05-2.7q-1.9-1.5-1.1-2.6l8.95-6.9-.25 2.9q-.1 2.5.1 5.15-3.15 1.4-5.65 4.15m6-.65q.5 3.7 1.6 7.7-1.35 1-2.8 1.6-1.35-3.15-3.2-6.2 2.05-1.9 4.4-3.1m2.45 10.6.7 2.25q1.35 4 .35 5.05-1.05 1.05-2.45-1.8l-.05-.15-.05-.1-1.15-4 2.65-1.25" fill="#c9deef" fill-rule="evenodd" transform="translate(.75 .75)"/><path d="m20.45 24.2.35 3.5q-2.35 1.2-4.4 3.1l-1.6-2.45q2.5-2.75 5.65-4.15m1.95 11.2.85 2.9-2.65 1.25-1-2.55q1.45-.6 2.8-1.6" fill="#0a6381" fill-rule="evenodd" transform="translate(.75 .75)"/><path d="m14.3 28.9.5-.55 1.6 2.45-.55.5-1.55-2.4m5.6 11-1.4-2.5 1.1-.4 1 2.55-.7.35" fill="#1a425c" fill-rule="evenodd" transform="translate(.75 .75)"/><path d="M21.75 43.55 19.9 39.9l.7-.35 1.15 4M19.6 37l-1.1.4q-1.15-3.45-2.65-6.1l.55-.5q1.85 3.05 3.2 6.2" fill="#4a6078" fill-rule="evenodd" transform="translate(.75 .75)"/><path d="m3.15 26.05-.4-4 .85.15q6.5 1.1 10.7 6.7l1.55 2.4q1.5 2.65 2.65 6.1-1.8-3.1-3.5-5.25l-1.7-2-.65-.65Q9.4 26.25 5.9 25.95H4.55l-1.35.2-.05-.1" fill="#b0b6d6" fill-rule="evenodd" transform="translate(.75 .75)"/><path d="m26.65.75-25.9 20m20.6-3.85q1-7.8 5.3-14.05m-5.45 22.1.35 3.5q.5 3.7 1.6 7.7l.85 2.9.7 2.25q1.35 4 .35 5.05-1.05 1.05-2.45-1.8l-.05-.15-.05-.1-1.85-3.65-1.4-2.5q-1.8-3.1-3.5-5.25l-1.7-2-.65-.65Q10.15 27 6.65 26.7H5.3l-1.35.2m17.25-1.95q-.2-2.65-.1-5.15l.25-2.9" fill="none" stroke="#345265" stroke-linecap="round" stroke-linejoin="round" stroke-width="1.5"/></g><g id="h"><path d="m20.4 0 2.35 3.9.8 2.15v.1q-1.1 1.5-1.2 4-7.65 2.55-7.9 4.6l2.9 1.6q-.65.7-1.15 1.5-7.8-4.3-13.5 3.25L0 15.7 20.4 0" fill="#7aa4bc" fill-rule="evenodd" transform="translate(.75 .75)"/><path d="m23.55 6.05.05.1h-.05v-.1m-4.3 13.8-1.15-.45-2.5-.7q-5.6-1.2-8.2 2.5H2.75l-.05-.1q5.7-7.55 13.5-3.25l2.1 1.3.95.7" fill="#b0b6d6" fill-rule="evenodd" transform="translate(.75 .75)"/><path d="m22.45 12.05.55 3q-1.95 1.25-3.45 2.75l-2.2-1.45q2.1-2.4 5.1-4.3" fill="#4296ae" fill-rule="evenodd" transform="translate(.75 .75)"/><path d="m22.35 10.15.1 1.9q-3 1.9-5.1 4.3l-2.9-1.6q.25-2.05 7.9-4.6m.65 4.9q.85 3.6 3.05 8.45l-.9-.55q-2.75-3.05-5.6-5.15 1.5-1.5 3.45-2.75" fill="#c9deef" fill-rule="evenodd" transform="translate(.75 .75)"/><path d="M16.2 17.85q.5-.8 1.15-1.5l2.2 1.45-1.25 1.35-2.1-1.3" fill="#1a425c" fill-rule="evenodd" transform="translate(.75 .75)"/><path d="M25.15 22.95q-3.2-2-5.9-3.1l-.95-.7 1.25-1.35q2.85 2.1 5.6 5.15" fill="#4a6078" fill-rule="evenodd" transform="translate(.75 .75)"/><path d="M24.35 6.9h-.05q-1.1 1.5-1.2 4l.1 1.9.55 3q.85 3.6 3.05 8.45l-.9-.55q-3.2-2-5.9-3.1l-1.15-.45-2.5-.7q-5.6-1.2-8.2 2.5m-4.65 0-.05-.1-2.7-5.4L21.15.75" fill="none" stroke="#345265" stroke-linecap="round" stroke-linejoin="round" stroke-width="1.5"/></g><g id="i"><path d="M17.25 30.75q-2.7 3-4.6 6.2-5.3 7.6-8.7 6.2-1.9-.85-3.2-4.55-.6-3.55-.75-10.8 2.75 1.45 6.6 1.1-.15 6.45 5.1 4.5 2.35-.7 5.55-2.65" fill="#c9deef" fill-rule="evenodd" transform="translate(.75 .75)"/><path d="M45.7 5.1q3.45 1.45-2.1 6.05l-.9-3.45 3-2.6M26.85 22.3l-.4-2.25L36.8 12.5l.95 2.85-4.55 2.85q-3 1.8-6.35 4.1m-6.95 1.75.7 3.35-3.35 3.35q-3.2 1.95-5.55 2.65-5.25 1.95-5.1-4.5 5.5-.55 13.3-4.85" fill="#ecfafd" fill-rule="evenodd" transform="translate(.75 .75)"/><path d="m42.7 7.7.9 3.45-5.85 4.2-.95-2.85 5.9-4.8" fill="#5cb2c1" fill-rule="evenodd" transform="translate(.75 .75)"/><path d="m43.6 11.15.8 2.95-5.7 4.15-.95-2.9 5.85-4.2m-17.15 8.9.4 2.25q-3.45 2.45-6.25 5.1l-.7-3.35q3.1-1.7 6.55-4" fill="#006883" fill-rule="evenodd" transform="translate(.75 .75)"/><path d="M20.6 27.4q2.8-2.65 6.25-5.1l.35 4.1q-3.25 1.9-6.15 4.2l-.45-3.2" fill="#004562" fill-rule="evenodd" transform="translate(.75 .75)"/><path d="M26.85 22.3q3.35-2.3 6.35-4.1l4.55-2.85.95 2.9-1.05.7q-4 2.9-7.45 5.75l-3 1.7-.35-4.1" fill="#7ea4bb" fill-rule="evenodd" transform="translate(.75 .75)"/><path d="M43.6 11.15q5.55-4.6 2.1-6.05L51.45 0q3.75 5.45-7.05 14.1l-.8-2.95" fill="#acebf4" fill-rule="evenodd" transform="translate(.75 .75)"/><path d="m27.2 26.4 3-1.7-3.05 2.6.05-.9m-6.15 4.2.1 2.45Q12.55 42 7.7 53.75l-1.3-5.2q5.4-10.7 14.65-17.95" fill="#a3a8c8" fill-rule="evenodd" transform="translate(.75 .75)"/><path d="m20.6 27.4.45 3.2Q11.8 37.85 6.4 48.55l-2.45-5.4q3.4 1.4 8.7-6.2 1.9-3.2 4.6-6.2l3.35-3.35" fill="#7ba3bc" fill-rule="evenodd" transform="translate(.75 .75)"/><path d="m21.15 33.05-.1-2.45q2.9-2.3 6.15-4.2l-.05.9q-3.3 2.9-6 5.75" fill="#666d7f" fill-rule="evenodd" transform="translate(.75 .75)"/><path d="m46.45 5.85-3 2.6-5.9 4.8L27.2 20.8q-3.45 2.3-6.55 4-7.8 4.3-13.3 4.85-3.85.35-6.6-1.1m44.4-13.7Q55.95 6.2 52.2.75l-5.75 5.1m-15.5 19.6q3.45-2.85 7.45-5.75l1.05-.7 5.7-4.15M21.9 33.8q2.7-2.85 6-5.75l3.05-2.6M21.9 33.8q-8.6 8.95-13.45 20.7" fill="none" stroke="#345265" stroke-linecap="round" stroke-linejoin="round" stroke-width="1.5"/></g><g id="j"><path d="m40.3 4 6.4-4q3.15 5.35-3.85 8.75-1.65-2-2.55-4.75" fill="#bef8fc" fill-rule="evenodd" transform="translate(.75 .75)"/><path d="m42.85 8.75-3.15 1.3-.75-1-.35-.65q-.75-1.3-1-2.9L40.3 4q.9 2.75 2.55 4.75m-14.8.7 2.35-.8.25 1.95-2.5.8q-.2-.95-.1-1.95" fill="#3998ac" fill-rule="evenodd" transform="translate(.75 .75)"/><path d="M30.4 8.65q3.5-1.25 7.2-3.15.25 1.6 1 2.9-3.95.95-7.95 2.2l-.25-1.95" fill="#ebfafd" fill-rule="evenodd" transform="translate(.75 .75)"/><path d="M7 26.95 1.55 9.8q6.7 9.85 19.1 4.25l7.5-2.65.2.8Q14.4 17.35 7 26.95M30.85 11.3l-.2-.7q4-1.25 7.95-2.2l.35.65q-4.3.95-8.1 2.25" fill="#cbdeef" fill-rule="evenodd" transform="translate(.75 .75)"/><path d="M29.1 13.6q-15 6.6-19.55 21.35l-2.55-8q7.4-9.6 21.35-14.75l.75 1.4" fill="#7da3ba" fill-rule="evenodd" transform="translate(.75 .75)"/><path d="m31.4 12.65-2.3.95-.75-1.4q1.2-.5 2.5-.9l.55 1.35" fill="#08415e" fill-rule="evenodd" transform="translate(.75 .75)"/><path d="m39.7 10.05-2 .6q-3.35.85-6.3 2l-.55-1.35q3.8-1.3 8.1-2.25l.75 1" fill="#698ca2" fill-rule="evenodd" transform="translate(.75 .75)"/><path d="m28.35 12.2-.2-.8 2.5-.8.2.7q-1.3.4-2.5.9" fill="#046985" fill-rule="evenodd" transform="translate(.75 .75)"/><path d="M1.55 9.8 0 4.9q11.85 9.45 28.05 4.55-.1 1 .1 1.95l-7.5 2.65q-12.4 5.6-19.1-4.25" fill="#eef9fd" fill-rule="evenodd" transform="translate(.75 .75)"/><path d="m41.05 4.75 6.4-4Q50.6 6.1 43.6 9.5l-3.15 1.3-2 .6q-3.35.85-6.3 2l-2.3.95q-15 6.6-19.55 21.35M.75 5.65Q12.6 15.1 28.8 10.2l2.35-.8q3.5-1.25 7.2-3.15l2.7-1.5" fill="none" stroke="#345265" stroke-linecap="round" stroke-linejoin="round" stroke-width="1.5"/></g><g id="k"><path d="m43.8 6.75 2.15-.2q2.6 1.15-.05 3.5l-5.95.85V8.65h1.65q4.85-.4 2.2-1.9m-6.35 4.3-1.85.1q-3.95.4-7.35 1.4l-.1-2.85q4.35-.9 9.4-1.05l-.1 2.4m-12.55 2.7q-7.2 3-18.15 19.15L5.7 20.95Q16 13 24.85 10.5l.05 3.25" fill="#7ba3bc" fill-rule="evenodd" transform="translate(.75 .75)"/><path d="M43.8 6.75q2.65 1.5-2.2 1.9h-1.65V7.1l3.85-.35M5.7 20.95Q4.35 10.45 0 0q10.5 7.7 24.8 8.2l.05 2.3Q16 13 5.7 20.95M28.1 8.2l9.45-.85v1.3q-5.05.15-9.4 1.05l-.05-1.5" fill="#dee3f3" fill-rule="evenodd" transform="translate(.75 .75)"/><path d="M24.8 8.2h3.3l.05 1.5-3.3.8-.05-2.3m12.75-.85 2.4-.25v1.55h-2.4v-1.3" fill="#05587a" fill-rule="evenodd" transform="translate(.75 .75)"/><path d="M39.95 8.65v2.25l-2.5.15.1-2.4h2.4" fill="#5a9dae" fill-rule="evenodd" transform="translate(.75 .75)"/><path d="m28.25 12.55-3.35 1.2-.05-3.25 3.3-.8.1 2.85" fill="#014260" fill-rule="evenodd" transform="translate(.75 .75)"/><path d="m40.7 11.65 5.95-.85q2.65-2.35.05-3.5l-2.15.2-3.85.35-2.4.25-9.45.85h-3.3Q11.25 8.45.75.75 5.1 11.2 6.45 21.7L7.5 33.65Q18.45 17.5 25.65 14.5L29 13.3q3.4-1 7.35-1.4l1.85-.1 2.5-.15z" fill="none" stroke="#345265" stroke-linecap="round" stroke-linejoin="round" stroke-width="1.5"/></g><g id="l"><path d="m106.5 37.45-19.6 11.2v-37h1.4l2.2-.6.05.05.15.15q4.25 3.6 4.95 9.25-.35 8.9 4.55 6.35 2.35-1.6 2.1-6.2 1.1-12.85 6.35-15.15.2 1.1-.15 2.35-5.05 20.8-2 29.6" fill="#7da2bc" fill-rule="evenodd" transform="translate(1 1)"/><path d="M90.5 11.05Q95.3 8.95 101.9 0q4.05 1.35 5.7 3.35-8.7 13.45-16.9 7.9l-.15-.15-.05-.05" fill="#effafc" fill-rule="evenodd" transform="translate(1 1)"/><path d="M107.6 3.35q.8 1 1.05 2.15-5.25 2.3-6.35 15.15.25 4.6-2.1 6.2-4.9 2.55-4.55-6.35-.7-5.65-4.95-9.25 8.2 5.55 16.9-7.9" fill="#c8ddee" fill-rule="evenodd" transform="translate(1 1)"/><path d="M87.9 12.65h1.4l2.2-.6Q96.3 9.95 102.9 1q4.05 1.35 5.7 3.35.8 1 1.05 2.15.2 1.1-.15 2.35-5.05 20.8-2 29.6" fill="none" stroke="#345265" stroke-linecap="round" stroke-linejoin="round" stroke-width="2"/><path d="M127.2 97.35v.1l1.15 3.15 7 17.5q1.55 3.8 2.45 7.65l-3 .25q-1.35-9.05-7.05-20-1.4-2.9-2.45-5.85.4-3 1.9-2.8" fill="#abb1d1" fill-rule="evenodd" transform="translate(1 1)"/><path d="m137.8 125.75.55 2.7q-21.35.8-47.2 12.25l.55-2.6q18.35-9.75 43.1-12.1l3-.25m-78.2 114.7.75 1.25-4.55-.2-.3-1.2 4.1.15M110.3 99.4l.55 1.1q-8.3 1.65-14.2 7.1l.3-2.7q5.8-4.85 13.35-5.5m5.6.45.05-.35 2.05.25-2.1.1" fill="#bbc9c9" fill-rule="evenodd" transform="translate(1 1)"/><path d="m122.35 72.7 1.65 4.35q.05 10.6 3.2 20.3-1.5-.2-1.9 2.8-4.7-15-2.95-27.45" fill="#a1a8c5" fill-rule="evenodd" transform="translate(1 1)"/><path d="M60 58.45q16.7-22.15 33.55-13l25.5 18.45 3.3 8.8q-1.75 12.45 2.95 27.45 1.05 2.95 2.45 5.85 5.7 10.95 7.05 20-24.75 2.35-43.1 12.1l.45-2.8q2.55-11.1 4.5-27.7 5.9-5.45 14.2-7.1 1.35 2.7 2.2 2.6h1.05q1.35-1.25 1.8-3.25l2.1-.1-2.05-.25q.45-2.9-.9-7.2-2.4-7.8-8.6-18Q95.2 57.7 82.7 58.1q12.05 14.2 16.7 36.4 2.7-3.15 5.35-2.35 2.95 1.2 5.05 6.15l.5 1.1q-7.55.65-13.35 5.5-.5-19.15-6.7-31.6-6.35-11.7-12-16.3-3.65-2.6-1.95-.2Q96.05 78 94.8 107.45q-5.15-6.05-10.25-8.3.75-1.15 4.15-.65l2.65-.3q2.15-4.1-2.9-16.8-9.7-27.95-24.35-21.55-1.85-.9-4.1-1.4m78.35 70q1.9 11.4-2.05 23.4-1.95 5.95-5.35 12.1-14.2-2.05-17 10.15Q102 158.6 79.9 160.9l3.05-3.2q5.45-4.85 8.2-17 25.85-11.45 47.2-12.25m-8.5 37.5-2.75 4.4q-5.35-2.85-8.8 3.05-3.9 8.65-10.2 14.2-23.35 26.2-46.05 39.5 7.35-20.9 20.1-18 11.85-31.45 32.6-31.2 1.7-13.15 15.1-11.95m-69.5 75.75.25.35h-4.55l-.1-.15-.2.15H53.9l1.9-.55 4.55.2m-9.35.35h-8.7q-4.15-2.25-8.5-5.3l-2.05-1.45-1.35-.95q-5.35-4.65.35-16.85 2.4-3.55 4.9-5.7 1.4-1.3 2.9-2.1 7.45-3.4 16.4 6.15 4.45 6.9 2.6 16.65l-1 1.85-.85 2.4q-.45 1.85-.2 3.55-2.75.15-4.5 1.75m-13.4 0h-2.45l-4.3-1.95-4.95-.55 5.25-1.8 6.45 4.3M75.55 132.1l.4-1.25q7.75 2.05 11.4 12.25-2.15 8.4-10.35 17.65-2.15-7.2-7.05-12.15l.05-.05q2.7.85 4.95 4.15 4.1 3.3 7.5-3.2 3.3-9.05-2.1-12.7-4.45-3.4-4.8-4.7m.4 29.8q-6.9 7.6-17.8 23.2-1.6-11.9-26.85 2l-1.7-.4q17.1-11.65 27.65-7 2.45.65 7.5-7.4 10.55-14.75 2.85-21.25l.6-.55q5.15 4.2 7.75 11.4m8.4-60.15q5.2 2.5 10.25 8.5-1.1 14.3-7 30.5-2.95-9.5-10.95-11.85.8-1.65 1.5-1.4 7.2 3.8 9.2.2 4.25-16.45 0-21.7-2.55-2.1-3-4.25m-23.6 84.15 6.6-9.4q3.9-6 10.3-13.1h.05q22.5-4.4 33.85 12.5-22.85 5.3-29.75 29.45-6.6-17.6-21.05-19.45M110.4 114q-.75-10.8-4.8-9-8.75 2.95-8.15 11.25-.3 8.55-1.7 12.2-2.3 4.85 1.15 5.05 6.95-1.75 12.4-5.6 2.55-4.2 1.1-13.9m-23.45 41.85q-1.9 2.5 11.4 3.25 6.35 1.3 11.5 5.65 4.85 4.15 7-9.45.8-17.8-7.8-17.15-11.7-.1-14.8 3.95-1.8 6.35-7.3 13.75m-3.3 9.45q-11.5 5.75-16.2 15.8-1.7 3.85 3 4.8 4.1 1.35 10.1 11.3 1.9 2.5 3.75-4.15 3.4-8 19.25-20.55-.75-2.35-4.75-4.2-9.35-4.6-15.15-3M9.7 203.6q7.95 16.05 28.5-.7 5.95-5.6 10.75-12.4 5.8-8.3-7.55-6.5l-2.65.45q20.1-6.55 17.8 3.05-10.95 14.55-24 23.4-10.15 4.8-18.2 2-9.65-3.25-6.3-13.35.75 2.2 1.65 4.05m59.95-10.05q-6.95-4.45-8.9-2.45-8.4 6.5-13.8 14.3-.85 1.05 4 1.5 3.35 1 9.1 7.9 1.7 1.7 6.4-3.5 5.35-5.75 7.3-5.9 2.7-.55 2-4.7-1.9-4.1-6.1-7.15M39.3 207.8q10.4-7.8 20.05-20.1l.1-.15q15.95 2.65 21.3 19.15-8.75-1.55-20.6 16-4.85-16.9-20.85-14.9m13.35 8.8q-3.95-4.15-8.75-4.15t-8.2 3.8q-3.35 3.8-3.35 9.2 0 5.2 3.1 8.9l.25.3 2.15 2.1q2.25 1.85 4.3 2.2 3 .5 4.75 1.25 1.9-1.95 4.3-3.45 1.1-.7 2.35-1.3l.15-1.1q.45-4.15 1.65-8.55 1.3-5.05-2.7-9.2M23.4 238.15q-.65-.6-1.15-1.4-.65-1.05-.95-2.4-1.3-5.25 2.15-15.15-6.2-.7-10.35-4.2l-1.55-1.45q9.35 4.8 18.35.7-7.05 13.55-2.6 20.1l1.55 1.8-1.4.6-4.05 1.4" fill="#7da2bc" fill-rule="evenodd" transform="translate(1 1)"/><path d="M53.9 242.05H51q1.75-1.6 4.5-1.75l.3 1.2-1.9.55m-11.6 0h-4.7l-6.45-4.3-5.25 1.8-5.2 1.1q2.4.9 5.25 1.4h-13.7l-1.65-1.3q5.05.6 10.1-.1l-3.25-1.5q-4.65.3-9.45-.75l-1.55-1.65-1.85-2.4L3 231.6q-5.85-10.3.45-23.95 1.8-3.9 4.6-8.1 3.85-5.8 9.65-12.05 6.65-1.9 11.9-.8l1.7.4q25.25-13.9 26.85-2 10.9-15.6 17.8-23.2l1.05-1.15q8.2-9.25 10.35-17.65-3.65-10.2-11.4-12.25l-.4 1.25q.85 9.05-5.55 16.45l-.65-.5-1.35-1.2-1.2-.95q3.1-4.9 3.2-15.55v-2.25h.25q6.7-.35 8.25-4.45 4.1-10.7-.05-18.35-1.3-2.5-.7-5.3.2-1.05.7-2.15Q84 90 81.7 84.1q-2.3-5.85-10.8-6.55 1.75-11.85-4.95-16.6 7.2-.7 9.9 9.3Q89.8 80.45 83.9 96.6q-.5.95-.75 2l1.4.55q5.1 2.25 10.25 8.3Q96.05 78 76.3 56.8q-1.7-2.4 1.95.2 5.65 4.6 12 16.3 6.2 12.45 6.7 31.6l-.3 2.7q-1.95 16.6-4.5 27.7l-.45 2.8-.55 2.6q-2.75 12.15-8.2 17l-3.05 3.2-2.2 2.5h-.05q-6.4 7.1-10.3 13.1l-6.6 9.4-1.3 1.65-.1.15Q49.7 200 39.3 207.8l-3.65 4q-2.5 2.15-4.9 5.7-5.7 12.2-.35 16.85l1.35.95 2.05 1.45q4.35 3.05 8.5 5.3m-6.4-71.75q7.6-6.45 16.85-13.35-2.3-9.7 6.45-6.95 3.3.05 5.6-1.8 1.8 1 3.4 2.3l-.6.55q-2.3 2.15-5.2 4.1-17.15 32.75-26.5 15.15m42.25-42.8q-.7-.25-1.5 1.4 8 2.35 10.95 11.85 5.9-16.2 7-30.5-5.05-6-10.25-8.5l-1.65-.7q.15 2.6 1.7 6.05 5.55 13.65-6.25 20.4M9.7 203.6q-.9-1.85-1.65-4.05-3.35 10.1 6.3 13.35 8.05 2.8 18.2-2 13.05-8.85 24-23.4 2.3-9.6-17.8-3.05l2.65-.45q.5 2.95-9.55 14.95-12.1 13.55-22.15 4.65m3.4 11.4q-3.2 3.75-3.9 8.3-.65 4.6 1.4 8.7.6 1.25 1.45 2.35.9 1.3 2.15 2.4 1.4 1.35 3.25 2.4l5.95-1 4.05-1.4 1.4-.6-1.55-1.8q-4.45-6.55 2.6-20.1-9 4.1-18.35-.7L13.1 215" fill="#effafe" fill-rule="evenodd" transform="translate(1 1)"/><path d="M56.05 242.05h-.3l.2-.15.1.15m-20.9 0h-9.2q-2.85-.5-5.25-1.4l5.2-1.1 4.95.55 4.3 1.95M17.7 187.5q7.45-8.2 18.2-17.2 9.35 17.6 26.5-15.15 2.9-1.95 5.2-4.1 7.7 6.5-2.85 21.25-5.05 8.05-7.5 7.4-10.55-4.65-27.65 7-5.25-1.1-11.9.8M65.95 60.95q-.85-.6-1.85-1.1 14.65-6.4 24.35 21.55 5.05 12.7 2.9 16.8l-2.65.3q-3.4-.5-4.15.65l-1.4-.55q.25-1.05.75-2 5.9-16.15-8.05-26.35-2.7-10-9.9-9.3M110.3 99.4l-.5-1.1q-2.1-4.95-5.05-6.15-2.65-.8-5.35 2.35-4.65-22.2-16.7-36.4 12.5-.4 23.75 16.2 6.2 10.2 8.6 18 1.35 4.3.9 7.2l-.05.35q-.45 2-1.8 3.25h-1.05q-.85.1-2.2-2.6l-.55-1.1m-25.95 2.35q.45 2.15 3 4.25 4.25 5.25 0 21.7-2 3.6-9.2-.2 11.8-6.75 6.25-20.4-1.55-3.45-1.7-6.05l1.65.7m-8.8 30.35q.35 1.3 4.8 4.7 5.4 3.65 2.1 12.7-3.4 6.5-7.5 3.2-2.25-3.3-4.95-4.15 6.4-7.4 5.55-16.45M110.4 114q1.45 9.7-1.1 13.9-5.45 3.85-12.4 5.6-3.45-.2-1.15-5.05 1.4-3.65 1.7-12.2-.6-8.3 8.15-11.25 4.05-1.8 4.8 9m-23.45 41.85q5.5-7.4 7.3-13.75 3.1-4.05 14.8-3.95 8.6-.65 7.8 17.15-2.15 13.6-7 9.45-5.15-4.35-11.5-5.65-13.3-.75-11.4-3.25m-3.3 9.45q5.8-1.6 15.15 3 4 1.85 4.75 4.2-15.85 12.55-19.25 20.55-1.85 6.65-3.75 4.15-6-9.95-10.1-11.3-4.7-.95-3-4.8 4.7-10.05 16.2-15.8m-14 28.25q4.2 3.05 6.1 7.15.7 4.15-2 4.7-1.95.15-7.3 5.9-4.7 5.2-6.4 3.5-5.75-6.9-9.1-7.9-4.85-.45-4-1.5 5.4-7.8 13.8-14.3 1.95-2 8.9 2.45M41.4 184q13.35-1.8 7.55 6.5-4.8 6.8-10.75 12.4-20.55 16.75-28.5.7 10.05 8.9 22.15-4.65 10.05-12 9.55-14.95m11.25 32.6q4 4.15 2.7 9.2-1.2 4.4-1.65 8.55l-.15 1.1q-1.25.6-2.35 1.3-2.4 1.5-4.3 3.45-1.75-.75-4.75-1.25-2.05-.35-4.3-2.2l-2.15-2.1-.25-.3q-3.1-3.7-3.1-8.9 0-5.4 3.35-9.2 3.4-3.8 8.2-3.8 4.8 0 8.75 4.15M23.4 238.15l-5.95 1q-1.85-1.05-3.25-2.4-1.25-1.1-2.15-2.4-.85-1.1-1.45-2.35-2.05-4.1-1.4-8.7.7-4.55 3.9-8.3 4.15 3.5 10.35 4.2-3.45 9.9-2.15 15.15.3 1.35.95 2.4.5.8 1.15 1.4" fill="#c9deef" fill-rule="evenodd" transform="translate(1 1)"/><path d="m130.95 163.95-1.1 2q-13.4-1.2-15.1 11.95-20.75-.25-32.6 31.2-12.75-2.9-20.1 18-1 2.85-1.9 6.15l-.65 1.1q-.6 1.2-.7 2.4-.15 1.85.8 3.7l-4.1-.15q-.25-1.7.2-3.55l.85-2.4 1-1.85q1.85-9.75-2.6-16.65-8.95-9.55-16.4-6.15-1.5.8-2.9 2.1l3.65-4q16-2 20.85 14.9 11.85-17.55 20.6-16-5.35-16.5-21.3-19.15l1.3-1.65q14.45 1.85 21.05 19.45 6.9-24.15 29.75-29.45Q100.2 159 77.7 163.4l2.2-2.5q22.1-2.3 34.05 13.2 2.8-12.2 17-10.15M64.8 148.2q1.1-.95 2-2.3l1.2.95 1.35 1.2.65.5-.05.05q4.9 4.95 7.05 12.15l-1.05 1.15q-2.6-7.2-7.75-11.4-1.6-1.3-3.4-2.3" fill="#d2e0e0" fill-rule="evenodd" transform="translate(1 1)"/><path d="M127.1 170.35q-4.45 6.7-10.6 13.7-17.6 24.75-53.45 46.15-1.85 1.5-2.9 3.05.9-3.3 1.9-6.15 22.7-13.3 46.05-39.5 6.3-5.55 10.2-14.2 3.45-5.9 8.8-3.05" fill="#b0b6d6" fill-rule="evenodd" transform="translate(1 1)"/><path d="M10.6 240.75 8 238.4q4.8 1.05 9.45.75l3.25 1.5q-5.05.7-10.1.1" fill="#fdfff2" fill-rule="evenodd" transform="translate(1 1)"/><path d="M125 78.05q.05 10.6 3.2 20.3v.1l1.15 3.15 7 17.5q1.55 3.8 2.45 7.65l.55 2.7q1.9 11.4-2.05 23.4-1.95 5.95-5.35 12.1l-1.1 2-2.75 4.4q-4.45 6.7-10.6 13.7-17.6 24.75-53.45 46.15-1.85 1.5-2.9 3.05l-.65 1.1q-.6 1.2-.7 2.4-.15 1.85.8 3.7l.75 1.25.25.35m-48.35 0-1.65-1.3L9 239.4l-1.55-1.65-1.85-2.4L4 232.6q-5.85-10.3.45-23.95 1.8-3.9 4.6-8.1 3.85-5.8 9.65-12.05 7.45-8.2 18.2-17.2 7.6-6.45 16.85-13.35-2.3-9.7 6.45-6.95 3.3.05 5.6-1.8 1.1-.95 2-2.3 3.1-4.9 3.2-15.55v-2.25m.25 0q6.7-.35 8.25-4.45 4.1-10.7-.05-18.35-1.3-2.5-.7-5.3.2-1.05.7-2.15Q85 91 82.7 85.1q-2.3-5.85-10.8-6.55 1.75-11.85-4.95-16.6-.85-.6-1.85-1.1-1.85-.9-4.1-1.4" fill="none" stroke="#345265" stroke-linecap="round" stroke-linejoin="round" stroke-width="2"/><path d="M54.2 155.8q-5 2.5-8.35 5.7-3.4 6.6-7.6 11.4-10.9 14.15-24.35 20.55-10.4 9.6-10.6 16.65-.05 1.65.45 3.15.05 1.65.45 3.45-2.3-.05-3.35-1.25-3.25-3.85 5.8-19.2 16.4-22.4 33.75-33.5 10-7.1 16.1-9.95l.45 1.15-2.5 1.7-.25.15" fill="#a7bdf7" fill-rule="evenodd" transform="translate(1 1)"/><path d="M3.75 213.25q-.5-1.5-.45-3.15.2-7.05 10.6-16.65 13.45-6.4 24.35-20.55 4.2-4.8 7.6-11.4 3.35-3.2 8.35-5.7-4.4 3.15-6.5 6.35-1.65 11.1-24.2 29.9l1.05 1.45q-3 .25-5.5 2.05 2.25 1.25 3 2.7-3.25-1.4-6.35-1.15 1.75 2.65 2.2 4.9-2.5-2.9-5.6-3.65 1.2 5.6 0 7.25l-1.95-4.85q-7 4.4-6.6 12.5" fill="#8aa3e6" fill-rule="evenodd" transform="translate(1 1)"/><path d="m54.2 155.8.25-.15 2.5-1.7-.05 1.65q-2.05 9.3-14.05 23.8l-1.2 1.4-1.35 1.5v.05q-26.15 29.6-36.55 30.9-.4-8.1 6.6-12.5l1.95 4.85q1.2-1.65 0-7.25 3.1.75 5.6 3.65-.45-2.25-2.2-4.9 3.1-.25 6.35 1.15-.75-1.45-3-2.7 2.5-1.8 5.5-2.05l-1.05-1.45q22.55-18.8 24.2-29.9 2.1-3.2 6.5-6.35" fill="#536bab" fill-rule="evenodd" transform="translate(1 1)"/><path d="M4.2 216.7q-.4-1.8-.45-3.45 10.4-1.3 36.55-30.9v-.05l.1-.05Q19.3 212.65 8.65 216l-4.45.7" fill="#3b4d7d" fill-rule="evenodd" transform="translate(1 1)"/><path d="m57.95 154.95-.45-1.15q-6.1 2.85-16.1 9.95-17.35 11.1-33.75 33.5-9.05 15.35-5.8 19.2" fill="none" stroke="#212d45" stroke-linecap="round" stroke-linejoin="round" stroke-width="2"/><path d="M.85 215.45q1.05 1.2 3.35 1.25l4.45-.7q10.65-3.35 31.75-33.75l1.25-1.45 1.2-1.4q12-14.5 14.05-23.8l.05-1.65" fill="none" stroke="#212d45" stroke-linecap="round" stroke-linejoin="round" transform="translate(1 1)"/></g><g id="m"><path d="m29.6 32.9 2.75-3.4q4.15-5.2 8.85-10.75.95 1.95 2.15 3.4-5.35 6.4-10.4 14.55l-.7 1.3q-1.75-2.1-2.65-5.1m15.55-18.8 3.4-3.95q3.25 1.7-1.2 7.35-1.1-1.35-2.2-3.4" fill="#c6f9fd" fill-rule="evenodd" transform="translate(.5 .75)"/><path d="m41.2 18.75 3.95-4.65q1.1 2.05 2.2 3.4l-1.95 2.25-2.05 2.4q-1.2-1.45-2.15-3.4" fill="#64bbc5" fill-rule="evenodd" transform="translate(.5 .75)"/><path d="m24.4 39.05 5.2-6.15q.9 3 2.65 5.1l-3.85 6.6q-2.2-2.25-4-5.55" fill="#2f8fa5" fill-rule="evenodd" transform="translate(.5 .75)"/><path d="M35.65 40.9Q34 44.25 32.5 47.75q-2.2-1.15-4.1-3.15l3.85-6.6q1.4 1.75 3.4 2.9" fill="#025b7b" fill-rule="evenodd" transform="translate(.5 .75)"/><path d="m47.35 17.5 1.35 1.3-3.35 5.35-2-2 2.05-2.4 1.95-2.25" fill="#2e869e" fill-rule="evenodd" transform="translate(.5 .75)"/><path d="m37.75 41.85-3.1 6.85-2.15-.95q1.5-3.5 3.15-6.85l2.1.95" fill="#02435f" fill-rule="evenodd" transform="translate(.5 .75)"/><path d="M48.7 18.8q.6.45 1.15.7l-3.35 5.4-1.15-.75 3.35-5.35" fill="#438a9e" fill-rule="evenodd" transform="translate(.5 .75)"/><path d="M58.95.3q.6 1.6-3.6 11.25l-.75 1.5q-2.4 2.9-4.75 6.45-.55-.25-1.15-.7l3.05-4.8Q56.2 7.25 58.95.3m-15.6 21.85 2 2-4.8 7.45q-2.6 4.5-4.9 9.3-2-1.15-3.4-2.9l.7-1.3q5.05-8.15 10.4-14.55" fill="#c9deef" fill-rule="evenodd" transform="translate(.5 .75)"/><path d="M48.55 10.15 54.8 3q3.65-4 4.15-2.7-2.75 6.95-7.2 13.7l-3.05 4.8-1.35-1.3q4.45-5.65 1.2-7.35" fill="#b3f7fa" fill-rule="evenodd" transform="translate(.5 .75)"/><path d="m54.6 13.05-3.4 6.7-2.85 5.85q-4.4 9-7.75 17l-2.85-.75 2.1-4.25q3.25-7 6.65-12.7l3.35-5.4q2.35-3.55 4.75-6.45m-16.7 36.2Q28.4 73.4 28.8 86.9q-4.95-13 5.85-38.2l3.25.55" fill="#aab8d2" fill-rule="evenodd" transform="translate(.5 .75)"/><path d="M28.8 86.9Q-2.55 79.1.25 56.35q5.15 1.15 14.85-7.7Q9.25 56 6.3 62.35q-3.25 6.9 9.6 11.15 7.6 1.2 10.05-8 2.9-9.3 6.55-17.75l2.15.95q-10.8 25.2-5.85 38.2" fill="#7ba4ba" fill-rule="evenodd" transform="translate(.5 .75)"/><path d="m40.6 42.6-2.7 6.65-3.25-.55 3.1-6.85 2.85.75" fill="#7d91b2" fill-rule="evenodd" transform="translate(.5 .75)"/><path d="M46.5 24.9q-3.4 5.7-6.65 12.7l-2.1 4.25-2.1-.95q2.3-4.8 4.9-9.3l4.8-7.45 1.15.75" fill="#7da7bf" fill-rule="evenodd" transform="translate(.5 .75)"/><path d="m15.1 48.65 1.9-1.8Q9.8 57.05 8.9 61.9q.4 3.9 5.35 2.2 4.25-2.9 14.15-19.5 1.9 2 4.1 3.15-3.65 8.45-6.55 17.75-2.45 9.2-10.05 8-12.85-4.25-9.6-11.15 2.95-6.35 8.8-13.7" fill="#c8ddee" fill-rule="evenodd" transform="translate(.5 .75)"/><path d="m17 46.85 7.4-7.8q1.8 3.3 4 5.55-9.9 16.6-14.15 19.5-4.95 1.7-5.35-2.2.9-4.85 8.1-15.05" fill="#edfbfe" fill-rule="evenodd" transform="translate(.5 .75)"/><path d="m49.05 10.9 6.25-7.15q3.65-4 4.15-2.7.6 1.6-3.6 11.25l-.75 1.5-3.4 6.7-2.85 5.85q-4.4 9-7.75 17L38.4 50q-9.5 24.15-9.1 37.65M.75 57.1q5.15 1.15 14.85-7.7l1.9-1.8 7.4-7.8 5.2-6.15 2.75-3.4Q37 25.05 41.7 19.5l3.95-4.65 3.4-3.95" fill="none" stroke="#345265" stroke-linecap="round" stroke-linejoin="round" stroke-width="1.5"/></g><g id="n"><path d="M94.65 182.15q-12.4-65.65-32.8-94.1-11.35-20.9-21.6-36.4-9.7-15.7-16.5-35.45l2.45-9.55q2.3 7.95 6.45 17.45-.05 13.6 22.7 47.15Q75.95 100.8 87 131.5q10 25.05 11.6 51.3l-3.95-.65" fill="#7da3ba" fill-rule="evenodd" transform="translate(-21.05 -5.65)"/><path d="m22.05 34.05 1.7-17.85q6.8 19.75 16.5 35.45 10.25 15.5 21.6 36.4 20.4 28.45 32.8 94.1l-2.4-.15-1.25-2.35Q75.75 118.7 63.1 109.9q10.9 26.95 19.25 61.65-1.65-.6-3.4-.6-7.5-.05-10.55 8.95-2.8-1.1-5.3-.6-2.65-33-10.65-55 2.45 24.7 1.6 44.85-2.85-11.05-7.55-14.9 1.5-14.75-.25-34.35-4.4-64.9-24.2-85.85" fill="#c9deef" fill-rule="evenodd" transform="translate(-21.05 -5.65)"/><path d="M32.65 24.1q10.6 24.55 33.3 59.45 32.75 53 37.55 101.4-2.1-1.4-4.9-2.15Q97 156.55 87 131.5q-11.05-30.7-31.65-60.25Q32.6 37.7 32.65 24.1" fill="#afb5d7" fill-rule="evenodd" transform="translate(-21.05 -5.65)"/><path d="m91 179.65 1.25 2.35 2.4.15 3.95.65q.45 7.25.25 14.55-3.15-2.65-7.1-1-1.1-12.85-7.05-13.1-6-.25-9.1 12.4-9.25-13.55-18.3-6.65-4.35-17-11.25-10.9-1.6-22.4-10.45-12.75l1.15-12.4q5.55-2.15 9.75 1.3l-.4 3.15q3.8 4.05 7.95 11.75 2.25.5 4 2.95v.95-.95q1.9 2.7 3.15 7.8l1.9-.6.1 1.15q1.3 1 7.15 2.5l4.3-.25q1.85-4.15 8.65-7.2l-.95-3.95q2.15.7 4.1 2.35 2.45 2.1 4.55 5.75m-3.5-1.2-1.05-4.55 1.05 4.55" fill="#155a7b" fill-rule="evenodd" transform="translate(-21.05 -5.65)"/><path d="M46.5 154.25q4.7 3.85 7.55 14.9-4.15-7.7-7.95-11.75l.4-3.15m16.6 25.05q2.5-.5 5.3.6 3.05-9 10.55-8.95 1.75 0 3.4.6l.95 3.95q-6.8 3.05-8.65 7.2l-4.3.25q-5.85-1.5-7.15-2.5l-.1-1.15" fill="#247a9d" fill-rule="evenodd" transform="translate(-21.05 -5.65)"/><path d="M22.05 34.05Q41.85 55 46.25 119.9q1.75 19.6.25 34.35-4.2-3.45-9.75-1.3 5.8-74.8-14.7-118.9m32 135.1q.85-20.15-1.6-44.85 8 22 10.65 55l-1.9.6q-1.25-5.1-3.15-7.8-1.75-2.45-4-2.95m-.05-39.4q3.75 20.2 4.05 42.35-.3-22.15-4.05-42.35" fill="#7ba3bc" fill-rule="evenodd" transform="translate(-21.05 -5.65)"/><path d="M103.5 184.95q1.1 10.95.75 21.65-2.3-6.65-5.4-9.25.2-7.3-.25-14.55 2.8.75 4.9 2.15" fill="#7b91b8" fill-rule="evenodd" transform="translate(-21.05 -5.65)"/><path d="M82.35 171.55Q74 136.85 63.1 109.9q12.65 8.8 27.9 69.75-2.1-3.65-4.55-5.75-1.95-1.65-4.1-2.35m-15.25-56.1q12.1 28.65 19.35 58.45-7.25-29.8-19.35-58.45" fill="#7da2bc" fill-rule="evenodd" transform="translate(-21.05 -5.65)"/><path d="M5.15 1q2.3 7.95 6.45 17.45Q22.2 43 44.9 77.9q32.75 53 37.55 101.4m-66.75-32Q21.5 72.5 1 28.4" fill="none" stroke="#345265" stroke-linecap="round" stroke-linejoin="round" stroke-width="2"/><path d="M82.45 179.3q1.1 10.95.75 21.65-2.3-6.65-5.4-9.25-3.15-2.65-7.1-1-1.1-12.85-7.05-13.1-6-.25-9.1 12.4-9.25-13.55-18.3-6.65-4.35-17-11.25-10.9-1.6-22.4-10.45-12.75l1.15-12.4" fill="none" stroke="#0e3647" stroke-linecap="round" stroke-linejoin="round" stroke-width="2"/><path d="M58.05 172.1q-.3-22.15-4.05-42.35m4.05 42.35v.95m28.4.85 1.05 4.55m-1.05-4.55q-7.25-29.8-19.35-58.45" fill="none" stroke="#345265" stroke-linecap="round" stroke-linejoin="round" transform="translate(-21.05 -5.65)"/></g><g id="o"><path d="M111.65 55.3q1.05 2.75 3.45 3.15v37l-18.8 10.7Q83.35 106 79.7 121q-1 1.55-4.55 2.45l-7.25 1.6q-10.8 2-23.45 13.35-3.8-2.45-7.7-4.15 9.6.3 11.35-1.3 5.85-5.65 12-8.1 6.2-2.5 17.05-5.05 4.75-2.1 5.05-15 8.25-9.65 3.55-26.3-2.9-15.15 8.2-20.5 10.75 2.4 17.7-2.7M9.1 68.9l1.15-.55q6.4-.15 13.95 3.6 2.6 1.7 4.7 4.85-1.05.85-2.4.95-2.5 2.85-4.85 7.65Q20.8 71.45 9.1 68.9m93.4 20.25q8.35-15.65-2.65-25.35 11 9.7 2.65 25.35" fill="#7da2bc" fill-rule="evenodd" transform="translate(1 1)"/><path d="M46.6 44.8q18.9.3 33.75-2.9 3.2 2.95 7.15 5.05Q78.1 61.1 66.55 64.8q-1.55 1.35-3.5 5.55L57.6 80.6q10.25 8.1 11.1 14 1.4 9.35-8.1 11.1l1.2-1.5q-12.15-3.85-29.4 11.7-10.25-5.35-4.85-15 3.85-4.55 8.4-13.2 3.35-12.8.4-30.6L46.6 44.8" fill="#7aa3b9" fill-rule="evenodd" transform="translate(1 1)"/><path d="M87.5 46.95q9.55 5.05 23.4 4.9.2 2 .75 3.45-6.95 5.1-17.7 2.7-11.1 5.35-8.2 20.5 4.7 16.65-3.55 26.3-.3 12.9-5.05 15-10.85 2.55-17.05 5.05-6.15 2.45-12 8.1-1.75 1.6-11.35 1.3h-.05l-.55-.25q-6.1-3-9.9-5.7-9-8.45-8.2-12.9 2.5-5.85 5-16.75.6-3.95-.65-8.15-3.95-14.95-7.6-10.2-3.05-4.55-8.1-9.6l2.4-1.8q11.7 2.55 12.55 16.5 2.35-4.8 4.85-7.65Q35 79.5 35.75 54.3q5.25-2.35 4.2-9.7l6.65.2-10.25 12.3q2.95 17.8-.4 30.6-4.55 8.65-8.4 13.2-5.4 9.65 4.85 15 4.2 5.1 9.9 8.85-2.55-8.1 4.75-9.25 4.4 2 7.55 7.05 1.75 2.2 3.35.2.65-1.25-.55-3.05-1.5-4.4.3-9 13.5-3.65 2.9-5 9.5-1.75 8.1-11.1-.85-5.9-11.1-14l5.45-10.25q1.95-4.2 3.5-5.55Q78.1 61.1 87.5 46.95" fill="#c8ddee" fill-rule="evenodd" transform="translate(1 1)"/><path d="m47.05 115.5 10.65-4.8q-1.8 4.6-.3 9 1.2 1.8.55 3.05-1.6 2-3.35-.2-3.15-5.05-7.55-7.05" fill="#247a9d" fill-rule="evenodd" transform="translate(1 1)"/><path d="M32.4 115.9q17.25-15.55 29.4-11.7l-1.2 1.5q-1.95 2.55-2.9 5l-10.65 4.8q-6.1-2.75-14.65.4" fill="#2789a6" fill-rule="evenodd" transform="translate(1 1)"/><path d="M57.7 110.7q.95-2.45 2.9-5 10.6 1.35-2.9 5m-10.65 4.8q-7.3 1.15-4.75 9.25-5.7-3.75-9.9-8.85 8.55-3.15 14.65-.4" fill="#ecfafb" fill-rule="evenodd" transform="translate(1 1)"/><path d="m.05 114.65.2-3.6q3.1 3.65 7.25 6.65l-.45.35q-4.35-.55-7-3.4" fill="#83b1c9" fill-rule="evenodd" transform="translate(1 1)"/><path d="M36.15 134q-13.1-5.6-27.35-3.2l-8.55-7.4q-.4-4-.2-8.75 2.65 2.85 7 3.4-1.1.8-2.15 1 1.05-.2 2.15-1l.45-.35q5.6-4.75 11.7-25 .15-5.55-4.4-12.4 3.65-4.75 7.6 10.2 1.25 4.2.65 8.15-2.5 10.9-5 16.75-.8 4.45 8.2 12.9 3.8 2.7 9.9 5.7M28.9 76.8q5.15-4.25 2.7-26.5l5.35-5.9 3 .2q1.05 7.35-4.2 9.7Q35 79.5 26.5 77.75q1.35-.1 2.4-.95" fill="#edfbfe" fill-rule="evenodd" transform="translate(1 1)"/><path d="m96.3 106.15-2.5 1.4q-9.6 4.3-12.35 16.1-2.5-1.15-7.35 1.4-3.85 3.35-6.7 2.1-17.25 9.9-22.95 11.25 12.65-11.35 23.45-13.35l7.25-1.6q3.55-.9 4.55-2.45 3.65-15 16.6-14.85" fill="#b0b6d8" fill-rule="evenodd" transform="translate(1 1)"/><path d="M47.6 45.8q18.9.3 33.75-2.9 3.2 2.95 7.15 5.05 9.55 5.05 23.4 4.9.2 2 .75 3.45 1.05 2.75 3.45 3.15m-21.3 49.1q-9.6 4.3-12.35 16.1-2.5-1.15-7.35 1.4-3.85 3.35-6.7 2.1-17.25 9.9-22.95 11.25-3.8-2.45-7.7-4.15h-.05m-.55-.25q-13.1-5.6-27.35-3.2l-8.55-7.4q-.4-4-.2-8.75l.2-3.6q3.1 3.65 7.25 6.65 5.6-4.75 11.7-25 .15-5.55-4.4-12.4-3.05-4.55-8.1-9.6l2.4-1.8 1.15-.55q6.4-.15 13.95 3.6 2.6 1.7 4.7 4.85 5.15-4.25 2.7-26.5l5.35-5.9 3 .2 6.65.2M8.05 119.05l.45-.35" fill="none" stroke="#345265" stroke-linecap="round" stroke-linejoin="round" stroke-width="2"/><path d="M99.85 63.8q11 9.7 2.65 25.35m-76-11.4q1.35-.1 2.4-.95m-24 42.25q1.05-.2 2.15-1" fill="none" stroke="#345265" stroke-linecap="round" stroke-linejoin="round" transform="translate(1 1)"/><path d="M104.25 5.65q8.9-3.1 18.85-5.65 2.25 0 2.15 1.9-.2.5-1.15 1L122.2 4q-6.05 0-18.55 5.6.15-1.85.6-3.95M43.7 47.25q12.7-18.6 36.55-31.3-.1 3.05.15 5.65-4 6.4-9.05 10.65-9.7 8.5-13.2 4.1-4.65 6.4-10.2 11.2-5.35 3.75-4.25-.3M85.9 13.1q5-2.4 10.45-4.55-.25 2.4-.2 4.6-4.65 2.3-9.95 5.2l-.3-5.25" fill="#e5f8fe" fill-rule="evenodd" transform="translate(1 1)"/><path d="m122.2 4-7.55 4.65q-5.45 1.7-10.8 5.15-.4-1.9-.2-4.2Q116.15 4 122.2 4m-26.05 9.15q.1 3.2.8 5.9-4.3 3.75-8.5 8.65-1.7-3.65-2.25-9.35 5.3-2.9 9.95-5.2M80.4 21.6q.65 7.5 3.9 11.25l-5 7Q71.65 53.7 67.15 52.6q-7.05-.6-2.6-8.5 1.4-3.45.15-4.65-3-2.3-13.35 5.45l-3.4 2.65q5.55-4.8 10.2-11.2 3.5 4.4 13.2-4.1Q76.4 28 80.4 21.6" fill="#bce8f5" fill-rule="evenodd" transform="translate(1 1)"/><path d="M80.25 15.95Q83 14.5 85.9 13.1l.3 5.25-5.8 3.25q-.25-2.6-.15-5.65m23.6-2.15q-3.5 2.25-6.9 5.25-.7-2.7-.8-5.9l7.5-3.55q-.2 2.3.2 4.2" fill="#4499ae" fill-rule="evenodd" transform="translate(1 1)"/><path d="M104.55 15.95q-3.6 2.85-6.65 5.8l-.95-2.7q3.4-3 6.9-5.25l.7 2.15M84.3 32.85q-3.25-3.75-3.9-11.25l5.8-3.25q.55 5.7 2.25 9.35l-4.15 5.15" fill="#025b7b" fill-rule="evenodd" transform="translate(1 1)"/><path d="m96.35 8.55 7.9-2.9q-.45 2.1-.6 3.95l-7.5 3.55q-.05-2.2.2-4.6" fill="#6bc3cf" fill-rule="evenodd" transform="translate(1 1)"/><path d="M90.1 30.45q-1.75 2.25-3.25 4.6L85.2 33.8l-.9-.95 4.15-5.15 1.65 2.75" fill="#034261" fill-rule="evenodd" transform="translate(1 1)"/><path d="M114.65 8.65q-5.5 3.55-10.1 7.3l-.7-2.15q5.35-3.45 10.8-5.15M97.9 21.75q-4.4 4.25-7.8 8.7l-1.65-2.75q4.2-4.9 8.5-8.65l.95 2.7m-21.3 37.6q-15.65 2.85-35-8.9l2.1-3.2q-1.1 4.05 4.25.3l3.4-2.65q10.35-7.75 13.35-5.45 1.25 1.2-.15 4.65-4.45 7.9 2.6 8.5 4.5 1.1 12.15-12.75l5-7 .9.95q-12.7 16.1-8.6 25.55" fill="#7ba4ba" fill-rule="evenodd" transform="translate(1 1)"/><path d="M86.85 35.05q-7.3 11.35-8.3 23.9l-1.95.4q-4.1-9.45 8.6-25.55l1.65 1.25" fill="#aeb4d4" fill-rule="evenodd" transform="translate(1 1)"/><path d="M105.25 6.65q8.9-3.1 18.85-5.65 2.25 0 2.15 1.9-.2.5-1.15 1L123.2 5l-7.55 4.65q-5.5 3.55-10.1 7.3-3.6 2.85-6.65 5.8-4.4 4.25-7.8 8.7-1.75 2.25-3.25 4.6-7.3 11.35-8.3 23.9m-36.95-8.5 2.1-3.2q12.7-18.6 36.55-31.3Q84 15.5 86.9 14.1q5-2.4 10.45-4.55l7.9-2.9" fill="none" stroke="#345265" stroke-linecap="round" stroke-linejoin="round" stroke-width="2"/><path d="m112.5 30.55 2.2-.7q3.5-1.1 4.6 1.35-2 2.3-5.6 5.3-2.05-.9-3.4-2.15l1.7-1.1q3.4-2.3.5-2.7" fill="#b2edf5" fill-rule="evenodd" transform="translate(1 1)"/><path d="m91 42.5 1-.8 3.95-2.7q.2 2.8 1.65 4.55l-4.25 3.6Q91.95 45.2 91 42.5m12.1-7.8q2.7-1.45 5.35-2.55.7 1.2 1.85 2.2l-5.05 3.45q-1.25-1.4-2.15-3.1" fill="#57aec1" fill-rule="evenodd" transform="translate(1 1)"/><path d="M97.6 43.55Q96.15 41.8 95.95 39l7.15-4.3q.9 1.7 2.15 3.1-4.05 2.85-7.65 5.75m10.85-11.4q2.05-.9 4.05-1.6 2.9.4-.5 2.7l-1.7 1.1q-1.15-1-1.85-2.2" fill="#d1f8fd" fill-rule="evenodd" transform="translate(1 1)"/><path d="M91 42.5q.95 2.7 2.35 4.65-8.3 7.2-14.1 14.75-2.75 2.2-1.05-4.1 4.15-4.35 10.75-13.55L91 42.5" fill="#dff8fd" fill-rule="evenodd" transform="translate(1 1)"/><path d="M88.95 44.25q-6.6 9.2-10.75 13.55-2.3 2.4-3.8 3.3l-.6-.75 1.6-2.4q4.45-6.1 13.55-13.7" fill="#7da3ba" fill-rule="evenodd" transform="translate(1 1)"/><path d="M78.2 57.8q-1.7 6.3 1.05 4.1 5.8-7.55 14.1-14.75Q95 49.5 97.4 50.7q-5.8 6.7-11.6 16.6-1.15 3.55-.65 7.7L74.4 61.1q1.5-.9 3.8-3.3M101.75 46q-2.75-.65-4.15-2.45 3.6-2.9 7.65-5.75 1.4 1.55 3.25 2.7l-2.35 1.7-4.4 3.8" fill="#c8ddee" fill-rule="evenodd" transform="translate(1 1)"/><path d="m111.85 42.1-3.55 4.15-6.55-.25 4.4-3.8 2.35-1.7q1.5.95 3.35 1.6M85.15 75q-.5-4.15.65-7.7 5.8-9.9 11.6-16.6 2.45 1.25 5.7 1.2-13.7 13-11.6 21-.8 2.1-1.3 4.1l-5.05-2" fill="#7ca5bb" fill-rule="evenodd" transform="translate(1 1)"/><path d="m116.1 37.4-4.25 4.7q-1.85-.65-3.35-1.6l5.2-4 2.4.9" fill="#68b4c1" fill-rule="evenodd" transform="translate(1 1)"/><path d="m119.3 31.2.4 1.5q0 .85-1.3 2.15l-2.3 2.55-2.4-.9q3.6-3 5.6-5.3" fill="#93d7e0" fill-rule="evenodd" transform="translate(1 1)"/><path d="M110.3 34.35q1.35 1.25 3.4 2.15l-5.2 4q-1.85-1.15-3.25-2.7l5.05-3.45" fill="#4ba2b5" fill-rule="evenodd" transform="translate(1 1)"/><path d="m108.3 46.25-2.8 3.5-2.4 2.15q-3.25.05-5.7-1.2 2.15-2.6 4.35-4.7l6.55.25" fill="#024361" fill-rule="evenodd" transform="translate(1 1)"/><path d="m93.35 47.15 4.25-3.6q1.4 1.8 4.15 2.45-2.2 2.1-4.35 4.7-2.4-1.2-4.05-3.55" fill="#025b7b" fill-rule="evenodd" transform="translate(1 1)"/><path d="m105.5 49.75-1.65 2.1q-7.95 10.45-11.55 19l-.8 2.05q-2.1-8 11.6-21l2.4-2.15" fill="#adb6d5" fill-rule="evenodd" transform="translate(1 1)"/><path d="M96.95 40 93 42.7l-1 .8-2.05 1.75q-9.1 7.6-13.55 13.7l-1.6 2.4M96.95 40l7.15-4.3q2.7-1.45 5.35-2.55 2.05-.9 4.05-1.6l2.2-.7q3.5-1.1 4.6 1.35l.4 1.5q0 .85-1.3 2.15l-2.3 2.55-4.25 4.7-3.55 4.15-2.8 3.5-1.65 2.1q-7.95 10.45-11.55 19l-.8 2.05q-.8 2.1-1.3 4.1" fill="none" stroke="#345265" stroke-linecap="round" stroke-linejoin="round" stroke-width="2"/><path d="M92.3 70.85q.7 8.15 0 11.75M69.1 61.35q3.5-2.65 6.3-3.4" fill="none" stroke="#345265" stroke-linecap="round" stroke-linejoin="round" transform="translate(1 1)"/></g><g id="p"><path d="m30 0 9.1.25q1.7 1.55 2.75 3.55-.3 5.35-4.5 11.8-2.8 4-5.4 4.45l-6.8-1.25Q38.4 10.35 30 0" fill="#2c2c2c" fill-rule="evenodd" transform="translate(1 1)"/><path d="M30 0q8.4 10.35-4.85 18.8Q12.4 16 0 10.4 11.4.5 30 0" fill="#c8d0e5" fill-rule="evenodd" transform="translate(1 1)"/><path d="m26.15 19.8 6.8 1.25q2.6-.45 5.4-4.45 4.2-6.45 4.5-11.8-1.05-2-2.75-3.55L31 1q-18.6.5-30 10.4 12.4 5.6 25.15 8.4m16.7-15q2.2 4.1 1.55 10.15" fill="none" stroke="#222" stroke-linecap="round" stroke-linejoin="round" stroke-width="2"/></g><g id="r"><path d="m17.65 66.05-2.4 2.35L18 67.05l.3 2.15q0 3.1-2.25 5.3-2.2 2.3-5.35 2.3-3.1 0-5.35-2.3-2.2-2.2-2.2-5.3 0-3.1 2.2-5.35 2.25-2.2 5.35-2.2 3.15 0 5.35 2.2 1 1 1.6 2.2" fill="#0e1d3c" fill-rule="evenodd" transform="translate(.5 -51.7)"/><path d="M17.65 66.05q-.6-1.2-1.6-2.2-2.2-2.2-5.35-2.2-3.1 0-5.35 2.2-2.2 2.25-2.2 5.35 0 3.1 2.2 5.3 2.25 2.3 5.35 2.3 3.15 0 5.35-2.3 2.25-2.2 2.25-5.3l-.3-2.15q2.35-1.45 4.6-3.65.5 1.6.5 3.4 0 4.65-3.25 7.95-3.2 3.45-7.8 3.45-4.55 0-7.8-3.45-3.2-3.3-3.2-7.95t3.2-8.05q3.25-3.3 7.8-3.3 4.6 0 7.8 3.3 1.8 1.9 2.6 4.2-2.7 1.25-4.8 3.1" fill="#394b7b" fill-rule="evenodd" transform="translate(.5 -51.7)"/><path d="m22.6 63.4 1-1-1.15.55q-.8-2.3-2.6-4.2-3.2-3.3-7.8-3.3-4.55 0-7.8 3.3-3.2 3.4-3.2 8.05t3.2 7.95q3.25 3.45 7.8 3.45 4.6 0 7.8-3.45 3.25-3.3 3.25-7.95 0-1.8-.5-3.4m.55-7.25q3.95 4 3.95 9.6t-3.95 9.6q-3.95 3.95-9.6 3.95-5.6 0-9.6-3.95-3.95-4-3.95-9.6t3.95-9.6q4-3.95 9.6-3.95 5.65 0 9.6 3.95" fill="#5c7db3" fill-rule="evenodd" transform="translate(.5 -51.7)"/><path d="m18 67.05-2.75 1.35 2.4-2.35q2.1-1.85 4.8-3.1l1.15-.55-1 1q-2.25 2.2-4.6 3.65" fill="#effafe" fill-rule="evenodd" transform="translate(.5 -51.7)"/><path d="M23.15 56.15q3.95 4 3.95 9.6t-3.95 9.6q-3.95 3.95-9.6 3.95-5.6 0-9.6-3.95-3.95-4-3.95-9.6t3.95-9.6q4-3.95 9.6-3.95 5.65 0 9.6 3.95z" fill="none" stroke="#060f1c" stroke-linecap="round" stroke-linejoin="round" transform="translate(.5 -51.7)"/></g><g id="s"><path d="M46.6 97.1q-6.5 6.6-13.75 16.9-1.2 1.4-2.3 1.65-3.15-7.55-2.5-10.5L40.2 83.9q.8-14.15-2.35-23.55 1.6-2.2 5 4.45 8.9-20.5 21.55-24.15-4.2 3.6-6.95 8.85l-.45 1Q51.4 62 50.75 70.65q4.65-8.1 13.5-16.85l.1 2.3-1.7 3.15-12.15 19-5.6 4.85v10.2l-2 4.45 6.4-5.4v-6.9l3.55-2.65L64.1 59.1q-1.35 10.4-9.55 24.4l-3.35 2.85v4.7l-4.6 6.05m-6.4-13.2-.65 7.5.65-7.5m3.85-16.55-1.2-2.55 1.2 2.55M42.4 92.2l-9.55 15.25q6.25-6.25 11.4-14.4.5-2.7.05-7.2-.65 4.05-1.9 6.35" fill="#c9deef" fill-rule="evenodd" transform="translate(-27.45 -40.15)"/><path d="m42.9 97.75 2-4.45V83.1l5.6-4.85 12.15-19-11.2 21.05-5.1 3.75v9.45l-3.45 4.25" fill="#d8e4e4" fill-rule="evenodd" transform="translate(-27.45 -40.15)"/><path d="m64.35 56.1-.25 3-11.25 23.7-3.55 2.65v6.9l-6.4 5.4 3.45-4.25v-9.45l5.1-3.75 11.2-21.05 1.7-3.15" fill="#7aa4bd" fill-rule="evenodd" transform="translate(-27.45 -40.15)"/><path d="M42.4 92.2q1.25-2.3 1.9-6.35.45 4.5-.05 7.2-5.15 8.15-11.4 14.4L42.4 92.2" fill="#7ea4bb" fill-rule="evenodd" transform="translate(-27.45 -40.15)"/><path d="M57 50.5q-3.45 7.55-4.45 15.7 3.95-7.6 11.7-12.4-8.85 8.75-13.5 16.85Q51.4 62 57 50.5m-2.45 33q4.6-.5 8.7 2.1-8 2.6-16.65 11.5l4.6-6.05v-4.7l3.35-2.85" fill="#7da2bc" fill-rule="evenodd" transform="translate(-27.45 -40.15)"/><path d="M46.6 97.1q-6.5 6.6-13.75 16.9-1.2 1.4-2.3 1.65-3.15-7.55-2.5-10.5L40.2 83.9q.8-14.15-2.35-23.55 1.6-2.2 5 4.45 8.9-20.5 21.55-24.15-4.2 3.6-6.95 8.85l-.45 1q-3.45 7.55-4.45 15.7 3.95-7.6 11.7-12.4l.1 2.3-.25 3q-1.35 10.4-9.55 24.4 4.6-.5 8.7 2.1-8 2.6-16.65 11.5" fill="none" stroke="#345265" stroke-linecap="round" stroke-linejoin="round" transform="translate(-27.45 -40.15)"/><path d="m12.1 51.25.65-7.5m2.65-19.1 1.2 2.55" fill="none" stroke="#345265" stroke-linecap="round" stroke-linejoin="round" stroke-width=".5"/></g><g id="t"><path d="M17.75 11.55q-4.2 6-9.1 8.9 6.2-.05 12.65-2.65.6-.6-.8-2.8-1-1.1-1.05-4.55-.35-.6-1.7 1.1M10.6 31.4q-6.5-.05 2.4 3.35 4.2 1.75 5.55 2.75l2.2 1.55q1.2-2.2 1.6-6.3-6.25.5-11.75-1.35l-4-1.7 4 1.7m-3.2-6.25q.9 2.35 15.05 4.05l-.2-9.1 3.85-.5-3.85.5q-4.85.9-10.65 3.75l-4.2 1.3-4.55.6 4.55-.6M0 22.9Q13.8 16.4 23.05 0q-1.5 13.85 3.05 19.6-1.35 7.5.8 12.7-3.75 7.95-4.7 13.85Q15.8 36 2.25 35.6L0 22.9" fill="#7da2bc" fill-rule="evenodd" transform="translate(1 1)"/><path d="M22.35 32.75q-.4 4.1-1.6 6.3l-2.2-1.55q-1.35-1-5.55-2.75-8.9-3.4-2.4-3.35 5.5 1.85 11.75 1.35m-4.6-21.2q1.35-1.7 1.7-1.1.05 3.45 1.05 4.55 1.4 2.2.8 2.8-6.45 2.6-12.65 2.65 4.9-2.9 9.1-8.9m4.5 8.55.2 9.1Q8.3 27.5 7.4 25.15l4.2-1.3Q17.4 21 22.25 20.1" fill="#cbdeef" fill-rule="evenodd" transform="translate(1 1)"/><path d="M3.25 36.6Q16.8 37 23.2 47.15q.95-5.9 4.7-13.85-2.15-5.2-.8-12.7-4.55-5.75-3.05-19.6Q14.8 17.4 1 23.9" fill="none" stroke="#345265" stroke-linecap="round" stroke-linejoin="round" stroke-width="2"/><path d="M22.35 32.75q-6.25.5-11.75-1.35l-4-1.7m.8-4.55-4.55.6M26.1 19.6l-3.85.5q-4.85.9-10.65 3.75l-4.2 1.3" fill="none" stroke="#345265" stroke-linecap="round" stroke-linejoin="round" transform="translate(1 1)"/></g><path d="M151.45 31.95q-26 5.45-62.7 5.45Q52 37.4 26 31.95 0 26.45 0 18.7T26 5.5Q52 0 88.75 0q36.7 0 62.7 5.5 26 5.45 26 13.2 0 7.75-26 13.25" fill-opacity=".349" fill-rule="evenodd" id="c"/><path d="M43.3 43.3H0V0h43.3v43.3" fill="#fff" fill-opacity="0" fill-rule="evenodd" id="b"/></defs></svg>