<svg xmlns:ffdec="https://www.free-decompiler.com/flash" xmlns:xlink="http://www.w3.org/1999/xlink" ffdec:objectType="frame" height="90" width="90" xmlns="http://www.w3.org/2000/svg"><use ffdec:characterId="22" height="90" transform="translate(-6.3)" width="99.7" xlink:href="#a"/><defs><g id="a" transform="translate(6.3)"><use ffdec:characterId="4" height="90" width="90" xlink:href="#b"/><use ffdec:characterId="21" height="111.2" transform="translate(-6.289 12.84) scale(.5743)" width="173.55" xlink:href="#c"/></g><g id="b"><use ffdec:characterId="1" height="0" transform="translate(0 4.7) scale(.4181)" width="0" xlink:href="#sprite2"/><use ffdec:characterId="3" height="78.05" transform="scale(1.5063 1.1531)" width="59.75" xlink:href="#d"/></g><g id="c" transform="translate(10.95 .8)"><use ffdec:characterId="5" height="48.25" transform="translate(28.05 72.45) scale(.7866)" width="126.2" xlink:href="#e"/><use ffdec:characterId="6" height="91.05" transform="translate(-.59 7.81) scale(.7866)" width="66.7" xlink:href="#f"/><use ffdec:characterId="7" height="32.65" transform="translate(33.007 65.957) scale(.7866)" width="32.85" xlink:href="#g"/><use ffdec:characterId="8" height="30.8" transform="translate(44.257 71.462) scale(.7866)" width="21.65" xlink:href="#h"/><use ffdec:characterId="9" height="89.75" transform="translate(42.657 14.08) scale(.7866)" width="93.05" xlink:href="#i"/><use ffdec:characterId="10" height="26.95" transform="translate(43.68 45.86) scale(.7866)" width="64.5" xlink:href="#j"/><use ffdec:characterId="11" height="48.95" transform="translate(71.513 -.787) scale(.7866)" width="52.6" xlink:href="#k"/><use ffdec:characterId="12" height="18.85" transform="translate(43.307 58.857) scale(.7866)" width="24" xlink:href="#l"/><use ffdec:characterId="13" height="28.95" transform="translate(75.007 71) scale(.7866)" width="32.65" xlink:href="#m"/><use ffdec:characterId="14" height="101.55" transform="translate(103.657 7.91) scale(.7866)" width="68.15" xlink:href="#n"/><use ffdec:characterId="15" height="40.55" transform="translate(98.107 69.057) scale(.7866)" width="27" xlink:href="#o"/><use ffdec:characterId="16" height="27.6" transform="translate(80.157 79.557) scale(.7866)" width="26.7" xlink:href="#p"/></g><g id="f"><path d="m53.5 67.2.7 1.95.9 4.6.05.3q2.3 8.4 9.45 6.7 1.5 2.3.35 4.4-1.05 2.4-4 3.85-10.5 2.8-18.15-4.05l1 .7q1.85 1.15 3.35 1.15 1.95 0 3.45-.9l.65-.45-.6-.35v-5.25l.2-.2-.2.15V79l1.35-.5 3.55-1.35-.3-2.15-1.9 1.15-.3.05.25-1.15.05-1.5-.2-4.5q0-1.2.35-1.85m.1 14.6v-.05l-.05.05h.05" fill="#36113d" fill-rule="evenodd" transform="translate(.75 .75)"/><path d="m51.8 67.05 1.45.2.25-.05q-.35.65-.35 1.85l.2 4.5-.05 1.5-.2-1.65q-.4-3.5-1.3-6.35" fill="#4f1957" fill-rule="evenodd" transform="translate(.75 .75)"/><path d="M44.75 58.55q0-1 .4-2.2 3.6 2.6 6 6.2l-1.2.3q-1.65 0-2.9-.6-1-2-2.3-3.45v-.25m-10.85-7-1.1.95-1.85 1.1h-.05q-1.15 0-2.05-.85-.6-.5-.8-1.2 2.9-.5 5.85 0M49.25 75.3l-.1-.1.35-.95q.4-1.35.4-3.3 0-2.05-.65-4h.8l.1-.05 1.45.15h.2q.9 2.85 1.3 6.35l.2 1.65-.25 1.15-.3.1-1.85.3q-.45 0-1.65-1.3" fill="#9127a1" fill-rule="evenodd" transform="translate(.75 .75)"/><path d="m49.15 75.2-.15-.15-2.4-2.95.4-1.05 1-2.25.9-1.75.25-.1h.1q.65 1.95.65 4 0 1.95-.4 3.3l-.35.95" fill="#a04fac" fill-rule="evenodd" transform="translate(.75 .75)"/><path d="m44.65 58.7-1.35-1.25q-1.85-1.5-5-2.55-3.65-1.3-7.05-1.3h-.3l1.85-1.1 1.1-.95 3.45.8q4.45 1.55 7.8 4-.4 1.2-.4 2.2l-.1.15M30.9 53.6l-6.6.75q-2.15.55-5.45 4-.9-1.75.2-3.5 4.6-2.65 9-3.3.2.7.8 1.2.9.85 2.05.85m10.85 16.25.7 2.3.45 2.55q.6 2.95 2.85 2.95 1.1 0 2.4-1.1l.8-.85.3-.4q1.2 1.3 1.65 1.3l1.85-.3.3-.1v.2l-.85 1.75-.2.35-1.35.5v.8q-1.5 1-3.8 1l-2.45-.25-2.1-.3-1.1.2q-.35.15-.6.5l-.05-.3-.2-2.3.05-1.55.05-.85q.15-1.85.9-4.55l.4-1.55m7.2-3.35-.35-.95-1.55-3.3q1.25.6 2.9.6l1.2-.3q1.4 2.1 2.35 4.6v.05l-.25.05-1.45-.2h-.2l-1.45-.15-.1.05h-.8l-.3-.45" fill="#ee738f" fill-rule="evenodd" transform="translate(.75 .75)"/><path d="M30.95 53.6h.3q3.4 0 7.05 1.3 3.15 1.05 5 2.55l1.35 1.25.1.1q.1 2.1 1.75 3.15l.55.3 1.55 3.3.35.95.2.45-.25.1-.9 1.75-1 2.25-.4 1.05 2.4 2.95.15.15.1.1-.3.4-.8.85q-1.3 1.1-2.4 1.1-2.25 0-2.85-2.95l-.45-2.55-.7-2.3L43 64.4q.25-2-.95-4.1-2.55-4.05-9.05-3.05-4.45 1.1-8.15 3.8-4.35.95-6-2.7 3.3-3.45 5.45-4l6.6-.75h.05" fill="#feb0c0" fill-rule="evenodd" transform="translate(.75 .75)"/><path d="m50.65 79.8.2-.15-.2.2-3.85 2.45q-2.75 1.5-3.7 1.5l-.85-.15-.75-.15-.1-.1q-.6-1.05-.8-2.45.25-.35.6-.5l1.1-.2 2.1.3 2.45.25q2.3 0 3.8-1" fill="#be2f4d" fill-rule="evenodd" transform="translate(.75 .75)"/><path d="m47.05 62.25-.55-.3q-1.65-1.05-1.75-3.15 1.3 1.45 2.3 3.45" fill="#a34faf" fill-rule="evenodd" transform="translate(.75 .75)"/><path d="m53.05 76.2.3-.05 1.9-1.15.3 2.15L52 78.5l.2-.35.85-1.75v-.2m-2.4 3.65v5.25l.6.35-.65.45q-1.5.9-3.45.9-1.5 0-3.35-1.15l-1-.7-1.3-1.45.75.15.85.15q.95 0 3.7-1.5l3.85-2.45m2.95 1.95h-.05l.05-.05v.05" fill="#842136" fill-rule="evenodd" transform="translate(.75 .75)"/><path d="M45.15 56.35q-3.35-2.45-7.8-4l-3.45-.8q-2.95-.5-5.85 0-4.4.65-9 3.3-1.1 1.75-.2 3.5 1.65 3.65 6 2.7 3.7-2.7 8.15-3.8 6.5-1 9.05 3.05 1.2 2.1.95 4.1l-1.25 5.45-.4 1.55q-.75 2.7-.9 4.55l-.05.85-.05 1.55.2 2.3.05.3q.2 1.4.8 2.45l.1.1 1.3 1.45Q50.45 91.8 60.95 89q2.95-1.45 4-3.85 1.15-2.1-.35-4.4-7.15 1.7-9.45-6.7l-.05-.3-.9-4.6-.7-1.95v-.05q-.95-2.5-2.35-4.6-2.4-3.6-6-6.2z" fill="none" stroke="#681e7b" stroke-linecap="round" stroke-linejoin="round" transform="translate(.75 .75)"/><path d="m20.05 28.6 1.35-.25q1.15 0 1.75 1.55l.9 3.65-.4-1.2q-1-2.8-2.75-2.8l-.65.05-.2-1m4.2 6.05.2.25.7.65 1.75 7.75q-1.05-2.5-1.45-4.5l-1.2-4.1v-.05" fill="#211a12" fill-rule="evenodd" transform="translate(.75 .75)"/><path d="m19.6 26.65 3.3-1.05 2.25 9.95-.7-.65-.2-.25-.15-.7v-.05l-.05-.35-.9-3.65q-.6-1.55-1.75-1.55l-1.35.25-.45-1.95" fill="#b29577" fill-rule="evenodd" transform="translate(.75 .75)"/><path d="m20.55 30.7 1-.2q1.1-.1 2.8 7.7l2.5 11.3-2 .45-.25-1.25.8-.3.35-.75-.55-3.4-1.05-4.2-1.05-4.2q-.4-1.2-.9-1.2-.6 0-.7.45l-.95-4.4" fill="#5b4f43" fill-rule="evenodd" transform="translate(.75 .75)"/><path d="m24.05 33.55.05.35v.05l.15.7v.05l.25 1.15 1.35 5.25.85 5.15.6 3.2-.45.05-2.5-11.3q-1.7-7.8-2.8-7.7l-1 .2-.3-1.1.65-.05q1.75 0 2.75 2.8l.4 1.2" fill="#2d2319" fill-rule="evenodd" transform="translate(.75 .75)"/><path d="M21.5 35.1q.1-.45.7-.45.5 0 .9 1.2l1.05 4.2 1.05 4.2.55 3.4-.35.75-.8.3-3.1-13.6" fill="#a08f7d" fill-rule="evenodd" transform="translate(.75 .75)"/><path d="m27.3 49.45-.6-3.2-.85-5.15-1.35-5.25-.25-1.15 1.2 4.1q.4 2 1.45 4.5l1.4 5.9-1 .25" fill="#2d231a" fill-rule="evenodd" transform="translate(.75 .75)"/><path d="m20.35 27.4.45 1.95.2 1 .3 1.1.95 4.4 3.1 13.6.25 1.25 2-.45.45-.05 1-.25-1.4-5.9-1.75-7.75-2.25-9.95" fill="none" stroke="#2d2620" stroke-linecap="round" stroke-linejoin="round" stroke-width="1.5"/><path d="M22.2 11.95q.9 1.6 1.35 3.3l1.55 5.35q1.1 3.95 1.1 6.45 0 1.4-.85 4.3l-.45 1.85-.1.15-.3.85v.2q-.25.35-.5.35l-.45-.15-.05-.6.3-1.9.3-2.65q0-6.4-1.8-12.25v-.05l.05-1.1v-.7l.9 3q1.65 6.35 1.7 12.75.8-6.6-1.2-13.2l-1.45-4.05-.1-1.9M13.35 32.5l.4.5 1.9 2 .1.15-.1.4q-.15.2-.45.2-1.2 0-3.6-2.55l.85-.3.3-.1.25.15-.15-.2.5-.25" fill="#1f1810" fill-rule="evenodd" transform="translate(.75 .75)"/><path d="M19.1 2.05q1.7.7 3.45 1.8Q26 6.15 28.4 9.5l.05.05 1.2 2.25 1.2 3.15.95 3.9.2 3.75q0 3.7-1.6 8.4l-1.25 3.2q-.9.4-2 1.35-1.8 1.45-2.2 2.75l-.55.25-1.25-2.85-1.1-2-.15-.15-.7-.5q-.65 0-1.55.9L18.3 35.6l-.85 1.35q-.7 1.25-.85 2.2l-.05.5.35 1.7.1.3-.2-.3h.1-.1q-.65-1.2-1.55-1.85l-.25-.2q-.85-.55-1.65-.75l-1.1-.2-.95.2-.55.15h-.05q-3.15-2.05-5.35-4.9l.25.2q-.05-.25.5-.25l.7-.1h.75l4.05-.45q2.4 2.55 3.6 2.55.3 0 .45-.2l.1-.4-.1-.15-1.9-2-.4-.5 2.85-2.2 1.5.35q1.45 0 2.5-1.45 1.15-1.65 1.15-4.25l-.2-2.9q.95-2.65 1.15-4.85 1.8 5.85 1.8 12.25l-.3 2.65-.3 1.9.05.6.45.15q.25 0 .5-.35v-.2l.3-.85.1-.15.45-1.85q.85-2.9.85-4.3 0-2.5-1.1-6.45l-1.55-5.35q-.45-1.7-1.35-3.3L21.75 9q-.7-3.5-2.65-6.95" fill="#40372e" fill-rule="evenodd" transform="translate(.75 .75)"/><path d="m31.15 34.05-.85 1.45q-2.5 3.85-6.85 5.35-3.25 1.1-6.55.5l-.35-1.7.05-.5.75.35 1.1.1q1.3 0 2.1-.55l.45-.15.75-.35.8-.95.65-1.55-.05-.35 1.25 2.85-3 1.35-.25.15-.05.1.05.1h.4q1.8-.5 3.05-1.2l.2-.1 1.3-1.05h-.2l-.95.4q.4-1.3 2.2-2.75 1.1-.95 2-1.35l2-.15" fill="#201911" fill-rule="evenodd" transform="translate(.75 .75)"/><path d="M28.45 9.55q2.2 3.3 3.35 6.6 2.85 8.1.4 15.3l-1.05 2.6-2 .15L30.4 31q1.6-4.7 1.6-8.4l-.2-3.75-.95-3.9-1.2-3.15-1.2-2.25" fill="#fed3a8" fill-rule="evenodd" transform="translate(.75 .75)"/><path d="M13.15 40.05h-.1l-.55-.3.3-.05.45-.15.25-.5-.15-.5q.8.2 1.65.75l.25.2-1.2.7-.9-.15M.25 14.6q.25-1.75.85-3.45 2-6 6.7-8.45l-.1.75.05.45q.15 1.15.95 2 1.05 1 2.45 1h.4q1 .55 2.15.55 1.9 0 3.15-2.5.9-1.7 1.05-3.3l1.05.35.15.05Q21.05 5.5 21.75 9l.45 2.95-1.25-1.75-1.65-1.75Q18.15 7.3 17.8 7.3l-.4.3V8l.15.15q2.95 3.1 4.75 9v.05q-.2 2.2-1.15 4.85-.4-2.8-1.4-5.95-1.95-5.8-4.45-5.8-1.5 0-2.5 1.2l-.8-.1-1.3.2-.4.15-.35.3q-1 1.05-1 3 0 1.35.5 2.15.35.55.9.75v.25q0 3.25 2.05 7.5 1.75 3.6 3.8 4.6l-2.85 2.2-2.65-3.75q-1.3-2.35-1.95-5.6-.55-2.8-.55-5.8 0-3.8.65-6.65l.7-3q0-.7-.5-.7Q8 7 7.1 9.05q-.6 1.3-.9 2.8l-.15.85q-.45 2.9-.45 4.65 0 3.1.85 6.7.9 4 2.25 5.75l2.9 3.4-4.05.45H6.8q.95-.25.95-1.15 0-.7-.7-1.6-1-1.3-1.35-2.15-.65-1.4-1.1-3.7L4.05 22l-.3-2.95v-.35l-.15-.9-.1-.7q-.5-3.45-1.85-3.45-.85 0-1.4.95" fill="#5b4f43" fill-rule="evenodd" transform="translate(.75 .75)"/><path d="M16.8 41.35q-1.85-.4-3.65-1.3l.9.15 1.2-.7q.9.65 1.55 1.85" fill="#41372d" fill-rule="evenodd" transform="translate(.75 .75)"/><path d="m24.4 38.55.55-.25.95-.4h.2l-1.3 1.05-.2.1q-1.25.7-3.05 1.2h-.4l-.05-.1.05-.1.25-.15 3-1.35" fill="#b39475" fill-rule="evenodd" transform="translate(.75 .75)"/><path d="m20.55 39.05.45-.45q.95-1.2 1.1-3.95l-.05-.95 1.1 2 .05.35-.65 1.55-.8.95-.75.35-.45.15" fill="#3f362d" fill-rule="evenodd" transform="translate(.75 .75)"/><path d="M19.65 33.95q.9-.9 1.55-.9l.7.5.15.15.05.95q-.15 2.75-1.1 3.95l-.45.45q-.8.55-2.1.55l-1.1-.1-.75-.35q.15-.95.85-2.2-.05.55.5.85l.9.2q.85 0 1.7-1.1.8-.95.8-1.6 0-.7-.55-1.05-.45-.3-1.15-.3" fill="#5c5044" fill-rule="evenodd" transform="translate(.75 .75)"/><path d="m12.5 39.75-1.75-1v-.05l.55-.15.95-.2 1.1.2.15.5-.25.5-.45.15-.3.05M5.6 34l-.4-.4v-.05L5 33.3q-2.2-2.95-3.55-6.85Q-.65 20.3.25 14.6q.55-.95 1.4-.95 1.35 0 1.85 3.45l.1.7-.3-.5q-.45-.6-1.1-.6-.6 0-1.1.6-.45.6-.45 1.4 0 .85.45 1.45.5.6 1.1.6.65 0 1.1-.6.4-.5.45-1.1l.3 2.95.55 3.05q.45 2.3 1.1 3.7.35.85 1.35 2.15.7.9.7 1.6 0 .9-.95 1.15l-.7.1q-.55 0-.5.25m7.2-22.5q1-1.2 2.5-1.2 2.5 0 4.45 5.8 1 3.15 1.4 5.95l-.2.55q-1.45 3.65-3.45 6.15l-1.3 1.55q-2.05-1-3.8-4.6-2.05-4.25-2.05-7.5v-.25l.1.05.65.05q.9 0 1.75-.8 1.1-1.1 1.1-3.1 0-2.15-1.15-2.65m6.85 22.45q.7 0 1.15.3.55.35.55 1.05 0 .65-.8 1.6-.85 1.1-1.7 1.1l-.9-.2q-.55-.3-.5-.85l.85-1.35 1.35-1.65M17.5 19q-.5 0-.85.3-.3.35-.3.85 0 .45.3.8.35.35.85.35.45 0 .8-.35l.35-.8q0-.5-.35-.85-.35-.3-.8-.3" fill="#a09080" fill-rule="evenodd" transform="translate(.75 .75)"/><path d="m22.3 13.85 1.45 4.05q2 6.6 1.2 13.2-.05-6.4-1.7-12.75l-.9-3-2.1-5.4q1.05 1.5 2.05 3.9m-9.45 18.9.15.2-.25-.15-.7-.75-.85-1.2-1.4-1.65q-.65-.8-1.5-2.8-.85-1.95-1.35-4.45-.45-2.5-.45-4.55l.2-3.95.25-2.35.15-.5.35-.7.55-.95.05.05q-.8 2.45-.8 7.75 0 5.6 1.7 9.75 1.25 3.15 3.9 6.25" fill="#3f1d01" fill-rule="evenodd" transform="translate(.75 .75)"/><path d="M10.35 17.95q-.55-.2-.9-.75-.5-.8-.5-2.15 0-1.95 1-3l.35-.3.4-.15 1.3-.2.8.1q1.15.5 1.15 2.65 0 2-1.1 3.1-.85.8-1.75.8l-.65-.05-.1-.05m-6.6 1.1q-.05.6-.45 1.1-.45.6-1.1.6-.6 0-1.1-.6-.45-.6-.45-1.45 0-.8.45-1.4.5-.6 1.1-.6.65 0 1.1.6l.3.5.15 1.25M17.5 19q.45 0 .8.3.35.35.35.85l-.35.8q-.35.35-.8.35-.5 0-.85-.35-.3-.35-.3-.8 0-.5.3-.85.35-.3.85-.3" fill="#efd9c2" fill-rule="evenodd" transform="translate(.75 .75)"/><path d="m21.15 22.05.2 2.9q0 2.6-1.15 4.25-1.05 1.45-2.5 1.45l-1.5-.35 1.3-1.55q2-2.5 3.45-6.15l.2-.55" fill="#716559" fill-rule="evenodd" transform="translate(.75 .75)"/><path d="M13.75 1.1q2.05-.05 4.15.55-.15 1.6-1.05 3.3-1.25 2.5-3.15 2.5-1.15 0-2.15-.55l.1-.05q1.15-.15 1.95-.95 1.05-1.05 1.05-2.45 0-1.35-.9-2.3V1.1" fill="#403730" fill-rule="evenodd" transform="translate(.75 .75)"/><path d="m11.6 33.2-2.9-3.4q-1.35-1.75-2.25-5.75-.85-3.6-.85-6.7 0-1.75.45-4.65l.15-.85q.3-1.5.9-2.8Q8 7 9.05 7q.5 0 .5.7l-.7 3q-.65 2.85-.65 6.65 0 3 .55 5.8.65 3.25 1.95 5.6l2.65 3.75-.5.25q-2.65-3.1-3.9-6.25-1.7-4.15-1.7-9.75 0-5.3.8-7.75v-.05H8l-.55.95-.35.7-.15.5-.25 2.35-.2 3.95q0 2.05.45 4.55.5 2.5 1.35 4.45.85 2 1.5 2.8l1.4 1.65.85 1.2.7.75-.3.1-.85.3" fill="#2c2419" fill-rule="evenodd" transform="translate(.75 .75)"/><path d="M22.3 17.15q-1.8-5.9-4.75-9L17.4 8v-.4l.4-.3q.35 0 1.5 1.15l1.65 1.75 1.25 1.75.1 1.9q-1-2.4-2.05-3.9l2.1 5.4v.7l-.05 1.1" fill="#2d231a" fill-rule="evenodd" transform="translate(.75 .75)"/><path d="m10.15.1 1-.1q1.45 0 2.45 1l.15.1v.05h-.2q-.3.2-.35 1.15l-.15 1.8q-.1.75-.6 1.7l-.8 1.05-.1.05h-.4q-1.4 0-2.45-1-.8-.85-.95-2l.3.3.75.3H9q.65-.05 1.15-.45l.65.75q.65.4 1.15.4l.45-.45q0-.4-.35-.75l-.45-.25q-.45-.3-.9-.35l.4-1.1.6-.3.25-.45-.2-.2h.1l-.5-.05-.15.15h-.1Q10.95.5 10.15.1" fill="#017b04" fill-rule="evenodd" transform="translate(.75 .75)"/><path d="m7.8 2.7.4-1 .45.35.2.1.2.05q.5 0 .7-.35l.1-.55-.1-.45-.4-.35.8-.4q.8.4.95 1.35l-.25.25-.1.25q0 .35.25.35h.1l-.4 1.1h-.25l.25-.45-.15-.45h-.45l-.3.35v.4q.05.2.4.2-.15.05-.15.2l.1.4q-.5.4-1.15.45h-.2l-.75-.3-.3-.3-.05-.45.1-.75" fill="#28d82d" fill-rule="evenodd" transform="translate(.75 .75)"/><path d="M11.1 1.45h.1l.15-.15.5.05h-.1l.2.2-.25.45-.6.3H11q-.25 0-.25-.35l.1-.25.25-.25m-.4 1.95q.45.05.9.35l.45.25q.35.35.35.75l-.45.45q-.5 0-1.15-.4l-.65-.75-.1-.4q0-.15.15-.2l.25-.05h.25" fill="#73fb75" fill-rule="evenodd" transform="translate(.75 .75)"/><path d="m8.2 1.7.5-.7.65-.5.4.35.1.45-.1.55q-.2.35-.7.35l-.2-.05-.2-.1-.45-.35m2 1.75q-.35 0-.4-.2v-.4l.3-.35h.45l.15.45-.25.45-.25.05" fill="#fffffd" fill-rule="evenodd" transform="translate(.75 .75)"/><path d="m11.65 6.85.8-1.05q.5-.95.6-1.7l.15-1.8q.05-.95.35-1.15h.2q.9.95.9 2.3 0 1.4-1.05 2.45-.8.8-1.95.95" fill="#ceffb6" fill-rule="evenodd" transform="translate(.75 .75)"/><path d="m29.15 10.25.05.05M13.55 40.45l-.3.05m-1.8-1.05h.05" fill="none" stroke="#2d2620" stroke-linecap="round" stroke-linejoin="round" stroke-width=".5"/><path d="M7.75 3.9q.15 1.15.95 2 1.05 1 2.45 1h.4l.1-.05q1.15-.15 1.95-.95 1.05-1.05 1.05-2.45 0-1.35-.9-2.3m-6 2.75-.05-.45.1-.75" fill="none" stroke="#2d2620" stroke-linecap="round" stroke-linejoin="round" transform="translate(.75 .75)"/><path d="M29.2 10.3q2.2 3.3 3.35 6.6 2.85 8.1.4 15.3l-1.05 2.6-.85 1.45q-2.5 3.85-6.85 5.35-3.25 1.1-6.55.5h-.1q-1.85-.4-3.65-1.3h-.1l-.55-.3-1.75-1-.05-.05Q8.3 37.4 6.1 34.55" fill="none" stroke="#2d2620" stroke-linecap="round" stroke-linejoin="round" stroke-width="2"/><path d="M19.85 2.8q1.7.7 3.45 1.8 3.45 2.3 5.85 5.65m-22.8 24.5-.4-.4v-.05l-.2-.25Q3.55 31.1 2.2 27.2.1 21.05 1 15.35q.25-1.75.85-3.45 2-6 6.7-8.45l.4-1 .5-.7.65-.5.8-.4 1-.1q1.45 0 2.45 1l.15.1q2.05-.05 4.15.55l1.05.35.15.05m-5.35-.9v-.05" fill="none" stroke="#2d2620" stroke-linecap="round" stroke-linejoin="round" stroke-width="1.5"/><path d="m23.05 49.55-.5.2-.2.5.2.5q.2.2.5.2l.5-.2.2-.5-.2-.5-.5-.2m-3.4-1.5-.7-.4q-1.15-.5-2.05.5l-.2 1q-.1.85.65 1.3 3.9 2 2.3-2.4m4.4-1.8 1.35.05q3.85 4.15.6 8.25-1.75 2.25-.6 4.6-10.8-.85-10.05-10.75.2-2.35 1.8-4.4 1-1.25 2.35-2.15l4.55 4.4" fill="#feb0c0" fill-rule="evenodd" transform="translate(.75 .75)"/><path d="M25.4 46.3q8.15.75 6.6 8.25-.75 3.45-4.25 4.35l-2.35.25q-1.15-2.35.6-4.6 3.25-4.1-.6-8.25" fill="#ec748d" fill-rule="evenodd" transform="translate(.75 .75)"/><path d="m23.05 49.55.5.2.2.5-.2.5-.5.2q-.3 0-.5-.2l-.2-.5.2-.5.5-.2m-3.4-1.5q1.6 4.4-2.3 2.4-.75-.45-.65-1.3l.2-1q.9-1 2.05-.5l.7.4" fill="#fff" fill-rule="evenodd" transform="translate(.75 .75)"/><path d="m24.05 46.25 1.35.05q8.15.75 6.6 8.25-.75 3.45-4.25 4.35l-2.35.25Q14.6 58.3 15.35 48.4q.2-2.35 1.8-4.4 1-1.25 2.35-2.15" fill="none" stroke="#65009a" stroke-linecap="round" stroke-linejoin="round" transform="translate(.75 .75)"/></g><g id="g"><path d="m4.4 17.7.55.8-.55 1.1-.75 1.55-.65 1.8-.7.65-1.6-.05-.6-1.15.35-1.85q.55-2.3 1.5-4.2l-.1.9q0 1.05.5 1.3l.95.15q.5 0 .85-.4l.25-.6m4.4.7h-.1l-1.3-.2q-.45-.1-.75-1.3l-.25-1.7v-.05l.6-.05.2.15q1.3 1.15 1.6 3.1v.05" fill="#a04fac" fill-rule="evenodd" transform="translate(.5 .5)"/><path d="m2.3 15.7.4-.35.75-.1h.35q.85.15.85 1.65l-.25.8-.25.6q-.35.4-.85.4l-.95-.15q-.5-.25-.5-1.3l.1-.9.35-.65" fill="#fff" fill-rule="evenodd" transform="translate(.5 .5)"/><path d="m3.45 15.25-.75.1-.4.35.7-1.2.55-.3.85-.1q1.35 0 2.6 1l-.6.05v.05l.25 1.7q.3 1.2.75 1.3l1.3.2h.1l.1 1q0 2.35-1.4 4.2-1.4 1.8-3.15 1.8-1.65 0-2.5-.55-.65-.45-1.15-1.3l1.6.05.7-.65.65-1.8.75-1.55.55-1.1-.55-.8.25-.8q0-1.5-.85-1.65h-.35" fill="#feb0c0" fill-rule="evenodd" transform="translate(.5 .5)"/><path d="M12.75 14.15v.6q0 5.35-3.15 9.7-3 4.15-6.3 4.15l-1.75-.25-.25-.1Q-.1 26.2 0 23.8l.1-1.4.6 1.15q.5.85 1.15 1.3.85.55 2.5.55 1.75 0 3.15-1.8 1.4-1.85 1.4-4.2l-.1-1 .6.2.7.2.5-.05Q8.8 15 8.1 15l-1.1.1q-1.25-1-2.6-1l-.85.1-.55.3q2-3.2 5.2-4.85v1.75l4.55 2.75" fill="#ec748d" fill-rule="evenodd" transform="translate(.5 .5)"/><path d="M8.8 18.4v-.05q-.3-1.95-1.6-3.1L7 15.1l1.1-.1q.7 0 2.5 3.75l-.5.05-.7-.2-.6-.2" fill="#902ba1" fill-rule="evenodd" transform="translate(.5 .5)"/><path d="M3.35 30.35Q6.65 29.9 9 27.2q2-2.2 2.45-4.75.65-3.6 3.35-6.5 2.5-2.75 4.7-2.75 1.15 0 2.2 1.5 1.1 1.45 1.1 2.95l-2.6 2.3q-2.1 7.95-11.15 11.6-3.35.4-5.7-1.2" fill="#842136" fill-rule="evenodd" transform="translate(.5 .5)"/><path d="m18.45 10.35.15-.35q-.75-2.8-2.95-4.8l7-5.2 9.2 10.5-9.05 7.15q0-1.5-1.1-2.95-1.05-1.5-2.2-1.5-2.2 0-4.7 2.75-2.7 2.9-3.35 6.5Q11 25 9 27.2q-2.35 2.7-5.65 3.15-1-.75-1.85-1.85l.05-.15 1.75.25q3.3 0 6.3-4.15 3.15-4.35 3.15-9.7v-.6l.65.4.65.35q2.9-1.75 4.4-4.55" fill="#be2d4c" fill-rule="evenodd" transform="translate(.5 .5)"/><path d="m13.4 14.55-.65-.4L8.2 11.4V9.65l1.15-.55.1-.05 1.75-.9 1.05.85q1.3 1.55 1.3 4.6l-.15.95" fill="#9026a0" fill-rule="evenodd" transform="translate(.5 .5)"/><path d="m11.55 7.95 2.6-.45q.65 0 2.25 1.5l2.05 1.35q-1.5 2.8-4.4 4.55l-.65-.35.15-.95q0-3.05-1.3-4.6l-1.05-.85.35-.2" fill="#4f1957" fill-rule="evenodd" transform="translate(.5 .5)"/><path d="M15.65 5.2q2.2 2 2.95 4.8l-.15.35L16.4 9q-1.6-1.5-2.25-1.5l-2.6.45 4.1-2.75" fill="#36113d" fill-rule="evenodd" transform="translate(.5 .5)"/><path d="m15.65 5.2-4.1 2.75-.35.2-1.75.9-.1.05-1.15.55Q5 11.3 3 14.5l-.7 1.2-.35.65q-.95 1.9-1.5 4.2L.1 22.4 0 23.8q-.1 2.4 1.3 4.45l.2.25q.85 1.1 1.85 1.85 2.35 1.6 5.7 1.2 9.05-3.65 11.15-11.6l2.6-2.3 9.05-7.15L22.65 0l-7 5.2z" fill="none" stroke="#681e7b" stroke-linecap="round" stroke-linejoin="round" transform="translate(.5 .5)"/></g><g id="h"><path d="m.75 19-.25-.95-.3-1.45q2.05 2.5 3.7 2.9l-.05.05q-2.05 0-3.1-.55M6.35.45 7 0l6.6-4.85L12.4 6.1q0 .95-.55 2.55l-.9 2.2-.05.2-.2.4-1.8 3.4.1-1.35q0-1.4-.55-3.15L7.35 7.9q-.35-.55-1-.8l.1-.35L7.6 5.4q.8-.95.8-1.85 0-.7-.6-1.7Q7.25 1 6.35.45" fill="#ec748d" fill-rule="evenodd" transform="translate(.5 6.15)"/><path d="m13.6-4.85 6.35-.8q1.75 6.15-.9 9.4L15.6 7.5q-.8.55-1.6 2.05l-.2.45.85.05q1.95.45 3.35 2.45 1.6 2.3 1.6 5.6 0 1.2-.8 2.5l-1.15 1.15q-1.85 1.4-4.2 1.85l-4.8.55q-2.2.05-4.05-.95 2.35-.7 3.7-1.5 3.25-1.9 3.25-5l-.35-2.15q-.4-1.45-.4-2.5l.1-1 .05-.2.9-2.2q.55-1.6.55-2.55l1.2-10.95m1.6 20.95Q12.5 13 13.8 10q-1.3 3 1.4 6.1" fill="#842136" fill-rule="evenodd" transform="translate(.5 6.15)"/><path d="m4.6 23.2-1-.6-1.5-1.35Q1.25 20.35.75 19q1.05.55 3.1.55H4q1.5-.05 2.2-.75l2.6-3.75.1-.2 1.8-3.4.2-.4-.1 1q0 1.05.4 2.5l.35 2.15q0 3.1-3.25 5-1.35.8-3.7 1.5" fill="#a55161" fill-rule="evenodd" transform="translate(.5 6.15)"/><path d="m.95 7.65 1.1-2.5q1.6-2.9 4.15-4.6l.15-.1q.9.55 1.45 1.4.6 1 .6 1.7 0 .9-.8 1.85L6.45 6.75l-.1.35-2.1-.35-2 .4-1.3.5" fill="#9026a0" fill-rule="evenodd" transform="translate(.5 6.15)"/><path d="m.75 8.3.2-.65 1.3-.5 2-.4 2.1.35q-.5.75-1.15 1.1l-2.35.35-2.1-.25" fill="#a24eac" fill-rule="evenodd" transform="translate(.5 6.15)"/><path d="M2.3 10.9v.1q0 .4.25.65t.65.25l.6-.25.25-.35 1 .35v3.65l-2.25.3q-.25 0-1-1.2-.75-1.25-.75-1.85l.65-.9.6-.75" fill="#a04fac" fill-rule="evenodd" transform="translate(.5 6.15)"/><path d="M.2 16.6 0 13.5q0-2.75.75-5.2l2.1.25L5.2 8.2q.65-.35 1.15-1.1.65.25 1 .8l1.1 2.45Q9 12.1 9 13.5l-.1 1.35-.1.2-2.6 3.75q-.7.7-2.2.75l-.1-.05q-1.65-.4-3.7-2.9m2.1-5.7-.6.75-.65.9q0 .6.75 1.85.75 1.2 1 1.2l2.25-.3v-3.65l-1-.35.05-.3-.3-.65-.6-.25q-.4 0-.65.25l-.25.55" fill="#feb0c0" fill-rule="evenodd" transform="translate(.5 6.15)"/><path d="m4.05 11.3-.25.35-.6.25q-.4 0-.65-.25T2.3 11v-.1l.25-.55q.25-.25.65-.25l.6.25.3.65-.05.3" fill="#eeddf0" fill-rule="evenodd" transform="translate(.5 6.15)"/><path d="m13.6-4.85 6.35-.8q1.75 6.15-.9 9.4L15.6 7.5q-.8.55-1.6 2.05l-.2.45.85.05q1.95.45 3.35 2.45 1.6 2.3 1.6 5.6 0 1.2-.8 2.5l-1.15 1.15q-1.85 1.4-4.2 1.85l-4.8.55q-2.2.05-4.05-.95l-1-.6-1.5-1.35Q1.25 20.35.75 19l-.25-.95-.3-1.45-.2-3.1q0-2.75.75-5.2l.2-.65 1.1-2.5q1.6-2.9 4.15-4.6l.15-.1L7 0l6.6-4.85M13.8 10q-1.3 3 1.4 6.1" fill="none" stroke="#681e7b" stroke-linecap="round" stroke-linejoin="round" transform="translate(.5 6.15)"/></g><g id="i"><path d="m3.35 45.3 1.85-2.2L9 38.95l3.8-3.9q2.85-2.75 5.95-5.15l.2-.05q.3 3.75 2.8 6.55l1.2.9.85.15q4.25-1 5.4-5.15.3-1.25-.1-2.35-1-2.8-3.4-4.75h-.35l4.6-4.2 3.6-1.1q1.5 1 2.1 2.7l2.05 6.6.9 2.65.45 1.1.25.55q.75 1.65 1.85 3.1 2.55 3.2 5.8 5.45l5.9 4.2 1.2.8 4.65 2.05q3.2 1.4 6.5 2.45l.85.2-.2.95q-.7 2.25-.35 4.55 0 .35.35.6.5.4 1.15.5l4.75.65 1.2 5.6-2 .8-.35.4q-.2.7.4 1l2.15 1.5q.15 3.55-.8 6.95l-.6 2.05L70 74.6l-3.95.45q-.95 1.1-.9 2.6 0 1.05.75 1.5l2 1.3q1.05.7 2.15.85-1.55 3.5-4.45 6.05l-1.9 1.55q-3.05 2.2-6.4 3.8l-4.8 2.1q-3.25 1.3-6.75 1.5-3.7.3-7.15-.95-3.55-1.25-6.45-3.8-2.7-2.45-4.35-5.85-1.7-3.65-4.05-6.85l-.6-.6-.2-.1-.55.15-.55.3-.4.35-.15.1-1.15-.25q-1.05.25-.95 1.55l.2 2q.3 1.8-.3 3.55l-.5.95-.4.4-3.5 2.4-2.9 1.55-1.4-1.55q-2-2.25-3.7-4.85-2.25-3.4-3.7-7.05Q1.55 74.1.8 70.2q-.55-3-.75-6.05-.15-3.25.2-6.55.35-3.15 1.1-6.3.8-3.05 2-6m40.3 6.6q-.3.35-.3.8 0 .55.15.75l.6.2q.7 0 .7-.95 0-1.05-.85-1.05l-.15.05-.15.2m-27.7-7.1-.05-.05v.05h.05m-.3-2.8.05-.05-.05-.05v.1m35.45 4.35q-.7-.65-1.35-.65h-.2l-.7.6-.3.4q-.35.55-.35 1.85 0 1.05.75 1.7.6.55 1.25.55.85 0 1.35-.7l.45-1.45q0-1.45-.9-2.3" fill="#feb0c0" fill-rule="evenodd" transform="translate(.5 -17.9)"/><path d="m29.95 21-4.6 4.2h.35q2.4 1.95 3.4 4.75.4 1.1.1 2.35-1.15 4.15-5.4 5.15l-.85-.15-1.2-.9q-2.5-2.8-2.8-6.55l-.2.05q-3.1 2.4-5.95 5.15L9 38.95 5.2 43.1l-1.85 2.2.95-1.9q1.4-2.85 3.35-5.5 1.95-2.65 4.2-5.1 2.55-2.7 5.4-4.9 2.9-2.25 6.15-3.95 3.2-1.7 6.55-2.95m13.7 30.9.15-.2.15-.05q.85 0 .85 1.05 0 .95-.7.95l-.6-.2q-.15-.2-.15-.75 0-.45.3-.8m7.45-5.55q.9.85.9 2.3l-.45 1.45q-.5.7-1.35.7-.65 0-1.25-.55-.75-.65-.75-1.7 0-1.3.35-1.85l.3-.4.7-.6h.2q.65 0 1.35.65" fill="#fff" fill-rule="evenodd" transform="translate(.5 -17.9)"/><path d="m18 96.7-1.05-.8q-2.45-1.85-4.55-4.1l2.65-1.1q2.35-.9 4.3-2.5l1.05-1.1.45-1.05v-1.7q-.3-1.7.05-3.25l.85-.55.9-.15.35-.2.25-.15h.1V80q.55.4.7 1l.4 1.25q1.15 3.65 1.25 7.4.05 1.7.45 3.25.65 2.7 2.65 4.7 2.85 2.9 6.7 4.2 3.85 1.3 7.8.45l2.85-.6 7.65-1.85 2.05-.6 5-1.85-9.2 3.95q-6.6 2.5-12.5 2.55-5.95 0-11.45-3.95l-3.75-2.75Q22 95.9 20.15 95.9q-.8 0-1.55.4l-.6.4" fill="#be2f4d" fill-rule="evenodd" transform="translate(.5 -17.9)"/><path d="m11.8 91.2 2.9-1.55 3.5-2.4.4-.4.5-.95q.6-1.75.3-3.55l-.2-2q-.1-1.3.95-1.55l1.15.25.15-.1.4-.35.55-.3.55-.15.2.1.6.6q2.35 3.2 4.05 6.85 1.65 3.4 4.35 5.85 2.9 2.55 6.45 3.8 3.45 1.25 7.15.95 3.5-.2 6.75-1.5l4.8-2.1q3.35-1.6 6.4-3.8l1.9-1.55q2.9-2.55 4.45-6.05l1.1-.35q1.1-.6 1.35-1.75l-.75-1.9.6-2.05q.95-3.4.8-6.95l1.85 2q.5.6 1.25.65l1.25-.35q1.95-.1 3.65-.9.6-.3.6-.95-.1-1-.8-1.75l-2.35-2.15-.85-.6q-.7-.4-1.5-.55-1.75.25-3.3.9l-1.2-5.6 1.5.15 2.15-5.25 4 1-.5.8q-.35.6-.45 1.3-.45 2.65.1 5.35l.4.85q1.05 1.45 3 1.4l-.05 4.15-1.25 6.2q-2.3 1-3.8 3.05l-.75 1.3-1.4 4.15q-.35 1.2-.55 2.45l-3.45 3.25q-1 0-1.65.6-.7.55-.7 1.4l-4.5 3.15-.4.25-5.6 3.15-4.05 2.1-7.65 1.85-2.85.6q-3.95.85-7.8-.45-3.85-1.3-6.7-4.2-2-2-2.65-4.7-.4-1.55-.45-3.25-.1-3.75-1.25-7.4l-.4-1.25q-.15-.6-.7-1v.05h-.1l-.25.15-.35.2-.9.15-.85.55q-.35 1.55-.05 3.25v1.7l-.45 1.05-1.05 1.1q-1.95 1.6-4.3 2.5l-2.65 1.1-.6-.6" fill="#ec748d" fill-rule="evenodd" transform="translate(.5 -17.9)"/><path d="M74.1 27.4q3 2.3 5.65 4.95l3.3 3.7 2.25 3.05q1 3.45 2.15 10.8 1.4 8.45 1.75 12.75v.7l-.1 3.2-.45 6.5-.6 7.05q-1.4 3.15-3.5 6-2.05 2.9-4.65 5.45l-3.2 2.95q-2.7 2.45-5.75 4.3.2-1.5-.8-2.6-1.2-1.3-1.8-3l5.05-3.75 1.3.35-.15-1.25q2.7-1.75 4.75-4.2 2.3-2.9 3.5-6.4l.9-3.15 1.4-.25-.9-2.35.25-4.05 1.25-1.45-1.35-1.1q-.25-3.55-1.65-6.8-.85-2-2.45-3.45l-.4-.95 3.7-3.7-4.85-1.4q-3.25-1-5-3.85l-1.15-2.35q-.5-1.35-.7-2.85-.6-3.85.25-7.65.6-2.75 2-5.2" fill="#36113d" fill-rule="evenodd" transform="translate(.5 -17.9)"/><path d="m86.8 41.55 2.15 4.55q1.35 3.1 2.05 6.3l.95 6.8q.25 3.85-.1 7.65L90.8 72.6q-1 3.85-2.75 7.5l.6-7.05.45-6.5.1-3.2v-.7l.05-1.85-.15-7.55q-.15-3.1-.65-6.1-.45-2.95-1.65-5.6" fill="#7991ff" fill-rule="evenodd" transform="translate(.5 -17.9)"/><path d="m45.15 38.85-2.1-2.55q-1.7-2.6-2.75-5.55-1.2-3.4-2.1-6.75-.75-2.9-3.2-4.45l5.4-.85 7.65-.25 7.6.85q3.7.75 7.15 2 3.45 1.3 6.65 3.15 2.4 1.3 4.65 2.95-1.4 2.45-2 5.2-.85 3.8-.25 7.65.2 1.5.7 2.85l-.2.1q-4.55 1.2-6.9 1.2-9.3 0-17.5-4.05l-2.8-1.5" fill="#be2e4f" fill-rule="evenodd" transform="translate(.5 -17.9)"/><path d="M70.95 98.8q-1.4.8-2.8 1.55-3.5 1.95-7.35 3.15l-6.3 1.55-6.7.6-6.4-.2-6.7-1q-3.25-.75-6.35-2-3.05-1.2-5.85-2.8-2.35-1.3-4.5-2.95l.6-.4q.75-.4 1.55-.4 1.85 0 3.8 1.25l3.75 2.75q5.5 3.95 11.45 3.95 5.9-.05 12.5-2.55l9.2-3.95.7-.35q3.65-1.6 6.8-3.8.6 1.7 1.8 3 1 1.1.8 2.6m-25.8-59.95 2.8 1.5q8.2 4.05 17.5 4.05 2.35 0 6.9-1.2l.2-.1 1.15 2.35q1.75 2.85 5 3.85l4.85 1.4-3.7 3.7-.1-.2q-.95-2-2.55-3.45-1.3-1.15-2.6-1.8l-5.3-1.7-7.05-1.7-6.3-1.5q-3.3-.85-7.1-2.7-2.15-1.05-3.7-2.5m39.3 29.3-.1-2.55 1.35 1.1-1.25 1.45m-.75 6.65.5-2.6.9 2.35-1.4.25m-9.15 13.75.15 1.25-1.3-.35 1.15-.9" fill="#842136" fill-rule="evenodd" transform="translate(.5 -17.9)"/><path d="M81.95 64.6q-1.95.05-3-1.4l-.4-.85q-.55-2.7-.1-5.35.1-.7.45-1.3l.5-.8.45-.5.4.95q1.4 3.2 1.6 6.7l.1 2.55m-7.8 21.3q.2-1.25.55-2.45l1.4-4.15.75-1.3q1.5-2.05 3.8-3.05Q80 78.7 78 81.35l-3.85 4.55m-3.45 3.25-2.35 2q0-.85.7-1.4.65-.6 1.65-.6" fill="#9026a2" fill-rule="evenodd" transform="translate(.5 -17.9)"/><path d="m85.3 39.1 1.35 2.15.15.3q1.2 2.65 1.65 5.6.5 3 .65 6.1l.15 7.55-.05 1.85q-.35-4.3-1.75-12.75-1.15-7.35-2.15-10.8" fill="#4d1957" fill-rule="evenodd" transform="translate(.5 -17.9)"/><path d="m84.45 68.15-1.55 1.7 1.3 2.35-.5 2.6-3.05.15 1.25-6.2.05-4.15 2.4 1 .1 2.55" fill="#bc304d" fill-rule="evenodd" transform="translate(.5 -17.9)"/><path d="m81.95 64.6-.1-2.55q-.2-3.5-1.6-6.7 1.6 1.45 2.45 3.45 1.4 3.25 1.65 6.8l-2.4-1m2.25 7.6-1.3-2.35 1.55-1.7-.25 4.05m-3.55 2.75 3.05-.15-.9 3.15q-1.2 3.5-3.5 6.4-2.05 2.45-4.75 4.2l-.4-2.65L78 81.35q2-2.65 2.65-6.4m-7.25 14.5-5.05 3.75v-2.05l2.35-2 2.7.3" fill="#501a58" fill-rule="evenodd" transform="translate(.5 -17.9)"/><path d="m74.15 85.9.4 2.65-1.15.9-2.7-.3 3.45-3.25m-5.8 5.25v2.05q-3.15 2.2-6.8 3.8l-.7.35-5 1.85-2.05.6 4.05-2.1 5.6-3.15.4-.25 4.5-3.15" fill="#bf304e" fill-rule="evenodd" transform="translate(.5 -17.9)"/><path d="m65.85 52.7.2-.95 9.35 2.15-2.15 5.25-1.5-.15q-1.4-3.8-4.95-5.85l-.95-.45m7.1 11.9q1.55-.65 3.3-.9.8.15 1.5.55l.85.6L80.95 67q.7.75.8 1.75 0 .65-.6.95-1.7.8-3.65.9l-1.25.35q-.75-.05-1.25-.65l-1.85-2-.2-3.7" fill="#9127a1" fill-rule="evenodd" transform="translate(.5 -17.9)"/><path d="m75.4 53.9-9.35-2.15.25-.95q3.55-1.75 7.3-.6.75.2 1.35.75 1.3 1.25.45 2.95" fill="#651b70" fill-rule="evenodd" transform="translate(.5 -17.9)"/><path d="M70.05 81.3q-1.1-.15-2.15-.85l-2-1.3q-.75-.45-.75-1.5-.05-1.5.9-2.6L70 74.6l1.75 2.7-1.7 4m3.1-13L71 66.8q-.6-.3-.4-1l.35-.4 2-.8.2 3.7m-1.4-9.3L67 58.35q-.65-.1-1.15-.5-.35-.25-.35-.6-.35-2.3.35-4.55l.95.45q3.55 2.05 4.95 5.85" fill="#a04fac" fill-rule="evenodd" transform="translate(.5 -17.9)"/><path d="m71.75 77.3.75 1.9q-.25 1.15-1.35 1.75l-1.1.35 1.7-4" fill="#9026a0" fill-rule="evenodd" transform="translate(.5 -17.9)"/><path d="M65.2 51.55q-3.3-1.05-6.5-2.45l-4.65-2.05 6.5 1.5q3.05.55 4.65 3" fill="#b17b88" fill-rule="evenodd" transform="translate(.5 -17.9)"/><path d="m66.05 51.75-.85-.2q-1.6-2.45-4.65-3l-6.5-1.5-1.2-.8-5.9-4.2q-3.25-2.25-5.8-5.45-1.1-1.45-1.85-3.1l-.25-.55-.45-1.1-.9-2.65-2.05-6.6q-.6-1.7-2.1-2.7l1.45-.35q2.45 1.55 3.2 4.45.9 3.35 2.1 6.75 1.05 2.95 2.75 5.55l2.1 2.55q1.55 1.45 3.7 2.5 3.8 1.85 7.1 2.7l6.3 1.5 7.05 1.7 5.3 1.7q1.3.65 2.6 1.8 1.6 1.45 2.55 3.45l.1.2-.45.5-4-1q.85-1.7-.45-2.95-.6-.55-1.35-.75-3.75-1.15-7.3.6l-.25.95" fill="#a55161" fill-rule="evenodd" transform="translate(.5 -17.9)"/><path d="M29.95 21q-3.35 1.25-6.55 2.95-3.25 1.7-6.15 3.95-2.85 2.2-5.4 4.9-2.25 2.45-4.2 5.1-1.95 2.65-3.35 5.5l-.95 1.9q-1.2 2.95-2 6-.75 3.15-1.1 6.3-.35 3.3-.2 6.55.2 3.05.75 6.05.75 3.9 2.2 7.55 1.45 3.65 3.7 7.05 1.7 2.6 3.7 4.85l1.4 1.55.6.6q2.1 2.25 4.55 4.1l1.05.8q2.15 1.65 4.5 2.95 2.8 1.6 5.85 2.8 3.1 1.25 6.35 2l6.7 1 6.4.2 6.7-.6 6.3-1.55q3.85-1.2 7.35-3.15 1.4-.75 2.8-1.55 3.05-1.85 5.75-4.3l3.2-2.95q2.6-2.55 4.65-5.45 2.1-2.85 3.5-6 1.75-3.65 2.75-7.5l1.05-5.75q.35-3.8.1-7.65L91 52.4q-.7-3.2-2.05-6.3l-2.15-4.55-.15-.3-1.35-2.15-2.25-3.05-3.3-3.7Q77.1 29.7 74.1 27.4q-2.25-1.65-4.65-2.95-3.2-1.85-6.65-3.15-3.45-1.25-7.15-2l-7.6-.85-7.65.25-5.4.85-1.45.35-3.6 1.1z" fill="none" stroke="#681e7b" stroke-linecap="round" stroke-linejoin="round" transform="translate(.5 -17.9)"/><path d="m13.3 99.2.4-1.25q.3-.5 1.05-.5 1 0 2.05 1l2.85 2.45q1.2.75 3.7 1.7l4 1.15 8.5 1.75 9.15.6q-16.35 3.5-29.4-4.65l-2.3-2.25" fill="#842135" fill-rule="evenodd" transform="translate(.5 -17.9)"/><path d="m47.75 105.4-2.75.7-9.15-.6-8.5-1.75-4-1.15q-2.5-.95-3.7-1.7l-2.85-2.45q-1.05-1-2.05-1-.75 0-1.05.5l-.4 1.25L2.5 88.75l4.8-3.1q20.1 11.4 40.45 19.75" fill="#be2f4d" fill-rule="evenodd" transform="translate(.5 -17.9)"/><path d="m45 106.1 2.75-.7M2.5 88.75 13.3 99.2l2.3 2.25q13.05 8.15 29.4 4.65" fill="none" stroke="#65009a" stroke-linecap="round" stroke-linejoin="round" transform="translate(.5 -17.9)"/><path d="M18.95 41.75h.25l1.6.3q-.3 1.05-.75 1.3l-1.3.15h-.7q-1.6-.75-2.7-.85l2.05-.6.25-.05q.15.6.55.6l.6-.25.15-.6m-5.85-2.5-.15-1.6v-.25l.65-.8-.1-.4-.35-.25.2-.7.55-.95q.35.75.35 1.6 0 2.65-1.15 3.35M6 42.85l-.25-.8q0-.45.5-.75.2-.15.45-.2l.85-.15q.9 0 2.2.85-.2.9-.65 1.1l-1.35.15H6.7l-.7-.2m.8-1.7-.1.55q0 .5.5.5.55 0 .55-.55l-.35-.4-.6-.1m6.85 3.45.05.1.15.55.2.8.05.2v1.5q0 1.2-.7 2.5l-.6.95-.1.2-.15.1q-.45-.45-.45-1.4l.05-.4.75.05q.5-.15.5-.85l-.15-.4-.1-.1-.5-.45.25-.75.75-2.6" fill="#a8fc06" fill-rule="evenodd" transform="translate(.5 -17.9)"/><path d="m20.8 42.05.35.2q.7.5.7 1.45l-.1.35-.1.1-.2.2-.7.25-2.4-.95-.3-.15h.7l1.3-.15q.45-.25.75-1.3m-6.9-7.75.15-.1.4-.1.35.1.15.1.25 1.15q0 1.35-.9 2.8-.75 1.25-.85 2.9l-.25-1.3-.1-.6q1.15-.7 1.15-3.35 0-.85-.35-1.6m-.45 7.5-.05.1v-.1h.05m-3.7 0 .1.05q1.3.9 2 .9l.75-.1-1.45.8-1.9.35-1.85-.2-1.4-.75.7.2h1.05l1.35-.15q.45-.2.65-1.1m4 10h-.25l-.65-.15-.3-.15.15-.1.1-.2.6-.95q.7-1.3.7-2.5v-1.5l.35 1.2.2 1.7q0 2.05-.65 2.5l-.15.1-.1.05" fill="#609009" fill-rule="evenodd" transform="translate(.5 -17.9)"/><path d="m21.75 44.05.05.15-.1.95q-.25.35-1 .35-1.25 0-3-1.25l-1.5-.5q-1-.3-.85-1.1 1.1.1 2.7.85l.3.15 2.4.95.7-.25.2-.2.1-.1m-6.8-9.75q.95.1.55 2.35-.35 2.25-1.3 3.8l-.75 1.35h-.05v-.25l.05-.4q.1-1.65.85-2.9.9-1.45.9-2.8l-.25-1.15m-2.35 8.35q-.1.75-.85 1.3-.9.6-2 .6l-1.3-.3-1.05-.65 1.85.2 1.9-.35 1.45-.8m1.1 2.05q.2 0 .6.3l.6.8.25.75.4 2.7q.2 1.9-1.15 2.4l-.5.15-.05-.05.15-.1q.65-.45.65-2.5l-.2-1.7-.35-1.2-.05-.2-.2-.8-.15-.55" fill="#b17b89" fill-rule="evenodd" transform="translate(.5 -17.9)"/><path d="m17.65 42 1.3-.25-.15.6-.6.25q-.4 0-.55-.6m-4.7-4.6.2-1.45.35.25.1.4-.65.8M6.8 41.15l.6.1.35.4q0 .55-.55.55-.5 0-.5-.5l.1-.55m5.35 8.55.5-1.75.5.45.1.1.15.4q0 .7-.5.85l-.75-.05" fill="#eeffcb" fill-rule="evenodd" transform="translate(.5 -17.9)"/><path d="M18.95 41.75h.25l1.6.3.35.2q.7.5.7 1.45l-.1.35-.1.1-.2.2-.7.25-2.4-.95-.3-.15q-1.6-.75-2.7-.85l2.05-.6.25-.05 1.3-.25M13.9 34.3l.15-.1.4-.1.35.1.15.1.25 1.15q0 1.35-.9 2.8-.75 1.25-.85 2.9l-.25-1.3-.1-.6-.15-1.6v-.25l.2-1.45.2-.7.55-.95m-.5 7.5v-.25l.05-.4m-3.7.65.1.05q1.3.9 2 .9l.75-.1-1.45.8-1.9.35-1.85-.2-1.4-.75-.25-.8q0-.45.5-.75.2-.15.45-.2l.85-.15q.9 0 2.2.85m3.9 2.55v.25l-.75 2.6-.25.75-.5 1.75-.05.4q0 .95.45 1.4l.3.15.65.15h.25l.1-.05.15-.1q.65-.45.65-2.5l-.2-1.7-.35-1.2-.05-.2-.2-.8-.15-.55m.2 7.1-.35.05.2-.05" fill="none" stroke="#030" stroke-linecap="round" stroke-linejoin="round" transform="translate(.5 -17.9)"/></g><g id="j"><path d="m49.2 64.65-.2-.05-.2-.1-3-1.2 2.15-1.35q15.5-7.85 16.8 4.15l-.55.45q-.7 0-1.05-.75l-.6-1.65q-1.05-2.4-4.9-2.4-3.1 0-5.85 1.35-1.05.5-2.5 1.5l-.05-.45v.5h-.05M33.85 67q-.7.4-1.45 1.7l-.2.3-.1-.05q-2.15-2.1-2.1-4.65 1.4 2.15 3.85 2.7m21.85.85.1.2q.8 1.95.8 4.9v.9q-.25 4.85-3.15 7.9l-.25.25-.1.1q-2.15 2.15-3.95 2.15l-1-.25q3.2-1.5 4.95-5.95l.2-.5.85-3q.45-6.55-3.95-9.4l-.25-.2-.45-.2.7-.3 1.1-.4.1-.05h.15q2.55 1.3 3.6 2.85l.55 1" fill="#a55161" fill-rule="evenodd" transform="translate(-.8 -58.3)"/><path d="m46.75 66.45-.5-.5-1.3-.25q-2.1 0-2.95.65-1.05.85-1.35 3.3h-.1v.2l-3.75.55q-2.1 0-4.6-1.4l.2-.3q.75-1.3 1.45-1.7 4.25.8 11.8-3.6l.15-.1 3 1.2.2.1.2.05-.65.5h-.05l-.25.2-1.05.75-.45.35" fill="#754b0f" fill-rule="evenodd" transform="translate(-.8 -58.3)"/><path d="M49.5 64.8h-.05l-.1-.05v-.05l-.05-.1q1.45-1 2.5-1.5 2.75-1.35 5.85-1.35 3.85 0 4.9 2.4l.6 1.65q.35.75 1.05.75l.55-.45.05.15v.3q-.3.5-1.35.5-1.3 0-2.85-2.2t-3.25-2.2l-2.15.25-2.25.55 1.65 1.75q.85 1.25 1.1 2.65l-.55-1Q54.1 65.3 51.55 64v-.1l-.15.1-.1.05-1.1.4-.7.3v.05l-.15-.1.15.1m-.25-.1-.05-.05h.05v.05m7.35 9.15q.2 4.05-1.05 6.3-1.05 1.95-2.25 1.95l-.1-.1.25-.25q2.9-3.05 3.15-7.9" fill="#eb738c" fill-rule="evenodd" transform="translate(-.8 -58.3)"/><path d="m48.15 84-.05-.05-.4-.6q0-.4 2.45-2.25 2.2-1.65 2.95-3.05-1.75 4.45-4.95 5.95" fill="#a99e1e" fill-rule="evenodd" transform="translate(-.8 -58.3)"/><path d="m48.85 70.1.55-1.75.35-2.4-.25-1.15.45.15.25.2q4.4 2.85 3.95 9.4l-.85 3-.2.5q-.75 1.4-2.95 3.05-2.45 1.85-2.45 2.25l.4.6.05.05q-2.7 1.25-6.5.4-8.65-2.45-10-8.55 1.25 1.25 3.75 2.05 2.3.75 3.95.9v.2q0 .65.55 1.1.55.45 1.35.45.75 0 1.2-.5l.35-1-.1-.45 1.4-.75 1-.7h.85q1.85 0 2.9-1.4.85-1.25.85-2.9 0-1.85-.8-2.65l-.05-.1" fill="#f2e22b" fill-rule="evenodd" transform="translate(-.8 -58.3)"/><path d="m46.75 66.45.45-.35 1.05-.75.25-.2h.05l.65-.5.05.05.1.05.1.05h.05l.25 1.15-.35 2.4-.55 1.75q-.55-.45-1.7-.75l.1-1.05-.3-1.55-.2-.3M32.2 69q2.5 1.4 4.6 1.4l3.75-.55q.15 1.4.75 1.85.4.3 1.5.4-.2.3-.25.7v.95q0 1.85 1.05 2.75l1.5.65-1 .7-1.4.75q-.2-.65-.75-.95-.6-.35-1.2-.35-.9.25-1.15.6-.2.3-.25.9-1.65-.15-3.95-.9-2.5-.8-3.75-2.05-.6-2.85.3-6.4l.25-.45m6 4.7q0 .55.4.85l.65.25q.85 0 .85-.9 0-1.4-1.5-1.05-.4.25-.4.85" fill="#a86c14" fill-rule="evenodd" transform="translate(-.8 -58.3)"/><path d="M40.55 69.85v-.1l.1-.1 6.1-3.2.2.3.3 1.55-.1 1.05q-.3.9-.95 1.6-1.1 1.15-2.8 1.15h-.6q-1.1-.1-1.5-.4-.6-.45-.75-1.85M38.2 73.7q0-.6.4-.85 1.5-.35 1.5 1.05 0 .9-.85.9l-.65-.25q-.4-.3-.4-.85" fill="#fff" fill-rule="evenodd" transform="translate(-.8 -58.3)"/><path d="M47.15 69.35q1.15.3 1.7.75l.05.1q.8.8.8 2.65 0 1.65-.85 2.9-1.05 1.4-2.9 1.4h-.85l-1.5-.65q-1.05-.9-1.05-2.75v-.95q.05-.4.25-.7h.6q1.7 0 2.8-1.15.65-.7.95-1.6m-7.8 9.45q.05-.6.25-.9.25-.35 1.15-.6.6 0 1.2.35.55.3.75.95l.1.45-.35 1q-.45.5-1.2.5-.8 0-1.35-.45t-.55-1.1v-.2" fill="#f69312" fill-rule="evenodd" transform="translate(-.8 -58.3)"/><path d="M40.65 69.65q.3-2.45 1.35-3.3.85-.65 2.95-.65l1.3.25.5.5-6.1 3.2" fill="#b2b2b2" fill-rule="evenodd" transform="translate(-.8 -58.3)"/><path d="m45.8 63.3-.15.1q-7.55 4.4-11.8 3.6-2.45-.55-3.85-2.7-.05 2.55 2.1 4.65l.1.05m17.3-4.2h-.05l-.1-.05-.1-.05-.05-.05h.05l.05-.05.05.1.15.1v-.05l.45.2-.45-.15m15.25 1.3q-1.3-12-16.8-4.15L45.8 63.3m-13.85 6.15q-.9 3.55-.3 6.4 1.35 6.1 10 8.55 3.8.85 6.5-.4 3.2-1.5 4.95-5.95l.2-.5.85-3q.45-6.55-3.95-9.4l-.25-.2m-18 4.5.15-.5m32.7-2.4v-.3l-.05-.15m-15.4-1.4h-.1v-.05m.1.1v-.05" fill="none" stroke="#681e7b" stroke-linecap="round" stroke-linejoin="round" transform="translate(-.8 -58.3)"/><path d="m5.2 61.9-.75-.85-.85-.75-.5-.65q0-.55.6-.75l.45.15.2.1q.8.4 1.55 1.3-.25.15-.6 1.1l-.1.35" fill="#a65166" fill-rule="evenodd" transform="translate(-.8 -58.3)"/><path d="m5.2 61.9.1-.35q.35-.95.6-1.1 1.05 1.25 2.05 3.5l.4.9-.6-.05q-.4 0-.8.3l-.15-.35-.95-1.8-.1-.1-.05-.1-.5-.85" fill="#754c0e" fill-rule="evenodd" transform="translate(-.8 -58.3)"/><path d="M6.95 65.1q.4-.3.8-.3l.6.05 1 2.15.1.15q-.3.8-1.1 1l-1.4-3.05" fill="#b3b3b3" fill-rule="evenodd" transform="translate(-.8 -58.3)"/><path d="m6.95 65.1 1.4 3.05-.5.1h-.1l-1.05-.3-.3-.25v.5l-.55.25q-.5.05-.65-.75-.2-.8.95-.7l-.05-.25q0-.75.55-1.35l.3-.3" fill="#fff" fill-rule="evenodd" transform="translate(-.8 -58.3)"/><path d="m5.15 62.05.05-.15.5.85.05.1.1.1.95 1.8.15.35-.3.3q-.55.6-.55 1.35l.05.25q-1.15-.1-.95.7.15.8.65.75l.55-.25v-.5l.3.25 1.05.3h.1l-.15.4-.1.7q0 .9.7 1.45l.1.1-.4.55q-.8.75-1.95.75-.85 0-1.3-.45H4.7l-.35-3.1q-.1-1.65.1-3.25l.7-3.35m.5 7.95q-.35.15-.35.65 0 .85.8.85l.5-.2.25-.45q0-.9-.6-.9l-.6.05" fill="#a96b16" fill-rule="evenodd" transform="translate(-.8 -58.3)"/><path d="m8.35 68.15.9 1.5 1.45 1.1-1.05.55q-.7 0-1.25-.4l-.1-.1q-.7-.55-.7-1.45l.1-.7.15-.4.5-.1" fill="#f59411" fill-rule="evenodd" transform="translate(-.8 -58.3)"/><path d="M8.35 68.15q.8-.2 1.1-1l.2.35q.8 1.3 1.7 1.55l-.5 1.45-.15.25-1.45-1.1-.9-1.5" fill="#ab680d" fill-rule="evenodd" transform="translate(-.8 -58.3)"/><path d="M8.5 76.6h-.45q-1.25-.15-2.15-1.65l.5.25 1.35.25q1.3 0 2.6-1.5l1.35-2.3q-.1 1.95-.95 3.35-.9 1.5-2.25 1.6m2.85-7.55.25.05.1 1.9-1-.25.15-.25.5-1.45" fill="#ab9d20" fill-rule="evenodd" transform="translate(-.8 -58.3)"/><path d="m5.9 74.95-.1-.2-.65-1.5-.4-1.5q.45.45 1.3.45 1.15 0 1.95-.75l.4-.55q.55.4 1.25.4l1.05-.55 1 .25v.65l-1.35 2.3q-1.3 1.5-2.6 1.5L6.4 75.2l-.5-.25" fill="#f2e22b" fill-rule="evenodd" transform="translate(-.8 -58.3)"/><path d="M13.15 68.5h.05l.35.35.2.7.05.25.05.35.2 2.4q0 2.95-1.65 4.1-.95.65-2.3.75.6-.1 1.35-.75l.45-.45q1.35-1.6 1.35-4.15l-.1-1.3.1-.05.35-.75q.15-.55-.65-1.3l.2-.15" fill="#e7728c" fill-rule="evenodd" transform="translate(-.8 -58.3)"/><path d="M10.1 77.4h-.25q-.45 0-.95-.45l-.3-.3-.1-.05q1.35-.1 2.25-1.6.85-1.4.95-3.35V71l-.1-1.9h.2q.55 0 1.15-.45.8.75.65 1.3l-.35.75-.1.05.1 1.3q0 2.55-1.35 4.15l-.45.45q-.75.65-1.35.75" fill="#a55063" fill-rule="evenodd" transform="translate(-.8 -58.3)"/><path d="M5.9 60.45q-.75-.9-1.55-1.3 1.9.85 3.3 2.95l2 3.25q1 1.9 1.75 2.4l1.75.75-.2.15q-.6.45-1.15.45h-.2l-.25-.05q-.9-.25-1.7-1.55l-.2-.35-.1-.15-1-2.15-.4-.9q-1-2.25-2.05-3.5" fill="#d795a1" fill-rule="evenodd" transform="translate(-.8 -58.3)"/><path d="m5.15 62.05-1-.95q-.25-.15-1.95-.55-1.05-.2-.9-1.2.35-.4.85-.5l.95-.05.6.1q-.6.2-.6.75l.5.65.85.75.75.85-.05.15" fill="#eb738c" fill-rule="evenodd" transform="translate(-.8 -58.3)"/><path d="m3.7 58.9-.6-.1-.95.05q-.5.1-.85.5m3.05-.2-.2-.1-.45-.15m1.5 3 .1-.35q.35-.95.6-1.1-.75-.9-1.55-1.3M8.5 76.6h-.45q-1.25-.15-2.15-1.65l-.1-.2-.65-1.5-.4-1.5H4.7l-.35-3.1q-.1-1.65.1-3.25l.7-3.35m3.2 2.8-.4-.9q-1-2.25-2.05-3.5m3.55 6.7-.1-.15-1-2.15m1.1 2.3.2.35q.8 1.3 1.7 1.55l.25.05h.2q.55 0 1.15-.45m-1.35.45.1 1.9v.65q-.1 1.95-.95 3.35-.9 1.5-2.25 1.6" fill="none" stroke="#681e7b" stroke-linecap="round" stroke-linejoin="round" transform="translate(-.8 -58.3)"/></g><g id="k"><path d="M37.55 46.2q-6.65 1.35-13.4.3-5-.85-9.35-3.4 5.55 0 11-1.5l2.8-.75q-.35.75.1 1.35l.2.25.5.05.5-.6-.05-.5-.6-.5.05-.05 2.9-.3.6-.2q1.7.9 2.75-.75l.25-.35q5.2-2.3 8.65-6.7l.75-1q1.3-1.25 2-2.7l.25-.6q2.5 9.15-5.4 15.3-2.05 1.65-4.5 2.65" fill="#76c5f0" fill-rule="evenodd" transform="translate(1 1)"/><path d="M46.8 24.8q5.6 5.3 2.9 13.05-2.3 6.8-9.45 7.9l-2.7.45q2.45-1 4.5-2.65 7.9-6.15 5.4-15.3l-.25.6q-.7 1.45-2 2.7 1.4-2.45 1.55-5.3l.05-1.45" fill="#8efeff" fill-rule="evenodd" transform="translate(1 1)"/><path d="M14.8 43.1q-6.65-2.95-11.05-8.75-3.9-5.2-3.75-11.6.15-7.4 6.6-11.1 2.45-1.45 5.2-1.95l.3-.05-.3.3q-5.4 4.8-4.9 12.2.45 7.35 6.1 11.75 2.35 1.9 5.25 2.65 3.8 3.55 8.95 4.2l1.4.1-2.8.75q-5.45 1.5-11 1.5m6.7-37.85q4.3-.95 5.7-.75l2.55.2-.05.75.05 1.15.05.1v.1l.25 1.1L30 8l.15.4.05.15v.05l.25.6-.05.3.35.5.3.85.4.4 1.4 1.05q1.85.9 3.8.35.55.55 1.8 1.1 1.05.9 1.55 2.25l.1.65q-.6 5.4-5.2 6.95l-3.95.6q-1.55.1-2.85-.6l-.8-.5-.2-.05-1.45-.25q-2.25-.7-3.85-2.4-2.75-5.9-1.15-12.3.3-1.4.85-2.85m4.15 4.4q0-.9-.4-1.45-.3-.5-1.3-.3l-.1.05-.6.15.4-.05-.85.85q-.8.95-.8 1.85 0 .8.25 1.05l1.1.25h.5v.3q.75 3.75 3.45 5.7 2.55 1.8 6.35 1.65-1.65-.1-3.7-3.75.1.2 1.8.6l2.95.25.6-.05q-3.2 0-5.65-3.9Q27.75 9 27.25 9l-.9.25-.7.4" fill="#9ad8ff" fill-rule="evenodd" transform="translate(1 1)"/><path d="m46.65 24.7.15.1-.05 1.45q-.15 2.85-1.55 5.3l-.75 1q-3.45 4.4-8.65 6.7 0-.85-.45-1.4-.45-.6-1.05-.6-2.45.55-1.7 2.75l.2.35-.6.2-2.9.3h-.7l-1.4-.1q-5.15-.65-8.95-4.2 2.4.8 4.75.45l.55-.25 2.75.65 5.95.25q.4-.35 1.1-.45l1.05-.4q3.6-1.4 6.7-3.85l.1-.1.1-.05.95-.45.1-.05.55-.35q3.6-2.7 3.75-7.25m-5.45 8.15 1.15-.55-1.15.55" fill="#538aa8" fill-rule="evenodd" transform="translate(1 1)"/><path d="m12.1 9.65 1.25.05q-.85 1-1.55 2.1-2.85 4.6-2.2 10.3.3 2.8 1.65 5.25l2 2.65 2.2 2.3 2.6 1.9 2.85 1.6 2.65.95L23 37q-2.35.35-4.75-.45-2.9-.75-5.25-2.65-5.65-4.4-6.1-11.75-.5-7.4 4.9-12.2l.3-.3" fill="#64b8fe" fill-rule="evenodd" transform="translate(1 1)"/><path d="M23.85 12.05q.7-.2 1.25-.85.55-.7.55-1.5v-.05l.7-.4.9-.25q.5 0 2.4 3.85 2.45 3.9 5.65 3.9l-.6.05-2.95-.25q-1.7-.4-1.8-.6 2.05 3.65 3.7 3.75-3.8.15-6.35-1.65-2.7-1.95-3.45-5.7v-.3m3.4 1.25-.2.05-.25.05q-.5.25-.5 1.1 0 1.2 1.4 1.2l.6-.5.2-.75-.45-.9-.8-.25m-6.85 4.6q-.6.95-.85 2-.55 2-.45 3.7.15 4.95 5.15 7.45l-.05.1-1.95.2-4.9-.65q-2.4-.75-5.35-2.7l-.75-.65Q9.9 24.9 9.6 22.1q-.65-5.7 2.2-10.3.7-1.1 1.55-2.1l.35.1q-1.05 2.45-1.75 4.9l-.15.55q-1.15 4.35 0 7.7l.25.65q1.5 3.65 6 6-2.75-2.65-4.05-6-.65-1.6-1-3.35-1.15-5.95 4-8.35.3.1.5.35 2.3 2.2 2.9 5.65" fill="#d0edff" fill-rule="evenodd" transform="translate(1 1)"/><path d="M41.1 32.95Q38 35.4 34.4 36.8l-1.05.4q-.7.1-1.1.45l-5.95-.25 5.4-1.8 1.2-.4.5-.2 3-.8 3.25-.9 1.4-.4.05.05" fill="#77c6ef" fill-rule="evenodd" transform="translate(1 1)"/><path d="M24.25 31.05q-5-2.5-5.15-7.45-.1-1.7.45-3.7.25-1.05.85-2l1.4 2.5q1.6 1.7 3.85 2.4l1.45.25.65.55q5.3 4.4 11.4 0l.15-.15q4.35-3.25 2.4-8.15l-.35-.1-.25.05-.3.3-.45.65-.25.45L40 16q-.5-1.35-1.55-2.25-1.25-.55-1.8-1.1l.75-.1q1.8-.55 2.3-2.5 2.75 3 4 6.5 1.15 3 1.25 6.35.15 5.15-2.65 9.35l-.05.1-.95.45-.25.1-1.4.4-3.25.9-3 .8-.5.2-1.2.4-5.4 1.8-2.75-.65-2.65-.95-2.85-1.6-2.6-1.9-2.2-2.3-2-2.65.75.65q2.95 1.95 5.35 2.7l4.9.65 1.95-.2h.2l-.15-.1m6.35.95h-3.15l-3.05-.85 3.05.85h3.15l-1.05.05h.5-.5L30.6 32l-.55.05q-.55.6 1.4.6 5.4.05 6.9-4.4-3.2 3.45-7.75 3.75m-4.8-6.45q-.25.45-.25 1.05 0 .95 1.2 1 1 0 1-1.15l-.25-.8q-.5-.2-.85-.5-.6-.25-.85.4" fill="#99d9ff" fill-rule="evenodd" transform="translate(1 1)"/><path d="M29.75 4.7q.3-1.7 1.8-2.95Q33.45.2 35.65 0 36.8.25 37 .8l.2 1.2q0 1.55-2.15 4.3-2.2 2.65-3.5 2.7-.65 0-1.2-.35l-.05-.05h-.1v-.05l-.05-.15-.1-.5-.25-1.1v-.1l-.05-.1v-.25l-.05-.9.05-.75m-5.9 7.35h-.5l-1.1-.25q-.25-.25-.25-1.05 0-.9.8-1.85l.85-.85-.4.05.6-.15.1-.05q1-.2 1.3.3.4.55.4 1.45v.05q0 .8-.55 1.5-.55.65-1.25.85m3.4 1.25.8.25.45.9-.2.75-.6.5q-1.4 0-1.4-1.2 0-.85.5-1.1l.25-.05.2-.05M25.8 25.55q.25-.65.85-.4.35.3.85.5l.25.8q0 1.15-1 1.15-1.2-.05-1.2-1 0-.6.25-1.05m10 13.7-.25.35q-1.05 1.65-2.75.75l3-1.1m-6.55 1.65.6.5.05.5-.5.6-.5-.05-.2-.25q-.45-.6-.1-1.35h.6l.05.05" fill="#fff" fill-rule="evenodd" transform="translate(1 1)"/><path d="m32.8 40.35-.2-.35q-.75-2.2 1.7-2.75.6 0 1.05.6.45.55.45 1.4l-3 1.1" fill="#b2b2b0" fill-rule="evenodd" transform="translate(1 1)"/><path d="M35.65 0q4.65.5 4.9 4.95-.45-2.45-1-2.4-.6.05-1 2.3-.45 2.2-2.05 3.4l-2 1.7-.75.7.45.15-.55-.1-.85-.25q-.9-.35-1.1-.95l-.15-.5q1.3-.05 3.5-2.7Q37.2 3.55 37.2 2L37 .8q-.2-.55-1.35-.8" fill="#cfecfe" fill-rule="evenodd" transform="translate(1 1)"/><path d="m39.35 7.85.15.15v1.2l-.05.05-.3 1.15-.25.45-.15.1q-.4.35-1.05.3l-2.25.15-1.1.15-.6.05q-.6 0-.6-.45h.05l.45-.45.55.1.55.05 1.45-.55 1.3-1 .4-.15.55-.35-.1-.3.25.2.75-.85" fill="#63b1b1" fill-rule="evenodd" transform="translate(1 1)"/><path d="M40.55 4.95q-.1 1.4-.85 2.45l-.35.45-.75.85-.25-.2.1.3-.55.35-.4.15-1.3 1-1.45.55-.55-.05-.45-.15.75-.7 2-1.7q1.6-1.2 2.05-3.4.4-2.25 1-2.3.55-.05 1 2.4" fill="#8dfffd" fill-rule="evenodd" transform="translate(1 1)"/><path d="M14.2 8.85q2.7-2.1 5.9-3.15l1.4-.45q-.55 1.45-.85 2.85-1.6 6.4 1.15 12.3l-1.4-2.5q-.6-3.45-2.9-5.65-.2-.25-.5-.35-5.15 2.4-4 8.35.35 1.75 1 3.35 1.3 3.35 4.05 6-4.5-2.35-6-6l-.25-.65q-1.15-3.35 0-7.7l.15-.55q.7-2.45 1.75-4.9l.5-.95" fill="#66b9ff" fill-rule="evenodd" transform="translate(1 1)"/><path d="M31.7 9.5q.2.6 1.1.95l.85.25-.45.45h-.05q0 .45.6.45l.6-.05 1.1-.15 2.25-.15q.65.05 1.05-.3l.15-.1.35-.45q.35-.6.3-1.15l.15.8q-.5 1.95-2.3 2.5l-.75.1q-1.95.55-3.8-.35l-1.4-1.05-.4-.4-.3-.85-.35-.5 1-.15.3.15m-4.6 13.55.2.05.8.5q1.3.7 2.85.6l3.95-.6q4.6-1.55 5.2-6.95l.25-.45.45-.65.3-.3.25-.05.35.1q1.95 4.9-2.4 8.15l-.15.15q-6.1 4.4-11.4 0l-.65-.55" fill="#6b97b2" fill-rule="evenodd" transform="translate(1 1)"/><path d="m30.3 8.6.05.05q.55.35 1.2.35l.15.5-.3-.15-1 .15.05-.3-.15-.6" fill="#90a6b3" fill-rule="evenodd" transform="translate(1 1)"/><path d="M39.5 8q2.55 1.95 4.2 4.45 2.1 3.1 2.8 7 .5 2.6.15 5.25-.15 4.55-3.75 7.25l-.55.35-.05-.05q2.8-4.2 2.65-9.35-.1-3.35-1.25-6.35-1.25-3.5-4-6.5l-.15-.8-.05-.05V8" fill="#8efffd" fill-rule="evenodd" transform="translate(1 1)"/><path d="M30.6 32q4.55-.3 7.75-3.75-1.5 4.45-6.9 4.4-1.95 0-1.4-.6l.55-.05" fill="#6a98b2" fill-rule="evenodd" transform="translate(1 1)"/><path d="M15.8 44.1q-6.65-2.95-11.05-8.75-3.9-5.2-3.75-11.6.15-7.4 6.6-11.1 2.45-1.45 5.2-1.95l.3-.05 1.25.05.85-.85q2.7-2.1 5.9-3.15l1.4-.45q4.3-.95 5.7-.75l2.55.2q.3-1.7 1.8-2.95 1.9-1.55 4.1-1.75 4.65.5 4.9 4.95-.1 1.4-.85 2.45l-.35.45m.15.15q2.55 1.95 4.2 4.45 2.1 3.1 2.8 7 .5 2.6.15 5.25m.15.1q5.6 5.3 2.9 13.05-2.3 6.8-9.45 7.9l-2.7.45q-6.65 1.35-13.4.3-5-.85-9.35-3.4" fill="none" stroke="#014e6d" stroke-linecap="round" stroke-linejoin="round" stroke-width="2"/><path d="m39.35 7.85.15.15m7.15 16.7.15.1m-17-18.1v.1l.25 1.1.1.5.05.15v.05l.25.6m-.75-3.75.05-.75m0 1.9-.05-1.15m-5.45 25.6q-5-2.5-5.15-7.45-.1-1.7.45-3.7.25-1.05.85-2m-7.05-8.2q-.85 1-1.55 2.1-2.85 4.6-2.2 10.3.3 2.8 1.65 5.25l2 2.65 2.2 2.3 2.6 1.9 2.85 1.6 2.65.95 2.75.65 5.95.25m-8-6.6.15.1 3.05.85h3.15q4.55-.3 7.75-3.75m-8.3 3.8h-.5L30.6 32l-.55.05m-2.95-9 .2.05.8.5q1.3.7 2.85.6l3.95-.6q4.6-1.55 5.2-6.95L40 16q-.5-1.35-1.55-2.25-1.25-.55-1.8-1.1M14.2 8.85l-.5.95m28.65 22.5.55-.35q3.6-2.7 3.75-7.25m-8.05-16 .75-.85M37.5 9.3l.4-.15.55-.35m3.85 23.45-.05.1.1-.05m-1.15.55-.1.1m.2-.15-.1.05m1.05-.5-.95.45-.25.1" fill="none" stroke="#014e6d" stroke-linecap="round" stroke-linejoin="round" transform="translate(1 1)"/><path d="m30.7 6.45.05.9v.25l.05.1m8.55 1.8.25.2m3.75 23.6-1.15.55-.15.05" fill="none" stroke="#014e6d" stroke-linecap="round" stroke-linejoin="round" stroke-width=".05"/></g><g id="l"><path d="m5.05 5 1.4.7-.25.35q-.15.4-.15.95 0 1.85.95 3.25.9 1.3 1.9 1.4l-.15.5-.15.5-.05.15v.1l.05.2-1.85-.5-.8-.65-.5-.6-.5-.75-.25-.35Q2.65 6.65 5.05 5" fill="#ed738c" fill-rule="evenodd" transform="translate(.5 .5)"/><path d="M6.45 5.7q3.4 2 2.45 5.95-1-.1-1.9-1.4-.95-1.4-.95-3.25 0-.55.15-.95l.25-.35" fill="#be324d" fill-rule="evenodd" transform="translate(.5 .5)"/><path d="M2.65.7q-.8.65-.8 1.4 0 .7.5.85l.85.1 1.2-.5q.95-.5 1.7-.5 1.25 0 2.6 1.1Q10 4.2 10.35 4.2l.3-.1.3-.55q.25-.5-.35-1.45-.65-1-1.5-1.3l.05-.05q1.6.7 2.85 2.05l2.15.05q2.35-.2 2.35-1.65 3 7.65.35 11.55L14.4 14.8q1.4-2.35.9-5.35-.6-3.4-2.9-6.2L12 2.8l.4.45q2.3 2.8 2.9 6.2.5 3-.9 5.35l-1 1.35q-1.75 1.75-4.55 1.7-2.45-.1-4.45-1.5l-1.35-1.2Q.6 12.6.1 8.55q-.5-4 1.1-6.45.55-.9 1.45-1.4M8.6 13.1l.25.15q.45 0 1.3-1 .8-1.05.65-2.9Q10.65 7.5 8.9 6T6.05 4.5q-1.1 0-1.1.3l.1.2q-2.4 1.65-.35 5.25l.25.35.5.75.5.6.8.65 1.85.5" fill="#feb0c0" fill-rule="evenodd" transform="translate(.5 .5)"/><path d="m15.4.2.25.1h.15l.45.3.25.6q0 1.45-2.35 1.65L12 2.8Q10.75 1.45 9.15.75H9.1V.8q.85.3 1.5 1.3.6.95.35 1.45l-.3.55-.3.1Q10 4.2 8.7 3.15q-1.35-1.1-2.6-1.1-.75 0-1.7.5l-1.2.5-.85-.1q-.5-.15-.5-.85 0-.75.8-1.4 1.5-.9 3.8-.6L8.7.6l.2.05.05.05L9 .65l3.05.3L14.4.6l1-.4" fill="#feffff" fill-rule="evenodd" transform="translate(.5 .5)"/><path d="m5.05 5-.1-.2q0-.3 1.1-.3T8.9 6q1.75 1.5 1.9 3.35.15 1.85-.65 2.9-.85 1-1.3 1l-.25-.15-.05-.2v-.1l.05-.15.15-.5.15-.5Q9.85 7.7 6.45 5.7L5.05 5" fill="#681e7b" fill-rule="evenodd" transform="translate(.5 .5)"/><path d="m15.4.2-1 .4-2.35.35L9 .65h-.1L8.7.6 6.45.1q-2.3-.3-3.8.6-.9.5-1.45 1.4Q-.4 4.55.1 8.55q.5 4.05 2.95 6.6l1.35 1.2q2 1.4 4.45 1.5 2.8.05 4.55-1.7l1-1.35 2.45-2.05.85-.65q2.65-1.95 4.25-2.35L23 9.7M9.15.75q1.6.7 2.85 2.05l.4.45q2.3 2.8 2.9 6.2.5 3-.9 5.35l-.35.6-.65.75" fill="none" stroke="#681e7b" stroke-linecap="round" stroke-linejoin="round" transform="translate(.5 .5)"/><path d="M9.6 1.3v-.05h.05" fill="none" stroke="#681e7b" stroke-linecap="round" stroke-linejoin="round" stroke-width=".3"/></g><g id="m"><path d="m3 25.35-.05-.65q0-2.6 2.4-5.2l1.15 1.2q.6.9.6 1.7 0 1.35-1.3 2.3l-1.4.75H3.1l-.1-.1M1.9 15.8Q.8 14.75 0 13.5q5.45-.8 10.75-2.5l.05.2q-1.25.6-1.8 1.7-.85 1.55-1.7 2.3-1.05 1-2.5 1L3.25 16l-1.35-.2" fill="#be2f4d" fill-rule="evenodd" transform="translate(.5)"/><path d="m10.8 11.2.7-.35.7-.35.4-.1 5.15-2.1.3-.1q4.7-2.15 9.3-5.05l.5 1.1.8 1.85q.35 1.2-.7 1.2l-2.3.6q-1.3.4-1.55.95-.35.75-.7 3-.75 6.4.85 6.75 1.55.35 4.3-1.15 2.7-1.55 2.95-3.65 1.35 7.7-8.15 11.5l-.95.35q-5.85 2.05-15.35 2.8-1.5-.05-2.55-.75-1.25-.8-1.45-2.25H4.4l1.4-.75q1.3-.95 1.3-2.3 0-.8-.6-1.7l-1.15-1.2.8-.9q-2.5-1.1-4.25-2.8l1.35.2 1.55.2q1.45 0 2.5-1 .85-.75 1.7-2.3.55-1.1 1.8-1.7m-4.65 7.4 3.2 1-3.2-1" fill="#842136" fill-rule="evenodd" transform="translate(.5)"/><path d="m27.35 3.15 1.35-.9L31.9 0q-2.15 3.1-2.4 6.25-.2 2.15.5 4.35v.2h.05q.9 1.4 1.45 3-.25 2.1-2.95 3.65-2.75 1.5-4.3 1.15-1.6-.35-.85-6.75.35-2.25.7-3 .25-.55 1.55-.95l2.3-.6q1.05 0 .7-1.2l-.8-1.85-.5-1.1" fill="#36113d" fill-rule="evenodd" transform="translate(.5)"/><path d="m30 10.6.05.2q.9 1.4 1.45 3 1.35 7.7-8.15 11.5l-.95.35q-5.85 2.05-15.35 2.8-1.5-.05-2.55-.75-1.25-.8-1.45-2.25l-.05-.1-.05-.65q0-2.6 2.4-5.2l.8-.9q-2.5-1.1-4.25-2.8Q.8 14.75 0 13.5m30-2.7v-.2m-20.65 9-3.2-1M3.1 25.45l-.1-.1" fill="none" stroke="#681e7b" stroke-linecap="round" stroke-linejoin="round" transform="translate(.5)"/></g><g id="n"><path d="M19.15 82.5q.75 1.9 1.9 3.2 1.95 2.15 5.9 2.9-1.15 3.4-2.75 5.9-4.1-1.35-5.5-3.35-1.7-2.4-1.8-8.65l.45.05 1.8-.05" fill="#be2f4d" fill-rule="evenodd" transform="translate(.5 .75)"/><path d="m21.85 54.8.15.65-1.05 2.65-.1.4-.7-.45 1.7-3.25M18.3 69.15l-.25 2.15-.15.15-1.2 1.2q-1.3 1.65-2.2 3.4l.55 2.15.85 3.5q.2.65 1 .8.1 6.25 1.8 8.65 1.4 2 5.5 3.35l-1.5 2q-2.9 3.2-6.95 3.8-.35-.3-.2 0H12.5q-3.25-.15-7.85-3.7Q0 93.05 0 83.25q0-3.6 1.2-6.4 1.9 2.55 5.65 2.75h.6l3.65-.2q.9-1.45.9-3l-.15-2q1.65-.95 3.05-3.25l1.55-3.1.1.05q.2.05 1.05.65l.7.4M7.8 73.9l.05-.15.05.15h-.1" fill="#842136" fill-rule="evenodd" transform="translate(.5 .75)"/><path d="m20.15 58.05.7.45q-.7 2.05-.85 3.7-1.15 3.35-1.65 6.7l-.05.25-.7-.4q-.85-.6-1.05-.65l-.05-.2 1-3.15q.65-2.5 2.5-6.35l.15-.35M16.9 82.5q-.8-.15-1-.8l-.85-3.5-.55-2.15q.9-1.75 2.2-3.4l1.2-1.2-.6 3.05-.15 1.75-.1 2.05-.15 3.5v.7" fill="#4c1856" fill-rule="evenodd" transform="translate(.5 .75)"/><path d="m17.9 71.45.15-.15q-.15 1.65-.15 3.25 0 4.8 1.25 7.95l-1.8.05-.45-.05v-.7l.15-3.5.1-2.05.15-1.75.6-3.05" fill="#5f028e" fill-rule="evenodd" transform="translate(.5 .75)"/><path d="m24.05 61.6.15 1.6q0 1.6-.6 2.3l-.8.55.25-1.05.35-1.15.6-2.3.05.05M22.2 71.65l.2.05q.45.1.8.7l1.45 2.65.9 2.15-.55 1.7-1 2.15-.75-1.5q-1.05-3-1.05-7.6v-.3" fill="#a04fac" fill-rule="evenodd" transform="translate(.5 .75)"/><path d="m24 61.25.05.35-.05-.05-.6 2.3-.35 1.15-.25 1.05v.1h-.15q-.25.15-.55.45l-.1.1q-2.8 2.6-3.2 2.6l-.5-.15.05-.25q.5-3.35 1.65-6.7l.65-1.95.65-1.45 1.6 1.15.85.9.25.4m4.8-14.15.2-.15.45-.35q1.95-.7 2.5-.7.45 0 1.6.7l-1.05.8q-2.25 1.9-3.85 3.95h-.6l-.8-.1v-.65l.05-.3 1.5-3.2m4.4-2.95 3.1-1.3 1.15 1.1-.6.4-2.1 1.4q-1.55-.4-1.55-1.6m-6.2 9.6v.05l-.65 1.25-.3.6-.65.05-1.25-.25v-.7q.2-.7.45-.95t.65-.25l1.75.2M18.05 71.3l.25-.1 1.6.25 1.45.2h.85v.3q0 4.6 1.05 7.6l.75 1.5-.75 1.05-1.15.25-2.95.15q-1.25-3.15-1.25-7.95 0-1.6.15-3.25" fill="#9026a0" fill-rule="evenodd" transform="translate(.5 .75)"/><path d="m20.85 58.5.1-.4L22 55.45l-.15-.65.05-.15.9-1.5.25-.25.3.25.05.35q0 .7-2.1 5.3l-.45-.3" fill="#a55065" fill-rule="evenodd" transform="translate(.5 .75)"/><path d="m20.85 58.5.45.3-.65 1.45L20 62.2q.15-1.65.85-3.7" fill="#701f7e" fill-rule="evenodd" transform="translate(.5 .75)"/><path d="m38.1 42.45.15.25q0 .6-.8 1.25l-1.15-1.1 1.7-.5.1.1m-3.35 3.3-1.2.85q-1.15-.7-1.6-.7-.55 0-2.5.7 1.9-1.5 3.75-2.45 0 1.2 1.55 1.6m-6.1 5.6L27 53.75l-1.75-.2q-.4 0-.65.25t-.45.95v.7l1.25.25.65-.05q-1.15 2.6-2.05 5.6l-.25-.4-.85-.9-1.6-1.15q2.1-4.6 2.1-5.3l-.05-.35-.3-.25.15-.2q2.8-3.35 5.6-5.6l-1.5 3.2-.05.3v.65l.8.1h.6m-5.85 14.8q-.6 3.05-.6 5.5h-.85l-1.45-.2-1.6-.25-.25.1.25-2.15.5.15q.4 0 3.2-2.6h.05l.05-.1q.3-.3.55-.45h.15m1.2 14.9q.95 1.65 2.35 1.65l1.2-.3 1.1-1q-.7 4-1.7 7.2-3.95-.75-5.9-2.9-1.15-1.3-1.9-3.2l2.95-.15 1.15-.25.75-1.05" fill="#ec748d" fill-rule="evenodd" transform="translate(.5 .75)"/><path d="m37.45 43.95.7.65-1.05.9q-.5.4-.85.4l-1.5-.15 2.1-1.4.6-.4m-3.9 2.65.55.3q-2.45 3.6-3.05 4l-2.4.45q1.6-2.05 3.85-3.95l1.05-.8M27 53.75l.95-.2h.4v.65q-.05.7-1.15 1.15l-1.15.3.3-.6.65-1.25v-.05" fill="#a24eae" fill-rule="evenodd" transform="translate(.5 .75)"/><path d="m38.1 42.35 2.75-.25q2.75 0 6 2.9l2.05 1.95q1.3 1.5 2.05 3.25 1.25 2.85.1 7.3-6.4-.1-10.1-2.8l-.55-.75-1.3-1.45-2.4 2q-7.9 2.25-8.65 11.5v.2l.45 5.85.4 6.15-.15 2.5-.1.7-1.1 1-1.2.3q-1.4 0-2.35-1.65l1-2.15.55-1.7-.9-2.15-1.45-2.65q-.35-.6-.8-.7l-.2-.05q0-2.45.6-5.5v-.1l.8-.55q.6-.7.6-2.3l-.15-1.6-.05-.35q.9-3 2.05-5.6l1.15-.3q1.1-.45 1.15-1.15v-.65h-.4l-.95.2 1.65-2.4 2.4-.45q.6-.4 3.05-4l-.55-.3 1.2-.85 1.5.15q.35 0 .85-.4l1.05-.9-.7-.65q.8-.65.8-1.25l-.15-.25v-.1m7.45 6.1q-.4 0-.65.35-.25.3-.25.8l.25.85q.25.3.65.3l.65-.3.25-.85-.25-.8q-.3-.35-.65-.35" fill="#feb0c0" fill-rule="evenodd" transform="translate(.5 .75)"/><path d="m7.85 73.75-.05.15h.1l.35.7.15.15q.25.2.65.3h.8l2-.65.15 2q0 1.55-.9 3l-3.65.2h-.6q-3.75-.2-5.65-2.75.7-1.6 1.85-3 2.45-3.05 5.1-3.15-.3 1.2-.3 1.85v1.2" fill="#36113d" fill-rule="evenodd" transform="translate(.5 .75)"/><path d="M45.55 48.45q.35 0 .65.35l.25.8-.25.85-.65.3q-.4 0-.65-.3l-.25-.85q0-.5.25-.8.25-.35.65-.35" fill="#fff" fill-rule="evenodd" transform="translate(.5 .75)"/><path d="M51.05 57.5q1.15-4.45-.1-7.3-.75-1.75-2.05-3.25L46.85 45q-3.25-2.9-6-2.9l-2.75.25H38l-1.7.5-3.1 1.3q-1.85.95-3.75 2.45l-.45.35-.2.15q-2.8 2.25-5.6 5.6l-.15.2-.25.25-.9 1.5m6.75 26.75.1-.7.15-2.5-.4-6.15-.45-5.85V66q.75-9.25 8.65-11.5l2.4-2m-1-10.05-.1-.1M21.85 54.8l-1.7 3.25-.15.35q-1.85 3.85-2.5 6.35l-1 3.15.05.2m10.4 20.5q1-3.2 1.7-7.2M7.8 73.9l.05-.15.05.15.35.7.15.15q.25.2.65.3h.8l2-.65q1.65-.95 3.05-3.25l1.55-3.1.05-.15m7.7 26.6q1.6-2.5 2.75-5.9m-2.75 5.9-1.5 2q-2.9 3.2-6.95 3.8-.35-.3-.2 0H12.5q-3.25-.15-7.85-3.7Q0 93.05 0 83.25q0-3.6 1.2-6.4" fill="none" stroke="#681e7b" stroke-linecap="round" stroke-linejoin="round" transform="translate(.5 .75)"/><path d="m37.55 70-.75 1.15q-.9.9-2.1.9-1.25 0-2.15-.9-.85-.85-.85-2.1t.85-2.15q.7-.65 1.65-.8l.5-.05.25.05.3.5q-2.2 2.1-.25 3.7.55.4 1.4.4.8 0 1.15-.7m8.7-28.6.75.3-.5 1.45-1.45-.35-1.15-.4.7-1.1v-.05l.95.35.7-.2M32.3 67.5q-.3.25-.35 1.2-.1.95.75 1.6.85.7 1.6.7-.75-.2-.9-1.7-.15-1.45-.65-1.75l-.25-.2-.2.15" fill="#1f1810" fill-rule="evenodd" transform="translate(.5 .75)"/><path d="m41.55 46.1 2.05-5.7 2.65 1-.7.2-.95-.35v.05l-.7 1.1-2.35 3.7" fill="#b09375" fill-rule="evenodd" transform="translate(.5 .75)"/><path d="M46.3 43.65 45 47.1q-1.15.65-1.95 1.85-1.1 1.65-1.1 4.05l.25 1.75-1.2 3.3v-2.2l-4.1 9.65q.25 1.25 1 1.05l-.5 1.3-.6-.95-.15-.1q-.5-.45-1.1-.65l5.7-13.6v-.35q.15-1.7 1.35-4.25.95-2.1 1.95-3.15.7-.75 1.75-1.15" fill="#594f43" fill-rule="evenodd" transform="translate(.5 .75)"/><path d="m45 47.1-2.8 7.65-.25-1.75q0-2.4 1.1-4.05.8-1.2 1.95-1.85m-4 10.95-3.1 8.5q-.75.2-1-1.05l4.1-9.65v2.2" fill="#a19080" fill-rule="evenodd" transform="translate(.5 .75)"/><path d="m46.5 43.15-.05.15-.1.15-.05.2q-1.05.4-1.75 1.15-1 1.05-1.95 3.15-1.2 2.55-1.35 4.25v.35l-5.7 13.6-.6-.05-.25-.05-.5.05 7.35-20 2.35-3.7 1.15.4 1.45.35" fill="#2c231a" fill-rule="evenodd" transform="translate(.5 .75)"/><path d="m32.3 67.5.2-.15.25.2q.5.3.65 1.75.15 1.5.9 1.7-.75 0-1.6-.7-.85-.65-.75-1.6.05-.95.35-1.2" fill="#b19472" fill-rule="evenodd" transform="translate(.5 .75)"/><path d="M36.25 67.75h.05l.45.1.25.35q0 .9-.7.9-.5 0-.5-.6l.15-.55.1-.1.2-.1" fill="#efd9c2" fill-rule="evenodd" transform="translate(.5 .75)"/><path d="m37.4 67.85.25 1.2v.05q-.35.65-1 .65t-1.15-.45q-.5-.45-.5-1 0-.7.65-1.15.6-.5 1-.35l.15.1.6.95m-1.15-.1-.2.1-.1.1-.15.55q0 .6.5.6.7 0 .7-.9l-.25-.35-.45-.1h-.05" fill="#a09080" fill-rule="evenodd" transform="translate(.5 .75)"/><path d="m37.65 69.1-.1.9q-.35.7-1.15.7-.85 0-1.4-.4-1.95-1.6.25-3.7l-.3-.5.6.05q.6.2 1.1.65-.4-.15-1 .35-.65.45-.65 1.15 0 .55.5 1 .5.45 1.15.45.65 0 1-.65" fill="#40372e" fill-rule="evenodd" transform="translate(.5 .75)"/><path d="M36.05 66.9q.6.2 1.1.65l.15.1.6.95m-2.45-1.75.6.05m-1.35-.05.5-.05.25.05" fill="none" stroke="#2d2620" stroke-linecap="round" stroke-linejoin="round" stroke-width=".5"/><path d="m47 43.9-.05.15-.1.15-.05.2-1.3 3.45-2.8 7.65-1.2 3.3-3.1 8.5-.5 1.3.25 1.2v.05l-.1.9-.75 1.15q-.9.9-2.1.9-1.25 0-2.15-.9-.85-.85-.85-2.1t.85-2.15q.7-.65 1.65-.8l7.35-20 2.05-5.7 2.65 1 .75.3-.5 1.45M45.1 42v.05" fill="none" stroke="#2d2620" stroke-linecap="round" stroke-linejoin="round" stroke-width="1.5"/><path d="M46.4 54.15q1 0 1.7.75.65.8.65 1.9 0 1.15-.65 1.9-.7.8-1.7.8-.95 0-1.65-.8-.7-.75-.7-1.9 0-1.1.7-1.9.7-.75 1.65-.75" fill="#fff" fill-rule="evenodd" transform="translate(.5 .75)"/><path d="m41.05 52.75.3.65-.4.5q-1.2 1.05-1.75 2.55-.7 1.75-.2 3.4.4 1.25 1.4 2.1l1.35.8q3.2 1.2 6.4-.1v.05q-1.45 1.25-3.3 1.7-3.4.8-6.7-.85l-1.55-1q-1.3-1-1.95-2.5-.7-1.7-.15-3.3 1.15-3.45 4.5-4.25l2.05.2v.05" fill="#ec748d" fill-rule="evenodd" transform="translate(.5 .75)"/><path d="m51.45 55.7-.55 2.45q-.55 1.85-2.65 4.5h-.1q-3.2 1.3-6.4.1l-1.35-.8q-1-.85-1.4-2.1-.5-1.65.2-3.4.55-1.5 1.75-2.55l.4-.5-.3-.65q4.95.7 10.4 2.95m-5.05-1.55q-.95 0-1.65.75-.7.8-.7 1.9 0 1.15.7 1.9.7.8 1.65.8 1 0 1.7-.8.65-.75.65-1.9 0-1.1-.65-1.9-.7-.75-1.7-.75" fill="#feb0c0" fill-rule="evenodd" transform="translate(.5 .75)"/><path d="M48.15 62.65h.1q2.1-2.65 2.65-4.5l.55-2.45m-3.3 7 .1-.05M39 52.5q-3.35.8-4.5 4.25-.55 1.6.15 3.3.65 1.5 1.95 2.5l1.55 1q3.3 1.65 6.7.85 1.85-.45 3.3-1.7" fill="none" stroke="#681e7b" stroke-linecap="round" stroke-linejoin="round" transform="translate(.5 .75)"/><path d="M56.75 7.35h.4q1.5 0 2.6-1.1.75-.7 1-1.6 3.75 2.75 5.3 8.15l.4 1.6-.35-.2-.3-.05q-.7 0-1.45 1.6-.65 1.55-.65 2.75l-.1 1.25V20h-.25q-.85 0-1.45.65t-.6 1.6q0 .9.6 1.55.3.35.7.55l-.35 1.35q-.3 1.95-2.7 5.2-1.7 2.4-2.1 3.5-1.7-.35-3.4-1.35l2.55-4.25q3.7-7.4 3.7-15.25 0-1.85-.75-3.55-.7-1.8-1.55-1.8-.5 0-.6.4l-.05.15.05.45v.05l.3 9.05q0 1.9-1.2 5.1l-2.05 4.8-2.1 3.7-2.65-2.6q1.5-1.5 3.05-4.4 2.75-5 2.6-7.35l.25-.25q.9-.95.9-2.25 0-1.35-.9-2.25-.95-.95-2.25-.95l-.8.15-.5-.25q-2.55.15-5.45 4.65-1.25 1.9-2 3.8-.65-2.4-.75-4.9 1-1.65 2.3-3.25L50.1 8l.95-.9 2.2.5 2.5-.5 1 .25m-6.95-5q-.15.85-.15 1.8 0 1.35.6 2.2-1.9.85-4.2 3.1l-2 2.2q.35-2 1.1-3.8Q45.7 6.5 47.8 3l.15-.05 1.85-.6m4.75 38.3-1.55.8-.9.2-.75.05-1.55-.1q-1-.3-1.25-1.05l.25-.2q.35-.25.75-.4l.65.75q.65.45 1.35.45 1.5 0 2.45-.95l.55.45" fill="#5b4f43" fill-rule="evenodd" transform="translate(.5 .75)"/><path d="m56 6.2-.2.05h-.05L56 6.2m-2.15-4.15-.1.25q-.25.65-.25 1.4 0 1.5 1.05 2.55l1.2.85-2.5.5-2.2-.5.85-1-.1-.2-1.55.45q-.6-.85-.6-2.2 0-.95.15-1.8l4.05-.3m-10 13.25q.1 2.5.75 4.9-1.2 3.05-1.2 6.25 0 2.45.85 3.45.7.85 2.35.85 1.55 0 3.1-1.45l2.65 2.6-.45.65L50 34.1q-1.25.9-1.25 1.5l.2.45.4.1 1-.15q1.85-.5 3.7-2.95 1.7 1 3.4 1.35l-.15.55q0 .95.7 1.55.55.5 1.15.5h.3q-1.95 1.9-4.25 3.3l-.6.35h-.05L54 40.2l-.45-.25-1.9-.4-2.1.4q-.4.15-.75.4l-.25.2q-.9.75-1.35 2.2h-.4l.65-1.65.1-.25.15-.75.05-.15q.45-1.55.3-3.25-.05-1.3-.8-2.45h-.15l-1.5.15-1.8.5-.2.05-1.7.7q-1.55.75-2.45 1.75-.4-1.65-1.1-2.3l-.75-.65-.2-.15-.65-.55q-1.25-4-1.25-8.85 0-5.65 2.65-11.45 2.65-5.8 1.7-4.95l.3-.3Q42.2 6 44.8 4.45q1.5-.9 3-1.45-2.1 3.5-2.65 4.85-.75 1.8-1.1 3.8l-1.9 2.65q-1.6 2.55-2.35 5.8-.85 3.25-.75 6.7.05 3.1 1.15 5.8l.15.25.1.1v.15l.3-.05v.15h.05v.05h.1l.55.1h.05q-.7-2.55-.8-5.35-.15-3.2.7-6.3.9-3.3 2.45-6.4" fill="#40372e" fill-rule="evenodd" transform="translate(.5 .75)"/><path d="m50.25 6.35.2.25.6.5-.95.9-3.95 4.05q-1.3 1.6-2.3 3.25-1.55 3.1-2.45 6.4-.85 3.1-.7 6.3.1 2.8.8 5.35h-.05l-.55-.1h-.1v-.05h-.05v-.15l-.3.05v-.15q-1-12.4 3.05-17.95l.35-.5q1.8-3.65 4.1-5.25l2.2-1.7q-.1-.05-.7.3l-1 .5-2.95 2.4-1.55 1.7.1-.8 2-2.2q2.3-2.25 4.2-3.1m2.1 25.55 2.1-3.7 2.05-4.8q1.2-3.2 1.2-5.1l-.3-9.05V9.2l-.05-.45.05-.15q.1-.4.6-.4.85 0 1.55 1.8.75 1.7.75 3.55 0 7.85-3.7 15.25l-2.55 4.25-.4-.25q1.45-2 2.9-5.6 2.65-6.55 2.65-11.95L59 12.4q-.2-1.7-.55-2.3l.1 3.65q-.1 5.1-1.6 10.05-1.4 4.55-3.7 8.75l-.9-.65" fill="#2d2319" fill-rule="evenodd" transform="translate(.5 .75)"/><path d="m50.25 6.35 1.55-.45.1.2-.85 1-.6-.5-.2-.25" fill="#1e170f" fill-rule="evenodd" transform="translate(.5 .75)"/><path d="m34.25 32.75-.05-.05-.25-.8q-2.1-7.4 1.05-15.45 1.85-4.65 4.85-7.95.95-.85-1.7 4.95T35.5 24.9q0 4.85 1.25 8.85l-.45-.35q-.95-.65-1.8-.65h-.25" fill="#ffd4a7" fill-rule="evenodd" transform="translate(.5 .75)"/><path d="m44.05 11.65-.1.8q-5.55 7.2-3.85 19.5l.1.6v.05q-1.1-2.7-1.15-5.8-.1-3.45.75-6.7.75-3.25 2.35-5.8l1.9-2.65" fill="#1f1812" fill-rule="evenodd" transform="translate(.5 .75)"/><path d="m43.95 12.45 1.55-1.7 2.95-2.4 1-.5q.6-.35.7-.3l-2.2 1.7q-2.3 1.6-4.1 5.25l.1-2.05" fill="#441d00" fill-rule="evenodd" transform="translate(.5 .75)"/><path d="m43.85 14.5-.35.5q-4.05 5.55-3.05 17.95l-.1-.1-.15-.25v-.05l-.1-.6q-1.7-12.3 3.85-19.5l-.1 2.05" fill="#411e02" fill-rule="evenodd" transform="translate(.5 .75)"/><path d="M44.6 20.2q.75-1.9 2-3.8 2.9-4.5 5.45-4.65l.5.25q-.8.15-1.45.8-.9.9-.9 2.25 0 1.3.9 2.25.9.9 2.25.9 1.1 0 2-.65.15 2.35-2.6 7.35-1.55 2.9-3.05 4.4l-.85-1q-3.05-3.9-4.25-8.1m12.85 14.2q.4-1.1 2.1-3.5 2.4-3.25 2.7-5.2l.35-1.35h.05l.7.1q.8 0 1.4-.65l.35-.45.25-1.1-.25-1.15-.35-.45q-.5-.55-1.15-.65v-.25l.1-1.25q0-1.2.65-2.75.75-1.6 1.45-1.6l.3.05.35.2q1.4 6.7-1.45 13.9-1.3 3.35-3.3 6.05l-.2.05-2.1.2-1.95-.2M49.3 21.35q0-.55-.35-.9t-.9-.35q-.5 0-.85.35t-.35.9q0 .5.35.85t.85.35l.9-.35.35-.85m.25 18.6 2.1-.4 1.9.4.45.25q-.95.95-2.45.95-.7 0-1.35-.45l-.65-.75M45.6 34.4l1.5-.15h.15q.75 1.15.8 2.45.15 1.7-.3 3.25h-.35q-.8 0-1.65-.45-1.15-.7-1.15-1.8 0-1.8 1-3.3" fill="#a09080" fill-rule="evenodd" transform="translate(.5 .75)"/><path d="m52.55 12 .8-.15q1.3 0 2.25.95.9.9.9 2.25 0 1.3-.9 2.25l-.25.25q-.9.65-2 .65-1.35 0-2.25-.9-.9-.95-.9-2.25 0-1.35.9-2.25.65-.65 1.45-.8M62.6 24.35q-.4-.2-.7-.55-.6-.65-.6-1.55 0-.95.6-1.6.6-.65 1.45-.65h.25q.65.1 1.15.65l.35.45.25 1.15-.25 1.1-.35.45q-.6.65-1.4.65l-.7-.1h-.05m-13.3-3-.35.85-.9.35q-.5 0-.85-.35t-.35-.85q0-.55.35-.9t.85-.35q.55 0 .9.35t.35.9" fill="#efd9c2" fill-rule="evenodd" transform="translate(.5 .75)"/><path d="M44.6 20.2q1.2 4.2 4.25 8.1l.85 1q-1.55 1.45-3.1 1.45-1.65 0-2.35-.85-.85-1-.85-3.45 0-3.2 1.2-6.25m-.8 14.7 1.8-.5q-1 1.5-1 3.3 0 1.1 1.15 1.8.85.45 1.65.45h.35l-.05.15-.55.05q-1.15 0-2.2-.75-1.4-1-1.4-2.75 0-.9.25-1.75" fill="#716559" fill-rule="evenodd" transform="translate(.5 .75)"/><path d="m53.65 32.8.4.25Q52.2 35.5 50.35 36l-1 .15-.4-.1-.2-.45q0-.6 1.25-1.5l1.9-1.55.45-.65.9.65-1.5 2.2 1.9-1.95" fill="#201710" fill-rule="evenodd" transform="translate(.5 .75)"/><path d="m53.25 32.55.4.25-1.9 1.95 1.5-2.2" fill="#421d02" fill-rule="evenodd" transform="translate(.5 .75)"/><path d="M53.25 32.55q2.3-4.2 3.7-8.75 1.5-4.95 1.6-10.05l-.1-3.65q.35.6.55 2.3l.2 2.85q0 5.4-2.65 11.95-1.45 3.6-2.9 5.6l-.4-.25" fill="#411c00" fill-rule="evenodd" transform="translate(.5 .75)"/><path d="m57.45 34.4 1.95.2 2.1-.2.2-.05-2.1 2.45-.15.2h-.3q-.6 0-1.15-.5-.7-.6-.7-1.55l.15-.55" fill="#71645b" fill-rule="evenodd" transform="translate(.5 .75)"/><path d="m39.5 40.25-.25-.25-1.45-1.8q-1-1.45-.95-2.65.05-1.25.45-1.25h.1l.2.15.75.65q.7.65 1.1 2.3v.05l.15.55.05 1.6v.3l-.15.35" fill="#20170e" fill-rule="evenodd" transform="translate(.5 .75)"/><path d="M39.25 40q-3.4-2.5-5-7.25h.25q.85 0 1.8.65l.45.35.65.55h-.1q-.4 0-.45 1.25-.05 1.2.95 2.65l1.45 1.8" fill="#40362a" fill-rule="evenodd" transform="translate(.5 .75)"/><path d="m41.9 35.65 1.7-.7.2-.05q-.25.85-.25 1.75 0 1.75 1.4 2.75 1.05.75 2.2.75l.55-.05-.15.75-.1.25-1.15.3q-1.55 0-2.9-1.3-1.25-1.1-1.35-1.75l-.2-1.05.05-1.65" fill="#3f362d" fill-rule="evenodd" transform="translate(.5 .75)"/><path d="m46.8 42.75-2.2-.3q-1.45-.6-2.75-2.35l-1.65-1.9-.6-.2-.15-.55v-.05q.9-1 2.45-1.75l-.05 1.65.2 1.05q.1.65 1.35 1.75 1.35 1.3 2.9 1.3l1.15-.3-.65 1.65" fill="#1f1810" fill-rule="evenodd" transform="translate(.5 .75)"/><path d="m44.6 42.45-2.25-.65-1.45-.7-1.4-.85.15-.35v-.3L39.6 38l.6.2 1.65 1.9q1.3 1.75 2.75 2.35" fill="#b29575" fill-rule="evenodd" transform="translate(.5 .75)"/><path d="M53 41.45q-2.95 1.3-5.8 1.3.45-1.45 1.35-2.2.25.75 1.25 1.05l1.55.1.75-.05.9-.2" fill="#2e241a" fill-rule="evenodd" transform="translate(.5 .75)"/><path d="M57.95 4.65h.3l.7-.2.7-.55.25-.25.35-.85.2-.75q.4.75.4 1.65l-.1.95q-.25.9-1 1.6-1.1 1.1-2.6 1.1h-.4l-.5-.45-.35-.3-.15-.25h-.05l.05-.1h.05l.2-.05 1.25-.75.7-.8" fill="#027903" fill-rule="evenodd" transform="translate(.5 .75)"/><path d="m60.45 2.05-.2.75-.35.85-.25.25-.7.55-.7.2h-.3l.1-.45q0-.6-.45-.6t-1.05.4Q56 3.45 56 2.55V2.4l.2.05h.1q.9 0 .9-.45l-.2-.35-.45-.05h-.4l.35-.6.95-.85h.15l.05-.1q1.2.1 2.1 1l.7 1m-.95-.45-.25-.55-.5-.2-.55.2-.2.55.2.55.55.2.5-.2.25-.55m-1.35 1.55-.05.1.15.3.25.1.35-.2V3.2l-.35-.25V2.9l-.05-.05-.25.15-.05.15" fill="#28d82b" fill-rule="evenodd" transform="translate(.5 .75)"/><path d="m59.5 1.6-.25.55-.5.2-.55-.2-.2-.55.2-.55.55-.2.5.2.25.55m-1.35 1.55L58.2 3l.25-.15.05.05v.05l.35.25v.25l-.35.2-.25-.1-.15-.3.05-.1" fill="#fff" fill-rule="evenodd" transform="translate(.5 .75)"/><path d="m57.65.05-.05.1h-.15L56.5 1l-.35.6-.25-.05q-.45 0-.45.35l.25.35.3.15v.15q0 .9.55 1.45l-.15.1-1.3 1.35V5.4q-.4-.7-.5-2.25l-.1-1.05-.15-.25q-.1 0-.3.2l-.3.25.1-.25.7-1Q55.6 0 57.15 0l.5.05" fill="#017b04" fill-rule="evenodd" transform="translate(.5 .75)"/><path d="M56.15 1.6h.4l.45.05.2.35q0 .45-.9.45h-.1L56 2.4l-.3-.15-.25-.35q0-.35.45-.35l.25.05m.4 2.4q.6-.4 1.05-.4.45 0 .45.6l-.1.45-.7.8L56 6.2l-.25.05-.05.1-.6-.9 1.3-1.35.15-.1" fill="#74fa77" fill-rule="evenodd" transform="translate(.5 .75)"/><path d="M55.7 6.35h.05l.15.25.35.3.5.45-1-.25-1.2-.85Q53.5 5.2 53.5 3.7q0-.75.25-1.4l.3-.25q.2-.2.3-.2l.15.25.1 1.05q.1 1.55.5 2.25v.05l.6.9" fill="#b9de9b" fill-rule="evenodd" transform="translate(.5 .75)"/><path d="m66.6 14.95.35.2m-7.3 22.6h.3l.15-.2m-5 3.85h-.05l-.55-.45-.45-.25-1.9-.4-2.1.4q-.4.15-.75.4l-.25.2q-.9.75-1.35 2.2m-12.95-10-.05-.05m13.6-29.7.15-.05m-11.2 30.8.65.55m.2.15.75.65q.7.65 1.1 2.3.9-1 2.45-1.75l1.7-.7.2-.05 1.8-.5 1.5-.15h.15q.75 1.15.8 2.45.15 1.7-.3 3.25l-.05.15-.15.75-.1.25-.65 1.65m-12.55-10H35q.85 0 1.8.65l.45.35m2.85 4.25-.15-.55v-.05m.15.6.05 1.6v.3L40 41" fill="none" stroke="#401d00" stroke-linecap="round" stroke-linejoin="round" stroke-width=".5"/><path d="M56.75 7.35h.4q1.5 0 2.6-1.1.75-.7 1-1.6m-7-2.35q-.25.65-.25 1.4 0 1.5 1.05 2.55l1.2.85 1 .25" fill="none" stroke="#401d00" stroke-linecap="round" stroke-linejoin="round" transform="translate(.5 .75)"/><path d="m37.9 35.05.2.15m-.2-.15h-.1q-.4 0-.45 1.25-.05 1.2.95 2.65l1.45 1.8" fill="none" stroke="#401d00" stroke-linecap="round" stroke-linejoin="round" stroke-width=".05"/><path d="m60.95 2.8-.7-1q-.9-.9-2.1-1l-.5-.05q-1.55 0-2.6 1.05l-.7 1-.1.25m7 2.35.1-.95q0-.9-.4-1.65m-10.65.3 4.05-.3m12.6 12.35-.4-1.6Q65 8.15 61.25 5.4M60.1 37.55l2.1-2.45q2-2.7 3.3-6.05 2.85-7.2 1.45-13.9m-7 22.6q-1.95 1.9-4.25 3.3l-.6.35m-.05 0-1.55.8q-2.95 1.3-5.8 1.3h-.4l-2.2-.3-2.25-.65-1.45-.7L40 41l-.25-.25q-3.4-2.5-5-7.25m-.05-.05-.25-.8q-2.1-7.4 1.05-15.45 1.85-4.65 4.85-7.95l.3-.3q2.05-2.2 4.65-3.75 1.5-.9 3-1.45m.15-.05 1.85-.6" fill="none" stroke="#401d00" stroke-linecap="round" stroke-linejoin="round" stroke-width="1.5"/></g><g id="o"><path d="M13.85 1.8 13 1.65l-.85.1L11.9.7l1.95 1.1m-6.75 8v.2q0 2.8 2 7.75 1.95 5 1.95 8.9 0 2.5-1.05 4-.95 1.3-2.05 1.3-.8 0-1.45-.85-.55-.75-.55-1.5l.1-.55.55-.7q1.7-1.9 3-2-.3-2.8-2.1-5.1l-1.9-1.9-1.35-.8q-4.3-2.75-4.25-8l1.2-.65q1.1-.5 1.8-.5l3.25.55.85-.15m1.25 20.75q.7 0 1-.75l.3-2.4-.05-1.05.05 1.05-.3 2.4q-.3.75-1 .75" fill="#a55161" fill-rule="evenodd" transform="translate(.5 .5)"/><path d="m11.9.7.25 1.05q-1.95.25-3.2 1.7-1.8 2.1-1.85 6.35l-.85.15L3 9.4q-.7 0-1.8.5l-1.2.65.25-2.5Q.45 3.15 5.3.8 8.65-.7 11.9.7" fill="#651b70" fill-rule="evenodd" transform="translate(.5 .5)"/><path d="m12.15 1.75.2.55.5 2.1q0 .6-.65 1.1L10 7.55Q8.4 9.35 7.1 9.8q.05-4.25 1.85-6.35 1.25-1.45 3.2-1.7m1.6 8-.1-.2-.2-.7q0-.2.95-2.7.95-2.6 1.25-3Q18.1 5.4 20 7.9l-.75-.3-1.05-.15q-2.6 0-4.35 2.1l-.1.2" fill="#9026a0" fill-rule="evenodd" transform="translate(.5 .5)"/><path d="m13.85 1.8.25.1L15.45 3l.2.15q-.3.4-1.25 3-.95 2.5-.95 2.7l.2.7.1.2q-1.85 2.3-1.85 6.3 0 4.35 2.45 7.9 2.45 3.6 5.6 3.6 2.35 0 4.05-2.55l1.15-2.3.2-.7.2-1.25.35 2.45q.2 1.3 0 2.6l-.5 2.65q-.35 1.6-1.1 2.9l-1.95 2.6-2.05 2q-4.25 3.6-8.4 3.6-2.8 0-4.95-1.6-2.4-1.85-2.4-4.75 0-1.95 1.2-3.7l.2.1q0 .75.55 1.5.65.85 1.45.85 1.1 0 2.05-1.3 1.05-1.5 1.05-4 0-3.9-1.95-8.9-2-4.95-2-7.75v-.2q1.3-.45 2.9-2.25l2.2-2.05q.65-.5.65-1.1l-.5-2.1-.2-.55.85-.1.85.15" fill="#ec748d" fill-rule="evenodd" transform="translate(.5 .5)"/><path d="m25.35 22-.2.7q-1.8 2.05-2.9 2.4l-1.7-3.4q0-.2.95-1.55l1.05-1.45 2.8 3.3M20 7.9q3.05 4 4.55 8.55l-1.2-.3-1.75-.3-2.15-.25-1.45-.2-.85-1.1-1.35-1.7-1.5-1.9-.55-.95.1-.2q1.75-2.1 4.35-2.1l1.05.15.75.3m1.4 3.8-.6.3q-.6.4-.6 1.3 0 .7.5 1.2.4.4.85.4.9 0 .9-1.4 0-.75-.35-1.3l-.5-.5h-.2" fill="#a04fac" fill-rule="evenodd" transform="translate(.5 .5)"/><path d="m25.55 20.75-.2 1.25-2.8-3.3-1.05 1.45q-.95 1.35-.95 1.55l1.7 3.4q1.1-.35 2.9-2.4L24 25q-1.7 2.55-4.05 2.55-3.15 0-5.6-3.6-2.45-3.55-2.45-7.9 0-4 1.85-6.3l.55.95 1.5 1.9 1.35 1.7.85 1.1 1.45.2 2.15.25 1.75.3 1.2.3.55 1.95.3 1.6.1.5.05.25" fill="#feb0c0" fill-rule="evenodd" transform="translate(.5 .5)"/><path d="M21.4 11.7h.2l.5.5q.35.55.35 1.3 0 1.4-.9 1.4-.45 0-.85-.4-.5-.5-.5-1.2 0-.9.6-1.3l.6-.3" fill="#fff" fill-rule="evenodd" transform="translate(.5 .5)"/><path d="m15.65 3.15-.2-.15-1.35-1.1-.25-.1L11.9.7Q8.65-.7 5.3.8.45 3.15.25 8.05L0 10.55q-.05 5.25 4.25 8l1.35.8 1.9 1.9q1.8 2.3 2.1 5.1l.05 1.05-.3 2.4q-.3.75-1 .75m-2.6-1.05q-1.2 1.75-1.2 3.7 0 2.9 2.4 4.75 2.15 1.6 4.95 1.6 4.15 0 8.4-3.6l2.05-2 1.95-2.6q.75-1.3 1.1-2.9l.5-2.65q.2-1.3 0-2.6l-.35-2.45-.05-.25-.1-.5-.3-1.6-.55-1.95Q23.05 11.9 20 7.9q-1.9-2.5-4.35-4.75m-9.6 25.9-.3.45m3.85-3.15q-1.3.1-3 2l-.55.7-.1.55" fill="none" stroke="#681e7b" stroke-linecap="round" stroke-linejoin="round" transform="translate(.5 .5)"/></g><g id="p"><path d="M25.2 3.15q-.2-.3-.95-.6L23.1 2.3q-2.55 0-4.9 1.35l-.8.5q-.9-.5-.9-.9 0-.8.35-2.75V.45l2.4-.45Q20.9 0 23 1.1q1.35.7 1.95 1.3l.25.75" fill="#651b70" fill-rule="evenodd" transform="translate(.5 .5)"/><path d="m17.4 4.15.8-.5q2.35-1.35 4.9-1.35l1.15.25q.75.3.95.6l.35 1.55-2.6 1.85-.3-.3q-.9-.85-1.65-.85l-.6.1-1.95-.9-1.05-.45m-1.7 6.75-.45-.45-.3-.45-.9-2 2.6-.95 1.1-.15.5.1-1.4 1.9-1.05 1.85-.1.15" fill="#9026a0" fill-rule="evenodd" transform="translate(.5 .5)"/><path d="m20.4 5.5.6-.1q.75 0 1.65.85l.3.3q.7.55 1.15.55l1.6-.7-.05 2.5q-.25 2.7-1.35 5.75L22.65 14l-1.4-.45-.55.25v-.2l-.2-.75-.6-.35-.5.4-.1.7q0 .8.4 1l-.7.6q-1.75 1.6-1.75 1.9l.8 2.35.7 1.7-.95-.05q-.95 0-2.25.55l-.3.15-1.25.4q-.45 0-.6-.5l-.2-1.85q0-3.45 2.05-7.85l.5-1.05q.35.35.75.35 4.2-1.2 4.2-1.8l-.25-.6-.8-.9q-.85-.75-1.4-1 1.1-1.25 2.15-1.5m1.15 4.1q0 1.25.6 1.85.45.5 1.25.5l.8-.75.25-1.35-.2-.95-.6-.85q-.65-.6-1.1-.6h-.05l-.2.1-.35.4q-.25.4-.35.95l-.05.7" fill="#fca9bb" fill-rule="evenodd" transform="translate(.5 .5)"/><path d="M18.25 7q.55.25 1.4 1l.8.9.25.6q0 .6-4.2 1.8-.4 0-.75-.35l.05-.2 1.05-1.85 1.4-1.9m.5 14.15-.7-1.7-.8-2.35q0-.3 1.75-1.9l.7-.6.25.05q.7 0 .75-.85l.55-.25 1.4.45 1.65.65-1.6 3.75-2.9 3.45-.8-.6-.25-.1" fill="#a04fac" fill-rule="evenodd" transform="translate(.5 .5)"/><path d="m21.55 9.6.05-.7q.1-.55.35-.95l.35-.4.2-.1h.05q.45 0 1.1.6l.6.85.2.95-.25 1.35-.8.75q-.8 0-1.25-.5-.6-.6-.6-1.85m-1.85 5q-.4-.2-.4-1l.1-.7.5-.4.6.35.2.75v.2l-1 .8" fill="#fff" fill-rule="evenodd" transform="translate(.5 .5)"/><path d="m22.95 6.55 2.6-1.85.15 1.7-1.6.7q-.45 0-1.15-.55" fill="#ef738d" fill-rule="evenodd" transform="translate(.5 .5)"/><path d="M16.85.45V.5q-.35 1.95-.35 2.75 0 .4.9.9-1.9 1.3-3.45 3.5L12.9 9.3q-2.25 3.85-5.75 6.15-1.15.75-2.2 1.95L4 18.45q-1.7 2.3-1.7 4 0 1 .5 2.5-2.8-1.9-2.8-5.4 0-1.2.5-2.5l.3-.75q.4-.95.75-1.4 1.8-.9 3.4-2 4.5-3.2 7.35-8.15l.2-.35q1-1.8 2.6-2.95.8-.65 1.75-1" fill="#a55161" fill-rule="evenodd" transform="translate(.5 .5)"/><path d="m17.4 4.15 1.05.45 1.95.9q-1.05.25-2.15 1.5l-.5-.1-1.1.15-2.6.95.9 2 .3.45.45.45.05.05-.5 1.05q-2.05 4.4-2.05 7.85l.2 1.85q.15.5.6.5l1.25-.4.3-.15q1.3-.55 2.25-.55l.95.05.25.1.8.6q-2 1.85-4.4 3l-.15.1h-.05q-3.4 1.65-7.25 1.65-2.3 0-4.6-1.35l-.55-.3q-.5-1.5-.5-2.5 0-1.7 1.7-4l.95-1.05q1.05-1.2 2.2-1.95 3.5-2.3 5.75-6.15l1.05-1.65q1.55-2.2 3.45-3.5" fill="#ec748d" fill-rule="evenodd" transform="translate(.5 .5)"/><path d="m25.2 3.15-.25-.75q-.6-.6-1.95-1.3Q20.9 0 19.25 0l-2.4.45V.5m8.7 4.2-.35-1.55m-.9 11.5q1.1-3.05 1.35-5.75l.05-2.5-.15-1.7m-1.25 9.95-1.6 3.75-2.9 3.45q-2 1.85-4.4 3l-.15.1h-.05q-3.4 1.65-7.25 1.65-2.3 0-4.6-1.35l-.55-.3Q0 23.05 0 19.55q0-1.2.5-2.5l.3-.75q.4-.95.75-1.4 1.8-.9 3.4-2 4.5-3.2 7.35-8.15l.2-.35q1-1.8 2.6-2.95.8-.65 1.75-1" fill="none" stroke="#681e7b" stroke-linecap="round" stroke-linejoin="round" transform="translate(.5 .5)"/></g><path d="M59.75 78.05H0V0h59.75v78.05" fill-opacity="0" fill-rule="evenodd" id="q"/><path d="M107.7 41.2q-18.5 7.05-44.6 7.05-26.15 0-44.65-7.05Q0 34.15 0 24.1q0-10 18.45-17.05Q36.95 0 63.1 0q26.1 0 44.6 7.05t18.5 17.05q0 10.05-18.5 17.1" fill-opacity=".353" fill-rule="evenodd" id="e"/><use ffdec:characterId="2" height="78.05" width="59.75" xlink:href="#q" id="d"/></defs></svg>