<svg xmlns:ffdec="https://www.free-decompiler.com/flash" xmlns:xlink="http://www.w3.org/1999/xlink" ffdec:objectType="frame" height="90" width="90" xmlns="http://www.w3.org/2000/svg"><use ffdec:characterId="21" height="81.5" transform="translate(7.15 6.2)" width="76.35" xlink:href="#a"/><defs><use ffdec:characterId="1" height="23.55" width="101.4" xlink:href="#b" id="j"/><use ffdec:characterId="3" height="142.6" width="109.3" xlink:href="#c" id="k"/><use ffdec:characterId="5" height="291.1" width="369.75" xlink:href="#d" id="l"/><use ffdec:characterId="7" height="106.85" width="117.55" xlink:href="#e" id="m"/><use ffdec:characterId="9" height="306.25" width="268.4" xlink:href="#f" id="n"/><use ffdec:characterId="11" height="79.6" width="107.65" xlink:href="#g" id="o"/><use ffdec:characterId="17" height="77.5" width="68.4" xlink:href="#h" id="p"/><use ffdec:characterId="19" height="87.1" width="77.2" xlink:href="#i" id="q"/><g id="a" transform="translate(-7.15 -6.2)"><use ffdec:characterId="2" height="23.55" transform="translate(15.2 75.535) scale(.4927)" width="101.4" xlink:href="#j"/><use ffdec:characterId="4" height="142.6" transform="matrix(.17 0 0 .17 10.55 46.95)" width="109.3" xlink:href="#k"/><use ffdec:characterId="6" height="291.1" transform="matrix(.17 0 0 .17 19.65 28.8)" width="369.75" xlink:href="#l"/><use ffdec:characterId="8" height="106.85" transform="matrix(.17 0 0 .17 25.1 56.05)" width="117.55" xlink:href="#m"/><use ffdec:characterId="10" height="306.25" transform="matrix(.17 0 0 .17 11.1 6.2)" width="268.4" xlink:href="#n"/><use ffdec:characterId="16" height="79.6" transform="matrix(.17 0 0 .17 13.7 27.7)" width="107.65" xlink:href="#o"/><use ffdec:characterId="18" height="77.5" transform="matrix(.17 0 0 .17 18.95 64.25)" width="68.4" xlink:href="#p"/><use ffdec:characterId="20" height="87.1" transform="matrix(.17 0 0 .17 10.55 56.35)" width="77.2" xlink:href="#q"/></g><g id="c" fill-rule="evenodd"><path d="m65.5 64.25.5 3.65.85.7q6.1 5.1 8 9 2 4.15 2.3 13.7.3 8.95-.65 14.4l-.25.65-.3.95-1.25 5.4q-.7 2.85-.75 5.8-.05 1.6.05 3.2.1 1.7-.35 3.4l-.1.35q-11.8 10.75-22.8 13.9-11.15 3.15-13.65 3.25-2.55.05-3.75-1.8-1.25-1.85-4.25-7.7-3-5.9-5.3-8.85l-3.35-3.5q-1.3-1.35-1.3-3.5 0-1.4.8-4.05l.6-2q1.05-3.2 1.85-4.65l1.05 1.95q.35-2.8 1.15-5.65 2-7.05 7.4-12.1Q37.55 85.5 45.2 85q7.25-.15 12.75-4.55 2.9-2.35 3.8-6 .7-2.8.25-6.4-1.2-1.35-2.6-2.45l3.1-.85.2-.05.2-.05 1.4-.4h1.2m6.85 37.5q1.6-3.3 2.15-8.55.6-6.4-1.75-12.7-2.2-5.9-7.95-9.3 0 2.95-1.1 5.5-1.35 3.2-4.4 5.85-5.8 4.9-13.7 5.55-7.9.6-11.9 5.2l-.25.3q-1.55 1.75-2.85 3.7-2.05 3-3.6 6.35-1.95 4.05-1.95 7.8l13.05 24.3q1.65.85 4.1.55 6.45-.85 18.7-9.5l8.5-6.45.55-7.45q.35-5.2 1.15-8.3l.1-.4v-.05l.1-.45.2-.45.15.3V103l.2-.35.5-.9" fill="#45458c"/><path d="m108.65 24.55-.2 1.9q-6.15 9.85-16.2 16.2Q79.7 50.5 65.4 53.45h-.25v.05l.1 2 .1 4.8q0 2.05.15 3.95h-1.2l-1.4.4-.2.05-.25-.2-.75-6.2-.3-2.8q-.5-4.75-.5-7.9 0-8.5 2.3-12.3 2.25-3.65 9.45-8-8.2 8.85-7.8 18.5l.1 2.45q13.3-3.5 25.4-10.15 10.1-5.5 18.3-13.55m-88.7 88.65Q14.8 105.6 8.8 94.9 2.15 83.1.9 79.7q-1.25-3.4-.75-4.55l.25-.5.1-.15.4-.9.15-.35Q4.4 65.4 6.65 55.5q1.8-7.85 2.9-17l.75-10.3q.2-3.8.8-7.75.55-4 1.25-4 .7-.05 2.15-1.15 1.45-1.15 1.8-1.2l3.6-6.25q3.25-6.2 5.85-6.7l2.8-.3 1.05.1Q66 13.35 106.1 0q1.55 2.85 2.3 5.95l.15.65Q91.6 11.95 74.5 12.7q-19.5.85-39.2-4.15L27.45 6.3l-2.65 5.85-2.95 5.5q-.95 1.8-3 2.7l-2 .6q-.6 13.3-2.45 25.1l-1.75 9.45q-2.5 11.4-6.3 21.2l4.55 8.4 11.5 21.45q-.8 1.45-1.85 4.65l-.6 2m26.6-55.6q6.75 1.55 12.85 5.1l3.05 1.8.05.25-3.1.85-1.65-1.25q-5.3-3.85-11.2-6.75" fill="#337085"/><path d="M35.3 8.55q19.7 5 39.2 4.15l-.85.5q-2.9 1.65-7 3.4l-7.95 3.2q-3.9 1.4-8.8 1.85-4.45.45-8.85.2l.2 3.1q0 5-2.7 13.55-2.65 8.4-4.2 9 2.85 2.05 4.35 6.85l.35 1.15q.85 3.4.85 7.3 0 11.35-5.75 18.4-5.9 7.2-15.65 7.2-2.6 0-6.6-2.6l-1-.7-4.55-8.4q3.8-9.8 6.3-21.2l1.75-9.45 2.7-5.75q3.05-6.4 2.35-11 3.85-1.05 9.25-4.6 7.85-5.2 7.85-10.5 0-2.4-.95-4.9l-.3-.75M46.45 57.7l.1-.1q5.9 2.9 11.2 6.75l1.65 1.25q1.4 1.1 2.6 2.45.45 3.6-.25 6.4L56.8 67.5q-5.4-7.3-10.35-9.8" fill="#a6e4ff"/><path d="M14.4 46.05q1.85-11.8 2.45-25.1l2-.6q2.05-.9 3-2.7l2.95-5.5 2.65-5.85 7.85 2.25.3.75q.95 2.5.95 4.9 0 5.3-7.85 10.5-5.4 3.55-9.25 4.6.7 4.6-2.35 11l-2.7 5.75" fill="#c4ffff"/><path d="M108.55 6.6q.75 3.4.75 8.45l-.6 8.55-.05.95q-8.2 8.05-18.3 13.55-12.1 6.65-25.4 10.15l-.1-2.45q-.4-9.65 7.8-18.5-7.2 4.35-9.45 8-2.3 3.8-2.3 12.3 0 3.15.5 7.9l.3 2.8.75 6.2-3.05-1.8q-6.1-3.55-12.85-5.1l-1.35-.3.35.05.25.05.65.3q4.95 2.5 10.35 9.8l4.95 6.95q-.9 3.65-3.8 6-5.5 4.4-12.75 4.55-7.65.5-13.2 5.75-5.4 5.05-7.4 12.1-.8 2.85-1.15 5.65l-1.05-1.95L10.9 85.1l1 .7q4 2.6 6.6 2.6 9.75 0 15.65-7.2 5.75-7.05 5.75-18.4 0-3.9-.85-7.3l-.35-1.15q-1.5-4.8-4.35-6.85 1.55-.6 4.2-9 2.7-8.55 2.7-13.55l-.2-3.1q4.4.25 8.85-.2 4.9-.45 8.8-1.85l7.95-3.2q4.1-1.75 7-3.4l.85-.5q17.1-.75 34.05-6.1" fill="#66ccdb"/><path d="M42.2 136.3q-2.45.3-4.1-.55l-13.05-24.3q0-3.75 1.95-7.8 1.55-3.35 3.6-6.35.9 1.75.95 6.35 0 3.9-.4 9.85 1.2-1.55 4.65-1.55 2.95 0 4.6 2.95 1.3 2.3 1.3 5 0 6.6-5.45 7.2.3 2.5 2.4 5.25l3.55 3.95" fill="#ffd0ff"/><path d="M60.9 126.8q-12.25 8.65-18.7 9.5l-3.55-3.95q-2.1-2.75-2.4-5.25 5.45-.6 5.45-7.2 0-2.7-1.3-5-1.65-2.95-4.6-2.95-3.45 0-4.65 1.55.4-5.95.4-9.85-.05-4.6-.95-6.35 1.3-1.95 2.85-3.7 5.95-.7 11.8.1l3.65 1.2q6.6 2.7 9.2 9.2 2.6 6.55 2.6 13.6 1.6-.5 3-1.2l-2.8 10.3" fill="#ce9cde"/><path d="m33.45 93.6.25-.3q4-4.6 11.9-5.2 7.9-.65 13.7-5.55 3.05-2.65 4.4-5.85 1.65 1.55 4.1 7.15 3.1 6.95 3.1 9.5 0 2.4-2.05 6.9-1.5 3.3-5.15 16.25-1.4.7-3 1.2 0-7.05-2.6-13.6-2.6-6.5-9.2-9.2l-3.65-1.2q-5.85-.8-11.8-.1" fill="#848acd"/><path d="M63.7 76.7q1.1-2.55 1.1-5.5 5.75 3.4 7.95 9.3 2.35 6.3 1.75 12.7-.55 5.25-2.15 8.55l-.1-.1.15-.55v-.05l.15-.75-.25.9h-.05v.1l-.5 1.25-.1.45v.55l-.15-.3-.2.45-.1.45v.05l-.1.4q-.8 3.1-1.15 8.3l-.55 7.45-8.5 6.45 2.8-10.3q3.65-12.95 5.15-16.25 2.05-4.5 2.05-6.9 0-2.55-3.1-9.5-2.45-5.6-4.1-7.15" fill="#a2a6d9"/></g><g id="d"><path d="M272.2 240.6q-8.85 18.45-22.95 30.85-14.85 13.1-33.8 17.4-19 4.3-38.9.3-19.85-3.9-36.9-14.8l-6-4.15q-2.05 1.35-5.35 1.4-4.35.05-9.55-1.7-5.2-1.75-10.75-4.35-5.6-2.6-10.85-6.8l-2.7-2.15-14.15 1.35 2.35-4 13.45-1.25 6.05 3q2.4-11.85 6.6-24.6 5.1-15.55 12.85-32.45 1.25-19.75 12.6-35.85t23.8-25.4q8.9-6.65 18.6-12 3.15-1.75 6.4-3.35l1.45-.7q10.65-5.15 16-7 4.3-13.1 9.8-24.75l1.25.8q2.75 1.45 5.75 1.5-4.65 11.3-6.85 23.3 6.15-.8 11.3-.2 3.6-11.15 14.8-18.3-9 10.7-10.55 18.55 15.85 2.35 20.05 8.35l-2.85-1.1-.3-.35-.05.2q-8.8-3.25-17.25-4.2-13.3-1.45-25.75 2.75-7.25 2.45-13.7 5.15l-6.65 2.85q-8.95 4.1-16.1 8.6-1.4.85-2.7 1.8-13 8.9-23.3 23.5l-3.25 5.05q-8.3 14.1-9.35 30.8l-2.7 6.05q-6.15 14.05-10.4 27.15-4.25 13.05-6.6 25.2l.05.05q9.55 4.3 19.7 7.25l3.75 1.15.4-.45q-.8-.65-1.4-1.85-.7-1.5-.7-3.4l.7-1.35-.8-.7-.25-.7q.45.05.6-1.85 10.6 14.15 27.15 21.45l6.5 2.55q11.05 3.75 21.1 5.2l18.5.6q5.45-.5 11-1.95 12.35-3.2 24.95-11.2 18.25-11.55 24.65-23.25 2.2-4.05 3.55-7.7l2.65-1.4-2.65 1.4q1.8-4.85 2.15-8.9l-3.8-11.9-4.7-13.55q2.05 1.7 4.3 3.05l1.3 3.25q2.4 6.1 4.4 12.25l.2.6q-.25.3-.1.5.4 8.4 3.95 14.4m-143.65 24.9-.3.4.35-.15-.05-.25m-.1.8-.15-.15-.65.25.7-.1h.1" fill="#5d254a" fill-rule="evenodd"/><path d="M80.3 257.95q-14.45.6-25.65-2.35-19.9-5.15-33.65-20.25Q7.1 220.1 2.4 200.1.1 190.25 0 180.45q-.1-10.3 2.2-20.55 1.85-8.25 4.8-16.05 2.15-5.85 5-11.45l2.4-4.6 7.4-3.05-.4.8q-2.75 5.15-4.95 10.55-1.75 4.15-3.15 8.45-1.8 5.45-3.05 11.15-3.85 17.25-.95 34.45l1.15 5.75q4.7 20 18.6 35.25 13.75 15.1 33.65 20.25 9.9 2.6 19.95 2.55l-2.35 4m74.2-160.4-4.3-5.6 8.5-.65q8.95 11.1 24.3 30.75-3.25 1.6-6.4 3.35l-7.2-8.8-14.9-19.05" fill="#337085" fill-rule="evenodd"/><path d="m258.35 242.6 1.6-3.7q3.55-9.2 2.9-18.8l3.8 11.9q-.35 4.05-2.15 8.9l-2.25 1.1-3.9.6 3.9-.6 2.25-1.1q-1.35 3.65-3.55 7.7-6.4 11.7-24.65 23.25-12.6 8-24.95 11.2-5.55 1.45-11 1.95l-18.5-.6-.35-.95q-1.1-3.2-1.1-5.4l.05-.15 7.8 1.05q11.05 1.85 21.95-.6l3.55-.85q8.9-2.35 16.95-6.9 9.6-5.35 17.35-13.25 6.4-6.55 10.3-14.75" fill="#6f56a9" fill-rule="evenodd"/><path d="M154.25 276.65q5.8-.3 11.65-.2l14.5 1.45v.15q0 2.2 1.1 5.4l.35.95q-10.05-1.45-21.1-5.2l-6.5-2.55" fill="#9e99c4" fill-rule="evenodd"/><path d="M122.05 204.7q8.7 1.8 16.8 5.85 8.65 4.25 16.35 10.4l7.15 5.5q5-3.95 10.9-6.05l5.55-1.5q3.25 4.65 7 5.65-7.2 3.05-8.25 4.05-2.45 2.4-2.45 10.4 0 5.05 3.45 8.9 3.15 3.6 6.7 3.6 1.95 0 3.35-.7l-1.85 3.05q-.55 1.2-.55 2.95 0 2.5 1.1 4.1.8 1.2 3.3 3.15-1.8 1.2-3.1 2.15-3.2 2.2-4 3.1-3.05 3.25-3.1 8.6l-14.5-1.45q-5.85-.1-11.65.2-16.55-7.3-27.15-21.45-.15 1.9-.6 1.85l.25.7.8.7-.7 1.35q0 1.9.7 3.4.6 1.2 1.4 1.85l-.4.45-3.75-1.15q-10.15-2.95-19.7-7.25l-.05-.05q2.35-12.15 6.6-25.2 4.25-13.1 10.4-27.15m90.4-50.5-4.35 2.3q-4.35 2.3-10.45 4.55-5.4 1.35-10.4 1.05l-12.65-.6q-4.65-.5-8.85-4.15-4.2-3.7-5.35-9.3l-.35-2.35q6.9-4.7 16.5-10.7 1.7 3.15 4.65 4.4 2.6 1.1 7.15 1.1 2 0 7.45-1.4 5.25-1.35 6.1-1.9 2.9-2 5.5-5.2 3.05-3.8 3.05-6.5 0-1.1-.45-1.85h1.55q5.65-.65 18.35-.3l.05.05q1.7 3.45 1.7 7.8 0 3.8-1.2 6.45-10.1 6.3-18 16.55m-57.8 93.2q.75-.85.75-2.05 0-1.2-.75-2.05-.7-.85-1.75-.85t-1.8.85q-.7.85-.7 2.05 0 1.2.7 2.05.75.85 1.8.85t1.75-.85" fill="#a04a77" fill-rule="evenodd"/><path d="M210.25 89.6Q232 43.5 272.8 18.9q7.9-5.6 14.05-9.2 6.2-3.55 12.85-6.45Q306.6.1 314 0q6.5.75 7.05 7.55.3 4.15-1.45 7.95-1.95 4.2-5 7.55l-4.35 4-.4.3-.9 4.35v5.75q1.25-1.4 5.3-2.05l5.8-.4q4.45 0 7.6 1 4.2 1.35 4.2 4.1 0 1.05-.6 2.45-.9 2-1.15 2.95-6.2 12.15-14.15 18l2.15 6.8q18.2 1.4 25.55 9.6-3.85 11.15-20.4 16.1l-.1.3q-6.05 18.65-18.7 31.65 4.75 2.4 8.9 5 12.45 7.55 19.85 16.3 22.6 9.5 31.3 29.55l2.05 5.55q-8.3 3.05-17.15 2.45l.9 6.5q20.35 11.85 19.4 27.9-11.9 2.5-21.55-2.15-2.3 12.65-6.75 19.55 3.95 20.55-6.2 32.5-9.3-1.5-18.2-16-34.8 2.45-44.8-14.5-3.55-6-3.95-14.4l.55.9q14.85 24.2 49.25 20-4.05-5.2-3.75-11.9.1-1.75.45-3.55 6.5 20.5 18 31.95 4.4-7.6 1-28.35l-1.6-8.6 2.95 6.65q4.85-6.8 7-17.95l.5-2.85q-10.1-5.7-10.65-11.35l1.25.8q13.15 14.2 29.6 12.65-7.25-12.6-24-20.2h2.45l2.5 1.05.15-1.05q.45-6.5-3.25-13.05-1.95-.8-3.95-1.95l-.95-.6-1.2-.8-4.25-3.25q5.6 2.65 11.7 4.05 8 1.8 16.9 1.4l-.75-1.4q-1.25-2.3-2.85-4.5-8.2-11.55-24-20.3l-.3.6-.55 1.1q-7-7.9-17.1-15.15-8-5.75-17.95-11.1l-1.2-.65-2.3.4-3.8.45q22.85-15.4 28.7-37.15l-4.8.5q-10.05.7-19.25-.9l2.45-.1.7-.05 3.15.05q22.7-.3 37.4-10.95-8.15-4.75-22.1-4.45l-5.45-11.65-1.4.9q-7.3 4.4-14.85 7.75L286 76.3v-.05q5.45-2.55 10.3-5.6 17.55-11.1 27.45-28.95l-5.45-.7q-4 0-8.45 1.05-5.3 1.2-7.05 3.15l-.15-.15-.55-3.45-.2-3.15q0-4.2.95-9.65L300 30.5q-2.7 1.35-6.65 2.8h-.05l-.05.05q-7.65 2.75-12.5 2.75h-1.85l-.4-.15q.45-.25.9-.4 2.75-.35 8.1-1.85 2.8-.85 6.6-2.8l2.8-1.5 3.85-2.4q3.15-2.35 5.65-5.2 3.9-4.5 6.6-9.05 3-5 3-6.2 0-1.65-2.85-1.65t-6.3 1.45L301.3 8.7l-.9.45-4.15 2.3-1.75 1q-10.65 6.15-20 12.7-26.15 18.3-41.95 39.75-4.55 6.15-8.2 12.55-3.1 5.3-5.55 10.8l-1.55 3.6v.05q-3-.05-5.75-1.5l-1.25-.8m59.35 140.2-.8-2.7.8 2.7" fill="#4e4380" fill-rule="evenodd"/><path d="M187.5 266.2q1.3-.95 3.1-2.15-2.5-1.95-3.3-3.15-1.1-1.6-1.1-4.1 0-1.75.55-2.95l1.85-3.05q-1.4.7-3.35.7-3.55 0-6.7-3.6-3.45-3.85-3.45-8.9 0-8 2.45-10.4 1.05-1 8.25-4.05-3.75-1-7-5.65 6.7-1.35 13.45-.35l1.05.2q6.95 1.3 13.1 5.15 3.3 2.05 5.55 5l1.5 2.2q3.9 6.7 5 14.15.4 3.15.35 6.4l-.05 2.55q-1.9.25-3.35 1.65-1.7 1.75-1.7 4.15 0 1.65.85 3-12.1 5.55-27.05 3.2" fill="#67286a" fill-rule="evenodd"/><path d="M180.4 277.9q.05-5.35 3.1-8.6.8-.9 4-3.1 14.95 2.35 27.05-3.2l.85 1.1q1.75 1.75 4.15 1.75 2.4 0 4.1-1.75 1.75-1.7 1.75-4.1 0-2.4-1.75-4.15l-.2-.2q9.75-7.1 16.75-17.25l.2.15q2.55 1.95 5.75 1.95l1.95-.05.8-.1q1.05-.3 2.1-1.85-.25 1.95 1.85 3.1 1.8 1 4.4 1h1.1-1.1q-2.6 0-4.4-1-2.1-1.15-1.85-3.1-1.05 1.55-2.1 1.85l-.8.1-1.95.05q-3.2 0-5.75-1.95l-.2-.15q9.95-14.55 14.2-35.35l3.75 3.5 4.7 13.55q.65 9.6-2.9 18.8l-1.6 3.7q-3.9 8.2-10.3 14.75-7.75 7.9-17.35 13.25-8.05 4.55-16.95 6.9l-3.55.85q-10.9 2.45-21.95.6l-7.8-1.05h-.05" fill="#69267f" fill-rule="evenodd"/><path d="m193.3 218.75 1.6-1.75q6.05-6.8 6.75-14l1.95 2.55q2.85 3.2 6.6 4.85 2.9 1.2 5.85 1.6l-.05.15q-.65 2.25-.65 5.55 0 7 5.3 10.7l.8.5q4.3 2.65 10.65 2.65l3.3-.1 2.15-1.2-.05 2.25q0 3.05 1.95 5.2l.75.7q-7 10.15-16.75 17.25-1.65-1.5-3.9-1.5l-.8.05.05-2.55q.05-3.25-.35-6.4-1.1-7.45-5-14.15l-1.5-2.2q-2.25-2.95-5.55-5-6.15-3.85-13.1-5.15" fill="#611d6a" fill-rule="evenodd"/><path d="m208.75 201.75-.45-2.3-.75-3.75q.5.45 3.15 1.3 4.5 0 7.95-2.1 4-2.45 4-6.55 0-4.3-2.55-6.65 14.6-3.9 24.6.35 2.25 2 4.3 4.85l1 1.45q2.8 4.3 5.2 10.35l.5 1.3 2.45 6.55-3.75-3.5q-4.25 20.8-14.2 35.35l-.75-.7q-1.95-2.15-1.95-5.2l.05-2.25-2.15 1.2-3.3.1q-6.35 0-10.65-2.65l-.8-.5q-5.3-3.7-5.3-10.7 0-3.3.65-5.55l.05-.15 8.25-.55q5.45-1.5 8.95-6.05 3.45-4.6 1.4-10.25-1.95-5.35-4.05-6.85l-.1-.1q-.95-.6-1.7-.95l-.3-.15-.05-.05-.2-.15-.8-.6h-.05q-1.65-1.1-2.9-1.1h-.5l.15.25q3.8 6.5 3.65 10.1-.15 3.7-1 4.9-.9 1.15-2.95 2-3.85 1.65-7.5 1.65-3.4 0-7.6-2.35" fill="#7c297d" fill-rule="evenodd"/><path d="M201.65 203q-2.5-4.1-2.35-9.15.2-7.3 1.4-14.6.75-4.65 2.25-9.05l2.55.3q-2.15 5.55-2.45 11.55 1.6-3.75 5.1-5.65 5.55-3.1 12.25-3.85l1.9-.2 8.3.7q3.35.65 6.55 1.95 3.15 1.3 6.1 3.2 3.15 2.1 5.75 4.65 2.55 2.5 4.55 5.5 2.35 3.5 3.9 7.6 1.65 4.35 2.95 8.8l9.25 8.15q-3.75-1.2-7.2-3.3-2.25-1.35-4.3-3.05L255.7 200l-.5-1.3q-2.4-6.05-5.2-10.35l-1-1.45q-2.05-2.85-4.3-4.85-2.35-2.05-4.85-3.2-4.6-2.1-8.95-3l-.3-.05-4.15-.55-.85-.05-3.3.05h-.35q-4.6.35-9 2.4-4.2 2-7.45 5.2-3.65 3.6-3.5 8.65.1 2.3.9 4.65l.55 1.5v.4l.15-.05 1.65 3.2q2 3.35 5.6 5.3l.4.2.2.3.1-.15q2.95 1.5 6.25 1.7l2.8-.05q4.7-.5 8.05-3.6 3.65-3.35 3.7-6.95.05-3.6-.9-6.5l-.65-1.45q.1-.95-2.05-2.7l.05-.05q.75.35 1.7.95l.1.1q2.1 1.5 4.05 6.85 2.05 5.65-1.4 10.25-3.5 4.55-8.95 6.05l-8.25.55q-2.95-.4-5.85-1.6-3.75-1.65-6.6-4.85l-1.95-2.55m60 4.65.8 1.95-.8-1.95" fill="#4d175c" fill-rule="evenodd"/><path d="m178.8 218.9-.25-.4q-4.2-6.2-4.2-13.15 0-13.5 5.3-23 6.9-12.3 20.75-12.3l2.55.15q-1.5 4.4-2.25 9.05-1.2 7.3-1.4 14.6-.15 5.05 2.35 9.15-.7 7.2-6.75 14l-1.6 1.75-1.05-.2q-6.75-1-13.45.35" fill="#4b1a4f" fill-rule="evenodd"/><path d="m122.05 204.7 2.7-6.05q1.05-16.7 9.35-30.8 12.45-12.75 24.15-20.9l1.8-1.25.35 2.35q1.15 5.6 5.35 9.3 4.2 3.65 8.85 4.15l12.65.6q5 .3 10.4-1.05 6.1-2.25 10.45-4.55l4.35-2.3q-4.55 5.85-8.4 13l-1.1 3-2.55-.15q-13.85 0-20.75 12.3-5.3 9.5-5.3 23 0 6.95 4.2 13.15l.25.4-5.55 1.5q-5.9 2.1-10.9 6.05l-7.15-5.5q-7.7-6.15-16.35-10.4-8.1-4.05-16.8-5.85m29.2-33.25q0 .95.65 1.6.65.65 1.6.65.95 0 1.6-.65.65-.65.65-1.6 0-.95-.65-1.6-.65-.65-1.6-.65-.95 0-1.6.65-.65.65-.65 1.6" fill="#7a305e" fill-rule="evenodd"/><path d="m202.95 170.2 1.1-3q3.85-7.15 8.4-13 7.9-10.25 18-16.55 12.45-7.8 28.15-9.65v.95q-17.7 5.1-32.35 14.75 26.8-4 41.6 9.25-42.85-17.05-55.1 5.1 14.15-5.35 25.6-3.2-25.35 1.9-31.85 13.45l-.35.65-.65 1.55-2.55-.3" fill="#5f1a57" fill-rule="evenodd"/><path d="M160.65 139.3q1.3-.95 2.7-1.8 7.15-4.5 16.1-8.6l6.65-2.85q6.45-2.7 13.7-5.15 12.45-4.2 25.75-2.75 2.15 1.5 3.65 3.9l.7 1.3q-12.7-.35-18.35.3H210q.45.75.45 1.85 0 2.7-3.05 6.5-2.6 3.2-5.5 5.2-.85.55-6.1 1.9-5.45 1.4-7.45 1.4-4.55 0-7.15-1.1-2.95-1.25-4.65-4.4-9.6 6-16.5 10.7-.3-3.25.6-6.4" fill="#bc80a0" fill-rule="evenodd"/><path d="m160.05 145.7-1.8 1.25q-11.7 8.15-24.15 20.9l3.25-5.05q10.3-14.6 23.3-23.5-.9 3.15-.6 6.4m65.5-27.55q8.45.95 17.25 4.2l.35.15 2.95 3.45v.3q-3.15-2.6-16-2.9h-.2l-.7-1.3q-1.5-2.4-3.65-3.9" fill="#a2688e" fill-rule="evenodd"/><path d="m217.25 91.85 1.55-3.6q4.05-3.85 9.55-7.65 8.2 5.3 18.5 2.75 11.6-3.05 20.05-11.65l1.45-1.5 1.65.95-3.5 3.75q-5.55 6.25-5.95 10v1.55h1.3q7.65-3.9 14.75-6.85.7 2 1 4.35l-1.85.85q-6.65 3.4-6.65 6.1 0 .9 5.7.95h2.6q-.75 3.8-2.65 7.2-3.25 5.65-6.3 9l5.55-.9q4.3 0 7.6 1.95 3.85 2.25 3.85 6 0 4.55-3.05 8.3-2.95 3.6-7.3 4.7 3.7 1.45 5.8 2.9l1.25 1q2.6 2.4 2.6 6.1 0 4.65-3.1 6.95-1.85 1.35-5 1.95 3.95 2.45 7.15 5.8 10 10.5 15.05 24.1 5.5 14.85-2.15 26.95-7.7 12.1-21.1 10.4-3.05-.45-5.95-1.35l-9.25-8.15q-1.3-4.45-2.95-8.8-1.55-4.1-3.9-7.6-2-3-4.55-5.5-2.6-2.55-5.75-4.65-2.95-1.9-6.1-3.2-3.2-1.3-6.55-1.95l-8.3-.7-1.9.2q-6.7.75-12.25 3.85-3.5 1.9-5.1 5.65.3-6 2.45-11.55l.65-1.55.35-.65q6.5-11.55 31.85-13.45-11.45-2.15-25.6 3.2 12.25-22.15 55.1-5.1-14.8-13.25-41.6-9.25 14.65-9.65 32.35-14.75V128q-15.7 1.85-28.15 9.65 1.2-2.65 1.2-6.45 0-4.35-1.7-7.8l.15-.05q12.85.3 16 2.9v-.3l-2.95-3.45 2.85 1.1q-4.2-6-20.05-8.35 1.55-7.85 10.55-18.55-11.2 7.15-14.8 18.3-5.15-.6-11.3.2 2.2-12 6.85-23.3h.1l-.1-.05" fill="#852c7a" fill-rule="evenodd"/><path d="m277.6 83.95.15 1.7q.2 3.2-.35 6.2h-2.6q-5.7-.05-5.7-.95 0-2.7 6.65-6.1l1.85-.85m-1-4.35q-7.1 2.95-14.75 6.85h-1.3V84.9q.4-3.75 5.95-10l3.5-3.75 2.85 2.4q2.5 2.6 3.75 6.05m-8.25-9.4-1.45 1.5q-8.45 8.6-20.05 11.65-10.3 2.55-18.5-2.75 3.8-2.65 8.4-5.2 14.9-8.55 23.25-7.55 4.8.6 8.35 2.35" fill="#9f4380" fill-rule="evenodd"/><path d="M224.35 77.45q3.65-6.4 8.2-12.55l4.65-2.45q4-2.2 6.95-3.15.6.8 2.7 1.3l3.65.45q6.25 0 12.25-5.25 6.35-5.6 6.35-12.35 0-1.75-1-3.95l-1-1.85q0-.65 6.25-6.05l8.2-6.85 8.9-7.65 5.15-5 .85-.25 1.1-.25q-.4 7.05-2 13.9l-.05.2q-7.15 6.15-16.1 9.85l-1.7.05.8.35.4.15h1.85q4.85 0 12.5-2.75-2.25 6.2-6.65 13.25l-3.5 5.3q-7.35 10.5-14.75 18.3-3.55-1.75-8.35-2.35-8.35-1-23.25 7.55-4.6 2.55-8.4 5.2l-2.9-2.15-1.1-1m71.95-6.8q-4.85 3.05-10.3 5.6l-.4.15-.45.15q-4.8 1.5-6.65 2.25l-1.9.8q-1.25-3.45-3.75-6.05l-2.85-2.4q3.35-3.45 7.55-7.15l12.35-11.1.1-.05 8.35-8.15.5 1.95q.75 1.75 2.3 1.75 1.75 0 5.45-1.65t5.85-1.75q2.15-.15 3.2.05 1.05.15-4.9 7.8l-6.65 8.45q-2.95 4.4-4.7 6.3-1.45 1.6-3.3 2.75l.2.3m12.3 3.1q.7 2.4 1.75 3.5 2.6 2.6 5.05 2.95l5.6-.15 7.2-.2q-6.85 6.4-16.8 7.55l-5.8 1.35q-7.1 1.85-14.5 3.05l-.2-.05.15.05-1.35.2-9-.3-3.3.15q.55-3 .35-6.2l-.15-1.7 9.45-4.1q1.75-.75 5.75-2l5.85-1.9q2-.75 6.55-1.6l3.4-.6m22.55 135q-12.45-9.1-18.25-22.3l6.15 1.35q24.5 10.7 38.45 22.25-12.15-.55-24.3-8.1l-1.3-1.45.05.65q-2.55-1.65-5.05-3.6 2.05 6.5 4.25 11.2m-18.45 3.85.25-.3q8.35 7.1 15.85 16.45 4.65 12 2 25.75-16.2-16.75-18.1-41.9" fill="url(#r)" fill-rule="evenodd"/><path d="M292.75 92.1q9.2 1.6 19.25.9-11.7 22.2-30.4 37.4l5.5-.6q.25.3.5.2l4.3-.8 2.3-.4 1.2.65q-.5 3.35-.5 6.55-.05 3.65 1.15 7.1.75 2.25 1.8 4.4 1.25 2.65 3.3 4.7l2.55 2.35 6.2 4.9 3.45 2.15.15.05 3.95 1.95 4.15 1.95 4.15 1.75 4.2 1.7 4.15 1.55 4.35 1.3 4.25 1.2 4.35.85 2.5.3 1.15 1.95q-17.5-1.9-37.35-10.05l-.05-.05.05.05q9.6 9.05 21.25 12.7l.3.1q3 7.4.7 12.55l-3.35-.75-13.2-2.9-6.15-1.35q5.8 13.2 18.25 22.3 2.9 6.2 6.15 9.15l-3.65 8.6q-4.2-8.1-12.7-11.15 5.15 6.4 7.85 13.4-7.5-9.35-15.85-16.45l-.25-.25h-.05v.05l-.05.4-.75-.95q-3.2 10.45-3.1 17.5.05 7.05 1.6 13.85-17.7 4.2-42.2-17.8-2-6.15-4.4-12.25l-1.3-3.25q3.45 2.1 7.2 3.3 2.9.9 5.95 1.35 13.4 1.7 21.1-10.4 7.65-12.1 2.15-26.95-5.05-13.6-15.05-24.1-3.2-3.35-7.15-5.8 3.15-.6 5-1.95 3.1-2.3 3.1-6.95 0-3.7-2.6-6.1l-1.25-1q-2.1-1.45-5.8-2.9 4.35-1.1 7.3-4.7 3.05-3.75 3.05-8.3 0-3.75-3.85-6-3.3-1.95-7.6-1.95l-5.55.9q3.05-3.35 6.3-9 1.9-3.4 2.65-7.2l3.3-.15 9 .3 2.7.1h.35" fill="url(#s)" fill-rule="evenodd"/><path d="M295.4 129.45q9.95 5.35 17.95 11.1 10.1 7.25 17.1 15.15l.55-1.1q12.2 9.5 18.55 19.6l-2.5-.3-4.35-.85-4.25-1.2-4.35-1.3-4.15-1.55-4.2-1.7-4.15-1.75-4.15-1.95-3.95-1.95-.15-.05-3.45-2.15-6.2-4.9-2.55-2.35q-2.05-2.05-3.3-4.7-1.05-2.15-1.8-4.4-1.2-3.45-1.15-7.1 0-3.2.5-6.55" fill="url(#t)" fill-rule="evenodd"/><path d="M203.7 197.9q1.65 1.75 4.3 3.4l.75.45q4.2 2.35 7.6 2.35 3.65 0 7.5-1.65 2.05-.85 2.95-2 .85-1.2 1-4.9.15-3.6-3.65-10.1l.35-.25q1.25 0 2.9 1.1.3.4 1.05.75l.05.05.1.1q1.4 1.25 2.2 2.8l.65 1.45q.95 2.9.9 6.5-.05 3.6-3.7 6.95-3.35 3.1-8.05 3.6l-2.8.05q-3.3-.2-6.25-1.7l-.3-.15-.3-.4-.1.2q-3.6-1.95-5.6-5.3l-1.65-3.2.1-.1" fill="#7e7cbf" fill-rule="evenodd"/><path d="M203.45 197.65q.05-1.95.6-4.45l1.05-4.7.9.6h1q2.35 0 4.45-1.5 2.35-1.6 2.35-3.75l-.55-1.5-.9-1.25.15-.15q2.35-2.1 6.65-3.55l6.45-2.2.85.05 4.15.55.3.05q4.35.9 8.95 3 2.5 1.15 4.85 3.2-10-4.25-24.6-.35 2.55 2.35 2.55 6.65 0 4.1-4 6.55-3.45 2.1-7.95 2.1-2.65-.85-3.15-1.3l.75 3.75.45 2.3-.75-.45q-2.65-1.65-4.3-3.4l-.25-.25m4.1-1.95-.05-.2v.15l.05.05" fill="#983b8d" fill-rule="evenodd"/><path d="m225.6 175.2-6.45 2.2q-4.3 1.45-6.65 3.55l-.15.15.9 1.25.55 1.5q0 2.15-2.35 3.75-2.1 1.5-4.45 1.5h-1l-.9-.6-1.05 4.7q-.55 2.5-.6 4.45l-.55-1.5q-.8-2.35-.9-4.65-.15-5.05 3.5-8.65 3.25-3.2 7.45-5.2 4.4-2.05 9-2.4h.35l3.3-.05" fill="#b775ae" fill-rule="evenodd"/><path d="M333.75 235.25q3.4 20.75-1 28.35-11.5-11.45-18-31.95-.35 1.8-.45 3.55-2.9-11.1-1.7-22.6h.1q1.9 25.15 18.1 41.9 2.65-13.75-2-25.75l4.95 6.5" fill="#d9cee9" fill-rule="evenodd"/><path d="M355.3 174.3q1.6 2.2 2.85 4.5l.75 1.4q-8.9.4-16.9-1.4-6.1-1.4-11.7-4.05l4.25 3.25.3.8.05.1-.3-.1q-11.65-3.65-21.25-12.7l-.05-.05.05.05q19.85 8.15 37.35 10.05l-1.15-1.95 1.85.2 3.9-.1m-18.6 5.1q2 1.15 3.95 1.95 3.7 6.55 3.25 13.05h-2.65l-9-3.7 3.35.75q2.3-5.15-.7-12.55l1.8.5m5.4 35.95q-2.15 11.15-7 17.95l-2.95-6.65 1.6 8.6-4.95-6.5q-2.7-7-7.85-13.4 8.5 3.05 12.7 11.15l3.65-8.6q-3.25-2.95-6.15-9.15 4.95 3.6 10.95 6.6m-27.8 19.85q-.3 6.7 3.75 11.9-34.4 4.2-49.25-20l-.3-1-.15-.4-.2-.6q24.5 22 42.2 17.8-1.55-6.8-1.6-13.85-.1-7.05 3.1-17.5l.75.95v.1q-1.2 11.5 1.7 22.6" fill="#a4a4d3" fill-rule="evenodd"/><path d="m331 154.6.3-.6q15.8 8.75 24 20.3l-3.9.1-1.85-.2q-6.35-10.1-18.55-19.6m10.25 39.8h-2.45q16.75 7.6 24 20.2-16.45 1.55-29.6-12.65 12.15 7.55 24.3 8.1-13.95-11.55-38.45-22.25l13.2 2.9 9 3.7m-9.3 6.75q.55 5.65 10.65 11.35l-.5 2.85q-6-3-10.95-6.6-2.2-4.7-4.25-11.2 2.5 1.95 5.05 3.6" fill="#d4c0e5" fill-rule="evenodd"/><path d="m286 76.3 6.65-2.7q7.55-3.35 14.85-7.75.25 4.95 1.1 7.9l-3.4.6q-4.55.85-6.55 1.6l-5.85 1.9q-4 1.25-5.75 2l-9.45 4.1q-.3-2.35-1-4.35l1.9-.8q1.85-.75 6.65-2.25l.3-.05.55-.2M312 93l4.8-.5q-5.85 21.75-28.7 37.15l-1 .15-5.5.6Q300.3 115.2 312 93" fill="#a08fce" fill-rule="evenodd"/><path d="m270 71.15-1.65-.95q7.4-7.8 14.75-18.3l3.5-5.3 1.1 1.45-.85.8q2.35.9 3 3.3l.15.7-.1.05L277.55 64q-4.2 3.7-7.55 7.15" fill="#a65ea1" fill-rule="evenodd"/><path d="M293.35 33.3q3.95-1.45 6.65-2.8l-.85 4.15q-.95 5.25-.95 8.15l.15 1.9-8.35 8.15-.15-.7q-.65-2.4-3-3.3l.85-.8-1.1-1.45q4.4-7.05 6.65-13.25l.1-.05" fill="#9c6bb8" fill-rule="evenodd"/><path d="m300 30.5 2.85-1.7q-.95 5.45-.95 9.65l.2 3.15.55 3.45.15.15q1.75-1.95 7.05-3.15Q314.3 41 318.3 41l5.45.7q-9.9 17.85-27.45 28.95l-.2-.3q1.85-1.15 3.3-2.75 1.75-1.9 4.7-6.3l6.65-8.45q5.95-7.65 4.9-7.8-1.05-.2-3.2-.05-2.15.1-5.85 1.75-3.7 1.65-5.45 1.65-1.55 0-2.3-1.75l-.5-1.95-.15-1.9q0-2.9.95-8.15l.85-4.15m7.5 35.35 1.4-.9 5.45 11.65q13.95-.3 22.1 4.45-14.7 10.65-37.4 10.95l-3.15-.05-4.8-.15q7.4-1.2 14.5-3.05l5.8-1.35q9.95-1.15 16.8-7.55l-7.2.2-5.6.15q-2.45-.35-5.05-2.95-1.05-1.1-1.75-3.5-.85-2.95-1.1-7.9" fill="#c89fd9" fill-rule="evenodd"/><path d="M297.55 11.6 308 9.2h2.2q-7.85 10.5-14.5 16.3h-.15q1.6-6.85 2-13.9" fill="#8f7fd7" fill-rule="evenodd"/><path d="m296.25 11.45 4.15-2.3.9-.45 5.55-2.35q3.45-1.45 6.3-1.45 2.85 0 2.85 1.65 0 1.2-3 6.2-2.7 4.55-6.6 9.05-2.5 2.85-5.65 5.2l-3.85 2.4-2.8 1.5 1.4-5.2.2-.2q6.65-5.8 14.5-16.3H308l-10.45 2.4-1.1.25-.85.25.65-.65" fill="#a294ce" fill-rule="evenodd"/><path d="M294.1 30.9q-3.8 1.95-6.6 2.8-5.35 1.5-8.1 1.85 8.95-3.7 16.1-9.85l-1.4 5.2" fill="#d3bce3" fill-rule="evenodd"/><path d="M218.8 88.25q2.45-5.5 5.55-10.8l1.1 1 2.9 2.15q-5.5 3.8-9.55 7.65m13.75-23.35q15.8-21.45 41.95-39.75 9.35-6.55 20-12.7l1.1-.35-5.15 5-8.9 7.65-8.2 6.85q-6.25 5.4-6.25 6.05l1 1.85q1 2.2 1 3.95 0 6.75-6.35 12.35-6 5.25-12.25 5.25l-3.65-.45q-2.1-.5-2.7-1.3-2.95.95-6.95 3.15l-4.65 2.45" fill="#e2b3de" fill-rule="evenodd"/><path d="M151.25 171.45q0-.95.65-1.6.65-.65 1.6-.65.95 0 1.6.65.65.65.65 1.6 0 .95-.65 1.6-.65.65-1.6.65-.95 0-1.6-.65-.65-.65-.65-1.6m67.5 82.75.8-.05q2.25 0 3.9 1.5l.2.2q1.75 1.75 1.75 4.15 0 2.4-1.75 4.1-1.7 1.75-4.1 1.75-2.4 0-4.15-1.75l-.85-1.1q-.85-1.35-.85-3 0-2.4 1.7-4.15 1.45-1.4 3.35-1.65m-64.1-6.8q-.7.85-1.75.85t-1.8-.85q-.7-.85-.7-2.05 0-1.2.7-2.05.75-.85 1.8-.85t1.75.85q.75.85.75 2.05 0 1.2-.75 2.05" fill="#9dd4fa" fill-rule="evenodd"/><path d="M21.4 125.55q20.15-8.6 74.05-18.55 21.65-4 44.2-7.35l14.85-2.1 14.9 19.05 7.2 8.8q-9.7 5.35-18.6 12-12.45 9.3-23.8 25.4-11.35 16.1-12.6 35.85-7.75 16.9-12.85 32.45-5.35-1.9-9.4-6.95-5.85-7.35-5.85-17 0-10.9 5.7-23.2l4.45-10q1.9-5.2 2.75-10.65-6.85-3.3-9.05-4.7-7.3-4.55-9-9.65-2.35 1.25-13.6 4.75-12.85 4-17.05 4-5.15 0-9.6-1.75-3.95-1.6-10.45-5.95l-6.2-3.6q-4.7-2.6-7.65-4.4l-7.35-5.9q2.2-5.4 4.95-10.55" fill="#469dbc" fill-rule="evenodd"/><path d="m16.45 136.1 7.35 5.9q2.95 1.8 7.65 4.4l6.2 3.6q6.5 4.35 10.45 5.95 4.45 1.75 9.6 1.75 4.2 0 17.05-4 11.25-3.5 13.6-4.75 1.7 5.1 9 9.65 2.2 1.4 9.05 4.7-.85 5.45-2.75 10.65l-4.45 10q-5.7 12.3-5.7 23.2 0 9.65 5.85 17 4.05 5.05 9.4 6.95-4.2 12.75-6.6 24.6l-6.05-3-13.45 1.25Q72.6 254 62.7 251.4q-19.9-5.15-33.65-20.25-13.9-15.25-18.6-35.25l-1.15-5.75q3.5 2.25 7 2.25 3 0 7.9-1 5.75-1.2 6.85-2.65 2.3-3.05 3.8-6.2 2.05-4.25 2.05-7.5 0-10.15-7.65-19.85-6.75-8.6-15.95-10.65 1.4-4.3 3.15-8.45" fill="#66ccdb" fill-rule="evenodd"/><path d="M13.3 144.55q9.2 2.05 15.95 10.65 7.65 9.7 7.65 19.85 0 3.25-2.05 7.5-1.5 3.15-3.8 6.2-1.1 1.45-6.85 2.65-4.9 1-7.9 1-3.5 0-7-2.25-2.9-17.2.95-34.45 1.25-5.7 3.05-11.15" fill="#a6e4ff" fill-rule="evenodd"/><path d="m277.6 83.95.15 1.7q.2 3.2-.35 6.2-.75 3.8-2.65 7.2-3.25 5.65-6.3 9l5.55-.9q4.3 0 7.6 1.95 3.85 2.25 3.85 6 0 4.55-3.05 8.3-2.95 3.6-7.3 4.7 3.7 1.45 5.8 2.9l1.25 1q2.6 2.4 2.6 6.1 0 4.65-3.1 6.95-1.85 1.35-5 1.95 3.95 2.45 7.15 5.8 10 10.5 15.05 24.1 5.5 14.85-2.15 26.95-7.7 12.1-21.1 10.4-3.05-.45-5.95-1.35-3.75-1.2-7.2-3.3-2.25-1.35-4.3-3.05m19.45-122.6q-.3-2.35-1-4.35-1.25-3.45-3.75-6.05l-2.85-2.4-1.65-.95q-3.55-1.75-8.35-2.35-8.35-1-23.25 7.55-4.6 2.55-8.4 5.2-5.5 3.8-9.55 7.65m-40 130.65-.25-.4q-4.2-6.2-4.2-13.15 0-13.5 5.3-23 6.9-12.3 20.75-12.3l2.55.15M180.4 277.9q.05-5.35 3.1-8.6.8-.9 4-3.1 1.3-.95 3.1-2.15-2.5-1.95-3.3-3.15-1.1-1.6-1.1-4.1 0-1.75.55-2.95l1.85-3.05q-1.4.7-3.35.7-3.55 0-6.7-3.6-3.45-3.85-3.45-8.9 0-8 2.45-10.4 1.05-1 8.25-4.05-3.75-1-7-5.65m61.4 19.5-.75-.7q-1.95-2.15-1.95-5.2l.05-2.25-2.15 1.2-3.3.1q-6.35 0-10.65-2.65l-.8-.5q-5.3-3.7-5.3-10.7 0-3.3.65-5.55l.05-.15m24.15 26.4.2.15q2.55 1.95 5.75 1.95l1.95-.05.8-.1q1.05-.3 2.1-1.85-.25 1.95 1.85 3.1 1.8 1 4.4 1h1.1l3.9-.6 2.25-1.1 2.65-1.4m-86.75 38.55q0 2.2 1.1 5.4l.35.95m-1.45-6.5v.15" fill="none" stroke="#4d175c" stroke-linecap="round" stroke-linejoin="round" stroke-width="2"/><path d="m268.8 227.1.8 2.7m-1.45-4.7.2.6.15.4.3 1m-6.35-17.5 1.3 3.25q2.4 6.1 4.4 12.25m-5.7-15.5-.8-1.95" fill="none" stroke="#4d175c" stroke-linecap="round" stroke-linejoin="round" stroke-width=".3"/><path d="M151.25 171.45q0-.95.65-1.6.65-.65 1.6-.65.95 0 1.6.65.65.65.65 1.6 0 .95-.65 1.6-.65.65-1.6.65-.95 0-1.6-.65-.65-.65-.65-1.6m67.5 82.75.8-.05q2.25 0 3.9 1.5l.2.2q1.75 1.75 1.75 4.15 0 2.4-1.75 4.1-1.7 1.75-4.1 1.75-2.4 0-4.15-1.75l-.85-1.1q-.85-1.35-.85-3 0-2.4 1.7-4.15 1.45-1.4 3.35-1.65m-64.1-6.8q-.7.85-1.75.85t-1.8-.85q-.7-.85-.7-2.05 0-1.2.7-2.05.75-.85 1.8-.85t1.75.85q.75.85.75 2.05 0 1.2-.75 2.05z" fill="none" stroke="#723158" stroke-linecap="round" stroke-linejoin="round" stroke-width="2"/></g><g id="e" fill-rule="evenodd"><path d="M81.45 91.85Q78.1 94 75.3 96.95l.15.35.35 1.15q0 2.05-3.05 2.7l-1 .2-1.05.1-2.95-.25q-12.15-.55-21.95 5.65-20.9-7.25-31.25-25.8Q4.2 62.45 1.4 54.55-1.4 46.6 1.35 41l4.8-10.15q1.2-2.65 4.45-7.35l.5-.75 1.4-1.25q-1.65 3.3-3.8 8.4-5.1 12-4.15 21.1v.05q.95 9.05 13 23.95Q29.6 89.9 35.7 94l8.2 4.95q4.45-2.15 8.15-3.2 4.25-1.25 8.65-1.3h.45l8.95-.4q1.45-.1 3.35-1.3l2.5-1.8 3.2.5 2.3.4" fill="#337085"/><path d="m81.45 91.85-2.3-.4-3.2-.5.7-.55.35-.25q-1.1-.6-2.8-2.3l-2.15-2.3q-4.9-5.6-5.15-9.85-.25-3.9 2.75-10.7l.55-1.2q3.55-7.7 3.55-11.2 0-3.2-1.9-5.05Q69 45.4 67.2 43.3l-4.4 4.55q-2.95 3.05-4.35 5.75l-.35-.5-.05-.9q0-5.15 7.85-13.15 5.4-5.5 8.65-7.35l.25-.1h2q4.75.45 11.2 3.95 8.1 4.35 15.7 11.35 7.55 7 12.2 18.05 4.25 10.2-2.55 18.6-9.75.45-20.3 3.25-6.45 1.65-11.6 5.05m10.85-49.6-1.95-1.4-6.35-3.8-.95-.5q-3-1.6-6.1-2.8-.45-.2-.9-.25l-3.25 3.7-2.7 2.95-2.2 2.1q3.3.4 5.3 3.6l.5.85q1.6 2.85 2.05 5.55.5 3.1-3 10.8-3.55 7.7-3.55 11.55 0 4.55 3.85 8.45 2.25 2.25 4.95 3.5l2.3.9.3.35v.05l.3-.25q11-6.25 29.35-7.35 1.45-2.5 1.3-4.9l-.85-6.15-1.8-6.7q-1.2-3.5-3.1-6.3-2.15-3.2-4.7-6-2.35-2.6-5.05-4.9l-3.75-3.05" fill="#45458c"/><path d="M94.95 51.65q-.65-4.95-2.65-9.4l3.75 3.05q2.7 2.3 5.05 4.9 2.55 2.8 4.7 6 1.9 2.8 3.1 6.3l1.8 6.7.85 6.15q.15 2.4-1.3 4.9-18.35 1.1-29.35 7.35l-.6-.15-1.45-1.75q1.9-1.85 4.2-3.2 2.85-1.7 5.85-2.95 3.45-1.45 6.8-2.75l3.6-1.3 6.2-2.4q-.1-3.55-1.5-6.95-1.4-3.45-4.15-7.3l-4.9-7.05v-.15" fill="#a2a6d9"/><path d="m94.95 51.8 4.9 7.05q2.75 3.85 4.15 7.3 1.4 3.4 1.5 6.95l-6.2 2.4-3.6 1.3q-3.35 1.3-6.8 2.75-3 1.25-5.85 2.95-2.3 1.35-4.2 3.2l-2.75-3.5q-1.2-1.9-1.85-3.75 7.3 1.85 13.55-4.3 7.25-7.1 7.45-16.95l-.3-5.4" fill="#848acd"/><path d="M83.05 36.55q3.2 3.55 6 7.2l5.85 7.95.05.1.3 5.4q-.2 9.85-7.45 16.95-6.25 6.15-13.55 4.3-.9-2.4-.85-4.85v-1.45q2.2 1.25 4.45 1.25 2.6 0 4.85-2 2.4-2.15 2.4-4.9 0-3.3-1.3-4.85-1.05-1.35-4.35-2.65v-.35q.45-.35.5-.9l.05-1.4q0-4.6-1.75-6.9-1.5-2-4.55-2.75l-.5-.85q-2-3.2-5.3-3.6l2.2-2.1 2.7-2.95 3.25-3.7q.45.05.9.25 3.1 1.2 6.1 2.8" fill="#ce9cde"/><path d="m83.05 36.55.95.5 6.35 3.8 1.95 1.4q2 4.45 2.65 9.4l-.05.05-5.85-7.95q-2.8-3.65-6-7.2" fill="#d9b4e6"/><path d="M78 86.55q-2.7-1.25-4.95-3.5-3.85-3.9-3.85-8.45 0-3.85 3.55-11.55 3.5-7.7 3-10.8-.45-2.7-2.05-5.55 3.05.75 4.55 2.75 1.75 2.3 1.75 6.9l-.05 1.4q-.05.55-.5.9V59q3.3 1.3 4.35 2.65 1.3 1.55 1.3 4.85 0 2.75-2.4 4.9-2.25 2-4.85 2-2.25 0-4.45-1.25v1.45q-.05 2.45.85 4.85.65 1.85 1.85 3.75l2.75 3.5-.85.85" fill="#ffd0ff"/><path d="m74.45 3.85.1.05.25.1q.7.25 1.35.85 1.75 1.6 3.05 5.7 1.5 4.9 1.5 9.5 0 4.4-2.4 9.05l-1.5 2.5h-2l-.25.1q-3.25 1.85-8.65 7.35-7.85 8-7.85 13.15l.05.9.35.5q1.4-2.7 4.35-5.75l4.4-4.55q1.8 2.1 4.65 4.25 1.9 1.85 1.9 5.05 0 3.5-3.55 11.2l-.55 1.2-.95.4-3.35.55q-5.1 0-9.9-5-5-5.2-5-11.5 0-6.15 4.6-11.95 2.6-3.3 8.15-9.1l3.4-4.3q2.7-3.65 3.7-6.35l2.5-8 1.65-5.9" fill="#469dbc"/><path d="M28.25 4.05q2.5-1 5.55-1.85Q42 0 49.25 0q6 0 15.15 1.55 6.65 1.15 10.05 2.3l-1.65 5.9-2.5 8q-1 2.7-3.7 6.35l-3.4 4.3q-5.55 5.8-8.15 9.1-4.6 5.8-4.6 11.95 0 6.3 5 11.5 4.8 5 9.9 5l3.35-.55.95-.4q-3 6.8-2.75 10.7.25 4.25 5.15 9.85l2.15 2.3-4.65 2.4q-6.1 3-8.05 3l-.1-.05.75-1.8q1.5-3.8 1.5-8.2 0-4.45-3.45-7.9t-7.7-4.35q-4.25-.95-7.65 0-3.7 1-3.95 1.8-2.65-1.95-5.25-3.35l-6.2-11.6q-2.65-5-2.65-6.55 0-1.65 4.15-5 2.5-2.05 9.15-7.05 13.3-10.7 13.3-19.4 0-7.8-6.6-12.45Q41.25 3.4 34.45 3.4l-6.2.65" fill="#66ccdb"/><path d="m75.95 90.95-2.5 1.8q-1.9 1.2-3.35 1.3l-8.95.4h-.45q-4.4.05-8.65 1.3-3.7 1.05-8.15 3.2L35.7 94q-6.1-4.1-18.15-19-12.05-14.9-13-23.95l.2-1.4.9-4.4 2.7-4q2.65-3.5 3.15-3.5.3 0 1.15.55.8.55 2.55.55 5.25 0 9.35-3.6 4.3-3.75 4.3-9.1 0-4.05-1.8-5.7-1.75-1.6-6.05-1.6-3.2 0-5.15.7-1.7.6-3.35 1.95.65-1.4 1.25-2.45l-2.45 3.4q4.5-10.6 9.4-14.75 3.15-2.6 7.55-3.65l6.2-.65q6.8 0 12.35 3.95Q53.4 12 53.4 19.8q0 8.7-13.3 19.4-6.65 5-9.15 7.05-4.15 3.35-4.15 5 0 1.55 2.65 6.55l6.2 11.6q2.6 1.4 5.25 3.35.25-.8 3.95-1.8 3.4-.95 7.65 0 4.25.9 7.7 4.35 3.45 3.45 3.45 7.9 0 4.4-1.5 8.2l-.75 1.8-.05.05h.15q1.95 0 8.05-3l4.65-2.4q1.7 1.7 2.8 2.3l-.35.25-.7.55" fill="#a6e4ff"/><path d="M4.55 51.05V51Q3.6 41.9 8.7 29.9q2.15-5.1 3.8-8.4 1.65-1.35 3.35-1.95 1.95-.7 5.15-.7 4.3 0 6.05 1.6 1.8 1.65 1.8 5.7 0 5.35-4.3 9.1-4.1 3.6-9.35 3.6-1.75 0-2.55-.55-.85-.55-1.15-.55-.5 0-3.15 3.5l-2.7 4-.9 4.4-.2 1.4" fill="#c4ffff"/></g><g id="f"><path d="M32.9 117.65q-12.5-17.55-8.65-44.9-.9-1.85-2-5.45-1.55-5.25-1.3-6.6.2-1.35 4.4-5.5L35 45.35Q49 22.3 73.35 15.5L85.2 4.6l43.6 8.1Q154.7 5.1 180 4l12.7-4 .3.15q8.35 4.15 13.85 12 30.7 13.15 46.75 39.7l4.25-.5q1.2.4 2 1.5 1.45 2 2.6 4.5L264.4 62l1.9 5.6.65 2.15q1.15 3.75.15 7.45l-.3 1-.25.6q2.35 11.45 1.75 21.2-1.65 26.9-25.55 40.8 7.15-14.9 2.65-40.8l-.6-3.05-4.05-1.1-3.75-.95q-2.85-.75-2.45-3.45.35-2.55-.2-6.6l-.3-.7Q228.5 72.85 215 66.3l-4 2.5q-6.25 4.1-8.05 4.15-1.8.05-6.35-5.25l-4.55-5.6-6.6 1.2-7.9 1.45.6 1.3q.85 1.7.85 3.4l.1 1.55q.15 1-.25 2.05L177 77l-.3.55-.25.3-3.65-3.95.15-1.1.15-1.95-.2-2.7-.9-4.9q-1.8-.55-3.35.4-.15.05-.3.2l-.1.55q-.45 2.25-1.4 4.2v.05q-1.5 2.95-4.15 5.1l-.45.35-.1.4q-.6 2.8-.65 5.5l.05 3.1.4 2.55Q163 91 160.3 97.95l-.3.75-.35.75q-3.1 6.85-8.95 10.3-6.2 3.6-12.85 5.6-4.45 1.25-9 1.5-2.8.15-5.6-.1l-2.5-.35-.15.4q-16.55-2.95-25.4-12.35-5.45-5.75-8.05-13.9-2.45-9.85-2.55-11.9-.55-8.45 1.95-16.5.95-3.05 2.15-6l2.45-5.4 1.8-3.4-.1-.35-.9-3.15q-.6-2-.6-3.6 0-1.95 3.6-3.45 1.95-.8 5.25-1.9 2.25-1.1 4.9-2.7l5.35-3.8q2.85-2.1 7.25-5.3l1.35-.9 3.05-2.3-.05-.05Q106 14.9 85.55 12.3l-6.2 5.05-.45.05-.05.3-.9.45Q51.5 31.25 43.1 45.7l-6.7 6.85-9.9 10.2 5 6.45.7.85-.1.35q-1.15 5.45-1.4 11.1-.4 8.35 1.15 17.2 1.35 7.9 4.3 16.15l-3.25 2.8M252.7 58.9l-.95 1.05q-13.8-24.15-42.6-40.4l-1.85-1.05-1.05-.55-4.1-2.15-.65-.3-10.05-8.35-8.45 3.4-1.8.75-11.5-.35-10.15.55q-10.1.95-19.25 3.7h-.8l.1.25q-15.05 4.6-27.35 14.05l-3.1 2.45-3.5 3.1-.9-.2-9.8 6.15q-.25 1.95.95 4.3v.05l.1.25h.05l.95 1.45-.15.3q-5.9 10.25-8.05 19.7-.75 3.25-.85 6.65-.15 3.05.15 6.2.5 4.6 2 9.45 3.55 11.5 12.5 17.6l.45.3q3.4 2.2 7.15 3.3l.75.35.1-.15 4.1 1.1 1.55.4 1.4.25 4.35.65.5.35.3.2.25.2-.2-.2h.15l1.6-.3q20.4 1.35 30.05-12.95l.45-.75q2.05-3.2 3.55-7.1 1.5-11.55-2.05-15.6-3.55-4.1-7.15-6.25l-.85-.45q-1.3-.75-2.65-1.25-2.5-1.05-5.15-1.55l-1.4-.2-.5-.25-.65.05-1.5-.2q-4.15.4-6.65 1.7-.6.3-1.1.7-.55.35-1 .8-2.55 2.6-3.45 6.05-.55 2.05-.45 4.5.05 1.75.4 3.7.5 2.5 2.05 4.3l1.45 1.4.1.2.05-.05 1.4.85q4.1 2.15 8.75 1.4 4.9-.95 4.75-5.9l-.35-2.85q-.55-2.2-1.9-3.35-1.55-1.35-4.2-1.3l-2.9.1q.65-.45 2.6-1l3-.6 2.15.3q2.1.65 3.25 2.65 1.35 2.35 1.35 6.1 0 4.45-3.1 7.2-3.05 2.65-7.7 2.65-2.8 0-5.4-1.5-2.35-1.4-4.5-3.9-2.2-2.55-3.3-5.55-1.15-3.15-1.15-6.8.05-7.15 5.25-11.15t12.35-3.7q5.2.25 9.2 1.95 1.4.6 2.65 1.4 4.2 2.7 6.4 5.2l.55.65-.35-.7q5.85-1.65 8.2-7.45l.85-2.6.2-.1q7.25-4.15 15.45-5.8 6.8-1.2 13.55.55l1.3 1.6q3.4 4.35 5.8 6.75l5.55-4.15q1.95-1.4 3.85-2.3l.4.15q16.25 6.25 28.2 18.5l.55.55-.35 2.4-.2 1.45q-.55 4.75 0 7l.25.7.05.1q5.05.8 7.85-.7l.55 1.5.05.05q1.6 4.65 2.6 9.45 2.5 12.1.75 25.1 3.85-6.25 5.95-13.2l.05.1.2-.9.45-1.7q1.15-4.55 1.6-9.4.9-9.9-1.25-21l-.15-.6.1-4.2q-.3-8.15-4.3-16.35-1.55-.1-2.8 1.05M86.95 72.3v-.2l-.05.1-.4-.55.3.65h.05l.05.05v.05l.05.1.05-.2h-.05" fill="#5d254a" fill-rule="evenodd"/><path d="m31.5 69.2-5-6.45 9.9-10.2L46.35 51v.05q.5 2.2 2.2 3.3l1.7.9.6.3q.85.65 1.85.8h.35q2.8 0 4.45-3.35l.7-1.85 5.7.75 1 .2q3.8.75 7 2.35l-3.6 3.6-5.3 4.7-3.1 2.6-1 .75q-8.95-2.3-15.6-2.3-3.2 0-6.35 1.85L31.5 69.2m47.85-51.85 6.2-5.05q20.45 2.6 36.5 7.55l-4.35 3.25-4.1 2.25-4.35 2.2-.15.05L99 21.7q-9.25-4.4-19.25-4.4l-.4.05m16.55 28v-.05q-1.2-2.35-.95-4.3l9.8-6.15.9.2 3.5-3.1q6.3-.35 11.95-.05-8.2 4.65-11.65 11-5.45.55-11.3 2.1l-2.1.6-.15-.25m41.25 3.1 4.15-8 2-3.8q2.65 1.15 5 2.6 9.25 5.7 13.95 15.7-4.7 2.4-8.25 5.1l-2.55 2.1q-6.3-8.85-14.3-13.7" fill="#00dfff" fill-rule="evenodd"/><path d="m183 10.55 8.45-3.4 10.05 8.35.65.3 4.1 2.15 1.4 3.45q-2.95-1.55-6-2.9-7.4-3.2-15.75-5.15l-2.9-2.8M135.1 33.9q4.4 1.05 8.2 2.75l-2 3.8-4.15 8q-3.05-1.8-6.3-3.05l2.1-4.6 2.15-6.9m-14-2 7.95.8-3.35 2.05q-6.55 4.15-8.55 7.9l-7.7.25q3.45-6.35 11.65-11" fill="#1ad9ff" fill-rule="evenodd"/><path d="M129.05 32.7q3.55-2.2 8.05-4.65l-2 5.85-6.05-1.2m-11.9 9.95q7.3.3 13.7 2.75-3.55 6.4-7.95 6.4-2.65 0-4.6-1.65-2.05-1.7-2.05-4.2 0-1.6.9-3.3m-67.9 8.15q.45-3.1 4.25-7.7 4-5 8.15-6.45-1 1.7-1.4 4.05l-.95 6.5-1.1 3.95-8.95-.35" fill="#da65c7" fill-rule="evenodd"/><path d="m135.1 33.9 2-5.85q-4.5 2.45-8.05 4.65l-7.95-.8 3.25-1.7q6.05-2.9 16.05-5.85l14.6-4.2q-3.15 3.3-6.45 7.95-2.5 3.45-5.25 8.55-3.8-1.7-8.2-2.75m-4.25 11.5q3.25 1.25 6.3 3.05l-1.4 2.5q-1.7 2.85-4 5.2-2.3 2.3-7.25 4.15-4.95 1.85-7.4 1.65-2.45-.25-6.3-2.7-3.9-2.45-3.9-6.1 0-5.6 2.55-10.25l7.7-.25q-.9 1.7-.9 3.3 0 2.5 2.05 4.2 1.95 1.65 4.6 1.65 4.4 0 7.95-6.4M46.4 50.75q0-5.05 3.8-9.25l8.5-7.4q3-2.5 10.5-5.7 7.65-3.2 10.95-5.35L63.9 51.9l-5.7-.75 1.1-3.95.95-6.5q.4-2.35 1.4-4.05-4.15 1.45-8.15 6.45-3.8 4.6-4.25 7.7v.05l-.15 1.65q0 1.35 1.25 2.6l-.1.15-1.7-.9q-1.7-1.1-2.2-3.3h.1l-.05-.3" fill="#c333a4" fill-rule="evenodd"/><path d="m129.05 32.7 6.05 1.2-2.15 6.9-2.1 4.6q-6.4-2.45-13.7-2.75 2-3.75 8.55-7.9l3.35-2.05m-78.7 22.4q-1.25-1.25-1.25-2.6l.15-1.65v-.05l8.95.35-.7 1.85q-1.65 3.35-4.45 3.35h-.35q-1-.15-1.85-.8l-.5-.45" fill="#6be9ff" fill-rule="evenodd"/><path d="M30.7 81.5q.25-5.65 1.4-11.1l.1-.35-.7-.85 5.45-3.55q3.15-1.85 6.35-1.85 6.65 0 15.6 2.3l-2.2 1.6-4.3 3.25q-2.4 1.85-6.15 3.9l-5.35 3-3 1.45-4.4 1.45-2.8.75m5.7-28.95 6.7-6.85q8.4-14.45 34.85-27.55l.9-.45.5-.35.4-.05q10 0 19.25 4.4l10.1 5.9-6.2 2.7-6.6 2.8-4.15 2q-3.35 1.65-6.55 3.65-3.3 2.05-5.85 5l-2.05 2.7-2.75 4.1-2.05 2.75-1 1.15q-3.2-1.6-7-2.35l-1-.2 16.25-28.85q-3.3 2.15-10.95 5.35-7.5 3.2-10.5 5.7l-8.5 7.4q-3.8 4.2-3.8 9.25V51h-.05l-9.95 1.55M148.15 65.8q-4-1.7-9.2-1.95-7.15-.3-12.35 3.7-5.2 4-5.25 11.15 0 3.65 1.15 6.8l-7.3-5.1q-7.7-4.75-15.75-4.75-5.95 0-9.15 2.25l-2.35-4.2q.1-3.4.85-6.65 2.15-9.45 8.05-19.7l.15-.3L98.15 45q5.85-1.55 11.3-2.1-2.55 4.65-2.55 10.25 0 3.65 3.9 6.1 3.85 2.45 6.3 2.7 2.45.2 7.4-1.65 4.95-1.85 7.25-4.15 2.3-2.35 4-5.2l1.4-2.5q8 4.85 14.3 13.7-2 1.8-3.3 3.65m-6.25 12.05-2.15-.3-3 .6q-1.95.55-2.6 1l2.9-.1q2.65-.05 4.2 1.3-.55 1.15-1.5 2l-2.4 2q-1.15.85-2.75 1.35l-3.1.4-2.55-.75-2-1.15v-.35q0-2.65.6-6.15 2.35-.45 2.85-.85.75-.6.75-2.55l-.35-1.6q-.45-1.05-.95-1.2 1.35-1.5 3.4-2.6l.5.1q2.1.55 3.5 1.2l2.35 1.45q1.55 1.1 2.05 2.75l.3 2.2-.05 1.25" fill="#723669" fill-rule="evenodd"/><path d="M31.85 98.7q-1.55-8.85-1.15-17.2l2.8-.75 4.4-1.45 3-1.45 5.35-3q3.75-2.05 6.15-3.9l4.3-3.25 2.2-1.6.25.05.3.1q-2.1 4.1-5.25 11.25-3.15 7.05-6.3 10.65-8.35 9.4-16.05 10.55m78.6-70.3-5.35 3.8q-2.65 1.6-4.9 2.7-3.3 1.1-5.25 1.9-3.6 1.5-3.6 3.45 0 1.6.6 3.6l.9 3.15.1.35-1.8 3.4q-6.3 4.75-11 10.45-3.4-4.35-8.25-6.75l1-1.15 2.05-2.75 2.75-4.1 2.05-2.7q2.55-2.95 5.85-5 3.2-2 6.55-3.65l4.15-2 6.6-2.8 6.2-2.7 1.35.8m49.1-16.9 10.15-.55q8.5.65 16.2 2.4l2.6 3.05q-13.6-4.1-28.95-4.9m48.1 9.9 1.5.85q9.35 5.25 17.05 12.9l-1.3.75q-7.6-6.25-16-10.9l-1.25-3.6" fill="#461b40" fill-rule="evenodd"/><path d="M36.15 114.85q-2.95-8.25-4.3-16.15 7.7-1.15 16.05-10.55 3.15-3.6 6.3-10.65 3.15-7.15 5.25-11.25 6.85 1.7 9.1 3.45-5.6 11.85-6.65 25.45-13.3 9.05-25.75 19.7" fill="#762181" fill-rule="evenodd"/><path d="m109.15 31.95 3.1-2.45q12.3-9.45 27.35-14.05l.7-.25q5.5.15 17.35 2.25l6.05 1.1q15.2 2.9 19.85 4.35 6.95 2.2 11.05 4.45 3.35 8.9 3.25 20.2l-4.1-.1-1.75-.1q-10.4-4.4-14.2-5.05l-9.95-1.9q-7.8-1.35-14.6-1.35l-4.95.2q-2.35-1.45-5-2.6 2.75-5.1 5.25-8.55 3.3-4.65 6.45-7.95l-14.6 4.2q-10 2.95-16.05 5.85l-3.25 1.7q-5.65-.3-11.95.05" fill="#813282" fill-rule="evenodd"/><path d="M122.5 85.5q1.1 3 3.3 5.55 2.15 2.5 4.5 3.9l-4.9 1.1-7.95.6q-6.8 0-10.75-1.45-4.2-1.55-9.1-6.05-2.95-2.7-5.7-8.2l-1.6-3.05q3.2-2.25 9.15-2.25 8.05 0 15.75 4.75l7.3 5.1" fill="#87308b" fill-rule="evenodd"/><path d="M130.3 94.95q2.6 1.5 5.4 1.5 4.65 0 7.7-2.65 3.1-2.75 3.1-7.2 0-3.75-1.35-6.1-1.15-2-3.25-2.65l.05-1.25-.3-2.2q-.5-1.65-2.05-2.75l-2.35-1.45q-1.4-.65-3.5-1.2l-.5-.1.55-.3q2.4-1.25 4.9-1.5l1.15.2 1.4.2q2.65.5 5.15 1.55 1.35.5 2.65 1.25 11.75 20 1.8 31.3l-.55.6q-7.3 7.7-25.25 11.2l-2.35-.2-1.95-1.95q.7 1.15 1.7 1.9l-4.35-.65-1.4-.25-1.55-.4-4.1-1.1-.85-.2q-4.15-2.15-7.6-3.6-8.95-6.1-12.5-17.6-1.5-4.85-2-9.45-.3-3.15-.15-6.2l2.35 4.2 1.6 3.05q2.75 5.5 5.7 8.2 4.9 4.5 9.1 6.05 3.95 1.45 10.75 1.45l7.95-.6 4.9-1.1" fill="#842394" fill-rule="evenodd"/><path d="m206.25 17.95 1.05.55 1.85 1.05q28.8 16.25 42.6 40.4l.95-1.05.15 1.15q.2 2.2-.2 4.2-.55 2.8-2.05 5.4-2.3-4.9-5.2-9.6-3.95-6.5-9.05-12.75-4.65-6.7-10.15-12.15-7.7-7.65-17.05-12.9l-1.5-.85-1.4-3.45M259.85 79q2.15 11.1 1.25 21-.45 4.85-1.6 9.4-.05-13-3.45-25.15l3.8-5.25m-110.8-8.7.85.45q3.6 2.15 7.15 6.25 3.55 4.05 2.05 15.6-1.5 3.9-3.55 7.1-1.35.6-2.65 1.3l-2.05.6q9.95-11.3-1.8-31.3m6.05 30.15q-9.65 14.3-30.05 12.95 17.95-3.5 25.25-11.2l2.6-1.2 2.2-.55m14.6-89.5 11.5.35 1.8-.75 2.9 2.8q-7.7-1.75-16.2-2.4" fill="#9881e7" fill-rule="evenodd"/><path d="M166.85 68.65v-.05q.95-1.95 1.4-4.2l.1-.55q.15-.15.3-.2 1.55-.95 3.35-.4l.9 4.9.2 2.7-.15 1.95-.15 1.1q-2.8-2.8-5.95-5.25" fill="#9b26b3" fill-rule="evenodd"/><path d="m148.3 39.25 4.95-.2q6.8 0 14.6 1.35l9.95 1.9q3.8.65 14.2 5.05l-9.8.55q-5.75.85-14.15 4.4-3.1 1.25-5.8 2.65-4.7-10-13.95-15.7" fill="#74356d" fill-rule="evenodd"/><path d="M195.65 56.95q-6.75-1.75-13.55-.55-8.2 1.65-15.45 5.8l-.2.1-1.3.75q-1.15-4.35-2.9-8.1 2.7-1.4 5.8-2.65 8.4-3.55 14.15-4.4l9.8-.55 1.75.1 4.1.1-.2 4.65-.55 5.15-1.45-.4M157.2 72.4q-2.2-2.5-6.4-5.2-1.25-.8-2.65-1.4 1.3-1.85 3.3-3.65 3.2 4.55 5.95 10.15l-.2.1" fill="#842293" fill-rule="evenodd"/><path d="m128.45 90.05-1.45-1.4q-1.55-1.8-2.05-4.3-.35-1.95-.4-3.7-.1-2.45.45-4.5.9-3.45 3.45-6.05.45-.45 1-.8l1.2-.5-.1-.2q2.5-1.3 6.65-1.7l1.5.2q-2.5.25-4.9 1.5l-.55.3q-2.05 1.1-3.4 2.6.5.15.95 1.2l.35 1.6q0 1.95-.75 2.55-.5.4-2.85.85-.6 3.5-.6 6.15v.35q.05 1.9.8 4.1l.7 1.75" fill="#a668a1" fill-rule="evenodd"/><path d="M141.25 80.35q1.35 1.15 1.9 3.35l.35 2.85q.15 4.95-4.75 5.9-4.65.75-8.75-1.4l-1.4-.85-.15-.15-.7-1.75q-.75-2.2-.8-4.1l2 1.15 2.55.75 3.1-.4q1.6-.5 2.75-1.35l2.4-2q.95-.85 1.5-2" fill="#4d1b49" fill-rule="evenodd"/><path d="M165.6 64.9q-2.35 5.8-8.2 7.45v-.05q-2.75-5.6-5.95-10.15l2.55-2.1q3.55-2.7 8.25-5.1 1.75 3.75 2.9 8.1l.45 1.85" fill="#7f39b9" fill-rule="evenodd"/><path d="M140.3 15.2q9.15-2.75 19.25-3.7 15.35.8 28.95 4.9 3.8 4.95 6.1 10.95-4.1-2.25-11.05-4.45-4.65-1.45-19.85-4.35l-6.05-1.1q-11.85-2.1-17.35-2.25" fill="#621e66" fill-rule="evenodd"/><path d="M252.7 58.9q1.25-1.15 2.8-1.05 4 8.2 4.3 16.35l-.1 4.2.15.6-3.8 5.25q-2.1-7.45-5.45-14.6 1.5-2.6 2.05-5.4.4-2 .2-4.2l-.15-1.15" fill="#4ddcf5" fill-rule="evenodd"/><path d="M226.2 35.15q5.5 5.45 10.15 12.15 5.1 6.25 9.05 12.75-.95 1.55-2.45 2.6-2.6 1.85-6.3 1.85-5.65 0-11.5-6.25l-3.2-4v-.05l-.7-1.15-.15-.3-.05-.05-.7-1.55q-1.05-2.55-1.05-5.05 0-4.2 1.95-6.9 1.3-1.85 3.65-3.3l1.3-.75" fill="#a04bd2" fill-rule="evenodd"/><path d="m249.45 90.5-.55-1.5q-2.8 1.5-7.85.7l-.05-.1-.25-.7q-.55-2.25 0-7l.2-1.45 2.3-1.8q2.25-2.05 4.25-4.7l1.55-2.05.85-1.2.7-1.05q3.35 7.15 5.45 14.6l-2.25 2.45-4.2 3.75-.15.05" fill="#982ec0" fill-rule="evenodd"/><path d="m259.5 109.4-.45 1.7-.25.8q-2.1 6.95-5.95 13.2 1.75-13-.75-25.1-1-4.8-2.6-9.45l.1-.1 4.2-3.75 2.25-2.45q3.4 12.15 3.45 25.15" fill="#a327bd" fill-rule="evenodd"/><path d="m240.95 80.45.35-2.4-.55-.55Q228.8 65.25 212.55 59l.05-.3.4-5.6h.05l.55-.15 1.3-.2.5-.05-1.25.7 1.3-.6.8-.35h1.15l-1.15.7 1.15-.35v.1l2.2-.45h1.05l-.9.7.05.25 1.45-.35.7 1.15-.15.1.15-.05 3.2 4q5.85 6.25 11.5 6.25 3.7 0 6.3-1.85 1.5-1.05 2.45-2.6 2.9 4.7 5.2 9.6l-.7 1.05-.85 1.2-1.55 2.05q-2 2.65-4.25 4.7l-2.3 1.8" fill="#9124a4" fill-rule="evenodd"/><path d="M224.9 35.9q-2.35 1.45-3.65 3.3-1.95 2.7-1.95 6.9 0 2.5 1.05 5.05l.7 1.55.05.05.15.3-1.45.35-.05-.25.9-.7h-1.05l-2.2.45v-.1l-1.15.35 1.15-.7h-1.15l-.8.35-.05-.1-.5.05-1.3.2-.55.15v-.05L213 53q.55-14-4.1-28 8.4 4.65 16 10.9" fill="#73207c" fill-rule="evenodd"/><path d="m194.6 27.35 1.05.6q4.2 2.5 8 6.85 3.75 4.35 3.4 7.55-.4 3.2-5.1 4.5l-4.1.7q.1-11.3-3.25-20.2" fill="#4395e7" fill-rule="evenodd"/><path d="M212.15 58.85q-1.9.9-3.85 2.3l-5.55 4.15q-2.4-2.4-5.8-6.75l.15-1.15v-.05l.55-5.15.25.3q1.6.9 7.5.9l7.6-.35v.05l-.4 5.6-.45.15" fill="#773db7" fill-rule="evenodd"/><path d="M208.9 25q4.65 14 4.1 28v.05l-7.6.35q-5.9 0-7.5-.9l-.25-.3.2-4.65 4.1-.7q4.7-1.3 5.1-4.5.35-3.2-3.4-7.55-3.8-4.35-8-6.85l-1.05-.6q-2.3-6-6.1-10.95 10.75 3.25 20.4 8.6" fill="#4055aa" fill-rule="evenodd"/><path d="m207.65 21.4 1.25 3.6q-9.65-5.35-20.4-8.6l-2.6-3.05q8.35 1.95 15.75 5.15 3.05 1.35 6 2.9" fill="#00739b" fill-rule="evenodd"/><path d="m32.9 117.65 3.25-2.8Q48.6 104.2 61.9 95.15q1.05-13.6 6.65-25.45 1.75-3.75 3.95-7.3-.2 6.55 1.05 8.55 2.8-5.2 6.6-9.75 4.7-5.7 11-10.45l-2.45 5.4Q77.3 66.7 74.85 75.2q-1.15-.05-2-.8-1.5-1.3-2.3-4.5-6.25 14.5-7.65 26.25l-2.55 2.25-16 14.5q-7.1 6.6-12 13.2l-3.2 8.55q-3.85 10.5-3.85 11.7 0 2.4 4.85 7.15l-.45 1.3.55.2q-3.75 12.15-10.8 19.5-6.95 7.2-13 10.15 5.55 26.85 30.95 37 6.55 2.65 14.4 4.15v.05h.4l1.75.15q8.4 3.25 10.45 7.65 1.4 3 3.2 8 2.6-2.35 4-6.3 1.55-5.9 2.65-9 1.65 1.2 3.35 4.25 1.6 2.85 2.2 5.35 3.75-6.2 5.65-8.05 2.85-2.8 7-2.8l4.1.65q.55.55 2.35.85 2.65 1.1 2.6 2.3-1-.7-2.85-1.2l-3.3-.55-1.4.25q.8.05 1.45 1.95.55 1.6.55 2.7v.55q-.3 6.15-6.65 12.05-3.35 3.1-6.35 4.15l-.45-.5-5.4-6.05 3.5.55q3.3 0 6.3-3.3t3-7.05l-.05-1.4q-2.6-.4-6.2 3.9-4 4.7-6.45 6.1h-.4q.75-.85.75-2.7l-.5-2.55-1.05-2.1-1.15 2.45q-.35.95-.35 2.7l.1 1.55H74q-1.35-.05-2.85.45-1.35.45-2.95 2.5-1.3 1.55-2.7 4.1l-.6-.15q-.2-1.55-1.45-4.15l-1.8-3.85q-.65-1.8-2.3-3.7l-1.65-1.7-.2-.25-11.6-1.95q-6.45-1.2-8.35-2.05L32 227.3q-3.7-1.5-11.05-7-7.4-5.5-14.15-17.15-6.8-11.7-6.8-19.4 0-3.8 2.2-4.5 4.3-1.35 6.95-3.9l5.15-4.7 5.85-5.5-.5-.75q-.75-1.15-.95-2.1.7-.3 3.3-1.25 2.4-.9 3-1.75l-3.6-3.6q-1.95-1.95-1.95-4.8 0-6.35 1.9-15.2 1.45-7 3.2-10.5 4.1-3.85 8.35-7.55m126.75-18.2.35-.75.3-.75q6.35-2 13.35-2h.5l3.2.15 3.5.2q-1.25-2.4-3.4-4.8t-7.05-6.65q-3.25-2.85-8.3-4.9l-.6.05q.05-2.7.65-5.5l.1-.4.45-.35q2.65-2.15 4.15-5.1 3.15 2.45 5.95 5.25l3.65 3.95-.15.15-1.9 1.45 2 1.25q6.7 4.4 9.95 11.4h2.4q7.4 1.55 15.45 7.05 7.25 5 11.05 10.25 2.45 3.5 4.7 5.1 2.9 2.05 6.85 2.2l7.5-.05 5.85.4 1.35 3.35q.85 2.75.85 4.7 0 4.3-4.2 8.65-2.65 2.75-5.3 4.3l1.05.85.15 2.15q0 1.7-4.25 4.3-4.3 2.55-8.5 2.55l-3.6-.5-1.5-.5q-4 4.25-9.85 6.65 5.3 1.3 10.1-2.3 6.05 11.15-6.6 27.4l3.8.75-3.35 4.65v1.3l-1.05 1.1q-5-1.1-10.7-5.6-2.85 1.15-5.7 1.55l-3.45-.45q19.25-3.25 23.45-23l-6.9.75q-7.35-.5-14.6-2.65-6.9-1.9-14.1-.95l-4.55.55q-3.95.6-7.85 1.65 6.1-4.45 16.05-4.25 11.45.2 18.9 2.45l-.55-3.25q-6.65.55-13.8.3-7.3-.3-17.05-4.55-9.8-4.25-15.8-10.65-5.85-6.35-7.75-14.95 8.35 13.9 19.35 20.25l.85.5q11.6 6.3 21.55 6.35l13.85-1.05q3.75-1.05 7.5-3.45 2.05-1.3 6.45-3.7l1.7-1.3q1.15.7 3.1.7 1.95 0 4.8-.95 2.45-.8 4.05-1.75l-.05-.25q-.2-2.25-2.7-3.3-2.35-1-5.5-.75 2.9-.5 8.05-2.45 8.55-3.35 8.55-7.35v-.75q-12.45.95-19.35-4.4-7-5.35-12.65-12.15-5.65-6.85-16.75-8.4l-5.45-.6h-.3l-2.25-.15-2.55-.1h-5.9l-6.75.4-4.8.7m46.45 35.75q-2.45 1.8-5 2.85-7.15 2.8-15.55-.35-4.7-1.75-8.75-5.3l1.1 7.45q-3.6-2.8-3.6-5.85l.4-2.65.45-2.05-.15-.2q-5.9-6.55-13.75-11.1l-.95-.55q7.5 1.75 11.8 6.2 5.05 5.15 10.65 8.65 5.55 3.5 12.6 3.75 3.2.3 6.35-.05l4.4-.8m-30.4-5.25-.55-.65.55.65m26 6.05-.6 2.05.6-2.05m-69.55 85.15-2.2.4q-3.85.15-7.7-.1l-5.25-.6 3.55-.45q8.35-1.25 16.35-4.2l-4.75 4.95" fill="#337085" fill-rule="evenodd"/><path d="m60.35 98.4-7.4 12.65-1.25 2.2q6.9 5.55 2.4 14.4-2.6 5.15-7.4 8.1-6.15 3.85-13.15 3.95-1.6 2.4-1.9 5.4l-.7 5-.5 2.45-.3.95q-4.85-4.75-4.85-7.15 0-1.2 3.85-11.7l3.2-8.55q4.9-6.6 12-13.2l16-14.5" fill="#c4ffff" fill-rule="evenodd"/><path d="M88.7 56.15q-1.2 2.95-2.15 6-2.5 8.05-1.95 16.5.1 2.05 2.55 11.9 2.6 8.15 8.05 13.9l-1.2-.25q-13.05-2.35-20.65-1.65.95-6.6 2.4-13.15l2.2-8.6q-1.6 1.85-2.8 4.05Q71.65 91.4 70 98.8l.2-8.7q.15-8.1 2.65-15.7.85.75 2 .8 2.45-8.5 13.85-19.05m32.05 60.25 2.5.35q2.8.25 5.6.1 5.6 2.3 11.9 1.8 11.45.8 19.75-6.95l3.2-3.2q5-5.25 7.5-10.15h5.9l2.55.1 2.45.75q1.1.45 2.25 1.15 2.1 1.3 6.45 4.15-.85 1.95-.25 3.25-3.3-1-7.4-1l-8.7.5q-4 .5-9.75 1.95l5.8 4.05 6.85 5.15q3.45 2.8 16.05 5.8 2 0 3.25-3.7 1.05-3.1 1.05-6.55 0-2.8-.9-3.55l-1-.45q5.95.65 9.1 3.15 1.85 1.45 5.2 5.9 2.95 3.95 5.35 5.2 3.4 1.8 6.2 2.7l5.35 1.3q-6.9 4.9-15.95 2.05l-1.9-.45q3.8 4.6 9.45 4.95l-.05.1q-15.45 13.2-35.95 11.7-9.25-.8-18.4-2.9-11-6.35-19.35-20.25 1.9 8.6 7.75 14.95 6 6.4 15.8 10.65 9.75 4.25 17.05 4.55 7.15.25 13.8-.3l.55 3.25q-7.45-2.25-18.9-2.45-9.95-.2-16.05 4.25 3.9-1.05 7.85-1.65 2.65.85 7.9 1.5 6.4.75 9.55 2.25 2.6 1.25 8.3 4.65 5.15 2.7 8.4 2.25l.15.1q-2.15 3.05-6.95 5.85-4.9 2.85-10.65 2.6l-8.3-.75-7.05-1.5q1.85 3.9 5.15 5.8 2.75 1.55 7.65 2.2l2.55.35-3.4.4q3.4.55 6.85.05l1.9.35q4.25 1.05 6.6 3.9-.35.15-8.4 4.15-4.95 2.5-8.2 2.5-3.3 0-8.6-1.35l-3.1-.8q-7.65-5.35-18.25-10.1-2.9.5-9.75 20.05-3.5 4-7.3 6.65-6.1 4.15-13.25 7.05l-16.35 3.4q-9.35 2-18.9 1.45l-1.85-.3q5 5 12.9 4.4l5.85.45q8.2-.7 16.1-2.75 3.85.25 7.7.1l2.2-.4-2.7 3.1q-3.05 1.2-7.75 2l-13.65 1.15-5.9-.3-3.25-.5-.95-.4-1.4-.45-4.1-.65q-4.15 0-7 2.8-1.9 1.85-5.65 8.05-.6-2.5-2.2-5.35-1.7-3.05-3.35-4.25-1.1 3.1-2.65 9-1.4 3.95-4 6.3-1.8-5-3.2-8-2.05-4.4-10.45-7.65l-.4-.15H52.2l-.4-.05q-7.85-1.5-14.4-4.15-2.25-2.4-4.1-5.2-4.5-6.75-4.5-12.1 0-2.7 1.3-3.55.65-.4 4.7-1.5 4.75-1.25 9.5-1.25l7 .95q5.75.95 6.55 1.35 2.85 1.55 9.65 6.55l.35.25q6.55-.35 19.9-5.2 13.95-5.05 15.7-6.05l3.65-2.1q4.2-1.65 6.55-2.4 4.65-1.45 7.7-1.45 2.65 0 6.45 1.6 3.8 1.55 7.4 1.55l7.25-.7q5.6-1.05 5.6-3.15 0-1.65-1.85-4.15-1.25-1.7-2.4-2.65l1.4-.25q4.1-.15 7.6-1.75l3.6-1.65 5-3.4q2.7-2.2 4.9-4.75l3.4-4 1.75-2.2q-1.65.5-3.25.05-2.3-.35-4.6-1.3-1.3-.6-2.65-1.1-2.15-.85-4.35-1.2l-2.4.05-3.3.25q4.8-22.6-20.4-38.75l-8.8-5.5-.95-.55m85.35 18.8.85-.65.8-.7-.8.7-.85.65-4.4.8q-3.15.35-6.35.05-7.05-.25-12.6-3.75-5.6-3.5-10.65-8.65-4.3-4.45-11.8-6.2l.95.55q7.85 4.55 13.75 11.1l.15.2-.45 2.05-.4 2.65q0 3.05 3.6 5.85l1.15.85q4.4 3 8.1 3 3.3 0 9.35-1.95 2.3-.8 3.35-1.85l1.25-1.85q2.55-1.05 5-2.85m-28.1 5.5-.1-.85.1.85m-20.4-23.8 2.7.55-2.7-.55m-.35-1.35 3.05 1.9-3.05-1.9m-124.6 37.7q9.65 2.3 10.9 11.5l.2 1.85q-12.85 9.15-27.45 15.3 9.55-7.5 14.15-17.8 2.35-5.2 2.2-10.85m81.2 92-.6.25q-3.25 1.45-7.35 3.75-4.05 2.2-16.55 5.7l-.15.05-.3-.2q-2.4-1.8-5.95-6 3-1.05 6.35-4.15 6.35-5.9 6.65-12.05l1.1 1.45 2.35 2.55q2.8 2.65 6.05 4.65 2.2 1.25 4.5 2.25l3.9 1.75" fill="#66ccdb" fill-rule="evenodd"/><path d="M95.2 104.45q8.85 9.4 25.4 12.35l1.1.15 8.8 5.5q25.2 16.15 20.4 38.75l3.3-.25 2.4-.05q2.2.35 4.35 1.2 1.35.5 2.65 1.1 2.3.95 4.6 1.3 1.6.45 3.25-.05l-1.75 2.2-3.4 4q-2.2 2.55-4.9 4.75l-5 3.4-3.6 1.65q-3.5 1.6-7.6 1.75l-1.4.25q1.15.95 2.4 2.65 1.85 2.5 1.85 4.15 0 2.1-5.6 3.15l-7.25.7q-3.6 0-7.4-1.55-3.8-1.6-6.45-1.6-3.05 0-7.7 1.45-2.35.75-6.55 2.4l-3.65 2.1q-1.75 1-15.7 6.05-13.35 4.85-19.9 5.2l-.35-.25q-6.8-5-9.65-6.55-.8-.4-6.55-1.35l-7-.95q-4.75 0-9.5 1.25-4.05 1.1-4.7 1.5-1.3.85-1.3 3.55 0 5.35 4.5 12.1 1.85 2.8 4.1 5.2-25.4-10.15-30.95-37 6.05-2.95 13-10.15 7.05-7.35 10.8-19.5l.3-1.1q.2-.65-.1-1.35l.5-2.45.7-5q.3-3 1.9-5.4 7-.1 13.15-3.95 4.8-2.95 7.4-8.1 4.5-8.85-2.4-14.4l1.25-2.2 7.4-12.65 2.55-2.25q1.4-11.75 7.65-26.25.8 3.2 2.3 4.5-2.5 7.6-2.65 15.7l-.2 8.7q1.65-7.4 5.15-13.95 1.2-2.2 2.8-4.05l-2.2 8.6q-1.45 6.55-2.4 13.15 7.6-.7 20.65 1.65l1.2.25m95.35 3.3q1.35.4 2.6.95l2.65 1.25 1 .45q.9.75.9 3.55 0 3.45-1.05 6.55-1.25 3.7-3.25 3.7-12.6-3-16.05-5.8l-6.85-5.15-5.8-4.05q5.75-1.45 9.75-1.95l8.7-.5q4.1 0 7.4 1m-157.9 45.5q.15 5.65-2.2 10.85-4.6 10.3-14.15 17.8 14.6-6.15 27.45-15.3l-.2-1.85q-1.25-9.2-10.9-11.5" fill="#a6e4ff" fill-rule="evenodd"/><path d="M128.85 116.85q4.55-.25 9-1.5 6.65-2 12.85-5.6 5.85-3.45 8.95-10.3l4.8-.7 6.75-.4q-2.5 4.9-7.5 10.15l-3.2 3.2q-8.3 7.75-19.75 6.95-6.3.5-11.9-1.8m31.45-18.9q2.7-6.95 1.65-12.3l-.4-2.55 1.65.95q2.8 1.75 5.05 3.95l2.95 2.85q2.1 2.15 2.9 4.95l-.45.15q-7 0-13.35 2m40.8 40.1-1.25 1.85q-1.05 1.05-3.35 1.85-6.05 1.95-9.35 1.95-3.7 0-8.1-3l-1.15-.85-1.1-7.45q4.05 3.55 8.75 5.3 8.4 3.15 15.55.35M98.9 226.6l3.25.5 5.9.3 13.65-1.15q4.7-.8 7.75-2-4.35 5-8.05 10.2l-.45.6q-.35 1-.35 1.5 0 1.9 1.95 3.4l1.35.85-1.95.85-4.05 1.65-4.05 1.95-3.9-1.75q-2.3-1-4.5-2.25-3.25-2-6.05-4.65l-2.35-2.55-1.1-1.45v-.55q0-1.1-.55-2.7-.65-1.9-1.45-1.95l1.4-.25 3.3.55q1.85.5 2.85 1.2.05-1.2-2.6-2.3" fill="#469dbc" fill-rule="evenodd"/><path d="m161.55 83.1-.05-3.1.6-.05q5.05 2.05 8.3 4.9 4.9 4.25 7.05 6.65 2.15 2.4 3.4 4.8l-3.5-.2-3.2-.15-.05-.15q-.8-2.8-2.9-4.95L168.25 88q-2.25-2.2-5.05-3.95l-1.65-.95m20.55 16.1.1-.6 5.45.6q11.1 1.55 16.75 8.4 5.65 6.8 12.65 12.15 6.9 5.35 19.35 4.4v.75q0 4-8.55 7.35-5.15 1.95-8.05 2.45 3.15-.25 5.5.75 2.5 1.05 2.7 3.3l.05.25q-1.6.95-4.05 1.75-2.85.95-4.8.95-1.95 0-3.1-.7l-1.7 1.3q-4.4 2.4-6.45 3.7-3.75 2.4-7.5 3.45l-13.85 1.05q-9.95-.05-21.55-6.35l-.85-.5q9.15 2.1 18.4 2.9 20.5 1.5 35.95-11.7h.1v-.1h-.05q-5.65-.35-9.45-4.95l1.9.45q9.05 2.85 15.95-2.05l-5.35-1.3q-2.8-.9-6.2-2.7-2.4-1.25-5.35-5.2-3.35-4.45-5.2-5.9-3.15-2.5-9.1-3.15l-2.65-1.25q-1.25-.55-2.6-.95-.6-1.3.25-3.25-4.35-2.85-6.45-4.15-1.15-.7-2.25-1.15m-9.4 57.45 4.55-.55q7.2-.95 14.1.95 7.25 2.15 14.6 2.65l6.9-.75q-4.2 19.75-23.45 23l-2.55-.35q-4.9-.65-7.65-2.2-3.3-1.9-5.15-5.8l7.05 1.5 8.3.75q5.75.25 10.65-2.6 4.8-2.8 6.95-5.85l.05-.1h-.2q-3.25.45-8.4-2.25-5.7-3.4-8.3-4.65-3.15-1.5-9.55-2.25-5.25-.65-7.9-1.5m20.15 25.75q2.85-.4 5.7-1.55 5.7 4.5 10.7 5.6-8.95 8.95-19.45 12.05l-6.9.15-1.2-.3q-3.75-3.75-8.65-7.2l3.1.8q5.3 1.35 8.6 1.35 3.25 0 8.2-2.5 8.05-4 8.4-4.15-2.35-2.85-6.6-3.9l-1.9-.35m-70.6 39.05q-7.9 2.05-16.1 2.75l-5.85-.45q-7.9.6-12.9-4.4l1.85.3q9.55.55 18.9-1.45l16.35-3.4q7.15-2.9 13.25-7.05 3.8-2.65 7.3-6.65l-3.55 10.6-4.6 4.5q-8 2.95-16.35 4.2l-3.55.45 5.25.6" fill="#84d8e4" fill-rule="evenodd"/><path d="M213.65 179.4q7.95-12.2 13.7-31.25 2.7-1.25 5.65.55 5.85 3.45 10.5 8.1 4.8 4.85 8.75 10.55 3.8 5.4 6.25 11.55 2.45 6.1.85 12.3-1.25 4.8-3.5 8.95l-.05.1q5.4 7.15 3.95 17.95-1.45 11-7.25 15.95-4.3 3.7-6.2 4.8-4.1 9.9-14.2 14.25l-1.5.6q-3.25.75-6.7.1l-.2-.05-4.9-6.95q11.3 2.5 17.55-3.65 6.75-6.65 3.35-13.1 4.55 1.2 8.05-.85 3.2-1.95 5.5-6.75 4.55-9.7-1.95-21.25l-2.4 3.25-.65-1.25-.4 2.5q-9.3 11.05-20.95 12.7 5.95 13.7-14.15 20.7l-2.75-3.15q18.65 1.15 16.2-18.8 12.65-1.75 22.25-15.3l1.4-2.05.55-.8q9.5-16.1-7.95-34.95-4.35-4.75-10.4-9.6l-1.75-1.4q-2.45 10.75-7.05 19.3-9.9 18.15-29.7 26.05l-2.7-.05-1.05.05q10.5-3.1 19.45-12.05l1.05-1.1v-1.3l3.35-4.65" fill="#2e59b0" fill-rule="evenodd"/><path d="m223.7 253.85.2.3.15.2q.15 1.7-.45 2.7l-.15.2q-10 5.15-40.2 1.2-20.2 20.75-31.6 24-4.7-4.8-7.75-14.05-30.7 26.55-69.45 37.85Q63 288.8 56.35 266.4l-.55-1.95q-.1-1.4.6-3l3.2-4.65 5.8-9.2.1-.15q1.4-2.55 2.7-4.1 1.6-2.05 2.95-2.5 1.5-.5 2.85-.45l.8.8.3.2q.75.45 1.8.8l.2.05 5.4 6.05.45.5q3.55 4.2 5.95 6l.3.2.15-.05q12.5-3.5 16.55-5.7 4.1-2.3 7.35-3.75l.6-.25 4.05-1.95 4.05-1.65 1.95-.85-1.35-.85q-1.95-1.5-1.95-3.4 0-.5.35-1.5l.45-.6q3.7-5.2 8.05-10.2l2.7-3.1 4.75-4.95 4.6-4.5 3.55-10.6q6.85-19.55 9.75-20.05 10.6 4.75 18.25 10.1 4.9 3.45 8.65 7.2l.3.3h.9l6.9-.15 1.05-.05 2.7.05q7.5.2 12.95 1.7 4.05 1.1 5.5 2.5l.65.95.1.25v.35q.2 9.05-8.7 25.4l3.6 3.8 2.35 2.6 2.75 3.15 6.05 7.7 4.9 6.95m-97.85-12.1-1.45-.9 1-.8q-.45.25-1.2.65l-.3.1.35.2q-8.65 6.75-19.25 11.55-7.4 3.3-15.8 5.65l-15.9-12.35-1.2 2.2q-4.8 8.6-9.65 14.45l-1.75 2 3.65 11.75 5.25-6.85 1.15.1h.55l-4.6 11.9.85 2.9q3.35 10.95 7.5 17.3 13.1-2.7 25.6-9.2l.35-.15 4.05-2.25-.25-19.45 4.8 17.2q12.35-5.6 23.95-16 5.35-4.9 10.6-10.8l.2-9.45q-10.6-4.75-18.1-9.45l-.2-.15-.2-.15m-2.65-4.9q11.45 7.8 24.5 13.55-1.55 16.8 4.95 27.05 15.95-6.4 29.5-23.85 18.25 3.7 36.15 1.05-5.7-13.75-17.5-23.5 5.35-12 9.6-26.55l-.65-.2-.15-.05q-12.3-4-29.1-3.45-10.25-9.95-26.1-17.2-6.05 15.15-10.15 28.4-12.1 10.2-21.05 24.75" fill="#9a4c2f" fill-rule="evenodd"/><path d="M207.65 233.45q4.8-.6 8.55-3.8 4.9-4.15 6.4-10.45 1.2-5-1.15-8.9 3.35.25 9.65-2.5 6.3-2.8 8.7-13.5 2.4-10.75 1.4-17.1-1-6.4-3.65-12.8-2.2-5.3-5.5-9.85 6.05 4.85 10.4 9.6 9.05 15.2 6 37.8-9.6 13.55-22.25 15.3 2.45 19.95-16.2 18.8l-2.35-2.6m40.1-4.15q-3.5 2.05-8.05.85 3.4 6.45-3.35 13.1-6.25 6.15-17.55 3.65l-6.05-7.7q20.1-7 14.15-20.7 11.65-1.65 20.95-12.7l1.05-1.25q2.5 9 2.3 18.05-.05 2.15-1.35 4.05l-1.3-1.1-.8 3.75" fill="#6ea6f5" fill-rule="evenodd"/><path d="M232.05 154.55q3.3 4.55 5.5 9.85 2.65 6.4 3.65 12.8 1 6.35-1.4 17.1-2.4 10.7-8.7 13.5-6.3 2.75-9.65 2.5 2.35 3.9 1.15 8.9-1.5 6.3-6.4 10.45-3.75 3.2-8.55 3.8l-3.6-3.8q8.9-16.35 8.7-25.4v-.35l-.1-.25-.65-.95q8.9-7.2 11.65-16 2.6-8.2-.4-14.25 4.6-8.55 7.05-19.3l1.75 1.4" fill="#9dd4fa" fill-rule="evenodd"/><path d="M223.25 172.45q3 6.05.4 14.25-2.75 8.8-11.65 16-1.45-1.4-5.5-2.5-5.45-1.5-12.95-1.7 19.8-7.9 29.7-26.05" fill="#fff" fill-rule="evenodd"/><path d="M248.45 201.95q3.05-22.6-6-37.8Q259.9 183 250.4 199.1l-.55.8-1.4 2.05m.45 2.6 2.4-3.25q6.5 11.55 1.95 21.25-2.3 4.8-5.5 6.75l.8-3.75 1.3 1.1q1.3-1.9 1.35-4.05.2-9.05-2.3-18.05" fill="#76faff" fill-rule="evenodd"/><path d="M133.55 271.75q-11.6 10.4-23.95 16l-4.8-17.2.25 19.45-4.05 2.25-.35.15-2.4-.95q-1.25-.6-2.35-1.4-1-.8-1.85-1.75-1.3-1.5-1.8-3.4l-.9-3.45-.3-2.05-.1-3.65.2-3.2q.2-1.65.7-3.25.5-1.65 1.4-3.1l1.4-2.4q1-1.7 2.15-3.25l1.4-1.65 2.25-2.1 2.15-1.95 1.75-1.75.65-.55q10.6-4.8 19.25-11.55l1.6.75q-7.6 4.6-12.2 9.9-5.9 6.75-5.9 13.75 0 4.5 3.15 7.25t6.15 2.65l6.3-1 6.55-1.45q1.55-.25 3.65-1.1m-66 12.55-.85-2.9 4.6-11.9q2.25-.2 3.95-2.2 1.8-2.1 1.8-4.75 0-2.5-1.95-7.65l-1.95-4.6q3.5 2 6.1 5.25 3.3 4.1 4.4 9 1.3 6-1.25 11.6-2.4 5.2-7.7 7.65-3.7 1.8-7.15.5m2.05-14.9-5.25 6.85-3.65-11.75 1.75-2q.65 1.55 2.2 3.4 2.4 2.95 4.95 3.5m79.6-22.15q8.9-6.4 14.6-15.3l-35.25 4.15 20.5 11.25.15-.1m11.65-5.85q-3.95 2.8-5.05 3.85-3.4 2.5-4.45 3.55-1.6 1.6-1.6 4.8 0 6.1 1.6 12.1 1.25 4.6 2.25 5.45l13.15-32.8-.6-.2q-.85 0-5.3 3.25m-33.05-8.3 35.6-2.9-19-14.15-16.6 17.05m-4.6 3.75q8.95-14.55 21.05-24.75 4.1-13.25 10.15-28.4 15.85 7.25 26.1 17.2 16.8-.55 29.1 3.45l.15.05.65.2q-4.25 14.55-9.6 26.55 11.8 9.75 17.5 23.5-17.9 2.65-36.15-1.05-13.55 17.45-29.5 23.85-6.5-10.25-4.95-27.05-13.05-5.75-24.5-13.55m87.85 11-.5-.6q-12.15-15.5-12.6-16.45-.3-.6-.3-1.9 0-2.35 2.8-8.1l3.7-7.9 2.3-5-.6-.9h-.5l-.4.3q-13.65 9.25-24.4 22.4l-.2.25-.15.6-.05.35q0 2.2 5.4 5.4l5.15 3.65 5.1 3.7q7.4 4.8 9.7 5.95 3.5 1.75 6.55 1.75l.5-.05.1-.5-.55-1.1-1.05-1.85m-8.95-42.5-19.2.65q-5.5 9.65-7.8 18 15.55-6.05 27-18.65m-24.35-.7.05-.1-22.05-15.5q6.7 22.15 14.3 36 4.25-8.95 7.7-20.4m-7.2 33.65-13.7 35.8q16.15-12.45 21.6-19.7-1.65-2.85-1.8-3.8l-1.3-3.45-2.35-5.95q-1.25-2.8-2.4-2.95h-.15l.1.05m6.65-.95q-.7.2-.7.95l2.25 5.65.9 2.5q.5 1.5 1.15 2.5 1.4 2.25 4.5 3l8.5.65 7.35-.25 4.35-.45-28.1-14.6-.2.05m-13.35-15.7q-3.9-14.8-9.5-29.15-6.1 9.3-6.7 21.8 8.2 5.5 16.2 7.35" fill="#ffed4b" fill-rule="evenodd"/><path d="m125.85 241.75.2.15.2.15q7.5 4.7 18.1 9.45l-.2 9.45q-5.25 5.9-10.6 10.8-2.1.85-3.65 1.1l-6.55 1.45-6.3 1q-3 .1-6.15-2.65-3.15-2.75-3.15-7.25 0-7 5.9-13.75 4.6-5.3 12.2-9.9m-63.4 20.75q4.85-5.85 9.65-14.45l1.05 2.25 1.95 4.6q1.95 5.15 1.95 7.65 0 2.65-1.8 4.75-1.7 2-3.95 2.2l1.75-4.6-3.45 4.5q-2.55-.55-4.95-3.5-1.55-1.85-2.2-3.4m86.75-15.25-.15.1-20.5-11.25 35.25-4.15q-5.7 8.9-14.6 15.3m62.9 2.45.55 1.1-.1.5-.5.05q-3.05 0-6.55-1.75-2.3-1.15-9.7-5.95l-5.1-3.7-5.15-3.65q-5.4-3.2-5.4-5.4l.05-.35.15-.6.2-.25q10.75-13.15 24.4-22.4l.4-.3h.5l.6.9-2.3 5-3.7 7.9q-2.8 5.75-2.8 8.1 0 1.3.3 1.9.45.95 12.6 16.45l.5.6.7 1.3.35.55m-34.35-45.05q-3.45 11.45-7.7 20.4-7.6-13.85-14.3-36l22.05 15.5-.05.1m-7.2 33.65.05-.05q1.15.15 2.4 2.95l2.35 5.95 1.3 3.45q.15.95 1.8 3.8-5.45 7.25-21.6 19.7l13.7-35.8" fill="#fea734" fill-rule="evenodd"/><path d="M100.65 292.4q-12.5 6.5-25.6 9.2-4.15-6.35-7.5-17.3 3.45 1.3 7.15-.5 5.3-2.45 7.7-7.65 2.55-5.6 1.25-11.6-1.1-4.9-4.4-9-2.6-3.25-6.1-5.25l-1.05-2.25 1.2-2.2 15.9 12.35q8.4-2.35 15.8-5.65l-.65.55-1.75 1.75-2.15 1.95-2.25 2.1-1.4 1.65q-1.15 1.55-2.15 3.25l-1.4 2.4q-.9 1.45-1.4 3.1-.5 1.6-.7 3.25l-.2 3.2.1 3.65.3 2.05.9 3.45q.5 1.9 1.8 3.4.85.95 1.85 1.75 1.1.8 2.35 1.4l2.4.95m60.2-51q4.45-3.25 5.3-3.25l.6.2-13.15 32.8q-1-.85-2.25-5.45-1.6-6-1.6-12.1 0-3.2 1.6-4.8 1.05-1.05 4.45-3.55 1.1-1.05 5.05-3.85m-33.05-8.3 16.6-17.05 19 14.15-35.6 2.9m74.3-27.75q-11.45 12.6-27 18.65 2.3-8.35 7.8-18l19.2-.65m-24.9 32 .2-.05 28.1 14.6-4.35.45-7.35.25-8.5-.65q-3.1-.75-4.5-3-.65-1-1.15-2.5l-.9-2.5-2.25-5.65q0-.75.7-.95m-13.35-15.7q-8-1.85-16.2-7.35.6-12.5 6.7-21.8 5.6 14.35 9.5 29.15" fill="#f3ffa5" fill-rule="evenodd"/><path d="M71.9 54.45q4.85 2.4 8.25 6.75-3.8 4.55-6.6 9.75-1.25-2-1.05-8.55-2.2 3.55-3.95 7.3-2.25-1.75-9.1-3.45l-.3-.1-.25-.05 1-.75 3.1-2.6 5.3-4.7 3.6-3.6" fill="#086f9d" fill-rule="evenodd"/><path d="m207.75 133.85-.8.7-.85.65q-2.45 1.8-5 2.85l-1.25 1.85q-1.05 1.05-3.35 1.85-6.05 1.95-9.35 1.95-3.7 0-8.1-3l-1.15-.85.1.85m-.1-.85q-3.6-2.8-3.6-5.85l.4-2.65.45-2.05-.15-.2q-5.9-6.55-13.75-11.1l-.95-.55-2.7-.55m17.55 12.4.55.65m25.4 8.1q-7.15 2.8-15.55-.35-4.7-1.75-8.75-5.3l1.1 7.45m23.2-1.8.6-2.05q-3.15.35-6.35.05-7.05-.25-12.6-3.75-5.6-3.5-10.65-8.65-4.3-4.45-11.8-6.2l-3.05-1.9M201.7 136l4.4-.8" fill="none" stroke="#337085" stroke-linecap="round" stroke-linejoin="round" stroke-width=".5"/></g><g id="g" fill-rule="evenodd"><path d="M39.15 22.6q.4-5.5 4.2-10.35 2.5 2.5 3 5.75l.15 1.35q4.75-3.15 10.35-3.9.2 5.9-4.3 11.15-4.5 5.2-11.1 6.45-2.7-4.95-2.3-10.45M75.6 63.1q-8.15-.25-12.05-8.3-3.85-7.85-3.15-15.25-5.35 1.95-11.45 2.75 20.7-14.75 37.3-35.2L91.8 0h.55L90.6 5.7q2.15 1.45 3.75 3.1 2.85 2.95 3.95 6.55l4.65 14.2q2.7 8.05.25 13.5l-1.35 2.85.15-2.25v-.3q-.1-6.8-4.05-15.8l-.3-.65-3.1-6.05Q92.2 16.8 90.5 15.9q-2-1-3.85-.7-3.95 7.7-9.25 13.3l-3.75 3.45q-3.85 3.15-8.25 5.4-.85 2.7-.9 6.4-.05 3.2.55 7.1l.05.45q1.5 8.95 10.5 11.8m-46.5 9.75q-3.35 0-6.4 1-3.5 1.1-3.5 2.7 0 .75 1.3 2.3l.65.75-3.3-1.65q-3.8-1.95-4.45-6.7l.55.4.8.5 1.8.3 3.6-.7 3.2-.5 3.85-.2 3.45.15 3.3.3 2.65.6q.95.15 1.75.65l1.7 1.45-5.65-1-5.3-.35m-23.25-9.1q1.3.2 3.1 1.5l-4.5.4Q1.7 66.1.1 67.6q-.25-1.45.05-2.6.3-1.15 2.35-1.3 2-.2 3.35.05" fill="#5d254a"/><path d="m101.85 45.9 1.35-2.85q2.45-5.45-.25-13.5l-4.65-14.2q-1.1-3.6-3.95-6.55-1.6-1.65-3.75-3.1L92.35 0l1.95.2q1.6.45 3.05 1.4l2.7 2.3q2.4 2.55 3.65 5.7 1.4 3.4 2.2 6.95l.95 4.65q.65 3.6.8 7.35.1 3.3-.3 6.75-.45 4-2.6 7.2L101.8 47v-.95l.05-.15" fill="#67cddc"/><path d="M101.8 47q-.1 2.65-1 4.9-1.75 4.15-6.3 7-5.65 3.5-12.05 4.85l-.05-.1q8.4-3.5 13.55-7.8Q99.55 52.8 101 49l.55-1.6.25-.4" fill="#54388e"/><path d="M64.5 43.75q.05-3.7.9-6.4 4.4-2.25 8.25-5.4l-.1.45q-.1 1.45.3 2.8l.25.65-9.6 7.9M77.4 28.5q5.3-5.6 9.25-13.3 1.85-.3 3.85.7 1.7.9 4.05 4.95-6.8 4.6-13 9.3-.95-.75-2.1-1.2l-2.05-.45" fill="#1e1049"/><path d="m65.1 51.3-.05-.45q-.6-3.9-.55-7.1l9.6-7.9 1.15 2.5q.75 1.25 1.8 2.35.85.9 1.95 1.55 1.2.55 2.55.65 2 .4 3-1.4.7-1.35.85-2.95l-.25-2.85q-.4-1.6-1.4-3.05l-1.2-1.55-1-.95q6.2-4.7 13-9.3l3.1 6.05.3.65-4.75 2.5q7.9 19.7-4.4 26.55 4.9-3.7 5.5-11.85.35-4.7-.7-10.95l-3.8 3.05-.05.4q-.75 13.6-11.8 8.55l-7.9 5.4q3.45 5.35 9.55 8.45l-.05.05q-9.15-1-11.8-10.45L65.1 51.3m20.5-18.5q-.25.4-.25 1.4 0 2.35 2.25 2.35.85 0 1.3-.95l.35-1.55q0-2.2-1.9-2.2l-.6.25-1.15.7" fill="#4d317b"/><path d="m73.65 31.95 3.75-3.45 2.05.45q1.15.45 2.1 1.2-3.85 2.8-7.45 5.7l-.25-.65q-.4-1.35-.3-2.8l.1-.45" fill="#909cbb"/><path d="M75.6 63.1q-9-2.85-10.5-11.8l2.65-2.05q2.65 9.45 11.8 10.45l.25.05 1.2-.25q4.7-.55 7.75-2.85l.05-.05q12.3-6.85 4.4-26.55l4.75-2.5q3.95 9 4.05 15.8-.25 1.35-.2 2.6l-.05.05.05.05-.25 1.35L101 49q-1.45 3.8-5.05 6.85-5.15 4.3-13.55 7.8l-.2.1-5.85-.6-.75-.05m11.15-31 .6-.25q1.9 0 1.9 2.2l-.35 1.55q-.45.95-1.3.95-2.25 0-2.25-2.35 0-1 .25-1.4l.95-.6.2-.1m-5.2-1.95 1 .95 1.2 1.55q1 1.45 1.4 3.05l.25 2.85q-.15 1.6-.85 2.95-1 1.8-3 1.4-1.35-.1-2.55-.65-1.1-.65-1.95-1.55-1.05-1.1-1.8-2.35l-1.15-2.5q3.6-2.9 7.45-5.7" fill="#fff"/><path d="M94.3 44.75q-.6 8.15-5.5 11.85-1.75-2.1-1.75-5.15 0-2.35 1.95-4.45 2.1-2.3 4.8-2.3l.5.05m-11.35 6.9.1-.1q.35-.5.95-.5.55 0 1.45.8.95.85.95 1.5-1.65 3.5-3.5 3.5-2 0-2-2.15 0-.95.45-1.65l.75-.8.85-.6" fill="#e187ff"/><path d="M79.6 59.65q-6.1-3.1-9.55-8.45l7.9-5.4q11.05 5.05 11.8-8.55l.05-.4 3.8-3.05q1.05 6.25.7 10.95l-.5-.05q-2.7 0-4.8 2.3-1.95 2.1-1.95 4.45 0 3.05 1.75 5.15l-.05.05q-3.7 2.05-9.15 3m2.5-7.4-.75.8q-.45.7-.45 1.65 0 2.15 2 2.15 1.85 0 3.5-3.5 0-.65-.95-1.5-.9-.8-1.45-.8-.6 0-.95.5l-.1.1h-.2l-.65.6" fill="#9a5eeb"/><path d="m100.8 51.9-.05.35q-.4 4.2-.2 6.1l.2 3.3q.05 1.4.75 4.05.65 2.6 1.9 5.3l.8 1.75q-4.3-4.3-9.55-5.75-6.1-1.65-10.35-1.9-4-.3-7.95-1.95l5.85.6.2-.1.05.1q6.4-1.35 12.05-4.85 4.55-2.85 6.3-7" fill="#fa95ff"/></g><g id="h" fill-rule="evenodd"><path d="m1.05 31.9 13.1-10.2Q16.6 10.25 22.95 0l14.5 13.95 28.45 4.3 1.05.4q.8.45.8 1.5 0 1.2-1.8 4.3l-2.55 4.3-1.65 3.8-1.05 2.3L68.15 64l.25 3.05q0 3.2-2.6 4.15l-5.75.55q-5.85 0-11.2-1.25-4.9-1.2-13.7-4.45-1.95 2.2-7.6 6.6-6.3 4.85-7.6 4.85-1 0-2.25-1.1l-.45-.4-.5-1.65q-2.9-9.5-5-23.75Q5.7 47.55 0 39.05l1.05-7.15m62.05-9.8-26.35-3.6L23.4 5.55l-7.05 19.7-12.5 9.85 1.25 1.1 13.55 11.85.3 2.35q.6 5.05 1.35 9.35.75 4.15 1.65 7.55l.35 1.25 11.1-10.8 3.3 1.15 7.4 2.05q5.55 1.3 11.3 2l5.35.55 1.3.05Q60.45 53.1 54 39.2l9.05-16.9.15-.1-.05-.1h-.05" fill="#9a4c2f"/><path d="m28.75 12.9-2.3-2.25-1.4-1.15 5.85 22.55.25.65q.7 1.45 2.5.9l.2-.05 5.55-9.6q-1.25-.45-1.8-1.1l-2.15-2.35-2.7-2.95-2.3-2.75-1.7-1.9m-5.2-1.55v-.1h-.05q-.65.1-.9.7l-.85 3.1-1.15 3.5-1.45 3.05-1.2 5.65q0 .9 3.3 2.5 3.1 1.55 5.45 2.05h1.25v-1.65q-1.45-3.6-1.6-7.35-.1-1.9-1.1-5.35l-1.7-6.1M40.1 27.2Q38 31.25 38 32.7l.2 1.05.9.2h.2l14.8-9.15v-.05q-.35-.7-1.95-.9l-2.8-.15-2.75-.4-3.2-.35q-1.15 0-3.3 4.25m-21 3.6Q16.75 29 15.75 29L8 33.5l5.15.2 6.45.55 2.3-.3v-.45q-.55-1-2.8-2.7m-14 5.4-1.25-1.1 12.5-9.85 7.05-19.7L36.75 18.5l26.35 3.6-.05.2-24.4 16.45-.45.3q-1 .65-1 1.75l23.55 22.7-5.35-.55-1.35-1.65-4.6-4.95q-8.5-8.1-10.1-8.1-2.05 0-2.05 3.85 0 1.15.35 3.65.05.85.45 1.4l1 1 5 2.8-7.4-2.05-.25-1.6-.85-3.8-1.3-3.9-1.55-4.65q-1.4-.2-2.75 3.5l-3.2 7.4-2.75 5.7-2.1 5.75q-.9-3.4-1.65-7.55l3.4-4.5L28 49.7q0-.7-.35-.8h-1.1l-4.5.75-3.1.75-.3-2.35 3.9-2.3q4.25-2.65 7.55-6.2l-.35-.45q-2.8-1.05-5.85-1.05l-2.8-.1-9.2-1.2-6.8-.55" fill="#ffed4b"/><path d="m28.75 12.9 1.7 1.9 2.3 2.75 2.7 2.95 2.15 2.35q.55.65 1.8 1.1l-5.55 9.6-.2.05q-1.8.55-2.5-.9l-.25-.65L25.05 9.5l1.4 1.15 2.3 2.25m34.3 9.4L54 39.2q6.45 13.9 8.05 24.35l-1.3-.05L37.2 40.8q0-1.1 1-1.75l.45-.3 24.4-16.45M36.7 58.9l-3.3-1.15-11.1 10.8-.35-1.25 2.1-5.75 2.75-5.7 3.2-7.4q1.35-3.7 2.75-3.5l1.55 4.65 1.3 3.9.85 3.8.25 1.6M18.65 48.05 5.1 36.2l6.8.55 9.2 1.2 2.8.1q3.05 0 5.85 1.05l.35.45q-3.3 3.55-7.55 6.2l-3.9 2.3" fill="#fea734"/><path d="m23.5 11.25.05.1 1.7 6.1q1 3.45 1.1 5.35.15 3.75 1.6 7.35v1.65H26.7q-2.35-.5-5.45-2.05-3.3-1.6-3.3-2.5l1.2-5.65 1.45-3.05 1.15-3.5.85-3.1q.25-.6.9-.7M19.1 30.8q2.25 1.7 2.8 2.7v.45l-2.3.3-6.45-.55L8 33.5l7.75-4.5q1 0 3.35 1.8m21-3.6q2.15-4.25 3.3-4.25l3.2.35 2.75.4 2.8.15q1.6.2 1.95.9v.05l-14.8 9.15h-.2l-.9-.2-.2-1.05q0-1.45 2.1-5.5m15.3 35.75q-5.75-.7-11.3-2l-5-2.8-1-1q-.4-.55-.45-1.4-.35-2.5-.35-3.65 0-3.85 2.05-3.85 1.6 0 10.1 8.1l4.6 4.95 1.35 1.65m-35.1-3.2q-.75-4.3-1.35-9.35l3.1-.75 4.5-.75h1.1q.35.1.35.8l-4.3 5.55-3.4 4.5" fill="#f3ffa5"/></g><g id="i" fill-rule="evenodd"><path d="m62.5 9.25.2-.05.1-.05 2.05 2 1.1 1 .05.25.85.7q6.1 5.1 8 9 2 4.15 2.3 13.7.3 8.95-.65 14.4l-.25.65-.3.95-1.25 5.4q-.7 2.85-.75 5.8-.05 1.6.05 3.2.1 1.7-.35 3.4l-.1.35q-11.8 10.75-22.8 13.9Q39.6 87 37.1 87.1q-2.55.05-3.75-1.8-1.25-1.85-4.25-7.7-3-5.9-5.3-8.85l-3.35-3.5q-1.3-1.35-1.3-3.5 0-1.4.8-4.05l.6-2q1.05-3.2 1.85-4.65L23.45 53q.35-2.8 1.15-5.65 2-7.05 7.4-12.1Q37.55 30 45.2 29.5q7.25-.15 12.75-4.55 2.9-2.35 3.8-6 .7-2.8.25-6.4-1.2-1.35-2.6-2.45l3.1-.85m9.85 37q1.6-3.3 2.15-8.55.6-6.4-1.75-12.7-2.2-5.9-7.95-9.3 0 2.95-1.1 5.5-1.35 3.2-4.4 5.85-5.8 4.9-13.7 5.55-7.9.6-11.9 5.2l-.25.3q-1.55 1.75-2.85 3.7-2.05 3-3.6 6.35-1.95 4.05-1.95 7.8l13.05 24.3q1.65.85 4.1.55 6.45-.85 18.7-9.5l8.5-6.45.55-7.45q.35-5.2 1.15-8.3l.1-.4v-.05l.1-.45.2-.45.15.3v-.55l.2-.35.5-.9" fill="#45458c"/><path d="M63.7 21.2q1.1-2.55 1.1-5.5 5.75 3.4 7.95 9.3 2.35 6.3 1.75 12.7-.55 5.25-2.15 8.55l-.1-.1.15-.55v-.05l.15-.75-.25.9h-.05v.1l-.5 1.25-.1.45v.55l-.15-.3-.2.45-.1.45v.05l-.1.4q-.8 3.1-1.15 8.3l-.55 7.45-8.5 6.45L63.7 61q3.65-12.95 5.15-16.25 2.05-4.5 2.05-6.9 0-2.55-3.1-9.5-2.45-5.6-4.1-7.15" fill="#a2a6d9"/><path d="M19.95 57.7Q14.8 50.1 8.8 39.4 2.15 27.6.9 24.2q-1.25-3.4-.75-4.55l.25-.5.1-.15.4-.9.15-.35Q4.4 9.9 6.65 0h6q-2.5 11.4-6.3 21.2l4.55 8.4 11.5 21.45q-.8 1.45-1.85 4.65l-.6 2m28.7-55.05h.15q5.55 1.6 10.6 4.55L62.45 9l.05.25-3.1.85-1.65-1.25q-3.8-2.75-7.9-5l-.4-.25-2.9-1.5 2.1.55" fill="#337085"/><path d="M39.05 0h8.25v.2l.45.9.5 1.05.15-.1.05.25.05-.15v.25l.1-.25-.1.3.1-.25v.35l.05-.25v.35l-2.1-.55-1.35-.3.35.05.25.05.65.3Q51.4 4.7 56.8 12l4.95 6.95q-.9 3.65-3.8 6-5.5 4.4-12.75 4.55-7.65.5-13.2 5.75-5.4 5.05-7.4 12.1-.8 2.85-1.15 5.65l-1.05-1.95L10.9 29.6l1 .7q4 2.6 6.6 2.6 9.75 0 15.65-7.2 5.75-7.05 5.75-18.4 0-3.9-.85-7.3m9.65 2.65.05-.1.05.1h-.1" fill="#66ccdb"/><path d="M12.65 0h26.4q.85 3.4.85 7.3 0 11.35-5.75 18.4-5.9 7.2-15.65 7.2-2.6 0-6.6-2.6l-1-.7-4.55-8.4q3.8-9.8 6.3-21.2M59.4 10.1q1.4 1.1 2.6 2.45.45 3.6-.25 6.4L56.8 12q-5.4-7.3-10.35-9.8l.1-.1 2.9 1.5.4.25q4.1 2.25 7.9 5l1.65 1.25" fill="#a6e4ff"/><path d="m33.45 38.1.25-.3q4-4.6 11.9-5.2 7.9-.65 13.7-5.55 3.05-2.65 4.4-5.85 1.65 1.55 4.1 7.15 3.1 6.95 3.1 9.5 0 2.4-2.05 6.9-1.5 3.3-5.15 16.25-1.4.7-3 1.2 0-7.05-2.6-13.6-2.6-6.5-9.2-9.2l-3.65-1.2q-5.85-.8-11.8-.1" fill="#848acd"/><path d="M60.9 71.3q-12.25 8.65-18.7 9.5l-3.55-3.95q-2.1-2.75-2.4-5.25 5.45-.6 5.45-7.2 0-2.7-1.3-5-1.65-2.95-4.6-2.95-3.45 0-4.65 1.55.4-5.95.4-9.85-.05-4.6-.95-6.35 1.3-1.95 2.85-3.7 5.95-.7 11.8.1l3.65 1.2q6.6 2.7 9.2 9.2 2.6 6.55 2.6 13.6 1.6-.5 3-1.2l-2.8 10.3" fill="#ce9cde"/><path d="M42.2 80.8q-2.45.3-4.1-.55l-13.05-24.3q0-3.75 1.95-7.8 1.55-3.35 3.6-6.35.9 1.75.95 6.35 0 3.9-.4 9.85 1.2-1.55 4.65-1.55 2.95 0 4.6 2.95 1.3 2.3 1.3 5 0 6.6-5.45 7.2.3 2.5 2.4 5.25l3.55 3.95" fill="#ffd0ff"/></g><linearGradient gradientTransform="matrix(.0391 .0001 -.002 .9969 305.1 -212.5)" gradientUnits="userSpaceOnUse" id="r" spreadMethod="pad" x1="-819.2" x2="819.2"><stop offset="0" stop-color="#d584c9"/><stop offset="1" stop-color="#9178d2"/></linearGradient><linearGradient gradientTransform="matrix(.1183 0 0 1 311.85 -77)" gradientUnits="userSpaceOnUse" id="s" spreadMethod="pad" x1="-819.2" x2="819.2"><stop offset="0" stop-color="#d584c9"/><stop offset="1" stop-color="#9178d2"/></linearGradient><linearGradient gradientTransform="matrix(.053 0 0 1 342.8 -91.95)" gradientUnits="userSpaceOnUse" id="t" spreadMethod="pad" x1="-819.2" x2="819.2"><stop offset="0" stop-color="#d584c9"/><stop offset="1" stop-color="#9178d2"/></linearGradient><path d="M50.7 5.45q21 0 35.85 3.45 14.85 3.45 14.85 8.35 0 4.85-14.85 8.3Q71.7 29 50.7 29q-21.05 0-35.9-3.45Q0 22.1 0 17.25q0-4.9 14.8-8.35 14.85-3.45 35.9-3.45" fill-opacity=".349" fill-rule="evenodd" transform="translate(0 -5.45)" id="b"/></defs></svg>