<svg xmlns:ffdec="https://www.free-decompiler.com/flash" xmlns:xlink="http://www.w3.org/1999/xlink" ffdec:objectType="frame" height="90" width="90" xmlns="http://www.w3.org/2000/svg"><use ffdec:characterId="26" height="149.55" transform="matrix(.6076 0 0 .6079 1.53 -.896)" width="145.7" xlink:href="#a"/><defs><g id="a" transform="translate(1.35 -16.95)"><use ffdec:characterId="2" height="25.85" transform="matrix(1.5438 0 0 1.3057 3.629 132.747)" width="67.2" xlink:href="#b"/><use ffdec:characterId="3" height="43.95" transform="translate(86.45 89.35)" width="48.15" xlink:href="#c"/><use ffdec:characterId="4" height="30.35" transform="translate(87.85 118)" width="53.85" xlink:href="#d"/><use ffdec:characterId="5" height="47.7" transform="translate(10.9 111.8)" width="34.3" xlink:href="#e"/><use ffdec:characterId="6" height="72.85" transform="translate(-1.35 16.95)" width="55.2" xlink:href="#f"/><use ffdec:characterId="7" height="106" transform="translate(10.1 47.95)" width="85.05" xlink:href="#g"/><use ffdec:characterId="8" height="73.95" transform="translate(69.35 17.6)" width="58.85" xlink:href="#h"/><use ffdec:characterId="9" height="25.9" transform="translate(52.25 58.25)" width="21.3" xlink:href="#i"/><use ffdec:characterId="10" height="19.45" transform="translate(25.8 80.1)" width="20" xlink:href="#j"/><use ffdec:characterId="11" height="3.05" transform="translate(64.8 100.25)" width="3.1" xlink:href="#k"/><use ffdec:characterId="12" height="11.6" transform="translate(36.75 118.4)" width="21.5" xlink:href="#l"/><use ffdec:characterId="13" height="16.4" transform="translate(9.15 112.55)" width="18.2" xlink:href="#m"/><use ffdec:characterId="14" height="41.05" transform="translate(55.85 121.4)" width="36.35" xlink:href="#n"/><use ffdec:characterId="15" height="33.9" transform="translate(4.05 86.75)" width="99.25" xlink:href="#o"/></g><g id="c"><path d="M22.6 2.65 15.75 1.2 9.3.65H6.2L5.45-3.3Q4.6-6.05 3.5-7.75l.6-.1 4.15-.35 7.6.7q2.6.55 5 1.65l.4.75.45 1.25.1.3q.8 2.65.8 6.2M6.05 5Q9.4 6.55 13.5 9.2l6.2 4.1q-1.1 1.7-2.4 2.9l-.7-.35-.65 1.45-1.25 1.55-2.3 1.65q-2.9-1.7-6.55-4.7l-3.3-2.85q1.95-1.25 3.1-5.8L6.05 5M16.6 15.85l-3.1-1.6 3.1 1.6m-21.35-4.5q-.85.7-2.6.7-1.8 0-4.55-1.05-3.3-1.25-6.45-3.6l-4.2-27.85q9.6.55 14.75 8.9l.15.3q4.2 7.15 4.2 17.45 0 3.65-1.05 4.9l-.25.25" fill="#8698d9" fill-rule="evenodd" transform="translate(24.05 21.95)"/><path d="M6.2.65h3.1l6.45.55 6.85 1.45v.1q0 5.25-2.4 9.65l-.5.9-6.2-4.1Q9.4 6.55 6.05 5L6.2.65" fill="#fffdf7" fill-rule="evenodd" transform="translate(24.05 21.95)"/><path d="M3.5-7.75q1.1 1.7 1.95 4.45L6.2.65 6.05 5l-.4 2.15q-1.15 4.55-3.1 5.8l-.55.3-.3.05q-2.45 0-5.35-1.4l-1.1-.55.25-.25q1.05-1.25 1.05-4.9 0-10.3-4.2-17.45l-.15-.3 1.55-.15 1.85-.05q3.1 0 5.75 1.65 1.15.8 2.15 2.35" fill="#8f1f48" fill-rule="evenodd" transform="translate(24.05 21.95)"/><path d="M46.65 24.6q0-3.55-.8-6.2l-.1-.3-.45-1.25-.4-.75q-2.4-1.1-5-1.65l-7.6-.7-4.15.35-.6.1m16.2 21.05.5-.9q2.4-4.4 2.4-9.65v-.1m-9.1 11.6 3.1 1.6.7.35q1.3-1.2 2.4-2.9m-3.1 2.55L40 39.25l-1.25 1.55-2.3 1.65q-2.9-1.7-6.55-4.7l-3.3-2.85m-7.3-1.6q-.85.7-2.6.7-1.8 0-4.55-1.05-3.3-1.25-6.45-3.6L1.5 1.5q9.6.55 14.75 8.9" fill="none" stroke="#363559" stroke-linecap="round" stroke-linejoin="round" stroke-width="3"/><path d="M27.55 14.2q1.1 1.7 1.95 4.45l.75 3.95-.15 4.35-.4 2.15q-1.15 4.55-3.1 5.8l-.55.3-.3.05q-2.45 0-5.35-1.4l-1.1-.55.25-.25q1.05-1.25 1.05-4.9 0-10.3-4.2-17.45l-.15-.3 1.55-.15 1.85-.05q3.1 0 5.75 1.65 1.15.8 2.15 2.35z" fill="none" stroke="#410f21" stroke-linecap="round" stroke-linejoin="round" stroke-width="3"/></g><g id="d"><path d="M22.1-13.5q2.6 1.95 3.2 6.75.65 4.9-1.45 9.55-2.45 5.45-7.8 8.2-6.3 3.4-15.8 2.55Q-15.3 12.2-25-3.25l-.4-.65 2.9-9.75.75 1.4q2.55 4.4 5.25 7.4 8.45 9.35 21.55 9.7 9.25.25 14-7.8 1.6-2.75 2.45-6.25.65-2.65.6-4.3" fill="#b4c2f0" fill-rule="evenodd" transform="translate(26.9 15.15)"/><path d="M49 1.65q.05 1.65-.6 4.3-.85 3.5-2.45 6.25-4.75 8.05-14 7.8-13.1-.35-21.55-9.7-2.7-3-5.25-7.4L4.4 1.5l-2.9 9.75.4.65q9.7 15.45 25.25 16.8 9.5.85 15.8-2.55 5.35-2.75 7.8-8.2 2.1-4.65 1.45-9.55-.6-4.8-3.2-6.75z" fill="none" stroke="#363559" stroke-linecap="round" stroke-linejoin="round" stroke-width="3"/></g><g id="e"><path d="M-11.8 6.6q-1.6-3.05-2.6-6.4-1.25-4.2-1.25-7.75 0-5.75 2.1-9.8 1.85-3.6 4.7-5 1.4 16.8 8.5 26l-.15.25q-3.25 4.95-6.75 4.95-2.15 0-4.55-2.25" fill="#b4c2f0" fill-rule="evenodd" transform="translate(17.15 23.85)"/><path d="M-11.8 6.6q2.4 2.25 4.55 2.25 3.5 0 6.75-4.95l.15-.25q6.05 7.8 16 10.15-3.2 3.25-6.05 5.3-4.6 3.25-8.35 3.25-4.4 0-4.4-2.9l.1-1.55.15-1.1q-4.45-2.55-7.95-8.5l-.95-1.7" fill="#73769e" fill-rule="evenodd" transform="translate(17.15 23.85)"/><path d="M16.8 27.5q-7.1-9.2-8.5-26-2.85 1.4-4.7 5-2.1 4.05-2.1 9.8 0 3.55 1.25 7.75 1 3.35 2.6 6.4l.95 1.7q3.5 5.95 7.95 8.5l-.15 1.1-.1 1.55q0 2.9 4.4 2.9 3.75 0 8.35-3.25 2.85-2.05 6.05-5.3-9.95-2.35-16-10.15z" fill="none" stroke="#363559" stroke-linecap="round" stroke-linejoin="round" stroke-width="3"/></g><g id="f"><path d="M20.05-20.8q3.85 4.45 6.05 11.5-.05 4.3-1.15 8.9Q13.2 5.55 5.2 12.45 8.6 8.55 10.65 3q2.75-7.25 1.7-13.15 3.8-3.75 6.2-7.85l1.5-2.8m-46.1 25.05.95-3.5L-23-5l.25.55q3.65 6.9 11.1 6.9h.35q-.95 4.4-.25 8.3 1.1 5.9 5.3 7.05 3.65 1 7.75-2-8.85 8.85-11.85 19.15l-.75-.15q-3.75-.75-6.8-3.3-8.95-7.45-8.15-27.25" fill="#73769e" fill-rule="evenodd" transform="translate(27.6 36.4)"/><path d="M26.1-9.3q-2.2-7.05-6.05-11.5l-1.5-1.6q-5.6-5.4-13.6-5.4-14.85 0-24.5 16-2 3.2-3.45 6.8L-25.1.75l-.95 3.5.2-3.4q.35-5.15 1.55-9.65 1.65-6.6 4.9-11.7 4.8-7.45 12.3-11.25l4.4-1.85q4.35-1.35 8.95-1.3 4.4.05 7.45 1.3l2.35 1.4q3.4 2.7 5.7 6.3 2.3 3.55 3.4 8 1.05 4.15.95 8.6" fill="#fff3d2" fill-rule="evenodd" transform="translate(27.6 36.4)"/><path d="M-23-5q1.45-3.6 3.45-6.8 9.65-16 24.5-16 8 0 13.6 5.4l1.5 1.6-1.5 2.8q-2.4 4.1-6.2 7.85v-.1q-1.1-5.9-5.3-7.05-4.3-1.1-9.2 3.2-4.95 4.3-7.7 11.6l-1.45 4.95h-.35q-7.45 0-11.1-6.9L-23-5" fill="#b4c2f0" fill-rule="evenodd" transform="translate(27.6 36.4)"/><path d="m-11.3 2.45 1.45-4.95q2.75-7.3 7.7-11.6 4.9-4.3 9.2-3.2 4.2 1.15 5.3 7.05v.1L9.7-7.65Q4.45-3.1-1.35-.35q-5.6 2.7-9.95 2.8" fill="#e9bfd7" fill-rule="evenodd" transform="translate(27.6 36.4)"/><path d="M12.35-10.15Q13.4-4.25 10.65 3 8.6 8.55 5.2 12.45L1.5 15.8q-4.1 3-7.75 2-4.2-1.15-5.3-7.05-.7-3.9.25-8.3 4.35-.1 9.95-2.8Q4.45-3.1 9.7-7.65l2.65-2.5" fill="#c98faa" fill-rule="evenodd" transform="translate(27.6 36.4)"/><path d="M53.7 27.1q.1-4.45-.95-8.6-1.1-4.45-3.4-8-2.3-3.6-5.7-6.3L41.3 2.8q-3.05-1.25-7.45-1.3-4.6-.05-8.95 1.3l-4.4 1.85Q13 8.45 8.2 15.9 4.95 21 3.3 27.6q-1.2 4.5-1.55 9.65l-.2 3.4Q.75 60.45 9.7 67.9q3.05 2.55 6.8 3.3l.75.15q3-10.3 11.85-19.15l3.7-3.35L30.55 51l-1.45 1.2m3.7-3.35q8-6.9 19.75-12.85 1.1-4.6 1.15-8.9" fill="none" stroke="#363559" stroke-linecap="round" stroke-linejoin="round" stroke-width="3"/><path d="M39.95 26.25q1.05 5.9-1.7 13.15-2.05 5.55-5.45 9.45m-16.5-10 1.45-4.95q2.75-7.3 7.7-11.6 4.9-4.3 9.2-3.2 4.2 1.15 5.3 7.05v.1M16.3 38.85q-.95 4.4-.25 8.3 1.1 5.9 5.3 7.05 3.65 1 7.75-2" fill="none" stroke="#b97c8f" stroke-linecap="round" stroke-linejoin="round" stroke-width="3"/></g><g id="g"><path d="m15-49.75 1.8 1q4.55 2.7 8.2 6.55l2.35 2.75q7.6 9.9 7.6 23.8 0 5.6-1.3 10.85Q32.8-1.65 31.6.8q1.45 1.95 2.25 4.25 1.7 5.2 1.7 14.7 0 7.3-3.05 14.1-2.9 6.35-8.05 11.3L22.1 47.3l-2.1.8Q5.65 53.15-6.9 50.75q-12.8-2.35-20.3-11.8-2.85-3.65-4.55-8.85l2.7 3.4q7.25 7.35 22.1 7.35 12.6 0 20.35-7.35 4.8-4.55 6.75-10.95l-4.2-.5-2.9.25q-3.3 4.2-8.5 6.85-2.65 1.4-5.4 2.2l-3.05.55q-3.15 0-4.85-1.15-2.15-1.55-2.15-5.15l.15-1.85-3.7.45-5.65.4h-.65q-.35 3.25-1.45 5.2-1.3 2.3-3.2 2.3-2.65 0-5.25-3.1-1.25-1.55-2.35-3.65-.85-4.6-1.05-10.2-.15-4.9.25-10.1l.45-4.1.15-.1q1.6 2.5 5.05 4.8l1.5 1.05.15.05v.05h.05l.05-.05.3.15q7.5 4.3 17.55 4.3 13.05 0 22.8-6.65 4.05-2.65 6.7-6.1l.8-2.9q1.55-6.7 1.65-16.1.1-9.4-6-18.75-3.3-4.95-8.4-8.2-3.7-2.4-8.45-3.8v-.1l9.85.6q2.45.35 4.6 1.05" fill="#73769e" fill-rule="evenodd" transform="translate(42.5 53)"/><path d="M.55-51.3Q5.3-49.9 9-47.5l-2.85-.05q-6.3 0-12 1.7l1.65.4q2.5.9 3.1 2.9.6 2.1-1.15 4.1-1.7 2-4.7 2.8l-5.55-.15q-2.5-.9-3.1-2.95-.45-1.65.5-3.25l-3.45 2.35-2.05 1.6q-2.85 1.8-8.1 6.4l-4.9 3.7-2.75-.4-1.2.1q3-1.25 5.8-4.5 6.05-6.85 12.85-11.5 6.6-4.6 12.4-6.1l4.3-.8 1.1-.15H.55m-27.2 58-1.5-1.05q-3.45-2.3-5.05-4.8l-.15.1-.65-1.3-.15-.25-.1-.25-3.65-8.3Q-40.95-16.6-41-22.9l.05-1.85q.3.35 1 .7 1.5.75 3.6.75l2-.15-.05.3-.2 3.3q0 6.5 1.7 12.7 2 6.9 6.3 13.8l-.05.05" fill="#fff3d2" fill-rule="evenodd" transform="translate(42.5 53)"/><path d="m22.1 47.3 2.35-2.15q5.15-4.95 8.05-11.3 3.05-6.8 3.05-14.1 0-9.5-1.7-14.7-.8-2.3-2.25-4.25 1.2-2.45 2.05-5.6 1.3-5.25 1.3-10.85 0-13.9-7.6-23.8L25-42.2q-3.65-3.85-8.2-6.55l-1.8-1q8.8 2.7 14.1 9.5 6.35 8.05 7.75 18.75.75 5.3.25 13.15Q38.25-4.1 40.15 6.6q1.95 10.55-.3 19.4-.6 2.5-1.6 4.95Q33.6 42.35 22.1 47.3M9-47.5q5.1 3.25 8.4 8.2 6.1 9.35 6 18.75-.1 9.4-1.65 16.1l-.8 2.9q-2.65 3.45-6.7 6.1Q4.5 11.2-8.55 11.2q-10.05 0-17.55-4.3l-.3-.15-.05.05h-.05v-.05l-.1-.1q-4.3-6.9-6.3-13.8-1.7-6.2-1.7-12.7l.2-3.3.05-.3q.9-.2 1.6-.6 1.55-.75 1.55-1.8t-1.55-1.75l-.85-.35 4.9-3.7q5.25-4.6 8.1-6.4l2.05-1.6L-15.1-42q-.95 1.6-.5 3.25.6 2.05 3.1 2.95l5.55.15q3-.8 4.7-2.8 1.75-2 1.15-4.1-.6-2-3.1-2.9l-1.65-.4q5.7-1.7 12-1.7L9-47.5m-42 72.85q1.1 2.1 2.35 3.65 2.6 3.1 5.25 3.1 1.9 0 3.2-2.3 1.1-1.95 1.45-5.2h.65l5.65-.4 3.7-.45-.15 1.85q0 3.6 2.15 5.15 1.7 1.15 4.85 1.15l3.05-.55q2.75-.8 5.4-2.2 5.2-2.65 8.5-6.85l2.9-.25 4.2.5q-1.95 6.4-6.75 10.95-7.75 7.35-20.35 7.35-14.85 0-22.1-7.35l-2.7-3.4-1.1-4.1-.15-.65" fill="#b4c2f0" fill-rule="evenodd" transform="translate(42.5 53)"/><path d="m-37.55-28.25 1.2-.1 2.75.4.85.35q1.55.7 1.55 1.75t-1.55 1.8q-.7.4-1.6.6l-2 .15q-2.1 0-3.6-.75-.7-.35-1-.7l.15-1.75.25-1.2h.75l1.85-.4.4-.15" fill-rule="evenodd" transform="translate(42.5 53)"/><path d="m-26.5 6.75-.15-.05.05-.05.1.1" fill="#fff" fill-rule="evenodd" transform="translate(42.5 53)"/><path d="M64.6 100.3q11.5-4.95 16.15-16.35 1-2.45 1.6-4.95 2.25-8.85.3-19.4-1.9-10.7-3.05-14.95.5-7.85-.25-13.15-1.4-10.7-7.75-18.75-5.3-6.8-14.1-9.5-2.15-.7-4.6-1.05l-9.85-.6-1.65.1-1.1.15-4.3.8q-5.8 1.5-12.4 6.1-6.8 4.65-12.85 11.5-2.8 3.25-5.8 4.5l1.2-.1 2.75.4.85.35q1.55.7 1.55 1.75t-1.55 1.8q-.7.4-1.6.6l-2 .15q-2.1 0-3.6-.75-.7-.35-1-.7L1.5 30.1q.05 6.3 3.1 13.75l3.65 8.3.1.25.15.25.65 1.3-.45 4.1q-.4 5.2-.25 10.1.2 5.6 1.05 10.2l.15.65 1.1 4.1q1.7 5.2 4.55 8.85 7.5 9.45 20.3 11.8 12.55 2.4 26.9-2.65l2.1-.8M4.95 24.75l-.4.15-1.85.4h-.75l-.25 1.2-.15 1.75" fill="none" stroke="#363559" stroke-linecap="round" stroke-linejoin="round" stroke-width="3"/><path d="m-15.6-35.25.25.7q0 .4-.25.65-.3.3-.7.3-.4 0-.65-.3l-.3-.65.3-.7.65-.25.7.25" fill="#fff3d2" fill-rule="evenodd" transform="translate(42.5 53)"/></g><g id="h"><path d="m19.2-26.9 1.35 1.5 1.5 2q2.45 3.5 3.9 7.5 1.2 3.4 1.7 7.1Q29 1.65 24.4 12.45l-2.45 4.85q-1.2-2-3.25-3.55l-.15-.15-.7-.45.55-.85Q22.75 5.1 23-3.75q.2-8.15-3.3-14.1l-1.9 3.25q-2.8 4.15-6.6 7.65L6.75-3.5q-.8-2.6-2.3-4.8-3.25-4.5-7.95-4.5-4.8 0-8.25 4.5-3.55 4.55-3.75 11v.25q-6.6-.5-10.15-2.8l.85-4.5q1.55-5.8 4.55-10.4 8.3-12.9 25.05-12.9 4.1 0 7.85 1.3 7.05 2.1 6.55-.55M1.25 29.45l-7.05-.8q-3.6-.85-5.3-1.9l-1.3-3.9q4.1 2.7 9.2 2.7 7.8 0 14-4.7l.2-.15.65.5.45.4q.95.95 1.45 2.05.45 1 .55 2.1-4.25 2.8-9.65 3.5l-.6.05-2.6.15" fill="#b4c2f0" fill-rule="evenodd" transform="translate(29.4 36.95)"/><path d="m-12.4 22.85-.1-.35q-4.3-11.8-11.7-18.55l-1.3-1.1-.4-.3.25-2.4q3.55 2.3 10.15 2.8-.1 6.25 3.05 10.7 3.2 4.6 8 4.6 4.7 0 8.25-4.6Q7.25 9.1 7.45 2.7q.1-3.35-.7-6.2l4.45-3.45q3.8-3.5 6.6-7.65l1.9-3.25q3.5 5.95 3.3 14.1-.25 8.85-4.6 16.05l-.55.85-2.5-1.3q-3.35-.25-5.6 2.5-2 2.45-1.6 4.75L11 20.7l-.2.15q-6.2 4.7-14 4.7-5.1 0-9.2-2.7" fill="#73769e" fill-rule="evenodd" transform="translate(29.4 36.95)"/><path d="m21.95 17.3 1.3 2.75-1.65 1.75q-2.7 2.35-5.45 2.35l-2.6-.5q-.5-1.1-1.45-2.05l-.45-.4-.65-.5-2.85-1.6q-.4-2.3 1.6-4.75 2.25-2.75 5.6-2.5l2.5 1.3.7.45.15.15q2.05 1.55 3.25 3.55" fill="#ffdb6a" fill-rule="evenodd" transform="translate(29.4 36.95)"/><path d="M23.25 20.05q.65 2.2.65 4.75 0 4.8-3.2 7.8-3.25 2.9-8.45 2.9-6.25 0-9.55-3.75-.9-1.1-1.45-2.3l2.6-.15.6-.05.45.25q1.75 1.15 4.35 1.15 2.35 0 3.75-1.45 1.1-1.2 1.1-2.75v-.7q-.1-1.1-.55-2.1l2.6.5q2.75 0 5.45-2.35l1.65-1.75" fill="#dd7f48" fill-rule="evenodd" transform="translate(29.4 36.95)"/><path d="M-25.65.15-26.8-.6l-1.05-1v-.9q-.15-4.4.55-8.55 2.75-16.35 17.1-22.35l4.25-1.4q5.75-1.3 11.6 0l1 .3q7.2 2.05 12.55 7.6.5 2.65-6.55.55-3.75-1.3-7.85-1.3-16.75 0-25.05 12.9-3 4.6-4.55 10.4l-.85 4.5" fill="#fff3d2" fill-rule="evenodd" transform="translate(29.4 36.95)"/><path d="M-15.5 2.95V2.7q.2-6.45 3.75-11 3.45-4.5 8.25-4.5 4.7 0 7.95 4.5 1.5 2.2 2.3 4.8Q3.2-1.05-.9.6q-6.05 2.5-11.25 2.5l-3.35-.15" fill="#e9bfd7" fill-rule="evenodd" transform="translate(29.4 36.95)"/><path d="m-15.5 2.95 3.35.15Q-6.95 3.1-.9.6q4.1-1.65 7.65-4.1.8 2.85.7 6.2-.2 6.4-3.65 10.95-3.55 4.6-8.25 4.6-4.8 0-8-4.6-3.15-4.45-3.05-10.7" fill="#c98faa" fill-rule="evenodd" transform="translate(29.4 36.95)"/><path d="m48.6 10.05 1.35 1.5 1.5 2q2.45 3.5 3.9 7.5 1.2 3.4 1.7 7.1Q58.4 38.6 53.8 49.4l-2.45 4.85m-49.8-18.9.05 1.25.15 1.6M48.6 10.05q-5.35-5.55-12.55-7.6l-1-.3q-5.85-1.3-11.6 0l-4.25 1.4Q4.85 9.55 2.1 25.9q-.7 4.15-.55 8.55v.9" fill="none" stroke="#363559" stroke-linecap="round" stroke-linejoin="round" stroke-width="3"/><path d="M36.15 33.45q-.8-2.6-2.3-4.8-3.25-4.5-7.95-4.5-4.8 0-8.25 4.5-3.55 4.55-3.75 11v.25q-.1 6.25 3.05 10.7 3.2 4.6 8 4.6 4.7 0 8.25-4.6 3.45-4.55 3.65-10.95.1-3.35-.7-6.2" fill="none" stroke="#9d5464" stroke-linecap="round" stroke-linejoin="round" stroke-width="3"/><path d="m51.35 54.25 1.3 2.75q.65 2.2.65 4.75 0 4.8-3.2 7.8-3.25 2.9-8.45 2.9-6.25 0-9.55-3.75-.9-1.1-1.45-2.3m16.6-16.3.7.45.15.15q2.05 1.55 3.25 3.55m-4.1-4.15-2.5-1.3q-3.35-.25-5.6 2.5-2 2.45-1.6 4.75l2.85 1.6.65.5.45.4q.95.95 1.45 2.05.45 1 .55 2.1v.7q0 1.55-1.1 2.75-1.4 1.45-3.75 1.45-2.6 0-4.35-1.15l-.45-.25" fill="none" stroke="#8d4628" stroke-linecap="round" stroke-linejoin="round" stroke-width="3"/><path d="M43.5 62.7q-4.25 2.8-9.65 3.5l-.6.05-2.6.15-7.05-.8q-3.6-.85-5.3-1.9" fill="none" stroke="#363559" stroke-linecap="round" stroke-linejoin="round" stroke-width="3"/><path d="M14.55 19.5q-.85 0-1.45-.6t-.6-1.45q0-.85.6-1.4.6-.6 1.45-.6t1.45.6q.6.55.6 1.4 0 .85-.6 1.45t-1.45.6" fill="#fff" fill-rule="evenodd" transform="translate(29.4 36.95)"/></g><g id="i"><path d="M-8.8-5.65q.2-1.15.9-2.05.95-1.2 2.35-1.2 1.4 0 2.35 1.2.7.9.9 2.05l.1 1q0 1.8-1 3.05-.95 1.25-2.35 1.25-1.4 0-2.35-1.25-1-1.25-1-3.05l.1-1m7.15 4.25.3-.8q.35-.35.85-.35l.8.35.35.8-.35.8q-.35.35-.8.35-.5 0-.85-.35l-.3-.8" fill="#fff" fill-rule="evenodd" transform="translate(10.65 12.95)"/><path d="M-2.6-12.45q1.9 0 3.55 1.1l.9.7L3.5-8.8q2.65 3.65 3 8.8.15 3-.5 5.55l.85 1.65q1.6 2.8 3.3 3.15Q8.2 10.5 6 9.7L4.5 9q-2.2 3.45-5.55 3.45-3.45 0-6.05-3.65-2.65-3.65-3-8.8-.2-3.1.5-5.65l1.35-3.15q1.05-1.65 2.3-2.55 1.5-1.1 3.35-1.1m.95 11.05.3.8q.35.35.85.35.45 0 .8-.35l.35-.8-.35-.8-.8-.35q-.5 0-.85.35l-.3.8M-8.8-5.65l-.1 1q0 1.8 1 3.05.95 1.25 2.35 1.25 1.4 0 2.35-1.25 1-1.25 1-3.05l-.1-1q-.2-1.15-.9-2.05-.95-1.2-2.35-1.2-1.4 0-2.35 1.2-.7.9-.9 2.05" fill="url(#p)" fill-rule="evenodd" transform="translate(10.65 12.95)"/><path d="M-2.6-12.45q1.9 0 3.55 1.1l.9.7L3.5-8.8q2.65 3.65 3 8.8.15 3-.5 5.55l.85 1.65q1.6 2.8 3.3 3.15Q8.2 10.5 6 9.7L4.5 9q-2.2 3.45-5.55 3.45-3.45 0-6.05-3.65-2.65-3.65-3-8.8-.2-3.1.5-5.65l1.35-3.15q1.05-1.65 2.3-2.55 1.5-1.1 3.35-1.1z" fill="none" stroke="#363559" stroke-linecap="round" stroke-linejoin="round" transform="translate(10.65 12.95)"/><path d="M1.15 5.2q1.15.9 1.15 2.2 0 1.25-1.15 2.15-1.15.9-2.8.9t-2.8-.9Q-5.6 8.65-5.6 7.4q0-1.3 1.15-2.2 1.15-.9 2.8-.9t2.8.9" fill="url(#q)" fill-rule="evenodd" transform="translate(10.65 12.95)"/></g><g id="j"><path d="M1.9-6.45 4.65-8.2q1.6 1.9 2.65 4.35Q8.65-.8 8.5 1.3v.3q-.25 2.55-2.35 4.45-1.5 1.25-3.5 1.85l-3 .35q-2 0-3.6-.7-1.25-.55-2.2-1.5-1.65-1.7-2.1-4.45-.3-1.7-.2-3.75l.2-1.6.1-.7 1.1.1.45 2.2.5 1.55q.55.3 1.45.45l2 .3Q-.5.15 1.1-1.2q.95-.75 1.75-2.15l-.95-3.1" fill="#ff8c76" fill-rule="evenodd" transform="translate(10 9.7)"/><path d="m-7.05-4.35 2.6-.15q3.35-.35 6.35-1.95l.95 3.1q-.8 1.4-1.75 2.15Q-.5.15-2.65.15l-2-.3Q-5.55-.3-6.1-.6l-.5-1.55-.45-2.2" fill="#fff" fill-rule="evenodd" transform="translate(10 9.7)"/><path d="m11.9 3.25 2.75-1.75q1.6 1.9 2.65 4.35Q18.65 8.9 18.5 11v.3q-.25 2.55-2.35 4.45-1.5 1.25-3.5 1.85l-3 .35q-2 0-3.6-.7-1.25-.55-2.2-1.5-1.65-1.7-2.1-4.45-.3-1.7-.2-3.75l.2-1.6.1-.7 1.1.1" fill="none" stroke="#883e36" stroke-linecap="round" stroke-linejoin="round" stroke-width="3"/><path d="m11.9 3.25.95 3.1q-.8 1.4-1.75 2.15-1.6 1.35-3.75 1.35l-2-.3q-.9-.15-1.45-.45l-.5-1.55-.45-2.2 2.6-.15q3.35-.35 6.35-1.95z" fill="none" stroke="#363559" stroke-linecap="round" stroke-linejoin="round" stroke-width="3"/></g><g id="l"><path d="M-6-1.9Q.7-1.95 4.3 1.2L1.9 2.45Q-2.5 4.3-5.7 4.3l-2.4-.35-1.15-.75q0-.95 2.25-3.85l1-1.25" fill="#b3c2f0" fill-rule="evenodd" transform="translate(10.75 5.8)"/><path d="m-4.75-3.8 13.6 1.9q-2 1.7-4.55 3.1Q.7-1.95-6-1.9l1.25-1.9" fill="#72769d" fill-rule="evenodd" transform="translate(10.75 5.8)"/><path d="m19.6 3.9.4-.3M6.3 1.5 6 2 4.75 3.9l-1 1.25Q1.5 8.05 1.5 9l1.15.75 2.4.35q3.2 0 7.6-1.85L15.05 7q2.55-1.4 4.55-3.1" fill="none" stroke="#363559" stroke-linecap="round" stroke-linejoin="round" stroke-width="3"/></g><g id="m"><path d="M5.9 6.65Q5.35 3.8 3.75.9q-2.7-4.95-5.8-4.95-.8 0-1.1.35-.35.4-.35 1.55 0 1.8 2.8 4.75l3.05 3-3.45-1.55q-6.5-3.4-6.5-7.5l.2-2.05.25-.95q1.7.85 3.85.85l2.7-.3q1.05-.25 2.1-.8 2.4 3.05 3.7 5.3 2.4 4.15 2.4 5.95l-.3 1.5q-.3.65-1.15.65l-.25-.05" fill="#72769d" fill-rule="evenodd" transform="translate(9.1 8.2)"/><path d="m2.35 5.6-3.05-3Q-3.5-.35-3.5-2.15q0-1.15.35-1.55.3-.35 1.1-.35 3.1 0 5.8 4.95 1.6 2.9 2.15 5.75L3.6 6l-1.25-.4" fill="#b3c2f0" fill-rule="evenodd" transform="translate(9.1 8.2)"/><path d="M10.6 1.5q-1.05.55-2.1.8l-2.7.3q-2.15 0-3.85-.85" fill="none" stroke="#410f21" stroke-linecap="round" stroke-linejoin="round" stroke-width="3"/><path d="m15 14.85.25.05q.85 0 1.15-.65l.3-1.5q0-1.8-2.4-5.95-1.3-2.25-3.7-5.3m-8.65.25-.25.95-.2 2.05q0 4.1 6.5 7.5l3.45 1.55 1.25.4 2.3.65" fill="none" stroke="#363559" stroke-linecap="round" stroke-linejoin="round" stroke-width="3"/></g><g id="n"><path d="M.4.6q-3.15 3.05-7.2 3.05-4.65 0-7.15-4.1-2.35-3.9-1.1-8.8 1.2-4.6 4.8-7.3 3.25-2.5 7-2.15 3.55.3 5.75 3.2 2.4 2.9 2.1 7.2l-.35 2.4q-.75-.25-1.65 0-1.15.3-2.05 1.15l-.6.65.95-.3 2.55.15.25.1Q3-2.4 1.75-.85l-.1-.2Q.95-2-.15-2.55L-.9-2.9l.55.75Q.5-1 .45.3L.6.45.4.6M.15-11q-.85 0-1.45.7-.7.75-.7 1.9 0 1.2.55 2.2l.5.8-.05-.95q0-1.4.75-2.45.75-.95 1.95-1.3-.45-.6-1.05-.8l-.5-.1m-10.25-3.25q-1.05 0-1.8 1-.7 1-.7 2.4 0 1.45.7 2.45.75 1.05 1.8 1.05 1 0 1.75-1.05.65-1 .65-2.45 0-1.4-.65-2.4-.75-1-1.75-1m4.95 13-2.35-.2.3 1.3.3.4q.65.55 1.65.4Q-4.25.5-3.5-.4q.75-.95.95-2.1l.1-.9-.55.75q-.9 1.1-2.15 1.4M-5.1-7q-.65-1.1-.4-2.3-.75.15-1.2.6l-.3.4q-.35.8.05 1.65.4.9 1.45 1.4 1.1.45 2.3.4l.85-.15-.85-.35Q-4.5-5.9-5.1-7m19.05-8.95.75.25 1.05 2.3.8 2.2.15 4.55q0 3.65-2.95 9.15-2.65 4.95-7.3 8.95-4.2 3.7-9 5.85l-.05-.1 1.1-.65q7-4.85 11.1-11.3 4.55-7.1 4.55-14.9l-.2-6.3" fill="#b4c2f0" fill-rule="evenodd" transform="translate(18.15 20.15)"/><path d="m4.25-5.9.35-2.4q.3-4.3-2.1-7.2-2.2-2.9-5.75-3.2-3.75-.35-7 2.15-3.6 2.7-4.8 7.3-1.25 4.9 1.1 8.8 2.5 4.1 7.15 4.1Q-2.75 3.65.4.6q-.1 1-.75 1.85l1.3.05.45-.2q.75-.5.85-1.4.1-.9-.5-1.75Q3-2.4 3.7-4.15q1 .45 1.5 1.4l.55-1.2v-.5q-.25-.85-1.1-1.3l-.4-.15M-3.1 17.55q-4.3 1.85-7.55 1.85-3.6 0-4.9-1-1.1-.9-1.1-3.35t.95-4.15q.75-1.25 2-1.95l-.75-1.35q-2-4.4-2-9.45 0-8.7 3.95-13.9l3-2.9Q-1.1-21 13.6-16.1l.3-.4.05.55.2 6.3q0 7.8-4.55 14.9-4.1 6.45-11.1 11.3l-1.1.65-.5.35" fill="#73769e" fill-rule="evenodd" transform="translate(18.15 20.15)"/><path d="M-10.1-14.25q1 0 1.75 1 .65 1 .65 2.4 0 1.45-.65 2.45-.75 1.05-1.75 1.05-1.05 0-1.8-1.05-.7-1-.7-2.45 0-1.4.7-2.4.75-1 1.8-1" fill="#fff3d2" fill-rule="evenodd" transform="translate(18.15 20.15)"/><path d="m4.25-5.9.4.15q.85.45 1.1 1.3v.5l-.55 1.2q-.5-.95-1.5-1.4l-.25-.1L.9-4.4l-.95.3.6-.65q.9-.85 2.05-1.15.9-.25 1.65 0M1.75-.85q.6.85.5 1.75-.1.9-.85 1.4l-.45.2-1.3-.05Q.3 1.6.4.6L.6.45.45.3Q.5-1-.35-2.15L-.9-2.9l.75.35q1.1.55 1.8 1.5l.1.2M.15-11l.5.1q.6.2 1.05.8-1.2.35-1.95 1.3Q-1-7.75-1-6.35l.05.95-.5-.8Q-2-7.2-2-8.4q0-1.15.7-1.9.6-.7 1.45-.7M-5.1-7q.6 1.1 1.9 1.65l.85.35-.85.15q-1.2.05-2.3-.4-1.05-.5-1.45-1.4-.4-.85-.05-1.65l.3-.4q.45-.45 1.2-.6-.25 1.2.4 2.3m-.05 5.75q1.25-.3 2.15-1.4l.55-.75-.1.9q-.2 1.15-.95 2.1-.75.9-1.75 1.05-1 .15-1.65-.4l-.3-.4-.3-1.3 2.35.2" fill="#d8536c" fill-rule="evenodd" transform="translate(18.15 20.15)"/><path d="M15.05 37.7q-4.3 1.85-7.55 1.85-3.6 0-4.9-1-1.1-.9-1.1-3.35t.95-4.15q.75-1.25 2-1.95l-.75-1.35q-2-4.4-2-9.45 0-8.7 3.95-13.9l3-2.9M34.7 8.95l.15 4.55q0 3.65-2.95 9.15-2.65 4.95-7.3 8.95-4.2 3.7-9 5.85l-.55.25" fill="none" stroke="#363559" stroke-linecap="round" stroke-linejoin="round" stroke-width="3"/></g><g id="o"><path d="m28.05-9.55.75 1.05q.95 1.65.95 4.05 0 2.85-3.15 4.75l-1.25.6-.3.15-1.2-1.8-1.6-2.4-1.7-2.1q-.9-.95-2-1.5l3.7-1.65.6-.2q2.95-.95 5.2-.95m-66 .05.15.35.8-.2q5 0 8.35 3.85l.85 1.2.65 1 3.35 6.35.1.15 2.1 3.9h-.2l-1.55.15q-6 0-11.4-3.45l-2-1.45q-1.4-4-1.4-9.35l.1-2 .1-.5M-8.7-.75l2.55-1.35.4-.15Q-2.6-3.6-.2-3.6q2.55 0 4.7 2.15l.1.1Q5.75-.2 8.35 3.6l.95 1.3-.7.3Q2.9 7.65-.6 7.65l-2.3-.25h-.05L-4.8 4.45-5.75 3Q-7.35.7-8.7-.75" fill="#fff" fill-rule="evenodd" transform="translate(49.6 16.95)"/><path d="M18.55-6.75q1.1.55 2 1.5l1.7 2.1 1.6 2.4 1.2 1.8.05.1-2.85 2.2-2.75 1.2q-2.85.9-8.4.9L9.6 5.3l-.3-.4-.95-1.3Q5.75-.2 4.6-1.35l-.1-.1 1.8-1.7q2.35-2 3.85-2.65l3.15-1.15 2.7-.3 2.55.5m-45.7 3.45 4.25-1.1 2-.35 2.65-.25 4 .6q2.25.7 4.15 2.3l1.4 1.35Q-7.35.7-5.75 3l.95 1.45 1.85 2.95H-3l-1.1.4q-3.05 1-7.25 1L-19 7.95l-2.6-.8V7.1l-2.1-3.9-.1-.15-3.35-6.35" fill="#ff3a58" fill-rule="evenodd" transform="translate(49.6 16.95)"/><path d="m25.1 1.15 2.05 2.6q1.3 1.3 2.9 1.8-.45 1.3-1.45 2.15-1.45 1.15-3.3 1.8l-3.05.9-.65.1-3.1.3q-1.75 0-3.3-.6-1.45-.55-2.75-1.65Q11.25 7.5 9.6 5.3l1.5.15q5.55 0 8.4-.9l2.75-1.2 2.85-2.2M42.7.4q-1.65-.35-3.2-1.5-1.4-.95-3.65-3.45L32.35-8q-1.3-1-2.6-1.35 1.35-2.75 4.5-4.55 2.8-1.55 5.3-1.55 4.2 0 6.55 3.7 2.05 3.25 2.05 8.35 0 1.85-1.05 3.45l-.35.1L44 .5 42.7.4m-75.05 8.95q-1.8 1.4-3.65 1.8l-2.7.3q-4 0-6.65-3.1Q-48.1 5.1-48.1 0q0-6.3 3.15-10.7 2-2.8 3.8-3.65l1-.7 1.2 3.15 1 2.4-.1.5-.1 2q0 5.35 1.4 9.35.9 2.7 2.4 4.8.9 1.3 2 2.2m29.4-1.95h.05l3.05 4.15 1.6 1.35q-6.8 2.55-10.1 2.55-5.6 0-9.4-3.35l-.6-.55q-1.5-1.55-3.25-4.4l2.6.8 7.65.85q4.2 0 7.25-1l1.1-.4h.05" fill="#8f2049" fill-rule="evenodd" transform="translate(49.6 16.95)"/><path d="M25.35.9 26.6.3q3.15-1.9 3.15-4.75 0-2.4-.95-4.05l-.75-1.05h.05l1.65.2q1.3.35 2.6 1.35l3.5 3.45q2.25 2.5 3.65 3.45Q41.05.05 42.7.4q-.75 3-4.1 4.15Q35 5.8 31.8 5.8l-1.75-.25q-1.6-.5-2.9-1.8l-2.05-2.6.25-.25m-62.1 1.45 2 1.45q5.4 3.45 11.4 3.45l1.55-.15.2.05q1.75 2.85 3.25 4.4l.6.55-.5.05-5.15.45q-5.35 0-8.95-3.25-1.1-.9-2-2.2-1.5-2.1-2.4-4.8M8.6 5.2l.4.05.6.05q1.65 2.2 2.85 3.25 1.3 1.1 2.75 1.65-3.85 3.55-8.5 3.65-3 .1-4.95-.95l-1.6-1.35L-2.9 7.4l2.3.25q3.5 0 9.2-2.45" fill="#8698d9" fill-rule="evenodd" transform="translate(49.6 16.95)"/><path d="M79.35 7.6q1.35-2.75 4.5-4.55 2.8-1.55 5.3-1.55 4.2 0 6.55 3.7 2.05 3.25 2.05 8.35 0 1.85-1.05 3.45l-.35.1-2.75.35-1.3-.1M17.25 26.3q-1.8 1.4-3.65 1.8l-2.7.3q-4 0-6.65-3.1-2.75-3.25-2.75-8.35 0-6.3 3.15-10.7 2-2.8 3.8-3.65l1-.7 1.2 3.15 1 2.4M54.1 15.5l1.8-1.7q2.35-2 3.85-2.65L62.9 10l2.7-.3 2.55.5M64.8 27.15q1.55.6 3.3.6l3.1-.3.65-.1 3.05-.9q1.85-.65 3.3-1.8 1-.85 1.45-2.15" fill="none" stroke="#410f21" stroke-linecap="round" stroke-linejoin="round" stroke-width="3"/><path d="m81.95 8.95 3.5 3.45q2.25 2.5 3.65 3.45 1.55 1.15 3.2 1.5-.75 3-4.1 4.15-3.6 1.25-6.8 1.25l-1.75-.25q-1.6-.5-2.9-1.8l-2.05-2.6-.05-.1-1.2-1.8q-2.1-3.3-3.3-4.5-.9-.95-2-1.5 1.85-1.1 4.3-1.85 2.95-.95 5.2-.95h.05l1.65.2q1.3.35 2.6 1.35zm-50.1 20.1-.5.05-5.15.45q-5.35 0-8.95-3.25-1.1-.9-2-2.2-1.5-2.1-2.4-4.8-1.4-4-1.4-9.35l.1-2 .1-.5.15.35.8-.2q5 0 8.35 3.85l.85 1.2.65 1" fill="none" stroke="#363559" stroke-linecap="round" stroke-linejoin="round" stroke-width="3"/><path d="M51.35 29.85q-6.8 2.55-10.1 2.55-5.6 0-9.4-3.35l-.6-.55q-1.5-1.55-3.25-4.45l-2.1-3.9-.1-.15-3.35-6.35 4.25-1.1 2-.35 2.65-.25 4 .6q2.25.7 4.15 2.3l1.4 1.35" fill="none" stroke="#410f21" stroke-linecap="round" stroke-linejoin="round" stroke-width="3"/><path d="M59.2 22.25q1.65 2.2 2.85 3.25 1.3 1.1 2.75 1.65-3.85 3.55-8.5 3.65-3 .1-4.95-.95l-1.6-1.35-3.05-4.15h-.05L44.8 21.4l-.95-1.45q-1.6-2.3-2.95-3.75l2.55-1.35.4-.15q3.15-1.35 5.55-1.35 2.55 0 4.7 2.15l.1.1q1.15 1.15 3.75 4.95l.95 1.3.3.4z" fill="none" stroke="#363559" stroke-linecap="round" stroke-linejoin="round" stroke-width="3"/></g><linearGradient gradientTransform="matrix(0 .0124 -.0152 0 -.4 -2.2)" gradientUnits="userSpaceOnUse" id="p" spreadMethod="pad" x1="-819.2" x2="819.2"><stop offset="0"/><stop offset="1" stop-color="#36365a"/></linearGradient><linearGradient gradientTransform="matrix(0 .0035 -.0037 0 -1.65 7.4)" gradientUnits="userSpaceOnUse" id="q" spreadMethod="pad" x1="-819.2" x2="819.2"><stop offset="0" stop-color="#3a395f" stop-opacity=".451"/><stop offset="1" stop-color="#5a5996"/></linearGradient><path d="M-33.6-12.9q0-5.35 9.85-9.15 9.8-3.8 23.75-3.8t23.75 3.8q9.85 3.8 9.85 9.15 0 5.35-9.85 9.15Q13.95 0 0 0t-23.75-3.75q-9.85-3.8-9.85-9.15" fill-opacity=".349" fill-rule="evenodd" transform="translate(33.6 25.85)" id="r"/><path d="M0 1.55q-.65 0-1.1-.45-.45-.45-.45-1.1 0-.6.45-1.05.45-.45 1.1-.45.65 0 1.1.45.45.45.45 1.05 0 .65-.45 1.1-.45.45-1.1.45" fill="#ffad82" fill-rule="evenodd" transform="translate(1.55 1.5)" id="k"/><use ffdec:characterId="1" height="25.85" width="67.2" xlink:href="#r" id="b"/></defs></svg>