<svg xmlns:ffdec="https://www.free-decompiler.com/flash" xmlns:xlink="http://www.w3.org/1999/xlink" ffdec:objectType="frame" height="90" width="90" xmlns="http://www.w3.org/2000/svg"><use ffdec:characterId="44" height="263.85" transform="matrix(.3276 0 0 .3283 7.403 .18)" width="235.8" xlink:href="#a"/><defs><linearGradient gradientTransform="matrix(.0261 0 0 .0137 24.65 36.7)" gradientUnits="userSpaceOnUse" id="o" spreadMethod="pad" x1="-819.2" x2="819.2"><stop offset=".067" stop-color="#40d1f0"/><stop offset="1" stop-color="#8fe5b4"/></linearGradient><linearGradient gradientTransform="matrix(.0104 0 0 .0132 29.9 11.8)" gradientUnits="userSpaceOnUse" id="p" spreadMethod="pad" x1="-819.2" x2="819.2"><stop offset="0" stop-color="#f2a517"/><stop offset="1" stop-color="#ed972a"/></linearGradient><linearGradient gradientTransform="matrix(.0125 0 0 .0293 12.3 50.4)" gradientUnits="userSpaceOnUse" id="q" spreadMethod="pad" x1="-819.2" x2="819.2"><stop offset=".047" stop-color="#3f4987"/><stop offset=".651" stop-color="#246289"/><stop offset="1" stop-color="#3d4b87"/></linearGradient><linearGradient gradientTransform="matrix(.0151 0 0 .0242 43.25 54)" gradientUnits="userSpaceOnUse" id="r" spreadMethod="pad" x1="-819.2" x2="819.2"><stop offset=".047" stop-color="#3f4987"/><stop offset=".651" stop-color="#246289"/><stop offset="1" stop-color="#3d4b87"/></linearGradient><linearGradient gradientTransform="matrix(.0093 0 0 .0152 29.65 57.8)" gradientUnits="userSpaceOnUse" id="t" spreadMethod="pad" x1="-819.2" x2="819.2"><stop offset=".271" stop-color="#e38114"/><stop offset="1" stop-color="#fbf472"/></linearGradient><linearGradient gradientTransform="matrix(.0139 0 0 .0096 32.05 42.1)" gradientUnits="userSpaceOnUse" id="u" spreadMethod="pad" x1="-819.2" x2="819.2"><stop offset=".271" stop-color="#e38114"/><stop offset="1" stop-color="#fbf472"/></linearGradient><linearGradient gradientTransform="matrix(.0052 0 0 .0086 5.6 17.8)" gradientUnits="userSpaceOnUse" id="v" spreadMethod="pad" x1="-819.2" x2="819.2"><stop offset="0" stop-color="#0c7ab5"/><stop offset=".98" stop-color="#2c376f"/></linearGradient><linearGradient gradientTransform="matrix(.0061 0 0 .0137 13.25 16.05)" gradientUnits="userSpaceOnUse" id="w" spreadMethod="pad" x1="-819.2" x2="819.2"><stop offset="0" stop-color="#f3a318"/><stop offset=".98" stop-color="#fefd7e"/></linearGradient><linearGradient gradientTransform="matrix(.0056 0 0 .0129 23.35 13.65)" gradientUnits="userSpaceOnUse" id="x" spreadMethod="pad" x1="-819.2" x2="819.2"><stop offset="0" stop-color="#f3a318"/><stop offset=".98" stop-color="#fefd7e"/></linearGradient><linearGradient gradientTransform="matrix(.0019 0 0 .0176 32.15 13.3)" gradientUnits="userSpaceOnUse" id="y" spreadMethod="pad" x1="-819.2" x2="819.2"><stop offset="0" stop-color="#51998b"/><stop offset=".98" stop-color="#7c795a"/></linearGradient><linearGradient gradientTransform="matrix(.02 0 0 .0149 143.75 146.55)" gradientUnits="userSpaceOnUse" id="z" spreadMethod="pad" x1="-819.2" x2="819.2"><stop offset=".035" stop-color="#d45278"/><stop offset="1" stop-color="#c54fa7"/></linearGradient><linearGradient gradientTransform="matrix(.0181 0 0 .0091 135.1 127.05)" gradientUnits="userSpaceOnUse" id="A" spreadMethod="pad" x1="-819.2" x2="819.2"><stop offset=".035" stop-color="#acb48b"/><stop offset="1" stop-color="#f6cd57"/></linearGradient><linearGradient gradientTransform="matrix(.0276 0 0 .0192 134.65 118.2)" gradientUnits="userSpaceOnUse" id="B" spreadMethod="pad" x1="-819.2" x2="819.2"><stop offset=".035" stop-color="#d35173"/><stop offset="1" stop-color="#c54fa7"/></linearGradient><linearGradient gradientTransform="matrix(.0287 0 0 .019 133.95 94.6)" gradientUnits="userSpaceOnUse" id="C" spreadMethod="pad" x1="-819.2" x2="819.2"><stop offset=".035" stop-color="#d84848"/><stop offset="1" stop-color="#c150a0"/></linearGradient><linearGradient gradientTransform="matrix(.0227 0 0 .0104 133.7 73.95)" gradientUnits="userSpaceOnUse" id="D" spreadMethod="pad" x1="-819.2" x2="819.2"><stop offset=".035" stop-color="#d7443d"/><stop offset="1" stop-color="#ce4d83"/></linearGradient><linearGradient gradientTransform="matrix(.0222 0 0 .0104 125.55 52.75)" gradientUnits="userSpaceOnUse" id="E" spreadMethod="pad" x1="-819.2" x2="819.2"><stop offset=".035" stop-color="#d7443d"/><stop offset="1" stop-color="#ce4d83"/></linearGradient><linearGradient gradientTransform="matrix(.009 0 0 .0111 41.05 21.4)" gradientUnits="userSpaceOnUse" id="F" spreadMethod="pad" x1="-819.2" x2="819.2"><stop offset="0" stop-color="#928df4"/><stop offset="1" stop-color="#8ddff5"/></linearGradient><linearGradient gradientTransform="matrix(.0158 0 0 .0107 46.9 22.45)" gradientUnits="userSpaceOnUse" id="G" spreadMethod="pad" x1="-819.2" x2="819.2"><stop offset=".035" stop-color="#00648e"/><stop offset="1" stop-color="#018baf"/></linearGradient><linearGradient gradientTransform="matrix(.0464 0 0 .0261 39.45 29.8)" gradientUnits="userSpaceOnUse" id="H" spreadMethod="pad" x1="-819.2" x2="819.2"><stop offset="0" stop-color="#fffffd"/><stop offset=".471" stop-color="#fefe90"/><stop offset="1" stop-color="#eca74c"/></linearGradient><linearGradient gradientTransform="matrix(.0323 0 0 .0157 52.4 36.65)" gradientUnits="userSpaceOnUse" id="I" spreadMethod="pad" x1="-819.2" x2="819.2"><stop offset="0" stop-color="#586f69"/><stop offset=".204" stop-color="#2e7a92"/><stop offset=".651" stop-color="#928b6e"/><stop offset=".98" stop-color="#f0d38f"/></linearGradient><linearGradient gradientTransform="matrix(.02 0 0 .0092 50.3 37.25)" gradientUnits="userSpaceOnUse" id="J" spreadMethod="pad" x1="-819.2" x2="819.2"><stop offset="0" stop-color="#524769"/><stop offset=".98" stop-color="#ebb7ac"/></linearGradient><g id="a" transform="translate(-22.6 -.55)"><use ffdec:characterId="1" height="9.8" transform="matrix(3.2286 0 0 6.0828 46.855 199.294)" width="55.5" xlink:href="#b"/><use ffdec:characterId="3" height="82.2" transform="translate(193.5 172.55) scale(1.1176)" width="43.05" xlink:href="#c"/><use ffdec:characterId="5" height="54.55" transform="translate(29.75 115) scale(1.1176)" width="43.75" xlink:href="#d"/><use ffdec:characterId="7" height="79" transform="translate(137.7 154.05) scale(1.1176)" width="61.05" xlink:href="#e"/><use ffdec:characterId="9" height="58.95" transform="translate(56.6 173.9) scale(1.1176)" width="60.7" xlink:href="#f"/><use ffdec:characterId="15" height="89" transform="translate(59.8 57) scale(1.1176)" width="118.7" xlink:href="#g"/><use ffdec:characterId="17" height="77.4" transform="translate(82.85 124.3) scale(1.1176)" width="58.4" xlink:href="#h"/><use ffdec:characterId="19" height="49.35" transform="translate(59.25 118.2) scale(1.1176)" width="34.8" xlink:href="#i"/><use ffdec:characterId="21" height="211.2" transform="translate(59.9 5.1) scale(1.1176)" width="167.9" xlink:href="#j"/><use ffdec:characterId="23" height="48.15" transform="translate(161.2 134.8) scale(1.1176)" width="50.75" xlink:href="#k"/><use ffdec:characterId="25" height="70.45" transform="translate(122.65 100.7) scale(1.1176)" width="79.85" xlink:href="#l"/><use ffdec:characterId="34" height="67.65" transform="translate(22.603 55.903) scale(1.1176)" width="36.5" xlink:href="#m"/><use ffdec:characterId="34" height="67.65" transform="translate(167.553 80.953) scale(1.1176)" width="36.5" xlink:href="#m"/><use ffdec:characterId="43" height="64.95" transform="translate(31.562 186.903) scale(1.1176)" width="183.2" xlink:href="#n"/></g><g id="O" fill-rule="evenodd"><path d="M42.7 58.65q-2.05 12.2-17.25 22.45-5.65 1.75-6.8.7l1.4-1.15-.65.85q2.05-.85 3.75-1.3l.8-.25Q38.5 71.2 40.65 58.5l.15-3.5-.2-.5 2.1 4.15" fill="#4e6a75"/><path d="M.15 10.75Q1.5 4.25 13.2 0q18.15 18.6 26.95 42.65 3.85 8.4 2.55 16l-2.1-4.15-.25-.5Q29.75 32.75 16.2 23.1l2.3 7.3L.15 10.75m18.5 71.05q-.5-.45-.25-1.45 5.35-4.3 7.2-14.05 1.55-12.45-9.15-26.95-9.2-7.8-12.8-17.95Q.8 17.6.2 14.35l6.65 10.4q6.3 9.85 11.75 14.6 6.1 8.4 7.5 15.75l1.35 8.2.1 2.5v.85l-.3 2.7Q26.8 71.6 21 79.4l-.95 1.25-1.4 1.15" fill="#542724"/><path d="M.2 14.35q-.4-1.9-.05-3.6L18.5 30.4l-2.3-7.3Q29.75 32.75 40.35 54l.25.5.2.5-.15 3.5q-7.75 12.6-17.5 21.7-1.7.45-3.75 1.3l.65-.85.95-1.25q9.55-9.5 11.2-17.65.65-3.5.25-11.2-.45-7.75-12.55-19l3.75 13.75h-.05q-3.25-7.95-16.75-20.55L.2 14.35" fill="#604357"/><path d="M23.65 45.4v-.1L19.9 31.55q12.1 11.25 12.55 19 .4 7.7-.25 11.2Q30.55 69.9 21 79.4q5.8-7.8 6.25-10.05l.3-2.7v-.85Q28.35 54.55 26 50l-2.35-4.6" fill="#966470"/><path d="M23.65 45.4 26 50q2.35 4.55 1.55 15.8l-.1-2.5-1.35-8.2q-1.4-7.35-7.5-15.75-5.45-4.75-11.75-14.6 13.5 12.6 16.75 20.55l.05.1" fill="#df9d6d"/><path d="M40.65 58.5q-2.15 12.7-16.7 21.45l-.8.25q9.75-9.1 17.5-21.7" fill="#8cd0fd"/></g><g id="P" fill-rule="evenodd"><path d="M42.65 49.15q-3.2 3.7-7.4 5.4h-4.7Q19.25 51.7 11.7 47.2q-2.45-1.65-5-4.55-9.25-8.5-5.7-13.95-.3-2.05 1.05-4.15l.3-.3L3 26.1q-.9 2-1.3 4.35-.1 6.45 9.3 13.9l2.3 1.45q6.65 4.05 13.15 5.95l.2.05 4.7 1.05 2.8-.15h.05q4.15-.95 8.2-5.95l.25 2.4" fill="#542825"/><path d="M3.9 28.15q-3 5.75 9.4 17.65L11 44.35q-9.4-7.45-9.3-13.9.4-2.35 1.3-4.35l.95 2-.05.05" fill="#e7c183"/><path d="m19.35 21.55-.25 1.6q-3.3 2-7.3-1.1l-.2.15-1.5-2.35 2.4-1.5.1 1.1q1.2 3.4 5.05 2.7l.3-.05 1.4-.55m-.9 6.6-.15 1.3q-2.2 2.5.85 7.25 16.1 9.7 7.4 15.05h-.1q-6.5-1.9-13.15-5.95Q.9 33.9 3.9 28.15l.05-.05 1 1.6q4.95 4.15 9.25-1.5.55-1 .05-2.35l.65.2q2 4.85-5.2 8.1l5.1 1.4q.2.6.4.2-.15-5.1 3.25-7.6m7.15-.85-.7-1.5 1.2-.15q4.25 1.55 3.7 3.3l-.35-.05q-2.05-1.2-3.85-1.6" fill="#876e83"/><path d="m19.1 23.15-.5 3.55q-2.55 2.05-4.25 6.35l.45 2.5-5.1-1.4q7.2-3.25 5.2-8.1l-.65-.2-.15-.45-2.25-2.85-.05-.5q4 3.1 7.3 1.1m-.8 6.3-.3 3.6q.75 3.75 5.75 3.05 3.9-1.75 3.3-5.55L25.6 27.3q1.8.4 3.85 1.6l.25.25.15.1Q35.5 34.2 35.1 42.8l-.05.3q0 3.3-.55 5.65-.6 2.2-.4 3.8l.05.15-2.8.15-4.7-1.05-.1-.05q8.7-5.35-7.4-15.05-3.05-4.75-.85-7.25" fill="#604357"/><path d="M36.7 22.9v.05q4.15 5.95 6.5 20.65-3.3 5.55-9.1 8.95-.2-1.6.4-3.8.55-2.35.55-5.65l.2-.1q.4.5.55-1.35v-.1q1.45.9 1.15-4.4-.65-5.8-6.3-8.8v-.15q.05-1.55 6.05-5.3" fill="#542724"/><path d="M17.15 1.65V1.4l-.05.1-.05.05-.1.25q-2.9 5.3-3.55 13.05l-.1 1.25-.05 1.85-.05 1.4.25.45.1.15 1.2 1.2 1.2.5 1.75.1h.1l.15.35-.3.05q-3.85.7-5.05-2.7l-.1-1.1-.05-1.65v-1.4q.2-9.3 4.8-15.3 1.3 1.4 1.05 3.55l2.35 10.85v.05l.05-.05q1.4.05 1.7 2.65v.3l.05 1.25.15.6.15.65q.5 1.9 1.75 4.95l.4 1 .7 1.5 1.45 3.25q.6 3.8-3.3 5.55-5 .7-5.75-3.05l.3-3.6.15-1.3.15-1.45.5-3.55.25-1.6.1-.9.1-.05-.05-.15.5-2.75-.5-1.85-.25-1.15q-1.1-4.6-1.7-9.5l-.4-3.55m-14.8 22.6q-2.3-8.15.5-21.8 1.4-.3 2.95 6.1 1.95 5.75 3.65 8.6l.5 1.65.15 1.05 1.5 2.35.25.35 2.25 2.85.15.45q.5 1.35-.05 2.35-4.3 5.65-9.25 1.5l-1-1.6-.95-2-.65-1.85m18.8-6.2-.4-.9v.4l-.2 1.2L18.8 32.9v.2q.35 1.25 1.45 1.8l1.6.35 1.45-.15h.3q.75-.1 1.55-.6l.65-.6.2-.25.15-3.1L22 20.25l-.3-.8-.05-.1-.5-1.3M3.55 5.25 3.45 5v.5l-.1.85q-1.2 9.95 0 16.7l.3 1.65.55 2 1.05 2.55 1.5 1q1.35.65 2.6.6.9-.1 1.75-.65l1.6-1.4.85-1.2v-.05l-.1-1.65q-2.15-2.35-4-5.5l-.55-1-.65-1.25-1.4-3.05-.6-1.45q-1.5-3.8-2.7-8.4" fill="#6f6999"/><path d="m22.45 18.6-.05-1.25h.25q2.4 2.1 3.1 4.15h.9l.6-2.3 1.4-.4-.8 4.2q3.1 3.2 3.05 3.75l-6-4.25-1.4-2.45-.8-1.1-.25-.35" fill="#4d6c71"/><path d="M24.5 24.8q-1.25-3.05-1.75-4.95l.75.2 1.4 2.45 6 4.25q.05-.55-3.05-3.75l.8-4.2q4.65-.9 8.05 4.1-6 3.75-6.05 5.3-1.6-2.9-5.2-3.2l-.6-.2h-.35" fill="#614254"/><path d="m18.6 26.7-.15 1.45q-3.4 2.5-3.25 7.6-.2.4-.4-.2l-.45-2.5q1.7-4.3 4.25-6.35m6.3-.9-.4-1h.35l.6.2q3.6.3 5.2 3.2v.15q5.65 3 6.3 8.8.3 5.3-1.15 4.4.3-7.95-2.55-10.15l-.15-.1q-2.4-2.65-3.25-2.05l-.15-.1.1-.2q.55-1.75-3.7-3.3l-1.2.15" fill="#4f6d75"/><path d="M29.85 29.25q.85-.6 3.25 2.05l.15.1q2.85 2.2 2.55 10.15v.1q-.15 1.85-.55 1.35l-.15-.2q.4-8.6-5.25-13.55" fill="#8dd4fe"/><path d="M12.45 15.3v1.4q-.9.7-1.85 1.75l-.65.35-.5-1.65q1.55-1.2 3-1.85" fill="#5f4359"/><path d="m12.45 16.7.05 1.65-2.4 1.5-.15-1.05.65-.35q.95-1.05 1.85-1.75" fill="#e6c17d"/><path d="m43.2 43.6.25 1.9-1.05 1.25q-4.05 5-8.2 5.95l-.1-.15q5.8-3.4 9.1-8.95" fill="#8dd2fc"/><path d="m43.45 45.5.3 2.25-1.1 1.4-.25-2.4 1.05-1.25" fill="#506a77"/><path d="m16.95 1.8-.05.5v.15q-1.75 4.9-2.8 12.15l-.2 1.15-.25 1.95-.2 2.1-.25-.45.05-1.4.05-1.85.1-1.25q.65-7.75 3.55-13.05m.6 3.4q.6 4.9 1.7 9.5l.25 1.15.5 1.85-.5 2.75q-.65-2.05-1.05-4.7l-.1-.4-.1-1q-.6-3.95-.7-9.15m3 13.55-.05 1.9-.25 14.25q-1.1-.55-1.45-1.8v-.2l1.75-14.15m-7 8.8q-2.6-1.5-4.75-6.7l-.45-1.1-.45-1.3-1.05-3.35 1.4 3.05.65 1.25.55 1q1.85 3.15 4 5.5l.1 1.65M3.35 6.35h.05v.1q-.1 9.4.85 15.55l.25 1.4.4 1.65q.7 3.2 1.85 5.2l-1.5-1L4.2 26.7l-.55-2-.3-1.65q-1.2-6.75 0-16.7" fill="#feab05"/><path d="m14.75 21.15-1.2-1.2-.1-.15.2-2.1.25-1.95.2-1.15q1.05-7.25 2.8-12.15-1.6 5.45-1.95 11.95l-.1 1-.05 1.75q-.1 1.95-.05 4m6-.7 1.1 14.8-1.6-.35.25-14.25.25-.2M3.4 6.45h.1l.05.3q.25 6.8 2.15 13.75l.3 1.15.4 1.2q1.2 3.95 2.95 8-1.25.05-2.6-.6-1.15-2-1.85-5.2l-.4-1.65-.25-1.4Q3.3 15.85 3.4 6.45" fill="#fffeff"/><path d="M16.9 2.3v-.05q-.85 5.8-1.05 12v.9l-.05 1.55.15 4.95-1.2-.5q-.05-2.05.05-4l.05-1.75.1-1q.35-6.5 1.95-11.95V2.3m3.85 15.25v-.4l.4.9.15 1.8.15 1.05.5 4.1.2 1.35.2 1.15 1.25 7.6h-.3l-1.45.15-1.1-14.8-.15-1.85.15-1.05M3.55 6.75h.05q.65 6.75 2.8 13.05l.4 1.15.45 1.1q1.6 4.2 3.85 8.15-.85.55-1.75.65-1.75-4.05-2.95-8l-.4-1.2-.3-1.15Q3.8 13.55 3.55 6.75" fill="#e4ccff"/><path d="M16.9 2.25h.1v.25q-.55 5.65-.1 11.7v.85l.15 1.2.65 5.5-1.75-.1-.15-4.95.05-1.55v-.9q.2-6.2 1.05-12m6.7 32.85-1.25-7.6-.2-1.15-.2-1.35-.5-4.1-.15-1.05-.15-1.8.5 1.3v.1l.2.9 3.3 14.15q-.8.5-1.55.6M3.6 6.75q1.25 6.3 3.75 12.15l.5 1.2.5 1.05q1.9 3.9 4.35 7.65l-1.6 1.4q-2.25-3.95-3.85-8.15l-.45-1.1-.4-1.15Q4.25 13.5 3.6 6.75" fill="#706a9a"/><path d="M17.8 21.75h-.1l-.65-5.5-.15-1.2v-.85q-.45-6.05.1-11.7.05 5.9.7 11.8l.05.85.1.8.7 5.45-.75.35m8 12.15-.65.6-3.3-14.15h.1L25.8 33.9M3.45 5.25h.1q1.2 4.6 2.7 8.4l.6 1.45 1.05 3.35.45 1.3.45 1.1q2.15 5.2 4.75 6.7v.05l-.85 1.2q-2.45-3.75-4.35-7.65l-.5-1.05-.5-1.2Q4.85 13.05 3.6 6.75l-.15-1.5" fill="#ae9fbc"/><path d="m17 2.5.05-.6.1-.25.4 3.55q.1 5.2.7 9.15l.1 1 .1.4q.4 2.65 1.05 4.7l-.05.2-.9.75-.7-5.45-.1-.8-.05-.85q-.65-5.9-.7-11.8m5 17.75 4.15 10.3-.15 3.1-.2.25-3.85-13.55-.05-.1h.1" fill="#e2cafe"/><path d="m19.45 20.65-.1.9-1.4.55-.15-.35.75-.35.9-.75" fill="#6d6a99"/></g><g id="Q" fill-rule="evenodd"><path d="M5.05 56.25q1.1-3.65 1.85-8.3l1.85 2.8 2.05-1.3 5 3.9 5.3-2.55 9.35 5.55.55-.1q5.7 1.55 15-.35 1.2.55 2 1.4l-1.9.6q-2.8.4-3.6 2.2l-.9-.85-1.45-.25q-6.2.6-7.9 1.55-.25 3.2-1.1 6.05l-.15.05q-.85-1-2.05-1.7l-.15-5.5q-1.1 1.1-2.85 0l.25.8q-.9-1.95-2.8-4.1l-5.05.6q-3.1-.4-3.95.6l8.8.85 3.7 3.7 2 3.05q-2.35-1.3-6.05-1.15-.9.55-1.55 1.2l-.75.8q-1.65 2.15-1.25 4.9l.3 1.45.35 1 .8.95-1.6-.1H19l-1.9-.1-.2-.1-5.3-2.9-1.15-.15q3.1-.15-5.2-5.35.3-.8 0-1.85l-.7-1.4q2.35-6.95.5-5.9" fill="#644356"/><path d="m26.9 61.9-3.7-3.7-8.8-.85q.85-1 3.95-.6l5.05-.6q1.9 2.15 2.8 4.1l.5 1.15.2.5" fill="#e5bf7e"/><path d="M10.45 70.75q-5.4-.65-7.6-3.05l-.2-.3q-.6-.8-.9-1.75-.25-1.1.05-2.55l.3-1.15q.65-2.25 2.3-5.25l.65-.45q1.85-1.05-.5 5.9l.7 1.4q.3 1.05 0 1.85 8.3 5.2 5.2 5.35M4.8 66.2l-.1-.2q-.5-1.6-.65-3.05Q3.8 60.1 5 57.9q-1.55 2.5-2 4.5-1.4 6.2 7.45 7.85-1.1-1.3-5.65-4.05" fill="#d46a04"/><path d="m28.75 76.5-3.4-1.2L23 74.2l-1.4-.85-.3-.45-1-1.65q-.65-1.4-.6-2.7l2.7 4.05v.05l6.35 3.75v.1m16.3.1q-3.45-1.1-6.15-2.65L37.4 73q-1.9-1.25-3.45-2.85l-1-1.15q-.95-2.3-.55-4.9.9 2.9 3.4 5.65l3.15 2.9 1.25.9 4.85 2.95v.1m12.3-4.35q-4.65-.75-8.5-2.65l-1.4-.7-1.3-.85-.3-.45q-1.6-2.45-2.2-4.25 1.3 1.6 3 3l1.05.85.8.6 1.2.8q3.25 2.05 7.65 3.55v.1" fill="#ffaa02"/><path d="m48.7 57.1 1.7-.3.05.15.05-.15 1.65.05L60.2 70.6q2.3 5.1-1.75 3.5l-10.4-2.65.4 4.7q.2 4.15-2.6 2.25-4.95-1.35-8.25-4.1l-1.1-1-.1-.1-5.1-4.75-.25-1.5.65 11.7-1.2.2q-5.35-1.65-8.1-3.4-1.05-.65-1.65-1.35l-.8-.95-.35-1-.3-1.45q-.4-2.75 1.25-4.9l.2.1q-1 1.25-1.05 2.65-.05 1.3.6 2.7l1 1.65.3.45 1.4.85 2.35 1.1 3.4 1.2h.15l1.1.25h.1l.7.15-.45-9.3q-.65-2.15-3.15-2.75l-2.8-.35q-1.6-.05-2.6.45l-.35.15-.15-.1q.65-.65 1.55-1.2 3.7-.15 6.05 1.15l.05.05v-.05q1.2.7 2.05 1.7v.05l.05.25.1-.25v-.1q.85-2.85 1.1-6.05 1.7-.95 7.9-1.55l1.45.25.9.85q.8-1.8 3.6-2.2l1.9-.6.7-.2m-16.1 5.95-.2 1.05q-.4 2.6.55 4.9l1 1.15q1.55 1.6 3.45 2.85l1.5.95q2.7 1.55 6.15 2.65l.2.05 1.25.4h.25v-.35l-.05-1.05v-.35q-.15-2-.7-4.15l-.1-.3-.05-.15-.2-.8-.7-2.1q-1.1-2.85-2.85-5.9l-1-1.65-3.9-.25h-.1q-1.9.1-3.15.7l-.75.4-.6 1.95m14.75-4.9q-2 .1-3 .9-1 .65-1.05 1.9v.4q-.05.85.35 2 .6 1.8 2.2 4.25l.3.45 1.3.85 1.4.7q3.85 1.9 8.5 2.65h.25l.8.1.7.05-.9-2-2.6-4.9-4.45-7.2h-.5l-1.45-.15-.5-.05-1.35.05" fill="#706a9a"/><path d="M21.05 75.45 19.15 74l1.6.1q.6.7 1.65 1.35h-1.35m10.65 3.2-.65-11.7.25 1.5.75 4.7q2.25.5 4.35.05l.1.1 1.1 1-5.55.7.25 1.9v.4l-.6 1.35" fill="#506b76"/><path d="m26.2 60.25-.25-.8q1.75 1.1 2.85 0l.15 5.5h-.05l-2-3.05-.2-.5-.5-1.15" fill="#542724"/><path d="m31 56.25 9.3-.5 6.6-1.5q1.1 1.45 1.8 2.85l-.7.2q-.8-.85-2-1.4-9.3 1.9-15 .35" fill="#9ea7c4"/><path d="m44.75 52.7-1.95.6.65-2.35 1.25 1.7.05.05m-6-.3 1 1.45-1.95-.15.95-1.3" fill="#e7d7d7"/><path d="M19.7 68.55q.05-1.4 1.05-2.65l4.95 6 1.65 2.3.55.9h.05l.8 1.3-6.35-3.75v-.05l-2.7-4.05m12.7-4.45.2-1.05L45.05 76.5l-4.85-2.95-1.25-.9-3.15-2.9Q33.3 67 32.4 64.1m11.25-.75q-.4-1.15-.35-2l14.05 10.8q-4.4-1.5-7.65-3.55l-1.2-.8-.8-.6-1.05-.85q-1.7-1.4-3-3" fill="#fff"/><path d="m21.45 65.1.35-.15q3.25 3.45 5.4 6.65l1.55 2.5.4.8.55 1.1.3.75-1.1-.25-.15-.1-.8-1.3h-.05l-.55-.9-1.65-2.3-4.95-6 .7-.8m11.15-2.05.6-1.95.75-.4 6.6 8.05 2 2.7.75.95 3.2 4.65-1.25-.4-.2-.15L32.6 63.05m25.8 9.3-.8-.1-.25-.1-14.05-10.8v-.4q.05-1.25 1.05-1.9L58.1 72.1l.3.25" fill="#e2ccfb"/><path d="M21.8 64.95q1-.5 2.6-.45l.65.7.2.2q2.05 2.35 3.35 5.9l.9 2.75.2.85.05.2.2 1.05.15.6H30l-.3-.75-.55-1.1-.4-.8-1.55-2.5q-2.15-3.2-5.4-6.65m12.15-4.25q1.25-.6 3.15-.7l.1.1 5.15 8.25 1.45 2.55.55 1.05 2.4 4.75v.35h-.25l-3.2-4.65-.75-.95-2-2.7-6.6-8.05m10.4-1.65q1-.8 3-.9l.8.85 1.75 1.95.25.3.85.95 2.9 3.65q2.35 3.15 4.2 6.25L44.35 59.05" fill="#726998"/><path d="M25.25 65.4q3.2-.1 4.15 5.75l.3 2.9.05.85h-.05l-.2-.85-.9-2.75q-1.3-3.55-3.35-5.9m21.45 9.9v.35l.05 1.05-2.4-4.75-.55-1.05-1.45-2.55-5.15-8.25q3.35.05 5.55 5.45l1.05 2.5 1.45 3.5 1.45 3.75m11.5-4.9.9 2-.7-.05-.3-.25q-1.85-3.1-4.2-6.25L51 62.2l-.85-.95-.25-.3L48.15 59q.4-.25 1.05 0l.4.15 1.25.95q1.8 1.65 4.3 5.5l3.05 4.8" fill="#aea6cb"/><path d="m24.4 64.5 2.8.35q2.5.6 3.15 2.75l.45 9.3-.7-.15-.15-.6-.2-1.05v-.2l-.05-.85-.3-2.9q-.95-5.85-4.15-5.75l-.2-.2-.65-.7M37.2 60l3.9.25 1 1.65q1.75 3.05 2.85 5.9l.7 2.1.2.8.05.15.1.3q.55 2.15.7 4.15l-1.45-3.75-1.45-3.5-1.05-2.5q-2.2-5.4-5.55-5.45V60m10.15-1.85 1.35-.05.5.05 1.45.15h.5l4.45 7.2 2.6 4.9-3.05-4.8q-2.5-3.85-4.3-5.5l-1.25-.95-.4-.15q-.65-.25-1.05 0l-.8-.85" fill="#89d4fe"/><path d="m31.3 68.45 5.1 4.75q-2.1.45-4.35-.05l-.75-4.7" fill="#512824"/><path d="m31 56.25-.55.1-9.35-5.55-5.3 2.55-5-3.9-2.05 1.3-1.85-2.8q-.75 4.65-1.85 8.3l-.65.45q-1.65 3-2.3 5.25l-.3 1.15q-.3 1.45-.05 2.55.3.95.9 1.75l.2.3q2.2 2.4 7.6 3.05l1.15.15 5.3 2.9.2.1 1.9.1h.15l1.9 1.45-5.25-.35-5.25-3.1-7.7-1.85q-4.2-3.55-2.2-8.95 1-2.85 3.65-6.2l.4-4.05Q-.7 34.15 33.45 33q20.3 5.5 11.25 19.65l-1.25-1.7-.65 2.35 1.95-.6v.1q4.25-.85 5.65 4l-1.7.3q-.7-1.4-1.8-2.85l-6.6 1.5-9.3.5m7.75-3.85-.95 1.3 1.95.15-1-1.45" fill="#692a25"/><path d="m46.55 19.8 5.6 4.6q4.95 5.95 1.65 13.3-.35 6.6-2.6 5.2l-1.25-1.25-.1.2-.55-.85-.65-1-2-3.15q.8-.15.8-.75l2.8 3.25.15.2.55.6.6.85 2.55-8.25q.15-2.95-2.25-5.55l-1.65-1.65-.7-.1q-2.5-.25-3.6 2.85l-.15.3q-1.35 2.2-.9 4.7l.9.8q-.65 0-.5.55v.05l-.8-1-4 10.05-6.4-1.9.45 1.4-1.25-.9-.6-1.45 2.25.7 4.05.3 1.35.65.45-1q2.35-5.35 5.8-21.75M14.65 25l1.4.4 3.3.1 1.4.75.8-.95Q24.6 21 26.4 13.55h.1q.85 2.2-1.95 7.9L21.6 27.4l.1 1 .9 3.65q.65 1.9 1.65 4.2v1l-.35-.35q-2.65 5.15-6.25 9.35l-3.5-.85-2.05-.95 1.2-.1h.85l.1.05 2.55.85 1.1-1.05.4-.45q3.35-3.6 4.9-7.85l-.1-.15q-1.95-3.2-2.35-7.05l-.1-1.25-4.6-1.85-1.4-.6" fill="#c33529"/><path d="m33.25 42.35.3.45-5.25 5.1-1-.55q-3.2-1.7-5.15-.95l-1.1-1.15v.05l-4 2.05-1.1.95q-.6.8-.45 1.95l-5.35-5 1.6 2.55-.5.85q-1.8-2.4-2.9.2-1.3-1.15-3.05-4.25.05-13.55 4.35-24l.1-.25 3.95 1.95-1.1-.3q-2.35-.85-1.8.95l1.9 1.25 1.95.8 1.4.6 4.6 1.85.1 1.25-9.3-3.3q.25 9.4 2.05 16.95l-3.65-.45q-3.25 1.45 1.4 2.4l.85.15 2.05.95 3.5.85q3.6-4.2 6.25-9.35l.35.35q2.3 2.05 8.05 3.45l.35.2.6 1.45" fill="#9c2318"/><path d="m49.85 41.85-4.5 9.6-8.9-6.7 7.7 4.6 1.25.75 3.9-9.1.55.85" fill="#933128"/><path d="m46.35 19.65.2.15q-3.45 16.4-5.8 21.75 1.45-5.8 1.45-9.85l-.3-.6q.35-8.05 4.45-11.45" fill="#e4574d"/><path d="m9.75 20.35.4-1.1 5.65-1.1 1-.65q3.4-2.35 5.35-5.55 2.3-2.7 3.65-1.3l.2.25.55 1.8-.1.75-.05.1-.45.8-.1.2q-5.3 9.9-7.65 9.15l-.25-.05-1.65-.55-2.6-.8-3.95-1.95" fill="#e5634b"/><path d="M18.2 23.7q2.35.75 7.65-9.15l.1-.2.45-.8Q24.6 21 21.55 25.3l-.2-.2-3.15-1.4" fill="#fa9396"/><path d="M10.15 19.25 22.3 0l24.05 19.65q-4.1 3.4-4.45 11.45-2.05-3-14.4-11.9l-.05-.05v.05q-1.4 3.85-5.85 8.2l2.95-5.95q2.8-5.7 1.95-7.9l-.05-.1.1-.75-.55-1.8-.2-.25q-1.35-1.4-3.65 1.3-1.95 3.2-5.35 5.55l-1 .65-5.65 1.1" fill="#982218"/><path d="M33.55 42.8q.7 1.3-1.15 4.15l-2.6 3.3Q26.25 49 23.95 47.6l-1.8-1.2q1.95-.75 5.15.95l1 .55 5.25-5.1m-12.5 2.5q-.6 1.55-1.65 2.7-1.4 1.65-3.65 2.5l-.25-.25q-.15-1.15.45-1.95l1.1-.95 4-2.05m-9.8 3.35-.05.05-.1.25q-.95 2.1-2.3 1.45-.8-1-.5-1.45l.05-.05v-.05q1.1-2.6 2.9-.2M13.7 22.3l2.6.8 1.65.55.25.05 3.15 1.4-2 .4-3.3-.1-1.4-.4-1.95-.8-1.9-1.25q-.55-1.8 1.8-.95l1.1.3m2.5 1.8-4.95-1.75q1.25 1.45 4.9 2.15l2 .3 1.45.15-2.15-.5-1.25-.35m2.1 19.65-.4.45-3.65.15h-.95l-1.2.1-.85-.15q-4.65-.95-1.4-2.4l3.65.45.9.15 1.05.25q1.65.4 2.85 1m5.95-6.5v-1q.35-1.5 3.25-.4h.05l1 .65q4.65 2.55 10.25 5l.7.3-.55.1-4.05-.3-2.25-.7-.05-.15-.3-.05q-5.75-1.4-8.05-3.45m23.2-1.15q0 .6-.8.75l-.05-.1-.5-.55q-.55-.7-.8-1.4v-.05l-.05-.1q-.15-.55.5-.55h.05l.9.45q1.2.7.65 1.5l.1.05m-1.15-.5.35.15-.15-.6q-.2-.45-.55-.15l.35.6m-8.1 9 .25-.2q.85-.4 3.65 1.4v.3l-.3.9-.25.35-.2.2-1.85-1.25q-.95-.8-1.3-1.7m1.35.65-.1-.05 1.1 1q.3.25.7.35l.15.05-.3-.4-1.55-.95M26.2 36.3q-.9-.1-.95.6 2.6 1.95 7.8 3.25l3.35.7-4.95-1.95q-3-1.25-5.25-2.6m-6.3 10q-1.75.7-3 1.9l-.95 1.05q1.55-.05 2.75-1.15l1.2-1.8m5.55 1.2-1.05-.65.7.7q1.4 1.1 4.5 1.55l3.65-5.05-3.1 3.05q-.85 1-1.15 1.6-1.9-.3-3.55-1.2m-11.3-17.35q.8-1.3 1.6-1.15.6.15 1.2 1.1l-1.3-.15-1.5.2M9.2 48.7l-.15.2-.05.2.2.4q.2.2.45.2t.4-.2l.25-.4-.1-.3-.15-.1-.4-.2q-.25 0-.45.2m4.45-4.9h.65l2.6-.1-1.95-.65-.55-.15-.85-.2q-1.85-.3-3.35-.05l-.25.05-.5.1q.35.55 1.65.8l2.05.2h.5" fill="#d06b01"/><path d="m21.7 28.4-.1-1q4.45-4.35 5.85-8.2h.05q7.8 10.75 11.3 22.3-5.6-2.45-10.25-5l-1-.65-.25-.15-1.55-1.2q-2.8-2.5-4.05-6.1" fill="#e25446"/><path d="M27.5 19.2q12.35 8.9 14.4 11.9l.3.6q0 4.05-1.45 9.85l-.45 1-1.35-.65.55-.1-.7-.3q-3.5-11.55-11.3-22.3" fill="#9b2219"/><path d="M20.75 28.7q.4 3.85 2.35 7.05v.05q-4.35 4.75-7.65 6.95l-1.05-.25-.9-.15q-1.8-7.55-2.05-16.95l9.3 3.3m-6.6 1.45 1.5-.2 1.3.15q-.6-.95-1.2-1.1-.8-.15-1.6 1.15" fill="#e55c4a"/><path d="M23.2 35.9q-1.55 4.25-4.9 7.85-1.2-.6-2.85-1 3.3-2.2 7.65-6.95l.1.1m1.05.35q-1-2.3-1.65-4.2l-.9-3.65q1.25 3.6 4.05 6.1l1.55 1.2.25.15h-.05q-2.9-1.1-3.25.4m-2.7-10.95-.8.95-1.4-.75 2-.4.2.2" fill="#f68682"/><path d="m36.45 44.75-1.95-1.5-.45-1.4 6.4 1.9 4-10.05.8 1v.1h.05q.25.7.8 1.4l.5.55.05.1 2 3.15q-.5 3.15-1.85 5.7l-2.1 3-.05.15-.25.2-.25.3-7.7-4.6m13.8-5.4-2.8-3.25-.1-.05q.55-.8-.65-1.5l-.9-.45h-.05l-.9-.8q-.45-2.5.9-4.7l.15-.3q1.1-3.1 3.6-2.85 2.6 9.3.75 13.9M38.2 44.6q.35.9 1.3 1.7l1.85 1.25.2-.2.25-.35.3-.9v-.3q-2.8-1.8-3.65-1.4l-.25.2" fill="#a7291d"/><path d="m49.5 25.45.7.1 1.65 1.65q2.05 4.55-.9 12.95l-.55-.6-.15-.2q1.85-4.6-.75-13.9" fill="#de5950"/><path d="M51.85 27.2q2.4 2.6 2.25 5.55L51.55 41l-.6-.85q2.95-8.4.9-12.95M48.65 40l.65 1-3.9 9.1-1.25-.75.25-.3.25-.2.05-.15 2.1-3q1.35-2.55 1.85-5.7" fill="#90d0fc"/><path d="m16.2 24.1 1.25.35 2.15.5-1.45-.15-2-.3q-3.65-.7-4.9-2.15l4.95 1.75m30.1 11.5-.35-.6q.35-.3.55.15l.15.6-.35-.15m-6.75 9.65 1.55.95.3.4-.15-.05q-.4-.1-.7-.35l-1.1-1 .1.05M26.2 36.3q2.25 1.35 5.25 2.6l4.95 1.95-3.35-.7q-5.2-1.3-7.8-3.25.05-.7.95-.6m-6.3 10-1.2 1.8q-1.2 1.1-2.75 1.15l.95-1.05q1.25-1.2 3-1.9m5.55 1.2q1.65.9 3.55 1.2.3-.6 1.15-1.6l3.1-3.05-3.65 5.05q-3.1-.45-4.5-1.55l-.7-.7 1.05.65M9.2 48.7q.2-.2.45-.2l.4.2.15.1.1.3-.25.4q-.15.2-.4.2t-.45-.2l-.2-.4.05-.2.15-.2m4.4-4.9h-.45l-2.05-.2q-1.3-.25-1.65-.8l.5-.1.25-.05q1.5-.25 3.35.05l.85.2.55.15 1.95.65-2.6.1h-.65v-.05l-.05.05" fill="#eeca5c"/></g><g id="R" fill-rule="evenodd"><path d="m52.4 30.15 1.25 9.25 2.3 2.75q4.6 7.35-11.55 6.75-5.35 2.65-10.65 2.45l.4-2.75v-.1q3.35.1 6.85-.85 5.8-.15 10.45-2.85 1.05-1.35-.05-3.65l-1.3-5.05q-.15-6.5-3.85.05l-5.1-4.2q-4.1 1.9-8.75 2.2l-1.5.05q-5.6-.3-7.9.8-1.3-1.9-2.75-2.25L19 33.2l-.95.5-.55.25q-.95.25-1.8.6.25-9.2 6.3-9.25 20.25-2 30.4 4.85" fill="#542724"/><path d="M32.4 34.15q4.65-.3 8.75-2.2l5.1 4.2q3.7-6.55 3.85-.05l1.3 5.05q1.1 2.3.05 3.65Q46.8 47.5 41 47.65q-3.5.95-6.85.85h-.05l-.05-.15q-1.15-1.9-3.55-3.3l-.7-.45-.6-.1h-1q-.65-3.05-2.05-4.6l3.35 2.4q6.85.55 12.9-2.8l-2.7-3.3-.3-.1-7-1.95" fill="#604357"/><path d="m32.75 53.65 5 .2 6.5-1.6-1.8-.25 3.25-.45 12-.65q1.95-3.55 1.3-5.55l-4.05-5.8-1.95-9 1.8 1.5 2.1 7.8q6.45 6.05 2 12.6l-4.95.6-7-.15q-5.15 2.35-10.9 2.9l-3.5-.85-1.6.9 1.8-2.2" fill="#532822"/><path d="m26.15 39.9-.3-.25q-1.9-1.8-5.1-1.3l-.25.05q-1.45.2-1.8 1.25-.85-.3-2.15-1.8h-.05q2.5-2.65 6.15-.7l9-1.8 7.75.75.3.1 2.7 3.3q-6.05 3.35-12.9 2.8l-3.35-2.4" fill="#886d80"/><path d="M15.7 34.55q.85-.35 1.8-.6l.55-.25.95-.5 1.25-.45Q21.7 33.1 23 35q2.3-1.1 7.9-.8l1.5-.05 7 1.95-7.75-.75-8.75.35q-3.1-1.15-4.7-.55l-4.85 2.5h-.3l-2.05-.1q2.1-2 4.7-3" fill="#5e6669"/><path d="m16.5 37.85-3.15-.2 4.85-2.5q1.6-.6 4.7.55l8.75-.35-9 1.8q-3.65-1.95-6.15.7" fill="#e0b277"/><path d="m32.75 53.65-1.8 2.2q-2.35 1.95-6.3 2.55-4.2 1.25-3.2-2.8l.1-.25q-3.3.15-8.65 3.35-3.05 1.1-2.9-2.55l.7-3.05-6.55 1.3q-5.45 1.3-3.7-2 4.8-14.1 8.4-15l2.15.15 2.05.1h.3l3.15.2h.05q1.3 1.5 2.15 1.8l-.15.15-.65.5v.1q-1.85 1.8-2.35 3.65h-.05q-.9 1.45-1.55 3.15l-.75 1.95-.5 1.9-.35 1.7-.2 1.15-.3 2.9-.05.3q4.8-2.25 10.2-3.5l.5-2.25.25-2.15v-.05l.15-1.65v-.25l.05-.55.15-.05 1.45-.35q1.9-.9 3.75-1.5l.9-.3.6.1.7.45q2.4 1.4 3.55 3.3l.05.15.05.1-.4 2.75-.5 1.4-.5.9m-17.8-10.2q1.3-1.8 2.95-3.15l-.05-.05-1.35-1.6h-.3q-2.75-.55-5.9.05l-.15-.05Q7.6 36.85 5 45.05l-1.9 5.4-.1.25-.55 1.7-.2.55-.05.05h.2l8.8-1.65.6-1.9.8-1.75q1-2.4 2.35-4.25m15 2.2-.8-.6-3.9 1.7q-.6.05-1.05 1.7l-.1.45-.4 1.95q-.3 1.65-.5 4.05l-.05.5-.1 1.15v.25l-.05.25.55-.2.9-.25 2.25-.75 4.6-1.45.75-2.25.2-1.1.15-3.1-.05-.25v-.1l-1.2-.9-1.2-1.05" fill="#7d628d"/><path d="m53 30.55 1.95 9 4.05 5.8q.65 2-1.3 5.55l-12 .65-3.25.45 1.8.25-6.5 1.6-5-.2.5-.9q5.4.5 10.5-1.75 7.8.15 13.15-1.85 2-2.85-.95-7l-2.3-2.75-1.25-9.25.6.4" fill="#90d1f9"/><path d="M55.95 42.15q2.95 4.15.95 7-5.35 2-13.15 1.85-5.1 2.25-10.5 1.75l.5-1.4q5.3.2 10.65-2.45 16.15.6 11.55-6.75" fill="#624259"/><path d="m24.6 39.3-.05-.05-2.85-.05q-.1-.55-.95-.8v-.05q3.2-.5 5.1 1.3l.3.25q1.4 1.55 2.05 4.6-2.3.2-5.1 2.15l-.15.05-.05.55v.25l-.15 1.65v.05Q18.3 51.65 12.9 56l-.1-.15 2.55-3.65 1.5-1.95L19 48q1.35-1.45 2.75-2.4 2.75-1.9 5.4-2-.2-1.05-.95-2.2l-1.6-2.1m-9.65 4.15Q13.6 45.3 12.6 47.7q-5.45 2-8.9 4.35L2.4 53l-.15-.05.2-.55q7.2-6.9 12.5-8.95m17.45 4.5-.15 3.1q-3.6 3.15-7.8 5.55l-.9.25q8.3-7.7 8.85-8.9" fill="#726996"/><path d="M22.5 51.35 22 53.6q-5.4 1.25-10.2 3.5l.05-.3q.95-2.35 2.05-4.35L15 50.6l1.5-2.2 2.7-2.9 1.5-1.3q2.55-1.9 5.5-2.8.75 1.15.95 2.2-2.65.1-5.4 2-1.4.95-2.75 2.4l-2.15 2.25-1.5 1.95-2.55 3.65-.3.45.4-.3q4.85-2.9 9.6-4.65M17.9 40.3q-1.65 1.35-2.95 3.15-5.3 2.05-12.5 8.95L3 50.7l.2-.15Q9.9 43 17.85 40.25l.05.05m13.25 6.4 1.2.9v.1l.05.25q-.55 1.2-8.85 8.9l-.55.2.05-.25v-.25l8.1-9.85m.9 5.45-.75 2.25-4.6 1.45 5.35-3.7" fill="#e0acd2"/><path d="m22.75 49.2-.25 2.15Q17.75 53.1 12.9 56q5.4-4.35 9.85-6.8M12.6 47.7l-.8 1.75q-3.9 1.05-8.1 2.6 3.45-2.35 8.9-4.35m19.65 3.35-.2 1.1-5.35 3.7-2.25.75q4.2-2.4 7.8-5.55" fill="#aba7ca"/><path d="m11.8 49.45-.6 1.9L2.4 53l1.3-.95q4.2-1.55 8.1-2.6" fill="#e3b6e1"/><path d="M21.1 40.95q1.65-1.05 3.5-1.65l1.6 2.1q-2.95.9-5.5 2.8l-1.5 1.3-2.7 2.9-1.5 2.2-1.1 1.85q-1.1 2-2.05 4.35l.3-2.9.5-1.15.7-1.85 1-2 1.35-2.35q1-1.5 2.1-2.7l1.75-1.25 1.15-1.35.4-.3m-4.9-2.3h.3l1.35 1.6Q9.9 43 3.2 50.55l-.1-.1 2.8-5.05.05-.1q1.75-.75 2.65-3.55l1.9-1.55q2.7-1.9 5.7-1.55m7 16.25 1.45-5.75q.1-.65 1.95-1.75l.9-.55 1.05-.5 1.4-.7 1.2 1.05-8.1 9.85.1-1.15.05-.5" fill="#fefefc"/><path d="m24.55 39.25.05.05q-1.85.6-3.5 1.65.9-.75.6-1.7v-.05l2.85.05M12.15 53.9l.2-1.15.35-1.7.5-1.9.75-1.95q.65-1.7 1.55-3.15h.05l2.25-.2q-1.1 1.2-2.1 2.7l-1.35 2.35-1 2-.7 1.85-.5 1.15M3.1 50.45l1.9-5.4q-.1.85.9.35l-2.8 5.05m7.2-11.75q3.15-.6 5.9-.05-3-.35-5.7 1.55.4-.6-.2-1.45v-.05m12.9 16.2q.2-2.4.5-4.05l.4-1.95.1-.45q.45-1.65 1.05-1.7l3.9-1.7.8.6-1.4.7-1.05.5-.9.55q-1.85 1.1-1.95 1.75L23.2 54.9" fill="#fa0"/><path d="M21.7 39.25q.3.95-.6 1.7l-.4.3-1.15 1.35-1.75 1.25-2.25.2q.5-1.85 2.35-3.65l.65-.6.15-.15q.35-1.05 1.8-1.25h.25q.85.25.95.8h-.05l.05.05M5 45.05q2.6-8.2 5.15-6.4l.15.1q.6.85.2 1.45l-1.9 1.55q-.9 2.8-2.65 3.55l-.05.1q-1 .5-.9-.35m15.55-5.85q-.9-.15-3.55 3.75 1.2-.5 2-1.9 2.3-.25 1.55-1.85m-10.95.6q.45-.75-.35-.75-1.65-.1-3.4 5.75 1.5-2.65 3.75-5" fill="#d36c03"/><path d="M20.55 39.2q.75 1.6-1.55 1.85-.8 1.4-2 1.9 2.65-3.9 3.55-3.75m-10.95.6q-2.25 2.35-3.75 5 1.75-5.85 3.4-5.75.8 0 .35.75" fill="#f1d67b"/><path d="m10.7 30.85 1.8-13.65q-2.55.55-3.15-1.4 2.2-9 13.65-13.7l.1-2.1 6.55 1.3L22.9 4q-7.75 2.8-11.35 10.65l-.75 1.6 1.2.05 1.7.1-.45 3.35-1.15 9.3q-1.1.2-1.4 1.8" fill="#c13327"/><path d="m53.65 17.85.95 1.95H37.9l-8.1-.05H13.25l.45-3.35h1.25l8.25.35 30.45 1.1" fill="#a4281c"/><path d="m29.65 1.3 1.85.5-8.6 3.4q-6.25 4.1-7.55 8.5l1.6.95q-2.4-.25-5.4 0Q15.15 6.8 22.9 4l6.75-2.7" fill="#f78988"/><path d="m12 16.3-1.2-.05.75-1.6q3-.25 5.4 0 5.15-.15 6.25 2.1l-8.25-.35q8.45.1 6.2-.6-10.6-.5-9.15.5" fill="#d56b00"/><path d="m13.7 16.4-1.7-.1q-1.45-1 9.15-.5 2.25.7-6.2.6H13.7" fill="#f0cb60"/><path d="M31.5 1.8q16.1 4.6 22.15 16.05l-30.45-1.1q-1.1-2.25-6.25-2.1l-1.6-.95q1.3-4.4 7.55-8.5l8.6-3.4" fill="#e36346"/><path d="m27.45 19.75-4.45 7-.25.1-1.25.25-1.15.25-3.4.7q-4.35.55-3.1-8.3h13.6" fill="#e35746"/><path d="m12.1 29.05 1.15-9.3h.6q-1.25 8.85 3.1 8.3l-4.85 1" fill="#e96e67"/><path d="m13.2 31.5-2.6.2.1-.7v-.15q.3-1.6 1.4-1.8l4.85-1 3.4-.7q-8.05 2.3-8.65 3.45 3.4.15 9.8-3.7l1.25-.25q-1.3 1.15-3.2 2.2l-2.85 1.3-3.5 1.15" fill="#df992a"/><path d="m20.35 27.35 1.15-.25q-6.4 3.85-9.8 3.7.6-1.15 8.65-3.45" fill="#efcd5f"/><path d="m54.6 19.8 1.35 3.75q-1.15 4.85-3.4 8.3L49 29l-3 2.55-4.75-3.25-9.9 1.6-4.4 1.75-2.6-2.95-7.9 6.2-.55-3.65-2.7.25 3.5-1.15.65 3.05 6.55-4.9 1.15-1 1.9 3.35 3.4-2.6v-.05h-.05l7.6-8.4h16.7" fill="#8c3023"/><path d="M25.05 27.5h.05q1.45 1.7 5.2.7l.05.05-3.4 2.6-1.9-3.35" fill="#f28483"/><path d="m29.8 19.75 8.1.05-7.6 8.4q-3.75 1-5.2-.7l-.1-.15 4.8-7.6" fill="#e05141"/><path d="M27.95 19.75h1.85l-4.8 7.6q-.85-.1 0-1.8l2.95-5.8" fill="#a72819"/><path d="M27.45 19.75h.5L25 25.55q-.85 1.7 0 1.8l.1.15h-.05l-1.15 1-.2-.8-4.15 1.35q1.9-1.05 3.2-2.2l.25-.1 4.45-7" fill="#c3362c"/><path d="m19.55 29.05 4.15-1.35.2.8-6.55 4.9-.65-3.05 2.85-1.3" fill="#ae281f"/><path d="m55.95 23.55.8 3.6-3.3 5.45-.9-.75q2.25-3.45 3.4-8.3" fill="#af8694"/></g><g id="S"><path d="M47 25.45q2.85-3 6.3-4.9 7.45-1.45 12.65-4.85l.15-.15q4.95-3.3 7.7-1.1 2.7 2.2 10.2 3.35 3.9 7.15 7.5 12 1.15.9 9.95 4.8l1.25 3q-4.15 2.35-14.45 2.6-2.6-.5-20.7 12.7-8.9 6.8-20.05 6.5l2.25-1.25q4.8-2.5 8.5-6.3h.05Q76.8 40.3 75.05 24.5q-1.9-7.25-5.75-7.5l-13.2 6.25q-5.15 2.2-9.1 2.2" fill="#604357" fill-rule="evenodd"/><path d="M70.9 2.3h.45l12.8-.4q26.65 3.85 23.8 22.25l10.75 36.5-.05.05L53 89 41.85 61.95q2.55-.9 5.65-2.55 11.15.3 20.05-6.5 18.1-13.2 20.7-12.7 10.3-.25 14.45-2.6l-1.25-3q-8.8-3.9-9.95-4.8-3.6-4.85-7.5-12-7.5-1.15-10.2-3.35-2.75-2.2-7.7 1.1l-.15.15v-.05l-14.85 4.9Q57.3 14.7 70.9 2.3" fill="#542724" fill-rule="evenodd"/><path d="M36.5 3.35h.2L70.9 2.3Q57.3 14.7 51.1 20.55l-.2.2-4.85 4.7-5.6.6q-7.6 9.35-27.95 16.7-2.45 1.2-3.8 0l-4.6-9.2Q8.7 23.3 24.4 11.6l10.7-7.35q.65-.5 1.4-.9" fill="#0082a9" fill-rule="evenodd"/><path d="M2.8 48.25Q1.5 41.8 2.35 34.5l.6-4.65q.5-3.55 21.45-18.25Q8.7 23.3 4.1 33.55l-.1.55-.1.4Q2.75 40 3.6 46.15q-.6.8-.8 2.1" fill="#9fdde8" fill-rule="evenodd"/><path d="m36.7 3.35-.05-.15-.15.15h-.1q-.7.4-1.3.9L24.4 11.6Q3.45 26.3 2.95 29.85l-.6 4.65q-.85 7.3.45 13.75l.3 1.3v.1l.05.05q.2 1.05.55 2.1.35 1.15 1.05 2 2.1 2.95 7.1 3.65l-.1.3-4.7-1.15Q2.7 54.8 1.2 50.2-.65 45.05.35 34.1q.2-2.6 1.7-7.55 1.2-4.15 33.65-24Q42-.95 82.6.4l1.55 1.5-12.8.4h-.45L36.7 3.35" fill="#722b25" fill-rule="evenodd"/><path d="M46.05 25.45q-3.6 4.45-6.1 9.8-1.85 3.65-11.5 6.4-7 2.5-9.9 6.3-.7-1-1.8-1.75l-.75.05q-4.95 0-7.4-.8-3.6-1.15-5 .7-.85-6.15.3-11.65l.1-.4.1-.55 4.6 9.2q1.35 1.2 3.8 0 20.35-7.35 27.95-16.7l5.6-.6" fill="url(#o)" fill-rule="evenodd"/><path d="M65.95 15.7q-5.2 3.4-12.65 4.85-3.45 1.9-6.3 4.9l-.05.15q-3.65 3.9-6.3 9.6-3.05 4.3-8.85 5.9-8.6 2.75-13 7.2l-.25-.35q2.9-3.8 9.9-6.3 9.65-2.75 11.5-6.4 2.5-5.35 6.1-9.8l4.85-4.7.2-.2 14.85-4.9v.05" fill="#3fb7f6" fill-rule="evenodd"/><path d="M18.8 48.3q4.4-4.45 13-7.2 5.8-1.6 8.85-5.9 2.65-5.7 6.3-9.6l.05-.15q3.95 0 9.1-2.2L69.3 17q3.85.25 5.75 7.5Q76.8 40.3 58.3 51.85h-.05l-4.2 2.6-2.7 1.65-4.5 1.25-3.4.95-3.4.6q-6.75 1.6-6.6-2.65 3.25 4.4 13.15-2.45 2.2-3.65 6.35-5.35l-11.5 3.65Q23.6 56.45 16.75 56q1.65-1 2.75-3.15.5-2.6-.7-4.55" fill="#876e83" fill-rule="evenodd"/><path d="m11.75 57.75.1-.3q8.3 1.2 24.55-3.8l5.05-1.55 11.5-3.65q-4.15 1.7-6.35 5.35-9.9 6.85-13.15 2.45v-.55l-2.3.8q-.4 9.8 15.65 1.95l4.55-2.35 2.7-1.65 4.2-2.6q-3.7 3.8-8.5 6.3L47.5 59.4q-3.1 1.65-5.65 2.55Q30.9 65.9 29.9 56.2 19.75 59 11.75 57.75M46.8 52.1l.65-1.2-13.05 4.4q-.05 2.6 3.45 1.75 2.35-.65 6.35-2.8 1.65-.8 2.6-2.15" fill="#522721" fill-rule="evenodd"/><path d="M11.85 57.45q-5-.7-7.1-3.65 7.35 4.45 11.5 2.45l.5-.25q6.85.45 24.7-3.9l-5.05 1.55q-16.25 5-24.55 3.8" fill="#e4c181" fill-rule="evenodd"/><path d="m51.35 56.1-4.55 2.35Q30.75 66.3 31.15 56.5l2.3-.8-.15.4.15.15q-.15 4.25 6.6 2.65l3.4-.6 3.4-.95 4.5-1.25" fill="#e7bf81" fill-rule="evenodd"/><path d="M37.85 57.05q-.2-1.05 1.5-2.05l7.45-2.9q-.95 1.35-2.6 2.15-4 2.15-6.35 2.8" fill="#c21630" fill-rule="evenodd"/><path d="M46.8 52.1 39.35 55q-1.7 1-1.5 2.05-3.5.85-3.45-1.75l13.05-4.4-.65 1.2" fill="#9b2219" fill-rule="evenodd"/><path d="m4.3 50.45.6-1.4q1.55 1.3 4.1 1.05 2.6-1.85-.8-3.05l4.8-.45 1.4.05q3.55 4.45-1.1 5.9-4.65 1.45-9-2.1" fill="#804c00" fill-rule="evenodd"/><path d="m3.15 49.7-.05-.05q.55-6.25 6.35-3.3l3.55.25-4.8.45q3.4 1.2.8 3.05-2.55.25-4.1-1.05l-.6 1.4-.2 1.45q-.65-1-.95-2.2" fill="#fc9f98" fill-rule="evenodd"/><path d="m4.1 51.9.2-1.45q4.35 3.55 9 2.1 4.65-1.45 1.1-5.9l1.45.1.7.2q.45.1.85.35 3.25 5.2-1.75 7.7-4.8 1.5-10.25-1.6-.8-.7-1.3-1.5" fill="#510104" fill-rule="evenodd"/><path d="M17.4 47.3q1.8 1.1 1.7 5.35-2.65 4.45-7.6 3.4-3.95-.75-6.1-2.65 5.45 3.1 10.25 1.6 5-2.5 1.75-7.7" fill="#fddc2b" fill-rule="evenodd"/><path d="M4.75 53.8q-.7-.85-1.05-2-.35-1.05-.55-2.1.3 1.2.95 2.2.5.8 1.3 1.5 2.15 1.9 6.1 2.65 4.95 1.05 7.6-3.4.1-4.25-1.7-5.35-.4-.25-.85-.35l-.7-.2.15-.5.75-.05q1.1.75 1.8 1.75l.25.35q1.2 1.95.7 4.55Q18.4 55 16.75 56l-.5.25q-4.15 2-11.5-2.45" fill="#532724" fill-rule="evenodd"/><path d="M3.1 49.65v-.1l-.3-1.3q.2-1.3.8-2.1 1.4-1.85 5-.7 2.45.8 7.4.8l-.15.5-1.45-.1-1.4-.05-3.55-.25q-5.8-2.95-6.35 3.3" fill="#506b74" fill-rule="evenodd"/><path d="m48.25 30.45-.6.6q-2.35 2.65-3.2 5.5l-.4 1.9q-2.3-11.35 28.15-21.4-.95 1-1.85 1.1l-1.9.7-.5.2-.25.1-.65.25-4.25 1.8-1.4.65q2.25.55 3.2 2.75l-2.25-.35-.15.95-.15-.05Q62.2 22.6 61 22q-3.5 1.65-6.3 3.4-4 2.45-6.45 5.05" fill="#0a4662" fill-rule="evenodd"/><path d="m67.05 19.4.65-.25Q67.9 30 63.75 35.5q-2.2 2.85-5.5 4.25-5.75 3-12.65-.35l-.8-1.15-.05-.45q.2-.25 1.55.65 2.2 1.75 5.35 1.65l.65-.05 1.55-.15 2.2-.6h.05l4.4-1.9 1.95-1.85 2.3-3.4 1.2-3 .3-.95q.95-3.85.8-8.8" fill="#0a4563" fill-rule="evenodd"/><path d="m67.7 19.15.25-.1.5-.2q.6 11.25-4.7 16.65Q67.9 30 67.7 19.15" fill="#8ed1fe" fill-rule="evenodd"/><path d="M44.45 36.55q.85-2.85 3.2-5.5-.4 1.85-.2 3.35-1.25 1.5-1.2 2.95.7 1.75 5.4 2.75-3.15.1-5.35-1.65-1.35-.9-1.55-.65l-.3-1.25" fill="#a7a8c7" fill-rule="evenodd"/><path d="M47.45 34.4q.5 4.5 6.4 5.5l-1.55.15-.65.05q-4.7-1-5.4-2.75-.05-1.45 1.2-2.95m14.45-.85q.55 2.1-1.35 3.25-1.15.5-2.3-.3-1.2-1.45-.4-2.8l1.65-1.4q2.05-.2 2.4 1.25" fill="#fffffd" fill-rule="evenodd"/><path d="m47.65 31.05.6-.6q-.35 2.15-.05 3.75.3 1.9 1.45 3.1 1.95 2.1 6.4 2l-2.2.6q-5.9-1-6.4-5.5-.2-1.5.2-3.35M64.6 24.6q-.95-2.2-3.2-2.75l1.4-.65 1.4 1.25q1.85 2.1 1.95 4.85l-.2 1.85-1.2 3q.4-2.5.4-4.35v-.2l-.2-1.6-.35-1.4" fill="#084361" fill-rule="evenodd"/><path d="m62.8 21.2 4.25-1.8q.15 4.95-.8 8.8v-.9l-.2-5.7-1.85.85-1.4-1.25" fill="#b1abcf" fill-rule="evenodd"/><path d="M54.7 25.4q2.8-1.75 6.3-3.4 1.2.6 1.05 3.15-1.35 3.6-4.7 3.35-2.25-.25-2.65-3.1m9.5-2.95 1.85-.85.2 5.7h-.1q-.1-2.75-1.95-4.85" fill="#fff" fill-rule="evenodd"/><path d="M48.25 30.45q2.45-2.6 6.45-5.05.4 2.85 2.65 3.1 3.35.25 4.7-3.35l.15.05-.1.3v.3l-.3 1-.3.55-.9.9q.25 2.3-1 3.5l-1.15.7-1.25.85q-3.35 1.95-5.6-1.25l-.2-.35-.05.05-.7-1.35-.85 1.25-1.6 2.55q-.3-1.6.05-3.75" fill="#094462" fill-rule="evenodd"/><path d="m62.2 25.2.15-.95 2.25.35.35 1.4-2.05-.15q-.55-.4-.8-.35l.1-.3" fill="#0b5a83" fill-rule="evenodd"/><path d="m64.95 26 .2 1.6-.1.05q-.45-.7-1.3.35l-1.1 3.1-.15-.05q.85-2.05.4-5.2l2.05.15" fill="#0d989f" fill-rule="evenodd"/><path d="M56.05 39.3q-4.45.1-6.4-2-.45-2.25 1.7-1.4 2.3 1.65 4.7 1.65-7.05-1.8-6.2-5.35l.2-.05q1.5 4.55 7.2 4-.55-.5-.35-1.75l.3-1.1 1.25-.85 1.15-.7.9-.15q.55.1 1.05.5l.2.2h.05l.1.2.75-1.4 1.1-3.1q.85-1.05 1.3-.35l.1.15q0 1.85-.4 4.35l-2.3 3.4-1.95 1.85-4.4 1.9h-.05m5.85-5.75q-.35-1.45-2.4-1.25l-1.65 1.4q-.8 1.35.4 2.8 1.15.8 2.3.3 1.9-1.15 1.35-3.25" fill="#38e687" fill-rule="evenodd"/><path d="M49.65 37.3q-1.15-1.2-1.45-3.1l1.6-2.55.15.15-.1.4q-.85 3.55 6.2 5.35-2.4 0-4.7-1.65-2.15-.85-1.7 1.4" fill="#0d9aa1" fill-rule="evenodd"/><path d="M56.9 34.4q-.2 1.25.35 1.75-5.7.55-7.2-4l1.3-.4.25.3q.65 4.5 5.3 2.35" fill="#0f989e" fill-rule="evenodd"/><path d="M59.6 31.75q1.25-1.2 1-3.5l.9-.9q.05 2.5-1 4.25l-.9.15m-2.4 1.55-.3 1.1q-4.65 2.15-5.3-2.35 2.25 3.2 5.6 1.25m-5.85-1.55-1.3.4-.1-.35-.15-.15.85-1.25.7 1.35" fill="#1478aa" fill-rule="evenodd"/><path d="M62.1 25.8v-.3q.25-.05.8.35.45 3.15-.4 5.2l-.7 1.25h-.05l-.2-.2q1.6-2.2.75-5.85l-.2-.45" fill="#38e589" fill-rule="evenodd"/><path d="m61.5 27.35.3-.55.5-.55q.85 3.65-.75 5.85-.5-.4-1.05-.5 1.05-1.75 1-4.25" fill="#0e99a0" fill-rule="evenodd"/><path d="M61.9 33.55q.55 2.1-1.35 3.25-1.15.5-2.3-.3-1.2-1.45-.4-2.8l1.65-1.4q2.05-.2 2.4 1.25z" fill="none" stroke="#0f0" stroke-linecap="round" stroke-linejoin="round" stroke-width=".25"/></g><g id="T" fill-rule="evenodd"><path d="m32.7 8.5 3.85 4.25q2 2.5 3.1 4.7l-9 7.1-8.4-10.6L14.9 24.3 8 17.45q2-4.1 5.2-7.9l.35-.4L14.6 8l.3-.3.6-.65.9-.85 1.35-1.35.55-.5.65-.6L22.7.7l.55-.45L28.7 4.8l4 3.7m20.7 62-.3.85.1.15-.95.55q-2.85 2.15-6.6 3.55-2.6 1.5-3.9-.3l-.1-.05-.55-.55q.8-.55 1.4-.8 6.45-3.25 9.25-4.05l.65-.05q1.15-.2 1 .7m.9.35 1.5-.9-1.5.95v-.05M24.35 69.3l-6.75 4.2q-4.65 1.9-6.6 3.35l-1.15-.15-6.6-7.7v-.75l1.8-.05.1.05.85.5 5 5.7 11.5-6.1.7-.4q1.85-.1 1.15 1.35m7.55-46.7 6.55-5.25Q33.5 9.4 23.05 1.05l-.1.15Q17 6 13.15 10.85q-2.45 2.95-4.1 5.95l-.05.1 3.95 4.25.05.05 2 2.15q2.65-5.95 7.15-10.65l.25.15 8.3 10.75 1.2-1M14.35 35.8q2.25 2.45 5.3 4.7v.2q.35.55 1.75-.65l8.8-6 .7.1q-8.35 6.1-11.15 7.5-3.65-3.05-6.45-6.1l1 .2.05.05m5.85 7.85.05-.6.05-.8.15.7.2 1.05.75 6 .05 1.25-.2-.9q-.9-3.5-1-5.9l-.05-.8m-6.7-.4.7.65q-.15 1.05 3.35 4.15 1.85 1.5 3.35 3.55.9.15 2.9-1.4 3.3-1.7 11.65-5.35v-.05l1.1.15L21.5 52l.6 1.85q1.3 4.55 2.6 11.85-2.25-6-3.2-11.8l-.2-1.35q-5.45-4.35-8.4-9.2l.6-.1m29.3 31.4q-.45 1.25 10.1-4.1-5.35 1.3-10.1 4.1m-19.2-5.6q-7.4 2.2-12.4 6.2 1.3.4 12.4-6.2M10.8 75.5q-3.9-4.65-6.7-6.85 2.35 3.6 6.25 7.5.7-.05.45-.65" fill="#d26705"/><path d="m53.3 2.5.9.5.15 1.15.1 1.3.2 2.4 2 24.3Q59.1 51.1 58.1 68.5l-2.3 1.45-1.5.9-1.1.65-.1-.15.3-.85 3.9-2.85q.45-17.3-1.8-35.5L53.65 7.6l-.15-2.4-.15-1.6-.05-1.1" fill="#566970"/><path d="m53.2 71.5 1.1-.65v.05l-.05 6.3-11.2-.6q-12.1.35-14.1-.7l4-5.25h-.05Q31.6 69.4 31.6 69h.05l1.4.2 9.45 4.7q-.6.25-1.4.8l.55.55.1.05q1.3 1.8 3.9.3 3.75-1.4 6.6-3.55l.95-.55m-20.15.35L30 75.6l11.2.55-8.15-4.3m20.5.45-6.6 4 6.4.6.2-4.6M32.5 69.8q2.6 2.35 6.5 2.95-5.2-1.9-6.5-2.95" fill="#d36a00"/><path d="m38.5 75.15-5.25-2.4-1.7 1.9.6.45 6.35.05m-5.45-3.3 8.15 4.3L30 75.6l3.05-3.75M52.8 73.4l-3.55 2.55 3.45.3.1-2.85m.75-1.1-.2 4.6-6.4-.6 6.6-4M42.8 74.65q4.75-2.8 10.1-4.1-10.55 5.35-10.1 4.1m-32 .85q.25.6-.45.65-3.9-3.9-6.25-7.5 2.8 2.2 6.7 6.85m12.8-6.45q-11.1 6.6-12.4 6.2 5-4 12.4-6.2m8.9.75q1.3 1.05 6.5 2.95-3.9-.6-6.5-2.95" fill="#eecd62"/><path d="m38.5 75.15-6.35-.05-.6-.45 1.7-1.9 5.25 2.4" fill="#fdfdfb"/><path d="m52.8 73.4-.1 2.85-3.45-.3 3.55-2.55" fill="#fff"/><path d="m3.25 69-1.9-1.95q-2.8-15.2.3-35.35l2.5-27.1.05-.3.05-.7.3-3.15.4-.05-.3 3.25-.05.65v.35L4.4 6.5 2.65 26.4l-.5 5.3v.15q-3 18.6-.3 34.7l1.4 1.7V69" fill="#4f6d75"/><path d="m52.45 11.05-.2-2.55-.05-1.35-.15-2.3-.1-2-.1-1 1.45.65.05 1.1.15 1.6.15 2.4 1.85 24.55q2.25 18.2 1.8 35.5l-3.9 2.85q.15-.9-1-.7l3.15-1.4q.55-17.15-1.6-34.25v-.1l-.5-6.75h-.05l-.9-14.7v-.05l-.05-1.5m-50.3 20.8 1.5.95Q.4 65.25 5.05 68.2l-1.8.05-1.4-1.7q-2.7-16.1.3-34.7" fill="#fecd4d"/><path d="m24.5 26.45-.05-.05-.2-.05q-1.7-.75-3.55-.55-4.55 2.05-6.9 8.95l-2.4-.45 3.25-8.25 1.15.6 6.35-9.7 8.1 9.85 5.15-3q11.1 5.45 18 3.5l.2 3.15-9.25 2.5-.05-.1h-.25l-2.3.1-3.05.15-6.35-1.4q-3.7-5.55-7.85-5.25" fill="#3f4987"/><path d="m31.9 22.6-1.2 1-8.3-10.75-.15-.25-.1.05-.85-2.9.3-.35 10.3 13.2" fill="#9c6467"/><path d="M22.15 12.7q-4.5 4.7-7.15 10.65l-2-2.15-.05-.05q.55-1.4 1.4-2.85l.15-.2q2.35-4.05 6.8-8.35l.85 2.9v.05" fill="#e8851d"/><path d="M13.15 10.85Q17 6 22.95 1.2l-1.6 7.9.25.3-.3.35q-4.45 4.3-6.8 8.35l-1.35-7.25m4.55 18.5q1.3-1.2 2.5-1.3l-.55 12.45q-3.05-2.25-5.3-4.7l.05-.05q1.4-4.05 3.3-6.4M14.2 43.9l-.7-.65-3.75-7.15 10.5 8.35q.1 2.4 1 5.9L14.2 43.9m7.3 10q.95 5.8 3.2 11.8l1.35 4.1q-1.6-1.8-4.55-7.45l-9.35-17.7q4.7 5.35 9.35 9.25" fill="#fdff82"/><path d="M12.95 21.15 9 16.9l.05-.1q1.65-3 4.1-5.95l1.35 7.25-.15.2q-.85 1.45-1.4 2.85" fill="#f9af2c"/><path d="M52.2 7.15Q37.7 3.25 32.7 8.5l-4-3.7q11.85-7.75 23.15-2.95l.1 1q-7.3-3.5-14.85-.9-6.65 1.6-6.65 3.05l1.1-.1h.1l.85 1.35q7.65-4.1 18.9-1.55l.65.15.15 2.3" fill="#716998"/><path d="M31.65 4.85Q46.4-.95 51.4 4.7 40.15 2.15 32.5 6.25l-.85-1.35v-.05" fill="#e2cbff"/><path d="m52.05 4.85-.65-.15q-5-5.65-19.75.15l-.1.05-1.1.1q0-1.45 6.65-3.05 7.55-2.6 14.85.9l.1 2" fill="#fffeff"/><path d="M52.45 11.05q-10.25-3.1-15.2.7L34.5 8.7q8.6-4.7 17.75-.2l.2 2.55" fill="#faff84"/><path d="M52.25 8.5Q43.1 4 34.5 8.7l2.75 3.05q4.95-3.8 15.2-.7l.05 1.5q-9.2-3.35-15.95.2L32.7 8.5q5-5.25 19.5-1.35l.05 1.35" fill="#9d530c"/><path d="m13.55 9.15.05-1.7 1 .55-1.05 1.15" fill="#fffc81"/><path d="m4.95.4 8.45 2.05-.05.5-.2 1.6Q16.6 5.6 16.4 6.2l-.9.85Q9.55 4.1 4.65 3.65L4.95.4M16.4 3.2l2.55.55-.65.6q-.5-.6-1.9-1.15" fill="#71699a"/><path d="M16.4 6.2q.2-.6-3.25-1.65l.2-1.6q3.1.65 4.4 1.9L16.4 6.2" fill="#e5caff"/><path d="M13.4 2.45v-.3l3 1.05q1.4.55 1.9 1.15l-.55.5q-1.3-1.25-4.4-1.9l.05-.5" fill="#fffafe"/><path d="m4.6 4.3.05-.65q4.9.45 10.85 3.4l-.6.65-1.35-.75q-3.9-2-8.95-2.65" fill="#036d95"/><path d="M13.6 7.45q-3.9-2.05-9-2.8V4.3q5.05.65 8.95 2.65l1.35.75-.3.3-1-.55" fill="#614053"/><path d="m4.4 6.5.2-1.85q5.1.75 9 2.8l-.05 1.7-.35.4L4.4 6.5" fill="#e7811d"/><path d="M36.55 12.75q6.75-3.55 15.95-.2v.05l.9 14.7q-6.9 1.95-18-3.5l-5.15 3-8.1-9.85-6.35 9.7-1.15-.6-3.25 8.25q-2.65-.55-3.8-1.1l-.15-.2-4.8-6.6L4.4 6.5l8.8 3.05q-3.2 3.8-5.2 7.9l6.9 6.85 7.35-10.35 8.4 10.6 9-7.1q-1.1-2.2-3.1-4.7" fill="#2d366d"/><path d="M32.9 70.65q-1.05-.1-1.45-1.1-1.85-.65-1.05-1.6l-.3-2.5q-2.25 3.05-3.55 6.9l-2.2-3.05q.7-1.45-1.15-1.35l-.7.4v-2.4l-10.8-20.5q-1.35-2.35-.2-2.65l1.05-.15-5.05-9.4.1-.05q1.15.55 3.8 1.1l2.4.45q2.35-6.9 6.9-8.95 1.85-.2 3.55.55l.2.05.05.05q3.5 1.6 6.15 7.15l8.05-.5 3.05-.15.9.65-11.75.55-.7-.1q-4.05-8.2-9.35-7.45l-.6.35q-1.35.85-2.55 2.4-1.9 2.35-3.3 6.4h-.1l-1-.2-4.35-.95.35.75.45.75 3.75 7.15-.6.1-1.35.2.6 1.1 9.35 17.7q2.95 5.65 4.55 7.45l.15.15.4.35q5.8-11.1 10.7-24.95l.05-.35-.8-.05-1.1-.15.25-.3q4.15-4.5 7.2-9.5l.5-.7h.05q.25-.3.55-.2-1.5 4.1-7.1 10.15l1.45-.15q1.35.15-.55 2.05l-2.7 7.3-4.05 9.75-.1 1.75v.1q-.2 3.75.7 3.95h-.05q0 .4 1.3 1.65" fill="#4e6b79"/><path d="m38.7 33.1-8.05.5Q28 28.05 24.5 26.45q4.15-.3 7.85 5.25l6.35 1.4" fill="#2c376f"/><path d="m30.9 34.15 11.75-.55-22.2 9.35-.15-.7-.05.8-.05.6-10.9-8.3-.35-.75 4.35.95q2.8 3.05 6.45 6.1 2.8-1.4 11.15-7.5" fill="#9f6166"/><path d="m9.75 36.1-.45-.75 10.9 8.3.05.8-10.5-8.35m10.7 6.85 22.2-9.35 1.3-.35-.55.95v.05L20.65 44l-.2-1.05" fill="#f7b610"/><path d="m14.2 43.9 7.05 6.45.2.9L21.4 50l14.3-5.5-.25.3v.05Q27.1 48.5 23.8 50.2q-2 1.55-2.9 1.4-1.5-2.05-3.35-3.55-3.5-3.1-3.35-4.15" fill="#9d6067"/><path d="M12.9 43.35q2.95 4.85 8.4 9.2l.2 1.35q-4.65-3.9-9.35-9.25l-.6-1.1 1.35-.2m9.2 10.5L21.5 52l15.05-7.05.8.05-.05.35-15.2 8.5" fill="#f9b418"/><path d="m22.95 1.2.1-.15q10.45 8.35 15.4 16.3L31.9 22.6 21.6 9.4l-.25-.3 1.6-7.9" fill="url(#p)"/><path d="m7.5 33.25 5.05 9.4-1.05.15q-1.15.3.2 2.65l10.8 20.5v2.4L11 74.45l-5-5.7-.85-.5-.1-.05Q.4 65.25 3.65 32.8l-1.5-.95v-.15l.5-5.3 4.8 6.6-.1.05.15.2" fill="url(#q)"/><path d="M53.95 34.15q2.15 17.1 1.6 34.25l-3.15 1.4-.65.05q-2.8.8-9.25 4.05l-9.45-4.7-1.4-.2q-.9-.2-.7-3.95l.1-.1 10.6-21.05-1-.7 4.55-6.9 8.75-2.15" fill="url(#r)"/><path d="M53.95 34.05v.1L45.2 36.3l-4.55 6.9 1 .7-10.6 21.05 4.05-11.5 2.7-7.3q1.9-1.9.55-2.05l-1.45.15Q42.5 38.2 44 34.1l.3-1.15v-.1l.05.1 9.25-2.5.1 1.7.25 1.9" fill="#29386f"/><path d="m42.65 33.6-.9-.65 2.3-.1.25.1-.3 1.15q-.3-.1-.55.2l-.05-.1.55-.95-1.3.35" fill="#cf6800"/><path d="M31.05 64.95h-.1l.1-1.75 4.05-9.75-4.05 11.5" fill="#0a4d78"/><path d="m20.2 28.05.05-1.1.6-.35q5.3-.75 9.35 7.45l-8.8 6q-1.4 1.2-1.75.65v-.2l.55-12.45" fill="url(#s)"/><path d="M24.7 65.7q-1.3-7.3-2.6-11.85l15.2-8.5Q32.4 59.2 26.6 70.3l-.4-.35-.15-.15-1.35-4.1" fill="url(#t)"/><path d="m21.4 50-.75-6 22.75-9.75v.05l-.5.7q-3.05 5-7.2 9.5L21.4 50" fill="url(#u)"/></g><g id="U" fill-rule="evenodd"><path d="m2.6 9.95-.5.85q-.5 1.05-.75 2.3l.75 2.5q2.1 5.35 7.8 9.25l1.5 2.85Q5.6 23.1 2.3 18 1.1 16.9.5 15.6q-.7-1.5-.45-3.25.7-3.45 4.2-6.75l.45 1.65.05.25Q3.4 8.5 2.6 9.95" fill="#33366d"/><path d="M2.1 10.8q1.2 2.4 2.8 4.8 1.3 2.05 2.95 4.05.95 2.85 2.05 5.2-5.7-3.9-7.8-9.25l-.75-2.5q.25-1.25.75-2.3" fill="url(#v)"/><path d="m2.1 10.8.5-.85q1.55 3.5 3.1 5.65l1.35 1.65.8 2.4q-1.65-2-2.95-4.05-1.6-2.4-2.8-4.8" fill="#35366e"/><path d="m12.75 3.1.55.05-1.4 5.6-.05.15q2.3 4.05 5.9 6.3L15.55 7l.1-.05.15-.05.5-.05 5.7.2.05-.1.15-.4-.05-.1L19.65 3l.55-.05 2.55 3.45 4.3-3.45-2.75-.45 1.1-.2h.2l2.25-.35-.1 1-.05.15-5.1 4.05-3.8 8.8-.5-.45-.05.4-.45-.3q-3.95-2.7-6.1-6.2l-.3-.55.2-.65 1.15-5.1M7.1 2l2 .6q-.85 1.2-.85 1.85v.45l-.6-.35-.25.2L7.1 2m8.05 25.3 3.1-11.4.4.25.2-.15 9.1 8.25v.05l-.15.1-9.2-7.6-.05-.1-2.95 11.2-.3-.3-.15-.3m5.65-1.05 6.85-.95-3.3 8.25-.25-.1-3.3-7.15v-.05" fill="#0085c6"/><path d="m13.3 3.15 2.3.05.05 3.7v.05l-.1.05-3.65 1.75 1.4-5.6" fill="#fff"/><path d="m15.6 3.2 4.05-.2 2.5 3.45-5.85.4h-.4l-.1.05h-.15l-.05-3.7m3 13.6 9.2 7.6.1.05-.25.85-6.85.95-.05-.1-2.15-9.35" fill="#136394"/><path d="m7.85 19.65-.8-2.4-.45-1.65-.6-2.3q-.9-2.2-1.25-5.8l-.05-.25-.45-1.65v-.05L4.2 5.3Q3.95 3.95 4.1.6V.2L3.95 0l1.4 1.15-.05.15q-.2 2 0 4.25.3 4.55 2.1 10.05 2 6.45 5.95 14.15 8.25 6.7 13.7 7.75 2.25-4.5 4.25-11l.75.45.15.1.05-.05 1.5.7v-.2l1.05-.95q-.5 2.85-4.5 11.85-4.05-.05-7.55-1.35-1.4-.5-2.7-1.2l-1.45-.8q-2.75-1.8-5.1-4.4l-1.15-1.4-.85-1.35-.1-.2-1.5-2.85q-1.1-2.35-2.05-5.2" fill="#e29722"/><path d="m28.35 1.85 2.35-.45q-.6 1.7-.05 3.05l-.2 1.1-.3 3.35v.25l-.05 3.45.05 3v.05q.25 5.1 1.2 10.65l-.05.2q-2 6.5-4.25 11-5.45-1.05-13.7-7.75Q9.4 22.05 7.4 15.6 5.6 10.1 5.3 5.55q-.2-2.25 0-4.25l.05-.15L7.1 2l.3 2.75.1.8Q8.2 11 9.55 15.6q2.1 7.55 5.9 12.75 4.8 4.5 9.1 5.55l4.25-9.6-.85-5.35.4-17.1" fill="#fffdec"/><path d="m27.85 1.95.5-.1-.4 17.1.85 5.35-4.25 9.6q-4.3-1.05-9.1-5.55-3.8-5.2-5.9-12.75Q8.2 11 7.5 5.55l-.1-.8.25-.2.6.35.1.65q.4 5.25 1.8 10.05 1.75 6.2 5 11.7l.15.3.3.3.35.3q3.7 3.55 8.15 5.25l.25.1 3.3-8.25.25-.85.05-.1v-.1q-.85-3.9-.95-8.6V12.6l.1-3.45.05-.25.3-3.35.25-2.45.05-.15.1-1" fill="#d06b01"/><path d="M11.7 9.4q2.15 3.5 6.1 6.2l.45.3-3.1 11.4q-3.25-5.5-5-11.7-1.4-4.8-1.8-10.05l-.1-.65 3.45 4.5m5.15 7.95L9.6 8.8l4.85 15.8 2.4-7.25" fill="url(#w)"/><path d="m9.1 2.6 3.65.5-1.15 5.1-3.35-3.6v-.15q0-.65.85-1.85" fill="#87dbf7"/><path d="M7.05 17.25 5.7 15.6q-1.55-2.15-3.1-5.65.8-1.45 2.15-2.45.35 3.6 1.25 5.8l.6 2.3.45 1.65" fill="#85d9f3"/><path d="m20.2 2.95 3.05-.35 1.05-.1 2.75.45-4.3 3.45-2.55-3.45M15.55 7l2.2 8.2q-3.6-2.25-5.9-6.3l.05-.15L15.55 7m.4 21.2 4.8-2 .05.1 3.3 7.15q-4.45-1.7-8.15-5.25" fill="#86daf6"/><path d="m18.8 15.95 3.8-8.8 5.1-4.05-.25 2.45-.3 3.35-.05.25-.1 3.45v3.05q.1 4.7.95 8.6L18.85 16l-.05-.05m7.55-9.3-2.6.65-3.25 7.65 6.4 6.7q-.7-3.1-.95-6v-.05q-.15-1.5-.15-3l.2-3.45V8.9l.35-2.25" fill="url(#x)"/><path d="m16.85 17.35-2.4 7.25L9.6 8.8l7.25 8.55m9.5-10.7L26 8.9v.25l-.2 3.45q0 1.5.15 3v.05q.25 2.9.95 6l-6.4-6.7 3.25-7.65 2.6-.65" fill="#ffffc1"/><path d="m21.85 45.45-.4 3.85v.05h-1.2l-.05-.05q-4.55-5.2-6.4-16.65l-.3-2q2.35 2.6 5.1 4.4l.15.35-2.15-1.15q1.7 6.15 5.25 11.2m-6.55-11.6q-.3-1.55-1-.9 1.35 8.15 6.3 14 .25.2.15-.6-4.25-6.5-5.45-12.5" fill="#686d8d"/><path d="m22.25 41.95-.4 3.5q-3.55-5.05-5.25-11.2l2.15 1.15q1.05 3.3 3.5 6.55" fill="#c5b3e5"/><path d="m22.45 39.9-.2 2.05q-2.45-3.25-3.5-6.55l-.15-.35 1.45.8q.7 2 2.4 4.05" fill="#99530d"/><path d="M15.3 33.85q1.2 6 5.45 12.5.1.8-.15.6-4.95-5.85-6.3-14 .7-.65 1 .9" fill="#fdfdff"/><path d="M31.2 5.45q.6.85 1.8 1.5l-.15 1.65v.3l-.05.25q-.15 1.55-.15 3.45l.05 3v.05q.2 4.95 1.05 11.85v.2l-1.5-.7h-.05v-.05q-1.5-5.1-1.6-11.3V12.6l.2-3.45V8.9l.4-3.35v-.1" fill="url(#y)"/><path d="m30.65 4.45.55 1v.1l-.4 3.35v.25l-.2 3.45v3.05q.1 6.2 1.6 11.3V27l-.15-.05-.75-.45.05-.2q-.95-5.55-1.2-10.65v-.05l-.05-3 .05-3.45V8.9l.3-3.35.2-1.1M33 6.95l.45.3-.05 1.35v.55l-.1 3.45-.05 3v.05q.15 7 1.55 10.9l-1.05.95q-.85-6.9-1.05-11.85v-.05l-.05-3q0-1.9.15-3.45l.05-.25v-.3L33 6.95" fill="#506d73"/><path d="m22.75 37.05-.3 2.85q-1.7-2.05-2.4-4.05 1.3.7 2.7 1.2" fill="#e68220"/></g><g id="V" fill-rule="evenodd"><path d="m162.75 188.75-1.15-4.45-.05-.15-.5-1.4-.25-.45q-1.4-3.5-5.2-11.35l-2.75 4.6-.3.45-1.9 3.45.65 5.95q.35 4.7-.15 7l1.9 2 .15.2.55.55q5.5 6.25 10.15 14.45 1.4-10.15-1.15-20.85m-.95 19.8q.55-3.4-11.05-15.05-.1-7.05-1.25-14.05-.1-.35 5.95-10.7l.7 1.3q6.75 12.1 6.9 12.7 4.25 14.65 1.8 26.65-.45 3.95-3.05-.85" fill="#4f6d77"/><path d="M162.75 188.75q2.55 10.7 1.15 20.85-4.65-8.2-10.15-14.45 5.25 4.2 7.75 7.9l.8.85q1.5-6.6.45-15.15" fill="#8bd2fe"/><path d="m161.55 184.15.05.15 1.15 4.45q1.05 8.55-.45 15.15l-.8-.85q-1.55-4.75-8.3-10.7l-.55-10.6 8.9 2.4" fill="#c95a6d"/><path d="m152.55 176 .3-.45 2.75-4.6q3.8 7.85 5.2 11.35l.25.45.5 1.4-8.9-2.4-.1-5.75" fill="#ae3a69"/><path d="m153.75 195.15-.55-.55-.15-.2-1.9-14.95.15 5.95-.65-5.95 1.9-3.45.1 5.75.55 10.6q6.75 5.95 8.3 10.7-2.5-3.7-7.75-7.9" fill="#830252"/><path d="m153.05 194.4-1.9-2q.5-2.3.15-7l-.15-5.95 1.9 14.95" fill="#e7cc63"/><path d="M157.8 161.85q-4.85-6.6-16.6-19.75-6.2 6.1-8.15 8.75-1.15 1.55-.85 1.9l1.9 2.75v.1q7.45 10.95 10.2 16.75l.45 1 .1.35.65 1.7q4.05 2.45 7.15 3.25l1.25.25q5.7 0 12.6 2.95-1.95-8.85-6.1-16.2l-.1-.2-2.5-3.6m-23.7-3.95-3-5.15q-1.9-2.35 10.75-13.5 22.5 21.9 26 41.95.4 3.5-3.15 2.05-2.45-2.25-7.15-2.8-7.15-.5-12.2-4.75l-1.3-1.15q-.15-3.45-9.95-16.65" fill="#506c78"/><path d="m158.75 164.1-1.15-2.15 2.8 3.7q4.15 7.35 6.1 16.2-6.9-2.95-12.6-2.95l-1.25-.25q-5.3-1.8-6.2-3.3 5.85 3 14.15 3.55l4.35.1q-2.2-7.2-6.2-14.9" fill="#8ad3fe"/><path d="m133.05 150.85 3.25 4.8.5.7 2 3q4.8 7.65 7.7 14.9 4.35 2.3 14.1 4.65-8.3-.55-14.15-3.55.9 1.5 6.2 3.3-3.1-.8-7.15-3.25l-.65-1.7-.1-.35-.45-1q-6.5-15.2-12.1-19.6-.3-.35.85-1.9" fill="#800150"/><path d="M138.8 159.35q5.45 5.5 19.95 4.75 4 7.7 6.2 14.9l-4.35-.1q-9.75-2.35-14.1-4.65-2.9-7.25-7.7-14.9" fill="#c25a7f"/><path d="m138.8 159.35-2-3-.5-.7-3.25-4.8q1.95-2.65 8.15-8.75 11.75 13.15 16.6 19.75l-.2.1 1.15 2.15q-14.5.75-19.95-4.75" fill="#ab386f"/><path d="M132.2 152.75q5.6 4.4 12.1 19.6-2.75-5.8-10.2-16.75v-.1l-1.9-2.75" fill="#e6cb64"/><path d="m153.5 138.15-.05-.1-3.65-7.4q-.3-.65-23.15-8.7l.65 12.35.15 1.4.15.65q4.1 14.65 12.65 20.55l.35.25.4.2q1.65 1.1 3.6 1.8l2.6.85h15.7q-3.75-9.85-8.45-19.9l-.95-1.95m-3.15-9.15.9 1.65q7.65 14.35 12.6 29.3 1.1 1.5-4.35 1.65l-12.35-.6q-2.25.9-11.6-6.6-7.55-8.35-9.45-18.65-.2-.75-.25-13.9v-1.1q23.8 7 24.1 7.5l.4.75" fill="#4e6c76"/><path d="M154.45 140.1q4.7 10.05 8.45 19.9h-15.7l-2.6-.85-.3-.4q5.05 1.45 12.65.05l3.2-.75-5.95-17.85.25-.1" fill="#8fcffd"/><path d="M141.85 156.1q3.35 2.7 15.1 2.7-7.6 1.4-12.65-.05l-2.45-2.65" fill="#7f0152"/><path d="m141 157.35-.4-.2-.35-.25q-8.55-5.9-12.65-20.55 5.5 9.75 12.9 18.25l.5.5.85 1 2.45 2.65q-1.85-.5-3.3-1.4" fill="#e8cb63"/><path d="m127.3 134.3-.65-12.35q22.85 8.05 23.15 8.7l3.65 7.4.05.1.7 2.05-26.9-5.9" fill="#ae3578"/><path d="m127.6 136.35-.15-.65-.15-1.4 26.9 5.9 5.95 17.85-3.2.75q-11.75 0-15.1-2.7l-.85-1-.5-.5q-7.4-8.5-12.9-18.25" fill="url(#z)"/><path d="m153.45 114.2-.1-.45-2.05-6.3q-.3-.85-40.8-12l1.6 7.05q3.1 11.85 8.25 17.1l8 8.2q5.6 4.35 14.5 6.55 6.95 1.75 16 2.1-.5-6.4-5.4-22.25m-31.35 12.1q-16.05-20.6-14.2-32.7 44.1 11.9 44.85 13.85 7.25 20.55 7.2 30l-7.7-.5q-17.8-3.15-30.15-10.65" fill="#4f6d77"/><path d="m153.15 114.25.3-.05q4.9 15.85 5.4 22.25-9.05-.35-16-2.1l7.05.15 7.5.1-.15-.65-4.1-19.7" fill="#8ad1fd"/><path d="m157.25 133.95.15.65-7.5-.1-8.05-3.1 15.4 2.55" fill="#810052"/><path d="m149.9 134.5-7.05-.15q-8.9-2.2-14.5-6.55l-8-8.2q8.05 6.25 21.5 11.8l8.05 3.1" fill="url(#A)"/><path d="m153.35 113.75-.2.5q-6.15.6-41.05-11.75l-1.6-7.05q40.5 11.15 40.8 12l2.05 6.3" fill="#af3280"/><path d="M112.1 102.5q34.9 12.35 41.05 11.75l4.1 19.7-15.4-2.55q-13.45-5.55-21.5-11.8-5.15-5.25-8.25-17.1" fill="url(#B)"/><path d="m111.1 65.15.45.1q31.9 8 36.05 15.5 9.1 11.95 13.15 30.9 1.25 3.4-6.25 2.1-.75-.1-1.75-.9-23.8-4.1-36.5-14.9Q104 77.5 109.95 66.4q-.9 2.35-1.55 8.4l.05.15q.6 7.5 3.2 13.4 5.65 12.75 20.6 17.6l4.75 1.35q6.6 2.35 14.7 4.45l7.75.65q-2.2-11.9-8.6-24.05l-.1-.1-4.45-7.6q-16-10.45-35-14.6l-.2-.9" fill="#a12e27"/><path d="M150.85 88.35q6.4 12.15 8.6 24.05l-7.75-.65q-8.1-2.1-14.7-4.45l.15-.2 6.25 1.4q10.35 2.15 13.25 1.65l.8-.3q-2.4-10.4-6.6-21.5" fill="#8ed1fe"/><path d="M132.25 105.95q-14.95-4.85-20.6-17.6 6 3.85 10.65 7.3 4.25 4 9.3 6.9 6.25 4.05 11.8 5.95l-6.25-1.4-4.9-1.15" fill="#f7c355"/><path d="m108.45 74.95 2 4.05q5.35 9.95 11.85 16.65-4.65-3.45-10.65-7.3-2.6-5.9-3.2-13.4m23.15 27.6q9.15 4.95 25.05 7.6-2.9.5-13.25-1.65-5.55-1.9-11.8-5.95" fill="#800150"/><path d="M110.45 79q5.45 2 9.85 2.15l.2.05q16.3 7.95 30.25 7.05l.1.1q4.2 11.1 6.6 21.5l-.8.3q-15.9-2.65-25.05-7.6l-3.75-2.55q-2.45-2.05-5.55-4.35-6.5-6.7-11.85-16.65" fill="url(#C)"/><path d="m109.95 66.4.8-1.3.05-.05.3.1.2.9q19 4.15 35 14.6l4.45 7.6q-13.95.9-30.25-7.05l-.2-.05q-4.4-.15-9.85-2.15l-2-4.05-.05-.15q.65-6.05 1.55-8.4" fill="#b4336c"/><path d="m111.3 57.15.1-.2q22.85-.25 25.85 2.05l4.35 4.6q7.9 8.05 14.55 19.4 2.1 2.05-1.65 2.45-26.45.15-38.4-10.9-.4-.35-6.5-17.55h.8l-.05.15 7.1 17.35q11.4 9.7 34.2 9.5h.2l2.35-.05h.9q-9.15-13.3-15.95-20.85l-.15-.15-.05-.05-3.35-3.45-24.3-2.3" fill="#9f2f24"/><path d="M139.15 63.1q6.8 7.55 15.95 20.85h-.9l-2.6-1.35.6-.15.1-.05-11.55-17-1.6-2.3" fill="#8bd4ff"/><path d="m154.2 83.95-2.35.05h-.2q-17.85-1.75-31.8-9.4 16.3 8.05 31.8 7.9l-.05.1 2.6 1.35" fill="#810052"/><path d="M151.65 84q-22.8.2-34.2-9.5l-7.1-17.35h.95l3.8 9.35q3.15 7.25 4.75 8.1 13.95 7.65 31.8 9.4" fill="#fdce4c"/><path d="m111.3 57.15 24.3 2.3 3.35 3.45.05.05 1.6 2.55q-12 2.25-25.5 1l-3.8-9.35" fill="#bd3450"/><path d="M115.1 66.5q13.5 1.25 25.5-1l.15-.1 11.55 17-.1.05-.55.05q-15.5.15-31.8-7.9-1.6-.85-4.75-8.1" fill="url(#D)"/><path d="m106.2 53.2-.2.05q-1.75-3.35-1.9-5.35-.35-3.55 7.7-6.8 8.1-3.3 8.3-3.15 16.75 10.2 26.1 19.3 3.5 2 1.35 4l-9.3 1q-17.7 5.55-28.5-2.8-.6-.45-.65-.9l-1.85-3 .2-.15 3.2 3.9q4.35 2.5 8.95 3.55 8.8 2.05 18.35-1.35l9.15-2.05q-10.5-9.35-24.25-17.4-1.7-1.85-2.8-2.45-1.1-.6-14 5.65-1.2 4.65.15 7.95" fill="#9e2c22"/><path d="m125.65 44.2-2.8-2.15q13.75 8.05 24.25 17.4l-9.15 2.05q-9.55 3.4-18.35 1.35 13.95.2 23.25-4.35l.3-.15.55-.3-18.05-13.85" fill="#8bd2ff"/><path d="M107.4 55.25h-.05q-.75-.95-1.15-2.05-1.35-3.3-.15-7.95 12.9-6.25 14-5.65 1.1.6 2.8 2.45l2.8 2.15q1.6 1.5-1.7 2.3-3.25 2.7-16.55 8.75" fill="#bd3452"/><path d="M119.6 62.85q-4.6-1.05-8.95-3.55 14.05 4.35 32.2-.8-9.3 4.55-23.25 4.35" fill="#800053"/><path d="m107.45 55.4-.05-.15q13.3-6.05 16.55-8.75 3.3-.8 1.7-2.3l18.05 13.85-.55.3-.3.15q-18.15 5.15-32.2.8l-3.2-3.9" fill="url(#E)"/><path d="m85.5 57.95 1.75.65.1.15 3.05 3.95 6 8.25.05.05q4.85 3.55 20.7 5.55l.4.05 1.1.15-.05-1q-.55-6.65-4.05-14.05l-7.15-7.1-.2-.1-.25-1.4 7.9 7.8q4.3 6.4 5 17.15l-1.15-.7q-16.6-1.35-22.95-5.5-6.2-7.7-10.25-13.9" fill="#9f2f21"/><path d="M85.5 57.95q-4.45-6.75.15-13.35 6.9-1.95 21.3 8.5l.25 1.4-2.55-2.15-.25-.15q-9.3-6.85-17.65-5.85-1.5 1.3-2.15 2.85-1.75 4.05 2.65 9.4l-1.75-.65" fill="#4f6b76"/><path d="m104.65 52.35 2.55 2.15.2.1 7.15 7.1q3.5 7.4 4.05 14.05l-7.65-1.35q-5.7-2.1-10.7-4.35-3.5-2.15-6.4-4.45-3.3-5.15-5.45-8.9l5.05 2.75 13.8-3.5-2.6-3.6" fill="#ca3123"/><path d="M84.6 49.2q.65-1.55 2.15-2.85 8.35-1 17.65 5.85l.25.15 2.6 3.6-13.8 3.5-5.05-2.75-.15-.2q-2.8-4.9-3.65-7.3" fill="#b21f31"/><path d="M87.25 58.6q-4.4-5.35-2.65-9.4.85 2.4 3.65 7.3l.15.2q2.15 3.75 5.45 8.9l-3.45-2.9-3.05-3.95-.1-.15m31.35 17.15.05 1-1.1-.15-.4-.05-6.2-2.15 7.65 1.35" fill="#830052"/><path d="M117.15 76.55q-15.85-2-20.7-5.55l-.05-.05-6-8.25 3.45 2.9q2.9 2.3 6.4 4.45 5 2.25 10.7 4.35l6.2 2.15" fill="#94c2a8"/><path d="M123.75 39.6q8.5-2.95 17.2-9.2-11.35-4.45-19.75-6.25h-.05q-8.15-1.8-13.5-1.05-.25 0-6.3 2.75l-.65.3-6.1 2.8q6.5 10.45 8.2 12l-.15.2q-4.4-3.25-9.4-12.7l.8-.4 13.6-6q8.7-2.95 33.1 6.55 4.1 1.05 2 3.2-20.4 11.1-20.95 9.55-1.85 1.55-3.4 1.7-6.3.7-12.2-.3-1.55-.25-3.2-1.35l.2-.25 7.85 1.15q6.3-.45 12.7-2.7" fill="#aa453d"/><path d="M123.75 39.6q5.95-3.95 13.95-8.2l-.35-.15q-3.5-1.8-7.3-3.45-4.25-1.95-8.85-3.65 8.4 1.8 19.75 6.25-8.7 6.25-17.2 9.2" fill="#8ed1fc"/><path d="m137.35 31.25.35.15q-8 4.25-13.95 8.2-6.4 2.25-12.7 2.7 13.65-4.4 26.3-11.05" fill="#810053"/><path d="M121.2 24.15q4.6 1.7 8.85 3.65-9.95-1.9-16.05-2.55-7.6-.9-12.65.6 6.05-2.75 6.3-2.75 5.35-.75 13.5 1.05h.05" fill="#fecd4d"/><path d="M130.05 27.8q3.8 1.65 7.3 3.45-12.65 6.65-26.3 11.05l-7.85-1.15 10.8-15.9q6.1.65 16.05 2.55" fill="#dd4b3e"/><path d="m103.2 41.15-.4-.2q-1.7-1.55-8.2-12l6.1-2.8.65-.3q5.05-1.5 12.65-.6l-10.8 15.9" fill="#bc3146"/><path d="M70.85 54q7.3 2.4 13.9 2.95 4.05.3 7.8-.05 7.4-1.9 14.75-5.45l-.15 1.2q-7.35 3.5-14.8 5.5-21.6-.15-33.4-8.3 3.3-5.25 12.45-9.65 18.8-12.5 37.4-2.35l.3 1.4-5.1-2.85q-22.25-5.85-44.2 13.05Q65.5 52.3 70.85 54" fill="#4e6c74"/><path d="m107.15 52.65.15-1.2 5.55-2.85.95-.55 5.4-3.3-1.25-.7-8.85-4.8-.3-1.4 9.7 5.55q2.95 1.3.85 2.3-6.05 4-12.2 6.95" fill="#9f2e1e"/><path d="m89.55 55.25-10.5-.7q6.6-1 24.95-18.15l5.1 2.85 8.85 4.8-14.35 7.4-.65.2-13.4 3.6" fill="#d53d30"/><path d="m79.05 54.55-8.2-.55q-5.35-1.7-11.05-4.55Q81.75 30.55 104 36.4 85.65 53.55 79.05 54.55" fill="#b12435"/><path d="m70.85 54 8.2.55 10.5.7-4.8 1.7q-6.6-.55-13.9-2.95m47.1-9.95 1.25.7-5.4 3.3-.95.55-9.25 2.85 14.35-7.4" fill="#7f004f"/><path d="m84.75 56.95 4.8-1.7 13.4-3.6.65-.2 9.25-2.85-5.55 2.85Q99.95 55 92.55 56.9q-3.75.35-7.8.05" fill="#f5cc56"/><path d="M90.65 12.75q-5.9 1.05-8.85 2.15L78.75 19q-6.1 8.7-8.75 18.95l5.45 1.45 3.25.7q14.1 2.5 24.2-2.9l.6-.95q3.45-5.85 6.15-11.55l.25 1.6-.1.25q-2.95 5.8-6.6 11.1-16.6 9.65-34.8.6Q78.5 14.3 81.85 13.2q16.85-4.4 33.5-4.85 2.1-.35 1.75 1.5l-2.35 7.75-.15.5-3.35 3.1q2.5-5.95 4.2-11.8l-.85.1-.3.1q-15.05 1.55-23.65 3.15" fill="#4e6c74"/><path d="m111.25 21.2 3.35-3.1q-1.7 4.25-3 4.55l-1.7 3.65-.25-1.6 1.6-3.5" fill="#a12c23"/><path d="m87.8 16.35.1-.05q12.65-3.5 26.15-6.4l.1.05Q108.9 23.4 102.3 35.7q-11.8 5.4-23.6 4.2 3.1-10.75 9.1-23.55" fill="#e04e41"/><path d="m78.75 19 3.05-4.1q2.95-1.1 8.85-2.15 12.1-1.9 23.4-2.85-13.5 2.9-26.15 6.4l-.1.05Q83.2 17.6 78.75 19" fill="#ffcd50"/><path d="M75.45 39.4 70 37.95Q72.65 27.7 78.75 19q4.45-1.4 9.05-2.65-6 12.8-9.1 23.55l-3.25-.5" fill="#bc2f42"/><path d="m103.5 36.25-.6.95q-10.1 5.4-24.2 2.9v-.2q11.8 1.2 23.6-4.2 6.6-12.3 11.85-25.75l.25.15-10.9 26.15" fill="#7f004f"/><path d="m114.6 9.5.85-.1q-1.7 5.85-4.2 11.8l-1.6 3.5q-2.7 5.7-6.15 11.55l10.9-26.15.2-.6" fill="#8cd3ff"/><path d="m88.4 5.35.25-.55Q68.5 8.35 53.2 14.55q-.6.3-10.75 33.3l-.05.35-2.15 7v.05q-.15 7 .6 9.45l.5 2.55 3.4.2q3.2.25 8.45-1.65 6.5-2.75 12.95-9.65l2.45-5.3.75-1.6L84.2 16.5l3.95-10.45.25-.7M39.7 54.2v-.25q12.6-40.8 13.5-41.1 30.45-10 36.9-9.15-2.15 9.5-4.1 9.8-3.85 9.35-12.95 28.95-.95 2.05 1.2 5.6-10.9 14.15-15.35 15.5l5.85-1.15q-5.15 1.2-6.35 2.45-7.8 3.35-14.35 3.55l-3.2-.05Q38.65 68 39.7 54.2" fill="#4f6d75"/><path d="M86.75 5.9q-7.95 2.6-15.1 5.15l-15.5 6q-2.2.85-9.55 19.95l-.1.2-4.05 10.65q10.15-33 10.75-33.3 15.3-6.2 35.45-9.75l-.25.55-1.4.45-.25.1" fill="#f9cb51"/><path d="M69.35 49.25q1-2.75.1-4.95 7.85-15 18.7-38.25L84.2 16.5 69.35 49.25" fill="#8bd4ff"/><path d="m66.15 47.1 20.6-41.2.25-.1 1.4-.45-.25.7Q77.3 29.3 69.45 44.3q.9 2.2-.1 4.95l-.75 1.6-3.85 6.1-4.1 3.25-.2-.2-1.8.8-.05-.1 2.1-1.65Q70 51.5 66.2 47.3l-.05-.2" fill="#800051"/><path d="m68.6 50.85-2.45 5.3q-6.45 6.9-12.95 9.65l7.45-5.6 4.1-3.25 3.85-6.1" fill="#8dd1fe"/><path d="M44.9 66.2q7.8-2.45 13.1-5.1l.65-.3 1.8-.8L53 65.45q-4.4 1.05-8.1.75" fill="#ffce4d"/><path d="M40.25 55.25Q42.1 65.9 42.7 66l1.05.1h.3l.85.1q3.7.3 8.1-.75L60.45 60l.2.2-7.45 5.6q-5.25 1.9-8.45 1.65l-3.4-.2-.5-2.55q-.75-2.45-.6-9.45" fill="#7e0051"/><path d="M71.65 11.05Q78.8 8.5 86.75 5.9l-20.6 41.2q-.4-12.05-8.5-16.65L65 26.1l6.65-15.05" fill="#d84234"/><path d="M71.65 11.05 65 26.1l-7.35 4.35L46.6 37q7.35-19.1 9.55-19.95l15.5-6" fill="#bb2f49"/><path d="M43.85 66q3.1-5.05 7.1-6.3 4-1.25 9.75-.65l-2.1 1.65-.4.25-.1.1h-.05l-.05.05q-5.3 2.65-13.1 5.1l-.85-.1-.2-.1" fill="#cd3527"/><path d="M57.65 30.45q8.1 4.6 8.5 16.65l-.05.05.1.15q3.8 4.2-5.5 11.75-5.75-.6-9.75.65t-7.1 6.3l-.1.1-1.05-.1q-.6-.1-2.45-10.75v-.05l2.15-7 .05-.35L46.5 37.2l.1-.2 11.05-6.55" fill="#b11f34"/><path d="m63.3 23.75.35-.15q4.35-9.4 8.2-22.1l-.5.1-.25.05q-12.7 2.2-27.55 10.3l-.1.15-.15.2q-5.45 8.6-8.45 13.75-1.65 2.1-.9 4.5h-.05l-.8-2.8 1.9-3.9 1.6-2.35-1.05.25h-.15q-2 .35-4 1.1l-1.05.7-.05.05-.8.5q-6.7 4.6-12.25 11.6l-.75.95-.2.25-.8 1.05-1.15 1.7-.8 1.15-1.3 2-2.8 4.85-2 4.1L6.4 54.1q-1.6 3.45-3 7.25L2.25 65.3q-1.05 3.2-.65 5.9.25 2.1 1.4 3.95 1.85 5.3 6.55 11.6 25.6-6.65 37.75-29.2 19.05-1.2 38.1-5.35 9.8-11.35 15.75-24.65 1.3-9 1.25-18.95v-.35l-.05-1.85-2.3 6.4q-1.2 3.9-3.45 6.9-1.5 2.05-3.5 3.65L78.75 32.5l-.3.2-.35-.1q-.6-.5.75-1.25L79 31l.55.15L93.4 22q6.8-7.7 6.5-11.95.9-3.75 2.5-6.3.15-.5 1.2-.35 1.05 6.55-.6 6.45.05 8.2-1.15 17.55Q93.7 44.7 85.9 53.1q-32.65 5.8-37.65 5.05-11.85 21-38.55 30L0 72.9q-.1-9.5 6.2-22l1.35-2.7 2.05-3.6 2.4-3.85 1.25-1.95.7-1.05.9-1.35.8-1.15.8-1.15.45-.65q8.5-9.65 14.05-12.6 3-.85 5.85-1 3.5-6.3 6.05-8.6Q55.95 2.65 73.05 0q-1.1 8.75-2.85 9.15Q66.4 20.6 64.3 24q-4.85 3.3-7.65 4.35l-1.55.1 8.2-4.7" fill="#4e6c76"/><path d="M96.6 19.7q2.25-3 3.45-6.9-1.05 4.5-.6 8.95l-.05.3-15.1 25Q65.85 52.1 47.15 52.3 41.9 62.05 32.9 70.2q-9.4 7.4-22.5 13.2l-.7-.85Q5.85 76 3.95 68.85q1.1-5.75 2.85-10.9l.7-2.1 1.9-4.7q1.45-3.2 3.15-6.1l1.35-2.2.85-1.3 1.45-2.05.85-1.1.35-.45.65-.8q4.25-5.2 9.55-9.3l1.45 7.45 35.9-3.95 14.5 3.6 13.8-10.8 1.2-.9 1.4-1.25q.85-.8.75-2.3M15.2 43.35l12.6-4.9q1.6-.25.9-2.4l-.3-1.1q-1.45-5.65-3.7-3.85-3.3 3.55-6 7.1l-.6.75-.4.55-.85 1.2-1.7 2.5-.2.25.25-.1m31.2 6.55q1.25 1.95 2.85.2 8.1-6.15 16.25-12.35 2.75-2.55-.7-2.8L36.05 37.7q-3.1 2 .9 3.7 6.5 4.1 9.45 8.5" fill="#fbcc0a"/><path d="m27.25 37-1.5-1.75-3.95 4.35-4.9 2.3 8.65-9.95 1.85 4.95-.15.1" fill="#9a6265"/><path d="m15.15 43.2 1.7-2.5.85-1.2.4-.55.6-.75q2.7-3.55 6-7.1 2.25-1.8 3.7 3.85l.3 1.1q.7 2.15-.9 2.4l-12.6 4.9-.05-.15m25.25-1.1q4.85 3.55 7.4 7.65l12.85-9.95 4.85-3.75-29.55 3.2 4.3 2.8.15.05m6 7.8q-2.95-4.4-9.45-8.5-4-1.7-.9-3.7l28.75-2.75q3.45.25.7 2.8-8.15 6.2-16.25 12.35-1.6 1.75-2.85-.2M21.8 39.6l5.45-2.6.15-.1-1.85-4.95-8.65 9.95 4.9-2.3" fill="#f6e53d"/><path d="m40.4 42.1-.15-.05-4.3-2.8 29.55-3.2-4.85 3.75-20.25 2.3" fill="#9c6165"/><path d="M42.2 42.8q4.15 2.85 5.95 5.4l10.15-7.25-16.1 1.85m18.45-3L47.8 49.75q-2.55-4.1-7.4-7.65l20.25-2.3" fill="#e28a0e"/><path d="m42.2 42.8 16.1-1.85-10.15 7.25q-1.8-2.55-5.95-5.4" fill="#d0382b"/><path d="m27.25 37-5.45 2.6 3.95-4.35 1.5 1.75" fill="#e2880d"/><path d="M1.6 71.2q-.4-2.7.65-5.9l1.15-3.95q1.4-3.8 3-7.25l1.05-2.35 2-4.1 2.8-4.85 1.3-2 .8-1.15 1.15-1.7.8-1.05.2-.25.75-.95q5.55-7 12.25-11.6l.55 1.7-.55.5 1.75 6.95q17-2.45 34-3.6L78.1 32.6l.2.15.15-.05.35-.05q8.65-4.2 14.45-8.5l-13.8 10.8-14.5-3.6-35.9 3.95-1.45-7.45q-5.3 4.1-9.55 9.3l-.65.8-.35.45-.85 1.1-1.45 2.05-.85 1.3-1.35 2.2q-1.7 2.9-3.15 6.1l-1.9 4.7-.7 2.1q-1.75 5.15-2.85 10.9Q5.85 76 9.7 82.55q-3.95-4.7-8.1-11.35" fill="#f2e53e"/><path d="M3 75.15Q1.85 73.3 1.6 71.2q4.15 6.65 8.1 11.35l.7.85q13.1-5.8 22.5-13.2 9-8.15 14.25-17.9 18.7-.2 37.15-5.25l15.1-25-.65 4-13.35 22.4q-1.9 2.75-37.95 5.75L35 71q-8.9 7.65-24.85 13.85-4.15-4-7.15-9.7" fill="#f4a411"/><path d="M47.3 57.55Q35.15 80.1 9.55 86.75q-4.7-6.3-6.55-11.6 3 5.7 7.15 9.7Q26.1 78.65 35 71l12.45-16.8q36.05-3 37.95-5.75l13.35-22.4.65-4 .05-.3q1.4-8.8 2.9-13.15l-2.2 18.65q-6.35 12-13.95 23.1-23.95 5.25-33.7 5.7-4.65.75-5.2 1.5" fill="#dd7d02"/><path d="M102.4 8.6q.05 9.95-1.25 18.95Q95.2 40.85 85.4 52.2q-19.05 4.15-38.1 5.35.55-.75 5.2-1.5 9.75-.45 33.7-5.7 7.6-11.1 13.95-23.1l2.2-18.65h.05" fill="#77adcf"/><path d="m30.3 23.6.05-.05 1.05-.7q2-.75 4-1.1l-.4 2.1-1.9 3.9q-.6-3.55 1.45-3.85-4.15-1.8-1.1 7.8l-1.7.35Q30.4 27.7 30.3 23.6" fill="#ae7327"/><path d="M78.85 31.35q-1.35.75-.75 1.25l-12.85-2.95q-17 1.15-34 3.6L29.5 26.3l.55-.5-.55-1.7.8-.5q.1 4.1 1.45 8.45l1.7-.35v.05l.2.45q32.6-4.65 33.6-3.35 6.6 2.25 11.6 2.5" fill="#f3e53e"/><path d="m55.1 28.45 1.55-.1 10.8-.65L79 31l-.15.35q-5-.25-11.6-2.5-1-1.3-33.6 3.35l-.2-.45v-.05q-3.05-9.6 1.1-7.8-2.05.3-1.45 3.85l.8 2.8.25.7h.05l.45-.1h.15l.2-.05 8.45-.95.45-.05 5.3-.7.25-.05 1-.15 4.65-.75" fill="#496e77"/><path d="m71.1 1.65.25-.05.5-.1Q68 14.2 63.65 23.6l-.35.15-1.05-.7.05-.05q4.8-10.85 5.65-14.9L59.9 21.4h-.05l-10.8-7.55-.3-.6L71.1 1.65" fill="#7adcc5"/><path d="m59.9 21.4 8.05-13.3Q67.1 12.15 62.3 23l-.25-.1-2.15-1.5" fill="#5b82a3"/><path d="m59.85 21.45.05-.05 2.15 1.5-11.75 6-.85.45-.25.05-5.3.7 15.95-8.65" fill="#236d9e"/><path d="m63.3 23.75-8.2 4.7-4.65.75-.15-.3 11.75-6 .2.15 1.05.7" fill="#007da5"/><path d="m43.45 12.1.1-.15Q58.4 3.85 71.1 1.65l-22.35 11.6h-.35l-5-.9.05-.25" fill="#fff"/><path d="M33.95 30.55q-.75-2.4.9-4.5 3-5.15 8.45-13.75l.1.05 5 .9-.35.45-14.1 16.85" fill="url(#F)"/><path d="m49.05 13.85 10.8 7.55v.05L43.9 30.1l-.45.05-8.45.95-.2.05h-.15l-.45.05-.25-.65 14.1-16.85 1 .15" fill="url(#G)"/><path d="m100.05 12.8 2.3-6.4.05 1.85v.35h-.05q-1.5 4.35-2.9 13.15-.45-4.45.6-8.95" fill="#ffcb51"/><path d="m78.75 32.5 14.35-9.15q2-1.6 3.5-3.65.1 1.5-.75 2.3l-1.4 1.25-1.2.9q-5.8 4.3-14.45 8.5l-.05-.15" fill="#f5b611"/><path d="M35.4 21.75h.15l1.05-.25-1.6 2.35.4-2.1" fill="#fecd4a"/><path d="m25 43.9.85.35 3.1.4q3.35 2.15 3.2 11.3-.15.85-.5.05-1.45 7.15-2.2 7.3l-1.8 2.85q-6.25 6.15-9.7 6.4l-.25.1q-4.4.8-6.75-1.35l-.3-.3Q8.6 69.15 10 69.85q-1.95-3.1-2.25-6.15-.85 3.4.85 8.25l.5.95q1.95 3.15 4.95 3.05 2.95.05 5.35-.8-.55-.45-.4-1l.1-.05 1.6-.65q2.35-1.3 4.75-3.85.25 2.3 3.4-1.15l.1-.2q3.6-4.65 5.05-10.8.55-5-1.4-2.8.5-4.55-1.05-8.6l1.85 1.45q-2.4-4.25-4.45-4.35l-.45-.35h-.1q-6.35-.25-3.4 1.1M7 64.65l.5-2.7-.7-4-.4-3.85-.2-3.2Q5.85 37.7 11 23.4l1.7-.2q1.7 6.5 3.75 10.9l.8 1.6.8 1.45.65 1.05.65.9 1 1.2.75.75q1.1 1.05 2.3 1.6 7.2-2.25 10.15 3.75.95 1.95 1.45 4.8.3 8.25-3 13.7-4.15 8.4-12.15 10.95-4.15 1.75-8.55.3Q6.05 72.1 7 64.65m24.05-13.9-.85-3.45q-5.8-1.85-9.9-5.95l-.7-.7-.8-.9-.7-.8-.7-1-.9-1.3-.85-1.4-.05-.05-.25-.5q-2.2-4.05-3.5-9.3l-.05-.1-.05.1-.8 3.05Q8.1 39.3 7.55 48.2l-.1 3.55.05 4.1q.5 8.2 3.3 14.45 1.2.9 2.55 1.3 6 1.85 13.95-5.7 4.7-8.25 3.75-15.15" fill="#706a9a"/><path d="M13.35 71.6q-1.35-.4-2.55-1.3Q8 64.05 7.5 55.85l-.05-4.1.1-3.55q.55-8.9 3.4-19.75l.8-3.05-.55 3.8q-1.25 8.4-1.6 15.4l-.15 3.05-.05 3.5q.1 12.6 3.6 19.65l.35.8" fill="#ffa902"/><path d="M18.6 54q.8-.35 1.8-.35 1.9 0 3.3 1.4 1.35 1.35 1.35 3.25t-1.35 3.25l-1 .75q-1.05.6-2.3.6h-.55q-1.6-.2-2.75-1.35-.7-.7-1.05-1.5-.35-.8-.35-1.75 0-1.8 1.2-3.1l.2-.15q.65-.7 1.5-1.05m-7.4-24.8q.2 6.05.8 11.55l.25 2.05.3 2.25q1.2 8.3 3.3 15.1l2.1 5.65q3.05.1 1.4 3.05l.5 1.05.05.05Q16 71.5 13 70.8q-3.5-7.05-3.6-19.65l.05-3.5.15-3.05q.35-7 1.6-15.4" fill="#fff"/><path d="M16.9 55.2q-1.2 1.3-1.2 3.1 0 .95.35 1.75t1.05 1.5q1.15 1.15 2.75 1.35l2.7 5.15q-.95 1.2-2.7 1.85l-.5-1.05q1.65-2.95-1.4-3.05l-2.1-5.65q-2.1-6.8-3.3-15.1l-.3-2.25-.25-2.05q-.6-5.5-.8-11.55l.55-3.8h.05q.45 7.1 1.45 13.4l.3 2 .35 2.05q1.25 6.65 2.95 12.25l.05.1" fill="#e2cafe"/><path d="M31.05 50.75q.95 6.9-3.75 15.15-7.95 7.55-13.95 5.7l-.35-.8q3 .7 6.9-.85l-.05-.05q1.75-.65 2.7-1.85l-2.7-5.15h.55q1.25 0 2.3-.6l2.45 3.5q4.25-2.7 4.55-10.4-7.4-5.3-11.95-13l-.35-.7-.15-.15-.4-.85-.65-1.2-.7-1.55-.65-1.55q-1.35-3.4-2.3-7.1l1.4 8.45.4 1.9.4 1.9.4 1.65.05.15Q16.6 49.2 18.6 54q-.85.35-1.5 1.05l-.25.05q-1.7-5.6-2.95-12.25l-.35-2.05-.3-2q-1-6.3-1.45-13.4h.05q1.3 5.25 3.5 9.3l.25.5.05.05.65 1.65.75 1.5.65 1.1.55.9.45.65.5.75q4.3 5.8 11.85 8.95" fill="#aca6c8"/><path d="m22.7 62.3 1-.75q1.35-1.35 1.35-3.25t-1.35-3.25q-1.4-1.4-3.3-1.4-1 0-1.8.35-2-4.8-3.4-10.65l-.05-.15-.4-1.65-.4-1.9-.4-1.9-1.4-8.45q.95 3.7 2.3 7.1l.65 1.55.7 1.55.65 1.2.4.85.15.15.35.7q4.55 7.7 11.95 13-.3 7.7-4.55 10.4l-2.45-3.5" fill="#706a98"/><path d="m15.65 35.25.85 1.4.9 1.3.7 1 .7.8.8.9.7.7q4.1 4.1 9.9 5.95l.85 3.45Q23.5 47.6 19.2 41.8l-.5-.75-.45-.65-.55-.9-.65-1.1-.75-1.5-.65-1.65" fill="#8ed2ff"/><path d="M25 43.9q2.85-.65 5.15 1-.05-.65-.65-1.3l-.55-.45q2.05.1 4.45 4.35l-1.85-1.45q1.55 4.05 1.05 8.6t-3.1 9.55q-2.05 3.2-4.05 5.4-2.4 2.55-4.75 3.85-9.35 2.8-11.5-1.55.25-1.55 1.45-.9l.3.3q2.35 2.15 6.75 1.35l.25-.1q3.45-.25 9.7-6.4l1.8-2.85q.75-.15 2.2-7.3.35.8.5-.05.15-9.15-3.2-11.3l-3.1-.4-.85-.35" fill="#aba5c9"/><path d="M29.5 43.6q.6.65.65 1.3-2.3-1.65-5.15-1-2.95-1.35 3.4-1.1l1.1.8" fill="#fffeff"/><path d="M25.45 69.6q2-2.2 4.05-5.4 2.6-5 3.1-9.55 1.95-2.2 1.4 2.8-1.45 6.15-5.05 10.8l-.1.2q-3.15 3.45-3.4 1.15" fill="#585172"/><path d="M7 64.65q-.95 7.45 4.3 11.5 4.4 1.45 8.55-.3 8-2.55 12.15-10.95 3.3-5.45 3-13.7-.5-2.85-1.45-4.8 4.05 6.15 1.1 16.15Q30.35 74.6 16 77.6q-3.5.25-6.5-1.55l-.3-.3Q4.85 70.2 7 64.65" fill="#f2e73f"/><path d="M10.65 71q-1.2-.65-1.45.9l-.1 1-.5-.95q-1.7-4.85-.85-8.25.3 3.05 2.25 6.15-1.4-.7.65 1.15" fill="#fea900"/><path d="M9.2 71.9q2.15 4.35 11.5 1.55l-1.6.65-.1.05q-.15.55.4 1-2.4.85-5.35.8-3 .1-4.95-3.05l.1-1" fill="#aca7c7"/></g><g id="W" fill-rule="evenodd"><path d="m29.7 21.2-1.25.25q-5.35 1.2-8.25 4.3l-.05.05-3.1.6-.45-.65 3.45-.7q1.1-1.6 3.3-2.85L19.5 8.4q-7.55.95-17.5 7.75-.35.25-1.6-.3Q4.65-7.95 35.65 4l.2.1 1.6 9.1-1.75-.55q2.1 3.15 3.35 5.95l1.3-.2-3.3-5 1.65 1.35q-.15-3.85-1.55-10.15l.7.3.1.05q2.2 6 1.35 10.3 1.95 1.4 1.95 2.8l2.85.9-.3.4-.95-.2q-3.15-.55-4.35.75-.35.35-.55.85l-2.2-.05q-1.1-1.9-2.6-3.5-.9.1-1.85 1.65l-1.6 2.35M.45 17.5q.15-1.55 1.05-.55l.2.8q1.05 3.7 4.7 7.4-.5 5.95.55 10.3.5 2.05 1.85 4.25-.65-3.8.95-6.2.35-3.35 2.5-5.35l.05 1.3-.5.6q-1.55 2.05-1.95 5.25H9.7l-.05.9q-.9 2.1-.3 4.6 2.2 3.7 7.1 5.3l4.65.6q2.85.25 5.5.1l1.65-2.7q.9-4.75-.9-7.95 3.45 1.95 6.55 1.25 6.05-.6 6.9-7.15 2.8 2 5.7 1.35-4.65 11.85-18.05 14.25 4.1.85 10.2-2.8l.2-.15 2.3-1.8q9.25-7.95 7.6-14.8l.75-2.1.05 1.2Q50.8 34.7 40.7 44 9.5 56.15 5.35 32.9q-.9-3.15.15-7.3-3.5-4-5.05-8.1" fill="#542724"/><path d="m21.1 46.7-4.65-.6q-4.9-1.6-7.1-5.3-.6-2.5.3-4.6l.1-.3.1-.6q.4-3.2 1.95-5.25Q6.55 44.2 21.1 46.7M6.95 35.45Q5.9 31.1 6.4 25.15q-3.65-3.7-4.7-7.4 1.95 3 6 6.2l-.75 11.5" fill="#e7c180"/><path d="m28.45 21.45 1.25-.25q-2.4 4.15-3 9.6 1.2 3.8 6.2 3.9 5.15-.55 5.55-6.85-.8-4.05-2.7-7.15l2.2.05q.2-.5.55-.85l.85.55q1.5-1.35 3.5-1.3l.95.2-2.35 2.85q-1.05 3.45 1.4 5.5 2 2.75 4.75.6l-1.1 3.3q-2.9.65-5.7-1.35-.85 6.55-6.9 7.15-3.1.7-6.55-1.25 1.8 3.2.9 7.95l-1.65 2.7q-2.65.15-5.5-.1-14.55-2.5-9.3-16.65l.5-.6q.15 4.55 1.8 8.65 2.8 3.15 6.5.9 2.35-2.45 1.2-6.05-2.85-3.4-4.75-6.55l3.1-.6.05-.05.9.9q2.85-3.7 7.35-5.2" fill="#876e83"/><path d="M.4 15.85q1.25.55 1.6.3 9.95-6.8 17.5-7.75l3.85 13.8q-2.2 1.25-3.3 2.85l-3.45.7q-2.15-3.6-3.15-6.85-1.2 4.85-1.2 9.25-2.15 2-2.5 5.35-1.6 2.4-.95 6.2-1.35-2.2-1.85-4.25l.75-11.5q-4.05-3.2-6-6.2l-.2-.8q-.9-1-1.05.55L0 16.4l.4-.55" fill="#604357"/><path d="M48.75 26.3q1.65 6.85-7.6 14.8l-2.3 1.8-.2.15q-6.1 3.65-10.2 2.8 13.4-2.4 18.05-14.25l1.1-3.3.25-.25.9-1.75" fill="#8cd1f8"/><path d="M37.15 4.6q1.4 6.3 1.55 10.15l-1.65-1.35 3.3 5-1.3.2q-1.25-2.8-3.35-5.95l1.75.55-1.6-9.1 1.3.5" fill="#93caf3"/><path d="m32 19.3-1.1 1.75q-2.85 4.9-3.25 9.4.2.8.65 1.45.9 1.4 2.65 1.85l2.35.2h.05q1.85-.55 3-2l.5-.75q.75-1.3 1.1-3.05-.95-3.8-3.15-7.4l-.5-.8-.45-.7-.7-.95-.25-.3-.7.95-.2.35m-2.3 1.9 1.6-2.35q.95-1.55 1.85-1.65 1.5 1.6 2.6 3.5 1.9 3.1 2.7 7.15-.4 6.3-5.55 6.85-5-.1-6.2-3.9.6-5.45 3-9.6m14.1-1.85.3-.4q3.25-4.5 6.25-11.35 1.1 10.15-.85 16.6l-.75 2.1-.9 1.75-.25.25q-2.75 2.15-4.75-.6-2.45-2.05-1.4-5.5l2.35-2.85m6.45-7.9v-.55l-.05-1.4-.4 1-.1.25-1.45 2.95-.15.3-.8 1.45-.8 1.25-1.7 2.55-.35.45-2.45 3q-.35 1.15-.2 2.1.1 1.25 1.05 2.25l.3.25.9.8q.85.5 1.95.45.75-.25 1.7-1.4l.4-1.1.3-.9.05-.25.55-2.15q1.3-5.25 1.25-11.3" fill="#716998"/><path d="M16.25 26.65q2.05 3.35 5.1 6.8l.15 1.8q-4.75-6.55-5.3-8.55l.05-.05m18.55-5.9q2.2 3.6 3.15 7.4-.35 1.75-1.1 3.05-.25-4.85-2.2-10.4l.15-.05m9.25 7.35-.9-.8-.3-.25q1.65-2.7 2.95-6l.4-1.1L48.1 14l.15-.3 1.45-2.95q-.95 5.65-2.4 10l-.5 1.5q-1.2 3.3-2.75 5.85" fill="#e3cbfd"/><path d="M31.1 21.1V21l.9-1.7.2.05-1.25 14.4q-1.75-.45-2.65-1.85.3-5.8 2.8-10.8m-17.6.05.5 2.6.15.55.1 2.4.1.95q.7 4.8 3.9 11.5l-2.2-.3Q14.3 34.8 13.7 28.1l-.1-1-.2-4.65.1-1.3m29.35 5.9q-.95-1-1.05-2.25 1.55-1.3 3.2-4.55l.35-.75 1.15-2.8.8-1.25.8-1.45-1.9 5.95-.4 1.1q-1.3 3.3-2.95 6" fill="#fff"/><path d="m30.9 21.05.2.05q-2.5 5-2.8 10.8-.45-.65-.65-1.45.4-4.5 3.25-9.4m-14.85 17.8q-.9-.35-1.6-1.05-1.25-4.4-1.3-9.25l-.05-1.15q0-2.4.3-4.95l.2 4.65.1 1q.6 6.7 2.35 10.75M41.8 24.8q-.15-.95.2-2.1l2.45-3 .35-.45 1.7-2.55-1.15 2.8-.35.75q-1.65 3.25-3.2 4.55" fill="#ffa803"/><path d="m14.15 24.3.55 2.2.25.8q1.6 5.8 4.5 11.55l-.1.05-1.1.25q-3.2-6.7-3.9-11.5l-.1-.95-.1-2.4m16.8 9.45 1.25-14.4v-.4l.7-.95.25.3.2 15.65h-.05l-2.35-.2m15.65-6.6 1-3.6.55-2.05 2.1-10.05q-.35 5.3-1.8 10.45l-.6 1.95-1.25 3.3" fill="#e3caff"/><path d="m16.6 25.75.45.65q1.9 3.15 4.75 6.55 1.15 3.6-1.2 6.05-3.7 2.25-6.5-.9-1.65-4.1-1.8-8.65l-.05-1.3q0-4.4 1.2-9.25 1 3.25 3.15 6.85m-3-4.75-.05-.15V21l-.05.15h.1l1.8 5 .3.75q2.65 6.3 5.6 9.5l.2-1.15-.15-1.8q-3.05-3.45-5.1-6.8l-.15-.25-.2-.4q-1.45-2.55-2.3-5m.55 3.3-.15-.55-.5-2.6-.1 1.3q-.3 2.55-.3 4.95l.05 1.15q.05 4.85 1.3 9.25.7.7 1.6 1.05l2.2.3 1.1-.25.1-.05q-2.9-5.75-4.5-11.55l-.25-.8-.55-2.2m19-6 .7.95.4 1.5q1.5 5.75 2.1 11.2-1.15 1.45-3 2l-.2-15.65m16.55-7.55.1-.25.4-1 .05 1.4v.55l-2.1 10.05-.55 2.05-1 3.6-.6 1.4q-1.1.05-1.95-.45 1.55-2.55 2.75-5.85l.5-1.5q1.45-4.35 2.4-10" fill="#706a98"/><path d="M13.55 21h.05q.85 2.45 2.3 5l.2.4.1.3q.55 2 5.3 8.55l-.2 1.15q-2.95-3.2-5.6-9.5l-.3-.75-1.8-5-.05-.15m20.3-1.75.45.7.3.8.05.05q1.95 5.55 2.2 10.4l-.5.75q-.6-5.45-2.1-11.2l-.4-1.5" fill="#afa7ce"/><path d="M50.25 11.45q.05 6.05-1.25 11.3l-.55 2.15-.05.25-.3.9-.4 1.1q-.95 1.15-1.7 1.4l.6-1.4 1.25-3.3.6-1.95q1.45-5.15 1.8-10.45" fill="#8ad1ff"/><path d="M20.2 25.75q2.9-3.1 8.25-4.3-4.5 1.5-7.35 5.2l-.9-.9" fill="#e5b97c"/></g><g id="X" fill-rule="evenodd"><path d="m22.35 6.45-2.4 2.4-.4.2q-7.6 4-10.35 8.65-2.85 4.95-7.05 15.85-2.5 3.55 3.5 17.55 1.95.85 19.55-5.15l.05-.05.45.55q-8.7 4.35-19 5.8 1.95 2.55 6.15 1.1 5.2-.95 13.6-3.85l.1.2-4.4 1.85-1.1.4L21 52q-6.2 2.2-11.45 2.85Q3.1 53.5 0 35.05l8.6-18.4q5.55-6.4 13.75-10.2m19.3-2.25-2.4-1.15v-.1l2.4 1.25" fill="#b25e16"/><path d="M26.45 49.5q-8.4 2.9-13.6 3.85-4.2 1.45-6.15-1.1 10.3-1.45 19-5.8l.05-.05.2-.05H26l.6 3.1.1-.05-.1.05-.15.05" fill="#e5831e"/><path d="m19.95 8.85.8-.5-3.6 4.4h-.05l-.05.05q-2.9 2.65-5.35 6.45-3.9 6.1-6.75 15.2l-.05.05q.7 6.45 2.9 12 .6.65 3.55-.5 5.55-1.95 9.6-4.35l2.8-1.9Q32.7 27.5 41.4 24.1q13.3-6.35 24.85-2.3 7.65 2.5 11.2 7.8l-.35.2q-11.95-11-30.15-4.8-14.9 5.7-21.7 20.9l-.05.05q-17.6 6-19.55 5.15-6-14-3.5-17.55 4.2-10.9 7.05-15.85 2.75-4.65 10.35-8.65l.4-.2" fill="url(#H)"/><path d="m5.85 33.35-.15.15-.75.95q2.85-9.1 6.75-15.2l-5.85 14.1m15.1 8.3-.4-.75 2.95-1.55q4.75-8 15.3-14.8l.05-.05v-.05l1.25-.65.35-.15.95-.35q11.95-4.35 16.8-4.15l8.4.85.5.1 1.3.25q1 .3 1.95.85 2.6 1.45 4.95 4.75l-1.85-4.15q7.4 9.85 6.25 13.3l-.85-.8.1-.1-.1-2-1.4-2.6q-3.55-5.3-11.2-7.8-11.55-4.05-24.85 2.3-8.7 3.4-17.65 15.65l-2.8 1.9" fill="#ce6901"/><path d="m16 15.6 1.45 7.05q-5 2.25-9.05 6.9 2.25-5.6 7.6-13.95" fill="#fefeda"/><path d="M17.15 12.75 18.3 23.1q-4.95 2.4-12.45 10.25l5.85-14.1q3-2.75 5.35-6.45l.05-.05h.05M16 15.6q-5.35 8.35-7.6 13.95 4.05-4.65 9.05-6.9L16 15.6" fill="#f7b916"/><path d="M17.05 12.8q-2.35 3.7-5.35 6.45 2.45-3.8 5.35-6.45" fill="#d56b00"/><path d="m30.05 23.3-.65-.05-7.95-9.9.05-.1 8.9-9.85 2-2.25.15-.05.3.1-2.75 21.45-.05.65m23.75-9.65q-2.3-.3-3.1-1.4l7.55-6.35h.1l3.2-.5 8.5-.8-8.8 10.45q-2.75-1.3-5.55-1.3h-.35l-1.55-.1M70.9 7l1.45 12.3-1.5-2.45v-.5L70.9 7" fill="#136394"/><path d="m32.85 1.2.4.25.75 1q1.65 2.8 5.45 13.05l-9.35 7.15L32.85 1.2m17.7 11L53 4.5l.5-.05q2.75.45 4.8 1.4l-.05.05-7.55 6.35-.15-.05m11.6 3.3L70.9 4.8V7l-.05 9.35-8.3-.65-.4-.2M18.3 24.15l-7.9 10.3-.05.3-.5-.25v-.05l-4.45.4-.05-.05Q16.1 23.95 18.3 24.15" fill="#fafdf2"/><path d="m44.75 15.4-5.1.7v-.05l-.2-.55Q35.65 5.25 34 2.45l2.8 1.5q4.75 5.9 7.95 11.45" fill="#166294"/><path d="M18 12.75v-.05q5.9-7.9 12.45-10.8L18 12.75m3.5.5h-.6l-2.1.05q4.5-5.45 11.6-9.9l-8.9 9.85" fill="#effaf2"/><path d="m40.05 23.65-10-.35.05-.65 9.35-7.15.2.55v.05l.4 7.55m-21.1-3.85L18 12.75 30.45 1.9q1-.45 1.95-.75l-2 2.25q-7.1 4.45-11.6 9.9l2.1-.05-1.95 6.55" fill="#87ddf8"/><path d="m35.5 2.4 10.6 4.65 3.7 5.6-4.8 2.7-.25.05q-3.2-5.55-7.95-11.45L35.5 2.4" fill="#58aed1"/><path d="m29.4 23.25-10-.3-.3-2 2.35-7.6 7.95 9.9m42.95-3.95.5.85-.15.4q-.95.75-2.35.65-.95-.55-1.95-.85l-.3-.3q2.5-.4 2.75-3.2l1.5 2.45M10.4 34.45 19.75 41v.15Q14.15 43.6 8.65 46l-.05-.05 1.75-11.2.05-.3" fill="#0085c6"/><path d="m22.35 6.45.25-.1.4-.2q3-2.75 8.8-5.5Q33.15-.8 34.35 1l3.35 1.3h.05L46 1.85q4.7.35 8.8 2.05 7.35-.9 16.6-.35 2.05 14 1.45 16.6l-.5-.85L70.9 7V4.8l-8.75 10.7-.9-.45 8.8-10.45-8.5.8 8.3-1.2q-7.75-.4-16.35.25l-.5.05-2.45 7.7-.05.2.2-.15q.8 1.1 3.1 1.4l-.05.2q-8.7-.9-12.35 9.45l-.95.35h-.4l.05.15-1.25.65-.1.05-19.35-1 1.1 17.25v.15h.05l.4.75q-4.05 2.4-9.6 4.35-2.95 1.15-3.55.5-2.2-5.55-2.9-12l.05-.05.75-.95.15-.15q7.5-7.85 12.45-10.25l-1.15-10.35 3.6-4.4-.8.5 2.4-2.4m7.7 16.85 10 .35-.4-7.55 5.1-.7.25-.05 4.8-2.7-3.7-5.6L35.5 2.4l-2.25-.95-.4-.25-.3-.1-.15.05q-.95.3-1.95.75Q23.9 4.8 18 12.7v.05l.95 7.05.15 1.15.3 2 10 .3.65.05M19.75 41l-1-16.65-.2-.1-.25-.1q-2.2-.2-12.95 10.65l.05.05q1.25 6.1 2.75 10.05l.45 1.05V46h.05q5.5-2.4 11.1-4.85V41M52.3 5.05l.25-.85q-3.25-1.75-6.6-2.1-3.3-.3-6.7.85v.1l2.4 1.15 4.5 2.3q1.05 1 3.8 5.45l2.35-6.9" fill="#0084cc"/><path d="M20.5 40.75 19.4 23.5l19.35 1 .05.05q-10.55 6.8-15.3 14.8l-2.95 1.55-.05-.15m.3-16 .5 13.5q2.6-1.15 4.5-5.05 3.85-5.7 9.25-7.7l-14.25-.75" fill="#f1b932"/><path d="m20.8 24.75 14.25.75q-5.4 2-9.25 7.7-1.9 3.9-4.5 5.05l-.5-13.5" fill="#fdff9c"/><path d="m18.3 24.15.25.1.2.1 1 16.65-9.35-6.55 7.9-10.3" fill="#126293"/><path d="M53.5 4.45q8.6-.65 16.35-.25l-8.3 1.2-3.2.5-.05-.05q-2.05-.95-4.8-1.4M8.15 44.9q-1.5-3.95-2.75-10.05l4.45-.4v.05l-1.7 10.4" fill="#87dbf7"/><path d="m8.6 45.95-.45-1.05 1.7-10.4.5.25-1.75 11.2" fill="#45d0fb"/><path d="M70.85 16.35v.5q-.25 2.8-2.75 3.2-2.8-2.8-5.55-4.35l8.3.65" fill="#86daf6"/><path d="M41.4 23.3q3.65-10.35 12.35-9.45l1.6-.1h.35q2.8 0 5.55 1.3l.9.45-.1.15.5.05q2.75 1.55 5.55 4.35l-1 .05-.5-.1-8.4-.85q-4.85-.2-16.8 4.15M52.3 5.05l-2.35 6.9Q47.2 7.5 46.15 6.5l-4.5-2.3q5.3-.95 10.65.85" fill="#d88328"/><path d="m25.7 46.45-.45-.55q6.8-15.2 21.7-20.9 18.2-6.2 30.15 4.8l.1.5.55 1.8q-3.8-5.75-15.9-8.05-10.2-1.3-20.4 4.6-11.05 8.3-15.35 17.4l-.1.3h-.05l-.2.05-.05.05" fill="#4d6b73"/><path d="M39.25 2.95q3.4-1.15 6.7-.85 3.35.35 6.6 2.1l-.25.85q-5.35-1.8-10.65-.85l-2.4-1.25" fill="#ecc53a"/><path d="M78.85 34.3q-.3 1.65-.9 1.65l-.4-1.8q-10.75-10.9-26.2-6.75-16.55 4.4-24.65 22l-.1.05-.6-3.1.1-.3q4.3-9.1 15.35-17.4 10.2-5.9 20.4-4.6 12.1 2.3 15.9 8.05.45 1.25 1.05 2.1l.05.1" fill="url(#I)"/><path d="m77.95 35.95.15.75q1 7.6-3.5 4.7-19.45-14.6-39.9 5.9-2.85 2.85-5.7 6.4l-.05.05q-4.3-.4-6.8-2.2l4.4-1.85.15-.3q8.1-17.6 24.65-22 15.45-4.15 26.2 6.75l.4 1.8M34 43.2l1.75 1.65Q47.25 31.2 66 31.95q1.45-.35-.15-2.2-15.05-.2-23.3 6-7.95 5.9-8.55 7.45" fill="#473662"/><path d="M21.9 62.65 21 52l.05-.05 1.1-.4q2.5 1.8 6.8 2.2H29q-1.7 5.8-7.1 8.9m.8-9.1-.3-.2.4 6.3 2.95-2.6q1.05-1.3 1.35-2.45-2.55.25-4.4-1.05" fill="#9a520a"/><path d="m25.75 57.05-2.95 2.6-.4-6.3.3.2q.7 2.15 3.05 3.5" fill="#fbff82"/><path d="M22.7 53.55q1.85 1.3 4.4 1.05-.3 1.15-1.35 2.45-2.35-1.35-3.05-3.5" fill="#e6801c"/><path d="M34.7 47.3q1.4 4.25-.45 8.8-1.75 6.75-5.3 9.5l-6.35 4.85-.7-7.8q5.4-3.1 7.1-8.9v-.05q2.85-3.55 5.7-6.4m-5.15 7-.1.3Q28 59.05 24.3 62l.25 1.55q4.7-4 7.4-9.95-1.45-.5-2.4.7m-5.3 13.8q7.7-4.55 10-15.85Q28.6 65.4 24.2 67.15q-.75.45.05.95" fill="#756893"/><path d="M29.55 54.3q.95-1.2 2.4-.7-2.7 5.95-7.4 9.95L24.3 62q3.7-2.95 5.15-7.4l.1-.3" fill="#e1cdff"/><path d="M24.25 68.1q-.8-.5-.05-.95 4.4-1.75 10.05-14.9-2.3 11.3-10 15.85" fill="#fbfbfb"/><path d="M34 43.2q.6-1.55 8.55-7.45 8.25-6.2 23.3-6 1.6 1.85.15 2.2-18.75-.75-30.25 12.9L34 43.2" fill="url(#J)"/></g><g id="m" transform="translate(.4 .4)"><filter id="K"><feColorMatrix in="SourceGraphic" result="filterResult0" values="0 0 0 0 1.0,0 0 0 0 0.0,0 0 0 0 0.0,0 0 0 1 0"/><feConvolveMatrix divisor="180" in="filterResult0" kernelMatrix="1 1 1 1 1 1 1 1 1 1 1 1 1 1 1 1 1 1 1 1 1 1 1 1 1 1 1 1 1 1 1 1 1 1 1 1 1 1 1 1 1 1 1 1 1 1 1 1 1 1 1 1 1 1 1 1 1 1 1 1 1 1 1 1 1 1 1 1 1 1 1 1 1 1 1 1 1 1 1 1 1 1 1 1 1 1 1 1 1 1 1 1 1 1 1 1 1 1 1 1 1 1 1 1 1 1 1 1 1 1 1 1 1 1 1 1 1 1 1 1 1 1 1 1 1 1 1 1 1 1 1 1 1 1 1 1 1 1 1 1 1 1 1 1 1 1 1 1 1 1 1 1 1 1 1 1 1 1 1 1 1 1 1 1 1 1 1 1 1 1 1 1 1 1 1 1 1 1 1 1" order="15 12" result="filterResult1"/><feComposite in="SourceGraphic" in2="filterResult1" result="filterResult2"/></filter><use ffdec:characterId="27" filter="url(#K)" height="67.65" transform="translate(-.4 -.4)" width="34.85" xlink:href="#L"/></g><g id="Y"><path d="M11 .6q-.15 5.2 1.1 9.1 1.3 3.95 5.3 9.15l6.2 8.3.4.65.25.45q2.2 4.65 2.2 9.9l-.1 3.05q1.9-2.25 1.35-7l-.6-5.8q2.05 4.7 2.65 9.65.55 4.9.2 8.8-.4 3.85-2.7 8.8 1-.3 2.3-2.4 2.05-4.15 4.5-5.85-1.8 3.95-3.3 8.25-1.45 4.15-4.65 6.95-3.65 3.1-8.55 4.15l-4.95-.4q-3.9-.8-6.9-3.15-2.95-2.3-5.3-6l5.7 3.9q-2.65-3.85-4.75-8.3-2.15-4.45-.9-9.85 1.2-5.35 6.25-9.2-2.25 3.45-3.05 7.65-.6 3.15.35 6.1l1.2-1.35L6.65 42q.7-2.65 6.75-7.05.15-1.05-1.4-4.15-1.55-3.15-5.45-7.05 5.45 2.05 10 5.75.15-1.2-.45-3.9-.6-2.75-3.5-7.3-2.95-4.6-2.6-9.25.25-4.3 1-8.45m5.6 46.35q-.7-2.2-.7-3.4 0-2.05 2.05-5.75Q20 34.15 20 33.1l-.35-2.25-.7-1.8q-.35.6-.45 2.05-.1 1.4-1.9 4.2l-2.55 3.75-3.3 4.55q-2.25 2.55-2.3 4.35l-.45-.8-.45-.5q-.75 0-1.1 1.9-.3 1.4-.3 3.05 0 1.55.65 4.7.9 3.4 2.9 4.5 2 1.05 4.65 1.15 2.6.1 6.7-3.05l-3.9.5q-4.6.5-7.3-3.65l1.9.6 2.55-.1 1.8-.5 3.25-.75q2.95-.7 5.45-3.3 1.45-1.6 2.65-4.2.05-2.25-.8-1.2.1.45-.3.8-1.05 1-2.25 1.65-1.95 1.05-3.3 2.6l-.25.3-3.75 2.5-2.55.4q-1.55 0-3.2-1.2-1.65-1.25-1.35-3.1.3-1.85 1.25-2.75.9-.95 1.6-.95l1.1.15v.5l-.85 1.2q-.7.95-.7 1.3 0 .5.35 1l1.35.95q1.05.5 3.05-.3 2.25-.75 2.75-2.5 2.2-6.1 2.2-8.5 0-1.8-.7-2.4-.85.25-.9 1.5l-.9 3.3q-1.45 3.55-2.65 4.3l-.05-.1" fill="#fff" fill-rule="evenodd" transform="translate(.4 .4)"/><path d="m11.5.4-.05.35-.05.25q-.15 5.2 1.1 9.1 1.3 3.95 5.3 9.15l6.2 8.3.4.65.25.45q2.2 4.65 2.2 9.9l-.1 3.05q1.9-2.25 1.35-7l-.6-5.8q2.05 4.7 2.65 9.65.55 4.9.2 8.8-.4 3.85-2.7 8.8 1-.3 2.3-2.4 2.05-4.15 4.5-5.85-1.8 3.95-3.3 8.25Q29.7 60.2 26.5 63q-3.65 3.1-8.55 4.15l-4.95-.4q-3.9-.8-6.9-3.15-2.95-2.3-5.3-6l5.7 3.9q-2.65-3.85-4.75-8.3-2.15-4.45-.9-9.85 1.2-5.35 6.25-9.2-2.25 3.45-3.05 7.65-.6 3.15.35 6.1l1.2-1.35 1.45-4.15q.7-2.65 6.75-7.05.15-1.05-1.4-4.15-1.55-3.15-5.45-7.05 5.45 2.05 10 5.75.15-1.2-.45-3.9-.6-2.75-3.5-7.3-2.95-4.6-2.6-9.25.25-4.3 1-8.45m5.65 46.45q1.2-.75 2.65-4.3l.9-3.3q.05-1.25.9-1.5.7.6.7 2.4 0 2.4-2.2 8.5-.5 1.75-2.75 2.5-2 .8-3.05.3l-1.35-.95q-.35-.5-.35-1 0-.35.7-1.3l.85-1.2v-.5l-1.1-.15q-.7 0-1.6.95-.95.9-1.25 2.75-.3 1.85 1.35 3.1 1.65 1.2 3.2 1.2l2.55-.4 3.75-2.5.25-.3q1.35-1.55 3.3-2.6 1.2-.65 2.25-1.65.4-.35.3-.8.85-1.05.8 1.2-1.2 2.6-2.65 4.2-2.5 2.6-5.45 3.3l-3.25.75-1.8.5-2.55.1-1.9-.6q2.7 4.15 7.3 3.65l3.9-.5q-4.1 3.15-6.7 3.05-2.65-.1-4.65-1.15-2-1.1-2.9-4.5-.65-3.15-.65-4.7 0-1.65.3-3.05.35-1.9 1.1-1.9l.45.5.45.8q.05-1.8 2.3-4.35l3.3-4.55L17 35.7q1.8-2.8 1.9-4.2.1-1.45.45-2.05l.7 1.8.35 2.25q0 1.05-2.05 4.7-2.05 3.7-2.05 5.75 0 1.2.7 3.4v.1h.05z" fill="none" stroke="#d26a00" stroke-linecap="round" stroke-linejoin="round" stroke-width=".8"/></g><g id="n" transform="translate(2.45 .4)"><filter id="M"><feColorMatrix in="SourceGraphic" result="filterResult3" values="0 0 0 0 1.0,0 0 0 0 0.0,0 0 0 0 0.0,0 0 0 1 0"/><feConvolveMatrix divisor="180" in="filterResult3" kernelMatrix="1 1 1 1 1 1 1 1 1 1 1 1 1 1 1 1 1 1 1 1 1 1 1 1 1 1 1 1 1 1 1 1 1 1 1 1 1 1 1 1 1 1 1 1 1 1 1 1 1 1 1 1 1 1 1 1 1 1 1 1 1 1 1 1 1 1 1 1 1 1 1 1 1 1 1 1 1 1 1 1 1 1 1 1 1 1 1 1 1 1 1 1 1 1 1 1 1 1 1 1 1 1 1 1 1 1 1 1 1 1 1 1 1 1 1 1 1 1 1 1 1 1 1 1 1 1 1 1 1 1 1 1 1 1 1 1 1 1 1 1 1 1 1 1 1 1 1 1 1 1 1 1 1 1 1 1 1 1 1 1 1 1 1 1 1 1 1 1 1 1 1 1 1 1 1 1 1 1 1 1" order="15 12" result="filterResult4"/><feComposite in="SourceGraphic" in2="filterResult4" result="filterResult5"/></filter><use ffdec:characterId="36" filter="url(#M)" height="64.95" transform="translate(-.4 -.4)" width="178.45" xlink:href="#N"/></g><g id="Z"><path d="M150.15 48.25q-2.05 2.1-6.7 4.35-4.25 2.05-4.25 2.65l4.05.7q1.3.55 4.15-.5 3-1.15 5.15-1.4l11.85-3.25-3.35-.3q.55-.85 2.6-2.65 2-1.8 3.35-5.1 1.35-3.35 1.45-5.55l.4.5.15.8q-.2.35.2.7.3.35 0-1.2-.35-1.6-.3-3.95.05-2.4-.7-3.45l4.7-2.7q1.4-1.75 3.7-2.6h1.05q-.15.75-.9 1.4l-1.7 1.05q-.75.45-1.8 1.95l-1.45 1.9q-1.3 1.25-1.4 4l-.3 4.4.3 5.8q.05 1.25-.55 2.6l-1.05-1.75-3.15 4.55q-2.45 3.2-8.75 4.4-6.3 1.2-9.75 2.2-6.35 1.6-13.05 1.55l-13.5-.45q2.15.05 4.3-.75l4.25-1.9 3.8-1.05q2.6-.65 4-1.55 1.8-1.2 5.45-5.45 4.2-4.95 4.2-7.2 0-.4-.75-.4h-1.2l-.25-.75-.25-.6h-.45l-.05.6.2.6v.65l-.55.1q-.75 0-.9-.65v-.85q0-2.25 1.6-3.55 1.5-1.2 3.75-1.2 1.4 0 2.1 1.7.5 1.25.5 2.75 0 3.95-2.65 5.25l-1.8.75q-.85.5-.85 1.3 0 1.5 1.85 1.55l2.95-.25.3.25m-7.65-34.5q1.15.7 1.4 2.2l.25 3.95q.1 2.95 2.85 2.8 2.7-.15 9.2-1.9l.7 3.3q.6 2 1.45 3.25l1.5 2.5q.6 1.3.5 4.8l-.25 1.7h-.2q-1.45-3.55-2.8-5.3-1.9-2.4-4.6-3.65-2.75-1.3-5.85-2.5l-4.9-1.75-3.95-.45v-.5q1-.7 2.75-4.15l1.95-4.3M1.85 47.65q.45 1 1.7 2.1L6.25 52q.6-2.3.6-3.4 0-1.75-.55-3.4-.45-1.25-1.5-3L3 39.45l-1.45-1.3Q.4 37.35 0 36.35q6.5 3.15 7.45 4.35l.95 2.05.3.75 1.55 2.35q1.2 1.3 2.6 1.3 1.35-.05 2.65 1.05 1.1 1 1.85 1 .45 0 .45-.7 0-.75-.6-2.2l-.8-1.75-.2-.45v-.05q-.05-2.45-1.7-3.95-2.25-2.05-2.55-3.2-.35-1.35-1.9-3.15l-1.35-1.2-.45-.4q-.9-.8-1.15-1.8l.1-.15q.65-1 1.75-1.85 1.1-.9 3.65-1.85 2.5-.95 4.4-1.2 1.85-.25 2.85-1.4.95-1.2-.15-4.75l.25-.45q2.1-2.6 2.5-6.2l.05-.35.2-3.65q0-1.8-.45-2.95-.45-1.15-.45-1.8l.25-.7.2-.6-.15-.85-.3-.95-.15-.65.75.65q1.05 1.1 2.05 3.1 1.3 2.45 1.7 4.6.6 2.9 1.6 3.6l1.75.75q1.45.7 1.45 1.5l-1.5 6.7q2.8.5 5.3-1.15h.3q.9 2.7-2.6 3.55l-6.8 1.7q-3.3.85-4.95 1.9l-2.8 1.45.55.25q.2.05.2.6l-2.7 1.7q-2.8 1.85-3.2 3.3-.4 1.4.85 2.35l2 1.5q1.3 1 1.95 4.15l.15.5q1.35 4.25 3.3 7.75 2 3.65 4.25 3.8l4.9.1 2.35.45.2.15q3.75 2.7 7.75 3.25 4.05.55 5.8-1.15l4.45.35 7.95-.95 3.2-.8 1.6-.55q-3.2-3-3.8-5.3-.65-2.4 1.05-3.55 1.75 3.4 4.45 6.1 3.5 3.45 7.8 6.2l.35.05.25.05.8.15 3.35-.1h.1l4.1-.35 3.25-.2q1.75 0 2.3.4.5.35 1.3.35l3-.25 4.35.6 4.65.55.05.25-7.95 1.5q-5 .05-10 1.3l-5.15.75-4.4.3-11.6.25-5.9-1.45-8.3-.9-10.65-1.2q-2.65-.3-5.95-1.5-2.6-1.75-5-2.3l-7.75.45q-2.3-5.75-4.85-6.05-2.6-.35-4.6 1h-.05q-2 1.4-2.4 1.4-.65 0-2.6-2.5-1.95-2.5-1.95-3.35l.15-.1" fill="#fff" fill-rule="evenodd" transform="translate(.4 .4)"/><path d="M150.55 48.65q-2.05 2.1-6.7 4.35-4.25 2.05-4.25 2.65l4.05.7q1.3.55 4.15-.5 3-1.15 5.15-1.4l11.85-3.25-3.35-.3q.55-.85 2.6-2.65 2-1.8 3.35-5.1 1.35-3.35 1.45-5.55l.4.5.15.8q-.2.35.2.7.3.35 0-1.2-.35-1.6-.3-3.95.05-2.4-.7-3.45l4.7-2.7q1.4-1.75 3.7-2.6h1.05q-.15.75-.9 1.4l-1.7 1.05q-.75.45-1.8 1.95L172.2 32q-1.3 1.25-1.4 4l-.3 4.4.3 5.8q.05 1.25-.55 2.6l-1.05-1.75-3.15 4.55q-2.45 3.2-8.75 4.4-6.3 1.2-9.75 2.2-6.35 1.6-13.05 1.55L121 59.3q2.15.05 4.3-.75l4.25-1.9 3.8-1.05q2.6-.65 4-1.55 1.8-1.2 5.45-5.45 4.2-4.95 4.2-7.2 0-.4-.75-.4h-1.2l-.25-.75-.25-.6h-.45l-.05.6.2.6v.65l-.55.1q-.75 0-.9-.65v-.85q0-2.25 1.6-3.55 1.5-1.2 3.75-1.2 1.4 0 2.1 1.7.5 1.25.5 2.75 0 3.95-2.65 5.25l-1.8.75q-.85.5-.85 1.3 0 1.5 1.85 1.55l2.95-.25h.5l-.2.25m-7.65-34.5q1.15.7 1.4 2.2l.25 3.95q.1 2.95 2.85 2.8 2.7-.15 9.2-1.9l.7 3.3q.6 2 1.45 3.25l1.5 2.5q.6 1.3.5 4.8l-.25 1.7h-.2q-1.45-3.55-2.8-5.3-1.9-2.4-4.6-3.65-2.75-1.3-5.85-2.5l-4.9-1.75-3.95-.45v-.5q1-.7 2.75-4.15l1.95-4.3.05-.05.15-.6m-41.95 46.7-4.65-.55-4.35-.6-3 .25q-.8 0-1.3-.35-.55-.4-2.3-.4l-3.25.2-4.1.35h-.1l-3.35.1-.8-.15-.25-.05-.35-.05q-4.3-2.75-7.8-6.2-2.7-2.7-4.45-6.1-1.7 1.15-1.05 3.55.6 2.3 3.8 5.3l-1.6.55-3.2.8-7.95.95-4.45-.35q-1.75 1.7-5.8 1.15-4-.55-7.75-3.25l-.2-.15-2.35-.45-4.9-.1q-2.25-.15-4.25-3.8-1.95-3.5-3.3-7.75l-.15-.5q-.65-3.15-1.95-4.15l-2-1.5q-1.25-.95-.85-2.35.4-1.45 3.2-3.3l2.7-1.7q0-.55-.2-.6l-.55-.25 2.8-1.45q1.65-1.05 4.95-1.9l6.8-1.7q3.5-.85 2.6-3.55h-.3q-2.5 1.65-5.3 1.15l1.5-6.7q0-.8-1.45-1.5l-1.75-.75q-1-.7-1.6-3.6-.4-2.15-1.7-4.6-1-2-2.05-3.1L22.05.4l.15.65.3.95.15.85-.2.6-.25.7q0 .65.45 1.8t.45 2.95l-.2 3.65-.05.35q-.4 3.6-2.5 6.2l-.25.45q1.1 3.55.15 4.75-1 1.15-2.85 1.4-1.9.25-4.4 1.2-2.55.95-3.65 1.85-1.1.85-1.75 1.85l-.1.15q.25 1 1.15 1.8l.45.4 1.35 1.2q1.55 1.8 1.9 3.15.3 1.15 2.55 3.2 1.65 1.5 1.7 3.95v.05l.2.45.8 1.75q.6 1.45.6 2.2 0 .7-.45.7-.75 0-1.85-1-1.3-1.1-2.65-1.05-1.4 0-2.6-1.3L9.1 43.9l-.3-.75-.95-2.05Q6.9 39.9.4 36.75q.4 1 1.55 1.8l1.45 1.3 1.8 2.75q1.05 1.75 1.5 3 .55 1.65.55 3.4 0 1.1-.6 3.4l-2.7-2.25q-1.25-1.1-1.7-2.1l-.15-.3v.4q0 .85 1.95 3.35t2.6 2.5q.4 0 2.4-1.4h.05q2-1.35 4.6-1 2.55.3 4.85 6.05l7.75-.45q2.4.55 5 2.3 3.3 1.2 5.95 1.5l10.65 1.2 8.3.9 5.9 1.45 11.6-.25 4.4-.3 5.15-.75q5-1.25 10-1.3l7.95-1.5 1.65-.3-1.7.05z" fill="none" stroke="#d26a00" stroke-linecap="round" stroke-linejoin="round" stroke-width=".8"/></g><use ffdec:characterId="2" height="82.2" width="43.05" xlink:href="#O" id="c"/><use ffdec:characterId="4" height="54.55" width="43.75" xlink:href="#P" id="d"/><use ffdec:characterId="6" height="79" width="61.05" xlink:href="#Q" id="e"/><use ffdec:characterId="8" height="58.95" width="60.7" xlink:href="#R" id="f"/><use ffdec:characterId="10" height="89" width="118.7" xlink:href="#S" id="g"/><use ffdec:characterId="16" height="77.4" width="58.4" xlink:href="#T" id="h"/><use ffdec:characterId="18" height="49.35" width="34.8" xlink:href="#U" id="i"/><use ffdec:characterId="20" height="211.2" width="167.9" xlink:href="#V" id="j"/><use ffdec:characterId="22" height="48.15" width="50.75" xlink:href="#W" id="k"/><use ffdec:characterId="24" height="70.45" width="79.85" xlink:href="#X" id="l"/><use ffdec:characterId="26" height="67.65" width="34.85" xlink:href="#Y" id="L"/><use ffdec:characterId="35" height="64.95" width="178.45" xlink:href="#Z" id="N"/><radialGradient cx="0" cy="0" gradientTransform="translate(24.95 33.7) scale(.0108)" gradientUnits="userSpaceOnUse" id="s" r="819.2" spreadMethod="pad"><stop offset="0" stop-color="#fbf472"/><stop offset=".667" stop-color="#e38114"/></radialGradient><path d="M27.75 0q0 2-8.15 3.4Q11.5 4.9 0 4.9q-11.5 0-19.65-1.5-8.1-1.4-8.1-3.4 0-2.05 8.1-3.5Q-11.5-4.9 0-4.9q11.5 0 19.6 1.4 8.15 1.45 8.15 3.5" fill-opacity=".349" fill-rule="evenodd" transform="translate(27.75 4.9)" id="b"/></defs></svg>