<svg xmlns:ffdec="https://www.free-decompiler.com/flash" xmlns:xlink="http://www.w3.org/1999/xlink" ffdec:objectType="frame" height="90" width="90" xmlns="http://www.w3.org/2000/svg"><use ffdec:characterId="30" height="207.45" transform="matrix(.4296 0 0 .4295 -3.48 -.392)" width="236.6" xlink:href="#a"/><use ffdec:characterId="31" height="56.15" transform="scale(2.3255 1.6028)" width="38.7" xlink:href="#b"/><defs><g id="a" transform="translate(8.1 6.85)"><use ffdec:characterId="1" height="40.2" transform="matrix(.586 0 0 .586 18.1 174.25)" width="221.6" xlink:href="#c"/><use ffdec:characterId="2" height="100.05" transform="matrix(-.1958 -.4127 -.4127 .1958 56.84 94.975)" width="77.7" xlink:href="#d"/><use ffdec:characterId="3" height="85.85" transform="matrix(.586 0 0 .586 -.293 81.22)" width="94.7" xlink:href="#e"/><use ffdec:characterId="4" height="109.55" transform="matrix(.586 0 0 .586 29.664 116.521)" width="87.6" xlink:href="#f"/><use ffdec:characterId="5" height="190.9" transform="matrix(.586 0 0 .586 46.014 -.586)" width="245.15" xlink:href="#g"/><use ffdec:characterId="6" height="46.15" transform="rotate(45.364 27.73 256.556) scale(.8248)" width="34.8" xlink:href="#h"/><use ffdec:characterId="7" height="129.15" transform="matrix(.586 0 0 .586 126.971 85.047)" width="96.9" xlink:href="#i"/><use ffdec:characterId="8" height="253.9" transform="matrix(.586 0 0 .586 50.571 17.664)" width="153.6" xlink:href="#j"/><use ffdec:characterId="9" height="131.45" transform="matrix(.586 0 0 .586 89.3 121)" width="87.7" xlink:href="#k"/><use ffdec:characterId="10" height="159.8" transform="matrix(.586 0 0 .586 63.707 60.321)" width="105.65" xlink:href="#l"/><use ffdec:characterId="2" height="100.05" transform="matrix(.4448 .1042 -.1042 .4448 105.714 84.666)" width="77.7" xlink:href="#d"/><use ffdec:characterId="11" height="144.45" transform="matrix(.586 0 0 .586 17.514 22.471)" width="146.8" xlink:href="#m"/><use ffdec:characterId="12" height="22" transform="matrix(.586 0 0 .586 49.249 61.942)" width="26.7" xlink:href="#n"/><clipPath id="o" transform="matrix(.586 0 0 .586 45.85 59.1)"><path d="M26 6.35q4.7 2.75 6.5 9l-.85.6-1.15.75-2.85 1.7-3.05 1.65-8.25 3.9-7.1 2.85q-2.9.3-3.45-1.1Q7.85 14.8 16.25 7.05l.8-.7q3.1-2.25 6.7-1.1L26 6.35" fill="#fdfdfd" fill-rule="evenodd"/></clipPath><g clip-path="url(#o)"><use ffdec:characterId="13" height="30.6" transform="matrix(.586 0 0 .586 45.557 58.836)" width="28.4" xlink:href="#p"/></g><use ffdec:characterId="14" height="28.7" transform="matrix(.586 0 0 .586 48.75 59.1)" width="31.65" xlink:href="#q"/><use ffdec:characterId="15" height="41.9" transform="matrix(.586 0 0 .586 31.753 53.674)" width="67.2" xlink:href="#r"/></g><g id="d"><path d="M30 89.45v.05-.05M82.45 43.6h-.1v-.1l.1.1m-4.7 16.25v.05l-.1-.15.1.1" fill="#ffb500" fill-rule="evenodd" transform="translate(-27.45 1)"/><path d="m56.5 82.3-.1-.05h.1v.05" fill="#fd0" fill-rule="evenodd" transform="translate(-27.45 1)"/><path d="m28.65 86.45-.1-.65q-.45-2.7.75-5.65l1.75-2.75q1.85-3 5.3-4.1 3.4-1.2 5.55-1.3 2.1-.15 3.15-1.1 1.05-.95 1.05-2.1l1.3-2.7q1.3-2.55 4.7-4.7 1.35-.7 1.5-3.25.15-2.5 1.25-4.05 1.05-1.55 1.45-1.55l2-1.6q1.7-1.6 1.5-4.55l.45 2.55q0 1.15-2 5.5-2.05 4.35-2.4 7-.35 2.65.45 4.8.8 2.2.8 3.15 0 1.75-.9 3.4-.9 1.7-2.7 2.5-1.8.8-2.1 2.2-.25 1.45.4 2.3 9.2-.45 9.2-7.7 0-1.5-.55-3.65t-.55-4.05q0-1.55.3-2.75l.4-1.25.05-.25q1.85-6.55 4.75-10.5l4.3-6.45q1.1-2.1.15-4.2l-2.35-4.6-2-3.8q-.65-1.35-.55-4.6.05-3.2 3.7-8.4l.1-.15q1.05-1.25 1.05-2.55 0-1.15-.95-3.8t-.75-4.75Q68.6 2 73 0l.1.1q-.7.45-1.05 1.1l1.85-.1q-1.35.4-2.6 1.65-1.45 1.45-1.1 2.65l1.25-1.65.05.05-.6 1.6-.4 2.15q0 1.05.8 2.1l.9 1.75q.2.75.05 1.55.45-.65 1.35-1.35l1.4-.85 1.2-1.55q.55-.9 1.1-.9.75 0 1.05.45l-.05.6h.05q.05.55-1.45 1.15-1.6.6-2.6 2.45-1.05 1.8-1.35 4.75-.4 2.9.25 4 .65 1.05 2 1.15l3.65-.4q4.45.85 6.7 2.45 2.15 1.55 2.65 3.2.45 1.6.05 4.05.3.75 1.25.9 1.95.4 3.4-.95t1.8-3.25l.25-1.4q.25-1.6-.3-3.3l-.95-2.35-1.4-2.3-1.85-2.45-.95-1.5q-.55-1.05-.45-2.15.15-1.9 1.15-3.65 1.2-2.05 3.3-2.6l.75-.1q-2.4 1.55-2.15 4.9.25 3.35 3.85 4.35 3.6 1 6 6.7 2.35 5.7 2.2 17-1.1 6.45-4.6 10-3.5 3.5-7.35 4.85-1.7.7-2.55 1.55-.85.9-1.8 4l-.35-.1-.75 2.55q-1.2 5.45-2.8 7.65-1.65 2.2-2.95 2.85l-1.35.5-.75.15h-.05q-3.05 0-4.35.95-2.6 1.85-3.55 3.3-.65 1.1-1.8 4.2-1.1 2.8-2.2 4.4-1.55 2.2-2.9 2.45-1.5.4-1.95.95-.6 1.35-1.35 1.65l-.5.1q-.85.15-1.6.6h-.05l.1.15q-1.05.65-2.2 1.9-2.2 2.3-4.55 3l-1.1.2q-2.9.4-5.2.05-2.35-.35-3.5-1.55-1.15-1.95-2.55-2.7l-1.45-.55h-.9l-.7.1-.05.05q-1.85.15-3.4-.7-1.65-.9-3-2.9l-.1-.15v-.05q0-1.05 1.25-1.05 1.05 0 2.1.55.5 0 .95-.45.45-.5.85-.5.4 0 .95.6.55.6 1 .6l2.65-.15q2.6 0 7.35 2.1l3.7.25 1.15.55 2.15.3q2.55 0 4.4-2.5l1.4-2.3q.45-1.55.35-2.6-.05-1.4 1.3-2.15.75-.45 2.45-1.1 3-1.5 3.8-2.8l.15-.2q1.9-.7 4.2-2.9L74 73.5q.95-1 2.6-1l2.05.15q.85 0 1.75-.7Q82 70.6 82.3 69l.2-1.7q.15-.9.6-1.6 2.2-1.55 2.45-2.5.75-2.5.65-3.3-.1-.7.45-1.6l.75-1.25q.3-.7.4-3.1 0-1.6.35-2.45l.3-.55q.85-1.6 2.7-2.75l4.35-2.95q2.8-2.55 3.4-5.8 1-4.5 1-5.7-.9-2.3-1.1-3.85l.2-3.95q0-1.3-1.5-3.9-1.45-2.55-1.9-2.55-.3 0-.3.4 0 .7 1.1 2.75l.55 3.7q0 2.2-.8 4.2l-1.5 3.05-1.15 3.3q-1 2.2-2.8 2.2l-1.05-.7q-.6-.7-1.45-.7-.6 0-.9.4l-.75.7q-.45-2.05-.35-2.75.25-1.75-1-3-1.25-1.15-2.9-1.5-1.1-.35-1.25-.65l-.65-1.4q-.6-1.55-2.2-2.45-1.8-1.05-3.3-1-3.9.1-3.85-4.7l-1.3 2.5q-1.1 2.1-1.1 3 0 .55.65 1.65l1.2 3.35.75.45q.5.3.5.75l-.45 1.35q0 .9.95 1.6.85.7 2 .8l2.1.25q1.85.45 1.85 1.3l-.9 1.1q-.85.8-.85 1.85l.25 2.05q0 1.2-1 2.35l-2.45 2.25-2.3 2.65q-.8.85-1.3 1.85L68.6 54.2l-1.65 2.9q-1.35 3-1.35 6.15 0 1.4.7 3.15.7 1.8.7 2.7 0 2.5-2.5 4.5-.7.55-1.1 1.85v.05l-.1.3-.1.35q-.4 1.45-1.1 2.15-.8.85-2.45 1.3-1.55.4-2.5 1.45-.55.65-2.1 1.05l-2.7.4-.4.15-1.95.3q-.9 0-2.3-1.75l-.4-.45-.45-1.65q-.3-.65-1.4-.45.2-.8 1.15-1.15 1.05-.35 1.35-1l.75-1.85q-.95.85-3.45.85l-4.4.2q-.85.2-1.65.65-1.5.75-2.85 2.35-.55.6-1.2 2.05l-.15.45-.65 1.5q-1.25.75-1.75 1.45l-.85.9-.65.2L30 86l-1.35.45" fill="#fe4a31" fill-rule="evenodd" transform="translate(-27.45 1)"/><path d="M30 89.5q-.95-1.5-1.35-3.05L30 86l1.1-.75.65-.2.85-.9q.5-.7 1.75-1.45l.65-1.5.15-.45q.65-1.45 1.2-2.05 1.35-1.6 2.85-2.35.8-.45 1.65-.65l4.4-.2q2.5 0 3.45-.85l-.75 1.85q-.3.65-1.35 1-.95.35-1.15 1.15 1.1-.2 1.4.45l.45 1.65.4.45q1.4 1.75 2.3 1.75l1.95-.3.4-.15 2.7-.4q1.55-.4 2.1-1.05.95-1.05 2.5-1.45 1.65-.45 2.45-1.3.7-.7 1.1-2.15l.1-.35.1-.3v-.05q.4-1.3 1.1-1.85 2.5-2 2.5-4.5 0-.9-.7-2.7-.7-1.75-.7-3.15 0-3.15 1.35-6.15l1.65-2.9 1.05-1.75q.5-1 1.3-1.85l2.3-2.65 2.45-2.25q1-1.15 1-2.35l-.25-2.05q0-1.05.85-1.85l.9-1.1q0-.85-1.85-1.3l-2.1-.25q-1.15-.1-2-.8-.95-.7-.95-1.6l.45-1.35q0-.45-.5-.75l-.75-.45-1.2-3.35q-.65-1.1-.65-1.65 0-.9 1.1-3l1.3-2.5q-.05 4.8 3.85 4.7 1.5-.05 3.3 1 1.6.9 2.2 2.45l.65 1.4q.15.3 1.25.65 1.65.35 2.9 1.5 1.25 1.25 1 3-.1.7.35 2.75l.75-.7q.3-.4.9-.4.85 0 1.45.7l1.05.7q1.8 0 2.8-2.2l1.15-3.3 1.5-3.05q.8-2 .8-4.2l-.55-3.7q-1.1-2.05-1.1-2.75 0-.4.3-.4.45 0 1.9 2.55 1.5 2.6 1.5 3.9l-.2 3.95q.2 1.55 1.1 3.85 0 1.2-1 5.7-.6 3.25-3.4 5.8l-4.35 2.95q-1.85 1.15-2.7 2.75l-.3.55q-.35.85-.35 2.45-.1 2.4-.4 3.1l-.75 1.25q-.55.9-.45 1.6.1.8-.65 3.3-.25.95-2.45 2.5-.45.7-.6 1.6l-.2 1.7q-.3 1.6-1.9 2.95-.9.7-1.75.7l-2.05-.15q-1.65 0-2.6 1l-1.85 2.2q-2.3 2.2-4.2 2.9l-.15.2q-.8 1.3-3.8 2.8-1.7.65-2.45 1.1-1.35.75-1.3 2.15.1 1.05-.35 2.6l-1.4 2.3q-1.85 2.5-4.4 2.5l-2.15-.3-1.15-.55-3.7-.25q-4.75-2.1-7.35-2.1l-2.65.15q-.45 0-1-.6t-.95-.6q-.4 0-.85.5-.45.45-.95.45-1.05-.55-2.1-.55-1.25 0-1.25 1.05v.05m52.45-45.9-.1-.1v.1h.1M37 84.7l.55-.25-.7-.1.15.35m40.75-24.85v-.05l-.1-.05.1.15v-.05M33.5 87.95l-.1-.1v.1h.1m23-5.65v-.05h-.1l.1.05" fill="#fff474" fill-rule="evenodd" transform="translate(-27.45 1)"/><path d="m1.2 87.45-.1-.65q-.45-2.7.75-5.65L3.6 78.4q1.85-3 5.3-4.1 3.4-1.2 5.55-1.3 2.1-.15 3.15-1.1 1.05-.95 1.05-2.1l1.3-2.7q1.3-2.55 4.7-4.7 1.35-.7 1.5-3.25.15-2.5 1.25-4.05 1.05-1.55 1.45-1.55l2-1.6q1.7-1.6 1.5-4.55l.45 2.55q0 1.15-2 5.5-2.05 4.35-2.4 7-.35 2.65.45 4.8.8 2.2.8 3.15 0 1.75-.9 3.4-.9 1.7-2.7 2.5-1.8.8-2.1 2.2-.25 1.45.4 2.3 9.2-.45 9.2-7.7 0-1.5-.55-3.65t-.55-4.05q0-1.55.3-2.75l.4-1.25.05-.25q1.85-6.55 4.75-10.5l4.3-6.45q1.1-2.1.15-4.2l-2.35-4.6-2-3.8q-.65-1.35-.55-4.6.05-3.2 3.7-8.4l.1-.15q1.05-1.25 1.05-2.55 0-1.15-.95-3.8t-.75-4.75Q41.15 3 45.55 1l.1.1q-.7.45-1.05 1.1l1.85-.1q-1.35.4-2.6 1.65-1.45 1.45-1.1 2.65L44 4.75l.05.05-.6 1.6-.4 2.15q0 1.05.8 2.1l.9 1.75q.2.75.05 1.55.45-.65 1.35-1.35l1.4-.85 1.2-1.55q.55-.9 1.1-.9.75 0 1.05.45l-.05.6h.05q.05.55-1.45 1.15-1.6.6-2.6 2.45-1.05 1.8-1.35 4.75-.4 2.9.25 4 .65 1.05 2 1.15l3.65-.4q4.45.85 6.7 2.45 2.15 1.55 2.65 3.2.45 1.6.05 4.05.3.75 1.25.9 1.95.4 3.4-.95t1.8-3.25l.25-1.4q.25-1.6-.3-3.3l-.95-2.35-1.4-2.3L63 18.05l-.95-1.5q-.55-1.05-.45-2.15.15-1.9 1.15-3.65 1.2-2.05 3.3-2.6l.75-.1q-2.4 1.55-2.15 4.9.25 3.35 3.85 4.35 3.6 1 6 6.7 2.35 5.7 2.2 17-1.1 6.45-4.6 10-3.5 3.5-7.35 4.85-1.7.7-2.55 1.55-.85.9-1.8 4l-.35-.1-.75 2.55q-1.2 5.45-2.8 7.65-1.65 2.2-2.95 2.85l-1.35.5-.75.15h-.05q-3.05 0-4.35.95-2.6 1.85-3.55 3.3-.65 1.1-1.8 4.2-1.1 2.8-2.2 4.4-1.55 2.2-2.9 2.45-1.5.4-1.95.95-.6 1.35-1.35 1.65l-.5.1q-.85.15-1.6.6h-.05l.1.15q-1.05.65-2.2 1.9-2.2 2.3-4.55 3l-1.1.2q-2.9.4-5.2.05-2.35-.35-3.5-1.55-1.15-1.95-2.55-2.7l-1.45-.55h-.9l-.7.1-.05.05q-1.85.15-3.4-.7-1.65-.9-3-2.9l-.1-.15Q1.6 89 1.2 87.45z" fill="none" stroke="#870e01" stroke-linecap="round" stroke-linejoin="round" stroke-width="2"/></g><g id="e"><path d="m29.65 56.3.65-1.65q-2.85.15-6 2.25 1.25-2.6 4.85-4.55L27.6 51.2q9.45-1.6 18.4-7.45.9-.4 1.85-.85.05 1.2.95 2.1 1 1 2.35 1t2.3-1q1-.95 1-2.3 0-1.35-.95-2.3L63.55 36q-1.35 6.25 5.65 13.6.2 1.65-2.5 4.8-4.4 2.4-6 4.45l-.2.25q-.8 1.1-1.65 3.05-1.6 3.7-3.35 10.45-1.55-3.75.4-8.9-2.85-.25-5.1.7l.3-.95q-1-.15-1.8-.8l-.45-.5q-.6-.65-1.05-1.65l-4.55-3.3q-.7 2.7-2.15 3.8l-1-4.6q-1.95 2.6-2 4.1-2.55-3-2.5-8.15-1.3 6.15-5.95 3.95M59 41.95q-1.7 0-2.9.9-1.15.95-1.15 2.3 0 1.35 1.15 2.25 1.2.95 2.9.95t2.85-.95q1.2-.9 1.2-2.25t-1.2-2.3q-1.15-.9-2.85-.9m-28.7 12.7.45-1.15-1.6-1.15 1.6 1.15-.45 1.15m22.4-5.05q-.5.65-.5 1.5t.5 1.45q.5.65 1.2.65t1.2-.65q.5-.6.5-1.45t-.5-1.5q-.5-.6-1.2-.6t-1.2.6m11.35 2.6q0-1.4-1-2.4-.95-.95-2.35-.95-1.4 0-2.4.95-.95 1-.95 2.4t.95 2.35q1 1 2.4 1t2.35-1q1-.95 1-2.35" fill="#fb4925" fill-rule="evenodd" transform="translate(.5 -24.95)"/><path d="m47.85 42.9 5.65-2.5q.95.95.95 2.3 0 1.35-1 2.3-.95 1-2.3 1-1.35 0-2.35-1-.9-.9-.95-2.1M59 41.95q1.7 0 2.85.9 1.2.95 1.2 2.3 0 1.35-1.2 2.25-1.15.95-2.85.95-1.7 0-2.9-.95-1.15-.9-1.15-2.25t1.15-2.3q1.2-.9 2.9-.9m5.05 10.25q0 1.4-1 2.35-.95 1-2.35 1-1.4 0-2.4-1-.95-.95-.95-2.35 0-1.4.95-2.4 1-.95 2.4-.95t2.35.95q1 1 1 2.4M52.7 49.6q.5-.6 1.2-.6t1.2.6q.5.65.5 1.5t-.5 1.45q-.5.65-1.2.65t-1.2-.65q-.5-.6-.5-1.45t.5-1.5" fill="#c43419" fill-rule="evenodd" transform="translate(.5 -24.95)"/><path d="m90.9 37.05 1.8 4.35Q83.5 51.1 74 59.2l-3.55 2.95-3.15 2.5q1.7 5.7.6 10.4-2.35 4.95-7.8 7.7-2.25 1.15-5.05 1.9l-6.9 1.25q-4.45 1.05-6.1-2.45l-.45-1.4q6.15 2 15.75-1.75Q66 76.5 67.3 64.65l23.6-27.6" fill="#ffad0c" fill-rule="evenodd" transform="translate(.5 -24.95)"/><path d="M42.05 83.45q-7.15 1.2-11.35-8.65l-.45-.2q-6.3-3.3-.6-18.3 4.65 2.2 5.95-3.95-.05 5.15 2.5 8.15.05-1.5 2-4.1l1 4.6q1.45-1.1 2.15-3.8l4.55 3.3q.45 1 1.05 1.65l.45.5q.8.65 1.8.8l-.3.95q2.25-.95 5.1-.7-1.95 5.15-.4 8.9 1.75-6.75 3.35-10.45.85-1.95 1.65-3.05l.2-.25q1.6-2.05 6-4.45 2.7-3.15 2.5-4.8-7-7.35-5.65-13.6 10.25-4.4 23-9.55l4.35 10.6-23.6 27.6Q66 76.5 57.35 80.3q-9.6 3.75-15.75 1.75l.45 1.4M41.6 72q-.95 6.55 0 10.05-.95-3.5 0-10.05" fill="#a53327" fill-rule="evenodd" transform="translate(.5 -24.95)"/><path d="m41.6 82.05.45 1.4m-12.9-31.1 1.6 1.15-.45 1.15m11.3 27.4q-.95-3.5 0-10.05" fill="none" stroke="#672018" stroke-linecap="round" stroke-linejoin="round" transform="translate(.5 -24.95)"/><path d="M93.2 16.45q-9.2 9.7-18.7 17.8l-3.55 2.95-3.15 2.5q1.7 5.7.6 10.4-2.35 4.95-7.8 7.7-2.25 1.15-5.05 1.9l-6.9 1.25Q44.2 62 42.55 58.5q-7.15 1.2-11.35-8.65l-.45-.2q-6.3-3.3-.6-18.3l.65-1.65q-2.85.15-6 2.25 1.25-2.6 4.85-4.55l-1.55-1.15q9.45-1.6 18.4-7.45.9-.4 1.85-.85l5.65-2.5 10.05-4.4q10.25-4.4 23-9.55" fill="none" stroke="#672018" stroke-linecap="round" stroke-linejoin="round" stroke-width="3"/><path d="M0 85.15q11.25-14.8 34.8-32.05l2.35.55L0 85.15m25.5 24.75-.3.4q9.1-21.85 27.4-45.2l3 1.2q-16.45 22-30.1 43.6m21.4-50L4.7 108.3q12.05-23.95 37.5-49.95l4.7 1.55" fill="#c7bcba" fill-rule="evenodd" transform="translate(.5 -24.95)"/><path d="m37.15 53.65.2 3.65L0 85.15l37.15-31.5M25.5 109.9q13.65-21.6 30.1-43.6v4.15L25.5 109.9m21.4-50 .15 3.3L4.7 108.3l42.2-48.4" fill="#97928e" fill-rule="evenodd" transform="translate(.5 -24.95)"/><path d="m37.15 53.65.2 3.65L0 85.15q11.25-14.8 34.8-32.05l2.35.55M55.6 66.3l-3-1.2q-18.3 23.35-27.4 45.2l.3-.4 30.1-39.45V66.3m-50.9 42 42.35-45.1-.15-3.3-4.7-1.55q-25.45 26-37.5 49.95" fill="none" stroke="#585352" stroke-linecap="round" stroke-linejoin="round" transform="translate(.5 -24.95)"/><path d="M37.65 28.7.5 60.2M26 84.95q13.65-21.6 30.1-43.6m-8.7-6.4L5.2 83.35" fill="none" stroke="#585352" stroke-linecap="round" stroke-linejoin="round" stroke-width=".5"/><path d="M43.25 57.2q-.7 2.7-2.15 3.8l-1-4.6q-1.95 2.6-2 4.1-2.55-3-2.4-8.6 5 1.1 7.55 5.3m13.8 6.6-1.15-.1 1.15.1m-1.55 8.8q-1.55-3.75.4-8.9-2.85-.25-5.1.7l.3-.95q.3-.7 1.15-1.3h6.6q-1.6 3.7-3.35 10.45" fill="#fb4925" fill-rule="evenodd" transform="translate(.5 -24.95)"/><path d="M62.05 69.8q-1.7 1.55-2.5 4.8-1.1-1.3-.4-3.95 1.15-1.4 2.6-2.5l.3 1.65" fill="#b03d28" fill-rule="evenodd" transform="translate(.5 -24.95)"/><path d="M58.85 62.15h6.55v3.95l-1.5 1.1q-.75 1.65-.3 4.7-1.05-.45-1.55-2.1l-.3-1.65q-.15-.9-.15-2 0 1.1.15 2-1.45 1.1-2.6 2.5-1.5 1.75-2.55 3.95l-1.1-2q1.75-6.75 3.35-10.45" fill="#a53327" fill-rule="evenodd" transform="translate(.5 -24.95)"/><path d="M43.25 57.2q-.7 2.7-2.15 3.8l-1-4.6q-1.95 2.6-2 4.1-2.55-3-2.4-8.6m20.2 11.8 1.15.1m-1.55 8.8q-1.55-3.75.4-8.9-2.85-.25-5.1.7l.3-.95q.3-.7 1.15-1.3 1-.8 2.85-1.4m8.8 6.45q-.75 1.65-.3 4.7-1.05-.45-1.55-2.1-1.7 1.55-2.5 4.8-1.1-1.3-.4-3.95-1.5 1.75-2.55 3.95l-1.1-2m6.25-4.45.3 1.65m-.45-3.65q0 1.1.15 2-1.45 1.1-2.6 2.5" fill="none" stroke="#672018" stroke-linecap="round" stroke-linejoin="round" transform="translate(.5 -24.95)"/></g><g id="f"><path d="M48.3 91.35q7.45-5.2 16.3-5.1 14.6-.2 16.65-11.8l2.1 1.4q-2.45 15.65-20 13.9-6.4-.4-14.95 2.65l-.1-1.05" fill="#ffad0c" fill-rule="evenodd" transform="translate(1 1.5)"/><path d="M81.25 74.45q-2.05 11.6-16.65 11.8-8.85-.1-16.3 5.1L45.15 65q19.8-.9 36.1 9.45" fill="#a53327" fill-rule="evenodd" transform="translate(1 1.5)"/><path d="m49.3 92.85.1 1.05q8.55-3.05 14.95-2.65 17.55 1.75 20-13.9l-2.1-1.4q-16.3-10.35-36.1-9.45l3.15 26.35z" fill="none" stroke="#672018" stroke-linecap="round" stroke-linejoin="round" stroke-width="3"/><path d="M45.95 90.25q.05-2.3-.75-4.85-.95-2.95-3.15-5.45-1.85-2.15-1.1-6.1l8.8-6.75q-.9 4-1.1 8.7l-.8 1.65q-1 2.1-2.35 2.1-.95 0-1.7-1.2-.65-1.05-.65-2 0-.55.3-1.05.35-.6.9-.6 1.15 0 1.15.75 0 .55-.5.7-.7.2-.7 1 0 .95 1.2.95.65 0 1.05-.45l.35-1.05q0-3.1-3-3.1-1.2 0-1.6.75-.25.5-.25 1.8 0 2.45 1.6 4.1 2 2.05 2.65 4.35.6 2.05.6 4.9l.1 4.1-1.15.8.05-3.4.05-.65" fill="#f8fcb2" fill-rule="evenodd" transform="translate(1 1.5)"/><path d="m47 93.5-.1-4.1q0-2.85-.6-4.9-.65-2.3-2.65-4.35-1.6-1.65-1.6-4.1 0-1.3.25-1.8.4-.75 1.6-.75 3 0 3 3.1l-.35 1.05q-.4.45-1.05.45-1.2 0-1.2-.95 0-.8.7-1 .5-.15.5-.7 0-.75-1.15-.75-.55 0-.9.6-.3.5-.3 1.05 0 .95.65 2 .75 1.2 1.7 1.2 1.35 0 2.35-2.1l.8-1.65q-.25 7.05 1.1 15.8-1.45.9-2.75 1.9" fill="#b6b654" fill-rule="evenodd" transform="translate(1 1.5)"/><path d="M11.05 97.15q-.8 1.3.05 2.4 2.9 1 9.6-.15 6.6-1.15 8.1-4.6l1.55-4q-3.75-1.4-7.7-.65-3.75.65-6.25 2.05l-.35.2L13.1 95l-4.45 1.65Q-.15 101.8 0 99.1q2.95-4.95 6.1-8.6 4.65 1.85 15.15-2.95 4.4-1.75 7.9-5.25l.8-.05 11-8.4q-.75 3.95 1.1 6.1 2.2 2.5 3.15 5.45.8 2.55.75 4.85-5.8 3.65-10.65 8.9-20.35 6.05-29.05 6.55 1-4.3 4.8-8.55M33 81.85l-3.05.4 3.05-.4" fill="#978f8d" fill-rule="evenodd" transform="translate(1 1.5)"/><path d="M10.45 87.35q-.65.4-.55.7.05.3.8.25l1.8-.25 1.7-.7.6-.6q-.1-.3-.85-.35l-1.8.3q-1 .25-1.7.65m5.95 4.85q2.5-1.4 6.25-2.05 3.95-.75 7.7.65l-1.55 4q-1.5 3.45-8.1 4.6-6.7 1.15-9.6.15-.85-1.1-.05-2.4l.2-.25L13.1 95l2.95-2.6.35-.2M6.25 105.7q8.7-.5 29.05-6.55 4.85-5.25 10.65-8.9l-.05.65-.05 3.4q-4.6 3.5-7.85 7.5-12.45 4-23.6 4.55l-3.9.55q-3.8.4-4.4-.4l.15-.8M6.1 90.5q4.5-5.2 9.4-7.75 4.1-1.9 8.1-.9l5.55.45q-3.5 3.5-7.9 5.25-10.5 4.8-15.15 2.95m16.2 6.85q.3-.6-.3-1l-2.3-.15q-1.65.2-3.05.85-1.4.65-1.25 1 .1.3 1.05.5l2.45.1 2.25-.45 1.15-.85" fill="#c7bcba" fill-rule="evenodd" transform="translate(1 1.5)"/><path d="M10.45 87.35q.7-.4 1.7-.65l1.8-.3q.75.05.85.35l-.6.6-1.7.7-1.8.25q-.75.05-.8-.25-.1-.3.55-.7m11.85 10-1.15.85-2.25.45-2.45-.1q-.95-.2-1.05-.5-.15-.35 1.25-1t3.05-.85l2.3.15q.6.4.3 1" fill="#fff" fill-rule="evenodd" transform="translate(1 1.5)"/><path d="m16.4 92.2-.35.2L13.1 95m16.85-12.75 3.05-.4" fill="none" stroke="#544f4e" stroke-linecap="round" stroke-linejoin="round" transform="translate(1 1.5)"/><path d="m14.1 96.5-1.85 1.9m-.2.25q-3.8 4.25-4.8 8.55l-.15.8q.6.8 4.4.4l3.9-.55q11.15-.55 23.6-4.55 3.25-4 7.85-7.5L48 95q1.3-1 2.75-1.9-1.35-8.75-1.1-15.8.2-4.7 1.1-8.7l-8.8 6.75-11 8.4-.8.05-5.55-.45q-4-1-8.1.9Q11.6 86.8 7.1 92q-3.15 3.65-6.1 8.6-.15 2.7 8.65-2.45l4.45-1.65" fill="none" stroke="#544f4e" stroke-linecap="round" stroke-linejoin="round" stroke-width="2"/><path d="M43.45 29.3q2.3 2.7 2.3 6.45t-2.3 6.4q-2.25 2.7-5.45 2.7t-6.2-2.7q-3.05-2.75-2.5-6.45.55-3.7 3.05-6.35 2.45-2.7 5.65-2.7t5.45 2.65M32.8 14.6q.9.35 1.8 1 2.45 1.75 2.05 5.25-.4 3.45-2.9 4.3-2.6.85-3.5 4.2-1 .6-3.4.55-2-.05-3.05-2 3.1-7.4 9-13.3M22.3 32.15l3.4.65q1.65.35 1.75 4.5.05 4.1-.75 6.05-.8 1.95-3.2 2.05-1.7.05-3.15-.9.2-6.6 1.95-12.35m5.05 16.25q0-1.95 1.05-3.35 1.1-1.4 2.65-1.4 1.55 0 2.6 1.4 1.1 1.4 2.15 3.6 1.05 2.15-.65 3.4-1.75 1.25-3.7 1.2-1.95-.1-3.05-1.5-1.05-1.4-1.05-3.35m-2.5 0q.5.75.5 1.8t-.5 1.75q-.5.75-1.2.75t-1.2-.75q-.5-.7-.5-1.75t.5-1.8q.5-.7 1.2-.7t1.2.7" fill="#c43419" fill-rule="evenodd" transform="translate(1 1.5)"/><path d="M23.8 27.9q1.05 1.95 3.05 2 2.4.05 3.4-.55.9-3.35 3.5-4.2 2.5-.85 2.9-4.3.4-3.5-2.05-5.25-.9-.65-1.8-1Q41.2 6.1 55.35.75 84.4-5.9 85.1 46.8 62.15 69 21.55 55.45q-.75-2.1-1.1-4.75-.2-3.2-.1-6.2 1.45.95 3.15.9 2.4-.1 3.2-2.05.8-1.95.75-6.05-.1-4.15-1.75-4.5l-3.4-.65q.6-2.2 1.5-4.25m19.65 1.4Q41.2 26.65 38 26.65t-5.65 2.7Q29.85 32 29.3 35.7q-.55 3.7 2.5 6.45 3 2.7 6.2 2.7t5.45-2.7q2.3-2.65 2.3-6.4 0-3.75-2.3-6.45m-18.6 19.1q-.5-.7-1.2-.7t-1.2.7q-.5.75-.5 1.8t.5 1.75q.5.75 1.2.75t1.2-.75q.5-.7.5-1.75t-.5-1.8m2.5 0q0 1.95 1.05 3.35 1.1 1.4 3.05 1.5 1.95.05 3.7-1.2 1.7-1.25.65-3.4-1.05-2.2-2.15-3.6-1.05-1.4-2.6-1.4t-2.65 1.4q-1.05 1.4-1.05 3.35" fill="#fb4925" fill-rule="evenodd" transform="translate(1 1.5)"/><path d="M21.55 55.45Q62.15 69 85.1 46.8l-.15 10.15q-4.75 8.8-26.1 12.5-18.1 2.95-32.15-7.5-3.5-1.9-5.15-6.5" fill="#a53327" fill-rule="evenodd" transform="translate(1 1.5)"/><path d="M24.8 29.4q-.9 2.05-1.5 4.25Q21.55 39.4 21.35 46q-.1 3 .1 6.2.35 2.65 1.1 4.75 1.65 4.6 5.15 6.5 14.05 10.45 32.15 7.5 21.35-3.7 26.1-12.5l.15-10.15Q85.4-4.4 56.35 2.25 42.2 7.6 33.8 16.1q-5.9 5.9-9 13.3z" fill="none" stroke="#672018" stroke-linecap="round" stroke-linejoin="round" stroke-width="3"/></g><g id="g"><path d="m2.55 70.1-2.3-2.3Q-2.3 47.05 19.3 27.35q11.35-7.8 21.1-8.45-9.45 9.9-4.95 10.05 4.75-.4 9.1-2.7 3.55-1.85 7.75-5.55 7.1-6.2 28.6-13.35 24-7.95 35.6-5.15 1 .85-10 6.6-8.55 5.6 3.5 3.3l32.85-9.65Q181.6-5.45 209 12q5.95 3.8 8.2 10.1.1 2.25-1.55 3.4-4.4 3.2-7.25-.4-5.35-9.05-19.2-10.7 3.15 8.45 20.45 14.65 18.35 9.45 28.6 30 4.65 8.4 4.9 23.75-4.4-15.35-14.2-15.1-2.85 4.9-8.7.25-4.75-4.1-4.2-13.9-1.95-7.15-16.8-6.45-4.6 3.6-2.45 18.7 1.8 7.15 9.2 11.95 8.85 4.65 10.95 13.2 1.8 13-5.35 15.8-11.65 8.7-26.75-4.45-6.05-5.25-15.05-2.2-3.55 3.65 1.1 7.9 3.75 3.5 11.5 1.25 9.8-4.35 6.5 3.1-6.95 7.15 11.7 8.2 6.95-1 10.35-4.4-.05 8.05-6.9 11.6-6.95 5.1-25.05 2.2l-4.15.5q-5.3 8.55-1.25 16.45 4.35 10.3-2.6 14.5-6.95 4.15-16.55 3.45-2.8-.3-3.3 4.35-.5 4.65 5.15 5.7 5.6 1 6.8 3.65 1.15 2.65-1.7 3.9-2.85 1.2-5.05 1.65l-7.8-.4q-5.6-.9-2 4.7l-19.8-13.6q1.7-3.8 6.45-.9 4.75 2.85 8.8 3.3 3.5.7 3.1-.7-.3-.2-1.25-3.7-.7-2.7-.7-4.85 0-6.95 4.3-9.55 2.45-1.5 2.95-2.05 1.35-1.4 1.35-4.1 0-2.1-1.15-7.2-.95-3.55 0-4.1 1.35-.25 2.2 0 .85.25 1.5 1.95l.05 4.7q.1 3 .5 5 .4 2.05 1.4 3.85 1.25 1.9 3.8 1.65 2.5-.25 4.75-2.25 2.2-2.05 2.75-3.6.7-2 .15-5.4-.55-3.4-.15-10.05.25-4.15-1.9-7.7-1.95-7.25-9.55-10.2l-.05-.35q0-.7.3-1.1Q172.9 130 180.6 124.1q.95-2.9-4.45-6.6-9.75.3-14.45-7.85-.25-4.5-1.95-6.65l-1.95-2.25 1.4-2.3q6.35.2 12.25-3.8 9.45-2.25 7.05-7.8l-2.95-4.2q1.25-2.4 1.85-5.25 7.2 4.15 11.65 1.6 5.7-5.9-2.15-12.65-6.75-3.45-18.95-1.75l-.85-.05q3.35-1.85 6.6-4.9 11.1-2.8 14.55-7 4.2-7.35.2-7.2-3.15.95-7.4 1.6l.1-1.45q.05-3.2-1.4-5.65 3.4-1.55 6.15-3.25 3.5-1.5.8-3.75-3.6-3.5-11.3-2.9-3.8 1.45-7.65 2.5-2.7-.8-5.05-.9-5.15-.3-10.75 1.7-2.45.85-4.75 1.75-3.35-.2-6.8.05 1.4-2.9 2.2-5.4h.05q25.75.2 37.2-9.1l1.35-3.1q-3.65-4.2-13.45-1.55-19.4 7-36.35 11.15-2.45-1.5-8.1-1.8l6-1.85q13.75-4.55 31.2-11.4h-4.6q-13.7.7-26.55 3.95-16 4.05-25.15 11-1.65-.5-1.9-2.3-2.4 2.05-6.35 3.05 4.55-4.5 6.25-8.35-6.75 1.95-21.5 11.1-1.45 1.3-2.6 1.8l-2.05.15q-1.55-.35 1.15-3.25 8.15-5.1 13.05-10.15 9.15-10.5 3.8-10.3-24.9 5.9-47.25 22.4l-14.05 8.4q-4.3 1.75-3.5-2.55 1.25-4.1-2.95-3.1-12.9 3.5-23.75 36.15m182.2 18.7q8.5 11.6 18.05 11.9 3.95.45 4.85-1.65 2.25-4.6-5.4-6.05l-11.4-2.35q-3.75-.9-6.1-1.85M228 61.15q-.6-3.65-4.35-8.85-3.8-5.25-8-6.35 2.25 2.3 3.4 5.85l1.4 6.15q.65 3.5 1.7 4.9 1.4 1.95 4.4 1.95 2.05 0 1.45-3.65" fill="#a62b1e" fill-rule="evenodd" transform="translate(1 1)"/><path d="M103.3 158.05q-24.6-18.8-49.7-40.7l40.6-64.3q25.25-16.6 46.2-17.9l-2.2 4.2q4.1-2.3 9-4.25l2.4.2q9.35-.35 18.15-2.75 3.2.95 6.85 2.85 3.5 1.8 5.15 4.55-6.3 2.75-14.75 4.9-3.9 3.45 5.1 3.15l10.95-.95q-.75 6-6.75 12l-.6.6-6.55 1.4q-6.95 1.85-2.95 3.6l2.9-.1q-2.4 1.25-4.9 1.9 9.45.2 12.85 2.35 3.4 2.1 2.6 7.3l-.25 1.3-.25-.15Q165.85 66 154.5 65.15q-4.5.3 4.9 3.15 8.2 3.6 16.15 14.35l-1.55 2.5q-2.85 3.75-7.25 6.4-4.45 2.6-6.45 5.3l-1.1 1.6-1.05-.1q-2.15-.05-.35 2.4l-.1.2q-.6 1.35-2.05 6.6-1.3 4.75.7 10.4-.3.4-.3 1.1l.05.35q.15 1.65 1.85 3l4.15 3.05q2.2 1.95 3.55 4.15l.25 1.2q1.6 8.2-4.75 6.6-6.35-1.65-11.25-2.35-14.55 1.35-26.65 10.9-9.25 7.35-19.95 12.1m-54.05-44.5q-19.8-17.5-39.9-36.9 5.3-8.9 17.7-19.65Q40.35 45.45 50 41q7.9-3.55 14.2-5.1l9.55-1.95q1.8-.7 4.35-1.5 6.35-2.05 17.4-4.55l.45-.1q-4.55 4.4-11.9 9.45-4.25 4.05-.25 3.35l12.15-7.65q16.1-1.05 35.45-5.8 3.3 2.25 10.3.7 2.25-.75 1.45.95h-.25l-.25.9-.05.05-3.35-.1q-9.05.5-33.75 12.85-9.1 2.25-21.25 8.2-10 9.05-35 62.85m73.95-88.2q-10.8 2.95-21.7 3.9 1.25-1.15 2.7-2.2 1.6.45 4.6-.45 5.95-1.75 14.4-1.25" fill="#fff474" fill-rule="evenodd" transform="translate(1 1)"/><path d="M126.75 175.3q-11.65-8.25-23.45-17.25 10.7-4.75 19.95-12.1 12.1-9.55 26.65-10.9 4.9.7 11.25 2.35 6.35 1.6 4.75-6.6l-.25-1.2q2.15 3.55 1.9 7.7-.4 6.65.15 10.05.55 3.4-.15 5.4-.55 1.55-2.75 3.6-2.25 2-4.75 2.25-2.55.25-3.8-1.65-1-1.8-1.4-3.85-.4-2-.5-5l-.05-4.7q-.65-1.7-1.5-1.95t-2.2 0q-.95.55 0 4.1 1.15 5.1 1.15 7.2 0 2.7-1.35 4.1-.5.55-2.95 2.05-4.3 2.6-4.3 9.55 0 2.15.7 4.85.95 3.5 1.25 3.7.4 1.4-3.1.7-4.05-.45-8.8-3.3-4.75-2.9-6.45.9M9.35 76.65l-6.8-6.55Q13.4 37.45 26.3 33.95q4.2-1 2.95 3.1-.8 4.3 3.5 2.55l14.05-8.4Q69.15 14.7 94.05 8.8q5.35-.2-3.8 10.3-4.9 5.05-13.05 10.15-2.7 2.9-1.15 3.25l2.05-.15q1.15-.5 2.6-1.8 14.75-9.15 21.5-11.1-1.7 3.85-6.25 8.35l-.45.1q-11.05 2.5-17.4 4.55-2.55.8-4.35 1.5L64.2 35.9Q57.9 37.45 50 41q-9.65 4.45-22.95 16-12.4 10.75-17.7 19.65m94.85-49.6q9.15-6.95 25.15-11 12.85-3.25 26.55-3.95h4.6q-17.45 6.85-31.2 11.4l-6 1.85h-.1q-8.45-.5-14.4 1.25-3 .9-4.6.45m27.2.1Q148.35 23 167.75 16q9.8-2.65 13.45 1.55l-1.35 3.1q-11.45 9.3-37.2 9.1h-.05l.05-.05.5-.9q.8-1.7-1.45-.95-7 1.55-10.3-.7m9 8q3.45-.25 6.8-.05-4.9 1.95-9 4.25l2.2-4.2m27.35-2.6q3.85-1.05 7.65-2.5 7.7-.6 11.3 2.9 2.7 2.25-.8 3.75-2.75 1.7-6.15 3.25-1.65-2.75-5.15-4.55-3.65-1.9-6.85-2.85m13.3 14.5q4.25-.65 7.4-1.6 4-.15-.2 7.2-3.45 4.2-14.55 7l.6-.6q6-6 6.75-12m-13.95 17.5.85.05q12.2-1.7 18.95 1.75 7.85 6.75 2.15 12.65-4.45 2.55-11.65-1.6l.25-1.3q.8-5.2-2.6-7.3-3.4-2.15-12.85-2.35 2.5-.65 4.9-1.9m8.45 18.1 2.95 4.2q2.4 5.55-7.05 7.8-5.9 4-12.25 3.8l1.1-1.6q2-2.7 6.45-5.3 4.4-2.65 7.25-6.4l1.55-2.5m-17.75 18.1 1.95 2.25q1.7 2.15 1.95 6.65 4.7 8.15 14.45 7.85 5.4 3.7 4.45 6.6-7.7 5.9-24.25-6.15-2-5.65-.7-10.4 1.45-5.25 2.05-6.6l.1-.2m70.2-39.6q.6 3.65-1.45 3.65-3 0-4.4-1.95-1.05-1.4-1.7-4.9l-1.4-6.15q-1.15-3.55-3.4-5.85 4.2 1.1 8 6.35 3.75 5.2 4.35 8.85M184.75 88.8q2.35.95 6.1 1.85l11.4 2.35q7.65 1.45 5.4 6.05-.9 2.1-4.85 1.65-9.55-.3-18.05-11.9" fill="#b1aa52" fill-rule="evenodd" transform="translate(1 1)"/><path d="m53.6 117.35-4.35-3.8q25-53.8 35-62.85 12.15-5.95 21.25-8.2 24.7-12.35 33.75-12.85l3.35.1q-.8 2.5-2.2 5.4-20.95 1.3-46.2 17.9l-40.6 64.3M95.95 27.8q3.95-1 6.35-3.05.25 1.8 1.9 2.3-1.45 1.05-2.7 2.2 10.9-.95 21.7-3.9h.1q5.65.3 8.1 1.8-19.35 4.75-35.45 5.8L83.8 40.6q-4 .7.25-3.35 7.35-5.05 11.9-9.45m51.25 7.3q2.3-.9 4.75-1.75 5.6-2 10.75-1.7 2.35.1 5.05.9-8.8 2.4-18.15 2.75l-2.4-.2m32.55 4.85q1.45 2.45 1.4 5.65l-.1 1.45-10.95.95q-9 .3-5.1-3.15 8.45-2.15 14.75-4.9m-6.05 19.7q-3.25 3.05-6.6 4.9l-2.9.1q-4-1.75 2.95-3.6l6.55-1.4m3.7 17.75q-.6 2.85-1.85 5.25Q167.6 71.9 159.4 68.3q-9.4-2.85-4.9-3.15 11.35.85 22.65 12.1l.25.15m-18.2 21.05-1.4 2.3q-1.8-2.45.35-2.4l1.05.1m-3.1 20.95q7.6 2.95 9.55 10.2-1.35-2.2-3.55-4.15l-4.15-3.05q-1.7-1.35-1.85-3" fill="#f94922" fill-rule="evenodd" transform="translate(1 1)"/><path d="m3.55 71.1-2.3-2.3Q-1.3 48.05 20.3 28.35q11.35-7.8 21.1-8.45-9.45 9.9-4.95 10.05 4.75-.4 9.1-2.7 3.55-1.85 7.75-5.55 7.1-6.2 28.6-13.35 24-7.95 35.6-5.15 1 .85-10 6.6-8.55 5.6 3.5 3.3l32.85-9.65Q182.6-4.45 210 13q5.95 3.8 8.2 10.1.1 2.25-1.55 3.4-4.4 3.2-7.25-.4-5.35-9.05-19.2-10.7 3.15 8.45 20.45 14.65 18.35 9.45 28.6 30 4.65 8.4 4.9 23.75-4.4-15.35-14.2-15.1-2.85 4.9-8.7.25-4.75-4.1-4.2-13.9-1.95-7.15-16.8-6.45-4.6 3.6-2.45 18.7 1.8 7.15 9.2 11.95 8.85 4.65 10.95 13.2 1.8 13-5.35 15.8-11.65 8.7-26.75-4.45-6.05-5.25-15.05-2.2-3.55 3.65 1.1 7.9 3.75 3.5 11.5 1.25 9.8-4.35 6.5 3.1-6.95 7.15 11.7 8.2 6.95-1 10.35-4.4-.05 8.05-6.9 11.6-6.95 5.1-25.05 2.2l-4.15.5q-5.3 8.55-1.25 16.45 4.35 10.3-2.6 14.5-6.95 4.15-16.55 3.45-2.8-.3-3.3 4.35-.5 4.65 5.15 5.7 5.6 1 6.8 3.65 1.15 2.65-1.7 3.9-2.85 1.2-5.05 1.65l-7.8-.4q-5.6-.9-2 4.7l-19.8-13.6q-11.65-8.25-23.45-17.25-24.6-18.8-49.7-40.7l-4.35-3.8q-19.8-17.5-39.9-36.9l-6.8-6.55z" fill="none" stroke="#7b1f15" stroke-linecap="round" stroke-linejoin="round" stroke-width="2"/><path d="m224.75 33.6-.75-.75-3.1-1.9q-1.5-1.1-1.5-2.85 0-1.2 1.05-2.2 1.05-1 2.05-.85h1.1l1.3.6q1.05 2.05 1.05 4.4 0 2.1-.75 3.1l-.45.45" fill="#fff474" fill-rule="evenodd" transform="translate(1 1)"/><path d="m224.75 33.6.45-.45q.75-1 .75-3.1 0-2.35-1.05-4.4 3.2 1.55 4.45 3.4 1.45 2.2 1.55 5.3.05 3.05-2.2 3.05-.85 0-2.6-2.1l-1.35-1.7" fill="#fb4925" fill-rule="evenodd" transform="translate(1 1)"/><path d="m225.9 26.65-1.3-.6h-1.1q-1-.15-2.05.85-1.05 1-1.05 2.2 0 1.75 1.5 2.85l3.1 1.9.75.75 1.35 1.7q1.75 2.1 2.6 2.1 2.25 0 2.2-3.05-.1-3.1-1.55-5.3-1.25-1.85-4.45-3.4z" fill="none" stroke="#7b1f15" stroke-linecap="round" stroke-linejoin="round" stroke-width="2"/><path d="m234.5 96.95 2.35-1.85q4.35-3.35 4.85-6.15 1.2 4.9-.2 8.6l-3.45.3q-2.2 0-3.4-.8l-.15-.1" fill="#fb4925" fill-rule="evenodd" transform="translate(1 1)"/><path d="m234.5 96.95.15.1q1.2.8 3.4.8l3.45-.3-.4.9q-2 3.95-4.4 3.8-2.45-.2-3.35-1.15-.95-.95-.9-1.8 0-.65 2.05-2.35" fill="#fff474" fill-rule="evenodd" transform="translate(1 1)"/><path d="M242.5 98.55q1.4-3.7.2-8.6-.5 2.8-4.85 6.15l-2.35 1.85q-2.05 1.7-2.05 2.35-.05.85.9 1.8.9.95 3.35 1.15 2.4.15 4.4-3.8l.4-.9z" fill="none" stroke="#7b1f15" stroke-linecap="round" stroke-linejoin="round" stroke-width="2"/><path d="m170.15 170.55 4.15-.95q4.4-.9 8.15-6.55-.5 4.65-3.25 9.3-3 5.05-6.5 5.4l.5-1.6q0-2.5-3.05-5.6" fill="#f94922" fill-rule="evenodd" transform="translate(1 1)"/><path d="M170.15 170.55q3.05 3.1 3.05 5.6l-.5 1.6h-.5q-1.7 0-2.8-.65-1.5-.9-1.5-3.35t1-2.85l1.25-.35" fill="#fff474" fill-rule="evenodd" transform="translate(1 1)"/><path d="M173.7 178.75q3.5-.35 6.5-5.4 2.75-4.65 3.25-9.3-3.75 5.65-8.15 6.55l-4.15.95-1.25.35q-1 .4-1 2.85t1.5 3.35q1.1.65 2.8.65h.5z" fill="none" stroke="#7b1f15" stroke-linecap="round" stroke-linejoin="round" stroke-width="2"/></g><g id="h"><path d="M-104.85 10.45q-.85 5 1.65 6.4-.95-1.15.15-2.8.85-1.2.7-2.85 2.25 3.25 3.3 8.45 1 5.2-4.05 8.05 1.85.05 3.7-1.15-2.4 7.4-11.5 9.15-3.25.9-8.3-.2l-.4-.1q-9-1-11.2-6.5l1.85 1.25q-1.8-2.65-2.2-6.4-.4-3.8 2.85-8.4-.45 1.35 0 2.7 4.9-4 3.25-7.95-1.8-4.25 2.7-6.15-1.9 4.9 1.75 8.85 4-1.45 3.5-9.1-.55-7.65 4.85-11.25-1.05 5.3 1.05 8.55 2.1 3.2.7 7.75 3.35-.65 3.95-6.15 2.35 4.15 1.7 7.85" fill="#ffad0c" fill-rule="evenodd" transform="translate(132.45 8.8)"/><path d="M27.6 19.25q-.85 5 1.65 6.4-.95-1.15.15-2.8.85-1.2.7-2.85 2.25 3.25 3.3 8.45 1 5.2-4.05 8.05 1.85.05 3.7-1.15-2.4 7.4-11.5 9.15-3.25.9-8.3-.2l-.4-.1q-9-1-11.2-6.5l1.85 1.25q-1.8-2.65-2.2-6.4-.4-3.8 2.85-8.4-.45 1.35 0 2.7 4.9-4 3.25-7.95-1.8-4.25 2.7-6.15-1.9 4.9 1.75 8.85 4-1.45 3.5-9.1-.55-7.65 4.85-11.25-1.05 5.3 1.05 8.55 2.1 3.2.7 7.75 3.35-.65 3.95-6.15 2.35 4.15 1.7 7.85z" fill="none" stroke="#6d221b" stroke-linecap="round" stroke-linejoin="round" stroke-width="2.5"/><path d="M-110.9 35.7q-3.25.9-8.3-.2l-.4-.1-.2-.05-1.4-.45q-4-1.4-1.5-3.95-1.7-2.9-1.85-5.55-.25-5.4 6.45-8.9-.75 2.05-.6 3.9 4.05-1.6 3.55-9 3 3 2.1 10.55.25-1.5 1.75-1.85-.6 1.8.4 3.45 1.4-1.5 2.75-2.05-.3 1.1.75 3.1 1.05 1.95-1.55 4.8 1.65.2 3.3-1.5.05 4.7-2.9 6.75l-.6.35-.05.05-1.7.65" fill="#fb252f" fill-rule="evenodd" transform="translate(132.45 8.8)"/><path d="M-119.6 35.4q-9-1-11.2-6.5l1.85 1.25q-1.8-2.65-2.2-6.4-.4-3.8 2.85-8.4-.45 1.35 0 2.7 4.9-4 3.25-7.95-1.8-4.25 2.7-6.15-1.9 4.9 1.75 8.85 4-1.45 3.5-9.1-.55-7.65 4.85-11.25-1.05 5.3 1.05 8.55 2.1 3.2.7 7.75 3.35-.65 3.95-6.15 2.35 4.15 1.7 7.85-.85 5 1.65 6.4-.95-1.15.15-2.8.85-1.2.7-2.85 2.25 3.25 3.3 8.45 1 5.2-4.05 8.05 1.85.05 3.7-1.15-2.4 7.4-11.5 9.15l1.7-.65.05-.05.6-.35q2.95-2.05 2.9-6.75-1.65 1.7-3.3 1.5 2.6-2.85 1.55-4.8-1.05-2-.75-3.1-1.35.55-2.75 2.05-1-1.65-.4-3.45-1.5.35-1.75 1.85.9-7.55-2.1-10.55.5 7.4-3.55 9-.15-1.85.6-3.9-6.7 3.5-6.45 8.9.15 2.65 1.85 5.55-2.5 2.55 1.5 3.95l1.4.45.2.05" fill="#ffad0c" fill-rule="evenodd" transform="translate(132.45 8.8)"/></g><g id="i"><path d="M83.5 41.95q-11.25 3.25-13.55 12.2-2.3 8.85 8.2 17.15.55 9.55 2.7 21.75l.8 2.95q1.5 6.2 1.9 11.8-11.65 40.95-59.7 34.75 1.4-9.35.25-16.4.9.4 1.95.4 2.15 0 3.7-1.85 1.55-1.85 1.55-4.5l-.15-1.5.15-.05q6.1-1.4 11.55-8.15.75 2.05 2.65 3.75 3.3 2.95 6.05 3.2 2.7.25 5.2-3l.35-.4q.4.3.95.45 1.55.4 3.15-1l.85-.95.4.5q1 1 2.45 1 1.45 0 2.45-1 1-1 1-2.45 0-1.45-1-2.45-1-1-2.45-1l-1.15.2-.3-2.25q-.65-2.05-2.2-2.45-1.2-.3-2.35.5-.65-2.45-2.15-4.35-2.5-3.2-5.55-.75l-2.95 2.05.95-3.4.55-5.3.1.15q2.45 3.25 5.95 2.1 2.05-.7 3.75-1.7l.1 2.15q.25 2.35 1.35 3.35l.2-.2.05.35q.4 2.15 1.95 3.55l2.75 2.1q1 .6 2.25-1.25t1.25-4.5q0-2.65-1.25-4.3-.65-.85-1.4-1.2l-.55-3.25q-.85-3.35-1.3-6.8 1.95 1.2 3.4 1.2 1.6 0 2.25-1.85.6-1.9.25-4.6l-.6-4.9q-.3-2.15-1.9-1.85-1.6.3-2.8 2.55l-1.15 2.4q-.05-3.8.35-7.65Q62 74.4 60.7 80.75q-2.2-.85-5.15.1l-4.75 1.4 1.4-9.5.35.25q2.45 1.25 4.6 1.3 2.15.05 2.95-1.25.8-1.35.8-3.6t-1.45-3.3q-1.45-1.05-3.7-.95l-2.05.3.05-.05q1.2-4.35 3.95-8.85l.05.2q.75 2.9 1.8 4.85 1 1.9 3.85 2 2.85.05 2.45-2.3l-.85-5q-.4-2.6-2.6-3.85l-1.35-.75 2-2.5q7.1-8.5 13.8-12.1 6.7-3.65 17.05-.55-6.55.45-10.4 5.35m-50.9 84.6q-.9 4.25 1.75 6.35Q37 135 40.6 135t6-2.1q2.4-2.1 2.4-5.7t-2.55-6.15q-2.5-2.5-5.9-2.65-3.4-.15-5.2 1.9-1.85 2-2.75 6.25m24.9-8q-1.8-1.15-3.65.7Q52 121.1 52 123.7t1.6 5q1.6 2.35 4.45 1.85t3.35-2.35q.5-1.9 1.8-4.45 1.25-2.6-1.35-3.35t-4.35-1.85" fill="#fb4925" fill-rule="evenodd" transform="translate(1.5 -33.7)"/><path d="M78.15 71.3q-10.5-8.3-8.2-17.15 2.3-8.95 13.55-12.2-6.55 8.3-5.35 29.35" fill="#b03d28" fill-rule="evenodd" transform="translate(1.5 -33.7)"/><path d="m61.05 51.75 1.35.75q2.2 1.25 2.6 3.85l.85 5q.4 2.35-2.45 2.3-2.85-.1-3.85-2-1.05-1.95-1.8-4.85l-.05-.2q1.45-2.4 3.35-4.85M53.7 65.5l2.05-.3q2.25-.1 3.7.95 1.45 1.05 1.45 3.3t-.8 3.6q-.8 1.3-2.95 1.25-2.15-.05-4.6-1.3l-.35-.25q.75-4.55 1.5-7.25m-2.9 16.75 4.75-1.4q2.95-.95 5.15-.1-1.25 5.95-1.15 11.2-1.7 1-3.75 1.7-3.5 1.15-5.95-2.1l-.1-.15 1.05-9.15m13.6-7.35 1.15-2.4q1.2-2.25 2.8-2.55 1.6-.3 1.9 1.85l.6 4.9q.35 2.7-.25 4.6-.65 1.85-2.25 1.85-1.45 0-3.4-1.2-.5-3.5-.55-7.05M66.8 92q.75.35 1.4 1.2 1.25 1.65 1.25 4.3T68.2 102q-1.25 1.85-2.25 1.25l-2.75-2.1q-1.55-1.4-1.95-3.55.95.65 2.5.4 3.5-1 3.05-6m-18.55 8.1 2.95-2.05q3.05-2.45 5.55.75 1.5 1.9 2.15 4.35-.4.2-.75.55-1.6 1.4-2.25 3.9-.65 2.45 0 4.5.4 1.3 1.2 1.95l-.35.4q-2.5 3.25-5.2 3-2.75-.25-6.05-3.2-1.9-1.7-2.65-3.75l4.25-6.35 1.15-4.05m15.5 7.25 1.15-.2q1.45 0 2.45 1 1 1 1 2.45 0 1.45-1 2.45-1 1-2.45 1-1.45 0-2.45-1l-.4-.5q.9-1.2 1.35-2.95l.35-2.25m-32.6 11.35.15 1.5q0 2.65-1.55 4.5t-3.7 1.85q-1.05 0-1.95-.4-.8-4.9-2.8-8.65 5.5 2.15 9.85 1.2m1.45 7.85q.9-4.25 2.75-6.25 1.8-2.05 5.2-1.9 3.4.15 5.9 2.65Q49 123.6 49 127.2q0 3.6-2.4 5.7t-6 2.1q-3.6 0-6.25-2.1t-1.75-6.35m24.9-8q1.75 1.1 4.35 1.85 2.6.75 1.35 3.35-1.3 2.55-1.8 4.45-.5 1.85-3.35 2.35t-4.45-1.85q-1.6-2.4-1.6-5t1.85-4.45q1.85-1.85 3.65-.7" fill="#c43419" fill-rule="evenodd" transform="translate(1.5 -33.7)"/><path d="m82.65 121.4-.25 1.1Q71.85 167.25 0 160.45l.7-5.85q29.05 4.7 54.1-3.8 18.75-7.35 27.85-29.4" fill="#ffad0c" fill-rule="evenodd" transform="translate(1.5 -33.7)"/><path d="M60.7 80.75q1.3-6.35 4.05-13.5-.4 3.85-.35 7.65l-1.05 2.6q-1 2.75 1.2 4.2l.4.25q.45 3.45 1.3 6.8L66.8 92q-.75-.4-1.65-.3-1.8.2-3.05 1.7-1.25 1.45-.9 3.85l-.2.2q-1.1-1-1.35-3.35l-.1-2.15 2.25-1.55q2.45-2.15 2.45-4.8t-2.5-4.3l-1.05-.55m-1.8 22.4q1.15-.8 2.35-.5 1.55.4 2.2 2.45l.3 2.25q-.75.25-1.3.8-1 1-1 2.45 0 1.1.6 1.95l-.85.95q-1.6 1.4-3.15 1-.55-.15-.95-.45 2.2-3.1 2.2-7.4 0-1.9-.4-3.5" fill="#fdaa9a" fill-rule="evenodd" transform="translate(1.5 -33.7)"/><path d="m61.25 97.6-.05-.35q-.35-2.4.9-3.85 1.25-1.5 3.05-1.7.9-.1 1.65.3.45 5-3.05 6-1.55.25-2.5-.4m-.55-16.85 1.05.55q2.5 1.65 2.5 4.3t-2.45 4.8l-2.25 1.55q-.1-5.25 1.15-11.2m4.25 1.2-.4-.25q-2.2-1.45-1.2-4.2l1.05-2.6q.05 3.55.55 7.05m-7.85 32.1q-.8-.65-1.2-1.95-.65-2.05 0-4.5.65-2.5 2.25-3.9.35-.35.75-.55.4 1.6.4 3.5 0 4.3-2.2 7.4m4.95-1.5q-.6-.85-.6-1.95 0-1.45 1-2.45.55-.55 1.3-.8l-.35 2.25q-.45 1.75-1.35 2.95" fill="#ea867b" fill-rule="evenodd" transform="translate(1.5 -33.7)"/><path d="M24.1 126.15q1.15 7.05-.25 16.4 48.05 6.2 59.7-34.75.5 7.3-.9 13.6-9.1 22.05-27.85 29.4-25.05 8.5-54.1 3.8L6 107.5q8.5 7.35 15.3 10 2 3.75 2.8 8.65" fill="#a53327" fill-rule="evenodd" transform="translate(1.5 -33.7)"/><path d="M85 8.25q3.85-4.9 10.4-5.35-10.35-3.1-17.05.55-6.7 3.6-13.8 12.1l-2 2.5q-1.9 2.45-3.35 4.85-2.75 4.5-3.95 8.85l-.05.05q-.75 2.7-1.5 7.25l-1.4 9.5-1.05 9.15-.55 5.3-.95 3.4-1.15 4.05-4.25 6.35q-5.45 6.75-11.55 8.15l-.15.05q-4.35.95-9.85-1.2-6.8-2.65-15.3-10l-5.3 47.1-.7 5.85q71.85 6.8 82.4-37.95l.25-1.1q1.4-6.3.9-13.6-.4-5.6-1.9-11.8l-.8-2.95q-2.15-12.2-2.7-21.75Q78.45 16.55 85 8.25z" fill="none" stroke="#672018" stroke-linecap="round" stroke-linejoin="round" stroke-width="3"/></g><g id="j"><path d="m121.6 142 21.4 16.35-4.5 9.5-.1-.35q-1-3.9-1-5.35l-.2.2q0 1-.4 2.2h-.2l-1.8-5.2-1.6 5-2-9-.6 4.8v-.2l-1-2.15-1-1.85q-4.95-9.4-7-13.95" fill="#ffb309" fill-rule="evenodd" transform="translate(1.5 1)"/><path d="m138.5 167.85-8.9 18.7q-11.7-21.25-13-48.4l5 3.85q2.05 4.55 7 13.95l1 1.85 1 2.15v.2l.6-4.8 2 9 1.6-5 1.8 5.2h.2q.4-1.2.4-2.2l.2-.2q0 1.45 1 5.35l.1.35" fill="#fb4925" fill-rule="evenodd" transform="translate(1.5 1)"/><path d="m140 168.85-8.9 18.7q-11.7-21.25-13-48.4l5 3.85 21.4 16.35-4.5 9.5z" fill="none" stroke="#6d221b" stroke-linecap="round" stroke-linejoin="round" stroke-width=".05"/><path d="m123.4 44.65-1.6 2.9q-13.95 12.4-6.7 37.15.35-4.85 1-8.65l1.6 1.8q.9 12.35 10.1 21.4-6.2-11.65-5.3-20l.15-1.1q.4-2.9 1.05-5.85 7.15-3 16.4-2.95l-12.3 6.35 2.1 1.15-3.7 4.35h2.3l-3.7 4.4h3.25l.15 3.55 1.6 1.15 17.3 12.45-7 .3-4.7-1.1 1.1 2.2-.95.4-3.15-1.45 1.7 2.1-1.2.65-2.1-.65.85 1.4-3.4 2.3h-2.5l1.35.9-.7.55-.75-1.4q-4.5-7.95-10.85-11.5-21.45-32.5-59.75-40.65l-.75-9.75v-.15l8.4-5.8-8.4 5.8-.25-3.05q-.85-2.2-3.15-2.6v-.05q5.5-1.65 11.8-.1l3.05-2.1 16-11q-8.25 11.7-18.7 21.2l12.9-8.5-7.85 19.1 6.2-5.3 3.7 6.45L79.4 52l12 11.5v-9.9l-3.3-4.9q-.8-3-1-6.25 30.6-13.8 52.1-16.15-4.05 3.25-7.45 7-11.05 7.1-19.85 15.25l11.5-3.9m3.25 43.4 1.55 1.1-1.55-1.1M47.95 31.5q-.45 1.9-.6 3.5-.2 2.15.05 3.8.9 1.95 2 2.4-4.85.35-14.3 6.6-5.6-8.5-9.4-23.4 4.7-4.5 9.95-8.2l3.75-.55L28.45 27.9l3.8-.8-1.95 9.7 4.5-7.5.45 17.9 3.05-13.9q.4 5.35 9.65-1.8" fill="#fb4925" fill-rule="evenodd" transform="translate(1.5 1)"/><path d="m129.8 90.3-1.6-1.15-.15-3.55h-3.25l3.7-4.4h-2.3l3.7-4.35-2.1-1.15 12.3-6.35-10.3 20.95m-6.4-45.65q3.6-6.15 8.35-11.35 6.05-3.9 12.75-7.45-16.25 24.35-20.8 46.45-.65 2.95-1.05 5.85l-.15 1.1q-3-.05-4.8-1.4-.35-4.45.4-9.25-1.2 3.05-2 7.45-3.3-5.75 2.45-21.55 1.45-3.65 3.25-6.95 2.8-2.55 6.45-4.55l-4.85 1.65m4.25 68.3.85-2.2-1.4-.95 1.15-.9h4.8l-1.4-2.3 1.25-.75 2.3.75-1.1-1.4 1.45-.65 1.45.65-.5-1.05 3.6-1.1 11 2.6q-13.45 4.1-19.05 8.95l-3.1 1.4-1.3-3.05m9.3 7.75 1.5 1.45q-3.6 1.35-6.6 2.95l-1.1-3.95.95-.5-1.6-1.85 6.85 1.9" fill="#ca8a0e" fill-rule="evenodd" transform="translate(1.5 1)"/><path d="m121.8 47.55 1.6-2.9 4.85-1.65q-3.65 2-6.45 4.55m9.95-14.25q3.4-3.75 7.45-7l5.3-.45q-6.7 3.55-12.75 7.45m-3.5 75.6 3.4-2.3 1.4 2.3h-4.8m4.65-3.05 1.2-.65 1.1 1.4-2.3-.75m2.65-1.3.95-.4.5 1.05-1.45-.65m4.55-1.5 7-.3 4 2.9-11-2.6m-24-27q.8-4.4 2-7.45-.75 4.8-.4 9.25l-1.6-1.8m15.95 38.55-.75.65 5.65 5.45-6.85-1.9 1.6 1.85-.95.5-1.8-5.15 3.1-1.4" fill="#d13b1a" fill-rule="evenodd" transform="translate(1.5 1)"/><path d="M87.1 42.45q.2 3.25 1 6.25-9.8 4.95-6.35-20.7L90 22.3q-3.6 11-2.9 20.15" fill="#ca8005" fill-rule="evenodd" transform="translate(1.5 1)"/><path d="m123.4 44.65-11.5 3.9q8.8-8.15 19.85-15.25-4.75 5.2-8.35 11.35M88.1 48.7l3.3 4.9v9.9L79.4 52 78 60.95l-3.7-6.45-6.2 5.3 7.85-19.1-12.9 8.5Q73.5 39.7 81.75 28 78.3 53.65 88.1 48.7m39 61.1-1.35-.9h2.5l-1.15.9m4.55-3.2-.85-1.4 2.1.65-1.25.75m2.45-1.4-1.7-2.1 3.15 1.45-1.45.65m2.4-1.05-1.1-2.2 4.7 1.1-3.6 1.1m-14.7-56.6q-1.8 3.3-3.25 6.95-5.75 15.8-2.45 21.55-.65 3.8-1 8.65-7.25-24.75 6.7-37.15m-4.1 30.3q1.8 1.35 4.8 1.4-.9 8.35 5.3 20-9.2-9.05-10.1-21.4M55.2 5.9q-8.4 11.3-14.45 22.6l-2.45 4.8-3.05 13.9-.45-17.9-4.5 7.5 1.95-9.7-3.8.8L39.4 15.65l-3.75.55Q44.6 9.9 55.2 5.9" fill="#ffad0c" fill-rule="evenodd" transform="translate(1.5 1)"/><path d="M131.85 125.1q-2.9 1.55-5.25 3.35l3.25-5.75h-2.05l2.95-1.55 1.1 3.95" fill="#a26e09" fill-rule="evenodd" transform="translate(1.5 1)"/><path d="m128.95 116-3 1.4 1.7-4.45 1.3 3.05" fill="#9b7007" fill-rule="evenodd" transform="translate(1.5 1)"/><path d="m126.4 110.35.7-.55 1.4.95-.85 2.2-1.25-2.6" fill="#c83d1c" fill-rule="evenodd" transform="translate(1.5 1)"/><path d="M59.75 0 55.2 5.9q-10.6 4-19.55 10.3l-3.7.55L59.75 0" fill="#cd7f03" fill-rule="evenodd" transform="translate(1.5 1)"/><path d="m40.75 28.5 9.4-4q-1.45 3.85-2.2 7-9.25 7.15-9.65 1.8l2.45-4.8" fill="#c83c21" fill-rule="evenodd" transform="translate(1.5 1)"/><path d="M102.25 126.9q14.15-18.5 24.15-16.55l1.25 2.6-1.7 4.45 3-1.4 1.8 5.15-2.95 1.55h2.05l-3.25 5.75q-6.75 5.15-8.85 12.3l-15.5-13.85" fill="#a53327" fill-rule="evenodd" transform="translate(1.5 1)"/><path d="m65.75 39-3.05 2.1q-6.3-1.55-11.8.1l-.5.15.5-.1q2.3.4 3.15 2.6l.25 3.05v.15l.75 9.75q38.3 8.15 59.75 40.65 6.35 3.55 10.85 11.5l.75 1.4q-10-1.95-24.15 16.55L6.65 41.5Q24.75 2.35 59.75 0l-27.8 16.75 3.7-.55q-5.25 3.7-9.95 8.2 3.8 14.9 9.4 23.4 9.45-6.25 14.3-6.6-1.1-.45-2-2.4-.25-1.65-.05-3.8l9.95-3.65L65.75 39" fill="#b72d1e" fill-rule="evenodd" transform="translate(1.5 1)"/><path d="M140.7 27.3q-21.5 2.35-52.1 16.15-.7-9.15 2.9-20.15L83.25 29l-16 11-8.45-7.65L48.85 36q.15-1.6.6-3.5.75-3.15 2.2-7l-9.4 4Q48.3 18.2 56.7 6.9L61.25 1q-35 2.35-53.1 41.5l95.6 85.4 15.5 13.85q2.1-7.15 8.85-12.3 2.35-1.8 5.25-3.35 3-1.6 6.6-2.95l-1.5-1.45-5.65-5.45.75-.65q5.6-4.85 19.05-8.95l-4-2.9-17.3-12.45 10.3-20.95q-9.25-.05-16.4 2.95 4.55-22.1 20.8-46.45l-5.3.45" fill="none" stroke="#672018" stroke-linecap="round" stroke-linejoin="round" stroke-width="2"/><path d="M87.1 42.45q.2 3.25 1 6.25M65.75 39l-3.05 2.1-8.4 5.8v.15m75.5 43.25-1.6-1.15-1.55-1.1m-4-9.9q.4-2.9 1.05-5.85M47.4 38.8q-.25-1.65-.05-3.8m-6.6-6.5-2.45 4.8" fill="none" stroke="#672018" stroke-linecap="round" stroke-linejoin="round" transform="translate(1.5 1)"/><path d="M94.3 72.4q.75-2 .15-3.5l.35-.45-.6-.1q-1.55-2.8-8.65-3.85l18.1-1.35q5.75 15.9 9.55 33.1l-9.15-17.8V87l-.65-.6-3.45-12.05-3 5.45v-7.75l-2.65.35" fill="#ffad0c" fill-rule="evenodd" transform="translate(1.5 1)"/><path d="m94.45 68.9-.25-.55.6.1-.35.45m18.75 27.35q-4.55-5.05-9.15-9.25v-8.55l9.15 17.8m-9.8-9.85q-5.95-5.45-11.9-9.5 2.05-2.5 2.8-4.5l2.65-.35v7.75l3-5.45 3.45 12.05" fill="#fd4b27" fill-rule="evenodd" transform="translate(1.5 1)"/><path d="m94.3 72.4-3.3.45 3.45-3.95q.6 1.5-.15 3.5m-.1-4.05-19-3.05 10.35-.8q7.1 1.05 8.65 3.85M104.05 87v1.6l-.65-2.2.65.6" fill="#c78a0d" fill-rule="evenodd" transform="translate(1.5 1)"/><path d="M20.85 241.25Q3.15 230.95.25 214.7q-1.7-16.2 8.75-35.1 7.45-13.4 10.25-23.3 3.55-12.2 1.65-19.2 7-3.7 16.35-3.7Q68.6 135.25 66 212.1q-5.5 11.8-3.95 25.15-12.85 11.5-41.2 4" fill="#fafa9a" fill-rule="evenodd" transform="translate(1.5 1)"/><path d="M63.75 118.4q20 32.6 31.85 114.8-6.8 5.3-14.6 9.5-13.65 14.55-46.75 4.75-7.55-2.75-13.4-6.2 28.35 7.5 41.2-4Q60.5 223.9 66 212.1q2.6-76.85-28.75-78.7l26.5-15" fill="#b5b458" fill-rule="evenodd" transform="translate(1.5 1)"/><path d="M36 97.05q15.4 1.3 27.75 21.35l-26.5 15q-9.35 0-16.35 3.7-2.15-7.7-10.85-9.2L36 97.05" fill="#a53327" fill-rule="evenodd" transform="translate(1.5 1)"/><path d="M94.45 68.9 91 72.85l3.3-.45q-.75 2-2.8 4.5 5.95 4.05 11.9 9.5l.65 2.2V87q4.6 4.2 9.15 9.25 3.75 17 5.6 35.3 1.9 36.3 13.65 47.1 9.85 43.25-36.85 54.55Q83.75 151 63.75 118.4 51.4 98.35 36 97.05l25.9-30.8 13.3-.95 19 3.05.25.55" fill="#b72d1e" fill-rule="evenodd" transform="translate(1.5 1)"/><path d="m76.7 66.3-13.3.95m56.9 65.3q-1.85-18.3-5.6-35.3-3.8-17.2-9.55-33.1l-18.1 1.35-10.35.8" fill="none" stroke="#672018" stroke-linecap="round" stroke-linejoin="round" stroke-width="2"/><path d="M36 97.05q15.4 1.3 27.75 21.35 20 32.6 31.85 114.8" fill="none" stroke="#672018" stroke-linecap="round" stroke-linejoin="round" transform="translate(1.5 1)"/><path d="m63.4 67.25-25.9 30.8-25.95 30.85q8.7 1.5 10.85 9.2 1.9 7-1.65 19.2-2.8 9.9-10.25 23.3-10.45 18.9-8.75 35.1 2.9 16.25 20.6 26.55 5.85 3.45 13.4 6.2 33.1 9.8 46.75-4.75 7.8-4.2 14.6-9.5 46.7-11.3 36.85-54.55-11.75-10.8-13.65-47.1" fill="none" stroke="#672018" stroke-linecap="round" stroke-linejoin="round" stroke-width="3"/><path d="M23.4 179.2q.95 3.35 2.05 6.4-.75 8.8 2.75 16.35-2.5 1.95-4.7 3.05-3.6-11.95-.1-25.8M34 196.65l3.6-3.95q2.7 13.7 2.15 23.4-2.65 2.85-5.2 4.85 2.55-2 5.2-4.85-.95 15.25-9.95 20.5l-6.4-.95-1.9-.85q10.45.45 12.85-13.5l.2-.35-.2.15q1.55-9.15-.35-24.45" fill="#978f8d" fill-rule="evenodd" transform="translate(1.5 1)"/><path d="m37.6 192.7 2.15-2.55q3.95 8.45 4.35 19.3l.1 1.4q1.05 25.9-14.4 25.75 9-5.25 9.95-20.5l4.45-5.25-4.45 5.25q.55-9.7-2.15-23.4" fill="#c9bebc" fill-rule="evenodd" transform="translate(1.5 1)"/><path d="M25.45 185.6q2.7 7.5 6.3 13.3l-3.55 3.05q-3.5-7.55-2.75-16.35" fill="#c8bdbb" fill-rule="evenodd" transform="translate(1.5 1)"/><path d="M21.5 234.8q-11.35-5.65-14-20.85-1.65-9.6.15-23 .45 2.45 1.05 4.5 2.75 29.75 24.65 1.85l.65-.65q1.9 15.3.35 24.45-13.6 10.65-24.05-3 11.45 20.85 24.05 3.2-2.4 13.95-12.85 13.5M9.15 196.9q3.5-11.6 14.25-17.7-3.5 13.85.1 25.8-10.05 4.85-14.35-8.1M7.5 213.95l2.8 4.15-2.8-4.15M21.05 187l-.05-.95q-.05-.3-.6-.45-1.55 1.1-4.25 6.9-2.75 5.75-2.75 7.55 0 1.45.95 2.95 1 1.6 2.2 1.6 1.4 0 1.4-3.6l-.2-2.4q0-2.95 1.65-6.95l1.65-4.65" fill="#c7bcba" fill-rule="evenodd" transform="translate(1.5 1)"/><path d="m8.7 195.45.45 1.45q4.3 12.95 14.35 8.1 2.2-1.1 4.7-3.05l3.55-3.05 1.6-1.6q-21.9 27.9-24.65-1.85m25.65 25.85q-12.6 17.65-24.05-3.2 10.45 13.65 24.05 3v.2M21.05 187l-1.65 4.65q-1.65 4-1.65 6.95l.2 2.4q0 3.6-1.4 3.6-1.2 0-2.2-1.6-.95-1.5-.95-2.95 0-1.8 2.75-7.55 2.7-5.8 4.25-6.9.55.15.6.45l.05.95" fill="#fff" fill-rule="evenodd" transform="translate(1.5 1)"/><path d="m10.3 218.1-2.8-4.15m20.7-12 3.55-3.05m-3.55 3.05q-2.5 1.95-4.7 3.05-10.05 4.85-14.35-8.1m25.2 24.2q-13.6 10.65-24.05-3m29.45-2 4.45-5.25m-9.65 10.1q2.55-2 5.2-4.85m-5.2 4.85-.2.15" fill="none" stroke="#585352" stroke-linecap="round" stroke-linejoin="round" transform="translate(1.5 1)"/><path d="M23 235.8q-11.35-5.65-14-20.85-1.65-9.6.15-23 .45 2.45 1.05 4.5l.45 1.45q3.5-11.6 14.25-17.7.95 3.35 2.05 6.4 2.7 7.5 6.3 13.3l1.6-1.6.65-.65 3.6-3.95 2.15-2.55q3.95 8.45 4.35 19.3l.1 1.4q1.05 25.9-14.4 25.75l-6.4-.95-1.9-.85z" fill="none" stroke="#585352" stroke-linecap="round" stroke-linejoin="round" stroke-width="2"/></g><g id="k"><path d="M33.2 84.6q4.35 3.8 9.8 5.25-3.65 4.65-4.3 9.8-10.75-7.6-6.45-13.9l.95-1.15" fill="#fb4925" fill-rule="evenodd"/><path d="M33.2 84.6q1.95-2.9 2.65-7.05l23.75-5.9q-1.15 12.55 5.2 18.2l-23.55 11.5-2.55-1.7q.65-5.15 4.3-9.8-5.45-1.45-9.8-5.25" fill="#a53327" fill-rule="evenodd"/><path d="m38.7 99.65 2.55 1.7 23.55-11.5q-6.35-5.65-5.2-18.2l-23.75 5.9q-.7 4.15-2.65 7.05l-.95 1.15q-4.3 6.3 6.45 13.9z" fill="none" stroke="#672018" stroke-linecap="round" stroke-linejoin="round" stroke-width="3"/><path d="m58.15 83.75.1 1.1-.15 1.65q-.3.7-1.35.7-1.5 0-1.5-1.25 0-.65.55-.65.25 0 .3.4l.55.35.4-.05.1-.35q-.25-1.45-1.3-1.45-.55 0-1 .5-.45.5-.45 1.2 0 2.5 3.5 2.5 3.1 0 5.65-1.65l1.05.65q-3.95 2.7-9.75.6-2.75 8-10.25 16.6-1.05 1.4-1.85 3.35l-.2-.8-.1-.3q.65-1.75 1.6-3.3l2.2-3.25 2.3-2.85 3.25-4.15q1.65-2.3 1.7-5 0-2.15-2.2-2.3-2.7 1.55-1.65 4.4.5.7.9.6l.8-.55q.45-.4-.5-.85-.25-.15-.25-.65t.65-.5q1.3 0 1.3 1.45 0 2.25-1.85 2.25-.85 0-1.8-.9l-.9-1.2q2.3-4.95 2.4-9.05l7.75 2.75" fill="#f8fcb2" fill-rule="evenodd"/><path d="M63.55 86.75Q61 88.4 57.9 88.4q-3.5 0-3.5-2.5 0-.7.45-1.2t1-.5q1.05 0 1.3 1.45l-.1.35-.4.05-.55-.35q-.05-.4-.3-.4-.55 0-.55.65 0 1.25 1.5 1.25 1.05 0 1.35-.7l.15-1.65-.1-1.1 2.1.75 2.45 1.7.85.55M48 90.05l.9 1.2q.95.9 1.8.9 1.85 0 1.85-2.25 0-1.45-1.3-1.45-.65 0-.65.5t.25.65q.95.45.5.85l-.8.55q-.4.1-.9-.6-1.05-2.85 1.65-4.4 2.2.15 2.2 2.3-.05 2.7-1.7 5l-3.25 4.15-2.3 2.85-2.2 3.25q-.95 1.55-1.6 3.3l-.9-3.25q.95-4 4.15-9.25l2.3-4.3" fill="#b7b659" fill-rule="evenodd"/><path d="M44.6 104.6Q52.1 96 54.85 88q5.8 2.1 9.75-.6l9.05 5.35q-4.55 1.85-2.45 6.1.7 1.1 3.95.65 4.35 2 7.4 8.85 2.3 4.55 4.1 4.45-.4 4.8-2.65 8.15 1.75-13.2-13.3-18.95l-2.6-2.7q-6.75-1.65-6.55 4.15.15 1.2 3 3 4.5 3.3 9.25 9 1.1 1.55 1.65-1.1.2 2.5.05 5.3-.3 3.65-1.35 4.95-4.9-14.7-15.75-20.35l-.95-1.8q-6.45-.3-7.5 3.8 1.8 5.9 12.05 17.3l-.5 4.1-10.4-14.2q-5.5.3-6.5-8.85" fill="#978f8d" fill-rule="evenodd"/><path d="M42.75 107.95q.8-1.95 1.85-3.35 1 9.15 6.5 8.85l10.4 14.2-.6 2.8q-5.25-4.9-10.85-14.75-6.05-.35-6.55-3.85l-.75-3.9m16.45-1.85-.8-1.85.8 1.85q3.45 8.3 2.8 17.45-10.25-11.4-12.05-17.3 1.05-4.1 7.5-3.8l.95 1.8q10.85 5.65 15.75 20.35l-3.1-.05q-3.15-10.6-11.85-18.45m10.95-1.1q-.25.1-.3.65l.15 1.2.45 1.1.6.35q.25-.05.3-.6l-.1-1.2-.5-1.1q-.35-.45-.6-.4m-12.3 6.15q-.4.1-.6.65-.1.6.1 1.35.2.7.55 1.1.45.5.85.4.4-.15.5-.75.2-.6 0-1.3l-.65-1.15q-.35-.45-.75-.3m17.6 3.2q-.55 2.65-1.65 1.1-4.75-5.7-9.25-9-2.85-1.8-3-3-.2-5.8 6.55-4.15l2.6 2.7q15.05 5.75 13.3 18.95-2.5-10.55-10.5-14.25 1.55 3.45 1.95 7.65m11.2-1.55q-1.8.1-4.1-4.45-3.05-6.85-7.4-8.85-3.25.45-3.95-.65-2.1-4.25 2.45-6.1 3.35 1.9 5.65 3 5.3 2.5 5.7 4.25 2.05 7.35 1.65 12.8M80.6 99.35q-.35.05-.5.6-.1.5.1 1.1l.45 1q.4.35.75.3l.45-.6-.05-1.15-.5-.95q-.35-.4-.7-.3M70.7 102q1.7 2.15 2.8 4.7-1.1-2.55-2.8-4.7" fill="#c7bcba" fill-rule="evenodd"/><path d="M57.85 111.15q.4-.15.75.3l.65 1.15q.2.7 0 1.3-.1.6-.5.75-.4.1-.85-.4-.35-.4-.55-1.1-.2-.75-.1-1.35.2-.55.6-.65m12.3-6.15q.25-.05.6.4l.5 1.1.1 1.2q-.05.55-.3.6l-.6-.35-.45-1.1-.15-1.2q.05-.55.3-.65m10.45-5.65q.35-.1.7.3l.5.95.05 1.15-.45.6q-.35.05-.75-.3l-.45-1q-.2-.6-.1-1.1.15-.55.5-.6" fill="#fff" fill-rule="evenodd"/><path d="m58.4 104.25.8 1.85m-.8-1.85-.95-1.8M68.1 99.3l2.6 2.7q1.7 2.15 2.8 4.7" fill="none" stroke="#544f4e" stroke-linecap="round" stroke-linejoin="round"/><path d="M58.15 83.75 50.4 81q-.1 4.1-2.4 9.05l-2.3 4.3q-3.2 5.25-4.15 9.25l.9 3.25.1.3.2.8.75 3.9q.5 3.5 6.55 3.85 5.6 9.85 10.85 14.75l.6-2.8.5-4.1q.65-9.15-2.8-17.45 8.7 7.85 11.85 18.45l3.1.05q1.05-1.3 1.35-4.95.15-2.8-.05-5.3-.4-4.2-1.95-7.65 8 3.7 10.5 14.25 2.25-3.35 2.65-8.15.4-5.45-1.65-12.8-.4-1.75-5.7-4.25-2.3-1.1-5.65-3L64.6 87.4l-1.05-.65-.85-.55-2.45-1.7-2.1-.75z" fill="none" stroke="#544f4e" stroke-linecap="round" stroke-linejoin="round" stroke-width="2"/><path d="m27 37.9-1.25-.35-4.2.25q-2 .7-2 2.25t1.6 2.65q1.65 1.1 3.95 1.1 2 0 3.5-.85l1 1.1q2.1 1.95 4.85 2.45 2.7.5 3.75-2.65 1-3.2.75-5.55-.25-2.4-2.35-3.8-2.15-1.45-4.1-1.55-2-.1-3.95 1.85-1.35 1.35-1.55 3.1M6.2 33.7Q28.05 44.05 41.5 4.15q3.1 1.95 5.7 4.3-5.9 8.5 6 6.85l2.35 3.95q-3.65.7-6.45 2.6-3.4 2.3-4.8 8.45-1.45 6.15.05 13.05 1.45 6.9 9.5.7l6.8-5.45.15 5.7q-8.15 1.85-10.55 13.4-1.7 7.05 8 7.35l-2.15 3.7q-5.95-3.4-9.05-1.45-4.7 3.7 1.7 8.8-5.5 5.05-11.05 6.1-9.45-.5-19.1-3.7-8.4-6.25-15.15-20.8-3.85-8.3 2.75-24m39.3-11.1q.65-2.25-.05-3.55-.65-1.25-2.9-1.2-2.25.05-5 2.7-2.8 2.7-3.4 5.5-.65 2.75.6 4Q36 31.4 38.4 31q2.4-.4 4.5-3.3 2-2.9 2.6-5.1M31.8 54.05l.6-1q.6-1.6.55-2.8-.05-1.2-.95-2.2-.95-1-2.35-1.25-1.6-.9-5.15-1-6.1-.15-9.3 2.35-3.25 2.5-3.45 6.35-.3 3.85 2.1 7 2.45 3.15 7.85 2.95 5.5-.15 8.25-3.1 2.7-2.9 1.95-6.7l-.1-.6m15.35-5.4q-1.4-1.95-3.55-1.05-2.2.85-5.15 2.55-2.95 1.7-2.7 4.7.25 2.95 2.1 5.25 1.8 2.3 4.65 2.95 2.8.65 3.75-2.75l1.6-6.55q.65-3.25-.7-5.1M37 66.7q-.8.7-.8 1.55 0 .85.75 1.45.8.65 1.9.65 1.1 0 2-.85.85-.9.95-1.95.1-1.05-.75-2.2-.8-1.15-2.05-.25-1.25.9-2 1.6" fill="#fb4925" fill-rule="evenodd"/><path d="M27 37.9q.2-1.75 1.55-3.1 1.95-1.95 3.95-1.85 1.95.1 4.1 1.55 2.1 1.4 2.35 3.8.25 2.35-.75 5.55-1.05 3.15-3.75 2.65-2.75-.5-4.85-2.45l-1-1.1.4-.25q1.65-1.1 1.55-2.15-.15-1.05-1.4-1.75-.85-.5-2.15-.9M47.2 8.45q3.4 3.1 6 6.85-11.9 1.65-6-6.85m8.35 10.8q4.35 8.3 5.1 19.35l-6.8 5.45q-8.05 6.2-9.5-.7-1.5-6.9-.05-13.05 1.4-6.15 4.8-8.45 2.8-1.9 6.45-2.6M60.8 44.3q-.1 9.5-2.55 20.75-9.7-.3-8-7.35 2.4-11.55 10.55-13.4m-4.7 24.45q-3.15 5.2-7.35 7.35-6.4-5.1-1.7-8.8 3.1-1.95 9.05 1.45M45.5 22.6q-.6 2.2-2.6 5.1-2.1 2.9-4.5 3.3-2.4.4-3.65-.95-1.25-1.25-.6-4 .6-2.8 3.4-5.5 2.75-2.65 5-2.7 2.25-.05 2.9 1.2.7 1.3.05 3.55m1.65 26.05q1.35 1.85.7 5.1l-1.6 6.55q-.95 3.4-3.75 2.75-2.85-.65-4.65-2.95-1.85-2.3-2.1-5.25-.25-3 2.7-4.7 2.95-1.7 5.15-2.55 2.15-.9 3.55 1.05m-17.5-1.85q1.4.25 2.35 1.25.9 1 .95 2.2.05 1.2-.55 2.8l-.6 1-.95-5.6q-.1-1-1.2-1.65M37 66.7q.75-.7 2-1.6 1.25-.9 2.05.25.85 1.15.75 2.2-.1 1.05-.95 1.95-.9.85-2 .85t-1.9-.65q-.75-.6-.75-1.45t.8-1.55" fill="#c73b20" fill-rule="evenodd"/><path d="M63.1 70.9q9.85-12.7 11.15-37.25 1.25-20.2-7.4-31.95 6 3.7 9.8 11.9 3.8 9.45 1.5 38-.85 7.65-15.05 19.3" fill="#ffad0c" fill-rule="evenodd"/><path d="M28.6 42.95q-1.5.85-3.5.85-2.3 0-3.95-1.1-1.6-1.1-1.6-2.65 0-1.55 2-2.25l4.2-.25 1.25.35.05 1.55q.3 1.95 1.55 3.5m3.2 11.1.1.6q.75 3.8-1.95 6.7-2.75 2.95-8.25 3.1-5.4.2-7.85-2.95-2.4-3.15-2.1-7 .2-3.85 3.45-6.35 3.2-2.5 9.3-2.35 3.55.1 5.15 1h-.05q-1.45-.25-3.2.5-1.75.75-1 2.9t1.9 3.3q1.15 1.15 2.8 1.15 1.05 0 1.7-.6" fill="#fdaa9a" fill-rule="evenodd"/><path d="M28.6 42.95q-1.25-1.55-1.55-3.5L27 37.9q1.3.4 2.15.9 1.25.7 1.4 1.75.1 1.05-1.55 2.15l-.4.25m1.05 3.85q1.1.65 1.2 1.65l.95 5.6q-.65.6-1.7.6-1.65 0-2.8-1.15t-1.9-3.3q-.75-2.15 1-2.9t3.2-.5h.05" fill="#ea867b" fill-rule="evenodd"/><path d="M6.2 33.7Q-6.95 20 7.7 7.45 22.75-3.85 37.75 2l29.1-.3q8.65 11.75 7.4 31.95Q72.95 58.2 63.1 70.9q-4.65 3.75-10.65 7.95l-7.7 3.35q-3.5.2-7.05 0 5.55-1.05 11.05-6.1 4.2-2.15 7.35-7.35l2.15-3.7Q60.7 53.8 60.8 44.3l-.15-5.7q-.75-11.05-5.1-19.35L53.2 15.3q-2.6-3.75-6-6.85-2.6-2.35-5.7-4.3Q28.05 44.05 6.2 33.7l.6-1.4-.6 1.4" fill="#a53327" fill-rule="evenodd"/><path d="m6.2 33.7.6-1.4m30.9 49.9q3.55.2 7.05 0m7.7-3.35q6-4.2 10.65-7.95 14.2-11.65 15.05-19.3 2.3-28.55-1.5-38-3.8-8.2-9.8-11.9M6.2 33.7q-6.6 15.7-2.75 24Q10.2 72.25 18.6 78.5q9.65 3.2 19.1 3.7" fill="none" stroke="#672018" stroke-linecap="round" stroke-linejoin="round" stroke-width="3"/></g><g id="l"><path d="M46.45 0q12.1 6.7 23.5 10.3Q81.8 19.05 89.9 30.45l-2.45-.35q-18.65-17.5-45-26.15l4-3.95M89.9 30.45l2.75.15q16.3 17.85 8.4 31.8l-2.85 1.25q4.3-14.5-8.3-33.2" fill="#ffad0c" fill-rule="evenodd" transform="translate(.5 1.5)"/><path d="M42.45 3.95q26.35 8.65 45 26.15l2.45.35q12.6 18.7 8.3 33.2-18.1 7.7-32.65 11.7Q57.9 60.4 44.5 61.7q-6.45 4.6-9.6-6.3-14.1-28.45 7.55-51.45m45 26.15q-2.65-.5-4.85-1.4 2.2.9 4.85 1.4" fill="#a53327" fill-rule="evenodd" transform="translate(.5 1.5)"/><path d="m87.45 30.1 2.45.35m-7.3-1.75q2.2.9 4.85 1.4" fill="none" stroke="#672018" stroke-linecap="round" stroke-linejoin="round" transform="translate(.5 1.5)"/><path d="M90.4 31.95q-8.1-11.4-19.95-20.15-11.4-3.6-23.5-10.3M90.4 31.95l2.75.15q16.3 17.85 8.4 31.8l-2.85 1.25q-18.1 7.7-32.65 11.7Q58.4 61.9 45 63.2q-6.45 4.6-9.6-6.3" fill="none" stroke="#672018" stroke-linecap="round" stroke-linejoin="round" stroke-width="3"/><path d="M88.35 62.45q.25 1.6-.35 3.65t-2.95 1.4q-2.35-.65-4.2-1.75T79.3 62.4q.25-2.25 1.25-3.45.95-1.25 2.9-1.1 1.95.15 3.3 1.6 1.3 1.4 1.6 3M76.6 89.15q-1.2 1.25-3.55 2-2.4.75-3.25-.9-.85-1.65-.7-3.8.15-2.15 1.55-3.15 1.4-1 3.2-1.85 1.75-.85 2.95.7 1.2 1.55 1.1 3.65-.1 2.1-1.3 3.35m8.65-15.05q-.15 2.75-2.45 5.6-2.3 2.85-4.55 1.1-2.3-1.75-5.45-2.3-3.15-.6-.8-3.6 2.35-3 4.3-4.85 1.9-1.85 4-1.85t3.6 1.6q1.45 1.55 1.35 4.3M53 81.9q1.1-3.1 2.6-4.45 1.45-1.4 3.1-1.9 1.65-.55 2.95 1.2 1.3 1.75 1.15 4.1l-.75 4.7q-.6 2.4-2.85 1.8l-4.8-1.45q-2.55-.9-1.4-4m16.45-4.65q1.25 1.05 1.25 2.5t-.9 2.5q-.9 1.05-2.2 1.05-1.3 0-2.45-1.05-1.15-1.05-1.3-2.65-.05-.6.05-1.1l-.3-2.15q-.35-3.85 1.35-6.05l2.9-3.5q1.25-1.2 5.2-2.75 3.95-1.5 3.85-.25-.1 1.35-4.3 5.35-3.65 3.5-4.95 7.1.85.25 1.8 1M68.5 90.4q.25 1.5-.55 2.65-.8 1.1-2.4 1.5-1.65.35-2.6-.7-1-1.1-.6-3.05.35-2 1.25-3.15.95-1.1 2.25-1.1t1.85 1.2q.55 1.15.8 2.65" fill="#c43419" fill-rule="evenodd" transform="translate(.5 1.5)"/><path d="M25 95.25q-2.55 1.5-6.1 1.4l7.65-5.6Q23.6 90.9 23 88.4q8.55-1.65 12.85-6Q42.9 78.45 49.9 77q12.15-12.45 27.25-20.7 5.9-.6 9.4 1.15l.2.15Q93 60.95 91.1 72.3 88.6 81.75 78 91l-17.7 15.75q-.7 2.2-1.95 3.9-.15-4.85-2.5-8.35l-1.3 4q-.6-3.05-2.3-5l-5.05-3.6q-1.25 1.95-3.3 2.35l.45-2.65q-3.35 4.4-8.7 5.85l-.4-5.45q-8.9 5.9-7.75-4.75l-1.95 1.85-.55.35M85.25 74.1q.1-2.75-1.35-4.3-1.5-1.6-3.6-1.6t-4 1.85Q74.35 71.9 72 74.9q-2.35 3 .8 3.6 3.15.55 5.45 2.3 2.25 1.75 4.55-1.1t2.45-5.6M76.6 89.15q1.2-1.25 1.3-3.35.1-2.1-1.1-3.65-1.2-1.55-2.95-.7-1.8.85-3.2 1.85-1.4 1-1.55 3.15-.15 2.15.7 3.8t3.25.9q2.35-.75 3.55-2m11.75-26.7q-.3-1.6-1.6-3-1.35-1.45-3.3-1.6-1.95-.15-2.9 1.1-1 1.2-1.25 3.45-.3 2.25 1.55 3.35t4.2 1.75q2.35.65 2.95-1.4.6-2.05.35-3.65M68.5 90.4q-.25-1.5-.8-2.65-.55-1.2-1.85-1.2t-2.25 1.1q-.9 1.15-1.25 3.15-.4 1.95.6 3.05.95 1.05 2.6.7 1.6-.4 2.4-1.5.8-1.15.55-2.65m.95-13.15q-.95-.75-1.8-1 1.3-3.6 4.95-7.1 4.2-4 4.3-5.35.1-1.25-3.85.25-3.95 1.55-5.2 2.75l-2.9 3.5q-1.7 2.2-1.35 6.05l.3 2.15q-.1.5-.05 1.1.15 1.6 1.3 2.65 1.15 1.05 2.45 1.05 1.3 0 2.2-1.05.9-1.05.9-2.5t-1.25-2.5M53 81.9q-1.15 3.1 1.4 4l4.8 1.45q2.25.6 2.85-1.8l.75-4.7q.15-2.35-1.15-4.1-1.3-1.75-2.95-1.2-1.65.5-3.1 1.9-1.5 1.35-2.6 4.45" fill="#fb4925" fill-rule="evenodd" transform="translate(.5 1.5)"/><path d="m98.95 61.5 2.3.7q2.5 17.8-13.45 32.7-6.05 5.1-23.75 28.35-10.1 9.35-16.4 5.2 7.45.75 13.6-6.95 8.15-12.45 16.25-21 23.55-21.85 21.45-39" fill="#ffad0c" fill-rule="evenodd" transform="translate(.5 1.5)"/><path d="M47.65 128.45q-1-.65-1.9-1.65-10.8 2.15-14.4-8.1l-4.05 2.65Q19.8 99.6 25 95.25l.55-.35 1.95-1.85q-1.15 10.65 7.75 4.75l.4 5.45q5.35-1.45 8.7-5.85l-.45 2.65q2.05-.4 3.3-2.35l5.05 3.6q1.7 1.95 2.3 5l1.3-4q2.35 3.5 2.5 8.35 1.25-1.7 1.95-3.9L78 91q10.6-9.25 13.1-18.7 1.9-11.35-4.35-14.7l12.2 3.9q2.1 17.15-21.45 39-8.1 8.55-16.25 21-6.15 7.7-13.6 6.95m-1.9-1.65q-1.8-1.95-3.2-5.25 1.4 3.3 3.2 5.25" fill="#a53327" fill-rule="evenodd" transform="translate(.5 1.5)"/><path d="m27.5 93.05-1.95 1.85-.55.35" fill="none" stroke="#672018" stroke-linecap="round" stroke-linejoin="round" transform="translate(.5 1.5)"/><path d="M101.75 63.7q2.5 17.8-13.45 32.7-6.05 5.1-23.75 28.35-10.1 9.35-16.4 5.2-1-.65-1.9-1.65-10.8 2.15-14.4-8.1l-4.05 2.65q-7.5-21.75-2.3-26.1-2.55 1.5-6.1 1.4l7.65-5.6q-2.95-.15-3.55-2.65 8.55-1.65 12.85-6 7.05-3.95 14.05-5.4 12.15-12.45 27.25-20.7m-34.6 65.25q1.4 3.3 3.2 5.25" fill="none" stroke="#672018" stroke-linecap="round" stroke-linejoin="round" stroke-width="3"/><path d="M10.55 157.65h-.05q13.25-29 33.2-56.7l1.45 3.45q-17.6 25.2-34.6 53.25M32 97.2q.65 1.25 1 3.6-16.2 20.05-33 44.7l.1-.4Q15.05 114.45 32 97.2m21.55 7.85q1.45 1.2 1.35 5.05-13.3 14.85-27.95 45.9l.05-.45q9.5-28.15 26.55-50.5" fill="#97928e" fill-rule="evenodd" transform="translate(.5 1.5)"/><path d="M43.7 100.95q-19.95 27.7-33.2 56.7 5.95-27.2 27.9-56.8l5.3.1M.1 145.1q5.8-22 27.35-49.2 2.8-.25 4.25.85l.3.45Q15.05 114.45.1 145.1M27 155.55q1.95-21.05 22.5-51.25l4.05.75Q36.5 127.4 27 155.55" fill="#c7bcba" fill-rule="evenodd" transform="translate(.5 1.5)"/><path d="M10.5 157.65v.1l.05-.1q17-28.05 34.6-53.25l-1.45-3.45-5.3-.1q-21.95 29.6-27.9 56.8l-.05.15.05-.05M32 97.2q.65 1.25 1 3.6-16.2 20.05-33 44.7l.1-.4q5.8-22 27.35-49.2 2.8-.25 4.25.85l.3.45m21.55 7.85q1.45 1.2 1.35 5.05-13.3 14.85-27.95 45.9l.05-.45q1.95-21.05 22.5-51.25l4.05.75" fill="none" stroke="#585352" stroke-linecap="round" stroke-linejoin="round" transform="translate(.5 1.5)"/><path d="M44.2 102.45q-19.95 27.7-33.2 56.7M32.5 98.7Q15.55 115.95.6 146.6m53.45-40.05Q37 128.9 27.5 157.05" fill="none" stroke="#585352" stroke-linecap="round" stroke-linejoin="round" stroke-width=".5"/><path d="m35.25 97.8 9.45-.95-.35.55q-3.35 4.4-8.7 5.85l-.4-5.45" fill="#fb4925" fill-rule="evenodd" transform="translate(.5 1.5)"/><path d="M52.25 101.3q1.7 1.95 2.3 5l1.3-4 .5-1.55m-.5 1.55q2.35 3.5 2.5 8.35 1.25-1.7 1.95-3.9.9-3 .8-6.9M44.35 97.4l-.45 2.65q2.05-.4 3.3-2.35m-11.95.1.4 5.45q5.35-1.45 8.7-5.85l.35-.55" fill="none" stroke="#672018" stroke-linecap="round" stroke-linejoin="round" transform="translate(.5 1.5)"/></g><g id="m"><path d="m23 81.1 12-13.6 16.45 18.85-28.8 2.2-.9-.3 1.5-1.15-2.85.4 2.6-6.4m.4 15.2 3.2-2.1q-1.25 6.75.5 11.95-6.5 2.55-12.35 2.5.05-1.75.5-3.6l8.15-8.75m26.1 32.95v-.1q2.4-.65 4.7 1.35.4.95 2.2 1.75l-1.75 2.85-.95-2.2v3.15l-4.2-6.8" fill="#fb4925" fill-rule="evenodd" transform="translate(1 1.5)"/><path d="m26.1 92.7-11.15-2.5 1.75-1.95h5.05l.9.3 2.4.85H22.6l3.5 3.3m46.25 17.65 3.2 3.65-14.7 18.95-2.6 1.45 14.1-24.05m-27.6 4.85-22.4-1.1-6-2.4 33.55-.85-5.15 4.35" fill="#ffad0c" fill-rule="evenodd" transform="translate(1 1.5)"/><path d="M16.7 88.25 23 81.1l-2.6 6.4 2.85-.4-1.5 1.15H16.7" fill="#f7f6a4" fill-rule="evenodd" transform="translate(1 1.5)"/><path d="M8.75 106.35Q8 109.2 8.4 111.9l.35 1.5-8.75-.45 1.15-.9 7.6-5.7m3 7.2-.5-1.75q-.7-3.4.25-7.4l2.35-1.65q-1.1 4.65-.5 9l.3 1.9-1.9-.1m49.1 19.4-7.05 9-4.3-12.7 4.2 6.8v-3.15l.95 2.2 1.75-2.85-.6 3 1.1-1.25.25 1 1.1-.6 2.6-1.45m-38.5-18.85-6.9-.35-.5-2-.1-.65-.05-.9-.05-1.55L18.3 110l-3.5.2 2.25.5-2.2.4 1.5.6 6 2.4m-7.1-9.05q.45-2.05 1.4-4.25l6.75-4.5-8.15 8.75" fill="#fcae10" fill-rule="evenodd" transform="translate(1 1.5)"/><path d="m8.75 113.4-.35-1.5q-.4-2.7.35-5.55l2.75-1.95q-.95 4-.25 7.4l.5 1.75-3-.15m6.7.35-1.8-.1-.3-1.9q-.6-4.35.5-9l2.8-1.95q-.95 2.2-1.4 4.25-.45 1.85-.5 3.6l.05 1.55.05.9.1.65.5 2" fill="#f4f79c" fill-rule="evenodd" transform="translate(1 1.5)"/><path d="m51.45 86.35 20.9 24-14.1 24.05-1.1.6-.25-1-1.1 1.25.6-3q-1.8-.8-2.2-1.75-2.3-2-4.7-1.35l-4.75-13.95 5.15-4.35-33.55.85-1.5-.6 2.2-.4-2.25-.5 3.5-.2-3.55-1.35q5.85.05 12.35-2.5-1.75-5.2-.5-11.95.8-.5 1.65-1.05l-2.15-.45-3.5-3.3h2.45l-2.4-.85 28.8-2.2M34 89.55l-5.75 3.6 5.75-3.6" fill="#a53327" fill-rule="evenodd" transform="translate(1 1.5)"/><path d="m9.75 107.85-7.6 5.7-1.15.9 8.75.45 3 .15 1.9.1 1.8.1 6.9.35 22.4 1.1 4.75 13.95v.1l4.3 12.7 7.05-9 14.7-18.95-3.2-3.65-20.9-24L36 69 24 82.6l-6.3 7.15-1.75 1.95 11.15 2.5 2.15.45 5.75-3.6M12.5 105.9l-2.75 1.95M27.6 95.7q.8-.5 1.65-1.05M24.4 97.8l3.2-2.1m-3.2 2.1-6.75 4.5-2.8 1.95-2.35 1.65" fill="none" stroke="#672018" stroke-linecap="round" stroke-linejoin="round" stroke-width="2"/><path d="m144.8 62-26.3 11.4h-.2l-1.8.15q-3.35-1.55-4.95-4.25 17.7-2.1 33.25-7.3m-20.6 25.2-13.05 2.3q-1.15-.55-1.8-1.4-.75-1-1-2.3 8.25.3 16.55.05l-.7 1.35m6.75 25.4-10.25 1.65v-1.1l10.25-.55m-12.5 2-2.45.4-.15-1.6 2.6-.15v1.35m-4.25.7-8.8 1.4-6.35 1q-3.75-.65-4.55-3.25l19.3-.95.4 1.8M27.9 59.45q-1.45-5.65-1.15-12.6l7.95 3.65-4.6 1.65.15.15 2.25 2.05h-.1l-1.3-.3-1.65-.3q-.5 0-1.15 3.25l-.4 2.45m11.65-16q7.85-27.85 25-42.1 2.9 14.85 5.55 26.95l-2.75-2.55.25 1q1.5 5.45 2.1 11l-5.85-9.15 1.25 6.55q1.1 6.3 1.75 12.6l-7.05-18.3.05.7q.4 5.1-.35 10.3l-2.4-12.3-3.7 5.65 1.45-9.75-15.3 19.4M66.55 0q5.2-.45 24.05 45.7-1.95 1.1-4 2.45Q76.9 18.65 66.55 0m39.9 38.95q1.3 4.4.55 11.95l-1.05 7.3q-1.8 1-2.8-.9 2.85-7.6 3.3-18.35" fill="#ffad0c" fill-rule="evenodd" transform="translate(1 1.5)"/><path d="m118.3 73.5-.95.4 7.85 5.15q.6 2.85.15 5.15l-4.25.05-8.2-.5q-4.05-.45-4.45-4.4-.4-4 3.8-4.95l4.25-.85 1.8-.15v.1m8.55 6.65 1.9 1.25.3 2.55-1.8.15q.25-1.8-.4-3.95m3.7 2.45 1.4.9-1.5.3.1-1.2m-19.4 6.9 11.35 9.35q-7.8 5.45-8.7 11.6l-4.65-.95q-9.1-2.5-9.1-8.75 0-4.15 3.7-8.55 2.95-3.55 5.6-4.1.65.85 1.8 1.4m12.8 10.55 1.55 1.3q-5.65 3.7-6.75 9.55l-2.75-.2q.95-6.5 7.95-10.65m3.85 3.15 7.2 5.95-4.1 1.2-8.15.65h-1.7q1.25-4.65 6.75-7.8m-97 2.5q-2.5-4-2.6-11.3 9 6.65 22.8-4.2 10.45 3.55 28.5-8.4 11-2.9 9.9 12.9-1.85 19.75-19.6 26.4l-4.95.4q12.2-12.3 12.9-26.85-2.65-3.15-4.6-2.4-28.9 23.7-42.35 13.45m.65-34 .75-3.05q-2.95-4-4.3-9.2l.4-2.45q.65-3.25 1.15-3.25l1.65.3 1.3.3h.1l-2.25-2.05-.15-.15 4.6-1.65 2.8 1.25q.9-4.3 2.05-8.3l15.3-19.4-1.45 9.75 3.7-5.65 2.4 12.3q.75-5.2.35-10.3l-.05-.7 7.05 18.3q-.65-6.3-1.75-12.6l-1.25-6.55 5.85 9.15q-.6-5.55-2.1-11l-.25-1 2.75 2.55q2.6 11.95 5 21.2-.3 6.85-7.75 10.2l-35.9 12m59.15-26q7.8-4.65 14.15-6.3-2.55 5.2-4 8.75-2 4.8-7.35 6.65-4.9 1.7-6.8-6.65 2.05-1.35 4-2.45m24.55 7.6 22.1 6.5q-4.75 2.8-8.1 3.9-3.45 1.15-8.65 1.15-8.15 0-8.15-6.15 0-2.95 2.8-5.4M32.1 100.8q-.25.15-.2.65 0 .45.3 1l.75.8.65.15q.3-.15.25-.65l-.35-1.05-.7-.75-.7-.15m8.65 2.05.7.65.95-.2.6-.9q.15-.55-.1-1.05t-.75-.6l-.9.15q-.45.3-.6.85-.15.6.1 1.1m-3.25-51.1-1.1 5.3 1.1-5.3" fill="#fb4925" fill-rule="evenodd" transform="translate(1 1.5)"/><path d="m131.95 83.5 2.7 1.8-4.4.8.2-2.3 1.5-.3m-3.15 2.85-2.5.45.55-1.05.4-1.65 1.8-.15-.15 1.7-.1.7m6.2 22.8 2.9 2.35-6.95 1.1-10.25.55q.05-1.15.35-2.15h1.7l8.15-.65 4.1-1.2m-19.15 4.25q-.05-1.45.15-2.7l2.75.2-.3 2.35-2.6.15" fill="#b03d28" fill-rule="evenodd" transform="translate(1 1.5)"/><path d="m32.1 100.8.7.15.7.75.35 1.05q.05.5-.25.65l-.65-.15-.75-.8q-.3-.55-.3-1-.05-.5.2-.65m8.65 2.05q-.25-.5-.1-1.1.15-.55.6-.85l.9-.15q.5.1.75.6t.1 1.05l-.6.9-.95.2-.7-.65" fill="#492330" fill-rule="evenodd" transform="translate(1 1.5)"/><path d="M53.8 107.3q-17.5 7.5-23-1.6 13.45 10.25 42.35-13.45 1.95-.75 4.6 2.4l-2.15-.55 2.15.55q-.7 14.55-12.9 26.85-1.35-.2-2.45-.7 3.95-3.8 7.05-9.35 2.3-4.2 3.8-7.8 2.2-5.5 2.35-9.55l-2.15-.6q-5.9 6.4-17.5 12.8l-2.15 1" fill="#af3c27" fill-rule="evenodd" transform="translate(1 1.5)"/><path d="M52.45 116q1.8-3.9 1.35-8.7l2.15-1q11.6-6.4 17.5-12.8l2.15.6q-.15 4.05-2.35 9.55Q64.1 105.5 55 113.6l-2.55 2.4" fill="#6a6919" fill-rule="evenodd" transform="translate(1 1.5)"/><path d="M62.4 120.8q-2.55 2.45-5.45 4.2-4.8 1.2-6.7-1.35-.55-2.1 4.75-10.05 9.1-8.1 18.25-9.95-1.5 3.6-3.8 7.8-3.1 5.55-7.05 9.35" fill="#b1b658" fill-rule="evenodd" transform="translate(1 1.5)"/><path d="m49.15 126.5-.45-.3q-1.55-1.3-.2-5 2.6-2.35 3.95-5.2l2.55-2.4q-5.3 7.95-4.75 10.05 1.9 2.55 6.7 1.35l-2.75 1.4q-3.45.85-5.05.1" fill="#fa1" fill-rule="evenodd" transform="translate(1 1.5)"/><path d="m125.2 79.05 1.65 1.1q.65 2.15.4 3.95l-.4 1.65-.55 1.05-2.1.4.7-1.35.45-1.65q.45-2.3-.15-5.15m3.55 2.35 1.8 1.2-.1 1.2-.2 2.3-1.45.25.1-.7.15-1.7-.3-2.55m-6.25 17.45 1.45 1.2q-7 4.15-7.95 10.65-.2 1.25-.15 2.7l.15 1.6-1.8.3-.4-1.8q-.2-1.55 0-3.05.9-6.15 8.7-11.6m3 2.5 2.3 1.85q-5.5 3.15-6.75 7.8-.3 1-.35 2.15v1.1l-2.25.35v-1.35l.3-2.35q1.1-5.85 6.75-9.55" fill="#f6fa99" fill-rule="evenodd" transform="translate(1 1.5)"/><path d="m137.25 59.8 7.55 2.2q-15.55 5.2-33.25 7.3 1.6 2.7 4.95 4.25l-4.25.85q-4.2.95-3.8 4.95.4 3.95 4.45 4.4l8.2.5 4.25-.05-.45 1.65q-8.3.25-16.55-.05.25 1.3 1 2.3-2.65.55-5.6 4.1-3.7 4.4-3.7 8.55 0 6.25 9.1 8.75l4.65.95q-.2 1.5 0 3.05l-19.3.95q.8 2.6 4.55 3.25l6.35-1 4 9.95L93.3 125l-.7-.25-14.9-5.05q-15.5 15.8-28.55 6.8 1.6.75 5.05-.1l2.75-1.4q2.9-1.75 5.45-4.2 1.1.5 2.45.7l4.95-.4q17.75-6.65 19.6-26.4 1.1-15.8-9.9-12.9Q61.45 93.75 51 90.2q-13.8 10.85-22.8 4.2-.15-8.95 3.25-22.7l35.9-12q7.45-3.35 7.75-10.2-2.4-9.25-5-21.2-2.65-12.1-5.55-26.95L66.1.1l.45-.1Q76.9 18.65 86.6 48.15q1.9 8.35 6.8 6.65 5.35-1.85 7.35-6.65 1.45-3.55 4-8.75l1.7-.45q-.45 10.75-3.3 18.35 1 1.9 2.8.9l1.05-7.3 8.15 2.4q-2.8 2.45-2.8 5.4 0 6.15 8.15 6.15 5.2 0 8.65-1.15 3.35-1.1 8.1-3.9M86.6 48.15l-1.45.95 1.45-.95" fill="#a53327" fill-rule="evenodd" transform="translate(1 1.5)"/><path d="m138.25 61.3 7.55 2.2-26.3 11.4-.2.1-.95.4 7.85 5.15 1.65 1.1 1.9 1.25 1.8 1.2 1.4.9 2.7 1.8-4.4.8-1.45.25-2.5.45-2.1.4-13.05 2.3 11.35 9.35 1.45 1.2 1.55 1.3 2.3 1.85 7.2 5.95 2.9 2.35-6.95 1.1-10.25 1.65-2.25.35-2.45.4-1.8.3-8.8 1.4 4 9.95-16.1-1.65-.7-.25m-2-79.05q7.8-4.65 14.15-6.3l1.7-.45q1.3 4.4.55 11.95l8.15 2.4 22.1 6.5m-64 43.85q2.2-5.5 2.35-9.55l-2.15-.6q-5.9 6.4-17.5 12.8l-2.15 1m21.8-13.2 2.15.55M63.4 122.3q-2.55 2.45-5.45 4.2l-2.75 1.4q-3.45.85-5.05.1m13.25-5.7q3.95-3.8 7.05-9.35 2.3-4.2 3.8-7.8" fill="none" stroke="#672018" stroke-linecap="round" stroke-linejoin="round" stroke-width="2"/><path d="m99.05 117.7 6.35-1M86.6 48.15q2.05-1.35 4-2.45m-5.45 3.4 1.45-.95m19.35 10.05 1.05-7.3m-70.6 6.15 1.1-5.3" fill="none" stroke="#672018" stroke-linecap="round" stroke-linejoin="round" transform="translate(1 1.5)"/><path d="M78.7 121.2Q63.2 137 50.15 128l-.45-.3q-1.55-1.3-.2-5 2.6-2.35 3.95-5.2 1.8-3.9 1.35-8.7-17.5 7.5-23-1.6-2.5-4-2.6-11.3-.15-8.95 3.25-22.7l.75-3.05q-2.95-4-4.3-9.2-1.45-5.65-1.15-12.6L35.7 52l2.8 1.25q.9-4.3 2.05-8.3 7.85-27.85 25-42.1L67.1 1.6l.45-.1q5.2-.45 24.05 45.7" fill="none" stroke="#672018" stroke-linecap="round" stroke-linejoin="round" stroke-width="3"/></g><g id="p"><path d="m16.75 16.85-.55.65q-2 2.25-4.8 2.25T6.6 17.5q-2-2.25-2-5.4 0-3.15 2-5.4 2-2.25 4.8-2.25t4.8 2.25q1.9 2.15 2 5.15-1.1.05-1.85.8-.8.8-.8 1.95t.8 1.95l.4.3" fill="#0e4959" fill-rule="evenodd" transform="translate(.5 .45)"/><path d="M10.4.45 11.5.4q4.3 0 7.35 3.2t3.05 7.7q0 4.5-3.05 7.7t-7.35 3.2q-4.3 0-7.35-3.2T1.1 11.3q0-1.95.6-3.65.9-1.75 2.3-3.3 2.8-3 6.4-3.9m7.8 11.4q-.1-3-2-5.15-2-2.25-4.8-2.25T6.6 6.7q-2 2.25-2 5.4 0 3.15 2 5.4 2 2.25 4.8 2.25t4.8-2.25l.55-.65q.65.5 1.55.5 1.15 0 1.95-.8t.8-1.95q0-1.15-.8-1.95t-1.95-.8h-.1" fill="#55b0cf" fill-rule="evenodd" transform="translate(.5 .45)"/><path d="M1.7 7.65q-.6 1.7-.6 3.65 0 4.5 3.05 7.7t7.35 3.2q4.3 0 7.35-3.2t3.05-7.7q0-4.5-3.05-7.7T11.5.4l-1.1.05 3.3-.4q5.65 0 9.65 4.3 3.05 3.25 3.8 7.55l-1.1-.2q-1.3 0-2.25.9-.9.95-.9 2.25t.9 2.2q.95.95 2.25.95l1.1-.2q-.75 4.25-3.8 7.5-4 4.35-9.65 4.35T4 25.3Q0 21 0 14.85q0-3.95 1.7-7.2" fill="#77dbfd" fill-rule="evenodd" transform="translate(.5 .45)"/><path d="M18.2 11.85h.1q1.15 0 1.95.8t.8 1.95q0 1.15-.8 1.95t-1.95.8q-.9 0-1.55-.5l-.4-.3q-.8-.8-.8-1.95t.8-1.95q.75-.75 1.85-.8m1.6.85q-.5-.5-1.2-.5l-.4.05q-.45.1-.8.45-.5.5-.5 1.2t.5 1.2l.2.2 1 .3q.7 0 1.2-.5t.5-1.2q0-.7-.5-1.2" fill="#b9e1e9" fill-rule="evenodd" transform="translate(.5 .45)"/><path d="m27.15 17.8-1.1.2q-1.3 0-2.25-.95-.9-.9-.9-2.2 0-1.3.9-2.25.95-.9 2.25-.9l1.1.2.25 2.95-.25 2.95m-7.35-5.1q.5.5.5 1.2t-.5 1.2q-.5.5-1.2.5l-1-.3-.2-.2q-.5-.5-.5-1.2t.5-1.2q.35-.35.8-.45l.4-.05q.7 0 1.2.5" fill="#fefefe" fill-rule="evenodd" transform="translate(.5 .45)"/><path d="M1.7 7.65Q0 10.9 0 14.85 0 21 4 25.3q4.05 4.35 9.7 4.35 5.65 0 9.65-4.35 3.05-3.25 3.8-7.5l.25-2.95-.25-2.95q-.75-4.3-3.8-7.55-4-4.3-9.65-4.3l-3.3.4q-3.6.9-6.4 3.9-1.4 1.55-2.3 3.3z" fill="none" stroke="#0e4959" stroke-linecap="round" stroke-linejoin="round" transform="translate(.5 .45)"/></g><g id="q"><path d="m36.1 1.75-.65 8.15Q30.75 6 26 6.35l-2.25-1.1q-3.6-1.15-6.7 1.1l-.8.7q6.7-10.6 19.85-5.3" fill="#af422b" fill-rule="evenodd" transform="translate(-4.95)"/><path d="M30.5 16.7q2.15.85 3.9 3.55-.05 2.1-1.35 1-2.35-2.15-5.4-2.85l2.85-1.7m-5.9 3.35q4 2.3 7.25 6.55.35 1.75-1.1 2.1-6.3-5.6-14.4-4.75l8.25-3.9" fill="#fbfd9c" fill-rule="evenodd" transform="translate(-4.95)"/><path d="M35.45 9.9q-1.1 7.35-3.8 6.05l.85-.6q-1.8-6.25-6.5-9Q30.75 6 35.45 9.9" fill="#fb4726" fill-rule="evenodd" transform="translate(-4.95)"/><path d="m36.1 1.75-.65 8.15q-1.1 7.35-3.8 6.05l-1.15.75-2.85 1.7-3.05 1.65-8.25 3.9-7.1 2.85q-2.9.3-3.45-1.1l-.35 2.25m10.8-20.9.8-.7q3.1-2.25 6.7-1.1L26 6.35q4.7 2.75 6.5 9l-.85.6m-15.4-8.9Q7.85 14.8 5.8 25.7" fill="none" stroke="#672018" stroke-linecap="round" stroke-linejoin="round" transform="translate(-4.95)"/></g><g id="r"><path d="M75.5 63.25q2.9-1.3 5.9-.25 6.15 1.9 7.15 8.25-2 5.35-3.3 1.2-1.45-4.6-2.5-5.5-3.65-3.2-7.25-3.7" fill="#996f35" fill-rule="evenodd" transform="translate(-23.3 -51.75)"/><path d="m75.7 55.95.95-.25q2.15-.6 1.9-1.75l-.1-.45 5.25 1.3q7.55 5.15 5.25 15.15l-.4 1.3q-1-6.35-7.15-8.25-3-1.05-5.9.25-8.25-1.2-16.2 11.45-11.15 21.4-27 17.3-9.75-4.6-7.6-27.95 1.9-2.15 3.5-3.55l-.15.95v.5l.15 2.4-.2 1.2-.2 1.2q0 1.25 1.2 2.75-.65 4.8-.55 8.35.1 4.2 1.15 6.55h-.1.15q.6 1.35 1.55 2.1.75.55 1.7.75h-1.5q4.85 3 9.95 1.05 2.4-.85 4.4-2.6 3.85-3.5 6.8-7.9 2.45-3.65 4.3-7.6l.45-.95 1-1.95 2.45-4.25q2.05-3.2 4.05-4.4 2-1.2 5.75-1.8l5.15-.9" fill="#51330f" fill-rule="evenodd" transform="translate(-23.3 -51.75)"/><path d="m78.45 53.5.1.45q.25 1.15-1.9 1.75l-.95.25-1.65-.05-2.9-.15q-6.45 0-8.6 2.05-2.2 2.05-4.25 9.5l-1 1.95-.45.95q-1.85 3.95-4.3 7.6-2.95 4.4-6.8 7.9-2 1.75-4.4 2.6-5.1 1.95-9.95-1.05h1.5q2 .4 4.9-.85 7.35-3.9 10.5-9.7.15-.35.05 0 2.8-3.15 3.8-5.15l1.55-4 1.7-6.85q0-1.2-.7-1.95-.75-.8-1.95-.8-1.35 0-3.05 1.85l-2.85 3.7q2-3.35 3.25-7.05 3.1-3.2 18.5-3.7l9.85.75m-42.8 15.6-.2.15-1.6.3q-1.5 0-2-1.05l-.55-2.55q-.25-1.05-1.2-2.45-1.05-1.5-2.05-2.05l.15-.95q4.55-4.15 6-2.2-2 5.2-.7 8.3.7 1.8 2.15 2.5" fill="#976c39" fill-rule="evenodd" transform="translate(-23.3 -51.75)"/><path d="m46.85 63.5 2.85-3.7q1.7-1.85 3.05-1.85 1.2 0 1.95.8.7.75.7 1.95l-1.7 6.85-1.55 4q-1 2-3.8 5.15 1.55-3.4 2-6.45.2-3.45-2-1.3-3.65 3.25-6.6 4.7-2.4 1.15-4.35 1.2-5.5.15-8.05-8.05L29 69.5q-1.2-1.5-1.2-2.75l.2-1.2.2-1.2-.15-2.4v-.5q1 .55 2.05 2.05.95 1.4 1.2 2.45l.55 2.55q.5 1.05 2 1.05l1.6-.3.2-.15q1.05.55 2.5.5 3.4-.1 6.4-3.15l2.4-3.05-.1.1" fill="#6a4822" fill-rule="evenodd" transform="translate(-23.3 -51.75)"/><path d="M28.45 77.85v-.05q0-.6.4-1.05.45-.4 1.05-.4.6 0 1 .4.45.45.45 1.05l-.3.9-.15.1q-.4.45-1 .45t-1.05-.45q-.4-.4-.4-.95m17.6-.8q-.45.65-1.1.65-.65 0-1.15-.65-.45-.65-.45-1.6 0-.95.45-1.6.5-.65 1.15-.65.65 0 1.1.65.5.65.5 1.6 0 .95-.5 1.6" fill="#fff" fill-rule="evenodd" transform="translate(-23.3 -51.75)"/><path d="M48.35 76.7q.1-.35-.05 0-3.15 5.8-10.5 9.7-2.9 1.25-4.9.85-.95-.2-1.7-.75 1.5.15 2.95-.7 2.55-1.45 4.4-3.5 1.95-2.25 2.75-5 .5-1.8.45-3.65 2.95-1.45 6.6-4.7 2.2-2.15 2 1.3-.45 3.05-2 6.45M29 69.5l.35-2.7q2.55 8.2 8.05 8.05-.1 1.85-.85 3.35l-.2-.2q-.7-.7-1.7-.75h-.15q-1.1 0-1.9.75-.65.7-.75 1.65v.25q0 1 .65 1.75l.1.1.05.05q-.1 1.15-.9 1.85-.8.7-2.1.75h-.05q-1.05-2.35-1.15-6.55 0 .55.4.95.45.45 1.05.45.6 0 1-.45l.15-.1.3-.9q0-.6-.45-1.05-.4-.4-1-.4t-1.05.4q-.4.45-.4 1.05v.05q-.1-3.55.55-8.35m17.05 7.55q.5-.65.5-1.6 0-.95-.5-1.6-.45-.65-1.1-.65-.65 0-1.15.65-.45.65-.45 1.6 0 .95.45 1.6.5.65 1.15.65.65 0 1.1-.65" fill="#f9fdb3" fill-rule="evenodd" transform="translate(-23.3 -51.75)"/><path d="M37.4 74.85q1.95-.05 4.35-1.2.05 1.85-.45 3.65-.8 2.75-2.75 5-1.85 2.05-4.4 3.5-1.45.85-2.95.7-.95-.75-1.55-2.1 1.3-.05 2.1-.75t.9-1.85q.8.75 1.85.75 1.1 0 1.85-.8.8-.75.8-1.85 0-.95-.6-1.7.75-1.5.85-3.35" fill="#b5b458" fill-rule="evenodd" transform="translate(-23.3 -51.75)"/><path d="M32.5 81.65q-.65-.75-.65-1.75v-.25l.5.5.9.15q.75 0 1.3-.65.5-.6.5-1.4 0-.6-.4-1 1 .05 1.7.75l.2.2q.6.75.6 1.7 0 1.1-.8 1.85-.75.8-1.85.8-1.05 0-1.85-.75l-.15-.15" fill="#326c80" fill-rule="evenodd" transform="translate(-23.3 -51.75)"/><path d="M31.85 79.65q.1-.95.75-1.65.8-.75 1.9-.75h.15q.4.4.4 1 0 .8-.5 1.4-.55.65-1.3.65l-.9-.15-.5-.5" fill="#71d5f5" fill-rule="evenodd" transform="translate(-23.3 -51.75)"/><path d="M58.3 67.3q2.05-7.45 4.25-9.5 2.15-2.05 8.6-2.05l2.9.15 1.65.05-5.15.9q-3.75.6-5.75 1.8-2 1.2-4.05 4.4L58.3 67.3" fill="#fcfefe" fill-rule="evenodd" transform="translate(-23.3 -51.75)"/><path d="M9.35 30.05 9.3 30l-.1-.1" fill="none" stroke="#6d221b" stroke-linecap="round" stroke-linejoin="round" stroke-width=".05"/><path d="M32.5 81.65q-.65-.75-.65-1.75v-.25q.1-.95.75-1.65.8-.75 1.9-.75h.15q1 .05 1.7.75l.2.2q.6.75.6 1.7 0 1.1-.8 1.85-.75.8-1.85.8-1.05 0-1.85-.75" fill="none" stroke="#1b3c43" stroke-linecap="round" stroke-linejoin="round" transform="translate(-23.3 -51.75)"/><path d="M55.15 1.75 45.3 1q-15.4.5-18.5 3.7-1.25 3.7-3.25 7.05m41.7 7.75.4-1.3q2.3-10-5.25-15.15l-5.25-1.3M52.2 11.5q3.6.5 7.25 3.7 1.05.9 2.5 5.5 1.3 4.15 3.3-1.2M4.9 8.75q-1.6 1.4-3.5 3.55Q-.75 35.65 9 40.25q15.85 4.1 27-17.3Q43.95 10.3 52.2 11.5m-39.85 5.85q-1.45-.7-2.15-2.5-1.3-3.1.7-8.3-1.45-1.95-6 2.2m7.45 8.6q1.05.55 2.5.5 3.4-.1 6.4-3.15l2.4-3.05" fill="none" stroke="#47290e" stroke-linecap="round" stroke-linejoin="round" stroke-width="2"/><path d="M48.3 76.7q-3.15 5.8-10.5 9.7-2.9 1.25-4.9.85-.95-.2-1.7-.75-.95-.75-1.55-2.1h-.05q-1.05-2.35-1.15-6.55-.1-3.55.55-8.35l.35-2.7q2.55 8.2 8.05 8.05 1.95-.05 4.35-1.2 2.95-1.45 6.6-4.7 2.2-2.15 2 1.3-.45 3.05-2 6.45" fill="none" stroke="#64642d" stroke-linecap="round" stroke-linejoin="round" transform="translate(-23.3 -51.75)"/></g><path d="M110.8 0q45.85 0 78.3 5.85 32.5 5.95 32.5 14.25 0 8.35-32.5 14.2-32.45 5.9-78.3 5.9-45.85 0-78.3-5.9Q0 28.45 0 20.1q0-8.3 32.5-14.25Q64.95 0 110.8 0" fill-opacity=".349" fill-rule="evenodd" id="c"/><path d="M26 6.35q4.7 2.75 6.5 9l-.85.6-1.15.75-2.85 1.7-3.05 1.65-8.25 3.9-7.1 2.85q-2.9.3-3.45-1.1Q7.85 14.8 16.25 7.05l.8-.7q3.1-2.25 6.7-1.1L26 6.35" fill="#fdfdfd" fill-rule="evenodd" transform="translate(-5.8 -4.85)" id="n"/><path d="M38.7 0v56.15H0V0h38.7" fill="#fff" fill-opacity="0" fill-rule="evenodd" id="b"/></defs></svg>