<svg xmlns:ffdec="https://www.free-decompiler.com/flash" xmlns:xlink="http://www.w3.org/1999/xlink" ffdec:objectType="frame" height="90" width="90" xmlns="http://www.w3.org/2000/svg"><use ffdec:characterId="52" height="83.7" transform="translate(.207 1.895) scale(1.0475)" width="84.45" xlink:href="#a"/><defs><g id="a" transform="translate(-2.25 -5.15)"><use ffdec:characterId="1" height="35.35" transform="translate(13.885 73.756) scale(.4048)" width="107.3" xlink:href="#b"/><use ffdec:characterId="3" height="49.45" transform="translate(10.398 62.848) scale(.4048)" width="49.7" xlink:href="#c"/><use ffdec:characterId="5" height="68.8" transform="translate(20.598 49.348) scale(.4048)" width="34.1" xlink:href="#d"/><use ffdec:characterId="7" height="18.85" transform="translate(28.098 74.498) scale(.4048)" width="15.15" xlink:href="#e"/><use ffdec:characterId="9" height="21.25" transform="translate(35.248 74.048) scale(.4048)" width="20.1" xlink:href="#f"/><use ffdec:characterId="11" height="93.7" transform="translate(41.823 29.898) scale(.4048)" width="102.25" xlink:href="#g"/><use ffdec:characterId="13" height="52.85" transform="translate(35.948 61.498) scale(.4048)" width="69.95" xlink:href="#h"/><use ffdec:characterId="15" height="16.85" transform="translate(34.698 68.048) scale(.4048)" width="17.6" xlink:href="#i"/><use ffdec:characterId="17" height="60.05" transform="translate(36.848 49.848) scale(.4048)" width="34.55" xlink:href="#j"/><use ffdec:characterId="22" height="62.35" transform="translate(6.698 46.449) scale(.4048)" width="55.8" xlink:href="#k"/><use ffdec:characterId="24" height="19.6" transform="translate(21.398 56.998) scale(.4048)" width="19" xlink:href="#l"/><use ffdec:characterId="26" height="16.1" transform="translate(27.598 69.448) scale(.4048)" width="15.8" xlink:href="#m"/><use ffdec:characterId="28" height="73.95" transform="translate(24.198 45.198) scale(.4048)" width="48.4" xlink:href="#n"/><use ffdec:characterId="30" height="35.05" transform="translate(26.548 10.048) scale(.4048)" width="41.95" xlink:href="#o"/><use ffdec:characterId="32" height="51.45" transform="translate(15.087 6.137) scale(.4048)" width="35.6" xlink:href="#p"/><use ffdec:characterId="34" height="57.15" transform="translate(38.637 5.337) scale(.4048)" width="51.5" xlink:href="#q"/><use ffdec:characterId="36" height="48.3" transform="translate(15.598 32.513) scale(.4048)" width="40.95" xlink:href="#r"/><use ffdec:characterId="38" height="77.8" transform="translate(20.098 17.848) scale(.4048)" width="69" xlink:href="#s"/><use ffdec:characterId="39" height="30.05" transform="translate(19.318 34.216) scale(.4048)" width="64.3" xlink:href="#t"/><use ffdec:characterId="41" height="76.45" transform="translate(8.248 15.7) scale(.4048)" width="56.65" xlink:href="#u"/><use ffdec:characterId="43" height="89.3" transform="translate(29.943 15.6) scale(.4048)" width="80.75" xlink:href="#v"/><use ffdec:characterId="45" height="51.9" transform="translate(43.648 55.498) scale(.4048)" width="34.55" xlink:href="#w"/><use ffdec:characterId="47" height="27.05" transform="translate(49.963 57.598) scale(.4048)" width="26.65" xlink:href="#x"/></g><g id="D"><path d="m26.1 9.9 1.3-.4q1.2-4.7 6.45-6.65Q38.4 1 42.65 0q4.9 4.6 5.75 7 1 3.05-1.3 9.15-2.3 6.15-12 4.45l-.1.1q-6.6-5.25-7.6-11.2 1 5.95 7.6 11.2l.15.1q.3 2.05-1.65 4.55-1.75 2.3-4.35 2.85-5.8-4.55-3.25-18.3h.2m.3 18.75q.25 1.7-.5 3.45l-.45.8q-2.1-2-2.4-4.6l-1.4-.4q0 4.1 2.05 6.5l-.2.1-1.45.45q1.85 4.15 1 8.6-.95 4.35-8.4 4.9-.5-.55-.6-1.2l-.55-1.75-5.7.2q8.05-5.1 4.4-14.15l1.6 1.3 2.2 1q-.35-1.95-.25-3.8.75-.85 1-2.85l.45-2.35.5.2 1 .2q1.3 0 2.7-1.3l1.45-1.75q1.05 3.25 3.45 6.35l.1.1M6.2 45.05q-1.95-1.1-2.5-3.5 1.3-3.8 3.8-7.25-1.95 5.95-1.3 10.75M23.5 34.5q-4.35.35-7.5-.65 3.15 1 7.5.65m-.45-6.2 3.25.25-3.25-.25m-5.35-3.25q1.35 2.05 3.95 2.85-2.6-.8-3.95-2.85" fill="#a42f51" fill-rule="evenodd" transform="translate(.5 .5)"/><path d="m29.15 28.2-.75.1h-2.1l.1.25h-.1q-2.4-3.1-3.45-6.35 1.75-2.6.3-9.45.25-1.1.8-2.15l1.95-.7q-2.55 13.75 3.25 18.3m-3.7 4.7-1.1 1.15-.65.35q-2.05-2.4-2.05-6.5l1.4.4q.3 2.6 2.4 4.6m-9.7-2.85q-.1 1.85.25 3.8l-2.2-1-.35-1.3 1.75-1.05.55-.45" fill="#e0914c" fill-rule="evenodd" transform="translate(.5 .5)"/><path d="M22.85 22.2q-1.35-4.65.3-9.45 1.45 6.85-.3 9.45m-6.55-1.1.45 2.1-.35 1.5q-.75 2.6-.65 5.35l-.55.45-.1-.1-1.65 1.05Q12.2 25.6 16.3 21.1" fill="#ffd57e" fill-rule="evenodd" transform="translate(.5 .5)"/><path d="m7.8 45.7-.5-.2-1.1-.45q-.65-4.8 1.3-10.75l1-1.45-.9.65q-3.35 2.3-5.3 7h-.15Q.3 39.85.1 37.8q-.3-2.4.45-4.7 2.5-6.95 8.45-7.2h1q.1-5 5.85-6.05h.35l.1 1.25q.35-.5.25-1.5.4-.35.6-1.1 1.1-5.45 6.8-7.9-.55 1.05-.8 2.15-1.65 4.8-.3 9.45l-1.45 1.75q-1.4 1.3-2.7 1.3l-1-.2-.4-.65-.55-1.2-.45-2.1q-4.1 4.5-2.85 10.35l-.6.35.6-.25.35 1.3-1.6-1.3-1.55-1.85Q9.55 28 9 25.9q.55 2.1 1.65 3.8l1.55 1.85q3.65 9.05-4.4 14.15m9.4-20.85-.45 2.35q-.25 2-1 2.85-.1-2.75.65-5.35l.8.15" fill="#ff5464" fill-rule="evenodd" transform="translate(.5 .5)"/><path d="m3.7 41.55-.2-1.05H2.3q1.95-4.7 5.3-7l.9-.65-1 1.45Q5 37.75 3.7 41.55" fill="#521329" fill-rule="evenodd" transform="translate(.5 .5)"/><path d="m26.1 9.9 1.3-.4q1.2-4.7 6.45-6.65Q38.4 1 42.65 0q4.9 4.6 5.75 7 1 3.05-1.3 9.15-2.3 6.15-12 4.45l.05.2q.3 2.05-1.65 4.55-1.75 2.3-4.35 2.85l-.75.1h-2.1l.1.25v.1q.25 1.7-.5 3.45l-.45.8-1.1 1.15m-.85.45-1.45.45q1.85 4.15 1 8.6-.95 4.35-8.4 4.9-.5-.55-.6-1.2l-.55-1.75-5.7.2-.5-.2-1.1-.45q-1.95-1.1-2.5-3.5l-.2-1.05H2.15Q.3 39.85.1 37.8q-.3-2.4.45-4.7 2.5-6.95 8.45-7.2h1q.1-5 5.85-6.05h.35l.35-.25q.4-.35.6-1.1 1.1-5.45 6.8-7.9l1.95-.7" fill="none" stroke="#54132a" stroke-linecap="round" stroke-linejoin="round" transform="translate(.5 .5)"/><path d="M26.4 10.4h.2m-3.25 12.3q-1.35-4.65.3-9.45.25-1.1.8-2.15M16.8 21.6q.35-.5.25-1.5m-.8 10.45q-.1 1.85.25 3.8m.75-10.65-.35 1.5q-.75 2.6-.65 5.35m-2.3 1.5.35 1.3m-.35-1.4v.1m0-.1Q12.7 26.1 16.8 21.6m10.1 7.55-.1-.1q-2.4-3.1-3.45-6.35m.2 6.1q.3 2.6 2.4 4.6m-1.75 1.5q-2.05-2.4-2.05-6.5m7.5.3q-5.8-4.55-3.25-18.3" fill="none" stroke="#7c4215" stroke-linecap="round" stroke-linejoin="round" stroke-width=".5"/><path d="m28.9 28.8-2 .25h-.1l-3.25-.25-1.4-.4q-2.6-.8-3.95-2.85l-.4-.65-.55-1.2-.45-2.1-.1-1.25m8.15 14.2-.65.35-.2.1q-4.35.35-7.5-.65l-2.2-1-1.6-1.3-1.55-1.85q-1.1-1.7-1.65-3.8m26-5.2.15.1M27.9 10q1 5.95 7.6 11.2" fill="none" stroke="#54132a" stroke-linecap="round" stroke-linejoin="round" stroke-width=".75"/></g><g id="E"><path d="M11.65 19.55q1.55.35 3.05 1.4Q21 25.3 22.55 42.2l-.1 6.3-.55 6.1-.2 1.5-.15.75v.25l-.1.2-1.3 5.1q-1.85 4.9-4.8 5.35-.3-2.95-.95-5.35l-.8-2.5q1.85-4.9 2.1-11.4v-2.1q0-8.15-2.3-14-2.25-5.75-6.3-6.75l-.85-.2.85.2q4.05 1 6.3 6.75 2.3 5.85 2.3 14v2.1q-.25 6.5-2.1 11.4l-.2.35-.95 2.15q-1.35 2.65-2.65 3.2l-3.05-2-.55-1.2q-.95-2.15-1.8-5.65L2.45 48.5.7 40.55q-1.55-7.8.4-11.85.8-2.05 2.3-2.75 1.2-.75 2.85-.5 3.05-1.35 5.3-5.7l.1-.2" fill="#71a0cf" fill-rule="evenodd" transform="translate(.5 .5)"/><path d="m13.6 59.9.8 2.5q.65 2.4.95 5.35-2.4.3-5.55-2.15 1.3-.55 2.65-3.2l.95-2.15.2-.35" fill="#cff8f5" fill-rule="evenodd" transform="translate(.5 .5)"/><path d="M14.7 20.95q2.2-2.05 2.85-7.9.55-4.35 2.95-6.2-1.45-.9-3.5-1.3 2.4-3.2 6.65-5.55l9.45 19.1q-.65 16.9-4.45 26.05-3.8 9.1-6.65 10.1l-.55 2.25v-.2l.1-.2v-.25l.15-.75.2-1.5.55-6.1.1-6.3Q21 25.3 14.7 20.95" fill="#8c479d" fill-rule="evenodd" transform="translate(.5 .5)"/><path d="M17 5.55q2.05.4 3.5 1.3-2.4 1.85-2.95 6.2-.65 5.85-2.85 7.9-1.5-1.05-3.05-1.4 1.75-3.6 2.85-9.35.85-2.5 2.5-4.65" fill="#fa82d6" fill-rule="evenodd" transform="translate(.5 .5)"/><path d="M17 5.55q-1.65 2.15-2.5 4.65-1.1 5.75-2.85 9.35M22 55.25q2.85-1 6.65-10.1Q32.45 36 33.1 19.1M23.65 0Q19.4 2.35 17 5.55M3.4 25.95q1.2-.75 2.85-.5 3.05-1.35 5.3-5.7" fill="none" stroke="#4b1455" stroke-linecap="round" stroke-linejoin="round" transform="translate(.5 .5)"/><path d="M11.65 19.55q1.55.35 3.05 1.4Q21 25.3 22.55 42.2l-.1 6.3-.55 6.1-.2 1.5-.15.75v.25l-.1.2v.2l.55-2.25M6.25 25.45l.85.2q4.05 1 6.3 6.75 2.3 5.85 2.3 14v2.1q-.25 6.5-2.1 11.4l-.2.35-.95 2.15q-1.35 2.65-2.65 3.2 3.15 2.45 5.55 2.15 2.95-.45 4.8-5.35l1.3-5.1m-9.9-37.55.1-.2M6.75 63.6l-.55-1.2q-.95-2.15-1.8-5.65L2.45 48.5.7 40.55q-1.55-7.8.4-11.85.8-2.05 2.3-2.75M9.8 65.6h-.95q-1.1-.15-2.1-2" fill="none" stroke="#3f507a" stroke-linecap="round" stroke-linejoin="round" transform="translate(.5 .5)"/></g><g id="F"><path d="m1.95 8.25.55.55.7 1.4q.4.9-.05 1.85-.6.9-1.5.9h-.1q-.85-.8-.85-2.2 0-1.4.85-2.25l.3-.25h.1" fill="#e39850" fill-rule="evenodd" transform="translate(.5 .5)"/><path d="M1.65 12.95q.9 0 1.5-.9.45-.95.05-1.85l-.7-1.4-.55-.55q.7-.45 1.65-.55h.35q1.5 0 2.3.8 1.05.85 1.05 2.25t-1.05 2.2q-.8.95-2.2.95H3.3q-1-.3-1.65-.85v-.1" fill="#c35e28" fill-rule="evenodd" transform="translate(.5 .5)"/><path d="M2.15 13.55q.65.55 1.65.85h.75q1.4 0 2.2-.95 1.05-.8 1.05-2.2 0-1.4-1.05-2.25-.8-.8-2.3-.8H4.1q-.95.1-1.65.55h-.1l-.3.25q-.85.85-.85 2.25t.85 2.2l.1.1z" fill="none" stroke="#7f4b22" stroke-linecap="round" stroke-linejoin="round" stroke-width=".75"/><path d="m6.75.55 4.9-.55 1.65 4 .45 1.95Q11.85 7.8 10 8.7q-.5-3.9-1.6-5.9Q7.65 1.5 6.75.55m7.4 9.45v1.95q-.3 3.7-3.9 4.9l-2.7.75Q9.6 15.1 10 12.3q2.45-.65 4.15-2.3" fill="#f3bba6" fill-rule="evenodd" transform="translate(.5 .5)"/><path d="M0 1.3 6.75.55q.9.95 1.65 2.25 1.1 2 1.6 5.9-2.7 1.4-5.4 1.1-.65-1.85-2.05-3.95Q.9 3.45 0 1.3m7.55 16.3-1.85.25q.1-1 .5-1.65l1.2-1.75v-.1h-.1q-2.6.9-2.8 3.4-1.75-.45 0-3.05l.55-1.9 4.95-.5q-.4 2.8-2.45 5.3" fill="#fff3e5" fill-rule="evenodd" transform="translate(.5 .5)"/><path d="m13.75 5.95.4 4.05q-1.7 1.65-4.15 2.3l.05-1.75L10 8.7q1.85-.9 3.75-2.75" fill="#a42f51" fill-rule="evenodd" transform="translate(.5 .5)"/><path d="M5.05 12.8q.1-1.4-.45-3 2.7.3 5.4-1.1l.05 1.85L10 12.3l-4.95.5" fill="#ff5766" fill-rule="evenodd" transform="translate(.5 .5)"/><path d="m5.7 17.85-1.1-.1h-.1q.2-2.5 2.8-3.4l.1.1-1.2 1.75q-.4.65-.5 1.65" fill="#a85c55" fill-rule="evenodd" transform="translate(.5 .5)"/><path d="m11.65 0 1.65 4 .45 1.95M4.6 9.8q-.65-1.85-2.05-3.95Q.9 3.45 0 1.3" fill="none" stroke="#b7786f" stroke-linecap="round" stroke-linejoin="round" transform="translate(.5 .5)"/><path d="M10.5 9.2q1.85-.9 3.75-2.75M10.5 12.8q2.45-.65 4.15-2.3m-9.55-.2q2.7.3 5.4-1.1m-4.95 4.1 4.95-.5" fill="none" stroke="#521329" stroke-linecap="round" stroke-linejoin="round" stroke-width=".75"/><path d="m13.75 5.95.4 4.05m-9.1 2.8q.1-1.4-.45-3" fill="none" stroke="#521329" stroke-linecap="round" stroke-linejoin="round" transform="translate(.5 .5)"/><path d="M14.15 10v1.95q-.3 3.7-3.9 4.9l-2.7.75-1.85.25-1.1-.1h-.1q-1.75-.45 0-3.05l.55-1.9" fill="none" stroke="#b8776f" stroke-linecap="round" stroke-linejoin="round" transform="translate(.5 .5)"/></g><g id="G"><path d="M6.2.55 13.4 0q1.15 2.1 1.5 5.1l.2 1.85-.2 3.05-4.15.55Q10.8 7.7 9.7 5.1q-.55-1.3-1.45-2.5L6.2.55m7.85 12.85-.8 1.95q-2.05 4.1-4.75 4.55l-3.25.35Q8.6 17.3 9.8 14.8l.4-.85 3.85-.55" fill="#f3bba6" fill-rule="evenodd" transform="translate(.5 .5)"/><path d="M0 1 6.2.55 8.25 2.6q.9 1.2 1.45 2.5 1.1 2.6 1.05 5.45H9.7l-6-.2-.3-1.65-1.25-3.6L.9 2.6 0 1m5.25 19.25h-2.1q-.3-.75-.3-1.2 0-1.45 1.2-2.85-2.1 1.3-2.55 3.25v.25q-2.5-1.3.05-4.05 1.05-.95 1.6-2.15l6.55.45.1.85q-1.2 2.5-4.55 5.45" fill="#fff3e5" fill-rule="evenodd" transform="translate(.5 .5)"/><path d="m14.9 10-.85 3.4-3.85.55h-.5v-3.4h1.05L14.9 10" fill="#a72e56" fill-rule="evenodd" transform="translate(.5 .5)"/><path d="M3.15 13.5q.65-1.5.55-3.15l6 .2v3.4l-6.55-.45" fill="#ff5464" fill-rule="evenodd" transform="translate(.5 .5)"/><path d="m3.15 20.25-1.3-.45-.35-.1v-.25q.45-1.95 2.55-3.25-1.2 1.4-1.2 2.85 0 .45.3 1.2" fill="#b5716a" fill-rule="evenodd" transform="translate(.5 .5)"/><path d="M13.4 0q1.15 2.1 1.5 5.1l.2 1.85-.2 3.05m-.85 3.4-.8 1.95q-2.05 4.1-4.75 4.55l-3.25.35h-2.1l-1.3-.45m-.35-.1q-2.5-1.3.05-4.05 1.05-.95 1.6-2.15m.55-3.15L3.4 8.7 2.15 5.1.9 2.6 0 1" fill="none" stroke="#b8776f" stroke-linecap="round" stroke-linejoin="round" transform="translate(.5 .5)"/><path d="M10.2 11.05h1.05l4.15-.55m-11.2.35 6 .2m0 3.4h.5l3.85-.55m-10.9.1 6.55.45" fill="none" stroke="#470f25" stroke-linecap="round" stroke-linejoin="round" stroke-width=".75"/><path d="m14.9 10-.85 3.4m-10.9.1q.65-1.5.55-3.15" fill="none" stroke="#470f25" stroke-linecap="round" stroke-linejoin="round" transform="translate(.5 .5)"/><path d="M12.4 10.45q.45-.35 1-.35t.95.35q.45.35.45.95 0 .55-.45.9l-.95.35q-.55 0-1-.35-.35-.35-.35-.9 0-.6.35-.95" fill="#ffea88" fill-rule="evenodd" transform="translate(.5 .5)"/><path d="m14.05 14.7-1.2-.8-.65-.85v-.1q.75.75 1.75.75 1.05 0 1.8-.75.7-.55.7-1.5 0-.9-.7-1.65-.75-.55-1.8-.55-1 0-1.75.55l-.25.45q0-.35.15-.65.75-.45 1.8-.8 1.75-.55 2.65.35 1.05.95 1.05 2.3 0 1.3-1.05 2.25-.9 1-2.3 1h-.2" fill="#d15d29" fill-rule="evenodd" transform="translate(.5 .5)"/><path d="m12.1 9.6.75-1.1q1.1-1.1 2.6-1.1 1.55 0 2.6 1.1 1.2 1.1 1.2 2.7 0 1.55-1.2 2.7Q17 15 15.45 15l-1.2-.2v-.1q1.4 0 2.3-1 1.05-.95 1.05-2.25 0-1.35-1.05-2.3-.9-.9-2.65-.35-1.05.35-1.8.8m0 3.35q-.35-.85-.35-1.75l.2-.95.25-.45q.75-.55 1.75-.55 1.05 0 1.8.55.7.75.7 1.65 0 .95-.7 1.5-.75.75-1.8.75-1 0-1.75-.75h-.1m.3-2.5q-.35.35-.35.95 0 .55.35.9.45.35 1 .35l.95-.35q.45-.35.45-.9 0-.6-.45-.95-.4-.35-.95-.35-.55 0-1 .35" fill="#e2964f" fill-rule="evenodd" transform="translate(.5 .5)"/><path d="m12.6 10.1.75-1.1q1.1-1.1 2.6-1.1 1.55 0 2.6 1.1 1.2 1.1 1.2 2.7 0 1.55-1.2 2.7-1.05 1.1-2.6 1.1l-1.2-.2-.2-.1-1.2-.8-.65-.85-.1-.1q-.35-.85-.35-1.75l.2-.95q0-.35.15-.65z" fill="none" stroke="#7f4b22" stroke-linecap="round" stroke-linejoin="round" stroke-width=".75"/></g><g id="H"><path d="M85.65 30.05Q85.1 13.65 97.7 5.6l1.55.85q-12.65 9.4-11.1 28.75-.45-2.4-2.2-5.25l-.1-.2-.2.3" fill="#79b7a5" fill-rule="evenodd" transform="translate(-.55 .5)"/><path d="M68.45.6q7.2-1.3 14.7.2 7.8 1.3 14.55 4.8-12.6 8.05-12.05 24.45-.9 1.1-2.1 1.65l-2.35.35q-2.85.85-3.1 2.7-1.95-3.7-.1-10.55-5.1 1.85-9.2 1.5-3.3-.4-5.35.8.85-9.15 5.85-14.6-4.35-.55-7.4 2.1Q62 7.75 68.45.6m30.8 5.85q1.6.8 3.05 1.85-8.1 3.4-9.8 18.2-.2 2.05-.25 4.25-1.4 3.8-3.7 7.5l-.1-.8v-.1l-.3-2.15Q86.6 15.85 99.25 6.45" fill="#cef2e2" fill-rule="evenodd" transform="translate(-.55 .5)"/><path d="M83.55 31.7q1.2-.55 2.1-1.65l.3-.1q1.75 2.85 2.2 5.25l.3 2.15v.1l-.2 1.2.3-.4.25 1.95Q88.6 76 64.75 86.3q-19.7 6.3-43.95-1.05l-1.1-.65L2.5 74.55l-1.2-.8q-1.1.05 2.65-12.2 3.7-12.25 9.25-22.7 5.5-10.45 9.35-15.45-3.3 20.7 6.65 30.15 3.8 2.1 7.4 3.4-.35.55-.55 1.3-.65 3.15 1.5 5.35 2.05 2.25 1.4 3.6-.55 1.3-1.5 2.05l1.85-.8q1.2-.65 1.1-2.25-.1-1.65-1.65-3.8-1.65-2.1-1.55-3.8.05-.7.55-1.3 5 1.5 9.4 1.15-1.55 1.35-1.75 3.4-.25 4.15 1.4 4.9-1-4.45.2-6.3 1.2-1.95 4.05-2.65l5.45-1.4q3.45-.95 4.2-3.35l.25-2.1q3.25-3.8 6-9.45h.3l2.95.35-.65 5q-1.95 2.05-1.65 5 .25 3.25 5.25 8.8 4.95 5.55 4.85 7.7-.1 2-2.15 2.75l-5.9.2q-3.9-.45-7.05-1.85-3.35-1.4-5-1.75l-3.35.15Q53 68.5 53 69.65q0 1 .45 2.55.5 1.5-1.45 3.15.9 0 1.55-.45.75-.65.85-1.85l.1-2.05q.05-2.5 1.65-2.5 1.5 0 3.8 1.05 2.3 1 1.55 1.2l-.35.25L59 72.7q-.8.8-.65 1.75.1.8.75 1.65l1.2 1.95q.45 1-.75 2.4-1.3 1.2-6.35-.1v-.1q-.2.3.8.95.95.65 2.5 1 1.5.3 3.45-.45 1.95-.95 2.1-2.3.2-1.5-.8-3.05-1.05-1.6-.75-2.7.25-1.2.9-1.65.6-.5 1.8-.5 1.1 0 4.05.85l4.9.85q1.85 0 5.1-1.05 3.05-1 2.3-4.25t-5.8-8.7q-5.2-5.45-4.1-9.7 1.1-4.25 8.9-5.45 7.75-1.3 7.6-4.8l-3.45 2.5-3.4.6-2.7-.05q4.05-4 6.95-10.65M52 75.35h-.2l.1.1.1-.1m15.45-34.8 2.3-5.7q.55 3.05.45 6.3l-2.75-.6m-5.3 14.65q.1-1.75 1.6-3.35 1.35-1.55 2.5-2.2-2.7.45-4.25 2.4-1.6 1.85-1.6 3.6-.1 1.75 1.5 3.8 1.55 1.95 1.55 3.6-.1 1.6-5.2 1.6-5.05 0-7 1.35-2.05 1.3-2.15 3.65 1.6-2.5 2.5-3.1.95-.55 2.95-.7l4.45-.2h3.9q1.55-.1 2.4-1.3.85-1.3.55-2.2-.25-.95-2-3.05-1.8-2.15-1.7-3.9m-9.25 7.3q.75-2.4-2.5-1.55-3.05 1.65-2.65 4.9l1-2.05q1-1.65 2.1-1.85 1.4.3-1.55 3.5 1.4-.1 2.5-1.45l1.2-1.4v-.1h-.1m-3.8 7.15-.1.05-.05.2.05-.1.1-.15" fill="#80adbc" fill-rule="evenodd" transform="translate(-.55 .5)"/><path d="M68.45.6Q62 7.75 61.9 14q3.05-2.65 7.4-2.1-5 5.45-5.85 14.6 2.05-1.2 5.35-.8 4.1.35 9.2-1.5-1.85 6.85.1 10.55.25-1.85 3.1-2.7l2.35-.35q-2.9 6.65-6.95 10.65l-4.35-.75-2.05-.45q.1-3.25-.45-6.3l-2.3 5.7-2.7-.25Q62 40 59 41.4q-2.95 1.2-3.5 3.35-.65 2-1 5.55-.5 3.4-4.75 3.05-4.35-.4-8.7.75-3.3.8-4.45 2.85-3.6-1.3-7.4-3.4-9.95-9.45-6.65-30.15 4.95-6.3 14.8-9.8 9.8-3.55 15.6-6.8 5.75-3.3 9-4.45 3.25-1.2 6.5-1.75m1.1 46.25.65-5q2.5.5 5.4 1.5v.1h-.2q-2.95.85-5.3 2.95l-.55.45m-2.6-5.35q-2.75 5.65-6 9.45l-.25-1.2q-1.05 2.6-3.05 4.25-2.15 1.55-5.4 2.3-3.4.65-5.1 2.15-4.4.35-9.4-1.15.55-.7 1.85-1.25 2.2-.95 4.7-.95l5.85-.3q3.3-.25 4.7-1 1.3-.75 1.4-4.25 0-3.6 1.2-5.35 1.2-1.95 3.6-2.4l5.9-.3" fill="#fff" fill-rule="evenodd" transform="translate(-.55 .5)"/><path d="M92.25 30.75q-.3 4.55 0 10.1 1.1 21.4-6.5 33.7-2.3 3.6-5.2 6.35-13.1 12.5-30.5 11.75Q33.4 92 20.8 85.25q24.25 7.35 43.95 1.05Q88.6 76 88.8 40.2l-.25-1.95q2.3-3.7 3.7-7.5" fill="#c9fff7" fill-rule="evenodd" transform="translate(-.55 .5)"/><path d="m76.6 42.35 2.7.05 3.4-.6 3.45-2.5q.15 3.5-7.6 4.8-7.8 1.2-8.9 5.45-1.1 4.25 4.1 9.7 5.05 5.45 5.8 8.7.75 3.25-2.3 4.25-3.25 1.05-5.1 1.05l-4.9-.85q-2.95-.85-4.05-.85-1.2 0-1.8.5-.65.45-.9 1.65-.3 1.1.75 2.7 1 1.55.8 3.05-.15 1.35-2.1 2.3-1.95.75-3.45.45-1.55-.35-2.5-1-1-.65-.8-.95v.1q5.05 1.3 6.35.1 1.2-1.4.75-2.4l-1.2-1.95q-.65-.85-.75-1.65-.15-.95.65-1.75l2.15-1.7.35-.25q.75-.2-1.55-1.2-2.3-1.05-3.8-1.05-1.6 0-1.65 2.5l-.1 2.05q-.1 1.2-.85 1.85-.65.45-1.55.45 1.95-1.65 1.45-3.15-.45-1.55-.45-2.55 0-1.15 1.55-1.8l3.35-.15q1.65.35 5 1.75 3.15 1.4 7.05 1.85l5.9-.2q2.05-.75 2.15-2.75.1-2.15-4.85-7.7-5-5.55-5.25-8.8-.3-2.95 1.65-5l.55-.45q2.35-2.1 5.3-2.95h.2l.05-.1h-.05q-2.9-1-5.4-1.5l-2.95-.35h-.3l-5.9.3q-2.4.45-3.6 2.4-1.2 1.75-1.2 5.35-.1 3.5-1.4 4.25-1.4.75-4.7 1l-5.85.3q-2.5 0-4.7.95-1.3.55-1.85 1.25-.5.6-.55 1.3-.1 1.7 1.55 3.8 1.55 2.15 1.65 3.8.1 1.6-1.1 2.25l-1.85.8q.95-.75 1.5-2.05.65-1.35-1.4-3.6-2.15-2.2-1.5-5.35.2-.75.55-1.3 1.15-2.05 4.45-2.85 4.35-1.15 8.7-.75 4.25.35 4.75-3.05.35-3.55 1-5.55.55-2.15 3.5-3.35 3-1.4 5.75-1.1l2.7.25 2.75.6 2.05.45 4.35.75m-15.65 8.6-.25 2.1q-.75 2.4-4.2 3.35l-5.45 1.4q-2.85.7-4.05 2.65-1.2 1.85-.2 6.3-1.65-.75-1.4-4.9.2-2.05 1.75-3.4 1.7-1.5 5.1-2.15 3.25-.75 5.4-2.3v.1h.05l-.05-.1q2-1.65 3.05-4.25l.25 1.2m1.2 4.25q-.1 1.75 1.7 3.9 1.75 2.1 2 3.05.3.9-.55 2.2-.85 1.2-2.4 1.3H59l-4.45.2q-2 .15-2.95.7-.9.6-2.5 3.1.1-2.35 2.15-3.65 1.95-1.35 7-1.35 5.1 0 5.2-1.6 0-1.65-1.55-3.6-1.6-2.05-1.5-3.8 0-1.75 1.6-3.6 1.55-1.95 4.25-2.4-1.15.65-2.5 2.2-1.5 1.6-1.6 3.35M53 62.6 51.8 64q-1.1 1.35-2.5 1.45 2.95-3.2 1.55-3.5-1.1.2-2.1 1.85l-1 2.05q-.4-3.25 2.65-4.9 3.25-.85 2.5 1.55l.1.1" fill="#335359" fill-rule="evenodd" transform="translate(-.55 .5)"/><path d="M97.7 5.6Q90.95 2.1 83.15.8q-7.5-1.5-14.7-.2m29.25 5 1.55.85q1.6.8 3.05 1.85-8.1 3.4-9.8 18.2" fill="none" stroke="#2e4f57" stroke-linecap="round" stroke-linejoin="round" transform="translate(-.55 .5)"/><path d="M67.9 1.1q-6.45 7.15-6.55 13.4 3.05-2.65 7.4-2.1-5 5.45-5.85 14.6 2.05-1.2 5.35-.8 4.1.35 9.2-1.5-1.85 6.85.1 10.55.25-1.85 3.1-2.7L83 32.2q1.2-.55 2.1-1.65l.2-.3.1.2q1.75 2.85 2.2 5.25l.3 2.15v.1l-.2 1.2.3-.4q2.3-3.7 3.7-7.5.05-2.2.25-4.25" fill="none" stroke="#2e4f57" stroke-linecap="round" stroke-linejoin="round" stroke-width=".75"/><path d="M92.25 30.75q-.3 4.55 0 10.1 1.1 21.4-6.5 33.7-2.3 3.6-5.2 6.35-13.1 12.5-30.5 11.75Q33.4 92 20.8 85.25l-1.1-.65L2.5 74.55l-1.2-.8q-1.1.05 2.65-12.2 3.7-12.25 9.25-22.7 5.5-10.45 9.35-15.45 4.95-6.3 14.8-9.8 9.8-3.55 15.6-6.8 5.75-3.3 9-4.45 3.25-1.2 6.5-1.75" fill="none" stroke="#718a9c" stroke-linecap="round" stroke-linejoin="round" transform="translate(-.55 .5)"/></g><g id="I"><path d="M52.65 24.3h1.95q1.2-.1 2.15.65l1.55 1.55.95 1.85v.3q0 5.9-4.2 8.3 4.2-2.4 4.2-8.3h.05q.6 1.55.95 1.75l.35.1v.1q-.65 1-.45 1.75t1.2 1q.95.2 1.7 1.2l1.85 3.25Q66 40 66.8 40q.95 0 2.05-1.35l.1 1.35q-.1 2.9-1.65 3.45-.65.2-1.05.75-1.45-4.55-5.55-8.15 3.45 4.9 4.75 10.65v.1l-3.35 2.55q-.35.2-.75.5-2.6-9.65-15.65-9.55l.1-1.85 5.1-.2.65-.1q2.05-.35 3.5-1.2 2.05-9.35-2.65-12.3l.15-.35-.15.35-.75 1.7q2.95 6.8.25 11.25-1.25-2.3-4.25-3.3l1.15-4.2-3.8 3.15-1.15.75-.15.1q-6.4-.3-10.1-6.65l-1.3 1.45q-1.75 1.3-5.55 1.7h-2.5q-5-7.15-.35-23.9l1 .1q7.8 1 10.9 7.95h.2q6.3-.1 11 1.95 5 2.15 5.65 7.2l-.1.4h.1m2.95 24.9-.15.25-.75.95q-1.65-3.6-1.55-5.95.6 2.15 2.45 4.75M20.75 29.45q-1.4-.9-2.5-2.2-3.05-3.9-4.15-7.95l-.6.2q-6 1.9-13.5-9L5.55.4q4.9-1 9.65.5 4.35 1.1 2.4 7.2.65-.45 1.4-.85.9-.35 2.1-.55-4.5 14.7-.35 22.75m28.05.65q1.75-1.85 2.85-3.75-1.1 1.9-2.85 3.75M19 7.25q-1.8 7.6-5.5 12.25 3.7-4.65 5.5-12.25M32.3 28.9q2.95-5.55 3.7-14.15-.75 8.6-3.7 14.15" fill="#a42f51" fill-rule="evenodd" transform="translate(.5 .5)"/><path d="m60.6 30.5 1.4.1q1.4 0 2.15.65l2.85 3.2q1.5 2.05 1.85 4.2Q67.75 40 66.8 40q-.8 0-1.9-2.2l-1.85-3.25q-.75-1-1.7-1.2-1-.25-1.2-1-.2-.75.45-1.75v-.1" fill="#c9fff7" fill-rule="evenodd" transform="translate(.5 .5)"/><path d="M45.15 38.45q-2.5-1.4-1.3-4.25V34l1.15-.75 2.65 1.05q-.9 2.2-2.5 4.15" fill="#ffffa1" fill-rule="evenodd" transform="translate(.5 .5)"/><path d="M52.4 24.65q4.7 2.95 2.65 12.3-1.45.85-3.5 1.2l.35-.55q2.7-4.45-.25-11.25l.75-1.7M24.25 30.6q-1.95-.3-3.5-1.15-4.15-8.05.35-22.75 1.2-.15 2.8 0-4.65 16.75.35 23.9m23.4 3.7L45 33.25l3.8-3.15-1.15 4.2" fill="#e3974e" fill-rule="evenodd" transform="translate(.5 .5)"/><path d="M61.35 49.85q-1.95 1.1-2.75 1-1.05-.2-1.75-1.3-.65-.85-1.25-.35-1.85-2.6-2.45-4.75-.1 2.35 1.55 5.95l-1.1 1.2-1.85-.1q-1.2-.65-2.8-2.25-3.4-3.5-3.3-6.45l.05-2.5q13.05-.1 15.65 9.55M45.8 38.45v-.2q-.15-.15-.65.2 1.6-1.95 2.5-4.15 3 1 4.25 3.3l-.35.55-.65.1-5.1.2" fill="#ff5464" fill-rule="evenodd" transform="translate(.5 .5)"/><path d="M66.25 44.2q-.65.75-.75 2.4l-.05.1q-1.3-5.75-4.75-10.65 4.1 3.6 5.55 8.15" fill="#4d1228" fill-rule="evenodd" transform="translate(.5 .5)"/><path d="m53.05 24.8-.15.35-.75 1.7q-1.1 1.9-2.85 3.75l-3.8 3.15-1.15.75-.15.1m11.35 2.85q4.2-2.4 4.2-8.3v-.3m-6.6-4.45-.1.4m-1 13.85q2.05-.35 3.5-1.2m-9.25 1.5 5.1-.2M14 20q3.7-4.65 5.5-12.25m17 7.5q-.75 8.6-3.7 14.15" fill="none" stroke="#55132a" stroke-linecap="round" stroke-linejoin="round" stroke-width=".75"/><path d="m59.25 28.35-.95-1.85-1.55-1.55q-.95-.75-2.15-.65h-1.95v-.4Q52 18.85 47 16.7q-4.7-2.05-11-1.95h-.2Q32.7 7.8 24.9 6.8l-1-.1q-1.6-.15-2.8 0-1.2.2-2.1.55-.75.4-1.4.85Q19.55 2 15.2.9 10.45-.6 5.55.4m53.7 27.95.05.3q.6 1.55.95 1.75l.35.1 1.4.1q1.4 0 2.15.65l2.85 3.2q1.5 2.05 1.85 4.2l.1 1.35q-.1 2.9-1.65 3.45-.65.2-1.05.75-.65.75-.75 2.4l-.05.1m0 .1-3.35 2.55q-.35.2-.75.5-1.95 1.1-2.75 1-1.05-.2-1.75-1.3-.65-.85-1.25-.35l-.15.25-.75.95-1.1 1.2-1.85-.1q-1.2-.65-2.8-2.25-3.4-3.5-3.3-6.45l.05-2.5.1-1.85v-.2q-.15-.15-.65.2-2.5-1.4-1.3-4.25v-.1h-.15q-6.4-.3-10.1-6.65l-1.3 1.45q-1.75 1.3-5.55 1.7h-2.5q-1.95-.3-3.5-1.15-1.4-.9-2.5-2.2-3.05-3.9-4.15-7.95l-.6.2q-6 1.9-13.5-9" fill="none" stroke="#55132a" stroke-linecap="round" stroke-linejoin="round" transform="translate(.5 .5)"/><path d="M52.9 25.15q4.7 2.95 2.65 12.3m-7.4-2.65 1.15-4.2m-1.15 4.2q-.9 2.2-2.5 4.15m6.75-.85q2.7-4.45-.25-11.25m-30.9 3.1Q17.1 21.9 21.6 7.2m2.8 0q-4.65 16.75.35 23.9" fill="none" stroke="#7c4215" stroke-linecap="round" stroke-linejoin="round" stroke-width=".5"/></g><g id="J"><path d="M2.65.35 16.6 0l-1.35 4.9q-.4.9-.55 1.85-1.4 5.2 0 7.7l.7.9q-2.75 1.5-7 .75-2.95-2.4-6.05-2.7l-2-.1Q-.5 10.45.7 6.45q1.05-3.8 1.95-6.1" fill="#f3bba6" fill-rule="evenodd" transform="translate(.5 .5)"/><path d="m8.4 16.1-6.95-.3-.1-.1q-.75-1.1-1-2.4l2 .1q3.1.3 6.05 2.7" fill="#fff3e5" fill-rule="evenodd" transform="translate(.5 .5)"/><path d="m16.6 0-1.35 4.9q-.4.9-.55 1.85-1.4 5.2 0 7.7l.7.9m-13.95.45-.1-.1q-.75-1.1-1-2.4-.85-2.85.35-6.85 1.05-3.8 1.95-6.1" fill="none" stroke="#b8776f" stroke-linecap="round" stroke-linejoin="round" transform="translate(.5 .5)"/></g><g id="K"><path d="m31.8 19.55 1.75 1.55-1.1 4.65Q27 19.9 24.5 17.95q-4.05-3.3-7.85-4.35-3.9-1.1-4.8.75-.75 1.5-.4 6.5.4 4.9 3.9 11.75t4.9 8.7l5.65 7.85 1.1 1.6q-1.2 7.4 0 8.3Q10.7 48.15 0 26.1L4.6 0q2.5.2 4.8 1.2l.1 1.5q.1 1.65 6.4 6.75l10.65 8.7q2.5 1.1 5.25 1.4" fill="#864295" fill-rule="evenodd" transform="translate(.5 .5)"/><path d="m27 50.75-1.1-1.6-5.65-7.85q-1.4-1.85-4.9-8.7-3.5-6.85-3.9-11.75-.35-5 .4-6.5.9-1.85 4.8-.75 3.8 1.05 7.85 4.35 2.5 1.95 7.95 7.8-.35 1.1-.55 2.3l-3.25-2.85Q21 18.45 18.6 16.75q-2.5-1.65-3.25-1.2-.75.5-.75 1.3 0 3.6 7.05 9.45l8.85 7.3Q27.95 44.55 27 50.75" fill="#fa82d6" fill-rule="evenodd" transform="translate(.5 .5)"/><path d="m31.9 28.05-1.4 5.55-8.85-7.3q-7.05-5.85-7.05-9.45 0-.8.75-1.3.75-.45 3.25 1.2 2.4 1.7 10.05 8.45l3.25 2.85" fill="#ffc5df" fill-rule="evenodd" transform="translate(.5 .5)"/><path d="M31.8 19.55q-2.75-.3-5.25-1.4L15.9 9.45Q9.6 4.35 9.5 2.7l-.1-1.5.75.3q2.95 1.4 5.65 4l16 14.05" fill="#c0edec" fill-rule="evenodd" transform="translate(.5 .5)"/><path d="m32.45 25.75 1.1-4.65-1.75-1.55-16-14.05q-2.7-2.6-5.65-4l-.75-.3Q7.1.2 4.6 0L0 26.1q10.7 22.05 27 32.95-1.2-.9 0-8.3.95-6.2 3.5-17.15l1.4-5.55q.2-1.2.55-2.3z" fill="none" stroke="#4a1455" stroke-linecap="round" stroke-linejoin="round" transform="translate(.5 .5)"/></g><g id="k" transform="translate(.5 .25)"><use ffdec:characterId="19" height="62.35" transform="translate(-.5 -.25)" width="55.8" xlink:href="#y"/><use ffdec:characterId="21" height="24.6" transform="translate(21.9 31.2)" width="29.15" xlink:href="#z"/></g><g id="L"><path d="m13.55 2.3.1.35q-3.6 2.3-6.3 7.7L30.5 39q-4.65-5-9.1-9.15l-1.35-1.3-2.7-2.6Q5.5 10.9 5.4 9.6q3.8-4.9 8.15-7.3" fill="#fef5b0" fill-rule="evenodd" transform="translate(.5 .25)"/><path d="M18.55.25Q20.5 7.1 23 13.2q4.6 11 11.35 19.6Q42.9 43.55 54.8 50.5l-5.35 9.15-7.3-6.95q-1.75-1.65.25.1-5.65-7.2-10.15-13.8-10-14.3-15-25.8-2.4-5.65-3.6-10.55l.75-.45-.85.1L13.2 1q2.4-.75 5.15-.75h.2m30.25 60.4-.55.95q-13.9-11.4-28.2-21.95l-.5-.35q-.25-1.5-1.1-2.6Q11.5 29.95.05 23.1q.1-.75.65-1.3 12.4 8.15 21.85 15.3 1.2.8 1.85 1.35l1.55 1.15 3.35 2.55 5.6 4.75 1.6 1.35 1.55 1.6 3.65 3.5 3.85 4.1 2.6 2.65.65.55" fill="#9b5042" fill-rule="evenodd" transform="translate(.5 .25)"/><path d="M3.55 10.05q-.1-1.3 1-2.5Q7.9 2.45 13.2 1l.35 1.3Q9.2 4.7 5.4 9.6q.1 1.3 11.95 16.35Q9.65 18.4 5.7 13.2l-2.15-3.15" fill="#f8edaa" fill-rule="evenodd" transform="translate(.5 .25)"/><path d="m49.45 59.65-.65 1-.65-.55-2.6-2.65-3.85-4.1-3.65-3.5-1.55-1.6-1.6-1.35-5.6-4.75-3.35-2.55-1.55-1.15q-.65-.55-1.85-1.35l-7.15-6.4-2.6-2.4-3.7-3.6 8.7 6.45q-6.85-6.2-15-12.75l.4-.65-.3-.75 9.9 8.25-4.45-4.35L18 28.4 3 14.6q.35-.75 1.3-1.4l.35-.25q-1.2-1.5-1.1-2.9L5.7 13.2q3.95 5.2 11.65 12.75 1.55 2.05 4.05 3.9Q25.85 34 30.5 39l2 2.35 2.9 3.3.75.95 1.9 2.3 4.35 4.9q-2-1.75-.25-.1l7.3 6.95M21.7 33.45l13.7 11.2-13.7-11.2" fill="#e4e3ba" fill-rule="evenodd" transform="translate(.5 .25)"/><path d="m2.65 20.35.25-.2q-.45-.65-.25-1.4L7.8 23.5l1.3 1.2 3.7 3.6-1.45-1.05-5.4-4.15-3.3-2.75M2.9 17q-.25-.85-.2-1.55l5.65 5.45 4.45 4.35L2.9 17" fill="#3d0c08" fill-rule="evenodd" transform="translate(.5 .25)"/><path d="M.7 21.8q.55-.75 1.95-1.45l3.3 2.75 5.4 4.15 2.5 2.15 1.55 1.3 7.15 6.4Q13.1 29.95.7 21.8m1.95-3.05.15-.35q8.15 6.55 15 12.75L9.1 24.7l-1.3-1.2-5.15-4.75m.05-3.3.3-.85 15 13.8-9.65-7.5-5.65-5.45" fill="#fbfafa" fill-rule="evenodd" transform="translate(.5 .25)"/><path d="m19.55 39.3-.35-.3L2.9 27.55Q-.35 25.05.05 23.1q11.45 6.85 18.4 13.6.85 1.1 1.1 2.6m-5.9-36.65q1.2 4.9 3.6 10.55 5 11.5 15 25.8 4.5 6.6 10.15 13.8l-4.35-4.9-1.9-2.3-.75-.95-2.9-3.3-2-2.35L7.35 10.35q2.7-5.4 6.3-7.7" fill="#d7a967" fill-rule="evenodd" transform="translate(.5 .25)"/><path d="M18.55.25Q20.5 7.1 23 13.2q4.6 11 11.35 19.6Q42.9 43.55 54.8 50.5l-5.35 9.15-.65 1-.55.95q-13.9-11.4-28.2-21.95m-.5-.35-.35-.3L2.9 27.55Q-.35 25.05.05 23.1q.1-.75.65-1.3.55-.75 1.95-1.45l.25-.2q-.45-.65-.25-1.4l.15-.35.4-.65-.3-.75q-.25-.85-.2-1.55l.3-.85q.35-.75 1.3-1.4l.35-.25q-1.2-1.5-1.1-2.9-.1-1.3 1-2.5Q7.9 2.45 13.2 1q2.4-.75 5.15-.75h.2" fill="none" stroke="#52231a" stroke-linecap="round" stroke-linejoin="round" transform="translate(.5 .25)"/><path d="M18.85.5q-.9-.45.2 0" fill="none" stroke="#00f" stroke-linecap="round" stroke-linejoin="round" stroke-width=".05"/><path d="m42.65 52.95 7.3 6.95m-32.1-33.7 2.7 2.6 1.35 1.3q4.45 4.15 9.1 9.15l2 2.35 2.9 3.3-13.7-11.2m-4.35-7.5q-7.7-7.55-11.65-12.75L4.05 10.3m19 27.05q1.2.8 1.85 1.35l1.55 1.15 3.35 2.55 5.6 4.75L37 48.5l1.55 1.6m4.35 2.95-4.35-4.9-1.9-2.3-.75-.95M1.2 22.05q12.4 8.15 21.85 15.3" fill="none" stroke="#52231a" stroke-linecap="round" stroke-linejoin="round" stroke-width=".5"/></g><g id="M"><path d="M28.15 7.9q-1.2 4.4-5.35 4.4-6.2-.15-5.3-2.65l-1.75 1.1q-1.55.9-5 .35-.9-.65-1.65-.9l-.65-.1.65.1q.75.25 1.65.9l1.15.85q1.9 1.55 1.9 3.05 0 .95-.9 1.4l1.1.15q1.75.4 1.95 2.05v.45l1.75.1q2.05.3 2.05 1.95 0 1.1-1.95 1.85l-3.45.65q-1.35 0-1.85-.45-.25-.3-.35-1l.3-1.05-.1-.8-.2-1.15-.85-1.3q-.65-.7-.65-1.1l.1-.2.1-1.1q0-1.75-1.65-2.85-1.4-1-1.75-2.6l.9.1h.1l.35-.65q.95.65 3.1.65 1.65 0 4.6-2.4 2.2-1.75 5-5l6.75 5-.1.2M11.8 16.55h-1.05 1.3l.85-.15q-.95-.2-1.1.15m4.15 2.5q-.3 1.25-1.95 1.7l-1.55.35 1.55-.35q1.65-.45 1.95-1.7" fill="#f2b9a4" fill-rule="evenodd" transform="translate(.5 .5)"/><path d="M21.5 2.7q-2.8 3.25-5 5-2.95 2.4-4.6 2.4-2.15 0-3.1-.65l.1-.3q2.5-4.8 9-9.15l3.6 2.7m-9.55 18.5-2.5.3q-2.4.15-3.7-1.3-1.2-1.3-.55-3.9l-2.1-.75Q1.4 14.9.7 13.8q-.85-1.2-.65-2.6.1-1.4.45-1.75Q.75 9 1.25 9q.35 0 .9.45l2.7.35 2.5.2h.1q.35 1.6 1.75 2.6 1.65 1.1 1.65 2.85l-.1 1.1-1.85-.05-3.6-.2 3.6.2 1.85.05-.1.2q0 .4.65 1.1l.85 1.3.2 1.15q-.45.45-.4.9M5.2 16.3h.1q0-.45-.1 0" fill="#fff4e6" fill-rule="evenodd" transform="translate(.5 .5)"/><path d="M10.75 11.1q3.45.55 5-.35l1.75-1.1q-.9 2.5 5.3 2.65 4.15 0 5.35-4.4M8.8 9.45l-.35.65.65.1q.75.25 1.65.9l1.15.85q1.9 1.55 1.9 3.05 0 .95-.9 1.4l1.1.15q1.75.4 1.95 2.05v.45l1.75.1q2.05.3 2.05 1.95 0 1.1-1.95 1.85l-3.45.65q-1.35 0-1.85-.45-.25-.3-.35-1l-.2-.95-2.5.3q-2.4.15-3.7-1.3-1.2-1.3-.55-3.9l-2.1-.75Q1.4 14.9.7 13.8q-.85-1.2-.65-2.6.1-1.4.45-1.75Q.75 9 1.25 9q.35 0 .9.45l2.7.35 2.5.2m.1 0 .9.1h.1M5.3 16.3h-.1m.1 0 3.6.2 1.85.05h1.3l.85-.15m-.45 4.7 1.55-.35q1.65-.45 1.95-1.7m-3.5 2.05-.5.1M17.9 0q-6.5 4.35-9 9.15" fill="none" stroke="#b7776f" stroke-linecap="round" stroke-linejoin="round" transform="translate(.5 .5)"/><path d="m9.4 9.65-.1.3" fill="none" stroke="#00f" stroke-linecap="round" stroke-linejoin="round" stroke-width=".05"/></g><g id="N"><path d="M6.4.8q7.2 4.45 7.95 14.15l-3 3.65Q9.1 11.6 0 7.45 4.1 5.7 6.4.8" fill="#d0f9f5" fill-rule="evenodd" transform="translate(.5 .5)"/><path d="M6.4.8V.7q3.6-2.3 7.95 3.15 4.35 5.45 3.5 7.5-2 1.45-3.5 3.6Q13.6 5.25 6.4.8" fill="#72a1cf" fill-rule="evenodd" transform="translate(.5 .5)"/><path d="M17.85 11.35q.85-2.05-3.5-7.5T6.4.7v.1Q4.1 5.7 0 7.45 9.1 11.6 11.35 18.6" fill="none" stroke="#3f507a" stroke-linecap="round" stroke-linejoin="round" transform="translate(.5 .5)"/></g><g id="O"><path d="M14.8 0q-2.25 2.35-2.9 4.25l-.35 1.5q-.75 3.05.55 5.35l.75 1.4q-2.05 1.75-4 1.5Q7 12.15 6 11.6q-2.3-1.2-4.45-1.15l-1.3.4L0 8.8q0-1.2.65-3.05.65-2.15 2.2-5.1L14.8 0" fill="#f3bba6" fill-rule="evenodd" transform="translate(.5 .5)"/><path d="m8.85 14-7.1 1.1q-1.2-2.85-1.5-4.15v-.1l1.3-.4Q3.7 10.4 6 11.6q1 .55 2.85 2.4" fill="#fff3e5" fill-rule="evenodd" transform="translate(.5 .5)"/><path d="M14.8 0q-2.25 2.35-2.9 4.25l-.35 1.5q-.75 3.05.55 5.35l.75 1.4m-11.1 2.6q-1.2-2.85-1.5-4.15m0-.1L0 8.8q0-1.2.65-3.05.65-2.15 2.2-5.1" fill="none" stroke="#b7786f" stroke-linecap="round" stroke-linejoin="round" transform="translate(.5 .5)"/></g><g id="P"><path d="M7.3 36.35H6.2q2.95-6.35 2.05-9.5-.85-2.8.2-5.75l.7-1.65 1.3-1.8-.15.85q-1.5 5.2-.75 7.85.8 2.8-.85 7.5l-1 2.35-.1.15h-.3l.4-.15-.4.15m31.55-1.2-.45-.65.3-2.3.15-1.55q.3-3.75.2-8-.1-5.05 1.2-1.3l1.7-2.4.8-1q.4.2-.25 1.75l-.55.95q-1.05 1.65-1.6 3.2l-.3 6.8-.35 4.8-.1.75-.75-1.05.85.3-.85-.3" fill="#390a48" fill-rule="evenodd" transform="translate(.5 .5)"/><path d="m31.45 10.8-.25.2-.2.2-1.2 1.1-4.9 5-6-7.1.1-.75.05-.55.3-8.55L31.65 0l-.2 10.8" fill="#f3bba6" fill-rule="evenodd" transform="translate(.5 .5)"/><path d="m27.7 27.85 7.55-20.1 1.2-.9q3.25-.3 5.85 4.15l.75 1.6q-2.05.45-4.35 2.1-1.6 1.1-3.25 2.9-1.95 1.9-4 4.7l-.8.1.1.9-.95 1.2q-1.1 1.6-2.1 3.35M12.15 16.2l-.85-4.35q1.2-2.9 4.55-2.15l1.55 2.8q-.45.1-.65.55l-4.6 3.15" fill="#71a0cf" fill-rule="evenodd" transform="translate(.5 .5)"/><path d="m35.25 7.7-.25.25.25-.2-7.55 20.1-1.4 2.3-1.4 2.35q-5.85-.1-11.4 1.45 1.85-3.4 3.8-6.45 2.5-4 5.3-7.4-2.8 3.4-5.3 7.4-3.4-5.55-5-10.65l-.15-.65 4.6-3.15.65-.45q2.25 3.8 5.2 7.5l2.3-2.8 4.9-5 1.2-1.1.2-.2.25-.2 3.8-3.1" fill="#d0f9f5" fill-rule="evenodd" transform="translate(.5 .5)"/><path d="m24.9 17.3-2.3 2.8q-2.95-3.7-5.2-7.5l.3-.2.7-.75.5-1.45 6 7.1" fill="#fff6e7" fill-rule="evenodd" transform="translate(.5 .5)"/><path d="m41.95 18.95-1.7 2.4q-1.3-3.75-1.2 1.3.1 4.25-.2 8l-.15 1.55-.3 2.3.45.65-2.1-.65-.1-.1.3-3.75v-1.5q0-3.9-1.05-5.55-.35-.65-1.2-.95l-3.25-.35q2.05-2.8 4-4.7 1.65-1.8 3.25-2.9l3.25 4.25" fill="#864295" fill-rule="evenodd" transform="translate(.5 .5)"/><path d="m36.65 34.4.1.1 2.1.65.75 1.05.1-.75.95.35q1.45 1.4 1.65 10.1h-.2l.2.2q-1.85 2.1-11 1.25 2.2-5.6 1.3-10.55-.4-1.9-1.2-3.7l1.65.4 3.6.9m-7.3 20.85-1.65-2.8.45-.35 1 .2 4.25 1.35 1.2.3-5.25 1.3" fill="#3a247c" fill-rule="evenodd" transform="translate(.5 .5)"/><path d="M13.5 33.95q5.55-1.55 11.4-1.45l6.5.6q.8 1.8 1.2 3.7.9 4.95-1.3 10.55l-.3-.05-6.2-.75-.1-.3 2.5-1.55q-2.1-1.2-3.7-3.9-1.4-4.15-3.3 0-.4-.35-.75.1l-3.9.25Q13.7 36.9 12.4 42l-2.5 3.7 1.75.95-2.4 1-.15-12.1q1.85-.75 3.6-1.3l.8-.3" fill="#8160ff" fill-rule="evenodd" transform="translate(.5 .5)"/><path d="M7.3 36.35h.3l.1-.15 1.4-.65.15 12.1q-2.3.75-4.7.55l-.1-2.3-.3-7.85q1.6-.95 3.15-1.7" fill="#a1bbff" fill-rule="evenodd" transform="translate(.5 .5)"/><path d="M42.3 46.1q.75-.95.25-2.25 3.25 1.3 4.35 4.55 1.8 5.15-2.95 6.3l-.45.1-1.55.05q-3.65 0-7.35-.9l-1.2-.3-4.25-1.35 1.2.05 3.35.1h.2q3.2.3 6.15-.75l.95-.25q2.7-1.1 2.7-2.95 0-1.3-1.4-2.4m-29.5 1.25 1.1.75-.1 1.1v.1l-.65 2.8v.1l-4 2.85H9.1q-2.05 1.2-4.35 1.4H4.1l-1.3-.1Q0 55.8 0 52.95q0-1.6.3-2.7 1.4 3.25 4.35 3.15H5q3.7-.45 6-3.25l1.8-2.8" fill="#9f2e50" fill-rule="evenodd" transform="translate(.5 .5)"/><path d="m29.15 52.3-.85-.3-1.2-.55q-1.75-3.05-2.3-4.9l6.2.75.3.05q9.15.85 11-1.25 1.4 1.1 1.4 2.4 0 1.85-2.7 2.95l-.95.25q-2.95 1.05-6.15.75h-.2l-3.35-.1-1.2-.05m-17.5-5.65 1.15.7-1.8 2.8q-2.3 2.8-6 3.25h-.35Q1.7 53.5.3 50.25q.15-.85.45-1.5.65-1.2 2.95-2.65l-.35.65.55-.85q0 .2.55 0l.1 2.3-1.6-.25 1.6.25q2.4.2 4.7-.55l2.4-1" fill="#ff5464" fill-rule="evenodd" transform="translate(.5 .5)"/><path d="M17.3 27.5q-1.95 3.05-3.8 6.45l-.8.3q-1.75.55-3.6 1.3l-1.4.65 1-2.35q1.65-4.7.85-7.5-.75-2.65.75-7.85.7-1.1 1.3-1.5.35-.25.7-.15 1.6 5.1 5 10.65m7.6 5 1.4-2.35 1.4-2.3q1-1.75 2.1-3.35l.95-1.2.7-1 3.25.35q.85.3 1.2.95 1.05 1.65 1.05 5.55v1.5l-.3 3.75-3.6-.9-1.65-.4-6.5-.6m15 34.5-1.75.1-12.95.55 5.55-6.05q1.35-1.9.65-3.4l-.6-.85q4.65-.15 6.6 2.6 1.75 3.5 2.5 7.05M9.15 55.05l2.45.35-1.4 1.3q-1.5 2.4-.1 3.45l1.75 2.6q-.2 1.95-1.2 3.3-.85 1.2-2.3 2.15l-3.15-.65-.45-11.1q2.3-.2 4.35-1.4h.05" fill="#fa82d6" fill-rule="evenodd" transform="translate(.5 .5)"/><path d="M44.7 65.05q-1.95 1.5-4.8 1.95-.75-3.55-2.5-7.05-1.95-2.75-6.6-2.6l-1.45-2.1 5.25-1.3q3.7.9 7.35.9l2.75 10.2m-32.85-2.3 3.7 5.25-6.3.2h-.9q1.45-.95 2.3-2.15 1-1.35 1.2-3.3" fill="#884498" fill-rule="evenodd" transform="translate(.5 .5)"/><path d="M43.95 54.7q.75 3.6 3.05 7.1-.8 1.95-2.3 3.25l-2.75-10.2 1.55-.05.45-.1" fill="#c9fff7" fill-rule="evenodd" transform="translate(.5 .5)"/><path d="M5.2 67.55Q1.6 65.8 2.25 60.4v-.35l.55-3.7 1.3.1h.65l.45 11.1" fill="#ffc9df" fill-rule="evenodd" transform="translate(.5 .5)"/><path d="m35.25 7.7-3.8 3.1-.25.2-.2.2-1.2 1.1-4.9 5-2.3 2.8q-2.8 3.4-5.3 7.4-1.95 3.05-3.8 6.45m11.4-1.45 1.4-2.35 1.4-2.3q1-1.75 2.1-3.35l.95-1.2.7-1q2.05-2.8 4-4.7 1.65-1.8 3.25-2.9 2.3-1.65 4.35-2.1L42.3 11q-2.6-4.45-5.85-4.15l-1.2.9-.25.2M17.4 12.5l-1.55-2.8q-3.35-.75-4.55 2.15l.85 4.35.15.65q1.6 5.1 5 10.65m.1-15v.1q2.25 3.8 5.2 7.5" fill="none" stroke="#34406e" stroke-linecap="round" stroke-linejoin="round" transform="translate(.5 .5)"/><path d="m31.45 10.8.2-10.8m-12.3.35-.3 8.55-.05.55m-.6 2.2.5-1.45" fill="none" stroke="#b7766e" stroke-linecap="round" stroke-linejoin="round" transform="translate(.5 .5)"/><path d="M13.5 33.95q5.55-1.55 11.4-1.45l6.5.6 1.65.4 3.6.9M7.3 36.35l.4-.15 1.4-.65q1.85-.75 3.6-1.3l.8-.3m25.35 1.2.85.3.95.35q1.45 1.4 1.65 10.1v.2m-5.55-11.6 2.1.65M4.45 45.9l-.3-7.85q1.6-.95 3.15-1.7M4.55 48.2l-.1-2.3" fill="none" stroke="#130733" stroke-linecap="round" stroke-linejoin="round" transform="translate(.5 .5)"/><path d="M42.3 46.1q.75-.95.25-2.25 3.25 1.3 4.35 4.55 1.8 5.15-2.95 6.3l-.45.1-1.55.05q-3.65 0-7.35-.9l-1.2-.3-4.25-1.35-.85-.3-1.2-.55m-13.95.75-4 2.85H9.1q-2.05 1.2-4.35 1.4H4.1l-1.3-.1Q0 55.8 0 52.95q0-1.6.3-2.7.15-.85.45-1.5.65-1.2 2.95-2.65m27.6 1.25q9.15.85 11-1.25M4.55 48.2l-1.6-.25m21.85-1.4 6.2.75.3.05m-19.65-.7-2.4 1q-2.3.75-4.7.55" fill="none" stroke="#501224" stroke-linecap="round" stroke-linejoin="round" transform="translate(.5 .5)"/><path d="m14.4 48.6-.1 1.1" fill="none" stroke="#7f461a" stroke-linecap="round" stroke-linejoin="round" stroke-width=".75"/><path d="M43.95 54.7q.75 3.6 3.05 7.1-.8 1.95-2.3 3.25-1.95 1.5-4.8 1.95l-1.75.1-12.95.55m-9.65.35-6.3.2h-.9l-3.15-.65Q1.6 65.8 2.25 60.4v-.35l.55-3.7" fill="none" stroke="#441054" stroke-linecap="round" stroke-linejoin="round" transform="translate(.5 .5)"/><path d="m9.65 55.55 2.45.35m17.75-.15 5.25-1.3" fill="none" stroke="#130733" stroke-linecap="round" stroke-linejoin="round" stroke-width=".75"/><path d="m27.7 52.45 1.65 2.8 1.45 2.1.6.85q.7 1.5-.65 3.4l-5.55 6.05-6.05 5.45-9.05-12.95q-1.4-1.05.1-3.45l1.4-1.3q1-1.35 1.55-3.2v-.1l2.05.85-1.3 2.75-1.3 2.6h.55q.75.2 1.95 1.45l1.45 1.8 3.65 5.35 5.05-6.2 1.5-1.85.2-.3-1.6-2.75-1.1-2.15 3.45-1.2m2.55 5h-.35q1.4.4.35 0" fill="#fee787" fill-rule="evenodd" transform="translate(.5 .5)"/><path d="M21.95 48.3q1 2.7 2.3 5.35l1.1 2.15 1.6 2.75-.2.3q-1.4-1.4-2.5-2.95l-1.1-2.05q-1.2-2.4-1.75-5.2l.55-.35m3.3 12.4-5.05 6.2-3.65-5.35 3.55 3.15 3.4-3.65q.45-.55 1.75-.35m-12.1-2.4h-.55l1.3-2.6 1.3-2.75 1.1-2.8.75.85-.75 2.3-1.2 2.6-1.95 2.4" fill="#170b40" fill-rule="evenodd" transform="translate(.5 .5)"/><path d="m24.7 46.25.1.3q.55 1.85 2.3 4.9l.6 1-3.45 1.2q-1.3-2.65-2.3-5.35l2.75-2.05M13.15 52.1l.65-2.8v-.1l1.2-.15 1.3 1.1-1.1 2.8-2.05-.85" fill="#de934e" fill-rule="evenodd" transform="translate(.5 .5)"/><path d="m15 49.05-1.1-.95-1.1-.75q.25-.7-.1-1.35l-1.05.65-1.75-.95 2.5-3.7q1.3-5.1 3.15-.85l4.55-.35h.1q1.2 1 1.55 2.3.3 1.15.1 1.95l-.1.1-.2.35-.15.2-.5.65q-1.35 1.4-3.7 2.25l-.35.05-1.85.4m6.85-4q-.95.4-1.75.85.8-.45 1.75-.85m-6 .65-2.35-1.4 2.35 1.4" fill="#fff" fill-rule="evenodd" transform="translate(.5 .5)"/><path d="M20.2 40.8q1.9-4.15 3.3 0 1.6 2.7 3.7 3.9l-2.5 1.55-2.75 2.05q-.2-.55-1.05-.35.4.05.5.7-2.05 1.5-3.8 3.15l-.55-.8-.75-.85-1.3-1.1 1.85-.4.35-.05q2.35-.85 3.7-2.25l.5-.65.15-.2.2-.35.1-.1q.2-.8-.1-1.95-.35-1.3-1.55-2.3" fill="#d4b4eb" fill-rule="evenodd" transform="translate(.5 .5)"/><path d="m26.75 58.85-1.5 1.85q-1.3-.2-1.75.35l-3.4 3.65-3.55-3.15-1.45-1.8q-1.2-1.25-1.95-1.45l1.95-2.4 1.2-2.6 6.85.55 1.1 2.05q1.1 1.55 2.5 2.95" fill="#7f5cff" fill-rule="evenodd" transform="translate(.5 .5)"/><path d="m17.05 51 .55.8q1.75-1.65 3.8-3.15.55 2.8 1.75 5.2l-6.85-.55.75-2.3" fill="#3a247c" fill-rule="evenodd" transform="translate(.5 .5)"/><path d="m25.2 46.75.1.3q.55 1.85 2.3 4.9l.6 1 1.65 2.8 1.45 2.1.6.85q.7 1.5-.65 3.4l-5.55 6.05-6.05 5.45-9.05-12.95q-1.4-1.05.1-3.45l1.4-1.3q1-1.35 1.55-3.2v-.1l.65-2.8" fill="none" stroke="#7f461a" stroke-linecap="round" stroke-linejoin="round" stroke-width=".75"/><path d="m15.5 49.55-1.1-.95-1.1-.75-1.15-.7-1.75-.95 2.5-3.7q1.3-5.1 3.15-.85l4.55-.35h.1q1.9-4.15 3.3 0 1.6 2.7 3.7 3.9l-2.5 1.55-2.75 2.05-.55.35q-2.05 1.5-3.8 3.15l-.55-.8-.75-.85-1.3-1.1" fill="none" stroke="#5a2b6c" stroke-linecap="round" stroke-linejoin="round" stroke-width=".75"/><path d="M20.6 46.4q.8-.45 1.75-.85M14 44.8l2.35 1.4" fill="none" stroke="#5a2b6c" stroke-linecap="round" stroke-linejoin="round" stroke-width=".5"/></g><g id="Q"><path d="M27.3 2.4q1.1-1 1.65-2.4 2.85 2.8 3.35 5.75.35 2.6-3.05 5.35 3.3-1.75 7.2-1.2 3.25.3 4.45-1.95.25 3.45-.95 6.2l-1.4.2-7 .85-4-.5q-2.65-.35-2.75-.7-.2-.5 1.3-3.8 1.45-3.25 1.45-5.4l-.1-1.85-.15-.55M4.05 4.7Q6 4.15 7.95 9.05q1.55-.35 5.1-2l1.3-.55-.55 1.3-.75.7-1.6 1.05q-.45.15-.8.45-2.05 1-3.25 3.05-1.2 1.95-1.4 1-.25-1-.45-4.8-.2-2.4-1.5-4.55" fill="#7cbaa7" fill-rule="evenodd" transform="translate(.5 .5)"/><path d="m25.05 3.9 2.25-1.5.15.55.1 1.85q0 2.15-1.45 5.4-1.5 3.3-1.3 3.8.1.35 2.75.7l4 .5 7-.85 1.4-.2q-1.3 2.7-4.05 4.8-5.65 4.2-7.25 9.65-1.65 5.45-9.7 5.45-8.05 0-13.6-5.2Q-.3 23.6 0 16.2.15 8.7 2.75 5.65q.65-.75 1.3-.95 1.3 2.15 1.5 4.55.2 3.8.45 4.8.2.95 1.4-1Q8.6 11 10.65 10q.35-.3.8-.45-1.65 2.3-1.3 4.6.5 2.95 1.05 3.35.55-5.65 7.65-9 4.75-2.1 6.2-4.6" fill="#cef2e2" fill-rule="evenodd" transform="translate(.5 .5)"/><path d="M14.35 6.5q2.65-1.15 5-1.5 3.4-.1 5.7-1.1-1.45 2.5-6.2 4.6-7.1 3.35-7.65 9-.55-.4-1.05-3.35-.35-2.3 1.3-4.6l1.6-1.05.75-.7.55-1.3" fill="#f4fde4" fill-rule="evenodd" transform="translate(.5 .5)"/><path d="m25.05 3.9 2.25-1.5q1.1-1 1.65-2.4 2.85 2.8 3.35 5.75.35 2.6-3.05 5.35 3.3-1.75 7.2-1.2 3.25.3 4.45-1.95.25 3.45-.95 6.2-1.3 2.7-4.05 4.8-5.65 4.2-7.25 9.65-1.65 5.45-9.7 5.45-8.05 0-13.6-5.2Q-.3 23.6 0 16.2.15 8.7 2.75 5.65q.65-.75 1.3-.95Q6 4.15 7.95 9.05q1.55-.35 5.1-2l1.3-.55q2.65-1.15 5-1.5 3.4-.1 5.7-1.1z" fill="none" stroke="#36575d" stroke-linecap="round" stroke-linejoin="round" transform="translate(.5 .5)"/></g><g id="R"><path d="m11.65 36-2.7-.75q-2.7-.75-2.7-1.2l.4-1.6L7 30.8l-1.65-1.3q0-.3.9-1.2.95-.95.95-1.6 0-.6-.65-1.55-.65-.9-.65-1.65 0-1.85 2.2-3.15 1.3-.75 3.7-1.75l-.35-1.3v-1.5h3.8l.15 2.05q-1.65 0-2.3-.55v2.2q-2.1-.1-3.95 1.3-1.95 1.4-1.95 3.15l1 1.75q.95 1.4.85 1.85l-.75.85q-.75.35-1.1.75l.8.45.1.65-.35 1.1-.4 1.1 1.85 1.3 3.8 2.4-.15.2-1.2-.35" fill="#304f56" fill-rule="evenodd" transform="translate(.65 .65)"/><path d="M11.35 49.5q-2.95-.65-4.25-1.85-2.5-2.4-4.75-7.05Q.15 36 .05 30.15q-.2-5.9.65-8.4.55 2.65 2.8 4.05 1.3-6.2 5.35-11.3 3.8-5.8 5.75-11.65l2.4 2.3 1-1.1 2.25 6.85q1.35 4.65 1.35 8.7 0 3.7-1.3 5.65l-.7 1.1q0-2.3-1.7-5.9-1.65-3.7-1.65-6.15 0-1.2.75-4.8-1.85 1.85-1.85 5.4l.1.9h-3.8v1.5l.35 1.3q-2.4 1-3.7 1.75-2.2 1.3-2.2 3.15 0 .75.65 1.65.65.95.65 1.55 0 .65-.95 1.6-.9.9-.9 1.2L7 30.8l-.35 1.65-.4 1.6q0 .45 2.7 1.2l2.7.75q.35.55.9.45.1-.1.3-.1l.8.2q6.1 7.5-2.3 12.95" fill="#fff" fill-rule="evenodd" transform="translate(.65 .65)"/><path d="m15.25 15.8-.1-.9q0-3.55 1.85-5.4-.75 3.6-.75 4.8 0 2.45 1.65 6.15 1.7 3.6 1.7 5.9 0 1.6-1.2 3.45l.45-.6-.55.85-.3.3-2.2 2.3.1-.1.15-.45.75-.95v-.1l.1-.05q.65-1.2.95-2.6l.05-.85v-.25q.1-2.45-1.3-5.4-.65-1.45-1-3.15l-.2-.9-.15-2.05" fill="#365c74" fill-rule="evenodd" transform="translate(.65 .65)"/><path d="M15.6 18.75q.35 1.7 1 3.15 1.4 2.95 1.3 5.4v.25l-.05.85q-.3 1.4-.95 2.6l-.1.15q-.85 1.15-2.5 1.3h-.65q-.8 0-1.85-.55-1.3-.65-1.3-1.55 0-.95.85-1.7l1.95-1.55v-1.3q-3.9 0-3.9-1.4 0-2.1 2.85-4.05 2.05-1.4 3.35-1.6" fill="#cef2e2" fill-rule="evenodd" transform="translate(.65 .65)"/><path d="M18 4.05Q19.3 2.3 20.25 0q1 10.55 7.65 16.1 6.65 5.55 6.4 12.2-.35 6.65-4.9 14.35-4.65 7.65-12.2 7.5l-5.85-.65q8.4-5.45 2.3-12.95l-.45-.3-.2-.1-3.8-2.4-1.85-1.3.4-1.1.35-1.1-.1-.65-.8-.45q.35-.4 1.1-.75l.75-.85q.1-.45-.85-1.85l-1-1.75q0-1.75 1.95-3.15 1.85-1.4 3.95-1.3v-2.2q.65.55 2.3.55l.2.9q-1.3.2-3.35 1.6Q9.4 22.3 9.4 24.4q0 1.4 3.9 1.4v1.3l-1.95 1.55q-.85.75-.85 1.7 0 .9 1.3 1.55 1.05.55 1.85.55h.65q1.65-.15 2.5-1.3l-.75.95-.25.35.1.1-.1.1 2.2-2.3.3-.3.55-.85-.45.6q1.2-1.85 1.2-3.45l.7-1.1q1.3-1.95 1.3-5.65 0-4.05-1.35-8.7L18 4.05" fill="#7bb8a7" fill-rule="evenodd" transform="translate(.65 .65)"/><path d="M12 50.15q-2.95-.65-4.25-1.85-2.5-2.4-4.75-7.05Q.8 36.65.7 30.8q-.2-5.9.65-8.4.55 2.65 2.8 4.05 1.3-6.2 5.35-11.3 3.8-5.8 5.75-11.65l2.4 2.3 1-1.1q1.3-1.75 2.25-4.05 1 10.55 7.65 16.1 6.65 5.55 6.4 12.2-.35 6.65-4.9 14.35-4.65 7.65-12.2 7.5L12 50.15z" fill="none" stroke="#41637b" stroke-linecap="round" stroke-linejoin="round" stroke-width="1.3"/></g><g id="S"><path d="M2.2 39.95h1.1q5.85 0 10.25-4.5 4.2.45 7.25-.1v.55q.8 2.1 2.6 3.5l1.2.85v.1l.9.45 1.3.75 1.5.75.25.45q.1.15.3.15l.15.1h-.15q2.5 1.4 5.45.85.9-1.1 1.3-2.4l.1-.45q.25-1.3 3.7 2.85 3.3-3.7 2-7.05l3.8 2.25Q45.85 28.4 42 24.9l1.45-.65q-1.55-4.55-5-5.4l2.9-1.85q-5-1.85-9.35-.15 2.2-4.75 5.8-7.9-5.9 3.45-8.6 9-1.65 3.15-2.2 7-.55 5.3-5 7.8 1.45-1.95 2.5-5.55 2-7.6 2.6-8.7l5.35-7.05q4.6-6.1 4.6-8.3l-.35-1.4L38.75 0l-.45 5L44 1.4q-.55 8.4 2.7 14.15 3.15 5.7 3.5 16.8.3 11.05-8.2 18.05-8.65 6.95-18.9 5-10.35-2-12.75-3.85-2.4-1.95-8.15-11.6" fill="#80adbc" fill-rule="evenodd" transform="translate(.65 .65)"/><path d="m2.2 39.95-.55-1Q-4 27 9.7 18.15q4.5-3 11.75-6.3 7-3.35 10.65-6.3l4.6-3.8.35 1.4q0 2.2-4.6 8.3L27.1 18.5q-.6 1.1-2.6 8.7-1.05 3.6-2.5 5.55-3.05 1.65-7.85 2.1l-3.35.1 2.75.5q-4.4 4.5-10.25 4.5H2.2" fill="#fff" fill-rule="evenodd" transform="translate(.65 .65)"/><path d="m13.55 35.45-2.75-.5 3.35-.1q4.8-.45 7.85-2.1 4.45-2.5 5-7.8.55-3.85 2.2-7 2.7-5.55 8.6-9-3.6 3.15-5.8 7.9l-1.2 2.85q-1.15 3.05-1.7 6.75-1.2 7.4-8.3 8.9-3.05.55-7.25.1" fill="#3f627a" fill-rule="evenodd" transform="translate(.65 .65)"/><path d="m36.5 19.7 4.9 2.85q-1.85 0-2.1.95 3.7 3.3 4.45 13.15-1.15-1.3-4.35-1.15.9 2.25-.4 5.55-2.1-2.55-3.85-1.75Q34 36.15 33 35.15q2.8 1.3 4.25 2.8v.15l.2-.1q.65-.7.35-2.75Q37.45 33 36.35 32l2 .45 2.25.65v-.9q-1.4-6.5-2.95-8.7.9-.45.9-.95 0-.45-1.2-1t-1.2-1.1q0-.45.35-.75m-5.7 0q3.95-2.85 8.3-2.5l-1.3 1.2q-3.85-.85-4.7 2.05-3.35 13.5-8.5 19.8l-1.2-.85q-1.8-1.4-2.6-3.5v-.55q7.1-1.5 8.3-8.9.55-3.7 1.7-6.75" fill="#7bb9a7" fill-rule="evenodd" transform="translate(.65 .65)"/><path d="m35.15 39.3-.2.1q-1.85 1-1.4 3.15l-4.25.3-.65-.4-.35-.15-1.5-.75-1.3-.75-.9-.55q5.15-6.3 8.5-19.8.85-2.9 4.7-2.05l-.75.75-.65.45.1.1q-.35.3-.35.75 0 .55 1.2 1.1t1.2 1q0 .5-.9.95 1.55 2.2 2.95 8.7v.9l-2.25-.65-2-.45q1.1 1 1.45 3.25.3 2.05-.35 2.75l-.2-.05q-1.45-1.5-4.25-2.8 1 1 2.15 4.15" fill="#cef2e2" fill-rule="evenodd" transform="translate(.65 .65)"/><path d="m36.5 19.7.55-.55.75-.75 1.3-1.2q-4.35-.35-8.3 2.5l1.2-2.85q4.35-1.7 9.35.15l-2.9 1.85q3.45.85 5 5.4L42 24.9q3.85 3.5 3.2 14.15l-3.8-2.25q1.3 3.35-2 7.05-3.45-4.15-3.7-2.85l-.1.05v.4q-.4 1.3-1.3 2.4-2.95.55-5.45-.85H29l.3-.15 4.25-.3q-.45-2.15 1.4-3.15l.2-.1q1.75-.8 3.85 1.75 1.3-3.3.4-5.55 3.2-.15 4.35 1.15Q43 26.8 39.3 23.5q.25-.95 2.1-.95l-4.9-2.85" fill="#304f56" fill-rule="evenodd" transform="translate(.65 .65)"/><path d="m37.35 2.4-4.6 3.8Q29.1 9.15 22.1 12.5q-7.25 3.3-11.75 6.3-13.7 8.85-8.05 20.8l.55 1Q8.6 50.25 11 52.2q2.4 1.85 12.75 3.85 10.25 1.95 18.9-5 8.5-7 8.2-18.05-.35-11.1-3.5-16.8-3.25-5.75-2.7-14.15l-5.7 3.6.45-5-2.05 1.75z" fill="none" stroke="#41637b" stroke-linecap="round" stroke-linejoin="round" stroke-width="1.3"/></g><g id="T"><path d="m23.55 16.3.3 4.1-.3-4.1M39.95 0Q28.85 24.55 28.1 30.9l-.2 1.15-1-1.15q-2.3-3.05-3.05-10.5-.75 6-.55 10.5l.2 3.8q-2.7-1.2-4.45-3.8-1.3-1.9-2.15-4.6l1.95 11.65Q14.6 35 11.15 30.9 8.2 27.4 6 23.15 1 13.8.35 6.7L0 1.05Q8.65-20.25 39.95 0" fill="#4d8c8f" fill-rule="evenodd" transform="translate(.5 9.85)"/><path d="m23.85 20.4-.3-4.1M39.95 0Q28.85 24.55 28.1 30.9l-.2 1.15-1-1.15q-2.3-3.05-3.05-10.5-.75 6-.55 10.5l.2 3.8q-2.7-1.2-4.45-3.8-1.3-1.9-2.15-4.6l1.95 11.65Q14.6 35 11.15 30.9 8.2 27.4 6 23.15 1 13.8.35 6.7L0 1.05" fill="none" stroke="#36565d" stroke-linecap="round" stroke-linejoin="round" transform="translate(.5 9.85)"/></g><g id="U"><path d="m22.35 76.15-.15-.1-7.5-2-2.7-.95q2.95-2.2 3.7-5.85-4.15 3.05-7.75 3.7L6 69.3 5 68q2.2-.65 3.85-2.3l-5.15-.2q-1.85-4.8-2.5-13.6Q.25 38.6 0 30.05q-.1-2.75.7-5.55Q.9 36 7.75 45.25q4.35-.85 4.1-12.75 2.4 13.6 8.2 13.75Q15.6 19.6 29.6.65l.9-.2L36.9 0q4.65 37.4 10.75 41.75 1.75-.85 2.1-5 9.75 10.55 2.9 24.5l-3.7 4.65-5.1.45 4.25.35q-2.8 2.8-5.35 4.1l-2.35-1.2 1.3 1.65-1.2.35q-11.45 3.9-18.15 4.55m-.6-41.9 4.4 2.75q1.95 1.2 1.3 4.65-.35 1.4-1.2 2.4l1.85-1.6q.85-.9 1.2-2 1.6-4.35-2.95-6.95-4.55-2.6-4.25-6.4.1-3.4 2.2-6.95-4.15 2.8-4.6 7.45-.45 4.95 2.05 6.65m-.1 32.35q-.55-.9-2.8-1.9 2.25 1 2.8 1.9" fill="#fff3e5" fill-rule="evenodd" transform="translate(.5 .5)"/><path d="M65.75 57.35q-1.55 3.9-3.95 6.4l-.55.55q-6.6 2.5-13.15 2.4l-4.25-.35 5.1-.45q8.1-1.7 16.8-8.55M49.4 72.55l-2.4.85-2.25.45-3.05-2.6-1.3-1.65 2.35 1.2q3.15 1.45 6.65 1.75M12 73.1q-2.5-1-4.05-2.15 3.6-.65 7.75-3.7-.75 3.65-3.7 5.85M5 68l-1.3-2.5 5.15.2Q7.2 67.35 5 68" fill="#ba3238" fill-rule="evenodd" transform="translate(.5 .5)"/><path d="M21.75 34.25q-2.5-1.7-2.05-6.65.45-4.65 4.6-7.45-2.1 3.55-2.2 6.95-.3 3.8 4.25 6.4 4.55 2.6 2.95 6.95-.35 1.1-1.2 2l-1.85 1.6q.85-1 1.2-2.4.65-3.45-1.3-4.65l-4.4-2.75" fill="#bc353b" fill-rule="evenodd" transform="translate(.5 .5)"/><path d="M36.9 0q10.9.2 19.35 8.7 10.8 10.75 11.65 29.4.55 12.05-2.15 19.25-8.7 6.85-16.8 8.55l3.7-4.65q6.85-13.95-2.9-24.5-.35 4.15-2.1 5Q41.55 37.4 36.9 0m24.35 64.3q-4.9 4.9-11.65 8.15l-.2.1q-3.5-.3-6.65-1.75 2.55-1.3 5.35-4.1 6.55.1 13.15-2.4m-16.5 9.55-11.35 2.2q-6.75 1.4-11.05.1 6.7-.65 18.15-4.55l1.2-.35 3.05 2.6M.7 24.5q1.6-5.9 6.85-12.1Q15.15 3.5 29.6.65q-14 18.95-9.55 45.6-5.8-.15-8.2-13.75.25 11.9-4.1 12.75Q.9 36 .7 24.5" fill="#f3bba6" fill-rule="evenodd" transform="translate(.5 .5)"/><path d="M36.9 0q10.9.2 19.35 8.7 10.8 10.75 11.65 29.4.55 12.05-2.15 19.25-1.55 3.9-3.95 6.4l-.55.55q-4.9 4.9-11.65 8.15m-.2.1-2.4.85-2.25.45-11.35 2.2q-6.75 1.4-11.05.1l-.15-.1-7.5-2-2.7-.95q-2.5-1-4.05-2.15L6 69.3 5 68l-1.3-2.5q-1.85-4.8-2.5-13.6Q.25 38.6 0 30.05q-.1-2.75.7-5.55 1.6-5.9 6.85-12.1Q15.15 3.5 29.6.65l.9-.2L36.9 0" fill="none" stroke="#bb7c71" stroke-linecap="round" stroke-linejoin="round" transform="translate(.5 .5)"/><path d="M19.35 65.2q2.25 1 2.8 1.9" fill="none" stroke="#bb7c71" stroke-linecap="round" stroke-linejoin="round" stroke-width=".5"/></g><g id="t"><path d="m33.85 83.65.2.8q1 5.2 2.4 10.45-2.3-.7-4-3.05-.55-1.55-1-3.7l-.55-2.1-.1-.65q1.4-1.3 3.05-1.75m2.25 1.55.35-.1q.55 0 .9.4.5.45.5 1.1 0 .65-.5 1l-.15.3-.75.2q-.55 0-1-.5l-.2-.25-.2-.95.4-.9q.25-.2.65-.3" fill="#fff" fill-rule="evenodd" transform="translate(-26.85 -70.7)"/><path d="m29.7 78.65-.85-.55q-2.2-2.6-1.95-5 .65 2.2 3.65 3.3l5.05.85q3.05.2 5.3 1 3.3 1.2 4.8 4-1.2-.85-2.75-1.5.9 1.5 1.45 3.35l.1.35-.65.1-.9-1.65q-1.4-1.75-3.9-1.4-.55-.1-.3 5.95-1.45-1.95-2.3-5.75-1.95-1.2-1.75 1.85v.35h-.1q-.35.2-.55.55l-.2-.8-.9-5.3-2.15-.25q-.45-.2-1 .35l-.1.2" fill="#130001" fill-rule="evenodd" transform="translate(-26.85 -70.7)"/><path d="m37.2 87.9.9.25q1.5 0 1.95-.7L41 85.1l.45-.35 2.4-.1q.35 1.3.35 2.95-.05 3-1.45 5.1-1.4 2.05-3.35 2.05-1.95 0-2.75-1.85-.65-1.5-1.4-5.55l.2.25q.45.5 1 .5l.75-.2m-1.1-2.7q-.4.1-.65.3l-.4.9-.1-.75-.25-1.75.35-.15q.55 0 1.05 1.45m6.2 2.9-.2.45.2.45.35.2.35-.2.2-.45-.2-.45-.35-.2-.35.2m-.95 1.1q-.45-.3-.85 0-.35.15-.55.8.1.75.65 1.3l1.05.65q.35.2.7 0l.3-.9q.1-.65-.2-1.2-.35-.5-1.1-.65" fill="#f5402c" fill-rule="evenodd" transform="translate(-26.85 -70.7)"/><path d="M34.7 83.9v-.35q-.2-3.05 1.75-1.85.85 3.8 2.3 5.75-.25-6.05.3-5.95 2.5-.35 3.9 1.4l.9 1.65v.1l-2.4.1-.45.35-.95 2.35q-.45.7-1.95.7l-.9-.25.15-.3q.5-.35.5-1t-.5-1.1q-.35-.4-.9-.4l-.35.1q-.5-1.45-1.05-1.45l-.35.15" fill="#530202" fill-rule="evenodd" transform="translate(-26.85 -70.7)"/><path d="M34.05 84.45q.2-.35.55-.55h.1l.25 1.75.1.75v.2l.2.75q.75 4.05 1.4 5.55.8 1.85 2.75 1.85t3.35-2.05q1.4-2.1 1.45-5.1 0-1.65-.35-2.95v-.1l.65-.1q1 4.1-.45 7.5-1.5 3.6-5.55 3.9-4.1.2-5.3-2.15l-.75-1.85q1.7 2.35 4 3.05-1.4-5.25-2.4-10.45" fill="#710012" fill-rule="evenodd" transform="translate(-26.85 -70.7)"/><path d="m29.7 78.65.1-.2q.55-.55 1-.35l2.15.25.9 5.3q-1.65.45-3.05 1.75-1.1-4.55-1.1-6.75" fill="#8f93ae" fill-rule="evenodd" transform="translate(-26.85 -70.7)"/><path d="M41.35 89.2q.75.15 1.1.65.3.55.2 1.2l-.3.9q-.35.2-.7 0l-1.05-.65q-.55-.55-.65-1.3.2-.65.55-.8.4-.3.85 0m.95-1.1.35-.2.35.2.2.45-.2.45-.35.2-.35-.2-.2-.45.2-.45" fill="#fed353" fill-rule="evenodd" transform="translate(-26.85 -70.7)"/><path d="m59.1 81.6-1.1.45q.75-1.45 2.05-2.6 4.55-4.35 15.15-3.5 4.65.3 8-.2 6.25-1 7.95-5.05-.2 4.15-4.45 8.2-1.3 1.6-1.75.4l-.55-.5-1.2-.25-4.65-.1q1.5 1.4 2.3 3.35l.1.35-.9.2-.75-1.2q-1.75-2.15-5-2.25-3.25-.15-4.1 7.4-2.3-2.75-1.45-6.45-1.95-.45-2.8.45-.7.95-.35 4.8l-.1.75v.3l-.55.15q-.65-3.15-.35-6.55-3.15.75-5.5 1.85" fill="#190001" fill-rule="evenodd" transform="translate(-26.85 -70.7)"/><path d="M84.4 78.8q.45 1.95.45 4.35v.2l-4-1.55q-.8-1.95-2.3-3.35l4.65.1 1.2.25" fill="#8d91ac" fill-rule="evenodd" transform="translate(-26.85 -70.7)"/><path d="m84.85 83.35-.3 2.25q-1.3 2.1-2.85 3.4.25-4.05-.75-6.85l-.1-.35 4 1.55M62.1 91.5l-1.2-1.55q-1.95-2.9-2.05-6.15 0-1.2.25-2.2 2.35-1.1 5.5-1.85-.3 3.4.35 6.55.75 3.8 2.95 7.05-3.3-.45-5.8-1.85m3.5-6.4.45-.8q.55-.55 1.4-.55.85 0 1.3.55.55.65.55 1.55 0 .95-.55 1.5l-.45.45-.85.2q-.85 0-1.4-.65l-.2-.2-.15-1.65-.1-.4" fill="#fff" fill-rule="evenodd" transform="translate(-26.85 -70.7)"/><path d="M84.55 85.6q-.65 4.05-3.5 6.25-3.05 2.35-7.75 2.8l-1.95.2q-6.2.05-9.25-3.35 2.5 1.4 5.8 1.85-2.2-3.25-2.95-7.05l.55-.15.35 1q.6 3.05 2.45 5.2 1.75 2.1 5.05 1.75 3.35-.4 5.3-1.85 1.95-1.5 2.2-5.2.1-2.85-.8-4.7l.9-.2q1 2.8.75 6.85 1.55-1.3 2.85-3.4" fill="url(#A)" fill-rule="evenodd" transform="translate(-26.85 -70.7)"/><path d="M68.3 87.8q4.4 3.05 5.7-4.45 2.9-1.3 6.05-1 .9 1.85.8 4.7-.25 3.7-2.2 5.2-1.95 1.45-5.3 1.85-3.3.35-5.05-1.75-1.85-2.15-2.45-5.2l.2.2q.55.65 1.4.65l.85-.2m10.6.35q-.05-.45-.55-.65h-.45q-.3.1-.45.5l.1.75.55.6h.65l.25-.45-.1-.75m-2.75.2-1.3.1q-.55.35-.75 1.1-.1.65.4 1.4.45.75 1 .9l1.4-.05q.65-.4.65-1.15.15-.65-.3-1.35-.45-.75-1.1-.95" fill="#f64e31" fill-rule="evenodd" transform="translate(-26.85 -70.7)"/><path d="M65.6 85.1q-.35-3.85.35-4.8.85-.9 2.8-.45-.85 3.7 1.45 6.45.85-7.55 4.1-7.4 3.25.1 5 2.25l.75 1.2q-3.15-.3-6.05 1-1.3 7.5-5.7 4.45l.45-.45q.55-.55.55-1.5 0-.9-.55-1.55-.45-.55-1.3-.55-.85 0-1.4.55l-.45.8" fill="#630102" fill-rule="evenodd" transform="translate(-26.85 -70.7)"/><path d="M76.15 88.35q.65.2 1.1.95.45.7.3 1.35 0 .75-.65 1.15l-1.4.05q-.55-.15-1-.9-.5-.75-.4-1.4.2-.75.75-1.1l1.3-.1m2.75-.2.1.75-.25.45h-.65l-.55-.6-.1-.75q.15-.4.45-.5h.45q.5.2.55.65" fill="#fed958" fill-rule="evenodd" transform="translate(-26.85 -70.7)"/><path d="m29.4 29.2 2.4.6" fill="none" stroke="#bb7c71" stroke-linecap="round" stroke-linejoin="round" stroke-width=".5"/><path d="M73.85 74q-8.8-.55-11.2-.1l-5.3 1.2Q64 70.95 73.85 74" fill="url(#B)" fill-rule="evenodd" transform="translate(-26.85 -70.7)"/><path d="M45.35 77.7q-4.55-2.2-6.95-2.75l-7.8-.85q9.85-1.3 14.75 3.6" fill="url(#C)" fill-rule="evenodd" transform="translate(-26.85 -70.7)"/></g><g id="V"><path d="m51 .5.6-.1 4.35-.4q.45 5.15-.1 11l-6.25.05 3.8-4.35q-4.9.8-7.7 3.85l-9.35-.9q2.15-2.05 6.75-2.8l.75.3q1.65.65 2.95 1.75-2.6-5.75-13.4-2.7Q41.1 2.05 51 .5m5.15 14.9q.1 3.85-1.5 7.8l-.35.5q-.65-4.7-3.7-7-1.1 1.1-1.95 2.4l-.55.8q-7.95 3.35-6.75 22.6-6-11.4-2.5-27.3-3.95 8.4-3.8 27.4-2.6-6.4-2.05-19.9l-8.6 31.35-1.85-2.1-.25-5q.45 2.4.75 2.1l.15-.65q-.45-13.85 6.7-29.8-8.65 14.75-8.55 28.5-4.9-7.95 1.05-27.35Q14.35 34.9 6.3 38.5q-2.15-.45-3.9-1.95 6-1.2 11.3-7.65 10.65-13.05 17.4-16.75Q35.8 15.1 43 14.9l-.05 7.05q.7-4.05 3.3-7.05l9.9.5" fill="#cef2e2" fill-rule="evenodd" transform="translate(.5)"/><path d="M29.4 8.65q1.4-1.05 2.8-1.8l1.2-.65q10.8-3.05 13.4 2.7-1.3-1.1-2.95-1.75l-.75-.3q-5.45-1.75-13.7 1.8" fill="#31545a" fill-rule="evenodd" transform="translate(.5)"/><path d="m55.85 11 .3 4.4-9.9-.5q-2.6 3-3.3 7.05L43 14.9q-7.2.2-11.9-2.75-6.75 3.7-17.4 16.75-5.3 6.45-11.3 7.65L0 33.9q7 4.35 14.45-9l3.1-4.5q5.2-7.35 11.85-11.75 8.25-3.55 13.7-1.8-4.6.75-6.75 2.8l9.35.9q2.8-3.05 7.7-3.85l-3.8 4.35 6.25-.05" fill="#f4fde4" fill-rule="evenodd" transform="translate(.5)"/><path d="M48.1 19.9q-6.75 10.55-1.55 32.5Q41 47.95 38.5 41.55 36.1 45 36.65 51 34.3 49.25 33 46.55l-.35-.75q-1.4-3.6-1.2-8.6-.2 5 1.2 8.6-4.35 7.6-5.45 19.35L22.75 53.5l-.2-1.55.2 1.55-.2-.35.25.95.15.6q2.4 11.55 7 19.7l.2 2.05q-2.7-1-11.55-17.5l-.1-.8v-.4q-.55-6.35-.2-9.15-1.45.1-1.65 3.25-.3 11.45 1.4 21.35h-.2q-4.05-8.05-4.35-16-3.8 3.05-7.7 2.5 5.55-3.8 4.85-9.15-.75-6.85 1.2-12.4l-5.55.35q8.05-3.6 16.1-18.75-5.95 19.4-1.05 27.35v1.4q0 .4.3.65.25.2.65-2.2l.25 5 1.85 2.1L33 22.7q-.55 13.5 2.05 19.9-.15-19 3.8-27.4-3.5 15.9 2.5 27.3-1.2-19.25 6.75-22.6M36.45 32.2q.3 5.1 2.05 9.35-1.75-4.25-2.05-9.35m-17.2 16.7-.95-.3.95.3m-5.75 8.3q-.1-2.6.2-5.2-.3 2.6-.2 5.2" fill="#7cbaa7" fill-rule="evenodd" transform="translate(.5)"/><path d="M33 46.55Q28.6 60.9 30.35 73.1q-.4.65-.4 1.3-4.6-8.15-7-19.7l-.15-.6-.25-.95.2.35 4.45 11.65q1.1-11.75 5.45-19.35l.35.75m-14.4 12.4q.35 2.8 1.4 5.95l-1.95 8.3q-1.7-9.9-1.4-21.35.2-3.15 1.65-3.25-.35 2.8.2 9.15-.2.65.1 1.2m4.15-5.45.05.6-.05-.6" fill="#4d8c8f" fill-rule="evenodd" transform="translate(.5)"/><path d="M22.3 46.95q-.4 2.4-.65 2.2-.3-.25-.3-.65v-1.4q-.1-13.75 8.55-28.5-7.15 15.95-6.7 29.8l-.15.65q-.3.3-.75-2.1" fill="#36575d" fill-rule="evenodd" transform="translate(.5)"/><path d="m54.65 23.2-.35.5q-.65-4.7-3.7-7-1.1 1.1-1.95 2.4m-.55.8q-6.75 10.55-1.55 32.5Q41 47.95 38.5 41.55 36.1 45 36.65 51 34.3 49.25 33 46.55 28.6 60.9 30.35 73.1l.35 2.5-.75-1.2q-4.6-8.15-7-19.7l-.15-.6-.05-.6-.2-1.55-.25-5m-3.7 12q.35 2.8 1.4 5.95l-1.95 8.3-.1.2-.1-.2q-4.05-8.05-4.35-16-3.8 3.05-7.7 2.5 5.55-3.8 4.85-9.15-.75-6.85 1.2-12.4l-5.55.35q-2.15-.45-3.9-1.95L0 33.9q7 4.35 14.45-9l3.1-4.5q5.2-7.35 11.85-11.75 1.4-1.05 2.8-1.8l1.2-.65Q41.1 2.05 51 .5M38.5 41.55q-1.75-4.25-2.05-9.35m-5 5q-.2 5 1.2 8.6M13.7 52q-.3 2.6-.2 5.2m5.1 1.75-.1-.8v-.4q-.55-6.35-.2-9.15m4.25 4.55.25.95" fill="none" stroke="#36575d" stroke-linecap="round" stroke-linejoin="round" transform="translate(.5)"/><path d="m18.8 48.6.95.3" fill="none" stroke="#000" stroke-linecap="round" stroke-linejoin="round" stroke-width=".05"/></g><g id="W"><path d="m41.5 11.15-1.4.1 1.55 1.2q3.7 2.7 6.85 6.2l.1.1.1.1.05.05v.05l.95 1.45q4.75 6.95 10.1 18.3l3.05 2.5Q66 53.9 59.8 64.25l-.2-9.5-.15-10.1Q57.3 64.15 40.1 78.3q2.4-5.8 3.25-11.65 5.15-9.25 4.8-21.8l-.1-1.85.2 2.95q1.3-21.2-14.1-39.05l5 2.75q.1.5.55.5h.1q.85.45 1.7 1m7.3 7.75.1.1v.1l-.1-.2m5.45 5.55-.95-1.75q-1.75-3.05-4.05-5.9l-.35-.4 1.35 1.5 1.05 1.6 3.4 1.9q-2.65-5.55-8.2-10.6 2.55.65 4.95 2 6.6 7.25 9.85 14.35Q64.8 35 72 40.1q-10.65.75-14.8-10.25l-.75-1.6-2.2-3.8M22.6 36.2q-3.15 6.15-1.95 11.85l-.35-.15q-4.35-10.1-6.5-20.85l-1-6.45q4.05 8.05 19.7 14.9-2.3-11.85-9.35-18.9Q38.5 26.05 46.2 51.05q-4.35 12.1-11.2 19.4 1.6-7.3.35-18.5 2.5 3.8 3 5.95 1.75-9.2-2.15-22.4 2.15 10.55 1.6 15.9-1.95-3.35-4.2-6.1-2.3-2.9-4.9-5.3L14 26.95l8.6 9.25" fill="#7cbaa7" fill-rule="evenodd" transform="translate(1.5)"/><path d="m48.9 16.4-.1-.05q-2.8-3.05-6-5.4l-.65-.15q-.5.05-.65.35-.85-.55-1.7-1 3.55-.2 6.7.65 5.55 5.05 8.2 10.6l-3.4-1.9-1.05-1.6-1.35-1.5M77.4 39q-2.9.85-5.4 1.1-7.2-5.1-10.7-12.95-3.25-7.1-9.85-14.35 6.8 3.8 11.95 12.8 4.75 11.2 14 13.4" fill="#cff3e3" fill-rule="evenodd" transform="translate(1.5)"/><path d="M41.5 11.15q.15-.3.65-.35l.65.15q3.2 2.35 6 5.4l.1.05.35.4q2.3 2.85 4.05 5.9l.95 1.75.75 1.4-.95-1.2-.1-.2-.7-.9-2.4-2.5L48.9 19l-.1-.1h-.05l-.05-.05-.1-.1-.1-.1q-3.15-3.5-6.85-6.2l-1.55-1.2 1.4-.1" fill="#36575d" fill-rule="evenodd" transform="translate(1.5)"/><path d="m48.9 19 1.95 2.05 2.4 2.5.7.9.1.2.95 1.2-.75-1.4 2.2 3.8.75 1.6q4.15 11 14.8 10.25 2.5-.25 5.4-1.1l1.35.3q-4.7 5.7-10.35 4.6-2.7-.65-5.55-2.7 2.85 2.05 5.55 2.7l.2 1.5q.45 9.15-3.35 18.7-3.9 9.5-11.2 17.3 1.3-3.55-.15-13-9 16.85-23.35 20.4 3.15-4.35 4.8-12.6-3.05 2.6-6.75 4.7 1.95-5.9 3.15-11 3.15-12.85 2.15-20.05l.45.6 1 1.5q1.25 11.2-.35 18.5 6.85-7.3 11.2-19.4l1.95-6.2q.35 12.55-4.8 21.8-.85 5.85-3.25 11.65 17.2-14.15 19.35-33.65l.15 10.1.2 9.5Q66 53.9 62.85 41.2l-3.05-2.5q-5.35-11.35-10.1-18.3l-.95-1.45.15.15V19M35.35 76.2q4.95-4.25 8-9.55-3.05 5.3-8 9.55M59.6 54.75q-2.5 7.65-5.7 13.65 3.2-6 5.7-13.65" fill="#4d8c8f" fill-rule="evenodd" transform="translate(1.5)"/><path d="M34.15 6.9q15.4 17.85 14.1 39.05l-.2-2.95.1 1.85-1.95 6.2q-7.7-25-23.05-34.45 7.05 7.05 9.35 18.9-15.65-6.85-19.7-14.9l1 6.45q2.15 10.75 6.5 20.85Q8.55 39.2 8.15 16.4q-4.65 2.95-6.1 4.35-1.45 1.4-2.4 3l-.75-8 2 .05q11.5.15 23.1-2.5 8.3-.2 16 7.4Q34.75 9.1 18.05 4.75l-4.8-1.1 7.05 5.1Q16.1 11.4.9 11.45l-2.2-.1-.2-10.9L.65.25l.1.8.15.85q.45 2.15.9 2.5Q2.05 2 3.45.05q7.75-.4 15.35 1.4h.2l2.4.65v.25h.95v-.1q6 1.7 11.8 4.65" fill="#cef2e2" fill-rule="evenodd" transform="translate(1.5)"/><path d="M33.9 49.85Q30 44.35 22.6 36.2L14 26.95 28.7 40q2.6 2.4 4.9 5.3 2.25 2.75 4.2 6.1.55-5.35-1.6-15.9 3.9 13.2 2.15 22.4-.5-2.15-3-5.95l-1-1.5-.45-.6" fill="#31545a" fill-rule="evenodd" transform="translate(1.5)"/><path d="m-1.1 15.75-.2-4.4 2.2.1q15.2-.05 19.4-2.7l-7.05-5.1 4.8 1.1Q34.75 9.1 40 20.7q-7.7-7.6-16-7.4Q12.4 15.95.9 15.8l-2-.05M.65.25H.9l2.55-.2Q2.05 2 1.8 4.4q-.45-.35-.9-2.5l-.15-.85-.1-.8" fill="#f4fde4" fill-rule="evenodd" transform="translate(1.5)"/><path d="M46.5 10.8q-3.15-.85-6.7-.65.85.45 1.7 1M59.8 38.7l3.05 2.5q2.85 2.05 5.55 2.7 5.65 1.1 10.35-4.6L77.4 39q-9.25-2.2-14-13.4-5.15-9-11.95-12.8-2.4-1.35-4.95-2m1.65 34.05q.35 12.55-4.8 21.8-3.05 5.3-8 9.55-3.05 2.6-6.75 4.7 1.95-5.9 3.15-11 3.15-12.85 2.15-20.05m34.5-5.95.2 1.5q.45 9.15-3.35 18.7-3.9 9.5-11.2 17.3 1.3-3.55-.15-13-9 16.85-23.35 20.4 3.15-4.35 4.8-12.6m-12.75-40q-3.15 6.15-1.95 11.85l-.35-.15Q8.55 39.2 8.15 16.4q-4.65 2.95-6.1 4.35-1.45 1.4-2.4 3m22.7-21.5q6 1.7 11.8 4.65l5 2.75.55.4.1.1h-.1M53.9 68.4q3.2-6 5.7-13.65" fill="none" stroke="#36575d" stroke-linecap="round" stroke-linejoin="round" transform="translate(1.5)"/></g><g id="X"><path d="m4.35 42.55 3.6.2q2.75-.65 3.3-2.4.5-1.85.6-5.95 0-3.95.55-8.4l1-7.75q.35-3.35 1.55-8.7 1.2-5.4-1.65-5.3l-.65.2q-2.1 1.75-4.05 4.9-.2-1 .45-2.85.55-1.85 2.6-3.25l-3.05-.3-1.6.4q1.05-1.4 2.25-2.4l3.6 2.3q3.95 2.5 6.95 2.4l.1-.1q.55-.25.7-1.65l1.85.25q3 .1 3.9 2.5.95 2.4 1 9.65.1 7.2 1.8 11.9l3.75 10.55q2.05 5.75-2.55 9Q25.7 51 20.5 50.9q-5.05-.65-9.8-3.25-4.05-2.2-6.35-5.1m11.25-23.6q-1.45 6.5-1.65 15.85.3 4.7 1.5 7.5l-.1.1q-.4.15-.4.55-.15.25.1.65.85 1.35 1.85 2.2l.1.1q4.35 2.6 7.4 1 2.9-1.35 2.95-7.75-.25.2-.25.55-1.2 4.35-3.5 5.55-2.25 1-5.55-.95-.85-.6-1.4-1.65l-.2-.2q4.35-4.8-.85-23.5Q17.75 9.7 22.45 6.3q-4.7 3.4-6.85 12.65" fill="#71a0cf" fill-rule="evenodd" transform="translate(.5 .5)"/><path d="m7 3.35 1.6-.4 3.05.3Q9.6 4.65 9.05 6.5 8.4 8.35 8.6 9.35q1.95-3.15 4.05-4.9l.65-.2q2.85-.1 1.65 5.3-1.2 5.35-1.55 8.7l-1 7.75q-.55 4.45-.55 8.4-.1 4.1-.6 5.95-.55 1.75-3.3 2.4l-3.6-.2-.65-.9Q1.3 38.1.45 32.95q-.85-5.2-.1-10.55.65-4.65 1.95-9.45 1-3.8 3.25-7.3Q6 4.7 6.65 3.9L7 3.35" fill="#d0f9f5" fill-rule="evenodd" transform="translate(.5 .5)"/><path d="M20.6 3.9q-.15 1.4-.7 1.65l-.1.1q-3 .1-6.95-2.4L9.25.95l.15-.2q2.15-1.85 6.15.75 2.75 1.75 5.05 2.4" fill="#c7fef5" fill-rule="evenodd" transform="translate(.5 .5)"/><path d="M15.45 42.3q-1.2-2.8-1.5-7.5.2-9.35 1.65-15.85 5.2 18.7.85 23.5-.2-.15-.35-.15h-.65" fill="#723e90" fill-rule="evenodd" transform="translate(.5 .5)"/><path d="m16.45 42.45.2.2q.55 1.05 1.4 1.65 3.3 1.95 5.55.95 2.3-1.2 3.5-5.55 0-.35.25-.55-.05 6.4-2.95 7.75-3.05 1.6-7.4-1l-.1-.1q-1-.85-1.85-2.2-.25-.4-.1-.65 0-.4.4-.55l.1-.1h.65q.15 0 .35.15" fill="#404e76" fill-rule="evenodd" transform="translate(.5 .5)"/><path d="M4.35 42.55q2.3 2.9 6.35 5.1 4.75 2.6 9.8 3.25 5.2.1 9.85-3.15 4.6-3.25 2.55-9L29.15 28.2q-1.7-4.7-1.8-11.9-.05-7.25-1-9.65-.9-2.4-3.9-2.5L20.6 3.9q-2.3-.65-5.05-2.4-4-2.6-6.15-.75l-.15.2q-1.2 1-2.25 2.4l-.35.55q-.65.8-1.1 1.75-2.25 3.5-3.25 7.3Q1 17.75.35 22.4q-.75 5.35.1 10.55.85 5.15 3.25 8.7l.65.9m11.1-.25q-1.2-2.8-1.5-7.5.2-9.35 1.65-15.85Q17.75 9.7 22.45 6.3m-6 36.15q4.35-4.8-.85-23.5" fill="none" stroke="#404e76" stroke-linecap="round" stroke-linejoin="round" transform="translate(.5 .5)"/></g><g id="Y"><path d="m16.1 4.45 1.15.1 2.85-.25 2.8-.75 2.5-.45q1.25-.1 1.35 1.95.1 1.2-.15 2.1l-2.05.65-4.1 1q-4.4 0-4.4-3.15v-1l.05-.2M19 11.4q.35.65 1.1 1.1l2.3.75q1.2.2 2.5.75 1.2.55 1.2 1.3 0 1.1-1.65 1.95-4.6-.3-7.3-1.95-2.5-1.6-2.5-3.35H12.9l3.95-.25 2.05-.3h.1m-7.5 13.45q-1.95 1-4.55 1.2-2.85.15-3.05-1.6-.25-1.85.65-3.3.95-1.25 1.75-1.8l1.2.1.1.55.1.65.2.3 3.6 3.9M7.35 3.35 8 3.1l4.05-3q1.1-.35 1.5.75-.95 2.35-2.15 3.9Q9.85 6.7 8.15 6.7q-.45 0-.8-.4-.4-.35-.4-.8 0-1.05.4-2.15" fill="#fff2e4" fill-rule="evenodd" transform="translate(-.65 .5)"/><path d="m16.1 4.45-.05.2v1q0 3.15 4.4 3.15l4.1-1 2.05-.65-.6 1.1q-.9 1.15-3.6 2.25l-3.4.9h-.1l-2.05.3-3.95.25h1.75q0 1.75 2.5 3.35 2.7 1.65 7.3 1.95l-.85.35q-2.55 1.05-5.7 1.05-2.35 0-4.65-1.05l.4 1.05Q14 20 13.9 21.7q-.1 1.65-2.1 2.95l-.3.2-3.6-3.9-.2-.3-.1-.65-.1-.55-1.2-.1q-2.1-.45-3.85-2.3l-1.3-1.4Q2.25 10 4 6.6l1.1-1.95.75-.85.35-.05 1.15-.4q-.4 1.1-.4 2.15 0 .45.4.8.35.4.8.4 1.7 0 3.25-1.95 1.2-1.55 2.15-3.9.35.75.25 2.35l-.1 1.2 2.4.05M3.55 10.1q5.15 0 7.65-1.65 2.05-1.5 2.5-4.05-.45 2.55-2.5 4.05-2.5 1.65-7.65 1.65m3.7 7.25.25 2.1-.25-2.1M9.3 15.1q.8 1.05 3.05 2.05.15.1.45.2l.45.25-.45-.25q-.3-.1-.45-.2-2.25-1-3.05-2.05m3.4-1.45V10.2v3.45" fill="#f3bba6" fill-rule="evenodd" transform="translate(-.65 .5)"/><path d="M26.6 7.15q.25-.9.15-2.1Q26.65 3 25.4 3.1l-2.5.45-2.8.75-2.85.25-1.15-.1-2.4-.05q-.45 2.55-2.5 4.05-2.5 1.65-7.65 1.65M26.6 7.15l-.6 1.1q-.9 1.15-3.6 2.25l-3.4.9q.35.65 1.1 1.1l2.3.75q1.2.2 2.5.75 1.2.55 1.2 1.3 0 1.1-1.65 1.95l-.85.35q-2.55 1.05-5.7 1.05-2.35 0-4.65-1.05l.4 1.05Q14 20 13.9 21.7q-.1 1.65-2.1 2.95l-.3.2q-1.95 1-4.55 1.2-2.85.15-3.05-1.6-.25-1.85.65-3.3.95-1.25 1.75-1.8-2.1-.45-3.85-2.3l-1.3-1.4M5.85 3.8l.35-.05 1.15-.4M8 3.1l4.05-3q1.1-.35 1.5.75.35.75.25 2.35l-.1 1.2m5.3 7h-.1l-2.05.3-3.95.25m.35 5.65-.45-.25q-.3-.1-.45-.2-2.25-1-3.05-2.05" fill="none" stroke="#b7776f" stroke-linecap="round" stroke-linejoin="round" transform="translate(-.65 .5)"/><path d="m6.85 19.95-.25-2.1m.25 2.1.1.55m5.1-9.8v3.45" fill="none" stroke="#b7776f" stroke-linecap="round" stroke-linejoin="round" stroke-width=".5"/></g><use ffdec:characterId="2" height="49.45" width="49.7" xlink:href="#D" id="c"/><use ffdec:characterId="4" height="68.8" width="34.1" xlink:href="#E" id="d"/><use ffdec:characterId="6" height="18.85" width="15.15" xlink:href="#F" id="e"/><use ffdec:characterId="8" height="21.25" width="20.1" xlink:href="#G" id="f"/><use ffdec:characterId="10" height="93.7" width="102.25" xlink:href="#H" id="g"/><use ffdec:characterId="12" height="52.85" width="69.95" xlink:href="#I" id="h"/><use ffdec:characterId="14" height="16.85" width="17.6" xlink:href="#J" id="i"/><use ffdec:characterId="16" height="60.05" width="34.55" xlink:href="#K" id="j"/><use ffdec:characterId="18" height="62.35" width="55.8" xlink:href="#L" id="y"/><use ffdec:characterId="20" height="24.6" width="29.15" xlink:href="#M" id="z"/><use ffdec:characterId="23" height="19.6" width="19" xlink:href="#N" id="l"/><use ffdec:characterId="25" height="16.1" width="15.8" xlink:href="#O" id="m"/><use ffdec:characterId="27" height="73.95" width="48.4" xlink:href="#P" id="n"/><use ffdec:characterId="29" height="35.05" width="41.95" xlink:href="#Q" id="o"/><use ffdec:characterId="31" height="51.45" width="35.6" xlink:href="#R" id="p"/><use ffdec:characterId="33" height="57.15" width="51.5" xlink:href="#S" id="q"/><use ffdec:characterId="35" height="48.3" width="40.95" xlink:href="#T" id="r"/><use ffdec:characterId="37" height="77.8" width="69" xlink:href="#U" id="s"/><use ffdec:characterId="40" height="76.45" width="56.65" xlink:href="#V" id="u"/><use ffdec:characterId="42" height="89.3" width="80.75" xlink:href="#W" id="v"/><use ffdec:characterId="44" height="51.9" width="34.55" xlink:href="#X" id="w"/><use ffdec:characterId="46" height="27.05" width="26.65" xlink:href="#Y" id="x"/><linearGradient gradientTransform="matrix(.0101 0 0 .0015 64.95 73.45)" gradientUnits="userSpaceOnUse" id="B" spreadMethod="pad" x1="-819.2" x2="819.2"><stop offset=".055" stop-color="#fff3e5"/><stop offset=".541" stop-color="#d4a69b"/><stop offset="1" stop-color="#fff3e5"/></linearGradient><linearGradient gradientTransform="matrix(.009 0 0 .0024 37.95 75.75)" gradientUnits="userSpaceOnUse" id="C" spreadMethod="pad" x1="-819.2" x2="819.2"><stop offset=".055" stop-color="#fff3e5"/><stop offset=".541" stop-color="#d4a69b"/><stop offset="1" stop-color="#fff3e5"/></linearGradient><radialGradient cx="0" cy="0" gradientTransform="matrix(.0149 -.0028 .0049 .0266 73.1 87.35)" gradientUnits="userSpaceOnUse" id="A" r="819.2" spreadMethod="pad"><stop offset=".737" stop-color="#620307"/><stop offset="1" stop-color="#fff"/></radialGradient><path d="M37.95 12.5Q22.2 17.7 0 17.7q-22.2 0-37.9-5.2Q-53.65 7.35-53.65 0q0-7.3 15.75-12.5 15.7-5.15 37.9-5.15t37.95 5.15Q53.65-7.3 53.65 0q0 7.35-15.7 12.5" fill-opacity=".353" fill-rule="evenodd" transform="translate(53.65 17.65)" id="b"/></defs></svg>