<svg xmlns:ffdec="https://www.free-decompiler.com/flash" xmlns:xlink="http://www.w3.org/1999/xlink" ffdec:objectType="frame" height="90" width="90" xmlns="http://www.w3.org/2000/svg"><use ffdec:characterId="20" height="137.3" transform="matrix(.617 0 0 .6166 2.252 4.039)" width="136.9" xlink:href="#a"/><defs><g id="a" transform="translate(-3.65 -6.55)"><use ffdec:characterId="1" height="9.8" transform="matrix(1.1042 0 0 2.0803 57.76 123.407)" width="55.5" xlink:href="#b"/><use ffdec:characterId="3" height="46.55" transform="translate(6.35 63.45) scale(1.0767)" width="62.7" xlink:href="#c"/><use ffdec:characterId="5" height="36.35" transform="translate(47.35 72.55) scale(1.0767)" width="30.05" xlink:href="#d"/><use ffdec:characterId="7" height="26.2" transform="translate(61.3 104.9) scale(1.0767)" width="25.55" xlink:href="#e"/><use ffdec:characterId="9" height="28" transform="translate(76.6 106.1) scale(1.0767)" width="36.95" xlink:href="#f"/><use ffdec:characterId="11" height="47.5" transform="translate(60.6 66.8) scale(1.0767)" width="50.95" xlink:href="#g"/><use ffdec:characterId="17" height="64.95" transform="translate(54.15 7.55) scale(1.0767)" width="75.05" xlink:href="#h"/><use ffdec:characterId="19" height="56.05" transform="translate(98.9 55.7) scale(1.0767)" width="33.15" xlink:href="#i"/></g><g id="j" fill-rule="evenodd"><path d="m46.35 37 15.35 8.7-.55.85-22.05-12-2.3.55L1.45 14.15 0 2.55 11.35 0l31.1 27.45v1.4L62.7 44l-.4.75-21.1-15.3v-1.4L16.6 5.95 11.9 1.7 1.7 4.1l.1.65L2 6.8l.7 6.65 33.7 20.1 1.2-.4 1.2-.45 7.55 4.3" fill="#211f32"/><path d="m43.3 34.1 3.05 2.9-7.55-4.3-1.2.45L5.1 12.6 2 6.8l-.2-2.05L43.3 34.1" fill="#473f6f"/><path d="m2 6.8 3.1 5.8 32.5 20.55-1.2.4-33.7-20.1L2 6.8" fill="#b4f5ee"/><path d="m46.35 37-3.05-2.9L4.95 4.7l6.8-1.15 4.85 2.4 24.6 22.1v1.4l21.1 15.3-.6.95L46.35 37" fill="#61598e"/><path d="m16.6 5.95-4.85-2.4-6.8 1.15L43.3 34.1 1.8 4.75l-.1-.65 10.2-2.4 4.7 4.25" fill="#9785d7"/><path d="m21.85 5.7-3.55 5.05-2.05-3.5 5.6-1.55" fill="#fff"/><path d="m18.3 10.75.4.75 3.65-1.45.7-4.65-1.2.3-5.6 1.55 2.05 3.5m-3.85-4.1 9.6-3.5-.55 8.2-6.1 1.25-2.95-5.95" fill="#645c89"/><path d="m21.85 5.7 1.2-.3-.7 4.65-3.65 1.45-.4-.75 3.55-5.05" fill="#a096d6"/><path d="m11.45 23.8 3.7-3-.7-3.4-3.7-.15.7 6.55m5.7-1.7-6.95 4.95-1-11.75 6.25 1 1.7 5.8" fill="#645c89"/><path d="m14.45 17.4.7 3.4-3.7 3 3-6.4" fill="#a096d6"/><path d="m14.45 17.4-3 6.4-.7-6.55 3.7.15m15.75 3-1.6-2.8 4.45-1.2-2.85 4" fill="#fff"/><path d="m33.05 16.4-4.45 1.2 1.6 2.8.3.6 2.95-1.15.55-3.7-.95.25m-5.95.75 7.7-2.85-.45 6.6-4.85 1-2.4-4.75" fill="#645c89"/><path d="m30.2 20.4 2.85-4 .95-.25-.55 3.7L30.5 21l-.3-.6" fill="#a096d6"/><path d="m28.6 29.1-4.75 3.4-.65-8 4.2.7 1.2 3.9m-3.85 1.15 2.45-2-.45-2.3-2.5-.1.5 4.4" fill="#645c89"/><path d="m26.75 25.95.45 2.3-2.45 2 2-4.3" fill="#a096d6"/><path d="m26.75 25.95-2 4.3-.5-4.4 2.5.1" fill="#fff"/></g><g id="k" fill-rule="evenodd"><path d="m25.05.9 5 1.95V7.2L21.1 21.8h-.05l-.7-.25q-3.4-1.35-5.1-4.2Q19.4 13.7 20.5 7.5L25.05.9M7.15 26.6l2.3 1.6v1.85l-2.6-1.2.3-2.25M4.7 28.1l.8 1.7-2.1.9-1.15-1.4 2.45-1.2m2.8 2 2.65.85.25-2.65 1.05.7q-.55 3.4-3.6 4.15L6.2 32.1l1.3-2m4.35 0 .15-.65q3.4 0 2.4 3.6-1.4 1.55-2.9 1.6l.35-4.55" fill="#c06045"/><path d="m23.8.45 1.25.45-4.55 6.6q-1.1 6.2-5.25 9.85l-.9-1.85 4.6-7.6.75-.9L23.8.45M7.2 26.3l-.55-.05.5.35-.3 2.25-1.3-.65-1.05-2.65 3.95-3.1q1.3 3 4.35 4.55l-5.6-.7m-5.6 2.2 2.5-1.55.6 1.15-2.45 1.2-.65-.8m4.6 3.6-1.6-1 2.05-1.3.85.3-1.3 2m5.65-2-.35 4.55q-1.15 0-2.3-1 1.9-.85 2.65-3.55" fill="#eb8a51"/><path d="M13.9 12.25 18.25 7l4.4-7 1.15.45L19.7 7l-.75.9-5.05 6.05-.15-.8-.1-.55.25-.35m5.25 16.35-2.25 6.75q-5.2 2.35-8.5-.7l-4.15-2.9-1.3.3L0 28.2l2.95-3.3v-1.3l4.6-5.5.2 1.95-3.85 4 .6 1.5 1.05 2.65 1.3.65 2.6 1.2V28.2l-2.3-1.6.05-.3 5.6.7q2.2 1.1 5.3 1.5l1.05.1M4.1 26.95l-.6-1.2-2.1 2.55.2.2.65.8 1.15 1.4 2.1-.9-.8-1.7-.6-1.15m3.4 3.15-.85-.3-2.05 1.3 1.6 1 1.65 1.05q3.05-.75 3.6-4.15l-1.05-.7-.25 2.65-2.65-.85m4 4.55q1.5-.05 2.9-1.6 1-3.6-2.4-3.6l-.15.65q-.75 2.7-2.65 3.55 1.15 1 2.3 1" fill="#823a25"/><path d="m21.05 21.8.25 2-.5-.1q-3.25-.65-6.05-3.75-1.55-1.7-2.95-4.15l-.65-1.1 1.1-2.45h1.65l-.25.35.1.55-1.15.75q.65 2.35 1.95 4.2 2.15 3 5.95 4.8l-.15-1.35.7.25m-.95 6.25-.95.55-1.05-.1q-3.1-.4-5.3-1.5-3.05-1.55-4.35-4.55l-.7-2.4-.2-1.95v-1.05l1.8-1.9 1.45.35-.45.8-1.45.4q-1.2 4.2 1.3 7l2.5 1.95q2.8 2.1 7.4 2.4" fill="#645c89"/><path d="m20.85 27.1-.75.95q-4.6-.3-7.4-2.4l-2.5-1.95 1.2-.85q2.35 3.1 8.3 4.1l1.15.15m-.5-5.55.15 1.35q-3.8-1.8-5.95-4.8l.3-.45.4-.3q1.7 2.85 5.1 4.2" fill="#a096d6"/><path d="M21.3 23.8q.15 2.1-.45 3.3l-1.15-.15q-5.95-1-8.3-4.1-1.75-2.3-1.5-5.75l.45-.8.45-.8.35-.8.65 1.1-1.35 2.3Q11 21 12.6 22.8q2.3 2.55 6.7 2.85l.85.05.65-2 .5.1" fill="#211f32"/><path d="m20.8 23.7-.65 2-.85-.05q-4.4-.3-6.7-2.85l2.15-2.85q2.8 3.1 6.05 3.75" fill="#473f6f"/><path d="m13.75 13.15.15.8.45 1.55.9 1.85-.4.3-.3.45q-1.3-1.85-1.95-4.2l1.15-.75m-3.4 3.15-.45.8q-.25 3.45 1.5 5.75l-1.2.85q-2.5-2.8-1.3-7l1.45-.4" fill="#fff"/><path d="M14.75 19.95 12.6 22.8Q11 21 10.45 18.1l1.35-2.3q1.4 2.45 2.95 4.15" fill="#61598e"/><path d="m13.9 13.95 5.05-6.05-4.6 7.6-.45-1.55m-9.4 11.6-.6-1.5 3.85-4 .7 2.4-3.95 3.1M1.6 28.5l-.2-.2 2.1-2.55.6 1.2-2.5 1.55" fill="#ffda8c"/></g><g id="l" fill-rule="evenodd"><path d="M4 1.8 1.6 13.75l2.85 1.5L7.75 17H21.4l.4.2-.45.85H6.5l-.5-.3-2.15-1.3-3.1-1.85q-2.2-5.2 1.9-12.2L4 1.8" fill="#313222"/><path d="m4 1.8 1.35-.5q.75 3.1.8 5.9.05 4.45-1.7 8.05l-2.85-1.5L4 1.8" fill="#939b61"/><path d="M4.45 15.25q1.75-3.6 1.7-8.05 7.65 4.2 16.45-1.75 1.6 2.05 2.95 4.9L21.95 17h-.55l-12-5.95L14.5 17H7.75l-3.3-1.75" fill="#606544"/><path d="M17.75 18.05 14.6 25.4l-9.65.8-3.5-6.8 4.45 2-2.05-4.95L6 17.75l2.05 4.1-1.6.8-2.1-1.15 1.5 3.3 2.75-.25 5.45-.55 2.05-5.95h1.65" fill="#5c3f5b"/><path d="m6 17.75.5.3h1.9l2.9 1.5-2.7 5-2.75.25-1.5-3.3 2.1 1.15 1.6-.8L6 17.75" fill="#a1729f"/><path d="M6.15 7.2q-.05-2.8-.8-5.9Q16.2-2.65 22.6 5.45 13.8 11.4 6.15 7.2M14.5 17l-5.1-5.95 12 5.95h-6.9" fill="#44472e"/><path d="M8.4 18.05h7.7L14.05 24l-5.45.55 2.7-5-2.9-1.5" fill="#80577e"/></g><g id="m" fill-rule="evenodd"><path d="m34.25 14.35 1-1.35-2.7-10.85.85.25 3.55 10.75-2.7 4.1-1.2.55-2.3 1.1-6.1 2.9-4.05-.5-2.05-.25-6.1-.7L0 13.3l.05-.2 12.15 5.4 1.95.9 10.5.85 8.6-4.55 1-1.35" fill="#313222"/><path d="m30.95 1.75 1.6.4L35.25 13l-1 1.35-3.3-12.6" fill="#b4f5ee"/><path d="m30.95 1.75 3.3 12.6-1 1.35-8.6 4.55-10.5-.85-1.95-.9 9.05.05L31.85 13v-1.85l-5.4-.2-15.25-.65-5.95-6.4q7.8-6.55 25.7-2.15" fill="#44472e"/><path d="M.05 13.1Q.8 9.85 2.3 7.4q10.3 13.5 24.15 3.55l5.4.2V13l-10.6 5.55-9.05-.05L.05 13.1" fill="#606544"/><path d="m33.05 17.8-.5 10.2h-7.5l-6.5-6.95 2.05.25 3.95 4.3L28.1 21l2.3 2.45.35-4.55 2.3-1.1m-3.75 8.75h2.25L29.1 23.9l-.95-1.05-2.9 3.7h4.05" fill="#5c3f5b"/><path d="m30.75 18.9-.35 4.55L28.1 21l-3.55 4.6-3.95-4.3 4.05.5 6.1-2.9m-1.45 7.65-.2-2.65 2.45 2.65H29.3" fill="#80577e"/><path d="m29.1 23.9.2 2.65h-4.05l2.9-3.7.95 1.05" fill="#a1729f"/><path d="M2.3 7.4q1.2-2.05 2.95-3.5l5.95 6.4 15.25.65Q12.6 20.9 2.3 7.4" fill="#939b61"/></g><g id="n" fill-rule="evenodd"><path d="m42.45.2 1-.2 3.45 29.2h-.05l-1.35-.15L42.45.2M5 24.75l1.5-3Q4.1 17.8 10.8 9.1q-1.65 3.05-2.55 5.4-2 5.15-.55 7.05l-2.4 5.4-.8-1.25.5-.95m14.4-4.1 12.15.55L35 19.5l2.7-1.35-2.45 1.95-2.8 2.2h-3.6l-.25-.4-9.2-1.25" fill="#823a25"/><path d="m10.8 9.1.05-.05 2.45-3L42.45.2l3.05 28.85-8.7-1q-.2-4.5-1.55-7.95l2.45-1.95L35 19.5q-2.2-5.1-7.1-7.9-11.5-5.1-19.65 2.9.9-2.35 2.55-5.4" fill="#c06045"/><path d="m7.7 21.55 3.4-1 1 1.7q-3.3 5.75-.85 12.2-.3-6.05 2-11.7l2.2-1.7q-2.55.2-2.65-.9-4.9-.05-4.5-2.95.95-3.7 6.15-5.05-2.65 4.15-.6 6.4.6-3.4 2.5-6.2 9.3.75 12.15 7.35l-12.6.45 3.5.5 9.2 1.25.25.4q1.35 2.15.9 4.95l-6.85-.8-10.15 8.75 2.1 3.85-5.3-.5q.6-1.6.75-3.65l-5-7.95 2.4-5.4" fill="#ffda8c"/><path d="M7.7 21.55q-1.45-1.9.55-7.05 8.15-8 19.65-2.9 4.9 2.8 7.1 7.9l-3.45 1.7-12.15-.55-3.5-.5 12.6-.45q-2.85-6.6-12.15-7.35-1.9 2.8-2.5 6.2-2.05-2.25.6-6.4-5.2 1.35-6.15 5.05-.4 2.9 4.5 2.95.1 1.1 2.65.9l-2.2 1.7q-2.3 5.65-2 11.7-2.45-6.45.85-12.2l-1-1.7-3.4 1m21.15.75h3.6l2.8-2.2q1.35 3.45 1.55 7.95l-7.05-.8q.45-2.8-.9-4.95" fill="#eb8a51"/><path d="M17.2 43.25q-6.05 2.1-10.6-.55 2-1.65 2.95-4.15l5.3.5 2.35 4.2" fill="#44472e"/><path d="m46.9 29.2 1.75 1.2-1.8 2.1.35 2.45-1.3.15v-2.65l-5.5-1.05-9.25-1.05-6.55-.3-5.45 5.15-1.15-.15 6.45-6 10.25.8 11.9 1.75-.4-1.6-8.8-.95-13.5-1.5-9.85 7.75L20 46.25l10.05.45q10.8-.1 19.05-2.7l.7-1.55-3.2-4 1.25-.3 3.1 4.15-.75 2.25q-12.25 4.2-30.95 2.4l-2.05-3.7-2.35-4.2-2.1-3.85 10.15-8.75 6.85.8 7.05.8 8.7 1 1.35.15h.05M6.6 42.7l-1.5 1-4 .7L0 42.85l2.1-5.5v-4.4l1-1.3V28.7l-.7-2.1L5 24.75l-.5.95.8 1.25 5 7.95q-.15 2.05-.75 3.65-.95 2.5-2.95 4.15m-2.5-9.55 3.2 1.1-2.8-4.05-.4 2.95m4.1 5 .7-1.55-.45-1.3-5.05-1.45v2.65l4.8 1.65m-6.45 3.2q3.3 0 5.2-2.7L3.1 37.3l-1.35 4.05" fill="#211f32"/><path d="m47.2 34.95.5 2.95.15.25-1.25.3L39 39.8l-10.95.55-10.2-.75-1.95-2.65 2.1-1.9 1.15.15 11 .75 10.6-.4 5.15-.45 1.3-.15M32.35 39.2q7.15-.2 14.5-1.5l-.3-1.8-13.1.75L18.4 36l-1.35 1.2 1.3 1.4 14 .6" fill="#645c89"/><path d="m34.7 29.85-10.25-.8-6.45 6-2.1 1.9 1.95 2.65 3.45 4.6.9 1.2 8.4.3-.55 1L20 46.25 14.05 35.3l9.85-7.75 13.5 1.5-2.7.8m-2.35 9.35-14-.6-1.3-1.4L18.4 36l15.05.65-1.1 2.55M8.2 38.15 3.4 36.5v-2.65l5.05 1.45.45 1.3-.7 1.55" fill="#fff"/><path d="m19.15 35.2 5.45-5.15 6.55.3-1 5.6-11-.75m8.9 5.15q-3.1 2.85-6.75 3.85l-3.45-4.6 10.2.75M4.1 33.15l.4-2.95 2.8 4.05-3.2-1.1" fill="#9785d7"/><path d="m37.4 29.05 8.8.95.4 1.6-11.9-1.75 2.7-.8m-5.55 16.6q9.45-.35 17.95-3.2L49.1 44q-8.25 2.6-19.05 2.7l.55-1 1.25-.05m1.6-9 13.1-.75.3 1.8q-7.35 1.3-14.5 1.5l1.1-2.55" fill="#a096d6"/><path d="m31.15 30.35 9.25 1.05.35 4.15-10.6.4 1-5.6M39 39.8l-7.15 5.85-1.25.05-8.4-.3-.9-1.2q3.65-1 6.75-3.85L39 39.8M1.75 41.35 3.1 37.3l3.85 1.35q-1.9 2.7-5.2 2.7" fill="#61598e"/><path d="m40.4 31.4 5.5 1.05v2.65l-5.15.45-.35-4.15m6.2 7.05 3.2 4q-8.5 2.85-17.95 3.2L39 39.8l7.6-1.35" fill="#473f6f"/><path d="m12.95 30.9-.55-.05q-2.6 0-4.45 1.65-.8.7-1.25 1.55-.55 1.05-.55 2.35 0 2.3 1.8 3.95 1.3 1.1 2.9 1.45l1.55.15q2.65 0 4.45-1.6 1.85-1.65 1.85-3.95l-.2-1.4q-.35-1.4-1.65-2.5-1.6-1.45-3.9-1.6m-.4-.7q2.95 0 5.05 1.85 2.1 1.85 2.1 4.45t-2.1 4.45q-2.1 1.85-5.05 1.85-3 0-5.1-1.85Q5.4 39.1 5.4 36.5t2.05-4.45q2.1-1.85 5.1-1.85" fill="#b05c07"/><path d="M6.7 34.05q.45-.85 1.25-1.55 1.85-1.65 4.45-1.65l.55.05L15 33q-1.35-.95-3.15-.95-2.1 0-3.55 1.3-.9.8-1.3 1.8l-.3-1.1m1.35 4.35q-.6-.85-.6-1.9 0-1.55 1.3-2.65 1.15-1.05 2.75-1.1.55 1.55.15 2.7l-.5.9-1.35-.05q-.75-.2-1.2-.8-.65 1.4-.55 2.9m2.2-1.55.6.2.25.4-.25.4-.6.2q-.35 0-.55-.2l-.25-.4.25-.4.55-.2" fill="#fff"/><path d="M11.5 32.75h.25q1.8 0 3.05 1.1 1.05.9 1.2 2.15-2-.95-4.35-.55.4-1.15-.15-2.7M15 39l-.2.2q-1.25 1.1-3.05 1.1h-.4q1.4-2.6 3.65-1.3m-6.1.3-.15-.1-.7-.8q-.1-1.5.55-2.9.45.6 1.2.8-1.05 1.4-.9 3" fill="#ff4c22"/><path d="M7 35.15q.4-1 1.3-1.8 1.45-1.3 3.55-1.3 1.8 0 3.15.95l.4.35q.95.8 1.3 1.85l.2 1.25q0 1.85-1.5 3.15-1.45 1.3-3.55 1.3l-1.1-.1q-1.4-.25-2.45-1.2-1.5-1.3-1.5-3.15l.2-1.3m9 .85q-.15-1.25-1.2-2.15-1.25-1.1-3.05-1.1h-.25q-1.6.05-2.75 1.1-1.3 1.1-1.3 2.65 0 1.05.6 1.9l.7.8.15.1q1.05.85 2.45 1h.4q1.8 0 3.05-1.1l.2-.2q1.05-1.05 1.05-2.5L16 36" fill="#7d1f0b"/><path d="m16 36 .05.5q0 1.45-1.05 2.5-2.25-1.3-3.65 1.3-1.4-.15-2.45-1-.15-1.6.9-3l1.35.05.5-.9Q14 35.05 16 36m-5.75.85-.55.2-.25.4.25.4q.2.2.55.2l.6-.2.25-.4-.25-.4-.6-.2" fill="#a72a0f"/><path d="M12.95 30.9q2.3.15 3.9 1.6 1.3 1.1 1.65 2.5l-1.8.2q-.35-1.05-1.3-1.85L15 33l-2.05-2.1m-2.1 10.9q-1.6-.35-2.9-1.45-1.8-1.65-1.8-3.95 0-1.3.55-2.35l.3 1.1-.2 1.3q0 1.85 1.5 3.15 1.05.95 2.45 1.2l.1 1" fill="#ecd21c"/><path d="m18.5 35 .2 1.4q0 2.3-1.85 3.95-1.8 1.6-4.45 1.6l-1.55-.15-.1-1 1.1.1q2.1 0 3.55-1.3 1.5-1.3 1.5-3.15l-.2-1.25 1.8-.2" fill="#c57906"/></g><g id="o" fill-rule="evenodd"><path d="m71.85 9.2-.2-1.6L52.7 9l-6.5-.1V2.4L25.25 9.6l-2.1.7-2-3.65-.45.3Q5.2 18.65 8.8 36.45l-1.1.3-.55.15.5 3.85-.95 9.2 2.05-1.6.35 2.7v7.25l-2.25-6.8-1.85.55L6.7 33.5Q5.3 16.35 21.85 3.65l1.7 4.8L47.75 0v8.05L73.1 5.5q2.3 15.1-7.1 27.05l9.05.85q-3.1 10-9.9 16.65l5.5.6Q67.8 59.75 57.1 62.1l-.95-.35q8.6-3.35 12.65-10.1h-6.6q5.6-5.5 9.05-12.2l1.1-2.3.85-2.05-.85-.15-6.6-1.1-1.05-.2 3.75-7.1q4.1-9.4 3.4-17.35" fill="#9b7b82"/><path d="m52.7 9 18.95-1.4.2 1.6q-.45 2.45-1.5 4.55-4.25 8.3-18.65 10.3l6.8-5.25q-13.8 3.1-26.05 2Q41.9 13.25 52.7 9m13.05 24.85 6.6 1.1Q67.7 37.5 62.2 36.5l3.55-2.65M8.8 36.45q-3.6-17.8 11.9-29.5-1.65 11.75-5.5 22.6l-2.25 5.75-4.15 1.15M25.25 9.6 46.2 2.4v4.2q-6.35 8.9-17.4 11.65l4.25-6.4-11.9 9.75 4.1-12m5.7 49.2q-9.05 1.65-17.6.1l-.4-2.65 1.75.6 2-1.75 9.8-.65 3.2 1.9 1.95-2.3.75-.25-1.45 5M12.8 55.3l-.2-1.4L33 51.15l-.25 1.4-2.2.55-1.35 2.15-2.35-1.9-10.5 1.05-2.1 1.4-1.45-.5" fill="#fff"/><path d="m68.45 26.55-3.75 7.1 1.05.2-3.55 2.65q5.5 1 10.15-1.55l.85.15-.85 2.05-10.1 7.05-.5-.65q-.3-7.5-3.15-9.85-1.85-4-6.35-8.55l2.15 8.65-2.9-1.15q2.15 6.5 1.75 13.2l-1.35-.5-5 8.6-2.3-9.55-1.4.6-.3-16.45.3-1.7-2.4.7-2.7-4.35-9.75 3.4 2.55-7.4-15.7 10.35q3.85-10.85 5.5-22.6l.45-.3 2 3.65 2.1-.7-4.1 12 11.9-9.75-4.25 6.4Q39.85 15.5 46.2 6.6v2.3l6.5.1q-10.8 4.25-20.25 11.8 12.25 1.1 26.05-2l-6.8 5.25q14.4-2 18.65-10.3Q67.7 24.15 58.9 32.8q5.8-1.65 9.55-6.25" fill="#e1cdcf"/><path d="M71.85 9.2q.7 7.95-3.4 17.35-3.75 4.6-9.55 6.25 8.8-8.65 11.45-19.05 1.05-2.1 1.5-4.55m.5 27.95-1.1 2.3-10.5 11.9 1.45.3h6.6q-4.05 6.75-12.65 10.1l-10.1-3.85 1.15-1.3.65-1.95q1.7-2 3-4.5 5.85.1 10.9-6.6l.5.65 10.1-7.05m-63.6 11.2-2.05 1.6.95-9.2 1.1 7.6m4.2-13.05 2.25-5.75L30.9 19.2l-2.55 7.4 9.75-3.4 2.7 4.35-27.85 7.75m39.3-10.15q4.5 4.55 6.35 8.55-1.45-1.2-3.55-1.05-.5-4.05-2.8-7.5" fill="#ba9ba1"/><path d="M71.25 39.45q-3.45 6.7-9.05 12.2l-1.45-.3 10.5-11.9" fill="#b4f5ee"/><path d="m7.7 36.75 1.1-.3 4.15-1.15 27.85-7.75 2.4-.7-.3 1.7Q41.4 37.3 42.35 46l-8.15-1.15q-16.05-1.55-24.45 4.5L7.7 36.75m47.45-3.6q5.25 1.3 5.5 10.05-1.3 1.95-2.9 3.3 3.95-6.05-2.1-8.9v1.35l.1.2q2.6 4.85-1.65 7 1.75-5.3-1.25-12.05l2.4 1.55-.1-2.5m-9.4 21.15.45 2.15q-5.65 5.4-14.25 6.7-11.8 2-19.55-1.5l12.85.4q14.4-1.1 20.5-7.75" fill="#c06045"/><path d="M9.1 58.3v-7.25l-.35-2.7-1.1-7.6-.5-3.85.55-.15 2.05 12.6.2 1.3v9.7q1.2.75 2.45 1.3 7.75 3.5 19.55 1.5 8.6-1.3 14.25-6.7l1.65-1.8-.65 1.95-1.15 1.3q-6 6.5-20 7.05h-.55q-13.35.3-16.4-4.25v-2.4m49.5-24.6q2.85 2.35 3.15 9.85-5.05 6.7-10.9 6.6l.45-.9q3.75-.5 6.45-2.75 1.6-1.35 2.9-3.3-.25-8.75-5.5-10.05l-.1-.5q2.1-.15 3.55 1.05M33.25 59.05l-1.65.3q-9.75 1.8-18.95.4l-1.4-8.1 2.45-.15 19.25-2.55.7-.7.7.45 1.6 1-2.7 9.35m.95-6.85.6-2.05-1-.8-.85.45-20.6 2.55.25 1.55.2 1.4.15.95.4 2.65q8.55 1.55 17.6-.1l1.5-.3 1.45-5.25.3-1.05" fill="#823a25"/><path d="M42.9 28.55 43.2 45l1.4-.6 2.3 9.55 5-8.6 1.35.5q.4-6.7-1.75-13.2l2.9 1.15-2.15-8.65q2.3 3.45 2.8 7.5l.1.5.1 2.5-2.4-1.55q3 6.75 1.25 12.05l-.4 1.1-1.3-.55-1.1 2.55-.45.9q-1.3 2.5-3 4.5l-1.65 1.8-.45-2.15-1.85-8.35-1.55.45V46q-.95-8.7.55-17.45" fill="#ad8e94"/><path d="M57.75 46.5q-2.7 2.25-6.45 2.75l1.1-2.55 1.3.55.4-1.1q4.25-2.15 1.65-7l-.1-.2V37.6q6.05 2.85 2.1 8.9m-15.4-.5v.4l1.55-.45 1.85 8.35q-6.1 6.65-20.5 7.75l-12.85-.4q-1.25-.55-2.45-1.3v-.3q13.45 2.4 21.65-.7l1.65-.3Q44.7 52.1 36.3 47.1l-1.95 1.6-.7-.45-.7.7L13.7 51.5l-2.45.15-.3-1.25q20.5-.9 23.25-5.55L42.35 46" fill="#eb8a51"/><path d="m34.35 48.7 1.95-1.6q8.4 5-3.05 11.95l2.7-9.35-1.6-1M31.6 59.35q-8.2 3.1-21.65.7v-9.4l-.2-1.3q8.4-6.05 24.45-4.5-2.75 4.65-23.25 5.55l.3 1.25 1.4 8.1q9.2 1.4 18.95-.4" fill="#ffda8c"/><path d="m12.6 53.9-.25-1.55 20.6-2.55.85-.45 1 .8-.6 2.05-1.45.35.25-1.4-20.4 2.75" fill="#dec5f3"/><path d="m34.2 52.2-.3 1.05-1.5.55-.75.25-1.95 2.3-3.2-1.9-9.8.65-2 1.75-1.75-.6-.15-.95 1.45.5 2.1-1.4 10.5-1.05 2.35 1.9 1.35-2.15 2.2-.55 1.45-.35" fill="#9f85b6"/><path d="m33.6 35.65-1.15.45-5 2-1.2.5-2 .75-.65.3-1 .4q2.4 5.15 6.3 6.6 3.9 1.45 9.3-.9 2.65-1.75 3.1-4.05.6-3.3-3.1-7.9l-3.05 1.25-.95.35-.6.25M21.25 39.9l17.4-6.95q7.1 8.75 0 13.3-12 5.3-17.4-6.35" fill="#211f32"/><path d="m34.2 35.4.95-.35q3.4 2.5 3.5 5.7l-.1 1.4q-2.3 4.05-7.45 3.7l-1.9-.2q-3.85-.9-5.6-6l.65-.3q1.25 3.75 3.95 5 5.95 2.2 9.05-1.9l.3-.5q.65-1.55-.25-3.25-.85-1.55-3.1-3.3m-6.75 2.7 5-2q2.95 6.3-.4 7.05-2.85.4-4.6-5.05" fill="#0e495c"/><path d="m32.45 36.1 1.15-.45q1.05 1.65 1.55 3.1.45 1.4.4 2.65l-.25 1.45q-6.6 4.5-9.05-4.25l1.2-.5q1.75 5.45 4.6 5.05 3.35-.75.4-7.05" fill="#107280"/><path d="m33.6 35.65.6-.25q2.25 1.75 3.1 3.3l-2.15.05q-.5-1.45-1.55-3.1" fill="#16b6a2"/><path d="m35.15 35.05 3.05-1.25q3.7 4.6 3.1 7.9l-2.65-.95q-.1-3.2-3.5-5.7m-6.25 11.6q-3.9-1.45-6.3-6.6l1-.4q1.75 5.1 5.6 6l-.3 1" fill="#dec5f3"/><path d="m24.25 39.35 2-.75q2.45 8.75 9.05 4.25l.25-1.45 2 .55-.3.5q-3.1 4.1-9.05 1.9-2.7-1.25-3.95-5" fill="#21ffcc"/><path d="M41.3 41.7q-.45 2.3-3.1 4.05-5.4 2.35-9.3.9l.3-1 1.9.2q5.15.35 7.45-3.7l.1-1.4 2.65.95m-4-3q.9 1.7.25 3.25l-2-.55q.05-1.25-.4-2.65l2.15-.05" fill="#fff"/><path d="m11.2 43.35 1.4.65.3.15.6.25.2.1.25.15q.1 2.6-.6 3.55l-2.3.1q-.8-.65-1.2-1.75-.55-1.5-.3-3.95l.9.4.25.15.2.05.3.15m3 1.1-4.85-2.2q-.5 4.55 1.7 6.35 3.45 1.75 3.15-4.15" fill="#211f32"/><path d="m12.6 44-1.4-.65q.1 3.2 1 3.35.7 0 .4-2.7m-1.9-.85-.25-.15q-.5 1.45-.1 2.95l.2.7q1 1.75 2.2 1.25l.4-.2q.75-.7.55-3.2l-.2-.1q.2 1.85-.3 2.65-1.1 1.4-2.3-.4l-.15-.2q-.35-.7-.35-1.55 0-.8.3-1.75" fill="#0e495c"/><path d="m11.2 43.35-.3-.15v1.55q.05.75.25 1.35l.25.7q2.05 1.65 1.5-2.65l-.3-.15q.3 2.7-.4 2.7-.9-.15-1-3.35" fill="#107280"/><path d="m10.9 43.2-.2-.05q-.3.95-.3 1.75l.5-.15V43.2" fill="#16b6a2"/><path d="m10.45 43-.9-.4q-.25 2.45.3 3.95l.5-.6q-.4-1.5.1-2.95m2.9 5.2q.7-.95.6-3.55l-.25-.15q.2 2.5-.55 3.2l.2.5" fill="#dec5f3"/><path d="m13.5 44.4-.6-.25q.55 4.3-1.5 2.65l-.25-.7-.4.35.15.2q1.2 1.8 2.3.4.5-.8.3-2.65" fill="#21ffcc"/><path d="M9.85 46.55q.4 1.1 1.2 1.75l2.3-.1-.2-.5-.4.2q-1.2.5-2.2-1.25l-.2-.7-.5.6m.55-1.65q0 .85.35 1.55l.4-.35q-.2-.6-.25-1.35l-.5.15" fill="#fff"/><path d="M22.5 26.85 1.6 11.3q-.2 2.95 0 5.8.8 11.2 8.35 21.05l-.6-.15-2.15-.55-2.55-4.55v-.05l-.75-1.5Q-1.75 19.15.75 8.45l15.5 11.95.7.55 1.3 1 1.4 1.05 2.6 2.05.25 1.8" fill="#645c89"/><path d="M1.6 17.1q-.2-2.85 0-5.8l20.9 15.55q1.15 10.55-6.2 11.7Q7 31.9 1.6 17.1m23.75 10.5q1.7 4.9-1.4 9.8l-.45.4-.8-2.65q1.9-4.3.35-8.45l2.3.9" fill="#fff"/><path d="m4.65 32.9 2.55 4.55.95 1.5.55.8.75 3-2.05-.6-2.75-9.25m21.15 3.35q.9-1.6 1.2-3.25l4.6-7.3 1.15.9 2.6-.45-9.55 10.1" fill="#61598e"/><path d="m16.95 20.95-.7-.55L21 16.25l12 8.8 12.9-2.15-2.25 11.35-28.9 11.45-8.9-2.7L1.9 30.15l2 1.2.75 1.5v.05l2.75 9.25 2.05.6 6 1.65L42.5 33.25l.55-2.7 1.15-5.8-8.85 1.4-2.6.45-1.15-.9L21.5 18l-.1-.05-4.45 3" fill="#211f32"/><path d="m7.2 37.45 2.15.55L11 39.45l3.6.3 1.85 1.1q-3.2.35-6.7-1.05l-1.6-.85-.95-1.5" fill="#c57906"/><path d="m22.5 26.85-.25-1.8.8 1.65q1.55 4.15-.35 8.45-2.95 4.3-8.1 4.6l-3.6-.3L9.35 38l.6.15 6.35.4q7.35-1.15 6.2-11.7M19.65 23l-1.4-1.05 2.65.45 3.05.5Q27.8 28.3 27 33q-.3 1.65-1.2 3.25v.05l-1.85 2.45q-4.6 2.85-8.25 3.2-4.1.45-7-2.2l-.55-.8 1.6.85q3.5 1.4 6.7 1.05 3.7-.4 7.05-3.05l.45-.4q3.1-4.9 1.4-9.8-.7-1.85-2.05-3.7l-3.65-.9" fill="#b05c07"/><path d="M9.95 38.15Q2.4 28.3 1.6 17.1 7 31.9 16.3 38.55l-6.35-.4" fill="#a096d6"/><path d="m18.25 21.95-1.3-1 4.45-3 .1.05-.6 4.4-2.65-.45M8.7 39.75q2.9 2.65 7 2.2l-.25 2.45-6-1.65-.75-3m17.1-3.45v-.05l9.55-10.1 8.85-1.4-1.15 5.8L32.8 31.6l-7.85 7.7.85-3" fill="#9785d7"/><path d="M22.25 25.05 19.65 23l3.65.9q1.35 1.85 2.05 3.7l-2.3-.9-.8-1.65M23.5 37.8q-3.35 2.65-7.05 3.05l-1.85-1.1q5.15-.3 8.1-4.6l.8 2.65" fill="#ecd21c"/><path d="M15.7 41.95q3.65-.35 8.25-3.2l1.85-2.45-.85 3 7.85-7.7 10.25-1.05-.55 2.7L15.45 44.4l.25-2.45M27 33q.8-4.7-3.05-10.1l-3.05-.5.6-4.4 10.1 7.7L27 33" fill="#473f6f"/></g><g id="p" fill-rule="evenodd"><path d="m22.4 3.4-.5-.7q-3.4 6-8.15 9.45l-.35-1.25Q18.35 7.65 21.35 0q7.65 7.6 3.1 17.25l-1.15.3q2.65-8.15-.9-14.15M20 32.9l4.6-.6 1.25-.05-.1-.15q1.55.4.95 2.2l-.75-.05-1.2-.05-1.55.1q-5.45.6-11 4.85l-.65.45-1.45-1.1q.5-.75 1.1-1.35l1.15-1.05.9-.65q2.7-1.8 6.75-2.55m7.55 5.2.95-.1 1.8 1.7-.45 1-.9-.05-1.2-.05q-4.65.1-8.5 1.7-2 .8-3.75 2.05-1.05.7-2.05 1.6l-.45.4-.6-.45-1.1-.75 1.2-2 1.05-.6q5.7-3.05 11.4-4.05l1.5-.25 1.1-.15m-6.5-4.85q-5.1.6-9.75 4.75l.65.35q6.7-4.7 13.9-4.7-1.25-1.2-4.8-.4m3.9 6.8 4.3-.3-1.4-.85-2.8.35q-8 1.25-12.7 5.45l.8.4q4.65-4.1 11.8-5.05" fill="#645c89"/><path d="m21.9 2.7.5.7q2.35 7.45-.5 14.35l-3.6-.35q4-6.9 3.6-14.7M12.95 27q5.15 1.35 11.4-.85l-1.05 2q-6.55 2.05-11.75.95l1.4-2.1m12 13.05.1-.8 2.8-.35 1.4.85-4.3.3" fill="#a096d6"/><path d="m23.3 17.55 1.15-.3q1.7 3.5 1.45 7-.15 1.95-.9 3.9l-1.2.6-1.2.5-3.25 1-6.75.7-2.15-.1-.4-.15-1.55-.6Q-1.8 25.6.4 16.7q2.4-6.4 13-5.8l.35 1.25q1.3 4.15 4.55 5.25l3.6.35 1.4-.2m0 8.15 1.4-.7q.7-2.95-.7-5.9l-1.5.15-2 .05q-6.45-.45-8.5-7.15l-6.25.8-.5 1.55Q4 19.7 9.85 24.25q1.8 1.05 3.55 1.7 3.4 1.25 6.65.75 1.65-.3 3.25-1m2.65 8.55.75.05 1.8 3.7-.95.1-1.6-3.85m-14.4-5.15q5.2 1.1 11.75-.95l1.05-2q-6.25 2.2-11.4.85-1.85-.5-3.5-1.4-8.65-4.75-5.1-12.45-6.9 7.1 1.85 13.75 2.45 1.55 5.35 2.2m.95 14.05-.95-3.55.65-.45 1.35 3.4-1.05.6" fill="#211f32"/><path d="M22.4 3.4q3.55 6 .9 14.15l-1.4.2q2.85-6.9.5-14.35m.1 15.85 1.5-.15q1.4 2.95.7 5.9l-1.4.7-.8-6.45" fill="#ace8e5"/><path d="M23.3 25.7q-1.6.7-3.25 1l.45-7.4 2-.05.8 6.45m1.45 8.5 1.7 4.05-1.5.25-1.75-4.2 1.55-.1" fill="#473f6f"/><path d="M13.75 12.15Q18.5 8.7 21.9 2.7q.4 7.8-3.6 14.7-3.25-1.1-4.55-5.25m7.3 21.1q3.55-.8 4.8.4-7.2 0-13.9 4.7L11.3 38q4.65-4.15 9.75-4.75m-9.5-4.15q-2.9-.65-5.35-2.2-8.75-6.65-1.85-13.75-3.55 7.7 5.1 12.45 1.65.9 3.5 1.4l-1.4 2.1m13.5 10.15-.1.8q-7.15.95-11.8 5.05l-.8-.4q4.7-4.2 12.7-5.45" fill="#fff"/><path d="m20 32.9-.65-2.65 3.25-1 2 3.05-4.6.6m-7.4-1.95.65 4.5-.9.65-2.3-5.4.4.15 2.15.1m11.45 21.3L19.7 54q4.1-7.95-4.2-9.65 1.75-1.25 3.75-2.05 7.9 2.15 4.8 9.95" fill="#eb8a51"/><path d="M19.35 30.25 20 32.9q-4.05.75-6.75 2.55l-.65-4.5 6.75-.7M19.7 54l-2.2.6q-2-1.75-1.9-4l1.85.85-2.55-2.7V52l-2.35-2.45.9-3.6q1-.9 2.05-1.6 8.3 1.7 4.2 9.65" fill="#ffda8c"/><path d="m24.6 32.3-2-3.05 1.2-.5 1.95 3.35.1.15-1.25.05m5.25 8.4 3.3 5.85q-5.45 7.55-15.7 9.5l-2-2.45-4.1-3.5 1.05-4.2.6.45.45-.4-.9 3.6L14.9 52v-3.25l2.55 2.7-1.85-.85q-.1 2.25 1.9 4l2.2-.6 4.35-1.75 4.2-2.65 3.35-3.25-2.65-5.7.9.05M11.2 37.15 8.5 30.1l1.55.6 2.3 5.4-1.15 1.05" fill="#823a25"/><path d="m25.95 34.25 1.6 3.85-1.1.15-1.7-4.05 1.2.05m1.8 6.35 1.2.05 2.65 5.7-3.35 3.25 2-3.15-2.5-5.85" fill="#b4f5ee"/><path d="M19.25 42.3q3.85-1.6 8.5-1.7l2.5 5.85-2 3.15-4.2 2.65q3.1-7.8-4.8-9.95" fill="#c06045"/><path d="M20.05 26.7q-3.25.5-6.65-.75 4.1-11.5-8.15-11.45l.5-1.55 6.25-.8q2.05 6.7 8.5 7.15l-.45 7.4m3.15 7.6 1.75 4.2q-5.7 1-11.4 4.05l-1.35-3.4q5.55-4.25 11-4.85" fill="#61598e"/><path d="M13.4 25.95q-1.75-.65-3.55-1.7Q4 19.7 5.25 14.5q12.25-.05 8.15 11.45" fill="#9785d7"/></g><use ffdec:characterId="2" height="46.55" width="62.7" xlink:href="#j" id="c"/><use ffdec:characterId="4" height="36.35" width="30.05" xlink:href="#k" id="d"/><use ffdec:characterId="6" height="26.2" width="25.55" xlink:href="#l" id="e"/><use ffdec:characterId="8" height="28" width="36.95" xlink:href="#m" id="f"/><use ffdec:characterId="10" height="47.5" width="50.95" xlink:href="#n" id="g"/><use ffdec:characterId="12" height="64.95" width="75.05" xlink:href="#o" id="h"/><use ffdec:characterId="18" height="56.05" width="33.15" xlink:href="#p" id="i"/><path d="M27.75 0q0 2-8.15 3.4Q11.5 4.9 0 4.9q-11.5 0-19.65-1.5-8.1-1.4-8.1-3.4 0-2.05 8.1-3.5Q-11.5-4.9 0-4.9q11.5 0 19.6 1.4 8.15 1.45 8.15 3.5" fill-opacity=".349" fill-rule="evenodd" transform="translate(27.75 4.9)" id="b"/></defs></svg>