<svg xmlns:ffdec="https://www.free-decompiler.com/flash" xmlns:xlink="http://www.w3.org/1999/xlink" ffdec:objectType="frame" height="100" width="100" xmlns="http://www.w3.org/2000/svg"><use ffdec:characterId="16" height="100" transform="scale(1 .9997)" width="104.05" xlink:href="#a"/><defs><g id="a"><use ffdec:characterId="1" height="23.6" transform="matrix(.5912 0 0 .5909 6.8 82)" width="87.6" xlink:href="#b"/><use ffdec:characterId="2" height="85.25" transform="matrix(.5912 0 0 .5909 45.463 31.964)" width="84.7" xlink:href="#c"/><use ffdec:characterId="3" height="27.35" transform="matrix(.5912 0 0 .5909 15.663 60.214)" width="17.25" xlink:href="#d"/><use ffdec:characterId="4" height="29.15" transform="matrix(.5912 0 0 .5909 14.313 75.264)" width="28.05" xlink:href="#e"/><use ffdec:characterId="5" height="29.15" transform="matrix(.5912 0 0 .5909 32.313 76.814)" width="28.05" xlink:href="#f"/><use ffdec:characterId="6" height="36.45" transform="matrix(.5912 0 0 .5909 74.97 53.52)" width="39.45" xlink:href="#g"/><use ffdec:characterId="7" height="55.8" transform="matrix(.5912 0 0 .5909 19.063 50.467)" width="52.95" xlink:href="#h"/><use ffdec:characterId="8" height="26.45" transform="matrix(.5912 0 0 .5909 43.7 63.2)" width="22.05" xlink:href="#i"/><use ffdec:characterId="9" height="104.3" transform="matrix(.5912 0 0 .5909 2.663 3.364)" width="117.05" xlink:href="#j"/><use ffdec:characterId="10" height="17.6" transform="matrix(.5912 0 0 .5909 16.349 32.552)" width="50.7" xlink:href="#k"/><use ffdec:characterId="11" height="206.75" transform="scale(.49 .4837)" width="204.1" xlink:href="#l"/></g><g id="c"><path d="m81.3 16.8.4 3.35q-.7 4.5-4.55 10.4-3.85 5.9-10.7 6.05-6.85.1-10.45-1-3.65-1.1-6.9 1.5-2.65 2.15-4.65 7.05-2.05 4.9-7.15 19.2-5.1 14.3-14.55 15.6l-17.7 1.3L.85 80l5.3-10.15q5.45 2.65 9.95 2.75l1.65.35q15.5 2.1 19.3-23.8 3.4-27.85 11.55-39.9l.5-.7.4.25q8.8 4.95 18.3-3 6.7 1.8 13.5 11" fill="#e4a001" fill-rule="evenodd" transform="translate(1.5 1.5)"/><path d="m17.75 72.6.85-.1q11.7-1.8 14.9-23.8 3.7-30.35 13.05-41.9.75-.95 2-1.95Q59.7-3.7 71.95 2.9q1.45.85 4.95 4.25 3.4 3.45 4.4 9.65-6.8-9.2-13.5-11-9.5 7.95-18.3 3l-.4-.25-.5.7q-8.15 12.05-11.55 39.9-3.8 25.9-19.3 23.8v-.35" fill="#fee801" fill-rule="evenodd" transform="translate(1.5 1.5)"/><path d="M16.1 72.6h1.65v.35l-1.65-.35" fill="#fc951c" fill-rule="evenodd" transform="translate(1.5 1.5)"/><path d="M81.7 20.15q.15 7.1-5.4 15.3-7.85 6.25-17.25 2.7Q49.5 35 42.6 56.75q-6.85 21.7-19.55 24.1Q10.3 83.2 0 81.55L.85 80l4.2.25 17.7-1.3q9.45-1.3 14.55-15.6 5.1-14.3 7.15-19.2 2-4.9 4.65-7.05 3.25-2.6 6.9-1.5 3.6 1.1 10.45 1 6.85-.15 10.7-6.05 3.85-5.9 4.55-10.4" fill="#bfff00" fill-rule="evenodd" transform="translate(1.5 1.5)"/><path d="m19.25 74.1.85-.1Q31.8 72.2 35 50.2q3.7-30.35 13.05-41.9.75-.95 2-1.95Q61.2-2.2 73.45 4.4q1.45.85 4.95 4.25 3.4 3.45 4.4 9.65l.4 3.35q.15 7.1-5.4 15.3-7.85 6.25-17.25 2.7Q51 36.5 44.1 58.25q-6.85 21.7-19.55 24.1-12.75 2.35-23.05.7l.85-1.55 5.3-10.15 9.95 2.75h1.65m-11.6-2.75Q13.1 74 17.6 74.1l1.65.35" fill="none" stroke="#831b00" stroke-linecap="round" stroke-linejoin="round" stroke-width="3"/><path d="m.85 80 4.2.25 17.7-1.3q9.45-1.3 14.55-15.6 5.1-14.3 7.15-19.2 2-4.9 4.65-7.05 3.25-2.6 6.9-1.5 3.6 1.1 10.45 1 6.85-.15 10.7-6.05 3.85-5.9 4.55-10.4.15 7.1-5.4 15.3-7.85 6.25-17.25 2.7Q49.5 35 42.6 56.75q-6.85 21.7-19.55 24.1Q10.3 83.2 0 81.55L.85 80" fill="#bfff00" fill-rule="evenodd" transform="translate(1.5 1.5)"/><path d="M81.7 20.15q-.7 4.5-4.55 10.4-3.85 5.9-10.7 6.05-6.85.1-10.45-1-3.65-1.1-6.9 1.5-2.65 2.15-4.65 7.05-2.05 4.9-7.15 19.2-5.1 14.3-14.55 15.6l-17.7 1.3L.85 80l5.3-10.15q5.45 2.65 9.95 2.75l1.65.35q15.5 2.1 19.3-23.8 3.4-27.85 11.55-39.9l.5-.7.4.25q8.8 4.95 18.3-3 6.7 1.8 13.5 11l.4 3.35" fill="#e4a001" fill-rule="evenodd" transform="translate(1.5 1.5)"/><path d="M81.3 16.8q-6.8-9.2-13.5-11-9.5 7.95-18.3 3l-.4-.25-.5.7q-8.15 12.05-11.55 39.9-3.8 25.9-19.3 23.8v-.35l.85-.1q11.7-1.8 14.9-23.8 3.7-30.35 13.05-41.9.75-.95 2-1.95Q59.7-3.7 71.95 2.9q1.45.85 4.95 4.25 3.4 3.45 4.4 9.65" fill="#fee801" fill-rule="evenodd" transform="translate(1.5 1.5)"/><path d="m17.75 72.95-1.65-.35h1.65v.35" fill="#fc951c" fill-rule="evenodd" transform="translate(1.5 1.5)"/><path d="m2.35 81.5-.85 1.55q10.3 1.65 23.05-.7 12.7-2.4 19.55-24.1Q51 36.5 60.55 39.65q9.4 3.55 17.25-2.7 5.55-8.2 5.4-15.3l-.4-3.35q-1-6.2-4.4-9.65-3.5-3.4-4.95-4.25-12.25-6.6-23.4 1.95-1.25 1-2 1.95Q38.7 19.85 35 50.2q-3.2 22-14.9 23.8l-.85.1H17.6l-9.95-2.75-5.3 10.15m16.9-7.05-1.65-.35q-4.5-.1-9.95-2.75" fill="none" stroke="#831b00" stroke-linecap="round" stroke-linejoin="round" stroke-width="2.5"/><path d="M48.3 30.05q-.25-2.6.55-5.4 1.35-5.25 5.2-8.2 3.9-2.85 7.85-1.85 4 1.15 5.85 5.55l.3.85q-6.1 17.1-19.75 9.05" fill="#fee801" fill-rule="evenodd" transform="translate(1.5 1.5)"/><path d="M68.05 21q1.45 4.1.2 8.85-1.45 5.3-5.3 8.25-3.8 2.95-7.85 1.85-3.95-1.05-5.85-5.55-.85-2.1-.95-4.35Q61.95 38.1 68.05 21" fill="#e4a001" fill-rule="evenodd" transform="translate(1.5 1.5)"/><path d="M69.55 22.5q1.45 4.1.2 8.85-1.45 5.3-5.3 8.25-3.8 2.95-7.85 1.85-3.95-1.05-5.85-5.55-.85-2.1-.95-4.35-.25-2.6.55-5.4 1.35-5.25 5.2-8.2 3.9-2.85 7.85-1.85 4 1.15 5.85 5.55l.3.85z" fill="none" stroke="#831b00" stroke-linecap="round" stroke-linejoin="round" stroke-width="2.5"/><path d="M66.65 32.75q1.6-4.1 1.05-9.65 3.05-.2 4.55 1.1.45 6.9-1.95 8.95-2 1.4-3.65-.4m8.75-3.65q3.3.95 3.4 1.15.85 1.1-1.65 3.05-3.85-.6-1.75-4.2" fill="#fe971e" fill-rule="evenodd" transform="translate(1.5 1.5)"/><path d="M72.25 24.2q1.45 1.4 1.3 4.35l1.85.55q-2.1 3.6 1.75 4.2l-1.9 1.35 6.1.6q.5 3.7-.3 3.25-3.85.05-7.65-2.75l-3.05 1.5q-3.35 4-9.4 2.6 4-2.85 5.7-7.1 1.65 1.8 3.65.4 2.4-2.05 1.95-8.95m1.15 11.55 1.85-1.1-1.85 1.1m-3.05 1.5q1.45-1.9 2.45-5l.75-3.7-.75 3.7q-1 3.1-2.45 5" fill="#e36a0d" fill-rule="evenodd" transform="translate(1.5 1.5)"/><path d="M68.15 34.25q1.6-4.1 1.05-9.65 3.05-.2 4.55 1.1 1.45 1.4 1.3 4.35l1.85.55q3.3.95 3.4 1.15.85 1.1-1.65 3.05l-1.9 1.35 6.1.6q.5 3.7-.3 3.25-3.85.05-7.65-2.75l-3.05 1.5q-3.35 4-9.4 2.6 4-2.85 5.7-7.1m6.9-4.2-.75 3.7q-1 3.1-2.45 5m4.9-2.6-1.85 1.1" fill="none" stroke="#831b00" stroke-linecap="round" stroke-linejoin="round" stroke-width="1.5"/></g><g id="d"><path d="M2.4 10.9 3 9.6q2.1-4.8 5.55-7.45 3.1-2.7 4.75-2 1.75.8.35 4.3-1.2 2.8-2.3 6.9l-.2.65-.9 3.45L7.9 22.2q-1.5 4.1-3.9.3-4.7 2.85-3.9-2.15l.15-.9Q2.4 22 3.95 18.9q1.6-3.05 1.5-7-.1-4-3.05-1" fill="#e19c01" fill-rule="evenodd" transform="translate(1.5 1.5)"/><path d="M.25 19.45q.65-4.25 1.4-6.1l.75-2.45q2.95-3 3.05 1 .1 3.95-1.5 7-1.55 3.1-3.7.55m2.2-.7q.5-.05.75-.45l.25-.75q-.05-.5-.45-.85l-.75-.15q-.45 0-.8.3-.25.4-.2.9 0 .45.4.7l.8.3" fill="#fee801" fill-rule="evenodd" transform="translate(1.5 1.5)"/><path d="m2.45 18.75-.8-.3q-.4-.25-.4-.7-.05-.5.2-.9.35-.3.8-.3l.75.15q.4.35.45.85l-.25.75q-.25.4-.75.45" fill="#fffac6" fill-rule="evenodd" transform="translate(1.5 1.5)"/><path d="m3.9 12.4.6-1.3q2.1-4.8 5.55-7.45 3.1-2.7 4.75-2 1.75.8.35 4.3-1.2 2.8-2.3 6.9l-.2.65-.9 3.45L9.4 23.7q-1.5 4.1-3.9.3-4.7 2.85-3.9-2.15l.15-.9q.65-4.25 1.4-6.1l.75-2.45z" fill="none" stroke="#831b00" stroke-linecap="round" stroke-linejoin="round" stroke-width="3"/><path d="M2.4 10.9 3 9.6q2.1-4.8 5.55-7.45 3.1-2.7 4.75-2 1.75.8.35 4.3-1.2 2.8-2.3 6.9l-.2.65-.9 3.45L7.9 22.2q-1.5 4.1-3.9.3-4.7 2.85-3.9-2.15l.15-.9Q2.4 22 3.95 18.9q1.6-3.05 1.5-7-.1-4-3.05-1" fill="#e19c01" fill-rule="evenodd" transform="translate(1.5 1.5)"/><path d="M.25 19.45q.65-4.25 1.4-6.1l.75-2.45q2.95-3 3.05 1 .1 3.95-1.5 7-1.55 3.1-3.7.55m2.2-.7q.5-.05.75-.45l.25-.75q-.05-.5-.45-.85l-.75-.15q-.45 0-.8.3-.25.4-.2.9 0 .45.4.7l.8.3" fill="#fee801" fill-rule="evenodd" transform="translate(1.5 1.5)"/><path d="m2.45 18.75-.8-.3q-.4-.25-.4-.7-.05-.5.2-.9.35-.3.8-.3l.75.15q.4.35.45.85l-.25.75q-.25.4-.75.45" fill="#fffac6" fill-rule="evenodd" transform="translate(1.5 1.5)"/><path d="m3.9 12.4.6-1.3q2.1-4.8 5.55-7.45 3.1-2.7 4.75-2 1.75.8.35 4.3-1.2 2.8-2.3 6.9l-.2.65-.9 3.45L9.4 23.7q-1.5 4.1-3.9.3-4.7 2.85-3.9-2.15l.15-.9q.65-4.25 1.4-6.1l.75-2.45z" fill="none" stroke="#831b00" stroke-linecap="round" stroke-linejoin="round" stroke-width="2"/></g><g id="e"><path d="m24.5 3.05.55.6q.1.45-3.65 6.85-3.75 6.35-8.3 11.75-4.65 5.35-9.15 3.4-2.9-.5-3.7-2.65-.9-1.9 1.3-6.7 2.2-4.8 6.4-10.55Q12.15 0 12.35 0l.6.3.35.55 9.95 2.45q.15-.25.45-.35l.8.1m-5.05.4q-3.35 10.3-5.9 14.35-1.65 2.6-3.6 4.65l1.45-1.25.5-.5q4.7-4.9 10.8-16.5l-3.25-.75M8.3 8.3l.25-.35-.25.4V8.3M5.65 23.9l1.3.05-1.3-.05" fill="#262f2c" fill-rule="evenodd" transform="translate(1.5 1.5)"/><path d="m26 4.55-.8-.1q-.3.1-.45.35L14.8 2.35l-.35-.55-.6-.3q-.2 0-4.4 5.75T3.05 17.8q-2.2 4.8-1.3 6.7.8 2.15 3.7 2.65 4.5 1.95 9.15-3.4 4.55-5.4 8.3-11.75 3.75-6.4 3.65-6.85l-.55-.6m-5.05.4q-3.35 10.3-5.9 14.35-1.65 2.6-3.6 4.65l1.45-1.25.5-.5q4.7-4.9 10.8-16.5l-3.25-.75M9.8 9.8l.25-.35-.25.4V9.8M7.15 25.4l1.3.05-1.3-.05z" fill="none" stroke="#831b00" stroke-linecap="round" stroke-linejoin="round" stroke-width="3"/><path d="M9.8 22.6q-2.85 2.05-4.95 1l-.45-.1q-.3 0-.3-1.4-.1-1.5 3.05-6.15L9.9 11.6l-.15.1v-.1L6.35 16q-3.2 4.3-3.15 7.05l-.9-.85q-.5-1.4.4-3.8 1.95-5.75 10.35-16.5l6.4 1.55q-3.35 10.3-5.9 14.35-1.7 2.7-3.75 4.8" fill="#e19c01" fill-rule="evenodd" transform="translate(1.5 1.5)"/><path d="m19.45 3.45 3.25.75q-6.1 11.6-10.8 16.5l-2.1 1.9q2.05-2.1 3.75-4.8 2.55-4.05 5.9-14.35" fill="#bfff00" fill-rule="evenodd" transform="translate(1.5 1.5)"/><path d="M3.15 24.15q-1.55-.75-1.55-3.7.05-2.85 1.65-6.15 1.6-3.35 3.85-5.2 2.3-1.8 3.85-1.05 1.5.75 1.45 3.6 0 2.9-1.6 6.25-1.6 3.3-3.9 5.1-2.25 1.9-3.75 1.15" fill="#fee801" fill-rule="evenodd" transform="translate(1.5 1.5)"/><path d="m9.75 11.7.15-.1-2.75 4.35Q4 20.6 4.05 22.1q0 1.4.35 1.4l.4.1q2.85 1.45 7.1-2.9 4.65-4.9 10.8-16.5l-9.65-2.3Q4.6 12.65 2.65 18.4q-.85 2.4-.35 3.8.25.55.85.85Q3.1 20.3 6.3 16l3.45-4.4v.1m13.5-8.4q.15-.25.45-.35l.8.1.55.6q.1.45-3.65 6.85-3.75 6.35-8.3 11.75-4.65 5.35-9.15 3.4-2.9-.5-3.7-2.65-.9-1.9 1.3-6.7 2.2-4.8 6.4-10.55Q12.15 0 12.35 0l.6.3.35.55 9.95 2.45" fill="#831b00" fill-rule="evenodd" transform="translate(1.5 1.5)"/></g><g id="f"><path d="m22.7 4.2-.65-.15.6.15q-6.1 11.6-10.8 16.5L9 23.1l-.55.3.5-.25 2.95-2.45q4.65-4.9 10.8-16.5M1.55 16.3q2.2-4.8 6.4-10.55Q12.15 0 12.35 0l.6.3.35.55 9.95 2.45q.15-.25.45-.35l.8.1.55.6q.1.45-3.65 6.85-3.75 6.35-8.3 11.75-3.85 4.45-7.6 3.85l-1.55-.45q-2.9-.5-3.7-2.65-.9-1.9 1.3-6.7" fill="#262f2c" fill-rule="evenodd" transform="translate(1.5 1.5)"/><path d="M3.05 17.8q-2.2 4.8-1.3 6.7.8 2.15 3.7 2.65L7 27.6q3.75.6 7.6-3.85 4.55-5.4 8.3-11.75 3.75-6.4 3.65-6.85l-.55-.6-.8-.1q-.3.1-.45.35L14.8 2.35l-.35-.55-.6-.3q-.2 0-4.4 5.75T3.05 17.8m6.9 7.1.55-.3 2.85-2.4q4.7-4.9 10.8-16.5l-.6-.15.65.15" fill="none" stroke="#831b00" stroke-linecap="round" stroke-linejoin="round" stroke-width="3"/><path d="m12.35 0 .6.3.35.55 9.95 2.45q.15-.25.45-.35l.8.1.55.6q.1.45-3.65 6.85-3.75 6.35-8.3 11.75-3.85 4.45-7.6 3.85l-1.55-.45q-2.9-.5-3.7-2.65-.9-1.9 1.3-6.7 2.2-4.8 6.4-10.55Q12.15 0 12.35 0m-4 8.25Q4 14.5 2.65 18.4q-.85 2.4-.35 3.8.25.55.85.85Q3.1 20.3 6.3 16l3.45-4.4v.1l.15-.1-2.75 4.35Q4 20.6 4.05 22.1q0 1.4.35 1.4l.4.1.75.3 2.9-.5.5-.25 2.95-2.45q4.65-4.9 10.8-16.5l-.65-.15-1.45-.35-7.55-1.8-4.7 6.35" fill="#831b00" fill-rule="evenodd" transform="translate(1.5 1.5)"/><path d="m5.55 23.9-.75-.3-.4-.1q-.35 0-.35-1.4-.05-1.5 3.1-6.15L9.9 11.6l-.15.1v-.1L6.3 16q-3.2 4.3-3.15 7.05-.6-.3-.85-.85-.5-1.4.35-3.8Q4 14.5 8.35 8.25q1.5-.8 2.6-.25 1.5.75 1.45 3.6 0 2.9-1.6 6.25-1.6 3.3-3.9 5.1l-1.35.95" fill="#fee801" fill-rule="evenodd" transform="translate(1.5 1.5)"/><path d="m8.35 8.25 4.7-6.35 7.55 1.8-3.05 6.75Q14.05 18.2 9 23.1l-.55.3-2.9.5 1.35-.95q2.3-1.8 3.9-5.1 1.6-3.35 1.6-6.25.05-2.85-1.45-3.6-1.1-.55-2.6.25" fill="#e19c01" fill-rule="evenodd" transform="translate(1.5 1.5)"/><path d="m20.6 3.7 1.45.35.6.15q-6.1 11.6-10.8 16.5L9 23.1q5.05-4.9 8.55-12.65L20.6 3.7" fill="#bfff00" fill-rule="evenodd" transform="translate(1.5 1.5)"/></g><g id="g"><path d="m25.7 1.55.3-.05q2.25-.25 3.35 2.6 4.95 3.95 6.2 10.25 2.1 1.3 1.45 6.3v.1q-.45 1.95-2 2.7Q32.05 30.3 24.75 33h.05q-3 1.25-8.1 1.15h-.05q-7.4-.3-11.25-5.05-2.7-3.2-3.7-8.35-1.85-1.2-1.7-2.65v-.05q.1-3.5.95-5.1.8-1.8 2.2-2Q5.4 4.8 12.05 1.7 13-.05 15.7 0l.55.2q4.5 3 9.45 1.35" fill="#262f2c" fill-rule="evenodd" transform="translate(1.15 1.15)"/><path d="M26.85 2.7Q21.9 4.35 17.4 1.35l-.55-.2q-2.7-.05-3.65 1.7-6.65 3.1-8.9 9.25-1.4.2-2.2 2-.85 1.6-.95 5.1v.05Q1 20.7 2.85 21.9q1 5.15 3.7 8.35Q10.4 35 17.8 35.3h.05q5.1.1 8.1-1.15h-.05q7.3-2.7 10.25-9.55 1.55-.75 2-2.7v-.1q.65-5-1.45-6.3-1.25-6.3-6.2-10.25-1.1-2.85-3.35-2.6l-.3.05z" fill="none" stroke="#831b00" stroke-linecap="round" stroke-linejoin="round" stroke-width="2.3"/><path d="M26.85 4.15q-7.4 2.75-12.4-1.75l.95-.2q5.05 3.3 10.8 1.55l.65.4M7.75 13.5q-1.3-.8-2.5-1.8 1.9-5.15 7.45-7.9 6.15 6 15.55 2.2 3.95 3.3 5.1 8.45l-4 1.65.65-.2q-12.2 4.95-22.25-2.4m4.8.05q.95.9 1.8 1.3 7.3 3 14.5.3 1.1-.5 1.4-1.2 2.3-4.25-.65-5.75l-1.75-.1-12.05.35q-1.55-.5-2.75.5-2.3 1.7-.5 4.6M24.3 30.8q-.55-2.95-3.45-2.5-1.85.35-2.3 1.95-3.4.3-6.6-.75.2-2.3-1.3-3.3-2.5-.85-3.85 1.15-1.6-2.1-2.5-5 13 5.4 27.7 2.15-2.6 4.35-7.7 6.3" fill="#e2690c" fill-rule="evenodd" transform="translate(1.15 1.15)"/><path d="M12.55 13.55q-1.8-2.9.5-4.6 1.2-1 2.75-.5l12.05-.35 1.75.1q2.95 1.5.65 5.75-.3.7-1.4 1.2-7.2 2.7-14.5-.3-.85-.4-1.8-1.3" fill="#fb971d" fill-rule="evenodd" transform="translate(1.15 1.15)"/><path d="m29.65 18.35 4.8-2q.75 1 .35 4.05l.05-.1q-.2.8-.85 1.1l-.3.15q-17.05 6.25-30.3-2.3l-.1-.1-.15-.15-.25-.1-.7-.75q.1-2.95.7-4.3.3-.55.7-.6l2.2 1.6q-1 .65-.45 2.35.2.9 1.5 1.75 10.3 6.7 21.25 2.55 2.8-2 1.55-3.15" fill="#fa961c" fill-rule="evenodd" transform="translate(1.15 1.15)"/><path d="m5.8 14.85.75.55q10.1 5.4 23.2 2.9l-.1.05q1.25 1.15-1.55 3.15-10.95 4.15-21.25-2.55-1.3-.85-1.5-1.75-.55-1.7.45-2.35" fill="#ffd064" fill-rule="evenodd" transform="translate(1.15 1.15)"/><path d="M6.8 27.35q1.35-2 3.85-1.15 1.5 1 1.3 3.3 3.2 1.05 6.6.75.45-1.6 2.3-1.95 2.9-.45 3.45 2.5l-.3.15V31q-2.7 1.05-7.25.9-6.25-.25-9.65-4.2l-.3-.35" fill="#050505" fill-rule="evenodd" transform="translate(1.15 1.15)"/><path d="M26 1.5q2.25-.25 3.35 2.6 4.95 3.95 6.2 10.25 2.1 1.3 1.45 6.3v.1q-.45 1.95-2 2.7Q32.05 30.3 24.75 33h.05q-3 1.25-8.1 1.15h-.05q-7.4-.3-11.25-5.05-2.7-3.2-3.7-8.35-1.85-1.2-1.7-2.65v-.05q.1-3.5.95-5.1.8-1.8 2.2-2Q5.4 4.8 12.05 1.7 13-.05 15.7 0l.55.2q4.5 3 9.45 1.35l.3-.05m-18.25 12Q17.8 20.85 30 15.9l-.65.2 4-1.65Q32.2 9.3 28.25 6q-9.4 3.8-15.55-2.2-5.55 2.75-7.45 7.9 1.2 1 2.5 1.8m19.1-9.35-.65-.4Q20.45 5.5 15.4 2.2l-.95.2q5 4.5 12.4 1.75m2.8 14.2.1-.05q-13.1 2.5-23.2-2.9l-.75-.55-2.2-1.6q-.4.05-.7.6-.6 1.35-.7 4.3l.7.75.25.1.15.15.1.1q13.25 8.55 30.3 2.3l.3-.15q.65-.3.85-1.1l-.05.1q.4-3.05-.35-4.05l-4.8 2M24.3 30.8q5.1-1.95 7.7-6.3-14.7 3.25-27.7-2.15.9 2.9 2.5 5l.3.35q3.4 3.95 9.65 4.2 4.55.15 7.25-.9v-.05l.3-.15" fill="#831b00" fill-rule="evenodd" transform="translate(1.15 1.15)"/><path d="M17.15 10.95q0 .8-.55 1.35t-1.3.55q-.8 0-1.35-.55t-.55-1.35q0-.75.55-1.3t1.35-.55q.75 0 1.3.55t.55 1.3m8.55-.6q1.3-.15 1.35.9 0 1.05-1.3 1.75-1.25.75-2.9.65l-3.1-.6q-1.35-.5-1.35-1.85 0-1.4 1.25-1.2l3.05.35q1.75.2 3 0" fill="#ffbd4d" fill-rule="evenodd" transform="translate(1.15 1.15)"/><path d="M34.05 20.4q-.5.55-1.25.55-.8 0-1.35-.55-.5-.5-.5-1.3 0-.75.5-1.3.55-.5 1.35-.5.75 0 1.25.5.55.55.55 1.3 0 .8-.55 1.3" fill="#ffd064" fill-rule="evenodd" transform="translate(1.15 1.15)"/></g><g id="h"><path d="m41.6 1.4.7.2q1.6.75 2.9 2.55 3.55 5.2 4.65 19.3.8 10.05-3.7 13.15-4.1 3.35-12.95-.2-11.05 1.2-18-1.6l-5.5.65q-7.85 0-9.3-6.8-2.05-7.9 6.3-26.25l.25-.45 1.5-1.5Q8.95 0 9.6 0l32 1.4" fill="#262f2c" fill-rule="evenodd" transform="translate(1.5 16.05)"/><path d="m43.1 17.45-32-1.4q-.65 0-1.15.45L8.45 18l-.25.45Q-.15 36.8 1.9 44.7q1.45 6.8 9.3 6.8l5.5-.65q6.95 2.8 18 1.6 8.85 3.55 12.95.2 4.5-3.1 3.7-13.15-1.1-14.1-4.65-19.3-1.3-1.8-2.9-2.55l-.7-.2z" fill="none" stroke="#831b00" stroke-linecap="round" stroke-linejoin="round" stroke-width="3"/><path d="M41.5-11.9q.1 1.2 2.5 13.6l3.35 17.8q1.9 11.8-1.65 14.8-3.65 3.05-6.95 2.15-3.35-.85-5.15-1.8l-6.8.55-6.65-.55q-2.9-.55-5.45-1.6-2.6-1.05-5.45-4.1 3.5 1.9 12.05 2.65 8.65 0 13.5-5.4 4.35-4.85 4.35-12.2l.2-13q-.1-11.15-1.65-13.15l3.8.25" fill="#e29200" fill-rule="evenodd" transform="translate(1.5 16.05)"/><path d="M9.25 28.95q1.05 3 4.15 5-1.25.55-5.05 0l-.85-.15q-1.35-.5-2.45-2.55-1.5-2.7-.55-7.8 1.4 2.45 2.55 2.45 1.3 0 2.65-1.3 1.55-1.55 1.55-3.8 0-1.7-1.3-3.6-1.45-2.05-3-2.05-.9 0-1.75.7Q6.4 8.5 7.75 1.45L8.05 0l.9-3.7 2-8.45.3-.8 26.45.8q1.55 2 1.65 13.15l-.2 13q0 7.35-4.35 12.2-4.85 5.4-13.5 5.4-8.55-.75-12.05-2.65" fill="#fee801" fill-rule="evenodd" transform="translate(1.5 16.05)"/><path d="M41.5-11.9q1.8 2.8 4.85 15.65 2.95 12.75 3.5 19.7.8 10.05-3.7 13.15-4.1 3.35-12.95-.2-11.05 1.2-18-1.6l-5.5.65q-7.85 0-9.3-6.8-1.05-4.15 1.75-18.5 2.95-15 6.95-23.8l.25-.45 1.5-1.5 1.15-.45 25.9 1.4.7.2q1.65.7 2.9 2.55l-3.8-.25-26.45-.8h-.15l-.15.8-2 8.45-.9 3.7q-1.85 7.05-3 9.25Q1.5 16 1.35 24.3q-.15 8.25 5.2 9.3l.95.2.85.15q3.8.55 5.05 0-3.1-2-4.15-5 2.85 3.05 5.45 4.1 2.55 1.05 5.45 1.6l6.65.55 6.8-.55q1.8.95 5.15 1.8 3.3.9 6.95-2.15 3.55-3 1.65-14.8L44 1.7q-2.4-12.4-2.5-13.6" fill="#831b00" fill-rule="evenodd" transform="translate(1.5 16.05)"/><path d="m7.5 33.8-.95-.2q-5.35-1.05-5.2-9.3.15-8.3 3.7-15.05 1.15-2.2 3-9.25l-.3 1.45Q6.4 8.5 5.2 15.85q.85-.7 1.75-.7 1.55 0 3 2.05 1.3 1.9 1.3 3.6 0 2.25-1.55 3.8-1.35 1.3-2.65 1.3-1.15 0-2.55-2.45-.95 5.1.55 7.8 1.1 2.05 2.45 2.55m3.45-45.95.15-.8h.15l-.3.8" fill="#fef8ab" fill-rule="evenodd" transform="translate(1.5 16.05)"/><path d="M32.95 18.15q-.95 1.5-4.25 4.1v5.55q-.25 1.6-2.45.3-2.2-1.4-4-1.85l-2.7-.1-4.65 1.55q-1.15.05-1.1-.95-.1-2.5.1-5.45l-2.5-4.2q-1.55-2.35.35-2.6l6.2-1 3.3-4.2q1.05-1.3 2.3.7l2.85 4.35 5.55 1.35q2.25.5 1 2.45" fill="#e16a0c" fill-rule="evenodd" transform="translate(1.5 16.05)"/><path d="M13.9 21.75v-.45l-2.5-4.2-.5-.85-.05-1.1v-.2q.2-.35.9-.45l6.2-1 3.3-4.2q1.05-1.3 2.3.7l2.85 4.35 1.65.4v.4q0 3.55-2.55 6.05-2.5 2.55-6.05 2.55-3.2 0-5.55-2" fill="#f68d1a" fill-rule="evenodd" transform="translate(1.5 16.05)"/><path d="M28.7 22.25v5.55q-.25 1.6-2.45.3-2.2-1.4-4-1.85l-2.7-.1-4.65 1.55q-1.15.05-1.1-.95-.1-2.5.1-5.45l-2.5-4.2q-1.55-2.35.35-2.6l6.2-1 3.3-4.2q1.05-1.3 2.3.7l2.85 4.35 5.55 1.35q2.25.5 1 2.45-.95 1.5-4.25 4.1z" fill="none" stroke="#831b00" stroke-linecap="round" stroke-linejoin="round" transform="translate(1.5 16.05)"/><path d="M22.25 20.4q-1.15 1-2.8 1t-2.85-1q-1.15-1-1.15-2.45 0-1.45 1.15-2.45 1.2-1.05 2.85-1.05 1.65 0 2.8 1.05 1.15 1 1.15 2.45 0 1.45-1.15 2.45" fill="#ffd064" fill-rule="evenodd" transform="translate(1.5 16.05)"/></g><g id="i" fill-rule="evenodd"><path d="m6.05.95.4-.3.8-.55q1.9-.25 3.85 2 6.5 7.65 9.1 12.2 1.6 2.85 1.8 4.65.35 2.75-1.6 3.85l-.65.25-1.95.1-2.05-.2-.1.15q-1.4 2.1-2.6 2.8-2.4 1.45-4.4-.85L8.6 25Q5 20.65 3.35 17.8q-1.7-2.9-2.15-4.6-.4-1.2-.55-2.85l-.1-1.6q.85 2.5 2.4 5 2.25 3.7 6 7.3l2.2 1.85.9-.2.8-1 .3-.6q.6-1.4 1.15-1.55.5-.25 1.95.4l1 .25q.8 0 1.55-.75.55-.3-1.9-5.25-2.5-5-5.75-8.85-2.3-2.8-3.9-3.85-.65-.4-1.2-.55" fill="#831b00"/><path d="m12.85 21.7-.8 1-.9.2-2.2-1.85q-3.75-3.6-6-7.3 2.8 3.4 7.3 6.35l2.6 1.6" fill="#fee801"/><path d="M.55 8.75Q-.6 5.65.6 3.85 2.55 1.8 6.05.95q.55.15 1.2.55 1.8 2.15 5 7.2 3.6 5.85 5 11.5l-1-.25q-1.45-.65-1.95-.4-.55.15-1.15 1.55l-.3.6-2.6-1.6q-4.5-2.95-7.3-6.35-1.55-2.5-2.4-5" fill="#e29200"/><path d="M7.25 1.5q1.6 1.05 3.9 3.85Q14.4 9.2 16.9 14.2q2.45 4.95 1.9 5.25-.75.75-1.55.75-1.4-5.65-5-11.5-3.2-5.05-5-7.2" fill="#bfff00"/></g><g id="j"><path d="m86.2 13.15.25-.1.4-.15.35-.15 5.9-2.45h-.05Q95.6 9.2 96.3 7q1.05-3.8 5.8-3.15l.15.05.85.3h-.1l.5.15.15.1.65.35q5.35 2.55 4.15 8.3 2.45-.1 3.7.5 2.45 1.05 1.7 3.85-.8 2.65-2.7 3.8 2.75 2.55.65 5.2-1.15 1.65-4.15 2.1l-1.45 5.15.7 5.55v.05q.55 9.6-6.25 21.95-.2.4-.6.55l.3.9.25.75 5.65-.8q3.35-.15 3.8 4.4.6 3.45-3.5 10.4 1.95 3.75.6 6.15-.95 2.25-4.8 3.3.95 6.25-4.55 7.95-3.7-.05-5-2L92 91.7q-2.85 2.75-5.25 4.35l-.2.1-2.8 1.45-.5.3q-6 3.35-14.85 3.4l-8.3-.65-1.85-.35v.15l-14.4-.95h-.45q-7.2-.25-16.8-4.65l-6.15-3.15h-.05l-4.9-3.85q-3-2.6-4.6-4.7-1.75.95-3.25.55h.3l-.15-.05-.7-.2q-4.25-2.1-2.8-7.05-3-1.25-3.55-3.25-.85-2.15 1.2-5Q-.7 62 .25 59.2q.85-3.8 6.4-2.7l.3.1.15.05.05.05q2.35 1 4.15 1.25l1.1-.05.7-.7q.45-1.85 1.05-3.6l-.25-.15q-.45-.3-.5-.8-1.6-9-.05-18.35l1.15-5.5-.5-5.4q-2.2-.9-2.8-2.7-1.2-2.7.85-4.65-1.1-.75-1.3-2-.65-2.85 1.15-4.2 1.1-1 3.45-1.25-.4-6.2 4.1-8l.85-.35-.05.05.45-.1.5-.15.25-.05q2.05 0 2.8 1.2.8 1 .4 3.05l-.05.05q-.35 1.8 2 3.25l5.25 3.65.15.1.15.15.35.25.45.35v.05l1.65 1.45q-.45.5-.4 1.1.05.65.55 1.1 1.95 1.75 8.4 11.1l.1.25q.2.5.75.8l1.05.15 6.85-.9 8.35.35h.05q2.7.25 5.1 1.1l.8.1.75-.35.4-.55 2.15-1.7.1-.1q10.25-8.2 12.7-9.3 2.4-1.05 2.1-1.45l-.5-.65-.2-.35q2-1 2.6-1.1h-.1" fill="#87f3e9" fill-rule="evenodd" transform="translate(1.5 1.5)"/><path d="m83.7 14.25.2.35.5.65q.3.4-2.1 1.45-2.45 1.1-12.7 9.3l-.1.1-2.15 1.7-.4.55-.75.35-.8-.1q-2.4-.85-5.1-1.1h-.05l-8.35-.35-6.85.9L44 27.9q-.55-.3-.75-.8l-.1-.25q-6.45-9.35-8.4-11.1-.5-.45-.55-1.1-.05-.6.4-1.1.4-.5 1.05-.55.65-.05 1.15.4 2.05 1.75 8.05 12.7L51.3 25l8.15.4 6.3 1q7.9-7.8 11.2-10 3.3-2.25 5.3-3.2 2-.95 1.6-.2-.45.7-.15 1.25" fill="#831b00" fill-rule="evenodd" transform="translate(1.5 1.5)"/><path d="m107.7 35.2 1.45-5.15q3-.45 4.15-2.1 2.1-2.65-.65-5.2 1.9-1.15 2.7-3.8.75-2.8-1.7-3.85-1.25-.6-3.7-.5 1.2-5.75-4.15-8.3l-.65-.35-.15-.1-.5-.15h.1l-.85-.3-.15-.05q-4.75-.65-5.8 3.15-.7 2.2-3.25 3.3h.05l-5.9 2.45-.35.15-.4.15-.25.1m-51.6.4-1.65-1.45v-.05L34 13.2l-.35-.25-.15-.15-.15-.1-5.25-3.65q-2.35-1.45-2-3.25l.05-.05q.4-2.05-.4-3.05-.75-1.2-2.8-1.2l-.25.05-.5.15-.45.1.05-.05-.85.35q-4.5 1.8-4.1 8-2.35.25-3.45 1.25-1.8 1.35-1.15 4.2.2 1.25 1.3 2-2.05 1.95-.85 4.65.6 1.8 2.8 2.7l.5 5.4-1.15 5.5" fill="none" stroke="#4f3131" stroke-linecap="round" stroke-linejoin="round" stroke-width="3"/><path d="M87.7 14.65h.1q-.6.1-2.6 1.1M14.85 35.8q-1.55 9.35.05 18.35.05.5.5.8l.25.15q-.6 1.75-1.05 3.6l-.7.7-1.1.05Q11 59.2 8.65 58.2l-.05-.05-.15-.05-.3-.1q-5.55-1.1-6.4 2.7-.95 2.8 1.7 8.95-2.05 2.85-1.2 5 .55 2 3.55 3.25-1.45 4.95 2.8 7.05l.7.2.15.05h-.3q1.5.4 3.25-.55 1.6 2.1 4.6 4.7l4.9 3.85h.05l6.15 3.15q9.6 4.4 16.8 4.65h.45l14.4.95v-.15l1.85.35 8.3.65q8.85-.05 14.85-3.4l.5-.3 2.8-1.45.2-.1q2.4-1.6 5.25-4.35l.8 1.15q1.3 1.95 5 2 5.5-1.7 4.55-7.95 3.85-1.05 4.8-3.3 1.35-2.4-.6-6.15 4.1-6.95 3.5-10.4-.45-4.55-3.8-4.4l-5.65.8-.25-.75-.3-.9q.4-.15.6-.55 6.8-12.35 6.25-21.95v-.05l-.7-5.55" fill="none" stroke="#831b00" stroke-linecap="round" stroke-linejoin="round" stroke-width="3"/><path d="m14.55 34.5 1.2-5.6.45-1.65.95-2.7q2.85-6.6 5.9-9.8 1.6-.65 3.3-.45 4.65.55 9.95 7.9 1.2 1.75 1.1 3.05-1.05 3.45-4.15-.85-3.45-4.8-8.1-3.85Q22.8 19.7 21.6 24q-.5 2.75-.7 5.5l-.15 2.5v1q-.95 14.5-4.2 10.85-1.55-2.2-2-9.35" fill="#fee801" fill-rule="evenodd" transform="translate(1.5 1.5)"/><path d="m38.9 28.6-.9.35q-.55 0-.95-.35-.3-.35-.3-.9t.3-.95q.4-.3.95-.3.55 0 .9.3.35.4.35.95 0 .55-.35.9" fill="#ebb203" fill-rule="evenodd" transform="translate(1.5 1.5)"/><path d="m31.2 12.25.4.3.5.45 2.8 2.5q2.25 2 10.3 13.85l-6.4 5.5-4.45-4.25-.1-.1-3.4-4L29 24.05q-2.25-2.95-3.85-3.5 4.65-.95 8.1 3.85 3.1 4.3 4.15.85.1-1.3-1.1-3.05-5.3-7.35-9.95-7.9-1.7-.2-3.3.45 1.35-1.45 2.65-2.2l.5-.25 1.25.05-.75-.25 4.5.15M22.45 48.8l-7.3 6.25q-2.35-10-.6-20.55.45 7.15 2 9.35Q19.8 47.5 20.75 33q-.3 7.85 1.7 15.8M38.9 28.6q.35-.35.35-.9t-.35-.95q-.35-.3-.9-.3t-.95.3q-.3.4-.3.95 0 .55.3.9.4.35.95.35l.9-.35" fill="#e4a001" fill-rule="evenodd" transform="translate(1.5 1.5)"/><path d="m26.65 45.25-4.2 3.55q-2-7.95-1.7-15.8v-1l.15-2.5q.2-2.75.7-5.5 1.2-4.3 3.55-3.45 1.6.55 3.85 3.5l1.85 2.45 3.4 4q-3.4-3.5-5.75-3-4.5 2.4-1.85 17.75" fill="#b36002" fill-rule="evenodd" transform="translate(1.5 1.5)"/><path d="m38.8 34.85-12.15 10.4Q24 29.9 28.5 27.5q2.35-.5 5.75 3l.1.1 4.45 4.25" fill="#b47201" fill-rule="evenodd" transform="translate(1.5 1.5)"/><path d="M21.45 1.25q2.55 0 1.95 2.7-.7 2.65 2.5 4.65l5.3 3.65-4.5-.15q-12.1-2.05-5.25-10.85" fill="#969495" fill-rule="evenodd" transform="translate(1.5 1.5)"/><path d="M19.05 12.2q.55.55.55 1.35 0 .75-.55 1.3t-1.35.55q-.75 0-1.3-.55t-.55-1.3q0-.8.55-1.35t1.3-.55q.8 0 1.35.55" fill="#fefefe" fill-rule="evenodd" transform="translate(1.5 1.5)"/><path d="M21.6 12.7q.35.35.35.8l-.35.7q-.25.3-.7.3-.45 0-.75-.3t-.3-.7q0-.45.3-.8.3-.25.75-.25t.7.25" fill="#dadada" fill-rule="evenodd" transform="translate(1.5 1.5)"/><path d="m15.75 28.9-.6-6.4q-2.2-.7-2.8-2.25-1.1-2.8 2.4-4.55-2.4-.35-2.8-1.95-.9-3.95 4.75-3.95-.85-6.3 3.25-8.05l.7-.3.25-.05.55-.15q-6.85 8.8 5.25 10.85-.3.05-.5.2l-.5.25q-1.3.75-2.65 2.2-3.05 3.2-5.9 9.8l-.95 2.7-.45 1.65m5.85-16.2q-.25-.25-.7-.25-.45 0-.75.25-.3.35-.3.8 0 .4.3.7.3.3.75.3t.7-.3l.35-.7q0-.45-.35-.8m-2.55-.5q-.55-.55-1.35-.55-.75 0-1.3.55t-.55 1.35q0 .75.55 1.3t1.3.55q.8 0 1.35-.55t.55-1.3q0-.8-.55-1.35" fill="#636363" fill-rule="evenodd" transform="translate(1.5 1.5)"/><path d="m31.2 12.25.4.3m2.65 17.95.1.1M20.75 32v.5" fill="none" stroke="#831b00" stroke-linecap="round" stroke-linejoin="round" transform="translate(1.5 1.5)"/><path d="m33.1 14.05.5.45 2.8 2.5q2.25 2 10.3 13.85l-6.4 5.5-12.15 10.4-4.2 3.55-7.3 6.25q-2.35-10-.6-20.55l1.2-5.6.45-1.65.95-2.7q2.85-6.6 5.9-9.8 1.35-1.45 2.65-2.2l.5-.25q.2-.15.5-.2l4.5.15" fill="none" stroke="#831b00" stroke-linecap="round" stroke-linejoin="round" stroke-width="2.5"/><path d="M26.65 22.05q1.6.55 3.85 3.5L32.35 28l3.4 4m.1.1 4.45 4.25M22.25 34v.5q-.3 7.85 1.7 15.8m2.7-28.25q-2.35-.85-3.55 3.45-.5 2.75-.7 5.5l-.15 2.5" fill="none" stroke="#831b00" stroke-linecap="round" stroke-linejoin="round" stroke-width="1.5"/><path d="m17.25 30.4-.6-6.4q-2.2-.7-2.8-2.25-1.1-2.8 2.4-4.55-2.4-.35-2.8-1.95-.9-3.95 4.75-3.95-.85-6.3 3.25-8.05l.7-.3.25-.05.55-.15q2.55 0 1.95 2.7-.7 2.65 2.5 4.65l5.3 3.65" fill="none" stroke="#4f3131" stroke-linecap="round" stroke-linejoin="round" stroke-width="2.5"/><path d="m85.95 48.35-3.1-3.8Q80 40.7 75.4 36q7.85-9 11.45-8.45 2.2.3 3.95 8.15 1.5 6.35.2 10.2l-.75 1.7q-1.25 2.1-2.8 2.1l-1.5-1.35" fill="#b47201" fill-rule="evenodd" transform="translate(1.5 1.5)"/><path d="m87.55 13.95 6-2.5q3.1-1.35 3.95-4.1.85-2.75 4.4-2.25 2 1.65 2.3 3.75-.4 7.1-5.1 2.3-2.75 3.7-5.7 3.6l-1.5-.6-4.35-.2" fill="#969495" fill-rule="evenodd" transform="translate(1.5 1.5)"/><path d="M93.4 14.75q2.95.1 5.7-3.6 4.7 4.8 5.1-2.3-.3-2.1-2.3-3.75l.7.25.4.15.75.4q5.15 2.55 3 8.6 6.8-.8 5.9 2.6-1 3.35-4.25 3.65 4.15 2.5 2.35 4.95-1.05 1.45-4.1 1.7l-1.75 6.2-.25-1.7-.8-2.95q-2.7-7.05-6.1-10.85-1.5-1.7-3.1-2.75l-.6-.35-.65-.25" fill="#636363" fill-rule="evenodd" transform="translate(1.5 1.5)"/><path d="m87.55 13.95 4.35.2q14.45 18.8 6.25 38.2-5.5 3.1-3.65-6.3 1.6-4.85-.25-12.75-2.25-9.8-5-10.25-2.2-2.7-4.85-1.7-12.65 6.85-15.05 4.4 10.35-8.25 13.45-9.7 3.4-1.7 3.7-1.7l.5-.2q.3-.15.55-.2" fill="#ffe902" fill-rule="evenodd" transform="translate(1.5 1.5)"/><path d="m91.9 14.15 1.5.6.65.25.6.35q1.6 1.05 3.1 2.75 3.4 3.8 6.1 10.85l.8 2.95.25 1.7.75 5.75q.6 10.85-8.45 25.25l-6.6-10.25-3.6-4.7-1.05-1.3 1.5 1.35-.45-.05.45.05q3.55 2.7 6.1-1.55l.95-2.1q-1.85 9.4 3.65 6.3 8.2-19.4-6.25-38.2m-9.05 30.4-7.5-8.45-1.25-1.4q-12.45-1.9-7.45-6.8l2.7-2.15q2.4 2.45 15.05-4.4 2.65-1 4.85 1.7-4.7-.65-15.15 11.65l1.3 1.3q4.6 4.7 7.45 8.55m-7.5-8.45.05-.1-.05.1" fill="#e29200" fill-rule="evenodd" transform="translate(1.5 1.5)"/><path d="M89.25 23.05q2.75.45 5 10.25 1.85 7.9.25 12.75l-.95 2.1Q91 52.4 87.45 49.7q1.55 0 2.8-2.1l.75-1.7q1.3-3.85-.2-10.2-1.75-7.85-3.95-8.15Q83.25 27 75.4 36l-1.3-1.3q10.45-12.3 15.15-11.65" fill="#b36000" fill-rule="evenodd" transform="translate(1.5 1.5)"/><path d="M87 14.15q.3-.15.55-.2" fill="none" stroke="#831b00" stroke-linecap="round" stroke-linejoin="round" transform="translate(1.5 1.5)"/><path d="m89.05 15.45 4.35.2 1.5.6.65.25.6.35q1.6 1.05 3.1 2.75 3.4 3.8 6.1 10.85l.8 2.95.25 1.7.75 5.75q.6 10.85-8.45 25.25l-6.6-10.25-3.6-4.7-1.05-1.3m-3.1-3.8-7.5-8.45-1.25-1.4q-12.45-1.9-7.45-6.8l2.7-2.15Q81.2 19 84.3 17.55q3.4-1.7 3.7-1.7l.5-.2" fill="none" stroke="#831b00" stroke-linecap="round" stroke-linejoin="round" stroke-width="2.5"/><path d="m87.45 49.85-3.1-3.8m6.4-21.5q2.75.45 5 10.25 1.85 7.9.25 12.75l-.95 2.1q-2.55 4.25-6.1 1.55l-1.5-1.35M76.9 37.5l-.05.1m-1.25-1.4q10.45-12.3 15.15-11.65m-2.25 26.6.45.05" fill="none" stroke="#831b00" stroke-linecap="round" stroke-linejoin="round" stroke-width="1.5"/><path d="M103.4 6.6q-3.55-.5-4.4 2.25-.85 2.75-3.95 4.1l-6 2.5M103.4 6.6l.7.25.4.15.75.4q5.15 2.55 3 8.6 6.8-.8 5.9 2.6-1 3.35-4.25 3.65 4.15 2.5 2.35 4.95-1.05 1.45-4.1 1.7l-1.75 6.2" fill="none" stroke="#4f3131" stroke-linecap="round" stroke-linejoin="round" stroke-width="2.5"/><path d="M102.6 9.85q-.15.95-.85 1.65-.65.6-1.4.5-.8-.15-1.25-.95-.4-.8-.25-1.75.15-1 .8-1.7.7-.6 1.45-.45.75.1 1.2.9.45.8.3 1.8" fill="#fefefe" fill-rule="evenodd" transform="translate(1.5 1.5)"/><path d="M100.6 15.45q-.4-.5-.35-1.1.15-.6.6-.9.35-.3.95-.25.6.15 1 .6.35.55.2 1.15-.05.6-.45.9l-1.1.2q-.55-.05-.85-.6" fill="#dadada" fill-rule="evenodd" transform="translate(1.5 1.5)"/><path d="M47.5 61.55q-1.05.95-2.5.95-1.5 0-2.6-.95-.95-.85-.95-2.05 0-1.2.95-2.15 1.1-.8 2.6-.8 1.45 0 2.5.8 1.05.95 1.05 2.15t-1.05 2.05" fill="#e3a900" fill-rule="evenodd" transform="translate(1.5 1.5)"/><path d="M46.55 28.75Q39.9 29.9 34.2 33.3q-1.9 1.1-3.7 2.5l-.25.2q-12.5 9.65-15.15 24.1l-.45 2.5-.3 1.25-.15 1-2.55 14 .1.4q.75 2.6 5.55 6.75l4.6 3.65q5.55 3.9 11.15 6.2 4.75 1.95 9.55 2.75l4.55.4-2.15.45-1.15.05h-.45q-5.95-.2-13.45-3.2l-3.35-1.45-6.15-3.15h-.05l-4.9-3.85Q9.25 82.45 9 79.1v-.45l3.2-17.2.35-1.85q2.1-11.05 9.5-19.45 2.85-3.3 6.55-6.2 10.05-7.8 23.2-8.35l8.65.35q4.65.5 8.4 2.5 3.35 1.75 4.35 3.6l-.65-.3q-3.5-1.65-7.4-2.5l-.5-.1-3.55-.55-1-.15q-7.2-.85-13.55.3m11.7 71.55q11.25 0 18.7-2.5l3.55-1.45.95-.45q4.45-1.9 9.3-6.75l.5-.5q6.25-6.3 7-16.15.25-2.65 0-5.25l-.35-2.6-.15-1-.25-.8-.1-.65q-.95-4.25-3.3-8.5l.1.05q3.35 3.35 4.15 4.6.9 1.2 2 4.35.55 1.55.65 4.9.05 3.45-.4 8.9-.7 8-7.6 14.2-3.45 3.5-6.25 5.35l-.2.1-2.8 1.45-.5.3q-6 3.35-14.85 3.4l-8.3-.65-1.85-.35M88.6 44.9l-.05-.1v.1q-4.45-5.8-10.1-9.7-1.75-1.3-3.55-2.25l1.35-1.75q1.75.55 3.3 1.65 6.1 4.05 11.05 10.45l3.6 5.25-1.5 2.4q-1.85-3-4.1-6.05" fill="#831b00" fill-rule="evenodd" transform="translate(1.5 1.5)"/><path d="m46.55 28.75-2.75 1.6-3.05.7q-3.3.9-6.55 2.25 5.7-3.4 12.35-4.55m-2.75 1.6q20.2-.2 31.4 11.5 11.15 11.65 7.55 27.6Q79.1 85.4 68.15 91.6 57.2 97.75 38 96.45l4.6 2.15q-4.8-.8-9.55-2.75l4.65.6h.3q-3.85-1.9-12.45-7.4-8.6-5.55-9-12.15-.45-6.65 3.5-9.9 3.9-3.25 7.35-3.8l-.2-.45Q25.85 59.3 25.85 55q0-3.75 1-7 .95 1.4 2.7 1.4 2.85 0 6.7-3.95 3.7-3.85 3.7-6.25 0-.8-.8-1.45-1.05-.8-2.9-.8-1.55 0-3.35 1.1 3.85-3.85 10.9-7.7m1.2 69.1.45.15-1.6-.1 1.15-.05m-7.45-52.6-.35.75-.2.9q0 .4.5.9.65.65 1.75.65.8 0 1.6-.8.95-.9.95-2.05l-.15-.8-1.5-.3q-1.8 0-2.6.75" fill="#fee801" fill-rule="evenodd" transform="translate(1.5 1.5)"/><path d="m43.8 30.35 2.75-1.6q6.35-1.15 13.55-.3l1 .15q18.9 7 26.45 18.45Q94 56.9 95.3 64.95l.2 1.4q.3 3.3-.2 6.3-1.95 10.4-5.4 14.7l-.25.35q-3.7 4.2-8.05 7.5-1.55 1.15-4.65 2.6-7.45 2.5-18.7 2.5v.15l-12.8-.85-.45-.15 2.15-.45-4.55-.4-4.6-2.15q19.2 1.3 30.15-4.85 10.95-6.2 14.6-22.15 3.6-15.95-7.55-27.6-11.2-11.7-31.4-11.5" fill="#e29200" fill-rule="evenodd" transform="translate(1.5 1.5)"/><path d="M34.2 33.3q3.25-1.35 6.55-2.25l3.05-.7q-7.05 3.85-10.9 7.7 1.8-1.1 3.35-1.1 1.85 0 2.9.8.8.65.8 1.45 0 2.4-3.7 6.25-3.85 3.95-6.7 3.95-1.75 0-2.7-1.4-1 3.25-1 7 0 4.3 1.35 7.75l.2.45q-3.45.55-7.35 3.8-3.95 3.25-3.5 9.9.4 6.6 9 12.15 8.6 5.5 12.45 7.4h-.3l-4.65-.6q-5.6-2.3-11.15-6.2L17.3 86q-2.45-3.25-3.75-7.1l-1.8.35-.1-.4 2.55-14 .15-1 .3-1.25.1.05.5.3.4.2q5.45-17.5 14.65-27.1l-.05-.05.25-.2q1.8-1.4 3.7-2.5m3.35 13.55q.8-.75 2.6-.75l1.5.3.15.8q0 1.15-.95 2.05-.8.8-1.6.8-1.1 0-1.75-.65-.5-.5-.5-.9l.2-.9.35-.75" fill="#fef8ab" fill-rule="evenodd" transform="translate(1.5 1.5)"/><path d="M76.95 97.8q3.1-1.45 4.65-2.6 4.35-3.3 8.05-7.5l.25-.35q3.45-4.3 5.4-14.7.5-3 .2-6.3l-.2-1.4q-1.3-8.05-7.75-17.9Q80 35.6 61.1 28.6l3.55.55.5.1q3.9.85 7.4 2.5l.65.3 1.7.9q1.8.95 3.55 2.25 5.65 3.9 10.1 9.7h.05q2.25 3.05 4.1 6.05l1.5 2.8-.1-.05q2.35 4.25 3.3 8.5l.1.65.25.8.15 1 .35 2.6q.25 2.6 0 5.25-.75 9.85-7 16.15l-.5.5Q85.9 94 81.45 95.9l-.95.45-3.55 1.45" fill="#bfff00" fill-rule="evenodd" transform="translate(1.5 1.5)"/><path d="m15.25 62.95-.5-.3.15.05.35.25" fill="#fefade" fill-rule="evenodd" transform="translate(1.5 1.5)"/><path d="m30.25 36 .05.05q-9.2 9.6-14.65 27.1l-.4-.2-.35-.25-.15-.05-.1-.05.45-2.5Q17.75 45.65 30.25 36m-18.5 43.25 1.8-.35q1.3 3.85 3.75 7.1-4.8-4.15-5.55-6.75" fill="#fffddd" fill-rule="evenodd" transform="translate(1.5 1.5)"/><path d="m20.3 64-.45-.35.35-.4.8-.15.9.1q.4.1.45.25l-.2.4-.85.15h-1" fill="#fff" fill-rule="evenodd" transform="translate(1.5 1.5)"/><path d="m28.55 60.4.85.4 1.35 1.1q1.15 1.1 1.45 2.35.45 1.35 0 2.45l-.8 1.2-.6.55q-2.1 1.85-5.75 2.1-3.6.05-6.65-1.5-3-1.6-3.75-3.9-.65-2.4 1.45-4.2 2.2-1.85 5.75-1.95 3.6-.15 6.7 1.4M20.3 64h1l.85-.15.2-.4q-.05-.15-.45-.25l-.9-.1-.8.15-.35.4.45.35" fill="url(#m)" fill-rule="evenodd" transform="translate(1.5 1.5)"/><path d="M44.15 56.5q2.55.7 1.95 2.2-.65 1.2-3.4 2.15-1.7-2.35-1.15-3.7.8-.65 2.6-.65" fill="#a42f03" fill-rule="evenodd" transform="translate(1.5 1.5)"/><path d="M42.7 60.85q2.75-.95 3.4-2.15.6-1.5-1.95-2.2l1.3.05q1.75.35 2.25 2.1.4 1.7-4.55 2.75l-.45-.55" fill="#912300" fill-rule="evenodd" transform="translate(1.5 1.5)"/><path d="M44.15 56.5q-1.8 0-2.6.65-.55 1.35 1.15 3.7l.45.55q4.95-1.05 4.55-2.75-.5-1.75-2.25-2.1l-1.3-.05z" fill="none" stroke="#831b00" stroke-linecap="round" stroke-linejoin="round" transform="translate(1.5 1.5)"/><path d="m44.45 58.75-1 .3-1.05-.3q-.4-.35-.4-.85t.4-.8q.45-.35 1.05-.35.6 0 1 .35.45.3.45.8l-.45.85" fill="#fdefec" fill-rule="evenodd" transform="translate(1.5 1.5)"/><path d="m70.95 68.6-.5-.2.3-.45.75-.3.95-.05q.35.05.45.25.1.2-.2.35-.3.25-.8.35l-.95.05" fill="#fff" fill-rule="evenodd" transform="translate(1.5 1.5)"/><path d="m70.95 68.6.95-.05q.5-.1.8-.35.3-.15.2-.35-.1-.2-.45-.25l-.95.05-.75.3-.3.45.5.2m7.6-4.8.9.35 1.55.8q1.25.95 1.75 2.15.65 1.3.35 2.45l-.65 1.3-.5.6q-1.75 2.1-5.3 2.95-3.55.6-6.8-.45-3.25-1.1-4.3-3.3-1.05-2.25.75-4.4 1.9-2.1 5.4-2.75l6.85.3" fill="url(#n)" fill-rule="evenodd" transform="translate(1.5 1.5)"/><path d="m35.1 65.7-.3-.3-.2-.15q-.45-.55-.3-1.15.15-.6.8-.85l1.55-.05q.9.2 1.35.85.45.55.3 1.15l-.15.4 4.85 4 7-3.15q-.05-.55.35-1 .4-.6 1.3-.8l1.55.05q.65.2.8.8.15.65-.3 1.2l-.35.3-.7.45-.3.05-1.55-.05-.3-.15-7.1 3.3-.45.15-5.9-4.55h-.6l-.5-.15-.85-.35" fill-rule="evenodd" transform="translate(1.5 1.5)"/><path d="M52.65 67.45q2.9.6-8.45 4.85-.7.35-1.85-.35-10.2-5.8-7.25-6.25l.85.35.5.15h.6l5.9 4.55.45-.15 7.1-3.3.3.15 1.55.05.3-.05" fill="#e0a600" fill-rule="evenodd" transform="translate(1.5 1.5)"/><path d="M14.9 62.7q-1.2 8.25-3.25 16.55L9 79.1q-2.45-.95.1-5.7-5.15-1.65 0-5.25-4.95-2-2.9-5 .6-3.9 6-1.7l2.45 1.15.25.1" fill="#fef8ab" fill-rule="evenodd" transform="translate(1.5 1.5)"/><path d="M11.65 79.25 11 81.8q-1.65 1.15-3.25.55-3.8-1.9-1.9-6.7-6.6-2.15-2.5-7.35Q-2 56.1 6.4 57.7q7.05 3.25 9.15-.45l-.65 5.45-.25-.1-2.45-1.15q-5.4-2.2-6 1.7-2.05 3 2.9 5-5.15 3.6 0 5.25-2.55 4.75-.1 5.7l2.65.15" fill="#fffddd" fill-rule="evenodd" transform="translate(1.5 1.5)"/><path d="M12.95 82.7q-2.1 1.75-3.7 1.15-3.8-1.9-1.9-6.7Q.75 75 4.85 69.8-.5 57.6 7.9 59.2q7.05 3.25 8-.55" fill="none" stroke="#831b00" stroke-linecap="round" stroke-linejoin="round" stroke-width="2.5"/><path d="m95 93.3-1.4-.95q-2.4-2-3.7-5l-.4-.95q2.35-13.45 2.65-24.2.85 2.1 3.15 2.75l.2 1.4q1.8.85 4.7 1.15 4.85.5 4.85 2.75 0 1.75-1.5 3.9-1.5 2.2-1.5 3.45 0 .8.5 1.85.45 1 .45 2.05 0 2.15-2.95 3.05-2.95.85-2.95 1.95l.3 2.05q0 2.05-1.6 3.95l-.8.8" fill="#e29200" fill-rule="evenodd" transform="translate(1.5 1.5)"/><path d="m95 93.3.8-.8q1.6-1.9 1.6-3.95l-.3-2.05q0-1.1 2.95-1.95 2.95-.9 2.95-3.05 0-1.05-.45-2.05-.5-1.05-.5-1.85 0-1.25 1.5-3.45 1.5-2.15 1.5-3.9 0-2.25-4.85-2.75-2.9-.3-4.7-1.15l-.2-1.4q2.8.75 7.75-.75 10.3-.5 1.9 13.2 4.05 6.95-4.15 8.45 1.45 6.05-3.4 7.7L95 93.3" fill="#bfff00" fill-rule="evenodd" transform="translate(1.5 1.5)"/><path d="M106.25 62.65q3.35-.15 3.8 4.4.6 3.45-3.5 10.4 1.95 3.75.6 6.15-.95 2.25-4.8 3.3.95 6.25-4.55 7.95-3.7-.05-5-2l-2.3-3.6L89.15 86l.65.85q4.15 5.65 7.3 5.35 3.4-1.35 2.35-6v-.7q.1-.4.45-.65.25-.25.65-.3 3.25-.65 4.15-2.15.65-1.65-.9-4.3l-.2-.75.2-.7q3.8-6.2 3.55-9.2-.55-2.05-4.15-1.85l-9.9.3-1.45-.75 4-.3 1.75-.6.3-.1 1.75-.45q3.2-.9 6.6-1.05" fill="#831b00" fill-rule="evenodd" transform="translate(1.5 1.5)"/></g><g id="k" fill-rule="evenodd"><path d="M32.45 60.65Q30.65 62.5 28 62.5q-2.65 0-4.55-1.85-1.8-1.85-1.8-4.5t1.8-4.5q1.9-1.8 4.55-1.8t4.45 1.8q1.9 1.85 1.9 4.5t-1.9 4.5" fill="#df9f01" transform="translate(-21.65 -47.9)"/><path d="M32.5 58.5q-1.8 1.85-4.4 1.85-2.6 0-4.4-1.85-1.8-1.8-1.8-4.4 0-2.6 1.8-4.4 1.8-1.8 4.4-1.8 2.6 0 4.4 1.8 1.85 1.8 1.85 4.4 0 2.6-1.85 4.4" fill="#010101" transform="translate(-21.65 -47.9)"/><path d="M28.5 55.5q-.8.8-1.9.8-1.1 0-1.9-.8-.8-.8-.8-1.9 0-1.1.8-1.9.8-.8 1.9-.8 1.1 0 1.9.8.8.8.8 1.9 0 1.1-.8 1.9" fill="#494544" transform="translate(-21.65 -47.9)"/><path d="M30.55 54.05q-.8.85-1.95.85t-2-.85q-.75-.75-.75-1.95 0-1.15.75-1.95.85-.8 2-.8t1.95.8q.8.8.8 1.95 0 1.2-.8 1.95" fill="#fffdfe" transform="translate(-21.65 -47.9)"/><path d="M61.55 63.65q1.8 1.85 4.45 1.85 2.65 0 4.55-1.85 1.8-1.85 1.8-4.5t-1.8-4.5q-1.9-1.8-4.55-1.8t-4.45 1.8q-1.9 1.85-1.9 4.5t1.9 4.5" fill="#df9f01" transform="translate(-21.65 -47.9)"/><path d="M61.55 61.5q1.8 1.85 4.4 1.85 2.6 0 4.4-1.85 1.8-1.8 1.8-4.4 0-2.6-1.8-4.4-1.8-1.8-4.4-1.8-2.6 0-4.4 1.8-1.85 1.8-1.85 4.4 0 2.6 1.85 4.4" fill="#010101" transform="translate(-21.65 -47.9)"/><path d="M65.55 58.5q.8.8 1.9.8 1.1 0 1.9-.8.8-.8.8-1.9 0-1.1-.8-1.9-.8-.8-1.9-.8-1.1 0-1.9.8-.8.8-.8 1.9 0 1.1.8 1.9" fill="#494544" transform="translate(-21.65 -47.9)"/><path d="M63.5 57.05q.8.85 1.95.85t2-.85q.75-.75.75-1.95 0-1.15-.75-1.95-.85-.8-2-.8t-1.95.8q-.8.8-.8 1.95 0 1.2.8 1.95" fill="#fffdfe" transform="translate(-21.65 -47.9)"/></g><radialGradient cx="0" cy="0" gradientTransform="matrix(-.0108 .0005 .002 .007 23.5 64.7)" gradientUnits="userSpaceOnUse" id="m" r="819.2" spreadMethod="pad"><stop offset="0" stop-color="#e25f2b"/><stop offset="1" stop-color="#f2a813" stop-opacity="0"/></radialGradient><radialGradient cx="0" cy="0" gradientTransform="matrix(-.0106 .0021 .003 .0067 74.2 68.9)" gradientUnits="userSpaceOnUse" id="n" r="819.2" spreadMethod="pad"><stop offset="0" stop-color="#e25f2b"/><stop offset="1" stop-color="#f2a813" stop-opacity="0"/></radialGradient><path d="M74.75 3.4Q87.6 6.85 87.6 11.8q0 4.9-12.85 8.3-12.8 3.5-31 3.5-18.1 0-30.95-3.5Q0 16.7 0 11.8q0-4.95 12.8-8.4Q25.65 0 43.75 0q18.2 0 31 3.4" fill-opacity=".498" fill-rule="evenodd" id="b"/><path d="M204.1 206.75H0V0h204.1v206.75" fill="#fff" fill-opacity="0" fill-rule="evenodd" id="l"/></defs></svg>