<svg xmlns:ffdec="https://www.free-decompiler.com/flash" xmlns:xlink="http://www.w3.org/1999/xlink" ffdec:objectType="frame" height="90" width="90" xmlns="http://www.w3.org/2000/svg"><use ffdec:characterId="31" height="198.2" transform="translate(-11.273 3.13) scale(.4384)" width="231.85" xlink:href="#a"/><defs><g id="a" transform="translate(129.4 196.35)"><use ffdec:characterId="2" height="42.85" transform="translate(-67.65 -42.85)" width="128.15" xlink:href="#b"/><use ffdec:characterId="4" height="92.35" transform="translate(12.9 -131.2)" width="64.35" xlink:href="#c"/><use ffdec:characterId="6" height="29.5" transform="translate(-34.5 -50.8)" width="35.4" xlink:href="#d"/><use ffdec:characterId="8" height="127.35" transform="translate(-9.95 -160.5)" width="109.9" xlink:href="#e"/><use ffdec:characterId="10" height="112.5" transform="translate(-99.9 -147.3)" width="81.4" xlink:href="#f"/><use ffdec:characterId="12" height="57.75" transform="translate(-33.7 -86.55)" width="51.3" xlink:href="#g"/><use ffdec:characterId="14" height="42.8" transform="translate(-7.55 -59.75)" width="40.1" xlink:href="#h"/><use ffdec:characterId="16" height="34.15" transform="translate(-5.25 -85.65)" width="28.35" xlink:href="#i"/><use ffdec:characterId="18" height="29.3" transform="translate(-43.25 -78.85)" width="21.95" xlink:href="#j"/><use ffdec:characterId="20" height="54.35" transform="translate(-40.2 -99.85)" width="56.8" xlink:href="#k"/><use ffdec:characterId="26" height="113.7" transform="translate(-63.65 -194.55)" width="113.6" xlink:href="#l"/><use ffdec:characterId="30" height="109.15" transform="translate(-117.7 -175.5)" width="208.4" xlink:href="#m"/></g><g id="q" fill-rule="evenodd"><path d="M18.45-90.45q.3 2.55 1.1 3.1v-.4q2.3-2.8 5.95-4.25l.25-.05 2.15-.25.25-.05q1.65-.1 1.4 1.65l-.05.25v4.6q0 1.05-.5 1.6v.3l2.4.25h.25q.6.05.55.8-.45 3.6-1.5 6.5-1.3 3.6-3.2 6.7-9.2 14.9-19.8 28.55V-39l.05 1.05L7.6-41q-1.2 2-3.9 5.5l-4.9 6.05-3.05 3.55.2-.15.2.05.05.3q0 .5-6.7 8.05v.05q-5.95 7.2-11.2 15.15l.1-.65.05-.55q-1.3.85-1.65.85Q-28.25 0-28.9 0q-2.05 0-2.85-1.8-.4-.95-.4-2.05 0-2.95 2.85-9.55 1.85-4.2 3.3-6l-.15-.25.45-.05.6-.55.1-.2q1.7-2.45 3.1-5.25l.75-1.8-.3-.1-.15-.45.85-1.9V-30h.05l1.2-2.5.75-2.3q.4-1.15 1.25-1.5 2.4-5.75 6.7-14.05 1.2-2.3 2.85-6.15l2.7-6.3q2.9-6.3 6.15-10.25L.55-74.2Q6.75-84.95 18-90.6q.5-.3.45.15m0 6.5q-1.3-1-.9-3.05.45-2.3-.95-2.1v.3l-.25.05-6.5 4.8v.25l-.15.05-.65.5v.25H8.9q-.05.7-.65.8v.3H8.1q.55.6-1.2 1.05.55.45 1.8.35-1.55.25-2.6 1l-.15.05q-.3.85-.95 1.3 5.05-.7 9.7.75l.3.05v.15q-4.9-1.4-10.25-.15 5.1-.15 9 1.1h-.15l-.2-.05-1.4-.25v-.15q-3.9-.25-7.25.15v.3h-.3q-1.4.2-1.85 1.35-.1.75.8.3l.25-.05 2.45.2.25.05v.15l-4.05.4q2.4.15 4.2.85h-.95v-.15l-2.7-.15v.3H2.6l-.95.2-.3.55-.05.15.3 1-.15-.2v-.15l-.2-.55-1.5 2.65-.9 1.6q.3-.1.65-.3H.95l1.3-.35 2.15.35h.25l.1-.15q3.95-.05 5.95 1.85l.25.05v.15q-1.85-1.15-4.6-1.5l2.9 1.7.05.2-.2-.1q-1.6-.95-3.7-.95l-2.05.25-3-.5-1.25.15-.7.4-.2-.05-.55 1 3.45.4q2.7 1.45 3.8 1.5l.2.25.2.05h.25Q9.6-61.2 8.9-55.7q-.05.45-.65.25l-.25-.5.4-.05q.6-4.75-2.6-6.15.45.35.4 1.05h-.1l-.1-.2q-.45-.45-1.25-.6v.8q-.3-.9-.45-1.7l-2.35-1.15-3.2-.3-1.7-.05-1.4 2.6-1.7 3.7q-.75.35-1.15 1.25l.45.3-.4.85L-9.3-51q-.7.6-.7 1.4l-.05.1q-2.55 4.95-5.5 12.3l-3.65 9.25-.2-.25-.65.5v.8l-.1.05-.55 1.45-2.85 7.4v1.15l-.4-.9-.5.85v.05l-.1-.2-1.75 3.3q-3.35 6.35-3.35 9.8v.4h-.1v.4l.3.5.05.2q.6 1 2.05.8 1.25-.65 3.3-2.3l2.7-2.25v-.3q3.85-4.25 7.4-8.8l1.95-2.15q2-2.35 2-2.75l-.15-.85 1.7-2.2q4.7-6.15 6.3-7.3 2.3-1.6 5.65-6.7l4-5.45-.05-.85q.35.45 1.35-.85Q19.4-58 27.85-73.65q1.8-3.3 2.05-7.65.05-1.35-1.2 0l-.2.1q-1 1.55-2.5 1.25 1.65-2.8 2.15-6.7v-.3l.05-.25q.35-1.45.2-3.5h-.25q-5.85 1-8.6 5.1v.55l-.15.05-.95 1.05M3.15-60.2l1.8.95.4.3v-.1l.25.15h.5l.25-.05q.35.35 1.05.15v-.15l.15-.1q.35.7-.15.75-.85 0 .3 1.9-.65-.8-1.75-1l-.15-.25-2.35-1.2Q.75-60.2-.4-60.2q-1.55 0-2.05-.45l-.2-.3h1.6l.4-.25 3.4 1.2.35-.05.05-.15m-6 9.85 1.15 1.05-.1.4-.45.1-2.1-.55v-.25q.25 0 .3-.15l.1-.3-.45-.5-.05-.05.15.05 1.2.2h.25M-12.2-20.3v-.15l.05.1-.05.1v-.05m6.55-29.45h.1l-.05.05-.05-.05m-9.35 26v.1h-.05l.05-.1M.9-56.1l.05-.2Q.1-57.5-2.3-57.7h-.3l-.75-.25-.05-.3q1-.8 4.35.95 3.2 1.75 3.2 2.75l-.05.4-.05.1-.35.1-1.9-.45-3.6-.5q-.45 0-.6.3l-.35.3q-.85 0-1.5-.65-.5-.5-.5-.75l.1-.4.35-.1h.05l3.05.35 2.95.35-.85-.6" fill="#355d8a" fill-opacity=".988" transform="translate(32.15 92.35)"/><path d="M18.45-83.95 19.4-85l.15-.05.2-.05q2.45-2.9 6.55-4.25l-.9 2.85q-1.55 4.4-4.8 6.85l-.2-.05q-3.05-1.25-5.7-2.95v-.1q-2.8-.2-4.85-.95v-.25l6.5-4.8.25-.05q-.3 3.3 1.15 4.75.5.55.7.1" fill="#c7e7f6" fill-opacity=".996" transform="translate(32.15 92.35)"/><path d="M19.55-85.05v-.55q2.75-4.1 8.6-5.1h.25q.15 2.05-.2 3.5l-.05.25-.15.05q-1.95 5.8-5.75 9.65L22-77.3q-1.85-.4-3.25-1.3l-.05-.2q-3.9-3.5-10.45-3v-.3q.6-.1.65-.8h.15l5.4.25h.25q2.65 1.7 5.7 2.95l.2.05q3.25-2.45 4.8-6.85l.9-2.85Q22.2-88 19.75-85.1l-.2.05" fill="#91bfe6" transform="translate(32.15 92.35)"/><path d="M28.15-86.95v.3q-.5 3.9-2.15 6.7 1.5.3 2.5-1.25l.2-.1q-.3 3.85-1.55 6.65-7.55 16.8-19.75 28.9v.6l-.15.2-3.5 4.1-5.85 7.8-5.75 6.2-1.6 1.85q-.2.65-1.85 3.1l-.3.55-.6.9v.15l-.5.75-.95 1.5-.55.9q-.9 1.25-1.2 1.25l-.6-.2h-.55l-.45-.65.35-1 2.2-5.1 1.8-3.75 4.2-11 4.3-10.85-.1-.45-.15-.1.05-.35 2.1.55.45-.1.1-.4-1.15-1.05.05-.05.05-.1.1-.3q-.6-.9-1.3-1h-.2q0-.3-.15-.35l-.35-.1-2.25.1-1.65.3-.35.4v.1l-.4.35 2.15-4.6.4-.85.1.1q.55.35 1.05.35l.95-.1-.1.4q0 .25.5.75.65.65 1.5.65l.35-.3q.15-.3.6-.3l3.6.5 1.9.45.35-.1.05-.1.05-.4q0-1-3.2-2.75-3.35-1.75-4.35-.95l.05.3.75.25-1 .05q-.3-.7-1.4-.65l-1.05.3 1.7-3.7 1.4-2.6 1.7.05 3.2.3L4.3-62.8q.15.8.45 1.7l.35.8.1.1.1.2-.05.1q-.2.8.35 1l-.25-.15v.1l-.4-.3-1.8-.95.05-.25-1.8-1.45-3.3-.1.05.1-1.45-.2q-.85.1-.85.65l.05.4.4.1h1.05l.2.3q.5.45 2.05.45 1.15 0 3.85 1.35l2.35 1.2.15.25q1.1.2 1.75 1l.3.45.25.5q.6.2.65-.25.7-5.5-3.35-7.55l.25.05 3.8.5-.05-.2q-2.05-2.4-5.9-3.05v.5l-1-.45-2.45.1.05.3.85.45-3.45-.4.55-1 .2.05.7-.4 1.25-.15 3 .5 2.05-.25q2.1 0 3.7.95l.2.1.1.15q2.85 2.4 5.3 5.2v-.25q.35-9.1-5.9-12.95l7.65 2.95 1.75.3q.75-.2.55-1.35v-.25L17.7-73.5l-.05-.25q2.3 1.5 3.75 3.8v.25q.75-5.7-2.6-8.7l-.05-.2q1.4.9 3.25 1.3l.25.05q3.8-3.85 5.75-9.65l.15-.05M4.75-68.1l-.1.15H4.4l-2.15-.35-1.3.35H-.5q-.35.2-.65.3l.9-1.6 1.5-2.65.2.55v.15l.15.2.65.7.7.95.05.2h.15q2.5-.8 1.45 1.05h.15m-12.5 17.05.95-.1-.85.45h-.1v-.35m-8.05 34q.4 0 .5-.15l.05-.05-.5.05-.05.15M.9-56.1l.85.6-2.95-.35-3.05-.35h-.05l.4-.2.4-.05 1.6-.05 2.35.7q.35 0 .45-.2v-.1" fill="#569db8" transform="translate(32.15 92.35)"/><path d="M6.1-79.4q1.05-.75 2.6-1l.6-.05.25-.05h3q5.25 1.75 6.25 5.85l-.2-.35-.4-.35-.05-.25q-.35-.8-1.3-1.1l-.05-.2q-2.25-1.8-5.85-2.25v-.1L7.4-79.4v.25l-.2.05q-.9.15-1.1-.3" fill="#8bdafa" transform="translate(32.15 92.35)"/><path d="M13.6-76.15h.15q-3.9-1.25-9-1.1Q10.1-78.5 15-77.1v-.15q.7.5 1.6.75l.25.05L18-75.4l.2.05.4.35.2.35q-1-4.1-6.25-5.85h-3l-.25.05-.6.05q-1.25.1-1.8-.35 1.75-.45 1.2-1.05h.15q6.55-.5 10.45 3l.05.2.05.2q3.35 3 2.6 8.7v-.25q-1.45-2.3-3.75-3.8l-.15-.05q-1.45-1.45-3.6-2.1-.15 0-.2-.1l-.1-.15" fill="#2680a9" transform="translate(32.15 92.35)"/><path d="m15-77.25-.3-.05q-4.65-1.45-9.7-.75.65-.45.95-1.3l.15-.05q.2.45 1.1.3l.2-.05h3.55q3.6.45 5.85 2.25l.05.2v.25l-.25-.05q-.9-.25-1.6-.75" fill="#3fa6d1" transform="translate(32.15 92.35)"/><path d="M9.05-82.9v-.25l.65-.5.15-.05q2.05.75 4.85.95v.1h-.25l-5.4-.25" fill="#aed4eb" transform="translate(32.15 92.35)"/><path d="m6.35-74.3-.25-.05-2.45-.2v-.25q6.2-.25 10.45 2.65.45.3 1.15.3h1.05q.8-.7.35-1.4l-.05-.25-2.65-2.2-.05-.2q2.15.65 3.6 2.1l.15.05.05.25 1.05 1.65v.25q.2 1.15-.55 1.35l-1.75-.3L8.8-73.5l-.25-.05-2.2-.75" fill="#90bee5" transform="translate(32.15 92.35)"/><path d="m9.3-65.65-.05-.2-2.9-1.7q2.75.35 4.6 1.5v-.15h.25l1.2 1.2.15.15q-1.05-5.95-6.2-8.05h.15q-1.8-.7-4.2-.85l4.05-.4v-.15l2.2.75.25.05q6.25 3.85 5.9 12.95v.25q-2.45-2.8-5.3-5.2l-.1-.15" fill="#2681aa" transform="translate(32.15 92.35)"/><path d="m3.65-74.55-.25.05q-.9.45-.8-.3.45-1.15 1.85-1.35h.3l7-.3H12l1.4.25.2.05.1.15q.05.1.2.1l.05.2 2.65 2.2.05.25q.45.7-.35 1.4h-1.05q-.7 0-1.15-.3-4.25-2.9-10.45-2.65v.25" fill="#c1e3f4" transform="translate(32.15 92.35)"/><path d="m10.95-66.2-.25-.05q-2-1.9-5.95-1.85H4.6q1.05-1.85-1.45-1.05H3l-.05-.2-.7-.95-.65-.7-.3-1 .05-.15h2.6q4.65 1.8 7.2 5.7l.05.25h-.25" fill="#3ea5d1" transform="translate(32.15 92.35)"/><path d="m1.35-72.15.3-.55.95-.2h3.75q5.15 2.1 6.2 8.05L12.4-65l-1.2-1.2-.05-.25q-2.55-3.9-7.2-5.7h-2.6" fill="#8cdbfb" transform="translate(32.15 92.35)"/><path d="m-6.75-56.45-.45-.3q.4-.9 1.15-1.25l1.05-.3q1.1-.05 1.4.65l1-.05h.3q2.4.2 3.25 1.4l-.05.2v.1q-.1.2-.45.2l-2.35-.7-1.6.05-.4.05-.4.2-.35.1-.95.1q-.5 0-1.05-.35l-.1-.1m12.3-6.8H5.3l-.2-.05-.2-.25q-1.1-.05-3.8-1.5l-.85-.45-.05-.3 2.45-.1 1 .45v-.5q3.85.65 5.9 3.05l.05.2-3.8-.5-.25-.05m-8.2 2.3H-3.7l-.4-.1-.05-.4q0-.55.85-.65l1.45.2-.05-.1 3.3.1 1.8 1.45-.05.25-.05.15-.35.05-3.4-1.2-.4.25h-1.6m-6.25 9.6v-.1l.35-.4 1.65-.3 2.25-.1.35.1q.15.05.15.35h.2q.7.1 1.3 1l-.1.3-.05.1-.05.05h-.25l-1.2-.2-.15-.05q-.25-1-1.1.85h-.1l-1.45-.2-.05.15-.35.05h-.85l.6-.95h.1l.85-.45-.95.1q-.15-.9-1.15-.3m4.55 1.75-.05-.95.45.5-.1.3q-.05.15-.3.15" fill="#8ebde4" transform="translate(32.15 92.35)"/><path d="M6.1-61.1h.1q.05-.7-.4-1.05Q9-60.75 8.4-56l-.4.05-.3-.45q-1.15-1.9-.3-1.9.5-.05.15-.75l-.15.1h-.1q-.35-1.45-1.2-2.15" fill="#2485b0" transform="translate(32.15 92.35)"/><path d="M4.75-61.1v-.8q.8.15 1.25.6l.1.2q.85.7 1.2 2.15h.1v.15q-.7.2-1.05-.15l-.05-.2-1-.85-.1-.2-.1-.1-.35-.8" fill="#85d4f5" transform="translate(32.15 92.35)"/><path d="M28.7-81.3q1.25-1.35 1.2 0-.25 4.35-2.05 7.65Q19.4-58 8.8-44.4q-1 1.3-1.35.85l.05.85-4 5.45q-3.35 5.1-5.65 6.7-1.6 1.15-6.3 7.3l-1.7 2.2.15.85q0 .4-2 2.75l-1.95 2.15-.9.9-.35-.15-.15-.35v-.1l1.15-2.15.55-.9.95-1.5.5-.7.05-.1-.05-.1.6-.9.3-.55q1.65-2.45 1.85-3.1l1.6-1.85 5.75-6.2 5.85-7.8 3.5-4.1.15-.2v-.6q12.2-12.1 19.75-28.9 1.25-2.8 1.55-6.65" fill="#d5f5f0" transform="translate(32.15 92.35)"/><path d="M5.6-58.9q-.55-.2-.35-1l.05-.1 1 .85.05.2-.25.05h-.5" fill="#43a9d4" transform="translate(32.15 92.35)"/><path d="M16.6-88.8v-.3q1.4-.2.95 2.1-.4 2.05.9 3.05-.2.45-.7-.1-1.45-1.45-1.15-4.75" fill="#90bce3" transform="translate(32.15 92.35)"/><path d="M10.95-79.15H7.4v-.25l3.55.15v.1" fill="#4eb4de" transform="translate(32.15 92.35)"/><path d="M4.75-76.15v-.3q3.35-.4 7.25-.15v.15h-.25l-7 .3" fill="#74b4d7" transform="translate(32.15 92.35)"/><path d="M2.85-72.9v-.3l2.7.15v.15h-2.7" fill="#5da5c5" transform="translate(32.15 92.35)"/><path d="m18.2-75.35-.2-.05-1.15-1.05v-.25q.95.3 1.3 1.1l.05.25" fill="#4bafd8" transform="translate(32.15 92.35)"/><path d="M-23.55-17.2v-.8l2.85-7.4.55-1.45.1-.05.2.1.15.2q1.4 2.3 1.25 6.15l-.1.05q-1.4 2.75-4.15 4l-.1-.2-.75-.6" fill="#c6e6f5" fill-opacity=".996" transform="translate(32.15 92.35)"/><path d="M-29.65-3.55v-.4q0-3.45 3.35-9.8l1.75-3.3.1.2v-.05l.5-.85.4.9v-.35l.75.6.1.2q1.75 2.5 4.35.3l1.7-1.65-.35 1 .45.65h.55l.6.2q.3 0 1.2-1.25L-15.35-15v.1q-1.65 1.85-3.7 3.4-.85 1.1-2.55 2.65-1.6 1.55-2.85 2.35-2.9 2.65-5.2 2.95m13.85-13.5.05-.15.5-.05-.05.05q-.1.15-.5.15" fill="#5ba1bb" transform="translate(32.15 92.35)"/><path d="M-20.05-26.9v-.8l.65-.5.2.25 3.65-9.25q2.95-7.35 5.5-12.3l.05-.1q0-.8.7-1.4l.4-.35q1-.6 1.15.3v.35l-.6.95h.85l.35-.05.05-.15 1.45.2.05.05.05-.05q.85-1.85 1.1-.85l.05.05.05.95v.25l-.05.35.15.1.1.45-4.3 10.85-4.2 11-1.8 3.75-2.2 5.1-1.7 1.65q-2.6 2.2-4.35-.3 2.75-1.25 4.15-4l.1-.05q.15-3.85-1.25-6.15l-.15-.2-.2-.1m5.05 3.15-.05.1h.05v-.1" fill="#93c0e8" transform="translate(32.15 92.35)"/><path d="M-13.95-15.3q-3.55 4.55-7.4 8.8v.3l-2.7 2.25q-2.05 1.65-3.3 2.3-1.45.2-2.05-.8l-.05-.2-.3-.5v-.4h.1q2.3-.3 5.2-2.95 1.25-.8 2.85-2.35 1.7-1.55 2.55-2.65 2.05-1.55 3.7-3.4l.15.35.35.15.9-.9m1.25-4.25.5-.75v.05l-.5.7" fill="#d3f2ee" transform="translate(32.15 92.35)"/></g><g id="r" fill-rule="evenodd"><path d="m-8.05-12.95 4.2 4.4 1.2.35q2.3.7 4.4.7l3.8-.25-.2.3.05.25.15.15-.1.05 2.4-.05q.3-.5-.1-.55 3.85-3.2 4.15-4.05l.6-.55q4.4-4.3 4.4-8.5 0-2.5-2-4.65-2.4-2.6-7-3.15l-.05-.1-.45.05-1.9-.1h-.1q-4.1-.1-8.15 1.15-8.3 2.55-8.3 8.9 0 1.95 2.4 4.95l-.1.4.1.35.25.1.35-.15M5.5-28.6l.1.15q-.1.2-.1-.15m4.65 20.95q-1.3 2.55-4.4 3.3l-.15.05Q5.3-1.65 4.15 0H-.2v-.15Q-6.15-.5-11.5 0h-5.9l-.05-.15q-.4-.1-.2-.65v-3.25q.4-3.35 2.6-4.95l.05-.2h2.7l3.5.3h.25q1.65 1.05 3 1.1h.25l-1.2-1.4.6.1-1.15-1-2.7-3q-2.05-2.9-2.05-5.5 0-3.85 2.6-6.5 4.2-4.4 14.55-4.4 7.15 0 10.4 3.9 1.95 2.4 1.95 4.9 0 3.25-3.7 8.15-2.4 3.2-4.05 4.25l.2.65m-24.05.1-.25.05q-1.3.55-1.65 2.1v.8h-.15q.05 1.8-.4 2.95v.55l2.7.15v-.15q7.9-1 16.4-.3h.3Q4.4-3.5 4-5.95h-.15Q2.25-7.4-.95-7.7l-3 .2-.3.2v.3q-.1 1.85-1.85 1.05l-.05-.15Q-9.3-7.6-13.9-7.55" fill="#355d8a" fill-opacity=".988" transform="translate(17.7 29.5)"/><path d="m-8.05-12.95.2-.2 2.6 2.25Q-1.5-8.15 2.3-8.15q.7 0 1.5-.5.9-.55.9-1.1l-.05-.4-.35-.2q-2.85.1-5.05-3.8-1.8-3.15-1.8-5.2 0-3.9 5.25-6.5l3.6-1.55q1.6-.65 1.6-.9v-.2q4.6.55 7 3.15 2 2.15 2 4.65 0 4.2-4.4 8.5l-.6.55q-.3.85-4.15 4.05.4.05.1.55L5.45-7l.1-.05-.15-.15-.05-.25.2-.3-3.8.25q-2.1 0-4.4-.7l-1.2-.35-4.2-4.4" fill="#5197b2" transform="translate(17.7 29.5)"/><path d="M7.9-28.5v.2q0 .25-1.6.9l-3.6 1.55q-5.25 2.6-5.25 6.5 0 2.05 1.8 5.2 2.2 3.9 5.05 3.8l.35.2.05.4q0 .55-.9 1.1-.8.5-1.5.5-3.8 0-7.55-2.75l-2.6-2.25-.2.2-.35.15-.25-.1-.1-.35.1-.4q-2.4-3-2.4-4.95 0-6.35 8.3-8.9 4.05-1.25 8.15-1.15h.1l1.9.1.45-.05.05.1m-2.4-.1q0 .35.1.15l-.1-.15m-10.7 7.55q1.05-1.9 1.05-3.2 0-.75-.9-.85-.95-.15-2.1.45-3.05 1.6-3.05 5.35 0 1.15.95 2.9 1.4 2.65 3.85 2.65l.55-.1.05-.05v-.3l-.75-1.3q-.8-1.1-.8-2.35 0-1.3 1.15-3.2M-15.8-4.6v-.8q.35-1.55 1.65-2.1l.25-.05-.05.25-.5.8q1.6 2.9 6.15 1.55 1.2-.35 2.2-1 1.75.8 1.85-1.05v-.3l.3.05q1.65.45 1.9 2.4 0 .25-.15.35-4.4 2.4-11.2 2.4-2.5.05-2.4-2.5" fill="#92c0e7" transform="translate(17.7 29.5)"/><path d="M-5.2-21.05q-1.15 1.9-1.15 3.2 0 1.25.8 2.35l.75 1.3v.3l-.05.05-.55.1q-2.45 0-3.85-2.65-.95-1.75-.95-2.9 0-3.75 3.05-5.35 1.15-.6 2.1-.45.9.1.9.85 0 1.3-1.05 3.2m-.9 15.1q-1 .65-2.2 1-4.55 1.35-6.15-1.55l.5-.8.05-.25q4.6-.05 7.75 1.45l.05.15" fill="#c6e6f4" fill-opacity=".996" transform="translate(17.7 29.5)"/><path d="M-15.8-4.6q-.1 2.55 2.4 2.5 6.8 0 11.2-2.4.15-.1.15-.35-.25-1.95-1.9-2.4l-.3-.05.3-.2 3-.2q3.2.3 4.8 1.75H4q.4 2.45-.95 4.55h-.3q-8.5-.7-16.4.3h-2.7v-.55q.45-1.15.4-2.95h.15" fill="#559cb7" fill-opacity=".996" transform="translate(17.7 29.5)"/></g><g id="s" fill-rule="evenodd"><path d="m37.65-8.1.2-.05Q48.2-13.4 52.7-24.5l-.15.05Q45.95-16.5 33.6-14.3h-2.7v.3h-4q-4.6-.05-8.1-1.1v-.15q-.85-.1-.55-1.2 1.95-1.4 2.65-4.05l.05-.25q1.25-2.6-.35-1.15-3.3 3.15-8.8 4.1h-.3Q15-2 33.9-1.65h.25l1.4-.1.35-.15q-.8-1.35-3.4-2.7l-.05-.15q-.4-.2-.2-.9l5.35-2.3.05-.15M54.3-28.3q.8-.1.6.85v.25l-.05.25q-5.2 15.3-19.1 21.8l-.25.05-.3.25q.35.85 1.35 1.05h.3q.55-.15.65.25h.15q.65 1 2.4.85h.25q.5.45 1.65.4v.15L41.9-2 39-.8h-.3l-5.65.5V0h-.25l-5.65-.3-.2-.05-1.15-.2-.05-.15-2.4-.4-.2-.05q-.85-.5-2.2-.5l-.05-.15-2.4-.65-.9-.6Q1.3-10.8-9.75-23.95l-.2.05-.5.6-.15-.3-2.4-3.75-3.85-4.05-1.55-2v-.2l-.95-.3-1.35-1.8-.1-1.2q-.75-1.05-1.1-.95l-1.7-3-2.5-3.25-2.3-2.8-.05-.2q-.65-1.05-1.9-4.4l-.15-.45-.4.05q-.65 0-1.7-4.85l-.5-2.4-.05-.1-2.3-7-1.1-3.6q-3.65-8.75-5.6-12.4-1.55-2.85-4.25-6.8l-4.1-6.15q-4.45-7-4.45-12.45 0-3.1 2.2-6.6 2.3-3.65 5.65-4.2.15-.85 1.2-.65l.45.15 6-2 .05.05.55-.2 3.7-.95q5-1.55 7.9-5.15l.1-.1.15-.05q10.65 13.6 18.9 29.45 4.6 8.8 8.6 18.2l.1-.2.35 1.15.55 1.7v.15l.15.2Q2.1-75.45 2.8-75v.05l-.45.2 1 1.65 1.1 3.85 1.5 3.85v1q0 1.75.25 3.35.85 5.55 1.15 11.75h.1l.05.05.3 5.6v.35l.05.75.05.8h.15v.55l.1 3.2h.15v.55l.1 2.7h.15v.8l.4 4.3h.15q-.1 1.45.25 2.45v.25l.4 2.7h.15q.65 2.2 1.55 4.05l.05.25q1.7.3 3.45-.65l.1-.15q5.05-1.8 7.35-6.4l.15-.05q.9.3.7 1.85h.1l.05.3q.2 1.55-.3 2.4v1.35l-.05.25-1 3.8h-.3q.1 1.25 1.6 1.1h.3l3.75.5h.3l3.5.3h.25l4.55-.4.05-.15.75-.15.05-.1q11.05-3.65 17.4-11.9l.05-.25m-88.4-91.95-4.95 1.7-3.95.9-2.1.4h-.05q-.2.25-.7.25h-.1l-.55.35-2.8 2.05q-4.1 3.2-4.1 7 0 2.95 3.6 9.55l7.9 13.35q5.4 9.05 7.9 14.5 3.6 7.8 3.6 12.75l-.05.55.2.8.15 1.45v.1q2.05 7.65 6.95 12.45.05.1.2.1Q-14.4-30.5-4.4-20.4l.05.2q1.15 1.5 2.7 2.55v-.15Q5-11 13.45-6l.2.05.25.05q2.95 1.85 6.75 2.95-11.9-7.9-13.1-26.65-1-17-3.15-32.9l-.65-4.35-.55-1.65-.7-2.8-1.6-3.6-.55.55L0-74.9q-2.8-10.8-8-20.75-8.35-15.95-19-29.55l-.15.05-.1.1q-2.7 2.85-6.45 4.7h-.2l-.2.1m.55 58.55.1-.5-1.65-4.1v.15l1.1 3.2.45 1.25" fill="#355d8a" fill-opacity=".988" transform="translate(54.95 127.35)"/><path d="M33.6-14.3q12.35-2.2 18.95-10.15l.15-.05Q48.2-13.4 37.85-8.15l-.2.05q1.5-2.15 4.3-4.3 2.85-2.15 4.05-4.55-4.95 3.7-12.7 4.45-9.4.9-14.5-2.6 3.5 1.05 8.1 1.1h.25l2.9.15.05-.15h.8l2.7-.15v-.15" fill="#d8f7f2" fill-opacity=".996" transform="translate(54.95 127.35)"/><path d="m37.65-8.1-.05.15-5.35 2.3q-.2.7.2.9l.05.15h-.25q.45 1.85 1.8 2.8l.1.15h-.25Q15-2 11.5-17.8h.3q3.65 1.4 7.1-1.2l2.05-1.75-.05.25q-.7 2.65-2.65 4.05-.3 1.1.55 1.2v.15q5.1 3.5 14.5 2.6 7.75-.75 12.7-4.45-1.2 2.4-4.05 4.55-2.8 2.15-4.3 4.3M27.15-14h2.95l-.05.15-2.9-.15m3.75 0v-.3h2.7v.15l-2.7.15m-62.8-102.7-.9-1.5-.9-1.45q4.1-1.15 6.45-4.05l.1-.1.15-.1q.9 8.9 3.25 16.3-1.85-.15-3.1-.95l-2.3-3.65-.1-.45-.85-3.15q-.55-1-1.8-.9m30.25 98.9v.15q-1.55-1.05-2.7-2.55 1.5.9 2.6 2.2l.1.2M-20-114.2q8.95 15.3 15.85 32.45l2.75 6.6-.05.3.45 1.05h-.15l-4.4-.3v-.2h-.75l-2.2-4.4 2.8-2.1-.25-.05q-2.25-.5-4.2-1.35l-1.7-4q-1.6-5.5-5.2-10.4l-2.9-3.35q.3-6.95-.15-14.25h.1m-.65 13.4.1.3-.2-.2.1-.1m9.1 23.75h.15l.75-.4.5 1.6-1.35-1.05-.05-.15M-24.1-57.1l.05.3.05.25-.15-.05-.1-.5h.15m1.15 8.35q.5 1.15.3 2.95v.3l-.15-.05-.15-3.2m-10.6-12.95-.45-1.25-1.1-3.2v-.15l1.65 4.1-.1.5M2.1-25.6q.5-1.65.3-4.05l-.05-.25q.5.9.5 2.4 0 3.25-.75 1.9m-18.15-12.25.05.2.05.2-.1-.4" fill="#569db8" transform="translate(54.95 127.35)"/><path d="M32.5-4.6q2.6 1.35 3.4 2.7l-.35.15-1.4.1-.1-.15q-1.35-.95-1.8-2.8h.25" fill="#ccede9" transform="translate(54.95 127.35)"/><path d="m-33.7-119.65-.4-.6.2-.1h.2q3.75-1.85 6.45-4.7l.1-.1.15-.05q10.65 13.6 19 29.55 5.2 9.95 8 20.75l.35.55.55-.55 1.6 3.6.7 2.8.1 1.15-.2.15-.2.15-.05.1-.1.1-.6.15q-.15 0-.55-.85l-1.45-3.3L-1-73.8l-.45-1.05.05-.3-2.75-6.6Q-11.05-98.9-20-114.2q-.35-1.2-1.55-.25l-.55.5q.95 4-.55 6.35h-1.1Q-26.1-115-27-123.9l-.15.1-.1.1q-2.35 2.9-6.45 4.05m11.3 4.4v.15q1.9-.9-.55-2.6l.05.3.5 2.15" fill="#d2f2f2" transform="translate(54.95 127.35)"/><path d="m-22.4-115.25-.5-2.15-.05-.3q2.45 1.7.55 2.6v-.15" fill="#99c6eb" transform="translate(54.95 127.35)"/><path d="m-28.6-57.75-2.55-5.85-2.15-5.45-2.15-6.5q-.5-1.85-1.95-4.8l-2.75-5.05q-3.2-5.4-3.2-9.15 0-3.35 1.45-6.75.9-2.15 2.15-3.35l2.2-2.5 2.85-3.3q.55-.7.75-3.5.15-2.3 1.35-2.65l.7-.1q1.25-.1 1.8.9l.85 3.15.1.45q.55 2 1.5 3l.8.65q1.25.8 3.1.95h1.1l.25.05 1.25.1.1.1.1.5q0 .35-1.35 1.7l-.1.05q.65.35 1.4 1.9l.65 1.7q0 .8-.1.35l-.2.35-.1.1.2.2.6.55 2.9 3.35q3.6 4.9 5.2 10.4l1.7 4 1.65 3.5 2.2 4.4.6 1.15 3.15 6.25.05-.05.05-.05q2.8 3.85 3.85 9.6.95 5.7 1.45 11.65Q4.3-28.7 8.3-14.55l-.2-.05Q-.1-22.9-5.45-33.95l.05.25q1.7 7.3 4.55 13.5l-.2-.05q-6.45-7-13.55-13.4 3.8-2.6 5.95-5.15l.05.25.2.3q1.85.4 2.3-2.1l.15-.05 6.7 10.65v-.15q.85 1.85 1.3 4.05l.05.25q.75 1.35.75-1.9 0-1.5-.5-2.4v-2.2Q2.15-44.4-.2-55.8q-.85-4.05-2.85-6.8l-.55-.7-.25-.75q-2-1.9-4.55-7.9l-5-12.85q-1.45-5.45-4.75-10.25-3.95-5.75-9.35-8.05l-1.05-.15-3.05-.65-.05-.4-3.7-.3q-1.65 0-2.85.95-1.4 1.1-2.3 3.45-.95 2.6-.95 5.1l.35 1.55q.95 3.5 5.05 13.6l8.6 21.7.5 1.3-.15.4q-.15.25-.65.25l-.4-.6-.45-.85" fill="#93c1e8" transform="translate(54.95 127.35)"/><path d="m3.2-68.5.55 1.65.65 4.35q2.15 15.9 3.15 32.9 1.2 18.75 13.1 26.65-3.8-1.1-6.75-2.95l-.25-.05q-5.4-8.45-6.5-21.25L5-49.05Q3.9-59 1.6-67.55q.4.85.55.85l.6-.15.1-.1.05-.1.2-.15.2-.15-.1-1.15" fill="#d9f8f3" transform="translate(54.95 127.35)"/><path d="m-30.25-56.1-.2-.8.05-.55q0-4.95-3.6-12.75-2.5-5.45-7.9-14.5l-7.9-13.35q-3.6-6.6-3.6-9.55 0-3.8 4.1-7l2.8-2.05.55-.35h.1q.5 0 .7-.25h.05l2.1-.4 3.95-.9 4.95-1.7.4.6.9 1.45.9 1.5-.7.1q-1.2.35-1.35 2.65-.2 2.8-.75 3.5l-2.85 3.3-2.2 2.5q-1.25 1.2-2.15 3.35-1.45 3.4-1.45 6.75 0 3.75 3.2 9.15l2.75 5.05 1.45 4.55q.7 2.6 2.65 6.75l2.15 5.45 2.55 5.85-1.1.95-.55.7m43.9 50.15-.2-.05Q5-11-1.65-17.8l-.1-.2q-1.1-1.3-2.6-2.2l-.05-.2q-10-10.1-18.55-21.6 3.8 3.9 7.35 8l.2.05h.25l.3.2.25.1q7.1 6.4 13.55 13.4l.2.05Q-3.7-26.4-5.4-33.7l-.05-.25Q-.1-22.9 8.1-14.6l.2.05q-4-14.15-5.45-31.2-.5-5.95-1.45-11.65Q.35-63.15-2.45-67l-.05.05-.05.05-3.15-6.25-.6-1.15h.75v.2l4.4.3H-1l1.15 2.95 1.45 3.3Q3.9-59 5-49.05L7.15-27.2q1.1 12.8 6.5 21.25m-42.8-106.25 2.3 3.65-.8-.65q-.95-1-1.5-3m19 30q1.95.85 4.2 1.35l.25.05-2.8 2.1-1.65-3.5m-28.05-21.45q-2.9 2.7-2.9 9.4v.7l-.35-1.55q0-2.5.95-5.1.9-2.35 2.3-3.45" fill="#589fb9" fill-opacity=".996" transform="translate(54.95 127.35)"/><path d="M-22.65-107.6q1.5-2.35.55-6.35l.55-.5q1.2-.95 1.55.25h-.1q.45 7.3.15 14.25l-.6-.55-.1-.3.2-.35q.1.45.1-.35l-.65-1.7q-.75-1.55-1.4-1.9l.1-.05q1.35-1.35 1.35-1.7l-.1-.5-.1-.1-1.25-.1-.25-.05" fill="#92c0e7" transform="translate(54.95 127.35)"/><path d="M-33.3-69.05q-1.95-4.15-2.65-6.75l-1.45-4.55q1.45 2.95 1.95 4.8l2.15 6.5m21.75-8q-1.8-4.05-4.25-8.5l-1.25-2.2q-1.25-2.4-3.25-4.8L-22.55-95q-3.7-3.65-7.3-5.45-4-1.95-6.35-.7-2.7 1.45-2.7 6.9 0 2.6.45 4.95l1.9 5.75 3.85 7.3q1.85 3.3 4.2 9.6 1.5 3.9 2.9 6.5l-.85.1v.35l.75 1.55-.1.45-.1.3q-.1.15-.6.15l-.75-.75-.2-.25-8.6-21.7q-4.1-10.1-5.05-13.6v-.7q0-6.7 2.9-9.4 1.2-.95 2.85-.95l3.7.3.05.4 3.05.65 1.05.15q5.4 2.3 9.35 8.05 3.3 4.8 4.75 10.25l5 12.85q2.55 6 4.55 7.9l.25.75.55.7q2 2.75 2.85 6.8 2.35 11.4 2.55 23.7v-.25Q.3-45.85-4.35-56.8q-1.4-3.35-3.1-6.4v-.25l-.3-2q-1.1-5.25-3.75-11.45l1.35 1.05-.5-1.6-.75.4h-.15m-7.65 28.3V-49l1.6-3 .05-.25.25.5q1.45 2.85 1.85 6.7l.05.6v.25l.1 3.25h.15v3.5h-.25v1.05h-.15l-.25-1.25-.7-3.1-.8-2.75-.45-1.55-1.45-3.7" fill="#c9e8f5" transform="translate(54.95 127.35)"/><path d="m-14.6-33.65-.25-.1-.3-.2v-7.25q.2-1.85-.25-3v-.25l-.05-.6q-.4-3.85-1.85-6.7l-.25-.5-.05.25-1.6 3v.25h-.25v.55l-.15.05q-.85 2.15-3.05 2.9v-.55q.2-1.8-.3-2.95V-49L-24-56.55l-.05-.25-.05-.3-.3-1.1h-.05l-1.15-1.95q-1.4-2.6-2.9-6.5-2.35-6.3-4.2-9.6l-3.85-7.3-1.9-5.75q-.45-2.35-.45-4.95 0-5.45 2.7-6.9 2.35-1.25 6.35.7 3.6 1.8 7.3 5.45l2.25 2.45q2 2.4 3.25 4.8l1.25 2.2q2.45 4.45 4.25 8.5l.05.15q2.65 6.2 3.75 11.45l.3 2v.25q1.7 3.05 3.1 6.4Q.3-45.85 2.35-32.35v2.45l.05.25q.2 2.4-.3 4.05l-.05-.25q-.45-2.2-1.3-4.05-1.25-3.4-2.85-6.5-1.7-3.3-3.85-4.8v.8l-.15.05q-.45 2.5-2.3 2.1l-.2-.3-.05-.25q-2.15 2.55-5.95 5.15m6.45-26.4-.05-.2q-2.1-2.2-3.7-4.95l.9-.15-.85-2.4-1.55-6.2q0-.4.35-.5.35-.1.35-.45 0-1.15-1.85-5.05-2.1-4.35-4.85-8.45-7.7-11.5-14.05-11.5-2.45 0-3.45 2.95-.45 1.45-.45 2.9 0 4.25 1.8 8.55l4.65 9.1q2.45 4.7 4.2 8.8l2.15 5.55.1-.4.15-.05q1 2.55 1.7 5.4.95 3.75 1.4 8.1h.15q1.7-3.3 2.8-7.25l.15-.05q5.75 7.2 4.7 19.9h.15q3.8-3.7 4.85-10.2v-.25q1 2.05 1.35 4.45v-.4q.35-2.1 1.35-2.2h.25q2.85 3.4 4.7 7.8h.15l.05.3L.5-34.5l-.05-.25q-2-12.45-6.8-22.05l-1.8-3.25" fill="#a05883" transform="translate(54.95 127.35)"/><path d="M-.6-37.2h-.15q-1.85-4.4-4.7-7.8h-.25q-1 .1-1.35 2.2v.4q-.35-2.4-1.35-4.45v.25q-1.05 6.5-4.85 10.2h-.15q1.05-12.7-4.7-19.9l-.15.05q-1.1 3.95-2.8 7.25h-.15q-.45-4.35-1.4-8.1-.7-2.85-1.7-5.4l-.15.05-.1.4-2.15-5.55q-1.75-4.1-4.2-8.8l-4.65-9.1q-1.8-4.3-1.8-8.55 0-1.45.45-2.9 1-2.95 3.45-2.95 6.35 0 14.05 11.5 2.75 4.1 4.85 8.45 1.85 3.9 1.85 5.05 0 .35-.35.45-.35.1-.35.5l1.55 6.2.85 2.4-.9.15q1.6 2.75 3.7 4.95l.05.2h-.25l1.45 3.25Q-3.2-47.7-.6-37.45v.25m-22.45-25.65q.95 1.65 2.25 2.05.35 1.95 1.1 3 .15.2.5.15 1-.75 1.95-.3l.95.7.1.15.25.3q2.65 3.1 4.05 7.5.55-4.25-.15-7.5-.55-2.65-1.95-4.65l-.7-.95-1.35-6.85q-1.6-7-2.55-9.7-3.8-7.35-9.2-12.1-2.55-2.25-4.1-2.3-1.65-.1-1.65 2.65 0 .8 4.75 11.2 4.75 10.4 4.75 13.45 0 1.35.9 3l.05.05h-.05l-.85-.3v.3l.95.15" fill="#d99ebf" transform="translate(54.95 127.35)"/><path d="M-.6-37.2v-.25Q-3.2-47.7-6.95-56.8l-1.45-3.25h.25l1.8 3.25q4.8 9.6 6.8 22.05l.05.25-1.05-2.4-.05-.3" fill="#f4dcf4" transform="translate(54.95 127.35)"/><path d="m-23.1-63-.05-.05q-.9-1.65-.9-3 0-3.05-4.75-13.45-4.75-10.4-4.75-11.2 0-2.75 1.65-2.65 1.55.05 4.1 2.3 5.4 4.75 9.2 12.1.95 2.7 2.55 9.7l1.35 6.85.7.95q1.4 2 1.95 4.65.7 3.25.15 7.5-1.4-4.4-4.05-7.5l-.25-.3-.1-.15-.95-.7q-.95-.45-1.95.3-.35.05-.5-.15-.75-1.05-1.1-3-1.3-.4-2.25-2.05l-.05-.15" fill="#f7bcd2" transform="translate(54.95 127.35)"/><path d="M-23.05-62.85-24-63v-.3l.85.3h.05l.05.15" fill="#865677" transform="translate(54.95 127.35)"/><path d="m-27.25-58 .75.75q.5 0 .6-.15l.1-.3.1-.45-.75-1.55v-.1q1.7.7 2.2 2.7l.1.5.15.05 1.05 7.55v.25l.15 3.2.15.05v.25q.05.75-.2.45-2.05-2.25-2.65-6.1-.5-3.3-1.45-6.2l-.3-.9" fill="#c4e4f4" transform="translate(54.95 127.35)"/><path d="M-26.45-59.8v-.25l.85-.1 1.15 1.95h.05l.3 1.1h-.15q-.5-2-2.2-2.7" fill="#895f82" transform="translate(54.95 127.35)"/><path d="m-15.4-33.95-.2-.05q-3.55-4.1-7.35-8l-.05-.25q-3.7-5.9-5.1-14.05l-.05-.6.4.6q.5 0 .65-.25l.15-.4-.5-1.3.2.25.3.9q.95 2.9 1.45 6.2.6 3.85 2.65 6.1.25.3.2-.45 2.2-.75 3.05-2.9l.15-.05 1.2 3.15.95 2.95.45 1.35.45 1.7.35 1.2.1.4.4 1.6.15.05v1.85" fill="#8fbee5" transform="translate(54.95 127.35)"/><path d="m-30.25-56.1.55-.7 1.1-.95.45.85.05.6q1.4 8.15 5.1 14.05l.05.25q-.15 0-.2-.1-4.9-4.8-6.95-12.45v-.1l-.15-1.45" fill="#549bb6" transform="translate(54.95 127.35)"/><path d="M11.8-17.8q5.5-.95 8.8-4.1 1.6-1.45.35 1.15L18.9-19q-3.45 2.6-7.1 1.2" fill="#d2f3ee" transform="translate(54.95 127.35)"/><path d="M-19.45-48.2v-.55h.25l1.45 3.7.45 1.55.8 2.75.7 3.1.25 1.25h.15v.6l-.15-.05-.4-1.6-.05-.2-.05-.2-.35-1.2-.45-1.7-.45-1.35-.95-2.95-1.2-3.15" fill="#a3ccec" transform="translate(54.95 127.35)"/><path d="M-5.95-40.4v-.8q2.15 1.5 3.85 4.8 1.6 3.1 2.85 6.5v.15l-6.7-10.65" fill="#c6e5f3" transform="translate(54.95 127.35)"/><path d="M-15.4-44.2q.45 1.15.25 3v.25h-.15l-.1-3.25" fill="#949eb1" transform="translate(54.95 127.35)"/><path d="M-15.15-33.95h-.25v-3.5h.25v3.5" fill="#808ea9" transform="translate(54.95 127.35)"/></g><g id="t" fill-rule="evenodd"><path d="M33.6-91.65q2.45 4.75 4.55 10.85 2.55 7.5 2.55 11.75l-.2 3.4v.7q0 4.25-1.95 13.95L35.8-38.7l-1.15 6.45q-.8 3.95-2.2 6.65l-1.95 3.3.05.2q0 .6-2.75 4.8l-1.35 2.7-.95.75v.25l-.25-.1v.25q-.05.6-.45.95-7.1 6-16.5 9.8l-.25.05-2.2.5v.25l-.25.05-2.7.55v.25h-.25L.5-.8v.3L.2-.55l-1.9.3h-5.6V0h-3.8q-3.8-.2-7-1.05l-.05-.15-2.35-.7h-.25Q-33.5-6.25-38.85-18v-.3l-1.05-1.85-.1-.25q-.55-.75-.7-1.9v-1.1l.55.25h.25q3.7 3.55 8.65 5.9l.25.05q.55.9 2.15.8h.25q1.75.65 4.3.55h.3l-1.85-5.4-.05-.25-.05-.3-.2-1.9h.25q3.35 2.9 9.15 3.25h.25l5.1-.15.05-.1q10.2-5.55 12.65-18.85v-.3q.65-1.05.8-2.7v-.25q.9-1.75.8-4.55v-.55q.55-1.5.55-3.5v-.3q.4-.65.5-1.6l-.1-.45-.95-.3.65.05h.5l.75-5.3-.05-.15.15-.9.05-.55q0-.6.15-.6l1.1-7.25-.1-.85.2-3.75.1.3-.5-11.4q-.5-7.35-.5-10.85l-.05.15-.05-1.2-.1-1.15.05-.35-.15-1.5-.05-.25v-6.45q.2-4 2.2-6.2l.6-.05q.5.95 1.8 1.1l2.15.3 1.35-.15v-.15l.55-.4-.45.55q1.55.35 4.55 1.85.5.2.95.45h.1l.05.05.05.05q5.3 2.75 8.3 5.75l6.35 11.25m-9.55 76.3 1.55-2.05 1.5-1.85 4.6-7.3q1.35-2.65 2.05-6.4.6-4.25 1.1-6.4l2.6-11.95Q39-59.05 39.4-63l-.05-.4-.05-1.7.1-.9-.1-.65-.25-1.7q0-1.95.6-.2l.05-.5q0-4.15-2.5-11.35-2-5.65-4.55-10.7l-2.7-5.55q-1.75-3.35-3.5-5.55-2.2-2.75-6.65-5.05l-1.7-.45-1.15.05-3.3-.45-2.25-.4-1.05-.15q-.7-.1-.7-.8v-.15q-1.45-.55-2.7-1.3l-.05.25-.5 3.5v.3q-.15 3.6.2 6.8l-.45 1.25.35-.05L6.4-96l.1 3.8-.1 1.05.2.75.3 5.65.5 13q0 4.3-.75 9.85l-.5 3-.7 4.25-.1.55h.3-.05Q3.55-38.5-2.2-26.65l-3.85 7.9Q-10.1-10.55-20-8.3h-.25l-1.85.25Q-15.65.1-.65-1.95q8.25-1.15 14.4-4.7 5.5-3.1 9.55-7.7l.75-1M-9.2-17.5l.15-.05 2.2-4.05q-5.45 4-13.95 1.95l-.05-.15-2.65-.65q2.1 3.2 3.75 6.65l-.5.1h-3.5q-5.45-.6-9.4-2.7l-.1-.2q-2.75-1.55-5.05-3.55 3.55 8.05 10.55 12.6l.25.05q.65-1.65.8-3.8v-.25q5.2 2.05 10.7.05 4.6-1.75 6.8-6M-26.15-6.15l.05.15q4.1 2.65 9.35 4.1-4.3-2.3-7.7-5.45-.7-.65-1.7 1.2" fill="#355d8a" fill-opacity=".988" transform="translate(40.7 112.5)"/><path d="M16.1-23.15v-.55q.7-.3.8-1.15 5.75-7.95 5.75-8.65l-.1-.3q2.25-3.95 3.9-14.2 1.85-11.05 1.85-18.9 0-5.8-.55-9.2L25.3-86.65l-1.65-5.1q-1.2-2.8-3.05-4.8l-2.3-2.65-2.05-2.15q-1.85-1.55-3.6.5l-1 1.45q-.25.25-.35.9v.2l-.05.3v.25q0 2.1 1.25 11.1 1.2 8.95 1.2 11.85l-.2 4.6-.2 1.05v1.7l-.4 3.95q-.75 7-.8 10.65l-.4 1.2-.45-.05v.3q1.35 1.5.7 4.8l-.15.05v.25q-.1 1.3-.55 2.15v-1.6q.45.05.3-.55v-.5q1.05-2.9-.65-4.2l.35-2.55.1-1.65.1-.45V-65l.2-2.4.25-4.1q0-1.8-.45-2.9v-2l-.05-3.35.05-3.4.15-2.95q-.05-1.65-.65-2.4-.5-7.6-.8-8.75l-.4.45-.1-1-.9-3.75q-.55-2.4-1.55-2.85l-.2 3.8-.2 3 .25 3.05-.45.65-.1 1.7-.1-3.8.1-2.85-.35.05.45-1.25q-.35-3.2-.2-6.8v-.3l.5-3.5.05-.25q1.25.75 2.7 1.3v.15q0 .7.7.8l1.05.15 2.25.4 3.3.45 1.15-.05 1.7.45q4.45 2.3 6.65 5.05 1.75 2.2 3.5 5.55l2.7 5.55q2.55 5.05 4.55 10.7 2.5 7.2 2.5 11.35l-.05.5q-.6-1.75-.6.2l.25 1.7.1.65-.1.9.05 1.7.05.4q-.4 3.95-1.95 11.7l-2.6 11.95q-.5 2.15-1.1 6.4-.7 3.75-2.05 6.4l-4.6 7.3-1.5 1.85-1.55 2.05q-5.45-2.35-7.8-7.75l-.15-.05M9.85-91.6l.15 2.55h-.1l-.05-1.15v-1.4" fill="#549bb6" fill-opacity=".996" transform="translate(40.7 112.5)"/><path d="m6.5-92.2.1-1.7.45-.65-.25-3.05.2-3 .2-3.8q1 .45 1.55 2.85l.9 3.75.1 1 .1 2.65v3.95l.05 1.15.1 2.25.1.75.2 5-.05.7-.4 2.55v7.3l-.1 4.6-.1 4.55-.5 4.5q-.55 3.2-.55 4.7l.05.2h-.1l-.1 1.05L8-48.4l.15.3Q6.4-34.45 1.2-23.15L-.4-19.7q-5 10.35-18.5 11.9h-.25l-.85-.5q9.9-2.25 13.95-10.45l3.85-7.9Q3.55-38.5 5.6-54.1h.05-.3l.1-.55.7-4.25.5-3q.75-5.55.75-9.85l-.5-13-.3-5.65-.2-.75.1-1.05" fill="#c4e5f5" transform="translate(40.7 112.5)"/><path d="m9.75-96.8.4-.45q.3 1.15.8 8.75.6.75.65 2.4l-.15 2.95-.05 3.4.05 3.35v2q.45 1.1.45 2.9l-.25 4.1-.2 2.4v9.35l-.1.45-.1 1.65L10.9-51l-.3 1.25Q9.65-40.7 6.4-33.9v.55l-.05.2-.75.85v.3l-.25.05-.3.2q.2 1.35 1.3.2l.05-.2q2.75-1.6 2 .75l-1.2 3.85-.15.05q-3.25 7.85-9 13.1v.3h-.1q0 .55-.45.55l3.5.1v-.1q1.5-.15 2.5-.75l.25-.1Q-1.05-9.75-9.2-7.4q-5.4 1.5-9.7-.4Q-5.4-9.35-.4-19.7l1.6-3.45q5.2-11.3 6.95-24.95L8-48.4l.45-2.5.1-1.05h.1l-.05-.2q0-1.5.55-4.7l.5-4.5.1-4.55.1-4.6v-7.3l.4-2.55.05-.7-.2-5-.1-.75-.1-2.25h.1l-.15-2.55v-2.55l-.1-2.65" fill="#93c0e7" transform="translate(40.7 112.5)"/><path d="M5.05-18.3q9.5-5.55 12.5-17.3l.8-4.2.15-.5q.9-3.25 1.45-4.15 1.25-2.15 2-4.2l1.1-4.05 1.2-7.7q.8-6.1.8-8.75 0-1.35.35-4.05l.25-4.05q0-1.25-1.15-5.7l-1.25-4.6-.7-2.6q-.55-1.65-1.6-2.55-3.45-2.25-5.45-1.6-1.6.5-1.6 2.2l.1.3.3.3.8 9.25.65 8.8-.5 8.5-.65 7.7-.15 2.35-.15-.8-.2-1.3q0-3.05.4-6.35.4-3.35.4-7.95l-.2-.35-.05-.15.05-3.05-1-10.8-1.55-12.05.1-.3.45-1.1q.7-1.5 2.5-1.5.55 0 3.3 3.2 2.8 3.25 3.55 4.95 1.8 3.9 3 8.5 1.4 5.2 1.85 8.85.4 3.25.4 8.2l-.3 8.4-1.15 8.8Q25-44.2 22.7-37.95l-2.1 5.45.05.05-1.3 1.85-1.7 2.4-.5.2-.9 1.3-.7-.2v1.05l-.1.05q-.7 2.25-1.75 2.65v-.1q-2.35 1.25-5.15 3.6v.3l-.2.05-1.4 1v.3q-1.4.6-2.4 1.6-1.5 1.3-2.45.55.6-.35.9-1.05l.15-.05q.75-.1 1.85-1.15l.05-.2m9.35-35.45-.05.6-.45 3.95-1.05 3.75-.25 1-.35.9-.1-.45-.05-1.3 1.2-2.9.25-.45-.45-.55q0-.55.85-2.3l.45-2.25m-.15 8-.15.3-.1.3v-.15l.25-.65v.2" fill="#c57fa7" transform="translate(40.7 112.5)"/><path d="m14.65-49.3.05-.45.55-.8-.6 1.25" fill="#c781a8" transform="translate(40.7 112.5)"/><path d="M3.15-16.95 3-16.9q-.3.7-.9 1.05.95.75 2.45-.55 1-1 2.4-1.6.95-.4 1.55-1.15l.05-.2v-.3q2.8-2.35 5.15-3.6v.1q1.05-.4 1.75-2.65l.1-.05q.2-.35.45-.3l.2-.5.05-.05.9-1.3.5-.2 1.7-2.4 1.3-1.85-.05-.05 2.1-5.45Q25-44.2 25.85-49.7L27-58.5l.3-8.4q0-4.95-.4-8.2-.45-3.65-1.85-8.85-1.2-4.6-3-8.5-.75-1.7-3.55-4.95-2.75-3.2-3.3-3.2-1.8 0-2.5 1.5l-.45 1.1-.1.3 1.55 12.05 1 10.8-.05 3.05.05.15.2.35q0 4.6-.4 7.95-.4 3.3-.4 6.35l.2 1.3.15.8-.05 1.15-.45 2.25q-.85 1.75-.85 2.3l.45.55-.25.45-1.2 2.9.05 1.3.1.45q-.8 2.15-.8 2.85l.2 1.2-1.15 2.2q-1.8 2.9-.05 1.75.7-.15.65.25-1.2 9.6-6.55 16.45v.55l-.2.05-1.2 1.05v.25m8.1-27.2q.45-.85.55-2.15v-.25l.15-.05q.65-3.3-.7-4.8v-.3l.45.05.4-1.2q.05-3.65.8-10.65l.4-3.95v-1.7l.2-1.05.2-4.6q0-2.9-1.2-11.85-1.25-9-1.25-11.1V-98l.05-.3v-.2q.1-.65.35-.9l1-1.45q1.75-2.05 3.6-.5l2.05 2.15 2.3 2.65q1.85 2 3.05 4.8l1.65 5.1 2.45 10.55q.55 3.4.55 9.2 0 7.85-1.85 18.9-1.65 10.25-3.9 14.2l.1.3q0 .7-5.75 8.65-.1.85-.8 1.15v.55l-.05.25-2.2 3.5.05.3-.95 1.15-1.6 1.05-.15-.15-.75.35-.45-.05-.1-.05-.05-.55q0-.4 1.25-1.9l.15-.15.35-.4-.35-.1v.3l-.05.15q-3.35 3-7.45 5.2v.25l-.25.1q-1 .6-2.5.75h-2.1l-.1-.25-.2-.3q5.6-5.35 8.55-13.25l.05-.2L8.4-31q.75-2.35-2-.75l-.2.05q-.65.55-.6-.3v-.3l.75-.85.05-.2q1.6-2.2 2.65-4.9l.05-.25q1-.45 1.05-1.85v-.8q.75-1.2.95-3h.15" fill="#a15581" transform="translate(40.7 112.5)"/><path d="m14.45-54.9.15-2.35.65-7.7.5-8.5-.65-8.8-.8-9.25-.3-.3-.1-.3q0-1.7 1.6-2.2 2-.65 5.45 1.6 1.05.9 1.6 2.55l.7 2.6 1.25 4.6q1.15 4.45 1.15 5.7l-.25 4.05q-.35 2.7-.35 4.05 0 2.65-.8 8.75l-1.2 7.7-1.1 4.05q-.75 2.05-2 4.2-.55.9-1.45 4.15l-.15.5-.8 4.2q-3 11.75-12.5 17.3h-.5v-.55Q9.9-25.7 11.1-35.3q.05-.4-.65-.25-1.75 1.15.05-1.75l1.15-2.2-.2-1.2q0-.7.8-2.85l.35-.9.25-1 1.05-3.75.45-3.95.05-.6.05-1.15m.2 5.6.6-1.25-.55.8-.05.45m-.4 3.55v-.2l-.25.65v.15l.1-.3.15-.3" fill="#e8afca" transform="translate(40.7 112.5)"/><path d="M10.9-51q1.7 1.3.65 4.2v.5q.15.6-.3.55v1.6h-.15q-.2 1.8-.95 3v.5l-.15.05q-.25 1.15-.9 1.85v.25l-.05.25Q8-35.55 6.4-33.35v-.55q3.25-6.8 4.2-15.85l.3-1.25" fill="#559bb7" transform="translate(40.7 112.5)"/><path d="M-15.1-17.5h-.3q-3.25-.5-5.4-2.15 8.5 2.05 13.95-1.95l-2.2 4.05-.15.05v-.1l-2.15.1h-3.75" fill="#569bb6" transform="translate(40.7 112.5)"/><path d="M-20.8-19.65q2.15 1.65 5.4 2.15h.3l3.7.15.05-.15 2.15-.1v.1q-2.2 4.25-6.8 6-5.5 2-10.7-.05l-.25-.05q-4.5-1.15-6.5-4.8h.3q3.95 2.1 9.4 2.7h.25l3.2.1.05-.1.5-.1q-1.65-3.45-3.75-6.65l2.65.65.05.15" fill="#c7e6f4" fill-opacity=".996" transform="translate(40.7 112.5)"/><path d="m16.1-23.15.15.05q2.35 5.4 7.8 7.75l-.75 1q-4.05 4.6-9.55 7.7Q7.6-3.1-.65-1.95q-15 2.05-21.45-6.1l1.85-.25h.25l.85.5h.25q4.3 1.9 9.7.4Q-1.05-9.75 3.75-14v-.25q4.1-2.2 7.45-5.2l.05-.15v.2l-.15.15q-1.25 1.5-1.25 1.9l.05.55.1.05.45.05.75-.35.15.15 1.6-1.05.95-1.15-.05-.3 2.2-3.5.05-.25" fill="#559cb7" transform="translate(40.7 112.5)"/><path d="M-33.15-16.4h-.3q2 3.65 6.5 4.8l.25.05v.25q-.15 2.15-.8 3.8l-.25-.05q-7-4.55-10.55-12.6 2.3 2 5.05 3.55l.1.2" fill="#92bfe6" transform="translate(40.7 112.5)"/><path d="M-26.15-6.15q1-1.85 1.7-1.2 3.4 3.15 7.7 5.45Q-22-3.35-26.1-6l-.05-.15" fill="#8bb7dd" transform="translate(40.7 112.5)"/><path d="M15.55-25.85v-1.05l.7.2-.05.05-.2.5q-.25-.05-.45.3" fill="#7a4c70" transform="translate(40.7 112.5)"/></g><g id="u" fill-rule="evenodd"><path d="m-10.9-54.75-.05.35.1.45.35.15 1.8-1.1q1.75-.8 4.45-.8 7.6 0 12.05 2.4 2 1.1 3.6 3.15 2.45 2.95 4.2 7.3 1.95 4.8 2.65 7.7.75 3.2.75 7.2 0 6.9-8.95 12.95l-6.2 3.85L2.2-9.9q-.9.8-1.1 1.4-6.25 6.25-17.55 4.15l-.25-.05q-6.8-3.2-6.85-13.2.1 0 .1-.05l.1-.35-.15-.35.05-1.35q.3-.85 1-1.45l-1.2.25 1-9.1q1.05-7.85 1.45-8.95 2.05-5.35 3.3-7.8 1.8-3.6 3.95-5.75l3.05-2.25m-1.6 19.6q-2.15 2.35-4.25 8.2-2 5.65-2 8.85l-.1 1.15.05.1-.1.35v.3q.6 4.75 2.7 8.05l1 .55q1.4 1.1 3.1 1.4Q-3.2-4.6.6-11.3l2.25-3.85q2.7-4.65.8-9.25v-.3q0-.85-1.35-3.6-1.65-3.3-3.6-5.65-5.95-6.95-11.2-1.2" fill="#93c0e8" fill-opacity=".996" transform="translate(25.65 57.75)"/><path d="M-12.5-35.15q5.25-5.75 11.2 1.2Q.65-31.6 2.3-28.3q1.35 2.75 1.35 3.6v.3q1.9 4.6-.8 9.25L.6-11.3q-3.8 6.7-12.7 5.1-1.7-.3-3.1-1.4l-1-.55q-2.1-3.3-2.7-8.05v-.3l.1-.35-.05-.1.1-1.15q0-3.2 2-8.85 2.1-5.85 4.25-8.2m3.05 23-.1-.25q-2.85-2.75-5.05.5v.25q-.25 3.2 2.7 3.25l.3-.05q2.5-.35 2.15-3.7m1.9-.3v.3q.1 2.25 1.85 2.95h.25q2.65-.1 2.7-2.7l-.05-.25q-2.1-3.6-4.75-.3" fill="#caeaf7" transform="translate(25.65 57.75)"/><path d="M-9.45-12.15q.35 3.35-2.15 3.7l-.3.05q-2.95-.05-2.7-3.25v-.25q2.2-3.25 5.05-.5l.1.25" fill="#fafdfe" transform="translate(25.65 57.75)"/><path d="M-7.55-12.45q2.65-3.3 4.75.3l.05.25q-.05 2.6-2.7 2.7h-.25q-1.75-.7-1.85-2.95v-.3" fill="#f9fcfe" transform="translate(25.65 57.75)"/><path d="m-10.9-54.75-3.05 2.25q-2.15 2.15-3.95 5.75-1.25 2.45-3.3 7.8-.4 1.1-1.45 8.95l-1 9.1 1.2-.25q-.7.6-1 1.45l-.05 1.35.15.35-.1.35q0 .05-.1.05.05 10 6.85 13.2l.25.05Q-10.5.35-1.65-2.2-.4-2.55.5-3.3l.1.4.25-.15-.05.7v.1l5.9-1.6 4.35-1.2.15-.05.7-.25 6.25-3.8q1.45-1 2.8-2.8 1.15-1.55 1.75-2.95 1-2.5 1.3-5.9l.15-5.95-.25-5.65-.35.15.25-4.3q0-8.8-9.5-15.35-3.55-2.45-7.6-3.95Q3.05-57.2.85-57.2l-7.25.75-2.2.4q-1.95.5-2.3 1.3m-4.4 2.9q6-6.8 17.05-5.75 4.2.4 8.1 1.95 3.6 1.4 5.2 3.05 3.55 2.2 6.65 7.5 3 5.15 3 8.55v1.6l.4 2.5v1.1l.15 2.15.3 3.45.1 2.3q0 11.7-9.35 17.75Q9.45-1.25.5-1.05l-2.6.65L-7 0q-2.1 0-4.4-.7l-3.85-1q-.85-.8-2.05-1.3h-.25l-.05-.25q-.6-.75-1.85-.85l-.05-.15Q-24.65-8-25.1-16.5l.05-.25.15-1.05-.25-.3-.05-.85v-.2l-.45-.45v-1.15h.5q.3-6.4 2.8-15.35 3.15-11.25 7.05-15.75" fill="#355d8a" fill-opacity=".988" transform="translate(25.65 57.75)"/><path d="M-16.45-4.35Q-5.15-2.25 1.1-8.5q.2-.6 1.1-1.4l1.65-1.25 6.2-3.85Q19-21.05 19-27.95q0-4-.75-7.2-.7-2.9-2.65-7.7-1.75-4.35-4.2-7.3-1.6-2.05-3.6-3.15-4.45-2.4-12.05-2.4-2.7 0-4.45.8l-1.8 1.1-.35-.15-.1-.45.05-.35q.35-.8 2.3-1.3l2.2-.4 7.25-.75q2.2 0 5.85 1.35 4.05 1.5 7.6 3.95 9.5 6.55 9.5 15.35l-.25 4.3.35-.15.25 5.65L24-20.8q-.3 3.4-1.3 5.9-.6 1.4-1.75 2.95-1.35 1.8-2.8 2.8l-6.25 3.8-.7.25-.15.05-4.35 1.2-5.9 1.6v-.1l.05-.7-.25.15-.1-.4q-.9.75-2.15 1.1-8.85 2.55-14.8-2.15" fill="#559cb7" transform="translate(25.65 57.75)"/></g><g id="v" fill-rule="evenodd"><path d="m-5.3-34.25.55-.5 1.7-1.3.25-.15.2-.1 2.05-1.1q.75-.4 1.15-.8l.1-.1.3-.45.6-.9q1.65.05 2.6.75l.25.05q3.5 3.4 3.75 10v4q-.15 1.5-.8 2.45 0 .65.15 1.3l.15.05q.5.8 2.1.4l.05-.15h1.85l-.05.2-2.1 2.75.1.5.2.05-.1.2q-.05.1-.2.1.9 1.55 3.05.8 1.7-.5 2.9-1.35l-.1.2q-2.9 3-7.2 4.6v-.1q-1.1-.3-1.9 1.2v-.15q-2.65 1.1-4 3.65l.1 1.35h.15l.05.25q2 3.05-3 2.7h-.3l-4.3.3v.25h-.25l-4.85.55h-3.5v.25h-.8v.3h-.3l-1.6.25v.25h-.1l-.15-1.6q.45-.5.4-1.6h.15q2.2 2.3 6.7 1 3.2-.9 6.2-2.1Q-.6-9.95.55-15.15H.4l.15-.55q-3.2 2.6-8.5 5.15h-5.1l-.05-.15q-3.45-1.05-4.8-4.15v-2.7q.45-.5.4-1.6h.15v.25q.35 3.1 1.85 5.1l8.55.25q3.8-1.1 6.55-3.4 5.55-4.75 7-13.55-1.7-4.75-7.25-4.15l-4.65.4" fill="#569db8" fill-opacity=".996" transform="translate(20.05 42.8)"/><path d="M-17.35-19.15h-.15q.05 1.1-.4 1.6v2.7q1.35 3.1 4.8 4.15l.05.15h5.1q5.3-2.55 8.5-5.15l-.15.55Q-1.5-12.6-2.65-9.6q-1.5 3.8-4.75 3.1l-.25-.05q-3.7-1.5-7.3-.5v.25h-.25v.3h-.2l-.6 1.05v.55h-.15q.05 1.1-.4 1.6l.15 1.6h.1L-5-2.2h.3l2.65-.15.05-.15H.15l2.65-.1.05-.15.85-.1.6-.4q1.95-3.55-1.45-3.8v-.8q1.45-2.05 3.4-3.6l.05-.2q.8-1.5 1.9-1.2v.1l-.05.25-.45.85q.9.8 2.7-.25 3.7-2.05 5.9-5.65l.15-.05q1.15-1.95-.95-.25v.3q-1.2.85-2.9 1.35-2.15.75-3.05-.8.15 0 .2-.1l.1-.2q2.9-1.65 2.95-4.15l-.4.15-.7.5H9.85l-.3-.05-1.6-.5.85-3.25q1.9-8.85-2.45-14.25Q4.5-41.2 2.1-40.2l1.6-1.4 1.7-1.2q.45 1.1 1 1.25L8.55-38q1.5 2.8 2.05 5l.2 1 .2 2.05.05 1.6h.1l.05-.05-.25 3.4-.1.65-.2.35.1.5q.55 1.7 2.35.35l1-.85q.5 1 .3 2.65v.3l-.05.25q-.8 1.85-1.05 2.95l.25-.05q3.55-2.35 6.5-5.3v.25q-2.7 11.3-14 14l-.25.05q-1 .45-.3 1.3l.5 1q2.35 3.95-1.3 4.9l-.25.05-5.15.25v.25h-1.6l-5.65.25v.3h-.25l-3.25.3h-3.75v.25q-3.35.4-3.05-3l.2-1.65q.6-3.8 4.2-4.25h.1l-5.25-3.5-.05.25-.1.2-.35-1.15-.55-2q.55-3.25 1.55-5.95l.05-.25v-.25q1.85-4.1 5.25-6.55l1.3-.8q.35-.25.2.35l-.05.2-1.85 1.65v.3l-.2.05q-2.05 2.95-3.55 6.4v.85M-5.5-8.4q.85-1.65-2.2-.6l-.25.05h-3.2q.45.45 1.3.55h.3q2.3.85 3.8.05l.25-.05" fill="#355d8a" fill-opacity=".988" transform="translate(20.05 42.8)"/><path d="m7.7-21.05-.15-.05q-.15-.65-.15-1.3.65-.95.8-2.45v-.25l.15-.05q.3-2.05-.15-3.45v-.25q-.25-6.6-3.75-10l-.25-.05q-.95-.7-2.6-.75l.5-.55q2.4-1 4.25 1.35 4.35 5.4 2.45 14.25l-.85 3.25-.1.2-.15.1" fill="#d5f5f0" transform="translate(20.05 42.8)"/><path d="M8.2-25.1v-3.5q.45 1.4.15 3.45l-.15.05" fill="#76b7c8" transform="translate(20.05 42.8)"/><path d="m9.85-17.3-.2-.05-.1-.5 2.1-2.75.05-.2.7-.5.4-.15q-.05 2.5-2.95 4.15" fill="#cfefeb" transform="translate(20.05 42.8)"/><path d="M15.5-17.55v-.3q2.1-1.7.95.25l-.15.05v-.15l-.8.15" fill="#77acbc" transform="translate(20.05 42.8)"/><path d="M8.2-12.75q4.3-1.6 7.2-4.6l.1-.2.8-.15v.15q-2.2 3.6-5.9 5.65-1.8 1.05-2.7.25l.45-.85.05-.25" fill="#d3f4ef" transform="translate(20.05 42.8)"/><path d="m9.85-20.8-.05.15q-1.6.4-2.1-.4l.15-.1.1-.2 1.6.5.3.05" fill="#b0dadc" transform="translate(20.05 42.8)"/><path d="m-5.3-34.25 4.65-.4q5.55-.6 7.25 4.15-1.45 8.8-7 13.55-2.75 2.3-6.55 3.4l-8.55-.25q-1.5-2-1.85-5.1V-20q1.5-3.45 3.55-6.4l.2-.05v.25q-.2.9-.55 1.65-.2 2.9.25 5.1l.05.3Q-9-15.7-4-19.05q3.95-2.6 6.5-6.7.85-1.35 2.2-2.3-1.85-6-9.45-4.05Q-9-31-11.7-28.6q.15-.6-.2-.35l-1.3.8q.8-1.1 3-2.5 2.9-1.9 3.55-2.45l1.35-1.15" fill="#93c0e8" fill-opacity=".996" transform="translate(20.05 42.8)"/><path d="M-11.7-28.6Q-9-31-4.75-32.1q7.6-1.95 9.45 4.05-1.35.95-2.2 2.3-2.55 4.1-6.5 6.7-5 3.35-9.85-.1l-.05-.3q-.45-2.2-.25-5.1.35-.75.55-1.65v-.55l1.85-1.65.05-.2m5.55 1.85q1.25-1.65-1-.5.3 1.45 1 .5m-3.95 7.55q2.35-.15 2.4-2.65l-.05-.25q-2.15-3.8-5.05-.6v.3q-.15 3 2.45 3.25l.25-.05" fill="#cbeaf7" transform="translate(20.05 42.8)"/><path d="M-6.15-26.75q-.7.95-1-.5 2.25-1.15 1 .5" fill="#f6fbfd" transform="translate(20.05 42.8)"/><path d="m-10.1-19.2-.25.05q-2.6-.25-2.45-3.25v-.3q2.9-3.2 5.05.6l.05.25q-.05 2.5-2.4 2.65" fill="#fbfdfe" transform="translate(20.05 42.8)"/><path d="M.4-15.15h.15Q-.6-9.95-3.1-6q-3 1.2-6.2 2.1-4.5 1.3-6.7-1v-.55l.6-1.05h.2q-.5 1.95 1.3 1.5l.05-.15 6.4-1.25.05-.1q3.25.7 4.75-3.1 1.15-3 3.05-5.55" fill="#8ebde3" fill-opacity=".996" transform="translate(20.05 42.8)"/><path d="M2.55-6.8H2.4l-.1-1.35q1.35-2.55 4-3.65v.15l-.05.2Q4.3-9.9 2.85-7.85v.8h-.3v.25" fill="#caedea" transform="translate(20.05 42.8)"/><path d="M-16.3-1.7v-.25l1.6-.25h.3l2.95-.15v-.15h1.35l5.1-.65v-.15l4.6-.4v-.15q5 .35 3-2.7l-.05-.25v-.25h.3q3.4.25 1.45 3.8l-.6.4-.85.1H.15v.25H-4.7v.3H-5l-11.3.5" fill="#d7f7f1" transform="translate(20.05 42.8)"/><path d="M-5-3.3v-.25l4.3-.3h.3v.15l-4.6.4" fill="#82c0ce" transform="translate(20.05 42.8)"/><path d="M-14.95-6.8v-.25q3.6-1 7.3.5l.25.05-.05.1-6.4 1.25h-.3q-1.2 0-.8-1.65" fill="#c3e4f2" fill-opacity=".996" transform="translate(20.05 42.8)"/><path d="M-14.4-2.2v-.3h2.95v.15l-2.95.15" fill="#a4d8e0" transform="translate(20.05 42.8)"/><path d="m-10.1-2.75 4.85-.55H-5v.15l-5.1.65v-.25" fill="#7ebdcc" transform="translate(20.05 42.8)"/><path d="m-2-2.5-.05.15-2.65.15v-.3H-2" fill="#7697a4" transform="translate(20.05 42.8)"/><path d="m2.85-2.75-.05.15-2.65.1v-.25h2.7" fill="#83a3ad" transform="translate(20.05 42.8)"/><path d="M-13.6-2.5v-.25h3.5v.25h-3.5" fill="#67acc1" transform="translate(20.05 42.8)"/><path d="M-14.95-6.8q-.4 1.65.8 1.65h.3l-.05.15q-1.8.45-1.3-1.5v-.3h.25" fill="#abd3ef" transform="translate(20.05 42.8)"/></g><g id="w" fill-rule="evenodd"><path d="M-7.3-20.2q-2.5.5-3.85 2-1.3 1.5-1.3 3.6v.15q-.75 2.05-.75 3.8 0 .6.95 1.8l.7.9.1-.15L-10-9.5l.6-.15-.85.8Q-10.3-5.2-7.3-4.6l.25.05q.6.9-1.85 1.45v.15q.9.8 2.35 1.25l.05.1q6.1-.35 9.35-3.55l.05-.2.1-.2 1.55-2.5v-4.55l-.15-.05q-.6-2.6-2.2-3.1l.4-.6-1-1.15q-1.35-1.45-2.9-2.2l-.25.1-.95-.45.15-.1-2.6-.4-2.35.35m-6.05 11.65-.8-2.1q0-5.4 2.9-8.2Q-8.8-21.2-4.9-21.2l3.2.4 2-1.7q2.95-2.85 2.95-5.75 0-1-.85-2.7l-.85-1.8q0-1.55 2.15-1.4 2.2.1 3.95 1.95 1.3 1.3 3.15 4.4l1.9 4.15.95 3.15.55 1-.2.15-.05.25q-.9 3.4-2.25 6.45l-.15.05h-.15q-.3 1-.95 1.55v.6l-.05.2q-.6 1-1.55 1.65l.15.35-1.7 1.2q-.85.6-1.6 1.4l-.6.3v.25l-.2.1Q3.25-3.1 1-1.75l-.2.1-.15.05-.1.1Q-.75-.8-2.2-.25l-.25.05q-6.5 1.05-8.9-3.25l.05-.3q.3-2.15-1.65-3l.45-.4-.85-1.4M6.5-31.9q-1.4-1.15-2.9-1.15l-.65.1-.2.05q.6.65 1 2.15l.45 2.4q0 2.75-1.35 4.7-1 1.5-3.3 3.25 1 .4 1.9 1l1.85 1.55q.75.9 1 1.95l1.25 1.95.05.25q.6 1.45.8 3.25l.05.25q.3 2.3 1.9.3 4.05-4.75 3.55-12.3l-.2-.65-.1-.25-.5-.6-.15-.85.25.3-.5-1.2q-.8-2.65-2.3-5.1-.9-1.45-1.5-1.6l-.4.25m1.15 5.95-.2.7.05-1.05.15.35" fill="#355d8a" fill-opacity=".988" transform="translate(14.15 34.15)"/><path d="m-7.3-20.2 2.35-.35 2.6.4-.15.1-2-.4-2.8.25M-8.9-2.95v-.15q2.45-.55 1.85-1.45l-.25-.05q-3-.6-2.95-4.25l.85-.8-.6.15-1.45 1.4-.1.15-.7-.9q-.95-1.2-.95-1.8 0-1.75.75-3.8v.5q.15.65.95.65.55 0 1.1-.65l1.05-1.45q1.6-2.15 3.95-2.15 2.95 0 5.1 3.3l1.35 2.55.25 3.1-.1.05Q-.35-2.2-8.9-2.95m1.6-11.85v-.25q.05-1-.55-1.35v2.7h-.25v.8h.45l.35-.2.25-.05.05-.25q.15-1.05-.3-1.4m5.65 2.45-.2.05q-1.8 1.75-4.65 2.35v.3l-.05.15q-1.5.3-1.85 1.7 1.2 2.5 3.55 1.45l.25-.1 3-2.35.2-.05q1.55-2.2-.05-3.45l-.2-.05" fill="#92bfe6" transform="translate(14.15 34.15)"/><path d="m7.5-26.3-.3-.8-.95-3.4q0-1 .25-1.4l.4-.25q.6.15 1.5 1.6 1.5 2.45 2.3 5.1l.25.9.15.85.5.6.1.25h-.4v4.3l-.05.25q-.9 5.55-4.8 8.1l-.05-.25q-.2-1.8-.8-3.25 2.6-2.4 3.9-6.15l.15-.05q.05-2.1-.35-3.75-.8-.15-1.65-2.3l-.15-.35" fill="#579eb8" transform="translate(14.15 34.15)"/><path d="M6.5-31.9q-.25.4-.25 1.4l.95 3.4.3.8-.05 1.05.2-.7q.85 2.15 1.65 2.3.4 1.65.35 3.75l-.15.05Q8.2-16.1 5.6-13.7l-.05-.25L4.3-15.9q-.25-1.05-1-1.95L1.45-19.4q-.9-.6-1.9-1 2.3-1.75 3.3-3.25 1.35-1.95 1.35-4.7l-.45-2.4q-.4-1.5-1-2.15l.2-.05.65-.1q1.5 0 2.9 1.15m4.2 6.45.5 1.2-.25-.3-.25-.9" fill="#91bfe6" transform="translate(14.15 34.15)"/><path d="m-1.55-19.6.25-.1q1.55.75 2.9 2.2l1 1.15-.4.6q1.6.5 2.2 3.1l.15.05v4.55L3-5.55l-.1.2h-.1q1.15-5.15-.5-9.25v-.2l-.2-.8-1.75-2.35-1.9-1.65" fill="#cef0ec" transform="translate(14.15 34.15)"/><path d="M-7.85-13.7v-2.7q.6.35.55 1.35v.55q0 1.3-.55.8" fill="#7fa9ce" transform="translate(14.15 34.15)"/><path d="M-7.85-13.7q.55.5.55-.8v-.3q.45.35.3 1.4l-.05.25-.25.05-.35.2h-.45v-.8h.25" fill="#6389ac" transform="translate(14.15 34.15)"/><path d="m-1.65-12.35.2.05q1.6 1.25.05 3.45l-.2.05-3 2.35-.25.1Q-7.2-5.3-8.4-7.8q.35-1.4 1.85-1.7l.05-.15v-.3q2.85-.6 4.65-2.35l.2-.05" fill="#c8e8f6" transform="translate(14.15 34.15)"/><path d="M-12.45-14.45v-.15q0-2.1 1.3-3.6 1.35-1.5 3.85-2l2.8-.25 2 .4.95.45 1.9 1.65L2.1-15.6l.2.8v.2q1.65 4.1.5 9.25h.1l-.05.2Q-.4-1.95-6.5-1.6l-.05-.1Q-8-2.15-8.9-2.95q8.55.75 10.1-5.6l.1-.05-.25-3.1-1.35-2.55q-2.15-3.3-5.1-3.3-2.35 0-3.95 2.15l-1.05 1.45q-.55.65-1.1.65-.8 0-.95-.65v-.5" fill="#579eb9" transform="translate(14.15 34.15)"/><path d="m11.7-22.85.2.65q.5 7.55-3.55 12.3-1.6 2-1.9-.3 3.9-2.55 4.8-8.1l.05-.25q.45-1.7.25-4.05v-.25h.15" fill="#cbece9" transform="translate(14.15 34.15)"/><path d="M11.55-22.85v.25q.2 2.35-.25 4.05v-4.3h.25" fill="#7cbacb" transform="translate(14.15 34.15)"/></g><g id="x" fill-rule="evenodd"><path d="M-8.15-13.5v-.8h.25l.25 3.75.05.3-.15-.05-.4-3.2" fill="#5da0bd" transform="translate(11 29.3)"/><path d="M-6.25-17v-.25q.7-.75 1.3-.85L-6-17.05l-.25.05" fill="#569ab6" transform="translate(11 29.3)"/><path d="m-6.25-17-.2.05q-.6 1.2-1.45 2.1v.55h-.25v.8h-.15q.05.85-.4 1.1-.3 7.15 4.55 9.25l.05.15q3.95 1.35 6.7.3l.3-.05q1.35-1-1.35-1.7v-.15Q.8-5.1 2.9-5.15h.25q1.2-.7 1.5-2.4h.1q.2-2.3-.35-3.85h.2l-.1-1.2-.1-1q0-.55.3-1.35l.3-1 .35-.55q5.25-9.3 3.85-10-1.45-.7-3.3-.6-1.8.1-7.8 4.1l-3.05 4.4.2.25-.2.25q-.6.1-1.3.85v.25M-11-11.25q0-3.85.9-5.8 1.05-2.3 4.85-6l3.2-2.65 3.8-2.15q3.5-1.85 6.35-1.35 2.85.5 2.85 2.8 0 1.95-2.65 6.8l-3.2 5.65q.2 2 .75 3.8.4 1.3.95 2.4-.3 1.35-.95 2.35v.25q.1 1.45-.25 2.4l-.2.1-.35.4-1.3.95q-1.2.25-2 .9L-1.3 0l-1.8-.2.3-.35q-5.5-2.3-7.9-7.8l-.15-.05v-.55l.3-.15-.25-.9-.2-1.25" fill="#355d8a" fill-opacity=".988" transform="translate(11 29.3)"/><path d="M-7.9-14.3v-.55q.85-.9 1.45-2.1l.2-.05.25-.05 1.05-1.05.2-.25.4-.45 2.7-3q1.4-1.8 3.3-2.7 2.15-1 2.15.9L2.4-21Q1-18.2 1-15.9l.3.8.1.15.05.05.25-.2.45 1.95v.2q1.1 2.35 1 5.4l-.05.15Q2-6.3.45-5.7H.2l-4.6-.8-.05-.2Q-6.6-7.95-7.6-10.25l-.05-.3-.25-3.75m1.65-1.65v3.25l.15.05q.6 2.55 2.5 3.7l.3.05q3.3.3 4.55-1.35v-.3Q.5-14.35-2.8-17l-.25.05-.6.1-2.6.9" fill="#93c1e7" transform="translate(11 29.3)"/><path d="m-4.75-18.35-.2-.25L-1.9-23q6-4 7.8-4.1 1.85-.1 3.3.6 1.4.7-3.85 10l-.35.55-.3 1q-.3.8-.3 1.35l.1 1 .1 1.2h-.2q.55 1.55.35 3.85h-.1q-.3 1.7-1.5 2.4H2.9q-2.1.05-1.35.55v.15q2.7.7 1.35 1.7l-.3.05Q-.15-1.65-4.1-3l-.05-.15Q-9-5.25-8.7-12.4q.45-.25.4-1.1h.15l.4 3.2.15.05q1 2.3 3.15 3.55l.05.2 4.6.8h.25Q2-6.3 3.1-7.4l.05-.15q.1-3.05-1-5.4v-.2L1.7-15.1l-.25.2-.05-.05-.1-.15-.3-.8q0-2.3 1.4-5.1l1.4-2.6q0-1.9-2.15-.9-1.9.9-3.3 2.7l-2.7 3-.4.45" fill="#549bb6" transform="translate(11 29.3)"/><path d="m-6.25-15.95 2.6-.9.6-.1.25-.05q3.3 2.65 4.05 6.45v.3Q0-8.6-3.3-8.9l-.3-.05q-1.9-1.15-2.5-3.7l-.15-.05v-3.25" fill="#caeaf7" transform="translate(11 29.3)"/></g><g id="y" fill-rule="evenodd"><path d="m-27.65-39.45.3.1q.05-5.05 4.6-8.9 7.25-6.15 23.9-6.1 14.55 1 18.8 4.95.95.85 2.75 3.6 1.55 2.4 3.45 3.75v.75l1 1.7q1.15 2.65 1.25 5.05v.4l-.2 1.65-.2.85-.5 2.1-.1.3q-1.35 3.15-3.5 5.5l.15.3-.6.9-.55.8-.35-.1v.25l-.2.05q-.45.65-1.15 1.05v.25l-.2.1q-.8.9-1.95 1.55v.25l-.2.05q-1.8 1.75-4.65 2.35v.3h-.25q-.95.15-.9-.7l.1-.4q.75-.6.55-2.15l-.05-.25.05-.25q.15-1.05-.3-1.4v-.25q.05-1-.55-1.35v2.7h-.25v1.1l-.05.25q-.35 1.6-1.25 2.7l-.6.15-1.45 1.4-1.5 1.35L7.2-13l-.2.1q-1.75 1.6-2.75 3.95v.55l-.2.05q-2.4 4.9-6.8 7.75L-3-.55l-2.2.5h-.25q-1.5.2-1.9-.8.4-1.35-.05-2.1l-6.15-9.5v.25l-.1.4-.95-2.4q-.75-2.55-.85-5.6l.2-.4h-.2v.4q-.6 1.3-.6 2.15l.1 1 .1 1.2h-.2l-.15-.25-.05-.25q-3.75-2.8-4.8-8.35v-.25q-.85 1.05-1.35 2.45v.25l-.1.15q-1 .65-2.05-.15l-.1-.2-.4-.15-.4-.55-1.5-1.9q-.9-4.05-1.4-8.3-.25-1.8.4-3.3.65-1.55.45-2.7l-.15-.5m42.4 18.95.4 2.95h.15L17.65-19l.05-.15q8.7-5.05 8.45-17.5-.05-2.7-1.05-3.75l-1.15-2q-1-1.55-2.05-2.2l-1.35-2.2q-4.7-6.35-18.1-6.35l-9 .85q-5.65.95-10.05 2.65-10.65 4.15-9.85 10.75h.05v1.8l-.6 1.5v3.75q.45 4.85 2.8 7.8h.15q.85-.6 1.5-2.7.65-2 2.55-2.65 1 1 1.2 3.75.1 1.7.9 3.15.65 1.3 1.15 2.8.45-3.3 2.5-5.05l.2-.1q0 11.75 5.6 17.8 2 2.1 3.25 4.85 6.6-1.65 8.95-7.7 1.1-2.85 1.25-6.85.15-2.65.55-5l.05.2q.1.55.55.5.3 1.15.75 2.15l.05.3q-.15.55.2.65l.05.15q.4 3.65 2.75 1.4l.2-.05q1.85-3.8 1.9-9.7l.1.1.7.4q1.25 1.9 1.85 4.35l.05.25v.55m-30.15 1.35v.25q.7 3.5 0-.25" fill="#355d8a" fill-opacity=".988" transform="translate(28.4 54.35)"/><path d="m.5-32.9.05-.35q-2.45-7.7-3.8-8.55-1.05-.6-1.9 1.05l-.9 2.45-1.3 2.55q-.6 1.2-.6 1.75l.05.4.05.05q-3.35 3.75-4.35 9.8v.3q-.55 12.1 6.75 16.4v-.25q-.9-5.45-.55-10.8l.15.05q1.5 6.15 3.9 11.25 3.15-3.6 4.05-9.4Q3.6-25.9.5-32.9m17.35-1.2.5-.25v-1.8q-1.6-2.75-2.8-3.85-2.15-1.85-7.8-2.05v.1l-.05.55 1.85 4.05 1.65 3-.2.1.1.8h.15q.2 1.55.75 2.75l.05.25.4 3.75h.15l.2.85.05.2-.7-.4-.1-.1q-.05 5.9-1.9 9.7l-.2.05Q7.6-14.15 7.2-17.8q2.1-1.4 2.3-6.2.1-4.35-.75-7.75l.15-.05.15-.1.05-.55q0-1.55-1.75-5.65-1.95-4.65-3.65-4.65l-.05.55 1.65 4.85.65 3.15-.65.5.5 2.95.05.3.3 5.1v.25h-.3v2.7q.35.35.3 1.1v.25q-.45.05-.55-.5l-.05-.2q-.4 2.35-.55 5-.15 4-1.25 6.85Q1.4-3.85-5.2-2.2q-1.25-2.75-3.25-4.85-5.6-6.05-5.6-17.8l-.2.1q-2.05 1.75-2.5 5.05-.5-1.5-1.15-2.8-.8-1.45-.9-3.15-.2-2.75-1.2-3.75-1.9.65-2.55 2.65-.65 2.1-1.5 2.7h-.15q-2.35-2.95-2.8-7.8l2.65 5.2.05.2 6.3-7.45.15-.1q-.5 5.5.7 10.75l.1.05 4.55-11.35.05-.25-.45-.05.15-.45.05-1.95q0-2.8-.65-4.95-1-3.2-3.1-2.75l-.3.1q-.35-1.9-2.55-2.5l-1.8.05-.75.85q-2.2.4-3.45 3.35-.95 2.15-1.1 4.2h-.05q-.8-6.6 9.85-10.75 4.4-1.7 10.05-2.65l9-.85q13.4 0 18.1 6.35l1.35 2.2q-.7-.4-1.4-.5l-.05.65 2.3 3.55-.15.05.6 1.4q2.7 5.2.35 10.85-2.2 5.4-6.1 9.15l.05.2q.05.1.2.1l-.05.15-2.35 1.45h-.15l-.4-2.95q1.55-.4 2.4-2.7 2.15-5.6.7-10.9" fill="#579eb9" transform="translate(28.4 54.35)"/><path d="M.5-32.9q3.1 7 1.6 16.7-.9 5.8-4.05 9.4-2.4-5.1-3.9-11.25L-6-18.1q-.35 5.35.55 10.8v.25q-7.3-4.3-6.75-16.4v-.3q1-6.05 4.35-9.8v.05l.1.05.5.05q.7 0 1.4-1.1h4.6l1 2.3.75-.7m-5.15.8-.2.1Q-8-28.05-9.5-22.4v.25q.2 4.7 2.15 7.55v-.25q-.35-7.2 2.7-11.05.3.65.15 1.9-.65 7.1 2 12.4 1.45-2.25 2-5.2Q1.4-27-4.65-32.1" fill="#94c1e9" transform="translate(28.4 54.35)"/><path d="M-4.65-32.1Q1.4-27-.5-16.8q-.55 2.95-2 5.2-2.65-5.3-2-12.4.15-1.25-.15-1.9-3.05 3.85-2.7 11.05v.25q-1.95-2.85-2.15-7.55v-.25Q-8-28.05-4.85-32l.2-.1" fill="#c8e8f7" transform="translate(28.4 54.35)"/><path d="M17.85-34.1q1.45 5.3-.7 10.9-.85 2.3-2.4 2.7v-.55q.45.45.55 0 1.7-8.8-4.05-12.65v.25h-.15l-.1-.8.2-.1q.6.95.85.95.4 0 .5-.15l.1-.25-.5-1.15q2.25-1.15 4.75-1.2l.85 2.1.1-.05m-12 3.65-.05-.3-.5-2.95.65-.5.15 1.45.1.05.5.05q.35 0 .75.5.45.45.95.45l.35-.05q.85 3.4.75 7.75-.2 4.8-2.3 6.2l-.05-.15q-.35-.1-.2-.65l.25.1q1.4-7.2-1.35-11.95" fill="#94c2e9" transform="translate(28.4 54.35)"/><path d="m12.85-25.65-.05-.2-.2-.85v-.3q.2-2.2-.55-3.45L12-30.7q-.55-1.2-.75-2.75v-.25Q17-29.85 15.3-21.05q-.1.45-.55 0l-.05-.25q-.6-2.45-1.85-4.35" fill="#c4e5f4" transform="translate(28.4 54.35)"/><path d="m-7.85-33.55-.05-.05-.05-.4q0-.55.6-1.75l1.3-2.55.9-2.45q.85-1.65 1.9-1.05 1.35.85 3.8 8.55l-.05.35-.75.7-1-2.3h-4.6q-.7 1.1-1.4 1.1l-.5-.05-.1-.05v-.05m19.05-.8-1.65-3L7.7-41.4l.05-.55v-.1q5.65.2 7.8 2.05 1.2 1.1 2.8 3.85v1.8l-.5.25-.1.05-.85-2.1q-2.5.05-4.75 1.2l.5 1.15-.1.25q-.1.15-.5.15-.25 0-.85-.95m-37.6-4.55q.15-2.05 1.1-4.2 1.25-2.95 3.45-3.35l-.05.5.35.55-.8 2-1 2.75-.15 2.5-.3 1.05.05.15h-.1l-.05.1q.05.8-.4 1-.3 4.3.5 7.55l.05.25 5.25-7.1-.1-.3-.05-.15v-.1l.75-2.55.7-2.1-.1-1.35.3-1.15.3-1.25-.05-.75.3-.1q2.1-.45 3.1 2.75.65 2.15.65 4.95l-.05 1.95-.15.45.45.05-.05.25-4.55 11.35-.1-.05q-1.2-5.25-.7-10.75l-.15.1-6.3 7.45-.05-.2-2.65-5.2v-3.75l.6-1.5v-1.8m32.35 4.7-.65-3.15-1.65-4.85.05-.55q1.7 0 3.65 4.65Q9.1-34 9.1-32.45l-.05.55-.15.1-.15.05-.35.05q-.5 0-.95-.45-.4-.5-.75-.5l-.5-.05-.1-.05-.15-1.45m-21.1-.3-.2.05q-1.6 2.35-1.95 5.85v.3q0 1.6.55 2.65.8-1.45 1.5-3.15l.5-1.25q1.2-2.65-.4-4.45" fill="#93c2e7" transform="translate(28.4 54.35)"/><path d="m22.75-40.9-2.3-3.55.05-.65q.7.1 1.4.5 1.05.65 2.05 2.2l1.15 2 .8 1.9v1.05l-.1.15-.5.15q-.2 0-2.55-3.75m-44.6-5.55.75-.85 1.8-.05q2.2.6 2.55 2.5l.05.75-.3 1.25-.3 1.15.1 1.35-.7 2.1-.75 2.55v.1l.05.15.1.3-5.25 7.1-.05-.25q-.8-3.25-.5-7.55.45-.2.4-1l.05-.1h.1l-.05-.15.3-1.05.15-2.5 1-2.75.8-2-.35-.55.05-.5m6.7 11.95q1.6 1.8.4 4.45l-.5 1.25q-.7 1.7-1.5 3.15-.55-1.05-.55-2.65v-.3q.35-3.5 1.95-5.85l.2-.05" fill="#c8e9f7" transform="translate(28.4 54.35)"/><path d="M5.85-22.4v-2.7h.3v.25q.2 1.55-.3 2.45m6.75-4.3h-.15l-.4-3.75q.75 1.25.55 3.45v.3" fill="#8ebee4" transform="translate(28.4 54.35)"/><path d="M6.15-21.05v-.25q.05-.75-.3-1.1.5-.9.3-2.45v-.5l-.3-5.1Q8.6-25.7 7.2-18.5l-.25-.1-.05-.3q-.45-1-.75-2.15" fill="#c0e2f3" transform="translate(28.4 54.35)"/><path d="M17.7-19.15q-.15 0-.2-.1l-.05-.2q3.9-3.75 6.1-9.15 2.35-5.65-.35-10.85l-.6-1.4.15-.05q2.35 3.75 2.55 3.75l.5-.15.1-.15v-1.05l-.8-1.9q1 1.05 1.05 3.75.25 12.45-8.45 17.5" fill="#d9f8f2" transform="translate(28.4 54.35)"/></g><g id="l" transform="translate(56.8 113.7)"><use ffdec:characterId="21" height="113.7" transform="translate(-56.8 -113.7)" width="113.6" xlink:href="#n"/><use ffdec:characterId="22" height="41.3" transform="translate(-44.85 -57.05)" width="75" xlink:href="#o"/></g><g id="n"><path d="m.1-98.5.15-.3q-4.95.6-9.85 3l-.15-.05-.1-1.6q2.5-7.85 5.8-13l-.4.2-1.1.95h-.55l-.25.1-2.7 2.05v.3l-.05.2-.5.3-.2.1-1.7 1.25.1.2.2.1-.05.2-3.65 3.85q-4.75 5.4-8.15 12.1.9.6 2.75-.45l2.9-1.7.8-.2 1.6-.3.3-.05-.05.25-2.65 4.75q-2.45 4.6-4.6 9.55-.15.7.3.8h.25v.15q-2 .35-3.5 1.2v-.55l5.6-12.1.05-.3q-1.9.8-3.5 1.85l-.25.05q-.1-.45-.6 0-1.9 1.65-2.1-.55v-.5Q-21.2-96-14.5-103.1q4-4.3 8.75-7.75l.2-.05q1.75-.8 3.15-2l.05-.15h.3q1.3-.6 1.6.25v.3l-.05.2q-4.65 5.3-6.95 12.95.9 1.3 2.85 0 3.35-2.25 7.95-1.85-.55 3.2-2.1 5.35l-.6.95q-.2.35 0 1.25h-.3V-91l.4 2.4.15.05q1.6 5.4 4.95 9.1l.2.05-.05.15q-1.85.1-2.95-.7l-.05-.2q-3.7-4.55-4.5-11.9v-1.1q.45-.1.3-.8l-.05-.25 1.3-4.05.05-.25" fill="#9d8005" fill-opacity=".976" fill-rule="evenodd" transform="translate(56.8 113.7)"/><path d="M-9.6-95.8q4.9-2.4 9.85-3l-.15.3-.2.05-1.15 2.1v2.15l.05.25q.15.7-.3.8v1.1h-.3l.05-.8v-.4Q-5.7-87.9-9.05-80.2l.3.2.25.05-.05.15q-1.15.3-1.85.95v.25l-.25.05-2.15.2v.3h-.55l-.25.05q-.85.45-2.2.5v.25h-1.05q-.5-.1-.3-.8.55-.55.55-1.6v-1.1q2.15-6.35 4.35-10.85l-.45.15-2 .2-.3.05-1.6.3-.8.2h-.55v-.3l1.4-.35 6.15-1.75.25-.05q-.3 4.8-1.3 8.9l-.05.25q2.7-5.9 5.8-11.5l.15-.05q-1.7-.35-3.55.5l-.25.05v-.25l-.25-.55" fill="#eed831" fill-rule="evenodd" transform="translate(56.8 113.7)"/><path d="m.1-98.5-.05.25-1.3 4.05v-2.15l1.15-2.1.2-.05" fill="#f5e677" fill-rule="evenodd" transform="translate(56.8 113.7)"/><path d="M.35-91v-2.65h.3V-91h-.3" fill="#1e1c0b" fill-opacity=".431" fill-rule="evenodd" transform="translate(56.8 113.7)"/><path d="m.9-88.55-.15-.05-.4-2.4h.3l.25 2.2v.25" fill="#483e0b" fill-opacity=".749" fill-rule="evenodd" transform="translate(56.8 113.7)"/><path d="M-1.5-92.05q.8 7.35 4.5 11.9l.05.2h-5.1v.3h-.8q-1.4.5-3.25.5v.3h-.25l-4.05.25v-.25q.7-.65 1.85-.95l.05-.15q3.8-.9 8.05-1.3l.3-.05Q-2-85.5-1.8-91.8v-.25h.3" fill="#faed87" fill-rule="evenodd" transform="translate(56.8 113.7)"/><path d="m.65-79.95-.05.15-2.65.15v-.3h2.7" fill="#909161" fill-rule="evenodd" transform="translate(56.8 113.7)"/><path d="M3.05-79.95q1.1.8 2.95.7l.05-.15q4.1 1.55 7.75 3.55l2.5 1.5.2.05h.1v.05l.7.4 1.15 1.25 2.65 2.4q2.1 1.65 3.5 4.05l.15.2v.05l.05.15.25.45-.05.1-.15.05-.75-1-2.25-2.05q-2.35-2-4.65-3.6l-1.95-1.25h.05l-.45-.25-.95-.6Q7.75-77.65-.95-78.85V-79q-1.45.2-1.65-.65h.55L.6-79.8l.05-.15h2.4m-28 5.4q1.5-.85 3.5-1.2v-.15l2.4-.65 1.1-.4.3-.05 1.05-.1v-.15h.8l-.05.15-.5.1v.3l-.2.05-2.7 1.2q-7.25 3.3-13.3 7.85l-.15.1-2.55 2-2.6 2.25v.3h-.2q-.65 1.15-1.7 1.85v.3l-.2.05-2.75 5.3v.3h-.15q-.3 1.3-.95 2.15v.8h-.1q-.5 2.75-1.5 4.85v.55q-.15 2.25-.55 4.3v-.3q-.05-1.7-.55.55l.05 1.35-.05.25h-.25l.1 3.15.05.9h.1v.25l-.25 5.45h-.15q-2 5.35-5.25 9.4v.25l-.15.05q-.2.4-.65.5v.25h-.25q.95.95 3.2.45v-.15q3.2-1.4 3.75-4.85v.5l.05 1.1-.05.3q-1.15 8.2-6.7 12.1v.25l-.2.1q-.45.35-1.15.45.7.65 2.15.55h.3l3.45.1.05-.1q4-.6 6.9-2.3l.1-.1.25-.05v.5q-.15 1.4-.65 2.5l-.6 1-.9.85.05.1v.1l.05.05v.05l.3.25.5.05h.1l.05-.05h.3q3.15 1.05 6.95.15l.05-.15 2.8.8q2.35.75 4.4 1.7 1.35.65 2.75 1 2.15.7 4.85.65v-.1l1.9.25h.25l.55.4q.45.3 1.05.55v.15l3.8.15 1.05.1h.3l4.85.3.25-.05 2.95-.65v-.15L.1-2.1h.25q2.1-.35 3.75-1.2l.05-.2q16.05-2.6 23.35-14l.05-.25 3.25.8h.25l2.4.3 1.6-.15.05-.15h.25q.8-.2-.5-.8l-.05-.15-1.35-.95-1.05-1.3v-.8h1.05l6.6 1.45.45.1.25.05 4.05.15v-.15q6-1.55 7.8-5.5l-.25.1h-.3q-7.15.3-12-2.2-2.7-1.4-4.7-3.7l2.45-.15v-.1l2.25-.55q1.15-.5 1.4-1.35h-.4L41-33l-.95-.45q-3.95-2.05-6.6-5.3-.85-1.05-1.6-2.25v-.25l.05-.1.1.15.65-.15.05-.05.75.95q2.7 3.25 6.6 5.2 2.65 1.35 5.85 2.1l.25.05q-2.55 2.15-5.7 3.75h-.25q2 1.95 5.15 2.75l.95.2 4.4.3h.3l.75-.1.35-.15-.05-.1.5-.1q1-.2 2.15-.7l.1.05.25.05q2.5-.8 1.45 1.05h.15l-.55.8-.25.3-.5.5h-.05v.1l-1.7 2.1-.7.5-.2.1q-1.3 1.4-3.35 2.05v.4l-.05.05q-1.6.75-3.7.9v.3l-.25.05-2.15.2h-.3l-2.3.1-.65.15-.2.1q-1.3 1.25-3.55 1.55v.25l-.25.1-1.4.2-.25-.05-.85-.15-1.75-.3-2.5-.3v.25h-.3l-.2.05-.85.2v.3l-.05.2-.25.3-.15.05q-.2 1-.9 1.3v.8l-.15.1q-.25.4-.95.2v.25l-.05.2-1 .9-.2.05q-.15.4-.65.45v.3l-.2.05-1.15 1.05-.8.5.1.35-.55.55-.85.7-.4.25L18-5.7l-.4.05q-3.2 1.95-7.25 3l-3.95 1Q-.95.05-10.15 0l-2.4-.05Q-22.8-.4-30.85-3.2v.25l-.1.05-.25-.6-1.4-.6-.15-.45-.2-.05q-1.3-1.1-3.55-.5l-.3-.05-4.3-.5v.3h-.8l-.25-.05-1.65-.5-.2-.05Q-46.15-7-44.05-8.5q.25-.2.55-.35V-9q-1.35 0-3.2.95l-2.1.1-.65-.05-1.05-.2h-.1l-.2-.05-2.95-.05-.25-.05q-1.55-.5-2.8-1.3v-.55q4.65-2.55 7.05-7.3l.05-.25q-1.3-.7-3.25-.9l-1.9-.45-.25-.1-.8-.45.45-.45.55-.55q4.7-5.05 6.65-12.75l.15-1.05v-4.05q1.2-5.25 1.1-10.6.75-3.9 1.25-4.9l.1.7.15-.05q1.7-5.6 4.95-9.6h-.15l1.3-1.6.75-1 4.1-2.95 2-1.4.75-.45 6.8-4.05.05-.15" fill="#355d8a" fill-opacity=".988" fill-rule="evenodd" transform="translate(56.8 113.7)"/><path d="M-.95-78.85q8.7 1.2 14.85 4.95l.95.6.45.25h-.05l1.95 1.25q2.3 1.6 4.65 3.6l2.25 2.05.75 1 .15-.05.05-.1-.25-.45q2.55 3 4.2 5.9l.95 1.75q1.1 1.55 1.9 6.1l.2.45v.5L32-51l-.15.05-1.35-3-1.4-2.25-.35-.25-2.5-3.35-.05-.05-3.7-4.2-4.35-3.8-1.8-2.05-1.6-1.45h-.1v-.1l-.3-.15h.1q-6.6-4.9-15.7-7.25h.3" fill="#d2f2f2" fill-rule="evenodd" transform="translate(56.8 113.7)"/><path d="m12.2-68.9-.05-.25q-4.9-7.45-16.1-8.65v-.1l-2.95-.15h-5.9v-.3l2.15-.2.25-.05 4.05-.25h5.1q9.1 2.35 15.7 7.25h-.1l.3.15v.1h.1l1.6 1.45 1.8 2.05 4.35 3.8 3.7 4.2.05.05 2.5 3.35.35.25 1.4 2.25 1.35 3L32-51l.1.6q.75 4.9.75 8.3l-.05.4-.1.3-.05.05-.65.15-.1-.15-.05.1v.25q.75 1.2 1.6 2.25 2.65 3.25 6.6 5.3L41-33l.05.2-.3.05-.7.25-2 .5-.2-.05q-2.5-1.4-4.4-3.45h-.1q.05.85-.4 1.05v.3q.2 1.1-.3 1.6.05.8.8.95h1.1v.1h-.25q1 .9 3.2.6h.3v.1l-2.45.15q2 2.3 4.7 3.7 4.85 2.5 12 2.2h.3l-.1.2q-3.35 3.5-9.6 4.1l-.3.05-2.3-.25-.1-.05-.25-.05L33.45-22l-2.1-.6.2.3.05.25-.05.15q-1.25.75-1.55 2.25-.15.8.8.6l.25-.05q1 .7 2.4 1.1l.55.1.05.15h-.6v.15l-3.2-.15q-1.5-.1-2.5-.6l-.65.05Q19.2-7.25 3.35-4.3v.3l-.15-.05-.1-.65-.05-.65q3.8-.9 6.4-3.05l.05-.2q1.1-.4 1.85-1.15l.05-.2q1.5-.65 2.6-1.65l.1-.2q1.8-1.2 3.15-2.75l.1-.25 2.35-2.45.05-.25q1.8-1.95 2.9-4.6l.05-.2.1-.1.45-1.5.25-.85V-25l.1-.05.5-1.55 1.05-4.7v-8.25l.15.05.2.7-1.45-8-.8-2.25-.25-.1-.15-.5-.2-.85-.05-.1-.05-.05-.1-.45-.35-.6h-.05l-.35-.75-1.75-3.8.05-.35-.8-1.25-.05-.25-.85-1.75-1.5-2.3-.15-.05q-.4-2-1.75-2.95l-.05-.2-.4-.7-2.25-2.85m21.25 40.35-.5-.8-.15.05-.95 3.75.1.2 1.5 1.05q2.1 1.1 4.9.9l-.25-.05q-2.7-2.15-4.65-5.1M28.7-15.8l.2-.05h.3v-.25l2.5.3h-3m17.6-10.6-.95-.2h.95v.2m-11.2 9.45-.05.15-1.6.15-2.4-.3h4.05m5.65-2.4h4.05v.15l-4.05-.15" fill="#569db8" fill-rule="evenodd" transform="translate(56.8 113.7)"/><path d="M-3.95-77.8q11.2 1.2 16.1 8.65l.05.25q.75 1.55 1.75 2.85l.75.85.2.05q1.35.95 1.75 2.95l.15.05 1.1 2.3 1.15 1.9.15.1.8 1.25-.05.35 1.75 3.8.35.75h.05l.35.6.1.45.1.4.2.6.15.5.25.1.8 2.25 1.45 8-.2-.7-.15-.05v8.25l-1.05 4.7-.5 1.55-.1.05v.25l-.2.1q-.3.3-.85.45v.25l.8.05-.45 1.5-.1.1-.15.05q-1.25 2.3-2.8 4.25v.5l-.05.25-2.35 2.45-.25.1-3 2.6v.3l-.1.2q-1.1 1-2.6 1.65l-.25.1-1.65 1v.25l-.05.2q-2.6 2.15-6.4 3.05v-.3q-.55-3.6-1.6-6.7l-.05-.3q-.1-.9-1.05-1.05l-.2-.05q-2.7-3.1-8.65-2.9l-.05-.15-3.75-.15v.3h-.25l-4.3.25v.3h-2.7l-.05.1q-1.75.65-2.65 2.05v.5h-.25v1.35h-.3l.15 2.7h.15l.05.2q.05.1.2.1v.8l-.05.15-.2.1.65 2.15h.15q.2 1.15.75 1.95l.05.2-.05.15-4 .4q-1.4-.35-2.75-1-2.05-.95-4.4-1.7l-2.8-.8h-.3q-3.3.55-6.7 0h-.3l-.05.05h-.1l-.5-.05-.3-.25V-7l-.05-.05v-.1l-.05-.1.9-.85.6-1q.5-1.1.65-2.5v-.75q.05-2.55-.35-4.65l-.75-2.65-.15.05-.3 1.05-.15.45q-2.55 6.3-10.15 7.35V-11q5.55-3.9 6.7-12.1l.05-.3h.1q.5-2.45-.4-3.75l-.05.2q-2.6 3.75-5.6 5.7v-.25q3.25-4.05 5.25-9.4h.15l.25-5.45v-.25l.05-.25v-.65l-.05-1.8q.45-.2.3-1.05v-1.6l.2-.3.05-.25q.4-2.05.55-4.3v-.3q.95-1.25 1.35-3.05l.2-1.1.05-.7v-.25q.85-1.05 1.05-2.7l.05-.25v-.3l2.75-5.3.2-.05q1.35-.55 1.85-1.95l.05-.2v-.3l2.6-2.25 2.55-2 .15-.1q6.05-4.55 13.3-7.85l2.7-1.2.2-.05q1.65-.25 2.75-1.05l.25-.05 3.5-.1v-.15h2.95l2.7.25h.25M-.7-65.95l3.5.15v-.15l.15-.05.05-.05q2.75-3.25-1-5.8l-.3-.05q-2.7-.6-4.85-1.85h-.25q-5.75-.6-10.5.8h-.3l-2.4.8v.45q-2.1.6-3.6 1.75-1.85 1.4-2.85 3.45v.45q.25 1.7 1.8 2h1.7q2.3-1.3 5.3-2l4.4-.7h5.1q2.35-.1 3.75.7l.05.05.25.05M.9-47.9h.3q5.4.2 7.25-4.6v-.25q.15-4.3-2.95-5.4l-.25.05q-4.2 2.1-5.4 7.25v.5q-.15 1.8.8 2.4l.25.05m8.9-4.65v.05l.05-.05H9.8m2.3 32.9h-.65l-.3.05.95-.05m-33-51.95v.15l1-.4q.95-.35.05-.05l-1.05.3m-.3 20.45-.1-.05q-.6-1.6-1.7-2.65-1.4-1.35-3.55-1.85l-.05.15q-2.2.7-2.65 3.05.05 1.75.75 2.75l.05.25q1.7 1.5 4.3 2.25v.15l-.15.05-.9 2.1.2 2.85q1.3 9.45 12.35 7.8h.1l1.75-.65q6.15-3.25 4-11.75-.2-.95-.85-1.9-1.9-2.9-4.9-3.7-2.95-.8-6.9.4l-1.75.75M-5-64.6v-.1l-4.05-.15v.25h-.3q-6.5-.05-8.85 4.05v2.15q2.6 1.55 5.65-.2l.25-.05h3.25l5.1-.15v-.15q2.3-.1 3.15-.9 1.1-1.05-.25-3.35l-.2-.05-.05-.2Q-2.6-64.6-5-64.6m-1.35 13.2h.25q2.6.05 2.7-2.4l-.05-.25q-2.15-3.95-4.8-.3v.25q.1 2.2 1.9 2.7M-15.5-25l-.3.05-1.85 1q-.1.9.3 1.3l.2.05q.6 1.6 2.15 2.3v.15l2.45.45.55.05h.25q2.45-1 2.95-4.05l.05-.25q-1.4-1.55-3.8-1.6l-2.95.4v.15m-10.8 3.2v.15q1.5-.4 0-.15" fill="#bbdef2" fill-opacity=".996" fill-rule="evenodd" transform="translate(56.8 113.7)"/><path d="m12.2-68.9 2.25 2.85.4.7.05.2-.2-.05-.75-.85q-1-1.3-1.75-2.85" fill="#88badf" fill-rule="evenodd" transform="translate(56.8 113.7)"/><path d="M-.7-65.95-.95-66l-.05-.05q-1.4-.8-3.75-.7v-.1L-9.6-67v.25h-.25l-4.4.7q-3 .7-5.3 2h-1.7q-1.55-.3-1.8-2v-.45q1-2.05 2.85-3.45 1.5-1.15 3.6-1.75v-.15l2.65-.95.05-.15q4.75-1.4 10.5-.8h.25Q-1-72.5 1.7-71.9l.3.05q3.75 2.55 1 5.8l-.05.05-.15.05H-.7m-15.9-1.85q9.05-1.75 17.25-.15.5.1.8-.15.55-1.55-1.9-2.6l-1.35-.9h-.25q-12.2-2.2-18.75 5l-.1.1h.1q2 .05 4-1.25l.2-.05" fill="#2983ac" fill-rule="evenodd" transform="translate(56.8 113.7)"/><path d="m-1.8-71.6 1.35.9q2.45 1.05 1.9 2.6-.3.25-.8.15-8.2-1.6-17.25.15v-.3q5.65-3.35 14.8-3.35v-.15" fill="#3ea7d2" fill-rule="evenodd" transform="translate(56.8 113.7)"/><path d="M2.8-65.95v.15l-3.5-.15h3.5" fill="#6790a6" fill-rule="evenodd" transform="translate(56.8 113.7)"/><path d="M5.75-55.45q-.15-.1-.15-.3l-.25-.45q-2.7 1.4-3.65 4.8v.8h-.25q.8 2.5 3 .65 1.95-1.6 1.85-3.85 0-1.1-.55-1.65m-5.9 5.1v-.5q1.2-5.15 5.4-7.25l.25-.05q3.1 1.1 2.95 5.4v.25Q6.6-47.7 1.2-47.9H.9l-.05-.2q-.7-.95-1-2.25" fill="#2a84ad" fill-rule="evenodd" transform="translate(56.8 113.7)"/><path d="M1.7-50.6v-.8q.95-3.4 3.65-4.8l.25.45q0 .2.15.3L3.4-51.1q-1.1 1.9-1.7.5" fill="#81d7fa" fill-rule="evenodd" transform="translate(56.8 113.7)"/><path d="M5.75-55.45q.55.55.55 1.65.1 2.25-1.85 3.85-2.2 1.85-3-.65h.25q.6 1.4 1.7-.5l2.35-4.35" fill="#41a9d5" fill-rule="evenodd" transform="translate(56.8 113.7)"/><path d="M9.8-52.55h.05l-.05.05v-.05" fill="#7da7cb" fill-rule="evenodd" transform="translate(56.8 113.7)"/><path d="m16.8-62.15 1.5 2.3.85 1.75.05.25-.15-.1-1.15-1.9-1.1-2.3" fill="#88bbe0" fill-rule="evenodd" transform="translate(56.8 113.7)"/><path d="m22.55-50.65.05.05.05.1.2.85-.2-.6-.1-.4" fill="#87b5db" fill-rule="evenodd" transform="translate(56.8 113.7)"/><path d="M34.55-31.5v-.1h-1.1q-.75-.15-.8-.95.5-.5.3-1.6v-.3q.45-.2.4-1.05h.1q1.9 2.05 4.4 3.45l.2.05v.15l-3.5.35" fill="#93c2e6" fill-rule="evenodd" transform="translate(56.8 113.7)"/><path d="M37.8-30.9h-.3q-2.2.3-3.2-.6h.25l3.5-.35V-32l2-.5.7-.25.3-.05h.4q-.25.85-1.4 1.35l-2.25.55" fill="#cff0ec" fill-rule="evenodd" transform="translate(56.8 113.7)"/><path d="M33.45-28.55q1.95 2.95 4.65 5.1l.25.05q-2.8.2-4.9-.9l-1.5-1.05-.1-.2.95-3.75.15-.05.5.8m-1.05 2.2q0 .5.25.8.35.35.8.65 1.35.9 3.25 1.25-1.25-1.6-2.25-3.35-.55-.95-1-1.1-.7-.25-1.05 1.75" fill="#89bbe0" fill-rule="evenodd" transform="translate(56.8 113.7)"/><path d="M32.4-26.35q.35-2 1.05-1.75.45.15 1 1.1 1 1.75 2.25 3.35-1.9-.35-3.25-1.25-.45-.3-.8-.65-.25-.3-.25-.8" fill="#95c2ea" fill-rule="evenodd" transform="translate(56.8 113.7)"/><path d="m.9-47.9-.25-.05q-.95-.6-.8-2.4.3 1.3 1 2.25l.05.2" fill="#407b97" fill-rule="evenodd" transform="translate(56.8 113.7)"/><path d="m12.1-19.65-.95.05.3-.05h.65" fill="#84b0d5" fill-rule="evenodd" transform="translate(56.8 113.7)"/><path d="m17.35-14.8-.1.25Q15.9-13 14.1-11.8v-.3l3-2.6.25-.1" fill="#8abce1" fill-rule="evenodd" transform="translate(56.8 113.7)"/><path d="m22.7-22.3-.05.2q-1.1 2.65-2.9 4.6v-.5q1.55-1.95 2.8-4.25l.15-.05" fill="#89bce1" fill-rule="evenodd" transform="translate(56.8 113.7)"/><path d="M.35-13.7q.95.15 1.05 1.05l.05.3-.2-.05q-.65-.5-.9-1.3" fill="#85a6cc" fill-rule="evenodd" transform="translate(56.8 113.7)"/><path d="m3.05-5.35.05.65.1.65.15.05q-.2.7.5.55l.3-.05-.05.2Q2.45-2.45.35-2.1l.3-.9.15-.75q1.1-7.7-4.2-10.75l-.25-.05-5.95-.75.3-.2.4-.1q-1.55-.4-3.65-.05l-.8.1q-3.5.65-5.65-.05 2-.1 2.3-.5h-.15v-.3l4.3-.25h4.05q5.95-.2 8.65 2.9l.2.05q.25.8.9 1.3l.2.05q1.05 3.1 1.6 6.7v.3" fill="#9b5680" fill-rule="evenodd" transform="translate(56.8 113.7)"/><path d="m11.4-9.95-.05.2Q10.6-9 9.5-8.6v-.25l1.65-1 .25-.1" fill="#89bbe1" fill-rule="evenodd" transform="translate(56.8 113.7)"/><path d="M3.35-4v-.3q15.85-2.95 23.75-14l.65-.05q1 .5 2.5.6l3.2.15v-.15h1.4q1.3.6.5.8H30.8l-3.25-.8-.05.25Q20.2-6.1 4.15-3.5l-.3.05q-.7.15-.5-.55" fill="#d2f2ee" fill-rule="evenodd" transform="translate(56.8 113.7)"/><path d="m-9.6-15.3 5.95.75.25.05Q1.9-11.45.8-3.75L.65-3l-.3.9H.1l-3.25.5-.25.05-3.5.25v.25h-4.6l-1.05-.1-3.8-.15v-.15q-.6-.25-1.05-.55l-.55-.4-.05-.2q-1.35-1.05-1.8-3.05V-7.5q1.05-3.65 3.4-6l.05-.2 3.75-1.5.05-.1h2.95m-5.1 4-.2.05q-1.6 2.75-2.5 6.15.35 1.55 2.35 1.9l2.5.25Q-9.2-2.85-6.1-4l.05-.3q1.1-3.05 1.05-7.25l-.3-.05q-3.9-1.15-7.25-.4l-2.15.7" fill="#e39ab3" fill-rule="evenodd" transform="translate(56.8 113.7)"/><path d="m31.6-22.05-.05-.25-.2-.3 2.1.6 6.25 1.25.25.05.1.05 2.3.25.3-.05q6.25-.6 9.6-4.1l.1-.2.25-.1q-1.8 3.95-7.8 5.5h-4.05l-.25-.05-.45-.1-6.6-1.45v-.15q-1.3-.15-1.85-.95" fill="#d0f2ee" fill-rule="evenodd" transform="translate(56.8 113.7)"/><path d="m31.05-19.1-.25.05q-.95.2-.8-.6.3-1.5 1.55-2.25l.05-.15q.55.8 1.85.95v.15H32.4v.8l-.25-.05q-.5-.3-1.1.55v.55" fill="#89b8da" fill-rule="evenodd" transform="translate(56.8 113.7)"/><path d="M34.05-17.75 34-17.9l-.55-.1q-1.4-.4-2.4-1.1v-.55q.6-.85 1.1-.55l.25.05 1.05 1.3 1.35.95.05.15h-.8" fill="#a6cee6" fill-rule="evenodd" transform="translate(56.8 113.7)"/><path d="m23.5-24.75-.25.85-.8-.05v-.25q.55-.15.85-.45l.2-.1" fill="#86b6db" fill-rule="evenodd" transform="translate(56.8 113.7)"/><path d="M-.45-112.5v-.3q-.3-.85-1.6-.25v-.3q1.8-.95 1.75.85h-.15" fill="#2c270c" fill-opacity=".553" fill-rule="evenodd" transform="translate(56.8 113.7)"/><path d="m-2.35-113.05-.05.15q-1.4 1.2-3.15 2v-.3l3-1.8.2-.05" fill="#453b09" fill-opacity=".706" fill-rule="evenodd" transform="translate(56.8 113.7)"/><path d="m-17.4-90.7-2.9 1.7q-1.85 1.05-2.75.45 3.4-6.7 8.15-12.1l3.65-3.85.05-.2 1.55-1.4.05-.25.5-.3.05-.2q1.65-.95 2.9-2.2l.05-.25h.55l-.1.25Q-8.7-104.6-10.4-98.8v1.35h-.25v2.7l-.05.15-3.75.95h-.25q-1.1.25-1.1-.55l.05-.25q1.65-4.4 3.75-8.35l-.2.05-3.1 4.4q-2.45 3.65-4.5 7.65.2.9 1.25.2l.05-.2h1.1" fill="#e2c524" fill-opacity=".996" fill-rule="evenodd" transform="translate(56.8 113.7)"/><path d="m-11.2-104.7-.2-.1-.1-.2 1.7-1.25.2-.1-.05.25-1.55 1.4" fill="#6c5f18" fill-opacity=".863" fill-rule="evenodd" transform="translate(56.8 113.7)"/><path d="m-18.5-90.7-.05.2q-1.05.7-1.25-.2 2.05-4 4.5-7.65l3.1-4.4.2-.05q-2.1 3.95-3.75 8.35l-.05.25h-.25l.05-.25.05-.2.7-2.8-.15.1-.1.15-3.8 6.2q0 .45.55.3h.25" fill="#fcf199" fill-rule="evenodd" transform="translate(56.8 113.7)"/><path d="m-5.55-109.3 1.1-.95.4-.2q-3.3 5.15-5.8 13l.1 1.6.15.05.25.55v.25h-.15q-.05.4-.65.25l-.05-.25q-.35-.9-.2-2.45v-1.35q1.7-5.8 4.75-10.25l.1-.25" fill="#f7e981" fill-opacity=".996" fill-rule="evenodd" transform="translate(56.8 113.7)"/><path d="M-9.05-106.85v-.3l2.7-2.05.25-.1-.05.25q-1.25 1.25-2.9 2.2" fill="#685c19" fill-opacity=".835" fill-rule="evenodd" transform="translate(56.8 113.7)"/><path d="m-8.5-79.95-.25-.05-.3-.2q3.35-7.7 7.3-13.05v.4l-.05.8v.25Q-2-85.5-.15-81.3l-.3.05q-4.25.4-8.05 1.3" fill="#d5af11" fill-rule="evenodd" transform="translate(56.8 113.7)"/><path d="m-9.35-95 .25-.05q1.85-.85 3.55-.5l-.15.05q-3.1 5.6-5.8 11.5l.05-.25q1-4.1 1.3-8.9l-.25.05-6.15 1.75-1.4.35v.3h-.8q-.55.15-.55-.3l3.8-6.2.1-.15.15-.1-.7 2.8-.05.2-.05.25-.05.25-.25.3.2.25 1.65-.1.05-.15 3.75-.95.05-.15h.5q.6.15.65-.25h.15" fill="#fef6ba" fill-rule="evenodd" transform="translate(56.8 113.7)"/><path d="M-10.65-94.75v-2.7h.25q-.15 1.55.2 2.45l.05.25h-.5" fill="#f4dd52" fill-rule="evenodd" transform="translate(56.8 113.7)"/><path d="M-15.8-94.2q0 .8 1.1.55h.25l-.05.15-1.65.1-.2-.25.25-.3.05-.25h.25" fill="#f4e053" fill-rule="evenodd" transform="translate(56.8 113.7)"/><path d="M-21.45-75.9h-.25q-.45-.1-.3-.8 2.15-4.95 4.6-9.55l2.65-4.75.05-.25 2-.2.45-.15q-2.2 4.5-4.35 10.85v.8l-.15.05-.9 2.65v.25l-.3.05-1.1.4-2.4.65" fill="#d2ac0f" fill-rule="evenodd" transform="translate(56.8 113.7)"/><path d="M-16.6-79.95v.3q0 1.05-.55 1.6-.2.7.3.8h.25v.15l-1.05.1v-.25l.9-2.65.15-.05" fill="#ddc223" fill-rule="evenodd" transform="translate(56.8 113.7)"/><path d="M-15.8-77.25v-.25q1.35-.05 2.2-.5l.25-.05v.25l-.25.05q-1.1.8-2.75 1.05v-.3l.5-.1.05-.15" fill="#95b5bd" fill-rule="evenodd" transform="translate(56.8 113.7)"/><path d="M-12.8-78.05h2.95v.15l-3.5.1v-.25h.55" fill="#8cbce1" fill-rule="evenodd" transform="translate(56.8 113.7)"/><path d="M-2.6-79.65q.2.85 1.65.65v.15H-6.1v-.3q1.85 0 3.25-.5h.25" fill="#b6b44e" fill-rule="evenodd" transform="translate(56.8 113.7)"/><path d="m-6.9-78.05 2.95.15v.1h-.25l-2.7-.25" fill="#87badf" fill-rule="evenodd" transform="translate(56.8 113.7)"/><path d="M-25.75-86.15q.2 2.2 2.1.55.5-.45.6 0l-.55.5q-2.35 2-2.7-.75l.3-.25.25-.05" fill="#786204" fill-opacity=".878" fill-rule="evenodd" transform="translate(56.8 113.7)"/><path d="m-20.9-71.6 1.05-.3q.9-.3-.05.05l-1 .4v-.15" fill="#9abed2" fill-rule="evenodd" transform="translate(56.8 113.7)"/><path d="M-1.8-71.6v.15q-9.15 0-14.8 3.35v.3l-.2.05q-2 1.3-4 1.25h-.1l.1-.1q6.55-7.2 18.75-5h.25" fill="#8ddbfb" fill-rule="evenodd" transform="translate(56.8 113.7)"/><path d="m-37.85-62.95-.05.2q-.5 1.4-1.85 1.95v-.3q1.05-.7 1.7-1.85h.2" fill="#87b3d9" fill-rule="evenodd" transform="translate(56.8 113.7)"/><path d="m-26.8-53-.1.2-.45.6q.85 2.6 3.45 3.55l.6.2h.4q.1-2-.45-3.35-.8-1.75-2.95-2.3v.3l-.25.05-.25.2v.55m2.65 5.9v-.15q-2.6-.75-4.3-2.25l-.05-.25q-.7-1-.75-2.75.45-2.35 2.65-3.05l.05-.15q2.15.5 3.55 1.85 1.1 1.05 1.7 2.65l.1.05.1.25q.85 1.55.2 3.25l-.05.2-3.2.35" fill="#2c85ad" fill-rule="evenodd" transform="translate(56.8 113.7)"/><path d="M-23.05-48.45h-.25l-.6-.2q-2.6-.95-3.45-3.55l.45-.6.1-.2 2.45 2.9.2.05.4.5.65.9.05.2" fill="#3fa7d3" fill-rule="evenodd" transform="translate(56.8 113.7)"/><path d="M-26.3-53.8v-.3q2.15.55 2.95 2.3.55 1.35.45 3.35h-.15l-.05-.2-.65-.9-.4-.5-.05-.2q-1.35-1.5-2.1-3.55" fill="#88dafc" fill-rule="evenodd" transform="translate(56.8 113.7)"/><path d="M-26.8-53v-.55l.25-.2.25-.05q.75 2.05 2.1 3.55l.05.2-.2-.05-2.45-2.9" fill="#59c5f2" fill-rule="evenodd" transform="translate(56.8 113.7)"/><path d="m-21.2-51.15 1.75-.75q3.95-1.2 6.9-.4 3 .8 4.9 3.7.65.95.85 1.9 2.15 8.5-4 11.75l-1.75.65h-.1Q-23.7-32.65-25-42.1l-.2-2.85.9-2.1.15-.05 3.2-.35.05-.2q.65-1.7-.2-3.25l-.1-.25" fill="#fdfefe" fill-rule="evenodd" transform="translate(56.8 113.7)"/><path d="M-4.75-66.75H-9.6V-67l4.85.15v.1" fill="#376c88" fill-rule="evenodd" transform="translate(56.8 113.7)"/><path d="M-9.05-64.6H-5q2.4 0 3.7 1.15l.05.2q-.15.15-.25.15h-.15l-.15 2.55-.55.05-8.3.65-1.9.25-.3.05.2-.1.1-.05.5-.15 1.4-.2 8.35-.7q.4-.05.25-.6-.05-1.3-1.1-1.5-8.15-1.45-13.2 1.75v.55h-.25q.45 1.15 1.55 1.35l-1.55.25v-.25q-.7-3.2-1.6.8v-2.15q2.35-4.1 8.85-4.05h.3m4.3.55H-5q-2.95-.4-5.4 0v.15l5.65-.15" fill="#2b7a9f" fill-rule="evenodd" transform="translate(56.8 113.7)"/><path d="M-9.05-64.6v-.25l4.05.15v.1h-4.05" fill="#96bac9" fill-rule="evenodd" transform="translate(56.8 113.7)"/><path d="m-4.75-64.05-5.65.15v-.15q2.45-.4 5.4 0h.25" fill="#2187b4" fill-rule="evenodd" transform="translate(56.8 113.7)"/><path d="m-1.25-63.25.2.05q1.35 2.3.25 3.35-.85.8-3.15.9h-8.35v.3l-.25.05q-3.05 1.75-5.65.2.9-4 1.6-.8v.25l1.55-.25 2.2-.35.3-.05 1.9-.25 8.3-.65.55-.05.15-2.55h.15q.1 0 .25-.15" fill="#2887b2" fill-rule="evenodd" transform="translate(56.8 113.7)"/><path d="M-16.6-71.85v-.3l2.4-.8h.3l-.05.15-2.65.95" fill="#83b0d6" fill-rule="evenodd" transform="translate(56.8 113.7)"/><path d="M-9.05-58.65h-3.25v-.3h3.25v.3" fill="#5e8aa0" fill-rule="evenodd" transform="translate(56.8 113.7)"/><path d="M-2.05-61.35q.15.55-.25.6l-8.35.7-1.4.2-.5.15-.1.05-.2.1-2.2.35q-1.1-.2-1.55-1.35h.25q2.45-.95 6.5-1.3l7.8.5" fill="#3fa6d1" fill-rule="evenodd" transform="translate(56.8 113.7)"/><path d="M-16.35-60.55v-.55q5.05-3.2 13.2-1.75 1.05.2 1.1 1.5l-7.8-.5q-4.05.35-6.5 1.3" fill="#8bdafa" fill-rule="evenodd" transform="translate(56.8 113.7)"/><path d="M-3.95-58.95v.15l-5.1.15v-.3h5.1" fill="#89afc0" fill-rule="evenodd" transform="translate(56.8 113.7)"/><path d="M-6.35-51.4q-1.8-.5-1.9-2.7v-.25q2.65-3.65 4.8.3l.05.25q-.1 2.45-2.7 2.4h-.25" fill="#fafdfe" fill-rule="evenodd" transform="translate(56.8 113.7)"/><path d="m-42.7-55.15-.05.25q-.2 1.65-1.05 2.7v-.8q.65-.85.95-2.15h.15" fill="#80aacf" fill-rule="evenodd" transform="translate(56.8 113.7)"/><path d="M-43.8-52.2v.25l-.05.7-.2 1.1q-.4 1.8-1.35 3.05v-.25q1-2.1 1.5-4.85h.1" fill="#80abd0" fill-opacity=".996" fill-rule="evenodd" transform="translate(56.8 113.7)"/><path d="m-45.95-42.5-.05.25-.2.3v1.3h-.3l.05-.25-.05-1.35q.5-2.25.55-.55v.3" fill="#1f2c3b" fill-opacity=".518" fill-rule="evenodd" transform="translate(56.8 113.7)"/><path d="M-46.2-40.65v.3q.15.85-.3 1.05l.05 1.8v.65l-.05.25h-.1l-.05-.9-.1-3.15h.55" fill="#3d5671" fill-opacity=".843" fill-rule="evenodd" transform="translate(56.8 113.7)"/><path d="M-52.15-21.25q3-1.95 5.6-5.7l.05-.2q.9 1.3.4 3.75h-.1l-.05-1.1v-.5q-.55 3.45-3.75 4.85h-.25l-2.7-.3v-.25q.45-.1.65-.5l.15-.05" fill="#96c1e6" fill-rule="evenodd" transform="translate(56.8 113.7)"/><path d="M-52.95-10.75q7.6-1.05 10.15-7.35l.15-.45.3-1.05.15-.05.75 2.65q.4 2.1.35 4.65v.25l-.25.05-.1.1q-2.9 1.7-6.9 2.3h-3.8q-1.45.1-2.15-.55.7-.1 1.15-.45l.2-.1" fill="#95c2e9" fill-rule="evenodd" transform="translate(56.8 113.7)"/><path d="M-50-20.15v.15q-2.25.5-3.2-.45h.25l2.7.3h.25" fill="#7197b8" fill-opacity=".996" fill-rule="evenodd" transform="translate(56.8 113.7)"/><path d="m-48.35-9.65-.05.1-3.45-.1h3.5" fill="#6386a9" fill-opacity=".996" fill-rule="evenodd" transform="translate(56.8 113.7)"/><path d="m-17.15-22.6-.2-.05q-.4-.4-.3-1.3l1.85-1 .3-.05h.1l-1.75 1.35v1.05" fill="#7e6582" fill-rule="evenodd" transform="translate(56.8 113.7)"/><path d="M-15.5-25v-.15l2.95-.4q2.4.05 3.8 1.6l-.05.25q-.5 3.05-2.95 4.05H-12l-.55-.05-2.45-.45v-.15q-1.55-.7-2.15-2.3v-1.05L-15.4-25h-.1m5.65 1.6q.15-.55-.2-.7-1.35-.55-2.5-.5-1.7 0-2.95 1.2-.2 1.25.4 1.55 1.4.7 2.55.6 1.65-.2 2.7-2.15" fill="#a15f87" fill-rule="evenodd" transform="translate(56.8 113.7)"/><path d="M-26.3-21.8q1.5-.25 0 .15v-.15" fill="#98b7c6" fill-rule="evenodd" transform="translate(56.8 113.7)"/><path d="M-22.25-9.1q-.15 0-.2-.1l-.05-.2v-4.05h.25v4.35" fill="#6a6f92" fill-rule="evenodd" transform="translate(56.8 113.7)"/><path d="M-9.6-15.3h-3.2q-5.2.05-8.4 2.15-.15 3.85.8 6.45l.05.25v.15q-1.15-2.1-1.65-5l.25 4.35.05.25h-.15q.05-1.15-.4-1.6v-5.65q.9-1.4 2.65-2.05l.05-.1h2.85q-.3.4-2.3.5 2.15.7 5.65.05l.8-.1q2.1-.35 3.65.05l-.4.1-.3.2" fill="#874d6e" fill-rule="evenodd" transform="translate(56.8 113.7)"/><path d="M-41.9-6.7q3.4.55 6.7 0h.3l-.05.15q-3.8.9-6.95-.15" fill="#83add3" fill-rule="evenodd" transform="translate(56.8 113.7)"/><path d="M-22.5-9.4h-.15l-.15-2.7h.3v2.7" fill="#91bee5" fill-rule="evenodd" transform="translate(56.8 113.7)"/><path d="M-21.7-5.9h-.15l-.65-2.15.2-.1.05-.15q.45.45.4 1.6h.15v.8" fill="#86a6cb" fill-rule="evenodd" transform="translate(56.8 113.7)"/><path d="M-19.8-5.65q.45 2 1.8 3.05l.05.2h-.25l-1.9-.25-.15-.05q-.15-.75-.65-1.05l-.05-.2q-.55-.8-.75-1.95v-.8l-.05-.25-.25-4.35q.5 2.9 1.65 5v-.15q.45.1.4.8h.15" fill="#9e557f" fill-rule="evenodd" transform="translate(56.8 113.7)"/><path d="m-12.55-15.3-.05.1-3.75 1.5-.05.2q-2.35 2.35-3.4 6v1.85h-.15q.05-.7-.4-.8l-.05-.25q-.95-2.6-.8-6.45 3.2-2.1 8.4-2.15h.25" fill="#e86165" fill-rule="evenodd" transform="translate(56.8 113.7)"/><path d="m-24.95-3.2 4-.4.05-.15q.5.3.65 1.05l.15.05v.1q-2.7.05-4.85-.65" fill="#6da5c6" fill-rule="evenodd" transform="translate(56.8 113.7)"/><path d="M-9.85-23.4q-1.05 1.95-2.7 2.15-1.15.1-2.55-.6-.6-.3-.4-1.55 1.25-1.2 2.95-1.2 1.15-.05 2.5.5.35.15.2.7m-4.05 1.25q.5.1.7-.15 1.6-2.3-1.25-1.1-.2 1.15.55 1.25" fill="#f5bbd0" fill-rule="evenodd" transform="translate(56.8 113.7)"/><path d="M-12.3-16.65v-.3l3.75.15.05.15h-3.8" fill="#a6b8c8" fill-rule="evenodd" transform="translate(56.8 113.7)"/><path d="M-13.9-22.15q-.75-.1-.55-1.25 2.85-1.2 1.25 1.1-.2.25-.7.15" fill="#fefbfc" fill-rule="evenodd" transform="translate(56.8 113.7)"/><path d="m-14.7-11.3 2.15-.7q3.35-.75 7.25.4l.3.05q.05 4.2-1.05 7.25l-.05.3q-3.1 1.15-6.45 1.05l-2.5-.25q-2-.35-2.35-1.9.9-3.4 2.5-6.15l.2-.05m1.6 1.9-.25.05-.85.75q.15 2.5 1.65 2.3.55-.05 1.3-.5l.05-.15.15-.05q1.1-2.55-1.5-2.45l-.55.05" fill="#f7bbd1" fill-rule="evenodd" transform="translate(56.8 113.7)"/><path d="m-11.2-6.95-.05.15q-.75.45-1.3.5-1.5.2-1.65-2.3l.85-.75.25-.05-.05.2-.75.9q.15 1.65 1.35 1.65l1.1-.25.25-.05" fill="#facfde" fill-rule="evenodd" transform="translate(56.8 113.7)"/><path d="m-13.1-9.4.55-.05q2.6-.1 1.5 2.45l-.15.05-.25.05-1.1.25q-1.2 0-1.35-1.65l.75-.9.05-.2" fill="#fef7f9" fill-rule="evenodd" transform="translate(56.8 113.7)"/><path d="M-6.9-1.05v-.25l3.5-.25.25-.05v.15L-6.1-.8l-.05-.15-.75-.1" fill="#885777" fill-rule="evenodd" transform="translate(56.8 113.7)"/><path d="m-50.8-8.25.2.05" fill="none" stroke="#c90" stroke-linecap="round" stroke-linejoin="round" transform="translate(56.8 113.7)"/></g><g id="o" fill-rule="evenodd"><path d="M21.1-32.55v-3.5q.45 1.4.15 3.5h-.15" fill="#276c92" transform="translate(44.85 57.05)"/><path d="m10.35-27.95-.3-.05-.55-.25-.2-.05q-.2-.15-.25-.4L9-29.35l.15.15.65.55.45.45.1.25" fill="#2675a4" transform="translate(44.85 57.05)"/><path d="M18.65-36.6q.5 1 .15 2.65l-.15.05v-2.7" fill="#216ea1" transform="translate(44.85 57.05)"/><path d="M-29-31.75q.5-1.4.3-3.5v-.25h.15q.45 3.15-.45 3.75" fill="#185d92" transform="translate(44.85 57.05)"/><path d="M-29.5-26.65v-.25l.45-.85.05-.2h.3v.8q0 .15-.1.15-.05.1-.2.1v.25l-.2.1-.3.2v-.3" fill="#41a3cd" transform="translate(44.85 57.05)"/><path d="m-29-23.65-.15.05q-.6.8-1.75 1h-.25l-.05-.15q-.4-.2-.2-.9l.35-.15q.15-.15.15-.4l.05-.3q.55-.2.75-.8l.05-.25.45-.6.1-.2.3-.2.2-.1q1.5 1 .1 2.75l-.1.25" fill="#99e2fa" transform="translate(44.85 57.05)"/><path d="m-31.15-22.6-.25-.05q-.45-.3-.25-1.3.3-.05.5-.3l.15-.2.15-.05-.05.3q0 .25-.15.4l-.35.15q-.2.7.2.9l.05.15" fill="#62bee1" transform="translate(44.85 57.05)"/><path d="m25.15-30.9.15-.05q.45-1.5 1.2-2.7l-.05.3q0 2.95-1.05 4.85l.05.1q2.5.55 2.9 3.1v.15L23.5-25v.25l-.2.1q-.3.3-.85.45v.25l-.2.05q-2 1.55-4.65 2.4v.25l-.25.05-2.15.5v.25l-.3.05-1.85.25v.25h-5.4l-3.25.25v.3q-.7.8-.45 2.4v.6Q1.4-20.55.9-26.65q2.25-14.95 8.85-25.6l.05-.25q.85-1.3 2.35-1.95l.05-.2 1.35-.4v-.1l4.3-.3h.3q.8.45 2.15.3h.25Q23.7-55.4 25.5-57l.15-.05q-1.15 3.4-3.7 5.45l-.05.2-.2.1q-.35.4-1.15.45.7 1.05 1.95 1.55l.2.05q3.5 1.35 7.3.45l.15.25q-1.85 2.3-5.3 3.05h-.25q.75 4.15 3.8 5.9l.25.05-2 1.65q-.15.1-.15.5-.55.25-1.2-2.1l-.15-.05-.05-.25q-.95-2.4-2.65-4.05.85 4.3 1.35 8.9v5.1l.05.25q.15.6-.35.55.4 1.25 1.4-.65l.25-1.2m-4.05-1.65h.15q.3-2.1-.15-3.5v-.3q.2-8.1-4.3-11.55h-.3q-2 0-3.45.55l1.6.5.25.05 1.4 1.25.2.05q2.1 3.35 2.15 8.65v3.2q-.05 1.2-.5 1.9v.25H18q.05-1.25-.4-1.85l-.25-.05q-1.35-.4-1.9 2.5h-.25q-.05 2.4 1.6 2.25v.15l-.75.45q-3.05 1.75-5.7.1l-.1-.25-.45-.45-.65-.55-.15-.15.05.65q.05.25.25.4l.2.05q.9 3.45 4 4.7l.05.15q7.2-1 7.55-8.9v-.25m-7.25-5.95v.45q.65-.2 0-2.05v1.6m-1.35.3v-.3q0-3.5-3-4h-.15l-1.7 4.85q0 .4.2.5 3 2.35 4.65-1.05m-4.8 4.55q-.1-1.6-.85-1.6v.3q0 2.4.8 4.05.25-1.1.05-2.75m1-.8.05.3q.4 3.05 2.65 4.3l.25-.05q1.65-.75 2.2-2.65v-.25q.05-2-.3-3.55l-.2.1q-1.7 1.55-4.65 1.8m-2.95 6.5v.25q.1 2.1-.55 3.5l.05.25q.4 1.85 2.95 1.65h.1l-2.55-5.65m10.55-7.3q.1.7.7.15 2.35-2.05-.75-1.5l.05 1.35" fill="#093d6e" transform="translate(44.85 57.05)"/><path d="M25.15-39.55v8.65l-.25 1.2q-1 1.9-1.4.65.5.05.35-.55l-.05-.25.15-.05q.3-2.7-.15-4.8v-.25q-.5-4.6-1.35-8.9 1.7 1.65 2.65 4.05l.05.25" fill="#8bb8de" transform="translate(44.85 57.05)"/><path d="M21.1-36.05v3.75q-.35 7.9-7.55 8.9l-.05-.15q-3.1-1.25-4-4.7l.55.25.3.05q2.65 1.65 5.7-.1l.75-.45q.9-1.15 1.3-2.7l.05-.3v-.25q.45-.7.5-1.9v-.25l.15-.05q.35-1.65-.15-2.65v-.25q-.05-5.3-2.15-8.65l-.2-.05-1.4-1.25-.25-.05-1.6-.5q1.45-.55 3.45-.55h.3q4.5 3.45 4.3 11.55v.3m-1.9 4.3-.15.05Q18-29.15 16.5-27.15q1.05 2.5 2.6-.35 1.25-2.3.1-4.25m-.25-2.15.1.75q.35 1.2.95.4 1.45-2.2-1.05-1.15" fill="#3ca1cd" transform="translate(44.85 57.05)"/><path d="M23.8-29.85v-4.85q.45 2.1.15 4.8l-.15.05" fill="#6990b3" transform="translate(44.85 57.05)"/><path d="M13.85-38.5v-1.6q.65 1.85 0 2.05v-.45" fill="#062c54" transform="translate(44.85 57.05)"/><path d="M12.5-38.2q-1.65 3.4-4.65 1.05-.2-.1-.2-.5l1.7-4.85h.15q3 .5 3 4v.3" fill="#f6f7f8" transform="translate(44.85 57.05)"/><path d="M7.7-33.65q.2 1.65-.05 2.75-.8-1.65-.8-4.05v-.3q.75 0 .85 1.6" fill="#052c54" transform="translate(44.85 57.05)"/><path d="M8.7-34.45q2.95-.25 4.65-1.8l.2-.1q.35 1.55.3 3.55v.25q-.55 1.9-2.2 2.65l-.25.05q-2.25-1.25-2.65-4.3l-.05-.3m-40.9.55q.35 1.5.25 3.5v.25q-.15.65-.45 1.15-.6 1-1.7 1.5l-.25.05q-2.5-1.05-2.45-4.55v-.3l2.8-.4q1-.4 1.6-1.15l.2-.05" fill="#01105b" transform="translate(44.85 57.05)"/><path d="M5.75-27.95 8.3-22.3h-.1q-2.55.2-2.95-1.65l-.05-.25q.65-1.4.55-3.5v-.25" fill="#beddeb" transform="translate(44.85 57.05)"/><path d="m16.3-35.25-.05-1.35q3.1-.55.75 1.5-.6.55-.7-.15" fill="#3692cd" transform="translate(44.85 57.05)"/><path d="m17.6-33.35-.3 2.05q-.95 3.5-1.85.4.55-2.9 1.9-2.5l.25.05" fill="#3997d2" transform="translate(44.85 57.05)"/><path d="m18.15-31.5-.05.3q-.4 1.55-1.3 2.7v-.15q-1.65.15-1.6-2.25h.25q.9 3.1 1.85-.4l.3-2.05q.45.6.4 1.85h.15" fill="#206aa1" transform="translate(44.85 57.05)"/><path d="M19.2-31.75q1.15 1.95-.1 4.25-1.55 2.85-2.6.35 1.5-2 2.55-4.55l.15-.05" fill="#98e1f9" transform="translate(44.85 57.05)"/><path d="M18.95-33.9q2.5-1.05 1.05 1.15-.6.8-.95-.4l-.1-.75m-47.65 5.95v-.3q1.05-.65 1.25.1l.1.7v.3l-.2.05-.05.05-1.1-.1v-.8" fill="#90dcf6" transform="translate(44.85 57.05)"/><path d="M-42.2-36.05h-.25l-.3.05q-.65 0-1.05-.35l.05-.15.6-.45q2.1-1.75 2.6-5l-.25-.05q-3.1-.4-4.05-2.95 2.95.75 5.05 0 .75-.25 1.45-.75l.2-.05q-.2-.9-1.05-1.95l-.6-.65q-1.3-1.3-1.8-3.3 1.55.6 2.85 1.4l.1.15v.05l6.45.25.25.05q4 4.65 6.35 10.95l1.4 4.3q1.55 5.8 1.5 11.9-.05 4-1.3 6.85l-.15-.1q-.3-1.7-1.4-2.6l-.2-.1-3.3-.35-1.65.05h-.15l-.3.05q-5.25-2.25-10.15-4.75l-1.4-.1q-1.1-.55.3-2.35.35-.5 1.3-.35-.8-2.95-.15-4.05l.1.55.35.8q1.35 3.2.4-.25l-.15-.05-.05-.2q-.3-.9-.2-2.2l.05-1.6.05-1.6q-.1-1.45-.65-1.1v.8l-.2.05-.1.2-.15-.05-.15-.25-.25-.75m8.9-1.6-.05-.25q-2.8-3.85-5.3-.3l-.05.25.1 2.55.2.7.05.2q.65.85 2.1.85h.25l1.3-.35q1.7-.85 1.4-3.65m1.1 3.75-.2.05q-.6.75-1.6 1.15l-2.8.4v.3q-.05 3.5 2.45 4.55l.25-.05q1.1-.5 1.7-1.5.3-.5.45-1.15v-.25q.1-2-.25-3.5m1.05 8.9h-.15l-.1.05-4.3.2q1.4 2.6 4.9 3.2h.45l.3.05q1.2-.8 1.8-2.05l.6-1.75.05-.25v-.25q.45-.25.25-1.1v-.25h.1l.1-2.4q-.1-4.3-1.55-7.3v1.6q.2 2.1-.3 3.5l-.2.05-.85.5q.15 1.6 1.2 1.85.15 0-.15.4v1l-.05.2-.45.85v.25h-.15q-.2-3.1-2.1-.3l-.2.3q-.15 1.15.6 1.45l.2.05v.15m4.85 3.2v.15q1.5-.4 0-.15" fill="#0b3d6d" transform="translate(44.85 57.05)"/><path d="M-40.8-31.75h-.15q.05-1.75-.2-3.1l-.2-.95v-.25q.55-.35.65 1.1l-.05 1.6-.05 1.6" fill="#6596af" transform="translate(44.85 57.05)"/><path d="m-41.35-35.25-.1.25-.05.1q-.45.9-.6.35l-.1-.8v-.7l.25.75.15.25.15.05.1-.2.2-.05" fill="#6b8a9d" transform="translate(44.85 57.05)"/><path d="m-40.8-29.05.15-.05.1-.25.15.05q.95 3.45-.4.25" fill="#6e9db5" transform="translate(44.85 57.05)"/><path d="M-33.3-37.65q.3 2.8-1.4 3.65l-1.3.35h-.25q-1.45 0-2.1-.85l-.05-.2-.2-.7-.1-2.55.05-.25q2.5-3.55 5.3.3l.05.25" fill="#f8f9f9" transform="translate(44.85 57.05)"/><path d="m-27.6-25.55-.05.25-.6 1.75q-.6 1.25-1.8 2.05l-.3-.05h-.45q-3.5-.6-4.9-3.2l4.3-.2.1-.05h.15l.85-.5.25-.05-.05.25q-.2.6-.75.8l-.15.05-.15.2q-.2.25-.5.3-.2 1 .25 1.3l.25.05h.25q1.15-.2 1.75-1l.15-.05q.65-.45 1-1.2l.25-.65.15-.05" fill="#3b9fca" transform="translate(44.85 57.05)"/><path d="m-30.05-25.55-.25.05-.85.5v-.15l-.2-.05q-.75-.3-.6-1.45l.2-.3q1.9-2.8 2.1.3h.15v.3l-.1.2-.45.6" fill="#328bc4" transform="translate(44.85 57.05)"/><path d="M-29-27.95v-1q.3-.4.15-.4-1.05-.25-1.2-1.85l.85-.5.2-.05q.9-.6.45-3.75h-.15v-1.35q1.45 3 1.55 7.3l-.1 2.4h-.1v-.3l-.1-.7q-.2-.75-1.25-.1v.3h-.3" fill="#3797c5" transform="translate(44.85 57.05)"/><path d="m-27.6-25.55-.15.05-.25.65q-.35.75-1 1.2l.1-.25q1.4-1.75-.1-2.75v-.25q.15 0 .2-.1.1 0 .1-.15l1.1.1.05-.05.2-.05v.25q.2.85-.25 1.1v.25" fill="#4aabd2" transform="translate(44.85 57.05)"/></g><g id="z" fill-rule="evenodd"><path d="M47.1-106.3h-2.7v.3q-.15 0-.2-.1l-.35-.45 3.2.15.05.1" fill="#13354c" fill-opacity=".525" transform="translate(80.8 106.55)"/><path d="M44.4-106v-.3h2.7l6.6 1.15q4 1.1 7.25 2.9l.6.4.1.15-.7.9q-1.4 1.6-3.3 2.7-1.45.8.2.7l3.1.15h.1l.05-.15h8.85q6.35 0 10 2.7l-.05.15-4.25.9-.1.2Q65-83.25 55.45-72.1v-.25q2.65-8.5 6.2-16.15l-.3-.05-.4-.05-7.25-1.15-3.65-.35-.05-.15-2.9-.15-4.05-.35q-2.3-.05-2.95-1.55 3.7-4.9 8.25-8.95l.1-.2q-1.7-2.5-4-4.35l-.05-.2m8.85 10.5H53q-.85.15-1.05-.3l1.75-1.5 4.35-4.2.05-.2-4.4-1.55-.15-.05h-.3l-.2-.05q-1.75-.8-4.1-1.05 1.15 1.15 2.65 1.95l.05.2.05.2q1.7 1.15-.85 2.2v.3l-.2.05q-2.95 1.75-5.45 4v.25l-.05.2-1.85 1.95q1.3.85 3.5.8h.3l6.6.75 7.25.5 2.55.1h.3q.1.15.25.15l.85.15-5.45 11q.45 1.25 1.7-.55l1.55-2.4 11.45-12.65h-.4l-5.15-.6-7.65.25-7.25.1h-.45" fill="#37a5db" fill-opacity=".988" transform="translate(80.8 106.55)"/><path d="m53.8-95-.1.05h-.15l-5.1.25q2.85-2.45 5.25-5.35l1.3-1.7q.3-.4-.2-.6l-1.1-.65-.45-.3h.3l.15.05 4.4 1.55-.05.2-4.35 4.2-1.75 1.5q.2.45 1.05.3h.25q0 .35.45.4h.1v.1" fill="#67fbf4" transform="translate(80.8 106.55)"/><path d="m53.25-103.3.45.3 1.1.65q.5.2.2.6l-1.3 1.7q-2.4 2.9-5.25 5.35l5.1-.25h.15l.1-.05h7.15l5.5-.1v-.15h7.7L62.7-82.6l-.2-.05-.05-.2q3.25-4.55 6.1-9.45l.1-.25-.05-.15-2.95-.15h-5.1l-6.85-.25-6.6.55v.25h-.3q-2.2.05-3.5-.8l1.85-1.95.05-.2q2.8-1.9 5.45-4l.2-.05q3.4-1.4 1.05-2.9l-.25-.05-.05-.2q-1.5-.8-2.65-1.95 2.35.25 4.1 1.05l.2.05" fill="#f7fcfd" transform="translate(80.8 106.55)"/><path d="m51.65-102.25.25.05q2.35 1.5-1.05 2.9v-.55q2.55-1.05.85-2.2l-.05-.2" fill="#55baea" transform="translate(80.8 106.55)"/><path d="m50.85-99.3-.2.05q-2.65 2.1-5.45 4v-.25q2.5-2.25 5.45-4l.2-.05v.25" fill="#5cbeec" transform="translate(80.8 106.55)"/><path d="M53.8-95v-.1h-.1q-.45-.05-.45-.4h.45l7.25-.1 7.65-.25 5.15.6H58.4v.25h-4.6" fill="#50b8e9" transform="translate(80.8 106.55)"/><path d="M67.8-81.8v-.5q3.5-3.8 7.35-7.25l.2-.05q.25 1.55-.65 3.45l-.15.05h-.3q.2 1.3 2.15.7l.05-.15.25-.05q3.1-.55 4.05.6l-7.45 7.1-2.4 2.6q-1.55 1.95-2.25.8 2-3.65 2.55-7l-.4.1-1.35.15h-.3q-1.25.3-1.35-.55m2.7-1.35v.15l3.5-.4.05.15q1.15.55-.05 2l-.15.05-.1.2q1.75-.35 2.95-2.95l-.05-.1q-4.35-.6-6.15.9" fill="#35a1d7" fill-opacity=".98" transform="translate(80.8 106.55)"/><path d="M69.7-97.4h-3.75v-.3l3.75.15v.15" fill="#1e5478" fill-opacity=".769" transform="translate(80.8 106.55)"/><path d="M66.45-95.25v.15l-5.5.1H58.4v-.25h8.05" fill="#9fd9f3" transform="translate(80.8 106.55)"/><path d="m61.1-97.4-.05.15h-.1l-3.1-.15h3.25" fill="#276c98" fill-opacity=".922" transform="translate(80.8 106.55)"/><path d="M60.8-92.85h4.85l2.7.3h.3l-.1.25q-2.85 4.9-6.1 9.45l.05.2.2.05-1.55 2.4q-1.25 1.8-1.7.55l5.45-11-.85-.15q-.15 0-.25-.15h.4q-1.3-1.05-3.25-1.8l-.15-.1m2.7.55.3.2.4.2q2.05 1.75 3.35.7v-.55q-.9-.7-4.05-.55" fill="#5ae2ef" transform="translate(80.8 106.55)"/><path d="M63.5-92.3q3.15-.15 4.05.55v.55q-1.3 1.05-3.35-.7l-.4-.2-.3-.2" fill="#38aee7" transform="translate(80.8 106.55)"/><path d="M47.1-92.3v-.25l6.6-.55 6.85.25h.25l.15.1q1.95.75 3.25 1.8h-.7l-2.55-.1-7.25-.5-6.6-.75" fill="#68fdf5" transform="translate(80.8 106.55)"/><path d="m65.65-92.85 2.95.15.05.15h-.3l-2.7-.3" fill="#92d4f2" transform="translate(80.8 106.55)"/><path d="m69.45-81.25-.05.15q-1.9.95-1.85-.7h.25q.1.85 1.35.55h.3" fill="#28709b" fill-opacity=".882" transform="translate(80.8 106.55)"/><path d="M70.5-83.15q1.8-1.5 6.15-.9l.05.1q-1.2 2.6-2.95 2.95l.1-.2.15-.05q1.2-1.45.05-2L74-83.4l-3.5.4v-.15" fill="#5eefef" transform="translate(80.8 106.55)"/><path d="M74.55-86.1q.2.85 1.6.6l.3-.05-.05.15q-1.95.6-2.15-.7h.3" fill="#256892" fill-opacity=".882" transform="translate(80.8 106.55)"/><path d="m47.1-90.4 2.9.15.05.15h-.25l-2.7-.3" fill="#081620" fill-opacity=".239" transform="translate(80.8 106.55)"/><path d="M-58.2-44.35q.7-.2.55.5v.3l-.2.05Q-62.5-37.55-66-30.35l5.9.3.3-.05h9.4l.55-.15.5-.05q-6.15 8.95-12.9 17.45v.25l4.85.3h2.15q.9.45 2.45.4v.1q-10.75 4.5-21 9.45L-76.75-.6q-2 1.35-2.45-.4 2.7-5.25 6-9.9l.2-.1q-2.1.05-4.1 1.55l-.2.1q6.45-8.25 14.85-14.5l.2-.05-3.45-.3-.3.05h-3.25v.25q-6.2.4-9.5 3.7-1.6 1.65-2.05.6 7.6-15.9 22.35-24.7l.25-.05M-69.5-25.5l9.4-1.9h.3l3.2-.1v-.15q3.85-.4 1.3 1.25l-.2.1-.25.05q-.55.3-1.35.45v1.1l-.25.05Q-65-20.1-71.4-14.2l.65.05.2-.05q1.15 1.15 2.75-.5l.2-.05h.1q-3.7 5.45-7.95 10.5 1.35-.15 3.2-1.2l.05-.15 13.7-5.25.05-.15-4.85 1.05-.3.05h-.25q-1.3.15-1.35-1.1l.05-.2q6.45-9.15 13.7-17.55l-6.45.05q-3.35 0-6.15.8-3.4 1-4.1-1.1 2.65-6.25 6.4-11.35l.05-.25-2.9 2.25-.05.2-.2.05q-4.05 5.5-7.35 11.8.35 1.2 2.45.8h.25" fill="#38a8de" fill-opacity=".992" transform="translate(80.8 106.55)"/><path d="M-58.2-44.35v-.3q2.4-.6.75 1.05l-.2.05v-.3q.15-.7-.55-.5" fill="#1f577a" fill-opacity=".765" transform="translate(80.8 106.55)"/><path d="M-59.8-30.1v-.25l2.7.1v.15h-2.7" fill="#1c4e6e" fill-opacity=".714" transform="translate(80.8 106.55)"/><path d="M-59.8-27.4h-.3l-9.4 1.9-.05-.2q-.4-.2-.2-.9 1.85-6.3 5.05-11.35l.05-.2.05-.2 2.9-2.25-.05.25q-3.75 5.1-6.4 11.35.7 2.1 4.1 1.1 2.8-.8 6.15-.8l6.45-.05q-7.25 8.4-13.7 17.55l-.05.2-.2.1-1.7 2.1q1.5 0 3.45-.95l.05-.15.3-.05 4.85-1.05-.05.15-13.7 5.25-.2-.05-.05-.2q4.55-5.15 8.7-10.7-1.75.35-3.8 1.65l-.05.15-.2.05q-1.6 1.65-2.75.5v-.25l11.3-7.75.25-.1 1.8-2.2.1-.2 1.55-1.4.05-.2.2-.1q2.55-1.65-1.3-1.25h-3.2v.25" fill="#effdfd" transform="translate(80.8 106.55)"/><path d="M-59.8-27.4v-.25h3.2v.15l-3.2.1" fill="#58e0f2" transform="translate(80.8 106.55)"/><path d="m-55.5-26.3-.05.2-1.55 1.4v-1.1q.8-.15 1.35-.45l.25-.05" fill="#62f7f4" transform="translate(80.8 106.55)"/><path d="M-54.95-30.1v-.25l4.55.1v.15h-4.55" fill="#273c46" fill-opacity=".396" transform="translate(80.8 106.55)"/><path d="m-64.65-38.15-.05.2q-3.2 5.05-5.05 11.35-.2.7.2.9l.05.2h-.25q-2.1.4-2.45-.8 3.3-6.3 7.35-11.8l.2-.05" fill="#61faf5" transform="translate(80.8 106.55)"/><path d="M-66-24.15v.1l-3.25.15v-.25H-66" fill="#2a75a2" fill-opacity=".918" transform="translate(80.8 106.55)"/><path d="m-67.6-14.75.05-.15q2.05-1.3 3.8-1.65-4.15 5.55-8.7 10.7l.05.2.2.05-.05.15q-1.85 1.05-3.2 1.2 4.25-5.05 7.95-10.5h-.1" fill="#63faf4" transform="translate(80.8 106.55)"/><path d="m-57.1-24.7-.1.2-1.8 2.2-.25.1-11.3 7.75v.25l-.2.05-.65-.05q6.4-5.9 14.05-10.45l.25-.05" fill="#64faf4" transform="translate(80.8 106.55)"/><path d="m-63.6-9.9-.05.15q-1.95.95-3.45.95l1.7-2.1.2-.1q.05 1.25 1.35 1.1h.25" fill="#69faf4" transform="translate(80.8 106.55)"/><path d="m-48.05-24.15-.45-.3.45-.25v.55" fill="#355d8a" fill-opacity=".988" transform="translate(80.8 106.55)"/><path d="M-55.25-12.3q2-.4 2.6.5h-.15v-.1q-1.55.05-2.45-.4" fill="#1f567a" fill-opacity=".769" transform="translate(80.8 106.55)"/><path d="m-62.25-12.6 5.15.15v.15h-.3l-4.85-.3" fill="#245e82" fill-opacity=".788" transform="translate(80.8 106.55)"/></g><use ffdec:characterId="1" height="42.85" width="128.15" xlink:href="#p" id="b"/><use ffdec:characterId="3" height="92.35" width="64.35" xlink:href="#q" id="c"/><use ffdec:characterId="5" height="29.5" width="35.4" xlink:href="#r" id="d"/><use ffdec:characterId="7" height="127.35" width="109.9" xlink:href="#s" id="e"/><use ffdec:characterId="9" height="112.5" width="81.4" xlink:href="#t" id="f"/><use ffdec:characterId="11" height="57.75" width="51.3" xlink:href="#u" id="g"/><use ffdec:characterId="13" height="42.8" width="40.1" xlink:href="#v" id="h"/><use ffdec:characterId="15" height="34.15" width="28.35" xlink:href="#w" id="i"/><use ffdec:characterId="17" height="29.3" width="21.95" xlink:href="#x" id="j"/><use ffdec:characterId="19" height="54.35" width="56.8" xlink:href="#y" id="k"/><use ffdec:characterId="27" height="106.55" transform="translate(21.3 2.6)" width="161.55" xlink:href="#z" id="m"/><path d="M0-42.85q26.6 0 45.35 6.25Q64.1-30.3 64.1-21.45q0 8.9-18.75 15.15Q26.6 0 0 0q-26.55 0-45.3-6.3-18.75-6.25-18.75-15.15 0-8.85 18.75-15.15 18.75-6.25 45.3-6.25" fill-opacity=".349" fill-rule="evenodd" transform="translate(64.05 42.85)" id="p"/></defs></svg>