<svg xmlns:ffdec="https://www.free-decompiler.com/flash" xmlns:xlink="http://www.w3.org/1999/xlink" ffdec:objectType="frame" height="90" width="90" xmlns="http://www.w3.org/2000/svg"><use ffdec:characterId="28" height="84.65" transform="translate(4.05 2.2)" width="74.8" xlink:href="#a"/><defs><g id="a" transform="translate(-4.05 -2.2)"><use ffdec:characterId="2" height="42" transform="matrix(.4268 0 0 .4203 20.3 69.2)" width="109" xlink:href="#b"/><use ffdec:characterId="4" height="79.85" transform="matrix(.4268 0 0 .4203 38.223 24.23)" width="64.85" xlink:href="#c"/><use ffdec:characterId="6" height="46.25" transform="matrix(.4268 0 0 .4203 22.373 60.88)" width="38" xlink:href="#d"/><use ffdec:characterId="8" height="93.25" transform="matrix(.4268 0 0 .4203 21.723 37.38)" width="81.35" xlink:href="#e"/><use ffdec:characterId="10" height="46.35" transform="matrix(.4268 0 0 .4203 37.623 61.553)" width="28.6" xlink:href="#f"/><use ffdec:characterId="12" height="21.85" transform="matrix(.4268 0 0 .4203 36.15 53.13)" width="20.15" xlink:href="#g"/><use ffdec:characterId="14" height="69.2" transform="matrix(.4268 0 0 .4203 47.15 46.38)" width="62.95" xlink:href="#h"/><use ffdec:characterId="16" height="30.7" transform="matrix(.4268 0 0 .4203 14.273 49.73)" width="24.85" xlink:href="#i"/><use ffdec:characterId="27" height="128.05" transform="matrix(.4268 0 0 .4203 10.329 2.18)" width="113.9" xlink:href="#j"/></g><g id="u"><path d="m47.5 14.15 1.55-3.9q6.85 7.8 3.9 18.3l-5.35 2.3q2.65-7.55-.1-16.7M37 1.8q-1.6 1.35-3.2 3.75-1.3 1.95-2.65 4.65l-2 4.4q-1.75 5.6-.85 8.3l-7.85 2.8q-5.6-.25-3-6.65 3.95-11 9.9-15.15l1.3-.25-1.3.25q4.05-2.8 9.05-2.4l.6.3M4.85 18.1q-.5 1.8-.5 3.85 0 5.1 2.2 7.45 1.9 2 5.7 2 2.5 0 3.25-.65L17.7 28l.15-.15 1.75 2.8.1 2.5q0 1.15-.7 3.45l-.8 2.4q-1.65-.55-3.3-.55-2.95 0-4.9.9-2.15.95-2.75 2.85-2.35-.2-4.5-3.35Q0 34.9 0 29.15q0-4.3 1.9-7.5.6-1.05 2.95-3.55m33.35 5.6q.65 4.65 2.5 8.3l.45.75-1.2.15-3-.45q-2.2-1.1-1.35-4.95l.45-2.75 2.15-1.05M26.05 43.6l.55.05.65.75q2.25 1.9 9.7 2.3l1.45.1h2.25l5.05-.1-3.65 3.3q-3.95 3.2-7.5 4.8-2.4 1.1-4.65 1.45h-.05q-5.3 1.75-8.15.5-2.55-1.1-3.25-4.6-5.3-7.45 1.3-8.55l4.6-.15 1.7.15 1.2.8-1.2-.8m23.75 9.15q11.5.65 13.05 6.85l-1.5 4 .9 1.65q-.3 2.8-1.6 4.85-2.25-5.8-8.35-8.75-3.9 2.8-9.05 3.8Q46.3 71 51.15 75.5l-.55.1-1.3.15-5.65-6.05 3.65 7.05-2.65 1.1q-3.7-2.35-8-14.3 2.25.15 4.8-.85 1.75-.65 3.7-1.85l.9-.6q4-3.85 3.75-7.5m-28.1 4h.05l1.35-.45-1.35.45h-.05m39.65 6.85q-3.1-5.1-8-6.65 4.9 1.55 8 6.65" fill="#8f2049" fill-rule="evenodd" transform="translate(1 1)"/><path d="m49.05 10.25-1.55 3.9L45 18.1q.85-9.55-1.75-11.8Q40 2.7 33.8 5.55q1.6-2.4 3.2-3.75Q39.95-.7 42.85.3q7.75 3.4 6.2 9.95m-1.45 20.6 5.35-2.3q3.2 12.2-6.75 17.85 3.4 3.15 3.6 6.35.25 3.65-3.75 7.5l-.9.6q1.3-8.8-3.1-10.85l3.65-3.3-5.05.1q8.7-7.5 6-15.6l.95-.35M27.35 3.9q-5.95 4.15-9.9 15.15-2.6 6.4 3 6.65-.3.05-.9.5l-1.7 1.65-.15.15-2.2 2.75q-.75.65-3.25.65-3.8 0-5.7-2-2.2-2.35-2.2-7.45 0-2.05.5-3.85.7-2.65 2.45-4.75 1.8-2.2 6.55-5.5 2.35-1.65 7.4-2.75l6.1-1.2m.95 19q-.9-2.7.85-8.3l2-4.4q1 7.5 4.3 9.75.7.5 1.5.75 1.85.7 4.6.85L38.2 23.7l-2.15 1.05q-6.5 1.9-7.75-1.85m-10.95 4 .5.95-.5-.95M18.2 39l1.55.65 1.2.65 3.4 2.2 1.7 1.1-1.7-.15-4.6.15q-6.6 1.1-1.3 8.55.7 3.5 3.25 4.6l-5.8-2.45-5.25-2.65q-3.6-2.7-3.6-8l.2-1.45h.3-.3q.6-1.9 2.75-2.85 1.95-.9 4.9-.9 1.65 0 3.3.55l-.35.65-.4-.15.4.15.35-.65m8.4 4.65q-.5-.8-.3-1.8 2.65-5.05 10.65-9.4l3 .45q-4.2 5.1-3 13.8-7.45-.4-9.7-2.3l-.65-.75m10.05 19.9q-2.75-.2-5-2.15-2.2-2.15-1.75-5.15 2.25-.35 4.65-1.45 1.35 5.05 6.9 7.9-2.55 1-4.8.85M46.2 46.4l-.5.3.5-.3" fill="#8698d9" fill-rule="evenodd" transform="translate(1 1)"/><path d="M33.8 5.55q6.2-2.85 9.45.75 2.6 2.25 1.75 11.8l-3.45 3.45q-2.75-.15-4.6-.85-.8-.25-1.5-.75-3.3-2.25-4.3-9.75 1.35-2.7 2.65-4.65m7.35 27.2 5.5-1.55q2.7 8.1-6 15.6H38.4l-1.45-.1q-1.2-8.7 3-13.8l1.2-.15m4 28.1q-1.95 1.2-3.7 1.85-5.55-2.85-6.9-7.9 3.55-1.6 7.5-4.8 4.4 2.05 3.1 10.85" fill="#fff" fill-rule="evenodd" transform="translate(1 1)"/><path d="m45 18.1 2.5-3.95q2.75 9.15.1 16.7l-.95.35-5.5 1.55-.45-.75q-1.85-3.65-2.5-8.3l3.35-2.15L45 18.1m-2.05 5.1q-.3-.35-.65-.35-.4 0-.7.35-.25.4-.25 1 0 .55.25.95l.7.4.65-.4.3-.95-.3-1m17.7 46.9q-2.65 4.2-9.5 5.4-4.85-4.5-7.9-10.35 5.15-1 9.05-3.8 6.1 2.95 8.35 8.75m-13.4-3.8q-.35.25-.25 1.15.15.9.75 1.9l1.3 1.65q.7.55 1.1.35.4-.25.2-1.15-.1-.85-.7-1.9-.6-1.05-1.3-1.6-.7-.6-1.1-.4m3.3.35-.7.05q-.2.25-.1.75l.65.95q.5.45.95.6l.75-.1q.25-.2.05-.7l-.6-.95q-.5-.45-1-.6" fill="#ff3a58" fill-rule="evenodd" transform="translate(1 1)"/><path d="m42.95 23.2.3 1-.3.95-.65.4-.7-.4q-.25-.4-.25-.95 0-.6.25-1 .3-.35.7-.35.35 0 .65.35m4.3 43.1q.4-.2 1.1.4.7.55 1.3 1.6.6 1.05.7 1.9.2.9-.2 1.15-.4.2-1.1-.35l-1.3-1.65q-.6-1-.75-1.9-.1-.9.25-1.15m3.3.35q.5.15 1 .6l.6.95q.2.5-.05.7l-.75.1q-.45-.15-.95-.6l-.65-.95q-.1-.5.1-.75l.7-.05" fill="#ffad82" fill-rule="evenodd" transform="translate(1 1)"/><path d="m50.6 75.6-3.3 1.15-3.65-7.05 5.65 6.05 1.3-.15" fill="#410f21" fill-rule="evenodd" transform="translate(1 1)"/><path d="m48.5 15.15 1.55-3.9q1.55-6.55-6.2-9.95-2.9-1-5.85 1.5-1.6 1.35-3.2 3.75-1.3 1.95-2.65 4.65l-2 4.4q-1.75 5.6-.85 8.3 1.25 3.75 7.75 1.85l2.15-1.05 3.35-2.15L46 19.1l2.5-3.95M29.65 4.65l-1.3.25-6.1 1.2q-5.05 1.1-7.4 2.75-4.75 3.3-6.55 5.5-1.75 2.1-2.45 4.75-.5 1.8-.5 3.85 0 5.1 2.2 7.45 1.9 2 5.7 2 2.5 0 3.25-.65L18.7 29l.15-.15 1.7-1.65q.6-.45.9-.5M19.2 40l1.55.65 1.2.65 3.4 2.2 1.7 1.1 1.2.8q2.25 1.9 9.7 2.3l1.45.1h2.25l5.05-.1.5-.3q3.4 3.15 3.6 6.35.25 3.65-3.75 7.5l-.9.6q-1.95 1.2-3.7 1.85-2.55 1-4.8.85-2.75-.2-5-2.15-2.2-2.15-1.75-5.15m-3.3-12.6q-.5-.8-.3-1.8 2.65-5.05 10.65-9.4M27.6 44.65l.65.75m25.7-15.85q3.2 12.2-6.75 17.85M22.7 57.75l-5.8-2.45-5.25-2.65q-3.6-2.7-3.6-8l.2-1.45q.6-1.9 2.75-2.85 1.95-.9 4.9-.9 1.65 0 3.3.55m4.9 17.3-1.35.45h-.05" fill="none" stroke="#313166" stroke-linecap="round" stroke-linejoin="round" stroke-width="2"/><path d="m48.6 31.85 5.35-2.3q2.95-10.5-3.9-18.3M28.35 4.9q-5.95 4.15-9.9 15.15-2.6 6.4 3 6.65l7.85-2.8m-10.45 4.95-.5-.95m23.8 5.85 5.5-1.55.95-.35M28.35 4.9q4.05-2.8 9.05-2.4m.55 30.95q-2.2-1.1-1.35-4.95l.45-2.75m-18.2 3.1 1.75 2.8.1 2.5q0 1.15-.7 3.45l-.8 2.4-.35.65-.4-.15m8.6 4.1.55.05m10.35-11.2 3 .45 1.2-.15m-19.45 24q-2.55-1.1-3.25-4.6-5.3-7.45 1.3-8.55l4.6-.15 1.7.15m23.75 9.15q11.5.65 13.05 6.85l-1.5 4 .9 1.65q-.3 2.8-1.6 4.85-2.65 4.2-9.5 5.4l-.55.1-3.3 1.15-2.65 1.1q-3.7-2.35-8-14.3m-6.75-7.3h-.05q-5.3 1.75-8.15.5M8.25 43.2q-2.35-.2-4.5-3.35Q1 35.9 1 30.15q0-4.3 1.9-7.5.6-1.05 2.95-3.55m2.4 24.1h.3m34.5 7.8 3.65-3.3M43.05 51q-3.95 3.2-7.5 4.8-2.4 1.1-4.65 1.45M51.6 76.6l-1.3.15-5.65-6.05 3.65 7.05m6.05-19.8q4.9 1.55 8 6.65" fill="none" stroke="#410f21" stroke-linecap="round" stroke-linejoin="round" stroke-width="2"/></g><g id="v"><path d="M20.55.55q3.1.65 6.2 2.05 5.35 2.35 8.2 10.85 2.4 4.4-.65 9.35l-.1.2Q13.5 48.25 9.7 43.5q-.6-1.3.25-4 .75-3.6-.35-5.8Q20.8 21.55 20.55.55" fill="#352c5c" fill-rule="evenodd" transform="translate(1 1)"/><path d="M9.6 33.7q-.35-.65-.9-1.15l-1.8-1.8Q4.25 16.9 5.15 2.6 7.3 1.3 10.6.45q5.05-.9 9.95.1.25 21-10.95 33.15" fill="#8670e9" fill-rule="evenodd" transform="translate(1 1)"/><path d="M6.9 30.75Q-3.05 20.5 1.4 6.8l.3-.7q1-2.05 3.45-3.5-.9 14.3 1.75 28.15" fill="#c894ea" fill-rule="evenodd" transform="translate(1 1)"/><path d="M21.55 1.55q3.1.65 6.2 2.05 5.35 2.35 8.2 10.85 2.4 4.4-.65 9.35l-.1.2Q14.5 49.25 10.7 44.5q-.6-1.3.25-4 .75-3.6-.35-5.8-.35-.65-.9-1.15l-1.8-1.8Q-2.05 21.5 2.4 7.8l.3-.7q1-2.05 3.45-3.5Q8.3 2.3 11.6 1.45q5.05-.9 9.95.1z" fill="none" stroke="#16122c" stroke-linecap="round" stroke-linejoin="round" stroke-width="2"/></g><g id="w"><path d="M28.7 13.75q-1.65 6.7-2.75 13.7-1.75 8.85-1.5 16.5l.15 2.85q-10.6.7-20.4-5.6L.85 38.8q1.5-11.3 5.8-25.05H28.7M10.45 80.4l8.35 2.55Q31.35 86 35.65 73.2q6.5 7.1 16.75 12.05l2.4 1.1 2.85 1.2.8 1.8q-9.2 2.15-20.2 1.85Q20 89.65 10.45 80.4" fill="#946abc" fill-rule="evenodd" transform="translate(1 1)"/><path d="m.85 38.8 3.35 2.4Q.1 64.25 18.8 82.95l-8.35-2.55Q-3.05 67.3.85 38.8" fill="#ffdbf5" fill-rule="evenodd" transform="translate(1 1)"/><path d="M4.2 41.2q9.8 6.3 20.4 5.6 1.25 15.65 11.05 26.4-4.3 12.8-16.85 9.75Q.1 64.25 4.2 41.2" fill="#cbacff" fill-rule="evenodd" transform="translate(1 1)"/><path d="M43.75 16.65q.9 11.95 3.45 20.55 2.8 9.5 7.6 14.85 2.35 2.65 5.2 4.3l1.85.95.7.25q1.7.7 3.55 1.05 2.8.5 4.75 1.45l8.5 2.6Q82.3 86.25 61 88.35l-.45.15.45-.15-.4.3-.05-.15-.05-.1-.05.05-15.7-24.75q-6.8-7.35-11.3-16.25-.35-1.5-.25-3.5h-8.75q-.25-7.65 1.5-16.5 1.1-7 2.75-13.7Q30.4 6.7 32.7 0h11l-.25 12.25.3 4.4" fill="#352c5c" fill-rule="evenodd" transform="translate(1 1)"/><path d="m79.35 62.65-8.5-2.6q-1.95-.95-4.75-1.45l6.65-11.45.85 1.25.4 1.35 2.7 6.5 2.65 6.4" fill="#b7fcf6" fill-rule="evenodd" transform="translate(1 1)"/><path d="M66.1 58.6q-1.85-.35-3.55-1.05l-.7-.25-1.85-.95q-2.85-1.65-5.2-4.3Q50 46.7 47.2 37.2q-2.55-8.6-3.45-20.55l12.75 3.8-9.3 16.75h13.9v16.1l10-8.6 1.65 2.45L66.1 58.6m7.5-10.2 3.1 7.85-2.7-6.5-.4-1.35" fill="#84a5ff" fill-rule="evenodd" transform="translate(1 1)"/><path d="M24.45 43.95h8.75q-.1 2 .25 3.5 4.5 8.9 11.3 16.25l15.7 24.75-.15.1-2.65-1-2.85-1.2-2.4-1.1Q42.15 80.3 35.65 73.2q-9.8-10.75-11.05-26.4l-.15-2.85" fill="#8670e9" fill-rule="evenodd" transform="translate(1 1)"/><path d="m60.45 88.45.05-.05.05.1h-.05.05l.05.15-.1-.15-.05-.05" fill="#7a86ff" fill-rule="evenodd" transform="translate(1 1)"/><path d="M1.85 39.8q1.5-11.3 5.8-25.05H29.7M11.45 81.4q9.55 9.25 27.8 10.8 11 .3 20.2-1.85l-.8-1.8m-47.2-7.15q-13.5-13.1-9.6-41.6" fill="none" stroke="#593b90" stroke-linecap="round" stroke-linejoin="round" stroke-width="2"/><path d="M67.1 59.6q-1.85-.35-3.55-1.05l-.7-.25-1.85-.95q-2.85-1.65-5.2-4.3Q51 47.7 48.2 38.2q-2.55-8.6-3.45-20.55l-.3-4.4L44.7 1h-11q-2.3 6.7-4 13.75-1.65 6.7-2.75 13.7-1.75 8.85-1.5 16.5l.15 2.85q1.25 15.65 11.05 26.4 6.5 7.1 16.75 12.05l2.4 1.1 2.85 1.2 2.65 1 .2-.05h.05l.45-.15m18.35-25.7-8.5-2.6q-1.95-.95-4.75-1.45m-5.5 30.05-.3-.1" fill="none" stroke="#16122c" stroke-linecap="round" stroke-linejoin="round" stroke-width="2"/><path d="M73.75 48.15 72.1 45.7l-10 8.6V38.2H48.2l9.3-16.75-12.75-3.8m29 30.5.85 1.25 3.1 7.85 2.65 6.4" fill="none" stroke="#535faf" stroke-linecap="round" stroke-linejoin="round" stroke-width="2"/></g><g id="x"><path d="M9.3 26.65q.7-4.95 7.3-3.8l3 .55q.9 3.25-3 8.3l-.75 5.25q-.9 4.45-2.55 8-1.4.25-2.6-.55.65-4.15.45-7.45l-.2-1.9q1.6-3.65 1-4.9-1.5-1.65-2.65-3.5" fill="#8670e9" fill-rule="evenodd" transform="translate(1 .35)"/><path d="M9.4 30.25q-.35-2.1-.1-3.6 1.15 1.85 2.65 3.5.6 1.25-1 4.9-.45-2.7-1.55-4.8" fill="#dba2ff" fill-rule="evenodd" transform="translate(1 .35)"/><path d="M19.6 23.4q6.05 1.5 7 6.55-4.55 7.85-8.15 11.65-2.85 3-5.15 3.35 1.65-3.55 2.55-8l.75-5.25q3.9-5.05 3-8.3" fill="#352c5c" fill-rule="evenodd" transform="translate(1 .35)"/><path d="M27.6 30.3q-4.55 7.85-8.15 11.65-2.85 3-5.15 3.35-1.4.25-2.6-.55.65-4.15.45-7.45l-.2-1.9q-.45-2.7-1.55-4.8" fill="none" stroke="#16122c" stroke-linecap="round" stroke-linejoin="round" stroke-width="2"/><path d="M16.35 34q-2.05-.5-4.3-1.85.55-1.35-.1-2-1.4-1.55-2.5-3.25l-.05-.05-.1-.2Q7.2 23.4 5.95 19.5q1.55.2 2.7-.8l.15-.15q2.8-2.9.55-6.55-2.45-3-4.75.3l.2-2.2Q5.1 7.85 5.85 6q6.65.1 10.05 4.1 3.75 4.3 3.7 13.3.8 2.95-2.3 7.35l-.7.95-.25 2.3" fill="#8670e9" fill-rule="evenodd" transform="translate(1 .35)"/><path d="M9.3 30.4q-4.6-3.1-6.5-7.5-.95-2.3-1.55-4.35-1.2-3.9-1.2-7.05l.5-1.4q1.7-3.85 5.3-4.1-.75 1.85-1.05 4.1l-.2 2.2Q6.9 9 9.35 12q2.25 3.65-.55 6.55l-.15.15q-1.15 1-2.7.8 1.25 3.9 3.35 7.15l.1.2.05.05q1.25 2.1-.15 3.5" fill="#dba2ff" fill-rule="evenodd" transform="translate(1 .35)"/><path d="M6.7.65q8.95-3.25 15.7 9.45l.2.35q5.45 10.2 4 19.5-3.35 4.15-9.3 4.1l-.95-.05.25-2.3.7-.95q3.1-4.4 2.3-7.35.05-9-3.7-13.3-3.4-4-10.05-4.1-3.6.25-5.3 4.1l-.5 1.4v-1.4q.5-6.25 6.1-9.25l.55-.2" fill="#352c5c" fill-rule="evenodd" transform="translate(1 .35)"/><path d="M12.05 32.15 9.3 30.4q1.4-1.4.15-3.5 1.1 1.7 2.5 3.25.65.65.1 2" fill="#ecd0fe" fill-rule="evenodd" transform="translate(1 .35)"/><path d="M10.3 30.75q-4.6-3.1-6.5-7.5-.95-2.3-1.55-4.35-1.2-3.9-1.2-7.05v-1.4q.5-6.25 6.1-9.25L7.7 1" fill="none" stroke="#16122c" stroke-linecap="round" stroke-linejoin="round" stroke-width="2"/></g><g id="y"><path d="M.65 9.95 0 6.1h.05q3.9-.25 8.2 1 3.3 4.6 8.65 8.4 1.05 1.85 1.4 4.35-6.85-.15-17.65-9.9M12.2 12.5l-1.5.05q-.65.35-.85.95-.15.65.3 1.25.45.6 1.25.85l1.5-.1q.7-.3.85-.95.2-.6-.3-1.25l-1.25-.8" fill="#8670e9" fill-rule="evenodd" transform="translate(.35 1)"/><path d="m12.2 12.5 1.25.8q.5.65.3 1.25-.15.65-.85.95l-1.5.1q-.8-.25-1.25-.85-.45-.6-.3-1.25.2-.6.85-.95l1.5-.05" fill="#dba2ff" fill-rule="evenodd" transform="translate(.35 1)"/><path d="M.05 6.1 9.3 0q5.3 7 8.75 14 1.2 2.9.5 5.85h-.25q-.35-2.5-1.4-4.35-5.35-3.8-8.65-8.4-4.3-1.25-8.2-1" fill="#352c5c" fill-rule="evenodd" transform="translate(.35 1)"/><path d="M9.65 1q5.3 7 8.75 14 1.2 2.9.5 5.85h-.25Q11.8 20.7 1 10.95" fill="none" stroke="#16122c" stroke-linecap="round" stroke-linejoin="round" stroke-width="2"/></g><g id="z"><path d="m7.55 37.15 7.9-8.85 2.85 8.6-2.1.4q-4.65.65-8.65-.15m29.75-22.5q1.15-2.55 2.85-4.7l1-1.15 1.6 3.65 1.45-2.5Q49.4 2.15 58.75 0l.1.45q-2.45 4.6-5.5 9.5l-7.4 10.9.15-1.1q-3.5 4.35-8.05 7.85-.7-4.85-.75-12.95m11.05-3.2-1.7-.05q-1 .45-1.6 1.45-.6 1.05-.45 2.1.1 1.05.85 1.5.75.45 1.75 0 .95-.4 1.55-1.45.6-1.05.5-2.1-.1-1.05-.9-1.45" fill="#b7fcf6" fill-rule="evenodd" transform="translate(0 1)"/><path d="M48.35 11.45q.8.4.9 1.45.1 1.05-.5 2.1t-1.55 1.45q-1 .45-1.75 0t-.85-1.5q-.15-1.05.45-2.1.6-1 1.6-1.45l1.7.05" fill="#f0ffcd" fill-rule="evenodd" transform="translate(0 1)"/><path d="M58.85.45Q60 5.2 60 9.95q0 4.95-1.25 9.85 2.65-1.7 3.2 0-3.55 12.7-13.3 15.6-3.15.9-6.9.85l1.75-4.6q1.65-5.1 2.45-10.8l7.4-10.9q3.05-4.9 5.5-9.5M15.45 28.3l.3-.25 3.6 5.4L26.95 23l7.85 6.9q-.4-8.95 2.5-15.25.05 8.1.75 12.95l-3.25 2.3-2.9 1.75-2.65 1.4q-2.7 1.3-5.65 2.4l-.9.3-.1.05-4.3 1.1-2.85-8.6" fill="#84a5ff" fill-rule="evenodd" transform="translate(0 1)"/><path d="m41.75 36.25-2.5 4.95q-7.6 13.15-23.05 20.7Q9.8 65 2.05 67.2l-.1-.25 9.85-6 4.4-3.15q10.65-7.9 16.7-16.6l3.45-5.7-7.1 2.25q-7.45 2-13.05 2.1-5.5.1-9.2-1.7L6.75 38l.8-.85q4 .8 8.65.15l2.1-.4 4.3-1.1.1-.05.9-.3q2.95-1.1 5.65-2.4l2.65-1.4 2.9-1.75 3.25-2.3q4.55-3.5 8.05-7.85l-.15 1.1q-.8 5.7-2.45 10.8l-1.75 4.6" fill="#7a86ff" fill-rule="evenodd" transform="translate(0 1)"/><path d="M1.95 66.95q-2.9-7-1.5-13.25 1.3-10.45 6.3-15.7l.25.15q3.7 1.8 9.2 1.7 5.6-.1 13.05-2.1l7.1-2.25-3.45 5.7q-6.05 8.7-16.7 16.6l-4.4 3.15-9.85 6" fill="#352c5c" fill-rule="evenodd" transform="translate(0 1)"/><path d="M58.85 1.45Q60 6.2 60 10.95q0 4.95-1.25 9.85 2.65-1.7 3.2 0-3.55 12.7-13.3 15.6-3.15.9-6.9.85m-26-8.2 3.6 5.4L26.95 24l7.85 6.9q-.4-8.95 2.5-15.25 1.15-2.55 2.85-4.7l1-1.15 1.6 3.65 1.45-2.5Q49.4 3.15 58.75 1l.1.45" fill="none" stroke="#535faf" stroke-linecap="round" stroke-linejoin="round" stroke-width="2"/><path d="m41.75 37.25-2.5 4.95q-7.6 13.15-23.05 20.7Q9.8 66 2.05 68.2m43.9-46.35q-.8 5.7-2.45 10.8l-1.75 4.6m-3.7-8.65q4.55-3.5 8.05-7.85l-.15 1.1m-38.4 16.3q4 .8 8.65.15l2.1-.4 4.3-1.1.1-.05.9-.3q2.95-1.1 5.65-2.4l2.65-1.4 2.9-1.75 3.25-2.3" fill="none" stroke="#16122c" stroke-linecap="round" stroke-linejoin="round" stroke-width="2"/></g><g id="A"><path d="M4.95 20.55 1.9 23.9 0 21.6l3.35-2.5 1.6 1.45m14.3 1.85-2.9 2.2-.75-2.15 3-1.05.65 1M5 27.1l-.75-.45L7.8 20.8l2.7 1.05-.9 2.35L5 27.1" fill="#ffe234" fill-rule="evenodd" transform="translate(1 1)"/><path d="m19.25 22.4 1.35 2.1-3.6 2.05-.65-1.95 2.9-2.2M9.6 24.2l-1.7 4.5L5 27.1l4.6-2.9" fill="#9b5d0c" fill-rule="evenodd" transform="translate(1 1)"/><path d="M5.95 21.55 2.9 24.9 1 22.6l3.35-2.5 1.6 1.45m11.4 4.05.65 1.95 3.6-2.05-1.35-2.1-.65-1-3 1.05.75 2.15M6 28.1l-.75-.45L8.8 21.8l2.7 1.05-.9 2.35-1.7 4.5L6 28.1z" fill="none" stroke="#652a00" stroke-linecap="round" stroke-linejoin="round" stroke-width="2"/><path d="M16.05 8.3q-.05-.5-.45-.9t-1-.4q-.65 0-1.05.4-.45.45-.45 1.05l.1.55.05.05q-.75.55-1.2 1.25Q13.35 6.25 9 5.55q4.3-3.25 8.6-2.65 1.2 3.55 1.05 6.2-1.3-1.15-2.6-.8" fill="url(#k)" fill-rule="evenodd" transform="translate(1 1)"/><path d="M13.25 9.05 13.2 9l-.1-.55q0-.6.45-1.05.4-.4 1.05-.4.6 0 1 .4t.45.9v.15q0 .6-.45 1-.4.45-1 .45-.65 0-1.05-.45l-.3-.4M17.6 2.9Q13.3 2.3 9 5.55q4.35.7 3.05 4.75l-.4.7q-4.3 3.35-4.95-2.25-.65 3.5-.7 7-2.25-2.65-2.25-6.2 0-3.95 2.8-6.75T13.3 0l3.4.6.9 2.3" fill="#beffd6" fill-rule="evenodd" transform="translate(1 1)"/><path d="M16.05 8.3q1.3-.35 2.6.8-.15 3.3-2.3 5.4-1.05.8-4.4 1.6-1.35-2.9-.3-5.1l.4-.7q.45-.7 1.2-1.25l.3.4q.4.45 1.05.45.6 0 1-.45.45-.4.45-1V8.3" fill="#00258c" fill-rule="evenodd" transform="translate(1 1)"/><path d="M18.65 9.1q.15-2.65-1.05-6.2L16.7.6q1.85.7 3.35 2.2 2.8 2.8 2.8 6.75t-2.8 6.75q-2.8 2.8-6.75 2.8-1.95 0-3.55-.65.7-1.55 2.2-2.35 3.35-.8 4.4-1.6 2.15-2.1 2.3-5.4" fill="#6ba3f3" fill-rule="evenodd" transform="translate(1 1)"/><path d="M9.75 18.45q-1.75-.7-3.2-2.15L6 15.75q.05-3.5.7-7 .65 5.6 4.95 2.25-1.05 2.2.3 5.1-1.5.8-2.2 2.35" fill="url(#l)" fill-rule="evenodd" transform="translate(1 1)"/><path d="M7 16.75q-2.25-2.65-2.25-6.2 0-3.95 2.8-6.75T14.3 1l3.4.6q1.85.7 3.35 2.2 2.8 2.8 2.8 6.75t-2.8 6.75q-2.8 2.8-6.75 2.8-1.95 0-3.55-.65-1.75-.7-3.2-2.15L7 16.75z" fill="none" stroke="#01258b" stroke-linecap="round" stroke-linejoin="round" stroke-width="2"/></g><g id="j" transform="translate(4.15 1)"><use ffdec:characterId="17" height="64.45" transform="translate(9.15 1.65)" width="23.25" xlink:href="#m"/><use ffdec:characterId="18" height="18.2" transform="translate(16.2 101.05)" width="19.2" xlink:href="#n"/><use ffdec:characterId="19" height="58.7" transform="translate(17.05 63.8)" width="79.65" xlink:href="#o"/><use ffdec:characterId="20" height="98.9" transform="translate(5.2 11.85)" width="101.05" xlink:href="#p"/><use ffdec:characterId="21" height="61.1" transform="translate(-1 14.75)" width="54.4" xlink:href="#q"/><use ffdec:characterId="22" height="56.45" transform="translate(48.2 -1)" width="34.1" xlink:href="#r"/><use ffdec:characterId="23" height="24" transform="translate(23.2 64)" width="33.15" xlink:href="#s"/></g><g id="m"><path d="m5.6 18.75-.1-6.5Q5.7 3.3 13.4.85q.65 25.35-2.7 61l-4.45.6-.35-21.7Q5.25 34.2 0 28.2q1.4-6.15 5.6-9.45l.3 22-.3-22" fill="#fff" fill-rule="evenodd" transform="translate(1 1)"/><path d="M10.7 61.85q3.35-35.65 2.7-61 3.25-1 7.85-.85l-4 50.7-.9 8.1q-.35 2.1-5.65 3.05" fill="#8392cc" fill-rule="evenodd" transform="translate(1 1)"/><path d="M14.4 1.85Q6.7 4.3 6.5 13.25l.1 6.5.3 22 .35 21.7 4.45-.6q5.3-.95 5.65-3.05l.9-8.1 4-50.7q-4.6-.15-7.85.85m-7.8 17.9Q2.4 23.05 1 29.2q5.25 6 5.9 12.55" fill="none" stroke="#3f4278" stroke-linecap="round" stroke-linejoin="round" stroke-width="2"/></g><g id="n"><path d="M2.5 2.35Q5.05 0 8.6 0t6.1 2.35q2.5 2.4 2.5 5.75t-2.5 5.7q-2.55 2.4-6.1 2.4t-6.1-2.4Q0 11.45 0 8.1t2.5-5.75" fill="#8698d9" fill-rule="evenodd" transform="translate(1 1)"/><path d="M3.5 3.35Q6.05 1 9.6 1t6.1 2.35q2.5 2.4 2.5 5.75t-2.5 5.7q-2.55 2.4-6.1 2.4t-6.1-2.4Q1 12.45 1 9.1t2.5-5.75z" fill="none" stroke="#3f4278" stroke-linecap="round" stroke-linejoin="round" stroke-width="2"/></g><g id="o"><path d="m8.15 18.9 1.15-1.05.55.15 19.6 15.2q8.75 5.4 15.9 10.85l6.05 4.8q-1.1 1.9-5 4.35-3.35-8.4-14.4-9.35-7.75-.4-6.85 4.95Q20.6 44.5 16 37.4L8.15 18.9m1.7-.9-.35-.25v-.05h44.7q14.95-2.05 20.4 1.6 2 1.35 2.75 3.4.6 3.7-.05 6.6-2.5-2-5.65-2.95-8.3-1.8-13.2 4.45-5.95-3.05-13.1-4.65L9.85 18" fill="#8698d9" fill-rule="evenodd" transform="translate(1 1)"/><path d="m51.4 48.85-6.05-4.8q-4.75-6.85-.8-8.7l.25-.1q12.75-4.85 19.3 9.55-5.95 5.95-12.7 4.05m-39.95.25q-.2.4.05.9l.8.85 1.1.25q.6 0 .8-.4.25-.4 0-.9l-.85-.85-1.1-.3q-.55.1-.8.45M9.7 52.5q-1.15-8.35 4.65-6 10.6 5.3 9.65 10.05-8.45.9-14.3-4.05m36.95-13.45q-.3.4-.3.95 0 .55.3.95.35.4.85.4.45 0 .8-.4l.35-.95q0-.55-.35-.95-.35-.4-.8-.4-.5 0-.85.4" fill="#ff3a58" fill-rule="evenodd" transform="translate(1 1)"/><path d="M11.45 49.1q.25-.35.8-.45l1.1.3.85.85q.25.5 0 .9-.2.4-.8.4l-1.1-.25-.8-.85q-.25-.5-.05-.9m35.2-10.05q.35-.4.85-.4.45 0 .8.4.35.4.35.95l-.35.95q-.35.4-.8.4-.5 0-.85-.4-.3-.4-.3-.95 0-.55.3-.95" fill="#ffad82" fill-rule="evenodd" transform="translate(1 1)"/><path d="M8.15 18.9 16 37.4q4.6 7.1 9.15 11.4 4 3.75 8 5.35-5.1 1.95-9.15 2.4.95-4.75-9.65-10.05-5.8-2.35-4.65 6-4.55-3.9-7.55-11.4l-.55-1.05Q-3.65 29.3 8.15 18.9m37.2 25.15Q38.2 38.6 29.45 33.2L9.85 18l35.5 8.15q7.15 1.6 13.1 4.65 5.9 3 10.65 7.4-2.45 4.05-5 6.6-6.55-14.4-19.3-9.55l-.25.1q-3.95 1.85.8 8.7M9.5 17.7q6.2-5.05 16.35-10.05Q40.6 0 59.25 0h1.55q22.05 3.6 13.8 19.3-5.45-3.65-20.4-1.6H9.5" fill="#8f2049" fill-rule="evenodd" transform="translate(1 1)"/><path d="M25.15 48.8q-.9-5.35 6.85-4.95 11.05.95 14.4 9.35-.6.3-1.25.7-5.95 2.7-12 .25-4-1.6-8-5.35M77.3 29.3q-1.4 6-8.2 8.9-4.75-4.4-10.65-7.4 4.9-6.25 13.2-4.45 3.15.95 5.65 2.95" fill="#fff" fill-rule="evenodd" transform="translate(1 1)"/><path d="m10.85 19-.55-.15-1.15 1.05L17 38.4q4.6 7.1 9.15 11.4 4 3.75 8 5.35 6.05 2.45 12-.25.65-.4 1.25-.7 3.9-2.45 5-4.35M10.5 18.7l-.2.15m.15-.15h.05q6.2-5.05 16.35-10.05M75.6 20.3q2 1.35 2.75 3.4.6 3.7-.05 6.6-1.4 6-8.2 8.9-4.75-4.4-10.65-7.4-5.95-3.05-13.1-4.65L10.85 19m-.35-.3h44.7q14.95-2.05 20.4 1.6" fill="none" stroke="#313166" stroke-linecap="round" stroke-linejoin="round" stroke-width="2"/><path d="m9.85 18-.35-.25v-.05h-.05" fill="none" stroke="#0f6" stroke-linecap="round" stroke-linejoin="round" transform="translate(1 1)"/><path d="m52.4 49.85-6.05-4.8Q39.2 39.6 30.45 34.2m-3.6-25.55Q41.6 1 60.25 1h1.55q22.05 3.6 13.8 19.3m-5.5 18.9q-2.45 4.05-5 6.6-5.95 5.95-12.7 4.05M10.7 53.5q-4.55-3.9-7.55-11.4l-.55-1.05Q-2.65 30.3 9.15 19.9M25 57.55q4.05-.45 9.15-2.4M25 57.55q-8.45.9-14.3-4.05" fill="none" stroke="#410f21" stroke-linecap="round" stroke-linejoin="round" stroke-width="2"/><path d="M29.45 33.2 9.85 18" fill="none" stroke="#172462" stroke-linecap="round" stroke-linejoin="round" transform="translate(1 1)"/></g><g id="p"><path d="M47.7 82.55q-5.3 2.65-11.6 4.65l4.95-7.55q3.75-7.1 1.4-7.05l-5.05.15q.8-3.45.55-8.2-.1-.35-.95-.5-1.1-.35-1.1.85-.15 3.95-1.2 7.9-.85 3.2 3.2 2.55l3-.65q-2.6 6.05-10.6 14.1l-3.5.75-10.95-1.8q-5.1.15-7.9-12.7l-.95-5q2.5-3.5 2.9-10.2l2.5-1.5q4.5-2.75 8.8-6.1-3.55 6.9 4.8 3.1 6.7-3.7 10.95-7.9 3.95-2.6 7.2-5.65 7.65-7.25 11.6-17.2 2.9-8.45 6.05-14Q66.45 2.35 71.7.55l-14.4 48.2q2.25-1.2 4.55-5.45l.5-.95q1.15-2.3 2.8-4.4 6.65-8.55 21.55-14.3l-.55 1.25Q73.25 47.2 60.3 59.3q-5.7.7-7.1 7.8l-.05.4-.25 1.1-.05.05q-1.6 7-5.15 13.9m2.8-39q2.5-10.8 5.25-18.95Q53 32.75 50.5 43.55M14.25 74.2l.95-1.4q.25-.7-.05-.95l-1-.1-1.4 1q-.65.7-.95 1.35-.25.75 0 1.05.35.3 1.05 0l1.4-.95m2.5 10.45 1.3-.15q.75-.2 1.15-.6l.45-.55q.05-.25-.55-.3l-1.35.15-1.25.45q-.45.25-.35.6l.6.4m41.45-21.9 1.7-.05q.7.4.75 1.45.05 1.1-.55 2.15-.65 1.15-1.6 1.6l-1.65.05q-.7-.45-.75-1.5-.1-1 .55-2.15.6-1.05 1.55-1.55" fill="#8670e9" fill-rule="evenodd" transform="translate(1 6.85)"/><path d="m86.9 23.55.1.05q-2.05 19.65-16.05 35l-.6.6-2.25 2.3q10.15-18.3 18.05-36.6l.75-1.35m-10.25 30.5q2.6-1.4 4.95-1.3-7.65 20-22 22.5l-.7-.1q-6.7-1.2-5.9-6.45 2.2 2 5.85 2.15h1q9.1-.65 16.8-16.8" fill="#7a86ff" fill-rule="evenodd" transform="translate(1 6.85)"/><path d="M70.95 58.6q3-3.1 5.7-4.55-7.7 16.15-16.8 16.8h-1Q55.2 70.7 53 68.7q-.8 5.25 5.9 6.45l-.3.25q-4.8 4.1-10.9 7.15 3.55-6.9 5.15-13.9l.1.05.2-1.2.05-.4q1.4-7.1 7.1-7.8 12.95-12.1 25.85-34.4-7.9 18.3-18.05 36.6l2.25-2.3.6-.6M4.9 66.3q-.35-4.1-.3-7.95.35-23.5 16.4-35.85l.2-.1Q41.5 5.85 61.8 10.6q-3.15 5.55-6.05 14-3.95 9.95-11.6 17.2-3.25 3.05-7.2 5.65-5.55 3.6-12.4 6.25l3.95-7.8-7.3 6.35q-4.3 3.35-8.8 6.1l-2.5 1.5-3.45 1.85q-.3 2.45-1.55 4.6M71.7.55 74.2 0q4.65 8.3-9.05 37.95-1.65 2.1-2.8 4.4l-.5.95q-2.3 4.25-4.55 5.45L71.7.55m-10.75 66.2q4.65-6.7-.65-7.45 5.3.75.65 7.45M6.45 61.7q.2-1.45.05-3 .15 1.55-.05 3m51.75 1.05q-.95.5-1.55 1.55-.65 1.15-.55 2.15.05 1.05.75 1.5l1.65-.05q.95-.45 1.6-1.6.6-1.05.55-2.15-.05-1.05-.75-1.45l-1.7.05" fill="#352c5c" fill-rule="evenodd" transform="translate(1 6.85)"/><path d="M36.95 47.45q-4.25 4.2-10.95 7.9-8.35 3.8-4.8-3.1l7.3-6.35-3.95 7.8q6.85-2.65 12.4-6.25" fill="#535faf" fill-rule="evenodd" transform="translate(1 6.85)"/><path d="m36.1 87.2-5.8 1.6q8-8.05 10.6-14.1l-3 .65q-4.05.65-3.2-2.55 1.05-3.95 1.2-7.9 0-1.2 1.1-.85.85.15.95.5.25 4.75-.55 8.2l5.05-.15q2.35-.05-1.4 7.05L36.1 87.2" fill="#62ffe5" fill-rule="evenodd" transform="translate(1 6.85)"/><path d="m26.8 89.55-2.3.45q-12.9 2.75-16.3-1.55h1v-1.6Q1 80.9 0 72.3l2.85-3.25L4.9 66.3q1.25-2.15 1.55-4.6l3.45-1.85q-.4 6.7-2.9 10.2l.95 5q2.8 12.85 7.9 12.7l10.95 1.8M5.15 72.8q-.2.2 0 .75t.75 1.1l1.1.75q.55.2.8 0l.1-.35-.1-.45-.75-1.1q-.55-.5-1.1-.75l-.8.05" fill="#dba2ff" fill-rule="evenodd" transform="translate(1 6.85)"/><path d="m5.15 72.8.8-.05q.55.25 1.1.75l.75 1.1.1.45-.1.35q-.25.2-.8 0l-1.1-.75q-.55-.55-.75-1.1-.2-.55 0-.75m9.1 1.4-1.4.95q-.7.3-1.05 0-.25-.3 0-1.05.3-.65.95-1.35l1.4-1 1 .1q.3.25.05.95l-.95 1.4m2.5 10.45-.6-.4q-.1-.35.35-.6l1.25-.45 1.35-.15q.6.05.55.3l-.45.55q-.4.4-1.15.6l-1.3.15" fill="#16122c" fill-rule="evenodd" transform="translate(1 6.85)"/><path d="M88 30.45v-.1l-.1.05-.2.1q-14.9 5.75-21.55 14.3-1.65 2.1-2.8 4.4l-.5.95M88 30.45q-2.05 19.65-16.05 35 3-3.1 5.7-4.55 2.6-1.4 4.95-1.3-7.65 20-22 22.5l-1 .15q-4.8 4.1-10.9 7.15-5.3 2.65-11.6 4.65l-5.8 1.6-3.5.75-2.3.45Q12.6 99.6 9.2 95.3h1v-1.6Q2 87.75 1 79.15l2.85-3.25 2.05-2.75q-.35-4.1-.3-7.95.35-23.5 16.4-35.85l.2-.1q20.3-16.55 40.6-11.8Q67.45 9.2 72.7 7.4l2.5-.55q4.65 8.3-9.05 37.95m2.95 23.55 2.25-2.3.6-.6m-10.65.7q5.3.75.65 7.45m.85-56.15q-3.15 5.55-6.05 14Q54 39.6 51.5 50.4m-44 15.15q.15 1.55-.05 3-.3 2.45-1.55 4.6m48.25 1.2.05-.4q1.4-7.1 7.1-7.8m-7.15 8.2-.2 1.2m5.65 6.7.3-.25q-6.7-1.2-5.9-6.45M59.9 82l.7.1" fill="none" stroke="#16122c" stroke-linecap="round" stroke-linejoin="round" stroke-width="2"/><path d="M86.5 23.75q-14.75 5.7-21.35 14.2 3.8-8.2 6.2-14.75l15.15.55m.5 0 .3.05q3.8 1.9 11.75-.25Q96.7 35.7 88.1 47.2q-4.05 3.95-9.85 1.85 7.3-11.6 8.75-25.3M47.65 9.9l.05-5.05Q61.45-2.2 75.2-5.85 73.1-3 71.7.55q-5.25 1.8-9.9 10.05-6-1.4-11.95-.95l1.3-1L49.5 9.7l-1.9 1.15.05-.95 1.85-.2-1.85.2m27.45-.5 15.1 1.45q-8 6.3-18.75 12.05 2.85-8 3.65-13.5" fill="#84a5ff" fill-rule="evenodd" transform="translate(1 6.85)"/><path d="M86.9 23.55v.2h-.4l.2-.1.2-.1-.2.1-.2.1-15.15-.55-.45-.05q.25-.15.55-.25l-.1.3.1-.3Q82.2 17.15 90.2 10.85l6.25.2q-2.5 6.25-9.55 12.5M49.85 9.65q-1.15.85-2.25 1.9v-.7l1.9-1.15 1.65-1.05-1.3 1-.35.05.35-.05" fill="#b7fcf6" fill-rule="evenodd" transform="translate(1 6.85)"/><path d="M87.5 30.6q-14.75 5.7-21.35 14.2l-.95 1.35q-1.05 1.45-1.85 3.05l-.5.95m25.45-19.5-.3-.2v.15q-1.45 13.7-8.75 25.3-3.1 4.95-7.3 9.55 3-3.1 5.7-4.55 2.6-1.4 4.95-1.3-7.65 20-22 22.5l-1 .15q-4.8 4.1-10.9 7.15-5.3 2.65-11.6 4.65l-5.8 1.6-3.5.75-2.3.45Q12.6 99.6 9.2 95.3h1v-1.6Q2 87.75 1 79.15l2.85-3.25 2.05-2.75q-.35-4.1-.3-7.95.35-23.5 16.4-35.85l.2-.1q13.2-10.75 26.45-12.5l1.85-.2.35-.05q5.95-.45 11.95.95Q67.45 9.2 72.7 7.4l2.5-.55q1.75 3.15.9 9.4l15.1 1.45 6.25.2q-2.5 6.25-9.55 12.5l.1-.05v.1l-.1-.05-.2.1-.2.1m.8.05q3.8 1.9 11.75-.25Q97.7 42.55 89.1 54.05 85.05 58 79.25 55.9M48.7 11.7Q62.45 4.65 76.2 1q-2.1 2.85-3.5 6.4m-.35 22.65q-2.4 6.55-6.2 14.75m6.3-15.05q2.85-8 3.65-13.5m-3.65 13.5-.1.3M51.5 50.4q1.55-6.65 3.2-12.3l2.05-6.65q2.9-8.45 6.05-14M7.5 65.55q.15 1.55-.05 3-.3 2.45-1.55 4.6m53.7 9.1.3-.25q-6.7-1.2-5.9-6.45M59.9 82l.7.1m11.35-16.65-.6.6-2.25 2.3" fill="none" stroke="#16122c" stroke-linecap="round" stroke-linejoin="round" stroke-width="2"/></g><g id="q"><path d="m41.75 16.7 4.45-2.65-4.45 2.65m4.5-12.55q1 4-.05 9.9 3.1-1.75 6.2-3.35l-.1 6-19.35 11.9q7.95-12.15 13.3-24.45M52.3 17.4l-.15 13.8-.05 1.05-.2-.2Q46.5 54.1 28 62l5.4-12.5Q16.95 67.3 0 60q6-4.25 9.2-8.6l2-.95q6.05-3.15 16.8-11.9l-13.7 17.5q9.5-4.5 17.9-12.35 3.35-6.15 7.55-11.5L34.8 49.5q4.5-4.7 8.4-10.45-1.8 1.1-4.85 4.65l3.8-14.5q5.3-7.35 10.15-11.8m-.15 13.8-.25.85.25-.85" fill="#84a5ff" fill-rule="evenodd" transform="translate(1 -2)"/><path d="M43.45 6.05 45.9 3l.35 1.15q-5.35 12.3-13.3 24.45L52.3 16.7v.7q-4.85 4.45-10.15 11.8l-3.8 14.5q3.05-3.55 4.85-4.65-3.9 5.75-8.4 10.45l4.95-17.3q-4.2 5.35-7.55 11.5-8.4 7.85-17.9 12.35L28 38.55q-10.75 8.75-16.8 11.9l4.75-6.9q3.75-5.5 7.05-7.1l7-2.85-1.05 3.2 7-4.15-1.1-.4-3.1 1.85 1.05-3.15-1.25-.85-5.75 2.15q12.85-15.9 17.65-26.2" fill="#b7fcf6" fill-rule="evenodd" transform="translate(1 -2)"/><path d="M9.2 51.4q2-2.65 2.9-5.3 2.1-10.45 11.95-19.5 8.9-7.8 19.4-20.55-4.8 10.3-17.65 26.2l5.75-2.15 1.25.85-1.05 3.15 3.1-1.85 1.1.4-7 4.15L30 33.6l-7 2.85q-3.3 1.6-7.05 7.1l-4.75 6.9-2 .95" fill="#f0ffcd" fill-rule="evenodd" transform="translate(1 -2)"/><path d="m47.2 12.05-4.45 2.65m1.7-10.65L46.9 1l.35 1.15q1 4-.05 9.9 3.1-1.75 6.2-3.35m-.3 21.55-.2-.2Q47.5 52.1 29 60l5.4-12.5Q17.95 65.3 1 58q6-4.25 9.2-8.6 2-2.65 2.9-5.3 2.1-10.45 11.95-19.5 8.9-7.8 19.4-20.55m8.45 26 .25-.85" fill="none" stroke="#16122c" stroke-linecap="round" stroke-linejoin="round" stroke-width="2"/></g><g id="r"><path d="M20.1 22.05q3.75-2.3 7.4-3.15-3.5 8.45-1.25 14-1.75-1.6-2.35-4.75Q18.35 31.8 12.8 34q-1.45 7.1-4.15 14.1-.6 2.75-.8 5.9l-1.3.35h-.2Q-2.15 55.4.7 43.2 9.95-4.95 15.65.55L17.7 2.7q-.25 12.6-2.2 22.7 2.15-1.85 4.35-3.2l.25-.15m-4.6 3.35-3.35 3 3.35-3" fill="#fff" fill-rule="evenodd" transform="translate(1 1)"/><path d="m17.7 2.7 5.75 5.95q1.65 2.15-3.35 13.4l-.25.15q-2.2 1.35-4.35 3.2 1.95-10.1 2.2-22.7m9.8 16.2 2.9-.4q2.15.35 1.6 7.95-.2 6-1.1 8.4-6.25.45-18.4 6.7-1.4 1.95-2.3 9.9-.75 1.9-2.35 2.55.2-3.15.8-5.9 2.7-7 4.15-14.1 5.55-2.2 11.1-5.85.6 3.15 2.35 4.75-2.25-5.55 1.25-14" fill="#8392cc" fill-rule="evenodd" transform="translate(1 1)"/><path d="m18.7 3.7 5.75 5.95q1.65 2.15-3.35 13.4 3.75-2.3 7.4-3.15l2.9-.4q2.15.35 1.6 7.95-.2 6-1.1 8.4-6.25.45-18.4 6.7-1.4 1.95-2.3 9.9-.75 1.9-2.35 2.55l-1.3.35h-.2Q-1.15 56.4 1.7 44.2 10.95-3.95 16.65 1.55L18.7 3.7m-2.2 22.7q2.15-1.85 4.35-3.2l.25-.15m-7.95 6.35 3.35-3" fill="none" stroke="#16122c" stroke-linecap="round" stroke-linejoin="round" stroke-width="2"/></g><g id="s"><path d="m13.65 6.7 6.7-5.55q3.6-3.1 8.8 2.2l.15.25.65.9q-6.7 2.6-12.5 6.1-1.25-2.05-3.8-3.9m-7 11.85q-1.9-1.75-2.55-4.4 1.8-.9 4.2-3-.35 2.85 1.05 5.1l-2.7 2.3" fill="#acc0ff" fill-rule="evenodd" transform="translate(1 1)"/><path d="m8.3 11.15.3-.35 1.95-1.55q.45 2.8 1.95 4.6l-3.15 2.4Q7.95 14 8.3 11.15m3.2-2.7 2.15-1.75q2.55 1.85 3.8 3.9l-3.5 2.25q-.55-2.3-2.45-4.4" fill="#4665bb" fill-rule="evenodd" transform="translate(1 1)"/><path d="m10.55 9.25.95-.8q1.9 2.1 2.45 4.4.35 1.2.25 2.45l-1.7-1.45q-1.5-1.8-1.95-4.6" fill="#172462" fill-rule="evenodd" transform="translate(1 1)"/><path d="M29.95 4.5q3.75 5.9-4.4 13.45Q18.1 24.8 8.7 20l-2.05-1.45 2.7-2.3q.75 1.15 2 2.1 4.75 3.65 6.7-1.2l.2-.45q.95-3.2-.8-6.1 5.8-3.5 12.5-6.1" fill="#fff" fill-rule="evenodd" transform="translate(1 1)"/><path d="m12.5 13.85 1.7 1.45q.1-1.25-.25-2.45l3.5-2.25q1.75 2.9.8 6.1l-.2.45q-1.95 4.85-6.7 1.2-1.25-.95-2-2.1l3.15-2.4" fill="#7cfffb" fill-rule="evenodd" transform="translate(1 1)"/><path d="M14.65 7.7q2.55 1.85 3.8 3.9 1.75 2.9.8 6.1l-.2.45q-1.95 4.85-6.7 1.2-1.25-.95-2-2.1-1.4-2.25-1.05-5.1" fill="none" stroke="#172462" stroke-linecap="round" stroke-linejoin="round" stroke-width="2"/><path d="m1 15 4.1.15q1.8-.9 4.2-3l.3-.35 11.75-9.65q3.6-3.1 8.8 2.2l.15.25.65.9q3.75 5.9-4.4 13.45Q19.1 25.8 9.7 21l-2.05-1.45q-1.9-1.75-2.55-4.4" fill="none" stroke="#16122c" stroke-linecap="round" stroke-linejoin="round" stroke-width="2"/></g><use ffdec:characterId="1" height="42" width="109" xlink:href="#t" id="b"/><use ffdec:characterId="3" height="79.85" width="64.85" xlink:href="#u" id="c"/><use ffdec:characterId="5" height="46.25" width="38" xlink:href="#v" id="d"/><use ffdec:characterId="7" height="93.25" width="81.35" xlink:href="#w" id="e"/><use ffdec:characterId="9" height="46.35" width="28.6" xlink:href="#x" id="f"/><use ffdec:characterId="11" height="21.85" width="20.15" xlink:href="#y" id="g"/><use ffdec:characterId="13" height="69.2" width="62.95" xlink:href="#z" id="h"/><use ffdec:characterId="15" height="30.7" width="24.85" xlink:href="#A" id="i"/><linearGradient gradientTransform="matrix(-.0016 -.0029 .0046 -.0027 14.55 6.4)" gradientUnits="userSpaceOnUse" id="k" spreadMethod="pad" x1="-819.2" x2="819.2"><stop offset=".024" stop-color="#1954a3"/><stop offset="1" stop-color="#7cfffb"/></linearGradient><linearGradient gradientTransform="matrix(-.0027 -.0015 .0023 -.004 8.7 13.6)" gradientUnits="userSpaceOnUse" id="l" spreadMethod="pad" x1="-819.2" x2="819.2"><stop offset=".024" stop-color="#1954a3"/><stop offset="1" stop-color="#7cfffb"/></linearGradient><path d="M54.5 0q22.6 0 38.55 6.15Q109 12.3 109 21T93.05 35.85Q77.1 42 54.5 42q-22.6 0-38.55-6.15Q0 29.7 0 21T15.95 6.15Q31.9 0 54.5 0" fill-opacity=".349" fill-rule="evenodd" id="t"/></defs></svg>