<svg xmlns:ffdec="https://www.free-decompiler.com/flash" xmlns:xlink="http://www.w3.org/1999/xlink" ffdec:objectType="frame" height="90" width="90" xmlns="http://www.w3.org/2000/svg"><use ffdec:characterId="29" height="291.25" transform="matrix(.302 0 0 .3022 -8.998 -2.976)" width="368.65" xlink:href="#a"/><defs><use ffdec:characterId="2" height="59.7" width="57.45" xlink:href="#b" id="q"/><use ffdec:characterId="5" height="296.8" transform="translate(.8)" width="342.1" xlink:href="#c" id="r"/><use ffdec:characterId="4" height="296.8" width="342.1" xlink:href="#d" id="c"/><use ffdec:characterId="7" height="145.7" width="179.45" xlink:href="#e" id="s"/><use ffdec:characterId="9" height="132.8" width="67.55" xlink:href="#f" id="t"/><use ffdec:characterId="11" height="90.1" width="73.6" xlink:href="#g" id="u"/><use ffdec:characterId="13" height="116.7" width="72.5" xlink:href="#h" id="v"/><use ffdec:characterId="15" height="123.55" width="92.35" xlink:href="#i" id="w"/><use ffdec:characterId="17" height="24.35" width="34.75" xlink:href="#j" id="x"/><use ffdec:characterId="19" height="72.1" width="130.65" xlink:href="#k" id="y"/><use ffdec:characterId="21" height="91.15" width="83.2" xlink:href="#l" id="z"/><use ffdec:characterId="23" height="136.3" width="155.9" xlink:href="#m" id="A"/><use ffdec:characterId="25" height="133.4" width="117.95" xlink:href="#n" id="B"/><use ffdec:characterId="27" height="150.65" width="109.85" xlink:href="#o" id="C"/><g id="a" transform="translate(29.8 9.85)"><use ffdec:characterId="1" height="7.75" transform="matrix(2.0444 0 0 3.8518 101.516 251.528)" width="63.4" xlink:href="#p"/><use ffdec:characterId="3" height="59.7" transform="translate(133.55 165.9) scale(.6898)" width="57.45" xlink:href="#q"/><use ffdec:characterId="6" height="296.8" transform="matrix(.186 .2993 -.1628 .0043 190.201 133.61)" width="378.05" xlink:href="#r"/><use ffdec:characterId="6" height="296.8" transform="matrix(.3298 -.1252 .1252 .3298 120.386 37.5)" width="378.05" xlink:href="#r"/><use ffdec:characterId="6" height="296.8" transform="translate(205.317 27.55) scale(.3532)" width="378.05" xlink:href="#r"/><use ffdec:characterId="8" height="145.7" transform="translate(-26.9 69.9) scale(.6898)" width="179.45" xlink:href="#s"/><use ffdec:characterId="10" height="132.8" transform="translate(120.65 51.25) scale(.6898)" width="67.55" xlink:href="#t"/><use ffdec:characterId="12" height="90.1" transform="translate(83.65 101.25) scale(.6898)" width="73.6" xlink:href="#u"/><use ffdec:characterId="14" height="116.7" transform="translate(125.5 84) scale(.6898)" width="72.5" xlink:href="#v"/><use ffdec:characterId="16" height="123.55" transform="translate(80.3 158.4) scale(.6898)" width="92.35" xlink:href="#w"/><use ffdec:characterId="18" height="24.35" transform="translate(124 151.85) scale(1.1315)" width="34.75" xlink:href="#x"/><use ffdec:characterId="20" height="72.1" transform="translate(155 151.75) scale(.6898)" width="130.65" xlink:href="#y"/><use ffdec:characterId="22" height="91.15" transform="translate(98.35 67.35) scale(.6898)" width="83.2" xlink:href="#z"/><use ffdec:characterId="24" height="136.3" transform="translate(144.4 48.25) scale(.6898)" width="155.9" xlink:href="#A"/><use ffdec:characterId="26" height="133.4" transform="translate(153 89.1) scale(.6898)" width="117.95" xlink:href="#B"/><use ffdec:characterId="28" height="150.65" transform="translate(150.05 160.15) scale(.6898)" width="109.85" xlink:href="#C"/></g><g id="b" fill-rule="evenodd"><path d="m5.05 17.75.85 1.7.05.05 3.2 4.15.15.35 3 16.75L30.7 57.9l.4-.35 3.55-3.05.25-.15 8.15-3.3h.55l9.6 2.85.3.15 2.05 1.8L51 30.5l-4.3-8.45-2.95-5.65L31.1 1.3l-.05-.1-.15-.5.3-.5q.2-.2.55-.2l.5.3 12.7 15.15.1.15 7.4 14.35.05.2 4.95 27.65-.1.45-.3.35-.45.1-.45-.2-3.55-3.15-9.25-2.75-7.8 3.15-4.4 3.8-.5.15q-.3 0-.5-.2L11.1 41.7l-.25-.45-3.05-16.8-3.15-4.15-.1-.1-3.9-7.8-.05-.3L0 3.7q-.05-.3.2-.55l.5-.3.55.2.25.35v.2l.65 8.25 2.9 5.9" fill="#3b1212"/><path d="m5.05 17.75-2.9-5.9L1.5 3.6v-.2l10.1.25 5.75 8.2 6.95-1.05-.4-8 7.15-1.6.05.1 12.65 15.1 2.95 5.65Q34.9 40.4 25.2 43.45q-6.6.95-12.1-5.15l-.05-.2q-1.15-7.35-2.9-12.65V24.3l-.9-2.15-4.2-4.4" fill="#591d1d"/><path d="M46.7 22.05 51 30.5l4.55 25.35-2.05-1.8-.3-.15-9.6-2.85h-.55l-8.15 3.3-.25.15-3.55 3.05L13.35 40l-.25-1.7q5.5 6.1 12.1 5.15 9.7-3.05 21.5-21.4" fill="#802323"/><path d="m31.1 57.55-.4.35-18.4-17.15L9.3 24l-.15-.35-3.2-4.15-.05-.05-.85-1.7 4.2 4.4.9 2.15v1.15q1.75 5.3 2.9 12.65l.05.2.25 1.7L31.1 57.55" fill="#ca7de7"/></g><g id="e" fill-rule="evenodd"><path d="M152.1 121.85v1.05l-2.1-.2-3.3 2.55-1.1.9-1.25.9-.2.1h-.05l-2 .3q-3.25.3-6.5.05l-.35-.2-.1-.35q0-3.1 1.6-11.25l-18.1-15.6-.1-.05-7.6-11.1-.1-.3.1-.3.3-.15h.3l13.2 4.8.1.05 21.7 11.45 15.2-3.95h.3l.25.2.1.3.05 2.15v2.45l.05 1.1v.65l-.1.3-.65.85-2.65 3.65-.5.65-.8 1.1.2 1.05q.1 1.55-.2 2.8l-1.35.7q.65-1.4.5-3.35l-.1-.75-.05-.1-.15-.35.15-.35.05-.05v-.05l.55-.7.1-.15 3.55-4.85.4-.55v-2.7l-.05-.9v-1.95l-14.75 3.85-.35-.05-21.95-11.55h.05l-11.7-4.25.4.6.5.7.05.1 5.7 8.3.05.05 14.45 12.4 3.75 3.25.2.25v.25l-.1.5q-1.25 6.55-1.5 9.75v.65l.45.05 7.2-.4.15-.1.15-.1.4-.35 5.05-3.85.2-.1h.25l2.05.2" fill="#3b1212"/><path d="m164 141.4.5-.65.1.65h-.6m11-15.4h-.1.1m-1.25 1.3.4.3-.65.3.25-.6m-13.9.15q-.15.05-.25.2l.05-.1.15-.1h.05m-.6.35-.1-.05.1.05m-5.35-6.55-.1-.35-.7-.35q1.75-1.1 3.35-2.05l1.35-.7 3.8-1.65-.4-2.7q-.3-.95-.65-1l-1.6.3-.35.1.5-.65 1.45-.25q.65 0 1.05 1.25l.5 2.75.95-.35.4.05.25.3.05.2-.05.2-.3.25q-2.9.9-6.15 2.65-1.15.65-2.35 1.4l-.45.25-.55.35M133.45 85.2l1.95-.6 13.05 7.85q9.95-.85 29.9-10.65l.5-.05q.25.05.45.25l.15.45-.15.5-16.65 22.5-.2.2v-2.45l12.1-16.45 1.65-2.2q-1.8.85-3.55 1.65-15.8 7.2-24.35 7.8l-.4-.1-14.45-8.7m29.05 21.55q3.5-1 6.6-.45.3 0 .5.3l.15.55-.3.5-.6.15q-3.15-.55-6.8.75h-.3l.65-.85.1-.3v-.65m-1.05-2.2v.9l-.15-.3q-.05-.35.15-.6m0 2.55v.15l-.4.55.05-.35.35-.35m-3.95 5.55-.1.15.05-.1.05-.05m-12.95 12.95-.4.35.25-.25.15-.1M104.85 85l-.1.05-.2-.05-.15-.15Q72.85 61.8 41.1 37.1l-.15-.2.1-.15.15-.1.2.05 18.25 14.05 3.1 2.4 42.1 31.4.1.2-.05.2-.05.05m59.7 51.45.1.45h-.05l-.05-.15v-.3m-7.4-1.65.2.15-.2-.15" fill="#443747"/><path d="m47.7 54.25-9.2-6.55-6.45-20.1 7.65 6.15q1.65 7 8 20.5" fill="#cfb2d2"/><path d="m125.8 141.65.95-5.95 7.4-8.95v.3l.65.4.7.6q-.65.4-5.05 6.95l-4.65 6.65M81.25 79.8l-6.65-5.3-3.3-13.3-10.5-7.3 3.9 12.95L48.05 54.5l-.35-.25q-6.35-13.5-8-20.5l.9.7 19.05 16.3L41.4 36.7l-.2-.05-.15.1-.1.15.15.2q31.75 24.7 63.3 47.75l.15.15.2.05.1-.05v.05l6.15 4.3q.9 3.25 3.75 8.45l.4.75.2.85.35 1.4q-4.15-5.1-5.35-9.8Q95.5 82.2 78.5 68.5l2.75 11.3M38.5 47.7l-1.6-1.1Q19.5 27 2.85 2.45l3.7 1.4.3.35.15.15Q18.65 16.4 32.05 27.6l6.45 20.1m134.15 38.5q1.75-.8 3.55-1.65l-1.65 2.2q-6.3 5.55-13.3 12.55 2.25-3.9 11.4-13.1m-51.85 18 .15.15 13.2 11.75v10.55Q133.1 122.7 133 116l-14.6-13.35 2.4 1.55m34.1-2.9-2.45.5-7.9.5q-.3-.8-5.1-3.1l-14.65-8.8q-11.5-3.3-13.9-3.1l-.2-.1-.85-.4q1.65-.45 12.05 1 10 5.05 18 10.55l4.25 3.05q3.8.65 10.75-.1" fill="#fff"/><path d="M161.4 102.8v.85q-6.9 1.4-13.55 4v-.05q6.05-2.8 13.55-4.8m-22.15 1.45q-.4-.15-.8-.35-6.35-3.1-12.35-7.4l-12.4-5.45-.1-.05-.5-.7q4.5 1.55 13.1 5.95l5.45 2.85 12.25 7.15-4.65-2" fill="#ff7548"/><path d="m113.1 90.3-.4-.6 11.7 4.25h-.05l21.95 11.55.35.05 14.75-3.85v1.1q-7.5 2-13.55 4.8l-.1.05-3.45-1.25-.4-.15-12.25-7.15-5.45-2.85q-8.6-4.4-13.1-5.95" fill="#e15645"/><path d="m153.1 120.55-.8.55-.15.15-.05.25v.35l-2.05-.2h-.25l-.2.1-5.05 3.85-.15.1-.25.25-.15.1-7.35.5-.45-.05v-.65q4.25-4 11.65-5.75 2.6-.3 5.25.45" fill="#802323"/><path d="m2.85 2.45-.4-.6Q28.8 7.5 55.15 21.9q42.6 40.4 78.3 63.3l-.75.25-.2-.1q-8.15-3.75-20.85-13.25l-.4-.25Q94.8 61 83.35 50.2l-.35-.3-12.2-10.7-2.45 6.4-.1-8.85-12.3-11.25-3.45 15.6.5-17.25-9.1-3.7-1.25 6.25-.15-6.9L7 4.35l-.15-.15-.3-.35-3.7-1.4" fill="#c5bfdb"/><path d="M7 4.35 42.5 19.5l.15 6.9 1.25-6.25 9.1 3.7-.5 17.25 3.45-15.6 12.3 11.25.1 8.85 2.45-6.4L83 49.9l.35.3Q94.8 61 111.25 71.85l.4.25q12.7 9.5 20.85 13.25l.2.1.75-.25 14.45 8.7.4.1q8.55-.6 24.35-7.8-9.15 9.2-11.4 13.1l-1.35 1.3-3.6.45-1.4.25q-6.95.75-10.75.1l-4.25-3.05q-8-5.5-18-10.55-10.4-1.45-12.05-1l.85.4-.1.1.2 1.3.1.35.1.4-6.15-4.3.05-.1.05-.2-.1-.2-42.1-31.4-3.1-2.4-19.05-16.3-.9-.7-7.65-6.15Q18.65 16.4 7 4.35" fill="url(#D)"/><path d="m74.6 74.5-9.9-7.65-3.9-12.95 10.5 7.3 3.3 13.3" fill="url(#E)"/><path d="M126.75 135.7q1.3-8.8 1.25-14.55l-.2-.55q-21.2-20.55-46.55-40.8L78.5 68.5q17 13.7 31.85 22.5 1.2 4.7 5.35 9.8l-.35-1.4.25-.05 5.2 4.85-2.4-1.55L133 116q.1 6.7 1.15 10.65v.1l-7.4 8.95" fill="url(#F)"/><path d="m113.7 91.05 12.4 5.45q6 4.3 12.35 7.4.4.2.8.35 8.85 7.25 6.05 12.25-2.55 1.95-7.6-.4l.1-.5v-.25l-.2-.25-3.75-3.25q-5.4-6.6-13.9-12.5-1.6-4.3-6.3-8.25l.05-.05" fill="url(#G)"/><path d="m161.4 103.65.05.9q-.2.25-.15.6l.15.3v1.65l-.35.35-.05.35-3.55 4.85-.05.05-.05.1-.55.7v.05l-.05.05-.15.35.15.35.05.1.1.75q.15 1.95-.5 3.35-1.6.95-3.35 2.05-2.65-.75-5.25-.45-7.4 1.75-11.65 5.75.25-3.2 1.5-9.75 5.05 2.35 7.6.4 2.8-5-6.05-12.25l4.65 2 .4.15 3.45 1.25h.1q6.65-2.6 13.55-4" fill="#a7392b"/><path d="m142.1 127.45-16.55 15.6.25-1.4 4.65-6.65q4.4-6.55 5.05-6.95l-.7-.6-.65-.4V116.1l-13.2-11.75-.15-.15-5.2-4.85-.45-.8-.4-.75q-2.85-5.2-3.75-8.45l-.1-.4h.05l7.6 11.1.1.05 18.1 15.6q-1.6 8.15-1.6 11.25l.1.35.35.2q3.25.25 6.5-.05m32.45-40.7-12.1 16.45-.05-2.15-.1-.3-.25-.2h-.3l-15.2 3.95-21.7-11.45-.1-.05-13.2-4.8h-.3l-.3.15-.1.3-.05-.05-.2-1.3h.3q2.4-.2 13.9 3.1l14.65 8.8q4.8 2.3 5.1 3.1l7.9-.5 2.45-.5 1.4-.25 3.6-.45 1.35-1.3q7-7 13.3-12.55" fill="#957f98"/><path d="m152.1 122.9-.05 3.8q-.45-.3-1.15-.55-1.5-.5-2-.45l-1.35.15q-.4 0-.7-.4l-.15-.2 3.3-2.55 2.1.2m17.35-15.25q3.9 3.4 5.6 7.1l-6.35.45-.25.05-5.15 4.85-.2.2-5.2 3.85q-2.4-.85-3-3.5 1.2-.75 2.35-1.4 3.25-1.75 6.15-2.65l.3-.25.05-.2-.05-.2-.25-.3-.4-.05-.95.35-.5-2.75q-.4-1.25-1.05-1.25l-1.45.25 2.65-3.65h.3q3.65-1.3 6.8-.75l.6-.15M158 115l-.2-1.05.8-1.1.35-.1 1.6-.3q.35.05.65 1-1.7 1.15-3.2 1.55m-3.15 17.1-.45-.35.45-.05v.4m.15-1.45-1.75.25-.25-.15.05-5.6q.95 1.9 2.7 2.85-.55 1.3-.75 2.65" fill="#8d8c94"/><path d="m174.9 126-.5.05q-.3.15-.35.45l-.3.8q-6.95-1.8-9-1.9-2.7-.4-5.2 2.05l.1.1-.05.1-.2.2-.15-.05-.1-.05q-4.9-.25-5.8-5.1l-.1-.95.55-.35.1-.1q1.1 4.05 3.85 4.35 2.8-.4 5.35-5.3l.2-.2 5.15-4.85.25-.05 6.35-.45q2.4 5.4-.15 11.25m-14.7 1.35h-.2l-.15.1.15-.15.15-.05.05.1m-8.15-.65-.05 2-3.85.35-.75-.1-1.8-2.8 1.1-.9.15.2q.3.4.7.4l1.35-.15q.5-.05 2 .45.7.25 1.15.55m5.75-8.9q.3-1.25.2-2.8 1.5-.4 3.2-1.55l.4 2.7-3.8 1.65m5.3 19q-4.15-1.8-8.25-4.7v-.4l2.8-.5.35-.15.55-.7 2.3-.25q2.55 2.55 2.25 6.7m1.25 3.05-3.35-.25-3.55-3.6.85-.25.2-.1 5.6 2.65.25 1.55m-8.6-11.85q1.25.6 2.85.75l-1.25 1.5-2.35.4q.2-1.35.75-2.65m-4.3 5.8q-1-1.55-1.15-3.9v-.05l1.7-.15-.05 1.25.05.25.15.15.6.45.05.05 1.15.8q-1.85.3-2.5 1.15" fill="#55545f"/><path d="m153.9 121.25.55-.35.45-.25q.6 2.65 3 3.5l5.2-3.85q-2.55 4.9-5.35 5.3-2.75-.3-3.85-4.35" fill="#b0b0b6"/><path d="m167.45 127.45.15-.3-.15-.35-.35-.2q-3.65-.2-6.9.75l-.05-.1q2.8-2.05 6-1.3 1.6.3 5.25 2.45-1.8.05-3.95-.95m-53.8-36.35q4.7 3.95 6.3 8.25 8.5 5.9 13.9 12.5l-14.45-12.4-.05-.05-5.7-8.3M144 126.05l-.15.1-7.2.4 7.35-.5m16 2.65.25-.3q2.8 1.45 4.4 3.3l.1.65-.05.1q-.05.2.05.4l.05.05q.15 1.9-.1 3.4l-.1.1h-.05l-.9-4.95-3.65-2.75m10.7 3.4.2.45.05.1q.3 2.5-1.2 4.2h-1.25l2.2-4.75m-3.8 5.65 1.65.1-.25.3q-.8 1.35-3 1.6l1.6-2m-9.55-2.8-.2.1-.75.1h-.05l-.8-.05-3.45-.5-.2-.25q2.35-.75 5.25.45l.2.15" fill="#ca7de7"/><path d="M173.5 127.9q-.9 2.35-1.95 3.6l-.5-1q-.65-.85-2-.85-1.75 0-2.95.85l-.6.55q-1.5-1.7-3.8-3.05l5.35-.35.35-.15.05-.05q2.15 1 3.95.95-3.65-2.15-5.25-2.45-3.2-.75-6 1.3l-.15.05-.15.15h-.05l-.15.1-.1-.1q2.5-2.45 5.2-2.05 2.05.1 9 1.9l-.25.6m-8.9 9-.15.45-1.35-.55q.3-4.15-2.25-6.7l-2.3.25 1.45-1.65 3.65 2.75.9 4.95v.35l.05.15m3.9-.05-2.75-.4q.25-1.7.05-4 .25-.6.9-1.1.95-.7 2.35-.7.8 0 1.15.45l.05.05.45.95-2.2 4.75m-3.2 2.9-.95.1-.25-1.55.5.2h.35l.3-.3.25-.75 1.4.3-1.6 2m-11.35-7.1 3.2 2.15q-2.9-1.2-5.25-.45l-.45-.55q.65-.85 2.5-1.15" fill="#36363e"/><path d="m164 141.4-3.45-.35-.4-.2-4.2-4.2-4.35-.55-.4-.25q-2-1.8-2.35-5.2l-1.95-.2-.3-.1-.25-.25-1.85-2.85-.6.55-18.65 17.65-.6.25q-.3 0-.5-.25l-.05-.1-.3-.25q-.2-.25-.1-.55 2.8-14.65 2.8-23.1Q88 84.25 35.95 47.8l-.15-.15Q17.55 27.15.15 1.25q-.2-.3-.1-.6l.3-.5.55-.1h.3Q28.55 5.6 55.95 20.6l.15.1q43.15 41 79.3 63.9l-1.95.6q-35.7-22.9-78.3-63.3Q28.8 7.5 2.45 1.85l.4.6Q19.5 27 36.9 46.6l1.6 1.1 9.2 6.55.35.25L64.7 66.85l9.9 7.65 6.65 5.3q25.35 20.25 46.55 40.8l.2.55q.05 5.75-1.25 14.55l-.95 5.95-.25 1.4 16.55-15.6 2-.3h.05l.2-.1 1.25-.9 1.8 2.8.75.1 3.85-.35.05-2 .05-3.8v-1.4l.05-.25.15-.15.8-.55.7.35.1.35-.1.1-.55.35.1.95q.9 4.85 5.8 5.1l.1.05.15.05.2-.2q.1-.15.25-.2l.15-.1h.2q3.25-.95 6.9-.75l.35.2.15.35-.15.3-.05.05-.35.15-5.35.35q2.3 1.35 3.8 3.05l.6-.55q1.2-.85 2.95-.85 1.35 0 2 .85l.5 1q1.05-1.25 1.95-3.6l.65-.3-.4-.3.3-.8q.05-.3.35-.45l.5-.05h.1l.45.4.05.55q-1.3 4.1-3.05 5.85.35 3.9-2.85 6.25-1.25 2.15-5 2.35l-.1-.65-.5.65m.6-5 .1-.1q.25-1.5.1-3.4l-.05-.05q-.1-.2-.05-.4l.05-.1-.1-.65q-1.6-1.85-4.4-3.3l-.25.3-1.45 1.65-.55.7-.35.15-2.8.5-.45.05.45.35q4.1 2.9 8.25 4.7l1.35.55.15-.45h.05l-.1-.45.05-.05m6.1-4.3-.45-.95-.05-.05q-.35-.45-1.15-.45-1.4 0-2.35.7-.65.5-.9 1.1.2 2.3-.05 4l2.75.4h1.25q1.5-1.7 1.2-4.2l-.05-.1-.2-.45m-5.4 7.65q2.2-.25 3-1.6l.25-.3-1.65-.1-1.4-.3-.25.75-.3.3h-.35l-.5-.2-5.6-2.65-.2.1-.85.25 3.55 3.6 3.35.25.95-.1M155.75 128q-1.75-.95-2.7-2.85l-.05 5.6.25.15 1.75-.25 2.35-.4 1.25-1.5q-1.6-.15-2.85-.75m-1.8 4.65-1.15-.8-.05-.05-.6-.45-.15-.15-.05-.25.05-1.25-1.7.15v.05q.15 2.35 1.15 3.9l.45.55.2.25 3.45.5.8.05h.05l.75-.1.2-.1-.2-.15-3.2-2.15" fill="#291e2c"/></g><g id="f" fill-rule="evenodd"><path d="m47.85 6-.75 3.05-2.15 8.7-.05.15q-8.35 16.7-16.75 38.85l.05-.05Q17 94.95 15.75 130.3l-.05 1.55v.35l-.1.25-.45.35-.6-.1-13.7-8.2-.25-.25-.15-.3q-2.6-27.95 9.7-63.6 7.9-25 27.55-52.05l.05-.05Q42 3.75 47.55.5l.1-.05.3-.35.55-.1.5.4.05.55L47.85 6m-.8-3.35.05-.05-.1.05q-4.5 2.8-8.05 6.55Q19.45 36 11.6 60.8-.45 95.9 1.95 123.4l2.45 1.45 2.9 1.7 6.9 4.15q.45-13.85 2.45-28.1Q19 85.55 23.5 67.85l3.2-11.6v-.05q5.9-15.55 11.75-28.4Q41 22.3 43.5 17.25l3.55-14.6" fill="#443747"/><path d="m47.85 6 4.6-4.95.5-.25.5.15.95.65q3.55-.9 7.1 1l5.05-1.55.5.05.4.35.1.5-2.5 11.3-.15.25-1.15 1.55L59.4 28.8l.1.25q7.5 31.7 3 55.9l.4-.45q.15-.25.45-.3.05-.1.15-.1l.55-.1q.35.05.5.3l.1.6-2.05 9.05-.1.25-13.35 19.05-.15.15q-15.05 11.1-30.1 16.7l-.35.05-2.85 2.05v-.35l.05-1.55 3.55-2.75q7.95-6.7 18.05-19.55Q40 88.75 48.3 59.45l2.2-7.65v.05l.05-.05.1-.6.05-.1 11.65-36.65.1-.2 1.15-1.5 2.15-9.85-1.35.4-2.75.85-.3.05-.25-.1q-1.05-.6-2-.9l-2.05-.35-2.6.3h-.3l-.3-.1-.7-.45-6.05 6.45.75-3.05m12.8 80.4q4.9-23.7-2.15-54.85l-.25.9L55 42.55h.05q3.1 5.9 3.2 33.7-.15 10.5-1.25 15.8l3.5-4.45v-.35l.15-.85m-8.5-34.8-.15.55v.05q-10.2 34.55-13.15 56.2l-.15.35q-6.2 7.9-11.55 13.5Q40.8 111.8 52 95.55q.1-.15.3-.25l3.55-1.75v-.05q1.45-5.05 1.6-17.25Q57.4 50.2 54.7 43.6l-2.55 8m4.5 43.25-3.5 1.75q-12.9 18.65-29 29.7 11.9-5.25 23.85-14.05l13.15-18.8 1.35-5.95-5.55 7.15-.3.2" fill="#3b1212"/><path d="M47 2.65Q21.85 37.15 16.5 65.9l-.1.45-.35 1.55q-12.4 37.5-11.8 54.4 0 1.35.15 2.55l-2.45-1.45q-2.4-27.5 9.65-62.6Q19.45 36 38.95 9.2 42.5 5.45 47 2.65" fill="#fff"/><path d="M47 2.65h.05l-3.55 14.6Q41 22.3 38.45 27.8q-10.2 5.25-14.7 18.2-2.2 13.3-.25 21.85-4.5 17.7-6.85 34.75-2.95-.65-6.85 1-3.7 10.35-2.5 22.95l-2.9-1.7q-.15-1.2-.15-2.55 1.6-17.35 8.05-31l3.75-23.4.1-.35.25-1.2.1-.45Q21.85 37.15 47 2.65" fill="#957f98"/><path d="M7.3 126.55q-1.2-12.6 2.5-22.95 3.9-1.65 6.85-1-2 14.25-2.45 28.1l-6.9-4.15m16.2-58.7q-1.95-8.55.25-21.85 4.5-12.95 14.7-18.2Q32.6 40.65 26.7 56.2v.05l-3.2 11.6" fill="#cfb2d2"/><path d="m47.1 9.05 6.05-6.45.7.45.3.1h.3l2.6-.3L51.2 14.7l-3.9 13.5-4.1 10.65q-2.3 5.6-3.7 10.05l-1.25 4.55Q26 91.6 19.3 127.55l-3.55 2.75Q17 94.95 28.2 56.7l-.05.05Q36.55 34.6 44.9 17.9l.05-.15 2.15-8.7" fill="#e15645"/><path d="m57.05 2.85 2.05.35-6.05 11.5q-3.5 15.5-13.35 34.2l-1.45 4.55 1.25-4.55q1.4-4.45 3.7-10.05l4.1-10.65 3.9-13.5 5.85-11.85" fill="#ff7548"/><path d="M59.1 3.2q.95.3 2 .9l.25.1.3-.05 2.75-.85q-2 5.25-8.3 27.55-4.85 15.65-7.8 28.6Q40 88.75 37.35 108q-10.1 12.85-18.05 19.55Q26 91.6 38.25 53.45l1.45-4.55q9.85-18.7 13.35-34.2L59.1 3.2m1.55 83.2-.15.85v.35L57 92.05q1.1-5.3 1.25-15.8-.1-27.8-3.2-33.7H55l3.25-10.1q4.25 29.7 2.4 53.95" fill="#a7392b"/><path d="m64.4 3.3 1.35-.4-2.15 9.85-1.15 1.5-.1.2L50.7 51.1l-.05.1-.1.6h-.05l-2.2 7.65q2.95-12.95 7.8-28.6 6.3-22.3 8.3-27.55m-6.15 29.15.25-.9q7.05 31.15 2.15 54.85 1.85-24.25-2.4-53.95" fill="#ca7de7"/><path d="M16.05 67.9 12.3 91.3q-6.45 13.65-8.05 31-.6-16.9 11.8-54.4m36.1-16.3 2.55-8q2.7 6.6 2.75 32.65-.15 12.2-1.6 17.25v.05L52.3 95.3q-.2.1-.3.25-11.2 16.25-24.85 26.7 5.35-5.6 11.55-13.5l.15-.35Q41.8 86.75 52 52.2v-.05l.15-.55" fill="#655268"/><path d="m56.65 94.85.3-.2 5.55-7.15-1.35 5.95L48 112.25q-11.95 8.8-23.85 14.05 16.1-11.05 29-29.7l3.5-1.75" fill="#802323"/></g><g id="g" fill-rule="evenodd"><path d="m46.2 49.4-.35.2-.2.05-.4-.05q-9-4.25-11.9-4.8l-.65-.1-.2.15-.9.75q-5 4.15-8.75 8.8l-.3.25-7.8 3.1-1.55.55-.4.15-1.45.6-.1.05q-4.45 9.55-3.5 11.8h.05l1.45 2.9q3.7 6.3 10.85 10.7 2.4.4 5.55.1l.5-.05q3.7-.45 8.35-1.8l.5-.15.15-.65q.85-2.65 4.6-6.35l.3-.2q9.45-2.6 12.3-5.8 1.3-2.8.35-10.35l.2-.55.2-.2.3-.1.55.15.3.5q1.05 8.35-.6 11.3l-.1.15q-2.9 3.55-12.85 6.35-3.8 3.7-4.25 6.2l-.3.5-.45.15h-.15l-.25-.1-1.95.55-5.35 1.2q-4.8.75-8.2.1l-.15-.05q-8.6-5.2-12.35-13.1l-.45-1v.05q-1.2-2.4 3.1-11.9l.3-.6.1-.3-.05-.35.1-.2.4-.4 1.8-.7 1.55-.6 2.2-.9 5-1.95.45-.2q2.8-3.45 6.3-6.65l3.85-3.2q.15-.15.35-.15l1.55.1q3.3.75 12.1 4.85l.35.45v.6l-.1.15" fill="#3b1212"/><path d="m33.85 43.35-1.55-.1.25-1.65.05-.2 3.25-7.8.35-1.05.45-1.25Q25.4 39 16.35 55.4l-2.2.9q10.3-19.4 23.45-27.4.15-.15.4-.15l.45.15.25.4v.4q-1.35 5-4.65 12.3l-.2 1.35M12.6 56.9l-1.8.7-.4.4-.1.2-.6-.05-.5-.05q-3.8 3.85-7.25 9.85l-.4 9.85 1.9 2.7L5 82.35q3.55 3.85 7.65 5.6l-.05-.05 3.45.6q4.75.3 13.05-1.1l4.25-3.25 1.95-.55.25.1h.15l-.8 1.2-.2.15-4.8 3.7-.35.15q-12.5 2.1-17.45.45h-.05Q5.35 86.6.1 78.4l-.1-.45.4-10.25.1-.35q3.75-6.5 7.9-10.6l.3-.15.3-.05 3.6.35" fill="#443747"/><path d="m21.35 53.45-5 1.95Q25.4 39 36.65 31.3l-.45 1.25-1.75 1.3h-.85q-7.75 8-12.25 19.6" fill="#f6f0f7"/><path d="M28.1 46.6q-3.5 3.2-6.3 6.65l-.45.2q4.5-11.6 12.25-19.6h.85l1.75-1.3-.35 1.05q-1.65.4-2.65 1.45-4 6.7-5.1 11.55" fill="#9f89a2"/><path d="M32.3 43.25q-.2 0-.35.15l-3.85 3.2q1.1-4.85 5.1-11.55 1-1.05 2.65-1.45l-3.25 7.8-.05.2-.25 1.65" fill="#d0b3d3"/><path d="M9.25 73.8 7.8 70.9h-.05q-.95-2.25 3.5-11.8l.1-.05 1.45-.6.4-.15 1.55-.55-.2.3q-1.4 3.45-2.2 7.05l-.05.05-.15.75v.05q-.55 2.65-.75 5.35 1.65 3.1 4.7 5.85 9.8-1.35 17.3-12.5l-.4-1.6-.8-.25q-1.05-4.85-1.1-9.45v-.25q-.1-3.85.5-7.5l.9-.75.2-.15.65.1q2.9.55 11.9 4.8l.4.05.4 1.3.35 1.1 1.2 3.8q1.55 5.55 2.5 10.25.3 1.95-2.55 4.6-4.15-1.9-10.95 1.85-6.7 4.3-8 9.55l-8.7.5q-7.15-6.55-10.65-8.8" fill="#a7392b"/><path d="m14.75 57.75 7.8-3.1.3-.25q3.75-4.65 8.75-8.8-.6 3.65-.5 7.5v.25q-1.4 3.3-3 5.9l.4-1.85q-2.55 4.2-7.9 7.05-4.45 2.75-8.25.65.8-3.6 2.2-7.05l.2-.3" fill="#ff7548"/><path d="M12.15 65.95v-.05q3 3.15 8.35.6 4.35-2.15 7.6-7.25 1.6-2.6 3-5.9.05 4.6 1.1 9.45l.8.25.4 1.6q-7.5 11.15-17.3 12.5-3.05-2.75-4.7-5.85.2-2.7.75-5.35" fill="#e15645"/><path d="M28.1 59.25q-3.25 5.1-7.6 7.25-5.35 2.55-8.35-.6l.15-.75.05-.05q3.8 2.1 8.25-.65 5.35-2.85 7.9-7.05l-.4 1.85" fill="#fff"/><path d="m45.65 49.65.2-.05.35-.2q5.45 4.4 6.9 9.1l-.2.2-.2.55q.95 7.55-.35 10.35-2.85 3.2-12.3 5.8l-.3.2q-3.75 3.7-4.6 6.35l-.15.65-.5.15q-4.65 1.35-8.35 1.8l7.25-2.7q3.15-4.55 5.95-6.55L49 70.8q2.85-1.5 2.05-4.2-1-6.25-3.45-10.75l-1.2-3.8-.35-1.1-.4-1.3M28 85.35l5.35-1.2-4.25 3.25q-8.3 1.4-13.05 1.1l10-1.6L28 85.35" fill="#ca7de7"/><path d="m26.15 84.55-.5.05q-3.15.3-5.55-.1-7.15-4.4-10.85-10.7 3.5 2.25 10.65 8.8l8.7-.5q1.3-5.25 8-9.55 6.8-3.75 10.95-1.85 2.85-2.65 2.55-4.6-.95-4.7-2.5-10.25 2.45 4.5 3.45 10.75.8 2.7-2.05 4.2l-9.65 4.5q-2.8 2-5.95 6.55l-7.25 2.7" fill="#802323"/><path d="m10.3 58.2.05.35-.1.3-.3.6q-4.3 9.5-3.1 11.9v-.05l.45 1q.5 3.75 5 9.25-4.85 1.05-7.3.8L3.45 80.5q3.6.1 6.6-1.1-3.2-2.9-4.9-8.1 0-5.8 4.55-13.15l.6.05" fill="#d5bad8"/><path d="m3.45 80.5-1.9-2.7.4-9.85q3.45-6 7.25-9.85l.5.05Q5.15 65.5 5.15 71.3q1.7 5.2 4.9 8.1-3 1.2-6.6 1.1" fill="#eadcec"/><path d="M7.3 72.3q3.75 7.9 12.35 13.1l.15.05q3.4.65 8.2-.1l-1.95 1.55-10 1.6-3.45-.6.05.05Q8.55 86.2 5 82.35q2.45.25 7.3-.8-4.5-5.5-5-9.25" fill="#9a849d"/><path d="m47.45 39.45.15.35-.15.55-.7.95-2.9 3.85-5.3 7L38 57.1l-.05 2.35v.6q.05 1 .25 1.5l.3.05.4.4q2.25 4.85 8.1 4.65h.1l8.7-3.3q2.45-4.8 6-6.8l.6-.1.1.05.35.3.1.6-.35.45q-3.3 1.95-5.55 6.45l-.4.35-9.15 3.5-.25.05q-6.65.25-9.45-5-.6-.1-1-.9-.35-.7-.4-2.2-.1-2.65.7-8.35l.1-.35 9-12q.2-.25.55-.25l.5.1h.05l.15.2" fill="#291e2c"/><path d="m38 57.1.55-4.95 5.3-7q2.8.45 5.25 3.55 1.55 2.25 1.2 6.85-3.65 5.2-7.95 6.05-3.25-.8-4.35-4.5" fill="#8d8c94"/><path d="M37.95 59.7v-.25L38 57.1q1.1 3.7 4.35 4.5 4.3-.85 7.95-6.05.35-4.6-1.2-6.85-2.45-3.1-5.25-3.55l2.9-3.85Q54 48.15 54.7 58.4L52.35 61q-4.95 3.25-9.2 4.3-3.2-2.65-5.2-5.6" fill="#55545f"/><path d="m46.75 41.3.7-.95.15-.55-.15-.35q4.65-2.35 10.75 2.2 7 9.05 4.55 14.35-5.55.55-8.65 6.95l-7 3.7H47q-5.85.2-8.1-4.65l-.4-.4-.3-.05q-.2-.5-.25-1.5v-.35q2 2.95 5.2 5.6 4.25-1.05 9.2-4.3l2.35-2.6q-.7-10.25-7.95-17.1" fill="#36363e"/><path d="m62.5 56.5-.1-.05-.6.1q-3.55 2-6 6.8l-8.7 3.3 7-3.7q3.1-6.4 8.65-6.95l-.25.5" fill="#ca7de7"/><path d="M39.05 27.55h.1l.4.05h4.4l.2.05.2.1 5.9 6.45 10.4 11.2.1.25.05.3-.2.5-.55.25H50.7l-.45-.15-9.6-7.6-.3-.45-1.7-9.2-.15-.85.15-.55.4-.35m14.9 17.6h5.1L43.75 28.6H40.1l.4 2.25.75 4.05.55 3.05 9.2 7.2h2.95" fill="#443747"/><path d="m35.6 23.9 3.45 3.65-.4.35-.15.55.15.85q-9.15-9.15-14-17.7l-.1-.3-1.2-10q-.05-.35.15-.55.15-.25.45-.3Q30.85-1 43.15 2.3l.2.1L67.1 16.9l.3.35 5.3 11.05.1.3.8 18.65v.2q-3.9 15.45-11.1 21.9l-.4.2-.4-.05-.35-.3q-6.05-8.85-4.85-22.5h1.55q-1.1 11.6 3.3 19.6l.5.8.3.5q6.35-6.35 9.9-20.4l-.4-9.7-.35-8.7-5.2-10.7L42.65 3.75Q31.95.9 25.5 1.75l-.55.05L26.1 11q3.6 6.25 9.5 12.9" fill="#3b1212"/><path d="m26.45 2.3-.2-.15-.75-.4q6.45-.85 17.15 2L66.1 18.1l5.2 10.7.35 8.7-1.15-8.8-6.15-9.85L42.2 5.05 26.45 2.3" fill="#ca7de7"/><path d="M50.25 34.2q-.65-7.3 1.8-13.25l-5-4.2-.45-.35Q35.85 7.75 26.45 2.3L42.2 5.05l22.15 13.8 6.15 9.85 1.15 8.8.4 9.7q-3.55 14.05-9.9 20.4l-.3-.5-.5-.8q-2.95-9.3-2.1-19.6h.8l.55-.25.2-.5-.05-.3-.1-.25-10.4-11.2" fill="#a7392b"/><path d="m47.05 16.75 3.55 3.8Q40.15 12.35 29.3 7q-.4 6.55 6.3 16.9-5.9-6.65-9.5-12.9l-1.15-9.2.55-.05.75.4.2.15q9.4 5.45 20.15 14.1l.45.35" fill="#ff7548"/><path d="M35.6 23.9Q28.9 13.55 29.3 7q10.85 5.35 21.3 13.55l-3.55-3.8 5 4.2q-2.45 5.95-1.8 13.25l-5.9-6.45-.2-.1-.2-.05h-4.4l-.4-.05h-.1L35.6 23.9m22.45 22.8h1.2q-.85 10.3 2.1 19.6-4.4-8-3.3-19.6" fill="#e15645"/><path d="m40.5 30.85-.4-2.25h3.65l15.3 16.55h-.65Q50.9 40 42.45 30.75l-1.95.1" fill="#fff"/><path d="M58.4 45.15h-4.45q-.4-1.45-1.8-2.5l-8.2-7.25-2.7-.5-.75-4.05 1.95-.1Q50.9 40 58.4 45.15" fill="#957f98"/><path d="M53.95 45.15H51l-9.2-7.2-.55-3.05 2.7.5 8.2 7.25q1.4 1.05 1.8 2.5" fill="#ceb3d2"/></g><g id="h" fill-rule="evenodd"><path d="m30.8 21.2-.1-.05-.4-.35-.05-.55 5.3-18.4.05-.5.5-.35Q38.7.05 45 0l.45.15q18.4 12.5 23.05 35.2l.05.35v.05L72.5 78.1v.3l-2.25 10-.25.4q-4.15 3.55-11.55 7.75l-3.55 9.1-.1 4.4-.25.55-.15.15-.2.1-.4-.05-1.8-.85-4.95-2.3-.2-.15-.1-.25-.4-3.75-3.25-3.75-.15-.3-.25-2.55-.15-1.1-.2-2 .05-.3.15-.2 2.75-1.8q2.2-2.45 2.8-11.4l.8-17.1.1-3.15.7-14.75.05-.8.1-2.2.9-20.15-2.6-7.55q-2-5.3-4.15-9.7-2.95.1-5.25.9-2.85 6.1-5.4 15.4l-.25.3-.3.05h-.1l-.3-.25q-.15-.15-.05-.4 1.8-6.65 3.8-11.7l1.75-4 .3-.3q2.65-.95 6.05-1.05h.2l.1.05.2.25.2.3q3.65 7.5 6.8 17.45v.2l-.8 18.9-.15 3.3-.05.65-.45 9.95-.95 20.85-.25 4.65q-.65 9.55-3.1 12.1l-.1.05-.55.4L43.4 94l.6 5.2 3.25 3.75.1.3.4 3.6 5.5 2.6h.05l.1-3.95.05-.25 3.65-9.5.35-.4q7.25-4.1 11.35-7.55l2.2-9.65-4-42.25.05.05v-.05l-.05-.25Q63 16.15 48.65 4.4L46.8 3l-2-1.45-7.75.75-5.3 18.35-.4.45-.55.1M10.5 92.25 4.15 93.9l-.6-.15-.3-.5V93Q-.8 88.1.2 72.3l.05-.05q1.25-7.5 5.35-16.4.05-.2.25-.25h.45l.15.15.05.05q1.15 1.05 2 2.85l.4.95.5 1.4.05.2-.25 8.25 1 .95 1.3 1.25 6-2.1.8-1.05.6-.8.4-.55.9-1.2L22.4 63l1.45-2.05.15-.1 2.3-1.4.85-.6 8.05-4.95.3-.1 3.1.4.3.15.1.3.9 8.9.25.3v.6q-1.95 5.15-6.75 11l-.5.55-1.05 1.25-.7.8-3.25 3.4-.05.1q-7.15 6.2-14.2 9.4l-.95.45-.75.3-1.45.55M37.9 55.2l-1.15-.15-1.2-.2-9.7 6.05-.4.25-.75.5h-.05l-4.55 6.2-.05.05H20l-1.75 2.4-.25.15-6.45 2.25-.3.05-.25-.15-2.65-2.55-.1-.15-.05-.25.2-8.4q-.85-2.75-2.2-4.3l-.3.65q-3.5 8.05-4.65 14.85-.55 7.7.2 12.75Q2.2 90 4 92.35l2.75-.6q9.2-2.3 18.55-10.05l.3-.25 1.25-1.1q8.95-9 11.85-16.45l.15-.25-.15-1.75-.65-6.7h-.15" fill="#3b1212"/><path d="m50.75 44.75.05-.65v.1l.05.4-.1.15m-.9-2.65-.1 2.2-3.45-7.35-.05-.2-.1-4.25-9.55-6.7-2-1.45-.1-.1-.1-.25q-.05-.2.05-.35l.15-.15.2-.05.4.05 11.75 8.3.15.2.05.2.1 4.4 2.6 5.5m-7.3 53.7.15 1.1q-4.45 2.25-9.35 3.45-3.7.95-7.65 1.3h-.25q-5.35-.55-8.95-3-2-1.35-3.45-3.3l-.35.7 3.75 5.8.15.4v3.7l-.25.55-.25.15-.25.05q-.35 0-.55-.2l-.25-.55v-3.45l-3.85-5.95-.15-.35.1-.4.65-1.45-1.3-2.1 1.45-.55 1.35 2.15.1.25q3.9 5.7 12.15 6.5h.35q8.65-2.85 11.05-11Q38.5 81 32.9 76l.5-.55q5.95 5.25 4.3 14.3-2.1 7.2-8.85 10.5 7.35-1.15 13.7-4.45M8.5 58.65l1.5-2.3q1.5-2.1 2.9-8.25l.15-.2.3-.05.25.15.05.1v.2q-1.45 6.35-3.05 8.5-1.35 1.85-1.7 2.8l-.4-.95m9.6-11.85v-.05l.15-.25.25-.15q.15 0 .25.15l.1.1.05.15q.05 7.9-.3 11.9l-.35 4.45.35 2.8.3 1.8-.6.8-.45-2.5-.35-2.9.35-4.55q.35-3.9.25-11.75m1.35-.35-.1-.2q-.05-.15.05-.25l.2-.2h.3l.15.15.05.05q1.2 3.4 1.7 6t.35 4.5l-1.05 6.2v.05q-.7 1.9-.9 3.2l-.9 1.2q0-1.6 1.05-4.65l1-6.05q.15-1.8-.3-4.3-.5-2.45-1.6-5.7m4.5-5-.05-.1-.05-.3.15-.25.3-.05.1.05.15.1 2.9 4.95q2.5 4.55 2.5 5.7l-.35 1.35-.75 1.8-1.5 3.6-.2.55-.85.6.35-1.4q.4-1.25 1.5-3.65l.5-1.1.5-1.75q0-1.05-2.35-5.3v-.05l-2.85-4.75" fill="#443747"/><path d="m32.2 80.25-1.05-2.2.7-.8q2 3.15 2.25 7.05.2 2.95-.65 6.3l-.05.05-.9 2.3q-.95 1.85-2.15 3.15-2.1 2.2-5 2.7l-3.55.1h-.05q-6.3-1.3-9.05-7.5l.95-.45 1.2 2.2q2.55 3.75 7.05 4.7l.35.05 1.45.05q3.25-.15 5.55-2.25 1.45-1.35 2.5-3.55l.7-1.8.6-3.55q.25-3.55-.85-6.55" fill="#0b3474"/><path d="m49.35 75.55.95-20.85q5.1-16.25 4.95-31.3-.05-6.35-5.4-17.3Q59.4 19 63.3 29.35l.05.15q-2.45 32.45-14 46.05m-4.9-71.9h-.2q-3.4.1-6.05 1.05l-.3.3-1.75 4 1.7-5.85 6.35-.1.25.6M37.9 55.2h.15l.65 6.7Q32.75 73 25.5 81.35l-.25.35Q20.3 85 16.45 86q2.7-7.55 2.05-12.5l.2-.2q4.5-4.1 7.65-9.55l.65-1.2q2.25-.95 4.45-2.3l.25-.15q3.15-2.05 6.2-4.9" fill="#a7392b"/><path d="m30.8 21.2.55-.1.4-.45 5.3-18.35 7.75-.75 2 1.45q3.35 7.85 5.4 19 .85 7.5-1.25 18.8l.8-18.9v-.2q-3.15-9.95-6.8-17.45l-.2-.3-.2-.25-.1-.05-.25-.6-6.35.1L36.15 9q-2 5.05-3.8 11.7-.1.25.05.4l.3.25h.05l.05.05-2.35 9.45-.35.55.6-10.2h.1m5.95 33.85 1.15.15q-3.05 2.85-6.2 4.9l-.25.15-4.1 1.8-1.9-.9.4-.25 1.25.6q4.6-2.15 9.65-6.45m-30 36.7-2.75.6Q2.2 90 1.45 85.2l.45-8.25q.6-4.85 2.65-9 .75 5.25 3.5 6.7l.2.1q.85.6 2.05.8 5.25.45 10.55-5.25l3.75-5.1 1.75-1.45Q23.2 69.2 18.7 73.3l-.2.2q-.55.35-1.05.8l-.15.1-6.75 4-.1 6.7q-.6 2.75-3.25 6.2l-.2.2-.25.25" fill="#ff7548"/><path d="m45.35 92.75.55-.4.1-.05q2.45-2.55 3.1-12.1l.25-4.65q11.55-13.6 14-46.05l.6 1.8q4.5 23.85 4.7 47.4l-2.05 9.1q-8.85 6.25-10.2 8-2.75 2.85-3.55 5.7-8.55-2.65-6.6-8.65l-.9-.1m2.8-78.35 2.6 7.55-.9 20.15-2.6-5.5-.1-4.4-.05-.2-.15-.2-11.75-8.3-.4-.05-.2.05q2.6-13.15 7.35-13.4 3-.9 6.2 4.3" fill="#591d1d"/><path d="m53.25 109.45-5.5-2.6-.4-3.6-.1-.3L44 99.2l-.6-5.2 1.95-1.25.9.1q-1.95 6 6.6 8.65-.45 1.45-.35 2.9l.75 5.05M32.8 21.35l.3-.05.25-.3q2.55-9.3 5.4-15.4 2.3-.8 5.25-.9 2.15 4.4 4.15 9.7-3.2-5.2-6.2-4.3-4.75.25-7.35 13.4l-.15.15q-.1.15-.05.35l.1.25-4.05 6.6 2.35-9.45v-.05" fill="#802323"/><path d="m46.8 3 1.85 1.4.9 1.25.3.45q5.35 10.95 5.4 17.3.15 15.05-4.95 31.3l.45-9.95.1-.15-.05-.4v-.1l.15-3.3q2.1-11.3 1.25-18.8-2.05-11.15-5.4-19M25.3 81.7q-9.35 7.75-18.55 10.05L7 91.5l.2-.2q5.95-6.55 3.9-12.5l6.2-4.4.15-.1q.5-.45 1.05-.8.65 4.95-2.05 12.5 3.85-1 8.8-4.3h.05M5.9 57.6l.3-.65q1.35 1.55 2.2 4.3l-.2 8.4.05.25.1.15L11 72.6l.25.15.3-.05L18 70.45l.25-.15L20 67.9h.05l.05-.05 4.55-6.2h.05l1.35.9-1.45 2.65-3.75 5.1q-5.3 5.7-10.55 5.25-1.2-.2-2.05-.8l-.2-.1Q6.4 73.3 6.1 70.2l-.2-12.6" fill="#e15645"/><path d="M48.65 4.4Q63 16.15 67 35.65l.05.25H67l4 42.25-2.2 9.65q-4.1 3.45-11.35 7.55l-.35.4-3.65 9.5-.05.25-.1 3.95h-.05l-.75-5.05q-.1-1.45.35-2.9.8-2.85 3.55-5.7 1.35-1.75 10.2-8l2.05-9.1q-.2-23.55-4.7-47.4l-.6-1.8-.05-.15Q59.4 19 49.85 6.1l-.3-.45-.9-1.25m1.1 39.9-.05.8-4.6-7.35v-.3l-.5-4q-4-1.35-8-7.65l9.55 6.7.1 4.25.05.2 3.45 7.35" fill="#ca7de7"/><path d="m48.9 63-.8 17.1q-.6 8.95-2.8 11.4l-2.75 1.8-.15.2-.05.3.2 2q-6.35 3.3-13.7 4.45 6.75-3.3 8.85-10.5 1.65-9.05-4.3-14.3 4.8-5.85 6.75-11v-.55l8.75-.9m-6.2 33.9.25 2.55.15.3 3.25 3.75.4 3.75.1.25.2.15 4.95 2.3q-17.35 10.1-29.8 5.1-3.7-2.1-6.1-8.4l.25-.15.25-.55v-3.7l-.15-.4-3.75-5.8.35-.7q1.45 1.95 3.45 3.3 2.95 3.85 3.95 11.5.2 7.85 6.75.2 4.05-4.85 6.15-10 4.9-1.2 9.35-3.45M14.45 47.85l3.65-1.05q.1 7.85-.25 11.75l-.35 4.55.35 2.9.45 2.5-.8 1.05-6 2.1-1.3-1.25q-.35-1.25.5-5l3.75-17.55m9.95-7.05 5.7-9.4.35-.55 4.05-6.6.1.1 2 1.45q4 6.3 8 7.65l.5 4-7.05 8.45q-4.8 5.05-8.45 7l.35-1.35q0-1.15-2.5-5.7l-2.9-4.95-.15-.1" fill="#655268"/><path d="M49.7 45.1 49 59.85Q40 52.7 38.05 45.9l7.05-8.45v.3l4.6 7.35m-36.05 3 .8-.25L10.7 65.4q-.85 3.75-.5 5l-1-.95.25-8.25-.05-.2-.5-1.4q.35-.95 1.7-2.8 1.6-2.15 3.05-8.5v-.2m9.85-6.15.45-.5 2.85 4.75v.05q2.35 4.25 2.35 5.3l-.5 1.75-.5 1.1q-1.1 2.4-1.5 3.65l-.35 1.4-2.3 1.4-.15.1L22.4 63q.1-2.5 1.3-7.55 1.75-8.75-.2-13.5m8.35 35.3L32.9 76q5.6 5 4.05 13.6-2.4 8.15-11.05 11h-.35q-8.25-.8-12.15-6.5l-.1-.25-1.35-2.15.75-.3q2.75 6.2 9.05 7.5h.05l3.55-.1q4.5.6 8.1-5.05 3.8-5.95.65-9.45-.25-3.9-2.25-7.05M16.5 98.65q3.6 2.45 8.95 3h.25q3.95-.35 7.65-1.3-2.1 5.15-6.15 10-6.55 7.65-6.75-.2-1-7.65-3.95-11.5" fill="#957f98"/><path d="M49 59.85 48.9 63l-8.75.9v-.05l-.25-.3-.9-8.9-.1-.3-.3-.15-3.1-.4-.3.1-8.05 4.95.2-.55 1.5-3.6.75-1.8q3.65-1.95 8.45-7Q40 52.7 49 59.85m-28.95-13.9 3.45-4q1.95 4.75.2 13.5-1.2 5.05-1.3 7.55l-2.2 2.95q.2-1.3.9-3.2v-.05l1.05-6.2q.15-1.9-.35-4.5t-1.7-6l-.05-.05m5.3 52.85q2.9-.5 5-2.7 1.2-1.3 2.15-3.15l.9-2.3.05-.05q.85-3.35.65-6.3 3.15 3.5-.65 9.45-3.6 5.65-8.1 5.05" fill="#cfb2d2"/><path d="m18.85 46.6.6-.15q1.1 3.25 1.6 5.7.45 2.5.3 4.3l-1 6.05q-1.05 3.05-1.05 4.65l-.4.55-.3-1.8-.35-2.8.35-4.45q.35-4 .3-11.9l-.05-.15" fill="#8d8c94"/><path d="m25.85 60.9 9.7-6.05 1.2.2q-5.05 4.3-9.65 6.45l-1.25-.6" fill="#e25d4d"/><path d="m24.7 61.65.75-.5 1.9.9 4.1-1.8q-2.2 1.35-4.45 2.3l-.65 1.2-1.75 1.45 1.45-2.65-1.35-.9m-9.85 31.5 2.6-.7q2 3.1 4.8 5.45l-.35-.05q-4.5-.95-7.05-4.7M7.2 91.3q2.65-3.45 3.25-6.2l.1-6.7 6.75-4-6.2 4.4q2.05 5.95-3.9 12.5" fill="#fff"/><path d="M1.45 85.2q-.75-5.05-.2-12.75Q2.4 65.65 5.9 57.6l.2 12.6q.3 3.1 1.95 4.45-2.75-1.45-3.5-6.7-2.05 4.15-2.65 9l-.45 8.25" fill="#fffdfc"/><path d="m38.7 61.9.15 1.75-.15.25q-2.9 7.45-11.85 16.45l-1.25 1.1-.1-.1Q32.75 73 38.7 61.9" fill="#c97de6"/><path d="m23.2 89.2-.2-.45.2-.45q.2-.15.45-.15l.35.1.05.05.25.35v.1l-.25.45q-.15.2-.4.2l-.3-.05-.15-.15m4.5.65.2.55-.2.55-.6.25-.55-.25-.2-.55.2-.55.55-.25q.35 0 .6.25m3.65-1.2.3.65-.3.65-.65.3-.65-.3q-.3-.25-.3-.65t.3-.65q.25-.25.65-.25l.65.25m.4 3.5q-1.05 2.2-2.5 3.55l-.3-.2q-.65-.65-.65-1.55t.65-1.5q.65-.65 1.6-.65.65 0 1.2.35m-6.45.75-.15.35-.35.15-.35-.15-.15-.35.15-.35q.15-.15.35-.15l.35.15.15.35m.6 1.5q.3-.3.75-.3t.75.3l.3.75-.3.7q-.3.3-.75.3l-.75-.3q-.3-.25-.3-.7 0-.45.3-.75" fill="#04fae6"/><path d="m17.45 92.45 1.45-.6q.25 1.95 3.4 2.1-.15 2.3 1.4 4l-1.45-.05q-2.8-2.35-4.8-5.45" fill="#04ffe5"/><path d="M24 88.25q1.25-1.3 2.9-1.85 2.6-.85 6.15.4l-.6 3.55-.7 1.8q-.55-.35-1.2-.35-.95 0-1.6.65-.65.6-.65 1.5t.65 1.55l.3.2q-2.3 2.1-5.55 2.25-1.55-1.7-1.4-4-3.15-.15-3.4-2.1v-.95q.65-2.6 4.1-1.45l.2-.25.15.15.3.05q.25 0 .4-.2l.25-.45v-.1l-.25-.35-.05-.05m7.35.4-.65-.25q-.4 0-.65.25-.3.25-.3.65t.3.65l.65.3.65-.3.3-.65-.3-.65m-3.65 1.2q-.25-.25-.6-.25l-.55.25-.2.55.2.55.55.25.6-.25.2-.55-.2-.55m-1.8 4.55q-.3.3-.3.75t.3.7l.75.3q.45 0 .75-.3l.3-.7-.3-.75q-.3-.3-.75-.3t-.75.3m-.6-1.5-.15-.35-.35-.15q-.2 0-.35.15l-.15.35.15.35.35.15.35-.15.15-.35" fill="url(#H)"/><path d="m24 88.25-.35-.1q-.25 0-.45.15l-.2.45.2.45-.2.25q-3.45-1.15-4.1 1.45v.95l-1.45.6-2.6.7-1.2-2.2q7.05-3.2 14.2-9.4l.05-.1 3.25-3.4 1.05 2.2q-2.55 3.55-5.3 6.15-1.65.55-2.9 1.85" fill="url(#I)"/><path d="M26.9 86.4q2.75-2.6 5.3-6.15 1.1 3 .85 6.55-3.55-1.25-6.15-.4" fill="url(#J)"/></g><g id="i" fill-rule="evenodd"><path d="m34.8 107.2 2.95-1.25.3-.05H50.6l5.9-1.1 1.1-3.6-.65-3.9v-.35l2.5-8.95-.15-.1-1.3-1.3-.2-.45-.7-4.4-2.25-2.1-15.35-.9-.45-.15-.25-.35-5.1-16.7v-.5q.05-.25.25-.35L44 53.75l.1-.05q1.45-6.25 3.45-9.25l.05-.3.4-.4q10.05-3.85 18.25 3.7 6.6 2.4 8.25 4.25l.15.3v.4q-.7 3.5-.55 6.65 1-3.35 3.4-5.35.15-.15.35-.15h.45l.3.25q6.4 8.65 13.7 28l.05.45-1.75 8.05h-.05q-1.25 4.65-7.5 5.4l-.35.15-.6-.1-.3-.5-.15-.65-2.15 2.15-.1.3-1.25-1.2-.05.2-.8-.8L74 92l-.9-.85-.9-.9h-.05l-.25-.1-4.25-3.4q-2.65-.35-6.3-.1v.3l-.9 3.2-2 7.05.7 3.9v.4l-.6 1.75-.55 1.95h.25l.25.1.2.25.05.3-1.15 4.85h-.4l-.2.15-.55.35 1.15-4.95-.6.05-2.7.5-3.5.6H38.2l-1.05.5-.95.4-.5-.15-.1-.45-.45-.4-.35-.1m42.65-51.3-.7.9-.4.75q-1.15 2.25-1.4 5.4l-.2.5v.1l-.05.6-.15.2q1.05 3.1 2.95 5.3-.4-5.85-1.2-11.65l.1-.4.35-.2h.1l.3.1.2.4 1.1 10.65.15 2.45v.05l.1 1q.35 6.5.25 13l3.35 7.25.2.1.35.45.05.15v.1l.2 1.05 1.2-.25q1.4-.3 2.4-.9 1.2-.75 1.9-1.9l.5-1.15 1.7-7.8q-6.9-18.2-12.95-26.7l-.4.45m.2 15.9-.05-.55q-2.8-2.7-4.15-6.95l-.15-.35q-1.45-5.1-.2-11.45-1.55-1.4-6.15-3.15l.8 2.1q2.35 7.15-.7 12.1l-.35.55q-3.4 4.8-10.15 4.4h-.35l-.65-.1-.35-.2-.1-.35-.55 1.3-2 5.55 1.5 3.35 1.2.05.45.2 2.65 2.5.2.45.5 3.05.2 1.4.4.4.1-.15.35-.2q4.6-.45 7.8 0l.25.1 2.05 1.65q-.7-5.1 1.1-11.85l.1-.25.3-.1 6.1.3-.15-3.8M55.1 67.85v-.1.1m12-6.85q1.8-5-1.45-12.15l-.3-.15q-7.6-7.05-16.75-3.5l-.35.05q-1.8 2.9-3.15 8.65l.1.6-.35.5h-.05q-1.35 6.3-2.2 15.65l-.05.5q-.05 4.05-1 4-.6.15-1.25-1.6l-.7-2.15.05-.4.35-.2.35.05.25.3.85 3 .05-3.05v-.05l.05-.5.35-3 .1-1.05q.65-6.05 1.6-10.6l-5.75 3.95-.3.25-2.25 1.5 2.5 8.2 2.3 7.45 11.2.65 1.6.1-1.4-3.1v-.4l1.8-4.85 1.05-2.75q.05-.2.25-.25h.4l.25.25.05.4-.15.4.15-.2.4-.1q2.05.25 3.85-.05 4-.6 6.3-3.85.8-1.15 1.25-2.5m5.95 15.15H73l-.8.05q-1.75 6.7-.9 11.75l7.5 7.3 1.1-1.05.05-.1 1.4-1.4-3.4-7.3-.05-.25-.05-7.65v-.85l-4.8-.5m8.3 16.9-.05.05.05-.05" fill="#3b1212"/><path d="m34.8 107.2.35.1.45.4.1.45.5.15 4.2 1.3.25.2.1.3q.15 1.6.8 2.2l6.3 2.3 5.25-2 .2-.05.2.1.45.2 2.5-1.65.55-.35.2-.15h.4l3.85-.35 3.7-3.75 6.2-6.15 1.75-9.3.9.85-.5 2.5-1.2 6.3-.15.25L62 111.2l-.3.15-4.25.4-3.15 2.15-.3.1-.25-.05-.55-.3-5.2 1.95h-.35l-6.55-2.35-.1-.05q-1-.7-1.2-2.7l-5.2-1.65-.25-.15-4-1.05.75 2.95.95.55q9.2 5.25 16.9 8.65l5.2 2.2 5.4-2.5.1-.05 16.1-15.9 2.35-7.5.05-.2 1.25 1.2-2.25 7.15-.2.35-16.3 16.05-.2.15-5.95 2.75h-.55q-10.35-3.95-23.9-11.7l-.25-.2-.1-.3-1.15-4.6.05-.5.4-.35.5-.05 5.3 1.4" fill="#443747"/><path d="m37.55 60.1.3-.25 1.35 6 1.65-1-1.35 1.5 2.5.15-.1 1.05-3.1-.45-1.25-7m17.15-9.15q-2.75 2.05-3 5.5-.05 5.95 5.55 7.8 5.65.7 7.4-4.25 1.35-5.75-2.1-8.4-3.5-2.6-7.85-.65m-.6-.85.1-.05q5-2.25 9 .75 4 2.95 2.45 9.45v.05q-2.05 5.75-8.55 4.95H57q-6.4-2.05-6.35-8.85v-.05q.35-3.9 3.45-6.25" fill="#0b3474"/><path d="m32.05 111.15-.95-.55-.75-2.95 4 1.05.25.15 5.2 1.65q.2 2 1.2 2.7l.1.05 6.55 2.35H48l5.2-1.95.55.3.25.05.3-.1 3.15-2.15 4.25-.4.3-.15 10.15-10.15.15-.25 1.2-6.3 1.4 1.9q-1.2 2.6-1.65 6.25-6.2 4.4-10.25 9.5-5.3 1.3-10.55 4-1.35.65-2.65 1.45-14.05-6.45-17.75-6.45" fill="#cfb2d2"/><path d="M52.45 116.15q-1.75 1.15-3.5 3.65-7.7-3.4-16.9-8.65 3.7 0 17.75 6.45 1.3-.8 2.65-1.45" fill="#957f98"/><path d="m74 92 3.3 3.25-2.2 7.8-1.75 1-13.7 15.35-.1.1-5.4 2.5-5.2-2.2q1.75-2.5 3.5-3.65 5.25-2.7 10.55-4 4.05-5.1 10.25-9.5.45-3.65 1.65-6.25l-1.4-1.9.5-2.5" fill="#7b667e"/><path d="m77.3 95.25.8.8-2.35 7.5-16.1 15.9v-.05l13.7-15.35 1.75-1 2.2-7.8m.55-39.8q6.05 8.5 12.95 26.7l-1.7 7.8-.5 1.15.5-9.95q-2.4-7.55-7.5-17.4Q79.95 61 79 58.9l-.15-.35q-.75-1.8-1-3.1m-10.1-4-.8-2.1q4.6 1.75 6.15 3.15-1.25 6.35.2 11.45l.15.35q1.35 4.25 4.15 6.95l.05.55q-3.05-2.6-6.05-8.4-1.1-3.5-.4-10.25l-3.45-1.7m5.3 24.75v-.05l4.8.5v.85l-2.55-.4q-1.6-.4-2.25-.9" fill="#ca7de7"/><path d="m36.2 108.3.95-.4 7.2 2.95 7.95.5 2-4.55 2.7-.5.6-.05-1.15 4.95-2.5 1.65-.45-.2-.2-.1-.2.05-5.25 2-6.3-2.3q-.65-.6-.8-2.2l-.1-.3-.25-.2-4.2-1.3m21.4 2.4 1.15-4.85-.05-.3-.2-.25-.25-.1H58l.55-1.95q1.8 1.2 2.5 4.7l4.6-7.45.6-9.15 2.8.95-.5 8.9-3.4 5.4-3.7 3.75-3.85.35m19.15-53.9.7-.9q.9 5.45 1 12.65l-1.1-10.65-.2-.4-.3-.1-.1-.6M86.7 93q-1 .6-2.4.9-.9-3.15-3.4-7.45l-.35-10.55q.55 5.8 2.7 9.3.8 1.9 4.1 4.75L86.7 93M56.55 68.5q6.75.4 10.15-4.4l.35-.55q-.1 6.35 6.3 10.8l-1.65.2q-3 4.6-3.8 8.4l-3.95-.1h-.1q-7.35-4.05-8.6-10.35-.45-2.5 1.3-4M67.1 61q-.45 1.35-1.25 2.5-2.3 3.25-6.3 3.85 3.5-1.55 7-6.55l.55.2m-13.8 8.65-1.8 4.85v.4l1.4 3.1-1.6-.1-1.05-2.45q-.9-.65-.15-2.05l1.05-3.2h.1l2.05-.55m-11.75.9-.05.5v.05l-.05 3.05-.85-3-.25-.3-.35-.05-.35.2-.05.4.7 2.15q-1.05-1.2-1.05-3.45l2.3.45M79.9 94.2l-7.5-6.7.65-11.3q.65.5 2.25.9 1.85 10.2 4.65 17l-.05.1" fill="#802323"/><path d="m37.15 107.9 1.05-.5h12.6l3.5-.6-2 4.55-7.95-.5-7.2-2.95m21.4-4.65.6-1.75v-.4l-.7-3.9 2-7.05q3.1.35 5.8 1.2l-.6 9.15-4.6 7.45q-.7-3.5-2.5-4.7m18.9-47.35.4-.45q.25 1.3 1 3.1l.15.35q.9 6.1 1.4 13.6l.15 3.4.35 10.55q2.5 4.3 3.4 7.45l-1.2.25-.2-1.05V93l-.05-.15-.35-.45-.2-.1-3.35-7.25q.1-6.5-.25-13l-.1-1V71l-.15-2.45q-.1-7.2-1-12.65m-18.4 28.4-.5-3.05-.2-.45-2.65-2.5-.45-.2-1.2-.05-1.5-3.35 2-5.55 1.65-.65h.35q-1.75 1.5-1.3 4 1.25 6.3 8.6 10.35-2.95.2-4.8 1.45m-7.75-6.4-11.2-.65-2.3-7.45 1.45.3q0 2.25 1.05 3.45.65 1.75 1.25 1.6.95.05 1-4l.05-.5 8.55-.45-1.05 3.2q-.75 1.4.15 2.05l1.05 2.45M73 76.15l.05.05-.65 11.3 7.5 6.7-1.1 1.05-7.5-7.3q-.85-5.05.9-11.75l.8-.05" fill="#a7392b"/><path d="m60.45 90.15.9-3.2v-.3q3.65-.25 6.3.1l4.25 3.4.25.1h.05l.9.9-1.75 9.3-6.2 6.15 3.4-5.4.5-8.9-2.8-.95q-2.7-.85-5.8-1.2m28.15.95q-.7 1.15-1.9 1.9l.65-3.05q-3.3-2.85-4.1-4.75-2.15-3.5-2.7-9.3l-.15-3.4Q79.9 65 79 58.9q.95 2.1 2.6 4.85 5.1 9.85 7.5 17.4l-.5 9.95M76.85 57.4h-.1l-.35.2-.1.4q.8 5.8 1.2 11.65-1.9-2.2-2.95-5.3l.15-.2.05-.6v-.1l.2-.5q.25-3.15 1.4-5.4l.4-.75.1.6m.8 14.4.15 3.8-6.1-.3-.3.1-.1.25q-1.8 6.75-1.1 11.85l-2.05-1.65-.25-.1q-3.2-.45-7.8 0l-.35.2-.1.15-.4-.4-.2-1.4q1.85-1.25 4.8-1.45h.1l3.95.1q.8-3.8 3.8-8.4l1.65-.2q-6.4-4.45-6.3-10.8 3.05-4.95.7-12.1l3.45 1.7q-.7 6.75.4 10.25 3 5.8 6.05 8.4m-23.1-2.65.55-1.3.1.35.35.2.65.1-1.65.65m-11.95 1.5q.85-9.35 2.2-15.65h.05l.35-.5-.1-.6q1.35-5.75 3.15-8.65l.35-.05q9.15-3.55 16.75 3.5l.3.15Q68.9 56 67.1 61l-.55-.2q-3.5 5-7 6.55-1.8.3-3.85.05l-.4.1-.15.2.15-.4-.05-.4-.25-.25h-.4q-.2.05-.25.25l-1.05 2.75-2.05.55h-.1l-8.55.45m-4.8-.85-2.5-8.2 2.25-1.5 1.25 7 3.1.45-.35 3-2.3-.45-1.45-.3m16.3-19.7q-3.1 2.35-3.45 6.25v.05q-.05 6.8 6.35 8.85h.1q6.5.8 8.55-4.95v-.05q1.55-6.5-2.45-9.45-4-3-9-.75l-.1.05m21.2 27 2.55.4.05 7.65.05.25 3.4 7.3-1.4 1.4q-2.8-6.8-4.65-17" fill="#591d1d"/><path d="m37.85 59.85 5.75-3.95q-.95 4.55-1.6 10.6l-2.5-.15 1.35-1.5-1.65 1-1.35-6M62.5 53.8q-1.45-1.55-3.55-1.55-2.1 0-3.6 1.55-1.45 1.55-1.45 3.75t1.45 3.75q1.5 1.55 3.6 1.55t3.55-1.55q1.45-1.55 1.45-3.75T62.5 53.8m-7.8-2.85q4.35-1.95 7.85.65 3.45 2.65 2.1 8.4-1.75 4.95-7.4 4.25-5.6-1.85-5.55-7.8.25-3.45 3-5.5" fill="#27b4b6"/><path d="M62.5 53.8q1.45 1.55 1.45 3.75T62.5 61.3q-1.45 1.55-3.55 1.55-2.1 0-3.6-1.55-1.45-1.55-1.45-3.75t1.45-3.75q1.5-1.55 3.6-1.55t3.55 1.55" fill="#01fcff"/><path d="m70.05 41.2.3-.9.4-1.1.05-.05q1-.6 2-1.8l.65-.9q3.1-4.55 3.75-7.45l1.65-.4q-.4 3.25-4.15 8.7-2.2 3.2-4.65 3.9" fill="#291e2c"/><path d="M75 1.1q-2.65.1-5.9.95 1.4 6.25 1.75 11.15l.1 1.4q2.45 2.6 3.95 6.2l.05.4-.8 5.05-.65 3.2.45-.2q1.7-.85 3.4-1.35l1.45-.35.35-.05 2.8-4.15 3.7-5.45q.1-.2.3-.2l.05-.05.3.1.25.3-.1.4-6.55 9.8-.15.15-.2.05-.7.15-1.65.4-1.1.4-1.6.7q-.65.3-1.35.7-1 4.15-2.4 8.3v.1l-.4 1.1-.3.9q-3.2 8.8-8.25 17.6l-.2.25-.3.1q-21.1 3.45-27.85 6.2l-.75.5-.65-1.4-.05.05.05-.05.25-.15.05-.15 10.5-21.5.1-.1 26.4-29-.95-7.1-.85-4.15-5.7-.35-4.3.8-2.3 1.55q-10.8 7.25-19.9 14.85-9.2 10.55-16.1 20.45l-4.55 6.9-1.7-.2q8.4-13.5 21.25-28.2l.1-.1Q44.5 9.5 56.8 1.45l.2-.1Q62.2-.3 68.35.9l.3.1.1.1Q73.4-.15 76.7.05l.4.2.1.35-.15.35L77 1l-.35.1H75m-5.1 14.65-.25-.3-.25-.5-2.25 2.5L45.3 41.5l-1.55 1.7-8.25 16.95-1.05 2.15-.7 1.3q7.2-2.65 26.9-5.9l1.65-2.95q3.75-7.05 6.3-14.15l.25-.6q1.65-4.65 2.8-9.3v-.1l.05-.15q1.1-4.65 1.7-9.25-.85-2-2-3.6l-1.5-1.85M58.55 51.7l.7.55.9.7.1.25v.15l-.05.15-.25.15-.3-.1-11.15-8.9-.15-.25.1-.3h.05l.2-.15.3.1 9.55 7.65m-13.1-26.3.1-.1q.15-.2.35-.2h.15l-.6.3m.95-.6-.05-.25q0-.25.15-.35l.6-.55.1-.05 1.65-1.5Q58.3 13.6 62.8 8.45l.35-.45q.15-.15.35-.15l.35.1.2.35-.1.35q-3.7 4.4-11 11.15l-5.75 5.15-.4.15-.35-.2-.05-.1" fill="#3b1212"/><path d="m40.35 59.7-.3-.25.05-.4q.05-.2.25-.25l.05-.05 4.8-9.35.25-.2.3-.1.25.15 6.05 5.55.15.3-.1.3-.25.25-4 1.5-1.1.4-6.05 2.2-.3.05-.05-.1m6-8.8-.55-.45-2.65 5.2-1.35 2.6q.85-.3 1.75-.65l4.05-1.45q1.55-.6 3.15-1.15l-4.4-4.1" fill="#0b3474"/><path d="m55.25 4.3 2.3-1.55 4.3-.8q1.95 3.1.95 6.5-4.5 5.15-13.95 13.65L59 10.75q3.35-5.25 1.1-8.1L55.25 4.3m-35.4 38.45 6.6.2-.7 5.75 1.95 1.65-.85 1.3-.15.2q-7.25 8.85-15 22.1v.1L2.15 73Q5.85 60.9 14 47.65l1.35.15.2-.05.15-.1q2.25-3.1 4.15-4.9" fill="#fff"/><path d="M26.7 51.85 23 57.7l-.05.35.25.3.35.1.35-.25 4.6-7.2.4 11.1.1.2.05.1q-8.5 4.05-12.3 11.45l-3.9 2.05h-.5l-.6-1.85-.05-.1q7.75-13.25 15-22.1" fill="#957f98"/><path d="m19.85 42.75.65-.65 6.9-.15-.7 6.35.05.15.1.15 1.35 1-.5.75-1.95-1.65.7-5.75-6.6-.2M29.1 62.4l2.3 2.5q-8.35 5.5-14.65 8.95 3.8-7.4 12.3-11.45h.05M12.35 75.9Q4.5 75.55 1.7 74.6l.45-1.6 9.55 1.05h.05l.6 1.85" fill="#cfb2d2"/><path d="m14.7 46.5 4.55-6.9q8.8-10.8 15.15-17.15 3.85 2.3 6.9 2.9-2.95-3-4.2-5.65 3.05-3.5 7.2-7.2l5.75-3.65q2.2-.25 1.05 2.8-2 5.5-9 16-10.3 11.9-14.35 18.1l.45-4.2v-.2l-.15-.15-.25-.05-7.45.2-.25.1q-2.05 1.8-4.65 5.25l-.75-.2m52.45-29.05 2.25-2.5.25.5.25.3q-1.05 13.95-9.6 34.6l-.3.55-.75 1.35-.7-.55q-2.2-7.5-6.45-11.15 7.95-11.25 15.05-23.1M35.5 60.15l8.25-16.95 1.55-1.7 1.85 1.5-.2.7-.1.35-1.25 1.2-10.1 14.9" fill="#e15645"/><path d="M19.25 39.6q6.9-9.9 16.1-20.45 9.1-7.6 19.9-14.85l4.85-1.65q2.25 2.85-1.1 8.1L48.85 22.1l-1.65 1.5-.1.05-.6.55q-.15.1-.15.35l.05.25-.35.3h-.15q-.2 0-.35.2l-.1.1q-9 11.65-16.85 23.55l-1.1-.8.25-2.4q4.05-6.2 14.35-18.1 7-10.5 9-16 1.15-3.05-1.05-2.8L44.3 12.5q-4.15 3.7-7.2 7.2 1.25 2.65 4.2 5.65-3.05-.6-6.9-2.9-6.35 6.35-15.15 17.15M69.9 15.75l1.5 1.85q.4 11.45-11.1 32.75 8.55-20.65 9.6-34.6M45.3 41.5l21.85-24.05q-7.1 11.85-15.05 23.1 4.25 3.65 6.45 11.15L49 44.05l-.3-.1-.2.15-1.35-1.1-1.85-1.5m-29.85 5.2-.25.3-.75-.1.25-.4.75.2" fill="#ff7548"/><path d="M75 1.1q.3 2.45 0 5.15v.15q-1.25 6.75-4.15 6.8-.35-4.9-1.75-11.15 3.25-.85 5.9-.95m-6.6 5.35.95 7.1-26.4 29-.1.1-10.5 21.5-.05.15-.25.15-.05.05-2.35-2.6-.45-12 .05-.05q7.95-12.1 17.15-23.9l.1-.4-.2-.35-.25-.1.35-.3.05.1.35.2.4-.15 5.75-5.15q11.5-6.5 15.45-13.35m3 11.15q1.15 1.6 2 3.6-.6 4.6-1.7 9.25l-.05.15v.1q-1.15 4.65-2.8 9.3l-.25.6q-2.55 7.1-6.3 14.15l-2.05-1.4v-.15l-.1-.25-.9-.7.75-1.35.3-.55q11.5-21.3 11.1-32.75M34.45 62.3l1.05-2.15 10.1-14.9 1.25-1.2.1-.35 1.25 1.9q3.8 4.85 9.25 9.35-4.6.75-9.6 2.25v-.05l4-1.5.25-.25.1-.3-.15-.3L46 49.25l-.25-.15-.3.1-.25.2-4.8 9.35-.05.05q-.2.05-.25.25l-.05.4.3.25v.1q-2.9 1.1-5.9 2.5" fill="#a7392b"/><path d="M70.85 13.2q2.9-.05 4.15-6.8v-.15q.3-2.7 0-5.15h1.65L77 1q5.45 2.4 7.85 6L76.8 25.05l-2.65 1.2.8-5.05-.05-.4q-1.5-3.6-3.95-6.2l-.1-1.4m-9-11.25 5.7.35.85 4.15Q64.45 13.3 52.95 19.8q7.3-6.75 11-11.15l.1-.35-.2-.35-.35-.1q-.2 0-.35.15l-.35.45q1-3.4-.95-6.5m.45 52.8-1.65 2.95q-19.7 3.25-26.9 5.9l.7-1.3q3-1.4 5.9-2.5h.05l.3-.05 6.05-2.2 1.1-.35q5-1.5 9.6-2.25-5.45-4.5-9.25-9.35l-1.25-1.9.2-.7 1.35 1.1h-.05l-.1.3.15.25 11.15 8.9.3.1.25-.15.05-.15 2.05 1.4" fill="#802323"/><path d="m74.15 26.25 2.65-1.2L84.85 7Q87.8 11.4 86 17.65l-.05.05q-.2 0-.3.2l-3.7 5.45q-1.3.9-2.95 2.7-3.25 1.5-5.05 3.2l-.45.2.65-3.2" fill="#591d1d"/><path d="m76.1 29.4 1.1-.4q-.65 2.9-3.75 7.45l-.65.9q2.35-5 3.3-7.95m5.85-6.05-2.8 4.15-.35.05-1.45.35q-1.7.5-3.4 1.35 1.8-1.7 5.05-3.2 1.65-1.8 2.95-2.7" fill="#ca7de7"/><path d="m74.5 30.1 1.6-.7q-.95 2.95-3.3 7.95-1 1.2-2 1.8l-.05-.05q3.2-5.7 3.75-9" fill="#36363e"/><path d="M70.75 39.1q1.4-4.15 2.4-8.3.7-.4 1.35-.7-.55 3.3-3.75 9" fill="#55545f"/><path d="m43.15 55.65 2.65-5.2.55.45 1.25 5.25-4.05 1.45-.4-1.95" fill="#01fcff"/><path d="m46.35 50.9 4.4 4.1q-1.6.55-3.15 1.15l-1.25-5.25m-2.8 6.7q-.9.35-1.75.65l1.35-2.6.4 1.95" fill="#27b4b6"/><path d="m13 46.3 1.7.2-.25.4.75.1.25-.3q2.6-3.45 4.65-5.25l.25-.1 7.45-.2.25.05.15.15v.2l-.45 4.2-.25 2.4 1.1.8q7.85-11.9 16.85-23.55l.6-.3.25.1.2.35-.1.4q-9.2 11.8-17.15 23.9l-.05.05.45 12L32 64.5l.05-.05.65 1.4-.05.05q-11.6 7.65-19.25 11.45l-.4.1Q3.1 77.1.45 75.75l-.4-.35-.05-.55Q3.7 61.5 12.75 46.8l.25-.5m14.7 4.05.5-.75-1.35-1-.1-.15-.05-.15.7-6.35-6.9.15-.65.65q-1.9 1.8-4.15 4.9l-.15.1-.2.05-1.35-.15Q5.85 60.9 2.15 73l-.45 1.6q2.8.95 10.65 1.3h.5l3.9-2.05q6.3-3.45 14.65-8.95l-2.3-2.5-.1-.1-.1-.2-.4-11.1-4.6 7.2-.35.25-.35-.1-.25-.3.05-.35 3.7-5.85.15-.2.85-1.3" fill="#443747"/></g><g id="j" fill-rule="evenodd"><path d="m7.5 12.5-1.15-.75-.1-.2q-.05-.15.05-.25v-.05l.15-.7-.05-.05Q2.05 6.7.05 3.15L0 2.85l.1-.25L2.3.15l.2-.1h.2Q6.7.7 8.85 1.6l.4-.8.1-.15h.2l2.55.5.1.05h.2l1.3.25.15.05.05.1.3.45 3.65.05.35.15.1.25h.05l.2.1.1.25-.15 3.65 1.05.7q3.05-3.15 8.7-6.75l.2-.05 2.5.5.2.1.05.1 3.5 2.75.05.15v.2L30.9 15.15l-.15 2.75-.05.15-.1.1-4.65 2.9-.05.05-7.35 3.25h-.15l-5.25-.3-.2-.1-.05-.15-.95-4.6-.15-.45-.05-.15-.2-.95-.2-.65-.7-2.35-1.25-.85-.4-.25-.6-.45-.25-.15-.65-.45M13.45 2l-1.15-.2h-.05l-.05.05-.05.2h1.35L13.45 2m-2.2.05h.25l.1-.35-1.9-.4-2.8 5.9.1.15.2.9q1.1-2.7 3.65-6L11 2.1l.25-.05m-3.95 0Q5.5 1.45 2.8 1L1.05 2.95 1.7 4l1.2 1.65L4.7 7.6l2 1.95.1-.35-.1-.15-.3-1.55v-.15l-.1-.15.05-.2L7.8 3.85l.65-1.4-1.15-.4m13.05 8.6 7.2-2.85 2.9-6.4-1.6-.3-.35-.05-1.95 1.3h-.05L24.7 3.6q-2.95 2.2-4.9 4.2l-.2.1-.15-.05h-.05L18 6.9l-.1-.1-.05-.15L18 3.3l-3.5 6.8-.15.15-.2-.05-.1-.05V9.9l1.6-3.05 1.2-2.35.15-.3.6-1.15h-2.45L11.45 3Q7.9 7.7 7.3 11.05l5.2.1.2.1-.2-.25-.05-.15.1-.1h.1l.1.05.15.2.1.15.15.1.2.15 2.55 2.1 1.25 1 .1.15-.05.2-.15.05-.2-.05-.05-.05v.05l1.5 8.9h.05l7.3-3.25 4.45-2.8.15-2.65.05-.05.15-.45L34.1 4.2 31 1.75 28.05 8.2l-.15.15-10.95 4.25-.6.25h-.25l-.15-.1v-.05l-.05-.2.05-.05.15-.15 2.55-1 1.7-.65m-3.9 3.9L12.9 11.6l-.1-.15v-.05h-.05l.05.1-.1.2-.25.1-5.1-.15 3.75 2.55.1.15.1.3 1.15 4.05.05.3.95 4.45 4.4.25-1.55-8.9.05-.15.1-.1M14 10.25l.05.15-.1.1-.1.05-.75.5H13l-.1-.05v-.15l.05-.1.85-.55h.1l.1.05" fill="#3b1212"/><path d="m7.5 12.5.65.45q0 2.8.95 4.25.85 1.2 2.35 1.35l.3.05.05.15.15.45q-2.25 0-3.35-1.65-1.15-1.65-1.1-5.05m20.15.1v.05q.05 4-1.3 5.6-.75.85-1.4 1-.7.2-1.3-.45l-.05-.05q-1.2-2.1.85-6.85h.05q.6-1.2 1.4-1.35l.5.05q.9.05 1.25 2m-.65.25v-.2q-.25-1.3-.7-1.45h-.05q-.65-.1-1.2.95-1.25 2.85-1.25 4.6 0 1 .3 1.65l.55.25h.15q.2-.1.45-.25l.6-.55q1.05-1.3 1.15-4.25v-.75m-1.95-.7v.05-.05" fill="#291e2c"/><path d="M13.45 2.05h-1.3l.05-.2.05-.05h.05l1.15.2v.05M7.8 3.85 6.35 7l-.05.2.1.15v.15l.3 1.55.1.15-.1.35-2-1.95q.2-.4.55-.45l1.55-2.9 1-.4M28.85 1.1l1.6.3-2.9 6.4-7.2 2.85q1.4-.7 2.85-1.3l2.95-1.4.6-1.75.05-.05q.85-2.55 1.8-4.35l.25-.7m-10.2 10.2-2.55 1-.15.15-.05.05.05.2v.05l-.05.75-2.55-2.1.5-.85.1-.05.1-.1-.05-.15.05-.1.1.05.2.05.15-.15L18 3.3l-.15 3.35.05.15.1.1 1.4.95h.05q-.85 2.4-.8 3.45m-7.35 3.35q2.55.2 5.05 0l-.05.15 1.55 8.9-4.4-.25L12.5 19l-.05-.3-1.15-4.05" fill="#a7392b"/><path d="m15.95 12.75.15.1h.25l.6-.25 8.95-2.05 4.7-1.45-.15 5.45-.15.45-.05.05-.15 2.65-4.45 2.8-7.3 3.25h-.05l-1.5-8.9h.05l.2.05.15-.05.05-.2-.1-.15-1.25-1 .05-.75m-4.65 1.9-.1-.3-.1-.15-3.75-2.55 5.1.15.25-.1.1-.2-.05-.1h.05v.05l.1.15 3.55 2.95-.1.1q-2.5.2-5.05 0m16.35-2.05q-.35-1.95-1.25-2l-.5-.05q-.8.15-1.4 1.35h-.05q-2.05 4.75-.85 6.85l.05.05q.6.65 1.3.45.65-.15 1.4-1 1.35-1.6 1.3-5.6v-.05" fill="#802323"/><path d="m8.15 12.95.25.15q0 2.3 1.05 3.55l2 1.9q-1.5-.15-2.35-1.35-.95-1.45-.95-4.25m16.9-.8q.55-1.05 1.2-.95h.05q.45.15.7 1.45v.2q-.6 0-1.65 1.85-.6 1.05-.75 2.15l-.8-.1q0-1.75 1.25-4.6" fill="#55545f"/><path d="m8.4 13.1.6.45q.1 3.2 2.55 4.1l.2.95-.3-.05-2-1.9Q8.4 15.4 8.4 13.1m16.25 5.55-.55-.25q-.3-.65-.3-1.65l.8.1q-.15.9.05 1.8" fill="#36363e"/><path d="m9 13.55.4.25q.25 2.25 1.95 3.2l.2.65q-2.45-.9-2.55-4.1m18-.7v.75q-.55.2-1.2 1.45-.75 1.5-.55 3.35-.25.15-.45.25h-.15q-.2-.9-.05-1.8.15-1.1.75-2.15 1.05-1.85 1.65-1.85" fill="#0b3474"/><path d="m9.4 13.8 1.25.85.7 2.35q-1.7-.95-1.95-3.2m17.6-.2q-.1 2.95-1.15 4.25l-.6.55q-.2-1.85.55-3.35.65-1.25 1.2-1.45" fill="#27b4b6"/><path d="m7.3 2.05 1.15.4-.65 1.4-1 .4-3.9 1.4L1.7 4l5.6-1.95M12.9 11l-.15-.2-.1-.05h-.1l-.1.1.05.15.2.25-.2-.1-5.2-.1Q7.9 7.7 11.45 3l3.7.05-3.2.2-1.8 3.15q3.1-1.55 6.85-2.2l-.15.3q-2.55.75-7.55 3.25l-.85 1.7.6.25 1.15.3 1.7.55.4-.4.55-.4.55-.3.6-.55.8-1.15.85-.9-1.6 3.05v.25l-.05.1-.1-.05h-.1l-.85.55-.05.1V11m13.65-8.65 1.95-1.3.35.05-.25.7q-.95 1.8-1.8 4.35l-.05.05-.95 1.05q1.1-1 1.15-3.05.05-1.45-.4-1.85" fill="#fff"/><path d="m1.7 4-.65-1.05L2.8 1q2.7.45 4.5 1.05L1.7 4m3 3.6L2.9 5.65l3.9-1.4-1.55 2.9q-.35.05-.55.45m8.65 3.8-.2-.15-.15-.1-.1-.15.1.05h.1l.75-.5-.5.85m1.8-8.35h2.45L17 4.2q-3.75.65-6.85 2.2l1.8-3.15 3.2-.2m1.7 1.45-1.2 2.35-.85.9L14 8.9l-.6.55-.55.3-.55.4-.4.4-1.7-.55-1.15-.3-.6-.25.85-1.7q5-2.5 7.55-3.25m7.85-.9 1.8-1.25h.05q.45.4.4 1.85-.05 2.05-1.15 3.05l.95-1.05-.6 1.75-2.95 1.4-4 1.5 6-3.45q-1.25-.8-.5-3.8" fill="#ff7548"/><path d="M11.25 2.05 11 2.1l-.15.15q-2.55 3.3-3.65 6l-.2-.9-.1-.15 2.8-5.9 1.9.4-.1.35h-.25m9.1 8.6-1.7.65q-.05-1.05.8-3.45l.15.05.2-.1q1.95-2 4.9-4.2-.75 3 .5 3.8l-6 3.45 4-1.5q-1.45.6-2.85 1.3" fill="#e15645"/><path d="M16.95 12.6 27.9 8.35l.15-.15L31 1.75l3.1 2.45-3.65 10.35.15-5.45-4.7 1.45-8.95 2.05" fill="#591d1d"/></g><g id="k" fill-rule="evenodd"><path d="m36.15 34.4-4.75-2-.4-.4-.05-.15q-8.2-5.25-15.1-11.15Q7 13.1.15 4.45L0 4.1l.15-.35L3.75.3l.3-.15.5-.15q13.2.7 36.2 10.7l.1.05Q52.95 17.55 65 24.9l1.2 2.5q-13-7.95-26.05-15.25-22.65-9.9-35.7-10.6l-.4-.1L1.5 3.9l-.3.25q6.95 8.7 15.95 16.35 6.6 5.5 14.3 10.45L32 31l7.4 3.1-3.25.3m-26-29.95-.1.15-.15.05-6.85-.3-.2-.05-.1-.15.1-.2q.05-.1.15-.1h.3l6.65.25.15.1.1.2-.05.05" fill="#3b1212"/><path d="m36.15 34.4 3.25-.3.7-.1 6.3-2.55 18.9.3 1.9-1.2.05-.05-.8-2.5-.25-.6-1.2-2.5q11.2 6.75 22.35 14.05 20.5 13.05 43 29.55l.3.45-.1.55-.5.35-8.1 2.2h-.5Q74.6 50.55 36.15 34.4M123.7 70l4.45-1.2Q106.4 52.9 86.5 40.25v-.05L67.05 27.95l.8 2.8-2.4 1.8h-1.2l-9.3.05-8.5-.25-6.05 2.15q30.75 13 66.75 29.3l14.7 6.7 1.85-.5" fill="#443747"/><path d="m123.7 70-1.85.5-14.7-6.7q-10.6-7.7-24.45-15.4L54.95 32.6l9.3-.05h.3q13 6.25 38.1 21.85 8.9 5.25 21.05 15.6" fill="#fff"/><path d="M107.15 63.8q-36-16.3-66.75-29.3l6.05-2.15 8.5.25L82.7 48.4q13.85 7.7 24.45 15.4" fill="#cfb2d2"/><path d="M64.55 32.55h.9l2.4-1.8-.8-2.8L86.5 40.2v.05q19.9 12.65 41.65 28.55L123.7 70q-12.15-10.35-21.05-15.6-25.1-15.6-38.1-21.85" fill="#957f98"/><path d="m33.75 12.25.1.05.5.2 26.5 17.75-14-.6q-9-12.5-21.8-18.95l8.7 1.55" fill="#a7392b"/><path d="M39.4 34.1 32 31l-.55-.05Q23.75 26 17.15 20.5q2.7-.7 1.85-3.95-1.65-4.85-6.25-9.75 6.4 2.4 11.75 3.75l.55.15q12.8 6.45 21.8 18.95l14 .6 6.35.3-1.9 1.2-18.9-.3L40.1 34l-.7.1" fill="#802323"/><path d="M17.15 20.5q-9-7.65-15.95-16.35l.3-.25L3 3.85q-.1 0-.15.1l-.1.2.1.15.2.05 6.85.3.15-.05.1-.15.8.2q10.1 2.8 22.8 7.6l-8.7-1.55-.55-.15Q19.15 9.2 12.75 6.8q4.6 4.9 6.25 9.75.85 3.25-1.85 3.95" fill="#591d1d"/><path d="m1.5 3.9 2.55-2.45.4.1q13.05.7 35.7 10.6Q53.2 19.45 66.2 27.4l.25.6.8 2.5-.05.05-6.35-.3-26.5-17.75-.5-.2-.1-.05q-12.7-4.8-22.8-7.6l-.8-.2.05-.05-.1-.2-.15-.1-6.65-.25H3l-1.5.05" fill="#e15645"/></g><g id="l" fill-rule="evenodd"><path d="m36.2 69.65 1.05-1.3.35.1 2.15-1.15 1.75-1.1 1.1-.7 2.45-1.8.9-2.3.9-2.15.8-.7.05.05 1.55-.65 3.75-1.6 1.3-3.7.9-3.25q.45-2.2.35-3.65-.05-1.9-.7-3.5Q53.6 39 50.2 37l.05-1.15h.6l.1-.05H52l-.15.05h.6l1.15 1.05h-1.65q4.4 3.2 4.65 8.8.2 3.6-2.75 11.2l-.25.3-5.35 2.3-.1.1-.3.2h-.1l-1.8 4.45-.15.2L42 67.1l-3.85 2.2.25 1 .05.05h.05l7.3 1.75 3.15-6.7.05-.15.25-.3 7.15-5 1.65-3.55.05-.2q.75-3.25.85-6.5.2 3.1-.4 6.75l.75 1h-.05v.05l-.2.4.2 1.1.25 2.4-.1 3.1-.05.2q-1.75 2.65-5.1 4.9l-.15 2.35 1.35.3 1.75.4 1.55.35q.15.05.3.2l.1.3-.1.35-2.2 2.55-.3.15-.35-.05-.1-.05-1.7-.95-1.3-.7-3.85-.25-.7 13.7 1.35 1.2.55-.3.5-.3 2-1.1.15-.1 8.05-12.15 1 1.3-7.85 11.85-.25.2-3.85 2.2-.45.1-.45-.2-2.05-1.8-.2-.25-.05-.35.75-14.6q.05-.3.25-.5l.5-.2 1.4.2v.15h.85l.85.05 1.3.1h.35l1.3.65 1.8 1 1.35-1.6-2.5-.55-.6-.15-1.1-.25-.25-.05-.15-.2-.1-.3.25-3.05.1-.25.15-.15q2-1.3 3.45-2.8l1.45-1.8q.25-2.15-.1-4.75l-.65 1.25-.25.35-7.1 4.95-1.95 4.1-1.65 3.45-.15.05-.5.1-8.45-2.05-.35-.2-.2-.35-.3-1.15-.55-.35m6.85-27.35-2.25.1-.25-.2-29.8-24.25-.15-2.15 30.6 24.95 1.2.95.15.15.5.45m-4.4.25-1.5.1L35 40.9 12.25 22.3l-1.3-1.05-.1-1.4 1.4 1.15L36.2 40.55l2.45 2" fill="#443747"/><path d="M36.2 69.65q-7.1-4.65-8.3-13.4l-.05-.15L.2 21.75l-.2-.5L1.05.75 1.3.2l.55-.2.5.25.2.6.05.05 7.65 12 .15.4.2 2.5.15 2.15.1 1.9.1 1.4.05.75v.2l24.25 20.55 1.9-.1 1.5-.1 2.05-.1-.15-.25.25.2 2.25-.1 2.4-.15.25.05.2.2.05.3q-.5 4.4-2.65 10.4l.15 1.05.2 1.6h.25l.2.05 3.55 2.75-.8.7-3.15-2.45-7.95 2.45h-.35l-5.8-2.35.4 1.8.55 1.75.35.9q2 4.3 6.2 7.05h.05l.1-.05-1.05 1.3m5-28.9q3.45-3.8 6.55-4.8l2-2.25.4-.25 16.5-.55.1.05q6.2 1.35 12.4 4 .15.05.3.2Q82 40.2 83.2 47l-.05.45q-2.5 5.2-6 9.85l-.15.15-2 1.5-.5 9.35-.05.3-.2.25-7.9 6.6-2.45 2.3-.55.25-.4-.15-.1-.1-.2-.3-.05-.15-.4-.6-.05.1-1-1.3.1-.1-.6-.85-1-1.4-.1-.3.3-4.8.15-2.25.05-1.05.05-.2.15-.15.25-.2 2.8-2.3q-1.7-2.35-3.55-4l-.4-.4-.1-.05h.05l-.75-1q.6-3.65.4-6.75v-1.25q0-2.65-.4-5.3-.9-2.9-3.95-6.25h-1l-1.15-1.05H54l-1.65-.15-.35.1h-1.05l4.1.1.15.15.15.15.1.1q3.2 3.55 4.05 6.6l.05.05.05.5.05.35q.9 6.1-.5 12.3l.25.15q2.6 2.05 5 5.45l.1.2v.15l-.15.35-3.3 2.65v.4l-.45 7.3 1.5 2.1.35.1.35.5v.3l.4.6 1.6-1.5.45-.5h.05v-.05l.25-.2L73 67.85l.5-9.35.1-.35.2-.25 2.2-1.6q3.25-4.4 5.65-9.3-.85-4.55-2.35-7.25l-.9-1.45-.8-.35-1.2-.5-1.35-.45q-4.25-1.6-8.55-2.55h-.1q-7.05-.65-11.85-.2l-3.85.65-.8.95h.35L50.2 37l-.15-.1h-1.1l-.25.25-.35.2q-2.8.9-5.95 4.35l-1.2-.95m7.3 32.5h.05l.25.05q-.35-.75-1.35-1.15l-.55 1.15-.2.3 1.65-3.45-.45 1.1q.7.25 1.2.65v.05q.7.6.8 1.5l-1.4-.2M39.8 43.5l-4.7.3-.35-.1-24.7-20.9-.3-.2-.25-.5v-.05l-.65-8.45-4.3-6.7-2.1-3.35-.6 12.1-.15 2.2-.1 2.6-.05.55 27.3 33.9.2.25v.05l.25.35.1.2 1.5.6 4.7 1.9 7.05-2.2-.4-2.95q-.05-.15.05-.25 1.7-4.8 2.4-8.5l.15-1.15-.4.05-4.65.25m-1.4 26.8.1.05h-.05l-.05-.05m14.7 2.3.15.2.25.05 1.1.25-.6 1 .4.2.15.1-1.3-.65h.05l.2.1h.05l.5-.85-.55-.15h-.1l-.15-.05-.15-.15v-.05m8.5-6.95.1-.1.35-.1 1.3.25.3.2.1.35L63.1 72l-.05.25-.2.15-.3.15-.6.25-.4.05-.3-.3-.05-.4.3-.25.65-.25.55-5.05-.85-.15-.3-.25-.05-.35.1-.2" fill="#3b1212"/><path d="m30 58.7-.4-1.8 5.8 2.35h.35l7.95-2.45 3.15 2.45-.9 2.15-3.55-2q-3.4 1.65-5.8 1.85-3.45-.5-6.6-2.55M4.55 6.9l4.3 6.7.65 8.45v.05l.25.5.3.2 24.7 20.9.35.1 4.7-.3q1.15 1.7.25 3.5-2 3.4-3.65 3.1h-.1Q14.8 30.5 3.9 15.45q.05-3.45.65-8.55M55.2 49.4l-.9 3.25-.7.6-.45.3q-2.7.6-4.85-.5-2.4-1.2-1.45-7.35l.25-1.35q2.4 5.55 7.25 3.2l.85 1.85m10.05 24.95-.45.5q-.85-1.3-2.25-2.3l.3-.15.2-.15.05-.25.65-5.75-.1-.35-.3-.2-1.3-.25-.35.1-.1.1-.55-.2v-.4l3.3-2.65.15-.35v-.15q1.5.25 2 .65l.05.05q-.8 1.45-2.55 3.25 0 2.8-.65 6.45 1.3 1 1.9 2.05M64.45 39q-.55.4-.5.95.05.5.7.65l1.2.25 2.3.55 4.5 1.2 1.45-.35q.45-.45.3-1.3-.15-.9-1-1.35-.9-.4-2.95-.7l-3.15-.4-1.25-.05h-.15q-.95.1-1.45.55M62 51.6l.25-3.15q1.55-5.55-.85-11.1l6.15.05q2.75.2 6.05 1.25 3.8 3.4 6.8 9.45v.2l-.05.05q-6.6 6.9-15.4 4.8L62 51.6" fill="#e15645"/><path d="m39.8 43.5 4.65-.25q-1.4 2.65-6 6.5l-.25.1-1.35.5h-.05l-.1.05h-.25l-2.4-1.05q-8.2-6.15-13.2-12-11.25-11.85-19-21.7l.6-12.1 2.1 3.35q-.6 5.1-.65 8.55Q14.8 30.5 36.3 50.1h.1q1.65.3 3.65-3.1.9-1.8-.25-3.5m15.05-1.25q.65 1.6.7 3.5.1 1.45-.35 3.65l-.85-1.85q-4.85 2.35-7.25-3.2l.4-3.55q.55 1.9 2.3 1.8 1.7-.3 1.85-2.35 1.65.2 3.2 2M75.05 37l1.35.45 1.2.5q2.4 5 2.8 10.15-3-6.05-6.8-9.45-3.3-1.05-6.05-1.25l-6.15-.05q2.4 5.55.85 11.1L62 51.6l-.3-.2-.15-4-.1-.75q.15-8.6-3.25-11.1l11.6.35 5.25 1.1m-10.6 2q.5-.45 1.45-.55h.15l1.25.05 3.15.4q2.05.3 2.95.7.85.45 1 1.35.15.85-.3 1.3l-1.45.35-4.5-1.2-2.3-.55-1.2-.25q-.65-.15-.7-.65-.05-.55.5-.95m-11.3 14.55q-2.15 1.35-5.3.6-2.7-1.1-1.95-6.4l.05-.3q.5-.2.9-1.75-.95 6.15 1.45 7.35 2.15 1.1 4.85.5" fill="#ff7548"/><path d="m44.45 43.25.4-.05-.15 1.15q-3.75 4.05-6.25 5.4 4.6-3.85 6-6.5M1.7 17.85l.15-2.2q7.75 9.85 19 21.7 5 5.85 13.2 12-4.1-2.25-10.2-8Q11.15 29.1 1.7 17.85M50.2 37q3.4 2 4.65 5.25-1.55-1.8-3.2-2-.15 2.05-1.85 2.35-1.75.1-2.3-1.8l-.4 3.55-.25 1.35q-.4 1.55-.9 1.75.75-4.3.45-6.7l-3.85 1.1-.15-.15q3.15-3.45 5.95-4.35l.35-.2.25-.25h1.1l.15.1M38.4 70.3l-.25-1L42 67.1l3.8-2.65.15-.2 1.8-4.45h.1l.3-.2.1-.1 5.35-2.3.25-.3q2.95-7.6 2.75-11.2-.25-5.6-4.65-8.8h1.65q2.1 2.15 3.75 6.15l.05.1q.5 3.1 0 7.05-.9 4.85-1.8 7.15l-.4.2q-1.5.75-5.45 1.95l-2.15 5.15q-4.5 3.55-9.1 5.7l-.1-.05m12.05 18.85-.55.3-1.35-1.2.7-13.7 3.85.25 1.3.7q-2.95 4.5-3.95 13.65" fill="#fff"/><path d="m43.45 54.15-.15-1.05q2.15-6 2.65-10.4l-.05-.3-.2-.2-.25-.05-2.4.15-.5-.45 3.85-1.1q.3 2.4-.45 6.7l-.05.3q-.75 5.3 1.95 6.4 3.15.75 5.3-.6l.45-.3.7-.6-1.3 3.7-3.75 1.6q-1.65-2.1-5.8-3.8m-12.55 2.2-1.5-.6-.1-.2-.25-.35v-.05l-.2-.25q-4-8.05-11.55-16.7Q9.45 27.9 1.6 20.45l.1-2.6q9.45 11.25 22.15 23.5 6.1 5.75 10.2 8l2.4 1.05h.25l-1.25.25q2.3.3 5.5-1.5-.2 3.95.4 6.3L35.6 57.4l-4.7-1.05m21.55-20.5h-.6l.15-.05.35-.1 1.65.15h-1.55m-1.5-.05-.1.05h-.95l.8-.95 3.85-.65q5.85 4 6.9 12.4l.1.75.15 4 .3.2 2.95 1.55q6.85 3 12.25.15l-1.5 2.1q-1.9.75-3 1.75-.5 5.8-.5 10.45-5.95 5.2-6.65 6.5l-.25.2v.05h-.05q-.6-1.05-1.9-2.05.65-3.65.65-6.45 1.75-1.8 2.55-3.25l-.05-.05q-2.4-4.85-5.6-7.25.75-8.4-1.25-11.5l-.05-.35-.05-.5-.05-.05q-.85-3.05-4.05-6.6l-.1-.1-.15-.15-.15-.15-4.1-.1m26.65 2.15.8.35.9 1.45q1.25 4.2 1.7 7.5l-.6 1v-.15q-.4-5.15-2.8-10.15M31.35 61.4q4.55 1.8 6.7.8 1.45-1.05 3.1.35 1.5 1.2 1.45 2.95l-1.1.7-1.75 1.1q-1.3.2-2.55-.35-2.35-1.55-5.85-5.55" fill="#a7392b"/><path d="m37.25 68.35-.1.05h-.05q-4.2-2.75-6.2-7.05l-.35-.9.8.95q3.5 4 5.85 5.55 1.25.55 2.55.35l-2.15 1.15-.35-.1m-8.4-13.45L1.55 21l.05-.55Q9.45 27.9 17.3 38.2q7.55 8.65 11.55 16.7m31.8 19.65.6.85-.1.1-8.05 12.15-.05-.05 7.6-13.05m18.65-34.8q1.5 2.7 2.35 7.25-2.4 4.9-5.65 9.3l-2.2 1.6-.2.25-.1.35-.5 9.35-7.45 6.25q.7-1.3 6.65-6.5 0-4.65.5-10.45 1.1-1 3-1.75l1.5-2.1.05-.1 3.1-4.85.05-.05v-.05l.6-1q-.45-3.3-1.7-7.5" fill="#ca7de7"/><path d="m40.55 42.2.15.25-2.05.1-2.45-2 1.1-.3-25.05-19.7V21l-1.4-1.15-.1-1.9 29.8 24.25m-3.4.45-1.9.1L11 22.2V22l-.05-.75 1.3 1.05-.05.3q9.95 7.95 21.65 18.6l1.15-.3 2.15 1.75m22.7 25.4-.3 4.8.1.3 1 1.4-7.6 13.05-.1.15-2 1.1q1-7.6 5.15-12.4l.1.05.35.05.3-.15 2.2-2.55.1-.35-.1-.3q-.15-.15-.3-.2l-1.55-.35.1-2.3 2.55-2.3m-21.35 2.3q4.6-2.15 9.1-5.7l2.15-5.15q3.95-1.2 5.45-1.95-1.6 1.25-4.85 2.3l-1.4 5.4v.15l-3.15 6.7-7.3-1.75" fill="#957f98"/><path d="M12.25 21v-.45l25.05 19.7-1.1.3L12.25 21M35 40.9l-1.15.3Q22.15 30.55 12.2 22.6l.05-.3L35 40.9m25.5 23.3-.25.2-.15.15-.05.2L60 65.8l-4.5 4.55-.05 1.9-1.35-.3.15-2.35q3.35-2.25 5.1-4.9l.05-.2.1-3.1.95-.15.05 2.95" fill="#cfb2d2"/><path d="M30.55 60.45 30 58.7q3.15 2.05 6.6 2.55 2.4-.2 5.8-1.85l3.55 2-.9 2.3-2.45 1.8q.05-1.75-1.45-2.95-1.65-1.4-3.1-.35-2.15 1-6.7-.8l-.8-.95m17.1-1.9L44.1 55.8l-.2-.05h-.25l-.2-1.6q4.15 1.7 5.8 3.8l-1.55.65-.05-.05m-2.95-14.2q-.7 3.7-2.4 8.5-.1.1-.05.25l.4 2.95-7.05 2.2-4.7-1.9 4.7 1.05 5.75-1.95q-.6-2.35-.4-6.3-3.2 1.8-5.5 1.5l1.25-.25.1-.05h.05l1.35-.5.25-.1q2.5-1.35 6.25-5.4m20.1 30.5-1.6 1.5-.4-.6v-.3l-.35-.5-.35-.1-1.5-2.1.45-7.3.55.2-.1.2.05.35.3.25.85.15-.55 5.05-.65.25-.3.25.05.4.3.3.4-.05.6-.25q1.4 1 2.25 2.3m-.3-12.95-.1-.2q-2.4-3.4-5-5.45l-.25-.15q1.4-6.2.5-12.3 2 3.1 1.25 11.5 3.2 2.4 5.6 7.25-.5-.4-2-.65m.45-8.75q8.8 2.1 15.4-4.8l-3.1 4.85-.05.1q-5.4 2.85-12.25-.15" fill="#802323"/><path d="m48.35 70.15 1.95-4.1 7.1-4.95.25-.35.65-1.25q.35 2.6.1 4.75l-1.45 1.8q.3-1.7.1-2.45-3.2 1.95-7.6 7.8l-.1.1-.25.4q-.5-.4-1.2-.65l.45-1.1m6.85 3.1 2.5.55-1.35 1.6-1.8-1-.15-.1.8-1.05m-1.95.5h-.35l.55-.85.05-.05.55.15-.5.85h-.05l-.2-.1h-.05" fill="#36363e"/><path d="M56.95 66.05q-1.45 1.5-3.45 2.8l-.15.15-.1.25L53 72.3l.1.3v.05l.15.15.15.05.05.05-.55.85-1.3-.1q.3-2.4-2.15-2.25 4.4-5.85 7.6-7.8.2.75-.1 2.45M54.6 73.1l.6.15-.8 1.05-.4-.2.6-1" fill="#8d8c94"/><path d="m51.6 73.65-.85-.05-.85-.15q-.1-.9-.8-1.5v-.05l.25-.4.1-.1q2.45-.15 2.15 2.25" fill="#a5a2bc"/><path d="m59.35 57.5.4.4q1.85 1.65 3.55 4l-2.8 2.3-.05-2.95-.95.15-.25-2.4-.2-1.1.2-.4h.1m.65 8.3-.15 2.25-2.55 2.3-.1 2.3-1.75-.4.05-1.9L60 65.8m-5.6 9.7 1.7.95q-4.15 4.8-5.15 12.4l-.5.3q1-9.15 3.95-13.65" fill="#655268"/><path d="M54.55 34.25q4.8-.45 11.85.2h.1q4.3.95 8.55 2.55l-5.25-1.1-11.6-.35q3.4 2.5 3.25 11.1-1.05-8.4-6.9-12.4" fill="#fffbfb"/><path d="M53.6 36.9h1q3.05 3.35 3.95 6.25.4 2.65.4 5.3v1.25q-.1 3.25-.85 6.5l-.05.2-1.65 3.55-7.15 5-.25.3h-.05l1.4-5.4q3.25-1.05 4.85-2.3l.4-.2q.9-2.3 1.8-7.15.5-3.95 0-7.05l-.05-.1q-1.65-4-3.75-6.15" fill="url(#K)"/><path d="m57.25 61-.2.15-.6.35-.2.15v.25l-2.3 1.6-.5.35-2.05 1.4-.3.2-.1.45-.45 1.95-.2.75-.05.1-.15.2-.4.1-.35-.25-.05-.4.85-3.55q0-.2.15-.3l6.15-4.2.4-.05.3.2.1.4-.05.15" fill="#291e2c"/><path d="M56.25 61.9v-.25l.2-.15.6-.35.2-.15q.3 3.45-1.75 5.9l-.35.15-1.65.5-3.2 1.15.05-.1.2-.75 1.1-.4 3-1.1.05-.15q1.2-1.45 1.5-3.35v-.15l.05-.8" fill="#116092"/><path d="M56.2 62.85q-.3 1.9-1.5 3.35l-.05.15-3 1.1.3-.95.45.05q.8 0 1.35-.55t.55-1.35l-.1-.65 2-1.15m-2.7 1.6-.35.75q-.4.4-.9.4l.1-.5 1.15-.65" fill="#04ffe5"/><path d="m51 65.9.1-.45.3-.2.1.05q.35.25.75.3.5 0 .9-.4l.35-.75v-.15l-.05-.45.5-.35.25.5.1.65q0 .8-.55 1.35t-1.35.55l-.45-.05-.9-.5-.05-.1" fill="#fff"/><path d="M50.55 67.85 51 65.9l.05.1.9.5-.3.95-1.1.4m.85-2.6 2.05-1.4.05.45v.15l-1.15.65-.1.5q-.4-.05-.75-.3l-.1-.05m2.55-1.75 2.3-1.6-.05.8v.15l-2 1.15-.25-.5" fill="#0a90bc"/></g><g id="m" fill-rule="evenodd"><path d="m73.45 41.3-2.2 3.5-7.8 11.8-8.35 12.2-7.6 10.85v-.05q-9.8 17.55-7.55 40.1l.05.4.15 1.55h-.05v1.25l-.5.3-.3-.05q-.25.1-.45.25h-.05Q19.6 132.15.95 136.3l-.6-.15-.3-.45q-.1-.35.1-.6l.05-.1.05-.1Q5.6 115.4 14.8 92.05l.1-.1Q48.7 36.35 83.4 7l.2-.45.55-.2.5.2.25.55v.15q.95 7.45-.8 15.8l-.1.2Q80.25 30.5 73.45 41.3m33.55 52v.7l2.55.95.25.3v.4l-.25.25h-.4l-2.8-1.1-.25-.2-.1-.25-.95-26.2.05-.2.1-.2 1.15-1.1q.15-.15.35-.15l.35.15.15.35-.15.4-.95.9.15 4.65.75 20.35m7.35 1.2-3.25-1.6-.2-.2-.05-.25-.6-27.05.05-.2.1-.2 1.8-1.75.35-.2.35.2.15.35-.15.35-1.65 1.65.15 5.3.45 20.05v1.15l2.35 1.15.7.35.25.3v.4l-.3.25-.4-.05h-.1m2.4-10.75.05 6.25 1.8.3h.05l.3.2.05.4-.2.35-.25.05h-.1l-2.25-.4-.3-.2-.15-.3-.2-27.65.05-.2.1-.15 2.9-2.7q.15-.15.35-.15l.4.2.1.35-.15.35-2.75 2.5.05 5.65.15 15.15M83.6 15.1v-.15q.15-3.1-.1-6.1-34 29.25-67.25 83.75-9 22.75-14.3 41.9l8.75-2.3q7.4-2.1 14.95-4.95l8.7-3.55.5-.2 3.55-1.6.25-.1-.05-.25-.1-.75q-2.6-23.65 7.7-41.95l.05-.1 17.9-25.9 2.6-3.95 2.7-4.15.65-1.05 1.5-2.35q7.15-11.25 10.95-18.7.85-3.85 1.05-7.55" fill="#443747"/><path d="M73.45 41.3q35.35-25.15 66.85-40l.3-.1q2.15-.2 5.65 1.2l8.7-2.35.55.05.35.4v.55q-2.25 6-2.35 8.35l-.05.3-.2.25-28 24.85q13.4 1.8 12.5 17.2v.05l-4.1 41.15q-.05 8.95-8.35 11.3l-3.5 1 1.05.5 22.65-1.85h.15l.5.1.35.5-.15.6-2.7 4.1-.4.3q-15.45 5.45-38.8 10.9l-.15.05-65.2 2.7h-.25q.2-.15.45-.25l.3.05.5-.3v-1.05l8.5-.35 55.55-2.35q22.3-5.25 37.35-10.45l1-.35 1.7-2.55-1.25.1-20.2 1.65-.35-.05-3.8-1.75h-.15v-.05l-7.5-3.45-1.95.55-68.5 18.75-.05.1h-.3L40 120.1l-.05-.4q7.45-10.05 21.1-21.85 7.15-6.25 16-12.95 11.5-8.75 25.8-18.3l.95-.6 8.1-21.25.2-.3 38.5-34.2L152 9q.15-2.25 1.9-7.05l-7.5 2h-.5q-3.15-1.3-5.05-1.2-32.75 15.5-69.6 42.05l2.2-3.5m45.55-.95-1.6 1.4q4.8 1.2 5.8 10.2 1.25 14.25-.85 42.55-.15 5.15-3.85 8.85l-.45.45 1.6.75 5.25-1.5q7.2-2.1 7.2-9.9v-.1l4.1-41.15q.35-5.65-1.45-9.3l-.25-.45q-2.95-5.35-10.75-6l-4.75 4.2m-9.75 15.6L105.1 66.8l-.25.35q-12.2 8.1-22.35 15.55-12.65 9.35-22.1 17.75-11.6 10.2-18.4 19.1l68.7-18.8.3-.05.4.1 5.05 2.3.55.25q4.1-3.65 4.35-8.85v-.05q2.1-28.2.8-42.4-.9-8.75-5.75-9.4l-1.55 1.45-1.6 1.35-3.4 9-.6 1.5M38.5 120.8l.1.75.05.25-.25.1.05-.1.15-.25-.1-.25v-.5" fill="#3b1212"/><path d="M71.25 44.8q36.85-26.55 69.6-42.05 1.9-.1 5.05 1.2h.5l7.5-2Q152.15 6.75 152 9l-1.4 1.25-3.45 2.55-.95.3Q98.3 28.15 63.45 56.6l7.8-11.8M119 40.35l4.75-4.2q7.8.65 10.75 6l.25.45.15 1.3q-3 2.9-10.15 6.35-1.65-7.4-5.75-9.9" fill="#e15645"/><path d="M63.45 56.6Q98.3 28.15 146.2 13.1q-43.65 15.65-91.1 55.7l8.35-12.2" fill="#ff7548"/><path d="m150.6 10.25-38.5 34.2-.2.3L103.8 66l-.95.6q1.5-9.55 8.25-21.8 17-16.4 29.3-26.55l6.75-5.45 3.45-2.55m-9.1 98.45q-15.05 5.2-37.35 10.45L48.6 121.5l56.4-5.35q6.95.25 14.85-2.15 11.4-3.3 21.65-5.3m-6.75-66.1q1.8 3.65 1.45 9.3l-4.1 41.15v.1q0 7.8-7.2 9.9l-5.25 1.5-1.6-.75.45-.45 4-1.35 5.5-1.9q2.1-1.1 4.25-15.85 2.05-17.05 2.65-27.6.45-8.45 0-12.75l-.15-1.3" fill="#ca7de7"/><path d="M61.05 97.85q-13.65 11.8-21.1 21.85-2.25-22.55 7.55-40.1v.05l7.6-10.85q47.45-40.05 91.1-55.7l.95-.3-6.75 5.45Q111.05 32.3 79.65 55.9q-11.7 14.35-18.6 41.95m-20.9 23.8h.3l.05-.1L109 102.8q5.5 2.65 12.6 8.5l21.35-5.4 1.25-.1-1.7 2.55-1 .35q-10.25 2-21.65 5.3-7.9 2.4-14.85 2.15l-56.4 5.35-8.5.35v-.2h.05m78.35-18.3q3.7-3.7 3.85-8.85 2.1-28.3.85-42.55-1-9-5.8-10.2l1.6-1.4q4.1 2.5 5.75 9.9 7.15-3.45 10.15-6.35.45 4.3 0 12.75l-8.1 4.4q.25 17.75-3.25 38L122.5 102l-4 1.35" fill="#802323"/><path d="M102.85 66.6q-14.3 9.55-25.8 18.3-8.85 6.7-16 12.95 6.9-27.6 18.6-41.95 31.4-23.6 60.75-37.65-12.3 10.15-29.3 26.55-6.75 12.25-8.25 21.8m6.15 36.2 1.95-.55 7.5 3.45v.05h.15l3.8 1.75.35.05 20.2-1.65-21.35 5.4q-7.1-5.85-12.6-8.5m13.5-.8 1.05-2.95q3.5-20.25 3.25-38l8.1-4.4q-.6 10.55-2.65 27.6Q130.1 99 128 100.1l-5.5 1.9" fill="#a7392b"/><path d="M82.5 82.7q10.15-7.45 22.35-15.55l.25-.35 4.15-10.85 10.55-4.1-.5-1.85q-1.45-4.15-4.45-5.9l1.55-1.45q4.85.65 5.75 9.4 1.3 14.2-.8 42.4v.05q-.25 5.2-4.35 8.85l-.55-.25q1.3-4.55 2-10.85l-2.6.1q-1.4-.25-1.35-1.35l-1.05-21.1-2.05 1-.15-5.3 1.65-1.65.15-.35-.15-.35-.35-.2-.35.2-1.8 1.75-.1.2-.05.2.6 27.05.05.25.2.2 3.25 1.6q-.85.95-2.5 0-2.65-.65-3-3.35l-.9-18.8-1.7.6-.15-4.65.95-.9.15-.4-.15-.35-.35-.15q-.2 0-.35.15l-1.15 1.1-.1.2-.05.2.95 26.2.1.25.25.2 2.8 1.1h.4l.25-.25v-.4l-.25-.3L107 94v-.7q2.9.85 3.6 3.25-.9.75-3.85-.55-2.15.5-2.4-.9-.95-11.15-.45-21.1l-21.4 8.7m34.1-14.1-.05-5.65 2.75-2.5.15-.35-.1-.35-.4-.2q-.2 0-.35.15l-2.9 2.7-.1.15-.05.2.2 27.65.15.3.3.2 2.25.4h.1l.25-.05.2-.35-.05-.4-.3-.2h-.05l-1.8-.3-.05-6.25.4 6.05h1.55q.85-9.4.5-22.2l-2.6 1m-2.4 24.65-2.35-1.15v-1.15l.35.55q1.8.85 2 1.75" fill="#655268"/><path d="m82.5 82.7 21.4-8.7q-.5 9.95.45 21.1.25 1.4 2.4.9 2.95 1.3 3.85.55-.7-2.4-3.6-3.25l-.75-20.35 1.7-.6.9 18.8q.35 2.7 3 3.35 1.65.95 2.5 0h.1l.4.05.3-.25v-.4l-.25-.3-.7-.35q-.2-.9-2-1.75l-.35-.55-.45-20.05 2.05-1L114.5 91q-.05 1.1 1.35 1.35l2.6-.1q-.7 6.3-2 10.85l-5.05-2.3-.4-.1-.3.05-68.7 18.8q6.8-8.9 18.4-19.1 9.45-8.4 22.1-17.75M119.3 50l.5 1.85-10.55 4.1.6-1.5L119.3 50m-2.55 33.75-.15-15.15 2.6-1q.35 12.8-.5 22.2h-1.55l-.4-6.05M83.6 15.1q-.2 3.7-1.05 7.55-3.8 7.45-10.95 18.7-13.05 2.85-20.55 13 9.45-5.5 15.7-5.45l-2.6 3.95q-26 8.55-37.75 35.65-3.1 15.15 1 25l7.45 10-.5.2-8.1-8.2q-3.7-4.8-3.55-16.75-3.95 16.65-.35 23.05l3.3 5.45q-7.55 2.85-14.95 4.95 1.9-17.8 11.3-38.6 21.25-44.55 61.6-78.5" fill="#957f98"/><path d="m10.7 132.2-8.75 2.3q5.3-19.15 14.3-41.9Q49.5 38.1 83.5 8.85q.25 3 .1 6.1v.15Q43.25 49.05 22 93.6q-9.4 20.8-11.3 38.6" fill="#fff"/><path d="M114.85 44.1q3 1.75 4.45 5.9l-9.45 4.45 3.4-9 1.6-1.35M71.6 41.35l-1.5 2.35-.65 1.05-2.7 4.15q-6.25-.05-15.7 5.45 7.5-10.15 20.55-13m-7.45 11.5-17.9 25.9-.05.1q-10.3 18.3-7.7 41.95v.5l.1.25-.15.25-.05.1-3.55 1.6-7.45-10q-4.1-9.85-1-25 11.75-27.1 37.75-35.65m-29.8 70.85-8.7 3.55-3.3-5.45q-3.6-6.4.35-23.05-.15 11.95 3.55 16.75l8.1 8.2" fill="#cfb2d2"/></g><g id="n" fill-rule="evenodd"><path d="m42.15 42.1 1.25-1.35q.1-.15.3-.15 4.25-.55 8.5 0l5.5-6.6.1-.5.45-.35.2-.05 1.65-1.95 3.1-3.65.1-.15q9.95-11.7 16-16.6v-.05l1.15-.95.1-.05q6.4-2.85 10.95-4.3l.65-.2.75-.25.4.1.2.3v.35l-.3.25Q89.4 7 84.15 9.25l.75 1.4.05.25-.05.2q-3.2 6.5-8.75 14.55l-.05.05q-1.7 1.85-4.85 3.45l-.3.05-7.15-.9-2.9 3.5-1.5 1.75.1.05q4.35 2.55 7.1 5.7l.6.65.2.2.2-.25q6.85-6 12-11.55 14.5-18.8 16.95-26.7l-.7.1h-.4l-5.4.7Q72.6 4.75 55.7 10.3q-7.95 3.4-14.95 7.9l-2.7 1.8-.6.45-.3.1-2.75.55-.55.9-3.35 5.2-.05.05-3.6 4.4-4.2 10.85-2.8 7.1q1.95 1.15 2.6 2.85-1.7-1.75-2.85-2.25-6.95 9.2-11.95 17.4l-2.35 4-.05.1q-.6.75-1.25 2.05l-.15.4-.95 2.3-.15.5V77q-1 3.4-1.15 6.05 4.65-.65 9.6-2.05l.15-.05q5.05-1.4 10.3-3.55l8.05-8.3.05-.05.05-.05.05-.05.3-.35V58.4l.1-.2q3.95-7.3 11.6-15.75l.3-.35M56.4 76.05v.1l-.05.2-.4.4-.6-.05L50 74.25q-7.85.7-11.85.2l-.45-.25-4.15-4.75-2.8.8-8.1 8.35-.25.15Q11.05 83.4.85 84.65l-.4-.05-.35-.3-.1-.4q.05-3.1 1.25-7.35v-.05q1.4-4.1 2.8-5.75 5.65-10 14.3-21.4L25.45 31l.1-.2 3.65-4.45L33.3 20q.2-.3.5-.35l2.95-.55q8.5-6 18.4-10.25h.05Q75.95 2.1 97.45.05L97.5 0h.35l.55.2.2.55-.2.55-.2.15Q96.15 9.4 80.85 29.3l-.05.05q-5.35 5.75-12.55 12l-.05.05.75 1.2.5.95q4 7.85 8.75 9.95l.4.45v.55l-.3.35-.15.05h-.6q-5.15-2.25-9.45-10.7h-.05l-1.45-2.5q-2.9-3.9-8.1-6.9l-.05-.05-5.2 6.2.05.15.05.15L55.7 51.9v.35l-.15.3L44 67.6l-.55.3h-.25l-4.15.1-3.85 1v.05l3.45 3.9q3.95.45 11.4-.25l.4.05 5.55 2.6.35.4.05.3m25.3-61.1 2.15-4.05-.6-1.25-2.25 1h-.05l-.9.75-3.75 8.5-.1.15L74 22.5l-2.9 3.2-.2.1-.25.05-4.2-.6-1.85 2.15 5.05.6 1.3.15q2.85-1.45 4.4-3.15l6.35-10.05M70.55 24.8l4.85-5.4 2.85-6.45q-4.5 4-10.95 11.35l3.25.5M52.1 42.85l-.25-1.25q-3.95-.5-7.85 0l-1.8 2q-7.2 8-11 14.95v9.55l.3.2.05.05.05.05 1.9-.5.2-.05 5.1-1.4h.15l4.05-.1.6-.8L54.1 51.9l-2-9.05" fill="#3b1212"/><path d="m35.2 69 3.85-1 4.15-.1h.25l.55-.3 11.55-15.05.15-.3v-.35l-2.35-10.65-.05-.15-.05-.15 5.2-6.2.05.05q5.2 3 8.1 6.9l1.45 2.5h.05q4.3 8.45 9.45 10.7h.6l.15-.05q1.8 2.45 1.6 5.5-1.45 6.85-6.35 11.45-5.95 4.85-12.65 4.8h-.5q-4.15-1.25-10.4-4.7l-11.35.15Q36.7 69.8 35.2 69m16.9-26.15 2 9.05-10.5 13.65q-2.15-.65-6.3-.1-4.8.65-6.1 1.95v-8.85q3.8-6.95 11-14.95-3.25 4.9-5.9 10.8 8.25-4.75 15.8-11.55" fill="#36363e"/><path d="M30.15 66.2v2.4l-.3.35-.05.05-.05.05-.05.05-8.05 8.3q-5.25 2.15-10.3 3.55l10-4.7 3.5-4 5.3-6.05m65.7-64.45.7-.1q-2.45 7.9-16.95 26.7-5.15 5.55-12 11.55l-.2.25-.2-.2L69.55 38l9.15-9.1Q91.05 13.3 95.15 3.5l.15-.3.55-1.45M56.4 76.05l-.05-.3-.35-.4-5.55-2.6-.4-.05q-7.45.7-11.4.25l-3.45-3.9V69q1.5.8 3.45 3.05L50 71.9q6.25 3.45 10.4 4.7l-4-.55m-12.8-10.5-.6.8-4.05.1h-.15l-5.1 1.4-.2.05-1.9.5-.05-.05-.05-.05-.3-.2v-.7q1.3-1.3 6.1-1.95 4.15-.55 6.3.1" fill="#ca7de7"/><path d="m42.2 43.6 1.8-2q3.9-.5 7.85 0l.25 1.25q-7.55 6.8-15.8 11.55 2.65-5.9 5.9-10.8" fill="#55545f"/><path d="M7.65 67.6q5-8.2 11.95-17.4 1.15.5 2.85 2.25-1.8-1.2-2.95-1.4L7.65 67.6m15-25.1 4.2-10.85 3.6-4.4.05-.05 3.35-5.2q-.2 1.2-1.4 3.9 2.55.3 8.05 2.8 10.55-4.3 19.9-6.4-8.35 3.2-14.5 5.95l-.55.25q-1.75.8-3.3 1.55-.2 7.95-11.4 23.7l-.1.1q8.6-16.25 8.85-20.95-2.4-3.15-8.25-3.5l-3.95 4.65q-2.45 5.3-4.55 8.45m67.4-40.05 5.4-.7q-12.5 5-22 11.35 4.1-4.15 16.6-10.65" fill="#fff"/><path d="m92.15 5.2-.65.2q-4.55 1.45-10.95 4.3l-.1.05-1.15.95v.05q-6.05 4.9-16 16.6l-.1.15-3.1 3.65-1.65 1.95-.2.05-.45.35-.1.5-5.5 6.6q-4.25-.55-8.5 0-.2 0-.3.15l-1.25 1.35Q43.4 36.8 44 30.85q5.65-2.15 12.4-6.45-5.75 2.75-10.5 3.85 6.15-2.75 14.5-5.95l.45-.15 2.4-.9q4.4-4.15 9.75-7.8.25-.2.45-.35 9.5-6.35 22-11.35h.4L95.3 3.2l-.15.3-3 1.7m-80.8 75.75-.15.05q-4.95 1.4-9.6 2.05.15-2.65 1.15-6.05v-.05l.15-.5L4 76q10.5-4.25 19.25-13.5l.05.05q-4.9 5.6-9.9 9.6Q20.85 67.6 28 59.9q-3.85 6.75-3.15 12.35l-3.5 4-10 4.7" fill="#a7392b"/><path d="m42.15 42.1-.3.35Q34.2 50.9 30.25 58.2l-.1.2v7.8l-5.3 6.05q-.7-5.6 3.15-12.35-7.15 7.7-14.6 12.25 5-4 9.9-9.6l.7-.85 1.7-1.85 2-2.15.7-.8 2.15-3.05.1-.1q11.2-15.75 11.4-23.7 1.55-.75 3.3-1.55l.55-.25q4.75-1.1 10.5-3.85-6.75 4.3-12.4 6.45-.6 5.95-1.85 11.25M93.2 5.95l.3-.25v-.35l-.2-.3-.4-.1-.75.25 3-1.7q-4.1 9.8-16.45 25.4L69.55 38q8.4-8.05 22.1-30.5v-.05q1.55-.85 1.55-1.5m-11.5 9L75.35 25q-1.55 1.7-4.4 3.15l-1.3-.15L74 22.5l2.2-2.45.1-.15q2.9-3.1 5.4-4.95" fill="#802323"/><path d="m67.2 39.95-.6-.65q-2.75-3.15-7.1-5.7l-.1-.05 1.5-1.75 2.9-3.5 7.15.9.3-.05q3.15-1.6 4.85-3.45l.05-.05Q81.7 17.6 84.9 11.1l.05-.2-.05-.25-.75-1.4Q89.4 7 93.2 5.95q0 .65-1.55 1.5v.05Q77.95 29.95 69.55 38l-2.35 1.95m9.1-20.05 3.75-8.5.9-.75H81l2.25-1 .6 1.25-2.15 4.05q-2.5 1.85-5.4 4.95M69.65 28l-5.05-.6 1.85-2.15 4.2.6.25-.05.2-.1 2.9-3.2-4.35 5.5m.9-3.2-3.25-.5q6.45-7.35 10.95-11.35L75.4 19.4l-4.85 5.4" fill="#591d1d"/><path d="M4 73.75q.65-1.3 1.25-2.05l.05-.1 2.35-4L19.5 51.05q1.15.2 2.95 1.4-.65-1.7-2.6-2.85l2.8-7.1q2.1-3.15 4.55-8.45l3.95-4.65q5.85.35 8.25 3.5-.25 4.7-8.85 20.95L28.4 56.9l-.7.8-2 2.15L24 61.7l-.75.8Q14.5 71.75 4 76q5.45-2.55 13.4-11.15l8-9.1q-.65-.35-1.55-1.55l-1.7-1.65Q13.6 62.2 4 73.75M33.85 22l.55-.9 2.75-.55.3-.1.6-.45 4.4-.6q7.1.7 9.5 2.65l.55 1.25q4.85-2 12.05-3.6 2.95-4.85 8.1-8.6l-10.75.6q-12.4 3.25-21.15 6.5 7-4.5 14.95-7.9 16.9-5.55 34.35-7.85-12.5 6.5-16.6 10.65-.2.15-.45.35-5.35 3.65-9.75 7.8l-2.4.9-.45.15q-9.35 2.1-19.9 6.4-5.5-2.5-8.05-2.8 1.2-2.7 1.4-3.9m-6.9 31.85q1-1.75 2.4-3.2-1.25-.45-3.35-2.7l-2.15 2.5q1.75 1.5 3.1 3.4" fill="#ff7548"/><path d="m2.9 76.45.95-2.3.15-.4q9.6-11.55 18.15-21.2l1.7 1.65q.9 1.2 1.55 1.55l-8 9.1Q9.45 73.45 4 76l-1.1.45M38.05 20l2.7-1.8q8.75-3.25 21.15-6.5l10.75-.6q-5.15 3.75-8.1 8.6-7.2 1.6-12.05 3.6l-.55-1.25q-2.4-1.95-9.5-2.65l-4.4.6m-11.1 33.85q-1.35-1.9-3.1-3.4l2.15-2.5q2.1 2.25 3.35 2.7-1.4 1.45-2.4 3.2" fill="#e15645"/><path d="m43.5 68.7.4.5q.15.25.5.3l.45-.1-.5 1.1.45 1 .15.25q1.3 2.45 3.7 5.6v.05l.1.1 7.35.65h2.45Q78.4 71.25 86.8 65.4l.95-.7.25-9.65-3.5-6.35-1-1.8-2.35-.4-.45-1.15 1.55.3.2.05 1.45.25.2.05.2.2.5.95 1.7 3.05.65 1.25L89 54.7l.05.25-.25 8.3-.05 1.75-.05.2-.15.15-1 .75q-8.4 6-28.75 13.05l-.2.05-7.05-.25.9.9.5.45q3.15 1.75 9.65 2.9l1.2-.1q10.6-1.2 20.1-9.1 2.25-2.2 3.9-4.85 3.2-5.2 4.35-12.35l.35-2.85-3.4-5.35v-2.65l.25.25 4.85 7.5.1.5-.15 1.8 8.25 6 .25.3q2.7 6 3.75 11.35v.1q.35 6.4-2.5 13.5l-.05.15q-1.8 2.9-4.1 4.85l-.75-1.4q1.95-1.7 3.45-4.15l.05-.05q2.65-6.7 2.35-12.8-.85-4.55-3.05-9.65l-.45-1.1-4.5-3.25-3.7-2.65-.9 4.2Q90 69.6 84.6 74.75l-.05.05q-5.75 4.8-11.9 7.2-4.9 1.85-10 2.2h-.1l-1.3-.25-5.6-1.4 1.9 7.55q4.25 4.35 12.55 7.95l2.9 1.2q2.65.95 4.9 1.1l2.2-.05 1.05 1.4q-3.7.75-8.65-.95l-.05-.05Q61.4 96.45 56.3 91l-.15-.35-1.95-7.6q-2.6-1.6-3.9-3.2l-1.9-.55-.4-.25-.6-.8q-3.3-4.4-4.6-7.45l-.1-.35.1-.3.7-1.45M82 51.2l.1-.4.3-1.35v-.05l.2-.3.4-.1.35.2.05.4q-.75 3.85-1.9 5.9l-.15.15Q61.45 67.6 49.2 72h-.4l-2.75-1-.3-.3v-.4q.05-.2.3-.25l.35-.05 2.6 1 1.15-.45q11.95-4.5 30.5-15.7l.45-.9.45-1.2.3-.95.15-.6" fill="#3b1212"/><path d="m43.5 68.7-7.2-9.65-.15-.4-.1-5.65.05-.3.15-.25L42.7 46l.3-.2.35-.05 2 .15.65-2.75.15-.25.25-.2 7.7-4.05q-1.1-1.3-1.35-3.15v-.15l-.05-.1q-.15-.3 0-.6l.4-.4 6.55-2.65h-.05l7-3.4.25-.05 8.1-.5.4.05.25.25q.95 1.25 2.95 2.45l2.35-.75.4-.05.35.2 7.2 6.45.2.25.05.3v14.05l-.25.5-.55.25-.5-.25-.15-.15-.1-.35v-13.7l-6.6-5.9-1.85.65 1.5.65.25.2.1.25-.1.3v.05l-.4.6-.55.8q-1.35 1.85-2.55 2.6l.05.05.85 2.05 2.45 5.9.45 1.15 1.2 2.9.05.05-.3 1.35-.1.4-.3-.75-6.35-15.3L75 35l-.15-.05-3.5-1.3-1.45.9-.7.4-6.1 3.6-.8 3.7-.1.2.5 1q4.15 8.75 7.4 14.15l.5.2.3.1 1 .35.3.25v.4l-.25.25-.35.05-2-.65-.1-.05-.2-.15v-.05l-.15-.05-2.05-1-.3.1q-1.6.6-3 1.3-2.65 1.3-4.7 2.85l-.15.1-.85 2.25-.3.25.1.15.1.25v.15l-.15.3-.4.1h-.3l-1.35-.2-.25-.1h-.25l-1.9-.55-.35.2-1.05.7-.5.3-3.35 2.15-.6.4-.4.1-.35-.25q-.1-.2-.05-.4l.2-.3 4.4-2.8 1.1-.75.55-.35.2-.1.25.05.7.2-6.7-11.5h-.15l-1.7-.7-1.7-.65v.05l-.45.4-4.7 4.5v4.3l6.05 8.15 3.8.95.35-.3 3.15-2.2.65-.4.95-.7.75-.5.4-.05q.2 0 .3.2l.1.35-.2.35-.7.45-.95.7-.65.45-3.2 2.2-.55.4-.2.1h-.2l-3.4-.85-.25.3-.1.05-.45.1q-.35-.05-.5-.3l-.4-.5m16.7-32.6.1-.15q2.2-2.3 6.5-3.9 3.55-1.7 5.85-1.25l.25.1 2 2.1q.15-1.5-.5-3.8l-7.3.5-6.8 3.3h-.05l-5.95 2.45.25.95q.4 1 1.25 1.8h.55l.55.2.05.05h.3l.25.05 2.6 1.3.05-3.5.05-.2m12.65-2.95 1.2.45-.45-.6-1.25-1.25q-2.05-.3-5.1 1.2l-.05.05q-3.95 1.45-6 3.5l-.1 3.6.05.1.15.35.05.05.15.4.65-2.85.05-.2.15-.15 8.7-5.1.25-.1.2.05 1.35.5m3.25 1.25.1.15.75 1.85q1.25-.9 2.7-3.15-2.1-.9-3.8-2.2.25 1.95-.2 3.15l.25.1.2.1M79.8 51l2.05.8-.3.95-1.15-.45-1.05-.4-2.1 1.15-.15.1h-.05L71.4 55.5l-.4 1.25-.25.25-.15.05h-.25l-.3-.25-.05-.4.55-1.4.1-.2.15-.15 5.85-2.45-.05.05.15-.1 2.35-1.25.2-.05.2.05.3.1m-23-11.4-.45.1h-.95l-.5.3-7.5 3.9-.6 2.5.65 2.3.4-3.25.1-.25.2-.15q3.35-2 7.2-3.5l1.5-.55h.25l.9.25 2.8.65-.35-.75-3.25-1.65h-.3l-.1.1m2.1 2.9-1.9-.45-1.35.5q-3.2 1.25-6.1 2.9l-.7.35-.65 5-.05.2 6.9 11.85.9.9.15.1 1.15.15-.1-.15v-.4l.9-2.35.15-.25q2.2-1.65 5.05-3.05l3-1.35.7-.25.2-.05.2.05 1.05.5q-3.1-5.4-7-13.6l-2.5-.6m-15.25 6.9.35.05 1.1.4 1.8.7-.85-3.05h-.2l-1.75-.15-.55-.05-.25.3-4 3.95-1.7 1.75.1 5.05.05.1v-3.2l.05-.2.1-.2.45-.45 5.05-4.85q.1-.1.15-.1l.1-.05" fill="#291e2c"/><path d="M99.75 92.25q14.85 27.65 18.2 40.2l-.1.6-.4.35-.6-.05q-18.9-9.6-35.7-31.65l-1.05-1.4-1.2-1.6-.15-.3q-1.1-5.5-1.35-16 0-.25.15-.45.1-.15.35-.25l.4-.05q10.1 1.4 19 6.4l.3.3.15.3 1.25 2.2.75 1.4m-20.75-9q.25 9.55 1.25 14.7 14.15 19.35 29.8 29.7l2.8 1.7 3.1 1.8-2-5.8-.15-.4q-4.7-12.05-15.45-32l-.5-.95-1.5-2.7q-1.3-.75-2.7-1.4Q86.7 84.5 79 83.25" fill="#443747"/><path d="m75.9 72.5.15-.1 4.15-1.7q4.75-1.75 7.6-1.55-1.65 2.65-3.9 4.85-9.5 7.9-20.1 9.1 2.6-5.8 11.45-10.3l.65-.3M79 83.25q7.7 1.25 14.65 4.65l2.05 3.3-.7.1q-1.25 1.2-.15 3.45 11.25 16.65 18 34.6l-2.8-1.7q-8.65-16.6-31.05-44.4" fill="#655268"/><path d="m87.65 51.2.15.15.5.25.55-.25.25-.5V48.6l3.4 5.35-.35 2.85q-1.45 2.25-3.35 6.45l.25-8.3-.05-.25-1.85-3.25.5-.25m-35.2 28.65-.9-.9 7.05.25.2-.05Q79.15 72.1 87.55 66.1l-.95 2.35q-3.25 1.05-6.4 2.25l-4.15 1.7-.15.1-.6.25h-.05q-7.15 3.2-13.65 7.35l-9.15-.25m57.6 47.8q-15.65-10.35-29.8-29.7-1-5.15-1.25-14.7 22.4 27.8 31.05 44.4" fill="#cfb2d2"/><path d="m87.55 66.1 1-.75.15-.15.05-.2.05-1.75q1.9-4.2 3.35-6.45Q91 63.95 87.8 69.15q-2.85-.2-7.6 1.55 3.15-1.2 6.4-2.25l.95-2.35m-23.75 17-1.2.1q-6.5-1.15-9.65-2.9l-.5-.45 9.15.25q6.5-4.15 13.65-7.35v.05Q66.4 77.3 63.8 83.1m50 41.85.15.4 2 5.8-3.1-1.8q-6.75-17.95-18-34.6-1.1-2.25.15-3.45l.7-.1v.1q3.95 6.75 10.45 20.25 4.45 8.9 7.65 13.4" fill="#957f98"/><path d="m75 35 .35.15 6.35 15.3q-2.25-2.3-6.8-15.3L75 35m5.85-1.65v-.05l.1-.3-.1-.25-.25-.2-1.5-.65 1.85-.65 6.6 5.9v13.7l.1.35-.5.25-.65-1.25q.4-6.35 0-12.4l-5.65-4.45M101.8 64.2q2.2 5.1 3.05 9.65.3 6.1-2.35 12.8l-.05.05q-1.5 2.45-3.45 4.15l-1.25-2.2q6.2-8.4 6.15-15l-2.1-9.45m-8.15 23.7q1.4.65 2.7 1.4l1.5 2.7.5.95q10.75 19.95 15.45 32-3.2-4.5-7.65-13.4-6.5-13.5-10.45-20.25v-.1l-2.05-3.3" fill="#ca7de7"/><path d="M60.7 69.6q2.3-1.8 5.6-3.4 2.35-1.15 4.55-1.9 8.85-2.8 15.95 1.1-8.4 5.85-28.25 12.75H56.1l-.55-1Q56.4 73 60.7 69.6m17.2 30.75q-8-11.2-5.15-17.8l-.1-.55q6.15-2.4 11.9-7.2l.05-.05Q90 69.6 92.25 61.4q2.2-1.35 4.6-1.55l4.5 3.25.45 1.1 2.1 9.45q.05 6.6-6.15 15l-.15-.3-.3-.3q-8.9-5-19-6.4l-.4.05q-.25.1-.35.25-.15.2-.15.45.25 10.5 1.35 16l.15.3 1.2 1.6-2.2.05" fill="#802323"/><path d="m49.05 73.55.55.2q4.3-1.15 11.1-4.15-4.3 3.4-5.15 7.55l.55 1-7.35-.65-.1-.1v-.05q-2.4-3.15-3.7-5.6l4.1 1.8m21.8-9.25q6.75-3.65 12.1-8.55l.55-.5.15-.15.7-6.1.15-.3 3.5 6.35-.25 9.65-.95.7q-7.1-3.9-15.95-1.1m-.75 33.75-6.55-5.35q-.4-4.85-2.3-8.75l1.3.25h.1q5.1-.35 10-2.2l.1.55q-2.85 6.6 5.15 17.8-2.25-.15-4.9-1.1l-2.9-1.2m26.75-38.2q-2.4.2-4.6 1.55l.9-4.2 3.7 2.65" fill="#a7392b"/><path d="m44.85 69.4.1-.05.25-.3 3.4.85h.2l.2-.1.55-.4.35.5 2.2-1.45q-1.35 1.15-1.95 2.1L49 71l-2.6-1-.35.05q-.25.05-.3.25v.4l.3.3 2.75 1h.4q12.25-4.4 32.15-16.35l.15-.15q1.15-2.05 1.9-5.9l-.05-.4L83 49l-.4.1-.2.3h-.05l-1.2-2.9 2.35.4 1 1.8-.15.3-.7 6.1-.15.15-.55.5q-14.4 10.4-33.9 17.8l-4.1-1.8-.15-.25-.45-1 .5-1.1m16.4 14.55q1.9 3.9 2.3 8.75l6.55 5.35q-8.3-3.6-12.55-7.95l-1.9-7.55 5.6 1.4" fill="#e15645"/><path d="M60.7 69.6q-6.8 3-11.1 4.15l-.55-.2q19.5-7.4 33.9-17.8-5.35 4.9-12.1 8.55-2.2.75-4.55 1.9-3.3 1.6-5.6 3.4" fill="#ff7548"/><path d="m53.4 66.75.95-.7.4.45 2.4-1.45h.3l.4-.1.15-.3v-.15q3-1.7 7.05-3.65l.15-.05-1.3-2-.1-.15q1.4-.7 3-1.3l1.15 1.9q.75-.4 1.55-.75l.1.05 2 .65.35-.05.25-.25v-.4l-.3-.25-1-.35q3.55-1.4 8-2.25l-1.65-2.6 2.1-1.15 1.05.4.7 1.65-.45.9q-18.55 11.2-30.5 15.7.6-.95 1.95-2.1l.45-.35.55-.45.65-.45-.35-.45m.3-1.5-.95.7-.75-.85 1.05-.7.65.85m-9.8-14.7v-.05l1.7.65q2.9 6.85 6.85 12.4l-1.1.75-.3-.35-3.25-5.15-.2-.5-.2-.25q-2.55-4.45-3.5-7.5m26-16 1.45-.9 3.5 1.3.05.2q-1.45 2.2.95 6.95L79.8 51l-.3-.1-.2-.05-.2.05-2.35 1.25-.6-1.1q-2.05-4-4.4-9.75-2.1-4.95-1.85-6.75m10 .2.55-.8 5.1 4.4-.75 8.8-.5-.95-.2-.2-.2-.05-1.45-.25 1.25-6.45-2.65-2.75-.75-1.15-.4-.6M54.9 40l.5-.3h.95l.45-.1 1.2 1.65-.9-.25h-.25l-1.5.55L54.9 40m.75 2.55 1.35-.5 1.9.45q4.4 8.85 7.35 13.95l-3 1.35-.55-.95q-3.2-5.35-6.65-12.9l-.4-1.4m-12.1 6.85-.25-1.8.25-.3.55.05 1 2.5-1.1-.4-.35-.05h-.1" fill="#36363e"/><path d="m49.55 69.4 3.2-2.2.35.45-.55.45-.45.35-2.2 1.45-.35-.5m2.55-3.05-3.15 2.2-.8-1 3.35-2.15.6.95m-13.35-7.6v-3.3l4.7-4.5q1.8 6.75 5.85 12.35-1.8-3.75-1.7-4.9l.2.4 2.35 4.45-3.3 2.85q-3.7-4.2-8.1-7.35M59.1 61.5q2.05-1.55 4.7-2.85l.1.15.45 1.75-5.95 3.3.65-2.2.05-.15m11.8-3.6-.3-.1v-.75l.15-.05.25-.25.4-1.25 5.65-2.35h.05l.15-.1 1.65 2.6q-4.45.85-8 2.25m-8.2-14.45-.5-1 .1-.2.8-3.7 6.1-3.6q-.5 3.1 2.1 9.3 1.75 3.8 3.8 6.15l-4.7 3.1-1.1 2.05-6.6-12.1m15.55-4-.85-2.05q1.15-.25 2.9-2.05l.75 1.15 2.65 2.75-1.25 6.45-.2-.05q-2.5-4.4-4-6.2m-23.7-3.05-.25-.95L60.25 33h.05l6.8-3.3 7.3-.5q.65 2.3.5 3.8l-2-2.1-.25-.1q-2.3-.45-5.85 1.25-4.3 1.6-6.5 3.9l-.1.15q-2.85-1.85-5.65.3m18.3-3.25-1.35-.5-.2-.05-.25.1-8.7 5.1-.15.15-.05.2L61.5 41l-.15-.4-.05-.05-.15-.35-.05-.1.1-3.6q2.05-2.05 6-3.5l.05-.05q3.05-1.5 5.1-1.2L73.6 33l-.75.15m-17.5 8.4q-3.85 1.5-7.2 3.5l-.2.15-.1.25-.4 3.25-.65-2.3.6-2.5 7.5-3.9.45 1.55m.6 22.2-.9-.9L48.15 51l.05-.2.65-5 .7-.35 5.5-1.3q2 7.05 5.95 12.4l-3.8 3.1-1 3.75-.25.35M43.3 47.6l.25 1.8v.05q-.05 0-.15.1l-5.05 4.85q.2-1.1.95-2.85l4-3.95" fill="#8d8c94"/><path d="m52.75 67.2.65-.45.35.45-.65.45-.35-.45m1.6-1.15.7-.45.2-.35-.1-.35q-.1-.2-.3-.2l-.4.05-.75.5-.65-.85.35-.2 1.9.55h.25l.25.1 1.35.2-2.4 1.45-.4-.45m-1.6-.1-.65.4-.6-.95.5-.3.75.85m-3.8 2.6-.35.3-3.8-.95-6.05-8.15v-1q4.4 3.15 8.1 7.35l3.3-2.85-2.35-4.45 3.25 5.15.3.35-4.4 2.8-.2.3q-.05.2.05.4l.35.25.4-.1.6-.4.8 1m-3.35-17.4 1.7.7h.15l6.7 11.5-.7-.2-.25-.05-.2.1-.55.35Q48.5 58 45.6 51.15M58 64.5l-.1-.25-.1-.15.3-.25.85-2.25.1.05-.65 2.2 5.95-3.3-.45-1.75 1.3 2-.15.05Q61 62.8 58 64.5m8.8-7.15.3-.1 2.05 1 .15.05v.05l.2.15q-.8.35-1.55.75l-1.15-1.9m3.8.45-.5-.2q-3.25-5.4-7.4-14.15l6.6 12.1.1.1v-.05l1.6-2.2 4.6-2.35h.55l.6 1.1-.1.05-5.85 2.45-.15.15-.1.2-.55 1.4.05.4.3.25h.25v.75m11.1-7.35.3.75-.15.6-2.05-.8-3.95-8.9q-2.4-4.75-.95-6.95 4.55 13 6.8 15.3m-1-5.1-2.45-5.9q1.5 1.8 4 6.2l-1.55-.3m-3.3-7.95-.05-.05q1.2-.75 2.55-2.6l.4.6q-1.75 1.8-2.9 2.05m3.05-3.45.4-.6 5.65 4.45q.4 6.05 0 12.4l-1.7-3.05.75-8.8-5.1-4.4M60.2 36.1l-.05.2-.05 3.5-2.6-1.3-.25-.05h-.3l-.05-.05-.55-.2h-.55q-.85-.8-1.25-1.8 2.8-2.15 5.65-.3M73.6 33l.45.6-1.2-.45.75-.15m2.5 1.4-.2-.1-.25-.1q.45-1.2.2-3.15 1.7 1.3 3.8 2.2-1.45 2.25-2.7 3.15l-.75-1.85-.1-.15m-19.3 5.2.1-.1h.3l3.25 1.65.35.75-2.8-.65-1.2-1.65m2.1 2.9 2.5.6q3.9 8.2 7 13.6l-1.05-.5-.2-.05-.2.05-.7.25q-2.95-5.1-7.35-13.95m4.35 15.3q-2.85 1.4-5.05 3.05l-.15.25-.9 2.35v.4l.1.15-1.15-.15-.15-.1.25-.35q.7-1.15 1.4-3.65 2.95-2.25 5.1-2.9l.55.95m17.85-3.85-.7-1.65 1.15.45-.45 1.2m-36-4.1-1-2.5 1.75.15h.2l.85 3.05-1.8-.7m-5.8 1.7q-.75 1.75-.95 2.85l-.45.45-.1.2-.05.2v3.2l-.05-.1-.1-5.05 1.7-1.75" fill="#55545f"/><path d="m43.45 50.95.45-.4q.95 3.05 3.5 7.5l.2.35q-.1 1.15 1.7 4.9-4.05-5.6-5.85-12.35m25.75-16 .7-.4q-.25 1.8 1.85 6.75 2.35 5.75 4.4 9.75h-.55L71 53.4l-1.6 2.2-.1-.05 1.1-2.05 4.7-3.1q-2.05-2.35-3.8-6.15-2.6-6.2-2.1-9.3m-19.65 10.5q2.9-1.65 6.1-2.9l.4 1.4q3.45 7.55 6.65 12.9-2.15.65-5.1 2.9-.7 2.5-1.4 3.65l1-3.75 3.8-3.1q-3.95-5.35-5.95-12.4l-5.5 1.3" fill="#b0b0b6"/></g><g id="o" fill-rule="evenodd"><path d="m67 62.3-.75-.45h-.05l-.15-.05-.25-.2q-.8-3.1-2.95-6.5-2.25-3.6-4.65-5.2v-.2q.05-.3.35-.35l.9.2q2.2 1.7 4.25 5 2.6 4.05 3.3 7.7v.05" fill="#0e326f"/><path d="m74.45 117.3.1-.3v-.05l.7-1.65.5-1.2.35-.75.4-.4.2-.05.1-.05.1-.05.1-.05.35.1.2.35.1.8.15 1.15v.15l-.7 2.75 7.5 12 5.15 3.55q-3.2-13.75-5.1-26.4l-.1-.2-.05-.4.25-.25v-.05l.35-.05.35.25.1.2.05.05q4.8 6.85 9.25 14.4l5.35 9.45q.8-2 .55-6.6l-3.35-13.45-.2-.9-.7-1.15-.8-1.2-.1-.35.15-.5.15-.15q.15-.15.35-.15l.55.1 1.8 1.25 2.85 2.25 2.95 2.95 2.85 3.45.15.35 2.45 21.4-.1.35q-3.25 8.95-5.6 12.1l-.35.25h-.45q-10.7-3.1-17.35-8.95l-.05-.1q-6.45-7.2-12.85-17.25l-.15-.45q.1-2.6 1.5-6.55m23.65-8.15.1.15 3.55 14.45v.1q.35 5.8-.95 7.85l.8 1.5 2.95 5.8v.45l-.25.25-.4.05-.3-.25-3.85-7.55-.05-.15q-3.6-6.8-7.45-13.05l-6.25-9.6.95 5.7.25 1.4q2.15 11.85 5.35 24.55l-.05.3-.05.1-.3.25-.35-.1-.25-.3-.2-.8-1.25-5.15-6.15-4.25-.15-.15-7.7-12.3-.05-.2v-.2l.4-1.65-.45 1.2v-.05l-.85 2.55q-.55 2.05-.65 3.65 6.25 9.75 12.55 16.8 6.05 5.25 15.4 8.25l.75.25h.05q2.1-3.2 5.05-11.1l-1.65-14.35-.75-6.65q-2.7-3.8-6.7-7l-1-.85-.25-.15.15.25" fill="#443747"/><path d="m74.45 117.3-1.4-3.35v.05q-1.15-2.45-.95-8.8l.1-.35q-1-.75-1.5-2.65-2.45-8.8-16.2-17.3l-.35-.5v-.2l-.25-.15q-6.6-9.1-9.35-16.8-.05-.2.05-.35l.2-.3q9.5-5.1 13.7-12.4-1.6-3.45-1.3-4.75.25-1.05 1.25-1.1 1.05-.15 3.2 1.05h.25q.3 0 .5.25 2.05 2.4 4.65 4.3Q71.55 57.2 77.8 59l.35.25.2.4.85 4.2 3.3-.25.45.1.3.35q5.15 10.1 10.35 22.8h-.05q4.25 9 7.25 14.55l.05.15 1.55 6.55v.3q1.5 2.1 2 3.9v.4l-2.95-2.95q-2.2-3.2-7.2-7.1l-.1-.05v.05l.45 2.15v.3l1.3 1.2-.15.15-.15.5.1.35.8 1.2q-1-1.35-2.6-2.65l-.2-.15h-.1l-.2-.1-.1-.1-.15-.2q-4-2.9-11.2-5.55l-.05.05-.15.45q-1.35 3.35-2.55 7.65l.05.1-.15.6-.1.15-1.35 5.25-.1-.8-.2-.35-.35-.1-.1.05 1.05-4.1-1.15-.75v4.9l-.1.05-.2.05-.4.4-.35.75v-6.8l-2.15-1.4q-.1 5.3.85 7.45l.8 1.95-.7 1.65v.05l-.1.3M65 54.35q-2.1-1.7-3.75-3.7l-.2-.4q-.9-.5-1.6-.7l-.9-.2q-.3.05-.35.35v.2q-.05 1.15 1.3 4.1v.05h.05l.8 1.6q2.75 3.95 5.45 5.95l.25.2.15.05h.05l.75.45 1.1.25.2-.85q-.05-1.65-1.55-5.4l-.35-.95-.25-.15-1.15-.85m3.45 3.4q.85 2.6.85 3.95.05 1.4-.7 1.75-.7.4-2-.25l-.9-.45-.2-.1q-3-2.05-6-6.4l-.05-.1-.4-.8Q54.8 62.3 45.7 67.3q2.7 7.45 9.05 16.1v.05l.55.1q5.35 3.3 9.1 6.7 5.2 4.75 7.1 9.6l.65 1.95q.4 1.45 1.15 1.95l.3.4.35.1 4.4 2.9q1.35-4.75 2.85-8.3l.25-.25.4-.05q6.25 2.3 10.2 4.75l.8.5-2.3-11.3q-3.4-3.45-6.15-8.7l-.65-1.3-1.35-2.95q-3.3-8-5.5-19.15-5.05-1.6-9-4.05l.55 1.4M82.3 65.5l-.2-.3-2.55.15q3.4 14.5 9.15 22.55l3.1 3.7.25.4 1.65 8.3.05.05 4.75 3.9 1.85 1.75-.95-3.95q-3-5.6-7.2-14.55l-.05-.05Q87.2 75.3 82.3 65.5" fill="#3b1212"/><path d="M103.35 127.95v-.2q-1.1-6.55-3.65-17l2.2 3.15.3.35q1.6 5.7 1.4 15l-.25-1.3m-16.15-11.7-.25-1.4-.95-5.7 6.25 9.6 6.85 20.85-4-7-.25-.4q-5.15-9.3-7.65-15.95" fill="#655268"/><path d="m81.9 99.8.05-.05q7.2 2.65 11.2 5.55l.15.2.1.1.2.1.3.15 1.95 2.45q-3.2-2.45-7.8-4.8-3.9-1.95-6.15-3.7m12.35 2.85q5 3.9 7.2 7.1l-2.85-2.25-4.35-4.85M65 54.35l1.15.85.25.15.35.95L65 54.35m3.45 3.4-.55-1.4q3.95 2.45 9 4.05 2.2 11.15 5.5 19.15-2.05-3.5-4.1-9.85l-2.4-8.25q-4.15-1-7.45-3.7M84.4 83.8q2.75 5.25 6.15 8.7l2.3 11.3-.8-.5q-.85-1.85-1.35-5.4-.5-4.3-1.85-6-3-3.9-4.45-8.1m-2.1-18.3q4.9 9.8 9.85 21.95l.05.05q4.2 8.95 7.2 14.55l.95 3.95-1.85-1.75q-.5-4.25-6.1-14.4-4.1-8.5-6.75-15-2.2-5.35-3.35-9.35m17.4 45.25-.5-.85q4 3.2 6.7 7l.75 6.65-1.65-5.95-2.8-3.35-.3-.35-2.2-3.15" fill="#ca7de7"/><path d="m98.1 109.15.1-.1 1 .85.5.85q2.55 10.45 3.65 17v.2q-.95 3.9-1.75 5.25l-.8-1.5q1.3-2.05.95-7.85v-.1L98.2 109.3l-.1-.15m-22.95 10.9.85-2.55v.05l.45-1.2-.4 1.65v.2l.05.2 7.7 12.3.15.15 6.15 4.25 1.25 5.15q-2.15-1.55-3.45-2.2-9.7-12.45-12.75-18M92.5 141.1l.05-.3q-3.2-12.7-5.35-24.55 2.5 6.65 7.65 15.95l.25.4q3.35 7.55 8.1 16.4l-.75-.25-9.9-7.65h-.05" fill="#cfb2d2"/><path d="M101.6 133.2q.8-1.35 1.75-5.25l.25 1.3q.2-9.3-1.4-15l2.8 3.35 1.65 5.95 1.65 14.35q-2.95 7.9-5.05 11.1h-.05q-4.75-8.85-8.1-16.4l4 7-6.85-20.85Q96.1 125 99.7 131.8l.05.15 3.85 7.55.3.25.4-.05.25-.25V139l-2.95-5.8m-10.25 7.05.2.8.25.3.35.1.3-.25.1-.1 9.9 7.65q-9.35-3-15.4-8.25-6.3-7.05-12.55-16.8.1-1.6.65-3.65 3.05 5.55 12.75 18 1.3.65 3.45 2.2" fill="#957f98"/><path d="m77.65 114 1.35-5.25.1-.15.15-.6-.05-.1q1.2-4.3 2.55-7.65l3 6.1-.25.25.05.4.1.2q1.9 12.65 5.1 26.4l-5.15-3.55-7.5-12 .7-2.75v-.15l-.15-1.15M71.5 99.85q-1.9-4.85-7.1-9.6.25-1.5-.3-3.8 6.8-4.25 11.7-12.2 2.95 14.9 9.45 23.15l-4.9-1.9q-1.65 1.65-3.95 6.05-2.8-1.35-4.9-1.7" fill="#a7392b"/><path d="m75.25 115.3-.8-1.95q-.95-2.15-.85-7.45l2.15 1.4v6.8l-.5 1.2m1.55-2.5v-4.85l1.15.75-1.05 4.1h-.1m19.1-6.5-1.3-1.2v-.3l-.45-2.15h.1l4.35 4.85-1.8-1.25-.55-.1q-.2 0-.35.15M82.4 79.55l1.35 2.95.65 1.3q1.45 4.2 4.45 8.1 1.35 1.7 1.85 6 .5 3.55 1.35 5.4-3.95-2.45-10.2-4.75l-.4.05-.25.25q-1.5 3.55-2.85 8.3l-4.4-2.9-.35-.1-.3-.4q-.75-.5-1.15-1.95l-.65-1.95q2.1.35 4.9 1.7 2.3-4.4 3.95-6.05l4.9 1.9q-6.5-8.25-9.45-23.15l2.5-4.55q2.05 6.35 4.1 9.85m16.1 24.7-4.75-3.9-.05-.05-1.65-8.3-.25-.4-3.1-3.7q-1.85-6.25-3.05-13.05 2.65 6.5 6.75 15 5.6 10.15 6.1 14.4m-1.1 6.3 3.35 13.45q.25 4.6-.55 6.6l-5.35-9.45q.25-8.45-4.9-15.8l7.45 5.2" fill="#802323"/><path d="m81.75 100.25.15-.45q2.25 1.75 6.15 3.7 4.6 2.35 7.8 4.8l-1.95-2.45q1.6 1.3 2.6 2.65l.7 1.15.2.9-7.45-5.2q5.15 7.35 4.9 15.8-4.45-7.55-9.25-14.4l-.05-.05-.1-.2-.35-.25-.35.05v.05l-3-6.1m-22.3-50.7q.7.2 1.6.7l.2.4q1.65 2 3.75 3.7l1.75 1.95q1.5 3.75 1.55 5.4l-.2.85-1.1-.25v-.05q-.7-3.65-3.3-7.7-2.05-3.3-4.25-5m4.95 40.7q-3.75-3.4-9.1-6.7l-.55-.1v-.05q-6.35-8.65-9.05-16.1 9.1-5 13.35-11.95l.4.8.05.1q3 4.35 6 6.4l.2.1.9.45q1.3.65 2 .25.75-.35.7-1.75 0-1.35-.85-3.95 3.3 2.7 7.45 3.7l2.4 8.25-2.5 4.55q-4.9 7.95-11.7 12.2.55 2.3.3 3.8m24.3-2.35q-5.75-8.05-9.15-22.55l2.55-.15.2.3q1.15 4 3.35 9.35 1.2 6.8 3.05 13.05" fill="#591d1d"/><path d="M65.8 61.6q-2.7-2-5.45-5.95l-.8-1.6-.05-.05q-1.35-2.95-1.3-4.1 2.4 1.6 4.65 5.2 2.15 3.4 2.95 6.5" fill="#27b4b6"/><path d="m21.2 55.3.45-.25q.3-.1.55.15l15.2 10.65 4.7.7q4.85.5 8.05-.7.3-.15.6 0l.4.4v.6l-.45.4q-4.95 2-13.75.05l-.25-.1-15.4-10.75-.3-.5q-.05-.35.15-.6l.05-.05m26.55-36.9q-7.15-3.5-15.3-1.3l-.6-.05-.05-.05-.3-.45.1-.55q.15-.3.45-.4 11.75-3.2 21.45 4.8l.2.2q5.55 10.35 13.45 19.85l.2.4q.55 5.5-3.65 14.75l-.45.4h-.6l-.05-.05-.35-.4q-.1-.3.05-.6 3.85-8.6 3.5-13.7-7.85-9.5-13.4-19.8-2.3-1.85-4.65-3.05" fill="#291e2c"/><path d="m51.15 66.25-.4-.4q-.3-.15-.6 0-3.2 1.2-8.05.7-5.9-7.55-9.6-22 1.5-12.7 11.05-16.4l.25-.1h.1q6.5.2 13.95 5.2l5.6 7.75v.2Q62.65 53 52.9 65.3l-1.75.95" fill="#55545f"/><path d="m42.1 66.55-4.7-.7L22.2 55.2q-.25-.25-.55-.15l-.45.25q-4.3-7.25-3.3-18.45Q23.15 24.75 31.8 17l.05.05.6.05q8.15-2.2 15.3 1.3 2.4 1.85 4.45 4.6 6.5 10.45 12.95 18.2-.25 7.75-8.2 21.35L52.9 65.3Q62.65 53 63.45 41.2V41l-5.6-7.75q-7.45-5-13.95-5.2h-.1l-.25.1Q34 31.85 32.5 44.55q3.7 14.45 9.6 22" fill="#36363e"/><path d="M56.95 62.55q7.95-13.6 8.2-21.35Q58.7 33.45 52.2 23q-2.05-2.75-4.45-4.6 2.35 1.2 4.65 3.05 5.55 10.3 13.4 19.8.35 5.1-3.5 13.7-.15.3-.05.6l.35.4q-2.3 3.8-5.65 6.6" fill="#ca7de7"/><path d="m32.9 74.95-.4-.6q-10.35-.2-19.75-4l-.6-.05-.2-.2-.45-.35-.1-.6.05-.05Q2.2 50.75 0 25l.05-.4 4.35-9.05-2.8-8.9v-.5q.1-.25.35-.4Q8.15 2.35 13.9.4l.25-.25.55-.15.5.3 5.4 7.15q6.35.2 13.6 1.75l.4.25q19.2 18.45 28.8 37.8l.1.5Q61.6 59.1 55.55 68.4l-.3.25-.6-1.7q5.5-8.65 7.25-19.2Q52.45 28.8 33.7 10.7 27 9.25 21.15 9l1 1.3 19.35 26 .1.35-.2.35-.4.1q-.2 0-.35-.2L19.3 8.2l-4.85-6.4-2.2.85q-4.4 1.65-9 4.15l2.5 7.8.1.2 6.25 19.05 3.5 10.65-.05.4-.2.2-.1.05-.4-.05-.25-.3-5-15.35L5.45 16.9l-2.7 5.7-1.2 2.5q2.05 23.5 10 40.7l1.2 2.45.3.6 3.45 1.3q7.35 2.4 15.25 2.65l1.15 2.15m17.55-15.9L43.2 42.2v-.4q.05-.2.25-.3h.35l.3.25.3.6q4 8.8 7.65 18l-1.6-1.3M15.5 45.6l.05.05 10.05 15.4 3.85 5.9v1.85L21.1 56.05l-5.5-8.45-.9-1.4-.1-.35.2-.3.4-.1.3.15" fill="#3b1212"/><path d="M54.85 57.35h-.1L54.5 57l-1.35-3.55-.05-.05q-.85-2.8-.95-4.2l.05-.2q-.1-.15-.05-.3l.2-.35.4-.05 3 .3q1.75.25 3.05.85l.4.5v.25l-.05.2-3.65 6.5-.05.05v.1l-.3.3h-.3m-41.15 6.1.15-3.4.15-.35.4-.15q.2 0 .35.15l.05.05.05.05.35.3 3.5 3.3 3.65 4.25v.05l.05.05.15.35v.15l-.05.25-.2.2-.25.05-6.65-.25q-1.7-.2-1.75-1.4-.1-.9-.05-2.8v-.05l.1-.8m.95.9V67q.1.4.85.45l2.9.15 2.65.1-1.9-2.3-1.2-1.3-2.25-2.25-.85-.75-.2 3.25M56 54.15l2.05-3.85q-1.05-.45-2.4-.65l-.35-.05-2.1-.2.9 3.7.95 2.6.95-1.55" fill="#0b3474"/><path d="M12.1 33.85 5.85 14.8l-.1-.2-2.5-7.8q4.6-2.5 9-4.15L14.7 5l1.1 1.15q5.65 8.1 9.3 14.95L13.3 5.75q-2.2 2.6-5.9 3.2 4.9 16.55 4.7 24.9m29.6 18.7 4.15 3 6.35 14.6 7.5 18.15q-7.7 4.4-12.8 4L33.55 73.15l-.1-.1-4-6.1.1-13.45 7.95-3.7 1.55.95 2.65 1.8" fill="#fff"/><path d="m45.85 55.55 4.6 3.5Q56 72.95 60.7 87.7l-1 .6-7.5-18.15-6.35-14.6" fill="#957f98"/><path d="m12.75 68.25-1.2-2.45q1.25-.95 2.15-2.35l-.1.8v.05q-.05 1.9.05 2.8.05 1.2 1.75 1.4l6.65.25.25-.05.2-.2.05-.25v-.15l-.15-.35-.05-.1-3.65-4.25-3.5-3.3q1.4-4.85.4-12.5l5.5 8.45q.9 4.55 4.5 12.4-6.75 1.2-12.85-.2m-10-45.65 2.7-5.7L9.6 29.45q-4.1-5.7-6.85-6.85m9.5-19.95 2.2-.85 4.85 6.4 21.35 28.7q.15.2.35.2l.4-.1.2-.35-.1-.35-19.35-26q4.3 1.4 11.5 1.95 16.9 13.95 26.9 35.35l-1.35 2.35-.4-.5q-1.3-.6-3.05-.85l-3-.3-.4.05-.2.35q-.05.15.05.3l-.05.2q.1 1.4.95 4.2l.05.05L54.5 57l.25.35h.1l-.3.5-10.15-15.5-.3-.6-.3-.25-.65-1.05.3 1.05q-.2.1-.25.3v.4l7.25 16.85-4.6-3.5-4.15-3-2.05-5.9q-2.3-6.1-5.35-12.35-4.7-8.35-8.7-14.7l-.7-1.05q-5.1-7.85-9.1-12.4L14.7 5l-2.45-2.35m23.6 24.7q8.7 12.7 12.55 15.5.15-6.7-4.25-13.95-5.35-8.5-10.85-13.15-7.9-4.8-1.2 6l3.75 5.6" fill="#a7392b"/><path d="m16.5 70.15-3.45-1.3-.3-.6q6.1 1.4 12.85.2-3.6-7.85-4.5-12.4l8.35 12.75 1.7 2.6q-11.1-1.85-14.65-1.25M43.45 41.5l-.3-1.05.65 1.05h-.35m.95.85 10.15 15.5.3-.5h.3l.3-.3v-.1l.05-.05 3.65-6.5.05-.2v-.25l1.35-2.35.75 1.65Q57.15 62.2 53.8 64.9l-1.75-4.55q-3.65-9.2-7.65-18" fill="#802323"/><path d="m14.65 64.4 1.05-2.55 2.25 2.25 1.2 1.3-.75 2.2-2.9-.15q-.75-.05-.85-.45v-2.6M56 54.15l-.95 1.55-.95-2.6-.9-3.7 2.1.2q.1 2.75.7 4.55" fill="#01fcff"/><path d="M14.65 64.4v-.05l.2-3.25.85.75-1.05 2.55m4.5 1 1.9 2.3-2.65-.1.75-2.2M55.3 49.6l.35.05q1.35.2 2.4.65L56 54.15q-.6-1.8-.7-4.55" fill="#27b4b6"/><path d="M31.75 72.8q-7.9-.25-15.25-2.65 3.55-.6 14.65 1.25l.9 1.4h-.3m-9.6-62.5-1-1.3q5.85.25 12.55 1.7 18.75 18.1 28.2 37.05-1.75 10.55-7.25 19.2l-.05.1-.25-.75-.55-1.4q3.35-2.7 7.5-15.65l-.75-1.65q-10-21.4-26.9-35.35-7.2-.55-11.5-1.95" fill="#ca7de7"/><path d="M11.55 65.8q-7.95-17.2-10-40.7l1.2-2.5q2.75 1.15 6.85 6.85l5 15.35.25.3.4.05.1-.05.15.5-.3-.15-.4.1-.2.3.1.35.9 1.4q1 7.65-.4 12.5l-.35-.3-.05-.05-.05-.05q-.15-.15-.35-.15l-.4.15-.15.35-.15 3.4q-.9 1.4-2.15 2.35M25.6 19.6q4 6.35 8.7 14.7 3.05 6.25 5.35 12.35l-5.6-10.55 5 14.65-1.55-.95-7.95 3.7-.1 13.45-3.85-5.9-8.8-17.8q-1.45-11.5-3.2-19.2 4.25-1.15 6.9-7.8 7.1 8.3 10.85 14.9-1.85-5-5.75-11.55m-7.9-7q-1.65 5.65-5.3 7.25l-.5-2.7q3.1-1.15 4.05-6.6l1.75 2.05m18.15 14.75-3.75-5.6q-6.7-10.8 1.2-6 5.5 4.65 10.85 13.15 4.4 7.25 4.25 13.95-3.85-2.8-12.55-15.5" fill="#e15645"/><path d="m32.9 74.95-1.15-2.15h.3l-.9-1.4-1.7-2.6v-1.85l4 6.1.1.1L46.9 92.3q5.1.4 12.8-4l1-.6Q56 72.95 50.45 59.05l1.6 1.3 1.75 4.55.55 1.4.25.75.05-.1.6 1.7h-.05l.8 2.1.25.7 5.6 16.5.05.55-.3.45q-9.3 5.65-15.2 4.85l-.3-.1-.25-.2L32.9 74.95" fill="#443747"/><path d="m15.35 45.1.2-.2.05-.4-3.5-10.65q.2-8.35-4.7-24.9 3.7-.6 5.9-3.2L25.1 21.1q-3.65-6.85-9.3-14.95 4 4.55 9.1 12.4l.7 1.05q3.9 6.55 5.75 11.55-3.75-6.6-10.85-14.9-2.65 6.65-6.9 7.8 1.75 7.7 3.2 19.2l8.8 17.8-10.05-15.4-.05-.05-.15-.5m24.3 1.55 2.05 5.9-2.65-1.8-5-14.65 5.6 10.55M17.7 12.6l-1.75-2.05Q15 16 11.9 17.15l.5 2.7q3.65-1.6 5.3-7.25" fill="#ff7548"/></g><radialGradient cx="0" cy="0" gradientTransform="translate(19.45 12.05) scale(.2078)" gradientUnits="userSpaceOnUse" id="D" r="819.2" spreadMethod="pad"><stop offset=".478" stop-color="#957f98"/><stop offset="1" stop-color="#ccc5df"/></radialGradient><radialGradient cx="0" cy="0" gradientTransform="translate(63.5 57.1) scale(.0252)" gradientUnits="userSpaceOnUse" id="E" r="819.2" spreadMethod="pad"><stop offset="0" stop-color="#ccbad8"/><stop offset="1" stop-color="#bfc3dd"/></radialGradient><radialGradient cx="0" cy="0" gradientTransform="translate(85.25 78.1) scale(.0866)" gradientUnits="userSpaceOnUse" id="F" r="819.2" spreadMethod="pad"><stop offset="0" stop-color="#c0c4de"/><stop offset=".667" stop-color="#ccc7e0"/><stop offset=".816" stop-color="#e0e8f2"/></radialGradient><radialGradient cx="0" cy="0" gradientTransform="translate(119.3 95) scale(.0415)" gradientUnits="userSpaceOnUse" id="G" r="819.2" spreadMethod="pad"><stop offset=".584" stop-color="#802323"/><stop offset="1" stop-color="#a7392b"/></radialGradient><radialGradient cx="0" cy="0" gradientTransform="matrix(.014 0 0 .014 29.85 93.95)" gradientUnits="userSpaceOnUse" id="H" r="819.2" spreadMethod="pad"><stop offset="0" stop-color="#0b8dbe"/><stop offset="1" stop-color="#0f5782"/></radialGradient><radialGradient cx="0" cy="0" gradientTransform="matrix(.026 0 0 .026 14.9 91.4)" gradientUnits="userSpaceOnUse" id="I" r="819.2" spreadMethod="pad"><stop offset="0" stop-color="#038c7d"/><stop offset="1" stop-color="#038b80"/></radialGradient><radialGradient cx="0" cy="0" gradientTransform="translate(33.2 86.75) scale(.0081)" gradientUnits="userSpaceOnUse" id="J" r="819.2" spreadMethod="pad"><stop offset="0" stop-color="#077ea6"/><stop offset="1" stop-color="#038b82"/></radialGradient><linearGradient gradientTransform="matrix(.1194 -.0671 .0886 .1577 66.65 165.7)" gradientUnits="userSpaceOnUse" id="L" spreadMethod="pad" x1="-819.2" x2="819.2"><stop offset="0" stop-color="#cc53e6"/><stop offset="1" stop-color="#cb5ae3" stop-opacity="0"/></linearGradient><linearGradient gradientTransform="matrix(-.0047 .0072 -.0076 -.005 50.55 55.15)" gradientUnits="userSpaceOnUse" id="K" spreadMethod="pad" x1="-819.2" x2="819.2"><stop offset=".239" stop-color="#957f98"/><stop offset=".502" stop-color="#c9accc"/><stop offset=".773" stop-color="#957f98"/></linearGradient><path d="M26.35-2.8q9.3 1.2 9.3 2.8 0 1.6-9.3 2.7L3.95 3.85-18.5 2.7q-9.25-1.1-9.25-2.7t9.25-2.8L3.95-3.9l22.4 1.1" fill-opacity=".349" fill-rule="evenodd" transform="translate(27.75 3.9)" id="p"/><path d="M2.15 152.95Q98.9 64.6 204.75 0 312.6 106.7 342.1 267.55q-153.2 55.05-308.95 6.5-41.9-56-30.8-120.85l-.2-.25" fill="url(#L)" fill-rule="evenodd" id="d"/></defs></svg>