<svg xmlns:ffdec="https://www.free-decompiler.com/flash" xmlns:xlink="http://www.w3.org/1999/xlink" ffdec:objectType="frame" height="100" width="100" xmlns="http://www.w3.org/2000/svg"><use ffdec:characterId="15" height="100.7" transform="translate(0 -.7)" width="100" xlink:href="#a"/><defs><g id="a" transform="translate(0 .7)"><use ffdec:characterId="1" height="13.25" transform="translate(18.816 48.716) scale(.7125)" width="13.9" xlink:href="#b"/><use ffdec:characterId="2" height="14.9" transform="translate(56.666 56.666) scale(.7125)" width="15.6" xlink:href="#c"/><use ffdec:characterId="3" height="29" transform="translate(23.75 80.65) scale(.6216)" width="89.75" xlink:href="#d"/><use ffdec:characterId="4" height="79.25" transform="translate(20.032 -.713) scale(.7125)" width="82.95" xlink:href="#e"/><use ffdec:characterId="5" height="30.1" transform="translate(18.5 17.229) scale(.7125)" width="15.4" xlink:href="#f"/><clipPath id="g" transform="translate(18.5 17.3) scale(.7125)"><path d="M12.1 5.6q1.5 4 1.5 9.65t-1.5 9.65Q10.6 29 8.55 29q-2.1 0-3.6-4.1-1.45-4-1.45-9.65T4.95 5.6q1.5-4.05 3.6-4.05 2.05 0 3.55 4.05" fill="#d0f1fa" fill-rule="evenodd"/></clipPath><g clip-path="url(#g)"><use ffdec:characterId="7" height="18.15" transform="translate(20.994 19.9) scale(.7125)" width="8.45" xlink:href="#h"/></g><use ffdec:characterId="8" height="28.45" transform="translate(20.637 18.048) scale(.7125)" width="11.1" xlink:href="#i"/><use ffdec:characterId="9" height="34.5" transform="translate(40.55 18.3) scale(.7125)" width="29.8" xlink:href="#j"/><clipPath id="k" transform="translate(40.55 18.3) scale(.7125)"><path d="M23.15 28q-3.95 4.6-9.45 4.6-5.5 0-9.45-4.6-3.9-4.6-3.9-11.1t3.9-11.15Q8.2 1.2 13.7 1.2q5.5 0 9.45 4.55Q27.1 10.4 27.1 16.9T23.15 28" fill="#ceeff8" fill-rule="evenodd"/></clipPath><g clip-path="url(#k)"><use ffdec:characterId="11" height="24.15" transform="translate(41.69 20.081) scale(.7125)" width="20.3" xlink:href="#l"/></g><use ffdec:characterId="12" height="32.4" transform="translate(40.443 18.799) scale(.7125)" width="27.75" xlink:href="#m"/><use ffdec:characterId="13" height="115" transform="scale(.8853 .8696)" width="112.95" xlink:href="#n"/></g><g id="b"><path d="M5.5.8Q3.45.8 2 2.3.5 3.8.5 5.9T2 9.5q1.45 1.45 3.5 1.45 2.1 0 3.6-1.45 1.5-1.5 1.5-3.6T9.1 2.3Q7.6.8 5.5.8m5.05.9q1.85 1.7 1.85 4.15T10.55 10q-1.8 1.75-4.35 1.75T1.8 10Q0 8.3 0 5.85T1.8 1.7Q3.65 0 6.2 0q2.55 0 4.35 1.7" fill="#c0d1e1" fill-rule="evenodd" transform="translate(.75 .75)"/><path d="M5.5.8q2.1 0 3.6 1.5t1.5 3.6q0 2.1-1.5 3.6-1.5 1.45-3.6 1.45-2.05 0-3.5-1.45Q.5 8 .5 5.9T2 2.3Q3.45.8 5.5.8" fill="#fff" fill-rule="evenodd" transform="translate(.75 .75)"/><path d="M11.3 2.45q1.85 1.7 1.85 4.15t-1.85 4.15Q9.5 12.5 6.95 12.5t-4.4-1.75Q.75 9.05.75 6.6t1.8-4.15Q4.4.75 6.95.75q2.55 0 4.35 1.7z" fill="none" stroke="#3e4e55" stroke-linecap="round" stroke-linejoin="round" stroke-width="1.5"/></g><g id="c"><path d="M.15 5.35Q.5 3.4 2 1.9 4.05 0 7 0t5 1.9q2.1 2.05 2.1 4.8 0 2.8-2.1 4.7-2.05 2-5 2t-5-2Q.2 9.7.05 7.3q.2 2.1 1.7 3.6 1.75 1.75 4.2 1.75t4.2-1.75q1.75-1.75 1.75-4.25 0-2.45-1.75-4.2T5.95.7Q3.5.7 1.75 2.45.5 3.7.15 5.35" fill="#bdd3e0" fill-rule="evenodd" transform="translate(.75 .75)"/><path d="M.05 7.3 0 6.65l.05-.85.1-.45q.35-1.65 1.6-2.9Q3.5.7 5.95.7t4.2 1.75q1.75 1.75 1.75 4.2 0 2.5-1.75 4.25t-4.2 1.75q-2.45 0-4.2-1.75Q.25 9.4.05 7.3" fill="#fff" fill-rule="evenodd" transform="translate(.75 .75)"/><path d="M.9 6.1q.35-1.95 1.85-3.45 2.05-1.9 5-1.9t5 1.9q2.1 2.05 2.1 4.8 0 2.8-2.1 4.7-2.05 2-5 2t-5-2Q.95 10.45.8 8.05L.75 7.4l.05-.85.1-.45z" fill="none" stroke="#3e4e55" stroke-linecap="round" stroke-linejoin="round" stroke-width="1.5"/></g><g id="e"><path d="M62.4 56.4q2.9.8 2.95 2 0 1.25-2.85 2.1-2.95 1-7.05 1.05l-7-.75q-3-.8-3-2.05-.05-1.2 2.9-2.1 2.9-.9 7.05-.95l7 .7" fill="#ffc8ce" fill-rule="evenodd" transform="translate(-2.15 1)"/><path d="M10.1 62.9q9.4 10.45 33.45 8.8 22.65-3.3 30-23 4.5-12.65 0-27.85-2.15-8-8.65-16.35 4.9 2.8 9.1 7.35Q84.7 25.9 84.05 44.3 83 58.65 70.35 67.75q-10.85 9.3-32.45 9.5-18.3-.4-27.8-14.35" fill="#bdd3e0" fill-rule="evenodd" transform="translate(-2.15 1)"/><path d="M53.05 9.35q-.45-.4-1.05-.4-.6 0-1.05.4-.45.4-.45.95 0 .5.45.9t1.05.4q.6 0 1.05-.4l.45-.9q0-.55-.45-.95M10.1 62.9l-2.75-4.65q-8.35-19.2 0-33.9Q19.75 5.1 37.65.85 53.35-2 64.9 4.5q6.5 8.35 8.65 16.35 4.5 15.2 0 27.85-7.35 19.7-30 23-24.05 1.65-33.45-8.8m57.45-45.05-.5-.65-.7-.35-.55.1q-.2.2 0 .55l.5.65.75.35.5-.1q.2-.2 0-.55m-8.9-2-.65-.2q-.35 0-.6.2l-.25.6.25.55q.25.2.6.2l.65-.2.3-.55-.3-.6m-.05-5.7q-.7.6-.65 1.35.05.75.7 1.05l.55.5.6.85.15.25.45.55q.7.9 1.7.75l.7-.05q1.75-.2 1-2.4-.75-2.2-1.5-2.75-.8-.65-1.9-.65-1.1-.1-1.8.55" fill="#fff" fill-rule="evenodd" transform="translate(-2.15 1)"/><path d="M53.05 9.35q.45.4.45.95l-.45.9q-.45.4-1.05.4-.6 0-1.05-.4-.45-.4-.45-.9 0-.55.45-.95.45-.4 1.05-.4.6 0 1.05.4m5.55.8q.7-.65 1.8-.55 1.1 0 1.9.65.75.55 1.5 2.75t-1 2.4l-.7.05q-1 .15-1.7-.75l-.45-.55-.15-.25-.6-.85-.55-.5q-.65-.3-.7-1.05-.05-.75.65-1.35m.05 5.7.3.6-.3.55-.65.2q-.35 0-.6-.2l-.25-.55.25-.6q.25-.2.6-.2l.65.2m8.9 2q.2.35 0 .55l-.5.1-.75-.35-.5-.65q-.2-.35 0-.55l.55-.1.7.35.5.65" fill="#969289" fill-rule="evenodd" transform="translate(-2.15 1)"/><path d="M62.75 5.5Q51.2-1 35.5 1.85 17.6 6.1 5.2 25.35q-8.35 14.7 0 33.9l2.75 4.65q9.5 13.95 27.8 14.35 21.6-.2 32.45-9.5 12.65-9.1 13.7-23.45.65-18.4-10.05-32.45-4.2-4.55-9.1-7.35z" fill="none" stroke="#3e4e55" stroke-linecap="round" stroke-linejoin="round" stroke-width="2"/><path d="M62.4 56.4q2.9.8 2.95 2 0 1.25-2.85 2.1-2.95 1-7.05 1.05l-7-.75q-3-.8-3-2.05-.05-1.2 2.9-2.1 2.9-.9 7.05-.95l7 .7" fill="#ffc8ce" fill-rule="evenodd" transform="translate(-2.15 1)"/><path d="M16.6 64.15q-1.5-1.85-1.85-6.05l-.1-.85 2.3.85q2.7.75 5.2.05l.05.5q-4.2 1.8-5.6 5.5 1.4-3.7 5.6-5.5.4 7.05-3.8 6.85-1.05-.35-1.8-1.35" fill="#bc3242" fill-rule="evenodd" transform="translate(-2.15 1)"/><path d="m22.2 58.65-.05-.5q-2.5.7-5.2-.05l-2.3-.85.1.85q.35 4.2 1.85 6.05 1.4-3.7 5.6-5.5.4 7.05-3.8 6.85-1.05-.35-1.8-1.35" fill="none" stroke="#5a1821" stroke-linecap="round" stroke-linejoin="round" transform="translate(-2.15 1)"/></g><g id="f" fill-rule="evenodd"><path d="M5.05 7.9Q2.6 9.9.45 9.15-.6 8.55.7 8.3q2 .8 4.25-2.4l.1 2" fill="#3e4e55" transform="translate(0 .1)"/><path d="M11.75 1.15q1 1.1 1.9 3.25 1.75 4.45 1.75 10.65T13.65 25.6q-1.8 4.4-4.3 4.4Q6.8 30 5 25.6q-1.75-4.35-1.75-10.55Q3.25 8.85 5 4.4 6.8 0 9.35 0l1.15.25q-.15.15-.15.4l.25.5.55.25.55-.25h.05" fill="#bbbaca" fill-opacity=".749" transform="translate(0 .1)"/><path d="m10.5.25.1-.15.55-.2.55.2.25.55-.2.5h-.05l-.55.25-.55-.25-.25-.5q0-.25.15-.4" fill="#969289" transform="translate(0 .1)"/><path d="M12.1 5.6q1.5 4 1.5 9.65t-1.5 9.65Q10.6 29 8.55 29q-2.1 0-3.6-4.1-1.45-4-1.45-9.65T4.95 5.6q1.5-4.05 3.6-4.05 2.05 0 3.55 4.05" fill="#d0f1fa" transform="translate(0 .1)"/></g><g id="h" fill-rule="evenodd"><path d="M5.9 4.45q.8-.8 1.8-.8 1.8 0 3 2.45 1.25 2.45 1.25 6 0 3.5-1.25 5.9l-.2.4-1.3-.3q-.95 0-1.65.55t-.7 1.3l.05.4Q5.65 19.9 4.75 18 3.5 15.6 3.5 12.1q0-3.55 1.25-6l.2-.3Q4.3 7.15 4.3 9q0 2.1.75 3.55.8 1.4 1.9 1.4 1.1 0 1.9-1.4Q9.6 11.1 9.6 9q0-2.05-.75-3.5-.8-1.45-1.9-1.45-.55 0-1.05.4" fill="#a22c82" transform="translate(-3.5 -3.65)"/><path d="m4.95 5.8.1-.3q.4-.7.85-1.05.5-.4 1.05-.4 1.1 0 1.9 1.45.75 1.45.75 3.5 0 2.1-.75 3.55-.8 1.4-1.9 1.4-1.1 0-1.9-1.4Q4.3 11.1 4.3 9q0-1.85.65-3.2m2.1-.35q-.4-.5-.95-.5-.55 0-.95.5-.4.55-.4 1.3T5.15 8q.4.55.95.55.55 0 .95-.55.4-.5.4-1.25t-.4-1.3" fill="#48153e" transform="translate(-3.5 -3.65)"/><path d="m10.5 18.4.35.25q.7.55.7 1.3t-.7 1.3q-.7.55-1.65.55t-1.65-.55q-.5-.4-.65-.9l-.05-.4q0-.75.7-1.3t1.65-.55l1.3.3M7.05 5.45q.4.55.4 1.3T7.05 8q-.4.55-.95.55-.55 0-.95-.55-.4-.5-.4-1.25t.4-1.3q.4-.5.95-.5.55 0 .95.5" fill="#fff" transform="translate(-3.5 -3.65)"/></g><g id="j" fill-rule="evenodd"><path d="M25.4 29.45q-4.35 5.05-10.5 5.05T4.35 29.45Q0 24.4 0 17.25 0 10.1 4.35 5q4.4-5 10.55-5t10.5 5q4.4 5.1 4.4 12.25t-4.4 12.2" fill="#bbbaca" fill-opacity=".749"/><path d="M23.15 28q-3.95 4.6-9.45 4.6-5.5 0-9.45-4.6-3.9-4.6-3.9-11.1t3.9-11.15Q8.2 1.2 13.7 1.2q5.5 0 9.45 4.55Q27.1 10.4 27.1 16.9T23.15 28" fill="#ceeff8"/></g><g id="l" fill-rule="evenodd"><path d="m19.1 22.25 1.2.5q1.1.65 1.1 1.6 0 1-1.1 1.65-1.05.65-2.55.65-1.5 0-2.6-.65l-.6-.5q-.45-.5-.45-1.15 0-.95 1.05-1.6 1.1-.65 2.6-.65l1.35.15M4.6 5.9l.65-.75.35-.2q.9-.6 2.15-.6 1.5 0 2.45.8 1.1.8 1.1 1.95t-1.1 1.95q-.95.85-2.45.85-1.45 0-2.5-.85-1-.8-1-1.95 0-.65.35-1.2" fill="#fff" transform="translate(-1.6 -2.5)"/><path d="m14.55 25.5-2.8.4q-4.15 0-7.15-3.45-3-3.4-3-8.25 0-4.55 2.65-7.85-1.5 2.05-1.5 4.8 0 3.15 2 5.4 2.05 2.3 4.9 2.3 2.85 0 4.9-2.3 2-2.25 2-5.4 0-3.2-2-5.45-2.05-2.25-4.9-2.25-2.3 0-4.05 1.5Q8.25 2.5 11.75 2.5q4.2 0 7.15 3.4 3 3.45 3 8.3 0 4.7-2.8 8.05l-1.35-.15q-1.5 0-2.6.65-1.05.65-1.05 1.6 0 .65.45 1.15" fill="#a22c82" transform="translate(-1.6 -2.5)"/><path d="m4.25 6.35.35-.45q-.35.55-.35 1.2 0 1.15 1 1.95 1.05.85 2.5.85 1.5 0 2.45-.85 1.1-.8 1.1-1.95t-1.1-1.95q-.95-.8-2.45-.8-1.25 0-2.15.6 1.75-1.5 4.05-1.5 2.85 0 4.9 2.25 2 2.25 2 5.45 0 3.15-2 5.4-2.05 2.3-4.9 2.3-2.85 0-4.9-2.3-2-2.25-2-5.4 0-2.75 1.5-4.8" fill="#48153e" transform="translate(-1.6 -2.5)"/></g><path d="M44.85 29q-18.55 0-31.7-4.3Q0 20.5 0 14.5 0 8.45 13.15 4.2 26.3 0 44.85 0 63.5 0 76.6 4.2q13.15 4.25 13.15 10.3 0 6-13.15 10.2Q63.5 29 44.85 29" fill-opacity=".349" fill-rule="evenodd" id="d"/><path d="M12.1 24.9Q10.6 29 8.55 29q-2.1 0-3.6-4.1-1.45-4-1.45-9.65T4.95 5.6q1.5-4.05 3.6-4.05 2.05 0 3.55 4.05 1.5 4 1.5 9.65t-1.5 9.65z" fill="none" stroke="#3e4e55" stroke-linecap="round" stroke-linejoin="round" transform="translate(-3 -1.05)" id="i"/><path d="M23.15 28q-3.95 4.6-9.45 4.6-5.5 0-9.45-4.6-3.9-4.6-3.9-11.1t3.9-11.15Q8.2 1.2 13.7 1.2q5.5 0 9.45 4.55Q27.1 10.4 27.1 16.9T23.15 28z" fill="none" stroke="#3e4e55" stroke-linecap="round" stroke-linejoin="round" transform="translate(.15 -.7)" id="m"/><path d="M112.95 115H0V0h112.95v115" fill="#fff" fill-opacity="0" fill-rule="evenodd" id="n"/></defs></svg>