<svg xmlns:ffdec="https://www.free-decompiler.com/flash" xmlns:xlink="http://www.w3.org/1999/xlink" ffdec:objectType="frame" height="90" width="90" xmlns="http://www.w3.org/2000/svg"><use ffdec:characterId="14" height="318.6" transform="matrix(.2827 0 0 .2829 26.238 -.127)" width="130.15" xlink:href="#a"/><use ffdec:characterId="15" height="39.15" transform="scale(2.7231 2.2988)" width="33.05" xlink:href="#b"/><defs><g id="a" transform="translate(3.05 .45)"><use ffdec:characterId="1" height="16" transform="translate(30.55 302.15)" width="57.5" xlink:href="#c"/><use ffdec:characterId="3" height="204.1" transform="matrix(.6243 -.0276 0 .8867 -.312 5.17)" width="204.1" xlink:href="#d"/><use ffdec:characterId="4" height="117.3" transform="matrix(.5179 -.0229 0 .7355 32.941 51.044)" width="117.3" xlink:href="#e"/><use ffdec:characterId="4" height="117.3" transform="matrix(.7583 -.0335 0 1.077 20.62 31.578)" width="117.3" xlink:href="#e"/><use ffdec:characterId="5" height="168.9" transform="translate(45.6 143)" width="33.25" xlink:href="#f"/><use ffdec:characterId="6" height="90.2" transform="translate(18.85 123.15)" width="32.05" xlink:href="#g"/><use ffdec:characterId="7" height="92.1" transform="translate(71.8 120.85)" width="34.15" xlink:href="#h"/><use ffdec:characterId="8" height="94.95" transform="translate(34.65 64.7)" width="56.1" xlink:href="#i"/><use ffdec:characterId="9" height="50.9" transform="translate(9.1 76.8)" width="33.55" xlink:href="#j"/><use ffdec:characterId="10" height="62.35" transform="translate(77.85 64.85)" width="46.65" xlink:href="#k"/><use ffdec:characterId="11" height="11.2" transform="matrix(.5 -.864 .864 .5 56.568 145.482)" width="41.95" xlink:href="#l"/><use ffdec:characterId="12" height="9.05" transform="rotate(57.196 -82.442 94.851) scale(.9984)" width="39" xlink:href="#m"/></g><g id="d" transform="translate(.5 .5)"><use ffdec:characterId="2" height="204.1" transform="translate(99.65 -.5)" width="3.65" xlink:href="#n"/><use ffdec:characterId="2" height="204.1" transform="rotate(45.001 52.269 222.193)" width="3.65" xlink:href="#n"/><use ffdec:characterId="2" height="204.1" transform="rotate(89.994 51.895 151.71)" width="3.65" xlink:href="#n"/><use ffdec:characterId="2" height="204.1" transform="rotate(134.999 51.739 122.55)" width="3.65" xlink:href="#n"/><use ffdec:characterId="2" height="204.1" transform="matrix(.6758 .2809 -.2809 .6758 129.02 32.03)" width="3.65" xlink:href="#n"/><use ffdec:characterId="2" height="204.1" transform="rotate(67.573 31.377 163.08) scale(.7319)" width="3.65" xlink:href="#n"/><use ffdec:characterId="2" height="204.1" transform="rotate(112.564 42.456 121.576) scale(.7318)" width="3.65" xlink:href="#n"/><use ffdec:characterId="2" height="204.1" transform="matrix(-.6765 .2792 -.2792 -.6765 131.243 170.191)" width="3.65" xlink:href="#n"/></g><g id="n"><path d="M0 201.45V0q1.35-1.9 2.65 0v201.45q-1.5 1.45-2.65 0" fill="#ff0" fill-rule="evenodd" transform="translate(.5 1.45)"/><path d="M0 201.45V0q1.35-1.9 2.65 0v201.45q-1.5 1.45-2.65 0z" fill="none" stroke="#5c4101" stroke-linecap="round" stroke-linejoin="round" transform="translate(.5 1.45)"/></g><g id="e"><path d="M97.2 19.05Q81.05 2.9 58.15 2.9t-39.1 16.15Q2.9 35.25 2.9 58.15q0 22.85 16.15 39 16.2 16.2 39.1 16.2 22.9 0 39.05-16.2 16.2-16.15 16.2-39 0-22.9-16.2-39.1M99.25 17q17.05 17.05 17.05 41.15 0 24.1-17.05 41.1-17 17.05-41.1 17.05T17 99.25q-17-17-17-41.1T17 17Q34.05 0 58.15 0q24.1 0 41.1 17" fill="#ff0" fill-rule="evenodd" transform="translate(.5 .5)"/><path d="M97.2 19.05q16.2 16.2 16.2 39.1 0 22.85-16.2 39-16.15 16.2-39.05 16.2t-39.1-16.2Q2.9 81 2.9 58.15q0-22.9 16.15-39.1Q35.25 2.9 58.15 2.9q22.9 0 39.05 16.15M99.25 17q17.05 17.05 17.05 41.15 0 24.1-17.05 41.1-17 17.05-41.1 17.05T17 99.25q-17-17-17-41.1T17 17Q34.05 0 58.15 0q24.1 0 41.1 17z" fill="none" stroke="#5c4101" stroke-linecap="round" stroke-linejoin="round" transform="translate(.5 .5)"/></g><g id="f"><path d="m22.3 4.1.1 18.55.05.15 1.8 5.7q-7.6-1.4-10.75 27.9-4.4-30.5-8.55-26.05l1.6-6.1-.1-20.15H22.3" fill="#b3b300" fill-rule="evenodd" transform="translate(1.15 1.15)"/><path d="M24.25 28.5q.65 2.3 1.2 9.15Q20.4 23.45 17 63v9.6l.15 3.3q1.15 3.35 1.15 7.9 0 4.7-1.2 8.05l.05 9q.5 5.4 3.2-.2-4.9 34.25-6.95 31.9-2.1-2.4-5.2-33.95 1.55 6.55 2.7 1.4v-8.15Q9.7 88.5 9.7 83.8q0-4.45 1.05-7.75V62.4Q7.05 24.05 4.05 38q.35-5.05.9-7.65Q9.1 25.9 13.5 56.4q3.15-29.3 10.75-27.9" fill="#eded00" fill-rule="evenodd" transform="translate(1.15 1.15)"/><path d="M25.45 37.65q.2 3 2.15 18.65 1.95 15.65-.15 14.6-2.6-12.85-4.8-6.55L22.8 87l.05.25q1.15 13.65 8.1-.6-10 78.1-17.65 79.95Q5.85 163.45 0 81.5q4 16.6 6.95 3.55l-.1-20.75q-2.35-6.7-4.5 3.6-1.6-1.25-.05-14.15L4.05 38q3-13.95 6.7 24.4v13.65Q9.7 79.35 9.7 83.8q0 4.7 1.2 8.05V100q-1.15 5.15-2.7-1.4 3.1 31.55 5.2 33.95 2.05 2.35 6.95-31.9-2.7 5.6-3.2.2l-.05-9q1.2-3.35 1.2-8.05 0-4.55-1.15-7.9L17 72.6V63q3.4-39.55 8.45-25.35" fill="#fff" fill-rule="evenodd" transform="translate(1.15 1.15)"/><path d="m23.4 1.15.05 4.1.1 18.55.05.15 1.8 5.7q.65 2.3 1.2 9.15.2 3 2.15 18.65 1.95 15.65-.15 14.6Q26 59.2 23.8 65.5l.15 22.65.05.25q1.15 13.65 8.1-.6-10 78.1-17.65 79.95Q7 164.6 1.15 82.65q4 16.6 6.95 3.55L8 65.45q-2.35-6.7-4.5 3.6-1.6-1.25-.05-14.15L5.2 39.15q.35-5.05.9-7.65l1.6-6.1-.1-20.15-.05-3.55" fill="none" stroke="#433a1b" stroke-linecap="round" stroke-linejoin="round" stroke-width="2.3"/><path d="M25.45 37.65q.2 3 2.15 18.65 1.95 15.65-.15 14.6-2.6-12.85-4.8-6.55L22.8 87l.05.25q1.15 13.65 8.1-.6-10 78.1-17.65 79.95Q5.85 163.45 0 81.5q4 16.6 6.95 3.55l-.1-20.75q-2.35-6.7-4.5 3.6-1.6-1.25-.05-14.15L4.05 38q3-13.95 6.7 24.4v13.65Q9.7 79.35 9.7 83.8q0 4.7 1.2 8.05V100q-1.15 5.15-2.7-1.4 3.1 31.55 5.2 33.95 2.05 2.35 6.95-31.9-2.7 5.6-3.2.2l-.05-9q1.2-3.35 1.2-8.05 0-4.55-1.15-7.9L17 72.6V63q3.4-39.55 8.45-25.35" fill="#fff" fill-rule="evenodd" transform="translate(1.15 1.15)"/><path d="M24.25 28.5q.65 2.3 1.2 9.15Q20.4 23.45 17 63v9.6l.15 3.3q1.15 3.35 1.15 7.9 0 4.7-1.2 8.05l.05 9q.5 5.4 3.2-.2-4.9 34.25-6.95 31.9-2.1-2.4-5.2-33.95 1.55 6.55 2.7 1.4v-8.15Q9.7 88.5 9.7 83.8q0-4.45 1.05-7.75V62.4Q7.05 24.05 4.05 38q.35-5.05.9-7.65Q9.1 25.9 13.5 56.4q3.15-29.3 10.75-27.9" fill="#eded00" fill-rule="evenodd" transform="translate(1.15 1.15)"/><path d="m22.3 4.1.1 18.55.05.15 1.8 5.7q-7.6-1.4-10.75 27.9-4.4-30.5-8.55-26.05l1.6-6.1-.1-20.15H22.3" fill="#ab8703" fill-rule="evenodd" transform="translate(1.15 1.15)"/><path d="m22.3 4.1.1 18.55.05.15 1.8 5.7q.65 2.3 1.2 9.15.2 3 2.15 18.65 1.95 15.65-.15 14.6-2.6-12.85-4.8-6.55L22.8 87l.05.25q1.15 13.65 8.1-.6-10 78.1-17.65 79.95Q5.85 163.45 0 81.5q4 16.6 6.95 3.55l-.1-20.75q-2.35-6.7-4.5 3.6-1.6-1.25-.05-14.15L4.05 38q.35-5.05.9-7.65l1.6-6.1-.1-20.15L6.4.55M22.25 0l.05 4.1" fill="none" stroke="#73652f" stroke-linecap="round" stroke-linejoin="round" transform="translate(1.15 1.15)"/></g><g id="g"><path d="M.15 1.15q-.8-2.8 2.95 1.3 3.15 3.5 7 6.8 7.5 6.5 13.75 6.95.65 11.85 6.7 16.55-3.4 8.5-5 17.75-2.45 14 0 33.6.9 7.4-.95 2.9l-.95-5.65q-4.2-28.15 5.3-48-6.45-5.3-6.9-16.75-7.35-1-16.1-9.3L.15 1.15m19.3 26.55q-.35.1-.8.35-6.9 3.55-9.5 15.35Q7.5 50.95 7.6 61.9q.15 4.3-2 0-.05-3.7.15-7 1.05-21.75 10.9-26.85 2-1.1 2.8-.35" fill="#ab8703" fill-rule="evenodd" transform="translate(.75 .75)"/><path d="m.15 1.15 5.8 6.15q8.75 8.3 16.1 9.3.45 11.45 6.9 16.75-9.5 19.85-5.3 48L24.6 87q-14.55-24.75-5.15-54.4 1.05-4 0-4.9-.8-.75-2.8.35-9.85 5.1-10.9 26.85-.2 3.3-.15 7-3.05-9.4-3-17.8-.05-14 8.25-25.65L.15 1.15" fill="#ff0" fill-rule="evenodd" transform="translate(.75 .75)"/><path d="M25.35 87.75q1.85 4.5.95-2.9-2.45-19.6 0-33.6 1.6-9.25 5-17.75-6.05-4.7-6.7-16.55-6.25-.45-13.75-6.95-3.85-3.3-7-6.8Q.1-.9.9 1.9l10.7 17.3Q3.3 30.85 3.35 44.85q-.05 8.4 3 17.8 2.15 4.3 2 0-.1-10.95 1.55-18.5 2.6-11.8 9.5-15.35.45-.25.8-.35 1.05.9 0 4.9-9.4 29.65 5.15 54.4" fill="none" stroke="#5c4101" stroke-linecap="round" stroke-linejoin="round" stroke-width="1.5"/><path d="m.15 1.15 5.8 6.15q8.75 8.3 16.1 9.3.45 11.45 6.9 16.75-9.5 19.85-5.3 48L24.6 87m-19-25.1q-.05-3.7.15-7 1.05-21.75 10.9-26.85 2-1.1 2.8-.35" fill="none" stroke="#5c4101" stroke-linecap="round" stroke-linejoin="round" transform="translate(.75 .75)"/><path d="M4.75 47Q5 39.8 8 33.1q3.2-7.15 10.75-7.15Q16.3 27.1 14 28.4q-2.3 1.25-5.45 6.8-3.2 5.55-3.75 16.65L4.75 47m18.1-18.25 4.2 5.15Q24.8 38.7 23 46.45q-1.8 7.7-1.95 15.65-.15 8 1 14-2.5-6.6-2.6-13.85-.1-9.7 2.7-19.05 1.35-4.55 3.1-8.85l-1.15-2.1-1.25-3.5" fill="#ab8703" fill-rule="evenodd" transform="translate(.75 .75)"/></g><g id="h"><path d="M25.5 7.4 32.65 0 20.1 19.25q9.5 12.2 9.55 27.2-.05 9.05-3.45 19-.55-.9-.15-7.7 1.2-5.85 1.25-11.3-.05-15-9.35-27.2L25.5 7.4m-15 21.85q-1.35.85-.1 5.2 10.55 31.2-5.7 56.15-.9-.15.85-4.4Q17.9 62.9 8.5 34.45q-1.85-6.5 2-5.2" fill="#ab8703" fill-rule="evenodd" transform="translate(.75 .75)"/><path d="M26.05 57.75Q24.7 34.7 13.5 29.65q-2.1-1-3-.4-3.85-1.3-2 5.2Q17.9 62.9 5.55 86.2q5-29.8-5.55-50.8 6.9-5.6 7.55-17.45Q15.6 16.6 25.5 7.4l-7.55 11.85q9.3 12.2 9.35 27.2-.05 5.45-1.25 11.3" fill="#ff0" fill-rule="evenodd" transform="translate(.75 .75)"/><path d="M26.25 8.15 33.4.75 20.85 20q9.5 12.2 9.55 27.2-.05 9.05-3.45 19-.55-.9-.15-7.7-1.35-23.05-12.55-28.1-2.1-1-3-.4-1.35.85-.1 5.2 10.55 31.2-5.7 56.15-.9-.15.85-4.4 5-29.8-5.55-50.8 6.9-5.6 7.55-17.45 8.05-1.35 17.95-10.55" fill="none" stroke="#5c4101" stroke-linecap="round" stroke-linejoin="round" stroke-width="1.5"/><path d="m25.5 7.4-7.55 11.85q9.3 12.2 9.35 27.2-.05 5.45-1.25 11.3M10.5 29.25q-3.85-1.3-2 5.2Q17.9 62.9 5.55 86.2" fill="none" stroke="#5c4101" stroke-linecap="round" stroke-linejoin="round" transform="translate(.75 .75)"/><path d="m2.3 35.25 2.9-3.3L5 33.2q-.25 1.65-.7 1.7 4.45 11.15 4.75 21.85.25 10.7-.35 11.15.05-12.25-3.1-24.1-1.15-4.45-3.3-8.55M26.1 45.5q-1.45-7.05-5.55-12.7-4.15-5.8-11.1-5.7l6.15-.3q3.55.8 6.75 6.15 3.2 5.35 3.75 12.55" fill="#ab8703" fill-rule="evenodd" transform="translate(.75 .75)"/></g><g id="i"><path d="M55.1 70.35 65.5 41.2 63.65 6.65 55 4.35 67.35 0q6.6 21.2 9.5 41.65-6.8 31.6-17.2 51.3L48.7 80.75l-6.85 10.5q-9-20.6-16.3-47Q29.65 23.5 36.85.2l11.3 3.75-5.8 2.1q-4.15 19.55-5.8 37.3l8.15 27 .3 1 9.55.5.55-1.5" fill="#ff0" fill-rule="evenodd" transform="translate(-24.55 1)"/><path d="M67.35 0h2.05q1.9 4.85 4.7 14.6 2.75 9.75 5.55 26.65-7.1 32.75-20 51.7L49.2 83.6l-7.35 7.65 6.85-10.5 10.95 12.2q10.4-19.7 17.2-51.3Q73.95 21.2 67.35 0m-19.2 3.95-4.4 2.9L38.6 42.8l7.5 27.55h9l-.55 1.5-9.55-.5-.3-1-8.15-27q1.65-17.75 5.8-37.3l5.8-2.1m-2.05 66.4h-1.4 1.4" fill="#ab8703" fill-rule="evenodd" transform="translate(-24.55 1)"/><path d="m55.1 70.35-.55 1.5-9.55-.5-.3-1-8.15-27q1.65-17.75 5.8-37.3l5.8-2.1m-6.3 87.3 6.85-10.5 10.95 12.2q10.4-19.7 17.2-51.3Q73.95 21.2 67.35 0M44.7 70.35h1.4" fill="none" stroke="#5c4101" stroke-linecap="round" stroke-linejoin="round" transform="translate(-24.55 1)"/><path d="m30.55 71.35 10.4-29.15L39.1 7.65l-8.65-2.3L42.8 1h2.05q1.9 4.85 4.7 14.6 2.75 9.75 5.55 26.65Q48 75 35.1 93.95L24.65 84.6l-7.35 7.65q-9-20.6-16.3-47Q5.1 24.5 12.3 1.2l11.3 3.75-4.4 2.9-5.15 35.95 7.5 27.55h9z" fill="none" stroke="#5c4101" stroke-linecap="round" stroke-linejoin="round" stroke-width="2"/><path d="M50.7 12.8q2.75 2.3 4.9 8.35 2.2 5.95 2.2 15.15 0 9.15-2.2 16.15-2.15 6.85-5.2 9.05-3-.9-5.2-6.9-2.15-6.05-2.15-15.2 0-9.2 2.15-16.1 2.2-6.9 5.5-10.5m-1.3 9.9q-2 2.2-3.35 6.35-1.3 4.2-1.3 9.75t1.3 9.2q1.35 3.65 3.15 4.2 1.85-1.35 3.15-5.5 1.35-4.25 1.35-9.75 0-5.6-1.35-9.2-1.3-3.65-2.95-5.05 1.65 1.4 2.95 5.05 1.35 3.6 1.35 9.2 0 5.5-1.35 9.75-1.3 4.15-3.15 5.5-1.8-.55-3.15-4.2-1.3-3.65-1.3-9.2 0-5.55 1.3-9.75 1.35-4.15 3.35-6.35" fill="#ff0" fill-rule="evenodd" transform="translate(-24.55 1)"/><path d="M50.7 12.8q2.75 2.3 4.9 8.35 2.2 5.95 2.2 15.15 0 9.15-2.2 16.15-2.15 6.85-5.2 9.05-3-.9-5.2-6.9-2.15-6.05-2.15-15.2 0-9.2 2.15-16.1 2.2-6.9 5.5-10.5m-1.3 9.9q1.65 1.4 2.95 5.05 1.35 3.6 1.35 9.2 0 5.5-1.35 9.75-1.3 4.15-3.15 5.5-1.8-.55-3.15-4.2-1.3-3.65-1.3-9.2 0-5.55 1.3-9.75 1.35-4.15 3.35-6.35z" fill="none" stroke="#5c4101" stroke-linecap="round" stroke-linejoin="round" transform="translate(-24.55 1)"/><path d="m47 35.75.25.85q.3.5.7.5.45 0 .7-.5l.3-1.15-.3-1.2-.05-.1.2-.05q.9 0 1.5 1.05.65 1.05.65 2.5l-.3 1.85-.3-.8-.05-.1q-.25-.35-.65-.35t-.7.45q-.3.5-.3 1.2l.05.3.25.85.1.15h-.25q-.9 0-1.55-1.05-.6-1.05-.6-2.5 0-1.05.35-1.9" fill="red" fill-rule="evenodd" transform="translate(-24.55 1)"/><path d="m48.6 34.15.05.1.3 1.2-.3 1.15q-.25.5-.7.5-.4 0-.7-.5l-.25-.85.25-.6q.55-.9 1.35-1m.45 7.05-.1-.15-.25-.85-.05-.3q0-.7.3-1.2.3-.45.7-.45.4 0 .65.35l.05.1.3.8-.35.65q-.5.9-1.25 1.05" fill="#fff" fill-rule="evenodd" transform="translate(-24.55 1)"/><path d="M47 35.75q-.35.85-.35 1.9 0 1.45.6 2.5.65 1.05 1.55 1.05h.25q.75-.15 1.25-1.05l.35-.65.3-1.85q0-1.45-.65-2.5-.6-1.05-1.5-1.05l-.2.05q-.8.1-1.35 1l-.25.6zm1.9-1.65.5-11.4m-.6 18.5.4 11m.8-11.6 2.55 5.5m-1.65-7.75 2.75.95m-2.85-3.15L53.65 35m-3.7-.35 2.4-6.9m-4.9 7.05-1.1-6.7m.4 8.4-1.85-1.15m1.75 2.55-1.9.8m2.65 1.65-2.25 4.3" fill="none" stroke="#5c4101" stroke-linecap="round" stroke-linejoin="round" transform="translate(-24.55 1)"/><path d="m40.3 7.1-.45 2-.7 2.35q-1.1 3.45-1.8 7.05-1.55 7.75-2.1 15.65L35 42.1l.25 2.25.95 3.55.95 3.6 2.35 8.3 1.2 3.8q1.55 4.65 3.6 9.6h11.95l.5-1.2 3.15-7.25 2.75-6.6 2.3-5.8 2.6-7.1q1.75-5.7-.4-10.65l.65 1 1.7 2.1q1.3 1.55 1.3-.05V34.1l-.4-7.8-.8-7.75q-.65-5.85-2.05-11.7l1.3 4.3q4.4 14.8 5.75 30.15l-.1 1.45-.95 3.85-3.35 10.55-5.25 15.45-4.25 12.15-1.2 3.8-5.85-8.75q-1.15.5-.85 0h-5.65l-4.9 7.45-3.65-8.65-1.05-2.75q-2.25-5.75-4.2-11.65l-1.65-5.1q-2.25-7.15-3.65-14.25l.4.75 1.2.3 1.1.2q1.65-1.45 1.85-3.7l.35-3.35 1.05-7.2 1.3-7.45 1.3-6.75 1.1-4.4q.9-2.95 1.95-5.8l1.05-2.3-.4 1.95" fill="#ab8703" fill-rule="evenodd" transform="translate(-24.55 1)"/><path d="m44.8 29.8.8-4.45q1.2-5.7 4.85-11l-.45 6-2.35 3.3q-1.9 2.75-2.85 6.15m4.5 23.35-.2 6.4q-1.9-2.6-3.05-5.7-2.35-6.25-2.1-12.95.3 4.85 2.1 9.3.9 2.15 3.25 2.95M38.35 2.65l4.2 1.75h-3.5l-8.4 38.1q-2.35 1.95-3-.65L37.7 3.25l.65-.6" fill="#fff" fill-rule="evenodd" transform="translate(-24.55 1)"/></g><g id="j"><path d="M27.35 45.95 30 49.4q1.8 2.55 1.5 5.3-.35 2.75-1.85 4.2-1.55 1.4-2.8 1.8l-3.45.15q-2.15-.3-4.75-1.55-2.6-1.3-6.25-4.35-3.65-3.1-5.75-6.2-2.05-2.95-3.6-6.15Q1 38.2.3 33.25q-.65-4.5.2-9 .85-4.3 3.35-7.9Q5.8 13.6 8.8 12.4l3.75.2q2.4 1.35 4.1 3.75v1.35l-.05-.05-.5-.35-.65-.4-.35-.15-.25-.15-.95-.35-1.25-.25-1.9.1q-1.45.45-2.5 1.25-1 .75-1.65 1.85l-1.2 2.15-.85 2.4L4.2 25q-.45 1.8-.5 3.65l-.05 1.9.05 1.95.3 2.3.9 3.5.25.8.6 1.8 1.2 2.9.85 1.8.45.85 1.65 2.5 2.1 2.6.15.15L14.6 54l2.35 1.75 2.7 1.45 2.15.7 3 .25q1.7-.25 2.45-1.1.75-.9.9-2.55.1-1.7-.65-2.8l-1.1-1.1-.15-.2.1.15.05.05q1.05 2.2-.3 3.5-1.05 1.1-2.65.35-1.7-.7-2.8-2.3-1-2.8.4-5.25.65-1.2 2.1-1.65l3.3.15.9.55-.9-.55-3.3-.15q-1.45.45-2.1 1.65-1.4 2.45-.4 5.25 1.1 1.6 2.8 2.3 1.6.75 2.65-.35 1.35-1.3.3-3.5l-.05-.05-.1-.15.15.2 1.1 1.1q.75 1.1.65 2.8-.15 1.65-.9 2.55-.75.85-2.45 1.1l-3-.25-2.15-.7-2.7-1.45L14.6 54l-2.45-2.3-.15-.15-2.1-2.6-1.65-2.5-.45-.85-.85-1.8-1.2-2.9-.6-1.8-.25-.8-.9-3.5-.3-2.3-.05-1.95.05-1.9q.05-1.85.5-3.65l.35-1.25.85-2.4 1.2-2.15q.65-1.1 1.65-1.85 1.05-.8 2.5-1.25l1.9-.1 1.25.25.95.35.25.15.35.15.65.4.5.35.05.05v.75l.05 2.35q.15 2.8.7 5.55.6 3.05 1.7 6.05.8 2.35 1.95 4.65l1.05 2 1.6 2.55q1.6 2.3 3.65 4.35M12 51.55l.05-.8q.7-2.55 2.65-4.55 2-2.1 4.7-3.3 2.1-.9 4.3-1.3-2.2.4-4.3 1.3-2.7 1.2-4.7 3.3-1.95 2-2.65 4.55l-.05.8m9.05-14.5-2.95.55q-2.65.9-5.1 2.3-2.2 1.25-3.9 3.1-1.05 1.2-1.3 2.6.25-1.4 1.3-2.6 1.7-1.85 3.9-3.1 2.45-1.4 5.1-2.3l2.95-.55M5.15 39.1q.5-1.5 1.75-2.6l.85-.8q2.05-2.1 4.85-2.9 2.55-.75 5.25-.55l1.25.15-1.25-.15q-2.7-.2-5.25.55-2.8.8-4.85 2.9l-.85.8q-1.25 1.1-1.75 2.6m-1.5-8.55q1.4-1.65 3.4-2.75 1.85-1 3.85-1.5l1.8-.3 4.7.35-4.7-.35-1.8.3q-2 .5-3.85 1.5-2 1.1-3.4 2.75M16.7 20.8q-2.95-1.55-5.85-.55l-.95.35q-2.6 1.05-4.7 2.9l-.65.25.65-.25q2.1-1.85 4.7-2.9l.95-.35q2.9-1 5.85.55" fill="#ff0" fill-rule="evenodd" transform="translate(1 -11.05)"/><path d="M17.65 6.65V5.3q-1.7-2.4-4.1-3.75l-3.75-.2q-3 1.2-4.95 3.95-2.5 3.6-3.35 7.9-.85 4.5-.2 9 .7 4.95 2.75 9.35 1.55 3.2 3.6 6.15 2.1 3.1 5.75 6.2 3.65 3.05 6.25 4.35 2.6 1.25 4.75 1.55l3.45-.15q1.25-.4 2.8-1.8 1.5-1.45 1.85-4.2.3-2.75-1.5-5.3l-2.65-3.45-.9-.55-3.3-.15q-1.45.45-2.1 1.65-1.4 2.45-.4 5.25 1.1 1.6 2.8 2.3 1.6.75 2.65-.35 1.35-1.3.3-3.5l-.05-.05-.1-.15.15.2 1.1 1.1q.75 1.1.65 2.8-.15 1.65-.9 2.55-.75.85-2.45 1.1l-3-.25-2.15-.7-2.7-1.45-2.35-1.75-2.45-2.3-.15-.15-2.1-2.6-1.65-2.5-.45-.85-.85-1.8-1.2-2.9-.6-1.8-.25-.8-.9-3.5-.3-2.3-.05-1.95.05-1.9q.05-1.85.5-3.65l.35-1.25.85-2.4 1.2-2.15q.65-1.1 1.65-1.85 1.05-.8 2.5-1.25l1.9-.1 1.25.25.95.35.25.15.35.15.65.4.5.35.05.05v.75l.05 2.35q.15 2.8.7 5.55.6 3.05 1.7 6.05.8 2.35 1.95 4.65l1.05 2 1.6 2.55q1.6 2.3 3.65 4.35M5.55 12.7l.65-.25q2.1-1.85 4.7-2.9l.95-.35q2.9-1 5.85.55m.7 5.55-4.7-.35-1.8.3q-2 .5-3.85 1.5-2 1.1-3.4 2.75m15.45 1.85-1.25-.15q-2.7-.2-5.25.55-2.8.8-4.85 2.9l-.85.8q-1.25 1.1-1.75 2.6m2.65 6.5q.25-1.4 1.3-2.6 1.7-1.85 3.9-3.1 2.45-1.4 5.1-2.3l2.95-.55m2.65 4.55q-2.2.4-4.3 1.3-2.7 1.2-4.7 3.3-1.95 2-2.65 4.55l-.05.8" fill="none" stroke="#bc8800" stroke-linecap="round" stroke-linejoin="round" stroke-width="2"/><path d="m16.65 17.7-.05-.05-.5-.35-.65-.4-.35-.15-.25-.15-.95-.35-1.25-.25-1.9.1q-1.45.45-2.5 1.25-1 .75-1.65 1.85l-1.2 2.15-.85 2.4L4.2 25q-.45 1.8-.5 3.65l-.05 1.9.05 1.95.3 2.3.9 3.5.25.8.6 1.8 1.2 2.9.85 1.8.45.85 1.65 2.5 2.1 2.6.15.15L14.6 54l2.35 1.75 2.7 1.45 2.15.7 3 .25q1.7-.25 2.45-1.1.75-.9.9-2.55.1-1.7-.65-2.8l-1.1-1.1q1.05 2.2-.3 3.5-1.05 1.1-2.65.35-1.7-.7-2.8-2.3-1-2.8.4-5.25.65-1.2 2.1-1.65l3.3.15.9.55L30 49.4q1.8 2.55 1.5 5.3-.35 2.75-1.85 4.2-1.55 1.4-2.8 1.8l-3.45.15q-2.15-.3-4.75-1.55-2.6-1.3-6.25-4.35-3.65-3.1-5.75-6.2-2.05-2.95-3.6-6.15Q1 38.2.3 33.25q-.65-4.5.2-9 .85-4.3 3.35-7.9Q5.8 13.6 8.8 12.4l3.75.2q2.4 1.35 4.1 3.75v1.35m9.75 32.9-.15-.2.1.15.05.05-.05-.05-.1-.15.15.2" fill="#ff0" fill-rule="evenodd" transform="translate(1 -11.05)"/><path d="M16.7 20.8q-2.95-1.55-5.85-.55l-.95.35q-2.6 1.05-4.7 2.9l-.65.25.65-.25q2.1-1.85 4.7-2.9l.95-.35q2.9-1 5.85.55.15 2.8.7 5.55L12.7 26l-1.8.3q-2 .5-3.85 1.5-2 1.1-3.4 2.75 1.4-1.65 3.4-2.75 1.85-1 3.85-1.5l1.8-.3 4.7.35q.6 3.05 1.7 6.05-4.45-.6-8.4 1.1-3.8 1.55-5.55 5.6l-.25-.8-.9-3.5-.3-2.3-.05-1.95.05-1.9q.05-1.85.5-3.65l.35-1.25.85-2.4 1.2-2.15q.65-1.1 1.65-1.85 1.05-.8 2.5-1.25l1.9-.1 1.25.25.95.35.25.15.35.15.65.4.5.35.05.05v.75l.05 2.35m10.65 25.15-.9-.55-3.3-.15q-1.45.45-2.1 1.65-1.4 2.45-.4 5.25 1.1 1.6 2.8 2.3 1.6.75 2.65-.35 1.35-1.3.3-3.5l1.1 1.1q.75 1.1.65 2.8-.15 1.65-.9 2.55-.75.85-2.45 1.1l-3-.25-2.15-.7-2.7-1.45L14.6 54l-2.45-2.3-.15-.15-2.1-2.6-1.65-2.5-.45-.85-.85-1.8-1.2-2.9-.6-1.8q1.75-4.05 5.55-5.6 3.95-1.7 8.4-1.1.8 2.35 1.95 4.65l1.05 2 1.6 2.55q1.6 2.3 3.65 4.35M7.8 45.6q2.1-4.45 6.35-6.9 3.05-1.8 6.9-1.65-3.85-.15-6.9 1.65-4.25 2.45-6.35 6.9m4.2 5.95.05-.8q.7-2.55 2.65-4.55 2-2.1 4.7-3.3 2.1-.9 4.3-1.3-2.2.4-4.3 1.3-2.7 1.2-4.7 3.3-1.95 2-2.65 4.55l-.05.8" fill="#ffbc00" fill-rule="evenodd" transform="translate(1 -11.05)"/><path d="m4.55 23.75.65-.25q2.1-1.85 4.7-2.9l.95-.35q2.9-1 5.85.55l-.05-2.35v-.75l-.05-.05-.5-.35-.65-.4-.35-.15-.25-.15-.95-.35-1.25-.25-1.9.1q-1.45.45-2.5 1.25-1 .75-1.65 1.85l-1.2 2.15-.85 2.4L4.2 25q-.45 1.8-.5 3.65l-.05 1.9q1.4-1.65 3.4-2.75 1.85-1 3.85-1.5l1.8-.3 4.7.35q-.55-2.75-.7-5.55m-.05-3.1v-1.35q-1.7-2.4-4.1-3.75l-3.75-.2q-3 1.2-4.95 3.95-2.5 3.6-3.35 7.9-.85 4.5-.2 9Q1 38.2 3.05 42.6q1.55 3.2 3.6 6.15 2.1 3.1 5.75 6.2 3.65 3.05 6.25 4.35 2.6 1.25 4.75 1.55l3.45-.15q1.25-.4 2.8-1.8 1.5-1.45 1.85-4.2.3-2.75-1.5-5.3l-2.65-3.45-.9-.55-3.3-.15q-1.45.45-2.1 1.65-1.4 2.45-.4 5.25 1.1 1.6 2.8 2.3 1.6.75 2.65-.35 1.35-1.3.3-3.5l-.05-.05-.1-.15.15.2 1.1 1.1q.75 1.1.65 2.8-.15 1.65-.9 2.55-.75.85-2.45 1.1l-3-.25-2.15-.7-2.7-1.45L14.6 54l-2.45-2.3-.15-.15-2.1-2.6-1.65-2.5-.45-.85-.85-1.8-1.2-2.9-.6-1.8-.25-.8-.9-3.5-.3-2.3-.05-1.95M19.1 32.4q-4.45-.6-8.4 1.1-3.8 1.55-5.55 5.6m13.95-6.7q-1.1-3-1.7-6.05m6.3 15.25q-2.2.4-4.3 1.3-2.7 1.2-4.7 3.3-1.95 2-2.65 4.55l-.05.8m9.05-14.5q-3.85-.15-6.9 1.65-4.25 2.45-6.35 6.9m19.55.35Q25.3 43.9 23.7 41.6l-1.6-2.55-1.05-2q-1.15-2.3-1.95-4.65" fill="none" stroke="#bc8800" stroke-linecap="round" stroke-linejoin="round" transform="translate(1 -11.05)"/><path d="m25.25 47-.65.05.05.05q-.85.6-.85 1.1l.2.65.05.1q.75.35.85 1.75l-.3.6-.9.3q-1.05 0-1.4-1.25l-.15-1.3q-.1-.7.15-1.35.5-1.25 2.2-1.25l1.2.15q1.3.1 2.4 1.35l.1.2 1.15 2.35.05.2-1.15-1.9q-.85-.9-1.9-1.55l-1.1-.25" fill="#ffff56" fill-rule="evenodd" transform="translate(1 -11.05)"/><path d="M8.4 19.15q.75-.75 2.05-1.35l-.95 1.05-.25.4q.45-.3 1.35-.5l2-.1 2.4.55h-.15l-3.9.1q-2.2.6-3.35 1.25.05-.7.8-1.4m.95 3.65-.8.4q-.7.35-.9.7l-.25.4q0 .25.15.4l.75.15 3.95-.25h1.2q.7 0 1.7.45l-1.5-.15-1.95.25-2.75.7-1.7.7q-.5.2-1.5.9-.35-1.6.55-3.4l1.75-.95q.8-.5 1.75-.7l.6-.2-.15.05-.6.4h-.1l-.05.05-.15.1m8 8.05H15.2l-.9.1-.9.15-.4.1-.7.3-.8.3q-.8.3-1.55.7l-2.5 1.45L6.1 35.1q-.55-.9-.7-2.3-.2-1.4.2-2.65.4-.35.9-.6 1.2-.8 2.6-1.45l.9-.3-1.3.95q-1.35 1.2-1.35 2.15l.1.45q.2.4.9.4l2.35-.55 5.65-.6 1 .25M9.7 45.15l.15-.4.35-.55q.85-1.25 1.8-2.15l1.1-.8q.15-.15.4-.25v.05q-.4.25-.9 1.05-.8 1.2-.8 1.85l.05.5q.15.45.65.5l.35-.1.7-.6 1.35-1.2q.9-.7 2.2-1.15 2.1-.8 3.2-.95l1.35-.1.1.05h-.3l-.8.2-2.25.9q-1.1.5-1.8 1.1l-1.25.9q-.55.35-1.65 1.8l.2-.3-1.45 1.8-.6.9q-1.75-.95-2.15-3.05m9.35-9.3h-.15q-1.3 0-2.5.5l-1.55.6-1.75.95-1.2.85-1.15.9-1.3 1.45-1.2 1.35Q7 40.85 6.85 38.4l.35-.65.95-1.15.8-.7.7-.5-.35.55q-.45.9-.45 1.35l.05.45.3.35.1.1.2.05.35-.05q.65-.05 1.8-.9 1.5-.75 2.5-1 1.95-.8 4.9-.45m-4.5 12.6.25-.45.7-.75.75-.7.65-.5-.55 1.3-.55 1.35-.05.35.05.65.25.45.4.2.85-1.3.9-1.75 1.1-1.25.8-.75.95-.65 1.05-.4 1.2-.35-2.5 1.95q-.95 1-1.5 2.2-.25.65-.35 1.35l-.1 1.3.05.75.1.7.25.8.65 1.85q-2.95-.65-4.9-2.9l-1.35-1.65.9-1.8" fill="#896400" fill-rule="evenodd" transform="translate(1 -11.05)"/><path d="m9.35 22.8.15-.1.15-.05.6-.4.15-.05 3.25-.6 1.5.3.85.55q.3 1.2.05 2.3l-.45-1q-.6-1.3-2.8-1.3-1.6 0-3.1.55-1.15.4-1.55.9.25-.5 1.05-1l.15-.1m3.15-5.6 1.65.1q1 .2 1.45.9l-.1.8q-.3-1.35-1.9-1.35l-2.8.35q-.5.15-.75.35.4-.35.85-.6.75-.35 1.6-.55m3.75 10.45.5 1.2.5 1.35q-1.75-1.75-3.7-1.85l-3.15.3q-1.2.4-1.85.9.65-.85 1.55-1.35 2.6-1.3 5.4-.65l.75.1m-5.95 8.2 1.2-1.1q1.8-.9 3.75-1.3l3.3-.1.55 2.3q-.9-.9-2.5-1.35-1.6-.45-3.6.35-2 .75-3.45 2.15l.75-.95m7.85 3.8-1.55.5q-.8.2-1.25.5l-.95.6-.9.9-.6.65v-.05l1.1-1.5 1.2-.95 1.7-.9 1.35-.45.6-.25 1.65-.1 1 2.05-2.15-1.25-1.2.25m1 5.3-1.05.85q-.75.6-1.45 1.65.25-.65.65-1.15l1.1-1.3.55-.45q.9-.7 1.9-1.3 1.25-.75 2.5-.55l.7 1.35q-1.05-.95-2.55-.5l-.6.25-1.35.85-.4.3" fill="#ffff56" fill-rule="evenodd" transform="translate(1 -11.05)"/></g><g id="k"><path d="m89.15 48.15 3.5-2.9 1.6-1.5q3.35-3.1 5.9-6.8 2.7-4 4.65-8.2l.55-1.1q2.35-4.2 2.85-8.65l.05-1.35q-.1-3.5-1.65-6.75l-.55-.55q-1.15-1.45-3.9-1.05-1.25.2-2.05.6-2.2 1.15-3.6 3.45-.85 1.4-1.35 2.95V16q.15-4.35.85-8.6l.4-1.9q.6-2.15 2.05-3.6 1.55-1.65 4-1.75 4.35-.5 7.25 2.7 2.05 2.3 2.85 5 1.45 4.55.45 9.3-1.05 4.9-3.25 9.35-1.7 3.4-3.95 6.75l-5.45 7.85-3.3 4.4-5.2 5.4q-3.1 2.85-8.55 6.45l1.5-1.85 1.9-2.65q1.15-1.65 2.2-4.1l.25-.6" fill="#f9d000" fill-rule="evenodd" transform="translate(-67.75 .9)"/><path d="M95.15 16.3q.5-1.55 1.35-2.95 1.4-2.3 3.6-3.45.8-.4 2.05-.6 2.75-.4 3.9 1.05l.55.55q1.55 3.25 1.65 6.75L108.2 19q-.5 4.45-2.85 8.65l-.55 1.1q-1.95 4.2-4.65 8.2-2.55 3.7-5.9 6.8l-1.6 1.5-3.5 2.9 1.5-4.2.9-3.2.7-2.6 1.45-8.2.9-7.6.2-1.9.35-4.15" fill="#e0ad00" fill-rule="evenodd" transform="translate(-67.75 .9)"/><path d="m89.15 48.15-.25.6q-1.05 2.45-2.2 4.1l-1.9 2.65-1.5 1.85-1.2 1.05q-1.9 1.5-4.25 1.9-2.9.5-5.45-.9-2.6-1.45-3.35-4.25-.5-2.1-.1-4.55.45-2.6 1.95-4.55 1.9-2.4 5.05-2.35l.15.05 1.9 1q.85.6 1.55 2.65.65 2 0 4.05-.7 1.95-2 2.5l-2.2.15-.65-.4q-1.75-1.85-1.45-4.3-.95.55-1.35 1.9-.2.65-.15 1.4l.2 1.25q.1.7.5 1.3l.25.35.35.5q.85.9 2.25 1.25l2.8-.2q2.65-.9 4.55-3.2l1.25-1.55q-2.2-1.65-2.9-4.45l-.55-2.05q-.7-2.7-1-5.4.3 2.7 1 5.4l.55 2.05q.7 2.8 2.9 4.45l1.3-2 .65-1.1.4-.8.4-.85.7-1.65-.7 1.65-.4.85-.4.8-.65 1.1-1.3 2-1.25 1.55q-1.9 2.3-4.55 3.2l-2.8.2q-1.4-.35-2.25-1.25l-.35-.5-.25-.35q-.4-.6-.5-1.3l-.2-1.25q-.05-.75.15-1.4.4-1.35 1.35-1.9-.3 2.45 1.45 4.3l.65.4 2.2-.15q1.3-.55 2-2.5.65-2.05 0-4.05-.7-2.05-1.55-2.65l-1.9-1-.1-.1 3.45-3.15 3.8-4.2 3.4-4.6q2.65-4.05 4.6-8.6l.2-.45.7-1.8Q94.65 14.3 96 7.4q-.7 4.25-.85 8.6v.3l-.35 4.15-.2 1.9-.9 7.6-1.45 8.2-.7 2.6-.9 3.2-1.5 4.2m2.1-25.05-.45 5-.9 5.75-.5 3.05-.2 1.25q-1.3-2.05-2.05-4.4l-.5-2.05.5 2.05q.75 2.35 2.05 4.4l.2-1.25.5-3.05.9-5.75.45-5M89.2 38.15l-.8 4.1L87.35 46q-2.3-2.95-3.4-6.65l-.7-3.05.7 3.05q1.1 3.7 3.4 6.65l1.05-3.75.8-4.1" fill="#ff0" fill-rule="evenodd" transform="translate(-67.75 .9)"/><path d="m21.4 49.05-.25.6q-1.05 2.45-2.2 4.1l-1.9 2.65-1.5 1.85q5.45-3.6 8.55-6.45l5.2-5.4 3.3-4.4 5.45-7.85Q40.3 30.8 42 27.4q2.2-4.45 3.25-9.35 1-4.75-.45-9.3-.8-2.7-2.85-5-2.9-3.2-7.25-2.7-2.45.1-4 1.75-1.45 1.45-2.05 3.6l-.4 1.9q-.7 4.25-.85 8.6v.3l-.35 4.15-.2 1.9-.9 7.6-1.45 8.2-.7 2.6-.9 3.2-1.5 4.2m2.3-25.5.7-1.8q2.5-6.55 3.85-13.45M23.7 23.55l-.2.35v.1l.2-.45m-4.8 9.05.5 2.05q.75 2.35 2.05 4.4l.2-1.25.5-3.05.9-5.75.45-5q-1.95 4.55-4.6 8.6l-3.4 4.6.7 3.05q1.1 3.7 3.4 6.65l1.05-3.75.8-4.1M11.7 41.4q.3 2.7 1 5.4l.55 2.05q.7 2.8 2.9 4.45l1.3-2 .65-1.1.4-.8.4-.85.7-1.65M8.35 44.65l-.15-.05q-3.15-.05-5.05 2.35-1.5 1.95-1.95 4.55-.4 2.45.1 4.55.75 2.8 3.35 4.25 2.55 1.4 5.45.9 2.35-.4 4.25-1.9l1.2-1.05m-7.2-13.6 1.9 1q.85.6 1.55 2.65.65 2 0 4.05-.7 1.95-2 2.5L7.6 55l-.65-.4Q5.2 52.75 5.5 50.3q-.95.55-1.35 1.9-.2.65-.15 1.4l.2 1.25q.1.7.5 1.3l.25.35.35.5q.85.9 2.25 1.25l2.8-.2q2.65-.9 4.55-3.2l1.25-1.55M11.7 41.4l-3.45 3.15-.05.05m7.3-7.4-3.8 4.2" fill="none" stroke="#bc8800" stroke-linecap="round" stroke-linejoin="round" stroke-width="2"/><path d="m101.75.1 1.5-.1q2.8-.1 4.9 1.85 1.75 1.65 2.8 3.55l1.35 3.05q.55 1.9.65 3.95l-.15 4.05q-.3 2.35-1.1 4.75-.8 2.55-2.25 4.8l1.1-2.55q1.05-2.7 1.4-5.3.35-2.65.2-4.6l-.55-4.2q-.45-2.25-2.35-4.9-1.95-2.7-5.2-3.55-1.85-.35-3.2.85-2.8 2.3-4.6 8.05.25 1.9.05 10.65-.3 5.1-.95 10.05-.95 7.4-3.75 14.15l-.8 1.75q-2.4 5.25-6 9.8l3.2-5.35q1.5-2.7 2.9-6.65 1.35-3.9 2.35-8.6 1.35-6.7 1.9-14.25.5-7.55 1.05-11.85l.05.1q.5-4.35 1.4-6Q99.1.9 101.75.1" fill="#ff0" fill-rule="evenodd" transform="translate(-67.75 .9)"/><path d="m107.15 12.1-.55-1.2-.55-.55q-1.15-1.45-3.9-1.05-1.25.2-2.05.6l-1.65 1.15.9-5.05.85-5.35 2.25-.5q4.35-.5 7.25 2.7l.1.1-.8 2.75-1.85 6.4" fill="#c39e00" fill-rule="evenodd" transform="translate(-67.75 .9)"/><path d="M107.15 12.1 109 5.7l.8-2.75q1.95 2.25 2.75 4.9 1.45 4.55.45 9.3-1.05 4.9-3.25 9.35-1.7 3.4-3.95 6.75l-5.45 7.85-3.3 4.4-5.2 5.4q-3.1 2.85-8.55 6.45l1.5-1.85 1.9-2.65q1.15-1.65 2.2-4.1l.25-.6 3.5-2.9 1.6-1.5q3.35-3.1 5.9-6.8 2.7-4 4.65-8.2l.55-1.1q2.35-4.2 2.85-8.65l.05-1.35q-.1-2.85-1.1-5.55" fill="#cea800" fill-rule="evenodd" transform="translate(-67.75 .9)"/><path d="m98.45 11.05 1.65-1.15q.8-.4 2.05-.6 2.75-.4 3.9 1.05l.55.55.55 1.2-.55 1.65-1.65 5.25q-1.05 3.45-2.7 6.7l-3.65 7.45q-2.1 4.5-4.9 8.6l-4.2 5.4 1.15-3.2.9-3.2.4-1.5.05-.1.25-1q.75-3 1.3-7l.05-.15v-.15l.05-.05q1.65-4.3 2.65-8.75l1.5-7.5.65-3.5M93.6 31l.05-.2-.05.2" fill="#af8300" fill-rule="evenodd" transform="translate(-67.75 .9)"/><path d="m89.5 47.15 4.2-5.4q2.8-4.1 4.9-8.6l3.65-7.45q1.65-3.25 2.7-6.7l1.65-5.25.55-1.65q1 2.7 1.1 5.55L108.2 19q-.5 4.45-2.85 8.65l-.55 1.1q-1.95 4.2-4.65 8.2-2.55 3.7-5.9 6.8l-1.6 1.5-3.5 2.9.35-1" fill="#c19300" fill-rule="evenodd" transform="translate(-67.75 .9)"/><path d="M100.2.65 99.35 6l-.9 5.05q-1.1.95-1.95 2.3-.85 1.4-1.35 2.95V16q.15-4.35.85-8.6l.4-1.9q.6-2.15 2.05-3.6L100.2.65" fill="#fff400" fill-rule="evenodd" transform="translate(-67.75 .9)"/><path d="m93.6 31-.05.15q-.55 4-1.3 7l-.25 1-.05.1-.4 1.5-.9 3.2-1.15 3.2-.35 1-.25.6q-1.05 2.45-2.2 4.1l-1.9 2.65-1.5 1.85-1.2 1.05q-1.9 1.5-4.25 1.9-3.25.6-5.65-.85-2.4-1.5-3.15-4.3-.5-2.1-.1-4.55.45-2.6 1.95-4.55 1.9-2.4 5.05-2.35l.15.05 1.9 1q.85.6 1.55 2.65.65 2 0 4.05-.7 1.95-2 2.5l-2.2.15-.65-.4q-1.75-1.85-1.45-4.3-.95.55-1.35 1.9-.2.65-.15 1.4l.2 1.25q.1.7.5 1.3l.25.35.35.5q.85.9 2.25 1.25l2.8-.2q2.65-.9 4.55-3.2l1.25-1.55 1.3-2 .65-1.1.4-.8.4-.85.7-1.65 1.05-3.75.8-4.1.2-1.25.5-3.05.9-5.75.45-5 .2-.45.7-1.8Q94.65 14.3 96 7.4q-.7 4.25-.85 8.6v.3l-.35 4.15-.2 1.9-.9 7.6-.05.85-.05.05V31" fill="#ff0" fill-rule="evenodd" transform="translate(-67.75 .9)"/><path d="m98.45 11.05-.65 3.5-1.5 7.5q-1 4.45-2.65 8.75l.05-.85.9-7.6.2-1.9.35-4.15q.5-1.55 1.35-2.95.85-1.35 1.95-2.3" fill="#f6b200" fill-rule="evenodd" transform="translate(-67.75 .9)"/><path d="m83.25 36.3 3.4-4.6.5 2.05q.75 2.35 2.05 4.4-1.3-2.05-2.05-4.4l-.5-2.05q2.65-4.05 4.6-8.6l-.45 5-.9 5.75-.5 3.05-.2 1.25-.8 4.1L87.35 46l-.7 1.65-.4.85-.4.8-.65 1.1-1.3 2-1.25 1.55q-1.9 2.3-4.55 3.2l-2.8.2q-1.4-.35-2.25-1.25l-.35-.5-.25-.35q-.4-.6-.5-1.3l-.2-1.25q-.05-.75.15-1.4.4-1.35 1.35-1.9-.3 2.45 1.45 4.3l.65.4 2.2-.15q1.3-.55 2-2.5.65-2.05 0-4.05-.7-2.05-1.55-2.65l-1.9-1-.1-.1 3.45-3.15 3.8-4.2.7 3.05q1.1 3.7 3.4 6.65-2.3-2.95-3.4-6.65l-.7-3.05m-3.8 4.2q.3 2.7 1 5.4l.55 2.05q.7 2.8 2.9 4.45-2.2-1.65-2.9-4.45l-.55-2.05q-.7-2.7-1-5.4" fill="#ffbc00" fill-rule="evenodd" transform="translate(-67.75 .9)"/><path d="m109.8 2.95-.1-.1q-2.9-3.2-7.25-2.7l-2.25.5-1.75 1.25Q97 3.35 96.4 5.5L96 7.4q-.7 4.25-.85 8.6v.3l-.35 4.15-.2 1.9-.9 7.6-.05.85-.05.2-.05.15q-.55 4-1.3 7l-.25 1m-.05.1-.4 1.5-.9 3.2-1.15 3.2-.35 1-.25.6q-1.05 2.45-2.2 4.1l-1.9 2.65-1.5 1.85q5.45-3.6 8.55-6.45l5.2-5.4 3.3-4.4 5.45-7.85q2.25-3.35 3.95-6.75 2.2-4.45 3.25-9.35 1-4.75-.45-9.3-.8-2.65-2.75-4.9m-18.35 19.7-.2.35v.1l.2-.45.7-1.8Q94.65 14.3 96 7.4m-9.35 24.3-3.4 4.6.7 3.05q1.1 3.7 3.4 6.65l1.05-3.75.8-4.1q-1.3-2.05-2.05-4.4l-.5-2.05q2.65-4.05 4.6-8.6l-.45 5-.9 5.75-.5 3.05-.2 1.25M83.9 52.4l1.3-2 .65-1.1.4-.8.4-.85.7-1.65M76.1 43.75l1.9 1q.85.6 1.55 2.65.65 2 0 4.05-.7 1.95-2 2.5l-2.2.15-.65-.4q-1.75-1.85-1.45-4.3-.95.55-1.35 1.9-.2.65-.15 1.4l.2 1.25q.1.7.5 1.3l.25.35.35.5q.85.9 2.25 1.25l2.8-.2q2.65-.9 4.55-3.2l1.25-1.55q-2.2-1.65-2.9-4.45l-.55-2.05q-.7-2.7-1-5.4L76 43.65l-.05.05q-3.15-.05-5.05 2.35-1.5 1.95-1.95 4.55-.4 2.45.1 4.55.75 2.8 3.15 4.3 2.4 1.45 5.65.85 2.35-.4 4.25-1.9l1.2-1.05m-7.2-13.6-.15-.05m7.3-7.4-3.8 4.2" fill="none" stroke="#bc8800" stroke-linecap="round" stroke-linejoin="round" transform="translate(-67.75 .9)"/><path d="m84.2 36.7 1.2 2.8q.9 2.3 1.5.9l.65-2.2-.1-1.15.25.45q.5.95 0 2.8l-1 2.55q-.6.75-2.5-6.05v-.1m3.55-5.2.95 1.9 1.1-2.85q-.35 1.15-.5 3.15-.1 1.2-.55 1.2-.45 0-.85-1.45L87.55 32l.05-.4.15-.1m-3.9 15.3q.65-.5.75-1.85l-.2-1.85.45.75 1.35 2.1-.05.2-1.05 2.25-.55.95-.7.7q-.85 0-1.6-2.2-.7-1.5-1.2-3.65-.55-2.2-.6-3.6h.15l.1.4 1.5 3.65q1 2.65 1.65 2.15m2.6-.45-.05.05.05-.1v.05m-4.25 7-1.45 1.5q-2.2 1.65-4.45 1.65-1.6 0-2.7-1.2-.75-.85-.8-1.45l.65.8q1.25 1.25 2.7 1.25 1.25 0 2.65-.75l1.2-.85.5-.55.4-.4.4-.65-.25-1.15q-.55-1.1-.6-1.85h.15q.65 1.3 1.55 2.05l.5.45-.45 1.15" fill="#896400" fill-rule="evenodd" transform="translate(-67.75 .9)"/><path d="M88.3 30.45q0-.4.4-.45l.6-1.2-.1-.05-.05-.25.1-.25.5-.1v.05l.15-.1.05.25-.05.15-.05.25-.15.1-.6 1.15.2.45q0 .5-.45.5l-.3-.05-.5.65-.35-.1.6-.85v-.15m-4.25 5.75.15-.5 1.1-1 .4-.4.8-1.05.2.45v.9l.2 1.65-.05.2h-.1l-.35-1.05-.45.25q-.5 0-.65-.35v-.15l-1.05 1.35-.2-.3m-1.2 3.5.35 1.05.75 2.75-.05.05-.7-1.4-.7-1.5-.15.2-.45.2q-.45 0-.6-.4l-.05-.25.05-.3-.4.2.55-.9.9-1.05.1-.1.05.2.35 1.25m-3.7 3.35 1.7 5.9q-1.9-4.4-2.25-5.95l-.65.5-.4-.05-.1-.3.9-1.15q.9-.95.9.2l-.1.85m-6.95 4.5q-.7.65-1.15 2.05-.4 1.3-.45 2.6l.2 2.1q-.65-.65-.65-3.25 0-1.05.5-2.35.55-1.45 1.4-2.2l.15-.1q2.25-2.05 4.25-1.4 1.8.6 1.8 2.25 0 1.6-1.55 1.6-1.1 0-1.7-.9-.65-.95-1.4-.95-.8 0-1.4.55" fill="#ffff56" fill-rule="evenodd" transform="translate(-67.75 .9)"/></g><g id="l"><path d="M35.3 3.1q3.55 1.25 5.35 1.2 1.35-.05-3.9 1.25l-10.1 2.3 3.9.4Q23.3 10.95 16.5 9.9q-6.7-1-10.25-4.15L4.7 4.6Q2.1 2.9 0 3.75 1 2.05 6.75.9q5.9-1.25 13.7-.75Q28.2.65 33.3 2.4l2 .7" fill="#151515" fill-rule="evenodd" transform="translate(.5 .5)"/><path d="M35.3 3.1q3.55 1.25 5.35 1.2 1.35-.05-3.9 1.25l-10.1 2.3 3.9.4Q23.3 10.95 16.5 9.9q-6.7-1-10.25-4.15L4.7 4.6Q2.1 2.9 0 3.75 1 2.05 6.75.9q5.9-1.25 13.7-.75Q28.2.65 33.3 2.4l2 .7z" fill="none" stroke="#5c4101" stroke-linecap="round" stroke-linejoin="round" transform="translate(.5 .5)"/><path d="M12.1.5q1.2.2 1.8 1.2.55.95.15 2.15-.4 1.15-1.55 1.8-1.15.7-2.4.45-1.2-.2-1.75-1.15-.6-1-.2-2.2Q8.6 1.6 9.75.9 10.9.25 12.1.5" fill="red" fill-rule="evenodd" transform="translate(.5 .5)"/><path d="m11.65 2.1-.85.15q-.45-.05-.65-.4-.2-.35-.05-.75.15-.4.6-.65l.9-.2q.45 0 .65.35t.05.8l-.65.7" fill="#fff" fill-rule="evenodd" transform="translate(.5 .5)"/></g><g id="m"><path d="M13.05 5.8Q-1.9 2.9.25 2.95 2.4 3 7.3 1.55 12.25.3 19.5.05L32.2.8q4.3.85 5.8 2.7-4.15-1.45-6.8 1.45-2.7 2.9-9.95 3.1-5.3.2-11.95-1.95l3.75-.3" fill="#151515" fill-rule="evenodd" transform="translate(.5 .5)"/><path d="m13.05 5.8-3.75.3q6.65 2.15 11.95 1.95 7.25-.2 9.95-3.1 2.65-2.9 6.8-1.45-1.5-1.85-5.8-2.7L19.5.05Q12.25.3 7.3 1.55 2.4 3 .25 2.95-1.9 2.9 13.05 5.8z" fill="none" stroke="#5c4101" stroke-linecap="round" stroke-linejoin="round" transform="translate(.5 .5)"/><path d="M27.4 1.25q1.15.75 1.55 1.9.4 1.2-.15 2.1-.6.95-1.85 1-1.2.15-2.35-.6-1.2-.75-1.65-1.95-.4-1.15.2-2.1.55-.9 1.8-1 1.25-.1 2.45.65" fill="red" fill-rule="evenodd" transform="translate(.5 .5)"/><path d="m24.5 2.8.6.7-.05.75-.65.4-.9-.25-.55-.7q-.15-.45.05-.8l.65-.35q.45-.05.85.25" fill="#fff" fill-rule="evenodd" transform="translate(.5 .5)"/></g><path d="M28.75 0q11.9 0 20.3 2.35Q57.5 4.7 57.5 8q0 3.3-8.45 5.65Q40.65 16 28.75 16T8.4 13.65Q0 11.3 0 8q0-3.3 8.4-5.65Q16.85 0 28.75 0" fill-opacity=".349" fill-rule="evenodd" id="c"/><path d="M0 39.15V0h33.05v39.15H0" fill-opacity="0" fill-rule="evenodd" id="b"/></defs></svg>