<svg xmlns:ffdec="https://www.free-decompiler.com/flash" xmlns:xlink="http://www.w3.org/1999/xlink" ffdec:objectType="frame" height="90" width="90" xmlns="http://www.w3.org/2000/svg"><use ffdec:characterId="31" height="90" transform="translate(-1.75) scale(.9997)" width="92.15" xlink:href="#a"/><defs><g id="a" transform="translate(1.75)"><use ffdec:characterId="29" height="208.1" transform="matrix(.3982 0 0 .3983 -1.768 3.627)" width="231.5" xlink:href="#b"/><use ffdec:characterId="30" height="125.1" transform="scale(.6694 .7194)" width="134.45" xlink:href="#c"/></g><g id="b" transform="translate(108.15 180.45)"><use ffdec:characterId="1" height="52.6" transform="translate(-103.65 -26.3)" width="180.1" xlink:href="#d"/><use ffdec:characterId="2" height="36.8" transform="translate(-10.05 -130.6)" width="39.5" xlink:href="#e"/><use ffdec:characterId="3" height="50" transform="translate(-28.9 -145.8)" width="66.05" xlink:href="#f"/><use ffdec:characterId="4" height="57.15" transform="translate(39.3 -110.85)" width="76.3" xlink:href="#g"/><use ffdec:characterId="5" height="76.4" transform="translate(25.3 -157.25)" width="98.05" xlink:href="#h"/><use ffdec:characterId="6" height="20.35" transform="translate(24.1 -33.2)" width="18.55" xlink:href="#i"/><use ffdec:characterId="7" height="54" transform="translate(30.6 -77.65)" width="19.9" xlink:href="#j"/><use ffdec:characterId="8" height="66.3" transform="translate(18.2 -115.55)" width="31.85" xlink:href="#k"/><use ffdec:characterId="9" height="59" transform="translate(-25.55 -170.65)" width="73.85" xlink:href="#l"/><use ffdec:characterId="10" height="70" transform="translate(-6.1 -180.45)" width="83.95" xlink:href="#m"/><use ffdec:characterId="11" height="64.85" transform="translate(16.7 -171.25)" width="81.85" xlink:href="#n"/><use ffdec:characterId="12" height="19.8" transform="translate(-101 -5.25)" width="24.95" xlink:href="#o"/><use ffdec:characterId="13" height="43.1" transform="translate(-88.65 -41.7)" width="26.7" xlink:href="#p"/><use ffdec:characterId="14" height="27.05" transform="translate(7.1 -81.5)" width="17" xlink:href="#q"/><use ffdec:characterId="15" height="16.8" transform="translate(-4.8 -40.5)" width="22.45" xlink:href="#r"/><use ffdec:characterId="16" height="21.9" transform="translate(3 -58.45)" width="20.05" xlink:href="#s"/><use ffdec:characterId="17" height="85.4" transform="translate(-43.5 -120.25)" width="88.4" xlink:href="#t"/><use ffdec:characterId="18" height="22.7" transform="translate(-36.75 .6)" width="24.2" xlink:href="#u"/><use ffdec:characterId="19" height="38.65" transform="translate(-27.5 -33.1)" width="20.25" xlink:href="#v"/><use ffdec:characterId="20" height="44.55" transform="translate(-46.05 -64.85)" width="39.25" xlink:href="#w"/><use ffdec:characterId="21" height="63.75" transform="translate(-92.15 -138.95)" width="27.4" xlink:href="#x"/><use ffdec:characterId="22" height="64.15" transform="translate(-52.4 -112.25)" width="56.1" xlink:href="#y"/><use ffdec:characterId="23" height="70.2" transform="translate(-85.9 -77.85)" width="55.25" xlink:href="#z"/><use ffdec:characterId="24" height="45.95" transform="translate(-49.75 -69.85)" width="31.35" xlink:href="#A"/><use ffdec:characterId="25" height="61.5" transform="translate(-103.4 -112.45)" width="67.4" xlink:href="#B"/><use ffdec:characterId="26" height="8.6" transform="translate(-64.5 -114.85)" width="12.9" xlink:href="#C"/><use ffdec:characterId="27" height="48.5" transform="translate(-62.65 -125.95)" width="35.3" xlink:href="#D"/><use ffdec:characterId="28" height="15.25" transform="translate(-78.85 -82.7)" width="19.05" xlink:href="#E"/></g><g id="e"><path d="M19.75 0q8.2 0 13.95 5.4 5.8 5.4 5.8 13t-5.8 13q-5.75 5.4-13.95 5.4t-14-5.4Q0 26 0 18.4t5.75-13q5.8-5.4 14-5.4" fill="#a7b6b3" fill-rule="evenodd"/><path d="M19.75 0q8.2 0 13.95 5.4 5.8 5.4 5.8 13t-5.8 13q-5.75 5.4-13.95 5.4t-14-5.4Q0 26 0 18.4t5.75-13q5.8-5.4 14-5.4z" fill="none" stroke="#a37d56" stroke-linecap="round" stroke-linejoin="round" stroke-width=".05"/></g><g id="f"><path d="M52.2 30.1q-3.4-12.85-16.95-10.95Q22.2 22.7 21.55 33.2l.4 3.1-.6-1q-3.55 3.55-4.45 6.65-1.75 1.25-4.15-1.4-.25 2-.95 3.55-4.2-2.7-7.6-7.15-6.6-9.65-2.8-18.6 4.9-12.1 18.8-17.2Q37.7-2 53.8 3.55q16.9 9.55 6 21.6l-7.6 4.95" fill="#fbfcf6" fill-rule="evenodd" transform="translate(1 1)"/><path d="M11.8 44.1q.7-1.55.95-3.55 2.4 2.65 4.15 1.4.9-3.1 4.45-6.65l.6 1q2.3 11.3 17.75 8.3l2.9-.65q-2.45 2.35-11.2 3.6-11.35 1.75-19.6-3.45" fill="#c90229" fill-rule="evenodd" transform="translate(1 1)"/><path d="M28.6 36.9q-1.25-1.9-3.1-1.65-1.4.4-1.95 1.25-1 .3-1.6-.2l-.4-3.1q.65-10.5 13.7-14.05Q48.8 17.25 52.2 30.1l-5.6 3.65q-1.3-6.65-6.4-8.8-5.6-.25-9.8 4.6-3.2 3.35-1.8 7.35" fill="#d0d9d8" fill-rule="evenodd" transform="translate(1 1)"/><path d="M21.95 36.3q.6.5 1.6.2.55-.85 1.95-1.25 1.85-.25 3.1 1.65l.1.25q1 2.55 3.9 5.4 3.4 2.4 7.1 2.05-15.45 3-17.75-8.3" fill="#a50423" fill-rule="evenodd" transform="translate(1 1)"/><path d="M12.8 45.1q8.25 5.2 19.6 3.45 8.75-1.25 11.2-3.6l-2.9.65q-3.7.35-7.1-2.05-2.9-2.85-3.9-5.4" fill="none" stroke="#55020c" stroke-linecap="round" stroke-linejoin="round" stroke-width="2"/><path d="M29.6 37.9q-1.4-4 1.8-7.35 4.2-4.85 9.8-4.6 5.1 2.15 6.4 8.8l5.6-3.65 7.6-4.95q10.9-12.05-6-21.6Q38.7-1 21.2 2.15 7.3 7.25 2.4 19.35q-3.8 8.95 2.8 18.6 3.4 4.45 7.6 7.15" fill="none" stroke="#798378" stroke-linecap="round" stroke-linejoin="round" stroke-width="2"/></g><g id="g"><path d="M32.7 54q-5.45-1.45-11.5-4.6Q5.6 41.7.8 17.4l-.6-3.1L0 13 2.2 0q5.35 0 12.2 8.2 15.95 16.15 28.55 17.45Q45.1 22.4 55 18.4l2.35-1.85q4.55-1.45 5.85-3.95.05 2.75-1.4 4.8 4.9-.4 8-2 .35 3.5-1.6 6.2 3.7-1.95 4.2.25 1.65.5 1.25 3-1.4 4.25-5.8 8.7l-.65.45q-9.05 5.85-21.9 6.7-13.75-.7-16.8-6.5-7.45-1.35-13.4-5.4Q16.6 39.85 32.7 54m15.95-28.55-5.7.2 5.7-.2" fill="#a7b6b3" fill-rule="evenodd" transform="translate(1 1)"/><path d="M32.7 54Q16.6 39.85 15.1 28.8q5.95 4.05 13.4 5.4 3.05 5.8 16.8 6.5 12.85-.85 21.9-6.7l.05.15q-3.65 8.35-8.4 13.45l-3.25 3q-9.7 6.85-22.9 3.4m31.1-16.8 3.45-3.05-3.45 3.05" fill="#d0d9d8" fill-rule="evenodd" transform="translate(1 1)"/><path d="M73.65 24.85q.4-2.5-1.25-3-.5-2.2-4.2-.25 1.95-2.7 1.6-6.2-3.1 1.6-8 2 1.45-2.05 1.4-4.8-1.3 2.5-5.85 3.95 6.25-5.9 1.45-14.75 5.05.1 8.6 4 5.4 5.75 6.6 12.8.7 3.05-.35 6.25" fill="#a50423" fill-rule="evenodd" transform="translate(1 1)"/><path d="m67.2 34 .65-.45-.6.6-.05-.15" fill="#fbfcf6" fill-rule="evenodd" transform="translate(1 1)"/><path d="M43.95 26.65Q31.35 25.35 15.4 9.2 8.55 1 3.2 1L1 14l.2 1.3.6 3.1q4.8 24.3 20.4 32 6.05 3.15 11.5 4.6 13.2 3.45 22.9-3.4l3.25-3q4.75-5.1 8.4-13.45L64.8 38.2m4.05-3.65q4.4-4.45 5.8-8.7m-16.3-8.3L56 19.4q-9.9 4-12.05 7.25l5.7-.2m18.6 8.7.6-.6" fill="none" stroke="#798378" stroke-linecap="round" stroke-linejoin="round" stroke-width="2"/><path d="M74.65 25.85q1.05-3.2.35-6.25-1.2-7.05-6.6-12.8-3.55-3.9-8.6-4 4.8 8.85-1.45 14.75" fill="none" stroke="#55020c" stroke-linecap="round" stroke-linejoin="round" stroke-width="2"/></g><g id="h"><path d="M71.1 18.45q0-3.2-.55-6.45-1-5.9-3.75-12 4.85 2.15 9.4 5.4 5.6 3.95 10.65 9.6-6.25-.25-13.05-4.6-1.35.55-2.7 8.05" fill="#a50423" fill-rule="evenodd" transform="translate(1 1)"/><path d="M57 68.9q3.7 2.75 8.4 2.5-7.85 4.35-18.8 2.4-7.15-1.1-22.8-17.5-11-12.85-17.5-3.4l-1.4-1.2q7.65-8.4 18.5-2.3 13.15 7.65 27.8 4.4Q67.85 49.6 76 36.4q4.4-9.05 1.2-21.6 11.15 9.45 12.8 21 1.45 14.85-13 26-14.05 6.8-23.6 3.4 1.65 2.25 3.6 3.7" fill="#fbfcf6" fill-rule="evenodd" transform="translate(1 1)"/><path d="m86.85 15 3.55 4.2q6.8 8.75 5.4 21.6-.8 13.05-17.2 22.6-11.35 7.75-21.6 5.5-1.95-1.45-3.6-3.7 9.55 3.4 23.6-3.4 14.45-11.15 13-26-1.65-11.55-12.8-21 3.2 12.55-1.2 21.6-8.15 13.2-24.8 17.4-14.65 3.25-27.8-4.4-10.85-6.1-18.5 2.3L0 47.4q6.3-12.35 23.4-2.8Q53.05 55.7 66.8 36q4.3-8.5 4.3-17.55 1.35-7.5 2.7-8.05 6.8 4.35 13.05 4.6" fill="#d0d9d8" fill-rule="evenodd" transform="translate(1 1)"/><path d="M72.1 19.45q0-3.2-.55-6.45-1-5.9-3.75-12 4.85 2.15 9.4 5.4 5.6 3.95 10.65 9.6" fill="none" stroke="#55020c" stroke-linecap="round" stroke-linejoin="round" stroke-width="2"/><path d="m87.85 16 3.55 4.2q6.8 8.75 5.4 21.6-.8 13.05-17.2 22.6-11.35 7.75-21.6 5.5 3.7 2.75 8.4 2.5-7.85 4.35-18.8 2.4-7.15-1.1-22.8-17.5-11-12.85-17.5-3.4l-1.4-1.2L1 48.4q6.3-12.35 23.4-2.8Q54.05 56.7 67.8 37q4.3-8.5 4.3-17.55M54.4 66.2q1.65 2.25 3.6 3.7" fill="none" stroke="#798378" stroke-linecap="round" stroke-linejoin="round" stroke-width="2"/></g><g id="i"><path d="M15.8 3.05q.9 4.05.7 7.4 0 2.8-1.6 4-2 3.25-4.9 3.15-.9.75-2.3.75-3.6-.4-4.1-2.9-4.2-3.05-3.5-4.4v-3.9q.25-2.6 2.5-3.2 2.65-.4 5.5-3.9 4.8-.35 7.7 3m-11.7 8.8q-.75 2.15-.5 3.6-.25-1.45.5-3.6m7.6.9q-.1 3.55-1.7 4.85 1.6-1.3 1.7-4.85" fill="#fbfcf6" fill-rule="evenodd" transform="translate(1 1)"/><path d="M16.8 4.05q.9 4.05.7 7.4 0 2.8-1.6 4-2 3.25-4.9 3.15-.9.75-2.3.75-3.6-.4-4.1-2.9-4.2-3.05-3.5-4.4v-3.9q.25-2.6 2.5-3.2 2.65-.4 5.5-3.9 4.8-.35 7.7 3" fill="none" stroke="#798378" stroke-linecap="round" stroke-linejoin="round" stroke-width="2"/><path d="M11 18.6q1.6-1.3 1.7-4.85m-8.1 2.7q-.25-1.45.5-3.6" fill="none" stroke="#798378" stroke-linecap="round" stroke-linejoin="round" stroke-width=".05"/></g><g id="j"><path d="M2.15 28.4v-.1Q2.1 25.9 0 25l5.7-11.6q7.75 5.65 2.8 10.8-3.8 4-6.35 4.2M10.5 3.7 12.3 0q2 8.2 4.4 11.2 2.15 3.3.5 6.6-2.8 8.5-4.8 17.6-1.85 8.05-3.1 16.6l-1.9-.65q.7-7.15 2.15-15.95 1.05-6.55 2.55-14 1.7-4.45.6-7.4-2.1-2.95-2.2-10.3" fill="#d0d9d8" fill-rule="evenodd" transform="translate(1 1)"/><path d="M2.15 28.4q2.55-.2 6.35-4.2 4.95-5.15-2.8-10.8l4.8-9.7q.1 7.35 2.2 10.3 1.1 2.95-.6 7.4-1.5 7.45-2.55 14Q8.1 44.2 7.4 51.35 3.3 49.7.4 46.8q1-4.1 1.45-11.4l.3-6.6v-.4" fill="#fbfcf6" fill-rule="evenodd" transform="translate(1 1)"/><path d="M6.7 14.4 1 26q2.1.9 2.15 3.3v.5l-.3 6.6Q2.4 43.7 1.4 47.8m5.3-33.4 4.8-9.7L13.3 1q2 8.2 4.4 11.2 2.15 3.3.5 6.6-2.8 8.5-4.8 17.6-1.85 8.05-3.1 16.6" fill="none" stroke="#798378" stroke-linecap="round" stroke-linejoin="round" stroke-width="2"/></g><g id="k"><path d="M17.45.25Q15.65 22.45 2 43.85.8 38.85.5 33.7q-1.35-10.3.9-20.2Q4.25 2.3 15 0l2.45.25" fill="#d0d9d8" fill-rule="evenodd" transform="translate(1 1)"/><path d="M17.45.25Q26 1.7 28.1 10.6q3.35 9.45.2 20.8-1.5 3.85-3.3 12.8-1.45 5.85-5 11.7-1.65 4.9-3.7 7.4l-3.2.4q-2.05 1.9-3.4-2Q4.25 53.05 2 43.85 15.65 22.45 17.45.25" fill="#fbfcf6" fill-rule="evenodd" transform="translate(1 1)"/><path d="M26 45.2q1.8-8.95 3.3-12.8 3.15-11.35-.2-20.8Q27 2.7 18.45 1.25L16 1Q5.25 3.3 2.4 14.5q-2.25 9.9-.9 20.2.3 5.15 1.5 10.15 2.25 9.2 7.7 17.85 1.35 3.9 3.4 2l3.2-.4q2.05-2.5 3.7-7.4" fill="none" stroke="#798378" stroke-linecap="round" stroke-linejoin="round" stroke-width="2"/></g><g id="l"><path d="M5.05 50q-11.3-16.1 2.8-33-6-3.25-7.2-7 8.05 3.75 15.4 1.25l.8-.3.1.2Q8.35 17.5 8.45 29q2.55-4.4 4.4-4.6-.7 1.4-1.1 2.9-2.55 2.1-4.3 5.1-3.6 6.45-3.75 11.45Q3.55 47.3 5.05 50" fill="#c90229" fill-rule="evenodd" transform="translate(1 1)"/><path d="M5.05 50q-1.5-2.7-1.35-6.15l.75-.05q-.5 1.4.6 6.2m6.7-22.7q.4-1.5 1.1-2.9-1.85.2-4.4 4.6-.1-11.5 8.5-17.85l-.1-.2.8-.3 1.1-.4Q26.9 11.3 38.85 9q8.6-.5 15.8 7l3.6 3.8-3.2-1.4q15.65 13.35-.7 37.9l-2.3-.7q12.95-25.55-9.4-32-21.25-4.35-30.9 3.7" fill="#fbfcf6" fill-rule="evenodd" transform="translate(1 1)"/><path d="M18.75 10.25q4.6-2 8.7-5.85.8-.65 1.8-1.2Q34.6.1 44.85 0q18.45.8 25.2 22 7 21.35-13.4 35l-2.3-.7q16.35-24.55.7-37.9l3.2 1.4-3.6-3.8q-7.2-7.5-15.8-7-11.95 2.3-20.1 1.25m33.3 45.35-4.6-1.4q7.15-13.2-5-15.6 4.6-2.25 1.2-3.8-3.35-1.1-8.4-1.6l-8.9-.4h-.7q-8.7.2-13 5.4l-.6.95q-1.9-6.4-.3-11.85 9.65-8.05 30.9-3.7 22.35 6.45 9.4 32" fill="#d0d9d8" fill-rule="evenodd" transform="translate(1 1)"/><path d="M3.7 43.85q.15-5 3.75-11.45 1.75-3 4.3-5.1-1.6 5.45.3 11.85-3.75 6.05 1.6 10.45-4.95-.4-9.2-5.8l-.75.05" fill="#a50423" fill-rule="evenodd" transform="translate(1 1)"/><path d="m17.85 11.95-.8.3Q9.7 14.75 1.65 11q1.2 3.75 7.2 7-14.1 16.9-2.8 33-1.1-4.8-.6-6.2 4.25 5.4 9.2 5.8-5.35-4.4-1.6-10.45" fill="none" stroke="#55020c" stroke-linecap="round" stroke-linejoin="round" stroke-width="2"/><path d="m17.85 11.95.8-.3 1.1-.4q4.6-2 8.7-5.85.8-.65 1.8-1.2Q35.6 1.1 45.85 1q18.45.8 25.2 22 7 21.35-13.4 35l-2.3-.7-2.3-.7-4.6-1.4q7.15-13.2-5-15.6 4.6-2.25 1.2-3.8-3.35-1.1-8.4-1.6l-8.9-.4h-.7q-8.7.2-13 5.4l-.6.95" fill="none" stroke="#798378" stroke-linecap="round" stroke-linejoin="round" stroke-width="2"/></g><g id="m"><path d="M9.2 20q.6-3.75 2.6-6.85Q6.7 16.9 0 13.4q7-.6 11.2-7.2Q15.9.45 33.4 0q11.1 1.65 17 3.8l3 1.7Q28.2-1.45 21.8 7.35q5.45 1.4 7.95 3.3Q13.5 10.4 9.2 20" fill="#c90229" fill-rule="evenodd" transform="translate(1 1)"/><path d="M50.4 3.8q1.95.7 3.3 1.45L57 6.5l-3.6-1Q75.05 18 72.8 31.6q-2.5 9.55-14.6 15-7.55 2.55-14.3 2.8l.3-1q.9-3.45.8-7 .25-5.7-2.6-8.35-1.15-1.1-2.8-1.65l2.8-.25 1.1.05-1.1-1.9Q38 22.3 31 19.1q-1.35-2.65-6.6-5.3 2.4-2.7 6.4-2.2l-1.05-.95q-2.5-1.9-7.95-3.3 6.4-8.8 31.6-1.85l-3-1.7" fill="#fbfcf6" fill-rule="evenodd" transform="translate(1 1)"/><path d="M31 19.1q-3.05-1.4-6.6-2.1-10-1.7-12.6 4-1.65 5.1 1.2 10.2Q8.75 27.95 9.2 20q4.3-9.6 20.55-9.35l1.05.95q-4-.5-6.4 2.2 5.25 2.65 6.6 5.3" fill="#a50423" fill-rule="evenodd" transform="translate(1 1)"/><path d="M57 6.5q1.65.7 3.2 1.5 2.4 1.15 4.6 2.55 6.15 3.9 10.6 9.25 13.45 18.35-.8 31.6-4.7 3.85-9.8 6.9Q52.1 65.85 37 68l-6.5-1.3Q41 58.55 43.9 49.4q6.75-.25 14.3-2.8 12.1-5.45 14.6-15Q75.05 18 53.4 5.5l3.6 1" fill="#d0d9d8" fill-rule="evenodd" transform="translate(1 1)"/><path d="M10.2 21q.6-3.75 2.6-6.85Q7.7 17.9 1 14.4q7-.6 11.2-7.2Q16.9 1.45 34.4 1q11.1 1.65 17 3.8M32 20.1q-3.05-1.4-6.6-2.1-10-1.7-12.6 4-1.65 5.1 1.2 10.2-4.25-3.25-3.8-11.2" fill="none" stroke="#55020c" stroke-linecap="round" stroke-linejoin="round" stroke-width="2"/><path d="M51.4 4.8q1.95.7 3.3 1.45L58 7.5q1.65.7 3.2 1.5 2.4 1.15 4.6 2.55 6.15 3.9 10.6 9.25 13.45 18.35-.8 31.6-4.7 3.85-9.8 6.9Q53.1 66.85 38 69l-6.5-1.3Q42 59.55 44.9 50.4l.3-1q.9-3.45.8-7 .25-5.7-2.6-8.35-1.15-1.1-2.8-1.65l2.8-.25 1.1.05-1.1-1.9Q39 23.3 32 20.1" fill="none" stroke="#798378" stroke-linecap="round" stroke-linejoin="round" stroke-width="2"/></g><g id="n"><path d="M73.55 23.3q-1.8-5.55-6-9.65Q68.05 8.8 63.6 0q15 12.75 16.15 29.45-1.6-6.65-5.95-11.85.15 3-.25 5.7" fill="#a50423" fill-rule="evenodd" transform="translate(1 1)"/><path d="M54.95 23.9 55 23Q53.55 9.9 37.8 2.4q23.9.9 29.4 12.8l.35-1.55q4.2 4.1 6 9.65-.9 5.95-4.55 10.5-.8-8.65-11.4-14.4 0 4.2-2.65 4.5" fill="#c90229" fill-rule="evenodd" transform="translate(1 1)"/><path d="M54.95 23.9q2.65-.3 2.65-4.5Q68.2 25.15 69 33.8q3.65-4.55 4.55-10.5 1.85 5.65 1.2 12.8Q72.85 48.85 61.8 55q-12.7 7.05-27.4 1.6-5.6-3-15.2-4.4-9.5-1.4-12.8 9.4L0 58.4q.7-11.85 13-13.2L25.8 43q8.75-.45 19-3.8 9.25-4.15 10.15-15.3" fill="#fbfcf6" fill-rule="evenodd" transform="translate(1 1)"/><path d="M79.75 29.45Q80 33 79.6 36.8q-1.15 15.85-17 23.6-13.45 6.45-36.6-4.2Q12.5 52 8.4 62.6l-2-1q3.3-10.8 12.8-9.4 9.6 1.4 15.2 4.4 14.7 5.45 27.4-1.6 11.05-6.15 12.95-18.9.65-7.15-1.2-12.8.4-2.7.25-5.7 4.35 5.2 5.95 11.85" fill="#d0d9d8" fill-rule="evenodd" transform="translate(1 1)"/><path d="m68.55 14.65-.35 1.55Q62.7 4.3 38.8 3.4 54.55 10.9 56 24l-.05.9m12.6-10.25Q69.05 9.8 64.6 1q15 12.75 16.15 29.45" fill="none" stroke="#55020c" stroke-linecap="round" stroke-linejoin="round" stroke-width="2"/><path d="M80.75 30.45Q81 34 80.6 37.8q-1.15 15.85-17 23.6-13.45 6.45-36.6-4.2Q13.5 53 9.4 63.6l-2-1L1 59.4q.7-11.85 13-13.2L26.8 44q8.75-.45 19-3.8 9.25-4.15 10.15-15.3" fill="none" stroke="#798378" stroke-linecap="round" stroke-linejoin="round" stroke-width="2"/></g><g id="o"><path d="m20.7 1.75.7.55q2.1 3.2 1.4 5.3-.95 2.6-2.6 3.35-2.5.95-7 4.25-.75.6-1.4 2-.6.9-1.8.4L8.35 17q2.7-6.15 12.35-15.25" fill="#d0d9d8" fill-rule="evenodd" transform="translate(1 1)"/><path d="M15 0q3.3 0 5.7 1.75Q11.05 10.85 8.35 17l-.25-.2q-.5 1.4-2.65.8-1.6-.45-2.4-1.75-1.3.15-2.35-.45t-.5-2.6l.95-3.6q0-.65 1.35-1.25 3.85-1.6 5.9-3.9Q12.1.45 15 0M8.1 16.8q-.05-.55 1.1-3.2-1.15 2.65-1.1 3.2m-5.25-1.3.2.35-.2-.35q.3-1.95 1.6-3.8-1.3 1.85-1.6 3.8" fill="#fbfcf6" fill-rule="evenodd" transform="translate(1 1)"/><path d="M10.2 14.6q-1.15 2.65-1.1 3.2m-5.25-1.3q.3-1.95 1.6-3.8" fill="none" stroke="#798378" stroke-linecap="round" stroke-linejoin="round" stroke-width=".05"/><path d="M22.4 3.3q2.1 3.2 1.4 5.3-.95 2.6-2.6 3.35-2.5.95-7 4.25-.75.6-1.4 2-.6.9-1.8.4L9.35 18l-.25-.2q-.5 1.4-2.65.8-1.6-.45-2.4-1.75-1.3.15-2.35-.45t-.5-2.6l.95-3.6q0-.65 1.35-1.25 3.85-1.6 5.9-3.9Q13.1 1.45 16 1M4.05 16.85l-.2-.35" fill="none" stroke="#798378" stroke-linecap="round" stroke-linejoin="round" stroke-width="2"/></g><g id="p"><path d="M0 37.55q2.7-3.15 4.55-6.7l5.4-13.95Q13.3 6.8 14.85 0l7 7.8Q9.45 23.15 6.5 40.25v.05Q3.1 39.25 0 37.55" fill="#fbfcf6" fill-rule="evenodd" transform="translate(1 1)"/><path d="m21.85 7.8 2.85 3.15q-5.6 4.95-9.7 13.3-2.5 5-4.45 11.2-.95 4.15-.8 5.65l-3.25-.8v-.05Q9.45 23.15 21.85 7.8" fill="#d0d9d8" fill-rule="evenodd" transform="translate(1 1)"/><path d="M1 38.55q2.7-3.15 4.55-6.7l5.4-13.95Q14.3 7.8 15.85 1l7 7.8 2.85 3.15q-5.6 4.95-9.7 13.3-2.5 5-4.45 11.2-.95 4.15-.8 5.65" fill="none" stroke="#798378" stroke-linecap="round" stroke-linejoin="round" stroke-width="2"/></g><g id="q"><path d="M0 25.05 1.8 4 15 0q-5.75 18.3-.7 22.15 1.2.5 0 1.2-2.05 1-8.3 2.2-4.55.35-6-.5" fill="#a7b6b3" fill-rule="evenodd" transform="translate(1 1)"/><path d="M1 26.05 2.8 5 16 1q-5.75 18.3-.7 22.15" fill="none" stroke="#798378" stroke-linecap="round" stroke-linejoin="round" stroke-width="2"/></g><g id="r"><path d="M19.2 8.85q-.9.6-2.25.85-3.4 1.15-5.2 3.45-1.45 1.95-3.45 1.5l-.2.05-2.3-.05q-2.1-.55-2.65-1.9Q1.1 12.9 0 11.1q.15-2.85 1.15-6.35.3-1.75 1.95-1.5 4-.5 7.2-2.95 4.5-.85 8.65.85l1.5 4.4q.05 1.85-1.25 3.3m-11 .95q-.75 2.6-.1 4.9-.65-2.3.1-4.9M3.95 7q-1 2.2-.8 5.75-.2-3.55.8-5.75" fill="#a7b6b3" fill-rule="evenodd" transform="translate(1 1)"/><path d="M20.2 9.85q-.9.6-2.25.85-3.4 1.15-5.2 3.45-1.45 1.95-3.45 1.5l-.2.05-2.3-.05q-2.1-.55-2.65-1.9Q2.1 13.9 1 12.1q.15-2.85 1.15-6.35.3-1.75 1.95-1.5 4-.5 7.2-2.95 4.5-.85 8.65.85l1.5 4.4q.05 1.85-1.25 3.3" fill="none" stroke="#798378" stroke-linecap="round" stroke-linejoin="round" stroke-width="2"/><path d="M4.15 13.75q-.2-3.55.8-5.75m4.15 7.7q-.65-2.3.1-4.9" fill="none" stroke="#798378" stroke-linecap="round" stroke-linejoin="round" stroke-width=".05"/></g><g id="s"><path d="M4.15 1.95 18.05 0q-6.4 10.85-7.35 19.25-5.75 3.05-10.7.4 3.2-3.45 4.15-17.7" fill="#a7b6b3" fill-rule="evenodd" transform="translate(1 1)"/><path d="M5.15 2.95Q4.2 17.2 1 20.65m10.7-.4q.95-8.4 7.35-19.25" fill="none" stroke="#798378" stroke-linecap="round" stroke-linejoin="round" stroke-width="2"/></g><g id="t"><path d="M64.4 44.4q-7.35 2.95-14 14-3.85 8.75-9.6 14.9-3.7 4-8.2 6.9-16.2 8.25-30.3-4.8-6.5-21.2 5.2-39.1L9.8 33q16.7-10.25 31.4-22Q51.7 1.45 62.4.4q14.2-2.2 24 7.6l-22 36.4" fill="#fbfcf6" fill-rule="evenodd" transform="translate(1 1)"/><path d="M87.4 9q-9.8-9.8-24-7.6Q52.7 2.45 42.2 12 27.5 23.75 10.8 34l-2.3 3.3Q-3.2 55.2 3.3 76.4q14.1 13.05 30.3 4.8 4.5-2.9 8.2-6.9 5.75-6.15 9.6-14.9 6.65-11.05 14-14" fill="none" stroke="#798378" stroke-linecap="round" stroke-linejoin="round" stroke-width="2"/></g><g id="u"><path d="M21.75 3q1.45 5.35-1.6 6.1-3 .95-7.1 6.7-.4.9 0 1.45-.1 1.8-1.55 2.95-.85.6-2.8.55l-.2-.05q-.4-.2-.55-.8-.45-1.55.75-5.85l-.25-.1.1-.2Q10.1 10.3 14.85 5q2.1-2.1 2.4-4.6l1.2.3q2.1.85 3.3 2.3" fill="#d0d9d8" fill-rule="evenodd" transform="translate(1 .95)"/><path d="M17.25.4q-.3 2.5-2.4 4.6-4.75 5.3-6.3 8.75l-.1.2.25.1q-1.2 4.3-.75 5.85l-.5.3-1.75.2-.5-.4-.6-.7-.9.05q-1.35-.05-1.85-.8l-1.7-1.3q-.35-.35.2-1.4.55-1.7.95-4.7.35-2.75 1.85-2.6h1.6q3.8-2.5 5.6-5.1Q11.8 1.2 13.1.05l4.15.35M4.9 13.75l-.7 3.1q-.25 1.45.4 2.45-.65-1-.4-2.45l.7-3.1q-2.1 5.2-1.2 5.6-.9-.4 1.2-5.6l.5-1.25.25-.55-.25.55-.5 1.25m2.55 6.45-.05-.1v-.05q-.6-1.4.3-4.5.25-.9.85-1.8-.6.9-.85 1.8-.9 3.1-.3 4.5v.05l.05.1" fill="#fbfcf6" fill-rule="evenodd" transform="translate(1 .95)"/><path d="M8.95 20.85q.15.6.55.8l.2.05q1.95.05 2.8-.55 1.45-1.15 1.55-2.95-.4-.55 0-1.45 4.1-5.75 7.1-6.7 3.05-.75 1.6-6.1m-13.8 16.9-.5.3-1.75.2-.5-.4-.6-.7-.9.05q-1.35-.05-1.85-.8l-1.7-1.3q-.35-.35.2-1.4.55-1.7.95-4.7.35-2.75 1.85-2.6h1.6q3.8-2.5 5.6-5.1Q12.8 2.15 14.1 1" fill="none" stroke="#798378" stroke-linecap="round" stroke-linejoin="round" stroke-width="2"/><path d="M9.7 15q-1.2 4.3-.75 5.85M4.7 20.3q-.9-.4 1.2-5.6l.5-1.25.25-.55m2.9 1.8q-.6.9-.85 1.8-.9 3.1-.3 4.5v.05l.05.1m-2.85-.9q-.65-1-.4-2.45l.7-3.1" fill="none" stroke="#798378" stroke-linecap="round" stroke-linejoin="round" stroke-width=".05"/></g><g id="v"><path d="M7.25 36.4q.8-1.6.75-3.4 1.2-12.75 4.75-29l.4-1.9-.5-1.9L16.7 0q-.55 3.3 1.3 4.9.75.9-.7 3.8-5.05 11.95-5.8 22.1.3 4.5 1 5.8l-5.25-.2" fill="#d0d9d8" fill-rule="evenodd" transform="translate(1 1.05)"/><path d="m12.65.2.5 1.9-.4 1.9Q9.2 20.25 8 33q.05 1.8-.75 3.4l-4.35-.2q.5-4.65-.5-13.5-.55-5.3-.3-6 .25-3.2-1-4.6L0 10.6Q3.2 1.4 12.65.2" fill="#fbfcf6" fill-rule="evenodd" transform="translate(1 1.05)"/><path d="M13.65 1.25Q4.2 2.45 1 11.65l1.1 1.5q1.25 1.4 1 4.6-.25.7.3 6 1 8.85.5 13.5m9.6.4q-.7-1.3-1-5.8.75-10.15 5.8-22.1 1.45-2.9.7-3.8-1.85-1.6-1.3-4.9l-4.05.2" fill="none" stroke="#798378" stroke-linecap="round" stroke-linejoin="round" stroke-width="2"/></g><g id="w"><path d="m31.3 36.8.4-1.9q-1.75-6.1-2.9-12.4-2.55 8.9-8.05 15.8-3.4-4.25-9.4-6.25Q6.6 24.2 0 12.75L34.45 0Q33.1 8.3 32.9 14.7q-.4 13.25 4.25 18.1.55.4-1.5 1.65L31.3 36.8" fill="#d0d9d8" fill-rule="evenodd" transform="translate(1)"/><path d="M11.35 32.05q6 2 9.4 6.25 5.5-6.9 8.05-15.8 1.15 6.3 2.9 12.4l-.4 1.9-12.75 6.75-1.05-1.6-6.15-9.9" fill="#fbfcf6" fill-rule="evenodd" transform="translate(1)"/><path d="m12.35 32.05 6.15 9.9 1.05 1.6m17.1-9.1q2.05-1.25 1.5-1.65-4.65-4.85-4.25-18.1M1 12.75q6.6 11.45 11.35 19.3" fill="none" stroke="#798378" stroke-linecap="round" stroke-linejoin="round" stroke-width="2"/></g><g id="x"><path d="M3.05 31.8Q8.1 16.45 22.65.8q2.6-1.8 1.7.4-5.4 9.85-9.1 23.6l-.3.1q-2 .45-2.5-2.4-4.35 3.9-8.9 9.65l-.5-.35" fill="#c90229" fill-rule="evenodd" transform="translate(1 1)"/><path d="m21.5 17.95.1 2.65Q10.3 33.9 10.9 49.55L.25 60.6Q-.8 49.7 2.8 33.1l.25-1.3.5.35q4.55-5.75 8.9-9.65.5 2.85 2.5 2.4l.3-.1q1.1-.6 2.7-2.9 2.1-3.45 3.55-3.95" fill="#fbfcf6" fill-rule="evenodd" transform="translate(1 1)"/><path d="M24.35 1.2q-2.9 8.75-2.85 16.75-1.45.5-3.55 3.95-1.6 2.3-2.7 2.9 3.7-13.75 9.1-23.6" fill="#a50423" fill-rule="evenodd" transform="translate(1 1)"/><path d="M21.6 20.6q.55 7.4 3.65 14.1L10.9 49.55Q10.3 33.9 21.6 20.6" fill="#d0d9d8" fill-rule="evenodd" transform="translate(1 1)"/><path d="M4.05 32.8q5.05-15.35 19.6-31 2.6-1.8 1.7.4-2.9 8.75-2.85 16.75" fill="none" stroke="#55020c" stroke-linecap="round" stroke-linejoin="miter-clip" stroke-miterlimit="3" stroke-width="2"/><path d="m22.5 18.95.1 2.65q.55 7.4 3.65 14.1L11.9 50.55 1.25 61.6Q.2 50.7 3.8 34.1l.25-1.3" fill="none" stroke="#798378" stroke-linecap="round" stroke-linejoin="miter-clip" stroke-miterlimit="3" stroke-width="2"/></g><g id="y"><path d="M51.5 35.9q-5.8-1.15-10.3.8-2.25.65-1.6 3.1.25 1.85 4.5 7-2.4-.55-3.4 2.7 1.8 2.8 1.7 5.6-.7-1.2-4.1-1.2-6.05.1-10 7.8L.2 48.6q-.75-12.45 1.3-25.85Q6.95 14.05 22.7 10q7.55-1 12 3.6 1.75 2.8 6.6 5.6 7.7 6.7 10.2 16.7" fill="#464652" fill-rule="evenodd" transform="translate(1 1.2)"/><path d="M1.5 22.75q1-6.95 2.8-14.2 4.9-2.7 11-2.55 10.7.75 21.85-3.7L34 6.4q-2.55 4.6 3.9 7.9Q49.05 20.75 54 34.5q.45 1.85-1.6 1.6l-.9-.2q-2.5-10-10.2-16.7-4.85-2.8-6.6-5.6-4.45-4.6-12-3.6Q6.95 14.05 1.5 22.75" fill="#5b5b67" fill-rule="evenodd" transform="translate(1 1.2)"/><path d="M4.3 8.55 5.5 3.9q2.95-2.75 7.9-2.4 11.95 2.7 19.4.1L38.3 0q-.05.65-1.15 2.3Q26 6.75 15.3 6q-6.1-.15-11 2.55" fill="#717487" fill-rule="evenodd" transform="translate(1 1.2)"/><path d="M52.5 37.1q-5.8-1.15-10.3.8-2.25.65-1.6 3.1.25 1.85 4.5 7-2.4-.55-3.4 2.7 1.8 2.8 1.7 5.6-.7-1.2-4.1-1.2-6.05.1-10 7.8L1.2 49.8Q.45 37.35 2.5 23.95q1-6.95 2.8-14.2L6.5 5.1q2.95-2.75 7.9-2.4 11.95 2.7 19.4.1l5.5-1.6q-.05.65-1.15 2.3L35 7.6q-2.55 4.6 3.9 7.9Q50.05 21.95 55 35.7q.45 1.85-1.6 1.6l-.9-.2z" fill="none" stroke="#3c3638" stroke-linecap="round" stroke-linejoin="miter-clip" stroke-miterlimit="3" stroke-width="2"/></g><g id="z"><path d="m35.1 0 3.8 4.1q9.55 12.45 12.7 25.6 1.4 5.9 1.5 11.9.6 5.65-1.45 11.05Q49.15 61 50 64.3q-2-4.45-.7-11.1l.1-.4q1.45-9.45-.3-19.8l-.65-3.3Q44.5 12.15 35.1 0" fill="#464652" fill-rule="evenodd" transform="translate(1)"/><path d="M35.1 0q9.4 12.15 13.35 29.7l.65 3.3q1.75 10.35.3 19.8l-.1.4q-1.3 6.65.7 11.1l.15.55q.65 1.05.75 2.45-.45-1.1-2.4-2.2l-.1-.05q-4.05-2.9-4.8-6.35-.35 1.05.8 4 1.25 2.1 1.4 3.9-2.6-2.5-3.2-4.6-.75-3-5.4-6-2.6-1.7-4.8-3.7-5.95-5.3-9.2-12.5.45 10.05 7.2 18-12.65-7.5-14.2-22.2Q13.3 22 0 19.8L35.1 0" fill="#5b5b67" fill-rule="evenodd" transform="translate(1)"/><path d="M0 19.8Q13.3 22 16.2 35.6q1.55 14.7 14.2 22.2-6.75-7.95-7.2-18 3.25 7.2 9.2 12.5 2.2 2 4.8 3.7 4.65 3 5.4 6 .6 2.1 3.2 4.6-3.7-3.05-11.9-4.6l-1.5-.45q-9.8-3-17.2-8.9Q7.7 45.15 9 34.8q-.7.2-1.4 1.25-.05-1.6.6-4.85Q9.55 22.15 0 19.8" fill="#717487" fill-rule="evenodd" transform="translate(1)"/><path d="M51 64.3q-.85-3.3 1.65-11.65 2.05-5.4 1.45-11.05-.1-6-1.5-11.9m-5.8 36.9q-.15-1.8-1.4-3.9-1.15-2.95-.8-4 .75 3.45 4.8 6.35l.1.05q1.95 1.1 2.4 2.2-.1-1.4-.75-2.45L51 64.3M1 19.8q9.55 2.35 8.2 11.4-.65 3.25-.6 4.85Q9.3 35 10 34.8q-1.3 10.35 6.2 17.85 7.4 5.9 17.2 8.9l1.5.45q8.2 1.55 11.9 4.6" fill="none" stroke="#3c3638" stroke-linecap="round" stroke-linejoin="miter-clip" stroke-miterlimit="3" stroke-width="2"/></g><g id="A"><path d="M25.05 44.1q1.55-5.5-2.5-15.2-4.35-9.9-12-16.2 6.2 2.65 11.4 9.1-.65-5.25-4.9-9.1-2.15-1.9-5.2-3.5 1.45-1.35 4.1-1.1Q10.95 4.4 0 .4L.05 0q9 .5 17.7 4.4 5.5 3.1 8.6 8.3 3.65 6.1 4 15-.6 11.05-4.5 15.6l-.8.8" fill="#464652" fill-rule="evenodd"/><path d="M0 .4q10.95 4 15.95 7.7-2.65-.25-4.1 1.1 3.05 1.6 5.2 3.5 4.25 3.85 4.9 9.1-5.2-6.45-11.4-9.1 7.65 6.3 12 16.2 4.05 9.7 2.5 15.2l-.2-.75Q21.9 32.3 11.75 33.5L0 .4" fill="#5b5b67" fill-rule="evenodd"/><path d="M11.75 33.5q10.15-1.2 13.1 9.85l.2.75.8-.8q3.9-4.55 4.5-15.6-.35-8.9-4-15" fill="none" stroke="#3c3638" stroke-linecap="round" stroke-linejoin="miter-clip" stroke-miterlimit="3" stroke-width="2"/></g><g id="B"><path d="M0 53.7q-.05-.45.2-.9l4.55-6.2L8 41.4q1.45-2.35 1.75-7l.05-1.7q-.25-7.6 6.4-14.4 6.05-7.2 14.5-12.9 3.15-2.2 5.5-2.8L34.8 6Q40.85 2.2 54 0q7.5.55 9.8 5.6Q68 15.5 56 33q2.95 1.5 4.7 3-4.7-1.35-7.4-.8-1.35 1.05-.6 2.8-1.5-1.05-2.2.2 1.2 4.3-6.2 8l-.75.4q-6.25 3.25-15.75 4.9l-9.1 2.1q-6.45 1.55-10.9 4.15-.2-1.2-1.8-2.35-1.8-1.35-4.75-2.35Q.1 52.9 0 53.7" fill="#fbfcf6" fill-rule="evenodd" transform="translate(1.5 1)"/><path d="M7.8 57.75q4.45-2.6 10.9-4.15l9.1-2.1q9.5-1.65 15.75-4.9l.75-.4q7.4-3.7 6.2-8 .7-1.25 2.2-.2-.75-1.75.6-2.8 2.7-.55 7.4.8-2.6.1-8 2 3.1 2.05 3.55 3-4.05 2-7.6 5.35l-.3.25q-6 5.05-15.2 5.6-11.05 1.4-18.75 4.9l-1.35.65q-2.35 1.25-3.6 1.2L7.8 59v-1.25" fill="#d0d9d8" fill-rule="evenodd" transform="translate(1.5 1)"/><path d="M0 53.7q.1-.8 1.25-.65 2.95 1 4.75 2.35 1.6 1.15 1.8 2.35V59q-3.9-.5-7.1-3.6-.75-.9-.7-1.7" fill="#5b5b67" fill-rule="evenodd" transform="translate(1.5 1)"/><path d="M57.5 34q12-17.5 7.8-27.4Q63 1.55 55.5 1 42.35 3.2 36.3 7l1.4-3.4q-2.35.6-5.5 2.8-8.45 5.7-14.5 12.9-6.65 6.8-6.4 14.4l-.05 1.7q-.3 4.65-1.75 7l-3.25 5.2-4.55 6.2q-.25.45-.2.9M9.3 60l1.65-.05q1.25.05 3.6-1.2l1.35-.65q7.7-3.5 18.75-4.9" fill="none" stroke="#798378" stroke-linecap="round" stroke-linejoin="round" stroke-width="2"/><path d="M62.2 37q-1.75-1.5-4.7-3M34.65 53.2q9.2-.55 15.2-5.6l.3-.25Q53.7 44 57.75 42q-.45-.95-3.55-3 5.4-1.9 8-2" fill="none" stroke="#798378" stroke-linecap="round" stroke-linejoin="round" stroke-width=".05"/><path d="M1.5 54.7q-.05.8.7 1.7 3.2 3.1 7.1 3.6" fill="none" stroke="#3c3638" stroke-linecap="round" stroke-linejoin="miter-clip" stroke-miterlimit="3" stroke-width="3"/><path d="M1.5 54.7q.1-.8 1.25-.65 2.95 1 4.75 2.35 1.6 1.15 1.8 2.35V60" fill="none" stroke="#2c211d" stroke-linecap="round" stroke-linejoin="round" stroke-width=".05"/></g><g id="C"><path d="M8.2 7.6 0 8.6Q9.3 3.15 12.9 0q-1.3 4.4-4.7 7.6" fill="#fbfcf6" fill-rule="evenodd"/><path d="M0 8.6Q9.3 3.15 12.9 0q-1.3 4.4-4.7 7.6" fill="none" stroke="#798378" stroke-linecap="round" stroke-linejoin="round" stroke-width=".05"/></g><g id="D"><path d="M25.4 10.7q.55-.5 1.2-.55 1.4-.3 3.3-2l.45 3.1q-7.25 6.15-8 11.55l-5.1 6.9q-2.9 4.2-3 8.1-1.7 4-2.95 2.6.15-2.5 1.8-3.5-.2-.4-1.75-.45-.8.1-1.5-.4 1.35-4.75 7.5-11.55h.05q1.9-1.2 1.95-2.25l.45-1.8q.95-3.95 2.5-5.75l3.1-4" fill="#d0d9d8" fill-rule="evenodd" transform="translate(1 1.7)"/><path d="m30.35 11.25-.45-3.1q-1.9 1.7-3.3 2-.65.05-1.2.55Q30.95 4.45 32.9 0l-.1 2q-.15 3.75.4 9.65.4 5.5-.65 9.8-.65 2.55-1.75 4.7l-1.25.05.35-1.35q1.4-5.4.45-13.6" fill="#a50423" fill-rule="evenodd" transform="translate(1 1.7)"/><path d="m25.4 10.7-3.1 4q-1.55 1.8-2.5 5.75-2.3.4-.85-2.95-3.6 2.4-3.4.5.7-2.15-1.7-.4-2.6 2.05-2.8.65 3.95-5.4 7.05-8.6 1.35-1.7 7.4-5.3L32.9 0q-1.95 4.45-7.5 10.7" fill="#c90229" fill-rule="evenodd" transform="translate(1 1.7)"/><path d="m19.8 20.45-.45 1.8q-.05 1.05-1.95 2.25h-.05q-6.15 6.8-7.5 11.55.7.5 1.5.4 1.55.05 1.75.45-1.65 1-1.8 3.5 1.25 1.4 2.95-2.6.1-3.9 3-8.1l5.1-6.9q.75-5.4 8-11.55.95 8.2-.45 13.6l-.35 1.35 1.25-.05L29 28.8l-1.6 1.7-.7.8-4.5 5.4q-3.2 5.35-6.45 9.1L0 32.15l9.05-11.2.1-.1.05-.1 1.85-2.5q.2 1.4 2.8-.65 2.4-1.75 1.7.4-.2 1.9 3.4-.5-1.45 3.35.85 2.95m9.75 5.75q-.85 2.65-2.15 4.3 1.3-1.65 2.15-4.3M9.45 39.35q-.15-1.5.4-3.3-.55 1.8-.4 3.3" fill="#fbfcf6" fill-rule="evenodd" transform="translate(1 1.7)"/><path d="m31.35 12.95-.45-3.1q-1.9 1.7-3.3 2-.65.05-1.2.55m4.95.55q.95 8.2-.45 13.6l-.35 1.35 1.25-.05m-21.6-5.4-.05.1-.1.1M28.4 32.2q1.3-1.65 2.15-4.3" fill="none" stroke="#a37d56" stroke-linecap="round" stroke-linejoin="miter-clip" stroke-miterlimit="3" stroke-width=".05"/><path d="m20.8 22.15-.45 1.8Q20.3 25 18.4 26.2h-.05q-6.15 6.8-7.5 11.55.7.5 1.5.4 1.55.05 1.75.45-1.65 1-1.8 3.5m-1.45-4.35q-.55 1.8-.4 3.3" fill="none" stroke="#798378" stroke-linecap="round" stroke-linejoin="miter-clip" stroke-miterlimit="3" stroke-width=".05"/><path d="m26.4 12.4-3.1 4q-1.55 1.8-2.5 5.75" fill="none" stroke="#55020c" stroke-linecap="round" stroke-linejoin="miter-clip" stroke-miterlimit="3" stroke-width=".05"/><path d="M31.8 27.85q1.1-2.15 1.75-4.7 1.05-4.3.65-9.8-.55-5.9-.4-9.65l.1-2-7.4 4.35q-6.05 3.6-7.4 5.3-3.1 3.2-7.05 8.6" fill="none" stroke="#55020c" stroke-linecap="round" stroke-linejoin="miter-clip" stroke-miterlimit="3" stroke-width="2"/><path d="m12.05 19.95-1.85 2.5m-.15.2L1 33.85M16.75 47.5q3.25-3.75 6.45-9.1l4.5-5.4.7-.8 1.6-1.7 1.8-2.65" fill="none" stroke="#798378" stroke-linecap="round" stroke-linejoin="miter-clip" stroke-miterlimit="3" stroke-width="2"/></g><path d="M9.15 4.15q-3.3 2.3-6.75 5.9Q1.2 11.2 0 11.6q3.55-4.75 6.45-7.8Q9 1.85 14.25 0q-1.95 2-5.1 4.15m2.8 3.1 3.15-2.9q1.75.95 2.2 2L19 8.4q.25.5-1.4 0-2.55-.85-5.65-1.15m-3.2 2.9q2.9 3.6 2.55 4.75-.25.7-1.45 0-2.8-1.4-6.75-1.7 2.4-.4 5.65-3.05" id="E" fill="#c90229" fill-rule="evenodd"/><path d="M0 26.3Q0 15.4 26.35 7.65 52.75 0 90.05 0q37.35 0 63.7 7.65Q180.1 15.4 180.1 26.3q0 10.85-26.35 18.55-26.35 7.75-63.7 7.75-37.3 0-63.7-7.75Q0 37.15 0 26.3" fill-opacity=".353" fill-rule="evenodd" id="d"/><path d="M134.45 125.1H0V0h134.45v125.1" fill-opacity="0" fill-rule="evenodd" id="c"/></defs></svg>