<svg xmlns:ffdec="https://www.free-decompiler.com/flash" xmlns:xlink="http://www.w3.org/1999/xlink" ffdec:objectType="frame" height="90" width="90" xmlns="http://www.w3.org/2000/svg"><use ffdec:characterId="37" height="89.25" transform="translate(5.8 .5)" width="66.25" xlink:href="#a"/><defs><use ffdec:characterId="1" height="18.45" width="80.45" xlink:href="#b" id="q"/><use ffdec:characterId="3" height="79" width="80.45" xlink:href="#c" id="r"/><use ffdec:characterId="5" height="141.3" width="84.75" xlink:href="#d" id="s"/><use ffdec:characterId="7" height="169.2" width="82.15" xlink:href="#e" id="t"/><use ffdec:characterId="9" height="82.25" width="128.5" xlink:href="#f" id="u"/><use ffdec:characterId="11" height="93.3" width="63.95" xlink:href="#g" id="G"/><use ffdec:characterId="14" height="102.3" width="63" xlink:href="#h" id="w"/><use ffdec:characterId="16" height="105.7" width="95.4" xlink:href="#i" id="x"/><use ffdec:characterId="18" height="119.3" width="84.55" xlink:href="#j" id="I"/><use ffdec:characterId="21" height="124.3" width="119.45" xlink:href="#k" id="z"/><use ffdec:characterId="23" height="109" width="89.7" xlink:href="#l" id="A"/><use ffdec:characterId="25" height="196.5" width="214" xlink:href="#m" id="B"/><use ffdec:characterId="27" height="230.1" width="149.7" xlink:href="#n" id="C"/><use ffdec:characterId="29" height="59" width="55.4" xlink:href="#o" id="D"/><use ffdec:characterId="35" height="77.8" width="62.85" xlink:href="#p" id="E"/><g id="a" transform="translate(-5.8 -.5)"><use ffdec:characterId="2" height="18.45" transform="translate(25.414 79.985) scale(.4607)" width="80.45" xlink:href="#q"/><use ffdec:characterId="4" height="79" transform="translate(58.4 31.8) scale(.1697)" width="80.45" xlink:href="#r"/><use ffdec:characterId="6" height="141.3" transform="translate(46.15 38.3) scale(.1697)" width="84.75" xlink:href="#s"/><use ffdec:characterId="8" height="169.2" transform="translate(18.95 2.75) scale(.1697)" width="82.15" xlink:href="#t"/><use ffdec:characterId="10" height="82.25" transform="translate(8.15 42.55) scale(.1697)" width="128.5" xlink:href="#u"/><use ffdec:characterId="13" height="101.6" transform="translate(31.3 66.15) scale(.1697)" width="63.95" xlink:href="#v"/><use ffdec:characterId="15" height="102.3" transform="translate(25.6 54.4) scale(.1697)" width="63" xlink:href="#w"/><use ffdec:characterId="17" height="105.7" transform="translate(27.7 44.2) scale(.1697)" width="95.4" xlink:href="#x"/><use ffdec:characterId="20" height="125.45" transform="translate(44.3 65.3) scale(.1697)" width="88.45" xlink:href="#y"/><use ffdec:characterId="22" height="124.3" transform="translate(34.3 53.8) scale(.1697)" width="119.45" xlink:href="#z"/><use ffdec:characterId="24" height="109" transform="translate(35 42.05) scale(.1697)" width="89.7" xlink:href="#A"/><use ffdec:characterId="26" height="196.5" transform="translate(18.55 15.65) scale(.1697)" width="214" xlink:href="#B"/><use ffdec:characterId="28" height="230.1" transform="translate(34.3 .5) scale(.1697)" width="149.7" xlink:href="#C"/><use ffdec:characterId="34" height="59" transform="translate(24.6 27.95) scale(.1697)" width="55.4" xlink:href="#D"/><use ffdec:characterId="36" height="77.8" transform="translate(26.75 28.65) scale(.1697)" width="62.85" xlink:href="#E"/></g><g id="c" fill-rule="evenodd"><path d="M60.1 10.6q-6.8-3.85-16.35-5.75l-.35.1q-7.95 2.25-9.05 6.9-1 4-.9 6.95l.05 1.05q.25 2.45 1.7 5.1 9.1.45 14.6 7.1l.45.55q3.45 4.35 3.1 9.75 4.1-11-4.05-17.2-4.3-3.25-11.95-5.2l2.4.5q5.4 1.15 9.1 3.05 9.95 5.25 6.8 16l-.2.6-.3.5-1.65 2.6q-2.45 3.2-5.25 4.45-4.2 1.8-9.25 1.35l-.5-.05q-4.95-.6-14.5-3.5l-.15.1Q18.1 49.5 17 56.45l-.15 1.5q-.55 6.5 3.95 11.45l.7.45 1.55.45.95.45q4.75 2.1 10.7 3.05l14 .7h.1l.25-.05q20.6-2.05 27.3-31.65l.05-1.4q.3-14.05-6.9-22.95-3.7-4.65-9.4-7.85m20.35 29.05q-.15 15.8-14.5 31.6l-.55.6Q51.35 84.8 18.95 74.3l-.2-.05Q4.3 55.5 20.85 41.05l.2.05q4.1.3 10.5 2.5 6.05 2.05 11 2.05 2.55 0 4.2-1.45 1.85-1.65 1.85-4.55 0-5-4.5-7.8-2.4-1.45-9.5-3.6l-1.1.05Q21.8 6.55 45 0q34.15 9.95 35.4 37.25l.05 2.4M19.2 26.3q0-3.2-2.15-5.5-2.15-2.25-5.2-2.25-3.05 0-5.2 2.25-2.15 2.3-2.15 5.5t2.15 5.45q2.15 2.3 5.2 2.3 3.05 0 5.2-2.3 2.15-2.25 2.15-5.45m-7.65 11.65q-4.8 0-8.2-3.4Q0 31.15 0 26.3t3.35-8.25q3.4-3.4 8.2-3.4 4.85 0 8.2 3.4 3.4 3.4 3.4 8.25t-3.4 8.25q-3.35 3.4-8.2 3.4" fill="#571624"/><path d="M19.2 26.3q0 3.2-2.15 5.45-2.15 2.3-5.2 2.3-3.05 0-5.2-2.3Q4.5 29.5 4.5 26.3t2.15-5.5q2.15-2.25 5.2-2.25 3.05 0 5.2 2.25 2.15 2.3 2.15 5.5m-4.8-4.05q-1.8-1-3.2-.95l.7 1.6.25 1.6q0 1.75-.45 2.45-.55.85-2.2.85l-1.25-.05-.65-1.15h-.15l-.1 1.1q0 2.5 1.3 3.45.95.7 3.05.7 2.9 0 4.05-1.9.85-1.45.85-4.5 0-1.9-2.2-3.2" fill="#ac6822"/><path d="M14.4 22.25q2.2 1.3 2.2 3.2 0 3.05-.85 4.5-1.15 1.9-4.05 1.9-2.1 0-3.05-.7-1.3-.95-1.3-3.45l.1-1.1h.15l.65 1.15 1.25.05q1.65 0 2.2-.85.45-.7.45-2.45l-.25-1.6-.7-1.6q1.4-.05 3.2.95" fill="#492c13"/><path d="M60.1 10.6q-2.6.6-6.75 4.1-5.1 4.3-5.1 6.5 0 .65.6 2.3-3.7-1.9-9.1-3.05l-2.35-.65-3.95-1q-.1-2.95.9-6.95 1.1-4.65 9.05-6.9l.35-.1q9.55 1.9 16.35 5.75M38.5 48.95q-5.1 4.1-6.25 10.7-.35 1.8-.3 3.55-7.05-1.6-15.1-5.25l.15-1.5q1.1-6.95 6.85-10.9l.15-.1q9.55 2.9 14.5 3.5" fill="#5c9fc8"/><path d="m33.45 18.8 3.95 1-.05.15Q45 21.9 49.3 25.15l.15 1.95.35 4.95q-5.5-6.65-14.6-7.1-1.45-2.65-1.7-5.1l-.05-1.05m1.25 55q-5.95-.95-10.7-3.05l-.95-.45-1.55-.45-.7-.45q-4.5-4.95-3.95-11.45 8.05 3.65 15.1 5.25 0 2.2.6 4.4.85 3.2 2.15 6.2" fill="#356088"/><path d="M31.95 63.2q22.5 5.05 34.45-11.05l.4-.55.45-1.1Q75.5 31 69.5 18.45q7.2 8.9 6.9 22.95l-.05 1.4q-6.7 29.6-27.3 31.65l-.25.05h-.1l-14-.7q-1.3-3-2.15-6.2-.6-2.2-.6-4.4M49.3 25.15q8.15 6.2 4.05 17.2.35-5.4-3.1-9.75l-.45-.55-.35-4.95-.15-1.95" fill="#ac333d"/><path d="M48.85 23.5q-.6-1.65-.6-2.3 0-2.2 5.1-6.5 4.15-3.5 6.75-4.1 5.7 3.2 9.4 7.85 6 12.55-2.25 32.05l-.45 1.1-.4.55Q54.45 68.25 31.95 63.2q-.05-1.75.3-3.55 1.15-6.6 6.25-10.7l.5.05q5.05.45 9.25-1.35 2.8-1.25 5.25-4.45l1.65-2.6.3-.5.2-.6q3.15-10.75-6.8-16" fill="#ff4649"/></g><g id="d" fill-rule="evenodd"><path d="m74.65 62.95.25.6.05.15q3.8 9.6 4.95 23 1.35 15.8-10.1 31.85-11.45 16-28.95 20.05-17.6 4.3-35.5 1.7l-4-.5Q1 138.35.8 136.65l3.45.35q17.4 1.4 33.4-2.2 15.95-3.7 27.65-19.95 11.7-16.3 9.45-31-2.2-14.1-8.2-21.95 4.55-.6 8.1 1.05M.2 128.4l-.2-5.5q6.45.5 13.1-.3 18.35-2 31.8-14.5Q57.55 96.25 57 78.6q-.15-6.35-2.65-11.95 2.05-1.25 4-2.15 1.65 2.6 2.7 5.35 3.1 8.15.95 18.1-2.45 11.2-10.5 20.55l-.05.1-4.25 4.4Q35.45 124.05 21 127.2q-10.5 2.25-20.8 1.2M47.35 18.25l.35-.5q1.65-2.35 3.85-4.55l2.35-2.15Q64.05 2.45 80.75 0v.05l.15.9Q65.5 15.1 60 25q-3.85 6.9-2.8 11.75l-.1.9.3-.1q.7 2.3 2.6 4.1l-.7.3Q56.9 43.1 55.1 45 48.7 24.2 70.3 5.95q-18.15 8.25-23.35 18.7-2.6 5.1-2.05 10.8l.2 1.3q.5 3.3 2.1 6.8l.7 1.45.3.25-.25-.15-.25-.1-.7-.4-.75-1.45Q42.9 36.4 43.2 30.2q.1-2.55.85-5l.15-.5q1-3.3 3.15-6.45" fill="#003152"/><path d="M74.65 62.95q-3.55-1.65-8.1-1.05-3.75.5-8.2 2.6-1.95.9-4 2.15l-.9.5q-21.55-.1-26.2-15.05l-.15-.5q-2.85-19.8 20.25-33.35-2.15 3.15-3.15 6.45l-.15.5-3.25 3.05Q27.25 42 34.7 53.6q1.4 2.25 3.65 4.4l1.45.8q16.9 9.1 32.55-2.15 3.7-2.65 7.3-6.4l.35-.35v-.35q.15-4.7-1.4-7.7-1.7-3.25-5.35-4.5l-6.15 4.4L63 44.2q-2.75 1.35-5.7 2.25-4.3 1.2-9.1-1.2l-.3-.25-.7-1.45 3.15 1.65q1.75.7 3.65.8h.25l.85-1q1.8-1.9 4.2-3.05l.7-.3.15-.1 4.55-2.25q2.4-1.45 5.35-4.1l3.7-3.4Q95 44.3 75.25 63.25l-.6-.3M60 25l.4 1.75q.4 2.1.4 4 0 2.95-1.85 3.75-1.45.65-1.75 2.25Q56.15 31.9 60 25" fill="#571624"/><path d="m40.8 28.25 1.1.95.1.1q-2.95 4.5-2.95 7.55 0 3.4 3.35 5.45l3.4 1.75 1.2.55.7.4.25.1.25.15q4.8 2.4 9.1 1.2 2.95-.9 5.7-2.25l6.8 5.2q-20.7 15.5-35.1 4.2-7.45-11.6 6.1-25.35" fill="#ff4649"/><path d="m40.8 28.25 3.25-3.05q-.75 2.45-.85 5l-1.2-.9v-.05l-.1-.05-1.1-.95m4.3 8.5 1.15 1.9q1.5 2.15 2.65 2.15l1.1-.45q.6-.55.6-1.2l-.2-1.7q-.25-.8-.25-2.15l.3-6.2q0-2.25-.45-3.15-.7-1.35-2.85-1.35l-.2.05q5.2-10.45 23.35-18.7Q48.7 24.2 55.1 45l-.85 1H54q-1.9-.1-3.65-.8l-3.15-1.65q-1.6-3.5-2.1-6.8M63 44.2l4.1-2.45 6.15-4.4q3.65 1.25 5.35 4.5-4.55 4.35-8.8 7.55L63 44.2" fill="#5c9fc8"/><path d="m42 29.3 1.2.9q-.3 6.2 3.05 12.95L47 44.6l-1.2-.55-3.4-1.75q-3.35-2.05-3.35-5.45 0-3.05 2.95-7.55m30.35 27.35Q56.7 67.9 39.8 58.8l-1.45-.8q-2.25-2.15-3.65-4.4 14.4 11.3 35.1-4.2l.3.2 2.25 7.05" fill="#ac333d"/><path d="M78.6 41.85q1.55 3 1.4 7.7v.35l-.35.35q-3.6 3.75-7.3 6.4L70.1 49.6l-.3-.2q4.25-3.2 8.8-7.55" fill="#356088"/><path d="m46.95 24.65.2-.05q2.15 0 2.85 1.35.45.9.45 3.15l-.3 6.2q0 1.35.25 2.15l.2 1.7q0 .65-.6 1.2l-1.1.45q-1.15 0-2.65-2.15l-1.15-1.9-.2-1.3q-.55-5.7 2.05-10.8m14.1 45.2q1-.7 1.45-.7 5.15 0 7.15 6.4Q71 79.85 71 88.05q0 8.7-3.9 16.75-4.45 9.2-10.95 9.2-1.7 0-3.25-1.95-1.4-1.8-1.4-3.4v-.15q8.05-9.35 10.5-20.55 2.15-9.95-.95-18.1" fill="#5bdfd5"/><path d="M66.55 61.9q6 7.85 8.2 21.95 2.25 14.7-9.45 31-11.7 16.25-27.65 19.95-16 3.6-33.4 2.2l-3.45-.35-.5-4-.1-4.25q10.3 1.05 20.8-1.2 14.45-3.15 26.2-14.2l4.25-4.4.05.05q0 1.6 1.4 3.4 1.55 1.95 3.25 1.95 6.5 0 10.95-9.2Q71 96.75 71 88.05q0-8.2-1.35-12.5-2-6.4-7.15-6.4-.45 0-1.45.7-1.05-2.75-2.7-5.35 4.45-2.1 8.2-2.6" fill="#2392ca"/></g><g id="e" fill-rule="evenodd"><path d="m59.4 7.45 1.15-.75Q54.6 18.6 51.9 28.6l-.2.05-2.1 1.7-1.95 1.45q-.95 0-2.6-2.3l-1.45-2.35.05-.1Q49.4 17.1 59.4 7.45M79.2 119.6l-.65.85-.5.85q-21.8 36.6-50.65 42.65 2.75-4.85 4.35-9.25 4.2-11.55 0-19.85l.05-.05 4.15-4.6-.55 2.55-.1.45-.2.65h.35l.2.85 1.1-1.05.05.05v-.05q5.7-1.1 8.4-6.7 1.05-2.25 2.05-6.15l1.7-6.55q4.15 1.05 5.75-2.05 1.1-2.1 1.1-6.55 0-4.05-.2-4.9-.65-2.6-3.35-2.6l-1.35.3q-.45-6.4-2.9-12.25l4.8 2.75-1.9-14.65 1.65 2.1 2.2 2.7Q64.8 90.75 68.1 104.6l.6 2.8 2.2-1.45q1.5-.95 2.4-1.35l1.05-.3.3.3q.8 1.3 2.8 8.25l1.75 6.75m-54.8 6.25 2.55-.75q-.45 1.4-.75 2.75l-1.8-2m-5.5-7.6-3-3.6q3.75 1.15 6.55 3.3l-3.55.3" fill="#2392ca"/><path d="M38.1 24.45q8.85-8.8 21.3-17-10 9.65-15.75 19.6l-.15-.1-2.7 1.75-2.15 1q-.7 0-.9-.5l-.1-1.35.45-3.4M31.65 80l9.15 5.7.65-3.25L48 86.2q2.45 5.85 2.9 12.25l1.35-.3q2.7 0 3.35 2.6.2.85.2 4.9 0 4.45-1.1 6.55-1.6 3.1-5.75 2.05l-1.7 6.55q-1 3.9-2.05 6.15-2.7 5.6-8.4 6.7v-.05l.05-.3q3.55-13.2 1.35-28.7-1.65-11.65-6.55-24.6" fill="#5bdfd5"/><path d="M39.15 18.75Q50.5 8.35 65.2.1q2.65-.4 2.85.6l-.1.65q-8 13.75-11.65 25.1l-4.4 2.15q2.7-10 8.65-21.9l-1.15.75q-12.45 8.2-21.3 17l.45-2.55.6-3.15M52.5 69.6l3.4 5.1q12.7 14.7 15.25 27.4l1.6-.75q2.05-.9 2.95-.9.85 0 2.6 4.15l3.85 10.95-2.95 4.05-1.75-6.75q-2-6.95-2.8-8.25l-.3-.3-1.05.3q-.9.4-2.4 1.35l-2.2 1.45-.6-2.8q-3.3-13.85-13.35-25.5l-2.2-2.7-.05-6.8m-25.1 94.35-1.65 2.75-7.2 2.5q4.65-8.15 7.25-14.5 4.7-11.5 2.6-17.3l.05-.05 3.3-2.5q4.2 8.3 0 19.85-1.6 4.4-4.35 9.25m-2.15-30.15q-3.4-2.7-6.05-7.1l5.2-.85 1.8 2q-.8 3.1-.95 5.95m-10.3-14q-2.25-2.7-3.9-6.15l4.85 1 3 3.6q-2.35.45-3.95 1.55M35.05 97l-2.1-9.05-.2-.05-2.3-.1q-1.6.35-3 1.2-1.15.75-2.2 1.6l-2 1.6q.75-1.85 2.55-3.65 1.8-1.85 3.6-2.35l2.9-.2.1.05V86q-1.55-3.15-2.4-6.8l-.05-.25q-.6-2.55-.9-5.35l2.6 6.4q4.9 12.95 6.55 24.6 2.2 15.5-1.35 28.7l-.05.3-.05.05-1.3.2-.15-.65.1-.45.55-2.55.1-.45.25-1.55q1.75-10.6.05-23.6l-.9-5.5v-.2l-.4-1.9" fill="#003152"/><path d="m28.4 137.4-3 1.7q-.35-2.5-.15-5.3.15-2.85.95-5.95.3-1.35.75-2.75l-2.55.75-5.2.85q-4 .25-7.6-.65.4-4.25 3.35-6.25 1.6-1.1 3.95-1.55l3.55-.3q-2.8-2.15-6.55-3.3l-4.85-1-1.5-.15-9.55.25q.9-7.1 10.95-10.4 1.85-.6 4.1-1.1l-.15 1.5v.05l6.25-.7q3.8 0 7.75 1.1l-3-10.25L35.05 97l.4 1.9-4.4-2.25q-1.55-.95-3.65-1.3l3.05 10.3q-9.7-.95-15.7-.15l-3.7.8-1.5.55q-2.4 1.05-3.5 2.7l3.5.6q9.95 2.1 15 8.9-3.25.2-7.95 3.55 2.55-.2 4.8 0 5.7.4 8.95 3.25l-.7-.1-1.8-.3.45 6.85 8-4.1-.25 1.55-.1.45-4.15 4.6-.05.05-3.3 2.5-.05.05" fill="#1c5a53"/><path d="M21.4 122.6q14.4-5.75 1.45-13.6 5.8.55 10.35 2.8.2-3.05-1.45-7.2l-.35-.8 3.35 3.05.15-2.25q0-5.7-3.85-7.95l4.4 2.25v.2l.9 5.5q1.7 13-.05 23.6l-8 4.1q2.35-1.55 3-5.95l-1-.35.05-.15Q27.1 123 21.4 122.6" fill="#4ab16a"/><path d="M31.05 96.65q3.85 2.25 3.85 7.95l-.15 2.25-3.35-3.05.35.8q1.65 4.15 1.45 7.2-4.55-2.25-10.35-2.8 12.95 7.85-1.45 13.6-2.25-.2-4.8 0 4.7-3.35 7.95-3.55-5.05-6.8-15-8.9l-3.5-.6q1.1-1.65 3.5-2.7l1.5-.55 3.7-.8q6-.8 15.7.15l-3.05-10.3q2.1.35 3.65 1.3M30.3 126l1 .35q-.65 4.4-3 5.95l-.45-6.85 1.8.3.65.25" fill="#87ff7a"/><path d="m51.7 28.65.15.05q-3.8 13.95-1.25 24.15v.1q-2.4 1.35-4.45 4.35-2.25 3.15-2.25 5.05 0 1.85 4.35 8.3l2.65 3.65 1.9 14.65L48 86.2q-1.2-2.85-2.85-5.55-5.65-9.35-9.2-19.8l-.25-1.25v-2.8q-.45-15.2 7.9-29.65l1.45 2.35q1.65 2.3 2.6 2.3l1.95-1.45 2.1-1.7M21.15 103.1q-.75-2.25-.85-4.6-.2-5 1.25-9.65 1.35-4.2 3.95-7.85 1.75-2.45 4.45-2.05l.05.25q.85 3.65 2.4 6.8h-.1l-2.9.2q-1.8.5-3.6 2.35-1.8 1.8-2.55 3.65l2-1.6q1.05-.85 2.2-1.6 1.4-.85 3-1.2l2.3.1.2.05 2.1 9.05-9.15-3.05 3 10.25q-3.95-1.1-7.75-1.1" fill="#ffac15"/><path d="M43.6 27.15Q35.25 41.6 35.7 56.8v2.8l.25 1.25q3.55 10.45 9.2 19.8 1.65 2.7 2.85 5.55l-6.55-3.75-.65 3.25-9.15-5.7-2.6-6.4q.3 2.8.9 5.35-2.7-.4-4.45 2.05-2.6 3.65-3.95 7.85-1.45 4.65-1.25 9.65.1 2.35.85 4.6l-6.25.7v-.05l.55-1.6-.4.1q1.95-18.3 14.4-37.4L18.8 53.95q5.1-15.5 19.3-29.5l-.45 3.4.1 1.35q.2.5.9.5l2.15-1 2.7-1.75.1.2" fill="#fff92b"/><path d="m39.15 18.75-.6 3.15-.45 2.55q-14.2 14-19.3 29.5l10.65 10.9q-12.45 19.1-14.4 37.4-2.25.5-4.1 1.1-.1-19.55 13.85-37.45-5.8-5-11.25-12.2l-.15-.2q9.3-19.65 25.75-34.75M51.9 28.6l4.4-2.15q-5.25 16.3-1.45 27.65l-.1.1-4 4.1Q49 60.1 49 61.95q0 1.85 2.85 6.65l.65 1 .05 6.8-1.65-2.1-2.65-3.65q-4.35-6.45-4.35-8.3 0-1.9 2.25-5.05 2.05-3 4.45-4.35v-.1q-2.55-10.2 1.25-24.15l.05-.1" fill="#8b4c31"/></g><g id="f" fill-rule="evenodd"><path d="m45.1 73.85-2.7 2.8-.15.15q-12.95.6-19.5-1.45l3.65-9.1q-6.45 1.5-13.8 7.35-2.5-3.35-1.7-13.65l-.1-.05-5.3-.85-2.75.6-1.8.55q-.4 0-.7-1.6L0 56.3q0-5.2 3.6-14.65Q7.4 31.5 11.3 29.1l.3-.05h.75l.1.05.05-.05 5.4.45q3.1.55 5.95 1.95 2.4 1.15 4.2 3.25 1.75 2.05 2.95 4.95l.3.8q2.35 6.55-.6 11.35-2.3 3.65-6.5 4.75l-1 .25h-6.6q-.8 2.8-1.05 5.2l-.05 3.1q5.25-3.35 9.35-3.75 2.1 3.05 4.45 5.45l1.55-3 .05-.1 3.5-6.75.2-.4.9-1.25q.75-.7 1.7-1.15 1.4-.7 3-.85l3.1.2.15.05v-.05q1.65.4 2.95 1.15 1.15.7 1.9 1.7.1 1 1.1 1.75l.6 1.2q.6 1.3.85 2.9.3 1.85-.05 3.45-.35 1.8-1.45 3.25L46.9 72l-1.8 1.85m-21.7-41.1Q21 31.65 19 31.5l-3.5-.1-1 .15q-.75.05-3.15 3.45-1.9 4.4-3.65 9.35-1.75 4.95-2.5 10.1l-.3.6-.1.2-.25.5.6-.85q2.1-.9 5.9-.6 4.25.35 9.8.2 5.55-.15 7.8-2.6 2.2-2.5 2.1-5.75-.1-3.25-.95-5.95-.9-2.75-2.1-4.35l-.9-.95-2.95-1.9-.05-.15q-.1-.2-.4-.1M43.35 54.8l-.55-.05q-4.1-.05-7.35 2.4l-.3.2q-2.55 8.3-6.8 14.55H45l.4-.3q2.8-2.35 3.55-6.2 1-5.1-2.6-9.05-1.25-1.35-3-1.55" fill="#3e63a1"/><path d="m67.8 76-1.95 3.05-.85.25-.3.1q-11.05 3.05-21.75-2.65l-.4.05-.15-.15 2.7-2.8 8 1.7Q81.95 76.9 80.6 46.3l1.85.4h.05l-.05-.1q-.8-3.95-3.35-8.05l-.2-.35-2.55-3.55.7-.6h5.8q-3.8-5.2-24.7-6.95l.45-.55.1-.1.65-1.25.25-.6q.6-1.9.35-4.3-2.7 3.7-5.5 4.9-2.9 1.25-12.3.7-8.75-.4-13.5.3-4.2.6-7.05 1.7l-.05-.05v.1l-.8.3-2.85 1.25-5.4-.45q2.1-2.8 5.3-4.2 5.75-2.7 12.05-2.4H39.9l4.55-.15q4.5-.05 8.3-2.05 4.75-2.35 5.15-7.35 3.8 2.55 4.15 6.4.15 1.95-.65 4.35l-1.2 2.75q17.3.25 25.25 8.35h-7.9q5.95 6.35 6.8 13.2l-1.5-.2-1.95-.3Q85.5 65.7 68.2 75.3l-.95.5.55.2m21.15 2.1L90 76.95l.3-.4.3-.35.2-.25q10.7-3.75 16.35-19.4l-3.9-3.5h-.05l5.25-7q-5.65.7-7.4-1.45l2.35.45q10.45-11.7 16.55-23.75 2.95-5.85 4.9-11.8l3.65 2.3-4.25 9.5q-5.55 11.3-13.05 21.05l2.9-.9q-2.1 6.8-6.6 11.2l3.6 2.5q-7.8 22.1-22.15 22.95m2.75-47.65L89.4 27q3.1-1.25 6.95-5.7 5.9-6.85 13.5-21.3l8.2 5.2q-6 9.6-13 16.1-4.3 3.95-8.9 6.75l-4.45 2.4M30.9 63.7l-.05.1-1.55 3q-2.35-2.4-4.45-5.45l-2.7-4.55h1.05l1-.25q3.2 4.4 6.7 7.15" fill="#003152"/><path d="m21.55 27.95.05-.05q2.85-1.1 7.05-1.7 4.75-.7 13.5-.3 9.4.55 12.3-.7 2.8-1.2 5.5-4.9.25 2.4-.35 4.3l-.25.6-.65 1.25-.1.1-.55.5-.8.95-1.75 1.6q-1.05.65-1.7.6v.3q.8.3 1 1.4l.05 2.2q0 3.4-.85 4.35-1.15 1.3-5.35 1.3-5.7 0-8.3-3.15-2.05-2.55-1.85-6.75h-8.75l-5.15.35-2.35-.15q-.9-.35-.9-1.6l.2-.5" fill="#adffdf"/><path d="M58.15 27.1q20.9 1.75 24.7 6.95h-5.8l-.7.6 2.55 3.55.2.35q-.9 2.9-3.45 5-3.4 2.7-7.35 4.75-3.45 1.9-7.45 2.3-5.1-.05-9.9-1.6-4.7-1.3-8.75-4.15l-7-5.4-5.55-4.75h-1.6q-1.8-2.1-4.2-3.25-2.85-1.4-5.95-1.95l2.85-1.25.8-.3-.2.5q0 1.25.9 1.6l2.35.15 5.15-.35h8.75q-.2 4.2 1.85 6.75 2.6 3.15 8.3 3.15 4.2 0 5.35-1.3.85-.95.85-4.35l-.05-2.2q-.2-1.1-1-1.4v-.3q.65.05 1.7-.6l1.75-1.6.8-.95.1.05" fill="#5bdfd5"/><path d="M97.5 47.75q-1.6-7.35-6.45-15l-.75-1.15-.3-.4 1.7-.75 4.45-2.4q4.95 6.25 4.95 12.9 0 1.8-1.65 4l-1.95 2.8m-18.4-9.2q2.55 4.1 3.35 8.05v.1l-1.85-.4q-3.85 6.25-10 9.7l.85.3q.6.05.75.4l.45 1.2v.95q0 3.2-3.2 5.5-2.9 2.1-6.25 2.1-1.75 0-2.5-.7-.8-.75-.8-2.4t1.05-2.25l-1.1.05q-2.85 0-6.55-1.2-2.55-.85-3.9-1.85l-.85-1.35-.25-.4q-.75-1-1.9-1.7-1.3-.75-2.95-1.15h-.15q-7.55-5.3-11.9-13.1l-.4-.75q-1.2-2.9-2.95-4.95h1.6l5.55 4.75 7 5.4q4.05 2.85 8.75 4.15 4.8 1.55 9.9 1.6 4-.4 7.45-2.3 3.95-2.05 7.35-4.75 2.55-2.1 3.45-5" fill="#2cc0ff"/><path d="M90.8 75.95q9.7-13.4 6.8-27.75l-.1-.45 1.95-2.8q1.65-2.2 1.65-4 0-6.65-4.95-12.9 4.6-2.8 8.9-6.75 7-6.5 13-16.1l6.8 4.3q-1.95 5.95-4.9 11.8-6.1 12.05-16.55 23.75l-2.35-.45q1.75 2.15 7.4 1.45l-5.25 7h.05l3.9 3.5Q101.5 72.2 90.8 75.95M80.6 46.3q1.35 30.6-27.5 29.25l-8-1.7L46.9 72l2.45-3.1q1.1-1.45 1.45-3.25.35-1.6.05-3.45-.25-1.6-.85-2.9l-.6-1.2q1.35 1 3.9 1.85 3.7 1.2 6.55 1.2l1.1-.05q-1.05.6-1.05 2.25t.8 2.4q.75.7 2.5.7 3.35 0 6.25-2.1 3.2-2.3 3.2-5.5v-.95l-.45-1.2q-.15-.35-.75-.4l-.85-.3q6.15-3.45 10-9.7m-49.2-5.9q4.35 7.8 11.9 13.1l-3.1-.2q-1.6.15-3 .85-.95.45-1.7 1.15l-.9 1.25-.2.4-3.5 6.75q-3.5-2.75-6.7-7.15 4.2-1.1 6.5-4.75 2.95-4.8.6-11.35l.1-.05" fill="#2392ca"/><path d="m23.85 33 .4.85q.5 1.45.3 3.1-.25 1.85-1.8 2.95l-3.1 1.9-2.85 1.5-2.65 1.35-.55.3-3.1 2.5-1.5 1.4-1.3 1.55q-1.15 1.5-2.05 3.2l-.45.85q.75-5.15 2.5-10.1Q9.45 39.4 11.35 35q2.4-3.4 3.15-3.45l1-.15 3.5.1q2 .15 4.4 1.25l.3.15.15.1m4.5 38.9q4.25-6.25 6.8-14.55l.3-.2q3.25-2.45 7.35-2.4l.55.05q2.95 9.15-15 17.1M15.55 62q.25-2.4 1.05-5.2h4.15l-5.2 5.2" fill="#fff"/><path d="m5.2 54.45.45-.85q.9-1.7 2.05-3.2L9 48.85l1.5-1.4 3.1-2.5.55-.3 2.65-1.35 2.85-1.5 3.1-1.9q1.55-1.1 1.8-2.95.2-1.65-.3-3.1l-.4-.85 2.95 1.9.9.95q1.2 1.6 2.1 4.35.85 2.7.95 5.95.1 3.25-2.1 5.75-2.25 2.45-7.8 2.6-5.55.15-9.8-.2-3.8-.3-5.9.6l.05-.45m38.15.35q1.75.2 3 1.55 3.6 3.95 2.6 9.05-.75 3.85-3.55 6.2l-.4.3H28.35q17.95-7.95 15-17.1m-18.5 6.55q-4.1.4-9.35 3.75l.05-3.1 5.2-5.2h1.4l2.7 4.55" fill="#aac3df"/><path d="M79.85 24.05q2.45 1.35 4.9 3.45L86 29.3l1.25 2.3.5 1.15q1.4 3.35 2.6 8.3 1.95 8.05.7 9.35-1.25 1.3-2.35 1.4-3.85-.5-5.85-4.05l1.5.2q-.85-6.85-6.8-13.2h7.9q-7.95-8.1-25.25-8.35l1.2-2.75q9.4-4.6 18.45.4" fill="#e7ff0b"/><path d="M84.75 27.5q-1.6-2.25-2.65-3-.95-.7-2.25-.45-9.05-5-18.45-.4.8-2.4.65-4.35Q79.9 14.9 89.4 27l2.3 3.45-1.7.75.3.4.75 1.15q4.85 7.65 6.45 15l.1.45q2.9 14.35-6.8 27.75l-.2.25-.3.35-.3.4-1.05 1.15-.45.4-.75.65-.2.15q-7.6 5.75-22 .25l.3-.5L67.8 76q3.8 1.2 8.55 1.1h.6l4.5-.5q24.35-4.45 8.7-43.5l-.15-.35-1-1.15-4.25-4.1" fill="#8b4c31"/><path d="M84.75 27.5 89 31.6l1 1.15.15.35q15.65 39.05-8.7 43.5l-4.5.5h-.6q-4.75.1-8.55-1.1l.4-.7q17.3-9.6 12.7-27.85l1.95.3q2 3.55 5.85 4.05 1.1-.1 2.35-1.4 1.25-1.3-.7-9.35-1.2-4.95-2.6-8.3l-.5-1.15L86 29.3l-1.25-1.8" fill="#ebae05"/></g><g id="v"><filter id="F"><feColorMatrix in="SourceGraphic" result="filterResult0" values="0 0 0 0 1.0,0 0 0 0 0.8,0 0 0 0 0.0,0 0 0 1 0"/><feConvolveMatrix divisor="484" in="filterResult0" kernelMatrix="1 1 1 1 1 1 1 1 1 1 1 1 1 1 1 1 1 1 1 1 1 1 1 1 1 1 1 1 1 1 1 1 1 1 1 1 1 1 1 1 1 1 1 1 1 1 1 1 1 1 1 1 1 1 1 1 1 1 1 1 1 1 1 1 1 1 1 1 1 1 1 1 1 1 1 1 1 1 1 1 1 1 1 1 1 1 1 1 1 1 1 1 1 1 1 1 1 1 1 1 1 1 1 1 1 1 1 1 1 1 1 1 1 1 1 1 1 1 1 1 1 1 1 1 1 1 1 1 1 1 1 1 1 1 1 1 1 1 1 1 1 1 1 1 1 1 1 1 1 1 1 1 1 1 1 1 1 1 1 1 1 1 1 1 1 1 1 1 1 1 1 1 1 1 1 1 1 1 1 1 1 1 1 1 1 1 1 1 1 1 1 1 1 1 1 1 1 1 1 1 1 1 1 1 1 1 1 1 1 1 1 1 1 1 1 1 1 1 1 1 1 1 1 1 1 1 1 1 1 1 1 1 1 1 1 1 1 1 1 1 1 1 1 1 1 1 1 1 1 1 1 1 1 1 1 1 1 1 1 1 1 1 1 1 1 1 1 1 1 1 1 1 1 1 1 1 1 1 1 1 1 1 1 1 1 1 1 1 1 1 1 1 1 1 1 1 1 1 1 1 1 1 1 1 1 1 1 1 1 1 1 1 1 1 1 1 1 1 1 1 1 1 1 1 1 1 1 1 1 1 1 1 1 1 1 1 1 1 1 1 1 1 1 1 1 1 1 1 1 1 1 1 1 1 1 1 1 1 1 1 1 1 1 1 1 1 1 1 1 1 1 1 1 1 1 1 1 1 1 1 1 1 1 1 1 1 1 1 1 1 1 1 1 1 1 1 1 1 1 1 1 1 1 1 1 1 1 1 1 1 1 1 1 1 1 1 1 1 1 1 1 1 1 1 1 1 1 1 1 1 1 1 1 1 1 1 1 1 1 1 1 1 1 1 1 1 1 1 1 1 1 1 1 1 1 1 1 1 1 1 1 1 1 1 1 1 1 1 1 1 1 1 1 1 1 1 1 1 1 1 1 1 1 1" order="22 22" result="filterResult1"/><feComposite in="SourceGraphic" in2="filterResult1" result="filterResult2"/></filter><use ffdec:characterId="12" filter="url(#F)" height="93.3" width="63.95" xlink:href="#G"/></g><g id="h" fill-rule="evenodd"><path d="M29.9 5.35q-4.85 0-6.4.15l-.45.05q-1.8.3-3.7 1.4-7.2.95-10.95 7.85-2.6 4.8-3.6 11.9l-.25 2.35-.3 4.25.1 4q.6 7.95 5.05 14.95l1.55 2.3q1.85 2.5 4 4.35 2.8 2.4 6.15 3.65l3.5 1 .2.05 5.15.4q11.9-.3 19.75-11 7.9-10.75 7-22.5-.9-11.8-8.65-19.05Q41.5 5.35 30 5.35h-.1M13.25 62.9h-.15l-.95-.85-.35-.35Q-.85 49.5.05 31.9q1-19.7 16.8-29.9 1.6-1 3.3-1.65 12.8-1.5 25.65 3.2 16.75 6.05 14.6 24.9l-.05.6-.05.25h.05q3.65 29.05 2.3 48.55l-4.7-4.7Q59 57.9 57.9 40.75l-1.6 4.55q-3.1 7.6-8.1 12.15-9.25 8.4-19.05 8.55Q31.9 69.65 35 81.1l-2.4 3.85-.05-.25-2.15-8.75-.2-.75-.05-.25-1.15-4.2-1.1-4.2-.3.3q-4.7-2-10-3.15h-.05l-4.3-.8" fill="#003152"/><path d="M14.95 58.9q-2.15-1.85-4-4.35l-1.55-2.3q.9-1.9 3.9-3.8 2.3-1.4 6.5-3.5-.5.6-1.05 1.95-.6 1.45-.6 2.5 0 1.85 2.25 6.45-2.1 2.6-5.45 3.05M4.35 37.3l-.1-4 .3-4.25.25-2.35q1.2-.45 3-.75l6.45-.95q-4.25 1.1-7.2 6.15-1.4 2.4-2.7 6.15M50.5 96.85q-10-3.85-14.5-11l2.45-6L48.7 85.6l3.1-6.25.4 5.35v.55l-.25 7q-.3 2.3-1.45 4.6" fill="#fff92b"/><path d="M23.5 5.5q1.8 3 2.25 7.1.4 3.4.4 9.35l1 9.6.45 9.55q0 4.85-1.25 6.3-3.2 3.7-4.6 6.4l-1.35 2.05q-2.25-4.6-2.25-6.45 0-1.05.6-2.5.55-1.35 1.05-1.95-4.2 2.1-6.5 3.5-3 1.9-3.9 3.8-4.45-7-5.05-14.95 1.3-3.75 2.7-6.15Q10 26.1 14.25 25l-6.45.95q-1.8.3-3 .75 1-7.1 3.6-11.9 3.75-6.9 10.95-7.85 1.9-1.1 3.7-1.4l.45-.05m14.85 70.8.25-.35q.55-.75 1.3-1.15 1.35-.75 4.5-.75 4.9 0 6.6 2.8l-3.05 5.9-9.6-6.45" fill="#5bdfd5"/><path d="M23.5 5.5q1.55-.15 6.4-.15 1.95 4.15 3.8 14.85 1.85 10.65 2.4 16.6.55 5.9-.1 8.2l-1 2.75v.3q.7-.7 3.5-1.95 1.05 0 1.55 1.1l.3 1.5q0 2.55-1.95 5.4-2.1 3.1-4.35 3.1-1.05 0-1.55-1.1-.45-1-.25-1.75-1 2.7-4.45 5.25-2.15 1.6-4.15 2.35L21.3 57.6l-.9-1.75 1.35-2.05q1.4-2.7 4.6-6.4 1.25-1.45 1.25-6.3l-.45-9.55-1-9.6q0-5.95-.4-9.35-.45-4.1-2.25-7.1" fill="#2cc0ff"/><path d="M23.65 61.95q2-.75 4.15-2.35 3.45-2.55 4.45-5.25-.2.75.25 1.75.5 1.1 1.55 1.1 2.25 0 4.35-3.1 1.95-2.85 1.95-5.4l-.3-1.5q-.5-1.1-1.55-1.1-2.8 1.25-3.5 1.95v-.3L36 45q.65-2.3.1-8.2-.55-5.95-2.4-16.6-1.85-10.7-3.8-14.85h.1q11.5 0 18.05 6.1Q55.8 18.7 56.7 30.5q.9 11.75-7 22.5-7.85 10.7-19.75 11l-5.15-.4-.2-.05-.95-1.6m14.95 14-.55.15-3.05 5Q31.9 69.65 29.15 66q9.8-.15 19.05-8.55 5-4.55 8.1-12.15l-.2 5.75.55 11.25q.3 5.55-.05 9.5l-1.95-1.95-3.65 7q-1.7-2.8-6.6-2.8-3.15 0-4.5.75-.75.4-1.3 1.15" fill="#2392ca"/><path d="m20.4 55.85.9 1.75 2.35 4.35.95 1.6-3.5-1q-3.35-1.25-6.15-3.65 3.35-.45 5.45-3.05m-2.8 7.85q5.3 1.15 10 3.15l.3-.3 1.1 4.2-8.7 17.2 1.45-20.9-4.7 3.65.55-7m34.2 15.65 3-6 2.8 4.3-.8 7.05q-.9 6.95-2.3 13.45l-4-1.3q1.15-2.3 1.45-4.6l.25-7v-.55l-.4-5.35" fill="#ffac15"/><path d="M62.65 77.85 62 84.7q-1.4 10.5-4.5 17.6-18.25-1.7-24.45-15.25l-.45-2.1L35 81.1l3.05-5 .3.2 9.6 6.45 3.05-5.9 3.65-7 1.95 1.95 1.35 1.35 4.7 4.7M30.2 75.2l-13.15 26.65V73.8l-3.35 4.3-.2-15-.25-.2 4.3.8h.05l-.55 7 4.7-3.65-1.45 20.9 8.7-17.2 1.15 4.2.05.25m20.3 21.65 4 1.3q1.4-6.5 2.3-13.45l.8-7.05-2.8-4.3-3 6-3.1 6.25-10.25-5.75-2.45 6q4.5 7.15 14.5 11" fill="#8b4c31"/><path d="M56.6 71.8q.35-3.95.05-9.5l-.55-11.25.2-5.75 1.6-4.55q1.1 17.15.05 32.4L56.6 71.8" fill="#dffb89"/></g><g id="i" fill-rule="evenodd"><path d="M9.1 27.55q-5.4 12.25-6.45 24Q1.6 63.3 4.95 74.5h-.1Q-9.6 38.25 19.05 3.15l5.5-1.1q-10 13-15.45 25.5m5.2 54 6.2 5.9.3.25q4.65 4.2 9.1 7.7l.55.4 5.5 3.95q5.05 3.45 9.85 5.8l-.05.15q-6.7-2.05-12.75-5.95-10.25-6.55-18.8-18.1l.1-.1" fill="#003152"/><path d="M53.25 33.45q-5.1-2.25-5.95-2.25l-.85.3-4.9.85-9.95.9q-5.8.3-15.25-2.4-5-1.45-7.25-3.3 5.45-12.5 15.45-25.5 50.5-9.1 70.85 22.5-3.8 15.7-8.2 28.35-6.4-5.15-17.15-11.1l-1.7-.95q-6.65-3.65-13.4-6.65l-1.7-.75" fill="#aac3df"/><path d="m53.25 33.45-2 3.8q-4.45 8.1-7.2 8.1-1.95 0-4.3-1.5L37.5 42q1.3 12.2-3.7 21-5.2 8.9-7.3 8.25Q14.45 63.15 9.05 44q-1.15 3.05-3.1 5-1.1 1.1-3.3 2.55 1.05-11.75 6.45-24 2.25 1.85 7.25 3.3 9.45 2.7 15.25 2.4l9.95-.9 4.9-.85.85-.3q.85 0 5.95 2.25" fill="#fff"/><path d="M2.65 51.55q2.2-1.45 3.3-2.55 1.95-1.95 3.1-5 5.4 19.15 17.45 27.25 2.1.65 7.3-8.25 5-8.8 3.7-21l2.25 1.85q2.35 1.5 4.3 1.5 2.75 0 7.2-8.1l2-3.8 1.7.75q6.75 3 13.4 6.65-4.15 5.8-8.9 13.4L44.2 78.1Q36 90.8 20.8 87.7l-.3-.25-6.2-5.9-.55-.55.45.65q-4.5-2.2-9.25-7.15-3.35-11.2-2.3-22.95" fill="#5bdfd5"/><path d="M20.8 87.7q15.2 3.1 23.4-9.6l15.25-23.85q4.75-7.6 8.9-13.4l1.7.95Q80.8 47.75 87.2 52.9q-9.1 26.5-20.7 39.7-2.3-2.1-6.45-3.75-5.25-2.05-8.85-2.05-2.2 0-6.7 1.3-5.25 1.55-5.25 3.1 0 .85.35 1.95 0 .85-1.9 1.7l-2.35.95-2.4.3-1.6-.15-.9-.15-.55-.4q-4.45-3.5-9.1-7.7" fill="#2cc0ff"/><path d="M45.8 105.55q-4.8-2.35-9.85-5.8l-5.5-3.95.9.15 1.6.15 2.4-.3 2.35-.95q1.9-.85 1.9-1.7-.35-1.1-.35-1.95 0-1.55 5.25-3.1 4.5-1.3 6.7-1.3 3.6 0 8.85 2.05 4.15 1.65 6.45 3.75-3.75 4.25-7.75 7.15-6.15 4.4-12.95 5.8" fill="#2392ca"/></g><g id="y"><filter id="H"><feColorMatrix in="SourceGraphic" result="filterResult3" values="0 0 0 0 1.0,0 0 0 0 0.8,0 0 0 0 0.0,0 0 0 1 0"/><feConvolveMatrix divisor="484" in="filterResult3" kernelMatrix="1 1 1 1 1 1 1 1 1 1 1 1 1 1 1 1 1 1 1 1 1 1 1 1 1 1 1 1 1 1 1 1 1 1 1 1 1 1 1 1 1 1 1 1 1 1 1 1 1 1 1 1 1 1 1 1 1 1 1 1 1 1 1 1 1 1 1 1 1 1 1 1 1 1 1 1 1 1 1 1 1 1 1 1 1 1 1 1 1 1 1 1 1 1 1 1 1 1 1 1 1 1 1 1 1 1 1 1 1 1 1 1 1 1 1 1 1 1 1 1 1 1 1 1 1 1 1 1 1 1 1 1 1 1 1 1 1 1 1 1 1 1 1 1 1 1 1 1 1 1 1 1 1 1 1 1 1 1 1 1 1 1 1 1 1 1 1 1 1 1 1 1 1 1 1 1 1 1 1 1 1 1 1 1 1 1 1 1 1 1 1 1 1 1 1 1 1 1 1 1 1 1 1 1 1 1 1 1 1 1 1 1 1 1 1 1 1 1 1 1 1 1 1 1 1 1 1 1 1 1 1 1 1 1 1 1 1 1 1 1 1 1 1 1 1 1 1 1 1 1 1 1 1 1 1 1 1 1 1 1 1 1 1 1 1 1 1 1 1 1 1 1 1 1 1 1 1 1 1 1 1 1 1 1 1 1 1 1 1 1 1 1 1 1 1 1 1 1 1 1 1 1 1 1 1 1 1 1 1 1 1 1 1 1 1 1 1 1 1 1 1 1 1 1 1 1 1 1 1 1 1 1 1 1 1 1 1 1 1 1 1 1 1 1 1 1 1 1 1 1 1 1 1 1 1 1 1 1 1 1 1 1 1 1 1 1 1 1 1 1 1 1 1 1 1 1 1 1 1 1 1 1 1 1 1 1 1 1 1 1 1 1 1 1 1 1 1 1 1 1 1 1 1 1 1 1 1 1 1 1 1 1 1 1 1 1 1 1 1 1 1 1 1 1 1 1 1 1 1 1 1 1 1 1 1 1 1 1 1 1 1 1 1 1 1 1 1 1 1 1 1 1 1 1 1 1 1 1 1 1 1 1 1 1 1 1 1 1 1 1 1 1 1 1 1 1 1 1 1 1 1 1 1 1" order="22 22" result="filterResult4"/><feComposite in="SourceGraphic" in2="filterResult4" result="filterResult5"/></filter><use ffdec:characterId="19" filter="url(#H)" height="119.3" width="84.55" xlink:href="#I"/></g><g id="k" fill-rule="evenodd"><path d="M75.15 103.95 56.35 82.2q-12.75.95-22.7-1.85l-1.8-.55-5-2.3q-7.05-3.5-12.2-7.85Q-1.55 56.05.15 34.2l.3-.1.1.75q3.15 25.8 19.6 36Q32.7 78.65 53 77.3l2.95-.25 3.9-.75q8-2 14.8-6.4l.5-.35 1.6-1.1 1.3-1.05q6.95-9.1 9.5-17.8Q93.5 29 74 9.35L71.35 6.8 63.15.5 65 0l10.8 3.3.5.45q19.8 18.65 13.85 44.1l-.3 1.05-1.4 4.85-2.4 6.1 9.25 13.2L98.8 78l3 4.3-5.5-2.1-11.05-17.75-1.15 1.35q-2.95 3.15-6.35 5.8-8.45 6.55-19.6 9.5l12.6 15 4.5 5.3-.1 4.55" fill="#003152"/><path d="M.55 34.85.7 34q13.95-5.15 27.6 2.35 13.75 7.55 14.2 23.6.25 8.3-5.7 11.35l-1.3.15-15.35-.6Q3.7 60.65.55 34.85m74.7 64.55-4.5-5.3-.2-.7q-.45-.95-.45-2.4 0-6.9 3.4-8.85 2.25-1.35 9.5-1.35l6.4.65q1.95.55 2.9 1.6l-.25 10.8L76.35 88q-.9 6-1.1 11.4" fill="#5bdfd5"/><path d="m.7 34-.25-.7q10.25-12.75 25.7-20.9 13.8 2.65 24.3 12.6 12.5 11.8 10.3 25.45L50.7 53.2l3.55 1.2 4.95 1.8Q55.15 66.55 43.1 70l-6.3 1.3q5.95-3.05 5.7-11.35-.45-16.05-14.2-23.6Q14.65 28.85.7 34" fill="#2cc0ff"/><path d="M26.15 12.4Q40.95 4.55 60.6.95q21.4 14.4 26.2 32.7-2.1 1-2.8 1.95-.8 1.05-.8 3.2 0 1.75.7 2.5.65.7 2.15.7l.75-.25q-.5 3.9-1.35 7.45-12.6-2.3-21.85.4l-2.85.85Q62.95 36.8 50.45 25q-10.5-9.95-24.3-12.6m44.6 81.7-12.6-15q11.15-2.95 19.6-9.5 3.4-2.65 6.35-5.8l9.5 15.35-1.2-.45-.1 4.35q-.95-1.05-2.9-1.6L83 80.8q-7.25 0-9.5 1.35-3.4 1.95-3.4 8.85 0 1.45.45 2.4l.2.7m4.4-24.55-.5.35q-6.8 4.4-14.8 6.4l-3.9.75-2.95.25q-20.3 1.35-32.85-6.45l15.35.6 1.3-.15 6.3-1.3q12.05-3.45 16.1-13.8 9.8 4.1 17.25 11.9l-1.3 1.45" fill="#2392ca"/><path d="M59.2 56.2q.85-2.15 1.35-4.6l.2-1.15 2.85-.85q9.25-2.7 21.85-.4-2.75 11.5-9 18.9Q69 60.3 59.2 56.2m36.1 16.85-9.25-13.2 2.4-6.1 3.4 4.5h-1.6l13 15.25-7.95-.45m12.3 47.1q-14.35.45-28.85-13.15l-.4-1.15q1.65 1.4 4.7 3.45 4.85 3.35 9.1 3.9 4.2.55 6.45-1.75 2.2-2.35 2.2-5.9 0-2.6-.7-5.15l-2.3-6.55-2-5.7q-.85-2.15-1.75-3.35l.2-3.45 1.05.65q9.55 20 12.3 38.15" fill="#ffac15"/><path d="m60.75 50.45-.2 1.15q-.5 2.45-1.35 4.6l-4.95-1.8-3.55-1.2 10.05-2.75m42.5 23.05-13-15.25h1.6l-3.4-4.5 1.4-4.85 7.1 4.7-3.75 4.9 16 15.35-5.95-.35m-24.9 32.35q-1.75-6.1-.25-14.7l16.15 4.75-.2-11.1q.9 1.2 1.75 3.35l2 5.7 2.3 6.55q.7 2.55.7 5.15 0 3.55-2.2 5.9-2.25 2.3-6.45 1.75-4.25-.55-9.1-3.9-3.05-2.05-4.7-3.45" fill="#fff92b"/><path d="M60.6.95 63.15.5l8.2 6.3L74 9.35Q93.5 29 87.55 49.6q-2.55 8.7-9.5 17.8l-1.3 1.05-.3-.35q6.25-7.4 9-18.9.85-3.55 1.35-7.45l-.75.25q-1.5 0-2.15-.7-.7-.75-.7-2.5 0-2.15.8-3.2.7-.95 2.8-1.95Q82 15.35 60.6.95M84.1 63.8l1.15-1.35L96.3 80.2l-2.7-1.05-9.5-15.35M95.3 82l3.3 2.05q9.9 23.65 9.55 36.05l-.55.05Q104.85 102 95.3 82" fill="#e3ff8a"/><path d="m90.15 47.85 10.85 2.1.35.4q.75 1.1.75 2.4 0 1.5-3 4.95l19.5 18.4q.85.85.85 2.05 0 1.4-3.4 1.5h-1.1L98.8 78l-3.5-4.95 7.95.45 5.95.35-16-15.35 3.75-4.9-7.1-4.7.3-1.05M101.8 82.3l.9.55q9.9 24.85 8.85 40.6-18.5 4.45-35.85-13.8l-.3-.35-.25-5.35.1-4.55q.2-5.4 1.1-11.4l15.7 5.85.25-10.8.1-4.35 1.2.45 2.7 1.05 5.5 2.1m6.35 37.8q.35-12.4-9.55-36.05L95.3 82l-1.05-.65-.2 3.45.2 11.1-16.15-4.75q-1.5 8.6.25 14.7l.4 1.15q14.5 13.6 28.85 13.15l.15 1.1.4-1.15" fill="#8b4c31"/></g><g id="l" fill-rule="evenodd"><path d="m16.4 6.9 10.75-4.7q14.4 12.6 26.8 20.3v-1.9q6.8-2.45 11.3-8.45v10.1q7.9-.8 13.9-6.9l-4.35 6.9q4-.5 7.05-1.7 1.75 12 .2 22.9l-3-2.85q.55-5.2.55-8.25 0-3.9-.35-5.2h-.9L75 29.2q-2.2 1.35-3.95 1.55h-.65q1.4-.6 2.3-2.65.75-1.8.75-3.9l-.15-2.15-.05-.1v.1l-4.3 1.7q-3.35 1.15-5 1.15t-1.65-1.35l.6-1.95v-1.05L58.25 23q-2.9 1.5-4.8 2.95-10.8-3.2-21.95-2.6l-2.9.4L16.4 6.9m2.85 64.5q4.65 1.25 10.35 4.55-5.8 2.2-5.1 13.8l-7.15-4.3.15-.2q5.9-8.3 1.75-13.85M65.2 57.65l-.3-.5q-3.35-5.65-8.4-7 1.6-.75 4.8-1.95 4.05-1.6 4.85-2.4-1.8-1.2-7.5-2.9-6.15-1.8-9.55-1.8l-4.95.4-4.3.7 1.5-2.3q.75-1 .75-2.2l-.05-.7 2.05-2.35v4.85Q62.45 35 76.4 49q-5.2-.7-7.7 2.15Q75 63.3 75.05 71.6q-3.5-4.85-6.9-7.85l-.35-.3q-.9-2.75-2.4-5.5l-.2-.3M61 90.45l-4.6 1.65-1.4.35h-7.3q.35-4.55-1.35-7.95l2.45.85q4.6 1.55 6.15 1.55 2.75 0 5.2-1.4l.15.85.7 4.1" fill="#2392ca"/><path d="M27.15 2.2 32.2 0l18.5 17 .35-.05Q59.5 15.95 66 5.4q3.3 4.65 3.7 11.1 8.2-3.45 14.8-11.1.2 6.95-2.15 11.9l3.3-1.7q7.2 12 1.65 33.95-.6-.35-2.3-2.75l-1.6-1.95q2.8-12.4-.4-24.8l-1.15.5q-3.05 1.2-7.05 1.7l4.35-6.9q-6 6.1-13.9 6.9v-10.1q-4.5 6-11.3 8.45v1.9q-12.4-7.7-26.8-20.3m48.1 77.15-.85 1.35-1.2 2-.95 1.85q-7.2 10.05-25.75 8.7v-.05h.3l8.2-.75 1.4-.35 4.6-1.65q6.75-3.15 11.45-9.85l.8-1.25 1.1-2.6q.65-2.2.7-4.75v-.4Q75 63.3 68.7 51.15q2.5-2.85 7.7-2.15-13.95-14-32.3-9.5v-4.85L42.05 37l-1.75 1.95q-22.05.3-29.75 12.85l-.85 1.75Q4.2 65 2.65 71.65l-.05.15-1.45 1-.25.2q-.75-4.75 4.4-14.65 1.25-2.4 2.85-5.1l.2-.3.6-1 2.1-2.9 1.4-1.5q9.35-9.7 28.05-10.4l3.2-3.05 1.1-1.05.15 1.25.4 3.7q20.9-5.05 32.5 12.25-2.5-.35-7.75 1.1 7.1 11.5 6.35 22.8l-.6 1.25-.3.75q-.4 1.4-.4 2.45l.1.75M23.1 91.1l-1.35-.95-2.05-1.4-4.6-3.15h-.05l2.45-.35-.15.2 7.15 4.3-1.05 1.55-.35-.2m1.45-66.35L12.8 8.45l3.6-1.55 12.2 16.85-4.05 1" fill="#003152"/><path d="M53.45 25.95q1.9-1.45 4.8-2.95l4.65-2.45v1.05l-.6 1.95q0 1.35 1.65 1.35t5-1.15l4.3-1.7h.05l.15 2.15q0 2.1-.75 3.9-.9 2.05-2.3 2.65h.65q1.75-.2 3.95-1.55l3.35-2.05h.9q.35 1.3.35 5.2 0 3.05-.55 8.25l-4.1-3.6q-7.75-6.6-19.5-10.45l-2-.6m-50.8 45.7Q4.2 65 9.7 53.55l.85-1.75q7.7-12.55 29.75-12.85L42.05 37l.05.7q0 1.2-.75 2.2l-1.5 2.3 4.3-.7 4.95-.4q3.4 0 9.55 1.8 5.7 1.7 7.5 2.9-.8.8-4.85 2.4-3.2 1.2-4.8 1.95 5.05 1.35 8.4 7l.3.5-8.45-3 .85 3.05-2.7-1.2.4.65q1.75 2.8 3.3 6.3.5 6.4-2.2 10.15h-1.9l1.05 1q-4.35 4.55-14.65 4.15-3.25-2.05-7.95-3.35-1.75-.05-3.15.45l-.2.1q-5.7-3.3-10.35-4.55l-2.3-2.3-1.25-.9q-7.4-3.35-12.85 3.5l-.2-.05m37.2-29.45h-.25.25M23.5 47.75h-.75l-2.95.7q-1.95.6-3.8 1.5-4.95 2.5-4.95 5.95 0 4.35 4.5 7.1 3.85 2.35 8.35 2.35 5.4 0 10.15-2.7 5-2.8 5-6.4 0-3.9-5-6.5-4.25-2.2-8.85-2.2l-.5.05-1.2.15" fill="#5bdfd5"/><path d="m81.85 20.55 1.15-.5q3.2 12.4.4 24.8l-1.35-1.4q1.55-10.9-.2-22.9" fill="#e3ff8a"/><path d="m19.8 48.45 2.9-.45.8-.25 1.2-.15.5-.05q4.6 0 8.85 2.2 5 2.6 5 6.5 0 3.6-5 6.4-4.75 2.7-10.15 2.7-4.5 0-8.35-2.35-4.5-2.75-4.5-7.1 0-3.45 4.95-5.95 1.85-.9 3.8-1.5" fill="#adffdf"/><path d="M46.5 93.2h-.25l.25.05q-13.75 9.7-19.65 15.75-3.45-4.5-3.75-17.35v-.55l.35.2 1.05-1.55q-.7-11.6 5.1-13.8l.2-.1q1.4-.5 3.15-.45 4.7 1.3 7.95 3.35 3.7 2.35 5.45 5.75 1.7 3.4 1.35 7.95H55l-8.2.75h-.3m-24.75-3.05q-.7 10.05-2.1 13.45-5 0-10.95-12.75L2.3 96.8q-3.85-8.45-1.25-23.35l.1-.65 1.45-1-.05.25.3-.35q5.45-6.85 12.85-3.5l1.25.9 2.3 2.3q4.15 5.55-1.75 13.85l-2.45.35-.15.05h-.15l-.15.05q-1.35.2-3.1 1.55v.2q.3 4.9 5.25 12.15l1.5 1.3q-.8-8.2 1.45-12.15l2.05 1.4m5.5 16.05q9.4-9.05 18.05-14.85l.4-.25q.75-4.1-1.85-7.55l-.8-.95-.65-.7-.1-.1q-2.35-2.3-4.45-3.55l-.25-.15q-6.45-3.75-10.6 2.05-2.4 17.3.15 26.1v.05l.1-.1M3.7 93.3q4.05-5.75 11.8-9.6l.35-.25q3.15-2.5 3.6-7.1l-.2-.9q-.55-2.5-1.5-4.15-2.15-3.7-6.25-3.15-2.4.3-5.45 2.05Q.4 83.35 3.5 92.75l-.1.8.3-.25" fill="#3e63a1"/><path d="m12.45 47.55-1.4 1.5-2.1 2.9-.6 1h-.2q-.2-3.15.1-6.25.9-8.95 7.8-14.75 6.9-5.85 16.25-6.9 9.35-1.1 17 1.05l5.1 1.6 1.1.4.8.75q.85 1 .85 2.35 0 3.7-6.5 3.7l-5.7-.6-.15-1.25-1.1 1.05q-3.8-.25-13.95 1.6-10.85 1.95-17.3 11.85" fill="#e7ff0b"/><path d="M12.45 47.55q6.45-9.9 17.3-11.85 10.15-1.85 13.95-1.6l-3.2 3.05q-18.7.7-28.05 10.4m32.5-13.25 5.7.6q6.5 0 6.5-3.7 0-1.35-.85-2.35l-.8-.75q4.7 1.75 9.65 4.2 8.15 4.1 12.65 9.35l.75.9q3.8 4.85 4.65 10.35.9 6-.3 10.5-1.8 6.65-6.5 11.45l.05-.7q.75-11.3-6.35-22.8 5.25-1.45 7.75-1.1-11.6-17.3-32.5-12.25l-.4-3.7m30.1 37.3v.4q-.05 2.55-.7 4.75l-1.1 2.6-.8 1.25q-4.7 6.7-11.45 9.85l-.7-4.1-.15-.85q2.5-1.45 4.7-4.3 4.4-5.7 4.05-11.8-.15-2.95-1.1-5.95l.35.3q3.4 3 6.9 7.85" fill="#f7ad10"/><path d="M87.3 49.55q-.05.2.2.35 3.55 16.65-9.7 31.05l-1.45-.35q-.9-.3-1.1-1.25l-.1-.75q0-1.05.4-2.45l.3-.75.55-.55q4.7-4.8 6.5-11.45 1.2-4.5.3-10.5-.85-5.5-4.65-10.35l-.75-.9q-4.5-5.25-12.65-9.35-4.95-2.45-9.65-4.2l-1.1-.4-5.1-1.6q-7.65-2.15-17-1.05-9.35 1.05-16.25 6.9-6.9 5.8-7.8 14.75-.3 3.1-.1 6.25v.3q-1.6 2.7-2.85 5.1-.45-15.15 6.3-24.4 4.8-6.65 12.95-9.2l4.05-1 2.9-.4q11.15-.6 21.95 2.6l2 .6Q67.2 30.4 74.95 37l4.1 3.6 3 2.85 1.35 1.4L85 46.8q1.7 2.4 2.3 2.75" fill="#8b5239"/><path d="M37.85 78.25q0 1 .3 2.85-.65 5.2-4.9 11.1-4.3 5.95-5.1 9.6l-.9 4.4-.1.05q-2.55-8.8-.15-26.1 4.15-5.8 10.6-2.05l.25.15M3.5 92.75Q.4 83.35 6.05 70.2q3.05-1.75 5.45-2.05 1.9 2.1 1.95 4.85.05 3-4.45 8.65-4.55 5.6-5.2 9.2l-.3 1.9m13.25 6.85q-4.95-7.25-5.25-12.15v-.2q1.75-1.35 3.1-1.55-.3 1.3-.3 2.9 0 3 1.15 6.75l1.3 4.25" fill="#fff"/><path d="M37.85 78.25q2.1 1.25 4.45 3.55l.1.1.65.7.8.95q2.6 3.45 1.85 7.55l-.4.25q-8.65 5.8-18.05 14.85l.9-4.4q.8-3.65 5.1-9.6 4.25-5.9 4.9-11.1-.3-1.85-.3-2.85M11.5 68.15q4.1-.55 6.25 3.15.95 1.65 1.5 4.15l.2.9q-.45 4.6-3.6 7.1l-.35.25q-7.75 3.85-11.8 9.6l-.2-.55.3-1.9q.65-3.6 5.2-9.2Q13.5 76 13.45 73q-.05-2.75-1.95-4.85m3.55 17.45h.05l4.6 3.15q-2.25 3.95-1.45 12.15l-1.5-1.3-1.3-4.25Q14.3 91.6 14.3 88.6q0-1.6.3-2.9l.15-.05h.15l.15-.05" fill="#aac3df"/><path d="M40.9 78.75q10.3.4 14.65-4.15 2.25 2.5 3.6 6.9l1 4q-2.45 1.4-5.2 1.4-1.55 0-6.15-1.55l-2.45-.85q-1.75-3.4-5.45-5.75m15.5-5.15q2.7-3.75 2.2-10.15 2 4.5 3.6 10.15h-5.8m1.2-15.9-.85-3.05 8.45 3 .2.3q1.5 2.75 2.4 5.5-3.45-2.95-8-4.8l-2.2-.95" fill="#2cc0ff"/><path d="m55.55 74.6-1.05-1h7.7q-1.6-5.65-3.6-10.15-1.55-3.5-3.3-6.3l-.4-.65 2.7 1.2 2.2.95q4.55 1.85 8 4.8.95 3 1.1 5.95.35 6.1-4.05 11.8-2.2 2.85-4.7 4.3l-1-4q-1.35-4.4-3.6-6.9" fill="#fff92b"/></g><g id="m" fill-rule="evenodd"><path d="m184.15 137.5 13.95 8.65q-2.9-23.3-10.35-47.7l18.95-4.85q-8.6-10.2-18.85-18.7-10.3-8.55-22.25-15.45L150.7 7.6l-.8-2.7-55.05 28.15-3.3-9.7q-21.1 15.3-30.8 28.9l-2.7 4.1q11.35-6.05 24.55-6.9l.05.1.15.55-.45 1.6-.9 1.9v.1h.05q2.25-1.45 3.85-1.95l2.95-.4.3 1.75-2.55 1.3-.6.25-1.45.8-1.15.5-1.85.85-1.3.4-.4-.05-.2-.35-.15-.9.15-1.35.6-1.8.75-1.1.2-.3q-10.2.65-20.85 5.5l-1.45.7-1 .5q-2.1 1-4.15 2.15l1.75-3.05.35-.55 1.85-2.55 2.8-3.2 21.45-24.1 12.2-9.65 3.5 10.15Q132.3 8.4 155.55 0l12.9 56.65q28.8 15.5 45.55 38.3l-20.6 6.5q6.7 28.1 8.75 53.15l-19-13.25-9.25 21.45q-6.3-14.25-5.35-35.3l18.15 3.85q-9.85-13.35-25.45-27.75l17.3-12.1q-24.2-9.15-49.1-10.3l-2.05-5.85q32.35 5.15 58.35 14.75l1.05 1.4q-12.05 6.1-19 12.15 16.75 15.4 24.75 30.4-1.4 2.35-19.35-1.75l1 19.2 6.3-16.25 3.65 2.25M9.7 98Q15 81.4 22.2 64.05l1.5.1.3.6q3.05 6.15 4.8 13.45l-2.9 3-2.95-9.8.2-.75-.3.75-7.35 22q-2.1 2.05-4.6 3.7l-1.2.9m1.1 21.15q1.95-.05 3.9 1.4l-6.6 12.3-1.85 3.4 14.1-6.35.45.25q1.2 1.6 1.95 3.75v.1l-.25.15Q11.6 139.6 0 142.8q3.8-10.4 10.65-23.35l.15-.25v-.05" fill="#8b4c31"/><path d="M187.85 74.9q10.25 8.5 18.85 18.7l-18.95 4.85q7.45 24.4 10.35 47.7l-13.95-8.65 12.4 4-17.15-39.35 18.05-12.6-13-12 3.4-2.65M60.75 52.25q9.7-13.6 30.8-28.9l3.3 9.7L149.9 4.9l.8 2.7-58.65 33.75 2.2-6.1-33.5 17M22.85 71.4h.1L19.3 88.7l-.6.85-3.2 3.85 7.35-22m-8.15 49.15 2.1 3.45-8.7 8.85 6.6-12.3" fill="#fff92b"/><path d="m187.85 74.9-3.4 2.65 13 12-18.05 12.6 17.15 39.35-12.4-4-3.65-2.25-6.3 16.25-1-19.2q17.95 4.1 19.35 1.75-8-15-24.75-30.4 6.95-6.05 19-12.15l-1.05-1.4q-26-9.6-58.35-14.75-5.9-13.75-22.3-27.2 1.95-.75 3.8-2.05l-4.6 1.4q-8.7 1.6-16.1-4.3-.4 4.3.1 8.15l-2.95.4q-1.6.5-3.85 1.95l-.05-.1.9-1.9.45-1.6-.15-.55-.05-.1q-13.2.85-24.55 6.9l2.7-4.1 33.5-17-2.2 6.1L150.7 7.6l14.9 51.85q11.95 6.9 22.25 15.45m-164.9-3.5 2.95 9.8-4.6 4.75-.3.45-1.7 2.3 3.65-17.3M16.8 124l3.15 5.2.4.7-14.1 6.35 1.85-3.4 8.7-8.85" fill="#ffac15"/><path d="M57.15 54.05 55.3 56.6l-.35.55q-9.15 7-17.05 14.35L31 78.25l-.5.55Q19.6 90 11.35 102.1q1.3 12.25 8.6 21.65 4.4 5.75 11.1 10.45 4.05 2.3 8.7 3l8.7.6 9.55-.55 9.4.3.2.05q3.8.75 8.95 7.4v.1l-.1.1q-4.45-3.9-6.8-4.95-4.1-1.9-12.75-1.9l-9.35.3q-6.3 0-12.55-1.7l-4.05-1.3-1.95-.45q-.95 0-2.15.65l-1.05.65-2.9-2.1-.15-.4v-.1q-.75-2.15-1.95-3.75l-.3-.35-.55-.6-3.15-5.2-2.1-3.45q-1.95-1.45-3.9-1.4L7.7 111q-3.8-6.2-.05-10.95l1.55-1.6.5-.45 1.2-.9q2.5-1.65 4.6-3.7l3.2-3.85.6-.85 1.7-2.3.3-.45 4.6-4.75 2.9-3 6.2-6.4q10.45-10.55 22.15-17.75m31.45-.95-.3-1.75q-.5-3.85-.1-8.15 7.4 5.9 16.1 4.3l4.6-1.4q-1.85 1.3-3.8 2.05-7.4 2.8-15.75-2.45v.55q-.05 2.65.4 5.1l.2 1.1q.65 3.05 2.1 5.75-1.85-.6-2.8-1.7l-4 3.45q2.3 2.65 8.1 4.25-2.2.25-4-.05-1.75-.3-3.2-1.2-1.55-.95-2.65-2.6l-.2-.25 5.75-4.95v-.1l-.45-1.95" fill="#003152"/><path d="M95.15 117.6q22.7-38.15-5.8-53.45 1.8.3 4 .05-5.8-1.6-8.1-4.25l4-3.45q.95 1.1 2.8 1.7-1.45-2.7-2.1-5.75l-.2-1.1q-.45-2.45-.4-5.1l5.2 8.7 2.6 3.85 9.2 8q5.7 4.7 9.7 10.8 2 2.95 2.25 6.55.65 9.1-4.35 17.15-4.3 6.85-9.15 13.45-3.05.7-6.2 1.7l-3.45 1.15m4.35-56.25h-.1.1" fill="#2cc0ff"/><path d="m127.4 75.35 2.05 5.85q3.25 12.2-1.75 24.6l-1.6 3.55-1.5 2.8-.95-.05q-8.5 0-18.85 2.65 4.85-6.6 9.15-13.45 5-8.05 4.35-17.15-.25-3.6-2.25-6.55-4-6.1-9.7-10.8l-9.2-8-2.6-3.85-5.2-8.7v-.55q8.35 5.25 15.75 2.45 16.4 13.45 22.3 27.2" fill="#2392ca"/><path d="M59.8 56.85q10.65-4.85 20.85-5.5l-.2.3-.75 1.1-.6 1.8-.15 1.35.15.9.2.35.4.05 1.3-.4 1.85-.85 1.15-.5 1.45-.8.6-.25 2.55-1.3.45 1.95v.1L83.3 60.1l-.05.15q-3.1-1.9-7.3-2.65-7.65-2.1-16.15-.75" fill="#1b7eaf"/><path d="M54.95 57.15 53.2 60.2q2.05-1.15 4.15-2.15l.1.7q0 .95-1.35 2.75 1.5.95 2.15 1.7.75 1 .75 2.45 0 1.1-.4 1.9l-1.65 2.15q-.4.45-2.2.8l-2.5.35q-1.45 0-2.4-.75l-.95-.9-12.2 7.7-6.2 1.9.5-.55 6.9-6.75q7.9-7.35 17.05-14.35m8.95 9.45.45.25q1 .7 1 1.75 0 1-.7 1.65-.75.65-1.85.65-.7 0-1.15-.4-.5-.45-.5-1.25 0-2.05 1.25-2.6l1-.25.5.2" fill="#adffdf"/><path d="m57.35 58.05 1-.5 1.45-.7q8.5-1.35 16.15.75 4.2.75 7.3 2.65l.25.1q1.1 1.65 2.65 2.6 1.45.9 3.2 1.2 28.5 15.3 5.8 53.45-19.45 6.8-27.55 20l-.2-.05-9.4-.3-9.55.55-8.7-.6q-4.65-.7-8.7-3-6.7-4.7-11.1-10.45L15 109.55q23.05 21.3 57.65 13.45l-5.7-10.8q3.8 2.05 11.7-.4 1.3-20.05-25.7-38.15-6.5.5-16.25 3.25l12.2-7.7.95.9q.95.75 2.4.75l2.5-.35q1.8-.35 2.2-.8l1.65-2.15q.4-.8.4-1.9 0-1.45-.75-2.45-.65-.75-2.15-1.7 1.35-1.8 1.35-2.75l-.1-.7m6.05 8.35-1 .25q-1.25.55-1.25 2.6 0 .8.5 1.25.45.4 1.15.4 1.1 0 1.85-.65.7-.65.7-1.65 0-1.05-1-1.75l-.45-.25-.35-.2h-.15" fill="#5bdfd5"/><path d="M36.7 76.9q9.75-2.75 16.25-3.25 27 18.1 25.7 38.15-7.9 2.45-11.7.4l5.7 10.8q-34.6 7.85-57.65-13.45l4.95 14.2q-7.3-9.4-8.6-21.65Q19.6 90 30.5 78.8l6.2-1.9" fill="#fff"/><path d="m126.1 109.35 1.6-3.55q4.1 1.3 9 1.85 7.8 2.8 13.85 8.85 4 3.95 4.75 9.4l5.6.4q3.15.35 5.5 2.6 1.15 1.1 1.85 2.7.4 1.05-.2 1.85l-2.15.3q-6.95 2.35-11.55 9.6-6.8 9.2-8.7 15.05-1.9 5.8-7.5 8.7-5.6 2.85-13 3.95l-2.1.4q3.35.9 7.2 0-10.95 13.25-31.3 16.05l2.3 2.3q-18.1 7.85-37.8 2.35L65 196.5q-29.25-8.45-33.3-28.7.4 3.9-.4 4.5-12.6-13.9-4.85-35.35l.4-1.1q1.2-.65 2.15-.65l1.95.45-1.1 3.6q-2.5 8.9-1.15 18.2l.85 4.45 3.35-4.45q5.5 28.5 28.2 36.25l-1.6-5.95q9.3 6.8 38.6 1.4l-4.25-4.25q15.3 1.5 32.15-11.6-5.3.75-10-1.1 8.3-2.25 14.05-5.05 9.85-4.9 12.4-11.55 10.4-19.7 19.55-24.3l-1.55-.65-.6-.2q-4.5-1.35-9.8 0-.95-.4-1.75.5l-.65.2q9.65-7.5-9.4-18.35l-12.15-3.45" fill="#1c5a53"/><path d="M67.6 137.6q8.1-13.2 27.55-20l3.45-1.15q3.15-1 6.2-1.7 10.35-2.65 18.85-2.65l.95.05 1.5-2.8 12.15 3.45q19.05 10.85 9.4 18.35l.65-.2-.45.5q-1 1.25-1 2.35 0 .75.75 1.1l1.25.3q.75 0 6.5-2.7 1.8-.85 3.35-1.35-4 2.45-7.75 6.6-4.95 5.45-6.05 10.05l-.7-1.05q-.55-.45-1-.45-1.65 0-3.7 2.7-1.95 2.55-1.95 4.1 0 3.1 2.9 2.4v.9q-1.1 2.8-4.8 6.05l-5.6 4.7q-5.75 2.8-14.05 5.05 4.7 1.85 10 1.1-16.85 13.1-32.15 11.6l4.25 4.25q-29.3 5.4-38.6-1.4l1.6 5.95q-22.7-7.75-28.2-36.25l-3.35 4.45-.85-4.45q3.4-2.7 4.95-7l2 7.15q2.5 8.5 7 16.35 3.5 6.2 9.9 9.45-1.75-7.4-2.15-15.05l-.15-3.15q.55 3.7 1.95 6.7 1.55 3.4 3.35 3.4 1.15 0 1.85-1.3.45-.85.4-1.5l1.1 1.25q1.2 1.4 2.75 2.4 4.35 2.85 9.4 4.55l7.75-.2q4.45-2.05 1.75-6.9-3.1-5.55-4.5-11.55l5.3 3 7.5 4.45q2.8 1.7 10 4.25 7.15 2.55 9 2.35l3.2-.65q1.3-.5.95-3.4-.35-2.9-4-5.3-4.75-3.1-6.15-4.25 2.1 1.15 5.05 1.95 2.95.8 7.25 1.2 4.25.4 6.35-.7 2.1-1.1 2.1-3.45 0-2.2-3.75-3.8-2.4-1.05-4.35-1.3-3-.4-5.4-2.1l-4.25-3.65q.35 1 1.7 2.7 1.15 1.5 1.15 1.9 0 1-2.15 1.5l-3.2.4-6.2-1.1.45 2.9.3 2.7q0 2.95-.9 2.95-2.5 0-6.2-2.05-3.85-2.15-4.2-4.15l.1-.1 1.65 1.2 1.65 1.05 4.35 1.1q1.1 0 1.5-1.1l.25-2.5q0-1.8-.55-2.85l-1.4-2.9 2.4 1.25 3.05.55 5.2-.35.15-.05h-.15q-.5-1.65-2.05-4.3l-2-3.55q3.55 1.7 11.35 2.85l12.45 1.1q5.05.05 8-2.6l5.5-4.8q2.6-2.2 4.6-4.9 1.65-2.25 2.8-5.55l-4.75 3.1v-.75q.85-1.95 2.1-3.8 1.4-2.25 2.65-3.25l-1-.15q-2.4 0-7.4 3.4-4.95 3.4-5.9 3.4-1.35 0-2.35-3.65-1-3.7-4.2-3.7-1.95 0-6.35 4.15l-4.45 4.65-1.75 2.55q-1 1.55-1.95 1.95-4.55 1.65-6.95 1.65l-1.1-.3-.95-.45q1.2.1 2.8-1.2 1.8-1.45 1.8-3.2 0-.8-.35-1.15-.4-.4-1.55-.4l-2.4.2-2.6.2q-2.9 0-4.6-1.9-1.7-1.95-2.6-1.95-1.1 0-1.8 1.25-.55 1.05-.55 2.25 0 1.55 1.6 3.55 1.25 1.65 2.6 2.05h-.6l-5.75.6-4.9-.05q-4.6.2-4.65 4-5.15-6.65-8.95-7.4m-36.65-1.95 4.05 1.3q6.25 1.7 12.55 1.7l9.35-.3q8.65 0 12.75 1.9 2.35 1.05 6.8 4.95l.15.1q.1.85 1.35 3.5-3.1-1-8.8-1.05l-10.6.4q-4.25.4-9.95 5.95.15-2.85-.65-5-1.1-3.05-4-3.65.35.25.35 2.65l-.3 3.55q-.4 2.2-1.1 2.8-.2-3.9-.6-5.95-.6-3.65-2.4-5.35-1.4-1.35-5.6-2.25-2.95-.65-4.45-1.65l1.1-3.6m31.15 23.3.85 1.45q1.65 2.55 3.05 2.55.9 0 1.4-2.75.35-1.2.2-2.1l.1-2.75q1.8 2.85 3.15 2.85.85 0 2.1-1.2 1.15-1.15 1.3-1.85l.15 2.9q0 1.5-.55 3.55l-4.35-3q.05 2.4-.95 4.45l-1.9 4q-.3-1.2-3-4.35-2.45-2.85-2.45-4.95v-.7h.1l.8 1.9" fill="#4ab16a"/><path d="m159.85 130.45-1.15.7q-1.55.5-3.35 1.35-5.75 2.7-6.5 2.7l-1.25-.3q-.75-.35-.75-1.1 0-1.1 1-2.35l.45-.5 1.75-.5q5.3-1.35 9.8 0m-131.15 27q-1.35-9.3 1.15-18.2 1.5 1 4.45 1.65 4.2.9 5.6 2.25 1.8 1.7 2.4 5.35.4 2.05.6 5.95.7-.6 1.1-2.8l.3-3.55q0-2.4-.35-2.65 2.9.6 4 3.65.8 2.15.65 5 5.7-5.55 9.95-5.95l10.6-.4q5.7.05 8.8 1.05-1.25-2.65-1.35-3.5l.6.55-.65-.85q.05-3.8 4.65-4l4.9.05 5.75-.6h.6q-1.35-.4-2.6-2.05-1.6-2-1.6-3.55 0-1.2.55-2.25.7-1.25 1.8-1.25.9 0 2.6 1.95 1.7 1.9 4.6 1.9l2.6-.2 2.4-.2q1.15 0 1.55.4.35.35.35 1.15 0 1.75-1.8 3.2-1.6 1.3-2.8 1.2l.95.45 1.1.3q2.4 0 6.95-1.65.95-.4 1.95-1.95l1.75-2.55 4.45-4.65q4.4-4.15 6.35-4.15 3.2 0 4.2 3.7 1 3.65 2.35 3.65.95 0 5.9-3.4 5-3.4 7.4-3.4l1 .15q-1.25 1-2.65 3.25-1.25 1.85-2.1 3.8v.75l4.75-3.1q-1.15 3.3-2.8 5.55-2 2.7-4.6 4.9l-5.5 4.8q-2.95 2.65-8 2.6l-12.45-1.1q-7.8-1.15-11.35-2.85l2 3.55q1.55 2.65 2.05 4.3v.05l-5.2.35-3.05-.55-2.4-1.25 1.4 2.9q.55 1.05.55 2.85l-.25 2.5q-.4 1.1-1.5 1.1l-4.35-1.1-1.65-1.05-1.65-1.2q1.15-1 1.5-3.2.35-2.4-.95-4.3 7.5 2.2 8.55-4.75.15-1.05-.65-2.15l-1.75-1.95q1.65 6.1-4.05 7.2l-3.8-.1-.45-.05q4.85 6.4-1.8 9.3l-1.6.45q3.2.95 4.9-.35.35 2 4.2 4.15 3.7 2.05 6.2 2.05.9 0 .9-2.95l-.3-2.7-.45-2.9 6.2 1.1 3.2-.4q2.15-.5 2.15-1.5 0-.4-1.15-1.9-1.35-1.7-1.7-2.7l4.25 3.65q2.4 1.7 5.4 2.1 1.95.25 4.35 1.3 3.75 1.6 3.75 3.8 0 2.35-2.1 3.45t-6.35.7q-4.3-.4-7.25-1.2-2.95-.8-5.05-1.95 1.4 1.15 6.15 4.25 3.65 2.4 4 5.3.35 2.9-.95 3.4l-3.2.65q-1.85.2-9-2.35-7.2-2.55-10-4.25l-7.5-4.45-5.3-3q1.4 6 4.5 11.55 2.7 4.85-1.75 6.9l-7.75.2q-5.05-1.7-9.4-4.55-1.55-1-2.75-2.4l-1.1-1.25q.05.65-.4 1.5-.7 1.3-1.85 1.3-1.8 0-3.35-3.4-1.4-3-1.95-6.7l.15 3.15q.4 7.65 2.15 15.05-6.4-3.25-9.9-9.45-4.5-7.85-7-16.35l-2-7.15q-1.55 4.3-4.95 7m73.15 5.05-.45-.45v.15l.45.3m-34.25-4.4-.3-1.35q-.7-1.75-2.35-1.75-1.1 0-2.05 1.55-.9 1.45-.8 2.4l-.8-1.9-.05-.05-.05.05v.7q0 2.1 2.45 4.95 2.7 3.15 3 4.35l1.9-4q1-2.05.95-4.45l4.35 3q.55-2.05.55-3.55l-.15-2.9q-.15.7-1.3 1.85-1.25 1.2-2.1 1.2-1.35 0-3.15-2.85l-.1 2.75m24.85-17.65.9.15.55-.15h-1.45m-35.6 22.65q-1.05-2.5-4.3-5.25-.3.9-2.1 2.6-1.95 1.8-3.3 2.25-.9-2.65-.65-5.4h-.15q-.1.5-1.65 1.2l-2.3.7q-2 0-3.55-2.8-1.15-2.15-1-3.75l-.25.25q-.7.95-.7 1.55 0 2.75 1.5 4.5 1.7 1.95 4.65 1.95l.9-.15 1.05-.2-.4 1.6-.05.95q0 1.3.7 2.35.8 1.25 2.3 1.25 1.1 0 2.6-1.55l.1.05v-.15l.55-.65q1.65-2 2.15-3.4l1.95 1.3 1.95.95v-.15" fill="#87ff7a"/><path d="M67.4 160.2q-.5 2.75-1.4 2.75-1.4 0-3.05-2.55l-.85-1.45q-.1-.95.8-2.4.95-1.55 2.05-1.55 1.65 0 2.35 1.75l.3 1.35-.15 1.6-.05.5m18.2-1.8q-1.7 1.3-4.9.35l1.6-.45q6.65-2.9 1.8-9.3l.45.05 3.8.1q5.7-1.1 4.05-7.2l1.75 1.95q.8 1.1.65 2.15-1.05 6.95-8.55 4.75 1.3 1.9.95 4.3-.35 2.2-1.5 3.2h-.15l.05.1m-35.45 6.75q-1.5 1.55-2.6 1.55-1.5 0-2.3-1.25-.7-1.05-.7-2.35l.05-.95.4-1.6-1.05.2-.9.15q-2.95 0-4.65-1.95-1.5-1.75-1.5-4.5 0-.6.7-1.55l.25-.25q-.15 1.6 1 3.75 1.55 2.8 3.55 2.8l2.3-.7q1.55-.7 1.65-1.2h.15q-.25 2.75.65 5.4 1.35-.45 3.3-2.25 1.8-1.7 2.1-2.6 3.25 2.75 4.3 5.25v.15l-1.95-.95-1.95-1.3q-.5 1.4-2.15 3.4l-.55.65-.1.1" fill="#d5ffa2"/><path d="m158.7 131.15 1.75-.5 1.55.65q-9.15 4.6-19.55 24.3-2.55 6.65-12.4 11.55l5.6-4.7q3.7-3.25 4.8-6.05v-.9q-2.9.7-2.9-2.4 0-1.55 1.95-4.1 2.05-2.7 3.7-2.7.45 0 1 .45l.7 1.05q1.1-4.6 6.05-10.05 3.75-4.15 7.75-6.6" fill="#e3ff8a"/></g><g id="n" fill-rule="evenodd"><path d="M136.1 24.65q-9.5-14.1-25.65-19.7 7.55 9 9.3 18.05-2.7-2.85-5.05-3.35-2.7-8.15-10.55-15.9-2.8-4.4 5.9-3.65 15.35 6.75 24.75 15.65l1.3 8.9m-60.65 75.2q16-9.6 32.6-11.3l2-.2 2.15-.1q3.05-.2 6.15-.05l-6.6.55-1.85.2-.55 2.6q-3.7 15.35-10.6 21.4 6-8.55 8.55-20.3l.05-.25.55-3.15q-21.55 3.55-41.35 18.2l-.25.15-1.95 1.5h-.05l-.35.3q-20.2 17.75-24 35.5 3.1-4.55 5.85-4.45l.4 3.05.05 1.2.05.25q.3 5.65-1.2 8.45v-12.55l-1.45 1.6-4.1 4.5-.35 2.55-.25 2Q35 135.15 61.6 109.65q6.85-5.65 13.85-9.8m45.5 21.9 7.9-6.45q-6.7 14.6-17.25 27.75-18.55 24.35-43.1 38.5l-2.6.3q-1.6 0-3.55-.9Q93.5 162.1 111.5 137q5.3-7.35 9.45-15.25M69.65 78q-.55 2.8-1.75 5.75-8.85 5.55-16.4 10.95-38.75 27.45-43.15 49.15l-.25-.35q2.65-29.25 61.55-65.5" fill="#003152"/><path d="m137.1 26.2-1-1.55-1.3-8.9q16.7 15.85 14.7 38.55-.3 2.65-9.1 4.4.3 30.6-11.55 56.6l-7.9 6.45q13.95-26.55 15.15-59.2l.1-2.1v-1.4q.05-2 2.3-3.6l.65-.45.5-.1q5.8-1.6 6.7-5.45-2.45-10.6-6.75-18.85l-2.5-4.4m-22.4-6.55q2.35.5 5.05 3.35 2.5 12.75-6.7 25.55l4.85 7.2q-28.75 14.65-50 28 1.2-2.95 1.75-5.75 18.6-11.5 42.8-23.65l-3.7-5.8q10.5-15 5.95-28.9" fill="#8b4c31"/><path d="M110.45 4.95q13.7 12.4 16.65 24.7l-.85 2.55q-3.5-6.05-6.5-9.2-1.75-9.05-9.3-18.05M67.9 83.75Q66 88.3 62.5 93.1l15.05-4.85L61.9 101.2q-8.45 7.05-14.9 16-6.8 9.35-13.25 18.7-4.45 6.45-11.15 10.3-4.35 2.5-8.25 1.7-2.75-.55-5.25-2.7l1.85-2.4 2.1-3.55 1.95-3.1 1.65-3.4q.15 1.3 2 2.4 1.8 1.1 3.75 1.1 2.25 0 3.7-3 1.05-2.2 1.05-3.9 0-2.15-1.3-3.6-1.2-1.45-3.1-1.2 3.45-6.1 12.15-13.5 2.85-2.4 8.9-7.25l8.65-7.75V95l-.95-.3q7.55-5.4 16.4-10.95m30.85 29.2q-2.4 3.4-5.35 6.3 9.05.8 18.1-5.25l-.05 17.05v.15l-.15.2-7.05 4.6q-3.9 2.3-7.2 2-3.3-.3-5.15-2.6-1.9-2.3-1.9-7.15 0-8.75 5.65-17.8l5.6-8.3 6.05-9.5q-2.55 11.75-8.55 20.3M69.9 155.5q7.7-4.8 14.75-4.8 1.7 0 2.4.6.8.65.8 2.45 0 3.9-4.2 7.8-3.4 3.15-8.65 6.35-6.15 3.7-9.5 5.15-3.05 1.25-6.45.9 1.5-1.25 3.6-1.4-2.3-2.05-5.8-2.85 2.05-6.65 10.8-12.75l2.2-1.45h.05m-26.25-13.05-.45 4.3q-.75 4.3-2.25 4.3-1.4 0-1.75-1.55l.35-2.55 4.1-4.5m-10.2-23.6-.15.05q-.7.55-.45.8-.35.6-.35 1.2 0 2.15 2.15 2.15 1.65 0 1.65-2.3 0-1.1-.55-1.7-.5-.55-1.2-.55l-.5.1q-.35.05-.6.25" fill="#5bdfd5"/><path d="m136.1 24.65.2 1.55q-2.9-.25-7.15-3.2l-2.05 6.65q-2.95-12.3-16.65-24.7 16.15 5.6 25.65 19.7m-56.7 63-3.95 12.2q-7 4.15-13.85 9.8-26.6 25.5-22.65 41.85l.25-2q.35 1.55 1.75 1.55 1.5 0 2.25-4.3l.45-4.3 1.45-1.6v12.55q1.5-2.8 1.2-8.45 2.85 8.55 9.55 11.45l.25-.25q2.5-2.6 2.5-6.85 6.35 2.75 11.15 6.1.85-5.9-.75-11.35 11.55-.2 21.85 1.8.35-14.05-19.4-24.75l.2-.2q9.35-5.4 16-6.9-9.65-6-21.1-6.55 19.8-14.65 41.35-18.2l-.55 3.15-.05.25-6.05 9.5-5.6 8.3Q90 119.5 90 128.25q0 4.85 1.9 7.15 1.85 2.3 5.15 2.6 3.3.3 7.2-2l7.05-4.6h.15v1.05q-18 28.4-49.1 48.45-1-.45-2-1.1-2.15-1.35-4-1.85.9-2.4 2.4-3.75l.3-.25q3.4.35 6.45-.9 3.35-1.45 9.5-5.15 5.25-3.2 8.65-6.35 4.2-3.9 4.2-7.8 0-1.8-.8-2.45-.7-.6-2.4-.6-7.05 0-14.75 4.8l-.15-.1.1.1-2.2 1.45q-8.75 6.1-10.8 12.75l-5.95-.4-.8-9.25q-13 3.8-19.05 12-.15-3.1-1.55-7.05-1.95-5.35-4.75-8.15l-7.65-6q-1.7-1.45-2.75-2.95 3.9.8 8.25-1.7 6.7-3.85 11.15-10.3 6.45-9.35 13.25-18.7 6.45-8.95 14.9-16l15.65-12.95 1.85-.6" fill="#2392ca"/><path d="M119.75 23q3 3.15 6.5 9.2l.85-2.55q6.95 29.35-47.7 58l-1.85.6L62.5 93.1q3.5-4.8 5.4-9.35 21.25-13.35 50-28l-4.85-7.2q9.2-12.8 6.7-25.55m-7.55 65.25q1.85-1.95 3.85-3.55 2.65-2.15 6.2-2.55l1.5.65q1.55.95 1.9 2.75.45 2.25.1 4.45l-.95 5.85-1.6 6.7-2.3 7.6-2.15 6.2-2.2 5.5-3.55 7.05-1.4 2.15h-.15l.05-17.05q-9.05 6.05-18.1 5.25 2.95-2.9 5.35-6.3 6.9-6.05 10.6-21.4l.55-2.6 1.85-.2 6.6-.55q-3.1-.15-6.15.05" fill="#fff92b"/><path d="M136.3 26.2h.8l2.5 4.4q8 21.35-1 22.7l-.5.05q-4.55 1.1-4.8 26.4l-.35-.55q-.7-.8-1.6-1.3l-1.15-.35q-1.9.75-2.55 2.75-.55 1.75-.8 3.35l-.15 1q-.35 2.05.35 4 .65 1.85 2.35 2.95-6.15 22.2-17.95 40.85v-1.15l.15-.25 1.4-2.15 3.55-7.05 2.2-5.5 2.15-6.2 2.3-7.6 1.6-6.7.95-5.85q.35-2.2-.1-4.45-.35-1.8-1.9-2.75l-1.5-.65q-3.55.4-6.2 2.55-2 1.6-3.85 3.55l-2.15.1-2 .2q-16.6 1.7-32.6 11.3l3.95-12.2q54.65-28.65 47.7-58l2.05-6.65q4.25 2.95 7.15 3.2" fill="#ffac15"/><path d="M111.45 132.45q11.8-18.65 17.95-40.85-1.7-1.1-2.35-2.95-.7-1.95-.35-4l.15-1q.25-1.6.8-3.35.65-2 2.55-2.75l1.15.35q.9.5 1.6 1.3l.35.55q.25-25.3 4.8-26.4l.5-.05q9-1.35 1-22.7 4.3 8.25 6.75 18.85-.9 3.85-6.7 5.45l-.5.1-.65.45q-2.25 1.6-2.3 3.6v1.4l-.1 2.1q-1.2 32.65-15.15 59.2-4.15 7.9-9.45 15.25-18 25.1-49.15 43.95v-.05q31.1-20.05 49.1-48.45m-42.3 53.25 1.45-.3q-4.05 10.9-16.35 16.4 10.4-7.95 14.9-16.1" fill="#e3ff8a"/><path d="m9.1 145.2-.45-.4-.3-.95q4.4-21.7 43.15-49.15l.95.3v1.05l-8.65 7.75q-6.05 4.85-8.9 7.25-8.7 7.4-12.15 13.5 1.9-.25 3.1 1.2 1.3 1.45 1.3 3.6 0 1.7-1.05 3.9-1.45 3-3.7 3-1.95 0-3.75-1.1-1.85-1.1-2-2.4l-1.65 3.4-1.95 3.1-2.1 3.55-1.85 2.4m23.75-25.5.15-.3.45-.55q.25-.2.6-.25l.5-.1q.7 0 1.2.55.55.6.55 1.7 0 2.3-1.65 2.3-2.15 0-2.15-2.15 0-.6.35-1.2" fill="#adffdf"/><path d="m59.05 173.95-.3.25q-1.5 1.35-2.4 3.75 1.85.5 4 1.85 1 .65 2 1.1l-.95.6.95-.55q1.95.9 3.55.9l2.6-.3 2.2-.7q3.85-1.5 5.25-1.85-1.05 14.65-16.45 26.8l-14.25.8q-.2 13.9-5.35 23.5-4.3-7.05-9.9-9.75-3.6 6.15-13.65 8.1.7-3.2.45-6.1-.35-3.6-2.2-6.75 6.25 6.05 2.45 11.9 16.55-3.85 12-24.6 13-10.65 12.85-24.75-1.75 1.6-4.45 2.6-2.75 1-6.4 1.35-7.6.75-13.8 3.85-6.25 3.05-10.4 8.6t-4.3 12.35l-.1 6.1v5.4q.05 4.65-.5 5 4.55-.6 8.25-3.15l-3 2.8-.85.7q-4.4 3.25-6.25.6l-.1-.1q1.3-1.65 1.25-5.85v-6.25l.1-5.25q.15-6.8 4.3-12.35 4.15-5.55 9.8-8.8 4.8-2.8 11.25-4.1 1.25-5.4 4.35-9.6 6.05-8.2 19.05-12l.8 9.25 5.95.4q3.5.8 5.8 2.85-2.1.15-3.6 1.4M46.2 143.5q3.25 8.2 9.35 11.7 1.7-4.5 2.25-11.05.65 2.4.75 4.45 6.55 2.15 10.2 5 .6-4.3-1.05-11 11.55.25 21.8 1.85Q86.85 130 71.45 121.1q19.75 10.7 19.4 24.75-10.3-2-21.85-1.8 1.6 5.45.75 11.35-4.8-3.35-11.15-6.1 0 4.25-2.5 6.85l-.25.25q-6.7-2.9-9.55-11.45l-.05-.25-.05-1.2m25.45-22.6q3.4-3.9 11.85-7.35-8.55-4.7-19.15-4.45l1.95-1.5.25-.15Q78 108 87.65 114q-6.65 1.5-16 6.9m-44.8 60.75 2-.4q7.75-1.25 14.2-4.35 3.65 12.95-12.35 26.85 2.55 9.3 0 15.2 6 2.95 8.8 7.9 5.8-14.9 3.35-21.55 6.35-1.3 11.4-3.5 12.3-5.5 16.35-16.4l-1.45.3h-.95q-4.15 0-8.65-3.6-3.85-3.1-8.3-3.85l1.6-.35 1.75-.25q1.1-2.75 4.7-5.45-4.2-1.9-9.75-1l-1.3-8.5q-9.15.45-21.4 18.95h-.15l-.1.3.25-.3m27.75-4v.05h.2l-.2-.05" fill="#1c5a53"/><path d="m16.8 222.35-.6-.65q-1-.85-2.6-.85-2.3 0-6.4 2.2l3-2.8q-3.7 2.55-8.25 3.15.55-.35.5-5V213q1.2 1.2 1.85 2.75.9 2.1.35 4.35 1.15-.5 1.9-1.45l2.3-3.2q1-1.4 2.1-2.3 1.1-.9 2.75-.65t3.45 1.6q1.75 1.35 2.65 3.85l1.3 4.05q.75-2.4 1.75-4.65.95-2.3.8-4.85l-.45-4q-.4-2.55-2.2-4.25-2.1-1.95-4.8-2.4 17.15-6.55 21.25-21.1 2.7-1 4.45-2.6.15 14.1-12.85 24.75 4.55 20.75-12 24.6 3.8-5.85-2.45-11.9 1.85 3.15 2.2 6.75m29.4-78.85-.4-3.05q-2.75-.1-5.85 4.45 3.8-17.75 24-35.5l.35-.3h.05q10.6-.25 19.15 4.45-8.45 3.45-11.85 7.35l-.3.15.05.05h.05q15.4 8.9 18.05 23.35-10.25-1.6-21.8-1.85 1.65 6.7 1.05 11-3.65-2.85-10.2-5-.1-2.05-.75-4.45-.55 6.55-2.25 11.05-6.1-3.5-9.35-11.7m17-20.8q10.35-5.95 8.2-9.4-4.9-.6-12.45 6.2l-9.65 13.05v.45q-.35 10.1 3.75 16.45 3.2-5.3 2.55-15.35 2.9 8.85 8.75 13.15 1.05-6.7-2-14.4 8.55 9.15 9.65 3.6 7.95 3.55 10.45 1.6-1.8-10.5-19.25-15.35m-8.95 79.1q-5.05 2.2-11.4 3.5 2.45 6.65-3.35 21.55-2.8-4.95-8.8-7.9 2.55-5.9 0-15.2 16-13.9 12.35-26.85-6.45 3.1-14.2 4.35l-2 .4q12.25-18.5 21.4-18.95l1.3 8.5q5.55-.9 9.75 1-3.6 2.7-4.7 5.45l-1.75.25-1.6.35q4.45.75 8.3 3.85 4.5 3.6 8.65 3.6h.95q-4.5 8.15-14.9 16.1m-8.95-26.85q-.3-4.4 1.15-9-12.8 7-14.7 13.5 3.85-2.05 6.75-3.1 3.2-1.25 5.05-1 1.9.2 2.55 4 .65 10.8-2.05 17.95 4.85-.3 9.4-1.65 2.5-.75 4.45-1.8 3.1-1.6 3.1-3.15 0-.75-1.35-.75l-3.3.75q-1 0-1-.45 0-.3 1.9-2l1.85-2.05q0-1.4-1.85-2.45l-2.95-1.55-3.6-2.4-2.35-2.05 1.8-.8q2.25-1.15 2.25-2.2 0-1.05-1.3-1.05-1.25 0-3.3 1.05l-2.1 1h-.15l-.2-.1-.05-.7m-10.55 28.1.3 4.85-.05 4.7q.05 1.65 1.95 3.85 1.95 2.2 2.05 3.35 1-1.5 1.25-4.1l.1-4.3q0-8.7-4.05-8.7l-1.55.35" fill="#4ab16a"/><path d="M63.2 122.7q17.45 4.85 19.25 15.35-2.5 1.95-10.45-1.6-1.1 5.55-9.65-3.6 3.05 7.7 2 14.4-5.85-4.3-8.75-13.15.65 10.05-2.55 15.35-4.1-6.35-3.75-16.45v-.45l9.65-13.05q7.55-6.8 12.45-6.2 2.15 3.45-8.2 9.4M2.45 213l.1-6.1q.15-6.8 4.3-12.35 4.15-5.55 10.4-8.6 6.2-3.1 13.8-3.85 3.65-.35 6.4-1.35-4.1 14.55-21.25 21.1 2.7.45 4.8 2.4 1.8 1.7 2.2 4.25l.45 4q.15 2.55-.8 4.85-1 2.25-1.75 4.65l-1.3-4.05q-.9-2.5-2.65-3.85-1.8-1.35-3.45-1.6-1.65-.25-2.75.65t-2.1 2.3l-2.3 3.2q-.75.95-1.9 1.45.55-2.25-.35-4.35-.65-1.55-1.85-2.75m12.3-23.95 4.15-.45h2.25q-1.1 1.3-2 4.1-.9 2.8-.25 3.55h.15q4.6-2.6 9.5-5.05h-.35q-5.65 2.05-7.35 2.25.55-1.9 1.75-3.6 1-1.5 2.9-3.35l-1.05-.2-.9-.25q-2.2 0-4.5.7-2.55.8-4.3 2.3m30.6-13.4.2.1h.15l2.1-1q2.05-1.05 3.3-1.05 1.3 0 1.3 1.05t-2.25 2.2l-1.8.8 2.35 2.05 3.6 2.4 2.95 1.55q1.85 1.05 1.85 2.45l-1.85 2.05q-1.9 1.7-1.9 2 0 .45 1 .45l3.3-.75q1.35 0 1.35.75 0 1.55-3.1 3.15-1.95 1.05-4.45 1.8-4.55 1.35-9.4 1.65 2.7-7.15 2.05-17.95-.65-3.8-2.55-4-1.85-.25-5.05 1-2.9 1.05-6.75 3.1 1.9-6.5 14.7-13.5-1.45 4.6-1.15 9-.35.2-.1.5l.15.2m-10.6 27.4 1.55-.35q4.05 0 4.05 8.7l-.1 4.3q-.25 2.6-1.25 4.1-.1-1.15-2.05-3.35-1.9-2.2-1.95-3.85l.05-4.7-.3-4.85" fill="#87ff7a"/><path d="M14.75 189.05q1.75-1.5 4.3-2.3 2.3-.7 4.5-.7l.9.25 1.05.2q-1.9 1.85-2.9 3.35-1.2 1.7-1.75 3.6 1.7-.2 7.35-2.25h.35q-4.9 2.45-9.5 5.05h-.15q-.65-.75.25-3.55t2-4.1H18.9l-4.15.45" fill="#d5ffa2"/></g><g id="o" fill-rule="evenodd"><path d="M49.45 6.45q7.45 17.3-5.8 24.2Q29.8 36.6 20.2 26.7L9.95 31.45Q39.75 5.6 55.4 0l-6.85 5.15L54 3.1l-4.55 3.35m1.1 14.6q.55-5.25-2.7-13.4l-6.55 5.1-6.5 5.55.05.2.1.95q0 1.1-.95 2.15-1 1.1-2.3 1.1l-1.35-.3-1.05-.5-1 .6-.9-.1-.4.05-.15.05h-.4l-.5.3-.45.25-.9.75q-.65.75-.65 2 0 1.1.55 1.8l.1.1q.5.5 1.2.6 5.55 4.95 14.2 2.5l4.65-1.75.35-.15q4.25-2 5.3-6.45l.25-1.4" fill="#380602"/><path d="m8 14.05.9-.5q1.2-.75 3-.95-3.35 1.6-4.9 7.65v-2.5l.05-.85.05-.8.1-1 .1-.85.7-.2M20.5 46.4h.45q7.05-.45 9.35 3.1Q18.45 43.3 1.45 59l.4-1.5.05-.5-.75-.85-.6-.9-.35-1-.2-1.8.1-1.35q.15-1 .6-1.8l1.1-1.45 1.45-1.15q.55-.4 1.2-.7l1.4-.5 1.5-.3 1.4-.25 1.4-.15 1.95-.1h1.8l1.2.15 1.8.35 1.8.45 1.8.75m-10.55-.05h-1.1q-2.2 0-4.3 1.1-2.1 1.1-3.25 3.05-.3.5-.35 1.05-.3 2.7 2.3 3.6l.35.1-.05.1.15-.1q5-3.9 13.1-7.7l.8-.3h-.15l-.9-.4-3.95-.5H9.95" fill="#003152"/><path d="M7 17.75v2.5q1.55-6.05 4.9-7.65-1.8.2-3 .95l-.9.5q1.95-2.2 5.3-3.5 2.85-1.15 5.9-1.5h1.6v.45l-1.75.7v-.1h-.5v.35Q8.2 15.3 6.95 26.05q-.5-1.9-.5-3.1 0-1.95.45-5.2H7" fill="#aac3df"/><path d="m41.3 12.75 2 2.8q3.95 7.2-3.3 15.25-8.65 2.45-14.2-2.5h.3q3.6 0 3.6-3.55 0-1.3-.5-1.8-.3-.3-.9-.45l1-.6 1.05.5 1.35.3q1.3 0 2.3-1.1.95-1.05.95-2.15l-.1-.95-.05-.2 6.5-5.55m-22.45.9Q31.45 4.4 41.05 1.2q-4.75 2.9-9.3 5.9l-8.6 5.85q-4.1 2.95-5.8 7.85-1.1-3.25 1.5-8.45v1.3m18.25 9.7-.35.75-.4.8q-.4.5-1.4 1.05l-3.2.6q-1.6.2-1.75 1.55-.15 1.35 1.5 2.2 1.65.8 4.2.4 2.5-.45 4.7-3 2.15-2.55 2.15-5.35 0-1.6-.3-2.25-.5-1.1-2-1.1-1.15 0-1.8.9l-.4.8-.95 2.65" fill="#591e24"/><path d="m43.3 15.55.9-.8 1.4-.25q2 0 3.65 3.1.9 1.75 1.3 3.45l-.25 1.4Q49.25 26.9 45 28.9l-.35.15L40 30.8q7.25-8.05 3.3-15.25M25.8 28.3q-.7-.1-1.2-.6l-.1-.1q-.55-.7-.55-1.8 0-1.25.65-2l.9-.75.45-.25.9-.3.15-.05.4-.05.9.1q.6.15.9.45.5.5.5 1.8 0 3.55-3.6 3.55h-.3" fill="#fff"/><path d="m37.1 23.35.95-1.7q.65-1.1.4-1.75.65-.9 1.8-.9 1.5 0 2 1.1.3.65.3 2.25 0 2.8-2.15 5.35-2.2 2.55-4.7 3-2.55.4-4.2-.4-1.65-.85-1.5-2.2.15-1.35 1.75-1.55l3.2-.6q1-.55 1.4-1.05l.4-.8.35-.75" fill="#a76623"/><path d="m41.3 12.75 6.55-5.1q3.25 8.15 2.7 13.4-.4-1.7-1.3-3.45-1.65-3.1-3.65-3.1l-1.4.25-.9.8-2-2.8" fill="#b5e3e4"/><path d="M3.6 55.25q1.3-4.55 6.35-8.9h2.65l3.95.5.9.4-.65.3q-8.1 3.8-13.1 7.7h-.1" fill="#f1484b"/><path d="m3.6 55.25-.35-.1q-2.6-.9-2.3-3.6Q1 51 1.3 50.5q1.15-1.95 3.25-3.05 2.1-1.1 4.3-1.1h1.1Q4.9 50.7 3.6 55.25" fill="#a31a2b"/></g><g id="p" fill-rule="evenodd"><path d="m8.45 68.65 28.5-34.7-6.3-4.25L51.6 9.6 38.95 32.8l5.5 6.4-36 29.45" fill="#fff92b"/><path d="m8.45 68.65 36-29.45-5.5-6.4L51.6 9.6l5.9-5.75-12.7 25.3L60.3 39.9Q31.95 53.25 5.55 72.2l2.9-3.55" fill="#ffac15"/><path d="M51.6 9.6 30.65 29.7l6.3 4.25-28.5 34.7-2.9 3.55q26.4-18.95 54.75-32.3L44.8 29.15l12.7-25.3-5.9 5.75M35 34.35l-6.25-3.65Q42.55 14.9 60.65 0L46.8 28.15l16.05 11.6Q28.9 58.75 0 77.8q15.9-20.75 35-43.45" fill="#8b4c31"/></g><path d="M50.7 8q16.65 0 28.45 2.7 11.75 2.7 11.75 6.5 0 3.85-11.75 6.55-11.8 2.7-28.45 2.7-16.7 0-28.5-2.7-11.75-2.7-11.75-6.55 0-3.8 11.75-6.5Q34 8 50.7 8" fill-opacity=".349" fill-rule="evenodd" transform="translate(-10.45 -8)" id="b"/><path d="m63.95 55.75-10.4-6.6L55.9 93.3Q36.75 81.25 18.65 57.5h-.05l-.25.2-1.05 15.2Q-11.4 14.3 7.55.5q25.7-5.8 56.4 55.25" fill="url(#J)" fill-rule="evenodd" id="g"/><path d="m7.1 1.5.5-.45.4-.1Q43.35-8 84.55 68.6q-6.4-4-12.05-4.15Q79.95 97 81.2 119.3q-29.65-14.9-49.95-41.2L30 93.25Q-14.6 21.2 7.1 1.5" fill="url(#K)" fill-rule="evenodd" id="j"/><linearGradient gradientTransform="matrix(-.0427 -.0427 .7071 -.7071 -758.8 830.35)" gradientUnits="userSpaceOnUse" id="J" spreadMethod="pad" x1="-819.2" x2="819.2"><stop offset="0" stop-color="#ffe75a"/><stop offset="1" stop-color="#ffb" stop-opacity=".502"/></linearGradient><linearGradient gradientTransform="rotate(-135.001 -207.06 600.291) scale(.0717 1)" gradientUnits="userSpaceOnUse" id="K" spreadMethod="pad" x1="-819.2" x2="819.2"><stop offset="0" stop-color="#ffe75a"/><stop offset="1" stop-color="#ffb" stop-opacity=".502"/></linearGradient></defs></svg>