<svg xmlns:ffdec="https://www.free-decompiler.com/flash" xmlns:xlink="http://www.w3.org/1999/xlink" ffdec:objectType="frame" height="90" width="90" xmlns="http://www.w3.org/2000/svg"><use ffdec:characterId="31" height="308.2" transform="matrix(.2661 0 0 .2664 0 3.596)" width="343.6" xlink:href="#a"/><defs><g id="a" transform="translate(0 -13.5)"><use ffdec:characterId="1" height="7.3" transform="matrix(4.0674 0 0 7.6629 39.308 265.764)" width="47.3" xlink:href="#b"/><use ffdec:characterId="3" height="154.95" transform="translate(52.3 204.25) scale(.5738)" width="71.9" xlink:href="#c"/><use ffdec:characterId="5" height="120" transform="translate(130.15 213.65) scale(.5738)" width="65.7" xlink:href="#d"/><use ffdec:characterId="7" height="216.1" transform="translate(0 43.85) scale(.5738)" width="141.85" xlink:href="#e"/><use ffdec:characterId="9" height="143.3" transform="translate(58.9 109.9) scale(.5738)" width="122.9" xlink:href="#f"/><use ffdec:characterId="14" height="172.95" transform="translate(188.8 159.146) scale(.5738)" width="258.65" xlink:href="#g"/><use ffdec:characterId="16" height="118.6" transform="translate(79.6 162.25) scale(.5738)" width="193.75" xlink:href="#h"/><use ffdec:characterId="22" height="146.7" transform="translate(36.7 65.4) scale(.5738)" width="131.7" xlink:href="#i"/><use ffdec:characterId="24" height="266.05" transform="translate(153.25 138.85) scale(.5738)" width="139.15" xlink:href="#j"/><use ffdec:characterId="26" height="270.1" transform="translate(122.3 25.15) scale(.5738)" width="228.45" xlink:href="#k"/><use ffdec:characterId="28" height="154.45" transform="translate(45.75 142.55) scale(.5738)" width="186.1" xlink:href="#l"/><use ffdec:characterId="30" height="213.25" transform="translate(91.2 187.5) scale(.5738)" width="85.65" xlink:href="#m"/></g><g id="n" fill-rule="evenodd"><path d="M33.6 144v.2l-.35 4.2-7.3 2.5.2-1 1.1-1.95q.5-.65 3.45-2.4 2-1.15 2.9-1.55m-17.15-1.15v1.55q0 3.95-.3 5.35h-.05l-5-.4-2.8.25q1.4-1.75 4.2-4.05 2.55-2.05 3.95-2.7" fill="#825f85"/><path d="m33.3 140.75.3 2.95v.3q-.9.4-2.9 1.55-2.95 1.75-3.45 2.4l1.55-2.6q2.2-3.3 4.5-4.6m-17.15-.95.3 3.05q-1.4.65-3.95 2.7-2.8 2.3-4.2 4.05 3.55-6.75 7.7-9.95l.15.15" fill="#b37fb7"/><path d="m26.15 149.9 1.1-4.55q1.5-4.85 3.9-7.7.7.35 1.2 1l.6 1.05.35 1.05q-2.3 1.3-4.5 4.6l-1.55 2.6-1.1 1.95M11.1 136.05l-.2.9-.35.95q-.6.35-.6.95l-2.65 4.8q-1.2 2.15-3.1 2.95 1.35-4.9 2.35-7.05 1.6-3.45 4.4-5l.3.65-.1.5-.05.35M8.3 149.6l-1.5.15q.8-4.55 2.9-7.45l2.75-3.65q1.3-1.45 2.8-2.1l.2-.15.65 3.05.05.1-.15.1q-4.15 3.2-7.7 9.95" fill="#fff"/><path d="m34.6 151.45-11.15 3.5q-.95 0-1.8-.9l-.85-1.35.05-.5.1-.35.75-2.8.3-.55 2.15-3.65q2.4-4 4.8-7.2l.45-.55 1.1-1.35.85.25 1 .6.4.65.05.05.85 1.35.35.55.85 2.95.55 3.4-.25 2.1-.1.05-.2 1.45-.25 2.3m-17.8.85-2.25.2-8.1.5h-1q-2.95 0-2.95-1 0-2.5.8-3.65l-3.3.5q1.55-5.9 4.15-9.85l1.8-2.45.15-.1 3.65-3.9.2.05.95.5.2.2.7.7.15.15.15.2-.8 1.4-.15-.05.1-.5-.3-.65q-2.8 1.55-4.4 5-1 2.15-2.35 7.05 1.9-.8 3.1-2.95l2.65-4.8.25-.25.25-.45.1-.25q.85-.6 1.8-1.1l1.85-.8 1.2-.45q.25-.15.55-.15l.15-.05.05.15.15.35.05.15.45 1.2q.75 2.45.75 5.1v.3l-.25 4.75-.25 2.55-.25 2.4m16.8-8.3v-.3l-.3-2.95-.35-1.05-.6-1.05q-.5-.65-1.2-1-2.4 2.85-3.9 7.7l-1.1 4.55-.2 1 7.3-2.5.35-4.2v-.2m-2.45-6.35.2-.1v-.15l-.2.25m-15 1.9-.05-.1-.65-3.05-.2.15q-1.5.65-2.8 2.1L9.7 142.3q-2.1 2.9-2.9 7.45l1.5-.15 2.8-.25 5 .4h.05q.3-1.4.3-5.35v-1.55l-.3-3.05v-.25M8.3 149.6l-.15.25.15-.25" fill="#664b69"/><path d="m57.2 116.85 2.85-.25-1.35 5.3q-1 4.45-1.05 6.75-.35 6.15-2.6 8.6l-5.55 6.25-4.75 4.85q-1.4 1.15-4 1.9l-4.65.75-.45.1-1.05.35.25-2.3.2-1.45.1-.05 4.4-.4 1-.25.8-.2q1.8-.65 2.8-1.95l4.05-4.15q2.95-2.8 3.8-4.7 1.7-3.95 3.05-9.8l2.15-9.35m-36.25 35-4.15.45.25-2.4.25-2.55h.2l2.25.45q1.8.35 2.25.7l-.3.55-.75 2.8M6.1 136.45q2.55-7.55 5.15-9.7l2.6-2.1 4.05-.35q5.35-.5 14-4.3l1.55 1.15.5.2q-5.5 2.9-11.05 4.45l-6.3 1.2q-1.05.05-3.2 2.8l-.2.3-2.3 3-.95-.5-.2-.05-3.65 3.9" fill="#261948"/><path d="M50.95 118.7h.1q.4 4.4.25 9.2-.2 4.85-.95 6.25l-1.85 3.15-3.45 5.1q-2.2 3-3.7 4.4l-.8.2-1 .25-4.4.4.25-2.1-.55-3.4-.85-2.95-.35-.55q7.7 0 12.1-5.7 4-5 5.2-14.25m-14.7 12.9.1.1q-.35.15-.3.65l-2.75 1.8q-1.4 1.05-1.95 1.85l-.85-.25-1.1 1.35-.45.55q-2.4 3.2-4.8 7.2L22 148.5q-.45-.35-2.25-.7l-2.25-.45h-.2l.25-4.75v-.3q0-2.65-.75-5.1l6.55 1.05q1.95 0 5.3-.95l-.1-.6q0-.5.7-1.15.85-.9 2.8-2.05 3.1-1.65 4.2-1.9m-19.75-1.5.3-.15 1.9-.85.25.25q-1.9 1.8-3.65 2.4-1.2.45-1.8 1-.85.7-.85 1.75 0 .7 1.05 1.25l.5.25-1.85.8q-.95.5-1.8 1.1l.35-.95.2-.9.2-.3.8-1.4-.15-.2-.15-.15q1.2-1.8 3.25-3.15.55-.35 1.45-.75" fill="#331f64"/><path d="M33.95 121.35q1.55.55 3.8.7l-6 6.6q-4.05 4.1-6.05 4.8-6.75 2.3-9.35 2.55l-.05-.15-.15-.35-.05-.15-.15.05q-.3 0-.55.15-.8-.4-1.2-1-.7-.75-.7-1.8.6-.55 1.8-1 1.75-.6 3.65-2.4l-.25-.25-1.9.85-.3.15h-3.3l.2-.3q2.15-2.75 3.2-2.8l6.3-1.2q5.55-1.55 11.05-4.45m2.65 10.15 1.15-.3q.9 0 1.6.55.7.6.7 1.3 0 1.95-3.1 3.15l-4.15 1.1-.05-.05-.4-.65-1-.6q.55-.8 1.95-1.85l2.75-1.8.9-.75h-.35v-.1" fill="#8aaeff"/><path d="M37.75 122.05h1.05q3.35 0 6.25-.9 2.2-.65 5.9-2.45-1.2 9.25-5.2 14.25-4.4 5.7-12.1 5.7l-.85-1.35 4.15-1.1q3.1-1.2 3.1-3.15 0-.7-.7-1.3-.7-.55-1.6-.55l-1.15.3-.25.1h-.1q-1.1.25-4.2 1.9-1.95 1.15-2.8 2.05-.7.65-.7 1.15l.1.6q-3.35.95-5.3.95l-6.55-1.05-.45-1.2q2.6-.25 9.35-2.55 2-.7 6.05-4.8l6-6.6m-24.25 10.7q0 1.05.7 1.8.4.6 1.2 1l-1.2.45-.5-.25q-1.05-.55-1.05-1.25 0-1.05.85-1.75m-.3-2.65h3.3q-.9.4-1.45.75Q13 132.2 11.8 134l-.7-.7-.2-.2 2.3-3" fill="#5e52e1"/><path d="m51.05 118.7 1.1-.55q1.95-1 4.35-1.2l.7-.1-2.15 9.35Q53.7 132.05 52 136q-.85 1.9-3.8 4.7l-4.05 4.15q-1 1.3-2.8 1.95 1.5-1.4 3.7-4.4l3.45-5.1 1.85-3.15q.75-1.4.95-6.25.15-4.8-.25-9.2" fill="#ffa58d"/><path d="M32.9 106.8q1.55-1.9 4.5-1.4-.2 5.5-3.65 10.35-1.75 2.45-3.95 4.35-1-2.6-1-5.3l.1-2q1.45.05 1.45-1.05 0-1.35-.9-1.35l-.2.05q.2-.95.55-1.6h.65q1.1 0 1.9-1l.4-.6.15-.45" fill="#039f7d"/><path d="m32.9 106.8.15-1.05-.3-1.1-.35-.75h.05l1.35-1.45q1.35-1.35 3.05-1.95l.1.4q.45 1.35.45 3.95v.55q-2.95-.5-4.5 1.4m-5.4 15.05q-.35-1.2-.35-4.1 0-2.95.6-5.75.45-2.1 1.15-3.35l.9.2q-.35.65-.55 1.6l-.15.45-.2 1.9-.1 2q0 2.7 1 5.3l-2.3 1.75" fill="#00ffc8"/><path d="M31.9 92.05v-14l1.75-.15 1.4.1-.2 11.1-2.1 2.05-.85.9m0 6.25 2.35-2.6 3.4-2.75.1-.05 1.1 1.8.45 1 .2.65q-.85.85-1.55 3.3-1.05-2.6-2.8-2.6-1.05 0-3.25 1.25m-6.6 28.2q-1.2.55-2.1 1.05l-.15-.15v-2.55q.55-3.2.85-4.2h.05q.8 3.25 1.15 3.85l1.45-.1-1.25 2.1m11.55-26q-1.7.6-3.05 1.95l-1.35 1.45h-.05l.35.75.3 1.1-.15 1.05-.15.45-.4.6q-.8 1-1.9 1h-.65l-.9-.2q-.7 1.25-1.15 3.35-.6 2.8-.6 5.75 0 2.9.35 4.1l-.1.05-1.35.8Q25 120.35 25 116.6q0-4.75 3.45-10.35 2.1-3.45 6.35-8.35 1.4 1.15 2.05 2.6m-7.95 12.3.2-1.9.15-.45.2-.05q.9 0 .9 1.35 0 1.1-1.45 1.05m11.35-18.2q-1.05-2.15-1.9-3.2l-.05.1q-1.35.6-3 1.75l-3.3 2.6q.7-2.05 2.35-4l4.65-4.8q1.05.45 2.1 1.4l.1 1.25q0 2.7-.95 4.9" fill="#fff"/><path d="M27.75 100.95 31 98.8l.9-.5q2.2-1.25 3.25-1.25 1.75 0 2.8 2.6v.05q.85 2.1.85 4.1v1.65q-.3 6.35-2.4 10.45-1.2 2.3-2.9 4.05l-.2.2-3.55 2.7-3.2 1.55-1.45.1q-.35-.6-1.15-3.85l-.35-1.25q-.85-3.45-.85-5.5v-.65q.25-5.3 3.95-11.1l.55-.85.5-.35m9.65 4.45v-.55q0-2.6-.45-3.95l-.1-.4q-.65-1.45-2.05-2.6-4.25 4.9-6.35 8.35Q25 111.85 25 116.6q0 3.75 1.05 6.1l1.35-.8.1-.05 2.3-1.75q2.2-1.9 3.95-4.35 3.45-4.85 3.65-10.35" fill="#027952"/><path d="m51.15 102.4 2.25 3.9.6 1 .45 2.1h-.9q-3.7.5-6.55 6.9-2.25 4.9-2.6 9.15l-5.05.4v-3.8q1.85-7.85 3.4-11.3 2.45-5.85 8.4-8.35" fill="#a85803"/><path d="m40.75 105.05-.4 5.35q-.8 7.45-3.65 9.9l-2.2 1.6-.85-.95-.35-.8.2-.2q1.7-1.75 2.9-4.05 2.1-4.1 2.4-10.45v-.2l1.95-.2M51.5 124.1l-7.1 1.35q.35-4.25 2.6-9.15 2.85-6.4 6.55-6.9h.9l.8 2.75 1.2 3.95.05.4q-.5 1.35-2.3 3.8-2.35 2.95-2.7 3.8" fill="#e18e00"/><path d="M54 107.3q1.1 1.95 2.35 3.5 1.55 2 2.5 4l1.05 3.35.2.6-.2.3q-2.2 3.3-8.4 5.05.35-.85 2.7-3.8 1.8-2.45 2.3-3.8l-.05-.4-1.2-3.95-.8-2.75-.45-2.1" fill="#ffa58d"/><path d="m39.5 96.35.85 3q.5 2.1.4 5.7l-1.95.2v-1.45q0-2-.85-4.1v-.05q.7-2.45 1.55-3.3m-5 25.55q-2.15 1.5-4.85 2.6-2.45 1.1-4.35 2l1.25-2.1 3.2-1.55 3.55-2.7.35.8.85.95m6.6-33.45 1.35 1.5 2.95 4 5.5 8 .25.45q-5.95 2.5-8.4 8.35-1.55 3.45-3.4 11.3v3.8l-6.8.15-2.75-.3q6.9-3.55 9.5-8.05 2.75-4.75 2.75-13.6 0-5.05-.7-6.85l-1.1-2.6q.95-2.2.95-4.9l-.1-1.25" fill="#fdff15"/><path d="m31.9 92.05.85-.9 2.1-2.05 4-3.3q2.85 1.1 5.85 4.3 3.8 4 8 11.15l1.65 3.3.7 1.5.2.5q1.05 2.15 2.45 3.9l.45.5.45.55 1.5 1.5 1.8 1.7 2.05 3.5q-3.35 4.5-11.6 6.8-9.4 2.7-14.95 2.4l-6.2-.35-3.8-.5-.5.2-5 2.55-.55-1.95q-.55-2.25-.55-2.9 0-2.55.65-5.95.45-2.9 1.1-4.75l.2.15q0 2.05.85 5.5l.35 1.25h-.05q-.3 1-.85 4.2v2.55l.15.15q.9-.5 2.1-1.05 1.9-.9 4.35-2 2.7-1.1 4.85-2.6l2.2-1.6q2.85-2.45 3.65-9.9l.4-5.35q.1-3.6-.4-5.7l-.85-3-.2-.65-.45-1-1.1-1.8-.1.05-3.4 2.75-2.35 2.6-.9.5-3.25 2.15.1-.4.1-.9q.35-2.4.85-3.9l.3-.7 1-1.05 1.65-1.75.15-.2m9.2-3.6q-1.05-.95-2.1-1.4l-4.65 4.8q-1.65 1.95-2.35 4l3.3-2.6q1.65-1.15 3-1.75l.05-.1q.85 1.05 1.9 3.2l1.1 2.6q.7 1.8.7 6.85 0 8.85-2.75 13.6-2.6 4.5-9.5 8.05l2.75.3 6.8-.15 5.05-.4 7.1-1.35q6.2-1.75 8.4-5.05l.2-.3-.2-.6-1.05-3.35q-.95-2-2.5-4-1.25-1.55-2.35-3.5l-.6-1-2.25-3.9-.25-.45-5.5-8-2.95-4-1.35-1.5" fill="#924103"/><path d="m60.1 113-1.5-1.5-.45-.55q1.8-5.75 5.25-14.35l2.25 1.5q-3.35 8.2-5.55 14.9" fill="#261948"/><path d="M31.9 78.05v14l-.15.2L30.1 94l-1 1.05-.3.3-.5-16.6.65-.15 2.95-.55m23.15 28-.7-1.5 3.2-12.3 1.35 1.15-3.85 12.65" fill="#664b69"/><path d="M57.7 110.45q-1.4-1.75-2.45-3.9l-.2-.5L58.9 93.4l2.65 1.95q-2.7 8.55-3.85 15.1" fill="#331f64"/><path d="m58.15 110.95-.45-.5q1.15-6.55 3.85-15.1l1.85 1.25q-3.45 8.6-5.25 14.35" fill="#fda38d"/><path d="m34.85 89.1.2-11.1q3.8.25 8.05 1.95l2.45 1.15-.85 9q-3-3.2-5.85-4.3l-4 3.3" fill="#825f85"/><path d="m54.35 104.55-1.65-3.3q-4.2-7.15-8-11.15l.85-9q2.55 1.3 4.8 3 1.95 1.55 3.2 3.25l2.25 3.1 1.75 1.8-3.2 12.3" fill="#b37fb7"/><path d="M27.05 33.15q9 5 11.3 15.5-2.6 3.55-5.45 9.5-3.25-12.3-5.85-25" fill="#8aaeff"/><path d="M25.7 26.6Q37.9 38.9 54.1 45l-2 13.1q-4.3-7.2-9.5-13.65l-1.7 1.4q-1.25 1.15-2.55 2.8-2.3-10.5-11.3-15.5L25.7 26.6" fill="#5e52e1"/><path d="m68.9 22.45-.6 3.1q-4.2 24.55-6.45 51.1l1.25 12.5-2.7 9.65-1.8-1.6 3.1-18.7q-3.9-10.85-9.6-20.4l2-13.1q-16.2-6.1-28.4-18.4-2.35-12.4-4.2-25.1L41 14.35l27.9 8.1" fill="#331f64"/><path d="m35.35 83.55-.5-15L43.3 55.7l5.85 9.2-3.7 4.65-.7 17.3q-3.4-2.1-7.55-3.05l-1.85-.25" fill="#825f85"/><path d="m60.05 81.9-3 13.95-1.8-1.65-8.7-6.15-1.8-1.2.7-17.3 3.7-4.65 10.9 17" fill="#b37fb7"/><path d="m68.3 25.55.6-3.1 3 .85q-6.2 38.85-4.3 68.95l-3.2 9.3-2.25-1.35 2.95-8.8q-3.6-10.75 0-33.75l3.2-32.1M21.5 1.5q1.85 12.7 4.2 25.1l1.35 6.55q2.6 12.7 5.85 25l-2.4 3.75-.2-1.4Q20.95 31.5 19.25 0l2.25 1.5" fill="#261948"/><path d="m60.4 98.8 2.7-9.65-1.25-12.5q2.25-26.55 6.45-51.1l-3.2 32.1q-3.6 23 0 33.75l-2.95 8.8-1.05-.75-.7-.65" fill="#fda38d"/><path d="M52.1 58.1q5.7 9.55 9.6 20.4l-3.1 18.7-1.55-1.35 3-13.95.25-1.45q-2.45-9.85-8.55-20.1l-5.5-8.3-4.2-6.2q-8.65 11.45-11 23.9l.7 13.35-3.15-.1-.9-12.1 2.6-10.4.2 1.4 2.4-3.75q2.85-5.95 5.45-9.5 1.3-1.65 2.55-2.8l1.7-1.4q5.2 6.45 9.5 13.65" fill="#664b69"/><path d="m31.75 83.1-.7-13.35q2.35-12.45 11-23.9l4.2 6.2 5.5 8.3q6.1 10.25 8.55 20.1l-.25 1.45-10.9-17-5.85-9.2-8.45 12.85.5 15-3.6-.45" fill="#fff"/></g><g id="o" fill-rule="evenodd"><path d="m30.15 113.65.9-1.8 3.65-5.35.65.55q.7.9 1.4 3l.2.65q-1.4.3-4.25 1.7-1.7.75-2.55 1.25M15.8 102.2q-.3.4-.65 1.4l-1.05 2.9-2.15 1.1-1.85 1.35.9-1.95q2-3.45 4.8-4.8m-4.05 12.3q.9-3.15 3.3-6.6 2.5-3.75 4.35-4.1l.6 1.9q.35 1.9.35 4v.8l-.05.2-4.15 1.7q-3.65 1.55-4.4 2.1" fill="#b37fb7"/><path d="M36.95 110.7q.7 2.75.7 5.75l-8.75 1.2-.25-.05q.45-1.7 1.2-3.4l.3-.55q.85-.5 2.55-1.25 2.85-1.4 4.25-1.7m-22.85-4.2-.4 1.4-.3.7v.05q-.95 3.2-3.7 3.2l-.7-.15q.4-1.3.9-2.25l.2-.5 1.85-1.35 2.15-1.1m6.2 4.2-.3 2.1-.35 2.1v.15l-2.35.1-5-.35h-.55v-.3q.75-.55 4.4-2.1l4.15-1.7" fill="#825f85"/><path d="M10.9 103.45q1.2-1.4 3.8-2.1l1.25-.35h.2l.15.55-.15.7-.35-.05Q13 103.55 11 107l-.9 1.95-.2.5q-.5.95-.9 2.25l.7.15q2.75 0 3.7-3.2v-.05l.3-.7 1.6-1.9.35-.3.15-.2q1.95-1.9 3.6-2.4l.2-.05.5.55H20l.15.15.45.9q.75 2.05.75 6.4l-.05 2.7v.05l-.35 3.65-7.1.65-6.6-.5 1.05-3.45-3.45.5q1.55-5.5 3-7.3l2.45-3.2.6-.7m22.9 3.2 1.2-1.15 1.1 1.15q1.5 1.65 2.05 3.05.7 1.9.9 5.45v3.65l-3.3.55-4.6.65q-2.2 0-3.7-1.3l-1.15-.75 1.55-2.95.05-.15q2.45-4.45 4.85-7.15l1.05-1.05m3.15 4.05-.2-.65q-.7-2.1-1.4-3l-.65-.55-3.65 5.35-.9 1.8-.3.55q-.75 1.7-1.2 3.4l-.05.05h.3l8.75-1.2q0-3-.7-5.75m-16.65 0 .05-.2v-.8q0-2.1-.35-4l-.6-1.9q-1.85.35-4.35 4.1-2.4 3.45-3.3 6.6l-.1.3h.65l5 .35 2.35-.1v-.15l.35-2.1.3-2.1" fill="#664b69"/><path d="m39.15 93.05-7.9 2.05-5.95 1.1h-3.05l-2.3.1q-1.55-.3-2.65 1.2l-2.6 3.85q-2.6.7-3.8 2.1l-.3-.05q.85-2.05 2.65-4.7 2.15-3.25 3.05-3.95.85-.8 1.6-.8l2.7-.2 3.55.15q2.55-.2 9.65-2.75 2.05 1.35 5.35 1.9m-23.05 7.9q1.3-1 3.55-1.85 2.4-.9 3.55-.9l.55.15q.05.35-1.25.95l-2 .8-2.75 1.05-.55.35q-.6.55-.95 1.7l-.95 2.8-1.6 1.9.4-1.4 1.05-2.9q.35-1 .65-1.4l.35.05.15-.7-.15-.55-.05-.05m15.3 7.1 2.35-4.3q1.55-1.7 6.8-2.35-4.1 1.1-5.25 2.15l-1.5 3.1-1.05 1.05-1.35.35M56.95 92.5l2.95.15-.8 7.65-.35 2.75-.05.55-.15.2.15.15.05 1.75-.5.8q-3.45 3.9-6.45 6.6l-4.45 3.7-.85.25-3.15.95-1.9.35-2.4.45v-3.65l4.8-.65h1.2l1-.55.75-.45.9-.5.8-.55 2.75-2.1 3.85-3.25.7-5.1 1.15-9.5M26.3 117.95q-.95-.5-2-.7l-.7-.1-.15-.05-.5.15-2 .2.35-3.65v-.05h.15l6.4 1.25-1.55 2.95" fill="#261948"/><path d="m14.7 101.35 2.6-3.85q1.1-1.5 2.65-1.2l2.3-.1h3.05l5.95-1.1 7.9-2.05 4.15.3 4.9-.45 3.45-.25q-3.95 7.3-8.8 11l-6.75 3-1.1-1.15-1.2 1.15 1.5-3.1q1.15-1.05 5.25-2.15-5.25.65-6.8 2.35l-2.35 4.3h-.25l-2.25.05q-2.75 0-5.35-1.6l-3.4-2.75-.05-.15-.5-.55-.2.05-.45-.35-.55-.5q-.7-.6-1.2-.75l.55-.35 2.75-1.05 2-.8q1.3-.6 1.25-.95l-.55-.15q-1.15 0-3.55.9-2.25.85-3.55 1.85l-.15.05-1.25.35" fill="#5e52e1"/><path d="M17.2 101.5q.5.15 1.2.75l.55.5.45.35q-1.65.5-3.6 2.4l-.15.2-.35.3.95-2.8q.35-1.15.95-1.7m2.95 2.25 3.4 2.75q2.6 1.6 5.35 1.6l2.25-.05h.25l1.35-.35q-2.4 2.7-4.85 7.15l-.05.15-6.4-1.25h-.15l.05-2.7q0-4.35-.75-6.4l-.45-.9m15.95 2.9 6.75-3q4.85-3.7 8.8-11l3.25-.15q-1.15 5.75-1.4 8.2l-.3 3.75v.4l-4.7 7.6-.8.55-.9.5-.75.45-1 .55h-1.2l-4.8.65q-.2-3.55-.9-5.45-.55-1.4-2.05-3.05" fill="#331f64"/><path d="M54.9 92.5h2.05L55.8 102l-.7 5.1-3.85 3.25-2.75 2.1 4.7-7.6v-.4l.3-3.75q.25-2.45 1.4-8.2" fill="#da8d85"/><path d="M31.75 92.85q-1.2-1.9-1.2-5.9 0-3.6 2.15-6.6 1.95-2.85 4.9-3.9l1.35-.05.45 4.35q.4 2.9-3.65 7.9-2.35 3-4 4.2" fill="#03a17f"/><path d="M26.05 84.25q.65-3.9 3.25-7.5l.35-.4.55-.75q1.15-1.4 2.5-2.3l.25-.2 1.2-.65.7-.25 1.95-.35h.25l.5-.1.05-.05h.05l.25-.1q.75.6 1.45 3.25l.8 4 .05.3.05 3-.4 3.45-3.25 3.95-.75.9q-3.8 4.3-5.85 4.45-1.95.15-3-2.7v-.15l-.15-.25Q25.8 88.55 25.8 87q0-1.4.25-2.75m12.9-7.85-.15-.55q-.3-2.05-1.2-3.05-9.3 7.1-9.3 16.1 0 4.7 1.7 4.7.7 0 1.75-.75 1.65-1.2 4-4.2 4.05-5 3.65-7.9l-.45-4.35" fill="#027952"/><path d="M31.75 92.85q-1.05.75-1.75.75-1.7 0-1.7-4.7 0-9 9.3-16.1.9 1 1.2 3.05l.15.55-1.35.05q-2.95 1.05-4.9 3.9-2.15 3-2.15 6.6 0 4 1.2 5.9" fill="#00ffc8"/><path d="m49.15 75.15 4.6 6.6.35.55.25.3q-1.9 4.5-2.9 8.2-.55 2.05-1.25 6.05h-.15l-7.45.35-4-.15q.2-2.65.7-3.85.1-.15.35-.15 1.9-.75 2.95-5.95l.5-2.7.1-.75.15-1.35q.3-1.05 1.2-2.6 1.5-2.8 4.6-4.55" fill="#a85803"/><path d="M54.35 82.6 56 85.05l.95 1.25.1.2.15.15.2 3.55q0 1.4-2.5 5.6l-.55.2-2.05.5-2.1.35q.7-4 1.25-6.05 1-3.7 2.9-8.2m-12.6-5.3.05 1.05q0 9.45-2.85 13.1L36.8 93.4q-.45-.35-.45-1.55 0-1.6.25-2.3l3.25-3.95.4-3.45-.05-3-.05-.3.7-.9.9-.65" fill="#e18e00"/><path d="m57.2 86.65 3.65 5.5v.05q-2.75 2.4-5.95 3.6 2.5-4.2 2.5-5.6l-.2-3.55" fill="#d57f55"/><path d="m43.35 82.3.1-3.65q-.25-3.25-1.65-6.7-1.55-3.8-2.75-3.8-1.25 0-2.85 1.5l-1.75 1.9h-.1V70.4q.15-1.5 3.05-3.55l3-2.4q2.9 2.1 7.55 8.85l1.2 1.85q-3.1 1.75-4.6 4.55-.9 1.55-1.2 2.6M38.6 97.05 37.1 97l-4.3-.5-.1-.35q4.55-2.2 6.6-2.95-.5 1.2-.7 3.85M34.85 72.2l1.75-1.65q1.3-1.1 2.25-1.1 1.35 0 2.25 4.05l.65 3.75v.05l-.9.65-.7.9-.8-4q-.7-2.65-1.45-3.25l-.25.1h-.05l-.05.05-.5.1h-.25l-1.95.35m1.95 21.2q-3.55 2.55-10.6 4.15v-2.5l.35-1.9q.15-.65.45-.95 1.05 2.85 3 2.7 2.05-.15 5.85-4.45l.75-.9q-.25.7-.25 2.3 0 1.2.45 1.55" fill="#fdff15"/><path d="M38.8 64.3q-.3-1.45-.35-4.5v-5.75q4.35 1.95 8.8 5.05L51.8 62l-.15 4.2q0 2.95 1.05 11.2l-4.05-5.8q-3.4-5.1-8.4-8.15l-.4-.2-1.05 1.05" fill="#825f85"/><path d="M38.45 54.05v5.75q.05 3.05.35 4.5l-.2.2-3.9 3.75-1.6-16.1q2.65.7 5.35 1.9M52.7 77.4q-1.05-8.25-1.05-11.2l.15-4.2q2.75 1.45 5.25 2.25-.95 5.1-1.75 12.5l-.25 1.1-.5 2-1.85-2.45" fill="#b37fb7"/><path d="m58.4 84.95-1.4-1.8 2.1-6.4q2.1-6.2 2.1-7.05 0-1.45-.55-3.05l-.75-1.8 1.45.1h.2l.6 2.05.75 3.35q0 2.75-2.2 8.3l-2.3 6.3m-1.35-20.7 1.2.35-2.95 12.15q.8-7.4 1.75-12.5" fill="#ffa58d"/><path d="m33.1 52.15 1.6 16.1-3.1 3.1-.2-.2v-1l-.05-9.9q-.15-5.15-.9-8.75l2.65.65M55.5 81.2l-.95-1.35.5-2 .25-1.1 2.95-12.15 1.15.2-1.2 9.7q-.8 4.1-2.7 6.7" fill="#664b69"/><path d="m57 83.15-1.35-1.85-.15-.1q1.9-2.6 2.7-6.7l1.2-9.7.5.05.75 1.8q.55 1.6.55 3.05 0 .85-2.1 7.05l-2.1 6.4" fill="#331f64"/><path d="m61 88.5-2.45-3.3-.15-.25 2.3-6.3q2.2-5.55 2.2-8.3L62.15 67l-.6-2.05 3.05-.1 1.1 5.3-2.35 7.95q-2 6.65-2.35 10.4" fill="#261948"/><path d="m38.8 64.3 1.05-1.05.4.2q5 3.05 8.4 8.15l4.05 5.8 1.85 2.45.95 1.35.15.1L57 83.15l1.4 1.8.15.25L61 88.5l3.1 4-3.45 2.75q-1.75 1.2-3.95 1.6l-8.55 1.4-9.65-.55-4-.4h-4.2l-3.65 1.25q-.95 0-1.15-.8l.7-.2q7.05-1.6 10.6-4.15l2.15-1.95q2.85-3.65 2.85-13.1l-.05-1.05v-.05l-.65-3.75q-.9-4.05-2.25-4.05-.95 0-2.25 1.1l-1.75 1.65-.7.25-1.2.65-.25.2q-1.35.9-2.5 2.3l.45-2.25.25-.8.25-.65.45-.55 3.1-3.1 3.9-3.75.2-.2m10.35 10.85-1.2-1.85q-4.65-6.75-7.55-8.85l-3 2.4q-2.9 2.05-3.05 3.55v1.15h.1l1.75-1.9q1.6-1.5 2.85-1.5 1.2 0 2.75 3.8 1.4 3.45 1.65 6.7l-.1 3.65-.15 1.35-.1.75-.5 2.7q-1.05 5.2-2.95 5.95-.25 0-.35.15-2.05.75-6.6 2.95l-.6.3.7.05 4.3.5 1.5.05 4 .15 7.45-.35h.15l2.1-.35 2.05-.5.55-.2q3.2-1.2 5.95-3.6v-.05l-3.65-5.5-.15-.15-.1-.2-.95-1.25-1.65-2.45-.25-.3-.35-.55-4.6-6.6m-23.1 9.1Q25.8 85.6 25.8 87q0 1.55 1.05 4.8l.15.25v.15q-.3.3-.45.95l-.35 1.9v1.1l-.9.15-1.35.15q-.55 0-.55-.8 1.95-9.4 2.65-11.4" fill="#924103"/><path d="M37.9 34.45V34h-.15q-.8-1.05-3.4-2.65-3.7-2.4-4.35-2.95-.85-.7-4.85-1.75L19.6 25.3h-1.2q-9-9.5-14.75-17.8Q8 5.9 14.75 4.05 29.95 0 38.3 0l8.3.55 3.95-.2.6 3.15.35 1.9-.25 2.25q-.45 3.3-.45 4.7 0 4.2 3.25 13.35 1.6 4.5 3.25 8.3l-.6 4.3q-.55 3.7-.55 5.4 0 5.05.8 9.5-3.55-6.45-7.55-12.7l-3.85-7.05q-2-3.65-4.1-5.75l-3.55 6.75M60.85 66.9l-1.95-.5.5-3.7 1.45 4.2" fill="#331f64"/><path d="M34.15 41.3q-1-1.9-2.9-3.55L25 32.1l-6.05-6.2-.55-.6h1.2l5.55 1.35q4 1.05 4.85 1.75.65.55 4.35 2.95 2.6 1.6 3.4 2.65l.15.3v.15l-.95 1.75-2.8 5.1" fill="#5e52e1"/><path d="m62.35 67.2-1.5-.3-1.45-4.2-.7-2.35-.1-.2-.05-.2-.2-.65-.25-.9.3.9q-1.1-3.85-1.45-6.1-.8-4.45-.8-9.5 0-1.7.55-5.4l.6-4.3q-1.65-3.8-3.25-8.3-3.25-9.15-3.25-13.35 0-1.4.45-4.7l.25-2.25L53.35 16l3.45 9.1q3.3 8.55 3.3 9.6l-.45 6.15q-.4 3.55-.4 6.95 0 4.15-.3 5.95-.25 1.85.5 4.3l1.9 6.2 1 2.95" fill="#df9085"/><path d="m51.75 64.3-6.35-2.1-6.55-2.25-.15-2.45q0-10.2 1.35-17.4l2.25-9.2 1.2 2.1 2.25 4.1 4.2 7.6 2 3.5-.3 14.5.1 1.6" fill="#825f85"/><path d="m56.7 65.8-4.95-1.5-.1-1.6.3-14.5 5.75 10 .15.25v.15l-1.05 6.6-.1.6m-17.85-5.85-5-1.85-.9-7.8-.05-.5q.05-1.8.6-3.75.45-1.65 1.2-3.4l1.4-2.95q4.05-7.4 5-10.05l1 1 .2.25-2.25 9.2q-1.35 7.2-1.35 17.4l.15 2.45" fill="#b37fb7"/><path d="m57.9 66.15-1.2-.35.1-.6 1.05-6.6v-.15l.5.85.2.65.05.2.1.2q-.3 1.3-.65 4.65l-.15 1.15" fill="#ffa58d"/><path d="m34.15 41.3 2.8-5.1.95-1.75 3.55-6.75q2.1 2.1 4.1 5.75l3.85 7.05q4 6.25 7.55 12.7.35 2.25 1.45 6.1l-.3-.9.25.9-.5-.85-.15-.25-5.75-10-2-3.5-4.2-7.6L43.5 33l-1.2-2.1-.2-.25-1-1q-.95 2.65-5 10.05l-1.4 2.95q-.75 1.75-1.2 3.4-.55 1.95-.6 3.75l.05.5.9 7.8-2.7-1.05-.7-4.5Q30 51.5 30 49.35l.05-.65.25-1.2.75-1.1 1.25-2.05 1.85-3.05M58.9 66.4l-1-.25.15-1.15q.35-3.35.65-4.65l.7 2.35-.5 3.7" fill="#664b69"/><path d="m18.4 25.3.55.6L25 32.1l6.25 5.65q1.9 1.65 2.9 3.55l-1.85 3.05q-4.25-6-12.5-13.3Q10.1 22.4 0 9q1.55-.8 3.65-1.5Q9.4 15.8 18.4 25.3M50.55.35 53.6 0h.45l1.75 12.9q2.2 12.4 8.25 22.15-2 14.65-2 16.55 0 .85 1.85 10.2l1.1 5.9-2.65-.5-1-2.95-1.9-6.2q-.75-2.45-.5-4.3.3-1.8.3-5.95 0-3.4.4-6.95l.45-6.15q0-1.05-3.3-9.6L53.35 16 51.5 5.4l-.35-1.9-.6-3.15" fill="#261948"/></g><g id="p" fill-rule="evenodd"><path d="m135.95 168.15-2.45-4.5-1-1.75-8.35-7.8L104 135.3 20.8 58l-.5.05h-1.6l3.95 10.05 3.3 9.45q3.85 11.45 6.2 21.5l6.45 6.45q.35.35.35.85v.45l73.4 68.4.05.05 9.1 13.8 7.2 10.95.1.4-.2.3-.35.05-.35-.2-7.05-10.6-9.3-14.15-15.6-14.55-57-53.05v3.65l2.1 6.3 2.4 7.4 7.15 21.8 58.15 60.1 6.35 6.6q.35.35.35.9l-.35.8q-.35.35-.85.35t-.85-.35L48.7 148.8l-.25-.4-10.85-32.95-.7-.35q-.35-.35-.35-.85v-7.4l-6.4-6.4-.25-.55q-2.75-11.75-7.55-25.55l-3.45-9.3-3-7.7q-.2-.4-.1-.75.1-.45.45-.65.3-.25.7-.25H18l-5.95-8.25-.15-.35L.1 1.55q-.15-.45 0-.8L.55.2l.7-.2q.45 0 .7.3 58.5 49.7 101.2 110.35l12.35 18.3q10.6 16.45 20.1 33.6l1.9 3.4 4.25 7.9q.2.4.05.9l-.55.7-.95.1q-.45-.15-.7-.6l-3.65-6.8M10.9 33.9l3.25 12.35 7.15 9.9q.3.35.2.85v.3l109.45 101.8q-10.5-18.65-22.35-36.2-6.6-9.95-13.55-19.4Q55.6 49.55 3.3 4.55l5.85 22.6 1.75 6.75" fill="#664b69"/><path d="m43.45 125.55-2.4-7.4 41.7 36.6 13.2 6.5 15.6 14.55 9.3 14.15-7.3 10.6-70.1-75m-17.5-48-3.3-9.45 61.1 53.5L104 135.3l20.15 18.8-33.45-19.7-64.75-56.85M10.9 33.9l-1.75-6.75 85.9 76.35q6.95 9.45 13.55 19.4l-97.7-89" fill="#825f85"/><path d="m124.15 154.1 8.35 7.8 1 1.75 2.45 4.5-14.45 20.9-9.1-13.8-.05-.05-73.4-68.4v-.45q0-.5-.35-.85l-6.45-6.45Q29.8 89 25.95 77.55L90.7 134.4l33.45 19.7m-15.4 53.35-58.15-60.1-7.15-21.8 70.1 75-4.8 6.9m-.15-84.55q11.85 17.55 22.35 36.2L21.5 57.3V57q.1-.5-.2-.85l-7.15-9.9L10.9 33.9l97.7 89" fill="#b37fb7"/><path d="m41.05 118.15-2.1-6.3v-3.65l57 53.05-13.2-6.5-41.7-36.6M22.65 68.1 18.7 58.05h1.6l.5-.05 83.2 77.3-20.25-13.7-61.1-53.5M9.15 27.15 3.3 4.55q52.3 45 91.75 98.95L9.15 27.15" fill="#fff"/></g><g id="q" fill-rule="evenodd"><path d="m108.9 78.2.9 1.3q1.3 2.35 1.3 5.15 0 5.05-14.1 11.75-18.75 9-25.55 15.1l-3.8 3.4-.95-27.35q-.35-3.3-.35-5.55l.6-18.35.05.05q1.25 4.5 5.75 12.85L75.3 81l-1.9-9.4-.35-1.4q-3-11.4-13.15-21.1l1.95 23.05-4.2-12.4-5.9 13.5-7.65-17-2.2 11.1-7.6-11.5v9q-8.9-1.4-18.8 1.95l-1.15 12.35q-2.25-11.5-9.55-16.9.6-8.75 1.35-17.45l58.6-43.3L81.2 7.4l14.4 11.05 2.55 1.1-5.35 2.55 3.8 4 7.15 14.25 1.15 1.5q4.8 6.2 10.4 9.65l-7.05-1 .6 1.35 1.25 8.4.05 1.2q.45 4.5 4.4 9l-7.1 5.65 1.45 2.1m-64.25 53.9-1.6.8q-4.35 3.05-8.5 5.55l-2 1.1-.15-.25-.05.4q-6.6 3.5-11.4 3.6l-1.1-1.55-1.15-1.65q4.1-4.95 8-12.4 4.5-8.45 6.2-15.4l-.25 2.85.8 11.55v.85q3.7-5.05 9.85-18.5.6 3.8 1 14.15l.35 8.9M78.2 35.05l.75-.25-1.45-.7q-4.25-1.9-4.95-1.9-2.75 0-5.2 2.2 3.4 1.75 5.75 1.75 1.35 0 5.1-1.1m-3.1 4.5-4 .05-4 .65q3.7 4.85 7.7 7.7 5.65 4 13.2 5.55-.4-5.55-4.45-9.75-4.1-4.2-8.45-4.2M71.2 59.3q2.75 5.9 8.55 11.25 1.55-8.4-2.6-14.95-3.8-5.95-10.2-7.7 1.9 4.4 4.25 11.4m-61.05 33v3.75l-1.2 4.7-.1.45-.55 2.45-1.55 6.6v-7.45l-3.95 3.1q-.2-1.9-.1-4L9 94.15l1.15-1.85m23.6-1.75.05.1-.05-.1" fill="#331f64"/><path d="M7.75 73.55 7.8 73q2.2 2.4 3.05 5.8.7 2.9.7 7.4 0 3.3-1.4 6.1L9 94.15l-6.3 7.75q.1-9.1 4.55-23l.5-5.35m1.2 27.2L16.4 88.6l7.7-12.85-1.15 8.35q-1 8-1 13.05 0 4.1.15 5.1l.15 1.05L33.2 77.65l.25 5.4.3 7.5V91l.05-.35q.45-2.5 2.2-9.25l2.25-9q.65.85 2.05 7.9 1.35 6.9 1.35 8.7 0 5.9-5.7 22.6l-1.7-7.1q-.85-3.65-1.15-5.8-1.3 8.15-5.2 16.55-2 4.2-12 21.1l-5.2-6.3q-3.3-3.3-3.95-14.9v-4.9l1.55-6.6.55-2.45.1-.45m34.1-17.65 1.65-5.95q3.4 7 3.4 13.55 0 3.45-.55 6-.6 2.45-3.1 5.3l-2.35-9.4-.2-2.6.1-.9q.1-2.6 1.05-6m10.1-2.8q0-1.85.45-4.5 1.75.3 3.75 3.8 1.3 2.1 2.25 4.65l1.85 5.95q.5 2.6.7 6.7l-6.95-9.5q-2.05-3.4-2.05-7.1" fill="#8aaeff"/><path d="M67.65 114.9q-14.85 12.9-23 17.2l-.35-8.9q-.4-10.35-1-14.15-6.15 13.45-9.85 18.5v-.85l-.8-11.55.25-2.85q-1.7 6.95-6.2 15.4-3.9 7.45-8 12.4l-.95-1.5-.25-.4-1.6-1.85q10-16.9 12-21.1 3.9-8.4 5.2-16.55.3 2.15 1.15 5.8l1.7 7.1q5.7-16.7 5.7-22.6 0-1.8-1.35-8.7-1.4-7.05-2.05-7.9l-2.25 9q-1.75 6.75-2.2 9.25l-.05-.1-.3-7.5-.25-5.4-10.95 25.65-.15-1.05q-.15-1-.15-5.1 0-5.05 1-13.05l1.15-8.35-7.7 12.85-7.45 12.15 1.2-4.7V92.3q1.4-2.8 1.4-6.1 0-4.5-.7-7.4Q10 75.4 7.8 73l-.05.55h-3.8l.85-11.3q7.3 5.4 9.55 16.9L15.5 66.8q9.9-3.35 18.8-1.95v-9l7.6 11.5 2.2-11.1 7.65 17 5.9-13.5 4.2 12.4L59.9 49.1q10.15 9.7 13.15 21.1l.35 1.4 1.9 9.4-2.55-4.45Q68.25 68.2 67 63.7l-.05-.25v.2L66.35 82q0 2.25.35 5.55l.95 27.35M78.2 35.05q-3.75 1.1-5.1 1.1-2.35 0-5.75-1.75 2.45-2.2 5.2-2.2.7 0 4.95 1.9l1.45.7-.75.25m-3.1 4.5q4.35 0 8.45 4.2 4.05 4.2 4.45 9.75-7.55-1.55-13.2-5.55-4-2.85-7.7-7.7l4-.65 4-.05M71.2 59.3q-2.35-7-4.25-11.4 6.4 1.75 10.2 7.7 4.15 6.55 2.6 14.95-5.8-5.35-8.55-11.25m-18.05 21q0 3.7 2.05 7.1l6.95 9.5q-.2-4.1-.7-6.7l-1.85-5.95q-.95-2.55-2.25-4.65-2-3.5-3.75-3.8-.45 2.65-.45 4.5m-10.1 2.8q-.95 3.4-1.05 6l-.1.9.2 2.6 2.35 9.4q2.5-2.85 3.1-5.3.55-2.55.55-6 0-6.55-3.4-13.55l-1.65 5.95" fill="#5e52e1"/><path d="m81.2 7.4 2.1.7 17.95 12-8.45 2 5.35-2.55-2.55-1.1L81.2 7.4m15.4 18.7 5.25 5.5 14.55 20-1.1-.1q-5.6-3.45-10.4-9.65l-1.15-1.5L96.6 26.1m12.25 25.75 7 17.55-1.3 1.05q-3.95-4.5-4.4-9l-.05-1.2-1.25-8.4" fill="#ffa58d"/><path d="M64.75 1.5 66.7 0l17.45 5.8 2.2 1.3q11.5 6.75 19.65 14.45l-8.15 1.1L110.8 41.2l12.1 13.45-10.4-1.35q4.7 9.3 5.9 17.7l-6.35 4.25-3.15 2.95-1.45-2.1 7.1-5.65 1.3-1.05-7-17.55-.6-1.35 7.05 1 1.1.1-14.55-20-5.25-5.5-3.8-4 8.45-2-17.95-12-2.1-.7-16.45-5.9m-43.8 141.8h-.15l-1.4-.15-.85-.45-9.8-12.9q-5.8-9.45-3.1-23.05l-3.95 2.8q-.5-3.15-.55-6.5-.3-12.5 5.05-26.7L0 80.3Q4.6 67.35 3.15 47l3-2.2Q5.4 53.5 4.8 62.25l-.85 11.3h3.8l-.5 5.35q-4.45 13.9-4.55 23-.1 2.1.1 4l3.95-3.1v12.35q.65 11.6 3.95 14.9l5.2 6.3 1.6 1.85.25.4.95 1.5 1.15 1.65 1.1 1.55" fill="#261948"/></g><g id="r" fill-rule="evenodd"><path d="M72.3 13.3Q47.45 5.35 24.05 3.2l-3.45-.3-.7-.05q-.6-.1-1-.5-.4-.45-.35-1l.05-.1v-.1l.45-.8q.45-.4 1.05-.35l.3.05 6.55.6q22.6 2.4 46.6 10.1l.35.25 29.8 19.65.15.1q26.15 22.35 62 32.2l38.05-.25h.2q31.25 3.9 43.95 19.7v.1q14.6 20.3 9.05 29.1l-.7.55h-1l-.7-.65q-4.9-8.9-16-10.65l2.3 2.95q.35.45.3 1.05-.1.55-.6.9-.4.35-.95.3l-10.35-1.35q-24.45 10.1-31.9 21l-.3.3q-14.5 11.95-26.35 18.7l1.25.55.65.55.2.8-.3.75q-.25.35-.7.5-15.85 5.15-26.4 6h-.3q-37.95-5-58-19.9l-.05-.1-5.9-4.4q-21.05-16.9-36.95-46.5l-.1-.2q-7-19.55-20.2-37.2-3.85-5.1-8.2-10.05-.35-.4-.35-.9l-.7.3L1.55 36q-.55.1-.95-.2l-.1-.05q-.4-.45-.5-1-.05-.65.35-1.05l.35-.3.2-.1.45-.1 13.2-1.1q.5-.1 1 .25v.1l.5.95v.1q.4-.3 1-.3.55.05.9.5 5.1 5.85 9.55 11.85 12.65 17.25 19.4 36.3 12.4 22.9 27.9 38.1 6.7 6.55 14.05 11.65 19.55 14.55 56.6 19.4h.1q8.85-.75 21.55-4.55l.45-.15-.5-.15q-.5-.25-.7-.75-.3-.5-.1-1 .25-.55.7-.75l7.1-4.15q9.8-6.2 21.2-15.55 7.8-11.45 33.45-22l.7-.15 7.25 1-2.05-2.6-.3-.55-.05-.5q.05-.65.55-.9.45-.45 1.05-.4l.65.3h.05q.45-.4 1.05-.35l2.8.45.4.1 1.4.3q8.65 2.25 13.4 9 .45-2.6-.35-5.9l-1.3-3.9v-.05q-2.5-5.9-8.15-13.7l.05.05q-12.15-14.9-42.1-18.6l-34.8.2h-3.75q-36.1-9.9-62.55-32.35l-.55-.5-29.55-19.5-.25-.1" fill="#261948"/><path d="m72.4 13.5 31.35 37.4L71.7 29.85 74.55 45q-10.7-10.9-32.1-10.1Q53.5 44.4 61.3 56l16.05 24.15-23.65-21.1q.85 15.7 5 25.8 10.4 25.8 37.2 37.5 57.15 12.5 81-14.9-20 5.9-40 .7 40.55 0 64.45-13.95-24.25 6.05-46.6 3.45l29-6.15 45.45-7.2-20.8-2.45q3.65-2.2 17.15-1.7 10.25.7 18.25 5.9l10.15 11.75v.05l1.3 3.9-10.6-5.55L227 91.75q1.7 3.15 10.55 5.75l.05.3q-.6-.05-1.05.35h-.05l-.65-.3q-.6-.05-1.05.4-.5.25-.55.9l.05.5-2.85-1.8q-11.4 2.85-15.4 5-.7.35-1.2.8-11.2 6.4-16.95 13.85l-23.85 22-7.1 4.15q-.45.2-.7.75-.2.5.1 1 .2.5.7.75l.05.3q-12.7 3.8-21.55 4.55h-.1q-37.05-4.85-56.6-19.4-7.35-5.1-14.05-11.65L62.45 101.8l-23.5-44.85-.25-.35q-4.6-12.7-16.75-24.25-6-2.15-6.4 0-.5-.35-1-.25l-13.2 1.1-.45.1-.2.1q-1.1-1.7 2.5-11.1l.6-1.55Q7.65 10 17.35 2.05l1.15-.95.05.1.05.05-.05.1q-.05.55.35 1 .4.4 1 .5l.7.05 3.45.3q23.4 2.15 48.25 10.1l.1.2" fill="#331f64"/><path d="M253.95 97.8 243.8 86.05q-8-5.2-18.25-5.9-13.5-.5-17.15 1.7l20.8 2.45-45.45 7.2-29 6.15q22.35 2.6 46.6-3.45-23.9 13.95-64.45 13.95 20 5.2 40-.7-23.85 27.4-81 14.9-26.8-11.7-37.2-37.5-4.15-10.1-5-25.8l23.65 21.1L61.3 56q-7.8-11.6-18.85-21.1 21.4-.8 32.1 10.1L71.7 29.85l32.05 21.05L72.4 13.5l.15-.1 29.55 19.5.55.5q1.25 11.75 16.6 26.5l-15.5-6.75q7 7.6 23.65 16.3l-7.05-1.1 13.8 8.15q11.05 3.3 27.25 4.5 34.6-3.1 41.9-8.45Q180 76.3 153.05 71q13.35-.7 15.9-5.25l34.8-.2q29.95 3.7 42.1 18.6l-.05-.05q5.65 7.8 8.15 13.7m-129.6-14.85q21.65 4.3 34.8 3.1L139.5 79.9l-30.65-14.95-24.75-16.3q-.85 9.1 16.35 24.5 7.95 4.5 21.25 8.9l2.65.9M98 87.35l-1.55-1-16-8.45q-.6 7.25 6.45 16.6-15.55-12.3-18.85-12.35L77.5 95.2q6.5 6.4 19.1 12.8l1.2.55q17.35 5.15 33.8 7.6l-31.5-13.5 19.15 2.25q-7.8-8.8-21.25-17.55m31.55 3.15-52.5-29.75q6 12.05 17.25 23 20.65 10 35.25 6.75" fill="#5e52e1"/><path d="M168.95 65.75q-2.55 4.55-15.9 5.25 26.95 5.3 50.25 1.55Q196 77.9 161.4 81q-16.2-1.2-27.25-4.5l-13.8-8.15 7.05 1.1q-16.65-8.7-23.65-16.3l15.5 6.75q-15.35-14.75-16.6-26.5 26.45 22.45 62.55 32.35h3.75M98 87.35q13.45 8.75 21.25 17.55l-19.15-2.25 31.5 13.5q-16.45-2.45-33.8-7.6l-1.2-.55Q84 101.6 77.5 95.2l-9.45-13.05q3.3.05 18.85 12.35-7.05-9.35-6.45-16.6l16 8.45 1.55 1m26.35-4.4-2.65-.9q-13.3-4.4-21.25-8.9-17.2-15.4-16.35-24.5l24.75 16.3L139.5 79.9l19.65 6.15q-13.15 1.2-34.8-3.1m5.2 7.55q-14.6 3.25-35.25-6.75-11.25-10.95-17.25-23l52.5 29.75" fill="#8aaeff"/><path d="M15.55 32.35q.4-2.15 6.4 0Q34.1 43.9 38.7 56.6l.25.35 23.5 44.85 12.35 18.15q-15.5-15.2-27.9-38.1-6.75-19.05-19.4-36.3-4.45-6-9.55-11.85-.35-.45-.9-.5-.6 0-1 .3v-.1l-.5-.95v-.1m158.5 107.15 23.85-22q5.75-7.45 16.95-13.85.5-.45 1.2-.8 4-2.15 15.4-5l2.85 1.8.3.55 2.05 2.6-7.25-1-.7.15q-25.65 10.55-33.45 22-11.4 9.35-21.2 15.55m63.5-42q-8.85-2.6-10.55-5.75l17.65 4.45 10.6 5.55q.8 3.3.35 5.9-4.75-6.75-13.4-9l-1.4-.3-.4-.1-2.85-.75" fill="#ffa58d"/></g><g id="s" fill-rule="evenodd"><path d="M143.3 93.3q-3.3-6.45-5.55-12.65-.15-1.95-.5-2.9-.55-1.45-.55-4.05 0-5.7 2.8-11.25 3.35-6.75 8.55-6.75 6.4 0 11.05 11.25 1.7 4.3 6.4 21.15-10 4.35-13.75 6.25l-8.45-1.05M99.15 33.1l.35-.2q1.1-.7 1.95-.95 2.1-.7 6.25-.7 4.75 0 14.65 3.3l13.9 4.75q-6.55 4.35-14.6 6.2 1.2 1 2.5 1.35l4.5.25q-4.2 4.1-9.2 7.35-.2 1.6-1.4 2.8-1.8 1.8-4.85 1.8-1.1 0-1.85-.55-.8-.65-.8-1.85 0-1.1 1.2-2.8l1.05-1.3-4.25-.95q-6.15-1.6-6.15-3.65 0-2.85 1.8-4.2l3.3-1.5q-4.2-1.3-6.2-2.65-2.6-1.85-2.6-4.6 0-.55.45-1.9" fill="#8aaeff"/><path d="M132.95 55.7q-.65 1.55-1.45 4.4-1.2 3.9-1.65 6.55l-5.8.85-7.45.55q-4.1 0-9.85-1.75-4.65-1.45-6.75-3l-.7.55q-19.4-19.2-19.4-39.8l.05-3.65.15-1 23.6 6.25q14.15 3.45 20.55 4.15 6.4.7 11.3-1.15l7.55-2.9 4.35 3.25 6.65 4.75q1.7 1.05 6.75 2.55 5.1 1.4 7.35 2.8 7.3 4.55 13.35 13.65 4.95 7.5 6.6 14.45-2.4 6.55-3.95 8.15-6.4 6.65-18 12.4l-.7.35q-4.7-16.85-6.4-21.15-4.65-11.25-11.05-11.25-5.2 0-8.55 6.75-2.8 5.55-2.8 11.25 0 2.6.55 4.05l-.45.15q-3.75-11.5-3.75-22.05l.1-.65.15-.35-.35.85m-33.8-22.6q-.45 1.35-.45 1.9 0 2.75 2.6 4.6 2 1.35 6.2 2.65l-3.3 1.5q-1.8 1.35-1.8 4.2 0 2.05 6.15 3.65l4.25.95-1.05 1.3q-1.2 1.7-1.2 2.8 0 1.2.8 1.85.75.55 1.85.55 3.05 0 4.85-1.8 1.2-1.2 1.4-2.8 5-3.25 9.2-7.35l-4.5-.25q-1.3-.35-2.5-1.35 8.05-1.85 14.6-6.2l-13.9-4.75q-9.9-3.3-14.65-3.3-4.15 0-6.25.7-.85.25-1.95.95l-.2-.35-.15.55" fill="#5e52e1"/><path d="M188.15 67.2q-1.65-6.95-6.6-14.45-6.05-9.1-13.35-13.65-2.25-1.4-7.35-2.8-5.05-1.5-6.75-2.55L147.45 29l-4.35-3.25-7.55 2.9q-4.9 1.85-11.3 1.15-6.4-.7-20.55-4.15L80.1 19.4l-.15 1-.05 3.65q0 20.6 19.4 39.8l.7-.55q2.1 1.55 6.75 3 5.75 1.75 9.85 1.75l7.45-.55 5.8-.85q.45-2.65 1.65-6.55.8-2.85 1.45-4.4l.1.15q0 10.55 3.75 22.05l.95 2.75q2.25 6.2 5.55 12.65l-12.8-1.6q-12.3.95-15.35 2.95l-24.95 9.5-53.75 3.05-5.85 2.85q-4 2-5.95 3.2l-3.25-2.15q-5.75-4.45-12.45-19.05Q0 72.55 0 52.05 0 27.3 25.35 13.5 50.15 0 93.65 0q30.5 0 43.4 2.6 14.2 2.95 34.8 14 6.65 3.6 14.05 12.75 7.85 9.75 7.85 15.8 0 4.8-3.7 16.45l-1.9 5.6m-152.7 50.15 1.2-.55 3.6-1.5 50.25-7.95 30.7-12.55q1.9-1.8 18.1 0l5.35 1.05.8 1.55q-8.65-2.25-23.4-1.8l-24.4 11.75-49.1 11.25H47l-10.15-1-1.4-.25" fill="#331f64"/><path d="M24.65 113.25q1.95-1.2 5.95-3.2l5.85-2.85 53.75-3.05 24.95-9.5q3.05-2 15.35-2.95l12.8 1.6 1.35 2.55-5.35-1.05q-16.2-1.8-18.1 0l-30.7 12.55-50.25 7.95-3.6 1.5-1.2.55q-6.05-1.25-10.8-4.1" fill="#ffa58d"/></g><g id="t"><path d="m126.6 17.2 1.95-2.95 2.8 19.2-2.25 3.15 2.6.9-1.9 14-2.95 2.25 2.25 2.6-1.45 10.5-2.55 2.35 1.9 2.25-4.55 13.15-3.65 1.35 1.6 2.05-12.65 12.15-5.35 1.4 3.3 2.05q-5.7 5.4-6.3 21.15-12.25 1.6-24.75 9.35l.55-3.5v-.1q10.05-6.8 20.15-7.2l.95-7.45.5-1.35q2.65-7.65 5.95-11.3l-3.15-2.15 6.15-1.95 12.9-11.4-1.55-.95-1.5-1 3.95-2 3.15-9.9 1.2-3.55h-2.8l3.45-3.75.05.05.1-.1v-.1l1.65-10.3-1.25.35-3.85 1.05 5.75-7.4.3-2.65.85-8.45-4.45 3 4.2-9-1.4-12.85v-.85l.1-2.1M56.9 42.7l.6-.9 6.1-7.35 4.5-7.35.9-1.45-.2 3.8-3.15 5.35v7.55l-1.7-5.45-3.3 5.9-.35.7-6.9 5.2-.9-.85v-2.3l1.95 1.05.5-.8 1.95-3.1M47 95.15l4-9.85 11.4-9.9 1-.9.9-.8 2.4-2.35 5.1-5L74.15 64l1.6-1.55 2.1-2 .65-.65 1.95-3.3v.65h.1l-.1-.65v-.05l1.85-3.05.75-.9.65 1.6.75 2.9.1.35.4 2.8.1.55v.95q.05 3.15-.7 6.45l-.25.75-.7 2.2-.2.55q-1 2.75-2.6 5.55l-3.25 2.7L66.7 88.5l-.5.55-.85 1-2.8 3.3-4.95 8-12 11.3-.35-2.1v-.7l.65-8.45.95-5.25.15-1m13.8-1.2.9-1.45 9-9.55 7.95-6.65.6-.9q1.65-2.65 2.55-6.2 1-3.85 1.2-8.6v-3.8L72.95 69.2 53.4 85.45l-.7 1.2q-2.8 4.8-4 8.8l-1.6 14.4.8-.7 7.35-6.75 5.55-8.45" fill="#924103" fill-rule="evenodd"/><path d="m122.7 73.85-3.15 9.9-3.95 2 1.5 1-17.35 7.15.75-2.55-.05-4.05-.3-2 2.6-2-.85-6.35q8.95-22.9 17.8-41l-8.95 26.4-4.4 13.05-1.35 3.9-1.9 5.4 19.6-10.85M96.8 114.5l-.5 1.35-.95 7.45q-10.1.4-20.15 7.2.65-4.05 6.55-15.3l11.65-11.3 1.4-1.15 2.1-2.65-9.6 17.35 9.5-2.95M60.65 42.8l3.3-5.9 1.7 5.45 1.05 3.25-1.3 6.05h-2.7l-.8-6.8-.25-2.5-.75.6-.25-.15m-11.1 25.15.5 5.85L48 79.75l-1.85 2V71.2l3.4-3.25m-11.2 25.1-6.6 4.9-.05-3.05 5.1-2.55.85-.2.7.9m-10.6-3.35v4.7l-5.85 10.2v-8.3l5-8.1.85 1.5M81.8 69.2Q71.7 80.4 61.05 89.4l-.25 4.55-5.55 8.45-7.35 6.75 8.1-21L72.65 71.9 83 60.6q-.2 4.75-1.2 8.6" fill="#e18e00" fill-rule="evenodd"/><path d="M126.5 20.15 127.9 33l-4.2 9 4.45-3-.85 8.45-16.55 14.9 8.95-26.4 4.4-12.7 2.25-3.95.15.85m-1.4 36.3 1.25-.35-1.65 10.3-.15.15q-9.8 6.4-19.55 12.75l1.35-3.9 18.75-18.95m-8 30.3 1.55.95-12.9 11.4-6.15 1.95 3.15 2.15q-3.3 3.65-5.95 11.3l-9.5 2.95 9.6-17.35q1.65-2.55 2.85-6.2l17.35-7.15m-51.45-44.4V34.8l3.15-5.35-.5 8.65-1.6 7.5-1.05-3.25M48 79.75l-.45 1.35-.1.35q-1.85 5.7-4.6 8.15l-.4.35-.25.15-3.85 2.95-.7-.9 3.15-3.8 2.25-1.95.45-.45 2.65-4.2 1.85-2M81.8 69.2q-.9 3.55-2.55 6.2l-.6.9-7.95 6.65-9 9.55-.9 1.45.25-4.55q10.65-9 20.75-20.2" fill="#fdff15" fill-rule="evenodd"/><path d="m127.3 47.45-.3 2.65-5.75 7.4 3.85-1.05-18.75 18.95 4.4-13.05 16.55-14.9m-2.75 19.1-3.45 3.75h2.8l-1.2 3.55-19.6 10.85 1.9-5.4q9.75-6.35 19.55-12.75M45.05 39l2.4-16.55 1.5 4.9-1.4 16.15-2.8-2.55.3-1.95m-9.1 51.4q-2.1 1.25-4.2 1.65l-9.75-16-11.35-27.7 2.7 1.75q9.7 20.55 22.6 40.3m8.65-16.45-3.45-3.9 7.8-7.85.6 5.75-3.4 3.25v10.55l-2.65 4.2 1.6-11.45-.5-.55m-4.5-5.1L39 67.7l21.35-24.15.55-.6.3 2.85L52 57.95q1.6 6.65.55 12.9l-.2 1.1-.3 1.35-.05.15-1.7 7.3-3.2 6.95-2.75 2.25 4.2-8 2.2-7.15-1.2-14-9.45 8.05m-8.35 29.1-1.05.8-2.1-7.65 2.3 1.9q3.95.4 9.9-4.65l-3.15 3.8-.15-.15-.7.35-5.1 2.55.05 3.05M21.9 96.3v-2.6l2.45-9.8 2.55 4.3-5 8.1m19.4-3.45-4.75 4.5-3.1 1.7-4.1 2.3.85-1.55 10.9-7.15.2.2M87.2 49.2l1.35.35q1.05.4 1.2 1.6l-.15.15-5.15 5.7-.75-2.9q.7-1.35 1.7-2.75l1.8-2.15m3.1 6.15.55.3q1.2.65 1.2 1.5l-.05.45-.3.6-2.8 1.3q-2.9 1.35-3.85 2.15v-.95l-.1-.55q.65-1.05 2.9-2.9 1.1-.9 2.45-1.9m-6.9 15.7 5.8-4.9q1.55 3.65 3.15 8.55l-11.1 12.45 1.95 3.25 11.2-8.8 1.75 6.55L85.2 95.7q-.15 6-3.55 10.9-4.2 5.95-8.4 8.45-7.35 14.15-9.65 24.25v.1l-.1.35-4.05 5.4v-7.45q.75-5.4 3.5-11.6 1.7-3.95 4.25-8.1 5.6-6.95 10.8-10.55 1.4-3 1.85-9.55-1.15-7.4-6.9-8.55l4.4-9.5 3.25-2.7q1.6-2.8 2.6-5.55l.2-.55M81.75 45.9l.1-.3q1.35-1.7 2.4-1.9l.2 2.8.1.65.2.55-1.6 4.6-.2-.1-.65 1.2-1.85 3.05v-1q.85-8.3 1.3-9.55m-6.4 12.2L76.8 52q.65-2.6 1.9-4.45l-.85 12.9-2.1 2-.35-3.55v-.1l-.05-.7M47.9 109.15l-.8.7 1.6-14.4q1.2-4 4-8.8l.7-1.2L72.95 69.2 83 56.8v3.8L72.65 71.9 56 88.15l-8.1 21M29.15 97.6l.5 1.1-11.55 21.55v-8l5.5-3.25 5.55-11.4M13.4 132.4q-.5 3.4-2.25 4.1l-.7-.8q1.35-.9 1.6-3.15l1.35-.15" fill="#fff" fill-rule="evenodd"/><path d="M20.55 91.15v-.05L15.5 72.9l6.75 12.3-1.7 5.95M25 57.85l6.95 4.55 9.65 10.25 3 1.3-2.3 10.75-3.1 3.2Q26.25 75.2 25 57.85m75.2 6.4 1.8 1.1 9.95-17 4.8-8.45L101 75.7l.85 7.1-1.9.9-.1-.65q-.2-3.15-1.65-8l-1.85-4.7 3.85-6.1" fill="#00a26e" fill-rule="evenodd"/><path d="M13.35 50.1 25 57.85Q26.25 75.2 39.2 87.9l-3.25 2.5q-12.9-19.75-22.6-40.3m2.15 22.8-.5-1.65 3.75 3.1.05.05 4.45 7.6-1 3.2-6.75-12.3m101.25-33-4.8 8.45-9.95 17-1.8-1.1 7.75-12.4 14-24.65q-1.55 5.6-5.2 12.7" fill="#00ffc8" fill-rule="evenodd"/><path d="m126.6 17.2-.1 2.1h-.15l-2.25 3.95-4.4 12.7q-8.85 18.1-17.8 41l.85 6.35-2.6 2-.2-1.6 1.9-.9-.85-7.1 15.75-35.8q3.65-7.1 5.2-12.7l-14 24.65-7.75 12.4-3.85 6.1-2.05-4.2q4.1-5.1 7.45-10.65l1.4-2.4 2.05-3.85 21.4-32.05M20.55 91.1q-5.6-12.4-7.1-20.6l1.55.75.5 1.65 5.05 18.2" fill="#027952" fill-rule="evenodd"/><path d="m48.95 27.35 6 18.45-.5.8-1.95-1.05v2.3l-4.95-4.35 1.4-16.15m-4.6 62.6 2.75-2.25 3.2-6.95 1.7-7.3.05-.15.3-1.35.2-1.1 9.2-11.2.65 15.75L51 85.3l-4 9.85-6.75 1.3H40q-6.15 6.3-10.2 13.1 1.25 2.35 4.2 3l-10.95 7.65 10.4-21.15 3.1-1.7 4.75-4.5 3.05-2.9M65.3 52.4l-1.2 9.1.2 12.2-.9.8V59.95l-.85-6.35 2.75-1.2m4.2 82.55-5.7 4.45h-.2v-.1q2.3-10.1 9.65-24.25 4.2-2.5 8.4-8.45 3.4-4.9 3.55-10.9l10.95-7.55.15.4-.3 4.8-5.05 8.35q-10.2 10.1-15.1 17.55l-.45.5q-5.4 10.05-5.9 15.2M92.35 74.7l2.05 6.9-11.2 8.8-1.95-3.25 11.1-12.45" fill="#b37fb7" fill-rule="evenodd"/><path d="m33.45 99.05-10.4 21.15-4.95 3.45v-2.55l11.25-19.75 4.1-2.3m28.3-39.4-9.2 11.2q1.05-6.25-.55-12.9l9.2-12.15.55 13.85m27.45 6.5.55-.5.55-.1h.1q1.3 0 2.6 2 3.15 4.9 5.8 22.5 0 2.45-1.45 5.4l-3.2 6.05-12.65 12.8-3.7 6.6-3.65 10.45-4.65 3.6q.5-5.15 5.9-15.2l.45-.5q4.9-7.45 15.1-17.55L96 93.35l.3-4.8V88l-.15.15-1.75-6.55-2.05-6.9q-1.6-4.9-3.15-8.55m-16.25 23.2-6.75-.3.5-.55 10.65-8.65-4.4 9.5" fill="#825f85" fill-rule="evenodd"/><path d="M75.2 130.5v.1l-.55 3.5q-8.1 5-16.25 12.6-1.15-7.45 1.7-17.5l.75-1.5.8-1.4q1.95-5.75 5.95-11.5l9.7-9.45q3.85-10.1-3.5-15.05l-.45-.25h-8l.85-1 6.75.3q5.75 1.15 6.9 8.55-.45 6.55-1.85 9.55-5.2 3.6-10.8 10.55-2.55 4.15-4.25 8.1-2.75 6.2-3.5 11.6v7.45l4.05-5.4.3-.35 5.7-4.45 4.65-3.6 3.65-10.45 3.7-6.6 12.65-12.8 3.2-6.05q1.45-2.95 1.45-5.4-2.65-17.6-5.8-22.5-1.3-2-2.6-2h-.1l-.55.1-.55.5-5.8 4.9.7-2.2.25-.75 4-5.15 3.35-4.75.3-.6.05-.45q0-.85-1.2-1.5l-.55-.3-1.35-.35.45-1.75.35-1.75v-.35q-.15-1.2-1.2-1.6l-1.35-.35-1.4-.5-1.05-1-.2-.55-.1-.65-.2-2.8q-1.05.2-2.4 1.9l-.1.3-1.7 2-.3-.75-.35-.55-.7.95Q77.45 49.4 76.8 52l-1.45 6.1-.25-2.35.1-.45-.1-.3-.05-1.25q2.1-6.2 3.95-9.25.4.1.5 1.05l.2.05 2.15-2.6q1.7-1.9 3.1-1.9.95 0 .85 3.1-.05 3 1.65 3 1.15 0 2.45.85 1.4 1 1.4 2.1 0 1.85-1.25 4.25l1.05-.1q.9.1 1.55 1 .75 1.15.75 2.75l-.9.9-1.05.7.2.2-.5.75-.15.25.3-.05 3 5.35 2.05 4.2 1.85 4.7q1.45 4.85 1.65 8l.1.65.2 1.6.3 2 .05 4.05-.75 2.55q-1.2 3.65-2.85 6.2l-2.1 2.65-1.4 1.15-11.65 11.3q-5.9 11.25-6.55 15.3M43.05 37.45l1.9-20.6 5.15 5.25 6.75 20.5.05.1-1.95 3.1-6-18.45-1.5-4.9L45.05 39l-2-1.55m9.5 12.35.85-1.1 6.9-5.2.05.05L39 67.7l-1-1.1 7.8-8.75 6.75-8.05m-29.5 70.4L34 112.55q-2.95-.65-4.2-3 4.05-6.8 10.2-13.1l.1.1.15-.1 6.75-1.3-.15 1-7.35 1.35-6.75 9.25L30.9 110l.65.3 3.45 1.4.7.25-17.85 13.25-.8-13.8 6.05-3.5 5.4-11.6.65 1.3L23.6 109l-5.5 3.25v8L29.65 98.7l.55 1.1-.85 1.55L18.1 121.1v2.55l4.95-3.45" fill="#664b69" fill-rule="evenodd"/><path d="m22.95 42.8 5.2 4.9L37 56.1l-4-13.75 12.8 15.5L38 66.6l-6.55-7.3-4-3.2-.95-1.3-3.55-12m67.3-17.5 2.8 4.75 8.7 25.45q-3.35 5.55-7.45 10.65l-3-5.35-.15-.2.5-.75-.2-.2 1.05-.7.9-.9q0-1.6-.75-2.75-.65-.9-1.55-1l-1.05.1q1.25-2.4 1.25-4.25 0-1.1-1.4-2.1-1.3-.85-2.45-.85-1.7 0-1.65-3 .1-3.1-.85-3.1-1.4 0-3.1 1.9l-2.15 2.6-.2-.05q-.1-.95-.5-1.05-1.85 3.05-3.95 9.25L75.1 55l.1.3-.1.45.25 2.35.05.7v.1l.35 3.55-1.6 1.55-.55-3q-.45-2.55-.45-4.85l.55-15.45q.25-4.3 2.25-16.55l.65 2.35 1.05 9.35q1 .4 3.3-11.6V15.1l3.8 6.9q2.4 9 2.2 14.05 4.15-2.6 3.3-10.75m-24.9 64.75h8l.45.25q7.35 4.95 3.5 15.05l-9.7 9.45q-4 5.75-5.95 11.5l-6.9 1.35L35 134.3q-8.5 5.15-10.05 8.3l-1.4.8q-.8-5.35-4.1-11.95 12.45-8.25 25.65-21.6l.15.7.35 2.1 12-11.3 4.95-8 2.8-3.3M62.7 98.1l-.3.35v11.25q11.9-4 8.6-18.25-4.6 2.1-8.3 6.65" fill="#331f64" fill-rule="evenodd"/><path d="m28.15 47.7 4.65 2.9-7.75-13.85-2.3-9.05q15.9 21.2 26.55 22.75L45.4 43l7.15 6.8-6.75 8.05L33 42.35l4 13.75-8.85-8.4M84.75 22l1.7 2.95 1.05-4.35 2.75 4.7q.85 8.15-3.3 10.75.2-5.05-2.2-14.05M66.7 71.35l-.1-1.2q2.85-5.55 5.2-15.9v12.1l-5.1 5m9.25-47.2-2.85-10.1v-8.8l7.85 9.85v9.15q-2.3 12-3.3 11.6L76.6 26.5l-.65-2.35M62.7 98.1q3.7-4.55 8.3-6.65 3.3 14.25-8.6 18.25V98.45l.3-.35m-17.6 11.75q-13.2 13.35-25.65 21.6 3.3 6.6 4.1 11.95l-5.25-.85q.85-.45 1.45-1.75l.25-.85-2.75-8.85q5.85-2.5 12.75-11.55l3.7-3.25 10-12.9-8.7 8.3 7.15-12.95-2.25.75-8.35 10.8-.65-.3 1.85-3.25 6.75-9.25 7.35-1.35-.95 5.25-.65 8.45h-.15M13 137.55q.6 3.1 2.8 4.45l-5.05-1.7-1.65-4.95 2.95 3.7.95-1.5" fill="#5e52e1" fill-rule="evenodd"/><path d="M23.15 53.1 18.9 37.45l-4.35-9.35 7.2 3.85q-2.65-6.8-3.7-14.75l25 20.25 2 1.55-.3 1.95 2.8 2.55 4.95 4.35.9.85-.85 1.1L45.4 43 39 36.9 21.55 23.2l1.2 4.5 2.3 9.05-4.7-2.8 2.6 8.85 3.55 12-1.45-.75-1.9-.95m44.95-26q2.3-5.2 0-18.35l3.35 2.35L69 0l3.8.9q8.8 8.3 13.65 18.4l.7-1.55 11.9 16.1 6.15 15.4-2.05 3.85-4.6-13.55-5.5-9.5-2.8-4.75-2.75-4.7-1.05 4.35-1.7-2.95-3.8-6.9-7.85-9.85v8.8l2.85 10.1q-2 12.25-2.25 16.55l-.55 15.45q0 2.3.45 4.85l.55 3-2.35 2.35V52.9l2.35-26.2-2.45-11.35q.05 15.35-2 24.9L66.05 60.8l.55 9.35.1 1.2-2.4 2.35-.2-12.2 1.2-9.1.1-.75 1.3-6.05 1.6-7.5.5-8.65.2-3.8-.9 1.45" fill="#271949" fill-rule="evenodd"/><path d="m22.95 42.8-2.6-8.85 4.7 2.8L32.8 50.6l-4.65-2.9-5.2-4.9m-.2-15.1-1.2-4.5L39 36.9l6.4 6.1 3.9 7.45Q38.65 48.9 22.75 27.7M66.6 70.15l-.55-9.35 3.65-20.55q2.05-9.55 2-24.9l2.45 11.35-2.35 26.2v1.35q-2.35 10.35-5.2 15.9M31.55 110.3l8.35-10.8 2.25-.75L35 111.7l8.7-8.3-10 12.9-3.7 3.25q-6.9 9.05-12.75 11.55l2.75 8.85-.25.85q-.6 1.3-1.45 1.75l-2.5-.55q-2.2-1.35-2.8-4.45 2.3-2.3 3.2-5.6l-9.4-.6q-.7.5-.15 1l2.45 3 1.65 4.95-1.85-.9-1.4-.95-4.35-5.6 13.9-21.45 4.1-6.25.6.85 6.35-10.55.4.85-5.4 11.6-6.05 3.5.8 13.8 17.85-13.25-.7-.25-3.45-1.4" fill="#8aaeff" fill-rule="evenodd"/><path d="m89.75 51.5-.35 1.75-.45 1.75 1.35.35q-1.35 1-2.45 1.9-2.25 1.85-2.9 2.9l-.4-2.8-.1-.35 5.15-5.7.15.2m1.95 6.7-3.35 4.75-4 5.15q.75-3.3.7-6.45.95-.8 3.85-2.15l2.8-1.3m-6.95-10.5 1.05 1 1.4.5-1.8 2.15q-1 1.4-1.7 2.75l-.65-1.6.1-.2 1.6-4.6m-6.05-.15.7-.95.35.55.3.75 1.7-2q-.45 1.25-1.3 9.55v1.05l-1.95 3.3-.65.65.85-12.9" fill="#78779b" fill-rule="evenodd"/><path d="m15 71.25 2.9 1.35L6.1 44.25l17.05 8.85 1.9.95q1.2.95 2.4 2.05l4 3.2L38 66.6l1 1.1 1.1 1.15 1.05 1.2 3.45 3.9-3-1.3-9.65-10.25L25 57.85 13.35 50.1l-2.7-1.75L22 76.05l9.75 16q2.1-.4 4.2-1.65l3.25-2.5 3.1-3.2 2.3-10.75.5.55-1.6 11.45q-.3.15-.45.45l-2.25 1.95Q34.85 93.4 30.9 93l-2.3-1.9V91l-.85-1.3-.85-1.5-2.55-4.3-1.1-1.9-4.45-7.6-.05-.05-3.75-3.1" fill="#067854" fill-rule="evenodd"/><path d="M20.15 102.9q-1.2-4.8.4-10.95v-.8l1.7-5.95 1-3.2 1.1 1.9-2.45 9.8v10.9l5.85-10.2v-4.7l.85 1.3v.1l2.1 7.65 1.05-.8 6.6-4.9 3.85-2.95h.1l.15-.15.4-.35q2.75-2.45 4.6-8.15l.1-.35.45-1.35 2.05-5.95-.5-5.85-.6-5.75-7.8 7.85-1.05-1.2 9.45-8.05 1.2 14-2.2 7.15-4.2 8-3.25 2.7-10.9 7.15-.55-1.1-.5-1.1-.65-1.3-.4-.85L21.75 106l-.6-.85-.6-.8-.4-1.45" fill="#914104" fill-rule="evenodd"/><path d="m11.15 136.5.8.75q2.1-1.9 3.5-5.1l-2.05.25-1.35.15L6.8 132l3.65 3.7.7.8m-2.05-1.15-2.45-3q-.55-.5.15-1l9.4.6q-.9 3.3-3.2 5.6l-.95 1.5-2.95-3.7" fill="#261948" fill-rule="evenodd"/><path d="M60.1 129.2 39 136l-17.85 9.9-11-2.5-1.2-.85Q2.7 137.7 0 132.35l20.15-29.45.4 1.45.6.8-4.1 6.25-13.9 21.45 4.35 5.6 1.4.95 1.85.9 5.05 1.7 2.5.55 5.25.85 1.4-.8 12.15-7.3 23.75-7.6-.75 1.5" fill="#3f3b73" fill-rule="evenodd"/><path d="m93.05 30.05 5.5 9.5 4.6 13.55-1.4 2.4-8.7-25.45" fill="#fda38c" fill-rule="evenodd"/><path d="m62.4 75.4-.65-15.75-.55-13.85.7-.95.8 6.8h2.7l-.1.75-2.75 1.2.85 6.35V74.5l-1 .9" fill="#654a69" fill-rule="evenodd"/><path d="m13.4 132.4 2.05-.25q-1.4 3.2-3.5 5.1l-.8-.75q1.75-.7 2.25-4.1m-2.95 3.3L6.8 132l5.25.55q-.25 2.25-1.6 3.15" fill="#e17075" fill-rule="evenodd"/><path d="m61.65 126.3-.8 1.4-23.75 7.6-12.15 7.3q1.55-3.15 10.05-8.3l19.75-6.65 6.9-1.35" fill="#ffa58d" fill-rule="evenodd"/><path d="m11.15 136.5.8.75q2.1-1.9 3.5-5.1l-2.05.25q-.5 3.4-2.25 4.1l-.7-.8L6.8 132l5.25.55 1.35-.15m-1.35.15q-.25 2.25-1.6 3.15" fill="none" stroke="red" stroke-linecap="round" stroke-linejoin="round" stroke-width=".1"/><path d="m51.65 107.05.4-.35 1.35.75.8.3.25.05 1.55.3q1.35 0 3.25-1.55t1.75-3l-.35-1.85-.45-1.05q-.6-1.25-1.3-1.75l.4-.7 1.7 1.95.5.8q.5 1.05.5 2.45 0 2.15-1.8 3.8-1.65 1.55-3.8 1.55l-2.3-.15-.65-.2q-.95-.35-1.8-1.35m1.6-1.4 3.05-2.7h.05l1.5-2.45.35.35q-.35.3-.35 1.05 0 1.05.9 1.05h.2q.15 1.4-.65 2.55-.9 1.35-2.6 1.35l-.2-.1.2-.55q0-.5-.9-.5l-.05.1-.5.25-.3-.15-.7-.2v-.05" fill="#4d1551" fill-rule="evenodd"/><path d="m52.05 106.7 1.2-1.05v.05l.7.2.3.15-.3.55.3.5q.2.2.4.2l-.2.5-.25-.05-.8-.3-1.35-.75m5.8-6.2 1.05-1.6q.7.5 1.3 1.75l.45 1.05-1 .05q-.05-1.1-1-1.1-.2 0-.35.15l-.1.05-.35-.35" fill="#87268f" fill-rule="evenodd"/><path d="m50.75 107.8-.3-.5-.05-.1 5.3-5 5.65-8.95.5-.75.55.55.05.05-.35.6-.05.05-2.75 4.45-.4.7-1.05 1.6-1.5 2.45h-.05l-3.05 2.7-1.2 1.05-.4.35-.65.55-.25.2" fill="#964810" fill-rule="evenodd"/><path d="m50.75 107.8.25-.2q.5.7 2.45 1.4l.65.2 3.85.5q2.55 0 4.75-2.75 2.1-2.8 1.9-5.6l-.15-1.05v-.1q-.3-2.15-1-3.9-.9-2.35-1.2-2.45l-.15-.15.35-.6q.95.95 1.7 2.25 1.5 2.6 1.5 5.3 0 3.45-2.35 6.45-2.5 3.25-4.85 3.25l-3.8-.4-2-.75q-.6-.25-1.9-1.4" fill="#261948" fill-rule="evenodd"/><path d="m51 107.6.65-.55q.85 1 1.8 1.35l.65.2v.6l-.65-.2q-1.95-.7-2.45-1.4m8.3-9.4 2.75-4.45.2.1q.3.1 1.2 2.45.7 1.75 1 3.9h-1.4q-.5 0-1.55.75l-.5-.8-1.7-1.95" fill="#e1ace4" fill-rule="evenodd"/><path d="M64.45 100.2v.1l.15 1.05q.2 2.8-1.9 5.6-2.2 2.75-4.75 2.75l-3.85-.5v-.6l2.3.15q2.15 0 3.8-1.55 1.8-1.65 1.8-3.8 0-1.4-.5-2.45 1.05-.75 1.55-.75h1.4m-6.25.65.1-.05q.15-.15.35-.15.95 0 1 1.1v.15q0 .95-.7 1.05h-.2q-.9 0-.9-1.05 0-.75.35-1.05m-3.95 5.2.5-.25.05-.1q.9 0 .9.5l-.2.55-.15.15-.7.4q-.2 0-.4-.2l-.3-.5.3-.55" fill="#fff" fill-rule="evenodd"/><path d="m59.65 101.75 1-.05.35 1.85q.15 1.45-1.75 3T56 108.1l-1.55-.3.2-.5.7-.4.15-.15.2.1q1.7 0 2.6-1.35.8-1.15.65-2.55.7-.1.7-1.05v-.15" fill="#e83cf5" fill-rule="evenodd"/></g><g id="u" fill-rule="evenodd"><path d="M67.75 263.25H66.4q1.15-5.2 2-7.45.9-2.4 2-3.8l1.4-1.3h.7q1.2 1.15 1.9 3.25l-4 5.3q-1.95 2.6-2.65 4M43.9 258.1q.65-3.8 2.25-6.55l2.4-3.35.7-1 .35 1.2.15.7v.2l-5.85 8.8m7.3 3.3-3.4.15q-.3-3.85 1.95-7.3l4.1-4.8.9.45q.6.55.95 1.8l.25.8q-1.15.75-3.2 5.3l-.2.6-1.35 3" fill="#fff"/><path d="m74.4 253.95.5 1.7.85 5.6-2.85.95-4.75 1.05h-.4q.7-1.4 2.65-4l4-5.3m-24.7-2.05q-.75.7-.35 1.2l-.25.5-1.75 3.3q-1.05 1.5-3.5 1.55l.05-.35 5.85-8.8v1.05l-.05 1.55m6.85 3.9q.5 2.8.6 5.1l-5.7.5h-.25l1.35-3q.8-.7 4-2.6" fill="#825f85"/><path d="m55.95 252.5.55 2.85.05.45q-3.2 1.9-4 2.6l.2-.6q2.05-4.55 3.2-5.3" fill="#b37fb7"/><path d="m75.85 253.1.05.3q1.05 2.75 2.05 6.9l.55 2.65-1.55.5-1.35.5-3.9 1.4-3.75.7-1.8-.7-1-.65q-.2-.4-.55-.4.35-2.75.9-4.5l.05-.15.1-.4 1.65-3.9q1.35-2.95 2.9-4.35l1.25-1 .3-.1q1.85 0 3 1.45l.15.15.95 1.6M58.7 263.95l-6.65.35-7.3.35-1.6-.15v-1.4l.7-.7.25-.9q0-.95-1.6-.95l-1.9.1q.7-4.3 2.55-8.25.7-1.55 1.55-2.85 1.95-3.2 4.5-5.15l.4-.3q.3-.25.7-.4l-.4 1-.15.25q-.65 1.4-1.2 3.25l-2.4 3.35q-1.6 2.75-2.25 6.55l-.2.35h.15q2.45-.05 3.5-1.55l1.75-3.3.25-.5q-.4-.5.35-1.2l1.6-1.45.5-.45.05-.05 2.1-1.6 1.3 1.4 1.3 2.15.65 1.65.35 1.65.7 4.95.45 3.8m15.7-10q-.7-2.1-1.9-3.25h-.7l-1.4 1.3q-1.1 1.4-2 3.8-.85 2.25-2 7.45h1.75l4.75-1.05 2.85-.95-.85-5.6-.5-1.7m-18.45-1.45-.25-.8q-.35-1.25-.95-1.8l-.9-.45-4.1 4.8q-2.25 3.45-1.95 7.3l3.4-.15h.25l5.7-.5q-.1-2.3-.6-5.1l-.05-.45-.55-2.85" fill="#664b69"/><path d="M90.3 231.2q.15 12.3-4.05 17.4-3.8 4.65-7.6 4.65l-2.8-.15-.95-1.6q3.1-.55 4.45-1.25 2.3-1.35 2.3-4 0-1.15-1.1-2.15-1.05-.95-2.2-.95-1.1 0-2.1.55l-1.05.9q-1.35.2-3.85 2.05l-1.9 1.4q-4.85 3.85-8.6 4l-4.3-.15-1.3-2.15q7.55-.55 7.55-5.05l-.25-2.25q-.45-.7-1.7-.7l-2.15.25 14.6-8.8 11.1-1.25 5.9-.75m-39.35 11.1 2.6.25 2.6-.1q-2.25.55-4.1 2.3l-1.2 1.4-.1.15q-.8-.3-1-1.35l.15-.25.4-1 .2-.5.25-.55.2-.35" fill="#5e52e1"/><path d="M70.9 233.3h.65l1.75-.1-14.6 8.8 2.15-.25q1.25 0 1.7.7l.25 2.25q0 4.5-7.55 5.05l-1.3-1.4-2.1 1.6-.05.05-.35-.45-.3-.7q0-2.4 2.4-3.95l3.7-2.55h.1v-.05h-.85l-.35.15-2.6.1-2.6-.25q.9-1.7 2.9-1.5 2.1.2 5.1-.85 3.4-.75 11.95-6.65m.85 16.6.65-.25-.15-.75q0-2.8 2.6-3.75l.75-.2h1.2l-.95-.25-.65-.1 1.05-.9q1-.55 2.1-.55 1.15 0 2.2.95 1.1 1 1.1 2.15 0 2.65-2.3 4-1.35.7-4.45 1.25l-.15-.15q-1.15-1.45-3-1.45" fill="#8aaeff"/><path d="m95.15 230.75-1.75 7.45q-1.35 5.8-1.45 8.15-.15 2.4-1.55 4.65l-4.6 7.2-.25.05-1 .5q-2.6 1.05-6.6 1.55-1-4.15-2.05-6.9l-.05-.3 2.8.15q3.8 0 7.6-4.65 4.2-5.1 4.05-17.4l4.85-.45m-23.8 15.9-.5 1.35q-.5 1.65-.65 3-1.55 1.4-2.9 4.35l-1.65 3.9-.1.4-.05.15-3.6.2-3.65.15-.7-4.95-.35-1.65-.65-1.65 4.3.15q3.75-.15 8.6-4l1.9-1.4m-22.8 1.55q.55-1.85 1.2-3.25.2 1.05 1 1.35l-1.15 2.1-.35-1.2-.7 1" fill="#331f64"/><path d="M85.8 258.2q3.15-1.85 4.8-3.9l2.95-4.05q1.25-2 1-4.3-.25-2.2 1.6-9 .2-4.9.7-6.35h.05l1.9-.05q-.4 4.15-.7 12.15-.25 6.25-2.5 9.55-1.65 2.35-3.55 4.1l-3.65 3.5q-.75.8-3.8 2-3.3 1.25-5.1 1.25l-1-.15-.55-2.65q4-.5 6.6-1.55.7-.1 1.25-.55m-21.2 6.1-5.7-.35h-.2l-.45-3.8 3.65-.15 3.6-.2q-.55 1.75-.9 4.5m-19.9-14.75q.6-1.85 3-6.65 2.25-4 3.6-4.55 1.45-.7 5.6-.85l3.8-.6q2.25-.85 7.05-3.6h3.15q-8.55 5.9-11.95 6.65-3 1.05-5.1.85-2-.2-2.9 1.5l-.2.35-.25.55-.2.5q-.4.15-.7.4l-.4.3q-2.55 1.95-4.5 5.15m12.55-7.25v.05l-3.7 2.55q-2.4 1.55-2.4 3.95l.3.7.35.45-.5.45-1.6 1.45.05-1.55v-1.25l-.15-.7 1.15-2.1.1-.15 1.2-1.4q1.85-1.75 4.1-2.3l.35-.15h.75M70.2 251q.15-1.35.65-3l.5-1.35q2.5-1.85 3.85-2.05l.65.1.95.25h-1.2l-.75.2q-2.6.95-2.6 3.75l.15.75-.65.25-.3.1-1.25 1" fill="#261948"/><path d="m85.8 258.2 4.6-7.2q1.4-2.25 1.55-4.65.1-2.35 1.45-8.15l1.75-7.45 1.7-.15q-.5 1.45-.7 6.35-1.85 6.8-1.6 9 .25 2.3-1 4.3l-2.95 4.05q-1.65 2.05-4.8 3.9" fill="#ffa58d"/><path d="M33.35 113.7q7.6 22.85 1.8 33.15-6.55 9.8-15.2 0L9.1 122.5q2.6-1.7 5.8-3.35 9.35-4.7 18.45-5.45" fill="#8aaeff"/><path d="m22.95 153.75-3-6.9q8.65 9.8 15.2 0 5.8-10.3-1.8-33.15l3.45-.15 10 .35q4.8 11.75 5.5 23.55-.95 16.25-12.95 18.3-11.45 1.8-16.4-2M61 179.35q-3.6-3.4-8.6-6.8 5.65-6.7 12.4-.95l-3.8 7.75" fill="#5e52e1"/><path d="M22.95 153.75q4.95 3.8 16.4 2 12-2.05 12.95-18.3-.7-11.8-5.5-23.55l10.4 1.4q7.85 1.75 19 6.1v10.45q1.6 23.8 14.3 37.65.15 17 3.1 26.45l-.7-1.5q-9.25-18.9-24.3-30.55l-3.8 7.7q-6.75-5.75-12.4.95-10.8-7.45-27.95-15.4l-1.5-3.4M96.15 213l-2.25-1.75-.2-.15 1.4-10.8 2.1 4.85-1.05 7.85" fill="#331f64"/><path d="m76.2 121.4 2.5 1 .55 15.9q5.15 18.15 14.35 28.1-1.3 17.45 1.15 27.3l5.35 14.35-1.4 6.75-2.55-1.8 1.05-7.85-2.1-4.85-1.55-3.6.05-.75q-2.95-9.45-3.1-26.45-12.7-13.85-14.3-37.65V121.4" fill="#ffa58d"/><path d="m19.95 146.85 3 6.9 1.5 3.4q17.15 7.95 27.95 15.4 5 3.4 8.6 6.8l-1.4 2.95-.3-.15-37.65-24.75L6.6 124.15q1.2-.9 2.5-1.65l10.85 24.35M78.7 122.4l2 .85v2.65l.25 2.25q3.8 27.45 15.75 36.6v23.2l6.2 20.65-2.05 7.6-2.15-1.4 1.4-6.75-5.35-14.35q-2.45-9.85-1.15-27.3-9.2-9.95-14.35-28.1l-.55-15.9" fill="#261948"/><path d="m72.75 200.5-2.75-.7-6.7-1.55-1.8-9.9 7.1-24.45 15.95 19.4 8.15 11.3.85 2.1-.2 2.35-9.25-11.1-13.55-16.45-1.7 4.55 3.9 24.45" fill="#fff"/><path d="M84.1 204.3q-3.9-1.75-11.35-3.8l-3.9-24.45 1.7-4.55 13.55 16.45v16.35" fill="#825f85"/><path d="M92.2 209.8q-3.95-3.3-6.2-4.6l-1.9-.9v-16.35l9.25 11.1-1.15 10.75" fill="#b37fb7"/><path d="m59.6 182.3 1.4-2.95 3.8-7.75 3.8-7.7q15.05 11.65 24.3 30.55l-.2.15-8.15-11.3-15.95-19.4-7.1 24.45 1.8 9.9-3.1-.7-1.9-10.8.8-3.55.5-.9m34.1 28.8-1.5-1.3 1.15-10.75.2-2.35 1.55 3.6-1.4 10.8M75.4 23.3l-.15.15-1.4 1.9.1-.2-.1-.1-4.9 2-.55.05-.5.35-11.4 4.6v6.85l.75-.35q-2.15 2-2.7 2l-1-.3.7-.35V23.85L31.35 35.8l-.5.15-.5.45-9.05 4.75-3.05-.9L29.3 34.4l.55-.1q.05-.3.45-.45L54.9 21l.75-.1q.35.1.65.35l.2.7v7.6l10.55-4.2.6-.05q.15-.25.45-.35l5.7-2.35q.35-.15.75 0l.6.45.25.25m-32.55 96.95 2.1-2.6q-.05 9.2 1.4 16.1.8 3.7 2.05 6.75l18.45-22.3q1.9-8.65 2.8-19.2l.65-10.5.05-.85L68.45 75h-.15l-.55.25-.85.2q-1.95.65-3.65 1.55-5.35 2.9-8.3 8.95L56.8 92v.5l-.15.4-10.7 16.3-.65.45.3.7-.35-.65-.5-1-.35-1.25v-.05l10.05-15.25-1.8-6q-.15-.4.05-.85 3.4-7 9.5-10.25 2.25-1.25 5-1.95.35-.15.6 0 .25-.25.6-.3 4.1-1 9.25-.65-2.75-3.1-8.1-5.6l-1.4-.1-.35-.05-.35.05h-4.7q-7.75.3-12.7 2.4-5.35 2.25-7.55 6.6l-.35.3-.5.05-1.2-.35-3.9-1.05q.1-.75.35-1.4l4 1.15.6.15q2.5-4.6 8.3-6.9 5.15-2.05 12.9-2.35l2.35-.05 2.5.05.25.15q.15-.15.35-.15l1.65.1.25.05q6.6 3.1 9.5 6.95 1.4-.85 2.9-1.6l11.3-6.25v-.9l-.15-3.95q0-.3.15-.5L75.7 51.1l-1.35-.6-1.1-.05.1-.15.95-1.25.05.05h.3l.1.1h.1L96 58.4l6.6.9 2.6-2.2 5.05-4.2 2.85-2.4-.1-3.5-27.35-5.4-1.75-.35-.4-.3-.15-.55.35-.45.5-.1 29.25 5.75.15-.15q.25-.15.55-.15h3.5l.85-1.75 3.5-7.45-2.3-1.8-4-3.25-.1-.1-24.1 3.25h-.15l-.4-.15-.3-.4q-.05-.35.15-.55.15-.25.5-.3l.65-.05 23.55-3.2.6-.5 7.25-2.1q.9-4.6 2.65-9 2-4.95 5.1-9.7l-2.15 1.05q1.55-1.6 3.6-2.5l3.3-1.25-.9 1.15q-3.75 5-6.1 10.35-2.4 5.35-3.45 11.05l-.3.55-.5.35-5.75 1.6 5.25 4.3.45.65-.05.7-5.1 10.7-.4.45-.65.15h-3v1.2l.2-.05q.5 0 .85.35l.25.75-.25.85-1.35 1.2-.15.05-.05.1-11.2 9.35-.4.25h-.5l-5.4-.7-1.4-.2.05 2.35.35.05q.5.05.8.4l.1.85v.1l-.45.7-1.3.75h-.05q-.1 0-.15.1l-15.2 8.4-.6.15q-4.65-.5-8.5.1l1.45 8.55 8.8-7.05v46.05l-7.05 13.75-15.05 15.95-1.3-.85q-3.1-8.25-3.3-16.05l-6.7 8.65q-4.1-10.4-5-23.4m31.9-80.5.8-.75-.8.75M34.35 59.6l-.05.1-.15-.2.2.1m42.9 23.05-5.7 3.7q1.2 15.5-2.8 30.55l-.7 2.35q-5.7 6.05-12.35 14.3 1.15 9.6 2.75 14.55l.65 1.75 11.3-13.35q4.5-5.75 7.35-14.7l.4-1.25q-.35-5-.35-10.65-.05-12.8 1.45-28.6l-2 1.35" fill="#664b69"/><path d="m34.3 59.7-4.75 8.4-.05.25-.15.15-2.75 4.85 2-15.95 5.55 2.1.15.2" fill="#2e8f00"/><path d="M25 71.4q-1.25-5.2-1.95-14.55l.25-.2 3.95 1.05L25 71.4m4.15-18.3.2-.05.3.2.15.2 1.95 2.75-2.8-1.25.2-1.85" fill="#52ff00"/><path d="M44.95 117.65 47.2 115l.15-.35-.05-.45-1.7-3.85-.3-.7.65-.45 10.7-16.3q7.65 3.25 6.45 15.95l-.05.65q-6.35 14.5-16.7 24.25-1.45-6.9-1.4-16.1m49.3-91.2 34.7-17.15 2.15-1.05Q128 13 126 17.95l-32.45 10.4.7-1.9m-19.1 2.25.7-1.65.45-.1 30.95-12.3-10.9 6.9-21.2 7.15m16.2 5.5h.15l24.1-3.25.1.1 4 3.25-29.65 3.4 1.3-3.5m-5.7 7.4L113 47l.1 3.5-2.85 2.4-26.85-7.3 2.25-4m-9.95 9.5 18.05 7.85q-.15.2-.15.5l.15 3.95-24.9-7.35 6.85-4.95M49.8 67.4q-5.8 2.3-8.3 6.9l-.6-.15 1.7-5.9 6.95-2.4.25 1.55M20.7 55.95 28.85 48q.3.2.7.2l.35.15-.4 3.5-.2.05-7.05 4.25-.15.15-1.4-.35m5.9 17.4-.7 1.2-.9-3.15 2.25-13.7-3.95-1.05 5.85-3.55-.2 1.85 2.8 1.25 2.4 3.3-5.55-2.1-2 15.95m12.3 7.55h3.55l7.85-6.05Q46.15 92.4 40 95.6l-2.6-9.25 1.5-5.45M30 103.6l-6.75-9.7Q21 88 19.45 74.5l4.3 6.65.2.6.9 2 .2.3h.4l.25-.2.55-1v1.75l3.75 19m28.45 44.5q-1.6-4.95-2.75-14.55 6.65-8.25 12.35-14.3l.7-2.35 1.45-3.25 3.45 7.15q-4.1 17.3-15.2 27.3" fill="#fff"/><path d="m107.25 14.65 27-10.75-1.15 1.5-.35.5L82.7 30.6l-.1-.25 13.75-8.8 10.9-6.9M79.5 32.45v.5l.05.15-9.15 9-.05.05-2.9 2.8q-.15.15-.15.35-.2 0-.35.15L63.8 48.7l-.15.05-.2.5.2.5.25.2-.5.35q-1.4.9-1.55.85-.3-.15-.5 0L40 59.6h-.1l.15-.25.05-.25-.05-.3-9-10.65q6.75.45 15.05-2.35l3.15 4.2L79.5 32.45m-40.65 26.5.2.2-9.4 16.1-.1.2-.2.25-3.1 5.25v-5L30.2 69l.1-.3.1-.1 4.85-8.65-.9-.35-.2-.1 1.1-.15h.1l3.5-.4m-12.6 23.9 3.95-6.7.1-.2.2-.2 8.9-15.25-4.2 12.7v.45l-.2.25-4.15 12.55-.1.35.15.25 9 13.5-.05-.1 6.05 13.95-4.5 5.45-10.65-15.15-.25-.25-.15-.3-.35-.55-3.75-19v-1.75M19.1 71.2l-.65-6.85-.2-.4L2.7 51.1 17.9 43q4.35 3.5 9.85 4.65l-7.9 7.7-.1.35q-.1 6.55.7 12.25L19.1 71.2" fill="#e18e00"/><path d="M73.85 25.35q-.6 3.95-6.1 7.8l-.35.4q-.3 0-.5.25l-4.7 2.6-4.95 2.15-.75.35v-6.85l11.4-4.6.5-.35.55-.05 4.9-2 .1.1-.1.2m-20.3 14.9q-13 6.45-22.7 5.55l-.7.2-.65-.35q-3.65-.55-6.75-2.15l31.5-9.7v6.1l-.7.35M41.1 99.8l-8.85-13.2 4.05-12.25.25.05 3.9 1.05-1.55 5.45-1.5 5.45L40 95.6l1.15 4.1-.05.1M36.9 73h-.15l4-12.2 21.1-8.3 1.9-1.65.9-.85h.4l2.4.15.35-.05.35.05 5.1.3 1.1.05 1.35.6-6.85 4.95q-8.75 5.8-19.3 9.8l-6.95 2.4-1.7 5.9-4-1.15M71 44l-.35-.5.25-.2.5-.25 1.95-1.9h8.75l.5-.2 1.05-1.05.05.05-.35.45.15.55.4.3-4.15 6.1 25.45 9.75-2.6 2.2-6.6-.9-21.15-9.2h-.1l-.1-.1h-.3l-.05-.05L71 44m14.55-13.15 8.7-4.4-.7 1.9-1.6 4.4-.65.05q-.35.05-.5.3-.2.2-.15.55l.3.4.4.15-1.3 3.5q-.25.45-.35.85l28.8 5-.85 1.75h-3.5q-.3 0-.55.15l-.15.15-29.25-5.75-.2-.25 5.6-5.6.2-.45-.1-.45q-.15-.25-.45-.3l-4.4-1 .7-.95m-3.1 39.7q-1.5.75-2.9 1.6-2.9-3.85-9.5-6.95l-.25-.05-1.65-.1q-.2 0-.35.15l-.25-.15-2.5-.05 4.3-1.25.15-.1q4.9-1.25 12.95 6.9M56.65 92.9l.15-.4V92l-1.85-6.05q2.95-6.05 8.3-8.95 1.7-.9 3.65-1.55.3 12.75 1.85 20-7.35-5.2-12.1-2.55m12.1 24q4-15.05 2.8-30.55l5.7-3.7q-2.05 11.65-1.3 21.9l-.7-2-5.05 11.1-1.45 3.25" fill="#825f85"/><path d="m22.75 43.5-2.65-1.7 1.2-.65 9.05-4.75.5-.45.5-.15 22.9-11.95v9.95l-31.5 9.7m21.65 63.95-2.95-6.75-.3-1L40 95.6q6.15-3.2 10.3-20.75l-7.85 6.05H38.9l1.55-5.45 1.2.35.5-.05.35-.3q2.2-4.35 7.55-6.6 4.95-2.1 12.7-2.4h4.7l.35-.05.35.05 1.4.1q5.35 2.5 8.1 5.6-5.15-.35-9.25.65-.35.05-.6.3-.25-.15-.6 0-2.75.7-5 1.95-6.1 3.25-9.5 10.25-.2.45-.05.85l1.8 6L44.4 107.4v.05m81.6-89.5q-1.75 4.4-2.65 9l-7.25 2.1-.6.5-23.55 3.2 1.6-4.4L126 17.95m-6.3 16.35 2.3 1.8-3.5 7.45-28.8-5q.1-.4.35-.85l29.65-3.4m-35.8 6.95 1.75.35-2.25 4 26.85 7.3-5.05 4.2-25.45-9.75 4.15-6.1m9.85 22.15v.9l-11.3 6.25q-8.05-8.15-12.95-6.9l-.15.1-4.3 1.25-2.35.05q-7.75.3-12.9 2.35l-.25-1.55q10.55-4 19.3-9.8l24.9 7.35M69.65 99q-.9 10.55-2.8 19.2L48.4 140.5q-1.25-3.05-2.05-6.75Q56.7 124 63.05 109.5l.05-.65q1.2-12.7-6.45-15.95 4.75-2.65 12.1 2.55l.9 3.55m8.15 10.9q0 5.65.35 10.65l-.4 1.25q-2.85 8.95-7.35 14.7l-11.3 13.35-.65-1.75q11.1-10 15.2-27.3l-3.45-7.15 5.05-11.1.7 2 1.85 5.35" fill="#b37fb7"/><path d="M79.85 32.05q-.3.05-.35.35v.05L49.25 50l-3.15-4.2q4.55-1.55 9.6-4.15l.3-.15q3.95-1.55 7.2-3.1l4.9-2.7.4-.5.5-.2q4.45-3.1 6.15-6.3l21.2-7.15-13.75 8.8-2.75 1.7M29.9 48.35l8.95 10.6-3.5.4h-.1l-4.7-6.45-.25-.15-.1-.25-.3-.45-.25-.2h-.15l.4-3.5m-3.65 32.6-.9 1.55q-3.15-7.15-4.15-16.45-.55-4.8-.5-10.1l1.4.35-.05.05-.05.3q.9 11.6 2.5 17l.95 2.25.25.25h.55v4.8m-6.8-6.45-.35-3.3 1.35-3.25q.9 7.25 3.3 13.2l-4.3-6.65" fill="#fdff15"/><path d="M65.85 48.7h-.05l1.05-1.15 5.1-.2.85 1.7-4.55-.3-.45.1-.25-.1h-.15l-1.55-.05m18-15.6 3.85.85-5.9 5.8h-3l5.05-6.65" fill="#00a26e"/><path d="m66.85 47.55 1.1-1.1.2-.3.3-.2q.55-1.7 1.6-1.05.8.5 1.9 2.45l-5.1.2m8.7-8.55 6.4-6.35.75.2 1.15.25-5.05 6.65h-4.05l.8-.75" fill="#00ffc8"/><path d="m75.4 23.3.5.7.15.2.25.4L137.6.1q.35-.15.8 0l.55.45.2.7-.25.7-3.05 3.6-3.3 1.25q-2.05.9-3.6 2.5l-34.7 17.15-8.7 4.4-1.65.75.45.15q-.85.4-1.65 1.1l-.75-.2-6.4 6.35-.8.75q-.6.65-.9 1.4h-.5l-1.95 1.9-.5.25-.5-.25-.05-.05.3.5.35.5-.95.9q-1.05-.65-1.6 1.05l-.3.2-.2.3-1.1 1.1-1.05 1.15h.05q-.45.5-.8 1.3h-.4l-.9.85-1.9 1.65-21.1 8.3-4 12.2h.15q-.25.65-.35 1.4l-.25-.05-4.05 12.25 8.85 13.2v.05l.35.85 2.95 6.75.35 1.25.5 1 .35.65 1.7 3.85.05.45-.15.35-2.25 2.65-2.1 2.6-1 1.2-.35.2h-.4l-.35-.25-11.1-15.9-.15-.3-.3-.25L22 94.5l-.1-.1q-2.3-6.15-3.95-20.5l-.8-9.1-15.75-13H.8l-.7-.6-.05-.8q.15-.5.55-.75l16.8-9 .15-.05h.05q.3-.2.65-.35l3.05.9-1.2.65 2.65 1.7q3.1 1.6 6.75 2.15l.65.35.7-.2q9.7.9 22.7-5.55l1 .3q.55 0 2.7-2l4.95-2.15 4.7-2.6q.2-.25.5-.25l.35-.4q5.5-3.85 6.1-7.8l1.4-1.9.15-.15m7.3 7.3 50.05-24.7.35-.5 1.15-1.5-27 10.75-30.95 12.3-.45.1-.7 1.65Q73.45 31.9 69 35l-.5.2-.4.5-4.9 2.7q-3.25 1.55-7.2 3.1l-.3.15q-5.05 2.6-9.6 4.15-8.3 2.8-15.05 2.35l9 10.65.05.3-.05.25-.15.25h.1l21.35-8.45q.2-.15.5 0 .15.05 1.55-.85l.5-.35-.25-.2-.2-.5.2-.5.15-.05 3.15-3.25q.15-.15.35-.15 0-.2.15-.35l2.9-2.8.05-.05 9.15-9-.05-.15v-.55q.05-.3.35-.35l1.55-.75.05-.05h.05l1.2-.65M29.9 48.35l-.05-.15h-.3q-.4 0-.7-.2l-8.15 7.95q-.05 5.3.5 10.1 1 9.3 4.15 16.45l.9-1.55 3.1-5.25.2-.25.1-.2 9.4-16.1-.2-.2-8.95-10.6m.1 55.25.35.55.15.3.25.25 10.65 15.15 4.5-5.45-6.05-13.95.05.1-9-13.5-.15-.25.1-.35L35 73.9l.2-.25v-.45l4.2-12.7-8.9 15.25-.2.2-.1.2-3.95 6.7-.55 1-.25.2h-.4l-.2-.3-.9-2-.2-.6q-2.4-5.95-3.3-13.2-.8-5.7-.7-12.25l.1-.35 7.9-7.7Q22.25 46.5 17.9 43L2.7 51.1l15.55 12.85.2.4.65 6.85.35 3.3Q21 88 23.25 93.9l6.75 9.7" fill="#924103"/><path d="M65.05 50q.35-.8.8-1.3l1.55.05h.15l.25.1.45-.1 4.55.3-.85-1.7q-1.1-1.95-1.9-2.45L71 44l3.3 5.05-.95 1.25-.1.15-5.1-.3-.35-.05-.35.05-2.4-.15m8.8-8.85q.3-.75.9-1.4h7.05l5.9-5.8-3.85-.85-1.15-.25q.8-.7 1.65-1.1l.5.05 4.4 1q.3.05.45.3l.1.45-.2.45-5.6 5.6-.35.3-1.05 1.05-.5.2h-8.25M29.5 51.85h.15l.25.2.3.45.1.25.25.15 4.7 6.45-1.1.15-2.4-3.3-1.95-2.75-.15-.2-.3-.2-.2.05-5.85 3.55-.25.2q.7 9.35 1.95 14.55l.9 3.15.7-1.2 2.75-4.85.15-.15.05-.25 4.75-8.4.05-.1.9.35-4.85 8.65-.1.1-.1.3-3.95 6.95-.2.2h-.35l-.25-.25-.95-2.25q-1.6-5.4-2.5-17l.05-.3.05-.05.15-.15 7.05-4.25.2-.05" fill="#246c00"/><path d="m66.9 75.45.85-.2.55-.25h.15l1.9 12.65-.05.85-.65 10.5-.9-3.55q-1.55-7.25-1.85-20m10.35 7.2 2-1.35q-1.5 15.8-1.45 28.6l-1.85-5.35q-.75-10.25 1.3-21.9" fill="#ffa58d"/><path d="M62.25 185.2q4.3.35 8.4 1.85l.4 2.65 1.75 11.95-.3.2-.4-.05.3.2-5.55 5.15-.95.85Q62 189.3 62 187.9l.25-2.7m12.3 24.95-.35-.6q-1.05-1.9-2.25-2.55-1.2.3-2.45 1.55-2.05 2.45-3 3.1v-2.45l2.35-2.95q2.7-3.35 3.55-3.35.5 0 1.75.95l.25.25.35 2.85-.2 3.2m-1.05 5.3q-1.05-1.85-3.1-3.2l-.25-.2-.35-.2-.3.05q-2.3.6-4.55 2.95.85-1.25 3.7-3.7 3.05-2.6 3.5-2.6.75 0 2.15 3.25l.1.2q-.4 1.1-.9 3.45m-6.6.15q-.35.45-1.25 3.55l-.7 2.75-.1.05q1.35.25 2 1l.4 1 .15.35.2 1.75-.4 1.35-.35.4-.95.85-1.55 1.05v.1q-.05 4.25 1.3 6.15l-1 .7q-1.7-2.1-1.9-3.7-.3-1.65-.05-5.65.1-4 2-8.15.95-2.05 2.2-3.55m1.15 5.6.75-1.4.05-.1q.85.45.85 1.15 0 .75-.75.75l-.7-.25-.2-.15m-1 17.35-5.65 2.2-.05-5.05q1.2 1.55 2.4 2l1.05.25 2.25-1.55v2.15" fill="#fff"/><path d="M66.9 215.6q1.35-1.7 3.1-2.9.7.55 1.35 1.95l1.05 2.05q-2.25 1.1-3.55 3l-.05.1-.75 1.4-.3.85-.5 1.9-.4-1q-.65-.75-2-1l.1-.05.7-2.75q.9-3.1 1.25-3.55m1.05 18.6-2.3 1.75q-1.35-1.9-1.3-6.15v-.1l1.55-1.05.95-.85v.8q.2 3 1.1 5.6" fill="#00ffc8"/><path d="m67.25 223.95.5-1.9.3-.85.2.15.7.25q.75 0 .75-.75 0-.7-.85-1.15 1.3-1.9 3.55-3l.25.4q.85 1.15.85 5.2 0 5-2.3 8.4l-3.25 3.5q-.9-2.6-1.1-5.6v-.8l.35-.4.4-1.35-.2-1.75-.15-.35" fill="#039f7d"/><path d="m58.9 230.55-.15-1.2q0-5.15 3-10.2l.8-1.35q1.2-1.75 2.4-2.95 2.25-2.35 4.55-2.95l.3-.05.35.2.25.2q2.05 1.35 3.1 3.2l.15.35.2.5q.5 1.25.7 3.4v.65l.1 2.45q0 4.1-1.65 7.45l-2 3.3-.25.25h-.05l-3.65 2.6-2.25 1.55-1.05-.25q-1.2-.45-2.4-2l-.3-.35-.35-.5q-1.55-2.35-1.8-4.3m13.5-13.85-1.05-2.05q-.65-1.4-1.35-1.95-1.75 1.2-3.1 2.9-1.25 1.5-2.2 3.55-1.9 4.15-2 8.15-.25 4 .05 5.65.2 1.6 1.9 3.7l1-.7 2.3-1.75 3.25-3.5q2.3-3.4 2.3-8.4 0-4.05-.85-5.2l-.25-.4" fill="#027952"/><path d="M94.45 236.05q-.25.1-.55.25-3.45 1.85-8.6 2.55l-2.5.2q0-4.15 2.4-8.65 2.15-4.15 5.55-7.65 1.9 3.65 3 4.9 2.8 2.85 2.8 3.9l-1.1 2.65-1 1.85M71 233.55l2-3.3q1.65-3.35 1.65-7.45l-.1-2.45v-.65l.35-1.15q.35-1.2 1.3-1.7 1.25 3.85 1.25 5.7 0 8.2-4.1 12.2l-.6.65-.6.35q-.55-.05-.9-.65-.4-.55-.5-1.2l.25-.35" fill="#e18e00"/><path d="M74.4 204.1q1.8 1.35 4.8 4.45 5.3 5.2 7.3 8-3.5 2.2-6.45 9.2Q77 232.8 77 238.15l.1 1.25-9.9.65-.1-.2q.1-.1.15-.1 6.1-2.45 8.8-6.6 2.65-4.1 2.65-10.9 0-2.1-.6-4.55-.7-2.5-1.8-4.25l-1.45-2.8-.3-.5.2-3.2-.35-2.85m-.9 11.35q.5-2.35.9-3.45l.95 2.45.85 2.4q-.95.5-1.3 1.7l-.35 1.15q-.2-2.15-.7-3.4l-.2-.5-.15-.35m-1.35 20.3q-1.85 1.4-5.1 2.8v-2.15l3.65-2.6.05.1q.1.65.5 1.2.35.6.9.65" fill="#fdff15"/><path d="M86.5 216.55v.1l.25.25 3.4 5.05.6.8q-3.4 3.5-5.55 7.65-2.4 4.5-2.4 8.65l-5.7.35-.1-1.25q0-5.35 3.05-12.4 2.95-7 6.45-9.2" fill="#a85803"/><path d="m97.4 206.45.2.2 2.35 2.1q-2 5.3-2.7 9.15-.4 2.1-.95 8.3l-.95-.8q2.05-15.3 2.05-18.7v-.25m-6.65 16.3q1.4 1.8 3 2.95 1.4.9 3.15 3.6l2.05 2.5q-1.55 2.55-4.5 4.25l1-1.85 1.1-2.65q0-1.05-2.8-3.9-1.1-1.25-3-4.9" fill="#ffa58d"/><path d="M99.05 228.25v.1l.05-.05 4.45 3.6q-3.1 3.8-5.3 5.1l-4.9 1.75-5.5 1.3-5.05.85-2.45-.3-3.75.3-9.15-.3h-1.9v-.05l-.5.2-1.45.55-3.1 1.05q-2.2-3.1-2.2-7.45v-2.05l.6-2.3q.25 1.95 1.8 4.3l.35.5.3.35.05 5.05 5.65-2.2q3.25-1.4 5.1-2.8l.6-.35.6-.65q4.1-4 4.1-12.2 0-1.85-1.25-5.7l-.85-2.4-.95-2.45-.1-.2q-1.4-3.25-2.15-3.25-.45 0-3.5 2.6-2.85 2.45-3.7 3.7-1.2 1.2-2.4 2.95l-.8 1.35 1-5.8.3-1.55.2-1.2 2.65-2.6.95-.85L72.4 202l.1-.15.3.1q1.75.5 4.35 2.85l4.8 4.75 2.05 2 3.55 4.1 3.75 4.8.2.35.5.7.2.35.3.45.25.45.25.2 2.35 2.45.95.8.4.25 2.35 1.8M74.4 204.1l-.25-.25q-1.25-.95-1.75-.95-.85 0-3.55 3.35l-2.35 2.95v2.45q.95-.65 3-3.1 1.25-1.25 2.45-1.55 1.2.65 2.25 2.55l.35.6.3.5 1.45 2.8q1.1 1.75 1.8 4.25.6 2.45.6 4.55 0 6.8-2.65 10.9-2.7 4.15-8.8 6.6-.05 0-.15.1l-.25.1-.15.1h.5l9.9-.65 5.7-.35 2.5-.2q5.15-.7 8.6-2.55.3-.15.55-.25 2.95-1.7 4.5-4.25l-2.05-2.5q-1.75-2.7-3.15-3.6-1.6-1.15-3-2.95l-.6-.8-3.4-5.05-.25-.25v-.1q-2-2.8-7.3-8-3-3.1-4.8-4.45m24.65 24.25-.1.3h.15l-.05-.3" fill="#924103"/><path d="m70.65 187.05.75.25q5.35 2.1 11.1 6.5l1.35.95v5.65q0 7.3.15 11.15l-2.05-2-4.8-4.75q-2.6-2.35-4.35-2.85v-.3l-1.75-11.95-.4-2.65" fill="#825f85"/><path d="m93 201.95 1.9 1.9q-.35 10.75-2.7 18l-.2-.35-.5-.7-.2-.35 1.05-9 .65-9.5m-29.75 8.65.15-1.35-.45-1.9q-4.35-19.6-4.35-20.65l.15-1.65h.7l2.8.15-.25 2.7q0 1.4 3.9 20.1l-2.65 2.6" fill="#664b69"/><path d="M83.85 194.75q7.25 5.5 8.35 6.5l.8.7-.65 9.5-1.05 9-3.75-4.8-3.55-4.1q-.15-3.85-.15-11.15v-5.65" fill="#b37fb7"/><path d="m94.9 203.85 2.5 2.6v.25q0 3.4-2.05 18.7L93 222.95l-.25-.2-.25-.45-.3-.45q2.35-7.25 2.7-18" fill="#331f64"/><path d="m99.95 208.75 2.5 2.05q-1.6 6.3-2.35 10.35l-1.05 7.1-2.35-1.8-.4-.25q.55-6.2.95-8.3.7-3.85 2.7-9.15" fill="#261948"/></g><g id="v" fill-rule="evenodd"><path d="M64.1 132.35 224.9 1.65l.1-.1 1.5-1.3q.35-.35.9-.25.5.05.8.4.35.35.25.9l-.4.8-1.15.95-9.1 51.2-.3.55-9.65 11.2 4.75 2.15q.4.15.6.65v.9l-18.55 44.45-.35.4-6.2 5.3 3.95 3 .45.65-.1.75-20.25 43.9-.4.5-78.6 54.2v15.1l-.15.55-.3.4-12.55 9.6-.5.2h-.55l-9.5-2.55.05.1 3.4 4.5.2.85-.4.75L52.6 269.8l-.6.25-.6-.05-45.55-18q-.5-.2-.65-.65-.2-.5-.05-.9.2-.5.7-.65l.85-.05 10.95 4.35 17.1 6.75q8.4 3.3 16.85 6.7l13.15-11.35 5.7-4.9-.1-.15-2.6-3.5q-.35-.45-.25-.85.05-.5.5-.8.05-.1.2-.1l.05-.1-.35-.2-.05-.05-.15-.25q-.3-.45-.15-.9.1-.5.55-.7l.95-.15 10.1 2.7 5.3-4.1 6.3-4.75v-12.9l-.55.35-.9.25q-.5-.1-.8-.5-.3-.45-.15-.95 0-.45.45-.75l2.45-1.7.2-.05 78.65-54.3 8.45-18.35 10.6-22.9.65-1.45-4.3-3.35-.4-.55v-.2l-.1.05-76.05 50.8h1.9l.5.2.2.35v.05l-.15.5-.05-.5-3.65.5v.3h-5l-23.1 15.6-4.3 2.95-.5.05-.35 2.6q-.15-.7-.15-2.5v-.1l.5-1.6.3-.7-.1.7 27.05-18.3.35-.1h4.05l6.05-4.05 72.6-48.5q.2-.2.5-.15l.4.3 6.55-5.55 12.5-30 5.5-13.1-5.15-2.3-.5-.5-.1-.35h-.1l-79.45 52.45-1.6-2.05q.15-.15.3-.2.2-.15.5-.15l.45.2.3.45v.05l79.45-52.35q.2-.25.5-.15l.35.2 10.05-11.65.4-2.35 2.45-13.75 5.7-32L69.6 130.95l-5.4 4.45.7 3.7q-1.15-1.25-1.15-3.3 0-1.5.35-3.45m4.8 21.15q.2 0 .4.15l.45.4.25.5-.4-.35-.7-.7m4.7 47.95v.45l-.2-.3.2-.15m-20.3 6-.25-.1.1-.15.15.25m-.8 2.25-.05.4-.45-.5.5.1m-25.85-54.8-.1.8-.2-.65.3-.15" fill="#664b69"/><path d="m218.4 37.4-2.45 13.75-89.7 61.15-29.15 13.75L218.4 37.4m-13.35 45.55-12.5 30-6.55 5.55-.4-.3q-.3-.05-.5.15l-72.6 48.5-16.55 3.95-15.6 6.95v-3.35l124.7-91.45m-26.5 65.55-8.45 18.35-78.65 54.3-.2.05-2.45 1.7q-.45.3-.45.75-.15.5.15.95.3.4.8.5l-16.2-6.7 2-6.1 103.45-63.8M64.75 256.2 51.6 267.55q-8.45-3.4-16.85-6.7 5.65-5.55 11.45-11.1l18.55 6.45" fill="#b37fb7"/><path d="m64.9 139.1-.7-3.7 5.4-4.45 3.6 12.5 23.9-17.4 29.15-13.75 89.7-61.15-.4 2.35-10.05 11.65-.35-.2q-.3-.1-.5.15l-79.45 52.35v-.05l-.3-.45-.45-.2q-.3 0-.5.15-.15.05-.3.2l-56 34.7-1.15.75v-5.35l-1.6-8.1m47.6 27.75-6.05 4.05h-4.05l-.35.1L75 189.3l.1-.7 2.65-20.4v-.35l.35-.15 2.25-1.55v11.6l15.6-6.95 16.55-3.95m-1.1 5.15.15-.5v-.05l-.2-.35-.5-.2h-1.9L185 120.1l.1.15.4.55 4.3 3.35-.65 1.45-81.9 52.15 4.15-5.75m-26.95 70.15-5.3 4.1-10.1-2.7-.95.15q-.45.2-.55.7-.15.45.15.9h-.05l-10.9-10.9-.7-1.1-9.8-16.45L52 209.6l.45.5 15.3 19.05.15.05.3.3.25.2 16 12.45m-14.1 9 .1.15-5.7 4.9-18.55-6.45q-5.8 5.55-11.45 11.1l-17.1-6.75-7.4-11.25L28.95 218 22 233.45l2.9.05-.8 1.2q-.2.3-.05.65l.35.5.65.1.45-.35 2.6-4.15 6.3-2.45-1.8 2.25q-.25.2-.2.65l.35.55.65.15.55-.3 3.6-4.55 17.15 7.75-3.45 6.4 19.1 9.25m3.3-48.1 5.35-3-3.9 12.25-2 6.1-3.2 10.1 3.3-25.35.4-.1h.05" fill="#825f85"/><path d="M69.6 130.95 224.1 5.4l-5.7 32-121.3 88.65-23.9 17.4-3.6-12.5m55.65-11.8L204.7 66.7l.2.35.5.5 5.15 2.3-5.5 13.1-124.7 91.45v-8.25l36.65-25.9.35-.45 7.2-20.25.7-.4m63.9 6.45-10.6 22.9L75.1 212.3l3.9-12.25 20.4-11.55.2-.2 7.65-10.55 81.9-52.15m-98.4 100.1v11.7l-6.3 4.75-16-12.45.1-.15.9-.2.45-.85 3.2-10.1 16.2 6.7 1.45.6m-22.9 19.85.05.05.3.3q-.15 0-.2.1-.45.3-.5.8-.1.4.25.85l2.6 3.5-19.1-9.25 3.45-6.4 1.05-2.05 1 .95 10.9 10.9.2.25m-57.6-2.7L6.6 237.4l29.1-34.6-6.75 15.2-18.7 24.85M28.8 78.8l.5-16.45 8.5 7.8-2 19.3 5.9-8.85.25.15q.35.35.85.35t.85-.35l2.45-2.45 4.45 5.2-7.75 16.65-7-10.7-7-10.65m26.5 36.7.8.45q.5.1.9-.2l1.35-.9 1.55 8.55L49 138.95l-2.45-14.35 8.65-9.25.1.15m12.75 40.45 7.05 11.55-15 8.3-3.3-11.3 11.25-8.55M39 111.75 41.35 124l-4.75 24.5 12.1 20.7-3.15 16.65 2.3 20.05-5.3 11.1.8-9.9 1.85-2.95.15-.65-.5-2.1-1.6-19 2.3-11.25-.85-1.45-5.9-10.2-7.25-14.9L39 111.75M26.55 155.7l.1-.8 3.85 5.3-1.2 6.3 3.05-3.9 1.3 1.9-2.35 7.35 5.1-3.7 1.4 1.8q-4.15 2.8-8.2 5.55l6.75 8.6-.35 1.8-1.05-1.1-8.95-9.7.55-19.4" fill="#fff"/><path d="m50.55 83.5 3.3 4-2.05 6.1q-.15.35 0 .8l.5.55.15.15-8.65 13.55 2.75 15.95L49 138.95l10.9-15.55.85 4.6-3.2 4.7q-.25.35-.2.8l.45.75.75.3h3.15v.7l-10.5 9.9 5.6 19.35 3.3 11.3 15-8.3.25.4-3 22.95-13.15 7.65-1.65 7.3 10.9 15-.6 4.7-14.55-18.05-.15-.25q-.3-.2-.55-.25 1.65-15.15 3.45-30.15v-.35q-4.1-13.05-7.75-28.5-2.4-9.75-4.5-20.45l-1.6-8.1-1.2-6.3-2.4-13.65-.15-.35-9.15-12.95q-.2-.25-.55-.35h-.15v-.25l.2-6.75 7 10.65 7 10.7 7.75-16.65M38.4 199.2V189q0-.5-.3-.75l-.75-.85 3.5-15.6v-.35l-.15-.35-13.35-18q-.2-.3-.55-.35h-.1l.15-6.7 15.6 24.55-3.2 12.6v.4l4.4 19.9-18.75 30-2.9-.05L28.95 218l9.45-12.7v-6.1" fill="#e18e00"/><path d="m37.8 70.15 3.8 3.55v6.2l.15.55-.05.15-5.9 8.85 2-19.3M52.45 95.1l.55.05.7-.25 3.05-2.55 4 5.4v12.55l-2.25 1.55-2.8 1.95q-.45.25-.5.75-.15.45.05.8h-.05l-8.65 9.25-2.75-15.95 8.65-13.55m9.25 40.15 2.4 12.2v7.25q0 .5.35.85t.85.35h2.75v.05L56.8 164.5l-5.6-19.35 10.5-9.9m10.65 55.6-3.9 29.95-10.9-15 1.65-7.3 13.15-7.65M38.4 199.9v5.4L28.95 218l6.75-15.2 2.4-2.9h.3" fill="#fdff15"/><path d="m74.45 193.5.35-2.6.5-.05 4.3-2.95v6.75l16.05-10.15 9.65-12.2h4.2l-10.95 15.1-24.95 14.05-.2.15 1.05-8.1m43.45-70.9 4.85-3.05-6.95 19.4-38.6 27.35-7.2-11.75-.25-.5-.45-.4q-.2-.15-.4-.15h-.2l-.15-.25L75 149.2l5.5 10.55L114 135.1l3.9-12.5M41.35 124q5.9 30.05 13 52.7l-3.65 31.85-10.3 12.85 2.15-4.4 5.3-11.1-2.3-20.05 3.15-16.65-12.1-20.7 4.75-24.5m3.45 94.7 9.25 14.45-15.1-7.15 5.85-7.3" fill="#00a26e"/><path d="m79.6 187.9 23.1-15.6h2.6l-9.65 12.2-16.05 10.15v-6.75m38.3-65.3-3.9 12.5-33.5 24.65L75 149.2l42.9-26.6M27 142.5l1.55-54.45L37 99.95l2 11.8-7.45 32.85 7.25 14.9 4.45 9.2-15.6-24.55q-.25-.35-.5-.35l-.25-.05.1-1.25m13.4 78.9-6 7.6-6.3 2.45 15.25-24.35-.8 9.9-2.15 4.4m4.3-51.7.85 1.45-2.3 11.25 1.6 19-4-17.95 3.35-12.8v-.35l-.1-.25.6-.35m-8.3-1.55-5.1 3.7 2.35-7.35 2.75 3.65m-4.05-5.55-3.05 3.9 1.2-6.3 1.85 2.4" fill="#00ffc8"/><path d="m123.65 117.1 1.6 2.05-.7.4-7.2 20.25-.35.45-36.65 25.9-2.25 1.55-.35.15v.35l-.55-1.9 38.6-27.35 6.95-19.4-4.85 3.05L75 149.2l-6.45 4.05-.9-1.45 56-34.7m-15.95 55.2v-.3l3.65-.5.05.5-4.15 5.75-7.65 10.55-.2.2L79 200.05l-5.35 3-.05-1.15v-.45l24.95-14.05 10.95-15.1h-1.8m-83.1-30.8 1.7-55.95h2.3v.25h.15q.35.1.55.35l9.15 12.95.15.35L41 113.1l1.2 6.3 1.6 8.1q2.1 10.7 4.5 20.45 3.65 15.45 7.75 28.5v.35q-1.8 15-3.45 30.15.25.05.55.25l-.1.15-.45 2.05-.1.3-.5-.1-5.75 7.25 9.8 16.45-.3.15-1.05 2.05-17.15-7.75-3.6 4.55-.55.3-.65-.15-.35-.55q-.05-.45.2-.65l1.8-2.25 6-7.6 10.3-12.85 3.65-31.85q-7.1-22.65-13-52.7L39 111.75l-2-11.8-8.45-11.9L27 142.5l-2.4-1m20.2 77.2-5.85 7.3 15.1 7.15-9.25-14.45" fill="#027952"/><path d="m36.35 184.1-6.75-8.6q4.05-2.75 8.2-5.55l1.35 1.85-2.8 12.3" fill="#2e8f00"/><path d="M64.1 132.35q-.35 1.95-.35 3.45 0 2.05 1.15 3.3l1.6 8.1v5.35l1.15-.75.9 1.45q-.2.1-.45.25h.8l.7.7.4.35 7.2 11.75.55 1.9-2.65 20.4-.3.7-.5 1.6v.1q0 1.8.15 2.5l-1.05 8.1.2.3.05 1.15h-.05l-.4.1-3.3 25.35-.45.85-.9.2-.35-.05-.3-.3-.15-.05-15.3-19.05.05-.4.1-.3.45-2.05.25.1 14.55 18.05.6-4.7 3.9-29.95 3-22.95-.25-.4-7.05-11.55v-.05H65.3q-.5 0-.85-.35t-.35-.85v-7.25l-2.4-12.2v-.7h-3.15l-.75-.3-.45-.75q-.05-.45.2-.8l3.2-4.7-.85-4.6-1.55-8.55-1.35.9q-.4.3-.9.2l-.8-.45-.05-.15q-.2-.35-.05-.8.05-.5.5-.75l2.8-1.95 2.25-1.55V97.75l-4-5.4-3.05 2.55-.7.25-.55-.05-.15-.15-.5-.55q-.15-.45 0-.8l2.05-6.1-3.3-4-4.45-5.2-2.45 2.45q-.35.35-.85.35t-.85-.35l-.2-.3-.15-.55v-6.2l-3.8-3.55-8.5-7.8-.5 16.45-.2 6.75h-2.3l.7-25.9q0-.5.35-.85t.85-.35q.4 0 .85.35l14.6 13.5.3.35.05.5v3.9l1.35-1.35q.2-.2.55-.3.35-.15.7 0 .3.1.5.35l9 10.7.3.55-.1.65-.85 2.6.65-.55q.3-.25.65-.3l.6.05.5.45 5.05 6.75.25.7v13.5l-.15.55-.35.45-2.2 1.5 2.7 14.7-.25.95-2.1 3.15h1.7q.5 0 .85.35l.2.25.55-.4M6.6 237.4l-4.5 5.25-.75.4-.95-.25q-.35-.35-.4-.8-.05-.55.3-.9L36 198.7v-8.35h-.15l-.55-.35q-.2-.35-.1-.65l.15-.6-.4-.45v-3.5l1.05 1.1.35-1.8 2.8-12.3-1.35-1.85-1.4-1.8-2.75-3.65-1.3-1.9-1.85-2.4-3.85-5.3-.3.15q-.75-1.75-2.05-2.95l.3-10.6 2.4 1-.1 1.25.25.05q.25 0 .5.35l15.6 24.55.85 1.35.1.25v.35l-3.35 12.8 4 17.95.5 2.1-.15.65-1.85 2.95-15.25 24.35-2.6 4.15-.45.35-.65-.1-.35-.5q-.15-.35.05-.65l.8-1.2 18.75-30-4.4-19.9v-.4l3.2-12.6-15.6-24.55-.15 6.7h.1q.35.05.55.35l13.35 18 .15.35v.35l-3.5 15.6.75.85q.3.25.3.75v10.2l-.3.7-2.4 2.9-29.1 34.6" fill="#924103"/><path d="m34.95 188.3-11-11.95q-.35-.4-.35-.85l.7-23.4q1.3 1.2 2.05 2.95l.2.65-.55 19.4 8.95 9.7v3.5" fill="#246c00"/></g><g id="w" fill-rule="evenodd"><path d="M27.6 25.45 25 35.3h-.65l-1.15-4.35 4.4-5.5m-10.5 31.2 3.65 4.7.3 7.45-7.95-2.15-.05-.5-8.9-12.1-.75-9.7q4.5 9.8 13.7 12.3m10.6 47.6 3.25 6.05.5 5.6-3.05-3.3-2.1-4.2-5.35-6.45-1.3-7.7 8.05 10m19.9 19.6 1.15-1.55 1.35-6.05 6.25-12.85-.15 4.35-3.65 4.65 8.7-3.95-7.3 13.95 17.3-7.6 6.65-7.45-3.3 10.25-8 6.1-6.25 2.7.85 1.45-.1.1-8.2 6.65-5.3-10.75M33.65 69.3l.45-.55.85-1.05q5.55 5.85 10.15 14.5l1.1 10.1q-4.35 8.2-6.75 18.85l-2.25-2.35.2-3 6.3-10.4-1.55-15.05-2.85 2.55q-4 1.4-7.55 5.6l1.9-19.2M27.8 91.75 26.55 81.6l.7-1.75.7 2.75.75 3.95 1.4 7.3-2.3-2.1m78-82.35 2.95-2 3.8 5.2 1.65-7.4 4.85-3.6q2.75 3.25 5.9 6.15l-2.1 14.4 9.1 4.3L106.8 25l-.5-.05q-.75.45-1.4.85l.9-16.4M81.9 30.95l2 1.3-.55-6.25 1.95-1.8q1.2 10.65-.65 18.35-2.85 3.15-5.45 6.75l2.7-18.35m86.85-13.1.9-.35 14.2-8.55q-.3 7.9-2.2 14.4l-7.85 14.6-5 7.6-11.15 9.85-4.75 3.3-2.25 2.25 1-9 .85-3.8 14.5-18.4q8.9-7.7 13.5-14.5l-3.35 2.05L144 37.55q-8.45 5.6-16.95 11.3L116.8 60.1l-13.1 5.2-16.15 4.3-9.9 17.5-2.6 2.55-1.65.4Q83.1 75 92.3 56.3l31.5-9.7q25.4-14.1 44.95-28.75M61.6 110.3l1.35-2.3 13.4-10.45 11.6-17.5 5.5-6.85.65-.45q8.4 3.05 28.65-1.95l-8.65 9.85q-6.1 2.35-12.85 6.1Q92.2 86.2 89.5 83q-3.7 7.05-13.6 18.15-7.6 6.25-14.3 9.15m-7.15 25.85Q71.8 123.3 76 118.3v3.95L65.2 132.6l3.65 3.3-8.25 7.8-6.15-7.55m20.25 5.15-5.7 8.2-5.2-5.3 13.6-13.4q.25.15.35.85l-6.5 7.35 3.45 2.3m5.4 1.05-1 3.1 10.15 6.2q-10-.1-17.15-3.95l5.6-8.7 2.4 3.35" fill="#e18e00"/><path d="M87.75 146.7q1.15 2.25 1.5 4.95l-10.15-6.2 1-3.1 1 1.4 3.65 2.7 3 .25m-66.7-77.9.7 17.1.65 3.05 4.95 12.35v1.7L19.9 92.65l-6.8-26 7.95 2.15m29.05 47.45q.1-.8.35-1.65l8.05-18.85 5.4-5.3 7.05-5.55 2.8-2.3-8.7 13.8-8.85 11.35.15-4.35-6.25 12.85M39.3 82.9l2.85-2.55L43.7 95.4l-6.3 10.4-.2 3-3-3.5-.35-5.85q2.05 2.5 3.8 3.8l4.5-9.7Q42 88.5 39.6 83.45l-.3-.55m85.65-75.15q8.15 7.35 18.7 12.15l-1.25 6.05-5.5 1.55v-1.3l-4.95.25-9.1-4.3 2.1-14.4M66.6 123.7l-5.4 4.15-.85-1.45 6.25-2.7m18.7-99.5 2.05-1.85.1.05 5.1 3.45q-.85 3.6.75 8.25-4.65 3.85-8.65 8.45 1.85-7.7.65-18.35m18.4 41.1q-8.5 4.5-11.95 8.45l-.4.25-7.6 10.45L76 96.95l-1.65 1.7-11.95 8.55-7.9 3.65 12.25-15.1 1.25-2.1q2.65-1.85 5.4-3.6l-2.15 3.25 3.8-3.65 2.6-2.55 9.9-17.5 16.15-4.3m-2.45 21.45-4.55 2.6-1.3.55-9.75 7.2-15.7 16.7-14.3 7.2 5.95-10.7q6.7-2.9 14.3-9.15Q85.8 90.05 89.5 83q2.7 3.2 11.75 3.75M76 122.25V129l-7.15 6.9-3.65-3.3L76 122.25m-1.3 19.05-3.45-2.3 6.5-7.35q.3 1.4.25 4.8l-3.3 4.85m-46.3-28.7-6.95-7.65-.5-3 5.35 6.45 2.1 4.2" fill="#fdff15"/><path d="M24.15 38.45V52.8q.95 11.45 4.15 21.15-2.05 3.65-3.3 8.1l1.6 13.7h-.15L23 87.25 21.7 64.9l.7-2.25-6.15-8.45 1.4-13.2 6.5-2.55m-7.55 2.6L15.4 54.5l1.7 2.15q-9.2-2.5-13.7-12.3L2.35 31.3q4.9 4.9 14.25 9.75m15.25 70.15 14.7 14.2 1.05-1.55 5.3 10.75-2.05 1.8-4.35-3.6-13.25-16.25-1.4-5.35m15.25 9.2-1.05 2.85L30.8 106.9 28 99.7l.5-.85 10.4 13.55h1.05l.55-1.45q1.7-10.35 6.55-19.35L47 85.95l22.2-30.9 7.6-1q3.85-6.45 13.4-16l.85-.65q5.3-6.1 15.9-11.75l18.25 1.6-16.15 7.05-21.5 14.15-17.15 12.8L47.25 94.6l-5.1 18 4.95 7.8M33.65 69.3l-1.9 19.2-.6.7-3.2-6.6-.7-2.75q2.15-5.4 6.4-10.55m.55 36q-2.7-3.3-5.2-7.25l-.5-.7-.7-5.6 2.3 2.1.2.9 3.55 4.7.35 5.85m58.35-79.45.7-.85.55-7.1 4.45-3.35L101.9 19l2.4-8.6 1.5-1-.9 16.4q-6.25 3.65-11.6 8.3-1.6-4.65-.75-8.25m-22 27.35 8.7-23.05.7-.65 1.95 1.45-2.7 18.35-2.75 3.9-6.6.95.7-.95M68 93.65l7.15-11.9q6.05-10.8 10.55-22.2l8.1-8.1 16.1-11.85 6.2-3.95 30.9-9 21.75-8.8Q149.2 32.5 123.8 46.6l-31.5 9.7Q83.1 75 73.4 90.05q-2.75 1.75-5.4 3.6m26.1-20.9q12.45-8.45 24.95-12.1l14.2-1.8-10.5 11.95q-20.25 5-28.65 1.95M60.6 143.7l-.45.5-7.05-6.9 1.35-1.15 6.15 7.55M35.15 99 34 97.7l2.25-5.8-.6-2-2.8 6.6-1.35-1.3 4.1-8.65.5-.5 1.65 6.1-2.6 6.85" fill="#fff"/><path d="m151.65 51.95-4.4-2.9-11-1.6-5.8.9 46.7-31.05 3.35-2.05q-4.6 6.8-13.5 14.5l-14.5 18.4-.85 3.8" fill="#a85803"/><path d="M20.75 36.35v-7.1l7.2-5.05-.35 1.25-4.4 5.5 1.15 4.35-3.6 1.05m9.7 34.3q2.05-2.75 4.65-4.9Q41.55 72 45.6 79.1l.9 1.8.4 1.15v.85l.1 3.05.05 5.65q-4.85 9-6.55 19.35l-.55 1.45H38.9L28.5 98.85l-.5.85-1.25-3.3-.1-.15-.05-.5-1.6-13.7q1.25-4.45 3.3-8.1.95-1.75 2.15-3.3M69.2 52.5l9.35-23.45 1.55-1.85 2.25 2.55-1.15-5.1 6.75-4.5 3.95 3.95 1.5-7.95 5.25-3.85 2.8 4.2 2.25-7.8 5.65-3.7 1.95 4.2 1.25-6.05L119.2 0q12 12.35 27.25 18.9l-.85 4.65q10.15-2.6 21.75-8.65l18.75-8.5q-1 15.55-5.5 26.55l-1.1 2.5q-4.3 9.1-8.6 13.1l-16 11-4.25 8.45-1.4-8.45q2.15-7.9-1.6-8.6-7.8-2.45-12.15-2.1l-1.65.2-6.5 2.05-9.3 9 17.7-2.8-21.65 25.3q-22.05 8.95-33.85 23.95l-2.55 9.8v11.15q1.95 3.9 1.5 8.15l-.25 1.35-.85 1.25q3.6 6.15 9.3 7.9l.35.55-3-.25-3.65-2.7-1-1.4-2.4-3.35-5.6 8.7q7.15 3.85 17.15 3.95l.1 2.65q-11.6 1.15-17.7-5.35l-3.5 3.25-6.05-6.05-1.95 2.8-8.75-11.25-1.9 1.55-8.2-7.65-7.6-9.65-14.35-16.35-2.75-12.95L9.45 65.3 2 54.25l-2-7.1v-19.8q10.9 8.15 17.2 10.2l1.1.4.75.1-2.45 3Q7.25 36.2 2.35 31.3L3.4 44.35l.75 9.7 8.9 12.1.05.5 6.8 26L27.35 103h.15l.2 1.25-8.05-10 1.3 7.7.5 3 6.95 7.65 3.05 3.3-.5-5.6.9.9 1.4 5.35L46.5 132.8l4.35 3.6 2.05-1.8 8.2-6.65.1-.1 5.4-4.15 8-6.1 3.3-10.25-6.65 7.45-17.3 7.6 7.3-13.95-8.7 3.95 3.65-4.65 8.85-11.35 8.7-13.8-2.8 2.3-.3-1.25 2.25-1.95 1.1-1.65q5.95-9.95 10.65-22.7L95.7 47.1l15.6-11.45 2.7-1.3 21-6.25 1.9-.6 5.5-1.55 1.25-6.05q-10.55-4.8-18.7-12.15-3.15-2.9-5.9-6.15l-4.85 3.6-1.65 7.4-3.8-5.2-2.95 2-1.5 1-2.4 8.6-3.65-4.45-4.45 3.35-.55 7.1-.7.85-5.1-3.45-.1-.05-2.05 1.85-1.95 1.8.55 6.25-2-1.3-1.95-1.45-.7.65-8.7 23.05-1.35-.7m-32 56.3 2.25 2.35q2.4-10.65 6.75-18.85l-1.1-10.1q-4.6-8.65-10.15-14.5l-.85 1.05-.45.55q-4.25 5.15-6.4 10.55l-.7 1.75 1.25 10.15.7 5.6.5.7q2.5 3.95 5.2 7.25l3 3.5m-5.45-20.3q3.55-4.2 7.55-5.6l.3.55-.75.4q-.65.3-.7.8-1 .55-2.05 1.4l-.5.5q-2.25 1.8-4.55 4.75L29.5 88l-.8-1.45-.75-3.95 3.2 6.6.6-.7M68 93.65l-1.25 2.1-12.25 15.1 7.9-3.65 11.95-8.55 1.65-1.7 7.75-12.5L91.35 74l.4-.25q3.45-3.95 11.95-8.45l13.1-5.2 10.25-11.25q8.5-5.7 16.95-11.3l33.15-20.25-46.7 31.05 5.8-.9 11 1.6 4.4 2.9-1 9 2.25-2.25 4.75-3.3 12.85-9 5.15-8.25 5.1-11.95.9-2.85q1.9-6.5 2.2-14.4l-14.2 8.55-.9.35-21.75 8.8-30.9 9-6.2 3.95-16.1 11.85-8.1 8.1q-4.5 11.4-10.55 22.2L68 93.65m62.45-45.3-.45.1-.7.7q.55-.45 1.15-.8M94.1 72.75l-.65.45-5.5 6.85-11.6 17.5L62.95 108l-1.35 2.3-5.95 10.7 14.3-7.2 15.7-16.7 9.75-7.2 1.3-.55 4.55-2.6Q108 83 114.1 80.65l8.65-9.85 10.5-11.95-14.2 1.8q-12.5 3.65-24.95 12.1m-39.65 63.4-1.35 1.15 7.05 6.9.45-.5 8.25-7.8L76 129v-10.7q-4.2 5-21.55 17.85m23.3-4.5q-.1-.7-.35-.85l-13.6 13.4 5.2 5.3 5.7-8.2 3.3-4.85q.05-3.4-.25-4.8" fill="#924103"/><path d="m24.35 35.3.3 1.2-.5 1.95-6.5 2.55-1.4 13.2 6.15 8.45-.7 2.25L23 87.25l3.45 8.5.2.65h.1L28 99.7l2.8 7.2 15.25 16.35 1.05-2.85 6.7-18.7 1.25-1.95 4.15-6.35.25.1-.95 2.25-8.05 18.85q-.25.85-.35 1.65l-1.35 6.05-1.15 1.55-1.05 1.55-14.7-14.2-.9-.9-3.25-6.05-.2-1.25-.15-.85v-.85L22.4 88.95l-.65-3.05-.7-17.1-.3-7.45-3.65-4.7-1.7-2.15 1.2-13.45 2.45-3q1.2-.15 1.7-1.7l3.6-1.05M46.9 82.9h.3l21.95-30.4h.05l1.35.7-.7.95 6.6-.95 2.75-3.9q2.6-3.6 5.45-6.75 4-4.6 8.65-8.45 5.35-4.65 11.6-8.3.65-.4 1.4-.85l.5.05 25.15 1.45 4.95-.25v1.3l-1.9.6-9.8-.85-18.25-1.6q-10.6 5.65-15.9 11.75l-.85.65q-9.55 9.55-13.4 16l-7.6 1L47 85.95l-.1-3.05" fill="#664b69"/><path d="M24.15 52.8q3.7-7.65 4.75-2.25-1.45 7.1-.6 13 .75 5.9 2.15 7.1-1.2 1.55-2.15 3.3-3.2-9.7-4.15-21.15m30.9 46.95-1.25 1.95-6.7 18.7-4.95-7.8 5.1-18L70.4 61.25l17.15-12.8 21.5-14.15 16.15-7.05 9.8.85-21 6.25-2.7 1.3L95.7 47.1 84.65 57.35l-.85.85q-3.7 1-9.05 4.7-11.05 12.8-15.3 21.75-4.3 9.15-4.4 15.1" fill="#825f85"/><path d="m38.15 84.65.6-.35q1.85 2.4 2.55 8.55l-3.55 8.85-2.6-2.7 2.6-6.85-1.65-6.1q1.05-.85 2.05-1.4" fill="#2e8f00"/><path d="m34 97.7-1.15-1.2 2.8-6.6.6 2L34 97.7m-2.5-2.5-.45-.5L29.5 88l1.55 3.3q2.3-2.95 4.55-4.75l-4.1 8.65" fill="#52ff00"/><path d="m59.2 93.4-4.15 6.35q.1-5.95 4.4-15.1 4.25-8.95 15.3-21.75 5.35-3.7 9.05-4.7l.85-.85Q79.95 70.1 74 80.05l-1.1 1.65-2.25 1.95-11.1 9.5.3-.7-.65.95" fill="#b37fb7"/><path d="m181.65 23.35-.9 2.85-5.1 11.95-5.15 8.25-12.85 9 11.15-9.85 5-7.6 7.85-14.6" fill="#ffa58d"/><path d="M38.15 84.65q.05-.5.7-.8l.75-.4q2.4 5.05 2.55 10.1l-4.5 9.7q-1.75-1.3-3.8-3.8l-3.55-4.7-.2-.9-1.4-7.3.8 1.45 1.55 6.7.45.5 1.35 1.3L34 97.7l1.15 1.3 2.6 2.7 3.55-8.85q-.7-6.15-2.55-8.55l-.6.35" fill="#247100"/><path d="m58.5 95.75.95-2.25.1-.35 11.1-9.5.3 1.25-7.05 5.55-5.4 5.3" fill="#983c02"/></g><g id="x" fill-rule="evenodd"><path d="m15.85 200.9.45 5.2q0 1.7-3.2 1.75l-5.2-.05 2.25-2.85q3.7-4.55 5.7-4.05m17-2.75.9 2.3q.85 2.95.9 6.05l-4.7 1.85-3.35 1.1 2.6-5.05q3.15-5.7 3.65-6.25" fill="#825f85"/><path d="M10 192.75v.25q-.3.45-.45 2.5v.05q-.95.65-2.7 3.1L4.6 201.8q.95-4.55 3.9-7.95l1.5-1.55v.45M7.9 207.8h-.45l-.5.05q1.15-5.05 2.5-7.75 1.55-3.15 4.5-6.25.75.95 1.3 3.6-3.5 4.55-5.1 7.5L7.9 207.8m18.7 1.65-.45.15-1.35.35q.4-3.85 1.35-6.55 1.15-3 4.45-8.35 1.25 1.2 2.25 3.1-.5.55-3.65 6.25l-2.6 5.05" fill="#fff"/><path d="m9.55 195.55-.05 1.1v.25l-.3.6-2.6 3.95-1.1 2.2-1.2.75q0-1.05.15-1.9l.15-.7 2.25-3.15q1.75-2.45 2.7-3.1m5.7 1.9.6 3.35v.1q-2-.5-5.7 4.05 1.6-2.95 5.1-7.5" fill="#b37fb7"/><path d="M4.85 193.95q1.2-2.55 4.85-4.45l-1.2 4.35q-2.95 3.4-3.9 7.95l-.15.7q-.15.85-.15 1.9l1.2-.75 1.1-2.2 2.6-3.95.3-.6v-.25l1.1-.8 3.6-2.75.3-.15.75.7.5 1 .1.15.4 1.5.65 5 .8 4.35v.1l.4 3.45h-.25l-5.9.95-3.2.7-.4.1-2.25.55-2.5.65q-.45 0-.5-.15v-.9q0-.7.35-2.35.35-1.65.65-1.95H0q3.6-10.2 4.8-12.65l.05-.2m10.4 3.5q-.55-2.65-1.3-3.6-2.95 3.1-4.5 6.25-1.35 2.7-2.5 7.75l.5-.05h.45l5.2.05q3.2-.05 3.2-1.75l-.45-5.2v-.1l-.6-3.35m7.4 9.5q.55-2.55 1.95-5.5 2.25-4.8 5.05-7.45h.85l.15.15q1.75 1.2 2.9 2.8l.9 1.55q1.25 2.75 1.25 6.8v1.3l-.05.9-.3 3.15-4.75 1.05-8.25 1.55-.15-.95-.1-1.55v-.6q.05-1.5.55-3.2m10.2-8.8q-1-1.9-2.25-3.1-3.3 5.35-4.45 8.35-.95 2.7-1.35 6.55l1.35-.35.45-.15 3.35-1.1 4.7-1.85q-.05-3.1-.9-6.05l-.9-2.3" fill="#664b69"/><path d="m32.5 175.3-6.4 5q-2.75 1.9-4.6 2.15l-4.55 1.1-3.15.9q-1.85.25-3.2 2.8l-.35.7-.25.85-.3.7q-3.65 1.9-4.85 4.45.9-3.05 2.9-6.55 2.25-4.15 3.5-5.35 1.05-1.05 6.7-1.95 5.6-1.85 12-7.6 1.15 1.6 2.55 2.8m-17.85 12.45q1.2-.65 2.8-1.2-.15 1.2-2 2.25l-2.65 1.55q-.3.15-.5.4l-.05.1q-.9.9-1.25 2.45-.25.9-.4 2.55l-1.1.8.05-1.1v-.05q.15-2.05.45-2.5v-.25l.2-.8q.2-.7.7-1.3l.1-.15q.9-1.2 2.5-2.2l.5.1.65-.65m3.05 17.9 4.95 1.3q-.5 1.7-.55 3.2-.5-.25-1.55-.4l-1.85-.55h-.6l-.4-3.45v-.1m17.65 5 .3-3.15.05-.9 4.6-.65q2.4-.85 4-3.25l5.4-6.85 2.05-2.7 2.1-10.95 1.2-7.1 3.5-.35q-.7 3.95-1.65 11.25-1.3 7.5-3.3 10.55l-4.1 4.55-4.1 4.3q-2.3 2.4-3.65 3.25-1.05.55-2.25.75l-1.45.3-.55.2-.35.15-1.8.6" fill="#261948"/><path d="M10.6 187.25q1.35-2.55 3.2-2.8l3.15-.9 4.55-1.1q1.85-.25 4.6-2.15l6.4-5 2.4 1.5q-3.7 9.1-9.15 13.7-4.35 3.5-8.6 3.5l-1.9-.35-.75-.7q-.2-.15-.5 0-.85-.35-1.75-2.1l.05-.1q.2-.25.5-.4l2.65-1.55q1.85-1.05 2-2.25-1.6.55-2.8 1.2-.65.2-1.15.55l-1.2-.35-1.7-.7m20.75 5.15.2-.3 1.2-.75q1.2-.65 3.55-1.55l-.45-.35 1.05-.6q1.15-.6 2.35-.6 1.3 0 1.8.55.45.4.45 1.5 0 1.95-1.85 3.55-1.75 1.55-3.8 1.55-1.9 0-3.15-.7-1.4-.75-1.35-2.3" fill="#8aaeff"/><path d="m9.7 189.5.3-.7.35 1.15.5.7h.05q-.5.6-.7 1.3l-.2.35-1.5 1.55 1.2-4.35m2.55 1.35q.9 1.75 1.75 2.1l.2.05v.1l-3.6 2.75q.15-1.65.4-2.55.35-1.55 1.25-2.45m5.45 14.8-.8-4.35-.65-5-.4-1.5 2.7.45 2.2.3q3.35 0 8.15-3.1 4.2-2.75 6.25-3h.7l.45.35q-2.35.9-3.55 1.55l-1.2.75-.2.3q-.55.5-.6 1.1-.8.2-1.1.5-2.8 2.65-5.05 7.45-1.4 2.95-1.95 5.5l-4.95-1.3m18 .95v-1.3q0-4.05-1.25-6.8l-.9-1.55 1.9.45q5.2 0 8.65-3.7 4.7-5.1 7.7-17.95l1.05-.25-1.25 10.9q-.55 5.7-1.9 9.45l-5.4 6.85q-1.6 2.4-4 3.25l-4.6.65" fill="#331f64"/><path d="m52.85 175.5 2.2-.4-1.2 7.1-2.1 10.95-2.05 2.7q1.35-3.75 1.9-9.45l1.25-10.9" fill="#d28783"/><path d="m10 188.8.25-.85.35-.7 1.7.7 1.2.35q-1.6 1-2.5 2.2l-.15.15-.5-.7-.35-1.15" fill="#5e52df"/><path d="m15.25 193.65 1.9.35q4.25 0 8.6-3.5 5.45-4.6 9.15-13.7 2.15.9 4.75.9 3.65 0 10.05-1.55l2.1-.4q-3 12.85-7.7 17.95-3.45 3.7-8.65 3.7l-1.9-.45q-1.15-1.6-2.9-2.8l.1-.65q.05-.6.6-1.1-.05 1.55 1.35 2.3 1.25.7 3.15.7 2.05 0 3.8-1.55 1.85-1.6 1.85-3.55 0-1.1-.45-1.5-.5-.55-1.8-.55-1.2 0-2.35.6l-1.05.6-.25-.1-.45.1q-2.05.25-6.25 3-4.8 3.1-8.15 3.1l-2.2-.3-2.7-.45-.1-.15-.5-1" fill="#5e52e1"/><path d="M25.65 165.9H26q.8 0 1.45-.6.7-.6.7-1.6l-.25-1.35q2.6-2.35 6-1.8v.85q0 3.9-2.8 10.55-2.25 5.2-4.5 6.85-1.35-1.95-1.65-2.85l-.6-3.65q-.35-2.85.35-4.15l.95-2.25" fill="#039f7d"/><path d="m25.45 179.4-1.75-3.05q-.65-1.55-.65-3.95 0-2.85.35-4.35.35-1.25 1.2-2.5l.1-.15.5.2.45.3-.95 2.25q-.7 1.3-.35 4.15l.6 3.65q.3.9 1.65 2.85l-1.15.6m2.45-17.05-.75-1.4q1-1.4 2.4-2.45l3-2.25.5 1.15.85 3.15q-3.4-.55-6 1.8" fill="#00ffc8"/><path d="m29.8 178 .5-.65.85-1.15q0 .8.3 1.5.2.65.55 1l-3.05 1.95.85-2.65m5.2-14.85q-.2-2.7-.6-4.5.4-1.9 1.75-4.45l.5 1.55.85 4.35q-.8.3-1.7 1.7l-.8 1.35m2.15-17.7q1.65 1.8 3.9 4.7l3.25 4q1.7 2.1 3.15 4.9-.05 0-.15.1l-2.5.95q-1.3.65-2.2 1.85-1.2 1.4-2.45 3.45L39 167.45l.1-2q0-5.45-1.6-10.65l-.65-1.85-.15-.75.45-6.75m-.85 30.7q-.3 1.35-.3 4.2 0 1.15.3 2.85l-9 .25v-.15q.9-.55 1.75-.95 4.15-2.35 5.2-3.45l2.05-2.75" fill="#fdff15"/><path d="m51.1 164.85-.75.55q-4.65 3.65-6.6 6.8-2.55 4.1-2.55 9.65l.05 1.35H36.3q-.3-1.7-.3-2.85 0-2.85.3-4.2l.35-.55q.1-.45.35-.8l.95-2.05.25-.4.2-1.2.4-2.3.2-1.4 1.15-2.05q1.25-2.05 2.45-3.45.9-1.2 2.2-1.85l2.5-.95 3.8 5.7" fill="#a85803"/><path d="m31.15 176.2.3-.4.85-1.2q3.2-5 2.85-10.2l-.05-.25-.1-1 .8-1.35q.9-1.4 1.7-1.7.4 3.8.1 8.15-.45 7-3.85 9.25l-1.6 1.1q-.15 0-.15.1-.35-.35-.55-1-.3-.7-.3-1.5m19.2-10.8 2.4 3.3q2.25 3.35 2.25 5 0 1.1-4.85 7.7-4.15 1.85-8.65 1.8h-.25l-.05-1.35q0-5.55 2.55-9.65 1.95-3.15 6.6-6.8" fill="#e18e00"/><path d="m56.3 120.2 1.35.95v12.1l.15.6q1.45 8 3.35 13.4l.25.65q-4.05 8.65-5.95 19.3l-.7-.7v-.05q.6-8.95 4.15-19.85l-2.6-15.3v-11.1m-6.15 61.2q4.85-6.6 4.85-7.7 0-1.65-2.25-5l-2.4-3.3.75-.55 7 10.6q-3.8 4-7.95 5.95" fill="#ffa58d"/><path d="M26.85 113.5 41 109.8q9.6 14.1 13.7 25.45L43.45 119.2l-5.6-8-4.5 9.2q1.8 13.2.45 20.8l-.05.2-5.85 5.7-.25.35-3.55-20.35 2.75-13.6m-5.55 65.25q1.55 2.95 3.15 3.3l2.4-1.35q1.3-.7 2.95-2.7l-.85 2.65-7.65 4.8q-.35-1-.35-2.55v-2.3q.1-1 .35-1.85m13.1-20.1-.6-2q-1.05-2.7-2.7-4.1-2.5.75-4.5 2.35 4.35-5.45 6.6-6.15 1.6 1.25 2.95 5.45-1.35 2.55-1.75 4.45m2.45-5.7q-1.6-4-3.85-5.6l-.25.1-2.8 2.25q-1.7 1.55-2.5 2.75l.1-1.8.1-.8.35-.4 2.65-2.9 3.4-3.95.05-.05 3.05 2.9-.45 6.75.15.75m-11.4 26.45-1 .1q-.8 0-1.5-2.95-.6-2.45-.6-4.15 0-5.8 2.25-11 1.9-3.75 3.4-5.3l3.35-2.75 1.2 2.9-3 2.25q-1.4 1.05-2.4 2.45l.75 1.4.25 1.35q0 1-.7 1.6-.65.6-1.45.6h-.35l-.45-.3-.5-.2-.1.15q-.85 1.25-1.2 2.5-.35 1.5-.35 4.35 0 2.4.65 3.95l1.75 3.05" fill="#fff"/><path d="M58.15 170.1q2.3 2.75 4 5.55-7.05 5.7-13 7.55l-.05.05q-4.15 1.2-14.7 1.2l-8.6-.3-.35.2-.35.25q-.55.2-1.25.55-1.75.85-2.75 1.4l-.3-.7-.05-.05-1.4-3.35q-.65-1.8-.65-4.55 0-2.55.7-5.85 0 2.9 1.7 6.3l.05.1.15.3q-.25.85-.35 1.85v2.3q0 1.55.35 2.55l7.65-4.8L32 178.7q0-.1.15-.1l1.6-1.1q3.4-2.25 3.85-9.25.3-4.35-.1-8.15l-.85-4.35-.5-1.55q-1.35-4.2-2.95-5.45-2.25.7-6.6 6.15-1.8 1.5-3.2 3.55l1.15-5.85.15-.55.55-1.15q1.05-1.95 2.4-3.45l.25-.35 5.85-5.7.2-.2q1.2.35 3.6 2.7l4.45 4.85 7.1 8.85 1.75 3.65.95 1.6q1.35 2.05 2.85 3.55l.1.1.7.7 2.7 2.9m-8 11.3q4.15-1.95 7.95-5.95l-7-10.6-3.8-5.7q.1-.1.15-.1-1.45-2.8-3.15-4.9l-3.25-4q-2.25-2.9-3.9-4.7l-3.05-2.9-.05.05-3.4 3.95-2.65 2.9-.35.4-.1.8-.1 1.8q.8-1.2 2.5-2.75l2.8-2.25.25-.1q2.25 1.6 3.85 5.6l.65 1.85q1.6 5.2 1.6 10.65l-.1 2-.2 1.4-.4 2.3-.2 1.2-.25.4-.95 2.05q-.25.35-.35.8l-.35.55-2.05 2.75q-1.05 1.1-5.2 3.45-.85.4-1.75.95-.15.1-.25.15h.25l9-.25v.1l.1-.1h5.1q4.5.05 8.65-1.8" fill="#924103"/><path d="m57.65 121.15 3.3 2.5q-.4 12.5 3.3 23.9-4.4 12.35-6.1 22.55l-2.7-2.9q1.9-10.65 5.95-19.3l-.25-.65q-1.9-5.4-3.35-13.4l-.15-.6v-12.1" fill="#261948"/><path d="m44.15 111.2 12.15 9v11.1l2.6 15.3q-3.55 10.9-4.15 19.85l-.1-.05q-1.5-1.5-2.85-3.55l2.75-10.6q1.55-9.5 1.55-16.6l-1.55-5.75-10.4-18.7" fill="#331f64"/><path d="m41 109.8.9-.3 2.25 1.7 10.4 18.7 1.55 5.75q0 7.1-1.55 16.6l-2.75 10.6-.95-1.6q2.85-10.35 3.8-25.6l.05-.4Q50.6 123.9 41 109.8m-16.3 42.25-.25.05-3.35-26.3q-.05-5.8 3.35-11.65l2.4-.65-2.75 13.6 3.55 20.35q-1.35 1.5-2.4 3.45l-.55 1.15" fill="#664b69"/><path d="m54.7 135.25-.05.4q-.95 15.25-3.8 25.6l-1.75-3.65-7.1-8.85 1.45-29.55 11.25 16.05" fill="#b37fb7"/><path d="M19.4 172.05v-.1l.1-1.3q.25-5.95 3-10.8l.9-1.4q1.4-2.05 3.2-3.55 2-1.6 4.5-2.35 1.65 1.4 2.7 4.1l.6 2q.4 1.8.6 4.5l.1 1 .05.25q.35 5.2-2.85 10.2l-.85 1.2-.3.4-.85 1.15-.5.65q-1.65 2-2.95 2.7l-2.4 1.35q-1.6-.35-3.15-3.3.1-.35-.2-.4-1.7-3.4-1.7-6.3m13.15-15.8-1.2-2.9L28 156.1q-1.5 1.55-3.4 5.3-2.25 5.2-2.25 11 0 1.7.6 4.15.7 2.95 1.5 2.95l1-.1 1.15-.6q2.25-1.65 4.5-6.85 2.8-6.65 2.8-10.55v-.85l-.85-3.15-.5-1.15" fill="#027952"/><path d="M33.8 141.2q1.35-7.6-.45-20.8l4.5-9.2 5.6 8L42 148.75l-4.45-4.85q-2.4-2.35-3.6-2.7h-.15" fill="#825f85"/><path d="M10.15 65.5q-1.2-10 2.5-25.85 2.9-7.2 7.75-4.5l7.3-10.7q-4.3 16.3 0 22.05l13.8-19.25-4.3 26.5 7.65-7.95q-4.05 20.4-3.1 35.75l3.4-6.2-2.05 28.8-1.6 4.35q-3.9-5.05-9.1-10.65l-3.2 7.35-3.45 8.1-.65-1.75q-3.3-10.05-7-19.95-4.15-10.9-7.95-26.1m34.55.4q1-3.35 1.5-7.65l1.05-9.2Q48.65 39.5 55 35.6q-1.15 7.1-3.75 17.55-2.65 10.3-6.55 12.75m-.95-32.2q1.25-6 5.55-9.35.35.85.35 1.65 0 4.2-3.6 11.25l-3.15 5.9.85-9.45M32.9 35q1.5-9.5 7.8-15.9l.2 1.7q0 2.45-8 14.2" fill="#8aaeff"/><path d="m78.3 13 4.5-.65-2.45 6.7q-6.45 4.7-10.25 9.55-1.85 2.25-6.75 10.45 1.35-7.8 4.85-14.1Q72.15 17.7 78.3 13m-7.85 32.8 6.2-2.8h1.1l-.5 2.4-12 9.2-12.8 30.15-4.55 33.35-2.6-4.15-3.8-5.45 1.6-4.35 2.05-28.8-3.4 6.2q-.95-15.35 3.1-35.75l-7.65 7.95 4.3-26.5L27.7 46.5q-4.3-5.75 0-22.05l-7.3 10.7q-4.85-2.7-7.75 4.5-3.7 15.85-2.5 25.85L8.5 60.45l-.2 3.7q-6.25-2.5-5.35-21.45L8.6 26.4Q20.2 17.05 35 12.05l2.85 4.5L49.65 2.5l-4.8 16.05q4.8-4.25 13.8-4.25l8.2-11.6 3.9-.75-.25 1.85-11.85 10.5-4.8 11.85 10.7-9.3-6.2 10.7 8.15-4.5-14.05 32.6 8.15-6.2-5.35 13.8 8.5-7.5 6.7-9.95M32.9 35q8-11.75 8-14.2l-.2-1.7q-6.3 6.4-7.8 15.9m10.85-1.3-.85 9.45 3.15-5.9q3.6-7.05 3.6-11.25 0-.8-.35-1.65-4.3 3.35-5.55 9.35m.95 32.2q3.9-2.45 6.55-12.75Q53.85 42.7 55 35.6q-6.35 3.9-7.75 13.45l-1.05 9.2q-.5 4.3-1.5 7.65" fill="#5e52e1"/><path d="m80.35 19.05-9.9 26.75-6.7 9.95-8.5 7.5 5.35-13.8-8.15 6.2 14.05-32.6-8.15 4.5 6.2-10.7-10.7 9.3 4.8-11.85L70.5 3.8l-1.45 10.5L78.3 13q-6.15 4.7-10.1 11.95-3.5 6.3-4.85 14.1 4.9-8.2 6.75-10.45 3.8-4.85 10.25-9.55M47.9 118.1l4.55-33.35 12.8-30.15 12-9.2-.2 1.1q-1.55 1.15-2.3 2.55Q71.3 54.9 68.2 62.5q-2.2 5.4-5.9 15.65-4.7 12.1-5.35 15.8-.55 3.1-.65 15.75l-.05 16.45q-.05 3.55.9 8.5l-.25-.05q-5.2-10.1-9-16.5" fill="#331f64"/><path d="m44.15 120.05-1.8-3.1q-2.9-4.7-4.5-6.2l-2.5 6.65-1.65 3.9-.35.7-.3 4.95.15 6.25-7.9-.8-1.1-5.95q.55-4.45 2.25-9.65l.2-.6 1.9-7.05q1.5-5.75 4.5-9 6.75 7.55 10.55 13.35 3.45 5.3 11.75 20.7l-.3.1-1.7-.2h-.25q-.85-2.25-3.1-5.4l-4-5.55-1.85-3.1" fill="#fff"/><path d="m33.2 133.2-.15-6.25.3-4.95.35-.7 1.65-3.9 2.5-6.65q1.6 1.5 4.5 6.2l1.8 3.1-1.4 13.2-8.2-.05H33.2" fill="#825f85"/><path d="m44.15 120.05 1.85 3.1 4 5.55q2.25 3.15 3.1 5.4l-10.35-.85 1.4-13.2" fill="#b37fb7"/><path d="m25.1 111.55.65 1.75 3.45-8.1 3.2-7.35q5.2 5.6 9.1 10.65l3.8 5.45 2.6 4.15q3.8 6.4 9 16.5l-1.45-.2-.1-.2q-8.3-15.4-11.75-20.7-3.8-5.8-10.55-13.35-3 3.25-4.5 9l-1.9 7.05-.2.6q-1.7 5.2-2.25 9.65l1.1 5.95h-3.15l-.5-3.4-.6-4.65.1-.55 1.4-5.45.6-1.45 1.95-5.35" fill="#664b69"/><path d="m80.35 19.05 2.45-6.7-4.5.65-9.25 1.3L70.5 3.8l.25-1.85-3.9.75-3.85.8L72.15 0l-1.4 12.9q6.4-3.35 14.9-1.4L72.4 43h4.25l-6.2 2.8 9.9-26.75M10.15 65.5q3.8 15.2 7.95 26.1 3.7 9.9 7 19.95l-1.95 5.35q-3.1-10.5-8.25-25.1Q9 74.9 8.5 69.2l-.2-4.7v-.35l.2-3.7 1.65 5.05m64.6-16.45q.75-1.4 2.3-2.55-5.35 24.25-9.9 31-4.95 7.25-5.2 15.75-.35 8.45-.9 14.65-.45 4.55-.45 9.35 0 9.85.2 11.75l1.05 6.35-4-.6-.2-3.4q-.15-2.3-.15-11 0-22.65 3.45-34.3 6.95-18 13.8-37" fill="#261948"/><path d="M57.15 134.65q-.95-4.95-.9-8.5l.05-16.45q.1-12.65.65-15.75.65-3.7 5.35-15.8Q66 67.9 68.2 62.5q3.1-7.6 6.55-13.45-6.85 19-13.8 37-3.45 11.65-3.45 34.3 0 8.7.15 11l.2 3.4-.7-.1" fill="#ffa58d"/></g><use ffdec:characterId="2" height="154.95" width="71.9" xlink:href="#n" id="c"/><use ffdec:characterId="4" height="120" width="65.7" xlink:href="#o" id="d"/><use ffdec:characterId="6" height="216.1" width="141.85" xlink:href="#p" id="e"/><use ffdec:characterId="8" height="143.3" width="122.9" xlink:href="#q" id="f"/><use ffdec:characterId="10" height="153.85" transform="translate(0 13.6)" width="258.65" xlink:href="#r" id="g"/><use ffdec:characterId="15" height="118.6" width="193.75" xlink:href="#s" id="h"/><use ffdec:characterId="17" height="146.7" width="131.7" xlink:href="#t" id="i"/><use ffdec:characterId="23" height="266.05" width="139.15" xlink:href="#u" id="j"/><use ffdec:characterId="25" height="270.1" width="228.45" xlink:href="#v" id="k"/><use ffdec:characterId="27" height="154.45" width="186.1" xlink:href="#w" id="l"/><use ffdec:characterId="29" height="213.25" width="85.65" xlink:href="#x" id="m"/><path d="M24.4-.1q0 1.5-6.95 2.55L.75 3.55-16 2.45Q-22.9 1.4-22.9-.1q0-1.55 6.9-2.6L.75-3.75l16.7 1.05Q24.4-1.65 24.4-.1" fill-opacity=".349" fill-rule="evenodd" transform="translate(22.9 3.75)" id="b"/></defs></svg>