<svg xmlns:ffdec="https://www.free-decompiler.com/flash" xmlns:xlink="http://www.w3.org/1999/xlink" ffdec:objectType="frame" height="90" width="90" xmlns="http://www.w3.org/2000/svg"><use ffdec:characterId="23" height="91" transform="translate(-4.3 -1)" width="95.25" xlink:href="#a"/><defs><g id="a" transform="translate(4.3 1)"><use ffdec:characterId="6" height="90" width="90.45" xlink:href="#b"/><use ffdec:characterId="22" height="95.25" transform="matrix(.9552 0 0 .9554 -4.28 -1.003)" width="99.7" xlink:href="#c"/></g><g id="b"><use ffdec:characterId="4" height="90" width="90.45" xlink:href="#d"/><use ffdec:characterId="5" height="0" transform="matrix(.6991 0 0 .6987 .25 2.45)" width="0" xlink:href="#sprite5"/></g><g id="d" transform="translate(.45)"><use ffdec:characterId="1" height="0" transform="translate(-.45 12.65) scale(.3335)" width="0" xlink:href="#sprite3"/><use ffdec:characterId="3" height="71.05" transform="scale(1.4622 1.2667)" width="61.55" xlink:href="#e"/></g><g id="c" transform="translate(6.05 1.05)"><use ffdec:characterId="7" height="18.4" transform="translate(17.85 75.8)" width="60.05" xlink:href="#f"/><use ffdec:characterId="8" height="11.25" transform="translate(26.4 65.45)" width="12.9" xlink:href="#g"/><use ffdec:characterId="9" height="12.3" transform="translate(48.2 61.75)" width="13.65" xlink:href="#h"/><use ffdec:characterId="10" height="19.45" transform="translate(51.6 59.9)" width="20.45" xlink:href="#i"/><use ffdec:characterId="11" height="14.8" transform="translate(33.35 71.9)" width="13.25" xlink:href="#j"/><use ffdec:characterId="12" height="13" transform="translate(42.45 74.9)" width="15.65" xlink:href="#k"/><use ffdec:characterId="13" height="18.8" transform="translate(34.1 61.95)" width="22.35" xlink:href="#l"/><use ffdec:characterId="14" height="10.7" transform="translate(33.75 65.8)" width="5.9" xlink:href="#m"/><use ffdec:characterId="15" height="10.7" transform="translate(49.55 65.25)" width="5.9" xlink:href="#n"/><use ffdec:characterId="16" height="16.35" transform="translate(34.2 63.15)" width="16.95" xlink:href="#o"/><use ffdec:characterId="18" height="46.15" transform="translate(49.3 3.55)" width="42.8" xlink:href="#p"/><use ffdec:characterId="20" height="50.55" transform="translate(-.5 -1)" width="38.15" xlink:href="#q"/><use ffdec:characterId="21" height="58.15" transform="translate(9.05 11.9)" width="78.95" xlink:href="#r"/></g><g id="g"><path d="M5.45 10.15Q7.2 9.15 6.7 8H5.65Q.3 6.6 0 5.15q5.3 2.2 5.9.5L4.2 4.6Q1.25 2.9.95.05 7.15-.4 11.9 2.4l-1 7q-1.35 1.15-5.45.75m3.15-3.9q-1.25.05-2.7-.6 1.45.65 2.7.6m.4.85q-.85.75-2.3.9 1.45-.15 2.3-.9" fill="#e8c5ff" fill-rule="evenodd" transform="translate(.5 .5)"/><path d="M6.7 8q.5 1.15-1.25 2.15l-1.4-.25q.45-.95 1.6-1.9H6.7M4.2 4.6l1.7 1.05q-.6 1.7-5.9-.5 1.7-1.2 4.2-.55" fill="#fffdfe" fill-rule="evenodd" transform="translate(.5 .5)"/><path d="M5.45 10.15q4.1.4 5.45-.75l1-7Q7.15-.4.95.05 1.25 2.9 4.2 4.6l1.7 1.05q1.45.65 2.7.6M5.65 8H6.7q1.45-.15 2.3-.9M0 5.15Q.3 6.6 5.65 8q-1.15.95-1.6 1.9l1.4.25M0 5.15q1.7-1.2 4.2-.55" fill="none" stroke="#573f7c" stroke-linecap="round" stroke-linejoin="round" transform="translate(.5 .5)"/></g><g id="h"><path d="m7.8 4.85 4.85-.15-2.35 2.35q-4.65.65-3.15-1.6l.65-.6m-.6 4q2.5.65 2.8 1.9-2.2.15-3.9-1.55l1.1-.35" fill="#fff" fill-rule="evenodd" transform="translate(.5 .5)"/><path d="m7.8 4.85-.65.6q-1.5 2.25 3.15 1.6Q9 8.1 7.2 8.85l-1.1.35q1.7 1.7 3.9 1.55-3.9 1.1-7.35-.1l.3-.65q0-1.15-2.95-2.4Q4.05-.15 10.8 0q-1.25 3-3 4.85M2.95 10l3.15-.8-3.15.8M0 7.6q4.2.4 7.15-2.15Q4.2 8 0 7.6" fill="#e6c3f9" fill-rule="evenodd" transform="translate(.5 .5)"/><path d="m10.3 7.05 2.35-2.35-4.85.15-.65.6Q4.2 8 0 7.6 4.05-.15 10.8 0q-1.25 3-3 4.85m2.5 2.2Q9 8.1 7.2 8.85q2.5.65 2.8 1.9-3.9 1.1-7.35-.1l.3-.65q0-1.15-2.95-2.4m6.1 1.6-3.15.8M7.2 8.85l-1.1.35" fill="none" stroke="#573f7c" stroke-linecap="round" stroke-linejoin="round" transform="translate(.5 .5)"/></g><g id="i"><path d="M17.3 1.25q.95.8 1.25 1.95-2.05 4.7-4.85 7.9V9.9q2.8-3.4 3.6-8.65" fill="#391900" fill-rule="evenodd" transform="translate(.85 1)"/><path d="M8.3 6.9q2.6-8.15 7.3-6.65-.95 4.3-2.95 7.3-1.3-1.15-4.35-.65" fill="#5a2803" fill-rule="evenodd" transform="translate(.85 1)"/><path d="M15.6.25h.05l1.65 1q-.8 5.25-3.6 8.65-.15-1.6-1.05-2.35 2-3 2.95-7.3" fill="#874f04" fill-rule="evenodd" transform="translate(.85 1)"/><path d="m6.75 10.85 1-2.05.55-1.9q3.05-.5 4.35.65-1.7 2.5-4.05 4.1-.7-.65-1.85-.8m3.1 3.4-.2-.95Q12 11.95 13.7 9.9v1.2q-1.8 1.9-3.85 3.15" fill="#de8800" fill-rule="evenodd" transform="translate(.85 1)"/><path d="M18.55 3.2q.55 3.05-3.3 8.4Q9.2 18.15.15 17.35v-.6l4.25-.4q2.95-.55 5.45-2.1Q11.9 13 13.7 11.1q2.8-3.2 4.85-7.9" fill="#0cfbde" fill-rule="evenodd" transform="translate(.85 1)"/><path d="M12.65 7.55q.9.75 1.05 2.35-1.7 2.05-4.05 3.4-.4-1.05-1.05-1.65 2.35-1.6 4.05-4.1" fill="#ffbf5d" fill-rule="evenodd" transform="translate(.85 1)"/><path d="m.1 15.55-.1-1.1.4-.15.55-.05 3.4-.6q.5.5.45 1.4l-4.7.5" fill="#fec05d" fill-rule="evenodd" transform="translate(.85 1)"/><path d="m.15 16.75-.05-1.2 4.7-.5-.4 1.3-4.25.4" fill="#b76803" fill-rule="evenodd" transform="translate(.85 1)"/><path d="m.95 14.25 3.05-.8q1.75-.9 2.75-2.6 1.15.15 1.85.8-1.9 1.25-4.25 2l-3.4.6m8.7-.95.2.95q-2.5 1.55-5.45 2.1l.4-1.3q2.7-.6 4.85-1.75" fill="#572905" fill-rule="evenodd" transform="translate(.85 1)"/><path d="M8.6 11.65q.65.6 1.05 1.65-2.15 1.15-4.85 1.75.05-.9-.45-1.4 2.35-.75 4.25-2" fill="#885006" fill-rule="evenodd" transform="translate(.85 1)"/><path d="M16.45 1.25h.05l1.65 1q.95.8 1.25 1.95.55 3.05-3.3 8.4-6.05 6.55-15.1 5.75m.25-3.05.55-.05 3.05-.8q1.75-.9 2.75-2.6l1-2.05.55-1.9q2.6-8.15 7.3-6.65" fill="none" stroke="#3a1a03" stroke-linecap="round" stroke-linejoin="round" stroke-width="2"/></g><g id="j"><path d="M1.3 6.95.95 3.6Q.5 1.4 1.55.7q1-.7 3.25-.7t3.75 1.05q1.45 1 2.3 2.2.85 1.15-.2 3.55l-1.2.4-.95.15h-.15l-1.9-.1Q7.5 8.35 6 9.15l.3-.55q-1.7.35-3.8-.55l-1.2-1.1" fill="#df8902" fill-rule="evenodd" transform="translate(1 1)"/><path d="M10.65 6.8q-.7.8-1.55 2.75l-1.45.35Q8.2 8.8 6 9.15q1.5-.8.45-1.9l1.9.1h.15l.95-.15 1.2-.4" fill="#bc6600" fill-rule="evenodd" transform="translate(1 1)"/><path d="M7.65 9.9q-2.6.25-5.15-1.85 2.1.9 3.8.55l-.3.55q2.2-.35 1.65.75" fill="#5b2a02" fill-rule="evenodd" transform="translate(1 1)"/><path d="M2.3 7.95 1.95 4.6q-.45-2.2.6-2.9 1-.7 3.25-.7t3.75 1.05q1.45 1 2.3 2.2.85 1.15-.2 3.55-.7.8-1.55 2.75" fill="none" stroke="#3a1a01" stroke-linecap="round" stroke-linejoin="round" stroke-width="2"/><path d="M4.35 11.2q2.6-.3 4.05-1.95.4.15.4.55-2.95 1.8-4.45 1.4" fill="#61d4ab" fill-rule="evenodd" transform="translate(1 1)"/><path d="M4.2 8.75Q2.25 8.7 2 7.5q-1.75 2 .3 2.75 2.3.35 4.55-.85L6 9.05l.3-.65-2.1.35m5.25 1.55q-3.1 3.7-7 1.9Q-1.5 10.35.9 6.55q6.85-.6 8.55 3.75M8.4 9.25l-.95-.2-3.1 2.15q1.5.4 4.45-1.4 0-.4-.4-.55" fill="#381801" fill-rule="evenodd" transform="translate(1 1)"/><path d="m4.35 11.2 3.1-2.15.95.2Q6.95 10.9 4.35 11.2" fill="#2b1500" fill-rule="evenodd" transform="translate(1 1)"/><path d="m4.2 8.75 2.1-.35-.3.65.85.35q-2.25 1.2-4.55.85Q.25 9.5 2 7.5q.25 1.2 2.2 1.25" fill="#5a2a02" fill-rule="evenodd" transform="translate(1 1)"/><path d="M10.45 11.3q-3.1 3.7-7 1.9Q-.5 11.35 1.9 7.55" fill="none" stroke="#391900" stroke-linecap="round" stroke-linejoin="round" stroke-width="2"/></g><g id="k"><path d="M11.6 7.1q1.4 1.15-.95 2.15-2.3.25-2.9-1.25l.8.3q-.55-1.4.9-.8-.5-1.1 0-.9.8.8 2.15.5" fill="#5a2a02" fill-rule="evenodd" transform="translate(1)"/><path d="M11.6 7.1q-1.35.3-2.15-.5-.5-.2 0 .9-1.45-.6-.9.8l-.8-.3q.6 1.5 2.9 1.25 2.35-1 .95-2.15M6.2 9.4q-.2.15-.25.35 1.5 1 3.45.75l2.25-.75q-2.85.6-4.55-.7-.6.05-.9.35m6.25-3.1q2.75 3.1-.85 5.15-4 1.8-7.9-2.05 3.4-5 8.75-3.1" fill="#391b03" fill-rule="evenodd" transform="translate(1)"/><path d="M9.4 10.5q-1.95.25-3.45-.75.05-.2.25-.35 1 .65 3.2 1.1" fill="#61d4ab" fill-rule="evenodd" transform="translate(1)"/><path d="M9.4 10.5q-2.2-.45-3.2-1.1.3-.3.9-.35 1.7 1.3 4.55.7l-2.25.75" fill="#2b1500" fill-rule="evenodd" transform="translate(1)"/><path d="M4.7 9.4q3.9 3.85 7.9 2.05 3.6-2.05.85-5.15" fill="none" stroke="#391900" stroke-linecap="round" stroke-linejoin="round" stroke-width="2"/><path d="M.35 6.65Q.85 2.8 3 1.6l2-1Q6.6-.15 8.3.05 9.95.2 11.45 1.2q.25 2.15-.05 3.7-.8-3.75-4.25-2.3Q3.6 4.1 4.1 5.8q.55 1.65 2.95 1.95-3.8.9-5.8-.65-.6-.5-.9-.45" fill="#bc6600" fill-rule="evenodd" transform="translate(1)"/><path d="M11.4 4.9q.3-1.55.05-3.7H12q.65 2.7.5 5.55l-.6.5-1.55-.1q.75-.85 1.05-2.25" fill="#381904" fill-rule="evenodd" transform="translate(1)"/><path d="M7.05 7.75q-2.4-.3-2.95-1.95-.5-1.7 3.05-3.2 3.45-1.45 4.25 2.3-.3 1.4-1.05 2.25-.55-.2-.8-.65-.35.15 0 1.05-.8-1.05-1.1.75l-.6-.45-.8-.1" fill="#de8801" fill-rule="evenodd" transform="translate(1)"/><path d="m8.4 9.25-3.1.55h-.45Q1.75 9.15 0 7.55q4.7 2.2 7.85.3l.6.45-.05.95" fill="#321600" fill-rule="evenodd" transform="translate(1)"/><path d="m11.9 7.25-3.5 2 .05-.95q.3-1.8 1.1-.75-.35-.9 0-1.05.25.45.8.65l1.55.1" fill="#582b02" fill-rule="evenodd" transform="translate(1)"/><path d="M.35 6.65q.3-.05.9.45 2 1.55 5.8.65l.8.1Q4.7 9.75 0 7.55q-.05-.8.35-.9" fill="#32ebcb" fill-rule="evenodd" transform="translate(1)"/><path d="M13 1.2q.65 2.7.5 5.55l-.6.5M6.3 9.8h-.45Q2.75 9.15 1 7.55" fill="none" stroke="#3a1a01" stroke-linecap="round" stroke-linejoin="round" stroke-width="2"/></g><g id="l"><path d="M13.7 10.75v-.5q-.15-2.65-1.95-4.5Q9.9 3.9 7.3 3.9q-2.55 0-4.4 1.85-1.85 1.85-1.85 4.5l.1 1.1.5 1.8q-.6 1.2-1.45.4Q-1-.05 5.85.15 11.9-.95 16.5 5.3q1.75 2.35 2.9 4.85l.4 2.9h-.25v.3l-1.8.7h-.5q-1.75-.25-2.75-3.3h-.8" fill="#844802" fill-rule="evenodd" transform="translate(1 1)"/><path d="m1.15 11.35-.1-1.1q0-2.65 1.85-4.5T7.3 3.9q2.6 0 4.45 1.85 1.8 1.85 1.95 4.5v.5l-.15 1.3q-1.8 1.85-3.2 2.45-1.5.5-1.65 2.65l-.95.15q-.2-7-6.6-5.95" fill="#a2918a" fill-rule="evenodd" transform="translate(1 1)"/><path d="m1.65 13.15-.5-1.8q6.4-1.05 6.6 5.95H7.6l-1.9-.1q-1.75-.35-2.95-1.95-.7-1.05-1.1-2.1m7.05 4q.15-2.15 1.65-2.65 1.4-.6 3.2-2.45-.25 1.55-1.3 2.9l-.05.05-2.3 1.75-1.2.4" fill="#e6cfc7" fill-rule="evenodd" transform="translate(1 1)"/><path d="M13.7 10.75h.8q1 3.05 2.75 3.3-3-.05-5.05.95l.05-.05q1.05-1.35 1.3-2.9l.15-1.3" fill="#bc6600" fill-rule="evenodd" transform="translate(1 1)"/><path d="m1.15 11.35-.1-1.1q0-2.65 1.85-4.5T7.3 3.9q2.6 0 4.45 1.85 1.8 1.85 1.95 4.5v.5l-.15 1.3q-.25 1.55-1.3 2.9l-.05.05-2.3 1.75-1.2.4-.95.15H7.6l-1.9-.1q-1.75-.35-2.95-1.95-.7-1.05-1.1-2.1l-.5-1.8" fill="none" stroke="#3a1a01" stroke-linecap="round" stroke-linejoin="round" transform="translate(1 1)"/><path d="M20.4 11.15q-1.15-2.5-2.9-4.85Q12.9.05 6.85 1.15 0 .95 1.2 14.55m19.2-3.4.95 2.9" fill="none" stroke="#3a1a01" stroke-linecap="round" stroke-linejoin="round" stroke-width="2"/></g><g id="m"><path d="M4.8.75q-1.05.6-2.15 1.9l-.75 1.1-.5.85q-.35-.1-1.1.7.9-2.35 4-5.3l.5.75" fill="#3acab1" fill-rule="evenodd" transform="translate(.5 .5)"/><path d="M1.9 3.75q.7-.15 1.2 0L2.8 4.8q-.45-1.9-.95.35-.15-.55-.45-.55l.5-.85" fill="#ce8419" fill-rule="evenodd" transform="translate(.5 .5)"/><path d="m2.8 4.8.15.5Q1.2 8.25.3 5.3q.75-.8 1.1-.7.3 0 .45.55.5-2.25.95-.35" fill="#5a2a04" fill-rule="evenodd" transform="translate(.5 .5)"/><path d="M3.1 3.75q1.25.3.9 2.45l-.25.45q.15-1.55-.8 0 .65-2.05 0-1.35l-.15-.5.3-1.05" fill="#9b5e03" fill-rule="evenodd" transform="translate(.5 .5)"/><path d="m2.65 2.65.45 1.1q-.5-.15-1.2 0l.75-1.1" fill="#7ba164" fill-rule="evenodd" transform="translate(.5 .5)"/><path d="m3.1 3.75-.45-1.1q1.1-1.3 2.15-1.9Q6.1 3.2 4.55 6.1q-.25-.25-.55.1.35-2.15-.9-2.45" fill="#834701" fill-rule="evenodd" transform="translate(.5 .5)"/><path d="M4 6.2q.3-.35.55-.1l-.2.4q-.2 3.95-3.45 3Q-.5 7.65.3 5.3q.9 2.95 2.65 0 .65-.7 0 1.35.95-1.55.8 0L4 6.2" fill="#5a2a02" fill-rule="evenodd" transform="translate(.5 .5)"/><path d="M4.35 6.5q-.2 3.95-3.45 3Q-.5 7.65.3 5.3q.9-2.35 4-5.3" fill="none" stroke="#381a02" stroke-linecap="round" stroke-linejoin="round" transform="translate(.5 .5)"/></g><g id="n"><path d="M.6.75 1.1 0q3.1 2.95 4 5.3-.75-.8-1.1-.7l-.5-.85-.75-1.1Q1.65 1.35.6.75" fill="#3acab1" fill-rule="evenodd" transform="translate(0 .5)"/><path d="m3.5 3.75.5.85q-.3 0-.45.55-.5-2.25-.95-.35l-.3-1.05q.5-.15 1.2 0" fill="#ce8419" fill-rule="evenodd" transform="translate(0 .5)"/><path d="M4 4.6q.35-.1 1.1.7-.9 2.95-2.65 0l.15-.5q.45-1.9.95.35.15-.55.45-.55" fill="#5a2a04" fill-rule="evenodd" transform="translate(0 .5)"/><path d="m2.6 4.8-.15.5q-.65-.7 0 1.35-.95-1.55-.8 0L1.4 6.2q-.35-2.15.9-2.45l.3 1.05" fill="#9b5e03" fill-rule="evenodd" transform="translate(0 .5)"/><path d="m2.75 2.65.75 1.1q-.7-.15-1.2 0 .05-.55.45-1.1" fill="#7ba164" fill-rule="evenodd" transform="translate(0 .5)"/><path d="M.6.75q1.05.6 2.15 1.9-.4.55-.45 1.1-1.25.3-.9 2.45-.3-.35-.55-.1Q-.7 3.2.6.75" fill="#834701" fill-rule="evenodd" transform="translate(0 .5)"/><path d="m1.4 6.2.25.45q-.15-1.55.8 0-.65-2.05 0-1.35 1.75 2.95 2.65 0 .8 2.35-.6 4.2-3.25.95-3.45-3l-.2-.4q.25-.25.55.1" fill="#421f03" fill-rule="evenodd" transform="translate(0 .5)"/><path d="M5.1 5.3q-.9-2.35-4-5.3m4 5.3q.8 2.35-.6 4.2-3.25.95-3.45-3" fill="none" stroke="#381a02" stroke-linecap="round" stroke-linejoin="round" transform="translate(0 .5)"/></g><g id="o"><path d="M13.2 6.8Q10.65 4.6 11.5.05L13.65 0q2.15 3.6 2.3 6.25l-2.75.55" fill="#b09b4c" fill-rule="evenodd" transform="translate(.5 .5)"/><path d="M1.95.95Q5.05.2 11.5.05q-.85 4.55 1.7 6.75l-1.8.3H11q-1.3-.45-2.05-1.3-1.3.8-1.9 1.7H4.4L5 6.15q-1.7.5-2.5 1.2l-.85-.15-.25-.1q-.25-1.3-.1-2.65.1-1.75.65-3.5" fill="#af7e3c" fill-rule="evenodd" transform="translate(.5 .5)"/><path d="M1.95.95Q1.4 2.7 1.3 4.45q-.15 1.35.1 2.65L.05 6.75q-.2-2.45.75-5.5l1.15-.3m.55 6.4q.8-.7 2.5-1.2L4.4 7.5h-.65L2.5 7.35m4.55.15q.6-.9 1.9-1.7.75.85 2.05 1.3l.45.15q.3 1.1 1.25 1.8l-.45-.3.3 1.3-1.15-.3q-1-.7-.85-2.55l-3.5.3" fill="#b09238" fill-rule="evenodd" transform="translate(.5 .5)"/><path d="m1.65 7.2.85.15-.6.65-.25-.8m2.75.3h2.65q-.55.85-.45 1.75-.9-2-.95-1.2l-.15 2.6-.45-.3Q3.9 9.3 4.4 7.5m6.6-.4h.4l1.8-.3 1.2.75-1.9-.05-1.05-.25L11 7.1m-2.1 6.85q-.55.65-.6 1.4-1.05-2.45.45-3.8-.25 1.5.15 2.4m2.55-6.7-.05-.15.05.15" fill="#fab653" fill-rule="evenodd" transform="translate(.5 .5)"/><path d="M15.55 9.15v.15q-1.3.55-2.85-.25-.95-.7-1.25-1.8l1.05.25q.85 1.15 3.05 1.65" fill="#fad167" fill-rule="evenodd" transform="translate(.5 .5)"/><path d="m1.4 7.1.25.1.25.8.6-.65 1.25.15q.05 3.35 2.05 6.45-3.9-2.7-2.6-6.15-.45.85-1.4 1.45l-1 .35Q.15 8.35.05 6.75l1.35.35m11.15 2.95q.1 2.05-2 2.8l-.3.15q1.25-1.55 1.15-3.25l1.15.3M7.05 7.5l3.5-.3q-.7 2.55-2.85 2.4v-.55q-1.4.95-.9 2.7-.7 0-1.75-1.4l.45.3.15-2.6q.05-.8.95 1.2-.1-.9.45-1.75" fill="#fad15d" fill-rule="evenodd" transform="translate(.5 .5)"/><path d="M15.95 6.25v.85q-.55 1.4-.4 2.05-2.2-.5-3.05-1.65l1.9.05-1.2-.75 2.75-.55M10.25 13l-1.35.95q-.4-.9-.15-2.4-1.5 1.35-.45 3.8-1.5-.65-2.5-1.4-2-3.1-2.05-6.45h.65q-.5 1.8.65 2.85 1.05 1.4 1.75 1.4-.5-1.75.9-2.7v.55q2.15.15 2.85-2.4-.15 1.85.85 2.55.1 1.7-1.15 3.25" fill="#feeb85" fill-rule="evenodd" transform="translate(.5 .5)"/><path d="M11.5.05Q5.05.2 1.95.95l-1.15.3Q-.15 4.3.05 6.75q.1 1.6.75 2.85l1-.35q.95-.6 1.4-1.45-1.3 3.45 2.6 6.15 1 .75 2.5 1.4.05-.75.6-1.4l1.35-.95.3-.15q2.1-.75 2-2.8l-.3-1.3.45.3q-.95-.7-1.25-1.8l-.05-.15m.1-7.05L13.65 0q2.15 3.6 2.3 6.25v.85q-.55 1.4-.4 2.05v.15q-1.3.55-2.85-.25" fill="none" stroke="#80552b" stroke-linecap="round" stroke-linejoin="round" transform="translate(.5 .5)"/></g><g id="v"><path d="m26.2 8.55-.6 1.6q-3.3 3.15-6.25 7.15-2.15 2.8-4.05 5.95l-5.8 6.3q-5-7.5-9.5-16.3Q4.85 10 9.8 7.65q-.4 1.85.5 3.3.45.75 1.45.9 6.7 1.7 14.45-3.3" fill="#bc6601" fill-rule="evenodd" transform="translate(1 1)"/><path d="M22.85 6.35q-4 1.95-8.15 4.7-1.85.8-2.95.8-1-.15-1.45-.9-.9-1.45-.5-3.3 6-3 12.2-4.85-2.75 2.75-3.9 4.65l4.75-1.1" fill="#febe5d" fill-rule="evenodd" transform="translate(1 1)"/><path d="m33.55 4 2.7.35L29.7 10l-1.6 1.95-.6.25q1.35-3.75 6.05-8.2" fill="#b4a65d" fill-rule="evenodd" transform="translate(1 1)"/><path d="M33.55 4q1.25-.95 2.9-1.95 1.8-1 4.05-2.05.3 7.45-1.6 14.65l-2.15-3-.85-.9q2.4-2.45 3.05-4.95-1.15-1.1-2.7-1.45L33.55 4" fill="#391900" fill-rule="evenodd" transform="translate(1 1)"/><path d="M36.45 2.05q-6.6 1-13.6 4.3l-4.75 1.1q1.15-1.9 3.9-4.65Q31.1.1 40.5 0q-2.25 1.05-4.05 2.05" fill="#854f05" fill-rule="evenodd" transform="translate(1 1)"/><path d="M26.2 8.55q-1.35-.3-3.25.75-.6-.85 1.3-2.45-.4-.3-1.95.3l.55-.8q7-3.3 13.6-4.3-1.65 1-2.9 1.95-4.2 2.65-7.95 6.15l.6-1.6" fill="#5a2a04" fill-rule="evenodd" transform="translate(1 1)"/><path d="M23.7 24.55q2.4 1.65 2.7 4.15l-2.3-1.05q-.35-1.55-.4-3.1" fill="#fdb352" fill-rule="evenodd" transform="translate(1 1)"/><path d="m32.85 28.9-1.4-3.15h1.8q.05-2-.95-4.2 1.6.95 3.65 1.5l-3.1 5.85" fill="#804704" fill-rule="evenodd" transform="translate(1 1)"/><path d="m22.85 6.35-.55.8q1.55-.6 1.95-.3-1.9 1.6-1.3 2.45 1.9-1.05 3.25-.75-7.75 5-14.45 3.3 1.1 0 2.95-.8 4.15-2.75 8.15-4.7" fill="#de8801" fill-rule="evenodd" transform="translate(1 1)"/><path d="M15.3 23.25q1.9-3.15 4.05-5.95 3.8-.65 8-6.6-.2 1.65-1.1 3.85-.95 1.5-1.6 3.25l-.3.6q-.45 1.7-.6 3.4l-.05 2.1-.75.15.75.5q.05 1.55.4 3.1l-2.55-1.9q-2.85-.35-6.25-2.5" fill="#b27d39" fill-rule="evenodd" transform="translate(1 1)"/><path d="M25.6 10.15q3.75-3.5 7.95-6.15-4.7 4.45-6.05 8.2l.6-.25q-1.05 1.15-1.85 2.6.9-2.2 1.1-3.85-4.2 5.95-8 6.6 2.95-4 6.25-7.15" fill="#af913b" fill-rule="evenodd" transform="translate(1 1)"/><path d="M23.7 23.9v.65l-.75-.5.75-.15m.4 3.75q1 4.15 3.9 8.25-7.25-4.7-12.7-12.65 3.4 2.15 6.25 2.5l2.55 1.9" fill="#b19339" fill-rule="evenodd" transform="translate(1 1)"/><path d="m9.5 29.55 5.8-6.3Q20.75 31.2 28 35.9l.1.05q-3.25 4.15-7.2 8.2-5.95-6.5-11.4-14.6" fill="#834701" fill-rule="evenodd" transform="translate(1 1)"/><path d="M39.9 15.65Q41.8 8.45 41.5 1q-9.4.1-18.5 2.8-6.2 1.85-12.2 4.85Q5.85 11 1 14.25M33.85 29.9l3.1-5.85m-7.85 12.9q-3.25 4.15-7.2 8.2" fill="none" stroke="#3a1a01" stroke-linecap="round" stroke-linejoin="round" stroke-width="2"/><path d="M25.6 10.15q3.75-3.5 7.95-6.15M15.3 23.25q1.9-3.15 4.05-5.95 2.95-4 6.25-7.15" fill="none" stroke="#3a1a01" stroke-linecap="round" stroke-linejoin="round" transform="translate(1 1)"/><path d="M28.1 11.95 29.7 10l6.55-5.65q1.55.35 2.7 1.45-.65 2.5-3.05 4.95Q34.2 12 32.95 12q.35.9 1.4.75h.05q2.2 1.1 4.3 2.85l1.25 1.1q.8 1.9 1.25 4.35l-4.5.15q-3.85-.4-6.55-2.8l1.4-.15q-1.1-.6-2.35-.8l-2-2.75q1.85-1.3 2.9-1.3l-2.3.15q.95-1.5 4.55-2.75-1.7-.4-4.25 1.15m4.2 9.6q1 2.2.95 4.2h-1.8q-2.05-.45-3.6-2.7l-.2-.4-.3-.5 1.55-1.5-1.9.15q-.1-1.45 2.4-1.5 1.25 1.3 2.9 2.25" fill="#ffec85" fill-rule="evenodd" transform="translate(1 1)"/><path d="m36.75 11.65 2.15 3v.05l1.05 2-1.25-1.1q-2.1-1.75-4.3-2.85.9-.15 2.35-1.1m4.45 9.4.1 1.25q-2.25 1.4-5.35.75-2.05-.55-3.65-1.5-1.65-.95-2.9-2.25-2.5.05-2.4 1.5-1.4.25-3.25 1 2.5-2.75 6.4-3.4 2.7 2.4 6.55 2.8l4.5-.15m-9.2 5.8.85 2.05q1.35 4.7-.2 8-2.2.75-4.55-.95l-.1-.05q-2.9-4.1-3.9-8.25l2.3 1.05q-.3-2.5-2.7-4.15v-.65q2.05-.5 3.65-1.75l.3.5q-.3-.3-.2.95.05 1.7 4.55 3.25m-3.9-14.9q2.55-1.55 4.25-1.15-3.6 1.25-4.55 2.75l2.3-.15q-1.05 0-2.9 1.3l2 2.75-4.55.35q.65-1.75 1.6-3.25.8-1.45 1.85-2.6" fill="#fed351" fill-rule="evenodd" transform="translate(1 1)"/><path d="m35.9 10.75.85.9q-1.45.95-2.35 1.1h-.05q-1.05.15-1.4-.75 1.25 0 2.95-1.25m-4.45 15 .55 1.1q-4.5-1.55-4.55-3.25-.1-1.25.2-.95l.2.4q1.55 2.25 3.6 2.7" fill="#b0923a" fill-rule="evenodd" transform="translate(1 1)"/><path d="M29.2 17.45q1.25.2 2.35.8l-1.4.15q-3.9.65-6.4 3.4 1.85-.75 3.25-1l1.9-.15-1.55 1.5q-1.6 1.25-3.65 1.75l.05-2.1q.15-1.7.6-3.4l.3-.6 4.55-.35" fill="#fdb352" fill-rule="evenodd" transform="translate(1 1)"/><path d="M36.25 4.35 33.55 4m2.7.35q1.55.35 2.7 1.45-.65 2.5-3.05 4.95l.85.9 2.15 3v.05l1.05 2q.8 1.9 1.25 4.35l.1 1.25q-2.25 1.4-5.35.75-2.05-.55-3.65-1.5 1 2.2.95 4.2h-1.8l.55 1.1.85 2.05q1.35 4.7-.2 8-2.2.75-4.55-.95l-.1-.05q-7.25-4.7-12.7-12.65M32.95 12q1.25 0 2.95-1.25m-6.5 8.55q1.25 1.3 2.9 2.25m-4.45 1.5q1.55 2.25 3.6 2.7" fill="none" stroke="#80552b" stroke-linecap="round" stroke-linejoin="round" transform="translate(1 1)"/></g><g id="w"><path d="M11.65 3.55q-.3 1.4-.25 2.8.15 2.65 1.7 5.05-2.15-2.05-6.55-3Q7.1 4.2 8.35 0l2.5 2.5.8 1.05" fill="#3a1a01" fill-rule="evenodd" transform="translate(.5 1)"/><path d="M8.35 0Q16.4 1.55 24 5.95q-1.25 1.2.3 3.1l-3.35-1.3.75.95q-5.75-4.85-10.85-6.2L8.35 0m1.6 37.65q.9.05 2.55-1.25l-.95 1.2q-.6.8-.95 1.8l-.65-1.75-1.2-3.4 2.65-1.1-.5.8q-1.05 1.8-.95 3.7M6.25 22.3q.9.55 2.5.7-1.1.55-2.1 2.1l-.4-2.8" fill="#854f07" fill-rule="evenodd" transform="translate(.5 1)"/><path d="m15 6.7-3.35-3.15-.8-1.05q5.1 1.35 10.85 6.2l1.25 2.5L20.6 10q.5.8-.3 1.2l-2.25-1.35L15 6.7" fill="#5a2a02" fill-rule="evenodd" transform="translate(.5 1)"/><path d="m24 5.95 5.15 3.4q1 4.55-2.05 4.5-2.8-2.95-5.4-5.15l-.75-.95 3.35 1.3q-1.55-1.9-.3-3.1" fill="#febe5c" fill-rule="evenodd" transform="translate(.5 1)"/><path d="m19.65 16.35-.15-.6q-1.4-4.8-4.5-9.05l3.05 3.15q3.95 4.35 6.45 8.7-2.55-.25-4.85-2.2" fill="#b09238" fill-rule="evenodd" transform="translate(.5 1)"/><path d="M18.6 28.9q1.2-4.8 1.65-9.55l-.6-3q2.3 1.95 4.85 2.2 1.9 3.3 3 6.6Q22.95 38 13.05 44.7q3.65-7.95 5.55-15.8" fill="#b27d39" fill-rule="evenodd" transform="translate(.5 1)"/><path d="M18.6 28.9q-1.5 1.85-4.15 2.3l.15-.25.55-1.3q.95-2.65.95-4.45l-1.5.4q-2.15.75-4.45 3.1.3-3.1 3.6-4.95 1.05-.6 2.35-1.05-6.6-1.9-8.6-4.95 4.3 2.75 9.15 3.15l1.75.05q-1.75-1.3-2.45-2.5l3.35.55q-1.85-2.6-2.75-4.95-.6-1.4-.85-2.7 1.9 3.15 3.95 5l.6 3q-.45 4.75-1.65 9.55" fill="#feb252" fill-rule="evenodd" transform="translate(.5 1)"/><path d="M29.15 9.35q3.8 2.7 7.5 6.25Q33.6 38.75 15 48.55l-1.95-3.75v-.1q9.9-6.7 14.45-19.55-1.1-3.3-3-6.6-2.5-4.35-6.45-8.7l2.25 1.35q4.5 2.55 6.8 2.65 3.05.05 2.05-4.5" fill="#bc6601" fill-rule="evenodd" transform="translate(.5 1)"/><path d="M20.3 11.2q.8-.4.3-1.2l2.35 1.2-1.25-2.5q2.6 2.2 5.4 5.15-2.3-.1-6.8-2.65" fill="#dc8801" fill-rule="evenodd" transform="translate(.5 1)"/><path d="m5.1 18.3.8-.2.1.05q2.4 2.3 4.4 3.2-2.2 0-4.35-1.95l-.95-1.1" fill="#b29338" fill-rule="evenodd" transform="translate(.5 1)"/><path d="M7.05 9.4Q7.6 5.2 8.85 1 16.9 2.55 24.5 6.95l5.15 3.4q3.8 2.7 7.5 6.25M15.5 49.55l-1.95-3.75m-3.1-7.15.65 1.75m-1.85-5.15 1.2 3.4M6.75 23.3l.4 2.8m-.75-7-.8.2" fill="none" stroke="#3a1a01" stroke-linecap="round" stroke-linejoin="round" stroke-width="2"/><path d="m15 6.7-3.35-3.15M15 6.7l3.05 3.15q3.95 4.35 6.45 8.7 1.9 3.3 3 6.6" fill="none" stroke="#3a1a01" stroke-linecap="round" stroke-linejoin="round" transform="translate(.5 1)"/><path d="M19.5 15.75Q15 9.2 11.4 6.35q-.05-1.4.25-2.8L15 6.7q3.1 4.25 4.5 9.05" fill="#b3a55e" fill-rule="evenodd" transform="translate(.5 1)"/><path d="M16.55 14.05q-2.05-2.3-3.45-2.65-1.55-2.4-1.7-5.05 3.6 2.85 8.1 9.4l.15.6q-2.05-1.85-3.95-5 .25 1.3.85 2.7" fill="#fdec84" fill-rule="evenodd" transform="translate(.5 1)"/><path d="M13.1 11.4q1.4.35 3.45 2.65.9 2.35 2.75 4.95l-3.35-.55q.7 1.2 2.45 2.5l-1.75-.05q-1.2-3.75-5.55-6.4 2.3.35 5.45 3.45-2.25-6.45-10-9.55 4.4.95 6.55 3" fill="#fed353" fill-rule="evenodd" transform="translate(.5 1)"/><path d="M6.55 8.4q7.75 3.1 10 9.55-3.15-3.1-5.45-3.45 4.35 2.65 5.55 6.4-4.85-.4-9.15-3.15 2 3.05 8.6 4.95-1.3.45-2.35 1.05-3.3 1.85-3.6 4.95 2.3-2.35 4.45-3.1-.3 4.55-6.4 6.85-2 .7-4.95 1.25 0-4.15 3.3-8.55h.1v-.05q1-1.55 2.1-2.1-1.6-.15-2.5-.7v-.1q-2.55-1-4.4-3.15l3.25-.75.95 1.1q2.15 1.95 4.35 1.95-2-.9-4.4-3.2l-.1-.05q-4.05-4.05-5.9-9 2.6-1 6.55-.7m3.85 12.95.2.05-.05-.05h-.15m1.3 1.25-2.95.4 2.95-.4" fill="#ffec85" fill-rule="evenodd" transform="translate(.5 1)"/><path d="m14.6 25.6 1.5-.4q0 1.8-.95 4.45-1.4 2.1-3.75 3.5l-2.65 1.1q-3.8.9-5.4.6l-.1-1.15q2.95-.55 4.95-1.25 6.1-2.3 6.4-6.85" fill="#ffd454" fill-rule="evenodd" transform="translate(.5 1)"/><path d="m15.15 29.65-.55 1.3-.15.25q-1.7 3.65-3.55 2.75l.5-.8q2.35-1.4 3.75-3.5M12.5 36.4q.95-1.05 2.3-1.45-2.35 4-3.25 2.65l.95-1.2" fill="#b29338" fill-rule="evenodd" transform="translate(.5 1)"/><path d="M14.45 31.2q2.65-.45 4.15-2.3-1.9 7.85-5.55 15.8v.1q-1.5.8-3.05.8-.55-3.05.6-6.1v-.1q.35-1 .95-1.8.9 1.35 3.25-2.65-1.35.4-2.3 1.45-1.65 1.3-2.55 1.25-.1-1.9.95-3.7 1.85.9 3.55-2.75" fill="#ffd452" fill-rule="evenodd" transform="translate(.5 1)"/><path d="M13.1 11.4q-2.15-2.05-6.55-3Q2.6 8.1 0 9.1q1.85 4.95 5.9 9l.1.05q2.4 2.3 4.4 3.2l.2.05m.8-15.05q.15 2.65 1.7 5.05m-1.7-5.05q-.05-1.4.25-2.8m1.4 41.15q9.9-6.7 14.45-19.55m-16.6 8.8.5-.8-2.65 1.1q-3.8.9-5.4.6l-.1-1.15q0-4.15 3.3-8.55m.1 0v-.05q1-1.55 2.1-2.1-1.6-.15-2.5-.7v-.1q-2.55-1-4.4-3.15l3.25-.75m6.3 14.85q2.35-1.4 3.75-3.5m-4.25 4.3q-1.05 1.8-.95 3.7.9.05 2.55-1.25.95-1.05 2.3-1.45m-3.25 2.65q-.6.8-.95 1.8v.1q-1.15 3.05-.6 6.1 1.55 0 3.05-.8v-.1m-1.5-7.1.95-1.2M8.75 23l2.95-.4" fill="none" stroke="#80552b" stroke-linecap="round" stroke-linejoin="round" transform="translate(.5 1)"/></g><g id="r"><path d="M15.05 49.7q-.6-3.1-.7-6.7l.1-1.5q1.15-2.05 2.5-3.45l.3-.35q5.15-5.3 11.6-1.7 5.95 3.4 14.65-3.25 10.2-5.1 16.95 3.85 5.6 8.5-.2 17.65-6.25 8.6-18.7 5-7.35-4.25-11.9-2.2-.5.15-.95.5-4.75 3-7.55 1.3-3.25-3.75-6.1-9.15l2.5-.15-2.5.15" fill="#5a2a02" fill-rule="evenodd" transform="translate(-9.05 -11.9)"/><path d="M14.45 41.5q.35-12.1 8.45-20 5.75-5.65 13.45-7.6l7.55-1 3.75.15Q42 14.3 37.4 16.6q4.45 3 3.5 7.2-1.15 5-4.75 6.9-9.5 3.6-14.35-4.05-3.7 5.4-4.55 11.05l-.3.35q-1.35 1.4-2.5 3.45" fill="#ffbf5d" fill-rule="evenodd" transform="translate(-9.05 -11.9)"/><path d="m42.4 68.95-4.6.05h-.05q6.7-4.05 3.8-9.75 12.45 3.6 18.7-5 5.8-9.15.2-17.65-6.75-8.95-16.95-3.85Q34.8 39.4 28.85 36q-6.45-3.6-11.6 1.7.85-5.65 4.55-11.05 4.85 7.65 14.35 4.05 3.6-1.9 4.75-6.9.95-4.2-3.5-7.2 4.6-2.3 10.25-3.55 2.95.3 5.9 1.25 3.55 1 7 3.2 12.7 15.2 4.9 33.75Q63.5 55.55 60 59l-.25.3q-6.35 6.25-17.35 9.65m-13.75-1.9-3.4-1.8q-.75 1.1-2.05 1.35l-.3-.3.45-2.45q.05-1.6-.45-1.5l-3.15 1.35.55-1 1.55-1.05q.95-1.45-1.4-.55-.8.25-1.9.8.5-.8-2.65.45.25-.9 1.65-1.7l1.5-.55.9-.85-3.75-.4 1.1-1.75q-3 1.55-5.8 2 .95-1.25 2.85-2.75-.85-.55-3.35.85.5-1.1 1.3-2 3.15-.65 3.9-1.35.35-.35.1-.65l-.15-.15-.25-.05-2.1.2q1.9-2.8-2 .1.5-2.9 3.25-3.6 2.85 5.4 6.1 9.15 2.8 1.7 7.55-1.3.45-.35.95-.5-4.2 4.15-1 10m48-17.9 1.75.3q-4.1 1.9-1.1 1.8 3.8.35 6.55 1.35-6.5 1.05-10.75.25l-2.65-.8q.9-.8 2.3-1.55l1.6-.8 1.05-.55h1.25M25.7 64.1l-.45 1.15.45-1.15" fill="#de8801" fill-rule="evenodd" transform="translate(-9.05 -11.9)"/><path d="m85.85 52.25 1.15.95q-3.15.25-4.85 1.05-1.4.95-2.65 1.3l-3.65-.2 3.65.2q-1.9 2.05-5.3 2.05-.8-.5-1.6-.55-.95-.6-1.85-.75l-2.2.3.45 1.55q.75 2.2 2.8 4.85l-.8-.25q.55.4.65 1.65-3-.8-6.5-3.45l-1.4-1.1.45 1.5q.25 1.35-.15 2.8-1.4-.7-2.5-2.25Q60.7 60.65 60 59q3.5-3.45 5.45-7.75 7.8-18.55-4.9-33.75 2.5 1.5 4.75 3.75 3.85 3.5 6.2 7.7Q74.65 38.8 74 46.3q-.95.2-1.25.65l-.6 1.25 2.8-.8 5.15-.75.15.15q-.4 1.05-3.6 2.35H75.4l-1.05.55-1.6.8q-1.4.75-2.3 1.55l2.65.8q4.25.8 10.75-.25l2-.35M53.25 66.8q-3.95 1.35-9.6 2l-1.25.15q11-3.4 17.35-9.65l.35 1.7q-3.7 3.4-6.85 5.8M75.4 49.15l-.9.15q-1.25.25-1.75 1.2.5-.95 1.75-1.2l.9-.15M71 62.75q-2-.85-4.05-2.9l-.6-.6.6.6Q69 61.9 71 62.75" fill="#bc6601" fill-rule="evenodd" transform="translate(-9.05 -11.9)"/><path d="M71.5 28.95q3.25 5.8 3.65 12.8.15 2.25-.05 4.35l-1.1.2q.65-7.5-2.5-17.35" fill="#08fbdf" fill-rule="evenodd" transform="translate(-9.05 -11.9)"/><path d="M78.4 49.45q4.65.9 7.45 2.8l-2 .35q-2.75-1-6.55-1.35-3 .1 1.1-1.8" fill="#ffc059" fill-rule="evenodd" transform="translate(-9.05 -11.9)"/><path d="M82.15 54.25q-1.4 3.9-6.4 4.9L74.2 57.6q3.4 0 5.3-2.05 1.25-.35 2.65-1.3M71.65 64.4v1.15q-1.35.25-2.9-.65-2.6-1.6-4.1-3.7l-.9-1.35 1.4 1.1q3.5 2.65 6.5 3.45m-7.6-.25-.3.75q-2.25-.95-3.3-3-1.95 3.05-7.2 4.9 3.15-2.4 6.85-5.8l-.35-1.7.25-.3q.7 1.65 1.55 2.9 1.1 1.55 2.5 2.25m-3.6-2.25-.35-.9.35.9" fill="#32e8cf" fill-rule="evenodd" transform="translate(-9.05 -11.9)"/><path d="M75.1 46.1q3.75-.55 5 .55l-5.15.75-2.8.8.6-1.25q.3-.45 1.25-.65l1.1-.2" fill="#d6810c" fill-rule="evenodd" transform="translate(-9.05 -11.9)"/><path d="M75.75 59.15q.8 1.25 1.05 2.45-2.9-.3-5.75-3.15-.15 1.95 3.25 4.9L71.8 63q-2.05-2.65-2.8-4.85l-.45-1.55 2.2-.3q.9.15 1.85.75.8.05 1.6.55l1.55 1.55" fill="#df8900" fill-rule="evenodd" transform="translate(-9.05 -11.9)"/><path d="M76.8 61.6V63l-2.5.35q-3.4-2.95-3.25-4.9 2.85 2.85 5.75 3.15" fill="#fec05d" fill-rule="evenodd" transform="translate(-9.05 -11.9)"/><path d="M37.75 69q-5-.3-9.1-1.95-3.2-5.85 1-10 4.55-2.05 11.9 2.2 2.9 5.7-3.8 9.75" fill="#9e5f02" fill-rule="evenodd" transform="translate(-9.05 -11.9)"/><path d="M22.9 66.3q-.5-.75-.1-2.3-2.2 1.2-2.85.7-.45-.4-.2-1l3.15-1.35q.5-.1.45 1.5l-.45 2.45m-2.6-3.6-.05.05-3.1.4 1.4-1.25q1.1-.55 1.9-.8 2.35-.9 1.4.55L20.3 62.7m-2.75-2.05q-4.75.65-6.7-.6l.65-.95q2.8-.45 5.8-2l-1.1 1.75 3.75.4-.9.85-1.5.55M12.3 55.2l1.5-1.45-1.4.05q.7-.45 1.4-.6l2.1-.2.25.05.15.15q.25.3-.1.65-.75.7-3.9 1.35m3.85-2.15-2.35.7 2.35-.7" fill="#bd6704" fill-rule="evenodd" transform="translate(-9.05 -11.9)"/><path d="M17.15 63.15q-1.4 0-1.3-.55l.05-.25q3.15-1.25 2.65-.45l-1.4 1.25m-6.3-3.1-.8-.75q.35-1.15.95-2.1 2.5-1.4 3.35-.85-1.9 1.5-2.85 2.75l-.65.95m1.55-6.25q-.7-.05-.6-.45v-.05q3.9-2.9 2-.1-.7.15-1.4.6" fill="#ffbf5b" fill-rule="evenodd" transform="translate(-9.05 -11.9)"/><path d="m20.3 62.7-.05.05m52.5-12.25q.5-.95 1.75-1.2l.9-.15h1.25M74 46.3q-.95.2-1.25.65m2.35-.85-1.1.2M20.3 62.7l1.55-1.05m-4.3-1 1.5-.55m-5.25-6.35 2.35-.7m63.35 2.5-3.65-.2m3.65.2q1.25-.35 2.65-1.3m-9.55 2.8q.8.05 1.6.55l1.55 1.55m-9.4.1.6.6Q69 61.9 71 62.75M59.75 59.3l.35 1.7.35.9m-42.9-12.35-2.5.15" fill="none" stroke="#391902" stroke-linecap="round" stroke-linejoin="round" transform="translate(-9.05 -11.9)"/><path d="m76.8 40.35 1.15.95q-3.15.25-4.85 1.05-1.4 3.9-6.4 4.9.8 1.25 1.05 2.45v1.4l-2.5.35-2.5-.35-.8-.25q.55.4.65 1.65v1.15q-1.35.25-2.9-.65-2.6-1.6-4.1-3.7l-.9-1.35.45 1.5q.25 1.35-.15 2.8l-.3.75q-2.25-.95-3.3-3-1.95 3.05-7.2 4.9-3.95 1.35-9.6 2l-1.25.15-4.6.05h-.05q-5-.3-9.1-1.95l-3.4-1.8q-.75 1.1-2.05 1.35l-.3-.3q-.5-.75-.1-2.3-2.2 1.2-2.85.7-.45-.4-.2-1l.55-1m-.05.05-3.1.4q-1.4 0-1.3-.55l.05-.25q.25-.9 1.65-1.7-4.75.65-6.7-.6L1 47.4q.35-1.15.95-2.1.5-1.1 1.3-2l1.5-1.45-1.4.05q-.7-.05-.6-.45v-.05q.5-2.9 3.25-3.6-.6-3.1-.7-6.7l.1-1.5q.35-12.1 8.45-20Q19.6 3.95 27.3 2l7.55-1 3.75.15q2.95.3 5.9 1.25 3.55 1 7 3.2 2.5 1.5 4.75 3.75 3.85 3.5 6.2 7.7 3.25 5.8 3.65 12.8.15 2.25-.05 4.35 3.75-.55 5 .55l.15.15q-.4 1.05-3.6 2.35l1.75.3q4.65.9 7.45 2.8m-60.6 13 .45-1.15" fill="none" stroke="#391902" stroke-linecap="round" stroke-linejoin="round" stroke-width="2"/><path d="m39.15 57.75.35.3q2.2 2.2 2.05 4.7-.2 2.45-2.5 4.05-2.25 1.65-5.45 1.35-1.95-.25-3.65-.9 4.4.6 7.95-2.05 3.6-2.8 1.25-7.45" fill="#e5cfc4" fill-rule="evenodd" transform="translate(-9.05 -11.9)"/><path d="M32.35 60.65q4.3.45 4.6-1.7.2-2.5-3.45-2.45l-1.5-.4 1.6-.15q3.35-.1 5.55 1.8 2.35 4.65-1.25 7.45-3.55 2.65-7.95 2.05-1.05-.45-1.9-1.05-2.35-1.5-2.65-4.15-.4-2.65 2.1-4.35.55-.35 1.2-.65l-.35 1v.65q.05.9.95 1.35 1.25.6 2.5.6h.55m-.35.55v-.55.55q-.3 2.95-2.65 2.25.6 1.25 2.95.5 1.7 1.6 3.55-.6Q32.1 64.6 32 61.2" fill="#fcebe4" fill-rule="evenodd" transform="translate(-9.05 -11.9)"/><path d="M32.35 60.65q.9-.15 1.55-.7.9-.65.9-1.5 0-.9-.9-1.55l-.4-.4q3.65-.05 3.45 2.45-.3 2.15-4.6 1.7" fill="#aea39d" fill-rule="evenodd" transform="translate(-9.05 -11.9)"/><path d="m33.5 56.5.4.4q.9.65.9 1.55 0 .85-.9 1.5-.65.55-1.55.7h-.55q-1.25 0-2.5-.6-.9-.45-.95-1.35 1.8 1.15 3.2.3 1.4-.8.25-2.9h.2l1.5.4" fill="#381c04" fill-rule="evenodd" transform="translate(-9.05 -11.9)"/><path d="M31.8 56.1q1.15 2.1-.25 2.9-1.4.85-3.2-.3v-.65l.35-1q.35-.6.9-.75l2.2-.2m-1.5 1.35-.2-.4q-.15-.15-.35-.15l-.45.15q-.15.2-.15.4 0 .25.15.4l.45.2.35-.2.2-.4" fill="#683204" fill-rule="evenodd" transform="translate(-9.05 -11.9)"/><path d="m30.3 57.45-.2.4-.35.2-.45-.2q-.15-.15-.15-.4 0-.2.15-.4l.45-.15q.2 0 .35.15l.2.4" fill="#fffffd" fill-rule="evenodd" transform="translate(-9.05 -11.9)"/><path d="M32 61.2q.1 3.4 3.85 2.15-1.85 2.2-3.55.6-2.35.75-2.95-.5 2.35.7 2.65-2.25" fill="#a2918a" fill-rule="evenodd" transform="translate(-9.05 -11.9)"/><path d="m33.5 56.5.4.4q.9.65.9 1.55 0 .85-.9 1.5-.65.55-1.55.7H32v.55q.1 3.4 3.85 2.15M33.5 56.5l-1.5-.4h-.2l-2.2.2q-.55.15-.9.75l-.35 1v.65q.05.9.95 1.35 1.25.6 2.5.6h.2m-2.65 2.8q2.35.7 2.65-2.25" fill="none" stroke="#351901" stroke-linecap="round" stroke-linejoin="round" transform="translate(-9.05 -11.9)"/><path d="M53.95 57.8q1.6 3-3.3 4.1l-2.2-.6q-1.35-.5-1.55-1.25-.25-.7 1.3-1.6 1.5-.95 3.85-.9l1.9.25m-4.65 1.95.25-.55-.25-.6-.6-.2-.55.2q-.25.2-.3.65v.65q.05.3.65.25l.8-.4m-27.2 1.2-1.7-.05q-1-.15-1.3-.85-.35-.5.6-1.4.95-.95 2.7-1.1l1.4-.05q1.1 2.35-1.7 3.45m-.95-1.85-.2-.5-.45-.15q-.3 0-.5.15-.15.2-.15.5l.15.45.5.2.45-.2.2-.45" fill="#fc8889" fill-rule="evenodd" transform="translate(-9.05 -11.9)"/><path d="m49.3 59.75-.8.4q-.6.05-.65-.25v-.65q.05-.45.3-.65l.55-.2.6.2.25.6-.25.55m-28.15-.65-.2.45-.45.2-.5-.2-.15-.45q0-.3.15-.5.2-.15.5-.15l.45.15.2.5" fill="#ffcdce" fill-rule="evenodd" transform="translate(-9.05 -11.9)"/><path d="M50.65 61.9q4.9-1.1 3.3-4.1.85.2 1.55.65 1.1.75.85 1.55-.3.8-1.6 1.3-1.3.6-3.15.6h-.95M23.8 57.5l1.05.2q.5.3.5.95 0 .55-.8 1.1-.75.75-2 1.05l-.45.15q2.8-1.1 1.7-3.45" fill="#fc6e6c" fill-rule="evenodd" transform="translate(-9.05 -11.9)"/><path d="M51.25 34.9q4.35.65 7.3 3.85 2.95 3.15 3 7.75 0 4.6-2.9 7.5-2.95 3.05-7.25 3.25-4.25.15-7.7-2.7-3.45-2.95-3.75-7.45-.3-4.5 3.3-8.65 3.6-4.2 8-3.55M27.4 41.15q2.05 2.2 2.7 5.75.65 3.45-.3 6.75-1.15 3.3-4.25 2.8-3.15-.5-5.3-2.6-1.85-1.6-2.7-4.3-.3-.75-.45-1.5-.95-3.8.5-6.95 1.35-3.25 4.5-2.65 3.1.5 5.3 2.7" fill="#3f1d02" fill-rule="evenodd" transform="translate(-9.05 -11.9)"/><path d="M17.2 44.75q.05-1.2.4-2.3l.4-.8.2-.3q.6-.5 1.4-.5.8 0 1.55.55-1.45.3-2.8 1.8-.6.65-1.1 1.6l-.05-.05" fill="#b2b2b0" fill-rule="evenodd" transform="translate(-9.05 -11.9)"/><path d="M28.3 45.45q.85 3.3-.1 6.05-.85 2.7-3.15 3.3-2.2.6-4.4-1.25t-3.1-5.15q-.45-1.9-.35-3.6h.05l.5.9q.7.7 1.55.85 1.1 3.3 3.05 5.8 1 1.15 1.3.7l-.5-.8q-1.4-3.4-1.35-7.1.4-.65.4-1.45l-.15-1.1.15-1.25q2.65.2 6.1 4.1m-4.55.3.2.6.65.35.75-.05q.35-.25.3-.75l-.45-.8q-.2-.25-.6-.25l-.65.25-.2.65m-.6 3.55-.1.3.1.2.3.15.2-.15.15-.2-.15-.3-.2-.1-.3.1" fill="url(#s)" fill-rule="evenodd" transform="translate(-9.05 -11.9)"/><path d="M17.25 44.8q.5-.95 1.1-1.6 1.35-1.5 2.8-1.8l.2.25.7.95.15 1.1q0 .8-.4 1.45l-.45.55q-.7.85-1.75.85h-.3q-.85-.15-1.55-.85l-.5-.9m24.65-3.7q2.25-2.2 5-2.75l.8-.25.3.3q1 1.05.95 2.95-.1 1.9-.8 3-.7.9-2 1.35l-.5.15q-1.8.25-2.9-1-1.15-1.25-.95-3l.1-.75" fill="#fff" fill-rule="evenodd" transform="translate(-9.05 -11.9)"/><path d="M18.2 41.35q.95-1.75 2.65-2.2l1.85-.1-.5 2.3-1.05.05q-.75-.55-1.55-.55t-1.4.5m28.85-3.6.65-2.3 2.4-.3q1.95 0 3.55.7-1.1 1-1.9 2.4l-.3-.05-3.75-.1-.65-.35" fill="#012d20" fill-rule="evenodd" transform="translate(-9.05 -11.9)"/><path d="M22.7 39.05q1.3.25 2.5 1.35 2.3 1.85 3.1 5.05-3.45-3.9-6.1-4.1l.5-2.3m24.35-1.3q-.75-.4-1.55-.25-1.5.25-2.5 1.4-.8.9-1.1 2.2l-1.2 1.25q.65-2.25 2.45-4.15 1.95-2.05 4.55-2.75l-.65 2.3m4.7.5q.8-1.4 1.9-2.4 1.9.7 3.45 2.35 2.85 3.05 2.85 7.35v.55q-2.25-6.75-8.2-7.85" fill="#014516" fill-rule="evenodd" transform="translate(-9.05 -11.9)"/><path d="M41.9 41.1q.3-1.3 1.1-2.2 1-1.15 2.5-1.4.8-.15 1.55.25l-.15.6q-2.75.55-5 2.75" fill="#b2b0b1" fill-rule="evenodd" transform="translate(-9.05 -11.9)"/><path d="m47.7 38.1 3.75.1.3.05q-3.15 5-1.65 13.7l.6 1.3q-.9.25-1.9-1.4-2.2-2.5-2.65-6.15 1.3-.45 2-1.35.7-1.1.8-3 .05-1.9-.95-2.95l-.3-.3" fill="#00402f" fill-rule="evenodd" transform="translate(-9.05 -11.9)"/><path d="m40.7 42.35 1.2-1.25-.1.75q-.2 1.75.95 3 1.1 1.25 2.9 1l.5-.15q.45 3.65 2.65 6.15 1 1.65 1.9 1.4l-.6-1.3q-1.5-8.7 1.65-13.7 5.95 1.1 8.2 7.85-.2 3.9-2.85 6.7-2.85 3.1-7 3.1-4.1 0-6.95-3.1-2.9-3-2.9-7.25 0-1.7.45-3.2m12.95 1.4q-.6-.2-1.05.3-.5.55-.3 1.2.15.6.45.85.4.4.9.4t.8-.4q.35-.25.35-.8l-.25-.95q-.4-.45-.9-.6M51.5 48.7l-.15-.35q-.15-.15-.35-.15-.2 0-.35.15-.15.15-.15.35l.15.35.35.15.35-.15.15-.35" fill="url(#t)" fill-rule="evenodd" transform="translate(-9.05 -11.9)"/><path d="M53.65 43.75q.5.15.9.6l.25.95q0 .55-.35.8-.3.4-.8.4t-.9-.4q-.3-.25-.45-.85-.2-.65.3-1.2.45-.5 1.05-.3M51.5 48.7l-.15.35-.35.15-.35-.15-.15-.35q0-.2.15-.35.15-.15.35-.15.2 0 .35.15l.15.35m-27.75-2.95.2-.65.65-.25q.4 0 .6.25l.45.8q.05.5-.3.75l-.75.05-.65-.35-.2-.6m-.6 3.55.3-.1.2.1.15.3-.15.2-.2.15-.3-.15-.1-.2.1-.3" fill="#feffff" fill-rule="evenodd" transform="translate(-9.05 -11.9)"/><path d="M21.8 45.15q-.05 3.7 1.35 7.1l.5.8q-.3.45-1.3-.7-1.95-2.5-3.05-5.8h.3q1.05 0 1.75-.85l.45-.55" fill="#01402f" fill-rule="evenodd" transform="translate(-9.05 -11.9)"/><path d="M17.2 44.75q.05-1.2.4-2.3l.4-.8.2-.3q.95-1.75 2.65-2.2l1.85-.1q1.3.25 2.5 1.35 2.3 1.85 3.1 5.05.85 3.3-.1 6.05-.85 2.7-3.15 3.3-2.2.6-4.4-1.25t-3.1-5.15q-.45-1.9-.35-3.6v-.05m30.5-9.3q-2.6.7-4.55 2.75-1.8 1.9-2.45 4.15-.45 1.5-.45 3.2 0 4.25 2.9 7.25 2.85 3.1 6.95 3.1 4.15 0 7-3.1 2.65-2.8 2.85-6.7v-.55q0-4.3-2.85-7.35-1.55-1.65-3.45-2.35-1.6-.7-3.55-.7l-2.4.3z" fill="none" stroke="#381800" stroke-linecap="round" stroke-linejoin="round" transform="translate(-9.05 -11.9)"/></g><use ffdec:characterId="2" height="71.05" width="61.55" xlink:href="#u" id="e"/><use ffdec:characterId="17" height="46.15" width="42.8" xlink:href="#v" id="p"/><use ffdec:characterId="19" height="50.55" width="38.15" xlink:href="#w" id="q"/><radialGradient cx="0" cy="0" gradientTransform="translate(22.5 43.25) scale(.0145)" gradientUnits="userSpaceOnUse" id="s" r="819.2" spreadMethod="pad"><stop offset="0" stop-color="#02631e"/><stop offset="1" stop-color="#66ff93"/></radialGradient><radialGradient cx="0" cy="0" gradientTransform="translate(51.35 41.2) scale(.0191)" gradientUnits="userSpaceOnUse" id="t" r="819.2" spreadMethod="pad"><stop offset="0" stop-color="#02631e"/><stop offset="1" stop-color="#66ff93"/></radialGradient><path d="M0 71.05V0h61.55v71.05H0" fill="url(#x)" fill-rule="evenodd" id="u"/><path d="M51.25 15.65q-8.8 2.75-21.2 2.75-12.4 0-21.25-2.75Q0 13 0 9.2q0-3.8 8.8-6.55Q17.65 0 30.05 0t21.2 2.65q8.8 2.75 8.8 6.55t-8.8 6.45" fill-opacity=".353" fill-rule="evenodd" id="f"/><linearGradient gradientTransform="matrix(.0376 0 0 .0434 30.75 35.5)" gradientUnits="userSpaceOnUse" id="x" spreadMethod="pad" x1="-819.2" x2="819.2"><stop offset="0" stop-color="#ffc" stop-opacity="0"/><stop offset="1" stop-color="#fee481" stop-opacity="0"/></linearGradient></defs></svg>