<svg xmlns:ffdec="https://www.free-decompiler.com/flash" xmlns:xlink="http://www.w3.org/1999/xlink" ffdec:objectType="frame" height="90" width="90" xmlns="http://www.w3.org/2000/svg"><use ffdec:characterId="46" height="76.65" transform="translate(-2.2 8.1)" width="92.85" xlink:href="#a"/><defs><g id="a" transform="translate(2.2 -8.1)"><use ffdec:characterId="1" height="9.8" transform="matrix(.7197 0 0 1.3559 27.928 71.106)" width="55.5" xlink:href="#b"/><use ffdec:characterId="3" height="41.5" transform="translate(30.012 49.705) scale(.2287)" width="51.55" xlink:href="#c"/><use ffdec:characterId="5" height="242.6" transform="translate(10.775 19.363) scale(.2287)" width="130.15" xlink:href="#d"/><use ffdec:characterId="7" height="97" transform="translate(3.345 26.16) scale(.2287)" width="75.7" xlink:href="#e"/><use ffdec:characterId="9" height="50.9" transform="translate(25.348 49.88) scale(.2287)" width="38.55" xlink:href="#f"/><use ffdec:characterId="12" height="72.1" transform="translate(78.925 47.407) scale(.2287)" width="42.2" xlink:href="#g"/><use ffdec:characterId="14" height="221.75" transform="translate(47.123 23.852) scale(.2287)" width="172.1" xlink:href="#h"/><use ffdec:characterId="16" height="78.7" transform="translate(32.797 60.302) scale(.2287)" width="56" xlink:href="#i"/><use ffdec:characterId="18" height="99.7" transform="translate(36.866 49.85) scale(.2287)" width="81.25" xlink:href="#j"/><use ffdec:characterId="20" height="85.45" transform="translate(46.743 60.586) scale(.2287)" width="62.6" xlink:href="#k"/><use ffdec:characterId="22" height="46.3" transform="translate(46.627 43.006) scale(.2287)" width="55.3" xlink:href="#l"/><use ffdec:characterId="24" height="82.6" transform="translate(49.528 48.663) scale(.2287)" width="67.15" xlink:href="#m"/><use ffdec:characterId="26" height="57.55" transform="translate(38.77 55.526) scale(.2287)" width="33.55" xlink:href="#n"/><use ffdec:characterId="28" height="52.3" transform="translate(29.013 55.37) scale(.2287)" width="52.85" xlink:href="#o"/><use ffdec:characterId="30" height="59.95" transform="translate(53.23 16.951) scale(.2287)" width="64.95" xlink:href="#p"/><use ffdec:characterId="32" height="100.85" transform="translate(29.213 8.975) scale(.2287)" width="49.3" xlink:href="#q"/><use ffdec:characterId="39" height="110.1" transform="translate(30.633 24.862) scale(.2287)" width="137.9" xlink:href="#r"/><use ffdec:characterId="41" height="91.3" transform="translate(47.44 8.111) scale(.2287)" width="136.1" xlink:href="#s"/><use ffdec:characterId="43" height="70.2" transform="translate(33.62 15.024) scale(.2287)" width="73.3" xlink:href="#t"/><use ffdec:characterId="45" height="54.4" transform="translate(34.013 45.43) scale(.2287)" width="89.15" xlink:href="#u"/></g><g id="x" fill-rule="evenodd"><path d="m-1.4-7.8 21.6-10.9q.35 1.25.35 2.95 0 7.75-3.7 12.85-3.05 4.15-5.9 4.15-1.6 0-2.15-.85L6.95-3.15q-.7-1.1-2.15-1.3L2.5-4.8l-.7-.9Q.6-7-1.4-7.8" fill="#b65b24" transform="translate(25.75 20.75)"/><path d="M25.8-7.65q-4.55 4.8-10.8 9.6Q5.65 9.05.05 12.35q-5.6 3.3-8 3.45-12.15 1-12.6-13.45 2.6 3.7 4.25 4.8 2.1 1.4 6.05 1.4 6.25 0 9.95-3Q3.3 2.6 3.3-2.2q0-1.4-.8-2.6l2.3.35q1.45.2 2.15 1.3L8.8.4q.55.85 2.15.85 2.85 0 5.9-4.15 3.7-5.1 3.7-12.85 0-1.7-.35-2.95l.15-.05.1.05q4.9 4.05 5.35 11.05" fill="#cc6a22" transform="translate(25.75 20.75)"/><path d="M-20.55 2.35V2.2l1-.85 18.1-9.15h.05q2 .8 3.2 2.1l.7.9q.8 1.2.8 2.6 0 4.8-3.6 7.75-3.7 3-9.95 3-3.95 0-6.05-1.4-1.65-1.1-4.25-4.8" fill="#f09e3c" transform="translate(25.75 20.75)"/><path d="m-1.45-7.8-18.1 9.15-1 .85v.15q.45 14.45 12.6 13.45 2.4-.15 8-3.45Q5.65 9.05 15 1.95q6.25-4.8 10.8-9.6v1.3l-.05 2.55Q9.65 10.3 3.6 14.65q-8.4 6.1-13.5 6.1-3.15 0-8.6-3.95-7.25-5.3-7.25-12.95 0-5.45 2.1-8.2l1.55-1.7.7-.7 38.7-14 2.85 1.8.05.25L-1.4-7.8l-.1-.05.05.05" fill="#6d1d03" transform="translate(25.75 20.75)"/></g><g id="y"><path d="M18.7-26.9q-1.5 12.1 1.45 29.3l.2 2.65 11.7 15.1q12.5 28.65 22.35 62.3-2.2-4.2-4.1-5.95-14.85-43.8-20.2-51.85-5.4-8.1-12.5-16.4l-2-16.8q-1.3-9.2-.2-13.7.75-3.05 3.3-4.65" fill="#f074da" fill-rule="evenodd" transform="translate(65.05 121.3)"/><path d="M-50.95-113.8q4.2-1.65 8.55-1.95l10.15-.5 10.45.8q5.95.9 10 2.5l7.95 3.3q.55-2.55 2.95-3.75 2.35-1.2 5.05-3.15l3.95-2.75.15 3.75q.2 9.5-1.5 19.1Q4.9-86.1-2.2-62.7l9.95 14.75q5.5 8.35 8.4 11.75 2.9 3.4 3.25 5l-.7 4.3q-2.55 1.6-3.3 4.65-1.1 4.5.2 13.7l2 16.8q7.1 8.3 12.5 16.4 5.35 8.05 20.2 51.85 1.9 1.75 4.1 5.95 5.55 18.5 8.7 34.65l-18.25 2.2q-2.75-25.7-11-51.95-5.5-28-10.2-38.35-6-13.05-6.55-14.65Q16 11 12.6 11.2q0-6.3-.6-13-.6-7-.5-14.45l.1-8.15q0-3.8-1.9-8.1l-3.95-8.1Q3.95-43.95.9-45.65l-.65-.65q-4.3-4.55-10.25-8.9-5.25-3.85-6.2-5.5v-.75l.15-.1q9.7-10.55 12.45-22.1Q-.85-95.3-1.1-96.3L-4.7-93q2.35-4.3 1.7-8.05l-8.45 4.8-23.75-1.3-8.9 8.05 14.65 9.1-15.15 12.45-9.7-7.7 3.3-7.85q2.75-6.45 4.1-8.75l3.7-6.75q7.85-5.3 19.35-7-.45-1.45-9.65-5.1-6.8-2.65-17.45-2.7" fill="#683322" fill-rule="evenodd" transform="translate(65.05 121.3)"/><path d="M33.85 67.35Q26.85 45.3 17 22L6.8 11.15q-3.5-9.85-2.65-42L-4.35-38q-25.35-21.95-27.5-30.5h15.4l6.4-27.7-1.4-.05 8.45-4.8q.65 3.75-1.7 8.05l3.6-3.3q.25 1-2.5 12.65-2.75 11.55-12.45 22.1l-.15.1v.75q.95 1.65 6.2 5.5 5.95 4.35 10.25 8.9l.65.65q3.05 1.7 4.85 5.05l3.95 8.1q1.9 4.3 1.9 8.1l-.1 8.15Q11.4-8.8 12-1.8q.6 6.7.6 13 3.4-.2 4.5 3.15.55 1.6 6.55 14.65 4.7 10.35 10.2 38.35m-88.15-143-8.75-6.9 3.2-5.7 2.7-5.3q.75-1.55 8.9-12.3-2.4-.9-3.75-3.55l-1.5-3.35 2.55-1.05q10.65.05 17.45 2.7 9.2 3.65 9.65 5.1-11.5 1.7-19.35 7l-3.7 6.75q-1.35 2.3-4.1 8.75l-3.3 7.85" fill="#a46934" fill-rule="evenodd" transform="translate(65.05 121.3)"/><path d="M14.1 7.5q4.2-1.65 8.55-1.95l10.15-.5 10.45.8q5.95.9 10 2.5l7.95 3.3q.55-2.55 2.95-3.75 2.35-1.2 5.05-3.15L73.15 2l.15 3.75q.2 9.5-1.5 19.1-1.85 10.35-8.95 33.75l9.95 14.75q5.5 8.35 8.4 11.75 2.9 3.4 3.25 5l-.7 4.3q-1.5 12.1 1.45 29.3l.2 2.65 11.7 15.1m31.05 96.95-18.25 2.2q-2.75-25.7-11-51.95-7-22.05-16.85-45.35l-10.2-10.85q-3.5-9.85-2.65-42l-8.5-7.15Q35.35 61.35 33.2 52.8h15.4L55 25.1l-1.4-.05-23.75-1.3-8.9 8.05 14.65 9.1-15.15 12.45-9.7-7.7L2 38.75l3.2-5.7 2.7-5.3q.75-1.55 8.9-12.3-2.4-.9-3.75-3.55l-1.5-3.35L14.1 7.5" fill="none" stroke="#3b1c13" stroke-linecap="round" stroke-linejoin="round" stroke-width="4"/><path d="M97.1 141.45q12.5 28.65 22.35 62.3 5.55 18.5 8.7 34.65" fill="none" stroke="#3b1c13" stroke-linecap="round" stroke-linejoin="round" stroke-width="3"/></g><g id="z" fill-rule="evenodd"><path d="M37.15 8.7q-.3-2.9-1.6-7.55l-2-6.75 1.95 4.15q1.95 4.25 2.35 9.15l-.7 1" fill="#582b16" fill-opacity=".957" transform="translate(37.85 48.5)"/><path d="M-9.1-27.6q-5.55.9-7.7 1.8-2.7 1.05-4.15 3l-.1.1-.5.8-1.3 1.95q-.85 1-1.75 1.5-1.6.85-4.15 2.85-2.75 2.15-3.5 3.5v.05l-.15.4-.65 5.1-.3 5.15.2 1.9q.2-.35 5-4.3l3.8-2.85q1.7-1.1 2.5-1.15 1.2-.05 1.9 2.2l.15.6.2.8.75 3.85.95 4.05q.95 4.2 3.7 8.55l.2.2 1.4 1.9 1.55 1.95 1.4 1.75 2.35.05q1.2-.2 5.45-2.1l.25-.15Q.2 15 2.5 13.9l2.3-1.15 6.1-3.15q.4-.3 3.9 5.2t5.8 5.25q1.7-.2 7.5-6.85l1.05-1.25 3.75-4.5v-.3l-.45-3.95q-.45-2.85-4.6-11l-1.95-3.65-2.15-3.6-2.6-3.45-4.8-4.85.4-5.35Q24-23.5 28.3-15.75L33.55-5.6l2 6.75q1.3 4.65 1.6 7.55l-.2.25L32.2 15q-.6 4.3-1.45 6.5l-1.15 2.4-.55 1.1q-2.2 4.25-6.7 8.25-5.1 4.55-9.25 7.25-4.2 2.7-8.9 4.55-4.75 1.85-8.55 2.7l-4.45.75-.5-.35-.45-.3-2.3-1.55q-1.45-.75-3.5-2.5l-3.6-2.8q-1.95-1.55-3.2-3.1l-3.8-4.55q-1.65-2.15-3.4-5.65-1.15-2.25-2.9-7.2-1.05-2.95-1.9-6.8-.4-1.55-.6-4V7.9l.05-1.25-.35-.5q-.9-1.45-1.25-2.9l-.85-5.15-.5-9.7q0-3 4.25-5.95 2.25-1.55 6.7-4.1-.6-.65-.55-3.3 5.7-5.65 13.75-7.6 5.1-1.3 10.5-1.35l4.8-.1-.95 1.6q0 .4.4 1 .35.45 1.15.95l-2 3.2-.65 1.7-.2 1.65.3 1.95q.5 1.9 1.65 3.55l7.85-.25-.05.25q-1.95.7-4.45 1.35-2.65.7-5.2-.05l-1.4-4q-.65-2.2-.65-4.55v-1.4l.4-1.5-6.9.95M-26-2.9-29.65.5q-1.65 6.15.25 13.4 3.35 12.95 8.85 19.05 3.9 4.3 8.65 8.2l.95.75L-8 44.15l.15.1.3-.05q5.75-.95 10.8-3.15 5.25-2.35 9.45-5.3 4.2-3 8.1-6.95 4.1-4.15 5.85-9.45l.6-1.95-1.05.7-.9.7-.3.25-1.05.95q-2.9 2.8-5.4 2.8-2 0-5-4.95-2.9-5.55-3.2-6.65l-.5.6q-3 3.6-8.45 5.85-5.15 2.1-12.05 3.05l-2.85-3.65q-2.8-3.65-5.5-8.9-2.7-5.3-3.25-13.65L-26-2.9" fill="#50090b" transform="translate(37.85 48.5)"/><path d="m16.35-23.35 4.8 4.85 2.6 3.45-.35 3.55-2.35-5-2.2-2.7-2.65-2.35.15-1.8m9.55 11.9 1.95 3.65q4.15 8.15 4.6 11l.45 3.95v.3l-3.75 4.5q1.5-3.85 1.1-8.45-.45-5.55-2.8-8.4l-2.5-2.95.95-3.6m-7.75-32.1 1.4.2.35 1.95q.1 1.45-2 4.1-2.1 2.65-2.8 5.45-.75 2.75-.85 5.1l-.7 5.35-.25.2q-2 1.95-3.9 2.7l-.3.1.05-.25q.1-.75 1.05-1.7l1.35-1.95q.7-.95 1.05-2.45l.35-3.05q.1-2.3.95-4.45l1.95-4q.65-1.3 2.05-3.15.75-1 .75-2.25l-.25-1.3-.25-.6M-7.55 44.2l.55-.95q3.65-.45 7.45-2.05 4.8-2.1 10.85-6.6 6-4.55 9.1-7.85 2.9-3.15 4.6-7.7l.3-.25.9-.7 1.05-.7-.6 1.95q-1.75 5.3-5.85 9.45-3.9 3.95-8.1 6.95-4.2 2.95-9.45 5.3-5.05 2.2-10.8 3.15" fill="#f074da" transform="translate(37.85 48.5)"/><path d="m2.2-30.45.1.05.95-1.1q1.8-2.45 4.05-6.95 2.65-2.6 5.05-3.8.85.1 1.45.75 1.45 1.55.85 2.3l-2.85 3.85q-2.2 3.05-2.55 6.3l-.05 3.7q-.15 1.1-.7 2.5-.55 1.4-1.95 2.05-1.4.65-2.7.65-1.75 0-3.05-1.2-1.05-.95-1.45-2.55l.2-1.65.65-1.7 2-3.2m-14.1 71.6q-4.7-6.25-5.25-6.6l-1.2-1.45-2.8-4.6q-2.25-3.6-2.8-8.3 2.4.6 3.45-.35 1.05-.95.95-3.95-.15-3.05-2-5.65-1.85-2.65-4.6-2.35l-.2-2.6.15-4.7.2-3.5 3.75-2.6Q-21.7 2.85-19 8.15q2.7 5.25 5.5 8.9l2.85 3.65.25.25 4.05 1.1q3.7.85 4.65 1.45 1.35.95 1.35 3.6 0 2.35-.4 3.75-.6 2.2-6.25 12.4l-.55.95-.3.05-.15-.1-2.95-2.25-.95-.75m-2.95-15.55q0-.85-.65-1.5-.65-.6-1.6-.6-.95 0-1.6.6-.65.65-.65 1.5t.65 1.45q.65.65 1.6.65.95 0 1.6-.65.65-.6.65-1.45" fill="#9f2b18" transform="translate(37.85 48.5)"/><path d="M12.35-42.25q1.65-.85 3.2-1.05l2.6-.25.25.6.25 1.3q0 1.25-.75 2.25-1.4 1.85-2.05 3.15l-1.95 4q-.85 2.15-.95 4.45l-.35 3.05q-.35 1.5-1.05 2.45l-1.35 1.95q-.95.95-1.05 1.7l-7.85.25Q.15-20.05-.35-21.95l-.3-1.95q.4 1.6 1.45 2.55 1.3 1.2 3.05 1.2 1.3 0 2.7-.65 1.4-.65 1.95-2.05t.7-2.5l.05-3.7q.35-3.25 2.55-6.3l2.85-3.85q.6-.75-.85-2.3-.6-.65-1.45-.75M-7 43.25q5.65-10.2 6.25-12.4.4-1.4.4-3.75 0-2.65-1.35-3.6-.95-.6-4.65-1.45l-4.05-1.1-.25-.25q6.9-.95 12.05-3.05 5.45-2.25 8.45-5.85l.5-.6q.3 1.1 3.2 6.65 3 4.95 5 4.95 2.5 0 5.4-2.8l1.05-.95q-1.7 4.55-4.6 7.7-3.1 3.3-9.1 7.85Q5.25 39.1.45 41.2q-3.8 1.6-7.45 2.05" fill="#631416" transform="translate(37.85 48.5)"/><path d="m4.35-15.75-.85.05q-2.6.2-4.05-1.4 2.55.75 5.2.05 2.5-.65 4.45-1.35l.3-.1q1.9-.75 3.9-2.7l.25-.2.7-5.35q.1-2.35.85-5.1.7-2.8 2.8-5.45 2.1-2.65 2-4.1l-.35-1.95-1.4-.2-2.6.25q-1.55.2-3.2 1.05-2.4 1.2-5.05 3.8-2.25 4.5-4.05 6.95l-.95 1.1-.1-.05q-.8-.5-1.15-.95-.4-.6-.4-1L1.6-34l1.95-3q2.85-4.35 4.15-5.6 1.25-1.3 5.5-3.65 4.2-2.35 7.4-2.25 1.25.5 2.35 1.3 1.95 1.45 1.95 3.05 0 1.6-4.1 6.05l-2.75 3.4Q16.9-33 16.9-31l-.15 2.3-.4 5.35-.15 1.8-.15 1.55-.05.85h-.05l-.3.35-2.15 1q-2.35.85-4.85 1.4l-4.3.65" fill="#4a180f" transform="translate(37.85 48.5)"/><path d="M-12.4-16.15q.4-1.05 2.25-1.05.65 0 1.2.4.6.45.6 1.15l-.05.5q-.2.65-.95 1l-.1-.85-2.9-1.1-.05-.05M3.45-7.5l1.15-2.6.65-2.2-.05-2-.85-1.45 4.3-.65q2.5-.55 4.85-1.4l2.15-1 .3-.35H16l.05-.85.15-1.55 2.65 2.35 2.2 2.7 2.35 5-.1.6-.25 1-.1.3L21-4.35Q12.15-5 8.05-9.5H8v.05L3.45-7.5m25.7 19.45L28.1 13.2q-5.8 6.65-7.5 6.85-2.3.25-5.8-5.25t-3.9-5.2l-6.1 3.15L6.7 9.7q3-5.2 2.95-7.6-.1-2.4-1.4-3.4-1.3-1-3.4-1l-2.1.15L.2-2l-2.6-.05q-1.4-.1-1.75-.55 1.65.1 11.55-3.3l.05.05.05-.05q.65.05 2 1.1 1.65 1.35 2.55 1.7l2.15.7 3.7.85 3.8.35q1.95-.05 2.4-2.35l.85-4.3 2.5 2.95q2.35 2.85 2.8 8.4.4 4.6-1.1 8.45M-19.95-5.6q-.7-2.25-1.9-2.2-.8.05-2.5 1.15l.15-.65.1-.65 1.75-1.15q1.85-1.2 2.4-1.2 1.1 0 1.1 1.75 0 .8-.5 1.75l-.6 1.2" fill="#9f4318" transform="translate(37.85 48.5)"/><path d="m23.75-15.05 2.15 3.6-.95 3.6-.85 4.3q-.45 2.3-2.4 2.35l-3.8-.35-3.7-.85-2.15-.7q-.9-.35-2.55-1.7-1.35-1.05-2-1.1.45-.85.55-2.15L8-9.45l.05-.05Q12.15-5 21-4.35l1.95-5.25.1-.3.25-1 .1-.6.35-3.55" fill="#a46934" transform="translate(37.85 48.5)"/><path d="M-15.95-18.15q4.25 1.1 7-2.55 2.6-3.5-.15-6.9l6.9-.95-.4 1.5v1.4q0 2.35.65 4.55l1.4 4Q.9-15.5 3.5-15.7l.85-.05.85 1.45.05 2-.65 2.2-1.15 2.6-1.15.4.4-1 .05-1.35q0-3.9-2.5-5.25-1.85-1-6.55-1l-2.1.55.05-.5q0-.7-.6-1.15-.55-.4-1.2-.4-1.85 0-2.25 1.05-1.9-.85-3.55-2m15.4 1.05-.05-.05.05.05M4.8 12.75 2.5 13.9Q.2 15-1.6 15.85q1.2-3.2 1.25-7.2.05-4.25-2.8-7.1-2.9-2.85-5.1-4.2-2.1-1.3-4.45-1.75-4.55.05-6.15 4.05l-.75-3.85-.2-.8-.15-.6.6-1.2q.5-.95.5-1.75 0-1.75-1.1-1.75-.55 0-2.4 1.2l-1.75 1.15q.2-.95.1-1.7-.1-.95-.85-2.5t-2.8-1.75q-1.9-.2-4.6 1.85v-.05q.75-1.35 3.5-3.5 2.55-2 4.15-2.85.9-.5 1.75-1.5 3.95 3.35 6.3 4.6 2.55 1.3 4.8 1.55-.1 1.5.5 3.35.65 2 1.8 3.35l2.3 2.75q1.35 1.65 3 1.75.35.45 1.75.55L.2-2l2.55-.15 2.1-.15q2.1 0 3.4 1 1.3 1 1.4 3.4.05 2.4-2.95 7.6l-1.9 3.05" fill="#ce6218" transform="translate(37.85 48.5)"/><path d="M-9.1-27.6q2.75 3.4.15 6.9-2.75 3.65-7 2.55l-.85-.6q-2.3-1.7-4.25-3.95l.1-.1q1.45-1.95 4.15-3 2.15-.9 7.7-1.8m.7 12.45 2.1-.55q4.7 0 6.55 1 2.5 1.35 2.5 5.25L2.7-8.1l-.4 1-.45.15q-3.45 1-7.1 1.4-3.35-3.75-4.1-8.6.75-.35.95-1m6.8 31-.25.15q-4.25 1.9-5.45 2.1l-2.35-.05-1.4-1.75-1.55-1.95-1.4-1.9-.2-.2q-2.75-4.35-3.7-8.55l-.95-4.05q1.6-4 6.15-4.05 2.35.45 4.45 1.75 2.2 1.35 5.1 4.2Q-.3 4.4-.35 8.65q-.05 4-1.25 7.2m-22.75-22.5-3.8 2.85q-4.8 3.95-5 4.3l-.2-1.9.3-5.15.65-5.1.15-.4q2.7-2.05 4.6-1.85 2.05.2 2.8 1.75t.85 2.5q.1.75-.1 1.7l-.1.65-.15.65" fill="#f0852b" transform="translate(37.85 48.5)"/><path d="M-21.05-22.7q1.95 2.25 4.25 3.95l.85.6q1.65 1.15 3.55 2l.05.05 2.9 1.1.1.85q.75 4.85 4.1 8.6 3.65-.4 7.1-1.4l.45-.15 1.15-.4L8-9.45l.05 1.4q-.1 1.3-.55 2.15h-.1Q-2.5-2.5-4.15-2.6q-1.65-.1-3-1.75l-2.3-2.75q-1.15-1.35-1.8-3.35-.6-1.85-.5-3.35-2.25-.25-4.8-1.55-2.35-1.25-6.3-4.6l1.3-1.95.5-.8" fill="#f5c98f" transform="translate(37.85 48.5)"/><path d="m-26-2.9-.2 3.5-.15 4.7.2 2.6q2.75-.3 4.6 2.35 1.85 2.6 2 5.65.1 3-.95 3.95-1.05.95-3.45.35.55 4.7 2.8 8.3l2.8 4.6 1.2 1.45q.55.35 5.25 6.6-4.75-3.9-8.65-8.2-5.5-6.1-8.85-19.05-1.9-7.25-.25-13.4L-26-2.9m11.15 28.5q0 .85-.65 1.45-.65.65-1.6.65-.95 0-1.6-.65-.65-.6-.65-1.45t.65-1.5q.65-.6 1.6-.6.95 0 1.6.6.65.65.65 1.5" fill="#ea916f" transform="translate(37.85 48.5)"/></g><g id="A" fill-rule="evenodd"><path d="M7.75 6.6H7q-2.5-.1-3.5-.75L1.85 4.3l-.15-.2.15.3-.1 1.25q0 4.05 4.2 4.95l2.85.8q1.3.7 1.3 2.45l-.25 1.75-.4 1.45-.45.25-1.05.6-2.2 1.5-2 1.6q-1.15.65-2.5.65l-2-.55-1.75-.85L-6 18l.05-.15 2.65-6.9 2.1-5.5Q-.45 3-.4.8q.05-2.2-2.75-4.25-2.8-2.1-4-3.7-1.2-1.55-3.5-3.7l-.05-.05q.65-1.05 3.05-2.5 2.7-1.6 3.8-1.6 1.05 0 1.05.6l-1 1.8q-1.05 1.55-.1 4.45.95 2.85 2.65 3.6Q.4-3.8 2.1-3.4l6.05.7q3.75.65 3.75 2.85 0 1.9-1.3 3.6L7.75 6.6M-1.4-10.95l.05-.25 1.05-3.05L.85-17.1l.1-.3q3-1 6.35-.9 3.6.05 3.65 2.7Q11-13 8.2-9.85q-2.8 3.1-4.4 3-1.65-.1-2.8-1.2l-2.4-2.9" fill="#fff5d6" transform="translate(19.25 25.45)"/><path d="M-11.55-11.65q-.1-1.55.8-2.35l3.45-1.9 6.65-3.25h.6q-.35 1.45-2.15 4.6-1.55 2.75-1.45 5.3.1 2.5 2.75 4.15 2.65 1.65 5.4 1.65 2.7-.05 5.45-1 3.1-1.1 3.7-2.45l.65 1.85q.4 1.7.35 4.8-.1 3.05-2.65 5Q9.85 6.4 7.75 6.6l2.85-2.85q1.3-1.7 1.3-3.6 0-2.2-3.75-2.85L2.1-3.4Q.4-3.8-1.25-4.55q-1.7-.75-2.65-3.6-.95-2.9.1-4.45l1-1.8q0-.6-1.05-.6-1.1 0-3.8 1.6-2.4 1.45-3.05 2.5l-.15-.15-.7-.6M1.85 4.4q1.35 3.45 5.4 3.45 4.2-.05 5.5-1.3l2.9-2.8h.1V6.8q-.75 3.8-1.55 5.35-1.15 2.25-4.1 4.45l-.65.45.4-1.45.25-1.75q0-1.75-1.3-2.45l-2.85-.8q-4.2-.9-4.2-4.95l.1-1.25M-1.4-10.95 1-8.05q1.15 1.1 2.8 1.2 1.6.1 4.4-3Q11-13 10.95-15.6q-.05-2.65-3.65-2.7-3.35-.1-6.35.9l.55-2.05 2.6-.4 1.85-.55 1.9-.55 2.8-.3q1.75-.15 2.9.75 1.1.9 2.2 3.3 1 2.35.95 5.8-.05 3.4-.85 3.6-.85.15-.8-2.35 0-2.55-.8-3.65-.15 3.65-3 5.85Q8.4-5.8 5.4-5.6q-3 .15-4.8-1.05-2.1-1.4-2.1-3.55l.1-.75" fill="#dfc893" transform="translate(19.25 25.45)"/><path d="M-15.75-14.05v-.05l.2-.35q1.9-3.25 6.25-4.75 2.7-.95 7.6-1.45 5.4-.5 8-2.75 2.4-2.05 5.85-2.05l3.65.2q1.45.45 2 2.6.35 1.5 1.15 3.4.35.9.35 3.05l-.6 5.05-.75 4.25-.3.25q-1 .45-1.45.35l.25 1.75.3 3.5V.7q-.1 1.1-.55 1.25l1.35 2.5q.7 1.2.7 2.45 0 2.95-1.8 6.65-1.75 3.5-3.75 4.95-1.7 2.15-4.6 4.45-2.95 2.3-4.05 2.45L.65 25l-2.75-.65-2.65-.7-3.05-1.35q.9-1.7 1.8-4.3l3.5 2.25 1.75.85 2 .55q1.35 0 2.5-.65l2-1.6 2.2-1.5L9 17.3l.45-.25.65-.45q2.95-2.2 4.1-4.45.8-1.55 1.55-5.35V3.75h-.1l-2.9 2.8q-1.3 1.25-5.5 1.3-4.05 0-5.4-3.45v-.1L3.5 5.85q1 .65 3.5.75h.75q2.1-.2 4.25-1.85 2.55-1.95 2.65-5 .05-3.1-.35-4.8l-.65-1.85q-.6 1.35-3.7 2.45-2.75.95-5.45 1-2.75 0-5.4-1.65-2.65-1.65-2.75-4.15-.1-2.55 1.45-5.3 1.8-3.15 2.15-4.6h-.6L-7.3-15.9l-3.45 1.9q-.9.8-.8 2.35-1.8-1.45-4.2-2.4M.95-17.4l-.1.3-1.15 2.85-1.05 3.05-.05.25-.1.75q0 2.15 2.1 3.55 1.8 1.2 4.8 1.05 3-.2 5.85-2.35 2.85-2.2 3-5.85.8 1.1.8 3.65-.05 2.5.8 2.35.8-.2.85-3.6.05-3.45-.95-5.8-1.1-2.4-2.2-3.3-1.15-.9-2.9-.75l-2.8.3-1.9.55-1.85.55-2.6.4-.55 2.05" fill="#6d1d03" transform="translate(19.25 25.45)"/><path d="m-7.8 22.3-.4-.2-.55-.3q-10.5-5.5-10.5-18.25l.4-9.9q.15-1.7 1.25-4.25l1.85-3.45q2.4.95 4.2 2.4l.7.6.15.15.05.05q2.3 2.15 3.5 3.7 1.2 1.6 4 3.7Q-.35-1.4-.4.8-.45 3-1.2 5.45l-2.1 5.5-2.65 6.9L-6 18q-.9 2.6-1.8 4.3m-6.35-13.7q.95 4.1 4 7.25h.5l.8-3.9q.75-3.25 3.3-6.75 2.5-3.5-.55-6.05-3.1-2.6-6.65-6.9-.8 2.55-1.2 5.1l-.3 1.65-.35 6.1.1 1.45v.15l.3 1.8.05.1" fill="#927516" transform="translate(19.25 25.45)"/><path d="M-13.95-2.65q.4-2.55 1.2-5.1 3.55 4.3 6.65 6.9 3.05 2.55.55 6.05-2.55 3.5-3.3 6.75l-.8 3.9h-.5q-3.05-3.15-4-7.25 1.45.1 2.95-1.6 1.7-2 .8-5.8-.8-3.35-3.55-3.85" fill="#ffec59" transform="translate(19.25 25.45)"/><path d="m-14.15 8.6-.05-.1-.3-1.8v-.15q1.5-.9 2-1.7.35-.6.35-1.9 0-1.6-.7-2.7L-14.25-1l.3-1.65q2.75.5 3.55 3.85.9 3.8-.8 5.8-1.5 1.7-2.95 1.6" fill="#34510b" transform="translate(19.25 25.45)"/><path d="m-14.5 6.55-.1-1.45.35-6.1 1.4 1.25q.7 1.1.7 2.7 0 1.3-.35 1.9-.5.8-2 1.7" fill="#b1d126" transform="translate(19.25 25.45)"/></g><g id="C" fill-rule="evenodd"><path d="M-1.65-11.7q-1.1.45-2.5 2.2L-6.4-6.45l-.2.4-.5-.3-1.75-.4-5-.4h-1.45l-2.2-.05.35-.45 1.85-.45 1.45-.4 5-1.65h.1l2.35-.8.75-.25 3.55-.9.45.4m11.55 34L-.4-11.85q1.45.35 4.65 3l4.5 3.7L9.8 5.3l1.1 9.1.5 3.9.9 7.05-2.4-3.05" fill="#f1a632" transform="translate(21.1 36.05)"/><path d="M-.4-11.85h-.2l-.2-.05-.7.15-.6-2.15-.15-.6-2.65-8.55-.9-2.7-.6-1.55q-.95-2.5-1.95-4.3h-.05l.4-.5q.2-.05.8.5l.8.75 3.25 3.55.85 1 .2.35Q-.95-24.1.35-23.2l.25.15.5.3-2 9.65 3.1-1.4 7.05-3.25L16.1-21l.95-.45.3-.05.1.1-1.35 1.3-5.9 5.6-.7.7-1.45 1.55.55 5.5.15 1.6-4.5-3.7q-3.2-2.65-4.65-3" fill="#f18732" transform="translate(21.1 36.05)"/><path d="M-10.4-16.55q1.3-1.8 1.35-2.25l.2-3 .1-1.25.05-4.25v-.75q0-2.6.3-3.55h.05q1 1.8 1.95 4.3l.6 1.55.9 2.7 2.65 8.55.15.6.6 2.15.7-.15.2.05h.2L9.9 22.3 8 19.6l-.85-1.3-2.6-3.9-2.65-4.15-.8-1.35-.7-1.15-2.5-4.95-1.3-3.2q-1.1-3.15-2.25-4.65l-.75-.85-.2-.15.2-.4 2.25-3.05q1.4-1.75 2.5-2.2h.05v-.05l-.5-.6-3.55-1.55-.75-.4-.45-.25-2-1.1-1.55-.9" fill="#fffad1" transform="translate(21.1 36.05)"/><path d="m-10.4-16.55 1.55.9 2 1.1.45.25.75.4 3.55 1.55.5.6-.05.05-.45-.4-3.55.9-.75.25-2.35.8h-.1l-5 1.65-1.45.4-1.85.45 1.85-2.55 1.45-1.9 1.8-2.3 1.65-2.15m11.5-6.2q.85.45 1.35.4l1.6.1 3.35.15h2.7l3.3.4 2.7.2.95.05-.95.45-6.85 3.25L2.2-14.5l-3.1 1.4 2-9.65" fill="#ffec59" transform="translate(21.1 36.05)"/><path d="m-9.8-35.5.6-.55.95.55 1.85 1.45 2.45 2.45 1.1 1.35.75.9 1.9 2.05.7.7L2.1-25l.3.05 9.55.7 5.65.65 2.75.6.55.15q.55.15-.55 1.65l-.4.55-3 3.25-.85.75L14-14.5l-.35.35-2.8 3.15-.2.2v.35q.6 8.7 1.7 18.4l.8 6.45.5 3.9.45 3.25 1.3 9.6.65 4.9-3.6-4.9Q8.35 25.4 4.8 19.3l-.55-1-2.3-3.9L-5.75.65l-1.7-4.75-1.4-.2H-9l-4.1-.35-.75-.1-1.45-.1h-4.25q-1.55-.15-1.55-.8-.05-.95 1.5-3.4l.05-.15q1.35-2.1 4.25-5.1l.9-.9.55-.6q2.8-3.2 2.75-7.25l-.05-.8-.1-2.8.35-4.95.25-1.6q.35-1.6.85-2.3m1.4 3.9q-.3.95-.3 3.55v.75l-.05 4.25-.1 1.25-.2 3q-.05.45-1.35 2.25l-1.65 2.15-1.8 2.3-1.45 1.9-1.85 2.55-.35.45 2.2.05h1.45l5 .4 1.75.4.5.3.2.15.75.85Q-4.5-3.55-3.4-.4l1.3 3.2L.4 7.75l.7 1.15.8 1.35 2.65 4.15 2.6 3.9.85 1.3 1.9 2.7 2.4 3.05-.9-7.05-.5-3.9-1.1-9.1L8.75-5.15l-.15-1.6-.55-5.5L9.5-13.8l.7-.7 5.9-5.6 1.35-1.3-.1-.1-.3.05-.95-.05-2.7-.2-3.3-.4H7.4l-3.35-.15-1.6-.1q-.5.05-1.35-.4l-.5-.3-.25-.15q-1.3-.9-2.45-2.75l-.2-.35-.85-1-3.25-3.55-.8-.75q-.6-.55-.8-.5l-.4.5" fill="#a64b19" transform="translate(21.1 36.05)"/></g><g id="D"><path d="m57.6-85.3 1.95.45 3.4 3.7q6.3 7.25 10.4 14.65l.25.4.3.8.45 1.15q-6.35-2.5-12.65-3.3 1.3-2.45.95-5.85-.6-5.55-5.05-12m-75.2 25q4.5 9.65 5.8 24.45 1.4 16.25 6.55 21.55-4.55 24.85-8.4 34.4-2.55 6.25-5.55 10.75L-32.55 18.3q-3.35-3.25-6.1-6.8l1-1.55q8.9-14.5 11.15-41.6 1.4-17.25 8.9-28.65m-9.25-37.2q9.3-3.25 13.3-3.85l4.5-1.15q-5.15 2.9-9.35 6.3-5.95 4.75-7.55 12.4l-.25 2.35q-3.25 3.05-6.15 6.75-1.15-6.6-1.15-9.15 0-2.75 4.2-9.75l2.45-3.9m66.65 65q-.55 1.3-.75 2.75l-.2 1.4q-5.75 4.8-7.55 10.4-1.85 5.55-1.85 12t.45 12.3q.45 5.8 1.4 11.05.8 4.5 1.75 7.8l.3 1.05.4 1.25.45 2.7.1.45.7 4.55 1.25 9.15.35 7.35q.1 5.5-.75 10.25t-2.9 10.5Q30.9 78.15 22.5 87.5q-6.2 6.85-9.6 8.25-1.85 1.5-10.95 5.85l-.65.3-2.75.2q-8.05.9-11.85-1.2-3.5-1.9-6-5.25l-.4-.8q-2.85-6.1-1.6-10.4l2.8-.55Q2.2 79 10.2 56.05q7.95-22.95 9.05-45.45.65-13.2 1.8-19.95-1.7-2.9 4.6-21.6 3.7-11.1 14.25-16.9 5.2-5.2 18.2-2.8Q69.9-48.5 76.45-36.3l-1.1 2.5Q70.9-24.7 64.1-19.6q-6.85 5.1-14.6 2.4-7.75-2.75-9.05-11.1l-.65-4.2q1.25-3.2 4.5-5.8 4.55-3.65 9.35-3.75 4.8-.15 8.25 3.5 3.45 3.6-2.1 9.2 5.55-5.6 2.1-9.2-3.45-3.65-8.25-3.5-4.8.1-9.35 3.75-3.25 2.6-4.5 5.8" fill="#cc6a22" fill-rule="evenodd" transform="translate(86.05 110.85)"/><path d="M59.55-84.85q-2.4-2.4-4.8-4.2L49.5-92.3q-6.7-3.3-13.8-6.2-4.2-1.7-8.85-2.9l-6.8-1.5-16.4-1.15-12.7 1.55-4.5 1.15q-4 .6-13.3 3.85-8.3 2.85-20.75 7.8Q-44-93-40-95.9q3.3-2.2 6.85-3.75 4.4-1.9 9.1-3.2l11.55-3.2q10.35-2.9 20.8-2.8 10.4.05 24.25 3.25 10.8 3 19.15 8.65 8.35 5.6 16.85 14.9Q77-72.8 80.1-63.5l.75 2.35.1.3q2.35 7.5 2.9 12.5l.2 2.25L84-43q-.55 9.1-4.85 17.05l-.6 1.05-2.1 3.15q-2.3 2.8-5.3 5.15-5 3.8-10.8 5.25-5.8 1.45-11.8-.2-6.05-1.7-8.5-7.6L38.9-22.2l-.2-.65q-5.5 16.6-4.5 26.1.8 8.4 4.2 19.6l.25.85.7 2.55q2.95 11.8 3.3 24.35Q43 64.95 35.5 79 28 93 14.2 101.65q-13.85 8.6-29.15 7-18.2-5.95-21.9-6.8-3.45-.85-5.75-.8l-3.3-4.45q10.25-.35 20.5 4.15 14.65 6.45 26.7 1.15l.65-.3q9.1-4.35 10.95-5.85 3.4-1.4 9.6-8.25 8.4-9.35 10.45-15.05 2.05-5.75 2.9-10.5.85-4.75.75-10.25l-.35-7.35L35 35.2l-.7-4.55-.1-.45-.45-2.7-.7-2.3q-.95-3.3-1.75-7.8-.95-5.25-1.4-11.05-.45-5.85-.45-12.3 0-6.45 1.85-12 1.8-5.6 7.55-10.4l.2-1.4q.2-1.45.75-2.75l.65 4.2q1.3 8.35 9.05 11.1 7.75 2.7 14.6-2.4 6.8-5.1 11.25-14.2l1.1-2.5q3.05-7.8 1.6-15-1.45-6.95-3.7-12.85l-.45-1.15-.3-.8-.25-.4q-4.1-7.4-10.4-14.65l-3.4-3.7m-20.9 61.9-.1-.15-.2-.45q0-1.15.5-4.8-.5 3.65-.5 4.8l.2.45.1.15.05.1-.05-.1" fill="#91f0e7" fill-rule="evenodd" transform="translate(86.05 110.85)"/><path d="M57.6-85.3q-11.2-2.4-27.45-.8Q10.25-84.25-7-71.5q-6.3 4.65-10.6 11.2-1.3-2.9-2.9-5.3-6-9-5.7-15.85 3.6-3.45 7.65-6.05 16.9-11 45.4-13.9 4.65 1.2 8.85 2.9 7.1 2.9 13.8 6.2l5.25 3.25q2.4 1.8 4.8 4.2l-1.95-.45m-62.85 71 .2-1.1q4.6-25.7 31.5-43.05 17.35-11.25 35.25-9-2.15 3.9-8.5 5.4-10.4 2.4-20.9 9.25-10.5 6.8-15.5 20T7.7-14.25q-4.15 5.35-11 1.5-1.05-.6-1.95-1.55" fill="#b05b2c" fill-rule="evenodd" transform="translate(86.05 110.85)"/><path d="M-17.6-60.3q4.3-6.55 10.6-11.2 17.25-12.75 37.15-14.6 16.25-1.6 27.45.8 4.45 6.45 5.05 12 .35 3.4-.95 5.85-17.9-2.25-35.25 9Q-.45-41.1-5.05-15.4l-.2 1.1q-5.15-5.3-6.55-21.55-1.3-14.8-5.8-24.45" fill="#eb9329" fill-rule="evenodd" transform="translate(86.05 110.85)"/><path d="M-26.2-81.45q-.3 6.85 5.7 15.85 1.6 2.4 2.9 5.3-7.5 11.4-8.9 28.65-2.25 27.1-11.15 41.6l-1 1.55q-5.3-6.85-8.3-14.9-4.65-12.25-6.5-24.8l-.05-.4 7.45-20.3q5.55-15.45 13.7-25.8 2.9-3.7 6.15-6.75M76.45-36.3Q69.9-48.5 58.1-50.65q-13-2.4-18.2 2.8-10.55 5.8-14.25 16.9-6.3 18.7-4.6 21.6-1.15 6.75-1.8 19.95-1.1 22.5-9.05 45.45Q2.2 79-18.5 83.9l-2.8.55q.75-2.65 3.1-4.6 7.05-6 10.5-20.75 3.35-14.75-5.85-23.05l-5.65-5.2q3-4.5 5.55-10.75 3.85-9.55 8.4-34.4.9.95 1.95 1.55 6.85 3.85 11-1.5 4.1-5.35 9.1-18.55 5-13.2 15.5-20 10.5-6.85 20.9-9.25 6.35-1.5 8.5-5.4 6.3.8 12.65 3.3 2.25 5.9 3.7 12.85 1.45 7.2-1.6 15" fill="#7a2810" fill-rule="evenodd" transform="translate(86.05 110.85)"/><path d="M26.85-101.4q-28.5 2.9-45.4 13.9-4.05 2.6-7.65 6.05l.25-2.35q1.6-7.65 7.55-12.4 4.2-3.4 9.35-6.3l12.7-1.55 16.4 1.15 6.8 1.5" fill="#f09e3c" fill-rule="evenodd" transform="translate(86.05 110.85)"/><path d="M-45.9 96.6q-5.4-7.6-10.6-12.15-4.75-4.2-7.4-7.65 25.4 10.7 42.6 7.65-1.25 4.3 1.6 10.4l.4.8q2.5 3.35 6 5.25 3.8 2.1 11.85 1.2l2.75-.2q-12.05 5.3-26.7-1.15-10.25-4.5-20.5-4.15M-66.75 72q-2.85-6.7-9.3-29.45l-1.45-5.35q29.45-12.4 38.85-25.7 2.75 3.55 6.1 6.8l13.35 12.55q-1.75 2.55-3.6 4.55l-16.8 16.15q-3.45 3.35-26.6 20.4l-.55.05m-11.8-38.65q-5.2-20.1-5.5-31.6-.45-14.1 10.6-49.55 7.9-25.55 25.85-41.9 12.45-4.95 20.75-7.8l-2.45 3.9q-4.2 7-4.2 9.75 0 2.55 1.15 9.15-8.15 10.35-13.7 25.8l-7.45 20.3-.15.35q-5.9 15.5-11.75 29.55l-13.15 32.05" fill="#b65b24" fill-rule="evenodd" transform="translate(86.05 110.85)"/><path d="m-63.9 76.8-1.95-2.9-.9-1.9.55-.05q23.15-17.05 26.6-20.4l16.8-16.15q1.85-2 3.6-4.55l5.65 5.2q9.2 8.3 5.85 23.05-3.45 14.75-10.5 20.75-2.35 1.95-3.1 4.6-17.2 3.05-42.6-7.65m-13.6-39.6-1.05-3.85L-65.4 1.3q5.85-14.05 11.75-29.55l.2.05q1.85 12.55 6.5 24.8 3 8.05 8.3 14.9-9.4 13.3-38.85 25.7" fill="#6a152f" fill-rule="evenodd" transform="translate(86.05 110.85)"/><path d="M38.45 21.15q3.6-3.3 7.6-6.2 3.3-2.2 6.85-3.75Q57.3 9.3 62 8l11.55-3.2Q83.9 1.9 94.35 2q10.4.05 24.25 3.25 10.8 3 19.15 8.65 8.35 5.6 16.85 14.9 8.45 9.25 11.55 18.55l.75 2.35m.1.3q2.35 7.5 2.9 12.5l.2 2.25-.05 3.1q-.55 9.1-4.85 17.05l-.6 1.05-2.1 3.15q-2.3 2.8-5.3 5.15-5 3.8-10.8 5.25-5.8 1.45-11.8-.2-6.05-1.7-8.5-7.6l-1.15-3.05-.2-.65q-5.5 16.6-4.5 26.1.8 8.4 4.2 19.6l.25.85.7 2.55q2.95 11.8 3.3 24.35.35 14.35-7.15 28.4-7.5 14-21.3 22.65-13.85 8.6-29.15 7-18.2-5.95-21.9-6.8-3.45-.85-5.75-.8l-3.3-4.45q-5.4-7.6-10.6-12.15-4.75-4.2-7.4-7.65l-1.95-2.9-.9-1.9q-2.85-6.7-9.3-29.45l-1.45-5.35-1.05-3.85Q2.3 124.1 2 112.6q-.45-14.1 10.6-49.55 7.9-25.55 25.85-41.9M124.7 87.9l.05.1" fill="none" stroke="#6d1d03" stroke-linecap="round" stroke-linejoin="round" stroke-width="4"/><path d="M125.85 78.35q-.55 1.3-.75 2.75l-.2 1.4q-.5 3.65-.5 4.8l.2.45.1.15m1.15-9.55q1.25-3.2 4.5-5.8 4.55-3.65 9.35-3.75 4.8-.15 8.25 3.5 3.45 3.6-2.1 9.2" fill="none" stroke="#6d1d03" stroke-linecap="round" stroke-linejoin="round" stroke-width="2"/></g><g id="E" fill-rule="evenodd"><path d="m-21.35 24.65.1-.25.35-.85 1.5-3.3-.4-.1h-1.05q-1.4.6-2.35 2.85l-.4 1.15q-.4 1.25-.4 2.35 0 .8.9 1.45l1.7.9.1-.1q.1-2.05-.35-2.35-.35-.25.3-1.75m-4.95-5.4q1.65-3 5.25-4.05l5.35-.15 2.4.85 1.85-.4 2.15-.4q.7 0 2.45.7l2.25.8.05.05.6-1.65q0-.4-1.65-1.5l-1.9-1.2q-2.35-2.6-3.6-4.7Q-13.45 3.8-14 1l-.25-6.7q0-10.65 4.4-17.8l3-4.35q1.35-1.95 1.35-3.3 0-2.6-.15-3.55l.15-.2q2.1-3.35 4-4.05l5.45-.4q6.6 0 9 1.05 3.65 1.65 5.4 4.8 1.7 3.1 2.55 7.5.8 4.4.65 6.3l-.45 3.35-.55 2.4-.2 2.85q-.35 5.45-.2 9.55l.55 4.2q0 14.2 2.35 15.7 2.3 1.45 3.6 3.7Q27.9 24.3 28 26.8q.1 2.45-1.05 4.75-1.2 2.25-3.1 3.85-1.95 1.55-2.7 1.5l-1.2-.25-2.15-.4-4-.4-3.3-.15-1.9.2-7.35 1.7q-6.3 1.5-9.35 1.65l-6.1.05q-3-.1-4.75-1.35l-1.65-1.8-1.6-1.8-4.6-3.35q-1.2-1.15-1.2-4.2 0-4.6 1.7-7.55m15.3-33.5-.4 1.45q-.75 2.95-.85 6.3-.25 6 2.1 11.1t7.25 8.35l2.4 1.45q3.3 1.7 5.75 1.65l4.85-.2 1.8-.25.3-.25 1.1-.95.2-.25q1.1-1.25 2.1-1.5l2.95-.95q.55-.4.55-2.1 0-2.3-2.1-7.8t-2.1-9.7q0-5.95 2.9-10.85l.05-.35v-1.3q0-3.45-1.35-6.9-2.8-7.05-10.2-7.05-3.1 0-6.2 2.45-3.15 2.45-5.35 6l-3.7 6.75-2.05 4.9m29.65 45.7 1.1.05 2.4-2.4q1.5-1.9 1.35-3.25-.15-1.35-2.05-2.9L19 20.7q-1.25-1.6-1.45-3.45l-.05-1.95-.1-1.15-.35-.05h-.1q-.8 0-2.95.75-2.2.7 1.8 1l-4.3.7q-1.5.75-3 1.1l-2.7.25-3.9-.55q-2.15-.55-2.85-.55l-.75.1q.05 1.75.8 2.8l.85.95 1.1 1q1.45 1.2 1.75 1.9l.65.85.05.05.9.7-1-.6-.85-.6-2.15-1.5-2.95-1.9q-1.8-1-2.95-1.3-3.3-.9-5.3-1.25l-1.95-.2q-2.1 0-2.75.55-.7.55-1.65 2.2L-19.1 24l-.1.15q-1.1 1.95-1.05 2.75.05.8 2.15 4t2.95 3.4q.85.15 1.6-.9Q-15 30.25-15 27.7q0-1 .95-2.15l.3-.35.8-1 .3-.5q1.1-2.35 3.9-2.35l.45.05q1.15.1 2.35.9l1.35 1.15.6.75.05.1h-.2l-3.2-.9-2.3-.45q-.65 0-1.95 2.15l-.15.2q-2.5 2.4-2.3 3.05l.85 2.1 1.05 1.95 1.4 1.15q1 .6 3.5.95 2.45.3 9.9-1.55l8.75-1.7 1.9-.15 5.35.35" fill="#6d1d03" transform="translate(28 39.35)"/><path d="M8.5 17.65q1.5-.35 3-1.1l4.3-.7q-4-.3-1.8-1 2.15-.75 2.95-.75h.1l.35.05.1 1.15.05 1.95q.2 1.85 1.45 3.45l2.45 2.25q1.9 1.55 2.05 2.9.15 1.35-1.35 3.25l-2.4 2.4-1.1-.05 1.1-1.5q.5-1.05.5-2.75 0-2.15-1.05-4-1.05-1.8-2.85-3.05-1.25-.85-4.3-1.5l-3.55-1" fill="#b65b24" transform="translate(28 39.35)"/><path d="m-.5 14.4 2.25.35 2-.1 2.75-.85q2.85-1.2 1.95-7.05Q7.5.9 5.4-2.35q-2.1-3.3-4.25-8.05-2.2-4.75-6.25-6.55l-2.55-.3-.3.05q-1.7.55-3.05 2.95l2.05-4.9 3.7-6.75q2.2-3.55 5.35-6 3.1-2.45 6.2-2.45 7.4 0 10.2 7.05 1.35 3.45 1.35 6.9v1.3l-.05.35q-2.9 4.9-2.9 10.85 0 4.2 2.1 9.7 2.1 5.5 2.1 7.8 0 1.7-.55 2.1l-2.95.95q-1 .25-2.1 1.5l-.2.25-1.1.95-.3.25-1.8.25-4.85.2Q2.8 16.1-.5 14.4m9 3.25 3.55 1q3.05.65 4.3 1.5 1.8 1.25 2.85 3.05 1.05 1.85 1.05 4 0 1.7-.5 2.75l-1.1 1.5-5.35-.35-1.9.15-.85-1.4q-.65-1.1-1.45-1.9l1.7-.35q2.6-.75 2.6-1.95 0-2.45-3.1-3.95-2.75-1.35-6.25-1.35l-4.1.3-.85-.95q-.75-1.05-.8-2.8l.75-.1q.7 0 2.85.55l3.9.55 2.7-.25" fill="#cc6a22" transform="translate(28 39.35)"/><path d="M3.75 14.65Q-5.15 10.5-8.75 1.6q2.5-.25 3.25-2.9 1.8-6.1-3.3-7.9l-1.65-.05v-.3q.7-4.1 2.5-7.65l.3-.05 2.55.3q4.05 1.8 6.25 6.55Q3.3-5.65 5.4-2.35 7.5.9 8.45 6.75q.9 5.85-1.95 7.05l-2.75.85m.65 10.5-.9-.7-.05-.05-.65-.85q-.3-.7-1.75-1.9l-1.1-1 4.1-.3q3.5 0 6.25 1.35 3.1 1.5 3.1 3.95 0 1.2-2.6 1.95l-1.7.35-1.9-1.3-1.9-.95-.9-.55" fill="#eb9329" transform="translate(28 39.35)"/><path d="m-23.6 24.15.4-1.15q.95-2.25 2.35-2.85h1.05l.4.1-1.5 3.3-.35.85-.1.25-.75.05q-.85 0-1.5-.55m12 .95q1.3-2.15 1.95-2.15l2.3.45 3.2.9h.2l-.05-.1-.6-.75 2 1.45L-.9 26l1.2 1.25q.8 1.05.8 1.4l-.35.75v.45q.25.05 1.1-.45l.9-.9q0-.4-1.15-.7-1.2-.3-1.2-1.55 0-1 .55-1.45l1.6-.85.85.6 1 .6.9.55 1.9.95 1.9 1.3-1.5.45-3.5 1.75q-1.75.65-3.5.65l-3.8-.2-3.85-.4q-1.8-.2-3.2-1.95-1.25-1.5-1.35-3.15m3.3-3.7-.45-.05q-2.8 0-3.9 2.35l-.3.5-.8 1-1.15.65-1.95.3q-1.25 0-1.7-.7L-19.1 24l1.95-3.45q.95-1.65 1.65-2.2.65-.55 2.75-.55l1.95.2.9 1.6 1.6 1.8" fill="#fff5d6" transform="translate(28 39.35)"/><path d="M-23.6 24.15q.65.55 1.5.55l.75-.05q-.65 1.5-.3 1.75.45.3.35 2.35l-.1.1-1.7-.9q-.9-.65-.9-1.45 0-1.1.4-2.35m35 7.1-8.75 1.7q-7.45 1.85-9.9 1.55-2.5-.35-3.5-.95l-1.4-1.15-1.05-1.95-.85-2.1q-.2-.65 2.3-3.05l.15-.2q.1 1.65 1.35 3.15 1.4 1.75 3.2 1.95l3.85.4 3.8.2q1.75 0 3.5-.65l3.5-1.75 1.5-.45q.8.8 1.45 1.9l.85 1.4m-25.15-6.05-.3.35Q-15 26.7-15 27.7q0 2.55 1.45 5.7-.75 1.05-1.6.9-.85-.2-2.95-3.4-2.1-3.2-2.15-4-.05-.8 1.05-2.75l.1-.15.55 1.45q.45.7 1.7.7l1.95-.3 1.15-.65" fill="#dfc893" transform="translate(28 39.35)"/><path d="m-4.6 23.45-1.35-1.15q-1.2-.8-2.35-.9l-1.6-1.8-.9-1.6q2 .35 5.3 1.25 1.15.3 2.95 1.3l2.95 1.9 2.15 1.5-1.6.85q-.55.45-.55 1.45 0 1.25 1.2 1.55 1.15.3 1.15.7l-.9.9q-.85.5-1.1.45v-.45l.35-.75q0-.35-.8-1.4L-.9 26l-1.7-1.1-2-1.45" fill="#dfccaf" transform="translate(28 39.35)"/><path d="m-.5 14.4-2.4-1.45Q-7.8 9.7-10.15 4.6q-2.35-5.1-2.1-11.1.1-3.35.85-6.3l.4-1.45q1.35-2.4 3.05-2.95-1.8 3.55-2.5 7.65v.3l1.65.05q5.1 1.8 3.3 7.9-.75 2.65-3.25 2.9 3.6 8.9 12.5 13.05l-2 .1-2.25-.35" fill="#ffbf98" transform="translate(28 39.35)"/></g><g id="F" fill-rule="evenodd"><path d="m33.2-30.25-3.65.45q-4.5 1-4.95 4.75-.4 3-3.75 3l-3.2-.65-4.55-.7q-1.15 0-1.35.85l-.6 2.8q-1 2.4-3.85 2.4-1.25 0-4.05-.95l-3.45-.95-.45.05-1-.8q-.85-2.1-2.45-4.35-1-1.35-1-6.3 0-5.45 2.8-10.85 2.1-4.05 5.5-7.15l9.25 1.75q13.25 3.05 16.6 6.75Q31-38 32.8-31.7l.4 1.45" fill="#b65b24" transform="translate(40.6 49.85)"/><path d="m-.65-19.2.45-.05 3.45.95q2.8.95 4.05.95 2.85 0 3.85-2.4l.6-2.8q.2-.85 1.35-.85l4.55.7 3.2.65q3.35 0 3.75-3 .45-3.75 4.95-4.75l3.65-.45q1.9 6.75 3.3 9.55 4.15 8.45 4.15 26.45 0 16.6-1.45 22.35-.95 3.55-3.05 7.4l-1 1.65-2 2.95q-18.85 5.1-24.8 5.25l-11.55.3q-5.55.15-7.75-1.2-1.9-1.2-4.05-3.5l-.9-1-4.2-4.85q.6 2.25 1.7 4.25l.9 1.5q-3.1-3.15-5.25-6.2-5.05-7.15-8.25-17-1.75-5.4-2.85-11.25v-.1q1.7-1.55 2.05-2.7l-.35-1.95q-.65-3.45-.65-5.2l.1-3.9-.1-2.05q-.5-4.05-3-5.95-2.1-1.65-2.8-3.15-.7-1.35-.55-6.55 6.45-4.6 8.05-11.2 1.55-6.6 4.35-8.85 5.75-4.65 15.4-4.65l14.55 1.2q-3.4 3.1-5.5 7.15-2.8 5.4-2.8 10.85 0 4.95 1 6.3Q-2.5-22.1-1.65-20q-2.65-2.05-5.85-3.85-2.75-1.5-5.85-2.85-2.7-1.15-4.8-1.4-5.2-.6-7.3 4.2l-.8 2.2q-1 3.45-1.05 8.15l-.25 1.5Q-28.7-4.95-25.7 5.6q2.95 10.55 6.75 16.2l1.6 2.2.2.3q-.45 5.5 2.4 10.15 2.9 4.8 8.35 7.25 5.4 2.4 9.5 1.75l4.1-1.1q1.55-.75 2.5-2.6l.8-2.45q.6-2.8.6-9.65 0-3.45-.5-7.2-.75-5.35-2.35-8.8v-.25L8.6 8Q9.15 1.85 8-5.15q-1-6.1-5.35-10.95L1.3-17.45-.65-19.2" fill="#cc6a22" transform="translate(40.6 49.85)"/><path d="m-1.65-20 1 .8 1.95 1.75 1.35 1.35L4-10.85q.85 4 .1 8.85-.75 4.9-2.75 10.6Q-.7 14.3-2.8 18.95q-2.15 4.6-4.7 8.7 4.1 2.25 8.15-.55 3.65-2.6 6.4-6.3l-.25 1.75-.8 3.4q-.65 1.9-1.6 3.05-.95 1.15-2.2 1.55l-.5.15-.1.05h-.2l-.95.05-7.3-.65-1.85-.55q-4.05-1.5-6.6-4.6-4.8-5.85-7.45-13.15 1.5-.5 3.85-2.1 3-2.05 4.5-4.2 7.35-10.5 7.35-17.75v-2.35q-.25-.7-1.85-.7-1.7 0-3.6 1.45-1.95 1.45-3 1.45-1 0-1.85-1.75-.85-1.8-2.15-1.8-.95 0-2 2-1 2.35-1.35 2.9l-1.85 2.45-2.2 3.2q-.5-4.5-.4-8.2.05-4.7 1.05-8.15l.8-2.2q2.1-4.8 7.3-4.2l-.1 1.7q0 2.85 1.6 6.8 1.65 4.1 3.35 4.2 1.7.05 3.65-2.9Q-8-20.95-7.5-23.85q3.2 1.8 5.85 3.85" fill="#e3bc6b" transform="translate(40.6 49.85)"/><path d="M2.65-16.1Q7-11.25 8-5.15q1.15 7 .6 13.15l-.35 3.4v.25l-1.2 9.15Q4.3 24.5.65 27.1q-4.05 2.8-8.15.55 2.55-4.1 4.7-8.7Q-.7 14.3 1.35 8.6 3.35 2.9 4.1-2q.75-4.85-.1-8.85L2.65-16.1" fill="#dfc893" transform="translate(40.6 49.85)"/><path d="M8.25 11.65q1.6 3.45 2.35 8.8.5 3.75.5 7.2 0 6.85-.6 9.65l-.8 2.45q-.95 1.85-2.5 2.6l-4.1 1.1q-4.1.65-9.5-1.75-5.45-2.45-8.35-7.25-2.85-4.65-2.4-10.15 2.65 3.45 4.7 4.5 8.05 4.85 16.3 2.25l.55-.25q2.85-3.4 1.6-4.85l.8-3.4.25-1.75 1.2-9.15" fill="#eb9329" transform="translate(40.6 49.85)"/><path d="m-17.15 24.3-.2-.3-1.6-2.2q-3.8-5.65-6.75-16.2-3-10.55-1.85-17.65l.25-1.5q-.1 3.7.4 8.2l.1.85.05.35q.7 5.4 3.3 13.8l.7 2.2q2.65 7.3 7.45 13.15 2.55 3.1 6.6 4.6l1.85.55 7.3.65.95-.05h.2l.1-.05.5-.15q1.25-.4 2.2-1.55.95-1.15 1.6-3.05 1.25 1.45-1.6 4.85l-.55.25q-8.25 2.6-16.3-2.25-2.05-1.05-4.7-4.5m50.3 15.8-2.3 3-2.45 1.7-2.3 1.35q-7.05 3.6-16.05 3.6l-17.8.1q-.9 0-1.4-.45l-1-.9-1-.95-5.4-5.35-.5-.55-.45-.8-.9-1.5q-1.1-2-1.7-4.25l4.2 4.85.9 1q2.15 2.3 4.05 3.5 2.2 1.35 7.75 1.2l11.55-.3q5.95-.15 24.8-5.25m-67-33.8-.15-.65-1.9-4q-1.65-4.05-3.35-10.1l-.3-1.05q-1.95-7.7-.2-14.5l.6-1.15q-.15 5.2.55 6.55.7 1.5 2.8 3.15 2.5 1.9 3 5.95l.1 2.05-.1 3.9q0 1.75.65 5.2l.35 1.95q-.35 1.15-2.05 2.7" fill="#6d1d03" transform="translate(40.6 49.85)"/><path d="M-18.15-28.1q2.1.25 4.8 1.4 3.1 1.35 5.85 2.85-.5 2.9-2.15 5.55-1.95 2.95-3.65 2.9-1.7-.1-3.35-4.2-1.6-3.95-1.6-6.8l.1-1.7" fill-opacity=".804" transform="translate(40.6 49.85)"/><path d="m-22.75 11.85-.7-2.2q-2.6-8.4-3.3-13.8l-.05-.35-.1-.85 2.2-3.2 1.85-2.45q.35-.55 1.35-2.9 1.05-2 2-2 1.3 0 2.15 1.8.85 1.75 1.85 1.75 1.05 0 3-1.45 1.9-1.45 3.6-1.45 1.6 0 1.85.7v2.35q0 7.25-7.35 17.75-1.5 2.15-4.5 4.2-2.35 1.6-3.85 2.1" fill="#fff5d6" transform="translate(40.6 49.85)"/></g><g id="G" fill-rule="evenodd"><path d="m-20.05-31.05 4.1-.35q4.25.75 7.55 3.65 3.8 3.3 5.25 8.25.5 1.7 1.5 3.25Q.6-12.6 3.95-10.3 7.9-7.45 8-2.7q.05 4.75-2.7 8.6-2.9 4-7.3 5.35l-2.15.6q-3.35.4-6.65.15-3.5-1.9-6.25-4.7-3.55-3.6-5.9-8.9l-1.25-2.9q4 .05 7.15-2.35 3.05-2.45 1.6-6.9-1.55-4.5-5-4.8-3.45-.3-5.05.1.8-5.75 2.7-8.65l2.75-3.95m4.2 30.55q0 1.25 1.1 2.15 1.15.9 2.7.9 1.55 0 2.65-.9Q-8.25.75-8.25-.5T-9.4-2.65q-1.1-.9-2.65-.9-1.55 0-2.7.9-1.1.9-1.1 2.15" fill="#eb9329" transform="translate(31.3 42.7)"/><path d="m-27.8-23.6 3.8-4.9q1.75-1.9 3.95-2.55l-2.75 3.95q-1.9 2.9-2.7 8.65 1.6-.4 5.05-.1 3.45.3 5 4.8 1.45 4.45-1.6 6.9-3.15 2.4-7.15 2.35l1.25 2.9q2.35 5.3 5.9 8.9 2.75 2.8 6.25 4.7l-3.05-.4-3.25-.8q-3.3-1.9-5.7-4.8-7.1-8.7-6-21.7l1-7.9M-15.85-.5q0-1.25 1.1-2.15 1.15-.9 2.7-.9 1.55 0 2.65.9 1.15.9 1.15 2.15T-9.4 1.65q-1.1.9-2.65.9-1.55 0-2.7-.9-1.1-.9-1.1-2.15" fill="#ffbf98" transform="translate(31.3 42.7)"/><path d="m-23.85-36.6.1-.3.15-.25q3.15-2.2 12.25-4.4l1.05-.25 2.2-.55q5.35-.7 10.7.05l.6.15 2.5 1.05 1.05.3q2.35.85 6 3.2 2.9 1.85 4.9 5.95-2.15 1.55-4 6.05-1.85 4.45-1.85 7.05 0 2.2 3.35 6.2 3.3 4 3.2 7.05-.1 3.05-.55 5.85l-.3 1.85-.5.85Q11.15 13.3-1.15 14.1q-6.7.25-11.8-1.45l-2.6-1.05-1.55-.8 3.25.8 3.05.4q3.3.25 6.65-.15l2.15-.6Q2.4 9.9 5.3 5.9 8.05 2.05 8-2.7q-.1-4.75-4.05-7.6-3.35-2.3-5.6-5.95-1-1.55-1.5-3.25-1.45-4.95-5.25-8.25-3.3-2.9-7.55-3.65l-4.1.35q-2.2.65-3.95 2.55l-3.8 4.9q1.3-7.5 3.95-13M-4.8 20q.55-.55 2.45-1l2.75-.5 2.7-.4 1.8-.15h1.25l1.4.2q.7.15 1.1 1.1l-2.4.4-3.05 1.1-3.05 1.2-1.6 1.1q-1.4.95-2.3.95-.7 0-1.05-3.45V20" fill="#cc6a22" transform="translate(31.3 42.7)"/><path d="m17.5 2.4.3-1.85q.45-2.8.55-5.85.1-3.05-3.2-7.05-3.35-4-3.35-6.2 0-2.6 1.85-7.05 1.85-4.5 4-6.05 2.1 4.4 3.15 11.4 1.95 12.9-3.3 22.65" fill="#b65b24" transform="translate(31.3 42.7)"/><path d="M5.7-41.1q8.05-.35 13.2 6.45 5.5 7.2 5.95 16.1l.05.7q.3 6.95-.3 13.9-.85 9.25-7.85 14.55l-2.95 2 1.7 1.95q1.8 1.95 5.3 2 3.5 0 7 2.9 3.45 2.9 3.5 9.2.05 6.3-5.9 8.25-1.2 2.75-5.45 4.55-4.25 1.8-9.9 1.15-5.7-.5-10.8-2.55-5.1-2.1-7.7-5.9-2.15-3.15-1.15-5.9.65-2.1.15-5.05-.5-2.95-.95-3.6-.5-.65-8.15-3.65-7.4-2.95-7.65-9.35l-2.65-5-1.35-3.8q-1.95-6.2-.45-18.3Q-29.3-32.15-24-36.65l.15.05q-2.65 5.5-3.95 13l-1 7.9q-1.1 13 6 21.7 2.4 2.9 5.7 4.8l1.55.8 2.6 1.05q5.1 1.7 11.8 1.45Q11.15 13.3 17 3.25l.5-.85q5.25-9.75 3.3-22.65-1.05-7-3.15-11.4-2-4.1-4.9-5.95-3.65-2.35-6-3.2l-1.05-.3m2.8 56.5q-2.6 1-5.05 1.4-2.4.35-8.35.2l.1 3v.55Q-4.45 24-3.75 24q.9 0 2.3-.95l1.6-1.1 3.05-1.2 3.05-1.1 2.4-.4.25-.05q1.6-.3 2.05-1.05l.1-1-.45-1.8-.6-.6q-.8.35-1.5.65M-3.4 29.35Q-4 31.6-2.1 33.6l.75.65q1.5 1.15 3.1 1.85l.35.1q2.3.9 4.75.8-1-2.95.05-6.1h.2l.85 4.95.15 1.6 5.4.4 4.8-.55q1.65-1.05 1.1-4.35-.6-3.3-1.85-4.45l-5.05-4.9q3.15.35 6.1 3.45 2.95 3.1 3 5.75 2.6.65 4.1-1.55 1.5-2.2-.7-6.6-2.2-4.45-8.6-5l-7.65.2q-4.4.65-8.2 3.65-2.45 1.85-3.5 4.6l-.1.25-.35 1" fill="#6d1d03" transform="translate(31.3 42.7)"/><path d="m-4.8 20-.1-3q5.95.15 8.35-.2 2.45-.4 5.05-1.4l.5 1.25.6.85.2.15q.45.35 1.15.5-.45.75-2.05 1.05l-.25.05q-.4-.95-1.1-1.1l-1.4-.2H4.9l-1.8.15-2.7.4-2.75.5q-1.9.45-2.45 1" fill="#b55b24" transform="translate(31.3 42.7)"/><path d="M10.95 18.15q-.7-.15-1.15-.5l-.2-.15-.6-.85-.5-1.25q.7-.3 1.5-.65l.6.6.45 1.8-.1 1" fill="#91efe6" transform="translate(31.3 42.7)"/><path d="M13.5 37.85q2.5-1.05 3.1-4.1.55-3.2-1.45-5.5-2-2.35-4.3-3.4-2.35-1.1-5.1-.85-2.7.15-5.05 1.65-2.3 1.5-4.1 3.7l.35-1 .1-.25q1.05-2.75 3.5-4.6 3.8-3 8.2-3.65l7.65-.2q6.4.55 8.6 5 2.2 4.4.7 6.6-1.5 2.2-4.1 1.55-.05-2.65-3-5.75t-6.1-3.45l5.05 4.9q1.25 1.15 1.85 4.45.55 3.3-1.1 4.35l-4.8.55M1.75 36.1q.5-3.25 2.15-4.55 1.6-1.3 2.45-1.2l.65.2-.1.35q-1.05 3.15-.05 6.1-2.45.1-4.75-.8l-.35-.1" fill="#dfc893" transform="translate(31.3 42.7)"/><path d="M-3.4 29.35q1.8-2.2 4.1-3.7 2.35-1.5 5.05-1.65 2.75-.25 5.1.85 2.3 1.05 4.3 3.4 2 2.3 1.45 5.5-.6 3.05-3.1 4.1l-5.4-.4-.15-1.6-.85-4.95-.1-.35-.65-.2q-.85-.1-2.45 1.2-1.65 1.3-2.15 4.55-1.6-.7-3.1-1.85l-.75-.65q-1.9-2-1.3-4.25" fill="#fff5d6" transform="translate(31.3 42.7)"/></g><g id="H" fill-rule="evenodd"><path d="M-27.45 17.05q12.25 5.3 24.85 0 4.05-1.65 7.35-4.6l1-1.25q2.2-2.85 2.2-5.3 0-3.4-2.2-4.65Q4.6.65 0-.15h-.05l-6.3.25-10.6-1.3 4.55-.95Q-4-3.4 4.5-2.3l1.4.2.25.05q1.3.2 2.45 1.25 1.8 1.65 2.05 3.7.25 2.05-.65 4.8t-.9 3.4q0 .65.4.85l1.2.15q4.5 0 8.65-5.3Q23.6 1.3 23.7-6.95q.05-5.3-3.55-8.85-3.1-2.8-7.15-3.55l-1.8-.15-.5-.05-3.4-.15q-5.2-.05-10.6 1.1-6.8 1.4-11 4.35-1.3-.85-2.55-1Q-9.5-20-1.9-22.05 4.25-23.6 8.25-23l.65.1 2.3.05 4.65 1q2.9.75 5.65 2 2.95 1.9 4.2 4.4 2.1 4.4 1.95 10.1-.2 5.65-1.8 9.4-1.65 3.7-4.45 6.8-2.85 3.1-4.9 4.3-2.1 1.2-2.8 1.4l-3.05.9-3.9.7H6.7q-11.35 6.1-24.5 4.75-6.1-.45-9.85-5.25l.2-.6" fill="#3b0937" transform="translate(27.65 23.15)"/><path d="M-16.85-15.25q1.25.15 2.55 1 4.2-2.95 11-4.35 5.4-1.15 10.6-1.1l3.4.15.5.05 1.8.15q4.05.75 7.15 3.55 3.6 3.55 3.55 8.85-.1 8.25-4.35 13.75-4.15 5.3-8.65 5.3l-1.2-.15q-.4-.2-.4-.85 0-.65.9-3.4t.65-4.8Q10.4.85 8.6-.8 7.45-1.85 6.15-2.05L5.9-2.1l-1.4-.2q-8.5-1.1-16.9.15l-4.55.95L-6.35.1l6.3-.25H0q4.6.8 5.75 1.4 2.2 1.25 2.2 4.65 0 2.45-2.2 5.3l-1 1.25q-3.3 2.95-7.35 4.6-12.6 5.3-24.85 0 .7-2.05 1.9-7.9 1.5-7.55 1.5-10.45 0-1.3-.65-2.65-.7-1.35-.7-2.25 0-2.3 2.75-5.7 2.8-3.45 4.7-3.45l1.1.1" fill="#62105b" transform="translate(27.65 23.15)"/></g><g id="I" fill-rule="evenodd"><path d="M2.15-17.15q1.3-.85 2.6-.85 2 0 4.7 1.9l5.45 4.3q3.55 2.9 4.85 5.25.65 1.15 1 3.15L21.1.15v.95q.05 5.3-1.55 12.95-1.3 5.9-3.5 8.65l-2 .05h-1.1q-9.95 0-18.5-3.4-4.7-1.85-7.8-4.15l-1.95-1.55q-2.35-2.2-3.45-4.75-2.65-6.25-2.8-7.7l2.35-1.9 1.45-1.85q.75-1.2 1.25-2.55l.4-1.1q.9-3.4.45-6.95l1.3-.15 5.2-.3.9-.05q5 0 7.45-1.25.8-.4 1.35-.95l1.6-1.3m12.1 33.85 1.5-5.5q1.9-7.85.7-15.8L13.7-6.65 7.45-12l-2.4-1.8-1.95 1.4-.25.15q-1.1.6-2.6 1.25l-1.2.45q-4.45 1.8-11.6-.15l.2 2.3q-.05 1.75-.5 4.05-.85 3.85-4.6 6.45 1.25 3.2 3 6.1 1.7 2.85 2.8 4.05l5.8 2.5L1.8 17.1q5.8 1.55 11.65 1.95l.8-2.35" fill="#8a6115" transform="translate(33.55 42.8)"/><path d="m20.75-3.4 3.65.9q5.35 1.3 7.45 6.2 1.85 4.5 1.75 9.75l-.05 1.15-.1.8q-.65 4.2-1.8 6.6l-2.05 3.5-1.65 2.9-1.2 2.4q-1 2.6-5 5.1-4.05 2.55-7.4 2.55l-2.75-.35q-1.65.8-3.7 1.2l-6.6.5q-4.1.05-6.65-1.15-2.55-1.25-2.95-2.6-.4-1.35-3.55-2.95-3.15-1.65-4.3-3.7-1.15-2.05-1.15-5 0-3 .55-5.75l.55-2.95.75-1.85.15-.2 1.95 1.55-.25 2.7v2.3l.05 2.9.05 1.9q0 .55.95 1.4l3.1 2.8q2.2 1.9 3.05 1.95.85.05 1.8-3.2.95-3.2 1.35-6.1h.05l.2.4.3.75q.25.7.25 1.95l-.2 2.6q-.25 1.75-.45 2.3l-1.5 1.85-1.1 1.15q0 1 2.25 1.8l4.4 1.3q2.2.45 5.35-.05l1.1-.25q2.25-.6 3.4-1.8l1.85-2.55.95-3.3q.45-2.25.15-3.15l-.65-2.1h.95q.4.4.85 2l.05.15.05.2q.65 2.55.45 5.05l-.75 3.95v.15l1.55-.4 2.8-1.3.1.05.05-.15 2.7-1.85q1-1 2.1-3.4 1.05-2.45 1.2-4.35.15-1.9-.3-3.85-.55-2.3-1.3-3.8 1.6 2.55 3.75 7.95l1.25-3.55q.7-2.6.95-7.65.25-5.05-2.2-7.6-2.3-2.4-6.25-4.2l-.35-3.55M-19.2-.7l-.65-1.95-2.05-3.95.05-.05.7.55q1.8 1.6 3.4 3.55L-19.2-.7m12.7-25.35 8.65 8.9-1.6 1.3Q0-15.3-.8-14.9l-6.9-5.85q-4.3-3.9-4.8-6.5l-.05-.45q-.4-2.25-.05-2.8l1.25-.95 4.85 5.4" fill="#6d1d03" transform="translate(33.55 42.8)"/><path d="m3.1-12.4 1.95-1.4 2.4 1.8 6.25 5.35 2.75 2.05q1.2 7.95-.7 15.8l-1.5 5.5L7.7 16q-5.4-1.05-10.05-2.5-4.7-1.45-8.3-4.7l1.05-1.1q1-1 1-2.05 0-1.3-.3-1.85-.4-.7-1.75-1.15l-1.95-.4-1.1-.05-.35-.55q0-.85 1.65-3.9 1.6-3.05 1.6-3.95 0-1-.4-1.9 1.05.3 2.25 1 1.6.95 3.4 3.4-.6 1.15-.4 2.8.35 2.85 1.6 5.45L-2.9 6.9l-.05.45q0 1.55 2.7 3.25 2.4 1.5 3.85 1.5l2.05-.1 2-.7 3.9 4.9q1.55-.2 2.9-5.5l.7-3.05.5-3.4q0-3.5-.55-5.55-.75-2.75-2.75-4.5l-4.4-3.7Q5.4-11.4 3.1-12.4M-6.6 4.95q-.65 0-1.1.45-.45.45-.45 1.1 0 .65.45 1.1.45.45 1.1.45.65 0 1.1-.45.45-.45.45-1.1 0-.65-.45-1.1-.45-.45-1.1-.45" fill="#ffec59" transform="translate(33.55 42.8)"/><path d="M3.1-12.4q2.3 1 4.85 2.9l4.4 3.7q2 1.75 2.75 4.5.55 2.05.55 5.55l-.5 3.4Q8-3.2.25-11q1.5-.65 2.6-1.25l.25-.15" fill="#d6c01e" transform="translate(33.55 42.8)"/><path d="M-.8-14.9q-2.45 1.25-7.45 1.25l-.9.05-1.05-1.45q-1.7-2.15-3.85-4.1l-3.4-2.7q-1.2-.75-2.5-.95-1.35-.25-2.1.4-.7.6-1.25 2.9l-.25-.8-.3-1.75q0-1.65.9-2.6 1.8-1.95 2.5-3.05l.8-1.5 1.1-.9 2.9-.4q1.25 0 2.2 1.45l.9 1.35.05.45q.5 2.6 4.8 6.5l6.9 5.85" fill="#cc6a22" transform="translate(33.55 42.8)"/><path d="M-21.85-6.65-22-6.8l-.05.05q-3.15-2.6-6.55-9.4l-3.65-6.5q-1.3-2.3-1.3-4.75l.15-2.8q.3-1.15 2-3.85 1.35-2.1 4-4.65l1.05-.95.15-.15q8.05.3 13.7 7l1.15 1.35-1.25.95q-.35.55.05 2.8l-.9-1.35q-.95-1.45-2.2-1.45l-2.9.4-1.1.9-.8 1.5q-.7 1.1-2.5 3.05-.9.95-.9 2.6l.3 1.75.25.8-.15.5-.05.45q-.25 2.75 2.9 7.4 2.7 4 4.5 4.95l-.4 1.1q-.5 1.35-1.25 2.55-1.6-1.95-3.4-3.55l-.7-.55" fill="#b65b24" transform="translate(33.55 42.8)"/><path d="m-9.15-13.6-5.2.3-1.3.15q.45 3.55-.45 6.95-1.8-.95-4.5-4.95-3.15-4.65-2.9-7.4l.05-.45.15-.5q.55-2.3 1.25-2.9.75-.65 2.1-.4 1.3.2 2.5.95l3.4 2.7q2.15 1.95 3.85 4.1l1.05 1.45" fill="#eb9329" transform="translate(33.55 42.8)"/><path d="m15.15 7.65-.7 3.05q-1.35 5.3-2.9 5.5l-3.9-4.9-2 .7-2.05.1q-1.45 0-3.85-1.5-2.7-1.7-2.7-3.25l.05-.45 1.9 2q2 1.75 4.55 2.15 2.5.35 2.8-1.95.3-2.35-.6-4.8-.95-2.45-2.7-4.75Q1.3-2.75-.3-3.8q-1.6-1.05-2.5-1.25l-1.15-.2h-.3q-.9.65-1.3 1.55-1.8-2.45-3.4-3.4-1.2-.7-2.25-1l-.35-.1-.8-.2-.2-2.3q7.15 1.95 11.6.15L.25-11Q8-3.2 15.15 7.65" fill="#c19d21" transform="translate(33.55 42.8)"/><path d="M-11.2-8.1q.4.9.4 1.9 0 .9-1.6 3.95-1.65 3.05-1.65 3.9l.35.55 1.1.05 1.95.4Q-9.3 3.1-8.9 3.8q.3.55.3 1.85 0 1.05-1 2.05l-1.05 1.1q3.6 3.25 8.3 4.7Q2.3 14.95 7.7 16l6.55.7-.8 2.35Q7.6 18.65 1.8 17.1l-7.65-2.35-5.8-2.5q-1.1-1.2-2.8-4.05-1.75-2.9-3-6.1 3.75-2.6 4.6-6.45.45-2.3.5-4.05l.8.2.35.1" fill="#fffac8" transform="translate(33.55 42.8)"/><path d="m-2.9 6.9-1.45-2.35Q-5.6 1.95-5.95-.9q-.2-1.65.4-2.8.4-.9 1.3-1.55h.3l1.15.2q.9.2 2.5 1.25T3.05-.45q1.75 2.3 2.7 4.75.9 2.45.6 4.8-.3 2.3-2.8 1.95Q1 10.65-1 8.9l-1.9-2m-.05-10.5-.4-.25-1.05-.2-.2.05-.15.2v.75q0 3.65 2.3 7.15 1.95 3 4.5 4.3l.75.3.8-.15.55-1.45Q4.4 5.8 1.5 1.8q-2.95-4.05-4.15-5.1l-.3-.3" fill="#34510b" transform="translate(33.55 42.8)"/><path d="M2.05 8.4Q-.5 7.1-2.45 4.1q-2.3-3.5-2.3-7.15v-.75l.15-.2.2-.05 1.05.2.4.25q.35.9.45 2.75l-.1.75.35.05.15.05q2 .35 2 1.85 0 .6-.55 1.15l-.6.65.75 1.4.25.3.65.9 1.2 1.5.45.65" fill="#d1e553" transform="translate(33.55 42.8)"/><path d="m2.05 8.4-.45-.65-1.2-1.5-.65-.9q.4.15 1.4.85l.75.25.7-.15.2-.7q0-1.1-1.7-3.45-1.75-2.4-2.55-2.4L-2.1 0l-.15-.05-.35-.05.1-.75q-.1-1.85-.45-2.75l.3.3q1.2 1.05 4.15 5.1 2.9 4 2.65 5.3L3.6 8.55l-.8.15-.75-.3" fill="#70c31f" transform="translate(33.55 42.8)"/><path d="m-.25 5.35-.25-.3-.75-1.4.6-.65q.55-.55.55-1.15 0-1.5-2-1.85l.65-.25q.8 0 2.55 2.4Q2.8 4.5 2.8 5.6l-.2.7-.7.15-.75-.25q-1-.7-1.4-.85M.2 4.4l.2.6q.25.3.6.3l.55-.3.2-.6-.2-.6Q1.3 3.55 1 3.55l-.6.25-.2.6" fill="#546f10" transform="translate(33.55 42.8)"/><path d="M-6.6 4.95q.65 0 1.1.45.45.45.45 1.1 0 .65-.45 1.1-.45.45-1.1.45-.65 0-1.1-.45-.45-.45-.45-1.1 0-.65.45-1.1.45-.45 1.1-.45" fill="#fffacc" transform="translate(33.55 42.8)"/><path d="M-3.25 21.85q-2.8-.4-5.4-2.5-2.65-2.15-3.45-2.15-.35 0-1.1 1.3l-.4.8v-1.4l.25-2.7q3.1 2.3 7.8 4.15 8.55 3.4 18.5 3.4h.15l.65 2.1q.3.9-.15 3.15l-.95 3.3-1.85 2.55q-1.15 1.2-3.4 1.8Q11 29.9 9.35 27.3q-1.8-2.85-5.15-3.75-3.4-.95-7.2-1.3l-.2-.4-.05-.1v.1" fill="#e2cb97" transform="translate(33.55 42.8)"/><path d="m-13.6 19.3.4-.8q.75-1.3 1.1-1.3.8 0 3.45 2.15 2.6 2.1 5.4 2.5-.4 2.9-1.35 6.1-.95 3.25-1.8 3.2-.85-.05-3.05-1.95l-3.1-2.8q-.95-.85-.95-1.4l-.05-1.9-.05-2.9v-.9M-3 22.25q3.8.35 7.2 1.3 3.35.9 5.15 3.75Q11 29.9 7.4 35.65l-1.1.25q-3.15.5-5.35.05l-4.4-1.3q-2.25-.8-2.25-1.8l1.1-1.15 1.5-1.85q.2-.55.45-2.3l.2-2.6q0-1.25-.25-1.95l-.3-.75m17.9 2.5q1.05-.95 1.6-1.15l1.25-.1q1.5 0 2.15.95.6.9.6 3.1 0 2.45-1.3 4.9l-.15.1-2.8 1.3-1.55.4v-.15l.75-3.95q.2-2.5-.45-5.05l-.05-.2-.05-.15" fill="#fff5d6" transform="translate(33.55 42.8)"/><path d="m14.05 22.75 2-.05q2.2-2.75 3.5-8.65Q21.15 6.4 21.1 1.1V.15q3.95 1.8 6.25 4.2 2.45 2.55 2.2 7.6t-.95 7.65l-1.25 3.55q-2.15-5.4-3.75-7.95.75 1.5 1.3 3.8.45 1.95.3 3.85-.15 1.9-1.2 4.35-1.1 2.4-2.1 3.4l-2.7 1.85q1.3-2.45 1.3-4.9 0-2.2-.6-3.1-.65-.95-2.15-.95l-1.25.1q-.55.2-1.6 1.15-.45-1.6-.85-2" fill="#dfc893" transform="translate(33.55 42.8)"/><path d="m.2 4.4.2-.6.6-.25q.3 0 .55.25l.2.6-.2.6-.55.3Q.65 5.3.4 5l-.2-.6" fill="#cde151" transform="translate(33.55 42.8)"/><path d="m-26.2-39.8-.05-.05q.45-1.15 1.1-1.9l1.45-1.05.2.1q5.25 1.7 9.95 5.4 4.85 3.8 5.95 7 .85 2.45 1.1 4.25l-4.85-5.4-1.15-1.35q-5.65-6.7-13.7-7" fill="#3b0937" transform="translate(33.55 42.8)"/></g><g id="J" fill-rule="evenodd"><path d="M-2.35 9q.15-1.65 1-4.55Q-.35.75-.1 1.2l2.25.15Q4.1 1 4.65.5l1.9-2.2q.55-.9.55-2.15 0-3.2-3.1-3.5v-.15q1.15-.8 2.25-2.55l2-3.85 1.25-2.85.05-.1q2.75.5 3 3.35.2 3.1 0 5.85-.15 2.25-.9 4.45l-.55.8Q9.2 0 6.65 2.25 3.05 5.35-1.5 8.4l-.85.6" fill="#89277f" transform="translate(16.75 28.75)"/><path d="m9.55-16.85-.05.1-1.25 2.85-2 3.85Q5.15-8.3 4-7.5v.15q3.1.3 3.1 3.5 0 1.25-.55 2.15L4.65.5q-.55.5-2.5.85L-.1 1.2Q-.35.75-1.35 4.45q-.85 2.9-1 4.55-4 2.8-6.85 5.85-3.05 3.25-4.65 7.75l-.2-3.4q0-6.7 5.5-14 3.15-4.1 9.8-11.7l4.55-6q3.8-6 3.85-8.25l.05-4.2 1.6 2.5q-.25 2.1-1.05 4l-.7 1.6" fill="#f074da" transform="translate(16.75 28.75)"/><path d="m-2.35 9 .85-.6q4.55-3.05 8.15-6.15Q9.2 0 11.1-2.4l.55-.8.95-1.4q2.2-3.65 1.7-8.8-.5-5.15-2.15-7.75l-.85-1.3-1.6-2.5-.05 4.2Q9.6-18.5 5.8-12.5l-4.55 6Q-5.4 1.1-8.55 5.2q-5.5 7.3-5.5 14l.2 3.4q1.6-4.5 4.65-7.75Q-6.35 11.8-2.35 9m-4.4 9.3q3.95-1.9 10.6 0 1.9-2.4 5.3-8.1 3.4-5.75 4.3-12.2Q9.7 2.35 6.1 5.25l-9.9 7.15q-4.55 3.05-7.05 8.2.3-.5 4.1-2.3M-5-2.75q7.4-8.05 11.15-15.3 2.55-4.9 2.35-9.1l1.05-.15h.25q.95-.2 1.5-.55l1.65-.75.35-.15q1.55 4.85 2.6 9.95 1.65 8.05.3 16.25-1.35 8.2-4.7 14.15-3.4 5.9-7.6 9.85Q1 18.9-3.2 20q-8.65 1.15-10.25 8.8-5.3-7.05-2.15-15.25Q-12.45 5.3-5-2.75" fill="#3b0937" transform="translate(16.75 28.75)"/><path d="M11.65-3.2q.75-2.2.9-4.45.2-2.75 0-5.85-.25-2.85-3-3.35l.7-1.6q.8-1.9 1.05-4l.85 1.3q1.65 2.6 2.15 7.75t-1.7 8.8l-.95 1.4m-18.4 21.5q-3.8 1.8-4.1 2.3 2.5-5.15 7.05-8.2l9.9-7.15Q9.7 2.35 13.45-2q-.9 6.45-4.3 12.2-3.4 5.7-5.3 8.1-6.65-1.9-10.6 0" fill="#62105b" transform="translate(16.75 28.75)"/></g><g id="K" fill-rule="evenodd"><path d="m-6.55-.35-6 5.1q-5.75 5.35-6.9 8.15-1.15 2.75-1.6 4.85l2.2-1.75q2.8-2.05 8.35-4.8 5.6-2.8 9.75-5.45L7.6-.05q3.95-2.9 8-6.6l1.25-1.15q4.7-4.45 5.95-9.45 1.05-4.45-.25-8.9 1.2 0 2.1.75.8.6 1.8.95l-.6 3.25q-.85 4.5-2.8 8.65-1.85 4.1-5.2 6.75-3.8 3.05-6.85 7.05-2.6 3.4-4.8 7.25-2.2 3.75-4.1 7.7l-.7.65-3.8.75q-4.3.1-8.5 1.15-4.3.95-8.3 2.6-3.85 1.7-7 4.8-.5-2.75.3-7.05.8-4.65 3.85-9.55 3-4.95 7.25-8.45 4.5-3.7 9.9-6.15Q.4-7.6 5.45-10.75q5.1-3.25 9.35-7.2 3.45-3.3 4.35-7.75l1.05-.15 1.05-.15q-.65 3.55-2.65 6.8l.05-.05-.05.1q-3.45 5.1-8.5 7.85-5.15 2.8-11 6.75-2.85 1.9-5.65 4.2m-5.9 15 9.7-.7L1 13.5q1.85-4.7 5.65-9.8-3.7 2.8-7.7 4.9l-4.3 2.25-1.85.9-5.25 2.9" fill="#3b0937" transform="translate(26.4 26.15)"/><path d="M15.6-6.65 18-9.9l.1-.15.3-.5q1.15-2.1 1.15-4.45l-.25-2.3-.7-1.8.05-.15-.05.05q2-3.25 2.65-6.8l1.25-.15h.05q1.3 4.45.25 8.9-1.25 5-5.95 9.45L15.6-6.65m-28.05 21.3 5.25-2.9 1.85-.9 4.3-2.25q4-2.1 7.7-4.9Q2.85 8.8 1 13.5l-3.75.45-9.7.7" fill="#62105b" transform="translate(26.4 26.15)"/><path d="M18-9.9q-1.9 1.4-4.3 2.75-2.85 1.6-6.15 3.1L.8-1.3q-2.95 1-7.35.95 2.8-2.3 5.65-4.2 5.85-3.95 11-6.75 5.05-2.75 8.5-7.85l.05-.1-.05.15.7 1.8.25 2.3q0 2.35-1.15 4.45l-.3.5-.1.15" fill="#89277f" transform="translate(26.4 26.15)"/><path d="M15.6-6.65q-4.05 3.7-8 6.6l-8.35 5.8Q-4.9 8.4-10.5 11.2q-5.55 2.75-8.35 4.8l-2.2 1.75q.45-2.1 1.6-4.85 1.15-2.8 6.9-8.15l6-5.1Q-2.15-.3.8-1.3l6.75-2.75q3.3-1.5 6.15-3.1Q16.1-8.5 18-9.9l-2.4 3.25" fill="#f074da" transform="translate(26.4 26.15)"/></g><g id="L" fill-rule="evenodd"><path d="M-2.45-11.85q-.95-.5.25-.8-.9-.3 2.1-1.45 3-1.2 6.95-4Q10.8-20.95 17.4-21l-1.8-.2q-.8-4.35 3.3-4.1l4.3.3Q17.1-14.75 6.85-6l-4.5-.3L6.7-7.85q3.4-1 4.35-3.5.05-5.35-13.5-.5" fill="#cc6a22" transform="translate(32.45 29.95)"/><path d="m-23 7.45 1-1.9q1.2-2.1 5.45-6.35 4.25-4.2 8.5-6.35l.3-.3 6.25-2.85.2-.1q5.5-2.25 10.1-1.5.9 1.65-9.15 5.45-3.6.6-2.3 1.3 3.55-.4 10 1.3v.05Q1-4.7-4.75-2.7q-5.8 2-5.2 4.65.6 2.65 2.35 3.5 1.75.8 7.95.15Q6 5 12.25-.25q.05 1.2-1.15 2.8l-.4.35Q8.25 5 5.4 6.4.4 8.9-5.4 8.75q-5.8-.15-10.7-1.7-.4.1 2.55 1.1 2.9 1 2.8 2.9-.15 1.9-.6 2.5-.5.65-1.45.8l-3.05-.25q-2.15-.4-3.25-1.15l-2.05-2.05-.3-.4q-1.3-1.75-1.3-2.65L-23 7.4v.05" fill="#dfc893" transform="translate(32.45 29.95)"/><path d="m-8.05-7.15.5-1.15q.25-.85 1.6-1.95l3.5-1.6q13.55-4.85 13.5.5-.95 2.5-4.35 3.5L2.35-6.3l4.5.3 3.45.45.25-.2q7.55-6.75 14.95-19.4l.3-.55q7.15-6 6.65-3.55-.5 2.4-1.25 3.2l-5.45 9.25q-2.8 4.4-5.9 7.7L16.2-4.95l.5.65q.9 1.1 1.05 3.65.15 2.55-3.2 4.7-2.2 1.2-5.4 2.45-3.2 1.25-5.5 3l-5.55 3.7-3.55 4.85q-1.45 1.95-7.6 6.7l-7 5.25-1.1-1.2 6.3-7.5 4.15-4 3.7-3.65q2.35-2.55 2.05-2.8-.35-.3-2-.7l-1.95-.4h-1.55Q-9.4 10.1-8.8 11q.6.9.3 2.05t-1.5 2.3q-1.2 1.15-2.85 1.25l-2.9-.1q-1.3-.15-2.4-1.05l-2.05-2.25q-.75-1-.95-2.3l2.05 2.05q1.1.75 3.25 1.15l3.05.25q.95-.15 1.45-.8.45-.6.6-2.5.1-1.9-2.8-2.9-2.95-1-2.55-1.1 4.9 1.55 10.7 1.7Q.4 8.9 5.4 6.4 8.25 5 10.7 2.9l.4-.35q1.2-1.6 1.15-2.8-.1-2.3-4.3-3.45l-.25-.05-.35-.1q-6.45-1.7-10-1.3-1.3-.7 2.3-1.3Q9.7-10.25 8.8-11.9q-4.6-.75-10.1 1.5l-.2.1-6.25 2.85-.3.3" fill="#6d1d03" transform="translate(32.45 29.95)"/><path d="M23.2-25q2.15-2.35 2.6-.7l-.3.55Q18.1-12.5 10.55-5.75l-.25.2L6.85-6Q17.1-14.75 23.2-25" fill="#91f0e7" transform="translate(32.45 29.95)"/><path d="m7.7-3.75.25.05q4.2 1.15 4.3 3.45Q6 5 .35 5.6q-6.2.65-7.95-.15-1.75-.85-2.35-3.5-.6-2.65 5.2-4.65Q1-4.7 7.35-3.8l.35.05" fill="#fff5d6" transform="translate(32.45 29.95)"/><path d="M-21.15 28.8-23 26.4q-3.6-5.8-7.75-6.3h-1.7q2.05-2.95 4.15-6.7 2.1-3.75 5.3-5.95V7.4l.25.45q0 .9 1.3 2.65l.3.4q.2 1.3.95 2.3l2.05 2.25q1.1.9 2.4 1.05l2.9.1q1.65-.1 2.85-1.25 1.2-1.15 1.5-2.3.3-1.15-.3-2.05-.6-.9-1.65-1.25h1.55l1.95.4q1.65.4 2 .7.3.25-2.05 2.8l-3.7 3.65-4.15 4-6.3 7.5" fill="#b65b24" transform="translate(32.45 29.95)"/></g><g id="M" fill-rule="evenodd"><path d="m-.4-19.9-.75-1.75q-1.6-2.65-2.05-5.8-.4-2.9.1-4.85l.3-.15q1.7-.8 2.7 3 1 3.75 1.15 6.6.15 2.85-.5 2.9l-.95.05m3.95-6.8.65-1.2 1.5-3.05q.75-1.55 3.85-6.35 3.05-4.75 8-7.05l.55-.3q.45 0 .45.55v.35q-.7.7-1.45 2.3L14.8-37l-3 4.65-3.1 3.95q-2.5 2.8-3.85 2.8-.45 0-.85-.3-.35-.3-.45-.8" fill="#b05b2c" transform="translate(24.65 50.4)"/><path d="m-2.3-13.05 1.55-2.85.3-.5.1-.6q.25-1.55-.05-2.9l.95-.05q.65-.05.5-2.9Q.9-25.7-.1-29.45q-1-3.8-2.7-3l-.3.15.1-.4q.5-1.8 1.8-1.15l.25.25q.45.5.95 1.6l.95 2.25.9 2.05q.65 1.3 1.2 1.3l.5-.3q.1.5.45.8.4.3.85.3 1.35 0 3.85-2.8l3.1-3.95 3-4.65 2.3-4.45q.75-1.6 1.45-2.3Q18.4-42.2 17.3-39l-2.2 5.45-4.4 7.8q1.65-1.6 4.25-2.35l3.35-.5q.55 0 .55.6 0 .5-1.1 1.6l-2.15 1.75-3.95 2.85Q8.8-19.7 5.5-18.9l1.2.2q.65.25.65 1.05l-.55 4.3-.2 1.65-1.3.4-3.05.25q-1.9 0-3.3-.9l-.6-.45-.65-.65" fill="#7a2810" transform="translate(24.65 50.4)"/><path d="m2.9 47.6-.3.15q-2.55 1.45-3.9 2.7-5.95-5-6.6-5.95l-.6-1-.9-2.1-.75-2.25q-.45-1.2-2.8-1.8l-3.3-.65q-4.4-1.45-6-2.7L-24 32.2q-.55-.85-.65-2.65-.15-1.8.85-3.15.9-1.35 3.25-3.3l-.15-1.4-.15-1.25q0-2 1-2.85.9-.8 3-.8l1.6.2q.95-7.2 2.3-13.9 1.35-6.65 8.7-20.75l-.05-.2-1.5-3.45q-1.4-2.9-1.4-8.25 0-5.4 1.7-7.85 1.65-2.5 3.6-2.35 1.95.15 3.1 1.6l2.15 2.75 2.25-3.5q1.8-2.85 6.95-7.1 5.1-4.3 7.2-4.4 2.05-.1 3.25.8 1.2.9.3 6.45-.95 5.6-3.5 10.35l.8-.1q1.55 0 2.85 1.3 1.2 1.15 1.2 2.25 0 1.05-2.45 4.4l-2.85 3.85q-3.75 6.95-5.5 11.2-2.4 5.75-2 14.65l.75 8.05Q6.95-3.4 6.7-7.55L6.5-9.9l.1-1.8.2-1.65.55-4.3q0-.8-.65-1.05l-1.2-.2q3.3-.8 6.15-2.9l3.95-2.85 2.15-1.75q1.1-1.1 1.1-1.6 0-.6-.55-.6l-3.35.5q-2.6.75-4.25 2.35l4.4-7.8L17.3-39q1.1-3.2 1.25-4.75v-.35q0-.55-.45-.55l-.55.3q-4.95 2.3-8 7.05-3.1 4.8-3.85 6.35L4.2-27.9l-.65 1.2-.5.3q-.55 0-1.2-1.3l-.9-2.05L0-32q-.5-1.1-.95-1.6l-.25-.25Q-2.5-34.5-3-32.7l-.1.4q-.5 1.95-.1 4.85.45 3.15 2.05 5.8l.75 1.75q.3 1.35.05 2.9l-.1.6-.3.5-1.55 2.85-.35.7L-3.3-11l-.05.1q-2 4.15-3.7 9.4Q-9.1 4.65-9.9 10.1l-1.25 9.6 1.9.9q-.15-6.95.85-10.3-.2 2.6.2 5.75l.05.45.4 2.45.2 1 .45 2.25.8 3.8.55 2q1.05 3.75 2.1 6.35 1.3 3.35 2.55 4.7l2.3 2.55.7.8q-1.65.4-3.1-.85l-2.3-2.6q0-.25-.15-.35l-.75-.2-1.85.1q.55 2.05 2.15 3.7 1.4 1.4 7 5.4M-8.15 34.9l.1.1.95 1.1q.75 1 1.75 1l.55-.05v-.4l-1.75-4.2q-1.25-3.6-2.2-8.6L-9.9 23l-1.05-.9-1.3-.85q-1.05-.6-2.15-.5-1.1.1-.7 1.5l.25.75 1.25 1.85q1.1 1.25 1.3 2.2l-1.35-.35-3.95-.65-.85.25q-.45.15-1 1.45-.6 1.25.6 3 1.2 1.7 2.35 1.75l4.05 1.05 2.25.45q1.35.3 1.85.7l.2.2" fill="#6d1d03" transform="translate(24.65 50.4)"/><path d="m1.2 41.6-2.3-2.55q-1.25-1.35-2.55-4.7-1.05-2.6-2.1-6.35l-.55-2-.8-3.8-.45-2.25-.2-1-.4-2.45-.05-.45L-5.4.65Q-4.1-5.9-2.35-10.7.35-9.4.5-3.9.6 2.75.1 11.6q-.5 8.55 2.1 16.05-.35 12.6-1 13.95" fill="#eb9329" transform="translate(24.65 50.4)"/><path d="M-8.2 16.05q-.4-3.15-.2-5.75-1 3.35-.85 10.3l-1.9-.9 1.25-9.6q.8-5.45 2.85-11.6 1.7-5.25 3.7-9.4l.05-.1.65-1.35.35-.7.65.65-.7 1.7Q-4.1-5.9-5.4.65l-2.8 15.4" fill="#ffbf98" transform="translate(24.65 50.4)"/><path d="m-14.85 23-.25-.75q-.4-1.4.7-1.5 1.1-.1 2.15.5l1.3.85 1.05.9 1.15.85q.95 5 2.2 8.6l1.75 4.2v.4l-.55.05q-1 0-1.75-1l-.95-1.1-.1-.1.2-1.05q0-2.05-2.5-5.85l-1.9-2.8q-1.25-1.65-2.5-2.2" fill="#dfc893" transform="translate(24.65 50.4)"/><path d="m-8.15 34.9-.2-.2q-.5-.4-1.85-.7l-2.25-.45-4.05-1.05q-1.15-.05-2.35-1.75-1.2-1.75-.6-3 .55-1.3 1-1.45l.85-.25 3.95.65 1.35.35q-.2-.95-1.3-2.2L-14.85 23q1.25.55 2.5 2.2l1.9 2.8q2.5 3.8 2.5 5.85l-.2 1.05" fill="#fff5d6" transform="translate(24.65 50.4)"/><path d="M2.9 47.6q-5.6-4-7-5.4-1.6-1.65-2.15-3.7l1.85-.1.75.2q.15.1.15.35l2.3 2.6q1.45 1.25 3.1.85l-.7-.8q.65-1.35 1-13.95Q-.4 20.15.1 11.6.6 2.75.5-3.9q-.15-5.5-2.85-6.8l.7-1.7.6.45q1.4.9 3.3.9l3.05-.25 1.3-.4-.1 1.8.2 2.35q.25 4.15 5.9 20.35l.1.8q.95 7.9 3 20.75l1.15 7.1-3.7.6q-3.4.75-5.3 1.9L7.8 44l-1.4 1.1q-.7.85-3.5 2.5" fill="#cc6a22" transform="translate(24.65 50.4)"/></g><g id="r" transform="translate(68.95 55.05)"><use ffdec:characterId="33" height="110.1" transform="translate(-68.95 -55.05)" width="137.9" xlink:href="#v"/><use ffdec:characterId="34" height="39.85" transform="translate(-55 -19.3)" width="72.5" xlink:href="#w"/></g><g id="v" fill-rule="evenodd"><path d="M22.5 24.5q.55-1.15 8.25-6.25Q41 11.35 67.8 2.45l.95-.35.95-.35.8-.25Q84.95-3.2 96.6 7q-.3 2.3-.3 4.2l.1 2.8.85 2.7h.05q10.75-.5 18.15 8.25 5.7 6.75 8.05 14.4l.7 2.75.55 3.1q.5 3.4.6 8.2 0 .7.45.7l.6-.65.7-.65q.5 0 1.15.7l.65.9.5.8q.4.6.4 1.1 0 .45-.8.45-.8-.05-.75.8.05.8 1.25 2.55l.15.25.05.05.75 1.6.1.25 1.65 4.85 1.05 3.65q.6 2.8.45 5.5v.85l-.3 3.4h-.55q-1.65-1.6-3.35-2.15l-2.7-.5q-.95 0-2.3 2.3-1.15 1.8-1.85 3.45l-.05.2-.1.2-.15.35q-2.25 5.1-6.1 8-4.15 3.1-15.45 2.55-11.3-.55-17.35 1.75-5.25 1.95-11.1 5.6l-1.45.9-.35.15q-8.6 3.5-16.6 3.25l-.55-.05-10-.05q-4.7-.15-10.95-2.4-6.3-2.3-10.5-5.35t-7-6.15l-1.75-3 9.9 7.15q6.7 5.25 15.25 6.35 7.7.95 14.7-2.25l1.15-.55.15-.05 8.2-2.55q6.5-1.95 10.3-3.6 8.55-3.8 14-3.95l9.55-.5q3-.25 6.5-1.65l1.1.25q2.3 0 4.65-1.05 2.3-1.05 2.6-2.65.3-1.6-1.3-3.2-1.6-1.65-2.65-2l1.8-.35 3.2-.85q1.55-.55 3.55-2.95 1.95-2.45 1.95-3.15-2-1.7-4.4-2.3-5.6-1.7-11.6-1.4-5.4.15-10.7 1.15l-.55.15q3.35-2.6 5.2-8.1 1.95-5.85-1.05-14.65-.8-2.3-1.9-4.15l-.45-.9q-2.4-4.75-5.8-9.05-2.65-3.3-6.05-5.8l-.5-.35-.45-.35-1.25-.85q-2.05-1.4-4.35-2.3l-1.65-.65q-4.5-1.5-13.4-1.5-5.8.05-10.75 1.8l-9.55 3.1q-3.9 1.2-6.7.95h-.15l-.15.05q-4.95 0-8.75 2.4-2.3 1.4-4.4 3.8 1.95-4.4 4.5-8.25l.05-.1q-.2-.25-.5-.2" fill="#cc6a22"/><path d="m96.6 7 .2-1.35.7-4.25 5 3.45q5 3.6 9.1 8-1.3-.65-2.55-.65l-1 .1q7.85 6.7 12.3 17.25 1.95 4.6 3.15 9.8-2.35-7.65-8.05-14.4-7.4-8.75-18.15-8.25h-.05L96.4 14l-.1-2.8q0-1.9.3-4.2" fill="#b65b24"/><path d="M111.6 12.85q1.95 1 4.05 3.6 1.4.6 3.05 1.85 1.6 1.25 3.75 5.7 2.1 4.45 4.3 12.35 2.05 7.5 1.55 11.95v.25q6.15 6.05 5.45 10.65l.2.5 2.05 5.35q1.1 3.15 1.55 5.8.45 2.6.3 5.55l-.35 4.6q-.25 1.65-1.1 3.2-.9 1.5-2.6 3.4-.8-3.15-2.2-4.35l-3.9-2.5q-.3 3.75-2 7.5T118.35 95q-5.65 2.95-18.45 1.95-10.75-.85-20.15 3.2l-.9.4q-5.05 4.65-16.5 8-10.3 2.05-21.05 1.35-10.4-.7-21.65-6.95l-.5-.25-3.2-3.25q-4.25-4-7.35-8.65l-.15-.2-2.3-2.85-2.3-2.35Q2.5 84.05 1.6 82.05.7 80 .75 79.15q0-.9.55-1.2l1.35-.5Q1.6 76.3.95 74.8 0 72.5 0 70.05q0-2.05 1.1-2.9 1.1-.9 3.35-1.15 2.25-.25 3.5.5-1.35-9.8 1.4-22.7 1.6-7.55 5-13.9 2.35-1.5 5.65-3.15l.7-.9q.85-.95 1.4-1.25l.4-.1q-.2.35.45.3-2.55 3.85-4.5 8.25-1.55 3.5-2.75 7.35l-.5 1.7-1.1 4.75-.25 1.45q-.8 4.5-1 9.45l-.1 1.6v.55Q12.5 68 16.6 70.15l.7.15q1.75.5 2.5 1.8l-1.95-.65q-5.25-1.65-8.9-1.85-3.85-.2-5.2.55v.1L5.9 75.4l1.95 4.55-.95.45q-1.05.3-.65.9l3.05 3.3q1.9 1.8 3.9 4.95l1.75 3q2.8 3.1 7 6.15 4.2 3.05 10.5 5.35 6.25 2.25 10.95 2.4l10 .05.55.05q8 .25 16.6-3.25l.35-.15 1.45-.9q5.85-3.65 11.1-5.6 6.05-2.3 17.35-1.75 11.3.55 15.45-2.55 3.85-2.9 6.1-8l.15-.35.1-.2.05-.2q.7-1.65 1.85-3.45 1.35-2.3 2.3-2.3l2.7.5q1.7.55 3.35 2.15h.55l.3-3.4v-.85q.15-2.7-.45-5.5l-1.05-3.65-1.65-4.85-.1-.25-.75-1.6-.05-.05-.15-.25q-1.2-1.75-1.25-2.55-.05-.85.75-.8.8 0 .8-.45 0-.5-.4-1.1l-.5-.8-.65-.9q-.65-.7-1.15-.7l-.7.65-.6.65q-.45 0-.45-.7-.1-4.8-.6-8.2l-.55-3.1-.7-2.75q-1.2-5.2-3.15-9.8Q115.9 19 108.05 12.3l1-.1q1.25 0 2.55.65M90.55 69.6l.55-.15q5.3-1 10.7-1.15 6-.3 11.6 1.4 2.4.6 4.4 2.3 0 .7-1.95 3.15-2 2.4-3.55 2.95l-3.2.85-1.8.35q1.05.35 2.65 2 1.6 1.6 1.3 3.2-.3 1.6-2.6 2.65-2.35 1.05-4.65 1.05l-1.1-.25.5-.2q.4-.2.85-.35l1.35-.55 1.5-.65q2.35-1.25 2.35-2.6 0-.75-1.6-2.1l-2.5-2.45 4.35-1.85q3.95-2.05 5.65-5-4.55-1.15-9.8-1.55L103 70.5l-8.95.35q-6.05.6-12.1 3.3-6.05 2.7-10.55 6.75l-4.5 4-1.4 1.25-1.6 1.3-.25.15.3-.4.2-.35q2.2-3.05 6.4-6.7 4.8-4.2 9.85-6.85 3.95-2.1 8.35-3.25l.55-.15.8-.2.45-.1m-59.9-.7-.05.05-.3.1-.4.2-.55.3-2.9 1.85q-.85.65-1.1 1.45-.15.35-.15.75 0 1.2.6 2.95l.7 2.8q.05.9 2.85.3l1.2-.3.2-.05.1-.05 1.5-.4 1.4-.4 4.55-1.3 1.85-.7 2.75-1.6.85-.75.9-.9-.8 1.7-.1.1-1.3 1.5-.3.45 1.6 2 .4.5 1.2 1.6.2.3q2.75 3.85 3.5 6.45l.55 2.45q.4 2.6.1 4.95l-.3 1.65q-.6 2.05-1.9 2.85-1.3.75-2.4 1.15l-.75.25-1.85.35q-2.15 0-3.2-.6-1-.55-1-1.7-.15-.3-.05-2.3l.05-.95v-1.45q-.1-1.9-.85-3.25l-1.3.15-1.95.2-.45.05q-1.05.05-1.4-.4l-.6-1.15-.15-.55-.8-2.45-.05-.1-.35-1.1-1.05-3.05-.35-1q-.45-.75-1.45-.6-1.1.15-1.55-.6-.45-.75-.95-3.05l-.55-2-1.45-1.8q-1.25-1.4-1.25-2.5 0-.85.85-1.45.3-.25.75-.45 1.6-.8 3.25-1l2.3-.2.95.05.75.7m9.05 28.3-.05.2-.2 1.2q-.05.65.05 1.2l.15.1 1.8.3q3.05 0 4.95-2.45 1.85-2.5 1-7.05-.6-3.15-1.6-5.65l-.1-.2-.95-2q-1.8-3.25-2.95-3.45l-.25 4.15-.15 4.2-.1 1.2-.65 1.25-1 .6-.7.5q0 .75.7 2.4.65 1.65.25 2.85l-.2.65m-2.95-7.7 2.85-.85q.6-2.75.65-5.55 0-2.85.15-4.95l-5.65 2.05-4.15.9.45 1.6v.05l.8 3.4.45 3.7 4.2-.3.25-.05" fill="#6d1d03"/><path d="M31.9 26.8q2.8.25 6.7-.95l9.55-3.1Q53.1 21 58.9 20.95q8.9 0 13.4 1.5l1.65.65q2.3.9 4.35 2.3l1.7 1.2.5.35q3.4 2.5 6.05 5.8 3.4 4.3 5.8 9.05l.45.9q-3.25-5.45-9.35-7.55-8.2-2.85-16.75-1.55-9.95 1.7-16.05 6.35l-.45.35-5.4 3.85q-2.15 1.7-4.35 4.9-2.2 3.2-3 4.85l-1.9 3.8Q34.4 60.25 33.6 63q-.7 2.45-1.9 4.75l-.5.9q-.25.15-.55.25l-.75-.7-.95-.05-2.3.2q-1.65.2-3.25 1-.45.2-.75.45v-.95q4-3.15 6-7.4 2-4.3 2.6-9.2.5-4.35-.8-6.35l-.9-3-.2-.9q-.2-1-1.45-2.25l-2.65-2.25q-1.35-1-1.6-2.45-.3-1.45 2.2-3.85 2.45-2.4 5.75-4.35l.3-.05M12.75 59.35q.3 3 1.7 6.1 1.15 2.65 2.85 4.85l-.7-.15Q12.5 68 12.75 59.9v-.55m21.2-24.7q.9.7 2.15.7t2.15-.7q.9-.7.9-1.95 0-1.3-.9-1.85t-2.3-.6q-1.4-.05-2.2.8-.8.85-.75 1.9.05 1 .95 1.7" fill="#eb9329"/><path d="M92.8 42.7q1.1 1.85 1.9 4.15 3 8.8 1.05 14.65-1.85 5.5-5.2 8.1l-.45.1-.8.2q2.6-3.75 4.15-8 1.8-5.15 1.5-10.35-.25-4.65-2.15-8.85m10.1 45.25q-3.5 1.4-6.5 1.65l-9.55.5q-5.45.15-14 3.95-3.8 1.65-10.3 3.6l-8.2 2.55v-.05q7.95-4.05 9.55-12.7l1.6-1.3 1.4-1.25q-.15.3.3 2.15.3 1.25 2.95 1.75l2.95.25 4.65-.2 1.4-.2 4.8-.9 5.45-.95q3.05-.55 4.5-1.65 1.35-1.1 1.1-2.55-.25-1.45-.85-2.25-.6-.85-3.7-1.4l-5.05-.55 4.45-1.05 5.55-1.15q2.25-.4 4.1-1.6 1.85-1.2 2.6-2.3.65-.9.9-1.8l2.55.15q5.25.4 9.8 1.55-1.7 2.95-5.65 5l-4.35 1.85 2.5 2.45q1.6 1.35 1.6 2.1 0 1.35-2.35 2.6l-1.5.65-1.35.55q-.45.15-.85.35l-.5.2m-71.85-5.2v-.05l-.45-1.6 4.15-.9 5.65-2.05q-.15 2.1-.15 4.95-.05 2.8-.65 5.55l-2.85.85.5-2.45-.15-2.35-.65-1.85-.3-.05-2.4-.15h-1.4l-1.3.1" fill="#dfc893"/><path d="m54.2 100.25-1.15.55q-7 3.2-14.7 2.25-8.55-1.1-15.25-6.35l-9.9-7.15q-2-3.15-3.9-4.95l-3.05-3.3q-.4-.6.65-.9l.95-.45L5.9 75.4l-2.15-5.15v-.1q1.35-.75 5.2-.55 3.65.2 8.9 1.85l1.95.65q-.75-1.3-2.5-1.8-1.7-2.2-2.85-4.85-1.4-3.1-1.7-6.1l.1-1.6q.2-4.95 1-9.45l.25-1.45q.9-2.05 3.05-3.4 2.2-1.4 3.95-1.65l5.2.2q2.15.3 3.25.9l.9 3q1.3 2 .8 6.35-.6 4.9-2.6 9.2-2 4.25-6 7.4v.95q-.85.6-.85 1.45 0 1.1 1.25 2.5l1.45 1.8.55 2q.5 2.3.95 3.05.45.75 1.55.6 1-.15 1.45.6l.35 1 1.05 3.05.35 1.1.05.1.8 2.45.15.55.6 1.15q.35.45 1.4.4l.45-.05 1.95-.2 1.3-.15q.75 1.35.85 3.25v1.45l-.05.95q-.1 2 .05 2.3 0 1.15 1 1.7 1.05.6 3.2.6l1.85-.35.75-.25q1.1-.4 2.4-1.15 1.3-.8 1.9-2.85l.3-1.65q.3-2.35-.1-4.95l-.55-2.45q-.75-2.6-3.5-6.45l-.2-.3-1.2-1.6-.4-.5-1.6-2 .3-.45 1.3-1.5.1-.1.8-1.7-.9.9-.85.75-2.75 1.6-1.85.7-4.55 1.3-1.4.4-1.5.4-.1.05-.2.05-1.2.3q-2.8.6-2.85-.3l-.7-2.8q-.6-1.75-.6-2.95 0-.4.15-.75.25-.8 1.1-1.45l2.9-1.85.55-.3.7-.3.05-.05q.3-.1.55-.25l.5-.9q1.2-2.3 1.9-4.75.8-2.75 1.95-5.3l1.9-3.8q.8-1.65 3-4.85 2.2-3.2 4.35-4.9l5.4-3.85.45-.35q6.1-4.65 16.05-6.35 8.55-1.3 16.75 1.55 6.1 2.1 9.35 7.55 1.9 4.2 2.15 8.85.3 5.2-1.5 10.35-1.55 4.25-4.15 8l-.55.15q-4.4 1.15-8.35 3.25-5.05 2.65-9.85 6.85-4.2 3.65-6.4 6.7l-.2.35-.3.4.25-.15q-1.6 8.65-9.55 12.7l-.15.1M103 70.5q-.25.9-.9 1.8-.75 1.1-2.6 2.3-1.85 1.2-4.1 1.6l-5.55 1.15-4.45 1.05 5.05.55q3.1.55 3.7 1.4.6.8.85 2.25t-1.1 2.55q-1.45 1.1-4.5 1.65l-5.45.95-4.8.9-1.4.2-4.65.2-2.95-.25q-2.65-.5-2.95-1.75-.45-1.85-.3-2.15l4.5-4q4.5-4.05 10.55-6.75 6.05-2.7 12.1-3.3l8.95-.35" fill="#fff5d6"/><path d="M18.45 33.05q2.1-2.4 4.4-3.8 3.8-2.4 8.75-2.4-3.3 1.95-5.75 4.35-2.5 2.4-2.2 3.85.25 1.45 1.6 2.45l2.65 2.25Q29.15 41 29.35 42l.2.9q-1.1-.6-3.25-.9l-5.2-.2q-1.75.25-3.95 1.65-2.15 1.35-3.05 3.4l1.1-4.75.5-1.7q1.2-3.85 2.75-7.35m15.5 1.6q-.9-.7-.95-1.7-.05-1.05.75-1.9.8-.85 2.2-.8 1.4.05 2.3.6.9.55.9 1.85 0 1.25-.9 1.95t-2.15.7q-1.25 0-2.15-.7" fill="#ffbf98"/><path d="M45.7 84.85q-.8.15-2.2 2.45-1.8 2.95-2.35 6.5-.5 2.9-1.45 3.4l.2-.65q.4-1.2-.25-2.85-.7-1.65-.7-2.4l.7-.5 1-.6.65-1.25.1-1.2.15-4.2.25-4.15q1.15.2 2.95 3.45l.95 2" fill="#8f2e59"/><path d="m45.7 84.85.1.2q1 2.5 1.6 5.65.85 4.55-1 7.05-1.9 2.45-4.95 2.45l-1.8-.3-.15-.1q-.1-.55-.05-1.2l.2-1.2.05-.2q.95-.5 1.45-3.4.55-3.55 2.35-6.5 1.4-2.3 2.2-2.45" fill="#cf4e7a"/><path d="m31.05 82.75 1.3-.1h1.4l2.4.15.3.05.65 1.85.15 2.35-.5 2.45-.25.05-4.2.3-.45-3.7-.8-3.4" fill="#fff"/></g><g id="w" fill-rule="evenodd"><path d="m-52.75 4.6.95.05-.15.95q-.25 2.7.5 5.45l.8 1.95-.35-.25-1-1.85-.05-.15q-.75-1.9-.8-4.2v-.4l.1-1.55m64.15-.25-.1 1.15-.35 1.6-.05.2-.3.85v.05l-1.3 2.45q-1.05 1.5-2.55 2.45l-.15.1-1.4.85-.8.5.4-.65q.75-1.05.95-5.4l-.1-4.05.95-.15 1.3-.1h1.4l1.6.1.5.05" fill="#fff" transform="translate(55 19.3)"/><path d="m-52.75 4.6.1-.7.15-.65.55-1 .05-.05.45-.45.1-.05h.65q-.85 1.35-1.1 2.95l-.95-.05m54.9-6.5 2.05.05.4.05 2 .4.6.2q1.3.45 3.1 2.35l.6.8q.55 1 .5 2.4l-.5-.05-1.6-.1H7.9l-1.3.1-.95.15-.75-2.6q-.95-2-2.75-3.75" fill="#c9a279" transform="translate(55 19.3)"/><path d="M-17.1-.65q2.55-2.4 6.15-3.65l.35-.1 2.05-.55 4.35-.75 1-.1.2-.05q2.85-.3 5.45-.1l2.15.2 2 .4 4.3 1.45 1.1.5.6.25 1.5-1.25.9-.85 1.85-2.05.65-.9q.15 5.6-.75 9.9-.5 2.5-1.2 4.4L15 7.5l-.5 1q-1.25 2.25-3.9 4.55l-.15.15-.4.3-.75.6-3.2 2.2-.15.1-.25.15-1.2.7q-.2.05-.35.15l-.35.2q-2.75 1.45-5.5 2.15l-1 .2-1.6.3q-5.3.65-7.8 0l-1.7-.4-3.4-.4-5-.1q.9-1.5 2.75-3.35l1.9-2.35.05-.15.35-1.35 1.4-4.35.15-.3.1-.3 1-2.3 1.45-2.5.35-.55L-10.6-1l1.05-1.45h-.35l-.7.2-4.05 1.4-2.45.9-1.1.45 1.1-1.15M-50.7 1.7h-.65l-.1.05-.45.45-.05.05-.55 1-.15.65-.1.7-.1 1.55v.4q.05 2.3.8 4.2l.05.15 1 1.85.35.25.55.15h.45l.75-.1.15-.05q.75-.25 1.3-1l.65-1.25.2-1.3-.2-1.25-.35-1.4-.9-3.15-.2-.3-.2-.25-.8-.7-.7-.4-.5-.2-.25-.1m-.6-3.25 2.7 1.35q.65.25 1.35 1.9l.7 1.7q1.1 3.2 1.2 5.45l.05 1.9-.15 1.25q-.25.9-2.15 1.95-1.25.95-2.3 1-1.05.05-2.2-2.05l-1-2.15-.15-.4-.25-1.1q-.25-1.55-.15-3.3l.05-2.45-.4-1.9-.7-2.6-.3-2.25q-.05-.9.5-1.1 1.4 1.9 3.2 2.8m47.05.7-1.15.5-1.4.75-1.05.75-1.5 1.25-1.25 1.3-.9 1.2-1.4 2.25-.15.35-.15.3q-1.55 3.45-.9 7.25l.05.3.25.55 1.15 1.1 1.15.6q2.3 1.1 4.8.95h.5l.1-.05 1.25-.2 1.55-.45.6-.2 1-.35 1-.4.6-.25.65-.25 1-.4 2.85-1.45.8-.5 1.4-.85.15-.1q1.5-.95 2.55-2.45l1.3-2.45v-.05l.3-.85.05-.2.35-1.6.1-1.15q.05-1.4-.5-2.4l-.6-.8Q8.5-.75 7.2-1.2l-.6-.2-2-.4-.4-.05-2.05-.05-1.4.1-1.75.25-.4.05-.4.05-1.2.25-.2.05-1 .3h-.05" fill="#2e0717" transform="translate(55 19.3)"/><path d="M-51.8 4.65q.25-1.6 1.1-2.95l.25.1.5.2.7.4-.7 2.35v.05l-.3 3.05v.45l.4 2.45.2.75.75 1.55-.75.1h-.45l-.55-.15-.8-1.95q-.75-2.75-.5-5.45l.15-.95M-1.4-1.5l.4-.05L.75-1.8l1.4-.1Q3.95-.15 4.9 1.85l.75 2.6.1 4.05q-.2 4.35-.95 5.4l-.4.65L1.55 16l1.05-2q.85-1.95 1.25-5.75.15-1.9-.2-3.5T2.45 1.9Q.95-.4-1.4-1.5" fill="#410c21" transform="translate(55 19.3)"/><path d="M-47.45 12q-.55.75-1.3 1l-.15.05-.75-1.55-.2-.75-.4-2.45.2.1q.65 0 1.15-.35l.2 1.05-.45.1-.1.4q0 1 .8 1l.35-.05.05.2q.25 1.1.6 1.25m49 4-1 .4-.65.25-.6.25-1 .4-1 .35-.6.2-1.55.45-1.25.2-.1.05h-.15l.45-.25 1-.7 1.8-1.35.4-.35.65-.55.05-.05.3-.05.75-.45.25-.25q.3-.35.3-.85l-.1-.55.3-.85.1-.3.25-.95.1-1L.3 8.2l-.05-.6L0 6.2l-.1-.3L1 5.5l1.7-.55.95-.2q.35 1.6.2 3.5-.4 3.8-1.25 5.75l-1.05 2" fill="#88277e" transform="translate(55 19.3)"/><path d="m-49.25 2.4.8.7.2.25-.4 2q-.5-.55-1.25-.6h-.05l.7-2.35M-4.2-.85l1-.3.2-.05 1.2-.25.4-.05Q.95-.4 2.45 1.9q.85 1.25 1.2 2.85l-.95.2L1 5.5l-1.1.4-.05-.2-.05-.2Q-.7 4-1.5 2.6l-.1-.2L-2.7.9-3 .55l-.2-.2-1-1.15v-.05" fill="#6b193c" transform="translate(55 19.3)"/><path d="m-48.25 3.35.2.3.9 3.15.35 1.4.2 1.25-.2 1.3-.65 1.25q-.35-.15-.6-1.25l-.05-.2h.05q.35-.2.35-.75l-.2-.6q-.2-.25-.5-.25l-.3.15-.2-1.05.1-.1.2-.2q.5-.55.5-1.1t-.4-1.1l-.15-.2.4-2" fill="#3c0a1c" transform="translate(55 19.3)"/><path d="M-14.1 15.05q-.65-3.8.9-7.25l.15-.3.15-.35 1.4-2.25.9-1.2 1.25-1.3 1.5-1.25L-6.8.4l1.4-.75 1.15-.5.05.05 1 1.15.2.2.3.35 1.1 1.5.1.2Q-.7 4-.2 5.5l.05.2.05.2-2.45 1-.55.25-.1.05-.95.4-.05.05-.35.15-1.45.75-.55-.75-.05-.05-.15-.15-.1-.1q-.9-.85-2.1-.85-.9 0-1.65.5l-.5.35-.25.25-.05.05q-.95 1.05-.95 2.55 0 1.15.55 2.05l-1.2 1.3-.35.4-.45.55-.3.4" fill="#3b0a1b" transform="translate(55 19.3)"/><path d="M-6.35 18.55h-.35q-2.5.15-4.8-.95l-1.15-.6-1.15-1.1-.25-.55-.05-.3.3-.4.45-.55.35-.4 1.2-1.3.45.6q1 1.05 2.4 1.05 1.35 0 2.35-1.05 1-1.1 1-2.65 0-1-.4-1.8l1.45-.75.35-.15.05-.05.95-.4.1-.05.55-.25 2.45-1 .1.3.25 1.4.05.6-.05 1.85-.1 1-.25.95-.1.3-.3.85-.2-.3-.25-.3-.35-.25-.85-.2-.95.25-.3.2q-.5.5-.5 1.15l.05.4.45.7.3.25.4.2.55.05h.1v.05l-.65.55-.4.35-1.8 1.35-1 .7-.45.25m5.55-9.3q-.4 0-.65.25l-.25.55.25.6.65.2h.1l.55-.2.05-.05.2-.55-.2-.5-.05-.05q-.2-.2-.55-.25h-.1" fill="#4b0f3a" transform="translate(55 19.3)"/><path d="m-48.65 5.35.15.2q.4.55.4 1.1t-.5 1.1l-.2.2-.1.1q-.5.35-1.15.35l-.2-.1v-.45l.3-3.05.05-.05q.75.05 1.25.6m-.05 3.75.3-.15q.3 0 .5.25l.2.6q0 .55-.35.75h-.05l-.35.05q-.8 0-.8-1l.1-.4.45-.1m36.9 3.3q-.55-.9-.55-2.05 0-1.5.95-2.55l.05-.05.25-.25.5-.35q.75-.5 1.65-.5 1.2 0 2.1.85l.1.1.15.15.05.05.55.75q.4.8.4 1.8 0 1.55-1 2.65-1 1.05-2.35 1.05-1.4 0-2.4-1.05l-.45-.6m11.3.75.1.55q0 .5-.3.85l-.25.25-.75.45-.3.05h-.15l-.55-.05-.4-.2-.3-.25-.45-.7-.05-.4q0-.65.5-1.15l.3-.2.95-.25.85.2.35.25.25.3.2.3m-.3-3.9h.1q.35.05.55.25l.05.05.2.5-.2.55-.05.05-.55.2h-.1l-.65-.2-.25-.6.25-.55q.25-.25.65-.25" fill="#ffe1ef" transform="translate(55 19.3)"/><path d="M-13.75-18.2q-1.65.45-3.2 2-1.6 1.5-2.3 3.2-.7 1.75-.1 2.65.55.95 2.15.45 1.5-.4 3.15-1.9 1.55-1.55 2.25-3.3.7-1.7.15-2.65-.6-.9-2.1-.45m-6.55 8.65q-.7-1.1.2-3.2.9-2.1 2.8-3.95t3.85-2.45q1.9-.5 2.6.6.7 1.15-.15 3.2-.9 2.15-2.8 4-1.95 1.85-3.8 2.4-1.95.55-2.7-.6m-28.45-3.1q.9-1.45 2.25-1.45t2.45 1.45q1.15 1.45 1.3 3.55.2 2.05-.7 3.5-.85 1.5-2.2 1.5t-2.5-1.5q-1.1-1.4-1.3-3.45-.15-2.1.7-3.6m4.9 3.1q-.15-1.55-1-2.65-.8-1.1-1.85-1.05-1 0-1.65 1.1-.6 1.1-.45 2.65.15 1.55.9 2.6.85 1.1 1.85 1.1 1.05-.05 1.65-1.15.7-1.05.55-2.6" fill="#6d1d03" transform="translate(55 19.3)"/><path d="M-13.75-18.2q1.5-.45 2.1.45.55.95-.15 2.65-.7 1.75-2.25 3.3-1.65 1.5-3.15 1.9-1.6.5-2.15-.45-.6-.9.1-2.65.7-1.7 2.3-3.2 1.55-1.55 3.2-2m-30.1 8.65q.15 1.55-.55 2.6-.6 1.1-1.65 1.15-1 0-1.85-1.1-.75-1.05-.9-2.6-.15-1.55.45-2.65.65-1.1 1.65-1.1 1.05-.05 1.85 1.05.85 1.1 1 2.65" fill="#b05b2c" transform="translate(55 19.3)"/></g><g id="N" fill-rule="evenodd"><path d="M5.9-13.9q1.35 1.85 2.25 2.55.25 1.05-.25 1.7l3 1.3q2.7.85 5.05.8L13-2.05l-.2.1-7.4 3.7q-3.65-.2-7.45 1.35-3.3 1.3-7.05 3.2 4.65-3.9 8.05-8.45 3.9-5.3 5.65-8.5 1-1.85 1.3-3.25m-17.1 24.25-1 .85-.45.15 1.45-1M-43.35 43.5Q-52 42-59.5 37.2q-6.6-4.25-8.1-9.25 10.4-12.4 15.35-17.6-1.85 2.85-2.85 7.45-1.2 5.2.35 10.7.95 3.35 3.65 4.35l4.1.3q6.2-.85 8.9-2.55 2.65-1.75 2.75-2.2l6.4-6.1q-8.35 9-14.4 21.2" fill="#cc6a22" transform="translate(68.05 45.65)"/><path d="m15.95-7.55 1.1-2.5q3-5.4 4.5-10.05t2.55-4.65q1.55 0 2.6.55 1.1.5 2.45.5 1.65 0 4.2-.9 2.05-.7 4.15-1.8l.3.1q.95.45.95 1.2 0 1-2.05 1.85l-2.4.85-3.7.65-3.95.15-2.15-.1h-.3l-1.25.2.55.1q.5.15.5.3L22.35-17l-3.1 7-.95 2-.05.2-2.3 4.4-.35.65-2.6.7 2.95-5.5M30.6-28.4q-1.15-.2-1-1.3.1-1.1 2.9-1.6l5.4-.85 9-1.9q4.55-1.35 8.45-4.65 3.1.3 4.45 1.05-.95 1.85-5.35 3.65-4.55 1.85-5.7 2.05l-5.7 1.15-6.2 1.5-4.8.75-1.45.15" fill="#91f0e7" transform="translate(68.05 45.65)"/><path d="m55.35-38.7-5.15-.1q-7.45.1-13.5 1.75T26.45-33.6l-5.5 2.1-1.9.6q4.3-3.55 5.35-8.65l-2.8.8q-2.1.85-6.65 4.6-4.15 3.4-7.05 7.45l-2.55.7-3.4 1.15-12.1 4.8q-9 3.95-18.85 10.5-9.85 6.5-15.35 11.85l-7.9 8.05q-4.95 5.2-15.35 17.6-.4-1.4-.4-2.8v-.7Q-59.65 11.7-51.85 3.9q7.95-8.05 17-14.65 9-6.65 19.2-11.45 10.1-4.8 21.6-8.35L7.9-32.9l2.9-3.1 4.25-3.85q2.8-2.35 6.25-4.05 2.15-1.15 4.7-1.6 1.6-.5 2.9.45 1.3.95.3 5.6 2.45-1.7 7.1-3.1 5-1.5 9.8-1.35l6.55.3 5.25.95 6.95 1.45q3.2.65 3.2 2.25l-.05.3-1.4 1.55q-1.85 2-3.85 2.95-5.7 2.85-8.8 4.1l-5.55 2.3q-1.95.8-3.85.8 1.95 2.2-.15 4.05l-4.25 3.25q-2.2 1.4-7.6 1.85l-5.35.1v.1q-.75 4.15-3.4 9.4l-1.5 2.85L21-3.1h-.65l-4.75.35.35-.65 2.3-4.4.05-.2.95-2 3.1-7L24-21.1q0-.15-.5-.3l-.55-.1 1.25-.2h.3l2.15.1 3.95-.15 3.7-.65 2.4-.85q2.05-.85 2.05-1.85 0-.75-.95-1.2l-.3-.1-1.95-.45-2.45-.7-2.1-.65-.3-.1-.1-.1 1.45-.15 4.8-.75 6.2-1.5 5.7-1.15q1.15-.2 5.7-2.05 4.4-1.8 5.35-3.65-1.35-.75-4.45-1.05M5.4 1.75l1.8.2Q2 3.1-2.65 5.4q-4.65 2.25-6.8 3.75l-1.75 1.2-1.45 1 .45-.15-2.95 2-1.85 1.35-1.25 1.25q-3.35 2.7-6.35 5.85l-8.15 8.85-.15.15-4.4 5.25-5.35 7.15-1.75 2.6 1.05-2.15q6.05-12.2 14.4-21.2l1.45-1.55 3.05-2.95.3-.3.2-.2q5.9-6.2 11.4-9.15l1.75-.95 1.7-.9q3.75-1.9 7.05-3.2 3.8-1.55 7.45-1.35" fill="#6d1d03" transform="translate(68.05 45.65)"/><path d="m20.95-31.5 5.5-2.1q4.2-1.8 10.25-3.45 6.05-1.65 13.5-1.75l5.15.1q-3.9 3.3-8.45 4.65l-9 1.9-5.4.85q-2.8.5-2.9 1.6-.15 1.1 1 1.3h-.15l.25.1.3.1 2.1.65 2.45.7 1.95.45q-2.1 1.1-4.15 1.8-2.55.9-4.2.9-1.35 0-2.45-.5-1.05-.55-2.6-.55-1.05 0-2.55 4.65-1.5 4.65-4.5 10.05l-1.1 2.5q-2.35.05-5.05-.8l-3-1.3q.5-.65.25-1.7-.9-.7-2.25-2.55l-1.4-2.15q-1.75-2.9-2.35-7.4l-.2-1.4L5.35-26q.95 6.75 3.95 6.95 3.3.25 5.55-2.2 2.25-2.5 3.9-5.85l2.2-4.4" fill="#7a2810" transform="translate(68.05 45.65)"/><path d="m20.95-31.5-2.2 4.4q-1.65 3.35-3.9 5.85-2.25 2.45-5.55 2.2-3-.2-3.95-6.95l2.55-.7q2.9-4.05 7.05-7.45 4.55-3.75 6.65-4.6l2.8-.8q-1.05 5.1-5.35 8.65l1.9-.6" fill="#b05b2c" transform="translate(68.05 45.65)"/><path d="M2.15-23.45q.6 4.5 2.35 7.4l1.4 2.15q-.3 1.4-1.3 3.25-1.75 3.2-5.65 8.5Q-4.45 2.4-9.1 6.3l-1.7.9-1.75.95q-5.5 2.95-11.4 9.15l-.2.2-.3.3-3.05 2.95-1.45 1.55-6.4 6.1q-.1.45-2.75 2.2-2.7 1.7-8.9 2.55l-4.1-.3-1-2.6q-1.65-5.25.15-11 1.75-5.8 5.4-10.05 3.45-4.05 7.25-6.7 1.55 7.05 8.55 5.2 5.15-1.5 8.1-6.15 3.7-5.85.45-11l-.45-.55q12.5-7.85 19.25-10.95l5.55-2.5" fill="#eb9329" transform="translate(68.05 45.65)"/><path d="m1.95-24.85.2 1.4-5.55 2.5q-6.75 3.1-19.25 10.95l.45.55q3.25 5.15-.45 11-2.95 4.65-8.1 6.15-7 1.85-8.55-5.2-3.8 2.65-7.25 6.7-3.65 4.25-5.4 10.05-1.8 5.75-.15 11l1 2.6q-2.7-1-3.65-4.35-1.55-5.5-.35-10.7 1-4.6 2.85-7.45l7.9-8.05Q-38.85-3.05-29-9.55q9.85-6.55 18.85-10.5l12.1-4.8" fill="#ffbf98" transform="translate(68.05 45.65)"/></g><g id="O" fill-rule="evenodd"><path d="M-16.8-13.3q1.15.6 2.8.5 2.15-.2 4.2-3.95 2.05-3.8 1.95-6.85-.1-3.1-.85-4.8-.4-.9-1.1-1.6l-1.45-1.1q2.15-.3 3.4.5 2.5 1.95 2.6 6.7.1 4.7-1.7 9.35-1 2.6-2.7 4.85l-1 1.25h-.05l-.35.1-.95.1h-.3l-1.35-.1-.1-.75-.35-.2q-3.75-2.25-4.75-6.15l1.35 1.6.7.55m6.2 5.05Q-4.9 1.7 7.05 3.7l4.2.4h.05q.55 1.05.95 2.8l.45 4-.1 1.2q-1.2-2.1-2.4-2.35L8.65 9.5q-1.3.9-1.95 2.75-.65 1.8.55 4.45 1.05 2.35 3 2.85l-.6 1.2-.2.45-1.85.8Q6 22.6-6 28.05q2.35-2 3.45-4.55t1.85-4.9q.7-2.35.7-5.55 0-3.2-.8-5.25-.8-2.1-2.2-4.65Q-4.45.6-9.35-4.9q-1.2-1.2-1.25-3.35m39.1-2.9-.95-1.7q-1-1.45-.9-3.55.05-2.1 1.05-4 .6-1.25 1.35-1.95.65.9 1.1 2.45l.45 2.6-.35 2.95q-.3 1.25-1.75 3.2M-7.9-7.7l-.15-.2-.2-.55q.15-.8 3-.3 2.8.5 4.25.05 1.4-.45 3.3-1.35Q4.2-11 5.7-12.3q1.45-1.25 2.45-3.85-2.1-2.8-.55-6.45l.35-.3q1.9 1.95 1.65 4.2-.3 2.2.75 5.6 1 3.35 5.1 6 4.1 2.6 8.25 2.9l-2.9 2.55q-4.65 3.6-10.75 3.2-5.6-.2-10.5-3Q-4.9-3.9-7.9-7.7" fill="#c19d21" transform="translate(36.65 35.1)"/><path d="M-16.8-13.3q-.55-2.3-.55-3.5l.2-2.5.35-2.25q.1.45 1.4.85 1.25.35 2.3-.65 1-1 1.05-3.1.05-2.1-1.4-2.9L-11.8-29l2-1q.7.7 1.1 1.6.75 1.7.85 4.8.1 3.05-1.95 6.85Q-11.85-13-14-12.8q-1.65.1-2.8-.5m-15.05 4.5.05 1.6q0 2.25-.7 2.25-1.5 0-1.8-2.75l.7.1q.65 0 1.4-.8l.35-.4m16.65-8.15q.4.35 1 .35t1-.35q.4-.3.4-.75t-.4-.8l-1-.3q-.6 0-1 .3-.4.35-.4.8 0 .45.4.75m2.95 8.7h.25l.95-.1.35-.1.1.2q.05 2.15 1.25 3.35Q-4.45.6-3 3.15-1.6 5.7-.8 7.8q.8 2.05.8 5.25t-.7 5.55q-.75 2.35-1.85 4.9-1.1 2.55-3.45 4.55Q6 22.6 7.6 22l1.85-.8 1.35-.65 2.4-1.2 3.05-1.9q3.65-2.6 4.65-4.7.95-2.15 1.4-9.1V.9q2.1-1.5 3.9-3.6-1.15 7.9-2.3 13.1-1.1 4.9-2.35 6.2L8.5 22.95l-.5.2-.1.05q-3 1-4.25 1.65l-4 1.55-4.5 1.7-1.45.6-3.5 1.45-3 .35-5.2-.25q-2.75-.9-4.6-3.25-1.6-2.05-1.95-4.6.7 1.9 2.15 3.65l1.4 1.2.4.15q.85.7 1.95.8 3.05-.3 4.95-2.8 1.85-2.55 2.3-5.15.45-2.65.15-6.5-.3-3.4-2.35-6.1l-.75-.8q-1.85-1.7-5.3-1.2v.05q-.4.05-.55.35l.1-.2q-1.45 1.1-2.65 2.8-1.3 1.75-2.05 4.45-.75 2.65-.6 4.95h-.05q-.4-2.2-.95-4.3-.7-2.75-.95-5.7l-.1-2.8 1 .15q1.5 0 3.25-.55 2.5-.75 4.45-2.35 3.55-2.95 4.9-5.3 1.2-2.05 1.6-5.45m40.75-2.9q1.45-1.95 1.75-3.2l.35-2.95-.45-2.6q-.45-1.55-1.1-2.45l.05-.05 1.1-.8q1.15 1.6 1.4 3.75.2 2.1-.05 3.65l-.75 2.6-2 3.1-.05-.05-.25-1m-40.3 16.7q1.35 0 2.3-.95 1-.95 1-2.3 0-1.35-1-2.3-.95-.95-2.3-.95-1.35 0-2.35.95-.95.95-.95 2.3 0 1.35.95 2.3 1 .95 2.35.95" fill="#ffec59" transform="translate(36.65 35.1)"/><path d="m-11.25-31.1-.4.05-1 .25q-3.2.75-5.25 5.95-1.8 4.5-1.2 8.25-.05.6.25 1.15 1 3.9 4.75 6.15l.35.2.1.75-.25 1.9q-.3 1.95-2.25 4.15-2 2.15-5.3 3.05l-5.7.3q-2.2-.55-3.95-1.4v2.8l.15 5.85q.2 3.1 2 11.75 1.35 3.5 2.3 5 .9 1.45 3.4 3.5 2.5 2 3.75 3.2l4.35.2 5.35-1.8 3.5-1.45 1.45-.6 4.5-1.7 4-1.55Q4.9 24.2 7.9 23.2l.1-.05.5-.2 13.05-6.35q1.25-1.3 2.35-6.2 1.15-5.2 2.3-13.1Q24.4-.6 22.3.9q-4.7 3.25-11 3.2h-.05l-4.2-.4Q-4.9 1.7-10.6-8.25l-.1-.2h.05l1-1.25q1.7-2.25 2.7-4.85 1.8-4.65 1.7-9.35-.1-4.75-2.6-6.7-1.25-.8-3.4-.5M-34.3-7.7q.3 2.75 1.8 2.75.7 0 .7-2.25l-.05-1.6q-.15-1.65-.6-2.5-.5-.85-1.5-1.05l-.05.05q-.4 1.1-.4 2.85l.05 1.2.05.55m5.15-.05q0 1.85-.85 3.5l4.15-.3q2.2-.7 3.65-2.6l.55-.6q-1.55-2.35-2.05-6.6-.55-4.3 2.2-9.9 2.7-5.65 6.9-8.85 4.2-3.2 9-1.25 4.75 1.9 5.9 8.15Q1.45-20-.8-14q.85-.3 2.1-1.25l1.45-1.35.1-.3q-.25-2.25-.2-4.4 0-1 .45-2.2.9-2.15 2.95-3.3l4.35-.1q1.05.5 1.75 1.4 1.4 2.05 1.6 4.65l.15 2.3q.1.95.55 2.7.4 1.7 2.4 3.9 1.95 2.2 4.75 3.3l2.15-.15q.4-.2 0-.85l-.8-1.8q-.8-2.5-.6-5 .25-3.85 2.5-6.75 2.25-2.95 3.95-3.25l1.6-.3h.15l.95.05q2.6.25 3.5 2.9l.2.4.8 1.9.2.9q.5 2.3.45 4.7-.05 2.2-.65 4.35-.8 1.8-2.45 3.45l-.6.8q-2.5 3.25-3.8 6.05Q27.7 1.8 27 6.65v.1l-1.15 5.7-.7 3.15-.85 1.9q-.85 1-6.65 3.75l-.85.4q-19.15 9.1-33.1 12.7l-1.75.4-.6.15-.85.2-4.65-4q-3.6-3.15-5.25-5.55l-.1-.15-.2-.3-.1-.15-.1-.15-.15-.3q-1.25-2.35-1.95-6.15-.95-4.8-1.3-9.45l-.25-7.3.5-4.35q-2-.95-3.05-3.65-1.1-2.9.1-5.4 1.15-2.55 2.85-2.35 1.65.2 2.85 2.2 1.15 1.95 1.15 4.2m8.5-5.25q.6 2.45.65 5.15 0 2.7-1.55 3.85-1.6 1.1-2.5 1.5l-4.8.95q3.85 1.6 7.25-.1 3.45-1.6 5.25-5l.4-1q-3-1.75-3.65-3.2L-20.65-13M-7.9-7.7q3 3.8 7.45 6.25 4.9 2.8 10.5 3 6.1.4 10.75-3.2l2.9-2.55q-4.15-.3-8.25-2.9-4.1-2.65-5.1-6-1.05-3.4-.75-5.6.25-2.25-1.65-4.2l-.35.3q-1.55 3.65.55 6.45-1 2.6-2.45 3.85-1.5 1.3-3.4 2.25Q.4-9.15-1-8.7q-1.45.45-4.25-.05-2.85-.5-3 .3l.2.55.15.2m36.95-14.65q-.75.7-1.35 1.95-1 1.9-1.05 4-.1 2.1.9 3.55l.95 1.7.25 1 .05.05 2-3.1.75-2.6q.25-1.55.05-3.65-.25-2.15-1.4-3.75l-1.1.8-.05.05" fill="#8a6115" transform="translate(36.65 35.1)"/><path d="m-9.8-30-2 1-1.65 1.65q1.45.8 1.4 2.9-.05 2.1-1.05 3.1-1.05 1-2.3.65-1.3-.4-1.4-.85l-.35 2.25-.2 2.5q0 1.2.55 3.5l-.7-.55-1.35-1.6v-.1l-.25-1.05q-.6-3.75 1.2-8.25 2.05-5.2 5.25-5.95l1-.25.4-.05L-9.8-30M-31.85-8.8l-.35.4q-.75.8-1.4.8l-.7-.1-.05-.55-.05-1.2q0-1.75.4-2.85l.05-.05q1 .2 1.5 1.05.45.85.6 2.5m18.2.45 1.35.1h.05q-.4 3.4-1.6 5.45-1.35 2.35-4.9 5.3-1.95 1.6-4.45 2.35-1.75.55-3.25.55l-1-.15.1 2.8q.25 2.95.95 5.7.55 2.1.95 4.3l.15 1 .05.15.5 2.5.15.5.05.2q.35 2.55 1.95 4.6 1.85 2.35 4.6 3.25l5.2.25 3-.35-5.35 1.8-4.35-.2q-1.25-1.2-3.75-3.2-2.5-2.05-3.4-3.5-.95-1.5-2.3-5-1.8-8.65-2-11.75l-.15-5.85v-2.8q1.75.85 3.95 1.4l5.7-.3q3.3-.9 5.3-3.05 1.95-2.2 2.25-4.15l.25-1.9m1.85 13.9q-1.35 0-2.35-.95-.95-.95-.95-2.3 0-1.35.95-2.3 1-.95 2.35-.95t2.3.95q1 .95 1 2.3 0 1.35-1 2.3-.95.95-2.3.95" fill="#fffacc" transform="translate(36.65 35.1)"/><path d="M-15.2-16.95q-.4-.3-.4-.75t.4-.8q.4-.3 1-.3l1 .3q.4.35.4.8 0 .45-.4.75-.4.35-1 .35t-1-.35" fill="#fffaca" transform="translate(36.65 35.1)"/><path d="m-20.65-13 1.05 2.15q.65 1.45 3.65 3.2l-.4 1q-1.8 3.4-5.25 5-3.4 1.7-7.25.1l4.8-.95q.9-.4 2.5-1.5Q-20-5.15-20-7.85q-.05-2.7-.65-5.15" fill="#ea9721" transform="translate(36.65 35.1)"/><path d="M11.3 4.1q6.3.05 11-3.2v2.75q-.45 6.95-1.4 9.1-1 2.1-4.65 4.7l-3.05 1.9-2.4 1.2-1.35.65.2-.45.6-1.2.5.1q2.3.3 2.9-2.05.4-1.75-.15-3.55l-.3-.8-.3-.65-.3-.5.1-1.2-.45-4q-.4-1.75-.95-2.8m-30.95 1.55q3.45-.5 5.3 1.2l.75.8q2.05 2.7 2.35 6.1.3 3.85-.15 6.5-.45 2.6-2.3 5.15-1.9 2.5-4.95 2.8-1.1-.1-1.95-.8l1.6.15q1.9-.25 3.45-3 1.55-2.8 1.85-5.65.25-2.85-.35-5.95T-16 7.8q-1.25-1.8-3.3-2.1h-.35v-.05" fill="#c2b416" transform="translate(36.65 35.1)"/><path d="M10.25 19.55q-1.95-.5-3-2.85-1.2-2.65-.55-4.45.65-1.85 1.95-2.75l1.55.25q1.2.25 2.4 2.35l.3.5.3.65.3.8q.55 1.8.15 3.55-.6 2.35-2.9 2.05l-.5-.1m-.95-7.3q-.3.7-.3 1.4 0 1.4.65 2.6.55 1 1.05 1.2.45.2.55-1.55.05-1.8-.5-2.85-.6-1.1-1.25-1.2l-.05.1-.15.3m-34.7 5.8q-.15-2.3.6-4.95.75-2.7 2.05-4.45 1.2-1.7 2.65-2.8l-.1.2q.15-.3.55-.35h.35q2.05.3 3.3 2.1 1.35 2.05 1.95 5.15.6 3.1.35 5.95-.3 2.85-1.85 5.65-1.55 2.75-3.45 3l-1.6-.15-.4-.15-1.4-1.2q-1.45-1.75-2.15-3.65l-.2-.7-.5-2.5-.05-.15-.1-1m7.25-9.85-.65-.75q-2.1 1.65-3.15 4.15-1.5 3.55-1 7.4l.35 1.45.85 2.35q.9 2.15 2.6 2.6l1.5-1.75q1-1.35 1.45-4.05.45-2.7-.05-6.35-.45-3.1-1.9-5.05" fill="#34510b" transform="translate(36.65 35.1)"/><path d="m9.3 12.25.15-.3.05-.1q.65.1 1.25 1.2.55 1.05.5 2.85-.1 1.75-.55 1.55-.5-.2-1.05-1.2-.65-1.2-.65-2.6 0-.7.3-1.4m-29.85 4.05q.8-.05 1.5-.55t.85-1.7q.2.4.3.95l.1 2.4q0 2.9-.35 3.6-.4.7-1.45.9-1.05.2-1.6-.85t-.5-2.25l.2-1.85q.1-.6.95-.65m1.4 1.35q-.35-.3-.85-.3t-.85.3q-.35.35-.35.8l.35.75q.35.35.85.35t.85-.35q.35-.3.35-.75t-.35-.8" fill="#536e0f" transform="translate(36.65 35.1)"/><path d="M-18.15 8.2q1.45 1.95 1.9 5.05.5 3.65.05 6.35-.45 2.7-1.45 4.05l-1.5 1.75q-1.7-.45-2.6-2.6l-.85-2.35.35-2.8.5-2.2.85.15q2.2 0 2.2-2.05v-.35q-.15-.8-.7-1.1-.7-.35-.7-.8 0-.85.65-1.6l1.3-1.5m-2.4 8.1q-.85.05-.95.65l-.2 1.85q-.05 1.2.5 2.25t1.6.85q1.05-.2 1.45-.9.35-.7.35-3.6l-.1-2.4q-.1-.55-.3-.95-.15 1.2-.85 1.7t-1.5.55" fill="#9bb621" transform="translate(36.65 35.1)"/><path d="m-22.6 20.45-.35-1.45q-.5-3.85 1-7.4 1.05-2.5 3.15-4.15l.65.75-1.3 1.5q-.65.75-.65 1.6 0 .45.7.8.55.3.7 1.1v.35q0 2.05-2.2 2.05l-.85-.15-.5 2.2-.35 2.8m3.45-2.8q.35.35.35.8 0 .45-.35.75-.35.35-.85.35t-.85-.35l-.35-.75q0-.45.35-.8.35-.3.85-.3t.85.3" fill="#d1e553" transform="translate(36.65 35.1)"/></g><g id="P" fill-rule="evenodd"><path d="m-14.75 20.05-3.75-.45-4.95 1.35h-.15l-2.6-.1q-1.95-.1-1.85-2.75.1-2.7.95-5.6l.8-2.8-.7-.45q-.7-.3-.7-1.2 0-2 1.1-4.4Q-25.55 1.3-25.55.6q0-.55-.3-.7l-.95-.1-1.35-.5-.65.95-.25 1.65v.55l-.05 2.65q-.05 2.55-2.25 2.2l-.85-.15q-1.6-.35-2.5-.9-1.15-.75-1.7-1.85-1.25.2-2.65-1.15Q-42.2.1-43.3-2.4q-1.25-2.9-1.25-8.05 0-2.45 1-3.35.9-.8 3.3-.8l2.65.45 6.5.3h.55l3.15-.7 1 .8.35.3q-3.45 2.3-7 2.8l-7.05.35q-.4 2.05.95 5.25 1.35 3.15 3.2 6.25 1.45 2.45 3.75 3.2l1.25.25q-.65-4.6.95-6.1.85-.35 1.95-.95.65-.35 1.4-.8L-23-5.6q1.65-1.3 3.7-3.35l2.8-3.15.15-.25.2.75q-.45 1.65-2.1 4.05l-.9 1.25-1.35 1.8-.4.45q-.75.75-2.1 1.25l-1.75.6q.8 1.35 3.75 2.1V0l.15 2.6q-.65-.75-1.3-.95l-1.75-.05q-.55.25-1 1.55l-.3.95-.6 2.9q.15.7 1 .65l1.45.05.25.2-.6 1.35-1.15 3.15-.8 2.85-.15 1.2q-.1 1.5.25 2.05v.05q.45.65 1.9.65l1.1-.15 1.55-.5 1.3-.55q1.9-.85 2.9-1.15l.15-.05 1.1 1.7.8 1.55m58.5-37.15.85.5-3.1 1-3.15 1.55q-1.7 1-2.8 3.85-.6 1.2-.4 2.2l-.1 8.1q-.1 5.25-4.95 6.55.75 1.25 1.1 2.75l.95 4.7.2 3.25q.15.85-2.95.75-3.1-.15-10-1.95-1.45 0-1.6.4l-.25 2.35q.2 4-1.65 4-2.55 0-4.55-1.3Q9.4 20.3 8 20.3q-.6 0-4.15 1.9l-3.4 1.85L-.85 23l-.75-.9.85-1.1.8-1.15.9 1.9q6.1-4.45 6.45-4.45l3.25 1.4q3.05 1.35 4.2 1.25Q16 19.8 16 18.55t.3-2.7l.5-2q.25-.75.8-.75l5.3 1.5q2.85.9 4.25.8l1.7-.15 1-.1q-1.2-4.4-1.8-7.95L28 6.9l-.55-.3-2.85-2-1.35-1.35-1.05 2.7q-1.7 3.6-3.15 3.7-1.5.05-3.4-.85L12.4 7.4Q11.15 7 9.5 5.9L7.4 4.65l-.8-.6.6-2.4q1.45.9 5.45 2.85 5.5 2.7 6.35 2.35.8-.4 2-2.4 1.15-2.05.45-4.15-.7-2.1-.7-3.6-.05-1.55-.9-2.05-.9-.55-2.3-.55-1.55 0-2.5 1.1l-2.4 2.5q-1.15.9-3.3 1.45l-1.7.5.1-1.6v-.35q.6-.6 2.05-1.4l.8-.4 1.45-.85 2.3-2.2.4-.35q.8-.8 1.25-.85l-3.45-3.05-1.7-1.45q-1.15-.9-.95-1.25.2-.35.9-.45.7-.1 1.95.7l.8.55 2.5 1.8 2.8 2.05 1.45 1.1 2.25 1.4.65 2.9q.45 3.55 2.5 6.8.25.8 2.85 1.3T32.2 1.4q.95-2.95.75-5.55l-.05-.5q-.3-2.4-.1-4.65l.1-.95q.3-2.75 2.8-4.85l2.2-1.35.3-.1 3.45-.55h2.1m-18.3-3.45q1.75-1.35 3.15-2.1 1.45-.8 1.5-1.9l-.1-.05-.35-.1-2.85-.3q-5.05 0-8.6.9-3.7.9-8.5 3.35l-1.6.8-.05-.05Q8-20.3 9.3-21.95l1.8-2.35h-.05v-.05h-.1q-.55-.25-3.3.65-3 .9-6.05 2.95-3.05 2.05-4.5 3.65l-2.65 2.9-1.05 1.5-.8-.35q.1-2.95 2.65-5.15 2.95-2.55 7.05-4.85 4.05-2.3 6.6-2.8 2.5-.5 3.45-.05v1.35l.5-.15q5.25-1.5 9.9-2.15 4.85-.75 8.25.2 3.35.9 1.1 3-1.9 2.1-4.9 3.1l-.05.05-.3.05-1.4.05v-.15" fill="#3b0937" transform="translate(44.55 27.2)"/><path d="m-16.65 16.8-.15.05q-1 .3-2.9 1.15l-1.3.55-1.55.5L-21 16.6l.2-.4.95-1.85 1-1.55.25-.3q1 2.9 1.95 4.25v.05M-25.2 4.1l.3-.95q.45-1.3 1-1.55l1.75.05q.65.2 1.3.95l.1.9.2 1.35-1.15-.4-2.1-.35h-1.4m58.15-8.25q.2 2.6-.75 5.55-1.05 3.15-3.65 2.65-2.6-.5-2.85-1.3-2.05-3.25-2.5-6.8l-.65-2.9-2.25-1.4-1.45-1.1-2.8-2.05-2.5-1.8 19.4 9.15M10.6-4.1l-.8.4q-1.45.8-2.05 1.4l-.4-1.45q-.65-1.6-7.5-5.5l-4.5-2.5 2.85-2.9v-.05L9-5.5l1.6 1.4M7.65-.35l1.7-.5q2.15-.55 3.3-1.45l2.4-2.5q.95-1.1 2.5-1.1 1.4 0 2.3.55.85.5.9 2.05 0 1.5.7 3.6T21 4.45q-1.2 2-2 2.4-.85.35-6.35-2.35-4-1.95-5.45-2.85L7.55 0l.1-.35M6.6 4.05l.8.6L9.5 5.9q1.65 1.1 2.9 1.5l3.25 1.4q1.9.9 3.4.85 1.45-.1 3.15-3.7l1.05-2.7L24.6 4.6l2.85 2 .55.3.05.3q.6 3.55 1.8 7.95l-1 .1-1.7.15q-1.4.1-4.25-.8l-5.3-1.5q-.55 0-.8.75l-.5 2q-.3 1.45-.3 2.7 0 1.25-1.15 1.4-1.15.1-4.2-1.25L7.4 17.3q-.35 0-6.45 4.45l-.9-1.9q1.75-2.75 3.3-6.5l1.95-5 .45-1.25.7-2.4.15-.65" fill="#62105b" transform="translate(44.55 27.2)"/><path d="m-22.55 19.05-1.1.15q-1.45 0-1.9-.65l.05-.05q5-5.35 5.15-6.9.15-1.65-.7-2.7-.9-1.05-1.8-1.05l-.25.05.05-.2h-.3l-1.45-.05q-.85.05-1-.65l.6-2.9h1.4l2.1.35 1.15.4.05.3q.5 3.3 1.7 6.85l.2.5-.25.3-1 1.55-.95 1.85-.2.4-1.55 2.45m3.4-25.35.9-1.25q1.65-2.4 2.1-4.05l2.05.35-5.05 4.95m2.65-5.8-2.8 3.15Q-21.35-6.9-23-5.6l-3.65 2.4q-.75.45-1.4.8-1.1.6-1.95.95-1.6 1.5-.95 6.1l-1.25-.25q-2.3-.75-3.75-3.2-1.85-3.1-3.2-6.25-1.35-3.2-.95-5.25l7.05-.35q3.55-.5 7-2.8l.05.05.8.55 1.35.55 2.5.3 3.35.25q.95.1 1.5-.35m60.25-5h-2.1l-3.45.55-.3.1-.55-.2Q33.7-18.2 29.7-18.2q-4.45-.35-7.4.1-3 .4-5.8 1.85l1.95.85 5.4 2.45 5.15 2.2 3.8 1.45q-.2 2.25.1 4.65l.05.5-19.4-9.15-.8-.55q-1.25-.8-1.95-.7-.7.1-.9.45-.2.35.95 1.25l1.7 1.45L16-8.35q-.45.05-1.25.85l-.5-.45q-.6-.5-1.45-1.25-2.4-2.05-4.1-1.85-1.7.2-1.75 1.1-.05.85 1.15 3L9-5.5l-10.8-9.2.05-.05 4.2-4.05 4.25-3.25q2.05-1.35 4.25-2.3l.1.05h.05l-1.8 2.35Q8-20.3 8.05-20v.05h.05l1.6-.8L6.8-18 4-15.85l-.05.05.05.05q1.25.7 4.9-1.1 3.65-1.85 8.55-3.7l7.15-2.7 5.05-1.45.35.1.1.05q-.05 1.1-1.5 1.9-1.4.75-3.15 2.1l-.15.15h.15l1.4-.05.35-.05h.05l1.5.25q11 1.75 15 3.15" fill="#89277f" transform="translate(44.55 27.2)"/><path d="M-25.55 18.5q-.35-.55-.25-2.05l.15-1.2.8-2.85 1.15-3.15.6-1.35.25-.05q.9 0 1.8 1.05.85 1.05.7 2.7-.15 1.55-5.15 6.9h-.05M-21-.1q-2.95-.75-3.75-2.1l1.75-.6q1.35-.5 2.1-1.25l.4-.45-.35 1.9L-21-.1m58.9-16.35-2.2 1.35q-2.5 2.1-2.8 4.85l-.1.95-3.8-1.45-5.15-2.2-5.4-2.45-1.95-.85q2.8-1.45 5.8-1.85 2.95-.45 7.4-.1 4 0 7.65 1.55l.55.2M14.75-7.5l-.4.35-2.3 2.2-1.45.85L9-5.5l-.9-1.45q-1.2-2.15-1.15-3 .05-.9 1.75-1.1 1.7-.2 4.1 1.85.85.75 1.45 1.25l.5.45M-6.6-12.7l1.05-1.5 2.65-2.9q1.45-1.6 4.5-3.65t6.05-2.95q2.75-.9 3.3-.65-2.2.95-4.25 2.3L2.45-18.8l-4.2 4.05-.05.05v.05l-2.85 2.9-1.95-.95m16.3-8.05q4.8-2.45 8.5-3.35 3.55-.9 8.6-.9l2.85.3-5.05 1.45-7.15 2.7q-4.9 1.85-8.55 3.7-3.65 1.8-4.9 1.1v-.1L6.8-18l2.9-2.75" fill="#f074da" transform="translate(44.55 27.2)"/><path d="m-14.75 20.05-.8-1.55-1.1-1.7v-.05q-.95-1.35-1.95-4.25l-.2-.5q-1.2-3.55-1.7-6.85l-.05-.3-.2-1.35-.1-.9L-21 0v-.1l.15-2.5.35-1.9 1.35-1.8 5.05-4.95.2-.15 2.2-1.4q1.4-.85 3.05-.6l1.25.35.8.35 1.95.95 4.5 2.5q6.85 3.9 7.5 5.5l.4 1.45v.35l-.1 1.6-.1.35-.35 1.65-.6 2.4-.15.65-.7 2.4-.45 1.25-1.95 5Q1.8 17.1.05 19.85L-.75 21l-.85 1.1q-1.85 2.2-3.8 3.45l-2.55 1.6-.8-.05q-.6-.15-1.85-1.45l-2.85-3.6-1.3-2m7.85 4 1.95-1.6q2-1.7 4.95-7Q2.9 10.1 4.05 4.8 5.1-.55 4.8-3.7l-.45-.15-3-1.6L-4.2-8.8l-5-3.2-.3.25q-3.95 3.55-8.6 7l-.2 4.35q-.2 2.25.7 7.7.5 3.05 1.95 6.2l2.6 4.75q3.65 5.5 5.15 6.55l1-.75" fill="#364b0a" transform="translate(44.55 27.2)"/><path d="m4.35-3.85.45.15q.3 3.15-.75 8.5Q2.9 10.1 0 15.45q-2.95 5.3-4.95 7l-1.95 1.6-.1-.9L-8.25 7.9l.3-.2h.05q3.65-2.15 6.6-5.35l5.65-6.2" fill="#536e0f" transform="translate(44.55 27.2)"/><path d="m4.35-3.85-5.65 6.2q-2.95 3.2-6.6 5.35h-.05l-.35-.45-1.2-19 .3-.25 5 3.2 5.55 3.35 3 1.6M-8.25 7.9-7 23.15q-2.85-2.8-5.45-6.75-1.25-1.85-2-3.95l1.9-1.65L-8.5 8l.25-.1" fill="#68990c" transform="translate(44.55 27.2)"/><path d="m-7 23.15.1.9-1 .75q-1.5-1.05-5.15-6.55l-2.6-4.75q-1.45-3.15-1.95-6.2-.9-5.45-.7-7.7l.2-4.35q4.65-3.45 8.6-7l1.2 19-4.55-6-2.75-3.35.15 9.4q.15 2.7 1 5.15.75 2.1 2 3.95 2.6 3.95 5.45 6.75" fill="#dfff36" transform="translate(44.55 27.2)"/><path d="M-14.45 12.45q-.85-2.45-1-5.15l-.15-9.4 2.75 3.35 4.55 6 .05.65-.25.1-4.05 2.8-1.9 1.65" fill="#7dbf20" transform="translate(44.55 27.2)"/></g><use ffdec:characterId="2" height="41.5" width="51.55" xlink:href="#x" id="c"/><use ffdec:characterId="4" height="242.6" width="130.15" xlink:href="#y" id="d"/><use ffdec:characterId="6" height="97" width="75.7" xlink:href="#z" id="e"/><use ffdec:characterId="8" height="50.9" width="38.55" xlink:href="#A" id="f"/><use ffdec:characterId="11" height="72.1" width="42.2" xlink:href="#B" id="g"/><use ffdec:characterId="10" height="72.1" width="42.2" xlink:href="#C" id="B"/><use ffdec:characterId="13" height="221.75" width="172.1" xlink:href="#D" id="h"/><use ffdec:characterId="15" height="78.7" width="56" xlink:href="#E" id="i"/><use ffdec:characterId="17" height="99.7" width="81.25" xlink:href="#F" id="j"/><use ffdec:characterId="19" height="85.45" width="62.6" xlink:href="#G" id="k"/><use ffdec:characterId="21" height="46.3" width="55.3" xlink:href="#H" id="l"/><use ffdec:characterId="23" height="82.6" width="67.15" xlink:href="#I" id="m"/><use ffdec:characterId="25" height="57.55" width="33.55" xlink:href="#J" id="n"/><use ffdec:characterId="27" height="52.3" width="52.85" xlink:href="#K" id="o"/><use ffdec:characterId="29" height="59.95" width="64.95" xlink:href="#L" id="p"/><use ffdec:characterId="31" height="100.85" width="49.3" xlink:href="#M" id="q"/><use ffdec:characterId="40" height="91.3" width="136.1" xlink:href="#N" id="s"/><use ffdec:characterId="42" height="70.2" width="73.3" xlink:href="#O" id="t"/><use ffdec:characterId="44" height="54.4" width="89.15" xlink:href="#P" id="u"/><path d="M27.75 0q0 2-8.15 3.4Q11.5 4.9 0 4.9q-11.5 0-19.65-1.5-8.1-1.4-8.1-3.4 0-2.05 8.1-3.5Q-11.5-4.9 0-4.9q11.5 0 19.6 1.4 8.15 1.45 8.15 3.5" fill-opacity=".349" fill-rule="evenodd" transform="translate(27.75 4.9)" id="b"/></defs></svg>