<svg xmlns:ffdec="https://www.free-decompiler.com/flash" xmlns:xlink="http://www.w3.org/1999/xlink" ffdec:objectType="frame" height="90" width="90" xmlns="http://www.w3.org/2000/svg"><use ffdec:characterId="33" height="179.9" transform="translate(1.073 .499) scale(.4989)" width="202.7" xlink:href="#a"/><defs><g id="a" transform="translate(-2.15 -1)"><use ffdec:characterId="1" height="8" transform="matrix(1.2224 0 0 2.303 50.54 160.615)" width="74.55" xlink:href="#b"/><use ffdec:characterId="3" height="238" transform="translate(3.8 37.1) scale(.2032)" width="220" xlink:href="#c"/><use ffdec:characterId="5" height="218.9" transform="translate(38.05 54.15) scale(.2032)" width="341.35" xlink:href="#d"/><use ffdec:characterId="7" height="270.2" transform="translate(14.9 26.75) scale(.2032)" width="242.05" xlink:href="#e"/><use ffdec:characterId="9" height="230.35" transform="translate(56.2 26.25) scale(.2032)" width="226.35" xlink:href="#f"/><use ffdec:characterId="11" height="136.15" transform="translate(45.75 84.75) scale(.2032)" width="496.2" xlink:href="#g"/><use ffdec:characterId="13" height="104.3" transform="translate(99.3 74.8) scale(.2032)" width="143.5" xlink:href="#h"/><use ffdec:characterId="20" height="352.5" transform="rotate(-27.844 141.722 -144.023) scale(.2263)" width="419.3" xlink:href="#i"/><use ffdec:characterId="22" height="138" transform="translate(38.25 71.3) scale(.2032)" width="178.7" xlink:href="#j"/><use ffdec:characterId="24" height="189.75" transform="translate(49.95 80.65) scale(.2032)" width="395.2" xlink:href="#k"/><use ffdec:characterId="30" height="425.6" transform="translate(48.25 1) scale(.2032)" width="400.55" xlink:href="#l"/><use ffdec:characterId="32" height="291.25" transform="translate(44.9 95.15) scale(.2032)" width="508.85" xlink:href="#m"/></g><g id="t" fill-rule="evenodd"><path d="M105.5 135.15q-31.5 6.15-55.7-4.7-21.7-9.85-33.4-31.35l-2.85-5.6q-8.15-18.05-7-38.85Q7.9 29.95 21.9 10.4q.7 15.3 6.35 26.95 5.4 11.15 17.6 23.6Q55.6 71 66.25 76.2q3.15 1.55 6.85 2.95 9.55 3.55 22.7 5.9l6 1.2q43.1 8.95 73.35 33.9l1.2 1.1q7.2 6.05 13 12.6 18.55 20.65 23 45.4 3.2 18-.15 31.9-2.95 12.6-10.2 18.05-7.25 5.45-15.45 1.3-8.8-4.4-15.4-18.55 2.55-1.05 4.5-2.95 5.15-4.75 7.1-14.75l-.75.1q-8.8 11.75-22.65 18.25-13.9 6.6-29.45 6.35-15.7-.3-28.6-7.5-13.9-7.7-21.2-21.65l2.7.15q1.6.05 2.2.85 35.75 5.95 42.25-22.55-5.4 13.5-20.5 17.8-14.2 3.95-30.35-1.75-10-3.5-17.75-9.55-5.15-4.2-9.3-9.55-11.5-14.9-10.6-34.55 13.2 7.95 30.3 10.05 20.7 2.6 36.45-5.55M43 49.35Q27.25 25.9 26.9 0-2.25 30.3.2 66.05q2.3 34.65 33.3 63.35-5.3 42.35 42.55 60.45 2.05 11.4 10.85 20.1 8.4 8.4 21.25 12.7 13.15 4.35 27.85 3.5 15.6-.85 30.1-7.4 9.1 13.85 20.95 17.8 11.1 3.75 20.15-2.3 9.3-6.25 11.9-20.05 2.95-15.35-3.75-35.4-5.6-38.5-40.7-64.85-34.7-26.1-92.5-36.05Q59.6 74.05 43 49.35" fill="#355890"/><path d="m13.55 93.5 2.85 5.6q11.7 21.5 33.4 31.35 24.2 10.85 55.7 4.7l-28.7-15.3q-22.95 6.95-51.45-15.9-5.75-4.6-11.8-10.45m45.1 81.25q7.75 6.05 17.75 9.55 16.15 5.7 30.35 1.75 15.1-4.3 20.5-17.8-6.5 28.5-42.25 22.55 8.55 10.65 21.5 16.9 11.6 5.55 24.65 6.8 13.2 1.25 28.75-6.25 9.1-4.4 22.1-13.9l1-1.4-.25 1.3q-1.95 10-7.1 14.75 3 10.65 8.15 15 5.45 4.65 12.55 1.45-2.45-20.2 12.35-19.4 6.35-42.55-19.35-72.2-5.8-6.55-13-12.6l-1.2-1.1Q144.9 95.2 101.8 86.25q42 23.45 53.4 49.05 11.8 26.2-11.55 48.85-4.2 4.05-10.3 5.85-5.4 1.6-13.1 1.55 7.85-4.65 9.65-13.2 1.55-7.25-1.45-15.8-8.6 6-18.1 9.55-23.1 8.65-51.7 2.65M193.45 210q.15 1.2-.5 2.15-.7.9-1.9 1.05-1.2.2-2.15-.5-.9-.65-1.05-1.85-.2-1.2.5-2.2.65-.85 1.85-1.05 1.2-.15 2.2.5.85.7 1.05 1.9" fill="#4f83da"/><path d="M38.75 130.65q-.9 19.65 10.6 34.55 4.15 5.35 9.3 9.55 28.6 6 51.7-2.65-23.5 6.35-43.75-4.35 3.35-18.1-21.3-21.4-5.1-5.85-6.55-15.7M85 190.8q-.6-.8-2.2-.85l-2.7-.15q7.3 13.95 21.2 21.65 12.9 7.2 28.6 7.5 15.55.25 29.45-6.35 13.85-6.5 22.65-18.25-13 9.5-22.1 13.9-15.55 7.5-28.75 6.25-13.05-1.25-24.65-6.8-12.95-6.25-21.5-16.9m90.65 18.2q-1.95 1.9-4.5 2.95 6.6 14.15 15.4 18.55 8.2 4.15 15.45-1.3t10.2-18.05q3.35-13.9.15-31.9-4.45-24.75-23-45.4 25.7 29.65 19.35 72.2-14.8-.8-12.35 19.4-7.1 3.2-12.55-1.45-5.15-4.35-8.15-15M73.1 79.15q-3.7-1.4-6.85-2.95Q55.6 71 45.85 60.95q-12.2-12.45-17.6-23.6Q22.6 25.7 21.9 10.4 7.9 29.95 6.55 54.65q-1.15 20.8 7 38.85 6.05 5.85 11.8 10.45 16.85 9.25 29.75 6.25 5.4-1.25 7-4.4 1.6-3.35-1.8-7.55-5.35-6.75-2.3-11.4 3.1-4.65 15.1-7.7m-1.8 30.05q1.15.9 2.55.7 1.45-.2 2.35-1.4.85-1.15.65-2.6-.2-1.4-1.35-2.3-1.2-.85-2.65-.65-1.4.2-2.25 1.35-.9 1.2-.7 2.6.2 1.45 1.4 2.3M193.45 210q-.2-1.2-1.05-1.9-1-.65-2.2-.5-1.2.2-1.85 1.05-.7 1-.5 2.2.15 1.2 1.05 1.85.95.7 2.15.5 1.2-.15 1.9-1.05.65-.95.5-2.15" fill="#9ff7f7"/><path d="M105.5 135.15q-15.75 8.15-36.45 5.55-17.1-2.1-30.3-10.05 1.45 9.85 6.55 15.7 24.65 3.3 21.3 21.4 20.25 10.7 43.75 4.35 9.5-3.55 18.1-9.55 3 8.55 1.45 15.8-1.8 8.55-9.65 13.2 7.7.05 13.1-1.55 6.1-1.8 10.3-5.85Q167 161.5 155.2 135.3q-11.4-25.6-53.4-49.05l-6-1.2q-13.15-2.35-22.7-5.9-12 3.05-15.1 7.7-3.05 4.65 2.3 11.4 3.4 4.2 1.8 7.55-1.6 3.15-7 4.4-12.9 3-29.75-6.25 28.5 22.85 51.45 15.9l28.7 15.3M71.3 109.2q-1.2-.85-1.4-2.3-.2-1.4.7-2.6.85-1.15 2.25-1.35 1.45-.2 2.65.65 1.15.9 1.35 2.3.2 1.45-.65 2.6-.9 1.2-2.35 1.4-1.4.2-2.55-.7" fill="#63e8ea"/></g><g id="u" fill-rule="evenodd"><path d="M278.45 132.55q26.35.4 43.45-12.35 8.9-6.65 13.1-15.75 4.2-9.05 2.95-18.9l-3.05 1.6q-17.85 9.15-38.35 12.65-16.05 2.75-33.75 2-16.5-.7-31.5-4.45l-1.1-.3q-14.2-3.65-23.25-9 29.65 9.35 62.5 9 8.45-1.85 15.85-6 8.25-4.6 16.15-12.5 14-14 17.65-27.1 3.8-13.55-3.15-27.4-6.65 11.05-15.6 20.55l-.25.25q-4.5 4.8-9.65 9.2-16.45 15-46.35 24.7-8.85 2.9-16.6 4.45l-6.6 1.05q-10.75 1.35-15.45-.7 33.6-4.45 54.1-16.8 5.95-3.55 10.8-7.8Q293.7 38.6 284.7 7.9l-.1-.25-.1.25q-3.65 6.9-9.75 14.75-3.7 4.85-8.35 10-7.8 8.7-18.15 18.45l-10.65 9.6-3.85 3.3-2.55 2.1-.2.15q-7.3 5.95-13.75 10.3-6.3 4.25-11.8 7l3.7-10.2q5.8-17.9-9.2 1.95l-6 8.25q-31.95 1.4-73.55-14.6-17.2-6.65-30.2-14.25-12.8-7.5-16.8-13.15h3.55q33 16.6 57.25 25.55 35.1 13 58.25 12.95 27.05-37.35 19.5-5.5Q252.75 49.65 284 0q9.45 12.85 8.1 27.3Q290.8 41 280 54.55q18.95-10.95 36-37.05 27.55 45.05-32 79.05 27.5-1.65 55-16.5 6.5 19.5-5.15 34.25-10.85 13.75-33.25 18.8-22.75 5.15-47.7-.95-27.35-6.7-48.45-25.1-12.75 51.8-39.45 81.25-24.35 26.9-55.3 30.15-29.85 3.1-56.75-16.3-27.75-20.1-43.55-58.1Q-.35 120.6 0 99.6q.3-19.45 9.05-32.85-8.8 56.15 13.2 93.35 19.85 33.55 64.7 51.75 16.6 3.15 31.3.1Q132.5 209 145 200.25q14.4-10.15 26.5-27.95 17.2-25.45 29.7-66.55-.5-3.35-2.5-7.35l-.65-1.1-4.1-7.75 15.6 15.3q8.5 7.85 16 12.75 18.5 12.1 43.9 14.45l9 .5" fill="#355890"/><path d="M145 200.25q-12.5 8.75-26.75 11.7-75.45-14.9-74.3-53.9 32.6-17.15 51 26 38.6 7.05 56.5-8.5 6.6 11.35-6.45 24.7m72.25-123.7q6.45-4.35 13.75-10.3l.2.25q0 1.05.75 1.75.7.75 1.75.75t1.8-.75q.7-.7.7-1.75t-.7-1.8q-.75-.7-1.75-.7l3.85-3.3q-.05.4.15.6.75.75 5.55-2.85 4.65-3.65 10.6-9.6 5.95-5.95 9.65-10.65 3.6-4.8 2.85-5.55 4.65-5.15 8.35-10 .35 11.3-5.95 21.4-6.15 9.85-18.85 18.95-8.05 5.8-16.6 9.1-7.05 2.8-16.1 4.45m10.25 6.65q7.75-1.55 16.6-4.45 29.9-9.7 46.35-24.7 5.15-4.4 9.65-9.2-1.75 6.85-7.95 14.15-6.2 7.35-15.35 13.4-21.05 13.85-44.6 13.85-4 0-5.35-1.15-1.25-1.05.65-1.9m3.8 14.15q15 3.75 31.5 4.45 17.7.75 33.75-2 4.55 4.8-2.4 9.75-7.45 5.35-22.95 6.25-16.6.95-30.15-3.7-14.05-4.8-25.35-15.85l14.45 1 1.15.1m-138.85 49.2q0-2.5 1.75-4.25t4.25-1.75q2.5 0 4.25 1.75t1.75 4.25q0 2.5-1.75 4.25t-4.25 1.75q-2.5 0-4.25-1.75t-1.75-4.25" fill="#63e8ea"/><path d="m334.9 87.15 3.05-1.6q1.25 9.85-2.95 18.9-4.2 9.1-13.1 15.75-17.1 12.75-43.45 12.35 51.35-6.3 56.45-45.4M198.05 97.3l.65 1.1q2 4 2.5 7.35-12.5 41.1-29.7 66.55 21.2-39.7 26.55-75m1.9-22q15-19.85 9.2-1.95-11.6 14.55-9.2 1.95m31.25-9.2 2.55-2.1q1 0 1.75.7.7.75.7 1.8t-.7 1.75q-.75.75-1.8.75t-1.75-.75q-.75-.7-.75-1.75v-.4m6.4-5.4 10.65-9.6q10.35-9.75 18.15-18.45.75.75-2.85 5.55-3.7 4.7-9.65 10.65t-10.6 9.6q-4.8 3.6-5.55 2.85-.2-.2-.15-.6m47.1-52.8q9 30.7-14.35 51.05-4.85 4.25-10.8 7.8 27.9-24 24.95-58.85h.2m31.25 16.15q6.95 13.85 3.15 27.4-3.65 13.1-17.65 27.1-7.9 7.9-16.15 12.5-7.4 4.15-15.85 6 22.7-11.95 36.1-34.15 12.6-20.9 10.4-38.85" fill="#9ff7f7"/><path d="M334.9 87.15q-5.1 39.1-56.45 45.4l-9-.5q-25.4-2.35-43.9-14.45-7.5-4.9-16-12.75l-15.6-15.3 4.1 7.75q-5.35 35.3-26.55 75-12.1 17.8-26.5 27.95 13.05-13.35 6.45-24.7-17.9 15.55-56.5 8.5-18.4-43.15-51-26-17.75-9.8-21.7 2.05-22-37.2-13.2-93.35 16.3-24.85 64.35-25.2 4 5.65 16.8 13.15 13 7.6 30.2 14.25 41.6 16 73.55 14.6l6-8.25q-2.4 12.6 9.2-1.95l-3.7 10.2q5.5-2.75 11.8-7 9.05-1.65 16.1-4.45 8.55-3.3 16.6-9.1 12.7-9.1 18.85-18.95 6.3-10.1 5.95-21.4 6.1-7.85 9.75-14.75 2.95 34.85-24.95 58.85-20.5 12.35-54.1 16.8 4.7 2.05 15.45.7l6.6-1.05q-1.9.85-.65 1.9 1.35 1.15 5.35 1.15 23.55 0 44.6-13.85 9.15-6.05 15.35-13.4 6.2-7.3 7.95-14.15l.25-.25q8.95-9.5 15.6-20.55 2.2 17.95-10.4 38.85-13.4 22.2-36.1 34.15-32.85.35-62.5-9 9.05 5.35 23.25 9l-.05.2-14.45-1q11.3 11.05 25.35 15.85 13.55 4.65 30.15 3.7 15.5-.9 22.95-6.25 6.95-4.95 2.4-9.75 20.5-3.5 38.35-12.65m-242.45 59.4q0 2.5 1.75 4.25t4.25 1.75q2.5 0 4.25-1.75t1.75-4.25q0-2.5-1.75-4.25t-4.25-1.75q-2.5 0-4.25 1.75t-1.75 4.25" fill="#4f83da"/><path d="M118.25 211.95q-14.7 3.05-31.3-.1-44.85-18.2-64.7-51.75 3.95-11.85 21.7-2.05-1.15 39 74.3 53.9" fill="#aafeff"/></g><g id="v"><path d="M94.45 68.75q-7.4 8.3-20.1 8.05-6.5-.1-11.95-1.8-6.2-1.9-11.7-6-9.4-7.05-11.55-17.65-.55-2.55-.55-4.9l.1-2.35q.5-5.7 4.1-10.3-3.05 34.1 45.15 36.75l6.5-1.8m-41.3 91.95 2.3 7.35q4.5 15.75 17.95 23.25 12.6 7.1 26.85 3.9 14.85-3.4 23.45-16.6 9.75-14.95 7.8-38.05-.85-9.9-2.35-15.25-2.3-8.1-7.65-14.25 14-5 30 0 5 .2 8.05-3 3.2-3.4 3.45-10 .35-8.95-6.8-17.8-6.6-8.05-17.65-13.9l1.25.2q21.8 4.25 36.55 19.05l.7.75q11.95 27.6 15.4 49.25 4.1 25.55-2.95 45.95-22.85 3.95-14.4 22.65h-.05q-14.55 13.1-35.6 19.5-21.95 6.65-44.9 4.25-24.05-2.5-43.1-14.4-8.4-5.25-14.35-13 11.25-6.1 13.4-17.75l-4-14.5 6.65-7.6m114.45 33.45q.9-.85.9-2.1t-.9-2.15q-.85-.85-2.1-.85t-2.15.85q-.85.9-.85 2.15t.85 2.1q.9.9 2.15.9t2.1-.9" fill="#4f83da" fill-rule="evenodd"/><path d="M38.6 46.45q0 2.35.55 4.9Q41.3 61.95 50.7 69q5.5 4.1 11.7 6 5.45 1.7 11.95 1.8 12.7.25 20.1-8.05 23.9-6 44.1-2.4 11.05 5.85 17.65 13.9 7.15 8.85 6.8 17.8-.25 6.6-3.45 10-3.05 3.2-8.05 3-16-5-30 0 5.35 6.15 7.65 14.25 1.5 5.35 2.35 15.25 1.95 23.1-7.8 38.05-8.6 13.2-23.45 16.6-14.25 3.2-26.85-3.9-13.45-7.5-17.95-23.25l-2.3-7.35 5.1-5.95q-1.75-4.6-4.3-8.4 9.15-1.35 15.55-6.6 7.75-6.4 9.55-17.05 1.9-11.35-3.55-25.4-2.25-5.85-8.85-10.55-3.05-2.15-15.95-9.2-8.8-4.8-12.1-15.1-3.05-9.3 0-16M95 103q1.25-1.25 1.25-3T95 97q-1.25-1.25-3-1.25T89 97q-1.25 1.25-1.25 3t1.25 3q1.25 1.25 3 1.25t3-1.25" fill="#63e8ea" fill-rule="evenodd"/><path d="m185.9 88.55 2.3 3.3q4.45 6.85 7.6 15.1 4.15 10.85 5.75 23.5l.3 2.65.1.9q.8 8.4.55 17.55-.65 24.05-13.5 43.2-12.4 18.4-33.5 28.6-18.25 8.8-39.5 9.8l-5.15.15-2.2-.05h-.15l-11.55-.75-2.1-.25q-19.95-2.65-39.7-11.9-16.6-7.75-25.8-23.3l-.1-.2q2.4 2.95 5.25 4.95l2.6-1.25q5.95 7.75 14.35 13 19.05 11.9 43.1 14.4 22.95 2.4 44.9-4.25 21.05-6.4 35.6-19.5h.05l1.5-1.45q16-15.2 19.9-35.7 3.5-18.2 1.4-34.8-.7-5.6-2.05-11-5.15-20.85-18.8-34.9l-.7-.75Q161.6 70.8 139.8 66.55l-1.25-.2q-20.2-3.6-44.1 2.4l-6.5 1.8Q39.75 67.9 42.8 33.8l.65-4.75q-7.5 8.6-10 18.15-2.4 9.05.15 17.35 2.5 8.25 9.3 14 7.1 6 17.55 8-16 10.2-25.8 28-4.85 8.8-7.5 18.35l-3.85-.4 2.05-6.85Q32 106.1 45 90.05 5.2 49.2 49 22q-4.1 13.75-1.8 23.15 1.25 5.25 4.5 9.1 10.1 12 39.3 10.8 25.9-6.85 47.4-3.85 20.7 2.95 35.5 14.8 6.8 5.45 12 12.55M19.8 163.6l2.45 3.7.95-1 1.55 6-1.45 11.2q-2.95-9.25-3.5-19.9" fill="#355890" fill-rule="evenodd"/><path d="M42.8 33.8q-3.6 4.6-4.1 10.3l-.1 2.35q-3.05 6.7 0 16 3.3 10.3 12.1 15.1 12.9 7.05 15.95 9.2 6.6 4.7 8.85 10.55 5.45 14.05 3.55 25.4-1.8 10.65-9.55 17.05-6.4 5.25-15.55 6.6-3.4-5.15-8.2-8.85-8.85-3.35-18.6-4.6 2.65-9.55 7.5-18.35 9.8-17.8 25.8-28-10.45-2-17.55-8-6.8-5.75-9.3-14-2.55-8.3-.15-17.35 2.5-9.55 10-18.15l-.65 4.75M95 103q-1.25 1.25-3 1.25T89 103q-1.25-1.25-1.25-3T89 97q1.25-1.25 3-1.25T95 97q1.25 1.25 1.25 3T95 103" fill="#aafeff" fill-rule="evenodd"/><path d="M44.1 140.3q3.6 2.95 6.4 6.4 3.05 3.7 5.1 7.95l-3.25 3.95-8.1 9.7-2.45-2.25 11.3-12.4-9-13.35m-1.45 30.65 1.95-1.05 2.75 12.75q-3.6 12.25-12.3 15.05l-.45.1-.6-.7.45-.3.05-.05q8.3-5.5 9.9-12.8L42.8 172l-.15-1.05m134.4-84.6q13.65 14.05 18.8 34.9 1.35 5.4 2.05 11 2.1 16.6-1.4 34.8-3.9 20.5-19.9 35.7l-1.5 1.45q-8.45-18.7 14.4-22.65 7.05-20.4 2.95-45.95-3.45-21.65-15.4-49.25m-9.45 107.8q-.85.9-2.1.9t-2.15-.9q-.85-.85-.85-2.1t.85-2.15q.9-.85 2.15-.85t2.1.85q.9.9.9 2.15t-.9 2.1" fill="#a5fff9" fill-rule="evenodd"/><path d="m207.3 160.1-2.3 1.2 1.65.65.35 5.6q17.3 5.25 15.25 21-3.95 17.85-31.7 10.95l-2.45 4q-3.5 4.85-8.35 7.65 10.05 11.5 13.4 21.4 4.2 12.45-3.15 20.3-7.6 8.15-16.75 3.05-9.2-5.1-22-24.85l-7.85 2.5-4.15 1.25q.7 4.95.75 9.05-1.65 4.65-5.2 6.45-3.35 1.7-7.25.4-4-1.3-7.05-5.2-2.95-3.75-4.5-12.3v-.05q21.25-1 39.5-9.8 21.1-10.2 33.5-28.6 12.85-19.15 13.5-43.2.25-9.15-.55-17.55 10.4-.8 15.65 1 8.4 10.2-10.3 18.5v6.6m-98.8 73.15q-.55 2.6-.75 5.55-.2 3.3 0 5.65-6.25 2.4-12.45-3.05.7-5.1 1.65-8.9l11.55.75" fill="#f5d268" fill-rule="evenodd"/><path d="M218.85 151.85q-4.65 4.55-11.55 8.25v-6.6q18.7-8.3 10.3-18.5 10.3 3.5 1.25 16.85m-40.05 114q-16.95-2.7-39.55-31.05l4.15-1.25q3.35 5.45 7.75 10.8 6.35 7.75 12.6 12.25 3.3 2.35 7.85 4.5 6.5 3 11.9 3.5l-4.7 1.25m-50.2-1.95q-6.55-.9-11.55-7.4-3.15-4.1-4.8-10.35-1.6-6.15-1.4-12.85l5.15-.15v.05q-.75 6.05.6 11.6 1.45 5.8 4.75 9.35 6.7 7.1 15.25 4.05-2.85 4.2-8 5.7m59.5-60.4 2.45-4q27.75 6.9 31.7-10.95 2.05-15.75-15.25-21l-.35-5.6q16.7 6.35 23.3 15.4 1.75 7.4 1.7 10.95-.05 6.2-3.9 10.55-2.55 2.8-5.15 4.15-4.6 2.45-13.25 3.55L199 206.2q-4.45-.75-10.9-2.7" fill="#fff" fill-rule="evenodd"/><path d="m201.95 134-.1-.9q9.95-3.75 16.5-2.75 6.75 1.05 7.65 6.45.9 5.35-4.35 11.9l-2.8 3.15q9.05-13.35-1.25-16.85-5.25-1.8-15.65-1m3.05 27.3q18.05 2.5 26.5 10.45 8.65 8.15 6.25 21.3-1.55 8.45-8.1 12.9 9.1-16.65.3-28.6-6.6-9.05-23.3-15.4l-1.65-.65m-17.85 45.1q28.15 36.45 8.85 54.45-7.7 6.5-17.2 5l4.7-1.25q30.85-10.25 3.65-58.2m-47.9 28.4q5.15 13.8 1.65 22.05-3.05 7.3-10.6 7.15l-1.7-.1q5.15-1.5 8-5.7 3.4-5.15 3.4-14.35-.05-4.1-.75-9.05m-30.2 15.55 1.2 2.5q-11.7 6.35-14.55-.1 6.7 3.75 13.35-2.4" fill="#a1faf8" fill-rule="evenodd"/><path d="m201.85 133.1-.3-2.65q8.8-4.2 15.4-4.05 8.35.2 11.3 7.35 3.1 7.45-1.4 15.1-4.35 7.3-12.85 10.45 13.75 3.1 21.5 11.65 8.85 9.7 5.75 22.85-3.4 14.1-17.05 18.6-12.35 4.05-30.45-.35Q207 228.1 207 242.9q-.05 14.85-13.5 23.45-20.3 13-48.25-17.75 1.2 7.25-1.9 12.4-2.85 4.85-8.4 6.25-5.65 1.5-11.7-1.2-6.65-2.9-11.75-10-6.1 3.75-10.7 3.65-4.4-.15-6.75-3.65-5.05-7.55.8-23.8l2.1.25q-.95 3.8-1.65 8.9-1.2 7.7.4 11.35 2.85 6.45 14.55.1l-1.2-2.5q-1.05-2.7-1.3-5.9-.2-2.35 0-5.65.2-2.95.75-5.55h.15l2.2.05q-.2 6.7 1.4 12.85 1.65 6.25 4.8 10.35 5 6.5 11.55 7.4l1.7.1q7.55.15 10.6-7.15 3.5-8.25-1.65-22.05 22.6 28.35 39.55 31.05 9.5 1.5 17.2-5 19.3-18-8.85-54.45 20.9 6.7 34.7 3 4.5-1.25 7.8-3.45 6.55-4.45 8.1-12.9 2.4-13.15-6.25-21.3-8.45-7.95-26.5-10.45l2.3-1.2q6.9-3.7 11.55-8.25l2.8-3.15q5.25-6.55 4.35-11.9-.9-5.4-7.65-6.45-6.55-1-16.5 2.75" fill="#be731e" fill-rule="evenodd"/><path d="M229.65 205.95q-3.3 2.2-7.8 3.45-13.8 3.7-34.7-3 27.2 47.95-3.65 58.2-5.4-.5-11.9-3.5-4.55-2.15-7.85-4.5-6.25-4.5-12.6-12.25-4.4-5.35-7.75-10.8l7.85-2.5q12.8 19.75 22 24.85 9.15 5.1 16.75-3.05 7.35-7.85 3.15-20.3-3.35-9.9-13.4-21.4 4.85-2.8 8.35-7.65 6.45 1.95 10.9 2.7l10.35.35q8.65-1.1 13.25-3.55 2.6-1.35 5.15-4.15 3.85-4.35 3.9-10.55.05-3.55-1.7-10.95 8.8 11.95-.3 28.6m-121.9 38.5q.25 3.2 1.3 5.9-6.65 6.15-13.35 2.4-1.6-3.65-.4-11.35 6.2 5.45 12.45 3.05M116 233.2q1.55 8.55 4.5 12.3 3.05 3.9 7.05 5.2 3.9 1.3 7.25-.4 3.55-1.8 5.2-6.45 0 9.2-3.4 14.35-8.55 3.05-15.25-4.05-3.3-3.55-4.75-9.35-1.35-5.55-.6-11.6" fill="#fff0c1" fill-rule="evenodd"/><path d="M106.05 28q-2.05-2.6-4.35-4.6-4.05-3.55-8.8-5.45-8.9-3.6-17.8-.55-9.1 3.15-15.25 12.3-4.6 6.8-6.7 15.8v.05q-1 4.1-1.45 8.7-3.25-3.85-4.5-9.1 2.65-23.7 21-31.5 8.55-3.65 18.9-2.6Q97.8 12.1 108.75 18q7-9.8 18.4-14.55Q137.9-1 149.25.3q11.55 1.35 19.5 8.2 8.6 7.45 10.5 19.5 12.55 3.25 20.85 10.85 8 7.35 9.85 16.75 1.95 9.7-3.25 18.95-5.6 9.95-18.5 17.3l-2.3-3.3 6.4-4.85q5.8-5.05 8.95-10.65 4.45-8 2.75-15.5-.4-1.85-1.15-3.55-2.4-5.25-8.05-9.25-5.9-4.2-14.55-6.3l-6-1.2q.35-13.95-7.8-22.5L164.6 13q-7-6.15-17.4-6.9-11.7-.9-22.05 5.5-9.55 5.9-14.65 16.2-.95 1.9-1.75 3.95l-2.7-3.75" fill="#a50505" fill-rule="evenodd"/><path d="m106.05 28 2.7 3.75q.8-2.05 1.75-3.95 2.05 5 4.95 8.95 4.55 6.25 11.1 9.8 9.75 5.3 19.5 2.7 9.9-2.6 13.8-11.75 4.4-10.2-1.1-24.5h5.85l1.85 1.75q8.15 8.55 7.8 22.5l6 1.2q-5.4 7.5-5.9 15-1 15.1 17.95 30.25l-6.4 4.85q-5.2-7.1-12-12.55-14.8-11.85-35.5-14.8-21.5-3-47.4 3.85-29.2 1.2-39.3-10.8.45-4.6 1.45-8.7 7.05 8.55 16.9 11.9 9.25 3.1 18 .6 8.9-2.6 13.8-10.05 5.35-8.15 4.2-20" fill="#b0165c" fill-rule="evenodd"/><path d="M101.7 23.4q2.3 2 4.35 4.6 1.15 11.85-4.2 20-4.9 7.45-13.8 10.05-8.75 2.5-18-.6-9.85-3.35-16.9-11.9v-.05L62 35.25q2.7 6.8 9.15 9.6 6 2.6 12.4.8 6.55-1.9 9.75-7.5 3.65-6.3 1.45-15.15l6.95.4M202.85 54q.75 1.7 1.15 3.55 1.7 7.5-2.75 15.5-3.15 5.6-8.95 10.65-18.95-15.15-17.95-30.25 15.95 25.05 28.5.55m-44.1-41q5.5 14.3 1.1 24.5-3.9 9.15-13.8 11.75-9.75 2.6-19.5-2.7-6.55-3.55-11.1-9.8 16.05 8.75 26.25 1.15 10.05-7.6 6.3-25.15l10.75.25m-6 15.9q-1.3 0-2.2.9-.9.9-.9 2.2 0 1.3.9 2.2.9.9 2.2.9 1.3 0 2.2-.9.9-.9.9-2.2 0-1.3-.9-2.2-.9-.9-2.2-.9" fill="#e71150" fill-rule="evenodd"/><path d="M110.5 27.8q5.1-10.3 14.65-16.2 10.35-6.4 22.05-5.5 10.4.75 17.4 6.9h-5.85L148 12.75q3.75 17.55-6.3 25.15-10.2 7.6-26.25-1.15-2.9-3.95-4.95-8.95m69.75 10.65q8.65 2.1 14.55 6.3 5.65 4 8.05 9.25-12.55 24.5-28.5-.55.5-7.5 5.9-15M53.15 45.5q2.1-9 6.7-15.8Q66 20.55 75.1 17.4q8.9-3.05 17.8.55 4.75 1.9 8.8 5.45l-6.95-.4q2.2 8.85-1.45 15.15-3.2 5.6-9.75 7.5-6.4 1.8-12.4-.8-6.45-2.8-9.15-9.6L53.15 45.5m99.6-16.6q1.3 0 2.2.9.9.9.9 2.2 0 1.3-.9 2.2-.9.9-2.2.9-1.3 0-2.2-.9-.9-.9-.9-2.2 0-1.3.9-2.2.9-.9 2.2-.9" fill="#ff3c76" fill-rule="evenodd"/><path d="m21.25 161.05-1.55-3.15q-6.9-13.4-17-23.35l4.45-.2 8.45 10.7 5.05.35 3.8.5q5.9.9 11.3 2.85l.8.3q6.3 2.35 11.8 6.1-9.4-3.85-19.2-5.5l-5-.7-3.9-.4h-.05l.05.1 4.35 8.9-3.35 3.5M27 188.8l-1.9-2.25.6-10.75 3.65 9 5.75-10 7.55-3.85.15 1.05-2.2 5.55 3.8 6.4-5.55-3.75q-2.95 7.95-8.45 8.75h-.2l-3.2-.15" fill="#ffeeb7" fill-rule="evenodd"/><path d="M53.95 146.35q2.55 3.8 4.3 8.4l-5.1 5.95-6.65 7.6 4 14.5q-2.15 11.65-13.4 17.75l-2.6 1.25q-2.85-2-5.25-4.95Q25.6 192.4 23 185.8l.3-2.3 1.45-11.2-1.55-6-.95 1-2.45-3.7L0 133.25l23.3-.75 3.85.4q9.75 1.25 18.6 4.6 4.8 3.7 8.2 8.85m-46.8-12-4.45.2q10.1 9.95 17 23.35l1.55 3.15 1.45 3.25 5.4-5q7.85 1.85 13.7 6.75l2.45 2.25 8.1-9.7 3.25-3.95q-2.05-4.25-5.1-7.95-2.8-3.45-6.4-6.4-8.55-3.15-17.45-4.65l-.25-.05-3.75-.55-15.5-.7m20.8 28.2-3.5 2.85q4.25 5.05 4.9 13.5l3.75-5.85 7.75-4.15-12.9-6.35M34 197.1l.6.7.45-.1q8.7-2.8 12.3-15.05L44.6 169.9l-1.95 1.05-7.55 3.85-5.75 10-3.65-9-.6 10.75 1.9 2.25 7 8.3" fill="#612803" fill-rule="evenodd"/><path d="m21.25 161.05 3.35-3.5-4.35-8.9-.05-.1h.05l3.9.4 5 .7q9.8 1.65 19.2 5.5-5.5-3.75-11.8-6.1l-.8-.3-2.8-4-6.3-9.1q8.9 1.5 17.45 4.65l9 13.35-11.3 12.4q-5.85-4.9-13.7-6.75l-5.4 5-1.45-3.25M42.8 172l1.6 11.95q-1.6 7.3-9.9 12.8l-4.1-7.8q5.5-.8 8.45-8.75l5.55 3.75-3.8-6.4 2.2-5.55" fill="#fe972a" fill-rule="evenodd"/><path d="m27.95 162.55 12.9 6.35-7.75 4.15-3.75 5.85q-.65-8.45-4.9-13.5l3.5-2.85" fill="#010103" fill-rule="evenodd"/><path d="M35.75 148.75q-5.4-1.95-11.3-2.85l-3.8-.5-5.05-.35-8.45-10.7 15.5.7 3.75.55.25.05 6.3 9.1 2.8 4M34 197.1l-7-8.3 3.2.15h.2l4.1 7.8-.05.05-.45.3" fill="#fdda61" fill-rule="evenodd"/><path d="m27.95 162.55 12.9 6.35-7.75 4.15-3.75 5.85q-.65-8.45-4.9-13.5l3.5-2.85z" fill="none" stroke="#000" stroke-linecap="round" stroke-linejoin="round"/><path d="m100.55 121.55-.35.4q-7.1 9.15-8.45 20.55-5.05-16 3.4-27.4 6.25-8.4 22.1-16.2 3.2-1.55 13.15-6.05 7.85-3.55 11.9-5.8 11.85-6.6 12.35-14.05 7.5 11.2-1.15 27h6.25q.1 4.35-3.3 7.7-3.25 3.2-9.35 5.2-4.7-6.25-13.55-7.1-5.1-.5-10.45.9l-2.2.65q-2.4.75-4.85 1.9-5.8 2.7-10.4 6.9-2.8 2.45-5.1 5.4m-6.75 2.85q-.9 2.55-1.3 5.35 5.45-10.4 13.9-17.55 7.7-6.45 16.4-9.05 8.3-2.45 14.95-.65 6.8 1.85 9.6 7.65 8.8-1.75 9.75-7.85-2.4.75-4.85-.9l-5.9 2.15q5.45-5.3 7.75-12.35 2.2-6.7 1.05-13.2-3.8 7.55-12.9 12.45-4.65 2.5-22.4 9.2-21 9.3-26.05 24.75" fill="#a50505" fill-rule="evenodd"/><path d="M123.1 106.7q10.25 4.15 16.45 15.75 6.4 11.95 7.8 25.7 1.3 12.85-3.05 25-4.15 11.7-13.3 14.65-9.2 2.95-17.7-2.35-8.05-5.1-12.9-15.9-5-11.1-4.8-24.3.15-12.35 4.95-23.7 2.3-2.95 5.1-5.4-3.35 7.75-5 15.15-1.8 8.2-1.55 15.9l.2 3.25q.95 10.7 6.15 19.5l1.8 2.85 5.15.3q7.45-.2 12.75-4.05l.85-.7.9-.75q2.65-2.4 4.45-5.65l1.25-2.65q1.25-3.05 1.85-6.75l.65-4.5.3-6.25q-.05-6.35-1.65-11.85l-.95-3q-3.95-11.35-11.9-19.6l2.2-.65m-13.6 70.1q3.3 5.7 8.5 7.85 6.25 2.6 13.5-.85 13.95-6.6 13.35-29.75-.35-12.3-3.95-22.35-3.5-9.65-9.4-15.95 8.6 13.75 8.25 34.8.3 10.75-7.4 19.05-8.95 9.6-22.85 7.2" fill="#612803" fill-rule="evenodd"/><path d="M105.65 116.15q4.6-4.2 10.4-6.9 2.45-1.15 4.85-1.9 7.95 8.25 11.9 19.6.2 11.75-3.15 20-3.1-.45-3.6 2.05-.5 2.25.8 3.3l-1.45 1.95-3.5 3.35-1.15.75-.8.4q-4.7 2.45-9.45 1.25l-1.75-.55q-5.85-2.25-9.45-9 9.25-1.55 10.05-9.65.45-4.5-2.15-7.1-2.45-2.5-6.55-2.4 1.65-7.4 5-15.15" fill="#020206" fill-rule="evenodd"/><path d="M155.15 78q1.15 6.5-1.05 13.2-2.3 7.05-7.75 12.35l5.9-2.15q2.45 1.65 4.85.9-.95 6.1-9.75 7.85-2.8-5.8-9.6-7.65-6.65-1.8-14.95.65-8.7 2.6-16.4 9.05-8.45 7.15-13.9 17.55.4-2.8 1.3-5.35 10.2-22.6 48.8-27.1 4.65-1.65 8.4-7.95 3.35-5.65 4.15-11.35" fill="#b0165c" fill-rule="evenodd"/><path d="M155.15 78q-.8 5.7-4.15 11.35-3.75 6.3-8.4 7.95-38.6 4.5-48.8 27.1 5.05-15.45 26.05-24.75 17.75-6.7 22.4-9.2 9.1-4.9 12.9-12.45" fill="#e71150" fill-rule="evenodd"/><path d="m129.65 146.95 4.65.95.8.15-.65 4.5q-.6 3.7-1.85 6.75l-2.25-2.75-3.5-4.25q-1.3-1.05-.8-3.3.5-2.5 3.6-2.05m-29-15.65q4.1-.1 6.55 2.4 2.6 2.6 2.15 7.1-.8 8.1-10.05 9.65l-.2-3.25q-.25-7.7 1.55-15.9m8.85 45.5q13.9 2.4 22.85-7.2 7.7-8.3 7.4-19.05.35-21.05-8.25-34.8 5.9 6.3 9.4 15.95 3.6 10.05 3.95 22.35.6 23.15-13.35 29.75-7.25 3.45-13.5.85-5.2-2.15-8.5-7.85" fill="#fff" fill-rule="evenodd"/><path d="m134.3 147.9-4.65-.95q3.35-8.25 3.15-20l.95 3q1.6 5.5 1.65 11.85l-1.1 6.1m-7.45 4.4 3.5 4.25-1.5 2.15-3.45-4.45 1.45-1.95m-27.55-1.85q3.6 6.75 9.45 9l1.75.55 1.35 9.15-6.4.8q-5.2-8.8-6.15-19.5" fill="#784a34" fill-rule="evenodd"/><path d="m130.35 156.55 2.25 2.75-1.25 2.65-2.5-3.25 1.5-2.15m4.75-8.5-.8-.15 1.1-6.1-.3 6.25M110.5 160q4.75 1.2 9.45-1.25l.8-.4 2.4 5.85 1.5-1.15 2.25 4.55-.9.75-.85.7-2-4.85q-4.9 3.6-11.3 4.95L110.5 160m11.4-2.4 3.5-3.35 3.45 4.45q-1.95 2.45-4.2 4.35l-2.75-5.45m-10.05 11.55.55 3.95-5.15-.3-1.8-2.85 6.4-.8" fill="#ffb957" fill-rule="evenodd"/><path d="m120.75 158.35 1.15-.75 2.75 5.45q2.25-1.9 4.2-4.35l2.5 3.25q-1.8 3.25-4.45 5.65l-2.25-4.55-1.5 1.15-2.4-5.85m-8.35 14.75-.55-3.95q6.4-1.35 11.3-4.95l2 4.85q-5.3 3.85-12.75 4.05" fill="#fff871" fill-rule="evenodd"/></g><g id="w" fill-rule="evenodd"><path d="M117.5 131.5q31.2 7.6 55.9-2.25 22.15-8.8 34.75-29.75l3.1-5.45q8.9-17.7 8.75-38.55-.25-24.7-13.35-44.9-1.45 15.25-7.55 26.6-5.9 10.95-18.65 22.9-10.2 9.55-21.1 14.25-3.2 1.45-6.9 2.7-9.7 3.1-22.95 4.85l-6.15.95q-43.45 6.95-74.7 30.6l-1.3 1.05q-7.5 5.7-13.55 11.95-19.45 19.8-25 44.35-4 17.85-1.3 31.9 2.35 12.75 9.45 18.55 7 5.65 15.35 1.9 8.95-3.95 16.15-17.85-2.45-1.1-4.35-3.15-4.9-4.95-6.4-15.05l.75.15q8.25 12.15 21.8 19.3 13.6 7.2 29.2 7.6 15.65.4 28.9-6.25 14.15-7.05 22.1-20.65l-2.7.05q-1.6-.05-2.25.7-35.95 4.4-41.2-24.35 4.8 13.75 19.7 18.65 14 4.6 30.4-.35 10.15-3.05 18.2-8.8 5.3-3.95 9.7-9.05 12.15-14.4 12.15-34.1-13.6 7.35-30.8 8.7-20.75 1.65-36.15-7.2m66.3-82.95Q200.6 25.8 202.05 0q27.75 31.55 23.8 67.15Q222 101.7 189.75 129q3.35 42.5-45.3 58.5-2.5 11.3-11.65 19.65-8.8 7.95-21.85 11.65-13.3 3.75-27.95 2.25-15.5-1.5-29.75-8.7-9.7 13.45-21.7 16.9-11.3 3.25-20.1-3.2-8.95-6.7-10.95-20.6-2.25-15.45 5.35-35.2 7.3-38.3 43.55-63 35.85-24.5 94.05-31.85 22.65-2.9 40.35-26.85" fill="#355890"/><path d="m211.25 94.05-3.1 5.45q-12.6 20.95-34.75 29.75-24.7 9.85-55.9 2.25l29.35-13.95q22.65 7.9 52.15-13.6 5.95-4.35 12.25-9.9m-48.65 79.1q-8.05 5.75-18.2 8.8-16.4 4.95-30.4.35-14.9-4.9-19.7-18.65 5.25 28.75 41.2 24.35-9 10.25-22.25 15.95-11.8 5.05-24.85 5.7-13.3.7-28.5-7.55-8.9-4.75-21.45-14.85l-.9-1.45.15 1.3q1.5 10.1 6.4 15.05-3.4 10.55-8.8 14.65-5.6 4.35-12.55.9 3.3-20.05-11.5-19.95Q6.8 155 33.8 126.45q6.05-6.25 13.55-11.95l1.3-1.05q31.25-23.65 74.7-30.6-42.95 21.55-55.5 46.55-12.95 25.75 9.35 49.35 4 4.3 10.05 6.35 5.35 1.85 13 2.15-7.65-5-9.05-13.65-1.2-7.3 2.15-15.7 8.35 6.35 17.65 10.3 22.75 9.7 51.6 4.95M26.3 202.4q-.25 1.2.4 2.1.7 1 1.85 1.25 1.2.2 2.15-.5.95-.6 1.2-1.8.2-1.2-.45-2.15t-1.85-1.15q-1.15-.25-2.15.4-.95.65-1.15 1.85" fill="#4f83da"/><path d="M184.45 130q0 19.7-12.15 34.1-4.4 5.1-9.7 9.05-28.85 4.75-51.6-4.95 23.3 7.45 43.95-2.35-2.6-18.25 22.2-20.45 5.4-5.65 7.3-15.4m-48.95 58q.65-.75 2.25-.7l2.7-.05q-7.95 13.6-22.1 20.65-13.25 6.65-28.9 6.25-15.6-.4-29.2-7.6-13.55-7.15-21.8-19.3Q51 197.35 59.9 202.1q15.2 8.25 28.5 7.55 13.05-.65 24.85-5.7 13.25-5.7 22.25-15.95m-91.4 14.15q1.9 2.05 4.35 3.15-7.2 13.9-16.15 17.85-8.35 3.75-15.35-1.9-7.1-5.8-9.45-18.55-2.7-14.05 1.3-31.9 5.55-24.55 25-44.35-27 28.55-22.55 71.3 14.8-.1 11.5 19.95 6.95 3.45 12.55-.9 5.4-4.1 8.8-14.65m108.35-125.1q3.7-1.25 6.9-2.7 10.9-4.7 21.1-14.25 12.75-11.95 18.65-22.9 6.1-11.35 7.55-26.6 13.1 20.2 13.35 44.9.15 20.85-8.75 38.55-6.3 5.55-12.25 9.9-17.3 8.45-30 4.9-5.35-1.45-6.8-4.7-1.45-3.45 2.1-7.55 5.7-6.45 2.8-11.15-2.9-4.85-14.65-8.4m-2.2 30.6q-1.4-.25-2.25-1.45-.8-1.2-.5-2.6.25-1.45 1.4-2.25 1.25-.8 2.65-.55 1.45.3 2.25 1.45.8 1.2.55 2.65-.3 1.4-1.45 2.2-1.2.85-2.65.55M26.3 202.4q.2-1.2 1.15-1.85 1-.65 2.15-.4 1.2.2 1.85 1.15.65.95.45 2.15-.25 1.2-1.2 1.8-.95.7-2.15.5-1.15-.25-1.85-1.25-.65-.9-.4-2.1" fill="#9ff7f7"/><path d="M117.5 131.5q15.4 8.85 36.15 7.2 17.2-1.35 30.8-8.7-1.9 9.75-7.3 15.4-24.8 2.2-22.2 20.45-20.65 9.8-43.95 2.35-9.3-3.95-17.65-10.3-3.35 8.4-2.15 15.7 1.4 8.65 9.05 13.65-7.65-.3-13-2.15-6.05-2.05-10.05-6.35-22.3-23.6-9.35-49.35 12.55-25 55.5-46.55l6.15-.95q13.25-1.75 22.95-4.85 11.75 3.55 14.65 8.4 2.9 4.7-2.8 11.15-3.55 4.1-2.1 7.55 1.45 3.25 6.8 4.7 12.7 3.55 30-4.9-29.5 21.5-52.15 13.6L117.5 131.5m32.75-23.85q1.45.3 2.65-.55 1.15-.8 1.45-2.2.25-1.45-.55-2.65-.8-1.15-2.25-1.45-1.4-.25-2.65.55-1.15.8-1.4 2.25-.3 1.4.5 2.6.85 1.2 2.25 1.45" fill="#63e8ea"/></g><g id="x" fill-rule="evenodd"><path d="M1.55 94.6Q.45 93.05.2 90.25L0 85.8q18.4-32.7 93.95-56Q162.8 8.55 253.15 2.2q90.25-6.3 156.7 5.45Q482.6 20.5 496.2 50.7q-.4 6.05-3.2 11.7-7.15-32.4-67.2-46.35Q359.6.7 239.6 10.75q-102.3 8.5-164.05 30.9-38 13.75-57.2 31.45-5.45 5-9.8 10.45-4.65 5.9-7 11.05M480.9 77.05l-1.1 1.35q-.7.8-.85.3-9.75-33.1-73.1-48.65-12.8-3.15-26.8-5.35-40.35-6.45-90.3-5.15l-22.65.95q-81.7 4.7-148.45 26.15Q62.5 64.4 34.05 88.8q-4.15 3.5-9.85 10-4.6 5.25-8.45 10.35-1.45-.7-3.75-2 3.55-5.3 8.95-11.55 6-7 11.05-11.2 26.65-22.2 79.75-39.8 69.2-22.95 153.75-29.25 86.4-6.4 144.9 8.1 65.1 16.2 70.5 53.6" fill="#92b0ad"/><path d="M18.35 73.1q19.2-17.7 57.2-31.45 61.75-22.4 164.05-30.9 120-10.05 186.2 5.3Q485.85 30 493 62.4q-3.85 7.7-12.1 14.65-5.4-37.4-70.5-53.6-58.5-14.5-144.9-8.1-84.55 6.3-153.75 29.25Q58.65 62.2 32 84.4q.9-5.95-3.35-9.15-4-3.05-10.3-2.15m460.6 5.6q-19.8 15.45-62.05 27.3-32.75 9.15-75.75 15.85-40.25 6.25-93.05 10.9-47.6 4.2-91 3.2-42.1-.95-78.55-6.7L55.7 125q-9.8-2.6-15.7-13.75-5.05-9.55-5.95-22.45 28.45-24.4 83.6-42.15Q184.4 25.2 266.1 20.5l22.65-.95 11.85 41.7 69.55-3 8.9-33.55q14 2.2 26.8 5.35 63.35 15.55 73.1 48.65" fill="#b1d6d3"/><path d="M1.55 94.6q2.35-5.15 7-11.05 4.35-5.45 9.8-10.45 6.3-.9 10.3 2.15 4.25 3.2 3.35 9.15-5.05 4.2-11.05 11.2-5.4 6.25-8.95 11.55-3.35-1.9-6.35-6.15l-4.1-6.4M55.7 125q-8.45-1.85-19.4-6.55l-16-7.2-4.55-2.1q3.85-5.1 8.45-10.35 5.7-6.5 9.85-10 .9 12.9 5.95 22.45Q45.9 122.4 55.7 125M379.05 24.7l-8.9 33.55-69.55 3-11.85-41.7q49.95-1.3 90.3 5.15" fill="#ceedea"/></g><g id="y" fill-rule="evenodd"><path d="M140.4 53.4q-8.65-39.85-43.8-46.7-11.25-2.2-24.95-.95Q41.6 8.5 0 27.9l.05-3.6Q132.1-36.15 143.5 53.8l-3.1-.4m-23.9-3.1q-7.9 15.45-31.05 31.15Q66.7 94.15 42.5 104.3l-3-2.05q50.65-22.5 77-51.95" fill="#612803"/><path d="M71.65 5.75q13.7-1.25 24.95.95 35.15 6.85 43.8 46.7l-4.85-.6q-11-42.65-63.9-47.05" fill="#a5fff9"/><path d="M0 27.9Q41.6 8.5 71.65 5.75q52.9 4.4 63.9 47.05l-19.05-2.5q-26.35 29.45-77 51.95Q19.7 88.2 9.65 68.95-.05 50.3 0 27.9" fill="#de8523"/></g><g id="z" fill-rule="evenodd"><path d="m301.55 88.75 5.35 6.45q-6.35-46.15-35.05-69.95-5.1-4.2-10.5-7.5-21.25-12.8-47.95-11.7l-9.4.9q-10.05 1.4-19.4 5.1-13.7 5.4-23.6 14.65l-3.3 3.35q-7.75 8.4-11.45 18.65-4.8 13.15-2.25 27.9 2.65-3.5 5.75-6.6 10.7-10.7 26.6-16.7 20.1-7.55 43.5-5.7 18.05 1.35 34.85 8.1 5.8 2.35 11.45 5.3 20.15 10.55 35.4 27.75m3.4 10.8q-12-18.5-31.85-30.6-10.1-6.15-21.25-10.1-11.75-4.15-24.65-5.75-24.55-3.05-46.2 3.8-22.6 7.15-35.8 23.3l3.2 27.6q24.8-10.6 48.15-11.4 23-.75 41.7 8.1Q252 111 262.1 122.1q3.85 4.25 7.2 9.2 11.7 17.25 15.7 41l.6 3.9q19.8-28 22.4-71.6l-3.05-5.05M0 229.4v-3.6q74.4-7.95 111.5-49.5 17.6-19.7 24.6-45.25t2.95-55Q134.7 44.7 152.5 24.9 172.35 2.9 216 .2q31.35-2.05 55.5 16 23.15 17.3 33.3 47.9 5 15.05 6.1 31.1 1.2 17.35-2.2 35.85-7.05 38.55-32.7 73.15-47.9 64.55-120.4 78.65Q86.15 296.3 0 262.6v-3.2q62.65 22.55 126.8 20.4l1.1-4.15q3.25-13.15 2.9-24.6-.9-28.8-24.55-47-2.6-2-5.45-3.85-15.85 12.45-43.5 20.75Q28.2 229.7 0 229.4m192-35.95-.8-1.4Q174.75 163.5 138 152.2q-13.25 27.25-32.9 43.35 20.55 14.75 27 36.35 5.3 17.9.95 40.5l-1.45 6.6q33.75-5.35 64.8-20l1.4-4.6q9.3-33.6-5.8-60.95m-48.7-42.75q15.2 5.25 27.55 14.55 14.15 10.65 22.8 25.25 6.6 11.25 9.3 23.65.8 3.85 1.25 7.8 1.75 16.15-3 32.35l-.8 2.5q49.45-20.15 81.6-71.8l-.75-7.25q-3.6-28.9-16.35-47.2-9.8-14-24.9-21.8-33.65-17.45-84.5.2-3.3 1.15-6.7 2.45-2.35 20.35-10.8 37.6l5.3 1.7" fill="#612803"/><path d="M261.35 17.75q5.4 3.3 10.5 7.5 28.7 23.8 35.05 69.95l-5.35-6.45q-1.4-37.5-40.2-71m43.6 81.8 3.05 5.05q-2.6 43.6-22.4 71.6l-.6-3.9q17.2-31.3 19.95-72.75M0 259.4V257q63.2 20.95 127.9 18.65l-1.1 4.15Q62.65 281.95 0 259.4m197.8-5-1.4 4.6q-31.05 14.65-64.8 20l1.45-6.6q32.35-3.6 64.75-18m83.45-76.65L282 185q-32.15 51.65-81.6 71.8l.8-2.5q47.05-23.4 80.05-76.55" fill="#a5fff9"/><path d="M251.85 58.85Q263 62.8 273.1 68.95q19.85 12.1 31.85 30.6Q302.2 141 285 172.3q-4-23.75-15.7-41-3.35-4.95-7.2-9.2 2.4-37.65-10.25-63.25M192 193.45q15.1 27.35 5.8 60.95-32.4 14.4-64.75 18 4.35-22.6-.95-40.5 61.75 4.8 59.9-38.45" fill="#7a290d"/><path d="M301.55 88.75Q286.3 71.55 266.15 61q-5.65-2.95-11.45-5.3 3.15-18.75-9.25-31Q232.7 12.1 204 6.95l9.4-.9q26.7-1.1 47.95 11.7 38.8 33.5 40.2 71M149.75 70q-3.1 3.1-5.75 6.6-2.55-14.75 2.25-27.9 3.7-10.25 11.45-18.65Q145.9 55 149.75 70M0 257v-27.6q28.2.3 57.3-8.45 27.65-8.3 43.5-20.75 2.85 1.85 5.45 3.85-7.7 13.05-15.45 13.75 5.35 4.25 8.2 14.1 2.1 7.2 4.2 23.5.45 3.35 4.15 5 3.5 1.55 8.3 1.05 5-.5 9-3.05 4.45-2.85 6.15-7.35.35 11.45-2.9 24.6Q63.2 277.95 0 257m202.95-42.85q79.9-19.3 61.95-83.6 12.75 18.3 16.35 47.2-33 53.15-80.05 76.55 4.75-16.2 3-32.35-.45-3.95-1.25-7.8m-47.45-105.2q-1.7 22.35-12.2 41.75L138 149q8.45-17.25 10.8-37.6 3.4-1.3 6.7-2.45" fill="#de8523"/><path d="M254.7 55.7q-16.8-6.75-34.85-8.1-23.4-1.85-43.5 5.7-15.9 6-26.6 16.7-3.85-15 7.95-39.95l3.3-3.35q9.9-9.25 23.6-14.65 9.35-3.7 19.4-5.1 28.7 5.15 41.45 17.75 12.4 12.25 9.25 31M106.25 204.05q23.65 18.2 24.55 47-1.7 4.5-6.15 7.35-4 2.55-9 3.05-4.8.5-8.3-1.05-3.7-1.65-4.15-5-2.1-16.3-4.2-23.5-2.85-9.85-8.2-14.1 7.75-.7 15.45-13.75m96.7 10.1q-2.7-12.4-9.3-23.65-8.65-14.6-22.8-25.25-12.35-9.3-27.55-14.55 10.5-19.4 12.2-41.75 50.85-17.65 84.5-.2 15.1 7.8 24.9 21.8 17.95 64.3-61.95 83.6" fill="#fdda61"/><path d="M262.1 122.1Q252 111 238.25 104.5q-18.7-8.85-41.7-8.1-23.35.8-48.15 11.4l-3.2-27.6q13.2-16.15 35.8-23.3 21.65-6.85 46.2-3.8 12.9 1.6 24.65 5.75 12.65 25.6 10.25 63.25m-130 109.8q-6.45-21.6-27-36.35 19.65-16.1 32.9-43.35 36.75 11.3 53.2 39.85l.8 1.4q1.85 43.25-59.9 38.45" fill="#b26d4c"/></g><g id="A" fill-rule="evenodd"><path d="m140.7 134.95-2.2 3.05q-20.95-24.55-53.45-28-8.4 6.15-17.05 7.2-8 1-18.95-2.2-11.6 5.95-21.9 4.45-9.45-1.4-16.3-8.8-6.55-7.1-9.25-18.05-2.75-11.15-.8-23.45 4.55-28.65 29.7-47.4Q60.65-.7 111.55 0q25.35.35 42.2 9.95 16.2 9.25 22 25.55l1.4 4.6q-11.9-20.8-39.75-30.25-25.15-8.55-53-4.65l-2.9.45h-.2q-30.85 5.05-51.05 23.3Q7.65 49.35 5.55 81l-.1 5.05q.2 7.7 2.8 13.75 3.1 7.35 9.15 11.2 5.75 3.7 12.7 3.35 7.1-.35 13.45-4.85-6.6-.75-11.35-7.5l-.95-1.45q-5.75-9.35-4.2-23.05Q30.5 94.1 41.3 103q10.25 8.5 23.55 7.25 13.7-1.3 25.5-12.65 13-12.45 20.15-34.1.6 23.35-21.5 41.8 13.9.8 29.7 11.6 7.2 4.9 22 18.05" fill="#683310"/><path d="M140.7 134.95q-14.8-13.15-22-18.05-15.8-10.8-29.7-11.6 22.1-18.45 21.5-41.8-7.15 21.65-20.15 34.1-11.8 11.35-25.5 12.65-13.3 1.25-23.55-7.25-10.8-8.9-14.25-25.5 17.65 18.9 33.2 21.2 13.85 2.05 21.3-9.05 7.3-10.9 4.4-28.05Q82.8 42.95 68.55 26q2.8-10.4 15.85-20.8 27.85-3.9 53 4.65 27.85 9.45 39.75 30.25 3.6 14.55-1.25 32.15-2.45 8.95-16.3 32.65-10.95 18.75-18.9 30.05M32.2 102q4.75 6.75 11.35 7.5-6.35 4.5-13.45 4.85-6.95.35-12.7-3.35-6.05-3.85-9.15-11.2-2.6-6.05-2.8-13.75Q18.85 110 32.2 102" fill="#de8523"/><path d="M27.05 77.5q-1.55 13.7 4.2 23.05l.95 1.45q-13.35 8-26.75-15.95 5.7 6.2 10.85 6.95 5.75.85 5.75-6.5 0-14.85 6.5-32 6.3 22.15 17.1 31.05 11.15 9.25 22.9.45 10.2-7.7 7.4-22-2.65-13.8-15.4-25-2.9-10.55 2.7-19 5.2-7.9 18.1-14.25.05-.1.15-.1l2.9-.45Q71.35 15.6 68.55 26q14.25 16.95 17.4 35.6 2.9 17.15-4.4 28.05-7.45 11.1-21.3 9.05-15.55-2.3-33.2-21.2" fill="#fdda61"/><path d="m5.45 86.05.1-5.05q2.1-31.65 24.7-52.05Q50.45 10.7 81.3 5.65l.05.1Q68.45 12.1 63.25 20q-5.6 8.45-2.7 19 12.75 11.2 15.4 25 2.8 14.3-7.4 22-11.75 8.8-22.9-.45-10.8-8.9-17.1-31.05-6.5 17.15-6.5 32 0 7.35-5.75 6.5-5.15-.75-10.85-6.95" fill="#fff2a2"/></g><g id="B" fill-rule="evenodd"><path d="m337.8 60.2-3.4-.3q-13.3-.7-26.7 3.8-5.05 1.7-10.1 4.1l-2.3 1.15q-18.8 9.65-31.3 27-5.05 7.05-8.7 14.9l-1.8 4.2q-5.7 14-7.25 30.5.55 6.2 7.6 10.9 7 4.7 19.2 7.1 8.75 1.7 18.65 2.1-3.5-3.95-2.45-10.9 1.1-7.65 7.45-16.7 9.3-13.25 23.9-16.1 13.1-2.6 31.6 3.1 10.05 3.1 11.15 11.55.9 7-4.3 16.35 30.15-15.55 33.65-42.4-.9-37.1-25.5-37 .8 2.5 1.2 4.95 3.1 17.9-12.9 33.25 16.9-24.3 6.2-40.7-8.35-9.15-23.9-10.85m-48.9 8.7q1.45-.9 2.95-1.75 1.9-1.1 3.9-2.1-12.7-20.75-28.55-32 20.35 9.1 31.55 30.5 19.75-9.45 38.2-8.2 20.4 1.45 29.75 15.7 13.65-1.15 21.1 8.5 7.65 10 7.4 30-.35 23.95-23.8 39.9-20.25 13.7-51.5 18.15-25.95 3.7-46.6-.45-101.35 50.15-189.05-11l5.5-.25q35.1 21.9 71.85 27.5 51.8 7.8 106.9-17l.5-.2-.7-.2q-23.55-6-24.1-19.45-.5-12.65 4.7-28.05 1.85-5.5 4.45-10.75l2.5-4.65q2-3.55 4.35-6.95 6.95-10.1 16-17.95 5.9-5.15 12.7-9.3M79.3 51q7.45-5.65 16.45-9.95l-7.5 5.2Q65.6 62.95 58.6 83.05 68.95 88.3 77 95q4.7 3.9 8.6 8.3 6.1 6.9 10.3 15 7.75 15.05 8.85 34.25l-2.95 1q-2.55-24.2-14.9-41.6Q74.85 95 55.05 86.8l-1.8-.75q-4.85-1.4-9.35-2.1-10.15-1.65-18.65.1-11.5 2.4-16.85 10.15-5.4 7.75-2.8 18.15.75 3 2.1 6.05 3.7 8.1 12.05 16.15-15-10.55-18.65-22.1-3.3-10.5 3.35-19.15 6.4-8.4 19.6-11.75 13.9-3.6 30.2 0Q63.2 63.15 79.3 51m280.9 88.7q.25-7.15-9.6-11.2-13.4-5.5-26.3-3.65-14.2 2.1-22.6 12.7-6.5 8.2-8 16.9-1.3 7.25 1.05 11.3 19.35.35 42.95-4.2 8.8-2.75 16.2-6.1 6.15-11.05 6.3-15.75" fill="#612803"/><path d="M307.7 63.7q13.4-4.5 26.7-3.8l3.4.3q33.15 8.4 17.7 51.55 16-15.35 12.9-33.25 17.9-2.25 24.3 32.05-3.5 26.85-33.65 42.4 5.2-9.35 4.3-16.35-1.1-8.45-11.15-11.55-18.5-5.7-31.6-3.1-14.6 2.85-23.9 16.1-6.35 9.05-7.45 16.7-1.05 6.95 2.45 10.9-9.9-.4-18.65-2.1-12.2-2.4-19.2-7.1-7.05-4.7-7.6-10.9 1.55-16.5 7.25-30.5 6.6 30.35 39.7 13 9.5-15.2 32-23 8.7-14.45 4.25-26.2Q324.8 66.5 307.7 63.7m-40.5-30.65q14.65 14.1 21.7 35.85-6.8 4.15-12.7 9.3-25.35-20.65-52.5-6.65 18.65 10.65 32.15 31.55l-2.5 4.65q-2.6 5.25-4.45 10.75-14.7-23.35-36-36.55-20.2-12.55-43.45-14.25-22.85-1.7-44.55 7.35-22.25 9.3-39.3 28.25-3.9-4.4-8.6-8.3 7.6-15.85 28.05-31.7l-16.8-17.05 7.5-5.2q-9 4.3-16.45 9.95L98.75 4.05H258.7l8.5 29M89.75 155.9l-5.5.25-8.8-.5Q61.1 154 44.4 147q60.55-12.25 10.65-60.2 19.8 8.2 31.85 25.15 12.35 17.4 14.9 41.6-5.75 1.75-12.05 2.35" fill="#de8523"/><path d="m253.5 115.05 1.8-4.2 1.75 2q6.8 6.8 17.7 5.6 10.85-1.25 19.4-9.8 8.6-8.6 9.85-19.45 1.2-10.9-5.6-17.7-1.45-1.45-3.1-2.55l2.3-1.15q5.05-2.4 10.1-4.1 17.1 2.8 21.75 15.15 4.45 11.75-4.25 26.2-22.5 7.8-32 23-33.1 17.35-39.7-13m67.45-31q0-1.75-1.25-3t-3-1.25q-1.75 0-3 1.25t-1.25 3q0 1.75 1.25 3t3 1.25q1.75 0 3-1.25t1.25-3M276.2 78.2q-9.05 7.85-16 17.95-2.35 3.4-4.35 6.95-13.5-20.9-32.15-31.55 27.15-14 52.5 6.65M88.25 46.25l16.8 17.05Q84.6 79.15 77 95q-8.05-6.7-18.4-11.95 7-20.1 29.65-36.8M43.9 83.95q4.5.7 9.35 2.1l1.8.75q49.9 47.95-10.65 60.2-11.75-4.9-24.65-12.45Q11.4 126.5 7.7 118.4q14.4 9.75 26 11.1 10.65 1.2 16.25-4.8 5.55-5.9 4.2-16.55-1.4-11.3-10.25-24.2" fill="#fdda61"/><path d="M255.3 110.85q3.65-7.85 8.7-14.9 12.5-17.35 31.3-27 1.65 1.1 3.1 2.55 6.8 6.8 5.6 17.7-1.25 10.85-9.85 19.45-8.55 8.55-19.4 9.8-10.9 1.2-17.7-5.6l-1.75-2m65.65-26.8q0 1.75-1.25 3t-3 1.25q-1.75 0-3-1.25t-1.25-3q0-1.75 1.25-3t3-1.25q1.75 0 3 1.25t1.25 3M7.7 118.4q-1.35-3.05-2.1-6.05Q3 101.95 8.4 94.2q5.35-7.75 16.85-10.15 8.5-1.75 18.65-.1 8.85 12.9 10.25 24.2 1.35 10.65-4.2 16.55-5.6 6-16.25 4.8-11.6-1.35-26-11.1" fill="#fff2a2"/><path d="M337.8 60.2q15.55 1.7 23.9 10.85 10.7 16.4-6.2 40.7 15.45-43.15-17.7-51.55m30.6 18.3q-.4-2.45-1.2-4.95 24.6-.1 25.5 37-6.4-34.3-24.3-32.05M267.2 33.05q15.85 11.25 28.55 32-2 1-3.9 2.1-1.5.85-2.95 1.75-7.05-21.75-21.7-35.85" fill="#a5fff9"/><path d="M248.9 118.5q-5.2 15.4-4.7 28.05.55 13.45 24.1 19.45l.2.4q-55.1 24.8-106.9 17 20.95-23.05 8.95-47.1-7.05-14.15-23.7-26.05-5.2-3.7-12.05-4.9l-11.2-.6q-15.2.45-27.7 13.55-4.2-8.1-10.3-15 17.05-18.95 39.3-28.25 21.7-9.05 44.55-7.35 23.25 1.7 43.45 14.25 21.3 13.2 36 36.55" fill="#ede7cf"/><path d="M161.6 183.4q-36.75-5.6-71.85-27.5 6.3-.6 12.05-2.35l2.95-1q-1.1-19.2-8.85-34.25 12.5-13.1 27.7-13.55l11.2.6q6.85 1.2 12.05 4.9 16.65 11.9 23.7 26.05 12 24.05-8.95 47.1" fill="#fff"/><path d="M360.2 139.7q-.15 4.7-6.3 15.75-7.4 3.35-16.2 6.1-23.6 4.55-42.95 4.2-2.35-4.05-1.05-11.3 1.5-8.7 8-16.9 8.4-10.6 22.6-12.7 12.9-1.85 26.3 3.65 9.85 4.05 9.6 11.2" fill="#fff0c1"/><path d="m266 7 3.85.55q-43.65 58.6-114.45 90-14.7-9.4-26.45-21.5-5.45-5.55-10.25-11.7-4.5-5.8-8.5-12.1-3.6-5.7-6.75-11.85-8.7-16.85-14.05-36.85l8.05-.7q2.25 14.6 7.05 27.6 1.6 4.3 3.5 8.5 2.05 4.5 4.4 8.8 4.7 8.5 10.7 16.25 3.75 4.8 8.05 9.35 10.6 11.1 24.25 20.2Q220.2 64.55 266 7" fill="#a50505"/><path d="M266 7q-45.8 57.55-110.6 86.55Q214.85 60.3 262.3 6.5l3.7.5" fill="#a5fff9"/><path d="M108 38.95q-1.9-4.2-3.5-8.5 10.6-1.55 22.2.9l-.2 1.95q0 4.2 2.95 7.15t7.15 2.95q4.2 0 7.15-2.95 2.15-2.15 2.75-4.95 21.3 3.65 38.65 11.3l-4.3 3.55q-2-.65-4.25-.65-5.75 0-9.8 4.05-4.05 4.05-4.05 9.8 0 1.45.25 2.75-9.2 8.6-18.4 14.4l-10.75-12.8q1.1-3.35 1.1-7.15 0-9.25-6.5-15.75t-15.8-6.5l-4.65.45" fill="#e71150"/><path d="M155.4 93.55q-13.65-9.1-24.25-20.2-4.3-4.55-8.05-9.35-6-7.75-10.7-16.25-2.35-4.3-4.4-8.8l4.65-.45q9.3 0 15.8 6.5t6.5 15.75q0 3.8-1.1 7.15l10.75 12.8 10.8 12.85M163 66.3q-.25-1.3-.25-2.75 0-5.75 4.05-9.8 4.05-4.05 9.8-4.05 2.25 0 4.25.65 3.1.95 5.55 3.4 4.05 4.05 4.05 9.8 0 5.75-4.05 9.8-4.05 4.05-9.8 4.05-5.75 0-9.8-4.05-3.05-3.05-3.8-7.05m-16.5-30.8q-.6 2.8-2.75 4.95-2.95 2.95-7.15 2.95t-7.15-2.95q-2.95-2.95-2.95-7.15l.2-1.95q.5-2.95 2.75-5.2 2.95-2.95 7.15-2.95t7.15 2.95q2.95 2.95 2.95 7.15l-.2 2.2m77.2 2.05q0 4.4-3.1 7.5-3.1 3.1-7.5 3.1t-7.5-3.1q-3.1-3.1-3.1-7.5t3.1-7.5q3.1-3.1 7.5-3.1t7.5 3.1q3.1 3.1 3.1 7.5" fill="#ff3c76"/><path d="M104.5 30.45q-4.8-13-7.05-27.6 83.9-7.2 164.85 3.65-47.45 53.8-106.9 87.05L144.6 80.7q9.2-5.8 18.4-14.4.75 4 3.8 7.05 4.05 4.05 9.8 4.05 5.75 0 9.8-4.05 4.05-4.05 4.05-9.8 0-5.75-4.05-9.8-2.45-2.45-5.55-3.4l4.3-3.55q-17.35-7.65-38.65-11.3l.2-2.2q0-4.2-2.95-7.15t-7.15-2.95q-4.2 0-7.15 2.95-2.25 2.25-2.75 5.2-11.6-2.45-22.2-.9m119.2 7.1q0-4.4-3.1-7.5-3.1-3.1-7.5-3.1t-7.5 3.1q-3.1 3.1-3.1 7.5t3.1 7.5q3.1 3.1 7.5 3.1t7.5-3.1q3.1-3.1 3.1-7.5" fill="#b0165c"/></g><g id="C" fill-rule="evenodd"><path d="M100.65 50q-2.15-3.35 2.6-7.15 9.1-7.25 21.4-12.7 11.45-5.15 23.6-7.8 7.55-1.65 9.9.9 2.3 2.55-3.1 5.6-14.95 5.55-24.45 9.75-12.3 5.45-22.35 11.5-5.4 3.25-7.6-.1M56 85.25l1-1q2.75-2.4 5.9-3.75 3.9-1.85 8.5-1.9 8.9-.15 15 6.1 6.15 6.2 5.95 15.05-.25 8.9-6.85 15.35-3.9 3.8-8.7 5.45-3.2 1-6.65 1.1-3.8.05-7.1-1-10.25 2.9 1.45 27.7-15-10.15-18.65-24.45-3.95-15.3 5.9-32.9l.15-.3.45-.85q1.5-2.45 3.65-4.6m63.5 25.15q3.2-5.8 8.6-11 10.85-10.35 24.35-12.3 13.6-1.85 21.8 5.95 8.15 7.8 6.2 20.7-1.85 13-12.75 23.35-10.85 10.4-24.45 12.2-8.1 1.1-14.35-1.3-4.05-1.6-7.3-4.65-8.15-7.8-6.35-20.7 1-6.4 4.25-12.25m-32 43.35q2.1 1.25 3 3.4.8 2.05 0 3.7-.9 1.6-3.1 1.85-2.1.25-4.25-1.05-2.1-1.25-3-3.3l-.35-1.1-.05-.3v-1q.05-.75.4-1.35.95-1.65 3.05-1.9l2.15.15 2.15.9m110-128.4q4.6-4.8 12.25-3.65 7.65 1.1 13.8 7.5 6.15 6.45 7.2 14.45.65 4.8-.75 8.5-.95 2.4-2.75 4.3Q222.6 61.3 215 60.2q-3.8-.6-7.25-2.5-3.4-1.9-6.5-5.1-6.1-6.4-7.25-14.35l-.15-1.3q-.25-3.1.45-5.75.8-3.35 3.2-5.85" fill="#db9b7e"/><path d="M100.65 50q2.2 3.35 7.6.1 10.05-6.05 22.35-11.5 9.5-4.2 24.45-9.75 5.4-3.05 3.1-5.6-2.35-2.55-9.9-.9-12.15 2.65-23.6 7.8-12.3 5.45-21.4 12.7-4.75 3.8-2.6 7.15M81.3 65.3q-5.65.8-10.8 2.05l14.8-1.2q27.05 8.35 27.7 38.1l-1.4 4.55q-3.15 10.8-3.1 20.05.75-9.75 5.1-19.9 2.4-5.6 5.9-11.35 12.95-14.75 32.55-21.1 26-1.2 41 9.65 15.55 11.3 11.9 30.7-3.85 20.75-21.55 35.9-16.1 13.7-40.55 20.55-23.2 6.5-47.45 5.1Q70.8 177 53 167.85q7.5 12.6 28.1 27.1 19.55 13.8 31.9 16.6-7.4-1.2-14.65-3.05-51.05-13.1-63.95-51.55-12.85-38.45 20-79.65 32.9-41.25 92.25-61.1 40-13.4 76.2-11.8l9.75.7q12.45 1.2 24.45 4.3 51.1 13.1 63.95 51.55 4.55 13.55 3.4 27.45-2.6 6.65-5.7 13.1-1.4-15.7-4.35-26.45-3.75-13.7-10.9-23.2-15.1-20.05-45.7-24.75 1.7 25.05-12.05 37.4-12.05 10.85-30.9 8.7-18.3-2.1-31.15-14.7-14-13.7-12.7-32.5 3.45-3.95 7.8-8.4-4.4 3.25-10.2 8.85l-1.8 1.8Q126.7 55.3 81.3 65.3M56 85.25q-2.15 2.15-3.65 4.6l-.45.85-.15.3q-9.85 17.6-5.9 32.9 3.65 14.3 18.65 24.45-11.7-24.8-1.45-27.7 3.3 1.05 7.1 1 3.45-.1 6.65-1.1 4.8-1.65 8.7-5.45 6.6-6.45 6.85-15.35.2-8.85-5.95-15.05-6.1-6.25-15-6.1-4.6.05-8.5 1.9-3.15 1.35-5.9 3.75l-1 1m31.5 68.5-2.15-.9-2.15-.15q-2.1.25-3.05 1.9-.35.6-.4 1.35v1l.05.3.35 1.1q.9 2.05 3 3.3 2.15 1.3 4.25 1.05 2.2-.25 3.1-1.85.8-1.65 0-3.7-.9-2.15-3-3.4m32-43.35q-3.25 5.85-4.25 12.25-1.8 12.9 6.35 20.7 3.25 3.05 7.3 4.65 6.25 2.4 14.35 1.3 13.6-1.8 24.45-12.2 10.9-10.35 12.75-23.35 1.95-12.9-6.2-20.7-8.2-7.8-21.8-5.95-13.5 1.95-24.35 12.3-5.4 5.2-8.6 11M68.75 335.9q-1.2-4-1.5-8.8-.9-14.8 7.45-30.1 9.7-17.7 29.85-31.65 27.8-19.15 69.5-19.25 27.5-.05 53.45 8.3 11.6 17 14.5 36.95 2.85 19.9.8 33.05-2.05 13.15-15.9 13.05-15.5-.05-31.6-19.1-11-12.95-25.45-17.8-12.85-4.3-26.9-1.8-12.8 2.25-23.7 9.5-10.55 7-15.9 16.3-15.45 7.15-23.3-5.95 2.05 21.15 21.7 17l-15 11q-8.25 3.3-17.45-9.1l-.55-1.6m-12.2-105.75-1.65 1.05q-4.3-3.25-4.15-11.85l2.3-.05q-.1 7.75 3.5 10.85M197.5 25.35q-2.4 2.5-3.2 5.85-.7 2.65-.45 5.75l.15 1.3q1.15 7.95 7.25 14.35 3.1 3.2 6.5 5.1 3.45 1.9 7.25 2.5 7.6 1.1 12.25-3.75 1.8-1.9 2.75-4.3 1.4-3.7.75-8.5-1.05-8-7.2-14.45-6.15-6.4-13.8-7.5-7.65-1.15-12.25 3.65M313.85 228.4l-.95 1.9q-5.55-2.2-9.7-12.4 1.05-.55 2.1-1 5.35-2.1 11.1-1.65.25 7.45-2.55 13.15" fill="#b26d4c"/><path d="m85.3 66.15-14.8 1.2q5.15-1.25 10.8-2.05 8.2-1.2 17.5-1.45 17-.45 31.3-6.7 14.65-6.45 27.2-19.3l9.45-9.6 1.8-1.8q5.8-5.6 10.2-8.85-4.35 4.45-7.8 8.4-6.9 7.85-10.15 13.55-5.85 10.35-3.05 18.8 3.4 10.5 19.75 11.5 15.65.95 26.85 4.15 11.85 3.4 20.65 9.85-22.1-12.75-53.5-11.5-10.45 1.15-19.45 4.15-19.6 6.35-32.55 21.1-3.5 5.75-5.9 11.35-4.35 10.15-5.1 19.9-.05-9.25 3.1-20.05l1.4-4.55q1.4-4.2 3.25-8.65 6.35-20.5-14-28.5l-16.95-.95m69.3-10.7q-.65-4.9.2-11.4-9.85 8.4-22.05 14.1-11.2 5.25-25.5 8.7 18.4 8.75 11 29.5Q125 87.1 135.2 81q14.25-8.55 35.35-10.95-9.55-1-13.45-7.2-1.85-3.05-2.5-7.4M113 211.55l8.55 1.15h.05q41.1 4.4 87.2-11 59.35-19.9 92.2-61.1 9.2-11.55 14.85-22.85 7.35-14.85 8.55-29.35 1.15-13.9-3.4-27.45Q308.15 22.5 257.05 9.4q-12-3.1-24.45-4.3l-9.75-.7q-36.2-1.6-76.2 11.8Q87.3 36.05 54.4 77.3q-32.85 41.2-20 79.65 12.9 38.45 63.95 51.55 7.25 1.85 14.65 3.05M4.4 164.25l-.6.35q-1.35 20.55 1.55 38.7 3 18.9 10.45 34 14.15 28.75 43.75 49.25 1.2-24.5 11.9-40.9-12.3 32.85-5.7 70.2l-2.85 1.1-12.15 4.65 1.05.65q1.65 1.35 2.8 4.15l1.95 6.7-6.75 1.45q-1.05.3-2 .7-1.85.8-3.3 2.1 3.4 9.3 8 17.6 18.85 34.05 57.8 51.5 49.75 22.25 120.7 11.9 9.65-1.4 18.85-3.35 48.1-10.3 84.15-35.75 16.6-11.7 29.9-26.05 17.85-19.3 29.85-43.35-8.65 0-14.5-7.5-5.05 3.4-12.05 1.9v-.05q14.7-6.45 22.8-21.1-10.9-5-31.5-6.5-6.5 5.15-14.75 6.75 57.3-66.4 47.5-156.5l-4.8.25q-27.6 1.8-54.85 10-15.7 4.7-31.3 11.55-29.3 32.95-76.25 51.65-6.8 2.7-14 5.1-41.05 13.75-78.3 12.4-14.4-.6-28.2-3.35l-8.4-1.95q-53.1-13.6-66.5-53.6l-.25-.75q-13.2.6-24 6.1m-3.65-1.9q12.4-7.05 26.8-7.15-10.7-38.3 21.9-79.2 34.25-42.85 96-63.55 61.7-20.7 114.8-7.05Q313.4 19 326.8 59q12.6 37.65-16.95 77.85 45.15-16.45 83.6-16.5 18.2 76.75-31.65 152.5l18 1.7q9.3 1.35 16.15 4.8-.45 14.85-13.5 21 4.5 2.55 9.05 3.55l9.05 1.2Q386.7 349.3 340 380.9q-45.6 30.85-109.05 40.95-37.85 6-71.1 2.45-32.05-3.45-57.15-15.45-24.8-11.85-40.45-30.9-15.8-19.2-20.75-43.85 3.85-4.7 9.5-5l-4.25-8 14-7.75Q59.1 300.1 59.5 288.6-6.55 253.1.75 162.35m42.5 55.25q15.75-3.35 24.5 2.25-3.9 10.6-13.75 14.25-5.85-4.65-6.75-14.25l-4-2.25m9.8 1.7-2.3.05q-.15 8.6 4.15 11.85l1.65-1.05q4.75-3.3 7.4-8.7-5.15-2.1-10.9-2.15m260.8 9.1q2.8-5.7 2.55-13.15-5.75-.45-11.1 1.65-1.05.45-2.1 1 4.15 10.2 9.7 12.4l.95-1.9m-18.45-9.7q12.9-10 23.75-6.8 1.6 14.05-5.7 22.2-7.7-3.25-13.2-14.3l-4.85-1.1M210.1 353q5.3 9.1 3.55 17.3-1.65 7.95-9.25 12.7-7.75 4.9-19.2 4.8-12.45-.1-26.2-6.2l-2-1.2-.3-.2q-2.6-1.6-5.35-3.95l-3.15-2.9-4.85-5.15q-2.8 4.1-6.5 6.75l3 4.1.25.4-1.25.95-2.9-4.15q-17.45 11.7-30.4 9.05-13-2.7-13.8-18.2-.45-8.8 2.75-16.05V351q2.9-6.8 9-12.25 11.7-10.5 33.6-14.8l.8 1.35q-6.1 1.3-11.4 3.3-6.65 2.45-12.45 6.3-9.7 6.45-14.85 15.1-5.05 8.5-4.1 16.45.65 5.4 4 9.55 1.9 2.3 4.6 4.2 7.55 5.3 19 .5 9.85-4.1 20.15-14.5 13.55 10.95 25.5 15.75 4.9 1.9 9.5 2.85 16.9 3.45 27.65-7.5 5.15-5.25 4.55-13.1-.65-7.95-7.05-15.9-10.5-12.95-30.15-19.9-9.2-3.25-20.75-5.5l.65-.75q19.85 1.6 34.1 9 14.95 7.75 23.15 21.7l.1.15" fill="#612803"/><path d="M135.2 81q-10.2 6.1-16.95 15.35 7.4-20.75-11-29.5 14.3-3.45 25.5-8.7 12.2-5.7 22.05-14.1-.85 6.5-.2 11.4L133 67.6l2.2 13.4m37.65 247.4q16.35 8.85 24.95 19.55 8 9.9 7.25 18.6-.75 8.65-9.95 12.9-9.9 4.6-26.75 2.5-11.95-4.8-25.5-15.75-10.3 10.4-20.15 14.5-11.45 4.8-19-.5-2.7-1.9-4.6-4.2-2.1-6.75 1.25-14.9 14.45 20.85 43.75 1.7 7.25 7.35 14.5 8.3 8.35-3.6 11.95-8.9 3.5-5.25 1.7-11.1-4.1-13-29.75-21.25 6.1-3.05 9.6-6.95 11.55 2.25 20.75 5.5m-34.95-3.1q1.95 3.15 4.6 4.55-4.05-1.25-8.2-1.55l-7.8.3q5.3-2 11.4-3.3" fill="#f0dca0"/><path d="m85.3 66.15 16.95.95q20.35 8 14 28.5-1.85 4.45-3.25 8.65-.65-29.75-27.7-38.1m66.75 10.35q9-3 19.45-4.15 31.4-1.25 53.5 11.5-8.8-6.45-20.65-9.85-11.2-3.2-26.85-4.15-16.35-1-19.75-11.5-2.8-8.45 3.05-18.8 3.25-5.7 10.15-13.55-1.3 18.8 12.7 32.5 12.85 12.6 31.15 14.7 18.85 2.15 30.9-8.7 13.75-12.35 12.05-37.4 30.6 4.7 45.7 24.75 7.15 9.5 10.9 23.2 2.95 10.75 4.35 26.45-8.7 17.8-21.75 34-18.6 23.1-43.7 40.05-56.8 38.3-131.65 37.15h-.05l-8.55-1.15q-12.35-2.8-31.9-16.6-20.6-14.5-28.1-27.1Q70.8 177 95.4 178.4q24.25 1.4 47.45-5.1 24.45-6.85 40.55-20.55 17.7-15.15 21.55-35.9 3.65-19.4-11.9-30.7-15-10.85-41-9.65m14.7-48.25-9.45 9.6q-12.55 12.85-27.2 19.3-14.3 6.25-31.3 6.7-9.3.25-17.5 1.45 45.4-10 85.45-37.05M227.5 254.4q13.85 4.4 27.25 11.2 26.15 13.25 35.6 33.85l1.85 4.6q7.25 20.55-2.7 39.15l-.45.8q-4.3 7.7-10.95 13.2l-1.85 1.4q-8.15 6-18.05 7.8-11.65 2.15-23.9-1.1l-.1-.05q-13-3.45-24.1-12.25l-.1-.15q-8.2-13.95-23.15-21.7-14.25-7.4-34.1-9l2-3.05q-9.15-6.2-19.25 1l1.6 3.85q-21.9 4.3-33.6 14.8-6.1 5.45-9 12.25-10.6 3.95-18.55-3.3-4.5-4.05-6.65-10.2 9.2 12.4 17.45 9.1l15-11q-19.65 4.15-21.7-17 7.85 13.1 23.3 5.95 5.35-9.3 15.9-16.3 10.9-7.25 23.7-9.5 14.05-2.5 26.9 1.8 14.45 4.85 25.45 17.8 16.1 19.05 31.6 19.1 13.85.1 15.9-13.05 2.05-13.15-.8-33.05-2.9-19.95-14.5-36.95M53.05 219.3q5.75.05 10.9 2.15-2.65 5.4-7.4 8.7-3.6-3.1-3.5-10.85" fill="#7a290d"/><path d="m5.8 169.7-1.4-5.45q10.8-5.5 24-6.1l.25.75q13.4 40 66.5 53.6l8.4 1.95q-11.1 5.4-22.7 18.85-3.65 4.2-6.9 8.7l-2.5 3.65q-10.7 16.4-11.9 40.9-29.6-20.5-43.75-49.25 11.6 13.45 21.15 17.95 8.35 3.95 11.2-.3l.6-1.15.35-1.3q2.55-2.7 3.15-11.4l-9.45-16.5q-5.05-13.5 12.95-16.75Q36.5 178.9 5.8 169.7m37.45 47.9 4 2.25q.9 9.6 6.75 14.25 9.85-3.65 13.75-14.25-8.75-5.6-24.5-2.25m4.55 117.65q10 4.9 20.95.65l.55 1.6q2.15 6.15 6.65 10.2 7.95 7.25 18.55 3.3v.05q-8.35 4.85-20.5 6.4-13.4 1.7-21.5-2.5-4.6-8.3-8-17.6 1.45-1.3 3.3-2.1m242.55-35.8q13.9-13.55 16.5-29.95 2.45-15.6-5.9-28.65-10.05-15.7-27.05-26.15-21.7-13.35-49.85-14.4 46.95-18.7 76.25-51.65 15.6-6.85 31.3-11.55-61.35 36.9-40.6 57l-6 8.75 8 6.25q43.55-26.8 86.25-25 2.75 4.7 1.15 13.8l-2.05 8.1q-10.7 39.3-34.6 77.35 8.25-1.6 14.75-6.75 16.8 1.6 25.45 9.75-6.55 10.75-16.75 17.85l-.05.05h.05q9.9 8.25 19.75 9.1-3.4 9.2-8.9 18.8-43.4 32.75-88.55 11.05 9.95-18.6 2.7-39.15l-1.85-4.6m5.05-80.75 4.85 1.1q5.5 11.05 13.2 14.3 7.3-8.15 5.7-22.2-10.85-3.2-23.75 6.8" fill="#de8523"/><path d="m4.4 164.25 1.4 5.45 6.45 25.65Q37.1 198 26.75 221.6q13.4 10.3 19.15 20.3 3.75 6.55 3.2 10.6l-.35 1.3-.6 1.15q-2.85 4.25-11.2.3-9.55-4.5-21.15-17.95-7.45-15.1-10.45-34-2.9-18.15-1.55-38.7l.6-.35m127.35 53.55q-8.05.7-11.75 4.05 4.55 9.25 2.25 17.75-2.1 7.75-8.95 12.3-6.75 4.55-14.9 3.75-8.8-.8-15.65-7.8-19.2 26.7-17 68-6.6-37.35 5.7-70.2l2.5-3.65q3.25-4.5 6.9-8.7 11.6-13.45 22.7-18.85 13.8 2.75 28.2 3.35m-3.05 15q1.05-1.05 2.55-1.05 1.5 0 2.55 1.05 1.05 1.05 1.05 2.55 0 1.5-1.05 2.55-1.05 1.05-2.55 1.05-1.5 0-2.55-1.05-1.05-1.05-1.05-2.55 0-1.5 1.05-2.55" fill="#fff2a2"/><path d="M49.1 252.5q.55-4.05-3.2-10.6-5.75-10-19.15-20.3 10.35-23.6-14.5-26.25L5.8 169.7q30.7 9.2 49.95 38.15-18 3.25-12.95 16.75l9.45 16.5q-.6 8.7-3.15 11.4m16.65 63.35q-2.2-41.3 17-68 6.85 7 15.65 7.8 8.15.8 14.9-3.75 6.85-4.55 8.95-12.3 2.3-8.5-2.25-17.75 3.7-3.35 11.75-4.05 37.25 1.35 78.3-12.4 7.2-2.4 14-5.1 28.15 1.05 49.85 14.4 17 10.45 27.05 26.15 8.35 13.05 5.9 28.65-2.6 16.4-16.5 29.95-9.45-20.6-35.6-33.85-13.4-6.8-27.25-11.2-25.95-8.35-53.45-8.3-41.7.1-69.5 19.25Q84.4 279.3 74.7 297q-8.35 15.3-7.45 30.1.3 4.8 1.5 8.8-10.95 4.25-20.95-.65.95-.4 2-.7l6.75-1.45-1.95-6.7q-1.15-2.8-2.8-4.15 8.6 3.4 12.75.45 1.65-1.2 1.25-2.8-.4-1.7-2.9-2.95l2.85-1.1m62.95-83.05q-1.05 1.05-1.05 2.55 0 1.5 1.05 2.55 1.05 1.05 2.55 1.05 1.5 0 2.55-1.05 1.05-1.05 1.05-2.55 0-1.5-1.05-2.55-1.05-1.05-2.55-1.05-1.5 0-2.55 1.05m251.7-34.9q1.6-9.1-1.15-13.8-42.7-1.8-86.25 25l-8-6.25 6-8.75q-20.75-20.1 40.6-57 27.25-8.2 54.85-10 2.15 35.9-6.05 70.8" fill="#fdda61"/><path d="M121.6 212.7q74.85 1.15 131.65-37.15 25.1-16.95 43.7-40.05 13.05-16.2 21.75-34 3.1-6.45 5.7-13.1-1.2 14.5-8.55 29.35-5.65 11.3-14.85 22.85-32.85 41.2-92.2 61.1-46.1 15.4-87.2 11m258.8-14.8q8.2-34.9 6.05-70.8l4.8-.25q9.8 90.1-47.5 156.5 23.9-38.05 34.6-77.35l2.05-8.1m-2.35 134.25q5.5-9.6 8.9-18.8-9.85-.85-19.75-9.1 7 1.5 12.05-1.9 5.85 7.5 14.5 7.5-12 24.05-29.85 43.35 8.3-10.75 14.15-21.05M367.2 304.2q10.2-7.1 16.75-17.85-8.65-8.15-25.45-9.75 20.6 1.5 31.5 6.5-8.1 14.65-22.8 21.1m-198.85 77.75q16.85 2.1 26.75-2.5 9.2-4.25 9.95-12.9.75-8.7-7.25-18.6-8.6-10.7-24.95-19.55 19.65 6.95 30.15 19.9 6.4 7.95 7.05 15.9.6 7.85-4.55 13.1-10.75 10.95-27.65 7.5-4.6-.95-9.5-2.85" fill="#a5fff9"/><path d="M154.6 55.45q.65 4.35 2.5 7.4 3.9 6.2 13.45 7.2-21.1 2.4-35.35 10.95L133 67.6l21.6-12.15m-12.1 274.4q25.65 8.25 29.75 21.25 1.8 5.85-1.7 11.1-3.6 5.3-11.95 8.9-7.25-.95-14.5-8.3-29.3 19.15-43.75-1.7 2-6.45 6.6-11.15 6.95 6.4 15.2 6.1 6.35-.25 10.85-3.85 4.75-3.8 6.35-10.55 2-8.45-5.05-13.35 4.15.3 8.2 1.55m18.6 16.6q-1.25 1.25-1.25 3t1.25 3q1.25 1.25 3 1.25t3-1.25q1.25-1.25 1.25-3t-1.25-3q-1.25-1.25-3-1.25t-3 1.25" fill="#fff0c1"/><path d="M289.5 343.2q45.15 21.7 88.55-11.05-5.85 10.3-14.15 21.05-13.3 14.35-29.9 26.05-36.05 25.45-84.15 35.75-71.65 9.65-132.6-14.65 15.15-.5 25.85-10 9.4-.45 15.9-8.75 13.75 6.1 26.2 6.2 11.45.1 19.2-4.8 7.6-4.75 9.25-12.7 1.75-8.2-3.55-17.3 11.1 8.8 24.1 12.25l.05.1-4.15 2.35q-10.05 6.8-8.85 13.7 1.2 6.85 13 9.65 12.15 2.9 27.95.1 15.8-2.8 25.85-9.6 10.35-6.75 9.15-13.6-1.2-6.9-13.3-9.75l-5.8-1q6.65-5.5 10.95-13.2l.45-.8m21.4 32.8q1.85-1.8 1.85-4.4 0-2.6-1.85-4.45-1.8-1.8-4.4-1.8-2.6 0-4.45 1.8-1.8 1.85-1.8 4.45t1.8 4.4q1.85 1.85 4.45 1.85t4.4-1.85" fill="#ede7cf"/><path d="M249.85 415q-9.2 1.95-18.85 3.35-70.95 10.35-120.7-11.9-38.95-17.45-57.8-51.5 8.1 4.2 21.5 2.5 12.15-1.55 20.5-6.4-3.2 7.25-2.75 16.05.8 15.5 13.8 18.2 12.95 2.65 30.4-9.05l2.9 4.15q2.8 4.65 4.25 9.95-10.7 9.5-25.85 10 60.95 24.3 132.6 14.65m61.05-39q-1.8 1.85-4.4 1.85-2.6 0-4.45-1.85-1.8-1.8-1.8-4.4 0-2.6 1.8-4.45 1.85-1.8 4.45-1.8t4.4 1.8q1.85 1.85 1.85 4.45t-1.85 4.4m-32.8-18.8 5.8 1q12.1 2.85 13.3 9.75 1.2 6.85-9.15 13.6-10.05 6.8-25.85 9.6t-27.95-.1q-11.8-2.8-13-9.65-1.2-6.9 8.85-13.7l4.15-2.35.05-.05q12.25 3.25 23.9 1.1 9.9-1.8 18.05-7.8l1.85-1.4m-177.75 3.9Q97 369.25 99.1 376q-3.35-4.15-4-9.55-.95-7.95 4.1-16.45 5.15-8.65 14.85-15.1 5.8-3.85 12.45-6.3l7.8-.3q7.05 4.9 5.05 13.35-1.6 6.75-6.35 10.55-4.5 3.6-10.85 3.85-8.25.3-15.2-6.1-4.6 4.7-6.6 11.15m60.75-14.65q1.25-1.25 3-1.25t3 1.25q1.25 1.25 1.25 3t-1.25 3q-1.25 1.25-3 1.25t-3-1.25q-1.25-1.25-1.25-3t1.25-3" fill="#fff"/><path d="M159 381.6q-6.5 8.3-15.9 8.75-1.45-5.3-4.25-9.95l1.25-.95q2.6 4.05 3.95 8.15l.15.5q7.75-1.15 12.8-7.7l2 1.2m-6.9-58.7q-3.5 3.9-9.6 6.95-2.65-1.4-4.6-4.55l-.8-1.35-1.6-3.85q10.1-7.2 19.25-1l-2 3.05-.65.75m-9.25 4.7.15.05q6.6-3.3 9-7.95-3.8-2.55-7.8-2-3.15.45-6.4 2.75 1.8 5.3 5.05 7.15" fill="#a50505"/><path d="M140.3 319.5q-.35.35-.35.85t.35.85q.35.35.85.35t.85-.35q.35-.35.35-.85t-.35-.85q-.35-.35-.85-.35t-.85.35m3.9-1.8q1.2 4.25-1.35 9.9-3.25-1.85-5.05-7.15 3.25-2.3 6.4-2.75m-4.35 61.35q2.7-3.85 8.35-5.7l3.15 2.9q-5.55 5.6-7.3 11.35-1.35-4.1-3.95-8.15l-.25-.4" fill="#e71150"/><path d="M140.3 319.5q.35-.35.85-.35t.85.35q.35.35.35.85t-.35.85q-.35.35-.85.35t-.85-.35q-.35-.35-.35-.85t.35-.85" fill="#fbdbe4"/><path d="M144.2 317.7q4-.55 7.8 2-2.4 4.65-9 7.95l-.15-.05q2.55-5.65 1.35-9.9m7.15 58.55q2.75 2.35 5.35 3.95l.3.2q-5.05 6.55-12.8 7.7l-.15-.5q1.75-5.75 7.3-11.35" fill="#b0165c"/><path d="M148.2 373.35q-5.65 1.85-8.35 5.7l-3-4.1q3.7-2.65 6.5-6.75l4.85 5.15" fill="#010103"/><path d="M92.35 254q4.2-1 8.95.55 3.65 1.2 6.8 3.8 3 6.35-.8 10.45-3.85 4.3-11.9 2.1-6.9-1.8-7.9-8-.4-2.75.8-5.1 1.25-2.55 4.05-3.8m-12.1 25.45q-1.05.15-1.9-.7-.85-.75-.95-1.95-.15-1.2.5-2.15.65-.9 1.7-1.05 1.1-.1 1.95.65.85.8 1 2 .1 1.2-.55 2.1-.65 1-1.75 1.1m2.15 11.2q1.05.5 1.35 1.65.4 1.25-.15 2.4t-1.7 1.6l-2.15.05q-1-.5-1.35-1.65-.4-1.2.15-2.4.55-1.1 1.75-1.6l2.1-.05m20.75 13.1-.35-.3q-1.3-1.55-1.65-3.35-.25-1.5.3-2.65.55-1.1 1.7-1.5 1.35-.45 3 .35l.4.25q1.75 1 2.85 2.95 1.35 2.7.4 4.75-.95 1.95-3.35 1.45-1.8-.35-3.3-1.95m9.95 8.8q-.65 2.7-1.85 5.1-4.55 10.1-14.7 11.65-11.15 1.65-16.5-7.4l-1.35-2.75q8.35 9.05 17.1 7.35 4.75-.9 9.25-4.25 5.05-3.9 8.05-9.7m78.85-69.7q4.3-4 9.7-6.2 6.95-2.8 13.6-2 4.45 1.3 6.8 4.5 2.25 3 2.05 6.75-.5 8.6-10.7 12.1-11.9 4.05-18.5-1.1-6.45-5-2.95-14.05m56.1 60.1q.8 3.8.85 7.3.3 15.2-12.75 23-14.45 8.6-27.7.6l-3.75-2.6q17.55 6.3 28.6-.95 6.05-3.95 10-10.65 4.5-7.7 4.75-16.7m-59.9-7.7q1.25-1.25 3-1.25t3 1.25q1.25 1.25 1.25 3t-1.25 3q-1.25 1.25-3 1.25t-3-1.25q-1.25-1.25-1.25-3t1.25-3m53.75-32q0 1.65-1.2 2.8-1.15 1.2-2.8 1.2t-2.85-1.2q-1.15-1.15-1.15-2.8t1.15-2.85q1.2-1.15 2.85-1.15 1.65 0 2.8 1.15 1.2 1.2 1.2 2.85m-13.45 34.8q0-.1-.6-.25-2.85-1.15-4.5-3.2-1.4-1.7-1.4-3.45 0-1.7 1.4-2.85 1.65-1.25 4.5-1.2l.6.05q3.15.2 5.9 2 3.7 2.5 3.75 5.5-.05 3-3.75 3.85-2.75.65-5.9-.45" fill="#fff"/><path d="M108.1 258.35q-3.15-2.6-6.8-3.8-4.75-1.55-8.95-.55-1.1.25-2.15.75-5.15 2.15-6.8 7.35-1.8 5.75 1.6 12.95-3.05-3.05-5.9-2.65-2.45.35-3.55 2.95-1.1 2.6.15 5.25 1.4 3.1 5.3 4.5 4-5.6 9.95-7.7 5.35-1.9 11.25-.6 5.7 1.35 10.05 5.3 4.5 4.05 6.1 9.65 2.6-17.3-5.75-28.6-2.05-2.8-4.5-4.8M75.2 272.5q2.15-2 5.7-2.15-2.8-11.35 4.95-16.4 7.15-4.65 17.3-1.15 10.75 3.8 15.65 14.3 5.8 12.5-.05 29.9l-1.65-4.8q.2 20.7-7.85 32.3-8 11.55-19.75 7.35-10.55-3.8-13.7-15.95-3.2-12.6 3.25-28.2-3.4-1.95-5-4.95-1.55-2.75-1.25-5.6.3-2.8 2.4-4.65m7.2 18.15-2.1.05q-1.2.5-1.75 1.6-.55 1.2-.15 2.4.35 1.15 1.35 1.65l2.15-.05q1.15-.45 1.7-1.6.55-1.15.15-2.4-.3-1.15-1.35-1.65m1.95-1.15.65.85q1.05 2 .2 4.85-.6 2.3-2.1 3.5l-.7.45q-2.3 1.25-4.95-.7-1.35 8-.45 14.3l.15.85q.45 2.95 1.55 5.55l1.35 2.75q5.35 9.05 16.5 7.4 10.15-1.55 14.7-11.65 1.2-2.4 1.85-5.1 1.35-4.85 1.8-9.9l.05-.9h.05v-.05h-.05l.1-3.55q-.05-3.55-.65-6.5-.8-4.3-4-7.3-2-1.95-4.85-3.25l-3.3-1.1q-8.3-2.25-13.4.15l-1.7.95q-3.35 2.35-6.4 7.35 2.35-.3 3.6 1.05m107.6-46.65q-3.35 3.05-6.05 7.15-10.8 16.55-4 39.5 1.5-7.8 7.7-13.95 5.95-5.95 14.4-8.6 8.75-2.7 17.3-.9 9.4 1.95 16.4 8.95 5.7-2.45 7.35-6.8 1.45-3.85-.65-7.2-2.05-3.35-5.9-3.45-4.4-.1-8.6 4.45 4.05-10.25.35-17.75-3.4-6.8-11.6-8.95l-3.4-.65q-6.65-.8-13.6 2-5.4 2.2-9.7 6.2m25 25.9-5.3.5q-13.05 2.1-18.55 8.05l-1.7 2.2q-3.15 4.75-4 12.75 3.05-1.75 5.65-.85l1.45.7q2.75 1.85 3.5 5.8.6 3.25-.65 5.55l-.65.95q-2.35 2.95-7.3 2.1 3.4 10.65 8.7 17.8 3 4 6.6 6.95l3.75 2.6q13.25 8 27.7-.6 13.05-7.8 12.75-23-.05-3.5-.85-7.3-1.35-6.7-4.05-13.2l-.45-1.1v-.05l-.05-.05-2.15-4.4-.05-.05q-2.35-4.3-5.15-7.6-4-4.75-10.3-6.6-4.15-1.25-8.9-1.15m-28.8 26.5q-1.25 1.25-1.25 3t1.25 3q1.25 1.25 3 1.25t3-1.25q1.25-1.25 1.25-3t-1.25-3q-1.25-1.25-3-1.25t-3 1.25M183.9 290l-1.75 6.75q-11.75-22.7-5.05-40.5 5.65-14.95 21.5-21.6 14.9-6.3 26.55-1.05 12.65 5.7 10.25 21.4 5.45-.25 9.1 2.1 3.45 2.2 4.4 5.95.95 3.8-.9 7.75-2.05 4.3-6.85 7.45 12.45 20.15 9.65 37.65-2.75 16.9-18.15 23.6-17.25 7.5-31.45-7-14.2-14.45-17.3-42.5" fill="#612803"/><path d="M92.35 254q-2.8 1.25-4.05 3.8-1.2 2.35-.8 5.1 1 6.2 7.9 8 8.05 2.2 11.9-2.1 3.8-4.1.8-10.45 2.45 2 4.5 4.8 8.35 11.3 5.75 28.6-1.6-5.6-6.1-9.65-4.35-3.95-10.05-5.3-5.9-1.3-11.25.6-5.95 2.1-9.95 7.7-3.9-1.4-5.3-4.5-1.25-2.65-.15-5.25t3.55-2.95q2.85-.4 5.9 2.65-3.4-7.2-1.6-12.95 1.65-5.2 6.8-7.35 1.05-.5 2.15-.75m-12.1 25.45q1.1-.1 1.75-1.1.65-.9.55-2.1-.15-1.2-1-2-.85-.75-1.95-.65-1.05.15-1.7 1.05-.65.95-.5 2.15.1 1.2.95 1.95.85.85 1.9.7m135-44.8 3.4.65q8.2 2.15 11.6 8.95 3.7 7.5-.35 17.75 4.2-4.55 8.6-4.45 3.85.1 5.9 3.45 2.1 3.35.65 7.2-1.65 4.35-7.35 6.8-7-7-16.4-8.95-8.55-1.8-17.3.9-8.45 2.65-14.4 8.6-6.2 6.15-7.7 13.95-6.8-22.95 4-39.5 2.7-4.1 6.05-7.15-3.5 9.05 2.95 14.05 6.6 5.15 18.5 1.1 10.2-3.5 10.7-12.1.2-3.75-2.05-6.75-2.35-3.2-6.8-4.5m26.65 28.6q0-1.65-1.2-2.85-1.15-1.15-2.8-1.15t-2.85 1.15q-1.15 1.2-1.15 2.85 0 1.65 1.15 2.8 1.2 1.2 2.85 1.2 1.65 0 2.8-1.2 1.2-1.15 1.2-2.8" fill="#ede7cf"/><path d="M84.35 289.5q.5-3.8 2.8-8.4l1.7-.95q5.1-2.4 13.4-.15l3.3 1.1q4.1 6.65 1 15.45l-.4-.25q-1.65-.8-3-.35-1.15.4-1.7 1.5-.55 1.15-.3 2.65.35 1.8 1.65 3.35l.35.3q-1.6 2.45-3.35 4.1l-2.45 1.55q-3.1 1.5-6.2.65l-.5-.15q-2.75-.95-4.7-3.6-2.3-3-2.85-7.6 1.5-1.2 2.1-3.5.85-2.85-.2-4.85l-.65-.85m107.05-10 1.7-2.2q5.5-5.95 18.55-8.05l5.3-.5q10.05 5.75 11.5 18.4l-.6-.05q-2.85-.05-4.5 1.2-1.4 1.15-1.4 2.85 0 1.75 1.4 3.45 1.65 2.05 4.5 3.2.6.15.6.25-.45 3.9-1.95 6.9-.95 1.85-2.3 3.35-3.3 3.7-8.15 4.45l-.9.15q-4.4.4-8.85-1.7-5.2-2.45-8.95-7.75 1.25-2.3.65-5.55-.75-3.95-3.5-5.8l-1.45-.7q-1.75-5.05-1.65-11.9" fill="#020206"/><path d="m115.05 298.15-.1 3.55.05.05h-.05l-.25.85q-2.45 7.65-6.75 12.85l-1.05-2.4q2.7-2.45 4.45-5.05 2.85-4.3 3.7-9.85m-37.7 15.4q6.4 5.85 13.05 6.3l-.1 3.9q-9.35-1.1-12.95-10.2m164-29.4 2.15 4.4.05.05v.05q2.05 11.5-.7 20.95l-3-2.4q2.15-4.5 2.85-8.8 1.1-6.95-1.35-14.25m0 29.75-2.5 4.7-3.6-4 2.15-3.1 3.95 2.4m-17.45 16.25q-13.75 4.05-24.8-5 12.85 3.45 22.3.1l2.5 4.9m-122.05-13.5 2.25-1.45 1.6 2.7-2.95 2.45-.9-3.7" fill="#396cf0"/><path d="M114.9 302.65q-.45 5.05-1.8 9.9-3 5.8-8.05 9.7-4.5 3.35-9.25 4.25-8.75 1.7-17.1-7.35-1.1-2.6-1.55-5.55l.2-.05q3.6 9.1 12.95 10.2l2.25.2q5.55-.45 10.2-3.6l2.95-2.45.7-.7 1.55-1.75q4.3-5.2 6.75-12.85l.2.05m128.65-14 .45 1.1q2.7 6.5 4.05 13.2-.25 9-4.75 16.7-3.95 6.7-10 10.65-11.05 7.25-28.6.95-3.6-2.95-6.6-6.95l1 .85q11.05 9.05 24.8 5l3.25-1.15q7.35-3.75 11.7-10.4l2.5-4.7.5-1.3 1-3q2.75-9.45.7-20.95" fill="#133b7c"/><path d="m90.65 309.9.5.15q3.1.85 6.2-.65l2.45-1.55q1.75-1.65 3.35-4.1l3.75 9.3-1.95 1.55-.85.6-4.3-7.35 2.05 8.8q-5.65 3.35-10.9 3.25l-.55-.05.25-9.95m124.5 3 .9-.15q4.85-.75 8.15-4.45 1.35-1.5 2.3-3.35 1.5-3 1.95-6.9l11.4 9.15-1.7 3.05-.75 1.25-10.9-6.55 8.75 9.65q-5.65 7.45-13.1 10.35l-.75.3-6.25-12.35" fill="#376aef"/><path d="m239.85 307.2 3 2.4-1 3-.5 1.3-3.95-2.4.75-1.25 1.7-3.05m-1 11.4q-4.35 6.65-11.7 10.4l-3.25 1.15-2.5-4.9.75-.3q7.45-2.9 13.1-10.35l3.6 4m-134.75-3.4.85-.6 1.95-1.55 1.05 2.4-1.55 1.75-.7.7-1.6-2.7m-2.25 1.45.9 3.7q-4.65 3.15-10.2 3.6l-2.25-.2.1-3.9.55.05q5.25.1 10.9-3.25" fill="#34e5fd"/><path d="M87.15 281.1q-2.3 4.6-2.8 8.4-1.25-1.35-3.6-1.05 3.05-5 6.4-7.35m19.4 15.45q3.1-8.8-1-15.45 2.85 1.3 4.85 3.25 3.2 3 4 7.3.6 2.95.65 6.5-.85 5.55-3.7 9.85-1.75 2.6-4.45 5.05l-3.75-9.3q1.5 1.6 3.3 1.95 2.4.5 3.35-1.45.95-2.05-.4-4.75-1.1-1.95-2.85-2.95" fill="url(#n)"/><path d="M83.1 298.7q.55 4.6 2.85 7.6 1.95 2.65 4.7 3.6l-.25 9.95q-6.65-.45-13.05-6.3l-.35-.8q-.9-6.3.45-14.3 2.65 1.95 4.95.7l.7-.45" fill="url(#o)"/><path d="M198.1 324.3q-5.3-7.15-8.7-17.8 4.95.85 7.3-2.1l.65-.95q3.75 5.3 8.95 7.75 4.45 2.1 8.85 1.7l6.25 12.35q-9.45 3.35-22.3-.1l-1-.85" fill="url(#p)"/><path d="M216.95 268.75q4.75-.1 8.9 1.15 6.3 1.85 10.3 6.6 2.8 3.3 5.15 7.6l.05.05q2.45 7.3 1.35 14.25-.7 4.3-2.85 8.8l-11.4-9.15q3.15 1.1 5.9.45 3.7-.85 3.75-3.85-.05-3-3.75-5.5-2.75-1.8-5.9-2-1.45-12.65-11.5-18.4" fill="url(#q)"/><path d="m237.4 311.5-2.15 3.1-8.75-9.65 10.9 6.55" fill="url(#r)"/><path d="m99.8 307.85 4.3 7.35-2.25 1.45-2.05-8.8" fill="url(#s)"/><path d="M193.05 291.4q-2.6-.9-5.65.85.85-8 4-12.75-.1 6.85 1.65 11.9" fill="#1c173e"/></g><g id="D" fill-rule="evenodd"><path d="m494.85.65.65-.35 4.85-.3q7.75 30.75 8.45 60.8v9.7q-2.35-6.45-5.85-10.3-.7-30.25-8.1-59.55m-81.35 231q1.8.85-.35 5.75t-5.95 8.45q-12.6 11.8-34.9 21.8-21.95 9.85-48.85 16-27.75 6.3-55.35 7.4-29.5 1.15-54.35-3.95-28.6-5.85-41.65-11.65-16-7.1-20.25-18.5l5.4 1.15.8.2q23.3 22.15 83.1 26.05l4.1.25q21.4.95 41.65-.85l19.5-2.4q8.95-1.4 17.65-3.4l11.95-3q23.95-6.7 46.8-17.9 6.5-3.15 12.9-6.7l1.4-.8q6.7-3.75 9.8-8.6 2.65-4.15 1.5-6.85l5.1-2.45M0 81.25l.05-6.95q.4-19 4.1-39.2l5.2.5q-3.6 19.7-4 38.25-3 2.95-5.35 7.4m434.25 29.2 1 10.55q-67.35 15-80.05 82.4l-6.7-4.3q20.35-70.15 85.75-88.65m-9.95-38.5 3.05 8.3q4.3 12.8 6.35 26.25-21.7 5.85-38.7 16.4-41 25.5-48.95 74.85-4.8-2.65-10-4.75 15.8-24.8 20.8-49.55 3.9-19.2 1.15-37.4-.85-5.3-2.2-10.5 8.8-2.5 13.75-6.7 4.5-3.8 4.55-7.75 0-3.9-4.25-6.05-4.65-2.3-12.55-1.5l-42.9 3.95q-23.85 1.75-42.75 1.2 68.5-7.3 119.6-23.4l9.45-3.1q-8.3 24 19.6 20.85l4-1.1m8.9 87.4-.8 4.6q-40.65 17.9-55.45 61.65l-3.85-5.35q18.4-42.85 60.1-60.9m-104.8 34.6q14.55 4.75 26.45 13.75 16.9 12.8 25.6 32.25l-6.95 2.55q-19.65-32.55-47.8-43.25l2.7-5.3m-28.55 33.15q19.3 6.65 36.95 26.1l-4.75 1.05q-18.3-18.05-38.3-23.45 3.15-1.8 6.1-3.7M80.75 126.05l-1.55 4.9q-25.6.75-50.85 10.25-5.55 2.05-11 4.55l-1.75-4.65q5.1-2.4 10.25-4.35 27-10.55 54.9-10.7" fill="#92b0ad"/><path d="M494.7.7q-3.55 27.9-16.65 46.2-4.3-3.45-9.95-5.7-10.9-4.35-22.05-2.45-11.8 1.95-18.7 10.2-7.75 9.25-7.05 24.1-27.9 3.15-19.6-20.85 43.7-15.75 58.15-27.5 14.45-11.8 17.2-15.2 1.55-.7 3.25-1.45Q488.05 4.2 494.7.7M9.35 35.6l16.6 1.65q3 14.9 22.85 25.6Q68.45 73.4 102.05 78.5q60.6 9.2 144.65 2.5l24.95-2.3q18.9.55 42.75-1.2l42.9-3.95q7.9-.8 12.55 1.5 4.25 2.15 4.25 6.05-.05 3.95-4.55 7.75-4.95 4.2-13.75 6.7 1.35 5.2 2.2 10.5l-13.55 2.9q-4-3.55-9.4-3.55-5.85 0-10 4.15-1.3 1.3-2.2 2.8-88.05 12.3-174.1-.3 10.55 19.3 32.25 25.65-4.2 4.65-7.45 10.75-11.4-6.6-25.05-12.4-21.8-9.3-43.25-12.5.55-11.15-8.9-15.25 2.45-4.15 1.85-8.4-.75-4.85-5.45-8.85-8.5-7.2-19.25-8.9-12.25-1.9-18.5 5.9 3.45 9.2-3.65 14.15-3.65 2.55-8.45 2.65L33.25 91.7q2.5-.45 4.05-2.25 2.1-2.4 1.85-6.25-.25-3.9-2.7-7.45-2.65-3.8-6.95-5.7-5.1-2.25-9.75-2.3-9.7-11.6-10.4-32.15m429.35 33-1.5-.35q-7.45-1.5-14.15 2.05.35-12.75 9.9-20.65 8.6-7.15 20.65-7.65 12.1-.5 20.2 5.95l2.1 1.8q3.6 3.2 5.7 6.6l-.05.05q-3.45-3.65-6.45-5.65-8.7-5.7-14.3 2.05-25.05-2.85-22.1 15.8m-14.4 3.35q5.95-1.3 11.25-.6 4.75.65 8.3 2.9-7.7 3.45-16.5 6l-3.05-8.3m-130.7 113.1-17.55 1.4q-4.6-3.7-4.5-8.8.05-4.55 3.55-8 3.55-3.5 8.05-3.3 3.2.15 5.9 2.3-5.95 11.55 4.55 16.4m2.65-19.3q3.1-6.4 1.65-13.55l-.35-1.5q15.15-2.55 23.7 4.75 8.2 7 5.4 19.1l-5.65 2.8q-10.1-17.85-24.75-11.6M468.55 62.2q1.2 0 2 .8.85.85.85 2.05 0 1.2-.85 2-.8.85-2 .85t-2.05-.85q-.8-.8-.8-2t.8-2.05q.85-.8 2.05-.8m-143.1 53.4q1.55-1.45 3.8-1.45 2.35 0 4 1.65 1.7 1.7 1.7 4.05 0 1.15-.4 2.15l-1.8.2q-3.05 0-5.2-2.15-1.9-1.9-2.1-4.45M306.4 281.35l-19.5 2.4V271.1l18.35-2.5 1.15 12.75m-65.25 3q-59.8-3.9-83.1-26.05 34.4 7 67.4 9h.3l33 4.8v10l-17.6 2.25M228.8 212.4l-1.05-3.45q21.5-13.35 45.25-17.9 22.8-4.4 44.2-.05 5.75 1.2 11.2 2.95l-2.7 5.3Q285.8 184 228.8 212.4m3.65 29.2v-2.5q35.95-22.9 67.4-12-2.95 1.9-6.1 3.7-28.15-7.6-59.6 9.85l-1.7.95M208.1 127.8h1.55q8.15.3 13.9 5.85 5.95 5.7 7.95 15.75l3.25-5.3q10.45-7.95 23.1-9.65 11.75-1.6 21.6 2.45 9.9 4.05 13.7 12.1 4.1 8.75-.65 19.35-2.5-2.2-5.1-3.35-4.1-5.4-10.15-7.4-3.4-1.15-11.25-1.8-7.7-.65-11.6.2-6.15 1.3-11.15 6.6l-5-1.25q-5-13.85-18-14.8 2.4-11.25-12.15-18.75m12.25 35.15q-1.1-1.1-1.1-2.65 0-1.55 1.1-2.65 1.1-1.1 2.65-1.1 1.55 0 2.65 1.1 1.1 1.1 1.1 2.65 0 1.55-1.1 2.65-1.1 1.1-2.65 1.1-1.55 0-2.65-1.1m5.8 77.45q-2.1-26.9-15.75-47.6-14.3-21.7-41.95-37.75-8.5-4.9-18.2-9.3-33.65-15.2-67.65-14.9l-3.4.1 1.55-4.9q34.2-.25 69.75 15.05 43.75 18.85 62.85 48.2 14.25 21.95 15.65 51.2l.15 7.5q-.05 6.9-.8 14.2l-2.3-.15q.55-7.1.45-13.85l-.35-7.8M26.35 71.6l1.35.7q4.85 2.8 6.05 7.55 1.35 5.2-2.5 10.2-1.9-1.7-3.75-2.3Q22.45 81 26.35 71.6m-2.65 28.65q5.1 4.9 12.2 6.55 6.8 1.55 12.85-.3 6.2-1.9 8.7-6.5 2.8-5 .05-11.7 6.95-3.8 14.9-2.55 6.95 1.1 12.75 5.6 5.5 4.2 7.15 9.15 1.7 5.2-2.05 8.3 6.85 3 9.2 6.7 1.9 2.9 1.65 7.5l-7.85-.8-2.3-2.85q-12.9 3.1-12-10.8l-8.5-6.25q-3.15 6.1-10.15 9.05-6.4 2.7-14.25 2.15-7.7-.55-13.75-3.95-6.4-3.65-8.6-9.3m44.6 14.55q0-1.4 1-2.4t2.4-1q1.4 0 2.4 1t1 2.4q0 1.4-1 2.4t-2.4 1q-1.4 0-2.4-1t-1-2.4m-39.7 53.95-1.55-2.6q7-3.7 14.3-6.1 12.6-4.25 25.9-4.65l12.4.35q16.55 1.5 34.6 8.4 19.25 7.4 33.05 17.7 10.4 7.8 17.75 17.25 12.15 15.7 15.95 36.25 1.1 5.95 1.5 12.35.3 4.7.2 9.7l-2.05-.35q0-4.85-.4-9.5-.55-6.6-1.9-12.75-4.15-18.55-15.45-33.1-7.8-10-19-18.2-12.65-9.25-29.65-16.15-17.2-6.95-33.55-8.45l-12.8-.4q-12.45.45-24.35 4.2-7.6 2.35-14.95 6.05m111-53.95q0-2.95-2.1-5.05-2.05-2.05-5-2.05t-5.05 2.05q-2.05 2.1-2.05 5.05 0 2.95 2.05 5 2.1 2.1 5.05 2.1 2.95 0 5-2.1 2.1-2.05 2.1-5" fill="#fff"/><path d="M495.55 55.3q1.2-26.75-.75-54.6l.05-.05q7.4 29.3 8.1 59.55-3.2-3.6-7.4-4.9m-.15 3.45q4.35 2 7.65 7.55l-.05 4.75q-.3 14.45-2.25 28.15H490.7q3.5-19.1 4.7-40.45m-8.5 58.1 2.95-13.05 10.15.3q-2.4 14.4-6.65 28l-3.65 10.55-11.35.85q4.95-12.65 8.55-26.65m-12.6 36.2 2.25-5.1 11.5-1.15q-8.1 19.5-20.1 35.45l-2.1 2.75-11.75 1.8q7.95-10.3 14.35-22.1 3.1-5.65 5.85-11.65m-24.6 39.25q5.7-1.55 12.05-2.35-14.35 16.6-32.6 27.05-11.05 6.3-22.5 11.8 11.9-7 23.1-16.5 10.9-9.3 19.95-20m-41.3 41.8q1.15 2.7-1.5 6.85-3.1 4.85-9.8 8.6l-1.4.8q11.2-13.3.8-10.9l11.9-5.35" fill="#a5fff9"/><path d="M478.05 46.9q4.3 3.45 7.25 8.15 5.7-1.2 10.25.25 4.2 1.3 7.4 4.9 3.5 3.85 5.85 10.3v.3q-.55 33.6-9.85 63.25-9.2 29.15-25.95 51.45-16.9 22.55-39.7 35.6-9.75 5.6-19.8 10.55l-5.1 2.45-11.9 5.35-14.15 5.65q-23.8 8.9-49.05 14.35-14.55 3.15-29.6 5.15-37.95 5.05-77.95 2.7h-.3q-33-2-67.4-9l-.8-.2-5.4-1.15q-40.25-9-71.05-28.05-32.05-19.75-51.9-49.15Q9.2 150.6 2.9 114 .15 98.1 0 81.25q2.35-4.45 5.35-7.4 3.15-3.2 6.95-4.75 3.55-1.45 7.45-1.35 4.65.05 9.75 2.3 4.3 1.9 6.95 5.7 2.45 3.55 2.7 7.45.25 3.85-1.85 6.25-1.55 1.8-4.05 2.25l-2.5.1q-2.6-1.95-5.2-1.5-2.45.45-3.1 2.5-.7 2.25 1.5 4.75 2.6 3 8.55 5.25 5.75 2.15 10.4 2.05 4.8-.1 8.45-2.65 7.1-4.95 3.65-14.15 6.25-7.8 18.5-5.9 10.75 1.7 19.25 8.9 4.7 4 5.45 8.85.6 4.25-1.85 8.4 9.45 4.1 8.9 15.25 21.45 3.2 43.25 12.5 13.65 5.8 25.05 12.4 3.25-6.1 7.45-10.75 3.4-3.75 7.4-6.55 8.35-5.85 17.65-6.5 9.05-.65 16.4 3.85 7.7 4.7 11.3 13.8 13.9-11.7 28.9-12.85 13.2-1.05 23.4 5.95 9 6.15 11.5 15.3l.35 1.5q1.45 7.15-1.65 13.55-1.55 3.15-4.25 6.1-1.4-1.95-2.95-3.2-2.7-2.15-5.9-2.3-4.5-.2-8.05 3.3-3.5 3.45-3.55 8-.1 5.1 4.5 8.8l17.55-1.4q10.85-.05 21.7 1.95 11 2.05 20.75 6 5.2 2.1 10 4.75Q354 148.4 395 122.9q17-10.55 38.7-16.4 7.15-1.95 14.85-3.4 7.7-17.4-1.85-26.65-1.3-1.25-2.85-2.2-3.55-2.25-8.3-2.9-5.3-.7-11.25.6l-4 1.1q-.7-14.85 7.05-24.1 6.9-8.25 18.7-10.2 11.15-1.9 22.05 2.45 5.65 2.25 9.95 5.7m12.65 52.3h10.05q1.95-13.7 2.25-28.15l.05-4.75q-3.3-5.55-7.65-7.55-4.3-2-9.65-.6l.55 5.15q-.05 2.5-1.75 4.25.25-5.75-2.7-10.8l-.25-.4q-2.1-3.4-5.7-6.6l-2.1-1.8q-8.1-6.45-20.2-5.95-12.05.5-20.65 7.65-9.55 7.9-9.9 20.65 6.7-3.55 14.15-2.05l1.5.35q4.55 1.25 8.25 4.15l2.4 2.15q5.25 5.3 6.25 12.35 1.05 7.8-3.6 15.25 18-3.05 38.7-3.3m-12.35 44.3 11.35-.85 3.65-10.55q4.25-13.6 6.65-28l-10.15-.3q-31-.35-55.6 6.65-65.4 18.5-85.75 88.65l6.7 4.3 1.2.85q8.05 5.85 14.25 13 18.65-45.55 63.35-63.4 19.65-7.85 44.35-10.35m-133.9-34.55.6.6q4.15 4.15 4.15 10t-4.15 10q-4.15 4.15-10 4.15t-10-4.15q-4.15-4.15-4.15-10 0-4 1.95-7.2.9-1.5 2.2-2.8 4.15-4.15 10-4.15 5.4 0 9.4 3.55m-8.8-.85-.6-.05q-4.75 0-8.15 3.4-.7.7-1.25 1.5-2.1 2.85-2.1 6.6v.3l.05.6q.25 4.15 3.3 7.2 3.4 3.4 8.15 3.4t8.1-3.4q3.4-3.35 3.4-8.1t-3.4-8.1q-3.15-3.2-7.5-3.35m97.55 51.25q-41.7 18.05-60.1 60.9l3.85 5.35q4 6.1 6.85 13.05 5.9-2.3 11.7-4.8l6.75-3.45q7.45-21.4 23.5-32.15 11.9-8.05 28.35-11.45l11.75-1.8 2.1-2.75q12-15.95 20.1-35.45l-11.5 1.15q-24.15 3.05-43.35 11.4m-26.55 69.45q11.45-5.5 22.5-11.8 18.25-10.45 32.6-27.05-6.35.8-12.05 2.35-14.8 3.9-25.95 13.45-10.95 9.3-17.25 22.95l-.1.2.25-.1m-33.15 13.7 6.95-2.55q-8.7-19.45-25.6-32.25-11.9-9-26.45-13.75-5.45-1.75-11.2-2.95-21.4-4.35-44.2.05-23.75 4.55-45.25 17.9l1.05 3.45q3.1 11.2 3.55 23.7 12.15-10.15 26.9-14.15 14.25-3.9 29.15-1.65 7.85 1.2 15.3 4.05 6.6 2.5 12.85 6.3 13.7 8.3 23.9 21.65 16.85-4.1 33.05-9.8m-41.45 11.75 4.75-1.05q-17.65-19.45-36.95-26.1-31.45-10.9-67.4 12v2.5l-.2 6.15q-.3 4.6-1.8 14.55 36.85 1.8 71.9-2.85 15.1-2 29.7-5.2M287.4 165q2.6 1.15 5.1 3.35 4.75-10.6.65-19.35-3.8-8.05-13.7-12.1-9.85-4.05-21.6-2.45-12.65 1.7-23.1 9.65l-3.25 5.3q-2-10.05-7.95-15.75-5.75-5.55-13.9-5.85h-1.55q-7.55.2-15.45 4.95-9.35 5.65-17.45 16.65 28 16.5 42 37.6 6.2 9.3 9.9 19.9 18.25-14.05 42.15-19.2l1.4-.3q-3.65-5.85-3-11.7.65-5.35 4.5-8.85 3.9-3.45 9.2-3.3 3.1.1 6.05 1.45m-137.3 15.3q10.65 7.8 18.05 17.05 13.25 16.65 16.15 38.6l.45 3.9.35 8.05-.15 9.85q20.8 3.1 41.1 4.3l2.3.15q.75-7.3.8-14.2l-.15-7.5q-1.4-29.25-15.65-51.2-19.1-29.35-62.85-48.2-35.55-15.3-69.75-15.05-27.9.15-54.9 10.7-5.15 1.95-10.25 4.35l1.75 4.65q3.8 9.75 8.85 18.8 6.35-3.65 13.7-6.35 11.9-4.5 24.85-5.35l6.55-.25 7.65.3q16.2 1.25 33.7 7.8 22.1 8.3 37.45 19.6M27.5 87.75q1.85.6 3.75 2.3 3.85-5 2.5-10.2-1.2-4.75-6.05-7.55l-1.35-.7q-4.35-2.1-9.4-1.3-5.35.8-9.75 4.7l-1.9 1.85.05 6.7q.35 14.85 2.8 28.95 2.3 13.5 6.5 25.95 4.8-2.5 9.7-4.55 25.75-11.1 53.45-12 7.7-.25 15.45.3l7.85.8q.25-4.6-1.65-7.5-2.35-3.7-9.2-6.7 3.75-3.1 2.05-8.3-1.65-4.95-7.15-9.15-5.8-4.5-12.75-5.6-7.95-1.25-14.9 2.55 2.75 6.7-.05 11.7-2.5 4.6-8.7 6.5-6.05 1.85-12.85.3-7.1-1.65-12.2-6.55l-.2-.2q-2.85-2.8-3.35-5.95-.5-2.85 1.05-4.8 1.5-2 4.15-1.95l2.15.4m1.1 81 5 7.9q5.15 7.65 11.2 14.65 12.2-4.5 24.2-5.5 6.05-.55 12.05-.2 17.3 1 32.05 9.2 14.7 8.2 25.05 22.6 2.7 3.75 5 7.8 5 8.85 8.2 19.15l2.1 7.55 5.65 1.2 21.55 3.95 2.05.35q.1-5-.2-9.7-.4-6.4-1.5-12.35-3.8-20.55-15.95-36.25-7.35-9.45-17.75-17.25-13.8-10.3-33.05-17.7-18.05-6.9-34.6-8.4l-12.4-.35q-13.3.4-25.9 4.65-7.3 2.4-14.3 6.1l1.55 2.6m119.35 81.85 3.5.85-3.1-7.55q-5.2-11.75-11.55-21-23.35-33.9-62.65-33.4-12.85.1-27.4 3.95l2.05 2.3q15.3 16.4 35.55 28.85 10.6 6.5 22.3 11.85 19.15 8.65 41.3 14.15" fill="#355890"/><path d="M490.7 99.2q-20.7.25-38.7 3.3 4.65-7.45 3.6-15.25-1-7.05-6.25-12.35l-2.4-2.15q-3.7-2.9-8.25-4.15-2.95-18.65 22.1-15.8 5.6-7.75 14.3-2.05 3 2 6.45 5.65l.3.35q2.95 5.05 2.7 10.8 1.7-1.75 1.75-4.25l-.55-5.15q5.35-1.4 9.65.6-1.2 21.35-4.7 40.45m-3.8 17.65q-3.6 14-8.55 26.65-24.7 2.5-44.35 10.35 2.2-16.85 1.25-32.85 22.7-5.05 51.65-4.15M468.55 62.2q-1.2 0-2.05.8-.8.85-.8 2.05 0 1.2.8 2 .85.85 2.05.85 1.2 0 2-.85.85-.8.85-2t-.85-2.05q-.8-.8-2-.8m-132.9 45.9q4.35.15 7.5 3.35 3.4 3.35 3.4 8.1t-3.4 8.1q-3.35 3.4-8.1 3.4t-8.15-3.4q-3.05-3.05-3.3-7.2l-.05-.6v-.3q0-3.75 2.1-6.6-.25.9-.25 1.9l.05.75q.2 2.55 2.1 4.45 2.15 2.15 5.2 2.15l1.8-.2q1.9-.45 3.4-1.95 2.15-2.15 2.15-5.2 0-3.05-2.15-5.2-1.05-1.05-2.3-1.55m96.75 55.85q18.3-8.1 41.9-10.9-2.75 6-5.85 11.65-18.5 19.7-44.15 30.4 5.3-15.9 8.1-31.15m-200.15 83.8.2-6.15 1.7-.95q19.05.4 39.65-1.05-9.1 3.05-19.5 5.1-10.45 2.05-22.05 3.05m-47.95-11.8q19.85 3.5 41.85 4.45l.35 7.8q-19.15 1.15-41.4-.3l-.35-8.05-.45-3.9M24.35 133.9q-4.9 2.05-9.7 4.55-4.2-12.45-6.5-25.95-2.45-14.1-2.8-28.95l-.05-6.7L7.2 75q3.6 32.45 17.15 58.9m-7 11.85q5.45-2.5 11-4.55 5.15 8.85 11.55 17-7.35 2.7-13.7 6.35-5.05-9.05-8.85-18.8M69 185.8q-12 1-24.2 5.5-6.05-7-11.2-14.65l-5-7.9q7.35-3.7 14.95-6.05 5.65 6.7 12.15 12.9L69 185.8m82.35 58.55q-3.2-10.3-8.2-19.15 10.25 3.6 20.7 6.3 7.1 1.85 14.5 3.3 1.35 6.15 1.9 12.75l-28.9-3.2m-44.7-7.9q-11.7-5.35-22.3-11.85-20.25-12.45-35.55-28.85 17.25-3.55 32.2-1.6 22.8 15.05 46.75 25.15 9.1 10.05 16.55 24-18-2.75-37.65-6.85" fill="#30b4e0"/><path d="M494.7.7h.1q1.95 27.85.75 54.6-4.55-1.45-10.25-.25-2.95-4.7-7.25-8.15Q491.15 28.6 494.7.7m-4.85 103.1-2.95 13.05q-28.95-.9-51.65 4.15l-1-10.55q24.6-7 55.6-6.65m-62.5-23.55q8.8-2.55 16.5-6 1.55.95 2.85 2.2 9.55 9.25 1.85 26.65-7.7 1.45-14.85 3.4-2.05-13.45-6.35-26.25M336.05 193q-9.75-3.95-20.75-6-10.85-2-21.7-1.95-10.5-4.85-4.55-16.4 1.55 1.25 2.95 3.2 2.7-2.95 4.25-6.1 14.65-6.25 24.75 11.6l5.65-2.8q2.8-12.1-5.4-19.1-8.55-7.3-23.7-4.75-2.5-9.15-11.5-15.3-10.2-7-23.4-5.95-15 1.15-28.9 12.85-3.6-9.1-11.3-13.8-7.35-4.5-16.4-3.85-9.3.65-17.65 6.5-4 2.8-7.4 6.55-21.7-6.35-32.25-25.65 86.05 12.6 174.1.3-1.95 3.2-1.95 7.2 0 5.85 4.15 10t10 4.15q5.85 0 10-4.15t4.15-10q0-5.85-4.15-10l-.6-.6 13.55-2.9q2.75 18.2-1.15 37.4-5 24.75-20.8 49.55M19.75 67.75q-3.9-.1-7.45 1.35-3.8 1.55-6.95 4.75.4-18.55 4-38.25.7 20.55 10.4 32.15m412.65 96.2.8-4.6q19.2-8.35 43.35-11.4l-2.25 5.1q-23.6 2.8-41.9 10.9m-35.9 75.5q10.4-2.4-.8 10.9-6.4 3.55-12.9 6.7l-.45-11.95 14.15-5.65m-60.5 35.5-11.95 3q-8.7 2-17.65 3.4l-1.15-12.75-18.35 2.5v12.65q-20.25 1.8-41.65.85l-4.1-.25 17.6-2.25v-10l-33-4.8q40 2.35 77.95-2.7 15.05-2 29.6-5.15l2.7 15.5m-287.2-79.2-2.05-2.3q14.55-3.85 27.4-3.95 39.3-.5 62.65 33.4 6.35 9.25 11.55 21l3.1 7.55-3.5-.85-3.65-7.3q-7.45-13.95-16.55-24Q108.2 197.65 81 194.15q-14.95-1.95-32.2 1.6" fill="#ceedea"/><path d="M25.95 37.25q3.3 12.85 23 22.3Q68.5 68.9 102.05 74q60.6 9.2 144.65 2.5 84.35-6.75 141.1-25.45t72.7-31.75l8.6-7.15 8.5-3.6-1.55.95q-2.75 3.4-17.2 15.2-14.45 11.75-58.15 27.5l-9.45 3.1q-51.1 16.1-119.6 23.4L246.7 81q-84.05 6.7-144.65-2.5-33.6-5.1-53.25-15.65-19.85-10.7-22.85-25.6" fill="#612803"/><path d="M325.65 112.95q.55-.8 1.25-1.5 3.4-3.4 8.15-3.4l.6.05q1.25.5 2.3 1.55 2.15 2.15 2.15 5.2 0 3.05-2.15 5.2-1.5 1.5-3.4 1.95.4-1 .4-2.15 0-2.35-1.7-4.05-1.65-1.65-4-1.65-2.25 0-3.8 1.45l-.05-.75q0-1 .25-1.9m-21.95 111.4q-7.45-2.85-15.3-4.05-14.9-2.25-29.15 1.65-14.75 4-26.9 14.15-.45-12.5-3.55-23.7 57-28.4 96.9-13.15-8.2 14.7-22 25.1m-95.6-96.55q14.55 7.5 12.15 18.75 13 .95 18 14.8l5 1.25q5-5.3 11.15-6.6 3.9-.85 11.6-.2 7.85.65 11.25 1.8 6.05 2 10.15 7.4-2.95-1.35-6.05-1.45-5.3-.15-9.2 3.3-3.85 3.5-4.5 8.85-.65 5.85 3 11.7l-1.4.3q-23.9 5.15-42.15 19.2-3.7-10.6-9.9-19.9-14-21.1-42-37.6 8.1-11 17.45-16.65 7.9-4.75 15.45-4.95m-29.35 53.8q-3.5 0-6 2.5t-2.5 6q0 3.5 2.5 6t6 2.5q3.5 0 6-2.5t2.5-6q0-3.5-2.5-6t-6-2.5m-10.3-26.55q27.65 16.05 41.95 37.75 13.65 20.7 15.75 47.6-22-.95-41.85-4.45-2.9-21.95-16.15-38.6-7.4-9.25-18.05-17.05 13.8-8.55 18.35-25.25m51.9 7.9q1.1 1.1 2.65 1.1 1.55 0 2.65-1.1 1.1-1.1 1.1-2.65 0-1.55-1.1-2.65-1.1-1.1-2.65-1.1-1.55 0-2.65 1.1-1.1 1.1-1.1 2.65 0 1.55 1.1 2.65M27.5 87.75l-2.15-.4q-2.65-.05-4.15 1.95-1.55 1.95-1.05 4.8.5 3.15 3.35 5.95l.2.2q2.2 5.65 8.6 9.3 6.05 3.4 13.75 3.95 7.85.55 14.25-2.15 7-2.95 10.15-9.05l8.5 6.25q-.9 13.9 12 10.8l2.3 2.85q-7.75-.55-15.45-.3-27.7.9-53.45 12Q10.8 107.45 7.2 75q4.4-3.9 9.75-4.7 5.05-.8 9.4 1.3-3.9 9.4 1.15 16.15m40.8 27.05q0 1.4 1 2.4t2.4 1q1.4 0 2.4-1t1-2.4q0-1.4-1-2.4t-2.4-1q-1.4 0-2.4 1t-1 2.4m-28.4 43.4q-6.4-8.15-11.55-17 25.25-9.5 50.85-10.25-2.35 11.95-.25 21.95l-7.65-.3-6.55.25q-12.95.85-24.85 5.35m103.25 67q-2.3-4.05-5-7.8-10.35-14.4-25.05-22.6-14.75-8.2-32.05-9.2-6-.35-12.05.2l-13.3-10.2q-6.5-6.2-12.15-12.9 11.9-3.75 24.35-4.2l12.8.4q1.7 4.65 4.55 8.85 9.6 14.25 27.85 18.35 16.4 3.65 30.8-2.6 11.2 8.2 19 18.2 11.3 14.55 15.45 33.1-7.4-1.45-14.5-3.3-10.45-2.7-20.7-6.3M81 194.15q27.2 3.5 46.75 25.15Q103.8 209.2 81 194.15m192.8 45.45q-20.6 1.45-39.65 1.05 31.45-17.45 59.6-9.85-9.05 5.15-19.95 8.8" fill="#63e8ea"/><path d="M178.75 181.6q3.5 0 6 2.5t2.5 6q0 3.5-2.5 6t-6 2.5q-3.5 0-6-2.5t-2.5-6q0-3.5 2.5-6t6-2.5m-10.3-26.55q-4.55 16.7-18.35 25.25-15.35-11.3-37.45-19.6-17.5-6.55-33.7-7.8-2.1-10 .25-21.95l3.4-.1q34-.3 67.65 14.9 9.7 4.4 18.2 9.3M139.6 114.8q0 2.95-2.1 5-2.05 2.1-5 2.1t-5.05-2.1q-2.05-2.05-2.05-5t2.05-5.05q2.1-2.05 5.05-2.05 2.95 0 5 2.05 2.1 2.1 2.1 5.05m4.3 68.7q-14.4 6.25-30.8 2.6-18.25-4.1-27.85-18.35-2.85-4.2-4.55-8.85 16.35 1.5 33.55 8.45 17 6.9 29.65 16.15" fill="#b7feff"/><path d="M376.95 225.6q14.8-43.75 55.45-61.65-2.8 15.25-8.1 31.15 25.65-10.7 44.15-30.4-6.4 11.8-14.35 22.1-16.45 3.4-28.35 11.45-16.05 10.75-23.5 32.15l-6.75 3.45q-5.8 2.5-11.7 4.8-2.85-6.95-6.85-13.05m72.75-33.3q-9.05 10.7-19.95 20-11.2 9.5-23.1 16.5l-.15-.1q6.3-13.65 17.25-22.95 11.15-9.55 25.95-13.45M435.25 121q.95 16-1.25 32.85-44.7 17.85-63.35 63.4-6.2-7.15-14.25-13l-1.2-.85q12.7-67.4 80.05-82.4M373.5 242.5q-16.2 5.7-33.05 9.8-10.2-13.35-23.9-21.65-6.25-3.8-12.85-6.3 13.8-10.4 22-25.1 28.15 10.7 47.8 43.25m-41.45 11.75q-14.6 3.2-29.7 5.2-35.05 4.65-71.9 2.85 1.5-9.95 1.8-14.55 11.6-1 22.05-3.05 10.4-2.05 19.5-5.1 10.9-3.65 19.95-8.8 20 5.4 38.3 23.45M226.5 248.2q.1 6.75-.45 13.85-20.3-1.2-41.1-4.3l.15-9.85q22.25 1.45 41.4.3m-45.85 8.85-21.55-3.95-5.65-1.2-2.1-7.55 28.9 3.2q.4 4.65.4 9.5m-32.7-6.45q-22.15-5.5-41.3-14.15 19.65 4.1 37.65 6.85l3.65 7.3" fill="#218db2"/><path d="M42.9 104.85q-4.65.1-10.4-2.05-5.95-2.25-8.55-5.25-2.2-2.5-1.5-4.75.65-2.05 3.1-2.5 2.6-.45 5.2 1.5l2.5-.1 9.65 13.15m339.9 152.2q-22.85 11.2-46.8 17.9l-2.7-15.5q25.25-5.45 49.05-14.35l.45 11.95" fill="#b1d6d3"/></g><use ffdec:characterId="2" height="238" width="220" xlink:href="#t" id="c"/><use ffdec:characterId="4" height="218.9" width="341.35" xlink:href="#u" id="d"/><use ffdec:characterId="6" height="270.2" width="242.05" xlink:href="#v" id="e"/><use ffdec:characterId="8" height="230.35" width="226.35" xlink:href="#w" id="f"/><use ffdec:characterId="10" height="136.15" width="496.2" xlink:href="#x" id="g"/><use ffdec:characterId="12" height="104.3" width="143.5" xlink:href="#y" id="h"/><use ffdec:characterId="14" height="286.7" transform="translate(12.6 12.3)" width="311.2" xlink:href="#z" id="i"/><use ffdec:characterId="21" height="138" width="178.7" xlink:href="#A" id="j"/><use ffdec:characterId="23" height="189.75" width="395.2" xlink:href="#B" id="k"/><use ffdec:characterId="25" height="425.6" width="400.55" xlink:href="#C" id="l"/><use ffdec:characterId="31" height="291.25" width="508.85" xlink:href="#D" id="m"/><radialGradient cx="0" cy="0" gradientTransform="translate(104.7 311.75) scale(.0358)" gradientUnits="userSpaceOnUse" id="n" r="819.2" spreadMethod="pad"><stop offset="0" stop-color="#4d3fac"/><stop offset="1" stop-color="#0c0a1b"/></radialGradient><radialGradient cx="0" cy="0" gradientTransform="translate(89.95 316.25) scale(.0184)" gradientUnits="userSpaceOnUse" id="o" r="819.2" spreadMethod="pad"><stop offset="0" stop-color="#4d3fac"/><stop offset="1" stop-color="#0c0a1b"/></radialGradient><radialGradient cx="0" cy="0" gradientTransform="translate(219.7 323) scale(.0372)" gradientUnits="userSpaceOnUse" id="p" r="819.2" spreadMethod="pad"><stop offset="0" stop-color="#4d3fac"/><stop offset="1" stop-color="#0c0a1b"/></radialGradient><radialGradient cx="0" cy="0" fx="-12.8" fy="0" gradientTransform="translate(238.45 301.5) scale(.0479)" gradientUnits="userSpaceOnUse" id="q" r="819.2" spreadMethod="pad"><stop offset="0" stop-color="#4d3fac"/><stop offset="1" stop-color="#0c0a1b"/></radialGradient><radialGradient cx="0" cy="0" gradientTransform="translate(232.45 314) scale(.0249)" gradientUnits="userSpaceOnUse" id="r" r="819.2" spreadMethod="pad"><stop offset="0" stop-color="#4d3fac"/><stop offset="1" stop-color="#0c0a1b"/></radialGradient><radialGradient cx="0" cy="0" gradientTransform="translate(102.7 314.25) scale(.0086)" gradientUnits="userSpaceOnUse" id="s" r="819.2" spreadMethod="pad"><stop offset="0" stop-color="#4d3fac"/><stop offset="1" stop-color="#0c0a1b"/></radialGradient><path d="M30.05-3.75Q41-2.55 41-.9q0 1.65-10.95 2.8L3.75 3.1l-26.4-1.2Q-33.55.75-33.55-.9t10.9-2.85L3.75-4.9l26.3 1.15" fill-opacity=".349" fill-rule="evenodd" transform="translate(33.55 4.9)" id="b"/></defs></svg>