<svg xmlns:ffdec="https://www.free-decompiler.com/flash" xmlns:xlink="http://www.w3.org/1999/xlink" ffdec:objectType="frame" height="90" width="90" xmlns="http://www.w3.org/2000/svg"><use ffdec:characterId="19" height="86.05" transform="translate(2.05 3.15)" width="109.2" xlink:href="#a"/><defs><g id="a" transform="translate(-2.05 -3.15)"><use ffdec:characterId="1" height="9.8" transform="matrix(.7054 0 0 1.329 24.126 74.431)" width="55.5" xlink:href="#b"/><filter id="c"><feColorMatrix in="SourceGraphic" result="filterResult0" values="0 0 0 0 1.0,0 0 0 0 0.0,0 0 0 0 0.0,0 0 0 1 0"/><feComposite in="SourceGraphic" in2="filterResult0" result="filterResult1"/></filter><use ffdec:characterId="8" filter="url(#c)" height="108.25" transform="translate(24.05 21.947) scale(.4696)" width="183.95" xlink:href="#d"/><use ffdec:characterId="10" height="39.2" transform="translate(2.65 11.05) scale(.4696)" width="57.7" xlink:href="#e"/><use ffdec:characterId="16" height="120" transform="translate(17.25 8.25) scale(.4696)" width="110.35" xlink:href="#f"/><use ffdec:characterId="18" height="46.85" transform="translate(58.95 10) scale(.4696)" width="61.95" xlink:href="#g"/></g><g id="h" fill-rule="evenodd"><path d="m12.55 35.35 1.15-.75h.1q.75-.05 2-1.4 1.15-1.45.9-2.7-.35-1.2-1-1.35-.6-.2-.5-1.3 0-1.05 1.95-2.75l1.25-1.05q5.7.4 8.65 4.4-1 1.25-1.95 1.8-3.4 2.1-6.2 6.1 1.7 1.15 3.8 4.05 2.3 3.25.25 6-2.1 2.7-4.3 3.85-2.2 1.1-5.4.6-1.55-.2-2.55-1.15l-.4-.45Q8.2 46.8 8.9 43.6l1.35-3.5 2.3-4.75M30.7 47.5l.95 2.05v.05q.9 1.65-.05 5.3l-1.4.5-8.05.3q-.75-1.05-.85-2.4-.15-2 1.7-4.05 1.85-2.1 3.8-2h2.5l1.4.25" fill="#b2d7ff"/><path d="m16.45 63.95-.2-.05.3.05h-.1" fill="#210036"/><path d="m12.55 35.35-2.3 4.75-1.35 3.5q-.7 3.2 1.4 5.65l-.05.05-1.6-1.45-.9-.85q.35 4.85 3.2 8.75l.9 1.15 2.5 2.55q2.55 2.15 5.95 3.65l5.8 2.4q-4.25.2-8.4-1.1l-1.25-.45h.1l-.3-.05-1.9-.7q-4.3-2.05-7.8-5.3l-1.1-1-.4-.4L4 55.35q-.9-1-1.3-2.5l-.25-1.65q-.15-2.9.55-5.75.35-1.4 1-2.7l.7-1.05q2.2-3.25 5.55-5.1l2.3-1.25" fill="#7dbeec"/><path d="M27.05 28.45q-2.95-4-8.65-4.4 1.3-1.05 2.55-1.75 1.8-1.1 6.65-2.5 3.75-1.1 3.75-1.65 4.7-2.05 9.95-2.7 12.35-1.25 24.95.45l1.15.2 5.55 1.05h.4l2.7-.45 3.15-.7 4-.5q1.25 0 1.85.7 1.05 1.15.25 2.7-.8 1.7-1.8 5.6-1 3.85 2.65 4.2 6.6-.7 11.65-5.2 4.9-4.35 8.1-9.9.05 1.35-.55 2.75-1.9 4.1-5.3 7.35-2.2 2.7-5.35 5.4-3.15 2.7-6.25 4.1-3.1 1.3-8.25 1.95L76.05 35q-2.1.6-2.15 1.85v1.75l.05.9q0 .8-.5 1.1l-1.3.2-2.55-.1-2.6-.25-2.2.2q-1.4.3-2.5 1.1l-1.9 1.8q-.75 1-1.3 2.45l-1.45 4q-.9 2.5-2.8 4.95-1.65 2.1-4.4 4.15l-2.95.4-4.45.3q-2.95 0-5.25-.9-3.75-1.5-4-4.9 4.85-2.3 7.6-5.85 1.35-1.45 2.9-4.75 1.5-3.35 1.75-9.35 1.05 1.2 4.6 3.25 2.85 1.1 5.5 1.1 2.75 0 4.4-2.3 1.4-1.95 1.4-4.2 0-2.85-3.3-4.9-3.3-2.1-7-2.1-3.75 0-6.3 1.45-2.6 1.45-2.6 2.8 0 1.3.2 1.65l.5.5-1.7-.5q-.65-.1-.7 3.1-.05 3.15-.6 5.7-.55 2.55-3.7 5.6-3.15 3.05-4.35 3.9l-.75.5v-.05l-.95-2.05-.2-.55-.85-3.3q-.6-2.7-.35-4.35.9-6.2-1.95-10.45l-.3-.4" fill="#5021b0"/><path d="M10.7 49.7q1 .95 2.55 1.15 3.2.5 5.4-.6 2.2-1.15 4.3-3.85 2.05-2.75-.25-6-2.1-2.9-3.8-4.05 2.8-4 6.2-6.1.95-.55 1.95-1.8l.3.4Q30.2 33.1 29.3 39.3q-.25 1.65.35 4.35l.85 3.3.2.55-1.4-.25h-2.5q-1.95-.1-3.8 2-1.85 2.05-1.7 4.05.1 1.35.85 2.4L19 55.25q-6-.75-9.25-5.6l-1.1-1.8 1.6 1.45.45.4m20.95-.1.75-.5q1.2-.85 4.35-3.9 3.15-3.05 3.7-5.6.55-2.55.6-5.7.05-3.2.7-3.1l1.7.5-.5-.5q-.2-.35-.2-1.65 0-1.35 2.6-2.8 2.55-1.45 6.3-1.45 3.7 0 7 2.1 3.3 2.05 3.3 4.9 0 2.25-1.4 4.2-1.65 2.3-4.4 2.3-2.65 0-5.5-1.1-3.55-2.05-4.6-3.25-.25 6-1.75 9.35-1.55 3.3-2.9 4.75-2.75 3.55-7.6 5.85l-2.2.9q.95-3.65.05-5.3" fill="#7e53c9"/><path d="m105.9 13.6 1.45-2.85-.25 2.8-.7 3.3-1.9 3.9q-2.45 4.4-7.6 8.4l-3.55 3Q88.4 35.3 87.4 35.5l-3.95.45-6.2.15q-2.65.4-1.45 1.75 1.25 1.3 2.05 1.9l.55.7-.25.7-.4.3-.65.45-.8.45q-2.1 1.15-4.6.6l-5.85-.3q-4.05-.25-5.2 2.75L58.5 51l-2.25 5.15-1.35 1.3-1.65 1.35q-.55.4-.4.5l-.4.25q-3.9 3-4.7 2.7l-4.4 1.25-1.5.05.35-.25 1.25-.75q3.4-1 6.2-2.9l.8-.55q2.75-2.05 4.4-4.15 1.9-2.45 2.8-4.95l1.45-4q.55-1.45 1.3-2.45l1.9-1.8q1.1-.8 2.5-1.1l2.2-.2 2.6.25 2.55.1 1.3-.2q.5-.3.5-1.1l-.05-.9v-1.75q.05-1.25 2.15-1.85l4.15.15q5.15-.65 8.25-1.95 3.1-1.4 6.25-4.1 3.15-2.7 5.35-5.4 3.4-3.25 5.3-7.35.6-1.4.55-2.75" fill="#57faf8"/><path d="M117.5 16.85q-1.3-.1-3.2.9l2.6-2.3 1.15-.9q2.55-1.85 5.3-1.95 1.2.05 1.3.95l.2 4q1.2 2.5 3.45 1.6 2.25-.85 4.95-3.85.4.15 0 1.3l-.2.55q-1.5 2.3-3.6 4.15l-2-.55q-2.55-.95-3.35-2.5l-.6-2.3q-.6-1.7-1.7-1.7l-1.05.25q-1 .35-1.35.65l-1.85 1.6-.05.1" fill="#58fffe"/><path d="m117.55 16.75 1.85-1.6q.35-.3 1.35-.65l1.05-.25q1.1 0 1.7 1.7l.6 2.3q.8 1.55 3.35 2.5l2 .55-2.1 1.6-2.65 1.7q-1.75 1.1-5.5.75-.3-.95.2-3.2.4-2.3-.55-4.7-.55-.55-1.3-.6v-.1m-3.8-15.2L113.5 3q-.1.4.1.95.65 1.3 1.7.9 1.05-.5 1.45-.55-1.65 2-3.7 2.65l-2.1.2v-.9l.2-.8.3-1.25-.2-1q-.35-.4-.75-.4h-.85q1.05-1.3 2.45-1.55.9-.35 1.65.3" fill="#4a329e"/><path d="m43.45 62.55 3.15-2.05q-6.75 2.45-11.25 3.55-4.45 1.1-8.9 1.4l-.35.05-5.8-2.4q-3.4-1.5-5.95-3.65l-2.5-2.55-.9-1.15Q8.1 51.85 7.75 47l.9.85 1.1 1.8Q13 54.5 19 55.25l3.15.45.85.9q1.55 1.25 3.45 1.25 3.3 0 5.1-2.7l.05-.25 2.2-.9q.25 3.4 4 4.9 2.3.9 5.25.9l4.45-.3 2.95-.4-.8.55q-2.8 1.9-6.2 2.9" fill="#4c2fa2"/><path d="m31.6 54.9-.05.25q-1.8 2.7-5.1 2.7-1.9 0-3.45-1.25l-.85-.9 8.05-.3 1.4-.5" fill="#80b5f7"/><path d="M14.85 24q1.5-1.9 5.1-3.4 3.5-1.5 7.45-2.65l2.2-.5q17.35-7.75 36.65-2.9l1.15.3 2.65.7 1.85.25q3.8.4 7.85-.6l3.45-.55q3.15-.15 4.15 1.3.65 2.75-.3 5.55-.9 2.75-.9 3.85 7.6-.9 12.3-6.4 4.65-5.5 6.5-8.35l.4-.6.15-.25 2.05-4.25q.75-2.25 1.05 1.1 1.7 7.35-.4 11.75l-2.05 4.75q-1.35 2.45-6.6 7.9L96 34.2q-2.3 1.85-6.05 3.2l-2.05.65-5.85 1.25-.7 2.15-.2.45q-2.95 3.7-7.6 3.8H71.7l-3.7-.4-3.95.1-1.55 1.25-.15.55-1.2 5.4q-.75 2.6-3.75 5.65-2.8 2.85-3.9 3-1 1.1-3.5 2.4-2.55 1.2-5.7 2.15L38 67.45l-.9.2-1.2.15-5.9.3-6.25-.25h1.15l-2.7-.15-5.45-1-2.4-.9-1.1-.5Q9.1 63.2 5.4 60.5q-2-1.55-3.2-3.6l-.35-.55-.05-.1Q.4 53.95.2 51.4L0 47.95q-.05-3.05 1.45-5.75 2.3-4.1 6.4-6.75l2.4-1.45q.85-.4 1.8-.7l1.45-.3.05-.05.5-.65.25-1.05-.25-1.4q-.3-.5-.5-2.2-.2-1.7 1.25-3.55l.05-.1m3.55.05-1.25 1.05q-1.95 1.7-1.95 2.75-.1 1.1.5 1.3.65.15 1 1.35.25 1.25-.9 2.7-1.25 1.35-2 1.4h-.1l-1.15.75-2.3 1.25Q6.9 38.45 4.7 41.7L4 42.75q-.65 1.3-1 2.7-.7 2.85-.55 5.75l.25 1.65q.4 1.5 1.3 2.5l1.05 1.15.4.4 1.1 1q3.5 3.25 7.8 5.3l1.9.7.2.05 1.25.45q4.15 1.3 8.4 1.1l.35-.05q4.45-.3 8.9-1.4 4.5-1.1 11.25-3.55l-3.15 2.05-1.25.75-.35.25 1.5-.05 4.4-1.25q.8.3 4.7-2.7l.4-.25q-.15-.1.4-.5l1.65-1.35 1.35-1.3L58.5 51l2.15-5.6q1.15-3 5.2-2.75l5.85.3q2.5.55 4.6-.6l.8-.45.65-.45.4-.3.25-.7-.55-.7q-.8-.6-2.05-1.9-1.2-1.35 1.45-1.75l6.2-.15 3.95-.45q1-.2 5.95-3.35l3.55-3q5.15-4 7.6-8.4l1.9-3.9.7-3.3.25-2.8-1.45 2.85q-3.2 5.55-8.1 9.9-5.05 4.5-11.65 5.2-3.65-.35-2.65-4.2 1-3.9 1.8-5.6.8-1.55-.25-2.7-.6-.7-1.85-.7l-4 .5-3.15.7-2.7.45h-.4L67.4 16.1l-1.15-.2q-12.6-1.7-24.95-.45-5.25.65-9.95 2.7 0 .55-3.75 1.65-4.85 1.4-6.65 2.5-1.25.7-2.55 1.75m111.05-2.75q2.1-1.85 3.6-4.15l.2-.55q.4-1.15 0-1.3-2.7 3-4.95 3.85-2.25.9-3.45-1.6l-.2-4q-.1-.9-1.3-.95-2.75.1-5.3 1.95l-1.15.9-2.6 2.3q1.9-1 3.2-.9h.05q.75.05 1.3.6.95 2.4.55 4.7-.5 2.25-.2 3.2 3.75.35 5.5-.75l2.65-1.7 2.1-1.6m5.15-6.75q.65 3.2-1.6 5.8l-.95 1-4.35 3.45q-3 1.9-5.95 2.1l-3.4-.3-.7-1q-.3-.6-.1-3.3l.1-3.5q-.1-.8-.45-.9l-.5.05-.4.1-.2.05q-1.7.5-2.95 1.65l-1.8 1.9-.95.75.3-1.35.35-1.3q.7-1.3 1.7-2.4 3.45-3.6 7.8-5.8 2.6-1.5 4.2-.15 1.65 1.4 1.65 3.4t.15 2.6q2.15.35 4-1.4 1.85-1.8 3.05-2.2 1.15-.4 1 .75m-20.85-13q-.75-.65-1.65-.3-1.4.25-2.45 1.55h.85q.4 0 .75.4l.2 1-.3 1.25-.2.8v.9l2.1-.2q2.05-.65 3.7-2.65-.4.05-1.45.55-1.05.4-1.7-.9-.2-.55-.1-.95l.25-1.45m-.8-1.55 1.5.2q.4.3.4 1.35l-.2 1.8.65-.2q.9-.1 1.7-.55l.85-1.1.6 1.75q.15.95-.55 1.9l-2.2 2q-1.55.95-2.95 1.15l-2 .15q-.55 0-.8-.55l-.3-.85.25-1.6.05-1.1L108.4 4q-.9.15-.9-.25 0-.5.15-.55.75-.95 1.7-1.55.95-.7 1.75-1.1.75-.5 1.85-.55" fill="#30116e"/></g><g id="i" fill-rule="evenodd"><path d="m.15 36.7-.15.15q.4-4.7 1.15-8.5.75-3.8 2.65-8.65 1.9-4.9 4-7.95Q9.85 8.7 13 6.2q2.95-2.5 6.9-4.5l.1-.05.15-.1q4-2.05 6.5-1.4l2.4.7q.8.3 1.35.75 1.9 1.3.9 3.95-1.1 2.65-1.25 3.6l-.15-.25-2.15 2.15q0-.45-.1-.1v-.25l-1.75.25q-1.45 0-3.1-.85l-.4.15q-2.1.8-4.85 2.75-2.75 1.9-4.9 3.85-1.85 1.65-3.9 4.25l-.4.45-.45.6q-2.55 3.25-2.95 5l-.05.2q-.35 1.25-.25.45v-.25q.2-1.35.8-2.7l1.9-3.15 3.2-3.9q2.25-2.45 4.95-4.45l4.4-3.05 1.7-1-1.25-1.1-.9-1.3-.3-.6-.05-.15-.2-1.25q-2.05 1.2-4.35 3.3-3.4 3.1-5.15 6.1l-2.55 4.45-.45 1.05q-.95 2.3-1.55 5l-.55 2.25-.7 2.2-1.55 3.6-.4.8-1.5 3v.05m19.7-31.4q.3 1.5 1.6 2.75l.45.4q1.95 1.6 4 1.6l1.5-.2q-.55-2.55.2-3.85 1.1-2.2 1.05-2.95l-.5-.15-3.45-.25q-1.6.2-4.15 1.35l-.15.1-.45.2-.2.1.05.75.05.15m7.3 2.8-.1.05V8.1h.1" fill="#6c374a"/><path d="m3.6 29.25.7-2.2.55-2.25q.6-2.7 1.55-5l.15.75L7.9 18.8l2.95-3.75 4.8-3.9q2.3-1.85 3.5-2.4l.3-1.85.9 1.3 1.25 1.1-1.7 1-4.4 3.05q-2.7 2-4.95 4.45l-3.2 3.9-1.9 3.15q-.6 1.35-.8 2.7v.25l-.35.6q-1.15 2.3-.75 1.15l.05-.3M28.15 2.9l.5.15Q28.7 3.8 27.6 6q-.75 1.3-.2 3.85l-1.5.2q-2.05 0-4-1.6l-.45-.4q-1.3-1.25-1.6-2.75l.05-.25.05-.75.45-.2 1.3 2.5.65.65q1.25.6 3.8-1.4L27.5 4.4l.65-1.5m-1 5.2h-.1v.05l.1-.05" fill="#ba6d86"/><path d="m6.4 19.8.45-1.05L9.4 14.3q1.75-3 5.15-6.1 2.3-2.1 4.35-3.3l.2 1.25-.2.85-.3.7-1.5.85q-2.55 1.45-4.85 3.8-2.85 2.9-4.3 6.2l-.1.25h.05l-1.35 1.75-.15-.75M28.15 2.9l-.65 1.5q-.65.05-1.7.45-1.5.5-2.05 1.05l-1.4 1.35-.65-.65-1.3-2.5.15-.1q2.55-1.15 4.15-1.35l3.45.25" fill="#ffd1ae"/><path d="M8.75 21.1q2.05-2.6 3.9-4.25 2.15-1.95 4.9-3.85 2.75-1.95 4.85-2.75l.4-.15q1.65.85 3.1.85l1.75-.25v.3q.3 2.25 3.95 5.5 4.5 3.95 7.7 5.1 3.2 1.15 6.75 1.15l7.3.35.85 1.3q1.35 2.3 1.35 5.25 0 2.65-.4 3.8-1.3 3.3-5.5 3.3-2.4 0-4.1-.8L44 35.2q-3.6-2.7-4.45-3l-1-.5.1-2.45q0-2.65-1.35-4.25-1.25-1.5-3.05-1.5l-1.75.25Q31.95 24 31 25l-1.75 2.05-1.2 1.45.65-5.15q.4-3.45-3.8-6.05-4.2-2.6-8.5-.7-4 1.8-7.65 4.5" fill="#771377"/><path d="M29.9 8.9q1.45 3.35 3.9 6.05 2.35 2.65 5.65 4 3.25 1.35 7.65 1.3l5.75.4q.5-.35 1.2.3l.4.3 1.15 1.25.4.65.7 1.1q1 1.6 1 5.4 0 3.5-.65 5.15-1.8 4.15-7.5 4.15l-1.2-.05-1.1-.15q-1.5-.3-2.85-.95-1.35-.7-1.75-1.15l-4.4-2.3q-2.5-1.45-3.25-2.2-3.8.2-6.8 2.9-1.2.1-1.5-.4-.25-.55-.65-3.05-.4-2.6-3.2-4.5-2.8-1.95-5.7-2.15-2.95-.2-5.95 1.15-3.05 1.35-5.35 4.6-2.4 3.3-3.95 8.45-1.75.4-1.75-2.2v-.3l1.5-3 .4-.8 1.55-3.6-.05.3q-.4 1.15.75-1.15l.35-.6q-.1.8.25-.45l.1-.15q.95-1.55 2.3-2.65 1.75-1.5 2.85-1.9 1.05-.5 5.3-1.05 4.15-.6 8.3 2 4.05 2.55 4.05 7.75l3.5-1.3q2.5-1.05 4.85.35l2.4 1.3 1 .5q.85.3 4.45 3l1.55.75q1.7.8 4.1.8 4.2 0 5.5-3.3.4-1.15.4-3.8 0-2.95-1.35-5.25l-.85-1.3-7.3-.35q-3.55 0-6.75-1.15t-7.7-5.1q-3.65-3.25-3.95-5.5v-.05q.1-.35.1.1L29.9 8.9" fill="#210036"/><path d="m19.1 6.15.05.15.3.6-.3 1.85q-1.2.55-3.5 2.4l-4.8 3.9L7.9 18.8l.05-.25q1.45-3.3 4.3-6.2 2.3-2.35 4.85-3.8l1.5-.85.3-.7.2-.85m8.4-1.75-1.35 1.45q-2.55 2-3.8 1.4l1.4-1.35q.55-.55 2.05-1.05 1.05-.4 1.7-.45" fill="#e3ae95"/><path d="M4.95 27.15q.4-1.75 2.95-5l.45-.6.4-.45q3.65-2.7 7.65-4.5 4.3-1.9 8.5.7 4.2 2.6 3.8 6.05l-.65 5.15 1.2-1.45L31 25q.95-1 1.5-1.25l1.75-.25q1.8 0 3.05 1.5 1.35 1.6 1.35 4.25l-.1 2.45-2.4-1.3q-2.35-1.4-4.85-.35l-3.5 1.3q0-5.2-4.05-7.75-4.15-2.6-8.3-2-4.25.55-5.3 1.05-1.1.4-2.85 1.9-1.35 1.1-2.3 2.65l-.05-.05" fill="#3d0550"/></g><g id="j"><path d="m67.8 12.2 1.15-2.1L71 7.15l2.55-3.2q1.45-1.9 2.45-2h1.45q.5.1 1.8 2.6l2.3 4.35.95 2.5.1 1.05.05.6.05.45v.75l-.2.65-.9 1.2-1.3.75-1.5.7-1.7.55q-3.1.8-5.6-.8-1.75-1.1-2.45-2.1l-1.5.1-.1-.25-.15-1 .3-1.4.2-.45m-44.65-1.45q.55-1.65 3.3-6Q29.75-.6 31.25.1q1.45.7 1.8 1.7l.8 2.05 1 3.7q.45 2.5.35 3.7l-.05.35-.25.05q-.9.3-1.25.55h-.25q-.5-1.05-.95-3.65-.8-4.7-1.55-5.45l-.85.85q-1.1 1.35-2.9 4.55l-1.9 3.05-.5-.4-1.6-.4M74.85 17h.25l3.65-.85.55-.25.45-.2.35-.7-.05-.95-.15-1.3-.8-2.65-1.8-4.05q-1.05-1.85-1.95-.8l-.4.5q-.85 1.05-2 2.85-1.45 2.25-2.95 4.85l-.4.65.5.55q1 1.05 2.25 1.65h.05q1.1.5 2.45.7" fill="#6c374a" fill-rule="evenodd"/><path d="M82.5 11.4q3.75 2.45 7.95 7.15l2.55 3q6.1 7.6 12.05 13.75 3.6 3.7 5.1 6.6l-.05.55-.4-.05q-.45-.5-1.35-.35l-1.05.2-.1.05-9.05-10.1-7.2-8-4.8-5.65-1.7-2.05.45 2.05.35 2.35.05.4.25 2.25q.55 5.9 1.4 12.65.85 6.75 1.15 12.9l.1 2.35v.1l-.4.15-.7.2q-.6-4.35-1.25-10.7l-1.7-16.55-.5-4.8-.1-1.3-.3-3.6-.55-.7v-.75l-.05-.45-.05-.6-.1-1.05M.55 47.35q-.6-.5-.55-1.45l.1-1.3v-.15l.05-.5q0-.75 10.65-17.4l5.25-8.85 1.45-2.5 1.75-2.6q.95-1.45 2.65-1.9h.95l.3.05 1.6.4.5.4.4.35 2.05.4h.3l1.95-.05.4-.05h3.3q.35-.25 1.25-.55l.25-.05q1.45-.5 2.65-.5l1.35.1.3.1-.05.3-.7.75-.05.05h.05l-.4.85-.2.3-.05.3h-.15l-7.85-.3-8.4-.45-1.05 1.85-4.85 8.55-.45.8-.6 1.05-1.2 2.1L2.85 45.3Q1.2 47.7.95 47.6l-.4-.25m61.5-35.1h.2l2.65.05 1.4.05-1.35-.1 2.85-.05-.2.45-.3 1.4.15 1-3.8-.35-2.45-.4.55-1.15.3-.9" fill="#1a0007" fill-rule="evenodd"/><path d="m67.45 15.05.1.25 1.5-.1q.7 1 2.45 2.1 2.5 1.6 5.6.8l1.7-.55 1.5-.7 1.3-.75.9-1.2.2-.65.55.7.3 3.6.1 1.3-.15-.15-2.35-1.25-3.75.2-4.6.1q-.5.1-.85.4-1.6 1.35-2.35 3.45-.75 2.05-1.15 4.3-.7-4.1.3-6.15.95-2.1-.3-2.9-1.55-.55-3.8-.75-2.25-.25-3.75 2.6-1.55 2.85-2.5 5.75l-1.85 5.3-1.5 4-.35.2q-.9.45-1.55.85.7-3.2 1.8-6.3 2.55-7.35 5.85-14.35l.4-.85 2.45.4 3.8.35m20.75 36.4-.1-2.35q-.3-6.15-1.15-12.9-.85-6.75-1.4-12.65l-.25-2.25-.05-.4-.35-2.35-.45-2.05 1.7 2.05 4.8 5.65 7.2 8 9.05 10.1h.05l-.1.2q-.3.5-1.45.9l-8.25 3.85-7.3 3.25q-1.2.5-1.95.95M51.9 45.2l.8.85 2.05 1.9q1.55 1.1 4.05 1.8l-6.75-.2v-.1l-.15-.85v-3.4m45.1 29h-.05l-.25.25-3.65 2.6q-3.75 2.15-3.5 1.15l.45-2.05 1.65-12.85q.4-4.35 2.05-5.1l3.2-1.65 2.35-1.15 1.9-.75.3-.1q1.45-.55.3 2.55-1.2 3.05-1.8 7.4-.7 4.35-1.75 7.05L97 74.2m-4.1-3.65-.65 4.3q2.9-.35 3.8-5.7.85-5.4 2.05-9.45-4.05.2-4.4 4l-.8 6.85m-55-56.7-1.4 1.85-2 .05-4.05.4q-1.4.3-2.6 1.9-1 1.35-2.05 3.25-1.15 2.25-1.15 3.25h-.05q-.9-2.15-.35-4.5l.95-3.9q.6-.5-1.5-.65l-3.1-.55 1.05-1.85 8.4.45 7.85.3m-17.05 51.6.15 3.8 40 3.7-.4.9-18.2-1.1-17.55-1.65-5.2-.4-.45-.4q-.45-1.35-.55-5.25l2.2.4" fill="#290215" fill-rule="evenodd"/><path d="m83.65 19.85.5 4.8 1.7 16.55q.65 6.35 1.25 10.7l-14.45-1.1h-.9l-4.25-.25 1.2-.2 2.6-.75.3-.15q2-.75 3.75-2.15 2.2-1.75 3.35-4.2l.3-.5 2.3-5.05q1-2.7 1.2-5.25l.35-3.85q.15-1.5-.2-3-.15-.8-.85-1.35l-.05.05-.6-.1q-1.6 0-8.4 2.5-6.15 2.3-7.5 3.05l-7.9 3.95-2.3 1.2 1.5-4 1.85-5.3q.95-2.9 2.5-5.75 1.5-2.85 3.75-2.6 2.25.2 3.8.75 1.25.8.3 2.9-1 2.05-.3 6.15.4-2.25 1.15-4.3.75-2.1 2.35-3.45.35-.3.85-.4l4.6-.1 3.75-.2 2.35 1.25.15.15m9.25 50.7.8-6.85q.35-3.8 4.4-4-1.2 4.05-2.05 9.45-.9 5.35-3.8 5.7l.65-4.3M36.5 15.7l-1.25 1.8q-1.7 2.35-2.9 4.65-2.45 4.8-4 10.15-.55 1.8-.8 3.65h-.05q.15-1.85-.2-2.7v-.05l-.2-.25-.1-.15-.05-.05-.3-.3-2.05-1.75-.55-.45-.2-.2-2.75-2.1-.1-.1-1.4-1.05-.15-.05-.45-.4-.15-.15-.05-.05-.05-.05-.1-.15-.05-.05v.05l-1.05-.9-1.8-1.55 4.85-8.55 3.1.55q2.1.15 1.5.65l-.95 3.9q-.55 2.35.35 4.5l.1.15-.05-.15q0-1 1.15-3.25 1.05-1.9 2.05-3.25 1.2-1.6 2.6-1.9l4.05-.4 2-.05m-9.2 29.1.4 2.35-13.2-.7L2.85 45.3 13.5 27.45l-.3 1.75q-.35 1.95-.15 4.4.2 2.45.95 4.3l1.5 3.45q.8 1.6 2.65 3.5 1.85 1.9 5.2 1.65 2.15-.15 3.95-1.7M61 72.95l-40-3.7-.15-3.8.65.05 6.8.65 11 1.1 12.6 1.3 9 .95 1.45.1L61 72.95" fill="#541b09" fill-rule="evenodd"/><path d="m55.05 34.75 2.3-1.2 7.9-3.95q1.35-.75 7.5-3.05 6.8-2.5 8.4-2.5l.6.1.05-.05q.7.55.85 1.35.35 1.5.2 3l-.35 3.85q-.2 2.55-1.2 5.25L79 42.6l-.3.5q-1.15 2.45-3.35 4.2-1.75 1.4-3.75 2.15l-.3.15-2.6.75-1.2.2-7.4-.65-1.3-.15q-2.5-.7-4.05-1.8l-2.05-1.9-.8-.85.1-1.6 1.05 1 1.8 1.85q1.2 1.25 4.1 2.2 2.85.9 7.05.9 1.7 0 4.75-1.05l.55-.25q2.45-1.25 4.25-3.4l1.55-1.75 1.4-2.4 1.85-5.05q.85-2.7 1-5.35v-.15l.05-5-5.15 1.8-1.2.4-3.65 1.3q-2.25.8-3.65 1.5l-1.8.85q-.75 2.15-.85 4.45l-3.4 1.8q-.4-1.45-.35-2.6l.15-1.4-2.4 1.2-2.1 1.1-2.85 1.3-1.3.55.3-1.6q.65-.4 1.55-.85l.35-.2M27.5 36.1l-.3 2.45-.1 1.05v.1l-.05.25q-.15.75-.85 1.15l-.15.1-.5.15q-.25-.1.05-1.1l.1-.35.4-3.25V33.4l-.75-.6-1.3-1.15-.2-.15-.2-.2q-.35 1.15-.55 2.4-.2 1.25-.15 3.2l-1.85-2.65.05-.05.15-.6q0-.55-.4-.95l-.45-.3q-.1-2.35.25-3.25l.05-.1-.8-.6-.7-.55L19 29l-.15.8-.1 1.25.05 2.05-.1.5.2.7v.15l.15 1.1.35 1.6.05.25.05.15.65 2.2.05.15.3.65h-.05l-.95-.8q-1.05-1.05-1.55-2.6l-.3-1.25q-.5-3.05-.3-5.9v-.15q.1-1.7.75-3l-1-.9-.2-.15-1.6-1.5.45-.8 1.8 1.55 1.05.9v-.05l.05.05.1.15.05.05.05.05.15.15.45.4.15.05 1.4 1.05.1.1 2.75 2.1.2.2.55.45 2.05 1.75.3.3.05.05.1.15.2.25v.05q.35.85.2 2.7v.15m-.35 7.25.1 1 .05.45q-1.8 1.55-3.95 1.7-3.35.25-5.2-1.65t-2.65-3.5L14 37.9q-.75-1.85-.95-4.3-.2-2.45.15-4.4l.3-1.75 1.2-2.1-.05 2.3-.05.2-.2 1.85q-.3 2.3.15 4.6.4 2.3 1.4 4.6.95 2.2 2.75 3.9l1.8 1.55q.8.6 2.55.6 1.75-.05 3.1-.9l.1-.1.2-.1.7-.5" fill="#400002" fill-rule="evenodd"/><path d="M81.35 30.15v.15q-.15 2.65-1 5.35L78.5 40.7l-1.4 2.4-1.55 1.75q-1.8 2.15-4.25 3.4l-.55.25Q67.7 49.55 66 49.55q-4.2 0-7.05-.9-2.9-.95-4.1-2.2l-1.8-1.85-1.05-1v-.05l2.75-2.15.1.45q.6 2.75 3.1 4.3 1.25.75 2.6 1.15l2.85.3q2.9-.15 5.1-1.55 2.15-1.4 3.05-3.3 1.7-1.2 2.75-3.55 1.35-3.05 1.25-5.7l-.1-1.9 3.05-.95 2.85-.5M57 40.75q-.4-.55-.4-1.3 0-1 .75-1.7t1.8-.7q1 0 1.75.65l.05.05.7 1.1.05.6q0 1-.75 1.7t-1.8.7q-1.05 0-1.8-.7l-.35-.4M17.35 30q-.2 2.85.3 5.9l.3 1.25q.5 1.55 1.55 2.6l.95.8.05.05v-.05l1.05.8q1.25.75 2.05.75.6 0 1.4-.4l.45-.25q.75.9 1 2.4l-.2.1-.1.1q-1.35.85-3.1.9-1.75 0-2.55-.6l-1.8-1.55q-1.8-1.7-2.75-3.9-1-2.3-1.4-4.6-.45-2.3-.15-4.6l.2-1.85q1.5.9 2.75 2.15m1.55 4.3-.2-.7.1-.5.25-.45q.4-.35.95-.35l.35.05h.1l.45.3q.4.4.4.95l-.15.6-.05.05-.2.25-.25.25-.65.15q-.55 0-.95-.4l-.15-.2m1.35 3.3v-.05q0-.35.25-.6l.7-.2h.1l.55.2.3.6-.3.55-.25.2-.4.05-.7-.25-.25-.5m17.8 48.45q1.85 0 3.9.7l.15.05-.45 8.75-1.95-.5-1.9-.8.25-8.2m1.25 23.75V98.25h.1q1.55.5 2.75 1.45l.25.2.4 15.2-3.15-4.8-.35-.5" fill="#fff" fill-rule="evenodd"/><path d="m81.35 30.15-2.85.5-3.05.95-.25-2.75-.15-1.5 1.2-.4 5.15-1.8-.05 5" fill="#ad9ddd" fill-rule="evenodd"/><path d="m98.25 49.3 1.05-.45 5.5-2.5-1.25 7.65-.45-.1q-1.05 0-1.7.55l-.25.2-1.9.75-2.35 1.15-3.2 1.65q-1.65.75-2.05 5.1L90 76.15l-.45 2.05q-.25 1 3.5-1.15l3.65-2.6.25-.25H97l.8.1q1.05-.55 1.6-2.7l1.25-5.15q.55-2.4 1.5-4.15L99.9 75.85l-4.9 3.9-6.4 4.4-2.85 1.8 4.95-31.1 7.55-5.55" fill="#988cba" fill-rule="evenodd"/><path d="m110.1 42.45.05.25.1.8.1.5-.15-.05-.4 3.9-2.1 10.7q-3 12.9-4 16.05.15-.65-.1.25l-.5.7-.3.35-1.25 1.15-2.05 1.65-.3.25-.65.5-1.35 1-7.9 5.6-3.2 2.05-.8.45-1.6.65-.4.6-2.1-.3-5.75-.6-1.25-.1-1.25-.15-5.35-.5-10.55-1-1.2-.15q-.65 3.5-.75 5.5-.15 1.7-2.55 3.5-.25 4.3.3 7.35.7 4-1.65 7.45l-4.55 6.25-2.05 2.55-.45.4q-3.55-4.85-6.5-9.8-2.45-4.2-2.3-9.1v-.8l.1-2.8v-1.1l.05-1.65-.35-.25q-2.7-2.05-2.6-5.7 0-2.25.15-3.8l-7.25-.35-1.9-.1-7.75-.45-.5-.05q-.35-.8-1.5-1.45l-1.3-.65-.15-.05q-1.4-.6-2.55-.8l-1.7-.15-.95-.1-2.4-.2-.15-.5-.05-.25-.65-4.4-2.2-18.95-1.15-9.2.4.25q.25.1 1.9-2.3l11.65 1.15 13.2.7.5 1.9L9.25 47.9l-6.2-.7.1.35L4.3 55.3l1.65 12.15q1 6.9.9 9.75l-.1 2h1.9l3.2.25 5.2.7 8.4 1.2 8.5.9L46 83.7l11.05 1.4 11.8 1.15 12.5 1.15-.1 1.2 1.15-.1.6.05.2-.8.05-.1h.05l2.15-1.5.3-.2 2.85-1.8 6.4-4.4 4.9-3.9 1.2-.95 1.8-6.6q1.65-6.1 2.1-9.1.4-3.05 1.7-8.1l.8-3.25q.45-1.9.2-2.55l-2.4.8-.5.25-5.5 2.5-1.05.45L93 51.45l-3 1.35-1.05.5.1-.7.05-.3-2 1.3v.1l-.25-.25-3.1.15-11.1-.75-9.8-.85-4.55-.4h-.25l-4.75-.35-1.3-.45-.05-.05v-.55l.1-.65 6.75.2 1.3.15 7.4.65 4.25.25h.9l14.45 1.1.3.05.4-.25.4-.15v-.1q.75-.45 1.95-.95l7.3-3.25 8.25-3.85q1.15-.4 1.45-.9l.1-.2.05-.05 1.05-.2q.9-.15 1.35.35l.4.05M42.9 95.8q2.55.4 4.8 0 3.55-.6 4.8-2.2 1.2-1.6 1.15-4.85l.1-1.95-9.35-.85-8.95-.75.05.95-.05 4.55q-.1 2.2 2.35 3.55l1.9.8 1.95.5 1.25.25M37 97.65l-.05 3.05v.4q-.15 5.05 1.95 8.1l.4.6.35.5 3.15 4.8.25.45 1.35 2.15.2-.25.95-1.3q3.8-5.3 4.85-7.2 1.15-2.25.75-6.35-.25-2.8-.1-5.65-3.8 2.1-10.3.4-2.05-.6-3.95-1.7l.2 2" fill="#41356b" fill-rule="evenodd"/><path d="m99.9 75.85 2.25-13.55 1.4-8.3 1.25-7.65.5-.25 2.4-.8q.25.65-.2 2.55l-.8 3.25q-1.3 5.05-1.7 8.1-.45 3-2.1 9.1l-1.8 6.6-1.2.95" fill="#59ffff" fill-rule="evenodd"/><path d="M102.15 62.3q-.95 1.75-1.5 4.15L99.4 71.6q-.55 2.15-1.6 2.7l-.8-.1 1.2-2.65q1.05-2.7 1.75-7.05.6-4.35 1.8-7.4 1.15-3.1-.3-2.55l-.05-.1q.65-.55 1.7-.55l.45.1-1.4 8.3" fill="#706096" fill-rule="evenodd"/><path d="M87.1 53.7v-.1l2-1.3-.05.3-.1.7-.6 3.35-1.25 6.95-.35 2.85-.35 2.8-.35 2.1-.5 2.55-.55 3.15-.6 3.8-.7 4.4-.4 2.15-.05.15v.1l-.05.1-.2.8-.6-.05-1.15.1.1-1.2.25-1.5.55-3.1.7-3.75.6-3.35.5-2.9.65-3.7.25-1.95.4-3.15.35-2.85q.25-1.95.8-3.9l.45-1.9v-.05l.2-1.45.05-.15" fill="#40346a" fill-rule="evenodd"/><path d="m87.1 53.7-.05.15-.2 1.45v.05l-30.65-1.8 1.85-1.95h.25l4.55.4 9.8.85 11.1.75 3.1-.15.25.25m-48.5 5.5q-2.75-.05-5.55-3.85l-2-2.65-.65-1.4q-1.6-3.45-1.95-6.95l-.15-2.85.2-2.95q.4-4.35 1.8-8.25 1.8-5.15 4.45-9.15 2.05-3.05 3.15-5.45l.15-.35.85-1.55 1.85.2 1.1-.1.15.65.1.3-1.5 2.2Q39 19.4 37.7 21.9l-2.4 4.5q-1.05 1.8-2.3 5.95l-.2.5q-.45 1.05-.85 2.6-.55 1.95-.9 5-.4 3.05.4 5.55.75 2.5 1.4 3.8l.75 1.7q2.2 4.85 5.1 7.65l-.1.05M28.2 49.05l.9 2.35-20-.65.15 4.75.1 1.15q-.55.75-.55 1.8l-.1.1.15.25q.05 1.05.8 1.85l.25.25-.05 1.95 2 16.6-3.2-.25h-1.9l.1-2q.1-2.85-.9-9.75L4.3 55.3l-1.15-7.75-.1-.35 6.2.7 18.95 1.15" fill="#fdffff" fill-rule="evenodd"/><path d="m98.25 49.3-7.55 5.55-4.95 31.1-.3.2-2.15 1.5-.05-.1.05-.15.4-2.15.7-4.4.6-3.8.55-3.15.5-2.55.35-2.1.35-2.8.35-2.85 1.25-6.95.6-3.35 1.05-.5 3-1.35 5.25-2.15" fill="#706095" fill-rule="evenodd"/><path d="m86.85 55.35-.45 1.9q-.55 1.95-.8 3.9L85.25 64l-.4 3.15-.25 1.95-.65 3.7-.5 2.9-.6 3.35-.7 3.75-.55 3.1-.25 1.5-12.5-1.15-11.8-1.15L46 83.7l-12.05-1.45-8.5-.9-8.4-1.2-5.2-.7-2-16.6.05-1.95q.8.7 1.9.7 1.25 0 2.15-.95.85-.9.85-2.2 0-1.35-.85-2.25-.6-.6-1.4-.8l-.75-.1q-1.25 0-2.15.9l-.3.45-.1-1.15-.15-4.75 20 .65.35.8q.15 1.45 3.15 4.6 2.3 2.45 4.3 3.25l.25.1q.7 1.9 3.3 1.5 2.8-.5 5.05-1.55l4.2-2.1 4.5-2.85 2-1.6 30.65 1.8m-48.15 3.8q-2.9-2.8-5.1-7.65l-.75-1.7q-.65-1.3-1.4-3.8-.8-2.5-.4-5.55.35-3.05.9-5 .4-1.55.85-2.6l.2-.5q1.25-4.15 2.3-5.95l2.4-4.5q1.3-2.5 2.9-4.85l1.5-2.2q.6 1.55 2.5 2.35 2.05.8 4 .6 1.95-.2 3.6-1.3 1.1-.75 2-2.1l2.9.25-4.15 6.75Q50.9 25 48.6 32.9q-2.2 7.7-1.75 14.3l.05.35q.4 3.8-3.3 7.55-1.95 2-4.9 4.05m-4.3-23.6q.4 1 1.15 1.85 1.6 1.85 3.85 1.85t3.85-1.85q1.6-1.8 1.6-4.4 0-2.6-1.6-4.45-1.45-1.6-3.35-1.75l-.5-.05-1.55.25q-1.3.4-2.3 1.55l-.15.2Q33.95 30.5 33.95 33v.3q.05 1.2.45 2.25m3.85 30.15L27.1 64.4l-7.9-.7h-1.15l-.35.05-.05.05q-.15 0-.15.1h-.05q-.3 2.25.15 5.4.45 3.15 1.1 2.8l11 1.2 23.2 2.15q9.15 1.15 9.05-.05.2.15.7-2.3l.25-.7 1.2-4.4-3.15-.35-10.9-1-11.8-.95m3.85 21.1 2.35.95q3.75 1.7 3.1 4.25-.7 2.5-2.65 3.15l-2 .65-1.25-.25.45-8.75m.3 13.1 1.1 1.2.45.7.65 1.3q.85 1.85 1.05 3.95l.25 5.65-.35 3.45-.95 1.3-.2.25-1.35-2.15-.25-.45-.4-15.2m31.4-39.15-.6-.05q-1 0-1.85.5l-.75.55q-.95 1-1 2.55v.05q0 1.5 1 2.5 1.1 1.1 2.6 1.1t2.4-1.05q.85-1.05.85-2.55 0-1.55-.85-2.6-.7-.85-1.8-1" fill="#bbc3d5" fill-rule="evenodd"/><path d="m103.1 75.55 2.15 1.95 3.85 3.8q1.15.95.55 2.95-2.85 9.3-4.65 8.8l-1.05-.3q-1.95-.95-3.25-2.55l-2.6-2.6q-1.25-1.05-1.25-1.5l.05-2.1.3-3.55 1.35-1 .65-.5-.15.6-.1.6-.15.5-.5 3.1-.05.6q0 .8.6 1.65l1.9 2 1.6 1.35.2.15.6.4 1.2.8q.35.3 2.15-3.5 1.75-3.8-.95-6.25l-4-3.9 1.25-1.15.3-.35m-17 12.55 1.8 2.85 1.6 2.8-.2-.35.45.85.1.35v.1l-.05.3-.5.9-2.05 2.65-4.3 5.05q-2.5 3.1-3.6 2.3-1.05-.8-3.4-3.85l-.2-.25-3.15-4.2q-.65-.85-1.25-2.2-.4-1.45.65-4.25l.95-2.5 1.25.15-.55 1.6q-1.05 2.5-1.15 4.15-.05.65.25 1.05l3.9 5.05.45.5 2.75 3.7 4.5-5.05 2.75-3.25.95-1.15.4-.65-1.05-1.8-1.2-2.55-.9-1.85.8-.45m-70.3-4-.05.55q.15 2.2-.45 4.45l-2.25 4.45q-1.9 3.1-3.35 4.8-.7.25-1.2 0T7.1 96.2l-2.35-4-1.85-2.8q-.95-1.85-.9-2.65.05-.85 1.05-2.85l1.3-3.05.25-.7.15.5 2.4.2q-3.15 5.7-3.1 6.1.05.45.7 1.2l2 2.55v.05l.65.95q1.15 1.7 1.75 3.65 3.45-5.65 4.4-8.3l.25-4.45q1.15.65 1.5 1.45l.5.05m4.65-43.55h.05v.05l-.05-.05" fill="#003680" fill-rule="evenodd"/><path d="m99.5 78.7.15 1.3q.25.7 1.25.7l.8-.3.5-.8 2.9 2.8-.75 8.3-1.2-.8-.6-.4.9-.15L99.3 84l-.35-3.85.1-.6.15-.6.3-.25M83.7 89.2l1.9 5.55-.1.55-5.35 7.55L78 100l.85-1.55q1.15-2.8-.8-4.1-1.8-1.25-3.35-.8l.75-4.65 5.75.6 2.1.3.4-.6m-71.35-7.3.1 1.15q.15 3.15-.25 3.9l-1.45 2.7L9.1 92.4l-1.15-2.45q.9-.85.9-2.1 0-1.2-.6-1.85-.5-.55-1.7-.95l.1-.3 1.05-2.7.4-1.1 1.7.15q1.15.2 2.55.8" fill="#3672b5" fill-rule="evenodd"/><path d="m104.35 90.7.75-8.3-2.9-2.8-.5.8-.8.3q-1 0-1.25-.7l-.15-1.3 2.05-1.65 4 3.9q2.7 2.45.95 6.25-1.8 3.8-2.15 3.5m-5.4-10.55L99.3 84l4.15 5.35-.9.15-.2-.15-1.6-1.35-1.9-2q-.6-.85-.6-1.65l.05-.6.5-3.1.15-.5" fill="#58fffb" fill-rule="evenodd"/><path d="m83.7 89.2 1.6-.65.9 1.85 1.2 2.55 1.05 1.8-.4.65-.95 1.15-2.75 3.25-4.5 5.05-2.75-3.7.9-1.15 2.15 2.85 5.35-7.55.1-.55-1.9-5.55" fill="#59fffd" fill-rule="evenodd"/><path d="m74.95 5.75.4-.5q.9-1.05 1.95.8l1.8 4.05.8 2.65.15 1.3.05.95-.35.7-.45.2-.55.25-3.65.85h-.25l1.45-3.8q.95-2.5.3-4.45l-.5-1.2-1.15-1.8M33.4 12.2h-3.05l-.4.05q.75-3.2.75-5l-.25-2.1-.1-.35-.3-.85.85-.85q.75.75 1.55 5.45.45 2.6.95 3.65" fill="#bb6e86" fill-rule="evenodd"/><path d="m76.1 7.55.5 1.2q.65 1.95-.3 4.45L74.85 17q-1.35-.2-2.45-.7h-.05l1.6-4.3q1.15-2.7 2.15-4.45" fill="#e2ad95" fill-rule="evenodd"/><path d="m74.95 5.75 1.15 1.8q-1 1.75-2.15 4.45l-1.6 4.3q-1.25-.6-2.25-1.65l-.5-.55.4-.65q1.5-2.6 2.95-4.85 1.15-1.8 2-2.85" fill="#ffd1ae" fill-rule="evenodd"/><path d="m39.45 11.3.25-.05 1.7.25q.05 1.05.45 2.4l-1.1.1-1.85-.2-.85 1.55-.15.35q-1.1 2.4-3.15 5.45-2.65 4-4.45 9.15-1.4 3.9-1.8 8.25l-.2 2.95.15 2.85q.35 3.5 1.95 6.95l.65 1.4 2 2.65q2.8 3.8 5.55 3.85h.4q1.6-.25 4.8-2.5l4.85-3.9q1.45-1.25 1.9-2.15l.4-1.2.1-.2q-1.25-6.35.2-12.6 1.2-5.15 2.9-10.05 2.15-6.35 5.65-12l-2.7.05-2.9-.25.4-.65.3-.65.05-.05.05-.1v-.35l.15-.05 1.3-.2 3.4-.1h2.2l-.3.9-.55 1.15-.4.85q-3.3 7-5.85 14.35-1.1 3.1-1.8 6.3l-.3 1.6q-.6 3-.85 6.15v.05l-.1 1.6v3.4l.15.85v.1l-.1.65v.7l-.45.25-.85 1.25-.4.5-.2.2-2.25 2.2-4 2.75q-3.3 2.4-5.1 2.4l-1.55-.3-.25-.1q-2-.8-4.3-3.25-3-3.15-3.15-4.6l-.35-.8-.9-2.35-.5-1.9-.4-2.35-.05-.45-.1-1v-.15l-.05-3.5v-.1l.1-1.05.3-2.45.05-.15q.25-1.85.8-3.65 1.55-5.35 4-10.15 1.2-2.3 2.9-4.65l1.25-1.8 1.4-1.85h.15l.05-.3.2-.3.4-.85v-.05l.7-.75.05-.3" fill="#3e3063" fill-rule="evenodd"/><path d="m42.7 11.6.75 1.3q1.7 2.75 4.9 2.35Q51.55 14.8 52 12q.35-2.6-1.25-5.25l.5.4q1.25 1.05 2 2.4.75 1.3-.1 3.55-.9 2.2-3.1 3.3-2.2 1.05-4.35.05-2.25-1.05-2.85-3.6l-.15-1.25" fill="#e58c20" fill-rule="evenodd"/><path d="m41.4 11.5-.05-.25.1-.8q0-1.15.25-2 .55-1.4 1.7-2.25l.55-.3.85-.5.7-.35.75-.3 4.7.2q2.5.6 3.85 3.05 1.25 2.25.35 4.55l-.15.05v.35l-.05.1-.05.05-.3.65-.4.65q-.9 1.35-2 2.1-1.65 1.1-3.6 1.3-1.95.2-4-.6-1.9-.8-2.5-2.35l-.1-.3-.15-.65q-.4-1.35-.45-2.4m1.3.1.15 1.25q.6 2.55 2.85 3.6 2.15 1 4.35-.05 2.2-1.1 3.1-3.3.85-2.25.1-3.55-.75-1.35-2-2.4l-.5-.4-.4-.2-1.75-.3-.65.05q-1.3.1-2.5.6l-.5.35-1 .9-.15.3-.05.05q-1 1.7-1.1 2.5-.1.75.05-.1v.7" fill="#a14213" fill-rule="evenodd"/><path d="M50.75 6.75Q52.35 9.4 52 12q-.45 2.8-3.65 3.25-3.2.4-4.9-2.35l-.75-1.3v-.7q-.15.85-.05.1.1-.8 1.1-2.5l1.7 1.5.75.1q.9.05 1.85-.9.9-1 .7-2.2l-.15-.75 1.75.3.4.2m-2.9 3.85q-.6 0-1.05.35-.4.4-.4.95 0 .55.4.9.45.4 1.05.4.6 0 1-.4.45-.35.45-.9l-.45-.95q-.4-.35-1-.35M34.4 35.55q-.4-1.05-.45-2.25V33q0-2.5 1.45-4.25l-.05.2q0 2.8 2.1 2.8.95 0 1.7-.85.7-.8.7-1.6 0-.7-.8-1.5-.55-.55-1.2-.8l1.55-.25.5.05q1.25.95 2.2 2.6 1.2 2.2-.2 5.45-1.45 3.2-4.6 2.55-1.95-.45-2.9-1.85M8.8 58.45q0-1.05.55-1.8l.3-.45q.9-.9 2.15-.9l.75.1.55.65.3 1.4q0 1-.55 1.8-.6.85-1.5.85-1.8 0-2.5-1.3l-.05-.35m30.85-23.6q.4-.4.4-1t-.4-1q-.4-.4-1-.4t-1 .4q-.4.4-.4 1t.4 1q.4.4 1 .4t1-.4M10.75 56.3l-.7.2q-.15.15-.15.65l.05.3q.15.65.95.65 1 0 1-1l-.25-.7-.9-.1" fill="#ffe56a" fill-rule="evenodd"/><path d="m48.6 6.25.15.75q.2 1.2-.7 2.2-.95.95-1.85.9l-.75-.1-1.7-1.5.05-.05.15-.3 1-.9.5-.35q1.2-.5 2.5-.6l.65-.05m24.9 58.3q-.45.45-1.1.45l-1.1-.45q-.45-.45-.45-1.1 0-.65.45-1.1.45-.45 1.1-.45.65 0 1.1.45.45.45.45 1.1 0 .65-.45 1.1" fill="#fffbd9" fill-rule="evenodd"/><path d="M47.85 10.6q.6 0 1 .35l.45.95q0 .55-.45.9-.4.4-1 .4t-1.05-.4q-.4-.35-.4-.9t.4-.95q.45-.35 1.05-.35M35.4 28.75l.15-.2q1-1.15 2.3-1.55.65.25 1.2.8.8.8.8 1.5 0 .8-.7 1.6-.75.85-1.7.85-2.1 0-2.1-2.8l.05-.2m4.25 6.1q-.4.4-1 .4t-1-.4q-.4-.4-.4-1t.4-1q.4-.4 1-.4t1 .4q.4.4.4 1t-.4 1" fill="#fffbda" fill-rule="evenodd"/><path d="m57.1 14.65 2.7-.05q-3.5 5.65-5.65 12-1.7 4.9-2.9 10.05-1.45 6.25-.2 12.6l-.1.2-.4 1.2q-.45.9-1.9 2.15l-4.85 3.9q-3.2 2.25-4.8 2.5h-.25l-.05-.05q2.95-2.05 4.9-4.05 3.7-3.75 3.3-7.55l-.05-.35q-.45-6.6 1.75-14.3 2.3-7.9 4.35-11.5l4.15-6.75m-19.95 45.5 1.55.3q1.8 0 5.1-2.4l4-2.75 2.25-2.2.2-.2 5.95.65-2 1.6L49.7 58l-4.2 2.1q-2.25 1.05-5.05 1.55-2.6.4-3.3-1.5" fill="#8a86a9" fill-rule="evenodd"/><path d="m57 35.55 2.1-1.1 2.4-1.2-.15 1.4q-.05 1.15.35 2.6l-.15.1-.65.35q-.75-.65-1.75-.65-1.05 0-1.8.7t-.75 1.7q0 .75.4 1.3l-.45.25-.05-1.85q.1-1.85.5-3.6" fill="#800f2d" fill-rule="evenodd"/><path d="M60.55 47.3q-1.35-.4-2.6-1.15-2.5-1.55-3.1-4.3l-.1-.45-.05-.2q-.4-2.1-.55-4.35l2.85-1.3q-.4 1.75-.5 3.6l.05 1.85q.2 1.45.9 2.85.55 1 1.25 1.85l.3.35 1.55 1.25" fill="#3f0001" fill-rule="evenodd"/><path d="M39.9 26.8q1.9.15 3.35 1.75 1.6 1.85 1.6 4.45t-1.6 4.4q-1.6 1.85-3.85 1.85t-3.85-1.85q-.75-.85-1.15-1.85.95 1.4 2.9 1.85 3.15.65 4.6-2.55 1.4-3.25.2-5.45-.95-1.65-2.2-2.6" fill="#e48b20" fill-rule="evenodd"/><path d="m56.55 41 .45-.25.35.4q.75.7 1.8.7t1.8-.7q.75-.7.75-1.7l-.05-.6-.7-1.1-.05-.05.65-.35.15-.1.25.75.2.65 1.25 3.15.95 1.8-.55.8-.8.65q-1.95 1.15-4 1l-.3-.35q-.7-.85-1.25-1.85-.7-1.4-.9-2.85m16.75-8.8.1.45.25 1.45L71 38.05q-1.8 2.15-4 3.65l-1.65.95-.1-1.45-.15-3.45v-2.3l.45-.2Q70 33.1 73.3 32.2M62.8 43.15l-.8-.25q-.5 0-.85.25-.3.3-.3.7 0 .4.3.65.35.3.85.3l.8-.3.35-.65-.35-.7" fill="#e45347" fill-rule="evenodd"/><path d="M54.75 41.4 52 43.55q.25-3.15.85-6.15l1.3-.55q.15 2.25.55 4.35l.05.2" fill="#ae9ede" fill-rule="evenodd"/><path d="M71.55 42.75q-.9 1.9-3.05 3.3-2.2 1.4-5.1 1.55l-2.85-.3L59 46.05q2.05.15 4-1l.8-.65.55-.8 1.1 1.5-.1-2.45L67 41.7q2.2-1.5 4-3.65l2.65-3.95q.15 2.05-.45 4.3-.85 3.05-2.8 5l1.15-.65" fill="#fd8f1c" fill-rule="evenodd"/><path d="m75.45 31.6.1 1.9q.1 2.65-1.25 5.7-1.05 2.35-2.75 3.55l-1.15.65q1.95-1.95 2.8-5 .6-2.25.45-4.3l-.25-1.45-.1-.45q-.55-2-1.9-3.55l3.65-1.3.15 1.5.25 2.75" fill="#3e0000" fill-rule="evenodd"/><path d="M65.1 35.45q.1-2.3.85-4.45l1.8-.85q1.4-.7 3.65-1.5 1.35 1.55 1.9 3.55-3.3.9-7.75 3.05l-.45.2" fill="#902040" fill-rule="evenodd"/><path d="m61.7 37.25 3.4-1.8v2.3l.15 3.45.1 1.45.1 2.45-1.1-1.5-.95-1.8-1.25-3.15-.2-.65-.25-.75" fill="#5e0002" fill-rule="evenodd"/><path d="m62.8 43.15.35.7-.35.65-.8.3q-.5 0-.85-.3-.3-.25-.3-.65t.3-.7q.35-.25.85-.25l.8.25" fill="#fad4c7" fill-rule="evenodd"/><path d="M29.95 12.25 28 12.3q1.15-1.35 1.4-3.75.3-2.5.95-3.75l.1.35.25 2.1q0 1.8-.75 5" fill="#e3af96" fill-rule="evenodd"/><path d="M28 12.3h-.3l-2.05-.4-.4-.35 1.9-3.05q1.8-3.2 2.9-4.55l.3.85q-.65 1.25-.95 3.75-.25 2.4-1.4 3.75" fill="#fcceab" fill-rule="evenodd"/><path d="m27.1 39.7.05 3.5v.15l-.7.5q-.25-1.5-1-2.4l.1-.1.5-.15.15-.1q.7-.4.85-1.15l.05-.25M15.3 24.3l1.6 1.5.2.15 1 .9q-.65 1.3-.75 3V30q-1.25-1.25-2.75-2.15l.05-.2.05-2.3.6-1.05" fill="#ad9ede" fill-rule="evenodd"/><path d="m18.75 31.05.1-1.25.15-.8.25-1.15.7.55.8.6-.05.1q-.35.9-.25 3.25h-.1l-1.6-1.3" fill="#821230" fill-rule="evenodd"/><path d="m19.5 37.55-.05-.15-.05-.25-.35-1.6-.15-1.1v-.15l.15.2q.4.4.95.4l.65-.15q.2 1.25.65 2h-.1l-.7.2q-.25.25-.25.6v.05l-.75-.05m-.7-4.45-.05-2.05 1.6 1.3-.35-.05q-.55 0-.95.35l-.25.45" fill="#dd4349" fill-rule="evenodd"/><path d="m20.5 40.55-.3-.65-.05-.15-.65-2.2.75.05.25.5.7.25.4-.05q.35.9.8 1.3.5.5.75.4l-.2-3.1.95 1.05 1.8 1.95-.1.35q-.3 1-.05 1.1l-.1.1-.45.25q-.8.4-1.4.4-.8 0-2.05-.75l-1.05-.8" fill="#f67434" fill-rule="evenodd"/><path d="M22.95 36.9q-.05-1.95.15-3.2.2-1.25.55-2.4l.2.2.2.15 1.3 1.15.75.6v3.25l-.4 3.25-1.8-1.95-.95-1.05" fill="#962a42" fill-rule="evenodd"/><path d="m21.1 34.25 1.85 2.65.2 3.1q-.25.1-.75-.4-.45-.4-.8-1.3l.25-.2.3-.55-.3-.6-.55-.2q-.45-.75-.65-2l.25-.25.2-.25" fill="#5f0002" fill-rule="evenodd"/><path d="m61 72.95 1.35-3.35-1.45-.1-9-.95-12.6-1.3-11-1.1-6.8-.65-.65-.05-2.2-.4q.1 3.9.55 5.25l.45.4 5.2.4 17.55 1.65 18.2 1.1.4-.9M38.25 65.7l11.8.95 10.9 1 3.15.35-1.2 4.4-.25.7q-.5 2.45-.7 2.3.1 1.2-9.05.05L29.7 73.3l-11-1.2q-.65.35-1.1-2.8-.45-3.15-.15-5.4h.05q0-.1.15-.1l.05-.05.35-.05h1.15l7.9.7 11.15 1.3M64.1 68l-.95-.05q.4.05.05.05h.9" fill="#40356c" fill-rule="evenodd"/><path d="m9.9 60.9-.25-.25q-.75-.8-.8-1.85.7 1.3 2.5 1.3.9 0 1.5-.85.55-.8.55-1.8l-.3-1.4-.55-.65q.8.2 1.4.8.85.9.85 2.25 0 1.3-.85 2.2-.9.95-2.15.95-1.1 0-1.9-.7" fill="#e2881f" fill-rule="evenodd"/><path d="m10.75 56.3.9.1.25.7q0 1-1 1-.8 0-.95-.65l-.05-.3q0-.5.15-.65l.7-.2" fill="#fffdde" fill-rule="evenodd"/><path d="m13.8 82.6-.25 4.45q-.95 2.65-4.4 8.3-.6-1.95-1.75-3.65l-.65-.95 1.2-.8L9.1 92.4l1.65-2.75 1.45-2.7q.4-.75.25-3.9l-.1-1.15.15.05 1.3.65" fill="#5afffe" fill-rule="evenodd"/><path d="M6.75 90.75v-.05l-2-2.55q-.65-.75-.7-1.2-.05-.4 3.1-6.1l.95.1-.4 1.1-1.05 2.7-.1.3-.1.9q0 .8 1.1 3.1l.4.9-1.2.8" fill="#fdfffd" fill-rule="evenodd"/><path d="M6.55 85.05q1.2.4 1.7.95.6.65.6 1.85 0 1.25-.9 2.1l-.4-.9q-1.1-2.3-1.1-3.1l.1-.9" fill="#ddffb5" fill-rule="evenodd"/><path d="M38.05 86.05h-.4l-2.15.1-.05-.95 8.95.75 9.35.85-.1 1.95Q53.7 92 52.5 93.6q-1.25 1.6-4.8 2.2-2.25.4-4.8 0l2-.65q1.95-.65 2.65-3.15.65-2.55-3.1-4.25l-2.35-.95-.15-.05q-2.05-.7-3.9-.7" fill="#746bab" fill-rule="evenodd"/><path d="m35.5 86.15 2.15-.1h.4l-.25 8.2q-2.45-1.35-2.35-3.55l.05-4.55m1.5 11.5 2.2.55.1.05v11.55l-.4-.6q-2.1-3.05-1.95-8.1v-.4l.05-3.05" fill="#bac3d5" fill-rule="evenodd"/><path d="m39.3 98.25-.1-.05-2.2-.55-.2-2q1.9 1.1 3.95 1.7 6.5 1.7 10.3-.4-.15 2.85.1 5.65.4 4.1-.75 6.35-1.05 1.9-4.85 7.2l.35-3.45-.25-5.65q-.2-2.1-1.05-3.95l-.65-1.3-.45-.7-1.1-1.2-.25-.2q-1.2-.95-2.75-1.45h-.1" fill="#8a7ebd" fill-rule="evenodd"/><path d="M69.6 64.3q.05-1.55 1-2.55l.75-.55q.85-.5 1.85-.5l.6.05q1.1 1.2 1.1 2.75 0 1.25-.65 2-.65.7-1.8.7-.95 0-1.75-.6l-1.1-1.3m3.9.25q.45-.45.45-1.1 0-.65-.45-1.1-.45-.45-1.1-.45-.65 0-1.1.45-.45.45-.45 1.1 0 .65.45 1.1l1.1.45q.65 0 1.1-.45" fill="#ffe86b" fill-rule="evenodd"/><path d="M73.8 60.75q1.1.15 1.8 1 .85 1.05.85 2.6 0 1.5-.85 2.55-.9 1.05-2.4 1.05t-2.6-1.1q-1-1-1-2.5v-.05l1.1 1.3q.8.6 1.75.6 1.15 0 1.8-.7.65-.75.65-2 0-1.55-1.1-2.75" fill="#e68d20" fill-rule="evenodd"/><path d="m58.05 51.6-1.85 1.95-5.95-.65.4-.5.85-1.25.45-.25.05-.1 1.3.45 4.75.35" fill="#bbafcc" fill-rule="evenodd"/><path d="m78 100-.9 1.15-.45-.5-3.9-5.05q-.3-.4-.25-1.05.1-1.65 1.15-4.15l.55-1.6 1.25.1-.75 4.65-.1.55q1.35 2.95 3.4 5.9" fill="#fbfffb" fill-rule="evenodd"/><path d="M74.7 93.55q1.55-.45 3.35.8 1.95 1.3.8 4.1L78 100q-2.05-2.95-3.4-5.9l.1-.55" fill="#d9ffb5" fill-rule="evenodd"/><path d="M39.9 26.8q1.9.15 3.35 1.75 1.6 1.85 1.6 4.45t-1.6 4.4q-1.6 1.85-3.85 1.85t-3.85-1.85q-.75-.85-1.15-1.85-.4-1.05-.45-2.25V33q0-2.5 1.45-4.25l.15-.2q1-1.15 2.3-1.55l1.55-.25.5.05m-30 34.1-.25-.25q-.75-.8-.8-1.85l-.05-.35q0-1.05.55-1.8l.3-.45q.9-.9 2.15-.9l.75.1q.8.2 1.4.8.85.9.85 2.25 0 1.3-.85 2.2-.9.95-2.15.95-1.1 0-1.9-.7m59.7 3.4q.05-1.55 1-2.55l.75-.55q.85-.5 1.85-.5l.6.05q1.1.15 1.8 1 .85 1.05.85 2.6 0 1.5-.85 2.55-.9 1.05-2.4 1.05t-2.6-1.1q-1-1-1-2.5v-.05z" fill="none" stroke="#9c3b0e" stroke-linecap="round" stroke-linejoin="round"/></g><g id="k" fill-rule="evenodd"><path d="m18.8 12.65-.6-.65q-.65-.75-.9-.65l-4.35-1.6q-2.2-.85-3.2-1.8-.85-.75-.8-1.6.05-1.8 4.4-4.1Q16.7.45 21.1.1h.1l1.25-.05h.1L23.8 0q6.15.05 11.3 3.2L44 8.75q2.2 1.5 4.2 3.9l.25.25 2.3 2.6 1.4 1.6 1.2 1.65 2.35 3.8q1.8 3.1 3.45 7.2 3.2 7.7 2.75 12.1l-.55 2.75-.8-1.4-.9-1.1-.3-.35-.25-.3-.2-1.35-.2-1.55q-.9-6.05-1.7-7.5l-2.05-3.95-1.85-3.6-.5-.95-1.85-2.9-.7-1.05-2.35-2.65-.15-.2-3.05-3.1-3.8-3.1-7.1-4.2Q30.7 3.8 29.45 3.3l-2.1-.65-4.4-.4.7 1.9.05.2.35 1.5q.25 2.6-1.55 4.55l-.1.1-1.75 1.5h-.05l-1.05.1q-.5.1-.75.55m4-7L22.75 5l-.15-.85-.55-1.9Q18.5 2.3 15.5 4q-3.1 1.7-3.3 2.05l.2.25 2.7 1.3.95.35q4.05 1.5 3.9 3.05h.15l.65-.4.3-.15.4-.2q.65-.4 1.1-1.3.45-1.05.25-3.3" fill="#6d384b"/><path d="M22.5 10.4q1.8-1.95 1.55-4.55l-.35-1.5-.05-.2h.25q9.15.25 19.2 9.4l4.6 4.7.35.35 2.7 3.45.35.5q3.25 4.7 4.55 9.5l-.8-1.35-.05-.05-2.05-4.3L49.9 22q-2.5-2.95-5.75-5.85-3.25-2.95-5.3-4.15-2.1-1.25-5.1-2.75Q30.7 7.7 29.5 7.7q-1.25 0-2.55.9-1.3.9-1.3 2.2l.05.15-3.2-.55m.1-6.25.15.85.05.65h-.3q-3.85 0-6.6 1.45-.4.2-.8.5l-2.7-1.3q4.25-2.15 10.2-2.15" fill="#bb6e86"/><path d="M15.1 7.6q.4-.3.8-.5 2.75-1.45 6.6-1.45h.3q.2 2.25-.25 3.3-.45.9-1.1 1.3-.45-.05-.7.35l-.65.4h-.15q.15-1.55-3.9-3.05l-.95-.35m11.25 3.5-.6-.1-.05-.05-.05-.15q0-1.3 1.3-2.2 1.3-.9 2.55-.9 1.2 0 4.25 1.55 3 1.5 5.1 2.75 2.05 1.2 5.3 4.15 3.25 2.9 5.75 5.85l2.85 4.35 2.05 4.3-2.85-4.1q-2.85-3.55-6.3-6.7-3.65-3.25-6.85-4.9-3.2-1.7-6.05-3.05-2.5-1.2-6.4-.8" fill="#e2ad95"/><path d="m23.65 4.15-.7-1.9 4.4.4 2.1.65q1.25.5 4.15 2.05l7.1 4.2 3.8 3.1 3.05 3.1.15.2 2.35 2.65.7 1.05 1.85 2.9.5.95 1.85 3.6L57 31.05q.8 1.45 1.7 7.5l.2 1.55q-.95-3.5-2.35-6.3l-.5-1-.4-.75q-1.3-4.8-4.55-9.5l-.35-.5-2.7-3.45-.35-.35-4.6-4.7Q33.05 4.4 23.9 4.15h-.25m-1.05 0q-5.95 0-10.2 2.15l-.2-.25q.2-.35 3.3-2.05 3-1.7 6.55-1.75l.55 1.9m33.85 33.5.25.35 1.6 2.3-.05.05-.5-.6-2.85-3.2-2.1-1.75-2-1.3-3.85-2.25-1.6-.8-.75-.35-3.5-.95-.5-.15-.6-.05-.4-1.15 6.45 1.65q5.4 1.55 10.4 8.2M22.7 35.8q.85-.45 2.2-.45.7 0 2.2.5l1.6.5q.25.65.85 1.3l.4.4.2 1.5Q26.2 36.6 22.7 35.8" fill="#58fdf9"/><path d="m20.65 12 1.75-1.5.1-.1 3.2.55.05.05.6.1 4.55 1.3q5.4 1.85 10.2 5.2 4.75 3.35 8.65 7.9 3.25 3.8 5.05 7l.2.3.5 1 2.85 5.85-.05.65-1.6-2.3-.25-.35q-2.15-3.95-5.5-7.2L44.2 24.1q-3.2-2.95-7.15-4.75-3.95-1.85-7.75-1.5-2.65.45-3.4 4.25-.75 3.75-.05 7.3.65 3.5 1.45 5.6L23 32.7q-2.2-1.35-5.15-2.55-3-1.25-5.45-.3-2.5.9-3.75 3.75-1.3 2.85-1.55 4.9l-.25 2.6-.55.2q-.8 0-1-.8l-.1-1.75.1-1.85q0-1.5-1.7-3.15l-2.45-2.1 1.45-.35q1.85-.6 7.15-4l4-2.65-.25.3 2.55-2.45q2.45-2.95 3.55-5.3 1.1-2.45 1.15-3.7l-.05-1.4-.05-.1" fill="#531f71"/><path d="M18.8 12.65q.25-.45.75-.55l1.05-.1.1.1.05 1.4q-.05 1.25-1.15 3.7-1.1 2.35-3.55 5.3l-2.55 2.45.25-.3-4 2.65q-5.3 3.4-7.15 4l-1.45.35h-.1q-1.35-.2-.95-.45l.6-.25 1.9-.8.95-.3 4.15-1.7.35-.3q-.3-.45-.35-1.2-.05-.75 3.6-3.3 3.7-2.5 5.2-5.35 1.4-2.95 1.8-4.4l.5-.95m40.3 28.8.25.3.3.35.9 1.1.8 1.4.25 1.15q-.2.95-.6 1.05l-.45-.1-1.8-2.55-1.3-1.35-4.95-4.55q-3-2.5-5.1-4.05-2.15-1.6-3.6-1.6-4-1.7-7.15-1.15-3.2.55-4.05 3.2-.7 1.95-.75 4.6l.05 1.95q-.45 1.6-3.85-.5-3.3-1.95-7.25-3l-.65-.2q-4.3-1.15-9.2 1l-.2.05-.1.15-.9 1.1-.95 1.1q-.45.3-.45-.8l.05-.85q.1-2 4.35-3.15 4.2-1.2 7.75-.65l2.2.35q3.5.8 7.45 3.75l-.2-1.5q-.2-2.9.85-5.65 1.3-3.45 5.4-3.6l3.8.15.6.05.5.15 3.5.95.75.35 1.6.8 3.85 2.25 2 1.3 2.1 1.75 2.85 3.2.5.6.05.05.15.2.3.4.35.45" fill="#210036"/><path d="m8.35 40.1-.35.25-1.15.75.25-2.6q.25-2.05 1.55-4.9 1.25-2.85 3.75-3.75 2.45-.95 5.45.3 2.95 1.2 5.15 2.55l4.3 2.3q-.8-2.1-1.45-5.6-.7-3.55.05-7.3.75-3.8 3.4-4.25 3.8-.35 7.75 1.5 3.95 1.8 7.15 4.75l6.75 6.35q3.35 3.25 5.5 7.2-5-6.65-10.4-8.2L39.6 27.8l-3.35-.4q-3.1-.05-5.05 3-2 3-2.35 5.95h-.15l-1.6-.5q-1.5-.5-2.2-.5-1.35 0-2.2.45l-2.2-.35q-3.55-.55-7.75.65-4.25 1.15-4.35 3.15l-.05.85" fill="#3d0550"/><path d="m58.9 40.1.2 1.35-.35-.45-.45-.7.05-.65-2.85-5.85-.5-1-.2-.3q-1.8-3.2-5.05-7-3.9-4.55-8.65-7.9-4.8-3.35-10.2-5.2l-4.55-1.3q3.9-.4 6.4.8 2.85 1.35 6.05 3.05 3.2 1.65 6.85 4.9 3.45 3.15 6.3 6.7l2.85 4.1.05.05.8 1.35.4.75.5 1q1.4 2.8 2.35 6.3" fill="#6a354c"/><path d="M28.7 36.35h.15q.35-2.95 2.35-5.95 1.95-3.05 5.05-3l3.35.4.4 1.15-3.8-.15q-4.1.15-5.4 3.6-1.05 2.75-.85 5.65l-.4-.4q-.6-.65-.85-1.3" fill="#496795"/></g><use ffdec:characterId="2" height="68.1" transform="translate(0 40.15)" width="134.75" xlink:href="#h" id="d"/><use ffdec:characterId="9" height="39.2" width="57.7" xlink:href="#i" id="e"/><use ffdec:characterId="11" height="120" width="110.35" xlink:href="#j" id="f"/><use ffdec:characterId="17" height="46.85" width="61.95" xlink:href="#k" id="g"/><path d="M27.75-2.3q0 2-8.15 3.4Q11.5 2.6 0 2.6q-11.5 0-19.65-1.5-8.1-1.4-8.1-3.4 0-2.05 8.1-3.5Q-11.5-7.2 0-7.2q11.5 0 19.6 1.4 8.15 1.45 8.15 3.5" fill-opacity=".349" fill-rule="evenodd" transform="translate(27.75 7.2)" id="b"/></defs></svg>