<svg xmlns:ffdec="https://www.free-decompiler.com/flash" xmlns:xlink="http://www.w3.org/1999/xlink" ffdec:objectType="frame" height="90" width="90" xmlns="http://www.w3.org/2000/svg"><use ffdec:characterId="31" height="224.8" transform="matrix(.3985 0 0 .3982 2.291 0)" width="209.8" xlink:href="#a"/><defs><use ffdec:characterId="2" height="18.1" width="21.1" xlink:href="#b" id="p"/><use ffdec:characterId="5" height="29.6" width="43" xlink:href="#c" id="q"/><use ffdec:characterId="4" height="29.6" width="43" xlink:href="#d" id="c"/><use ffdec:characterId="7" height="72.9" width="99.6" xlink:href="#e" id="r"/><use ffdec:characterId="9" height="34.7" width="30.1" xlink:href="#f" id="s"/><use ffdec:characterId="11" height="37.7" width="32.55" xlink:href="#g" id="t"/><use ffdec:characterId="13" height="85" width="39.15" xlink:href="#h" id="u"/><use ffdec:characterId="15" height="89" width="91.05" xlink:href="#i" id="v"/><use ffdec:characterId="17" height="45.25" width="119" xlink:href="#j" id="w"/><use ffdec:characterId="19" height="82.15" width="52.8" xlink:href="#k" id="x"/><use ffdec:characterId="21" height="38.15" width="60.85" xlink:href="#l" id="y"/><use ffdec:characterId="23" height="63.9" width="21.2" xlink:href="#m" id="z"/><use ffdec:characterId="25" height="96.05" width="102.85" xlink:href="#n" id="A"/><g id="a" transform="translate(-5.75)"><use ffdec:characterId="1" height="9.8" transform="matrix(2.7252 0 0 5.1344 45.125 174.492)" width="55.5" xlink:href="#o"/><use ffdec:characterId="3" height="18.1" transform="translate(71.65 52) scale(1.1509)" width="21.1" xlink:href="#p"/><use ffdec:characterId="6" height="29.6" transform="translate(163.5 67.2) scale(1.1509)" width="43" xlink:href="#q"/><use ffdec:characterId="8" height="72.9" transform="translate(77.85) scale(1.1509)" width="99.6" xlink:href="#r"/><use ffdec:characterId="10" height="34.7" transform="translate(164.6 86.8) scale(1.0529)" width="30.1" xlink:href="#s"/><use ffdec:characterId="12" height="37.7" transform="translate(52.25 174.45) scale(1.1509)" width="32.55" xlink:href="#t"/><use ffdec:characterId="14" height="85" transform="translate(153.35 104.55) scale(1.1509)" width="39.15" xlink:href="#u"/><use ffdec:characterId="16" height="89" transform="translate(82.85 83.45) scale(1.1509)" width="91.05" xlink:href="#v"/><use ffdec:characterId="18" height="45.25" transform="translate(38.85 63.05) scale(1.1509)" width="119" xlink:href="#w"/><use ffdec:characterId="20" height="82.15" transform="translate(90.7 128.05) scale(1.1509)" width="52.8" xlink:href="#x"/><use ffdec:characterId="22" height="38.15" transform="translate(124.7 95.6) scale(1.1509)" width="60.85" xlink:href="#y"/><use ffdec:characterId="24" height="63.9" transform="translate(113 110.3) scale(1.1509)" width="21.2" xlink:href="#z"/><use ffdec:characterId="30" height="96.05" transform="translate(8.4 80.25) scale(1.1509)" width="102.85" xlink:href="#A"/></g><g id="b" fill-rule="evenodd"><path d="M13.3 2.45 15 5.2v.05q0 2.25-1.9 3.95-1 .9-2.15 1.3l-2.5.45-1.85-.05-1.85-.35h-2.1q.5-.6 1.3-1.05 2.4-1.35 4.95-2.3l3.7-1.5.25-.15.45.2h.15l.7-.2.15-.1.05-.25-.15-.15H14l-.6.15L6 2.45h7.3" fill="#509a21"/><path d="M13.3 2.45H6l7.4 2.75.6-.15h.2l.15.15-.05.25-.15.1-.7.2h-.15l-.45-.2-.25.15-3.7 1.5q-2.55.95-4.95 2.3-.8.45-1.3 1.05l-.15.15q-.7.95-.55 2.25l.25 2.65.35 1.1 6.75-5.55.1-.05.05-.05L14.8 9.6l.2.05.4.1.75.2-1.2.2L9.6 11.6l-6.95 5.75-.05.05-.2.15h18.4l.2.1.1.15v.1l-.1.1-.2.1H1.65l-.15-.05-.1-.1v-.2l.1-.1.65-.55-.05-.05V17l-.4-1.3-.3-2.7q-.3-2.6 2.3-4 2.45-1.35 5-2.3l3.45-1.4L4.4 2.45l-.15-.15-.05-.2.1-.1.2-.1h7.95l.6.15-.55-.9.35.15.4 1.1h-.2q-.45 0 .25.05" fill="#28401a"/><path d="m2.1 17-.95-1.6Q0 13.1 0 11.2q0-2 2.45-3.45.65-.4 2-1.05l1.25-.8-1.35-1.2Q2.7 3.1 2.7 2.15l.35-1.2.05-.2Q4.65 0 5.75 0l1.9.15L9.8.3 9.45.05l3.05 1.1.55.9-.6-.15H4.5l-.2.1-.1.1.05.2.15.15 7.75 2.85L8.7 6.7q-2.55.95-5 2.3-2.6 1.4-2.3 4l.3 2.7.4 1.3" fill="#304a1d"/><path d="M2.65 10.55h2.1l1.85.35 1.85.05 2.5-.45q1.15-.4 2.15-1.3Q15 7.5 15 5.25h.05l1 1.7-.75 2.3v.2l.15.15-.05.15-.4-.1-.2-.05-5.35 1.45-.05.05-.1.05-6.75 5.55-.35-1.1-.25-2.65q-.15-1.3.55-2.25l.15-.15m13.5-.6 1.5.7 3.45 6.95-.1.05-.2-.1H2.6v-.15l.05-.05L9.6 11.6l5.35-1.45 1.2-.2" fill="#4b6f2d"/></g><g id="d" fill-rule="evenodd"><path d="M13.85 1.95Q15.55 1.5 16.6.4l.3-.4 1.05.55L19.2.6l5.55-.25L33.3.9q6.9.85 6.9 2.6 0 1.6-2.5 2.25-3.35.95-4 1.5.6.6 5.1 3.45 4.2 3.05 4.2 5 0 .85-.75 1.1l-1.8.15-6.95-.45-4.15-.3-2.75-2.1-1-.7 1.1.15 12.8 1.9h.15l.1-.15v-.2l-.1-.15L28 7.15l9.15-2.5.15-.1.05-.15-.05-.15-.15-.1Q28.5 2.1 20.05 2.8l-.15.05h-.1l-3.45.4-.15-.05-.8-.4-1.55-.85" fill="#1e3116"/><path d="m13.85 1.95 1.55.85.8.4.15.05h-.1l-1.2.25-1.55.3-.25-.55V3l.5-1 .1-.05m11.4 5.3-4.35-.4Q16.55 6.2 15.25 4l1.05-.2 3.55-.45.1-.05.15.05q7.9-.7 15.9 1.1l-8.5 2.3h-.2l-2.05.5m4.9 2 8.2 5.5-10.3-1.55q.05-1.05.7-2.25l1.4-1.7" fill="#3f7c1c"/><path d="M13.5 5.9V4.35L15.25 4q1.3 2.2 5.65 2.85l4.35.4-5.2 1.1-.15.05h-.15l-5.7 1.25q.3-.5.95-1l.9-1-1.5-1.15-.9-.6m9 6.45 3.15-2.65q1.4-1.05 2.4-1.45l.4-.15 1.7 1.15-1.4 1.7q-.65 1.2-.7 2.25l-1.4-.2-4.05-.6-.1-.05m2.35 6 1.65 3.6.05.1 1.5 3.2-6.45-7.1h.45l1.65.15 1.15.05m5.4 1.9 3.75 1.9-3.2-.25-.55-1.65" fill="#3f5c29"/><path d="m26.7 13.55-1.1-.15-2.95-.4-.15-.05h-.05l-.5-.1-1.9-.25-4.1-.6 2.3 2.5h.05l1.85 2.05.05.1.1.1 1.3 1.4 6.45 7.1-1.5-3.2-.05-.1-1.65-3.6-.55-1.1V17l.2-.15h.2l10.75 5.4.1.15.05.2-.1.1-.2.05-8.1-.55 2 4.4.05.15-.1.2h-.2l-.15-.1-3.25-3.55-5.65-6.2-.05-.1-.1-.1-1.8-1.9q-8.15-.85-14.3 1.3l-2.25.95-.25-.05-.1-.2.05-.2.2-.1 1.6-.8q6.95-3.2 14.65-1.4l-2.4-2.6L6.3 9.55V9.5q1.95-.15 5.15.7l2.6-.55 5.7-1.25h.15l.15-.05 5.2-1.1 2.05-.5h.2l.35.9v.05l-.55-.35-7.15 1.55H20l-.15.05-7.25 1.55 2.45.85.15-.05h.1l4.85.75 2 .45h.1l.05.05.05-.1h.1l.15-.05 4.05.6.05.55m-13.2-9.2V3.8l1.55-.3 1.2-.25v.1l.05.45-1.05.2-1.75.35M30.8 21.9l3.2.25-3.75-1.9-5.15-2.55 1.85 3.95 3.85.25" fill="#130602"/><path d="M26.3 26.05q-7.65-2.6-11.45-4.15-6.15-2.45-11.2-5.6 6.15-2.15 14.3-1.3l1.8 1.9.1.1.05.1 5.65 6.2.75 2.75M6.3 9.5q5.55-.85 6.7-3.9l.5.3.9.6 1.5 1.15-.9 1q-.65.5-.95 1l-2.6.55q-3.2-.85-5.15-.7m15.95 3h-.1l-2-.45-4.85-.75h-.1l-.15.05-2.45-.85 7.25-1.55.15-.05h.15l7.15-1.55.55.35h.05l.55.4-.4.15q-1 .4-2.4 1.45l-3.15 2.65-.15.1-.1.05m2.25 4.35-.2.15v.25l.55 1.1-1.15-.05-1.65-.15h-.45l-1.3-1.4-.1-.1-.05-.1-1.85-2.05h-.05l-2.3-2.5 4.1.6 1.9.25.5.1h.05l.15.05.8 1.6 1.15 2.2-.1.05m6.3 5.05-3.85-.25-1.85-3.95 5.15 2.55.55 1.65" fill="#2e3d1f"/><path d="m16.35 3.25 3.45-.4h.1l.15-.05q8.45-.7 17.1 1.35l.15.1.05.15-.05.15-.15.1L28 7.15l11.65 7.8.1.15v.2l-.1.15h-.15l-12.8-1.9-.05-.55 1.4.2 10.3 1.55-8.2-5.5-1.7-1.15-.55-.4h-.05v-.05l-.35-.9 8.5-2.3q-8-1.8-15.9-1.1l-.15-.05-.1.05-3.55.45-.05-.45v-.1h.1" fill="#28401a"/><path d="M2.9 15.9q-1.1-.65-2.9-1.35L4.05 9.6l.4.1.65-.15.8-.15.35.1h.05v.05l8.85 2.35 2.4 2.6q-7.7-1.8-14.65 1.4" fill="#3c4e24"/><path d="m25.6 13.4 1 .7 2.75 2.1 2 1.6q5.2 4.25 5.2 5.6 0 .75-.7.95l-1.4.15-1.75-.25-1.7-.45h-.65l.95 1.8q.5.95.5 1.75 0 1.1-.65 1.75-.6.5-1.55.5-1.95 0-3.05-2.8l-.25-.75-.75-2.75 3.25 3.55.15.1h.2l.1-.2-.05-.15-2-4.4 8.1.55.2-.05.1-.1-.05-.2-.1-.15-10.75-5.4-.1-.05-1.15-2.2-.8-1.6 2.95.4" fill="#120602"/></g><g id="e" fill-rule="evenodd"><path d="m95.05 46.9-.4-.4-1.1-1.15-1.4-1.55-1.45-1.55-.35-.4q-1.2-1.3-3.6-2.45l-3.6-1.5-.05-.2-.1-.15-1.8-.65H81l-.15.15v.2l.5 1.45-1.05-.9q-.8 0-1.35.7h-.1l.25-2.4 1.6-.45q5.85.45 11.55 5.05h.05l3.4 4.45-.3 1.1-.05.05-.3.6M72.5 52.75l.3.6q.65 1.2 1.4 1.7h.25l.15-.1v-.25l-.1-.15-.1-.05-1.15-1.4-.25-.5-.25-.7v-.3l5.2-9.8-.05.55.05.2.2.1.2-.05.1-.2.2-1.95q.85 2 1.9 3.55l.45.6-1.85 2.05-2 2.05.85 1.85 1.05 1.8q-.75.25-1.75 1.35l-1.75 1.85.35.35q.75.85.75 1.7 0 1.1-.85 1.1-1.6 0-2.65-1.1-.7-.7-.95-1.7l-.15-1.05.05-1.4.2-.45.2-.25m-57-2.1Q14 51.9 13 53.8l-.7 1.5-1.8-.9.3-1q.7.6.95.6l.65-.4.3-.9-1-2.05.35-.9-.05-.2-.15-.15h-.2l-.15.2-.15.4-1.45-2.6-.4-.75-3.65-6.35.35-.6.65-.65q.55-.55.1-.35-.4.15-.75.4l-.45.3-1.25 2.2q-.8.25-1.15-.4l-.4-1.35L4.2 37.8q1.3-1.85 2.5-2.45l3.1-1.75q1.9-1.1 1.85-1.4l-.3-.45L13 31.6l1.75.05.75.05h1.05l.4 1.75.05.05.35 1.45.05.45h.05l-.05.05v.15q-.1.35-.55-.1l-.9-.25-2.8-.3L13 35h-.05l-.1.2.05.2.1.05.1.05v.05l-2.8 1.35q1.75 1.15 2.85 4.25 1 2.95 1 5.85v.05l.8-.2q.75 0 1.1.65l.25 1-.3 1.25-.1.15-.4.75m2.8-14.4-.3-.9-.05-.05-.95-3.85v-.1L15.85 28l2.6-3.4.05-.2-.1-.2-.2-.05-.2.15-2.45 3.25-2.3-2.4.15-.55.65.25q.75 0 2.35-1.7l1.95-2.1 2.35-1.4q2.25-1.4 2.25-1.9l-.05-.45 5.65-.3h.15l.15.1q2.4.65 3.15 3.05l-.5 2.75-2.5-.65h-.2l-.1-.05v-.05l-1.05-.25-.25.05-.1.15.05.2.15.1.55.2Q28 24 27.1 26.9L26 30.1l-.1-.1.05.2.2 2.65v1.8l-.65.85 3-.25q2.95-.6 2.95-2.4l-.2-1.7.2-.8q.35-.9 1.2-1.45-.4.7-.4 1.65t.35 2.05l.25.8.05.1.05.1.55 1.15-1.65.1h-.2l-1.6.25-.7.15-.15.1-.05.25.1.15h.25l-2.15 1.15q-2.15.85-3.05 1.55-1.3 1-2.45 2.6-1.2 1.6-1.35 3.8v.1l-.1.15v.2l-1.6-1.9.3-1.5q1.4-.55 3.05-2.05l3.2-2.75-.85-.25q-.85 0-2.75 1.05l.15-.2-.05-.2-.2-.1-.15.05-.95.8-.3.25-.25.35-.2.25-.15.25-.15.3-.05-.05-1.15-3.35M33.7 34l-.15-.3 3.2 1.35q1.95.85 4 .85 2.35 0 2.85-.4l-2.8.25-2.7-.65-4.9-2.35q-.4-1.2-.4-2.2 0-.75.35-1.35 1.15 1.4 4.35 2.4 3.35 1.05 6.35 1.05l1.1-.25q.55-.35.55-.9 0-1.65-1.95-2.3l-3.15-.5-.05-.2-.1-.1-4.4-1.85 1.7-8.55v-.05l-.9-6.45.75.6.2.05.15-.1.05-.2-.1-.15q-1-.8-1.65-1.85-1.2-1.8-1.45-4.3Q39 1.9 45.3 2.35l2.1.25q8.45.1 11.5 3.3l.15.1.05.1.95 1.45-.95 1.15-.05.1-.15.05-1.25 1.5-2.2.9-3.2.4-.15.95.15 1.05H49l-7-1.1h-.7q3.6 1.9 7.7 2.95l-.2 5.55-.2 5.95q0 .9 1.8 1.9 1.85 1 1.95 3.2.1 2.2-2.75 3.1-2.35.75-5.45.9l-.15.05v.05q-.4 8.2-1.45 12.55l-2.85 11.6q-4.35-1.1-6.15-1.1h-.45l2.15-20.6v-.1l-.7-3.2h.3l.15-.05.1-.2-.1-.2-.15-.05h-.7L33.7 34m19.7 2.05.05-.3.15-.15.15-.2q1.35-1.75 2.7-2.25v.1l.9 1.2-.3-.05q-.65 0-1.3.85-.55.7-.55 1 0 .95 2.55 2.6 2.5 1.65 3.65 1.65.4 0 .8-.7l.4-1.05q0-.55-1.55-1.6l-1-.55v-.2l-.1-.15V36l.5.2 1.05.25q1.3 0 2.75-4.45l.8-2.9-1.7-1.05-1.5-1.2-1.55 4.65q-.95 2.85-1.05 4.2l-1-.95-.25-.35-1.05-1.4.5-.05.25-.05.1-.2v-.05l1.6-6.2v-.1l.05-.15.75-2.9.45 1.15.15.1h.25l.1-.15v-.2q-1.25-2.5-1.2-7.65l2.2-.55.15-.05h.15q4.7-.65 9.75 2.1 3.85 2.35 6.15 4.45l-.05.9.05.9v.05l-.05.1v1.2q-3-3.4-5-5.05l-2.25-1.55-.3-.15q-2.6-1.45-5.3-1.75h-1.2l-.05-.2-.2-.05h-1.65l-.1.05-.15-.05h-.25l-.2.05-.1.15.05.2.4.7.1.15.05.1.6.9-.5.2q-.6.35-.6.9 0 1 3.15 3.25 2.95 2.15 3.85 2.15.4 0 .55-1.1l3.2 1.2.35.05 4.65.75q-.55 1.55-1.4 2.25-1.1.9-3.15.9L71 29.5l-1.45-.2.25.4q.8.85.8 1.4l-2.3 4.8-1.55 1.55-2.3.9.75 1.15q.4.6.4 1.55 0 3.2-4.4 3.2l-1.75-.1.65.45q.75.55.75.95 0 .6-5 6.7l-5.45 6.8q.55-4.95 1.05-7.7.85-4.75 3.15-10.2h.15l.15-.1.05-.2-.1-.15-.05-.05q-.7-.55-1.05-1.35l-.05-.1q-.5-1.25-.3-3.15m2.75-29.4.15-.4q0-1.4-4.35-2.3l-5.4-.7-4.9.7h-.1l-3.65.95-.25-.15h-.2l-.15.15v.2l.1.15.15.05-.35.5-.5.9q0 1.45 2.45 2.25l4 .5 1.7-.1q1.2-.2 1.2-.55 0-.5-.35-.85l-.75-.6q4.9.6 10.8-.1l.7-.1.2-.1.05-.15-.15-.2-.15-.05h-.25m-15 19.8Q42.5 17.9 42.5 16.1v-.05l-1.8-1.2q-1-.5-2.5-.55l-.25 7.5-.25 3.6 1.5.7 1.85.35.1.05v-.05m-5.4 9.5v.1q0 6.9-.45 13.2l1.6 1.15.55.3q.6-1.25 1.25-4.35.85-3.95.85-6.2l-.25-2.35-1.5-.7-2.05-1.2v.05M20.1 37.1l1.3-.9.6-.3-1.6-3.95-1.8-4.7-.6.85q-.6 1.05-.6 1.6 0 .85 1.2 3.9l.75 1.85.6 1.55.15.1m-5.95 9.95-.1.05.1.05v-.1m42.6-4-1.4-.8-.5 2.55-.55 3.5.95-2 1.5-3.25" fill="#509a21"/><path d="m83.15 37.9 3.6 1.5q2.4 1.15 3.6 2.45-.95 3.15-1 4.65l-2.85-2q-2.75-2.3-4.15-5l-.8-1.9 1.25.45h.2l.15-.15M37.9 4.9l3.65-.95V4q1.3 1.7 4.25 2.65l1.6.35q-5.35-.3-9.5-2.1m33.75 20.05-2.45-1-.05-.1q-.05-.15-.45-.15-3.25-1.75-5.4-4.75l-.7-1-.1-.1v-.1l-.2-.25.05-.05H64l.2-.1.05-.2h1.2q2.7.3 5.3 1.75l-.1.15q-.9 0-.9 1.2 0 .8.9 2.85l1 1.85" fill="#c0b95c"/><path d="m90.35 41.85.35.4 1.45 1.55 1.4 1.55 1.1 1.15.4.4.05.05.5.6-.05.1q-.05 1.05-1.05 1.1h-.15l-.1-.05q-1.5-.15-4.5-1.95l-.4-.25q.05-1.5 1-4.65m-48.7-37.9 4.9-.7 5.4.7q4.35.9 4.35 2.3l-.15.4-4.85.4L47.4 7l-1.6-.35Q42.85 5.7 41.55 4l.1-.05m36.65 21.7v.45l-.75-.05q-3.2-.25-5.9-1.1l-1-1.85q-.9-2.05-.9-2.85 0-1.2.9-1.2h.4l2.25 1.55q2 1.65 5 5.05" fill="#ddd57e"/><path d="m95.7 45.15-3.4-4.45h-.05q-5.7-4.6-11.55-5.05l-1.6.45-.25 2.4-.05.3-.15 1.65-.2 1.95-.1.2-.2.05-.2-.1-.05-.2.05-.55-5.2 9.8v.3l.25.7.25.5 1.15 1.4.1.05.1.15v.25l-.15.1h-.25q-.75-.5-1.4-1.7l-.3-.6-.2-.5-.1-.25v-.05h.15v-.8l4.45-8.35.7-1.35.15-.1h.25l.1.1v-.1l.55-5.45.1-.15q.05-.1.15-.1l1.85-.55h.05q6.05.45 11.95 5.2v.05L95.5 44l.05.15 1.35 1.75-.55.15-.65-.9M81.35 38.7l-.5-1.45v-.2l.15-.15h.2l1.8.65.1.15.05.2-.15.15h-.2l-1.25-.45.8 1.9q1.4 2.7 4.15 5l2.85 2 .4.25q3 1.8 4.5 1.95l.1.05h.15q1-.05 1.05-1.1l.05-.1.05-.1.2-.1.2.15.05.15-.1.55q-.3 1.05-1.5 1.1l-.15-.05h-.15q-1.6-.15-4.7-2.05l-.1-.05-3.05-2.1q-3.55-2.85-5-6.35m-48.1-10.6 2.05-1.2-.05-.2L37 17.95l-.95-6.8.1-.25-.75-1.05Q34.25 8 34 5.45l.05-.15.1-.05Q38.7 1.3 45.4 1.8l2.05.25q8.7.15 11.85 3.5l.1.15.1.05 1.1 1.7v.2l-.05.1L59.5 9l-.05.1h-.05l-.05.1-.3.3-3.25 3.8-.7 15.25L57.4 32l1.45-5.65.1-.15v-.1l.9-3.6.05-.15q-.55-2.4-.5-6l.05-.15.15-.1 2.5-.65.1.05.15-.1q4.9-.7 10.15 2.2 3.6 2.2 5.9 4.2 2.85 2.5 3.65 4.7v.2l-.05.1-5.5 4.45-.05.1-3.15 8.05-.15.1-.3.2-.95.4-2.6.2h-.05l-.45-.1-.15-.1-.05-.15.1-.2.2-.05.6.05 2.15-.15.8-.3.35-.2 3.25-8.15.05-.1 5.4-4.35q-.8-1.85-3.15-4-2.3-2.1-6.15-4.45-5.05-2.75-9.75-2.1h-.15l-.15.05-2.2.55q-.05 5.15 1.2 7.65v.2l-.1.15h-.25l-.15-.1-.45-1.15-.75 2.9-.05.15v.1l-1.6 6.2v.05l-.1.2-.25.05-.5.05L58 34.4l.25.35 1 .95.1.1.6.45.1.15v.2l-.2.1h-.2l-.5-.4-1.3-1.2-.5-.65-.9-1.2v-.1q-1.35.5-2.7 2.25l-.15.2-.15.15-.05.3-.5-.25.05-.2.05-.15q2-2.75 4.05-3L54.6 28.8l-.05-.2.7-14.5V14l-.1.1-.15.1-.2-.05-.1-.2.05-.2.6-.7h.05l2.25-2.7 1.25-1.5.15-.05.05-.1.95-1.15-.95-1.45-.05-.1-.15-.1q-3.05-3.2-11.5-3.3l-2.1-.25Q39 1.9 34.6 5.55q.25 2.5 1.45 4.3.65 1.05 1.65 1.85l.1.15-.05.2-.15.1-.2-.05-.75-.6.9 6.45V18l-1.7 8.55 4.4 1.85.1.1.05.2-.05.05-.1.1H40l-4.15-1.7-.15.1q-1.5.65-2.1 1.25l-.2.3h-.05l-.2.35v.05q-.35.6-.35 1.35 0 1 .4 2.2l.15.45.2.5.15.3-.15-.1-.6-.3-.05-.1-.05-.1-.25-.8q-.35-1.1-.35-2.05 0-.95.4-1.65l-.05-.1-1.1-5.35-2.65-.7-.1-.05h-.2l-.5-.1-.55-.2-.15-.1-.05-.2.1-.15.25-.05 1.05.25v.05l.1.05h.2l2.5.65.5-2.75q-.75-2.4-3.15-3.05l-.15-.1h-.15l-5.65.3-1.5.4-.85.2-.3.1-.25.05q-5.25 1.7-6.6 6.55l-.15.55 2.3 2.4L18 24.3l.2-.15.2.05.1.2-.05.2-2.6 3.4L17 31.35v.1l.95 3.85.05.05.3.9-.45.3-.15-.35-2.75-.45-1.75-.2-.1-.05-.1-.05-.1-.05-.05-.2.1-.2H13l.15-.05 2.8.3.9.25q.45.45.55.1h.1l-.05-.15v-.05l-.1-.45L17 33.5l-.05-.05-.4-1.75H15.5l-.75-.05L13 31.6l-1.65.15q-5.25.9-8.5 6.65l.1 1.45.4 1.35q.35.65 1.15.4l1.25-2.2.45-.3q.35-.25.75-.4.45-.2-.1.35l-.65.65-.35.6-.9 1.55.1.2.05.05 5.8 9.35.45-1.45.15-.4.15-.2h.2l.15.15.05.2-.35.9-.9 2.75-.3 1 1.8.9.7-1.5q1-1.9 2.5-3.15l.65-.55.05.3.05.3-.4.3-.6.6-1.1 1.35q-.65.9-1.15 2.1l-.25.6 3.55 7.1.15.3.05.2-.15.15-.2.05-.2-.15-3.7-7.45-2.2-1.05-.15-.15v-.2l.75-2.3-1-1.7-.05-.05-1.7-2.75v-.05h-.05l-.4-1.1-.35-.15-2.45-3.95-.05-.05-.1-.2q-1.05.3-1.6-.65-.25-.35-.35-.9v-.1q-.25-.85-.25-2.15l.1-.15q2.9-5.3 7.55-6.7L13 31l1.55.1 1.05.1h.8l-1.1-3.1-2.5-2.65-.05-.1-.05-.15.25-.9.05-.15q1.5-4.95 7-6.65l.25-.05.3-.1.75-.2v.05l1.4-.4 6-.3.15.1H29q2.75.7 3.55 3.45v.15L32 23.25l1.05 4.9.05.15.15-.2m22.9-21.45h.25l.15.05.15.2-.05.15-.2.1-.7.1q-5.9.7-10.8.1l-.3-.05q-3.9-.55-7.1-2l-.15-.05-.1-.15v-.2l.15-.15h.2l.25.15q4.15 1.8 9.5 2.1l3.9.05 4.85-.4m6.6 12.5-.6-.9-.05-.1L62 18l-.4-.7-.05-.2.1-.15.2-.05h.25l.15.05.1-.05H64l.2.05.05.2-.05.2-.2.1h-1.7v.05l.2.25v.1l.1.1.7 1q2.15 3 5.4 4.75l.5.25 2.45 1q2.7.85 5.9 1.1l.75.05v-1.65l.05-.1v-.05l.2-.1.2.1.1.15v1.9l-.05.15-.1.1-.15.05-1.15-.1-4.65-.75-.35-.05-3.2-1.2q-4-1.85-6.45-5.4" fill="#28401a"/><path d="m95.5 44-2.85-3.65v-.05q-5.9-4.75-11.95-5.2h-.05l-1.85.55q-.1 0-.15.1l-.1.15-.55 5.45h-.35l-.15.1-.7 1.35-.3-.45-.2-.25q-.45-1.5-.45-2.9l.25-2.05.05-.95.35-1.45.65-.9 1.3-.3v-.05l3.1-.3q6.5 0 12.25 5.15 3.65 3.25 5 6.9l-1.15.4-.3.15-.4.15-.05-.05-1.35-1.75V44h-.05" fill="#1e3116"/><path d="m76.8 42.8-4.45 8.35v.8h-.15q-.7-.05-1.25.25-1.9.8-2.75 4.6l.9 1.5v.2l-.1.2h-.2l-.15-.15-.7-1.2-4.7 8.7-.6 1.6-.1.05v.2l-.05.05-.05.2-.5 1.2-.15.15h-.2l-.15-.15v-.2l.5-1.25.05-.2.1-.1.05-.15 2.15-5.6 6-15.7.05-.05h-.1l-1.05.2-2.35.15-.2-.1-.1-.2.1-.2.1-.05h.1l1.55-.05 1.5-.25.75-.15h.2l.15.15.05.05v.15l.05-.05q.85-.35 1.6-1.25 1.1-1.4 1.1-2.9l-.5-1.25-.45-.65.3-.2.15-.1 3.15-8.05.9.95.6.6-.5.55-.5.45-.45.85-.35 1.45-.05.95-.25 2.05q0 1.4.45 2.9l.2.25.3.45m20.1 3.1.05.05.2.25.05.15.1.1.5.6.05.15.8 3.2v.2l-.15.15-3.9 1.5h-.15l-.1.05-2.2.8-3.95 7.2-.05.05-.5 1v.25l.05.6.2-.05v.55l-.25.05-.25 1.2q-1.15 3.05-6.7 3.9h-.05l-.35-.1-.8.15-.65.15-.4-.1-5.6-1.15-.15-.1-.05-.2.1-.15.2-.05L79 67.5h.05l.3-.05q6.35-.6 7.5-3.8l.25-1.1v-.1l-.05-1.15.05-.15 4.55-8.4.2-.1L93.6 52l.55-.2.15-.05.1-.05 3.7-1.4-.75-2.95-.45-.6-.05-.1-.15-.1-.35-.5.55-.15M83.45 60.2l1.15.4 1.15.15.25.05.1.15-.05.2-.2.1-1.45-.1-.05-.05-1-.35-.15-.15q-.1-.1-.05-.2l.1-.15.2-.05m-67.2-9.5-.05-.3-.05-.3q.7-.5 1.55-.9 1-.5 2.25-.75H20l.15.05.1.15v.25l-.2.1H20q-1.4.3-2.55.95l-1.2.75m1.6-14.15.45-.3 1.15 3.35v.05h.05l.15-.3.15-.25.2-.25.25-.35.3-.25.95-.8.15-.05.2.1.05.2-.15.2-.1.05-.05.05q-.6.45-1.05 1.05l-.3.35-.25.4-.9 2.1-.3 1.5 1.6 1.9v-.2l.1-.15.05-.1.3-.6q2.05-4.2 6.2-5.2l1.55-.25h.15l.1-.05 2.9.05.45.05.15.15.05.2-.1.15-.2.05-.6-.05-2.6-.05h-.1l-.15.05-1.2.15q-3.5.8-5.5 3.85l-1 1.9.45 1.55 3.75 13.45v.05l.5 1.7v.2l-.2.15-.2-.05-.1-.15-.55-1.9-3.9-13.95h-.05l-.1-.05-.05-.05-2.2-2.55-.05-.1v-.1l.25-1.35.8-2.15h-.25l-.1-.2-1.1-3.2m15.1-2.95.6.3.15.1.45.85h.7l.15.05.1.2-.1.2-.15.05h-.3l.7 3.2v.1l-2.15 20.6-.15 1.5-.1.2-.2.05-.15-.1-.1-.2.15-1.45 2.15-20.6-.65-3.05-.05-.05-.15-.2H31.7l-2.2.4h-.25l-.1-.15.05-.25.15-.1.7-.15 1.6-.25h.2l1.65-.1-.55-1.15m19.95 2.2.5.25q-.2 1.9.3 3.15l.05.1q.35.8 1.05 1.35l.05.05.1.15-.05.2-.15.1h-.15l-.1-.05-.95-1-7.15 22.2-1.15 3.65-.15.15-.2.05-.15-.15v-.2l1.15-3.65 7.35-22.75q-.6-1.25-.4-3.05l.05-.55" fill="#130602"/><path d="m96.95 45.95.4-.15.3-.15 1.15-.4q.8 2.1.8 4.35 0 1.7-.4 2.5-.45.85-1.75 1.5l-2.3.45q-1.6.3-1.9.9l-1.95 3.4-.3.4q-1.05 1.1-2.75 1.55h-.05l3.95-7.2 2.2-.8.1-.05h.15l3.9-1.5.15-.15v-.2l-.8-3.2-.05-.15-.5-.6-.1-.1-.05-.15-.2-.25" fill="#120602"/><path d="m95.05 46.9.3-.6.05-.05.3-1.1.65.9.35.5.15.1.05.1.45.6.75 2.95-3.7 1.4-.1.05-.15.05-.55.2-2.55-.6-2.95-1.45-2.55 3.7Q83 57.15 83 57.6l1 .95q1 .6 1.05 1.25l-1.6.25H83q-3.75-1.8-5.5-2.15v.8l.65 1.75q.4.75 1.2 1.1v.1h-1.2q-2.6-.3-4.95-2.15-2.75-2.15-2.75-4.95 0-.9.3-1.95l.2-.4q.55-.3 1.25-.25V52l.1.25.2.5-.2.25-.2.45-.05 1.4.15 1.05q.25 1 .95 1.7 1.05 1.1 2.65 1.1.85 0 .85-1.1 0-.85-.75-1.7l-.35-.35 1.75-1.85q1-1.1 1.75-1.35L78 50.55l-.85-1.85 2-2.05L81 44.6q1.65 2.1 3.25 2.1.75 0 1.4-.6l.7-1.05 3.05 2.1v.1l.1-.05q3.1 1.9 4.7 2.05h.15l.15.05q1.2-.05 1.5-1.1l.1-.55-.05-.15-.2-.15-.2.1-.05.1-.5-.6-.05-.05m-80.9 6.05 1.1-1.35.6-.6h.45q2.35 1.6 2.95 4.5l.45 3.1.5 2.35-.35.2-2.25-3.75-3.45-4.45m2-2.85-.65.55.4-.75.1-.15.3-1.25-.25-1q-.35-.65-1.1-.65l-.8.2V47q0-2.9-1-5.85-1.1-3.1-2.85-4.25l2.8-1.35h.1l1.75.2 1.35 2.6q1.35 2.85 1.35 4.7v1.8l-.55 1.1.7.85v1.3l-.1 1.1q-.85.4-1.55.9m11.9-27.5.5.1h.15v.1l1.5 4.7 1.05 3.65.2 1.7q0 1.8-2.95 2.4l-3 .25.65-.85v-1.8l-.2-2.65.05-.1 1.1-3.2q.9-2.9.95-4.3m29.6-12.25-2.25 2.7h-.05l-.6.7-.05.2.1.2.2.05.15-.1h.1l-.7 14.5.05.2 2.45 3.65q-2.05.25-4.05 3l-.05.15-.05.2-.05.55q-.65.45-1.55.75l-2.7.45-1.85 14.05-2.35 10.1-4.7-1.35 2.85-11.6Q43.6 44.4 44 36.2l.15-.1q3.1-.15 5.45-.9 2.85-.9 2.75-3.1-.1-2.2-1.95-3.2-1.8-1-1.8-1.9l.2-5.95.2-5.55q-4.1-1.05-7.7-2.95h.7l7 1.1h3.25l-.15-1.05.15-.95 3.2-.4 2.2-.9m20.7 12.15q2.35 2.15 3.15 4l-5.4 4.35-.05.05-1.25.3-2.15.25-.05.05q-.85 1.85-1.85 4.75l-1.25 3.5-.6-.05-.2.05-.1.2.05.15.15.1.45.1h.05l2.6-.2.05.85q0 1.25-.6 2.55-.55 1.25-1.45 2.1l-1.5.25-1.55.05h-.1l-1.25-.3-2.15-.65q.75 2 .75 3.35 0 1.2-.55 2.6l-1.2 2.55q-.4.9-1.55 1.25l-2.35.35q-1 .1-1.85 1.45l-1.95 2.6L51.9 62l-1.6 1.55-3.4-1.1-.5-.15 7.15-22.2.95 1 .1.05q-2.3 5.45-3.15 10.2-.5 2.75-1.05 7.7l5.45-6.8q5-6.1 5-6.7 0-.4-.75-.95l-.65-.45 1.75.1q4.4 0 4.4-3.2 0-.95-.4-1.55l-.75-1.15 2.3-.9 1.55-1.55 2.3-4.8q0-.55-.8-1.4l-.25-.4 1.45.2 1.85.2q2.05 0 3.15-.9.85-.7 1.4-2.25l1.15.1.15-.05.1-.1.05-.15v-1.9l-.1-.15-.2-.1-.2.1-.05-.9.05-.9m1.8 26.65.5.25 1.6-2.1-.5-.45-.85-.75v.05l-.95 1.2-.9 1.25 1.1.55" fill="#50732f"/><path d="M78.95 38.5q.55-.7 1.35-.7l1.05.9q1.45 3.5 5 6.35l-.7 1.05q-.65.6-1.4.6-1.6 0-3.25-2.1l-.45-.6q-1.05-1.55-1.9-3.55l.15-1.65.15-.3m-16.2-19.35q2.45 3.55 6.45 5.4-.15 1.1-.55 1.1-.9 0-3.85-2.15-3.15-2.25-3.15-3.25 0-.55.6-.9l.5-.2" fill="#a0c165"/><path d="m93.6 52-1.75.65-.2.1-4.55 8.4-.05.15.05 1.15v.1l-.25 1.1q-1.15 3.2-7.5 3.8l-.3.05H79l-6.05-1.2-.2.05-.1.15.05.2.15.1 5.6 1.15-4.05 4.95-2.85-1.1-2.95-1.1 1.25-3.4q1.5-3.55 2.5-4.85l-1-.95-1.85-2.25-2.1 3.25q-1.65 2.75-3.35 6.35l-1.6-.7.05-.2.05-.05v-.2l.1-.05.6-1.6 4.7-8.7.7 1.2.15.15h.2l.1-.2v-.2l-.9-1.5q.85-3.8 2.75-4.6l-.2.4q-.3 1.05-.3 1.95 0 2.8 2.75 4.95 2.35 1.85 4.95 2.15h1.2v-.1q-.8-.35-1.2-1.1l-.65-1.75v-.8q1.75.35 5.5 2.15h.4l.05.15v-.15l1.6-.25Q85 59.15 84 58.55l-1-.95q0-.45 2.55-3.95l2.55-3.7 2.95 1.45 2.55.6m-10.15 8.2-.2.05-.1.15q-.05.1.05.2l.15.15 1 .35.05.05 1.45.1.2-.1.05-.2-.1-.15-.25-.05-1.15-.15-1.15-.4M15.85 51l.4-.3 1.2-.75Q18.6 49.3 20 49h.05l.2-.1v-.25l-.1-.15-.15-.05h-.05q-1.25.25-2.25.75l.1-1.1v-1.3l-.7-.85.55-1.1v-1.8q0-1.85-1.35-4.7l-1.35-2.6 2.75.45.15.35 1.1 3.2.1.2h.25l-.8 2.15-.25 1.35v.1l.05.1 2.2 2.55.05.05.1.05h.05l3.9 13.95-.3-.05-.75-.15q-1 0-3.35.9l-.5-2.35-.45-3.1q-.6-2.9-2.95-4.5h-.45m60.2-20.05L72.8 39.1l-.35.2-.8.3-2.15.15 1.25-3.5q1-2.9 1.85-4.75l.05-.05 2.15-.25 1.25-.3v.05m-44.15 4.4h1.95l.15.2.05.05.65 3.05-2.15 20.6-2.1.2q.85-4.35.85-6.3 0-10.7-3.85-13.65l1.2-.15.15-.05h.1l2.6.05.6.05.2-.05.1-.15-.05-.2-.15-.15-.45-.05.2-.5.3-1.45-.2-.95-.15-.55M44.4 61.7l2.35-10.1 1.85-14.05 2.7-.45q.9-.3 1.55-.75-.2 1.8.4 3.05L45.9 62.15l-1.5-.45m5.9 1.85L51.9 62l2.75-2.9 1.95-2.6q.85-1.35 1.85-1.45l2.35-.35q1.15-.35 1.55-1.25l1.2-2.55q.55-1.4.55-2.6 0-1.35-.75-3.35l2.15.65 1.25.3-.1.05-.1.2.1.2.2.1 2.35-.15q-2.15 6.05-3.55 10.85l-1.35 4.7-2.15 5.6-.05.15-.1.1-.05.2-.7-.3q-3.75-1.75-10.95-4.05" fill="#3c4e24"/><path d="m87.9 62.15-.2.05-.05-.6.25.55" fill="#3f7c1c"/><path d="m87.4 63.95.25-1.2.25-.05v1.55l-.5-.3" fill="#3f5c29"/><path d="m59.45 9.1.05-.1 1.05-1.25.05-.1v-.2l-1.1-1.7-.1-.05-.1-.15q-3.15-3.35-11.85-3.5L45.4 1.8q-6.7-.5-11.25 3.45l-.1.05-.05.15q.25 2.55 1.4 4.4l.75 1.05-.1.25.95 6.8-1.75 8.75.05.2-2.05 1.2-.2.05-1.05-4.9.55-3.05v-.15q-.8-2.75-3.55-3.45h-.15l-.15-.1-6 .3-1.4.4v-.05l-.75.2-.3.1-.25.05q-5.5 1.7-7 6.65l-.05.15-.25.9.05.15.05.1 2.5 2.65 1.1 3.1h-.8l-1.05-.1L13 31l-3.05.5Q5.3 32.9 2.4 38.2l-.1.15q0 1.3.25 2.15v.1q.1.55.35.9.55.95 1.6.65l.1.2.05.05 2.45 3.95-3.05-1.1L1.8 43.7Q0 42.45 0 40.8q0-4.85 4.8-8.5 4-3 8.35-3.35l-1.2-1.3q-.85-1.05-.85-2.35 0-1.7 2.15-4.65 1.8-2.35 3.1-3.35 2.15-1.7 5.15-2.3l5.05-.4q4.5 0 6.15 1.6 1.2 1.2 1.5 3.9l.7-1.35.05-2q0-4.75-1.65-6.6l-1.15-1.2q-.55-.7-.55-1.85 0-5.15 7.05-6.35L44.7.2l3.15-.15L48.9 0l.9.1.8.15q2.55.45 5.1 1.3 7.05 2.4 7.05 5.4 0 1.55-2.3 4.8L58.8 14.2q1.4-.7 3.75-.7 6.55 0 13.55 4.55 6.95 4.55 7.45 7.7.5 3.15-.75 3.6-1.2.45-3.2 2-.95.7-1.65 1.55l-.6-.6-.9-.95.05-.1L82 26.8l.05-.1v-.2q-.8-2.2-3.65-4.7-2.3-2-5.9-4.2-5.25-2.9-10.15-2.2l-.15.1-.1-.05-2.5.65-.15.1-.05.15q-.05 3.6.5 6l-.05.15-.9 3.6v.1l-.1.15L57.4 32l-2.3-3.45.7-15.25 3.25-3.8.4-.4m-25.9 24.6-.2-.5-.15-.45 4.9 2.35 2.7.65 2.8-.25q-.5.4-2.85.4-2.05 0-4-.85l-3.2-1.35M57.5 20.9l-.2-1.15-.2 1.7-.3 3.65.05.95q.9-1.8.9-3.15l-.25-2" fill="#304a1d"/><path d="m10.8 53.4.9-2.75 1 2.05-.3.9-.65.4q-.25 0-.95-.6m.55-3.4-.45 1.45-5.8-9.35-.05-.05-.1-.2.9-1.55 3.65 6.35.4.75 1.45 2.6m-8.4-10.15-.1-1.45q3.25-5.75 8.5-6.65l.3.45q.05.3-1.85 1.4l-3.1 1.75q-1.2.6-2.5 2.45l-1.25 2.05M13.4 24.6q1.35-4.85 6.6-6.55l.25-.05.3-.1.85-.2 1.5-.4.05.45q0 .5-2.25 1.9l-2.35 1.4-1.95 2.1q-1.6 1.7-2.35 1.7l-.65-.25m19.75 4.6v-.05l.2-.35h.05l.2-.3q.6-.6 2.1-1.25l.15-.1 4.15 1.7h.25l.1-.1.05-.05 3.15.5q1.95.65 1.95 2.3 0 .55-.55.9l-1.1.25q-3 0-6.35-1.05-3.2-1-4.35-2.4m24.2 5.25.5.65 1.3 1.2.5.4h.2l.2-.1 1 .55q1.55 1.05 1.55 1.6l-.4 1.05q-.4.7-.8.7-1.15 0-3.65-1.65-2.55-1.65-2.55-2.6 0-.3.55-1 .65-.85 1.3-.85l.3.05m2 1.35-.1-.1q.1-1.35 1.05-4.2l1.55-4.65 1.5 1.2 1.7 1.05-.8 2.9q-1.45 4.45-2.75 4.45l-1.05-.25-.5-.2-.6-.2M44.95 7.35l.75.6q.35.35.35.85 0 .35-1.2.55l-1.7.1-4-.5q-2.45-.8-2.45-2.25l.5-.9.35-.5q3.2 1.45 7.1 2l.3.05m-3.9 19.1-1.85-.35-1.5-.7.25-3.6.25-7.5q1.5.05 2.5.55l1.8 1.2v.05q0 1.8-1.35 10.35h-.1M21.75 37.9q1.9-1.05 2.75-1.05l.85.25-3.2 2.75q-1.65 1.5-3.05 2.05l.9-2.1.25-.4.3-.35q.45-.6 1.05-1.05l.05-.05.1-.05m14-1.95v-.05l2.05 1.2 1.5.7.25 2.35q0 2.25-.85 6.2-.65 3.1-1.25 4.35l-.55-.3-1.6-1.15q.45-6.3.45-13.2v-.1M19.95 37l-.6-1.55-.75-1.85q-1.2-3.05-1.2-3.9 0-.55.6-1.6l.6-.85 1.8 4.7L22 35.9l-.6.3-1.3.9-.05-.1h-.1m5.2 23.25L21.4 46.8q.3-.35.8-.35 1.6 0 3.15 6.45.9 3.95 1.2 7.1l-1.4.25m31.6-17.2-1.5 3.25-.95 2 .55-3.5.5-2.55 1.4.8m23.4 6.1-1.1-.55.9-1.25.95-1.2v-.05l.85.75.5.45-1.6 2.1-.5-.25" fill="#b2d06e"/><path d="m28.85 22.75 2.65.7 1.1 5.35.05.1q-.85.55-1.2 1.45l-.2.8-1.05-3.65-1.5-4.7.15-.05" fill="#5ba225"/><path d="m29.5 35.75 2.2-.4h.2l.15.55.2.95-.3 1.45-.2.5-2.9-.05-.1.05h-.15l-1.55.25q-4.15 1-6.2 5.2l-.3.6h-.05q.15-2.2 1.35-3.8 1.15-1.6 2.45-2.6.9-.7 3.05-1.55l2.15-1.15m-7.55 7.6q2-3.05 5.5-3.85 3.85 2.95 3.85 13.65 0 1.95-.85 6.3l-2.25.3q-2.4-17.9-2.95-17.9-1.45 0-3.3 1.5" fill="#53772f"/><path d="m21.4 46.8-.45-1.55 1-1.9q1.85-1.5 3.3-1.5.55 0 2.95 17.9l-.2.05-1.45.2q-.3-3.15-1.2-7.1-1.55-6.45-3.15-6.45-.5 0-.8.35" fill="#57a024"/><path d="m16.3 62.75-3.55-7.1.25-.6q.5-1.2 1.15-2.1l3.45 4.45 2.25 3.75-.9.35q-1.7.7-2.65 1.25" fill="#519a21"/><path d="m71.9 40.1.95-.4.45.65.5 1.25q0 1.5-1.1 2.9-.75.9-1.6 1.25l-.05-.1-.05-.05-.15-.15h-.2l-.75.15q.9-.85 1.45-2.1.6-1.3.6-2.55l-.05-.85" fill="#478d1e"/><path d="m70.25 46.1.05.05-6 15.7 1.35-4.7q1.4-4.8 3.55-10.85l1.05-.2" fill="#42612a"/><path d="M64.05 68.85q1.7-3.6 3.35-6.35l2.1-3.25 1.85 2.25 1 .95q-1 1.3-2.5 4.85l-1.25 3.4-4.55-1.85" fill="#415e2a"/></g><g id="f" fill-rule="evenodd"><path d="M26.65 21.5q-.05-4.8-.95-7.2-.85-2.4-2-4.05L21.75 7.7Q19.7 5 16.8 3.8q-2.7-1.15-6.6-1.15-1.8 0-3.45.95L4.85 5l-.05-.05Q8.1.4 13.95.9q5.8.5 9.6 4.8 3.75 4.25 3.8 10.5.05 2.8-.7 5.3" fill="#563427"/><path d="m4.85 5 1.9-1.4q1.65-.95 3.45-.95 3.9 0 6.6 1.15 2.9 1.2 4.95 3.9l1.95 2.55q1.15 1.65 2 4.05.9 2.4.95 7.2-.85 2.95-2.85 5.4-3.6 4.5-8.7 4.5t-8.7-4.5q-3.6-4.5-4.25-10.95-.65-6.05 2.2-10.4l.3-.45.2-.1" fill="#3e2520"/><path d="M26.65 21.5q.75-2.5.7-5.3-.05-6.25-3.8-10.5-3.8-4.3-9.6-4.8Q8.1.4 4.8 4.95l-.15.15-.3.45Q1.5 9.9 2.15 15.95 2.8 22.4 6.4 26.9q3.6 4.5 8.7 4.5t8.7-4.5q2-2.45 2.85-5.4M4.4 4.45Q8.85-.75 14.95.15q6.1.9 10.55 5.75 4.5 4.85 4.6 11.65.15 6.75-4.3 11.95-4.4 5.2-10.7 5.2-6.25 0-10.7-5.2Q0 24.3 0 16.95 0 9.6 4.4 4.45" fill="#110602"/></g><g id="g" fill-rule="evenodd"><path d="m18.6 19.1-2.4.65-9.4 2.7-.7-1.6.7-1.85q.8-1.8 1.15-2.15.6-.75 1.8-1.25 1.3-.55 2.4-.55 2.35 0 4.45 1.5 1.65 1.15 2 2.55" fill="#8f533b"/><path d="M26.4 18.05q-3.5 0-7.8 1.05-.35-1.4-2-2.55-2.1-1.5-4.45-1.5-1.1 0-2.4.55-1.2.5-1.8 1.25Q7.6 17.2 6.8 19l-.7 1.85q-1.05-2.55-2-6.15L2.9 9.95l-.15-.65 2.85-.05 8.4.7q2.65.65 5.35 2.1 3.7 2.15 4.45 3l2.35 2.65.25.35" fill="#5d3727"/><path d="M1.9 2.55q2.3-.75 5.8-1.3L26.25 0l3.25.1q-.7 4.55-1.15 9.25-.45 4.75-1.25 8.75l-.55-.05h-.15l-.25-.35-2.35-2.65q-.75-.85-4.45-3-2.7-1.45-5.35-2.1l-8.4-.7-2.85.05Q2.2 6.5 1.9 2.55" fill="#3d241f"/><path d="m6.8 22.45-3.05.8q-1.35-3.1-1.8-5.75l-.8-4.8q-.2-.55-.7-5.1L0 3.25q.8-.4 1.9-.7.3 3.95.85 6.75l.15.65 1.2 4.75q.95 3.6 2 6.15l.7 1.6M29.5.1l2.6.2q-.4 2.05-.65 5.2l-.6 4.6-.7 4.2q-.35 1.9-.45 4.1l-.4-.05-2.2-.25q.8-4 1.25-8.75.45-4.7 1.15-9.25" fill="#130602"/><path d="M12.4 30.2q.05-1.25.45-2.2l4.7 2.35.2.1 1.05 5.1q-3.1.05-5.9-2-.5-1.9-.5-3.35m5.9.1.3-2.1 3.45 5.75q-2.3-1.05-3.8-3.25l.05-.4" fill="#dbdad5"/><path d="m18.6 28.2.35-2.6 5.3 9.05-2.2-.7-3.45-5.75m6.65-1.25.5-3.35 4.1 2.25q.8 2.7.45 6-2.2-.15-4.5-1.4l-.6-3.2.05-.3" fill="#c4bdb9"/><path d="m18.95 25.6.05-.5q3.15.35 5.6 2.7 1.1 3.15.6 6.95l-.95-.1-5.3-9.05" fill="#afa2a1"/><path d="m11.85 30.4.55-.2q0 1.45.5 3.35 2.8 2.05 5.9 2l-1.05-5.1-.2-.1.75-.05-.05.4q1.5 2.2 3.8 3.25l2.2.7.95.1q.5-3.8-.6-6.95l.65-.85-.05.3.6 3.2q2.3 1.25 4.5 1.4.35-3.3-.45-6l1.15-.3q.35 4.1 0 7.2-2.8-.1-4.9-1.15v3.9h-1.3q-3.65-.65-5.8-2.1l.8 2.4-3.35.2-.55-.2-3.15-1.45q-1.2-2.25-.9-3.95" fill="#5c3a2a"/><path d="M7.95 24.95q1.5 2.3 3.55 4.2l.75-1.95 5.2 2.3.95-4.85 3.4.55 2.6 1.35 1-3.5 1.1.4 3.1 1.2-2.4-7.7 2.65-.3 2.3 8.55-1.15.35-1.15.3-4.1-2.25-.5 3.35-.65.85q-2.45-2.35-5.6-2.7l-.05.5-.35 2.6-.3 2.1-.75.05-4.7-2.35q-.4.95-.45 2.2l-.55.2-1.8.8-.35-.65Q5 26.15 2.35 19.2l2.7-.2q1.1 3.25 2.9 5.95" fill="#120602"/><path d="m10.05 31.2 1.8-.8q-.3 1.7.9 3.95l3.15 1.45.55.2 3.35-.2-.8-2.4q2.15 1.45 5.8 2.1h1.3v-3.9q2.1 1.05 4.9 1.15.35-3.1 0-7.2l1.15-.35.35 3.05q.25 2.9-.85 5.9h-4.1q.25.9-.4 2.55-3.8.65-5.9 0l-.8.95q-6.9.3-8.8-2.45l-1.6-4" fill="#4f2e26"/><path d="M7.95 24.95q-1.8-2.7-2.9-5.95L18 17.75q2.45 4.1-3.5 8-4.3.35-6.55-.8" fill="#90543b"/><path d="m26.5 23.45-1.1-.4-1 3.5-2.6-1.35-3.4-.55-.95 4.85-5.2-2.3-.75 1.95q-2.05-1.9-3.55-4.2 2.25 1.15 6.55.8 5.95-3.9 3.5-8l7.6-.7q1.65 3.1.9 6.4" fill="#5a3526"/><path d="m27.2 16.95 2.4 7.7-3.1-1.2q.75-3.3-.9-6.4l1.6-.1" fill="#3d241f"/></g><g id="h" fill-rule="evenodd"><path d="m2.8 69.15 2.4 1.1q-1 .95-1.55 2.5-.85 3.15 0 4.85l2.3-1.6 1.55-3.9 1 .55q-1.05 1.1-1.7 2.95-.65 3.4.5 5.5 3.15-.55 6.55-2.95-.45-.7.2-2.2l.4.35h.05q-.25 3.65 1.35 5.85 2.85-1.75 5-4.95l1.95 1.65Q20.5 83 15.6 85q-1.7-.9-2.85-3.1-2.55 1.6-6.2 1.6-1.55-1.25-1.8-3.3l-3.25-.35Q.8 79 .7 75.4q.35-3.25 1.75-5.7l.35-.55" fill="#4f3027"/><path d="M5.2 70.25q.4-.45.9-.75 1.45 1.2 1.4 2.6L5.95 76l-2.3 1.6q-.85-1.7 0-4.85.55-1.55 1.55-2.5m3.3 2.4q1.15-1.35 2.75-1.8l2.95 4.7-.15.4q-.65 1.5-.2 2.2-3.4 2.4-6.55 2.95-1.15-2.1-.5-5.5.65-1.85 1.7-2.95m6 3.55q1.3-2.6 3.1-3.35l3.45 4.05-.2.3q-2.15 3.2-5 4.95-1.6-2.2-1.35-5.85v-.1" fill="#a4949d"/><path d="m6.45 53.3 1.95 4.1 6.45-5.85 3.65 3.65 5.95-5.8 2.55 8 6-6.35q-1.05 8.55-.5 15.55-3.3 6.2-10.7 9.8l-4.2-4.7-3.15 3.1L11.4 70 8 71.75 6.4 68.8h-.8l.85-15.5" fill="#4c2b24"/><path d="m33 51.05.9-5.85 2.7-.55Q34 56.9 34.6 67.4q-3.9 7.4-11.6 11l-.2.45-1.95-1.65.2-.3-3.45-4.05q-1.8.75-3.1 3.35l-.05.1-.4-.35.15-.4-2.95-4.7q-1.6.45-2.75 1.8l-1-.55q.05-1.4-1.4-2.6-.5.3-.9.75l-2.4-1.1q.9-2.05.5-8.25l.35-9.35 2.95-.65-.15 2.4-.85 15.5h.8L8 71.75 11.4 70l3.05 4.8 3.15-3.1 4.2 4.7q7.4-3.6 10.7-9.8-.55-7 .5-15.55" fill="#130602"/><path d="m33 51.05-6 6.35-2.55-8-5.95 5.8-3.65-3.65L8.4 57.4l-1.95-4.1.15-2.4 27.3-5.7-.9 5.85" fill="#331c1c"/><path d="M3.2 13.55Q6.6 11 12.05 8 19.45 3.9 27.3.8l2.65 2.95q.8.7 1.65 1.95l.05.1 1.8 8.95q1.1 6.75 1.1 11.65 0 5.3-2.1 10.25-1.55 3.85-4.05 6.65l-1.65-2.45-.85-1.65q-3.1 3.7-5.25 5.15l-4.85 2.4-5.45 1.75-4.7 1.1-.15-2.45-.7-5.75-.75-5.45q-.4-3.05-.65-13.1l-.2-9.3" fill="#160e0e"/><path d="m32.5 52.75-2.6.1-4.05-.2-2.85-.2-5.7.65-5.95.85-4.85.2-.85-.05v-4.5l4.7-1.1 5.45-1.75 4.85-2.4q2.15-1.45 5.25-5.15l.85 1.65 1.65 2.45q2.5-2.8 4.05-6.65 2.1-4.95 2.1-10.25 0-4.9-1.1-11.65l-1.8-8.95 1.15 1.6q.95 1.1 1.55 2.5.55 1.35 1.4 6.05.8 4.7.8 12.4t-2.3 16.8q-1.15 4.65-1.75 7.6" fill="#331c1c"/><path d="m27.3.8 2.05-.8 1.3 1.05q4.5 3.55 5.65 7.1 1.15 3.5 2.05 7.9.8 3.8.8 9.2 0 5.9-2.2 16.7L35 52.5l-2.5.25q.6-2.95 1.75-7.6 2.3-9.1 2.3-16.8 0-7.7-.8-12.4-.85-4.7-1.4-6.05-.6-1.4-1.55-2.5l-1.15-1.6v-.1h-.05q-.85-1.25-1.65-1.95L27.3.8M5.65 54.1l-1.85-.05Q1.6 45.2.9 38.45q-.8-7.6-.9-22.3l3.2-2.6.2 9.3q.25 10.05.65 13.1l.75 5.45.7 5.75.15 2.45v4.5" fill="#130602"/></g><g id="i" fill-rule="evenodd"><path d="m81.95 9.2 1.6 1.7-.2.4q-10.95 2.75-15.4 13.2-1.65 3.85-2.9 9.9L63.1 44.75l4.6-.95q2.75-.9 2.45-3.65l1.05-10.5h.2q.45 1.55.9 2.15.95 1.45 3.2 1.45 4.35 0 7.5-8.35.95-2.65 1.7-5.9l.5-2.35 2.65 1.2q1.6 4 1.9 8.7 1.95 9.5-2.25 19.75l-.2.55-3.45 2.2q-3.15 1.6-4.95 1.65h-.15q-2.35 0-4.7-2l-2.95-2.35-.65.1-2.35.45-2.55.55-.4 4.15-.4 4.9q0 .45 1.05 2.35 1.1 1.9 1.1 3.3 0 2.35-2.6 7.4l-2.65 4.5-9.3 2.6 3.35-1.7q3-1.55 4.4-2.75 3.3-2.9 3.3-9.9 0-4.7-1.4-6.55-1.4-1.95-5.9-3.1l-.8-5-.75-3.7q-.35-2-.35-2.85 0-9.3 7.25-19Q67.5 14 74.5 10.25l3.6.25 2.3-.15q.55-.15 1.55-1.15" fill="#ac999f"/><path d="M83.55 10.9q2.7 3.1 4.3 6.95l-2.65-1.2v-.05q-2.7-1.25-3.2-1.25-4.95 0-7.8 4.5-2.25 3.6-2.95 9.35l-.05.45-1.05 10.5q.3 2.75-2.45 3.65l-4.6.95 1.95-10.35q1.25-6.05 2.9-9.9 4.45-10.45 15.4-13.2l.2-.4m3.75 35.95q-1.7 3.9-4.2 7.9-2.45 4.5-4 6.3l-5.3 5.65q-3.75 3.85-8.9 6.15l-2.25.85-1 .35 2.65-4.5q2.6-5.05 2.6-7.4 0-1.4-1.1-3.3-1.05-1.9-1.05-2.35l.4-4.9.4-4.15 2.55-.55 2.35-.45.1 1.2.15 1.55q0 1.75-1.25 6.15l-1.2 4.35q0 .3.95 1l1.5 1.05L74.9 56l3.95-5.25.05-.05q1.8-.05 4.95-1.65l3.45-2.2" fill="#beb2b5"/><path d="M71.25 29.2q.7-5.75 2.95-9.35 2.85-4.5 7.8-4.5.5 0 3.2 1.25v.05L84.7 19q-.75 3.25-1.7 5.9-3.15 8.35-7.5 8.35-2.25 0-3.2-1.45-.45-.6-.9-2.15l-.15-.45m7.5 21.5.1.05L74.9 56l-4.2 5.75-1.5-1.05q-.95-.7-.95-1l1.2-4.35q1.25-4.4 1.25-6.15l-.15-1.55-.1-1.2.65-.1 2.95 2.35q2.35 2 4.7 2" fill="#d5d2d3"/><path d="m.1 85.25-.1-1.8q0-1.8 3.5-12.35L7 60.4q.2-4.6 2.75-11 11.6.85 27.35-1.7 9.45-1.55 17.45-3.75l.75 3.7.8 5q4.5 1.15 5.9 3.1 1.4 1.85 1.4 6.55 0 7-3.3 9.9-1.4 1.2-4.4 2.75l-3.35 1.7-2.55.45-6.55 1.15-1.1.4q-10.75 4.05-15.1 5.3Q22.2 85.3 19 85.5l-7.55-.3-5.1-.5-6.1.55H.1" fill="#8e6f7a"/><path d="M68.8 1.3q7.9 3 12.9 7.65l.25.25q-1 1-1.55 1.15l-2.3.15-3.6-.25Q67.5 14 61.45 22.1q-7.25 9.7-7.25 19 0 .85.35 2.85-8 2.2-17.45 3.75-15.75 2.55-27.35 1.7 1.2-3.1 2.95-6.55 5.15-10.25 11.05-16.7 5.9-6.5 13.8-10.8 3.8-2.05 15.3-6.75l6.35-2.5q3.6-1.4 6.1-2.65l3.5-2.15" fill="#928e6e"/><path d="m64.9 72.85-.3 1.7-.2.85q-15.6 5.85-25.35 8.25l-12.3 2.9-6.1.6-7.1-.1-5.2-.75H7.8q-1.45 1.25-4.15 2.05L.95 89l-.25-.65q-.45-1.4-.6-3.1h.15l6.1-.55 5.1.5 7.55.3q3.2-.2 8.05-1.55 4.35-1.25 15.1-5.3l1.1-.4 6.55-1.15 2.55-.45 9.3-2.6 1-.35 2.25-.85" fill="#4f2e26"/><path d="M68.8 1.3 70.7.05l.1-.05q24.5 12.6 19.35 40.05-2.6 9.9-6.75 16.75-4.5 6.1-8.55 10.15l-.6.55q-5.5 5.05-9.65 7.05l.3-1.7q5.15-2.3 8.9-6.15l5.3-5.65q1.55-1.8 4-6.3 2.5-4 4.2-7.9l.2-.55q4.2-10.25 2.25-19.75-.3-4.7-1.9-8.7-1.6-3.85-4.3-6.95l-1.6-1.7.35-.35-.6.1q-5-4.65-12.9-7.65" fill="#130602"/></g><g id="j" fill-rule="evenodd"><path d="m45.55 5.55.5.15v-.25l.15-.25 1.45-.8.35-.15.15-.05q.1-.1.15-.1 6.85-3.45 15-4l.15.05.2-.1 1.5-.05 6.95.3.15.05.2-.05q10.7.8 18.8 3.1 8.45 2.4 13.95 6.5l.65.55q5.4 4.25 7.65 10.3l.8 2.65-.05.25-.2.15-.25-.05-.2-.2-.75-2.55q-2.35-6.25-8.1-10.5l-.75-.55Q98.8 6.3 91.05 4.1l-.95-.3Q82.45 1.75 72.35 1L72.2.95 72 1 63.7.75h-.2l-.15.05-1.45.15q-7.15.7-13.25 3.75l-.2.05-.15.1-1.75 1L49.8 6.9q8.75 3.2 15.1 8.65l1.3 1.2.1.05q2.4 2.3 4.5 5 4.75 6.2 7.35 14.5v.05l1.05 3.6-.05.35-.3.2-.35-.05-.2-.3-.95-3.5h-.05q-2.65-8.4-7.5-14.6-1.95-2.45-4.2-4.6h-.05l-1.25-1.2-.05-.05q-6.45-5.55-15.4-8.65L46.1 6.7h-.05l.05-.2q-.4-.35-.5-.7l-.05-.25m-12.9 5.85q6.3-.1 11.75 2.2l.5.2.15.1 1.2.6Q59 21.05 65.85 41.75l.85 2.6-.05.15-.1.1h-.15l-.1-.1-.85-2.6Q58.2 19.95 44.25 14l-1.8-.7q-4.95-1.65-10.55-1.5l-6.35.75-1.1.25-.25.05-.35.05-.15-.05-.1-.15.05-.15.05-.05.1-.05.55-.1 7.55-.95h.75" fill="#150702"/><path d="m42.45 13.3 1.8.7q13.95 5.95 21.2 27.9l-5.75 2.5-44.45-10.05-.15-1.85-.1-1.9q0-9.1 9.75-13.9 7.05-3.5 14.8-3.5l2.9.1" fill="#97571b"/><path d="m64.3 16.25 1.25 1.2h.05q2.25 2.15 4.2 4.6 4.85 6.2 7.5 14.6h.05l-11.5 5.1Q59 21.05 46.25 14.5q4.5-1.15 14.15 4.9 4.55-.75 3.85-3.1l.05-.05M42.45 13.3l-2.9-.1q-7.75 0-14.8 3.5Q15 21.5 15 30.6l.1 1.9.15 1.85-2.65-.6-3.35-3.2q.35-4.8 4.95-10.25 4.45-5.4 9.7-7.35l.3-.1.25-.05 1.1-.25 6.35-.75q5.6-.15 10.55 1.5" fill="#c1680d"/><path d="M46.05 6.7h.05l2.75.85L46.1 8H46l-.5.15-.25.05q-2 .65-3.5 1.85l-1.2-.4-3.3-.75h-1.1q1.2-1.7 1.05-4.2 4.7.75 8.85 2M16.8 8q.45 3.2 4.4 4.15-6.8 3.1-10.6 7.85-3 3.7-3.9 8.15L2.1 23.8l.15-.2.25-.2Q8 12.7 16.8 8" fill="#dab526"/><path d="m16.8 8 .15-.15Q24.3 3.95 34 4.25l3.1.45h.1q.15 2.5-1.05 4.2-1.15 1.65-3.5 2.5h-.75l-7.55.95-.55.1-.1.05h-.05l-2.45-.35Q17.25 11.2 16.8 8" fill="#f4ea7d"/><path d="M48.85 7.55q8.95 3.1 15.4 8.65v.1q.7 2.35-3.85 3.1-9.65-6.05-14.15-4.9l-1.2-.6-.15-.1-.5-.2q-5.45-2.3-11.75-2.2 2.35-.85 3.5-2.5h1.1l3.3.75 1.2.4q1.5-1.2 3.5-1.85l.25-.05L46 8h.1l2.75-.45m-24.95 5.4q-5.25 1.95-9.7 7.35-4.6 5.45-4.95 10.25l-2.55-2.4q.9-4.45 3.9-8.15 3.8-4.75 10.6-7.85l2.45.35v.05l-.05.15.1.15.15.05.05.05" fill="#ce9210"/><path d="m66.3 16.8-.1-.05-1.3-1.2Q58.55 10.1 49.8 6.9q1.65-1.55 4.65-3.1Q57.6 2.25 61.9.95L63.35.8l.15-.05h.2L72 1l.2-.05.15.05q10.1.75 17.75 2.8l-7.85.65Q79 14.05 66.3 16.8" fill="#32999e"/><path d="M70.8 21.8q-2.1-2.7-4.5-5Q79 14.05 82.25 4.45l7.85-.65.95.3Q98.8 6.3 104 9.95L94.5 7.4q-8.1 10.45-23.7 14.4m-21-14.9-3.25-1.05 1.75-1 .15-.1.2-.05Q54.75 1.65 61.9.95q-4.3 1.3-7.45 2.85-3 1.55-4.65 3.1" fill="#1c5a8c"/><path d="M78.15 36.3q-2.6-8.3-7.35-14.5 15.6-3.95 23.7-14.4l9.5 2.55.75.55q5.75 4.25 8.1 10.5l-34.7 15.3" fill="#0f234a"/><path d="m45.55 5.55.05.25q.1.35.5.7l-.05.2q-4.15-1.25-8.85-2h-.1L34 4.25q-9.7-.3-17.05 3.6L16.8 8Q8 12.7 2.5 23.4l-.25.2H1.9l-.2-.2-.05-.05q-.05-.2.05-.35Q7.4 11.9 16.55 7.05q7.55-4 17.55-3.75l3.15.5v-.05l8.3 1.8" fill="#7f3708"/><path d="m47.65 4.4-1.45.8-.15.25v.25l-.5-.15-8.3-1.8v.05l-3.15-.5q-10-.25-17.55 3.75Q7.4 11.9 1.7 23q-.1.15-.05.35L0 21.8 6.2 13l.4-.4q5.2-5.4 13.45-8.95 12-3.25 27.6.75" fill="#130602"/><path d="M104.4 7.8v-.05q.85-.85 5.4 0 4 .75 6.4 4l.55.75q1.6 2.5 2.1 4.8l.15 1.5v.9l-.1 1.7-.45 2.5-.25.95q-.75 2.15-3.1 2.15H114l-.65-.35-.1-.05-.2-.15q-.55.5-5.05 2.35-4.75 1.9-5.55 2.75l-.1.05.05.85v.1q-.15 2.05-2.7 2.05-.8 0-1.5-.6l-.45-.6q-3.4 1.45-7.95 3.75-4.6 2.3-8.8 4.7-.2 1.35-.7 2.05-.9 1.35-3.35 1.35-1.55 0-3-.6-2.85-1.2-5.35-4.8l-1.4-2.2-1.5-2.85v-.05l-2-4.3v-.2q.5-2.55 2.2-3.95 1.6-1.25 3.9-1.25l2.15.4H72l.55.2 1.15.4q2.25-1.2 7.85-3.9l5.9-3.05V19l.1-.2.1-.1.65-2q.2-.6 2.15-.6l2.25.3q2.7-1.5 10.55-5.1.35-2.8 1.15-3.5m.15 3.4v.1l-.2.2-.6.3h-.05l-.05.05q-7.15 3.25-10.05 4.8 1.3.45 2.3 1.4l.05.05.25.25.15.15.1.25-.1.25-.25.05H96l-.15-.1q-1.2-1.4-3.1-1.9h-.1L92.6 17l-2.15-.25-.65.05h-.05l-.85.2-.55 1.5.3-.15.25-.05.2.15.05.15q1.95.4 3.6 1.55 1.3.9 2.4 2.3l1.2 1.65.1.2.65 1.35.65 1.8v.1l.3 1.8-.1.25-.2.1-.2-.05-.15-.25q-.15-1.8-.9-3.45-.65-1.65-1.85-3.1l-1.4-1.5-.35-.3-.85-.6q-1.45-.95-3.15-1.25l-.2-.15-6.85 3.7-7.95 3.95-.25.05-.15-.1h-.05l-.9-.35-.8-.3v.05l-1.95-.4-.65.05q-1.65.15-2.8 1.15v-.05h-.05q-1.45 1.25-1.95 3.5l2.1 4.55 1.6 2.95 1.1 1.7q2.7 3.85 5.8 4.8l2 .3q2.05 0 2.8-1.1.45-.65.6-1.9v-.05l.05-.4v-.75l-.15-1.8-.65-2.25q-.05-.15.05-.25.05-.1.15-.1h.25l.15.2.65 2.2v.05l.2 1.2v1.4q4.05-2.25 8.45-4.45 4.6-2.35 8.05-3.85v-.25l.1-.2.2-.1.2.05.05.05.1.2q0 .6.45 1 .45.45 1.05.45 1.85 0 2.05-1.45l-.15-2.5v-1.95l.1-.2.25-.15.2.15.1.2v1.6l.05 1.15q1.2-.9 5.45-2.6 4.6-1.9 4.8-2.2.1-.15.25-.15l.25.05.1-.05v-1.1l-.2-3.55-.2-1.4v-.05l-.05-.05h.05l-.25-.8v-.05q-.6-1.45-1.9-3.1l-1.3-1.5-2-1.95q-1.35-1.15-2.2-1.2l-.55.05v.05m11.4 1.3-.4-.6q-2.2-2.85-5.85-3.5l-4.85-.15q-.55.6-.85 2.4l1.1-.2q.85 0 2.2 1l.95.8 1.55 1.55 1.4 1.7q1.3 1.65 1.85 3.1l.05.1.25.85v.05l.3 2.05.15 2.9v1.65l.35.15.95.05q1.85 0 2.45-1.75l.05-.2.6-2.8.15-2v-.85l-.15-1.4q-.5-2.15-2-4.55l-.2-.3-.05-.05" fill="#1e0d04"/><path d="m96.2 18.35-.25-.25-.05-.05q-1-.95-2.3-1.4 2.9-1.55 10.05-4.8l.05-.05h.05l.6-.3.2-.2v-.1l.4.2q1 .55 1 1l-4.7 3.1q-3.85 2.15-5.05 2.85M69.15 25.7l.65-.05 1.95.4V26l.8.3v.05q-.1 1.3-.6 1.3-.7 0-1.75-.85l-1.05-1.1m4.5 1.05.25-.05 7.95-3.95 6.85-3.7.2.15q1.7.3 3.15 1.25l-6.8 3.4-9.8 4.8q-.85-1.3-1.85-1.9h.05m16.1-9.95h.05l.65-.05 2.15.25.05.05h.1q1.9.5 3.1 1.9l.15.1.05.25q0 .8-.65.8-.7.05-1.6-.65-.9-.65-2.45-.95-1.5-.25-1.6-1.7m19.45-7.9h.15l.95.3q1.05.35 1.05.85 0 .85-.8.85l-1.45-.25q-.85-.35-.85-.95l.4-.8h.55" fill="#a2c466"/><path d="M104.55 11.2v-.05l.55-.05q.85.05 2.2 1.2l2 1.95 1.3 1.5q-1.6.65-4.55 2.05-4.65 2.15-6.45 3.25l.15.8q0 1.15-.4 1.9-.45.8-1.2.8l-1.7-.25-.1-.2-1.2-1.65q-1.1-1.4-2.4-2.3-1.65-1.15-3.6-1.55l-.05-.15-.2-.15-.25.05-.3.15.55-1.5.85-.2q.1 1.45 1.6 1.7 1.55.3 2.45.95.9.7 1.6.65.65 0 .65-.8l-.05-.25h.1l.25-.05.1-.25-.1-.25-.15-.15q1.2-.7 5.05-2.85l4.7-3.1q0-.45-1-1l-.4-.2m-38.1 23.65-2.1-4.55q.5-2.25 1.95-3.5l.05.05q1.15-1 2.8-1.15l1.05 1.1q1.05.85 1.75.85.5 0 .6-1.3v-.05l.9.35h.05l.1.1q1 .6 1.85 1.9l9.8-4.8 6.8-3.4.85.6.35.3.4 1.15.45 1.9q0 .9-8.9 5l-8.05 3.55.05.8q0 .7-.85 1.65l-.35.05h-2.05l-4.35-.3-3.15-.3m49.5-22.35.05.05.2.3q1.5 2.4 2 4.55l.15 1.4-1.85.2-3.15.55-.25-.85.9-.25-.95.15q-.55-1.45-1.85-3.1l-1.4-1.7-1.55-1.55h.4l2.25.5 2.5.3 2.55-.55" fill="#45871e"/><path d="M110.6 15.75q1.3 1.65 1.9 3.1l-4.8 2.25q-4.45 2.15-7.2 3.65l-.05-.15v.2q-.1 1-.9 1.9-.8.95-1.8.85v-.1l-.65-1.8-.65-1.35 1.7.25q.75 0 1.2-.8.4-.75.4-1.9l-.15-.8q1.8-1.1 6.45-3.25 2.95-1.4 4.55-2.05M68.05 37.8l-1.6-2.95 3.15.3 4.35.3H76l.35-.05q.85-.95.85-1.65l-.05-.8 8.05-3.55q8.9-4.1 8.9-5l-.45-1.9-.4-1.15 1.4 1.5q1.2 1.45 1.85 3.1l-17.95 8.5q-.2 4.1-5.2 4.1l-3.8-.5-1.5-.25m50.3-19v.85l-.15 2-.7.2-2.35.55q-.35 0-1.1-.5l-.4-.25-.3-2.05v-.05l3.15-.55 1.85-.2" fill="#43622a"/><path d="M112.5 18.85v.05l.25.8h-.05l.05.05v.05l.2 1.4.2 3.55-10.9 4.9v-1.6l-.1-.2-.2-.15-.25.15-.1.2V30q-.2.7-1.3 1.4-1.2.75-2.2.65h-.25l-1.95.35q-1.1.4-2.45 1.25l-5.75 2.9-6.65 3.1-.2-1.2v-.05l-.65-2.2-.15-.2h-.25q-.1 0-.15.1-.1.1-.05.25l.65 2.25.15 1.8v.75q-1.1 1.85-2.7 2.5l-2.75.65q-3.1-.95-5.8-4.8l-1.1-1.7 1.5.25 3.8.5q5 0 5.2-4.1l17.95-8.5q.75 1.65.9 3.45l.15.25.2.05.2-.1.1-.25-.3-1.8q1 .1 1.8-.85.8-.9.9-1.9l.05-.05q2.75-1.5 7.2-3.65l4.8-2.25m5.7 2.8-.6 2.8-.1.05-.75.35-2.15.35h-.8v-.65l-.15-2.9.4.25q.75.5 1.1.5l2.35-.55.7-.2" fill="#344321"/><path d="m108.25 12.25-.95-.8q-1.35-1-2.2-1l-1.1.2q.3-1.8.85-2.4l4.85.15q3.65.65 5.85 3.5l.4.6-2.55.55-2.5-.3-2.25-.5h-.4m.95-3.35h-.55l-.4.8q0 .6.85.95l1.45.25q.8 0 .8-.85 0-.5-1.05-.85l-.95-.3h-.15" fill="#44861e"/><path d="M113.15 24.75v1.1l-.1.05-.25-.05q-.15 0-.25.15-.2.3-4.8 2.2-4.25 1.7-5.45 2.6l-.05-1.15 10.9-4.9M101.6 30l.15 2.5q-.2 1.45-2.05 1.45-.6 0-1.05-.45-.45-.4-.45-1l-.1-.2-.05-.05.05-.2q1 .1 2.2-.65 1.1-.7 1.3-1.4m-3.75 2.2-.2.1-.1.2v.25q-3.45 1.5-8.05 3.85-4.4 2.2-8.45 4.45v-1.4l6.65-3.1 5.75-2.9q1.35-.85 2.45-1.25l1.95-.35v.15M80.4 41.15l-.05.4v.05q-.15 1.25-.6 1.9-.75 1.1-2.8 1.1l-2-.3 2.75-.65q1.6-.65 2.7-2.5m37.15-16.5q-.6 1.75-2.45 1.75l-.95-.05-.35-.15v-1h.8l2.15-.35.75-.35.05.15" fill="#46861f"/></g><g id="k" fill-rule="evenodd"><path d="M28.9 74.1q-3.7 5.25-9.55 8.05l-2.45-.25q-1.5-1.45-1.9-3.7-4 2.05-9 1.8l-1.55-1.35v-3.3L1 75.8l-.95-1q-.35-3.9 1.4-8Q4 62.3 7.4 59.5l.15-.25.5 2L3.1 67.3q-1.6 3.55-1.35 6.85l4.2-.75.5 5.15q4.5-.7 9.85-3.1-.25 2.7 1.25 4.9 5.95-1.7 10.05-7.25l1.3 1" fill="#4f2e26"/><path d="m8.05 61.25.35-.45-.7 2.15Q3 67.25 2.25 73.4l3.7-.7 1.9-4.8h.05l.15 2.05-.2.35q-1.2 4.35-.6 7.1h.35q2.1-.25 4.15-1.05Q13.9 75.45 16 74l.35-2.75.8 1.4-.05.85q-.05 3.8 1.25 6.05 5.25-2.85 8.2-7.25l1.05.8q-4.1 5.55-10.05 7.25-1.5-2.2-1.25-4.9-5.35 2.4-9.85 3.1l-.5-5.15-4.2.75q-.25-3.3 1.35-6.85l4.95-6.05" fill="#523127"/><path d="m7.7 62.95.65-.5q-.85 3.2-.45 4.9l-.05.55-1.9 4.8-3.7.7Q3 67.25 7.7 62.95m.35 7q2.35-4.4 5.6-6.55-4.75 6.4-6.05 14h-.35q-.6-2.75.6-7.1l.2-.35" fill="#d9d7d4"/><path d="M17.15 72.65q.4-4.7 4.85-8.8-3.3 8-3.65 15.7-1.3-2.25-1.25-6.05l.05-.85" fill="#d8d5d3"/><path d="m15 67.3 1.35 3.95L16 74q-2.1 1.45-4.25 2.35.35-5.55 3.25-9.05" fill="#bfb7b7"/><path d="M13.65 63.4 15 67.3q-2.9 3.5-3.25 9.05-2.05.8-4.15 1.05 1.3-7.6 6.05-14m8.35.45q3.05 3.7 4.55 8.45-2.95 4.4-8.2 7.25.35-7.7 3.65-15.7" fill="#a7989f"/><path d="m7.55 59.25 4.2-6.3.7-5.85 2.3-.5-.3 5.75-.1 1.5-4.25 5.95q-1.45 3.85-.85 6.2 1.3-2.1 3.25-3l1.5-.5.75 1.7 2.2 5.15q1.2-2.65 3.5-5.1l1.25-1.2.85 1.1q1.55 1.2 2.5 2.7l.4.75 1.65 4.15q7.65-2.75 12.15-7.8l6.4-17.3 3.05.1-7.05 18.4q-4.85 5.6-12.75 8.95l-1.3-1-1.05-.8q-1.5-4.75-4.55-8.45-4.45 4.1-4.85 8.8l-.8-1.4L15 67.3l-1.35-3.9q-3.25 2.15-5.6 6.55L7.9 67.9v-.55q-.4-1.7.45-4.9l-.65.5.7-2.15-.35.45-.5-2" fill="#120602"/><path d="M32 61.65q-.6.65-1.5.65t-1.55-.65q-.6-.6-.6-1.5t.6-1.55q.65-.6 1.55-.6t1.5.6q.65.65.65 1.55t-.65 1.5m-9.45 2.5-.85-1.1-1.25 1.2q-2.85.55-5.7-.05L14 62.5l-1.5.5-2.4-3.2 4.25-5.95.1-1.5q4.8-2.4 9.6 0 4.95 4.25 2.5 10.4l-4 1.4" fill="#844a39"/><path d="m14.75 46.6 4.4-.85 26.5.9-6.4 17.3q-4.5 5.05-12.15 7.8l-1.65-4.15-.4-.75q-.95-1.5-2.5-2.7l4-1.4q2.45-6.15-2.5-10.4-4.8-2.4-9.6 0l.3-5.75M32 61.65q.65-.6.65-1.5T32 58.6q-.6-.6-1.5-.6t-1.55.6q-.6.65-.6 1.55t.6 1.5q.65.65 1.55.65t1.5-.65m-11.55 2.6q-2.3 2.45-3.5 5.1l-2.2-5.15q2.85.6 5.7.05M12.5 63q-1.95.9-3.25 3-.6-2.35.85-6.2l2.4 3.2" fill="#512f25"/><path d="m43.2 53.95-28.9-5.2.75-4.25 4.45-4.1q2.45 9 11.65 9.85 6.5-.95 9.15-6.75l3.3 9.15-.4 1.3" fill="#523025"/><path d="M51.5 17.5q.45 8.9-2.5 19.45l-5.4 15.7-3.3-9.15q-2.65 5.8-9.15 6.75-9.2-.85-11.65-9.85l-4.45 4.1q.7-4.95.8-10.85l.3-11.45 16.75 4.35q5.7-3.05 7.25-7.7l6.2 3.75 5.15-5.1" fill="#37201d"/><path d="m47.1.85 2-.85 2.65 10.35q1.65 8.15.7 13.75l-2.4 13.15.6 1.4q-1.6 8.25-4.8 15.75l-2.65-.45.4-1.3 5.4-15.7q2.95-10.55 2.5-19.45-.4-9.2-4.4-16.65m-32.8 47.9-.85-.15q3-14.7 2-33.65l.9-.4-.2 7.65-.3 11.45q-.1 5.9-.8 10.85l-.75 4.25" fill="#130602"/><path d="M16.35 14.55 47.1.85q4 7.45 4.4 16.65l-5.15 5.1-6.2-3.75q-1.55 4.65-7.25 7.7L16.15 22.2l.2-7.65" fill="#19110e"/></g><g id="l" fill-rule="evenodd"><path d="M15.95 20.8q-.55-.5-1.25-.5-.75 0-1.3.5-.5.55-.5 1.3 0 .7.5 1.2.55.55 1.3.55.7 0 1.25-.55.5-.5.5-1.2 0-.75-.5-1.3m.35-.85q.85.85.85 2 0 1.2-.85 2.05-.85.85-2 .85-1.2 0-2.05-.85-.85-.85-.85-2.05 0-1.15.85-2 .85-.85 2.05-.85 1.15 0 2 .85m21.35-1.35q.7-.85 1.7-.85t1.7.85q.7.85.7 2t-.7 2q-.7.85-1.7.85t-1.7-.85q-.7-.85-.7-2t.7-2m.7.85q-.5.5-.5 1.2t.5 1.2q.5.5 1.2.5t1.2-.5q.5-.5.5-1.2t-.5-1.2q-.5-.5-1.2-.5t-1.2.5m14.5-13.8q-.25-.3-.65-.3t-.7.3q-.3.25-.3.7 0 .4.3.65l.7.3.65-.3.3-.65-.3-.7m-1.25-1.3.75-.15q.85 0 1.4.55.6.6.6 1.45t-.6 1.4q-.55.6-1.4.6-.85 0-1.45-.6-.55-.55-.55-1.4 0-.85.55-1.45.3-.3.7-.4" fill="#fcfea0"/><path d="M15.95 20.8q.5.55.5 1.3 0 .7-.5 1.2-.55.55-1.25.55-.75 0-1.3-.55-.5-.5-.5-1.2 0-.75.5-1.3.55-.5 1.3-.5.7 0 1.25.5m22.4-1.35q.5-.5 1.2-.5t1.2.5q.5.5.5 1.2t-.5 1.2q-.5.5-1.2.5t-1.2-.5q-.5-.5-.5-1.2t.5-1.2m14.5-13.8.3.7-.3.65-.65.3-.7-.3q-.3-.25-.3-.65 0-.45.3-.7.3-.3.7-.3.4 0 .65.3" fill="#fff"/><path d="M16.3 19.95q-.85-.85-2-.85-1.2 0-2.05.85-.85.85-.85 2 0 1.2.85 2.05.85.85 2.05.85 1.15 0 2-.85.85-.85.85-2.05 0-1.15-.85-2m-8.65 2.6 1-1.8 1.2-1.5q1.05-1.05 2.2-1.75 1.6-.95 3.4-1.25l1.7-.15 2.9.4.8.3 1.45.7 2.2 1.75q2.45 2.6 2.9 6.05l.1.75V26l.1.3v.25q0 1.75-.5 3.15v.1l-.05.1v.15q-.55 1.95-1.85 3.6l-.7.8q-1.65 1.7-3.65 2.45l-.8.3-2.9.4-1.7-.15-.75-.15-1.15-.35.25-.65-.25-.6q-.25-.3-.6-.3l-.6.1-.6.55-.9-.65q.4-.25.55-.25.45 0 .95-.35.55-.35.75-.35.25 0 .45.3l.55.4.7-.7.65-.7-.35-.65-.6-.8-.35-.9q-.1-.65-.45-.7l-.3 2.3h-.25q-.4-.55-.75-.55l-.45.2-.1.1-.2-.05v.3l-.1 1.6-.1.1-.25.05-.95-.35-.35-.2-.2-.05-.2-.1-.15-.2-1.1-1.5q.65-1.4 2.6-2.05Q13 29.55 13 28.95l-.05-.3-.05-.1-1.35.4-1.4.4-1.55-.5q-.95-.55-1.7-.65v-.1l-.05-1 1 .2h.45q1 0 1.9-.55l.1-.1.15-.1.8-.15 1.25-.3v-.25l-1.15-.95h-.1q-.05-1.45-1.05-1.7l-.05-.05-2.2-.45-.2-.1-.1-.05m14.15.85-.8.35q-.3.05-.3.6 0 .45.4.55h.8l1.25-.15q.4-.15.4-.6 0-.45-.55-.55l-.3-.05-.4-.15h-.5m-5.15.85-.5.2q-.15.2-.15.5l.15.45.5.2q.3 0 .45-.2l.25-.45-.25-.5-.45-.2m3.8 6.05q.15.4.75.4.45 0 .6-1.7l-.3-.9q-.25-.35-.65-.4-.55.45-.55 1.3 0 .95.15 1.3m-.3 5.05.1-.05 1.95-1.1.55.55q1.8-1.8 2.7-3.55 1.3-2.55 1.05-5.5l-.9 2-1.1 2.05.5-.15q-.1 1.7-1.1 2.7-1.15 1.2-2.95.55.15.55-.35 1.15l-2.5.7q-1.3.2-.9 1.25-1.2-.15-1.4.3-.2.5-.8.5l-.35-.05h-.1l.2.4.4.05 1.6-.25.6.15.6.1L19 36.9l.5-.45-.2-.35-.2-.4.35-.1.7-.25m2.3-7q0 .4.55.7l.65.3q.25 0 .3-.15l.15-.15v-.4l-.85-.55-.4-.6-.3.3-.1.55m3.85-4.6-.7-.15-.2.1-.25.2q-.55.35-.55.6l.4.65.7.3q.55 0 .65-1.1l-.05-.6m-1.65 1.8-.55-.2-.5.2-.5.4q-.45.4-.5.95h.05l.7-.45.65-.35q.6 0 .5.95h.05l.05.15h.3l.25-.9q0-.45-.5-.75" fill="url(#B)"/><path d="m13.55 36.95 1.15.35.75.15 1.7.15 2.9-.4.8-.3q2-.75 3.65-2.45l.7-.8q1.3-1.65 1.85-3.6v-.15l.05-.1v-.1q.5-1.4.5-3.15v-.25l-.1-.3v.05l-.1-.75q-.45-3.45-2.9-6.05l-2.2-1.75-1.45-.7-.8-.3-2.9-.4-1.7.15q-1.8.3-3.4 1.25-1.15.7-2.2 1.75l-1.2 1.5-1 1.8v.05h.1l.2.1h-.1l-.7-.25-.1-.1.1.05.6-1.15.25-.5 1.5-1.9q.75-.75 1.55-1.35 2-1.45 4.4-1.8l1.7-.1 2.9.35.8.3q1.3.45 2.45 1.25l1.55 1.35q2.85 2.95 3.15 7v.05l.1.05h.05l.05.05-.05.05.05.5H28v.6l-.05 1.6-.2.85h.15l-.15.55h-.15l-.05.25q-.7 2.25-2.35 4.05l-.35.35q-1.75 1.9-4 2.7l-.8.25-2.9.4-1.7-.1q-1.5-.25-2.85-.9l-.05-.05-2.2-1.45-.15-.15-.7-.7L8 33q-1.7-2.65-1.7-6.05h-.1l-.05-.05-.05-.05.2-.05q.6 0 1.55.5l-1-.2.05 1v.1q.25 2.25 1.35 4.15l1.1 1.5.15.2 1.35 1.35.9.65q.85.55 1.8.9m25.4-2 3.35.55q4.2 0 7.15-3 2.95-2.9 2.8-6.45-.1-3.6-3.05-6.55-2.95-3-6.8-3.15-3.85-.2-6.95 2.5-3.1 2.65-3.15 6.7l.05.85-.25.1-.3-.05-.05-.9q.05-1.55.45-2.8.75-2.5 2.9-4.3 3.25-2.85 7.3-2.65 3.05.15 5.6 1.95l.1-.05.4.2-.15.1 1.2 1.1.5.55.35.35q2.3 2.75 2.4 6 .15 3.8-3 6.9-3.1 3.15-7.5 3.15-2 0-3.75-.65-1.35-.55-2.5-1.4l-1.25-1.1q-1.1-1.1-1.8-2.35l.4-.1.15-.05 1.6 2.1q.7.7 1.5 1.25l.6.4q.8.5 1.7.8M49.2 5.05l.45-.35q1.45-1.15 3.1-1.5l-.15-.1.4-.2.15.15.05.1 1.05-.1q2.75 0 4.7 1.95 1.9 1.95 1.9 4.7t-1.9 4.7q-1.4 1.4-3.2 1.75l-.55.15-.95.05-1.15-.1.1-.45.05-.05 1 .05q1.4 0 2.65-.55L58.55 14q1.8-1.75 1.8-4.3t-1.8-4.3q-1.8-1.8-4.3-1.8-1.45 0-2.75.6-1 .45-1.95 1.3Q48 6.8 47.6 8.45l-.05.15-.1 1.25q.1 1.65 1 2.95l1.2 1.25.4.35-.2.5-.55-.45-1.3-1.4q-1-1.4-1.05-3.2Q46.8 7.1 49.2 5.1v-.05" fill="#42240c"/><path d="M7.85 27.3q-.95-.5-1.55-.5l-.2.05-.15-.05H5.9l-.9-.35-.3-.65.3.05 1.1.45.2.05V26l.6.6h.05l1.35.2q.85 0 1.6-.5.8-.5.8-1.3v-.4l-.05-.15q-.15-.55-.6-.75l-2.1-.45-1-.3v-.05l-.75-.3-.85-.35-.05-.05-2.15-.7H3.1l-.3-.05L1.55 21l-.95-.5-.6-1.15 1.75 1.15h.05l1 .35.4.15 2.3.75.95.35.6.25.1.1.7.25h.1l2.2.45.05.05q1 .25 1.05 1.7v.1q.05.9-.8 1.55l-.15.1-.1.1q-.9.55-1.9.55h-.45m19.9 2.85.15-.55 1.6.05h.05l.4.05 2.25.05h1.15l.6-.05h.3q3.3-.4 3.35-1.9l-.2-.75q-.2-.25-.5-.25l-.65.05-1.1.15-.25.05-1.5.15h-1l-.55.1v-.1h-.05l-1.5-.05-.7-.15-.2-.05-.95-.35-.25-.05-.05-.5.05-.05 1.4.45h.05l.7.15h.05l1.4.05v-.2l.3.05.25-.1v.25h1.15l1-.1.55-.1 1-.15.85-.05q.55 0 .95.55l.3 1q0 1.4-1.85 2l-1.2.3-1.65.2.1.1-.15.05-.4.1-.15-.25h-.65l-2.1-.05-.6-.05-1.75-.05M50.4 20l-.35-.35h.1q1.1-.55 2-2.4l.45-1.1v-.55l.15.05v-.1L53 13.7v-.4q0-2.75-.75-2.75-.55.05-.95 1.35v.1l-.25 1.05-.3 1.1v.05l-.2.5.1.1-.3.45q-.85 1.85-1.85 2.65l-.4-.2q1.05-.8 1.9-2.65V15l-.15-.1.2-.5.15.05.15-.4.15-.8.15-.5.25-.95.3-.8q.4-.9 1.05-.9 1.2-.05 1.2 3.2l-.25 2.15-.05.25.1.05-.05.05-.1.45H53v.05l-.5 1.15q-.9 1.95-2.1 2.55M49.2 5.05l.05-.05-.05-.1Q49 2 47.75.35l.15.05-.1-.05-.1-.15.1-.15.1-.05h.85q1.05.5 2.35 1.35L53 2.9l-.4.2-1.75-1.4-2.2-1.3h-.3q1.05 1.65 1.3 4.3l-.45.35" fill="#140702"/><path d="m.6 20.5.95.5 1.25.45.3.05h.05l2.15.7.05.05.85.35-.5 1.05q-.6 1.45-.7 2.2l-.3-.05-.05-.05h-.2v.05l-.1-.15-.05-.1-.3-.45-1.2-1.35-.9-1.15-.5-.7-.15-.2-.65-1.1-.2-.25.2.15" fill="#75171f"/><path d="m6.95 22.95 1 .3 2.1.45q.45.2.6.75l.05.15v.4q0 .8-.8 1.3-.75.5-1.6.5l-1.35-.2.1-.25q.7-2.2-.3-2.7-1.15-.95-.35-.8l.55.1" fill="#cf472d"/><path d="M13.55 36.95q-.95-.35-1.8-.9l.6-.55.6-.1q.35 0 .6.3l.25.6-.25.65m-2.7-1.55L9.5 34.05l.2.1.2.05.35.2.95.35.25-.05.1-.1.1-1.6v-.15l.2-.1.1-.1.45-.2q.35 0 .75.55h.25l.3-2.3q.35.05.45.7l.35.9.6.8.35.65-.65.7-.7.7-.55-.4q-.2-.3-.45-.3-.2 0-.75.35-.5.35-.95.35-.15 0-.55.25m-2.6-3.05q-1.1-1.9-1.35-4.15.75.1 1.7.65l1.55.5 1.4-.4 1.35-.4.05.1.05.3q0 .6-2.15 1.35-1.95.65-2.6 2.05m3.1-7.45 1.15.95v.25l-1.25.3-.8.15q.85-.65.8-1.55l.1-.1m10.45-1.5h.5l.4.15.3.05q.55.1.55.55 0 .45-.4.6l-1.25.15h-.8q-.4-.1-.4-.55 0-.55.3-.6l.8-.35m-2.35 12.2-.35.1.2.4.2.35-.5.45-1.05.25-.6-.1-.6-.15-1.6.25-.4-.05-.2-.4h.1l.35.05q.6 0 .8-.5.2-.45 1.4-.3-.4-1.05.9-1.25l2.5-.7q.5-.6.35-1.15 1.8.65 2.95-.55 1-1 1.1-2.7l-.5.15 1.1-2.05.9-2q.25 2.95-1.05 5.5-.9 1.75-2.7 3.55l-.55-.55-1.95 1.1-.1.05-.65.2-.05.05m1-5.3q-.15-.35-.15-1.3 0-.85.55-1.3.4.05.65.4l.3.9q-.15 1.7-.6 1.7-.6 0-.75-.4m2-1.95.1-.55.3-.3.4.6.85.55v.4l-.15.15q-.05.15-.3.15l-.65-.3q-.55-.3-.55-.7m16.5 6.6q-.9-.3-1.7-.8.85-.75 1.25-.75.7 0 .7 1.2l-.25.35m-2.3-1.2q-.8-.55-1.5-1.25l-1.6-2.1-.1-.1 1.65-.2.05.05.45.3q1.25.8 1.8.8l.95-.15q-.15-.55.25-1.4l.6-.9q-.05 1.4.7 1.75.75.35.75 1.05 0 .65-.3.9l-.9.9-.4-.4-.4-.3q-.35 0-1.35.7l-.65.35m-3.7-7.1-.1-.4v-.2l.15-.75.3-.7-.05-.15.05-.3.25-1q.2-.7.25.5l.95.15q-.3 1.1.35 1.5l.15.15.8.85-1 .15-.55.1-1 .1h-.55m-8.3-1.1q.5.3.5.75l-.25.9h-.3l-.05-.15h-.05q.1-.95-.5-.95l-.65.35-.7.45h-.05q.05-.55.5-.95l.5-.4.5-.2.55.2m1.65-1.8.05.6q-.1 1.1-.65 1.1l-.7-.3-.4-.65q0-.25.55-.6l.25-.2.2-.1.7.15m8.95-.55 1.5-.05.8.4.7.6q0 .6-.45.8l-.9.5h-.7q.35-.75-.3-1.25l-.65-1m6.05 10.95 2-.8 2.1-.75 1.6-1.4 1.5-1.15v.9l.95.15-.55.9-.75.7-.3-.2-.5-.2q-.2 0-.5.3l-.4.4.25.25.15.25q-.15 0-.65.35l-.8.35v-.25l.1-.3h-1.2l-1.6.3-1.4.2m7.15-21.35q-.9-1.3-1-2.95l.1-1.25.05-.15 1.05-.4q-.25.65.15 1.25l.5 1q-.4.05-.75-.3l-.45-.6-.15.5-.15.55q.5 0 .8.35.3.25.3.65l-.25 1.1-.2.25m8.45 2.45q-1.25.55-2.65.55l-1-.05-.1-.05.05-.25.2-.1q1.8-1 1.95-2.2h1.9q.4.05.75-.3l.35-.35.25-.3.15-.25-.2-.4-.2-.35.4-.55.15-.15.5.1-.15.5-.25.9q0 .95-1.4 2.45l-.7.8M50.7 8.3l.35.4-1 .8-1-.8q.55.05 1.45-.55l.2.15m7.05-.6.2-.2h.1q0 .55-.5.9l-.9.3-.7-.15q.05-.95.45-.95l1.1.15.25-.05m1 0 .6-.35.05.4.15.6-.25.5-.2.1-.3.15h-.05l-.3-.5-.1-.3.4-.6m-.55 1.7-.2.05-.35.15h-.1q0-.35.25-.75h.4l.15.45-.15.1m-2.15.65q0 .5.25.6l.4.2-.25.95h-.25l-.3-.55-.25-.55.4-.65M51.2 11l-.3.8-.25.95-.15.15-.05-.15h-.05l-.4-.8-.3.1v.15l-.15-.8.9-.25.4-.3.25.05.1.1m-.6 11.95.2.7-.15.95q-1.6.05-1.6-.5 0-.8.55-.95.65-.25.9-.95l.1.75m-1.4 1.85q.25.35.1.75l-.15.15-.35-.4-.5-.3q-.15 0-.35.15l.1-.35q.2-.3.7-.3.25 0 .45.3m.1 4.5-.05-.05-.1-.05v-1.5l.75-.55.6-.65.35-1q.2-.7.45-.85l-.75 2.45-1.2 2.2h-.05m-.85-6.55.2.45q0 .75-1.7.75l-.8-.05-.65-.5q.7-.55 1.2-.55l.6-.05 1.1-.2.05.15m-2.5 3.6.5.45.15.5-.25 1-.55.75-.15-.8-.15-.65.1-.75q.05-.35.35-.5" fill="#773511"/><path d="m6.2 22.6.75.3v.05l-.55-.1q-.8-.15.35.8 1 .5.3 2.7l-.1.25H6.9l-.6-.6v.35l-.2-.05-1.1-.45q.1-.75.7-2.2l.5-1.05" fill="#a23730"/><path d="m16.65 24.25.45.2.25.5-.25.45q-.15.2-.45.2l-.5-.2-.15-.45q0-.3.15-.5l.5-.2M42.6 24l-.2.55-.55.25-.55-.25-.2-.55.2-.5.55-.25q.35 0 .55.25l.2.5M53.55 9.3l-.45-.15-.15-.4q0-.25.15-.45.2-.15.45-.15l.4.15.2.45-.2.4-.4.15" fill="#fcfec4"/><path d="M37.65 18.6q-.7.85-.7 2t.7 2q.7.85 1.7.85t1.7-.85q.7-.85.7-2t-.7-2q-.7-.85-1.7-.85t-1.7.85m-5.3 7.8-.05-.85q.05-4.05 3.15-6.7 3.1-2.7 6.95-2.5 3.85.15 6.8 3.15 2.95 2.95 3.05 6.55.15 3.55-2.8 6.45-2.95 3-7.15 3l-3.35-.55.25-.35q0-1.2-.7-1.2-.4 0-1.25.75l-.6-.4.65-.35q1-.7 1.35-.7l.4.3.4.4.9-.9q.3-.25.3-.9 0-.7-.75-1.05-.75-.35-.7-1.75l-.6.9q-.4.85-.25 1.4l-.95.15q-.55 0-1.8-.8l-.45-.3-.05-.05 1.2-.3q1.85-.6 1.85-2l-.3-1q-.4-.55-.95-.55l-.85.05-.8-.85-.15-.15q-.65-.4-.35-1.5l-.95-.15q-.05-1.2-.25-.5l-.25 1-.05.3.05.15-.3.7-.15.75v.2l.1.4h-.6v-.25M42.6 24l-.2-.5q-.2-.25-.55-.25l-.55.25-.2.5.2.55.55.25.55-.25.2-.55m-7.35-.8.65 1q.65.5.3 1.25h.7l.9-.5q.45-.2.45-.8l-.7-.6-.8-.4-1.5.05.05.45.1.45-.15-.9m6.05 10.95 1.4-.2 1.6-.3h1.2l-.1.3v.25l.8-.35q.5-.35.65-.35l-.15-.25-.25-.25.4-.4q.3-.3.5-.3l.5.2.3.2.75-.7.55-.9-.95-.15v-.9L47 31.2l-1.6 1.4-2.1.75-2 .8-.25.05h.15l.1-.05m9.3-11.2-.1-.75q-.25.7-.9.95-.55.15-.55.95 0 .55 1.6.5l.15-.95-.2-.7m-1.4 1.85q-.2-.3-.45-.3-.5 0-.7.3l-.1.35q.2-.15.35-.15l.5.3.35.4.15-.15q.15-.4-.1-.75m-.75-2.05-.05-.15-1.1.2-.6.05q-.5 0-1.2.55l.65.5.8.05q1.7 0 1.7-.75l-.2-.45m.9 6.55 1.2-2.2.75-2.45q-.25.15-.45.85l-.35 1-.6.65-.75.55v1.5l.1.05.05.05v.05l.05-.05m-3.4-2.95q-.3.15-.35.5l-.1.75.15.65.15.8.55-.75.25-1-.15-.5-.5-.45" fill="url(#C)"/><path d="M27.9 29.6h-.15l.2-.85.05-1.6v-.6h.2l.25.05.95.35.2.05-.05.65q0 .6.35 1.75l.05.3-.4-.05h-.05l-1.6-.05" fill="#c63e2a"/><path d="m29.6 27 .7.15 1.5.05.05.1.55-.1h1l1.5-.15.25-.05 1.1-.15.65-.05q.3 0 .5.25l.2.75q-.05 1.5-3.35 1.9h-.3l-.6.05H32.2l-2.25-.05-.05-.3q-.35-1.15-.35-1.75l.05-.65" fill="#e54d25"/><path d="M49.65 4.7q-.25-2.65-1.3-4.3h.3l2.2 1.3 1.75 1.4.15.1q-1.65.35-3.1 1.5" fill="#7d1824"/><path d="M47.6 8.45Q48 6.8 49.55 5.5q.95-.85 1.95-1.3 1.3-.6 2.75-.6 2.5 0 4.3 1.8 1.8 1.75 1.8 4.3t-1.8 4.3l-1.65 1.25.7-.8Q59 12.95 59 12l.25-.9.15-.5-.5-.1-.15.15-.4.55.2.35.2.4-.15.25-.25.3-.35.35q-.35.35-.75.3h-1.9q-.15 1.2-1.95 2.2l-.2.1.25-2.15q0-3.25-1.2-3.2-.65 0-1.05.9l-.1-.1-.25-.05-.4.3-.9.25.15.8v-.15l.3-.1.4.8h.05l.05.15.15-.15-.15.5-.15.8-.15.4-.15-.05-.4-.35-1.2-1.25.2-.25.25-1.1q0-.4-.3-.65-.3-.35-.8-.35l.15-.55.15-.5.45.6q.35.35.75.3l-.5-1q-.4-.6-.15-1.25l-1.05.4m4-4.1q-.4.1-.7.4-.55.6-.55 1.45t.55 1.4q.6.6 1.45.6t1.4-.6q.6-.55.6-1.4 0-.85-.6-1.45-.55-.55-1.4-.55l-.75.15m-.9 3.95-.2-.15q-.9.6-1.45.55l1 .8 1-.8-.35-.4m2.85 1 .4-.15.2-.4-.2-.45-.4-.15q-.25 0-.45.15-.15.2-.15.45l.15.4.45.15m4.2-1.6-.25.05-1.1-.15q-.4 0-.45.95l.7.15.9-.3q.5-.35.5-.9h-.1l-.2.2m1 0-.4.6.1.3.3.5h.05l.3-.15.2-.1.25-.5-.15-.6-.05-.4-.6.35m-.55 1.7.05.1v.1l.15-.1-.05-.15V9.3l-.15-.45h-.4q-.25.4-.25.75l-.05.2.05.1.05-.3h.05l.35-.15.2-.05m-2.15.65-.4.65.25.55.3.55h.25l.25-.95-.4-.2q-.25-.1-.25-.6" fill="url(#D)"/><path d="M51.05 13.05 51.3 12v-.1q.4-1.3.95-1.35.75 0 .75 2.75v.3l-.55-.4-.9-.3-.5.15" fill="#801c25"/><path d="m50.05 19.65-.5-.55-1.2-1.1.15-.1q1-.8 1.85-2.65l.3-.45-.1-.1.2-.5v-.05l.3-1.1.5-.15.9.3.55.4v.1l-.25 1.85v.1l-.15-.05v.55l-.45 1.1q-.9 1.85-2 2.4h-.1" fill="#b1221f"/></g><g id="m"><path d="m10.35 63.75-.2.05-.55.05q-2.7-.05-3.85-2.35-1.25-2.45-2.6-9.6-.5-2.4-.7-4.3l-.05-.1q-.55-3.65-.35-5.35l.35-3.45.05-.95.1-2.3.05-.1q-1.25-.45-1.25-2.15 0-.75.6-1.6l.8-1.15q.05-.1.15-.1v-.1l.6-3.55.8-3.05q1.4-3.6 5.35-3.6l1.05.15.15.05L11 20l.7-1.1q.7-1.4.7-3.05l-.35-2.05q-.4-1.2-1.2-2.45l-.1-.15-.1-.1L7.9 7.55 6.85 6.4 3.9 4.25 2.3 3.2l-.65-.5H1.6Q.3 1.6.05.45v-.2l.2-.1h.2L7.7 0l.15.05.05.05H8l.2.1 2.05 2.6 1 1.3.35.35.05.05.3.3.6 1.15-.2-.15.2.25.65 1.1.15.2.5.7.9 1.15 1.2 1.35.3.45.05.1.1.15v-.05h.2l.05.05.3.65-.25-.1.25.45q.9 2.05 1 5v.65q0 2.6-.85 4.8-.8 2.05-2.35 3.7l-.3.3L13 27.9q1.15.85 1.45 3.65v.05l-.35 1.15.1.1q.75 2.45 2 5.75l.05.1 2.45 6.25V45l.85 2.6q1.65 5.5 1.65 10.45l-.05 1.65-.7 1.55-.2.1-.15-.1-.15-.15.1-.2.05-.05-.15-.15-.85-6q-.45-2.7-1.25-4.55l.25 7.2q0 2.2-.4 3.05v.05l-.05.1q-.65 1.2-2.4 1.2l-.2-.05-.05-.2-.2-.75-1.05 3-.1.15h-.25l-1.1-.45-.8-.45v.15l-.2.65-.1.1H11l-.15-.1q-1.4-1.85-2.6-3.9l-1.7-3-.7-1.4-.5-1.25-.4-1.15-.15-.1-.05-.15-.65-2.35v-2.9q.05-1 .15 0v.5l.2 1.6.15.6.6 2.3h.1l.1.15q.8 2.55 2.65 5.8l2.9 4.5.15-.55.1-.15.15-.05.15.05 1.05.6.8.35 1.05-3 .05-.55.05-.15-.05-.15V57.5l-.65-9.9-.15-1.65-.3-3.75-.25-1.7q-.2-1.6.1-.6l.5 1.55.2.7.45 5.45.65 9.9v1.95l-.05.15.35.75.2.85q1.25-.05 1.7-1l.25-.95.1-1.9q0-5.45-.4-8.6v-.25l.05-.2.2-.05.2.05.1.2v.15q1.3 2.2 1.95 6l.8 5.55.15-.55.05-1.6q0-4.9-1.65-10.45l-.8-2.45-1.9-4.8-.65-1.65-1.9-5.45-.95.7-1.65.65q-2.5.85-5.45.85H3.25l-.15-.05v.05l-.1 2.4-.05.85-.4 3.5q-.15 1.6.35 4.95l.05.45.75 4.2q1.35 7 2.55 9.45.9 1.85 2.9 2l.5.05.45-.05h.05l.2.4v.1m5.9-51.65-.3-.6-.1-.1-.05-.1-.3-.4-.75-.9-1.35-1.65-1.35-2.05-.75-1.4-.05-.05-.4-.4-.05-.05-1-1.3L7.75.5V.45L.65.6q.3.85 1.35 1.65v.05l.6.45L4.2 3.8Q6 4.85 7.2 6l1.1 1.2 2.8 3.6.05.15.15.1q.8 1.2 1.2 2.4.45 1.25.45 2.4 0 1.6-.55 2.9l-1 1.6L10 22.3l1 2.25.05.15.85 2 .4 1.05.1-.05.85-.6.45-.4 1.05-1.1q1.3-1.5 2-3.4.65-1.95.65-4.3v-.65q-.1-3.1-1.15-5.15M10.7 25.25l-.2-.5-1.05-2.45 1.05-1.6-.85-.1q-3.6 0-4.85 3.25-.4 1-.75 2.85l-.6 3.65v.05l1.9.3 1.55-.1 2.4-.75 1.35-.9 1.05-1 .1-.05-.45-1.2-.65-1.45m.25 4.1-1.4 1q-1.4.7-3.15.85l-1.05.05-2.25-.4-.75 1.1q-.45.65-.45 1.25 0 1.45 1.15 1.7l.05.05.15-.05H5.7q2.85 0 5.3-.8l1.65-.7.85-.65.1-.1.05-.1.25-.95q-.25-2.55-1.25-3.3l-.1-.15h-.05l-.15-.1-.15.15-.1.15-1.15 1" fill="#140702" fill-rule="evenodd"/><path d="M12.5 13.45q-.4-1.2-1.2-2.4l-.15-.1-.05-.15-2.8-3.6L7.2 6Q6 4.85 4.2 3.8L2.6 2.75 2 2.3v-.05Q.95 1.45.65.6l7.1-.15V.5L9.8 3.1l1 1.3.05.05.4.4.05.05.75 1.4 1.35 2.05L14.75 10l.75.9.3.4.05.1.1.1.3.6h-.1l-.7-.15q-.65 0-2.1.9l-.85.6m.15 19.95-1.65.7q-2.45.8-5.3.8H3.25l-.15.05-.05-.05q-1.15-.25-1.15-1.7 0-.6.45-1.25l.75-1.1 2.25.4 1.05-.05q1.75-.15 3.15-.85l1.4-1 1.1 2.2.6 1.85" fill="#c77e10" fill-rule="evenodd"/><path d="M16.25 12.1q1.05 2.05 1.15 5.15l-2.7.7-2.3.8q.55-1.3.55-2.9 0-1.15-.45-2.4l.85-.6q1.45-.9 2.1-.9l.7.15h.1" fill="#ca8611" fill-rule="evenodd"/><path d="M17.4 17.25v.65q0 2.35-.65 4.3l-.25-.25Q15 20.3 14.05 20.3q-1.25 0-1.9 1.1-.55.9-.55 2.15 0 1.15.6 2l.75 1.15.3.4-.85.6-.1.05-.4-1.05-.85-2-.05-.15-1-2.25 1.4-1.95 1-1.6 2.3-.8 2.7-.7" fill="#d4a726" fill-rule="evenodd"/><path d="M16.75 22.2q-.7 1.9-2 3.4l-1.05 1.1-.45.4-.3-.4-.75-1.15q-.6-.85-.6-2 0-1.25.55-2.15.65-1.1 1.9-1.1.95 0 2.45 1.65l.25.25" fill="#f1e576" fill-rule="evenodd"/><path d="M2.9 47.15q-.5-3.35-.35-4.95l.4-3.5.05-.85.1-2.4h2.6q2.95 0 5.45-.85l1.65-.65.95-.7 1.9 5.45.65 1.65.25 7.25.1 3q.2 3.95.8 8.65l-.25.95q-.45.95-1.7 1l-.2-.85-.35-.75.05-.15V57.5l-.65-9.9-.45-5.45-.2-.7-.5-1.55q-.3-1-.1.6l.25 1.7.3 3.75q-.15-.8-1.9-3.65l-1.4-2.1Q5.7 44.95 2.9 47.15m4-16.55-1.55.1-1.9-.3v-.05l.6-3.65q.35-1.85.75-2.85 1.25-3.25 4.85-3.25l.85.1-1.05 1.6 1.05 2.45.2.5-.9 1.45-1.1 1.55-1.8 2.35" fill="#7f1624" fill-rule="evenodd"/><path d="M9.15 63.25q-2-.15-2.9-2-1.2-2.45-2.55-9.45l-.75-4.2-.05-.45q2.8-2.2 7.45-6.95l1.4 2.1q1.75 2.85 1.9 3.65l.15 1.65.65 9.9-2.15-7.4-.8-2.5q-.9-2.25-1.95-3.75l-.95 2.2-.5 1.15-.8-.75-.5 1.15-1.4 2.65-.65-1.3-.5-.85v-.5q-.1-1-.15 0v2.9l.65 2.35.05.15.15.1.4 1.15.5 1.25q1.35 5.1 3.3 7.75m7.15-22.9 1.9 4.8.8 2.45q1.65 5.55 1.65 10.45l-.05 1.6-.15.55-.8-5.55q-.65-3.8-1.95-6v-.15l-.1-.2-.2-.05-.2.05-.05.2v.25q.4 3.15.4 8.6l-.1 1.9q-.6-4.7-.8-8.65l-.1-3-.25-7.25m-5.6-15.1.65 1.45.45 1.2-.1.05-1.05 1-1.35.9-2.4.75 1.8-2.35 1.1-1.55.9-1.45" fill="#a71119" fill-rule="evenodd"/><path d="m10.95 29.35 1.15-1 .1-.15.15-.15.15.1.15.15q1 .75 1.25 3.3l-.25.95-.05.1-.1.1-.85.65-.6-1.85-1.1-2.2" fill="#d2a424" fill-rule="evenodd"/><path d="M10.15 63.25h-.05l-.45.05-.5-.05Q7.2 60.6 5.85 55.5l.7 1.4 1.05 1.9.65 1.1 1.9 3.35m4.3-5.75v1.95l.05.15-.05.15-.05.55-1.05 3-.8-.35-1.05-.6-.15-.05-.15.05-.1.15-.15.55-2.9-4.5Q6.2 55.3 5.4 52.75l-.1-.15h-.1l-.6-2.3-.15-.6-.2-1.6.5.85.65 1.3 1.4-2.65.5-1.15.8.75.5-1.15.95-2.2q1.05 1.5 1.95 3.75l.8 2.5 2.15 7.4M5.4 50.25l-.15.15.25.1-.1-.25" fill="#d01611" fill-rule="evenodd"/><path d="m10.35 63.65-.2-.4.15.1.1.15-.05.15m-3.8-6.75 1.7 3-.65-1.1-1.05-1.9" fill="#42240c" fill-rule="evenodd"/><path d="M10.35 63.75v-.1l-.2-.4-1.9-3.35-1.7-3" fill="none" stroke="red" stroke-linecap="round" stroke-linejoin="round" stroke-width=".1"/></g><g id="n" fill-rule="evenodd"><path d="M97.6 17.4q-3.5-4.45-9.8-7.9L84 8.8q-8.7-1.1-13.9 2.8-1.8 1.35-3.15 3.35l-1 1.65-.1.1h.05l.2.05.15.05 3.85 3.15 3.75 2.4q7.85-9.5 15.7-4.35l.15.2v.2l-.05.1-.25.2-.25-.1q-7.3-4.65-14.6 4.15l4.25 1.95.25.2v.25l-1 3.65q6.2 4.4 8.85 10.8 1.05 2.55 1.55 5.45l2.2-.8h.15l.2-.15h.2l.2-.05q7.5-1.8 10.65-12.3.4-8.15-4.45-14.35M31.8 3.7q4.55 3.9 4.8 9.25 11.6-2.65 24.6 0l.2.05.1.15q.75 1.45 1.85 2.3l.1.15.15.1q.75.5 1.6.8l.05-.25 1.5-2.35q1.25-1.7 2.9-2.9 5-3.8 13.2-3.1l.3.05 4.9.85h.1q6 3.25 9.5 7.5 5.65 6.6 5.15 15.5v.1q-3.3 11.05-11.25 12.85l1.95 8.95.15.1 4.85 4.85.1.15v.15q-.45 4.75-3.35 7.15l1.85 1.25.15.2v.15l-.05.2q-3.25 4.1-8.95 5.7l.05.2-.55-.85q5.45-1.45 8.6-5.2l-3.6-2.45-.15-.25.1-.3q.05-.15.2-.15l.3.1 1.4.95v-.05q2.75-2.15 3.25-6.55L93.1 54.3l-.05-.15-.15-.05-.15-.25L90.8 45l-2.55.9-.2.05-.2-.15-.1-.2q-.5-3.2-1.7-6-2.5-5.9-8.2-10l.15-.5v-.05.05l-.2.2-.25.05-.15-.05-.1-.15-.05-.25.5-1.8.5-1.8-3-1.35-1.45-.7-.05-.05-4.1-2.6-3.85-3.15q-1.45-.35-2.6-1.15l-.15-.15-.2-.1q-1.15-.95-1.95-2.4-12.8-2.6-24.2 0l-.25.15-.15.1q-2.05.95-3.95 1.95-9.65 5.1-14.55 9.8l-2.4 2.6-.25.15h-.1l-.15-.1-.15-.25v-.1l.05-.15 1.4-1.6q3.5-3.75 10-7.75l5.45-3.1q-3.05-5.6-7.4-6.2-4.5-.65-10.4 4.05l-.25.1h-.05l-.2-.15-.1-.25.15-.3q5.4-4.3 9.75-4.3l1.2.05q2.05.3 3.9 1.65 2.25 1.7 4.1 5.05l3.5-1.75q-.1-4.75-3.75-8.35-1.4-1.35-3.3-2.5l-.15-.25.05-.3.25-.15.25.05 2.6 1.9m35.1 85.8-2.65 1.2h-.15l-.65.05-.25-.05-.15.05Q52.6 91.1 42.2 93l.95-.95h.15q8.65-1.55 17.3-1.95l2.45-.1.15.05.2-.05.65-.05 2.45-1.05.4.6M58.25 42l2.45.75q1.4.6 2.6 1.3l.1.05h.15q3.85 2.1 6.5 4.6 2.05 1.85 3.35 3.95l.65 1.1 6.2 6.6.05.1v.1q-.4 4.35-4.25 8-2.4 2.2-6.05 4.15l-3.9 1.8v.05l-2.65.6h-.1l-.15.05q-8.05 1.4-14.95-1.05-3.15-1.15-6.1-3.1l-2.1-1.55-.7-.55-.05-.05q-1.85-2.85-3-5.45-1.8-4.05-1.8-7.6 0-.95.15-1.85.25-1.75 1-3.35 1.95-4.35 7.5-7.6l.1-.05q3.65-1 6.85-1.3l4.05-.15 4.1.45M77.1 66.6q2.3-2.8 2.65-5.95l-6.1-6.55-.05-.05-.85-1.4q-1.25-1.9-3.05-3.55-2.6-2.45-6.4-4.5l-.1-.1h-.15q-1.25-.7-2.55-1.25-4.65-1.75-11-.95-2.85.35-6.1 1.2-7.25 4.3-8.2 10.55l-.1 1.9q0 3.6 1.9 7.8l1.3 2.45 1.45 2.4q3.75 3.1 7.9 4.75 3.9 1.5 8.15 1.75l7.3-.45.1.05.15-.1 2.55-.55 3.85-1.85.8-.45q4.25-2.35 6.55-5.15M36.3 83.5q4.15-1.35 5.85-2.55 1.35-1 .85-1.85l-.05-.3.15-.25.3-.05.25.15q1 1.4-1.05 2.9-1.75 1.25-6.05 2.7h-.05l-6.25.75h-.15l-5.5-.35-2.5-.75q-2.2-.9-3.65-2.45Q16 78.9 15.4 74.6l.1-.25.2-.15-.15-.05-1.25-.35-1.9-1.25-.3-.3q-1.35-1.6-1.35-4.3l.05-1.2q-1.8.1-2.95-.85l-.75-.75q-.95-1.3-1.25-3.6v-.05l-.05-.3-.1-1.2-.05-.55.1-.15 1.75-2.95.1-.1h.25l.1.15v.2L6.2 59.5l.15 1.7.25 1.35q.3 1.4.95 2.25.5.75 1.35 1.1l2.05.3.15-.3 3.7-4.7 2.05-2.2 2.35-2.35.5-.4V49.1q-2.25-5.35-5.3-6.4-2.1-.7-4.65.7-1.05.6-2.15 1.55l-.2.05-.15-.05-.1-.25.1-.15.2-.15L9.4 43q2.8-1.65 5.2-.8 3.15 1.05 5.5 6.4l.1.35.05.1v7.3l-.05.1-.05.1-.35.35-2.65 2.55-1.6 1.75-3.8 4.7-.45.7-.05.05v.1l.15.05q.6.55 2.3 1.3l1.55-.45 2.35-.45 1.65.15 1.8.45q2.25.8 2.25 2.15 0 1-.8 1.9v.05l-1.1.9-.1.1q-2 1.4-4.15 1.4l-.75-.05H16h.05l.1.25q.65 4.35 3.3 6.75 3.55 3.25 10.65 3h.15l6.05-.75h.05-.05m-14-12.1q.55-.7.55-1.45 0-1.05-1.95-1.75l-1.65-.4-1.65-.2q-.85 0-2.2.5l-1.75.4h-.05l-2.4-1.25v.7q0 2.75 1.5 4.3l.05.05q1.25 1.25 3.4 1.5v-.05l1.9-1.85q1.25-.9 2.7-.9l1.15.3.4.1m-1.2 1.15.9-.8-.25-.05-1-.3q-1.3 0-2.45.85-.8.5-1.65 1.6h.5q2.05 0 3.95-1.3" fill="#160702"/><path d="m93.1 54.3 4.75 4.75q-.5 4.4-3.25 6.55v.05l-1.4-.95-.3-.1q-.15 0-.2.15l-.1.3.15.25 3.6 2.45q-3.15 3.75-8.6 5.2l-.1.05-.2.1-.1.2v.2l.9 2.05q-2.9 3.15-7.5 5.05l-.8-.45h-.3l-.2.15q-.1.15-.05.3l-.85.7-7.55 2q.3 1.4-5.15 4.3l-5.25 2.5q-8.65.4-17.3 1.95 8.9-2.75 11.9-9 2.05-2.55-6.95-8.9 6.9 2.45 14.95 1.05l.15-.05h.1l2.65-.6v-.05l3.9-1.8q3.65-1.95 6.05-4.15 3.75 1.1 3.95 3.7 3.55-1.75 4.05-5.5l5.3-1.5Q92.9 61 93.1 54.3" fill="#a08a83"/><path d="m77.75 27.1-.5 1.8.05.25.1.15.05.1q6.9 11.45 6.9 23.95l3.7-7.4.2-.05 2.55-.9 1.95 8.85.15.25.15.05.05.15q-.2 6.7-3.75 10.95l-5.3 1.5q-.5 3.75-4.05 5.5-.2-2.6-3.95-3.7 3.85-3.65 4.25-8v-.1l-.05-.1-6.2-6.6-.65-1.1q-1.3-2.1-3.35-3.95-2.65-2.5-6.5-4.6h-.15l-.1-.05q-1.2-.7-2.6-1.3L58.25 42q1.5-3 13.95 1.65l-2.3-8.4q2.85-7 7.85-8.15m-42.1 23.55q-.75 1.6-1 3.35-.15.9-.15 1.85 0 3.55 1.8 7.6Q29 58.2 19.8 56.9l.35-.35.05-.1.05-.1v-7.3l-.05-.1-.1-.35 2.45-3.6q7.85.5 13.1 5.65m6.5 20.4q2.95 1.95 6.1 3.1 9 6.35 6.95 8.9-3 6.25-11.9 9h-.15l-1.45.3-.35.05-7.9 1.15-3.6.55-1.35-.25-1.6-.35q5.65-1.65 5.65-6.4l-7.95-2.45 5.5.35h.15l6.25-.75h.05q4.3-1.45 6.05-2.7 2.05-1.5 1.05-2.9l-.25-.15-.3.05-.15.25.05.3q.5.85-.85 1.85-1.7 1.2-5.85 2.55l-6.05.75h-.15q-7.1.25-10.65-3 6.15 1.6 15.95-.35 7.45-4.05 6.75-9.85" fill="#bcb2a8"/><path d="m75.25 23.95 3 1.35-.5 1.8q-5 1.15-7.85 8.15l2.3 8.4Q59.75 39 58.25 42l-4.1-.45-4.05.15q6.15-3.55 11.3-11.1 5.3-7.65 13.85-6.65" fill="#d2cec0"/><path d="m40.05 69.5 2.1 1.55q.7 5.8-6.75 9.85-9.8 1.95-15.95.35-2.65-2.4-3.3-6.75l-.1-.25H16h.4l.75.05q2.15 0 4.15-1.4l.1-.1q10.6 5.4 18.65-3.3m-21.6 11.95Q19.9 83 22.1 83.9l2.5.75 7.95 2.45q0 4.75-5.65 6.4-3.3-.8-5.8-2l4.85-1.15Q20.7 88 19.15 84q-3.9.55-5.65-1.05l-.15-.55 5.1-.95" fill="#d3cfc0"/><path d="M36.3 63.45q1.15 2.6 3 5.45l.05.05.7.55Q32 78.2 21.4 72.8l1.1-.9v-.05q.8-.9.8-1.9 0-1.35-2.25-2.15l-1.8-.45-1.65-.15-2.35.45-1.55.45q-1.7-.75-2.3-1.3l-.15-.15.05-.05.45-.7 3.8-4.7 1.6-1.75 2.65-2.55q9.2 1.3 16.5 6.55M31.55 24.4l-.55-.1h-.9l.45-.3.6-.5.1.55.3.35" fill="#e7e5db"/><path d="m27.15 22.1.6-.65q.7-.5 1.65-.5 1 0 1.7.5t.7 1.2v.15l.25-.25q.7-.65 2-.55h.15q1.35.15 2.15.65l.35.25.45.95q0 .7-.8 1.15-.7.45-1.7.5h-.2l-.3.05-2-.25.4.6.1.3-.05.05.05.2v.05l-.05.2-.1.4-.05.15-.7.9q-.6.5-1.5.75l-.3.05q-1.1.2-1.85-.35-.7-.6-.6-1.65.15-1.05.7-1.45.5-.45.9-.4l-.85-.5-.5-.45q-.7-.8-.7-1.5l.1-.55m4.4 2.3-.3-.35-.1-.55-.6.5-.45.3h.9l.55.1" fill="#ffb485"/><path d="m32.45 27.25 1.6.85 2.25.45q1.75 0 2.95-1.65.65-.95.8-1.9l.2 2q0 1.4-1.7 2.6-1.75 1.15-3.65 1.1l-2.8-.55-1.85-1.25q.9-.25 1.5-.75l.7-.9" fill="url(#E)"/><path d="m34.2 22 .05-.5q0-2.65-2.75-2.65-1.8 0-2.8.5 1.05-1 2.7-1 1.95 0 3.55.75 2.05.95 2.05 2.5l-.15 1-.15.3-.35-.25q-.8-.5-2.15-.65" fill="url(#F)"/><path d="M28.25 24.6q-1 .2-2.05 1.05-1.4 1.1-1.4 2.3 0 .8.65 1.6l1.1.95v.05L24.8 30q-.55-.25-.95-1.05-.45-.85-.45-1.6 0-1.6 1.15-3.1 1.1-1.5 2.6-2.15l-.1.55q0 .7.7 1.5l.5.45" fill="url(#G)"/><path d="M17.8 25.65q4.9-4.7 14.55-9.8 1.9-1 3.95-1.95l.15-.1.25-.15q11.4-2.6 24.2 0 .8 1.45 1.95 2.4l.2.1.15.15q1.15.8 2.6 1.15l3.85 3.15 4.1 2.6.05.05 1.45.7q-8.55-1-13.85 6.65-5.15 7.55-11.3 11.1-3.2.3-6.85 1.3l-.1.05q-5.55 3.25-7.5 7.6Q30.4 45.5 22.55 45l-2.45 3.6q-2.35-5.35-5.5-6.4-2.4-.85-5.2.8l-1.95 1.4Q7.3 41.75 10 36.8l5.35-7.65 2.45-3.5M34.2 22h-.15q-1.3-.1-2 .55l-.25.25v-.15q0-.7-.7-1.2t-1.7-.5q-.95 0-1.65.5l-.6.65q-1.5.65-2.6 2.15-1.15 1.5-1.15 3.1 0 .75.45 1.6.4.8.95 1.05l1.75.55.35.1-.35-.15-1.1-.95q-.65-.8-.65-1.6 0-1.2 1.4-2.3 1.05-.85 2.05-1.05l.85.5q-.4-.05-.9.4-.55.4-.7 1.45-.1 1.05.6 1.65.75.55 1.85.35l.3-.05 1.85 1.25 2.8.55q1.9.05 3.65-1.1 1.7-1.2 1.7-2.6l-.2-2q-.15.95-.8 1.9-1.2 1.65-2.95 1.65l-2.25-.45-1.6-.85.05-.15.1-.4.05-.2v-.3l-.1-.3-.4-.6 2 .25.3-.05h.2q1-.05 1.7-.5.8-.45.8-1.15l-.45-.95.15-.3.15-1q0-1.55-2.05-2.5-1.6-.75-3.55-.75-1.65 0-2.7 1 1-.5 2.8-.5 2.75 0 2.75 2.65l-.05.5m5.85 3 .05-.8q-.15.15-.05.75V25M18.9 31q-1.8 0-3 1.75-1 1.55-1 3.45 0 1.55 1.1 2.6 1.1 1.1 2.8 1.1 1.15 0 2.1-1.35.9-1.3.9-2.45 0-.85-.6-1.75-.7-1-1.55-1-.5 0-1.05.95l-.3.8.45-.45q.25-.4.75-.5.45-.15.95.65.5.8.5 1.6 0 .75-.7 1.6-.8 1-1.5 1-1.2 0-2.1-1-.85-1-.8-2.6.1-1.6.8-2.3.6-.7 2.8-1.9-.2-.2-.55-.2m25.85-1.95 1.65.95q2.3 1.6 2.3 3.1 0 2.5-1.35 3.8-1.3 1.3-3.7 1.3-1.5 0-2.4-.75-.95-.8-.95-2.2 0-1.1.9-2 .9-.95 2.1-.95.5 0 .85.35t.35.85v.05l.1-.05.1-.65q0-1.45-1.65-1.45-1.4 0-2.85 1.25-1.5 1.3-.9 3.45.6 2.15 2 2.8 1.35.65 3.75.5 2.4-.15 3.7-1.5 1.2-1.3 1.25-3.4 0-2.05-1.3-3.75-1.55-1.85-3.35-1.85l-.55.1-.1.05h.05" fill="#e6e5db"/><path d="M18.9 31q.35 0 .55.2-2.2 1.2-2.8 1.9-.7.7-.8 2.3-.05 1.6.8 2.6.9 1 2.1 1 .7 0 1.5-1 .7-.85.7-1.6 0-.8-.5-1.6t-.95-.65q-.5.1-.75.5l-.45.45.3-.8q.55-.95 1.05-.95.85 0 1.55 1 .6.9.6 1.75 0 1.15-.9 2.45-.95 1.35-2.1 1.35-1.7 0-2.8-1.1-1.1-1.05-1.1-2.6 0-1.9 1-3.45 1.2-1.75 3-1.75m25.9-2 .55-.1q1.8 0 3.35 1.85 1.3 1.7 1.3 3.75-.05 2.1-1.25 3.4-1.3 1.35-3.7 1.5-2.4.15-3.75-.5-1.4-.65-2-2.8-.6-2.15.9-3.45 1.45-1.25 2.85-1.25 1.65 0 1.65 1.45l-.1.65-.1.05v-.05q0-.5-.35-.85t-.85-.35q-1.2 0-2.1.95-.9.9-.9 2 0 1.4.95 2.2.9.75 2.4.75 2.4 0 3.7-1.3 1.35-1.3 1.35-3.8 0-1.5-2.3-3.1l-1.65-.95.05-.05" fill="#815634"/><path d="M86.9 39.6q-2.65-6.4-8.85-10.8l1-3.65v-.25l-.25-.2-4.25-1.95q7.3-8.8 14.6-4.15l.25.1.25-.2 4.85 4.75q3.05 3.55 3.05 7.9 0 5-3.4 6.95-2.4 1.4-7.25 1.5M13.55 13.3h.05l.25-.1q5.9-4.7 10.4-4.05 4.35.6 7.4 6.2l-5.45 3.1-4.85-4.35q-7.6 1.05-8.7 5.3-.05-2.65.9-6.1" fill="#241911"/><path d="m84 8.8 3.8.7q6.3 3.45 9.8 7.9-.25 1.6-1 2.2-.8.7-3.1.7-.95 0-2.4-1.05l-1.4-.85v-.2l-.15-.2q-7.85-5.15-15.7 4.35l-3.75-2.4-3.85-3.15-.15-.05-.2-.05.05-.1 1-1.65q.2.85.5 1.3.65.95 2.45.95.75 0 3.9-1.9l3.5-2.15q1.35-.5 4.6-.9 2.55-.55 2.55-2.4L84 8.8M28.25 10q-1.85-1.35-3.9-1.65l-1.2-.05q2.45-1.4-.3-5.6Q27.3 2 32.1 4.95 30.9 9 28.25 10m-2.05 8.45q-6.5 4-10 7.75-2.85-1.8-3.4-5.4l-.15-1.4q1.1-4.25 8.7-5.3l4.85 4.35" fill="#68402a"/><path d="M97.6 17.4q4.85 6.2 4.45 14.35-3.15 10.5-10.65 12.3l-.2.05H91l-.2.15h-.15l-2.2.8q-.5-2.9-1.55-5.45 4.85-.1 7.25-1.5 3.4-1.95 3.4-6.95 0-4.35-3.05-7.9l-4.85-4.75.05-.1 1.4.85q1.45 1.05 2.4 1.05 2.3 0 3.1-.7.75-.6 1-2.2M32.1 4.95q3.65 3.6 3.75 8.35l-3.5 1.75Q30.5 11.7 28.25 10q2.65-1 3.85-5.05" fill="#221711"/><path d="m16.2 26.2-1.4 1.6-.05.15q-4.4-2.75-5-6.95 2.05 1.5 3.05-.2.55 3.6 3.4 5.4" fill="#754c2e"/><path d="M66.95 14.95q1.35-2 3.15-3.35Q75.3 7.7 84 8.8l.45 1.05q0 1.85-2.55 2.4-3.25.4-4.6.9l-3.5 2.15q-3.15 1.9-3.9 1.9-1.8 0-2.45-.95-.3-.45-.5-1.3M23.15 8.3q-4.35 0-9.75 4.3l-.15.3.1.25.2.15q-.95 3.45-.9 6.1l.15 1.4q-1 1.7-3.05.2l-.05-.55q.3-9.25 5.7-13.9 3.6-3.3 7.45-3.85 2.75 4.2.3 5.6" fill="#a1633f"/><path d="m79.4 80.6.15.2.7.4q-1.05 2-6.75 3.7l.3-1.35-.05-.3-.25-.15-.25.05-.2.2-.65 2.95-5.9 2.6-2.45 1.05-.65.05-.2.05-.15-.05-2.45.1 5.25-2.5q5.45-2.9 5.15-4.3l7.55-2 .85-.7" fill="#b0a2a2"/><path d="m35.1 55.95.1-1.9q.95-6.25 8.2-10.55 3.25-.85 6.1-1.2 6.35-.8 11 .95 1.3.55 2.55 1.25h.15l.1.1q3.8 2.05 6.4 4.5 1.8 1.65 3.05 3.55-2.75-1.2-7.95-.9-9.25 3.05-14.2 6.6-11.45 5.8-15.5-2.4M9.75 43.4q2.55-1.4 4.65-.7 3.05 1.05 5.3 6.4v7.15l-.5.4L16.85 59l-.9-.95-1.45-1q-2.05-1.2-4.15-1.2l-1.65.25-.75.3-.1-.15H7.6l-.3-8.55q1.7 1.2 3.6 1.2 2.15 0 2.15-1.25 0-1.2-2-3l-1.3-1.25" fill="#2a1e14"/><path d="m72.75 52.65.85 1.4.05.05 6.1 6.55q-.35 3.15-2.65 5.95-3.05-4.6-10.45-6.35-14.15.25-15.2 8.35-9.1.8-13.15-2.4L37 63.75q-1.9-4.2-1.9-7.8 4.05 8.2 15.5 2.4 4.95-3.55 14.2-6.6 5.2-.3 7.95.9" fill="#513625"/><path d="M77.1 66.6q-2.3 2.8-6.55 5.15-1-5.75-8.05-6.5-11.15 4.1-6.7 9.85-4.25-.25-8.15-1.75-4.15-1.65-7.9-4.75l-1.45-2.4q4.05 3.2 13.15 2.4 1.05-8.1 15.2-8.35Q74.05 62 77.1 66.6" fill="#6a452d"/><path d="m70.55 71.75-.8.45-3.85 1.85-2.55.55-.15.1-.1-.05-7.3.45q-4.45-5.75 6.7-9.85 7.05.75 8.05 6.5" fill="#995f3f"/><path d="m7.4 45 .2-.05Q8.7 44 9.75 43.4l1.3 1.25q2 1.8 2 3 0 1.25-2.15 1.25-1.9 0-3.6-1.2L7.25 45h.15" fill="#543926"/><path d="m6.6 62.55-.25-1.35-.15-1.7 1.75-2.9v-.2l.75-.3 1.65-.25q2.1 0 4.15 1.2l1.45 1q-2.85 2.5-4.5 3.55-1.9 1.2-3.4 1.2l-1.45-.25" fill="#b57c4a"/><path d="m16.85 59-2.05 2.2-3.7 4.7-.15.3-2.05-.3q-.85-.35-1.35-1.1-.65-.85-.95-2.25l1.45.25q1.5 0 3.4-1.2 1.65-1.05 4.5-3.55l.9.95" fill="#7b5330"/><path d="M21.1 72.55q-1.9 1.3-3.95 1.3h-.5q.85-1.1 1.65-1.6 1.15-.85 2.45-.85l1 .3.25.05-.9.8" fill="#2b2014"/><path d="m22.3 71.4-.4-.1-1.15-.3q-1.45 0-2.7.9l-1.9 1.85v.05q-2.15-.25-3.4-1.5l-.05-.05q-1.5-1.55-1.5-4.3v-.7l2.4 1.25h.05l1.75-.4q1.35-.5 2.2-.5l1.65.2 1.65.4q1.95.7 1.95 1.75 0 .75-.55 1.45m-10.25-2.95q-.3.1-.3.75 0 .5.45.85l.95.25q.95 0 .95-.75 0-.7-.75-.85l-1.05-.2-.25-.05" fill="#78502f"/><path d="m12.05 68.45.25.05 1.05.2q.75.15.75.85 0 .75-.95.75l-.95-.25q-.45-.35-.45-.85 0-.65.3-.75" fill="#a97044"/><path d="M5.85 61.55q.3 2.3 1.25 3.6l.75.75q1.15.95 2.95.85l-.05 1.2q0 2.7 1.35 4.3l.3.3 1.9 1.25q-2 3.6-7 3.15Q6 75 5.55 72.2v-1.3q-.05-.65-.35-.8l-.2.65-.3.5-.6-.7 1.15-1.1.35-.35-3.45-4.55 3.7-3" fill="#e4e3da"/><path d="m14.3 73.8 1.25.35-.05.2-.1.25q.6 4.3 3.05 6.85-8 .3-11.15-4.5 5 .45 7-3.15" fill="#d3cfc1"/><path d="M4.5 58.45q1.95-5 .95-8.7-.4-1.5-.5-3.25l2.25-1.55.05.05.05 2.7.3 8.55-.1.1-1.75 2.95-.1.15.05.55-.2.75-1-2.3" fill="#130602"/><path d="m31.8 3.7-2.6-1.9-.25-.05-.25.15-.05.3.15.25q1.9 1.15 3.3 2.5Q27.3 2 22.85 2.7 19 3.25 15.4 6.55 10 11.2 9.7 20.45l.05.55q.6 4.2 5 6.95v.1l.15.25.15.1h.1l.25-.15 2.4-2.6-2.45 3.5-4 .5h-.1Q6.5 24.7 7 15.45q2.05-7.9 8-12.4 10.2-5.1 16.3-1.65l.5 2.3" fill="#140602"/><path d="m87.75 72.95.55.85.7 1.7.05.2-.1.2q-3 3.4-7.95 5.4-.9 2.5-7.6 4.4h-.1l-.2.95-.05.15-.15.1-6 2.6-.4-.6 5.9-2.6.65-2.95.2-.2.25-.05.25.15.05.3-.3 1.35q5.7-1.7 6.75-3.7l-.7-.4-.15-.2q-.05-.15.05-.3l.2-.15h.3l.8.45q4.6-1.9 7.5-5.05l-.9-2.05v-.2l.1-.2.2-.1.1-.05M42.2 93l-2.1 2.1-12.55.95q-12.95-2.25-16.7-12.8l-.2-.6q-6.8-1.8-7.95-13.35L0 64.15l4.2-5 .3-.7 1 2.3-1.45 1.75-2.6 1.8.55 1.1.95 1.8 2.3 2.25-1.15 1.1-.45.35.85.65q-.2 1.7.65 3.75.7 1.7 1.75 2.95 1.15 1.3 2.85 2.35l2.4 1.3.2.1.05.2q.85 2.45 2.35 4.65 1.45 2 3.2 3.35l1.8 1.45.3.15q1.1.7 2.55 1l3.45.95 2.45.1 1.35.25 3.6-.55 7.6-.7.15.25.3.05.7-.15M4.95 46.5q-.2-2.9.45-6.6 3.2-6.8 5.95-10.15v-.1l4-.5L10 36.8q-2.7 4.95-2.55 7.6l-.2.15-.1.15.1.25H7.2L4.95 46.5" fill="#653e2a"/><path d="M5.85 61.5v.05l-3.7 3L5.6 69.1l-.35.35-2.3-2.25L2 65.4l-.55-1.1 2.6-1.8 1.45-1.75.35.75m21.05 32 1.6.35-2.45-.1-3.45-.95q-1.45-.3-2.55-1l-.3-.15-1.8-1.45q-1.75-1.35-3.2-3.35-1.5-2.2-2.35-4.65l-.05-.2-.2-.1-2.4-1.3q-1.7-1.05-2.85-2.35Q5.85 77 5.15 75.3q-.85-2.05-.65-3.75l-.85-.65.45-.35.6.7.3-.5.2-.65q.3.15.35.8v.25l-.15.05.15.8v.2Q6 75 7.3 76.95q3.15 4.8 11.15 4.5l-5.1.95.15.55q1.6 5.55 7.6 8.55 2.5 1.2 5.8 2m6.55.05 7.9-1.15.35-.05 1.45-.3-.95.95-.7.15-.3-.05-.15-.25-7.6.7" fill="#6f492e"/><path d="m77.55 29.35.25-.05.2-.2v-.05.05l-.15.5q5.7 4.1 8.2 10 1.2 2.8 1.7 6l.1.2.2.15-3.7 7.4q0-12.5-6.9-23.95l.1-.05" fill="#cfc9bf"/><path d="M13.5 82.95q1.75 1.6 5.65 1.05 1.55 4 6.8 6.35L21.1 91.5q-6-3-7.6-8.55" fill="#e2e1d9"/><path d="M54.95 47.6q0 .55-1.1 1.45l-1.05.75h.1q4.8.7 6.45 1.35 2.2.9 4.95 3.05-1.5-.2-2.5-.6l2.45 4.6q.5 1.05 1 2.85l.55 2.4-.7-1.3-.25-.45-1.95 2.65-2.6 2.15q-1.75 1.1-3.8 1.8-2.1.7-4.6.8l-4.15-.3q-1.65-.45-3.1-1.45-1.75-.55-2.95-1.7-2.45-2.25-2.45-6.5 0-1.8.55-3.95l-1.8.5-.05-.25-.15-.55q4.1-2.3 6.55-3.35 2.9-1.3 10.35-4.2l.1-.05.05.05.1.25M64 60.65q-.15-1.75-1.7-3.6-1.75-2.2-2.8-2.35l.2 1.35.2 1.7-.25 2.85q-.65 3.25-2.85 5.05-1.95 1.55-5.25 2.05l1.6.3q3.35.1 6.9-2.3 3.85-2.6 3.95-4.55v-.5m-8.55.65q1.35-1.5 1.35-4.95l-1.15-.5-1.05-.45-1-.55h-.05l-.95-.65-.45-.35-2.95-2.1-.65.1.1.6q0 .85-2.75.85l-1.05-.05-.65.3q-2.1 1.1-3.1 2.05l-.6.65-.25.6-.25.5v.55l-.05.75q0 1.3.55 2.8l.4 1 .8 1.5-.2.1.35.15q2.15 3.05 6.2 2.8 5.1-.35 6.6-1.1l1.1-.8.35-.35 1.65-2.1.45-.85.4-1.75q.05-1.45-.25-2.25l-.8-1.8-.25 2.65q-.25 1.65-.65 2.4l-.15.15-.55.3-.35-.1-.15-.1m1.3-6.45-.05-.1v.1h.05M53.7 62.3l.45.4q-1.05 1.9-2.45 2.85l-1.15.6-2.05.35-1.9-.2q2.65-.55 4.15-1.35l.3-.15.1-.05q1.55-.95 2.55-2.45M11.75 47.8l.75-.45q.5-.45.85-.5 1.2 3.45 2.25 4.7L18 53.6l.15.05.15 1.5.4 2.05q.2.6-.65 1.35l-1.25.95-1.3 1.05-1.85 1.55-.5.5-.4.55q-1.45-.15-2.5-.75-1.6-.9-2-2.6-.25-.85-.75-4.05l-.55-2.8-.1-.95-.25-2.15-.4-3.4q0-.9.15-1.3.25-.45.8-.65l-.15.75-.25.95q0 1.2.85 1.6l1.95.35 2.2-.35m3.8 12.05.5-.35.7-.6q.05-2.95-1.6-5.2l-3.7-3.85q-.1.05-.3.2l-.4.35q-.65.45-.8 1.05-.1.15-.25 1.45l-.2 1.65q0 1.8 1.1 3.9v.05l.25.5.15.15q1.1 1.8 2.45 1.8.6 0 1.95-.95l.15-.15m-6.05-1.2q-.25-.3-.6-2t-.25-2.95l.15-2.05q-.7 1.15-.7 3.95 0 2.75 1.05 4.75 1.25 2.3 3.3 2.3l.6-.25.5-.5-.85-.4-1.1-.5-1.2-1.2-.9-1.15" fill="#1e0c02"/><path d="M56.75 54.85h-.05v-.05l.05.05" fill="#8f493b"/><path d="M40 57.9v-.55l.25-.5.25-.6.6-.65q1-.95 3.1-2.05l.65-.3 1.05.05q2.75 0 2.75-.85l-.1-.6.65-.1 2.95 2.1-1.1.4q-2.2.9-2.2 1.85 0 .45.85.85h.05l.6.55.25.6v.15q0 .65-.9 1.25-.8.6-1.55.6-1.05 0-1.65-1.05-.4-.8-.35-1.8l-.75-.1-.6-.2-.1.05-.85.7-1.75.55-.3.05h-.3l-.45-.05H41l-.4-.15-.6-.2m-28-4.65.55-.3.3-.7-.3-.7q-.25-.3-.7-.3l-.25.05-.45-1.25q.2-.15.3-.2l3.7 3.85q1.65 2.25 1.6 5.2l-.7.6-.5.35-.15-1.2q-.25-1.1-.45-1.1t-.65.25l-.1.1-.25.15-.55.15-.55-.25q-.4-.4-.65-1.45l-.1-.65-.05-.35-.1-1.45.05-.8" fill="#2f1513"/><path d="M53.55 54.85h.05l1 .55 1.05.45 1.15.5q0 3.45-1.35 4.95l-.35.25-.5-.2-.65-.25h-.05q-.15-.7-.95-1.05L51 59.6l-.15-.05.1-.25v-.05q1.95.1 2.95-.45-.05-.4-.35-.5h-.8l-1.85.2-.15-.3-.05-.15-.25-.5 1.3-.15q.6-.4.6-1.2l-.05-.35.6-.3.65-.7" fill="url(#H)"/><path d="m52.65 60.95-.15.15.95.95.25.25q-1 1.5-2.55 2.45-.3-2.75-1.55-2.1-1.35.65-2.05.5l-.4-.05.05-.05v-.85q0-.8-.35-.8l-.65.45-.4.5-1-.85q-.8-.8-1.25-.8h-.3l-.1.05-1.3.1q-.55-1.2-.8-2.6l.45.05h.3l.3-.05.85.3.65.15-.05.3.2.5q.2.2.5.2l.5-.2.2-.5-.2-.5-.3-.15.05-.05h.9q.4 1.45.9 2 .7.7 2.05.7 1 0 1.8-.6l.45-.4.05-.05 1.1.55.9.45m-1.4 1.45q.3.4.7.4l.45-.3q0-.35-.55-.75l-.85-.5-.1.3q0 .45.35.85" fill="url(#I)"/><path d="m13.95 58.05.25-.15.1-.1.2 1q.25.85.9 1.2-1.35.95-1.95.95-1.35 0-2.45-1.8l.7.3 1.1.35q.5 0 .75-.3l.35-.85v-.1l.05-.5" fill="url(#J)"/><path d="m11.15 50.05.45 1.25-.45.25q-.3.3-.3.7l.2.6-.75 1.05-.15.65-.05.8.2 1.55.3 1.55q-1.1-2.1-1.1-3.9l.2-1.65q.15-1.3.25-1.45.15-.6.8-1.05l.4-.35" fill="url(#K)"/><path d="m52.15 53.85.45.35.95.65-.65.7-.6.3q-.05-.3-.3-.5-.3-.35-.9-.35-.55 0-.95.35-.5.35-.5 1l.1.6h-.05q-.85-.4-.85-.85 0-.95 2.2-1.85l1.1-.4m-1.4 4.35.15.3.05.45v.35l-.1.25v.05l-.05.1-.15.25-.05.05-.45.4q-.8.6-1.8.6-1.35 0-2.05-.7-.5-.55-.9-2h-.9l-.05.05-.2-.05-.15.05q-.2 0-.35.15l-.15.2-.65-.15-.85-.3 1.75-.55.85-.7.1-.05.6.2.75.1q-.05 1 .35 1.8.6 1.05 1.65 1.05.75 0 1.55-.6.9-.6.9-1.25l.15-.05" fill="#3a1518"/><path d="m50.9 58.5 1.85-.2h.8q.3.1.35.5-1 .55-2.95.45v-.3l-.05-.45m.1 1.1 1.95.45q.8.35.95 1.05l-.75-.15h-.5l-.9-.45-1.1-.55.15-.25.05-.1H51m-4.4 6.7-.3-.1-.4-.1.05-.2-.5-.65 1.05-.65.65-1.5.4.05q.7.15 2.05-.5 1.25-.65 1.55 2.1l-.1.05-.3.15q-1.5.8-4.15 1.35m-3.4-5.35q0 .65.7 1.85l1 2-1.05-.9q-1.3-1.3-2-3.05l1.3-.1.05.2m8.05 1.45q-.35-.4-.35-.85l.1-.3.85.5q.55.4.55.75l-.45.3q-.4 0-.7-.4M11.6 51.3l.25-.05q.45 0 .7.3l.3.7-.3.7-.55.3h-.15q-.4 0-.7-.3l-.1-.1-.2-.6q0-.4.3-.7l.45-.25m.45 4.2.05.35.1.65q.25 1.05.65 1.45v.2q0 .85.5.85.4 0 .55-.35l-.35.85q-.25.3-.75.3l-1.1-.35-.7-.3-.15-.15-.25-.5v-.05l-.3-1.55-.2-1.55.05-.8q.15-.25.7-.25.55.05.8.5l.4.7m2.25 2.3q.45-.25.65-.25t.45 1.1l.15 1.2-.15.15q-.65-.35-.9-1.2l-.2-1m-3.45-1.9-.1.35.1.3.35.15.3-.15.15-.3-.15-.35q-.1-.15-.3-.15-.2 0-.35.15" fill="#fefaa7"/><path d="m51 55.95.4.15.2.45-.2.4-.4.15q-.25 0-.4-.15l-.2-.4.2-.45q.15-.15.4-.15" fill="#fffebc"/><path d="m52.3 55.85.05.35q0 .8-.6 1.2l-1.3.15-.1-.05-.6-.55-.1-.6q0-.65.5-1 .4-.35.95-.35.6 0 .9.35.25.2.3.5m-1.3.1q-.25 0-.4.15l-.2.45.2.4q.15.15.4.15l.4-.15.2-.4-.2-.45-.4-.15m-6.55 2.4.3.15.2.5-.2.5-.5.2q-.3 0-.5-.2l-.2-.5.05-.3.15-.2q.15-.15.35-.15h.35" fill="#efb76a"/><path d="m55.75 65.1-1.1.8q-1.5.75-6.6 1.1-4.05.25-6.2-2.8l1.95 1.05 2.1.85.4.1.3.1 1.9.2 2.05-.35 1.15-.6q1.4-.95 2.45-2.85l-.45-.4-.25-.25-.95-.95.15-.15h.5l.75.15h.05l.65.25.5.2.65.75q0 .5-.6.6l-.45.05-.05.45-.05.1 1.15 1.6m-1.6-2.4.1.05-.1-.05m-9.25 2.1-1-2q-.7-1.2-.7-1.85l.05-.25h.3q.45 0 1.25.8l1 .85.4-.5.65-.45q.35 0 .35.8v.85l-.05.05-.65 1.5-1.05.65-.15-.1-.4-.35m-32.05-6.85.55.25.55-.15-.05.5v.1q-.15.35-.55.35-.5 0-.5-.85v-.2m-3.35.7.9 1.15 1.2 1.2 1.1.5.85.4-.5.5-.6.25q-2.05 0-3.3-2.3-1.05-2-1.05-4.75 0-2.8.7-3.95l-.15 2.05q-.1 1.25.25 2.95.35 1.7.6 2" fill="#fdf9ee"/><path d="m55.45 61.3.15.1.35.1.55-.3.15-.15.25-.05q.45 0 .7.3l.6.5-.45.85-1.65 2.1-.35.35-1.15-1.6.05-.1.05-.45.45-.05q.6-.1.6-.6l-.65-.75.35-.25" fill="#f9ddc4"/><path d="M56.65 61.05q.4-.75.65-2.4l.25-2.65.8 1.8q.3.8.25 2.25l-.4 1.75-.6-.5q-.25-.3-.7-.3l-.25.05" fill="#552d1f"/><path d="M64 60.65v.5q-.1 1.95-3.95 4.55-3.55 2.4-6.9 2.3l-1.6-.3q3.3-.5 5.25-2.05 2.2-1.8 2.85-5.05 1.9-.25 4.35.05" fill="#764d2f"/><path d="m59.65 60.6.25-2.85-.2-1.7-.2-1.35q1.05.15 2.8 2.35 1.55 1.85 1.7 3.6-2.45-.3-4.35-.05" fill="#eebfad"/><path d="m41.7 63.95-.8-1.5-.4-1q-.55-1.5-.55-2.8l.05-.75.6.2.4.15h.05q.25 1.4.8 2.6.7 1.75 2 3.05l1.05.9.4.35.15.1.5.65-.05.2-2.1-.85-1.95-1.05-.15-.25" fill="#693c26"/><path d="m12 53.25-.05.8.1 1.45-.4-.7q-.25-.45-.8-.5-.55 0-.7.25l.15-.65.75-1.05.1.1q.3.3.7.3H12" fill="#ad6a2f"/><path d="M10.85 55.9q.15-.15.35-.15.2 0 .3.15l.15.35-.15.3-.3.15-.35-.15-.1-.3.1-.35" fill="#fffff3"/></g><radialGradient cx="0" cy="0" gradientTransform="translate(17.9 28.1) scale(.0152)" gradientUnits="userSpaceOnUse" id="B" r="819.2" spreadMethod="pad"><stop offset="0" stop-color="#ffd56b"/><stop offset="1" stop-color="#a65f21"/></radialGradient><radialGradient cx="0" cy="0" gradientTransform="translate(42.3 26.8) scale(.0132)" gradientUnits="userSpaceOnUse" id="C" r="819.2" spreadMethod="pad"><stop offset="0" stop-color="#ffd56b"/><stop offset="1" stop-color="#a65f21"/></radialGradient><radialGradient cx="0" cy="0" gradientTransform="matrix(.009 0 0 .009 54.6 10.2)" gradientUnits="userSpaceOnUse" id="D" r="819.2" spreadMethod="pad"><stop offset="0" stop-color="#ffd56b"/><stop offset="1" stop-color="#a65f21"/></radialGradient><radialGradient cx="0" cy="0" gradientTransform="translate(32.8 29.15) scale(.0103)" gradientUnits="userSpaceOnUse" id="E" r="819.2" spreadMethod="pad"><stop offset="0" stop-color="#ffb080"/><stop offset="1" stop-color="#f87b55"/></radialGradient><radialGradient cx="0" cy="0" gradientTransform="translate(35.15 21.8) scale(.0084)" gradientUnits="userSpaceOnUse" id="F" r="819.2" spreadMethod="pad"><stop offset="0" stop-color="#ffb080"/><stop offset="1" stop-color="#f87b55"/></radialGradient><radialGradient cx="0" cy="0" gradientTransform="translate(26.95 24.4) scale(.0075)" gradientUnits="userSpaceOnUse" id="G" r="819.2" spreadMethod="pad"><stop offset="0" stop-color="#ffb080"/><stop offset="1" stop-color="#f87b55"/></radialGradient><radialGradient cx="0" cy="0" gradientTransform="translate(52.9 57.65) scale(.0056)" gradientUnits="userSpaceOnUse" id="H" r="819.2" spreadMethod="pad"><stop offset="0" stop-color="#bf7f41"/><stop offset="1" stop-color="#84542f"/></radialGradient><radialGradient cx="0" cy="0" gradientTransform="translate(50.95 60.85) scale(.0128)" gradientUnits="userSpaceOnUse" id="I" r="819.2" spreadMethod="pad"><stop offset="0" stop-color="#bf7f41"/><stop offset="1" stop-color="#84542f"/></radialGradient><radialGradient cx="0" cy="0" gradientTransform="translate(14.05 59.15) scale(.0038)" gradientUnits="userSpaceOnUse" id="J" r="819.2" spreadMethod="pad"><stop offset="0" stop-color="#bf7f41"/><stop offset="1" stop-color="#84542f"/></radialGradient><radialGradient cx="0" cy="0" gradientTransform="translate(10.4 52.9) scale(.0068)" gradientUnits="userSpaceOnUse" id="K" r="819.2" spreadMethod="pad"><stop offset="0" stop-color="#bf7f41"/><stop offset="1" stop-color="#84542f"/></radialGradient><path d="M27.75 0q0 2-8.15 3.4Q11.5 4.9 0 4.9q-11.5 0-19.65-1.5-8.1-1.4-8.1-3.4 0-2.05 8.1-3.5Q-11.5-4.9 0-4.9q11.5 0 19.6 1.4 8.15 1.45 8.15 3.5" fill-opacity=".349" fill-rule="evenodd" transform="translate(27.75 4.9)" id="o"/></defs></svg>