<svg xmlns:ffdec="https://www.free-decompiler.com/flash" xmlns:xlink="http://www.w3.org/1999/xlink" ffdec:objectType="frame" height="90" width="90" xmlns="http://www.w3.org/2000/svg"><use ffdec:characterId="1" height="26.95" transform="translate(-165.15 -49.95)" width="23.15" xlink:href="#a"/><use ffdec:characterId="11" height="88.7" transform="matrix(.7429 0 0 .7433 4.404 16.129)" width="107.1" xlink:href="#b"/><defs><g id="b" transform="translate(9.35 -106.05)"><use ffdec:characterId="3" height="39.3" transform="translate(-6.8 154.45)" width="102" xlink:href="#c"/><use ffdec:characterId="4" height="40.2" transform="translate(35.736 155.467) scale(.6225)" width="75.65" xlink:href="#d"/><use ffdec:characterId="5" height="21.95" transform="rotate(26.087 -272.124 87.535) scale(.6217)" width="29.5" xlink:href="#e"/><use ffdec:characterId="6" height="39.9" transform="translate(6.446 153.713) scale(.6225)" width="58.25" xlink:href="#f"/><use ffdec:characterId="7" height="104.2" transform="translate(12.65 106.067) scale(.6225)" width="104.9" xlink:href="#g"/><use ffdec:characterId="8" height="22.4" transform="translate(62.623 132.005) scale(.6225)" width="30.2" xlink:href="#h"/><use ffdec:characterId="9" height="15.35" transform="translate(31.968 128.407) scale(.6225)" width="15.75" xlink:href="#i"/><use ffdec:characterId="10" height="9.9" transform="translate(25.12 123.135) scale(.6225)" width="41.65" xlink:href="#j"/></g><g id="d"><path d="M30.4 1.05 24.55-.9q-4.9-1.6-10.5-2.05-5.6-.5-10.25 1.75-4.65 2.2-7.05 3-2.5.85-6.3 2.45-3.85 1.55-8.95 3.8-3.7 1.7-7.2 3.65-4.9-2.65-7.85-7.25L-35 2.15Q-36.3.1-37.5-5.6t4.15-10.45q5.3-4.75 14.6-3.65l18.1 2.25L15.7-16.3l10.95 1.55q4.7 1.1 6.85 6.55Q35.15-3.9 31 .85l-.6.2" fill="#296438" fill-rule="evenodd" transform="translate(39.7 21.9)"/><path d="M-25.7 11.7q3.5-1.95 7.2-3.65 5.1-2.25 8.95-3.8 3.8-1.6 6.3-2.45 2.4-.8 7.05-3 4.65-2.25 10.25-1.75 5.6.45 10.5 2.05l5.85 1.95q-4.55 1.55-9 3.4L11.45 8.5Q9.1 3.05 4 5.7.35 7.65-1.35 11.3H-6.3l-12.65.8-4.65.6-2.1-1" fill="#83db64" fill-rule="evenodd" transform="translate(39.7 21.9)"/><path d="m-23.6 12.7 4.65-.6 12.65-.8h4.95Q.35 7.65 4 5.7q5.1-2.65 7.45 2.8l9.95-4.05q4.45-1.85 9-3.4l.35.1-2.3 2.2q-7.15 6.05-15.5 9.5-8.4 3.4-17.5 3.45l-4.15-.2q-6.95-.6-13.15-2.75l-1.75-.65" fill="#d7ffab" fill-rule="evenodd" transform="translate(39.7 21.9)"/><path d="M70.7 22.75q4.15-4.75 2.5-9.05-2.15-5.45-6.85-6.55L55.4 5.6 39.05 4.45 20.95 2.2q-9.3-1.1-14.6 3.65Q1 10.6 2.2 16.3q1.2 5.7 2.5 7.75l1.45 2.3Q9.1 30.95 14 33.6l2.1 1 1.75.65Q24.05 37.4 31 38l4.15.2q9.1-.05 17.5-3.45 8.35-3.45 15.5-9.5l2.3-2.2.25-.3z" fill="none" stroke="#273e16" stroke-linecap="round" stroke-linejoin="round" stroke-width="4"/></g><g id="e"><path d="M17.4-10.15q1.9.95 1.4 4.85-.5 3.9.55 10.35Q1.75 8.05-1 7.8t-4.5-2.55Q-7.3 2.9-4.05-1.4q2.85-3.9 21.45-8.75" fill="#fdd2c9" fill-rule="evenodd" transform="translate(8.15 12.15)"/><path d="M27.5 17.2q-17.6 3-20.35 2.75t-4.5-2.55q-1.8-2.35 1.45-6.65Q6.95 6.85 25.55 2" fill="none" stroke="#a54e59" stroke-linecap="round" stroke-linejoin="round" stroke-width="4"/></g><g id="f"><path d="m-25-3.1 1.05-1.4q5.8-2.9 10.5-1.45 1.95.6 3.7 1.95Q-3.7.6 1.8 5.8q5.75 5.4 6.6 12.7-3.25-1.35-4.4-1.4-11.8-.25-19.85-7.75Q-13 6.85-15 3.5q-2-3.35-7.8-1.05l-.8-1.6L-25-3.1m18.5 13.5q.65-.45.65-1.15t-.65-1.2Q-7.1 7.6-8 7.6t-1.55.45q-.6.5-.6 1.2t.6 1.15l1.55.5q.9 0 1.5-.5" fill="#83db64" fill-rule="evenodd" transform="translate(28.6 17.65)"/><path d="M8.45 19.2q-7.95 1.85-15.9.4-8.1-1.25-14.3-6.65Q-29.4 6.25-25-3.1l1.4 3.95.8 1.6Q-17 .15-15 3.5q2 3.35-.85 5.85Q-7.8 16.85 4 17.1q1.15.05 4.4 1.4l.05.7M-6.5 10.4q-.6.5-1.5.5l-1.55-.5q-.6-.45-.6-1.15t.6-1.2Q-8.9 7.6-8 7.6t1.5.45q.65.5.65 1.2t-.65 1.15" fill="#d7ffab" fill-rule="evenodd" transform="translate(28.6 17.65)"/><path d="m-11.15-11.8 4-1.15 4.35-1.2 4.3-.75 4.75-.5 4.7-.25 4.65.65q2.2.65 4.2 1.9 1.9 1.05 3.6 2.6l2.55 2.8q.85 1.1 1.25 3.85l.45 4.7-.15 3.4-.15 2.35q-.05.85-.75 2l-2 2.9q-1.45 1.9-3.5 3.3-1.45.95-3.25 1.65-4.1 1.6-8.3 2.55l-1.1.2-.05-.7q-.85-7.3-6.6-12.7Q-3.7.6-9.75-4q-1.75-1.35-3.7-1.95-4.7-1.45-10.5 1.45l.8-.8 3.6-2.85q2-1.2 3.9-1.85 2.2-.75 4.45-1.85l.05.05" fill="#296438" fill-rule="evenodd" transform="translate(28.6 17.65)"/><path d="m17.45 5.85 4-1.15 4.35-1.2 4.3-.75 4.75-.5 4.7-.25 4.65.65q2.2.65 4.2 1.9 1.9 1.05 3.6 2.6l2.55 2.8q.85 1.1 1.25 3.85l.45 4.7-.15 3.4-.15 2.35m-.75 2-2 2.9q-1.45 1.9-3.5 3.3-1.45.95-3.25 1.65-4.1 1.6-8.3 2.55l-1.1.2q-7.95 1.85-15.9.4-8.1-1.25-14.3-6.65Q-.8 23.9 3.6 14.55l1.05-1.4.8-.8 3.6-2.85q2-1.2 3.9-1.85 2.2-.75 4.45-1.85" fill="none" stroke="#273e16" stroke-linecap="round" stroke-linejoin="round" stroke-width="4"/></g><g id="g"><path d="m-3.1-48.7 1.7-1.1.4-.3.1.05.15.9.05.2q-1.25 2.4-2.4.25-4.15 9.55-10.45 14.15l-1.6 1.15 1.6-.45.05.4q1.05 4.5 5 7.6l1.15 1.05q-7.4 9.2-17.95 2.15-5.2 5.35-9.15 11.25l-1-.75q-1.5-.75-3.6-.75t-3.6.75q-1.5.75-1.5 1.85t1.5 1.8q1.5.8 3.6.8l2.5-.3q-5.15 8.55-7.8 18.25-1.3 4.8-2 9.85l-.25 2.05h-1.95l-.6-2.05q-.85-3.1-1.1-6.2-.35-3.3-.05-6.65.3-4.35 1.35-8.4l.4-1.5q1.7-5.9 4.85-11.1 5.65-9.5 14.55-16.85 3.6-3 7.4-5.8l2.35-1.7 2.4-1.65q3.15-2.2 6.45-4.2l6.4-4.05 1.05-.7m-16.3 10.6.35 1.7.65 1.1q.9 1.4 2.4 1.85 1.35.15 2.5 0-1.15.15-2.5 0-1.5-.45-2.4-1.85l-.65-1.1-.35-1.7" fill="#fef9d9" fill-rule="evenodd" transform="translate(52.45 52.1)"/><path d="m-.7-48.95-.05-.2.1.2.05.8-.1-.8m.5-.65.9.5 6.9 4.3 5.9 4 3.05 2.1 9.15 6.4 9.35 7q4.25 3.5 7.4 8 3.3 4.6 5.35 9.7 2.05 5.2 2.5 10.85.45 5.6-.7 11.05-.85 4.1-2.5 7.85l-1.2 2.5-1.95 3.3-3.9 4.9-.6.6q-4.05 4-8.9 6.85l-6.8 3.65-3.7 1.55 9.15-8.45q6.65-6 10.95-14.9L42 17.9q4.55-11.8-.4-22.75-4.6-10.2-12.75-18Q22.4-29 15.25-34.3l-2.5-1.85q.6-.9.7-2.15l.05-2.5-.05 2.5q-.1 1.25-.7 2.15l-.15.2v.05l-.15-.15Q5-40.75.4-48.2l-.6-1.4" fill="#ffb3d2" fill-rule="evenodd" transform="translate(52.45 52.1)"/><path d="M-3.1-48.7q1.15 2.15 2.4-.25l.1.8.05.05-.1-.85-.1-.2-.15-.9.7.45.6 1.4Q5-40.75 12.45-36.05l.15.15v-.05l.15-.2 2.5 1.85q7.15 5.3 13.6 11.45 8.15 7.8 12.75 18Q46.55 6.1 42 17.9l-1.85 4.25q-4.3 8.9-10.95 14.9l-9.15 8.45-.15.05q-5.4 2.2-11.15 3.35Q3.2 50-2.45 50.1l-4.6-.4q-6.25-1.15-11.9-5.4l-2.75.4-5.45-.7q-10.3-2.95-16.1-11.1 3.2.65 4.25 1.3 4.95 2.9 10.2.7.85-1.5-.2-3 5 2.65 10.4 4.25 5.5 1.55 11.25 2.1 5.6.4 10.95-1.3 5.15-1.7 9.3-5.1 4.55-3.65 7.25-8.6l.6-1.1q2.25-4.7 2.8-9.95.55-5.4-1-10.75-1.45-5.05-3.7-9.9l-.25-.6 1.5.1q2.5 0 4.25-.95 1.8-.85 1.8-2.15 0-1.3-1.8-2.2-1.75-.85-4.25-.85-2.4 0-4.1.8l-2.5-4.65-5.2-8.85-1.15-1.9-.85-1.4-.85-1.25L4-34.6l-.2.25-.6.85-6.3-15.2m15.7 12.8q-.95 1.15-2.8 1.5h-.05l-.85.1q-2.8-.1-3.65-2.7L4-34.6 5.25-37q.85 2.6 3.65 2.7l.85-.1h.05q1.85-.35 2.8-1.5m-39.35 72.4q3.75 4.7 7.8 7.8-4.05-3.1-7.8-7.8" fill="#db7789" fill-rule="evenodd" transform="translate(52.45 52.1)"/><path d="m-3.1-48.7 6.3 15.2-.05.05q-8.2 6.8-9.85-2.95v-1l-6.85 3.55-1.6.45 1.6-1.15q6.3-4.6 10.45-14.15m2.5.55-.05-.8.1.85-.05-.05" fill="#fca493" fill-rule="evenodd" transform="translate(52.45 52.1)"/><path d="M-43.25 32.9-45 30.25l-.3-.6-.9-1.7-.75-1.65.35-4.15.25-2.05q.7-5.05 2-9.85Q-41.7.55-36.55-8l1.1-.5Q-34-9.2-34-10.3q0-.6-.45-1.1 3.95-5.9 9.15-11.25 10.55 7.05 17.95-2.15l-1.15-1.05q-3.95-3.1-5-7.6 1.6-.3 2.95-1.2l3.85-2.75-3.85 2.75q-1.35.9-2.95 1.2l-.05-.4 6.85-3.55v1q1.65 9.75 9.85 2.95l.05-.05.6-.85.2-.25 1.45 2.25.85 1.25.85 1.4 1.15 1.9 5.2 8.85L16-14.3l-.15.05q-1.8.9-1.8 2.2 0 1.3 1.8 2.15 1.2.65 2.75.85l.25.6q2.25 4.85 3.7 9.9 1.55 5.35 1 10.75-.55 5.25-2.8 9.95l-.6 1.1q-2.7 4.95-7.25 8.6-4.15 3.4-9.3 5.1-5.35 1.7-10.95 1.3-5.75-.55-11.25-2.1-5.4-1.6-10.4-4.25 1.05 1.5.2 3-5.25 2.2-10.2-.7-1.05-.65-4.25-1.3" fill="#fdd2c9" fill-rule="evenodd" transform="translate(52.45 52.1)"/><path d="M-34.45-11.4q.45.5.45 1.1 0 1.1-1.45 1.8l-1.1.5-2.5.3q-2.1 0-3.6-.8-1.5-.7-1.5-1.8t1.5-1.85q1.5-.75 3.6-.75t3.6.75l1 .75M16-14.3q1.7-.8 4.1-.8 2.5 0 4.25.85 1.8.9 1.8 2.2 0 1.3-1.8 2.15-1.75.95-4.25.95l-1.5-.1q-1.55-.2-2.75-.85-1.8-.85-1.8-2.15 0-1.3 1.8-2.2l.15-.05" fill="#fbf088" fill-rule="evenodd" transform="translate(52.45 52.1)"/><path d="m51.55 2.05-.1-.05-.4.3-1.7 1.1-1.05.7-6.4 4.05q-3.3 2-6.45 4.2L33.05 14l-2.35 1.7q-3.8 2.8-7.4 5.8-8.9 7.35-14.55 16.85-3.15 5.2-4.85 11.1l-.4 1.5Q2.45 55 2.15 59.35q-.3 3.35.05 6.65.25 3.1 1.1 6.2l.6 2.05 1.6 4.15.75 1.65.9 1.7.3.6L9.2 85q5.8 8.15 16.1 11.1l5.45.7 2.75-.4q-4.05-3.1-7.8-7.8M51.55 2.05l.7.45.9.5 6.9 4.3 5.9 4L69 13.4l9.15 6.4 9.35 7q4.25 3.5 7.4 8 3.3 4.6 5.35 9.7 2.05 5.2 2.5 10.85.45 5.6-.7 11.05-.85 4.1-2.5 7.85l-1.2 2.5-1.95 3.3-3.9 4.9-.6.6q-4.05 4-8.9 6.85l-6.8 3.65-3.7 1.55-.15.05q-5.4 2.2-11.15 3.35-5.55 1.1-11.2 1.2l-4.6-.4q-6.25-1.15-11.9-5.4" fill="none" stroke="#a54e59" stroke-linecap="round" stroke-linejoin="round" stroke-width="4"/><path d="m55.65 18.6.6-.85.2-.25 1.25-2.4q.85 2.6 3.65 2.7l.85-.1h.05q1.85-.35 2.8-1.5v-.05l.15-.2q.6-.9.7-2.15l.05-2.5m-20.2 3.4-3.85 2.75q-1.35.9-2.95 1.2-1.15.15-2.5 0-1.5-.45-2.4-1.85l-.65-1.1-.35-1.7m22.6 4.6-.05.05q-8.2 6.8-9.85-2.95v-1" fill="none" stroke="#a54e59" stroke-linecap="round" stroke-linejoin="round" stroke-width="2"/><path d="M18 40.7q.45.5.45 1.1 0 1.1-1.45 1.8l-1.1.5-2.5.3q-2.1 0-3.6-.8-1.5-.7-1.5-1.8t1.5-1.85q1.5-.75 3.6-.75t3.6.75l1 .75m50.45-2.9q1.7-.8 4.1-.8 2.5 0 4.25.85 1.8.9 1.8 2.2 0 1.3-1.8 2.15-1.75.95-4.25.95l-1.5-.1q-1.55-.2-2.75-.85-1.8-.85-1.8-2.15 0-1.3 1.8-2.2l.15-.05z" fill="none" stroke="#e3bd4e" stroke-linecap="round" stroke-linejoin="round" stroke-width="2"/></g><g id="h"><path d="M11.45.1q-1.35-1.6-3-2.85Q6-4.55 3.4-5.45l-5.3-1.9q-2.55-1-4.5-2.6l-.15-.1-.15-.15h.8l.95.05h.3l1 .05q7.75.45 15.05 3.35 3.55 1.5 2.45 4.05-.6 1.35-2.4 2.8M-2.8-1.05q-.95.75-2.3.75-1.35 0-2.35-.75-.95-.7-.95-1.7t.95-1.75q1-.7 2.35-.7t2.3.7q1 .75 1 1.75t-1 1.7" fill="#ffb3d2" fill-rule="evenodd" transform="translate(14.1 12.2)"/><path d="m-6.55-10.05.15.1q1.95 1.6 4.5 2.6l5.3 1.9q2.6.9 5.05 2.7 1.65 1.25 3 2.85l-4.2 2.45Q1.75 5.25-2.9 6.2l-3.05.6-.95.15-.05 2.25-.15 1q-2.8.2-4.7-1.75l-1.4-1.55q-.85-1.45-.9-3.3v-.15q0-3.7 3.3-10.6.8-1.65 2.2-2.35l2.05-.55m-3.7 17.4 3.35-.4-3.35.4m7.45-8.4q1-.7 1-1.7t-1-1.75q-.95-.7-2.3-.7-1.35 0-2.35.7-.95.75-.95 1.75t.95 1.7q1 .75 2.35.75t2.3-.75" fill="#db7789" fill-rule="evenodd" transform="translate(14.1 12.2)"/><path d="m7.2 19.15-3.35.4M7.4 2h.8l.95.05h.3m1 .05q7.75.45 15.05 3.35 3.55 1.5 2.45 4.05-.6 1.35-2.4 2.8l-4.2 2.45q-5.5 2.7-10.15 3.65l-3.05.6-.95.15" fill="none" stroke="#a54e59" stroke-linecap="round" stroke-linejoin="round" stroke-width="4"/></g><g id="i"><path d="M-5 10.75-6.35 10q-2.7-1.85-2.15-4.65Q-7.95 2.6-7.1.4V.3l5.6-.2-2.05 3.4-.2.35Q-5.1 6.2-5.2 8.75l.2 2" fill="#861b32" fill-rule="evenodd" transform="translate(9.85 2.8)"/><path d="M-1.75 11.25q-1.7.2-3.25-.5l-.2-2q.1-2.55 1.45-4.9l.2-.35q1.4.85 1.3 3.1-.05 2.65.5 4.65" fill="#f67877" fill-rule="evenodd" transform="translate(9.85 2.8)"/><path d="M1.85-1.1q1.7 2.2 2.4 3.9 1.15 3-.95 5.45-1.55 1.9-4 2.75l-1.05.25q-.55-2-.5-4.65.1-2.25-1.3-3.1L-1.5.1Q.15-.3 1.85-1.1" fill="#fca493" fill-rule="evenodd" transform="translate(9.85 2.8)"/><path d="m11.7 1.7.9-.45m-.9.45q1.7 2.2 2.4 3.9 1.15 3-.95 5.45-1.55 1.9-4 2.75l-1.05.25q-1.7.2-3.25-.5L3.5 12.8Q.8 10.95 1.35 8.15 1.9 5.4 2.75 3.2v-.1l5.6-.2Q10 2.5 11.7 1.7z" fill="none" stroke="#6e2020" stroke-linecap="round" stroke-linejoin="round" stroke-width="2.5"/></g><g id="j" fill-rule="evenodd"><path d="M-17.1-.45q-.4-.4-1.05-.4-.6 0-1.05.4-.4.45-.4 1.1 0 .6.4 1l1.05.45q.65 0 1.05-.45.45-.4.45-1 0-.65-.45-1.1m3.4-1.3q1.25 1.25 1.25 3T-13.7 4.2q-1.2 1.25-2.95 1.25-1.75 0-3-1.25-1.2-1.2-1.2-2.95 0-1.75 1.2-3 1.25-1.2 3-1.2t2.95 1.2" fill="#6e2020" transform="translate(20.85 3.8)"/><path d="M-17.1-.45q.45.45.45 1.1 0 .6-.45 1-.4.45-1.05.45l-1.05-.45q-.4-.4-.4-1 0-.65.4-1.1.45-.4 1.05-.4.65 0 1.05.4" fill="#fff" transform="translate(20.85 3.8)"/><path d="M12.3-2.4q1.45-1.4 3.55-1.4 2.05 0 3.45 1.4 1.5 1.5 1.5 3.55 0 2.1-1.5 3.5-1.4 1.45-3.45 1.45-2.1 0-3.55-1.45-1.4-1.4-1.4-3.5 0-2.05 1.4-3.55" fill="#6e2020" transform="translate(20.85 3.8)"/><path d="M15.85.4q0 .75-.55 1.25-.45.5-1.2.5t-1.25-.5q-.5-.5-.5-1.25 0-.7.5-1.25.5-.45 1.25-.45l1.2.45q.55.55.55 1.25" fill="#fff" transform="translate(20.85 3.8)"/></g><path d="M-165-33.1q0-7.6 3.6-12.25 3.2-4.15 7.9-4.55 4.65-.4 7.9 3 3.6 3.8 3.6 10.55 0 4.45-2 7.85-3.25 5.5-11 5.5-7.5 0-9.5-4.9-1-2.5-.5-5.2" fill="#ffc" fill-opacity=".498" fill-rule="evenodd" transform="translate(165.15 49.95)" id="a"/><path d="M51 0q21.15 0 36.1 5.75Q102 11.5 102 19.65t-14.9 13.9Q72.15 39.3 51 39.3q-21.15 0-36.05-5.75Q0 27.8 0 19.65t14.95-13.9Q29.85 0 51 0" fill-opacity=".349" fill-rule="evenodd" id="k"/><use ffdec:characterId="2" height="39.3" width="102" xlink:href="#k" id="c"/></defs></svg>