<svg xmlns:ffdec="https://www.free-decompiler.com/flash" xmlns:xlink="http://www.w3.org/1999/xlink" ffdec:objectType="frame" height="90" width="90" xmlns="http://www.w3.org/2000/svg"><use ffdec:characterId="25" height="84.25" transform="translate(13.95 2.95)" width="58" xlink:href="#a"/><defs><g id="a" transform="translate(-13.95 -2.95)"><use ffdec:characterId="1" height="9.8" transform="matrix(.9447 0 0 1.7799 16.433 68.928)" width="55.5" xlink:href="#b"/><use ffdec:characterId="3" height="42.7" transform="matrix(.302 0 0 .302 25.911 36.902)" width="63.5" xlink:href="#c"/><use ffdec:characterId="7" height="62.25" transform="matrix(.302 0 0 .302 27.491 56.908)" width="120.85" xlink:href="#d"/><use ffdec:characterId="9" height="95.7" transform="matrix(.302 0 0 .302 28.086 3)" width="143.85" xlink:href="#e"/><use ffdec:characterId="11" height="34.8" transform="matrix(.302 0 0 .302 20.017 47.845)" width="57.5" xlink:href="#f"/><use ffdec:characterId="13" height="54.1" transform="matrix(.302 0 0 .302 29.16 49.93)" width="100.6" xlink:href="#g"/><use ffdec:characterId="15" height="43.25" transform="matrix(.302 0 0 .302 30.577 45.227)" width="43.25" xlink:href="#h"/><use ffdec:characterId="17" height="25.95" transform="matrix(.302 0 0 .302 40.052 45.69)" width="42.7" xlink:href="#i"/><use ffdec:characterId="19" height="36.5" transform="matrix(.302 0 0 .302 36.308 47.589)" width="47.3" xlink:href="#j"/><use ffdec:characterId="24" height="112.5" transform="matrix(.302 0 0 .302 16.761 16.412)" width="148.65" xlink:href="#k"/></g><g id="d" transform="translate(51.85 31.1)"><use ffdec:characterId="4" height="62.25" transform="translate(-51.85 -31.1)" width="86.35" xlink:href="#l"/><use ffdec:characterId="6" height="22.55" transform="translate(37 -20.75)" width="14.9" xlink:href="#m"/></g><g id="l" fill-rule="evenodd"><path d="M-5.5-25.15q1 2.5-.35 6.3l-1 1.7q-1.8 3.2-1.8 5.2 0 2.5 3.85 3.15l8.15.4 4.3.6q1.45.45 2.1 1.1l1.8 1.85q1.1 1.25 4.3 1.8 3.15.5 8.85-3.4 5.7-3.85 6.55-4.85.7-.95 1.9-.5Q34.5-7.6 34.5-1.35 34.45 4.9 29.7 9.6q-4.8 4.65-14.8 9.85-10 5.2-17.45 4.65-4.95 6.2-13.05 6.8-10.65 1.5-16.7-5.7l-.15.05-6.9.9q-7.6-.6-10.9-7.55-3.05-6.5-.25-12.8 2.8-6.35 8.05-9.35 5.2-3 13.7-3.65-2.75-11.4-2.75-13.95 0-3.6 2.1-6 1.4 7.55 3.25 12.2 1.55 3.95 3.35 5.8 2.55 1.9 3.6 4.05 1 2.1.75 2.8.05 1.75-.35 3.2l-.05.15q-.6 1.9-1.9 3.3l-.2.25-.5.4-.4.35-.1.05-.8.55-1.65.75-1.7.6-.1.05-4.05.95-6.15-.35q8-.85 11.55-2.45 1.1-.5 1.95-1.15 2.95-2.25 2.95-6.25 0-1.95-.9-3.5-1.05-1.75-2.6-1.7h-2q1.7.8 2.45 1.4 1.1 1 1.65 2.6l.2 1.5q-.4 1.5-2 .7l-4-1.6-6.55.25-.3.05q-4.85.9-9 5.1-2.65 2.55-3.7 4.9-.65 1.4-.75 2.7-.25 3.4.9 5.3l1.1 1.4 1.85 1.3 2.55 1.1q.4.1 1.65.55l3.8.7 1.4.1 2.55-.15 1.65-.45 2.45-.75q-2.05 2.3-.75 3.5 1.3 1.2 3.15 1.7l4.2.6 4.8-.15.8-.15q2-.35 3.95-1.5 2.2-1.25-.05-2.15l-.5-.2.95-.05 2.25-.15 4.3-.75q4.05-.9 8.1-2.5Q11 15 17.95 11.1l1.8-1.05.3-.15q7.3-4.5 9.45-12.8l.5-2.25q-3.15 3.7-8.25 5.5L17 1.3q-2.9.15-5.85-.65l-.05.55-.05.15Q10.7 2.9 9.6 3.9l-.1.1h-.05l-2.3 1.6-.45.2-1.3.45-.5-.05h-.1L6.55 5q1.9-1.65 2.35-3.4L9 .3Q8.9-2.95-.85-2.75l-8-.6q-2.85-.7-3.9-2.1-2.2-2.9-1.7-6 .5-3.1 8.95-13.7m-6.3 37.1.55-.3.35-.25q1.9-1.25 3.05-3.25l.35-.7L-7.65 9l-.1.4-.75 1.7-1.1 1.35q-2.2 2.1-5.1 2.15-2.95.05-5.25-1.1-1.4-.65-2.05-2.05l-.05-.1-.15-.25-.5-2 1.2 1.25 1.45 1.1 2.35 1.05q2.95.8 5.6-.4l.3-.15" fill="#3a1f66" transform="translate(51.85 31.1)"/><path d="m17 1.3 4.75-.95q5.1-1.8 8.25-5.5l-.5 2.25q-2.15 8.3-9.45 12.8l-.3.15-1.65.7q.55-1.55.55-3.5 0-2.5-1-4.75L17 1.3" fill="#4a49ab" transform="translate(51.85 31.1)"/><path d="M7.15 5.6 9.45 4h.05l.1-.1q2.05 1 3.15 1.95 1.15.95 2.05 1.4l1.2.35.4-.15.15-.45q0-.75-.55-1.55L14.65 3.9l-1.6-1.55-1.25-.65q-.5-.25-.75-.35l.05-.15.05-.55q2.95.8 5.85.65l.65 1.2q1 2.25 1 4.75 0 1.95-.55 3.5-3.6 1.4-9.35 2.45l-5.2.95.2-1.05q1.9-.75 3.3-1.9l2.3-2.75q.8-1.45.5-2.35-1.7-.55-2.7-.5" fill="#574dbb" transform="translate(51.85 31.1)"/><path d="M9.6 3.9q1.1-1 1.45-2.55.25.1.75.35l1.25.65 1.6 1.55L16 5.45q.55.8.55 1.55l-.15.45-.4.15-1.2-.35q-.9-.45-2.05-1.4-1.1-.95-3.15-1.95" fill="#6060d7" transform="translate(51.85 31.1)"/><path d="m4.9 6.2.5.05 1.3-.45.45-.2q1-.05 2.7.5.3.9-.5 2.35l-2.3 2.75q-1.4 1.15-3.3 1.9l-.5.2-4.15.7q-2.45-.2-3.55-1.55l-.6-.65-1.3-1.55-2.15.85.75-1.7.1-.4 1.05-1.45q.7-.85 1.35-.85.55 0 2.05 1.2 1.5 1.2 2.15 1.2 1 0 3.25-.95Q4.3 7.1 4.9 6.2m14.85 3.85-1.8 1.05Q11 15 3.65 17.8q-4.05 1.6-8.1 2.5l-4.3.75-2.25.15q2.7-1.5 4-2.6l2.45-2.35q1.1-1.1 4.6-1.4l3.5-.7 5.2-.95q5.75-1.05 9.35-2.45l1.65-.7" fill="#8b3efc" transform="translate(51.85 31.1)"/><path d="m-8.85-3.35 8 .6Q8.9-2.95 9 .3l-.1 1.3q-.7-.55-1.75-.9Q5.45.15 3.9-.05l-6 .15-4.2.4-.95.1q-1-.1-1.3-.5l-.1-.25-.25-2.35.05-.85" fill="#9b48ff" transform="translate(51.85 31.1)"/><path d="M6.55 5 4.8 6.2h.1q-.6.9-2.7 1.95-2.25.95-3.25.95-.65 0-2.15-1.2t-2.05-1.2q-.65 0-1.35.85L-7.65 9l.15-1.55-.35.7q-1.15 2-3.05 3.25l-.35.25-.55.3-2.3-.5q-1.25-.4-2.05-1-1.65-1.2-1.65-3.1l.1-1.85v-.3l.05-.2v-.1l.3-.5.45.25.35.35.55.7q.85 1.2 1.95 1.25h.1l1.8-.5q.85-.5 2.95-2.85l.2-.05L-7.3 2q1-.7 3-.75 1.95-.05 2 .75l-.05 2.5q.15 1.75.85 2.4.55.55 1.6.55 1.4 0 2.7-.75 1.6-1.1 2.75-1.85l1 .15" fill="#f0b2ff" transform="translate(51.85 31.1)"/><path d="M8.9 1.6Q8.45 3.35 6.55 5l-1-.15Q4.4 5.6 2.8 6.7q-1.3.75-2.7.75-1.05 0-1.6-.55-.7-.65-.85-2.4L-2.3 2q-.05-.8-2-.75-2 .05-3 .75L-9 3.55l-.2-.05.45-1 .25-1.15v-.6h.2L-7.25.6l.95-.1 4.2-.4 6-.15q1.55.2 3.25.75 1.05.35 1.75.9" fill="#7d6ae2" transform="translate(51.85 31.1)"/><path d="m-11 21.2-.95.05.5.2q-2.95 1.45-8.1 2.1-1.5.2-2.2-3.2-.75-3.45-3.6-4.05-1.75-.35-3.15.35l-.25-.3.5-.6.1-1.85-.05-1.9.15-.05.6-.25q.35 2.2 3.65 3.85 3.3 1.7 6.55 1.7 3.2 0 6.95-2 3.2-1.75 5.25-3.45l.6.65Q-3.35 13.8-.9 14l4.15-.7.5-.2-.2 1.05-3.5.7q-3.5.3-4.6 1.4L-7 18.6q-1.3 1.1-4 2.6" fill="#9d6cff" transform="translate(51.85 31.1)"/><path d="m-29.4-27.15 1.1-1.1q3.45-2.85 10-2.85 5.9 0 10.6 3.2 1.55 1.1 2.2 2.75-8.45 10.6-8.95 13.7-.5 3.1 1.7 6 1.05 1.4 3.9 2.1l-.05.85.25 2.35.1.25q.3.4 1.3.5L-8.3.75h-.2L-11.95.6-14.7.2l-1.75.2-2.35.5q.4-1.45.35-3.2.8-.45 1.65-2.45.9-2.05.8-4.65-.1-2.6-1.7-4.6-1.6-2-3.85-2.25-2-.25-4.6 1.3-1.85-4.65-3.25-12.2" fill="#b05af6" transform="translate(51.85 31.1)"/><path d="M-18.45-2.3q.25-.7-.75-2.8-1.05-2.15-3.6-4.05-1.8-1.85-3.35-5.8 2.6-1.55 4.6-1.3Q-19.3-16-17.7-14t1.7 4.6q.1 2.6-.8 4.65-.85 2-1.65 2.45" fill="#b484ff" transform="translate(51.85 31.1)"/><path d="M-46.7 7.8q1.05-2.35 3.7-4.9 4.15-4.2 9-5.1l.3-.05.4.65q.65 1.1.75 1.9l.1 1.7.55 1.55q.75 1.2 1.95 1.6l2.25.3 2.15-.35 2.65-.75q-.85.65-1.95 1.15-3.55 1.6-11.55 2.45l6.15.35q-2.25 2.55-4.15 3.6-2.5 1.4-5.55 1.4h-.65l-2.75-.45-1-.55-.25-.2q-1.1-1.05-2.1-4.3m20.6-.5 1.7-.6 1.65-.75.8-.55.1-.05q.5.25.6.7l.1 1.05q0 .55-.15 1.1-.2.55-.5.65h-.1l-.8-.3h-.05q-.6-.3-.95-.3l-1.2-.05q-.65-.15-1.2-.9" fill="#fad9ff" transform="translate(51.85 31.1)"/><path d="m-33.7-2.25 6.55-.25 4 1.6q1.6.8 2-.7l-.2-1.5Q-21.9-4.7-23-5.7q-.75-.6-2.45-1.4h2q1.55-.05 2.6 1.7.9 1.55.9 3.5 0 4-2.95 6.25l-2.65.75-2.15.35-2.25-.3q-1.2-.4-1.95-1.6L-32.45 2l-.1-1.7q-.1-.8-.75-1.9l-.4-.65" fill="#d190ff" transform="translate(51.85 31.1)"/><path d="M-20.75 4.35q1.3-1.4 1.9-3.3l.05-.15 2.35-.5 1.75-.2 2.75.4 3.45.15v.6l-.25 1.15-.45 1-.15.05-3.85.3-1.85-.15q-1.25 0-1.85.95l-.45-.25-.3.5V5l-.05.2-.2-.2-.55-.4q-.35-.25-1.1-.35l-.1.05-1.1.05" fill="#b981f8" transform="translate(51.85 31.1)"/><path d="m-9 3.55-.2.05q-2.1 2.35-2.95 2.85l-1.8.5h-.1Q-15.15 6.9-16 5.7l-.55-.7-.35-.35q.6-.95 1.85-.95l1.85.15 3.85-.3.15-.05.2.05" fill="#ac58f5" transform="translate(51.85 31.1)"/><path d="m-8.5 11.1 2.15-.85 1.3 1.55q-2.05 1.7-5.25 3.45-3.75 2-6.95 2-3.25 0-6.55-1.7-3.3-1.65-3.65-3.85h.05q1.85-.75 2.85-.75l1.8.1.55.05.15.25.05.1q.65 1.4 2.05 2.05 2.3 1.15 5.25 1.1 2.9-.05 5.1-2.15l1.1-1.35" fill="#c98afd" transform="translate(51.85 31.1)"/><path d="m-21.85 5.35.4-.35.5-.4.2-.25 1.1-.05.1-.05q.75.1 1.1.35l.55.4.2.2v.3l-.1 1.85q0 1.9 1.65 3.1.8.6 2.05 1l2.3.5-.3.15q-2.65 1.2-5.6.4l-2.35-1.05-1.45-1.1-.3-1.5q.3-.1.5-.65.15-.55.15-1.1l-.1-1.05q-.1-.45-.6-.7" fill="#c062fb" transform="translate(51.85 31.1)"/><path d="M-11.45 21.45q2.25.9.05 2.15-1.95 1.15-3.95 1.5l-.8.15-4.8.15-4.2-.6q-1.85-.5-3.15-1.7-1.3-1.2.75-3.5l-2.45.75-1.65.45-2.55.15q2.7-1.35 4.1-3 .75-.9 1.6-1.3 1.4-.7 3.15-.35 2.85.6 3.6 4.05.7 3.4 2.2 3.2 5.15-.65 8.1-2.1" fill="#9a52ee" transform="translate(51.85 31.1)"/><path d="m-30.25 8.3 4.05-.95.1-.05q.55.75 1.2.9l1.2.05q.35 0 .95.3h.05l.8.3h.1l.3 1.5-1.2-1.25.5 2-.55-.05-1.8-.1q-1 0-2.85.75h-.05l-.6.25-.15.05-4.2 1.95q-1.95.9-2.65 1.4l-2.65-.55q-1.75-.45-2.9-1.5h.65q3.05 0 5.55-1.4 1.9-1.05 4.15-3.6" fill="#cb69fe" transform="translate(51.85 31.1)"/><path d="M-35.05 15.35q.7-.5 2.65-1.4l4.2-1.95.05 1.9-.1 1.85-.5.6h-.05l-2.3.8-3.95.6-3.4-.35q.1-.5 1.35-1l.2-.1 1.85-.95" fill="#d898ff" transform="translate(51.85 31.1)"/><path d="m-34.2 20.95-1.4-.1-3.8-.7q-1.25-.45-1.65-.55l-2.55-1.1-1.85-1.3q.05-2.3.8-4.2l.3-.7 1 .55q1.2 2.15 3.75 2.9l2.7.55-.2.1q-1.25.5-1.35 1l3.4.35 3.95-.6 2.3-.8h.05l.25.3q-.85.4-1.6 1.3-1.4 1.65-4.1 3" fill="#c874ee" transform="translate(51.85 31.1)"/><path d="m-36.9 16.3-2.7-.55q-2.55-.75-3.75-2.9l2.75.45q1.15 1.05 2.9 1.5l2.65.55-1.85.95" fill="#ce78ee" transform="translate(51.85 31.1)"/><path d="m-45.45 17.2-1.1-1.4q-1.15-1.9-.9-5.3.1-1.3.75-2.7 1 3.25 2.1 4.3l.25.2-.3.7q-.75 1.9-.8 4.2" fill="#e499ff" transform="translate(51.85 31.1)"/></g><g id="q" fill-rule="evenodd"><path d="M-5.25-1.2q.9-.7 3.5-4.1 2.6-3.45 3.4-6 1.6.3 2.8 2.1 1.5 2.3 1.5 4.05 0 2.05-1.1 4.1Q3.7 1 3.7 2.5q0 1.45 3.75 1v1.7q-.05 2.15-2.4 4.1-2.5 1.95-5.45 1.95-2.1 0-4.3-1.55-2.55-1.8-2.7-4.4-.15-2.6.55-4.2.65-1.65 1.6-2.3m6.1-1.95L-2.5.55q-1.1.95-1.1 3.8 0 2.8 4.2 2.8l1.25-.1q.35-.15.35-.7l-.85-1.1Q.5 4.45.5 3.1q0-1.35.45-3.15L1.4-2.2l-.05-.6-.3-.2-.2-.15" fill="#3a1f66" transform="translate(7.45 11.3)"/><path d="m.85-3.15.2.15.3.2.05.6L.95-.05Q.5 1.75.5 3.1q0 1.35.85 2.15l.85 1.1q0 .55-.35.7l-1.25.1q-4.2 0-4.2-2.8 0-2.85 1.1-3.8l3.35-3.7" fill="#4247a1" transform="translate(7.45 11.3)"/></g><g id="r" fill-rule="evenodd"><path d="m35.1 37.75-.15-.1-.8-.8q6.4 1.75 12.4-1.1l2.2-1.65.15-.15.2.35.55 1.1q2.25 3.8 6.35 5.5l1.8.95q-5 1.35-10.35.75-6.95-.4-12.35-4.85" fill="#4693d5" transform="translate(71.9 47.85)"/><path d="M54.4 33.75q.75 1.25 2.85 1.55 2.85.4 7.2-.7 4.35-1.15 7.5-4.2-.75 2.45-1.25 5.9t-6.45 7.65q-6 4.2-13.65 3.9-5.65-.5-10.85-2.6l-.6-.25-2.45-1.3q-2.45-1.5-4.45-3.65l-.6.1 3.45-2.4q5.4 4.45 12.35 4.85 5.35.6 10.35-.75L56 40.9q-4.1-1.7-6.35-5.5l4.75-1.65" fill="#132d71" transform="translate(71.9 47.85)"/><path d="m31.65 40.15-8 .75-5.05.35-2.25.05-25.9-.7-21.7-1.75-2.95-.65-2.95-.75q-8.8-2.3-16.5-7.25-4.85-3.25-9.25-7.55l-3.15-3.3-.25-.3-.3-.45q-2.6-4-3.75-7.75-3.4-11.05.7-22.2 5.6-15.35 16.1-20.05 10.45-4.7 16.25-5.35l10.05 1.1.15-.1q4.6-3.95 13.9-7.6 9.45-3.75 18.85-4.35 9.35-.6 17.9 1.5 8.4 1.8 15.65 6.5 3.55 2.25 6.3 5.15 3.15 3.25 5.3 7.35Q54.65-20 55.9-12l.05.25 7.1 5.05q4.85 3.5 3.8 12.75-1.05 8.9-8.5 13.6.3 3.1-.3 6.05-.85 4.05-4.05 7l.4 1.05-4.75 1.65-.55-1.1-.2-.35-.15.15-2.2 1.65q-6 2.85-12.4 1.1l.8.8.15.1-3.45 2.4m-57.2-71.7-2.5-.5-7.75-.6q-4.65.15-9.3 1.7-8.55 2.65-14.25 10.05-2.5 3.2-4.15 6.65l-1.8 4.4-.2.75-1.05 4.55-.05.3-.15.8q-.9 7 1.35 14.3 2.2 5.3 3.5 7 3.25 4.25 8.25 7.3 1.35.7 2.75 1.35l.8.4q4.7 2.1 9.55 3.7l6.25 1.8 7.2 1.7 9.45 1.8 8.75 1.15 10.85 1 9.25.25.65.05 3.85.15.65.05 7.3-.4 5.5-.85 2.5-.65-1.85-3.45-1.4-2.1q3.7 4 9.2 4.5 6.3.7 10.9-3.55 8.2-7.55 3.3-17.45 3.8.4 7.8-2.65 3.95-3.1 1.6-11.2-2.25-7.8-13.55-9.15l-.8-.1.8-.1 3.65-.55q-.75-6.35-4.7-15.9-1.65-4.05-4.9-7.3-2.9-2.85-7.05-5.05l-.05-.05-4.7-2.15q-12.8-4.95-27.15-3.45-6.45.75-12.4 2.9l-4.15 1.7-.65.3L-18.5-36l-.25.15-4.7 3.1-.1.05 7.15 3.8-.55-.2q-4.25-1.5-8.6-2.45" fill="#3a1f66" transform="translate(71.9 47.85)"/><path d="M42.9-4.95q.3-.25.3-.85l-.15-1.15 2.05-.95.65-.35.4-.2 1.4-.8.1.65-.8.1-.6.05 2.05.9 2.7.9q2.05.5 3.15 1.1l2.15 1.7q2.45 2.15 3.4 4.9.7 2 .7 4.7 0 2.2-.95 3.75-1.15 1.85-3.4 1.85Q52.3 9.9 51.75 10q-.6.05-.95.65-.25.4-.25 1.4l.35 2q.35 1.6.35 3.25 0 1.8-1.1 5.4-1.05 3.3-4.6 6.1l-.5.55-2.7 1.75q-1.95.85-3.75.8-1.8-.05-3.25-.6l-1.85-1.15-1-1.4q-.65-.85-1.5-.7-.9.1-3.55 3.15-2.7 3.05-6.35 3.05l-2.2-.05 2.2-3q4.2-5.95 5.1-9.6l.25-1.9-.05-1.25 1.35.6 1.35.15q4.25-.75 6.2-1.5 3.85-1.6 5.4-4.7l1.15-3.25.6-3.35q.1-.6.65-1.4l.95-1.4.6-1.4L45 .75q0-1.45-.7-2.9l-1.4-2.8" fill="#4246a1" transform="translate(71.9 47.85)"/><path d="M19.45 11.15q2.35.9 3.95 3.85 1.3 2.4 3 3.45l.05 1.25-.25 1.9q-.9 3.65-5.1 9.6l-2.2 3-.8-.05-3.4-.2L6.15 33l-.05-.05q2.55-3.55 4.2-9.4 1.35-4.9 1.35-8.4l-.1-2.05q1.1-1.25 2.45-1.8 1.25-.55 3.2-.55l2.25.4" fill="#6953d3" transform="translate(71.9 47.85)"/><path d="M38.35-27.75q2.1 1.15 2.8-.2 1.15-2.2.55-4.4 3.25 3.25 4.9 7.3 3.95 9.55 4.7 15.9l-3.65.55-.1-.65q-1.6-11.1-6.75-16.25l-1.75-1.65-.7-.6" fill="#6035cb" transform="translate(71.9 47.85)"/><path d="M22.15-35.65 18-36.5l-5.25-.75q-1.05-1-2.55-1.55-2.6-.9-5.8-1.35 0-.55.35-1l.15-.15.3-.25.5-.1 1.15-.05 9.15.6 8.1 1.3 10.45 2.35.1.05q4.15 2.2 7.05 5.05.6 2.2-.55 4.4-.7 1.35-2.8.2L35.3-30.1q-2.9-1.95-5.95-3.15-3.8-1.5-7.2-2.4" fill="#924aff" transform="translate(71.9 47.85)"/><path d="m15.7 38.5 1.2-1.8 1.2-2.55.8.05 2.2.05q3.65 0 6.35-3.05 2.65-3.05 3.55-3.15.85-.15 1.5.7l1 1.4 1.85 1.15q1.45.55 3.25.6 1.8.05 3.75-.8l2.7-1.75.5-.55q3.55-2.8 4.6-6.1 1.1-3.6 1.1-5.4 0-1.65-.35-3.25l-.35-2q0-1 .25-1.4.35-.6.95-.65.55-.1 4.3 1.35 2.25 0 3.4-1.85.95-1.55.95-3.75 0-2.7-.7-4.7-.95-2.75-3.4-4.9l-2.15-1.7q-1.1-.6-3.15-1.1l-2.7-.9-2.05-.9.6-.05.8.1Q58.95-7.05 61.2.75q2.35 8.1-1.6 11.2-4 3.05-7.8 2.65 4.9 9.9-3.3 17.45-4.6 4.25-10.9 3.55-5.5-.5-9.2-4.5l1.4 2.1 1.85 3.45-2.5.65-5.5.85-7.3.4-.65-.05" fill="#2f10a1" transform="translate(71.9 47.85)"/><path d="M4 8.05q6.85.7 7.2 2.65l.35 2.4.1 2.05q0 3.5-1.35 8.4-1.65 5.85-4.2 9.4l.05.05 8.55.95 3.4.2-1.2 2.55-1.2 1.8-3.85-.15-.45-.05h-.2l-9.25-.25-10.85-1 5.15-9.25Q.8 19.2 4 8.05" fill="#7627f6" transform="translate(71.9 47.85)"/><path d="m19.45 11.15.75-1.8.4-.95q3.3-.05 4.3-.65 1.35-.85 2.85-3.8.7-1.45 3.45-3.3l.35-.25q1.75-1.2 3.1-1.7l.05 1.15q.1 1.55-1.05 9.25-1.2 7.65-2.75 7.95-1.5.3-3.15 2l-1.35-.6q-1.7-1.05-3-3.45-1.6-2.95-3.95-3.85" fill="#6136cc" transform="translate(71.9 47.85)"/><path d="m20.6 8.4-.4.95-.75 1.8-2.25-.4q-1.95 0-3.2.55-1.35.55-2.45 1.8l-.35-2.4Q10.85 8.75 4 8.05l.85-3.1L7 5.6l5.45.5 2.95-.2q2.15 2.5 4.9 2.5h.3" fill="#8944f8" transform="translate(71.9 47.85)"/><path d="m21.25 5 2.05-.75q2.5-.95 4.7-2.7 1.75-1.4 3.7-2.5-.4.8-.5 1.6-2.75 1.85-3.45 3.3-1.5 2.95-2.85 3.8-1 .6-4.3.65.65-1.75.65-2.85V5" fill="#7658e3" transform="translate(71.9 47.85)"/><path d="M21.25 5v.55q0 1.1-.65 2.85h-.3q-2.75 0-4.9-2.5l2.85-.3 3-.6" fill="#805bed" transform="translate(71.9 47.85)"/><path d="M21.25 5q-.1-2-.8-4.15-.8-2.45-.8-4.25 0-1 2.2-9.15l.3-1.2 1.8-.35 5.6-.85q2.85-.3 3.75 2.95.9 3.25 2.65 3.25 1.85 0 1.85-1.35l-1.4-1.95-.6-.95q2.55.45 4.9 2.6 1.85 1.75 2.35 3.45l.15 1.15q0 .6-.3.85h-.05l-1.15.1-.5-.2h-.7v.8l.85.8q.4.35.4 1.1 0 .95-.35 1.25v-.05Q40.05-2.2 38.2-2.6l-3.65.25-1.6.65-1.25.75Q29.75.15 28 1.55q-2.2 1.75-4.7 2.7L21.25 5" fill="#6a64db" transform="translate(71.9 47.85)"/><path d="m-27.4-23.7.55-.05q2.35-.2 5.2 1.5 2.05 1.25 4 1.9l1.55.45q2.7.6 5.15-1.3L-6.5-24q2.1-1.15 4.4-1.4 3.25-.65 6.5 0l2.1.55q.35-1.4-.25-2.7-1.05-2.2-3.2-3.25 1.3-.9 1.95-2.35-1.9.95-4.55.6-2.7-.35-2.55-1.95.1-1.6-.5-2.3-.6-.7-2.6-1.2l-4.8-.35-3.8-.1 4.15-1.7 2-.35h7.3l4.75.35v.05q0 1.75 2.4 2.3l4.6.4 1.35.15q1.95 1.85 2.05 5.3l-.6 7.35-.2.5q-2 4.85-1.45 8.65l.35 1.95L8-6.25Q4.55-1.5 2.2 3.6L-2.55.3-2.7.15q2.65-1.7 5.45-4.25 4.45-4.1 6.2-7.65 1.75-3.6 1.9-6 .1-2.35-1.75-2.3h-.15l-.8-.1-3.4.25q-6.6.8-12.25 4-6.4 3.55-9.2 7.4l-2.65-1.1q-2.2-.95-7.25-.05l-.3.05q-4.05.75-8.45 2.95l-2.6 1.4L-48.85.7Q-53.9 3.35-59.4.6q-1.75-.9-2.95-2.2L-62.4-3q-.1-3 .65-4.9l1.2-2.35 1.45.4 3.05.7 3.05.1.95-.25q1.8-.6 2.9-1.55 1.05-1 2.65-.7l4.7.75 3.05-.25q1.3-.35 2.75-1.5l2.4-2.2q.95-1 1.5 0 .15 1.05 2.75 2 2.85 1 6.75.5 5.1-.7 6.75-1.35 1.65-.65 2.8-2.75-3.75 1.65-8 .85-4.25-.85-4.8-4.5-.4-2.6-1.55-3.7" fill="#d595ff" transform="translate(71.9 47.85)"/><path d="M2.2 3.6Q4.55-1.5 8-6.25l4.9-7.25q.5 2.6 1 2.95l1.75-.15 2.1-1.2q.95-.65 2.2-1.15l2.2-.7-.3 1.2q-2.2 8.15-2.2 9.15 0 1.8.8 4.25.7 2.15.8 4.15l-3 .6-2.85.3-2.95.2L7 5.6l-2.15-.65L2.2 3.6" fill="#8f70e8" transform="translate(71.9 47.85)"/><path d="m14.2-24.6.6-7.35q-.1-3.45-2.05-5.3l5.25.75 4.15.85q.9 1.75 1.35 4.05.5 2.55.5 7.2 0 2.35-.85 6.55l-1.05.25-4-.3q-2-.65-2.35-1.6-.4-1-.35-3.6l-.1-3.15-.55.45v.05l-.55 1.15" fill="#9667ff" transform="translate(71.9 47.85)"/><path d="m4.4-40.15-4.75-.35h-7.3l-2 .35q5.95-2.15 12.4-2.9 14.35-1.5 27.15 3.45l4.7 2.15h-.05L24.1-39.8 16-41.1l-9.15-.6-1.15.05-.5.1-.3.25-.15.15q-.35.45-.35 1" fill="#a977ff" transform="translate(71.9 47.85)"/><path d="m12.75-37.25-1.35-.15-4.6-.4q-2.4-.55-2.4-2.3v-.05q3.2.45 5.8 1.35 1.5.55 2.55 1.55" fill="#cc76fe" transform="translate(71.9 47.85)"/><path d="M-17.1-30.05q-1.6-2.65-1.65-5.8l.25-.15 4.05-2.15.65-.3 3.8.1 4.8.35q2 .5 2.6 1.2.6.7.5 2.3-.15 1.6 2.55 1.95 2.65.35 4.55-.6-.65 1.45-1.95 2.35l-.9.5q-1.1.5-2.1.65-1.95.2-3.4-.7-1.45-.9-2.4-1.85-.95-1-2.45.6-1.55 1.55-3.9 2-2.4.4-3.95 0l-1.05-.45" fill="#fad9ff" transform="translate(71.9 47.85)"/><path d="m-25.55-31.55-1.05.2-6.25.95q-4.1.6-5.7 2.1 2 1.2 2.35 4.45l1.75-.65-4.7 4.35q-2.45 1.85-5.1 1.85-.85 0-1.7-.65-.95-.75-.95-1.75 0-3.35 3.6-6.85 2.9-2.85 7.5-5.1l7.75.6 2.5.5" fill="#fddcff" transform="translate(71.9 47.85)"/><path d="m-53-9.05-3.05-.1-3.05-.7-1.45-.4-1.2 2.35Q-62.5-6-62.4-3l.05 1.4q-2.6-2.75-3.15-7.5l.2-.75 1.8-4.4q2.95-1.95 6.25-1.95 1.9 0 3.25 1.75 1.25 1.55 1.25 3.5l-.25 1.9" fill="#fcd6ff" transform="translate(71.9 47.85)"/><path d="M-35.8-32.65q-4.6 2.25-7.5 5.1-3.6 3.5-3.6 6.85 0 1 .95 1.75.85.65 1.7.65 2.65 0 5.1-1.85l4.7-4.35q3-.85 5.95.1l1.1.7q1.15 1.1 1.55 3.7.55 3.65 4.8 4.5 4.25.8 8-.85-1.15 2.1-2.8 2.75-1.65.65-6.75 1.35-3.9.5-6.75-.5-2.6-.95-2.75-2-.55-1-1.5 0l-2.4 2.2q-1.45 1.15-2.75 1.5l-3.05.25-4.7-.75q-1.6-.3-2.65.7-1.1.95-2.9 1.55l-.95.25.25-1.9q0-1.95-1.25-3.5-1.35-1.75-3.25-1.75-3.3 0-6.25 1.95 1.65-3.45 4.15-6.65 5.7-7.4 14.25-10.05 4.65-1.55 9.3-1.7" fill="#fce3ff" transform="translate(71.9 47.85)"/><path d="M-17.65-20.35q.7-1.65.7-2v-6.75l.55.2-7.15-3.8.1-.05.9-.1q3 0 4.5 1.9l.1.15.1.1.2.2.55.45 1.05.45q1.55.4 3.95 0 2.35-.45 3.9-2 1.5-1.6 2.45-.6.95.95 2.4 1.85 1.45.9 3.4.7 1-.15 2.1-.65l.9-.5q2.15 1.05 3.2 3.25.6 1.3.25 2.7l-2.1-.55q-3.25-.65-6.5 0-2.3.25-4.4 1.4l-4.45 2.8q-2.45 1.9-5.15 1.3l-1.55-.45" fill="#de8aff" transform="translate(71.9 47.85)"/><path d="m-34.45-24.5-1.75.65q-.35-3.25-2.35-4.45 1.6-1.5 5.7-2.1l6.25-.95 1.05-.2q4.35.95 8.6 2.45v6.75q0 .35-.7 2-1.95-.65-4-1.9-2.85-1.7-5.2-1.5l-.55.05-1.1-.7q-2.95-.95-5.95-.1" fill="#e49aff" transform="translate(71.9 47.85)"/><path d="m-17.1-30.05-.55-.45-.2-.2-.1-.1-.1-.15q-1.5-1.9-4.5-1.9l-.9.1 4.7-3.1q.05 3.15 1.65 5.8" fill="#ecc1ff" transform="translate(71.9 47.85)"/><path d="m12.9-13.5-.35-1.95Q12-19.25 14-24.1l.2-.5.55-1.15v-.05l.55-.45.1 3.15q-.05 2.6.35 3.6.35.95 2.35 1.6l4 .3 1.05-.25-1 4.1-2.2.7q-1.25.5-2.2 1.15l-2.1 1.2-1.75.15q-.5-.35-1-2.95" fill="#b69bf9" transform="translate(71.9 47.85)"/><path d="m35.8-13 .6.95 1.4 1.95q0 1.35-1.85 1.35-1.75 0-2.65-3.25-.9-3.25-3.75-2.95l-5.6.85-1.8.35 1-4.1q1.9-.65 5.25-2.6 3.35-2 6.05-2.3l1.6-.1q2.4.15 2.15.7l-.55.45-1.9 1.95q-.8 1.2-.8 2.8 0 2.2.75 3.75l.1.2" fill="#a98cfb" transform="translate(71.9 47.85)"/><path d="m31.7-.95 1.25-.75 1.6-.65 3.65-.25q1.85.4 3.2 1.45l-.1.1-1.45.1-2.1-.35-1.45-.4-1.65.4q-1.35.5-3.1 1.7l-.35.25q.1-.8.5-1.6" fill="#423b91" transform="translate(71.9 47.85)"/><path d="M-16.7-8.5q2.8-3.85 9.2-7.4 5.65-3.2 12.25-4l3.4-.25.8.1h.15q1.85-.05 1.75 2.3-.15 2.4-1.9 6Q7.2-8.2 2.75-4.1-.05-1.55-2.7.15-4.35 1.2-5.9 1.9q-4.2 1.95-7.55 2.05l-2.1-.05q-1.8-.2-2.85-.9-1.55-1.05-1.6-3.7l.45-2.4q.6-2 2.25-4.55l.6-.85m25.5-8.25-.4-1-3.8-.2-1.65.3Q-2.1-16.7-7.2-13.7q-5.05 2.95-7.7 6l-.3.4q-2.65 3.25-2.6 5.55.05 1.9.95 2.85l.15.15.25.2 1.55.5 2.85-.2Q-9 1.1-5.35-.7q3.6-1.85 7.2-5.15 3.55-3.35 5.2-6.2 1.5-2.7 1.75-4.7" fill="#2c095d" transform="translate(71.9 47.85)"/><path d="m.55-14.85 3.5-.95 1.6-.45 3.15-.5q-.25 2-1.75 4.7-1.65 2.85-5.2 6.2-3.6 3.3-7.2 5.15-3.65 1.8-6.7 2.45l-2.85.2-1.55-.5-.25-.2-.15-.15q.6-2.3 1.85-4.05l1.05-1.25q.1 2 1.7 2.85.85.45 1.75.5 1.5 0 7.15-4.65 5.6-4.65 5.75-6.15.15-1.5-.5-2.2l-1.35-1" fill="#3c70d5" transform="translate(71.9 47.85)"/><path d="m-13.85-4.3 2.35-2.55L-7.35-11h.15q0 1.05 1 2.05.95.95 2.65.7 1.7-.3 1.75-2.45.05-2.15-.25-2.65l-.6-.7 3.2-.8 1.35 1q.65.7.5 2.2-.15 1.5-5.75 6.15Q-9-.85-10.5-.85q-.9-.05-1.75-.5-1.6-.85-1.7-2.85l.1-.1m4.1-.8q0 .7.5 1.2.55.55 1.3.55t1.25-.55q.55-.5.55-1.2t-.55-1.25q-.5-.5-1.25-.5t-1.3.5q-.5.55-.5 1.25" fill="#193693" transform="translate(71.9 47.85)"/><path d="m.55-14.85-3.2.8.6.7q.3.5.25 2.65-.05 2.15-1.75 2.45-1.7.25-2.65-.7-1-1-1-2.05h-.15l-4.15 4.15-2.35 2.55-.1.1L-15-2.95q-1.25 1.75-1.85 4.05-.9-.95-.95-2.85-.05-2.3 2.6-5.55l.3-.4q2.65-3.05 7.7-6 5.1-3 10.15-3.95l1.65-.3 3.8.2.4 1-3.15.5-1.6.45-3.5.95M-9.75-5.1q0-.7.5-1.25.55-.5 1.3-.5t1.25.5q.55.55.55 1.25t-.55 1.2q-.5.55-1.25.55t-1.3-.55q-.5-.5-.5-1.2" fill="#6bfbfc" transform="translate(71.9 47.85)"/><path d="M-62.35-1.6q1.2 1.3 2.95 2.2 5.5 2.75 10.55.1l10.9-5.95 2.6-1.4q4.4-2.2 8.45-2.95l.3-.05q5.05-.9 7.25.05l2.65 1.1-.6.85q-1.65 2.55-2.25 4.55L-21-3.35l-1.45-.2-5-.3q-5.15-.2-13.85 3.7L-52 4.55q-2.05.75-4.75 1.05l-3.7.2-.75-.15-.75-3.25-.4-4" fill="#ae64ff" transform="translate(71.9 47.85)"/><path d="m-61.2 5.65.75.15 3.7-.2q2.7-.3 4.75-1.05l10.7-4.7q8.7-3.9 13.85-3.7l5 .3Q-25.3 2.35-33.4 16.4q-5.55 9.55-7.15 14.2-4.85-1.6-9.55-3.7-8.95-16.05-10.1-18.65l-1-2.6" fill="#bb8dff" transform="translate(71.9 47.85)"/><path d="m-66.75-3.45.4 1.3.85 2.85 1 2.15q.65 1.25 1.85 2.05l1.45.75 1 2.6q1.15 2.6 10.1 18.65l-.8-.4q-1.4-.65-2.75-1.35-5-3.05-8.25-7.3-1.3-1.7-3.5-7-2.25-7.3-1.35-14.3" fill="#f6cfff" transform="translate(71.9 47.85)"/><path d="m-22.45-3.55 1.45.2 1.45.25L-20-.7q.05 2.65 1.6 3.7 1.05.7 2.85.9-.95 2.8-2.65 7.2l-4.05 10.55-4.85 12.45-7.2-1.7-6.25-1.8q1.6-4.65 7.15-14.2 8.1-14.05 10.95-19.95" fill="#ad7cff" transform="translate(71.9 47.85)"/><path d="m-2.7.15.15.15L2.2 3.6l2.65 1.35L4 8.05Q.8 19.2-3.75 27.8l-5.15 9.25-8.75-1.15-9.45-1.8 4.85-12.45 4.05-10.55q1.7-4.4 2.65-7.2l2.1.05q3.35-.1 7.55-2.05 1.55-.7 3.2-1.75" fill="#a372ff" transform="translate(71.9 47.85)"/><path d="m-66.75-3.45.15-.8.05-.3 1.05-4.55q.55 4.75 3.15 7.5l.4 4 .75 3.25-1.45-.75q-1.2-.8-1.85-2.05l-1-2.15-.85-2.85-.4-1.3" fill="#f5c2ff" transform="translate(71.9 47.85)"/><path d="M41.4-1.1q.35-.3.35-1.25 0-.75-.4-1.1l-.85-.8v-.8h.7l.5.2 1.15-.1h.05l1.4 2.8Q45-.7 45 .75l-.35 1.45-.6 1.4L43.1 5q-.55.8-.65 1.4l-.6 3.35L40.7 13q-1.55 3.1-5.4 4.7-1.95.75-6.2 1.5l-1.35-.15q1.65-1.7 3.15-2 1.55-.3 2.75-7.95Q34.8 1.4 34.7-.15l-.05-1.15 1.65-.4 1.45.4 2.1.35 1.45-.1.1-.05" fill="#4d2fb3" transform="translate(71.9 47.85)"/><path d="M43.05-6.95q-.5-1.7-2.35-3.45-2.35-2.15-4.9-2.6l-.1-.2q-.75-1.55-.75-3.75 0-1.6.8-2.8l1.9-1.95.55-.45q.25-.55-2.15-.7l-1.6.1.95-1.05 3.65-3.35 1.75 1.65q5.15 5.15 6.75 16.25l-1.4.8-.4.2-.65.35-2.05.95" fill="#6551cd" transform="translate(71.9 47.85)"/><path d="M22.15-35.65q3.4.9 7.2 2.4 3.05 1.2 5.95 3.15l3.05 2.35.7.6-3.65 3.35-.95 1.05q-2.7.3-6.05 2.3-3.35 1.95-5.25 2.6.85-4.2.85-6.55 0-4.65-.5-7.2-.45-2.3-1.35-4.05" fill="#8d61f9" transform="translate(71.9 47.85)"/></g><g id="s" fill-rule="evenodd"><path d="M1.5-13.45q1.9-2.4 7.05-3.35l8.9-.6q5.6 0 8.3 2.6 1.75 1.7 2.5 4.6.5 2.1.5 4.8 0 1.85-.5 4-8.2 4.15-11.2 5.05l-.7.2-3.05.7-4.7.9v-.1q0-1-1.45-1.05L4.7 3.8Q4 3.25 3.4 2.15L2.8.6q1.8 1.9 4 1.9 1.95 0 3.1-1.9 1.05-1.75 1.05-4.3l-.3-2.85Q10.3-8.4 9.2-9.05L6.6-9.1q-1.55.65-1.65-1.15-.1-1.85-1.25-2.4l-.5-.2-1.45-.5-.25-.1m-.45 7.1.1.2-1.45 2.8-.65-3.75-.25-2.6q-.3-.8-1.8-.8l-.7.1.65-.8q.7-.55 1.35-.55 1.35 0 1.9 2.25l.7 2.65.05.1v.05-.05l.1.4" fill="#5729c4" transform="translate(28.75 17.4)"/><path d="m3.2-12.85.5.2q1.15.55 1.25 2.4.1 1.8 1.65 1.15l2.6.05q1.1.65 1.45 2.5l.3 2.85q0 2.55-1.05 4.3-1.15 1.9-3.1 1.9-2.2 0-4-1.9L2.65.45 1.6-.45h-.05l-.3-.25Q.4-1.4 0-2.4l-.3-.95 1.45-2.8.45.85L4-1.85Q5.6 0 7.45-.1q1.8-.15 1.8-4.45 0-2.3-.2-3Q8.65-8.9 7.2-8.9l-1.95.2q-1.35 0-1.8-1.55-.25-.8-.25-1.95v-.65" fill="#5306c4" transform="translate(28.75 17.4)"/><path d="M28.25-1.4q-.5 2.15-1.55 4.55l-.2.45-10.15 4.1-5.7 2.1-2.7.85-2.4 1-2.6.7q-1.2 0-2.3-.55-1.1-.55-1.75-1.45l-.05-.05h-.15l5.15-1.1q4.6-1.45 4.75-3.7v-.05l4.7-.9 3.05-.7.7-.2q3-.9 11.2-5.05" fill="#5308c4" transform="translate(28.75 17.4)"/><path d="m26.5 3.6-.1.25-.8 1.75-1.25 2.2-2.6 3.2Q19.5 13.1 17 14.25l-.65.3-1.15.45q-2.1.8-4.25 1.2l-1 .25-5.55.95q-2.3.05-5.35-1.25-3.1-1.3-4.75-4.55-2.3.95-4.9 1.7l-4.8.7-5.3-.6q-3.15-.65-3.6-2.25-.45-1.6 1.55-3.65l2.65-3.05q-1.85.2-5-5-3.1-5.25-3.55-7.55-.5-2.3 1.15-2.7l5-.6 8.25-.5 4.75-.2.15-.25 2.5-2.2q1-.5 2.6-.5l2.55.5.1.05q-.95.4-1.8 1.2l-.1.1-.1.05-.05.05L-6-10.85q-.25.25 0 .5l.8.1-1.2 1.45-.3.35-3.6.2-1.65.1-9.2.45q-2.15.1-2 .8.15.65 1.4 2.45l1.9 2.45L-17.5.2l1.05.8L-15 2.05q.65 2-.55 3.8L-17.5 8.4q0 .55.55.65h1.35l1.8-.1q1.85-.25 3.6-.95l2.55-1.1 2.15.9q2.05.75 3.9.9h.85l2.7-.4L3 7.9Q5.15 7 5.8 5.55h-.15q-1.85-.2-2.9-2.25L1.1 0l.45-.45h.05l1.05.9.15.15.6 1.55Q4 3.25 4.7 3.8l2.45.5q1.45.05 1.45 1.05v.15q-.15 2.25-4.75 3.7l-5.15 1.1h.15l.05.05q.65.9 1.75 1.45 1.1.55 2.3.55l2.6-.7 2.4-1 2.7-.85 5.7-2.1L26.5 3.6" fill="#3a1f66" transform="translate(28.75 17.4)"/><path d="m-1.6-14.5 2.45.9.65.15.25.1 1.45.5v.65q0 1.15.25 1.95.45 1.55 1.8 1.55l1.95-.2q1.45 0 1.85 1.35.2.7.2 3 0 4.3-1.8 4.45Q5.6 0 4-1.85L1.6-5.3l-.45-.85-.1-.2h.05l.1.15q.5.85 1.85 2.3Q5.3-1.6 6.1-1.6q.8 0 .9-1.85.1-1.85-1.9-2.95L2.85-7.9q-.25-.35-.6-1.95l-.1-.4-.4-.8-.6-.55q-1-.55-3.95-1.7h-.6q.85-.8 1.8-1.2M-13.55 6.3l-.05-.25-.05-.2.55-2q.55-1.45.55-2.65V.8q1 .75 3.4 1.2l.45.1h.15l.05 1.2-.3 2.15q-.9.1-1.9.5-1.55.6-2.3.6l-.55-.25m7.4-.65q.65-1.55 2.6-1.55 1.5 0 3.35 1.2 2.05 1.35 2.15 3l-2.7.4h-.85q-.95-1.05-2.45-2-1.1-.7-2.1-1.05" fill="#8c3ffc" transform="translate(28.75 17.4)"/><path d="M-3.4-13.3h.6q2.95 1.15 3.95 1.7l.6.55.4.8.1.4q.35 1.6.6 1.95L5.1-6.4q2 1.1 1.9 2.95-.1 1.85-.9 1.85T3.05-3.9Q1.7-5.35 1.2-6.2l-.1-.15h-.05l-.1-.4v.05-.05l-.05-.1L.2-9.5q-.55-2.25-1.9-2.25-.65 0-1.35.55l-.65.8-1.4.15h-.1l-.8-.1q-.25-.25 0-.5l2.35-2.25.05-.05.1-.05.1-.1" fill="#9063fc" transform="translate(28.75 17.4)"/><path d="m-.3-3.35.3.95q.4 1 1.25 1.7l.3.25L1.1 0l-2.25 1.55q-1.9.9-3.1.9l-4.3-.35h-.15l-.45-.1q-2.4-.45-3.4-1.2l-.35-.3q-.4-.45-.4-1v-.05q0-1.15.9-2.1l3.3-3.25.95-.95.05-.1 1.4-1.5.3-.35 1.2-1.45h.1l1.4-.15.7-.1q1.5 0 1.8.8l.25 2.6.65 3.75m-3-5.45-4.3 4.2q-2.95 3.05-2.9 3.95.05.85 3.6.9L-2.8.1l1.95-.6q-1.55-1.7-2.1-3.75-.45-1.7-.35-4.55" fill="#0d000f" transform="translate(28.75 17.4)"/><path d="M-13.3-.55q-2-.2-2.2-1.05-.3-1.05 1.4-3.05 1.7-2 2.9-2.1l1.75-.3 1.3.2-.95.95-3.3 3.25q-.9.95-.9 2.1" fill="#8c43fc" transform="translate(28.75 17.4)"/><path d="m-8.15-6.85-1.3-.2-1.75.3q-1.2.1-2.9 2.1t-1.4 3.05q.2.85 2.2 1.05v.05q0 .55.4 1l.35.3v.4q0 1.2-.55 2.65l-.55 2 .05.2.05.25q-.35.55-.35 1.6l.05.95.05.1-1.8.1h-1.35q-.55-.1-.55-.65l1.95-2.55q1.2-1.8.55-3.8L-16.45 1l-.05-.2-.2-1.35q0-2.3.7-3.7 1-1.9 4.05-3.9l1.65-.1 3.6-.2-1.4 1.5-.05.1" fill="#de8cf3" transform="translate(28.75 17.4)"/><path d="M-3.3-8.8q-.1 2.85.35 4.55Q-2.4-2.2-.85-.5L-2.8.1l-4.1.15q-3.55-.05-3.6-.9-.05-.9 2.9-3.95l4.3-4.2" fill="#361e5a" transform="translate(28.75 17.4)"/><path d="m-8.55 2.1 4.3.35q1.2 0 3.1-.9L1.1 0l1.65 3.3q1.05 2.05 2.9 2.25h.15Q5.15 7 3 7.9l-1.05.4q-.1-1.65-2.15-3-1.85-1.2-3.35-1.2-1.95 0-2.6 1.55l-1.7-.3-.95.1.3-2.15-.05-1.2" fill="#6a64db" transform="translate(28.75 17.4)"/><path d="m-13.8 8.95-.05-.1-.05-.95q0-1.05.35-1.6l.55.25q.75 0 2.3-.6 1-.4 1.9-.5l.95-.1 1.7.3q1 .35 2.1 1.05 1.5.95 2.45 2-1.85-.15-3.9-.9l-2.15-.9L-10.2 8q-1.75.7-3.6.95" fill="#ea93ff" transform="translate(28.75 17.4)"/><path d="M-11.95-8.15q-3.05 2-4.05 3.9-.7 1.4-.7 3.7l.2 1.35.05.2-1.05-.8-2.35-2.2-1.9-2.45q-1.25-1.8-1.4-2.45-.15-.7 2-.8l9.2-.45" fill="#eaa7ff" transform="translate(28.75 17.4)"/></g><g id="t" fill-rule="evenodd"><path d="m50.15-22.35-2.35 4.7q-1.45 2.7-6.1 7.45l-1.1 1.1-.5.55q-6.05 5.9-13.45 8.9 5.3 1.8 6.85 3.8L35.45 7q-4.7 4.2-13.75 6.6-9.05 2.4-12.6 2.55l-5.4.1q-8.1 0-14.25-1.25-5.65-1.15-5.65-2.4l1-1.45-.1-.05q-5.6-.95-10.05-3.9l-.4 5.55-.3 7.7.25 5.55-.15 1.05q-1.4-.8-3.9-1.4l-4.4-1.05q-2.65-.85-4.25-2.7-1.85-2.15-4.65-7.95l-3.25 3.25q-1.95 1.95-2.4 1.95-.5-.05-.95-.45l-.55-.7.55-4.85q.65-4.65 1.35-6.95.65-2.35 3.25-7.35 2.4-4.5 4.65-10.5l.45-.6q5.05-6.55 13.35-8.5 8-1.9 16.15-2.8l16.25-2 2.6-.35 9.2-.9 2.95-.1 17.35-.15 7.3.65 2.2.35q1.9.15 2.45.6.55.45.55 1.75l-.05 1.05-.1.3m-6.8 2.25.7-1.1-11.45-.7-11.25.95-5.75.9-2.3.5-10.05 1.4-27.75 3.65q-9.8 1.65-14.05 7.15-.25-.25-.7.5l-.3.6-.05.1-.5 1.2-.15.4L-42.1.2-44 5.65l-1.25 4.45-.05.1-.05.25q1.05-.4 2-1.35l.85-.65 1.45-.3q1.1-.05 1.9 1.3l.3.65 2.35 4.95q1.45 3 4.3 5.75 1.7 1.65 3.2 2.5l1.85.75q-.45-.9-.6-3.3l.05-5.8.65-6.55.35-1.9q.4-1.6 1.1-1.5.95.15 2 1.2l1.65 1.3 2.75 1.1 1.2.45.5.15 3.85.9 21.1.95 4.05-.1 2.05-.35 2.65-.55 5.9-1.5.5-.2q3.1-1.15 4.3-2.2-1.4-2.05-5-2.45L8.4 1.65Q15.45.35 22.15-2.4l3.75-1.7q5.8-2.95 10.45-7.7 3.85-3.85 7-8.3" fill="#bf7816" transform="translate(50.3 27.05)"/><path d="M43.35-20.1q-3.15 4.45-7 8.3Q31.7-7.05 25.9-4.1l-3.75 1.7q-1.6-.25-1.6-1.2-.05-1.4.8-2.3l1.75-2 2.15-3.2 1.95-5.6q.05-.65 2.15-1.25l6.35-1.3 7.65-.85M22.1 8.55l-5.9 1.5-2.65.55-2.05.35-4.05.1-21.1-.95-3.85-.9-.5-.15-1.2-2.45-.3-1.15q5.4 1.2 10.75-.15 3.45-1 6.6-2.25Q2 4.6 9.65 4.25q5.05.15 9.4 2.4l3.05 1.9" fill="#ffe880" transform="translate(50.3 27.05)"/><path d="m-39.6-6.15.05-.1.3-.6q.45-.75.7-.5 4.25-5.5 14.05-7.15l27.75-3.65 10.05-1.4 2.3-.5 5.75-.9 11.25-.95 11.45.7-.7 1.1-7.65.85-6.35 1.3q-2.1.6-2.15 1.25l-1.95 5.6-2.15 3.2-1.75 2q-.85.9-.8 2.3 0 .95 1.6 1.2Q15.45.35 8.4 1.65L21.9 3.7q3.6.4 5 2.45-1.2 1.05-4.3 2.2l-.5.2-3.05-1.9q-4.35-2.25-9.4-2.4Q2 4.6-2.15 3.05-5.3 4.3-8.75 5.3q-5.35 1.35-10.75.15l.3 1.15 1.2 2.45-1.2-.45-2.75-1.1-1.65-1.3q-1.05-1.05-2-1.2-.7-.1-1.1 1.5l-1.55-2.3Q-30.1 1.65-31 1.65q-1.75 0-4.8 2.9-2.1 2-3 3.9l-.35 1q-.8-1.35-1.9-1.3l-1.45.3.55-.7.8-1.1 1.25-2 1.65-3.5Q-37.2-1.3-37.2-1.9q0-1.05-1.1-2.65l-1.3-1.6" fill="#ffb556" transform="translate(50.3 27.05)"/><path d="M-29 23.3q-1.5-.85-3.2-2.5-2.85-2.75-4.3-5.75l-2.35-4.95-.3-.65.35-1q.45-.6 2.95-2.45 2.75-2.05 3.4-2.05.4 0 .45.3v.45q0 .9-1 3.05t-1.1 3.8q-.1 1.65 3.05 7.45 1.65 3.05 2.05 4.3M-42.5 8.45l-.85.65q-.95.95-2 1.35l.05-.25.05-.05v-.05L-44 5.65-42.1.2l1.85-4.75h.45q1.4 1.1 1.4 2.6 0 .2-1.35 3.35l-1.65 4.1q-.15.55.25 1.15l-.8 1.1-.55.7" fill="#fffeb5" transform="translate(50.3 27.05)"/><path d="m-40.25-4.55.15-.4.5-1.2 1.3 1.6q1.1 1.6 1.1 2.65 0 .6-1.05 3.05l-1.65 3.5-1.25 2q-.4-.6-.25-1.15l1.65-4.1q1.35-3.15 1.35-3.35 0-1.5-1.4-2.6h-.45" fill="#fcf97d" transform="translate(50.3 27.05)"/><path d="m-26.7 6.5-.35 1.9-.65 6.55-.05 5.8q.15 2.4.6 3.3L-29 23.3q-.4-1.25-2.05-4.3-3.15-5.8-3.05-7.45.1-1.65 1.1-3.8t1-3.05v-.45q-.05-.3-.45-.3-.65 0-3.4 2.05-2.5 1.85-2.95 2.45.9-1.9 3-3.9 3.05-2.9 4.8-2.9.9 0 2.75 2.55l1.55 2.3" fill="#fcfa7c" transform="translate(50.3 27.05)"/></g><g id="u" fill-rule="evenodd"><path d="M-9.25.15-9.2.1l1.25-1.4L-6.6.65q3 4.4 5.75 9l-5.15.1h-3.15l-.1-9.6" fill="#3c71d5" transform="translate(21.6 21.6)"/><path d="m-.85 9.65.65 1.1q-3.25 2.6-5.55 5.15l-2.9 3.3-.35.05h-.05l-.1-9.5H-6l5.15-.1" fill="#193693" transform="translate(21.6 21.6)"/><path d="m-15 9.5 1.65.1h.4l1.15.05 2.65.1.1 9.5-.85-.75-2.2-3.45L-15 9.5" fill="#3c70d5" transform="translate(21.6 21.6)"/><path d="m-9.9.25.25.3.4-.4.1 9.6-2.65-.1-1.15-.05h-.4L-15 9.5l-.3-.7.85-1.65Q-12.6 3.4-9.95.2l.05.05" fill="#6bfafc" transform="translate(21.6 21.6)"/><path d="m-10.45-1.15.5 1.35q-2.65 3.2-4.5 6.95l-.85 1.65.3.7 2.9 5.55 2.2 3.45.85.75H-9l.35-.05 2.9-3.3q2.3-2.55 5.55-5.15l-.65-1.1q-2.75-4.6-5.75-9L-7.95-1.3l.55-.7h.05L-4.9.65l.9.95 3.5 4.1 1.65 2.35L2 9.3l-.4.5-4.2 5.2q-2.8 3.4-6.65 6.65l-3.05-3.9-5.4-7.5q.5-1.5 2.3-4.4l.7-1.15.4-.6.25-.45 1.5-2.15 2.1-2.65" fill="#664894" transform="translate(21.6 21.6)"/><path d="m-13.9-9.4 1-.05.5.25-1.1 7.7-.55 5.15-.25.45-.4.6-.7 1.15.55-6.7.9-8.55h.05m26.5 1.15.35-3.3q.65 7 2.5 13.75l1.15 5.5Q10.15 9.25 2.95 9.65L1.6 9.8l.4-.5-.85-1.25 1.95.1 2.35-.05q6.4-.25 9.95-1.9-1.1-1.5-1.9-4.9-.7-3.1-.9-6.55v-3" fill="#3a1f66" transform="translate(21.6 21.6)"/><path d="m-12.4-9.2.6.8.35 1-1.1 8.9-1.5 2.15.55-5.15 1.1-7.7" fill="#f3edfd" transform="translate(21.6 21.6)"/><path d="M-11.45-7.4q.45 1.4.6 2.85l.35 3.15.05.25-2.1 2.65 1.1-8.9" fill="#b8a5dc" transform="translate(21.6 21.6)"/><path d="M-13.4-12q-.15-2.1-2.2-2.1l-.2.05.15-.1 1.05-.9q3.75.85 8.15.2 4.75-.7 9.55-2.5l9.55-4.1.3-.15.25.1q.4.15.85.35l1.55.65 2.3.95-4.7 1-2.4.5q-.6.25-.6 1.35.65 5.25.25 7.15l-.9-.7-.35-3.2q-.35-1.35-1.25-1.85-.9-.55-2.6-.5-1.75.05-2.85 2.3l-.7-.2Q.3-14-1.85-11.35l-2.9 3.55-.75 1.1.3-2.6q0-1.65-.45-2.4-.6-1-2-1l-2.25.4q-.3-.5-.9-.45l-2.6.75m6.05 10 3.05-3.85 3.1-3.95q.95-1.2 2.3-2.05l.85-.55 3.7 1.5L8.2-9.45l.55.4.15.1q3.2 2.15 3.7.7v3q.2 3.45.9 6.55.8 3.4 1.9 4.9-3.55 1.65-9.95 1.9l-2.35.05-1.95-.1L-.5 5.7l.1-1.45.1-1.65v-4.55q-1.55-1.5-2.7-1.5-1.85 0-1.9 4.1L-7.35-2" fill="#d2bef8" transform="translate(21.6 21.6)"/><path d="m-15.8-14.05.2-.05q2.05 0 2.2 2.1l-2 .9-3.4 1.55-.3-.05v-.25q.15-.8 1.5-2.4l1.65-1.65.15-.15m5.9 1.75 2.25-.4q1.4 0 2 1 .45.75.45 2.4l-.3 2.6L-7-4.15q-1.75 3-2.2 3-.45 0-.5-.6v-.15l-.15-1.8v-2.85l.25-3.9q.05-1.25-.25-1.8l-.05-.05m12.4-1.2q1.1-2.25 2.85-2.3 1.7-.05 2.6.5.9.5 1.25 1.85l.35 3.2-3-1.6L2.5-13.5m-3 19.2L-4 1.6l-.9-.95q.05-4.1 1.9-4.1 1.15 0 2.7 1.5V2.6l-.1 1.65-.1 1.45" fill="#fff" transform="translate(21.6 21.6)"/><path d="m-13.4-12 2.6-.75q.6-.05.9.45l.05.05q.3.55.25 1.8l-.25 3.9v2.85l.15 1.8-.05.4.05-.25q.05.6.5.6t2.2-3l1.5-2.55.75-1.1 2.9-3.55Q.3-14 1.8-13.7l.7.2 4.05 1.65 3 1.6.9.7q.4-1.9-.25-7.15 0-1.1.6-1.35l2.4-.5 4.7-1 1 .4 2.4 1.65.15.35.2.55q0 .95-1.45.95l-3.7-.2q-3.15 0-3.4 3l-.15 1.3-.35 3.3q-.5 1.45-3.7-.7l-.15-.1-.55-.4-2.55-1.45-3.7-1.5-.85.55Q-.25-11-1.2-9.8l-3.1 3.95L-7.35-2h-.05l-.55.7L-9.2.1l-.05.05-.4.4-.25-.3-.05-.05-.5-1.35-.05-.25-.35-3.15Q-11-6-11.45-7.4l-.35-1-.6-.8-.5-.25-1 .05-.05-.05v.05l-1.7.55q-1.2.35-2.25 1.1-1.1.7-2 .7l-.75-.35-.55-.6q-.7-1.3-.15-2.55.5-1.3 2.4-2.25 1.85-1 3.8-2.35l.55.1-1.05.9-.15.1-.15.15-1.65 1.65q-1.35 1.6-1.5 2.4v.25l.3.05 3.4-1.55 2-.9" fill="#644795" transform="translate(21.6 21.6)"/></g><g id="v" fill-rule="evenodd"><path d="M-20.9-3.65q-.75-1.7-.25-5.95 0-1.25 1.6-1.75l3.95-.9q6.05-1.6 10.4.55 4.3 2.1 6.35 6.6l.05.1.1-.1q1.5-1.35 4.25-2.5Q8.4-8.8 9.7-8q1.3.8 2.6 2.8l.05.1q1.2 1.9 1.5 3.15.3 1.2 1.05 2.4l.7.6.65-.45q.6-1 1.85-2l-1.35 3.15L21.35.2q-.15 1.2-.8 1.95-.7.75-2.2 1.05l-2.75.45-5.8.55q-1.8 0-2.5.7l-.2.7q-.25 1.3.65 2.8-1.4.35-2.75 1.1l-.85.45-.1.1-.45.1-5 1.5Q-5.8 13-6.7 13q-2.25 0-3.95-1.4-2-1.55-2.35-4.3l-.95-6.1q-.9-3.2-3.25-3.9l-.45.1-.55.3q-1.85.65-2.7-1.35m29.75-.2q-.55-.5-2.15-.5-1.85 0-2.25 1.75 3.05 1.3 3.1 4.15 0 2.85 2.1 2.45 2.05-.45 2.25-.8.2-.35-.5-1.2L10.6.95q-.55-.6-.85-2.35-.45-1.95-.9-2.45" fill="#3a1f66" transform="translate(21.35 12.95)"/><path d="M8.85-3.85q.45.5.9 2.45.3 1.75.85 2.35L11.4 2q.7.85.5 1.2-.2.35-2.25.8-2.1.4-2.1-2.45Q7.5-1.3 4.45-2.6q.4-1.75 2.25-1.75 1.6 0 2.15.5" fill="#4247a1" transform="translate(21.35 12.95)"/></g><g id="w" fill-rule="evenodd"><path d="m.1-16.8-.25-1.25.75.15q6.2 1.3 9.1 7.05l.7 1.65 1.3 3.05.8 1.6.5.85.3.95.55 1.4L11.45.3l-.3.2-.15.1-1.35-.7q.55-5.4-1.95-10.45-2.5-4.8-7.6-6.25m-5.4 32.35q-2.6 1.35-5.1 1.3l-1.25-.15-2.25-.7q-2.75-1.35-4.35-3.95l2.15.05h1.65l1.65 1.4q.95.65 2.5.8l2.6-.35q1.8.6 2.4 1.6M13.85 5.4q1.35-1.2 3.65-2.65l2.3-.05 2.5-.85-1.95 3.85-.1.15-.75 1.05-.4.55-1.15.2-1.25-.2-.5-.15 1.15-1.15-1.1.1q-1 0-2.4-.85" fill="#9063fc" transform="translate(23.65 18.25)"/><path d="M-6.9-15h.4l.6.35q2.4 1.45 3.55 3.25 1.3 1.95 1.45 4.35v.2q.05 2-.45 3.25l-.1.25L-2.5-1.5-3.85-.3l-.8.55-1.15.1.1-.05 1.3-.9h.05l.7-.85-.45-.25q.85-1.4 1.15-2.4l.1-2.25q0-6.75-3.25-6.75l-.15.05-.15.25-.25-.35-.45-.5v-.45l.05-.3.05-.25.05-.25.05-.1M13-3.7l.6.95.75 1.1q.9 1.2 1.85 1.95 1.7 1.35 3.6 1.2 1.5-.15 3.1-1.2l.75-.55-.05.55q-.25 3.05-1.2 5.4-.95 2.35-2.65 4-3.05 2.95-7 5l-1.35.7q-1.7.75-3.7.95H6l-3.6-.65-1.1-.35-1.4-.5-.1-.05q-1.45 1.25-4.45 2.45-2.95 1.15-5.35 1l-.6-.05q-4.2-.55-6.3-2.15-2.25-1.75-3.2-3.4-.95-1.65-1-3.15l-.15-2q-.15-.8-1.2-2.4-1-1.45-1.2-2.85V0q2.65.5 5.3-1.8l.9 1.4.05.05L-21.05.9l-1.65.15q1.45 3.85 4.95 6l1.05.65q2.7-.15 6.4-2.7l.15-.1h-.05q.75-.85.8-1.9l-.25-1.55.85 1.7.8 1.1q-.6.95-1.5 1.7l-.9.7-.35.2-.9.55q-2.7 1.45-5.45 1.3l-2.75-.55L-18.8 11l.55 1.05q1.6 2.6 4.35 3.95l2.25.7 1.25.15q2.5.05 5.1-1.3l.9-.5Q.4 12 2.65 7.95l.1.05-.55 2.15-.35.8-.75 1.2-.8 1.05 1 .6 1.15.5q1.75.65 3.55.65l1.7-.15 2.75-.85.2-.05 2.1-1.05q3.7-2.1 6.35-5.4l.4-.55.75-1.05.1-.15 1.95-3.85-2.5.85-2.3.05q-1.25-.3-2.1-1.25l-.15-.2-.3-.5-.1-.15-.1-.1-.1-.25-.8-1.65-.55-1.4-.3-.95" fill="#3a1f66" transform="translate(23.65 18.25)"/><path d="m4.75 10.1.8.05 2.15-.05 1.6-.35 1.25-.65.1-.1h.05l2.05-.4q1.9-.4 3.05-1.05l.4-.25.5.15 1.25.2 1.15-.2q-2.65 3.3-6.35 5.4l-2.1 1.05H7.7q-2.95-.25-4.45-1.25v-.1l1.5-2.45" fill="#ad8ffe" transform="translate(23.65 18.25)"/><path d="M10.65 9h.05l1.35-1.65.7-.9 1.1-1.05q1.4.85 2.4.85l1.1-.1L16.2 7.3l-.4.25q-1.15.65-3.05 1.05L10.7 9h-.05" fill="#6361d7" transform="translate(23.65 18.25)"/><path d="M10.7 9q-2.2-.8-2.95-2.6l.8-.45 1.2-1.25q.5-.9 1.25-1.6l2 1.75.85.55-1.1 1.05-.7.9L10.7 9" fill="#7346e0" transform="translate(23.65 18.25)"/><path d="M2.65 7.95Q.4 12-4.4 15.05l-.9.5q-.6-1-2.4-1.6 1.35-.8 2.8-2.55l.15-.15 1.2.05q2.45 0 3.15-1.2.5-.85.75-3.85l.35.2 2.6.45q2.2.2 4.95-2.9 2.6-2.95 6.6-3.35l.1.15.3.5.15.2q.85.95 2.1 1.25-2.3 1.45-3.65 2.65L13 4.85 11 3.1q-.75.7-1.25 1.6l-1.2 1.25-.8.45Q8.5 8.2 10.7 9h-.05l-.1.1-1.25.65-1.6.35-2.15.05-.8-.05-2.55.05L2.75 8v-.25.05l-.1.15" fill="#8c40fc" transform="translate(23.65 18.25)"/><path d="m10.65 13.9-.2.05-2.75.85-1.7.15q-1.8 0-3.55-.65.15-.85.75-1.7l.05.05q1.5 1 4.45 1.25h2.95" fill="#865cea" transform="translate(23.65 18.25)"/><path d="m2.45 14.3-1.15-.5-1-.6.8-1.05.75-1.2q.4 1 1.35 1.65-.6.85-.75 1.7" fill="#8c41fc" transform="translate(23.65 18.25)"/><path d="m2.2 10.15 2.55-.05-1.5 2.45-.05.05q-.95-.65-1.35-1.65l.35-.8" fill="#aa76fe" transform="translate(23.65 18.25)"/><path d="M.35 6.25q-.25 3-.75 3.85-.7 1.2-3.15 1.2l-1.2-.05 3.95-5.4 1 .35.15.05" fill="#d9adff" transform="translate(23.65 18.25)"/><path d="m-4.75 11.25-.15.15q-1.45 1.75-2.8 2.55l-1.55-.45q-3.45-.7-4.25-1.75l-.15-.25 3.25-.75q1.8-.6 2.65-1.75l2 2 1 .25" fill="#d172ff" transform="translate(23.65 18.25)"/><path d="m-7.7 13.95-2.6.35q-1.55-.15-2.5-.8l-1.65-1.4.95-.35q.8 1.05 4.25 1.75l1.55.45" fill="#c28cfe" transform="translate(23.65 18.25)"/><path d="M-18.25 12.05-18.8 11l-1.05-2.85 2.75.55 2.65 3.4h-1.65l-2.15-.05" fill="#efbbff" transform="translate(23.65 18.25)"/><path d="M7.1 1.55h.6q1.95-.2 3.3-.95l.15-.1.3-.2 2.4-1.65.8 1.65.1.25.1.1q-4 .4-6.6 3.35Q5.5 7.1 3.3 6.9L.7 6.45l-.35-.2L.2 6.2l-1-.35-3.95 5.4-1-.25-2-2q-.85 1.15-2.65 1.75l-3.25.75.15.25-.95.35-2.65-3.4q2.75.15 5.45-1.3l.9-.55.35-.2.9-.7q.9-.75 1.5-1.7l-.8-1.1-.85-1.7-.1-.25-.4-.9-.4-.9-.1-.2-.25-.95-.05-.45-.1-.6q-.15-1.55.85-1.35l2.95 1 .1.05q1.75.7 3.05 1.4l.45.25-.7.85h-.05l-1.3.9-.1.05 1.15-.1.8-.55 1.35-1.2.9.85L.2.3l1.1.4q2.65.85 5.45.85h.35" fill="#f2cbff" transform="translate(23.65 18.25)"/><path d="m7.1 1.55-1.3-1Q5.15.05 5.15-.6l.2-.95.2-1.55q0-2.4-.7-3.6h.25q1.3 0 2.4 1.65l1 2.25.1 1.4q.1.85.55 1.05l.5.25L11 .6q-1.35.75-3.3.95h-.6" fill="#a858f3" transform="translate(23.65 18.25)"/><path d="m-1.35-3.6 2.8 1.5q1.2.9 1.45-.2L3.1-4q-.05-.65-.65-1.2-.65-.55-.65-1.75 0-.75.85-1.5l.1-.1q1.45.85 2.05 1.8l.05.05q.7 1.2.7 3.6l-.2 1.55-.2.95q0 .65.65 1.15l1.3 1h-.35q-2.8 0-5.45-.85L.2.3l-1.8-.95-.9-.85 1.05-1.85.1-.25" fill="#f6c9ff" transform="translate(23.65 18.25)"/><path d="M2.75-8.55q.7-.7.7-1.35 0-.7-4.8-5.5h.1q.5.1.9-.3.45-.4.45-1v-.1q5.1 1.45 7.6 6.25Q10.2-5.5 9.65-.1l-.5-.25Q8.7-.55 8.6-1.4l-.1-1.4-1-2.25Q6.4-6.7 5.1-6.7h-.25l-.05-.05q-.6-.95-2.05-1.8" fill="#c185fb" transform="translate(23.65 18.25)"/><path d="m-6.9-15 .3-.85q1.45-3.1 6.45-2.2L.1-16.8v.1q0 .6-.45 1-.4.4-.9.3h-.1q4.8 4.8 4.8 5.5 0 .65-.7 1.35l-.1.1q-.85.75-.85 1.5 0 1.2.65 1.75.6.55.65 1.2l-.2 1.7q-.25 1.1-1.45.2l-2.8-1.5q.5-1.25.45-3.25v-.2q-.15-2.4-1.45-4.35-1.15-1.8-3.55-3.25l-.6-.35h-.4" fill="#f9d3ff" transform="translate(23.65 18.25)"/><path d="m-10.65-.8-.7-.7-.95-1.85v.6l.25 2.55.4 1.05.8 1.9-.8-.3Q-14 1.3-16.4-1.85l-2.2-5-1.1-3.2 3.65-.05q3.7.05 7.25-1.4l1.55-.75.2-.1q.45-.25.65-.45l.15-.25.15-.05q3.25 0 3.25 6.75l-.1 2.25q-.3 1-1.15 2.4-1.3-.7-3.05-1.4l-.1-.05-2.95-1q-1-.2-.85 1.35l.1.6.05.45.25.95" fill="#361e5a" transform="translate(23.65 18.25)"/><path d="M-10.2 4.9h.05l-.15.1q-3.7 2.55-6.4 2.7l-1.05-.65q-3.5-2.15-4.95-6l1.65-.15 3.65-1.25-.05-.05h.05l.3.4q1.5 2.2 2.95 3.5 2.05 1.9 3.95 1.4" fill="#5729c4" transform="translate(23.65 18.25)"/><path d="M-18.35-1.8h.05l-.2-.4-.95-1.65q-2.8-5-1.2-7.75l.05-.05h.75l6.45-.3 2-.4 4.1-1.2.2-.1.45.5.25.35q-.2.2-.65.45l-.2.1-1.55.75q-3.55 1.45-7.25 1.4l-3.65.05 1.1 3.2 2.2 5q2.4 3.15 4.75 4.3l.8.3-.8-1.9-.4-1.05-.25-2.55v-.6l.95 1.85.7.7.1.2.4.9.4.9.1.25L-9.4 3q-.05 1.05-.8 1.9-1.9.5-3.95-1.4Q-15.6 2.2-17.1 0l-.3-.4h-.05l-.9-1.4" fill="#0d000f" transform="translate(23.65 18.25)"/></g><g id="k" transform="translate(74.3 56.25)"><use ffdec:characterId="20" height="112.5" transform="translate(-74.3 -56.25)" width="148.65" xlink:href="#n"/><use ffdec:characterId="21" height="30.45" transform="translate(-28 2.2)" width="38.95" xlink:href="#o"/></g><g id="n" fill-rule="evenodd"><path d="m141.65 49.3 1.05-1.3q-.25-.6-1.75-1.35-2-1.05-6.3-2.4l-5.5-1.6q-6.75-1.85-12.5-2.6l-2.5-.3-2.25-.05h-.2l-2.5.25-1.45.4q-.8 0-2.2 1.2l-1.4 1.2-.1.05.05-.1v-.05l4.55-7.75q3.2-5.75 4.6-9.25 1.4-3.5 4.05-13.45 1.2-4.75 1.25-7.25 0-2.1-.8-2.65h-.05l-1.75.55Q113.1 3.9 110 5.45l-7.1 3.95q-8.15 5.05-13.25 11.4l-7.8 9.1-1.15 1.25-1.25 1.25.5-2.05.35-1.7-.5-.35q-6.9-5-15.65-8.65Q55.35 16 47 17.15q-8.35 1.1-15.6 5l-4.95 3.3Q23 27.7 20.3 30.6q-4.7 4.9-5.1 6.2-4.2 6.85-6.75 13.9-2.9 8.1-3.05 17.2Q5.25 77 9 84.15q3.75 7.1 11.05 12.3 7.2 5.15 12.15 7.25 1.35.55 2.5 1.05l1.9.9q1.45.65 2.3 1.2l-1.95-16.8q-1.35-9.5-.6-10.8.7-1.25 3.65-3.8l4.2-3.65 1.05-.9L48 68.5q5-4.45 11.25-7.6 6.2-3.2 12.1-6.05 6-3 12.4-4.45l2.55-.4-1.05.45-1.4 1.1-.4.4-1.55.35.35.7 5 10.65 1.5 4q.9 3.5.8 10.55l-.35 9-.5 5.6-.05.35.55.45.3.15 1.2.2h.15l.55-.05.45-.15.45-.2 1.35-.95 1.75-1.55q2.65-2.65 3.15-2.75.45-.1 5.5 2.2 5 2.3 11.65 3.3l6.8.35 2.05-.3h.1l.95-.3.35-.15-.45-.05-.95-4-.4-1.55-.3-.95-.4-1.35-.25-.7-.85-2.35q-1.95-5-4.45-8.7-5.05-7.4-6.75-8l-1.95-.4-2.15-.1 2.15-.3 7.7-1.3 5.25-1.15q8-2 12.55-6.1l5.55-5.55 1.4-1.55M68.25 7.45Q69.8 7 71.6 5.7q2.65-1.95 6.9-2.45 4.2-.55 10.4 3.05 5.95 3.4 7.3 5.5 6.7-4.35 12.15-7.25 5.05-2.75 9.8-3.75l.2-.05q1.3 1 1.65 2.7.2.9.2 3.9 0 3.65-1.4 7.9-1.4 4.2-4.55 12.05-3.05 7.55-4.55 10.2l4.45.3 3.3.3q6.35.55 15.8 2.85 9.45 2.25 15.4 8.1l-4.4 5.35q-2.65 3.15-8.85 7.6l-2.6 1.65q-5.45 3.15-12.95 4.8 3.1 3.95 5.6 8.75l2.45 5.25.85 2.35.8 2.55q1.1 3.8 1.6 7.8-.2 1.3-1.55 2.5-1.15 1.05-5.1 1.35l-1.6.15-7.8-.25-5.9-1.35-9.65-3.3q-1.7 1.6-3.95 2.2-6.35 1.8-12.55.45l2.7-6.65.95-3.25q.8-3.35 1.1-7.55.4-6.4-1.7-13.4l-.75-2.4q-1.95-5.45-4.95-10.2h-.1q-5.95 2.1-11.45 4.9l-.15.1-1.5.75q-1.25.65-2.45 1.35l-1.25.75-1.4.85-.15.1-2.35 1.45q-4.5 2.8-8.75 5.95h-.05l-1.65 1.25-.7.55-2.15 1.65-2.1 1.6-5.75 4.65q.4 7.95 1.25 14.4l.3 2.3.1.75q.95 7 1.7 15.15-.3 1.15-.95 0l-.1-.2q-2.1-3.15-4.15-3.65l-.25-.05-3.25-.4-1.55-.05-3.55-.45-.85-.2q-7.05-3.15-16.05-11.5Q.1 85.3 0 70.35l.1-3.85q.05-5.7 1.6-11.35 1.25-4.75 3.05-8.5 3.35-7.05 6.95-12l.2-.3.25-.75 1.1-3.3q1.7-5.4 4.15-10.45 2.5-5.25 6.7-11.95 4.15-6.6 8.75-7.9h1.35q1.15-.5 6.9 11.65l3.3 4 9.8-.45 1.8.15 2.5.4 2.4.45.7.2 4.15 1.25.2.1.2.05.3.1q3.35 1.25 6.45 3l.25.15.1.05 2.4 1.45q3.2 2 6.15 5 1.8-3.3 3.95-6l2.75-3.1-1-.75 1.35-1.05 1.2.3q.6 0 2.35-1.8 1.75-1.75 1.75-2.25 0-1.05-2-2.5-1.2-.9-3.15-1.95l-.2-.1-1.3-.7L85 6.3l-1.45-.7q-1.75-.75-4-.75-2.4 0-4.7 1.1l-3.3 1.55-.75-.1-1.2-.05-1.35.1M26.8 23.6q2.65-1.8 6.25-3.8 3.35-1.85 3.2-3.55-.2-1.7-.75-2.75t-1.25-4.85q-.75-3.8-1.65-3.8l-.15.05q-1.4.55-6.95 9.4-5.8 9.35-6.5 14.2-.45 1.55 1.6-.2 2.05-1.8 5.05-3.9l1.15-.8" fill="#802003"/><path d="m79.95 30.35-.5 2.05 1.25-1.25q-1.85 5.7-1.65 8.5l.35 3.85q4.9-8.45 10.35-16.3 4.45-6.35 9.9-11.8 5.1-5.2 10.35-9.95 3.1-1.55 5.95-2.6l1.75-.55h.05q-4 7.2-8.3 13.8l-9.2 14q-4.8 7.15-11.8 15.3-8.65 2.5-14.95 5.7l-12.85 6.5q-6.2 3.05-9.6 5.45l-.35.25q-7.7 5-13 10.2-5.45 5.3-5.65 13.05-.25 7.7 1.2 13.05l.45 1.65q-3.95-2.65-8.65-6.3Q19.9 90.9 15.9 83.5q-3.85-7.05-3.55-15.7 1.25 1.75 3.65 2.45 5 1.45 10.15-2.65 5.1-4.1 8.25-12.15 3.15-8.1 1.65-13.8-1.5-5.75-5.6-7.25l-4.7.1 3.6-3.25q5.95 3.2 11.95 2.05 6-1.15 7.35-3 1.35-1.85 1.05-4.15-.35-2.3-1.95-4.1Q59.3 20.1 67.8 23.2q8.35 3 12.15 7.15m31.75 9.35h.2l2.25.05 2.5.3q5.75.75 12.5 2.6l5.5 1.6q4.3 1.35 6.3 2.4-4 .6-10.95 2.1-8 1.7-16.5 2.2-10.7 1.1-21.35-.25l3.4-1.35 4.7-3.3 2.2-1.45.6-.5.15-.15 2.4-.5q2-.5 6.1-3.75M85 6.3l2.5 1.35 1.3.7.2.1q-.3 1.2-2.4 2.45-2.55 1.45-4.55.85h-.25q-1.65-1.15-3.25-1.95 1.05-1.75 3.1-2.6 1.3-.6 3.35-.9m29.45 52.65q1.9.55-6 1.75l-12.2.65 2.45 2.3 9.05 8.65q4.9 4.7 8.9 10.15l.8 1.15.85 1.2 5.55 8q-7.05-2.6-12.9-7.55l-.5-.45-2.7-2.35q-4.05-3.65-7.8-7.8-4.5-5.05-7.45-11l-1.85-4.2 2.1.35 7 .55 9.45-.55.45-.05 4.8-.8M57.7 38q2.15 0 4.65-1.05 2.5-1.05 2.6-3 .1-1.95-1.5-3-1.65-1.1-5.3-.85l-.6.2h-.05q-1.6.15-2.95 1.8-1.2 1.5-1.2 2.7 0 1.05 1.35 2.1 1.45 1.1 3 1.1M26.8 23.6l-1.15.8q-3 2.1-5.05 3.9-2.05 1.75-1.6.2.7-4.85 6.5-14.2 5.55-8.85 6.95-9.4-1.95 4.05-3.7 10.8l-1.95 7.9" fill="#fffe29"/><path d="M140.95 46.65q1.5.75 1.75 1.35l-1.05 1.3q-7.65 3.5-15.55 6.4-5.65 2.05-11.65 3.25l-4.8.8-.45.05-9.45.55-7-.55-2.1-.35 1.85 4.2q2.95 5.95 7.45 11 3.75 4.15 7.8 7.8l2.7 2.35.5.45q5.85 4.95 12.9 7.55l1.65.55.1.2-.95.3h-.1l-2.05.3-6.85-1.45q-7-2-12.85-6.45l-4.5-3.8-2-1.95q-.6.9-1.05 1.95-1 2.05-1.6 4.7L92.3 91l-1.45 2.95h-.15l-1.2-.2-.3-.15-.55-.45.05-.35.5-5.6.35-9q.1-7.05-.8-10.55l-1.5-4-5-10.65-.35-.7 1.55-.35q7.6-1.65 13.4-4.25l3.4-1.65-4.7 3.3-3.4 1.35q10.65 1.35 21.35.25 8.5-.5 16.5-2.2 6.95-1.5 10.95-2.1M92.15 10.4q2 1.45 2 2.5 0 .5-1.75 2.25-1.75 1.8-2.35 1.8l-1.2-.3q-.8-.4-1.95-1.2l-1.25-.95 3.65-.6q2.1-.8 2.85-3.25v-.25" fill="#ffc46d"/><path d="m141.65 49.3-1.4 1.55-5.55 5.55q-4.55 4.1-12.55 6.1l-5.25 1.15-7.7 1.3-2.15.3 2.15.1 1.95.4q1.7.6 6.75 8 2.5 3.7 4.45 8.7l.85 2.35.25.7.4 1.35.3.95.4 1.55.95 4-1.65-.55-5.55-8-.85-1.2-.8-1.15q-4-5.45-8.9-10.15l-9.05-8.65-2.45-2.3 12.2-.65q7.9-1.2 6-1.75 6-1.2 11.65-3.25 7.9-2.9 15.55-6.4M122.5 94.15l-6.8-.35q-6.65-1-11.65-3.3-5.05-2.3-5.5-2.2-.5.1-3.15 2.75l-1.75 1.55-1.35.95-.45.2-.45.15-.55.05L92.3 91l1.35-3.85q.6-2.65 1.6-4.7.45-1.05 1.05-1.95l2 1.95 4.5 3.8q5.85 4.45 12.85 6.45l6.85 1.45m-39.05-42.2.4-.4 1.4-1.1L86.3 50l-2.55.4q-6.4 1.45-12.4 4.45-5.9 2.85-12.1 6.05Q53 64.05 48 68.5l-2.75 2.4-1.05.9-4.2 3.65q-2.95 2.55-3.65 3.8-.75 1.3.6 10.8l1.95 16.8q-.85-.55-2.3-1.2l-1.9-.9-1-3.5-.45-1.65q-1.45-5.35-1.2-13.05.2-7.75 5.65-13.05 5.3-5.2 13-10.2l.35-.25q3.4-2.4 9.6-5.45l12.85-6.5q6.3-3.2 14.95-5.7 7-8.15 11.8-15.3l9.2-14q4.3-6.6 8.3-13.8.8.55.8 2.65-.05 2.5-1.25 7.25-2.65 9.95-4.05 13.45t-4.6 9.25l-4.55 7.75v.05l-.1.15-.6.9-.2.2-.15.15-.6.5-2.2 1.45-3.4 1.65q-5.8 2.6-13.4 4.25m-51-47.05.15-.05q.9 0 1.65 3.8.7 3.8 1.25 4.85.55 1.05.75 2.75.15 1.7-3.2 3.55-3.6 2-6.25 3.8l1.95-7.9q1.75-6.75 3.7-10.8" fill="#fb9500"/><path d="M34.7 104.75q-1.15-.5-2.5-1.05-4.95-2.1-12.15-7.25-7.3-5.2-11.05-12.3Q5.25 77 5.4 67.9q.15-9.1 3.05-17.2Q11 43.65 15.2 36.8q.4-1.3 5.1-6.2 2.7-2.9 6.15-5.15l4.95-3.3q7.25-3.9 15.6-5 8.35-1.15 17.15 2.5Q72.9 23.3 79.8 28.3l.5.35-.35 1.7q-3.8-4.15-12.15-7.15-8.5-3.1-20.05-1.15 1.6 1.8 1.95 4.1.3 2.3-1.05 4.15-1.35 1.85-7.35 3t-11.95-2.05l-3.6 3.25q-2.15.75-4.5 2.8-5.15 4.45-7.7 11.8-2.6 7.3-2.6 13.5 0 3.25 1.4 5.2-.3 8.65 3.55 15.7 4 7.4 9.15 11.45 4.7 3.65 8.65 6.3l1 3.5m46-73.6 1.15-1.25 7.8-9.1q5.1-6.35 13.25-11.4l7.1-3.95q-5.25 4.75-10.35 9.95-5.45 5.45-9.9 11.8-5.45 7.85-10.35 16.3l-.35-3.85q-.2-2.8 1.65-8.5M71.55 7.5l3.3-1.55q2.3-1.1 4.7-1.1 2.25 0 4 .75l1.45.7q-2.05.3-3.35.9-2.05.85-3.1 2.6-3.65-1.9-7-2.3M57.7 38q-1.55 0-3-1.1-1.35-1.05-1.35-2.1 0-1.2 1.2-2.7 1.35-1.65 2.95-1.8h.05l.6-.2q3.65-.25 5.3.85 1.6 1.05 1.5 3-.1 1.95-2.6 3T57.7 38" fill="#fffffe"/><path d="M89 8.45q1.95 1.05 3.15 1.95v.25q-.75 2.45-2.85 3.25l-3.65.6-.35-.2-2.9-2.15-.6-.4h.25q2 .6 4.55-.85 2.1-1.25 2.4-2.45" fill="#cf4e00"/><path d="m68.25 7.45 1.35-.1 1.2.05.75.1q3.35.4 7 2.3 1.6.8 3.25 1.95l.6.4 2.9 2.15.35.2 1.25.95q1.15.8 1.95 1.2L87.5 17.7l-.1-.05q-3.95-2.9-7.35-4.9-3.85-2.3-6.1-3.05-2.3-.75-4.5-.8l-3.4.3q-1.15.3-3.15 1.6-2.05 1.05-3.7 2.05-2.4 1.45-3.2 2.5l-1.8-.15 5.5-4.3q3.75-3.05 8.55-3.45" fill="#2b2f64"/><path d="m87.5 17.7 1 .75-2.75 3.1q-2.15 2.7-3.95 6-2.95-3-6.15-5l-2.4-1.45.05-.05.45.1q8.2-1.75 8.2-3.75 0-1.25-2.1-2.45-1.9-1.15-3.25-1.15-3.9 0-4.9 1.85l-.05-.05q1-2.25-.3-3.4-1.1-.95-3.3-.95-1.95 0-4.7 1.25t-4.85 3.25l-2.5-.4q.8-1.05 3.2-2.5 1.65-1 3.7-2.05 2-1.3 3.15-1.6l3.4-.3q2.2.05 4.5.8 2.25.75 6.1 3.05 3.4 2 7.35 4.9l.1.05" fill="#4693d5"/><path d="m104.05 42.8.1-.05 1.4-1.2q1.4-1.2 2.2-1.2l1.45-.4 2.5-.25q-4.1 3.25-6.1 3.75l-2.4.5.2-.2.6-.9.05-.05" fill="#fb9602"/><path d="m40.1 96.8-.1-.75-.3-2.3q-.85-6.45-1.25-14.4l5.75-4.65 2.1-1.6 2.15-1.65.7-.55 1.65-1.25h.05q4.25-3.15 8.75-5.95l2.35-1.45.15-.1 1.4-.85 1.25-.75q1.2-.7 2.45-1.35l1.5-.75.15-.1q5.5-2.8 11.45-4.9h.1q3 4.75 4.95 10.2l.75 2.4q2.1 7 1.7 13.4-.3 4.2-1.1 7.55-5.25 5.25-11.75 8.75l-.95.55v-1.8q0-3.35-5.25-4.8l-7.15-1.55-7.2.75q-7.5.05-7.75-3.5l-.25-9.25q-1.45.95-2.65 3.05-1.55 2.7-1.55 4.8 0 4.7.45 7.85.45 3.55 1.7 7.2l-1.45-.6-2.8-1.65m14.95-21.15-.15.1v.05l.15-.15" fill="#250b37"/><path d="m66.45 17.9-.3-.1-.2-.05-.2-.1q-.45-.65-.45-2.05l.05-1.3.55-1.2h-.15l-2.3 1.25q-1.45 1-1.85 2.05l-.7-.2-2.4-.45q2.1-2 4.85-3.25 2.75-1.25 4.7-1.25 2.2 0 3.3.95 1.3 1.15.3 3.4v.15l.05-.1q1-1.85 4.9-1.85 1.35 0 3.25 1.15 2.1 1.2 2.1 2.45 0 2-8.2 3.75l-.45-.1L75 20q1.85-1.4 1.85-2.7l-.3-.7q-.35-.4-1-.4-.35 0-2.1.7l-2.25.8h-2.6l-2.15.2m-44 23.95-1.4 1.25q2.75 2.5 2.75 4.55 0 1.75-1.1 3.2-1.1 1.5-2.5 1.5-1.2 0-1.6-.4l-1.15-1.7q-2.05 4.3-1.7 9.4.35 5.05.6 6.15.25 1.05.95 1.5.7.4 2.2.6l3.6-.05q-3.3 1.7-6.55.8-4.5-1.3-4.5-6.95t2.3-12.3q2.3-6.75 6.85-10.85 4.55-4.15 8.2-2.75 3.15 1.1 4.6 5.2-3.2-3.15-6-3.15-1.6 0-4.05 2.4l-1.5 1.6m.85 12.4q.7.75.7 1.8t-.7 1.75q-.7.75-1.65.75T20 57.8q-.7-.7-.7-1.75t.7-1.8q.7-.7 1.65-.7t1.65.7" fill="#6bfbfc"/><path d="m73.15 21.05-.25-.15q-3.1-1.75-6.45-3l2.15-.2h2.6l2.25-.8q1.75-.7 2.1-.7.65 0 1 .4l.3.7q0 1.3-1.85 2.7l-1.7 1.05h-.15m-7.4-3.4L61.6 16.4q.4-1.05 1.85-2.05l2.3-1.25h.15l-.55 1.2-.05 1.3q0 1.4.45 2.05" fill="#beffda"/><path d="M15.75 59.65q1.85 1.85 4.4 1.85 3.35 0 5.55-4.45 2.2-4.5 2.15-9.1-.05-4.6-1.45-5.5-1.15-.8-3.95-.6l1.5-1.6q2.45-2.4 4.05-2.4 2.8 0 6 3.15l.2.65.2.7q1.3 5.2-1.5 12.6-2.8 7.4-7.35 11.2l-2.45 1.7-3.6.05q-1.5-.2-2.2-.6-.7-.45-.95-1.5-.25-1.1-.6-6.15" fill="#3d70d5"/><path d="M15.75 59.65q-.35-5.1 1.7-9.4l1.15 1.7q.4.4 1.6.4 1.4 0 2.5-1.5 1.1-1.45 1.1-3.2 0-2.05-2.75-4.55l1.4-1.25q2.8-.2 3.95.6 1.4.9 1.45 5.5.05 4.6-2.15 9.1-2.2 4.45-5.55 4.45-2.55 0-4.4-1.85m7.55-5.4q-.7-.7-1.65-.7t-1.65.7q-.7.75-.7 1.8t.7 1.75q.7.75 1.65.75t1.65-.75q.7-.7.7-1.75t-.7-1.8" fill="#193693"/><path d="M34 41q-1.45-4.1-4.6-5.2-3.65-1.4-8.2 2.75-4.55 4.1-6.85 10.85-2.3 6.65-2.3 12.3t4.5 6.95q3.25.9 6.55-.8l2.45-1.7q4.55-3.8 7.35-11.2 2.8-7.4 1.5-12.6l-.2-.7L34 41M12.35 67.8q-1.4-1.95-1.4-5.2 0-6.2 2.6-13.5 2.55-7.35 7.7-11.8 2.35-2.05 4.5-2.8l4.7-.1q4.1 1.5 5.6 7.25 1.5 5.7-1.65 13.8-3.15 8.05-8.25 12.15Q21 71.7 16 70.25q-2.4-.7-3.65-2.45" fill="#1f083e"/><path d="m55.05 75.65-.15.15v-.05l.15-.1" fill="#fff"/><path d="M74 96.3h-.1q-7.3 3.6-17 3.85-8.65.15-12.55-1.1-1.25-3.65-1.7-7.2-.45-3.15-.45-7.85 0-2.1 1.55-4.8 1.2-2.1 2.65-3.05l.25 9.25q.25 3.55 7.75 3.5l7.2-.75 7.15 1.55Q74 91.15 74 94.5v1.8" fill="#361e5a"/></g><g id="o" fill-rule="evenodd"><path d="M-5.65 9.7q.9 1.65 1.3 3.7Q-2.9 21-8.8 25.65q-6.45 5-13.95 2.55-1.6-.55-3-1.5.2 3.95 5.05 3.85 5.15-.1 9.55-1.2l6.05-1.55 4-.85 3.9-1.25q3.1-1.2 1-6.95Q2 13.85-1.1 10l-.55-.65-.2-.25-.4-.45-4.85-5.7 1.5-.75q.35.85 2.45 2.7L-.6 7.4l2.55 3.35q2.45 3.6 3.65 7 1.25 3.4 1 5.25h.6q2.35-2.35 3.75-4.55v.7q0 5.35-11.65 9.4l-.4.15q-6.45 2.2-11.6 3.2l-7.2.75q-7.5.05-7.75-3.5l-.35-12.3 2.15-1.65.15 6.25v3.3Q-23.4 27-18.15 27q4.8 0 8.25-2.2 4.2-2.75 4.2-7.95 0-3.55-1.05-5.9l-.55-1Q-8.75 7.5-12.2 5.9l1.4-.85q3.45 1.6 5.15 4.65" fill="#040e52" transform="translate(28 -2.2)"/><path d="m-1.85 9.1.2.25.55.65q3.1 3.85 4.9 8.75 2.1 5.75-1 6.95l-3.9 1.25-4 .85-6.05 1.55q-4.4 1.1-9.55 1.2-4.85.1-5.05-3.85 1.4.95 3 1.5 7.5 2.45 13.95-2.55Q-2.9 21-4.35 13.4q-.4-2.05-1.3-3.7l2.1-.4 1.7-.2m-13.2 6.95.5-.05q.75 0 1.25.45.55.5.55 1.15 0 .65-.55 1.1-.5.5-1.15.5h-.1q-.75 0-1.3-.5-.5-.45-.5-1.1 0-.65.5-1.15l.8-.4m-5.55 4.25-1 .1q-1.2 0-2.05-.7l-.2-.15q-.9-.85-.9-2.05 0-1.2.9-2.05l.8-.5q.65-.35 1.45-.35 1.3 0 2.2.85.95.85.95 2.05 0 1.2-.95 2.05-.55.5-1.2.75" fill="#fff" transform="translate(28 -2.2)"/><path d="m-1.85 9.1-1.7.2-2.1.4q-1.7-3.05-5.15-4.65l1.25-.75 2.45-1.35 4.85 5.7.4.45" fill="#d98fff" transform="translate(28 -2.2)"/><path d="M-12.2 5.9q3.45 1.6 4.9 4.05l.55 1q-2.8.45-3.85.85-2.35.85-4.5 2.8l-.05-2 .45-5.15L-12.35 6l.15-.1" fill="#2e3fb8" transform="translate(28 -2.2)"/><path d="m-14.7 7.45-.45 5.15.05 2 .05 1.45-.8.4q-.5.5-.5 1.15 0 .65.5 1.1.55.5 1.3.5h.1l.7 1.65.45.95-.05 1.05.05.25-.75.1-.7.05q-3.65 0-5.85-2.95.65-.25 1.2-.75.95-.85.95-2.05 0-1.2-.95-2.05-.9-.85-2.2-.85-.8 0-1.45.35l-.4-1.55q4.25-3.15 8.75-5.95" fill="#030852" transform="translate(28 -2.2)"/><path d="m-13.3 21.8.2-.95q.5-2.1 2.2-3.25 2.45-1.75 2.65 1.4.2 3.1-1.2 4.2-.7.55-1.3.75-.7.2-1.35 0-1.05-.3-1.2-.85l-.05-.25.05-1.05m2.6-7.65.2-.25.65-.3 1.45-.15q1.3 0 1.3 1.3-.05 1.3-.6 1.55l-1.4.2q-1.7 0-1.7-1.55l.1-.8" fill="#6bfbfc" transform="translate(28 -2.2)"/><path d="M-6.75 10.95q1.05 2.35 1.05 5.9 0 5.2-4.2 7.95-3.45 2.2-8.25 2.2-5.25 0-7.55-2.25v-3.3l2.05-1.75q.85.7 2.05.7l1-.1q2.2 2.95 5.85 2.95l.7-.05.75-.1q.15.55 1.2.85.65.2 1.35 0 .6-.2 1.3-.75 1.4-1.1 1.2-4.2-.2-3.15-2.65-1.4-1.7 1.15-2.2 3.25l-.2.95-.45-.95-.7-1.65q.65 0 1.15-.5.55-.45.55-1.1 0-.65-.55-1.15-.5-.45-1.25-.45l-.5.05-.05-1.45q2.15-1.95 4.5-2.8 1.05-.4 3.85-.85m-3.95 3.2-.1.8q0 1.55 1.7 1.55l1.4-.2q.55-.25.6-1.55 0-1.3-1.3-1.3l-1.45.15-.65.3-.2.25" fill="#3670b8" transform="translate(28 -2.2)"/><path d="m-25.7 21.45-.15-6.25.7-.55 1.65-1.25h.05l.4 1.55-.8.5q-.9.85-.9 2.05 0 1.2.9 2.05l.2.15-2.05 1.75" fill="#2e3fb5" transform="translate(28 -2.2)"/></g><use ffdec:characterId="2" height="42.7" width="63.5" xlink:href="#p" id="c"/><use ffdec:characterId="5" height="22.55" width="14.9" xlink:href="#q" id="m"/><use ffdec:characterId="8" height="95.7" width="143.85" xlink:href="#r" id="e"/><use ffdec:characterId="10" height="34.8" width="57.5" xlink:href="#s" id="f"/><use ffdec:characterId="12" height="54.1" width="100.6" xlink:href="#t" id="g"/><use ffdec:characterId="14" height="43.25" width="43.25" xlink:href="#u" id="h"/><use ffdec:characterId="16" height="25.95" width="42.7" xlink:href="#v" id="i"/><use ffdec:characterId="18" height="36.5" width="47.3" xlink:href="#w" id="j"/><path d="M27.75 0q0 2-8.15 3.4Q11.5 4.9 0 4.9q-11.5 0-19.65-1.5-8.1-1.4-8.1-3.4 0-2.05 8.1-3.5Q-11.5-4.9 0-4.9q11.5 0 19.6 1.4 8.15 1.45 8.15 3.5" fill-opacity=".349" fill-rule="evenodd" transform="translate(27.75 4.9)" id="b"/><path d="M-8.75-15.4q10.55-5.95 17.4-5.95 14.4 0 19.55 6.7Q31.75-10 31.75.45q0 6.05-2.7 7.75l-3.2 1.45Q23.4 10.7 21.55 12l-8.95 6.4q-5.45 2.95-14.2 2.95l-11.5-.6q-5.1-.55-8.15-1.55-2.55-.85-6.65-6.95-3.05-4.55-3.85-7.45l5.45-6.05 5.45-5.8q4.3-3.9 12.1-8.35" fill="#0d000f" fill-rule="evenodd" transform="translate(31.75 21.35)" id="p"/></defs></svg>