<svg xmlns:ffdec="https://www.free-decompiler.com/flash" xmlns:xlink="http://www.w3.org/1999/xlink" ffdec:objectType="frame" height="90" width="90" xmlns="http://www.w3.org/2000/svg"><use ffdec:characterId="40" height="253.9" transform="matrix(.3645 0 0 .3649 10.443 -3.43)" width="234.9" xlink:href="#a"/><defs><g id="a" transform="translate(-28.65 9.4)"><use ffdec:characterId="1" height="9.8" transform="matrix(2.3997 0 0 4.521 52.06 200.097)" width="55.5" xlink:href="#b"/><use ffdec:characterId="7" height="461.45" transform="translate(55.5 .3) scale(.1767)" width="743.2" xlink:href="#c"/><use ffdec:characterId="13" height="622.25" transform="translate(121.849 27.913) scale(.1767)" width="752.25" xlink:href="#d"/><use ffdec:characterId="15" height="190.95" transform="translate(116.35 98.85) scale(.1767)" width="101.05" xlink:href="#e"/><use ffdec:characterId="17" height="200.45" transform="translate(98.35 139.6) scale(.1767)" width="214.35" xlink:href="#f"/><use ffdec:characterId="19" height="274.35" transform="translate(72.15 179.95) scale(.1767)" width="102.05" xlink:href="#g"/><use ffdec:characterId="21" height="342.9" transform="translate(58.7 128.8) scale(.1767)" width="169.25" xlink:href="#h"/><use ffdec:characterId="23" height="264.8" transform="translate(112.25 165.9) scale(.1767)" width="136.7" xlink:href="#i"/><use ffdec:characterId="25" height="400.2" transform="translate(62.75 89.75) scale(.1767)" width="540.25" xlink:href="#j"/><use ffdec:characterId="27" height="299.7" transform="translate(155.2 169.2) scale(.1767)" width="156.7" xlink:href="#k"/><use ffdec:characterId="29" height="192.6" transform="translate(121.15 91.65) scale(.1767)" width="246.85" xlink:href="#l"/><use ffdec:characterId="31" height="302.55" transform="translate(129.35 123.85) scale(.1767)" width="218.05" xlink:href="#m"/><use ffdec:characterId="33" height="504.7" transform="translate(58 51.5) scale(.1767)" width="411.45" xlink:href="#n"/><use ffdec:characterId="35" height="300.9" transform="translate(68.5 184.05) scale(.1767)" width="169.7" xlink:href="#o"/><use ffdec:characterId="37" height="326.15" transform="translate(84.65 133.45) scale(.1767)" width="202.8" xlink:href="#p"/><use ffdec:characterId="39" height="110.1" transform="translate(128 109.95) scale(.1767)" width="316.85" xlink:href="#q"/></g><g id="t" fill-rule="evenodd"><path d="M732.15 66v-.1q3-14.15 5.1-29.45Q686.1 157.35 595.7 179.2l-4.9 1.1-17.45.75-11.1-.15q-52.25-2.1-94.1-27.65l-26.35-4.3q-26.25-3.65-50.35-4.3-76.15-2.2-130.6 25.1 3.7 32.85-7.4 60.15l-8.6 3.45q7.1-15.8 8.4-34.4.4-5.95.25-12.15l-.15-4-53.05 15.5q14.75 18.45 13.55 38.55l-7.5.2q-2.05-21.4-17.6-42.75l64.1-18-3.5-13.55q64.85-26.35 141.2-28.05 22.2-33.95 23.55-83.1 28.3 34.1 25.55 87.6l34.05 6.05q132.8 71.35 214.3-38.6Q723.1 65.05 740.55 0q20.9 157.25-122.7 229.55-79.5 21.45-180.75-9.7-7.75-3.25-15.3-5.45-14.15 18.7-31 25.2h-.05q-22.65-10.9-55.15-11.75-5.65 3.85-11.1 8.55l-10 .95q61-59.4 129.15-23.05 83.4 26.95 172.75 8.5Q706.65 185.45 732.15 66m-331 102.75q18.45-7.35 39-13 25.75 2.8 54.1 16l50.55 16.05-9.6-2.3-10.6-2.6-27.15-6.55-2.2-.55q-26.65-12.45-49.1-15.05-88.45 17.9-140.1 77.4l-5.25.5q25.2-30 61.55-51.1l3.75-2.15q16.45-9.2 35.05-16.65m23.4-31.15 5.6.6q1.8-36.7-11.05-62.6l-.35 2.7q-4.55 33.75-20.15 56.4l4.45.5 21.5 2.4m-25.25 72.6-10.75-.3q-21.3.55-40.75 10.6l45.25 11.3 23.6-18.75-4.15-.95q-6.7-1.4-13.2-1.9M35.95 288.3q-4.95-28.8-32-40.95-15.6-88.55 30.55-126.2-12.85 63.65 31.55 91.65l33.2 43.2-2.1 1.85-9-1.5-25.75-37.4-1.85-2.65-5.75-2.95q-20.2-11.5-27.3-33.45-4.95-15.3-3.55-35.65l.05-.55-.3.55q-4.65 7.95-7.9 16.15-15.1 37.85-.3 79.45 18.15 19.05 31 44.8l-10.55 3.65" fill="#331215"/><path d="M595.7 179.2q90.4-21.85 141.55-142.75-2.1 15.3-5.1 29.45v.1q-6.6 20.95-14.95 39.8l-32.75 32.9 6.55 5.5h-14.05l-16 14.15h26.65l-6.6 8.9-45.6-.05-4.5 4.05q10.3 12.05 11.05 26-6.8-15.1-22.05-23.5l-10 4.5 6 25.55-20.2-24.6m-33.45 1.7 11.1.15-.05 24.75-11.05-24.9M420.3 84.4q6.55 27.3 4.25 53.2l-21.5-2.4q14.35-16.8 17.25-50.8" fill="#b74b3d"/><path d="m441.8 148.95 26.35 4.3q41.85 25.55 94.1 27.65l11.05 24.9.05-24.75 17.45-.75 4.9-1.1 20.2 24.6-6-25.55 10-4.5q15.25 8.4 22.05 23.5-.75-13.95-11.05-26l4.5-4.05 45.6.05q-5.55 7.25-11.55 14l-12.6-4.75 9.1 8.75q-27.85 29-65.1 35.55l-6-12.5-8.55 15.75q-20.5 4.7-41 2.75l2-14.5.45-8-17.4 21.85q-15.95-.5-31.2-2.5 19.8-12.05 36.05-38.15l9.6 2.3-50.55-16.05q-28.35-13.2-54.1-16-20.55 5.65-39 13-53.3-.95-111.75 35.55v-32.05l21-5.55 131.4-17.75m245.8 9.4h-26.65l16-14.15H691l-6.55-5.5 32.75-32.9q-12.75 28.7-29.6 52.55" fill="#693135"/><path d="M732.15 66q-25.5 119.45-115.75 156.8-89.35 18.45-172.75-8.5-68.15-36.35-129.15 23.05l-4.45.4 24.9-25.45q53.1-40.1 111.35-1.55l2.35 1.55 8.95 2.75q12.2 3.45 24.85 5.9l16.7 2.7q15.25 2 31.2 2.5l9.9.15 7.05-14-2 14.5q20.5 1.95 41-2.75l8.55-2.25v-13.5l6 12.5q37.25-6.55 65.1-35.55l-9.1-8.75 12.6 4.75q6-6.75 11.55-14l6.6-8.9q16.85-23.85 29.6-52.55 8.35-18.85 14.95-39.8m-339.1 165.8 9.7-9.85 9.75-9.85 4.15.95-23.6 18.75M301.5 440.45l-5.25 2.5q46.25-105.15 22.1-141.75l10.6 6.75q16.05 38.3-27.45 132.5M154.8 371q-18.35-4.65-35.15-12.45-40.35-18.5-74.6 6l-2.05-1.2q32.4-28 75.15-10.35l4.05 2 32.6 16m-139-210.6q-3.5 39.9 3.2 75.4 22.05 18.9 30.3 47.85l-2.8 1q-12.85-25.75-31-44.8-14.8-41.6.3-79.45" fill="#7ed1ed"/><path d="m547.3 212.3-7.05 14-9.9-.15 17.4-21.85-.45 8m-48.15 11.35-16.7-2.7q23.3-12.2 42.15-38.05l10.6 2.6q-16.25 26.1-36.05 38.15m-41.55-8.6-8.95-2.75-2.35-1.55 48.95-34.95 2.2.55q-16.3 23.4-39.85 38.7" fill="#4d1e20"/><path d="M482.45 220.95q-12.65-2.45-24.85-5.9 23.55-15.3 39.85-38.7l27.15 6.55q-18.85 25.85-42.15 38.05" fill="#6a3135"/><path d="M594.85 208.3v13.5l-8.55 2.25 8.55-15.75" fill="#4b1c20"/><path d="m418.75 78.3.35-2.7q12.85 25.9 11.05 62.6l-5.6-.6q2.3-25.9-4.25-53.2l-1.55-6.1" fill="#7bcae6"/><path d="M213.85 236.85q1.2-20.1-13.55-38.55l53.05-15.5.15 4-36.5 14.35-4.2 1.65q7.65 17 6 34l-4.95.05m39.6-6.95q11.1-27.3 7.4-60.15 54.45-27.3 130.6-25.1-64.15 6.65-123.55 27.6 10.75 25.05 0 51.8l-14.45 5.85m108.9-42.35q-36.35 21.1-61.55 51.1l-9.35.85q29.95-36.4 70.9-51.95m56.4-109.25 1.55 6.1q-2.9 34-17.25 50.8l-4.45-.5q15.6-22.65 20.15-56.4m-141.6 159-37.75 20.2 33-30.45 11-4.7-6.25 14.95m-48.35 4.05-5 4.05-111.4 18.25q58.2-21.05 116.4-22.3M92.3 262.9q-6.8 16.3-25.25 23.55v-8.55l4 2 9.55-10 2-10.5 9.7 3.5m-32.25 22.5L21 308.5l-3.55 13.45-5.4 4.15 2.45-23.65 45.55-17.05M68.8 274l-23.75-42.2q-36-37.15-21.35-87.55h.25q-1.4 20.35 3.55 35.65.15 22.2 17.05 44.4l4.15 5.15 28.4 35.1-1 4.85-6 5.5-1.3-.9m-14-60.65 5.75 2.95 1.85 2.65-13.1 8.9 5.5-14.5" fill="#fff"/><path d="m388.55 209.9 10.75.3 3.45 11.75-9.7 9.85-4.5-21.9" fill="#71391a"/><path d="m366.1 185.4-3.75 2.15q-40.95 15.55-70.9 51.95l-9.05.85 8.5-25.55-2.25.9q35.25-29.45 82.9-41.95l-5.45 11.65M217 201.15q4.05 2.25 6.95 5.95 4.8 6.15 6.4 16.2l-6 13.55-5.55-.05q1.65-17-6-34l4.2-1.65" fill="#e9bb1f"/><path d="m314.5 237.35 10-.95 21.95-2.05-6 5.5q26.1-1.5 50.3-.25h.05q29.85 1.55 56.8 7.25-24.1 43.85-70.1 73.1l-39.05-9.5Q351 354.9 307.9 437.15l-6.4 3.3q43.5-94.2 27.45-132.5l-10.6-6.75-18.45-11.75q35.45 18.05 73.6 20 38.15-22.3 62.1-57.05l-2.45-.3-18.15-1.8-1.95-.15-2.35-.15-26.55-1q-46.8-.25-94.2 9.65l35-14.8h-50.6l2.8-6.55 6.25-14.95-11 4.7-31.1 13.3-7-17.5-5.5 18.5q-58.2 1.25-116.4 22.3l-4.8 1.75v-9l-12.5 7.5-2.8-1-9.7-3.5-2 10.5-9.55 10-4-2-4-2-3 9.5-45.55 17.05-2.45 23.65-1.55 14.4 22-30.05L16 347l4.95 3 18.25 11.05 3.8 2.3 2.05 1.2q34.25-24.5 74.6-6 16.8 7.8 35.15 12.45 11.9 2.95 24.5 4.65 19.9 2.6 41.5 1.9-30.7 7.6-61.95 1.25-11.05-2.25-22.15-6.25l-62.6-14.5-31.05 14.5-40.05-25 3.5-49.1 29.45-10.15 10.55-3.65 2.8-1 9.25-3.2 3.55-11.05 6.7 4.6 1.3.9 6-5.5 1-4.85 2-9.7 9.05 1.5 9 1.5 2.1-1.85 12.4-11.15 3 9.5q44.25-15.55 91.7-17.3l7.5-.2 4.95-.05 5.55.05 6-13.55 3.5-8 11 18.05 8.6-3.45 14.45-5.85 20.75-8.35 2.25-.9-8.5 25.55 9.05-.85 9.35-.85 5.25-.5 4-.4 4.45-.4m73.5 14.4q-31 3.7-51.55 15.6 8.35 2.05-2.5 11.05 7.9 7.3-18 7.5l9.85-2.8 4.15-1.2-4.5-3.5 7.5-6.5-6.95 1.7-30.1 7.3q32.85-24.05 92.1-29.15" fill="#511c1a"/><path d="m388 251.75 9.05-.75 13.6-.6q-19.55 2.1-27.65 7.45-1.6 27.85-45.05 36.75-12.6-2.4-22-8.7 25.9-.2 18-7.5 10.85-9 2.5-11.05 20.55-11.9 51.55-15.6" fill="#6d2f2c"/><path d="m410.65 250.4-13.6.6-9.05.75q-59.25 5.1-92.1 29.15l30.1-7.3-9.05 6.3 8.85 3.2-9.85 2.8q9.4 6.3 22 8.7 15.95 3.05 37.05-.2 32.05-11.35 32.55-37.55l25.6-4.75 2.45.3q-23.95 34.75-62.1 57.05-38.15-1.95-73.6-20l-11.5-7q32.45 53-6.35 151.45l-16.2-78.85q5.1-23.95-7-45.05-14.05 44.7-62.45 61l15.9-22.95-14.05-3.5q36.05-22.65 41.15-53.95.7-4.4.8-9 .25-10.65-2.85-22.2l2.05-1.9 37.75-20.2-2.8 6.55h50.6l-35 14.8-.1.05 6.05 8.65L384.15 249l26.55 1-.05.4" fill="#ce8344"/><path d="M296.25 442.95q-5.7 2.65-11.3 4.95-67.1 27-128.75.25l2.65-69.35q31.25 6.35 61.95-1.25-21.6.7-41.5-1.9l11.1-2.8 6-1.85q48.4-16.3 62.45-61 12.1 21.1 7 45.05l16.2 78.85q38.8-98.45 6.35-151.45l11.5 7 18.45 11.75q24.15 36.6-22.1 141.75m41.7-148.35q43.45-8.9 45.05-36.75 8.1-5.35 27.65-7.45l2.4-.05 1.95-.05 18.15 1.8-25.6 4.75q-.5 26.2-32.55 37.55-21.1 3.25-37.05.2" fill="#934a38"/><path d="m388.55 209.9 4.5 21.9-45.25-11.3q19.45-10.05 40.75-10.6" fill="#b84a24"/><path d="m402.75 221.95-3.45-11.75q6.5.5 13.2 1.9l-9.75 9.85" fill="#a64029"/><path d="M391.45 144.65q24.1.65 50.35 4.3L310.4 166.7l-21 5.55v32.05q58.45-36.5 111.75-35.55-18.6 7.45-35.05 16.65l5.45-11.65q-47.65 12.5-82.9 41.95l-20.75 8.35q10.75-26.75 0-51.8 59.4-20.95 123.55-27.6" fill="#cd672c"/><path d="M446.3 210.75q-58.25-38.55-111.35 1.55l-24.9 25.45-4 .4q51.65-59.5 140.1-77.4 22.45 2.6 49.1 15.05l-48.95 34.95" fill="#86382f"/><path d="M253.5 186.8q.15 6.2-.25 12.15l-29.3 8.15q-2.9-3.7-6.95-5.95l36.5-14.35" fill="#d26d28"/><path d="m241.3 240.35-9 6.55 2-24.05 7 17.5" fill="#ce8542"/><path d="m239.4 257.5-2.05 1.9q3.1 11.55 2.85 22.2-47.6 69.1-120.05 2.8l-84.1 26.55L20.95 350 16 347l16.5-36.55-15.05 11.5L21 308.5l39.05-23.1 3-9.5 4 2v8.55Q85.5 279.2 92.3 262.9l2.8 1 12.5-7.5v9l4.8-1.75 111.4-18.25 5-4.05 5.5-18.5-2 24.05 9-6.55 31.1-13.3-33 30.45" fill="#f9cb59"/><path d="M253.25 198.95q-1.3 18.6-8.4 34.4l-11-18.05-3.5 8q-1.6-10.05-6.4-16.2l29.3-8.15" fill="#d1591d"/><path d="m384.15 249-88.25 18.35-6.05-8.65.1-.05q47.4-9.9 94.2-9.65m-58.35 34.1-8.85-3.2 9.05-6.3 6.95-1.7-7.5 6.5 4.5 3.5-4.15 1.2" fill="#e79f73"/><path d="M240.2 281.6q-.1 4.6-.8 9-29.1 36.8-70.2 33.9 9.8 7.2 27.05 4-16.9 18.95-16 32.55l15.5-6.5-5.35 18.3-11.1 2.8q-12.6-1.7-24.5-4.65l-32.6-16-3.8-2.4q-43.6-26.25-79.2 8.45L20.95 350l15.1-39.05 84.1-26.55q72.45 66.3 120.05-2.8m-102.25 29.95q0-1.5-1.1-2.6-1.05-1.05-2.55-1.05-1.5 0-2.6 1.05-1.05 1.1-1.05 2.6t1.05 2.55q1.1 1.1 2.6 1.1t2.55-1.1q1.1-1.05 1.1-2.55m16.75 7.15q0-2.4-1.25-4.1-1.25-1.65-3-1.65t-3 1.65q-1.25 1.7-1.25 4.1 0 2.4 1.25 4.05 1.25 1.7 3 1.7t3-1.7q1.25-1.65 1.25-4.05" fill="#e4af26"/><path d="M239.4 290.6q-5.1 31.3-41.15 53.95l14.05 3.5L196.4 371l-6 1.85 5.35-18.3-15.5 6.5q-.9-13.6 16-32.55-17.25 3.2-27.05-4 41.1 2.9 70.2-33.9m-101.45 20.95q0 1.5-1.1 2.55-1.05 1.1-2.55 1.1-1.5 0-2.6-1.1-1.05-1.05-1.05-2.55 0-1.5 1.05-2.6 1.1-1.05 2.6-1.05t2.55 1.05q1.1 1.1 1.1 2.6m16.75 7.15q0 2.4-1.25 4.05-1.25 1.7-3 1.7t-3-1.7q-1.25-1.65-1.25-4.05t1.25-4.1q1.25-1.65 3-1.65t3 1.65q1.25 1.7 1.25 4.1" fill="#ffed01"/><path d="M15.8 160.4q3.25-8.2 7.9-16.15-14.65 50.4 21.35 87.55L68.8 274l-6.7-4.6-3.55 11.05-9.25 3.2Q41.05 254.7 19 235.8q-6.7-35.5-3.2-75.4" fill="#93322f"/><path d="m62.4 218.95 25.75 37.4-9.05-1.5-2 9.7-28.4-35.1.6-1.6 13.1-8.9" fill="#c45c33"/><path d="M27.5 179.9q7.1 21.95 27.3 33.45l-5.5 14.5-.6 1.6-4.15-5.15q-16.9-22.2-17.05-44.4" fill="#b84c3c"/><path d="m43 363.35-3.8-2.3q35.6-34.7 79.2-8.45l-.25.4Q75.4 335.35 43 363.35" fill="#c67451"/><path d="m17.45 321.95 15.05-11.5-22 30.05 1.55-14.4 5.4-4.15" fill="#c47153"/><path d="M220.15 286.3q3.35-7.8 3.65-17.9-12.15-.95-24.55-.55 2.9 6.05 4 11.5 3.6 18.7-14 30.6 23.25-6.1 30.9-23.65m24.65-13.9-16-2.5q.1 4.25-.45 8.15-3.4 24.65-32.6 35.4-35.05 6.35-49.1-18h-7l2.75-4.05 10.8-16-12.45-4.05q83.6-14.25 104.05 1.05m-79.6 34.4q7.75 3.25 18.05 3.35 15.6-10.45 14.6-27.35v-.3l-.1-.7q-.55-6.45-3.45-13.75-17.3.9-35.1 4.35l-11 18.5q5.85 11.2 17 15.9"/><path d="M228.35 278.05q.55-3.9.45-8.15l16 2.5-16.45 5.65m-87.6-6.7 12.45 4.05-10.8 16-1.25-13-6.5-6 6.1-1.05" fill="#ca7c4a"/><path d="M203.25 279.35q-1.1-5.45-4-11.5 12.4-.4 24.55.55-.3 10.1-3.65 17.9l-16.9-6.95" fill="#a8b3de"/><path d="M157.55 287.15q-2.1 8.15 7.65 19.65-11.15-4.7-17-15.9l11-18.5q17.8-3.45 35.1-4.35 2.9 7.3 3.45 13.75-.4-1.45-2.5-2.55-2.55-1.35-6.2-1.35l-2.9.25q-.9-1.75-2.35-3.2-3.4-3.4-8.25-3.4t-8.3 3.4q-2.75 2.8-3.25 6.5l-.5-.05q-2.4 0-4.1 1.7-1.4 1.4-1.65 3.3l-.2.75" fill="#0170b4"/><path d="m203.25 279.35 16.9 6.95q-7.65 17.55-30.9 23.65 17.6-11.9 14-30.6m-5.4 3.45q-.2 1.7-2.6 2.95-2.55 1.35-6.2 1.35l-2.35-.15q-2.2-.3-3.9-1.2-2.55-1.35-2.55-3.25t2.55-3.25q1.5-.75 3.35-1.1l2.9-.25q3.65 0 6.2 1.35 2.1 1.1 2.5 2.55l.1 1m-13.15 7.75q1.05.25 1.85 1.05 1.2 1.2 1.2 2.85 0 1.65-1.2 2.8-1.15 1.2-2.8 1.2t-2.85-1.2q-1.15-1.15-1.15-2.8v-.25q.1-1.5 1.15-2.6 1.2-1.15 2.85-1.15l.95.1m-17.4 1.05q-1.6 1.4-3.8 1.4-2.4 0-4.1-1.7-1.7-1.7-1.7-4.1l.05-.8q.25-1.9 1.65-3.3 1.7-1.7 4.1-1.7l.5.05q2.05.1 3.6 1.65 1.7 1.7 1.7 4.1 0 2.4-1.7 4.1l-.25.3-.1-.1.05.1" fill="#fff"/><path d="m186.7 286.95 2.35.15q3.65 0 6.2-1.35 2.4-1.25 2.6-2.95 1 16.9-14.6 27.35-10.3-.1-18.05-3.35-9.75-11.5-7.65-19.65l.15.05q0 2.4 1.7 4.1 1.7 1.7 4.1 1.7 2.2 0 3.8-1.4h.05q3.4 3.35 8.2 3.35 2.25 0 4.15-.7l.05.2q0 1.65 1.15 2.8 1.2 1.2 2.85 1.2 1.65 0 2.8-1.2 1.2-1.15 1.2-2.8t-1.2-2.85q-.8-.8-1.85-1.05 1.35-1.65 2-3.6" fill="#04f6dc"/><path d="M186.7 286.95q-.65 1.95-2 3.6l-.95-.1q-1.65 0-2.85 1.15-1.05 1.1-1.15 2.6l-.05.05q-1.9.7-4.15.7-4.8 0-8.2-3.35l.25-.3q1.7-1.7 1.7-4.1 0-2.4-1.7-4.1-1.55-1.55-3.6-1.65.5-3.7 3.25-6.5 3.45-3.4 8.3-3.4 4.85 0 8.25 3.4 1.45 1.45 2.35 3.2-1.85.35-3.35 1.1-2.55 1.35-2.55 3.25t2.55 3.25q1.7.9 3.9 1.2" fill="#013281"/></g><g id="d" transform="translate(6.8 84.25)"><clipPath id="r"><path d="M601.8-68.95Q718.7-30.2 740.9 83.65q3.45 17.65 4.25 35.45.55 10.8.15 21.8-1.2 30.15-9.7 61-3.95 14.1-9.3 28.3-16.95 44.45-48.8 90.1-85.6 122.6-228.65 181.8-143.1 59.35-260.1 20.65Q71.85 484.05 49.7 370q-22.15-113.9 63.45-236.55 85.55-122.6 228.6-181.9 143.1-59.25 260.05-20.5" fill-rule="evenodd"/><path d="M601.8-68.95Q718.7-30.2 740.9 83.65q3.45 17.65 4.25 35.45.55 10.8.15 21.8-1.2 30.15-9.7 61-3.95 14.1-9.3 28.3-16.95 44.45-48.8 90.1-85.6 122.6-228.65 181.8-143.1 59.35-260.1 20.65Q71.85 484.05 49.7 370q-22.15-113.9 63.45-236.55 85.55-122.6 228.6-181.9 143.1-59.25 260.05-20.5z" fill="none" stroke="red" stroke-linecap="round" stroke-linejoin="round" stroke-width=".05"/></clipPath><g clip-path="url(#r)"><use ffdec:characterId="9" height="532.35" width="548.05" xlink:href="#s"/></g></g><g id="s" fill-rule="evenodd"><path d="M.5 413.1q-.4-3.65-.5-7.5 95.05-86.2 82.1-113.7-50.3-49 31.55-81.1 61 1.45 51.1-34.55Q218.3 273.3 153.7 278.4q5.8 20.8 44.1-2.5 17.9-17.1 26.05-42.55l49.55-27.55 13.05 14.5q24.7-18.95 17.95-53.05-.95-14.55-15.5-14-26.35 19.3-42.05-9.55 3.35-41.95 64.6-42.05 54.35 17.9 55.55 69.1-5.6 40.25 25.05 13.05 9.45-21.3-3.5-42.6l10.5-19q-38.5-28.9 17.05-66.1 47.3-19 84.15-6.5 47.9 2.85 18.5-49.6 44.4 26.75 21.55 69.6-9.4 7.65-20.55-2-48.1-14.9-61.05 33.55-5.35 25.9 36.55 40.05 66.75 63.05 23 118.7-30.2 34.75-86.1-14.05-72.55 6.55-74.15 68.6l21.55 2.5q70.75-3.75 80.1 37.6 4.65 22.3 24.05-5.55-7.55 55.1-58.1 45.6l-9-19.55q-16.8-4.05-36.55 8-6.75 23.65-35.05 39.1-14.2 33.65 3 15 32.5 19.45-3.5 63.6-67.4 68.7-225.3-12.05L244 518.25l12.9 3.05q23.2-1.4 40.9-5.1 73.55-15.7 51.2-72.55-26.9 23.7-19-12l2.15-3.5L343 410.1q18.95-5.05 25.05-21.5l-5-1.5-5-1.5q7.3-5.15 14.75-9 22.45-11.75 46.3-12.05l13.55 19.55q23.25 12.6 36.55-10.55l-2.6-.85q-16.05-6.1-14.95-23.15-11.75-27.9-63.4-26.85l-7.6.3-7.1.5q-33.15-.65-21.4-31.55l.05-.05q3.1-8.2 9.35-18.5 43.05-47.3 81.6-31.05 52.1 46.3 76.6 0 7.5-18.3 6.85-34.8-1.4-33.35-36.15-59.25l-3.7-2.65-3.55-2.45q-9-6.05-15.5-12-2.85-2.6-5.15-5.15l-2.05-2.3Q430.75 88.2 490.2 55.6l-8-.5q-23.4-1.25-40.4 1.6-10.1 1.65-17.95 4.75-30.7 12.05-27.3 45.7 16.5 11.55 9.05 26.55-6.75 14.7 2 25.55 2.55 5 3.55 9.65 5 23.65-30.1 38.9l-3.45.25-3.9-.05-5.35-.7-.35-.05q-24.5-5.65-12.5-49.5-8.9-56.5-76.6-42.6-14.35 10.55-20.4 17.65h-.05l-.05.05q-16.45 19.3 28.5 12.85 24.25 3.15 27.85 24.55 1.2 7.45-.05 17.2-1.15 8.55-4.25 18.85-24 37.3-37.05 20.55 6.4-9.65 0-12l-23.45 11.3-4.25 2.05-12.85 6.15-2.05 5.95q-2.5 6.6-5.5 12.55-12.15 24-32.55 36.1l-6.65 2.55q-6.9 2.45-12.6 3.85-19.65 4.7-25.25-3.35l-.3-.5-.1-.15-.05-.05q-4-6.9.9-21.9 49.9-5.1 22.05-72.6l-.6.8q-22.6 28.3-56.5 22.75Q57.25 244 76.5 270.2l3.1 3.7.9 1.2.9 1.15.55.75.15.25 11.05 14.7Q90.4 338.85.5 413.1m517.75-358q23.3 20.7 21.05-15.5-7.05 16.4-21.05 15.5" fill="#7b213b"/><path d="M490.45 148.3q34.75 25.9 36.15 59.25-12.65 63.9-53.4 46.85l-36.15-19.2q3.25-6.2 5.65-13.25 25.35 41.1 63.05 20.4 28.2-30.3-7-70.6 9.45 31.7-13.05 46.85-25.3 17.45-41.9 0 3.85-13 4.85-28.8 26.9-10.1 41.8-41.5m27.8-93.2q14 .9 21.05-15.5 2.25 36.2-21.05 15.5" fill="#e84471"/><path d="m482.2 55.1 8 .5q-59.45 32.6-29.7 68.15-30.3-34.6 11.15-62.35l.55-.35q4.6-3.05 10-5.95m44.4 152.45q.65 16.5-6.85 34.8-24.5 46.3-76.6 0-38.55-16.25-81.6 31.05-6.25 10.3-9.35 18.5 2.7-10.05 6.7-18.35 1.8-3.7 3.85-7.05 11.25-18.7 30.2-27 3.45-1.55 7.2-2.7 11.7-3.75 26-4l6.5.05 4.4 2.35 36.15 19.2q40.75 17.05 53.4-46.85" fill="#65e6ec"/><path d="M441.8 56.7q17-2.85 40.4-1.6-5.4 2.9-10 5.95l-.55.35q-69.85 34.9-3.95 69.8 6.5 5.95 15.5 12l3.55 2.45q-14.25 27.85-39.6 37.65-7.15-19.75-14.5-37.55-22.55-48.3 9.15-89.05" fill="#ea4173"/><path d="M76.5 270.2q-19.25-26.2 37.15-49.85 33.9 5.55 56.5-22.75l.85 2.75q-17.8 29.6-56.35 25.5-7.45 35.9-35.05 27.55l-3.1 16.8m97 25.15q5.7-1.4 12.6-3.85-16.85 39.45-48.6 63.85l-4.3 2.65q1.6-7.4 2.65-14.1L137 335q22.45-10.65 36.5-39.65m51.8-42.5q3-5.95 5.5-12.55 21.55 38.3 7.2 82.4l-16.55 1.6q18.35-42.45 3.85-71.45m33.2-120.05q6.05-7.1 20.4-17.65 67.7-13.9 76.6 42.6-4.65-19.85-22.5-33.05-23.45 14.4-38.05-8.55-21.3 2.95-36.45 16.65m119.1 75.25 3.45-.25q35.1-15.25 30.1-38.9 12.1 26.9-3.05 35.7-9.7 5.6-30.5 3.8v-.35m46.25-146.6q7.85-3.1 17.95-4.75-31.7 40.75-9.15 89.05 7.35 17.8 14.5 37.55 25.35-9.8 39.6-37.65l3.7 2.65q-14.9 31.4-41.8 41.5-1 15.8-4.85 28.8l-1.1 3.35q-2.4 7.05-5.65 13.25l-4.4-2.35-6.5-.05q11.45-16.15 13.5-37-26.75 13.5-39.5 41-3.75 1.15-7.2 2.7 6.25-16.5 18.95-29.75 11.1-11.75 27.2-21l-13.5-38.05q-26.35-47.45-1.75-89.25M380.65 323l7.6-.3q-13.5 44.9-47.5 70.9-32.3 24.7-83.1 32.35Q194 435.5 101.4 418.3l5.85-5.6q118.9 16.65 187.2-5.6 19.05-6.2 34.15-15.4 39.4-24.05 52.05-68.7m-48.5 105.15-2.15 3.5q-7.9 35.7 19 12 .85 5.45 1 10.55-49.7 25.4-18.35-37.6l.5 11.55M354.1 266.8l8.65-.3q-2.05 3.35-3.85 7.05l-8.6 1.7q1.75-4.4 3.8-8.45m-28.8 8.6q-2.05 3.3-3.6 7l-24.75 12.05q12.75 12 0 24-12.2 5.2-16.55-13L256 326.9q-3.6-2.3-7.65-4.45v-.05q37.25-39.45 76.95-47" fill="#fff"/><path d="m119.2 488.7-2.6.05 12.95-5.8q55.65 20.5 111.3 26.8 41.9-59.3 82.6-16.5l21.95-14.35q-6.95 15.75-24.4 26.55-48.7-35.8-77 12.8L119.2 488.7m-70.35-10.65Q9.2 462 1.7 421.8q61.25-54.3 83.2-90.05 23.95-39.1 1-56.1 38.95-4.25 48.6 24.25 4.65 13.7 2.5 35.1l-1.15 8.9q-1.05 6.7-2.65 14.1l4.3-2.65q41.65-25.1 83.95-31.05l16.55-1.6q5.1-.25 10.3-.25h.05q4.05 2.15 7.65 4.45 35.65 22.4 25.7 52.5-75.4-59.5-174.45 33.3l-5.85 5.6q-25.5 24.9-52.55 59.75M245.7 228.2l4.25-2.05q7.8 19.15 39 23.7 47.75-11.3 25.75-62.4 1.25-9.75.05-17.2 16.5 20.65 21.45 38.3 8.3 29.65-16.15 50.7l-5.3 4.15q-68.15 24.55-69.05-35.2m214.8-104.45 2.05 2.3q2.3 2.55 5.15 5.15-65.9-34.9 3.95-69.8-41.45 27.75-11.15 62.35m-17.8 98.2 1.1-3.35q16.6 17.45 41.9 0 22.5-15.15 13.05-46.85 35.2 40.3 7 70.6-37.7 20.7-63.05-20.4m-92.4 53.3-.95 2.4Q301 327.3 335.05 382.7q-2.75 4.75-6.45 9-15.1 9.2-34.15 15.4l-1.25-7.8q25.6-9.5 24.75-56.65-6.1-37.4 3.75-60.25 1.55-3.7 3.6-7 1.75-3 3.9-5.65 12.6-15.75 36.85-20.9-6.9 8.05-11.95 17.95-2.05 4.05-3.8 8.45m33.55 93.2q45.2-37.7 61.3 13.3-4.15-.2-8.5-1.7L422.1 359.5q-21.85-.65-38.25 8.95M173.95 213.5q4.15 26.85-9.25 45.9-8.25 1.65-13.6 4.25-12.1-29.95 22.85-50.15" fill="#a83466"/><path d="M1.7 421.8q-.8-4.25-1.2-8.7 89.9-74.25 92.65-121.15l-11.05-14.7-.15-.25-.55-.75 4.5-.6q22.95 17-1 56.1Q62.95 367.5 1.7 421.8m168.45-224.2.6-.8q27.85 67.5-22.05 72.6-4.9 15-.9 21.9-14.75-18.95 3.3-27.65 5.35-2.6 13.6-4.25 13.4-19.05 9.25-45.9-1-6.35-2.95-13.15l-.85-2.75M466.6 372.7l2.6.85q-13.3 23.15-36.55 10.55l-13.55-19.55q-23.85.3-46.3 12.05 5.15-4.75 11-8.15h.05q16.4-9.6 38.25-8.95l14.55 20.55q4.35 1.5 8.5 1.7 11.5.5 21.45-9.05m-103.55 14.4 5 1.5q-6.1 16.45-25.05 21.5l-10.85 18.05-.5-11.55-.2-5.5 14-10.6 17.6-13.4M349 443.65q22.35 56.85-51.2 72.55 13.25-4.6 23.2-10.75 17.45-10.8 24.4-26.55 4.9-11.1 4.6-24.7-.15-5.1-1-10.55" fill="#63f7fc"/><path d="m81.4 276.25-.9-1.15-.9-1.2-3.1-3.7 3.1-16.8q27.6 8.35 35.05-27.55 38.55 4.1 56.35-25.5 1.95 6.8 2.95 13.15-34.95 20.2-22.85 50.15-18.05 8.7-3.3 27.65l.05.05.1.2-13.45 8.35q-9.65-28.5-48.6-24.25l-4.5.6" fill="#cf794e"/><path d="M314.75 170.25q-3.6-21.4-27.85-24.55-44.95 6.45-28.5-12.85l.05-.05h.05q15.15-13.7 36.45-16.65 14.6 22.95 38.05 8.55 17.85 13.2 22.5 33.05-11.8 30.9-6.95 43.75l-12.35 7.05q-4.95-17.65-21.45-38.3" fill="#e34a6d"/><path d="M411.15 168.9q-1-4.65-3.55-9.65-8.75-10.85-2-25.55 7.45-15-9.05-26.55-3.4-33.65 27.3-45.7-24.6 41.8 1.75 89.25l13.5 38.05q-16.1 9.25-27.2 21l-3.8-5.15q15.15-8.8 3.05-35.7" fill="#e94570"/><path d="m408.1 204.6 3.8 5.15Q399.2 223 392.95 239.5q-18.95 8.3-30.2 27l-8.65.3q5.05-9.9 11.95-17.95-24.25 5.15-36.85 20.9l-9.15-10.5q24.45-21.05 16.15-50.7l12.35-7.05q5.1 13.7 29.05 6.9 20.8 1.8 30.5-3.8" fill="#e45069"/><path d="M116.6 488.75q-41.15.1-67.75-10.7Q75.9 443.2 101.4 418.3q92.6 17.2 156.25 7.65l-128.1 57-12.95 5.8m133.35-262.6 23.45-11.3q6.4 2.35 0 12 13.05 16.75 37.05-20.55 3.1-10.3 4.25-18.85 22 51.1-25.75 62.4-31.2-4.55-39-23.7M297.8 516.2q-17.7 3.7-40.9 5.1l-12.9-3.05q28.3-48.6 77-12.8-9.95 6.15-23.2 10.75m51.55-238.55q-8.6 23-8.85 54.3 6.65 29.9-5.45 50.75-34.05-55.4 14.3-105.05M293.2 399.3l1.25 7.8q-68.3 22.25-187.2 5.6 99.05-92.8 174.45-33.3-3.45 10.35-12.3 21.65 13.9 1.95 23.8-1.75" fill="#c64c81"/><path d="M355.5 157.75q-12 43.85 12.5 49.5l.35.05 5.35.7 3.9.4q-23.95 6.8-29.05-6.9-4.85-12.85 6.95-43.75" fill="#63f6fb"/><path d="M400.15 236.8q12.75-27.5 39.5-41-2.05 20.85-13.5 37-14.3.25-26 4" fill="#e64d6b"/><path d="m230.8 240.3 2.05-5.95 12.85-6.15q.9 59.75 69.05 35.2l5.3-4.15 9.15 10.5q-2.15 2.65-3.9 5.65-39.7 7.55-76.95 47l-.05.05q-5.2 0-10.3.25 14.35-44.1-7.2-82.4" fill="#d5794e"/><path d="M321.7 282.4q-9.85 22.85-3.75 60.25.85 47.15-24.75 56.65-9.9 3.7-23.8 1.75 8.85-11.3 12.3-21.65 9.95-30.1-25.7-52.5l24.4-21.45q4.35 18.2 16.55 13 12.75-12 0-24l24.75-12.05" fill="#d7923c"/><path d="m352.2 291.9-.05.05q-11.75 30.9 21.4 31.55l7.1-.5Q368 367.65 328.6 391.7q3.7-4.25 6.45-9 12.1-20.85 5.45-50.75.25-31.3 8.85-54.3l.95-2.4 8.6-1.7q-4 8.3-6.7 18.35" fill="#d67b4c"/><path d="m340.75 393.6 4.7 6.9-14 10.6.2 5.5q-31.35 63 18.35 37.6.3 13.6-4.6 24.7l-21.95 14.35q-40.7-42.8-82.6 16.5-55.65-6.3-111.3-26.8l128.1-57q50.8-7.65 83.1-32.35" fill="#d48d40"/><path d="M388.25 322.7q51.65-1.05 63.4 26.85-1.1 17.05 14.95 23.15-9.95 9.55-21.45 9.05-16.1-51-61.3-13.3h-.05q-5.85 3.4-11 8.15-7.45 3.85-14.75 9l5 1.5-17.6 13.4-4.7-6.9q34-26 47.5-70.9" fill="#d66f55"/><path d="m186.1 291.5 6.65-2.55q20.4-12.1 32.55-36.1 14.5 29-3.85 71.45-42.3 5.95-83.95 31.05 31.75-24.4 48.6-63.85" fill="#d67c4c"/><path d="M148.25 292q5.6 8.05 25.25 3.35-14.05 29-36.5 39.65 2.15-21.4-2.5-35.1l13.45-8.35.3.45" fill="#e1a72d"/></g><g id="u" fill-rule="evenodd"><path d="M53.45 161.45q24.05-61 36.7-133.35l3.75-3.05Q89.75 78.9 72.35 126.2q-9.2 22.3-18.9 35.25" fill="#7ed1ed"/><path d="M9.2 165.65q3.45 7.85 11.05 13.15 17.25 3.85 33.2-17.35 9.7-12.95 18.9-35.25Q89.75 78.9 93.9 25.05l-3.75 3.05-3.25 2.6-39.7 31.9q-51.95 71.65-38 103.05M44.3 55.6Q75.7 29.7 97.35 0q16.5 66.25-40.55 168.25-39.65 47.05-56.1-3.5Q-5.55 114.7 44.3 55.6" fill="#3e142b"/><path d="M53.45 161.45q-15.95 21.2-33.2 17.35-7.6-5.3-11.05-13.15.35-19.4 7.05-39.45Q46.3 66.55 86.9 30.7l3.25-2.6q-12.65 72.35-36.7 133.35" fill="#a13178"/><path d="M86.9 30.7q-40.6 35.85-70.65 95.5-6.7 20.05-7.05 39.45-13.95-31.4 38-103.05l39.7-31.9" fill="#c5469d"/></g><g id="v" fill-rule="evenodd"><path d="M102.3 133.85 0 66.75l3.55-2.55 70.75 42.7 51.9 31.3-23.9-4.35M195.2.4l10.75.8-9.2 93.7q-4.75 4.9-8.05 11.3L195.2.4" fill="#511c1a"/><path d="m186.25.05 8.95.35-6.5 105.8q-2.75 5.35-4.5 11.7L186.25.05M209.1 174q-5.7 9.2-12.3 15.25l.5-18q-9.4-24.7-4.6-56.5 4.15-9.5 8.6-15.6-15.7 47.15 7.8 74.85" fill="#7ed1ed"/><path d="M3.55 64.2Q96.6-1.4 186.25.05L184.2 117.9q-2.6 9.5-2.9 21.3l-6.55-5.5-5.45-21.55q-45.3-36.95-95-5.25L3.55 64.2" fill="#6d2e2c"/><path d="M196.75 94.9q5.7-5.95 13.6-9.8l-8 64.1 12 15.05q-2.5 5.25-5.25 9.75-23.5-27.7-7.8-74.85-4.45 6.1-8.6 15.6-5.75 13.05-10.9 32.45l-5.8-5.15-31.25-27.9-1.6 2.75-15.45 26.3h-24.55l41.05 41.05 5.9 12.8q-5.3-1.9-10.85-4.8l-57.1-62.05 19.7 3.6h.1l.35.05 23.9 4.35 17.05-31.05 31.5 26.55 6.55 5.5q.3-11.8 2.9-21.3 1.75-6.35 4.5-11.7 3.3-6.4 8.05-11.3" fill="#3f152c"/><path d="M190.55 194.1q-17.35 11.15-40.45 2.95l-5.9-12.8-41.05-41.05h24.55l15.45-26.3 34.15 53.85-1.3-28.7 5.8 5.15 8.75 46.9" fill="#703962"/><path d="M196.8 189.25q-3.05 2.75-6.25 4.85l-8.75-46.9q5.15-19.4 10.9-32.45-4.8 31.8 4.6 56.5l-.5 18m-53.65-72.35 1.6-2.75 31.25 27.9 1.3 28.7-34.15-53.85" fill="#48233f"/><path d="m126.2 138.2-51.9-31.3q49.7-31.7 95 5.25l5.45 21.55-31.5-26.55-17.05 31.05" fill="#934a38"/></g><g id="w" fill-rule="evenodd"><path d="M52.75 8.8q3.2 2.55 6.5 5.85 16.75 87.4 42.8 168.15l-5.45-1.4-4-1-25.6-6.65-19.05 22.55-11.5-9-17.3 5.5-6.25 1.95-11.05 3.5Q30.3 162.85 0 21.45q2.75-4 5.6-7.3 15.9 62.75 16 114.1.1 32.6-6.2 60.55l24.05-12.55 8.5 11.55 17.55-24.55 26.5 7.5Q67.45 98.2 52.75 8.8" fill="#3f152c"/><path d="m96.6 181.4 1.9 50.9-41.05 42.05-38.55-21-6-58.6 6.25-1.95 8.25 46.5 26.55 20.05L91 229.8l1.6-49.4 4 1" fill="#331215"/><path d="m19.15 192.8 17.3-5.5 11.5 9L67 173.75l25.6 6.65-1.6 49.4-37.05 29.55L27.4 239.3l-8.25-46.5" fill="#6c2d2c"/><path d="M5.6 14.15Q17.05.85 29.5.05q-7.05 61.6 1.95 108.6l-9.85 19.6q-.1-51.35-16-114.1" fill="#a25c99"/><path d="M29.5.05q11.25-.7 23.25 8.75Q67.45 98.2 92 170.75l-26.5-7.5-17.55 24.55-8.5-11.55L15.4 188.8q6.3-27.95 6.2-60.55l9.85-19.6q-9-47-1.95-108.6" fill="#6f3961"/></g><g id="x" fill-rule="evenodd"><path d="m26.75 109.15-8.7-4.05 50.05 97.1-29.05-31.05-15-4 7.45 13.45 6.4 12.3q33.8 66.75 51.55 144.25-4.65-2.7-9.35-6.75Q54.25 222.15 1 149.15l34.05 10L0 85.05l35.3 17.3 9.75 4.75 57.1 28 53.15-39.65 13.95-10.4q-28.05 111.2-23.05 209.3l-7 32.05-4.9 5 5.9-37.05q-12.55-60.7 19.05-194.3l-7.35 5.4-51.75 37.7-73.4-34" fill="#441831"/><path d="m68.1 202.2-50.05-97.1 8.7 4.05L61.2 186.7l6.9 15.5" fill="#f96bc6"/><path d="m45.05 107.1-9.75-4.75-7.25-90.4 17 95.15" fill="#511c1a"/><path d="m155.3 95.45-53.15 39.65-57.1-28-17-95.15q85.8-45.75 127.25 83.5" fill="#a8672f"/><path d="m151.9 105.45 7.35-5.4q-31.6 133.6-19.05 194.3l-5.9 37.05-4.5 3.75 3.4-45.8q-14.6-87.95 18.7-183.9" fill="#7ed1ed"/><path d="m37.9 192.9-6.4-12.3 36.6 21.6-6.9-15.5 48.95 79.6-4.85 76.45q-7.8-.85-15.85-5.6.75-84.65-51.55-144.25" fill="#a25c99"/><path d="m31.5 180.6-7.45-13.45 15 4L68.1 202.2l-36.6-21.6" fill="#83366a"/><path d="m26.75 109.15 73.4 34 51.75-37.7q-33.3 95.95-18.7 183.9l-3.4 45.8q-11.9 8.9-24.5 7.6l4.85-76.45-48.95-79.6-34.45-77.55" fill="#713962"/><path d="M89.45 337.15Q71.7 259.65 37.9 192.9q52.3 59.6 51.55 144.25" fill="#d57eca"/></g><g id="y" fill-rule="evenodd"><path d="M57.5 24.95Q72.35 8.6 86.65 3L97.3 20.55V.25q4.2-.5 8.35 0l4.55 36.8q-7.85 79.7-8.55 153.75L99.4 193l-4.25-49.45-20.5 73.75-12.55-35.55-28.95 3.7Q96.35 80 57.5 24.95" fill="#6f3961"/><path d="M86.65 3Q92 .85 97.3.25v20.3L86.65 3m19-2.75q3.15.35 6.3 1.3l7.25 20.5q-15.6 94.15-5.4 176.65l-12.15-7.9q.7-74.05 8.55-153.75L105.65.25m-31 217.05 20.5-73.75L99.4 193l-24.75 24.3" fill="#48233f"/><path d="M111.95 1.55q3 .85 6 2.25l8.75 19.25q-20.5 102.95-5 180.75l-7.9-5.1q-10.2-82.5 5.4-176.65l-7.25-20.5" fill="#77bcd7"/><path d="M117.95 3.8q9.5 4.5 18.75 14.2-31.05 138.95 0 198.8-12.6 0-23.45-7.05-3.05-2-5.9-4.5-2.4-2.05-4.7-4.5L70.6 228.8l-1.6-4.95-10.9-33.1-14.45 1.05-9 .7-17.6 1.25Q82.3 111.9 56.1 26.5l1.4-1.55Q96.35 80 33.15 185.45l28.95-3.7 12.55 35.55L99.4 193l2.25-2.2 12.15 7.9 7.9 5.1q-15.5-77.8 5-180.75L117.95 3.8" fill="#3f152c"/><path d="m69 223.85 1.6 4.95 32.05-28.05q2.3 2.45 4.7 4.5l-3.2 29.05Q83 250.65 61.4 254.95l7.6-31.1m-13.45-24.1-33.05 45.1-9-2.55 11.3-18.8 30.75-23.75" fill="#451c1b"/><path d="m113.25 209.75-3.1 28.05q-42.4 38.55-91.65 22.05v-6.5l-18.5-2 34.65-58.85 9-.7-18.85 31.7-11.3 18.8 9 2.55 33.05-45.1L28 254.35q7.05 1.6 14.05 2 9.7.5 19.35-1.4 21.6-4.3 42.75-20.65l3.2-29.05q2.85 2.5 5.9 4.5" fill="#331215"/><path d="M61.4 254.95q-9.65 1.9-19.35 1.4l13.5-56.6L24.8 223.5l18.85-31.7 14.45-1.05 10.9 33.1-7.6 31.1" fill="#6c2d2c"/><path d="M42.05 256.35q-7-.4-14.05-2l27.55-54.6-13.5 56.6" fill="#905150"/></g><g id="z" fill-rule="evenodd"><path d="M526.3 319.2q-2.3 4.85-5.6 8.95l-8.15-57.8q2.55-.3 5.25-1.95l8.5 50.8m-69.1-132.65q33.45 19 54.6 45.8-5.25 3.15-8.5 6.9l-15.55-17.75-7.55-8.65-11.15-12.75-11.85-13.55" fill="#6e2f2c"/><path d="M326.35 173.6q-3.6-8.3-9.85-16.35 22.25-1.5 32.05 25.05 26.95-11.35 30.05 17.05-16.25-8.45-24.8-1.1l-27.45-24.65m97.6 53.75q-1.3-29.9-21.65-64.3l7.4 2.45q8.2 6.65 15.7 13.4 14.1 31.75 15.55 63.45l-17-15m31.25-18.4 2-22.4 11.85 13.55-.05 17.25 11.2-4.5 7.55 8.65-15.6 9.2-11.4 6.7-5.55-28.4v-.05m25.75 35.45 3.3 5.85q-8.35 10-18.2 16.2-7.35-5.5-14.95-9.45l29.85-12.6" fill="#ffc301"/><path d="M520.7 328.15q-6.9 8.45-18.3 13.4 1.8-13.55 1.05-27-1.95-32.5-19.2-64.3l-3.3-5.85q-4.05-6.9-8.8-13.7l15.6-9.2 15.55 17.75q-7.55 8.55-4.55 20.15 6 11.85 13.8 10.95l8.15 57.8m-111-162.65q26.2 8.9 47.5 21.05l-2 22.4q-13.15-15.1-29.8-30.05-7.5-6.75-15.7-13.4m59.35 34.6 11.15 12.75-11.2 4.5.05-17.25" fill="#9e5238"/><path d="M425.4 178.9q16.65 14.95 29.8 30.05v.05l5.55 28.4 11.4-6.7q4.75 6.8 8.8 13.7L451.1 257q-4.95-2.55-10-4.5.1-5.05-.15-10.15-1.45-31.7-15.55-63.45" fill="#c97d4c"/><path d="m390.95 159.65 10.7 2.3.9.2q116.6 26.7 124.25 100.25 9.25 35.85-.5 56.8l-8.5-50.8q-2.7 1.65-5.25 1.95-7.8.9-13.8-10.95-3-11.6 4.55-20.15 3.25-3.75 8.5-6.9-21.15-26.8-54.6-45.8-21.3-12.15-47.5-21.05l-7.4-2.45-11.35-3.4m-1.3 181.55q-87.15 8.3-174.3 46.4-157.55 18.6-196.9-92.45 13.1 24.1 29.5 41.75 61.1 66 167.4 41.7 98.65-44 174.3-37.4" fill="#7ed1ed"/><path d="M466.05 266.45q9.85-6.2 18.2-16.2 17.25 31.8 19.2 64.3l-26.55-5.65-1.15-34.45q-4.8-4.35-9.7-8" fill="#c77552"/><path d="M397.65 247.4q12.75-1.55 24.9.25-2.65 13.95-9.9 26.8 30.65 6.2 53.4-8 4.9 3.65 9.7 8l1.15 34.45-62.8-13.45-9.45-23q-6.2 10.1-8.7 19.15l-33.35-7.15.05-.15q14.2-3.8 22.75-11.85 10.1-9.55 12.25-25.05m53.45 9.6-10.4 4.4.4-8.9q5.05 1.95 10 4.5" fill="#e4885d"/><path d="M328.75 180.05q-1-3.25-2.4-6.45l27.45 24.65q-8.2 6.95-9.45 28.2-.55 9.15.2 20.95 14.8 26.15 40.85 9.6 5.85-3.75 12.25-9.6-2.15 15.5-12.25 25.05-8.55 8.05-22.75 11.85l-5.05 1.15-12.05 24.05q-8.55-8.15-5.25-21.3 1.45-5.85 5.25-12.75-19.9-10.6-19-30.05-8.85-8.75-19.8-12.7-3.25-1.2-6.65-1.95-7.4-1.65-15.65-1.35 18-16.05 41.1-7.05l2.45-6.5q6-18.45.75-35.8m59.25 47.3q-.5 3.3-2.6 6.05l-1.3 1.45q-4.05 4.05-9.75 4.05t-9.75-4.05l-1.8-2.2q-2.25-3.35-2.25-7.55 0-5.7 4.05-9.75t9.75-4.05q5.7 0 9.75 4.05l1.3 1.5q2.75 3.55 2.75 8.25l-.15 2.25m34.55 20.3q1.85-9.9 1.4-20.3l17 15q.25 5.1.15 10.15l-.4 8.9 10.4-4.4q7.6 3.95 14.95 9.45-22.75 14.2-53.4 8 7.25-12.85 9.9-26.8" fill="#ffed01"/><path d="M502.4 341.55q-12.95 5.65-31.65 6.75l-3-21.8 34.65 15.05" fill="#9c5138"/><path d="m470.75 348.3-32.05-1-4-.45q-17.05-2-37.05-6.35l-4.7.4q-22.3-13.15-65.45-12.4l-7.6-20.55 42.7 9.55v-33.05l33.35 7.15 18.15 3.85 62.8 13.45 26.55 5.65q.75 13.45-1.05 27l-34.65-15.05 3 21.8" fill="#985136"/><path d="m243.95.8 7.45-.8 45.05 119.2 28.05 11 21.05 14.05q21 1.75 39.85 5.05 118.25 20.65 150.4 102.1 29.65 136-139.2 97.15-86.7 4.5-177.25 49.05-245.2 26.65-216.3-218.3l3.6-5.65q-1.05 14.3-1.25 27.7-.75 54.85 13.05 93.8Q57.8 406.2 215.35 387.6q87.15-38.1 174.3-46.4l3.3-.3 4.7-.4q20 4.35 37.05 6.35l4 .45 32.05 1q18.7-1.1 31.65-6.75 11.4-4.95 18.3-13.4 3.3-4.1 5.6-8.95 9.75-20.95.5-56.8-7.65-73.55-124.25-100.25l-.9-.2-10.7-2.3-.5-.1-5.05-.95q-20-3.8-42.85-6.35-20.55-16.05-41.15-21.2-4.95-1.25-9.9-1.85L243.95.8" fill="#511c1a"/><path d="M301.4 131.05q20.6 5.15 41.15 21.2 22.85 2.55 42.85 6.35l5.05.95.5.1 11.35 3.4q20.35 34.4 21.65 64.3.45 10.4-1.4 20.3-12.15-1.8-24.9-.25-6.4 5.85-12.25 9.6-26.05 16.55-40.85-9.6-.75-11.8-.2-20.95l18.45 6.2 1.8 2.2q4.05 4.05 9.75 4.05t9.75-4.05l1.3-1.45q2.1-2.75 2.6-6.05 10.35-5.1-2.6-20.65-2.85-3.45-6.8-7.35-3.1-28.4-30.05-17.05-9.8-26.55-32.05-25.05 6.25 8.05 9.85 16.35 1.4 3.2 2.4 6.45-32.15-5.95-.75 35.8l-2.45 6.5q-23.1-9-41.1 7.05 8.25-.3 15.65 1.35-21.15 33.75-26.15 57.45-.8 3.9-1.2 7.55l-9.6 11.25-14.75-28.55-61.1 48.1q-23.55-1.75-47.1-44.1v69.1q-74.05-12.35-116.1-69.1l20.55-12.4q23.75 74.85 82.6 52.5-.1-49.3-35.8-80.75l23.75-14.4q4.9 22.9 23.05 39.05l50.05-55.1q29.1-22.35 38.1-58.05l41.05 53.05q27.45-25.55 33.95-75.3m-108.05 86.3q-28.5 43.8-22.05 84.15 39.4 12.45 61.1-45.1.45-59.6-39.05-39.05" fill="#c7794f"/><path d="m243.95.8 47.55 128.4q4.95.6 9.9 1.85-6.5 49.75-33.95 75.3L226.4 153.3q-9 35.7-38.1 58.05l-50.05 55.1Q120.1 250.3 115.2 227.4l-23.75 14.4-46.8 28.25-20.55 12.4q-11.25-44.55-18.7-81.1.2-13.4 1.25-27.7Q106.35 17.55 243.95.8" fill="#70322b"/><path d="M91.45 241.8q35.7 31.45 35.8 80.75-58.85 22.35-82.6-52.5l46.8-28.25m14.75 68.7q-4.85-42.65-31.05-50.05-24.65 12 0 45.05 12.4 10.1 31.05 5" fill="#e68e57"/><path d="M106.2 310.5q-18.65 5.1-31.05-5-24.65-33.05 0-45.05 26.2 7.4 31.05 50.05" fill="#f4b06a"/><path d="M18.45 295.15Q4.65 256.2 5.4 201.35q7.45 36.55 18.7 81.1 42.05 56.75 116.1 69.1v-69.1q23.55 42.35 47.1 44.1l61.1-48.1L263.15 307q-87.6 96.35-215.2 29.9-16.4-17.65-29.5-41.75" fill="#ac6d2d"/><path d="m392.95 340.9-3.3.3q-75.65-6.6-174.3 37.4-106.3 24.3-167.4-41.7 127.6 66.45 215.2-29.9l9.6-11.25 5.9-7.55q11.3-14.95 21.85-32.8l13.5 36.55 5.9 16 7.6 20.55q43.15-.75 65.45 12.4" fill="#7e4327"/><path d="M193.35 217.35q39.5-20.55 39.05 39.05-21.7 57.55-61.1 45.1-6.45-40.35 22.05-84.15m-3 64.1q30.45-19.05 5-46.05-21.6 28.75-5 46.05" fill="#e58a5b"/><path d="M190.35 281.45q-16.6-17.3 5-46.05 25.45 27-5 46.05" fill="#f2a67d"/><path d="M378.6 199.35q3.95 3.9 6.8 7.35 12.95 15.55 2.6 20.65l.15-2.25q0-4.7-2.75-8.25l-1.3-1.5q-4.05-4.05-9.75-4.05t-9.75 4.05q-4.05 4.05-4.05 9.75 0 4.2 2.25 7.55l-18.45-6.2q1.25-21.25 9.45-28.2 8.55-7.35 24.8 1.1m-50.6 16.5q-31.4-41.75.75-35.8 5.25 17.35-.75 35.8" fill="#e28164"/><path d="M272.75 295.75q.4-3.65 1.2-7.55 5-23.7 26.15-57.45 3.4.75 6.65 1.95l7.25 59.25-13.5-36.55q-10.55 17.85-21.85 32.8l-5.9 7.55" fill="#995235"/><path d="M306.75 232.7q10.95 3.95 19.8 12.7-.9 19.45 19 30.05-3.8 6.9-5.25 12.75-3.3 13.15 5.25 21.3l12.05-24.05 5.05-1.15-.05.15v33.05l-42.7-9.55-5.9-16-7.25-59.25" fill="#c37254"/><path d="m414.1 295.45-18.15-3.85q2.5-9.05 8.7-19.15l9.45 23" fill="#f2a67e"/></g><g id="A" fill-rule="evenodd"><path d="m48.65 0 8.8.6q21.35 32.2 27.6 105.9 21.1 67.6 53.1 99.65l-12.3-2.5Q94.3 160.4 80.1 102l-.45-1.85-14.6-66-.7-3.1L60 11.35 48.65 0" fill="#7ed1ed"/><path d="M57.45.6q6.55 1 13.5 3.75Q84.7 40.45 94.1 102q14.2 81.6 62.6 109.15-22.3 4.9-38.05 0v40.6l-9-6.7-6.5-4.85-35.6-26.55-42.95 18.2-9.1 3.85 3-26.05h-15q33.55-53.6-3-174.9l2.8-4.45q35.3 66.05 17 155.95l-3.35 14.85 11-4.5-.3 2.05-2.5 15.7-1.7 10.8 15.7-7.3 30.4-14.2q12.3 17.05 29.6 29.15 5.7 3.95 11.95 7.4l-1.9-12.85-7.1-48.25 11.5 22 12.25 2.55 12.3 2.5q-32-32.05-53.1-99.65Q78.8 32.8 57.45.6" fill="#3f152c"/><path d="M33.35 3.15Q40.7.2 48.65 0L60 11.35l4.35 19.7-7.15-1.2-2.7-17-21.15-9.7m31.7 31 14.6 66 .45 1.85q14.2 58.4 45.75 101.65l-12.25-2.55-11.5-22 7.1 48.25q-17.85-30.1-29-68.7-4.35-14.9-7.7-31.05l-.25-1.2-.25-.9-.4-1.55-.95-3.6q-13.9-55.65-5.6-86.2M20.3 186.25l22.25-19.65-14.9 32.05.3-2.05-11 4.5 3.35-14.85m51-15.85-1.75 33.25-30.4 14.2 32.1-47.45h.05" fill="#6f3961"/><path d="m16.15 14.55 3.7-3.25q16.7 14.1 37.35 18.55l7.15 1.2.7 3.1q-8.3 30.55 5.6 86.2-20.6-74.45-54.5-105.8" fill="#ffc301"/><path d="M19.85 11.3q6.45-5.35 13.5-8.15l21.15 9.7 2.7 17Q36.55 25.4 19.85 11.3" fill="#a45b99"/><path d="M3.3 30.3Q9.4 21 16.15 14.55q33.9 31.35 54.5 105.8l.95 3.6.4 1.55.25.9.25 1.2q3.35 16.15 7.7 31.05 3 37.05 18.95 74.15-17.3-12.1-29.6-29.15l1.75-33.25v-.05l-.05.05-46.1 43.95 2.5-15.7 14.9-32.05-22.25 19.65q18.3-89.9-17-155.95m45.2 97.75Q56.35 78.55 27 33.9l21.5 94.15" fill="#a25c99"/><path d="M80.2 158.65q11.15 38.6 29 68.7l1.9 12.85q-6.25-3.45-11.95-7.4-15.95-37.1-18.95-74.15m-55.05 55.7 46.1-43.95-32.1 47.45-15.7 7.3 1.7-10.8m23.35-86.3L27 33.9q29.35 44.65 21.5 94.15" fill="#d57eca"/><path d="m109.65 245.05-6 26.15Q60.85 311 11.5 295.25l3-9H0l15.1-50.65.4.1 9.1-3.85q-1.85 3.85-3.4 7.55-9.45 22.2-10.2 37.85l5 2.5q2.3-22.2 13.1-37.85 4.85-7.05 11.45-12.75-3.2 6.35-5.9 12.5l-.85 1.95q-9.95 23.15-12.3 43.15l12.2 1.8 20.9-.7q22.25-3.55 41.5-19.15l7.05-28.5 6.5 4.85"/><path d="M21.2 239.4q1.55-3.7 3.4-7.55l42.95-18.2 35.6 26.55-7.05 28.5q-19.25 15.6-41.5 19.15l14.5-50.7-34.2 6.25-.25-1.75q2.7-6.15 5.9-12.5-6.6 5.7-11.45 12.75l-7.9-2.5" fill="#451c1b"/><path d="m33.8 243.6 1.1-.2q2.95 27-1.2 45.15l-12.2-1.8q2.35-20 12.3-43.15" fill="#905150"/><path d="M29.1 241.9Q18.3 257.55 16 279.75l-5-2.5q.75-15.65 10.2-37.85l7.9 2.5m4.6 46.65q4.15-18.15 1.2-45.15l34.2-6.25-14.5 50.7-20.9.7" fill="#6c2d2c"/></g><g id="B" fill-rule="evenodd"><path d="M225.95 30.3 214.9 39q-10.8 7.8-23.2 14.5-6.2 3.3-12.75 6.35-16.35 7.5-35.25 13.25-51.75 8.5-85.6 35.95-6.45 5.15-12.2 11.05-4.85 4.9-9.2 10.3-16.55 20.3-26.7 47.35 45.6 19.25 97.15-5 33.85-15.15 59.45-36.6 9.75-8.2 18.3-17.25 38.45-40.75 52.95-99.85-5.6 5.85-11.9 11.25M246.85 0q-7.75 124-135.7 179.25Q48.7 204.9 0 181.25 32.15 89.6 143.2 65.6 204.45 50.7 246.85 0" fill="#3f152c"/><path d="M225.95 30.3q6.3-5.4 11.9-11.25-14.5 59.1-52.95 99.85l-3.25 1.7q36.4-41.25 44.3-90.3" fill="#7ed1ed"/><path d="m214.9 39 11.05-8.7q-7.9 49.05-44.3 90.3-59.85 30.35-118.6 37.15l39.75-42.05q7.9-2.75 15.5-5.85 21.3-8.85 40.25-21.1 7.8-.85 16.2-5.15 8.35-4.6 13.2-17.05 14.3-12.6 26.95-27.55" fill="#7b3767"/><path d="M187.95 66.55Q183.1 79 174.75 83.6q-8.4 4.3-16.2 5.15 15.5-10 29.4-22.2" fill="#ffc301"/><path d="M58.1 109.05Q91.95 81.6 143.7 73.1q26.15 4.2 35.25-13.25 6.55-3.05 12.75-6.35-1.5 7.3-3.75 13.05-13.9 12.2-29.4 22.2Q147 90 136.7 83.6l-78.6 25.45" fill="#feea03"/><path d="M191.7 53.5q12.4-6.7 23.2-14.5-12.65 14.95-26.95 27.55 2.25-5.75 3.75-13.05" fill="#a35c99"/><path d="M45.9 120.1q5.75-5.9 12.2-11.05l78.6-25.45q10.3 6.4 21.85 5.15-18.95 12.25-40.25 21.1L45.9 120.1" fill="#b74f9b"/><path d="M166.6 136.15q-25.6 21.45-59.45 36.6Q55.6 197 10 177.75q10.15-27.05 26.7-47.35 35.3-4.1 66.1-14.7l-39.75 42.05q58.75-6.8 118.6-37.15-7 7.9-15.05 15.55" fill="#f96bc6"/><path d="M143.7 73.1q18.9-5.75 35.25-13.25-9.1 17.45-35.25 13.25" fill="#a55b99"/><path d="M36.7 130.4q4.35-5.4 9.2-10.3l72.4-10.25q-7.6 3.1-15.5 5.85-30.8 10.6-66.1 14.7" fill="#fff"/></g><g id="C" fill-rule="evenodd"><path d="m99.3 5.5 8.8 13.95-16.5 9.15L88 9.55Q93.5 7.3 99.3 5.5" fill="#af722a"/><path d="m149.4 132.85-7.8 16.6q2-31.6-6-75.1 3.1-.05 6.6-2.7l7.2 61.2M114.3 1.6l21.4 40q-6.3 2.75-9.25 7.05L112.85 27l-4.75-7.55L99.3 5.5q7.25-2.35 15-3.9" fill="#6e2f2c"/><path d="m108.1 19.45 4.75 7.55-18.2 11.15L84.1 44.6l-2.9-17.45-2.3-13.45q4.45-2.25 9.1-4.15l3.6 19.05 16.5-9.15M62.55 23.3q4.7 13.7 4.2 26.75l-18.8-12.5-.3-2.45q7.1-6.5 14.9-11.8m104.05 226q-9.7-7.85-18.4-21.95l-16.05 8.45-2.1-5.4q20.05-10.6 27.2-43.1.2 47.35 28 71.1-9.75-1.95-18.65-9.1m32.55 35.85q-6.45 6.5-14.6 10.6l-25.7-31.4 40.3 20.8" fill="#ffc301"/><path d="m81.2 27.15 2.9 17.45 10.55-6.45q7.5 7.2 13.3 15.6-22.8 11.55-43.4 10.4 1.85-6.95 2.2-14.1.5-13.05-4.2-26.75 2.95-2.05 6.05-3.9 6.65 3.6 12.6 7.75M47.65 35.1l.3 2.45q1.2 9.95-.15 18.45l-15.5-4.85q7.25-8.75 15.35-16.05" fill="#c97d4c"/><path d="m141.6 149.45-15.4 32.85-40.1-49.1 8.25 5.85 30.85 21.75q10.4-67.1-17.25-107.05-5.8-8.4-13.3-15.6L112.85 27l13.6 21.65q-4.65 6.65-1.25 17 4.55 8.85 10.4 8.7 8 43.5 6 75.1" fill="#a8662f"/><path d="m78.9 13.7 2.3 13.45Q75.25 23 68.6 19.4q5-3.1 10.3-5.7" fill="#ab6d2c"/><path d="m152.1 127.1-2.7 5.75-7.2-61.2q-3.5 2.65-6.6 2.7-5.85.15-10.4-8.7-3.4-10.35 1.25-17 2.95-4.3 9.25-7.05l-21.4-40 8.85-1.6 28.95 57.6v69.5" fill="#7ed1ed"/><path d="M162.25 105.45 152.1 127.1V57.6L123.15 0l38.55 55.6.55 49.85M64.7 223.65l-8.4 2.05q-9.4-14-18.2-30.15Q17.25 157.3 0 107.15q15 35.1 32.05 65.4 6.65 11.85 13.65 23 9.2 14.7 19 28.1" fill="#511c1a"/><path d="M86.1 133.2v55.1q-25.7 16.3-54.05-15.75Q15 142.25 0 107.15q13.25-33 32.3-56L47.8 56Q45.25 71.6 34 82.15q33.85 7.6 58.55-12.2 28.45 26.9 1.8 69.1l-8.25-5.85m-19 38.6L28.05 74.65q-40.3 56.65 39.05 97.15" fill="#e58a5b"/><path d="M181.8 239.55q-22.45-39.9-9.7-134.95l-8 16.5-37.9 78.2-18.9-27.15-13.15-18.9v75.1l-17.1 3.95-43.95 10.2-.15.05-.05-.05-2.3.15h2.55L77.1 260.4l9.8 3.05q50.75 16.45 71.4 38.95-5.35.3-11.1.05-24.1-16.3-69.3-33.2-45.25-16.95-66.95-32.15l8.65-2.6 1.4-.15 35.3-8.65 8.4-2.05 21.4-5.3V133.2l40.1 49.1 15.4-32.85 7.8-16.6 2.7-5.75 10.15-21.65 18-38.35 4 81.15 22.05-15.05q-19.05 61.15-18.05 102.15l22.7 17.7.45.45 2.25 2.25q2.75 2.85 4 6.45l.35 1.25q.2.95-.6 1.7l-6 4.45-.2.15-.25-.15q-18-10.6-28.9-29.55l-.25-.5m.45-81.3v44.05l11.05-50.05-11.05 6" fill="#3f152c"/><path d="M92.55 69.95q8.2-6.6 15.4-16.2Q135.6 93.7 125.2 160.8l-30.85-21.75q26.65-42.2-1.8-69.1" fill="#c67254"/><path d="m164.1 121.1 8-16.5q-12.75 95.05 9.7 134.95-24.5-36.75-18.9-106.2l1.2-12.25m18.15 37.15 11.05-6-11.05 50.05v-44.05" fill="#7ed0ec"/><path d="m164.1 121.1-1.2 12.25q-20.75 49.45-21.7 87l-15-21.05 37.9-78.2M77.05 232.3l17.1-3.95v-6l19 22-36.1-12.05m17.1-33v-46.05l13.15 18.9 22.75 58.25 2.1 5.4 8.05 20.6-46.05-57.1" fill="#f96bc6"/><path d="M66.75 50.05q-.35 7.15-2.2 14.1 20.6 1.15 43.4-10.4-7.2 9.6-15.4 16.2-24.7 19.8-58.55 12.2Q45.25 71.6 47.8 56q1.35-8.5.15-18.45l18.8 12.5" fill="#ffed01"/><path d="M158.3 302.4q-20.65-22.5-71.4-38.95l-9.8-3.05-43.95-17.75-.05-.15 43.95-10.2 36.1 12.05-19-22V199.3l46.05 57.1-8.05-20.6 16.05-8.45q8.7 14.1 18.4 21.95 9.65 19.95 32.7 21.15l-.1 14.6-.05.1-40.3-20.8 25.7 31.4q-11.4 5.7-26.25 6.65" fill="#a65a9a"/><path d="M86.1 188.3v30.05l-21.4 5.3q-9.8-13.4-19-28.1-7-11.15-13.65-23Q60.4 204.6 86.1 188.3" fill="#c16e57"/><path d="M162.9 133.35q-5.6 69.45 18.9 106.2l.25.5q10.9 18.95 28.9 29.55l.25.15-.25.45q-4.15 7.1-11.75 14.85l.1-14.6q-23.05-1.2-32.7-21.15 8.9 7.15 18.65 9.1-27.8-23.75-28-71.1-7.15 32.5-27.2 43.1l-22.75-58.25 18.9 27.15 15 21.05q.95-37.55 21.7-87" fill="#943372"/><path d="M67.1 171.8q-79.35-40.5-39.05-97.15L67.1 171.8" fill="#f2a67e"/></g><g id="D" fill-rule="evenodd"><path d="m286.35 72.85 19.95-23.8V94.1l30.85-40.75 36.7-25.65Q353.6 58.35 339.3 87.15l-41.85 63.3q3.95-22.4 10.35-45.65l2.5-6.65Q246.75 204 287.6 306.4L286.55 407q-8.75-4.75-16.8-9.6l-2.85-9.45-2.35-8.2q-42.65-155.9 21.8-306.9" fill="#743863"/><path d="M306.3 94.1V49.05l-19.95 23.8-32.15 38.3-24-53.1-5.8 8L215 79l-21.9 30.15-2.9-1.8Q164.15 91.2 138.05 89.1q1.85 4.55 3.15 9.3 1.95 6.9 2.85 14.2 5.1 42.4-25 98.7-100.5 158.45-68.9 274.45l.8 2.95 67.1-83.1 2.5 6.2v.05q12.5 30.3 29.2 49.45 5.45 6.3 11.35 11.4l9-30.05q26.7-33.2 47.15-82l.9-2.15q19.55 19.05 47.55 36.45l4.05 2.45q8.05 4.85 16.8 9.6l8.75 4.6q3.8-65.5-6-139.2l-1.3-8.3q-10.7-76.35 19.8-159.3-6.4 23.25-10.35 45.65-6.8 38.7-6.2 74.95.35 20.35 3 39.95l5.05 39.05q20.65 22.9 52.05 17.05-21.1-18.35-31.3-46.4-14.85-40.7-6.75-101.85Q344.4 80.85 393.4 14l-19.55 13.7-36.7 25.65-23.85 16.7-7 24.05m6-34.05Q360.4 11 411.45 0q-160.4 233.4-41.05 325.45-48.45 12.4-69.1-7V426.6l-78.15-52.05q-20.55 49.95-49.05 76.1-7.25 21.05-4 35.05-35.85-19-49.1-68.1l-71.1 87.1q-15.9-34.55-13-84.1L.85 448.65Q-8 353.7 77.95 241.3q90.2-110.75 44.1-157.2 31.55-4.45 69.1 15.05l42.05-54.1 22 50.05 57.1-66.05v31M98.95 233q9.15-17.4 18.55-34.25Q78.4 248.9 53.05 291q-15.95 26.5-26.5 49.75-24.3 53.7-19.7 90.35l4.1-3.9 26.45-25.65q2.4-33.8 16-74.6 21.85-48.8 45.55-93.95" fill="#3f152c"/><path d="m224.4 66.05 5.8-8 24 53.1-4 18.05-1.5-3.65-24.3-59.5m-34.2 41.3 8.95 28.85q-26.55-24.25-57.95-37.8-1.3-4.75-3.15-9.3 26.1 2.1 52.15 18.25" fill="#913371"/><path d="M286.35 72.85q-64.45 151-21.8 306.9l-1.95-2.05q-20.7-40.25-28.7-102.85 7.45-10.9 9.3-29l-4.1 3.45q-3.65 2.8-7.4 5.15-3.7-40.65-2.55-89.75-10.75 30.25-14.55 58.05-6.55 6.15-18-1.95-10.75-17.75 7.55-43.55 19.25-7.3 32.55-35.55 4.1-39.5-22.05-32.05-25.8 30.5-7.5 38.05-1.45-11.7 8.5-25.05 14.7-9.55 11 16.05-8.3 19.05-24.5 27-21.55 16.05-25.05 43.1 7.4 34.85 33.55 30.55l2.3-.85q-.9 12.4-.3 24.25-6.25 1.65-12.75 2.05.25-11.15-1.25-21.5-1.7 10.35-3.8 20.1-31.75-18.05-31.75-73.15l-7.5 18.05q-.15 15.55-4.2 28.65l-4.3-10.65q-13.5 20.9-10.8 38.3-5.2 6.05-11.75 11.3-4.5 3.15-8.55 6.8l33.6-94.95q-44.15 62.7-55 122.5-14.85 27.7-17.65 69.3 5.65-19.3 14.15-34.9 3.35-6.15 7.1-11.7 15.85-23.35 39.35-36.55 25.15-3.35 19.55 20.55-11.4 9.3-15.05-10.5-13.5 15.05 0 30.05 19.45 3.5 33.05-16.55-.85-41.9-37.55-37.05 18.7-9.8 24.05-31.05 11.45 16.8 31.05 21.15-10.15 41.6-28.05 71.95l-20.55 64.1q42.75-66.1 52.8-117.5l5.55-.15q-4.3 65.45-34.45 115.5l18.2-54.4-41.1 88.15-24.5-28.8v-.05q15.55-37 12.5-85.35-15.3 39.45-34.9 69.8-21.95 33.9-49.25 56.4Q60.25 375.5 89 291.4q73.5-147.65 55.05-178.8-.9-7.3-2.85-14.2 31.4 13.55 57.95 37.8l-8.95-28.85 2.9 1.8L215 79l33.7 46.55 1.5 3.65 4-18.05 32.15-38.3m-75.2 136.4q2-1.95 2-4.75t-2-4.8q-1.95-1.95-4.75-1.95t-4.8 1.95q-1.95 2-1.95 4.8t1.95 4.75q2 2 4.8 2t4.75-2m27.6 37.65q3.65-60.75 17.95-119.75-25.15 59.05-17.95 119.75" fill="#cb429d"/><path d="M192.65 273q-19.6-4.35-31.05-21.15-5.35 21.25-24.05 31.05 36.7-4.85 37.55 37.05-13.6 20.05-33.05 16.55-13.5-15 0-30.05 3.65 19.8 15.05 10.5 5.6-23.9-19.55-20.55-23.5 13.2-39.35 36.55-3.75 5.55-7.1 11.7.35-17.1 3.5-34.4 8.65-16.15 21.4-27.55 4.05-3.65 8.55-6.8 6.55-5.25 11.75-11.3 10.3-12.15 15.1-27.65 4.05-13.1 4.2-28.65l7.5-18.05q0 55.1 31.75 73.15l2.8 1.5 2.25-.1-.55 9.3-6.7-1.1m20.3-34.5-2.3.85q-26.15 4.3-33.55-30.55 3.5-27.05 25.05-43.1 16.2-7.95 24.5-27 3.7-25.6-11-16.05-9.95 13.35-8.5 25.05-18.3-7.55 7.5-38.05 26.15-7.45 22.05 32.05-13.3 28.25-32.55 35.55-18.3 25.8-7.55 43.55 11.45 8.1 18 1.95-1.15 7.95-1.65 15.75" fill="#ffed01"/><path d="M287.6 306.4Q246.75 204 310.3 98.15l-2.5 6.65q-30.5 82.95-19.8 159.3l-.4 42.3m9.85-155.95 41.85-63.3q-50.55 101.7-27.35 180.7-14.95-15.75-20.7-42.45-.6-36.25 6.2-74.95" fill="#48233f"/><path d="m224.4 66.05 24.3 59.5L215 79l9.4-12.95m-27.55 225.5q-10.05 51.4-52.8 117.5l20.55-64.1q17.9-30.35 28.05-71.95l6.7 1.1q-.6 6.7-1.8 13.75l-3.9 3.55 3.2.15M94.6 310.25q10.85-59.8 55-122.5L116 282.7q-12.75 11.4-21.4 27.55m41.7-45.65q-2.7-17.4 10.8-38.3l4.3 10.65q-4.8 15.5-15.1 27.65m58.55-1.2q2.1-9.75 3.8-20.1 1.5 10.35 1.25 21.5l-2.25.1-2.8-1.5m43.9-16.5q-7.2-60.7 17.95-119.75-14.3 59-17.95 119.75" fill="#f96bc6"/><path d="M337.15 53.35 306.3 94.1l7-24.05 23.85-16.7" fill="#a8599a"/><path d="M339.3 87.15q14.3-28.8 34.55-59.45L393.4 14q-49 66.85-80.1 159.2-8.1 61.15 6.75 101.85-4.35-3.25-8.1-7.2-23.2-79 27.35-180.7" fill="#7dcfea"/><path d="M53.05 291q25.35-42.1 64.45-92.25-9.4 16.85-18.55 34.25-33.65 43.7-54.8 87.4l8.9-29.4" fill="#954984"/><path d="M26.55 340.75Q37.1 317.5 53.05 291l-8.9 29.4q-9.9 20.4-17.1 40.8l-.5-20.45" fill="#f7e402"/><path d="m266.9 387.95 2.85 9.45-4.05-2.45-33.05-43 34.25 36M144.05 112.6Q162.5 143.75 89 291.4q-28.75 84.1-40.1 161.25 27.3-22.5 49.25-56.4l-48 89.5q-31.6-116 68.9-274.45 30.1-56.3 25-98.7m-23.5 299.25 24.5 28.8 41.1-88.15-18.2 54.4-18.2 54.4q-16.7-19.15-29.2-49.45M10.95 427.2l-4.1 3.9q-4.6-36.65 19.7-90.35l.5 20.45q-11.6 33-16.1 66" fill="#fff"/><path d="M98.95 233q-23.7 45.15-45.55 93.95-13.6 40.8-16 74.6L10.95 427.2q4.5-33 16.1-66 7.2-20.4 17.1-40.8 21.15-43.7 54.8-87.4" fill="#be2c86"/><path d="M91.1 344.65q-8.5 15.6-14.15 34.9 2.8-41.6 17.65-69.3-3.15 17.3-3.5 34.4m108.8-79.85q6.5-.4 12.75-2.05 9.85-2.6 19.05-8.3 3.75-2.35 7.4-5.15l4.1-3.45q-1.85 18.1-9.3 29-6.75 9.9-18.1 13.9-3.3 1.2-7 1.85l-3.35-10.05 6.65-6.15q-4.7.25-9.05 0l-3.7-.3.55-9.3m14.7-42.05q5.55-5.3 7.55-21 12.4 27.75-9.2 36.75.5-7.8 1.65-15.75" fill="#ffc301"/><path d="M98.15 396.25q19.6-30.35 34.9-69.8 3.05 48.35-12.5 85.35l-2.5-6.2-67.1 83.1-.8-2.95 48-89.5" fill="#b92d83"/><path d="M320.05 275.05q10.2 28.05 31.3 46.4-31.4 5.85-52.05-17.05l-5.05-39.05q-2.65-19.6-3-39.95 5.75 26.7 20.7 42.45 3.75 3.95 8.1 7.2" fill="#84366b"/><path d="m286.55 407 1.05-100.6.4-42.3 1.3 8.3q9.8 73.7 6 139.2l-8.75-4.6m-69.25-55.5-.05 9.15q-20.45 48.8-47.15 82l47.2-91.15" fill="#7ed1ed"/><path d="M211.15 209.25q-1.95 2-4.75 2t-4.8-2q-1.95-1.95-1.95-4.75t1.95-4.8q2-1.95 4.8-1.95t4.75 1.95q2 2 2 4.8t-2 4.75" fill="#fed703"/><path d="M212.65 262.75q-.6-11.85.3-24.25 21.6-9 9.2-36.75-2 15.7-7.55 21 3.8-27.8 14.55-58.05-1.15 49.1 2.55 89.75-9.2 5.7-19.05 8.3" fill="#703961"/><path d="M233.9 274.85q8 62.6 28.7 102.85-37.2-39.6-46.8-88.95 11.35-4 18.1-13.9" fill="#88356c"/><path d="M203.05 274.4q4.35.25 9.05 0l-6.65 6.15-2.4-6.15" fill="#a65a9a"/><path d="m199.35 274.1 3.7.3-.2 8.55-5.3 4.9q1.2-7.05 1.8-13.75" fill="#a6599a"/><path d="M167.95 406.9q30.15-50.05 34.45-115.5l6.4-.8q8.2 27.35 8.5 60.9l-47.2 91.15-9 30.05q-5.9-5.1-11.35-11.4l18.2-54.4m34.9-123.95.2-8.55 2.4 6.15-2.6 2.4" fill="#89356d"/><path d="m202.4 291.4-5.55.15.7-3.7 5.3-4.9-.45 8.45" fill="#f2d718"/><path d="m205.45 280.55 3.35 10.05-6.4.8.45-8.45 2.6-2.4" fill="#f9e505"/><path d="m264.55 379.75 2.35 8.2-34.25-36 33.05 43q-28-17.4-47.55-36.45l-.9 2.15.05-9.15q-.3-33.55-8.5-60.9 3.7-.65 7-1.85 9.6 49.35 46.8 88.95l1.95 2.05" fill="#b64f9b"/></g><g id="E" fill-rule="evenodd"><path d="M104.55 6.4Q101.6 91.05 69.8 143.6q-21.65 35.75-56.75 56.65 6.25 4.65 13.15 7.15 16.05 5.65 35.9-.65l7.1 13.45 11.45 21.6 28-23.55 3.5-3q6 7.4 13.15 12.05 9.5 6.1 21.05 7.3 4.3.4 8.85.15Q114.15 134.1 165.5 5.3q2.1.75 4.2 1.65-51.6 167.05-5 235.85-16.6 8-33.25.85-2.8-1.2-5.55-2.8l-4.75-3.1q-5.5-3.95-11-9.5l-31.5 19.55-19.55-34.05q-15.65 2.7-29.05.3-4.3-.75-8.35-2.05Q9.9 208.3 0 200.2 87.95 153.9 97.65 9.45q3.45-1.7 6.9-3.05" fill="#3f152c"/><path d="M104.55 6.4q11.8-4.75 23.65-5.95l-17.55 86.6L142.8.25q7.95.65 16 2.9L140.2 31q-35.1 94.6-14.9 196.3-7.15-4.65-13.15-12.05l-3.5 3q.85-31.1-6.65-60.95l-2.4-8.8-30.4 71.7-7.1-13.45q-19.85 6.3-35.9.65 42.75-20.2 43.6-63.8 31.8-52.55 34.75-137.2" fill="#a25c99"/><path d="M165.5 5.3q-51.35 128.8-10.3 229.45-4.55.25-8.85-.15Q109.7 134.05 161.6 4l3.9 1.3" fill="#7ccbe8"/><path d="M102 157.3q7.5 29.85 6.65 60.95l-28 23.55q15.3-31.35 21.35-84.5m23.3 70Q105.1 125.6 140.2 31l18.6-27.85 2.8.85q-51.9 130.05-15.25 230.6-11.55-1.2-21.05-7.3" fill="#6f3961"/><path d="m142.8.25-32.15 86.8L128.2.45q7.3-.8 14.6-.2" fill="#ffc301"/><path d="M69.8 143.6q-.85 43.6-43.6 63.8-6.9-2.5-13.15-7.15 35.1-20.9 56.75-56.65m-.6 76.6 30.4-71.7 2.4 8.8q-6.05 53.15-21.35 84.5L69.2 220.2" fill="#d57eca"/><path d="M21.7 212q4.05 1.3 8.35 2.05l-.5 2.35q-4.45 23.25-3.1 43.9.85 13.05 4.05 25.05l25.05-60.1-1.95 8.1-14.05 57.5 14.8-1.1q11.15-1.95 22.05-7.1l4.9-2.5q22.85-12.5 44.6-39.3 2.75 1.6 5.55 2.8-34.75 52.1-97.95 57.25v-12.05h-7q-12.65-29.1-4.8-76.85" fill="#331215"/><path d="M30.05 214.05q13.4 2.4 29.05-.3l19.55 34.05 31.5-19.55q5.5 5.55 11 9.5-18.35 26.75-39.85 42.4l-4.9 2.5 10.7-23.85q-21.6-10.85-31.2-33.65-1.3-3.1-2.35-6.4l-24-2.35.5-2.35m-3.6 46.25 29.1-35.05-25.05 60.1q-3.2-12-4.05-25.05" fill="#451c1b"/><path d="m29.55 216.4 24 2.35q1.05 3.3 2.35 6.4 9.6 22.8 31.2 33.65l-10.7 23.85q-10.9 5.15-22.05 7.1l-.75-56.4 1.95-8.1-29.1 35.05q-1.35-20.65 3.1-43.9" fill="#6c2d2c"/><path d="m53.6 233.35.75 56.4-14.8 1.1 14.05-57.5" fill="#905150"/><path d="m121.15 237.75 4.75 3.1q-21.75 26.8-44.6 39.3 21.5-15.65 39.85-42.4" fill="#7ed1ed"/></g><g id="F" fill-rule="evenodd"><path d="M23.5 43.15q9.2-9.8 19.15-17.35Q51.7 55.75 77.6 57.15 99 52.75 106.2.65q26.25-2.6 56.05 5.15l-7.6 33.05-.75 3.25-1.2 6.05-11.05 19.55-13-33.05V27.1l-14.6 17.45-60.5 49.1-30.05-50.5" fill="#c87b4e"/><path d="M28.7 74.15q5.05 5 9.5 10.4 10.85 13.15 18.35 28.7l57.5-68.7 14.6-17.45v74.1l28.6-11.55 8.5-3.45 12.95-5.25 24.1-9.8-39.05 89.15 38.05 10-80.15 52.1q-23.3 58.1-50.05 92.15l-7.95 4.35 53-104.55 71.1-43.05-10.45-1.5-24.6-3.5 1.1-2.55 33.95-78.6-6.9 2.8L154.2 98.7l-21.9 8.8-11.65 4.7V48.1l-2.85 3.55-6.65 8.3-17.7 21.95-32.6 40.45-2.3 2.85L14.5 73.15l.4 15.05.3 11.5.7 25.1 2.6 99.55q-14.25 52.15-7.75 92.5-3.8-3.15-7.25-7.35-10.6-46 11-86.1l-9-168.25q12.8 8.65 23.2 19" fill="#3f152c"/><path d="m14.9 88.2-.4-15.05 44.05 52.05 2.3-2.85-3.3 36.95-28.2-47L14.9 88.2" fill="#7c3767"/><path d="m15.2 99.7-.3-11.5 14.45 24.1q5.15 16.05 7.9 30.2L15.2 99.7" fill="#fca2db"/><path d="m28.7 74.15-5.2-31 14.7 41.4q-4.45-5.4-9.5-10.4M175 9.65h.4q3.1 31.15 13.35 58l-10.05 13.3-12.95 5.25 14.5-21.55q-8.15-24.8-5.25-55" fill="#511c1a"/><path d="m38.2 84.55-14.7-41.4 30.05 50.5 60.5-49.1-57.5 68.7q-7.5-15.55-18.35-28.7M162.25 5.8l10.6 3.05 1.85.6q-7.9 29.15-2.5 51.7l-14.95 28.5-28.6 11.55V34.65l13 33.05 11.05-19.55 1.2-6.05.75-3.25 7.6-33.05" fill="#9b5535"/><path d="M42.65 25.8q6.95-5.35 14.3-9.55Q72.35 61.15 80.1 6 92.65 1.95 106.2.65q-7.2 52.1-28.6 56.5-25.9-1.4-34.95-31.35" fill="#e58c5a"/><path d="m117.8 51.65 2.85-3.55v64.1l11.65-4.7q-22.9 40-39.25 58.8 12.05-28.45 10.6-59.1-3.95 7.1-8.05 13.6l22.2-69.15" fill="#a5307a"/><path d="m15.9 124.8-.7-25.1 22.05 42.8q3.1 15.6 3.25 28.8l-24.6-46.5m77.55-42.9 17.7-21.95L88.05 132q-4.75 6.65-9.7 12.5l15.1-62.6m60.75 16.8 26.65-10.75q-60.7 54.75-87.2 113.65 10.6-49.65 60.55-102.9" fill="#f96bc6"/><path d="m111.15 59.95 6.65-8.3-22.2 69.15q-3.7 5.85-7.55 11.2l23.1-72.05" fill="#fff"/><path d="M56.95 16.25Q68.1 9.85 80.1 6q-7.75 55.15-23.15 10.25" fill="#f2a67d"/><path d="m174.7 9.45.3.1v.1q-2.9 30.2 5.25 55l-14.5 21.55-8.5 3.45 14.95-28.5q-5.4-22.55 2.5-51.7M63.65 318.9l-6.9 3.05 53.35-108.1 61.8-40.5 5.4-3.55 10.45 1.5-71.1 43.05-53 104.55m117.2-230.95 6.9-2.8-33.95 78.6 27.05-75.8" fill="#7ed1ed"/><path d="m152.7 166.3 24.6 3.5-5.4 3.55-29.2 5.95 10-13" fill="#b64f9b"/><path d="M95.6 120.8q4.1-6.5 8.05-13.6 1.45 30.65-10.6 59.1-3.25 7.55-7.45 15 3.6 18.1 2.35 34.1-.95 11.75-4.45 22.35-2.4 7.05-5.9 13.65-15.05 7.6-25.3 4.9-12.25-3.2-17.75-20.9 8.15-29.2 30-24.05-17.85 13.05-13 26.05 18.3 12.8 19.05-16l4-50.1q-26.2 15.15-39.05 7 22.7-9.95 42.8-33.8 4.95-5.85 9.7-12.5 3.85-5.35 7.55-11.2M50.05 266.45l12.5 8-7.1 13.55-25.6 22 .3-2.2 7.4-49.35 12.5 8" fill="#ffed01"/><path d="m132.3 107.5 21.9-8.8q-49.95 53.25-60.55 102.9-3.1 6.85-5.7 13.8 1.25-16-2.35-34.1 4.2-7.45 7.45-15 16.35-18.8 39.25-58.8" fill="#cb429d"/><path d="M56.75 321.95q-5.4 2.05-10.5 3.15 34.05-49.25 37.25-87.35 3.5-10.6 4.45-22.35 2.6-6.95 5.7-13.8 26.5-58.9 87.2-113.65l-27.05 75.8-1.1 2.55-10 13 29.2-5.95-61.8 40.5-53.35 108.1" fill="#9b3275"/><path d="M27.55 325.25q-9.1-2.05-16.8-8.4-6.5-40.35 7.75-92.5l-2.6-99.55 24.6 46.5q-.15-13.2-3.25-28.8-2.75-14.15-7.9-30.2l28.2 47 3.3-36.95 32.6-40.45-15.1 62.6q-20.1 23.85-42.8 33.8 12.85 8.15 39.05-7l-4 50.1q-.75 28.8-19.05 16-4.85-13 13-26.05-21.85-5.15-30 24.05-15.6 40.05-4.4 72.4l-.3 2.2-2.3 15.25" fill="#b3519b"/><path d="m46.25 325.1-8.9 1.05q8.35-19.1 18.1-38.15l7.1-13.55-12.5-8 2.25-10.15q10.25 2.7 25.3-4.9 3.5-6.6 5.9-13.65-3.2 38.1-37.25 87.35" fill="#a25c99"/><path d="m52.3 256.3-2.25 10.15-12.5-8-7.4 49.35q-11.2-32.35 4.4-72.4 5.5 17.7 17.75 20.9" fill="#d57eca"/><path d="M37.35 326.15q-5.1.15-9.8-.9l2.3-15.25 25.6-22q-9.75 19.05-18.1 38.15" fill="#ffc301"/></g><g id="G" fill-rule="evenodd"><path d="M160.5 102.2q84.1 3.15 136.3-62.35h-5.5q-13.45-.3-25.4-2-20.55-3.05-36.7-10.5l-19.05-6.8-34-12.2Q89.45-2.6 21.75 44.75L12.3 51.7l7.55 1.3.65.1q29.35 6.1 53 26.85Q96 92.75 126.85 98.4q17.4 3.15 33.65 3.8m-19.9 6.25q-36.7-3.7-64.6-18-34.05-28.2-76-37.1Q106.2-27.1 213.7 13.8 267.15 42 316.85 30.85q-56.9 90.65-176.25 77.6" fill="#3f152c"/><path d="M291.3 39.85h5.5q-52.2 65.5-136.3 62.35 89.8-9.95 130.8-62.35" fill="#7ed1ed"/><path d="M160.5 102.2q-16.25-.65-33.65-3.8Q96 92.75 73.5 79.95 49.85 59.2 20.5 53.1q19.5 2.95 39.7 8.1 79.6 53.6 142 17.25l23.9-15.25 39.8-25.35q11.95 1.7 25.4 2-41 52.4-130.8 62.35" fill="#763864"/><path d="m210.15 20.55 19.05 6.8q16.15 7.45 36.7 10.5L226.1 63.2q2-11.85-1.25-18.15-4.25-8.15-17.15-7.15 13.7 24.8-15.55 21-23.1-4.45-29.55-25.55Q121.75 26.4 83.35 40q-12.9-4.15-27.4-5.15 75.55-19.65 154.2-14.3m-15.6 16.15q-2.35-2.35-5.75-2.35T183 36.7q-2.35 2.4-2.35 5.8t2.35 5.75q2.4 2.4 5.8 2.4t5.75-2.4q2.4-2.35 2.4-5.75t-2.4-5.8" fill="#b5509b"/><path d="M194.55 36.7q2.4 2.4 2.4 5.8t-2.4 5.75q-2.35 2.4-5.75 2.4t-5.8-2.4q-2.35-2.35-2.35-5.75t2.35-5.8q2.4-2.35 5.8-2.35t5.75 2.35M83.35 40q38.4-13.6 79.25-6.65 6.45 21.1 29.55 25.55 29.25 3.8 15.55-21 12.9-1 17.15 7.15l-32.4 32.9q-28.65-3.5-38.85-30.05-30.45-4.7-60.35-4.15L71 44.9q6.15-2.7 12.35-4.9" fill="#ffed01"/><path d="M21.75 44.75q67.7-47.35 154.4-36.4l34 12.2q-78.65-5.35-154.2 14.3 14.5 1 27.4 5.15-6.2 2.2-12.35 4.9l22.25-1.15q17.95 7.95 32.3 22.65-33.2-17.65-66.45-15.7-18.45-4.95-37.35-5.95" fill="#f96bc6"/><path d="M224.85 45.05q3.25 6.3 1.25 18.15l-23.9 15.25-9.75-.5 32.4-32.9" fill="#ffc301"/><path d="m192.45 77.95 9.75.5q-62.4 36.35-142-17.25 33.55 8.55 68.85 23.25-34.2-24.2-69.95-33.75 33.25-1.95 66.45 15.7-14.35-14.7-32.3-22.65 29.9-.55 60.35 4.15 10.2 26.55 38.85 30.05" fill="#bd4b9c"/><path d="m20.5 53.1-.65-.1-7.55-1.3 9.45-6.95q18.9 1 37.35 5.95 35.75 9.55 69.95 33.75-35.3-14.7-68.85-23.25-20.2-5.15-39.7-8.1" fill="#fff"/></g><use ffdec:characterId="2" height="461.45" width="743.2" xlink:href="#t" id="c"/><use ffdec:characterId="14" height="190.95" width="101.05" xlink:href="#u" id="e"/><use ffdec:characterId="16" height="200.45" width="214.35" xlink:href="#v" id="f"/><use ffdec:characterId="18" height="274.35" width="102.05" xlink:href="#w" id="g"/><use ffdec:characterId="20" height="342.9" width="169.25" xlink:href="#x" id="h"/><use ffdec:characterId="22" height="264.8" width="136.7" xlink:href="#y" id="i"/><use ffdec:characterId="24" height="400.2" width="540.25" xlink:href="#z" id="j"/><use ffdec:characterId="26" height="299.7" width="156.7" xlink:href="#A" id="k"/><use ffdec:characterId="28" height="192.6" width="246.85" xlink:href="#B" id="l"/><use ffdec:characterId="30" height="302.55" width="218.05" xlink:href="#C" id="m"/><use ffdec:characterId="32" height="504.7" width="411.45" xlink:href="#D" id="n"/><use ffdec:characterId="34" height="300.9" width="169.7" xlink:href="#E" id="o"/><use ffdec:characterId="36" height="326.15" width="202.8" xlink:href="#F" id="p"/><use ffdec:characterId="38" height="110.1" width="316.85" xlink:href="#G" id="q"/><path d="M27.75 0q0 2-8.15 3.4Q11.5 4.9 0 4.9q-11.5 0-19.65-1.5-8.1-1.4-8.1-3.4 0-2.05 8.1-3.5Q-11.5-4.9 0-4.9q11.5 0 19.6 1.4 8.15 1.45 8.15 3.5" fill-opacity=".349" fill-rule="evenodd" transform="translate(27.75 4.9)" id="b"/></defs></svg>