<svg xmlns:ffdec="https://www.free-decompiler.com/flash" xmlns:xlink="http://www.w3.org/1999/xlink" ffdec:objectType="frame" height="90" width="90" xmlns="http://www.w3.org/2000/svg"><use ffdec:characterId="19" height="90" transform="translate(-11.35)" width="109.25" xlink:href="#a"/><defs><g id="a" transform="translate(11.35)"><use ffdec:characterId="16" height="141.3" transform="matrix(.5594 0 0 .5588 -11.344 .178)" width="195.3" xlink:href="#b"/><use ffdec:characterId="18" height="69.5" transform="scale(1.1118 1.295)" width="80.95" xlink:href="#c"/></g><g id="b" transform="translate(30.65 -6.85)"><use ffdec:characterId="1" height="28.75" transform="matrix(1.0717 0 0 .9943 19.667 117.582)" width="76.2" xlink:href="#d"/><use ffdec:characterId="3" height="60.15" transform="translate(70.174 27.18) scale(.9589)" width="84.5" xlink:href="#e"/><use ffdec:characterId="5" height="59.1" transform="translate(-11.12 29.88) scale(.9589)" width="59.35" xlink:href="#f"/><use ffdec:characterId="7" height="28.55" transform="translate(38.48 38.73) scale(.9589)" width="17.05" xlink:href="#g"/><use ffdec:characterId="9" height="59.05" transform="translate(29.43 52.73) scale(.9589)" width="58.85" xlink:href="#h"/><use ffdec:characterId="11" height="27.8" transform="translate(62.28 37.28) scale(.9589)" width="16.55" xlink:href="#i"/><use ffdec:characterId="12" height="36.85" transform="translate(30.725 65.28) scale(.9589)" width="47.95" xlink:href="#j"/></g><g id="l"><path d="M94.1 5.6q-5.35 1.1-9.3 2.75Q81.95 6.2 78 6.2q-4.1 0-7.05 2.3-2.85 2.25-2.85 5.5t2.85 5.55q1.3.95 2.8 1.55-.35 3.05.45 6.65-5.05-1.25-9.3-.5l-.05-.15-.85-.85q-2.35-2.2-6.2-2.2-4.6-.15-7.6 2.75-3.05 2.8-3.55 8-.6 5.15 1.95 10.8l.05.15q-.6 4.7.7 10.5-2.65-1.7-5.45-2.7l-.15-.55q-1.05-3.85-3-6.25-2-2.45-4.1-2.45-2.1 0-4.15 2.6-1.8 2.25-1.05 5.75-6.6 1.05-14.1 5.15l-1.45.85-3.45-8.75 3.55-.6q9.45-1.75 12.95-6.4l.5-.7q2.65-3.3 5.25-3.3l1.1.15q1.85.45 4.05 3.15 1.8 2.3 3.85 6.2l.3-2.8-.45-3.4q-.45-1.8-1.3-3.85-4.6-7.8-.25-9.6 8.85-4 11.6-7.1Q57.05 17.2 64 20.3q2.5 1.05 5.4 3.1-.45-4.1-5.4-7.65l-.5-.45-2.15-1.35Q53.9 9.55 58.8 6.5q.85-.6 2.4-.9l.1.1q-.7.65-.7 1.6 0 .9.7 1.55.7.7 1.6.7.9 0 1.55-.7.7-.65.7-1.55 0-.95-.7-1.6-.35-.4-.75-.55 7.05-.9 22.55 0l7.85.45" fill="#d96a6b" fill-rule="evenodd" transform="translate(-10.35 .75)"/><path d="m94.1 5.6-7.85-.45q-15.5-.9-22.55 0L62.9 5q-.75 0-1.4.55l-.3.05q-1.55.3-2.4.9-4.9 3.05 2.55 7.45l2.15 1.35.5.45q4.95 3.55 5.4 7.65-2.9-2.05-5.4-3.1-6.95-3.1-10.4 1.35-2.75 3.1-11.6 7.1-4.35 1.8.25 9.6.85 2.05 1.3 3.85l.45 3.4q-1.3-2.85-3.8-6.35-4.45-6.1-6.55-6.1-1.25 0-1.25 1.7 0 1 1.55 3.05l.75 1q-2.6 0-5.25 3.3l-.5.7q-3.5 4.65-12.95 6.4l-3.55.6-1.35-3.5q5.75-1.8 9.6-4.2 7.4-4.6 7.8-11.55v-.1l1.5.3q1.5 0 1.5-1.2 0-.75-.95-3.3l-1.3-2.9q-.7-1.2-1.5-3.45 4.65 1.7 6.55 4.35l3.05-.15.3 1.3q.5 1.95 5.1.85 4.65-1.15 9.15-5.4 4.55-4.3 7.8-3.45l3.8.5-3.5-2.7q-5.6-4.45-5.6-6.3-.05-2.4 3.7-3.4l6.5-1.4 5.45-.95 4.8-.95q2-.55 1.8-1.65l-.1-.4q4.85.55 9.7 2.1 3.9 1.3 7.85 3.25" fill="#3a2b92" fill-rule="evenodd" transform="translate(-10.35 .75)"/><path d="m44 45.6-.3 2.8q-2.05-3.9-3.85-6.2-2.2-2.7-4.05-3.15l-1.1-.15-.75-1q-1.55-2.05-1.55-3.05 0-1.7 1.25-1.7 2.1 0 6.55 6.1 2.5 3.5 3.8 6.35M76.55.25l.1.4q.2 1.1-1.8 1.65l-4.8.95-5.45.95-6.5 1.4q-3.75 1-3.7 3.4 0 1.85 5.6 6.3l3.5 2.7-3.8-.5q-3.25-.85-7.8 3.45-4.5 4.25-9.15 5.4-4.6 1.1-5.1-.85l-.3-1.3q10.1-1.2 13.3-8.9 1.75-4.4 1.2-10.9 12.4-5.5 24.7-4.15M27.75 20q.8 2.25 1.5 3.45l1.3 2.9q.95 2.55.95 3.3 0 1.2-1.5 1.2l-1.5-.3q-2.35-5.3-2.15-11l1.4.45" fill="#7c5fd3" fill-rule="evenodd" transform="translate(-10.35 .75)"/><path d="M63.7 5.15q.4.15.75.55.7.65.7 1.6 0 .9-.7 1.55-.65.7-1.55.7t-1.6-.7q-.7-.65-.7-1.55 0-.95.7-1.6l.2-.15 2.2-.4m-32.25 47.5q-.75-3.5 1.05-5.75 2.05-2.6 4.15-2.6 2.1 0 4.1 2.45 1.95 2.4 3 6.25l.15.55q-5.8-2.05-12.45-.9M48.6 45.6q-2.55-5.65-1.95-10.8.5-5.2 3.55-8 3-2.9 7.6-2.75 3.85 0 6.2 2.2l.85.85.05.15-.9.2Q56.7 29.2 52 37.5q-2.65 3.5-3.25 8.1h-.15m25.15-24.5q-1.5-.6-2.8-1.55-2.85-2.3-2.85-5.55t2.85-5.5Q73.9 6.2 78 6.2q3.95 0 6.8 2.15-10.1 4.3-11.05 12.75" fill="#fcad7d" fill-rule="evenodd" transform="translate(-10.35 .75)"/><path d="M83.75 6.35 75.9 5.9q-15.5-.9-22.55 0l-2.2.4-.3.05q-1.55.3-2.4.9-4.9 3.05 2.55 7.45l2.15 1.35.5.45q4.95 3.55 5.4 7.65-2.9-2.05-5.4-3.1-6.95-3.1-10.4 1.35-2.75 3.1-11.6 7.1-4.35 1.8.25 9.6.85 2.05 1.3 3.85l.45 3.4-.3 2.8q-2.05-3.9-3.85-6.2-2.2-2.7-4.05-3.15l-1.1-.15q-2.6 0-5.25 3.3l-.5.7q-3.5 4.65-12.95 6.4l-3.55.6m81.65-44.3Q79.8 4.4 75.9 3.1 71.05 1.55 66.2 1 53.9-.35 41.5 5.15q.55 6.5-1.2 10.9-3.2 7.7-13.3 8.9l-3.05.15q-1.9-2.65-6.55-4.35L16 20.3q-.2 5.7 2.15 11v.1q-.4 6.95-7.8 11.55-3.85 2.4-9.6 4.2" fill="none" stroke="#231667" stroke-linecap="round" stroke-linejoin="round" stroke-width="1.5"/><path d="M74.45 9.1q3.95-1.65 9.3-2.75M5.55 59.4 7 58.55q7.5-4.1 14.1-5.15 6.65-1.15 12.45.9 2.8 1 5.45 2.7-1.3-5.8-.7-10.5l.1-.15q.6-4.6 3.25-8.1 4.7-8.3 12-10.05l.9-.2q4.25-.75 9.3.5-.8-3.6-.45-6.65.95-8.45 11.05-12.75" fill="none" stroke="#9c3636" stroke-linecap="round" stroke-linejoin="round" stroke-width="1.5"/></g><g id="m"><path d="M13 20.65q1.95-.95 3.55-2.1 3.85-2.75 3.85-5.15 0-3.1-2.75-5.15-2.4-1.8-5.25-1.8h-.8q-1.5-1.8-3.75-3.55l-.9-.7.9.15Q27.8 6.9 22.5 16.45q-3.55 3-8.9 9.2 2.4-1.35 4.45-2.05 8.3-2.8 11.8 4l.05.15v.15h.1q1.2 2.15-.75 6.75-1.55 2.7-2.5 8.3l2.8-2.5Q37.8 33.2 39.8 35.1l.4.55q3.95 5.65 11.8 11l1.9 1.2 1.3.85-3 8.9q-5.35-5.5-10.35-8.35l.3-1.6q.25-2.95-1.25-4.85-1.55-1.9-4.2-1.9-4.3 0-4.95 5.1-4.4-.25-8.5 1.7.6-3.6.3-6.65l2.75-3.6 1.35-2.95q.75-2.1.75-3.25v-.15q-.05-1.9-1.5-3.35-1.5-1.5-3.35-1.5-3.15 0-5.6 2.25-.95.95-1.55 2.15-3.65-2-9-2.75 3.75-3.75 5.6-7.25" fill="#d96a6b" fill-rule="evenodd" transform="translate(.75 .75)"/><path d="M11.6 6.45h.8q2.85 0 5.25 1.8 2.75 2.05 2.75 5.15 0 2.4-3.85 5.15-1.6 1.15-3.55 2.1 3.9-7.65-1.4-14.2m4.8 24.2q.6-1.2 1.55-2.15 2.45-2.25 5.6-2.25 1.85 0 3.35 1.5 1.45 1.45 1.5 3.35l-.05.05.05.1q0 1.15-.75 3.25l-1.35 2.95-2.75 3.6q-.8-7.1-7.15-10.4M31.75 46q.65-5.1 4.95-5.1 2.65 0 4.2 1.9 1.5 1.9 1.25 4.85l-.3 1.6q-5.3-3.05-10.1-3.25" fill="#fcad7d" fill-rule="evenodd" transform="translate(.75 .75)"/><path d="m55.2 48.7-1.3-.85-1.9-1.2q-7.85-5.35-11.8-11l-.4-.55q-2-1.9-10.25 5.35 1.55-4.95 6.35-10.1 5.05-5.55 5.05-8.2l-.05-.95q2.85-1.35 3.75-1.2.75 2.6-1.75 8.05Q41.3 37.6 57.85 41l-2.65 7.7M29.85 27.6q-3.5-6.8-11.8-4l1.8-1.6q1.45-1.05 3.1-1.05 2.3 0 4.55 2 2.4 2.1 2.4 4.6l-.05.05m9.95-5.9q-.5 1.55-1.5 2.5-2.1 2-4.45 1.75-2.4-.3-4.7-3.7-2.35-3.4-3.75-6.6V10.7q-.85-5.45-7-7.75L9.1 0q11.35 0 18.25 6.3-.4 9.5 1.65 12.6 2.05 3.1 3.55 4.4 1.5 1.3 6.2-1.15.55-.3 1.05-.45m2.05 2.75q.6 0 1.05-1.5l-.2-.65-.15.1q-1.2.75-1.3 1 .1 1.05.6 1.05m-1.35 9.3q0 1.35 1.15 3.1 1.1 1.65 2.35 1.65 1.1 0 1.05-.6-.1-.7-1.55-2.4-1.5-1.85-2.55-1.85l-.45.1h-.1q-.2.05-.25.25l.35-.25" fill="#3a2b92" fill-rule="evenodd" transform="translate(.75 .75)"/><path d="m29.55 40.45-2.8 2.5q.95-5.6 2.5-8.3 1.95-4.6.75-6.75l-.1-.15v-.2q0-2.5-2.4-4.6-2.25-2-4.55-2-1.65 0-3.1 1.05l-1.8 1.6q-2.05.7-4.45 2.05 5.35-6.2 8.9-9.2Q27.8 6.9 7.85 2.35l-.9-.15-1.4-.3-.35-.05L0 .95Q4.8 0 9.1 0l9.3 2.95q6.15 2.3 7 7.75v4.95q1.4 3.2 3.75 6.6 2.3 3.4 4.7 3.7 2.35.25 4.45-1.75 1-.95 1.5-2.5l1.1-.5.05.95q0 2.65-5.05 8.2-4.8 5.15-6.35 10.1m12.3-16q-.5 0-.6-1.05.1-.25 1.3-1l.15-.1.2.65q-.45 1.5-1.05 1.5m-1.35 9.3.45-.1q1.05 0 2.55 1.85 1.45 1.7 1.55 2.4.05.6-1.05.6-1.25 0-2.35-1.65-1.15-1.75-1.15-3.1" fill="#7c5fd3" fill-rule="evenodd" transform="translate(.75 .75)"/><path d="m55.95 49.45-1.3-.85-1.9-1.2q-7.85-5.35-11.8-11l-.4-.55q-2-1.9-10.25 5.35l-2.8 2.5q.95-5.6 2.5-8.3 1.95-4.6.75-6.75l-.1-.15-.05-.15q-3.5-6.8-11.8-4-2.05.7-4.45 2.05 5.35-6.2 8.9-9.2Q28.55 7.65 8.6 3.1l-.9-.15.9.7M9.85.75q-4.3 0-9.1.95l5.2.9.35.05 1.4.3m33.95 19q2.85-1.35 3.75-1.2.75 2.6-1.75 8.05-1.6 9.55 14.95 12.95M9.85.75q11.35 0 18.25 6.3-.4 9.5 1.65 12.6 2.05 3.1 3.55 4.4 1.5 1.3 6.2-1.15.55-.3 1.05-.45l1.1-.5" fill="none" stroke="#231667" stroke-linecap="round" stroke-linejoin="round" stroke-width="1.5"/><path d="M13.75 21.4q-1.85 3.5-5.6 7.25 5.35.75 9 2.75 6.35 3.3 7.15 10.4.3 3.05-.3 6.65 4.1-1.95 8.5-1.7 4.8.2 10.1 3.25 5 2.85 10.35 8.35M8.6 3.65q2.25 1.75 3.75 3.55 5.3 6.55 1.4 14.2" fill="none" stroke="#9c3636" stroke-linecap="round" stroke-linejoin="round" stroke-width="1.5"/></g><g id="n"><path d="M3.8 24.05q-1.9-2.2-3.05-6Q-.9 13 1.05 8q1.6-4.25 4.05-6.55-1.85 9.75 2.4 15 1.2 1.55-.15 4.7-.85 2-3.55 2.9" fill="#7c5fd3" fill-rule="evenodd" transform="translate(.75 .75)"/><path d="M5.1 1.45 6 .6q2.95-2.35 1.7 4.45-1.2 6.75 3.6 11.05 4.75 4.25 4.2 7.4-.5 3.1-4.15 3.5-3.65.35-6.25-1.75l-1.3-1.2q2.7-.9 3.55-2.9 1.35-3.15.15-4.7-4.25-5.25-2.4-15" fill="#3a2b92" fill-rule="evenodd" transform="translate(.75 .75)"/><path d="m5.85 2.2.9-.85Q9.7-1 8.45 5.8q-1.2 6.75 3.6 11.05 4.75 4.25 4.2 7.4-.5 3.1-4.15 3.5-3.65.35-6.25-1.75l-1.3-1.2q-1.9-2.2-3.05-6-1.65-5.05.3-10.05Q3.4 4.5 5.85 2.2z" fill="none" stroke="#231667" stroke-linecap="round" stroke-linejoin="round" stroke-width="1.5"/></g><g id="o"><path d="M15 4.5q3.55-1.55 7.85-2.1l.6-.05q.7 2-3.95 3.6 3.65 2.8.7 6.75-3.1 3.9-6.3 0-5.95-2.6-9.95 14.05-2.25 8.9-1.8 17.45-2-3.9-2.15-9-.35-9.75 6.95-21.7 3.5-5.75 8.05-9m11.45 7.05q-.6.55-1.4.55-.85 0-1.45-.55-.6-.45-.6-1.15 0-.65.6-1.2.6-.45 1.45-.45.8 0 1.4.45.65.55.65 1.2 0 .7-.65 1.15" fill="#f6a9ff" fill-rule="evenodd" transform="translate(.75 .75)"/><path d="M23.45 2.35 22.7.9l3.45-.7q11.95-1.35 20.5 7.65 6.2 6.55 8.95 15.05.15 2.95-.1 5.75l-.75 6.7q-.6 3.55-1.8 7.05-1.1 3-3.05 5.75-2.05 2.65-5.3 4.3t-6.5 2.4L30.95 56l-8.05.45-1.35-.05q-9.05-1.85-14.2-5.9-2.5-2-4.1-4.4l.6.4q8.65 5.1 18.45 4.95 9.85-.15 16.85-6.25 7-6.05 6.45-17.55-.6-11.5-6.95-19.05-6.2-7.35-15.2-6.25" fill="#3a2b92" fill-rule="evenodd" transform="translate(.75 .75)"/><path d="m21.55 56.4 1.35.05 8.05-.45 7.15-1.15q3.25-.75 6.5-2.4t5.3-4.3q1.95-2.75 3.05-5.75 1.2-3.5 1.8-7.05l.75-6.7q.25-2.8.1-5.75.9 3.1 1.4 6.4 1.9 12.55-6.4 21.05-8.4 8.35-22.3 7l-6.75-.95" fill="#57c7dd" fill-rule="evenodd" transform="translate(.75 .75)"/><path d="M23.45 2.35q9-1.1 15.2 6.25Q45 16.15 45.6 27.65q.55 11.5-6.45 17.55-7 6.1-16.85 6.25-9.8.15-18.45-4.95l-.6-.4-1.1-1.9q-.45-8.55 1.8-17.45 4-16.65 9.95-14.05 3.2 3.9 6.3 0 2.95-3.95-.7-6.75 4.65-1.6 3.95-3.6m3 9.2q.65-.45.65-1.15 0-.65-.65-1.2-.6-.45-1.4-.45-.85 0-1.45.45-.6.55-.6 1.2 0 .7.6 1.15.6.55 1.45.55.8 0 1.4-.55" fill="url(#k)" fill-rule="evenodd" transform="translate(.75 .75)"/><path d="M23.45 1.65q-4.15 1.05-7.7 3.6-4.55 3.25-8.05 9Q.4 26.2.75 35.95q.15 5.1 2.15 9l1.1 1.9q1.6 2.4 4.1 4.4 5.15 4.05 14.2 5.9l6.75.95q13.9 1.35 22.3-7 8.3-8.5 6.4-21.05-.5-3.3-1.4-6.4-2.75-8.5-8.95-15.05-8.55-9-20.5-7.65l-3.45.7z" fill="none" stroke="#231667" stroke-linecap="round" stroke-linejoin="round" stroke-width="1.5"/></g><g id="p"><path d="M14.3 25.75q.3-1.1.35-.95l-.3 1.65-.05-.7m-.4.75h-.2l-.1.15q-.15-.05-.6-.5l-1.75-1.65-1.1-1.3-1.3-1.6-1.05-1.35-.1-.15.15.05q3.05.9 4.85 2.5l.55.55q.5.5.65 3.3m-8.5-6.1q-1 .5-1.25-.75 3.65-7.55 3.5-14.3L7.2.9 8.95 4 9 5.35q.15 6.75-3.6 15.05" fill="#231667" fill-rule="evenodd" transform="translate(.75 .75)"/><path d="M8.5 1.05q1.55 1.65 2.9 4.3 1.3 2.55 2.45 6.1 2.1 6.9.45 14.3l.05.7v.05h-.45q-.15-2.8-.65-3.3l-.55-.55q-.05-10.05-3.15-17.3L8.95 4 8.5 1.05" fill="#57c7dd" fill-rule="evenodd" transform="translate(.75 .75)"/><path d="m13.6 26.65.45.4Q6.45 21.4 5.4 20.4 9.15 12.1 9 5.35L8.95 4l.6 1.35q3.1 7.25 3.15 17.3-1.8-1.6-4.85-2.5l-.15-.05.1.15 1.05 1.35 1.3 1.6 1.1 1.3L13 26.15q.45.45.6.5" fill="#3a2b92" fill-rule="evenodd" transform="translate(.75 .75)"/><path d="M4.15 19.65q-.9-.9-1.85-1.2L.15 17.8q.45-.15-.15-.45v-.45q3.55-5.65 4.85-9.15l.9-2.4L7.2.9l.45 4.45q.15 6.75-3.5 14.3" fill="#7c5fd3" fill-rule="evenodd" transform="translate(.75 .75)"/><path d="m7.95 1.65.2-.9 1.1 1.05q1.55 1.65 2.9 4.3 1.3 2.55 2.45 6.1 2.1 6.9.45 14.3M.75 17.65Q4.3 12 5.6 8.5l.9-2.4 1.45-4.45" fill="none" stroke="#231667" stroke-linecap="round" stroke-linejoin="round" stroke-width="1.5"/></g><g id="j"><path d="M31.45 54.4v.1h-.05v.3h.15l-.1-.55.6 1.05q.9 1.45.85 2.15-5.8-7.65-12.5-8.7-8.45-1.5-11.75 5.2-.3-1.65.2-2.55 2.65-5.75 11.8-4.15 4.45.65 7.55 3.4l1.35 1.4 1.9 2.35" fill="#231667" fill-rule="evenodd" transform="translate(-.6 -28.45)"/><path d="m31.45 54.4-1.9-2.35-1.35-1.4 4.25-2-.7 5.6h-.3v.15" fill="#fff" fill-rule="evenodd" transform="translate(-.6 -28.45)"/><path d="m27.6 22.2 4.25-2-.7 5.6" fill="none" stroke="#81a3ce" stroke-linecap="round" stroke-linejoin="round" stroke-width=".75"/><path d="m45 43.75-1 .1q-1.5.2-2.65 1.5h-.05q-1.3 1.3-1 3.55.25 2.25 2.65 2.5 2.4.2 3.4-.55h-.05q1.05-.9 1.05-2.35-.1-1.5-1.2-1.55l-2 .15q-.65.3-.65 1.05t.65.9l1.65.15q-.2.55-1.95.75-1.75.3-1.95-1.6l-.1-.65q.85-2.45 3.65-2.3 2.8.1 3.1 2.65.15 2.5-1.5 4.1-1.4.65-2.65.65h-1.75q-4.15-.45-4.15-4.75 0-2.05 1.75-3.75 1.65-1.75 3.15-1.7l1.6.15q2.7 1.15 0 1" fill="#231667" fill-rule="evenodd" transform="translate(-.6 -28.45)"/><path d="M15.05 59v.15q0 .65-.35-.75l-.15-.45q-.5-.8-1.25-.35-.05 1.25.3 2.2l.4.5q-.25.9 2.85 3.35.1.5 1.4-2.05 1.2-2.6 1.05-3.1h-.1l.1-.3v-.3q-.1-.55-.45-.45-.55.05-1 .65l-.85 1q-.2-2.4-.9-2.4-.35 0-.75 1.05l-.2.95-.1.3m-2.1-1.2q-.1-1.9.9-1.9h.45l.4.65.05.05q.15-.9.25-1.05.2-.45.8-.4.55 0 .9.6l.95 1.9.5-.75q.45-.5.9-.5.75 0 1.15.8.3.85-.15 2.6L19 62.75l-1.3 2.55q-4.85-3.55-5.15-5.6-.3-1.45.1-1.6l.3-.3" fill="#a53434" fill-rule="evenodd" transform="translate(-.6 -28.45)"/><path d="m14 60.3.75.75q1.2 1 1.9 1 2.25-2.65 2.55-3.55h.1q.15.5-1.05 3.1-1.3 2.55-1.4 2.05-3.1-2.45-2.85-3.35" fill="#cb4242" fill-rule="evenodd" transform="translate(-.6 -28.45)"/><path d="m14.55 57.95-.85.15-.1.4q0 .35.85 1.3l1.05.9q.45-.25-.45-1.7l1.15 1.6q.45.1.6-.3l-.25-.95-.45-.85q-.3-.25-.95.2l.2-.95q.4-1.05.75-1.05.7 0 .9 2.4l.85-1q.45-.6 1-.65.35-.1.45.45v.3l-.1.3q-.3.9-2.55 3.55-.7 0-1.9-1L14 60.3l-.4-.5q-.35-.95-.3-2.2.75-.45 1.25.35" fill="#f36341" fill-rule="evenodd" transform="translate(-.6 -28.45)"/><path d="M15.05 59q.9 1.45.45 1.7l-1.05-.9q-.85-.95-.85-1.3l.1-.4.85-.15.15.45q.35 1.4.35.75V59l.1-.3q.65-.45.95-.2l.45.85.25.95q-.15.4-.6.3L15.05 59" fill="#feb432" fill-rule="evenodd" transform="translate(-.6 -28.45)"/><path d="M9.75 29.6q2.05-1.65 3.65-.95 1.65.65 1.95 3.25.4 2.55-.8 5.45-1.15 2.85-3.2 4.35-1.95 1.6-3.65.9-1.55-.65-1.95-3.15-.3-2.5.85-5.35 1.2-2.9 3.15-4.5m.45 8.35q-.65 0-1.05.45-.35.35-.35.95 0 .7.35 1.1.4.35 1.05.35.6 0 1-.35.45-.4.45-1.1 0-.6-.45-.95-.4-.45-1-.45" fill="#000840" fill-rule="evenodd" transform="translate(-.6 -28.45)"/><path d="M10.2 37.95q.6 0 1 .45.45.35.45.95 0 .7-.45 1.1-.4.35-1 .35-.65 0-1.05-.35-.35-.4-.35-1.1 0-.6.35-.95.4-.45 1.05-.45" fill="#fff" fill-rule="evenodd" transform="translate(-.6 -28.45)"/><path d="M36.6 30.3q2.2 2.05 2.8 5.35.6 3.35-.7 5.9-1.25 2.65-3.7 3.1-2.4.55-4.6-1.5-2.2-1.95-2.8-5.3-.6-3.3.7-5.95 1.25-2.6 3.7-3.1 2.4-.45 4.6 1.5m.7 9.05q-.25-.65-.85-.9-.6-.15-1.2.4-.55.45-.75 1.2-.25.85 0 1.6.3.6.9.75.6.2 1.15-.25.6-.45.8-1.25.25-.8-.05-1.55" fill="#000840" fill-rule="evenodd" transform="translate(-.6 -28.45)"/><path d="M37.3 39.35q.3.75.05 1.55-.2.8-.8 1.25-.55.45-1.15.25-.6-.15-.9-.75-.25-.75 0-1.6.2-.75.75-1.2.6-.55 1.2-.4.6.25.85.9" fill="#fff" fill-rule="evenodd" transform="translate(-.6 -28.45)"/><path d="M1.85 43.55q.95-.95 1.8-.85h.05q1 0 2.65 1.6 1.6 1.55 1.6 3.7 0 2.1-1.15 3.45-1.85 1.35-3 1.3l-2.05-.45Q.9 51.85.7 50.55.45 49.2.9 47.7v.05q1-1.5 2.2-1.2 1 .25 1.7.9l.2.25q.25.95-.4 1.4h-.3l-.5-.6-.9-.15q-.55.1-.85.55-.35.35-.3 1.05.1.6.45.9.3.3 1.45.4 1.15.05 2.05-.85v.1q.75-1 .75-2.5 0-1.55-1.15-2.65v.05l-1.65-1.2h-.1l-1.7-.5v-.15" fill="#231667" fill-rule="evenodd" transform="translate(-.6 -28.45)"/></g><use ffdec:characterId="2" height="60.15" width="84.5" xlink:href="#l" id="e"/><use ffdec:characterId="4" height="59.1" width="59.35" xlink:href="#m" id="f"/><use ffdec:characterId="6" height="28.55" width="17.05" xlink:href="#n" id="g"/><use ffdec:characterId="8" height="59.05" width="58.85" xlink:href="#o" id="h"/><use ffdec:characterId="10" height="27.8" width="16.55" xlink:href="#p" id="i"/><use ffdec:characterId="17" height="69.5" width="80.95" xlink:href="#q" id="c"/><path d="M26.95 10.15Q15.8 14.4 0 14.4q-15.75 0-26.95-4.25Q-38.1 5.95-38.1 0t11.15-10.15q11.2-4.2 26.95-4.2 15.8 0 26.95 4.2Q38.1-5.95 38.1 0T26.95 10.15" fill-opacity=".353" fill-rule="evenodd" transform="translate(38.1 14.35)" id="d"/><path d="M0 69.5V0h80.95v69.5H0" fill="#fabf38" fill-opacity="0" fill-rule="evenodd" id="q"/><radialGradient cx="0" cy="0" gradientTransform="matrix(.0461 0 0 .0536 21.5 7.1)" gradientUnits="userSpaceOnUse" id="k" r="819.2" spreadMethod="pad"><stop offset=".282" stop-color="#c27ef3"/><stop offset="1" stop-color="#5b45b3"/></radialGradient></defs></svg>