<svg xmlns:ffdec="https://www.free-decompiler.com/flash" xmlns:xlink="http://www.w3.org/1999/xlink" ffdec:objectType="frame" height="100" width="90" xmlns="http://www.w3.org/2000/svg"><use ffdec:characterId="66" height="175.9" transform="translate(.074 .24) scale(.5671)" width="158.6" xlink:href="#a"/><defs><g id="a" transform="translate(-25.7 -40.1)"><use ffdec:characterId="1" height="29.15" transform="translate(50.342 192.81) scale(.7697)" width="139.35" xlink:href="#b"/><use ffdec:characterId="3" height="35.55" transform="translate(39.803 130.5) scale(.7098)" width="187.05" xlink:href="#c"/><use ffdec:characterId="5" height="145" transform="translate(38.818 40.118) scale(.7098)" width="188.45" xlink:href="#d"/><use ffdec:characterId="7" height="68" transform="translate(101 85.75) scale(.7098)" width="57.6" xlink:href="#e"/><use ffdec:characterId="9" height="56.2" transform="translate(72.468 162.418) scale(.7098)" width="24" xlink:href="#f"/><use ffdec:characterId="11" height="60.2" transform="translate(83.068 164.318) scale(.7098)" width="23.45" xlink:href="#g"/><use ffdec:characterId="13" height="41.3" transform="translate(110.368 171.212) scale(.7098)" width="25.65" xlink:href="#h"/><use ffdec:characterId="15" height="42.55" transform="translate(105.418 174.804) scale(.7098)" width="34.75" xlink:href="#i"/><use ffdec:characterId="17" height="104.95" transform="translate(76.568 114.468) scale(.7098)" width="67.5" xlink:href="#j"/><use ffdec:characterId="19" height="50.6" transform="translate(94.6 171.565) scale(.7098)" width="25.95" xlink:href="#k"/><use ffdec:characterId="20" height="30.3" transform="translate(62.11 101.43) scale(.7697)" width="14.35" xlink:href="#l"/><use ffdec:characterId="29" height="83.55" transform="matrix(-.631 .0975 .0975 .631 89.58 124.612)" width="101.2" xlink:href="#m"/><use ffdec:characterId="41" height="80.6" transform="matrix(-.6485 .0652 .0652 .6485 86.263 130.033)" width="91.45" xlink:href="#n"/><use ffdec:characterId="29" height="83.55" transform="translate(112.45 123.9) scale(.7098)" width="101.2" xlink:href="#m"/><use ffdec:characterId="41" height="80.6" transform="matrix(.7077 .0487 -.0487 .7077 115.568 128.486)" width="91.45" xlink:href="#n"/><use ffdec:characterId="54" height="60.65" transform="translate(61.623 106.806) scale(.7098)" width="111.2" xlink:href="#o"/><use ffdec:characterId="56" height="61.7" transform="translate(74.768 81.589) scale(.7098)" width="77.65" xlink:href="#p"/><use ffdec:characterId="57" height="28.05" transform="translate(76.225 99.706) scale(.7098)" width="58.2" xlink:href="#q"/><use ffdec:characterId="59" height="66.35" transform="translate(72.339 58.039) scale(.7098)" width="78.85" xlink:href="#r"/><use ffdec:characterId="61" height="17.2" transform="translate(39.768 129.968) scale(.7098)" width="187.05" xlink:href="#s"/><use ffdec:characterId="63" height="20.1" transform="translate(70.25 66.6) scale(.7098)" width="20.1" xlink:href="#t"/><use ffdec:characterId="65" height="53.8" transform="translate(61.4 91.6) scale(.7098)" width="20.6" xlink:href="#u"/></g><g id="K"><path d="M127.95 20.1q-4.3.85-8.5 2.6-7.3 3-8.8 7.05-5.7.1-10.95 2.15-11.2 4.2-40.35 1.2.05-4.65 3.45-8.65Q67.15 19.2 73.35 17q6-2.25 11.8-5.2 5.2-2.55 7.25-7.25l12.9.7 12.95-.4 14.6-.1h3.8l.25.65q.4 1.05-.15 4.55-.65 3.55-6.6 8.3l-2.2 1.85" fill="#4d7bda" fill-opacity=".902" fill-rule="evenodd" transform="translate(.7)"/><path d="M110.65 29.75q1.5-4.05 8.8-7.05 4.2-1.75 8.5-2.6l7.95-.8 10.1.45 8.05.2h.1l1-.15q4.5 1.4 8.1 3.4 3.95 2.15 5.95 4.55l-1.55.65-4.9 1.7q-23.85 7.7-35.1 2.85-8.9-3.5-17-3.2M35.65.9q1.4 1.4 1.4 2.6 0 1.15-1 2.45l-.75.95-1.6 1.15q-1.5.85-2.75 1.2-1.35.3-4.3 1.15-3.1.85-6 3.1-2.85 2.15-1.75 6.45l1.7 5.65Q8.7 21.5.05 15.65q-.9-8.2 20.55-12.5l6.45-1.2L35.65.9" fill="#71d6e9" fill-opacity=".902" fill-rule="evenodd" transform="translate(.7)"/><path d="m127.95 20.1 2.2-1.85q5.95-4.75 6.6-8.3.55-3.5.15-4.55l-.25-.65L156 6.25q5.75.85 10.75 2.15l.9.3.3.1q.35 1.25.05 3.7-.4 2.75-4.15 4.85-3.4 1.9-8.7 2.45l-1 .15v-.05h-1.1l1 .05-8.05-.2-10.1-.45-7.95.8" fill="#4665c0" fill-opacity=".902" fill-rule="evenodd" transform="translate(.7)"/><path d="M92.4 4.55q-2.05 4.7-7.25 7.25-5.8 2.95-11.8 5.2-6.2 2.2-10.55 7.45-3.4 4-3.45 8.65l-9.15-1.05-14-2.3q-2.85-8.4-.9-22.85l.75-.95q1-1.3 1-2.45 0-1.2-1.4-2.6 16.8-1.75 33.2-.05l12.7 1.8 7.9 1.5 2.95.4m76.8 23.2q-2-2.4-5.95-4.55-3.6-2-8.1-3.4 5.3-.55 8.7-2.45 3.75-2.1 4.15-4.85.3-2.45-.05-3.7l.35.05q12.8 3.65 17.25 6.45l.05 1.7q-3.8 5.75-16.4 10.75" fill="#7ca1da" fill-opacity=".902" fill-rule="evenodd" transform="translate(.7)"/><path d="m20.6 25.6-1.7-5.65q-1.1-4.3 1.75-6.45 2.9-2.25 6-3.1 2.95-.85 4.3-1.15 1.25-.35 2.75-1.2l1.6-1.15q-1.95 14.45.9 22.85-8.45-1.8-15.6-4.15" fill="#a1f5fd" fill-opacity=".902" fill-rule="evenodd" transform="translate(.7)"/><path d="M60.05 33.1q29.15 3 40.35-1.2 5.25-2.05 10.95-2.15 8.1-.3 17 3.2 11.25 4.85 35.1-2.85l4.9-1.7 1.55-.65q12.6-5 16.4-10.75M.75 15.65Q9.4 21.5 21.3 25.6q7.15 2.35 15.6 4.15l14 2.3 9.15 1.05" fill="none" stroke="#1a3d8c" stroke-linecap="round" stroke-linejoin="round" stroke-width="1.5"/></g><g id="L"><path d="m58.75 9.25.1.2-.05 1.95q0 2.35.65 4.5-1.5-2.65-3.4-4.7 1.25-1.05 2.7-1.95" fill="#a1f5fd" fill-opacity=".675" fill-rule="evenodd" transform="translate(.75 .75)"/><path d="M127.25 27.2q.45-4.35 1.65-8.95l2.05 4.2q-1.2 18.35 7.5 29.3l1.05 8.75q-3.8-3.4-6.4-7.2-2.05-12.35-5.85-26.1" fill="#46a4e9" fill-opacity=".675" fill-rule="evenodd" transform="translate(.75 .75)"/><path d="M133.1 53.3q-7.45-10.95-5.85-26.1 3.8 13.75 5.85 26.1" fill="#4d7bda" fill-opacity=".675" fill-rule="evenodd" transform="translate(.75 .75)"/><path d="m148 66.6-2.4-1.55q-3.35-2.2-6.1-4.55l-1.05-8.75q2.95 3.8 7.15 6.7l2.4 8.15m8.75 1.2.7.05q3.5-.2 4.15-1.95 1.3-1.7 3.05-1.7l1.35 2.75q-2.95 4.05-8 3.65l-1.25-2.8" fill="#65b7fd" fill-opacity=".675" fill-rule="evenodd" transform="translate(.75 .75)"/><path d="m131.05 15.85.3.25q.5-.85 1.2-1.4l.2 1.3-.05 1.15q-.1 7.1 2.95 15.55l2.6 6.25q5.7 12.1 14.4 17.8 7.3 4.85 13.35 4.9l-1.35 1.65q-19.6-5.65-27.75-22.65-5.05-10.35-5.85-24.8M53.4 13.5l1.25-1.1q2.2 11.8-5.5 24.9Q39.8 53.1 18.1 60.95l.9-2 2.2-.95q19.2-8.35 27.05-21.7 6.8-11.6 5.15-22.7v-.1" fill="#6274d5" fill-rule="evenodd" transform="translate(.75 .75)"/><path d="M135.05 13.15q-.2.65-.05 1.3.05.9.9 1.3-.7 2.5-.75 5.55-.15 9.8 5.7 19.9 5.8 10.05 14.25 14.7 7.2 3.95 12.5 2.7-.6 1.65-1.6 3.05-6.05-.05-13.35-4.9-8.7-5.7-14.4-17.8l-2.6-6.25q-3.05-8.45-2.95-15.55l.05-1.15.2-1.7q.95-.8 2.1-1.15m-82.65.1.85.35h.15q1.65 11.1-5.15 22.7Q40.4 49.65 21.2 58l-.2-.95q31.25-15.7 31.4-43.2v-.6" fill="#54bd9a" fill-rule="evenodd" transform="translate(.75 .75)"/><path d="M159.05 32.9 156 28.15q-1.5-2.2-5.55-5.05-4.05-3-7.35-4.85-2-1.2-3.55-1.7l-2.1-.45-1.55-.35q-.85-.4-.9-1.3-.15-.65.05-1.3l2-.2q1.95.05 4.55 1.2l1.55.75q8.25 4.5 12.75 9.45 4.25 4.3 7.1 10.35 4.15 8.5 5.1 14.9.5 3.2.15 5.95h-.35q-1-.05-1.7-3.7-.2-.7-.25-1.55-.85-5.2-2.95-10.65-1.3 1.05-2.6 1.05l-1-.1q-1.95-.5-2.45-1.4-.5-.95-.7-2.65-.25-1.75.55-2.45l.7-.5q.65-.35 1.6-.45l.1-.1-.15-.15m-14.5-9.55q.95-.75 2.2-.75 1.2 0 2.1.75.9.9.9 2.1 0 1.2-.9 2-.9.9-2.1.9-1.25 0-2.2-.9-.85-.8-.85-2t.85-2.1" fill="#fff" fill-rule="evenodd" transform="translate(.75 .75)"/><path d="M126.15 11.35q2.55 2 4.9 4.5.8 14.45 5.85 24.8 8.15 17 27.75 22.65l-.35.25.35.65q-1.75 0-3.05 1.7-.65 1.75-4.15 1.95l-.7-.05q-7.1-.95-11.15-9.35-4.2-2.9-7.15-6.7-8.7-10.95-7.5-29.3l-2.05-4.2q-1.9-4.05-2.75-6.9m-70.1-.15q1.9 2.05 3.4 4.7l1.65 3.65.1.35q.5 10.4-5.7 21.95-15.8 28.25-34.95 23.2-.55-1.85-2.9-3.1l.45-1Q39.8 53.1 49.15 37.3q7.7-13.1 5.5-24.9.65-.65 1.4-1.2" fill="#4d7bda" fill-opacity=".902" fill-rule="evenodd" transform="translate(.75 .75)"/><path d="M166.2 51.85q.7 3.65 1.7 3.7h.35l-.65 3.05q-5.3 1.25-12.5-2.7-8.45-4.65-14.25-14.7-5.85-10.1-5.7-19.9.05-3.05.75-5.55l1.55.35 2.1.45q-1.6 2.75-1.5 7.15.05 7.65 4.7 15.75t11.15 11.9q6.6 3.85 11.2 1.25l1.1-.75m-145.45-3.3q11.6 1.15 21.05-13.5 6.1-9.6 2.8-17.9 3.6-1.75 7.8-3.3-.15 27.5-31.4 43.2-.8-4.05-.25-8.5" fill="#1576b3" fill-opacity=".902" fill-rule="evenodd" transform="translate(.75 .75)"/><path d="M139.55 16.55q1.55.5 3.55 1.7 3.3 1.85 7.35 4.85 4.05 2.85 5.55 5.05l3.05 4.75.05.25q-.95.1-1.6.45-1.25-1.95-2.95-3.2-2.9-2.2-5.2-1.2-2.25 1-2.6 4.55-.3 3.6 1.45 7.65 1.8 4.05 4.6 6.3 2.85 2.15 5.1 1.2 2.35-1 2.7-4.6.15-1.75-.2-3.6 1.3 0 2.6-1.05 2.1 5.45 2.95 10.65.05.85.25 1.55l-1.1.75q-4.6 2.6-11.2-1.25-6.5-3.8-11.15-11.9-4.65-8.1-4.7-15.75-.1-4.4 1.5-7.15m5 6.8q-.85.9-.85 2.1 0 1.2.85 2 .95.9 2.2.9 1.2 0 2.1-.9.9-.8.9-2t-.9-2.1q-.9-.75-2.1-.75-1.25 0-2.2.75M28.9 31.6q-1.45 2.8-1.6 5.45-.2 3.3 1.6 4.35 1.85 1.1 4.6-.75 2.75-1.75 4.75-5.35 2.15-3.6 2.25-6.9.25-3.2-1.6-4.25-1.85-1.05-4.55.7l-.5.35-.55-.35-.35-.15q4.9-4.2 11.65-7.55 3.3 8.3-2.8 17.9-9.45 14.65-21.05 13.5.7-7 4.45-15.15 1.1-1.75 2.5-3.45.4 1 1.2 1.65m-1.75 10.45q0-.85-.55-1.4-.55-.55-1.4-.55-.85 0-1.4.55-.55.55-.55 1.4 0 .85.55 1.4.55.6 1.4.6.85 0 1.4-.6.55-.55.55-1.4" fill="#75a9ff" fill-opacity=".902" fill-rule="evenodd" transform="translate(.75 .75)"/><path d="m157.5 33.6-.7.5q-.8.7-.55 2.45.2 1.7.7 2.65.5.9 2.45 1.4l1 .1q.35 1.85.2 3.6-.35 3.6-2.7 4.6-2.25.95-5.1-1.2-2.8-2.25-4.6-6.3-1.75-4.05-1.45-7.65.35-3.55 2.6-4.55 2.3-1 5.2 1.2 1.7 1.25 2.95 3.2M33.85 25.2l.5-.35q2.7-1.75 4.55-.7 1.85 1.05 1.6 4.25-.1 3.3-2.25 6.9-2 3.6-4.75 5.35-2.75 1.85-4.6.75-1.8-1.05-1.6-4.35.15-2.65 1.6-5.45l.35.2 2.95.25q1.55-.4 2.4-1.8.8-1.5.5-3.05-.35-1.25-1.25-2" fill="#6274d5" fill-opacity=".902" fill-rule="evenodd" transform="translate(.75 .75)"/><path d="M61.2 19.9h.05l.5 1.5q3.25 10.3-4.1 23.75-7.5 13.45-18.1 20.75-10.65 7.25-16.55 3l-2.4-2.25v-.25l-.05-1.35Q39.7 70.1 55.5 41.85q6.2-11.55 5.7-21.95" fill="#7ca1da" fill-opacity=".902" fill-rule="evenodd" transform="translate(.75 .75)"/><path d="m21.2 58-2.2.95-.65-.65-.05-.15q-3.6-4-1.7-10.45 2-7.2 5.85-13.85 3.85-6.7 7.9-11.4Q34.85 17.1 41 13.8q5.5-2.95 11.4-.55v.6q-4.2 1.55-7.8 3.3-6.75 3.35-11.65 7.55l.35.15.55.35q.9.75 1.25 2 .3 1.55-.5 3.05-.85 1.4-2.4 1.8l-2.95-.25-.35-.2q-.8-.65-1.2-1.65-1.4 1.7-2.5 3.45-3.75 8.15-4.45 15.15-.55 4.45.25 8.5l.2.95m5.95-15.95q0 .85-.55 1.4-.55.6-1.4.6-.85 0-1.4-.6-.55-.55-.55-1.4 0-.85.55-1.4.55-.55 1.4-.55.85 0 1.4.55.55.55.55 1.4" fill="#fff" fill-opacity=".675" fill-rule="evenodd" transform="translate(.75 .75)"/><path d="m121.3 7.9 4.85 3.45q.85 2.85 2.75 6.9-1.2 4.6-1.65 8.95-2.6-9.35-5.95-19.3m18.2 52.6q1.2 10.8 1.75 20.1 1 17.75-.5 30.05-.9 7.1-2.6 12.4-.9 2.9-2.1 5.2l-1.8 3-14.65.1q3.25-3.9 5.9-8.3 3.4-5.7 5.65-12.4 4.4-13.2 4.4-30.05 0-12.6-2.45-27.3 2.6 3.8 6.4 7.2m28.6 74.4.15-1.75.1-.4.35-9.7q-.1-6.25-.6-12.4-1.3-15.65-6.15-30.05-1.8-5.1-3.95-10 5.05.4 8-3.65 3.15 6.65 6 13.65 8 20.3 12.2 42.45l2.05 12.7.65 6.05q-4.45-2.8-17.25-6.45l-.35-.05-.25-.1-.95-.3" fill="#71d6e9" fill-rule="evenodd" transform="translate(.75 .75)"/><path d="m90.8 130.65 4.05-3.45 4.15-4.15q5.15-5.7 8.85-12.4 7.25-13.05 8.95-30.05 3.25-32.55-13.65-79.6 10 1.85 18.15 6.9 3.35 9.95 5.95 19.3-1.6 15.15 5.85 26.1 2.45 14.7 2.45 27.3 0 16.85-4.4 30.05-2.25 6.7-5.65 12.4-2.65 4.4-5.9 8.3l-12.95.4-12.9-.7-2.95-.4m66.55 2.1q.45-4.85.5-9.7.15-6.2-.3-12.4-.95-15-5.05-30.05-1.95-7.05-4.5-14l-2.4-8.15q4.05 8.4 11.15 9.35l1.25 2.8q2.15 4.9 3.95 10 4.85 14.4 6.15 30.05.5 6.15.6 12.4l-.35 9.7-.1.4-.15 1.75q-5-1.3-10.75-2.15" fill="#7ca1da" fill-rule="evenodd" transform="translate(.75 .75)"/><path d="m94.85.1 8.3.9q16.9 47.05 13.65 79.6-1.7 17-8.95 30.05-3.7 6.7-8.85 12.4l-4.15 4.15-4.05 3.45-7.9-1.5-12.7-1.8-4.95-3.25q12.2-5.4 20.75-13.45l1.2-1.1Q99 97.75 103.45 80.6q7.95-30.9-8.1-79.2l-.5-1.3" fill="#a1c3fd" fill-rule="evenodd" transform="translate(.75 .75)"/><path d="M95.35 1.4q16.05 48.3 8.1 79.2Q99 97.75 87.2 109.55l-1.2 1.1q-8.55 8.05-20.75 13.45l4.95 3.25q-16.4-1.7-33.2.05l-8.55 1.05-6.5 1.2.45-1.2q.95-3.35 0-11.5-.6-4.3-4.1-6.3-3.3-1.8-9.2-1.65.4-2.15 3.1-11.7 2.6-9.55 5.35-18 2.6-8.15 3.05-12.65L23 68.9q5.9 4.25 16.55-3 10.6-7.3 18.1-20.75Q65 31.7 61.75 21.4l-.5-1.5.1-.05q2.7 4.2 7.3 4.15 4.5-.15 8.55-5.15 4-5 2.85-8.5-1.2-3.5 4.95-5.9Q90.15 2.4 95.35 1.4" fill="#a1f5fd" fill-rule="evenodd" transform="translate(.75 .75)"/><path d="m134.25 131.25 1.8-3q1.2-2.3 2.1-5.2 1.7-5.3 2.6-12.4 1.5-12.3.5-30.05-.55-9.3-1.75-20.1 2.75 2.35 6.1 4.55l2.4 1.55q2.55 6.95 4.5 14 4.1 15.05 5.05 30.05.45 6.2.3 12.4-.05 4.85-.5 9.7l-19.3-1.5h-3.8" fill="#a3effd" fill-rule="evenodd" transform="translate(.75 .75)"/><path d="m94.85.1.5 1.3q-5.2 1-10.35 3.05-6.15 2.4-4.95 5.9 1.15 3.5-2.85 8.5-4.05 5-8.55 5.15-4.6.05-7.3-4.15l-.25-.3-1.65-3.65q-.65-2.15-.65-4.5l.05-1.95v-.3Q72.65-.25 92.4 0l2.45.1M20.6 66.65q-.45 4.5-3.05 12.65-2.75 8.45-5.35 18-2.7 9.55-3.1 11.7 5.9-.15 9.2 1.65 3.5 2 4.1 6.3.95 8.15 0 11.5l-.45 1.2q-21.45 4.3-20.5 12.5l-1.3-.85-.1-3.3q-.35-13.15 2.15-27.35 4-22.9 15.4-48.55.85 1.7 1.85 3.1l1.15 1.45" fill="#dffafd" fill-rule="evenodd" transform="translate(.75 .75)"/><path d="m.9 142.05 1.3.85" fill="none" stroke="#000" stroke-linecap="round" stroke-linejoin="round" stroke-width=".05"/><path d="M169 56.3q.35-2.75-.15-5.95-.95-6.4-5.1-14.9-2.85-6.05-7.1-10.35-4.5-4.95-12.75-9.45l-1.55-.75q-2.6-1.15-4.55-1.2l-2 .2q-1.15.35-2.1 1.15l-.4.4q-.7.55-1.2 1.4l-.3-.25q-2.35-2.5-4.9-4.5l-4.85-3.45q-8.15-5.05-18.15-6.9l-8.3-.9-2.45-.1Q73.4.5 59.6 9.9l-.1.1q-1.45.9-2.7 1.95-.75.55-1.4 1.2l-1.25 1.1q-.1 0-.15.1l-.85-.35q-5.9-2.4-11.4.55-6.15 3.3-10.65 8.65-4.05 4.7-7.9 11.4-3.85 6.65-5.85 13.85-1.9 6.45 1.7 10.45m51.9 69.2 12.7 1.8 7.9 1.5 2.95.4 12.9.7 12.95-.4L135 132h3.8l19.3 1.5q5.75.85 10.75 2.15l.95.3.25.1.35.05q12.8 3.65 17.25 6.45l.05 1.7m-22.3-80.2 1.35-1.65q1-1.4 1.6-3.05l.65-3.05m-3.6 8.65-.35-.65.35-.25m1.35 3.65q3.15 6.65 6 13.65 8 20.3 12.2 42.45l2.05 12.7.65 6.05m-22.25-77.6 1.35 2.75M22.7 130.4l6.5-1.2 8.55-1.05q16.8-1.75 33.2-.05m-51.2-68.4-.9 2-.45 1-.05.15Q6.95 88.5 2.95 111.4.45 125.6.8 138.75l.1 3.3m18.2-83 .65.65M2.2 142.9q-.95-8.2 20.5-12.5" fill="none" stroke="#1a3d8c" stroke-linecap="round" stroke-linejoin="round" stroke-width="1.5"/><path d="M144.25 72.65q1 1.4 3.25 7 2.25 5.55 1.8 16.7-1.6-13.75-3.2-17.9-1.55-4.1-1.85-5.8m4.15-7.8h.05q10.85 22.85 8.65 36.1l-.6 3.1q1.3-16.25-8.1-39.2" fill="#1a3d8c" fill-rule="evenodd" transform="translate(.75 .75)"/><path d="M155 74.2q-5.95-15.15-5.45-15.35.45-.2 7.7 17 7.2 17.25 7.3 42.9-.2-.65-1.9-15.05Q161 89.25 155 74.2M18 112.5q-1.5-.9-1.7-10-.6-25 11.6-41.6-4.05 7.75-6.9 17-2.85 9.2-3.2 21.6-.35 12.35 1.1 13.2v.3h-.05l-.85-.5m10.75-53.45v.1-.1" fill="#1a3d8c" fill-rule="evenodd" transform="translate(.75 .75)"/><path d="M29.1 74.7q-5.4 12.7-4.3 23.6-2.8-8.15.15-16.3 1.9-5.2 4.35-7.95l-.2.65" fill="#1a3d8c" fill-rule="evenodd" transform="translate(.75 .75)"/></g><g id="M" fill-opacity=".902" fill-rule="evenodd"><path d="M50.2 67.25q-.25-4.75 1.7-7.85 1.7-2.85 2.4-7.55l.4-4.05q.35-5.35-.55-14.5 3.5 3.4 3.45 7.6l-.15 2.75q-.65 5.55-3.15 8.2 2.75 5-.55 10.75-1.35 2.25-3.55 4.65" fill="#4c9ee4"/><path d="M54.15 33.3q.9 9.15.55 14.5l-.4 4.05q-.7 4.7-2.4 7.55-1.95 3.1-1.7 7.85l-.05.1-7.1.45q-6.2.15-10.2-.1 13.5-14.7 15.1-38.25 3.9 1.75 6.2 3.85" fill="#2d8bd0"/><path d="M47.95 29.45Q46.35 53 32.85 67.7q-22.3 1.5-26.1-4.5Q2.95 57.15.5 38.95-2 20.7 8.1 9.7 18.15-1.45 28.3.2q10.05 1.6 14.3 9.55 4.25 7.85 3.35 18.75l2 .95" fill="#3462c1"/></g><g id="N"><path d="M7.45 0q4.15 6.3 8.2 3.85 4.35 18.55 6.3 31.5Q23.9 48.2 18.85 52q-5.1 3.75-10.25 2.25Q3.45 52.7 1.15 48-2 38.45 3.4 37.05q3.7 9.25 8.85 2.8Q15.5 31.7 7.45 0" fill="url(#v)" fill-rule="evenodd" transform="translate(.75 .75)"/><path d="M8.2.75q8.05 31.7 4.8 39.85-5.15 6.45-8.85-2.8-5.4 1.4-2.25 10.95 2.3 4.7 7.45 6.25 5.15 1.5 10.25-2.25 5.05-3.8 3.1-16.65-1.95-12.95-6.3-31.5Q12.35 7.05 8.2.75z" fill="none" stroke="#1a3d8c" stroke-linecap="round" stroke-linejoin="round" stroke-width="1.5"/></g><g id="O"><path d="M10.95 0q17.3 43.65 7.35 55.3-5.8 4.5-11.75 3.05l-1.5-.55Q.2 54.95 0 52.1q.85-3.25 4.9-5.2 3.75-3.4 1.9-17.05-1.15-8.7-6.25-22.7Q-.3 2.65 10.95 0" fill="url(#w)" fill-rule="evenodd" transform="translate(.75 .75)"/><path d="M1.3 7.9q5.1 14 6.25 22.7 1.85 13.65-1.9 17.05-4.05 1.95-4.9 5.2.2 2.85 5.05 5.7l1.5.55q5.95 1.45 11.75-3.05Q29 44.4 11.7.75" fill="none" stroke="#1a3d8c" stroke-linecap="round" stroke-linejoin="round" stroke-width="1.5"/></g><g id="P"><path d="M13.25 2.95Q2.15 37.5 21.75 35.9q3.8 1.25 1.55 3.8-1.65 1.7-6.65 2.95-23.4 1.95-13.9-39.7h10.5" fill="url(#x)" fill-rule="evenodd" transform="translate(.75 -2.2)"/><path d="M3.5.75Q-6 42.4 17.4 40.45q5-1.25 6.65-2.95 2.25-2.55-1.55-3.8Q2.9 35.3 14 .75" fill="none" stroke="#1a3d8c" stroke-linecap="round" stroke-linejoin="round" stroke-width="1.5"/></g><g id="Q"><path d="M.6 3.15h11q-.75 3.3-.75 4.85-.05 2-.85 7.4-.75 5.35 1.5 11.8 2.15 6.5 7.2 6.55 5.1 0 8.55-3.4Q30.65 27 31.1 27q2.05 0 2.15 3.65.1 3.65-5.9 8.8-6.05 5.05-12 4.75-6-.25-10.05-4.9-2.2-2.55-2.9-4.8Q-.05 26.65 0 18.7l.1-6.9.5-8.65" fill="url(#y)" fill-rule="evenodd" transform="translate(.75 -2.4)"/><path d="M1.35.75.85 9.4l-.1 6.9q-.05 7.95 2.4 15.8.7 2.25 2.9 4.8 4.05 4.65 10.05 4.9 5.95.3 12-4.75 6-5.15 5.9-8.8-.1-3.65-2.15-3.65-.45 0-3.85 3.35-3.45 3.4-8.55 3.4-5.05-.05-7.2-6.55Q10 18.35 10.75 13q.8-5.4.85-7.4 0-1.55.75-4.85" fill="none" stroke="#1a3d8c" stroke-linecap="round" stroke-linejoin="round" stroke-width="1.5"/></g><g id="R"><path d="m23.1 79.15-.15-.65-.05-.35q-3.8-18.4-.85-36.2.4-2.5 1.7-7v1.95l-.65 3.85-.65 4.3q-1.3 11.2.2 26l1.2 9.15L25 86.9l-1.9-7.75" fill="#1a3d8c" fill-rule="evenodd" transform="translate(.75 .75)"/><path d="m54.45 64.45-.85-6.4q-.85-5.1-3.1-5.1-.9 0-1.05 1.4v11.3l-1.05 8.7-1.55 7.2-2.45 8.9q-.5 1.55-1.4 6.9l-.9 4.95v.05l-.25.05v.6-.65l.6-5 1.05-14.2.4-2.8-.3-.05q.5-18.6-3.3-24.9-.85-1.05-2.5 3.45.2-10.35-7.9-9.3-7.45 3.45-7.25 21.5-1.5-14.8-.2-26l.65-4.3.65-3.85v-1.95q-1.3 4.5-1.7 7-2.95 17.8.85 36.2l-.1.1-1.55-3.65q-1.95-5.35-2.1-12.65-.2-7.4-.65-9.85-.45-2.6-1.95-3.05h-.05q-2.4-4.5-6.05-4.05-3.25 18 .85 35.2l-.35.1Q2.85 61.8 7.5 42.2l.2-.95q-4.3.2-6.25-7.65 2.1-10.05 7.3-18.3Q18.5-.2 31.95 0q13.3.2 24.45 14.25 11.2 14.1 9.3 38.6-1.5 18.7-6.05 32.65l-.2-1.45q-1.15.75-.85-1.6.05-1.25.55-3.35 1.4-6.15 1.7-10.55.3-4.5-.85-4.95-.5.15-1.55 3.1-1.1 2.9-2.05 8.3-.9 5.4-2.1 8.85-1.2 3.45-2.1 5.15l-.7 1.1 1.25-7.35q1.35-8.95 1.7-18.3.85-26.5-6.7-56.7 7.55 30.2 6.7 56.7M19.1 18.05Q12.85 31.75 10.45 45q2.4-13.25 8.65-26.95m18.55-8.4Q48.75 53 44.9 83.35q-1.05 4.75-2.35 14l-.6 5-.1.05.1-.05.6-5q1.3-9.25 2.35-14Q48.75 53 37.65 9.65" fill="#56578d" fill-rule="evenodd" transform="translate(.75 .75)"/><path d="m37.8 58.85-.85-.95Q29.2 50 26.1 69.75v11.7l-1.6 9.6q-1-6.4-1.4-11.9L25 86.9l-1.15-6.7-1.2-9.15q-.2-18.05 7.25-21.5 8.1-1.05 7.9 9.3m-21.3-9.8q-9.7 11.7.9 48.8-1.05-.9-2.2-4.35l-.2 2.05q-1.55-6.05-3.2-13.45l-.5-1.9Q7.2 63 10.45 45q3.65-.45 6.05 4.05M1.45 33.6q1.95 7.85 6.25 7.65l-.2.95q-2.9.7-4.8-1.5Q.4 53 3.4 75.45.65 64.45.1 52.8q-.55-10.35 1.35-19.2" fill="#85e4ff" fill-rule="evenodd" transform="translate(.75 .75)"/><path d="m41.85 102.35.15-5q.35-6.3 1.5-14.2l-1.05 14.2-.6 5v.05-.05" fill="url(#z)" fill-rule="evenodd" transform="translate(.75 .75)"/><path d="M42.1 102.35v-.05l.9-4.95q.9-5.35 1.4-6.9l2.45-8.9 1.55-7.2 1.05-8.7v-11.3q.15-1.4 1.05-1.4 2.25 0 3.1 5.1l.85 6.4q-.35 9.35-1.7 18.3L51.5 90.1l.7-1.1q.9-1.7 2.1-5.15 1.2-3.45 2.1-8.85.95-5.4 2.05-8.3 1.05-2.95 1.55-3.1 1.15.45.85 4.95-.3 4.4-1.7 10.55-.5 2.1-.55 3.35-1-.2-2.7 3.95-3 7.4-5.05 9.5-1.05-1.65-3.5 1.75-2.45 3.3-3.5 3.85l-1.75.85M36.95 57.9l.55 1.65.3-.7q1.65-4.5 2.5-3.45 3.8 6.3 3.3 24.9l.3.05-.4 2.8q-1.15 7.9-1.5 14.2l-.15 5q-7.45 2.95-14.2 1.25-2.8-.7-5.45-2.25l-2.85-1.75-1.55-1.35-.4-.4q-10.6-37.1-.9-48.8h.05q1.5.45 1.95 3.05.45 2.45.65 9.85.15 7.3 2.1 12.65l1.55 3.65.15.25.15.65q.4 5.5 1.4 11.9l1.6-9.6v-11.7Q29.2 50 36.95 57.9M7.5 42.2q-4.65 19.6 3.45 38.1l.85 1.8q1.65 7.4 3.2 13.45-2.6-3.05-4.5-6.05-2.15-3.45-5-11.35-1.05-.05-1.8-1.6l-.15-.3-.15-.8.3 1.1-.3-1.1Q.4 53 2.7 40.7q1.9 2.2 4.8 1.5m44 47.9-.65 5.8.65-5.8" fill="url(#A)" fill-rule="evenodd" transform="translate(.75 .75)"/><path d="M55.2 65.2q.85-26.5-6.7-56.7m11.9 77.75q4.55-13.95 6.05-32.65 1.9-24.5-9.3-38.6Q46 .95 32.7.75 19.25.55 9.5 16.05q-5.2 8.25-7.3 18.3Q.3 43.2.85 53.55 1.4 65.2 4.15 76.2l.3 1.1.6 2.4m7 1.25q-4.1-17.2-.85-35.2 2.4-13.25 8.65-26.95m-4.1 77.5q-1.55-6.05-3.2-13.45l-.5-1.9m39.55 15.7.65-5.8 1.25-7.35q1.35-8.95 1.7-18.3m-12.6 37.95.1-.05.6-5q1.3-9.25 2.35-14 3.85-30.35-7.25-73.7" fill="none" stroke="#1a3d8c" stroke-linecap="round" stroke-linejoin="round" stroke-width="1.5"/></g><g id="S"><path d="M0 21.45q1.3 22.75 8.05 25.8v.35l-.05.35-.3.35q-.25.25.7.7-8.55-.5-8.4-27.55" fill="#1a3d8c" fill-rule="evenodd" transform="translate(0 .05)"/><path d="m0 21.45.45-4.5q.4-4.4 3.5-11.45Q7.05-1.6 20.5.7q-1.05 7.45-1.75 15.25-.7 7.75.05 14.05.8 6.25 3.2 9.35l.8 1q4.1 1.9 1.2 5.55-4.95 6.6-16 2.05l.05-.35v-.35Q1.3 44.2 0 21.45" fill="url(#B)" fill-rule="evenodd" transform="translate(0 .05)"/><path d="M8 48q11.05 4.55 16-2.05 2.9-3.65-1.2-5.55l-.8-1q-2.4-3.1-3.2-9.35-.75-6.3-.05-14.05.7-7.8 1.75-15.25" fill="none" stroke="#1a3d8c" stroke-linecap="round" stroke-linejoin="round" stroke-width="1.5"/></g><g id="m" transform="translate(4.65 4.65)"><use ffdec:characterId="21" height="33.15" transform="translate(.15 -2.2)" width="74.05" xlink:href="#C"/><use ffdec:characterId="23" height="31.45" transform="matrix(.9898 -.1341 .1341 .9898 56.457 12.008)" width="26.5" xlink:href="#D"/></g><g id="C"><path d="M11.05-1.45q9.5 12.1 17.2 15.2 7.7 3.1 18.8-2.1Q58.15 6.4 65.8 9q7.65 2.55 7.65 15.45l-4.5 3.1q2.45-11-2.8-14.65-5.3-3.7-12-1.15Q47.45 14.2 43.7 16q-3.8 1.75-8.1 1.95-4.3.2-5.2.9-.95.65-1.6 2.35-.65 1.65 0 3.65-3.45-.65-9.2-3.55Q13.9 18.45.9 6.1 5.95-.1 11.05-1.45" fill="#6e3e8d" fill-rule="evenodd" transform="translate(-.15 2.2)"/><path d="M28.8 24.85q-.65-2 0-3.65.65-1.7 1.6-2.35.9-.7 5.2-.9 4.3-.2 8.1-1.95 3.75-1.8 10.45-4.25 6.7-2.55 12 1.15 5.25 3.65 2.8 14.65l-4.8 2.65q1.7-6-.25-9.15-1.95-3.15-5.6-2.75-3.65.35-8.3 3.1-4.7 2.7-10.75 3.6-6.1.9-10.45-.15" fill="#7862d0" fill-rule="evenodd" transform="translate(-.15 2.2)"/><path d="M73.3 26.65q0-12.9-7.65-15.45Q58 8.6 46.9 13.85q-11.1 5.2-18.8 2.1-7.7-3.1-17.2-15.2M.75 8.3q13 12.35 18.7 15.2 5.75 2.9 9.2 3.55Q33 28.1 39.1 27.2q6.05-.9 10.75-3.6 4.65-2.75 8.3-3.1 3.65-.4 5.6 2.75 1.95 3.15.25 9.15" fill="none" stroke="#731668" stroke-linecap="round" stroke-linejoin="round" stroke-width="1.5"/></g><g id="T"><path d="M25 20q-1.9-1.45-3.9-1.8 2 .35 3.9 1.8l-1.05 6.25-.45 1.05-5.75-.7q-2.7-.75-2.75-2.8-.05-2.05 1.25-2.95 1.2-.9 4.85-2.65l-1.2-.15q-2.65-.1-5.4 2-1.25.95-1.9 2.25-.6-1.25-1.8-2.1-2.25-1.65-2.15-2.95.15-1.25 2.9-4.9 1.95-2.8 4.85-4.15h.7q2.9 0 7.2 2.3l.45 3.2L25 20" fill="#7bb8d5" fill-rule="evenodd" transform="translate(.75 .75)"/><path d="M24.3 10.5Q20 8.2 17.1 8.2h-.7q-4.7.2-7.4 2.65l.15-.55q.15-.75-.25-1.45-.45-.75-1.15-1-.7-.3-1.2 0-.55.35-.7 1.05-.05.75.35 1.45.45.75 1.05 1l1.2.1-1.05 1.5-.4.8q-.5-.85-1.15-1.35-2.05-1.45-2.6-3Q2.7 7.85 6.7 4.95L11 1.6q.35-.5 0-.85l-.55-.5 1.9-.2q5.65-.55 8.7 3.3 2.15 2.8 3.25 7.15" fill="#b94479" fill-rule="evenodd" transform="translate(.75 .75)"/><path d="m10.45.25.55.5q.35.35 0 .85L6.7 4.95q-4 2.9-3.45 4.45.55 1.55 2.6 3 .65.5 1.15 1.35-1.5 3.1-1.65 8.1l-.95-1q-3.65-3.75-4.3-9Q-.6 6.5 3.05 3.5 6 1 10.45.25m-2 11.2-1.2-.1q-.6-.25-1.05-1-.4-.7-.35-1.45.15-.7.7-1.05.5-.3 1.2 0 .7.25 1.15 1 .4.7.25 1.45l-.15.55-.55.6" fill="#e96ebe" fill-rule="evenodd" transform="translate(.75 .75)"/><path d="M16.4 8.2q-2.9 1.35-4.85 4.15-2.75 3.65-2.9 4.9-.1 1.3 2.15 2.95 1.2.85 1.8 2.1-.85 1.65-.85 3.9l.1.35q-3.95-2.45-6.5-4.7.15-5 1.65-8.1l.4-.8 1.05-1.5.15-.1.4-.5q2.7-2.45 7.4-2.65" fill="#bdf0ff" fill-rule="evenodd" transform="translate(.75 .75)"/><path d="M12.6 22.3q.65-1.3 1.9-2.25 2.75-2.1 5.4-2l1.2.15q-3.65 1.75-4.85 2.65-1.3.9-1.25 2.95.05 2.05 2.75 2.8l5.75.7q-1.95 4.65-8.35 1.15L12.8 27.1l.5-2.1q-.15-1.5-.7-2.7" fill="#daf6ff" fill-rule="evenodd" transform="translate(.75 .75)"/><path d="M21.85 18.95q2 .35 3.9 1.8l-.25-6.3-.45-3.2q-4.3-2.3-7.2-2.3h-.7q-4.7.2-7.4 2.65l-.55.6-1.05 1.5-.4.8q-1.5 3.1-1.65 8.1 2.55 2.25 6.5 4.7l-.1-.35q0-2.25.85-3.9.65-1.3 1.9-2.25 2.75-2.1 5.4-2l1.2.15m2.4 9.1L24.7 27l1.05-6.25m-12.2 7.1 2.35 1.35q6.4 3.5 8.35-1.15m-10.7-.2-.95-.55" fill="none" stroke="#1d59a3" stroke-linecap="round" stroke-linejoin="round" stroke-width="1.5"/><path d="M25.05 11.25Q23.95 6.9 21.8 4.1 18.75.25 13.1.8l-1.9.2q-4.45.75-7.4 3.25-3.65 3-2.95 8.35.65 5.25 4.3 9l.95 1" fill="none" stroke="#84005a" stroke-linecap="round" stroke-linejoin="round" stroke-width="1.5"/></g><g id="U"><path d="M3 21.05q-1.55-3-2.4-5.55-2.7-6.4-3.45-13.15 5.2-2.95 10.9-.9 1.9 5.5 7.95 18.4l6.3 11.45q3.6 6.5 11 12.25 7.45 5.7 16.55 8.1l11.5 2.9q2.4.5 7 2.5 4.55 1.95 7.4 6.4 2.8 4.4 1.05 9.45-1.75 5.05-7.1 3.75 3.65-1 4.2-4.75.5-3.7-1.6-7.35-2.15-3.7-9.95-5.2-7.85-1.55-13.3-3.85L37.3 50.25q-6.35-2.95-10.9-7.9-4.6-5-7.4-10.2l-4.55-8.9q-1.65-3.4-5.15-5.65-2.75-1.9-6.3 3.45" fill="#6e3e8d" fill-rule="evenodd" transform="translate(3.6 .15)"/><path d="M3 21.05q3.55-5.35 6.3-3.45 3.5 2.25 5.15 5.65l4.55 8.9q2.8 5.2 7.4 10.2 4.55 4.95 10.9 7.9l11.75 5.25q5.45 2.3 13.3 3.85 7.8 1.5 9.95 5.2 2.1 3.65 1.6 7.35-.55 3.75-4.2 4.75-1.25-.65-2.3-1.9-1.1-1.3-2.6-4.05-1.55-2.8-5.95-4.25l-10.05-3q-5.65-1.6-9.55-3.7l-4.8-2.65q-6-3.5-11.1-8.5-5.8-5.75-10.45-11.45-4.7-5.75-9.8-15.8l-.1-.3" fill="#7862d0" fill-rule="evenodd" transform="translate(3.6 .15)"/><path d="M73.3 76.8q5.35 1.3 7.1-3.75t-1.05-9.45q-2.85-4.45-7.4-6.4-4.6-2-7-2.5l-11.5-2.9q-9.1-2.4-16.55-8.1-7.4-5.75-11-12.25L19.6 20Q13.55 7.1 11.65 1.6 5.95-.45.75 2.5 1.5 9.25 4.2 15.65q.85 2.55 2.4 5.55l.1.3q5.1 10.05 9.8 15.8 4.65 5.7 10.45 11.45 5.1 5 11.1 8.5l4.8 2.65q3.9 2.1 9.55 3.7l10.05 3q4.4 1.45 5.95 4.25 1.5 2.75 2.6 4.05 1.05 1.25 2.3 1.9z" fill="none" stroke="#731668" stroke-linecap="round" stroke-linejoin="round" stroke-width="1.5"/></g><g id="o" transform="translate(5.25 1.4)"><use ffdec:characterId="43" height="25.4" transform="translate(7.3 10.15)" width="81.9" xlink:href="#E"/><use ffdec:characterId="45" height="19.8" transform="matrix(.9989 -.0092 .0092 .9989 .944 -.592)" width="26" xlink:href="#F"/><use ffdec:characterId="47" height="30.95" transform="matrix(.9992 -.0216 .0216 .9992 -.816 9.067)" width="40.1" xlink:href="#G"/><use ffdec:characterId="49" height="19.05" transform="matrix(.9989 -.0085 .0085 .9989 79.444 .307)" width="25.7" xlink:href="#H"/><use ffdec:characterId="51" height="31.85" transform="matrix(.998 .0484 -.0484 .998 61.538 9.415)" width="38.2" xlink:href="#I"/><use ffdec:characterId="53" height="40.45" transform="matrix(1.0336 -.0172 .0167 .9992 19.062 13.813)" width="47.6" xlink:href="#J"/></g><g id="V" fill-rule="evenodd"><path d="m70.9 7.2.1-.95-.1-1.55-.1-.5-.5-.15-1.2-.2h-.45q-.75.15-1.4.6-1.3 1-1.2 3.7l.1.45q.2 2.4 1.75 5l.5.7v.1l.25.35.45.45 1 .7q1 .55 2.3.55l2.65-.55q1.2-.55 2.2-1.7l.65-.8.05-.05.2-.5-.6.35q-.25-.2-.25-.65 0-2.05-.95-3.65-1.3-1.95-3.45-1.95l-2 .25m-45.3 15-11.2-1.4-4.35-.6-3-.65-3.75-2.4Q0 14.55 0 12.45q0-1.5 4.25-6.35Q8.95.8 11.95.8q2.15 0 4.1.7 2.05.75 5.15 2.65l.65.4.25.05q2 .3 7.1 3.4T44 10.95q9.65-.2 18.05-4.8Q70.4 1.5 72.6.35q2.2-1.2 5.9 1.95 3.4 2.9 3.4 6.95 0 8.05-10.3 12.5-8.55 3.65-19.95 3.65l-5.8-.1-6.9-1.15.45-1.9q.85-5.8-5.1-9.6l-.3-.25.55-.1-1.95-.6-1.2.35q-.9.35-2.3 1.25-1.4.85-2.6 3.7-.85 2.15-.9 4.15v1.05M15.75 3.65H14.2q-2.25.1-4.15 1.6-1.9 1.35-2.1 3.5-.25 2.35 1.25 3.8l.4.35.65.45 1.1.35h1.5q1.15-.1 2.2-.6.95-.45 1.8-1.3l1.5-2.1.4-1.9q.2-1.45-.3-2.35l-.7-.9-.05-.1q-.75-.7-1.95-.8" fill="#9667c5"/><path d="m77.9 13.4-.65.8q-1 1.15-2.2 1.7l-2.65.55q-1.3 0-2.3-.55l-1-.7-.45-.45-.25-.35v-.1l-.5-.7q-1.55-2.6-1.75-5l-.1-.45q-.1-2.7 1.2-3.7.65-.45 1.4-.6h.45l1.2.2.5.15.1.5.1 1.55-.1.95v.15l-.1 1.15-.3 1.75q0 2.25 3.85 2.3 1.65 0 2.6.65l.45.05.15-.05.6-.35-.25.5v.05m-52.3 8.8v-1h.05l.05-.05h-.1q.05-2 .9-4.15l4.75-2.55L34 12.9l.1.8q0 1.2-1.2 2.5-1.3 1.35-1.65 2.95-.35 1.65 1.05 4l.25.3-6.25-.75-.25-.05-.4-.05-.05-.4" fill="#5c59b0"/><path d="m70.9 7.2 2-.25q2.15 0 3.45 1.95.95 1.6.95 3.65 0 .45.25.65l-.15.05-.45-.05q-.95-.65-2.6-.65-3.85-.05-3.85-2.3l.3-1.75.1-1.15V7.2" fill="#6e62ba"/><path d="m78.15 12.85-.2.5-.05.05v-.05l.25-.5" fill="#ec9be1"/><path d="M17.15 6.25q-.3-1.4-1.4-2.6 1.2.1 1.95.8l.05.1.7.9q.5.9.3 2.35l-.4 1.9-1.5 2.1q-.85.85-1.8 1.3-1.05.5-2.2.6h-1.5l2.35-1.85 1.45-1.1Q17.2 8.9 17.2 7l-.05-.75" fill="#a8afd7"/><path d="M26.5 17q1.2-2.85 2.6-3.7 1.4-.9 2.3-1.25l1.2-.35 1.95.6-.55.1.1.35-.1.15-2.75 1.55L26.5 17M15.75 3.65q1.1 1.2 1.4 2.6l-.9 1.2q-.95.55-2.15.75-1.25.15-2.45.85-1.2.7-1.25 3.15l-.1.65-.05.5-.65-.45-.4-.35q-1.5-1.45-1.25-3.8.2-2.15 2.1-3.5 1.9-1.5 4.15-1.6h1.55" fill="#78a8c8"/><path d="m10.25 13.35.05-.5.1-.65q.05-2.45 1.25-3.15 1.2-.7 2.45-.85 1.2-.2 2.15-.75l.9-1.2.05.75q0 1.9-2.05 3.75l-1.45 1.1-2.35 1.85-1.1-.35" fill="#88accf"/><path d="m34 12.4.3.25q5.95 3.8 5.1 9.6l-.45 1.9-.1.35-.45-.1-5.85-.95-.25-.3q-1.4-2.35-1.05-4 .35-1.6 1.65-2.95 1.2-1.3 1.2-2.5l-.1-.8.1-.15-.1-.35" fill="#6761b6"/></g><g id="W"><path d="M8.55 17.3q.2-6 1.25-7.1 1.95-1.95 1.95-4 0-1.9-.55-3.05L9.6.35 12.55 0q4.9 0 8.45 3.15 2.85 2.55 3.5 6.05-2.7 2.8-6.85 4.95-4.2 2.15-9.1 3.15" fill="#adaccf" fill-rule="evenodd" transform="translate(.75 .75)"/><path d="m9.6.35 1.6 2.8q.55 1.15.55 3.05 0 2.05-1.95 4-1.05 1.1-1.25 7.1-2.65.95-6.55 1l-.15-.1q-2.25-3.15-1.8-7 .45-4.85 4-8.05 2.3-2.1 5.35-2.8h.2" fill="#cfbbd3" fill-rule="evenodd" transform="translate(.75 .75)"/><path d="M9.3 18.05q4.9-1 9.1-3.15 4.15-2.15 6.85-4.95-.65-3.5-3.5-6.05Q18.2.75 13.3.75l-2.95.35m-.2 0Q7.1 1.8 4.8 3.9q-3.55 3.2-4 8.05-.45 3.85 1.8 7l.15.1q3.9-.05 6.55-1" fill="none" stroke="#570d30" stroke-linecap="round" stroke-linejoin="round" stroke-width="1.5"/></g><g id="X"><path d="M35.7 3.65q1.4 1.1 2.25 2.7.9 4 .55 6.15l-1.05 4.85Q36.7 20 33.2 23.9l-15-1q.7-4.5 4.15-8.75.95-.45 1.8-1.3l1.5-2.1q4-3.7 10.05-7.1" fill="#adaccf" fill-rule="evenodd" transform="translate(.75 .75)"/><path d="M35.7 3.65q-6.05 3.4-10.05 7.1l.4-1.9q.2-1.45-.3-2.35l-.7-.9-.05-.1q-.75-.7-1.95-.8H21.5q-2.25.1-4.15 1.6-1.9 1.35-2.1 3.5-.25 2.35 1.25 3.8l.4.35.65.45 1.1.35h1.5q1.15-.1 2.2-.6-3.45 4.25-4.15 8.75h-3.4q.9-2.05.65-4.3-.35-2.65-2.9-4.5l-.7-.4-1.4-2.2q-.9-2.1-.9-3.95 0-2.05.4-3.5 2.4-1.4 5.2-2.4Q20.9-.45 26.2.1q1.9.15 3.65.65 3.6.9 5.85 2.9" fill="#cfbbd3" fill-rule="evenodd" transform="translate(.75 .75)"/><path d="m18.2 22.9 15 1q-2.6 2.4-5.25 3.35l-5.5 1.45-4.05.6q-.8-3.25-.2-6.4" fill="#881b6b" fill-rule="evenodd" transform="translate(.75 .75)"/><path d="M18.4 29.3q-4.6.5-8.8-.8l-1.2-.4q2.9-.35 5-3.05l1.4-2.15h3.4q-.6 3.15.2 6.4" fill="#b94479" fill-rule="evenodd" transform="translate(.75 .75)"/><path d="M2 23.6q-.9-1.2-1.4-2.7Q-1.3 15.35 3 9.95l.65-.7.05-.05q2.55-3.05 6.25-5.15-.4 1.45-.4 3.5 0 1.85.9 3.95l1.4 2.2.7.4q2.55 1.85 2.9 4.5.25 2.25-.65 4.3L2 23.6" fill="#f0cbea" fill-rule="evenodd" transform="translate(.75 .75)"/><path d="M8.4 28.1Q4.1 26.55 2 23.6l12.8-.7-1.4 2.15q-2.1 2.7-5 3.05" fill="#e96ebe" fill-rule="evenodd" transform="translate(.75 .75)"/><path d="M33.95 24.65q3.5-3.9 4.25-6.55l1.05-4.85q.35-2.15-.55-6.15-.85-1.6-2.25-2.7-2.25-2-5.85-2.9-1.75-.5-3.65-.65Q21.65.3 15.9 2.4q-2.8 1-5.2 2.4Q7 6.9 4.45 9.95L4.4 10l-.65.7q-4.3 5.4-2.4 10.95.5 1.5 1.4 2.7 2.1 2.95 6.4 4.5l1.2.4q4.2 1.3 8.8.8l4.05-.6L28.7 28q2.65-.95 5.25-3.35" fill="none" stroke="#570d30" stroke-linecap="round" stroke-linejoin="round" stroke-width="1.5"/><path d="m26.4 11.5-1.5 2.1q-.85.85-1.8 1.3-1.05.5-2.2.6h-1.5l-1.1-.35-.65-.45-.4-.35q-1.5-1.45-1.25-3.8.2-2.15 2.1-3.5 1.9-1.5 4.15-1.6h.95m.6 0q1.2.1 1.95.8l.05.1.7.9q.5.9.3 2.35l-.4 1.9" fill="none" stroke="#570d30" stroke-linecap="round" stroke-linejoin="round" stroke-width="1.3"/></g><g id="Y"><path d="m14.95 12.5-1.4-1.35q-3-2.5-4.9-3.1 2.25-4.2 2.55-5.75L11 .95 10.35 0q1.9 0 4 .55 1.8.5 3.3 1.25-1.25 5.7-2.7 10.7" fill="#c47ec0" fill-rule="evenodd" transform="translate(.75 .75)"/><path d="m10.35 0 .65.95.2 1.35q-.3 1.55-2.55 5.75 1.9.6 4.9 3.1l1.4 1.35-2 4.3q-1.75-.4-3.9-1.35l-4.5-2.35Q2.2 11.7.45 9.55q-.75-1.9-.3-3.8.5-1.85 2-3.15Q3.35 1.45 5.3.75q2.4-.9 5.05-.75" fill="#9b62b9" fill-rule="evenodd" transform="translate(.75 .75)"/><path d="m12.95 16.8 2-4.3q1.55 1.7 1.45 3.15l-.2 1.9h-.05l-3.2-.75" fill="#9691c2" fill-rule="evenodd" transform="translate(.75 .75)"/><path d="M14.95 12.5q1.45-5 2.7-10.7l1.45.8q1.75 1.1 3 2.65 2.8 3.4 1.9 6.85-.9 3.4-4.65 4.85l-3.15.6.2-1.9q.1-1.45-1.45-3.15" fill="#c1a5c9" fill-rule="evenodd" transform="translate(.75 .75)"/><path d="M18.4 2.55q-1.5-.75-3.3-1.25-2.1-.55-4-.55Q8.45.6 6.05 1.5 4.1 2.2 2.9 3.35 1.4 4.65.9 6.5q-.45 1.9.3 3.8 1.75 2.15 4.1 3.55l4.5 2.35q2.15.95 3.9 1.35l3.2.75h.05l3.15-.6q3.75-1.45 4.65-4.85.9-3.45-1.9-6.85-1.25-1.55-3-2.65l-1.45-.8z" fill="none" stroke="#570d30" stroke-linecap="round" stroke-linejoin="round" stroke-width="1.5"/></g><g id="Z"><path d="m18.9 4.8-2.85-.85-.5-.15-1.65-.2q-.75.15-1.4.6-1.3 1-1.2 3.7l.1.45q-3.65 3.1-4.15 9-.5 4.85-.15 7.45l-2.2-2.25q-.8-.95-2.45-3.65Q.8 16.15.1 11.2q-.75-4.95 3.05-7.75Q7.1.5 13.9.1l2.4-.1 2.4.15q2.65.15 5.05.85l-2.5 2.4-2.35 1.4" fill="#9b62b9" fill-rule="evenodd" transform="translate(.75 .75)"/><path d="M23.2 13.1q1.25-1.9.9-4.15-.4-2.75-3.55-3.65l-1.65-.5 2.35-1.4 2.5-2.4q3.9 1.1 7.05 3.5l1.55 1.25q-1.85 5.55-3.95 10-2.3-1.95-5.25-2.6l.05-.05M11.4 8.35q.2 2.4 1.75 5l.5.7q-1.4.7-2.6 1.7-3.6 3.1-3.6 7.45l.2 2.05H7.6l-.5-.45q-.35-2.6.15-7.45.5-5.9 4.15-9" fill="#c47ec0" fill-rule="evenodd" transform="translate(.75 .75)"/><path d="m32.35 5.75 2.05 2.4.05.15q2.25 3.45 2.25 8-.05 2.1-.55 3.95-1.05 3.6-3.95 6.1h-.7q.5-1.45.5-3.15 0-1.55-.45-2.95-.85-2.55-3.15-4.5 2.1-4.45 3.95-10" fill="#c1a5c9" fill-rule="evenodd" transform="translate(.75 .75)"/><path d="M13.65 14.05v.1l.25.35q1.5 1.7 3.75 1.7 2.9 0 4.85-2.25l.65-.8q2.95.65 5.25 2.6-3.15 6.45-6.9 10.7h-.55L9.4 26.8l-1.75-1.5v-.05l-.2-2.05q0-4.35 3.6-7.45 1.2-1 2.6-1.7" fill="#ec9be1" fill-rule="evenodd" transform="translate(.75 .75)"/><path d="m32.2 26.35-1.55 1.2q-5.7 3.75-13.1 2.45l-.6-.05q-4.5-.9-7.55-3.15l11.55-.35h.55l10-.1q-.2.45.7 0" fill="#e96ebe" fill-rule="evenodd" transform="translate(.75 .75)"/><path d="M21.5 26.45q3.75-4.25 6.9-10.7 2.3 1.95 3.15 4.5.45 1.4.45 2.95 0 1.7-.5 3.15l-10 .1" fill="#ecb9e5" fill-rule="evenodd" transform="translate(.75 .75)"/><path d="M24.5 1.75q-2.4-.7-5.05-.85l-2.4-.15-2.4.1q-6.8.4-10.75 3.35Q.1 7 .85 11.95q.7 4.95 2.35 7.7 1.65 2.7 2.45 3.65l2.2 2.25M24.5 1.75q3.9 1.1 7.05 3.5L33.1 6.5l2.05 2.4.05.15q2.25 3.45 2.25 8-.05 2.1-.55 3.95-1.05 3.6-3.95 6.1l-1.55 1.2q-5.7 3.75-13.1 2.45l-.6-.05q-4.5-.9-7.55-3.15l-1.75-1.5" fill="none" stroke="#570d30" stroke-linecap="round" stroke-linejoin="round" stroke-width="1.5"/><path d="M23.95 13.85q1.25-1.9.9-4.15-.4-2.75-3.55-3.65l-1.65-.5-2.85-.85-.5-.15-1.65-.2q-.75.15-1.4.6-1.3 1-1.2 3.7l.1.45q.2 2.4 1.75 5l.5.7v.1l.25.35q1.5 1.7 3.75 1.7 2.9 0 4.85-2.25l.65-.8" fill="none" stroke="#570d30" stroke-linecap="round" stroke-linejoin="round" stroke-width="1.3"/></g><g id="aa"><path d="m17 1.55.25-.1q3.75-1.2 8-1.4l5.35.3-7.7 7.2-.65-.2-3.1.35q-.35 0-1.2.35-.9.35-2.3 1.25-1.4.85-2.6 3.7L7.4 15.6l4.75 1.55v.95l.05.5-2.95-.25-3.3-.25Q7 11.45 17 1.55" fill="#cfbbd3" fill-rule="evenodd" transform="translate(.75 .75)"/><path d="m29.15 38-6.7.95q-9.7.35-16.5-4.8-5.5-4.1-5.9-10.25-.15-1.7.05-3.45l.5-2.6 5.35.25-.15 2.35q1.55-1.3 3.45-2.1l2.95.25q.15 1.05.55 2.1 1.5 3.45 4.85 3.9 3.4.5 6.25-1.65l.85-.6 1.35-1.7.9-1.85q1.9 1.2 3.25 2.6 5.9 6.35-1.05 16.6" fill="#e96ebe" fill-rule="evenodd" transform="translate(.75 .75)"/><path d="M45.65 23.2Q44.3 29.1 39 33.3q-4.3 3.4-9.85 4.7 6.95-10.25 1.05-16.6l3.25.6 12.2 1.2m-39.7-5.1 3.3.25q-1.9.8-3.45 2.1l.15-2.35" fill="#b94479" fill-rule="evenodd" transform="translate(.75 .75)"/><path d="M30.6.35q6.2.95 10.2 5.6l.35.45q4.25 5.05 4.85 11l.1 2.75-.45 3.05-12.2-1.2-3.25-.6q-1.35-1.4-3.25-2.6.85-1.2.95-4.35.1-3.15-1.65-4.7-1.75-1.6-3.35-2.2l7.7-7.2m-18.45 16.8L7.4 15.6l5.65-2.6q-.85 2.15-.9 4.15" fill="#c47ec0" fill-rule="evenodd" transform="translate(.75 .75)"/><path d="M.6 17.85q1.6-6.9 7.6-11.6 3.95-3.15 8.8-4.7Q7 11.45 5.95 18.1L.6 17.85" fill="#f0cbea" fill-rule="evenodd" transform="translate(.75 .75)"/><path d="m17.75 2.3.25-.1Q21.75 1 26 .8l5.35.3q6.2.95 10.2 5.6l.35.45q4.25 5.05 4.85 11l.1 2.75-.45 3.05q-1.35 5.9-6.65 10.1-4.3 3.4-9.85 4.7l-6.7.95q-9.7.35-16.5-4.8Q1.2 30.8.8 24.65q-.15-1.7.05-3.45l.5-2.6q1.6-6.9 7.6-11.6 3.95-3.15 8.8-4.7" fill="none" stroke="#570d30" stroke-linecap="round" stroke-linejoin="round" stroke-width="1.5"/><path d="m12.95 19.35-.05-.5v-.95q.05-2 .9-4.15 1.2-2.85 2.6-3.7 1.4-.9 2.3-1.25.85-.35 1.2-.35L23 8.1l.65.2q1.6.6 3.35 2.2 1.75 1.55 1.65 4.7-.1 3.15-.95 4.35l-.9 1.85-1.35 1.7-.85.6q-2.85 2.15-6.25 1.65-3.35-.45-4.85-3.9-.4-1.05-.55-2.1z" fill="none" stroke="#570d30" stroke-linecap="round" stroke-linejoin="round" stroke-width="1.3"/></g><g id="ab"><path d="m69.3 13.25.35.5q1.55 1.85 2.7 3.8 3.35 5.5 3.75 12 .85 12.4-11.4 21.1-4.35 3.1-9.35 5.3Q66.7 36.75 67.1 14.9l2.2-1.65" fill="#9f65d6" fill-rule="evenodd" transform="translate(.75 .65)"/><path d="M55.35 55.95q-4.55 1.9-9.55 2.95-5 1.05-10.45 1.3-4.6.25-8.6-.2 8.8-5.25 15.45-15.75l2.9-5.1q2.6-1.3 6.05-5.2 4.75-5.7 4.75-10-.05-4.3-1.45-4.35-1.4-.1-1.85 2.45l-.4 1.55-1.05 1.1 2.5-8.2.3-.2 2.95 4.05 1.25-.4 3.1-1.2q-.1-2.05-1.95-4.55l3.45-2.15q1.95.45 3.85 3.2l.5-.35q-.4 21.85-11.75 41.05" fill="#b083e2" fill-rule="evenodd" transform="translate(.75 .65)"/><path d="M45.1 39.15q3.35-6.4 6.05-14.45l1.05-1.1.4-1.55q.45-2.55 1.85-2.45 1.4.05 1.45 4.35 0 4.3-4.75 10-3.45 3.9-6.05 5.2" fill="#b1a4f3" fill-rule="evenodd" transform="translate(.75 .65)"/><path d="M14.45 19.1q.75-1.5 1.7-1.2l7.15.4-.75 5.15 2.1.15q-.9 1.05-1.35 3.45-.35 1.75-.35 2.85 0 1 .35 1.35l2.6.15q2.35-.15 6-3.5 3.65-3.4 5.3-5.65h2.6q3-.15 3.75-.75l.05-.1 1 2.5.35-.1q.2 2 2.55 1.85l2.85-.65h.1l.7-.3q-2.7 8.05-6.05 14.45l-2.9 5.1q-14.4 9.5-36.9-.55-1-3.25-1.2-5.85-.25-4.05.3-8.9.2-1.9 1.4-1.65 1.1.25 3.45-.9 1.8-.95 2.3-3.85l1.85.15.25-1.3q.35-1.45.8-2.3" fill="#b1c3f3" fill-rule="evenodd" transform="translate(.75 .65)"/><path d="M26.75 60q-3.1-.35-5.85-1.1-6.9-1.85-11.85-6.15l-2.5-5.4L5.3 43.7q22.5 10.05 36.9.55Q35.55 54.75 26.75 60m-2.1-36.4 4.4.3 1.7-5.1 8.7.35 3.05-.4 1.1 2.65-.05.1q-.75.6-3.75.75h-2.6q-1.65 2.25-5.3 5.65-3.65 3.35-6 3.5l-2.6-.15q-.35-.35-.35-1.35 0-1.1.35-2.85.45-2.4 1.35-3.45m26.5 1.1-.7.3h-.1l-2.85.65q-2.35.15-2.55-1.85 2.25-.85 4.6-1.6l-1.35-4.25q3.45-.35 5.45-1.45l-2.5 8.2" fill="#b0aee2" fill-rule="evenodd" transform="translate(.75 .65)"/><path d="m9.05 52.75-.8-.7Q-1.6 43.05.3 29.9q1.4-9.55 7.2-16.55.95 1.55 3.3 2.45-2.45 4.15-2.25 5.15l2.25 1.4.75.2q-.5 2.9-2.3 3.85-2.35 1.15-3.45.9-1.2-.25-1.4 1.65-.55 4.85-.3 8.9.2 2.6 1.2 5.85l1.25 3.65 2.5 5.4" fill="#c4dbff" fill-rule="evenodd" transform="translate(.75 .65)"/><path d="M7.5 13.35q1.3-1.7 3-3.2 3.9 1.85 4.1 5l-.15 3.95q-.45.85-.8 2.3l-.25 1.3-1.85-.15-.75-.2-2.25-1.4q-.2-1 2.25-5.15-2.35-.9-3.3-2.45m31.95 5.8.1-.25.4-1.7.25-2.45 3.7.05 3.25-.85q1.8-.7 3-.7l2.7.5 1.4.55-.5 1.9-.1.3q-2 1.1-5.45 1.45l1.35 4.25q-2.35.75-4.6 1.6l-.35.1-1-2.5-1.1-2.65-3.05.4" fill="#ffedd1" fill-rule="evenodd" transform="translate(.75 .65)"/><path d="M56.55 3.85q4.15 1.9 7.8 4.75L67.1 11v3.9l-.5.35q-1.9-2.75-3.85-3.2L59.3 14.2q1.85 2.5 1.95 4.55l-3.1 1.2q-.1-1.4-.8-2.7-1.05-1.65-2-2.3l-1.1-.65 2.3-10.45" fill="#e6c1c7" fill-rule="evenodd" transform="translate(.75 .65)"/><path d="m53.75 16.2.5-1.9 1.1.65q.95.65 2 2.3.7 1.3.8 2.7l-1.25.4-2.95-4.05-.2-.1" fill="#ffe3d1" fill-rule="evenodd" transform="translate(.75 .65)"/><path d="m10.5 10.15 2-1.75Q22.65 0 38.05 0q10.3 0 18.5 3.85l-2.3 10.45-1.4-.55-2.7-.5q-1.2 0-3 .7l-3.25.85-3.7-.05-.25 2.45-.4 1.7-.1.25-8.7-.35-1.7 5.1-4.4-.3-2.1-.15.75-5.15-7.15-.4q-.95-.3-1.7 1.2l.15-3.95q-.2-3.15-4.1-5" fill="#e6d7c7" fill-rule="evenodd" transform="translate(.75 .65)"/><path d="m67.1 11 2.2 2.25-2.2 1.65V11" fill="#e1b3af" fill-rule="evenodd" transform="translate(.75 .65)"/><path d="m70.05 13.9.35.5q1.55 1.85 2.7 3.8 3.35 5.5 3.75 12 .85 12.4-11.4 21.1-4.35 3.1-9.35 5.3-4.55 1.9-9.55 2.95-5 1.05-10.45 1.3-4.6.25-8.6-.2-3.1-.35-5.85-1.1-6.9-1.85-11.85-6.15l-.8-.7q-9.85-9-7.95-22.15Q2.45 21 8.25 14" fill="none" stroke="#aa498b" stroke-linecap="round" stroke-linejoin="round" stroke-width="1.5"/><path d="m11.25 10.8 2-1.75Q23.4.65 38.8.65q10.3 0 18.5 3.85 4.15 1.9 7.8 4.75l2.75 2.4 2.2 2.25-2.2 1.65-.5.35q-1.9-2.75-3.85-3.2l-3.45 2.15q1.85 2.5 1.95 4.55l-3.1 1.2-1.25.4-2.95-4.05-.3.2q-2 1.1-5.45 1.45l1.35 4.25q-2.35.75-4.6 1.6l-.35.1-1-2.5-1.1-2.65-3.05.4-8.7-.35-1.7 5.1-4.4-.3-2.1-.15.75-5.15-7.15-.4q-.95-.3-1.7 1.2-.45.85-.8 2.3l-.25 1.3-1.85-.15-.75-.2-2.25-1.4q-.2-1 2.25-5.15-2.35-.9-3.3-2.45 1.3-1.7 3-3.2z" fill="none" stroke="#e18d70" stroke-linecap="round" stroke-linejoin="round" stroke-width="1.3"/></g><g id="q"><path d="M19.4 27.25 21.45 25l3.15 2.4" fill="none" stroke="#8a4961" stroke-linecap="round" stroke-linejoin="round" stroke-width="1.3"/><path d="M60.45 59.5q.7 1.2-.65 4.9 3.85-.5 4 2.8-3.35-.9-5.4-.45l-2.4 2.7q1.35.95 1.85 2 .4 1.8-1.3 2.05-2.3-3.05-3.9-1.9l-2.2 1.4q.4 2.15-.2 2.75-.7.55-1.25 0l-1.1-2-5.75.8q-4.65.25-5.55-1.15-1.05-1.45 1.35-1.45l4.2-.45 2.9-.55L49 69.6q2.95-1.2 5.4-3.9 2.45-2.85 3.1-4.9.55-2.1 1.2-2.6.55-.55 1.75 1.3m-50.15-.35q.8 10.9 10.35 13-4.1 3.6-9.15-2.35-1.05 1.85-.5 2.7-1.8.75-1.75-1 .1-1.75 1.5-2.6l-.85-1.35-1.75 1.55q-1.2.15-1.35-.9-.15-1.1 2.55-2.1l-.45-1.6q-1.4 0-2.1.6-1.2 0-1.2-1.05.2-1.35 2.9-1.2.1-2.95 1.8-3.7" fill="#8a4961" fill-rule="evenodd" transform="translate(-5.6 -58.05)"/></g><g id="ac"><path d="M10.3 10.55q4.6-1.8 9.6 1.3 5.1 3.05 7.55 9.35 2.5 6.15.95 11.85-1.45 5.7-6.1 7.55-4.65 1.9-9.65-1.2-4.95-3.1-7.5-9.3-2.45-6.25-1-11.95 1.5-5.7 6.15-7.6" fill="#f6eee3" fill-rule="evenodd" transform="translate(.65 .65)"/><path d="M10.95 11.2q4.6-1.8 9.6 1.3 5.1 3.05 7.55 9.35 2.5 6.15.95 11.85-1.45 5.7-6.1 7.55-4.65 1.9-9.65-1.2-4.95-3.1-7.5-9.3-2.45-6.25-1-11.95 1.5-5.7 6.15-7.6z" fill="none" stroke="#dba896" stroke-linecap="round" stroke-linejoin="round" stroke-width="1.5"/><path d="M22.85 5.45q1.7-.6 3.65-.6 4.65 0 8.25 3.1L36.5 9.7q4.15 4.8 4.15 11.55 0 6.75-4.15 11.6-4.15 4.8-10 4.8-5.8 0-9.95-4.8Q12.4 28 12.4 21.25q0-2.75.7-5.2l.2.25q1.55 1.85 3.75 1.85 2.15 0 4-1.75 1.8-1.85 2.45-5.65.55-3.4-.65-5.3" fill="#f6eee3" fill-rule="evenodd" transform="translate(.65 .65)"/><path d="M13.1 16.05q.9-3.15 3-5.85l.45-.5q2.75-3.2 6.3-4.25 1.2 1.9.65 5.3-.65 3.8-2.45 5.65-1.85 1.75-4 1.75-2.2 0-3.75-1.85l-.2-.25" fill="#fffcf0" fill-rule="evenodd" transform="translate(.65 .65)"/><path d="M23.5 6.1q1.7-.6 3.65-.6 4.65 0 8.25 3.1l1.75 1.75q4.15 4.8 4.15 11.55 0 6.75-4.15 11.6-4.15 4.8-10 4.8-5.8 0-9.95-4.8-4.15-4.85-4.15-11.6 0-2.75.7-5.2.9-3.15 3-5.85l.45-.5q2.75-3.2 6.3-4.25z" fill="none" stroke="#dba896" stroke-linecap="round" stroke-linejoin="round" stroke-width="1.5"/><path d="M47.2 2.75h.55q2.8 0 5.3 1.15.75.95.9 2.6.35 2.65-1.2 5.35l-.1.2Q51.2 14.5 48.8 15.4q-2.4 1.05-4.3-.05h-.05q-1.9-1.2-2.25-3.75-.3-2.6 1.2-5.2 1.45-2.6 3.8-3.65" fill="#fffcf0" fill-rule="evenodd" transform="translate(.65 .65)"/><path d="m59.2 29.35-1.4 1.75q-4.15 4.85-10.05 4.85t-10.1-4.85q-2-2.35-3.05-5.15 7.8-4.65 12.85-3.45l.35-.75 1.8-3.6q3-5.2 7.45-7.25 1.4 9.45 2.15 18.45" fill="#e7e2d9" fill-rule="evenodd" transform="translate(.65 .65)"/><path d="m59.55 10 1.05 2.05.65 1.65.7 3.8.05.65v1.2l-.1 2.4q-.5 4.2-2.7 7.6-.75-9-2.15-18.45 1.2-.6 2.5-.9" fill="#e7d3d9" fill-rule="evenodd" transform="translate(.65 .65)"/><path d="m56.2 5.9 1.6 1.65L59.55 10q-1.3.3-2.5.9l-.85-5" fill="#f6e5e3" fill-rule="evenodd" transform="translate(.65 .65)"/><path d="M53.05 3.9q1.15.55 2.35 1.4l.8.6.85 5q-4.45 2.05-7.45 7.25l-1.8 3.6-.35.75q-5.05-1.2-12.85 3.45-1.1-3-1.1-6.6 0-5.05 2.25-9.05.75-1.5 1.9-2.75 1.1-1.35 2.45-2.25 3.1-2.35 7.1-2.55-2.35 1.05-3.8 3.65-1.5 2.6-1.2 5.2.35 2.55 2.25 3.75h.05q1.9 1.1 4.3.05 2.4-.9 3.85-3.35l.1-.2q1.55-2.7 1.2-5.35-.15-1.65-.9-2.6" fill="#f6eee3" fill-rule="evenodd" transform="translate(.65 .65)"/><path d="M47.85 3.4h.55q2.8 0 5.3 1.15 1.15.55 2.35 1.4l.8.6 1.6 1.65 1.75 2.45 1.05 2.05.65 1.65.7 3.8.05.65V20l-.1 2.4q-.5 4.2-2.7 7.6l-1.4 1.75Q54.3 36.6 48.4 36.6t-10.1-4.85q-2-2.35-3.05-5.15-1.1-3-1.1-6.6 0-5.05 2.25-9.05.75-1.5 1.9-2.75 1.1-1.35 2.45-2.25 3.1-2.35 7.1-2.55z" fill="none" stroke="#dba896" stroke-linecap="round" stroke-linejoin="round" stroke-width="1.5"/><path d="m77.35 26.5-.85 3.55q-1.9 5.45-6.6 8.3-.5-7.4-1.6-16.1l1.8-.25q3.6 0 6.15 2.9l1.1 1.6" fill="#e2c8c9" fill-rule="evenodd" transform="translate(.65 .65)"/><path d="m69.9 38.35-.55.25q-2.2 1.2-4.3 1.55L64 39.1q-2.55-2.9-2.55-7.05T64 24.9q1.8-2.1 4.3-2.65 1.1 8.7 1.6 16.1" fill="#e7d3d9" fill-rule="evenodd" transform="translate(.65 .65)"/><path d="m68 11.25.7.2q5.3 1.85 7.6 7.25 1.55 3.8 1.05 7.8l-1.1-1.6Q73.7 22 70.1 22l-1.8.25-.5-3.45q.95-1.9.95-4.1 0-2.05-.75-3.45" fill="#f4dfd8" fill-rule="evenodd" transform="translate(.65 .65)"/><path d="M65.05 40.15q-3.1.5-6.2-.55.45-8.5-.15-14.9 4.85-1.05 7.45-3.75l1.65-2.15.5 3.45q-2.5.55-4.3 2.65-2.55 3-2.55 7.15T64 39.1l1.05 1.05" fill="#f5e1dc" fill-rule="evenodd" transform="translate(.65 .65)"/><path d="M58.85 39.6q-5.25-1.85-7.5-7.3-2.35-5.35-.3-11.2l.9-2.1.45 2.6q1.1 4.05 6.1 3.1h.2q.6 6.4.15 14.9" fill="#f6eee3" fill-rule="evenodd" transform="translate(.65 .65)"/><path d="M56.55 13.6q.85-.7 1.75-1.2 4.1-2.2 8.2-1.5l1.3 7.9-1.65 2.15q-2.6 2.7-7.45 3.75-.6-6.7-2.15-11.1" fill="#fffaf0" fill-rule="evenodd" transform="translate(.65 .65)"/><path d="m66.5 10.9 1.5.35q.75 1.4.75 3.45 0 2.2-.95 4.1l-1.3-7.9" fill="#fff9ea" fill-rule="evenodd" transform="translate(.65 .65)"/><path d="M51.95 19q1.65-3.3 4.6-5.4Q58.1 18 58.7 24.7h-.2q-5 .95-6.1-3.1l-.45-2.6" fill="#fffcf0" fill-rule="evenodd" transform="translate(.65 .65)"/><path d="M59.5 40.25q-5.25-1.85-7.5-7.3-2.35-5.35-.3-11.2l.9-2.1q1.65-3.3 4.6-5.4.85-.7 1.75-1.2 4.1-2.2 8.2-1.5l1.5.35.7.2q5.3 1.85 7.6 7.25 1.55 3.8 1.05 7.8l-.85 3.55q-1.9 5.45-6.6 8.3l-.55.25q-2.2 1.2-4.3 1.55-3.1.5-6.2-.55" fill="none" stroke="#dba896" stroke-linecap="round" stroke-linejoin="round" stroke-width="1.5"/><path d="m68.3 22.25 1.8-.25q3.6 0 6.15 2.9l1.1 1.6m-9.05-4.25q-2.5.55-4.3 2.65-2.55 3-2.55 7.15T64 39.1l1.05 1.05" fill="none" stroke="#dba896" stroke-linecap="round" stroke-linejoin="round" transform="translate(.65 .65)"/><path d="M25.55 41.4q-.35-1.8-1.3-3.85l-.4-.9q-1.4-2.7-3.15-3.4-.45 5-4.65 8.25l-.4.35-1.8 1.05-1.05-.2q1.4-.95 2.55-2.25 1.95-2.55 2.75-5.85 1.05-1.1.85-1.55.25-1.25-.5-1.75-2.05-1.4-4.7-1.4l-1.45.25.15 1.65q0 2.75-1.65 5.05l-1.5 1.7L7.7 40l-1.75-1.75q1.5-.55 2.6-2.25 1.3-2.1 1.45-5.25v-.8q0-2.15-1.25-4l.05-.05h-.05l-.45-.6-.95-1.05.95 1.05.45.6-2.25-.25q-1.85-.05-2 1.1-.1 1.05-1.4 1.4-1.05.25-2.6-3.45l4.6.2 2.25-.65 3.9-1.45q1.05-.5 2.2-.85 2.65-.75 5.55-.7 4 .05 6.75 5.05 2.65 5 4.9 7.9 2.2 2.85-2.5 5.8-1.3.8-2.6 1.4m-7.1-10.1q0-3-1.35-5.55-1.35-2.45-3.65-3.8 2.3 1.35 3.65 3.8 1.35 2.55 1.35 5.55" fill="#64e0e8" fill-rule="evenodd" transform="translate(.65 .65)"/><path d="M16.05 41.5q4.2-3.25 4.65-8.25 1.75.7 3.15 3.4l-3.6 3.15q-1.55 1.15-4.2 1.7M9.3 38.55l1.5-1.7q1.65-2.3 1.65-5.05l-.15-1.65 1.45-.25q2.65 0 4.7 1.4l-.15 1.95-.2 1.35-1.9 2.1q-2.55 2.95-3.65 3.05l-1.75-.15-1.5-1.05m-.55-12.6q1.25 1.85 1.25 4v.8l-1.9.9Q5.8 32.9 2.7 30.1q-2-1.8-2.7-4 0-1 .45-1.4H.5q1.55 3.7 2.6 3.45 1.3-.35 1.4-1.4.15-1.15 2-1.1l2.25.25v.05" fill="#a5f9ec" fill-rule="evenodd" transform="translate(.65 .65)"/><path d="m23.85 36.65.4.9q.95 2.05 1.3 3.85h-.1q-3.85 1.55-8.7 1.7l-2.9-.2 1.8-1.05.4-.35q2.65-.55 4.2-1.7l3.6-3.15M18.1 34.6q-.8 3.3-2.75 5.85-1.15 1.3-2.55 2.25-2.85-.8-5.1-2.7l1.6-1.45 1.5 1.05 1.75.15q1.1-.1 3.65-3.05l1.9-2.1M10 30.75Q9.85 33.9 8.55 36q-1.1 1.7-2.6 2.25-4.25-5-5.35-8.85-.65-2.1-.6-3.3.7 2.2 2.7 4 3.1 2.8 5.4 1.55l1.9-.9" fill="#ebfcff" fill-rule="evenodd" transform="translate(.65 .65)"/><path d="M26.2 42.05q1.3-.6 2.6-1.4 4.7-2.95 2.5-5.8-2.25-2.9-4.9-7.9-2.75-5-6.75-5.05-2.9-.05-5.55.7 2.3 1.35 3.65 3.8 1.35 2.55 1.35 5.55l-.15 1.95-.2 1.35q-.8 3.3-2.75 5.85-1.15 1.3-2.55 2.25l1.05.2 2.9.2q4.85-.15 8.7-1.7m-17.75-1.4q2.25 1.9 5.1 2.7M9.4 26.6q1.25 1.85 1.25 4v.8q-.15 3.15-1.45 5.25-1.1 1.7-2.6 2.25l1.75 1.75m1.05-14.1v.05M8 24.9l.95 1.05.45.6m-8.25-1.2H1.1q-.45.4-.45 1.4-.05 1.2.6 3.3 1.1 3.85 5.35 8.85M1.15 25.35l4.6.2L8 24.9l3.9-1.45q1.05-.5 2.2-.85" fill="none" stroke="#61b88f" stroke-linecap="round" stroke-linejoin="round" stroke-width="1.3"/><path d="m26.05 47.45-.5-1.1q-.7-1.6-.8-3.4-.15-3.15 6.25-9.2 8.95 6.85 8.95 11.8 0 3.4-1.2 6.55-1.05 2.8-3.1 5.4l-.55.8q-1.4 1.7-3 2.95-2.15 1.75-4.6 2.8l-1.4.5 1.25-1.9.95-1.4q1.8-2.75 1.95-5.2h.05l-.05-.15v-.7q-.05-1.7-1-3.35l-1.75-2.4-1.45-2q6.25-1.3 12.7 4.65-6.45-5.95-12.7-4.65M35.1 58.3q-1.55-1.05-3-1.6l-1.8-.65 1.8.65q1.45.55 3 1.6" fill="#64e0e8" fill-rule="evenodd" transform="translate(.65 .65)"/><path d="M21.65 49.3q2.2-1.4 4.4-1.85l1.45 2 1.75 2.4q.95 1.65 1 3.35v.7l-.55-.7-1-1q-1.1-.55-3.35-.55-2 0-2.75-1.25l-.3-.55q-.4-.95-.65-2.55m3.9-2.95-.8-.15-2.45.3-1.05-.15q.05-2.55 1.75-4.8 1.55-2.05 7.25-8.3l.75.5q-6.4 6.05-6.25 9.2.1 1.8.8 3.4m4.7 9.6v.1q-.15 2.45-1.95 5.2l-.95 1.4-.25-1.35q-.65-2.15-.7-3.3-.1-1.1.75-1.3l1.4-1 1.7.25" fill="#a5f9ec" fill-rule="evenodd" transform="translate(.65 .65)"/><path d="M18.85 51.4q-.25-1.2-.2-2.45 0-4.5 2.45-7.65 2.2-2.9 8.95-8.25l.2.2q-5.7 6.25-7.25 8.3-1.7 2.25-1.75 4.8l1.05.15 2.45-.3.8.15.5 1.1q-2.2.45-4.4 1.85l-2.8 2.1 2.8-2.1q.25 1.6.65 2.55l.3.55q.75 1.25 2.75 1.25 2.25 0 3.35.55l1 1 .55.7v.05l-1.7-.25-1.4 1q-.85.2-.75 1.3.05 1.15.7 3.3l.25 1.35-1.25 1.9-1.6.5.25-2.8q0-2.2-1.95-4.6l-1.15-1.2-1.4-1.65q-.95-1.55-1.4-3.4m9.7 4.3q-3.2-.3-5.75 1.95 2.55-2.25 5.75-1.95" fill="#ebfcff" fill-rule="evenodd" transform="translate(.65 .65)"/><path d="m30.9 33.9-.2-.2q-6.75 5.35-8.95 8.25-2.45 3.15-2.45 7.65-.05 1.25.2 2.45l2.8-2.1q2.2-1.4 4.4-1.85 6.25-1.3 12.7 4.65-1.05 2.8-3.1 5.4l-.55.8q-1.4 1.7-3 2.95-2.15 1.75-4.6 2.8l-1.4.5-1.6.5.25-2.8q0-2.2-1.95-4.6l-1.15-1.2-1.4-1.65q-.95-1.55-1.4-3.4M30.9 33.9l.75.5q8.95 6.85 8.95 11.8 0 3.4-1.2 6.55m-8.45 3.95-.05-.1-1.7-.25q-3.2-.3-5.75 1.95m7.5-1.6 1.8.65q1.45.55 3 1.6" fill="none" stroke="#61b88f" stroke-linecap="round" stroke-linejoin="round" stroke-width="1.3"/><path d="m58.8 37.65-.2 2.85q-2.5.45-5.85 2.05-.15.05-.35.2l-.65-1.05q-1.4-2.4-1.9-4.55.5 2.15 1.9 4.55l.65 1.05q-3.8 1.7-6.6 2.05l-1.75-2.1q-1.85-2.75-2.05-6 .2 3.25 2.05 6l1.75 2.1-1.05.05q-3.4 0-5.8-1.8-2.35-1.75-5.95-8.6l-.2-.4q.55-.85 2.65-2.75 3.25-3 6.35-4.65 1.9-1.05 4.4-1.45-2.05 2.1-2.95 3.85Q42 31.35 41.9 35q-.35 0-.55 1.2l.65.5.95.55 2.5.4q1.05 0 2.35-4.05 1.45-4.35 4.4-5.8l1.25.55-.55.55q-3.4 2.9-3.3 6.05l.2 1.75.05.45.5-.7q.45-.25.8-.3l1.25-.05q3.45 0 6.3 1.45l.1.1" fill="#64e0e8" fill-rule="evenodd" transform="translate(.65 .65)"/><path d="M50.35 36.45q.35-1.65 1.6-3.4 1.5-2.15 3.35-1.95 1.3.15 3.65 3.55l-.15 2.9h-.1q-2.85-1.45-6.3-1.45l-1.25.05q-.35.05-.8.3M41.9 35q.95 0 1-.55.5-3.2 2.3-5.2 1.9-1.95 5.15-1.95l1.85.5q-2.95 1.45-4.4 5.8-1.3 4.05-2.35 4.05l-2.5-.4-.95-.55-.1-1.1V35" fill="#a5f9ec" fill-rule="evenodd" transform="translate(.65 .65)"/><path d="M58.8 37.65q1.6.8 2.45 2.1l-.2.6-.7-.05-1.75.2.2-2.85" fill="#64d0e8" fill-rule="evenodd" transform="translate(.65 .65)"/><path d="M58.95 29.05v5.6q-2.35-3.4-3.65-3.55-1.85-.2-3.35 1.95-1.25 1.75-1.6 3.4l-.55.25-.2-1.75q-.1-3.15 3.3-6.05l.55-.55-1.25-.55-1.85-.5q-3.25 0-5.15 1.95-1.8 2-2.3 5.2-.05.55-1 .55.1-3.65 1.35-5.95.9-1.75 2.95-3.85l3.05-.25q3.3 0 6.45 1.7 1 .5 2.05 1.25l1.2 1.15m-5.5-.7q1.2-1 2.25-1.7-1.05.7-2.25 1.7" fill="#ebfcff" fill-rule="evenodd" transform="translate(.65 .65)"/><path d="m58.95 34.65 1.95 3.25q.55 1.05.35 1.85-.85-1.3-2.45-2.1v-.1l.15-2.9" fill="#a5f5ec" fill-rule="evenodd" transform="translate(.65 .65)"/><path d="m61.65 40.35-.4-.6q.2-.8-.35-1.85l-1.95-3.25v-5.6q3 3.35 4.05 11.65h-.25l-1.1-.35" fill="#ebfaff" fill-rule="evenodd" transform="translate(.65 .65)"/><path d="m62.3 41 1.1.35h.25q-1.05-8.3-4.05-11.65l-1.2-1.15q-1.05-.75-2.05-1.25-1.05.7-2.25 1.7l-.55.55q-3.4 2.9-3.3 6.05l.2 1.75.05.45q.5 2.15 1.9 4.55l.65 1.05q.2-.15.35-.2 3.35-1.6 5.85-2.05l1.75-.2.7.05h.6m-19.65-3.65q.2 3.25 2.05 6l1.75 2.1q2.8-.35 6.6-2.05m3.3-16.1q-3.15-1.7-6.45-1.7l-3.05.25q-2.05 2.1-2.95 3.85-1.25 2.3-1.35 5.95v.6l.1 1.1m4.2-11.5q-2.5.4-4.4 1.45-3.1 1.65-6.35 4.65-2.1 1.9-2.65 2.75m.2.4q3.6 6.85 5.95 8.6 2.4 1.8 5.8 1.8l1.05-.05" fill="none" stroke="#61b88f" stroke-linecap="round" stroke-linejoin="round" stroke-width="1.3"/><path d="m33.45 34.7.2.4" fill="none" stroke="#000" stroke-linecap="round" stroke-linejoin="round" stroke-width=".05"/><path d="m39.6.15.5-.15Q38 2.35 38.6 7.35l.5 2.35q.9 3.4 3.1 6.85l.5.75q3.35 5-.85 9.9l-.35.45-1.25 1.25q-1.7 2.25-5.65 2.7v-1.15q0-2.3-1-4.2-.9-1.85-2.35-2.8l-4.1-2.7q-2.05-1.1-2.8-3.35v-.5l.25-1.55.95 1.55q2.4 3.55 6.45 3.55l2.4-.1q2.6-.35 4.7-1.4l3.1-2.4-3.1 2.4Q37 20 34.4 20.35l-1.05-1.7-.2-.65-.45-2.1q-.35-1.4-2.1-2.4-1.75-.95-2.9-2.25l-.25-.25-.95-1.2 1.1-1.2 1.3 1.8q1.5 1.85 3.9 1.85h.05l1.1-.05q-.4-.75-.9-.85l.55-2.4q.35-1.75 2.5-4.7 1.6-2.35 3.5-4.1m-.5 9.55q-1.55 1.65-4.05 2.25l-1.1.25 1.1-.25q2.5-.6 4.05-2.25" fill="#64e0e8" fill-rule="evenodd" transform="translate(.65 .65)"/><path d="M36.5 1.5Q38.05.65 39.6.15q-1.9 1.75-3.5 4.1-2.15 2.95-2.5 4.7l-.55 2.4-.95-.5q-1.3-.65-1.15-1.65.15-.95 2.95-4.55l2.6-3.15m-1.9 30.1-1.45-.1-.65-.05-2.75-2.05-3.85-3.8q-1.65-1.9-1.65-6.75l.1-1.45q.75 2.25 2.8 3.35l4.1 2.7q1.45.95 2.35 2.8 1 1.9 1 4.2v1.15M27.45 11l.25.25q1.15 1.3 2.9 2.25 1.75 1 2.1 2.4l.45 2.1.2.65q-2.45-.15-4-1.35-2.2-1.6-2.25-4 0-1.55.35-2.3" fill="#a5f9ec" fill-rule="evenodd" transform="translate(.65 .65)"/><path d="M32.5 31.45q-4.2-.8-7.75-4.7-3.8-4.25-1.95-10 .4-1.5 1.1-2.8 1.1-2.2 2.6-4.15l.95 1.2q-.35.75-.35 2.3.05 2.4 2.25 4 1.55 1.2 4 1.35l1.05 1.7-2.4.1q-4.05 0-6.45-3.55l-.95-1.55-.25 1.55v.5l-.1 1.45q0 4.85 1.65 6.75l3.85 3.8 2.75 2.05M27.6 8.6l2.35-2.4q3.4-3.1 6.55-4.7l-2.6 3.15q-2.8 3.6-2.95 4.55-.15 1 1.15 1.65l.95.5-.2.9h-.05q-2.4 0-3.9-1.85l-1.3-1.8m-3.7 5.35.6 1.1-.6-1.1" fill="#ebfcff" fill-rule="evenodd" transform="translate(.65 .65)"/><path d="M37.15 2.15Q38.7 1.3 40.25.8l.5-.15Q38.65 3 39.25 8l.5 2.35q.9 3.4 3.1 6.85l.5.75q3.35 5-.85 9.9l-.35.45m-6.9 3.95-1.45-.1-.65-.05q-4.2-.8-7.75-4.7-3.8-4.25-1.95-10 .4-1.5 1.1-2.8 1.1-2.2 2.6-4.15l1.1-1.2 2.35-2.4q3.4-3.1 6.55-4.7m-2.55 10.7 1.1-.25q2.5-.6 4.05-2.25m-6.3 2.55q-2.4 0-3.9-1.85l-1.3-1.8m6.35 3.6-1.1.05m1.55 8.1q2.6-.35 4.7-1.4l3.1-2.4m-7.8 3.8-2.4.1q-4.05 0-6.45-3.55L25.25 16m-.1-.3-.6-1.1" fill="none" stroke="#61b88f" stroke-linecap="round" stroke-linejoin="round" stroke-width="1.3"/><path d="M26.85 25.05q1.35-1.15 2.9-.85 1.75.2 2.95 2.95 1.15 2.65 1.15 6.4 0 3.7-1.15 6.2-1.2 2.45-3 2.5-1.2.1-2.45-1.05.1-.6 1.25-1.45 1.4-1.15 1.6-2.7.2-1.55-.7-2.5-.9-1-2.25-1.05l-1.9-.1q-.65.1-.65-1.6 0-2.6 1.2-4.95l1.05-1.8M27 28.7q0 .75.6 1.35.55.55 1.3.55.8 0 1.35-.55.55-.6.55-1.35 0-.8-.55-1.35t-1.35-.55q-.75 0-1.3.55-.6.55-.6 1.35" fill="#ffd0d8" fill-rule="evenodd" transform="translate(.65 .65)"/><path d="m28.55 22.3 1.5-.3q1.95.8 3.45 2.95 2.35 3.45 2.35 8.25t-2.35 8.15q-1.85 2.75-4.3 3.3-1.75-2.3-1.95-3v-.45q1.25 1.15 2.45 1.05 1.8-.05 3-2.5 1.15-2.5 1.15-6.2 0-3.75-1.15-6.4-1.2-2.75-2.95-2.95-1.55-.3-2.9.85l1.7-2.75" fill="#c4a2c4" fill-rule="evenodd" transform="translate(.65 .65)"/><path d="M30.05 22h.15q3 0 5.1 3.4 2.1 3.45 2.1 8.3 0 4.85-2.1 8.2-2.1 3.45-5.1 3.45h-.45l-.5-.6-.05-.1q2.45-.55 4.3-3.3 2.35-3.35 2.35-8.15 0-4.8-2.35-8.25Q32 22.8 30.05 22" fill="#97b7f2" fill-rule="evenodd" transform="translate(.65 .65)"/><path d="M27.95 44.8q-1.65-.85-2.9-2.9-2.1-3.35-2.1-8.2 0-3.9 1.3-6.85l.8-1.45q1.45-2.4 3.5-3.1l-1.7 2.75-1.05 1.8q-1.2 2.35-1.2 4.95 0 1.7.65 1.6l1.9.1q1.35.05 2.25 1.05.9.95.7 2.5-.2 1.55-1.6 2.7-1.15.85-1.25 1.45v.45q.2.7 1.95 3l-1.25.15M27 28.7q0-.8.6-1.35.55-.55 1.3-.55.8 0 1.35.55t.55 1.35q0 .75-.55 1.35-.55.55-1.35.55-.75 0-1.3-.55-.6-.6-.6-1.35" fill="#fff2f4" fill-rule="evenodd" transform="translate(.65 .65)"/><path d="M30.05 22h.15q3 0 5.1 3.4 2.1 3.45 2.1 8.3 0 4.85-2.1 8.2-2.1 3.45-5.1 3.45h-.45q-1-.05-1.8-.55-1.65-.85-2.9-2.9-2.1-3.35-2.1-8.2 0-3.9 1.3-6.85l.8-1.45q1.45-2.4 3.5-3.1l1.5-.3z" fill="none" stroke="#8a4961" stroke-linecap="round" stroke-linejoin="round" transform="translate(.65 .65)"/></g><use ffdec:characterId="2" height="35.55" width="187.05" xlink:href="#K" id="c"/><use ffdec:characterId="4" height="145" width="188.45" xlink:href="#L" id="d"/><use ffdec:characterId="6" height="68" width="57.6" xlink:href="#M" id="e"/><use ffdec:characterId="8" height="56.2" width="24" xlink:href="#N" id="f"/><use ffdec:characterId="10" height="60.2" width="23.45" xlink:href="#O" id="g"/><use ffdec:characterId="12" height="41.3" width="25.65" xlink:href="#P" id="h"/><use ffdec:characterId="14" height="42.55" width="34.75" xlink:href="#Q" id="i"/><use ffdec:characterId="16" height="104.95" width="67.5" xlink:href="#R" id="j"/><use ffdec:characterId="18" height="50.6" width="25.95" xlink:href="#S" id="k"/><use ffdec:characterId="22" height="31.45" width="26.5" xlink:href="#T" id="D"/><use ffdec:characterId="30" height="77.8" transform="translate(.85 .2)" width="81.8" xlink:href="#U" id="n"/><use ffdec:characterId="42" height="25.4" width="81.9" xlink:href="#V" id="E"/><use ffdec:characterId="44" height="19.8" width="26" xlink:href="#W" id="F"/><use ffdec:characterId="46" height="30.95" width="40.1" xlink:href="#X" id="G"/><use ffdec:characterId="48" height="19.05" width="25.7" xlink:href="#Y" id="H"/><use ffdec:characterId="50" height="31.85" width="38.2" xlink:href="#Z" id="I"/><use ffdec:characterId="52" height="40.45" width="47.6" xlink:href="#aa" id="J"/><use ffdec:characterId="55" height="61.7" width="77.65" xlink:href="#ab" id="p"/><use ffdec:characterId="58" height="66.35" width="78.85" xlink:href="#ac" id="r"/><use ffdec:characterId="60" height="17.2" width="187.05" xlink:href="#ad" id="s"/><use ffdec:characterId="62" height="20.1" width="20.1" xlink:href="#ae" id="t"/><use ffdec:characterId="64" height="53.8" width="20.6" xlink:href="#af" id="u"/><linearGradient gradientTransform="matrix(-.0039 .0408 -.0539 -.0052 29.4 20.3)" gradientUnits="userSpaceOnUse" id="v" spreadMethod="pad" x1="-819.2" x2="819.2"><stop offset="0" stop-color="#678cb7"/><stop offset="1" stop-color="#cbf3ea"/></linearGradient><linearGradient gradientTransform="matrix(-.0039 .0408 -.0539 -.0052 14.5 17.55)" gradientUnits="userSpaceOnUse" id="w" spreadMethod="pad" x1="-819.2" x2="819.2"><stop offset="0" stop-color="#678cb7"/><stop offset="1" stop-color="#cbf3ea"/></linearGradient><linearGradient gradientTransform="matrix(-.0102 .0177 -.0229 -.0133 11.8 17)" gradientUnits="userSpaceOnUse" id="x" spreadMethod="pad" x1="-819.2" x2="819.2"><stop offset="0" stop-color="#678cb7"/><stop offset="1" stop-color="#cbf3ea"/></linearGradient><linearGradient gradientTransform="matrix(-.0044 .0274 -.0266 -.0043 13.8 13.7)" gradientUnits="userSpaceOnUse" id="y" spreadMethod="pad" x1="-819.2" x2="819.2"><stop offset="0" stop-color="#678cb7"/><stop offset="1" stop-color="#cbf3ea"/></linearGradient><linearGradient gradientTransform="matrix(-.0068 .0405 -.0356 -.0059 38.2 87.65)" gradientUnits="userSpaceOnUse" id="z" spreadMethod="pad" x1="-819.2" x2="819.2"><stop offset="0" stop-color="#678cb7"/><stop offset="1" stop-color="#cbf3ea"/></linearGradient><linearGradient gradientTransform="matrix(-.0039 .0408 -.0539 -.0052 23.65 87.8)" gradientUnits="userSpaceOnUse" id="A" spreadMethod="pad" x1="-819.2" x2="819.2"><stop offset="0" stop-color="#678cb7"/><stop offset="1" stop-color="#cbf3ea"/></linearGradient><linearGradient gradientTransform="matrix(-.0039 .0408 -.0539 -.0052 .25 8.15)" gradientUnits="userSpaceOnUse" id="B" spreadMethod="pad" x1="-819.2" x2="819.2"><stop offset="0" stop-color="#678cb7"/><stop offset="1" stop-color="#cbf3ea"/></linearGradient><path d="M49.25 12.05Q28.85 16.3 0 16.3t-49.25-4.25q-20.4-4.3-20.4-10.3 0-6.05 20.4-10.3 20.4-4.3 49.25-4.3t49.25 4.3Q69.7-4.3 69.7 1.75q0 6-20.45 10.3" fill-opacity=".353" fill-rule="evenodd" transform="translate(69.65 12.85)" id="b"/><path d="M96 159.05q-.2 1-3.65 2.95-3.45 1.85-6.95-2.05-3.5-3.95-2.85-10.05.5-6.15 3.1-11.9 2.55-5.8 4.3-5.7 1.6.05 2.2 2.2 2.85-3.4 3.9 1.35 1.1 4.75.55 13.5l-.6 9.7" fill="#fff" fill-opacity=".812" fill-rule="evenodd" transform="translate(-82.45 -132.3)" id="l"/><path d="M.8 16.45q-.9-8.2 20.55-12.5l6.45-1.2 8.75-1.1L38 1.5 50.8.8h6.55l5.35.25 3.3.25 2.95.25.65.1 6.25.75 6.3 1.05h.15l.5.15 4.15.75 3.25.6 12.2 1.2 3.65-.1h.15l1.25-.05L119 5.65h.55l10-.1h5.35q12 .1 21.85 1.5 5.75.85 10.75 2.15l1.55.45q12.8 3.65 17.25 6.45" fill="none" stroke="#1a3d8c" stroke-linecap="round" stroke-linejoin="round" stroke-width="1.5" id="ad"/><path d="M10.05 0q4.15 0 7.1 2.95 2.95 2.95 2.95 7.1 0 4.15-2.95 7.1-2.95 2.95-7.1 2.95-4.15 0-7.1-2.95Q0 14.2 0 10.05q0-4.15 2.95-7.1Q5.9 0 10.05 0" fill="#fffcf0" fill-opacity=".859" fill-rule="evenodd" id="ae"/><path d="M3.65 8.65Q7.3-.15 12.45 0q5.1.1 4.5 20.8-.65 20.6 1.45 24.3 2.05 3.65 2.2 7.45l-7.4.3-8 .9q-2.75.35-3.95-3.35Q0 46.65 0 32.05q-.05-14.7 3.65-23.4" fill="#fff" fill-opacity=".702" fill-rule="evenodd" id="af"/></defs></svg>