<svg xmlns:ffdec="https://www.free-decompiler.com/flash" xmlns:xlink="http://www.w3.org/1999/xlink" ffdec:objectType="frame" height="90" width="90" xmlns="http://www.w3.org/2000/svg"><use ffdec:characterId="2" height="9.8" transform="matrix(.9471 0 0 1.7832 21.467 65.362)" width="55.5" xlink:href="#a"/><use ffdec:characterId="7" height="71.5" transform="matrix(.2732 -.1263 .1264 .273 42.368 51.403)" width="109.45" xlink:href="#b"/><use ffdec:characterId="9" height="129.25" transform="matrix(.3014 0 0 .3012 43.858 13.25)" width="144.15" xlink:href="#c"/><use ffdec:characterId="11" height="51.15" transform="matrix(.3014 0 0 .3012 22.05 47.5)" width="42.1" xlink:href="#d"/><use ffdec:characterId="13" height="75.05" transform="matrix(.3014 0 0 .3012 29.05 53.85)" width="49.8" xlink:href="#e"/><use ffdec:characterId="15" height="160.3" transform="matrix(.3014 0 0 .3012 29.95 19.95)" width="72.95" xlink:href="#f"/><use ffdec:characterId="17" height="96.05" transform="matrix(.3014 0 0 .3012 43.7 53)" width="74.55" xlink:href="#g"/><use ffdec:characterId="23" height="135.4" transform="matrix(.3014 0 0 .3012 3.05 12.1)" width="114.75" xlink:href="#h"/><use ffdec:characterId="25" height="156.8" transform="matrix(.3014 0 0 .3012 43.55 19.2)" width="75.65" xlink:href="#i"/><defs><use ffdec:characterId="1" height="9.8" width="55.5" xlink:href="#j" id="a"/><use ffdec:characterId="3" height="63.05" transform="translate(.05 1.7)" width="105.35" xlink:href="#k" id="b"/><use ffdec:characterId="8" height="129.25" width="144.15" xlink:href="#l" id="c"/><use ffdec:characterId="10" height="51.15" width="42.1" xlink:href="#m" id="d"/><use ffdec:characterId="12" height="75.05" width="49.8" xlink:href="#n" id="e"/><use ffdec:characterId="14" height="160.3" width="72.95" xlink:href="#o" id="f"/><use ffdec:characterId="16" height="96.05" width="74.55" xlink:href="#p" id="g"/><use ffdec:characterId="18" height="135.4" width="114.75" xlink:href="#q" id="h"/><use ffdec:characterId="24" height="156.8" width="75.65" xlink:href="#r" id="i"/><g id="k" fill-rule="evenodd"><path d="M87.75 19.85q.4-1 1.8-1.95l-.7-6.4v-.2q-.55-5.15-1.1-3.6l-.2 2.4-.75 7.7q-4.3 11.3-1.75-.55l.05-.4-.25.3-.8.65q-7.5 6.1-14.8 10.15-4.15 2.3-8.2 3.9-8.35 3.95-17.65 3.2l-2.3-.35-4.25-.95-3.65-1.15q-3.35-.85-6.9-1.15-10.95-.25-21.6 2.65l-7.25 1.45h-.2l9.05-5.5 7-1.7q6.8-1.75 17 .15 5.85 2 12.3 2.9l8.8.55 2.9-.55.8-.95 7.85-2.7 5-2.2q3.85-1.9 7.25-4.1-1.55-8-1.05-18.05 5.6 5.2 8.4 12.1l1.55-1.15 2-12.65q-.55-4.8 5.2 4.65 5.55-10.4 5.15-3.8.85 11.15-6.5 24.5-2.9 5.25-7.1 10.85-20.1 22-45.3 23.4l-8.5.4L-8.8 63l.6-2.65-.15.9 7.7-.85H15.8l7.95-1.15 15.05-.65q20.75-2.75 36.15-16.4l.2-.1q7-6.55 11.75-14.9l1.55-3.05 1.9-4.25q1.55-3.65 2.45-7.1 1.05-4.1 1.25-7.9-1.4 3.9-3.5 6.1.5 2.65.25 5l-.05.45-.4 2-2.15 3.8-.45-.85q-.3-.8 0-1.55m-10.8-3.35.3 4.5 3.35-2.35q-1.4-4.4-2.65-6.45l-1.4-1.6.4 5.9" fill="#5d1e1a" transform="translate(8.8)"/><path d="m87.55 10.1.2-2.4q.55-1.55 1.1 3.6v.2l.7 6.4q-1.4.95-1.8 1.95l-.2-9.75m-9.6 2.1q1.25 2.05 2.65 6.45L77.25 21l-.3-4.5.8-1 .2-3.3" fill="#8e322c" transform="translate(8.8)"/><path d="m87.75 21.4.45.85 2.15-3.8.4-2 .05-.45 2-3.2q-.9 3.45-2.45 7.1l-1.9 4.25q-.7-.05-2.85 3.1l-3.75 5.95q-5.5 10.05-23.1 18.35l-.25.2q-8.8 4.3-19.2 5.8l-15 .65-11.35 1-13.6 1.2-7.7.85 1.15-3.75q21.95-1.3 32.85-3.9 7.95-.35 16.35-1.9 21.35-3.9 38.85-19.9l6.9-10.4" fill="#7d2922" transform="translate(8.8)"/><path d="M87.75 19.85q-.3.75 0 1.55l-6.9 10.4Q63.35 47.8 42 51.7q-8.4 1.55-16.35 1.9-10.9 2.6-32.85 3.9l4.75-6 4.75-1q15.35-4.3 25.3-3.75l17-.65q5.35-.85 10.5-2.45l.6-.2 2.9-1.05.2-.1q5.2-2.8 8.6-6.6 5.6-4.2 9.5-8.1 5.1-5.15 7.15-9.8l.8-.65.2.1q-2.55 11.85 1.75.55l.75-7.7.2 9.75M90.8 16q.25-2.35-.25-5 2.1-2.2 3.5-6.1-.2 3.8-1.25 7.9l-2 3.2M-2.55 35.55 4.7 34.1q10.65-2.9 21.6-2.65 3.55.3 6.9 1.15L.8 42.75l-1.1.35 1.3-.75.4-1.1v-.05l-.4.1.3-.8-.1-.45.2.1q1.45-5.55-3.95-4.6m80.5-23.35-.2 3.3-.8 1-.4-5.9 1.4 1.6" fill="#b1453f" transform="translate(8.8)"/><path d="M88.45 24.15 86.9 27.2q-4.75 8.35-11.75 14.9l-.2.1Q59.55 55.85 38.8 58.6l-15.05.65-7.95 1.15H-.65l13.6-1.2 11.35-1 15-.65q10.4-1.5 19.2-5.8l.25-.2q17.6-8.3 23.1-18.35l3.75-5.95q2.15-3.15 2.85-3.1" fill="#bdf2f4" transform="translate(8.8)"/><path d="m33.2 32.6 3.65 1.15 4.25.95 2.3.35q9.3.75 17.65-3.2 4.05-1.6 8.2-3.9 7.3-4.05 14.8-10.15-2.05 4.65-7.15 9.8-3.9 3.9-9.5 8.1-3.4 3.8-8.6 6.6l-.2.1-2.9 1.05-.6.2q-5.15 1.6-10.5 2.45l-17 .65q-9.95-.55-25.3 3.75l-4.75 1Q-9.15 49 .8 42.75L33.2 32.6" fill="#d55f59" transform="translate(8.8)"/></g><g id="l" fill-rule="evenodd"><path d="M14.2 30.15Q9.6 18.9 1.75 6.45-2.85.7-1.45 0q33.7 19.25 55.9 70.4 5.85-2.55 7.35-6.3 0-1.5-.45-3.05l-5.3-.05q13.05-12.3 39.3-15.65 16.4-2.95 19.1.4-7.35 3.95-1.35 3.1 23.85 4.25 28.25 9L130.5 56.5l-.4.05Q110.9 55 92.05 58.3l-.25-.4q-.6-1.2 1-3.65-7.95-.7-16.9 1.5l-.15.15 2.55.1q1.15 1.1-2 4.8-10 11.3-19.7 15.7l1.55 7.15q-10.55 10.35-6.4 18l.3.65.6.95-.15.05q2.25 2.5.2 9.35-3.35 3.6-5.1 4.7-13 13.95-14.8 11.55-.7-.35-1.05-1.1l-2.65-7.4q.85 1.7 2.2 1.2l.45-.2q5.85-4.45 11-12.85-.65-.7 1-3.4l-1.15-1.65-.2-.35q-.95-2.1-.9-4.45-.3-9.05 8.95-17.4-3.65-18.25-15.2-33.95-10.15-15.8-18.95-23.5-.55.9-1.05 2.15-.6 1.7-1.05 4.15M115.6 52.1l-10.9-.65q-1.6-.05-1.6-.9 1.65-3 6.05-4.45-9.25-.7-27.7 3.95-13.9 3.9-22.15 9.55 7.4-.75 6.3 1.3h-.05l-.05.1q-4.45 8.45-10.55 10.55l.55 1.55.8 2.5q13.25-8.3 20.75-18.7l-4.8.35-.15-.05q-.1-.3.15-.7l.5-.6q11.1-5.15 21.05-2.45 2.4-.15-1.8 4.35 19.5-5.3 35.5-2.9-4.9-1.95-11.9-2.8M9 9.8 4 5.5q5.5 8 10.65 18.6-.35-7.45 12.75 9.95 3.9 4.25 5.4 7.3Q47.9 63 52.1 81.3q-.35.85-2.45 2.1l-.95 1.1q-8.25 10.3-4.85 19.95 1.05.15.95 1.3l-.5 1.7q-5.15 12.65-12.75 15.05l1.4 5.8 3.4-2.7q9.55-8.15 14.55-20.1-8.1-11.85 4.6-23-5.2-17.6-8.85-23.05l-.15-.25q-7.3-11.3-12.95-21.9Q23.25 22.4 9 9.8" fill="#ba4206" transform="translate(1.8)"/><path d="m55.5 73.1-.55-1.55q6.1-2.1 10.55-10.55l.05-.1h.05q1.1-2.05-6.3-1.3 8.25-5.65 22.15-9.55 18.45-4.65 27.7-3.95-4.4 1.45-6.05 4.45 0 .85 1.6.9l10.9.65q-10.9.3-20.3 2.3-.7-2.3-5.3-3-5.2-1-14.2 1.45-4.4 2-3.55 3.65-.25.4-.15.7l.15.05 1.2 1.35Q65.8 67.9 55.5 73.1m-6.8 11.4q2.9-.5 3.55-3.05.5-2.05-.4-5.4-3.75-13.15-9.7-21.95-4.5-9.55-9.95-16.1-8.2-11.85-18-19.95L9 9.8q14.25 12.6 24.55 27.5Q39.2 47.9 46.5 59.2l.15.25Q50.3 64.9 55.5 82.5q-12.7 11.15-4.6 23-5 11.95-14.55 20.1l-.35-1.55q7.45-9.15 8.65-16.6l.15-1.7q.1-1.15-.95-1.3-3.4-9.65 4.85-19.95" fill="#fef10f" transform="translate(1.8)"/><path d="M51.75 101.65q-4.15-7.65 6.4-18L56.6 76.5q9.7-4.4 19.7-15.7 3.15-3.7 2-4.8l-2.55-.1.15-.15q8.95-2.2 16.9-1.5-1.6 2.45-1 3.65l.25.4q18.85-3.3 38.05-1.75l.4-.05q3.5.5 4.85 1.55-8.05-.65-20.2 5.3-14.95 9.2-22.5 17.75-4.9 5.05-8.5 9.75-4.2 3.25-9 13.1-7.45-5.8-16.05-5-5.75-.05-7.35 2.7m30.05-34.5q-7.55 3.7-10.25 9.95 5.85-1.7 7.65 2.45.15 4.35-8.95 5.5-3.2-.2-4.1-1.75-.65-.8-5.75 3.35-6.1 4.5-5.65 5.9l6.9-2.7q14.7 3.5 20.45-3 7.5-10.65-.95-14.3 5.65-4.6 13.05-5.75-4.45-2.2-12.4.35" fill="url(#s)" transform="translate(1.8)"/><path d="M81.8 67.15q7.95-2.55 12.4-.35-7.4 1.15-13.05 5.75 8.45 3.65.95 14.3-5.75 6.5-20.45 3l-6.9 2.7q-.45-1.4 5.65-5.9 5.1-4.15 5.75-3.35.9 1.55 4.1 1.75 9.1-1.15 8.95-5.5-1.8-4.15-7.65-2.45 2.7-6.25 10.25-9.95M65.1 84.9l-8.05 5.7q7.4-3.05 6.1-1.55Q73.2 91 78.8 87.75q5.9-4.7 5.9-11.6-2.45-2.25-4.65-3.2.4-2.25 7.6-6.35-8.15 1.9-13.95 8.6 8-.25 6.95 6.35-1.85 3.6-6.6 4.8-4.35 1.45-8.95-1.45" fill="#d82106" transform="translate(1.8)"/><path d="M115.6 52.1q7 .85 11.9 2.8-16-2.4-35.5 2.9 4.2-4.5 1.8-4.35-9.95-2.7-21.05 2.45l-.5.6q-.85-1.65 3.55-3.65 9-2.45 14.2-1.45 4.6.7 5.3 3 9.4-2 20.3-2.3m-43.35 5.15 4.8-.35q-7.5 10.4-20.75 18.7l-.8-2.5q10.3-5.2 17.95-14.5l-1.2-1.35M9 9.8l5.2 8.25q9.8 8.1 18 19.95 5.45 6.55 9.95 16.1 5.95 8.8 9.7 21.95.9 3.35.4 5.4Q51.6 84 48.7 84.5l.95-1.1q2.1-1.25 2.45-2.1Q47.9 63 32.8 41.35q-1.5-3.05-5.4-7.3-13.1-17.4-12.75-9.95Q9.5 13.5 4 5.5l5 4.3m35.65 97.65q-1.2 7.45-8.65 16.6l.35 1.55-3.4 2.7-1.4-5.8q7.6-2.4 12.75-15.05h.35" fill="#ff8f01" transform="translate(1.8)"/><path d="m52.65 103.25-.6-.95q11.3-5.1 22.75 2.55l.85 1.2-.15.25q-9.25-6.45-22.85-3.05M130.5 56.5l10.85 1.35q.9.9 1 1.85L127.3 61q-33.25 13.95-51.55 44.8 2.2-6.9 8.4-14.95 3.6-4.7 8.5-9.75 7.55-8.55 22.5-17.75 12.15-5.95 20.2-5.3Q134 57 130.5 56.5" fill="#411415" transform="translate(1.8)"/><path d="M14.2 30.15q.45-2.45 1.05-4.15l2.35 6.1q4.7 12.6 4.55 19.3.9 4.3.45 9.95l-.05.45-.05 1.5-.05.05-.6 4.1-1.95 11q-1.5 7.05.65 20.95 5.2 7.4 8.95 17.1l1.7 4.65.1.45q-1.35.5-2.2-1.2l-.3-.85q-4.9-12.8-10.4-20.2-3.6-13.95-.05-30.9 2.3-7.25 2.25-12.35-.65-11.95-6.4-25.95" fill="#244b16" transform="translate(1.8)"/><path d="M15.25 26q.5-1.25 1.05-2.15 8.8 7.7 18.95 23.5 11.55 15.7 15.2 33.95-9.25 8.35-8.95 17.4-.05 2.35.9 4.45-5.9-11.8 3.9-23.3-7.25-26.1-28.7-47.75L15.25 26" fill="#6ed547" transform="translate(1.8)"/><path d="m42.4 103.15.2.35 1.15 1.65q-1.65 2.7-1 3.4-5.15 8.4-11 12.85l-.45.2-.1-.45q9-14.6 7.45-31.6Q37.3 69.65 22.6 63.4l-.05-1.6.05-.45q.45-5.65-.45-9.95.15-6.7-4.55-19.3 21.45 21.65 28.7 47.75-9.8 11.5-3.9 23.3" fill="#408824" transform="translate(1.8)"/><path d="m52.05 102.3-.3-.65q1.6-2.75 7.35-2.7 8.6-.8 16.05 5 4.8-9.85 9-13.1-6.2 8.05-8.4 14.95l-.1.25-.85-1.2q-11.45-7.65-22.75-2.55M22.6 63.4q.1 2.7-.2 5.55l-.35 3.7Q19.7 84.3 21.5 97.8q5.95 9.6 8 18.7-3.75-9.7-8.95-17.1-2.15-13.9-.65-20.95l1.95-11 .6-4.1.15.05" fill="#bdf2f4" transform="translate(1.8)"/><path d="M22.6 63.4q14.7 6.25 16.05 26.15 1.55 17-7.45 31.6l-1.7-4.65q-2.05-9.1-8-18.7-1.8-13.5.55-25.15l.35-3.7q.3-2.85.2-5.55" fill="#2c631a" transform="translate(1.8)"/><path d="M65.1 84.9q4.6 2.9 8.95 1.45 4.75-1.2 6.6-4.8 1.05-6.6-6.95-6.35 5.8-6.7 13.95-8.6-7.2 4.1-7.6 6.35 2.2.95 4.65 3.2 0 6.9-5.9 11.6-5.6 3.25-15.65 1.3 1.3-1.5-6.1 1.55l8.05-5.7" fill="url(#t)" transform="translate(1.8)"/></g><g id="m" fill-rule="evenodd"><path d="m11.95 26.35-1.85-1.8 1.75-1L24.7 6.1l1.6.55-13.05 19-.35.2-.35.2-.6.3" fill="#ba4206"/><path d="m17.85 32.1-5.9-5.75.6-.3.35-.2.35-.2 13.05-19 5.95 1.8-.25 10.2q-4.95 12.8-10.85 13.85l-3.3-.4" fill="#d55f59"/><path d="m32.25 8.45.75.25q.55 7.7-.35 17.75L27.3 35l-2.2 4.1-2.25-2.15q-.4-1.15-1.2-2.1l-.6.35-3.2-3.1 3.3.4q5.9-1.05 10.85-13.85l.25-10.2" fill="#b1453f"/><path d="m33 8.7 8.05 2.4-9.45 28.25L28.1 42l-3-2.9 2.2-4.1 5.35-8.55q.9-10.05.35-17.75" fill="#7d2922"/><path d="m41.05 11.1 1.05.35q-2.65 20.4-11.7 30.4L29.1 43l-1-1 3.5-2.65 9.45-28.25" fill="#5d1e1a"/><path d="m13.75 25-.5.65Q4.7 30 3.3 35.5q-.45 1.7-.15 3.55 5.6-5.75 15.4-2 1.85 7.15-.75 10.3 1.45-.2 3.45-1.15l2-1.05 5.35-3.5.35-.25.05-.05.9.95-.15.1-.3.3q-8.9 7.9-13.05 8.3-5.15.95-2.4-3.45-2.9 3.15-2.05-3.4-6.9 7.5-5.95.15l.25-4.8q-6.2 6.55-6.2 2.7-.9-11.95 11.8-18.65l.25-.35 1.65 1.8m2.95 13.6q-2.75-1.9-6.6-.4-1.55 2.4-.95 5.4 3.5-4.2 7.55-5m-1.8 1.9-.1 3.4 2.2-1.7-.15-2.6-1.95.9" fill="#5d1e1a"/><path d="M3.3 35.5q1.4-5.5 9.95-9.85l.5-.65 6.9 7.4Q11.7 31 3.3 35.5m17.95 10.7q-2 .95-3.45 1.15 2.6-3.15.75-10.3-.1-.45 3.1-2.2 3.55 4.25-.4 11.35" fill="#d55f59"/><path d="m23.25 45.15-2 1.05q3.95-7.1.4-11.35-3.2 1.75-3.1 2.2-9.8-3.75-15.4 2-.3-1.85.15-3.55 8.4-4.5 17.35-3.1l5.1 5.45q-2.55 4.9-2.5 7.3M14.9 40.5l1.95-.9.15 2.6-2.2 1.7.1-3.4m1.8-1.9q-4.05.8-7.55 5-.6-3 .95-5.4 3.85-1.5 6.6.4" fill="#b1453f"/><path d="m29 41.35-.05.05-.35.25-5.35 3.5q-.05-2.4 2.5-7.3l3.25 3.5" fill="#7d2922"/><path d="M14.55 13.7q-3.05 9.25-1.25 17.6l.8.85q3.85 3.85 10 5.65l10.6-.4.15.5q-7.85 2.2-13.05.35-9.45-2.45-10.6-11.1l-.85.3Q7.4 21 13.05 13.75l1.5-.05m4.2 16.45-.9-1.75q-1.95-8.55 4.6-14.9l.85.05Q20.35 16.8 18.55 22q-.5 5.95 3.75 9.95 5.75 3 10.65-.15l1 3.15q-11.35 1.45-15.2-4.8" fill="#ba4206"/><path d="m14.1 32.15-.8-.85q-1.8-8.35 1.25-17.6l7.9-.2q-6.55 6.35-4.6 14.9l.9 1.75q-1.3 1.85-4.65 2" fill="#fef10f"/><path d="M14.1 32.15q3.35-.15 4.65-2 3.85 6.25 15.2 4.8l.75 2.45-10.6.4q-6.15-1.8-10-5.65" fill="#ff8f01"/><path d="m38.4 5.4 1.75 2.85q-2.65 5.1-8 10.35-.95.8-1.8 0-5.95-4.7-9.65-11.75l2.05-1.05 3.15 4.35.5.5q2.15 2.35 5 4.4l.55-.1.1-.05q.8-2.3 1.95-4.25l.8-1.3q1.5-2.2 3.6-3.95" fill="#3e3978"/><path d="M38.4 5.4q-2.1 1.75-3.6 3.95l-.8 1.3q-1.15 1.95-1.95 4.25l-.1.05-.75-1.5L35.05 0l3.35 5.4" fill="#605bae"/><path d="m31.95 14.95-.55.1q-2.85-2.05-5-4.4l-.5-.5-3.15-4.35 1.95-.9 3.1 5.75q2.5 3.65 3.8 0L32.25 8l.65-6.95L35.05 0 31.2 13.45l.75 1.5" fill="#8580df"/><path d="m24.7 4.9.6-.3 3.45 6.05q1 1.4 1.5 0L30.6 8l.05-5.9 2.25-1.05L32.25 8l-.65 2.65q-1.3 3.65-3.8 0L24.7 4.9" fill="#055bab"/><path d="m25.3 4.6 5.35-2.5L30.6 8l-.35 2.65q-.5 1.4-1.5 0L25.3 4.6" fill="#15ffb0"/></g><g id="n"><path d="M17.4 50.8h-.05Q5.5 43.95 1.65 33.4l-.65-2-.5-2-.35-2L0 24.95q2.1-4.75 4.7-9 .35-.7 1.55-2.1.2-.5-.4-.2Q8.65 9 11.8 5.55l.15-1.05.95-1.4L14.15 1l.35.1-.05 4.3-.65 1.05-.15.25-1.05 1.7-.2.3q-5.5 9.1-9.15 17.85l-.1.15-.05.15.75 2.85.15.45.4 1.25.75 2 1.9 3.95q4.5 7.7 12.8 11.1l2.75 3.2-.05.05q-1.1-1.2-5.15-.9m25.65-7.3L40.3 60.1 37.75 58l.3-3q.4-3.55 1.3-8.75l.05-.35q.55-.45 3.65-2.4" fill="#5d1e1a" fill-rule="evenodd"/><path d="m7.05 37.35-1.9-3.95-.75-2-.4-1.25-.15-.45.4.15 1.65-.1 1.7-1.1 1.75-2.2H9.3l2.1-3.85.9-3.1.1-10.8.2-.3 1.05-1.7.15-.25.65-1.05.05-4.3h1.05q.3 2.15 1.25 4.45.5.6.65 1.6l-1.7 4.3q-2.7 7.5-3.25 14.95-.2 2.5-.1 5l.05 2 .05.8.25 1.65Q9.2 38 7.05 37.35" fill="#d55f59" fill-rule="evenodd"/><path d="m15.55 1.1 1.2-.05q1.3 2.9 1.15 6.45-.8 2.55-1.45 5.05l-.05.15q-1.9 7.1-2.65 13.7H12.5q.55-7.45 3.25-14.95l1.7-4.3q-.15-1-.65-1.6-.95-2.3-1.25-4.45M18 1l1.5-.05.5 1.75q1.45 4.45 0 3.9-1.05 4.45-1.8 8.95v.2q-.9 5.25-1.3 10.6h-1.1q.4-6.15 1.6-11.7l.05-.2q.95-4.3 2.35-8.25.2-.9-1.15-3.5L18 1" fill="#08c870" fill-rule="evenodd"/><path d="M16.75 1.05 18 1l.65 1.7Q20 5.3 19.8 6.2q-1.4 3.95-2.35 8.25l-.05.2q-1.2 5.55-1.6 11.7l-.15 3.15v1.9l-.05 1.9v.1q.5 5.2 4.55 13.1l-.15.4q-5.3-6.9-6.75-13.5l-.05-.1.1-1.9.1-1.55.2-2.05.15-1.4q.75-6.6 2.65-13.7l.05-.15q.65-2.5 1.45-5.05.15-3.55-1.15-6.45" fill="#15ffb0" fill-rule="evenodd"/><path d="M19.5.95 48.95 0q1.8 9.75-.4 17.6l-1.25 3.5q-1.3 2.1-3 3.75l-1.1 1-.75.6-6.15 3.1-.15.05-.15.05-.3.1-.15.05-.25.05-.35.1-.15.05h-.1l-.25.05-.2.05-.4.1h-.1l-.1.05-.3.05h-.05l-.35.05-.25.05-.3.05-.45.1h-.2l-.35.05-.95.1-.25.05-.5.05h-.35l-1.15.05h-.25l-1.05.05h-1.5l-.5-.05-1.75-.1h-.2l-.3-.05h-.45l-.35-.05-.3.75-.9 2-2.8 5.3-1.45-3.4.05-1.9.1-2 .3-5.05h.05q.4-5.35 1.3-10.6v-.2q.75-4.5 1.8-8.95 1.45.55 0-3.9L19.5.95" fill="#e6dfff" fill-rule="evenodd"/><path d="m48.55 17.6.75 2.95q.5 2.65.5 5.15 0 1.9-.4 4.9l-.1.7-.1-.05h-.9q-1.15.2-4.1 2.5l-.45.35-.1 1.8-1.4.75-.3.2-.8.45-.15.05-.15.1h-.05l-.1.1-1.5.75q-9.6 4.4-19.4 4.45l-1.95-4.05 2.8-5.3.9-2 .3-.75.35.05h.45l.3.05h.2l1.75.1.5.05h1.5l1.05-.05h.25l1.15-.05h.35l.5-.05.25-.05.95-.1.35-.05h.2l.45-.1.3-.05.25-.05.35-.05h.05l.3-.05.1-.05h.1l.4-.1.2-.05.25-.05h.1l.15-.05.35-.1.25-.05.15-.05.3-.1.15-.05.15-.05 6.15-3.1.75-.6 1.1-1q1.7-1.65 3-3.75l1.25-3.5" fill="#bcadf0" fill-rule="evenodd"/><path d="m3.85 29.7-.75-2.85.05-.15.1-.15Q6.9 17.8 12.4 8.7l-.1 10.8-.9 3.1-2.1 3.85h.05l-1.75 2.2-1.7 1.1-1.65.1-.4-.15" fill="#f0756f" fill-rule="evenodd"/><path d="m22.6 51.65-2.75-3.2q-5.9-7.15-7.1-12.6l-.25-1.65-.05-.8-.05-2q-.1-2.5.1-5h1.25l-.15 1.4-.2 2.05-.1 1.55-.1 1.9.05.1Q14.7 40 20 46.9l.15-.4q-4.05-7.9-4.55-13.1v-.1l.05-1.9v-1.9l.15-3.15h1.05l-.3 5.05-.1 2-.05 1.9 1.45 3.4 1.95 4.05 2.7 4.55h.05v.05q1.1.45 2.9 2.95-1.75-.15-2.85 1.35" fill="#08c970" fill-rule="evenodd"/><path d="M19.85 48.45q-8.3-3.4-12.8-11.1 2.15.65 5.7-1.5 1.2 5.45 7.1 12.6m7.2 2.3q.15-.25 1.55-.45l1.9-.4 1.7-.5 1-.35.65 6-.35-.25q-4.65-3.45-5.85-3.7-.8-.2-.6-.35" fill="#b1453f" fill-rule="evenodd"/><path d="m49.2 31.25.1.2.1 1.45v.6l-.7.9q-1.45 1.75-5.35 7.25l-1.2.6Q31.25 43.8 24.8 47.3h-2.3l-2.7-4.55q9.8-.05 19.4-4.45l1.5-.75.1-.1h.05l.15-.1.15-.05.8-.45.3-.2 1.4-.75.1-1.8.45-.35q2.95-2.3 4.1-2.5h.9" fill="#9283c9" fill-rule="evenodd"/><path d="M49.4 33.5v.15l-.95 1.55-.7 1.1-4.7 7.2q-3.1 1.95-3.65 2.4l-.25.2-1.35.85-3.2 1.55-.15.05-1.2.45v.05l-1.05.35-1.7.5-1.9.4q-1.4.2-1.55.45l-1.6-.45q-1.8-2.5-2.9-2.95v-.05h2.25q5.4-.25 11.65-2.55l5.7-2.5 1.2-.6q3.9-5.5 5.35-7.25l.7-.9" fill="#6f5fae" fill-rule="evenodd"/><path d="M33.25 49.05V49l1.2-.45.15-.05 3.2-1.55q-.7 3-.85 5.55l-.1 1.3v1.25l.15 2.4-3.1-2.35-.05-.05-.65-6h.05" fill="#7d2922" fill-rule="evenodd"/><path d="m37.8 46.95 1.35-.85.25-.2-.05.35q-.9 5.2-1.3 8.75l-.3 3-.75-.55-.15-2.4V53.8l.1-1.3q.15-2.55.85-5.55m-13 .35q6.45-3.5 17.35-5.05l-5.7 2.5q-6.25 2.3-11.65 2.55m8.25 11.6.1-.1q4.1 3.7 4.7 5.55.9-.35.1 1.4-1.4 2.6-3.35 4.6.1-1.45 2.65-5.85l-3.1-4.15-.8-1.05-.3-.4" fill="#bdf2f4" fill-rule="evenodd"/><path d="M17.4 50.8q4.05-.3 5.15.9l-.3.5-.8 2-1.9-.8q-2 .25-3.7 2.2h5l.2.1.7.4q5.3 4.15 4.9 6.45l.7-.8q3.5-4.05 6.65-3.85l2.9 2.55 4.7 4.85-.25.6q-2.75 7-9.9 9.15-5-4.2-5.85-9.35-4.4 1.6-7.7 4.6l-12.6-.6-2.45-2.45q-.65-7.4 8.15-14.6l3.2.75 3.15-2.6h.05m5.2 7.95-1.6-2.1q-6.35.95-9.3-.45l-1.25 1.2q-4.1 4.1-5.15 9.8l3.05-.3q4.85-.35 9.15-.05l.25.05q3-3.45 8.05-4.6v-.55l-3.2-3m12 11.6q1.95-2 3.35-4.6.8-1.75-.1-1.4-.6-1.85-4.7-5.55l-.1.1q-2.95 1.75-5 3.7l3.35 8.05.75 1.75 1-.75 1.45-1.3" fill="#3e3978" fill-rule="evenodd"/><path d="m10.45 57.4 1.25-1.2q2.95 1.4 9.3.45l1.6 2.1-8.7-.3 3.6 8.4q-4.3-.3-9.15.05.2-4.6 2.1-9.5M31.4 70.65l-3.35-8.05q2.05-1.95 5-3.7l.3.4q.5 5.05-1.95 11.35" fill="#8580df" fill-rule="evenodd"/><path d="m22.6 58.75 3.2 3v.55q-5.05 1.15-8.05 4.6l-.25-.05-3.6-8.4 8.7.3m-1.75-3.15h-5q1.7-1.95 3.7-2.2l1.9.8-.35 1.4h-.25M34.6 70.35l-1.45 1.3q1.95-5.15 1-11.3l3.1 4.15q-2.55 4.4-2.65 5.85" fill="#605bae" fill-rule="evenodd"/><path d="m22.55 51.7.05-.05q1.1-1.5 2.85-1.35l1.6.45q-.2.15.6.35 1.2.25 5.85 3.7l.35.25.05.05 3.1 2.35.75.55 2.55 2.1-.75.85Q40.7 62 41.7 63.9l-.1 1.4-4.7-4.85q.5-.1.15-.9-5-4.4-10.2-7.35l-1.5-.85-.85-.45-.15.7q-.6 2.3-1.05 2.7l-1.55 1.8-.7-.4.05-.1.35-1.4.8-2 .3-.5" fill="#8e83a8" fill-rule="evenodd"/><path d="m21.75 56.1 1.55-1.8q.45-.4 1.05-2.7l.15-.7.85.45 1.5.85q.05 2.35-1.7 4.9 1.65 2.8 2.2 4.65l-.7.8q.4-2.3-4.9-6.45" fill="#fff" fill-rule="evenodd"/><path d="M26.85 52.2q5.2 2.95 10.2 7.35.35.8-.15.9L34 57.9q-3.15-.2-6.65 3.85-.55-1.85-2.2-4.65 1.75-2.55 1.7-4.9" fill="#bcb0d7" fill-rule="evenodd"/><path d="m8.35 66.9-3.05.3q1.05-5.7 5.15-9.8-1.9 4.9-2.1 9.5m24.8 4.75-1 .75-.75-1.75q2.45-6.3 1.95-11.35l.8 1.05q.95 6.15-1 11.3" fill="#aaa6ff" fill-rule="evenodd"/><path d="M33.25 49.05V49m-.05.05h.05" fill="none" stroke="#0f0" stroke-linecap="round" stroke-linejoin="round" stroke-width=".25"/></g><g id="o" fill-rule="evenodd"><path d="M45.25 16 43.6 9.75l-.1-.35-.35-1.05q-2.7 8.5-4.15 20.1l-.2 1.2 1.5 1.05 5.85 4.15 1.6 1.1V34.7q-.65-10.35-2.5-18.7M25.1 22.75l.2.05q5.35 1.2 10.75 3.25.65-9.9 3.6-17.8 1.15-10 3.75-7.9 6.05 9.05 8.1 37.7l.2.2q6.95 6.6 13.8 15.85 1.4 4.05 1.45 10.2Q47.9 32.05 29 26.9q-12.75-4.2-20.55-.95l1.8-3.65 3.15-.4 3 1.2.6.15 5.35.35 2.75-.85" fill="#ba4206"/><path d="M46.15 34.85 45.25 16q1.85 8.35 2.5 18.7v1.25l-1.6-1.1m20.8 29.45-.55 4.3Q53.65 39.95 30.5 28.95q-14.95-6.2-23.3-.6l1.25-2.4q7.8-3.25 20.55.95 18.9 5.15 37.95 37.4" fill="#bdf2f4"/><path d="m66.4 68.6-.05.25-1.4 7.85q-16.7-31.75-27.1-39.8l-.45-.3Q17.6 22.75 5 32.6l2.2-4.25q8.35-5.6 23.3.6 23.15 11 35.9 39.65" fill="#7d2922"/><path d="m64.95 76.7-1.45 5.5q.2 3.8.55 7.35l.05.35v.05q-3.3 5.55 2.65 20.85h.2l.3.8.5 1.1.7 1.2.35.5 3.05 3.35-2.3 2.5-4.4-2.9-1.4-.75-.05-.65-.45-2.8-1-2.8h-.05q-1.7-5.65-3.15-7.55-1.6-5.15-3.7-10.1 1.3-.25 4-4.55l-.25-.45Q48.9 51.1 28.75 39.65 11.75 31.1 0 42.3l5-9.7q12.6-9.85 32.4 4l.45.3q10.4 8.05 27.1 39.8" fill="#b1453f"/><path d="m69.55 120.25-7.5 7.45-1.9.1q-.6-2.15-.9-4.1l1.75-8.55q.45-.8.5-1.85l-.5-2.75-.15-.35h.05l-1.85-7.4q1.45 1.9 3.15 7.55h.05l1 2.8.45 2.8.05.65 1.4.75 4.4 2.9m-55-.25-.45-.75-.25-.15q-.25-1.4-1.85-1.4l-.4.05.05-3.95h.2q.4-17.9-2.5-31.8v-.1Q10.55 69.95 0 42.3q11.75-11.2 28.75-2.65Q48.9 51.1 59.1 87.7l.25.45q-2.7 4.3-4 4.55l-1.55.3-1.2.25-.8.15Q40.5 68.85 26.45 60.3q5.15 18.15 6.1 36.6-14.4 2.55-15.6 2.4v-.05l-.55-1.75q-4.4 9.45-3.7 16.3.3 2.15 1.25 4.45l.1.1.55 1.5-.05.15" fill="#d55f59"/><path d="m62.05 127.7-1.5 1.4-.4-1.3 1.9-.1M51.8 93.4l-2.6.45-16.65 3.05q-.95-18.45-6.1-36.6Q40.5 68.85 51.8 93.4" fill="#f0756f"/><path d="m60.55 129.1-.85.75q-.75-2.55-1-4.55l-.15-1.55V123q-.1-1.25.15-2.9l.4-2.2q.4-2 1.15-4.45v-.05l-.85-3.3h.1l1.35.1.15.35.5 2.75q-.05 1.05-.5 1.85l-1.75 8.55q.3 1.95.9 4.1l.4 1.3m-2.1 1.85-1.25 1.1-.4-.75-1.15-3.05-.2-.75q-.4-1.5-.5-3.2l-.3-.5q-.15-1.8.45-4.2.5-2.3 1.65-5.1l.3-.7q.25-1.25-.4-3.2l.1-.75 1.45.15.5.8q.55 1.25.35 2.8l-.35 1.5-.15.4-1.15 3.1q-.95 2.8-1.05 4.8 0 1.15.3 2.55.5 2.15 1.8 4.95v.05m-3.1-38.25q2.1 4.95 3.7 10.1-1-1.25-1.9-.85Q55.6 97.2 53.8 93l1.55-.3m.8 10.15-.2.35-4.15-9.8.8-.15 3.55 9.6m-39.5-1.95-.45 9.1-.15 2.8.4.85-1.2.05-.3-.8 1.7-12m.3-1.65h-.1q-3.4 6-2.8 14.45l.05.05h-.2l-1.2.05q-.7-6.85 3.7-16.3l.55 1.75" fill="#08c970"/><path d="M65.35 98.75q1.4 7.55 3.85 13.75h-.05l.65.85.15.2 1.3 1.2 1.7 1.7-1.1 1.3-3.05-3.35-.35-.5-.7-1.2-.5-1.1-.3-.8h.1q-2.45-10.55-1.7-12.05m-53.75 19q-.9.1-1.25.8l-1.45-.05q2.05-18.4.05-33.2l-.15-.6.5-2.7h.05q2.9 13.9 2.5 31.8h-.2l-.05 3.95" fill="#5d1e1a"/><path d="M64.1 89.95q.45 4.6 1.25 8.8-.75 1.5 1.7 12.05h-.3Q60.8 95.5 64.1 89.95" fill="#bacacb"/><path d="m49.2 93.85 2.6-.45 4.15 9.8.2-.35 2.3 7.2-.25-.05-1.45-.15-.1.75Q55 105.75 49.2 93.85m7.95 8.1q.9-.4 1.9.85l1.85 7.4h-.05l-1.35-.1-2.35-8.15" fill="#29b86c"/><path d="m52.6 93.25 1.2-.25q1.8 4.2 3.35 8.95-.5.15-1 .9l-3.55-9.6" fill="#9df752"/><path d="m58.45 110.05-2.3-7.2q.5-.75 1-.9l2.35 8.15h-.1l-.95-.05m-41.6-10.8-.2 1.65-1.7 12 .3.8h-.1l-1.05.05-.05-.05q-.6-8.45 2.8-14.45" fill="#1dffab"/><path d="m50.45 128.9 1.85-4.95q.45-1.25 2-4.05l.35-.65q1.35-2.45 1.5-4.15l.15-1.25-3.75.4q-2.75-5.6-7.05-12.1l-2.25 1.25q-5.8 3.2-10.6 5.1-10.7 4.1-16.45 1.5l.45-9.1.2-1.65.1.05q1.2.15 15.6-2.4l16.65-3.05q5.8 11.9 7.45 16.75.65 1.95.4 3.2l-.3.7q-1.15 2.8-1.65 5.1-.6 2.4-.45 4.2l.3.5q-2.45 1.9-4.5 4.6m-9.65 19.7-.15 2.55-1.55-1.6.3-.2 1.4-.75m-2.55 1.8 2.35 2.3v.25l-1.3-1.2-.5-.4q.1-.35-.2-.45l-.35-.3v-.2" fill="#9283c9"/><path d="m57.2 132.05-6.05 4.75-1.9 1.5q.35-2 1-3.65.75-1.85 1.95-3.35l1.8-1.85 1.65-1.2 1.15 3.05.4.75M46.45 114.9q1.5 10.7-2 18.9-1.3 2.1-3 3.75l-1.1 1-.75.6-6.15 3.1-.15.05-.15.05-.3.1-.15.05-.25.05-.35.1-.15.05h-.1l-.25.05-.2.05-.4.1h-.1l-.6-.6-.2-.6-5.7-4.8-1.85-1.85-.55-.1q-3-4.45-4.25-6.8-.6-1.1-1.25-3l-.35-1.15 1-4.7q.95.35.7-1.35l-.7-2.55-.15-.55-.35-1.2h-.2l-.4-.85.15-2.8q5.75 2.6 16.45-1.5 4.8-1.9 10.6-5.1 1.8 3.55 2.85 9.3l.35 2.2" fill="#e6dfff"/><path d="m49.25 138.3-2.15 1.9-.15-1.25-.15-1.15-.3-.2 2.95-6.3.15-.35.85-2.05q2.05-2.7 4.5-4.6.1 1.7.5 3.2l.2.75-1.65 1.2-1.8 1.85q-1.2 1.5-1.95 3.35-.65 1.65-1 3.65m3.3-24.05-6.1.65-.35-2.2q-1.05-5.75-2.85-9.3l2.25-1.25q4.3 6.5 7.05 12.1m-11.1 23.3-.35 6.55-.3 4.5-1.4.75-.3.2q-.55.25-.95.5l-.05-.2q-2.35-2.85-6-5.85l-.15-.05-1.05-1.05h.1l.4-.1.2-.05.25-.05h.1l.15-.05.35-.1.25-.05.15-.05.3-.1.15-.05.15-.05 6.15-3.1.75-.6 1.1-1" fill="#bcadf0"/><path d="M13.4 21.9Q12.1 13 15.3 6.55q.9-4.05 4.55.6 5.55 8.9 5.25 15.6l-2.75.85q-2.15-8.25-4.9-13.95L16.8 8.4q-.65 5.9-.4 14.7l-3-1.2" fill="#8e83a8"/><path d="m17 23.25-.6-.15q-.25-8.8.4-14.7l.65 1.25q.4 6.9-.45 13.6" fill="#fff"/><path d="M22.35 23.6 17 23.25q.85-6.7.45-13.6 2.75 5.7 4.9 13.95" fill="#bcb0d7"/><path d="M43.6 9.75q-2 9.35-3.3 20.95l-1.5-1.05.2-1.2q1.45-11.6 4.15-20.1l.35 1.05.1.35" fill="#fef10f"/><path d="M43.6 9.75 45.25 16l.9 18.85-5.85-4.15q1.3-11.6 3.3-20.95" fill="#ff8f01"/><path d="m59.7 129.85-1.25 1.1v-.05q-1.3-2.8-1.8-4.95-.3-1.4-.3-2.55.1-2 1.05-4.8l1.15-3.1.15-.4.35-1.5q.2-1.55-.35-2.8l-.5-.8.25.05.95.05.85 3.3v.05q-.75 2.45-1.15 4.45l-.4 2.2q-.25 1.65-.15 2.9v.75l.15 1.55q.25 2 1 4.55" fill="#18ffae"/><path d="m47.1 140.2-1.35 1.25-.15-1.3-.05-.55.95-2 .3.2.15 1.15.15 1.25" fill="#6f5fae"/><path d="m15.7 122.75-.2-.6-.6-1.45.15-.5v-1.95q-.2-2.4-1.15-4.5h.2l1.05-.05.65 1.7.4.8.7 1.85.05.85-1.25 3.85" fill="#15ffb0"/><path d="m16.15 124-.45-1.25 1.25-3.85-.05-.85-.7-1.85-.4-.8-.65-1.7h.1l1.2-.05h.2l.35 1.2.15.55.7 2.55q.25 1.7-.7 1.35l-1 4.7m-1.25-3.3-.35-.7.05-.15-.55-1.5-.1-.1q-.95-2.3-1.25-4.45l1.2-.05q.95 2.1 1.15 4.5v1.95l-.15.5" fill="#08c870"/><path d="M43.15 135.6q-6.8-9.55.4-27l1.65.15q4.35 18.45-2.05 26.85" fill="#e6dfff"/><path d="m45.2 108.75 5.05.5 3.9 7.75q-3.25 7.35-3.95 12.2l.25-.3-.85 2.05-3.1 6.65-3.25-1.9-.1-.1q6.4-8.4 2.05-26.85" fill="#bcadf0"/><path d="m46.5 137.6-.95 2-.15-1.4q-1.25-1.15-2.15-2.5l3.25 1.9" fill="#6f5fae"/><path d="m50.25 109.25 6.1.55.3.8-.5 4.5q-.15 1.7-1.5 4.15-1.85 3.3-2.35 4.7l-1.85 4.95-.25.3q.7-4.85 3.95-12.2l-3.9-7.75" fill="#9283c9"/><path d="m56.35 109.8.4.05-.1.75-.3-.8" fill="#08c970"/><path d="M19.25 146.5q.7 2.1 1.8 3.8.5-.6 1.05.3l.05.1q2 2.3 5 3.8 9 4.6 27 2.1l.5 1.3q-20.8 6.65-33.85-5.25-4.75-4.35-4.1-18l.1-.15 1.15-1.15q-.25 4 .1 7.35.3 3.2 1.2 5.8" fill="#244b16"/><path d="M37.45 136.15q-4.4-3.7-9.75-6.1l-2.85.85q-4.1 2.9-5.8 6.5-.75 1.6-1 3.3-.35-3.35-.1-7.35Q27.7 123.3 46 136.8l6 14.5q-18.6 7.25-28.75-.85-.45-.45-1.1.25l-.05-.1q-.55-.9-1.05-.3-1.1-1.7-1.8-3.8 7.2 7.1 16.75 4.05 6.3-2.7 8.2-7.15-3-4.1-6.75-7.25" fill="#408824"/><path d="M19.05 137.4q1.7-3.6 5.8-6.5l2.85-.85q5.35 2.4 9.75 6.1-2.1 10.05-9.05 10.25-7.4-.2-9.35-9" fill="#a2ff7f"/><path d="M37.45 136.15q3.75 3.15 6.75 7.25-1.9 4.45-8.2 7.15-9.55 3.05-16.75-4.05-.9-2.6-1.2-5.8.25-1.7 1-3.3 1.95 8.8 9.35 9 6.95-.2 9.05-10.25" fill="#6ed547"/><path d="M22.15 150.7q.65-.7 1.1-.25 10.15 8.1 28.75.85l.8 2q-8.05 5.75-25.65 1.2-3-1.5-5-3.8" fill="#2c631a"/><path d="m52.8 153.3 1.35 3.3q-18 2.5-27-2.1 17.6 4.55 25.65-1.2" fill="#bdf2f4"/><path d="M26.9 121.2q10.8 5.15 19.95 16.3l.05.1-1.45 2.45-8.05-5.6q-1.1.15-2.2-1-.6-1.7-3.1-3.5-3.5-1.25-2.05 2.35.35.85 1.1.8.9-.95.6.3-1.65 6.05-4.65 10.05-2.55-1.3-6.05-7.5-.65-1-.4-1.9l.2-.5q1.25-1.45.55-2.2l-5 6.85-.05-3.5q.05-3.65.9-3.55 5.9-10.75 8.55-10.5l1.1.55m-1.15.35q-3.85 4.15-7.35 9.75l-.8 1.25.05 3.1q1.15-4 3.15-5.2 2.35-.75 2.05 2.1-.15 1.6-1.75 1.55l3.95 5.45 1.75 2.5.45-.15.45-1.05 2.95-7q-1.7 0-2.15-3.6.05-2.05 2.1-2.2 3.7.4 5.5 4.6 5.15 2.05 9.55 5.8l.15-1.25-3.3-2.85-.7-.6q-7.8-6.65-16.05-12.2" fill="#ba4206"/><path d="m18.4 131.3 4.3-3.7 2.35 11.95-3.95-5.45q1.6.05 1.75-1.55.3-2.85-2.05-2.1-2 1.2-3.15 5.2l-.05-3.1.8-1.25m7.35-8.75v-1q8.25 5.55 16.05 12.2l-16.05-11.2" fill="#fef10f"/><path d="M27.25 141.9q-1.65-9.45-1.5-19.35l16.05 11.2.7.6 3.3 2.85-.15 1.25q-4.4-3.75-9.55-5.8-1.8-4.2-5.5-4.6-2.05.15-2.1 2.2.45 3.6 2.15 3.6l-2.95 7-.45 1.05" fill="#ff8f01"/><path d="M18.4 131.3q3.5-5.6 7.35-9.75v1q-.15 9.9 1.5 19.35l-.45.15-1.75-2.5-2.35-11.95-4.3 3.7" fill="#fff"/><path d="m59.65 23.45-.5-3.25q-.95 9.35-2.9 17.8-2.3 16.1-6.4 32.25l-.35 1.45h-.05q-.3-4.9-1.15-8.1-.75-2.75-1.85-4.35-1.6 13.1-4 22.8-3.7 6.15-6.3 8.2l-.6.4-.9-.1V85.6q-.15-2.25-.6-3.4l-.5.3q-2.4 6-6.25 11.5l-.55-.95-.05-.1Q35.85 72.7 36.3 88l4.7-6.75 2.8-13.4q1.25-15.4 4.45-7.25l6.55-31.9q1.1-8.1 2.2-9.65.95-9.5 3.4-2.2 4.5 9.95 4.95 24 3.25 16.8-.7 30.3l-1.35-17.1q-1.45-15.9-3.65-30.6m-40.8 87.95v.15q-5.65.45-14-19.85l.15-.05q2.8 6.9 9.15 14.55l4.6 5.1.1.1M55.6 88.45q-8.65 10.8-24 18.55-8.9 4.75-12.55 4.5l-.1.05-.05-.15 5.9-2.8q22.95-11.2 30.8-20.15" fill="#ba4206"/><path d="M24.8 108.6q17.65-10.75 30.8-20.15-7.85 8.95-30.8 20.15" fill="#bdf2f4"/><path d="M49.85 70.25q4.1-16.15 6.4-32.25 1.95-8.45 2.9-17.8l.5 3.25-.15 2.1-.05.55q-.9 8.05-4.45 27.55-2.1 19.05-5.15 16.6M27.3 94q3.85-5.5 6.25-11.5l.5-.3q.45 1.15.6 3.4l-6.2 10.2q-8.3 12.15-10.55 12.1l-.85-3.4q.7.2 1.4 0 4.55-3.6 8.8-10.25l.1-.15-.05-.1m8.85-3.75q2.6-2.05 6.3-8.2 2.4-9.7 4-22.8 1.1 1.6 1.85 4.35.15 9.35-.95 15.8-7.7 10.65-11.2 10.85m-22 15.95Q7.8 98.55 5 91.65l3.8-1.55q.25 4.5 4.75 10.9l.15.2.45 5" fill="#fef10f"/><path d="M59.65 23.45q2.2 14.7 3.65 30.6-3.2-3.35-3.85-27.95l.05-.55.15-2.1" fill="#c7e2ce"/><path d="m63.3 54.05 1.35 17.1q-2.7 9.1-8.65 16.75v.05l-.2.2-.2.3q-13.15 9.4-30.8 20.15l-5.9 2.8h-.05l-.1-.1-.85-3.4q2.25.05 10.55-12.1l6.2-10.2v4.95l.9.1.6-.4q3.5-.2 11.2-10.85 1.1-6.45.95-15.8.85 3.2 1.15 8.1v.1l.05-.1.35-1.45Q52.9 72.7 55 53.65q3.55-19.5 4.45-27.55.65 24.6 3.85 27.95" fill="#ff8f01"/><path d="m18.75 111.3-4.6-5.1-.45-5 1.2 1.65q1.1 1.3 2.15 1.65l.85 3.4.85 3.4M9.8 89.7l8.85-3.6-1.1 7.6 1.5.05 6.35.05.4.5.05.1-.45.6-7.85-.2-.3 8.5-.8-.95-.2-.25v-6.6l-4.25.2q-1.65-3.15-2.2-6" fill="#fff"/><path d="m26.75 93.05.55.95-.05.25q-4.25 6.65-8.8 10.25-.7.2-1.4 0-1.05-.35-2.15-1.65l-1.2-1.65-.15-.2q-4.5-6.4-4.75-10.9l1-.4q.55 2.85 2.2 6 1.55 3.1 4.25 6.4l.2.25.8.95.5.6 2.5-2.7 3-3.5L25.4 95l.45-.6-.05-.1-.4-.5q-3.5-4.8-6.45-7.4v-.45l.75-.3q3.65 2.55 6.9 7.45l.15-.05" fill="#055bab"/><path d="M20.25 101.2q-1.1-3.55-.9-5.5l3.9 2-3 3.5m5.15-7.4-6.35-.05-.1-7.35q2.95 2.6 6.45 7.4" fill="#19cdf9"/><path d="m18.65 86.1.3.3.1 7.35-1.5-.05 1.1-7.6m4.6 11.6-3.9-2q-.2 1.95.9 5.5l-2.5 2.7-.5-.6.3-8.5 7.85.2-2.15 2.7" fill="#0696d5"/><path d="m12 95.7 4.25-.2v6.6q-2.7-3.3-4.25-6.4" fill="#15ffb0"/></g><g id="p" fill-rule="evenodd"><path d="M36.25 67.05q-1.45 1.5-2.15 3.05l-4.35-8.7 2.35-1.15 4.15 6.8M53.5 60.1l-3.45.1-4.35-6.7 1.85-.95 5.95 7.55" fill="#5d1e1a"/><path d="M46.5 59.9q-2.6-.4-4.7-1.25-3.85 4.9-4.7 9.7v-.05l-.8-1.25V67l-.05.05-4.15-6.8 11.8-5.9 2.6 5.55" fill="#b1453f"/><path d="m48.45 60.1-1.95-.2-2.6-5.55 1.05-.5 3.5 6.25" fill="#7d2922"/><path d="m50.05 60.2-1.6-.1-3.5-6.25.75-.35 4.35 6.7m-6.7-.1q3.2 1.3 8.8 2.5-.3.15.25 1-6.7-1.55-9.05-3.5m10.35 5 .05-.05 6.65-.6q-3.55 2.25-6.7.65" fill="#bdf2f4"/><path d="m48.45 60.1 1.6.1 3.45-.1.6.8q1.1-.45 1.45.65L53.3 62.6q-.95-.2-1.15 0-5.6-1.2-8.8-2.5l-.6-.3-.25-.1q-1.75 2.35-3.15 5.3l-2.05 4.65q.75 1.3.35 1.9-1.4.4-3.45 1.45l.75-1.2-.85-1.7q.7-1.55 2.15-3.05h.05l.8 1.25v.05q.85-4.8 4.7-9.7 2.1.85 4.7 1.25l1.95.2" fill="#8e83a8"/><path d="M37.65 71.55q.4-.6-.35-1.9L39.35 65q1.55 4.15 1.8 7.5l-1.5-1.15-2 .2m5.1-11.75.6.3q2.35 1.95 9.05 3.5l.15.25q-1.95 2.15.1 6.05 2.4 4.35 1.35 3.95-.3-1.5-3.85-2.6-1.45-.95-2.45-.9-1.7-4.8-4.95-10.55" fill="#bcb0d7"/><path d="M39.35 65q1.4-2.95 3.15-5.3l.25.1Q46 65.55 47.7 70.35q-2.7.1-2.15 6.95-2.1-2.85-4.4-4.8-.25-3.35-1.8-7.5" fill="#fff"/><path d="M34.2 73q2.05-1.05 3.45-1.45l2-.2 1.5 1.15q2.3 1.95 4.4 4.8-.55-6.85 2.15-6.95 1-.05 2.45.9 3.55 1.1 3.85 2.6 1.05.4-1.35-3.95-2.05-3.9-.1-6.05l-.15-.25q-.55-.85-.25-1 .2-.2 1.15 0l2.25-1.05q4.4.4 6.05-.5 5.7 3 9.85 8.75 3.6 7 3 12.45-9.6-4.6-13.7-4.65 2.95 3.55 2.75 14.8.4 4.1-1.6 3.2l-5.7-2.5q-1.3.05-2.8-.95-5.8-2.35-8.3-6.2-3 2.5-3 8.25.1 1.3-.5 1.85-4.65.2-9.6-6.45-4.5-7.45-2.95-11.5 3.75-3.35 5.15-5.1m26.2-8.55-6.65.6-.05.05q-.8.8-.15 3.25l1.4 2.7q.9 2.05.9 3.6l1.8-.4q6.55-1.1 13.2 3.05-.4-2.2-1.2-4.1l-1.3-2.5q-3-2.45-5.15-5.05l-1.25-1.55-1.55.35M39.05 92.7l.15.1q-.25-4.55 3.7-9.2.35-3.3 1.15-5.35-2.55-4-4.8-5.7l-.3-.25-6.85 6.65.05.25q1.6 10.25 6.9 13.5M48 71.75l-.3-.15q-.35-.65-1.8 6.65 1.45 3.8 2.15 7.25 3.35 2.25 6.5 3.75 2.1 1 4.2 1.65l1.25.4q-.15-8.85-2.1-12.4-2.3-2.7-6.4-5.95l-3.5-1.2" fill="#3e3978"/><path d="M53.7 65.1q3.15 1.6 6.7-.65l1.55-.35 1.25 1.55q-5.45-.45-8.25 5.4l-1.4-2.7q-.65-2.45.15-3.25m-14.45 7.45q2.25 1.7 4.8 5.7-.8 2.05-1.15 5.35-3.95 4.65-3.7 9.2l-.15-.1q-1.6-1.9-3.85-9-.7-3.05-.35-4.35l.3-.7 4.1-6.1m8.75-.8 3.5 1.2q4.1 3.25 6.4 5.95 1.95 3.55 2.1 12.4l-1.25-.4q-5.35-8-9.2-15.85L48 71.75" fill="#605bae"/><path d="M63.2 65.65q2.15 2.6 5.15 5.05l1.3 2.5q-7.2-5.2-12 1.05l-1.8.4q0-1.55-.9-3.6 2.8-5.85 8.25-5.4m-23.95 6.9-4.1 6.1-.3.7-2.7-.15-.05-.25 6.85-6.65.3.25m15.3 16.7q-3.15-1.5-6.5-3.75-.7-3.45-2.15-7.25 1.45-7.3 1.8-6.65l.3.15 1.55 3.3q1.05 5.5 5 14.2" fill="#8580df"/><path d="M69.65 73.2q.8 1.9 1.2 4.1-6.65-4.15-13.2-3.05 4.8-6.25 12-1.05m-34.8 6.15q-.35 1.3.35 4.35 2.25 7.1 3.85 9-5.3-3.25-6.9-13.5l2.7.15m23.9 11.55q-2.1-.65-4.2-1.65-3.95-8.7-5-14.2 3.85 7.85 9.2 15.85" fill="#aaa6ff"/><path d="m49.85 34.95.05.2.05-.05-.1-.15M21.4.95l1.45.1q.3 1.2 1.4 2.45l.15.2 1.3 1.2 1.7 1.7q5.1 5.3 9.6 10.7l1.9 2.25 4.05 1.1q7.3 2.05 8.95 14.1l.15.3Q53.9 40.6 52 47.2q-.95 3.45-2.95 7.15Q43.8 60.8 37.1 62.1l-3.8.45-1.6 2.2-6.15.2 1.2-3.3 2.15.1 4.4.1q2.45-.55 6.05-2.85l2.35-1.65q3.05-2.1 5.2-6.3 1.9-3.8 3.1-9.3v-.25q-.35-5.6-7.65-15.45l-1.1-1.45-.1-.1-.7-.9-1.1-1.35-.35-.45-.7-.85-.75-.9-.55-.6q-3.85-4.5-8.8-9.65l-1.6-1.65-.3-.25q-1.85-1.65-3.05-3.35l-.35-.5q-1-1.5-1.5-3.1" fill="#5d1e1a"/><path d="M28.2 9.8q4.95 5.15 8.8 9.65l.55.6.75.9.7.85.35.45 1.1 1.35.7.9.1.1 1.1 1.45Q49.65 35.9 50 41.5v.25q-1.2 5.5-3.1 9.3-2.15 4.2-5.2 6.3L39.35 59q3.15-3 5.25-6.95 2.3-4.45 3.2-10l.05-.05q1.4-2.95-7.15-15.45h-.05l-2.45-3.5-.6-.85-.6-.8-.5-.65-.15-.25-.5-.7-.4-.6-7.25-9.4" fill="#bdf2f4"/><path d="M39.35 59q-3.6 2.3-6.05 2.85l-4.4-.1q5.95-2.85 9.55-7.6 4-5.3 5.15-12.9-.75-7.85-3.75-14.5l-.2-.5-.55-1.05-2.15-3.75-.45-.7.5.65.6.8.6.85 2.45 3.5h.05q8.55 12.5 7.15 15.45l-.05.05q-.9 5.55-3.2 10Q42.5 56 39.35 59" fill="#7d2922"/><path d="m16.7.5 4.7.45q.5 1.6 1.5 3.1l.35.5q1.2 1.7 3.05 3.35l.3.25 1.6 1.65 7.25 9.4.4.6.5.7.15.25.45.7 2.15 3.75.55 1.05.2.5q3 6.65 3.75 14.5-1.15 7.6-5.15 12.9-3.6 4.75-9.55 7.6l-2.15-.1 1.05-4.5.7-.35q14.25-8.1 8.45-27.2l-.7-1.85-.65-1.55-2.25-4.6-.1-.15Q29.45 14.7 24 10.4l-4.4-2.9-1.4-.75-.05-.65q-.5-3.9-1.45-5.6" fill="#b1453f"/><path d="m15.3.35 1.4.15q.95 1.7 1.45 5.6l.05.65 1.4.75 4.4 2.9q5.45 4.3 9.25 11.05l.1.15 2.25 4.6.65 1.55.7 1.85q5.8 19.1-8.45 27.2l-.7.35.1-.25q.75-2.5.6-4.75l-1-2.95q5.6-3.75 3.5-14.15l-2-5.25-.65-1.4-.45-.9-1.8-3.1-2.35-2.95q-3.3-3.4-7.25-3.6l-1.9.1q-.6-2.15-.9-4.1l1.75-8.55Q16.5 3.55 15.3.35" fill="#d55f59"/><path d="m14.6 17.95 1.9-.1q3.95.2 7.25 3.6l2.35 2.95 1.8 3.1.45.9.65 1.4 2 5.25q2.1 10.4-3.5 14.15l-.35-1.05q-3.65-7.7-7-15.8h-.05l-.75-1.9-.1-.2-1.1-2.8-.55-1.3-.05-.1-1.85-4.6-.7-2.2-.4-1.3" fill="#f0756f"/><path d="m25.55 64.95-4.85-.6 1.05-3.25 1.05-3.15.9-2.8q-.75-1.2-.95-2.2l-.1-.6-.2-1.35q-2.55-8.3-6.15-17.6l-.8-2-.5-1.25-.5-1.3-1.35-3.2-1.25-3-.25-.45-.4-.75q-.7-1.4-1.15-3.05l-.2-.75q-.4-1.5-.5-3.2l-.3-.5q-.15-1.8.45-4.2.5-2.3 1.65-5.1.8-1.25-.1-3.9l.1-.75 1.45.15.5.8q.8 1.9 0 4.3l-.15.4-1.15 3.1q-.95 2.8-1.05 4.8 0 1.15.3 2.55.5 2.15 1.8 4.95v.05l.05.05.1.3.1.55q.95 3.75 2.25 6.5l.3.65.1.2 1.65 3.75Q21 41.65 24.3 51.75q.7 2.45.15 5.55l-1.25 4.05 2.1.3 1.55-4.6q1.15-4.4.2-6.15l-.1-.25q-4.45-9.1-8.15-17.95l-.45-1.05-.3-.75-.05-.05-.2-.5-.2-.5-.05-.1-.7-1.8-2.3-6.5-.4-1.45q-.75-2.55-1-4.55L13 13.9v-.75q-.1-1.25.15-2.9l.4-2.2q.4-2.05 1.15-4.5l-.85-3.3 1.45.1q1.2 3.2.15 4.95l-1.75 8.55q.3 1.95.9 4.1l.4 1.3.7 2.2 1.85 4.6.05.1.55 1.3 1.1 2.8.1.2.75 1.9h.05q3.35 8.1 7 15.8l.35 1.05 1 2.95q.15 2.25-.6 4.75l-.1.25-1.05 4.5-1.2 3.3" fill="#08c970"/><path d="m12.65.15 1.2.1.85 3.3q-.75 2.45-1.15 4.5l-.4 2.2q-.25 1.65-.15 2.9v.75l.15 1.55q.25 2 1 4.55l.4 1.45 2.3 6.5.7 1.8.05.1.2.5.2.5.05.05.3.75.45 1.05-1.35.4-1.65-3.75-.1-.2-.3-.65q-1.3-2.75-2.25-6.5l-.1-.55-.1-.3-.05-.05v-.05q-1.3-2.8-1.8-4.95-.3-1.4-.3-2.55.1-2 1.05-4.8L13 5.65l.15-.4q.8-2.4 0-4.3l-.5-.8" fill="#18ffae"/><path d="m4.9 19.05 1.85-4.95q.45-1.25 2-4.05l.35-.65q1.35-2.45 1.5-4.15l.5-4.5q.9 2.65.1 3.9-1.15 2.8-1.65 5.1-.6 2.4-.45 4.2l.3.5q-2.45 1.9-4.5 4.6m17.9 38.9-1.05 3.15q-3.75.1-7.9-2.1l-.2-.05-1.95-2.35q-2.25-2.85-4-6.05l6 6 1.05.35q4 1.15 8.05 1.05" fill="#9283c9"/><path d="m.95 27.75 2.95-6.3.15-.35.85-2.05q2.05-2.7 4.5-4.6.1 1.7.5 3.2l.2.75-1.65 1.2-1.8 1.85q-1.2 1.5-1.95 3.35-.65 1.65-1 3.65-.35 2.15-.25 4.7l.35 3.8h-.05l.1.65.25 1.9q4.55 16.75 18.65 13.45.2 1 .95 2.2l-.9 2.8q-4.05.1-8.05-1.05l-1.05-.35-6-6q-3.25-6-4.95-13.3l-.4-1.85v-.1l-.3-1.6-.5-3.35-.15-1.25-.15-1.15-.3-.2" fill="#bcadf0"/><path d="M10.1 18.4q.45 1.65 1.15 3.05l.4.75.25.45 1.25 3 1.35 3.2.5 1.3.5 1.25.8 2q3.6 9.3 6.15 17.6l.2 1.35.1.6Q8.65 56.25 4.1 39.5l-.25-1.9-.1-.65h.05l-.35-3.8q-.1-2.55.25-4.7.35-2 1-3.65.75-1.85 1.95-3.35l1.8-1.85 1.65-1.2" fill="#e6dfff"/><path d="M18.8 32.7q3.7 8.85 8.15 17.95l.1.25q.95 1.75-.2 6.15l-1.55 4.6-2.1-.3 1.25-4.05q.55-3.1-.15-5.55-3.3-10.1-6.85-18.65l1.35-.4" fill="#15ffb0"/><path d="M20.7 64.35q-8.5-1.75-13.5-8.2-2.05-2.65-3.5-6.1-.75-.35.7-3.3Q2.05 41.9.85 35.95v-.1L.8 35.7l-.25-1.45L.2 31.6l-.15-1.3-.05-.55.95-2 .3.2.15 1.15.15 1.25.5 3.35.3 1.6v.1l.4 1.85q1.7 7.3 4.95 13.3 1.75 3.2 4 6.05l1.95 2.35.2.05q4.15 2.2 7.9 2.1l-1.05 3.25" fill="#6f5fae"/></g><g id="q" fill-rule="evenodd"><path d="m28.75 106.4-.2 2.05.05 2.5v.6l.1 1-.15 10.85q-1.25-2.4-2.2-5.45-4.55-15.4 4.5-25.9.15-5.35 2.45-8.6l1.4 5.7q-5.2 9-5.95 17.25" fill="#244b16"/><path d="m39.6 108.7 1.4 5.65-.15.2q-3.2 6-5 12.45-.7 2.9-1.75 2.75-3.3-2.05-5.55-6.35l.15-10.85-.1-1v-.6l-.05-2.5.2-2.05q.85-6.75 6.55-15l.3 1.25q-6.8 11.1-6.1 24.15.7 2.75 2 5.45l1.9 3.45q1.55-9.65 6.2-17" fill="#ba4206"/><path d="M31.5 122.25q-1.3-2.7-2-5.45-.7-13.05 6.1-24.15l1.25 5.1q-5.4 5.35-5.35 24.5" fill="#fef10f"/><path d="M39.6 108.7q-4.65 7.35-6.2 17l-1.9-3.45q-.05-19.15 5.35-24.5l2.75 10.95" fill="#ff8f01"/><path d="M35.3 91.4q-5.7 8.25-6.55 15 .75-8.25 5.95-17.25l.6 2.25" fill="#408824"/><path d="M57.1 48.65h-.25q-6.2 3.1-12 8.45l.2-3.85q6.35-5.45 11.75-7.9l.15.1q1.45-.65 3.6 1.9Q64.4 52 66.2 57.2l-3.35 2.1q-3.9-10.5-5.75-10.65" fill="#8e83a8"/><path d="m56.85 48.65.15.1q-4.1 5.1-6.85 10.5l1.2-5.3-5.1 5.6-1.4-2.45q5.8-5.35 12-8.45" fill="#fff"/><path d="m57 48.75.1-.1q1.85.15 5.75 10.65-8.6 4.6-16.6.25l5.1-5.6-1.2 5.3q2.75-5.4 6.85-10.5" fill="#bcb0d7"/><path d="m41.1 118.75 15.95-.6q4.05-3.55 5.15-6.4.4-1.8 2.65-1 1.7.8 4.85.7.4-2.3 1.5-3 1.95-.6-.85 4.5-1.55.35-6.4-1.1-1.6 3.45-4.6 6l6.1-.9q18.5-5.85 25.05-17.85l.4 3.05q-9.5 15.5-32.1 19.15-21.25 3.6-20.85-3.75l4.1-3.6-1.5 4q-.1.45.55.8" fill="#5d1e1a"/><path d="M89 82.7q-11.3 10.5-23 19.1l-.3.2q-11.95 8.75-25.15 15.95l1.5-4 46-40.5.95 9.25" fill="#7d2922"/><path d="M65.7 102q-8.2 12.4-24.6 16.75-.65-.35-.55-.8 13.2-7.2 25.15-15.95" fill="#b1453f"/><path d="m89 82.7 1.5 16.4q-6.55 12-25.05 17.85l-6.1.9q3-2.55 4.6-6 4.85 1.45 6.4 1.1 2.8-5.1.85-4.5-1.1.7-1.5 3-3.15.1-4.85-.7-2.25-.8-2.65 1-1.1 2.85-5.15 6.4l-15.95.6Q57.5 114.4 65.7 102l.3-.2q11.7-8.6 23-19.1" fill="#d55f59"/><path d="M77.1 97.05q-1.25-6.45-5.45-7.85l-1.05-.25.2-.9q6.35 1.8 7.85 8.85 1.05 7.55-5.25 11-9.7 3.05-14.6-7.2 0-.35.65-.7 1.15 3.7 4.8 5.7 1.45.9 3 1.25 2.7.6 5.6-.7 5.15-3 4.35-8.65l-.1-.55" fill="#5d1e1a"/><path d="m70.6 88.95 1.05.25q4.2 1.4 5.45 7.85-1.9-.8-3.1-.6-1.35-3.75-5.05-4.1 1.15-1.7 1.65-3.4m-3.35 18q-1.55-.35-3-1.25-3.65-2-4.8-5.7l2.5-1.45q.95 3.2 2.75 4.7l.3.4q.35.35.85.35H66l.9.3q-.1 1.8.35 2.65" fill="#bcadf0"/><path d="m77.1 97.05.1.55q.8 5.65-4.35 8.65-2.9 1.3-5.6.7-.45-.85-.35-2.65 1.25.25 2.8 0 4.7-1.75 4.3-7.8v-.05q1.2-.2 3.1.6m-11.4 4.75h.15q.5 0 .85.3l.15.15.2.65-.15.5-.2.25-.7.35h-.15q-.5 0-.85-.35l-.3-.4-.05-.35.2-.6.15-.2.7-.3m5.3-3.25-.5-.3q-.55-.4-.55-.95 0-.45.4-.8l.2-.25.6-.45.55-.6 1.35.3q.45.1.55 1.25.05 1.1-.5 1.5l-.45.25-.85.15-.8-.1" fill="#fff"/><path d="M68.95 92.35q3.7.35 5.05 4.1v.05q.4 6.05-4.3 7.8-1.55.25-2.8 0l-.9-.3.7-.35.2-.25q1.55.3 3.4-.55 2.25-1.35 2.35-4.2v-.15l.45-.25q.55-.4.5-1.5-.1-1.15-.55-1.25l-1.35-.3q-.8-1.1-3.1-2.4l.25-.35.1-.1m-4.1 9.95-.2.6.05.35q-1.8-1.5-2.75-4.7l.5-.35q1 2.8 2.4 4.1" fill="#960c05"/><path d="m67.8 93.75.8-.95q2.3 1.3 3.1 2.4l-.55.6-.6.45-.2.25q-.8-1.35-2.55-2.75m-4.5 3.9q.55 3.1 2.4 4.15l-.7.3-.15.2q-1.4-1.3-2.4-4.1l.85-.55m3.55 4.6.9.1q3.05-.25 3.25-3.8l.8.1.85-.15v.15q-.1 2.85-2.35 4.2-1.85.85-3.4.55l.15-.5-.2-.65" fill="#fef00f"/><path d="M67.8 93.75q1.75 1.4 2.55 2.75-.4.35-.4.8 0 .55.55.95l.5.3q-.2 3.55-3.25 3.8l-.9-.1-.15-.15q-.35-.3-.85-.3h-.15q-1.85-1.05-2.4-4.15 2.75-1.95 4.5-3.9" fill="#ff1508"/><path d="m83.1 50.35-1.75 2.1-9.5-28.2q-4.75-8-2.85-7.85 9.75 3.4 25.4 20.65l-1.25 1.5q-8.8-9.35-18.55-15.7l1.45 3.55q3.6 9.5 7.05 23.95" fill="#ba4206"/><path d="m76.05 26.4-1.45-3.55q9.75 6.35 18.55 15.7l-5.45 6.4q-5.7-11-11.65-18.55" fill="#ff8f01"/><path d="M83.1 50.35Q79.65 35.9 76.05 26.4 82 33.95 87.7 44.95l-4.6 5.4" fill="#fef10f"/><path d="m100.15 62.2-.05-.15h-.05q-9.3 7.55-15.8 18.2l-.05.05q-1.4 1.65.5 8.6l-1.25 1.45-1.1-10.9Q89.8 67.95 99.2 60.5q2.1-1.85 3.45 1.7 3.6 9.2 5.35 16.55l-3.55-.05q-1.1-8.8-4.3-16.5" fill="#8e83a8"/><path d="m100.05 62.05.1.15q-.2 7.85-1.7 17.25-5.55.25-8.45 1.5l-.15.05q-2.7 2.4-4.85 7.55l-.15.4-.15-.05q-1.9-6.95-.5-8.6l.05-.05q6.5-10.65 15.8-18.2" fill="#fff"/><path d="M98.45 79.45q1.5-9.4 1.7-17.25 3.2 7.7 4.3 16.5l.1.75h-6.1" fill="#bcb0d7"/><path d="m84.85 88.95.15-.4q2.15-5.15 4.85-7.55l.15.05q-.2.85.45 1h.1q-.65 4-3.65 11.3v.3q1.7 14.2-3.9 24.9-2.85 5.45-7.65 10l1.9.3 4.9.2h.05l4.45-.1q-.3.65 1.3 1.5l-4.3 3.7-21.1 1.05-.3-.25q-6.75.05-.25-4.55 6.85-7.95 12.45-16.9l2.15-.85q4-7.95 5.8-16.4-.5-1.45 1.05-5.6v-.3l1.25-1.45.05.25.1-.2m-21.65 43.3q-.15.1.35.4l14.5-2.3q-3.3-.75-4-1.5 7.7-9.15 9.9-16.6 2.5-8.45 2.4-17.9-1.1-.85-.25-2.4l.05-.35q4.1-10.2 3.3-9.45L87 86.85q-1.35 2.6-1.95 4.15-.75 1.85-.5 2.05-1.7 1.25-1.3 2.2.2 18.8-20.05 37" fill="#ba4206"/><path d="M63.2 132.25q20.25-18.2 20.05-37-.4-.95 1.3-2.2-.25-.2.5-2.05.8 6.25-2.15 19.25-2.85 8.65-9.25 17.8-6.5 3.05-10.45 4.2" fill="#fef10f"/><path d="M85.05 91q.6-1.55 1.95-4.15l2.45-4.7q.8-.75-3.3 9.45l-.05.35q-.85 1.55.25 2.4.1 9.45-2.4 17.9-2.2 7.45-9.9 16.6.7.75 4 1.5l-14.5 2.3q-.5-.3-.35-.4 3.95-1.15 10.45-4.2 6.4-9.15 9.25-17.8 2.95-13 2.15-19.25" fill="#ff8f01"/><path d="m96.55 87.75.05.15.4 4.65q-.85-5.5-1.75-8.2 1.35 15.75-3.8 25.55-6.4 9.15-8.45 8.65 5.6-10.7 3.9-24.9v-.3q3-7.3 3.65-11.3V82l3.95-.7q1.35 1.1 2 6.05l.05.35v.05" fill="#6ed547"/><path d="M97 92.55q.75 13.6-3.65 21.9-5 10-16.1 14.4l-1.9-.3q4.8-4.55 7.65-10 2.05.5 8.45-8.65 5.15-9.8 3.8-25.55.9 2.7 1.75 8.2" fill="#a2ff7f"/><path d="m97 92.55-.4-4.65q7.6 26.9-14.4 41.15h-.05l-4.9-.2q11.1-4.4 16.1-14.4 4.4-8.3 3.65-21.9" fill="#2c631a"/><path d="M90 80.95q2.9-1.25 8.45-1.5h6.1l-.1-.75 3.55.05v.05h.35q1.5.05 3.05 2.65 12.55 30.2-21.9 47.1l-2.8.25-.05.15-4.45.1q7.8-2.85 13.9-7.25 9.95-7.25 15.15-18.75 1.85-5.65-.5-16.25-1.45-4.85-3.1-6.3-.75.1-1.5.45-4.05-.3-8-.05l-3.65.4-3.95.7-.1.05q-.65-.15-.45-1v-.1" fill="#244b16"/><path d="M98.15 80.9q3.95-.25 8 .05.75-.35 1.5-.45 1.65 1.45 3.1 6.3 2.35 10.6.5 16.25-5.2 11.5-15.15 18.75 19-20.5 10.95-38.65-4.35-2.2-8.9-2.25" fill="#bdf2f4"/><path d="M96.1 121.8q-6.1 4.4-13.9 7.25 22-14.25 14.4-41.15l-.05-.15v-.05l-.05-.35q-.65-4.95-2-6.05l3.65-.4q4.55.05 8.9 2.25 8.05 18.15-10.95 38.65" fill="#408824"/><path d="M41 119.25h2.15q7.85-9.3 17.1-17.6 7.85-6.25 12.6-11.9 6.4-6.7 12.3-16.1l.05-.05q11.15-15.8 15.15-35.55 3.1-19.75-1.05-30.7l-1.8 2.7-6.15 9.25v.05l-.05.1v-.1l-3.2-.25L99.2.95q1.8-3.4 2.9 5.15 7.05 17.4-1.15 44.05-1.6.15-2.05 1.3Q98 59.1 87.55 74.3l-3.65 5.6q-5 7.5-12.45 13.45l-14.4 12.75q-6.85 6.05-13.45 13.15l-2.85 3.15-1.6-.2q-2.1-4.1-3.6-8.25l3.5 1.5.9-.25.8-.35q1.05-2.3 2.3-2.1l.1.1-.3.3q-2.85 3.55-3.6 2.9l1.35 4.1.4-.9M92.5 19v-.25q4.05-2.3 3.55-.9 2.05 6.15.2 16.2-3.8 16.15-11.95 31.8-4.85 9.45-8.25 13.2 9.5-15.1 17.5-39.25 2.15-7.8 2.3-14.65.05-3.55-.4-6.9L92.5 19m-41.8-4.45.4-2.1Q37.45 30.3 35.15 49.2l-3.1-2.15q4.15-23.5 21.05-40.2 2.55-1.8 1.7 1l-3 18.9q-1.5-1.6-2.95-2.05l-.2-.05-.35-.55-1.1-1.7-.05-.05v.05Q39.9 34.6 36.5 50.15l-.55-.4q2.7-14 9-25.6 1.15-2.7 2.2-2.6.95.05 1.85 2.25l1.7-9.25M76 79.1q-4.1 5.5-7.25 8.05-8.15 6.95-16.4 15.9l-9.15 9.75-.1-.1Q52.55 99.85 76 79.1" fill="#ba4206"/><path d="m39.05 115.45-3.5-1.5Q30.65 100.6 31.9 87l2.45 1.2q-.95 9.4 4.7 27.25M88.1 19.1l3.2.25v.1Q85.55 29.5 79.8 37.2 64.05 58.05 48 60.95l-.6-2.5.45.35q9.85-2.2 21.4-13.7l9.05-11.5.5 2.1 4.1-6.35-.4-1.15 5.6-9.1m-39.25 5.6q1.45.45 2.95 2.05l-5 31.2-1.85-1.5-.15-.1q.8-18.4 4.05-31.65" fill="#244b16"/><path d="m39.95 115.2-.9.25Q33.4 97.6 34.35 88.2l.05-.95q2.2 2.5 3.55 1.3 5.5-3.8 9.5-9.6 2-3.25.7-11.4-.65-6-.15-6.6 16.05-2.9 31.8-23.75-11.95 18.3-28.85 26.65.95 5.7.4 11.7 1.9.25 2.85 1.15 2.15 3.95-1 6.8-2.8 2.6-5.35.25-.8 2.65-7.5 7.5-2.35 8.85-.8 22.8l.4 1.15" fill="#a2ff7f"/><path d="m91.3 19.45.15-.1.15-.1.9-.25q-2.65 10-6.85 20.65v.1q-7.4 19.1-18.6 35.9l1.8-1.9-.1.1q-3.95 8.3-11.8 18.1-11.95 13.75-17.4 22.1-1.55-13.95.8-22.8 6.7-4.85 7.5-7.5 2.55 2.35 5.35-.25 3.15-2.85 1-6.8-.95-.9-2.85-1.15.55-6-.4-11.7Q67.85 55.5 79.8 37.2q5.75-7.7 11.5-17.75m-54.8 30.7Q39.9 34.6 47.15 22.4 42.6 34.7 40.3 52.95l-3.8-2.8" fill="#6ed547"/><path d="M43.05 112.75q-1.25-.2-2.3 2.1l-.8.35-.4-1.15q5.45-8.35 17.4-22.1 7.85-9.8 11.8-18.1l.1-.1q17.6-23.45 27-48.6-.15 6.85-2.3 14.65-8 24.15-17.5 39.25l-.05.05q-23.45 20.75-32.9 33.6l-.05.05M48.3 24.1l.35.55.2.05Q45.6 37.95 44.8 56.35l-1.85-1.45q1.95-16.8 5.35-30.8" fill="#408824"/><path d="m92.5 19 2.95-.75q.45 3.35.4 6.9-9.4 25.15-27 48.6l-1.8 1.9q11.2-16.8 18.6-35.9v-.1Q89.85 29 92.5 19m-45.3 3.4 1.1 1.7q-3.4 14-5.35 30.8l-2.65-1.95q2.3-18.25 6.85-30.55h.05" fill="#2c631a"/><path d="M97.5 10.05q1.45 3.3 1.85 10.2.7 16.85-8 37.4Q87.9 68 77.05 81.55v.05q-4.9 7-13.8 14.95-13.55 11.1-22.25 22.7l-.4.9-1.35-4.1q.75.65 3.6-2.9l.3-.3.05-.05 9.15-9.75q8.25-8.95 16.4-15.9Q71.9 84.6 76 79.1l.05-.05q3.4-3.75 8.25-13.2 8.15-15.65 11.95-31.8 1.85-10.05-.2-16.2.5-1.4-3.55.9-.45.2-.9.5l-.15.1-.1-.05 6.15-9.25M35.15 49.2q2.3-18.9 15.95-36.75l-.4 2.1q-1.95 2.75-3.55 7-1.05-.1-2.2 2.6-6.3 11.6-9 25.6l-.8-.55" fill="#fef10f"/><path d="m97.5 10.05 1.8-2.7q4.15 10.95 1.05 30.7-4 19.75-15.15 35.55l-.05.05q-5.9 9.4-12.3 16.1-4.75 5.65-12.6 11.9-9.25 8.3-17.1 17.6H41q8.7-11.6 22.25-22.7 8.9-7.95 13.8-14.95v-.05Q87.9 68 91.35 57.65q8.7-20.55 8-37.4-.4-6.9-1.85-10.2m-46.8 4.5L49 23.8q-.9-2.2-1.85-2.25 1.6-4.25 3.55-7" fill="#ff8f01"/><path d="m35.95 49.75.55.4 3.8 2.8 2.65 1.95 1.85 1.45.15.1 1.85 1.5.6.5.6 2.5q-.5.6.15 6.6 1.3 8.15-.7 11.4-4 5.8-9.5 9.6-1.35 1.2-3.55-1.3l-.05.95L31.9 87l.05-.7Q3.8 55.85.8 36.15q-1.85-5.05.55-6.2l.15-.05q16 7.35 30.55 17.15l3.1 2.15.8.55M45.7 78.7l1.45-2.25.1-5q-1-6.65-.6-10Q27.6 47.3 6.1 35.45q-3-2.2-2.95-1L5.3 40.5q9.1 23 31.65 47.35 5.1-4.05 8.75-9.15" fill="#8e83a8"/><path d="m5.3 40.5-2.15-6.05q-.05-1.2 2.95 1 21.5 11.85 40.55 26-.4 3.35.6 10l-.1 5-1.45 2.25Q23.6 60.25 5.3 40.5" fill="#fff"/><path d="M45.7 78.7q-3.65 5.1-8.75 9.15Q14.4 63.5 5.3 40.5q18.3 19.75 40.4 38.2" fill="#bcb0d7"/></g><g id="r" fill-rule="evenodd"><path d="m32.15 81.65.6-.75q9.1 4.8 15.7 11.7l.8-.6q6.6 5.5 11.8 17.9l-2.25 1.2-1.7-3.55-.5-1q-9.15-17.1-24.45-24.9m8.6 39.15-3.1 1.7q-2.7-14.75-17.75-25.75l1.35-1.6q5 3.6 8.85 7.75 3.65 3.9 6.3 8.25 2.75 4.6 4.35 9.65" fill="#5d1e1a"/><path d="m51.1 115.25-10.35 5.55q-1.6-5.05-4.35-9.65-1.9-8.65 3.55-10.75 8.45-3.15 11.15 14.85" fill="#f0756f"/><path d="m54.1 113.6-3 1.65q-2.7-18-11.15-14.85-5.45 2.1-3.55 10.75-2.65-4.35-6.3-8.25-.35-11.85 11.3-9.6l2.35 1.5q7.85 6.05 10.35 18.8" fill="#d55f59"/><path d="m58.05 111.5-3.95 2.1q-2.5-12.75-10.35-18.8l-2.35-1.5q-11.65-2.25-11.3 9.6-3.85-4.15-8.85-7.75L29 85.6q19.8 5.65 29.05 25.9" fill="#b1453f"/><path d="m29 85.6 1.95-2.45q13.4 4.9 23.05 20.15l2.6 3.25.5 1 1.7 3.55-.75.4Q48.8 91.25 29 85.6" fill="#7d2922"/><path d="m30.95 83.15 1.2-1.5q15.3 7.8 24.45 24.9L54 103.3q-9.65-15.25-23.05-20.15" fill="#bdf2f4"/><path d="M49.85 142.7q.2-2.9-1.1-5.1-.95.85-1.45 2l-1.6-1.2-2-5.3-.7-1.75-3.35-.15-4-.15q1.35-3.75 5.65-6.9l4.85-1.7q-2.4 3.8-4.9 6l-.45.35q.55.9-.05 1.8l1.2-.35q1.55-.35 2 .3l.95 2.2q.95 2.45 1.55 4.85.7-1.3 2.1-1.4.85-1.2 1.55.25 1.5 1.95 2.4 5.05 5.15-3.55 6.55-.7.5.95.5 2.7 1.2-1.8 1.35-5.25l.7 2.1.1.6q.2 2.25-1 4.25l1.2.9q2.7-3.75 4.45-5 1.3-1 2.05-.55l-2.15-7.15 2.05 3.05q-.4-5.65 1.8-5.65l.55.05q-1.8-5.05-9.65-13.7l2.45-.85q7.05 6.75 10.6 14.6-1.45 1.05-2.85.9l-.95-.2q-.3.35-.65 1.5l-.8 4.1.65.95-.05.15-1.05 4.2h-.05l-1.2-.85-1 1.3q-2.15 2.6-3.85 3.65-1.3.8-2.4.7l-.75-2.9-.8-2.05-1.05-1.9q-1.85 1-3.7 1.2l-.95.55q-1.65.8-2.75.5" fill="#5d1e1a"/><path d="m58 118.25 2.75-1q2.4 4.5 9.35 13.55-2.2 0-1.8 5.65l-2.05-3.05 2.15 7.15q-.75-.45-2.05.55-1.4-6.4-4.65-8.75.55 4.8-.1 8l-.7-2.1q-.15 3.45-1.35 5.25 0-1.75-.5-2.7 4.2-11.7-1.05-22.55m-16.05 12-1.2.35q.6-.9.05-1.8l.45-.35.7 1.8" fill="#b1453f"/><path d="m53.7 119.75 4.3-1.5q5.25 10.85 1.05 22.55-1.4-2.85-6.55.7-.9-3.1-2.4-5.05-.7-1.45-1.55-.25-1.4.1-2.1 1.4-.6-2.4-1.55-4.85 9.65 1.65 8.8-13m12.65 21.35q-1.75 1.25-4.45 5l-1.2-.9q1.2-2 1-4.25l-.1-.6q.65-3.2.1-8 3.25 2.35 4.65 8.75" fill="#d55f59"/><path d="m46.15 122.45 7.55-2.7q.85 14.65-8.8 13l-.95-2.2q-.45-.65-2-.3l-.7-1.8q2.5-2.2 4.9-6" fill="#f0756f"/><path d="m60.75 117.25.25-.1q7.85 8.65 9.65 13.7l-.55-.05q-6.95-9.05-9.35-13.55" fill="#bdf2f4"/><path d="m74.05 130.9 1.55 4.05q.45 6.65-3.95 10.45-3.2 6.8-9.5 10.1-1.9 2.4-3.85.3 1.2-1.65.9-6.4-4.55 6-9.15 4.3-6.4 1.5-4.25-.85 3.7-5.85 4.05-10.15 1.1.3 2.75-.5-1.25 7-3.5 9.6l1.85-.15q5.35-1.05 8.15-7.25l.75 2.9q1.1.1 2.4-.7l.15 6.1q1.2-.75 2.4-1.95l.15-.2 2.4-3.35q1.45-3.05.95-4.7h.05l1.05-4.2.05-.15q1.9.8 1.75 2.5l.6-1.85q.75-3.35-.6-7 1.4.15 2.85-.9m-26.75 8.7q-1.3 3.05.3 8.35-5.25.75-10.55-6.65-3.1-5.55-1.4-10.25l4 .15q-5.95 6.95 4.8 13.55l.45.25q-.7-4.65.8-6.6l1.6 1.2" fill="#8e83a8"/><path d="m71.8 138.8-.6 1.85q.15-1.7-1.75-2.5l-.65-.95.8-4.1q2.15 2.5 2.2 5.7m-6.85 11.75-.15.2q-1.2 1.2-2.4 1.95l-.15-6.1q1.7-1.05 3.85-3.65.85 3.25-1.15 7.6m-14 1.1-1.85.15q2.25-2.6 3.5-9.6l.95-.55q1.85-.2 3.7-1.2l1.05 1.9q-2.5 4.95-7.35 9.3m-11.3-20.45 3.35.15.7 1.75q-1.7 3.85.75 11.65-10.75-6.6-4.8-13.55" fill="#fff"/><path d="M71.2 131.8q1.35 3.65.6 7-.05-3.2-2.2-5.7.35-1.15.65-1.5l.95.2m-2.9 10.7q.5 1.65-.95 4.7l-2.4 3.35q2-4.35 1.15-7.6l1-1.3 1.2.85m-9.2 1.9q-2.8 6.2-8.15 7.25 4.85-4.35 7.35-9.3l.8 2.05m-15.4-11.3 2 5.3q-1.5 1.95-.8 6.6l-.45-.25q-2.45-7.8-.75-11.65" fill="#bcb0d7"/><path d="M68.1 110.2q1.75.95 0 4.45L63 120.1q-10.7.55-19.85 6.4l-4.9.3q-3.25-2.05-3.95-4.1.4-3.75 4.15-6.35l.7.1q6.4-6.8 17.1-9.55l-.15-.65 3.45-1.05q4.85.65 8.55 5m-19.15 11.55q6.7-3.35 13.45-3.45 2.55-2.6 2.8-4-.1-1.5.7-2.7-3.05-2.75-9-2.9l-2.4.65q-2.25.6-4.3 1.5-5.95 2.55-10.45 7-1.45.7-2.8 4.85 2.9 2.85 4.85 2.3.4-.65 1.9-.2 2.65-1.8 5.25-3.05" fill="#ba4206"/><path d="m54.5 109.35 2.4-.65q5.95.15 9 2.9-.8 1.2-.7 2.7-.25 1.4-2.8 4-6.75.1-13.45 3.45l.45-.75 4.9-2.2q5.3-8.35.2-9.45" fill="#ff8f01"/><path d="M54.5 109.35q5.1 1.1-.2 9.45l-4.9 2.2q5.75-10.55.8-10.15 2.05-.9 4.3-1.5" fill="#fff"/><path d="m49.4 121-.45.75q-2.6 1.25-5.25 3.05-1.5-.45-1.9.2-1.95.55-4.85-2.3 1.35-4.15 2.8-4.85 4.5-4.45 10.45-7 4.95-.4-.8 10.15" fill="#fef10f"/><path d="m37.3 78.25.05.15q.55 6.4-.7 10-11.05 12.15-26.5 22.95-3.5 3.85-5-1.5Q.7 103.65.3 94.1-.85 81.5 2.1 73.5q1.85-1.7 1.5-3.95l3.05-3.8.25.2.25-.3q4.95-6.1 8.85-9.55l.55-.6q9.7-11 14.8-11.6l-.2.8.05.1.3.75q3.3 8.3 5.15 25.8l.1.8.55 6.1m-6.15-32-.3-1.25-6.3 4.85-.3.2q-14.2 11.9-21.45 27.8-1.9 20.6 4.5 31.7l.1.15 5.35-3.55q11.75-8.3 20.6-18.8Q35.2 67.95 32.1 51l-.95-4.75" fill="#3e3978"/><path d="m7.15 65.65-.25-.2Q23.5 33.2 48.15 3.4q4.95-5.8 3.7-1.75-1.65 31.1-11.55 70.8-1.2 5.05-3 5.65v.15l-.55-6.1-.1-.8 2.2-8.6q5.75-23.7 9.1-50.65l.55-4.85.2-1.95q-20 27.95-32.15 50.2l-.55.6q-3.9 3.45-8.85 9.55" fill="#8e83a8"/><path d="M16.55 55.5Q28.7 33.25 48.7 5.3l-.2 1.95q-7.85 20.45-17 38.3l-.3-.75-.05-.1.2-.8q-5.1.6-14.8 11.6m-8.1 49.3q-.7.55-1.05-1.95l-.05-.3.05-.2 3.9-13.25q-3.55-.3-6.05-1.35L5.2 87q6.2-6.5 12.8-11.1-2.4 6-4.45 12.1l-.75 2.2-.5 1.6-.45 1.35q-1.85 5.75-3.4 11.6v.05" fill="#fff"/><path d="m48.5 7.25-.55 4.85q-6.8 31.6-9.1 50.65l-2.2 8.6q-1.85-17.5-5.15-25.8 9.15-17.85 17-38.3" fill="#bcb0d7"/><path d="M47.95 12.1q-3.35 26.95-9.1 50.65 2.3-19.05 9.1-50.65M32.1 51q3.1 16.95 1.25 36.35-8.85 10.5-20.6 18.8 11.2-9.25 19-19.9L32.1 51" fill="#bdf2f4"/><path d="M24.25 50.05q-4.8 11.7-8.1 22-6.45 4.4-12.1 11.8l-.4.75Q2.55 95.2 6 104.7q1.35 2.35 4.1 1.3l-2.35 1.4-.45 2.15q-6.4-11.1-4.5-31.7 7.25-15.9 21.45-27.8" fill="#8580df"/><path d="m24.25 50.05.3-.2 6.3-4.85.3 1.25L22.4 67.7q-1.7 3.35-.95 5.25 2.35 10.3 2.7 20.3Q18.5 100.7 10.1 106q-2.75 1.05-4.1-1.3-3.45-9.5-2.35-20.1l.4-.75q5.65-7.4 12.1-11.8 3.3-10.3 8.1-22m-4.7 24.5h-1.2q-9.1 5.1-14.05 12.2-.4 11 3.2 18.7l2.4-.15q6.85-3.3 12.2-12 .4-10.25-2.75-17.95l.2-.8" fill="#aaa6ff"/><path d="M10.1 106q8.4-5.3 14.05-12.75-.35-10-2.7-20.3-.75-1.9.95-5.25l8.75-21.45.95 4.75-.35 35.25q-7.8 10.65-19 19.9L7.4 109.7l-.1-.15.45-2.15 2.35-1.4" fill="#605bae"/><path d="M21.1 92.35q-.65-9.45-2.15-17.1l-.95.65Q11.4 80.5 5.2 87l.05.75q.2 8.05 2.05 14.55l.05.25.05.3q.35 2.5 1.05 1.95l.05-.05q4.65-2.4 9.7-7.8l.9-1 1.15-1.3.9-1.15-.05-1.15m-1.55-17.8-.2.8q3.15 7.7 2.75 17.95-5.35 8.7-12.2 12l-2.4.15q-3.6-7.7-3.2-18.7 4.95-7.1 14.05-12.2h1.2" fill="#b92612"/><path d="m21.1 92.35.05 1.15-.9 1.15-7.45-4.45.75-2.2 7.55 4.35m-2 3.6-.9 1-6.35-3.8.45-1.35 6.8 4.15M7.3 102.3q-1.85-6.5-2.05-14.55 2.5 1.05 6.05 1.35l-3.9 13.25-.1-.05" fill="#fef10f"/><path d="M18.2 96.95q-5.05 5.4-9.7 7.8h-.05q1.55-5.85 3.4-11.6l6.35 3.8" fill="#feb70d"/><path d="m20.25 94.65-1.15 1.3-6.8-4.15.5-1.6 7.45 4.45" fill="#fe810b"/><path d="m18 75.9.95-.65q1.5 7.65 2.15 17.1L13.55 88Q15.6 81.9 18 75.9" fill="#ff2408"/></g><linearGradient gradientTransform="matrix(-.0545 .0142 .0072 .0274 92.25 75.45)" gradientUnits="userSpaceOnUse" id="s" spreadMethod="pad" x1="-819.2" x2="819.2"><stop offset="0" stop-color="#4c2423"/><stop offset="1" stop-color="#aa3e12"/></linearGradient><linearGradient gradientTransform="matrix(-.0211 .0055 .0029 .011 72.75 80.15)" gradientUnits="userSpaceOnUse" id="t" spreadMethod="pad" x1="-819.2" x2="819.2"><stop offset="0" stop-color="#fd2606"/><stop offset="1" stop-color="#febd0d"/></linearGradient><path d="M27.75 0q0 2-8.15 3.4Q11.5 4.9 0 4.9q-11.5 0-19.65-1.5-8.1-1.4-8.1-3.4 0-2.05 8.1-3.5Q-11.5-4.9 0-4.9q11.5 0 19.6 1.4 8.15 1.45 8.15 3.5" fill-opacity=".349" fill-rule="evenodd" transform="translate(27.75 4.9)" id="j"/></defs></svg>