<svg xmlns:ffdec="https://www.free-decompiler.com/flash" xmlns:xlink="http://www.w3.org/1999/xlink" ffdec:objectType="frame" height="90" width="90" xmlns="http://www.w3.org/2000/svg"><use ffdec:characterId="62" height="194.1" transform="matrix(.4502 0 0 .4503 -5.335 .36)" width="226.35" xlink:href="#a"/><defs><radialGradient cx="0" cy="0" gradientTransform="translate(99.95 35.35) scale(.1063)" gradientUnits="userSpaceOnUse" id="J" r="819.2" spreadMethod="pad"><stop offset="0" stop-color="#ff89bb" stop-opacity=".561"/><stop offset="1" stop-color="#fff" stop-opacity="0"/></radialGradient><radialGradient cx="0" cy="0" gradientTransform="translate(16.45 54.25) scale(.0103)" gradientUnits="userSpaceOnUse" id="M" r="819.2" spreadMethod="pad"><stop offset="0" stop-color="#ff89bb" stop-opacity=".561"/><stop offset="1" stop-color="#fff" stop-opacity="0"/></radialGradient><radialGradient cx="0" cy="0" gradientTransform="translate(11 101.15) scale(.0137)" gradientUnits="userSpaceOnUse" id="N" r="819.2" spreadMethod="pad"><stop offset="0" stop-color="#ff89bb" stop-opacity=".561"/><stop offset="1" stop-color="#fff" stop-opacity="0"/></radialGradient><radialGradient cx="0" cy="0" gradientTransform="matrix(.024 0 0 .024 56.25 157.9)" gradientUnits="userSpaceOnUse" id="O" r="819.2" spreadMethod="pad"><stop offset="0" stop-color="#ff89bb" stop-opacity=".561"/><stop offset="1" stop-color="#fff" stop-opacity="0"/></radialGradient><radialGradient cx="0" cy="0" gradientTransform="translate(105 162.3) scale(.0248)" gradientUnits="userSpaceOnUse" id="P" r="819.2" spreadMethod="pad"><stop offset="0" stop-color="#ff89bb" stop-opacity=".561"/><stop offset="1" stop-color="#fff" stop-opacity="0"/></radialGradient><radialGradient cx="0" cy="0" gradientTransform="translate(191.45 162.55) scale(.0214)" gradientUnits="userSpaceOnUse" id="Q" r="819.2" spreadMethod="pad"><stop offset="0" stop-color="#ff89bb" stop-opacity=".561"/><stop offset="1" stop-color="#fff" stop-opacity="0"/></radialGradient><radialGradient cx="0" cy="0" gradientTransform="translate(259.6 72.7) scale(.0215)" gradientUnits="userSpaceOnUse" id="R" r="819.2" spreadMethod="pad"><stop offset="0" stop-color="#ff89bb" stop-opacity=".561"/><stop offset="1" stop-color="#fff" stop-opacity="0"/></radialGradient><radialGradient cx="0" cy="0" gradientTransform="translate(247 93.6) scale(.0247)" gradientUnits="userSpaceOnUse" id="S" r="819.2" spreadMethod="pad"><stop offset="0" stop-color="#ff89bb" stop-opacity=".561"/><stop offset="1" stop-color="#fff" stop-opacity="0"/></radialGradient><radialGradient cx="0" cy="0" gradientTransform="translate(239.7 16.15) scale(.0201)" gradientUnits="userSpaceOnUse" id="T" r="819.2" spreadMethod="pad"><stop offset="0" stop-color="#ff89bb" stop-opacity=".561"/><stop offset="1" stop-color="#fff" stop-opacity="0"/></radialGradient><radialGradient cx="0" cy="0" gradientTransform="translate(32.9 49.65) scale(.0153)" gradientUnits="userSpaceOnUse" id="W" r="819.2" spreadMethod="pad"><stop offset=".188" stop-color="#1d7f72"/><stop offset="1" stop-color="#045d6d"/></radialGradient><radialGradient cx="0" cy="0" gradientTransform="translate(61.35 44.7) scale(.0125)" gradientUnits="userSpaceOnUse" id="X" r="819.2" spreadMethod="pad"><stop offset="0" stop-color="#1d7f72"/><stop offset="1" stop-color="#045d6d"/></radialGradient><radialGradient cx="0" cy="0" gradientTransform="translate(238.8 58.9) scale(.0151)" gradientUnits="userSpaceOnUse" id="af" r="819.2" spreadMethod="pad"><stop offset="0" stop-color="#ff89bb" stop-opacity=".561"/><stop offset="1" stop-color="#fff" stop-opacity="0"/></radialGradient><radialGradient cx="0" cy="0" gradientTransform="translate(230.1 43.65) scale(.0151)" gradientUnits="userSpaceOnUse" id="ag" r="819.2" spreadMethod="pad"><stop offset="0" stop-color="#ff89bb" stop-opacity=".561"/><stop offset="1" stop-color="#fff" stop-opacity="0"/></radialGradient><radialGradient cx="0" cy="0" gradientTransform="translate(210.75 11.8) scale(.0148)" gradientUnits="userSpaceOnUse" id="ah" r="819.2" spreadMethod="pad"><stop offset="0" stop-color="#ff89bb" stop-opacity=".561"/><stop offset="1" stop-color="#fff" stop-opacity="0"/></radialGradient><radialGradient cx="0" cy="0" gradientTransform="translate(89.5 131.8) scale(.0141)" gradientUnits="userSpaceOnUse" id="ai" r="819.2" spreadMethod="pad"><stop offset="0" stop-color="#ff89bb"/><stop offset=".992" stop-color="#ffbdd8" stop-opacity="0"/></radialGradient><radialGradient cx="0" cy="0" gradientTransform="translate(103.95 145.3) scale(.0142)" gradientUnits="userSpaceOnUse" id="aj" r="819.2" spreadMethod="pad"><stop offset="0" stop-color="#ff89bb"/><stop offset=".992" stop-color="#ffbdd8" stop-opacity="0"/></radialGradient><radialGradient cx="0" cy="0" gradientTransform="translate(42.5 47.6) scale(.0175)" gradientUnits="userSpaceOnUse" id="ak" r="819.2" spreadMethod="pad"><stop offset="0" stop-color="#ff89bb"/><stop offset=".992" stop-color="#ffbdd8" stop-opacity="0"/></radialGradient><radialGradient cx="0" cy="0" gradientTransform="translate(14.3 31.6) scale(.0176)" gradientUnits="userSpaceOnUse" id="al" r="819.2" spreadMethod="pad"><stop offset="0" stop-color="#ff89bb"/><stop offset=".992" stop-color="#ffbdd8" stop-opacity="0"/></radialGradient><radialGradient cx="0" cy="0" gradientTransform="matrix(.011 0 0 .011 15.75 82.1)" gradientUnits="userSpaceOnUse" id="am" r="819.2" spreadMethod="pad"><stop offset="0" stop-color="#ff89bb"/><stop offset=".992" stop-color="#ffbdd8" stop-opacity="0"/></radialGradient><radialGradient cx="0" cy="0" gradientTransform="translate(67.55 147.5) scale(.0164)" gradientUnits="userSpaceOnUse" id="an" r="819.2" spreadMethod="pad"><stop offset="0" stop-color="#ff89bb"/><stop offset=".992" stop-color="#ffbdd8" stop-opacity="0"/></radialGradient><radialGradient cx="0" cy="0" gradientTransform="translate(250.85 110.55) scale(.0132)" gradientUnits="userSpaceOnUse" id="ao" r="819.2" spreadMethod="pad"><stop offset="0" stop-color="#ff89bb"/><stop offset=".992" stop-color="#ffbdd8" stop-opacity="0"/></radialGradient><radialGradient cx="0" cy="0" gradientTransform="matrix(.014 0 0 .014 213.3 122.9)" gradientUnits="userSpaceOnUse" id="ap" r="819.2" spreadMethod="pad"><stop offset="0" stop-color="#ff89bb"/><stop offset=".992" stop-color="#ffbdd8" stop-opacity="0"/></radialGradient><radialGradient cx="0" cy="0" gradientTransform="translate(197.55 137.1) scale(.0148)" gradientUnits="userSpaceOnUse" id="aq" r="819.2" spreadMethod="pad"><stop offset="0" stop-color="#ff89bb"/><stop offset=".992" stop-color="#ffbdd8" stop-opacity="0"/></radialGradient><use ffdec:characterId="2" height="70.9" transform="translate(2.8 .2)" width="186.2" xlink:href="#b" id="u"/><use ffdec:characterId="10" height="54.95" width="64.2" xlink:href="#c" id="v"/><use ffdec:characterId="9" height="54.95" width="64.2" xlink:href="#d" id="c"/><use ffdec:characterId="12" height="182.5" transform="translate(9.9 40.5)" width="276.4" xlink:href="#e" id="w"/><use ffdec:characterId="20" height="125.75" transform="translate(.4 5.95)" width="79.4" xlink:href="#f" id="x"/><use ffdec:characterId="19" height="125.75" width="79.4" xlink:href="#g" id="f"/><use ffdec:characterId="22" height="40.55" width="40.2" xlink:href="#h" id="y"/><use ffdec:characterId="24" height="79.1" width="78.45" xlink:href="#i" id="z"/><use ffdec:characterId="30" height="44.45" width="27.2" xlink:href="#j" id="A"/><use ffdec:characterId="32" height="41.25" width="24.1" xlink:href="#k" id="B"/><use ffdec:characterId="34" height="86.8" width="127.95" xlink:href="#l" id="C"/><use ffdec:characterId="36" height="45.85" width="55.8" xlink:href="#m" id="D"/><use ffdec:characterId="48" height="82.35" transform="translate(29.7)" width="85.55" xlink:href="#n" id="F"/><use ffdec:characterId="47" height="82.35" width="85.55" xlink:href="#o" id="n"/><use ffdec:characterId="50" height="160.25" transform="translate(0 22.35)" width="261.55" xlink:href="#p" id="G"/><use ffdec:characterId="58" height="147.9" transform="translate(21.4 4.75)" width="104.95" xlink:href="#q" id="H"/><use ffdec:characterId="57" height="147.9" width="104.95" xlink:href="#r" id="q"/><use ffdec:characterId="60" height="58.55" width="65.45" xlink:href="#s" id="I"/><g id="a" transform="translate(11.85 -.8)"><use ffdec:characterId="1" height="8.25" transform="matrix(2.3244 0 0 4.3792 24.043 158.487)" width="56.65" xlink:href="#t"/><use ffdec:characterId="8" height="72.55" transform="matrix(-.7443 0 0 .7443 157.908 138.451)" width="191.15" xlink:href="#u"/><use ffdec:characterId="11" height="89.15" transform="matrix(-.7443 0 0 .7443 76.2 13.25)" width="78" xlink:href="#v"/><use ffdec:characterId="18" height="228.6" transform="matrix(-.7443 0 0 .7443 206.368 11.557)" width="286.3" xlink:href="#w"/><use ffdec:characterId="21" height="131.7" transform="matrix(-.7443 0 0 .7443 81.048 21.122)" width="84.15" xlink:href="#x"/><use ffdec:characterId="23" height="40.55" transform="matrix(-.7422 -.0486 -.0486 .7422 79.55 71.65)" width="40.2" xlink:href="#y"/><use ffdec:characterId="29" height="79.1" transform="matrix(-.7443 0 0 .7443 118.15 29.05)" width="78.45" xlink:href="#z"/><use ffdec:characterId="31" height="44.45" transform="matrix(-.7443 0 0 .7443 81.9 113.7)" width="27.2" xlink:href="#A"/><use ffdec:characterId="33" height="41.25" transform="matrix(-.7443 0 0 .7443 93 126.15)" width="24.1" xlink:href="#B"/><use ffdec:characterId="35" height="86.8" transform="matrix(-.7443 0 0 .7443 132.35 80.65)" width="127.95" xlink:href="#C"/><use ffdec:characterId="37" height="45.85" transform="matrix(-.7443 0 0 .7443 137.8 74.5)" width="55.8" xlink:href="#D"/><use ffdec:characterId="46" height="128.9" transform="matrix(-.7443 0 0 .7443 208.953 82.3)" width="266.6" xlink:href="#E"/><use ffdec:characterId="49" height="123.8" transform="matrix(-.7443 0 0 .7443 213.505 14.2)" width="117.4" xlink:href="#F"/><use ffdec:characterId="56" height="205.8" transform="matrix(-.7443 0 0 .7443 199.2 20.466)" width="264.55" xlink:href="#G"/><use ffdec:characterId="59" height="152.65" transform="matrix(-.7443 0 0 .7443 200.733 28.887)" width="138.1" xlink:href="#H"/><use ffdec:characterId="61" height="58.55" transform="matrix(-.7443 0 0 .7443 128.55 .8)" width="65.45" xlink:href="#I"/></g><g id="b"><path d="m167.4 16.35.05.05q4.75 11.5-2.85 15.6l-.1.65q-12.7 1.65-23.05-6.25-16.6-2.45-34.65-.95 1.65-2.35 12.65-4.1-6.55-2.25 26.55-.4 8.2-2.15 13.7 5-.45-7.1-5.8-9.15l-10.7-.5q-.8-1.25 9.4-2.2-17.95-3.25-34.8-3.55 25.7-4.75 46.95 5.05l2.65.75m-39.85 17.6.2.3q-6.2 6-10.1 6.1-14.1 3.05-30.95-1.2-5-2.35-.85-4.05 14.3-2.6 9.55-6.5-12-1.25-24.15 3.85-6.15 4.85 5.05 8.4 30.7 8.35 62-1.7-6.85 5.65-25.65 8.75 23.25 2.55 44.15-10.2-.95 15-20.95 16.45-32.4 7.75-63.85.65-19.05-8-15.1-7.55l.7.15q10.35 5.5 12.6 2.45 26.95 8.3 46.25 2.85-14.2.8-36.7-2.75-37.2-9.8-23.1-24.65.6.9 1.9 1.1 5.6-4.8 10.6-4.9 9.35-1.15 3.1 1.1l-.8.3Q56.4 31.4 63.8 36.3q.2-2.05 3.35-5.35 17.7-9.65 43.7-2.7Q121 32.55 106 39.4q15.15-1.8 21.55-5.45M14.65 16.2q.8-1.05 1.9-1.75.7-.15.9.25l-2.8 1.5" fill="#fff" fill-rule="evenodd" transform="translate(.1)"/><path d="m167.4 16.35.05.05q4.75 11.5-2.85 15.6l-.1.65q-12.7 1.65-23.05-6.25-16.6-2.45-34.65-.95 1.65-2.35 12.65-4.1-6.55-2.25 26.55-.4 8.2-2.15 13.7 5-.45-7.1-5.8-9.15l-10.7-.5q-.8-1.25 9.4-2.2-17.95-3.25-34.8-3.55 25.7-4.75 46.95 5.05l2.65.75m-39.85 17.6q-6.4 3.65-21.55 5.45 15-6.85 4.85-11.15-26-6.95-43.7 2.7-3.15 3.3-3.35 5.35-7.4-4.9 7.65-13.4l.8-.3q6.25-2.25-3.1-1.1-5 .1-10.6 4.9-1.3-.2-1.9-1.1-14.1 14.85 23.1 24.65 22.5 3.55 36.7 2.75-19.3 5.45-46.25-2.85-2.25 3.05-12.6-2.45l-.7-.15Q52.95 46.8 72 54.8q31.45 7.1 63.85-.65 20-1.45 20.95-16.45-20.9 12.75-44.15 10.2 18.8-3.1 25.65-8.75-31.3 10.05-62 1.7-11.2-3.55-5.05-8.4 12.15-5.1 24.15-3.85 4.75 3.9-9.55 6.5-4.15 1.7.85 4.05 16.85 4.25 30.95 1.2 3.9-.1 10.1-6.1M17.45 14.7q.45 1-3.1 5.95.15 2.5-.35 5.65l-.2 1.1q1.75-.65 3.95 8.1 6.3 16.3 19.55 18.75-22.5-13.4-15.25-30.45.7-.05 3.45-3.15Q27.45 25 39.7 14.5q4.85-3.1 27.85-1.9l-12.8.9q3.5.9 2.25 1.85-14.65 1.45-25.75 6.4Q22.5 35 41.2 49q36.1 16.25 81.4 13.25l19.1-3.8q.35 1.05-2.3 1.75 8.95-.6 21.85-6.25-1.15 2.25-10.05 5.45-27.5 10.85-55.8 11h-2.35l-16.6-1.05Q25.9 60.85 13.5 40.5q-3.65-5.9-1.85-14.2l.1-.5q.4-6.5 2.9-9.6.8-1.05 1.9-1.75.7-.15.9.25z" fill="none" stroke="#e46b8a" stroke-linecap="round" stroke-linejoin="round" transform="translate(.1)"/><path d="M95.4 70.4q28.3-.15 55.8-11 8.9-3.2 10.05-5.45-12.9 5.65-21.85 6.25 2.65-.7 2.3-1.75l-19.1 3.8q-45.3 3-81.4-13.25-18.7-14-9.95-27.25 11.1-4.95 25.75-6.4 1.25-.95-2.25-1.85l12.8-.9q-23-1.2-27.85 1.9Q27.45 25 25.5 20.65q-2.75 3.1-3.45 3.15Q14.8 40.85 37.3 54.25 24.05 51.8 17.75 35.5q-2.2-8.75-3.95-8.1l.2-1.1q.5-3.15.35-5.65 3.55-4.95 3.1-5.95 4.35-2.3 9.8-4.35Q54.5 0 93.05 0t65.8 10.35q27.25 10.35 27.25 25t-27.25 25q-26.4 10.05-63.4 10.35l-.05-.3M69.15 21.5q-5 .1-10.6 4.9-1.3-.2-1.9-1.1-14.1 14.85 23.1 24.65 22.5 3.55 36.7 2.75-19.3 5.45-46.25-2.85-2.25 3.05-12.6-2.45l-.7-.15Q52.95 46.8 72 54.8q31.45 7.1 63.85-.65 20-1.45 20.95-16.45-20.9 12.75-44.15 10.2 18.8-3.1 25.65-8.75-31.3 10.05-62 1.7-11.2-3.55-5.05-8.4 12.15-5.1 24.15-3.85 4.75 3.9-9.55 6.5-4.15 1.7.85 4.05 16.85 4.25 30.95 1.2 3.9-.1 10.1-6.1l-.2-.3q-6.4 3.65-21.55 5.45 15-6.85 4.85-11.15-26-6.95-43.7 2.7-3.15 3.3-3.35 5.35-7.4-4.9 7.65-13.4l.8-.3q6.25-2.25-3.1-1.1m98.3-5.1-.05-.05-2.65-.75q-21.25-9.8-46.95-5.05 16.85.3 34.8 3.55-10.2.95-9.4 2.2l10.7.5q5.35 2.05 5.8 9.15-5.5-7.15-13.7-5-33.1-1.85-26.55.4-11 1.75-12.65 4.1 18.05-1.5 34.65.95 10.35 7.9 23.05 6.25l.1-.65q7.6-4.1 2.85-15.6" fill="url(#J)" fill-rule="evenodd" transform="translate(.1)"/><path d="M17.45 14.7q.45 1-3.1 5.95.15 2.5-.35 5.65l-.2 1.1q1.75-.65 3.95 8.1 6.3 16.3 19.55 18.75-22.5-13.4-15.25-30.45.7-.05 3.45-3.15Q27.45 25 39.7 14.5q4.85-3.1 27.85-1.9l-12.8.9q3.5.9 2.25 1.85-14.65 1.45-25.75 6.4Q22.5 35 41.2 49q36.1 16.25 81.4 13.25l19.1-3.8q.35 1.05-2.3 1.75 8.95-.6 21.85-6.25-1.15 2.25-10.05 5.45-27.5 10.85-55.8 11h-2.35l-16.6-1.05Q25.9 60.85 13.5 40.5q-3.65-5.9-1.85-14.2l.1-.5q.4-6.5 2.9-9.6l2.8-1.5" fill="#fff" fill-rule="evenodd" transform="translate(.1)"/><path d="M14.65 16.2q-2.5 3.1-2.9 9.6l-.1.5q-1.8 8.3 1.85 14.2 12.4 20.35 62.95 28.85l16.6 1.05v.3q-38.55 0-65.8-10.35T0 35.35Q0 24.6 14.65 16.2" fill="url(#K)" fill-rule="evenodd" transform="translate(.1)"/><path d="m17.45 14.7-2.8 1.5Q0 24.6 0 35.35q0 14.65 27.25 25t65.8 10.35h2.4" fill="none" stroke="url(#L)" stroke-linecap="round" stroke-linejoin="round" stroke-width=".25" transform="translate(.1)"/></g><g id="d" fill-rule="evenodd"><path d="m44.3 3.5 1.55-1.4Q39.1-.65 11.35 9.15q-8.4 8.35-9.35 17-.2 1.85-.05 3.7l.05.75 5.85 11.35 5.25 10.2h.25q19.85 0 20.55-.4 3.65-2 5.15-5.3l-.65-.5-.15-.1Q34.2 43 27.2 42v-.05Q45 43 52.3 34.5l-1.55-.6q-8.7-3.2-22.25-3.55Q56.95 27.55 62.65 17l-.65-.3-.3-.15q-9.55-4.3-27.65-4.05l-7.1 3.3-.05-.1q9.65-5.45 17.4-12.2m-5 6.85q22.5 2.35 24.9 6.25.15 8.55-21.15 12.9 12.2 3.45 11.2 4.75-1.6 5.25-16.5 9.4l4.45 2.4q-1.9 3.75-7.15 6.75l-19.4 2.1-.4.05-.2-.15Q3.25 46.15 0 31.45L.05 31Q1.85 13.45 9.7 8.2 20.95.9 47.05 0q2.35 2.95-7.75 10.35" fill="#aa9fe1"/><path d="M44.3 3.5q-7.75 6.75-17.4 12.2l-.3.2-6.7 1.15 24.95-14.9-.55 1.35m17.4 13.05.3.15.65.3q-5.7 10.55-34.15 13.35l-4.05-.7q26.8-4.85 37.25-13.1M50.75 33.9l1.55.6Q45 43 27.2 41.95l-1.65-1.05q15-2.2 25.2-7m-12.5 11.95.15.1.65.5q-1.5 3.3-5.15 5.3-.7.4-20.55.4l24.9-6.3m-30.4-3.9L2 30.6l-.05-.75Q1.8 28 2 26.15l29.3-4.3L16.6 32.7l10.95 2.15-19.7 7.1" fill="#bac5fd"/><path d="M2 26.15q.95-8.65 9.35-17Q39.1-.65 45.85 2.1L44.3 3.5l.55-1.35-24.95 14.9 6.7-1.15-1.35.7 1.7-.8 7.1-3.3q18.1-.25 27.65 4.05-10.45 8.25-37.25 13.1l4.05.7q13.55.35 22.25 3.55-10.2 4.8-25.2 7l1.65 1.05h-.15l.15.05q7 1 11.05 3.85l-24.9 6.3h-.25l-5.25-10.2 19.7-7.1L16.6 32.7l14.7-10.85L2 26.15" fill="#fffffd"/></g><g id="e"><path d="m16.45 45.95 1.65.15q2.4.45 4.2 2.25 2.45 2.45 2.45 5.9T22.3 60.1q-2.25 2.3-5.4 2.45h-.45q-3.45 0-5.9-2.45-2.4-2.4-2.4-5.85 0-3.45 2.4-5.9 2.45-2.4 5.9-2.4m-.5 6.95.2.85q.2.35.5.35t.5-.35l.2-.85-.2-.85q-.2-.35-.5-.35t-.5.35l-.2.85" fill="url(#M)" fill-rule="evenodd"/><path d="m15.95 52.9.2-.85q.2-.35.5-.35t.5.35l.2.85-.2.85q-.2.35-.5.35t-.5-.35l-.2-.85" fill="#fff" fill-rule="evenodd"/><path d="m15.95 52.9.2-.85q.2-.35.5-.35t.5.35l.2.85-.2.85q-.2.35-.5.35t-.5-.35l-.2-.85z" fill="none" stroke="#e16b8b" stroke-linecap="round" stroke-linejoin="round"/><path d="M14.8 90.7q2.2.8 3.95 2.6Q22 96.55 22 101.15T18.75 109q-2.4 2.45-5.55 3.05l-2.2.2q-4.55 0-7.8-3.25-3.2-3.25-3.2-7.85t3.2-7.85q3.25-3.25 7.8-3.25 2.05 0 3.8.65m-3.05 10.75-.4-.35q-.25 0-.45.35-.15.35-.15.85l.15.85q.2.35.45.35l.4-.35.2-.85-.2-.85" fill="url(#N)" fill-rule="evenodd"/><path d="m11.75 101.45.2.85-.2.85-.4.35q-.25 0-.45-.35l-.15-.85q0-.5.15-.85.2-.35.45-.35l.4.35" fill="#fff" fill-rule="evenodd"/><path d="m11.75 101.45.2.85-.2.85-.4.35q-.25 0-.45-.35l-.15-.85q0-.5.15-.85.2-.35.45-.35l.4.35z" fill="none" stroke="#e16b8b" stroke-linecap="round" stroke-linejoin="round"/><path d="M56.25 139.3q7.7 0 13.15 5.45 3.85 3.85 5 8.8.45 2.05.45 4.35 0 7.7-5.45 13.15t-13.15 5.45q-7.7 0-13.15-5.45t-5.45-13.15q0-4.85 2.15-8.8 1.3-2.35 3.3-4.35 5.45-5.45 13.15-5.45m4.65 26.8.25-.45.4-1.05.05-1.05-.45-.45-.75.45q-.45.45-.45 1.05 0 .6.45 1.05l.5.45M56.35 153q-.75 0-1.3.5-.5.55-.5 1.3t.5 1.25q.55.55 1.3.55t1.25-.55q.55-.5.55-1.25t-.55-1.3q-.5-.5-1.25-.5" fill="url(#O)" fill-rule="evenodd"/><path d="M56.35 153q.75 0 1.25.5.55.55.55 1.3t-.55 1.25q-.5.55-1.25.55t-1.3-.55q-.5-.5-.5-1.25t.5-1.3q.55-.5 1.3-.5" fill="#fff" fill-rule="evenodd"/><path d="m60.9 166.1-.5-.45q-.45-.45-.45-1.05 0-.6.45-1.05l.75-.45.45.45-.05 1.05-.4 1.05-.25.45M56.35 153q.75 0 1.25.5.55.55.55 1.3t-.55 1.25q-.5.55-1.25.55t-1.3-.55q-.5-.5-.5-1.25t.5-1.3q.55-.5 1.3-.5z" fill="none" stroke="#e16b8b" stroke-linecap="round" stroke-linejoin="round"/><path d="M105 142.1q8.35 0 14.25 5.9 5.15 5.15 5.85 12.05l.1 2.25q0 8.35-5.95 14.25-5.9 5.95-14.25 5.95-3.05 0-5.75-.75-4.75-1.4-8.55-5.2-5.9-5.9-5.9-14.25 0-3.9 1.3-7.25 1.45-3.85 4.6-7.05 3.8-3.75 8.55-5.1 2.7-.8 5.75-.8m-1.85 15.15q-.25-.85-.95-1.3-1.1-.7-2.2-.75l-.75.1q-.55.15-.95.6-.25.25-.35.65-.25.65-.15 1.6.1 1.5 1.25 2.5l.2.2q.95.8 1.65.85.7.05 1.5-1 .85-1.05.85-2.55l-.1-.9m4.2 15.6.25-.6-.25-.6q-.25-.25-.6-.25t-.6.25q-.25.25-.25.6l.25.6.6.25.6-.25" fill="url(#P)" fill-rule="evenodd"/><path d="m103.15 157.25.1.9q0 1.5-.85 2.55-.8 1.05-1.5 1-.7-.05-1.65-.85l-.2-.2q-1.15-1-1.25-2.5-.1-.95.15-1.6.1-.4.35-.65.4-.45.95-.6l.75-.1q1.1.05 2.2.75.7.45.95 1.3" fill="#fff" fill-rule="evenodd"/><path d="m103.15 157.25.1.9q0 1.5-.85 2.55-.8 1.05-1.5 1-.7-.05-1.65-.85l-.2-.2q-1.15-1-1.25-2.5-.1-.95.15-1.6.1-.4.35-.65.4-.45.95-.6l.75-.1q1.1.05 2.2.75.7.45.95 1.3m4.2 15.6-.6.25-.6-.25-.25-.6q0-.35.25-.6t.6-.25q.35 0 .6.25l.25.6-.25.6z" fill="none" stroke="#e16b8b" stroke-linecap="round" stroke-linejoin="round"/><path d="M192.4 160q-.7 0-1.25.5-.5.55-.5 1.25t.5 1.2q.55.55 1.25.55t1.2-.55q.55-.5.55-1.2t-.55-1.25q-.5-.5-1.2-.5m-12.95-9.45q5-4.95 12-4.95t11.95 4.95q5 5 5 12 0 4.35-1.9 7.9-1.2 2.15-3.1 4.05-4.95 5-11.95 5-7 0-12-5-3.55-3.55-4.55-8.1-.4-1.85-.4-3.85 0-7 4.95-12" fill="url(#Q)" fill-rule="evenodd"/><path d="M192.4 160q.7 0 1.2.5.55.55.55 1.25t-.55 1.2q-.5.55-1.2.55t-1.25-.55q-.5-.5-.5-1.2t.5-1.25q.55-.5 1.25-.5" fill="#fff" fill-rule="evenodd"/><path d="M192.4 160q.7 0 1.2.5.55.55.55 1.25t-.55 1.2q-.5.55-1.2.55t-1.25-.55q-.5-.5-.5-1.2t.5-1.25q.55-.5 1.25-.5z" fill="none" stroke="#e16b8b" stroke-linecap="round" stroke-linejoin="round"/><path d="m242.85 74.15-.05-1.45q0-4.5 2.05-8.1 1.1-2.05 2.85-3.8 4.95-4.9 11.9-4.9t11.85 4.9q4.95 4.95 4.95 11.9t-4.95 11.85q-2.45 2.5-5.4 3.75-3 1.2-6.45 1.2-5.6 0-9.9-3.2-1.05-.8-2-1.75-4.4-4.4-4.85-10.4m17.2-1.75q-.75.35-.95.9l-.3 1.15.15 1.3 1.05.05 1.35-1q.5-.3.5-1.6-.05-1.25-.55-1.2-.5.05-1.25.4" fill="url(#R)" fill-rule="evenodd"/><path d="M260.05 72.4q.75-.35 1.25-.4.5-.05.55 1.2 0 1.3-.5 1.6l-1.35 1-1.05-.05-.15-1.3.3-1.15q.2-.55.95-.9" fill="#fff" fill-rule="evenodd"/><path d="M266.05 88.3q.6 2.4.6 5.1 0 8.15-5.75 13.9-2.6 2.6-5.65 4-3.75 1.75-8.25 1.75-8.15 0-13.9-5.75t-5.75-13.9q0-8.15 5.75-13.9 4.25-4.25 9.75-5.35.45 6 4.85 10.4.95.95 2 1.75 4.3 3.2 9.9 3.2 3.45 0 6.45-1.2m-18.9 2.2q0 .5.3.9l.8.55.75-.15.4-.75-.35-.9q-.3-.4-.75-.55l-.85.15q-.35.25-.3.75" fill="url(#S)" fill-rule="evenodd"/><path d="M260.05 72.4q.75-.35 1.25-.4.5-.05.55 1.2 0 1.3-.5 1.6l-1.35 1-1.05-.05-.15-1.3.3-1.15q.2-.55.95-.9m-12.9 18.1q-.05-.5.3-.75l.85-.15q.45.15.75.55l.35.9-.4.75-.75.15-.8-.55q-.3-.4-.3-.9z" fill="none" stroke="#e16b8b" stroke-linecap="round" stroke-linejoin="round"/><path d="M250.55 28.1q-4.55 4.2-10.85 4.2l-2.05-.1q-5-.6-8.8-4.1l-.6-.55q-4.7-4.7-4.7-11.4t4.7-11.45q1.3-1.3 2.75-2.2 3.85-2.5 8.7-2.5 6.7 0 11.4 4.7 4.75 4.75 4.75 11.45 0 6.7-4.75 11.4l-.55.55m-10.8-10.2q.5 0 .85-.4.35-.35.35-.9t-.35-.95q-.35-.35-.85-.35t-.85.35q-.35.4-.35.95 0 .55.35.9.35.4.85.4" fill="url(#T)" fill-rule="evenodd"/><path d="M239.75 17.9q-.5 0-.85-.4-.35-.35-.35-.9t.35-.95q.35-.35.85-.35t.85.35q.35.4.35.95 0 .55-.35.9-.35.4-.85.4" fill="#fff" fill-rule="evenodd"/><path d="M239.75 17.9q-.5 0-.85-.4-.35-.35-.35-.9t.35-.95q.35-.35.85-.35t.85.35q.35.4.35.95 0 .55-.35.9-.35.4-.85.4z" fill="none" stroke="#e16b8b" stroke-linecap="round" stroke-linejoin="round"/></g><g id="g"><path d="m27.9 19.15-.6-1.75Q22.6-8.25.6 6.45l.05.1-.45-.1q-.85-.05 2.4-2.7 3.2-2.65 8.95-2.6 10.95-5 15.4 12.2 6.45 17.95 12 23.95L61.4 62.2q19.45 24.55 17.9 63.55H66.75q-49.8.1-62.3-98L1.2 7.55l.5 1.35q2.4 13.95 7.05 18l.2.85q6.7 92.6 56.4 96.6l.8.05h11.8q2.4-43.8-31.2-75.2-6.3-7.65-10.7-14.35l-.55-.9-1.9-3q-3.8-6.35-5.7-11.8m-3.55 13.3.05-.05q15.35 16.75 29.65 36.55Q68.1 86.9 73.2 106.5q2.9 8 2.05 12.65h-.05q.65-7.2-12.75-35.1-8-14.35-20.15-28.4l-17.95-23.2" fill="#a24059" fill-rule="evenodd"/><path d="M70.85 124.4h-4.7l-.8-.05q-49.7-4-56.4-96.6l-.2-.85q8.75.65 14.75 4.95l.85.6 17.95 23.2q12.15 14.05 20.15 28.4 13.4 27.9 12.75 35.1l-.05.4.05-.3q.05 4.7-4.35 5.15m-8.3-5.45q8.9-15.3 1.15-25.2-9.75-5.95-12.95 4.1-14.1-4.15-10.2 10.05 5.5 9 22 11.05" fill="#995087" fill-rule="evenodd"/><path d="M42.85 109.05q5.5 7.7 15.35 7.6-4.5-.85-6.3-3.5-8.8-9.9-1.55-12.4-5.9-4.75-8.5 2.05-.4 3.85 1 6.25m19.7 9.9q-16.5-2.05-22-11.05-3.9-14.2 10.2-10.05 3.2-10.05 12.95-4.1 7.75 9.9-1.15 25.2m-.85-1.8q7.1-11.45.25-22.3 3.45 11.95-.25 22.3" fill="#6e3d8f" fill-rule="evenodd"/><path d="M42.85 109.05q-1.4-2.4-1-6.25 2.6-6.8 8.5-2.05-7.25 2.5 1.55 12.4 1.8 2.65 6.3 3.5-9.85.1-15.35-7.6" fill="#503a7b" fill-rule="evenodd"/><path d="M61.7 117.15q3.7-10.35.25-22.3 6.85 10.85-.25 22.3" fill="#94697d" fill-rule="evenodd"/><path d="m.65 6.55-.05-.1q22-14.7 26.7 10.95l.6 1.75q-4.1-9.25-9.6-14Q15.15 1.8 1.7 8.9l-.5-1.35-.05-.3-.5-.7" fill="#efffb8" fill-rule="evenodd"/><path d="M36.05 34.85q4.4 6.7 10.7 14.35 33.6 31.4 31.2 75.2h-.8Q73.3 83.35 56.9 64.5T36.05 34.85" fill="#ffddd1" fill-rule="evenodd"/><path d="M1.7 8.9q13.45-7.1 16.6-3.75 5.5 4.75 9.6 14 1.9 5.45 5.7 11.8l1.9 3 .55.9Q40.5 45.65 56.9 64.5q16.4 18.85 20.25 59.9h-6.3q4.4-.45 4.35-5.15l.05-.1q.85-4.65-2.05-12.65-5.1-19.6-19.15-37.55-14.3-19.8-29.65-36.55l-.45-.45-.45-.1q-6-4.3-14.75-4.95-4.65-4.05-7.05-18" fill="url(#U)" fill-rule="evenodd"/><path d="M62.55 118.95q8.9-15.3 1.15-25.2-9.75-5.95-12.95 4.1-14.1-4.15-10.2 10.05 5.5 9 22 11.05z" fill="none" stroke="#a23e58" stroke-linecap="round" stroke-linejoin="round"/></g><g id="h" fill-rule="evenodd"><path d="m23.4 10.5-.05-7.05q2-.4 2.3 2.45.1-.3.5-.1.65-2.7 2.15-4.95 2.3 1.9 1.35 6.35l4.25-4.75q2.2.4.3 7.3l4.65-2.25q1.8 1.7-1.8 5.4-.05 1.9-.45 3.2 3.6 1.9 2.5 4.05l-3.6.45q-9.55-5.3-12.1-10.1" fill="#ffd7b3"/><path d="M23.4 10.5q-1.35-2.5-.8-4.85-.1-1.2.35-2.6 2.05-.7 2.9 1.15.9-3.1 2.4-4.2 2.25.2 2.35 5.1l3.1-3.3q3.2-.5 1.4 6.75L39 6.6q2.95 2.65-1.35 6.55l-.25 2.3q4.45 3 1.65 5.65l-2.5.1-1.05-.6 3.6-.45q1.1-2.15-2.5-4.05.4-1.3.45-3.2 3.6-3.7 1.8-5.4L34.2 9.75q1.9-6.9-.3-7.3L29.65 7.2Q30.6 2.75 28.3.85 26.8 3.1 26.15 5.8q-.4-.2-.5.1-.3-2.85-2.3-2.45l.05 7.05" fill="#ca664c"/><path d="M0 20.3v-.1l2.55-1.85q2.9-2.15 5.95-4.1l7.9-5.6 1.3-.95 2.95-2.1.15-.05V5.5q13.4 1.9 15.55 14.55l.3 2.15.2 4.45-.05.85q-.35 6.5-3.45 11.9-.95 1.95-6.5.55l-9.4-2.55-4.35-1.15-.15-.05-2.05-.85-1.5-.8 1.05.3L16 36.3l11 2.9 1.75.15h.1l.9-1.4q2.3-4.25 2.45-10.45v-.85q-.05-2.8-.5-5.95.85 3.1 1.05 5.95l.05.85q.15 5.75-2.55 10.5l-.85 1.3 2.8.3q3.45-3.5 3.75-12.1v-.85l-.15-5.15-.1-1.15q-2.65-12.2-15.1-14.2l-1.2.95.25-.25L18.4 8l-.45.25-.1.25-1.7 1.35-.05.1-.25.2-.45-.6.3.7-2.05 1.45h-.15l-.3.3-.35.2q-2.6 1.65-5.15 3.55l-.05-.05-1.95 1.55Q3.05 19.4.3 20.3l-.25.05L0 20.3" fill="#ca664f"/><path d="m35.8 21.5.15 5.15v.85q-.3 8.6-3.75 12.1l-2.8-.3.85-1.3 1.55.05q2.55-5.3 3.5-10.55l.15-.85.35-5.15m-6.05 16.45-.9 1.4h-.1L27 39.2l-11-2.9 13.75 1.65" fill="#9bf1cc"/><path d="m0 20.3.05.05.25-.05 1.25.35.85-.5.2-.1 23.45 5.1 4-2.6q1.1-1 1.5-1.95.75-1.85-1.05-3.5l-.25-.25Q28.15 11.1 18.4 8l1.25-1.15-.25.25 1.2-.95q12.45 2 15.1 14.2l.1 1.15-.35 5.15-.15.85q-.95 5.25-3.5 10.55L30.25 38q2.7-4.75 2.55-10.5l-.05-.85q-.2-2.85-1.05-5.95.45 3.15.5 5.95v.85q-.15 6.2-2.45 10.45L16 36.3l-5.55-1.45-1.05-.3Q6.4 32.8 4 29.9.95 26.25.35 22.6L0 20.3" fill="#e29569"/><path d="m15.7 10.25-.3-.7.45.6.25-.2.05-.1.6 1.45.05.1q1.2 1.9 1.1 3.75L5.25 18.8v-.05l.65-.3q1.5-.65 3.25-1.2l.95-.35 3.8-1.15 3.25-1-.85-2.95-.6-1.55m2.25-2L18.4 8q9.75 3.1 11.85 8.85l.1.3Q27.25 11.7 18.1 8.3l-.15-.05" fill="#cb6b53"/><path d="M.3 20.3q2.75-.9 5.4-3.05l1.95-1.55.05.05 1.45 1.5q-1.75.55-3.25 1.2l-.65.3-.4.15-.05.05q-1.15.5-2.2 1.1l-.2.1-.85.5L.3 20.3m13.2-8.6h.15l2.05-1.45.6 1.55.85 2.95-3.25 1q2.35-.9-.35-4l-.05-.05" fill="#cfc4d5"/><path d="M7.7 15.75q2.55-1.9 5.15-3.55l.35-.2.3-.3.05.05q2.7 3.1.35 4l-3.8 1.15-.95.35-1.45-1.5" fill="#fefff9"/><path d="m16.15 9.85 1.7-1.35.1-.25.15.05q9.15 3.4 12.25 8.85l.15-.05q1.8 1.65 1.05 3.5-.4.95-1.5 1.95l-4 2.6-23.45-5.1q1.05-.6 2.2-1.1l.05-.05.4-.1 12.65-3.65q.1-1.85-1.1-3.75l-.05-.1-.6-1.45" fill="#fede6f"/></g><g id="i"><path d="M3.75 9.55Q18.4 1.6 39.3 2.35h.2l5.75.35-.75 9.05q-.95 3.1-4.25 5Q41.7 35.3 50.75 40.2q8.75-1.2 8.5-14.25l.15 1.25v.05q1.2 13.9-8.85 15.55h-.9Q39.75 39.45 33 27.5l2.35 7q-1.6-2.65-2.65-6.1l-.65-2.45q-2.1 14.85-15.65 18.2l.05 2.45q-3.15 11.05.2 16.5 4.8 6.35 12.2 2.25 2.85 8.1-8.45 12.25-3.65-.1-6.55-1.1-9.8-9.8-9.4-20.05.35-10.25-.7-46.9" fill="#e36a89" fill-rule="evenodd"/><path d="M3.75 9.55q-1.5.8-2.95 1.75l1.35 42.4q.35 18.7 11.7 22.8 2.9 1 6.55 1.1 11.3-4.15 8.45-12.25L28.7 65q-4.3 1.7-8.7-3.25-3.3-4.9-3.55-15.15l-.05-2.45q13.55-3.35 15.65-18.2l.65 2.45q1.05 3.45 2.65 6.1 4.8 8.2 14.3 8.3h.9q10.05-1.65 8.85-15.55l.05-.05q3.35 11.7-7.95 16.3-15.55.55-19.1-15l-.05-.2v.2Q30.4 41.8 17.2 44.85q-.6 7.5 1.9 13.1 4.9 10 10.25 5.4 2.4 6.45-1.45 10.7l-.55.55q-9.85 8.55-19.6.8-6.15-8.05-6.4-21.7L0 9.75Q23.45-3.6 50.65 1.3l.25.05.15.2.3.2-11.85.6h-.2Q18.4 1.6 3.75 9.55" fill="#a43d58" fill-rule="evenodd"/><path d="M13.85 76.5Q2.5 72.4 2.15 53.7L.8 11.3q1.45-.95 2.95-1.75 1.05 36.65.7 46.9-.4 10.25 9.4 20.05" fill="#9cf2cf" fill-rule="evenodd"/><path d="m39.5 2.35 11.85-.6Q52.8 2.8 54.65 3l-9.4-.3-5.75-.35" fill="#effeb9" fill-rule="evenodd"/><path d="M16.45 46.6Q16.7 56.85 20 61.75q4.4 4.95 8.7 3.25l.15.35q-7.4 4.1-12.2-2.25-3.35-5.45-.2-16.5" fill="#f9accc" fill-rule="evenodd"/><path d="M69.5 43.45q-.05 5.7.9 8.9 4.75 9.05.7 13.4l-1.25.9Q57.6 75.1 42.15 71.4q-3.6 1.75-10.8.05 1.8-3.95.2-9.2-10.65 2.3-8.95-11.6 1.25-4.45 6.2-8.35 7.8 3.7 22.35 4.4 8.45-4.5 18.35-3.25" fill="#fffae4" fill-rule="evenodd"/><path d="M27.9 74.05q3.85-4.25 1.45-10.7-5.35 4.6-10.25-5.4-2.5-5.6-1.9-13.1Q30.4 41.8 32.35 28.5h.05q3.55 15.55 19.1 15 11.3-4.6 7.95-16.3 3.15 9.95 10.2 12.3l-.15 3.95q-9.9-1.25-18.35 3.25Q36.6 46 28.8 42.3q-4.95 3.9-6.2 8.35-1.7 13.9 8.95 11.6 1.6 5.25-.2 9.2 7.2 1.7 10.8-.05 15.45 3.7 27.7-4.75l.1.1Q61.9 73.4 55.6 75q-1.8.35-2.75.9-12.3.75-24.95-1.85" fill="#fed8b4" fill-rule="evenodd"/><path d="M49.65 42.8q-9.5-.1-14.3-8.3l-2.35-7q6.75 11.95 16.65 15.3m9.8-16.9q5.2 10.85 14.2 13.3-9.85.2-14.2-13.3" fill="#9bf2cf" fill-rule="evenodd"/><path d="M73.65 39.2h.1q.95.6-3.15.65-.55 8.15 1.9 14.95 1.8 3.45 1.35 6.25l-.4 2.15h.15l-.2.25q-2.9 8.25-21.7 13.6.25-.65 1.15-1.15.95-.55 2.75-.9 6.3-1.6 14.35-8.25l1.15-1q4.05-4.35-.7-13.4-.95-3.2-.9-8.9l.15-3.95q-7.05-2.35-10.2-12.3h-.05l-.15-1.25.2-.05q4.35 13.5 14.2 13.3" fill="#cb654f" fill-rule="evenodd"/><path d="M73.85 61.05q6.6-10.25.55-29.5-4.45-14.8-16.3-20.4l2.8 1q8.5 3.85 13.05 15.7 9.2 22.2-.35 35.35h-.15l.4-2.15" fill="#a13d57" fill-rule="evenodd"/><path d="M59.25 25.95Q59.5 39 50.75 40.2q-9.05-4.9-10.5-23.45 3.3-1.9 4.25-5l.75-9.05 9.4.3q4.8 5.15 6.25 9.15l-2.8-1q11.85 5.6 16.3 20.4 6.05 19.25-.55 29.5.45-2.8-1.35-6.25-2.45-6.8-1.9-14.95 4.1-.05 3.15-.65h-.1q-9-2.45-14.2-13.3l-.05-.15v-.05l-.3-.8.15.85v.2" fill="url(#V)" fill-rule="evenodd"/><path d="m44.2 46.7-.05.05q-1.15-.9-2.9-1.5L39.7 42q3.75 1.8 4.5 4.7M26.3 57.05q-6.45-5.15.2-12.05-1.25 3.15-.65 6.15-1.2 1.9.45 5.9" fill="#bbd4db" fill-rule="evenodd"/><path d="m39.6 51.4.05-.1 2.5.95.6.2-.5 3.35q-.5-.3-.75-.35l-.1-.05q-.25-.85-1.5 1.45-6.6 4.15-9.85-2.25 2.8 1.35 5.1 1.4 2.65 0 4.65-1.7-.2-.55-.7-.65H39q-1.2-1.65.6-2.25m-11.4-1.15q-2.75-.2.6-6.15 6.65-3.6 7.3 1.9-3 3.8-5.75 4.35l-2.15-.1m.8-1.85q2.05.1 3.55-1.3 3-4.4-2.05-2.25-4.05 2.7-1.5 3.55" fill="#effebb" fill-rule="evenodd"/><path d="M35.15 56q-2.3-.05-5.1-1.4 3.25 6.4 9.85 2.25 1.25-2.3 1.5-1.45v.3q-1.3 2.65-4.85 3.65-7.05-.1-9.1-6.45.35-1.75.75-2.65l2.15.1.45.95q1.45 4.7 4.35 4.45V56" fill="#01bbae" fill-rule="evenodd"/><path d="m42.25 55.8.5-3.35q.15-3.1-1.5-7.2 1.75.6 2.9 1.5l.05.05h.05q1.95 9.85.75 10.5-1.2.6-5 4.35-3.75 3.75-15.75-3.95-1.2-.5-1.05-2.8 1.15 3.75 7.1 4.85l.55-.05q-2.8-1.25-4.55-2.65-1.65-4-.45-5.9.9 4.3 5.9 8.2 6.9 2.15 10.55-2.05l-3 1.5q1.9-1.35 2.95-3" fill="#fff" fill-rule="evenodd"/><path d="m42.15 52.25-.25-2.85q-1.1-2-2.5.1l.2 1.8v.1q-1.8.6-.6 2.25l.05.05q-.6.9-1.8 1.35-1.15.65-2.1.7-2.9.25-4.35-4.45l-.45-.95Q33.1 49.8 36.1 46q-.65-5.5-7.3-1.9-3.35 5.95-.6 6.15-.4.9-.75 2.65 2.05 6.35 9.1 6.45 3.55-1 4.85-3.65l.1-.25q.25.05.75.35-1.05 1.65-2.95 3l3-1.5q-3.65 4.2-10.55 2.05-5-3.9-5.9-8.2-.6-3 .65-6.15-6.65 6.9-.2 12.05 1.75 1.4 4.55 2.65l-.55.05q-5.95-1.1-7.1-4.85-.15 2.3 1.05 2.8-1.5-.6-2.2-2.7-2.5-10.65 8.8-15.45 12.3-2 13.35 7.15-.75-2.9-4.5-4.7l1.55 3.25q1.65 4.1 1.5 7.2l-.6-.2" fill="url(#W)" fill-rule="evenodd"/><path d="M29 48.4q-2.55-.85 1.5-3.55 5.05-2.15 2.05 2.25-1.5 1.4-3.55 1.3" fill="#fffffd" fill-rule="evenodd"/><path d="M27.3 34.5q2.9 1.3 9.3 1.65" fill="none" stroke="#015d6a" stroke-linecap="round" stroke-linejoin="round" stroke-width=".75"/><path d="m61.4 37 1.75-.15q6.3 5.85 4.25 12.7l-1.2 1.1-.2-.05-.95-.9-1.05-.95-.5-.5q-.9-.7.1-1.45l2.8.15q.05-2.8-1.45-5.7l-.7-1.45Q63 37.55 61.4 37" fill="#bbd4db" fill-rule="evenodd"/><path d="m64.2 39.95-1-.15q-.45-.9-2.15-1.95v-.05q.1-.5.35-.8 1.6.55 2.85 2.8l-.05.15" fill="#a13f56" fill-rule="evenodd"/><path d="M60.25 38.75h.1q2 .4 2.05 1.75v.15q-.25 2.35-2.5 3.55-3.4 1.7-3.95.25-1.25-4.35 4.3-5.7" fill="#eeffb8" fill-rule="evenodd"/><path d="m64 48.75 1.05.95q-1 3.05-2.15 3.35-1.65.4-2.65-.35-1.05-.75-1.4-2.65 3.5 3.3 5.15-1.3" fill="#eeffb9" fill-rule="evenodd"/><path d="M60.1 52.9q-1.7-1.2-3.45-4.35-.1-3.2 1.7-1.9-.1 1.1.55 2.45 3.2 3.05 4.3-.05l.3-.8.5.5q-1.65 4.6-5.15 1.3.35 1.9 1.4 2.65l-.15.2" fill="#00baad" fill-rule="evenodd"/><path d="M67.4 49.55q2.05-6.85-4.25-12.7L61.4 37q-.25.3-.35.8l-.05.05h.05q1.7 1.05 2.15 1.95l1 .15.75 1.3q1.5 2.9 1.45 5.7-2.25-6-2.9-2.2l.1 2.05q-1 .75-.1 1.45l-.3.8q-1.1 3.1-4.3.05-.65-1.35-.55-2.45-1.8-1.3-1.7 1.9 1.75 3.15 3.45 4.35.75.5 1.55.65l1.7.15q1.6-1.5 2.35-3.2l.3.1.2.05-.45 1.55.65.1-2.95 2.35q-1.8.5-2.4-.3-6.5-3.9-7.15-13.05 4.95-7.75 9-6.6 4.15 2.3 5.6 7.4.95 4.25-1 7.5l-.1-.05m-7.05-10.8v-.05l-.1.05q-5.55 1.35-4.3 5.7.55 1.45 3.95-.25 2.25-1.2 2.5-3.55v-.15q-.05-1.35-2.05-1.75" fill="url(#X)" fill-rule="evenodd"/><path d="m54.4 34.25 5.15-4.6" fill="none" stroke="#015d6a" stroke-linecap="round" stroke-linejoin="round" stroke-width=".75"/><path d="M59.8 59.8q-.2.95-.9 1.25-.5 6.2-5.7 7.85l-3.65-.15q-2.85-.8-2.8-5.95 3.4 2.9 6.65-1.6 2.75 1.55 6.4-1.4M56.6 66q1.4-1.65 1.8-4.3-2.6 1.95-4.8.8l-1.05.9-.4.3q-2.35 1.45-4.45.4-.55 3.05 1.8 3.85 2.2.5 3.65.05 1.65-.45 2.8-1.4l.65-.6" fill="#a13f56" fill-rule="evenodd"/><path d="M55.95 66.6q-1.15.95-2.8 1.4-1.45.45-3.65-.05-2.35-.8-1.8-3.85 2.1 1.05 4.45-.4 3.2 1.7 3.8 2.9" fill="#da7e65" fill-rule="evenodd"/><path d="m52.55 63.4 1.05-.9q2.2 1.15 4.8-.8-.4 2.65-1.8 4.3-1.5-1.5-4.05-2.6" fill="#aa0144" fill-rule="evenodd"/><path d="m56.6 66-.65.6q-.6-1.2-3.8-2.9l.4-.3q2.55 1.1 4.05 2.6" fill="#c54657" fill-rule="evenodd"/><path d="M59.8 59.8q-3.65 2.95-6.4 1.4-3.25 4.5-6.65 1.6-.05 5.15 2.8 5.95l3.65.15q5.2-1.65 5.7-7.85.7-.3.9-1.25l.05.05q.2 5.35-3.9 8.9-3.95 2.4-8.05.15-2.95-2.9-1.9-6.4.35-.75 1.5-.35 3.15.95 6.4-1.5 3.05 0 5.9-1.35l.05.5h-.05" fill="#fdd7b2" fill-rule="evenodd"/><path d="m54.25 54.7.35.3q1.05 1.2-.95 2.4l-.75.4q.8-.65.65-1.65.05-1.35.7-1.45" fill="#a13f58" fill-rule="evenodd"/><path d="m52.9 57.8.1.25q-.8.5-1.7-.25-.4-2.55.15-3.2l2.95-.05-.15.15q-.65.1-.7 1.45.15 1-.65 1.65" fill="#fed8b3" fill-rule="evenodd"/></g><g id="j" fill-rule="evenodd"><path d="M26.2 13.85 16.4 27.8q-3.4-.05-5.6 1.3-1.2-2.75-7-6.4L1.65 5.9Q13.3-9 26.2 13.85m-14.25 27.2H12l-.1.1.05-.1" fill="#fed8b3"/><path d="M1.65 5.9 3.8 22.7q5.8 3.65 7 6.4 2.2-1.35 5.6-1.3l9.8-13.95 1 1.85-12.5 17.2-.3 7.9q-.45 2.4-2.4 3.55l-3 .1-4.5-8.1L0 7.85 1.65 5.9M12 41.05l.6-1.1.35-7.15v-.2l2.85-3.95q-3.6.2-5.4 1.4-1.05-3.15-6.5-6.35l1.5 11.95 2.8 5.85q2.15 1.7 3.7-.35l.1-.1" fill="#a23e58"/><path d="M12.95 32.8q-1.1 1.05-3.95 1.35-.9 6.4 2.95 6.9l-.05.1q-1.55 2.05-3.7.35l-2.8-5.85L3.9 23.7q5.45 3.2 6.5 6.35 1.8-1.2 5.4-1.4l-2.85 3.95v.2" fill="#d65e81"/><path d="M12 41.05h-.05q-3.85-.5-2.95-6.9 2.85-.3 3.95-1.35l-.35 7.15-.6 1.1" fill="#f8abcb"/></g><g id="k" fill-rule="evenodd"><path d="M17.3 0q2.8 7.95 3.35 11.25l.15.7-7.85 5.25.45 5q-1.65-.6-3.55-.45 0-.8-9.85-10Q4.4 0 17.3 0" fill="#fed8b3"/><path d="m13.4 22.2-.45-5 7.85-5.25q.75 4.95 1.15 9.95-2.75.6-3.45 4.8-2.15-3.45-5.1-4.5" fill="#fffae4"/><path d="m20.8 11.95-.15-.7Q20.1 7.95 17.3 0l1.25.25q2.6 8.3 3.2 11.55 1.1 5.95 1.15 13.25 1.05.95 1.2 3l-.45 10.85-1.9 2.2-3.5.15q-2.15-.6-4.65-2.7-6.2-2.9-5.15-13.85-.85-.4-2.65-4.6L.45 14.15.2 12.4q8.05 8.6 8.7 9.55l.95-.2q1.9-.15 3.55.45 2.95 1.05 5.1 4.5.7-4.2 3.45-4.8-.4-5-1.15-9.95m1.45 24.15v-.45q.2-6.6-.25-13-3.3 2-2.95 5.3-2.85-3.5-5.55-4.8-1.7-.85-3.3-.85l-1.1.05q.7 1.25 1 2.45-.35 7.3 2.15 10.1 1.4 1.8 3.2 2.95 1.85 1.1 4.15 1.45 2.4.25 2.6-2l.05-1.2" fill="#a23e58"/><path d="M0 11.75q9.85 9.2 9.85 10l-.95.2Q8.25 21 .2 12.4l-.2-.65m15.45 26.1q-1.8-1.15-3.2-2.95-2.5-2.8-2.15-10.1-.3-1.2-1-2.45l1.1-.05q.9 1.65 1.75 10.1.15 1.5 3.5 5.45" fill="#9cf2cf"/><path d="M18.75 29.8q-2.45-2.15-3.95.6-.45 1.7.75 2.7 1.7 1.5 3.85 2.3 1.5-.65 2.2-2.9.4-.95.05-2.45-1.2-2.6-2.9-.25m-5.25-6.65q2.7 1.3 5.55 4.8-.35-3.3 2.95-5.3.45 6.4.25 13v.45q-.25 4.5-7.9-2.25l-.85-10.7" fill="#f9accc"/><path d="m22.25 36.1-.05 1.2q-.2 2.25-2.6 2-2.3-.35-4.15-1.45-3.35-3.95-3.5-5.45-.85-8.45-1.75-10.1 1.6 0 3.3.85l.85 10.7q7.65 6.75 7.9 2.25" fill="#d65e81"/><path d="M15.7 32.35q-.65-.9-.3-2.15 1.5-2 3.65.6 1.25-2.75 2-.25.2 1.2-.1 2-.5 1.45-1.75 2.3-2.3-.8-3.5-2.5" fill="#fede6f"/><path d="M18.75 29.8q1.7-2.35 2.9.25.35 1.5-.05 2.45-.7 2.25-2.2 2.9-2.15-.8-3.85-2.3-1.2-1-.75-2.7 1.5-2.75 3.95-.6m-3.05 2.55q1.2 1.7 3.5 2.5 1.25-.85 1.75-2.3.3-.8.1-2-.75-2.5-2 .25-2.15-2.6-3.65-.6-.35 1.25.3 2.15" fill="#a33c57"/></g><g id="l" fill-rule="evenodd"><path d="m43.6 8.5.05.05q-.7 3.2-2.45 6.35-2.5 4.4-5.6 7.6-3.15 3.2-6.7 6.05l-4.65 3.4-1.4.9L21 34l-1 .6-2.95 1-1.5.25.25-.15 12.15-8.35q2.8-1.9 4.95-4.25 2.85-3.05 5.35-6.45 3.1-4.2 4.1-7.85.9-3.25 1.5-3.15h-.05l.2.05.05-.1v.15l-.25 2-.3.5.25-.05-.35.1.3.05-.7.25.6-.1m38.05 13.85q-3-1.75-5.4-4.65-3.05-3.65-3.65-7.3L72.25 8l-1.15-.35h-.3V7.5l2.55-.3.35 2.4q.6 3.65 3.65 7.3 2.2 2.65 7.7 7.05l-1.9-.8-1.5-.8" fill="#cb6b53"/><path d="m67.4 8 2.15-.4 1.25.05h.3l1.15.35.35 2.4q.6 3.65 3.65 7.3 2.4 2.9 5.4 4.65l-.2-.05 11.6 8.6q8.1 5.2 14.3 10 11.15 8.7 16 16.15l.8 1.3q2.3 3.95 2.75 7.55-6.85.4-13-1.25-1.75-3.1-4.65-6.3l-2.2-2.25q-3.35-3.3-7.9-6.75L88.9 40.9q-9.1-7.7-11.25-10.85-1.75-1.1-3.15.5l-1.5 5.9-1.35 4.45q-1.9 5.75-4.4 11.4l-.6 1.3-2.3 4.75q-6.2 11.9-15.2 23.45-2.7-4.3-3.85-8.75-9.6 5.15-14.9 6.75l-.3-1.1 28.1-30.85-11.85-3.6q-6.45-3.35-4.8-15.65-7.15 2.9-13 7.85-6.8 5.7-11.8 14.15l-1 1.7-.9 1.6q-6.25 1.55-10.3-1.6l-.1-.05 1.75-2.3q9.15-11.7 21.2-19.45l.6-.35.05-.05.45-.25h.05l1-.55q-.55.15-1 .45l-4.3 2.2 4.65-3.4q3.55-2.85 6.7-6.05 3.1-3.2 5.6-7.6 1.75-3.15 2.45-6.35l-.05-.05 8.6.05 2.2.35.3-.15q3.4-1.8 1.25-5.05l1.2.35Q63.65 6 67.4 8" fill="#e29569"/><path d="M67.4 8q-3.75-2-10.25-3.95l-1.2-.35q2.15 3.25-1.25 5.05l-.3.15-2.2-.35-8.6-.05-.6.1.7-.25-.3-.05.35-.1-.25.05 6.3-3.35-2.3 2.2-.3.05h.35l3.4.5-.3-.95q-.15-1 .45-2.45V4.2h.05q-.35 1.5-.1 2.5.25.9 1 1.35 1.55.9 3.45-.4 1.75-3.2-.8-3.85l-.5-.15q-1.05-.25-1.5.4-.9 1.6.65 2.25l.85.25.25.05v.05l-1.05.25-.75-.2-.35-.4-.2-.85q-.65-2.25 2.1-2.4h.7l2.25.65q5.4 1.55 8.45 3.2L67.4 8M24.25 31.95l4.3-2.2q.45-.3 1-.45l-1 .55h-.05l-.45.25-.05.05-.65.25-4.5 2.45 1.4-.9M30.1 78.7l.3 1.1q5.3-1.6 14.9-6.75 1.15 4.45 3.85 8.75l2.2 3.2Q70.8 74 75.4 58.35l.95-4.15q.6-3.65.45-7.55l.5.2.45 3.45q.25 2.1.75 4.05.55 2.1 1.35 4 5.85 13.75 26.05 17 2.75-6.05 1.75-13.05 3 1.45 6.25 2.35 6.15 1.65 13 1.25-.45-3.6-2.75-7.55l-.8-1.3q-4.85-7.45-16-16.15-6.2-4.8-14.3-10l-11.6-8.6.2.05 1.5.8 1.9.8.15.05h-.1l-.1-.05.45.35.65.45 5.35 3.8.8.6.6.4q9.75 5.85 16.8 11.35 10.85 8.5 15.25 16.25l.65 1.2q2.2 4.25 2.4 8.3-4.85 3.15-18.25-1.2.15 7.35-2.2 12-13.85-1.15-21.05-7.65-.4-.35-.05-.75-5.6-4.85-7.75-10.7-.7-1.95-1.05-4.05l-.2-1.45v1.45l-.65 4.05Q74 69.1 60.4 80.55q.95 1.2-8 6.2l-1.75.05Q46.2 82 44.4 75.35 30.85 83.6 28.9 81.6l-3.75-12.7q-11.1 4.6-13.25.25-.95-4.95-.8-11.35-11-.45-11.05-5.5v-.6l1.2-2.05Q5.6 42.7 13.9 36.4l1.9-.7-.25.15 1.5-.25 2.95-1Q8.8 41.65 3.6 49.8l-1.45 2.5-.3.6L3.2 54q2.9 1.65 9.95 1.95-.9 6.95.15 13.15 3.95 1.3 12-1.55 1.55-1.3 4.8 11.15M70.8 7.65l-1.25-.05q-3.4-2-6.2-3.35-3.55-1.75-6.2-2.5L54.2 1.2h-1.3l-4.25 2.55L44.9 6l-.85-.25V5.6l-.05.1-.2-.05h.05q7.9-4.1 8.85-5.65l1.5.2 2.15.5.8.25q5.75 1.7 13.6 6.45l-.35.15.4-.05v.15" fill="#ca664f"/><path d="M69.55 7.6 67.4 8l-1.8-1.1-2.25-2.65q2.8 1.35 6.2 3.35m-25.5-1.85.85.25 3.75-2.25 2.5.4v.05h-.05v.05l-1.3.65-6.3 3.35.3-.5.25-2m8.25.55.35.4.75.2 1.05-.25V6.6L55.7 6q.3-1.75-1.35-1.9h-.15q-1.05.15-.85 2.2-1.55-.65-.65-2.25.45-.65 1.5-.4l.5.15q2.55.65.8 3.85-1.9 1.3-3.45.4-.75-.45-1-1.35-.25-1 .1-2.5l1.15 2.1" fill="#cfc3d9"/><path d="m4.45 52.25.1.05q4.05 3.15 10.3 1.6l.9-1.6 1-1.7q5-8.45 11.8-14.15 5.85-4.95 13-7.85-1.65 12.3 4.8 15.65l11.85 3.6L30.1 78.7q-3.25-12.45-4.8-11.15-8.05 2.85-12 1.55-1.05-6.2-.15-13.15Q6.1 55.65 3.2 54l1.05-1.45.2-.25v-.05m44.7 29.55q9-11.55 15.2-23.45l2.3-4.75.6-1.3q2.5-5.65 4.4-11.4L73 36.45l1.5-5.9q1.4-1.6 3.15-.5Q79.8 33.2 88.9 40.9l10.25 8.45q4.55 3.45 7.9 6.75l2.2 2.25q2.9 3.2 4.65 6.3-3.25-.9-6.25-2.35 1 7-1.75 13.05-20.2-3.25-26.05-17-.8-1.9-1.35-4-.5-1.95-.75-4.05l-.45-3.45-.5-.2q.15 3.9-.45 7.55l-.95 4.15Q70.8 74 51.35 85l-2.2-3.2m30.65-41v.1q.15 7.1 3.35 13.75l2.05 3.7q2.3 3.75 5.65 7.35 8.65 7.95 14.25 8-.2-8.55-3.95-15.35l-1.7-2.7Q93.2 46.6 80.05 40.9l-.25-.1M68.5 58.35q-6.85 12.5-14.7 24.1 13.1-10.3 18.55-24.1l1.45-4.3q1.45-4.85 2-10.05L73 49.75l-1.3 2.55-.8 1.6-2.4 4.45M20.2 50.8l-.9 1.5q-4.45 7.8-2.65 15.15 8.4-2.45 13.45-9.1 2.05-2.7 3.55-6.05l.25-.65q3.1-7.4 3.75-17.9-5.2 3.75-9.1 7.4-5.35 4.9-8.35 9.65" fill="#fede6f"/><path d="m79.8 40.8.25.1q13.15 5.7 19.4 14.75l1.7 2.7q3.75 6.8 3.95 15.35-5.6-.05-14.25-8-3.35-3.6-5.65-7.35l-2.05-3.7Q79.95 48 79.8 40.9v-.1M68.5 58.35l2.4-4.45.8-1.6 1.3-2.55L75.8 44q-.55 5.2-2 10.05l-1.45 4.3q-5.45 13.8-18.55 24.1 7.85-11.6 14.7-24.1M20.2 50.8q3-4.75 8.35-9.65 3.9-3.65 9.1-7.4-.65 10.5-3.75 17.9l-.25.65q-1.5 3.35-3.55 6.05-5.05 6.65-13.45 9.1-1.8-7.35 2.65-15.15l.9-1.5" fill="#fff4a4"/><path d="M63.35 4.25 65.6 6.9q-3.05-1.65-8.45-3.2l-2.25-.65h-.7q-2.75.15-2.1 2.4l.2.85-1.15-2.1v-.05l-2.5-.4L52.9 1.2h1.3l2.95.55q2.65.75 6.2 2.5" fill="#fffef9"/><path d="m54.45 6.6-.25-.05-.85-.25q-.2-2.05.85-2.2h.15Q56 4.25 55.7 6l-1.25.6" fill="#fdfef9"/><path d="M27.4 30.5Q15.35 38.25 6.2 49.95l-1.75 2.3v.05l-.2.25L3.2 54l-1.35-1.1.3-.6 1.45-2.5Q8.8 41.65 20 34.6l1-.6 1.85-1.15 4.5-2.45.05.1" fill="#9bf0cf"/></g><g id="m" fill-rule="evenodd"><path d="m32.25 29.55-.1 1.5q-.3 2.55-1.65 5.05l-1.55 2.35-2.15 2.45q4.05-1 9.1-3.6l3.15-1.75 8.25-5.4-1.35 1.5-2.35 1.9-.2.15q-2.8 1.95-6.5 3.9-.55.15-1 .45-7.55 4.05-14.65 6.65l.05-.05q-8.9 1.55-18 1.1-1.85-4.8-2.65-9.65-2.95-17.5 7-36.1l43.4 14 .1-.05 1.1.35h-.05l2.15.85.3.15.2.1h-.05l.1.05.45.2.3.95h-.15L24.85 6.35q6.65 5.85 7 14.4-1.3-9-8.1-14.65L19.9 5l-1.1-.35-10.2-3Q-.9 18.25 2.15 36.1q.6 3.55 1.7 7.1l5.4.65q8.7.5 15.55-2.25 1.65-1.15 2.95-2.8l1.75-2.7q1.45-2.8 2.25-6.55l.35-1.8.05.5.1 1.3m-8.1-6 .05.7-11.4-1.1-.65-.4h.4l11.6.8" fill="#ca664f"/><path d="M32.25 29.55 35.9 29q3.9-.95 9.15-3.3-1.4-4.8 1.7-7.05 2.7-2 8.75-2.05h.15q1.45 6.65-9.7 15.05l1.35-1.5-8.25 5.4-10.1 2.9 1.55-2.35q1.35-2.5 1.65-5.05l.1-1.5m-7.1-4.6q1 4.7 6.6 4.6-.8 3.75-2.25 6.55l-1.75 2.7L19 41.3q2.35-1.75 3.95-5.2 1.1-2.4 1.9-5.65l.3-5.5" fill="#e29569"/><path d="M55.5 16.6q-6.05.05-8.75 2.05-3.1 2.25-1.7 7.05-5.25 2.35-9.15 3.3l-3.65.55-.1-1.3-.05-.5-.35 1.8q-5.6.1-6.6-4.6l-.05-.6v-.7Q24.75 18 22.75 13.1l-1.2-3.3L19.9 5l3.85 1.1q6.8 5.65 8.1 14.65-.35-8.55-7-14.4L55.5 16.6" fill="#fede6f"/><path d="m19.9 5 1.65 4.8 1.2 3.3q2 4.9 2.35 10.55v.7l.05.6-.3 5.5q-.8 3.25-1.9 5.65-1.6 3.45-3.95 5.2l-.25.2q-1.3.85-2.75 1.25l-2.05.25h-1.1q6.25-.75 9.35-6.9 1.15-2.35 1.9-5.45l.1-6.4-.05-.7q-.3-6.8-2-10.45l-1.4-3.55-.4-1-1.5-3.7-.05-.2 1.1.35" fill="#c9654e"/><path d="m18.8 4.65.05.2 1.5 3.7.35 1-9.25-2.5q-5.55 8.2 1.1 15.7h-.4l.65.4 11.4 1.1-.1 6.4q-.75 3.1-1.9 5.45-3.1 6.15-9.35 6.9l-.25.25-3.35.6-5.4-.65q-1.1-3.55-1.7-7.1Q-.9 18.25 8.6 1.65l10.2 3" fill="#fe8b70"/><path d="m20.75 9.55 1.4 3.55q1.7 3.65 2 10.45l-11.6-.8q-6.65-7.5-1.1-15.7l9.25 2.5h.05" fill="#fed8b3"/><path d="m28.95 38.45 10.1-2.9-3.15 1.75q-5.05 2.6-9.1 3.6l2.15-2.45m-15 4.55 2.05-.25q1.45-.4 2.75-1.25l.25-.2 8.75-2.5q-1.3 1.65-2.95 2.8-6.85 2.75-15.55 2.25l3.35-.6 1.35-.25" fill="#9bf0cf"/><path d="M13.25 22.75Q8.35 20.3 1.95 9.1q1.35-1.7 3.5.35-.1-.25.35-.45-1.3-2.5-1.65-5.3 3.15-.05 5.4 4.05l.1-6.55q2.1-1.15 5.15 5.6L17 1.85q2.6.15 2.15 5.45 1.3 1.55 1.8 2.9 4.15-.9 4.65 1.55l-4.55 5.15q-2.45 4.2-7.8 5.85" fill="#ffd7b3"/><path d="M13.25 22.75q-2.8 1.4-10.3-11.45-.95-.85-1.5-2.25Q2.5 7.1 4.5 8q-1.4-3.1-.95-4.95 1.9-1.35 5.3 2.5L9.05.8q2.2-2.5 5.65 4.45l1.8-4.2q4.15.1 3.3 6.1l1.35 2q5.55-.65 5.1 3.35l-1.9 1.7q-3.6 4-3.3 2.7l4.55-5.15q-.5-2.45-4.65-1.55-.5-1.35-1.8-2.9Q19.6 2 17 1.85L14.8 6.8Q11.75.05 9.65 1.2l-.1 6.55Q7.3 3.65 4.15 3.7 4.5 6.5 5.8 9q-.45.2-.35.45Q3.3 7.4 1.95 9.1q6.4 11.2 11.3 13.65" fill="#ca664c"/></g><g id="E" transform="translate(12.5)"><use ffdec:characterId="38" height="107" transform="translate(0 21.9)" width="254.1" xlink:href="#Y"/><use ffdec:characterId="39" height="37.45" transform="translate(130.7)" width="59.5" xlink:href="#Z"/></g><g id="Y" fill-rule="evenodd"><path d="M249.75 82.6q.55-10.8-13.75-25.4 4.55 2.8 11.65 8.6 4.5 7.45 4.7 14.35l-2.6 2.45M224.9 71.3l2.35 3.45.05.1q8.65 13.8 9.1 28.2v.3l-.35.6-3.95 4.1-.05-.05q3.35-6-4.75-27.55l-1.15-2.05-1.6-2.6.35-4.5" fill="#f4ffc3" transform="translate(0 -21.9)"/><path d="M248.85 89.7q1-3.2.9-7.1l2.6-2.45q.05 2.4-.4 4.75l-3.1 4.8M236 57.2l-.85-.9q-2.25-2.35-5.05-4.65l-2.8-2.2-2.35-1.7-.5-.35-4.55-3q-4.7-3-9.4-5.55l-1.95-1.05-2.25-1.15q-5.55-2.75-11.1-4.9 5.8 1.7 11.1 3.7l4.2 1.6 1.8.75q3.95 1.65 7.6 3.5 3.9 1.95 7.4 4.1l2.3 1.45.5.35 1.75 1.15 1.65 1.15q9.45 8.45 14.15 16.3-7.1-5.8-11.65-8.6m.05 46.75.35.1q-.4 4.05-2.55 7.6-1.5 2.4-3.85 4.55l-.2.2q-6.7 5.65-13.85 7.4 8.2-3.5 10.5-7.2l.2-.35.9-1.35 4.4-6.7.15-.15 3.95-4.1" fill="#a1f5f7" transform="translate(0 -21.9)"/><path d="m249.35 83 .05-.05q.7-10.75-14.6-26.4l-.2-.15-.15-.05q-1.9-2.1-4.35-4.15l-2.8-2.25-2.6-1.9-.45-.3.2-.35.5.35 2.35 1.7 2.8 2.2q2.8 2.3 5.05 4.65l.85.9q14.3 14.6 13.75 25.4.1 3.9-.9 7.1l-.4.6q1.15-3.15.9-7.3m-24.4-12.55 2.35 3.45q8.85 13.7 9.7 28.15l.05.5v.25q-.25 4.5-2.75 8.85l-.2.35.15.1-.6.65-.15.2-3.5 3.25q2.35-2.15 3.85-4.55 2.15-3.55 2.55-7.6l-.35-.1.35-.6v-.3q-.45-14.4-9.1-28.2l-.05-.1-2.35-3.45q-4.8-6.9-9.2-12.1l-5.2-5.65-2.45-2.35-1.75-1.5-1.55-1.25-1.95-2.05 3.5 2.7 2.45 2.1 1.75 1.65q3 2.9 5.95 6.35 4.05 4.75 7.95 10.5l.55.75" fill="#4c92da" transform="translate(0 -21.9)"/><path d="m234.45 56.35.15.05.2.15q15.3 15.65 14.6 26.4l-.05.05q-2.75 2.95-3.5 5.3-2.05 5.1-8.85 13.75-.85-14.45-9.7-28.15l-2.35-3.45q.3-5-1.6-10.9v-.35q0-5.25 3.95-5.25l2.8.5q1.9.6 4.35 1.9" fill="#44dafb" transform="translate(0 -21.9)"/><path d="M249.35 83q.25 4.15-.9 7.3l-13.9 21.35-.3.45-.15-.1.2-.35q2.5-4.35 2.75-8.85v-.25l-.05-.5q6.8-8.65 8.85-13.75.75-2.35 3.5-5.3m-25.1-35.25.45.3 2.6 1.9 2.8 2.25q2.45 2.05 4.35 4.15-2.45-1.3-4.35-1.9l-2.8-.5q-3.95 0-3.95 5.25v.35q1.9 5.9 1.6 10.9l-.55-.75q-3.9-5.75-7.95-10.5-2.95-3.45-5.95-6.35l-1.75-1.65-2.45-2.1-3.5-2.7-1-1-8.25-7.6-1.05-.9q-2.3-3.9 6.15-3l7.65 3.55.7.35 3.5 1.8q5.15 2.65 9.4 5.3 2.3 1.45 4.35 2.85" fill="#3ab1f5" transform="translate(0 -21.9)"/><path d="m248.45 90.3.4-.6 3.1-4.8q.45-2.35.4-4.75-.2-6.9-4.7-14.35-4.7-7.85-14.15-16.3l-1.65-1.15.15-.3q2.95 1.95 2.6.15 22.95 19.5 18.9 38.15-7 8.65-14.45 22.35l-2.3 2.95q-9 10.65-20.3 14.25-12.85 5-11.7 1.6-.3-9.25 3.5-15.85l-4.5-1.65q-.4-11.15 10.25-14 10.65-2.9 14.5-7.15-1.7-5-4.8-10.45-2.1-3.6-4.8-7.4l-7.65-11.8-.5-.75-2.8-2.85-1.8-1.7-3.05-2.7q-8.4-7.1-18.25-11.85l-3-1.55q-9.7-5.25-13.75-11.75-.95-1.55-1.6-3.15l.2-.1 1.4 2.1q5.8 7.95 15.85 12.85l.1.05q10.95 5 20.4 13.4l1.7 1.55 2.9 2.85 3.35 3.6q6.5 7.35 12.15 16.6l1.6 2.6 1.15 2.05q8.1 21.55 4.75 27.55l-.1.2-4.4 6.7-2.4 1.85q2.2-2.4 3.95-5.1l2.35-4q1.6-5.7-1.9-17.3-7.05 5.55-13.2 5.95-8.35 1.85-10.6 12.7 3-.1 4.35 1.45l2.5-1.4q-1.2 1.2-2.1 2.6-3.95 5.85-3.8 15.4 5.3-1.6 9.25-3.25 7.15-1.75 13.85-7.4l.2-.2 3.5-3.25.15-.2.6-.65.3-.45 13.9-21.35m-24-42.9-.2.35q-2.05-1.4-4.35-2.85-4.25-2.65-9.4-5.3l-3.5-1.8-.7-.35-7.65-3.55q-8.45-.9-6.15 3l1.05.9 8.25 7.6 1 1 1.95 2.05Q196.25 41.4 190 37.8q-4.25-2.4-7.45-3.3l-7.15-5q4.05 2.25 9.3 3.1 1.8-.55 3.7-2.55 8 .3 17.9 4.2l4.2 1.75 1.8.8q3.7 1.75 7.6 3.9 3.6 2 7.4 4.35l2.4 1.5-.1.3-2.3-1.45q-3.5-2.15-7.4-4.1-3.65-1.85-7.6-3.5l-1.8-.75-4.2-1.6q-5.3-2-11.1-3.7 5.55 2.15 11.1 4.9l2.25 1.15 1.95 1.05q4.7 2.55 9.4 5.55l4.55 3" fill="#2966d0" transform="translate(0 -21.9)"/><path d="m175.4 29.5 7.15 5q3.2.9 7.45 3.3 6.25 3.6 14.75 10.65l1.4 4.3-1.7-1.55q-9.45-8.4-20.4-13.4l-.1-.05q-10.05-4.9-15.85-12.85l-1.4-2.1 1.4-.8.1-.05v-.05q2.25 3.6 7.2 7.6" fill="#64a5e9" transform="translate(0 -21.9)"/><path d="m206.15 52.75-1.4-4.3 1.55 1.25 1.75 1.5 2.45 2.35 5.2 5.65q4.4 5.2 9.2 12.1l-.35 4.5q-5.65-9.25-12.15-16.6l-3.35-3.6-2.9-2.85" fill="#addbe8" transform="translate(0 -21.9)"/><path d="M215.95 123.8q-3.95 1.65-9.25 3.25-.15-9.55 3.8-15.4.9-1.4 2.1-2.6l-2.5 1.4q-1.35-1.55-4.35-1.45 2.25-10.85 10.6-12.7 6.15-.4 13.2-5.95 3.5 11.6 1.9 17.3l-2.35 4q-1.75 2.7-3.95 5.1l2.4-1.85-.9 1.35-.2.35q-2.3 3.7-10.5 7.2" fill="#65a4e9" transform="translate(0 -21.9)"/><path d="m161.4 24.35 1.35-1.65.4.15q-1.05 5.1-2.55 9.6l-2 5.35q-3.4 7.75-8.3 13.4l-.6.65-3.85 3.75q-3.4 2.9-7.35 5.05-10.5 6-19.5 8.95-7.95 4.2-12.8 3.9-2.9-.05-5.7.05l-10.4.65-5.2.75q-15.2 2.5-25.35 9.45-3.45 2.35-6.35 5.25l-.45.45q-.1-.2-2.05 1.8l-4.95 5.3q-4.45 6.85-14.85 7.85l-1.6.1q-3.7-2.6-6.3-9.5l-3.3.6-12 .55q-5.1-.6-7.7-3.1 2.45-6.3 7.7-11.3 4.85-4.6 12-8.15 4.35-2.15 9.6-3.85l1.6-.55q4.7-1.5 10.1-2.65l9.7-.15 2.5-.1 10.6-.85q10.3-1.05 21.1-3.15l5.2-1.1 3.45-.75 6.95-2 9.5-3.5q4.7-2 9.3-4.4 10.5-5.55 20.15-13.4l.5-.4 7.6-.35q3.3-.55 10.65-8.95l-1.6 4.5-.25.6-.05.1-.75.6-5.3 3.9-.55.35q-6.75 4.5-11.55 5.55l-9.2 6.1-.1-.3 8.3-5.65 7.65-6.05.15-.15-.75.15-2.5.05-9.65 6.6-11 6.75-3.55 1.9-5.2 2.5q-6.75 3.15-11.8 5.15-6.5 2.5-10.2 3.15l-.2.05-3.05.7-.3.05-1.85.35q-8.6 1.5-22.05 2.15l-9.65.35-2.5.1-3.8.05h-3.5q-6.9 1.7-12.5 3.65l-1.6.6q-5.45 1.95-9.6 4.2-4.1 2.15-6.9 4.6-2.95 2.35-5.1 4.45-5 4.85-5.5 8.15l5.5 1.35q6.55 1.15 12-.05l3.55-1.15.6-2q.8 5.85 6.55 12.35h.5q7.8-.75 19.8-13.9l1.45-1.65.55-.7.5-.4 3.4-2.8q5.85-4.7 8.85-6.3-2.05 1.65-.9 1.05Q72 75.4 84.9 73.65l5.2-.65 10.4-.75 1.15-.05q18.6-.6 39.6-14.5l3.25-2.1q2.45-1.85 4.7-4.4l.5-.6q4.3-5.1 7.65-12.8l2.05-5.3 2.65-8.9-.65.75M32.7 74.65q3.55-1.45 7.55-2.6l10.45-1.2 2.5-.25 7.45-.8 13.2-1.35 11.05-1.5 5.2-1 1.25-.25 3.1-.6 4.2-.9.3-.05 1.55-.15q9.7-1.1 19.15-3.95-3 4.85-13.95 7.6.2 1.15-2.3 1.8l-1.2-.05-1.7.15-10.4.8-5.2.4-10.4.8Q59.85 73.8 53.2 78.9q-1.4 1.05-2.45 2.25l-.05.05-2.7 3.2-.1.1v-.1l-.2-.75q-2.1-8-14.45-8.9h-.5l-.05-.1" fill="#2966d0" transform="translate(0 -21.9)"/><path d="m165.35 22.75.2-.05v.05h-.2" fill="#ecff6f" transform="translate(0 -21.9)"/><path d="m132.05 44.45 9.65-6.6 2.5-.05.75-.15-.15.15-7.65 6.05-5.1.6m-3.2 5.05.1.3-2.25 1.4-6.5 3.85-1 .55q-10.7 5.85-18.7 8.15l-1.55.4-.3.05-4.2.9-3.1.6-1.25.25-5.2 1-11.05 1.5-13.2 1.35-7.45.8-2.5.25-10.45 1.2q-4 1.15-7.55 2.6l-.15.05-.2.1-1.8.2.35-.15q4.3-1.95 9.35-3.7l10.45-1.1 2.5-.25 8.1-.75 2.45-.2.7-.1L84.9 66.6l5.2-.9 1.2-.25 3.1-.7 1.45-.3 4.65-1.3q8.5-2.7 17.8-7.55l1.75-.95 6.05-3.45 2.75-1.7m26.7-15.6.75-.6.05-.1-1.6 4.6q-1.9 4.2-5.05 8.15l-5.05 5.25-5.5 4.4q-4.45 3.15-9.95 6.05-13.2 6.95-28.05 8.6h-.9l-10.15.45-5.2.4-15.6 2.05q-10.05 2.45-16.1 6.9l-2.5 2.05q-1.2 1.1-2.1 2.3l-.3.35-.1.2-.2-.55 2.7-3.2.05-.05q1.05-1.2 2.45-2.25 6.65-5.1 21.3-7.35l10.4-.8 5.2-.4 10.4-.8 1.7-.15 1.2.05q7.35-.2 23.55-7.2 6.3-3 11.35-6.65l5.4-4.4q3.35-3.15 6-6.7 2.35-3.2 4.1-6.7l1.75-3.9" fill="#2d6bd0" transform="translate(0 -21.9)"/><path d="m159.4 32.5-2.05 5.3q-3.35 7.7-7.65 12.8l-.5.6q-2.25 2.55-4.7 4.4l-3.25 2.1q-21 13.9-39.6 14.5l-1.15.05-10.4.75-5.2.65Q72 75.4 64.55 79.15q-1.15.6.9-1.05-3 1.6-8.85 6.3l-3.4 2.8-.5.4-.55.7-1.45 1.65q-12 13.15-19.8 13.9h-.5q-5.75-6.5-6.55-12.35l-.6 2-3.55 1.15q-5.45 1.2-12 .05l-5.5-1.35q.5-3.3 5.5-8.15 2.15-2.1 5.1-4.45 2.8-2.45 6.9-4.6 4.15-2.25 9.6-4.2l1.6-.6q5.6-1.95 12.5-3.65h2.9q-9.4 2.65-15.4 5.25l-1.6.75-3.6 1.9 4.85-.6-1.25.6q-5.4 2.55-9.6 5.55-5.6 3.95-9 8.6 2.15 1.95 9 .3 3.3-.8 7.65-2.45.85 6.15 3.55 10.75l.6.95q7.1-2.4 15.65-12.85l1.05-1.5.1-.2.1.75q.45 1.9 2.3.45l1.55-1.55.05-.05.9-.65q9.2-6.75 19.7-9.35l23.2-2.5q3-.1 4.15-1.6h.9q14.85-1.65 28.05-8.6 5.5-2.9 9.95-6.05l5.5-4.4 5.05-5.25q3.15-3.95 5.05-8.15l1.6-4.6.25-.6 2.8-.1M87.05 64.65l3.05-.7.2-.05q3.7-.65 10.2-3.15 5.05-2 11.8-5.15l5.2-2.5 3.55-1.9 11-6.75 5.1-.6-8.3 5.65-2.75 1.7-6.05 3.45-1.75.95q-9.3 4.85-17.8 7.55l-4.65 1.3H94.4l-7.35.2" fill="#a1f5f7" transform="translate(0 -21.9)"/><path d="m161.4 24.35.65-.75-2.65 8.9-2.8.1 1.6-4.5.1-.25 3.1-3.5" fill="#64a5e9" transform="translate(0 -21.9)"/><path d="m128.95 49.8 9.2-6.1q4.8-1.05 11.55-5.55l.55-.35 5.3-3.9-1.75 3.9q-1.75 3.5-4.1 6.7-2.65 3.55-6 6.7l-5.4 4.4q-5.05 3.65-11.35 6.65-16.2 7-23.55 7.2 2.5-.65 2.3-1.8 10.95-2.75 13.95-7.6Q110.2 62.9 100.5 64l-1.55.15 1.55-.4q8-2.3 18.7-8.15l1-.55 6.5-3.85 2.25-1.4M47.9 84.5q-10.75 12.35-16 14.35l-1-1.7q-2.15-4.1-3.05-10.15l-8.15 2.3-7.95.25q3.25-4.3 7.95-7.8 4.2-3.15 9.6-5.6l1.6-.75 1.45-.6.4-.05h.5q12.35.9 14.45 8.9l.2.75v.1" fill="#3ab1f5" transform="translate(0 -21.9)"/><path d="M46.3 67.7h.6l3.8-.05 2.5-.1 9.65-.35q13.45-.65 22.05-2.15l1.85-.35.3-.05 7.35-.2v.3l-3.1.7-1.2.25-5.2.9-20.45 2.15-.7.1-2.45.2-8.1.75-2.5.25-10.45 1.1q-5.05 1.75-9.35 3.7l-.35.15-4.85.6 3.6-1.9 1.6-.75q6-2.6 15.4-5.25m2 17.05.3-.35q.9-1.2 2.1-2.3l2.5-2.05q6.05-4.45 16.1-6.9l15.6-2.05 5.2-.4 10.15-.45q-1.15 1.5-4.15 1.6l-23.2 2.5q-10.5 2.6-19.7 9.35l-.9.65-.05.05-1.55 1.55q-1.85 1.45-2.3-.45l-.1-.75" fill="#64a5e7" transform="translate(0 -21.9)"/><path d="m30.55 75 1.8-.2-1.45.6-1.6.75q-5.4 2.45-9.6 5.6-4.7 3.5-7.95 7.8l7.95-.25 8.15-2.3q.9 6.05 3.05 10.15l1 1.7q5.25-2 16-14.35l.1-.1.2.55-1.05 1.5Q38.6 96.9 31.5 99.3l-.6-.95q-2.7-4.6-3.55-10.75-4.35 1.65-7.65 2.45-6.85 1.65-9-.3 3.4-4.65 9-8.6 4.2-3 9.6-5.55l1.25-.6" fill="#8bdbf2" transform="translate(0 -21.9)"/></g><g id="Z" fill-rule="evenodd"><path d="M171.6 5.15h.15l.2-.15 1.2-.9 2.75-1.7q1.35-.75 2.75-1.2 1.05-.35 2.1-.55 6.35-1.55 8.4.55l.65.95.15.25q.9 2.1-1.7 10.4l-.05.15.55 3.85.05.4.1.8q.65 7.15-.55 12.05h.05q-1.9 2-3.7 2.55-5.25-.85-9.3-3.1-4.95-4-7.2-7.6l.65-.4 1.8-1.4 1.95-2.1.6-.8.25-.4 1.1-2.55.05-.45v-1l-.4-3.8-.5-1.4-.05-.05-.5-.8 7.65-3-2.3 1.5q-1.95 1.4-2.9 2.7-1.7 2.3 0 4.15l.8.7 1.7 1 2.15.9q.35 1.2-1.85 2.1l-1.2.4-1.6.4-1 .2-.1.2q-.7 1.6.95 3.5 2 2.3 7.45 4.95 6.1 1.5 5.5-8.45l-.05-.8-.05-.4-.4-3-.95 1.95q-.35-.65.3-2.95.45-1.7 1.5-4.3.7-2.6.4-5.9l-.1-.2-1.1-1.2q-1.8-1.1-5.7 0l-3.4 1.2-3.7 1.7q-1.05.5-2.15 1.1l-.85.45-.5-.45-.05-.05m-8.85 17.55-1.35 1.65-3.1 3.5-.1.25q-7.35 8.4-10.65 8.95l-7.6.35.05-.05q-4.45-1.5-4.8-11.65 1.55 9.85 4.9 10.85 1.2.8 7.25 0 1.1-.3 2.35-1.1 2.35-1.5 5.25-4.6 3.7-3.95 5.15-7.65-5.55 7.5-10.4 10.4-1.25.75-2.5 1.2-1.35 1.3-5.7.5-4.4-2.65-6.3-12.65l.05-1.2q-1.3-1.7-2.5-4.25l-.15-.4-1.55-3.9-.05-.1q-1.3-3 3.1-5.8 7.5-1.4 15.6-.35l2.5.35 1.8.35.55.1.35.1-.05.15-.25.35-.6 1.2q-.8 1.85-.75 3.55.1 2.1 1.45 4l.3.4q1.8 2.3 5.45 4.3l2.3 1.2m21.7 8.7q3.05-.85 3.7-3.5-2.9 4.1-14.65-3.15l-4.3-2.85q6.25 7.55 15.25 9.5M153.8 8.5l-1.6-.35-2.5-.5q-5.95-.9-13.35-.3-2.8 1.2-2.4 5.45l.05.55q.1 2 .75 3.45l.15.4q1.1 2.3 3.45 3.1 3.75.05 2.8 1.4-3.4 2.85.1 7.35 3.05 5.35 7.05 3.3l1.4-1q3.8-3 7.35-9.7l-.1-.15q-1-1.25-2.15-1.8-1.2-1.2-2.6-1.85l-1-.4-1.5-.05-.85-.2-.7-.4-.4-.6q.8-1.15 1.95-1.7.85-.45 1.9-.6l.1-1.1.5-1.65q.55-1.35 1.6-2.65" fill="#2966d0" transform="translate(-130.7)"/><path d="m172.15 5.65.85-.45q1.1-.6 2.15-1.1l3.7-1.7 3.4-1.2q3.9-1.1 5.7 0l1.1 1.2.1.2q.3 3.3-.4 5.9-1.05 2.6-1.5 4.3-.65 2.3-.3 2.95l.95-1.95.4 3 .05.4.05.8q.6 9.95-5.5 8.45-5.45-2.65-7.45-4.95-1.65-1.9-.95-3.5l.1-.2 1-.2 1.6-.4 1.2-.4q2.2-.9 1.85-2.1l-2.15-.9-1.7-1-.8-.7q-1.7-1.85 0-4.15.95-1.3 2.9-2.7l2.3-1.5-7.65 3-1-1.1M153.8 8.5q-1.05 1.3-1.6 2.65l-.5 1.65-.1 1.1q-1.05.15-1.9.6-1.15.55-1.95 1.7l.4.6.7.4.85.2 1.5.05 1 .4q1.4.65 2.6 1.85 1.15.55 2.15 1.8l.1.15q-3.55 6.7-7.35 9.7l-1.4 1q-4 2.05-7.05-3.3-3.5-4.5-.1-7.35.95-1.35-2.8-1.4-2.35-.8-3.45-3.1l-.15-.4q-.65-1.45-.75-3.45l-.05-.55q-.4-4.25 2.4-5.45 7.4-.6 13.35.3l2.5.5 1.6.35" fill="#3ab1f5" transform="translate(-130.7)"/><path d="m172.4 8.7.3.7q.25 1.45-.05 3.4l-.25 1-.35 1.3-.8 1.7-.3.4-.7.8-.65.6-1.5 1.15-2.7 1.55-.25-.1-.9-.35q-3.75-1.6-5.75-3.65l-.35-.4q-1.2-1.3-1.7-2.85l-.05-.15-.25-1q-.25-1.5.2-3l.35-.55q1.4-1.95 4-1.6 1.8.25 4.15 1.6V9.1q2.35-1.85 4.1-2.2 2.35-.5 3.45 1.8m-4.65-.7q-1.1.65-2.45 1.9l-.15.15q-3.95-2.55-6.25-1.9-1.1.3-1.8 1.4l-.3.4-.1 2.65.05.2.2 1q.45 1.55 1.95 3l.4.4 2.7 1.9 2.6 1.3.8.35h.1l1.95-.95.65-.4 1.3-1.05.35-.35.65-.8.25-.4q.85-1.35 1.35-3v-.1l.2-3.1q-.55-5.05-4.45-2.6" fill="#cc6851" transform="translate(-130.7)"/><path d="m169.6 18.6.65-.6.7-.8.3-.4.8-1.7.35-1.3.25-1q.3-1.95.05-3.4l-.3-.7.75-.6q1.1 2.05.9 4.7l-.1 1-.2.85-1.25 2.15-.25.4-.55.8-1.3 1.7-.8-1.1" fill="#eaf46d" transform="translate(-130.7)"/><path d="M172.4 8.7q-1.1-2.3-3.45-1.8l.85-1.5 1.5.4 1.85 2.3-.75.6" fill="#f2d900" transform="translate(-130.7)"/><path d="m171.6 5.15.05.05.5.45 1 1.1.5.8.05.05.5 1.4.4 3.8v1l-.05.45-1.1 2.55-.25.4-.6.8-1.95 2.1-1.8 1.4-.65.4-.1-.1.1.15-.1.05-1.4.8-.2.1-.8.35q-1.6.4-2.55-.4l-.4-.15-2.3-1.2q-3.65-2-5.45-4.3l-.3-.4q-1.35-1.9-1.45-4-.05-1.7.75-3.55l.6-1.2.25-.35.05-.15.05-.05q2.15-1.8 4.25-2.15 2.7-.45 5.3 1.45 1.4-1.15 2.85-1.6 2.05-.65 4.25-.05m-1.2 14.55 1.3-1.7.55-.8.25-.4 1.25-2.15.2-.85.1-1q.2-2.65-.9-4.7l-1.85-2.3-1.5-.4q-2.75-.3-5.2 1.9l-.15-.1q-2.55-1.55-4.9-1.3-1.95.15-3.8 1.55l-.6.5-.35.35q-.65 1.75-.8 3.3v1.55l.1.65q.3 1.6 1.25 3l.3.4q1.95 2.5 6.15 4.3l.85.35.6.2 2.1.7h.2q1.25-.05 2.55-.95l.45-.3 1.85-1.8" fill="#cd7051" transform="translate(-130.7)"/><path d="M164.85 9.1v.15q-2.35-1.35-4.15-1.6l-1.15-1.75q2.35-.25 4.9 1.3l.15.1h-.2q-.45.9.45 1.8" fill="#ecff6f" transform="translate(-130.7)"/><path d="M168.95 6.9q-1.75.35-4.1 2.2-.9-.9-.45-1.8h.2q2.45-2.2 5.2-1.9l-.85 1.5" fill="#ef9302" transform="translate(-130.7)"/><path d="m165.15 10.05.15-.15q1.35-1.25 2.45-1.9 2.4-.3 3.25 1.15l-2.7 3.15-2.65 1.3-.5-3.55" fill="#fab5b0" transform="translate(-130.7)"/><path d="M167.75 8q3.9-2.45 4.45 2.6l-.2 3.1v.1q-.5 1.65-1.35 3l-.25.4-.65.8-.35.35-.75-.85.2-.4-1.9-2.05 3.55 1.05.65-2.3.15-1-.05-2-2.95 1.5 2.7-3.15q-.85-1.45-3.25-1.15" fill="#efffba" transform="translate(-130.7)"/><path d="m165.65 13.6 2.65-1.3 2.95-1.5.05 2-.15 1-.65 2.3-3.55-1.05-1.3-1.4v-.05m-2.75 0 .15.05.05.05.3.1 2.1.5-2 2-2.05 2-3.4-4.9 4.85.2" fill="#d46ff9" transform="translate(-130.7)"/><path d="m169.4 18.35-1.3 1.05-.65.4-1.95.95.15-6.4v-.2l-.15.15-2.1-.5-.3-.1-.05-.05-.15-.05-4.85-1.9q-.6-1.75.85-3.55 2.3-.65 6.25 1.9l.5 3.55v.05l1.3 1.4 1.9 2.05-.2.4.75.85" fill="#bb0460" transform="translate(-130.7)"/><path d="M165.5 20.75h-.1l-.8-.35-2.6-1.3 1.5-2.8 2-2 .15.05-.15 6.4" fill="#970661" transform="translate(-130.7)"/><path d="m165.15 21.2.25.1 2.7-1.55 1.5-1.15.8 1.1-1.85 1.8-.45.3q-1.3.9-2.55.95v-.05l-.4-1.5" fill="#f1da00" transform="translate(-130.7)"/><path d="m156.7 9.25-.35.55q-.45 1.5-.2 3l.25 1 .05.15q.5 1.55 1.7 2.85l.35.4q2 2.05 5.75 3.65l.9.35.4 1.5-.2.05-2.1-.7-.6-.2-.6-.35q-3.4-2.05-5.25-4.3l-.3-.4q-1.1-1.45-1.55-3l-.2-1q-.35-2.2.7-4.6l1.25 1.05" fill="#ef9300" transform="translate(-130.7)"/><path d="m162.65 21.85-.85-.35q-4.2-1.8-6.15-4.3l-.3-.4q-.95-1.4-1.25-3l-.1-.65V11.6q.15-1.55.8-3.3l.35-.35.3.25q-1.05 2.4-.7 4.6l.2 1q.45 1.55 1.55 3l.3.4q1.85 2.25 5.25 4.3l.6.35" fill="#effebd" transform="translate(-130.7)"/><path d="m162 19.1-2.7-1.9-.4-.4q-1.5-1.45-1.95-3l-.2-1-.05-.2.1-2.65.3-.4q.7-1.1 1.8-1.4-1.45 1.8-.85 3.55l4.85 1.9-4.85-.2 3.4 4.9 2.05-2-1.5 2.8" fill="#821731" transform="translate(-130.7)"/><path d="M184.45 31.4q-9-1.95-15.25-9.5l4.3 2.85q11.75 7.25 14.65 3.15-.65 2.65-3.7 3.5" fill="#a1f5f7" transform="translate(-130.7)"/><path d="M160.7 7.65q-2.6-.35-4 1.6l-1.25-1.05.3-.75q1.85-1.4 3.8-1.55l1.15 1.75" fill="#f8e300" transform="translate(-130.7)"/><path d="M135.2 25.7v-3.05q1.9 10 6.3 12.65 4.35.8 5.7-.5 1.25-.45 2.5-1.2 4.85-2.9 10.4-10.4-1.45 3.7-5.15 7.65-2.9 3.1-5.25 4.6-1.25.8-2.35 1.1-6.05.8-7.25 0-3.35-1-4.9-10.85" fill="#9bf2cf" transform="translate(-130.7)"/></g><g id="o" fill-rule="evenodd"><path d="M85.1 64.55Q69.75 46.4 67.95 25.7q1.5-3.55-1.95-7.15Q44.25 1 24.55 1.45l.1.35.05.25Q27 12 48.05 17.3l-.65-.05-1.65-.25Q28.3 14.35 16.5 15.5q-9.25.9-15.05 4.15l-.2.1H1.2q-.05 6.8 15.3 11.05 10.15 2.8 27.1 4.45v.1l-16-1.2q-5.7 2.4-11.1 4.2l-3.05.95.4.35.3.3 2.35 1.45q6.85 3.05 23.4 1.65l.05.1-1.35.3q-7.7 1.95-12.8 10.2l-.15.2q13.65 2.4 27.5-1.85l.05.1q-8.5 4.85-8.25 15.6v.3q6.2-2.1 13.4-6.6l.1.1q-5.2 7.95-1.25 14.45l.15.2q1.3 1.9 4.5 4.1l-3.1 2.1Q52.8 76.7 54 66.75q-5.75 3.5-9.95 3.05-2.85-.55 2.95-14.7-11.2 2-22.4.6-2.1-3.4 6.05-10.4l-8.25-.05q-3.65-1-5.9-2-7.55-3.4 0-7.1 1.9-.9 4.7-1.85l-4.7-1.5Q0 26.9 0 19q3.85-3.7 16.5-4.85l16.65-.5Q18.65 2.8 25 0q23.85.05 44.8 20.05 1.05 4.2-.3 6.85 3.85 20.75 16.05 37.3l-.45.35" fill="#aa9fe1"/><path d="M48.05 17.3Q27 12 24.7 2.05q13.75 10.75 28.75 16l-5.4-.75M74.8 68.1q-6.25-18.65-5.65-30.15 3.7 12.05 12.4 29l-5.8 3.9-.95-2.75" fill="#bac4ff"/><path d="M64.15 33.65h.05q2.05 23.2 7.6 32.4-7.95-9.05-7.65-32.1v-.3" fill="#aba0e4"/><path d="m24.7 2.05-.05-.25-.1-.35Q44.25 1 66 18.55q3.45 3.6 1.95 7.15 1.8 20.7 17.15 38.85l-3.55 2.4q-8.7-16.95-12.4-29-.6 11.5 5.65 30.15l-2.55-1.25-.45-.8q-5.55-9.2-7.6-32.4l-.05-.35v-.05l-.65-1.95-9.35-9.75q1.65 5.8 5.2 11.6l-16.6-5.75q6.65 8 16.85 11.9l-16.95.2 13.55 2.3q-4.05 3.85-10.45 5.35l15.5.15-5.9 8.25 7.6-4 .55 6.85-6.3 17.55q-3.95-6.5 1.25-14.45l.15-.25-.25.15 3.75-6.45L44.95 67.7q-.25-10.75 8.25-15.6l.55-.3-.25.1 3.15-2.5-30.85 4.25q5.1-8.25 12.8-10.2l1.35-.3.75-.15h-.2l5.8-1.05q-15.75 0-29.8-1.7l-2.35-.3-.3-.3-.4-.35 3.05-.95q5.4-1.8 11.1-4.2l16 1.2h.75l.8-.05 4.8.1Q32.6 31.45 16.5 25.65q-7.65-2.8-15.05-6 5.8-3.25 15.05-4.15 11.8-1.15 29.25 1.5l1.65.25 1.05.15-.4-.1 5.4.75q-15-5.25-28.75-16" fill="#fff"/><path d="M61.85 80.25q-3.2-2.2-4.5-4.1l-.15-.2 6.3-17.55-.55-6.85-7.6 4 5.9-8.25-15.5-.15q6.4-1.5 10.45-5.35l-13.55-2.3 16.95-.2q-10.2-3.9-16.85-11.9l16.6 5.75q-3.55-5.8-5.2-11.6l9.35 9.75.65 1.95v.7q-.3 23.05 7.65 32.1l.45.8 2.55 1.25.95 2.75-13.9 9.4" fill="url(#aa)"/><path d="M43.6 35.25Q26.65 33.6 16.5 30.8 1.15 26.55 1.2 19.75h.05l.2-.1q7.4 3.2 15.05 6 16.1 5.8 33.45 9.75l-4.8-.1-1.55-.05" fill="url(#ab)"/><path d="M39.9 43.05q-16.55 1.4-23.4-1.65l-2.35-1.45 2.35.3q14.05 1.7 29.8 1.7L40.5 43l-.6.05" fill="url(#ac)"/><path d="M53.15 52q-13.85 4.25-27.5 1.85l.15-.2 30.85-4.25-3.15 2.5-.35.1" fill="url(#ad)"/><path d="M58.35 61.4q-7.2 4.5-13.4 6.6v-.3L62.1 54.95l-3.75 6.45" fill="url(#ae)"/></g><g id="p" fill-rule="evenodd"><path d="m223.85 47.6 4.65 1.6 3 .3q1.35-.15 2.5-.7 1.05-.55 2-1.5l.45-.55q1.95-1.4 1.85-3.15l-1.1-.6-.9-.65.3-2.45-.1-.95q-.05-.25-3.6-1-2.2-.5-4.4 2.15-1.45 1.6-2.85 4.45-.3.05-2.35 1.6-.25 1.35.55 1.45m-.45-2.05 1.65-1.15q1.3-3.15 3.05-4.9 3.1-3.1 7.55-1.95 2.9.2 1.5 4.65 3.05.45 1.8 2.35l-1.65 2.5q-1.3 1.45-3 2.2-1.5.6-3.3.7l-2.15-.1q-4.5-.55-5.8-2.3-.75-1.1.35-2m17.2 3.75 1.55.2q.2 2.45-1.15 3.75l3.35-.15q1.6.25-1.05 3.95-.4 2-1.65 3.75-1.95 2.8-6.1 5.15-5.5-5.9-3.15-10.5.75-1.45 2.3-2.8l1.2-.95q2.8-2.2 4.7-2.4m-.6 1q-2.2.7-3.8 1.95-1.55 1.15-2.55 2.9-1.05 1.8-1.4 4.2 1.2 3.3 3.5 6.1 3.55-2.3 5.6-5.1l.5-.8q.65-.55 2.15-5.8-3.15.55-3.6.05l.95-3.85-1.35.35" fill="#e26b89"/><path d="M223.85 47.6q-.8-.1-.55-1.45 2.05-1.55 2.35-1.6 1.4-2.85 2.85-4.45 2.2-2.65 4.4-2.15 3.55.75 3.6 1l.1.95-.3 2.45.9.65 1.1.6q.1 1.75-1.85 3.15l-.45.55q-.95.95-2 1.5-1.15.55-2.5.7l-3-.3-4.65-1.6M240 50.3l1.35-.35-.95 3.85q.45.5 3.6-.05-1.5 5.25-2.15 5.8l-.5.8q-2.05 2.8-5.6 5.1-2.3-2.8-3.5-6.1.35-2.4 1.4-4.2 1-1.75 2.55-2.9 1.6-1.25 3.8-1.95" fill="#fff"/><path d="m241.45 47.15-.05.1q4.05.85 6.7 4.3 3 3.8 2.4 8.65-.6 4.8-4.3 7.8l-.15.1q-3.85 3-8.7 2.4-4.85-.6-7.9-4.45-2.95-3.85-2.35-8.75l.4-1.95-.15-.05 14.1-8.15m-.85 2.15q-1.9.2-4.7 2.4l-1.2.95q-1.55 1.35-2.3 2.8-2.35 4.6 3.15 10.5 4.15-2.35 6.1-5.15 1.25-1.75 1.65-3.75 2.65-3.7 1.05-3.95l-3.35.15q1.35-1.3 1.15-3.75l-1.55-.2" fill="url(#af)"/><path d="M223.4 45.55q-1.1.9-.35 2 1.3 1.75 5.8 2.3l2.15.1q1.8-.1 3.3-.7 1.7-.75 3-2.2l1.65-2.5q1.25-1.9-1.8-2.35 1.4-4.45-1.5-4.65-4.45-1.15-7.55 1.95-1.75 1.75-3.05 4.9l-1.65 1.15m3.95 9.75q-3.95-.9-6.6-4.2-2.95-3.85-2.35-8.75.6-4.85 4.4-7.8l1.5-1q3.3-1.95 7.25-1.45 4.85.6 7.85 4.5 3 3.8 2.4 8.65l-.35 1.9-14.1 8.15" fill="url(#ag)"/><path d="M209.55 6.85q2.2.6 3.85 1.45 5.2 2.5 5.3 7.1 1.65 2.25-3.4 2.15-.05.7-.7.85-.95.2-3.2-.8-4.4-.5-5.55-4.9-.75-8.7 1.3-7.35l2.4 1.5m1.55 1.4q-.55-.5-4.25-2.25l-.45 5.15q-1.1 3.85 5.3 5.7 1.9 1.05 2.85.8l.6-.45q.35-.8 1.35-.5 1.25.55 1.5-.15.7-4.4-4.45-7.2l-2.45-1.1" fill="#e26d8a"/><path d="m211.1 8.25 2.45 1.1q5.15 2.8 4.45 7.2-.25.7-1.5.15-1-.3-1.35.5l-.6.45q-.95.25-2.85-.8-6.4-1.85-5.3-5.7l.45-5.15q3.7 1.75 4.25 2.25" fill="#fffdfe"/><path d="M219.1 3.45q3.45 3.45 3.45 8.35 0 4.9-3.45 8.35-1.8 1.8-3.95 2.65-2.05.8-4.4.8-4.9 0-8.35-3.45-3.45-3.45-3.45-8.35 0-4.9 3.45-8.35Q205.85 0 210.75 0l1.7.1q3.8.5 6.65 3.35m-9.55 3.4-2.4-1.5q-2.05-1.35-1.3 7.35 1.15 4.4 5.55 4.9 2.25 1 3.2.8.65-.15.7-.85 5.05.1 3.4-2.15-.1-4.6-5.3-7.1-1.65-.85-3.85-1.45" fill="url(#ah)"/><path d="m95.2 139 1.35-.05q1.2.1 3.05.7 6.15 0 10.65 6.9l1.15.9q.95 2.2-2.1 2.15-2.45 1.05-4.65.95-3.6-.2-6.45-3.45-1.55-3.75-3.85-6l-.1-.1-.05-.3q-.15-.85.3-1.35.25-.25.7-.35m13.9 9.85q3.65.25.85-1.8-5.45-7.15-10.55-6.5l-2.4-.95q-2.25-.65-2.25.95 2.35 2.3 3 3.9.9 2.6 2.65 3.8 1.6 1.65 3.85 1.75 2.15.1 4.85-1.15M87.05 125.3q5.95 1.95 5.9 8.45l-.1 1.55q-.8 1.1-1.1 2.4-1.65 1.15-1.4 4-1.15.55-2.5-.7-5.4-3.5-4.55-6.95 1.35-4.1.95-9.4 1.55.2 2.8.65m.45.6-2.7-.6q.75 6.25-.8 8.45-1.2 3.7 4.75 7.3l.95.05q-.2-1.95 1.45-3.75.3-1.45 1.05-2.3v-2.35q-.4-5.25-4.7-6.8" fill="#e26b89"/><path d="M109.1 148.85q-2.7 1.25-4.85 1.15-2.25-.1-3.85-1.75-1.75-1.2-2.65-3.8-.65-1.6-3-3.9 0-1.6 2.25-.95l2.4.95q5.1-.65 10.55 6.5 2.8 2.05-.85 1.8M87.5 125.9q4.3 1.55 4.7 6.8v2.35q-.75.85-1.05 2.3-1.65 1.8-1.45 3.75l-.95-.05q-5.95-3.6-4.75-7.3 1.55-2.2.8-8.45l2.7.6" fill="#fff"/><path d="m99.65 135.4-1.4.75-2.3 1.95-.75.9q-.45.1-.7.35-.45.5-.3 1.35l-.45 1.1q-3.15 1.3-6.7.5-4.35-1-6.7-4.8-2.35-3.75-1.35-8.15 1.05-4.35 4.85-6.7l1-.55q3.3-1.65 7.05-.8 4.45 1.05 6.8 4.8 2.35 3.8 1.25 8.15l-.3 1.15m-12.6-10.1q-1.25-.45-2.8-.65.4 5.3-.95 9.4-.85 3.45 4.55 6.95 1.35 1.25 2.5.7-.25-2.85 1.4-4 .3-1.3 1.1-2.4l.1-1.55q.05-6.5-5.9-8.45" fill="url(#ai)"/><path d="M99.65 135.4q3.15-1.45 6.7-.6 4.4 1.05 6.75 4.8 2.35 3.8 1.3 8.15-1 4.35-4.75 6.7l-1.7.9q-3.05 1.25-6.5.45-4.3-1-6.65-4.8-2.35-3.75-1.4-8.15l.35-1.05.45-1.1.05.3.1.1q2.3 2.25 3.85 6 2.85 3.25 6.45 3.45 2.2.1 4.65-.95 3.05.05 2.1-2.15l-1.15-.9q-4.5-6.9-10.65-6.9-1.85-.6-3.05-.7l-1.35.05.75-.9 2.3-1.95 1.4-.75" fill="url(#aj)"/><path d="M39.3 41.85q3.65-3.1 5.9-3.35l1.55.2q.2 2.45-1.15 3.75l3.35-.15q1.6.25-1.05 3.95-.45 2.2-1.9 4.15-2 2.6-5.85 4.75-5.5-5.9-3.15-10.5.65-1.2 1.85-2.35l.45-.45m0 1q-.6.7-1.05 1.5-1.05 1.8-1.4 4.2 1.2 3.3 3.5 6.1 3.3-2.1 5.25-4.65l.85-1.25q.65-.55 2.15-5.8-3.15.55-3.6.05l.95-3.85-1.35.35q-3.35 1.05-5.3 3.35" fill="#e36a8b"/><path d="M39.3 42.85q1.95-2.3 5.3-3.35l1.35-.35L45 43q.45.5 3.6-.05-1.5 5.25-2.15 5.8L45.6 50q-1.95 2.55-5.25 4.65-2.3-2.8-3.5-6.1.35-2.4 1.4-4.2.45-.8 1.05-1.5" fill="#fff"/><path d="m39.3 41.85-.45.45q-1.2 1.15-1.85 2.35-2.35 4.6 3.15 10.5Q44 53 46 50.4q1.45-1.95 1.9-4.15 2.65-3.7 1.05-3.95l-3.35.15q1.35-1.3 1.15-3.75l-1.55-.2q-2.25.25-5.9 3.35m-5.1-4.8q3.55-2.9 8.3-2.9 5.55 0 9.5 3.95t3.95 9.5q0 5.55-3.95 9.5l-.05.05q-3.95 3.9-9.45 3.9-5.55 0-9.5-3.95t-3.95-9.5q0-5.55 3.95-9.5l1.2-1.05" fill="url(#ak)"/><path d="M12.45 24.95q3.5 5.1 3.35 9.15l-.45 2.35q.75 4.9-1.1 4.45-1.4-2.65-2.55-3.65-1.85-1.4-2.45-3.3-1.45-2.75.2-6.2.5-1.15 1.35-2.35.65-3.6 1.65-.45" fill="#fff"/><path d="M12.45 24.95q-1-3.15-1.65.45-.85 1.2-1.35 2.35-1.65 3.45-.2 6.2.6 1.9 2.45 3.3 1.15 1 2.55 3.65 1.85.45 1.1-4.45l.45-2.35q.15-4.05-3.35-9.15m-.05-1.5.5 1.3q3.9 4.8 3.5 9.9l-.3 1.75q.1 3.2-.5 4.4l-.45.6q-.5.35-1.2 0l-.25-.05-.05-.15q-1.25-2.65-4.05-4.95-2.5-4.4-.6-8.9L10.25 25q.65-2.9 2.15-1.55" fill="#e16b8b"/><path d="M23.95 42.15Q19.9 45.9 14.3 45.9q-5.9 0-10.1-4.2Q0 37.5 0 31.6q0-5.5 3.7-9.55l.5-.55q4.2-4.2 10.1-4.2 5.9 0 10.1 4.2 4.2 4.2 4.2 10.1 0 5.9-4.2 10.1l-.45.45M12.4 23.45Q10.9 22.1 10.25 25L9 27.35q-1.9 4.5.6 8.9 2.8 2.3 4.05 4.95l.05.15.25.05q.7.35 1.2 0l.45-.6q.6-1.2.5-4.4l.3-1.75q.4-5.1-3.5-9.9l-.5-1.3" fill="url(#al)"/><path d="M11.25 79.25q1.85-.05 3.9-1h.45q3.75-.2 5.9 3.25 1.6 1.15.35 1.7H21l-1.85.35q-3.3.25-5.75-1.6-1.85-.8-2.45-1.45l-.25-.4q-.05-.4.35-.7l.15-.1.05-.05m9.75 3.6q2.05.2.15-1.1-1.95-3.3-4.55-3.15h-.75q-.95.05-1.8.55-.9.45-2.85.5-.7 1 2.35 1.85 1.85 1.75 5.3 1.6l2.15-.25" fill="#e77495"/><path d="m21 82.85-2.15.25q-3.45.15-5.3-1.6-3.05-.85-2.35-1.85 1.95-.05 2.85-.5.85-.5 1.8-.55h.75q2.6-.15 4.55 3.15 1.9 1.3-.15 1.1" fill="#fff"/><path d="M15.75 73.15q3.7 0 6.3 2.6 2.65 2.65 2.65 6.35 0 3.55-2.45 6.1l-.2.2q-2.6 2.65-6.3 2.65-3.7 0-6.35-2.65-2.6-2.6-2.6-6.3 0-3.7 2.6-6.35 1.4-1.4 3.15-2.05 1.5-.55 3.2-.55m-4.7 6.25q-.4.3-.35.7l.25.4q.6.65 2.45 1.45 2.45 1.85 5.75 1.6L21 83.2h.85q1.25-.55-.35-1.7-2.15-3.45-5.9-3.25h-.45q-2.05.95-3.9 1-.2-.2-.2.15" fill="url(#am)"/><path d="M69.4 145.05q-.4 1.5-.35 2.45-.55 3.7-5.5 6.2l-.6-.1q.75-1.85.4-3.8.35-1.45.2-2.35 1.3-4.2 3.3-6.2 2.05-2.15 4.8-1.9-1.65 3.45-2.25 5.7" fill="#fff"/><path d="M69.85 145.7q-.3 1.15-.45 2.2-.7 3.4-5.35 5.9-1.25.95-1.8.3 1.2-2.75.6-4.1l.15-2.45q1.35-4.5 3.6-6.65 2.3-2.3 5.6-2.15-1.65 3.7-2.35 6.95m-.45-.65q.6-2.25 2.25-5.7-2.75-.25-4.8 1.9-2 2-3.3 6.2.15.9-.2 2.35.35 1.95-.4 3.8l.6.1q4.95-2.5 5.5-6.2-.05-.95.35-2.45" fill="#e36a8b"/><path d="M76.55 138.45q3.75 3.75 3.75 9.05 0 5.1-3.45 8.75l-.3.25q-3.7 3.75-9 3.75t-9.05-3.75q-3.7-3.7-3.7-9t3.7-9.05q2.05-2 4.55-2.9 2.1-.8 4.5-.8 5.3 0 9 3.7m-6.7 7.25q.7-3.25 2.35-6.95-3.3-.15-5.6 2.15-2.25 2.15-3.6 6.65l-.15 2.45q.6 1.35-.6 4.1.55.65 1.8-.3 4.65-2.5 5.35-5.9.15-1.05.45-2.2" fill="url(#an)"/><path d="M261.55 110.55q0 4.45-3.15 7.55-3.1 3.15-7.55 3.15-4.45 0-7.6-3.15-3.1-3.1-3.1-7.55 0-4.45 3.1-7.6 3.15-3.1 7.6-3.1 4.45 0 7.55 3.1 3.15 3.15 3.15 7.6m-11.65 4.4q5.2-3.3 5.9-10.55.4-1.2.55-1.3-.15-2.05-2.7-.4-6.7 1.45-8.3 7.65.4 3.55-.55 6.35l-.05.1.1.25q.25.7.85.85l.75-.15q1.3-.45 3.45-2.8" fill="url(#ao)"/><path d="M249.3 114.45q4.65-2.25 6.05-10.25 1.45-2.95-1.55-.85-5.9 1.1-7.1 5.05-.9 1.8-.55 4.1.15 1.5-.75 4.4 1.05 1.6 3.9-2.45m.6.5q-2.15 2.35-3.45 2.8l-.75.15q-.6-.15-.85-.85l-.1-.25.05-.1q.95-2.8.55-6.35 1.6-6.2 8.3-7.65 2.55-1.65 2.7.4-.15.1-.55 1.3-.7 7.25-5.9 10.55" fill="#e36c8a"/><path d="M249.3 114.45q-2.85 4.05-3.9 2.45.9-2.9.75-4.4-.35-2.3.55-4.1 1.2-3.95 7.1-5.05 3-2.1 1.55.85-1.4 8-6.05 10.25" fill="#fff"/><path d="M202.95 127.2q-.55-1.3-.75-2.7l-.1-1.75q.05-4.65 3.4-7.9 3.3-3.25 7.95-3.2 4.65.05 7.9 3.4t3.2 8q-.05 4.65-3.4 7.9t-8 3.2q-2.85-.05-5.15-1.25-.8-2-2.35-3.6-1.3-1.3-2.7-2.1m12.5-8.55-7.75 1.05-.9.35-.8.75-.05.1-.1.05q-.95.45-1.35 1.35-.65 1.35-.1 3.8 4.1 2.35 7.4 3.55 5.15-.15 6.05-3.35 1.1-4.1 2.35-6.15.25-2.35-1.55-2.2-.05.55-3.2.7" fill="url(#ap)"/><path d="M215.45 118.65q3.15-.15 3.2-.7 1.8-.15 1.55 2.2-1.25 2.05-2.35 6.15-.9 3.2-6.05 3.35-3.3-1.2-7.4-3.55-.55-2.45.1-3.8.4-.9 1.35-1.35l.1-.05.05-.1.8-.75.9-.35 7.75-1.05m3.8 1.7q.8-2.5-.9-1.45l-6.85.6q-7.35.7-6.6 5.9 6.9 4.65 9.3 3.45 2.65-.05 5.05-8.5m-18.95 11.7q4.35 2.9 6.1 7.85 1.1 4.6-5.8 2.75-1.85 4.2-5.3.7-2.95-2.05-3.5-5.6-.15-.95.3-1.7l-.8-.95q-3.1-3.6-2.55-3.7 0-2.75 7.15-.75l4.4 1.4m-8.6 2.65.65.8q.25 5.6 4.45 8.25 2.4 2.2 3.4-1.75 3.05.85 5.45 0-1.25-9.25-10.25-10.9l-5.95-.35q-.9.25 1.85 3.1l.4.85" fill="#e36e8b"/><path d="M219.25 120.35q-2.4 8.45-5.05 8.5-2.4 1.2-9.3-3.45-.75-5.2 6.6-5.9l6.85-.6q1.7-1.05.9 1.45M191.7 134.7l-.4-.85q-2.75-2.85-1.85-3.1l5.95.35q9 1.65 10.25 10.9-2.4.85-5.45 0-1 3.95-3.4 1.75-4.2-2.65-4.45-8.25l-.65-.8" fill="#fff"/><path d="M208 132.9q.8 2 .8 4.4-.1 4.65-3.4 7.85-3.35 3.25-8 3.2-4.65-.1-7.9-3.45-2.25-2.3-2.9-5.25-.3-1.3-.25-2.7.05-4.65 3.4-7.9t8-3.15l2.7.35q1.3.3 2.5.95 1.4.8 2.7 2.1 1.55 1.6 2.35 3.6m-7.7-.85-4.4-1.4q-7.15-2-7.15.75-.55.1 2.55 3.7l.8.95q-.45.75-.3 1.7.55 3.55 3.5 5.6 3.45 3.5 5.3-.7 6.9 1.85 5.8-2.75-1.75-4.95-6.1-7.85" fill="url(#aq)"/></g><g id="r" fill-rule="evenodd"><path d="m95.65 8-.05-.05Q78.55-9 73.05 15.6q-6.75 19.1-29.2 34.45-44.3 40.9-42 78.15v.2q.3 5.25 1.6 10.5l.1.65q11.3-.85 19.75-8.35 2 10.9 8.15 16.05 6.1-1.85 11.65-5.25 20.25-12.4 33.25-45.4 5.05-13.05 8-26.45l1-4.15.3-1.15Q91.75 41.3 102 28.3l.05.05-.3.5Q94.5 40.9 89.7 55.05 83.9 80 76.2 102.2q-14.5 35.3-44.65 45.7-5.5-1.45-8.6-14.25-10.4 7.2-21.8 8.15Q-5.4 98.6 25.2 65q14.75-16.25 22.35-19.35 19.75-15.1 22.65-29.6l.1-.3q10.3-32.3 34.65 1.6l-.35 1.35-4.75-6.05-.1-.15-4.1-4.5" fill="#a33c57"/><path d="M1.85 128.2q-2.3-37.25 42-78.15Q66.3 34.7 73.05 15.6 78.55-9 95.6 7.95l.05.05Q78.1-2.25 74.85 16.2q-2.25 7.3-7.45 13.95-10.95 14.3-23.6 22.1Q7.15 86.65 1.85 128.2" fill="#9bf2cf"/><path d="M1.85 128.2q5.3-41.55 41.95-75.95 12.65-7.8 23.6-22.1 5.2-6.65 7.45-13.95Q78.1-2.25 95.65 8l4.1 4.5.1.15q2.45 8.1-2.7 14.95Q82.45 51.45 77 70.2q-14.15 47.55-46.25 66.1-6.35-4.7-7.2-9.45-9.1 9.6-20.1 12.05-1.3-5.25-1.6-10.5v-.2M85.35 66l-1 4.15q-2.95 13.4-8 26.45-13 33-33.25 45.4l-10.25 4.5q30.65-17.8 43.9-55.65 6-18.7 8.6-24.85m-50.1 35.5Q30.2 89.8 19.9 96.9q-4.75 5.2-3.4 13.5.45 7.55 7.95 16.15 8.35.55 16.15-4.45 9.1-6.5 8.35-13.75-2.7-11.6-13.7-6.85" fill="#f9accc"/><path d="M42.25 107.15q.7 5.1-2.8 9.45-2.5 3.65-12.95 8.6 11.45-1.55 16.7-8.05 3.9-4.25 3.65-10.15-2.7-6.55-9.45-4.7 3.85 1.25 4.85 4.85m-7.95-6.1.4 1.2q11.5-4.85 13.45 6.1.35 6.05-4.25 9.85-7.95 7.85-19.25 7.55l-.35-.35q-2.9-4.8-5.15-10.55-2.35-10.8 2.1-16.2 6.8-6.5 13.05 2.4" fill="#d65e81"/><path d="M42.25 107.15q-1-3.6-4.85-4.85 6.75-1.85 9.45 4.7.25 5.9-3.65 10.15-5.25 6.5-16.7 8.05 10.45-4.95 12.95-8.6 3.5-4.35 2.8-9.45" fill="#a23e58"/><path d="M24.3 125.4q-4.05-4.4-6-10.4-2-4.65-1.2-10.1.6-7.35 5.85-9.25 8.35-2.75 11.35 5.4-6.25-8.9-13.05-2.4-4.45 5.4-2.1 16.2 2.25 5.75 5.15 10.55" fill="#fd8a6f"/><path d="M35.25 101.5q11-4.75 13.7 6.85.75 7.25-8.35 13.75-7.8 5-16.15 4.45-7.5-8.6-7.95-16.15-1.35-8.3 3.4-13.5 10.3-7.1 15.35 4.6m-.95-.45q-3-8.15-11.35-5.4-5.25 1.9-5.85 9.25-.8 5.45 1.2 10.1 1.95 6 6 10.4l.35.35q11.3.3 19.25-7.55 4.6-3.8 4.25-9.85-1.95-10.95-13.45-6.1l-.4-1.2" fill="#a13d57"/><path d="m99.85 12.65 4.75 6.05-2.5 9.5-.1.1q-10.25 13-16.35 36.55l-.3 1.15q-2.6 6.15-8.6 24.85-13.25 37.85-43.9 55.65L43.1 142q-5.55 3.4-11.65 5.25-6.15-5.15-8.15-16.05-8.45 7.5-19.75 8.35l-.1-.65q11-2.45 20.1-12.05.85 4.75 7.2 9.45Q62.85 117.75 77 70.2q5.45-18.75 20.15-42.6 5.15-6.85 2.7-14.95" fill="url(#ar)"/></g><g id="s" fill-rule="evenodd"><path d="m56 9.6 1.2.05q3.9 6.15 8.25 10.6l-5.05 20.8-.3 5.35Q47.85 58.8 20.35 58.55L0 36.5l2.85-14q1.4-.65 6.7 3.75l3.95-9.1q.55-1.7 2.15-.6l8.65 3.4q2.5-7.1.7-19.65l1.4-.3q4.1 10.7 10.9 17.05 3.9-5.95 3.85-8.35-.1-2.45 12.2 5.5L56 9.6m7.9 12.25.35-1.1q-6.3-7.15-7.7-9.55-3.3 6.6-8.8 11.9l5.5 5.1-5.2 5.4-5.95-2.35 1.65-7.45Q32 17.65 26.55 3.05 28.85 19 21 29.2l5 5.7-4.25 4.8q-1.85.1-7.3-2.35l2.3-6.9q-7.4-1.45-12.8-6.5l-1.9 9.15-.6 2.9 11.7 12.7.85 1 2.75 3.2.1.1.35.4.5.65.5.6 2.25 2.75q4 .15 7.8-.05L32.5 57l5.45-.8 2.4-.5q5.5-1.3 10.4-3.55l2.4-1.2q3.45-1.8 5.05-3.5l1.25-1.95.45-4.3.05-.45.35-2.75.15-.85.35-2.4.05-.15Q62 27.75 63.9 21.85M38.1 18.8q3.4 3.25 6.8 4.75l-1.8 7L47.8 33l4.4-4.65-4.8-5.3 5.85-7.25-10.4-6-4.75 9m-13.8 3.45-9.45-4.7-4.15 9.95 6.85 2.55-2 7.1 5.8 2.1 3.6-4.25-4.65-5.25q3.4-5.25 4-7.5" fill="#a23e58"/><path d="M61 19.2q-2.05-2.15-4.05-5.2-1.85 4.75-7 9.25l4.75 5q-4.5 6-6.4 7l-.3.1-7.15-2.95q-.3-2.9 1.15-8.05-9.3-5.05-13.6-14.05l-.5-1.15q.15 5.85-.65 10.35-1.3 6.55-4.75 10.2l5.2 5.25L22 41.5l-.1.05-8-2.85-.35-.15.1-.4 1.45-6.6q-2.2-.4-5.05-1.6-2.55-1.1-5.6-2.8 0 4-1.3 7.4l-1.1-1.45 1.9-9.15q5.4 5.05 12.8 6.5l-2.3 6.9q5.45 2.45 7.3 2.35L26 34.9l-5-5.7Q28.85 19 26.55 3.05 32 17.65 43.75 23.8l-1.65 7.45 5.95 2.35 5.2-5.4-5.5-5.1q5.5-5.3 8.8-11.9 1.4 2.4 7.7 9.55l-.35 1.1L61 19.2" fill="#e78d05"/><path d="m38.1 18.8 4.75-9 10.4 6-5.85 7.25 4.8 5.3L47.8 33l-4.7-2.45 1.8-7q-3.4-1.5-6.8-4.75m-13.8 3.45q-.6 2.25-4 7.5L24.95 35l-3.6 4.25-5.8-2.1 2-7.1-6.85-2.55 4.15-9.95 9.45 4.7" fill="#974307"/><path d="m60.3 38-.35 2.75Q55.4 44.4 50.05 47q-5.1 2.4-10.95 3.9l-2.55.55-8.15 1.2-2.75-1.95-.4-.25h.3L35.9 49.2l2.6-.65q5.65-1.5 11.15-4.15 5.4-2.65 10.65-6.4" fill="#c70c7f"/><path d="m16.85 53-.1-.1-2.3-3.1 10.8.65.4.25 2.75 1.95-1.95.15q-4.6.35-9.6.2" fill="#93031c"/><path d="m2.05 33.1 1.1 1.45L5.1 37.2 5 39.1l2.8 1.7 5.95 8.05.7.95 2.3 3.1L14 49.7l-.85-1L1.45 36l.6-2.9m3.6-.05L7.1 36.7l.1.35L8.5 39l-.35-.35.3.35 2.9 3.5-5.8-3.45v-.1l1.2-1.2-1.1.2-.05-.1.05-4.8" fill="#98f2cc"/><path d="m58.35 18.8-.35-.65-.55.8-3.4 4.5-.35.45-.15.2 3.6 6.25.5.9.15.25.65-.95 3.3-4.9.15-.25-.25-.45-2.4-4.5-.9-1.65m.8 11.8-1.25 2-5.05-8.6 5.3-6.75 2.35 4.55 1.85 3.55-3.2 5.25m-47.5 3L5.8 31l-.15-.1v2.15l-.05 4.8v.1l-.05 1v.1l5.8 3.45.55.35.05-.6.2-7.6v-.85l-.4-.15-.1-.05M7.8 40.8 5 39.1l.1-1.9.05-6.85q3.45 1.2 6.25 2.6l1.3.7-.05 2.15-.3 7.8-4.55-2.8m22.9-20.35.2.15q3.3 2.75 9.3 6.1l-3.9 13.45-.15.5L32.3 37q-4.65-4.45-6.3-6.6 1.45-.95 3-4.85l1.7-5.1m.5.95-.25-.25-.25.95-.1.3-1.35 4q-1.1 2.5-2.35 4l-.15.15.4.4 6.7 6.9 1.35 1.4.75.75q1.7-7.7 3.4-12.1l.3-.85-.1-.05q-6.4-3.4-8.35-5.6" fill="#a13d59"/><path d="M3.15 34.55q1.3-3.4 1.3-7.4 3.05 1.7 5.6 2.8l1.35 3q-2.8-1.4-6.25-2.6L5.1 37.2l-1.95-2.65m10.5 3.6-.1.4.35.15 3.5 8.05 1.2 2.85-4.85-.75L7.8 40.8l4.55 2.8.3-7.8 1 2.35m13.6-18.65q.8-4.5.65-10.35l.5 1.15 2.45 10.15h-.15l-1.7 5.1-1.75-6.05m13.1 36.2-2.4.5-1.3-4.35 2.55-.55 1.15 4.4m-5.05-8.55L32.3 37l3.85 3.65.15-.5 1.7 6.4-2.7.6" fill="#ffc420"/><path d="m60.45 37.15-.15.85q-5.25 3.75-10.65 6.4-5.5 2.65-11.15 4.15l-2.6.65-10.35 1.25h-.3l-.9-.5h1l10.4-1.15 2.65-.65q5.65-1.5 11.2-4.25 5.5-2.75 10.85-6.75m-.5 3.6-.05.45-1.95 1.55Q54.4 45.5 50.1 47.5q-4.95 2.35-10.9 3.8l-2.55.55L28.8 53l-.4-.35 8.15-1.2 2.55-.55q5.85-1.5 10.95-3.9 5.35-2.6 9.9-6.25" fill="#a43d5a"/><path d="M10.05 29.95q2.85 1.2 5.05 1.6l-1.45 6.6-1-2.35.05-2.15-1.3-.7-1.35-3m3.85 8.75 8 2.85h.1l2.65 6.7L21 48.2l-3.6-1.45-3.5-8.05" fill="#f4c949"/><path d="m18.6 49.6-1.2-2.85L21 48.2q1.75.85 3.35 1.75l-5.75-.35" fill="#ef9a19"/><path d="m17.2 53.4-.35-.4q5 .15 9.6-.2l1.95-.15.4.35-2.2.15-9.4.25m1.4-3.8 5.75.35.9.5-10.8-.65-.7-.95 4.85.75" fill="#b14543"/><path d="m22 41.5 5.7-6.55-5.2-5.25q3.45-3.65 4.75-10.2L29 25.55q-1.55 3.9-3 4.85 1.65 2.15 6.3 6.6l3 10.15q-5.25 1.05-10.65 1.1L22 41.55v-.05" fill="#f59407"/><path d="m32.5 57-4.25.35-1.65-4.2 2.2-.15q2.3 1.9 3.7 4" fill="#ef6703"/><path d="M28.25 57.35q-3.8.2-7.8.05l-2.25-2.75-.5-.6-.5-.65 9.4-.25 1.65 4.2" fill="#eb7d0e"/><path d="m37.95 56.2-5.45.8q-1.4-2.1-3.7-4l7.85-1.15 1.3 4.35" fill="#f48d02"/><path d="M5.95 31.6 5.8 31l5.85 2.6.05.05q-2.5.95-4.05 2.75l-1.7-4.8m6.15 3Q8.8 35.65 7.85 37l-.2-.6q2.25-1.7 4.3-2.2l.2-.05v.45h-.05" fill="#f9b6b0"/><path d="m5.95 31.6 1.7 4.8.2.6q.95-1.35 4.25-2.4l.05.05-.2 7.6L8.5 39l-1.3-1.95-.1-.35-1.15-5.1" fill="#970661"/><path d="M55.5 23.4q1.75.05 3.2.8l-3.55-.2-1.45-.1.35-.45 1.45-.05m3.8.55-.95-5.15.9 1.65.1 3.5h-.05m2.35 1 .25.45-.15.25-1.7-1.05v-.05l.9.2.7.2m-3.2 5.6-.65.95-.15-.25 1.5-5.65-.7 4.95M5.8 31l.15.6 1.15 5.1-1.45-3.65V30.9l.15.1m1.85 5.4q1.55-1.8 4.05-2.75h.05l.4.15v.35l-.2.05q-2.05.5-4.3 2.2M5.6 37.95h.05l1.1-.2-1.2 1.2.05-1m5.75 4.55L8.45 39h.05l3.45 3.25-.05.6-.55-.35M30.7 22.1l.25-.95.25.25 1.55 7.05-2.05-6.35m8.85 4.9.1.05-.3.85L34 30.6q-.25-.45 5.55-3.6m-3.6 13-.75-.75-1.7-7.15 2.45 7.9m-8.8-9.05-.4-.4.15-.15 1.7.05 4.5.15.1.4h-.05l-4.4-.1-1.6.05" fill="#a13f58"/><path d="m59.9 41.2-.45 4.3-1.25 1.95-.25-4.7 1.95-1.55" fill="#f4ee80"/><path d="m57.45 18.95.55-.8.35.65.95 5.15.05.25h-.65q-1.45-.75-3.2-.8l1.95-4.45M30.6 22.4l.1-.3 2.05 6.35.35 2.15-4.5-.15 2-8.05" fill="#bb0461"/><path d="M57.45 18.95 55.5 23.4l-1.45.05 3.4-4.5m-.3 11.4-3.6-6.25.15-.2 1.45.1 2 6.35" fill="#9df3ce"/><path d="m33.85 37.85-6.7-6.9 1.6-.05 5.1 6.95M26.9 30.4q1.25-1.5 2.35-4l1.35-4-2 8.05-1.7-.05" fill="#9bf1cc"/><path d="M58.7 24.2h.65l-.2 1.4-1.5 5.65-.5-.9-2-6.35 3.55.2M35.2 39.25l-1.35-1.4-5.1-6.95 4.4.1v.05l.35 1.05 1.7 7.15" fill="#d36ff6"/><path d="m59.25 20.45 2.4 4.5-.7-.2-.85-.4-.3-.15-.45-.25-.1-3.5m-28.05.95q1.95 2.2 8.35 5.6-5.8 3.15-5.55 3.6l-.8.4-.1-.4-.35-2.15-1.55-7.05" fill="#e5999d"/><path d="m61.75 25.65-3.3 4.9.7-4.95.2-1.4h.45l.3.15-.05.2-.25-.1.25.15 1.7 1.05m-22.4 2.25q-1.7 4.4-3.4 12.1l-2.45-7.9-.35-1.05.05-.05.8-.4 5.35-2.7" fill="#980965"/><path d="m48.3 35.25 1.05 7.1q-5.55 2.7-11.35 4.2l-1.7-6.4 3.9-13.45q-6-3.35-9.3-6.1l-.05-.15L28.4 10.3q4.3 9 13.6 14.05-1.45 5.15-1.15 8.05L48 35.35l.3-.1" fill="url(#as)"/><path d="M50.75 52.15q-4.9 2.25-10.4 3.55l-1.15-4.4q5.95-1.45 10.9-3.8l.65 4.65" fill="url(#at)"/><path d="m60.5 21.8-2.35-4.55-5.3 6.75 5.05 8.6 1.25-2-.3 2.25q-.35 3.2-.15 4.05-4.6 3.15-9.35 5.45l-1.05-7.1q1.9-1 6.4-7l-4.75-5q5.15-4.5 7-9.25 2 3.05 4.05 5.2l-.5 2.6" fill="url(#au)"/><path d="M58.2 47.45q-1.6 1.7-5.05 3.5l-2.4 1.2-.65-4.65q4.3-2 7.85-4.75l.25 4.7" fill="url(#av)"/><path d="m60.5 21.8.5-2.6 2.9 2.65q-1.9 5.9-3.05 12.75l-2-1.75.3-2.25 3.2-5.25-1.85-3.55" fill="#f8c747"/><path d="M49.35 42.35q4.75-2.3 9.35-5.45-.2-.85.15-4.05l2 1.75-.05.15-.35 2.4q-5.35 4-10.85 6.75-5.55 2.75-11.2 4.25l-2.65.65-10.4 1.15h-1q-1.6-.9-3.35-1.75l3.65.05q5.4-.05 10.65-1.1l2.7-.6q5.8-1.5 11.35-4.2" fill="#f6e360"/></g><linearGradient gradientTransform="matrix(.0568 0 0 .0333 46.5 43.45)" gradientUnits="userSpaceOnUse" id="K" spreadMethod="pad" x1="-819.2" x2="819.2"><stop offset="0" stop-color="#fff" stop-opacity="0"/><stop offset=".431" stop-color="#ff89bb" stop-opacity=".561"/></linearGradient><linearGradient gradientTransform="matrix(.1154 0 0 .045 93.05 35.35)" gradientUnits="userSpaceOnUse" id="L" spreadMethod="pad" x1="-819.2" x2="819.2"><stop offset="0" stop-color="#dbc6c1"/><stop offset=".992" stop-color="#bdc2fc"/></linearGradient><linearGradient gradientTransform="matrix(.0461 0 0 .0734 39.4 64.25)" gradientUnits="userSpaceOnUse" id="U" spreadMethod="pad" x1="-819.2" x2="819.2"><stop offset="0" stop-color="#fabcb0"/><stop offset=".486" stop-color="#fab9bf"/><stop offset="1" stop-color="#fbbeac"/></linearGradient><linearGradient gradientTransform="matrix(.0226 0 0 .0356 58.75 31.85)" gradientUnits="userSpaceOnUse" id="V" spreadMethod="pad" x1="-819.2" x2="819.2"><stop offset="0" stop-color="#fab6c1"/><stop offset="1" stop-color="#fdd1b4"/></linearGradient><linearGradient gradientTransform="matrix(.0202 0 0 .0358 59.2 50.9)" gradientUnits="userSpaceOnUse" id="aa" spreadMethod="pad" x1="-819.2" x2="819.2"><stop offset="0" stop-color="#dbc6c1"/><stop offset=".992" stop-color="#bdc2fc"/></linearGradient><linearGradient gradientTransform="matrix(.0298 0 0 .0096 25.55 27.5)" gradientUnits="userSpaceOnUse" id="ab" spreadMethod="pad" x1="-819.2" x2="819.2"><stop offset="0" stop-color="#c1b4f9"/><stop offset=".769" stop-color="#bac5fb"/></linearGradient><linearGradient gradientTransform="matrix(.0196 0 0 .0022 30.2 41.7)" gradientUnits="userSpaceOnUse" id="ac" spreadMethod="pad" x1="-819.2" x2="819.2"><stop offset="0" stop-color="#c1b4f9"/><stop offset=".769" stop-color="#bac5fb"/></linearGradient><linearGradient gradientTransform="matrix(.0189 0 0 .0032 41.15 52.05)" gradientUnits="userSpaceOnUse" id="ad" spreadMethod="pad" x1="-819.2" x2="819.2"><stop offset="0" stop-color="#c5b1f9"/><stop offset=".769" stop-color="#bec0fb"/></linearGradient><linearGradient gradientTransform="matrix(.0105 0 0 .008 53.5 61.45)" gradientUnits="userSpaceOnUse" id="ae" spreadMethod="pad" x1="-819.2" x2="819.2"><stop offset="0" stop-color="#c5b1f9"/><stop offset=".769" stop-color="#bec0fb"/></linearGradient><linearGradient gradientTransform="matrix(.0617 0 0 .0822 54 79.95)" gradientUnits="userSpaceOnUse" id="ar" spreadMethod="pad" x1="-819.2" x2="819.2"><stop offset="0" stop-color="#e46b8a"/><stop offset="1" stop-color="#e36a89"/></linearGradient><linearGradient gradientTransform="matrix(.0128 0 0 .0221 38.85 28.4)" gradientUnits="userSpaceOnUse" id="as" spreadMethod="pad" x1="-819.2" x2="819.2"><stop offset="0" stop-color="#f2f58a"/><stop offset="1" stop-color="#fec726"/></linearGradient><linearGradient gradientTransform="matrix(.007 0 0 .005 44.95 51.6)" gradientUnits="userSpaceOnUse" id="at" spreadMethod="pad" x1="-819.2" x2="819.2"><stop offset="0" stop-color="#f2f58a"/><stop offset="1" stop-color="#fec726"/></linearGradient><linearGradient gradientTransform="matrix(.0078 0 0 .0173 54.65 28.15)" gradientUnits="userSpaceOnUse" id="au" spreadMethod="pad" x1="-819.2" x2="819.2"><stop offset="0" stop-color="#ffc420"/><stop offset="1" stop-color="#ffa103"/></linearGradient><linearGradient gradientTransform="matrix(.0049 0 0 .0057 54.15 47.45)" gradientUnits="userSpaceOnUse" id="av" spreadMethod="pad" x1="-819.2" x2="819.2"><stop offset="0" stop-color="#ffc420"/><stop offset="1" stop-color="#ffa103"/></linearGradient><path d="M27.65-.5q0 1.7-8.35 2.85L-.7 3.6l-20.05-1.25Q-29 1.2-29-.5q0-1.75 8.25-2.95L-.7-4.65l20 1.2q8.35 1.2 8.35 2.95" fill-opacity=".349" fill-rule="evenodd" transform="translate(29 4.65)" id="t"/></defs></svg>