<svg xmlns:ffdec="https://www.free-decompiler.com/flash" xmlns:xlink="http://www.w3.org/1999/xlink" ffdec:objectType="frame" height="90" width="90" xmlns="http://www.w3.org/2000/svg"><use ffdec:characterId="28" height="212.35" transform="translate(.84) scale(.4196)" width="201.45" xlink:href="#a"/><defs><g id="a" transform="translate(-2)"><use ffdec:characterId="1" height="8.35" transform="matrix(2.3539 0 0 4.4348 45.093 175.337)" width="55.5" xlink:href="#b"/><use ffdec:characterId="3" height="118.6" transform="translate(118.95 132.4) scale(.6072)" width="93.85" xlink:href="#c"/><use ffdec:characterId="5" height="125.5" transform="translate(103.3) scale(.6072)" width="122.05" xlink:href="#d"/><use ffdec:characterId="7" height="128.4" transform="translate(5.9 43) scale(.6072)" width="134.65" xlink:href="#e"/><use ffdec:characterId="9" height="102.75" transform="translate(45.6 130.15) scale(.6072)" width="86.3" xlink:href="#f"/><use ffdec:characterId="11" height="149.65" transform="translate(50.75 69.55) scale(.6072)" width="187.6" xlink:href="#g"/><use ffdec:characterId="13" height="39.3" transform="translate(67.45 61.9) scale(1.0318)" width="23.85" xlink:href="#h"/><use ffdec:characterId="15" height="81.4" transform="translate(75.2 65.9) scale(.6072)" width="99.1" xlink:href="#i"/><use ffdec:characterId="17" height="115.4" transform="translate(26.35 111.95) scale(.6072)" width="226.4" xlink:href="#j"/><use ffdec:characterId="21" height="115.35" transform="translate(121.8 56.55) scale(1.0318)" width="72.1" xlink:href="#k"/><use ffdec:characterId="27" height="126.25" transform="translate(74.6 24.65) scale(.6072)" width="110.3" xlink:href="#l"/></g><g id="o" fill-rule="evenodd"><path d="m20.6 96.95-3.2-3.9 2.15-2.85-6.75-2.8Q10.8 62.6 0 39.75l.85-3.25q16.55-61.9 63-18.8l1.55 1.45L77.5 60.7l11.7 13.9-2.15 2.45 5 3.55-3.2 8.9-2.6-1.55q-2.1-1.25-4.2-2.35H82l-4.4-2.1q-7.6-3.35-14.75-4.55Q50 76.85 38.4 81.7L27.7 95.55l-3.55.7-3.55.7M58.5 68.8q3.15-.15 6.35.1-12 1.3-20.8 7.1 3.85-.9 7.5-1.25 13.25-1.4 23.6 3.9Q79.3 80.8 83 84l4.95-1.05L83 77.8l-1.1 2.85-2.1-9.6-4.8-5.9-3.4 5.55-5.5-14.25-5.85-1.95q-22 11.85-43.55 8.9v4.25q8 2.95 11.35 7.65-13.5 6.15 0 9.25 8.2-1.8 11.95-9.1l-6.6 1.1 8.55-10.3-8.9 1.4q10.3-5.95 20.6-6.6-3.15 1.6-6.15 3.65-5.85 4-11.1 9.7 11.05-5.1 22.1-5.6" fill="#131720"/><path d="M58.5 68.8q-5.3-1.8-13.9 1l2.9-5.1q3-2.05 6.15-3.65-10.3.65-20.6 6.6l8.9-1.4-8.55 10.3 6.6-1.1q-3.75 7.3-11.95 9.1-13.5-3.1 0-9.25-3.35-4.7-11.35-7.65V63.4q21.55 2.95 43.55-8.9l5.85 1.95 5.5 14.25 3.4-5.55 4.8 5.9 2.1 9.6L83 77.8l4.95 5.15L83 84q-3.7-3.2-7.85-5.35L68.6 71.2q-9.65-.65-17.05 3.55-3.65.35-7.5 1.25 8.8-5.8 20.8-7.1-3.2-.25-6.35-.1M31.95 80.1q.65-4.3 4.1-10.3l-8.15 9.25 4.05 1.05" fill="#273140"/><path d="m47.5 64.7-2.9 5.1q8.6-2.8 13.9-1-11.05.5-22.1 5.6 5.25-5.7 11.1-9.7m4.05 10.05q7.4-4.2 17.05-3.55l6.55 7.45q-10.35-5.3-23.6-3.9m-19.6 5.35-4.05-1.05 8.15-9.25q-3.45 6-4.1 10.3" fill="#344661"/><path d="m20.6 96.95 3.55-.7 6.75 5.35 2.85-10.7 2.15-1.1q21.2-11.05 41.7-6.3l4.4 2.1q-9.6-1.65-18.15-1.25l-3.95.25q-14.35 1.45-25.45 8.8l-1.75 11.05-1.75-1.1-6.85-4.2-3.5-2.2M82.05 85.6q2.1 1.1 4.2 2.35l2.6 1.55q3 6.15 4.2 11.4l-3.7 1.35q-1.1-8.35-7.3-16.65" fill="#8e4932"/><path d="m59.9 84.6 3.95-.25q15.65 2.35 15.2 19.2l-5.5 2.9q-17.65 3.3-33.75-.15l-.6-.15q-4.15-1.1-2.45-6.85 2.4 3.65 4.8 0 2.55-2.75 0-5.5l3.2-2.15q.05 6.45 8.2 4.8 10.55-3.15 7.3-8.9h4.95l-5.3-2.95" fill="#c3824d"/><path d="M62.85 78.95Q70 80.15 77.6 83.5q-20.5-4.75-41.7 6.3 10.55-10.05 26.95-10.85" fill="#b67648"/><path d="m24.15 96.25 3.55-.7L38.4 81.7q11.6-4.85 24.45-2.75-16.4.8-26.95 10.85l-2.15 1.1-2.85 10.7-6.75-5.35" fill="#ab5738"/><path d="M82 85.6h.05q6.2 8.3 7.3 16.65-8.05 2.75-15.8 4.2l5.5-2.9q.45-16.85-15.2-19.2 8.55-.4 18.15 1.25" fill="#ae6a40"/><path d="M93.05 100.9q.7 3 .8 5.65-28.8 20.05-64.35 6.75v-3.9l-8.9-5.3v-7.15l3.5 2.2v4.2l6.1 4.3.75-4.3 1.75 1.1 6.5 1.7.6.15q16.1 3.45 33.75.15 7.75-1.45 15.8-4.2l3.7-1.35m-60.35 8.15v1.45q28.85 9.1 56.85-4.65l-.1-2.55q-5.7 1.95-11.15 3.3-25 6.15-45.6 0v2.45" fill="#c49e77"/><path d="m24.1 99.15 6.85 4.2-.75 4.3-6.1-4.3v-4.2m54.2 7.45q5.45-1.35 11.15-3.3l.1 2.55q-28 13.75-56.85 4.65v-1.45q28.15 7.25 45.6-2.45" fill="#debd9b"/><path d="m32.7 104.45 1.75-11.05q11.1-7.35 25.45-8.8l5.3 2.95h-4.95q3.25 5.75-7.3 8.9-8.15 1.65-8.2-4.8l-3.2 2.15q2.55 2.75 0 5.5-2.4 3.65-4.8 0-1.7 5.75 2.45 6.85l-6.5-1.7" fill="#dfb26c"/><path d="M78.3 106.6q-17.45 9.7-45.6 2.45v-2.45q20.6 6.15 45.6 0" fill="#fff0cb"/></g><g id="p" fill-rule="evenodd"><path d="m41.75 14.05-5.1 1.65 1.9-10.9q-19.45 6.45-27.2 24.6l-6.3-4.1-.4 2.05q-1.1 6 .25 12.2 1.45 6.95 5.95 14.2l22.2 51.75-3.4.6-22.2-51.6q-13.9-19.95-1.9-37.15L8.9 24.6Q17.15 5.8 39.3 0l3.35 9.15q32.15-6.45 41 14L71.1 26.5q34.85 24.3 13.5 70.4l-2.25.4q15.75-45.4-10.7-65.4-3.7-2.8-8.25-5.15l1.75-.55 13.45-4.5q-2.45-2.7-5.25-4.65-6.3-4.35-14.55-5-7.7-.65-17.05 2M17.7 30.2q1-1.5 2.3-2.7l4.35 5.75q7.95-5.65 18.8-3.35l-1.45 4.35q3.75.8 6.9 2.8 4.5 2.85 7.7 8l2.75 5.6L54 52.3q2.1 18.45-13.25 28.45 8.25-7.35 10.8-16.2 1.8-6.2.75-13.2l4.35-1.7Q51.7 36.9 39.55 35.2l.95-3.85q-10-1.55-14.7 4.1-3.95-.6-6.25-4.35-2.75 5.4-3.6 10.9-.95 6.1.3 12.35-3.8-16.1 1.45-24.15" fill="#7a3d25"/><path d="m38.55 4.8-1.9 10.9 5.1-1.65-4.15 5.5-8.9 3.35 9.85-18.1m34.8 12.25q2.8 1.95 5.25 4.65l-13.05-3.35 1.2 3.35h-5.5l3.9 4.5-1.75.55q4.55 2.35 8.25 5.15l5 15.1-6.75-3.6V54l-7-12.05.65 11.55-7.25-8.45q-3.2-5.15-7.7-8l8.05 4.2-10.35-11.6 13.75 1.95-3.15-5.1h5.3l-11.35-6.95q2.6-1.55 5.3-2.45 8.15-2.75 17.2-.05m-68.7 10.3.4-2.05 6.3 4.1.7 4.1-6.2-5.15-1.2-1" fill="#a5563a"/><path d="M41.75 14.05q9.35-2.65 17.05-2l-12.5 2.2L35.45 24.6H27l-2.65 5.55 9.9-2.9q3.65-3.7 4.1 0l7.95-4.1q-1.1-6.05 9.85-6.05-2.7.9-5.3 2.45L62.2 26.5h-5.3l3.15 5.1-13.75-1.95 10.35 11.6-8.05-4.2q-3.15-2-6.9-2.8l1.45-4.35q-10.85-2.3-18.8 3.35L20 27.5q-1.3 1.2-2.3 2.7l-5.9 7.65L7.45 41l-1.6-1.75L9.4 38.1l-3.55-9.75 6.2 5.15-.7-4.1q7.75-18.15 27.2-24.6L28.7 22.9l8.9-3.35 4.15-5.5m-26.3 13.9q7.75-5.45 7-.7l13-18.55q-15.95 6.5-20 19.25" fill="#ce8652"/><path d="M58.8 12.05q8.25.65 14.55 5-9.05-2.7-17.2.05-10.95 0-9.85 6.05l-7.95 4.1q-.45-3.7-4.1 0l-9.9 2.9L27 24.6h8.45L46.3 14.25l12.5-2.2M4.9 39.55q-1.35-6.2-.25-12.2l1.2 1L9.4 38.1l-3.55 1.15-.95.3m10.55-11.6q4.05-12.75 20-19.25l-13 18.55q.75-4.75-7 .7" fill="#f2c281"/><path d="m78.6 21.7-13.45 4.5-3.9-4.5h5.5l-1.2-3.35L78.6 21.7" fill="#7f3924"/><path d="M71.65 31.9q26.45 20 10.7 65.4l-49.3 8.2-22.2-51.75q-4.5-7.25-5.95-14.2l.95-.3L7.45 41l4.35-3.15 5.9-7.65q-5.25 8.05-1.45 24.15l.4 1.6L21 41.45l6.25 2.45 3.85-5.35 1.2 6.55h15.9l-1.9 4.8q6.25 5.5 5.25 14.65-2.55 8.85-10.8 16.2Q56.1 70.75 54 52.3l5.05-1.65-2.75-5.6 7.25 8.45-.65-11.55 7 12.05V43.4l6.75 3.6-5-15.1" fill="#814b23"/><path d="m56.65 49.65-4.35 1.7q1.05 7-.75 13.2 1-9.15-5.25-14.65l1.9-4.8H32.3l-1.2-6.55-3.85 5.35L21 41.45l-4.35 14.5-.4-1.6Q15 48.1 15.95 42h3.1v-5.6l6.5 3.85 9.9-5.75v6.25q12.5-.95 21.2 8.9" fill="#92552d"/><path d="M15.95 42q.85-5.5 3.6-10.9 2.3 3.75 6.25 4.35 4.7-5.65 14.7-4.1l-.95 3.85q12.15 1.7 17.1 14.45-8.7-9.85-21.2-8.9V34.5l-9.9 5.75-6.5-3.85V42h-3.1" fill="#cd8551"/><path d="M85 42.9q1.05-.6 2.2-1.1 8.6 5.25 2 10.55l-7.1 3.85-19.4 10.6Q69.55 56.15 85 42.9m-9.3 31.35q3.8 5.1 11.35 4.6-10.6 6.1-15.2 1.2-.8-3.1 3.85-5.8m35.3 7.7q-1.65 3.1-4.45 6.05-9.05 5.4-7.45-1.45 12.55-17.65-7.25-11.35-8.2 1.7-12.55-3.6l8.95-5.05L107.5 55.7q9.95 14.3 3.5 26.25" fill="#ffb290"/><path d="M87.2 41.8q-1.15.5-2.2 1.1-15 7.9-26.05 24.4-10.3 15.35-17.2 38.1l-.75-1Q55.5 49 94.75 35.45q5.75 8.7 6 17.35l8.7-5.3q23.8 31.6 2.65 60.75-37.15 32-64.05 4.6 6.65 5.15 13.2 7.8 1.85-18.75 20.7-31.8 5.95-4.05 13.5-7.6Q67.1 97.45 64 121.65q20.3 6.5 39.4-11.45 17.45-16.55 13.5-37-1.9-9.95-8.9-20.85Q95.85 57.4 85.95 63.2q-14.5 8.45-24.15 18.35-12.45 12.8-16.75 28l-.9-1.05q4.1-12.4 10.9-22.2Q69.9 64.9 97.4 55.7q.2-4.1-.7-7.65-1.15-4.7-4.1-8.5-2.8 1-5.4 2.25" fill="#8a142c"/><path d="M96.7 48.05q.9 3.55.7 7.65-27.5 9.2-42.35 30.6 3.3-8.45 9.8-14.95 7.4-7.4 18.95-12.25 1.8-.75 3.7-1.45l9.2-9.6" fill="#bf172c"/><path d="m82.1 56.2 7.1-3.85q6.6-5.3-2-10.55 2.6-1.25 5.4-2.25 2.95 3.8 4.1 8.5l-9.2 9.6q-1.9.7-3.7 1.45l-1.7-2.9" fill="#f2aa68"/><path d="M85 42.9Q69.55 56.15 62.7 66.8l19.4-10.6 1.7 2.9q-11.55 4.85-18.95 12.25-6.35 2.9-5.9-4.05Q70 50.8 85 42.9" fill="#fa1c1a"/><path d="M85.95 63.2q9.9-5.8 22.05-10.85 7 10.9 8.9 20.85-.4 5.3-1.4 9.45l-4.5-.7q6.45-11.95-3.5-26.25L88.25 66.55l-2.3-3.35" fill="#f2a264"/><path d="M61.8 81.55q9.65-9.9 24.15-18.35l2.3 3.35-8.95 5.05q4.35 5.3 12.55 3.6 19.8-6.3 7.25 11.35-1.6 6.85 7.45 1.45 2.8-2.95 4.45-6.05l4.5.7q-2.8 11.85-10.15 15-17.95 5.2-21.2-3.65l11.3-12.75q-7.55 3.55-13.5 7.6-21.8 4.45-20.15-7.3m13.9-7.3q-4.65 2.7-3.85 5.8 4.6 4.9 15.2-1.2-7.55.5-11.35-4.6" fill="#f74a34"/><path d="M55.05 86.3q-6.8 9.8-10.9 22.2l-2.4-3.1q6.9-22.75 17.2-38.1-.45 6.95 5.9 4.05-6.5 6.5-9.8 14.95" fill="#fa1315"/><path d="M45.05 109.55q4.3-15.2 16.75-28-1.65 11.75 20.15 7.3-18.85 13.05-20.7 31.8-6.55-2.65-13.2-7.8l-3-3.3" fill="#a41f43"/><path d="M116.9 73.2q3.95 20.45-13.5 37-19.1 17.95-39.4 11.45 3.1-24.2 31.45-40.4L84.15 94q3.25 8.85 21.2 3.65 7.35-3.15 10.15-15 1-4.15 1.4-9.45" fill="#ab1c3c"/></g><g id="q" fill-rule="evenodd"><path d="M119.7 4.35h8.7l6.25 7.9-14.7-2.35q.45-2.5-.25-5.55" fill="#7a3d25"/><path d="M119.95 9.9q-1.55 8.2-15.65 10.05h-7.75q-53.7 22.7-84.35 59.8-15.8 6-11.1-10.15 27.85-34.3 68.45-53.4 11.75-5.5 24.6-9.75 11.5-9.2 24.6-5.3l.95 3.2q.7 3.05.25 5.55M6.65 73.5l2.65 2.85q31.4-36 87.75-60.75l4.35 1.95q16.75-2.95 16.35-10.6-.7-2.2-2.9-2.8-4.75-1.4-16.5 4.85l-2.25 1.25-1 .55Q36.4 31.75 4 70.6l2.65 2.9" fill="#a3725a"/><path d="M114.85 4.15q2.2.6 2.9 2.8.4 7.65-16.35 10.6l-4.35-1.95Q40.7 40.35 9.3 76.35L6.65 73.5q41.7-45.25 89.45-59.3v-3.95L98.35 9l1.6 3.75 13.5-3.15 1.4-5.45" fill="#a88368"/><path d="m114.85 4.15-1.4 5.45-13.5 3.15L98.35 9q11.75-6.25 16.5-4.85m-18.75 6.1v3.95Q48.35 28.25 6.65 73.5L4 70.6q32.4-38.85 91.1-59.8l1-.55" fill="#b8a179"/><path d="m108.85 67.2 18.55 39.55-.95 3.8L107.1 70.2l1.75-3m-8.95 60.5-2.85-.7Q81.7 106.5 61.6 101.45l6.55-1.65q8.95 3.45 16.25 9.5 8.95 7.3 15.5 18.4" fill="#7a3d25"/><path d="M32.1 69.85q-18.75-15.2-13.4-37.6 12.55-14.6 30.6-21.95l5.3 1.2 1.7-4.05L67.15 3.1q11.55 2.15 14 10.6L91 19l4.5 15.9-4.05-1.85-2.6-13.35-3.1-1.3-3.8-1.65-3.7-1.6q-8.6 2.15-15.8 9.05l-1.1 1.05 2.15 5.7 1.2 3.25q-5.3 6.8-10.6 8.4l.9 1.05q3.95 4.05 11.4 3.8l8-14-2.8 11.05-2 7.8-2.5-.6-.7-2.55q-4.25.7-7.45 0-6.9-1.65-8.6-10.2-.7-3.4-.55-7.9 9.45-4.6 13.7-11.8l13.75-5.3-1.65-3.15-8.45-4.35-7.95 4.1V19l-3.15-4.35H50q-14.05 6.25-27.2 18.1L21.1 45.5l-.25 1.7q1.6 6.65 4.8 11.3Q29.7 64.3 36.2 67l-.15 1.2-3.95 1.65M43.5 56.1l.9-1.05 1.05 2.5-4.5 4.65-2.65-1 5.2-5.1m8.45-19.4.5 3.25L62.8 33.2l-3.15-6.75-1.4.9-7 4.4.7 4.95" fill="#ad705e"/><path d="M59.2 14.8v-4.25l7.95-4.1 8.45 4.35h-9.2l-7.2 4m3.25 9.4q7.2-6.9 15.8-9.05l3.7 1.6-18.5 10-1-2.55M50.8 14.65l4.5 5.55L37 28.15v6.5l-3.35-5.55-8.95 7.5-3.6 8.9 1.7-12.75Q35.95 20.9 50 14.65h.8" fill="#e9e6d8"/><path d="m75.6 10.8 1.65 3.15-13.75 5.3q-4.25 7.2-13.7 11.8-.15 4.5.55 7.9l-7.8 2.45 1.25 8.1-6.05-10 6.65 15.55-.9 1.05-4.35-11.3q-10.9 3.45-13.5 13.7-3.2-4.65-4.8-11.3l.25-1.7 3.6-8.9 8.95-7.5L37 34.65v-6.5l18.3-7.95-4.5-5.55h5.25L59.2 19v-4.2l7.2-4h9.2m-4 33.7 2.8-11.05q1.25-5.05-4.6-7.2l1.45 7.95-11.6 9.45H55l-.9-1.05q5.3-1.6 10.6-8.4l-1.2-3.25 2.9 3.25-2.95-7.45 18.5-10 3.8 1.65V26l-8.7 4.55L78.7 32q-2.8 10.7-7.1 12.5" fill="#e7d9b7"/><path d="m63.5 30.95-2.15-5.7 1.1-1.05 1 2.55 2.95 7.45-2.9-3.25" fill="#cca98b"/><path d="m58.25 27.35 1.4-.9 3.15 6.75-10.35 6.75-.5-3.25 7.45-4.45-1.15-4.9" fill="#caaa9d"/><path d="m51.95 36.7-.7-4.95 7-4.4 1.15 4.9-7.45 4.45" fill="#e7d0b9"/><path d="m69.6 52.3 2-7.8q4.3-1.8 7.1-12.5l-1.65-1.45 8.7-4.55v-7.6l3.1 1.3 2.6 13.35-1.15-.55-7.25 11.3-5.3-2.65-4.1 12.05-4.05-.9" fill="#c39b82"/><path d="m74.4 33.45-8 14q-7.45.25-11.4-3.8h4.65l11.6-9.45-1.45-7.95q5.85 2.15 4.6 7.2M25.65 58.5q2.6-10.25 13.5-13.7l4.35 11.3-5.2 5.1-1.3-.5-.8 6.3q-6.5-2.7-10.55-8.5" fill="#c7a087"/><path d="m35.9 74.15-3-1.4 6.3-1.45-1-7.7 10.85 4.35 2.9-8.45 8.95 2.65L63.75 53l11.1 1.9 3.6-10.85 5.6 1.7L90.8 34.9l4.1 5.3 5.75-2.65-2.9 7.7 4.85-1.2-1.1 2.25-.45.9-.15-.95q-.7 4.65-1.75 7.15-5.45.05-9.6-4.75l2.2 5.8-6.05 1.65 1.45 2.2h-3.1q-7.8 8.5-15 6l-4.8 8.2-2.4-1.7-5.8 8.2-3.6-.95.85 3L47.6 80l-6.25 5.3 2.9-7.25.25-3.9h-8.6" fill="#c3cee3"/><path d="m49 86.3-9.35 3.1-1.2-9.15-10.35-8.7 4-1.7 3.95-1.65.15-1.2.8-6.3 1.3.5 2.65 1 3.95 1.6 3.2 1.25 2.4-5.45 1.2-2.75 1.8.7 5.95 2.4.45-1.4 2.4-8 4.8 1.15 2.5.6 4.05.9 4.1-12.05 5.3 2.65 7.25-11.3 1.15.55 4.05 1.85 1.05.5 8.7-1.2-1.7 6.75 4.8 1.65-4.3 9.75-1-3-1.55-3.05 1.1-2.25-4.85 1.2 2.9-7.7-5.75 2.65-4.1-5.3-6.75 10.85-5.6-1.7-3.6 10.85-11.1-1.9-2.85 9.15-8.95-2.65-2.9 8.45L38.2 63.6l1 7.7-6.3 1.45 3 1.4 8.35 3.9-2.9 7.25 7.25-2.45 2.75.6 2.8.6 6.5-8.65-2.05 4.55-.85 1.95-1 2.2-1.15 2.65-2.9-1.7-1.15.4-2.55.85m50.15-32.9q1.05-2.5 1.75-7.15l.15.95q.55 3.85 0 6.65-.3 1.65-1 2.9l-1.1 1.55-4.05-.75-1.7-.3-2.4-.4 6.95-1.2q.8-.75 1.4-2.25" fill="#858fb0"/><path d="M50.35 38.95q1.7 8.55 8.6 10.2l-11.6 6.25-3.55-5.9-1.25-8.1 7.8-2.45" fill="#c59e85"/><path d="M58.95 49.15q3.2.7 7.45 0l.7 2.55-4.8-1.15-2.4 8-1.2-4.1-5.2 3.1-1.8-.7-1.2 2.75h-3.15l-2.45 4.2-3.95-1.6 4.5-4.65-1.05-2.5-6.65-15.55 6.05 10 3.55 5.9 11.6-6.25" fill="#8a6152"/><path d="M35.9 74.15h8.6l-.25 3.9-8.35-3.9m17.4 6.9-.85-3 3.6.95 5.8-8.2 2.4 1.7 4.8-8.2q7.2 2.5 15-6h3.1l-1.45-2.2 6.05-1.65-2.2-5.8q4.15 4.8 9.6 4.75-.6 1.5-1.4 2.25l-6.95 1.2 2.4.4q-15.9 14.7-34.6 22.7l2.05-4.55-6.5 8.65-.85-3" fill="#aaafc2"/><path d="M61.6 101.45Q53.05 97.85 49 86.3l2.55-.85q2.4 9.2 11.1 12.5l1.1 1.3q6.65-2.05 12.5-4.9l4.55-2.45q9.9-5.65 17.45-13.85 3.25-3.55 6.05-7.6l.45-.65 1.7-2.6-1.05-2.6-4.35-10.75q.55-2.8 0-6.65l.45-.9 1.55 3.05 1 3 4.8 14.85-1.75 3Q95.55 88.8 75.8 97.05l-7.65 2.75-6.55 1.65m33.3-43.9-1.2 1.3q-8.75 9.5-19.5 15.75l-5.6 3q-5.2 2.5-10.85 4.3l.85-1.95q18.7-8 34.6-22.7l1.7.3" fill="#3c4658"/><path d="m47.6 80 5.7 1.05.85 3-2.8-.6L47.6 80m46.1-21.15 1.2-1.3 4.05.75q1.45 6.75 7.5 8.9l-1.7 2.6Q101.3 62 93.7 58.85M68.6 77.6l5.6-3q-.05 12.4 6.6 17.3l-4.55 2.45q2.2-8.4-7.65-16.75" fill="#ebebeb"/><path d="M106.45 67.2q-6.05-2.15-7.5-8.9l1.1-1.55q2 7.95 5.35 7.85l1.05 2.6m-14-4.1 1.95-1.9q5.65.7 9.9 9.25-2.8 4.05-6.05 7.6 6.05-12.6-5.8-14.95M70.6 94.65q7.1-12.2-5.55-14l2.1-.9q10.85 3.5 5.05 14.2l-1.6.7M84.75 87l-2.2 1.4q-8.7-2.95-6.5-12.75l2.4-1.45q-1.95 9.4 6.3 12.8" fill="#505a6e"/><path d="M57.75 81.9q5.65-1.8 10.85-4.3 9.85 8.35 7.65 16.75-5.85 2.85-12.5 4.9l-1.1-1.3 7.95-3.3 1.6-.7q5.8-10.7-5.05-14.2l-2.1.9-8.3 3.45 1-2.2m16.45-7.3q10.75-6.25 19.5-15.75 7.6 3.15 11.05 10.95l-.45.65q-4.25-8.55-9.9-9.25l-1.95 1.9q-6.75 6.6-14 11.1l-2.4 1.45q-2.2 9.8 6.5 12.75l2.2-1.4 13.5-8.95Q90.7 86.25 80.8 91.9q-6.65-4.9-6.6-17.3" fill="#8fa4ad"/><path d="M92.45 63.1q11.85 2.35 5.8 14.95L84.75 87q-8.25-3.4-6.3-12.8 7.25-4.5 14-11.1m7.6-6.35q.7-1.25 1-2.9l4.35 10.75q-3.35.1-5.35-7.85m-48.5 28.7 1.15-.4 2.9 1.7 1.15-2.65 8.3-3.45q12.65 1.8 5.55 14l-7.95 3.3q-8.7-3.3-11.1-12.5" fill="#6e7a87"/><path d="m44.9 63.8 2.45-4.2h3.15l-2.4 5.45-3.2-1.25" fill="#ba8e78"/><path d="m53.5 57.55 5.2-3.1 1.2 4.1-.45 1.4-5.95-2.4" fill="#b98c77"/><path d="M41.35 85.3 47.6 80l3.75 3.45-2.75-.6-7.25 2.45" fill="#aab0c3"/><path d="m68.15 99.8 7.65-2.75h10.85l-1.9 2 4.8-1.95-5.15 12.2q-7.3-6.05-16.25-9.5" fill="#91523c"/><path d="M126.45 110.55q-6.2 21.3-26.55 17.15-6.55-11.1-15.5-18.4l5.15-12.2-4.8 1.95 1.9-2H75.8q19.75-8.25 31.3-26.85l19.35 40.35" fill="#703626"/><path d="M57.1 88.05q1.65 1.7 1.65 4.05 0 2.35-1.65 4.05-1.7 1.65-4.05 1.65-2.35 0-4.05-1.65-1.65-1.7-1.65-4.05 0-2.35 1.65-4.05 1.7-1.65 4.05-1.65 2.35 0 4.05 1.65m-6.1 7.9q.95.55 2.1.55 1.75 0 3-1.3t1.25-3.15q0-1.85-1.25-3.2l-.15-.1q-1.2-1.2-2.85-1.2-1.75 0-3 1.3-1.25 1.35-1.25 3.2t1.25 3.15l.55.5.35.25" fill="#700c0e"/><path d="m51 95.95-.35-.25q-.75-1.65-.25-3.3h.2l.7-.25.25-.7-.25-.65h-.05l.3-.35.05.05q.45.45 1.05.45.6 0 1-.45.45-.4.45-1v-.2q1.6-.1 2.4 1.35.95 5.4-5.5 5.3" fill="#720c0c"/><path d="M54.1 89.3v.2q0 .6-.45 1-.4.45-1 .45t-1.05-.45l-.05-.05q-.35-.4-.35-.95 0-.6.4-1.05.45-.45 1.05-.45.6 0 1 .45.4.35.45.85m-2.85 1.5h.05l.25.65-.25.7-.7.25h-.2l-.45-.25-.25-.7.25-.65.65-.25q.4 0 .65.25" fill="#ebebeb"/><path d="m50.65 95.7-.55-.5q-1.25-1.3-1.25-3.15 0-1.85 1.25-3.2 1.25-1.3 3-1.3 1.65 0 2.85 1.2l.55 1.9q-.8-1.45-2.4-1.35-.05-.5-.45-.85-.4-.45-1-.45t-1.05.45q-.4.45-.4 1.05 0 .55.35.95l-.3.35q-.25-.25-.65-.25l-.65.25-.25.65.25.7.45.25q-.5 1.65.25 3.3" fill="#ca0e0e"/><path d="m55.95 88.75.15.1q1.25 1.35 1.25 3.2T56.1 95.2q-1.25 1.3-3 1.3-1.15 0-2.1-.55 6.45.1 5.5-5.3l-.55-1.9" fill="#c490ca"/><path d="M100.85 64.65q1.65 1.7 1.65 4.05 0 2.35-1.65 4.05-1.7 1.65-4.05 1.65-2.35 0-4.05-1.65-1.65-1.7-1.65-4.05 0-2.35 1.65-4.05Q94.45 63 96.8 63q2.35 0 4.05 1.65m-1.15.7q-1.2-1.2-2.85-1.2-1.75 0-3 1.3-1.25 1.35-1.25 3.2t1.25 3.15l.55.5.35.25q.95.55 2.1.55 1.75 0 3-1.3t1.25-3.15q0-1.85-1.25-3.2l-.15-.1" fill="#700c0e"/><path d="M97.85 65.9q1.6-.1 2.4 1.35.95 5.4-5.5 5.3l-.35-.25q-.75-1.65-.25-3.3h.2l.7-.25.25-.7-.25-.65H95l.3-.35.05.05q.45.45 1.05.45.6 0 1-.45.45-.4.45-1v-.2" fill="#720c0c"/><path d="M95.3 67.05q-.35-.4-.35-.95 0-.6.4-1.05.45-.45 1.05-.45.6 0 1 .45.4.35.45.85v.2q0 .6-.45 1-.4.45-1 .45t-1.05-.45l-.05-.05M94.15 69l-.45-.25-.25-.7.25-.65q.3-.25.65-.25.4 0 .65.25h.05l.25.65-.25.7-.7.25h-.2" fill="#ebebeb"/><path d="M97.85 65.9q-.05-.5-.45-.85-.4-.45-1-.45t-1.05.45q-.4.45-.4 1.05 0 .55.35.95l-.3.35q-.25-.25-.65-.25-.35 0-.65.25l-.25.65.25.7.45.25q-.5 1.65.25 3.3l-.55-.5q-1.25-1.3-1.25-3.15 0-1.85 1.25-3.2 1.25-1.3 3-1.3 1.65 0 2.85 1.2l.55 1.9q-.8-1.45-2.4-1.35" fill="#ca0e0e"/><path d="m100.25 67.25-.55-1.9.15.1q1.25 1.35 1.25 3.2t-1.25 3.15q-1.25 1.3-3 1.3-1.15 0-2.1-.55 6.45.1 5.5-5.3" fill="#c490ca"/><path d="M86.55 76.95q1.65 1.7 1.65 4.05 0 2.35-1.65 4.05-1.7 1.65-4.05 1.65-2.35 0-4.05-1.65-1.65-1.7-1.65-4.05 0-2.35 1.65-4.05 1.7-1.65 4.05-1.65 2.35 0 4.05 1.65m-6.1 7.9q.95.55 2.1.55 1.75 0 3-1.3t1.25-3.15q0-1.85-1.25-3.2l-.15-.1q-1.2-1.2-2.85-1.2-1.75 0-3 1.3-1.25 1.35-1.25 3.2t1.25 3.15l.55.5.35.25" fill="#700c0e"/><path d="m80.45 84.85-.35-.25q-.75-1.65-.25-3.3h.2l.7-.25.25-.7-.25-.65h-.05l.3-.35.05.05q.45.45 1.05.45.6 0 1-.45.45-.4.45-1v-.2q1.6-.1 2.4 1.35.95 5.4-5.5 5.3" fill="#720c0c"/><path d="M83.55 78.2v.2q0 .6-.45 1-.4.45-1 .45t-1.05-.45l-.05-.05q-.35-.4-.35-.95 0-.6.4-1.05.45-.45 1.05-.45.6 0 1 .45.4.35.45.85m-2.85 1.5h.05l.25.65-.25.7-.7.25h-.2l-.45-.25-.25-.7.25-.65q.3-.25.65-.25l.65.25" fill="#ebebeb"/><path d="m80.1 84.6-.55-.5q-1.25-1.3-1.25-3.15 0-1.85 1.25-3.2 1.25-1.3 3-1.3 1.65 0 2.85 1.2l.55 1.9q-.8-1.45-2.4-1.35-.05-.5-.45-.85-.4-.45-1-.45t-1.05.45q-.4.45-.4 1.05 0 .55.35.95l-.3.35-.65-.25q-.35 0-.65.25l-.25.65.25.7.45.25q-.5 1.65.25 3.3" fill="#ca0e0e"/><path d="m85.4 77.65.15.1q1.25 1.35 1.25 3.2t-1.25 3.15q-1.25 1.3-3 1.3-1.15 0-2.1-.55 6.45.1 5.5-5.3l-.55-1.9" fill="#c490ca"/><path d="M70.3 83.95q1.65 1.7 1.65 4.05 0 2.35-1.65 4.05-1.7 1.65-4.05 1.65-2.35 0-4.05-1.65-1.65-1.7-1.65-4.05 0-2.35 1.65-4.05 1.7-1.65 4.05-1.65 2.35 0 4.05 1.65m-1.15.7q-1.2-1.2-2.85-1.2-1.75 0-3 1.3-1.25 1.35-1.25 3.2t1.25 3.15l.55.5.35.25q.95.55 2.1.55 1.75 0 3-1.3t1.25-3.15q0-1.85-1.25-3.2l-.15-.1" fill="#700c0e"/><path d="M67.3 85.2q1.6-.1 2.4 1.35.95 5.4-5.5 5.3l-.35-.25q-.75-1.65-.25-3.3h.2l.7-.25.25-.7-.25-.65h-.05l.3-.35.05.05q.45.45 1.05.45.6 0 1-.45.45-.4.45-1v-.2" fill="#720c0c"/><path d="M64.75 86.35q-.35-.4-.35-.95 0-.6.4-1.05.45-.45 1.05-.45.6 0 1 .45.4.35.45.85v.2q0 .6-.45 1-.4.45-1 .45t-1.05-.45l-.05-.05M63.6 88.3l-.45-.25-.25-.7.25-.65q.3-.25.65-.25l.65.25h.05l.25.65-.25.7-.7.25h-.2" fill="#ebebeb"/><path d="M67.3 85.2q-.05-.5-.45-.85-.4-.45-1-.45t-1.05.45q-.4.45-.4 1.05 0 .55.35.95l-.3.35-.65-.25q-.35 0-.65.25l-.25.65.25.7.45.25q-.5 1.65.25 3.3l-.55-.5q-1.25-1.3-1.25-3.15 0-1.85 1.25-3.2 1.25-1.3 3-1.3 1.65 0 2.85 1.2l.55 1.9q-.8-1.45-2.4-1.35" fill="#ca0e0e"/><path d="m69.7 86.55-.55-1.9.15.1q1.25 1.35 1.25 3.2T69.3 91.1q-1.25 1.3-3 1.3-1.15 0-2.1-.55 6.45.1 5.5-5.3" fill="#c490ca"/></g><g id="r" fill-rule="evenodd"><path d="M13 69.55q2-1.95 4.4-3.8L46.85 85l3.05 4.25-7.8 2.25-9.1.1q4.55-8.15-20-22.05" fill="#9d6645"/><path d="M17.4 65.75Q15 67.6 13 69.55l-1.35 1.4q-7.9 8.45-8.35 18.6L.25 89.1q2.35-24.05 24.4-30.25l1.4 1.3q-4.85 2.65-8.65 5.6" fill="#8e4932"/><path d="M13 69.55q24.55 13.9 20 22.05l-8.75-.15-11.15-6.3q4.35 1.4 5.65-2.3.15-5.8-4.05-5.85 2.5-3.65-3.05-6.05l1.35-1.4" fill="#ad794e"/><path d="M3.3 89.55q.45-10.15 8.35-18.6 5.55 2.4 3.05 6.05 4.2.05 4.05 5.85-1.3 3.7-5.65 2.3l11.15 6.3Q12.85 91 3.3 89.55" fill="#c7a26a"/><path d="m26.05 60.15-1.4-1.3L26.6 5q30.35-12.3 54.65 5.7 7.15 43.45-1.15 78.75l1.05 2.3-3.05 5.7-1.35-.5-14.4-5-3.7-1.3-6.1-2.1-2.3-5.7-24.2-22.7M45.5 75.7l-.05.6q3.25 3.35 6.95 6.1 5.45 4.1 11.9 6.85h-6.6l9.6 2.3 3-4.95-3-2.35-21.35-11.9-.45 3.35m32.45 12.65 2.65-4.8-8.5 6.05h4.1V93h3.35l-1.6-4.65" fill="#13161f"/><path d="M52.4 82.4q-3.7-2.75-6.95-6.1l.05-.6 20.2 10.15q-4.75.2-13.3-3.45" fill="#324056"/><path d="m45.5 75.7.45-3.35 21.35 11.9 3 2.35-3 4.95-9.6-2.3h6.6q-6.45-2.75-11.9-6.85 8.55 3.65 13.3 3.45L45.5 75.7m32.45 12.65 1.6 4.65H76.2v-3.4h-4.1l8.5-6.05-2.65 4.8" fill="#252d39"/><path d="m42.1 91.5 7.8-2.25L46.85 85 17.4 65.75q3.8-2.95 8.65-5.6l24.2 22.7 2.3 5.7 6.1 2.1-16.55.85" fill="#97533b"/><path d="m33 91.6 9.1-.1 16.55-.85 3.7 1.3-7.1.7q-26.6 2.3-52-.75.1 3.3.95 6.75h71.95l.6-1.7 1.35.5 2 .7-.55 4.6-79.25-.9q-.6-6.9-.05-12.75l3.05.45q9.55 1.45 20.95 1.9l8.75.15" fill="#c49e77"/><path d="M61.8 98.65H4.2q-.85-3.45-.95-6.75 25.4 3.05 52 .75l8.5 3.2-1.95 2.8" fill="#e8dcbd"/><path d="M81.25 10.7 84 12.85q5.6 58.3-2.3 76.4l1.4 3.9-3 5-2-.7 3.05-5.7-1.05-2.3q8.3-35.3 1.15-78.75" fill="#131720"/><path d="m62.35 91.95 14.4 5-.6 1.7H61.8l1.95-2.8-8.5-3.2 7.1-.7" fill="#c9ae93"/></g><g id="s" fill-rule="evenodd"><path d="m123.15 139-1.55.65-6.45-58.2 1.45-.1 6.55 57.65m-13.8 5-1.4.4-3.8-62.4 1.05-.05.1 1.55 4.05 60.5M25 129.8l-1-.95 14.5-57.6 1.05.45L25 129.8m-13.3-15.95-1.15-1.8 16.65-45.4 1.65.65-17.15 46.55M52.1 20l1-.25-16.65 32.7-1.1-.45L52.1 20m11.35-2.8 1.8-.45L45.6 56.3l-1.2-.5 1.3-2.6 17.75-36M96.5 9.15l1.15-.25 3.3 24.95 3.2 31.75-1.05.1-3.2-31.2-3.4-25.35m7.3-1.75 1.3-.35 4.4 23.1 3.8 23.15-.75 1.9-4.15-24.65-4.6-23.15" fill="#1f1113"/><path d="m129.4 28.15-8.35 33.7 12.1 27.3-13.7-26.75 9.95-34.25M112.05 143.1l-2.7.9-4.05-60.5h1.35l5.4 59.6m-99-27.3-1.35-1.95L28.85 67.3l1.45.6-.4 1.1-2.6 7.25-14.25 39.55M53.1 19.75l1.65-.4L41.3 45.6l-3.75 7.3-1.1-.45 16.65-32.7M97.65 8.9l.9-.25 3.1 22.55 2.6 25.4.9 8.9-1 .1-3.2-31.75-3.3-24.95" fill="#494176"/><path d="m121.6 139.65-2.6 1-5.4-57.15h-8.3l-.1-1.55 9.95-.5 6.45 58.2M24 128.85q-5.85-5.75-10.95-13.05L27.3 76.25l6.5 3.2L36.1 72l-6.2-3 .4-1.1 8.2 3.35-14.5 57.6m30.75-109.5 8.7-2.15-17.75 36-4.4-7.6 13.45-26.25m43.8-10.7 5.25-1.25 4.6 23.15 4.15 24.65-.9 2.35-.75-3.15-6.65 2.2-2.6-25.4-3.1-22.55" fill="#262c3e"/><path d="M152 124.85q-15.05 8.55-28.85 14.15l-6.55-57.65 1.15-.05-.35-8.05 34.6 51.6m-44.05 19.55Q56.5 159.9 25 129.8l14.55-58.1 1.15.45-1.85 8.65 13.6 5.05q24.4-5.2 50.65 0v-3.8l1.05-.05 3.8 62.4M6.9 106Q3.7 100.3.8 93.85 13.2 69.55 33 52.7l-1.3 3.1Q25.1 62.45 19.45 70h3.4q-4.95 6-8.7 14.75L6.9 106m58.35-89.25 31.25-7.6 3.4 25.35 3.2 31.2-1 .1-.15-2.6-2.25 2.3q1.45-3.75-.85-3.45-5.65 6.7-11.95 9.6 2.4-2.15 1.7-5.25-14.9 6.65-20 14.1L61.95 72l-1.05 1.95L49.05 54.3l-2.1 2.6-1.35-.6 19.65-39.55m39.85-9.7L131.7.6q-9.25 28.75-18.4 52.7l-3.8-23.15-4.4-23.1" fill="#803724"/><path d="M10.55 112.05 6.9 106l7.25-21.25Q17.9 76 22.85 70h-3.4q5.65-7.55 12.25-14.2l-4.5 10.85-16.65 45.4M102.1 65.8l-.35.05-.8.25 1.15 16 1-.05v3.8q-26.25-5.2-50.65 0l-13.6-5.05 1.85-8.65 6.25-15.25 2.1-2.6L60.9 73.95 61.95 72l6.65 8.5q5.1-7.45 20-14.1.7 3.1-1.7 5.25 6.3-2.9 11.95-9.6 2.3-.3.85 3.45l2.25-2.3.15 2.6M79 79.25q3.4.6 8.8-.9 3.8-.85 1.45 2.35 9.9-.2 8.5-12.45-2 5.1-5.05 6.65v-3.3q-5.8 5.95-13.7 7.65m-28.85-13.3-1.9 2.2L47.9 62q-3.8 6.4-5.4 15.05l1.5-.7 3.65 4.15v-4.05l8.55 2.65-1.9-7.4-.8 3.3-3.35-9.05" fill="#a6563b"/><path d="M79 79.25q7.9-1.7 13.7-7.65v3.3q3.05-1.55 5.05-6.65 1.4 12.25-8.5 12.45 2.35-3.2-1.45-2.35-5.4 1.5-8.8.9m-28.85-13.3L53.5 75l.8-3.3 1.9 7.4-8.55-2.65v4.05L44 76.35l-1.5.7Q44.1 68.4 47.9 62l.35 6.15 1.9-2.2" fill="#ce8652"/><path d="m125.6 52.35 1.3-4.7 7.85-3.75 11 25.4-1.45 9.95-6.75-10.65-4.95 15.3-3.3-8-4.15-16.15 2.1-9.25-1.65 1.85m-6.6 88.3-6.95 2.45-5.4-59.6h6.95l5.4 57.15m-7.35-83.1-1.8 4.5 1.85 2.7-2.65.3-3.55-8.1.5 8.45-.85.1-.9-8.9 6.65-2.2.75 3.15M106.2 71.8l.2-1.7h5.6l.45 7.1-5.7.35-.35-1.4 4.8-.35v-4h-5m-71-12.95.2-.75 4.6 2.15-2.3 5.35-3.9-1.25V63.1l3.9 1.25 1.4-3.55-3.9-1.95M29.9 69l6.2 3-2.3 7.45-6.5-3.2L29.9 69m15.8-15.8-1.3 2.6-4.45-1.85 1.3-4.65-2.9 3.95-.8-.35 3.75-7.3 4.4 7.6" fill="#32354f"/><path d="m125.6 52.35 1.65-1.85-2.1 9.25 4.15 16.15-6.15-14.75 2.45-8.8m-10.55-.25 2.45 1.05-3.1 6.9.65 4.35 1.9-.25.3 6.65-.9-1.35-1.45-2.05-.1-.15-.1-.15-.7-1-.05-.1-.6-.9-.1-.1v-.4l-1-4.45 2.8-8.05m-6 12.95-3.05.35-.5-8.45 3.55 8.1M104.1 68l.7.25.3.75-.3.7q-.3.3-.7.3l-.7-.3q-.3-.3-.3-.7 0-.45.3-.75.3-.25.7-.25m1.85-1h4.15v1.45h-4.6l.45-1.45M40.3 55.8l-.65 1.7-5.45-1.8.8-2.2 3.45.95 1.85 1.35m-7.5.2 1.5.7-.85 1.7-1.4-.75.75-1.65m.15 4.9q-.15-.9.85-1.45l.75.35q.05 1.25-1.6 1.1m7-6.95-1.6-.7 2.9-3.95-1.3 4.65" fill="#fff"/><path d="m153.8 123.85-11.15-16.2-9.5-18.5-12.1-27.3 8.35-33.7 7.7-26.65q53.85 27.3 50.25 100.55-17.5 12.5-33.55 21.8M129.3 75.9l3.3 8 4.95-15.3 6.75 10.65 1.45-9.95-11-25.4-7.85 3.75-1.3 4.7-2.45 8.8 6.15 14.75" fill="#252c41"/><path d="m116.1 49.2.55-1.55L120.7 46l-5 15.15 11.15 23.55-9.6-13.9-.3-6.65-1.9.25-.65-4.35 3.1-6.9-2.45-1.05.45-1.2 1.8.8 1.1-2.5h-2.3M105.95 67l-.45 1.45h4.6V67h-4.15m-1.85 1q-.4 0-.7.25-.3.3-.3.75 0 .4.3.7l.7.3q.4 0 .7-.3l.3-.7-.3-.75-.7-.25m2.1 1.3-1.3 2.7q-2.5 2.1.4 3.8l.45 2.4 7.5-.55-.45-8.35h-6.6m-1.8 4.65q.05-.5.75-1h5.25v.9l-6 .1m6.15 6.55h-7.65l-.75-14 8.35-.55 3.15 2.2.4 10.6-3.5 1.75m-72.1-50.25L42 27.2l-8.2 20.95Q15.75 62.4 5.25 83.45l-.1.15q-1.85 3-3.55 6.15 1.85-5.6 3.95-10.85 11.3-18.4 27.15-31.8l5.75-16.85M35 53.5l-.8 2.2 5.45 1.8.65-1.7 3.1 2.25q-1.45 6.55-4.3 10.65l-9.9-2.95q1.15-4.15 2.85-8.1l1.4.75.85-1.7-1.5-.7 1.35-2.65.85.15m-.15 3.75-.7 1.4q-2.85 1.1-1.25 3.55l-.9 2.5 6.4 2.5 3.2-7.3-6.75-2.65m-.3 2.55 3.4 1.45q.3 1.35-.7 1.65l-4.2-1.5-.1-.5q1.65.15 1.6-1.1" fill="#99b3bf"/><path d="M116.1 49.2h2.3l-1.1 2.5-1.8-.8.6-1.7" fill="#e9f0f3"/><path d="m133.15 89.15 9.5 18.5 11.15 16.2-1.8 1-34.6-51.6.35 8.05-1.15.05-1.45.1-9.95.5-1.05.05-1.05.05-1 .05-1.15-16 .8-.25.35-.05 1-.1 1.05-.1 1-.1.85-.1 3.05-.35 2.65-.3-1.85-2.7 1.8-4.5.9-2.35.75-1.9q9.15-23.95 18.4-52.7l1.65-.4-16.7 47.45-.55 1.55-.6 1.7-.45 1.2-2.8 8.05-.8 2.25 1.55 2.2.15.3.1.1.1.1.6.9.05.1.7 1 .1.15.1.15 1.45 2.05.9 1.35 9.6 13.9 11.45 16.6-20.65-38.9L136.05 1l1.05.5-7.7 26.65-9.95 34.25 13.7 26.75M106.2 71.8h5v4l-4.8.35.35 1.4 5.7-.35-.45-7.1h-5.6l-.2 1.7m0-2.5h6.6l.45 8.35-7.5.55-.45-2.4q-2.9-1.7-.4-3.8l1.3-2.7m4.2 4.55v-.9h-5.25q-.7.5-.75 1-.1.55.65 1.15l5.35-.35v-.9m2.1 6.65h3.85v-8.8l-1.6-2.35-2.35-3.5-1.9.1-8.35.55.75 14h9.6m-71.8-8.35-1.15-.45-1.05-.45-8.2-3.35-1.45-.6-1.65-.65 4.5-10.85 1.3-3.1 1.35-1.15 1 .45 1.1.45 1.1.45.8.35 1.6.7 4.45 1.85 1.2.5 1.35.6-6.25 15.25M5.55 78.9q1.75-4.45 3.75-8.65v-.1q9.35-14.45 22.35-24.5l3.75-12.6 3.05-2.8L32.7 47.1Q16.85 60.5 5.55 78.9M35 53.5l-.85-.15L32.8 56l-.75 1.65q-1.7 3.95-2.85 8.1l-.2.7 10.3 4.1q3.9-5.65 5.85-13.3-3.45-1.75-6.7-2.8L35 53.5m.2 5.35 3.9 1.95-1.4 3.55-3.9-1.25v1.25l3.9 1.25 2.3-5.35-4.6-2.15-.2.75m-.35-1.6 6.75 2.65-3.2 7.3-6.4-2.5.9-2.5q-1.6-2.45 1.25-3.55l.7-1.4m-1.9 3.65.1.5 4.2 1.5q1-.3.7-1.65l-3.4-1.45-.75-.35q-1 .55-.85 1.45" fill="#3c4658"/><path d="m112.25 60.15 1 4.45H113l-1.55-2.2.8-2.25" fill="#fbfbfb"/><path d="M133.35.2 134 0l2.05 1-18.4 61.4 20.65 38.9-11.45-16.6-11.15-23.55 5-15.15-4.05 1.65L133.35.2M112.5 80.5h-1.95l3.5-1.75-.4-10.6-3.15-2.2 1.9-.1 2.35 3.5.35 10-2.6 1.15M42 27.2l3.85-3.05q-6.9 12.15-11.2 24.9-18 15.8-29.4 34.4 10.5-21.05 28.55-35.3L42 27.2M29.2 65.75l9.9 2.95q2.85-4.1 4.3-10.65l-3.1-2.25-1.85-1.35q3.25 1.05 6.7 2.8-1.95 7.65-5.85 13.3L29 66.45l.2-.7" fill="#55627b"/><path d="M110.4 73.85v.9l-5.35.35q-.75-.6-.65-1.15l6-.1m4.35-4.5 1.6 2.35v8.8h-3.85l2.6-1.15-.35-10" fill="#758495"/><path d="m.8 93.85-.8-1.8q.95-3.7 2.05-7.25 11.1-35.95 37.35-57.45Q43.55 24 48 21l1.7-.45-14.5 30.3-.85.7L33 52.7Q13.2 69.55.8 93.85M42 27.2l-3.55 3.05-3.05 2.8Q19.65 48.2 9.3 70.15v.1q-2 4.2-3.75 8.65-2.1 5.25-3.95 10.85 1.7-3.15 3.55-6.15l.1-.15q11.4-18.6 29.4-34.4 4.3-12.75 11.2-24.9L42 27.2" fill="#514548"/><path d="m49.7 20.55 2.4-.55-16.75 32-1-.45.85-.7 14.5-30.3" fill="#814023"/><path d="M9.3 70.15q10.35-21.95 26.1-37.1l-3.75 12.6q-13 10.05-22.35 24.5" fill="#30344b"/></g><g id="t" fill-rule="evenodd"><path d="m12.25 38.1-1.75 1.2-7.25-5.4-.55-8.2-2-2.15L3 18.2l-3-.75 2.4-6.8-1.95-2.7L3.85 5l.85-5h12.6l.7 3.15-6.15-.7-3.3-.4L5.7 1.7l.45 3.55L2.3 8.8l1.8 2-1.95 5.8H4.7l-2.55 6.95L3.85 25l.6 7.35.1 1 5.1 3.15 2.6 1.6" fill="#858fb0"/><path d="m12.25 38.1-2.6-1.6L7.4 20.15l1.7-3.1-1-1.6 1-1.7-1.7-2.8 1.7-1.6-1-2.4 3.75-4.5 6.15.7 5.85 26.95-11.6 8" fill="#b6bdd6"/><path d="M4.45 32.35 3.85 25l-1.7-1.45L4.7 16.6H2.15l1.95-5.8-1.8-2 3.85-3.55L5.7 1.7l2.85.35-2.6 6.05L7.1 9.35l-1.7 2.7 1.45 2.7-.9 2.55.85 2.3-2.35 12.75" fill="#fff"/><path d="m9.65 36.5-5.1-3.15-.1-1L6.8 19.6l-.85-2.3.9-2.55-1.45-2.7 1.7-2.7L5.95 8.1l2.6-6.05 3.3.4-3.75 4.5 1 2.4-1.7 1.6 1.7 2.8-1 1.7 1 1.6-1.7 3.1L9.65 36.5" fill="#d3dffa"/></g><g id="u" fill-rule="evenodd"><path d="m38.55 75.35-4.8 3.7Q26 82 21 73.3l-.65-1.05q7.3 10.35 18.2 3.1m-24-24-6.8-11.7 3.95 3.85h4.85l1.9 5.55q-6.95-9.4-3.9 2.3m20.2 6.95 24.1-11.05 5.8 3.6L61 53.5q-2.45-4.55-12.75 1.95l7.45.95-26.05 5.05-7.7-9.15 7.95 5.25 2.65 1.75 2.2-1" fill="#ffb290"/><path d="M70.15 53.3 52.3 64.6 44.15 71q-14.4 6.8-18.85 3.75Q9.25 55.65 4.25 38.4l14.3 23.3q8.75 10.75 32.35 1-28.4 5.65-30.9-1.95l-5.45-9.4q-3.05-11.7 3.9-2.3l-1.9-5.55H11.7l-3.95-3.85-3.6-6.2h2.6l6.05 7.75 1.7-1.65 15.4 18-7.95-5.25 7.7 9.15L55.7 56.4l-7.45-.95q10.3-6.5 12.75-1.95l3.65-2.65-5.8-3.6-24.1 11.05L45.1 43.85l8.9-.95 11.1 5.3 14.6-20.7q-1.95 12.15-10.5 22.65 10.1-5.35 18.45-20.7-4.75 14.1-17.5 23.85M28.2 64.35l24.35-5.55-23.6 3.65-13-13.5q4.25 8.85 12.25 15.4" fill="#fa1315"/><path d="m4.15 33.45-2.2-3.8 8.8-10.45L86.3 0q5.75 1.75 8.95 6.55-9.7 32.25-26.05 43.6 8.55-10.5 10.5-22.65L65.1 48.2 54 42.9l-8.9.95L34.75 58.3l-2.2 1-2.65-1.75-15.4-18-1.7 1.65-6.05-7.75h-2.6" fill="#b91931"/><path d="M95.25 6.55 96.5 8.8q-4.15 11.95-8.85 20.65Q79.3 44.8 69.2 50.15 85.55 38.8 95.25 6.55" fill="#a12045"/><path d="m98.95 17.6.15 1.7Q85.85 55.45 52.8 66.55L36.4 78.6q-10.2 7.6-17.85-5.55L0 39.55 1.95 34 .5 29.4l8.9-9.9 1.35-.3-8.8 10.45 2.2 3.8 3.6 6.2 6.8 11.7 5.45 9.4q2.5 7.6 30.9 1.95-23.6 9.75-32.35-1L4.25 38.4 2.9 36.15 1.45 40l18.9 32.25.65 1.05q5 8.7 12.75 5.75l4.8-3.7 5.6-4.35 8.15-6.4 17.85-11.3-12.5 9.4q28.6-10.95 41.3-45.1" fill="#8a142c"/><path d="m44.15 71-5.6 4.35q-10.9 7.25-18.2-3.1L1.45 40l1.45-3.85 1.35 2.25q5 17.25 21.05 36.35Q29.75 77.8 44.15 71" fill="#f48051"/><path d="M98.95 17.6q-12.7 34.15-41.3 45.1l12.5-9.4q12.75-9.75 17.5-23.85 4.7-8.7 8.85-20.65 1.8 3.7 2.45 8.8" fill="#a61f41"/><path d="M28.2 64.35q-8-6.55-12.25-15.4l13 13.5 23.6-3.65-24.35 5.55" fill="#bf172c"/></g><g id="v" fill-rule="evenodd"><path d="m135 16.75 1.8.45-1.4 1.35-1.4-.35 1-1.45m25.55 9.35q5.55 4.35 6.6 8.05-.85-2.25-4.7-.9-.8-3.15-4.75-5.95l2.85-1.2M167 38.05q-.5 1.2-1.6 2.35.85-3.4-2.9-4l.15-1.05q3.85-.75 4.35 2.7M92.4 50.9l-1.6-.2-1.45-3.55 1.65.25 1.4 3.5m-3.7-.55Q67.8 46.8 49.5 37.1l1.25-2.5q6.75 5.5 25.3 10.4l11.45 1.9 1.2 3.45M44.1 32q-.4-1.15-.5-2.2l3.3-1.7.15 1.2L44.1 32m-.25-4.6Q46.4 18.75 74 13.85l.45.9Q56.9 16.95 48.3 24q-.85 1.25-1.15 2.5l-3.3.9m81.05-12.7 8.15 1.6-.9 1.45-8.1-1.75.85-1.3M43.2 35.35l7.75 6.2q.2 3.7-3.3 4.1L43.2 41.4v-6.05m53.05 24.6-17.4-2.5-.75-.45q-3.3-3.65 3.25-6l16.8 2.6q-3.1 3.45-1.9 6.35M164.7 45.1l1.4-1.05v5.3l-1.75 1.55q-1.2-2.45.35-5.8m-55 9.4H122q2.2 4.05-1.3 6.8l-10.6-.05q1.8-2.8-.4-6.75m48.8-.3q-11.95 4.25-26.65 6-2.2-2.15-1.5-6.15 13.85-1.5 27.95-5.8 1.65 2.95.2 5.95M57.2 44.8l11.3 3.65q1.75 4.8-2.1 5.95l-10.9-3.95q-2.1-3.25 1.7-5.65m9.9 60.4-15.45-5.75q-.45-3.15 1.7-5.35L69.5 99q2.1 4.75-2.4 6.2m-27.75-21 7.15 5.7q-.05 4.3-3.3 4.8l-3.85-3v-7.5m55.5 25.9-16.1-2.15q-2.4-2.5.2-6.45l15.3 1.75q-1.3 4.2.6 6.85m50.2-8.9q9.3-2.95 18.65-8.6l-2.1 7.75q-7.6 4.25-14.95 6.6-3.35-1.6-1.6-5.75m-36.85 3.1q13.05 1.3 25.35-1 3.95 2-.9 6.35l-26.3 1.35q2-2.45 1.85-6.7m-7.3-39.4 5.2.15-1.7 13-3.5-.7V64.9m3.2 32.9-.05.8-4.6-.25 1.7-17.75h2.8l.15 17.2m-2.7 4.3q-1.4 0-2.4 1t-1 2.4q0 1.4 1 2.4t2.4 1q1.4 0 2.4-1t1-2.4q0-1.4-1-2.4t-2.4-1m-.2-1.3q1.9 0 3.2 1.3 1.35 1.35 1.35 3.25t-1.35 3.2q-1.3 1.35-3.2 1.35-1.9 0-3.25-1.35-1.3-1.3-1.3-3.2 0-1.9 1.3-3.25 1.35-1.3 3.25-1.3" fill="#acc3e2"/><path d="m135 16.75-1 1.45-1.85-.45.9-1.45 1.95.45m.4 1.8 1.4-1.35q10.7 2.65 20.85 6.8l2.9 2.1-2.85 1.2q-6.65-4.8-22.3-8.75m30 21.85Q159.25 47 134 51.05q-21.95 2.6-41.6-.15L91 47.4q46.5 6.2 69.8-7.45 1.25-1.85 1.7-3.55 3.75.6 2.9 4M90.8 50.7l-2.1-.35-1.2-3.45 1.85.25 1.45 3.55M43.6 29.8q-.1-1.25.25-2.4l3.3-.9-.25 1.6-3.3 1.7M74 13.85l4.25-.7q24.4-2.25 46.65 1.55l-.85 1.3-2.4-.45q-28.6-3.15-47.2-.8l-.45-.9m20.65 91.5q0-2.55 1.8-4.35 1.8-1.8 4.35-1.8 2.6 0 4.4 1.8 1.8 1.8 1.8 4.35 0 2.6-1.8 4.4-1.8 1.8-4.4 1.8-2.55 0-4.35-1.8-1.8-1.8-1.8-4.4m14.45-46.8q0 2.35-1.65 4t-4 1.65q-2.35 0-4-1.65-1.7-1.65-1.7-4t1.7-4.05q1.65-1.65 4-1.65t4 1.65q1.65 1.7 1.65 4.05m-8.9-3.05q-1.35 1.3-1.35 3.2 0 1.85 1.35 3.2 1.3 1.3 3.2 1.3 1.85 0 3.2-1.3 1.3-1.35 1.3-3.2 0-1.9-1.3-3.2-1.35-1.35-3.2-1.35-1.9 0-3.2 1.35m1 45.3q-1.9 0-3.25 1.3-1.3 1.35-1.3 3.25t1.3 3.2q1.35 1.35 3.25 1.35t3.2-1.35q1.35-1.3 1.35-3.2 0-1.9-1.35-3.25-1.3-1.3-3.2-1.3" fill="#d8efff"/><path d="M179.95 20.15q19.2-2.35 36.35 7.1-27.8-12.45-53.85-1.35l6.55 8.95-.15 2.35q35.85 6.2 49-11.3-19.15-9.2-38.85-6.95-9.1 1.05-18.35 4.55l1.1 1.35q9.3-3.65 18.2-4.7m9.7 25.45-4.95.45 2.95 34.9.5 6.15 1.6 1.5 4.65-.65 3.1-.65q15.5-3.8 28.45-16.55l.45 5.65q-20.75 25.65-61.05 17.85l-2.65 11.1Q92.6 129.9 36.45 94.5V83.6Q11.4 81.15 0 65.05l2.5-10.3q.95 2.8 2.5 5.15l.7.95 1.65 1.95q2.3 2.4 5.45 4.15l4.35-14.35 1.2-4.05.75-2.45 3.55-11.85.25-.8.55-1.85 1.9-6.4-1.95-2.9-1.35-.55-1.35-.7-1.45-.9-.9-.7q-1.65-1.3-3-3.05-1.45-1.8-2.6-4.05L15 3q28.85-9.3 53.1 10.4 47.6-8.6 90.25 9.4 32.7-13.25 63.75 1.7l.55 6.9q-13.5 10-27.55 13.2l-2.65.55-1.1.2-1.7.25m-6.55 30.05-2.25-29.55h-.75l-2.45-.15-3.45-.3-5.85-1-.35 5.2-2.25 2.2L164 53.5q-4.65 3.65-11.05 6l-3.1 1.05-3.8 1.05-1.75.4q-7.45 1.6-16.6 1.95l-1.1.05-1.75.05-3.9.05-12.3-.5-1.45 1.45-.7 12.75-.3 4.4-.1 2.4-.15 2.15-.7 12.55 2.2 2.2.45.45h3.15l1.45-.05 2.2-.05 4.1-.2q14.7-.8 25.65-3.85h.05l1.85-.55 1.9-.6q6.55-2.2 11.55-5.3l2.2-1.4 1.65-1.25.5-8.8 1.45 7.85 12 .5 5.25.2 1.1-1.45-.75-9.8-.1-1.55m.6-29.6-2.05.05 3.4 40.55h1.9l-3.25-40.6M224 77.8l1.45-1.55-.6-3.15-3.75 3.35-.15.1Q208.2 86.8 190.2 89.75q.65 2.25-1.3 3.65 19.9-.15 35.1-15.6m-34.8 12.85q0-1.35-.95-2.25-.9-.95-2.2-.95-1.35 0-2.25.95-.95.9-.95 2.25 0 1.3.95 2.25.9.9 2.25.9 1.3 0 2.2-.9.95-.95.95-2.25m-22.95 1.85q8.35 1.5 17.2 1.15-2.1-1.2-1.55-3.75l-16.2-1.1-.6 3.5 1.15.2M17.05 11.6l-1-1.15-1.45 2.8 1 1.3q3 3.6 7.3 5.85l1.25.6 2.05-2.7q-5.35-2.7-9.15-6.7M2.45 65.05l8.4 7v-4.1l-6.75-7-1.65 4.1M13 68.55q-.9.95-.9 2.2 0 1.3.9 2.2.9.9 2.2.9 1.25 0 2.15-.9.9-.9.9-2.2 0-1.25-.9-2.2-.9-.9-2.15-.9-1.3 0-2.2.9M136.8 17.2l-1.8-.45-1.95-.45-8.15-1.6q-22.25-3.8-46.65-1.55l-4.25.7q-27.6 4.9-30.15 13.55-.35 1.15-.25 2.4.1 1.05.5 2.2.6 1.5 1.8 3.1l3.6 2q18.3 9.7 39.2 13.25l2.1.35 1.6.2q19.65 2.75 41.6.15Q159.25 47 165.4 40.4q1.1-1.15 1.6-2.35.6-1.5.3-3.15l-.15-.75q-1.05-3.7-6.6-8.05l-2.9-2.1q-10.15-4.15-20.85-6.8m-2.8 1 1.4.35q15.65 3.95 22.3 8.75 3.95 2.8 4.75 5.95l.2 2.1-.15 1.05q-.45 1.7-1.7 3.55Q137.5 53.6 91 47.4l-1.65-.25-1.85-.25L76.05 45q-18.55-4.9-25.3-10.4-3.15-2.6-3.7-5.3l-.15-1.2.25-1.6q.3-1.25 1.15-2.5 8.6-7.05 26.15-9.25 18.6-2.35 47.2.8l2.4.45 8.1 1.75 1.85.45M98.15 53.6l.85-.9q-41.75-4.95-55.8-19.05v8.95q9.9 14.3 53.6 18.35l-.55-1q-1.2-2.9 1.9-6.35m67.95-9.55v-2.9q-12.15 11.6-56.75 12.8l.35.55q2.2 3.95.4 6.75l-.75.9q35.6 1.55 51.8-8.9l3.2-2.35 1.75-1.55v-5.3m-17.4-19.3q-35.45-13.9-78.9-8.25Q35 24.9 59.4 37.25q41.6 16.2 88.35 6.3 25.45-8.5.95-18.8M24.45 5.25q6.3-2.5 22.65 1.4 11.45 2.2 17.35 8.2l1.2-1Q50.4 1.3 26.3 2.75l-2.55.65q-3.8 1-5.55 2.35-.95.75-1.3 1.6-.5 1.25.35 2.7 1.05 1.85 4.25 4.05 11.5 6.8 22.95 8.95l.95-1.2q-19.3-3.5-24.25-12.3l-.35-.75q.2-.65.55-1.2 1-1.55 3.1-2.35m12 20.1 5.3 1.55 1.2-1.85.5-.8-11.35-3.4-.2.75-.75 2.15 2.65.8 1.65.5 1 .3m5.1 4.45v-.95l-1.75-.55-8.4-2.6-2.9.95L25.55 38l-1.25 4.8-1.45 5.5-.45 1.85-4.5 17.3.8 1.2.55.8.3.4 2.4 1.05 3.65 1.25q6.45 2.05 15.6 3.5l-.15 4.85 1.05 1.4 2.35 2.45 1.2 1q1.55 1.25 3.45 2.4l2.45 1.45 2.1 1.05q3.1 1.45 6.85 2.8l1.95.7 3.55 1.1q6.95 2.05 15.75 3.7l5.5 1 3.05.5 1.65.25 3.4.45 2.2-2.15.5-10.4.15-2.9.65-13 .35-7.75-1.2-1.7-4.3-.25-6.05-.5-3.45-.4-2.8-.4q-8.8-1.25-15.95-3.5l-1.2-.35-2.15-.75-1.75-.65q-4.6-1.8-8.4-4l-1.3-.8q-3.5-2.2-6.25-4.75l-2.15-2.15-.7-.8V29.8M30.3 20.1q-.85-.85-2-.85t-2 .85q-.8.8-.8 2 0 1.15.8 1.95.85.85 2 .85t2-.85q.8-.8.8-1.95 0-1.2-.8-2m-3.1 8.15.55-2.2-1.3-.6-.5 1.85-10.1 36.2-.75 2.6 1.7.75.7-2.6 9.7-36m19.65-7.85 15.45-6.05Q44.75 3.8 26.35 5.9q-13.3 3.95 20.5 14.5m47.4 82.85.4-1.05q-36.3-3.55-55.3-18.85V94.5q25 16.1 57.45 17.35l-1.95-1.75q-1.9-2.65-.6-6.85M23.05 76.2l15.85 4.3v-3.9l-3.75-.95-16.05-4.1-2.65 2.9 6.6 1.75m71.6 29.15q0 2.6 1.8 4.4 1.8 1.8 4.35 1.8 2.6 0 4.4-1.8 1.8-1.8 1.8-4.4 0-2.55-1.8-4.35-1.8-1.8-4.4-1.8-2.55 0-4.35 1.8-1.8 1.8-1.8 4.35M163.7 92.6l.45-1.75q-20.95 13.5-56 12.3l.05 1.15q.15 4.25-1.85 6.7-.9 1.1-2.3 1.85 31.9 1.65 56.95-10.4l.6-2.1 2.1-7.75m-54.6-34.05q0-2.35-1.65-4.05-1.65-1.65-4-1.65t-4 1.65q-1.7 1.7-1.7 4.05 0 2.35 1.7 4 1.65 1.65 4 1.65t4-1.65q1.65-1.65 1.65-4m-3 6.5-5.2-.15-2.3 33.7.85-.25 4.6.25.05-.8 2-32.75m-4.7 37.05q1.4 0 2.4 1t1 2.4q0 1.4-1 2.4t-2.4 1q-1.4 0-2.4-1t-1-2.4q0-1.4 1-2.4t2.4-1m.4.95q-1.15 0-1.95.75-.8.8-.8 1.95t.8 1.95q.8.75 1.95.75 1.1 0 1.9-.75.8-.8.8-1.95t-.8-1.95q-.8-.75-1.9-.75" fill="#6b7e96"/><path d="m179.95 20.15-.95-1.2q19.7-2.25 38.85 6.95-13.15 17.5-49 11.3l.15-2.35q23.35 7.8 47.3-7.6-17.15-9.45-36.35-7.1m7.6 69.35q.5.65.5 1.5t-.5 1.45q-.5.65-1.25.65-.7 0-1.25-.65-.5-.6-.5-1.45t.5-1.5q.55-.6 1.25-.6.75 0 1.25.6M13.1 70.6q0-.9.65-1.5.65-.65 1.55-.65t1.55.65q.65.6.65 1.5t-.65 1.55q-.65.65-1.55.65t-1.55-.65q-.65-.65-.65-1.55M23.75 3.4l2.55-.65q24.1-1.45 39.35 11.1l-1.2 1q-5.9-6-17.35-8.2-16.35-3.9-22.65-1.4l-.7-1.85m6.55 16.7q.8.8.8 2 0 1.15-.8 1.95-.85.85-2 .85t-2-.85q-.8-.8-.8-1.95 0-1.2.8-2 .85-.85 2-.85t2 .85m-4.35 7.2 1.25.95-9.7 36-1.65-.75 10.1-36.2" fill="#c9dbe8"/><path d="m179 18.95.95 1.2q-8.9 1.05-18.2 4.7l-1.1-1.35Q169.9 20 179 18.95m41.95 57.6.15-.1 3.75-3.35.6 3.15L224 77.8q-15 12.15-28.85 13.65l-.45-1.7q14.75-1.75 26.25-13.2M165.7 88.8l14.4 2.3-.5 1.8-13.35-.4-1.15-.2.6-3.5M15.6 14.55l-1-1.3 1.45-2.8 1 1.15q2.15 3.45 5.75 6l-.85 1.35-6.35-4.4M2.45 65.05l1.65-4.1 6.75 7v4.1l-8.4-7M23.75 3.4l.7 1.85q-2.1.8-3.1 2.35L18.2 5.75q1.75-1.35 5.55-2.35m19.2 21.65-1.2 1.85-5.3-1.55.25-2.1 6.25 1.8m-9.15-.5-2.65-.8.75-2.15 2.5 1.3-.6 1.65m-7.85 2.75.5-1.85 1.3.6-.55 2.2-1.25-.95M17.5 64.25l-.7 2.6-1.7-.75.75-2.6 1.65.75m5.55 11.95-1.55-2.25 13.65 1.7 3.75.95v3.9l-15.85-4.3" fill="#a1b4cd"/><path d="M21.35 7.6q-.35.55-.55 1.2l-3.9-1.45q.35-.85 1.3-1.6l3.15 1.85" fill="#c8dae7"/><path d="m20.8 8.8.35.75-3.9.5q-.85-1.45-.35-2.7l3.9 1.45" fill="#a2b5ce"/><path d="m187.65 80.95-2.95-34.9 4.95-.45 1.4 32-3.4 3.35M15.35 16.4q1.35 1.75 3 3.05-2.45 5.9-2.6 10.25l-8.3 20.05 7.9-33.35m-8 46.4L5.7 60.85 16.1 33.5q.25 1.2.8 2.2l-2.7 6.05-.55.35.35 2.7-6.65 18m170.3-16.85 2.45.15-.7 24-1.15-1.35-.6-22.8m43.3 30.6Q209.45 88 194.7 89.75l.45 1.7Q209 89.95 224 77.8q-15.2 15.45-35.1 15.6 1.95-1.4 1.3-3.65 18-2.95 30.75-13.2m-54.7 15.95 13.35.4.5-1.8-14.4-2.3 16.2 1.1q-.55 2.55 1.55 3.75-8.85.35-17.2-1.15M17.05 11.6q3.8 4 9.15 6.7H24l-1.1 2.1q-4.3-2.25-7.3-5.85l6.35 4.4.85-1.35q-3.6-2.55-5.75-6m4.1-2.05q4.95 8.8 24.25 12.3l-.95 1.2Q33 20.9 21.5 14.1q-3.2-2.2-4.25-4.05l3.9-.5m14.3 15.5-1.65-.5.6-1.65-2.5-1.3.2-.75 11.35 3.4-.5.8-6.25-1.8-1.25-.35v2.15m-.3 50.6-13.65-1.7 1.55 2.25-6.6-1.75 2.65-2.9 16.05 4.1" fill="#ebebeb"/><path d="m18.35 19.45.9.7q-4.3 7.55-2.1 13.85l3.25-3.75q2.5 7.1-5.65 12.6v1.9l3-1.2.6 5-1.2 4.05q.5-10.95-2.75-5.05L14 44.8l-.35-2.7.55-.35q7.75-5.05 5.25-9.65l-2.05 4.45-.5-.85q-.55-1-.8-2.2-.45-1.7-.35-3.8.15-4.35 2.6-10.25m164.75 56.2.1 1.55q-5-8.45-11.3-11.8-2.55-3.75-2.45-8.8-2.8 3.15-4 7.45l-.5 2.45-.15 2.65-.55 9.15-1.65 1.2.1-2.4.45-7.7.85-15.9 1.75-1.45-.55 10.1q1.4-5.5 5.95-8.35-1.95 5.45.5 9.55 1.2.7 2.35 1.55 2.3 1.7 4.25 3.85l1.15 1.35q2.05 2.45 3.7 5.55m-34.85 21-1.9.6q4.55-11.9 1.4-17l-3.9 5.3q-10.2-6.75-7.45-17.65l-3.85 5.1q-1.3 14.5-10.15 16.4l-1.95-2.4-2.4 8.2q-4.9 2.3-5.55 6.7l-1.45.05q.6-2.6 2.05-4.55l1.85-1.95L117.1 94l2.85-9.9 1.6 1.7 1.55 1.7 2.15-1.55q5.2-4.4 5.6-12.7 2.25-6.35 7.95-7.5-4.85 10.25 1.95 14.75l3.35 2.65 3.4-6.05q5.05 7.65.75 19.55m-42.3-9.9.15-2.15 6.65-5.1v5.1q4-3.35 4.55-10.15l3.15 2.4Q125.9 72.3 126.6 64l1.1-.05-.4 2.8q-.75 3.45-2.3 6.2l-1.7 2.45-1.85 1.95-1.5 1.2-1.65-1.7q-.75 2.9-1.85 5.05-.85 1.6-1.9 2.8-1.45 1.6-3.25 2.3v-4.8l-2.7 2.25-2.65 2.3m-63.7-42.4 2.15 2.15-.35 5.5-.45 6.8-.1 1.65 2.6 4.8 3.4-6q5.1 7.25 5.8 14.45 4.45-1.15 7.5-8.45l2.65 1.25-1.2-9.05 1.2.35.45 2.7 1.45 7.9L63 67.2q-2.75 7.25-8.95 8.5l-1.2.2q2.4-3.5 0-8l-1.05-1.8-.85-1.45-.9-1.5L49 61.4l-1.75 5.8-.4 1.2-3.5-5.45-1.65-2.5.1-3.5L40.45 49l-3.15-2.45q1 9.25-3.5 9.55l-.6 2.2q-2.95-.05-4-3.55l-2.15 1.6q-1.65 9.4-7.8 13.1l-.55-.8q1.45-.6 2.65-1.9 3.1-3.3 4.75-11l4.35-3.5q.1 2.15.7 3.25l1.1.95.6-1.55q2.3.1 3.35-1.8v-9.9l2.1 3 2.75 1.8.95 2.9.25-6.55M81.4 61.3l2.8.4q5.95 7.55 4.15 16.6l1 1.95 2.65-2.9 4.5 5.8 1.7 2.15-.15 2.9-6.8-8.7-2.15 3.4-1.95-4.85Q88.85 70.9 84.7 65q-1.35-1.9-3.3-3.7m10.55 39-1.65-.25-6.75-8.45v-2.45L79.2 90.6q-3.15-9.8-10.9-11.35.85 4.7-4.1 7.5l-3.7 6.3q.4-4.35 4.45-8.7 3.55-2.45 1.45-7.75 11.4 4.65 14.25 12.1l2.9-2.25v.05l1.9 5.3 1.7 1.3 2.6 2.8q1.45 2 2.2 4.4" fill="#a41313"/><path d="m20.7 21.05 1.35.7-2.35 3.45h3.75v6.4l-.55 1.85-1.15-5.85-3.85 2.45q-.25-4.3 2.8-9m1.95 13.2L19.1 46.1l-.25-4.25 3.8-7.6M39.8 28.3l1.75.55v.95l-1.85 2.15q-3.45 1.65-4.35 5.45l-1.9-1.95-5.3 5.7-3.85 1.65 1.25-4.8 8.15-5.7v2.45l6.1-3.85v-2.6M25.6 72.15l-3.65-1.25 1.7-3.35q5.85-3.5 4.6-8.9l4.6 3.6q4.15-4.1 5.8-9.9l3.05 8.1-.1 3.75-3.9-5.3-1.35 1.55q-2.95 9.9-6.3 4.6l-4.45 4.7v2.4" fill="#c25d32"/><path d="m19.25 20.15 1.45.9q-3.05 4.7-2.8 9l3.85-2.45 1.15 5.85-.25.8-3.8 7.6.25 4.25-.75 2.45-.6-5-3 1.2v-1.9q8.15-5.5 5.65-12.6L17.15 34q-2.2-6.3 2.1-13.85M183.2 77.2l.75 9.8-1.1 1.45-5.25-.2q2.85-6.95-1.5-11.05l-2.55 2.2q-4.9-4.75-7.25-11.7l-1.5 1.45.15-2.65.5-2.45q1.2-4.3 4-7.45-.1 5.05 2.45 8.8 6.3 3.35 11.3 11.8M41.55 29.8v1.9l-3.5 2.8-.65 4.1-4.2 1.95-.7-1.85-3.15 2.9v3.15l-6.5 3.55 1.45-5.5 3.85-1.65 5.3-5.7 1.9 1.95q.9-3.8 4.35-5.45l1.85-2.15m-19.6 41.1-2.4-1.05-.3-.4q6.15-3.7 7.8-13.1l2.15-1.6q1.05 3.5 4 3.55l.6-2.2q4.5-.3 3.5-9.55L40.45 49l1.35 7.95-.1 3.5-3.05-8.1q-1.65 5.8-5.8 9.9l-4.6-3.6q1.25 5.4-4.6 8.9l-1.7 3.35" fill="#c23732"/><path d="M12.75 12.35q1.15 2.25 2.6 4.05l-7.9 33.35L5 59.9q-1.55-2.35-2.5-5.15l10.25-42.4m151.4 67.55-.5 8.8-1.65 1.25.6-10.45 1.65-1.2-.1 1.6m-122.05 2-1.05-1.4.15-4.85.4-11.45.1-3.75 1.65 2.5L42.1 81.9" fill="#19253d"/><path d="M26.2 18.3 24.15 21l-1.25-.6 1.1-2.1h2.2m10.25 7.05-1-.3V22.9l1.25.35-.25 2.1" fill="#7a899f"/><path d="m22.05 21.75 1.35.55 1.95 2.9-1.9 6.4v-6.4H19.7l2.35-3.45m155.55 66.5-12-.5-1.45-7.85.1-1.6.55-9.15 1.5-1.45q2.35 6.95 7.25 11.7l2.55-2.2q4.35 4.1 1.5 11.05M41.2 75.65q-9.15-1.45-15.6-3.5v-2.4l4.45-4.7q3.35 5.3 6.3-4.6l1.35-1.55 3.9 5.3-.4 11.45M25.55 38l2.95-11.35 2.9-.95 8.4 2.6v2.6l-6.1 3.85V32.3L25.55 38" fill="#db7f34"/><path d="M216.3 27.25q-23.95 15.4-47.3 7.6l-6.55-8.95q26.05-11.1 53.85 1.35M46.85 20.4Q13.05 9.85 26.35 5.9q18.4-2.1 35.95 8.45L46.85 20.4" fill="#dfdbe2"/><path d="M111.05 101.95h-3.15l-.45-.45 1.15-17.05 2.7-2.25V87q1.8-.7 3.25-2.3l-1.45 12.7q-1.45 1.95-2.05 4.55M43.2 35.35v-1.7Q57.25 47.75 99 52.7l-.85.9-16.8-2.6-5.2-.8Q73.4 54.15 78.1 57l.75.45 17.4 2.5.55 1Q53.1 56.9 43.2 42.6v-1.2l4.45 4.25 1.75 1.65q3.15-1.3 1.9-5.45l-.35-.3-7.75-6.2m122.9 8.7-1.4 1.05q-2.95 2.6-.35 5.8l-3.2 2.35q-16.2 10.45-51.8 8.9l.75-.9 10.6.05h.95q4.7-2.95 2.9-6.8H109.7l-.35-.55q44.6-1.2 56.75-12.8v2.9m-7.6 10.15 2.65-.95q1.95-3.75-1.35-5.5l-1.5.5q-14.1 4.3-27.95 5.8-3.75 3.15.25 6.3l1.25-.15q14.7-1.75 26.65-6m-9.8-29.45q24.5 10.3-.95 18.8-46.75 9.9-88.35-6.3Q35 24.9 69.8 16.5q43.45-5.65 78.9 8.25M44.45 84.35 42.1 81.9l1.25-18.95 3.5 5.45-2.4 15.95M57.2 44.8l-1.55-.5q-4.75 2.6-.15 6.15l10.9 3.95 1.45.5q5.1-.5 1.55-6.15l-.9-.3-11.3-3.65m9.9 60.4 1.1.4q4.6-1 2.3-6.3l-1-.3-16.15-4.9-1.05-.35q-2.55 1.15-2.3 5.1l1.65.6 15.45 5.75m-27.75-21v-.85q19 15.3 55.3 18.85l-.4 1.05-15.3-1.75-3.6-.4q-.9 2.55 1.05 6.55l2.35.3 16.1 2.15 1.95 1.75Q64.35 110.6 39.35 94.5v-2.8l3.85 3 1.35 1q4.65-.75 3.15-4.85l-1.2-.95-7.15-5.7m78.95-7.35L117.1 94l-2.15 1.45 1.5-13.55q1.1-2.15 1.85-5.05M100.9 64.9v12.45l3.5.7 1.7-13-2 32.75-.15-17.2h-2.8l-1.7 17.75-.85.25 2.3-33.7" fill="#fff"/><path d="m50.95 41.55.35.3q1.25 4.15-1.9 5.45l-1.75-1.65q3.5-.4 3.3-4.1M78.1 57q-4.7-2.85-1.95-6.8l5.2.8q-6.55 2.35-3.25 6m43.9-2.5h2.55q1.8 3.85-2.9 6.8h-.95q3.5-2.75 1.3-6.8m39.15-1.25-2.65.95q1.45-3-.2-5.95l1.5-.5q3.3 1.75 1.35 5.5m-29.3 6.95-1.25.15q-4-3.15-.25-6.3-.7 4 1.5 6.15m32.5-9.3q-2.6-3.2.35-5.8-1.55 3.35-.35 5.8M55.5 50.45q-4.6-3.55.15-6.15l1.55.5q-3.8 2.4-1.7 5.65m13-2 .9.3q3.55 5.65-1.55 6.15l-1.45-.5q3.85-1.15 2.1-5.95m1 50.55 1 .3q2.3 5.3-2.3 6.3l-1.1-.4q4.5-1.45 2.4-6.2m-17.85.45-1.65-.6q-.25-3.95 2.3-5.1l1.05.35q-2.15 2.2-1.7 5.35M46.5 89.9l1.2.95q1.5 4.1-3.15 4.85l-1.35-1q3.25-.5 3.3-4.8m32.25 18.05-2.35-.3q-1.95-4-1.05-6.55l3.6.4q-2.6 3.95-.2 6.45m67.9-1-2.4.7q-3.8-1.45-.5-6.05l1.3-.4q-1.75 4.15 1.6 5.75m-13.1-3.65 3.45-.75q2.45 2.6 0 6.55l-4.35.55q4.85-4.35.9-6.35" fill="#8194b0"/><path d="m146.35 97.25-1.85.55 2.75-11.05-5.3 3.4-8.2-11.35q-2.7 12.15-7.75 14.95l-1.65-2.65-9.65 10.75-2.2.05q.65-4.4 5.55-6.7l2.4-8.2 1.95 2.4q8.85-1.9 10.15-16.4l3.85-5.1q-2.75 10.9 7.45 17.65l3.9-5.3q3.15 5.1-1.4 17M106.1 84.6l.1-2.4 6.3-5.35 2.15 2.9 1.7-8.2 4.1 1.7 4.4-9.2 1.75-.05q-.7 8.3-6.15 12.85l-3.15-2.4q-.55 6.8-4.55 10.15v-5.1l-6.65 5.1m39.95-23 3.8-1.05 8.25 8.85h3.15l-2.9 10.35-2.15-.25 1.45-8.2-3.4 1.45q-1-6-8.2-11.15M62.1 56.7l2.15.75 1.2 9.05-2.65-1.25q-3.05 7.3-7.5 8.45-.7-7.2-5.8-14.45l-3.4 6-2.6-4.8.1-1.65 1.8 2.1q1.45-4.55 6.05-6Q52.1 60.05 57 66q2.4-4.6 5.55-3.15l-.45-6.15m22.1 5 3.45.4q4.65 5.7 5.55 11.4h2.4l.9 9.65-4.5-5.8-2.65 2.9-1-1.95q1.8-9.05-4.15-16.6m6.1 38.35-3.05-.5-5.15-7.5h-6.05q-3.35-6.2-7.5-6.75l-6.1 8.45-1.95-.7 3.7-6.3q4.95-2.8 4.1-7.5 7.75 1.55 10.9 11.35l4.35-1.45v2.45l6.75 8.45" fill="#e0322c"/><path d="M144.45 97.8q-10.95 3.05-25.65 3.85 7.05-2.85 13.25-10.55l1.2 4.1q3.2-1.45 2.65-9.4l3.65 8.45 2.9-2.65 2 6.2m-37.95-20 .7-12.75 1.45-1.45 12.3.5q-4.05 2.75-3.4 4.8-4.05 2.85-5.05 7.95v-4.8l-6 5.75m46.45-18.3q6.4-2.35 11.05-6l-.85 15.9-2.4-4.6v2.65q-2.55-5-7.8-7.95M44.4 46.5q2.75 2.55 6.25 4.75l-5.25 2.7L44.05 52l.35-5.5m7.55 5.55q3.8 2.2 8.4 4L57.7 60.9q-3.25-2.2-5.75-8.85M93.7 62.6l4.3.25 1.2 1.7-.35 7.75-2.75-.5q.4-4.2-2.4-9.2M81.75 98.55q-8.8-1.65-15.75-3.7l3.05-4.5 4.85 4.15 4.8-1 3.05 5.05" fill="#fb892b"/><path d="m107.45 101.5-2.2-2.2.7-12.55 2.65-2.3-1.15 17.05m20.25-37.55q9.15-.35 16.6-1.95l1.5 1.15-18.5 3.6.4-2.8M65.45 57.8q7.15 2.25 15.95 3.5 1.95 1.8 3.3 3.7 4.15 5.9 2.45 13.05V93.1l-1.7-1.3-1.9-5.3v-.05L84.65 65 65.9 60.5l-.45-2.7m32.6 30.4-.5 10.4-2.2 2.15-3.4-.45q-.75-2.4-2.2-4.4l-.65-13 2.15-3.4 6.8 8.7m-44.4 2.05-2.1-1.05.25-23.1 1.05 1.8q2.4 4.5 0 8l1.2-.2-.4 14.55m-4.55-2.5q-1.9-1.15-3.45-2.4l-1.2-1 2.4-15.95.4-1.2-1.6 18.15 4.4-22.2.9 1.5-1.85 23.1m75.9-14.8.25 13-2.15 1.55-1.55-1.7 1.75-10.4 1.7-2.45m-6.7 3.9 1.65 1.7 1.5-1.2.1 8.45-1.6-1.7-2.85 9.9 1.2-17.15m-3.75 7.85q1.05-1.2 1.9-2.8l-1.5 13.55-1.85 1.95 1.45-12.7" fill="#354d74"/><path d="M159.8 91.35q-5 3.1-11.55 5.3 4.3-11.9-.75-19.55l-3.4 6.05-3.35-2.65q-6.8-4.5-1.95-14.75-5.7 1.15-7.95 7.5-.4 8.3-5.6 12.7l-.25-13q1.55-2.75 2.3-6.2l18.5-3.6q7.1 5.6 7.25 12.05l3.4-1.95-2.45 7q3.65 1.55 7.3-.05l-1.5 11.15m-99.3 1.7q-3.75-1.35-6.85-2.8l.4-14.55q6.2-1.25 8.95-8.5l4.35 1.2-1.45-7.9L84.65 65l-1.1 21.45-2.9 2.25Q77.8 81.25 66.4 76.6q2.1 5.3-1.45 7.75-4.05 4.35-4.45 8.7m-8.95-3.85-2.45-1.45 1.85-23.1.85 1.45-.25 23.1m35.6-11.15 1.95 4.85.65 13-2.6-2.8V78.05m34.4 7.75-.1-8.45 1.85-1.95-1.75 10.4" fill="#1b2e53"/><path d="M144.5 97.8h-.05l-2-6.2-2.9 2.65-3.65-8.45q.55 7.95-2.65 9.4l-1.2-4.1q-6.2 7.7-13.25 10.55l-4.1.2 9.65-10.75 1.65 2.65q5.05-2.8 7.75-14.95l8.2 11.35 5.3-3.4-2.75 11.05m-38.3-15.6.3-4.4 6-5.75v4.8l-6.3 5.35m14.75-18.1 3.9-.05-4.4 9.2-4.1-1.7-1.7 8.2-2.15-2.9q1-5.1 5.05-7.95-.65-2.05 3.4-4.8m28.9-3.55 3.1-1.05q5.25 2.95 7.8 7.95V64.8l2.4 4.6-.45 7.7q-2.15 2.35-4.35 2.65l2.9-10.35h-3.15l-8.25-8.85m-99.2-9.3 1.3.8q2.5 6.65 5.75 8.85l2.65-4.85 1.75.65.45 6.15Q59.4 61.4 57 66q-4.9-5.95-5.55-11.1-4.6 1.45-6.05 6l-1.8-2.1.45-6.8 1.35 1.95 5.25-2.7m37 10.85 6.05.5q2.8 5 2.4 9.2l2.75.5-.65 13-1.7-2.15-.9-9.65h-2.4q-.9-5.7-5.55-11.4m-.4 37.45-5.5-1-3.05-5.05-4.8 1-4.85-4.15-3.05 4.5-3.55-1.1 6.1-8.45q4.15.55 7.5 6.75h6.05l5.15 7.5" fill="#e0612c"/><path d="M41.55 31.7V34l-2.05 1.35-.6 4.1-3.1 1.35-3.1 1.3-.95-.85-1.55 4.6L26.3 48l-3.9 2.15.45-1.85 6.5-3.55V41.6l3.15-2.9.7 1.85 4.2-1.95.65-4.1 3.5-2.8" fill="#a61515"/><path d="m189.65 45.6 1.7-.25.9 39.4q-1.4-3.1-1.2-7.15l-1.4-32m2.8-.45 2.65-.55 2.3 41.45.1 1.25-3.1.65-1.2-1.55-.75-41.25M17.15 52.6 12.8 66.95Q9.65 65.2 7.35 62.8l6.65-18 .4 2.75q3.25-5.9 2.75 5.05M5.7 60.85 5 59.9l2.45-10.15 8.3-20.05q-.1 2.1.35 3.8L5.7 60.85m168.5-15.2 3.45.3.6 22.8Q176.3 66.6 174 64.9l.2-19.25M16.9 35.7l.5.85 2.05-4.45q2.5 4.6-5.25 9.65l2.7-6.05M26.3 48l3.9-2.15 1.55-4.6.95.85 3.1-1.3-4.65 14.7q-.6-1.1-.7-3.25l-4.35 3.5q-1.65 7.7-4.75 11L26.3 48" fill="#344767"/><path d="M195.1 44.6q14.05-3.2 27.55-13.2l3.1 36.7Q211.7 79.5 197.4 86.05l-2.3-41.45m-29.35 7.45 2.25-2.2.35-5.2 5.85 1-.2 19.25q-1.15-.85-2.35-1.55-2.45-4.1-.5-9.55-4.55 2.85-5.95 8.35l.55-10.1M41.55 34v9.55l.7.8L42 50.9l-.95-2.9-2.75-1.8-2.1-3v9.9q-1.05 1.9-3.35 1.8l-.6 1.55-1.1-.95 4.65-14.7 3.1-1.35.6-4.1L41.55 34M18.7 68.65l-.8-1.2 4.5-17.3L26.3 48l-4.95 18.75q-1.2 1.3-2.65 1.9" fill="#1c2b48"/><path d="M13 68.55q.9-.9 2.2-.9 1.25 0 2.15.9.9.95.9 2.2 0 1.3-.9 2.2-.9.9-2.15.9-1.3 0-2.2-.9-.9-.9-.9-2.2 0-1.25.9-2.2m.1 2.05q0 .9.65 1.55t1.55.65q.9 0 1.55-.65t.65-1.55q0-.9-.65-1.5-.65-.65-1.55-.65t-1.55.65q-.65.6-.65 1.5" fill="#a8bad1"/><path d="M47.25 67.2 49 61.4l1.05 1.75-4.4 22.2 1.6-18.15" fill="#f6f8fc"/><path d="m191.35 45.35 1.1-.2.75 41.25-.95-1.65-.9-39.4" fill="#c2c7cf"/><path d="m183.7 46.05 3.25 40.6h-1.9l-3.4-40.55 2.05-.05" fill="#a9bbd2"/><path d="M180.1 46.1h.75l2.25 29.55q-1.65-3.1-3.7-5.55l.7-24" fill="#394c6b"/><path d="m194.4 87.95-4.65.65-1.6-1.5-.5-6.15 3.4-3.35q-.2 4.05 1.2 7.15l.95 1.65 1.2 1.55" fill="#c25832"/><path d="M225.95 70.75Q213 83.5 197.5 87.3l-.1-1.25q14.3-6.55 28.35-17.95l.2 2.65" fill="#234861"/><path d="M189.2 90.65q0 1.3-.95 2.25-.9.9-2.2.9-1.35 0-2.25-.9-.95-.95-.95-2.25 0-1.35.95-2.25.9-.95 2.25-.95 1.3 0 2.2.95.95.9.95 2.25m-1.65-1.15q-.5-.6-1.25-.6-.7 0-1.25.6-.5.65-.5 1.5t.5 1.45q.55.65 1.25.65.75 0 1.25-.65.5-.6.5-1.45t-.5-1.5" fill="#b4c7da"/><path d="m167.15 34.15.15.75q.3 1.65-.3 3.15-.5-3.45-4.35-2.7l-.2-2.1q3.85-1.35 4.7.9" fill="#d6ecfe"/><path d="m144.3 62 1.75-.4q7.2 5.15 8.2 11.15l3.4-1.45-1.45 8.2 2.15.25q2.2-.3 4.35-2.65l-.1 2.4-1.3.7q-3.65 1.6-7.3.05l2.45-7-3.4 1.95q-.15-6.45-7.25-12.05L144.3 62" fill="#a41414"/><path d="M105.35 57.05q-.7-.7-1.75-.7-1 0-1.7.7t-.7 1.75q0 1 .7 1.7t1.7.7q1.05 0 1.75-.7t.7-1.7q0-1.05-.7-1.75m1.35 1.55q0 1.3-.95 2.25t-2.25.95q-1.35 0-2.3-.95-.9-.95-.9-2.25 0-1.35.9-2.25.95-.95 2.3-.95 1.3 0 2.25.95.95.9.95 2.25" fill="#a26d7d"/><path d="M105.35 57.05q.7.7.7 1.75 0 1-.7 1.7t-1.75.7q-1 0-1.7-.7t-.7-1.7q0-1.05.7-1.75t1.7-.7q1.05 0 1.75.7m-2.6 49.4-1.15.45q-.7 0-1.15-.45-.45-.45-.45-1.15 0-.65.45-1.15.45-.45 1.15-.45.65 0 1.15.45.45.5.45 1.15 0 .7-.45 1.15" fill="#ea0000"/><path d="M106.7 58.6q0-1.35-.95-2.25-.95-.95-2.25-.95-1.35 0-2.3.95-.9.9-.9 2.25 0 1.3.9 2.25.95.95 2.3.95 1.3 0 2.25-.95t.95-2.25m-6.5-3.1q1.3-1.35 3.2-1.35 1.85 0 3.2 1.35 1.3 1.3 1.3 3.2 0 1.85-1.3 3.2-1.35 1.3-3.2 1.3-1.9 0-3.2-1.3-1.35-1.35-1.35-3.2 0-1.9 1.35-3.2" fill="#adc4e3"/><path d="M101.8 103.05q1.1 0 1.9.75.8.8.8 1.95t-.8 1.95q-.8.75-1.9.75-1.15 0-1.95-.75-.8-.8-.8-1.95t.8-1.95q.8-.75 1.95-.75m.95 3.4q.45-.45.45-1.15 0-.65-.45-1.15-.5-.45-1.15-.45-.7 0-1.15.45-.45.5-.45 1.15 0 .7.45 1.15.45.45 1.15.45l1.15-.45" fill="#fd5154"/><path d="m145.05 101.2-1.3.4q-3.3 4.6.5 6.05l2.4-.7q7.35-2.35 14.95-6.6l-.6 2.1q-25.05 12.05-56.95 10.4 1.4-.75 2.3-1.85l26.3-1.35 4.35-.55q2.45-3.95 0-6.55l-3.45.75q-12.3 2.3-25.35 1l-.05-1.15q35.05 1.2 56-12.3l-.45 1.75q-9.35 5.65-18.65 8.6" fill="#daf0ff"/><path d="m162 89.95-2.2 1.4 1.5-11.15 1.3-.7-.6 10.45" fill="#22506f"/></g><g id="k"><use ffdec:characterId="18" height="41.7" transform="translate(0 68.2)" width="61.95" xlink:href="#m"/><use ffdec:characterId="20" height="196" transform="translate(5.35) scale(.5885)" width="113.45" xlink:href="#n"/></g><g id="m" fill-rule="evenodd"><path d="m57.9 106.7-.55 1.8Q33.4 104.35 10.6 85l-.4-.3 1.6-.95q17.3 16.45 46.1 22.95M9.1 84.05q-5.45-3.4-6-5.65l2.6-.75 4.55 4.85-1.15 1.55" fill="#b8a179" transform="translate(0 -68.2)"/><path d="m10.2 84.7.4.3q22.8 19.35 46.75 23.5l.55-1.8.55-1.8Q36 100.5 12.15 83l-.25-2.25q-5.2-6.3-8.3-4.25-.75.85-.5 1.9.55 2.25 6 5.65l1.1.65m-5.9-9.8q3.8-1.3 7.9 4.1l1.85 3.2q22.35 16.85 45.1 20.7 6.3 5.1-1.5 7Q36.7 106.6 19 94.25q-5.1-3.5-9.95-7.85-6.6-2.5-8.1-8.9l1.1-1.25q1.1-.95 2.25-1.35" fill="#a3725a" transform="translate(0 -68.2)"/><path d="M57.9 106.7q-28.8-6.5-46.1-22.95l-1.6.95-1.1-.65 1.15-1.55-4.55-4.85-2.6.75q-.25-1.05.5-1.9 3.1-2.05 8.3 4.25l.25 2.25q23.85 17.5 46.3 21.9l-.55 1.8" fill="#a88368" transform="translate(0 -68.2)"/><path d="M2.05 76.25 0 72.65l1.75-4.45 2.55 6.7q-1.15.4-2.25 1.35" fill="#7a3d25" transform="translate(0 -68.2)"/></g><g id="w" fill-rule="evenodd"><path d="m45.3 96.35-1.7 1.3-7-6.75-2.15 2.65q-10.4-4.25-11.3-13.95l-8 2.9 1.25-15-3.9 4.6q-4.25-5.45-2.85-16.65l-6.05 1 3.15-8.95L0 40.55Q9.3 29.3 17.7 3.2L17.6 0l11.8 11.85 4.1-6.3 3.6 4.1L52.05 1 50.1 9.4l17.15-1.2-1.7 6.3 3.15-2.9 10.85 14.95-3.85 2.65-6.25-.5v-.05l5.05-3.55-7-9.65-4.6 1.7 2.2-6.75L43.35 14l4.35-3.85 1.7-5.3-11.1 6.75v4.1l-4.8-7-3.15 5.3-3.1-2.65-7.95-6.8q-2.85 11.15-7.35 20.4-4 8.3-9.3 15.1l11.8 9.6-6.05-1.4L6 54l9.9 1-4.8 1.4 1.4 12.8 3.15-3.85 1.45-3.85.95 18.05 8.7-1.65-1.95 2.15q.9 8.7 8.45 11.55l7-6.25-2.4 4.1 7.45 6.9M58.8 25.1l6.55 3.25L61.2 28l4.35 4.55L50.85 35l2.4 2.85-11.55 5.1 6.25 3.1-6.5 7.95 6.5 3.9-4.35 7.7 6.05 3.35-2.15-.5-2.7-.7-4.8-1.2 4.8-7.7-6.5-4.1 5.8-7-6.05-6.25 12.05-4.6-1.2-5.55h13.05L58.8 25.1" fill="#858fb0"/><path d="m40.25 85.35-7 6.25q-7.55-2.85-8.45-11.55l1.95-2.15-8.7 1.65-.95-18.05-1.45 3.85-3.15 3.85-1.4-12.8 4.8-1.4L6 54l2.4-5.75 6.05 1.4-11.8-9.6q5.3-6.8 9.3-15.1L22.4 29.9l17.1-12.05-10.85 1.7-1.4-8.2 3.1 2.65 3.15-5.3 4.8 7v-4.1l11.1-6.75-1.7 5.3L43.35 14l21.75-3.6-2.2 6.75q-8.5 1.8-15.65 7.7v-4.8L36.4 37.15l-3.15-4.35q-4.05 11.2 0 21.45H30.6q-2.7 18.95 9.65 31.1" fill="#fff"/><path d="m45.3 96.35-7.45-6.9 2.4-4.1Q27.9 73.2 30.6 54.25h2.65Q29.2 44 33.25 32.8l3.15 4.35 10.85-17.1v4.8q7.15-5.9 15.65-7.7l4.6-1.7 7 9.65H58.8l3.15 6.25H59.3L48.2 26.8l-1.45 8.4-8.7 6.3 6.05 6.25-5.8 7 6.5 4.1-4.8 7.7 4.8 1.2-2.85 5.3 3.85 1.7v6.75l4.1-2.65 3.95 10.9-8.55 6.6m-33.35-71.4q4.5-9.25 7.35-20.4l7.95 6.8 1.4 8.2 10.85-1.7L22.4 29.9l-10.45-4.95" fill="#d3dffa"/><path d="M47.5 68.45q.8 8 17.1 10.7l-4.1 5.5-6.65 5.1-3.95-10.9-4.1 2.65v-6.75l-3.85-1.7 2.85-5.3 2.7.7m11.8-37.1H48.9l1.2 5.55-12.05 4.6 8.7-6.3 1.45-8.4 11.1 4.55" fill="#b6bdd6"/><path d="m47.8 92.45-.75-1q-1.2-1.25-2.9-1.25-1.65 0-2.9 1.25-1.2 1.25-1.2 3.05 0 1.2.6 2.2l.6.85q1.25 1.25 2.9 1.25 1.7 0 2.9-1.25 1.2-1.3 1.2-3.05 0-1.15-.45-2.05M44.15 89q2.15 0 3.7 1.65 1.55 1.65 1.55 3.9 0 2.3-1.55 3.95-1.55 1.6-3.7 1.65-2.2-.05-3.75-1.65-1.55-1.65-1.55-3.95 0-2.25 1.55-3.9T44.15 89" fill="#700c0e"/><path d="M40.65 96.7q-.6-1-.6-2.2 0-1.8 1.2-3.05 1.25-1.25 2.9-1.25 1.7 0 2.9 1.25l.75 1-.05.95q-1.2-1.4-2.85-.95v-.1q0-.45-.3-.75t-.75-.3q-.45 0-.75.3t-.3.75l.2.6-.55.6-.2-.05-.5.2-.2.45.2.5.2.15q-.5 1.5.05 2.45l-1.35-.55" fill="#ea0000"/><path d="m41.95 94.8-.2-.15-.2-.5.2-.45.5-.2.2.05.25.15.2.45-.2.5-.45.2-.3-.05M43 92.95l-.2-.6q0-.45.3-.75t.75-.3q.45 0 .75.3t.3.75v.1l-.3.65q-.3.3-.75.3t-.75-.3l-.1-.15" fill="#fff"/><path d="M42 97.25q-.55-.95-.05-2.45l.3.05.45-.2.2-.5-.2-.45-.25-.15.55-.6.1.15q.3.3.75.3t.75-.3l.3-.65q1.65-.45 2.85.95-.45 5.65-5.75 3.85" fill="#850505"/><path d="M47.8 92.45q.45.9.45 2.05 0 1.75-1.2 3.05-1.2 1.25-2.9 1.25-1.65 0-2.9-1.25l-.6-.85 1.35.55q5.3 1.8 5.75-3.85l.05-.95" fill="#da98e0"/><path d="M68.25 67.95 85.6 54l4.05 3.9v8.65l10.85 11.8 5.1 3.4-2.9 13-.95-4.8L91.1 100.8v-4.6q-12.5 13.5-30.5 3.7-5.6-4.75-9.45-10.2 8.95-6.6 18.75-6.05l-1.65-15.7m1.4 21 1.7-3.85q-9.8.25-15.45 4.6 8.4 2.85 4.35 6.5 6.45-.45 6.05 3.85 23.6 4.45 31.1-16.6-8.5 9.6-18.8 9.15l4.55-5.8q-7.15 4.6-13.5 2.15" fill="#ca7d4d"/><path d="m89.65 57.9 22.9 21.65-4.15 35.05-.15 1.15-1.15.8-2.95 2.1-.65-.1 2.85-19.15 2.85-19.1-17.6-15.9-1.95-6.5" fill="#7a3d25"/><path d="M60.6 99.9q18 9.8 30.5-3.7v4.6l10.65-10.85.95 4.8 2.9-13-5.1-3.4-10.85-11.8V57.9l1.95 6.5 17.6 15.9-2.85 19.1-7.05 8.65 1.45-5.1-10.35 6.5v-6l-6.5 5.8-13.2-2.1q-5.6-3.4-10.1-7.25" fill="#a6563b"/><path d="m106.35 99.4-2.85 19.15-5.85-.9-2.95 2.3-1.4 1.1-.3-.9-.7-1.9-.2-.6-1.1.45-3.7 1.4-1.5.6v-5.35q-8.35-3.5-15.1-7.6l13.2 2.1 6.5-5.8v6l10.35-6.5-1.45 5.1 7.05-8.65" fill="#814b23"/><path d="M108.4 114.6q.75 2.95 1 5.75l.15 3.85q-.1 2.65-.65 5.15l-.35 1.5-.55 1.6-1.3 3-1.6 2.7-5.05.35q-19.15.85-37.4-6.6-6.85-3.4-11.85-7.05-12.1-9-13.55-20.05l-.15-1.6 11.6-17h4.85l-1.45 1.15-2.7.9-1 1.5-8.7 13.15-1.15 1.75q1.15 6.5 5.5 11.95l.9 1.15 1.05 1.1 4.05 3.7q8.35 6.55 22.5 11.25 4.3 1.45 8.4 2.4l8 1.25 3.75.2h1.4l9.55-.95 1.5-3.5q2.7-7.6 1.95-16.65l1.15-.8.15-1.15M51.15 89.7Q55 95.15 60.6 99.9q4.5 3.85 10.1 7.25 6.75 4.1 15.1 7.6v1.7q-14.75-6.5-23.3-12.55l-5.55-4.45Q51.2 94 50.6 88.95l.55.75m52.35 28.85.65.1-9.45 1.3 2.95-2.3 5.85.9" fill="#3c4658"/><path d="m104.15 118.65 2.95-2.1q.75 9.05-1.95 16.65-3.6 2.35-7.3 2.7l-5.6-2.9q-1.85-6.45.75-12.85l.3.9 1.4-1.1 9.45-1.3M39.7 102.9l8.7-13.15q2.9 5.95 7.95 11.45-2.2 5.75-7.45 11.1-5 .8-8.05-3.5-.85-2.5-1.15-5.9m30.85 28.3q-5.65-1.6-11.85-5.45l-.05-.05q-4.4-3.75-4.65-8.75 4.65-11 11.5-9.55 6.85 4.1 14.05 7.35l.05.05q6.25 3.6 4.75 11.4-.8 5.7-13.8 5" fill="#758495"/><path d="M109.4 120.35q9.25 11.05-2.7 15.1l1.3-3 .55-1.6 3.15-3.4-2.8 1.9q.55-2.5.65-5.15l-.15-3.85" fill="#700c0e"/><path d="m108.55 130.85.35-1.5 2.8-1.9-3.15 3.4" fill="#da98e0"/><path d="m105.15 133.2-1.5 3.5-9.55.95-1-2.15 4.75.4q3.7-.35 7.3-2.7m-12.45 4.45-3.75-.2q-1.1-4.25-1.1-7.95l3.1 3.85q.65 2.15 1.75 4.3m-11.75-1.45q-4.1-.95-8.4-2.4-14.15-4.7-22.5-11.25l.6-2.55q4.1 3.3 8 5.7l.05.05q6.2 3.85 11.85 5.45 6.8 1.95 12.8.55l-2.4 4.45M46 118.85l-1.05-1.1 9.75-9.85-8.7 10.95m-1.95-2.25q-4.35-5.45-5.5-11.95l1.15-1.75q.3 3.4 1.15 5.9 1.65 4.75 5.4 6l-2.2 1.8m4.35-26.85 1-1.5 2.7-.9-1.5 1.6q.6 5.05 6.35 10.5l-.6 1.75q-5.05-5.5-7.95-11.45M91 118.1l1.1-.45.2.6q-1 2.05-1.55 4.1l-2.65 3.5q.65-4.25 2.9-7.75m-5.2-1.65v1l-6.2-2.65-.05-.05q-7.2-3.25-14.05-7.35l-4.2-2.65 1.2-.85q8.55 6.05 23.3 12.55" fill="#99b3bf"/><path d="m93.1 135.5 1 2.15h-1.4q-1.1-2.15-1.75-4.3-1.65-5.6-.2-11 .55-2.05 1.55-4.1l.7 1.9q-2.6 6.4-.75 12.85l.85 2.5m-4.15 1.95-8-1.25 2.4-4.45q2.55-5.35 3.95-12.25l3.7-1.4q-2.25 3.5-2.9 7.75-.3 1.75-.25 3.65 0 3.7 1.1 7.95m-38.9-14.9-4.05-3.7 8.7-10.95-9.75 9.85-.9-1.15 2.2-1.8 2.65-2.5q5.25-5.35 7.45-11.1l.6-1.75 5.55 4.45-1.2.85q-8.15 6.4-10.65 15.25l-.6 2.55m4.45 31.9-3.3.8-2.75-10.35 2.15-2.05-15.4.85-1.1-10.75 4.7-2.25H23.4q-1.05-4.55.7-9.55l-3.85-1.55 6.4-6.5v-6.65L31.2 116l8.7 3.45 1.8 9.4 6.75 1.35 1.7 7.45 5.9-.7 1.4 14.15-2.95 3.35" fill="#fff"/><path d="m97.85 135.9-4.75-.4-.85-2.5 5.6 2.9m-7.1-13.55q-1.45 5.4.2 11l-3.1-3.85q-.05-1.9.25-3.65l2.65-3.5m-4.95-4.9v2.65l1.5-.6q-1.4 6.9-3.95 12.25-6 1.4-12.8-.55 13 .7 13.8-5 1.5-7.8-4.75-11.4l6.2 2.65m-27.15 8.25q-3.9-2.4-8-5.7 2.5-8.85 10.65-15.25l4.2 2.65q-6.85-1.45-11.5 9.55.25 5 4.65 8.75m-17.8-16.9q3.05 4.3 8.05 3.5l-2.65 2.5q-3.75-1.25-5.4-6" fill="#55627b"/><path d="m90.75 164.8-.95-9.4-2.5.85.7-1.2-1 .6 1.25-5.55-8.35 3.85-2.15-7.1-1.2 4.9-.6-3.25-1.8 6.4-5.2-14.6-4.25 1.45-2.15-8.2L60 135l-4.95-6-1.65.85-2.6-5q5 3.65 11.85 7.05 18.25 7.45 37.4 6.6l5.9 2.55-3.6 4.6-.85-2.05q-.2 8.9-3.4 14.2l-4.2-3.4 1.45 2.65-3.15 9.1-1.45-1.35" fill="#b6bdd6"/><path d="m105.1 138.15 4.95-.1q-.9 7.3-5.55 9.75.3 11.1-6.65 14.6l-.95-1.45-2.55 8.55q-2.85-.3-5.05-1.65-1.75-1.1-3.05-2.85-1.5-2-2.5-4.8l-6.35 2.95-1.45.7-4.95-5.2-1.8-1.95-2.35 1.55-.95.65-.5-1.05-1.4-2.7-9.8 1.2-3.85.5-.75-2.95-2.35-9.1h-13.4l-.25-3.9-.6-7.7-9.45-1-1.75-.2q-.4-1.45-.5-2.9l-.05-.9q-.05-2.35.65-4.7.25-.95.65-1.85l-1.7-.45-1.95-.55-.85-.2 7.5-8.55v-9.2l11.55.5.15 1.6-10.6-.75v9.05l-6.4 6.5 3.85 1.55q-1.75 5-.7 9.55h15.4l-4.7 2.25 1.1 10.75 15.4-.85-2.15 2.05 2.75 10.35 3.3-.8 14.55-3.5-3.95 3.25 1.2 2.75 3.5-1.45 6.5 6.65 10.7-6.5 1-.6-.7 1.2-2.1 3.6 5.55 4.95 1.45 1.35 3.15-9.1-1.45-2.65 4.2 3.4q3.2-5.3 3.4-14.2l.85 2.05 3.6-4.6-5.9-2.55 5.05-.35" fill="#858fb0"/><path d="m87 155.65-10.7 6.5-6.5-6.65-3.5 1.45-1.2-2.75 3.95-3.25-14.55 3.5 2.95-3.35-1.4-14.15-5.9.7-1.7-7.45-6.75-1.35-1.8-9.4-8.7-3.45-4.55-9.55v-2.4l10.6.75q1.45 11.05 13.55 20.05l2.6 5 1.65-.85 4.95 6 2.55-1.45 2.15 8.2 4.25-1.45 5.2 14.6 1.8-6.4.6 3.25 1.2-4.9 2.15 7.1 8.35-3.85-1.25 5.55" fill="#d3dffa"/><path d="M89.3 167.85Q81.45 186.7 71.95 196l-18.3-7.6 2.25-5.85-12.05-7.25v-2.65l-2.3 1.65-11.2-10.2 3.85-4.85-14.55 11.8q-9.75-5.8-11.6-16.6l14.95-14-17.6 2.05q-3.5-7.45-3.25-17l16.75-4.85 1.95.55-1.1.55q-3.25 1.65-6.85 2.8 1.65 7.25-.5 12.9l-.6-1.2H5.15l.8 2.2.8 2.25 17-1.35 4.8-4.9-.35.75q-4 8.4-18.1 19.25.55 2.4 1.5 4.55 2.65 6.1 8.5 9.8l17.35-15 1.15-1-6.55 11.05.8.75 8.7 8.4 10.25-10.25-4.75 7.7-2.45 4 11.3 6.5 5.7-10.85.95-1.8q-2.1 9.6-6.85 19.15l8.55 3.2 7.45 2.7Q79.95 180.9 86.25 165q1.3 1.75 3.05 2.85M63 180.5l10.65 3.8-2.05.75-2.05 5.8-11.95-4.6 2.8-5.55-.15-1.2 2.75 1m-42.25-51-1.05.65-.4-4.3 1.45 3.65m-1.8 1.15.2 1.6q-2.65-2.7-2.3-6.85h1.45l.1.8.55 4.45m-15.05.4.65 4.2h7.5q1.05-4.75-.45-10.25l-.65.15-7.7 1.7.65 4.2m13.9 21.9-.2-.3-4.25 2.4q1.25 4.5 4.1 7.95l1.95 2.05 4.45-3.5-6.05-8.6M16.35 163q-3.1-3.9-4.2-8.1l5.2-3.5.45-1.55 3.05 4.65 5.15 7.9h-1.8l-4.7 4.1-3.15-3.5m15.6-10.35-4.8-5.55 1.05-1 3.75 6.55m-2.2 2.15-6.35-7.6.7-.85.4.55 5.25 7.9m43.65 18.4 1.45 1.5q-3.8-.3-5.8-2.8l.35-.45 4 1.75m-1.85 2.75 1.85 1.15q-4.45.5-7.1-2.2l.35-.9 4.9 1.95m-6.6 11.7 3.9 1.35 1.55-4.05-7.4-2.8-1.9-.7-2.05 4.1 5.9 2.1" fill="#ad705e"/><path d="m77.4 163.15 6.35-2.95q1 2.8 2.5 4.8-6.3 15.9-14.55 28.35l-7.45-2.7 6 1.15 3.4-7.5L63 180.5l-1.2-2.1 13.55 3.15 8.05-17.1-4.95.45-1.05-1.75m-23.2-6.8 9.8-1.2 1.4 2.7-11.2 1.05v-2.55m12.65 1.9 2.35-1.55 1.8 1.95-2.65 1.55-1.5-1.95M49.6 153.9l-3.95-4.05-4.1.5-4.3-3 1.3-2.55h8.7l2.35 9.1" fill="#cf967c"/><path d="m64.75 70.8 3.5-2.85 1.65 15.7-4-1.45-1.15-11.4" fill="#a5563a"/><path d="M53.55 86.2q2.7-1.95 6.45-2.75v-8.7l4.75-3.95 1.15 11.4 4 1.45q-9.8-.55-18.75 6.05l-.55-.75 1.5-1.6 1.45-1.15" fill="#803724"/><path d="M69.65 88.95Q76 91.4 83.15 86.8l-4.55 5.8q10.3.45 18.8-9.15-7.5 21.05-31.1 16.6.4-4.3-6.05-3.85 4.05-3.65-4.35-6.5 5.65-4.35 15.45-4.6l-1.7 3.85" fill="#f2c281"/><path d="m64.25 190.65-8.55-3.2q4.75-9.55 6.85-19.15l-.95 1.8-5.2 5.9-9.35-5.55 4.75-7.7.6-1.8-11.8 7.85-6.4-5.95-1.35 1.75-.8-.75 6.55-11.05-1.15 1-10.35 5.7-7.1-9.4.85 4.4-3.05-4.65-.45 1.55-5.2 3.5q1.1 4.2 4.2 8.1l-4.75-4q-.95-2.15-1.5-4.55 14.1-10.85 18.1-19.25h2.65l2.75 5.7.25 3.9h4.7l-1.3 2.55 4.3 3 4.1-.5 3.95 4.05.75 2.95 3.85-.5v2.55l11.2-1.05.5 1.05.95-.65 1.5 1.95 2.65-1.55 4.95 5.2 1.45-.7 1.05 1.75 4.95-.45-8.05 17.1-13.55-3.15 1.2 2.1-2.75-1 .15 1.2-2.8 5.55 11.95 4.6 2.05-5.8 2.05-.75-3.4 7.5-6-1.15M28.2 146.1l-1.05 1 4.8 5.55 1.3-1.7-5.05-4.85m-3.7.8-.4-.55-.7.85 6.35 7.6 1.35-1.7-6.6-6.2m11.05 14.3 4.2 4.2 1.6-1.45-2.65-4.1 1.3-5.8-4.45 7.15m33.85 10.25-.35.45q2 2.5 5.8 2.8l-1.45-1.5-3-3.2-1 1.45M66.65 174l-.35.9q2.65 2.7 7.1 2.2l-1.85-1.15L67 173.1l-.35.9m-17.6-4 6 4.2-3.7-4.8 1.7-5.7-4 6.3" fill="#deca9c"/><path d="m28.2 135.2.35-.75-4.8 4.9-17 1.35-.8-2.25 7.8-.65 1.4-11.6q2 5.65 1.7 11.75l3.65-.5 4.2-4-1.15-1.25 9.45 1 .6 7.7-2.75-5.7H28.2m-8.45-13.45 1.1-.55 1.7.45q-.4.9-.65 1.85l-2.15-1.75m1.55 7.35-.55.4-1.45-3.65.95-.35 1 2.7.05.9m-1.6 1.05-.75.5-.55-4.45.9-.35.4 4.3" fill="#e4b995"/><path d="m5.95 138.45-.8-2.2h6.65l.6 1.2q2.15-5.65.5-12.9 3.6-1.15 6.85-2.8l2.15 1.75q-.7 2.35-.65 4.7l-1-2.7-.95.35-.9.35-.1-.8h-1.45q-.35 4.15 2.3 6.85l-.2-1.6.75-.5 1.05-.65.55-.4q.1 1.45.5 2.9l1.75.2 1.15 1.25-4.2 4-3.65.5q.3-6.1-1.7-11.75l-1.4 11.6-7.8.65" fill="#ffeec3"/><path d="m10.95 125.15.65-.15q1.5 5.5.45 10.25h-7.5l-.65-4.2 7.05-.5v-5.4m6.5 37.85 3.75-2.8-3.4-7.25 6.05 8.6-4.45 3.5-1.95-2.05m47.5 24.65 1.1-2.95-3.05-2.55 7.4 2.8-1.55 4.05-3.9-1.35" fill="#deb8a7"/><path d="M10.95 125.15v5.4l-7.05.5-.65-4.2 7.7-1.7m6.5 37.85q-2.85-3.45-4.1-7.95l4.25-2.4.2.3 3.4 7.25-3.75 2.8M63 182.15l3.05 2.55-1.1 2.95-5.9-2.1 2.05-4.1 1.9.7" fill="#ffe2c7"/><path d="m37.45 153.8-17.35 15q-5.85-3.7-8.5-9.8l4.75 4 3.15 3.5 4.7-4.1H26l-5.15-7.9-.85-4.4 7.1 9.4 10.35-5.7" fill="#e3b793"/><path d="m31.95 152.65-3.75-6.55 5.05 4.85-1.3 1.7m-2.2 2.15-5.25-7.9 6.6 6.2-1.35 1.7" fill="#e3b794"/><path d="m35.55 161.2 4.45-7.15-1.3 5.8 2.65 4.1-1.6 1.45-4.2-4.2m13.5 8.8 4-6.3-1.7 5.7 3.7 4.8-6-4.2" fill="#fffbe9"/><path d="M51.8 162.75 41.55 173l-8.7-8.4 1.35-1.75 6.4 5.95 11.8-7.85-.6 1.8" fill="#d6a184"/><path d="m61.6 170.1-5.7 10.85-11.3-6.5 2.45-4L56.4 176l5.2-5.9m11.8 3.1-4-1.75 1-1.45 3 3.2m-1.85 2.75-4.9-1.95.35-.9 4.55 2.85" fill="#cd937a"/><path d="m87.85 62-2.55 1.2q-2.3 11.5-6 11.75-6-9.1 2.9-6.95l-6.75-7.7h-3.4q-6.1 4.3-15 2.2 0-3.45 7.55-10.9-11.2-19.3 10.1-9.9l3.9-2.65L80.5 54l2.9 6.55q3.3-2.9 4.45 1.45" fill="#7c5332"/><path d="M79.3 74.95q3.7-.25 6-11.75l2.55-1.2 2.55-1.25q-2.5-13.7-10.1-22.85l-1.7 1.15-3.9 2.65q-21.3-9.4-10.1 9.9-7.55 7.45-7.55 10.9-.05 4.6 13.55 1.9 5.05 10.75 8.7 10.55m11.95-8.15-.55-4.35-4.15 1.7q-4.65 23.35-16.4 2.4-25.05 3.4-7.25-15.4-10.45-20.5 11.6-10.9l4.65-3.65-3.65-3.55q-2.75-2.4-6.05-4.35l6.25.5q14.65 10.05 16.6 29.9-.1 4.3-1.05 7.7m-41.6 2.15q6.1 7.25 22.4 11.1l-7.45-.9q-16.3-2.7-17.1-10.7l2.15.5" fill="#7a3d25"/><path d="M87.85 62q-1.15-4.35-4.45-1.45L80.5 54l-1.9-14.95 1.7-1.15q7.6 9.15 10.1 22.85L87.85 62m-30.8.5q8.9 2.1 15-2.2h3.4L82.2 68q-8.9-2.15-2.9 6.95-3.65.2-8.7-10.55-13.6 2.7-13.55-1.9" fill="#68452a"/><path d="m75.5 33.05 3.65 3.55-4.65 3.65q-22.05-9.6-11.6 10.9-17.8 18.8 7.25 15.4 11.75 20.95 16.4-2.4l4.15-1.7.55 4.35Q87.9 78.5 74.3 79.9 51.45 72.55 49.9 62l4.1-3.15q-8.1-6.15 3.35-14-9.5-8.35 12.55-8.2-1.95-4.95 5.6-3.6" fill="#c5704a"/><path d="M69.45 28.7q3.3 1.95 6.05 4.35-7.55-1.35-5.6 3.6-22.05-.15-12.55 8.2-11.45 7.85-3.35 14L49.9 62q1.55 10.55 24.4 17.9l-2.25.15q-16.3-3.85-22.4-11.1L43.6 65.6l4.35-7.7-6.5-3.9 6.5-7.95-6.25-3.1 11.55-5.1-2.4-2.85 14.7-2.45L61.2 28l8.25.7" fill="#9c5533"/><path d="m52.85 101.5-.75-1.05Q50.8 99.1 49 99.1t-3.1 1.35q-1.25 1.35-1.25 3.25 0 1.3.6 2.35l.65.9q1.3 1.35 3.1 1.35t3.1-1.35q1.3-1.35 1.3-3.25 0-1.2-.55-2.2m-3.9-3.65q2.35 0 4 1.75t1.65 4.2q0 2.45-1.65 4.2-1.65 1.7-4 1.7-2.3 0-3.95-1.7-1.7-1.75-1.7-4.2t1.7-4.2q1.65-1.75 3.95-1.75" fill="#700c0e"/><path d="M45.25 106.05q-.6-1.05-.6-2.35 0-1.9 1.25-3.25 1.3-1.35 3.1-1.35t3.1 1.35l.75 1.05-.05 1q-1.25-1.5-3-1v-.1l-.35-.8q-.3-.3-.75-.3-.5 0-.85.3-.3.35-.3.8l.2.65-.55.65-.25-.05-.55.2-.2.5.2.5.25.15q-.55 1.65 0 2.65l-1.4-.6" fill="#ea0000"/><path d="m46.65 104-.25-.15-.2-.5.2-.5.55-.2.25.05.2.15.25.5-.25.5-.45.2-.3-.05m1.1-1.95-.2-.65q0-.45.3-.8.35-.3.85-.3.45 0 .75.3l.35.8v.1l-.35.7q-.3.35-.75.35-.5 0-.85-.35l-.1-.15" fill="#fff"/><path d="M46.65 106.65q-.55-1 0-2.65l.3.05.45-.2.25-.5-.25-.5-.2-.15.55-.65.1.15q.35.35.85.35.45 0 .75-.35l.35-.7q1.75-.5 3 1-.45 6.05-6.15 4.15" fill="#850505"/><path d="M52.85 101.5q.55 1 .55 2.2 0 1.9-1.3 3.25T49 108.3q-1.8 0-3.1-1.35l-.65-.9 1.4.6q5.7 1.9 6.15-4.15l.05-1" fill="#da98e0"/><path d="m64.1 112.45-.75-1.05q-1.3-1.35-3.1-1.35t-3.1 1.35q-1.25 1.35-1.25 3.25 0 1.3.6 2.35l.65.9q1.3 1.35 3.1 1.35t3.1-1.35q1.3-1.35 1.3-3.25 0-1.2-.55-2.2m-3.9-3.65q2.35 0 4 1.75t1.65 4.2q0 2.45-1.65 4.2-1.65 1.7-4 1.7-2.3 0-3.95-1.7-1.7-1.75-1.7-4.2t1.7-4.2q1.65-1.75 3.95-1.75" fill="#700c0e"/><path d="M56.5 117q-.6-1.05-.6-2.35 0-1.9 1.25-3.25 1.3-1.35 3.1-1.35t3.1 1.35l.75 1.05-.05 1q-1.25-1.5-3-1v-.1q0-.45-.35-.8l-.75-.3q-.5 0-.85.3-.3.35-.3.8l.2.65-.55.65-.25-.05-.55.2-.2.5.2.5.25.15q-.55 1.65 0 2.65l-1.4-.6" fill="#ea0000"/><path d="m57.9 114.95-.25-.15-.2-.5.2-.5.55-.2.25.05.2.15.25.5-.25.5-.45.2-.3-.05M59 113l-.2-.65q0-.45.3-.8.35-.3.85-.3l.75.3q.35.35.35.8v.1l-.35.7q-.3.35-.75.35-.5 0-.85-.35L59 113" fill="#fff"/><path d="M57.9 117.6q-.55-1 0-2.65l.3.05.45-.2.25-.5-.25-.5-.2-.15.55-.65.1.15q.35.35.85.35.45 0 .75-.35l.35-.7q1.75-.5 3 1-.45 6.05-6.15 4.15" fill="#850505"/><path d="M64.1 112.45q.55 1 .55 2.2 0 1.9-1.3 3.25t-3.1 1.35q-1.8 0-3.1-1.35l-.65-.9 1.4.6q5.7 1.9 6.15-4.15l.05-1" fill="#da98e0"/><path d="m81.5 120.8-.75-1.05q-1.3-1.35-3.1-1.35t-3.1 1.35Q73.3 121.1 73.3 123q0 1.3.6 2.35l.65.9q1.3 1.35 3.1 1.35t3.1-1.35q1.3-1.35 1.3-3.25 0-1.2-.55-2.2m-3.9-3.65q2.35 0 4 1.75t1.65 4.2q0 2.45-1.65 4.2-1.65 1.7-4 1.7-2.3 0-3.95-1.7-1.7-1.75-1.7-4.2t1.7-4.2q1.65-1.75 3.95-1.75" fill="#700c0e"/><path d="M73.9 125.35q-.6-1.05-.6-2.35 0-1.9 1.25-3.25 1.3-1.35 3.1-1.35t3.1 1.35l.75 1.05-.05 1q-1.25-1.5-3-1v-.1q0-.45-.35-.8-.3-.3-.75-.3-.5 0-.85.3-.3.35-.3.8l.2.65-.55.65-.25-.05-.55.2-.2.5.2.5.25.15q-.55 1.65 0 2.65l-1.4-.6" fill="#ea0000"/><path d="m75.3 123.3-.25-.15-.2-.5.2-.5.55-.2.25.05.2.15.25.5-.25.5-.45.2-.3-.05m1.1-1.95-.2-.65q0-.45.3-.8.35-.3.85-.3.45 0 .75.3.35.35.35.8v.1l-.35.7q-.3.35-.75.35-.5 0-.85-.35l-.1-.15" fill="#fff"/><path d="M75.3 125.95q-.55-1 0-2.65l.3.05.45-.2.25-.5-.25-.5-.2-.15.55-.65.1.15q.35.35.85.35.45 0 .75-.35l.35-.7q1.75-.5 3 1-.45 6.05-6.15 4.15" fill="#850505"/><path d="M81.5 120.8q.55 1 .55 2.2 0 1.9-1.3 3.25t-3.1 1.35q-1.8 0-3.1-1.35l-.65-.9 1.4.6q5.7 1.9 6.15-4.15l.05-1" fill="#da98e0"/><path d="m99.85 125.25-.75-1.05q-1.3-1.35-3.1-1.35t-3.1 1.35q-1.25 1.35-1.25 3.25 0 1.3.6 2.35l.65.9q1.3 1.35 3.1 1.35t3.1-1.35q1.3-1.35 1.3-3.25 0-1.2-.55-2.2m-3.9-3.65q2.35 0 4 1.75t1.65 4.2q0 2.45-1.65 4.2-1.65 1.7-4 1.7-2.3 0-3.95-1.7-1.7-1.75-1.7-4.2t1.7-4.2q1.65-1.75 3.95-1.75" fill="#700c0e"/><path d="M92.25 129.8q-.6-1.05-.6-2.35 0-1.9 1.25-3.25 1.3-1.35 3.1-1.35t3.1 1.35l.75 1.05-.05 1q-1.25-1.5-3-1v-.1q0-.45-.35-.8-.3-.3-.75-.3-.5 0-.85.3-.3.35-.3.8l.2.65-.55.65-.25-.05-.55.2-.2.5.2.5.25.15q-.55 1.65 0 2.65l-1.4-.6" fill="#ea0000"/><path d="m93.65 127.75-.25-.15-.2-.5.2-.5.55-.2.25.05.2.15.25.5-.25.5-.45.2-.3-.05m1.1-1.95-.2-.65q0-.45.3-.8.35-.3.85-.3.45 0 .75.3.35.35.35.8v.1l-.35.7q-.3.35-.75.35-.5 0-.85-.35l-.1-.15" fill="#fff"/><path d="M93.65 130.4q-.55-1 0-2.65l.3.05.45-.2.25-.5-.25-.5-.2-.15.55-.65.1.15q.35.35.85.35.45 0 .75-.35l.35-.7q1.75-.5 3 1-.45 6.05-6.15 4.15" fill="#850505"/><path d="M99.85 125.25q.55 1 .55 2.2 0 1.9-1.3 3.25t-3.1 1.35q-1.8 0-3.1-1.35l-.65-.9 1.4.6q5.7 1.9 6.15-4.15l.05-1" fill="#da98e0"/></g><g id="x" fill-rule="evenodd"><path d="M78.75 43q9.85-6.3 19.65-3.05V33.1q1.9 5.45 2.9 11.9-5.5-4.5-12.7-4.5-5.4 0-9.85 2.5" fill="#8295b1"/><path d="M78.75 43q4.45-2.5 9.85-2.5 7.2 0 12.7 4.5-1-6.45-2.9-11.9-5.65-16.2-19.25-24.05L76 7.4l-3.75-1.6q-5.3-2-11.5-3-2.4-.05-4.65.05-16.15.65-27 9.1-10.5 8.2-15.95 23.9l-4.4.7Q24.1-6.35 67.5 1.1q32.35 8.6 35.55 45.45l.9.95q6.35 7.05 6.35 16.95 0 9.9-6.35 16.9Q97.6 88.4 88.6 88.4l-1.4-.05-2.35-.3q-4.1-.75-7.55-3.1-2.15-1.45-4.05-3.6l-.65-.7q-1.55-1.85-2.7-3.95-1.75-3.1-2.45-6.7-.45-2.1-.55-4.35v-1.2q0-7.5 3.65-13.35l.75-1.2 1.95-2.4 1.9-1.9 1.15-.9.85-.65 1.6-1.05M2.4 58.65Q1.8 46.4 10.3 38.6q2.1 1.35 3.75 2.95Q6.4 48 5.75 59.7L2.4 58.65m104.6 3.6q-.55-5.5-4.25-9.6-4.4-4.8-10.6-4.8-6.15 0-10.55 4.8-4.4 4.85-4.4 11.7 0 6.8 4.4 11.65 4.4 4.85 10.55 4.85 6.2 0 10.6-4.85 2.55-2.8 3.6-6.3.8-2.55.8-5.35l-.15-2.1m1.1 2.15q0 7.3-4.7 12.45Q98.75 82 92.1 82q-6.6 0-11.3-5.15-4.65-5.15-4.65-12.45 0-7.3 4.65-12.45 4.7-5.2 11.3-5.15 6.65-.05 11.3 5.15 4.7 5.15 4.7 12.45m-5 15.95q6-6.55 6-15.85 0-9.35-6-15.9Q97.15 42 88.7 42t-14.4 6.6q-5.95 6.55-5.95 15.9 0 9.3 5.95 15.85 5.95 6.6 14.4 6.6t14.4-6.6" fill="#6b7e96"/><path d="M98.4 33.1v6.85Q88.6 36.7 78.75 43l-1.6 1.05-1.95-3.9 1.95-.95-7.5-9.4.5-.85 8.3 6.3-2.85-.75L78 38q8.95-3.5 17.9-3.5-4.6-17.45-20.2-24.85l3.45-.6Q92.75 16.9 98.4 33.1M29.1 11.95q10.85-8.45 27-9.1l1.4 2.1q-15.25.95-28.4 7M72.25 5.8 76 7.4l-4.55 1.05-2.25-1.3q1.55-.65 3.05-1.35m-56.7 37.4q1.8 2.15 2.75 4.7l-.25.35v.05l-.1.05-2.05 2.45.95 2.65-6.85 1.2q.15-6.2 5.55-11.45m29.9-20.6-4.5.2v-2.3l2.8-1.55 1.7 3.65" fill="#acc3e2"/><path d="M107 62.25q-2.15-5.7-6.45-9.3-4.6-.95-9.85.6l-.55-.75Q89 51.55 87.4 51.55t-2.7 1.25q-1.15 1.25-1.15 3t1.15 3l1.3.95-.9 1.45h-.3q-.95 0-1.6.7-.65.75-.65 1.75t.65 1.75q.65.7 1.6.7l.6-.05 1.8 5.35q-.1.75-.05 1.45.95 6 6.2 3.45 7.15 2.25 13-6.6-1.05 3.5-3.6 6.3-4.4 4.85-10.6 4.85Q86 80.85 81.6 76t-4.4-11.65q0-6.85 4.4-11.7 4.4-4.8 10.55-4.8 6.2 0 10.6 4.8 3.7 4.1 4.25 9.6" fill="#51fdf8"/><path d="m85.4 66.05-.6.05q-.95 0-1.6-.7-.65-.75-.65-1.75t.65-1.75q.65-.7 1.6-.7h.3q.75.15 1.25.7l.6 1.05-2.1-.1q.65 1.2 1.95 1.8l-.45.75-.95.65m.6-6.3-1.3-.95q-1.15-1.25-1.15-3t1.15-3q1.1-1.25 2.7-1.25t2.75 1.25l.55.75q.6 1 .6 2.25 0 1.75-1.15 3t-2.75 1.25l-1.4-.3" fill="#fff"/><path d="M90.7 53.55q5.25-1.55 9.85-.6 4.3 3.6 6.45 9.3l.15 2.1q0 2.8-.8 5.35-5.85 8.85-13 6.6l2.85-1.75q5.55-7.6-2.05-8.6 4.7-5.75 6.4-13-6.7 9.7-13.6 10l-.6-1.05q-.5-.55-1.25-.7l.9-1.45 1.4.3q1.6 0 2.75-1.25t1.15-3q0-1.25-.6-2.25M87.2 71.4l-1.8-5.35.95-.65.45-.75q1.8.8 4.7.45-3.75 3.45-4.3 6.3" fill="#4bbdd5"/><path d="M93.35 76.3q-5.25 2.55-6.2-3.45-.05-.7.05-1.45.55-2.85 4.3-6.3-2.9.35-4.7-.45-1.3-.6-1.95-1.8l2.1.1q6.9-.3 13.6-10-1.7 7.25-6.4 13 7.6 1 2.05 8.6l-2.85 1.75" fill="#f7e727"/><path d="m79.15 9.05-3.45.6q15.6 7.4 20.2 24.85-8.95 0-17.9 3.5l-2.4-3.5 2.85.75-8.3-6.3.5-.85-8.95-4.8 1.45-5.3q-8.85 3.8-17.7 4.6l-1.7-3.65-2.8 1.55v-2.3Q30.8 20.8 24.1 27.65l-3.4-2.45-4.3 10.15-3.25.5q5.45-15.7 15.95-23.9 13.15-6.05 28.4-7l-1.4-2.1q2.25-.1 4.65-.05 6.2 1 11.5 3-1.5.7-3.05 1.35l2.25 1.3L76 7.4l3.15 1.65M108.1 64.4q0-7.3-4.7-12.45-4.65-5.2-11.3-5.15-6.6-.05-11.3 5.15-4.65 5.15-4.65 12.45 0 7.3 4.65 12.45Q85.5 82 92.1 82q6.65 0 11.3-5.15 4.7-5.15 4.7-12.45m-5 15.95q-5.95 6.6-14.4 6.6t-14.4-6.6q-5.95-6.55-5.95-15.85 0-9.35 5.95-15.9Q80.25 42 88.7 42t14.4 6.6q6 6.55 6 15.9 0 9.3-6 15.85m-89.05-38.8 1.5 1.65q-5.4 5.25-5.55 11.45l-2.8.45 3.65 4.6q-2.65.4-5.1 0 .65-11.7 8.3-18.15" fill="#d8efff"/><path d="m70.15 28.95-.5.85 7.5 9.4-1.95.95 1.95 3.9-.85.65-3.5-5 2.3-1.2-7.45-8.45 1.4-1.8-9-3.75.6-3.85-.4.15q-10.5 3.85-21.2 3.1l.5-4-3 1.2q-6.9 2.95-12.7 8.35L21 27.05q-3.2 6.25-3.5 11.55l-1.35-1.95-4.8 1.1.95.8q4.55 3.85 7 8.05l-.95 1.3h-.05q-.95-2.55-2.75-4.7l-1.5-1.65q-1.65-1.6-3.75-2.95-1.4-.95-3.1-1.8l1.55-.25 4.4-.7 3.25-.5 4.3-10.15 3.4 2.45q6.7-6.85 16.85-9.45v4.6l4.5-.2q8.85-.8 17.7-4.6l-1.45 5.3 8.95 4.8-.5.85m17.05 59.4q-13.3 12.6-19.2 25.1l-10.4-3.15q-5.05 1.85-10.85 7.25l-4.3-3.85q-7.15 3.5-9.65 12.55-9.8-6.8-16.4-19.05l-2.9 2.65q-3.1-2.05-5.3-9.4H4.1l2.05-6.95.85 1-1.6 5.35h2.8l.6-1.7q1.4 6.5 4.45 10.15l2.55-1.95-.75-2.3q6.9 12.75 17 19.3 3.8-6.8 10.4-10.85l-1-2.4 5.9 5.65q1.4-2.25 3.6-4 3.35-2.65 8.6-4.05l-.4 1.05-.45 1.1 8.45 2.15 2.15-3.9.85-1.5q5.65-9.35 14.7-18.55l2.35.3m-80-17.8Q.85 65.9 0 57.3l2.4 1.35 3.35 1.05q2.45.4 5.1 0L7.2 55.1l2.8-.45 6.85-1.2.4.8q-3.75 1.9-7.5 1.8l2.55 3.15h2.4Q9.25 62.65 3 61.05q.6 2.2 1.7 4.15 1.35 2.5 3.5 4.55l-1 .8M20.5 43.4l-1.7-2.5 1.3 1.5 7 8.25v-3.7l.45 1.4 1.85 6.75 2.1-.8q7.65-3.2 15.3-8.3l2.75-1.85-7.1 6.75-.3 1.25-.35 1.3L65.2 45l-3.7 6.15 1.15-.15 8.65-1.1-.75 1.2-11.6 1 3.6-4.55-15.5 4.9-6.8 2.2.25-1.05.5-1.95q-4.1 2.35-8.8 3.8l-4.25 1.1V54.5l-6.8-10.1-.65-1" fill="#7a3d25"/><path d="M6.15 93.5q-1.8-2.2-3.25-4.6L4.55 85l-3.1-6.5 5.75-7.95 1-.8L17 62.7l.55-6.8.65.05v6.4l1.1.6-1.2.9Q9.5 70.25 3.35 79.1q3.05 8.05 9.2 12.45l-.4.55q-3.4-2.4-6.5-5.65l-.95 1.6 1.15 2.15q6.35 11 21.9 15.95l2.35.7q14.65-.7 28.7-6.15v-6.35h.6q3.4.8 6.85.15l1.25-.3 5.05-7.6-5.8-.85 1-3.75.6-2.15q-3.5-.35-6.75-1.8l-2.65-1.45-2.3-1.6.9-.55q4.9-3.1 9.35-8.8.1 2.25.55 4.35l-2 5.15 4.45 1.55q1.15 2.1 2.7 3.95l-.5 2.65 5.15 1.7-.85 6.4q3.15-3.1 3.4 0-7.1 7.15-9.65 15.2l-.85 1.5-2.05 2.1-8.1-1.45.4-1.05q-5.25 1.4-8.6 4.05l-3.8 2.2-3.9-4.95q-7.6 2.3-14.3 9.15L14.85 102l-2.45 2.4-3.5-6.95-1.2 1.05v-3.2l-.7-.8-.85-1m54.1-72.7.4-.15-.6 3.85 9 3.75-1.4 1.8 7.45 8.45-2.3 1.2 3.5 5-1.15.9q-1.8-3.45-5.4-4.65 1.6 5.15-1.65 4.65-1.05 3.45-5.45 5.4l-1.15.15L65.2 45l-23.4 8.45.35-1.3 13.8-7.25q6.9-3.85 0-6.05 4.3-2.5 9-.5l-4.55-4.7 7.35 1.2q-1-5.5-7.85-9Q55 28.3 47.75 29.1l6-4.35 6.5-3.95M70.3 84.9l-.4-6.65-1.2 6.3 1.6.35m-6.05-7.6-2.4-2.4 4.5-5.9-6.55 5.9q2.05 1.55 4.45 2.4" fill="#93552f"/><path d="m36.55 21.1 3-1.2-.5 4-8.55 1.95 6.05-4.75m-9 27.25 2.6 4.6q2.35-2.95 4.2-8.8l5.55-3q-6.55 11.7 13.6-4.25l-3.95 7.25L46.8 46q-8.15 4.85-11.25 0-.55 5.6-4.05 8.3l-2.1.8-1.85-6.75" fill="#a5563a"/><path d="m21.8 32.45 2.45.85 5.9-3.75v8.95Q39.3 35.3 44 28.7l1.45 3.75q5.7.3 10.95-4.6Q51.8 39.1 39.9 40.3l1.2-4.25q-8.25 3.65-11.8 11.5-3.65-4.7-2.8-12.55l-2.15 3-2.55-5.55" fill="#f2c281"/><path d="m12.3 38.55-.95-.8 4.8-1.1 1.35 1.95q.3-5.3 3.5-11.55l2.85 2.4q5.8-5.4 12.7-8.35l-6.05 4.75 8.55-1.95q10.7.75 21.2-3.1l-6.5 3.95-6 4.35q7.25-.8 12.15-3.25 6.85 3.5 7.85 9l-7.35-1.2 4.55 4.7q-4.7-2-9 .5 6.9 2.2 0 6.05l-13.8 7.25.3-1.25 7.1-6.75 3.95-7.25q-20.15 15.95-13.6 4.25l-5.55 3q-1.85 5.85-4.2 8.8l-2.6-4.6-.45-1.4-2.05-8.85-1.9 2.7-2.4-5.1-.65 6.7-1.3-1.5 1.7 2.5-.25 1.15q-3.65-4.55-7.95-6m9.5-6.1L24.35 38l2.15-3q-.85 7.85 2.8 12.55 3.55-7.85 11.8-11.5l-1.2 4.25q11.9-1.2 16.5-12.45-5.25 4.9-10.95 4.6L44 28.7q-4.7 6.6-13.85 9.8v-8.95l-5.9 3.75-2.45-.85" fill="#cb7f4f"/><path d="m18.35 47.9.95-1.3.95-2.05.25-1.15.65 1q-.3 5.3-3.8 7l2.05 3.85q9.2 9.55 29.2 4.4l.3-.1 1.7-.45 18.2-6.4q-2.35 1.55-4.8 2.9l-4.25 2.1q-5.8 2.55-11.95 3.8l-6.55.95-2.5.15-9.6-.4-4.1-1.95-2-1.1-1.75-1.05-3.1-2.15-.65-.05.05-.8-.35-.85-.4-.8-.95-2.65 2.05-2.45.1-.05v-.05l.3-.35m9.25 20.6h-3.75Q19 73.4 15.9 79q1.55-6.2 6.25-11.35L21.1 65.6l1.55-.85L24 66.8h4.55l-.95 1.7m31.8 25.85h-.6v-.15l.6.15M12.15 92.1l.4-.55q6.1 4.4 15.4 5.15 23.75-2.55 34.5-12.3-1.5 5.1-15.35 9.5-7.3 2.35-18.05 4.5-9.15-.8-16.9-6.3" fill="#ad705e"/><path d="M19.3 46.6q-2.45-4.2-7-8.05 4.3 1.45 7.95 6l-.95 2.05m.8-4.2.65-6.7 2.4 5.1 1.9-2.7 2.05 8.85v3.7l-7-8.25m-2.5 12.7-.05.8-.55 6.8-8.8 7.05Q6.05 67.7 4.7 65.2q9 1.25 12.9-10.1" fill="#a6563b"/><path d="m48.9 59.55-.3.1q-20 5.15-29.2-4.4l-2.05-3.85q3.5-1.7 3.8-7l6.8 10.1v2.05l4.25-1.1 8.3-1.85-.25 1.05 6.8-2.2q17.25-2.1 1.85 7.1M15.9 79l-.85 2.5q4.85-7.35 12.55-13l.95-1.7H24l-1.35-2.05-1.55.85 1.05 2.05Q17.45 72.8 15.9 79m41.65-4.55-.9.55 2.3 1.6 5.4 5.15q1.8 9.2-4.95 12.6l-.6-.15q-11.6 10.75-31.05 11.95Q12.2 101.2 5.85 90.2q17.55 17.65 41.25 3.7 13.85-4.4 15.35-9.5-10.75 9.75-34.5 12.3-9.3-.75-15.4-5.15-6.15-4.4-9.2-12.45Q9.5 70.25 18.1 63.85h5.65Q28.9 67.5 37.5 65.5q6.65 10.4 22.15 0 .3 5.6-2.1 8.95" fill="#ffeec3"/><path d="m18.2 55.95 3.1 2.15 1.75 1.05 2 1.1-1 .7q3.55 4.5 12.35 2.85l3.4 1.3q-.7-1.05-1.05-2.5l2.5-.15 6.55-.95q6.15-1.25 11.95-3.8L64 55.6q2.45-1.35 4.8-2.9l-18.2 6.4-1.7.45q15.4-9.2-1.85-7.1l15.5-4.9-3.6 4.55 11.6-1q-3.65 5.85-3.65 13.35v1.2q-4.45 5.7-9.35 8.8 2.4-3.35 2.1-8.95-15.5 10.4-22.15 0-8.6 2-13.75-1.65H18.1l1.2-.9-1.1-.6v-6.4" fill="#d29c80"/><path d="m17.25 54.25.35.85Q13.7 66.45 4.7 65.2 3.6 63.25 3 61.05q6.25 1.6 11.7-1.85h-2.4l-2.55-3.15q3.75.1 7.5-1.8" fill="#ce8652"/><path d="m25.05 60.25 4.1 1.95 9.6.4q.35 1.45 1.05 2.5l-3.4-1.3q-8.8 1.65-12.35-2.85l1-.7m36.55 17.8q3.25 1.45 6.75 1.8l-.6 2.15-6.15-3.95m5.15 7.7 5.8.85-5.05 7.6-1.25.3 3.65-6.6-3.15-2.15" fill="#9a6755"/><path d="M27.6 68.5q-7.7 5.65-12.55 13l.85-2.5q3.1-5.6 7.95-10.5h3.75" fill="#e4ba96"/><path d="M5.85 90.2 4.7 88.05l.95-1.6q3.1 3.25 6.5 5.65 7.75 5.5 16.9 6.3 10.75-2.15 18.05-4.5-23.7 13.95-41.25-3.7M32.2 55.45q4.7-1.45 8.8-3.8l-.5 1.95-8.3 1.85" fill="#e4b995"/><path d="M70.15 106.6q2.55-8.05 9.65-15.2-.25-3.1-3.4 0l.85-6.4-5.15-1.7.5-2.65.65.7q1.9 2.15 4.05 3.6 3.45 2.35 7.55 3.1-9.05 9.2-14.7 18.55m-.25-29.9-4.45-1.55 2-5.15q.7 3.6 2.45 6.7M31.5 54.3q3.5-2.7 4.05-8.3 3.1 4.85 11.25 0-7.65 5.1-15.3 8.3" fill="#803724"/><path d="m75.15 45.6-1.9 1.9-1.95 2.4-8.65 1.1q4.4-1.95 5.45-5.4 3.25.5 1.65-4.65 3.6 1.2 5.4 4.65" fill="#814123"/><path d="m70.3 84.9-1.6-.35 1.2-6.3.4 6.65m-6.05-7.6q-2.4-.85-4.45-2.4l6.55-5.9-4.5 5.9 2.4 2.4" fill="#c5714a"/><path d="m58.95 76.6 2.65 1.45L67.75 82l-1 3.75 3.15 2.15-3.65 6.6q-3.45.65-6.85-.15 6.75-3.4 4.95-12.6l-5.4-5.15m-.15 17.75v6.35q-14.05 5.45-28.7 6.15l-2.35-.7q19.45-1.2 31.05-11.95v.15" fill="#d59f82"/><path d="m7 94.5.7.8v3.2l1.2-1.05 3.5 6.95 2.45-2.4 14.1 16.15q6.7-6.85 14.3-9.15l3.9 4.95 3.8-2.2q-2.2 1.75-3.6 4l-5.9-5.65 1 2.4q-6.6 4.05-10.4 10.85-10.1-6.55-17-19.3l.75 2.3-2.55 1.95q-3.05-3.65-4.45-10.15l-.6 1.7H5.4L7 94.5m52.15 14.25 8.1 1.45 2.05-2.1-2.15 3.9-8.45-2.15.45-1.1" fill="#ca7a4d"/><path d="M59.75 57.7 64 55.6q-6.3 7.55-15.45 11.3-6.3 1.7-8.75-1.8-.7-1.05-1.05-2.5l2.5-.15q.3 3.3 4.25 3.2l2.25-.3q6.85-2.25 12-7.65" fill="#471313"/><path d="m41.25 62.45 6.55-.95v1l-.25-.4-.65-.25q-.35 0-.65.25l-.25.65.25.65.35.25-.35.95-.2-.35-.55-.2-.55.2q-.25.25-.25.55l.25.6.55.2v.05q-3.95.1-4.25-3.2" fill="#a8090a"/><path d="m46.6 63.65-.35-.25-.25-.65.25-.65q.3-.25.65-.25l.65.25.25.4.05.25-.3.65-.65.3-.3-.05m-.35.95.05.2-.25.6-.55.2-.55-.2-.25-.6q0-.3.25-.55l.55-.2.55.2.2.35" fill="#fff"/><path d="M47.8 61.5q6.15-1.25 11.95-3.8-5.15 5.4-12 7.65l-2.25.3v-.05l.55-.2.25-.6-.05-.2.35-.95.3.05.65-.3.3-.65-.05-.25v-1" fill="#6f1817"/><path d="m21.3 58.1 1.75 1.05-1.65 1.65-.1-2.7" fill="#fff"/><path d="M18.2 56.9v-.95l3.1 2.15.1 2.7q-2.15 1.15-3.2-3.9" fill="#a9090a"/><path d="m23.05 59.15 2 1.1-1 .7q-5.3 3.35-5.85-.9V56.9q1.05 5.05 3.2 3.9l1.65-1.65" fill="#471313"/></g><use ffdec:characterId="2" height="118.6" width="93.85" xlink:href="#o" id="c"/><use ffdec:characterId="4" height="125.5" width="122.05" xlink:href="#p" id="d"/><use ffdec:characterId="6" height="128.4" width="134.65" xlink:href="#q" id="e"/><use ffdec:characterId="8" height="102.75" width="86.3" xlink:href="#r" id="f"/><use ffdec:characterId="10" height="149.65" width="187.6" xlink:href="#s" id="g"/><use ffdec:characterId="12" height="39.3" width="23.85" xlink:href="#t" id="h"/><use ffdec:characterId="14" height="81.4" width="99.1" xlink:href="#u" id="i"/><use ffdec:characterId="16" height="115.4" width="226.4" xlink:href="#v" id="j"/><use ffdec:characterId="19" height="196" width="113.45" xlink:href="#w" id="n"/><use ffdec:characterId="22" height="126.25" width="110.3" xlink:href="#x" id="l"/><path d="M27.65-.25q0 1.75-8.15 2.95L-.1 3.95-19.75 2.7q-8.1-1.2-8.1-2.95 0-1.7 8.1-2.95L-.1-4.4l19.6 1.2q8.15 1.25 8.15 2.95" fill-opacity=".349" fill-rule="evenodd" transform="translate(27.85 4.4)" id="b"/></defs></svg>