<svg xmlns:ffdec="https://www.free-decompiler.com/flash" xmlns:xlink="http://www.w3.org/1999/xlink" ffdec:objectType="frame" height="90" width="90" xmlns="http://www.w3.org/2000/svg"><use ffdec:characterId="24" height="90.35" transform="translate(-.7 -.35)" width="90.7" xlink:href="#a"/><defs><g id="a" transform="translate(.7 .35)"><use ffdec:characterId="21" height="242.4" transform="matrix(.3723 0 0 .3727 -.675 -.335)" width="223.75" xlink:href="#b"/><use ffdec:characterId="23" height="37.8" transform="scale(2.8572 2.381)" width="31.5" xlink:href="#c"/></g><g id="b" transform="translate(27.6 .9)"><use ffdec:characterId="1" height="27" transform="translate(25.8 217.55) scale(.8862)" width="125.6" xlink:href="#d"/><use ffdec:characterId="2" height="218.85" transform="translate(69.914 -.886) scale(.8862)" width="116.9" xlink:href="#e"/><use ffdec:characterId="2" height="218.85" transform="matrix(-.8164 .0263 0 .8428 94.616 4.18)" width="116.9" xlink:href="#e"/><use ffdec:characterId="3" height="32.5" transform="translate(73.752 154.383) scale(.8862)" width="46.15" xlink:href="#f"/><use ffdec:characterId="4" height="31.8" transform="translate(32.864 158.137) scale(.8862)" width="55.55" xlink:href="#g"/><use ffdec:characterId="5" height="54.3" transform="translate(39.664 166.914) scale(.8862)" width="90.7" xlink:href="#h"/><use ffdec:characterId="6" height="16.45" transform="translate(70.257 187.307) scale(.8862)" width="32.8" xlink:href="#i"/><use ffdec:characterId="6" height="16.45" transform="matrix(-.1983 -.0724 -.2398 .6571 55.67 187.458)" width="32.8" xlink:href="#i"/><use ffdec:characterId="7" height="55.4" transform="translate(50.207 131.407) scale(.8862)" width="48.6" xlink:href="#j"/><use ffdec:characterId="8" height="110.35" transform="translate(35.714 43.914) scale(.8862)" width="101.7" xlink:href="#k"/><use ffdec:characterId="9" height="118.65" transform="translate(42.538 81.58) scale(.8862)" width="74.6" xlink:href="#l"/><use ffdec:characterId="10" height="20.65" transform="translate(49.273 116.94) scale(.8862)" width="43.3" xlink:href="#m"/><use ffdec:characterId="11" height="17.9" transform="translate(29.353 213.353) scale(1.1288)" width="41.9" xlink:href="#n"/><use ffdec:characterId="12" height="38" transform="translate(73.103 174.153) scale(1.1288)" width="64.5" xlink:href="#o"/><use ffdec:characterId="13" height="47.45" transform="translate(144.203 155.803) scale(1.1288)" width="41.6" xlink:href="#p"/><use ffdec:characterId="14" height="41.6" transform="translate(1.703 136.253) scale(1.1288)" width="16.4" xlink:href="#q"/><use ffdec:characterId="15" height="30.7" transform="translate(8.303 181.503) scale(1.1288)" width="63.3" xlink:href="#r"/><use ffdec:characterId="16" height="15.85" transform="translate(78.053 201.503) scale(1.1288)" width="47.4" xlink:href="#s"/></g><g id="e"><path d="m85.6 17.95.05-.6 3.45.3-3.5.3M53.2 63.7l.85-.35.05 1.6-.9-1.25m8.9-5.25v-.15l.05.05.1.15-.15-.05m14.55 40.2v-.05l.05.05h-.05M91.5 121.5h.8l-.65.2-.15-.2m-37.45 29.85.15.05-.3.7.15-.75" fill="#099" fill-rule="evenodd" transform="translate(1 1)"/><path d="M54.05 63.35v-.7h.7l.05.6q.1 1.55.75 3.4l-1.45-1.7-.05-1.6" fill="#007575" fill-rule="evenodd" transform="translate(1 1)"/><path d="m81.25 89.55.3-.4q.6-.5 1.35-.5.7 0 1.25.5.55.45.55 1.15 0 .65-.55 1.1l-.2.15-1.05.35q-.75 0-1.35-.5-.5-.45-.5-1.1l.2-.75m16 11.2q0 .6-.5 1.05l-.8.35-.4.05q-.7 0-1.15-.4-.5-.45-.5-1.05 0-.6.5-1.05l.3-.15.85-.25q.7 0 1.2.4.5.45.5 1.05m-2.35 4.85q.7.3 1.3.85 1.4 1.25 1.4 2.85 0 1.7-1.4 2.9-1.35 1.25-3.25 1.25l-.75-.05q-1.4-.2-2.6-1.2-1.35-1.2-1.35-2.9 0-1.6 1.35-2.85 1.4-1.2 3.35-1.2l1.95.35m12.15 24.1q-1.05 0-1.85-.7-.75-.7-.75-1.6 0-1 .75-1.65.8-.7 1.85-.7 1.1 0 1.9.7.8.65.8 1.65 0 .9-.8 1.6-.8.7-1.9.7m-8.3 4.9q1.65-1.4 3.95-1.4 2.3 0 3.95 1.4 1.65 1.4 1.65 3.45 0 2.05-1.65 3.45-1.65 1.45-3.95 1.45-2.3 0-3.95-1.45-1.6-1.4-1.6-3.45 0-2.05 1.6-3.45M83.4 153.15q1.45 1.25 1.45 3 0 1.85-1.45 3.1t-3.5 1.25q-2.05 0-3.5-1.25l-.5-.55q-.9-1.1-.9-2.55 0-1.75 1.4-3 1.45-1.25 3.5-1.25 1.45 0 2.55.55l.95.7m-15 12.05q-.55.45-1.25.45-.75 0-1.35-.45-.5-.5-.5-1.15 0-.5.3-.9l.2-.25q.6-.45 1.35-.45l.2.05q.6.05 1.05.4.6.5.6 1.15 0 .65-.6 1.15m-33.55 12.3q.75.7 1.05 1.6l.2 1.15q0 1.55-1.25 2.65-1.3 1.15-3.1 1.15-1.5 0-2.6-.75l-.5-.4q-1.25-1.1-1.25-2.65 0-1.6 1.25-2.75 1.35-1.1 3.1-1.1 1.8 0 3.1 1.1m7.45-3.85q0-1 .8-1.65.8-.7 1.9-.7 1.05 0 1.85.7l.2.15q.6.65.6 1.5 0 .95-.8 1.65-.8.65-1.85.65-1.1 0-1.9-.65l-.5-.6q-.3-.45-.3-1.05" fill="#fff" fill-rule="evenodd" transform="translate(1 1)"/><path d="m95.8 18.75-3.15.4q-1.2-.2-5.35-.1l-7.4.8q-3.45.8-5 1.5-1.55.6-3.1 1.55l-6.65 6.15q-.4 0-.4-.15v-.7l.35-.6q1.4-2.25 5.1-4.85 4.35-3.05 7.85-3.75 5.1-1.15 7.55-1.05l3.5-.3q3.55.3 6.7 1.1M67.15 4.65v.95q.2 2.6.55 3.95l1.35 3.1 1.3 3.35q0 1.25-1.65 1.5-.5-2-1.95-4.65-1.15-4.75.4-8.2M55.65 48.9q1.4.75 1.4 1.95 0 .5-.95 1.8l-2.15 2.85q-1.5 2.25-2.3 4.5-1.25-5.5 4-11.1M65 67.85q.7 1.65 1.9 2.95l.6.7.1-.05q-.3.8-.35 1.8v2.85q0 6.65 1.9 13.25 1.95 7 5.2 10.75-3.7-2.2-7.4-12.8-3.6-10.45-3.6-18.05.3-4.85 1.1-5.85-.5 2.1.55 4.45m10.75 55.4q5.95-1.4 7.95-1.4h1.25q-4.85 1.7-9.3 5.1-6.4 4.85-6.4 9.95 0 .65.65 1.85l.9 1.65q-.9 0-2.6-.7-1.75-.65-3.15-.65-5.8 0-11.15 8.05-1.8 2.65-2.85 5.1l.2-3.55q.65-6.35 3.75-8.75 5.05-3.9 8-6.95 4-4.15 5.5-8.1l7.25-1.6" fill="#84ffff" fill-rule="evenodd" transform="translate(1 1)"/><path d="M54.05 62.65q0-3.85.8-5.65 1.15-2.5 4.05-2.5 1 0 1.75.6-.55-1.95-.55-4.7 0-11.15 6.85-19.95 5.8-7.4 13.65-8.8l.7-.25 6.8-.8q9.15 0 17.85 4.5l3.7 2.2q3.4 4.6 4.3 11.3-6.9-10-15.35-12.3-16.75-5.95-24.75 1.65-1.85 1.4-3.3 3.2-5.75 7.1-6.6 21.3-.4 6.55 2.95 7.85 4.7 1.8 17.1-7.4-4.55 4.15-7.5 8.2-4.55 6.35-5.4 12.65.2 8.1 1.75 16 .4 3.6 2.25 5.55 3.65 3.75 13.2.8 4.35-1.4 9.9-4.15-5 2.75-8.5 5.65l-1 .8-7.25 1.25q-2.8 0-4.25-.75l-.5-.25-.05-.05v.05q-3.15-1.4-5.15-6.7-2.45-6.45-2.45-15.2 0-4.55 1.75-8.75 1.05-2.55 3.3-6l-3.5.65q-1.6 0-2.55-1l-.25-.3q-3.8-.85-5.55-2.85l-.1-.15-.05-.05v.15l-.25 1.7q-.75-2.95-3.75-2.85-3.5 1.3-3.35 5.35h-.7m24.5-46.2-2.5.3q-4.05 0-5.9-4.6Q69 9.05 69 4.7V1.8L71.3 0q-1.25 12.55 7.25 16.45M65 23.7l.05.05q-.7 2.15-2.15 2.15-1.85 0-4.15-3.15-.3-3.2 1.35-6.35.95 5.5 4.9 7.3M1.65 211.95q-2.8-4.95-.85-12 19.45-17.15 28.85-44.85 9.55-6.3 16.65-11.65.9 4.45.9 8 0 6.1-2.6 11.3l-1.35 2.35q-.95.2-1.85.65-19.3 6.5-14.45 24.75-.4 2.7-.95 4.1-2.15 5.95-4.8 8.2l-3.95 3.3q-2.05 1.55-4.35 2.65-6.75 3.2-10.75 3.2h-.5M114.9 115.5q-10.4 3.15-18.15 6l-3.4 1.25q-13 4.9-17.5 8.8-.55.7-.45 1.55l.05.25q.7 3.85 13.35 9.8 9.65 4.45 26.1 10.15-13.25-3.4-23.45-5.45l-4.9-.95q-24.2-4.45-27.95-.25-1.65 1-2.5 2.55-3.25 5.35 3.15 17.35l.1.25.35.55q2.1 3.9 5.25 8.5l-2.7-.9-.7-.75-2.45-2.5-2.25-3.95q-3.6-6.75-3.6-11.55 0-2.35.65-4.1l.3-.7-.15-.05q.8-3.8 3.8-5.85 3.7-2.5 10.9-2.5l10.5.9 6 .9q-10.3-5.4-10.95-9.2l-.25-.35q-.45-.65-.45-2.2 0-4.6 10.9-9.05l7.15-2.3.65-.2h-.8q-8.8 0-8.8-2.5 0-.8.3-1.85 2.35 1.2 9.95.9 8.05-.4 21.95-2.55m-93.85 64.3-.1-.05q-3.55 6.15-7.15 10.4-2.55 3.05-7.55 7.75-2.9 3.3-2.8 6.7l.7.2q2.4 0 4.3-2.05 1.15-1.15 2.5-3.65l4.9-8.85 4.95-10 .25-.45" fill="#5665aa" fill-rule="evenodd" transform="translate(1 1)"/><path d="m109.65 27.3-3.7-2.2q-8.7-4.5-17.85-4.5l-6.8.8-.7.25q-7.85 1.4-13.65 8.8-6.85 8.8-6.85 19.95 0 2.75.55 4.7-.75-.6-1.75-.6-2.9 0-4.05 2.5-.8 1.8-.8 5.65v.7l-.85.35q-1.15-1.85-1.55-3.7.8-2.25 2.3-4.5l2.15-2.85q.95-1.3.95-1.8 0-1.2-1.4-1.95l.95-.95q.25-12.6 6.1-16.85-3.7-4.15-3.95-8.35 2.3 3.15 4.15 3.15 1.45 0 2.15-2.15L65 23.7h.05q5.05-.8 3.65-6.2 1.65-.25 1.65-1.5l-1.3-3.35-1.35-3.1q-.35-1.35-.55-3.95v-.95Q67.8 3.1 69 1.8v2.9q0 4.35 1.15 7.45 1.85 4.6 5.9 4.6l2.5-.3 2.4.85 4.7.05-.05.6q-2.45-.1-7.55 1.05-3.5.7-7.85 3.75-3.7 2.6-5.1 4.85l-.35.6v.7q0 .15.4.15l6.65-6.15q1.55-.95 3.1-1.55 1.55-.7 5-1.5l7.4-.8q4.15-.1 5.35.1l3.15-.4q9.2 2.4 13.85 8.55m-47.8 32.85.25-1.7.15.05q1.75 2 5.55 2.85l.25.3q.95 1 2.55 1l3.5-.65q-2.25 3.45-3.3 6-1.75 4.2-1.75 8.75 0 8.75 2.45 15.2 2 5.3 5.15 6.7h.05l.5.25q1.45.75 4.25.75l7.25-1.25q-9.2 8.1-6.75 17.1-.15 1 1.05 1.65-.3 1.05-.3 1.85 0 2.5 8.8 2.5l.15.2-7.15 2.3q-10.9 4.45-10.9 9.05 0 1.55.45 2.2l.25.35q.65 3.8 10.95 9.2l-6-.9-10.5-.9q-7.2 0-10.9 2.5-3 2.05-3.8 5.85l-.15.75q-.65 1.75-.65 4.1 0 4.8 3.6 11.55l2.25 3.95q-2-1.9-3.9-3.25-6.55-4.7-11.95-3.35l1.35-2.35q2.6-5.2 2.6-11.3 0-3.55-.9-8Q65.55 129 67.75 121.3q10.2 3.15 8.65-16-13.3-13.7-14.75-39.15.75-3.85.2-6m3.15 7.7q-1.05-2.35-.55-4.45-.8 1-1.1 5.85 0 7.6 3.6 18.05 3.7 10.6 7.4 12.8-3.25-3.75-5.2-10.75-1.9-6.6-1.9-13.25v-2.85q.05-1 .35-1.8l-.1.05-.6-.7q-1.2-1.3-1.9-2.95m10.75 55.4-7.25 1.6q-1.5 3.95-5.5 8.1-2.95 3.05-8 6.95-3.1 2.4-3.75 8.75l-.2 3.55q1.05-2.45 2.85-5.1 5.35-8.05 11.15-8.05 1.4 0 3.15.65 1.7.7 2.6.7l-.9-1.65q-.65-1.2-.65-1.85 0-5.1 6.4-9.95 4.45-3.4 9.3-5.1H83.7q-2 0-7.95 1.4" fill="#6cf" fill-rule="evenodd" transform="translate(1 1)"/><path d="M84 52.9q-12.4 9.2-17.1 7.4-3.35-1.3-2.95-7.85.85-14.2 6.6-21.3 1.45-1.8 3.3-3.2 8-7.6 24.75-1.65-7.65-2.05-16.65 2.1Q66.3 41.2 84 52.9" fill="url(#t)" fill-rule="evenodd" transform="translate(1 1)"/><path d="M98.2 91.95q-5.55 2.75-9.9 4.15-9.55 2.95-13.2-.8-1.85-1.95-2.25-5.55-1.55-7.9-1.75-16 .85-6.3 5.4-12.65 2.95-4.05 7.5-8.2-1.2 3.05-2.05 5.85-4.5 13.75-1 20.75Q83.7 90.1 98.2 91.95m-16.95-2.4-.2.75q0 .65.5 1.1.6.5 1.35.5l1.05-.35.2-.15q.55-.45.55-1.1 0-.7-.55-1.15-.55-.5-1.25-.5-.75 0-1.35.5l-.3.4" fill="url(#u)" fill-rule="evenodd" transform="translate(1 1)"/><path d="m88.7 98.4 1-.8q3.5-2.9 8.5-5.65-2.95 16.85 16.7 23.55-13.9 2.15-21.95 2.55-7.6.3-9.95-.9-1.2-.65-1.05-1.65-2.45-9 6.75-17.1m8.55 2.35q0-.6-.5-1.05-.5-.4-1.2-.4l-.85.25-.3.15q-.5.45-.5 1.05 0 .6.5 1.05.45.4 1.15.4l.4-.05.8-.35q.5-.45.5-1.05m-2.35 4.85-1.95-.35q-1.95 0-3.35 1.2-1.35 1.25-1.35 2.85 0 1.7 1.35 2.9 1.2 1 2.6 1.2l.75.05q1.9 0 3.25-1.25 1.4-1.2 1.4-2.9 0-1.6-1.4-2.85-.6-.55-1.3-.85" fill="url(#v)" fill-rule="evenodd" transform="translate(1 1)"/><path d="M114.9 115.5q-9.3 20.45 0 37.8-16.45-5.7-26.1-10.15-12.65-5.95-13.35-9.8l-.05-.25q-.1-.85.45-1.55 4.5-3.9 17.5-8.8l3.4-1.25q7.75-2.85 18.15-6m-7.85 14.2q1.1 0 1.9-.7.8-.7.8-1.6 0-1-.8-1.65-.8-.7-1.9-.7-1.05 0-1.85.7-.75.65-.75 1.65 0 .9.75 1.6.8.7 1.85.7m-8.3 4.9q-1.6 1.4-1.6 3.45 0 2.05 1.6 3.45 1.65 1.45 3.95 1.45 2.3 0 3.95-1.45 1.65-1.4 1.65-3.45 0-2.05-1.65-3.45-1.65-1.4-3.95-1.4-2.3 0-3.95 1.4" fill="url(#w)" fill-rule="evenodd" transform="translate(1 1)"/><path d="M114.9 153.3q-4.4 5.85-21.8 10.25-26.1.6-25.35 13.75l-2.8-1.45q-3.15-4.6-5.25-8.5l-.35-.55-.1-.25q-6.4-12-3.15-17.35.85-1.55 2.5-2.55 3.75-4.2 27.95.25l4.9.95q10.2 2.05 23.45 5.45m-46.5 11.9q.6-.5.6-1.15 0-.65-.6-1.15-.45-.35-1.05-.4l-.2-.05q-.75 0-1.35.45l-.2.25q-.3.4-.3.9 0 .65.5 1.15.6.45 1.35.45.7 0 1.25-.45m15-12.05-.95-.7q-1.1-.55-2.55-.55-2.05 0-3.5 1.25-1.4 1.25-1.4 3 0 1.45.9 2.55l.5.55q1.45 1.25 3.5 1.25t3.5-1.25q1.45-1.25 1.45-3.1 0-1.75-1.45-3" fill="url(#x)" fill-rule="evenodd" transform="translate(1 1)"/><path d="M61.05 174.65q-12.35-2.75-25.8 10.2-4.95 5.6-6.4 11.2-1.25-2.9-1.9-5.55-4.85-18.25 14.45-24.75.9-.45 1.85-.65 5.4-1.35 11.95 3.35 1.9 1.35 3.9 3.25l2.45 2.5-.5.45m-18.75-1q0 .6.3 1.05l.5.6q.8.65 1.9.65 1.05 0 1.85-.65.8-.7.8-1.65 0-.85-.6-1.5l-.2-.15q-.8-.7-1.85-.7-1.1 0-1.9.7-.8.65-.8 1.65m-7.45 3.85q-1.3-1.1-3.1-1.1-1.75 0-3.1 1.1-1.25 1.15-1.25 2.75 0 1.55 1.25 2.65l.5.4q1.1.75 2.6.75 1.8 0 3.1-1.15 1.25-1.1 1.25-2.65l-.2-1.15q-.3-.9-1.05-1.6" fill="url(#y)" fill-rule="evenodd" transform="translate(1 1)"/><path d="m62.25 174.95-1.2-.3.5-.45.7.75" fill="url(#z)" fill-rule="evenodd" transform="translate(1 1)"/><path d="m28.85 196.05-.2 1-.05.1h-.05l-.9 1.3q-.4.85-1.15 4.5.05 2.2-1.35 3.9-1.2 1.45-3.25 2.3l-16.55 7q-2.45-1.85-3.7-4.2h.5q4 0 10.75-3.2 2.3-1.1 4.35-2.65l3.95-3.3q2.65-2.25 4.8-8.2.55-1.4.95-4.1.65 2.65 1.9 5.55" fill="#3a4474" fill-rule="evenodd" transform="translate(1 1)"/><path d="M28.6 197.15q-1.1 4.9.6 9.9l-22.85 9.8-1-.7 16.55-7q2.05-.85 3.25-2.3 1.4-1.7 1.35-3.9.75-3.65 1.15-4.5l.9-1.3h.05" fill="#0ff" fill-rule="evenodd" transform="translate(1 1)"/><path d="m21.05 179.8-.25.45-4.95 10-4.9 8.85q-1.35 2.5-2.5 3.65-1.9 2.05-4.3 2.05l-.7-.2q-.1-3.4 2.8-6.7 5-4.7 7.55-7.75 3.6-4.25 7.15-10.4l.1.05" fill="#8b95c5" fill-rule="evenodd" transform="translate(1 1)"/><path d="M110.65 28.3Q106 22.15 96.8 19.75q-3.15-.8-6.7-1.1l-3.45-.3-4.7-.05-2.4-.85Q71.05 13.55 72.3 1L70 2.8q-1.2 1.3-1.85 2.85-1.55 3.45-.4 8.2 1.45 2.65 1.95 4.65 1.4 5.4-3.65 6.2H66q-3.95-1.8-4.9-7.3-1.65 3.15-1.35 6.35.25 4.2 3.95 8.35-5.85 4.25-6.1 16.85l-.95.95q-5.25 5.6-4 11.1.4 1.85 1.55 3.7l.9 1.25 1.45 1.7q-.65-1.85-.75-3.4l-.05-.6q-.15-4.05 3.35-5.35 3-.1 3.75 2.85.55 2.15-.2 6Q64.1 92.6 77.4 106.3q1.55 19.15-8.65 16-2.2 7.7-21.45 22.15-7.1 5.35-16.65 11.65-9.4 27.7-28.85 44.85-1.95 7.05.85 12 1.25 2.35 3.7 4.2l1 .7 22.85-9.8q-1.7-5-.6-9.9m70-170.85q8.45 2.3 15.35 12.3-.9-6.7-4.3-11.3M85 53.9q-1.2 3.05-2.05 5.85-4.5 13.75-1 20.75Q84.7 91.1 99.2 92.95q-2.95 16.85 16.7 23.55-9.3 20.45 0 37.8-4.4 5.85-21.8 10.25-26.1.6-25.35 13.75l-2.8-1.45-2.7-.9-1.2-.3q-12.35-2.75-25.8 10.2-4.95 5.6-6.4 11.2M99.6 27.3q-7.65-2.05-16.65 2.1Q67.3 42.2 85 53.9" fill="none" stroke="#284749" stroke-linecap="round" stroke-linejoin="round" stroke-width="2"/><path d="m88.7 98.4 1-.8q3.5-2.9 8.5-5.65-5.55 2.75-9.9 4.15-9.55 2.95-13.2-.8-1.85-1.95-2.25-5.55-1.55-7.9-1.75-16 .85-6.3 5.4-12.65 2.95-4.05 7.5-8.2-12.4 9.2-17.1 7.4-3.35-1.3-2.95-7.85.85-14.2 6.6-21.3 1.45-1.8 3.3-3.2 8-7.6 24.75-1.65m-30.85 151L65 176.1l-2.75-1.15-.7-.75-2.45-2.5q-2-1.9-3.9-3.25-6.55-4.7-11.95-3.35-.95.2-1.85.65-19.3 6.5-14.45 24.75.65 2.65 1.9 5.55l-.2 1-.05.1m86.3-43.85q-16.45-5.7-26.1-10.15-12.65-5.95-13.35-9.8l-.05-.25q-.1-.85.45-1.55 4.5-3.9 17.5-8.8l3.4-1.25q7.75-2.85 18.15-6-13.9 2.15-21.95 2.55-7.6.3-9.95-.9-1.2-.65-1.05-1.65-2.45-9 6.75-17.1m-23.75 77.45q-3.15-4.6-5.25-8.5l-.35-.55-.1-.25q-6.4-12-3.15-17.35.85-1.55 2.5-2.55 3.75-4.2 27.95.25l4.9.95q10.2 2.05 23.45 5.45m-49.95 22.55.05.25" fill="none" stroke="#284749" stroke-linecap="round" stroke-linejoin="round" transform="translate(1 1)"/></g><g id="f"><path d="M29.25 15.45q.65 1.8-.5 1.85-.45.05-1.15-.5-2.5-.55-7.75-.05Q15.5 15.2 17.8 7.6q4.5 1.6 13 1.2 1.6.15.95 1.75-.4.8-1.85 1.35.3-1.3-1.55-1.25H24.4q-1.7-.15-1.65 1.45.6 2.85 2.35 3l4.15.35" fill="#f37688" fill-rule="evenodd" transform="translate(13.2 2.05)"/><path d="m29.9 11.9-3.05.65q1.45.4 2.1 2.15l.3.75-4.15-.35q-1.75-.15-2.35-3-.05-1.6 1.65-1.45h3.95q1.85-.05 1.55 1.25m-3.05.65-2.4-.05 2.4.05" fill="#ffdbda" fill-rule="evenodd" transform="translate(13.2 2.05)"/><path d="m24.45 12.5 2.4.05" fill="none" stroke="#b15643" stroke-linecap="round" stroke-linejoin="round" transform="translate(13.2 2.05)"/><path d="M42.45 17.5q.65 1.8-.5 1.85-.45.05-1.15-.5-2.5-.55-7.75-.05Q28.7 17.25 31 9.65q4.5 1.6 13 1.2 1.6.15.95 1.75-.4.8-1.85 1.35l-3.05.65q1.45.4 2.1 2.15l.3.75z" fill="none" stroke="#b15643" stroke-linecap="round" stroke-linejoin="round" stroke-width="2"/><path d="M-2.35-.3q22.7 4.9 24.45 8.6v21.1q-6.5.75-17.5-6.9Q-25.1-5.25-2.35-.3" fill="#0099cd" fill-rule="evenodd" transform="translate(13.2 2.05)"/><path d="M10.85 1.75q22.7 4.9 24.45 8.6v21.1q-6.5.75-17.5-6.9-29.7-27.75-6.95-22.8z" fill="none" stroke="#134371" stroke-linecap="round" stroke-linejoin="round" stroke-width="2"/></g><g id="g"><path d="M14.05 14q1.75 11.95-1.3 15.6-5.8-9.7-5.2-24.4.1-3.2 1-3.2 3.6-.35 5.5 12" fill="#1770ac" fill-rule="evenodd" transform="translate(1 1.2)"/><path d="M15.05 15.2q1.75 11.95-1.3 15.6-5.8-9.7-5.2-24.4.1-3.2 1-3.2 3.6-.35 5.5 12z" fill="none" stroke="#134371" stroke-linecap="round" stroke-linejoin="round" stroke-width="2"/><path d="M5.05 9.2q-.75 1.7.5 1.8h2.7q1.65.05.3-3.1Q8.3 6.6 2 7.1.65 7.2.05 6.55q.1-1.25 1.5-1.35 6 .5 12-.8 2.5 3.15.6 7l-9.05.85q-2.15.25-2.5-1.3Q2.35 9.55 3.7 9l1.35.2" fill="#f37688" fill-rule="evenodd" transform="translate(1 1.2)"/><path d="M.05 6.55q.6.65 1.95.55 6.3-.5 6.55.8 1.35 3.15-.3 3.1h-2.7q-1.25-.1-.5-1.8L3.7 9l-.5-.05q-3.15-.6-3.2-2l.05-.4m5.7 2.7-.7-.05.7.05" fill="#ffdbda" fill-rule="evenodd" transform="translate(1 1.2)"/><path d="M5.05 9.2 3.7 9m1.35.2.7.05" fill="none" stroke="#b15643" stroke-linecap="round" stroke-linejoin="round" transform="translate(1 1.2)"/><path d="M4.7 10.2q-1.35.55-1.1 1.95.35 1.55 2.5 1.3l9.05-.85q1.9-3.85-.6-7-6 1.3-12 .8-1.4.1-1.5 1.35l-.05.4q.05 1.4 3.2 2l.5.05z" fill="none" stroke="#b15643" stroke-linecap="round" stroke-linejoin="round" stroke-width="2"/><path d="M8.35 1.9Q10.5.75 24.75 0q57.65-2.55 0 23.9l-12 5.7q.35-19.15-4.4-27.7" fill="#0099cd" fill-rule="evenodd" transform="translate(1 1.2)"/><path d="M8.35 1.9q4.75 8.55 4.4 27.7" fill="none" stroke="#134371" stroke-linecap="round" stroke-linejoin="round" transform="translate(1 1.2)"/><path d="m13.75 30.8 12-5.7q57.65-26.45 0-23.9-14.25.75-16.4 1.9" fill="none" stroke="#134371" stroke-linecap="round" stroke-linejoin="round" stroke-width="2"/></g><g id="h"><path d="M24.05 18.05H24v-.2l.05.2" fill="#ccc" fill-rule="evenodd" transform="translate(1 1)"/><path d="M55.8 47.8q-10.6 3.35-23.9 4.5-5.5-12.9-7.25-27.5l.65.05Q28.15 41.8 35.95 49.1q8.75.9 19.85-1.3M22.85 24.7Q20.3 36.75 15.1 46.8 4.5 43.8 0 32.1l1.9-1.35q2.45 9.6 11.8 14.05 4.8-8.6 8.6-20.1h.55m.35-1.85-.35.05.8-2.65-.45 2.6m.85-4.8h.3l.6 4.65-.5.05-.4-4.7" fill="#fff" fill-rule="evenodd" transform="translate(1 1)"/><path d="M64.1 13.85q6.3 4.2 14.5 6.85 4.7 1.5 10.1 2.5-4.1 6.95-10.2 12.3l-.3-.25q3.2-3.25 5.55-7.6 2.7-4.3-6.05-5.85l.9-1.1-.9 1.1q-8.35-2.15-15.65-5.9l2.05-2.05" fill="#65fffd" fill-rule="evenodd" transform="translate(1 1)"/><path d="m24.65 24.8-1.8-.1.35-1.85 1.25-.1.5-.05.35 2.15-.65-.05-.2-2.05.2 2.05" fill="#922590" fill-rule="evenodd" transform="translate(1 1)"/><path d="M4.65 27.7Q6.6 25 8.5 21.05q4.8.45 9.05-1.3Q16 27.35 11.8 34.1q-.95 1.45-2.45.5-2.7-1.5-4.7-6.9m30.25-5.75 18.8-1.05q5.75-1.95 14.1 4.6 2.45 1.7 0 3.4-10.3 7.75-22.4 11-5.7 1.8-7.2.1-4.1-7.95-5.85-17.85l-.15-1.55 2.7 1.35" fill="#9e1a7f" fill-rule="evenodd" transform="translate(1 1)"/><path d="M8.5 21.05q3-6.35 5.7-15.95 4.1 1.3 8.15 1.9-1.4 6.4-2.95 11.75l-1.45 4.75-.25.75q-2.8 8.35-6 13.75-4.6-2.85-7.3-10l.25-.3q2 5.4 4.7 6.9 1.5.95 2.45-.5 4.2-6.75 5.75-14.35-4.25 1.75-9.05 1.3m19.15-13.5q12.55.5 24.55-5.45Q56.95 9 64.1 13.85l-2.05 2.05q7.3 3.75 15.65 5.9Q61.95 41.2 37 43q-3.35-7.95-5.85-17.95l-.65-2.8q-1.65-6.9-2.85-14.7m7.25 14.4-2.7-1.35.15 1.55Q34.1 32.05 38.2 40q1.5 1.7 7.2-.1 12.1-3.25 22.4-11 2.45-1.7 0-3.4-8.35-6.55-14.1-4.6l-18.8 1.05" fill="#7b215e" fill-rule="evenodd" transform="translate(1 1)"/><path d="M78.5 35.5q-8.95 7.85-22.2 12.15l-.5.15Q44.7 50 35.95 49.1q-7.8-7.3-10.65-24.25l-.35-2.15-.6-4.65h2.3q.95.15 1.35 2.5l.45 1.85.6 2.6q3.15 12.75 7.05 20.35 19-.1 37.75-13.55l4.35 3.45.3.25M1.9 30.75 4.4 28q2.7 7.15 7.3 10 3.2-5.4 6-13.75l.25-.75 1.45-4.75 4.6-.7-.35 2.2-.8 2.65.35-.05-.35 1.85h-.55q-3.8 11.5-8.6 20.1-9.35-4.45-11.8-14.05" fill="#f1a5ed" fill-rule="evenodd" transform="translate(1 1)"/><path d="m22.35 7 5.3.55q1.2 7.8 2.85 14.7l.65 2.8q2.5 10 5.85 17.95 24.95-1.8 40.7-21.2 8.75 1.55 6.05 5.85-2.35 4.35-5.55 7.6l-4.35-3.45Q55.1 45.25 36.1 45.35q-3.9-7.6-7.05-20.35l-.6-2.6-.45-1.85q-.4-2.35-1.35-2.5h-2.6l-.05-.2v.2l-4.6.7Q20.95 13.4 22.35 7" fill="#e25cd5" fill-rule="evenodd" transform="translate(1 1)"/><path d="m4.4 28 .25-.3m14.75-8.95-1.45 4.75-.25.75q-2.8 8.35-6 13.75-4.6-2.85-7.3-10m15-9.25Q20.95 13.4 22.35 7M77.7 21.8Q61.95 41.2 37 43q-3.35-7.95-5.85-17.95l-.65-2.8q-1.65-6.9-2.85-14.7m-3.6 10.5-.05-.2v.2m53.7 3.75.9-1.1" fill="none" stroke="#70226e" stroke-linecap="round" stroke-linejoin="round" transform="translate(1 1)"/><path d="M9.5 22.05q3-6.35 5.7-15.95 4.1 1.3 8.15 1.9l5.3.55q12.55.5 24.55-5.45 4.75 6.9 11.9 11.75 6.3 4.2 14.5 6.85 4.7 1.5 10.1 2.5-4.1 6.95-10.2 12.3-8.95 7.85-22.2 12.15m-.5.15q-10.6 3.35-23.9 4.5-5.5-12.9-7.25-27.5l-.2-2.05-.4-4.7m-1.2 6.65Q21.3 37.75 16.1 47.8 5.5 44.8 1 33.1l1.9-1.35L5.4 29m.25-.3Q7.6 26 9.5 22.05m14.35 3.65.35-1.85.45-2.6.35-2.2" fill="none" stroke="#70226e" stroke-linecap="round" stroke-linejoin="round" stroke-width="2"/><path d="m22.55 9.65-.2.15-.05-.1.25-.05" fill="#ccc" fill-rule="evenodd" transform="translate(1 1)"/><path d="M14.85 11.75q-1.65-1.35-3.2-3.2L13.9.5l4.6 3q-.8 4.35-2.9 7.3l-.75.95M51.4 13.3l.85-1.2.2-.35q1.15 1.4 3.9.65l-2.65 1.75q-1.1-.6-2.3-.85" fill="#6d2c6e" fill-rule="evenodd" transform="translate(1 1)"/><path d="M11.65 8.55q1.55 1.85 3.2 3.2-1.75 1.7-4.55.75 2.8.95 4.55-.75 1 .85 2.05 1.55-3.65 1.65-7.65 2l1.05-2.8 1.35-3.95m26.05 7.8q4.95-.45 9-2.15l.8.1q2.55.2 3.9-1 1.2.25 2.3.85-3.8 2.25-9.2 4.55-3.4-.7-6.8-2.35" fill="#9e1a7f" fill-rule="evenodd" transform="translate(1 1)"/><path d="m14.85 11.75.75-.95q2.1-2.95 2.9-7.3l7.75 5.05L55.7 0q1.4 4.75 5.25 7.95-1.55 2.2-4.6 4.45-2.75.75-3.9-.65l-.2.35-.85 1.2q-1.35 1.2-3.9 1l-.8-.1q-4.05 1.7-9 2.15-5.65-2.65-11.45-7.8l-3.7 1.1-.25.05.05.1q-2.6 2.15-5.45 3.5-1.05-.7-2.05-1.55m34.95 1.3q-1.05-.6-.85-1.7.55-1.8 2.65-1.2 1.25.4.85 1.6.4-1.2-.85-1.6-2.1-.6-2.65 1.2-.2 1.1.85 1.7M41.5 7.5q1 5.75 5.2 6.7-4.2-.95-5.2-6.7" fill="#7b215e" fill-rule="evenodd" transform="translate(1 1)"/><path d="M56.35 12.4q3.05-2.25 4.6-4.45Q62.6 9.3 64.7 10.4q-3.5 3.45-7.8 6.4-1.4-1.75-3.2-2.65l2.65-1.75m-30.1-3.85q5.8 5.15 11.45 7.8-3.95.4-8.5 0l-4.55-3.85-2.3-2.7 2.3 2.7q-2.1 1.5-4.2 2.65-1.85-.7-3.55-1.85 2.85-1.35 5.45-3.5l.2-.15 3.7-1.1" fill="#db2cc9" fill-rule="evenodd" transform="translate(1 1)"/><path d="M20.45 15.15Q14.25 18.45 7.7 19l1.55-3.7q4-.35 7.65-2 1.7 1.15 3.55 1.85m17.25 1.2q3.4 1.65 6.8 2.35 5.4-2.3 9.2-4.55 1.8.9 3.2 2.65-5.55 3.8-12.4 6.8-9.25-2.95-15.3-7.25 4.55.4 8.5 0" fill="#e156d5" fill-rule="evenodd" transform="translate(1 1)"/><path d="M56.35 12.4q3.05-2.25 4.6-4.45m-34.7.6q5.8 5.15 11.45 7.8 3.4 1.65 6.8 2.35 5.4-2.3 9.2-4.55l2.65-1.75m-33.8-2.75-.2.15 2.3 2.7m-7.75.8q2.85-1.35 5.45-3.5l-.05-.1.25-.05 3.7-1.1M16.9 13.3q-3.65 1.65-7.65 2" fill="none" stroke="#70226e" stroke-linecap="round" stroke-linejoin="round" transform="translate(1 1)"/><path d="M12.65 9.55 11.3 13.5l-1.05 2.8L8.7 20q6.55-.55 12.75-3.85 2.1-1.15 4.2-2.65l4.55 3.85q6.05 4.3 15.3 7.25 6.85-3 12.4-6.8 4.3-2.95 7.8-6.4-2.1-1.1-3.75-2.45Q58.1 5.75 56.7 1L27.25 9.55 19.5 4.5l-4.6-3-2.25 8.05" fill="none" stroke="#70226e" stroke-linecap="round" stroke-linejoin="round" stroke-width="2"/><path d="M10.3 12.5q2.8.95 4.55-.75l.75-.95q2.1-2.95 2.9-7.3m33.95 8.25q.4-1.2-.85-1.6-2.1-.6-2.65 1.2-.2 1.1.85 1.7m1.6.25.85-1.2.2-.35q1.15 1.4 3.9.65m-9.65 1.8q-4.2-.95-5.2-6.7m5.2 6.7.8.1q2.55.2 3.9-1" fill="none" stroke="#e25bd4" stroke-linecap="round" stroke-linejoin="round" transform="translate(1 1)"/></g><g id="i" fill="none" stroke-linecap="round" stroke-linejoin="round"><path d="M15.55 9.8q4.05-.3 3.1-3.7l-.7-1.05q-1.2-1.05-3.4-.3Q12.25 6 12.4 9.2v.05l.05.45q1.7 4.55 7.85 2.55 4.1-1.85 3.65-6.6-.3-3.2 2-4.45Q29.3-.4 31.4 2.95q1.1 2.65-.8 4-1.9.8-2.85-.45-.9-1.2-.55-2.6m-9.35-1.8Q18.45.25 20.1.9q1.2 1.05.2 2.6-.6.9-2.35 1.55M3.1 3.85q.35.9-.2 1.75l-1.8-.05q-.95-1.2-.35-2.8.65-1.6 2.6-.95 2.7 1.15 1.45 4.1-.95 2.65.7 4.85.8.9 1.8 1.35l3.25.3q1.9-.65 1.9-2.7m-.05-.5q-.15-1.55-1.95-1.4-1.7.25-1.65 1.65.1.7.65.65m-2.15 2q.6 2.1-.8 3.15-1.55.7-2.2-.85" stroke="#7b215e" transform="translate(.5 .5)"/><path d="M15.05 9.1q4.05-.3 3.1-3.7l-.7-1.05q-1.2-1.05-3.4-.3-2.3 1.25-2.15 4.45v.05l.05.45q1.7 4.55 7.85 2.55 4.1-1.85 3.65-6.6-.3-3.2 2-4.45 3.35-1.6 5.45 1.75 1.1 2.65-.8 4-1.9.8-2.85-.45-.9-1.2-.55-2.6m-9.35-1.8q.6-1.85 2.25-1.2 1.2 1.05.2 2.6-.6.9-2.35 1.55M2.6 3.15q.35.9-.2 1.75L.6 4.85q-.95-1.2-.35-2.8.65-1.6 2.6-.95 2.7 1.15 1.45 4.1-.95 2.65.7 4.85l1.8 1.35 3.25.3q1.9-.65 1.9-2.7M6.8 11.4q.6 2.1-.8 3.15-1.55.7-2.2-.85m8.1-5.2q-.15-1.55-1.95-1.4-1.7.25-1.65 1.65.1.7.65.65" stroke="#c53dcd" transform="translate(.5 .5)"/></g><g id="j"><path d="M20 33.75q-1 .45-1.15-.15-.1-.85.6-2.35l10.45-7.8q1.1-.7 1.55-.25-.35.9-1.5 1.75-5.15 5-9.95 8.8" fill="#c2cff9" fill-rule="evenodd" transform="translate(.5 .5)"/><path d="m15.9 49.75-1.35-.2-.05-1.85-.55-7Q13 31.9 11 25.05q6.4 1.55 12.2 1.1-2.75 2.45-4.45 5.65-1.1 1.95-1.8 4.2-.55 1.65-.85 3.55l-.15.85q-.4 2.75-.35 5.85 0 1.45.3 3.5m-1.45-13.4q.75-2.2 1.45-3.25l-2-1.4q.6 2.4.55 4.65" fill="#1d536f" fill-rule="evenodd" transform="translate(.5 .5)"/><path d="M14.45 36.35q.05-2.25-.55-4.65l2 1.4q-.7 1.05-1.45 3.25" fill="#62b0d6" fill-rule="evenodd" transform="translate(.5 .5)"/><path d="m22.4 40.1 13.9-12.6q-.45 3.05-1.5 5.35-1.45 3.05-3.95 4.75-1.4.9-3.1 1.4l-5.35 1.1m12.4-7.25-1.4.6q-1.85 1.3-2.55 4.15.7-2.85 2.55-4.15l1.4-.6" fill="#bc2fbb" fill-rule="evenodd" transform="translate(.5 .5)"/><path d="M16.95 36q.7-2.25 1.8-4.2l.7-.55q-.7 1.5-.6 2.35.15.6 1.15.15L16.95 36" fill="#fff" fill-rule="evenodd" transform="translate(.5 .5)"/><path d="M1.2 7.6Q3.05.65 11.4.2 17.15-.05 23 .05 9.4 9.8 8 17.3q-2.8-5.85-6.8-9.7M27.45.2l8.75.6 1.15.15Q23.75 16.35 26.5 23.6q-1.8 1.15-3.3 2.55Q17.85 16 27.45.2" fill="#fcd03b" fill-rule="evenodd" transform="translate(.5 .5)"/><path d="m23 .05 4.45.15Q17.85 16 23.2 26.15q-5.8.45-12.2-1.1-1.3-4.25-3-7.75Q9.4 9.8 23 .05m14.35.9q2.9.4 4.95 1.5Q39 13.5 26.5 23.6 23.75 16.35 37.35.95" fill="#d78428" fill-rule="evenodd" transform="translate(.5 .5)"/><path d="m1.5 27.8-.7-5.7 13.15 18.6Q11.2 40 9.2 38.5q-3.75-5.9-7.7-10.7m46.1-15-1.2 5.6-10.1 9.1-13.9 12.6-6.45.3.15-.85L47.6 12.8" fill="#e156d5" fill-rule="evenodd" transform="translate(.5 .5)"/><path d="M9.2 38.5q2 1.5 4.75 2.2l.55 7-5.3-9.2m6.75 1.9 6.45-.3-6.8 6.15q-.05-3.1.35-5.85" fill="#db2cc9" fill-rule="evenodd" transform="translate(.5 .5)"/><path d="M46.4 18.4q-2.85 14.85-.8 26.8-16.6 6.05-29.7 4.55-.3-2.05-.3-3.5l6.8-6.15 5.35-1.1q1.7-.5 3.1-1.4-.45 1.7-.45 3.95 0-2.25.45-3.95 2.5-1.7 3.95-4.75 1.05-2.3 1.5-5.35l10.1-9.1M14.55 49.55Q6.4 47.45 1.8 43.2q.55-6.8-.3-15.4 3.95 4.8 7.7 10.7l5.3 9.2.05 1.85m20.25-7.8q2.95-1.95 3.3-5.9-.15-4.1-3.3-3 3.15-1.1 3.3 3-.35 3.95-3.3 5.9m-.1-1q-1.8-2.45-.5-5.6-1.3 3.15.5 5.6" fill="#7b215e" fill-rule="evenodd" transform="translate(.5 .5)"/><path d="M42.3 2.45q5.65 2.85 5.3 10.35L16.1 39.55q.3-1.9.85-3.55L20 33.75q4.8-3.8 9.95-8.8 1.15-.85 1.5-1.75-.45-.45-1.55.25l-10.45 7.8-.7.55q1.7-3.2 4.45-5.65 1.5-1.4 3.3-2.55Q39 13.5 42.3 2.45" fill="url(#A)" fill-rule="evenodd" transform="translate(.5 .5)"/><path d="M.8 22.1 0 17.2l1.2-9.6q4 3.85 6.8 9.7 1.7 3.5 3 7.75 2 6.85 2.95 15.65L.8 22.1" fill="url(#B)" fill-rule="evenodd" transform="translate(.5 .5)"/><path d="m1.5 27.8-.7-5.7-.8-4.9 1.2-9.6Q3.05.65 11.4.2 17.15-.05 23 .05l4.45.15 8.75.6 1.15.15q2.9.4 4.95 1.5 5.65 2.85 5.3 10.35l-1.2 5.6q-2.85 14.85-.8 26.8-16.6 6.05-29.7 4.55l-1.35-.2Q6.4 47.45 1.8 43.2q.55-6.8-.3-15.4 3.95 4.8 7.7 10.7l5.3 9.2m-.55-7L.8 22.1m15.15 18.3.15-.85L47.6 12.8M22.4 40.1l13.9-12.6 10.1-9.1m-24 21.7-6.8 6.15" fill="none" stroke="#70226e" stroke-linecap="round" stroke-linejoin="round" transform="translate(.5 .5)"/><path d="M17.45 36.5q.7-2.25 1.8-4.2 1.7-3.2 4.45-5.65 1.5-1.4 3.3-2.55Q39.5 14 42.8 2.95m-31.3 22.6q2 6.85 2.95 15.65m2.15-1.15q.3-1.9.85-3.55M8.5 17.8q1.7 3.5 3 7.75M1.7 8.1q4 3.85 6.8 9.7" fill="none" stroke="#2e386b" stroke-linecap="round" stroke-linejoin="round" stroke-width="2"/><path d="m14.45 41.2.55 7 .05 1.85m1.05-3.3q0 1.45.3 3.5m-.3-3.5q-.05-3.1.35-5.85" fill="none" stroke="#70226e" stroke-linecap="round" stroke-linejoin="round" stroke-width="2"/><path d="M30.4 41.55q0-2.25.45-3.95.7-2.85 2.55-4.15l1.4-.6q3.15-1.1 3.3 3-.35 3.95-3.3 5.9m-.6-6.6q-1.3 3.15.5 5.6" fill="none" stroke="#e25bd4" stroke-linecap="round" stroke-linejoin="round" transform="translate(.5 .5)"/><path d="m11.65 22.75-.25-.25q-.8-.8-.8-1.95t.8-2q.85-.8 2-.8l.4.05q.9.1 1.55.75.85.85.85 2t-.85 1.95q-.8.85-1.95.85-1 0-1.75-.6" fill="#fff" fill-rule="evenodd" transform="translate(.5 .5)"/><path d="m13.8 17.8-.4-.05q-1.15 0-2 .8-.8.85-.8 2t.8 1.95l.25.25q.25 1.2 1.15 2.1 1.25 1.3 3 1.3t3-1.3q1.25-1.3 1.25-3.15 0-1.85-1.25-3.15-1.25-1.3-3-1.3-1.1 0-2 .55m10.45 4.3q0 3.15-2.2 5.35-2.2 2.2-5.35 2.2-3.15 0-5.35-2.2-2.2-2.2-2.2-5.35 0-3.15 2.2-5.35 2.2-2.2 5.35-2.2 3.15 0 5.35 2.2 2.2 2.2 2.2 5.35" fill="#eb392b" fill-rule="evenodd" transform="translate(.5 .5)"/><path d="M13.8 17.8q.9-.55 2-.55 1.75 0 3 1.3t1.25 3.15q0 1.85-1.25 3.15-1.25 1.3-3 1.3t-3-1.3q-.9-.9-1.15-2.1.75.6 1.75.6 1.15 0 1.95-.85.85-.8.85-1.95t-.85-2q-.65-.65-1.55-.75" fill="#aa1d13" fill-rule="evenodd" transform="translate(.5 .5)"/><path d="M24.75 22.6q0 3.15-2.2 5.35-2.2 2.2-5.35 2.2-3.15 0-5.35-2.2-2.2-2.2-2.2-5.35 0-3.15 2.2-5.35 2.2-2.2 5.35-2.2 3.15 0 5.35 2.2 2.2 2.2 2.2 5.35z" fill="none" stroke="#aa1d13" stroke-linecap="round" stroke-linejoin="round" stroke-width="2"/><path d="M25.55 42.35q-2.65 2.6-9 3.35 1.25.85 4.2 1.35-5.35.7.6 1.6l1.1.25Q14.1 51.55 7 46.35q4.35-.15.45-3.25 5.75 2.3-.25-4.4 4 3.75 10.3 4.7 3.85.1 8.05-1.05" fill="#bee8ff" fill-rule="evenodd" transform="translate(.5 .5)"/><path d="M31.1 52.65q-.25-2.3.65-4.6l-6.65-.3q3.6-1.55 5.05-3.3l-2.6-.15q3.65-2.3 4.95-4.7l5.8-3.3 4.8 9.5q-5.75 4.7-12 6.85" fill="#0e4472" fill-rule="evenodd" transform="translate(.5 .5)"/><path d="m22.45 48.9-1.1-.25q2.7-1.25 4.05-2.9h-3.95q5.45-2.25 7.45-4.55l3.6-1.6q-1.3 2.4-4.95 4.7l2.6.15q-1.45 1.75-5.05 3.3l6.65.3q-.9 2.3-.65 4.6Q26.2 54.3 21 54.4q-8-.1-14.9-4.2 8.1 2.85 16.35 2 2.05-.6 3.7-2.35.85-1-.35-.95h-3.35m-17.05.85L1.7 47.1q.45-7 2.55-12L6 37.45q-3.5 7.4-.6 12.3" fill="#2675a0" fill-rule="evenodd" transform="translate(.5 .5)"/><path d="M21.35 48.65q-5.95-.9-.6-1.6-2.95-.5-4.2-1.35 6.35-.75 9-3.35l3.35-1.15q-2 2.3-7.45 4.55h3.95q-1.35 1.65-4.05 2.9M7.2 38.7q6 6.7.25 4.4 3.9 3.1-.45 3.25 7.1 5.2 15.45 2.55h3.35q1.2-.05.35.95-1.65 1.75-3.7 2.35-8.25.85-16.35-2l-.7-.45q-2.9-4.9.6-12.3l1.2 1.25" fill="#63c1f5" fill-rule="evenodd" transform="translate(.5 .5)"/><path d="M25.55 42.35q-4.2 1.15-8.05 1.05-6.3-.95-10.3-4.7L6 37.45 4.25 35.1q-2.1 5-2.55 12l3.7 2.65.7.45Q13 54.3 21 54.4q5.2-.1 10.1-1.75 6.25-2.15 12-6.85l-4.8-9.5-5.8 3.3-3.6 1.6-3.35 1.15z" fill="none" stroke="#48234c" stroke-linecap="round" stroke-linejoin="round" transform="translate(.5 .5)"/></g><g id="k"><path d="m15.95 93.85-.25-.25-.1-.1-.3-.25q.65-.05.65.6" fill="#a2e9eb" fill-rule="evenodd" transform="translate(1 1)"/><path d="m12.2 70.5-.1.05h-.05l-.1-.2.25.15" fill="#6187ac" fill-rule="evenodd" transform="translate(1 1)"/><path d="m21.55 36.65-.3 1.25-.05.05-.3-.15.65-1.15" fill="#344d65" fill-rule="evenodd" transform="translate(1 1)"/><path d="M41.85 21.15q-4.6 4.75-6.25 10.05 8.9.6 8.7 10.6-2.4 9.9-8.65 12.3-4.6-8-8.35-4.15-4.4 4.65.4 13.7.65-22.25 7.6 4.65 5.7-3.5 13.75-2.8 3.95.35 8.45 1.7-.2-3.1.9-6.6 1.15-3.4 2.9-5.5 1.7.35 2.45 3.2.4 1.5.7 5.35h.35q1.3-3.2 1.75-5.6.6-3.25.6-5.35-4.25-8.45-11.65.7-2.35-.65-4.25-12.3-1.7-7.9 7.35-12.4-2.25-5.3-6.05-8.8-4.5-.15-5.65-10.3l-.95 4.25-.7 3.2q-.7 2.95-3 3.7l-.4.4m3.5-21q8.85 14.6 16.1 23.1 7.25 8.5 2.35 21.5 5.6-2.45 7.65-15.9l3.8 4.4.15 3.6q0 3.3-1.4 6.3-1.15 2.25-3.5 4.9-1.55 1.9-1.85 6.65l-.7 7.6q-1 4.15-2.7 6.1-1.95 2.25-6.1 3.25l-6.95.75-2.6.1h-4.9q-9.75 0-17.25-8.5Q20 55.65 20 45.35q0-2.75 1.2-7.4l.05-.05.3-1.25 2.5-3.5q3.4 7.35 7.95 11.3-5.55-10.1 3.65-22.6Q44.7 9.4 45.25.2l.1-.05" fill="#8f59a4" fill-rule="evenodd" transform="translate(1 1)"/><path d="M86.1 40.4q2-5.35.95-11.4 2.15 2.6 3.8 5.25L95.5 44.6q2.6 9.2.5 19.55-2.7 8.1-9.4 16.65-4.9 6.25-11.95 12.85l-2-1q-19.6-9.5-31.35-9.5-9.75 0-19 5.1-2.3 1.3-4.2 2.7l-1.95-1.55Q5.4 80.95 1.45 74.6.65 72.05.3 69.3l-.15-1.1Q-.9 56.7 6.85 41.15q1 5.15 3.35 9.15-.35 1.15-.55 2.45-.7 3.65-.7 7.65 0 3.8 3 9.95l.1.2h.05l.1-.05q2.75 1.7 4.25 1.7 3.05 0 4.75-4.1.8-1.9 1.15-4.2l3.25 5.4 1.8 3.35q9.55 8.95 22.9 7.05 8.75-1.3 19.2-7.25.35-9.1 3.5-15.1-3.15 6-3.5 15.1-10.45 5.95-19.2 7.25-13.35 1.9-22.9-7.05l-1.8-3.35-3.25-5.4q-3.15-4.65-5.6-6.2-1-11.1 4.15-19.9l.3.15Q20 42.6 20 45.35q0 10.3 7.45 18.65 7.5 8.5 17.25 8.5h4.9l2.6-.1 6.95-.75q4.15-1 6.1-3.25 1.7-1.95 2.7-6.1l.7-7.6q.3-4.75 1.85-6.65 2.35-2.65 3.5-4.9 1.4-3 1.4-6.3l-.15-3.6q7.9 10.5 1.85 18.65-2.45 2.3-4.1 5.45l2.2 3.7q4.15 6.35 7.4 6.35t6.1-4.25q2.85-4.2 2.85-8.7 0-3.45-2.7-8.65l-2.75-5.4" fill="#532f5f" fill-rule="evenodd" transform="translate(1 1)"/><path d="M1.45 74.6q3.95 6.35 14.7 14.8l1.95 1.55q1.9-1.4 4.2-2.7 9.25-5.1 19-5.1 11.75 0 31.35 9.5l2 1q7.05-6.6 11.95-12.85 6.7-8.55 9.4-16.65 2.1-10.35-.5-19.55 10.45 22.8-5.1 39.5l-1.55 1.65-9.35 10.4q-6.05 5.15-8.45 6.75l-4.8 2.85-6.55 2.6H33.8q-2.45-1-4.6-2.25l-4.15-2.35q-4.5-5.6-9.1-9.9 0-.65-.65-.6l-3.6-3.35Q4.05 83.1 1.45 74.6" fill="#a890dc" fill-rule="evenodd" transform="translate(1 1)"/><path d="m86.1 40.4 2.75 5.4q2.7 5.2 2.7 8.65 0 4.5-2.85 8.7-2.85 4.25-6.1 4.25-3.25 0-7.4-6.35l-2.2-3.7q1.65-3.15 4.1-5.45 6.6-5.25 9-11.5M22.35 63.9q-.35 2.3-1.15 4.2-1.7 4.1-4.75 4.1-1.5 0-4.25-1.7l-.25-.15q-3-6.15-3-9.95 0-4 .7-7.65.2-1.3.55-2.45 2.5 4.35 6.55 7.4 2.45 1.55 5.6 6.2" fill="url(#C)" fill-rule="evenodd" transform="translate(1 1)"/><path d="m41.85 21.15.4-.4q2.3-.75 3-3.7l.7-3.2.95-4.25q1.15 10.15 5.65 10.3 3.8 3.5 6.05 8.8-9.05 4.5-7.35 12.4 1.9 11.65 4.25 12.3 7.4-9.15 11.65-.7 0 2.1-.6 5.35-.45 2.4-1.75 5.6h-.35q-.3-3.85-.7-5.35-.75-2.85-2.45-3.2-1.75 2.1-2.9 5.5-1.1 3.5-.9 6.6-4.5-1.35-8.45-1.7-8.05-.7-13.75 2.8-6.95-26.9-7.6-4.65-4.8-9.05-.4-13.7 3.75-3.85 8.35 4.15 6.25-2.4 8.65-12.3.2-10-8.7-10.6 1.65-5.3 6.25-10.05" fill="url(#D)" fill-rule="evenodd" transform="translate(1 1)"/><path d="M45.25.2V0l.1.15-.1.05" fill="url(#E)" fill-rule="evenodd" transform="translate(1 1)"/><path d="m96.5 45.6-4.65-10.35Q90.2 32.6 88.05 30q1.05 6.05-.95 11.4-2.4 6.25-9 11.5 6.05-8.15-1.85-18.65l-3.8-4.4Q70.4 43.3 64.8 45.75q4.9-13-2.35-21.5t-16.1-23.1l-.1-.15v.2q-.55 9.2-9.6 21.65-9.2 12.5-3.65 22.6-4.55-3.95-7.95-11.3l-2.5 3.5-.65 1.15q-5.15 8.8-4.15 19.9 2.45 1.55 5.6 6.2l3.25 5.4 1.8 3.35q9.55 8.95 22.9 7.05 8.75-1.3 19.2-7.25.35-9.1 3.5-15.1 1.65-3.15 4.1-5.45m-66.9-1.6q-2.35-4-3.35-9.15Q.1 57.7 1.15 69.2l.15 1.1q.35 2.75 1.15 5.3 3.95 6.35 14.7 14.8l1.95 1.55m56.55 2.7q7.05-6.6 11.95-12.85 6.7-8.55 9.4-16.65 2.1-10.35-.5-19.55-1.55-5.4-4.65-10.35M96.5 45.6q10.45 22.8-5.1 39.5l-1.55 1.65-9.35 10.4q-6.05 5.15-8.45 6.75l-4.8 2.85-6.55 2.6m-25.9 0q-2.45-1-4.6-2.25l-4.15-2.35q-4.5-5.6-9.1-9.9l-.25-.25-.1-.1-.3-.25-3.6-3.35Q5.05 84.1 2.45 75.6m8.75-24.3q2.5 4.35 6.55 7.4" fill="none" stroke="#45244f" stroke-linecap="round" stroke-linejoin="round" stroke-width="2"/></g><g id="l"><path d="M33.5 112.3v.1l-.55-.15.55.05" fill="#ccc" fill-rule="evenodd" transform="translate(-6.7 -41.5)"/><path d="M21.15 106.45q-4.45-3.85-5.65-9.35-1.75-7.85-2.55-16.1-.8-17.8 17.3-18.9 29.2 6.35 31.65 28.65 1 10.55-5.55 15.15-7.85 4.85-16.65 6.7l-6.2-.2v-.1q3.6.15 9.25-1.85 5.65-2.05 6.15-4.45.45-2.4-3.5-3.3-3.95-.95-5.1-4.15-1.2-3.25-.35-6.9-1.7-.85-3.75-2.65-2.2-1.85-5.95-4.3-3.8-2.45-7.3-3.25Q20 81 18.3 83.8q-1.7 3.25-1 8.5l.45 2.95q.5-5.2 4.7-4.75 4.2.45 5.65 3.3 1.45 2.85.25 5.6-1.25 2.75-5.05 2.55-3.8-.2-4.7-2.9.95 3.95 2.55 7.4" fill="#f2b888" fill-rule="evenodd" transform="translate(-6.7 -41.5)"/><path d="M21.15 106.45q-1.6-3.45-2.55-7.4.9 2.7 4.7 2.9 3.8.2 5.05-2.55 1.2-2.75-.25-5.6-1.45-2.85-5.65-3.3-4.2-.45-4.7 4.75l-.45-2.95q-.7-5.25 1-8.5 1.7-2.8 4.65-2.35 3.5.8 7.3 3.25Q34 87.15 36.2 89q2.05 1.8 3.75 2.65-.85 3.65.35 6.9 1.15 3.2 5.1 4.15 3.95.9 3.5 3.3-.5 2.4-6.15 4.45-5.65 2-9.25 1.85l-.55-.05q-7.5-2.1-11.8-5.8m12.75 2.8q-1.45-.55-2.55-1.25-2.4-1.5-3.25-3.65l-5.9-.95-.15-.05q.3 5.05 11.85 5.9" fill="#fdddce" fill-rule="evenodd" transform="translate(-6.7 -41.5)"/><path d="M33.9 109.25q-11.55-.85-11.85-5.9l.15.05 5.9.95q.85 2.15 3.25 3.65 1.1.7 2.55 1.25" fill="#fff" fill-rule="evenodd" transform="translate(-6.7 -41.5)"/><path d="m26.8 70.9 6.2.2q8.8-1.85 16.65-6.7 6.55-4.6 5.55-15.15-2.45-22.3-31.65-28.65-18.1 1.1-17.3 18.9.8 8.25 2.55 16.1 1.2 5.5 5.65 9.35 4.3 3.7 11.8 5.8l.55.15z" fill="none" stroke="#b15643" stroke-linecap="round" stroke-linejoin="round" stroke-width="2"/><path d="M36.45 108.6q0 .7-1.15.7-1.05 0-1.05-.6l.45-.4 1.2-.25q.55 0 .55.55" fill="#e2a497" fill-rule="evenodd" transform="translate(-6.7 -41.5)"/><path d="M33.2 108.1q1.4.6 2.35-.2" fill="none" stroke="#b15643" stroke-linecap="round" stroke-linejoin="round" transform="translate(-6.7 -41.5)"/><path d="m51.25 91.9-.55-.1.6.1h-.05" fill="#ccc" fill-rule="evenodd" transform="translate(-6.7 -41.5)"/><path d="m12.85 71.4 4-3.2q.55 1.5 1.3 2.6l-3.9 4q-.9-1.45-1.4-3.4m-.6-4.8.5-.9 3-1.25.6 2.35-3.9 2.5-.2-2.7m42-6.35q-1 2.7-2.2 4.75l-3.95-1.55 3.75-1.85q1.3-.85 2.4-1.35M29.45 71.6q3.35 1.15 7.9-.1l5.3 6.1q-2.5 2.9-6.5 4.3-5.2-4-6.7-10.3m21.7-5q-1.45 3.15-3.4 5.4l-5.7-2.9q2.55-2.05 4.5-4.8l4.6 2.3" fill="#fff" fill-rule="evenodd" transform="translate(-6.7 -41.5)"/><path d="M78.65 111.75q-1.8 7.75-5.2 14.85-8.7 19.05 6.2 28.2-4.9-1.2-9-2.7-8.15-11.35-2-21.5 6.9-9.4 10-18.85m-61.75 40q.5 4 2.25 7.65-3.9-3.8-7.8-10.9-5.75-10-2.9-22.15-1.7 14.45 8.45 25.4" fill="#65fffd" fill-rule="evenodd" transform="translate(-6.7 -41.5)"/><path d="M12.85 71.4q.5 1.95 1.4 3.4l3.9-4q-.75-1.1-1.3-2.6l-4 3.2m-.6-4.8.2 2.7 3.9-2.5-.6-2.35 3.3-2.05q2.1-2.2 4.6 2l1.15 1.3-1.4 2.6q-3.15 5.25-8.2 8.5l-1.75 1q-3.1 4.8-.5 20.3-4.05-6.55-2.5-17.5l.8-4.6-1.45-3.95q1-2.85 2.45-5.45m35.85-3.15L52.05 65q1.2-2.05 2.2-4.75 2.85-1.4 4.4-.55 10.8 6.8 10.3 14.6-1.55 5.55-8.2 2.4 5.2 7.8 6 18.9.25 15.9-4.5 7.8-.6 21.4-5.9 19.1-4.15-2.05 0-21.1 1.15-4.3-.1-7.6l.5.4q1.2.95 2.1 2.4 11.55-7.9-19.2-24.5 7.15 5.65 11.45 10-.1 9.45-14.25 2.3-8.75-4.9-10.45-17.65 2.25 1.1 5.75 1.15 5.1.4 14.3-3.65l1.65-.8m3.05 3.15-4.6-2.3q-1.95 2.75-4.5 4.8l5.7 2.9q1.95-2.25 3.4-5.4m-21.7 5q1.5 6.3 6.7 10.3 4-1.4 6.5-4.3l-5.3-6.1q-4.55 1.25-7.9.1" fill="#ccc9f8" fill-rule="evenodd" transform="translate(-6.7 -41.5)"/><path d="m15.75 64.45-3 1.25q2.4-4.05 5.9-7.5 22.35-18.85 47.5-.9 1.7 1.2 3.2 2.75-.9 1.35-4.1 1.05 10.35 6.5 12 24 2.4 21-5.2 36.1 1.2-28.15-6.1-40.6 7.7 32.5-2.5 50.5-2.25-2.7-.4-14.3-3.35 16.25-7.1 15.4-4.65-1.25-5.25-11.9v-.1q.65-8.55 3.15-18 1.95-9.15-2.6-10.3h.05q2.85.35 4.95 1.9-2.1-1.55-4.95-1.9l-.6-.1q-6.15-1.05-10.95-2.8-13.1-5.45-16.35-20.7l1.4-2.6-1.15-1.3q-2.5-4.2-4.6-2l-3.3 2.05M15.2 76.8q-1.95 18.9 5.05 32.6 3.85 6.55 2.7 14.5-2.35 9-6.6 13.5 2.05-9.15 1.8-17.3-1.35 10.25-4.1 17.9-3.85-3.3-.5-14.1 3.45-13.25-3.2-22.6-1.9-4.4-2.8-11.7Q7 79.9 9.8 72.05L11.25 76l-.8 4.6q-1.55 10.95 2.5 17.5-2.6-15.5.5-20.3l1.75-1m39.05-16.55q-1.1.5-2.4 1.35l-3.75 1.85-1.65.8q-9.2 4.05-14.3 3.65-3.5-.05-5.75-1.15Q28.1 79.5 36.85 84.4 51 91.55 51.1 82.1q8.55 8.5 5.65 12.1l-.5-.4q1.25 3.3.1 7.6-4.15 19.05 0 21.1 5.3 2.3 5.9-19.1 4.75 8.1 4.5-7.8-.8-11.1-6-18.9 6.65 3.15 8.2-2.4.5-7.8-10.3-14.6-1.55-.85-4.4.55" fill="#92a1f4" fill-rule="evenodd" transform="translate(-6.7 -41.5)"/><path d="M69.35 60.05q9.2 9.35 11.1 30.05.5 11.4-1.8 21.65-3.1 9.45-10 18.85-6.15 10.15 2 21.5-19.5-7.3-20.1-22.6-.2-4.5.15-9.2.6 10.65 5.25 11.9 3.75.85 7.1-15.4-1.85 11.6.4 14.3 10.2-18 2.5-50.5 7.3 12.45 6.1 40.6 7.6-15.1 5.2-36.1-1.65-17.5-12-24 3.2.3 4.1-1.05m-46.4 63.85q-.75 5.35-3.8 11.3-3.3 8.9-2.25 16.55-10.15-10.95-8.45-25.4l.05-.3q.65-2.9 1.85-5.95 3.05-10.2 0-18.8 6.65 9.35 3.2 22.6-3.35 10.8.5 14.1 2.75-7.65 4.1-17.9.25 8.15-1.8 17.3 4.25-4.5 6.6-13.5M51.1 82.1q-4.3-4.35-11.45-10 30.75 16.6 19.2 24.5-.9-1.45-2.1-2.4 2.9-3.6-5.65-12.1" fill="#6d599e" fill-rule="evenodd" transform="translate(-6.7 -41.5)"/><path d="m6.05 24.2-.5.9Q4.1 27.7 3.1 30.55.3 38.4.85 48.1q.9 7.3 2.8 11.7 3.05 8.6 0 18.8-1.2 3.05-1.85 5.95M6.05 24.2q2.4-4.05 5.9-7.5 22.35-18.85 47.5-.9 1.7 1.2 3.2 2.75 9.2 9.35 11.1 30.05.5 11.4-1.8 21.65-1.8 7.75-5.2 14.85-8.7 19.05 6.2 28.2-4.9-1.2-9-2.7-19.5-7.3-20.1-22.6-.2-4.5.15-9.2m0-.1q.65-8.55 3.15-18 1.95-9.15-2.6-10.3m-.55-.1q-6.15-1.05-10.95-2.8-13.1-5.45-16.35-20.7-3.15 5.25-8.2 8.5-1.95 18.9 5.05 32.6 3.85 6.55 2.7 14.5-.75 5.35-3.8 11.3-3.3 8.9-2.25 16.55.5 4 2.25 7.65-3.9-3.8-7.8-10.9-5.75-10-2.9-22.15" fill="none" stroke="#665879" stroke-linecap="round" stroke-linejoin="round" stroke-width="1.5"/><path d="m51.25 91.9-.55-.1.6.1q2.85.35 4.95 1.9l.5.4q1.2.95 2.1 2.4M23.4 68.3l1.4-2.6M13.45 77.8l1.75-1" fill="none" stroke="#665879" stroke-linecap="round" stroke-linejoin="round" transform="translate(-6.7 -41.5)"/><path d="M29.75 56.75q-2.45 1.7-3.85 3.95-.55-3.5-2.75-4.05-3.25-.65-6.3 2-.75.05-.35-.7 3.1-3.4 9.95-8.1l.2 1.3-.2-1.3q.3-1.5 2.9-2.5l1.95-.7q1.25.1 1.35 1.3l-.85.5q-1.1.5-.65 2 .55 1.45 1.65 2.45-1.75.45-2.75 2.25-1.95-1.15-3.4-4 .65 2.8 3.1 5.6m-8.95-2q3.35-1.75 4.8 1.05-.3-5.35-4.8-1.05m28.2-4q1.75-.5 2.85.25.75.8-.35 1.55-5.3 2.75-11.75 3.95-2.15.5-1.75-1.05.45-1.15 2.3-1.8 4.6-.9 8.7-2.9m4.95 4.55q.6 1.8-3.8 3.95-6.9 3.5-15 4.8 1.2-1.7.95-4.4 8.1-1.05 15.65-5.05 1.75-.15 2.2.7M39.05 60q-1.3 0-1.4.7-.05.95 1.45.75 6.1-.6 10.5-4.6Q43.25 60 39.05 60M41 55.6q4.4-.6 7.3-2.75-4.7 1.9-7.5 1.65-.9-.2-1.45.45-.35.8 1.65.65m-12.65-6.45q-.55-.25-.75.55-.4 2.3 2.35 3.75-1.8-1.95-1.5-3.15.45-.95-.1-1.15" fill="#feff2e" fill-rule="evenodd" transform="translate(-6.7 -41.5)"/><path d="M67.5 59.05q.7-2.6-4.45-6.05-2.9-2.15-6.95-.8l-1.95.85-4.95 2.05-2.85 1q5.35-2.1 9.7-5.4 1.7-1.4.7-2.4-3.2-2.5-8.55-4.55l5.85 1.7q4.95 1.4 5.75 3.9l8.85 6.3q1.7 1.6.4 4.2l-1.55-.8m-7.7-9.7q-1.35 1.6-3.7 2.85 2.35-1.25 3.7-2.85" fill="#65fffd" fill-rule="evenodd" transform="translate(-6.7 -41.5)"/><path d="M20.8 54.75q4.5-4.3 4.8 1.05-1.45-2.8-4.8-1.05m21.35-6.6q-1.35 0-2.25 1.1l-4.35 4.45 2.8-4.65q.3-1.05-.4-.95l-2.55.25q4.5-1.3 5.75-3.25.1 1.75 10.05 2.65l-8.75.4h-.3M39.05 60q4.2 0 10.55-3.15-4.4 4-10.5 4.6-1.5.2-1.45-.75.1-.7 1.4-.7m-10.7-10.85q.55.2.1 1.15-.3 1.2 1.5 3.15Q27.2 52 27.6 49.7q.2-.8.75-.55M41 55.6q-2 .15-1.65-.65.55-.65 1.45-.45 2.8.25 7.5-1.65Q45.4 55 41 55.6" fill="#fff" fill-rule="evenodd" transform="translate(-6.7 -41.5)"/><path d="m32.65 47.95 1.35-.7q-3.65 3.05 1.2 6.95l-1-.3-1.4-1q-1.1-1-1.65-2.45-.45-1.5.65-2l.85-.5" fill="#fffe34" fill-rule="evenodd" transform="translate(-6.7 -41.5)"/><path d="M16.5 57.95q-.4.75.35.7 3.05-2.65 6.3-2 2.2.55 2.75 4.05 1.4-2.25 3.85-3.95-2.45-2.8-3.1-5.6 1.45 2.85 3.4 4 1-1.8 2.75-2.25l1.4 1 1 .3h.9l1.7-.15 2.5-.4q-1.85.65-2.3 1.8-.4 1.55 1.75 1.05 6.45-1.2 11.75-3.95 1.1-.75.35-1.55-1.1-.75-2.85-.25l3.4-1.95q1.35-.8-.05-1.5-2.5-1.6-6.4-2.7l-4.2-.15-.7.15Q37 45.75 34 47.25l-1.35.7q-.1-1.2-1.35-1.3l8.75-3.15q2.8-1.4 4.4-.85l3.75 1.1q5.35 2.05 8.55 4.55 1 1-.7 2.4-4.35 3.3-9.7 5.4l2.85-1 4.95-2.05 1.95-.85q4.05-1.35 6.95.8 5.15 3.45 4.45 6.05l-3.55-1.75q-4.55-1.85-8.7.3-3.35 2.35-6.45 3.55-11.3 4.25-19.4 3.7-4.4-1.9-6.25-7.4-5.8.45-7.85 4.65l-1.25 1.6q-.15-2.5 1.45-4.65l1-1.1m13.25-1.2.75.8q2.2 1.5 5.9.85 4.8-.65 9.95-2.3-5.15 1.65-9.95 2.3-3.7.65-5.9-.85l-.75-.8m24.2-1.45q-.45-.85-2.2-.7-7.55 4-15.65 5.05.25 2.7-.95 4.4 8.1-1.3 15-4.8 4.4-2.15 3.8-3.95" fill="#c8a500" fill-rule="evenodd" transform="translate(-6.7 -41.5)"/><path d="m41.75 44.45 4.2.15q3.9 1.1 6.4 2.7 1.4.7.05 1.5L49 50.75q-4.1 2-8.7 2.9l-2.5.4q2-4.45 4.35-5.9h.3l8.75-.4q-9.95-.9-10.05-2.65l.6-.65" fill="#bf7313" fill-rule="evenodd" transform="translate(-6.7 -41.5)"/><path d="M34 47.25q3-1.5 7.05-2.65l.7-.15-.6.65q-1.25 1.95-5.75 3.25l2.55-.25q.7-.1.4.95l-2.8 4.65 4.35-4.45q.9-1.1 2.25-1.1-2.35 1.45-4.35 5.9l-1.7.15h-.9q-4.85-3.9-1.2-6.95" fill="#e8bd3d" fill-rule="evenodd" transform="translate(-6.7 -41.5)"/><path d="M29.75 56.75q-2.45-2.8-3.1-5.6l-.2-1.3M14.05 63.7l1.25-1.6q2.05-4.2 7.85-4.65 1.85 5.5 6.25 7.4 8.1.55 19.4-3.7 3.1-1.2 6.45-3.55 4.15-2.15 8.7-.3l3.55 1.75 1.55.8M56.1 52.2l-1.95.85-4.95 2.05-2.85 1q-5.15 1.65-9.95 2.3-3.7.65-5.9-.85l-.75-.8m2.9-8.8 1.35-.7q3-1.5 7.05-2.65l.7-.15 4.2.15q3.9 1.1 6.4 2.7 1.4.7.05 1.5L49 50.75q-4.1 2-8.7 2.9l-2.5.4-1.7.15h-.9l-1-.3-1.4-1q-1.1-1-1.65-2.45-.45-1.5.65-2l.85-.5M56.1 52.2q2.35-1.25 3.7-2.85" fill="none" stroke="#7e4b01" stroke-linecap="round" stroke-linejoin="round" transform="translate(-6.7 -41.5)"/><path d="M19.75 8.35q-6.85 4.7-9.95 8.1l-1 1.1Q7.2 19.7 7.35 22.2M24.6 5.15l-1.95.7q-2.6 1-2.9 2.5m4.85-3.2L33.35 2q2.8-1.4 4.4-.85l3.75 1.1 5.85 1.7q4.95 1.4 5.75 3.9l8.85 6.3q1.7 1.6.4 4.2" fill="none" stroke="#7e4b01" stroke-linecap="round" stroke-linejoin="round" stroke-width="2"/><path d="m32.95 54.95.2.1.2.5-.2.5-.5.2-.35-.1-.15-.1-.2-.5.2-.5.5-.2.3.1m-4.1 7.15q-.35 0-.55-.2-.25-.25-.2-.7.1-.5.45-.85t.8-.4h.45l.3.15q.25.25.15.75l-.4.8-.85.45h-.15" fill="#fff" fill-rule="evenodd" transform="translate(-6.7 -41.5)"/><path d="M34.7 53.15q1.05.2 1.45 1.2.4.9-.05 2.05t-1.45 1.9l-.55.3q.85.85.8 2.15.05 1.55-1.15 2.9-1.15 1.3-2.8 1.6-1.55.3-2.7-.6-1.15-.9-1.15-2.45.05-1.55 1.2-2.85 1.2-1.35 2.75-1.65h.1l-.05-.05q-.4-1 .05-2.15t1.45-1.8q1.05-.7 2.1-.55m-2.4 3 .05.35.55.45.85-.2.6-.75q.15-.45-.05-.8-.15-.4-.55-.45-.35-.1-.8.2l-.3-.1-.5.2-.2.5.2.5.15.1m-2.5 3.8h-.45q-.45.05-.8.4-.35.35-.45.85-.05.45.2.7.2.2.55.2.1.55.55.95.6.45 1.5.35.85-.2 1.45-.9T33 61q0-.85-.6-1.3-.6-.5-1.45-.35l-1.15.6m4.3-1.35-.3-.3q-1.15-.9-2.65-.6 1.5-.3 2.65.6l.3.3" fill="#fe012d" fill-rule="evenodd" transform="translate(-6.7 -41.5)"/><path d="m32.3 56.15.35.1.5-.2.2-.5-.2-.5-.2-.1q.45-.3.8-.2.4.05.55.45.2.35.05.8l-.6.75-.85.2-.55-.45-.05-.35m-2.5 3.8 1.15-.6q.85-.15 1.45.35.6.45.6 1.3-.05.8-.65 1.5t-1.45.9q-.9.1-1.5-.35-.45-.4-.55-.95H29l.85-.45.4-.8q.1-.5-.15-.75l-.3-.15" fill="#dc2a36" fill-rule="evenodd" transform="translate(-6.7 -41.5)"/><path d="M34.7 53.15q1.05.2 1.45 1.2.4.9-.05 2.05t-1.45 1.9l-.55.3q.85.85.8 2.15.05 1.55-1.15 2.9-1.15 1.3-2.8 1.6-1.55.3-2.7-.6-1.15-.9-1.15-2.45.05-1.55 1.2-2.85 1.2-1.35 2.75-1.65h.1l-.05-.05q-.4-1 .05-2.15t1.45-1.8q1.05-.7 2.1-.55m-3.55 4.55q1.5-.3 2.65.6l.3.3" fill="none" stroke="#dc2a36" stroke-linecap="round" stroke-linejoin="round" transform="translate(-6.7 -41.5)"/></g><g id="m"><path d="m21.25 90.45-.2.2-.1-.15.3-.05m1.25 1.6h.1v.15l-.1-.15m2.75 7.55.65-.85.6-1.1-.55 1.2-.6 1-.1-.25m-.35-3.05.05-.05H25l-.1.05m19.05 4.15q.95.85 2.25.9l-.05.35q-1.3-.3-2.2-1.25m4.95-10.15-.05.1-.15-.2.2.1m-3.1 2-.1-.2h.1v.2" fill="#ccc" fill-rule="evenodd" transform="translate(-14.3 -81.4)"/><path d="M24.45 94.5v-.4q.05-.8-.45-1.45-.45-.6-1.1-.65l-.3.05h-.1q-.4-.45-1-.45-.7-.05-1.25.55l.7-1.35.1-.15.2-.2q2.2-.7 3.9.5.7 1.2.7 2.85l-.1.9-.1-.15q-.25-.3-.6-.35-.35 0-.6.3m-2.5 1.25q.4.4.9.4.65.05 1.1-.6l.2-.25v.05l.25.75.55.4-.05.05-.9.9q-.55.35-1.15.3-1.2 0-2.05-1.25l-.55-1.25q.45.55 1.15.6l.55-.1m21-3.3q.15-.65.45-1.15.7-.6 1.55-.95l3.75.1.15.2q1.05 1.45 1 3.45l-.15 1.25-.35-.8q-.25-.4-.7-.4l-.3.05-.55-1.35q-.5-.7-1.25-.7l-.75.2h-.1q-.5-.55-1.25-.55-.85 0-1.5.65m6.3 4.3-.55.7-.6.7-.2-.1q-.35 0-.65.3l-.15.35-.9.1q-1.45-.05-2.5-1.45l-.45-.85q.45.45 1.05.45l1.2-.45q.35.45.9.45.7 0 1.3-.6l.1.15.75.5.7-.25" fill="#6ca4f1" fill-rule="evenodd" transform="translate(-14.3 -81.4)"/><path d="m22.6 92.05.3-.05q.65.05 1.1.65.5.65.45 1.45v.4h-.05q-.25.3-.25.8l-.2.25q-.45.65-1.1.6-.5 0-.9-.4l.6-.5q.5-.55.55-1.45 0-.9-.5-1.6v-.15m22.9 4.45.25-.25q.6-.75.65-1.85 0-1.1-.6-1.85v-.2l.75-.2q.75 0 1.25.7l.55 1.35-.55.3q-.3.45-.3 1l.2.85q-.6.6-1.3.6-.55 0-.9-.45" fill="#17328d" fill-rule="evenodd" transform="translate(-14.3 -81.4)"/><path d="M24.45 94.5q.25-.3.6-.3.35.05.6.35l.1.15.2.7-.3.75-.65.35h-.05l-.55-.4-.25-.75v-.05q0-.5.25-.8h.05m-4.2-2.35q.55-.6 1.25-.55.6 0 1 .45l.1.15q.5.7.5 1.6-.05.9-.55 1.45l-.6.5-.55.1q-.7-.05-1.15-.6l-.05-.05q-.45-.6-.4-1.5 0-.9.45-1.5v-.05m-1.05-.25q-.3 1.1-.3 2.35.05 2.6 1.3 4.35 1.25 1.8 2.9 1.85 1.2 0 2.15-.85l.1.25q-1.25 1.4-3.2 1.1-3.6-1.2-4.8-5.1.25-1.25.75-2.2.45-1.05 1.1-1.75m24.05 4.6-.35-.35q-.55-.75-.5-1.85 0-1 .5-1.7l.05-.15q.65-.65 1.5-.65.75 0 1.25.55l.1.2q.6.75.6 1.85-.05 1.1-.65 1.85l-.25.25-1.2.45q-.6 0-1.05-.45m2.95 5.1q1.95.05 3.35-1.9 1.45-1.9 1.5-4.6.05-1.85-.55-3.4l1.3 1.7 1.05 2.45.2.7q-1.85 4.55-5.8 5.4h-1.1l.05-.35m3.5-6.25v.2q0 .6-.35 1l-.1.2-.7.25-.75-.5-.1-.15-.2-.85q0-.55.3-1l.55-.3.3-.05q.45 0 .7.4l.35.8" fill="#fff" fill-rule="evenodd" transform="translate(-14.3 -81.4)"/><path d="m25.75 94.7.1-.9q0-1.65-.7-2.85.95.7 1.7 2l.1 1.45q.05 1.55-.3 2.8l-.15.45-.6 1.1-.65.85q-.95.85-2.15.85-1.65-.05-2.9-1.85-1.25-1.75-1.3-4.35 0-1.25.3-2.35l1.75-1.4.1.15-.1.15-.7 1.35v.05q-.45.6-.45 1.5-.05.9.4 1.5l.05.05.55 1.25q.85 1.25 2.05 1.25.6.05 1.15-.3l.9-.9.1-.05.65-.35.3-.75-.2-.7m-1.7 2.95H24l-.05.1-.3.75q0 .45.25.75.25.35.6.35l.6-.35.25-.7-.2-.8q-.25-.35-.6-.35-.3 0-.5.25m18.9-5.2-.05.15q-.5.7-.5 1.7-.05 1.1.5 1.85l.35.35.45.85q1.05 1.4 2.5 1.45l.9-.1-.15.5.25.75.65.4q.35.05.6-.35l.3-.75q.05-.45-.25-.85-.2-.25-.4-.25l.6-.7.55-.7.1-.2q.35-.4.35-1v-.2l.15-1.25q.05-2-1-3.45l.05-.1 1.45 1 .15.15q.6 1.55.55 3.4-.05 2.7-1.5 4.6-1.4 1.95-3.35 1.9-1.3-.05-2.25-.9l-1.05-1.15q-1.3-1.95-1.25-4.65.05-.95.25-1.8.65-1.1 1.5-1.8-.3.5-.45 1.15" fill="#1550aa" fill-rule="evenodd" transform="translate(-14.3 -81.4)"/><path d="M24.05 97.65q.2-.25.5-.25.35 0 .6.35l.2.8-.25.7-.6.35q-.35 0-.6-.35-.25-.3-.25-.75l.3-.75.05-.1h.05m24.05.5q.2 0 .4.25.3.4.25.85l-.3.75q-.25.4-.6.35l-.65-.4-.25-.75.15-.5.15-.35q.3-.3.65-.3l.2.1" fill="#0ed8ff" fill-rule="evenodd" transform="translate(-14.3 -81.4)"/><path d="M10.85 9.55q-1.7-1.2-3.9-.5l-.3.05-1.75 1.4q-.3 1.1-.3 2.35.05 2.6 1.3 4.35 1.25 1.8 2.9 1.85 1.2 0 2.15-.85l.65-.85.6-1.1m.15-.45q.35-1.25.3-2.8l-.1-1.45q-.75-1.3-1.7-2m18.25.35q-.85.7-1.5 1.8-.2.85-.25 1.8-.05 2.7 1.25 4.65l1.05 1.15q.95.85 2.25.9 1.95.05 3.35-1.9 1.45-1.9 1.5-4.6.05-1.85-.55-3.4l-.15-.15-1.45-1-.2-.1-3.75-.1q-.85.35-1.55.95z" fill="none" stroke="#2e386b" stroke-linecap="round" stroke-linejoin="round" stroke-width=".5"/><path d="M50.45 90.1q-4.6-1.9-9.9 1.45 5.1-4.8 9.9-1.45m-23.9.8q-2.95-2.2-8-.75 4.75-2.55 8 .75m14.4 5.65q-.75.8-.75-.35 1.05-4.4 4.5-6.25 3.4-1.45 6.5 1.8 2.6 3.2 4.95 1.35-.65 2.35-2.4 2.3 1.25 1.85 3.85 1.4-1.5 2.05-3.95.65l-.05 1.5-.65-.85q-2.05 3.65-5.8 3.95 4.8-2.15 5.45-5.6-.5-2.2-2.15-3.9-2.85-3-6.05-1.4-2.5 1.35-3.45 5.4m-20-13.45q-2.45-.15-2.9-1.7.6 1.1 4 1 4-.05 5.15 2.05l-1-.05q-1.15-1.1-5.25-1.3M15.1 93.2q1.3.9 2.6 0 1.15-1.9 2.25-2.65 2.9-2.15 6.05.55 2.05 2.25 2.45 4.7-.45.35-.7-.5-.25-1.25-1.5-2.9-2.25-2.5-4.85-1.7-3.15 1.35-3.6 5.25 1.1 3.15 4.7 5.05-3.25-.35-4.7-3.8-.6 1.05-.8-.2-1.45.7-2.7-.6 1.75.45 2.65-1.35-1.55-.2-1.85-1.85" fill="#2e386b" fill-rule="evenodd" transform="translate(-14.3 -81.4)"/></g><g id="n"><path d="m39.5 1.75.1-.55q5.5 18.45-26.75 14.5 13.35.95 20-3.85-10.5.8-18-4.25 7.8 1.45 15.9-.2Q38 6.85 39.5 1.75" fill="#029797" fill-rule="evenodd" transform="translate(.75 .75)"/><path d="M30.75 7.4q-8.1 1.65-15.9.2 7.5 5.05 18 4.25-6.65 4.8-20 3.85l-.35-.05Q15.25 6.35 0 0q20.8 8.05 30.75 7.4" fill="#02dbdb" fill-rule="evenodd" transform="translate(.75 .75)"/><path d="M40.25 2.5q-1.5 5.1-8.75 5.65Q21.55 8.8.75.75 16 7.1 13.25 16.4l.35.05q32.25 3.95 26.75-14.5" fill="none" stroke="#015c5b" stroke-linecap="round" stroke-linejoin="round" stroke-width="1.5"/></g><g id="o"><path d="M61.65.55 63 0l-.1.1-1.25.45L62.9.1Q60.2 3.65 58 7.85L57 9.7q-4.3 4.15-9.35 7.1l-4.75 2.4 4.75-3.85q4.7-4.25 7.4-8.9-3.55.7-7.4 2.15-4.9 1.8-10.3 4.75l10.3-6q7.55-4.15 14-6.8M17.1 21.3l.05.05h-.05v-.05" fill="#029797" fill-rule="evenodd" transform="translate(.75 .75)"/><path d="M57 9.7q-4.05 6.9-8.65 11.55l-4.6 3.9q2-2.9 2.15-6.2-8.9 7.8-19.05 7.8l-1.7-.05 1.7-.4q9.85-2.75 15.25-12.05-5.35 3.4-12.65 3.4 2.4-1 4.8-2.35l3.1-1.95q5.4-2.95 10.3-4.75 3.85-1.45 7.4-2.15-2.7 4.65-7.4 8.9L42.9 19.2l4.75-2.4Q52.7 13.85 57 9.7M29.75 30.5q-3.05.35-6.3 0l-.3-.05-5-1h-.05l-.15-.05-.5-.2q-3.45-1.55-6.1-4.95 2.8-.45 5.75-2.9h.05l.05-.05 5.45-1.2 4.2 1.2q2.7.5 5 .05-2.35 1.6-5 2.6-4.5 1.65-9.8 1.5 3.5 2.7 7.1 3.95 2.75 1 5.6 1.1" fill="#02dbdb" fill-rule="evenodd" transform="translate(.75 .75)"/><path d="M43.75 25.15q-6.5 4.75-14 5.35-2.85-.1-5.6-1.1-3.6-1.25-7.1-3.95 5.3.15 9.8-1.5 2.65-1 5-2.6-2.3.45-5-.05l-4.2-1.2 4.2-1.35 2.6-1.1q7.3 0 12.65-3.4-5.4 9.3-15.25 12.05l-1.7.4 1.7.05q10.15 0 19.05-7.8-.15 3.3-2.15 6.2m-20.6 5.3q-21.35-2-22.3 5.5l-.1.55q-3-8.4 5.75-12.4 1.6-.75 3.65-1.35l6.55-1.4.4-.05v.05q-2.95 2.45-5.75 2.9 2.65 3.4 6.1 4.95l.5.2.15.05h.05l5 1" fill="#abfefd" fill-rule="evenodd" transform="translate(.75 .75)"/><path d="m63.65.85.1-.1-1.35.55 1.25-.45q-2.7 3.55-4.9 7.75l-1 1.85Q53.7 17.35 49.1 22l-4.6 3.9q-6.5 4.75-14 5.35-3.05.35-6.3 0l-.3-.05q-21.35-2-22.3 5.5l-.1.55q-3-8.4 5.75-12.4 1.6-.75 3.65-1.35l6.55-1.4.4-.05.05.05.05-.05 5.45-1.2 4.2-1.35 2.6-1.1q2.4-1 4.8-2.35l3.1-1.95 10.3-6q7.55-4.15 14-6.8" fill="none" stroke="#015c5b" stroke-linecap="round" stroke-linejoin="round" stroke-width="1.5"/></g><g id="p"><path d="M26.45.05Q29 .2 31.2 1.45q5.35 2.9 8.9 11.95-8 9.2-9.6 32.55Q28 6.45 0 16.3v-.05Q16.05 10 26.35 19.2 21.6 9 13.75 8.65q3.85-4.7 12.7-8.6" fill="#abfefd" fill-rule="evenodd" transform="translate(.75 .75)"/><path d="M0 16.25Q15.95-.7 26.45.05q-8.85 3.9-12.7 8.6Q21.6 9 26.35 19.2 16.05 10 0 16.25" fill="#02dbdb" fill-rule="evenodd" transform="translate(.75 .75)"/><path d="M27.2.8q2.55.15 4.75 1.4 5.35 2.9 8.9 11.95-8 9.2-9.6 32.55Q28.75 7.2.75 17.05m0-.05Q16.7.05 27.2.8" fill="none" stroke="#015c5b" stroke-linecap="round" stroke-linejoin="round" stroke-width="1.5"/></g><g id="q"><path d="M5.85 40.1Q.4 32.15.05 22.1L0 20.65Q.05 2.1 14.9 0q-2 2.8-2.45 5.9Q4.85 11.6 4 22.75 3.4 30.2 5.85 40.1" fill="#02dbdb" fill-rule="evenodd" transform="translate(.75 .75)"/><path d="M12.45 5.9q-.65 4 1.45 8.5-3 4.85-4.9 9.15Q4.8 33.1 5.85 40.1 3.4 30.2 4 22.75 4.85 11.6 12.45 5.9" fill="#029797" fill-rule="evenodd" transform="translate(.75 .75)"/><path d="M6.6 40.85q-5.45-7.95-5.8-18L.75 21.4Q.8 2.85 15.65.75q-2 2.8-2.45 5.9-.65 4 1.45 8.5-3 4.85-4.9 9.15-4.2 9.55-3.15 16.55z" fill="none" stroke="#015c5b" stroke-linecap="round" stroke-linejoin="round" stroke-width="1.5"/></g><g id="r"><path d="M17.2 12.8q3.25 1.2 7 2 5.9 4.15 12.25 4.55-10.6 4.8-21.05.3 8.65 6.95 21.4 5.7-2 2.6-5.3 3.85-8 .05-14.6-3.8-5.05-4-7.35-11.5Q16.25 19 24 19.15q-3.75-1.75-6.8-6.35" fill="#abfefd" fill-rule="evenodd" transform="translate(.75 .75)"/><path d="m24.2 14.8 5.3.85 3.7.2q10.75 1.35 18.35 4.75-7.2 3.2-17.3 3.25l17 .5q-10.8 4.8-19.75 4.85 3.3-1.25 5.3-3.85-12.75 1.25-21.4-5.7 10.45 4.5 21.05-.3-6.35-.4-12.25-4.55m-7.3 10.6q-4.85-2.75-8.85-7.6l-.35-.65q-1.9-3.3-2.05-7.6 2.5 1.35 6.45 1 2.45 1.3 5.1 2.25 3.05 4.6 6.8 6.35Q16.25 19 9.55 13.9q2.3 7.5 7.35 11.5" fill="#02dbdb" fill-rule="evenodd" transform="translate(.75 .75)"/><path d="M33.2 15.85q17 1.15 28.6 4.05-4.35 1.35-8.6 3.5l-1.95.95-17-.5q10.1-.05 17.3-3.25-7.6-3.4-18.35-4.75M8.05 17.8l-.45-.65Q1.3 8.55 0 0q4.6 6.65 12.1 10.55-3.95.35-6.45-1 .15 4.3 2.05 7.6l.35.65" fill="#029797" fill-rule="evenodd" transform="translate(.75 .75)"/><path d="M17.95 13.55q3.25 1.2 7 2l5.3.85 3.7.2q17 1.15 28.6 4.05-4.35 1.35-8.6 3.5L52 25.1q-10.8 4.8-19.75 4.85-8 .05-14.6-3.8-4.85-2.75-8.85-7.6l-.45-.65Q2.05 9.3.75.75q4.6 6.65 12.1 10.55 2.45 1.3 5.1 2.25z" fill="none" stroke="#015c5b" stroke-linecap="round" stroke-linejoin="round" stroke-width="1.5"/></g><g id="s"><path d="M22.05 14.35q-.25-5.4-6.4-10.25Q25.5 1.3 45.9 8.9q-13-3.65-23.85 5.45" fill="#3ff" fill-rule="evenodd" transform="translate(.75 .75)"/><path d="M45.9 8.9Q25.5 1.3 15.65 4.1q6.15 4.85 6.4 10.25Q16.8 6.45 0 2.2q21.65-6.6 45.9 6.7" fill="#02dbdb" fill-rule="evenodd" transform="translate(.75 .75)"/><path d="M22.8 15.1Q33.65 6 46.65 9.65 22.4-3.65.75 2.95 17.55 7.2 22.8 15.1z" fill="none" stroke="#015c5b" stroke-linecap="round" stroke-linejoin="round" stroke-width="1.5"/></g><linearGradient gradientTransform="matrix(.0212 0 0 .0225 81.25 42.15)" gradientUnits="userSpaceOnUse" id="t" spreadMethod="pad" x1="-819.2" x2="819.2"><stop offset="0" stop-color="#5665aa"/><stop offset=".392" stop-color="#84ffff"/></linearGradient><linearGradient gradientTransform="matrix(.0143 -.0072 .0155 .0235 84.65 75.15)" gradientUnits="userSpaceOnUse" id="u" spreadMethod="pad" x1="-819.2" x2="819.2"><stop offset="0" stop-color="#5665aa"/><stop offset=".392" stop-color="#84ffff"/></linearGradient><linearGradient gradientTransform="matrix(.0177 -.009 .0091 .0138 102.3 101.45)" gradientUnits="userSpaceOnUse" id="v" spreadMethod="pad" x1="-819.2" x2="819.2"><stop offset="0" stop-color="#5665aa"/><stop offset=".392" stop-color="#84ffff"/></linearGradient><linearGradient gradientTransform="matrix(.0173 0 0 .0231 100.25 134.2)" gradientUnits="userSpaceOnUse" id="w" spreadMethod="pad" x1="-819.2" x2="819.2"><stop offset="0" stop-color="#5665aa"/><stop offset=".392" stop-color="#84ffff"/></linearGradient><linearGradient gradientTransform="matrix(.0162 .0142 -.0161 .0141 85 160.95)" gradientUnits="userSpaceOnUse" id="x" spreadMethod="pad" x1="-819.2" x2="819.2"><stop offset="0" stop-color="#5665aa"/><stop offset=".392" stop-color="#84ffff"/></linearGradient><linearGradient gradientTransform="matrix(.0082 .0124 -.0189 .0095 44.15 180.4)" gradientUnits="userSpaceOnUse" id="y" spreadMethod="pad" x1="-819.2" x2="819.2"><stop offset="0" stop-color="#5665aa"/><stop offset=".392" stop-color="#84ffff"/></linearGradient><linearGradient gradientTransform="matrix(.0082 .0124 -.0189 .0095 44.15 180.4)" gradientUnits="userSpaceOnUse" id="z" spreadMethod="pad" x1="-819.2" x2="819.2"><stop offset="0" stop-color="#099"/><stop offset=".392" stop-color="#84ffff"/></linearGradient><linearGradient gradientTransform="matrix(.0192 0 0 .0226 31.85 21)" gradientUnits="userSpaceOnUse" id="A" spreadMethod="pad" x1="-819.2" x2="819.2"><stop offset="0" stop-color="#7a98fa"/><stop offset="1" stop-color="#1a6ca4"/></linearGradient><linearGradient gradientTransform="matrix(-.0085 0 0 -.0202 6.95 24.15)" gradientUnits="userSpaceOnUse" id="B" spreadMethod="pad" x1="-819.2" x2="819.2"><stop offset="0" stop-color="#7a98fa"/><stop offset="1" stop-color="#1a6ca4"/></linearGradient><linearGradient gradientTransform="matrix(0 -.0113 .0165 0 82.25 53.9)" gradientUnits="userSpaceOnUse" id="C" spreadMethod="pad" x1="-819.2" x2="819.2"><stop offset="0" stop-color="#522e5e"/><stop offset=".392" stop-color="#9058a3"/></linearGradient><linearGradient gradientTransform="matrix(0 -.0342 .0358 0 46.15 38.95)" gradientUnits="userSpaceOnUse" id="D" spreadMethod="pad" x1="-819.2" x2="819.2"><stop offset="0" stop-color="#522e5e"/><stop offset=".392" stop-color="#b35ff2"/></linearGradient><linearGradient gradientTransform="matrix(0 -.0338 .0443 0 47.7 36.25)" gradientUnits="userSpaceOnUse" id="E" spreadMethod="pad" x1="-819.2" x2="819.2"><stop offset="0" stop-color="#344d65"/><stop offset=".392" stop-color="#6187ac"/></linearGradient><path d="M107.2 3.95q18.4 3.95 18.4 9.55 0 5.55-18.4 9.55Q88.85 27 62.8 27q-26.05 0-44.45-3.95Q0 19.05 0 13.5q0-5.6 18.35-9.55Q36.75 0 62.8 0q26.05 0 44.4 3.95" fill-opacity=".353" fill-rule="evenodd" id="d"/><path d="M0 37.8V0h31.5v37.8H0" fill="#fc0" fill-opacity="0" fill-rule="evenodd" id="F"/><use ffdec:characterId="22" height="37.8" width="31.5" xlink:href="#F" id="c"/></defs></svg>