<svg xmlns:ffdec="https://www.free-decompiler.com/flash" xmlns:xlink="http://www.w3.org/1999/xlink" ffdec:objectType="frame" height="90" width="90" xmlns="http://www.w3.org/2000/svg"><use ffdec:characterId="1" height="9.8" transform="matrix(1.1718 0 0 1.6602 .883 66.015)" width="55.5" xlink:href="#a"/><use ffdec:characterId="3" height="58.4" transform="translate(36.1 57.4) scale(.2648)" width="54.1" xlink:href="#b"/><use ffdec:characterId="4" height="175.2" transform="translate(50 8.178) scale(.2863)" width="114.8" xlink:href="#c"/><use ffdec:characterId="6" height="74" transform="translate(28.8 44.25) scale(.2648)" width="92.15" xlink:href="#d"/><use ffdec:characterId="8" height="95.2" transform="translate(45.55 51.55) scale(.2648)" width="89.4" xlink:href="#e"/><use ffdec:characterId="10" height="83.05" transform="translate(1.165 49.75) scale(.2648)" width="100.95" xlink:href="#f"/><use ffdec:characterId="16" height="201.75" transform="translate(4.2 8.55) scale(.2648)" width="220.6" xlink:href="#g"/><use ffdec:characterId="18" height="118.7" transform="translate(12.128 48.3) scale(.2648)" width="115.2" xlink:href="#h"/><use ffdec:characterId="20" height="89.8" transform="translate(15.2 37.5) scale(.2648)" width="100.35" xlink:href="#i"/><defs><g id="j" fill-rule="evenodd"><path d="M.85 13.35Q3 8.8 5.2 6.55 11.7 0 25.05 0q9.65 0 14.7 7 1.95 2.7 4.4 7.65-1.1 3.1-1.8 6.35l-.75 4.3-1.5-.25-2.95-.05-17.05.85q-.45-3.4-2.6-5.05-2.75-2.2-9.25-2.2-1.2 0-2.5.5l-2.7.5Q1.6 16.3.85 13.35m23 19.55 3-.1q7.2 0 15.15 1.65.4 1.45 1.15 2.3 1.4 1.55 4.4 1.55.05 4.55-4.85 7.85Q38.75 48.8 32 50.4q-.95-2.6-2.65-5.6-2.7-4.85-5.7-6.8.9-1.3.9-2.7l-.3-1.2-.4-1.2" fill="#b15321"/><path d="m44.15 14.65 1.25 2.55.25.55-1.05 5.6q-.45 2.65-.45 5.25 0 4.55 1 6.4 1 1.8 3.4 1.8 1.1 0 2.7-.6l2.7-1 .15.1q-1.75 1.75-4.05 6.15-2.3 4.45-5.1 7.15-3.5 3.35-7.6 4.55-2.2.7-4.15.6h-.15l-.05-.4-1-2.95q6.75-1.6 10.7-4.25 4.9-3.3 4.85-7.85-3 0-4.4-1.55-.75-.85-1.15-2.3-7.95-1.65-15.15-1.65l-3 .1h-.05l-4.35.4q-2.6.35-7.05 1.55 2.1 2.75 3.85 4.3l-.4.45-4.3-4.4-1-1.2-1.15-1.35-1.6-2.2Q3.6 24.5 0 15.2l.85-1.85q.75 2.95 2.2 6.25Q5 23.95 8.2 28.9l.1.15q3.65-2.2 11.8-3.2L37.15 25l2.95.05 1.5.25.75-4.3q.7-3.25 1.8-6.35m-7.6 13.25v-.1l-.05-.05-.15.1-6.8-.4-2.1-.05-9.7.5-.15.05-1 .1q-5.4.65-7.75 1.8l2.55 3.65q1.7-.7 6.05-1.55l3.15-.6q8.05-1.35 8.15-.55h.05l6.9-.1h1.85q2.8.15 3.95 1.05-.15-1.2-.15-2.55v-.25q-1.3-.65-4.8-1.05" fill="#884125"/><path d="M36.55 27.9q3.5.4 4.8 1.05v.25q0 1.35.15 2.55-1.15-.9-3.95-1.05H35.7v-.05q.85-1.15.85-2.25v-.5" fill="#ad3e00"/><path d="m35.7 30.7-6.9.1.4-.85q.55-1.15.55-1.85l-.2-.65 6.8.4.2.05v.5q0 1.1-.85 2.25v.05m-18.25 1.25q-4.35.85-6.05 1.55l-2.55-3.65q2.35-1.15 7.75-1.8l-.7.45q-.35.45-.35 1.6 0 .7.8 1.25l1.1.6" fill="#e25412"/><path d="m3.05 19.6 2.7-.5q1.3-.5 2.5-.5 6.5 0 9.25 2.2 2.15 1.65 2.6 5.05-8.15 1-11.8 3.2l-.1-.15Q5 23.95 3.05 19.6m20.8 13.3.4 1.2.3 1.2q0 1.4-.9 2.7-2.1-1.4-4.3-1.4l-.8.1-.7.75-1.6 1.7q-1.75-1.55-3.85-4.3 4.45-1.2 7.05-1.55l4.35-.4h.05" fill="#cb7c3c"/><path d="M28.75 30.8q-.1-.8-8.15.55l-3.15.6-1.1-.6q-.8-.55-.8-1.25 0-1.15.35-1.6l.7-.45 1-.1.15-.05 9.7-.5 2.1.05.2.65q0 .7-.55 1.85l-.4.85h-.05" fill="#ffdf0d"/><path d="m27.95 48 1.2 3.35-5.75 3.15q-3.75 1.7-6.85 1.7-3.25 0-5.6-.9l-3.8-1.8q6.35-4.7 13.05-5.3l7.75-.2" fill="#7a8788"/><path d="m33 53.35-.8.35q-11.05 4.7-15.35 4.7-1.9 0-6.9-1.6-6.6-2.15-6.6-4.8l6.45-6.35 6.05-6.05.4-.45 1.6-1.7.7-.75.8-.1q2.2 0 4.3 1.4 3 1.95 5.7 6.8 1.7 3 2.65 5.6l1 2.95m-25.85.15 3.8 1.8q2.35.9 5.6.9 3.1 0 6.85-1.7l5.75-3.15-1.2-3.35-1.35-2.95q-3.2-6.45-6.25-6.45l-2.2 1.8-.1.05-.65.6-4.7 4.3q-7.35 6.9-7.35 7.25l1.8.9" fill="#4c4e4f"/><path d="m7.15 53.5-1.8-.9q0-.35 7.35-7.25l4.7-4.3.65-.6.1-.05 2.2-1.8q3.05 0 6.25 6.45L27.95 48l-7.75.2q-6.7.6-13.05 5.3" fill="#e8fffd"/></g><g id="c"><path d="M90.9.35 95.1 0q6.85 0 10.95 3.65Q110.1 7.3 109 14.5q-1 6.45-8.7 10.75l.6-1.4q2.5-6 2.5-9.75 0-5.45-4.9-9.8-3.3-2.95-7.6-3.95M58.15 22.1q2.75-1.3 5.35-1.3 6.75 0 9.3 5 1.6 3.1 1.6 8.7 0 5.75-3.3 11.65-3.3 5.85-3.3 9.15 0 4.25 3.2 7.1 2.3 2.05 4.65 2.35-1.7 1.35-3.75 2.25-2.35 1-4 1-4.5 0-7.75-1.5l-1.65-1.95q-2.3-3.05-2.3-7.25 0-5.4 2.05-8.7 1.4-2.25 4.55-4.45 3.55-2.5 4.55-3.7 2.05-2.55 2.05-6.55 0-4.85-2.45-7.35-2.4-2.5-8.8-4.45" fill="#ff5000" fill-rule="evenodd" transform="translate(0 1.3)"/><path d="m100.3 25.25-1.8.95q-9.4 4.5-16.2 2.45 4.25-1.7 9.1-5.45 6.6-5.1 6.6-8.5 0-4-2.4-6.5-3.2-3.4-10.3-3.4-4 0-7.35 1.35-2.2.9-4.6 2.6l1.75-1.5q3.35-2.7 6.3-4.45 2.05-1.25 7-2.1l2.5-.35q4.3 1 7.6 3.95 4.9 4.35 4.9 9.8 0 3.75-2.5 9.75l-.6 1.4m-16.55 109.2 3.05.15 2.35-.15q5.15-.8 10.85-4.95l4-3.25q3.15-2.85 8.1-8.5-1.35 8.75-8.75 14.7-7.65 6.1-19.6 7.05-3.8.3-8.05.1l3.15-7.7.25-.7 2.65 2.3.05.05.55.45 1.4.45m-36.5-30.85q1.8-1.6 4.35-3.3 5.55-3.6 7-5.1 3.2-3.2 3.2-7.5l-.3-2.45q1.05-2.6 1.5-3.05l.4 2.6q.4 2.6.4 4.3 0 2.55-.9 6.8-1 4.8-2.3 6.5l-.55-.35Q58 101 57.4 100.4l.95 1 .45.8q0 1.65-3.5 4l-2.15 1.8q-1.45-.4-2.85-1.2-1.6-.95-2.55-2.25l-.5-.95m27.65-5.1Q83.15 96 87 87.2q3.6-8.3 3.6-16.7v-.9q-.2-8.45-4.4-13.5 5.2 3.1 6 10.85l.05.2.15 7.35v.3q-.4 1.75.05 2.2 0 1.75.15 3.05l-.95.6q-.85.75-.85 2.25 0 3.05 3.4 2.5-.5 3.4-1.9 4.6-.8.7-2.75.95-1.8.2-2.45 1-1.1 1.2-1.1 4.75 0 5.9 2.8 5.9l1.75-.35.05.15q-1.4 1.4-3.95 2.8-2.2 1.2-3.7 1.5l-.95.1q-3.1 0-4.75-1.75l-.05-.05-.2-.2q-1.75-2.05-2.1-6.3m18.6-38.8q2.55.4 4.3 2.9 1.8 2.6 1.8 5.5 0 2-1.5 4.3L97 73.9l.55-1.4.05-3.6q0-1.75-1.4-4.65l-.25-.5-.7-1.3-1.75-2.75m-33.35 6.8-1.55-.9q-5-3.3-5-10.6 0-3.7 2.15-6.45 1.35-1.75 4.75-4.2 3.55-2.55 4.75-3.95 2.15-2.55 2.15-5.8 0-3.75-2.4-6.2-2.4-2.4-6-2.4l-4.3.55q-1.6.55-4.35 2.4 2-3.25 5.4-5.5 1.2-.8 2.4-1.35 6.4 1.95 8.8 4.45 2.45 2.5 2.45 7.35 0 4-2.05 6.55-1 1.2-4.55 3.7-3.15 2.2-4.55 4.45-2.05 3.3-2.05 8.7 0 4.2 2.3 7.25l1.65 1.95" fill="#fffc01" fill-rule="evenodd" transform="translate(0 1.3)"/><path d="M103 66.8q0-1.65-1.75-3.55l-.9-.9q1.45 2.2 1.45 5.55l-.05 1.7-.4 1.7-.15.1v.2l.15-.3.95-2.05.7-2.45m9.1 50.95.3-4.05q0-8-6.8-13.8l-4.65-4q-2.15-2.2-2.15-4.5 0-.95.45-2.75l7.1-8.55q4.25-5.95 4.25-12 0-7.9-6.8-12.7-6.8-4.8-17.9-4.8l-2.7.2-1.55.2-1.85.25q3.9 1.8 6.4 4.85 4.2 5.05 4.4 13.5v.9q0 8.4-3.6 16.7-3.85 8.8-12.1 11.3l-3.65.75h-.15q-3.35-.55-4.75-3.2-1.1-2.15-1.25-7.35-.2-5.6-.85-7.35Q63.05 78 59.1 78q-1.7 0-3.45.85-1.55.75-2.2 1.7L55.9 80q2.8 0 4.5 2.8l1.1 2.45.3 2.45q0 4.3-3.2 7.5-1.45 1.5-7 5.1-2.55 1.7-4.35 3.3-1.65 1.4-2.65 2.7-3.2 4.25-3.2 10.3 0 3.05 1.05 5.4 1.05 2.35 3.15 4 1.75 1.4 3.8 2.05l3.8.55 5-.55.15-.05 2.3-.4 2.35-.2 1.2.4.5.25.8.35-.2 1.1q-1.7.25-3.7 1.15l-.6.25q-3.1 1.5-5.8 1.5l-5.05-.65q-3.4-.9-6.35-3.15l-1.15-.95q-5.25-4.8-5.25-13.05 0-9.6 9.35-15.35l1.55-.9 7.5-4.15q2.8-1.95 3.3-4.45l.1-1.15q0-3.75-1.8-5.4-1.8-1.6-5.9-1.6l-3.6.1-1.45.45q1.45-2.1 4.25-4.05 4.7-3.3 9.2-3.3 4.55 0 6.55 3.15 1.35 2.2 1.85 6.95.6 5.75.95 6.95Q70.3 95 73.2 95l1.65-.05q7.55-.8 10.55-8.75 2.2-5.8 2.2-17.5 0-8.35-6.3-13.8-4.25-3.7-9.45-4.6 2.9-2.2 5.85-3l7.9-.7q12.65 0 20.2 5.2 8.8 6.05 8.8 18.2 0 5.85-6.5 13.2l-6.1 6.05-.2 1.05q0 2.55 2.05 4.65l4.45 3.95q5.95 5.6 6.45 15.75l.05 1.85q0 8.35-4.8 13.55-3.2 4.65-10.45 8.2Q89.95 143 79.6 143l-3.25-.4-2-.3 1.25-2.5.1-.2q4.25.2 8.05-.1 11.95-.95 19.6-7.05 7.4-5.95 8.75-14.7M99.6 59.7l.5.15 2.3.95q3.2 1.75 3.2 4.6 0 1.65-.65 3.25-.6 1.4-1.7 2.8-2.45 3-6.8 4.7l-1.15.45-.1-.2.7-1 1.1-1.5 1.1-1.5q1.5-2.3 1.5-4.3 0-2.9-1.8-5.5-1.75-2.5-4.3-2.9l.95-.25 2.45-.05 2.7.3m-19.8-8.45-.6-.25h-.8q.3.4 1.4.25M60.6 102.4q.6.6.6 1.7 0 1.55-1.1 4l-1.1 2.5q0 1.4 1.3 1.4l1.1-.2v.4q-.45.2-1.95 1.45v.05q-.7.5-2.75.5l-3.3-.4q-1.6-.75-1.6-3.2 0-.55.3-1.15.3-.75 1.05-1.45l2.15-1.8q3.5-2.35 3.5-4l-.45-.8-.95-1q.6.6 2.65 1.65l.55.35m-6.8 7.4q0 1.8 1 2.8.8.8 1.9.8l.9-.3q.55-.3 1.4-.3v-.2l-1.95-.45q-.85-.45-.85-1.65 0-1.25 1.3-3 .8-1.1 1.1-2.2l-2.55 1.45q-1.2.7-1.75 1.5-.5.75-.5 1.55" fill="#a22103" fill-rule="evenodd" transform="translate(0 1.3)"/><path d="M98.2 89.6v1.6h.2q.2-1.1.7-2.55 1.05-3.1 3.6-7.7 3.5-6.45 3.5-7.75 0-1.55-.8-3.45l-.45-1.1q.65-1.6.65-3.25 0-2.85-3.2-4.6l-2.3-.95-.5-.15q-1.85-1.9-6.1-4.3-4.75-2.65-10.3-4.6l2.7-.2q11.1 0 17.9 4.8 6.8 4.8 6.8 12.7 0 6.05-4.25 12l-7.1 8.55q-.45 1.8-.45 2.75 0 2.3 2.15 4.5l4.65 4q6.8 5.8 6.8 13.8l-.3 4.05q-4.95 5.65-8.1 8.5l-4 3.25v-4.1q-.35-4.8-2.4-4.8-4.65 0-6.55 5.65-.95 2.9-1.9 8.2l-2.35.15-3.05-.15q.55-6.7 2.8-10.3 2.05-3.35 6.45-4.95 5.6-2.05 6.45-2.75 2.95-2.25 2.95-7.95 0-6.85-5.2-12.5l-1.45 1q-1.4.8-2.55.8-1 0-2-1.2-1-1.15-1-2.2 0-2.25 2.6-3.8 2.05-1.2 3.6-1.2l1.8.2" fill="#ffa200" fill-rule="evenodd" transform="translate(0 1.3)"/><path d="M83.2 50.8q5.55 1.95 10.3 4.6 4.25 2.4 6.1 4.3l-2.7-.3-2.45.05-.95.25 1.75 2.75-1.75 2.7-1.2 1.9-.1-.1q-.8-7.75-6-10.85-2.5-3.05-6.4-4.85l1.85-.25 1.55-.2" fill="#ff5a11" fill-rule="evenodd" transform="translate(0 1.3)"/><path d="m92.25 67.15.05-.1 1.2-1.9 1.75-2.7.7 1.3q-1.05.9-2.55 6.95l-.95 3.85-.05-.05-.15-7.35" fill="#ff7c00" fill-rule="evenodd" transform="translate(0 1.3)"/><path d="m98.2 89.6-1.8-.2q-1.55 0-3.6 1.2-2.6 1.55-2.6 3.8 0 1.05 1 2.2 1 1.2 2 1.2 1.15 0 2.55-.8l1.45-1q5.2 5.65 5.2 12.5 0 5.7-2.95 7.95-.85.7-6.45 2.75-4.4 1.6-6.45 4.95-2.25 3.6-2.8 10.3l-1.4-.45-.55-.45v-.15q0-2.9.6-4.65l.6-1.95-1 1 2.4-4.55q2.1-3.3 3.8-3.25-.4-2-.15-5.3.35-4.6 2.1-6.6l.05-.1H90q-1.5.95-2.85 3.65l-1.55 3.55-.1-.15-.1-.05q-.45-.8-1.35-3.75-1.05-3.25-1.1-4.55 1.5-.3 3.7-1.5 2.55-1.4 3.95-2.8v-.2l-.05.05-1.75.35q-2.8 0-2.8-5.9 0-3.55 1.1-4.75.65-.8 2.45-1 1.95-.25 2.75-.95 1.4-1.2 1.9-4.6-3.4.55-3.4-2.5 0-1.5.85-2.25l.95-.6q-.15-1.3-.15-3.05l-.05-2.2.05-.25.95-3.85q1.5-6.05 2.55-6.95l.25.5q1.4 2.9 1.4 4.65l-.05 3.6-.55 1.4-1.1 1.5-.7 1 .1.2 1.15-.45-.6.8q-.45.7-.45 1.45 0 1.15.5 1.45l1.1.3q1.6.45 1.6 4.45l-.4 3.4v1.6" fill="#ff5c11" fill-rule="evenodd" transform="translate(0 1.3)"/><path d="m104.95 68.65.45 1.1q.8 1.9.8 3.45 0 1.3-3.5 7.75-2.55 4.6-3.6 7.7-.5 1.45-.7 2.55h-.2V88l.4-3.4q0-4-1.6-4.45l-1.1-.3q-.5-.3-.5-1.45 0-.75.45-1.45l.6-.8q4.35-1.7 6.8-4.7 1.1-1.4 1.7-2.8" fill="#ff4300" fill-rule="evenodd" transform="translate(0 1.3)"/><path d="m60.65 127.6-2.3.4h-.15q.05-4.7.85-9.2l.6-3-.2-2.1v-.05q1.5-1.25 1.95-1.45v-.4l-1.1.2q-1.3 0-1.3-1.4l1.1-2.5q1.1-2.45 1.1-4 0-1.1-.6-1.7 1.3-1.7 2.3-6.5.9-4.25.9-6.8 0-1.7-.4-4.3l-.4-2.6q-.45.45-1.5 3.05l-1.1-2.45Q58.7 80 55.9 80l-2.45.55q.65-.95 2.2-1.7Q57.4 78 59.1 78q3.95 0 5.15 3.35.65 1.75.85 7.35.15 5.2 1.25 7.35 1.4 2.65 4.75 3.2l.15.05L71 101q0 2.65 2.15 5.35.9 1.2 1.9 2l-.1.15-2.1 3.45q1.5-.4 2.25.7.9 1.35.9 5.35 0 1.75-.7 5.35l-.4 2.45-3.2-.4-.5.05.4-5.55-.05-5.15-.75-2.75q-.5 0-1.05.3l-.55.3q-1.25 0-2-1.55-.95-1.85-1.65-6.65l-.45.85-.3.6-1.65 3.9q-2.55 6.85-2.55 12.95v4.25l.05.65m12.2-15.65-.25.05h.2l.05-.05" fill="#ff6205" fill-rule="evenodd" transform="translate(0 1.3)"/><path d="m58.2 128.05-5 .55-3.8-.55Q49 125 49 121q0-5.9 1.3-8.95.55-1.35 1.8-2.6-.3.6-.3 1.15 0 2.45 1.6 3.2l3.3.4q2.05 0 2.75-.5l.2 2.1-.6 3q-.8 4.5-.85 9.2v.05m6.6-22.2.3-.6.45-.85q.7 4.8 1.65 6.65.75 1.55 2 1.55l.55-.3q.55-.3 1.05-.3l.75 2.75.05 5.15-.4 5.55q-1.2.1-2.8.75v-5.6l-1.6.8q-2.8 0-2.8-9.8l.4-3.75.4-2" fill="#ff5e00" fill-rule="evenodd" transform="translate(0 1.3)"/><path d="m71.25 99.25 3.65-.75q.35 4.25 2.1 6.3l.2.2.05.05-2.2 3.3q-1-.8-1.9-2Q71 103.65 71 101l.25-1.7v-.05" fill="#ff510c" fill-rule="evenodd" transform="translate(0 1.3)"/><path d="M42.45 122q-1.05-2.35-1.05-5.4 0-6.05 3.2-10.3 1-1.3 2.65-2.7l.5.95q-4.85 5.7-5.3 17.45" fill="#ff530d" fill-rule="evenodd" transform="translate(0 1.3)"/><path d="M49.4 128.05q-2.05-.65-3.8-2.05-2.1-1.65-3.15-4 .45-11.75 5.3-17.45.95 1.3 2.55 2.25 1.4.8 2.85 1.2-.75.7-1.05 1.45-1.25 1.25-1.8 2.6Q49 115.1 49 121q0 4 .4 7.05" fill="#ff9300" fill-rule="evenodd" transform="translate(0 1.3)"/><path d="m65.3 129.5.2-1.1.1-.8q1.15-.7 2.2-1.15l.15-.05.45-.2q1.6-.65 2.8-.75l.5-.05 3.2.4q1.65.35 2.9 1.25 1.3.85 2.1 2.15l-.8 2-.25.7-3.15 7.7-.1.2-1.25 2.5-.1.15q-2.3 3.9-5.25 6.5-2.75 2.45-7.9 5-2.95 2.75-8.45 5.05-7.4 3.1-16 4-11.25 1.15-18.3 3.4-5.85 1.85-10.95 5 4.6-4.1 9.75-6 3.65-1.4 12.95-2.8l6.6-1.15q5.05-1.1 8.95-2.55 6.95-2.6 14.2-7.35l6.3-4q9.95-7.35 11.4-16.9l-.9-.8-.7-.55-1.3-.85q-1.55-.85-2.75-.85l-.9.1-1.7.45q-.75.25-1.5.7-.15.05-.25.15l-.75.45-.3-.05h-.3l.6.05.7.15-.05.2q-.6 4-2.05 7.7-2.05 5.15-5 8.1-4.5 4.45-7 5.95l-.5.25q-2.85 1.45-7.65 2.65l-9.65 2.7-8.45 1.85Q11 162.35 2 166q5.25-3.8 11.25-5.5l12-2.3 9.5-2.35 6.7-2.5q8.05-3.45 16.1-8.95l1.35-1.5q5-5.75 6.4-13.4" fill="#884125" fill-rule="evenodd" transform="translate(0 1.3)"/><path d="M2 166q9-3.65 25.15-7l8.45-1.85 9.65-2.7q4.8-1.2 7.65-2.65l.5-.25q3.65-1.45 7.7-5.3 8.3-7.85 8.3-17.45l-.1-.65 1.7-.45.9-.1q1.2 0 2.75.85l1.3.85.7.55Q72.35 140.9 66 146.4q-3.1 2.7-12.8 8.3l4.55-2.1 2.1-1.05q-7.25 4.75-14.2 7.35-3.9 1.45-8.95 2.55l-6.6 1.15q-9.3 1.4-12.95 2.8-5.15 1.9-9.75 6-1.9 1.15-3.75 2.5l-1.55-2.95-2.1-4.1 1.2-.55.8-.3" fill="#cb7c3c" fill-rule="evenodd" transform="translate(0 1.3)"/><path d="m76.65 129.85.9.8q-1.45 9.55-11.4 16.9l-6.3 4-2.1 1.05-4.55 2.1q9.7-5.6 12.8-8.3 6.35-5.5 10.65-16.55" fill="#ff8a61" fill-rule="evenodd" transform="translate(0 1.3)"/><path d="M53.4 151.55q2.5-1.5 7-5.95 2.95-2.95 5-8.1 1.45-3.7 2.05-7.7h.15l.2-.95q.75-.45 1.5-.7l.1.65q0 9.6-8.3 17.45-4.05 3.85-7.7 5.3" fill="#fcab46" fill-rule="evenodd" transform="translate(0 1.3)"/><path d="M82.95 106.7q.05 1.3 1.1 4.55.9 2.95 1.35 3.75l.1.05.1.15 1.55-3.55q1.35-2.7 2.85-3.65l.15.1q-1.75 2-2.1 6.6-.25 3.3.15 5.3-1.7-.05-3.8 3.25L82 127.8l1-1-.6 1.95q-.6 1.75-.6 4.65l-.05.1-2.65-2.3.8-2q-.8-1.3-2.1-2.15-1.25-.9-2.9-1.25l.4-2.45q.7-3.6.7-5.35 0-4-.9-5.35-.75-1.1-2.25-.7l2.1-3.45.1-.15 2.2-3.3q1.65 1.75 4.75 1.75l.95-.1" fill="#ff9907" fill-rule="evenodd" transform="translate(0 1.3)"/><path d="M89.15 134.45q.95-5.3 1.9-8.2 1.9-5.65 6.55-5.65 2.05 0 2.4 4.8v4.1q-5.7 4.15-10.85 4.95" fill="#ff7a0d" fill-rule="evenodd" transform="translate(0 1.3)"/><path d="m65.5 128.4-.8-.35-.5-.25-1.2-.4-2.35.2-.05-.65v-4.25q0-6.1 2.55-12.95l1.65-3.9-.4 2-.4 3.75q0 9.8 2.8 9.8l1.6-.8v5.6l-.45.2-.15.05q-1.05.45-2.2 1.15l-.1.8" fill="#ff9700" fill-rule="evenodd" transform="translate(0 1.3)"/><path d="m90.9 1.65 4.2-.35q6.85 0 10.95 3.65Q110.1 8.6 109 15.8q-1 6.45-8.7 10.75l-1.8.95q-9.4 4.5-16.2 2.45 4.25-1.7 9.1-5.45Q98 19.4 98 16q0-4-2.4-6.5-3.2-3.4-10.3-3.4-4 0-7.35 1.35-2.2.9-4.6 2.6l1.75-1.5q3.35-2.7 6.3-4.45 2.05-1.25 7-2.1l2.5-.35M60.15 67.8l-1.55-.9q-5-3.3-5-10.6 0-3.7 2.15-6.45 1.35-1.75 4.75-4.2 3.55-2.55 4.75-3.95 2.15-2.55 2.15-5.8 0-3.75-2.4-6.2-2.4-2.4-6-2.4l-4.3.55q-1.6.55-4.35 2.4 2-3.25 5.4-5.5 1.2-.8 2.4-1.35 2.75-1.3 5.35-1.3 6.75 0 9.3 5 1.6 3.1 1.6 8.7 0 5.75-3.3 11.65-3.3 5.85-3.3 9.15 0 4.25 3.2 7.1 2.3 2.05 4.65 2.35-1.7 1.35-3.75 2.25-2.35 1-4 1-4.5 0-7.75-1.5z" fill="none" stroke="#a41f00" stroke-linecap="square" stroke-linejoin="miter-clip" stroke-miterlimit="3" stroke-width="2"/></g><g id="k" fill-rule="evenodd"><path d="m34.15 2.6 1.9-1.1 2.4-1.5q17.65 20.4 25.4 26.95 3.95 3.3 8.85 6.65l1.35.9q3.4 2.75 9.3 10.2 8.8 11.1 8.8 17.65 0 4.7-3.2 8.4-1.8 2.05-4.25 3.25-8.85-1.25-14.15-3.3-2.3-.9-11.55-6.35l-.45-.55-.5-.65q-3 3.6-7.05 5.45-5.25 2.35-11.2 2.45l-9.7-.85q-3.75-.95-8.25-3.45-10.35-8.4-14.9-15.45Q3.1 45.25 0 27.5v-.1l1.35-.55q3.4 25.5 18.95 36.45l2.3 1.5q.65.95 2.4 1.35 7.1 3.6 14.45 3.05 9.75-.8 16.15-5.65l1.7-1.35 3.6-3.45-2.4 3.85 11.45 5.1.85.35q7.1 2.9 10.35 2.9 3.8 0 5.8-2.8 2-2.85 2-8.4 0-7.55-7.65-16.4-6.55-7.55-11.5-8.8l-.6-.5-5.25-4.25q-9.75-7.85-29.8-27.2m24.35 60-.9.05.45.5.45-.55" fill="#884125"/><path d="M69.95 67.7 58.5 62.6l2.4-3.85-3.6 3.45-1.7 1.35q-6.4 4.85-16.15 5.65-7.35.55-14.45-3.05l10.45.8q13.3 0 19.1-3.05 2.3-1.2 7.05-6.45l.55-.65-.2 1.45q0 2.25 8 9.45m-29.4-22.15q-1-1.2-1-2.8 0-2.3 1.75-4.45 1.8-2.25 4.25-2.35h1.4q-1.7.55-2.9 1.45-2.1 1.7-2.1 4.35 0 .75.7 1.7.7 1 .7 1.7v.8q-.2.6-1.2.6-.75 0-1.6-1m2.9-13.7q3.3-2.5 7.3-2.5 6.6 0 10.8 3.2 4.8 3.7 4.8 10.6 0 4.3-3 7-3.1 2.8-8.4 2.8-3.95 0-6-2.6-1.8-2.25-1.8-6 0-3.8 2.2-5.4h.95l-.1.2-.05 1.5q0 2.4 1.4 3.9 1.65 1.8 4.9 1.8 2 0 3.5-1.2 1.8-1.45 1.8-4.1 0-3.4-3.8-5.7-3.7-2.2-9-2.2-2.55 0-5.6 1.25-2.65 1.05-3.8 2.15 1.15-2.7 3.9-4.7" fill="#fcab46"/><path d="M1.35 26.85q5.1-2.35 12.5-8.7 11.5-9.85 12.9-10.8l7.4-4.75q20.05 19.35 29.8 27.2l5.25 4.25.6.5q4.95 1.25 11.5 8.8 7.65 8.85 7.65 16.4 0 5.55-2 8.4-2 2.8-5.8 2.8-3.25 0-10.35-2.9l-.85-.35q-8-7.2-8-9.45l.2-1.45-.1-.5-.2.5-.25.65q-4.75 5.25-7.05 6.45-5.8 3.05-19.1 3.05L25 66.15l-2.4-1.35-2.3-1.5Q4.75 52.35 1.35 26.85m42.1 5q-2.75 2-3.9 4.7 1.15-1.1 3.8-2.15 3.05-1.25 5.6-1.25 5.3 0 9 2.2 3.8 2.3 3.8 5.7 0 2.65-1.8 4.1-1.5 1.2-3.5 1.2-3.25 0-4.9-1.8-1.4-1.5-1.4-3.9l.05-1.5.1-.2h-.95q-2.2 1.6-2.2 5.4 0 3.75 1.8 6 2.05 2.6 6 2.6 5.3 0 8.4-2.8 3-2.7 3-7 0-6.9-4.8-10.6-4.2-3.2-10.8-3.2-4 0-7.3 2.5m-2.9 13.7q.85 1 1.6 1 1 0 1.2-.6v-.8q0-.7-.7-1.7-.7-.95-.7-1.7 0-2.65 2.1-4.35 1.2-.9 2.9-1.45h-1.4q-2.45.1-4.25 2.35-1.75 2.15-1.75 4.45 0 1.6 1 2.8m6.4-9.6h.4l.15-.15-.2.05-.35.1" fill="#cb7c3c"/></g><g id="l" fill-rule="evenodd"><path d="m9.2 12.7.7-1.85.25-.5.05-.05q6.05-8.5 14.6-8.5 7.45 0 14.6 10.9l4.8 13.05q3.45 9.8 3.65 11.2l-2.35.25q-.5 0-1.3-.4.75 1 1.7 1l2.45-.1Q49.4 39 50.6 39q1.6 0 3.65-.95l2.55-1.65q3.3 2.75 5 6.35 1.05 2.3 1.35 4.55l-1.05.35q-2.9 1.1-4.9 2.15-3.45.5-9.05 2.3-8.55 2.7-13.95 6.5L33 55.85l.05-.05 3.9-3.25q4.1-4.1 5.8-8.4-2 2.65-4.55 5-5.4 4.95-11.65 6.35 8.2-7.6 8.05-26.1v-2.8q-.55.15-6.1 6.4l-6.25 6.75-.05-.15q1.95-2.85 3.7-9.95 1.7-6.75 1.7-10.85l-.4-4.4q-.5.1-4.4 3.55-3.45 3.1-4.5 4.2l-.1-.15q.35-2.3-1.55-5.7-2.25-4.1-5.85-4.1-.7 0-1.6.5M51 60.05v.45q0 5.7 2.5 9.3l.2.25-.35 1.1q-1.3-1.8-4.1-3.9-2-1.55-3.4-2.2l.35-1.45q0-1.1-.45-1.5l-.9-.8.05-.05 6.1-1.2" fill="#cb7c3c"/><path d="M10.2 10.3v-.05l-.6-1.7-.5-1.05q2.6-3.4 6.3-5.35Q19.4 0 23.7 0q13 0 22.2 16 3.25 5.7 5.35 12.2 1.15 3.7 1.55 6.1l.55-.5q2.75-2.75 3.45-6.2 5.3 6.45 8.25 12.1 1.6 3.1 2.4 5.65L64.8 46.6q-.3-2.45-2.45-6.95-2.9-6-6.15-7.25-.55 2.5-3.2 3.95l-.2.1q-1.9.95-4.45 1.25l-2.45.1q-.95 0-1.7-1 .8.4 1.3.4l2.35-.25 2-.65q-1.3-6.95-7.35-18.35l-3.1-5.25Q32.25 1.8 24.8 1.8q-8.55 0-14.6 8.5m47 39.5q-1.75.95-2.75 1.85l-.35.35-4.25 1.55-.15.1L46 55l-.45.15-8.6 3.25-.05-.15-.15.25-2.25.85-.3-.75q5.4-3.8 13.95-6.5 5.6-1.8 9.05-2.3m-5.95 7.8q-.2 1.15-.25 2.45l-6.1 1.2-.05.05-9.05 1.9.2.85.95 4.2-2.65-3.85q-1-1.1-2.15-1.5l-.15-.45q-1.05-3.25-2-5.05-2.05.8-4.1.8Q0 58.2 0 33.7q0-7.2 2.3-12.1 2.05-4.35 5.75-6.3l-.6.6q-2.4 2.8-3.6 6.4Q2.4 26.75 2.4 34q0 10.15 7 16.6Q15.25 56 21.6 56l4.95-.5q6.25-1.4 11.65-6.35 2.55-2.35 4.55-5-1.7 4.3-5.8 8.4l-3.9 3.25-.05.05 1.2 2.75q-.85.6-1.5 1.5l1.8-.75.9 2.55 3.15-1.15.4-.15 5.45-1.55 2.1-.5.2-.05 3.4-.7 1.15-.2" fill="#884125"/><path d="m64.8 46.6-1.65.7q-.3-2.25-1.35-4.55-1.7-3.6-5-6.35l-2.55 1.65Q52.2 39 50.6 39q-1.2 0-2.25-1.3 2.55-.3 4.45-1.25l.2-.1q2.65-1.45 3.2-3.95 3.25 1.25 6.15 7.25 2.15 4.5 2.45 6.95M7.45 15.9q.5.1.8-.7l.15-.1-.05-.1.5-1.5.35-.8q.9-.5 1.6-.5 3.6 0 5.85 4.1 1.9 3.4 1.55 5.7v.2l.1-.05q1.05-1.1 4.5-4.2 3.9-3.45 4.4-3.55l.4 4.4q0 4.1-1.7 10.85-1.75 7.1-3.7 9.95v.2l.05-.05L28.5 33q5.55-6.25 6.1-6.4v2.8q.15 18.5-8.05 26.1l-4.95.5q-6.35 0-12.2-5.4-7-6.45-7-16.6 0-7.25 1.45-11.7 1.2-3.6 3.6-6.4m29.5 52.35-.95-4.2-.2-.85 9.05-1.9.9.8q.45.4.45 1.5l-.35 1.45q-1-.45-1.75-.45-3.8 0-6.45 4.85l-.7-1.2" fill="#fcab46"/><path d="m46 55 3.7-1.35.15-.1q.7.45.9 1.05l.05 1.2-.5 1.5-.2.5-3.4.7.3-.45q.4-.75.4-1.55 0-.85-.4-1.15L46 55m-11.5 4.35 2.25-.85q-.35.45-.35.8 0 .3 1 .9l1.15.55-3.15 1.15-.9-2.55" fill="#e25412"/><path d="m36.95 58.4 8.6-3.25L46 55l1 .35q.4.3.4 1.15 0 .8-.4 1.55l-.3.45-.2.05-2.1.5-5.45 1.55-.4.15-1.15-.55q-1-.6-1-.9 0-.35.35-.8l.2-.1" fill="#ffdd2e"/><path d="m53.7 70.05 1.5 1.7-3.15 10.65q-1.65 5.5-1.65 7.5 0 1.4.4 1.7l.95.2h.95q8.35 0 15.7-8.1 5.15-5.65 6.8-10.55l1.3.4.35.1q1.1 2.3-.85 5.85-1.95 3.55-6.3 7.25-10.05 8.45-19.4 8.45l-3.5-.4-.9-.2 1.55-4.55-4.85.9-9 1.05-1.2-.2v-2.4l.45-2.6-7.25.8-8.8-.4q3-10.55 5.55-15.95 4.05-8.65 8.25-8.65l1.55.3q1.15.4 2.15 1.5l2.65 3.85.4 1.85.3-.65q2.65-4.85 6.45-4.85.75 0 1.75.45 1.4.65 3.4 2.2 2.8 2.1 4.1 3.9l.35-1.1M36.35 72.3l.2-.5q-.25-2.4-2.35-4.45-2.15-2.15-4.2-2.15-2.25 0-5.05 7-1.45 3.6-4.35 13.2l.55-.1 12.5-2.6 1.25-5.6q.7-2.85 1.45-4.8m-.6 17.5h.15l6.3-1.4 6.35-1.6 1.2-3.8 1.35-4.3 1.7-5.5q-1.2-1.55-3.35-3.35-2.95-2.45-4.65-2.45-5.25 0-8.05 9.5-.35 1.25-2.35 12.7l1.35.2" fill="#4c4e4f"/><path d="m55.2 71.75 2.2 1.65q3.55 2.05 8.55 2.35L63.6 77.2q-4.4 2.45-5.2 2.95Q52.85 84 51.75 91.8l-.95-.2q-.4-.3-.4-1.7 0-2 1.65-7.5l3.15-10.65m-18.65.05-.15.4-.05.1q-.75 1.95-1.45 4.8-1.35-1.1-3.1-1.1-3.25 0-5.85 2.3-2.45 2.25-4.8 7l-.55.1q2.9-9.6 4.35-13.2 2.8-7 5.05-7 2.05 0 4.2 2.15 2.1 2.05 2.35 4.45m-.8 17.95v.05l-1.35-.2q2-11.45 2.35-12.7 2.8-9.5 8.05-9.5 1.7 0 4.65 2.45 2.15 1.8 3.35 3.35l-1.7 5.5q-2.8-.4-7.85 2.1-6.45 3.2-7.5 8.95" fill="#e8fffd"/><path d="m65.95 75.75 1.65.05q2.55 0 4.1-.9l2.75-2.05.75.3q-1.65 4.9-6.8 10.55-7.35 8.1-15.7 8.1h-.95q1.1-7.8 6.65-11.65.8-.5 5.2-2.95l2.35-1.45M34.9 77.1l-1.25 5.6-12.5 2.6q2.35-4.75 4.8-7 2.6-2.3 5.85-2.3 1.75 0 3.1 1.1m1 12.7-.15-.05q1.05-5.75 7.5-8.95 5.05-2.5 7.85-2.1L49.75 83l-1.2 3.8-6.35 1.6-6.3 1.4" fill="#7a8788"/><path d="M47.85 36.95q-.2-1.4-3.65-11.2L39.4 12.7l3.1 5.25q6.05 11.4 7.35 18.35l-2 .65" fill="#ff8a61"/><path d="M54.1 52q-2.2 2.2-2.85 5.6l-1.15.2.2-.5.5-1.5-.05-1.2q-.2-.6-.9-1.05L54.1 52" fill="#ad3e00"/><path d="M73.95 24.8q-1.8-.6-3.45-.6l-.8.05q2.25 1.3 4 3.75 2.5 3.45 2.5 7.5 0 5.05-3.5 8.55-1.65 1.7-4.75 3.5l-.05.05q-1.35.75-2.9 1.5-6.1 3-7.7 4.2l-1 .85q-2.5 2.35-2.5 5.35 0 3.4.95 5.85l.15.35q.9 2.25 2.7 3.7 1.45 1.2 3.4 1.8l4.5.6q2.3 0 4.85-1.25l.9-.5 1.8-1.05q.85.9 2.2 1.7l.8.45q2.5 1.25 4.55 1.25l2.45-.4.15-.05q1.3-.6 2.2-1.8.8-1.15 1.25-2.85.8-3.35.2-5.9l-2.2 2.1-.2.15-1.45.9-3 .65-2.6-.4q-.85-.3-1.6-.8-1.9-1.35-2-3.75l.15-.1-.15-.15q0-3.05 2.05-5.3l2.75-2.25 1.8-1.35 2.2-1.7q4.4-4 4.4-8.9 0-5.6-4.9-10.35l-1.4-1.25-.1-.1q-3.55-2.95-6.65-4m-11.4.2 2.35-2.05q2.35-1.75 5.1-1.75 7.25 0 13.4 6.2 6 6.05 6 12.7 0 6.55-6.5 11.4L78.45 55q-2.05 2.1-2.05 4.6 0 1.45 1.4 2.4 1.15.8 2.2.8 1.55 0 4.2-1.7 1.9-1.25 3.05-2.65l.95 2.05q1.2 2.85 1.2 5.1 0 8.6-7.3 8.6l-4.65-.45-.6-.1-.35-.1-1.3-.4.1-.9-.85.6-2.75 2.05q-1.55.9-4.1.9l-1.65-.05q-5-.3-8.55-2.35l-2.2-1.65-1.5-1.7-.2-.25Q51 66.2 51 60.5v-.45q.05-1.3.25-2.45.65-3.4 2.85-5.6l.35-.35q1-.9 2.75-1.85 2-1.05 4.9-2.15l1.05-.35 1.65-.7 2.65-1.25 2.3-1.5q3.45-2.9 3.45-8.35 0-4.15-3.2-7.3-3.2-3.15-7.45-3.2" fill="#a41f00"/><path d="m56.3 54.15 1-.85q1.6-1.2 7.7-4.2 1.55-.75 2.9-1.5l.05-.05q3.1-1.8 4.75-3.5 3.5-3.5 3.5-8.55 0-4.05-2.5-7.5-1.75-2.45-4-3.75l.8-.05q1.65 0 3.45.6Q76 26.9 77 28.85q1.4 2.75 1.4 6.25 0 3.65-2.6 6.85-3.7 4-6 7.25-.8 1.15-2.75 6.25l-.65 1.6q-.6 1.55-1.7 2.4-.8.6-1.85.85l-1.35.1q-1.85 0-3.3-1.2l-.4-.4q-1.6-1.65-1.6-3.8l.1-.85" fill="#ff0"/><path d="M73.95 24.8q3.1 1.05 6.65 4l.1.1q-.4.55-.6 2.05l-.5 3.25v2.5l.4.1q1.15 0 1.65-3.65l.45-3Q87 34.9 87 40.5q0 4.9-4.4 8.9-2.05-7.7-1.8-11.2-1.65.7-1.75 5.2l-.45 9.05-2.75 2.25Q73.8 56.95 73.8 60v.25l-4.4 2.35v1l1.85 6.45-.9.5Q67.8 71.8 65.5 71.8l-4.5-.6q-.4-2.2.35-6.05.55-2.75 1.5-4.85 1.05-.25 1.85-.85l.7.85q.55.5 1.4.5 2.15 0 5.75-6.2 2.9-4.95 3.4-6.9l.25-.3H76l-.05.3q-1.35 1.4-4.1 5.25-2 2.85-3.35 2.85l-.8-.2-.65-.15q1.95-5.1 2.75-6.25 2.3-3.25 6-7.25 2.6-3.2 2.6-6.85 0-3.5-1.4-6.25-1-1.95-3.05-4.05m3.45 40 2.6.4 3-.65.2 7.4-.15.05-2.45.4q-2.05 0-4.55-1.25l-.8-.45.05-.05 2.1-5.85m7.05-1.15.2-.15 2.2-2.1q.6 2.55-.2 5.9-.45 1.7-1.25 2.85l-.45-2.8-.5-3.7" fill="#ff4200"/><path d="m80.7 28.9 1.4 1.25-.45 3q-.5 3.65-1.65 3.65l-.4-.1v-2.5l.5-3.25q.2-1.5.6-2.05m1.9 20.5-2.2 1.7-1.8 1.35.45-9.05q.1-4.5 1.75-5.2-.25 3.5 1.8 11.2m-8.8 10.85q.1 2.4 2 3.75.75.5 1.6.8l-2.1 5.85-.05.05q-1.35-.8-2.2-1.7l-1.8 1.05-1.85-6.45v-1l4.4-2.35M61 71.2q-1.95-.6-3.4-1.8-1.8-1.45-2.7-3.7l-.15-.35q.55-1.7 1.5-3.45 1-1.9 1.95-2.7 1.45 1.2 3.3 1.2l1.35-.1q-.95 2.1-1.5 4.85Q60.6 69 61 71.2m3.7-11.75q1.1-.85 1.7-2.4l.65-1.6.65.15.8.2q1.35 0 3.35-2.85 2.75-3.85 4.1-5.25-.5 1.95-3.4 6.9-3.6 6.2-5.75 6.2-.85 0-1.4-.5l-.7-.85" fill="#ffa108"/><path d="m83 64.55 1.45-.9.5 3.7.45 2.8q-.9 1.2-2.2 1.8l-.2-7.4" fill="#ff9809"/><path d="M54.75 65.35q-.95-2.45-.95-5.85 0-3 2.5-5.35l-.1.85q0 2.15 1.6 3.8l.4.4q-.95.8-1.95 2.7-.95 1.75-1.5 3.45" fill="#ff6111"/></g><g id="m"><path d="M62.75 1.55q1.7-.8 3.15-1.1L71.4 0q13.4 0 21.9 5.9l.6.45q-.05 6.75-1.15 15.7-1.25 10-2.15 12.55-1.15 3-3.35 5.8-1.65 2.1-3.1 2.9-2.1-1.65-4.95-3.3-2.55-1.5-5.1-2.65-8.75-3.95-17.6-3.95l-1.3.05-1.2-.25-.55.35-3.15.45q3.4-7.05 5-11.05 2.15-5.5 7.35-21l.1-.4" fill="#fcab46" fill-rule="evenodd" transform="translate(.7)"/><path d="m55.2 33.45 1.3-.05q8.85 0 17.6 3.95.9 1.6.9 4.05l-.15 1.75q-.3 1.4-1.15 2.2l-1.7 1q-2.05-1.25-4.4-2.25l-.2-.1q-4.75-2.05-12.65-2.6l.45 2q0 .8-.55 1.95l-.3.55-1.7 2.1 4.15 2.8 1.6 1.15V52q-.05.7-1.15 1.8l-.55.55-.1.05Q54.75 56 53.5 56h-.35l-.15-.2-.2-.25q-3.2-4.2-5.85-5.5l-.55-.25-1.9-.4q-2.15 0-4.95 2.75l-.95-2.7-.3-.6q.35-1.5 2.1-2.7l.4-.25q.75-.45 1.95-.95l2.25-.9q3.6 1.45 7.65 3.95-4.05-2.5-7.65-3.95-1.8-.75-3.5-1.25l-1-.25-.1-.85.05-.85 10.4.35Q50 40 50 39.6q0-1.15.6-2.45l.35-.75q1-1.85 2.5-2.85l1.75-.1m7.7 19.15h-.5q-.15-.45-.15-1.4l-.05-.8.15-.3.95-1.9q1.45-2.6 2.6-2.6.4 0 .65.5l-.3.75q-1 .7-1.75 1.75-.75 1.1-1.1 2.25l-.15.95-.05.35-.3.45m-8.15-11.2-3.25-.2h-.65.65l3.25.2" fill="#ffdf0d" fill-rule="evenodd" transform="translate(.7)"/><path d="m50.3 34 3.15-.45q-1.5 1-2.5 2.85l-.35.75q-.6 1.3-.6 2.45 0 .4.85 1.6l-10.4-.35Q41 37.05 46.6 35q1.75-.65 3.7-1m23.8 3.35q2.55 1.15 5.1 2.65 2.85 1.65 4.95 3.3l.65.55.4 2.15q0 1.2-.55 2.25-.7 1.35-2.4 2.5-1.55 1-3.55 1.7-2.7-3.55-6.7-6.1l1.7-1q.85-.8 1.15-2.2L75 41.4q0-2.45-.9-4.05M30.35 44.2l1.25-1.1.55-.35q1.55-.95 2.85-.95 2.6 0 5.5.75l1 .25q1.7.5 3.5 1.25l-2.25.9q-1.2.5-1.95.95l-.4.25q-1.75 1.2-2.1 2.7l-.95-1.65q-2.3-3.4-5.15-3.4l-1.85.4m24.4-2.8q7.9.55 12.65 2.6l.2.1-1.05 2q-.25-.5-.65-.5-1.15 0-2.6 2.6l-.95 1.9-.15.3.05.8q0 .95.15 1.4h.5l-1.25 1.95L58.4 52l3.25 2.55 1.85 1.65.25.25-.1.25q-.35.85-1.45 1.5l-.25.15q-1.6.85-3.75.85-1.2 0-2.15-.4-.85-.45-1.35-.55L53 55.8l.15.2h.35q1.25 0 3.1-1.6l.1-.05.55-.55q1.1-1.1 1.15-1.8v-.1.05l-1.6-1.15-4.15-2.8 1.7-2.1.3-.55q.55-1.15.55-1.95l-.45-2" fill="#e25412" fill-rule="evenodd" transform="translate(.7)"/><path d="M93.9 6.35q3.05 2.2 5.55 5.1-3.55 18.2-5.75 26.3-1.95 7.25-4.3 11.5-1.3-2.7-4.6-5.4l-.65-.55q1.45-.8 3.1-2.9 2.2-2.8 3.35-5.8.9-2.55 2.15-12.55 1.1-8.95 1.15-15.7" fill="#cb7c3c" fill-rule="evenodd" transform="translate(.7)"/><path d="M89.4 49.25q.8 1.7.8 3.35 0 1.05-2.8 3.8-3.05 3-5.2 3v-.05l-.65-2.05-2.5 2.5-4.9 3.95-.25.2-5.35 3.7L67.8 70q-1.15 2.8-3.1 2.8-1.15 0-3.4-3.55l-.05-.1-1.7-2.9-3.05-5.15-1.8-2.85q.5.1 1.35.55.95.4 2.15.4 2.15 0 3.75-.85l.25-.15q1.1-.65 1.45-1.5l.1-.25-.25-.25-1.85-1.65 1.25-1.95h.5l1.2-.9.95-1.25q1.25-1.8 1.25-3.25l-.05-.65.05.65q0 1.45-1.25 3.25l-.95 1.25-1.2.9h-.2v-.45l.05-.35.15-.95q.35-1.15 1.1-2.25.75-1.05 1.75-1.75l.5-.3-.15-.35-.05-.1 1.05-2q2.35 1 4.4 2.25 4 2.55 6.7 6.1 2-.7 3.55-1.7 1.7-1.15 2.4-2.5.55-1.05.55-2.25l-.4-2.15q3.3 2.7 4.6 5.4m-7.85 8.05-1.9-3.5-.95-1.35.95 1.35 1.9 3.5m-13 10.35.25-3.05q0-3.15-4.4-7.55l-.65-.6.65.6q4.4 4.4 4.4 7.55l-.25 3.05" fill="#ad3e00" fill-rule="evenodd" transform="translate(.7)"/><path d="m61.3 69.25-4.5 2.85-2.3-2.15-.8-.7Q49.8 66 45.6 66q-6.3 0-13 4.6l-.8.6q-6.25 4.6-7.2 11.1l-1-.2-1.8-.3 2.95-6.4q1.65-3.4 3.6-6.9l2.7-4.7 2-3.2q3.6-5.65 6.5-8.45-2.9 2.8-6.5 8.45-9.75.65-12.45 2.6l-1.55 1.15q-7.65 6-9.35 12.35l-4.1.1q3.1-5.5 5.75-9.85l3.1-5.05 2.95-4.45L19 55.2q-5.1 0-8.95 2.3-2.1 1.2-3.85 3.1-3.45 3.75-4.4 8.8l-1.8.15 1.5-3.75q2.3-5.2 4.85-9.5 1.6-2.7 3.25-4.85 6.45-8.65 12.8-8.65 1.95 0 2.95.9.7.65 1.65 2.5 1.8-1.45 3.35-2l1.85-.4q2.85 0 5.15 3.4l.95 1.65.3.6.95 2.7q2.8-2.75 4.95-2.75l1.9.4.55.25q2.65 1.3 5.85 5.5l.2.25 1.7 2.45 1.8 2.85 3.05 5.15 1.7 2.9.05.1M19 55.2h.1l-.05-.05-.05.05m8-9q-3.5 2.8-7.95 8.95Q23.5 49 27 46.2" fill="#e8fffd" fill-rule="evenodd" transform="translate(.7)"/><path d="M56.8 72.1q-9.85 6.1-13.95 7.75Q36.4 82.4 25.6 82.4l-1-.1q.95-6.5 7.2-11.1l.8-.6q6.7-4.6 13-4.6 4.2 0 8.1 3.25l.8.7 2.3 2.15m-32.05 3.3-6.3.6-8.75.7q1.7-6.35 9.35-12.35l1.55-1.15q2.7-1.95 12.45-2.6l-2 3.2-2.7 4.7q-1.95 3.5-3.6 6.9m-13.4-8.45Q9 68 6.2 68.65l-4.4.75q.95-5.05 4.4-8.8 1.75-1.9 3.85-3.1 3.85-2.3 8.95-2.3l-1.6 2.25-2.95 4.45-3.1 5.05" fill="#7a8788" fill-rule="evenodd" transform="translate(.7)"/><path d="m99.45 11.45.15-.85M63 .8l-.25.75m-.1.4q-5.2 15.5-7.35 21-1.6 4-5 11.05l3.15-.45 1.75-.1 1.3-.05q8.85 0 17.6 3.95 2.55 1.15 5.1 2.65 2.85 1.65 4.95 3.3l.65.55q3.3 2.7 4.6 5.4.8 1.7.8 3.35 0 1.05-2.8 3.8-3.05 3-5.2 3v-.05l-.65-2.05-2.5 2.5-4.9 3.95-.25.2-5.35 3.7L67.8 70q-1.15 2.8-3.1 2.8-1.15 0-3.4-3.55m-20.85-28.4Q41 37.05 46.6 35q1.75-.65 3.7-1m49.15-22.55q-3.55 18.2-5.75 26.3-1.95 7.25-4.3 11.5M30.35 44.2l1.25-1.1.55-.35q1.55-.95 2.85-.95 2.6 0 5.5.75l-.1-.85.05-.85 10.4.35h.65l3.25.2q7.9.55 12.65 2.6l.2.1q2.35 1 4.4 2.25 4 2.55 6.7 6.1l.95 1.35 1.9 3.5M52.65 48l4.15 2.8 1.6 1.15V52l3.25 2.55 1.85 1.65m-.6-3.6h-.5q-.15-.45-.15-1.4l-.05-.8.15-.3.95-1.9q1.45-2.6 2.6-2.6.4 0 .65.5l.05.1.15.35.05.65q0 1.45-1.25 3.25l-.95 1.25-1.2.9h-.5M45 44.05q3.6 1.45 7.65 3.95m11.1 8.45.65.6q4.4 4.4 4.4 7.55l-.25 3.05M40.5 42.55l1 .25q1.7.5 3.5 1.25" fill="none" stroke="#884125" stroke-linecap="square" stroke-linejoin="miter-clip" stroke-miterlimit="3" transform="translate(.7)"/><path d="m61.3 69.25-4.5 2.85q-9.85 6.1-13.95 7.75Q36.4 82.4 25.6 82.4l-1-.1-1-.2-1.8-.3 2.95-6.4-6.3.6-8.75.7-4.1.1q3.1-5.5 5.75-9.85Q9 68 6.2 68.65l-4.4.75-1.8.15 1.5-3.75q2.3-5.2 4.85-9.5 1.6-2.7 3.25-4.85 6.45-8.65 12.8-8.65 1.95 0 2.95.9.7.65 1.65 2.5 1.8-1.45 3.35-2l1.85-.4q2.85 0 5.15 3.4l.95 1.65m14.5 6.7q-3.2-4.2-5.85-5.5m-.55-.25-1.9-.4q-2.15 0-4.95 2.75-2.9 2.8-6.5 8.45l-2 3.2-2.7 4.7q-1.95 3.5-3.6 6.9M52.8 55.55l.2.25 1.7 2.45 1.8 2.85 3.05 5.15 1.7 2.9.05.1m-22.7-19.8.95 2.7m-20.5 3-.05.05-1.6 2.25-2.95 4.45-3.1 5.05m7.7-11.8Q23.5 49 27 46.2" fill="none" stroke="#4c4e4f" stroke-linecap="square" stroke-linejoin="miter-clip" stroke-miterlimit="3" transform="translate(.7)"/></g><g id="n"><path d="M197.25 38.5q3.7-1.05 8.05-1.6-16.45-5.15-29.35-5.95l-22.45-.7q-4.25 0-8.2.15l-4.45.2-2.3.1h-.05l-17.5.7h-.05l-1.95-.15-2.7-.6q-1.85-.6-3.45-1.55v.05q-3.05-1.85-3.6-4.75-.5-2.05 1.25-4.8.75-1.2 1.9-2.5l1.4-1.45q3.5-3.55 10.2-8.2 4.95-3.6 11.6-5.45h-.85l-7.95.35q-23.25 2.05-39.35 16.4L76 30.4q-5.65 5.7-9.3 5.6l-1.45-.15Q64.2 35.6 63.5 35q-.75-.65-1.1-1.6-.6-1.4-.6-4.8 0-4.4 2.55-7.5-1.15.4-2.15.9h.05q-4.5 2.4-8.1 8.3v-.05q-.8 1.35-6.3 15.05-3.4 7.6-5.85 11-1.65 2.3-2.9 2.65l-.55.05q-2.75.25-3.4-6.25-.4-3.7-.15-9.9l-1.2 2.8-.15.4-1.4 2.7v.05l-3.1 4.7q-3.15 4.4-7.7 9.7-7.2 8.45-9.3 11.75-3.85 6.1-3.85 12.2l.25 2.95.65 3.95.3 1.75q.55 3.35.55 5.6v1.25q-.15 2.85-.8 4.75l-1.3 2.15q-1.6 1.7-1.65 3.1l.05.9q.2 2.6 1.9 4.7l1.8 1.65 2.3 1.6-.05.2H9.15l-3.3-.7-2.65-1.05q1.3 3.55 3.95 6.25h.05q2.3 2.35 7.1 4.95l2 1.05-2.15.75-.6.2-.4.15-1.2.3h-.05l-4.05.4 1.85 1.9 2.25 1.6 2.3 1.2-.15 1.35.05.75q-3.4-1.4-5.75-3.4l-1.7-1.65-1.85-2.2-1.5-1.85 2.35.2 2.1.1 3.4-.3q-3.55-2.1-5.45-4.1-3.85-3.9-5.15-9.45L0 115.9l2.05 1.15 1.8.95.35.15 2.15.9q-2.05-2.8-2.05-6.4-.05-2.1 2.2-4.45h-.05q1.6-1.9 1.6-6.8 0-2.6-.8-6.95-.8-3.8-.9-6.35l-.05-.95q0-6.6 4.15-13.25v-.05q2.2-3.4 9.5-11.95 6.1-7.1 9.6-12.6l1-1.55Q32.1 45.1 35.4 36.1l1.05-2.7 1.1.25-.2 2.9q-.75 10.65-.2 15.95.4 4.3 1.4 4.5.85-.1 2.3-2.35 2-3.1 5.15-10.15v.05q5.65-13.95 6.45-15.3 3.9-6.45 8.85-9v-.05q2.8-1.45 6.85-2.1l2.8-.5.35.95-2.5 1.4-1.45.95v.05Q63.8 23.9 63.8 28.6q0 2.6.35 3.8l.1.25v-.05q.45 1.05 1.65 1.35l.8.05q3.05-.1 7.85-5L86.1 17.25Q104.95.45 133.3 0h1.45l7.35.1 2.75.2 2.85.35v1.3l-2.9.35q-11.9 1.25-19.65 6.8-4.85 3.35-7.95 6.1l-3.3 3.2v.05l-.9 1.1q-2.1 2.65-1.8 4.45.4 2.1 2.65 3.4 2.25 1.35 5 1.8l.45.05 1.75.15 17.35-.7 15.1-.45 22.55.7q13.9.85 31.85 6.65l2.6.85 2.7.9-.1.85-2.85.2-2.35.2-4.25.55q-6.5 1.05-11.35 3.25-13.7 6.3-13.95 9.6.2 2.65 12.15 10.35 6.35 4.1 13.35 8.3l.15.05.05.1 3.85 3.95q4.45 4.85 6.9 9.35 1.75 3.25 3.25 7.5 1.1 3.15 2.05 6.85l.5 1.95-1.9-.75-3-1-5.2-.95-2.6-.15-1.05-.05q-7 0-16.65 4.65-10.05 4.8-15.2 4.85h-.15l-1.05-.05q1.55 3.6 3 8.2l2.45 8.8.65 2.7-2.25-1.65-2.25-1.6-.75-.5-.25-.15q-5.7-3.65-12.4-5.75.3 3.3 1.2 6.2 1.05 3.55 3 6.5 2.4 3.6 6.15 6.3 4.45 3.2 8.9 4.4l1.6.45-1.1 1.2-4.45 4.25q-3.75 3-7.3 4.05-5.65 1.65-10.85.7h-.05l-7.45-1.75-1.95-.6-3.45-1q-.4 2.4-.4 4.45 0 1.65.4 3.65l.85 4 .2 1-.55.1-1.7-1.05-1.7-1.05-5.45-3.85.6-.6.75-.95.05-.05 1.7 1.05 3.25 1.7q-.4-2.15-.4-3.95 0-2.65.65-5.9l.15-1.1 1.05.3 1.7.45 4.85 1.5 7.25 1.7q4.75.85 9.95-.65 2.45-.75 5.05-2.55l4.65-4.05q-3.95-1.35-7.95-4.25-1.95-1.35-3.5-2.95-2.1-2.1-3.65-4.55-2-3.25-3-7.1-.85-3.1-1.1-6.55l-.05-.8-.1-1.4 1.4.4q3.9 1.15 7.5 2.75 2.4 1.1 4.65 2.35l3.25 2.05-1.7-6.05q-1.85-5.75-3.8-9.8l-.6-1.3-.6-1.25v-.05l2.65 1.35 2.3.3q4.85-.05 14.5-4.65 10.1-4.85 17.5-4.85l1.05.05 1.65.05 1.5.15 5.15.95 1.45.4q-1.25-4.55-2.75-8.15l-.3-.75-.75-1.6-.8-1.55q-1.55-2.8-3.85-5.7l-1.3-1.55-5.25-5.55-13.25-8.2-1.2-.8Q176.15 55.3 176.35 52q-.25-4.4 15.1-11.4 2.65-1.25 5.8-2.1M145.7 157.75q-3.55-1.85-7.2-3.4 3.65 1.55 7.2 3.4M58.85 189l1.6.65q3.15 1.15 6.15 1.15l7.95.75 1.3.4q2.9.9 6 2.75l1.95 1.25.3-.85.2-1 .3-3.4-.15-2.95.6-.75.9-1.25.25-.35v.05l.25 6.05q0 2.4-.5 4.65l-1.05 3.5q-1.85-2.25-4.3-3.75-1.9-1.2-4.15-1.95l-1.7-.5q-3.45-.95-9.25-1.5l-5.2-.65q-2.6-.45-3.85-1.05L55 189.4q-.3 4.6-3.1 7.95-1.95 2.35-4.75 3.45-2.45.95-5.5.95H40.1q1.1-.45 2-1.2 2-1.55 2-3.4 0-3.4-2-4.95l-.2-.15q-1.25-.85-4.6-1.75-5.6-1.5-8.95-4.75l-1.8-2.15.4 3.35.2 1.65q-4.45-2.95-7.7-9.3-3.85-7.45-3.85-15.65 0-3.95.45-5.65-2.8.65-3.3.85.75-2.45 2.3-5.7 1.85-3.9 3.35-5l1 1 .45.4-.05.05-1.85 3.1-1.3 2.4 1.2-.5q1.2-.5 1.7-.5l.1.05q-1.25 2.75-1.55 4-.4 1.5-.4 4.45v.35q0 5.5 3 13.2l1.65 3.9 1.7 3.3-.35-5.05.05-3.4.3-1.5q1.5 3 3.3 5.55l.65.9 2.35 2.7 1.65 1.6 2 1.6 1.7 1.15q1.45.9 3 1.6l3.5 1.65 1.9.95q1.05.75 1.6 1.9.5 1.1.5 2.55 0 2.6-3.45 5.3 2.4-.65 4.35-1.85 2.15-1.35 3.8-3.35l.5-.7q1.45-1.95 2.2-3.95l.45-1.2.2-.95q-1.55-1.8-1.55-4.8 0-1.2.6-2.45l.15-.3.4-.65-.05 1.05-.05.15-.05.25-.15 1.1q0 1.8 1.3 3.25 1.25 1.5 3.75 2.65l.25.1m26.3-.5q.8-1.5 1.05-3.05-.25 1.55-1.05 3.05" fill="#a41f00" fill-rule="evenodd"/><path d="M145.3 30.4q3.95-.15 8.2-.15l22.45.7q12.9.8 29.35 5.95-4.35.55-8.05 1.6l-6.7-.7-29.05-2.55-12.7.6q.6-.45 1.25-.85l.25-.5.15-.8q0-1.35-2.25-2.45-1.35-.65-2.9-.85m-29 .25 2.7.6 1.95.15h.05l17.5-.7h.05l2.3-.1q-2.65.55-5.55 2.25-1.3.75-4.5 3.15v.1h.05l3.55-1.25q1.6-.55 2.4-.55l1.35.05.65.5.05.45-.1 1.75-14.35 2.5q-10.95 2.25-18.65 4.85 2-2.8 4.5-5.4 3.95-4.1 7.8-6.3-2.1.2-8.7 3.2-2 .95-3.65 1.8 4.6-3.5 10.6-7.05m1.75 2.05.3-.05v-.15l-.3.2" fill="#ffd900" fill-rule="evenodd"/><path d="M209.2 79.35q2.3 2.9 3.85 5.7l.8 1.55-.45 1.1-5.5-4.4-6.05-4.55 1.2-.05 4.85.45 1.3.2" fill="#ffb800" fill-rule="evenodd"/><path d="m188.2 63.25 1.2.8 13.25 8.2 5.25 5.55 1.3 1.55-1.3-.2-4.85-.45-1.2.05q-4.85-3.5-8.7-5.75-7.5-4.35-18.95-8.3 2.95-1.95 6.95-3.5l.45.1q3.2.7 6.6 1.95m-15.7.9q-1.95-.7-4.05-1.3l1.4-2.3h6.6l2.05.2q-2.6 1.05-5.6 3.1l-.4.3m-5.8 1.5 3.05.7Q166.9 68.9 164.9 72l-2.25-.15 4.05-6.2m4.65 1.15q9.65 2.55 16.35 6.4 4.15 2.4 7.95 5.45l-2.3-.75-.45-.2-1.1-.45-4.95-2.15-4.55-1.2-3.35-.6-10.1-1.05-2.25-.15q2.05-3.05 4.75-5.3" fill="#ffad00" fill-rule="evenodd"/><path d="M197.25 38.5q-3.15.85-5.8 2.1-15.35 7-15.1 11.4-.2 3.3 11.85 11.25-3.4-1.25-6.6-1.95l-.45-.1-1.75-.3-.9-.15-2.05-.2h-6.6l4.8-8.5q-22.7 18.75-47.75 30.6l-.2.1-4.45 2.05.2-2.15q9.25-4.1 24.35-13.4 17.35-10.75 24.25-17.4l-7.6 5.25-11.65 7.5-11.85 7.1-6.3 3.15-1.95.9h-.05l.85-.4-3.6-.2q-1.25-.65-1.5-.65l-3.15.45-1.15-.2v-.25l-.2.15q-.95-.5-1.6-1.7l-.35-.8q1.4-.65 3.1-.65 2.75 0 2.75 1.35l-.05.45 5.65-3.9 7.9-5.2v-.05h-.05L125.6 68.8l-5.05 1.6-.1-1.2v-.45q9.35-3.9 25.4-10.25 26.4-11.05 38.95-19.6l-8 2.75q-9.1 2.85-14.3 2.85l-4.65-.1Q147.6 56.2 138.9 56.2l-1.95-.5q-1.05-.6-1.05-1.45 0-.75.7-2.15 1.1-2.15 3.5-4.65l2.5-.65q5.4-1.2 10.4-.9l-4.35-.5-4.85.2 2.65-2.3 2.85-2.25-2.3 1q-2.8 1.5-7.25 3.95l-7.05 1.25 4.1-3 12-8.4 12.7-.6 29.05 2.55 6.7.7m-1.05 40.3-.55-.15q-3.8-3.05-7.95-5.45-6.7-3.85-16.35-6.4l-1.6-.45-3.05-.7 1.75-2.8q2.1.6 4.05 1.3l1.7.55q11.45 3.95 18.95 8.3 3.85 2.25 8.7 5.75h-3.1l-2.4.1-.15-.05m-11.4-39.9.15-.1.15-.15-.3.25" fill="#ff3400" fill-rule="evenodd"/><path d="m195.65 78.65.55.15v.05q-5.65.35-10.5 2.5l-2.05-1.9 9.25-1.75.45.2 2.3.75" fill="#ff9200" fill-rule="evenodd"/><path d="m209.55 95.6-1.65-.05-1.05-.05q-7.4 0-17.5 4.85-9.65 4.6-14.5 4.65l-2.3-.3-2.65-1.35v.05l.6 1.25-2.8-1.2q9.8-1.25 14.3-4 6.55-3.95 6.55-10.9 0-2.9-1.3-5.15l-1.55-2.05q4.85-2.15 10.5-2.5h.15l2.4-.1h3.1l6.05 4.55 5.5 4.4-2.15 4.7-1.7 3.2" fill="#f30" fill-rule="evenodd"/><path d="m211.05 95.75-1.5-.15 1.7-3.2 2.15-4.7 1 .85-3.25 6.9-.1.3" fill="#ffc204" fill-rule="evenodd"/><path d="M214.9 88.95q1.5 3.6 2.75 8.15l-1.45-.4-5.15-.95.1-.3 3.25-6.9.5.4" fill="#ff530d" fill-rule="evenodd"/><path d="m126.8 2.35 7.95-.35h.85q-6.65 1.85-11.6 5.45-6.7 4.65-10.2 8.2Q100 18 85.1 29.5q-4.2 3.25-7.55 6.6l-2.85-2.4q5.45-5.75 10.9-9.45 15-10.2 26.9-15.85 6.85-3.25 14.3-6.05" fill="#ff5e13" fill-rule="evenodd"/><path d="M42 56.3q2.45-3.4 5.85-11 5.5-13.7 6.3-15.05v.05q3.6-5.9 8.1-8.3h-.05q1-.5 2.15-.9-2.55 3.1-2.55 7.5 0 3.4.6 4.8.35.95 1.1 1.6l-.5 1.8q-1.1 3.75-3.3 8.05-1.7 3.45-6.5 8.3l-.2.25-.35.35q-2.95.4-6.5 2.45l-2.4 1.6q-.95-.55-1.75-1.5m32.7-22.6 2.85 2.4q-2.6 2.55-4.7 5.2-4.75 5.9-4.75 9.2 0 1.95 1.25 2.5l2.25.25 1.15-.25 1.1-.25q1.7 0 2.15 2.8l-3.15.45q-1.05 0-4.4-1l-3.35-1.25.55 2 .05.25q.6 3.25.6 7.9l-1.7-.7-1.9-.8.55 1.95.65 2.45-1.4 1.05q-2 1.4-3.05 1.4l-1.3-.3-.05-.25-.05-.85v-.15l-.05.05-1.65 1.2q-1.2-.75-2.9-2.35-2.9-2.85-2.9-5l.25-1.8 1.2-1.05 8.3-7.15-.75 2.4q1.1-2.2 2.7-4.7v-.05q2.7-4.2 6.95-9.35 2.75-3.35 5.5-6.2" fill="#ff5000" fill-rule="evenodd"/><path d="m79.7 52.25-1.1-1q-1-1.35-1-3.4 0-1.2 2.65-5.5l.3-.4.3 4.3q0 3.7-1.15 6" fill="#ff4e00" fill-rule="evenodd"/><path d="M77.55 36.1q1.35 1.4 2.05 2.8l.95 3.05-.3.4q-2.65 4.3-2.65 5.5 0 2.05 1 3.4l1.1 1q-1.2 2.4-3.7 3.3-.45-2.8-2.15-2.8l-1.1.25-1.15.25-2.25-.25q-1.25-.55-1.25-2.5 0-3.3 4.75-9.2 2.1-2.65 4.7-5.2" fill="#ffa800" fill-rule="evenodd"/><path d="m113.8 15.65-1.4 1.45q-1.15 1.3-1.9 2.5l-4.35.75q-8.7 2.25-17.2 11l-1.35 1.4q-4 4.35-7.05 9.2l-.95-3.05q-.7-1.4-2.05-2.8 3.35-3.35 7.55-6.6Q100 18 113.8 15.65" fill="#ffb20c" fill-rule="evenodd"/><path d="M88.95 31.35q8.5-8.75 17.2-11 0 3.5-2.1 8.15-3.15 7-9.05 7-2.55 0-3.45-.65l-2.6-3.5" fill="#ff4700" fill-rule="evenodd"/><path d="M110.5 19.6q-1.75 2.75-1.25 4.8.55 2.9 3.6 4.75v-.05q1.6.95 3.45 1.55-6 3.55-10.6 7.05l-3.4 2.7q-3.15 2.65-6.75 6.85L93.6 49.5v.25l.6-.35q-3.4 3.85-5.05 6.2-5.55 7.65-5.8 12.75l-1 .3-.95-.05q-.55-1.2-.55-2.5 0-5.7 6.35-11.9l4.65-4.95q2.3-3.05 2.75-6.5l-.25.25-3.75 2.95-2.7 2.15q-5.5 4.4-7.05 4.4l-1.15-.25q1.15-2.3 1.15-6l-.3-4.3q3.05-4.85 7.05-9.2l1.35-1.4 2.6 3.5q.9.65 3.45.65 5.9 0 9.05-7 2.1-4.65 2.1-8.15l4.35-.75" fill="#ff4f00" fill-rule="evenodd"/><path d="m65.25 35.85 1.45.15q3.65.1 9.3-5.6l11.45-11.65q16.1-14.35 39.35-16.4-7.45 2.8-14.3 6.05-11.9 5.65-26.9 15.85-5.45 3.7-10.9 9.45-2.75 2.85-5.5 6.2-4.25 5.15-6.95 9.35v.05q-1.6 2.5-2.7 4.7l.75-2.4 2.75-8.95 2.2-6.8" fill="#ffef00" fill-rule="evenodd"/><path d="m140.85 30.6 4.45-.2q1.55.2 2.9.85 2.25 1.1 2.25 2.45l-.15.8-.25.5q-.65.4-1.25.85l-10.05 1.2.1-1.75-.05-.45-.65-.5-1.35-.05q-.8 0-2.4.55l-3.55 1.25-.05-.1q3.2-2.4 4.5-3.15 2.9-1.7 5.55-2.25m-35.15 7.1q1.65-.85 3.65-1.8 6.6-3 8.7-3.2-3.85 2.2-7.8 6.3-2.5 2.6-4.5 5.4-3.15 1-5.8 2.15-3.3 1.35-5.75 2.85l-.6.35v-.25l1.95-2.25q3.6-4.2 6.75-6.85l3.4-2.7M26.75 65l-.35.85-.4.05v-.05l.75-.85" fill="#ffec00" fill-rule="evenodd"/><path d="M39.1 58.95q1.25-.35 2.9-2.65.8.95 1.75 1.5.95.5 2 .5 2.15 0 6.9-4.55l.35-.35.2-.25q4.8-4.85 6.5-8.3 2.2-4.3 3.3-8.05l.5-1.8q.7.6 1.75.85l-2.2 6.8-2.75 8.95-8.3 7.15-1.2 1.05q-2.85 2.5-4.85 4.55l-3.2-3.8-.4-.45-.35.45-.1.1-.4.45-.45.25-.65.4q-4.6 2.85-8.3 6l-2.25-4-3.45 2.1.35-.85 2.7-3.9 1.35-2.4 1.1-.1q1.05 0 1.55 2.1l.75 3.9h.65l4.25-5.65" fill="#ffc709" fill-rule="evenodd"/><path d="M66.3 63.9q0-4.65-.6-7.9l-.05-.25-.55-2L68.45 55q3.35 1 4.4 1l3.15-.45.1 1.95q0 4.8-2.75 8.95l-.45.65-.15-.1q-1.45-.95-6.45-3.1m-2.4 2.9.15.65q.8 3.45 1 6.05-2.55-.1-4.45-1.25-2.05-1.25-2.45-3.3l1.3.3q1.05 0 3.05-1.4l1.4-1.05m.8 14.1q-.65 4.55-2.3 8.9L55 76.95l-1.35-2.1.5-4.25-2.25 1.7-5.95-7.95q2-2.05 4.85-4.55l-.25 1.8q0 2.15 2.9 5 1.7 1.6 2.9 2.35l-.4.3-.45.35 5.15 5.7q2.1 2.5 4.05 5.6m16.7-12.3.95.05 1-.3v.4q0 2.05.15 2.45l.15.65-.9-1.05q-.9-1.05-1.35-2.2" fill="#ff751e" fill-rule="evenodd"/><path d="M66.3 63.9q5 2.15 6.45 3.1v.05l.1.05 1.1.8q3 2.35 6.45 6.9l1.45 2.05 1.1 1.6 2.3 3.85.8 1.55.85 1.9.05-.05.2.55.1.15q3.3 7.65 4 16.2l.05 1.15.85-1.3.55-.8 2.55-2.25v.2l-.7 2.8v.05q-.45.2-.75 2.5l.1.1-.25.95-1.55 6.55-.5 2.45-.1-.1-.15.4-.1.4q-1.3 4.2-2.75 7.1l-1.05 1.85h.05q-3.55 5.85-9.8 8.2l-2.45 2.35-3.9 3.05 2.7.75q4.4 1.35 6.35 2.7l.85.55h-.3l-1.25-.1q-6.4.65-12.7 3-5.5 2-7.55 2.1h-.3v-1.6l1 .05q3 0 8-2 4.3-1.75 7.05-2.3l-1.75-.5-4.95-1.3-2.65-.6 2.4-1.3q2.65-1.35 5.45-3.8-2.6.4-6.5-1.6v-.05h-.05 1q4.85.1 8.6-1.2l.05-.05q6.05-2.15 9.35-8v-.05l.5-.9q1.75-3.5 3.2-8.85l.15-.5.3-1.3.95-4.05.05-.1-.1.1-1.7 2.25-.1-2.85v-.15q-.1-10.65-4.2-19.9-1.4-3.15-3.25-6.15l-.15-.2-.5-.8-.85-1.25q-2.9-4.25-5.5-6.85-1.7-1.75-3.3-2.75h.05q-1.4-.85-6-2.85L66 67q.85 3.65 1.05 6.4l.05 1.6q0 4.4-.85 8.6l-.1.55q-.85 3.95-2.4 7.75l-1.2 2.6-.95 1.85-3.15 5.1-.1.2q-5.6 7.75-11.3 11.3-1.75 1.1-3.5 1.8l-.85.35-.2-.4-.2-.4-1.3-1.95q-.9-.85-2.4-.85l-1.05.1q-3.15.35-5.2 3.2v.05h.05q-1.95 2.7-2.25 6.5v.05l-.1 1.4v.1q0 3.1 2.25 5.4 1.8 1.9 3.5 1.95h.3l.25.05.05.05.05.1 10.75.3q5.9 1.4 10.25 5.7l.65.7-.3.1-.7.25H57l-1.1.1q-3.65-3.1-8.3-4.4l-.85-.2-.2-.1.1.1-.8-.2-.65-.45.6.45-8.75-.7H37l.05.1-.35.05h-.9q-2.4.05-4.95-2.55-2.8-2.9-2.8-6.8v-.05l.05-1.35.05-.35.15-1.25q.5-3.55 2.45-6.2 2-2.8 4.85-3.75l1.4-.3 1.6-.15 2.4.45.35.2.65.45.4.35.35.4.1.15.75 1.05 3-1.7q3.15-2.1 6.3-5.6l.35-.4.85-1 .6-.75 1.75-2.3.05-.05v-.05l.2-.25.3-.45 3.45-5.7.8-1.7.65-1.45.05-.15.45-1.2q1.65-4.35 2.3-8.9.4-2.9.4-5.9l-.05-1.5q-.2-2.6-1-6.05l-.15-.65-.65-2.45-.55-1.95 1.9.8 1.7.7" fill="#2e60b0" fill-rule="evenodd"/><path d="m30.05 122.8.1-1.4v-.05q.3-3.8 2.25-6.5l-.05-.05q2.05-2.85 5.2-3.2l1.05-.1q1.5 0 2.4.85l1.3 1.95.2.4q-.65 3.5-2.95 6.45-2.9 3.75-5.75 3.75-1.9 0-3.7-2.05l-.05-.05m17-9.85q5.7-3.55 11.3-11.3l.1-.2 3.15-5.1.95-1.85 1.2-2.6q1.55-3.8 2.4-7.75l.1-.55q.85-4.2.85-8.6l-.05-1.6q-.2-2.75-1.05-6.4l-.3-1.15q4.6 2 6 2.85h-.05q1.6 1 3.3 2.75l.25 3.2q0 12.95-1.1 18.2-1.4 6.45-5.65 9.4l-9.7 8.1q-6.9 5.7-8.95 5.7-.75 0-1.85-1.4l-.9-1.7M32.75 76.1q2-2.6 4.35-5.25l.05.15L23.7 98.7l.25.95.4.3-.05 1-.9 24.5-2.35 1.9-.05-.4h.1l1.5-28.4-6.95-1.8L15 95.2l1.35-.75 6.6 2-.1-6.8 1.6-1.3h.1v6.45l8.2-18.7m-18.4 39.1q-1.05-2.15-1.15-3.2l-.05-.25v-.05l.05-.4q.15-1.15 1.1-2.75l.45-.7.2.25q.35.5.35 1.65 0 1.9-.4 3.65l-.55 1.8" fill="#fff" fill-rule="evenodd"/><path d="m72.9 67.1.45-.65q2.75-4.15 2.75-8.95l-.1-1.95q2.5-.9 3.7-3.3l1.15.25q1.55 0 7.05-4.4l2.7-2.15q-2.85 5.6-9.5 9.75-2.75 1.7-3.7 2.85-1.45 1.8-1.45 4.55 0 2.85 1.9 4.3 1.35 1.05 3.55 1.2.45 1.15 1.35 2.2l.9 1.05-.15-.65q-.15-.4-.15-2.45v-.4l2.1-1.8q1.65-1.85 2-2.7-.05 1.85 2.05 3.5l1.55 1q-4.75 3.95-9.2 8.5L80.4 74.8q-3.45-4.55-6.45-6.9l-1.1-.8h.05" fill="#ffbb10" fill-rule="evenodd"/><path d="m33.65 46.05.15-.4 1.2-2.8q-.25 6.2.15 9.9.65 6.5 3.4 6.25l.55-.05-4.25 5.65h-.65l-.75-3.9q-.5-2.1-1.55-2.1l-1.1.1q3.05-6.15 2.85-12.65" fill="#ff7019" fill-rule="evenodd"/><path d="m62.4 89.8-.45 1.2-7.8-13.55v.05l-.7-1.1-2.3-3.45q-2.8-4.05-5.9-7.85v-.05l-2.9-3.45-.55.65-.6.7-1.65 1.95-7.8 9.05h.05q-7.1 8.8-12.2 16.95l-.05.1-.85.65-1.2.9-.1.05 2.75-4.4Q24.8 80.95 31 73.3h.05v-.05l7.9-9.15 1.7-2 .5-.6.35-.4.4-.45.1-.1.35-.45.4.45 3.2 3.8 5.95 7.95 1.75 2.55 1.35 2.1 7.4 12.85M16.05 99.9l1.65 3q.15 4.45.95 9l.9 4.8.1 2.45.05 1 .25 4.5q-1.35-3.75-2.35-8.25-1.3-5.6-1.55-10.25l-.1-2v-.45l.1-3.8" fill="#4c4e4f" fill-rule="evenodd"/><path d="m41.5 61.1-.35.4-.5.6-1.7 2-7.9 9.15-.05.05q-6.2 7.65-10.85 14.9l1.45-3.25q2.25-4.8 2.45-8.6 3.25-4.55 8.05-8.6 3.7-3.15 8.3-6l.65-.4.45-.25" fill="#ff4b0e" fill-rule="evenodd"/><path d="m39.55 64.9 1.65-1.95q5.55 8.2 11 17.25l4.6 7.8-2.65 4.95-4.7-6.45q-4.1-5.3-9.4-10.9l-.3-.75-.95-2.4-.65-1.65-.1-.3q1.6-3 1.6-4.8l-.1-.8m-21.85 38 1.65 2.85.2 10.95-.9-4.8q-.8-4.55-.95-9" fill="#d1c7c0" fill-rule="evenodd"/><path d="m61.25 92.6-.8 1.7L56.8 88l-4.6-7.8q-5.45-9.05-11-17.25l.6-.7q6.9 8.3 11.75 16.35 1.95 3.15 7.7 14" fill="#eb673e" fill-rule="evenodd"/><path d="m61.95 91-.05.15-.65 1.45q-5.75-10.85-7.7-14-4.85-8.05-11.75-16.35l.55-.65 2.9 3.45v.05q3.1 3.8 5.9 7.85l2.3 3.45.7 1.1v-.05L61.95 91" fill="#f1eb14" fill-rule="evenodd"/><path d="M19.6 90.9q5.1-8.15 12.2-16.95h-.05l7.8-9.05.1.8q0 1.8-1.6 4.8l-.3-.7v-.05l-.3-.8-.55.65-2.7 3.1q-3.1 3.7-5.65 7.4v-.05L24.5 86.4l-.45.75-.35.5-.9.8-3.15 2.45h-.05M128 98l-.25-1.4-.5-2.3-.55.8-.2-1.6-.05-4.3q0-2.45.15-4.45 26.8-13 44.35-28.3-6.4 8.85-16.75 18.6L128 98" fill="#f7eee8" fill-rule="evenodd"/><path d="m43.75 57.8 2.4-1.6q3.55-2.05 6.5-2.45-4.75 4.55-6.9 4.55-1.05 0-2-.5" fill="#ff731c" fill-rule="evenodd"/><path d="m57 100-.3.45-.2.25v.05l-.05.05-.05-.05-2.2-2v.05l-7.45-7.1-1.95-1.85-.05-.05-.05-.1-.6-1.5-5.9-14.6-1.05-2.6-.05-.15q-2.35 2.65-4.35 5.25l-3.4 4.55-4.45 7.05h-.05l-.3.5-.05.1-.05.05-1.6 1.3-2.6 2.05-1.75 1.35-.45.3v.05l-1.7 1.05-1.35.75.65 1.55.9 1.9 1.3 2.45 2.45 4.25.05.1v.15q0 7.55.35 14.5l.3 6.85.05.4 2.35-1.9 4.7-3.95-.05 1.35v.05l-4.7 3.9-2.5 1.95-.7.6h-.05l-.05-1-.05-1.5V126l-.05-1.2v-.15l-.25-4.5-.05-1-.1-2.45-.2-10.95-1.65-2.85-1.65-3-1.65-3.45-.5-1.3-.2-.45.45-.2 3.25-1.9.1-.05 1.2-.9.85-.65.1-.1 3.15-2.45.9-.8.35-.5.45-.75 4.05-6.35v.05q2.55-3.7 5.65-7.4l2.7-3.1.55-.65.3.8v.05l.3.7.1.3.65 1.65.95 2.4.3.75 4.9 12.2.6 1.4 2.25 2.15 7.1 6.7L57 100" fill="#90571b" fill-rule="evenodd"/><path d="m56.45 100.8-1.75 2.3-27.2-2.8 13.5 9.6v.05l-2.4-.45-1.6.15-12.65-9.7-.4-.3-.25-.95L37.15 71l1.05 2.6-12.7 23.85q9.3-4.6 18.6-9.25l.6 1.5.05.1.05.05 1.95 1.85-20 7.1 29.65 1.95.05.05m-31.9-12.6.3-.5h.05l4.45-7.05 3.4-4.55-8.2 18.7v-6.6m-1.7 1.45.1 6.8-6.6-2 1.7-1.05v-.05l.45-.3 1.75-1.35 2.6-2.05m-7.2 7.1 6.95 1.8-1.5 28.4H21l-.3-6.85q-.35-6.95-.35-14.5v-.15l-.05-.1-2.45-4.25-1.3-2.45-.9-1.9" fill="#fffa00" fill-rule="evenodd"/><path d="M60.45 94.3 57 100l-2.1-1.95-7.1-6.7-2.25-2.15-.6-1.4-4.9-12.2q5.3 5.6 9.4 10.9l4.7 6.45L56.8 88l3.65 6.3" fill="#afa8a2" fill-rule="evenodd"/><path d="m37 109.65-1.4.3-11.3-9 .05-1 12.65 9.7m1.2-36.05 5.9 14.6q-9.3 4.65-18.6 9.25L38.2 73.6m8.55 18.1 7.45 7.1v-.05l2.2 2-29.65-1.95 20-7.1" fill="#fda522" fill-rule="evenodd"/><path d="m65.05 73.5.05 1.5q0 3-.4 5.9-1.95-3.1-4.05-5.6l-5.15-5.7.45-.35.4-.3 1.65-1.2.05.1.05.85.05.25q.4 2.05 2.45 3.3 1.9 1.15 4.45 1.25M51.9 72.3l2.25-1.7-.5 4.25-1.75-2.55" fill="#ffc00e" fill-rule="evenodd"/><path d="M105.75 44.4q7.7-2.6 18.65-4.85l14.35-2.5q-.65 3.55-5 7.2l-3.8 2.65q-.1 0-.15.1l-2.75-1.05q-2.3-.85-6.35-.85-6.65 0-12.75 3.1-5.7 2.95-6.95 7.05-2.9.1-2.9-3.7 0-1.75 1.25-4.05l.6-.95q2.65-1.15 5.8-2.15" fill="#ff3f00" fill-rule="evenodd"/><path d="M94.2 49.4q2.45-1.5 5.75-2.85l-.6.95q-1.25 2.3-1.25 4.05 0 3.8 2.9 3.7l-.15.55-.1.4.05.6.2 1.65.25 2.35q-5.25 3.4-10.2 7.55l-1.55-1q-2.1-1.65-2.05-3.5-.35.85-2 2.7l-2.1 1.8q.25-5.1 5.8-12.75 1.65-2.35 5.05-6.2" fill="#ffa100" fill-rule="evenodd"/><path d="M101 55.25q1.25-4.1 6.95-7.05 6.1-3.1 12.75-3.1 4.05 0 6.35.85L129.8 47l-2.3 1.6q-5.75 1.65-11.6 4.25-6 2.65-11.7 6.1l.05-.4.2-2.1q0-1.3-1-1.4l-2.15.15-.3.05" fill="#ff6616" fill-rule="evenodd"/><path d="m101 55.25.3-.05 2.15-.15q1 .1 1 1.4l-.2 2.1-.05.4-2.95 1.85-.25-2.35-.2-1.65-.05-.6.1-.4.15-.55" fill="#ffb20e" fill-rule="evenodd"/><path d="m86.05 83.85-.8-1.55-2.3-3.85-1.1-1.6q4.45-4.55 9.2-8.5 4.95-4.15 10.2-7.55l2.95-1.85q5.7-3.45 11.7-6.1 5.85-2.6 11.6-4.25l5.2-1.35 7.05-1.25 4.05-.4 4.85-.2 4.35.5q-5-.3-10.4.9l-2.5.65q-2.65.7-5.35 1.75-7.85 3.05-16.5 8.85l-2.7 1.85q-13.8 9.8-21.7 19.4-4.05 1.35-7.8 4.55" fill="#ffe304" fill-rule="evenodd"/><path d="M90.6 45.95 94.35 43l.25-.25q-.45 3.45-2.75 6.5L87.2 54.2q-6.35 6.2-6.35 11.9 0 1.3.55 2.5-2.2-.15-3.55-1.2-1.9-1.45-1.9-4.3 0-2.75 1.45-4.55.95-1.15 3.7-2.85 6.65-4.15 9.5-9.75" fill="#ffa600" fill-rule="evenodd"/><path d="m57.1 137.5.7-.25.3-.1-.65-.7q-4.35-4.3-10.25-5.7l-10.75-.3-.05-.1-.05-.05-.25-.05h-.3q-1.7-.05-3.5-1.95-2.25-2.3-2.25-5.4l.05-.05q1.8 2.05 3.7 2.05 2.85 0 5.75-3.75 2.3-2.95 2.95-6.45l.2.4.85-.35q1.75-.7 3.5-1.8l.9 1.7q1.1 1.4 1.85 1.4 2.05 0 8.95-5.7l9.7-8.1q4.25-2.95 5.65-9.4 1.1-5.25 1.1-18.2l-.25-3.2q2.6 2.6 5.5 6.85l.85 1.25.5.8.05.25q1.5 6.45 1.7 9.55l.35 5q-2.05 8-7.2 20.35-2.15 5.2-5.8 10.35-2.4 3.35-3.25 4.95l-.3 1.05-.15.4h-.05v.05l-2.3 3.4-2.8 3.3-2.65-.8-.4-.15-1.85-.55h-.05" fill="#7bbdf7" fill-rule="evenodd"/><path d="M57 137.5h.15l1.85.55.4.15 2.65.8-1.35 1.3-4.65-2.6.95-.2m24.95-56.95q1.85 3 3.25 6.15 0 3.35-1.3 8.45l-.35-5q-.2-3.1-1.7-9.55l.1-.05" fill="#458df7" fill-rule="evenodd"/><path d="m14.15 140.8-.05-.75.15-1.35.4-1.35q.45-1.4 1.35-3.15l.65-1.05.15-.35.7-1.2-.85-5.5-.55-4.25-.45-.75-.15-.3-2.1-4q-1.3-2.65-1.4-3.9l-.05-.3q0-1.55.6-3.05l.35-.85.85-1.5 2.2-3.05.1 2-1.3 1.7-.45.7q-.95 1.6-1.1 2.75l-.05.4v.05l.05.25q.1 1.05 1.15 3.2 1.6 3.4 5.5 9.45l.1.15.05 1.2v.85l.05 1.5.05 1v.05l-.95 1.7-2.2 4-.75 1.7-.1.2q-.5 1.4-.5 2.35 0 1.15 1.75 3.45l4 4.6-.5.75-.05.05.05.1.35.5q.4.55.65.55l.45-.45q2.2 2.75 6 5.2l1.8 1.1q1.05.65 1.8.95l-1.1-1.8q-1.15-2.1-2.1-4.75l1.2.1.7.15q3.5.7 7.8 3.4l3.05 2 .1 1.85-3.25-2.4q-2.7-1.75-7.75-3.3h-.05v.05l1.95 3.5 2.3 3.3-2.05-.65-.5-.2q-4.5-1.85-8.25-4.55l-1.9-1.5q1.45 3.45 4.6 6.55 2.9 2.75 7.15 5.2 2.65 1.5 8.65 4l1.75.7 1.6.6.05.1.05.05.7.95.1.1.65.75.15.2-1.1-.35-2.2-.75-2.1-.7-.15-.05-1.15-.4-.25-.1-.2-.1 5.55.45-5.55-.45q-6.2-2.3-9.4-4.3-2.9-1.85-5.1-4.25-3.65-4.05-5.45-9.65l-.45-.45-.1-.1-.45-.4-1-1q-1.75-1.9-2.8-3.55-1.2-1.95-1.45-3.6m40.55-37.7-.6.75-.85 1-.35.4q-3.15 3.5-6.3 5.6l-3 1.7-.75-1.05-.1-.15-.35-.4-.4-.35-.65-.45-.35-.2h.05l1.75-.85 11.9-6m4.45 44.15h.3l2.05 2.55q1.55 2.15 2.25 2.6l2.75 1.85.05.05.25.15.6.4-2.45 1.1-.85.3q-2.55.85-4.2.85-3.3 0-7.3-2.15-4.55-2.5-5.75-2.9l1.35 3.45.5 1.7-1.25-.5q-1.05-3.3-3.05-6.7l.3-.05 1 .2.25.1q1.65.55 5 2.45 4.9 2.75 9.95 2.75l3.2-.4-1.05-.9-1.35-1.45-2.55-3.3v-2.15m28.35-22.6h-.05l1.05-1.85.25.3q2.15 2.4 5.2 4.15 4.15 2.25 8.2 2.25 9.55-.05 17.25-9.25 2.95-3.55 4.8-7.45l.8-1.55.05.85v3.4q-1.7 3.15-4.1 6.05-8.35 10-18.8 9.95-4.55 0-9.15-2.5h-.05q-3.2-1.85-5.45-4.35m4.1-9.65.5-2.45.45.55q3.5 3.95 6.45 4.05 2.85 0 4.9-2.05 2.05-2.05 2.05-4.9 0-2.9-2.05-4.95-2-2-4.9-2l-2.15.3-2 1.1-.8.6-.15-.2-.1-.1q.3-2.3.75-2.5l1.7-.8 2.75-.4q3.7 0 6.3 2.6 2.65 2.65 2.65 6.35 0 3.7-2.6 6.3l-.05.05q-2.6 2.6-6.3 2.6-3.45.1-7.4-4.15m-4.65-29.3-.05.05-.85-1.9q3.75-3.2 7.8-4.55 9.4-3.3 20.05 3.05l3.2-2.7 5.8-5 .2-.15v.25l-.4 4.55-.25 3.35-.2 2.15-.15 2.05-1.4 16.95 6-8.7.55-.8.5 2.3.25 1.4.1.45.4 3.9q.1 2.8-.4 5.3l-.6 2.2-.05.3-.95-.45q-.4-1.2-.35-2.65-.05 1.45.35 2.65l-.9-.4v-.05l.05-.15.5-2.05.35-2.85-.25-4.7-.05-.15-.05.1-7.55 10.9-.4-.15.25-3 2.25-28.05-6.6 5.65-.6-.4q-11.9-7.35-22.05-1.8-2.2 1.15-4.3 2.95l-.2.15m-68.1 43.45.55-1.1-1.1-2.15.55 3.25" fill="#884125" fill-rule="evenodd"/><path d="M91.25 102.6q-.7-8.55-4-16.2l-.1-.15-.2-.55.2-.15q2.1-1.8 4.3-2.95 10.15-5.55 22.05 1.8l.6.4 6.6-5.65-2.25 28.05-.35.05-.2-.2q-4.45-5.1-6.5-6.7-4.2-3.35-8.85-3.35-5.05 0-7.4 1.3-2.1 1.15-3.9 4.3" fill="#eda946" fill-rule="evenodd"/><path d="M120.45 68.75v.45l.1 1.2q-7.45 2.25-10.1 2.75V73q3.2-1.45 10-4.25" fill="#ff6d1b" fill-rule="evenodd"/><path d="M140.1 47.45q-2.4 2.5-3.5 4.65-.7 1.4-.7 2.15 0 .85 1.05 1.45l1.95.5q8.7 0 18.95-11.8l4.65.1q5.2 0 14.3-2.85l8-2.75q-12.55 8.55-38.95 19.6-16.05 6.35-25.4 10.25-6.8 2.8-10 4.25l-.15.15h.15q2.65-.5 10.1-2.75l.4 1.75q-1.55.7-2.75 2.1-1.75 2.1-1.75 3.45 0 .5.55 1.75l.1.2-3.2 2.7Q103.25 76 93.85 79.3q7.9-9.6 21.7-19.4l2.7-1.85-1.35 2.6q-.45.85-.45 1.85 0 .65.5 1 .5.4 1.35.4 6 0 11.6-7.2 2.6-3.25 4.85-7.5 2.7-1.05 5.35-1.75" fill="#ffab0c" fill-rule="evenodd"/><path d="M139.75 46q4.45-2.45 7.25-3.95l2.3-1-2.85 2.25-2.65 2.3-4.05.4" fill="#ffa70b" fill-rule="evenodd"/><path d="M129.8 47q.05-.1.15-.1l3.8-2.65q4.35-3.65 5-7.2l10.05-1.2-12 8.4-4.1 3-5.2 1.35 2.3-1.6" fill="#ff9800" fill-rule="evenodd"/><path d="m120.55 70.4 5.05-1.6 14.65-4.65.05.05-7.9 5.2-5.65 3.9.05-.45q0-1.35-2.75-1.35-1.7 0-3.1.65l-.4-1.75" fill="#ff9c00" fill-rule="evenodd"/><path d="M134.75 49.2q-2.25 4.25-4.85 7.5-5.6 7.2-11.6 7.2-.85 0-1.35-.4-.5-.35-.5-1 0-1 .45-1.85l1.35-2.6q8.65-5.8 16.5-8.85" fill="#ff6717" fill-rule="evenodd"/><path d="m123.1 74.75 1.15.2 3.15-.45q.25 0 1.5.65l3.6.2-.85.4-.3.15-8.65 3.4.4-4.55" fill="#ff6f1c" fill-rule="evenodd"/><path d="m131.7 75.75 1.95-.9 6.3-3.15 11.85-7.1 11.65-7.5 7.6-5.25q-6.9 6.65-24.25 17.4-15.1 9.3-24.35 13.4l.25-3.35 8.65-3.4.35-.15" fill="#ffb60f" fill-rule="evenodd"/><path d="m120.95 72.15.35.8q.65 1.2 1.6 1.7l-5.8 5-.1-.2q-.55-1.25-.55-1.75 0-1.35 1.75-3.45 1.2-1.4 2.75-2.1" fill="#ff711d" fill-rule="evenodd"/><path d="m168.45 62.85-1.75 2.8-4.05 6.2q-13.6 20.05-32.45 39.6l-.8.8-.95-1.15 1.65-1.7q8.4-8.95 15.75-17.7l5.4-6.65L161.3 71.6l5.3-7.95 4-6.4.45-.75.2-.35-.3.3q-17.55 15.3-44.35 28.3l-4.5 2.1.15-2.05 4.45-2.05.2-.1q25.05-11.85 47.75-30.6l-4.8 8.5-1.4 2.3" fill="#47594a" fill-rule="evenodd"/><path d="m126.7 95.1-6 8.7 1.4-16.95 4.5-2.1q-.15 2-.15 4.45l.05 4.3.2 1.6" fill="#f3e6dd" fill-rule="evenodd"/><path d="m166.6 63.65-5.3 7.95-10.05 13.45-5.4 6.65-8.35 8.3q-3.75 3.45-7.55 6.3l-.25-2.9-.35-1.85q11.45-10.35 20.35-19.3 11.2-11.25 16.9-18.6" fill="#e3663e" fill-rule="evenodd"/><path d="m174.2 64.7-1.7-.55.4-.3q3-2.05 5.6-3.1l.9.15 1.75.3q-4 1.55-6.95 3.5m-4.45 1.65 1.6.45q-2.7 2.25-4.75 5.3l-1.7-.1q2-3.1 4.85-5.65" fill="#ffdd05" fill-rule="evenodd"/><path d="M128.1 98.45 128 98l26.2-22.95q10.35-9.75 16.75-18.6l.1.05-.45.75-4 6.4q-5.7 7.35-16.9 18.6-8.9 8.95-20.35 19.3-.45-1.85-1.25-3.1" fill="#6e6e71" fill-rule="evenodd"/><path d="m169.5 73.45-.1-.15-.55-1.05 10.1 1.05Q177 75.8 177 76.65q0 .8 2.45 2.95l.75.8-6.35 1.85-5.65 1.6.05-.75v-.25l-.2-.75q-.3-1.15-.3-2.35l.1-1.95q2-.8 3.65-.75v-.15l-.6-.8-1.4-2.65" fill="#ff3800" fill-rule="evenodd"/><path d="m129.4 112.25.8-.8q18.85-19.55 32.45-39.6l2.25.15 1.7.1 2.25.15.55 1.05.1.15q-1.25 2.45-1.6 4.05l-.05.3-1.9.95q-3.65 2.05-3.65 4.85 0 .7.25.9l.9.25 4.75-.9q.05 3.35 2.6 5.5 2.3 2 4.5 2h.7l-.15 1.55q0 1.45 1.15 3.75l1.35 2.3q-3-1.95-7.15-3.65-4.65-1.9-7.2-1.9l-2.1.05q-.45-1.6-1.25-2.95-1.7-2.75-4.2-2.75-1.15 0-2 .85-.9.95-1.1 2.75-.1 1.2-1.75 1.5-2.35.35-3.25 1-2.25 1.6-4.1 5.1-1.75 3.25-1.75 5.45l.1 1.45q.2.95 1 2.35-2.2 1.4-3.9 3.25-3.6 4.05-3.6 8.65 0 2.3 1.05 4.6.95 1.95 2.2 3.05l1.85 6.15-.6.5-.15.15q-1.25-2.55-3.95-4.3l-.05-.45q-.75-5.5-1.45-7.4-1.8-4.7-4.5-8.65l-1.1-1.5" fill="#ffb50e" fill-rule="evenodd"/><path d="m167.85 77.8-.1 1.95q0 1.2.3 2.35l.2.75v.25l-.05.75-4.75.9-.9-.25q-.25-.2-.25-.9 0-2.8 3.65-4.85l1.9-.95m12.35 2.6-.75-.8Q177 77.45 177 76.65q0-.85 1.95-3.35l3.35.6-.6 1.65-.05.75q0 .95.15 1.5l.05.3.25.15 1.55 1.2-.5.05-2.95.9" fill="#ff661a" fill-rule="evenodd"/><path d="m169.5 73.45 1.4 2.65.6.8v.15q-1.65-.05-3.65.75l.05-.3q.35-1.6 1.6-4.05" fill="#ff9700" fill-rule="evenodd"/><path d="M143.6 108.2q-.8-1.4-1-2.35l-.1-1.45q0-2.2 1.75-5.45 1.85-3.5 4.1-5.1.9-.65 3.25-1 1.65-.3 1.75-1.5.2-1.8 1.1-2.75.85-.85 2-.85 2.5 0 4.2 2.75.8 1.35 1.25 2.95-4.5.25-7.7 1.45-5.25 2.05-5.25 6.25 0 2.3 1.1 4.2-3.65 1.05-6.45 2.85" fill="#fa0" fill-rule="evenodd"/><path d="m168.2 83.85 5.65-1.6 6.35-1.85q1.15 1.35 1.5 3.1-5 3.3-5.7 7.85h-.7q-2.2 0-4.5-2-2.55-2.15-2.6-5.5" fill="#ff9a00" fill-rule="evenodd"/><path d="m192.9 77.7-9.25 1.75-1.55-1.2-.25-.15-.05-.3q-.15-.55-.15-1.5l.05-.75.6-1.65 4.55 1.2 4.95 2.15 1.1.45" fill="#ff3500" fill-rule="evenodd"/><path d="m183.65 79.45 2.05 1.9q-1.15.5-2.25 1.1l-1.75 1.05q-.35-1.75-1.5-3.1l2.95-.9.5-.05" fill="#ffab0d" fill-rule="evenodd"/><path d="m161.9 93.45 2.1-.05q2.55 0 7.2 1.9 4.15 1.7 7.15 3.65l-1.35-2.3q-1.15-2.3-1.15-3.75l.15-1.55q2.7-.2 4.3-2 1.55-1.75 1.55-4.3l-.15-1.55 1.75-1.05q1.1-.6 2.25-1.1l1.55 2.05q1.3 2.25 1.3 5.15 0 6.95-6.55 10.9-4.5 2.75-14.3 4-3.2-1.35-6.3-2.15.9-1.65.9-4.3 0-1.9-.4-3.55" fill="#ff6e1e" fill-rule="evenodd"/><path d="M176 91.35q.7-4.55 5.7-7.85l.15 1.55q0 2.55-1.55 4.3-1.6 1.8-4.3 2" fill="#ff3c02" fill-rule="evenodd"/><path d="m170.5 104.65.6 1.3q1.95 4.05 3.8 9.8l1.7 6.05-3.25-2.05q-2.6-4.45-4.15-6.45-1.6-2-9.75-10.1l-2.95-2.9q2.35.3 4.85.95l.05.05q3.1.8 6.3 2.15l2.8 1.2" fill="#fff003" fill-rule="evenodd"/><path d="m161.4 101.3-.05-.05q-2.5-.65-4.85-.95l2.95 2.9q-4.1 1.15-7.55 4.5-1.15-1.1-1.85-2.35-1.1-1.9-1.1-4.2 0-4.2 5.25-6.25 3.2-1.2 7.7-1.45.4 1.65.4 3.55 0 2.65-.9 4.3" fill="#ff4100" fill-rule="evenodd"/><path d="M168.7 117.4q-3.6-1.6-7.5-2.75l-1.4-.4.1 1.4.05.8q-5.05.55-6.95 4.25-1.5 2.85-1.5 5.35l.1.95q-2.65 2-3.95 4.5l-.9-2.7q-1.25-3.95-1.25-8.35 0-5.35 4.6-10.85l1.8-1.9.3.25q2.35 2.05 7.4 4.05 3.95 1.6 5.5 2.65l3.6 2.75" fill="#ffce0c" fill-rule="evenodd"/><path d="M173.35 119.75q-2.25-1.25-4.65-2.35l-3.6-2.75q-1.55-1.05-5.5-2.65-5.05-2-7.4-4.05l-.3-.25q3.45-3.35 7.55-4.5 8.15 8.1 9.75 10.1 1.55 2 4.15 6.45" fill="#ff7120" fill-rule="evenodd"/><path d="M161.05 123q1 3.85 3 7.1l-7.4 1.1q-4.95.7-4.95 3.85 0 .6.85 1.05.95.5 2.45.5 1.1 0 1.55-2 .4-2.05 2.15-2.05.95 0 1.75.5 1 .6 1 1.55 0 1.65-2 4.15-1.25 1.55-2.7 2.5-5.45-2.6-10.15-6.85.3-1.55 1.05-2.9 1.3-2.5 3.95-4.5l1.1-.85q4.55-3.1 8.35-3.15m6.65 11.65q1.55 1.6 3.5 2.95 4 2.9 7.95 4.25l-4.65 4.05q-7.15-1-11.5-2.25l1.35-1.75 3.35-7.25m-123.5 34.8q-.25 1.05-1.35 2.15l-.1.05v.05l-1.45 1.2-.25-2.6-.25-2 1.15.4.15.05 2.1.7" fill="#f40" fill-rule="evenodd"/><path d="M164.05 130.1q1.55 2.45 3.65 4.55l-3.35 7.25-1.35 1.75-2.15-.7-4.1-1.7q1.45-.95 2.7-2.5 2-2.5 2-4.15 0-.95-1-1.55-.8-.5-1.75-.5-1.75 0-2.15 2.05-.45 2-1.55 2-1.5 0-2.45-.5-.85-.45-.85-1.05 0-3.15 4.95-3.85l7.4-1.1" fill="#ffcf00" fill-rule="evenodd"/><path d="M159.95 116.45q.25 3.45 1.1 6.55-3.8.05-8.35 3.15l-1.1.85-.1-.95q0-2.5 1.5-5.35 1.9-3.7 6.95-4.25m-20.65 36.9-.05.05-.75.95q-8.9-3.85-18.4-6.05l-3.9-.9 2.05 2.05q.35 2.2.2 4.3v.25q-1.75-1.05-4-1.8-3.3-1.05-8.65-1.55 2.4 1 4.4 3.7 3 4.05 2.9 8.55l-.65.4.7 1-.7.5-3.85-5.15-.25.6-.35-1-.9.95.3 1.15q-5.6-8.05-16.5-6.15 0-3.2-.55-6.5l-.5-2.4q12.7 2.1 23.65-4.65 11.3-7 13.8-19.95 1.2-6.1-.8-12l.95.45 1 .95.95 1.15 1.1 1.5q2.7 3.95 4.5 8.65.7 1.9 1.45 7.4l.05.45q2.7 1.75 3.95 4.3l.45 1.1q.9 2.7.9 8.6 0 5.6-2.5 9.1m10.75-48q.7 1.25 1.85 2.35l-1.8 1.9q-4.6 5.5-4.6 10.85 0 4.4 1.25 8.35l.9 2.7q-.75 1.35-1.05 2.9-4.2-3.75-7.8-8.7l.55 2.05q-1.25-1.1-2.2-3.05-1.05-2.3-1.05-4.6 0-4.6 3.6-8.65 1.7-1.85 3.9-3.25 2.8-1.8 6.45-2.85m-90.8 64.15q12.9 0 25.15 3.8l1.4.35q5.05-8.75 5.1-18.3 2.8.8 4.65 3.3 3.95 5.5 7.7 11.3-9.75 1.55-18.9 4.9l.95.3h.1l-.35.05q1.25 3.75 1.3 7.45l-.15 2.8v-.05l-.25.35-.9 1.25q-.4-3.15-2.2-4.8-2.25-2.15-9.45-2.7-7.6-.65-10.3-2.5-3.3-2.25-3.85-7.5" fill="#ffbf00" fill-rule="evenodd"/><path d="M88.5 122.8q1.45-2.9 2.75-7.1l.1-.4.15-.4.1.1q3.95 4.25 7.4 4.15 3.7 0 6.3-2.6l.05-.05q2.6-2.6 2.6-6.3 0-3.7-2.65-6.35-2.6-2.6-6.3-2.6l-2.75.4-1.7.8v-.05l.7-2.8v-.2l-2.55 2.25-.55.8-.85 1.3-.05-1.15q1.8-3.15 3.9-4.3 2.35-1.3 7.4-1.3 4.65 0 8.85 3.35 2.05 1.6 6.5 6.7l.15.2h.05l.35-.05-.25 3 .4.15 7.55-10.9.1.05.25 4.7-.35 2.85-.5 2.05-.05.15v.05h-.05q-.3 0-.65.4l.1 1.55-.8 1.55q-1.85 3.9-4.8 7.45-7.7 9.2-17.25 9.25-4.05 0-8.2-2.25-3.05-1.75-5.2-4.15l-.25-.3" fill="#b45f2a" fill-rule="evenodd"/><path d="M128.1 107.65q.5-2.5.4-5.3l.85-.8.35 1.85.25 2.9-1.85 1.35" fill="#d64b2c" fill-rule="evenodd"/><path d="m128.5 102.35-.4-3.9q.8 1.25 1.25 3.1l-.85.8" fill="#545457" fill-rule="evenodd"/><path d="m125 111.25-.1-1.55q.35-.4.65-.4h.05l.9.4q2 5.9.8 12-2.5 12.95-13.8 19.95-10.95 6.75-23.65 4.65l.5 2.4q.55 3.3.55 6.5v.15q-.05 9.55-5.1 18.3l-1.4-.35q-12.25-3.8-25.15-3.8l-4.9.1 4.1 5.95-1.3-1.15q-4.9-4.6-11.25-5.85l-.05-.05-.05-.1-1.6-.6-1.75-.7-2.15-1.25q-3.95-2.4-5.65-5.05l-3.1-1.1q-2.65-1.2-4.15-2.7l-.3-.3-2.7-3.25-.45-.6q3.75 2.7 8.25 4.55l.5.2 2.05.65-2.3-3.3-1.95-3.5.05-.05q5.05 1.55 7.75 3.3l3.25 2.4-.1-1.85V155l.05-1.2.1-.9.05-.1.95 1q1.85 1.55 4.5 2.75l.35.15 1.25.5-.5-1.7-1.35-3.45q1.2.4 5.75 2.9 4 2.15 7.3 2.15 1.65 0 4.2-.85l.85-.3 2.45-1.1-.6-.4-.25-.15 2.4-1.05q-.5 0-2.15-1.75-1.55-1.7-1.7-2.2 2.6.25 6.4-1.35 4-1.7 6.7-1.7l1.45.2 1.2.3.55-1.45.35-2v-.15q-.05-1.75-1.25-3.65-.75-1.2-1.6-1.9l3.55-3.15 1.25-.95.2-2.15 1.55.85q1.4-.95 2.55-1.45l.95.8 2.75 1.8 3.8 1.4 4.1.4q8.8 0 14.75-3.25 3.25-1.75 7.15-5.2 3.2-5.05 3.55-11.2v-3.4l-.05-.85" fill="#9b4a17" fill-rule="evenodd"/><path d="M10.05 102.65v-1.25q0-2.25-.55-5.6l2.05 2.5q.65.75.95 2-.25-3.05-.7-4.55-.95-3.1-3.25-5.65l-.25-2.95q0-6.1 3.85-12.2 2.1-3.3 9.3-11.75 4.55-5.3 7.7-9.7l-.9 5.7q-.65 3.35-1.5 5.8l-.75.85v.05l.4-.05-.1.2-1.65 3.9q-.65 2.2-.6 5.55v.85q-.2 3.8-2.45 8.6l-1.45 3.25-2.75 4.4-3.25 1.9-.45.2.2.45.5 1.3 1.65 3.45-.1 3.8v.45l-2.2 3.05-.85 1.5-.35.85-1.05-2.75-1.45-4.15m117.4 7.5.05-.3.6-2.2 1.85-1.35q3.8-2.85 7.55-6.3l8.35-8.3q-7.35 8.75-15.75 17.7l-1.65 1.7-1-.95" fill="#ff0" fill-rule="evenodd"/><path d="M59.45 147.25q2.05-.1 7.55-2.1 6.3-2.35 12.7-3l1.25.1h.3l-.85-.55q-1.95-1.35-6.35-2.7l-2.7-.75 3.9-3.05 2.45-2.35q6.25-2.35 9.8-8.2 2.25 2.5 5.45 4.35H93q4.6 2.5 9.15 2.5 10.45.05 18.8-9.95 2.4-2.9 4.1-6.05-.35 6.15-3.55 11.2-3.9 3.45-7.15 5.2-5.95 3.25-14.75 3.25l-4.1-.4-3.8-1.4-2.75-1.8-.95-.8q-1.15.5-2.55 1.45l-1.55-.85-.2 2.15-1.25.95-3.55 3.15q.85.7 1.6 1.9 1.2 1.9 1.25 3.65v.15l-.35 2-.55 1.45-1.2-.3-1.45-.2q-2.7 0-6.7 1.7-3.8 1.6-6.4 1.35.15.5 1.7 2.2 1.65 1.75 2.15 1.75l-2.4 1.05-.05-.05-2.75-1.85q-.7-.45-2.25-2.6l-2.05-2.55" fill="#7b3f1a" fill-rule="evenodd"/><path d="M174.5 145.9q-2.6 1.8-5.05 2.55-5.2 1.5-9.95.65l-7.25-1.7-4.85-1.5q-1.85-2.3-2.85-4-1.65-2.85-3.35-8l-1.85-6.15-.55-2.05q3.6 4.95 7.8 8.7 4.7 4.25 10.15 6.85l4.1 1.7 2.15.7q4.35 1.25 11.5 2.25m-61.4 17q.1-4.5-2.9-8.55-2-2.7-4.4-3.7 5.35.5 8.65 1.55 2.25.75 4 1.8-.15 1.7-.75 3.2-1.45 3.6-4.6 5.7" fill="#fffe00" fill-rule="evenodd"/><path d="m147.4 145.9-1.7-.45-1.05-.3-.15 1.1q-.65 3.25-.65 5.9 0 1.8.4 3.95l-3.25-1.7-1.7-1.05q2.5-3.5 2.5-9.1 0-5.9-.9-8.6l-.45-1.1.15-.15.6-.5q1.7 5.15 3.35 8 1 1.7 2.85 4" fill="#ff4c00" fill-rule="evenodd"/><path d="m92.1 112.55 1.55-6.55.25-.95.15.2.8-.6 2-1.1 2.15-.3q2.9 0 4.9 2 2.05 2.05 2.05 4.95 0 2.85-2.05 4.9-2.05 2.05-4.9 2.05-2.95-.1-6.45-4.05l-.45-.55" fill="#591100" fill-rule="evenodd"/><path d="M85.2 86.7q4.1 9.25 4.2 19.9l-.05.1-2.85 3.3q-3.6 4-4.3 4.15l1-4.4q.85-4.15.85-7.05L84 97.15l-.1-2q1.3-5.1 1.3-8.45m5.1 24.7-.3 1.3-.15.5q-1.45 5.35-3.2 8.85l-.5.9v.05q-3.3 5.85-9.35 8l-.05.05q-3.75 1.3-8.6 1.2h-.75q4.65-1.25 10.25-5.35 8.1-6 12.65-15.5m-23.1 20.9q3.9 2 6.5 1.6-2.8 2.45-5.45 3.8l-2.4 1.3 2.65.6 4.95 1.3 1.75.5q-2.75.55-7.05 2.3-5 2-8 2l-1-.05v-1.95l3.35-2.45-.85-.45-.95-.5 1.35-1.3 2.8-3.3 2.3-3.4h.05" fill="#316ff3" fill-rule="evenodd"/><path d="m89.4 106.75.1 2.85 1.7-2.25h.05l-.95 4.05q-4.55 9.5-12.65 15.5-5.6 4.1-10.25 5.35h-.2l.15-.4.3-1.05q.85-1.6 3.25-4.95 3.65-5.15 5.8-10.35 5.15-12.35 7.2-20.35l.1 2 .05 5.55q0 2.9-.85 7.05l-1 4.4q.7-.15 4.3-4.15l2.85-3.3.05.05" fill="#5ea4f3" fill-rule="evenodd"/><path d="m41.05 109.95-.05-.05-13.5-9.6 27.2 2.8-11.9 6-1.75.85" fill="#e26d12" fill-rule="evenodd"/><path d="M28.05 122.9q0 3.9 2.8 6.8 2.55 2.6 4.95 2.55h.9l.35-.05v-.1l8.75.7-.6-.45.65.45.8.2q10 7.25 12.5 8.75l-5.65 1.65-7.75.7q-7.65 0-13.75-3.1l-3.75-2.15q-1.7-1-2.55-1l-.2.05q-1.45-1.15-6.6-1.15-1.75 0-2.25.8l-.2.5.2.5q.3.65 1.1 1.3l.25 1.45q0 .85-.6 1.45l-.05.05q-1.75-2.3-1.75-3.45 0-.95.5-2.35l.1-.2.75-1.7 2.2-4 .95-1.7.05-.05.7-.6 2.5-1.95 4.7-3.9m19.05 33.65q-2.65-1.2-4.5-2.75l-.95-1-1.6-1.65.05-.15 1.35.4q1.25.5 1.45.85h.15l-.05-.05q-1.1-1.25-.95-1.8l.1-.1q1.75 1.25 3.15 3 1.35 1.65 1.8 3.25m-5.6-2.75-.05 1.2v.25l-3.05-2q-4.3-2.7-7.8-3.4l2.95-.45-.6-.3q-.55-.4-.85-.45v-.15h.95q3.4.8 6.1 2.95l2.35 2.35m21.55.35 1.05.9-3.2.4q-5.05 0-9.95-2.75-3.35-1.9-5-2.45l1.1-.2 1.85-.25q2.5 0 7.5 2.4 3 1.45 6.65 1.95m-39.85-6.9q1.15 1.85 3.85 4.75l3.05 3.2-1.8-1.1q-3.8-2.45-6-5.2-.2-.2-.1-.6l.3.25.35-.7.35-.6" fill="#f3c160" fill-rule="evenodd"/><path d="m46.65 133-.1-.1.2.1.85.2q4.65 1.3 8.3 4.4l1.1-.1-.95.2 4.65 2.6.95.5.85.45-3.35 2.45-1.45.75-2.75 1.1-.2.1-1.6.5-.4.1-2 .45q-4.3.95-13.65 1.55l-1.4.05-5.65-.85-6.15-1.6-.7 1.4-.35.6-.35.7-.3-.25q-.1.4.1.6l-.45.45q-.25 0-.65-.55l-.35-.5-.05-.1.05-.05.5-.75.8-1.1.7-.9-.05-.05q-1.35-2.5-1.75-3.65l-2.95-1.6-.35-.25q-.8-.65-1.1-1.3l-.2-.5.2-.5q.5-.8 2.25-.8 5.15 0 6.6 1.15.5.4.5.95 0 .85-1.55 1.9l-1.95 1q.75 1.7 2.25 3.3l6.55.85 5.5.35 11.85-.95q7.35-1 10.5-3.5l.05-.05h-.05q-2.5-1.5-12.5-8.75m-9.55 15.25h-.2.2m-17.55-10.1h-.75q-.5.05-.5.4l.25.4 1.05.85 1.35.75.85.2q.4 0 1.1-.55.75-.6.75-1.1l-.3-.55-1.25-.35-2.55-.05" fill="#3d071f" fill-rule="evenodd"/><path d="m47.45 156.7-.35-.15q-.45-1.6-1.8-3.25-1.4-1.75-3.15-3l-.1-.05v.15q-.15.55.95 1.8l-.1.05q-.2-.35-1.45-.85l-1.35-.4h-.05v.15l1.6 1.65-.05.1-.1.9-2.35-2.35q-2.7-2.15-6.1-2.95h-.95v.15q.3.05.85.45l.6.3-2.95.45-.7-.15-1.2-.1q.95 2.65 2.1 4.75l1.1 1.8q-.75-.3-1.8-.95l-3.05-3.2q-2.7-2.9-3.85-4.75l.7-1.4 6.15 1.6 5.65.85 1.4-.05q9.35-.6 13.65-1.55l2-.45.4-.1q4.5 2.95 5.8 4.2l.2-.95 2.55 3.3 1.35 1.45q-3.65-.5-6.65-1.95-5-2.4-7.5-2.4l-1.85.25-1.1.2-.25-.1-1-.2-.3.05q2 3.4 3.05 6.7m-23.5-3.85.45.6 2.7 3.25.3.3q1.5 1.5 4.15 2.7l3.1 1.1q1.7 2.65 5.65 5.05l2.15 1.25q-6-2.5-8.65-4-4.25-2.45-7.15-5.2-3.15-3.1-4.6-6.55l1.9 1.5m35.2-11.1v.05q-3.15 2.5-10.5 3.5l-11.85.95-5.5-.35-6.55-.85q-1.5-1.6-2.25-3.3l1.95-1q1.55-1.05 1.55-1.9 0-.55-.5-.95l.2-.05q.85 0 2.55 1L32 141q6.1 3.1 13.75 3.1l7.75-.7 5.65-1.65m-41.4-1.9.35.25 2.95 1.6q.4 1.15 1.75 3.65l.05.05-.7.9-.8 1.1-4-4.6.05-.05q.6-.6.6-1.45l-.25-1.45" fill="#cb7c3c" fill-rule="evenodd"/><path d="M59.15 145.65v3.75l-.2.95q-1.3-1.25-5.8-4.2l1.6-.5.2-.1L57.8 148l.2-1.05-.2-1.9-.1-.6 1.45-.75v1.95" fill="#450d20" fill-rule="evenodd"/><path d="m57.7 144.45.1.6.2 1.9-.2 1.05-2.85-2.45 2.75-1.1" fill="#fff6e8" fill-rule="evenodd"/><path d="m6.35 113.55-.05-.9q.05-1.4 1.65-3.1l1.3-2.15 2.25-.6 1.05 2.75q-.6 1.5-.6 3.05l.05.3-.8.4q-1.65.85-2.9.85l-1.75-.5-.2-.1m39.55 55q6.35 1.25 11.25 5.85l1.3 1.15-4.1-5.95 4.9-.1q.55 5.25 3.85 7.5 2.7 1.85 10.3 2.5 7.2.55 9.45 2.7 1.8 1.65 2.2 4.8l-.6.75.15 2.95q-.35 1-2.05 3.15l-.7.85q-3.1-1.85-6-2.75l1.7-2.55-.6-.25-2.55-1.75q-3.15 2.5-6.65 2.5-3.35 0-7.1-3.05l-.2 2.8-1.6-.65-.1-.15-1.55-2.35q-2-3.2-2-4.45l.1-.95-.8-1.25-1.1-2-.95-2.55-.15-.15-1.6-1.35-3.05-3.1-.15-.15-.15-.2-.65-.75-.1-.1-.7-.95m-.2 24.25q1.65-5 3.6-10.1 2.15 4.15 2.15 8.1l-.25 1.9-.45.05q-.35 0-.55-.85l-.8-2.2q-.5.5-1.2 2.6-1 2.95-1.1 6.5-1.95 1.2-4.35 1.85 3.45-2.7 3.45-5.3 0-1.45-.5-2.55" fill="#ff4200" fill-rule="evenodd"/><path d="m47.5 170.55.15.15.05.9q0 2.6-2.1 5.4l-1.45-2.3 2.25-4.5 1.1.35m-7.75 8.8q-1.2 1.5-2.95 1.5-1.45 0-2-1.1 1.35-.85 3-.85l2 .35-.05.1" fill="#ff5f11" fill-rule="evenodd"/><path d="m47.65 170.7 3.05 3.1 1.6 1.35-2.45 6.15-.55 1.4-2.45-3.9-1.25-1.8q2.1-2.8 2.1-5.4l-.05-.9" fill="#ff8f0a" fill-rule="evenodd"/><path d="M42.85 171.6q1.1-1.1 1.35-2.15l2.2.75-2.25 4.5-1.1 1.9q-1.8 2.9-2.6 2.9l-.6-.25h-.05l-2-.35q-1.65 0-3 .85-.25-.5-.55-2.15l1.55-2.1q1.4-2.3 4.5-2.3l.95-.3.05.1v-.1l1.45-1.2.1-.1" fill="#ff900a" fill-rule="evenodd"/><path d="M90.9 155.2q10.9-1.9 16.5 6.15 1.75 7.85.6 15.85-4.5-2.65-9.75-2.75l-12.85.7h-.1l-.95-.3q9.15-3.35 18.9-4.9-3.75-5.8-7.7-11.3-1.85-2.5-4.65-3.3v-.15M45.6 177l1.25 1.8 2.45 3.9q-1.95 5.1-3.6 10.1-.55-1.15-1.6-1.9l-1.9-.95v-.25q0-5.3-1.1-8.05v-.75q1.1 0 3.65-2.9l.85-1m5.6 15.7q1.4-.25 2.3-1.95l.1.05q-.75 2-2.2 3.95l-.5.7q-1.65 2-3.8 3.35.1-3.55 1.1-6.5.7-2.1 1.2-2.6l.8 2.2q.2.85.55.85l.45-.05m-16.4-12.95-.85.65q-1.55 1.35-1.95 3.55l-1.65-1.6.15-.7.3-3.3v-.9l3.1.3.35-.15q.3 1.65.55 2.15m-15-30.35.15.05.45.45q1.8 5.6 5.45 9.65l-.8 1.25-1.75 1.95-.3-2.95-.45-3.25h-.15L20.85 162q-.25-.35-.4-2.25l-.15-2h-.15q0 .75-2.45 4.65 0-2.95.4-4.45.3-1.25 1.55-4l-.1-.05q-.5 0-1.7.5l-1.2.5 1.3-2.4 1.85-3.1m2.55 30.45.25-5.65q.05-2.65.8-2.65.4 0 1 .75l.95.75q1.05 0 2.7-3.6l1.8-4.2.15 5.95q-.4 4.1-2.65 7.55-1.8-2.55-3.3-5.55l-.3 1.5-.05 3.4.35 5.05-1.7-3.3" fill="#ff8a00" fill-rule="evenodd"/><path d="m40.8 168.3.25 2 .25 2.6h-.05l-.95.3q-3.1 0-4.5 2.3l-1.55 2.1-.35.15-3.1-.3-.2-.05q-1.15 0-1.9.9-.5.55-.7 1.35l-.65-.9q2.25-3.45 2.65-7.55l-.15-5.95-1.8 4.2q-1.65 3.6-2.7 3.6l-.95-.75q-.6-.75-1-.75-.75 0-.8 2.65l-.25 5.65-1.65-3.9q-3-7.7-3-13.2v-.35q2.45-3.9 2.45-4.65h.15l.15 2q.15 1.9.4 2.25l1.55-5.45h.15l.45 3.25.3 2.95 1.75-1.95.8-1.25q2.2 2.4 5.1 4.25 3.2 2 9.4 4.3l.2.1.25.1m3.35 6.4 1.45 2.3-.85 1q-2.55 2.9-3.65 2.9v.75q1.1 2.75 1.1 8.05v.25l-3.5-1.65q-1.55-.7-3-1.6-.15-2.45-.15-5.7h-.1q-.3.5-1.1 3.25l-.35 1.3-2-1.6q.4-2.2 1.95-3.55l.85-.65q.55 1.1 2 1.1 1.75 0 2.95-1.5l.1-.1.6.25q.8 0 2.6-2.9l1.1-1.9" fill="#ff5a11" fill-rule="evenodd"/><path d="m52.3 175.15.15.15.95 2.55-.9 2.4q.45.1.85.7l.1.15-.15.3q-.6 1.25-.6 2.45 0 3 1.55 4.8l-.2.95-.55 1.15q-.9 1.7-2.3 1.95l.25-1.9q0-3.95-2.15-8.1l.55-1.4 2.45-6.15" fill="#ff5c11" fill-rule="evenodd"/><path d="m34 185.55.35-1.3q.8-2.75 1.1-3.25h.1q0 3.25.15 5.7l-1.7-1.15" fill="#ff6300" fill-rule="evenodd"/><path d="m53.4 177.85 1.1 2 .8 1.25-.1.95q0 1.25 2 4.45l1.55 2.35-.15.05q-2.5-1.15-3.75-2.65-1.3-1.45-1.3-3.25l.15-1.1.05-.25.05-.15.05-1.05-.4.65-.1-.15q-.4-.6-.85-.7l.9-2.4" fill="#ff9709" fill-rule="evenodd"/><path d="m60.45 189.65.2-2.8q3.75 3.05 7.1 3.05 3.5 0 6.65-2.5l2.55 1.75.6.25-1.7 2.55-1.3-.4-7.95-.75q-3 0-6.15-1.15" fill="#f3f121" fill-rule="evenodd"/><path d="m81.85 194.7.7-.85q1.7-2.15 2.05-3.15l-.3 3.4-.2 1-.3.85-1.95-1.25" fill="#ff7500" fill-rule="evenodd"/><path d="m29.15 53.5 3.1-4.7v-.05l1.4-2.7q.2 6.5-2.85 12.65l-1.1.15-1.45.35.9-5.7" fill="#ffab00" fill-rule="evenodd"/><path d="m30.8 58.7-1.35 2.4-2.7 3.9q.85-2.45 1.5-5.8l1.45-.35 1.1-.15" fill="#ffdf00" fill-rule="evenodd"/><path d="M32.1 67.75q-4.8 4.05-8.05 8.6v-.85q-.05-3.35.6-5.55l1.65-3.9.1-.2 3.45-2.1 2.25 4" fill="#ff6b16" fill-rule="evenodd"/><path d="M16.05 106.15q.25 4.65 1.55 10.25 1 4.5 2.35 8.25h-.1q-3.9-6.05-5.5-9.45l.55-1.8q.4-1.75.4-3.65 0-1.15-.35-1.65l-.2-.25 1.3-1.7" fill="#90cff9" fill-rule="evenodd"/><path d="M35.6 109.95q-2.85.95-4.85 3.75-1.95 2.65-2.45 6.2l-.15 1.25-.05.35-4.7 3.95.9-24.5 11.3 9" fill="#904100" fill-rule="evenodd"/><path d="m9.5 95.8-.3-1.75-.65-3.95q2.3 2.55 3.25 5.65.45 1.5.7 4.55-.3-1.25-.95-2L9.5 95.8" fill="#ff9300" fill-rule="evenodd"/><path d="M9.25 107.4q.65-1.9.8-4.75l1.45 4.15-2.25.6" fill="#ffa300" fill-rule="evenodd"/><path d="m11.95 137.5-2.25-1.6-1.85-1.9 4.05-.4h.05l1.2-.3.4-.15 1.75.2 1.35-.2-.65 1.05q-.9 1.75-1.35 3.15l-2.7.15M5.85 121l3.3.7h3.15l.05-.2-2.3-1.6-1.8-1.65q-1.7-2.1-1.9-4.7l.2.1 1.75.5q1.25 0 2.9-.85l.8-.4q.1 1.25 1.4 3.9l2.1 4 .15.3.45.75.55 4.25-.6.45q-.95.75-2.55.75-2.3 0-4.45-2.05-1.5-1.5-3.2-4.25" fill="#ffa801" fill-rule="evenodd"/><path d="m14.25 138.7-2.3-1.2 2.7-.15-.4 1.35m-.7-5.55.6-.2 2.15-.75-2-1.05q-4.8-2.6-7.1-4.95h-.05q-2.65-2.7-3.95-6.25L5.85 121q1.7 2.75 3.2 4.25 2.15 2.05 4.45 2.05 1.6 0 2.55-.75l.6-.45.85 5.5-.7 1.2-.15.35-1.35.2-1.75-.2" fill="#ff750e" fill-rule="evenodd"/><path d="m18.85 129.15-.55-3.25 1.1 2.15-.55 1.1" fill="#f0b14c" fill-rule="evenodd"/><path d="m19.55 138.15 2.55.05 1.25.35.3.55q0 .5-.75 1.1-.7.55-1.1.55l-.85-.2-1.35-.75-1.05-.85-.25-.4q0-.35.5-.4h.75" fill="#4e1200" fill-rule="evenodd"/><path d="M28 179.65q.2-.8.7-1.35.75-.9 1.9-.9l.2.05v.9l-.3 3.3-.15.7-2.35-2.7" fill="#ffa108" fill-rule="evenodd"/><path d="M126.15 107.05q-.05 1.45.35 2.65 2 5.9.8 12-2.5 12.95-13.8 19.95-10.95 6.75-23.65 4.65l.5 2.4q.55 3.3.55 6.5v.15q-.05 9.55-5.1 18.3l-1.4-.35q-12.25-3.8-25.15-3.8l-4.9.1 4.1 5.95-1.3-1.15q-4.9-4.6-11.25-5.85l-5.55-.45" fill="none" stroke="#884125" stroke-linecap="round" stroke-linejoin="round" stroke-width="3"/><path d="M138.5 154.35q3.65 1.55 7.2 3.4m-38.3 3.6-.3-1.15.9-.95.35 1 .25-.6 3.85 5.15.7-.5-.7-1 .65-.4q3.15-2.1 4.6-5.7.6-1.5.75-3.2v-.25q.15-2.1-.2-4.3l-2.05-2.05 3.9.9q9.5 2.2 18.4 6.05m-53.1 20.8-.35.05q1.25 3.75 1.3 7.45l-.15 2.8q-.25 1.55-1.05 3.05m22.25-27.15q1.75 7.85.6 15.85-4.5-2.65-9.75-2.75l-12.85.7" fill="none" stroke="#a41f00" stroke-linecap="round" stroke-linejoin="round" stroke-width="3"/><path d="M77.6 104.45 74.8 106l-6.15 13.15-.25 2.8.55-.95q5.5-9.15 8.65-16.55m-10 5.75-.1.05q.9 3.05 1.1 6.65l4.3-9.85q-2.7 1.5-5.3 3.15m-.75 7.9.05-1.95-.3-5.35-2.55 1.65-3 2.05 1.65 3.1.05.1q1.2 2.85 1.2 5.65 0 1.7-.35 3.15-.35 1.35-1.05 2.55l-1.5 1.85-.7.65-.05-.05 1.5-2.4q.6-1.45.75-3.15l.05-1.3q0-2.4-1-5.35l-.75-1.85-1.3-1.9-6.25 4.75.3.9.1.2q1.3 3.7 1.3 6.55 0 1.4-.4 1.4l-1.3-.7-1.3-.75q-.4 0-1.1.8-.85.95-.85 2.2 0 1.35 1.55 2.65 1.25 1.05 2.35 1.1l-.95.25q-2 0-3.3-1.75-1.25-1.7-1.2-4.25l-.35 2.45-.1-.1-.7-1.75-.1-1.5.05-.6v-.2l.25-1.05 1.25-1.25 1-1.25-.05.75.2.95.65.1h.15v.05q.15 1.1 1.25 1.1.95 0 1.25-.4l.25-1.8-.2-2.3q-.25-1.45-.45-1.45l-.45.35-.15.2-.5 1.1q-.25.05-.6.25-.75.35-1.15.9.25-.45.65-.95l-.75.6-4.8 4.35q-2.55 2.4-4.95 4.95 1.45 1.35 3.25 2.3l2.2.95q3.1 1.05 7.4 1.05 2.65 0 4.65-1l1.65-1.05.05-.05.25-.2q2.25-1.95 4.4-5.7l.9-1.3.5-.75.2-.3.35-.55.5-3.75.4-3.9v-.05M36.3 130.35v-.1q6.45-9.45 25.9-19.95 9.95-5.3 18.9-8.85-3.15 7.25-8.8 16.85-4.5 7.7-8.75 13.8l-.3.45-2.05 2.35q-1.75 1.65-3.5 2.35l-.7.25h-.1l-5.05.35q-4.65-.15-8.8-1.6H43l-1.05-.4q-3.75-1.5-5-3.65-.5-.8-.6-1.65l-.05-.2" fill="#3d071f" fill-rule="evenodd"/><path d="M77.6 104.45q-3.15 7.4-8.65 16.55l-.55.95.25-2.8L74.8 106l2.8-1.55" fill="#fffcf0" fill-rule="evenodd"/><path d="M67.6 110.2q2.6-1.65 5.3-3.15l-4.3 9.85q-.2-3.6-1.1-6.65l.1-.05" fill="#87a3dd" fill-rule="evenodd"/><path d="m62.75 117.7-.05-.1-1.65-3.1 3-2.05 2.55-1.65.3 5.35-.05 1.95-2.8-.4h-1.3" fill="#b4afaf" fill-rule="evenodd"/><path d="m51.75 122.3.5-1.1.15-.2.45-.35q.2 0 .45 1.45l.2 2.3-.25 1.8q-.3.4-1.25.4-1.1 0-1.25-1.1v-.05q1.2-.2 2.15-2.8 0-.45-.8-.45l-.35.1" fill="#b03113" fill-rule="evenodd"/><path d="M66.85 118.1v.05l-.4 3.9-.5 3.75-.35.55-.2.3-.5.75-.9 1.3q-2.15 3.75-4.4 5.7l-.25.2h-.05l-.55-.2q.65-.15 1.55-1.45.65-1 .75-2.05l1.5-1.85q.7-1.2 1.05-2.55.35-1.45.35-3.15 0-2.8-1.2-5.65h1.3l2.8.4m-21.75 9.35 4.8-4.35-.1.55.2-.2q.4-.55 1.15-.9.35-.2.6-.25l.35-.1q.8 0 .8.45-.95 2.6-2.15 2.8h-.15l-.65-.1-.2-.95.05-.75-1 1.25-1.25 1.25-.55.5q-1 .8-1.75.8h-.15" fill="#fff" fill-rule="evenodd"/><path d="M43.4 134.7q-1.8-.95-3.25-2.3 2.4-2.55 4.95-4.95h.15q.75 0 1.75-.8l.55-.5-.25 1.05v.2q-1.4 1.6-2.65 4.1l-1.25 3.2m10.2-13.5-.3-.9 6.25-4.75 1.3 1.9q-1.35.2-3.25 1-2.95 1.2-4 2.75" fill="#741409" fill-rule="evenodd"/><path d="m59.3 134.65-1.65 1.05q-2 1-4.65 1-4.3 0-7.4-1.05l-2.2-.95 1.25-3.2q1.25-2.5 2.65-4.1l-.05.6.1 1.5.7 1.75.1.1.35-2.45q-.05 2.55 1.2 4.25 1.3 1.75 3.3 1.75l.95-.25q-1.1-.05-2.35-1.1-1.55-1.3-1.55-2.65 0-1.25.85-2.2.7-.8 1.1-.8l1.3.75 1.3.7q.4 0 .4-1.4 0-2.85-1.3-6.55l-.1-.2q1.05-1.55 4-2.75 1.9-.8 3.25-1l.75 1.85q1 2.95 1 5.35l-.05 1.3q-.65 0-1.15.3-.65.4-.65 1.05l.2 1.05q.25.75.75.75h.1l-1.5 2.4.05.05.7-.65q-.1 1.05-.75 2.05-.9 1.3-1.55 1.45l.55.2v.05m.2-6.65q-.5-1.6-1.1-1.6-1.75 0-1.75 2.75 0 1.3.55 2.85.6 1.7 1.35 1.9l.75-.65q.65-.95.65-2.55l-.45-2.7" fill="#b23513" fill-rule="evenodd"/><path d="M62.55 125.95q-.15 1.7-.75 3.15h-.1q-.5 0-.75-.75l-.2-1.05q0-.65.65-1.05.5-.3 1.15-.3" fill="#e8ac52" fill-rule="evenodd"/><path d="m59.5 128 .45 2.7q0 1.6-.65 2.55l-.75.65q-.75-.2-1.35-1.9-.55-1.55-.55-2.85 0-2.75 1.75-2.75.6 0 1.1 1.6" fill="#e4a74f" fill-rule="evenodd"/></g><g id="o"><path d="m74.7.6 5.5-.6q9 0 15.3 7.6 7.2 8.7 7.2 24l-.1 6.1-.3 4.4q-2.75.3-4.8 1.8-3.5 2.55-3.5 7.9 0 2.45 1.75 7.4 1.75 4.9 1.75 6.6 0 1.65-.35 3.1l-2.7-3.25-4.3-4.35-2.85-2.5-.3-1.4-.15-.35q-.75-1.95-2.5-3.35l-.25-.2q-2.5-1.9-6.3-2.5 2.15.85 3.45 2.3.75.8 1.05 2.05-2.65-1.9-7.1-3.5l-2-.7L76 41.4q1.3-6.3 1.3-16.5 0-15.55-2.6-24.3" fill="#cc7f3c" fill-rule="evenodd" transform="translate(.65)"/><path d="M60.45 48.3q1.35-1.6 2.1-4.55.95-3.5.95-8.25l-1-9.95L61 13.6l-.05-.25.05-.3q1.15-5.5 6.35-9.15 3.3-2.35 7.35-3.3 2.6 8.75 2.6 24.3 0 10.2-1.3 16.5l-2.8 9.75-2.6-.8-1.75-.45-1.25-.35h-.1q-3.95-.95-7.05-1.25" fill="#fcab46" fill-rule="evenodd" transform="translate(.65)"/><path d="m43.3 66.6 4.6-4.9 1.5-1.6 2.8-3.25 1.25-.2 1.95-.25q.85 1.15 1.55 3.2l.6 1.8.1-.2q1.35-1.6 2.95-1.6l.35.1.1.05Q60.5 62 58 65.25 55.85 68 54.9 68.6l-.2-.55.2-1.1.25-.7.1-.65-2.3 1.1q-2.65 1.15-4.7 1.15l-1.9-.25Q53.7 70.15 60 73.2l3.05 1.55.5.25.15.3q.4.85.4 1.7 0 2.1-1.1 2.8-.7.45-2.5.5h-.3v-.05l-.95-.7-5.55-3.25v-.1l-.25-.05-1.4-.7-6.1-2.7-2.6-1.1q-.65-.9-.8-1.6l-.05-.45q0-.65 1-1.6.75-.7 1.25-.85l.25-.05-1.25-.4-.45-.1m29.9-15.45 2 .7 1.25 2.35q.9 1.7.9 2.95 0 1-.75 2.15l-.15.2-1.3 1.2q-4-2.5-8.5-3.6-3.6-.95-7.55-1-1.55-1.5-1.55-2.5 0-.95 1.75-1.95l1.1-.6q3.15-1.5 7.1-1.5h.1l1.25.35 1.75.45 2.6.8M57.55 61.4q-1.1 1.35-2.3 4.2 1.2-2.85 2.3-4.2M45.4 67.25v-.05l-.4-.1.4.15.65.25-.65-.25" fill="#ffdf0d" fill-rule="evenodd" transform="translate(.65)"/><path d="m83.2 67.4 1.4-1.55.35-.3.3-.35q2.15-2.45 2.15-5l-.1-1.4 2.85 2.5.05 1.15q0 2.95-2.65 4.95l-.15.1q-1.5 1.1-2.7 1.45h-.1l-1.4-1.55m-.9-12.05.2 1.95q0 2.75-2 4.1l-.1.05-2.5 1.1-2.75-1.85 1.3-1.2.15-.2q.75-1.15.75-2.15 0-1.25-.9-2.95l-1.25-2.35q4.45 1.6 7.1 3.5M38.8 69.6q-2.8-1.35-2.75-1.75.05-.5.75-1.1l.7-.55q.45-.3.95-.4l1.15-.2 2.1.4.6.25.9.35h.1l.45.1 1.25.4-.25.05q-.5.15-1.25.85-1 .95-1 1.6l.05.45q.15.7.8 1.6L38.8 69.6m10.6-9.5-.5-1.2-.8-2.4q0-.35 4.6-4.3l2.65-2.2q2.25-1.8 2.75-1.8l2.35.1q3.1.3 7.05 1.25-3.95 0-7.1 1.5l-1.1.6q-1.75 1-1.75 1.95 0 1 1.55 2.5 3.95.05 7.55 1l1.65 2.75q1.1 2.2 1.1 4.6 0 4.5-4.65 7.05-1.95 1.05-3.85 1.5l-.9.2q-6.3-3.05-13.65-5.6l1.9.25q2.05 0 4.7-1.15l2.3-1.1-.1.65-.25.7-.2 1.1.2.55v.05q.3.55.65.55 1.4 0 3.55-2.6 2.3-2.85 2.3-5.5l-.1-1-.25-.35-.1-.05-.35-.1q-1.6 0-2.95 1.6l-.1.2-.6-1.8q-.7-2.05-1.55-3.2l-1.95.25-1.25.2-2.8 3.25M63.55 75q4.85 2.6 9 5.5l1.4 1 .5.35.05.15.3 2.25v.55q-.2 1.35-1.2 2.6l-1.1 1.05q-.8.55-1.75.55-1.5 0-2.45-.85l-.4-.45q-4.35-4.75-7.65-7.4h.25q1.8-.05 2.5-.5 1.1-.7 1.1-2.8 0-.85-.4-1.7l-.15-.3M55.4 56.4l3.1-.3h.6-.6l-3.1.3m-3.2.45-1.9.35 1.9-.35" fill="#e25412" fill-rule="evenodd" transform="translate(.65)"/><path d="M97.15 68.9q-.6 2.4-2.15 4.1-.9 1-2.05 1.6-1.4.75-3.05.95l-3.4-4.3-1.8-2.15-.1-.15h.1q1.2-.35 2.7-1.45l.15-.1q2.65-2 2.65-4.95l-.05-1.15 4.3 4.35 2.7 3.25M77.9 62.55l-1.85.6q-6.4 2-6.45 7.85v.1q0 3 1.5 5.2l1.4 1.55 1.05.85q-.1.35.45.35h.15q1.15.7 2.55 1.15l.9.25h.05l1.1.25q-.3.55 0 .85l-.05.65.05 2.75.05.5.7.65.35.35q.35.9.35 2.5v.1q0 2.6-1.5 4.6l-.85.95q-1.1 1.05-2.65 1.65l-4.7-5.65-1.05-1.2-.25-.25-.9-1q.95.85 2.45.85.95 0 1.75-.55l1.1-1.05q1-1.25 1.2-2.6v-.55L74.5 82l.1-.05-.15-.1-.5-.35-1.4-1q-4.15-2.9-9-5.5l-.5-.25L60 73.2l.9-.2q1.9-.45 3.85-1.5 4.65-2.55 4.65-7.05 0-2.4-1.1-4.6l-1.65-2.75q4.5 1.1 8.5 3.6l2.75 1.85m.9 22.9q-1.8-1.7-4.2-3.5 2.4 1.8 4.2 3.5" fill="#ad3e00" fill-rule="evenodd" transform="translate(.65)"/><path d="m61.05 59.75.25.35.1 1q0 2.65-2.3 5.5-2.15 2.6-3.55 2.6-.35 0-.65-.55v-.05q.95-.6 3.1-3.35 2.5-3.25 3.05-5.5" fill="#aa600d" fill-rule="evenodd" transform="translate(.65)"/><path d="m36.9 117.35-3.5.7q.65-5.05 2.05-10.7 1.2-4.8 3-10.05l.65-2.05 1.5-4Q46.55 76 52.5 76l.65.1.3.05-.3-.05-.65-.1q-5.95 0-11.9 15.25-5.65 1.15-10.15 2.95-2.95 1.1-5.4 2.5-8.45 4.75-15.1 15.1l-.65-.05-.6-.35q.3-2.05 3.05-8.5 2.4-5.8 5.25-11.15l1.05-1.95.55-1.05q2.65-4.7 5.1-8.25-5 .4-10.9 3.1l-.25.15q-8.6 4-11.45 9.85H0q3.7-10.15 8-16.65Q15.6 65.6 25.1 65.6l2.75.15q1.75.3 2.85 1.45l2.4 2.5.6.7q1.7-.8 3.3-.8h1.8l4.55 2.05 2.6 1.1 6.1 2.7 1.4.7.25.15 5.55 3.25.95.7v.05h.05q3.3 2.65 7.65 7.4l.4.45.9 1q-6.75-1.05-16 5.65-4.2 3.05-7.65 6.9l-2.1 2.5q-4.7 6.05-6.55 13.15M33.7 70.4q-4.6 2.15-10 10.1 5.4-7.95 10-10.1" fill="#e8fffd" fill-rule="evenodd" transform="translate(.65)"/><path d="m89.9 75.55-1.25.05-2.8-.3-1.75-.7q-2.3-1.25-2.3-3.7 0-1.65 1.4-3.5l1.4 1.55.1.15 1.8 2.15 3.4 4.3" fill="#9f410d" fill-rule="evenodd" transform="translate(.65)"/><path d="m77.8 99.9-1.4.9-2.3 1.35-9.6 5.25-4.55 2.05-9.25 3.5q-8.5 3.1-13.8 4.4 1.85-7.1 6.55-13.15l2.1-2.5q3.45-3.85 7.65-6.9 9.25-6.7 16-5.65l.25.25 1.05 1.2 4.7 5.65 2 2.7.6.95m-42.35 7.45-11.1 2.2Q12.8 111.8 10.2 111.8h-.25q6.65-10.35 15.1-15.1 2.45-1.4 5.4-2.5 4.5-1.8 10.15-2.95l-1.5 4-.65 2.05q-1.8 5.25-3 10.05M17 91.75Q7 93.6 1.6 93.6h-.5q2.85-5.85 11.45-9.85l.25-.15q5.9-2.7 10.9-3.1-2.45 3.55-5.1 8.25l-.55 1.05L17 91.75" fill="#7a8788" fill-rule="evenodd" transform="translate(.65)"/><path d="M79.85 86.45q2.1 2.15 3.25 4.15l.55 1.1q.65 1.55.65 3 0 2.2-1.8 4.1-1.85 2-4.2 2l-.5-.9-.6-.95-2-2.7q1.55-.6 2.65-1.65l.85-.95q1.5-2 1.5-4.6v-.1q0-1.6-.35-2.5" fill="#ff2d00" fill-rule="evenodd" transform="translate(.65)"/><path d="M83.65 91.7q.65 1.55.65 3 0 2.2-1.8 4.1-1.85 2-4.2 2l-.5-.9-.6-.95-2-2.7-4.7-5.65-1.05-1.2M38.8 69.6q-2.8-1.35-2.75-1.75.05-.5.75-1.1l.7-.55q.45-.3.95-.4l1.15-.2 2.1.4.6.25.9.35h.1l4.6-4.9 1.5-1.6-.5-1.2-.8-2.4q0-.35 4.6-4.3l2.65-2.2q2.25-1.8 2.75-1.8l2.35.1q1.35-1.6 2.1-4.55.95-3.5.95-8.25l-1-9.95L61 13.6m-.05-.25.05-.3m12.2 38.1 2 .7q4.45 1.6 7.1 3.5m-14.7-5.8h-.1q-3.95-.95-7.05-1.25m8.4 1.6 1.75.45 2.6.8M60 73.2l3.05 1.55.5.25q4.85 2.6 9 5.5l1.4 1m.5.35.15.1q2.4 1.8 4.2 3.5M75.15 60.7l2.75 1.85m-2.75-1.85q-4-2.5-8.5-3.6-3.6-.95-7.55-1h-.6l-3.1.3-1.95.25-1.25.2-2.8 3.25m8.15 1.3.1-.2q1.35-1.6 2.95-1.6l.35.1m.1.05.25.35.1 1q0 2.65-2.3 5.5-2.15 2.6-3.55 2.6-.35 0-.65-.55v-.05l-.2-.55.2-1.1.25-.7.1-.65q1.2-2.85 2.3-4.2m-11.2 6.2Q53.7 70.15 60 73.2m-9.7-16 1.9-.35m1.5 19.45 5.55 3.25.95.7v.05h.05q3.3 2.65 7.65 7.4M45.4 67.25l.65.25m-2.7 4.15 2.6 1.1 6.1 2.7 1.4.7M43.3 66.6l.45.1 1.25.4.4.15m23.8 21.9-.9-1m-24.95-16.5L38.8 69.6m45.8-.65.1.15 1.8 2.15 3.4 4.3M87.3 58.8l2.85 2.5 4.3 4.35 2.7 3.25m-12.55.05-1.4-1.55" fill="none" stroke="#884125" stroke-linecap="square" stroke-linejoin="miter-clip" stroke-miterlimit="3" transform="translate(.65)"/><path d="m61.65 13.6-.05-.25" fill="none" stroke="#0f0" stroke-linecap="square" stroke-linejoin="miter-clip" stroke-miterlimit="3" stroke-width=".05"/><path d="m77.65 80.45 1.1.25" fill="none" stroke="#a41f00" stroke-linecap="square" stroke-linejoin="miter-clip" stroke-miterlimit="3" transform="translate(.65)"/><path d="M53.7 76.3v-.1l-.25-.05.25.15" fill="none" stroke="#0f0" stroke-linecap="square" stroke-linejoin="miter-clip" stroke-miterlimit="3" transform="translate(.65)"/><path d="m77.8 99.9-1.4.9-2.3 1.35-9.6 5.25-4.55 2.05-9.25 3.5q-8.5 3.1-13.8 4.4l-3.5.7q.65-5.05 2.05-10.7l-11.1 2.2Q12.8 111.8 10.2 111.8h-.25l-.65-.05-.6-.35q.3-2.05 3.05-8.5 2.4-5.8 5.25-11.15Q7 93.6 1.6 93.6H0q3.7-10.15 8-16.65Q15.6 65.6 25.1 65.6l2.75.15q1.75.3 2.85 1.45l2.4 2.5.6.7q1.7-.8 3.3-.8h1.8m14.65 6.55-.3-.05-.65-.1q-5.95 0-11.9 15.25l-1.5 4-.65 2.05q-1.8 5.25-3 10.05M23.7 80.5q-2.45 3.55-5.1 8.25l-.55 1.05L17 91.75m6.7-11.25q5.4-7.95 10-10.1" fill="none" stroke="#4c4e4f" stroke-linecap="square" stroke-linejoin="miter-clip" stroke-miterlimit="3" transform="translate(.65)"/><path d="M69.6 71q.05-5.85 6.45-7.85l1.85-.6 2.5-1.1.1-.05q2-1.35 2-4.1l-.2-1.95q-.3-1.25-1.05-2.05-1.3-1.45-3.45-2.3 3.8.6 6.3 2.5l.25.2.15 2.1q0 2.4-.6 3.8-.5 1.2-1.95 2.9l-.1.1q-2.3 2.45-3.85 3.05-1.4.55-2.25 3.9-.35 1.55-1.45 2.3-.95.6-2.45.6h-.25q-.65-.15-1.5-.95l-.45-.45-.05-.05m17.25-13.95.15.35.3 1.4.1 1.4q0 2.55-2.15 5l-.3.35-.35.3-1.4 1.55q-1.4 1.85-1.4 3.5 0 2.45 2.3 3.7l1.75.7 2.8.3 1.25-.05q1.65-.2 3.05-.95Q94.1 74 95 73q1.55-1.7 2.15-4.1.35-1.45.35-3.1 0-1.7-1.75-6.6Q94 54.25 94 51.8q0-5.35 3.5-7.9 2.05-1.5 4.8-1.8l1.15-.1h.45l2.95.35-1.5.05q-1.7 0-3.1.55-2.8 1-4.55 4.05-.8 1.45-1.25 2.95l-.1.35q-.45 1.6-.45 3.25V54q.2 2.3 2.05 6.5 1.1 2.45 1.6 4.3l.45 2.7-.05 1.65-.05.1-1.05 1.65q-2.25 3.5-3.25 4.2l-1.75.95-1.75.6-1.25.25h-.1l-2.1.25h-.05l-1.6.05h-.65q-2.55-.15-3.95-1.45l-1.05-1.4-2.5 2.7q-1.7 2.05-2.15 3.15-1.4-.45-2.55-1.15 2.2-.15 4.6-5.1l.1-2.7q0-1.6.6-2.5l4.15-5 .3-.4q2.65-3.55 2.95-6.3M90.8 91.8q-3.1-.15-5-1.35l-1.45-1.25Q83 87.6 83 85.1q0-2.15 1.5-3.8 1.1-1.2 2.5-1.55l.95-.15h.25q1.85 0 3 1 1.3 1.15 1.3 3.35 0 1.2-.8 2.05-.8.8-1.8.8-1.3 0-1.3-1.3l.1-1.6q-.1-1.2-.9-1.2l-.15.05-.65.5-.4.6v.05l-.1.55q0 1.6 1.05 2.75l.25.2q1.15 1 2.6 1 4.9 0 8.55-5.85l.35-.55 2-4.2q2.55-6.3 3.2-12.2.8 2.7.8 5.7 0 12.4-8.8 17.9-2.65 1.65-5.25 2.45l-.45.15" fill="#ff0" fill-rule="evenodd" transform="translate(.65)"/><path d="M84.35 53.7q1.75 1.4 2.5 3.35-.3 2.75-2.95 6.3l-.3.4-4.15 5q-.6.9-.6 2.5l-.1 2.7q-2.4 4.95-4.6 5.1l-.55-.35h-.05l-1.05-.85.9-1.75q.95-2.05.95-3.75l-.05-.5q1.1-.75 1.45-2.3.85-3.35 2.25-3.9 1.55-.6 3.85-3.05l.1-.1q1.45-1.7 1.95-2.9.6-1.4.6-3.8l-.15-2.1M76.7 80.2q.45-1.1 2.15-3.15l2.5-2.7 1.05 1.4-1.65 3.5-.55 1.6-1.4-.15h-.05l1.65-4.45v-.05h-.1l-2.65 4.25h-.05l-.9-.25m-7.05-9.15.45.45q.85.8 1.5.95l.05 1.2-.35 1.75-.2.9q-1.5-2.2-1.5-5.2l.05-.05" fill="#ff5a11" fill-rule="evenodd" transform="translate(.65)"/><path d="M82.4 75.75q1.4 1.3 3.95 1.45H87l1.6-.05-.65 2.45-.95.15q-1.4.35-2.5 1.55-1.5 1.65-1.5 3.8 0 2.5 1.35 4.1l1.45 1.25q1.9 1.2 5 1.35l-4.4.6-1.9-.1-.85-.6-.55-1.1q-1.15-2-3.25-4.15l-.35-.35-.7-.65-.05-.5-.05-2.75.05-.65.05-.85 1.4.15.55-1.6 1.65-3.5m8.35 1.15h.1l1.25-.25Q91.55 80 91.05 80q-.45 0-.45-.6 0-1.4.15-2.5m9.25-9.4-.45-2.7.45-.5 2.3-3.65.5.95.4.7-1.45 3-1.45 1.95-.3.25m-4.1-13.65v-.3q0-1.65.45-3.25l.1-.35.8-.6.95-.45 1.5-.3 1.85.1-.25.5q-.7 1.3-.9 2.95l-4.5 1.7m-21.6 18 .05.5q0 1.7-.95 3.75l-.9 1.75-1.4-1.55.2-.9.35-1.75-.05-1.2h.25q1.5 0 2.45-.6m6 4.35.1.05-1.65 4.45-1.1-.25 2.65-4.25m5.6 2.4-2.15 1.3-2 .75-1.55.2 1.55-.2 2-.75 2.15-1.3m18.25-14.1.35 1.1q-.65 5.9-3.2 12.2l-2 4.2-.05-2.8-.3-1.65L98 74.5q1.3.2 2.4-.75 2.3-2.05 3.75-9.25" fill="#ffa200" fill-rule="evenodd" transform="translate(.65)"/><path d="M106.85 42.35q3.2.7 5.35 3.15l-.05.05q-.7-.55-2.65-.55-3.85 0-6.2 1.8-1.05.8-1.75 1.9l-1.85-.1-1.5.3-.95.45-.8.6q.45-1.5 1.25-2.95 1.75-3.05 4.55-4.05 1.4-.55 3.1-.55l1.5-.05M88.6 77.15h.05l2.1-.25q-.15 1.1-.15 2.5 0 .6.45.6.5 0 1.05-3.35l1.75-.6 1.75-.95q1-.7 3.25-4.2l1.05-1.65.05-.1.05-1.65.3-.25 1.45-1.95 1.45-3 .95 2.2q-1.45 7.2-3.75 9.25-1.1.95-2.4.75l.95 3.05.3 1.65.05 2.8-.35.55Q95.3 88.4 90.4 88.4q-1.45 0-2.6-1l-.25-.2q-1.05-1.15-1.05-2.75l.1-.55v-.05l.4-.6.65-.5.15-.05q.8 0 .9 1.2l-.1 1.6q0 1.3 1.3 1.3 1 0 1.8-.8.8-.85.8-2.05 0-2.2-1.3-3.35-1.15-1-3-1h-.25l.65-2.45M99.55 64.8q-.5-1.85-1.6-4.3-1.85-4.2-2.05-6.5v-.15l4.5-1.7-.1 1.65v.15q.05 2.9 2 6.7L100 64.3l-.45.5" fill="#ff4200" fill-rule="evenodd" transform="translate(.65)"/><path d="M69.6 71q.05-5.85 6.45-7.85l1.85-.6 2.5-1.1.1-.05q2-1.35 2-4.1l-.2-1.95q-.3-1.25-1.05-2.05-1.3-1.45-3.45-2.3 3.8.6 6.3 2.5l.25.2q1.75 1.4 2.5 3.35l.15.35.3 1.4.1 1.4q0 2.55-2.15 5l-.3.35-.35.3-1.4 1.55q-1.4 1.85-1.4 3.5 0 2.45 2.3 3.7l1.75.7 2.8.3 1.25-.05q1.65-.2 3.05-.95Q94.1 74 95 73q1.55-1.7 2.15-4.1.35-1.45.35-3.1 0-1.7-1.75-6.6Q94 54.25 94 51.8q0-5.35 3.5-7.9 2.05-1.5 4.8-1.8l1.15-.1h.45l2.95.35q3.2.7 5.35 3.15l.4.5 1 1.45.3.55M74.15 79.05q1.15.7 2.55 1.15l.9.25m-5.1-2.6 1.05.85h.05l.55.35M69.6 71.1V71m1.5 5.3 1.4 1.55m-1.4-1.55q-1.5-2.2-1.5-5.2m9.2 9.6 1.4.15 1.55-.2 2-.75 2.15-1.3m-6.4 7.5-.7-.65-.05-.5-.05-2.75.05-.65m1.1 4.9q2.1 2.15 3.25 4.15l.55 1.1.85.6 1.9.1 4.4-.6M112.6 46l-.45-.45q-.7-.55-2.65-.55-3.85 0-6.2 1.8-1.05.8-1.75 1.9l-.25.5q-.7 1.3-.9 2.95l-.1 1.65v.15q.05 2.9 2 6.7l.5.95.4.7.95 2.2.35 1.1q.8 2.7.8 5.7 0 12.4-8.8 17.9-2.65 1.65-5.25 2.45" fill="none" stroke="#a41f00" stroke-linecap="square" stroke-linejoin="miter-clip" stroke-miterlimit="3" transform="translate(.65)"/><path d="m78.75 81.55.05-.85" fill="none" stroke="#884125" stroke-linecap="square" stroke-linejoin="miter-clip" stroke-miterlimit="3" transform="translate(.65)"/></g><g id="p" fill-rule="evenodd"><path d="M61.2 31.4q10.5-4.5 15.9-10.25l2.95-3.75q3.2-5.05 3.55-11.2V2.8l-.05-.85-.1-1.55q.35-.4.65-.4h.05L86 .85l1 .95.95 1.15 1.1 1.5q2.7 3.95 4.5 8.65.7 1.9 1.45 7.4l.05.45q2.7 1.75 3.95 4.3l.45 1.1q.9 2.7.9 8.6 0 5.6-2.5 9.1l-.05.05-1.35 1.55-3.25 2.45v.3q-.65 5.3-5.1 7.65-2.8 1.5-6.25 1.6l-1.2-1.55 2.05-.25 3.1-1q.45-.15 1-.35 1.75-.45 3.15-2.3 1.35-1.75 1.8-3.8v-.05h-1.7l-1.55-.4-2-.9-1.15-.95 1.15.05 3.3.2q2.3 0 4.25-1.3l1-.8q3.3-2.95 3.3-9.05 0-3.85-.55-6.7-.7-3.4-2.35-4.15l.2 3.8-.2 2.8q-.65 3.9-3.15 7.05l-1.05 1.2q-2.65 2.6-5.7 2.8h-.15q-1.4 5.65-3.2 7.9-1.2 1.5-3.3 2.55l-.9.4-1.3-1.65q2.4-.55 3.9-1.8 3-2.6 2.95-8.25 2.15-.65 3.85-1.65 3-1.9 4.55-5.1l.7-1.65q1.05-3.1 1.05-7.25 0-5.55-2.05-11.45-1.1-3.05-2.6-5.9-1.5-2.8-3.35-5.45l-.1 3.7q-.3 2.95-1.35 5.85l-.75 1.85q-1.35 3.1-3.55 6.1l-1.05 1.3Q73.65 28 66.85 31.7l-5.65-.3M46.5 72.7l-1.75 3.4-.25.35-1.5 2q-2.05 2.15-4.15 2.15l-1.75-.25-1-.25-.6-.25-2.55-1.75q-3.15 2.5-6.65 2.5-3.35 0-7.1-3.05l-2.75-2.6-2.6-3.15-.8-1.25-1.1-2L11 66l-.15-.15-1.6-1.35-3.05-3.1-.15-.15-.15-.2-.65-.75-.1-.1-.75-1-.05-.1Q.65 53.85.1 47.8L0 45.95v-.25l.05-1.2.1-.9 1 .9q1.85 1.55 4.5 2.75l.35.15 1.25.5 3.2 1.05q6.25 1.8 11.9 1.8l5-.2q3-.15 10-4.65l-2.95 3.8q-2.1.95-4.75 1.7-3.9 1.1-6.6 1.1-5.6 0-11.1-1.45-2.3-.6-4.35-1.4l-1.8-.75-4.05-2.15-.7-.35-.65-.2 1.4.9q.5 3.75 2.35 7.45Q5.9 58 8.9 61.4q7.2 8.2 15.7 8.2 3.75 0 6.1-.8l2.1-.9 2.6-1.4 2.3.1 4.5-.55q1.25-.4 2.45-1.2l.6 2.5-1.35 1.1-1.6.95q-1.55.65-4.35.65L37.7 70q-.5 2.5-1.65 4.55l-1.75 2.3 1.35.7q1.35.6 1.8.6 2.95 0 5.3-2.25 1.7-1.55 3.4-4.7l.35 1.5m-13.9-2.65-2.05.95Q28 72 25.9 72q-6.15 0-12.35-4.15l1.45 2.4.65.9.95 1.15q1.6 1.9 2.85 2.7 2.8 1.9 4.15 2.4 1.45.6 3.55.6 3.9 0 6.6-3.8l2.35-4.6-1.3-.3-.65-.05-1.55.8" fill="#2d579b"/><path d="m85.6 6.4.1-3.7q1.85 2.65 3.35 5.45 1.5 2.85 2.6 5.9 2.05 5.9 2.05 11.45 0 4.15-1.05 7.25l.25-1.6.05-2.15q0-4.3-2.2-11.25Q88.5 10.8 85.6 6.4m9.85 24.55.2-2.8-.2-3.8q1.65.75 2.35 4.15.55 2.85.55 6.7 0 6.1-3.3 9.05l-1 .8 2.35-3.9q.6-1.4.6-3.9 0-2.2-.55-4.1-.4-1.35-1-2.2m-5.4 17.4h1.55l.15.05q-.45 2.05-1.8 3.8-1.4 1.85-3.15 2.3-.55.2-1 .35 1.55-1.15 2.4-2.3.9-1.25 1.85-4.2" fill="#55f7ff"/><path d="M84.25 12.25q1.05-2.9 1.35-5.85 2.9 4.4 5.15 11.35 2.2 6.95 2.2 11.25l-.05 2.15-.25 1.6-.7 1.65q-1.55 3.2-4.55 5.1l1.65-3.4q1.35-3.75 1.35-8.25 0-4.3-1.5-8.55-1.7-4.75-4.65-7.05M78 52.85l.9-.4q1.05.8 2.6.8 3.55 0 4.6-3.55.4-1.35.4-2.65l2 .9 1.55.4q-.95 2.95-1.85 4.2-.85 1.15-2.4 2.3l-3.1 1-2.05.25L78 52.85M91.25 39.2 92.3 38q2.5-3.15 3.15-7.05.6.85 1 2.2.55 1.9.55 4.1 0 2.5-.6 3.9l-2.35 3.9q-1.95 1.3-4.25 1.3l-3.3-.2-.1-.55q5.05-.9 5.05-4.8l-.2-1.6" fill="#4e85ef"/><path d="M79.95 20.2q2.2-3 3.55-6.1l.75-1.85q2.95 2.3 4.65 7.05 1.5 4.25 1.5 8.55 0 4.5-1.35 8.25l-1.65 3.4q-1.7 1-3.85 1.65.05 5.65-2.95 8.25-1.5 1.25-3.9 1.8l-4-4.95 5.55-13.9-1.35-.1 2.5-3.45q2.5-4.1 2.5-7.15 0-1.7-.95-1.7l-1 .25M78.9 52.45q2.1-1.05 3.3-2.55 1.8-2.25 3.2-7.9h.15q3.05-.2 5.7-2.8l.2 1.6q0 3.9-5.05 4.8l.1.55-1.15-.05 1.15.95q0 1.3-.4 2.65-1.05 3.55-4.6 3.55-1.55 0-2.6-.8m-34.25 12.4q-1.2.8-2.45 1.2l-4.5.55-2.3-.1-2.6 1.4-2.1.9q-2.35.8-6.1.8-8.5 0-15.7-8.2-3-3.4-4.75-6.85 3.35 4.1 6.65 6.35 5.7 3.9 13.35 3.9 4.15 0 9.1-2.5 3.1-1.55 4.55-2.8l5.95 1.5.9 3.85M16.6 72.3q1.65 1.3 3.8 2.3 3.2 1.5 5.25 1.5 2.55 0 4.9-2.6 1.5-1.65 2.05-3.45l1.55-.8.65.05 1.3.3-2.35 4.6q-2.7 3.8-6.6 3.8-2.1 0-3.55-.6-1.35-.5-4.15-2.4-1.25-.8-2.85-2.7m27.3-3.85 1.35-1.1.9 3.85q-1.7 3.15-3.4 4.7-2.35 2.25-5.3 2.25-.45 0-1.8-.6l-1.35-.7 1.75-2.3q2 1.05 2.9 1.05 2.25 0 3.65-2.8.9-1.8 1.3-4.35" fill="#7bbdf7"/><path d="M66.85 31.7q6.8-3.7 12.05-10.2l1.05-1.3 1-.25q.95 0 .95 1.7 0 3.05-2.5 7.15l-2.5 3.45-10.05-.55M4.15 54.55Q2.3 50.85 1.8 47.1l-1.4-.9.65.2.7.35L5.8 48.9l1.8.75q2.05.8 4.35 1.4 5.5 1.45 11.1 1.45 2.7 0 6.6-1.1 2.65-.75 4.75-1.7l-5.8 7.55 9.2 2.25q-1.45 1.25-4.55 2.8-4.95 2.5-9.1 2.5-7.65 0-13.35-3.9-3.3-2.25-6.65-6.35M16.6 72.3l-.95-1.15-.65-.9-1.45-2.4Q19.75 72 25.9 72q2.1 0 4.65-1l2.05-.95q-.55 1.8-2.05 3.45-2.35 2.6-4.9 2.6-2.05 0-5.25-1.5-2.15-1-3.8-2.3m19.45 2.25Q37.2 72.5 37.7 70l.25.05q2.8 0 4.35-.65l1.6-.95q-.4 2.55-1.3 4.35-1.4 2.8-3.65 2.8-.9 0-2.9-1.05" fill="#fff"/><path d="m81.85 57.65 1.85 2.25-5 .75-1.75.25-1.1.2-13.35 2-5.2 5.25-1 1.05-8.55 8.6-1.25-5.3-.35-1.5-.9-3.85-.6-2.5-.9-3.85-5.95-1.5-9.2-2.25 5.8-7.55 2.95-3.8 3.1-4 2-19.85L59.2 31.3l2 .1 5.65.3 10.05.55 1.35.1-5.55 13.9 4 4.95 1.3 1.65 2.65 3.25 1.2 1.55m-2.9-.45-2.45-3.05-6.1-7.55 4.95-12.4-16.7-.95-1.75-1-12.75-7-.1.95-.05.4-.8 8.05-.8 8-10.35 13.4 13.35 3.3 3.45 14.7L61.6 61.2l18.35-2.8-1-1.2" fill="#90571b"/><path d="m76.5 54.15 2.45 3.05-17.55-7.6-.7-.55-.7-.65q-.75-.65-.75-1.4 0-.8.35-1.1l.6-.55L74.45 34.9 69 46.65l7.5 7.5m-27.55-18.8q2.1-.2 4.55-1.35l1.8-.9 3.15 1.8-2.3 7.3-.3.7-.25.75q-.4.8-1.05.8l-.8-.35-.2-.1-4.6-8.65m3.9 14.55L52.3 51l-5.4 5.9L33 55.7l17.15-6 .7-.3.25-.1 1-.35q.75 0 .75.95m-.45 19.6-.65.3q-.25 0-.25-.75l.2-.85.05-.05.1-.85 3.35-14.7.15-.25.05-.1q.35-.55.7-.55t.85.55l.05.05.35.4 2.85 5.6.25.4.15.2.15.75q0 .45-.6 1.3l-.05.1L53.05 69q-.4.25-.6.45l-.05.05" fill="#fd8622"/><path d="m75.85 61.1 1.1-.2L79.5 64l.3.35 3.8 3.45q3.75 3.1 5.95 4.2l-5.85-.55-3.45-4.2v-.1l-.05.05-2.45-3.25-1.9-2.85" fill="#fffd00"/><path d="m78.95 57.2 1 1.2-18.35 2.8-12.75 12.85-3.45-14.7-13.35-3.3 10.35-13.4.8-8 1.3.3-.2 2-.5 5.25q0 1.45 3.35 1.75l3.35.1h.25l.05-.15v-.15q0-1.05-2.1-5.9l-1.15-2.5h1.4l4.6 8.65.2.1.8.35q.65 0 1.05-.8l.25-.75.3-.7 2.3-7.3-3.15-1.8 1.6-.85 1.75 1 16.7.95-4.95 12.4 6.1 7.55-7.5-7.5 5.45-11.75L60.2 45.35l-.6.55q-.35.3-.35 1.1 0 .75.75 1.4l.7.65.7.55 17.55 7.6m-15.3 1.65 1.3.1q2.9.25 5.65-.1l3.15-.45.65-.1.2-.25V58l.35-.75q0-.75-4.95-2.9-5.35-2.3-8.7-2.3-.25 0-.6.4-.4.4-.5 1.05l-.05.5v.05q0 .55.35 1.1.95 3.1 2.25 3.6l.55.1h.35m7.95-23.5q0-.3-.6-.3l-2.65.2-5.4.15H61.2l-1.1 2.85q-.35 1.4-.35 3.1 0 1.45.35 1.45 1.5 0 5.75-3.2l3.7-2.8 2.05-1.45M53.05 69l7.05-7.95.05-.1q.6-.85.6-1.3l-.15-.75-.15-.2-.25-.4-2.85-5.6-.35-.4-.05-.05q-.5-.55-.85-.55t-.7.55l-.05.1-.15.25-3.35 14.7-.1.85-.05.05-.2.85q0 .75.25.75l.65-.3.65-.5m-.2-19.1q0-.95-.75-.95l-1 .35-.25.1-.7.3-17.15 6 13.9 1.2 5.4-5.9.55-1.1m.6 5.85q0-.4-.15-.25l-4.85 2.65-.6.6q-.5.65-.5 1.45l.5 3.35q.6 3.3 1.25 3.3.4 0 1.05-1.75l1.15-3.25 2.15-6.1m-18.65-1.7 8.3-4.45q3.95-2.1 3.95-2.7 0-.45-2.65-1.2l-2.65-.65-4.4 5.25-2.8 3.75h.25" fill="#ffe334"/><path d="m60.15 54 .05-.5q.1-.65.5-1.05.35-.4.6-.4 3.35 0 8.7 2.3 4.95 2.15 4.95 2.9l-.35.75v.05l-.2.25-.65.1-3.15.45q-2.75.35-5.65.1l-1.3-.1-.9-.1q-1.3-.5-2.25-3.6L60.15 54M71.6 35.35l-2.05 1.45-3.7 2.8q-4.25 3.2-5.75 3.2-.35 0-.35-1.45 0-1.7.35-3.1l1.1-2.85h1.75l5.4-.15 2.65-.2q.6 0 .6.3m-18.15 20.4-2.15 6.1-1.15 3.25q-.65 1.75-1.05 1.75-.65 0-1.25-3.3l-.5-3.35q0-.8.5-1.45l.6-.6 4.85-2.65q.15-.15.15.25m-5.9-20.4 1.15 2.5q2.1 4.85 2.1 5.9v.15l-.05.15h-.25l-3.35-.1q-3.35-.3-3.35-1.75l.5-5.25.2-2 3.05.4M34.8 54.05h-.25l2.8-3.75 4.4-5.25 2.65.65q2.65.75 2.65 1.2 0 .6-3.95 2.7l-8.3 4.45" fill="#ecff83"/><path d="m80.2 67.2.05.05 3.45 4.2-.85-.05-11.5-1.1q1.05-.65 3.1-1.4l5.75-1.7" fill="#ff2d00"/><path d="m77.75 63.95 2.45 3.25-5.75 1.7q-2.05.75-3.1 1.4l-1.55-.2-.2-.05q-1.4 2.65-2.7 7.05l-1.25 5-.5-4.2q-.55-5.65-.6-10.1 4.85-2.85 10.15-3.6l3.05-.25" fill="#c80a0c"/><path d="m78.7 60.65 5.1 5q4.6 4.25 9.4 7.95l-3.8.1-3.7-.05-8.05-.65-7.5-1.15q-1.05 2.1-2.3 7.9-.8 3.5-1.2 6.7l-.3 3.35q-2.9-3.15-5.7-8.9-2.85-5.85-4.35-11.5l1-1.05q1.6 6.05 4.45 11.55l3.3 5.8.6-3.6 1.25-5q1.3-4.4 2.7-7.05l.2.05 1.55.2 11.5 1.1.85.05 5.85.55q-2.2-1.1-5.95-4.2l-3.8-3.45-.3-.35-2.55-3.1 1.75-.25" fill="#884125"/><path d="m77.75 63.95-3.05.25q-5.3.75-10.15 3.6.05 4.45.6 10.1l.5 4.2-.6 3.6-3.3-5.8q-2.85-5.5-4.45-11.55l5.2-5.25 13.35-2 1.9 2.85" fill="#9a1925"/><path d="m43.2 34.65.8-8.05.4.25-.35-.65.1-.95 12.75 7-1.6.85-10.9-6.25 4.55 8.5h-1.4Q46 32.3 44.9 31.5l-.4 3.45-1.3-.3" fill="#ffd624"/><path d="m55.3 33.1-1.8.9q-2.45 1.15-4.55 1.35l-4.55-8.5 10.9 6.25" fill="#fc6817"/><path d="m47.55 35.35-3.05-.4.4-3.45q1.1.8 2.65 3.85" fill="#e3ff65"/></g><use ffdec:characterId="2" height="58.4" width="54.1" xlink:href="#j" id="b"/><use ffdec:characterId="5" height="74" width="92.15" xlink:href="#k" id="d"/><use ffdec:characterId="7" height="95.2" width="89.4" xlink:href="#l" id="e"/><use ffdec:characterId="9" height="83.05" width="100.95" xlink:href="#m" id="f"/><use ffdec:characterId="11" height="201.75" width="220.6" xlink:href="#n" id="g"/><use ffdec:characterId="17" height="118.7" width="115.2" xlink:href="#o" id="h"/><use ffdec:characterId="19" height="89.8" width="100.35" xlink:href="#p" id="i"/><path d="M27.75 0q0 2-8.15 3.4Q11.5 4.9 0 4.9q-11.5 0-19.65-1.5-8.1-1.4-8.1-3.4 0-2.05 8.1-3.5Q-11.5-4.9 0-4.9q11.5 0 19.6 1.4 8.15 1.45 8.15 3.5" fill-opacity=".349" fill-rule="evenodd" transform="translate(27.75 4.9)" id="a"/></defs></svg>