<svg xmlns:ffdec="https://www.free-decompiler.com/flash" xmlns:xlink="http://www.w3.org/1999/xlink" ffdec:objectType="frame" height="90" width="90" xmlns="http://www.w3.org/2000/svg"><use ffdec:characterId="1" height="7.3" transform="matrix(.9069 0 0 1.7085 13.857 71.328)" width="70.2" xlink:href="#a"/><use ffdec:characterId="3" height="21.75" transform="translate(17.65 10.45) scale(1.081)" width="15" xlink:href="#b"/><use ffdec:characterId="5" height="16.45" transform="translate(17.8 62.8) scale(1.081)" width="61.9" xlink:href="#c"/><use ffdec:characterId="7" height="9.35" transform="translate(12.75 57.35) scale(1.081)" width="10.05" xlink:href="#d"/><use ffdec:characterId="9" height="61.65" transform="translate(12.15 10.145) scale(1.081)" width="60" xlink:href="#e"/><use ffdec:characterId="11" height="7.85" transform="translate(63.576 58.6) scale(1.081)" width="10.3" xlink:href="#f"/><use ffdec:characterId="17" height="14.6" transform="translate(20.976 53.605) scale(1.081)" width="32.4" xlink:href="#g"/><use ffdec:characterId="19" height="3.8" transform="translate(49.7 68.55) scale(1.081)" width="10" xlink:href="#h"/><use ffdec:characterId="21" height="3.1" transform="translate(19.05 67.6) scale(1.081)" width="7" xlink:href="#i"/><use ffdec:characterId="23" height="7.05" transform="translate(32.75 65.85) scale(1.081)" width="9.45" xlink:href="#j"/><use ffdec:characterId="25" height="24.1" transform="translate(70.3 24.75) scale(1.081)" width="15.9" xlink:href="#k"/><use ffdec:characterId="32" height="9.65" transform="translate(79.693 16.828) scale(1.081)" width="7.3" xlink:href="#l"/><use ffdec:characterId="34" height="21.55" transform="translate(3.8 21.45) scale(1.081)" width="12.95" xlink:href="#m"/><use ffdec:characterId="32" height="9.65" transform="matrix(.7241 -.4181 .4181 .7241 16.216 6.157)" width="7.3" xlink:href="#l"/><use ffdec:characterId="32" height="9.65" transform="matrix(-.9906 .1399 .1399 .9906 10.084 13.166)" width="7.3" xlink:href="#l"/><defs><use ffdec:characterId="2" height="21.75" width="15" xlink:href="#n" id="b"/><use ffdec:characterId="4" height="16.45" width="61.9" xlink:href="#o" id="c"/><use ffdec:characterId="6" height="9.35" width="10.05" xlink:href="#p" id="d"/><use ffdec:characterId="8" height="61.65" width="60" xlink:href="#q" id="e"/><use ffdec:characterId="10" height="7.85" width="10.3" xlink:href="#r" id="f"/><use ffdec:characterId="12" height="14.6" width="32.4" xlink:href="#s" id="g"/><use ffdec:characterId="18" height="3.8" width="10" xlink:href="#t" id="h"/><use ffdec:characterId="20" height="3.1" width="7" xlink:href="#u" id="i"/><use ffdec:characterId="22" height="7.05" width="9.45" xlink:href="#v" id="j"/><use ffdec:characterId="24" height="24.1" width="15.9" xlink:href="#w" id="k"/><use ffdec:characterId="26" height="8.15" transform="translate(.7 1.5)" width="6.6" xlink:href="#x" id="l"/><use ffdec:characterId="33" height="21.55" width="12.95" xlink:href="#y" id="m"/><g id="n" fill-rule="evenodd"><path d="M6.8 1.5q1.8.5 2 2.05-.45.25 0 .8l.1.9-.9.2-.15-1.6Q6.4 9.6 3.8 7q.15 3.9-1.75 2.3-.5-.55-.7-1.25 1.2.95 1.8-2.25 1 2.65 2.7.2.85-1.65-.65-3l.25-.5-.5.5-.4-.95.65-.15 1.6-.4" fill="#c8e0e5"/><path d="M6.8 1.5q1.55-.05 2.15 1.6.55 1.65-.05 2.15l-.1-.9q-.45-.55 0-.8Q8.6 2 6.8 1.5" fill="#fff99d"/><path d="M8.9 5.25q.6-.5.05-2.15-.6-1.65-2.15-1.6l-1.6.4-.65.15-.25-.85L6.15.8Q10.4.25 9.7 5.2l-.6.55-.35.1-.85-.25Q6.1 9.45 4 7.6v.95l-.1.5-.5.95-.5.15-.7-.1Q-1 9.1.5 4.3q.9-2 3.15-2.85l.05.9q-1.3.6-2.2 1.7-.7 2.4-.15 4 .2.7.7 1.25Q3.95 10.9 3.8 7q2.6 2.6 4.05-3.15L8 5.45l.9-.2m-4.75-1.7.8-.55.5-.5-.25.5q-1 1.45-1.9.8l.85-.25" fill="#6997a0"/><path d="m3.7 2.35-.05-.9.2-1.45h.3l.15 1.2.25.85.4.95-.8.55-.45-1.2" fill="#584031"/><path d="M1.35 8.05q-.55-1.6.15-4 .9-1.1 2.2-1.7l.45 1.2-.85.25q.9.65 1.9-.8 1.5 1.35.65 3-1.7 2.45-2.7-.2-.6 3.2-1.8 2.25" fill="#fff"/><path d="m2.9 10.15.5-.15.8.05 1.7-.15.55-.15.9 2.85-.45.1-1.5.15-2-.3-.5-2.4M4 8.25V7.6q2.1 1.85 3.9-2l.85.25.15.5Q7.6 7.65 6.25 8.1L4 8.25" fill="#aafff0"/><path d="m2.2 10.05.7.1.5 2.4.7 2.05q1.55 3.7 4.85 6.5 3.6.4 5.2-3.15l.05-.15q-3.35-5.4-5.1-12.05l.6-.55q2.2 6.9 5.3 12.5-1.55 4.75-6.25 3.95-4.6-3.6-6.15-9.65l-.4-1.95" fill="#413a7f"/><path d="m3.9 9.05.1-.5h1.55L5.9 9.9l-1.7.15-.3-1m3 3.65.8 1.8-1.55.2-.75-1.85 1.5-.15" fill="#5ed3ee"/><path d="m3.4 10 .5-.95.3 1-.8-.05M4 8.55v-.3l2.25-.15.45 1.6-.25.05-.55.15-.35-1.35H4m3.35 4.05q1.6-.4 3.25-1.5l.75 1.7q-1.7 1.3-3.65 1.7l-.8-1.8.45-.1m-1.95.25.75 1.85-2.05-.1-.7-2.05 2 .3" fill="#4e8fe7"/><path d="m8.75 5.85.35-.1q1.75 6.65 5.1 12.05l-.05.15q-1.55-2.5-2.8-5.15l-.75-1.7-1.1-2.85-.6-1.9-.15-.5" fill="#fff2af"/><path d="M9.5 8.25q-1.35 1-2.8 1.45l-.45-1.6Q7.6 7.65 8.9 6.35l.6 1.9" fill="#4f51b9"/><path d="M6.7 9.7q1.45-.45 2.8-1.45l1.1 2.85q-1.65 1.1-3.25 1.5l-.9-2.85.25-.05m4.65 3.1q1.25 2.65 2.8 5.15-1.6 3.55-5.2 3.15-3.3-2.8-4.85-6.5l2.05.1 1.55-.2q1.95-.4 3.65-1.7" fill="#95ecff"/></g><g id="o" fill-rule="evenodd"><path d="m7 3.25.3-.15 1-.25q.8 4.1.3 7.6l-1.35-.1Q7.55 7 7 3.25m46.7-.35 1.15.4q.55.95-.45 1.75Q54 6.9 59.7 6.8q-1.85.95-4.6 1.8h-.05l-4.3.75q2.9.75-2.85 1.75l-.15-5.35L49 5.7l.05 1.45 1.9-.1-.1-1.5.65-.1q3.65-.7 2.2-2.55M22.9 13.8h-.85v-.45q1.6-3.4 1.75-8.45l1.45 8-2.35.9m-20-8.2 2.3-1.4q-.55 3.4.55 5.8-.75-.3-.7-.75L2.9 5.6m32.95 6.9-.35.2q-2.55 1.2-2.6.5l2-.95.95.25m10.4-2.25.05 1.1-.9.15v-.6l.85-.65" fill="#4a1400"/><path d="m8.3 2.85-1 .25-.3.15-1.8.95-2.3 1.4-.1.05Q-.75 8.25 2 9.6l2.7.75 2.25.2.25.1q1 .35 1.2.85l.05.1q.1.45-.5 1-1.85 1.2 4 1.25l3.5-.05h7.45q3.35.2 5.55 1.5l1.1.25q3.3.6 5.5-1.45.7-.5 1.55-.75l1.35-.15 1.1-.05q2.6-.15 3.8-1.45l.55.05 5.3-.55q5.9-1.4 2.05-1.85l4.3-.75h.05q3.9-.85 5.75-2.05-7.55.15-5.75-1.9.65-.85-.25-1.35l-1.15-.4-1.7-.3-1.5-.05-3.5-.3q-5.95-1.2-12-1.6Q21.8-.2 8.3 2.85m-.6 8.9-1.3-.55q-2.35.2-5.2-1-4.05-3.5 5.7-7.65Q21.25-.5 34.75.1l12.5 1.4q10.85.15 8.35 3.8 2.95 1.15 6.3.7-.55 2.4-9 3.5.8 2.6-9.6 2.85-1.45 1.55-5.15 1.55-2 .05-2.6.9-3.7 2.7-8.15 1-3.35-1.55-7.1-1.3l-9.35.25q-6.3-.55-3.25-3" fill="#2a0c00"/><path d="m7.25 10.35 1.35.1-.2 1.05q-.2-.5-1.2-.85l-.25-.1-2.25-.2q-1.05-.45-.8-1.1-.6-1.55-2-1.4-1.7-.05.9-2.2l.1-.05 2.15 3.65q-.05.45.7.75l1.5.35M52 2.6l1.7.3q1.45 1.85-2.2 2.55l-.65.1-.1-.95-.1-1.6L52 2.6M39.05 13.15l-1.1.05-1.35.15q-1.4.15-2.45 1.15l-1.55.2-1.5-.65 1.8-.85q.05.7 2.6-.5l.35-.2.8.2q2.15.35 3.45-.35l1-.75h.1l.25-.05.1-.25-.1-.2.2-.4q1.05-.35 1.2.5-1.35 1.35-3.8 1.95m2.25-3.05.2-.05.15.05.1.2-.1.15-.15.1-.2-.1-.05-.15.05-.2m-16.05 2.8.2.9H22.9l2.35-.9m23.7-7.75.05.55-1.25.05q.75-.2 1.2-.6" fill="#6c1e00"/><path d="M4.7 10.35 2 9.6q-2.75-1.35.8-3.95-2.6 2.15-.9 2.2 1.4-.15 2 1.4-.25.65.8 1.1" fill="#9b5242"/><path d="M8.6 10.45q.5-3.5-.3-7.6Q21.8-.2 35 .65 37.85 7 37.35 10.1q-.3 1.7-1.5 2.4l-.95-.25-2 .95.2-.6-7.85.3-1.45-8q-.15 5.05-1.75 8.45-.25-2.8-3.4-1.25-3.8.55-3.05 1.7h-.15l-3.5.05-.85-.4q1.8.3 2.25-.65.25-1.75-3.55-1.4l-.7-.9-.5-.05" fill="#842100"/><path d="m8.45 11.6-.05-.1.2-1.05.5.05.7.9q3.8-.35 3.55 1.4-.45.95-2.25.65l-.25-.1q-.55-1.55-1.95-.5-.6.6-.45-.2.3-.55 0-1.05m2.55.9.1.3.3.1.25-.1.1-.3-.1-.25-.25-.1-.3.1-.1.25" fill="#c53100"/><path d="M7 3.25q.55 3.75.25 7.1L5.75 10q-1.1-2.4-.55-5.8L7 3.25M49 5.7l1.85-.15.1 1.5-1.9.1L49 5.7" fill="#6e1c00"/><path d="M11.95 13.85q-5.85-.05-4-1.25.6-.55.5-1 .3.5 0 1.05-.15.8.45.2 1.4-1.05 1.95.5l.25.1.85.4" fill="#ac5d44"/><path d="m11 12.5.1-.25.3-.1.25.1.1.25-.1.3-.25.1-.3-.1-.1-.3" fill="#df7e4c"/><path d="M22.05 13.8h-.7q.5-.8-.3-1.1-1.25.85-2.65.8l-2.8.3q-.75-1.15 3.05-1.7 3.15-1.55 3.4 1.25v.45" fill="#c83200"/><path d="M21.35 13.8H15.6l2.8-.3q1.4.05 2.65-.8.8.3.3 1.1" fill="#cf7349"/><path d="m41.3 10.1-.05.2.05.15.2.1.15-.1.1-.15-.1-.2-.15-.05-.2.05m-.2 1.5-1 .75q.85-1.5-1.15-.55-2.55.25-2.3.9l-.8-.2q1.2-.7 1.5-2.4 7.5-2 8.8-.6l-.85-.05.1 1.45-2.55.55v-.25q-.15-.85-1.2-.5l-.2.4-.25-.1-.2.1-.1.2.1.25.1.05" fill="#d43400"/><path d="m41.45 11.1.1.2-.1.25-.25.05h-.1l-.1-.05-.1-.25.1-.2.2-.1.25.1" fill="#f68c4f"/><path d="M35 .65q6.05.4 12 1.6l3.5.3 1.5.05-1.35.4-.95.25-.05.65q-.1.75-.7 1.25-.45.4-1.2.6l.15 5.35-1.6.25-.05-1.1q.15-.35-.1-.75-1.3-1.4-8.8.6Q37.85 7 35 .65" fill="#781e00"/><path d="m29.55 15.55-1.1-.25q-2.2-1.3-5.55-1.5h2.55l5.65.25 1.5.65 1.55-.2-.2.2q-2 1.05-4.4.85" fill="#c46c48"/><path d="m32.9 13.2-1.8.85-5.65-.25-.2-.9 7.85-.3-.2.6" fill="#d23400"/><path d="M40.1 12.35q-1.3.7-3.45.35-.25-.65 2.3-.9 2-.95 1.15.55" fill="#d4764a"/><path d="M54.85 3.3q.9.5.25 1.35-1.8 2.05 5.75 1.9Q59 7.75 55.1 8.6q2.75-.85 4.6-1.8-5.7.1-5.3-1.75 1-.8.45-1.75m-4.1 6.05q3.85.45-2.05 1.85l-5.3.55 2-.25.9-.15 1.6-.25q5.75-1 2.85-1.75m-7.9 2.35q-1.2 1.3-3.8 1.45 2.45-.6 3.8-1.95v.5m-6.25 1.65q-.85.25-1.55.75-2.2 2.05-5.5 1.45 2.4.2 4.4-.85l.2-.2q1.05-1 2.45-1.15" fill="#aafff0"/><path d="m49 5.7-.05-.55q.6-.5.7-1.25l1.1.7.1.95L49 5.7" fill="#ad2c00"/><path d="m50.75 4.6-1.1-.7.05-.65.95-.25.1 1.6" fill="#752000"/><path d="m43.4 11.75-.55-.05v-.25l2.55-.55v.6l-2 .25" fill="#701c00"/><path d="m45.4 10.9-.1-1.45.85.05q.25.4.1.75l-.85.65" fill="#872400"/></g><g id="p" fill-rule="evenodd"><path d="m9.5 8.3-.35.9q-7.6.65-9.1-1.95Q-.5 3.25 6.6 0l.95.65q-2.7 1.1-4.3 2.3Q.55 4.9.75 7l.3.2.15.15q2.95 2.05 8.3.95" fill="#584031"/><path d="M7.55.65Q10.7 3.1 9.85 7.1l-8.65.25-.15-.15Q5 5.95 3.25 2.95q1.6-1.2 4.3-2.3" fill="#ebb360"/><path d="M1.05 7.2.75 7q-.2-2.1 2.5-4.05 1.75 3-2.2 4.25" fill="#fde49e"/><path d="M9.85 7.1 9.5 8.3q-5.35 1.1-8.3-.95l8.65-.25" fill="#9affef"/></g><g id="q" fill-rule="evenodd"><path d="m47.7 10.75.65.25.6.95q1.85.65 2.6 2.35-.8 1.45.65 1.85.3 3.1-2.5 4.05h-1.95v-1.1q2.7 0 2.4-2 .05-.9-1.2-1.55.05-.6-.65-.85l.4.05-1.4-.35h-.05q.45-4.4-2.95-6.45l-.65-.35-.65-.3-.35-.15v.05q-2.95 1.35-4.15 3.05l-.45.75q-.95 2 .5 4.5-.8.15-1.55.65.3-1.45-.7-2.5 1.6-1.7-.45-2.05-1.35.45-.95 1.4-1.45.05-2.4 1.1l-.6.15-1.75-.55q.6-1.05.45-2.25l-.05-.2-.05-.2V11l-.6-2.55V8.4q1.5-.75 1.45-3.1l-.2-1.55-.05-.35.3-.05 1.7.3 4.9 1.1.95.2-1.35-.4q-4.1-1.2-4.05-1.35L38 4.3l1.05.3.55.15q2.15.6 3.6 1.4l1.7 1.2.05.05q2.3 1.1 2.75 3.35m2.65 3.95.1.15.15.1.2-.1.05-.15-.05-.2-.2-.05-.15.05-.1.2m-15.4-6.6q-.85 0-1.45.35t-.6.85q0 .55.6.9t1.45.35l.65-.05.3.45.8.25.8-.25.35-.5-.35-.55q-.2-.15-.5-.15l.1-.45q0-.5-.65-.85-.6-.35-1.5-.35m-2.05 3.5-.45.2-.2.5.2.45.45.2q.25 0 .45-.2l.2-.45-.2-.5-.45-.2" fill="#cf5e7a" transform="translate(0 3.15)"/><path d="M47.7 10.75h.55q-.45-2.3-3.35-3.4l-1.7-1.2q-1.45-.8-3.6-1.4l-.55-.15L38 4.3l-4.45-1.1-.45-.05L31.4 3l-.4-.05-.2-.55h.6l1.7.1q2.45.3 4.75 1.4l1.75.35q2 .4 3.6 1.15 1.2.55 2.2 1.3l.25.35-.05-.2q2.5 1.2 3.35 3.55 6.65 3.55 3.15 9.6 1.25.3 2.2 2.15 4.95.35 5.65 9.9.45 8-4.45 10.5l-.35.05-.7-.15-.25-.15-.3-.3q-1 1.05-1.8.85-.6-.15-1-1.05l-.1-.45q-1.35-7-4.2-2.8-.7 1.35-1.25 2.8L45 43.2q-.8 2.25-1.7 2-.55-.2-1.15-1.4-.8-3.55-2.5-4.15l-2.3-1.8.2.05-1.05-.95-.1-.1q-3.35-1.95-6.65-.25-1.95 2.05-4.3 2.6l-2.4.55q-5.1.6-5.9-4.5-1.65-3.3-3.4-1.55-2.2 1.45-4.3.75-2.6-.35-3.15 6.05l-.25 1.8q-.25.9-.8 1.25l-.1.05h-.2Q2.7 43.55 2.7 39q-3.9-.95-1.85-9.4-3.45-9.4 6.8-11.4 1.6-1.5 3.65-1.2l-.1.8-.35-.05q-1.35 0-2.6.8l-.3.2.55.3-1.65.2Q-1.5 20.7 1.65 29.6l-.35 1.35L1 32.4l-.15.85Q.5 36.3 1.7 37.5q.55.6 1.5.75l.45-1.05q-.6 3.35.6 5.35l.05.1q1.05 1.65 1.55-1.3.3-6.4 2.8-7.05l.5-.1 3.05-.05 1.55-.8q1.5-1.35 2.95.6l.65 1.1.1.35v.05q1.45 5.55 8 3.45 2.25-.65 4.45-2.7 2.9-1.3 5.8 0l1.35.8h-.1l.1.05 1.3 1.15.1.05.35.4.5.3q1.65 1.05 2.4 2.4l.55 1.85.45 1.1q1.45 2.35 3.1-4.25.8-2.6 2.3-3.1l1.15-.1q.85.5 1.55 2.2.55 1.3.95 3.35l.15.15q1.15.85 2.05-1.5v.75q1.1.55 2.35-.35 3.4-3.85 2.9-9.15-.35-8.55-5.1-9.65v.85q-.75-2.1-2.6-3v-.3l-.3.1-.55.1-.9.1-2.15-.15q-.85 1.75-2.65 1.45-3.1 6.15-3.75-.4l-5.45-.2-2.75.6-1.65-.15q-1-.3-1.75-1.05-.9-1.65-2.25-1.8-3 2.85-4.8.8-.55-.6-1-1.6l-.35-.95-.75-1.1-.8-.5Q18 15 15.9 20l-.6.5q-1.7 1.25-1.25-3.15l.05-.8q.3-3.15-.5-3.35l-.65-.65-.2-.25q-.65-.95-.65-2.45.55-5.15 5.9-6.6 1.85-1.25 4.65-1.1h.25l-.25.55-.1.2-2.9.25-1.1.4 1.55.55q-3.8-.7-6 2.2l-.9 1.45q-1.55 2.9.45 5.1 1.45.35.55 6.1l.05.8q.25 1.55 1.65-.35 2.6-6.6 5.15-3.15l.4.65q.65 1.8 1.55 2.6 1.65 1.45 4-.75h-.45q.9-.55 2.45.55l.1.1 1.1 1.3q1.55 1.2 4 .55 3.65-1.4 7.15-.4.2 2.4.65 3.2l.65.4q.9-.2 2.4-3.85v.95q2.05.25 2.65-2.45h.05v1.1h1.95q2.9-.4 2.95-3.4.35-3.75-4.3-5.8l-.65-.25m-.7 3.7h.25v-.05h.05l1.4.35-.4-.05q-1.4-.2-2.7.35-1.1.4-2.2 1.35l.15.65q-.9-.75-1.9-1.15-2.25-.8-4.8.35l.15-.1q.75-.5 1.55-.65l.35-.05q1.95-.35 4.25.8l.05-.05 1.55-1.1q.7-.4 1.35-.55l.9-.1m3.9 12.4q3.55-1.65 5.15 1.9-1.65-2.35-3.65-2.1-.7.1-1.45.5l-.05-.3m-.2.7.2.05.6.15q1.35.45 1.85 1.4-4.7-3.5-9.45 1.45 0-4.15-4.05-3.25-2-3.05-5.3-3.5l-.6-.1q-5.45.2-6.4 3.6l.35-1.45q-1.25-1-2.4-1.5-3.9-1.65-7.4 2.05 1.15.85 1.5 1.85-1.35-1.7-3-2.05l-2.8.3-.3 1.6V28q.2-2.75-1.45-5.15-2.75-2.9-6.3-1.55 1.4-.8 2.75-.75 1.45.05 2.8 1.15l.3.25.45.45q1.45 1.8 1.7 4.05 1.25-.6 2.5-.5l1.55.35.7-.65q2.7-2.35 5.55-1.9 1.95.3 4 1.95l1.45-1.1q3-1.85 5.9-.9 2.3.75 4.55 3.35 3.75-1.05 4.2 2.75 2.6-2.75 6.3-2.3l.25.05M30.15 13.7l1.75.55q-2.9-1-4.7 1.15V15q-.75.15-1.3-.3v.3q-1.55-3.4-4.95-3.45l-.9.05-.5.1 1.3-.35v.05l.3-.05h.5l.6.1q1.15.2 2.1 1.1l1.45 1.85.05.1q.7.5 1.4.3 1.2-.95 2.45-1.05h.4l.05-.05M23.9 6.4l-.2.1-.1.05v.05-.05l-.65-1.3-.3-.35-.9-.65.45.05.3.1.15.1.3.25.95 1.65" fill="#8e264e" transform="translate(0 3.15)"/><path d="M44.9 7.35q2.9 1.1 3.35 3.4h-.55q-.45-2.25-2.75-3.35l-.05-.05M48.35 11q4.65 2.05 4.3 5.8-.05 3-2.95 3.4 2.8-.95 2.5-4.05-1.45-.4-.65-1.85-.75-1.7-2.6-2.35l-.6-.95m2 3.7.1-.2.15-.05.2.05.05.2-.05.15-.2.1-.15-.1-.1-.15" fill="#ffb8ad" transform="translate(0 3.15)"/><path d="M48.3 14.7q.7.25.65.85 1.25.65 1.2 1.55l-.65 1.2q-1.55.95-1.85-1l-1.2.75-1.4-.2q-1.2-1.6.55-2.8 1.3-.55 2.7-.35" fill="#ffb4c1" transform="translate(0 3.15)"/><path d="M50.15 17.1q.3 2-2.4 2v-.15q-.5-.75-1.3-.9l1.2-.75q.3 1.95 1.85 1l.65-1.2" fill="#ef79b0" transform="translate(0 3.15)"/><path d="m30.2 20.7-1.1-1.3-.1-.1q-.8-1.8-2.85-2.3.55 3-3.15 2.5-.9-.8-1.55-2.6l-.4-.65q-.2-.95-1.1-1.5-2.1-1.35-3.6 2.1-1.45 4.25-2.1 2.9l-.05-.8q.9-5.75-.55-6.1-2-2.2-.45-5.1l.9-1.45q3.05-2.9 6.05-1.6 1.5.85 1.8 2.95l-.05.05-.45.6q-.7.95-.7 2.1l-1.2 1.3.5-.1q2-.1 2.3 1.4l.05.25-1.15.6v.55l.4.25.65-.25-.65.7q-.1 2.45 1.7 3 3 0 2.55-3.1v-.3q.55.45 1.3.3v.4q1.8-2.15 4.7-1.15l.6-.15q3.85-.95 4.35 2.15 2.55-1.15 4.8-.35 2.45 1.8.3 3.25-1.55 1-3.1.2l-1.15-.05.05-.4-.15-.7q-.2-.25-.4-.25-.25 0-.4.25-.15.3-.15.7l.1.5-2.25.8q-2.15 1.25-4.3.5m11.3-4.45-.15.3.15.25.25.1.25-.1.1-.25-.1-.3-.25-.1-.25.1m-9.75-.9-.7-.5q-3.3-.25-2.55 2.5 1.8 3.5 4.45.9 1 .65 1.75-.35.7-1.2-.4-1.5l-.25-.05-.05-.65-1.7-.7q-.5.1-.55.35m.7 4.95.15-.35-.15-.35q-.15-.15-.35-.15-.2 0-.3.15l-.15.35.15.35.3.15.35-.15m-18.4-9.95.2.45 1.2 1.15q1 .35 0 2.35-1.15 2.2-.5 3 1.4 0 1.45-3-.3-1.8 1.1-2.8l.35-.2.1-.05.05-.05q1.65-1.1.5-3.75-.55-1.2-2-.9-2.75.9-2.65 2.85l-.55.65q-.1.65.55.55l.2-.25m5.4-2.85q.5.25.4-.45l-1.4-1.15q-.6-.15-.45.55l1.45 1.05" fill="#ffc8bc" transform="translate(0 3.15)"/><path d="m41.5 16.25.25-.1.25.1.1.3-.1.25-.25.1-.25-.1-.15-.25.15-.3" fill="#fff240" transform="translate(0 3.15)"/><path d="m42.65 24.45-.65-.4q1.85-1.1 1.45-3.6-.95-1.2-2.1.4-3.5-1-7.15.4-2.45.65-4-.55 2.15.75 4.3-.5l2.25-.8.05.15.4.25.4-.25.1-.25 1.15.05q1.55.8 3.1-.2 2.15-1.45-.3-3.25 1 .4 1.9 1.15l-.15-.65q1.1-.95 2.2-1.35-1.75 1.2-.55 2.8l1.4.2q.85 1.35-.25 2.45-.75.8-.95-.6-.6-1.1-1.65-1.3-.7 0 0 .8 1.3 3.1-.95 5.05" fill="#ef83ae" transform="translate(0 3.15)"/><path d="M47.7 19.1q-.6 2.7-2.65 2.45v-.95q-1.5 3.65-2.4 3.85 2.25-1.95.95-5.05-.7-.8 0-.8 1.05.2 1.65 1.3.2 1.4.95.6 1.1-1.1.25-2.45.8.15 1.3.9l-.05.15" fill="#cb527e" transform="translate(0 3.15)"/><path d="M42 24.05q-.45-.8-.65-3.2 1.15-1.6 2.1-.4.4 2.5-1.45 3.6" fill="#ffb8c0" transform="translate(0 3.15)"/><path d="M15.9 20q2.1-5 3.75-4.55l.8.5q-1.5-.75-4.55 4.05M33 21.8l2.75-.6 5.45.2q.65 6.55 3.75.4 1.8.3 2.65-1.45l2.15.15-1.9.8-.9 1.1q-.5.5-1.15.75-2.35 2.25.2 3.05 1.45.25 2.5-.4 1.35-.75 2.15-2.85-.2 2.15-1.15 4.1l.35-.25.3-.4q.55.5.3 1.1-3.7-.45-6.3 2.3-.45-3.8-4.2-2.75-2.25-2.6-4.55-3.35 1.7.05 3.25 1.1 2.25-2.9-.25-3.25l-5.4.25m-9.95 17.95 2.4-.55q2.35-.55 4.3-2.6 3.3-1.7 6.65.25l.1.1 1.05.95-.2-.05 2.3 1.8q1.7.6 2.5 4.15.6 1.2 1.15 1.4-1.9 9.05-7.7 12.35l-6.75.7-6.85-.4Q38.75 59 40.6 45.55q-1-4.8-4.75-5.6-1.7-.85-4.15-.65l4.5.1-.35-.35q-2.25-2-5.85-.45-4.2 2.25-6.95 1.15m-6.8-13.8q-1.25-.1-2.5.5-.25-2.25-1.7-4.05l-.45-.45-.2-1.75q1.2 3 2.85 5.05 1.3 0 2 .7m7.1 23.4q-2.45.85-3.65-.25 2.35 1 3.2-1.05l.25 1.05.2.25m4.5.9-.15-.35q.65-.45 1-1.3-1.3 1.7-3.5 1.25 2.1.1 3.2-1.7.55.05.6.6l-.05.15q-.25.9-1.1 1.35" fill="#edba63" transform="translate(0 3.15)"/><path d="M48.5 25.8q-1.05.65-2.5.4-2.55-.8-.2-3.05.65-.25 1.15-.75-.95 3 1.55 3.4" fill="#f3cb7e" transform="translate(0 3.15)"/><path d="m49.75 20.5.9-.1v2.55q-.8 2.1-2.15 2.85-2.5-.4-1.55-3.4l.9-1.1 1.9-.8" fill="#fde49f" transform="translate(0 3.15)"/><path d="m12.75 12.3.2.25q-1.7 4.05-1.55 7.65l.2 1.75-.3-.25q-.3-1.95-.1-3.9l.1-.8q.4-2.35 1.45-4.7m38.45 8 .3-.1v.7q0 1.75-.5 3.35l-.65 1.7.55.9.05.3-.05.45-.2-.05q.05-.95-.4-1.35l-.15.2-.3.4q1.3-3.15 1.35-6.5M4.95 43.6h.2l.1-.05Q5.7 49.3 9.15 53l2.45 1.45q4.85 2.6 10.4 3.4l6.85.4 6.75-.7 1.9-.25q8.65-1.4 13.3-4.4 2-1.25 3.25-2.85l-1.2-1.1 1.6-6.5.7.15-1.95 6.25L54.4 50q-5.5 7.25-25.6 8.5-11.45.3-19.8-5.25-3.4-3.75-4.05-9.65" fill="#584031" transform="translate(0 3.15)"/><path d="m50.65 20.4.55-.1q-.05 3.35-1.35 6.5l-.35.25q.95-1.95 1.15-4.1V20.4m.05 7.15-.25-.05q.25-.6-.3-1.1l.15-.2q.45.4.4 1.35" fill="#aafff0" transform="translate(0 3.15)"/><path d="M51.5 20.5q1.85.9 2.6 3l-.3.7q-.35-1.55-1.1-2.4-.5-.6-1.2-.9v-.4" fill="#ffbcab" transform="translate(0 3.15)"/><path d="M54.1 23.1v-.45q4.75 1.1 5.1 9.65.5 5.3-2.9 9.15-1.25.9-2.35.35v-.25q1.75.95 3.15-1.65-.85-1.35.9-1.7 2.25-11.25-3.9-15.1m-.15 17.95q-.9 2.35-2.05 1.5 1.4.4 2.05-2.2v.7" fill="#ffbdab" transform="translate(0 3.15)"/><path d="M54.1 23.5v-.4q6.15 3.85 3.9 15.1-1.75.35-.9 1.7-1.4 2.6-3.15 1.65v-1.2q-.65 2.6-2.05 2.2l-.15-.15q-.4-2.05-.95-3.35 1.55 2.35 2.7-.45l.1.05q2.4 1.2 3.5-1.85l.25-2.4q0-2.75-1.3-5.65-1.6-3.55-5.15-1.9l-.55-.9.65-1.7q.5 1.05 1.7.8 1.35-1.2 0-3.25.75.85 1.1 2.4l.3-.7" fill="#ce5b7b" transform="translate(0 3.15)"/><path d="M51 24.25q.5-1.6.5-3.35.7.3 1.2.9 1.35 2.05 0 3.25-1.2.25-1.7-.8" fill="#ef85ad" transform="translate(0 3.15)"/><path d="m50.9 27.6.05-.45q.75-.4 1.45-.5-1 .45-.9 1.1l-.6-.15" fill="#cd597c" transform="translate(0 3.15)"/><path d="m3.65 37.2-.45 1.05q-.95-.15-1.5-.75 1.35.1 1.8-1.65.4.65.15 1.35m30.9-13.35q3.3.45 5.3 3.5 4.05-.9 4.05 3.25 4.75-4.95 9.45-1.45-.5-.95-1.85-1.4-.1-.65.9-1.1 2-.25 3.65 2.1 1.05 3.7.5 6.7-1.4.6-2.5-3.4.65 2.8 0 4.9-1.1-.8-2.6-3.3.85-1.45-.15-2.9l.65-.5.95-.8-.3-.45-.55.4-1.15.8q-3.25-1.8-5.9.3-1.55 2 .2 4.1l-1.05 2.1-.35.5q-1.2-2.95-3.65-2.6l-.6-1.5q-.5-1.25-1.15-1.95 1.65-3.1-.85-5.55-1.2-1.45-3-1.75m6.05 6.55q.45.8 1.45.9 1.55-.25 1.5-1.75-.2-2.1-1.95-1.65-1.35.7-1.05 2.05h-.25q-.5.25 0 .45h.3m.5 2.45 1.35 1.1.45-.35-1.45-1.3-.35.55" fill="#ef86ad" transform="translate(0 3.15)"/><path d="M51.3 30.75 51 31q-.55.25-.35-.6l.25-.2 1.15-.8-.1.85-.65.5" fill="#661b00" transform="translate(0 3.15)"/><path d="m51.95 30.25.1-.85.55-.4.3.45-.95.8m-20.8 2.6.3 1-1.35 1-1.1.7.85-.95q-.45-.6.7-.8l-.55-.35 1.15-.6" fill="#471300" transform="translate(0 3.15)"/><path d="m50.9 30.2-.25.2q-.2.85.35.6l.3-.25q1 1.45.15 2.9l-.3-.45-.2-.35q-3.45-3.15-5.35.55l-.4 1.2q-1.75-2.1-.2-4.1 2.65-2.1 5.9-.3" fill="#ffbcbf" transform="translate(0 3.15)"/><path d="m45.2 34.6.4-1.2q1.9-3.7 5.35-.55l.2.35.25.55.95 1.8q0 .25-1.25-1.65-2.5-3.7-4.85-.85-1.2 1.25-1.05 2.95-.7 1.95-1.05.7l1.05-2.1" fill="#671c00" transform="translate(0 3.15)"/><path d="m51.4 33.75.05-.1q1.5 2.5 2.6 3.3l1.8.1q-.5 1.05-1.8.35-.9.05-1.05-.8l-.65-1.05-.95-1.8" fill="#250a00" transform="translate(0 3.15)"/><path d="m53.6 38.65-.1-.05-.65-.4-2-3.75q-2.85-4.35-4.7-.15l-.4 1.2q-.7 2-1.4 3-1.3 1.8-2.7.4l1.45.2q1.5-.8.7-1.9l.35-.5q.35 1.25 1.05-.7-.15-1.7 1.05-2.95 2.35-2.85 4.85.85 1.25 1.9 1.25 1.65L53 36.6q.15.85 1.05.8 1.3.7 1.8-.35l.4-.6 1.1-2.05q-.7 5.25-3.75 4.25" fill="#461300" transform="translate(0 3.15)"/><path d="m56.55 35.45-.05.4-.25.6-.4.6-1.8-.1q.65-2.1 0-4.9 1.1 4 2.5 3.4" fill="#ca507f" transform="translate(0 3.15)"/><path d="M56.05 28.75q1.3 2.9 1.3 5.65l-1.1 2.05.25-.6.05-.4q.55-3-.5-6.7" fill="#260a00" transform="translate(0 3.15)"/><path d="m57.35 34.4-.25 2.4q-1.1 3.05-3.5 1.85 3.05 1 3.75-4.25" fill="#ffc9ad" transform="translate(0 3.15)"/><path d="m19.65 3.15 2.9-.25-.25.65q-2.25 1.05-2.65-.4M1.3 30.95l.35-1.35q-3.15-8.9 5.2-10.35 1.4.2 1.65 1.3-1.35-.05-2.75.75 2.65-.05 4.45 2.05l.05.05.55.7q1.5 2.4 1 5.15 1.05 0 1.7-1.25v.15l.3-1.6 2.8-.3q1.7.85 2.2 2.4l.8-.35q.9-3.95 4.7-4 2 .7 3.2 3.15l.05-.1q.95-3.4 6.4-3.6l.6.1q1.8.3 3 1.75 2.5 2.45.85 5.55-1.05-1-2.5-.85l-.6.15.3-.55q1.8-.2.25-1.25.05-.75-.45-1.55.6-.5-.1-.65l-.45.1q-1.7-1.8-4.35-.6-2 1.5-.8 3.75 1.4 1.65 3.85 1.5l-.5.35-1.9 1.3q-1.1-2.95-4.05-3 1.5 1.8 1.25 4.3l-.9.25-1.1.1q.5-3.1-2.75-5.05-2.25-.35-4 .55l-1.1.1-.35.15-.75.45q-1.9.8-2.95-1.35-.7-.9-1.75-.15-.85.75-1.35 0-.85-.4-1.7 0-.5.2-1 .7-2.65 2-2.9 4.8v.35l-.45.85-.05.05q-.4.4-.7-.5l-.75-.65q1.95-2.55-.5-3.95l.25-.55q5-.6 5-3.75l1.3-1.05-.4-.5-1.15.75Q6 22.9 3.15 24.45q-2.85 3-.2 5.75l-.2.65-1.45.1m6.95-12.4q1.25-.8 2.6-.8-1.1 2.15-2.6.8M40.6 30.4h1.05v-.45h-1.1q-.3-1.35 1.05-2.05 1.75-.45 1.95 1.65.05 1.5-1.5 1.75-1-.1-1.45-.9M6.35 22.3l1.7 1.05.5-.5L6.8 21.7l-.45.6m10.85 4.8q-.45-.45-1.1-.45-.6 0-1.05.45-.45.45-.45 1.1 0 .65.45 1.1.45.45 1.05.45.65 0 1.1-.45.45-.45.45-1.1 0-.65-.45-1.1M5.05 32.45l.7-1.3q.1-.9-.55-.6l-.5 1.5.35.4m26.4 1.4 2.3-1.75.65-.4q1.9-1.1 3.3.3-1.1 1.15-2.7 2.1l-3.5.15-.05-.4m-5.7-4.3.6.6 2-1.9-.65-.55-1.95 1.85m-2.95-2.4 1 .55q.85 0 .2-.7l-.9-.45-1.3-.65q-.5.15-.2.6l1.2.65m1.45 2.5.4-.15.15-.4-.15-.35-.4-.15q-.2 0-.35.15l-.15.35.15.4.35.15" fill="#ffbebe" transform="translate(0 3.15)"/><path d="M40.55 29.95h1.1v.45H40.3q-.5-.2 0-.45h.25m-14.8-.4 1.95-1.85.65.55-2 1.9-.6-.6" fill="#5ed3ee" transform="translate(0 3.15)"/><path d="m41.1 32.85.35-.55 1.45 1.3-.45.35-1.35-1.1" fill="#691d00" transform="translate(0 3.15)"/><path d="M50.8 39.05q-.7-1.7-1.55-2.2l-1.15.1q.8-.7 2.25-.6.65 1.75.45 2.7" fill="#cb537e" transform="translate(0 3.15)"/><path d="M48.1 36.95q-1.5.5-2.3 3.1-1.65 6.6-3.1 4.25 2.65-.45 1.65-5.8.7-1 1.4-3 3.25 1.2 5.1-1.05l2 3.75.65.4q-1.15 2.8-2.7.45.2-.95-.45-2.7-1.45-.1-2.25.6" fill="#ef7ab0" transform="translate(0 3.15)"/><path d="m45.75 35.5.4-1.2q1.85-4.2 4.7.15-1.85 2.25-5.1 1.05" fill="#ffbbbf" transform="translate(0 3.15)"/><path d="M43.8 37.2q.8 1.1-.7 1.9l-1.45-.2-.65-.85-1.4-2.7q-.2-1.2.65.45 1.25 2.5 2.8 1.95l.75-.55" fill="#904d2f" transform="translate(0 3.15)"/><path d="m43.8 37.2-.75.55q-1.45.45-2.9-3.15 2.45-.35 3.65 2.6" fill="#ffb7c0" transform="translate(0 3.15)"/><path d="m42.7 44.3-.45-1.1-.55-1.85q-.75-1.35-2.4-2.4l-.25-.45.85.4-1.2-1.25q-.45-1.6.7-2.7l.2.4 1.4 2.7.65.85q1.4 1.4 2.7-.4 1 5.35-1.65 5.8" fill="#ffb6c0" transform="translate(0 3.15)"/><path d="M43.3 45.2q.9.25 1.7-2l.55-1.85q3.3-2.5 5.45 0l.1.45q.4.9 1 1.05l-1.55 4.75.8 2.05q-4 5.05-13.85 7.65l-1.9.25q5.8-3.3 7.7-12.35" fill="#fce19b" transform="translate(0 3.15)"/><path d="M45.55 41.35q.55-1.45 1.25-2.8 2.85-4.2 4.2 2.8-2.15-2.5-5.45 0" fill="#e69955" transform="translate(0 3.15)"/><path d="m54.2 42.3.25.15-1.6 6.5 1.2 1.1q-1.25 1.6-3.25 2.85l2.95-2.8-1.15-1.05 1.6-6.75" fill="#a2ffef" transform="translate(0 3.15)"/><path d="M52.1 42.85q.8.2 1.8-.85l.3.3-1.6 6.75 1.15 1.05-2.95 2.8q-4.65 3-13.3 4.4 9.85-2.6 13.85-7.65l-.8-2.05 1.55-4.75" fill="#eba85e" transform="translate(0 3.15)"/><path d="m22.55 2.9.1-.2.25-.55.05-.05q1.3-1.25 2.5-1.75 1.6-.7 3.05 0 1.2.55 2.3 2.05l.2.55.1.45.05.35.2 1.55q.05 2.35-1.45 3.1v.05l.6 2.55v.05l.05.2.05.2q.15 1.2-.45 2.25l-.05.05h-.4l.05-.05q.55-.9.55-2.3l-.05-.15v-.3L29.8 9l-.3-.55q-.9-1.55-1.75-2.3-.55-.5-1.05-.7L26 5.3l-.25-.05-.1.1-1.15.95-.5.3-.35.2-.55.2v.05l-.15.1-.1.1-.2.2q-1.9 1.65-1.5 3.85v.05l-.3.05v-.05l-.1-.95q0-1.15.7-2.1l.45-.6.05-.05.45-.4.25-.25.2-.15h.1l.5-.25h.15v-.05l.1-.05.2-.1.7-.4.5-.4.45-.6 1.85.45.15.1 1.3 1.05.55.75.2.35.1.25q.7-.3 1-1.05l.2-.65.05-.95-.2-1.55-.15-.5Q30 2.1 28.7 1.2l-1-.55q-3.25.05-4.75 2.7l-.3.6-.1.25v.05l-.05.15-.3-.1.1-.75.25-.65M47 14.45v-.05q.2-4.45-2.9-6.3l-.65-.3-.15-.1-.75-.25-.25.1-.05.05-.25.1q-2.1 1.1-3.05 2.4l-.5.8q-.7 1.35-.25 2.95l.05.15.65 1.4v.05l-.35.05q-1.45-2.5-.5-4.5l.45-.75q1.2-1.7 4.15-3.05v-.05l.35.15.65.3.65.35q3.4 2.05 2.95 6.45v.05H47M31.1 3.4l-.05-.1.05.1" fill="#60060c" transform="translate(0 3.15)"/><path d="m6.85 19.25 1.65-.2-.55-.3.3-.2q1.5 1.35 2.6-.8l.35.05q-.2 1.95.1 3.9-1.35-1.1-2.8-1.15-.25-1.1-1.65-1.3M31 2.95l.4.05 1.7.15.45.05q-.05.15 4.05 1.35l1.35.4-.95-.2-4.9-1.1-1.7-.3-.3.05-.1-.45M25.5 24.4q1.15.5 2.4 1.5l-.35 1.45-.05.1Q26.3 25 24.3 24.3l1.2.1m7.4-12.8.45.2.2.5-.2.45q-.2.2-.45.2l-.45-.2-.2-.45.2-.5.45-.2" fill="#f08cac" transform="translate(0 3.15)"/><path d="m30.95 5.3-.05.95-.2.65q-.3.75-1 1.05l-.1-.25-.2-.35-.55-.75-1.3-1.05-.15-.1q1.4.2 1.1-1.55L27.65.95l-.1-.25.15-.05 1 .55L30.1 3l-.1.1.05.05q0 .6.25.7l.25-.05.35 1.5h.05m-2-2.6.15.25.3.05.15-.25-.1-.25-.2-.1-.2.1-.1.2" fill="#ae1319" transform="translate(0 3.15)"/><path d="m28.95 2.7.1-.2.2-.1.2.1.1.25-.15.25-.3-.05-.15-.25" fill="#d8c8fe" transform="translate(0 3.15)"/><path d="M28.7 1.2q1.3.9 1.9 2.05l.15.5.2 1.55h-.05l-.35-1.5-.25.05q-.25-.1-.25-.7L30 3.1l.1-.1-1.4-1.8" fill="#dac9fe" transform="translate(0 3.15)"/><path d="m27.55.7-.75.3q.3.1.15.35l-.25.4-.3.2-.4.3.05-.05q-1.35.75-1-.35-.8.35-1.4.85l-.7.8-.3.5-.1.2.1-.25.3-.6Q24.45.7 27.7.65l-.15.05" fill="#f2a88b" transform="translate(0 3.15)"/><path d="M27.4 5.45 25.55 5l-.45.6-.25-2.05v.1q-.1-.9-.45-.75-.55.35-.75-.2.6-.5 1.4-.85-.35 1.1 1 .35l-.05.05.4-.3.3-.2.25-.4q.15-.25-.15-.35l.75-.3.1.25.85 2.95q.3 1.75-1.1 1.55m0-3.25.25-.3-.1-.25-.2-.1q-.1 0-.15.1l-.05.4.25.15" fill="#e94750" transform="translate(0 3.15)"/><path d="m27.4 2.2-.25-.15.05-.4q.05-.1.15-.1l.2.1.1.25-.25.3" fill="#fca788" transform="translate(0 3.15)"/><path d="m25.1 5.6-.5.4-.7.4-.95-1.65-.3-.25-.15-.1.05-.15V4.2l.1-.2.3-.5.7-.8q.2.55.75.2.35-.15.45.75v-.1l.25 2.05m.9-.3.7.15.5.4q1.05 1 1.9 2.45v.15q-.1.35-.75 0l-.25-.15.15.15q.7.7.6 1.45.5-1.2.75.2l.15.75.1.4v.1q.2 1.3-.25 1.05-.6 0-.7.7-.1.55-.8.4-.9-.05-1.2.85l-1.1.05-1.45-1.85 1.3-.45q.65.95.85-.7l.1-.15.25-.65.15-.95-.25-1.15v-.05l-.1-.65-.5-.45-.15-1.3q.3-.2.2-.5L26 5.3m2.3 3.75-.25-.2-.3.2-.1.45.1.45.3.2.25-.2.15-.45-.15-.45m.4 3 .1-.3-.1-.25-.2-.1q-.1 0-.15.1l-.1.25.1.3.15.1.2-.1" fill="#b5151b" transform="translate(0 3.15)"/><path d="M14.1 6.3q2.2-2.9 6-2.2l-1.55-.55 1.1-.4q.4 1.45 2.65.4l-.1.75-.45-.05.9.65.3.35.65 1.3v.05h-.05l-.05-.05-.05.05-.5.25h-.1l-.2.15-.25.25-.45.4q-.3-2.1-1.8-2.95-3-1.3-6.05 1.6" fill="#f08fab" transform="translate(0 3.15)"/><path d="m20.75 10.4.1.95-1.3.35 1.2-1.3" fill="#f3a3a8" transform="translate(0 3.15)"/><path d="M23.75 10.1v.95l-.1.15-.1.05q-.3.25-.45 0l-.1-.35.25.1.25-.1h.05v-.05l.1-.2.1-.55" fill="#fff2f0" transform="translate(0 3.15)"/><path d="m22.3 14.4.75-.3.2-.6q-.1-.3-.55-.4l-.3.15-.05-.25q-.3-1.5-2.3-1.4l.9-.05q3.4.05 4.95 3.45.45 3.1-2.55 3.1-1.8-.55-1.7-3l.65-.7" fill="#ffded4" transform="translate(0 3.15)"/><path d="m23.25 13.5-.2.6-.75.3-.65.25-.4-.25 2-.9" fill="#591800" transform="translate(0 3.15)"/><path d="m22.4 13.25.3-.15q.45.1.55.4l-2 .9v-.55l1.15-.6" fill="#862500" transform="translate(0 3.15)"/><path d="m15.3 20.5.6-.5q3.05-4.8 4.55-4.05l.75 1.1q-1.65-1.25-3 1.15-1.3 2.25-2.9 2.3m16.05 1.15 1.65.15 5.4-.25q2.5.35.25 3.25-1.55-1.05-3.25-1.1-2.9-.95-5.9.9l-1.8.2-.6-.35 1.5-1.9-1.9-2.15q1.2-.6 2.3.25.95 1 2.35 1M8.9 51.25q8.45 6.1 20.1 4.9 9.35-1.4 11.15-11.2l.45.6Q38.75 59 22 57.85q-5.55-.8-10.4-3.4-1.55-1.5-2.7-3.2m26.95-11.3-.8-.15q-6.35.45-5.9 5.55-1.55-2.3.3-4.55 1-1.05 2.25-1.5 2.45-.2 4.15.65" fill="#fde5a0" transform="translate(0 3.15)"/><path d="m14.1 16.55-.05.8q-.45 4.4 1.25 3.15 1.6-.05 2.9-2.3 1.35-2.4 3-1.15l.35.95q.45 1 1 1.6 1.3 2.15 4.15.8l1.9 2.15-1.5 1.9q-1.35-.7-3.05-.7-2.85-.45-5.55 1.9-1.9.15-3.25-1.55-3.5-2.3-2.9-6.55l1.75-1" fill="#fcfad8" transform="translate(0 3.15)"/><path d="M22.55 19.6q1.8 2.05 4.8-.8 1.35.15 2.25 1.8.75.75 1.75 1.05-1.4 0-2.35-1-1.1-.85-2.3-.25-2.85 1.35-4.15-.8" fill="#edba64" transform="translate(0 3.15)"/><path d="M29 19.3q-1.55-1.1-2.45-.55H27q-2.35 2.2-4 .75 3.7.5 3.15-2.5 2.05.5 2.85 2.3" fill="#f08dac" transform="translate(0 3.15)"/><path d="M19.6 28.3q-.35-1-1.5-1.85 3.5-3.7 7.4-2.05l-1.2-.1q-3.8.05-4.7 4" fill="#ffd8d5" transform="translate(0 3.15)"/><path d="m29.5 24.6-1.45 1.1q-2.05-1.65-4-1.95 1.7 0 3.05.7l.6.35 1.8-.2" fill="#eebd68" transform="translate(0 3.15)"/><path d="M32.5 14.1q.95-1.05 2.4-1.1-.4-.95.95-1.4 2.05.35.45 2.05 1 1.05.7 2.5l-.15.1q-.5-3.1-4.35-2.15m2.45-6q.9 0 1.5.35.65.35.65.85l-.1.45q.3 0 .5.15l.35.55-.35.5-.8.25-.8-.25-.3-.45-.65.05q-.85 0-1.45-.35t-.6-.9q0-.5.6-.85t1.45-.35" fill="#f08bac" transform="translate(0 3.15)"/><path d="m37.7 19.3-.1.25-.4.25-.4-.25-.05-.15-.1-.5q0-.4.15-.7.15-.25.4-.25.2 0 .4.25l.15.7-.05.4" fill="#5dd3ee" transform="translate(0 3.15)"/><path d="m34.05 16.35.25.05q1.1.3.4 1.5-.75 1-1.75.35-2.65 2.6-4.45-.9-.75-2.75 2.55-2.5l.7.5v.4l1.95.85.35-.25m-.5 14.85q-2.45.15-3.85-1.5-1.2-2.25.8-3.75 2.65-1.2 4.35.6l-.65.15-1.9.4.05.45v.25l3.05-.7q.5.8.45 1.55 1.55 1.05-.25 1.25l-.3.55q-.8.2-1.75.75" fill="#ffd6d6" transform="translate(0 3.15)"/><path d="M31.75 15.35q.05-.25.55-.35l1.7.7.05.65q-1.3-.25-2.3-1m3.1 11.2.45-.1q.7.15.1.65l-3.05.7v-.25q1.6-.45 1.85-.85l.65-.15" fill="#4c1500" transform="translate(0 3.15)"/><path d="M31.75 15.35q1 .75 2.3 1l-.35.25-1.95-.85v-.4M34.2 26.7q-.25.4-1.85.85l-.05-.45 1.9-.4" fill="#6c1e00" transform="translate(0 3.15)"/><path d="m32.45 20.3-.35.15-.3-.15-.15-.35.15-.35q.1-.15.3-.15.2 0 .35.15l.15.35-.15.35m-8.2 9.35-.35-.15-.15-.4.15-.35q.15-.15.35-.15l.4.15.15.35-.15.4-.4.15" fill="#fff23f" transform="translate(0 3.15)"/><path d="m14.05 10.35.8-1.1q.2-.55-.5-.35l-.5.5q-.1-1.95 2.65-2.85 1.45-.3 2 .9 1.15 2.65-.5 3.75l.15-.35-.15-.35-.35-.15-.35.15-.15.35.15.35.35.15.2-.05-.35.2q-1.4 1-1.1 2.8-.05 3-1.45 3-.65-.8.5-3 1-2 0-2.35l-1.2-1.15-.2-.45" fill="#ffd8d6" transform="translate(0 3.15)"/><path d="m13.85 9.4.5-.5q.7-.2.5.35l-.8 1.1-.2.25q-.65.1-.55-.55l.55-.65" fill="#5fd3ee" transform="translate(0 3.15)"/><path d="M19.45 7.5 18 6.45q-.15-.7.45-.55l1.4 1.15q.1.7-.4.45" fill="#701f00" transform="translate(0 3.15)"/><path d="m17.85 11.3-.2.05-.35-.15-.15-.35.15-.35.35-.15.35.15.15.35-.15.35-.05.05-.1.05" fill="#fff33e" transform="translate(0 3.15)"/><path d="m6.35 22.3.45-.6 1.75 1.15-.5.5-1.7-1.05m1.95 3.45L9.45 25l.4.5-1.3 1.05-1.05.8-.5-.65 1.3-.95m14.8.8-.3.6-1.2-.65q-.3-.45.2-.6l1.3.65" fill="#6d1e00" transform="translate(0 3.15)"/><path d="M21.05 16.25Q18.5 12.8 15.9 19.4q-1.4 1.9-1.65.35.65 1.35 2.1-2.9 1.5-3.45 3.6-2.1.9.55 1.1 1.5" fill="#f18aad" transform="translate(0 3.15)"/><path d="m12.95 12.55.65.65q.8.2.5 3.35l-1.75 1q-.6 4.25 2.9 6.55 1.35 1.7 3.25 1.55l-.7.65-1.55-.35q-.7-.7-2-.7-1.65-2.05-2.85-5.05-.15-3.6 1.55-7.65" fill="#fadc92" transform="translate(0 3.15)"/><path d="M5.75 21.3q3.55-1.35 6.3 1.55 1.65 2.4 1.45 5.15-.65 1.25-1.7 1.25.5-2.75-1-5.15l-.55-.7.3.1.25-.1.1-.25-.1-.3-.25-.1-.3.1-.1.3.05.2q-1.8-2.1-4.45-2.05" fill="#f4a8a7" transform="translate(0 3.15)"/><path d="m10.2 23.35-.05-.2.1-.3.3-.1.25.1.1.3-.1.25-.25.1-.3-.1-.05-.05" fill="#fff23e" transform="translate(0 3.15)"/><path d="M17.2 27.1q.45.45.45 1.1 0 .65-.45 1.1-.45.45-1.1.45-.6 0-1.05-.45-.45-.45-.45-1.1 0-.65.45-1.1.45-.45 1.05-.45.65 0 1.1.45" fill="#ffe2d3" transform="translate(0 3.15)"/><path d="m17.4 30.7.75-.45.35-.15q2.05-.2 3 1.7 1.4 2.7 3.9 2.7h.95l1.1-.1q1.5.75-1.6 1.95l-.4-.05q-1.35-.2-2.6-1.2-1.15-1.05-2.05-3.05l-1.05-1.15q-.6-.95-1.9.1l-.7.85h-.75q-.25-.6-.9-.4-1.3-2.05-2.1-1.7-.65-.25-1.25.8-.55.35-1.2-.25l-.1-.05q-.35-1.15-1.25-.3-1.8.7-2.7 2.65-.7.8-1.15 2.1.25-2.8 2.9-4.8.5-.5 1-.7 1.1-.15 1.9.6.7.1 1.45-.5.8-.7 1.45.45 1 1.9 2.95.95" fill="#742c12" transform="translate(0 3.15)"/><path d="m18.5 30.1 1.1-.1q1.05.1 1.9 1.3 1.45 2.8 3.9 3.2-2.5 0-3.9-2.7-.95-1.9-3-1.7" fill="#361001" transform="translate(0 3.15)"/><path d="M16.6 26.25q1.65.35 3 2.05l-.8.35q-.5-1.55-2.2-2.4" fill="#f3a0a9" transform="translate(0 3.15)"/><path d="m18.85 30.7.9.2 1.05 1.15q.9 2 2.05 3.05 1.25 1 2.6 1.2l-.95 1-.2.1-.05.1q-1.9 1.2-4.4-.2-3.6-2.35-1-6.6m1 4.8q-.4.55.15.6l1.95-.5q.5-.5-.15-.65l-1.95.55" fill="#ffcdd8" transform="translate(0 3.15)"/><path d="m19.75 30.9-.9-.2-.85.55q-.65.8-1.3.9l.45-.3.7-.85q1.3-1.05 1.9-.1" fill="#350f00" transform="translate(0 3.15)"/><path d="M17.45 35.45v-.05l-.1-.35-.65-1.1q-.65-1.8-2.6-3.2.2 2.3-1.9 3.4l-3.05.05-.5.1q-1.15-.3-2.05.45l.05-.15q.1-2.2 2.7-4.3l1.5-.05.1.05q.65.6 1.2.25l.4-.4q.75-.6 1.45 0l.55.7q1.1 1.5 2.15 1.3.65-.1 1.3-.9l.85-.55q-2.6 4.25 1 6.6 2.5 1.4 4.4.2l-.1.25.15.35.45.15.45-.15.2-.35-.2-.35-.45-.15-.25.05.95-1 .4.05 1.95-.25q-1.6 2.6-5.5 2.95-3.2-.1-4.85-3.6" fill="#ffb0c2" transform="translate(0 3.15)"/><path d="M.85 33.25 1 32.4q1.4-2.25 1.25-.6-.05-.6-.35-.35-.35.25-1.05 1.8m10-3-1.5.05q-2.6 2.1-2.7 4.3l-.05.15q-.15 2.1-1.05 3.6l-.4.35q-.5.2-.7-.45.45.6 1.05-.35l.5-1.15.55-3.1.35-1.05q.9-1.95 2.7-2.65.9-.85 1.25.3m3.15-.1q-.7-.6-1.45 0l-.4.4q.6-1.05 1.25-.8l.6.4m3.4.55q-1.95.95-2.95-.95-.65-1.15-1.45-.45-.75.6-1.45.5-.8-.75-1.9-.6.85-.4 1.7 0 .5.75 1.35 0 1.05-.75 1.75.15 1.05 2.15 2.95 1.35M3.8 34.8l.75.65q.3.9.7.5-.35.45-.65 0l-.15-.3q-2.25-1.3-1.7-4.8l.1.85q-.1 2 .95 3.1" fill="#290c01" transform="translate(0 3.15)"/><path d="m17.15 31.85-.45.3q-1.05.2-2.15-1.3l-.55-.7-.6-.4q.8-.35 2.1 1.7.65-.2.9.4h.75" fill="#c2873c" transform="translate(0 3.15)"/><path d="M16.7 33.95q-1.45-1.95-2.95-.6l-1.55.8q2.1-1.1 1.9-3.4 1.95 1.4 2.6 3.2" fill="#f298ab" transform="translate(0 3.15)"/><path d="M6.05 42.3q.85-.85.9-2.9.9-3.55 3.65-4.4 2.3.5 4.1-.4.9-.75 3.65 4.45 4.4 4.4 11.95 0 2.55-1.5 5.55 0l.35.35-4.5-.1q-1.25.45-2.25 1.5-1.85 2.25-.3 4.55-.45-5.1 5.9-5.55l.8.15q3.75.8 4.75 5.6l-.45-.6q-1.8 9.8-11.15 11.2-11.65 1.2-20.1-4.9-2.55-3.9-2.85-8.95m7.7-2.85q.95.1 1.6.65-2-2.35-4.9-1.2l-.2.2Q7.4 41.35 8.5 44.6q.45-4.25 4.25-5.15h1m15.2 9.45.05-.15q-.05-.55-.6-.6-1.1 1.8-3.2 1.7 2.2.45 3.5-1.25-.35.85-1 1.3l.15.35.25.95q1.4-.85.85-2.3m-5.6.45-.2-.25-.25-1.05q-.85 2.05-3.2 1.05 1.2 1.1 3.65.25m2.55-3.9q.35-.4-.65-1.05-3.35-1.1-5.3 1.05 1.6-.65 2.85.2 1.15-1 3.1-.2m-5.15 5.9v-.9q-1.5-.65-1.5-1.9-1.1 1.55 1.5 2.8" fill="#fbf8c9" transform="translate(0 3.15)"/><path d="m6.05 42.3.25-1.8q.55-6.4 3.15-6.05 2.1.7 4.3-.75 1.75-1.75 3.4 1.55.8 5.1 5.9 4.5 2.75 1.1 6.95-1.15 3.6-1.55 5.85.45-3-1.5-5.55 0-7.55 4.4-11.95 0-2.75-5.2-3.65-4.45-1.8.9-4.1.4-2.75.85-3.65 4.4-.05 2.05-.9 2.9" fill="#edbb64" transform="translate(0 3.15)"/><path d="m27.45 34.4.9-.25 1.65-.7.55.35q-1.15.2-.7.8l-.85.95-1.2.55-1.95.25q3.1-1.2 1.6-1.95m-7.6 1.1 1.95-.55q.65.15.15.65l-1.95.5q-.55-.05-.15-.6" fill="#601900" transform="translate(0 3.15)"/><path d="M8.3 25.75 7 26.7l.5.65 1.05-.8q0 3.15-5 3.75l-.25.55q2.45 1.4.5 3.95-1.05-1.1-.95-3.1l-.1-.85.2-.65q-2.65-2.75.2-5.75Q6 22.9 8.3 25.75m-2.9 1.9-.15-.25q-.2-.15-.4-.15l-.4.15-.15.25.15.3.4.1.4-.1.15-.3M5 39.9l.2 1-.2 1.05q-.2.45-.5.45l-.45-.45-.2-1.05.2-1q.2-.45.45-.45.3 0 .5.45" fill="#ffd5d6" transform="translate(0 3.15)"/><path d="m5.4 27.65-.15.3-.4.1-.4-.1-.15-.3.15-.25.4-.15q.2 0 .4.15l.15.25" fill="#fff140" transform="translate(0 3.15)"/><path d="m5.05 32.45-.35-.4.5-1.5q.65-.3.55.6l-.7 1.3" fill="#50caef" transform="translate(0 3.15)"/><path d="m1 32.4.3-1.45 1.45-.1q-.55 3.5 1.7 4.8l.15.3-.35.2q-.3-.35-.95-.65l-.4-.55q-.65-1.05-.65-2.55v-.6q.15-1.65-1.25.6" fill="#a15c41" transform="translate(0 3.15)"/><path d="M1.9 31.45q.3-.25.35.35v.6q0 1.5.65 2.55-2.1-.7-1-3.5" fill="#ffd1d7" transform="translate(0 3.15)"/><path d="M4.25 42.55q-1.2-2-.6-5.35.25-.7-.15-1.35-.45 1.75-1.8 1.65-1.2-1.2-.85-4.25.7-1.55 1.05-1.8-1.1 2.8 1 3.5l.4.55.6.55q.5.85.3 1 .05.8.25 1.2.2.65.7.45.8 4.8-.9 3.85M5 39.9q-.2-.45-.5-.45-.25 0-.45.45l-.2 1 .2 1.05.45.45q.3 0 .5-.45l.2-1.05-.2-1" fill="#ffbabf" transform="translate(0 3.15)"/><path d="M5.75 34.7q.45-1.3 1.15-2.1l-.35 1.05-.55 3.1-.5 1.15q-.3-.65-1-.4.2-.8-.25-1.35l.35-.2q.3.45.65 0l.05-.05.45-.85v-.35" fill="#763219" transform="translate(0 3.15)"/><path d="M3.3 35.5q.65.3.95.65.45.55.25 1.35.7-.25 1 .4-.6.95-1.05.35-.2-.4-.25-1.2.2-.15-.3-1l-.6-.55" fill="#a36042" transform="translate(0 3.15)"/><path d="M8.65 34.3q-2.5.65-2.8 7.05-.5 2.95-1.55 1.3l-.05-.1q1.7.95.9-3.85l.4-.35q.9-1.5 1.05-3.6.9-.75 2.05-.45" fill="#ef80ae" transform="translate(0 3.15)"/><path d="M5.25 43.55q.55-.35.8-1.25.3 5.05 2.85 8.95 1.15 1.7 2.7 3.2L9.15 53q-3.45-3.7-3.9-9.45" fill="#f9d78d" transform="translate(0 3.15)"/><path d="M13.75 39.45q-.85-1.1-3.5-.35l.2-.2q2.9-1.15 4.9 1.2-.65-.55-1.6-.65" fill="#eec061" transform="translate(0 3.15)"/><path d="M10.25 39.1q2.65-.75 3.5.35h-1q-3.8.9-4.25 5.15-1.1-3.25 1.75-5.5" fill="#fde69f" transform="translate(0 3.15)"/><path d="m31.15 32.85 1.9-1.3.5-.35q.95-.55 1.75-.75l.6-.15q-1.65.8-1.5 1.4l-.65.4-2.3 1.75-.3-1" fill="#4b1500" transform="translate(0 3.15)"/><path d="m39.3 38.95-.5-.3-.35-.4-.1-.05-1.3-1.15V37l-1.35-.8q-2.9-1.3-5.8 0-2.2 2.05-4.45 2.7-6.55 2.1-8-3.45 1.65 3.5 4.85 3.6 3.9-.35 5.5-2.95l1.2-.55 1.1-.7 1.35-1 .05.4 3.5-.15q1.6-.95 2.7-2.1l.8 1.1.9 1.85q-1.15 1.1-.7 2.7l1.2 1.25-.85-.4.25.45" fill="#ef7faf" transform="translate(0 3.15)"/><path d="M40.15 34.6q1.45 3.6 2.9 3.15-1.55.55-2.8-1.95-.85-1.65-.65-.45l-.2-.4-.9-1.85-.8-1.1.7-.85q.65.7 1.15 1.95l.6 1.5" fill="#491400" transform="translate(0 3.15)"/><path d="M35.9 30.3q1.45-.15 2.5.85l-.7.85q-1.4-1.4-3.3-.3-.15-.6 1.5-1.4" fill="#6b1e00" transform="translate(0 3.15)"/><path d="m22.8 27.15.3-.6.9.45q.65.7-.2.7l-1-.55" fill="#4d1500" transform="translate(0 3.15)"/><path d="M19.6 30q1.75-.9 4-.55 3.25 1.95 2.75 5.05h-.95q-2.45-.4-3.9-3.2-.85-1.2-1.9-1.3" fill="#ffd4d7" transform="translate(0 3.15)"/><path d="M28.35 34.15q.25-2.5-1.25-4.3 2.95.05 4.05 3l-1.15.6-1.65.7" fill="#f087ad" transform="translate(0 3.15)"/><path d="m24.5 37.3.25-.05.45.15.2.35-.2.35-.45.15-.45-.15-.15-.35.1-.25.25-.2" fill="#ffef43" transform="translate(0 3.15)"/><path d="M25.9 45.45q-1.95-.8-3.1.2-1.25-.85-2.85-.2 1.95-2.15 5.3-1.05 1 .65.65 1.05" fill="#fde89c" transform="translate(0 3.15)"/><path d="M28.95 48.9q.55 1.45-.85 2.3l-.25-.95q.85-.45 1.1-1.35m-8.2 2.45q-2.6-1.25-1.5-2.8 0 1.25 1.5 1.9v.9" fill="#fde99b" transform="translate(0 3.15)"/><path d="M38.2 13.85q-.45-1.6.25-2.95l.5-.8Q39.9 8.8 42 7.7q-1.55 1.05-2.45 2.2l-.6.85-.35.65q-.5 1.2-.4 2.45m-15.35-6.6.1-.1.15-.1V7l.55-.2.35-.2.5-.3 1.15-.95.15.4q-.05.35-.75.35l-1.2.75-.1.05-.2.05-.4.2-.2.05-.1.05m16.7 4.4.15-.05.15.05.05.15-.05.15-.15.1-.15-.1-.05-.15.05-.15m.65.45q-.15-.4.75-.9-.15 1.1-.75.9" fill="#fff" transform="translate(0 3.15)"/><path d="m42 7.7.25-.1q-1.1.7-1.5 1.7l.05.05.25.6-.6 1.5q-.85.25-1.15-.65l-.7.6.35-.65.6-.85q.9-1.15 2.45-2.2m-.6 2.1-.1-.15q-.05-.6.55-.7l.1.55-.1.15-.45.15m.6.7q.15.75-.4 1.25-.55.25-.4-.5.2-.75.8-.75M24.8 6.8v.3l-.25.5-.1.05q-.4.1-.5-.15l.15-.2q.25-.4.7-.5" fill="#fea889" transform="translate(0 3.15)"/><path d="m42.25 7.6.05-.05.25-.1.6.55.4.55q.65 1 .5 2.2.95 1.15-.2 1.55-.85-.35-.6.8.1 2.25-1.1.45-1.65 2.35-3.95.3-.1-1.25.4-2.45l.7-.6q.3.9 1.15.65l.6-1.5-.25-.6-.05-.05q.4-1 1.5-1.7M42 10.5q-.6 0-.8.75-.15.75.4.5.55-.5.4-1.25m-.6-.7.45-.15.1-.15-.1-.55q-.6.1-.55.7l.1.15m-1.85 1.85-.05.15.05.15.15.1.15-.1.05-.15-.05-.15-.15-.05-.15.05m.65.45q.6.2.75-.9-.9.5-.75.9" fill="#f7504c" transform="translate(0 3.15)"/><path d="M38.9 15.45v-.05l-.65-1.4-.05-.15q2.3 2.05 3.95-.3 1.2 1.8 1.1-.45-.25-1.15.6-.8 1.15-.4.2-1.55.15-1.2-.5-2.2l-.4-.55-.6-.55.75.25.15.1.55.4q2.05 1.55 2.35 4.1-.9-1.1-1.2.45.3 1.9 1.1.4.3.9-.1 1.35l-.05.05q-.65.15-1.35.55l-1.55 1.1-.05.05q-2.3-1.15-4.25-.8m5.85-1.8-.1-.35-.2-.15-.2.15-.1.35.1.3.2.15.2-.15.1-.3" fill="#a00e15" transform="translate(0 3.15)"/><path d="m43.3 7.7.15.1.65.3q3.1 1.85 2.9 6.3v.05l-.9.1.05-.05q.4-.45.1-1.35-.8 1.5-1.1-.4.3-1.55 1.2-.45-.3-2.55-2.35-4.1l-.55-.4-.15-.1m1.45 5.95-.1.3-.2.15-.2-.15-.1-.3.1-.35.2-.15.2.15.1.35" fill="#ddcbff" transform="translate(0 3.15)"/><path d="m25.65 5.35.1-.1.25.05.2.25q.1.3-.2.5l.15 1.3.5.45-.35.65-.65.3-.25-.1-.1-.2-.1-.1-.1-.1-.55-.05H24l-.3-.15-.2-.1-.45.05q.2-.25-.05-.55l.55-.5.2-.05.1-.05 1.2-.75q.7 0 .75-.35l-.15-.4M24.8 6.8q-.45.1-.7.5l-.15.2q.1.25.5.15l.1-.05.25-.5v-.3" fill="#f74c52" transform="translate(0 3.15)"/><path d="M21.15 11.35v-.05q-.4-2.2 1.5-3.85l.2-.2.1-.05.2-.05.4-.2-.55.5q.25.3.05.55l-.1.1-.3.15-.45.1q-.5.75.4.3l.2-.2.15-.1q.5-.4.7.1v.05q.05.75-.45 1.3.35.05.5.25l-.1.6-.1-.25-.25-.1-.25.1-.05.1-.05.1v-.25l-.2-.35q-.6-.1-.5-.7l-.45.25q-.35.95-.1 1.75v.05h-.5M26.2 9.1l.2.05.1.2v.05l-.1.2-.2.1-.2-.1-.1-.2.1-.25.15-.05h.05" fill="#fea788" transform="translate(0 3.15)"/><path d="m23.05 8 .45-.05.2.1.1.2v.2q-.1.7.45 0V8.4l.3-.2.55.05.1.1.1.1.1.2.25.1.65-.3.35-.65.1.65v.05L27 9.65l-.15.95-.25.65-.1.15q-.2 1.65-.85.7l-1.3.45q-.95-.9-2.1-1.1l-.05-.05q-.5-.7-.45-1.85l.45-.25q-.1.6.5.7l.2.35v.45l.05.25.1.2q.15.35.5 0l.1-.05.1-.15v-.95l-.05-.05q-.15-.2-.5-.25.5-.55.45-1.3v-.05q-.2-.5-.7-.1l-.15.1-.2.2q-.9.45-.4-.3l.45-.1.3-.15.1-.1m1.4.7-.6.85q.05.9.7.6.4-.4.4-1l-.15-.7-.35.25m1.75.4h-.05l-.15.05-.1.25.1.2.2.1.2-.1.1-.2v-.05l-.1-.2-.2-.05" fill="#f33643" transform="translate(0 3.15)"/><path d="m23.7 8.05.3.15h.55l-.3.2v.05q-.55.7-.45 0v-.2l-.1-.2" fill="#fffdf7" transform="translate(0 3.15)"/><path d="M21.65 11.35v-.05q-.25-.8.1-1.75-.05 1.15.45 1.85l.05.05-.6-.1" fill="#b1141a" transform="translate(0 3.15)"/><path d="m22.9 10.6.05-.1.05-.1.25-.1.25.1.1.25v.05l-.05.2h-.05l-.25.1-.25-.1-.05-.05-.05-.05v-.2" fill="#a71117" transform="translate(0 3.15)"/><path d="m24.45 8.7.35-.25.15.7q0 .6-.4 1-.65.3-.7-.6l.6-.85" fill="#fea184" transform="translate(0 3.15)"/><path d="m28.3 9.05.15.45-.15.45-.25.2-.3-.2-.1-.45.1-.45.3-.2.25.2" fill="#f5424b" transform="translate(0 3.15)"/><path d="M26.7 5.45q.5.2 1.05.7.85.75 1.75 2.3l.3.55.45 1.95v.3l.05.15q0 1.4-.55 2.3l-.05.05q-1.25.1-2.45 1.05-.7.2-1.4-.3l-.05-.1 1.1-.05q.3-.9 1.2-.85.7.15.8-.4.1-.7.7-.7.45.25.25-1.05v-.1l-.1-.4-.15-.75q-.25-1.4-.75-.2.1-.75-.6-1.45l-.15-.15.25.15q.65.35.75 0V8.3q-.85-1.45-1.9-2.45l-.5-.4m2 6.6-.2.1-.15-.1-.1-.3.1-.25q.05-.1.15-.1l.2.1.1.25-.1.3" fill="#e3d6ff" transform="translate(0 3.15)"/><path d="M30.25 3.35q2.05 3.1 4.75.85.8 2.5 1.4-.15.05-1.4.95-.75 1.5-.15.7-1.8.55-1.35.1-2.7l-.3-.75-.55-.85.85.5.1.15.55.65q1.9 2.5 1.45 5.55-.7-1.55-1.55.15-.2 2.35 1.2.85.05 1.15-.5 1.5l-.1.1-1.3.3q-1.3.65-2.8.8l-2.15-.1-.5-.15q-1.4-.55-2-2.05V5.4q-.3-1-.3-1.85v-.2M38 5.1l-.05-.4-.15-.2-.3.05-.2.4v.35l.2.3.25-.15.25-.35" fill="#a00e15" transform="translate(0 3.15)"/><path d="M36.8-2.7h-.2q-2.8.65-4.3 1.9-.6.3-.85.75-1.25 1.4-1.2 3.4v.2q0 .85.3 1.85v.05q.6 1.5 2 2.05-1.75-.6-2.4-2.1h-.05q-.9-3.4.8-5.45l.8-.7q1.9-1.65 5.85-2.4l1 .85.65.65q3.4 3.45 1.5 8.45v.05l-.3-.1V6.7q1.6-5.1-1.45-8.3l-.7-.55-.1-.15-.85-.5H37l-.1.05-.1.05" fill="#60060c" transform="translate(0 3.15)"/><path d="M31.45.6 32.5.15q.05 1.15 1.15 1.1L34.8-.3l-.1-.85-.05-.05q.75-1 2.15-1.5l.1-.05.1-.05h.3l.55.85.3.75q.45 1.35-.1 2.7.8 1.65-.7 1.8-.9-.65-.95.75-.6 2.65-1.4.15-2.7 2.25-4.75-.85.25-1.5 1.2-2.75m3.8-1 .6-.05L36-.6l.05-.65q-.75-.1-.85.6l.05.25m-.35 2.35q.8-.45.8-1.4-.7-.15-1.15.65-.4.9.35.75m-1.75-.05q.6.45 1.15-.8-1.25.3-1.15.8m-.45-.75h-.2l-.1.2v.2l.15.15.2-.05.1-.2v-.2l-.15-.1" fill="#f7504c" transform="translate(0 3.15)"/><path d="m40.4 6.75-1.1-.1.1-.1q.55-.35.5-1.5-1.4 1.5-1.2-.85.85-1.7 1.55-.15Q40.7 1 38.8-1.5l-.55-.65.7.55Q42 1.6 40.4 6.7v.05M38 5.1l-.25.35-.25.15-.2-.3v-.35l.2-.4.3-.05.15.2.05.4" fill="#ddcbff" transform="translate(0 3.15)"/><path d="M36.8-2.7q-1.4.5-2.15 1.5l.05.05.1.85-1.15 1.55q-1.1.05-1.15-1.1L31.45.6l.65-.65.95-.85q1.4-1.05 3.55-1.8h.2M35.25-.4l-.05-.25q.1-.7.85-.6L36-.6l-.15.15-.6.05m-.35 2.35q-.75.15-.35-.75Q35 .4 35.7.55q0 .95-.8 1.4" fill="#fea889" transform="translate(0 3.15)"/><path d="M36.6-2.7q-2.15.75-3.55 1.8l-.95.85-.65.65q-.95 1.25-1.2 2.75-.05-2 1.2-3.4.25-.45.85-.75 1.5-1.25 4.3-1.9m-3.45 4.6q-.1-.5 1.15-.8-.55 1.25-1.15.8m-.45-.75.15.1v.2l-.1.2-.2.05-.15-.15v-.2l.1-.2h.2" fill="#fff" transform="translate(0 3.15)"/><path d="m35.5 4.45.55.65q1.9 2.5 1.45 5.55-.7-1.55-1.55.15-.2 2.35 1.2.85.05 1.15-.5 1.5l-.1.1-1.1.2q-2.1.05-3.5.8-1-.65-2.8-.5-.9-.6-1.35-1.7V12q-.3-1-.3-1.85v-.2q2.05 3.1 4.75.85.8 2.5 1.4-.15.05-1.4.95-.75 1.5-.15.7-1.8.55-1.35.1-2.7l-.3-.75-.55-.85q.5.2.85.5l.1.15m-.95 7.1v.35l.2.3.25-.15.25-.35-.05-.4-.15-.2-.3.05-.2.4" fill="#a00e15" transform="translate(0 3.15)"/><path d="m35.5 4.45-.1-.15q-.35-.3-.85-.5h-.3l-.1.05-.1.05h-.2q-2.8.65-4.3 1.9l-.85.75q-1.25 1.4-1.2 3.4v.2q0 .85.3 1.85v.05q.45 1.1 1.35 1.7H29q-1.1-.6-1.6-1.75h-.05q-.9-3.4.8-5.45.35-.4.8-.7 1.9-1.65 5.85-2.4l1 .85.65.65q3.4 3.45 1.5 8.45v.05l-.3-.1v-.05q1.6-5.1-1.45-8.3l-.7-.55" fill="#60060c" transform="translate(0 3.15)"/><path d="m34.55 3.8.55.85.3.75q.45 1.35-.1 2.7.8 1.65-.7 1.8-.9-.65-.95.75-.6 2.65-1.4.15-2.7 2.25-4.75-.85.25-1.5 1.2-2.75l1.05-.45q.05 1.15 1.15 1.1l1.15-1.55-.1-.85-.05-.05q.75-1 2.15-1.5l.1-.05.1-.05h.3M33.3 5.35q-.75-.1-.85.6l.05.25.6-.05.15-.15.05-.65m-1.15 3.2q.8-.45.8-1.4-.7-.15-1.15.65-.4.9.35.75m-.6-.85q-1.25.3-1.15.8.6.45 1.15-.8m-1.45.35v-.2l-.15-.1h-.2l-.1.2v.2l.15.15.2-.05.1-.2" fill="#f7504c" transform="translate(0 3.15)"/><path d="m36.55 13.25.1-.1q.55-.35.5-1.5-1.4 1.5-1.2-.85.85-1.7 1.55-.15.45-3.05-1.45-5.55l-.55-.65.7.55q3.05 3.2 1.45 8.3v.05l-1.1-.1m-2-1.7.2-.4.3-.05.15.2.05.4-.25.35-.25.15-.2-.3v-.35" fill="#ddcbff" transform="translate(0 3.15)"/><path d="M34.05 3.9q-1.4.5-2.15 1.5l.05.05.1.85-1.15 1.55q-1.1.05-1.15-1.1l-1.05.45.65-.65.95-.85q1.4-1.05 3.55-1.8h.2m-1.9 4.65q-.75.15-.35-.75.45-.8 1.15-.65 0 .95-.8 1.4m1.15-3.2-.05.65-.15.15-.6.05-.05-.25q.1-.7.85-.6" fill="#fea889" transform="translate(0 3.15)"/><path d="M33.85 3.9q-2.15.75-3.55 1.8l-.95.85-.65.65q-.95 1.25-1.2 2.75-.05-2 1.2-3.4l.85-.75q1.5-1.25 4.3-1.9m-2.3 3.8q-.55 1.25-1.15.8-.1-.5 1.15-.8m-1.45.35-.1.2-.2.05-.15-.15v-.2l.1-.2h.2l.15.1v.2" fill="#fff" transform="translate(0 3.15)"/><path d="M38.75 5.9q1.5 2.25 3.5.6l.3.65.05.1h.2l.45-.85q.05-1.05.7-.55 1.15-.1.55-1.35.4-.95.05-1.95l-.2-.55-.4-.65.6.4.1.1.4.45q1.4 1.85 1.05 4.1-.5-1.15-1.15.1-.15 1.75.9.65.05.85-.35 1.1l-.1.05-.5.05q-.9-.7-2.3-1.1-1.5.7-2.1 1.15l-.5.35q-.7-.5-1.05-1.3V7.4l-.2-1.35V5.9m5.7 1.25-.05-.25-.1-.15h-.2l-.15.3v.25l.15.25.15-.1.2-.3" fill="#a00e15" transform="translate(0 3.15)"/><path d="M43.95 1.35h-.25l-.05.05-.1.05h-.15q-2.05.45-3.15 1.4-.45.2-.6.55-.95 1-.9 2.5v.15l.2 1.35v.05q.35.8 1.05 1.3-.95-.5-1.3-1.35h-.05q-.65-2.5.6-4l.55-.55q1.4-1.2 4.3-1.75l.75.65.5.45q2.5 2.55 1.1 6.2v.05l-.25-.05v-.05q1.2-3.75-1.05-6.1l-.5-.4-.1-.1-.6-.4" fill="#60060c" transform="translate(0 3.15)"/><path d="m43.55 1.45.1-.05.05-.05h.25l.4.65.2.55q.35 1-.05 1.95.6 1.25-.55 1.35-.65-.5-.7.55l-.45.85h-.2l-.05-.1-.3-.65q-2 1.65-3.5-.6.2-1.1.9-2.05l.75-.3q.05.85.85.8l.85-1.15-.1-.6v-.05q.55-.75 1.55-1.1m-1.15 1.5.05.2.4-.05L43 3v-.5q-.55-.05-.6.45m-.5 1.35q-.3.65.25.55.6-.35.6-1.05-.5-.1-.85.5m-1.25.2v-.15l-.1-.1h-.15l-.05.15v.15l.1.1h.15l.05-.15m1.1-.25q-.95.2-.85.55.45.35.85-.55" fill="#f7504c" transform="translate(0 3.15)"/><path d="m44.65 1.85.5.4q2.25 2.35 1.05 6.1v.05l-.8-.1.1-.05q.4-.25.35-1.1-1.05 1.1-.9-.65.65-1.25 1.15-.1.35-2.25-1.05-4.1l-.4-.45m-.2 5.3-.2.3-.15.1-.15-.25v-.25l.15-.3h.2l.1.15.05.25" fill="#ddcbff" transform="translate(0 3.15)"/><path d="M43.55 1.45q-1 .35-1.55 1.1v.05l.1.6-.85 1.15q-.8.05-.85-.8l-.75.3.45-.45.7-.65q1.05-.75 2.6-1.3h.15M41.9 4.3q.35-.6.85-.5 0 .7-.6 1.05-.55.1-.25-.55m.5-1.35q.05-.5.6-.45V3l-.15.1-.4.05-.05-.2" fill="#fea889" transform="translate(0 3.15)"/><path d="M39.65 3.85q-.7.95-.9 2.05-.05-1.5.9-2.5.15-.35.6-.55 1.1-.95 3.15-1.4-1.55.55-2.6 1.3l-.7.65-.45.45m1 .65-.05.15h-.15l-.1-.1V4.4l.05-.15h.15l.1.1v.15m1.1-.25q-.4.9-.85.55-.1-.35.85-.55" fill="#fff" transform="translate(0 3.15)"/></g><g id="r" fill-rule="evenodd"><path d="m7.4 3.85-.1-.35Q6.5 1.7 1.1 0q7 1.1 7.05 4.2-.6 2.55-7.05 3.65l.2-.05.1-.05q5.75-2.1 6-3.9" fill="#584031" transform="translate(2.15)"/><path d="m7.3 3.5.1.35-.45.6q-1.35-2.3-3.7-2.1Q5.15 1.6 7.3 3.5" fill="#edb963" transform="translate(2.15)"/><path d="M7.4 3.85q-.25 1.8-6 3.9l2.1-.95q2.4-1.2 3.45-2.35l.45-.6" fill="#a9fff0" transform="translate(2.15)"/><path d="m1.4 7.75-.1.05Q-.1 7.35-1.45 6-2.6 4.85-1.9 2.95-1.1 1 1.1 0q5.4 1.7 6.2 3.5-2.15-1.9-4.05-1.15l-1.3.3Q-1 4.35 3.5 6.8 1.7 7.15.55 5.6l.85 2.15" fill="#fcdf98" transform="translate(2.15)"/><path d="M3.25 2.35q2.35-.2 3.7 2.1Q5.9 5.6 3.5 6.8-1 4.35 1.95 2.65l1.3-.3" fill="#fff" transform="translate(2.15)"/><path d="m3.5 6.8-2.1.95L.55 5.6Q1.7 7.15 3.5 6.8" fill="#ecb364" transform="translate(2.15)"/></g><g id="s" fill-rule="evenodd"><path d="m27.9 3.3.5.45q.9 1.1 1.05 2.55v.6l-.05 1.05-.45 1.3-.55.85q-1.05 1.2-2.45 1.3h-.2q-1.55 0-2.65-1.3-1-1.25-1.05-2.95V6.9q0-.75.15-1.4.25-.95.9-1.75 1.1-1.3 2.65-1.3 1.25 0 2.15.85m-1.45 2.6q0-.55-.45-.95-.4-.4-1.05-.4-.6 0-1.05.4-.4.4-.4.95 0 .55.4.95.45.4 1.05.4.65 0 1.05-.4l.45-.95m.15-.05q0 .6-.5 1.05-.45.4-1.15.4-.65 0-1.1-.4-.5-.45-.5-1.05 0-.6.5-1 .45-.45 1.1-.45.7 0 1.15.45.5.4.5 1m.75 2.65q-1.1-1.4 1.4-1 .35-.75.3-1.75-.25-1-.85-1.75-1-1.25-2.45-1.25-1.4 0-2.4 1.25-.6.7-.85 1.6l-.15 1.2.05.25q.8 2.75 3.5 2.7h.35Q27.1 9.6 27.8 9l-.45-.5M24.2 9.7q-1.35-.65-1.8-2.1.15 1.3.95 2.25l.35.4q.9.85 2.05.85h.15q1-.05 1.8-.75l.5-.5.35-.55-.6-.25q-.8.8-1.85.9l-1.65-.15-.25-.1m4.9-1.95q-1.3-.45-1.8 0-.2.8 1.4 1.3l.4-1.3M1.95 5.05q.15-.85.65-1.5.8-1 1.9-1 .85 0 1.5.6l.35.4q.7.85.75 2.05l.05.4L7 7.1l-.6 1.3-.05.05q-.75 1-1.85 1l-.75-.1q-.6-.25-1.15-.9L2 7.15 1.85 6.1V6l.1-.95m5 .95-.05-.6-.3 1.2.3.2.05-.8M6.5 4.15l-.25-.4Q5.5 2.8 4.5 2.8t-1.7.95q-.3.35-.45.8-.4 2.25 1.2 3.3.85.55 1.7 0Q4.6 6.1 6.4 6.55q.45-1.15.1-2.4M2.45 7.1q-.35-.7-.3-1.8l-.1.7.2 1.2q.15.6.55 1.05.7.95 1.7.95l1-.25.6-.55-.6-.45q-.65.45-1.4.35l-.4-.15q-.85-.3-1.25-1.05M4.9 4.15q-.35-.35-.85-.35-.45 0-.8.35-.35.3-.35.8t.35.8q.35.35.8.35.5 0 .85-.35.35-.3.35-.8t-.35-.8m.05-.1q.4.35.4.9 0 .5-.4.85-.35.4-.9.4-.5 0-.9-.4-.35-.35-.35-.85 0-.55.35-.9.4-.4.9-.4.55 0 .9.4m.4 2.9q-.15.7.9 1.3l.6-1.3q-1.3-.6-1.5 0" fill="#06050f" transform="translate(.3 2.4)"/><path d="m28.9 2.5.1.1q1.45 1.85 1.45 3.9l-1-.2q-.15-1.45-1.05-2.55l-.5-.45 1-.8" fill="#9340a6" transform="translate(.3 2.4)"/><path d="m27.75 6-.2.05-.05.15.05.2.2.05.15-.05.05-.2-.05-.15-.15-.05m-1.15-.15q0-.6-.5-1-.45-.45-1.15-.45-.65 0-1.1.45-.5.4-.5 1t.5 1.05q.45.4 1.1.4.7 0 1.15-.4.5-.45.5-1.05m-4.1-.25q.25-.9.85-1.6 1-1.25 2.4-1.25 1.45 0 2.45 1.25.6.75.85 1.75.05 1-.3 1.75-2.5-.4-1.4 1-.75.55-1.1 1.25h-.35q-2.7.05-3.5-2.7.75-.75.1-1.45m.4-.75-.1.25.1.2.25.1.2-.1.1-.2-.1-.25-.2-.1-.25.1m3.85 2.6.1-.05.05-.15-.05-.15-.1-.05-.15.05-.05.15.05.15.15.05" fill="#2d2666" transform="translate(.3 2.4)"/><path d="m26.45 5.9-.45.95q-.4.4-1.05.4-.6 0-1.05-.4-.4-.4-.4-.95 0-.55.4-.95.45-.4 1.05-.4.65 0 1.05.4.45.4.45.95" fill="#17153d" transform="translate(.3 2.4)"/><path d="m27.75 6 .15.05.05.15-.05.2-.15.05-.2-.05-.05-.2.05-.15.2-.05m-1 1.45-.15-.05-.05-.15.05-.15.15-.05.1.05.05.15-.05.15-.1.05" fill="#b8fff8" transform="translate(.3 2.4)"/><path d="m28.9 2.5-1 .8q-.9-.85-2.15-.85-1.55 0-2.65 1.3-.65.8-.9 1.75l-.6.05q.45-2.2 2.6-3.9 2.6-1.3 4.7.85" fill="#282669" transform="translate(.3 2.4)"/><path d="M21.55 7.15q-.1-.85.05-1.6l.6-.05q-.15.65-.15 1.4v.25h-.5m.85-.1-.05-.25.15-1.2q.65.7-.1 1.45m6.55 2.2.45-1.3.15.45q.2.65-.6.85m.15-1.5-.4 1.3q-1.6-.5-1.4-1.3.5-.45 1.8 0M1.35 4.8l.6.25-.1.95v.1l-.55.15q-.05-.8.05-1.45M7 7.1q.5 1.05-.3 1.25l-.3.05.6-1.3m-1.65-.15q.2-.6 1.5 0l-.6 1.3q-1.05-.6-.9-1.3" fill="#fff" transform="translate(.3 2.4)"/><path d="m22.9 4.85.25-.1.2.1.1.25-.1.2-.2.1-.25-.1-.1-.2.1-.25" fill="#9bfff9" transform="translate(.3 2.4)"/><path d="M26 12.05h-.1q-2.85-.15-3.85-2.8-.4-1.1-.5-2.1h.5q.05 1.7 1.05 2.95 1.1 1.3 2.65 1.3h.2l.05.65" fill="#72a2ce" transform="translate(.3 2.4)"/><path d="m23.7 10.25-.35-.4q-.8-.95-.95-2.25.45 1.45 1.8 2.1l-.5.55" fill="#68b4d5" transform="translate(.3 2.4)"/><path d="m23.7 10.25.5-.55.25.1 1.65.15-.2.85q-1.1 0-2.2-.55" fill="#5f8fc3" transform="translate(.3 2.4)"/><path d="m29.45 6.3 1 .2-.2 1.75-.15.45-.55-.3-.15-.45.05-1.05v-.6" fill="#6a4c97" transform="translate(.3 2.4)"/><path d="M30.1 8.7q-.95 3.05-4.1 3.35l-.05-.65q1.4-.1 2.45-1.3l.55-.85q.8-.2.6-.85l.55.3" fill="#b6fefd" transform="translate(.3 2.4)"/><path d="m27.35 8.5.45.5q-.7.6-1.55.75.35-.7 1.1-1.25" fill="#77feec" transform="translate(.3 2.4)"/><path d="M26.1 9.95q1.05-.1 1.85-.9l.6.25-.35.55-.5.5-1.8.45.2-.85" fill="#93fff7" transform="translate(.3 2.4)"/><path d="M25.9 11.1h-.15q-1.15 0-2.05-.85 1.1.55 2.2.55v.3" fill="#92fff7" transform="translate(.3 2.4)"/><path d="M27.7 10.35q-.8.7-1.8.75v-.3l1.8-.45" fill="#b6fffe" transform="translate(.3 2.4)"/><path d="M1.35 4.8q.4-2.35 2.55-3.55 1.5-.45 2.65.7l.55.75-1.1.45q-.65-.6-1.5-.6-1.1 0-1.9 1-.5.65-.65 1.5l-.6-.25m.7-1.4-.2.1-.05.25.05.25.2.1.15-.1.1-.25-.1-.25-.15-.1" fill="#302568" transform="translate(.3 2.4)"/><path d="m6 3.15 1.1-.45q.85 1.35.85 3.05L7.1 5.6q-.05-1.2-.75-2.05L6 3.15" fill="#843d9a" transform="translate(.3 2.4)"/><path d="m7.95 5.75-.1 1q-.3 1.15-.8 1.9l-.35-.3q.8-.2.3-1.25L7.15 6l-.05-.4.85.15" fill="#4e4489" transform="translate(.3 2.4)"/><path d="m6.95 6-.05.8-.3-.2.3-1.2.05.6" fill="#7995c2" transform="translate(.3 2.4)"/><path d="M6.5 4.15q.35 1.25-.1 2.4-1.8-.45-1.15 1.3-.85.55-1.7 0-1.6-1.05-1.2-3.3.15-.45.45-.8.7-.95 1.7-.95t1.75.95l.25.4m-1.55-.1q-.35-.4-.9-.4-.5 0-.9.4-.35.35-.35.9 0 .5.35.85.4.4.9.4.55 0 .9-.4.4-.35.4-.85 0-.55-.4-.9m-.5 2.65-.2.05-.1.2.1.15.2.1.15-.1.1-.15-.1-.2-.15-.05" fill="#2f2e74" transform="translate(.3 2.4)"/><path d="m2.05 3.4.15.1.1.25-.1.25-.15.1-.2-.1-.05-.25.05-.25.2-.1" fill="#95fff8" transform="translate(.3 2.4)"/><path d="M4.9 4.15q.35.3.35.8t-.35.8q-.35.35-.85.35-.45 0-.8-.35-.35-.3-.35-.8t.35-.8q.35-.35.8-.35.5 0 .85.35" fill="#1b1a47" transform="translate(.3 2.4)"/><path d="m4.45 6.7.15.05.1.2-.1.15-.15.1-.2-.1-.1-.15.1-.2.2-.05" fill="#9ffff9" transform="translate(.3 2.4)"/><path d="M2.45 7.1q.4.75 1.25 1.05l.15.75 1.65.05-1 .25q-1 0-1.7-.95-.4-.45-.55-1.05l.2-.1" fill="#98fff8" transform="translate(.3 2.4)"/><path d="m3.7 8.15.4.15q.75.1 1.4-.35l.6.45-.6.55-1.65-.05-.15-.75" fill="#5c80bc" transform="translate(.3 2.4)"/><path d="m1.5 7.25-.2-1 .55-.15L2 7.15l-.5.1" fill="#668dc2" transform="translate(.3 2.4)"/><path d="M3.5 9.9q-1.5-.85-2-2.65l.5-.1.6 1.3q.55.65 1.15.9l-.25.55" fill="#bafffd" transform="translate(.3 2.4)"/><path d="M7.05 8.65Q5.95 10.3 3.9 10.1l-.4-.2.25-.55.75.1q1.1 0 1.85-1l.05-.05.3-.05.35.3" fill="#96b9f9" transform="translate(.3 2.4)"/><path d="m28.4-2.4.55.05q.9.1 1.65.65l1.2 1.25-.85-.4-.6-.25-1.1-.4-2.8-.45 1.95-.45m3.25 7.9-1.4-1.25q1.25 3.75-1.2 6.6-3.55 2.8-6.5-.25-1.9-2.75-.8-6.2-.7.5-1.1 1.5Q20.2.8 26.55.35l.8.15q3.75.8 4.75 5.6l-.45-.6m-2.75-3q-2.1-2.15-4.7-.85-2.15 1.7-2.6 3.9-.15.75-.05 1.6.1 1 .5 2.1 1 2.65 3.85 2.8h.1q3.15-.3 4.1-3.35l.15-.45.2-1.75q0-2.05-1.45-3.9l-.1-.1M6.85.65Q8.1 1.7 8.25 4.4q-.35-1.35-1-1.8 2.1 4.2-.9 7.05Q3.6 11.5 1.75 8.4.35 5.4 2 2.7q-1.4 1-2 2.45Q.45.9 4.25 0h1q.95.1 1.6.65M7.1 2.7l-.55-.75Q5.4.8 3.9 1.25 1.75 2.45 1.35 4.8q-.1.65-.05 1.45l.2 1q.5 1.8 2 2.65l.4.2q2.05.2 3.15-1.45.5-.75.8-1.9l.1-1q0-1.7-.85-3.05M3.5-1.6Q1.45-1.2-.3-.1.75-2.3 3.5-1.6" fill="#06050f" transform="translate(.3 2.4)"/></g><g id="t" fill-rule="evenodd"><path d="M6.1.05h2.2Q9.85.3 10 1q.1.7-1.25 1.45-1.4.75-3.45 1.15l-3.6.1-.85-.15q2.05.05 3.5-.75Q6.75 1.85 6.1.05m.9 1-.4.15q-.15.15-.15.4l.15.35.4.15.35-.15.15-.35-.15-.4L7 1.05" fill="#ec746c"/><path d="m7 1.05.35.15.15.4-.15.35L7 2.1l-.4-.15-.15-.35q0-.25.15-.4l.4-.15m-1.75 1-.2.05-.2-.05-.05-.2.05-.2.2-.1.2.1.05.2-.05.2" fill="#fff"/><path d="M.85 3.55Q.1 3.3 0 2.8q-.1-.7 1.25-1.45h.05q-.4 1.2 2.1.6Q5.45 1.05 4.85.2L6.1.05q.65 1.8-1.75 2.75-1.45.8-3.5.75m4.4-1.5.05-.2-.05-.2-.2-.1-.2.1-.05.2.05.2.2.05.2-.05" fill="#ffaec1"/><path d="M1.3 1.35Q2.65.6 4.7.2h.15q.6.85-1.45 1.75-2.5.6-2.1-.6" fill="#ffc7d5"/></g><g id="u" fill-rule="evenodd"><path d="m4.65.5 1.6.8q.9.65.75 1.2-.15.5-1.25.6L3.2 2.85Q1.75 2.45.8 1.8q-.75-.55-.8-1Q1.25 2 3.05 2.2q3.3.4 1.6-1.7" fill="#f4888c"/><path d="M0 .8.05.6Q.2.1 1.3 0l2.55.3.8.2q1.7 2.1-1.6 1.7Q1.25 2 0 .8m3.65.8-.05-.2-.2-.05-.15.05-.05.2.05.15.15.05.2-.05.05-.15m-1-.05L2.9 1 2.65.5l-.6-.25q-.35 0-.6.25L1.2 1l.25.55q.25.2.6.2l.6-.2" fill="#ffc7d5"/><path d="m2.65 1.55-.6.2q-.35 0-.6-.2L1.2 1l.25-.5q.25-.25.6-.25l.6.25.25.5-.25.55m1 .05-.05.15-.2.05-.15-.05-.05-.15.05-.2.15-.05.2.05.05.2" fill="#ffecf1"/></g><g id="v" fill-rule="evenodd"><path d="M1.75 3.45Q2.5 1.7 5 1.35l2.85.25.55.3q.55 1.75.15 2.95L7 6.3q.9-1.9-1.15-3.2-2.25-1.1-4.1.35" fill="#ed6060"/><path d="m7 6.3 1.55-1.45q.4-1.2-.15-2.95l-.55-.3L5 1.35q-2.5.35-3.25 2.1v.1Q1.35 6.05 4 6.6q1.75.35 3-.3m1.45-4.95.15.35.25.95q.4 1.65-.3 3Q7.05 7.2 5 7.05q-3.3-.15-3.5-2.8v-2.9Q.5 1.1 0 0l.45.55q1.2 1.1 3.65.25L3.9.55q1.1.6 2.05.75 2.2.45 3.5-1.25-.35.85-1 1.3M4.1 1l-2.4.4v1.65q1-1.65 3-1.8L4.1 1" fill="#60060c"/><path d="m4.1 1 .6.25q-2 .15-3 1.8V1.4L4.1 1" fill="#be3d20"/><path d="M1.75 3.45Q3.6 2 5.85 3.1 7.9 4.4 7 6.3q-1.25.65-3 .3-2.65-.55-2.25-3.05v-.1" fill="#ff9090"/></g><g id="w" fill-rule="evenodd"><path d="m13.8 8.65 1.05-.85q1-2.55-1.25-4.15-.45-.35-1.05-.6l-.65-.3-1.25-.4.4-.7.85.25q3.9 1.4 4 4.75-.2 2.4-1.75 2.8l-.65.1h-.45l-.6-.15q-.4-.2-.5-.6-.1-.3-.05-.75l-1 .55q-4.35 2.1-5-1l-1 1.15-.65.4L3 9.4h-.1l-.8-.3Q.3 6.5 3.5 2.8 6.25.55 10.7 1.6l-.5.65Q6.4 1.4 3.7 3.4 2.3 5.5 2.05 6.85 1.7 8.6 3.4 8.95q1.6-.35 2.7-2l.3 1.1q1.1 2.55 6.35-1.1l-.6 1q.15 1.75 1.65.7" fill="#6997a0"/><path d="M13.8 8.65q2.05-2.1-.2-5 2.25 1.6 1.25 4.15l-1.05.85" fill="#fff99d"/><path d="M13.6 3.65q2.25 2.9.2 5-1.5 1.05-1.65-.7l.6-1Q7.5 10.6 6.4 8.05q1.1 1.3 2.6-.3.5-1.15 1.65-2.05 1.9.05.95-1.35l.7-.15L9.9 4l.45-1.05q2.1.55 1.55-.2l.65.3q.6.25 1.05.6M2.05 6.85q2.8 2 3.45-1.9.9.8.6 2-1.1 1.65-2.7 2-1.7-.35-1.35-2.1M9.9 2.9l-.4.85q-.8-.2-1.45-.7L9.9 2.9" fill="#c8e0e5"/><path d="m13.5 9.55.65-.1q-2.75 6.1-2.75 10.95-1.9 3.55-5.8 3.7-4.35-.3-5.5-3.4-.5-5.65 2-11.6l.8.3q-1.05 2.55-1.65 5.2l-.6 3.1-.15 1q.95 2.85 4.6 3.5l.4-.05 1.6-.25.85-.3q1.5-.6 2.75-1.75.25-5.4 2.8-10.3m-8.85 12.9-.45-.1-1.45-.5q-.5-.25-.9-.65Q1 20.5.4 19.45v.35q.35 1.55 1.35 2.45l.85.55 1.6.55.55.1h.4l.9-.1Q7.95 23 9.25 22l.2-.15 1.4-1.65-.35.25-1.3.75q-1.45.8-3.15 1.15l-.9.15-.5-.05" fill="#413a7f"/><path d="M2.9 9.4H3l.6 1.05q-.15 0-.25.15l-.1.35.1.35.3.15.25-.15.1-.3q1.05 1 2.65 1.15H7.7v.3l-.55 2.95-1-.65-2.05.4-1.05-1.55-1.35.2 1.3.1.95 1.5 2.25-.3.85.55-.35 1.85-1.55-.1q-2.05-.5-3.9-2.8.6-2.65 1.65-5.2" fill="#aafff0"/><path d="M10.35 2.95 9.9 4l2.4.2-.7.15q-2.3.4-3.8-1.5l.25.2q.65.5 1.45.7l.4-.85.3-.65.5-.65L12.35 0l-1.3 1.65-.4.7-.3.6" fill="#584031"/><path d="M11.9 2.75q.55.75-1.55.2l.3-.6 1.25.4m-.3 1.6q.95 1.4-.95 1.35Q9.5 6.6 9 7.75q-1.5 1.6-2.6.3l-.3-1.1q.3-1.2-.6-2-.65 3.9-3.45 1.9Q2.3 5.5 3.7 3.4q2.7-2 6.5-1.15l-.3.65-1.85.15-.25-.2q1.5 1.9 3.8 1.5" fill="#fff"/><path d="m4.25 9.15.65-.4q1.75 2.1 4.8 1.1l-.65 2.1-.6.15-.1-.25-.3-.15q-.15 0-.25.15l-.1.3H6.65l.5-1.6q-1.7-.25-2.9-1.4m8.2.25.6.15-.5 1.1-.7.3.6-1.55" fill="#4e8fe7"/><path d="m4.9 8.75 1-1.15q.65 3.1 5 1l-.5 1-.7.25q-3.05 1-4.8-1.1" fill="#95ecff"/><path d="M11.95 8.8q.1.4.5.6l-.6 1.55-2.25.85-.55.15.65-2.1.7-.25 1.55-.8" fill="#4f51b9"/><path d="m10.9 8.6 1-.55q-.05.45.05.75l-1.55.8.5-1" fill="#79a0e5"/><path d="m3 9.4 1.25-.25q1.2 1.15 2.9 1.4l-.5 1.6Q5.05 12 4 11v-.05l-.1-.35-.25-.15H3.6L3 9.4m1.2 12.95.45.1.1 1-.55-.1v-1m.95.15.9-.15v1l-.9.1v-.95m-2.55.3-.85-.55.1-1.05q.4.4.9.65l-.15.95" fill="#5ed3ee"/><path d="m11.85 10.95.7-.3q-1 2.35-1.55 4.8l-1.05.8-1.7.9.15-1.35.75-.4.65-1.15-.85 1.05-.5.25Q8.8 13.8 9.6 11.8l2.25-.85" fill="#7ba0e5"/><path d="M9.6 11.8q-.8 2-1.15 3.75l-.6.3-.7-.45.55-2.95.1.15.25.15.3-.15.1-.4v-.1l.6-.15.55-.15" fill="#96ecff"/><path d="m8.45 15.55.5-.25.85-1.05-.65 1.15-.75.4-.55.35-.8-.5-.85-.55-2.25.3L3 13.9l-1.3-.1 1.35-.2 1.05 1.55 2.05-.4 1 .65.7.45.6-.3m0-3.45v.1l-.1.4-.3.15-.25-.15-.1-.15.1-.3h-.1l.1-.3q.1-.15.25-.15l.3.15.1.25M4 11l-.1.3-.25.15-.3-.15-.1-.35.1-.35q.1-.15.25-.15h.05l.25.15.1.35V11" fill="#60060c"/><path d="m9.95 16.25 1.05-.8q-.35 1.65-.55 3.35l-1.2.65.7-3.2" fill="#5d8ee4"/><path d="M13.05 9.55h.45q-2.55 4.9-2.8 10.3Q9.45 21 7.95 21.6l2.45-1.9.05-.9q.2-1.7.55-3.35.55-2.45 1.55-4.8l.5-1.1m-2.55 10.9.35-.25-1.4 1.65 1.05-1.4" fill="#fdf1b0"/><path d="m8.4 15.8-.15 1.35-1.15.3-.4.05.35-1.85.8.5.55-.35" fill="#9eecff"/><path d="m6.7 17.5.4-.05-.55 2.8-.65.05-1.3-.1.55-2.8 1.55.1" fill="#598ee5"/><path d="m8.25 17.15 1.7-.9-.7 3.2-1.35.5-1.35.3.55-2.8 1.15-.3" fill="#6150ae"/><path d="m4.65 22.45.5.05v.95h-.4l-.1-1m-.45.9-1.6-.55.15-.95 1.45.5v1" fill="#b1fffa"/><path d="m5.5 22.15-.4.05q-3.65-.65-4.6-3.5l.15-1q1.75 2.1 3.95 2.5l1.3.1-.4 1.85" fill="#b1ffef"/><path d="m7.95 21.6-.85.3.65-.65.15-1.3 1.35-.5 1.2-.65-.05.9-2.45 1.9" fill="#b79edc"/><path d="m7.1 21.9-1.6.25.4-1.85.65-.05 1.35-.3-.15 1.3-.65.65" fill="#b9ecff"/><path d="m.65 17.7.6-3.1q1.85 2.3 3.9 2.8l-.55 2.8q-2.2-.4-3.95-2.5" fill="#60d3ee"/><path d="m9.2 21.2 1.3-.75-1.05 1.4-.2.15-.05-.8m-7.45 1.05q-1-.9-1.35-2.45v-.35Q1 20.5 1.85 21.2l-.1 1.05" fill="#468eed"/><path d="M6.05 22.35Q7.75 22 9.2 21.2l.05.8q-1.3 1-3.2 1.35v-1" fill="#315bd9"/></g><g id="x" fill-rule="evenodd"><path d="M6.35 3.55q1 3.25-1.7 4.35-2.6.9-4.15-1.15-1.2-2.15.5-4.8Q2.9 0 6.1 0q-.8 1.85.25 3.55m-.75.1q-.75-1-.45-2.95Q.95 1.8.9 5.25 1.4 7.8 4.2 7.2l1.2-.85q.8-1 .2-2.7" fill="#ffff7c"/><path d="M5.6 3.65q.3 1.15-.3 1.7.2-1-.3-1.95-.5-1-.2-1.95Q3.55 1.2 3 2.6q.2 1.75-.65 1.95.6-.75 0-1.95-1.15 1.15-1 2.75.1.95 1 1.4l.45.2h1q.8-.1 1.6-.6l-1.2.85Q1.4 7.8.9 5.25.95 1.8 5.15.7q-.3 1.95.45 2.95M3.05 5q.85-.4.4-1.3-.05-1.1.75-1.1-.75.5-.35 1.25.15 1.05-.8 1.2V5" fill="#ff7a28"/><path d="M2.35 6.75q-.9-.45-1-1.4-.15-1.6 1-2.75.6 1.2 0 1.95.85-.2.65-1.95.55-1.4 1.8-1.15-.3.95.2 1.95.5.95.3 1.95.6-.55.3-1.7.6 1.7-.2 2.7-.8.5-1.6.6 1.45-1.15.75-2.55-.7-.75-.35-1.8-.8 0-.75 1.1.45.9-.4 1.3L3 5.05q-.6.2-.5.9-.55-.5 0-1.3-1.25.75-.15 2.1" fill="#ffc360"/><path d="M3.8 6.95h-1l-.45-.2q-1.1-1.35.15-2.1-.55.8 0 1.3-.1-.7.5-.9h.05q.95-.15.8-1.2-.4-.75.35-1.25-.35 1.05.35 1.8.7 1.4-.75 2.55" fill="#ffa"/></g><g id="y" fill-rule="evenodd"><path d="M3.9 1.8 3 .75 2.9 0l1 .3 1.05 1.1.3.65.25.9.1.65-.8.25-.25-.75-.35-.8-.3-.5" fill="#584031"/><path d="M4.95 1.4q3.7-.95 5.85.8 2 2.85.5 6.05l-.6.15-.4.05-.95-.05q-.8-.25-1.25-.95l-.05-.15Q6.45 9.55 3.6 8q-.5.95-1.5.95l-.85-.1-.05-.15Q-.15 7.6 0 5.3q.6-2.8 3.9-3.5l.3.5Q.4 3.55.7 5.6q.05 1.2.5 1.9.4.65 1.15.9.95 0 .8-.75L2.2 6.4q1.65 1.9 3.55 1.8 1.45-.25 2.3-1.6.7 1.65 2.3 1.35l.15-.05q1.45-2 0-4.8-.5-.85-1.6-1.15L7.65 1.8l-2.4.25-.3-.65M4.8 3.85l.8-.25 1-.45.3-.15Q5.65 4.4 3.3 4.2l1.5-.35" fill="#6997a0"/><path d="M2.1 8.95q1 0 1.5-.95 2.85 1.55 4.45-.7L7.3 8.55l-.9.95h-.55l-2.3.15-1.25.3-.2-1" fill="#95ecff"/><path d="m11.3 8.25 1.4 5.95q1.05 4.95-2.55 6.35Q5 23.25 2.1 18.5q.3-5.1-.85-9.65l.85.1.2 1 .3 1.85.2 1.85.1 3.55.1.35q.5 1.15 1.4 1.75l.05.05q1.15.7 2.95.55l.5-.15L9.7 19l1.1-.85q1-.95 1.65-2.3L10.7 8.4l.6-.15m-1.9 12.1q2.6-1.1 3.1-4.2l-.35.75q-1 1.7-2.9 2.65l-1.05.4-.95.3-2.1-.35-.85-.45q-.95-.65-1.45-1.8l-.05.5q.55 1.3 1.55 1.95l.75.4 2.1.3.65-.05.35-.05 1.05-.3.15-.05" fill="#413a7f"/><path d="m2.3 9.95 1.25-.3.45 1.6-.45.2-.95.35-.3-1.85m.5 3.7 1-.25.6-.2.25 2.45q-.9-.2-1.45-.85.25.8 1.45 1.1v1.3L3 17.55l-.1-.35-.1-3.55" fill="#aafff0"/><path d="m4.55 3.1.25.75-1.5.35q.25-.55 1.25-1.1m1.05.5-.1-.65q.9-.2 1.1.2l-1 .45M2.2 6.4l.95 1.25q.15.75-.8.75-.75-.25-1.15-.9 1.65.65 1-1.1 2.7 2.1 4-.05.3-.85 1.55-1.2 1.55.4 1.9-.35.45-1.55-2-3l1.25.15q2.95 2.5 1.45 6-1.6.3-2.3-1.35-.85 1.35-2.3 1.6-1.9.1-3.55-1.8" fill="#c8e0e5"/><path d="m6.4 9.5.9-.95.5 2.35-.6.65-.5-.25.25.4-.05.05-.35.3-.6.4-.7-1.95.75-.6.4-.4m-2.8 2.4-.05-.45.45-.2.4 1.95-.6.2v-.3q.25-.3 0-1l-.2-.2m4.6 8.8-.35.05-.65.05.05-.55.95-.3v.75m-3.1-.2-.75-.4-.05-.65.85.45-.05.6" fill="#5ed3ee"/><path d="m3.8 13.1-.1.05q-.5-.1-.4-1l-.15-.3.2.2q.15-.15.25-.15l.2.2q.25.7 0 1m.85 2.55 1.8.05.4-.05.7-.15.55-.2 1.25-1.05.2-.2-.2-.6.1-.15.15.3q.45.9 1.1.8-.5.35-1.05-.15l-.25.4q-.5.6-1.3.95l-1.05.3-.2.05-.65.1-1.55-.15q-1.2-.3-1.45-1.1.55.65 1.45.85m2.55-4.1q.45.05.35.7-.1.85-.5.5-.3-.35-.15-1l.05-.05-.25-.4.5.25" fill="#60060c"/><path d="m7.3 8.55.75-1.25.05.15.7 2.05-1 1.4-.5-2.35M3.6 11.9q-.1 0-.25.15l-.2-.2.15.3q-.1.9.4 1l.1-.05v.3l-1 .25-.2-1.85.95-.35.05.45" fill="#4e8fe7"/><path d="m4.2 2.3.35.8q-1 .55-1.25 1.1 2.35.2 3.6-1.2l-.3.15q-.2-.4-1.1-.2l-.25-.9 2.4-.25q2.45 1.45 2 3-.35.75-1.9.35-1.25.35-1.55 1.2-1.3 2.15-4 .05.65 1.75-1 1.1-.45-.7-.5-1.9-.3-2.05 3.5-3.3m1.55 10.3L5 13q-.65-1.15 0-1.45.35-.25.75 1.05" fill="#fff"/><path d="M8.1 7.45q.45.7 1.25.95L8.8 9.5l-.7-2.05" fill="#4f51b9"/><path d="m3.55 9.65 2.3-.15.15.4-.75.6-1.25.75-.45-1.6" fill="#dbfff8"/><path d="m5 13-.6.2-.4-1.95 1.25-.75.7 1.95-.2.15q-.4-1.3-.75-1.05-.65.3 0 1.45" fill="#79e7ff"/><path d="m5 13 .75-.4.2-.15.6-.4q.35 1.75.3 3.6l-.4.05-1.8-.05-.25-2.45.6-.2m1.85 2.95v.1l-2.2 1.15v-1.3l1.55.15.65-.1" fill="#dcfff8"/><path d="M6.85 15.65q.05-1.85-.3-3.6l.35-.3q-.15.65.15 1 .4.35.5-.5.1-.65-.35-.7l.6-.65.3 4.1-.55.5-.7.15" fill="#adfff0"/><path d="m7.8 10.9 1-1.4.75 3.65-.1.15-.1-.25v.4l-.05.05L8.1 15l-.3-4.1" fill="#99ecff"/><path d="M10.35 7.95q1.5-3.5-1.45-6 1.1.3 1.6 1.15 1.45 2.8 0 4.8l-.15.05" fill="#fff99d"/><path d="m9.35 8.4.95.05.5 2.3-.2.5-1.05 1.9L8.8 9.5l.55-1.1" fill="#7ba0e5"/><path d="m10.3 8.45.4-.05 1.75 7.45q-.65 1.35-1.65 2.3l1.25-2.05-.55-2.5-.4-1.6-.3-1.25-.5-2.3m1.85 8.45.35-.75q-.5 3.1-3.1 4.2 2.1-1.3 2.75-3.45" fill="#fff2af"/><path d="m10.6 11.25.2-.5.3 1.25-.2.8-.3-1.55" fill="#538fe6"/><path d="m9.55 13.15 1.05-1.9.3 1.55.2-.8.4 1.6-1.7 2.65-.15-2q.55.5 1.05.15-.65.1-1.1-.8l-.05-.45" fill="#5a51b3"/><path d="m9.3 13.5.05-.05.2.6-.2.2-.05-.75" fill="#5b52b3"/><path d="m8.1 15 1.2-1.5.05.75L8.1 15.3V15" fill="#598ee5"/><path d="m9.65 14.25.15 2-1.75 1.55-1.5.85 1.5-1.25 1.45-1.7-.1-1.05.25-.4" fill="#6050af"/><path d="m9.4 14.65.1 1.05-1.45 1.7.05-1.8q.8-.35 1.3-.95" fill="#5c8ee4"/><path d="m9.8 16.25 1.7-2.65.55 2.5-1.25 2.05-1.1.85.1-2.75" fill="#a09fdf"/><path d="m8.05 17.8 1.75-1.55L9.7 19l-1.8.75.15-1.95" fill="#aaecff"/><path d="m8.05 17.4-1.5 1.25.3-2.6.2-.15 1.05-.3-.05 1.8m.05-2.1-.55.2.55-.5v.3" fill="#68d3ed"/><path d="m6.85 16.05-.3 2.6-2.1.7-.05-.05.25-2.1 2.2-1.15" fill="#7ce7ff"/><path d="m4.65 17.2-.25 2.1q-.9-.6-1.4-1.75l1.65-.35" fill="#5fd3ee"/><path d="m6.55 18.65 1.5-.85-.15 1.95-.5.15q-1.8.15-2.95-.55l2.1-.7" fill="#aefff0"/><path d="m9.25 20.4-1.05.3v-.75l1.05-.4v.85m-4.9-.3q-1-.65-1.55-1.95l.05-.5q.5 1.15 1.45 1.8l.05.65" fill="#468eed"/><path d="m7.2 20.8-2.1-.3.05-.6 2.1.35-.05.55" fill="#b1fffa"/><path d="M12.15 16.9q-.65 2.15-2.75 3.45l-.15.05v-.85q1.9-.95 2.9-2.65" fill="#315bd9"/></g><path d="M34.7-1.25q0 1.55-10.3 2.6L-.4 2.4l-24.85-1.05Q-35.5.3-35.5-1.25q0-1.5 10.25-2.6L-.4-4.9l24.8 1.05q10.3 1.1 10.3 2.6" fill-opacity=".349" fill-rule="evenodd" transform="translate(35.5 4.9)" id="a"/></defs></svg>