<svg xmlns:ffdec="https://www.free-decompiler.com/flash" xmlns:xlink="http://www.w3.org/1999/xlink" ffdec:objectType="frame" height="90" width="90" xmlns="http://www.w3.org/2000/svg"><use ffdec:characterId="24" height="217.15" transform="translate(1.792 4.251) scale(.3813)" width="224.5" xlink:href="#a"/><defs><g id="a" transform="translate(-4.7 -11.15)"><use ffdec:characterId="1" height="9.8" transform="matrix(3.0822 0 0 5.8069 21.42 171.396)" width="55.5" xlink:href="#b"/><use ffdec:characterId="3" height="26.35" transform="translate(152.25 114.35) scale(1.9942)" width="20.25" xlink:href="#c"/><use ffdec:characterId="5" height="38.5" transform="translate(134.65 33.25) scale(1.9942)" width="47.35" xlink:href="#d"/><use ffdec:characterId="7" height="23.1" transform="translate(82.05 21.15) scale(1.9942)" width="28.4" xlink:href="#e"/><use ffdec:characterId="9" height="40.7" transform="translate(66.35 95.95) scale(1.9942)" width="47.2" xlink:href="#f"/><use ffdec:characterId="11" height="51.8" transform="translate(19.1 23.85) scale(1.9942)" width="25.2" xlink:href="#g"/><use ffdec:characterId="13" height="22.8" transform="translate(22.85 161.55) scale(1.9942)" width="32.2" xlink:href="#h"/><use ffdec:characterId="15" height="29.8" transform="translate(127 143.2) scale(1.9942)" width="25.6" xlink:href="#i"/><use ffdec:characterId="17" height="35" transform="translate(73.7 151.7) scale(1.9942)" width="30.6" xlink:href="#j"/><use ffdec:characterId="23" height="83.05" transform="translate(18 11.25) scale(1.9942)" width="85.9" xlink:href="#k"/></g><g id="l" fill-rule="evenodd"><path d="M8.9 14.5q1.6-.85 3.8-3.2l3.1-3.6.15 1.3q0 3.15-1 5.4-.05-3-.35-3.3-.25 1.55-1.35 3L9.3 15.5l-.05.05h.05l3-.4-.45.4q-2 1.85-2.8 1.85-.25 0-.25-.15v-1.1l.1-1.65M18.95 1.3l.2.8.15 1.3-.45 1.75-.95 1.45-.05-.1-.45-1.7-.45-.95 2-2.55" fill="#a55ceb"/><path d="m7.9 13.15 4.65-4.2 3.25-3.2.6.65h.05l.05-.5-.3-1.2-.35-.8L19 0q.4.35.85 1.85l.4 2.3q0 1.45-1.15 3.05l-1.4 1.45q-.05 1.85-.5 3.85l-1.05 3 1.15-.95h.05q.05 2.15-1.2 4.1-.85 1.4-2 2.2l.2-.75-.05-.05h-.5l-.1.05q1.2-1.6 2-3.85l-4.25 2 .8-1.15.45-1.35v-.7l-.4.1-3 .4v-.05l3.95-1.4.25-.15.1 1.1-.2 1.6q.85-.7 1.55-2.15v-.1q1-2.25 1-5.4l-.15-1.3-3.1 3.6q-2.2 2.35-3.8 3.2l-.95.45v-.35l-.05-1.45m5.5 3.5h-.05v.05l.05-.05M18.95 1.3l-2 2.55.45.95.45 1.7.05.1.95-1.45.45-1.75-.15-1.3-.2-.8" fill="#191146"/><path d="m14.15 20.85-.25.45-1.9 1.8q-2.65 2.2-6.15 3.25l-.6-.9L9.6 22.6l2.4-2-3.1.4-2.15-.1-.95.15.35-1.1v-1.8l-.05-1.2-.15-.65-.1-1.2L.6 18.9l-.6-.8 7.8-6.35.1 1.4.05 1.45v.4q-.05 2.05-.7 4.05v.25l2.55.5 3.1.35.8-.05.1-.05h.5l.05.05-.2.75" fill="#0a3a28"/><path d="m5.25 25.45-1.2-1.8q.95-1.6 1.5-3.6l.55-3.1.05 1.2v1.8l-.35 1.1.95-.15 2.15.1 3.1-.4-2.4 2-4.35 2.85" fill="#2b7357"/><path d="M4.05 23.65.6 18.9l5.25-3.8.1 1.2.05.2.1.45-.55 3.1q-.55 2-1.5 3.6" fill="#53a774"/><path d="m7.95 14.95.95-.45-.1 1.65v1.1q0 .15.25.15.8 0 2.8-1.85l.45-.4.4-.1v.7l-.45 1.35-.8 1.15 4.25-2q-.8 2.25-2 3.85l-.8.05-3.1-.35-2.55-.5v-.25q.65-2 .7-4.05v-.05m7-.45q-.7 1.45-1.55 2.15l.2-1.6-.1-1.1-.25.15q1.1-1.45 1.35-3 .3.3.35 3.3v.1" fill="#2c1c81"/></g><g id="m" fill-rule="evenodd"><path d="M0 29.6Q3.85 18.7 15.3 9.5q4.55-3.65 8.85-5.8 4.05-2.05 5.8-1.8h1.2l-.8 1.1-.2 1.4q0 3.3 3.75 3.3 3.05 0 6.85-2.5 3.6-2.35 5.2-5.1l.1-.1q1.3 1.45 1.3 4.85 0 4.55-5.2 9L38.6 16.8q-1.65 1.45-1.65 2.4 0 1.25 1 2.2.95.9 2.25.9l3.35-.65 2.3-.85q1.25 4.75-6.3 11.05-8 6.65-17.4 6.65-4.9 0-10.2-2.8Q5.7 32.35 1.8 30.5L0 29.6M28.35 4.8q-5.95 1.85-14.4 10.6-5.8 6.05-10.75 13.1l1.6.5q2.75 1.05 6.45 3.3 5.7 3.5 11.25 3.5 6.1 0 11.7-3.8 4.55-3.1 8.1-8.15l.05-.05h-.1q-.5.45-1.55.8l-2.45.4q-1.7 0-3.2-1.6-1.4-1.5-1.4-2.75 0-2.25 1.85-4.1.85-.9 4-3.05 3.5-2.4 4.9-5.1.95-1.8.95-3.75l-.1-1.15q-1.6 2.65-5.1 4.85Q35.9 11 31.5 11q-3.75 0-3.75-3.6l.2-1.65q.2-.8.45-.9l.05-.05h-.1" fill="#531115"/><path d="m4.8 29-1.6-.5q4.95-7.05 10.75-13.1 8.45-8.75 14.4-10.6l.05.05q-.25.1-.45.9l-.2 1.65q0 3.6 3.75 3.6 4.4 0 8.65-2.65 3.5-2.2 5.1-4.85l.1 1.15q0 1.95-.95 3.75-2.75 2.3-4.45 3.4-5.8 3.6-11.85 3.6l-3.05-.1q-1.6-.3-1.6-1.45 0-.45.5-1.65l.5-1.4q-2.8 1.85-9.85 8Q6.5 25.85 4.8 29" fill="#f23e31"/><path d="M44.4 8.4q-1.4 2.7-4.9 5.1-3.15 2.15-4 3.05-1.85 1.85-1.85 4.1 0 1.25 1.4 2.75 1.5 1.6 3.2 1.6l2.45-.4q1.05-.35 1.55-.8l.05.05Q38.75 28.9 34.2 32q-5.6 3.8-11.7 3.8-5.55 0-11.25-3.5-3.7-2.25-6.45-3.3 1.7-3.15 9.8-10.2 7.05-6.15 9.85-8l-.5 1.4q-.5 1.2-.5 1.65 0 1.15 1.6 1.45l3.05.1q6.05 0 11.85-3.6 1.7-1.1 4.45-3.4" fill="#9a1520"/></g><g id="n" fill-rule="evenodd"><path d="M0 17.75Q2.3 11.2 9.15 5.7q2.75-2.2 5.35-3.5 2.4-1.2 3.45-1.05h.75l-.5.65-.1.85q0 1.95 2.25 1.95 1.8 0 4.1-1.5 2.15-1.4 3.1-3.05L27.6 0q.8.85.8 2.9 0 2.75-3.1 5.4l-2.15 1.8q-1 .85-1 1.4 0 .75.6 1.35.6.55 1.35.55l2-.4 1.4-.5q.75 2.85-3.8 6.6-4.8 4-10.4 4-2.95 0-6.15-1.7l-6.1-3.1L0 17.75M17 2.9Q13.45 4 8.35 9.25 4.9 12.85 1.9 17.1l.95.3q1.65.65 3.9 2 3.4 2.1 6.75 2.1 3.65 0 7-2.3 2.75-1.85 4.85-4.9l-.95.45-1.45.25q-1.05 0-1.95-.95-.8-.9-.8-1.65 0-1.35 1.1-2.45l2.4-1.85q2.1-1.45 2.95-3.05.55-1.1.55-2.25l-.05-.7Q26.2 3.7 24.1 5q-2.55 1.6-5.2 1.6-2.25 0-2.25-2.15l.1-1 .3-.55H17m8.35 11.4h.05-.05" fill="#531115"/><path d="m2.85 17.4-.95-.3q3-4.25 6.45-7.85Q13.45 4 17 2.9h.05l-.3.55-.1 1q0 2.15 2.25 2.15 2.65 0 5.2-1.6 2.1-1.3 3.05-2.9l.05.7q0 1.15-.55 2.25l-2.7 2.05q-3.45 2.15-7.1 2.15L15 9.2q-.95-.2-.95-.9l.3-1 .3-.8-5.9 4.8q-4.85 4.2-5.9 6.1" fill="#f23e31"/><path d="M26.65 5.05q-.85 1.6-2.95 3.05l-2.4 1.85q-1.1 1.1-1.1 2.45 0 .75.8 1.65.9.95 1.95.95l1.45-.25.95-.45q-2.1 3.05-4.85 4.9-3.35 2.3-7 2.3-3.35 0-6.75-2.1-2.25-1.35-3.9-2 1.05-1.9 5.9-6.1l5.9-4.8-.3.8-.3 1q0 .7.95.9l1.85.05q3.65 0 7.1-2.15l2.7-2.05" fill="#9a1520"/></g><g id="o" fill-rule="evenodd"><path d="m26.65 2.4.1-1.15Q26.9.05 27 0l1.4 8.3q.3 2.15 1.8 4.6l2.4 3.3 4.15 4.8 2.55 2.5q1.4 1.4 4.4 3 2.85 1.55 3.5 2.3h-.5l-1.7-.35-.1-.1h-.05q-2.7-1.7-7.25-4.05-1.5-.8-2.45-1.95L32.6 19.1q-2.2-2.55-3.75-5.75Q27.6 10.7 27.05 8L27 7.6l-.2-1.15-.2-2.8.05-1.25M35 39.7l.05.15-7.35.85q-2.55 0-7.05-1.6-5.25-1.8-9.65-4.7-10.65-6.9-11-16v-1.1q2.15 10.4 12.9 17.15 9.25 5.75 17.6 5.75l4.5-.5" fill="#482612"/><path d="m26.65 2.4-.05 1.25.2 2.8.2 1.15.05.4q1.25 6.95 3.85 11.5 1.6 2.9 4.15 5.45 2.15 1.35 4.6 2.1l5.2 1.35.05.05-3.55 8.6-.2.5-.25.15-3.75 1.55-2.15.45-4.5.5q-8.35 0-17.6-5.75Q2.15 27.7 0 17.3l.55-1.4q.55-1.1 3.05-4.5 2.75-3.8 12.55-6.8 7.5-2.3 9.85-2.3l.65.1" fill="#673214"/><path d="M27.05 8q.55 2.7 1.8 5.35 1.55 3.2 3.75 5.75l2.55 3.25q.95 1.15 2.45 1.95 4.55 2.35 7.25 4.05v.05l-5.2-1.35q-2.45-.75-4.6-2.1-2.55-2.55-4.15-5.45-2.6-4.55-3.85-11.5" fill="#ffc831"/></g><g id="p" fill-rule="evenodd"><path d="M17.05 18.1q1.85.2 7.15 5.2l1 .95-1.9 1.85q-6-5-7.85-5-.95 0-6.1 7.5l-.45.7-.1.1-2.5 3.85Q4.5 36.1 3.9 37.6l-.1.35.1.15q1.3 2.05 5.15 6.05l3.1 3.2-.05 1.1q0 1.8.35 3.35-3.2-2.45-6.55-7.2-3.3-4.65-4.1-7.05l.85-1.75 1.15-2.15.2-.45q1.35-2.45 3-4.75l.2-.3 2.9-3.8.3-.35 3.05-3.4q.9-.95 1.65-1.55l.1-.1q1.1-.85 1.7-.85h.15" fill="#66444a"/><path d="M2.65 35.8Q0 21.6 0 17.7q0-1.5 1.5-2.9Q4.3 12.15 6 9.9q1.1-1.55 2.7-6Q10.15 0 10.35 0q.6 0 2.75 2.55l2.1 2.65 1.85 3.85.45 2.75-.35 3q-.35 1.7-.35 2.15l.25 1.15h-.15q-.6 0-1.7.85l-.45-1.2-.35-1q0-.75.5-1.85.5-1.15.5-3.55 0-2.65-.75-4.4-.75-1.7-3.2-4.45l-.15-.2v.05l-.15 1.75q-.8 4.75-4.95 8.5l-3.3 2.8q-1.5 1.3-1.5 2.25 0 1.35.5 3.9L4 33.2l-.2.45-1.15 2.15" fill="#191146"/><path d="M13.45 20.6 10.4 24l-2.1-6.8 1.1-3.6 1.05-4.2.15-.45.15-.35q.45-1.7.45-3.6l-.05-.9.15-1.75V2.3l.15.2.9 3.85q.65 2.7.65 4.55 0 2.15-.6 3.9l-.6 1.95q0 .8 1.65 3.85" fill="#2c1c81"/><path d="m7.2 28.15-.2.3q-1.65 2.3-3 4.75L1.9 21.55q-.5-2.55-.5-3.9 0-.95 1.5-2.25l3.3-2.8q4.15-3.75 4.95-8.5l.05.9q0 1.9-.45 3.6l-.3.8-1.95 3.5L6 16.5l-1.25 1.3-.75.9 3.2 9.45" fill="#d38bf5"/><path d="m15.2 18.95-.1.1q-.75.6-1.65 1.55-1.65-3.05-1.65-3.85l.6-1.95q.6-1.75.6-3.9 0-1.85-.65-4.55l-.9-3.85q2.45 2.75 3.2 4.45.75 1.75.75 4.4 0 2.4-.5 3.55-.5 1.1-.5 1.85l.35 1 .45 1.2" fill="#5b3aab"/><path d="m10.4 24-.3.35-2.9 3.8L4 18.7l.75-.9L6 16.5l2.5-3.6 1.95-3.5-1.05 4.2-1.1 3.6 2.1 6.8" fill="#a55ceb"/><path d="M23.3 26.1q-3.3 3.5-6.25 8.65L15.4 37.8l-.75-.95L8.8 29.4l.1-.1.45-.7q5.15-7.5 6.1-7.5 1.85 0 7.85 5" fill="#cfb4b9"/><path d="m15.4 37.8-1.8 4.05q-2.35-2.2-4.65-5.15L6.3 33.25l2.5-3.85 5.85 7.45.75.95" fill="#faece9"/><path d="M13.6 41.85q-1.2 3.1-1.45 5.5l-3.1-3.2q-3.85-4-5.15-6.05l-.1-.15.1-.35q.6-1.5 2.4-4.35l2.65 3.45q2.3 2.95 4.65 5.15" fill="#fff"/></g><g id="q" fill-rule="evenodd"><path d="m20 4.65 3.2 1.05q2.8 1 4 2.2l2.7-4.3-3.1-1.05-4.6-1.45-3.1 3.2.9.35m3 2.2q-1.25-.65-2.35-.95l-.4-.1-1.65-.2h-.05l-.5.1-1.1.6q-1 .55-1.7 1.15L13.5 6.7 22 0l5 1.7 5.2 1.6q-2.95 2.85-7.9 12.25l-2.4.3v-.3l-.15-1.1-.2-1.05.7.9q1.8 0 2.15-1.5l1.7-3.65q0-.55-2.5-1.95l-.1-.05-.5-.3" fill="#14445f"/><path d="m26.8 2.55 3.1 1.05-2.7 4.3q-1.2-1.2-4-2.2L20 4.65q.95-.55 1.9-.55.75 0 1.55.65.8.6 1.15.6.65 0 1.5-1.2l.7-1.6M20.25 5.8l.4.1q1.1.3 2.35.95-1.65.25-2.85 1.65-.8.9-1.2 1.95l-.05-.05-1.6-1.5q.6-1.1 1.75-2.15l1.2-.95" fill="#1baced"/><path d="m20 4.65-.9-.35 3.1-3.2 4.6 1.45-.7 1.6q-.85 1.2-1.5 1.2-.35 0-1.15-.6-.8-.65-1.55-.65-.95 0-1.9.55m-4.75 2.8q.7-.6 1.7-1.15l1.1-.6.5-.1h.05q-1.15.95-2.3 2.55l-1.05-.7" fill="#fff"/><path d="m21.55 13.4.2 1.05.15 1.1v.3q-.15 1.1-1.5 1.9l-3.3 1.55-6.8 3.2-1.15.3q-2.35 0-2.35-1.85l.1-1.25-1.5-.1-2.4.2h-.5Q0 19.6 0 17.35q0-3.05 2-7.15 2.1-4.3 4-4.3 1.35 0 4.95 1.2l.4-.3.7-.3 1.45.2 1.75.75 1.05.7 1 .75 1.6 1.5.05.05.1.1 2.5 2.85m-1.5 1.3.7-.5q-.7-2.3-4.05-4.05l-.4-.2q-3.05-1.5-4.6-1.6h-.1L9.85 14.6 8.5 19.65q-.4 1.5 1.7 1.2h.1q2.05-.4 6.2-3.85l3.55-2.3M2.85 18q4.4-.05 5.25-1.75l1.05-4.15.05-.25.9-2.85-.1-.1-3.6-1q-1.15-.6-1.6.2l-.6 1.5-1.6 3.5Q1 16.7 1 17.35 1 18 2.65 18h.2" fill="#66444a"/><path d="m18.6 5.6 1.65.2-1.2.95Q17.9 7.8 17.3 8.9l-1-.75q1.15-1.6 2.3-2.55" fill="#b8d4f9"/><path d="M10.3 20.85h-.1q-2.1.3-1.7-1.2l1.35-5.05 1.75-6.25h.1q1.55.1 4.6 1.6l.4.2q3.35 1.75 4.05 4.05l-.7.5-1.7-1.4q-1.9-1.5-2.55-1.5-1.65 0-3.25 2.2-1.9 2.5-2.25 6.85M2.85 18h-.2Q1 18 1 17.35t1.6-4.25l1.6-3.5.6-1.5q.45-.8 1.6-.2l3.6 1 .1.1-.9 2.85q-.7-.75-1.55-.75-1.55 0-3.2 2.8-1.1 1.85-1.6 4.1" fill="#faece9"/><path d="M10.3 20.85q.35-4.35 2.25-6.85 1.6-2.2 3.25-2.2.65 0 2.55 1.5l1.7 1.4L16.5 17q-4.15 3.45-6.2 3.85m-1.1-9-.05.25-1.05 4.15q-.85 1.7-5.25 1.75.5-2.25 1.6-4.1 1.65-2.8 3.2-2.8.85 0 1.55.75" fill="#cfb4b9"/><path d="m23 6.85.5.3.1.05q2.5 1.4 2.5 1.95l-1.7 3.65q-.35 1.5-2.15 1.5l-.7-.9-2.5-2.85-.1-.1q.4-1.05 1.2-1.95 1.2-1.4 2.85-1.65" fill="#1571a4"/></g><g id="r" fill-rule="evenodd"><path d="M8 1.2q1.7.75 2.6 1.4L15 4.95q6.6 3.4 7.4 10.35v1.1h-.9q-2.3.05-2.85 2.1l-.1-.05-.05-1.25.1-.85.25-.75.55-.45 1.3-.75-2.05-3.35q-1.8-2.5-3.15-3.35l-4.25-1.8Q8.4 4.7 7.3 3.9l.35-.65Q8.5 1.85 8 1.2" fill="#ffc831"/><path d="M18.65 18.5q.55-2.05 2.85-2.1h.9v-1.1Q21.6 8.35 15 4.95L10.6 2.6Q9.7 1.95 8 1.2q.85-.6.75-1.2l1 .75 3.95 2.3Q17.3 5 19.2 6.6q2.6 2.15 3.65 5 .85 2.3.85 5.65v.4l-.9-.05q-1.25 0-2.1.9-.8.8-.8 1.8 0 1.2 1.9 1.2.95 0 1.85-.65l1.95-1.45v-.1q.4 4-5.8 7.05l-.1-1.05 1.65-1.1L22.6 23v-.1l-1.2.3q-1.35 0-2.2-1l-.35-.5-.2-.4-.25-1.2.2-1.55.05-.05M7 6.5l-.25.75-.35.9q-.8 2.3-.8 3.15 0 6.6 5.85 6.6l4-.65q1.9-.55 2.65-1.25-.65.95-2.2 1.9l-1.8.85-.95.25-1.3.1q-3.7 0-5.55-2.2l-.3-.35-.3-.5q-1-1.7-1-4.1 0-2.1.7-3.85.4-1 1-1.6l.1-.15q.35-.35.8-.55l-.3.7" fill="#482612"/><path d="M7.3 3.9q1.1.8 3.95 2l4.25 1.8q1.35.85 3.15 3.35l2.05 3.35-1.3.75-.55.45.3-.55.65-1-1.9-2.85-1.7 1.55q-1.3.95-2.5.95-2.95 0-4.3-2.35L7.5 6l-.5.5.3-.7q-.45.2-.8.55 0-1 .8-2.45" fill="#ac6115"/><path d="m18.85 15.6-.25.75-.1.85.05 1.25.05.1-.2 1.55.25 1.2-.3-.45q-1.3-1.9-4.25-2.1l1.8-.85q1.55-.95 2.2-1.9-.75.7-2.65 1.25l-4 .65q-5.85 0-5.85-6.6 0-.85.8-3.15l.35-.9L7 6.5l.5-.5 1.9 5.35q1.35 2.35 4.3 2.35 1.2 0 2.5-.95l1.7-1.55 1.9 2.85-.65 1-.3.55m0 6.1.35.5q.85 1 2.2 1l1.2-.3v.1l-1.25 1.2-1.65 1.1q-.2-2.2-.85-3.6" fill="#673214"/><path d="m18.65 21.3.2.4q.65 1.4.85 3.6l.1 1.05-1.7.75q-6.45 2.7-11 2.7h-.9q-.3-.05-.3-.5l.3-1.4.4-1.3-2.5.2-2.1-.1q-.9-.2-.9-.95l.2-.6.2-.65q-1.5.35-1.5-.7Q0 22 1.9 19q1.95-3.1 3.2-3.1l.6.15.3.5.3.35q1.85 2.2 5.55 2.2l1.3-.1.95-.25q2.95.2 4.25 2.1l.3.45M4.6 20.5l-2.15 4.15L6 25h1q.2-.8 1.1-2.7l.8-2.1q0-.45-.9-.8l-1.5-.3q-1.05 0-1.9 1.4m-3 2.4.3.1q.8 0 2-2.05 1.2-2.15 1.2-3.7l-.25-.05q-.85 0-2.15 2.4-1.2 2.2-1.2 2.85l.1.45m10.35-3q-1.3 0-1.6.3l-.95 1.6-1.15 3-.8 2.8 6.7-.45q4.65-.7 4.65-2.2 0-2.25-1.9-3.65t-4.95-1.4" fill="#66444a"/><path d="M4.6 20.5q.85-1.4 1.9-1.4l1.5.3q.9.35.9.8l-.8 2.1Q7.2 24.2 7 25H6l-3.55-.35L4.6 20.5m-3 2.4-.1-.45q0-.65 1.2-2.85 1.3-2.4 2.15-2.4l.25.05q0 1.55-1.2 3.7Q2.7 23 1.9 23l-.3-.1m10.35-3q3.05 0 4.95 1.4 1.9 1.4 1.9 3.65 0 1.5-4.65 2.2l-6.7.45.8-2.8 1.15-3 .95-1.6q.3-.3 1.6-.3" fill="#cfb4b9"/></g><g id="s" fill-rule="evenodd"><path d="m12.3 10.15.25-.75 1.2-1.95q1-1.25 3-2 1.35-.5 2.05-.5Q17.6 2.2 15.9.3l1.75-.3q2.45 0 5.45 1.45v.1l-.05.2V3.1l.1 1.05-.35-.7q-.15 1.35-1 2.95-1.4 2.75-3.9 3.6l-.4-.05H17l-4.7.2" fill="#ad6215"/><path d="M15.9.3q1.7 1.9 2.9 4.65-.7 0-2.05.5-2 .75-3 2l-1.2 1.95-.25.75-1.4.4-.1.05L11.9 7l1.35-5.15 1.7-1.2.95-.35m11.75 14.95q-1.1-1.45-3.4-2.9l-2-1.1.65-1.65.75-3.55q.7 1.7 2.35 3 1.5 1.15 2.95 1.7 0 .8-1.3 4.5" fill="#673214"/><path d="m12.3 10.15 4.7-.2h.5l.4.05q2.25.25 4.35 1.25l2 1.1q2.3 1.45 3.4 2.9l.15.25.5 1-.5 2.05-1.6 5.95-.7-1.2.4-1 .15-.7.05-1.05v-.05q0-2.85-4.5-5.4-2.75-1.55-5.6-2.15l-3.35-.35h-.15q-2.25 0-3.05 1.15-.55.7-1.5 3.05l-.05-.05L6.65 16l2.05-4.3q.85-.6 1.9-1l.2-.1.1-.05 1.4-.4m5.2.55-3.4-.4-1.85.35-1.6.7-.15.1-.05.25q0 .45 1.35.45l1.2-.1 3.3.25 1.15.2h.1q2.1.5 4.75 1.8 1.35.65 2.4 2.1 1 1.4 1.7 1.6 1.4-1.2.3-2.7-1.15-1.5-2.95-2.5-.85-.5-1.95-.9l-2.6-.85-1.7-.35" fill="#15435d"/><path d="m23.15 4.15-.1-1.05v-.95q.4 4 3.3 5.95 1.45 1 4.25 1.6-.95 1.55-2.3 6.8l-.5-1-.15-.25q1.3-3.7 1.3-4.5-1.45-.55-2.95-1.7-1.65-1.3-2.35-3l-.15-.4-.2-.65-.15-.85m-9.9-2.3L11.9 7l-1.1 3.6-.2.1q-1.05.4-1.9 1l1-2.35L12.95 2l.5-1.1-.2.95" fill="#482612"/><path d="M7.95 16.8q.95-2.35 1.5-3.05.8-1.15 3.05-1.15h.15l-2 4.9.2.65-.5 1-2.4-2.35M16 12.95q2.85.6 5.6 2.15 4.5 2.55 4.5 5.4v.05q-.95-2.4-3.25-4.1-3.05-2.25-7.1-2.25h-.5l.75-1.25" fill="#1baaea"/><path d="m12.65 12.6 3.35.35-.75 1.25-.2.35q-.85 1.5-1.45 3.1l-1-.05q-1.2 0-1.7.45l-.05.1-.2-.65 2-4.9m4.85-.1h-.05l-1.15-.2-3.3-.25-1.2.1q-1.35 0-1.35-.45l.05-.25.15-.1 1.6-.7 1.85-.35 3.4.4.1.9-.1.9" fill="#fff"/><path d="m6.65 16 1.25.75.05.05 2.4 2.35.5-1 .05-.1q.5-.45 1.7-.45l1 .05q3.25.35 7.8 2.85l3 1.65 1.1 1.15.7 1.2-.8 1.8q-4.05 4.85-8.5 7.05Q13.55 35 10.35 35q-1.6 0-2-1.5-.2-.65-.15-3l-4.25.95-.65.05q-2.05.25-2.65-.7Q0 29.85 0 28.2q0-5.4 1.2-8.7 1.35-3.8 4-3.8l1.45.3m3.05 4.5.2-.5q-2.65-2-4.2-2.25h-.15l-.3-.05q-1.95 0-2.7 2.6-.65 2.2-1.15 9.45l.7.05 1.7-.2 2.05-.4 3.05-.8q.4-.95.35-4.1 0-2.5.45-3.8m14.65 5.2.45-.9q0-2.4-4.9-4.3-3.85-1.5-6.6-1.6h-.4q-1.9 0-2.5 4.6-.15 1.35-.35 9.1l1.3-.2 1.35-.3q1.45-.45 3.6-1.7l5.45-2.95 2.6-1.75" fill="#66444a"/><path d="m3.8 29.6-1.7.2-.7-.05q.5-7.25 1.15-9.45.75-2.6 2.7-2.6l.3.05h.15Q7.25 18 9.9 20l-.2.5-.95-.3-1.55-.3q-2.1 0-2.6.5-.95.9-.95 4.4l.15 4.8m7.55 2.8-1.3.2q.2-7.75.35-9.1.6-4.6 2.5-4.6h.4q2.75.1 6.6 1.6 4.9 1.9 4.9 4.3l-.45.9-3.65-2.2q-2.95-1.75-3.9-1.75-1.55 0-3.5 4.05-1.9 3.85-1.95 6.6" fill="#faece9"/><path d="m3.8 29.6-.15-4.8q0-3.5.95-4.4.5-.5 2.6-.5l1.55.3.95.3q-.45 1.3-.45 3.8.05 3.15-.35 4.1l-3.05.8-2.05.4m20.55-3.9-2.6 1.75-5.45 2.95q-2.15 1.25-3.6 1.7l-1.35.3q.05-2.75 1.95-6.6 1.95-4.05 3.5-4.05.95 0 3.9 1.75l3.65 2.2" fill="#cfb4b9"/><path d="M17.9 10q2.5-.85 3.9-3.6.85-1.6 1-2.95l.35.7.15.85.2.65.15.4-.75 3.55-.65 1.65q-2.1-1-4.35-1.25" fill="#ffc831"/><path d="m26.1 20.55-.05 1.05-.15.7-.4 1-1.1-1.15-3-1.65q-4.55-2.5-7.8-2.85.6-1.6 1.45-3.1l.2-.35h.5q4.05 0 7.1 2.25 2.3 1.7 3.25 4.1m-8.6-9.85 1.7.35 2.6.85q1.1.4 1.95.9 1.8 1 2.95 2.5 1.1 1.5-.3 2.7-.7-.2-1.7-1.6-1.05-1.45-2.4-2.1-2.65-1.3-4.75-1.8h-.05l.1-.9-.1-.9" fill="#1571a4"/></g><g id="t"><path d="m66.35 8 7.3 10.25q3.6 4.65 10.25 10.5l.2.2-.05.15q-.5 1.45-2.7 4.35-2.35 3-4.1 4.6-5.6 5-8 6.1l-.8-.75q2-1.45 6.05-5.9 5.55-6 5.55-7.25 0-.45-1.55-2.35l-2.95-3.65q-5.5-7.4-8.5-13.1l-.4-1.6-.3-1.55" fill="#5b3aab" fill-rule="evenodd"/><path d="M69.25 44.15q2.4-1.1 8-6.1 1.75-1.6 4.1-4.6 2.2-2.9 2.7-4.35l.05-.15-.2-.2q-6.65-5.85-10.25-10.5L66.35 8l-.6-.85-.55 1.55-1.7 4.35q-1.8 5.05-2.65 8.4l-.4-.45h-.4l-.65.1v-.85q.05-3.1 2.35-8.5 1.8-4.2 3.55-6.6l.2-.3.7-.85Q72 14.95 76.85 20.5l9.05 8.45q-4.4 6.55-10.3 11.9l-1.8 1.6q-.3-.3-.55-.3-.7 0-1.95 1.15l-1.5 1.15-.55-.3" fill="#191146" fill-rule="evenodd"/><path d="m66.35 8 .3 1.55.4 1.6q1 4.4 2.35 8.4l1.85 6q0 .8-3.75 6.1l-4.2 5.7-1.9-2.5-1.45-2.1 3.35-4.35q2.35-3.45 2.35-4.8l-.3-5.65q-.3-3.55-.3-6.1l.15-3.15.55-1.55.6.85" fill="#a55ceb" fill-rule="evenodd"/><path d="M60.85 21.45q.85-3.35 2.65-8.4l1.7-4.35-.15 3.15q0 2.55.3 6.1l.3 5.65q0 1.35-2.35 4.8l-3.35 4.35q-1.5-2.4-1.5-3.5 0-1.2 1.2-4.5l.7-1.7.15-.4.2-.5.15-.7" fill="#d38bf5" fill-rule="evenodd"/><path d="M67.05 11.15q3 5.7 8.5 13.1l2.95 3.65q1.55 1.9 1.55 2.35 0 1.25-5.55 7.25-4.05 4.45-6.05 5.9l-4.6-5.35-.55-.7 4.2-5.7q3.75-5.3 3.75-6.1l-1.85-6q-1.35-4-2.35-8.4" fill="#2c1c81" fill-rule="evenodd"/><path d="M59.4 20.25v.85l-1.15.15-.55.2-.3.4-.2.2-7.5-.55q-7-1.2-9.7-5.05l-.75 1.15-1.05 1.55q-1.5 2.6-1.75 4.15l-.1.85q-.5-.85-1.3-4.55-.8-3.85-.8-6.05l.1-1.2.1-.8.2-.8q-.65-.2-1.75-3.35-.95-2.7-1.15-3.85l-.2.1Q30.2 6.6 28.6 11.7q-2.45 7.75-2.65 12.65l-.25.2L23.9 26l-3 2.5q.15-1 1.25-2.4 1.7-2.15 2-3.75 1-5.9 1.85-8.75Q28.4 5.15 32.9 0q3.15 12.4 11.65 16.9 4.5 2.45 14.85 3.35m9.1 30.7 1.95 1.55 1-1.45q1.2 1.65 2.9 2.95l1.9 1.25q2.85 1.6 5.6 2.1-4.7 5.1-10.5 7.3-4.05 1.6-8.1 1.6l-4.3-.9q.8 2.6 1.85 3.75 1.1 1.3 3.05 2.2l-2.05 1.2q-2.45 1.05-5.9 1.05-2.15 0-4.6-.85-2.3-.8-3.6-1.8l.3 1.15.35 1.95q0 1-.95 2.95l-.15.35-.3.45-.2.35Q46 77 44.6 76.05q-1.85-1.3-3.05-1.3-.8 0-1.45 1.85l-.3.85q-.55 1.9-.55 3.65l-1.75-.65-.7-.25-3.85-1.45.35 2.4.15.75.25 1.15q-3.75-.8-7.15-2.9-3.65-2.2-5.35-5.05-2.25 1.95-4.95 1.95l-1.5-.2-1.1-.2q.35-.6.75-3.05l.3-2.85-1 .5-1.4.55-3.7.65q-2.5 0-5.6-1.5-2.15-1-3-2.1 3.5-2.65 6.05-6.3 2.7-3.9 4-8.5l1.55 2.8q-1.05 3.25-3.3 6.6-3.1 4.7-5.15 5.3l-.1.1q.1.25 1.2.5l2.4.2 5.95-.7q1.85-.45 5.2-1.95.15-.05.35-.15l.05.05-1.1 1.25-.95 1.05.4 3.4q0 1.6-.6 2.55h.7l1.75-.4 1.6-.8-.35-1-.1-.35-.25-1.55v-.05l-.05-.45.05-.95q1.1 2.7 2.7 4.9 3.9 5.4 10.75 7.75l-.65-2.25-.15-.45-1.15-2.35 4.55 1.75 1.85.5 1.15.2q.1-2.2 1.05-4.35.55-1.3 1.25-2.05.7-.85 1.6-1.05l-.95 1.65h.45q1.65.2 3.1 1.1 1.3.85 2 1.95l.1.15q.4-.45.45-1.25l-.05-2.25-.05-1.6-.45-1.7-1.7-1.9 2.3 1.6q2.3 1.5 3.95 2l5.7.6 3.3-.35.15-.05 2-.6q-1.5-1.05-2.7-2.25-2.3-2.25-2.3-4.2l.05-.4q-.7-.2-1.5-.75-1.15-.75-1.6-1.7.95 1.05 4.25 1.95l5.55.85q4.95 0 8-1.3 3.15-1.35 6.5-4.75-4.3-1.7-6.7-3.7-2.2-1.8-3.6-4.25m-29.8-33.9.85-1.3-1.95-1.35q-1.3-1.05-2.05-2.15l-.15 1.3-.15 2.55.25 2.4.15.8.5 2.2.1.25q.1-.65 1.5-3.1l.95-1.6m-17 46.65 1.2.45 1.75 4.5 3-1.9 6.9 2.5 3.95-4.15.9.4.45.2-4.8 4.85-7-2.6-.2.2-3.5 2.8-.35-1-2.3-6.25" fill="#0a3a28" fill-rule="evenodd"/><path d="m68.45 43.4.8.75.55.3 1.5-1.15q1.25-1.15 1.95-1.15.25 0 .55.3l.45.75.5 1.05-.15.35-1.35 2.95-1.7 3.3-.1.2-1 1.45-1.95-1.55-.45-.4-.15-.1-.8-.7-4.9-4.55q-3.95-3.8-6.9-7.5l-3.15-4.2-.05-.15-.05-.55q0-1.85 1.55-5.15l.15-.35q.9-1.85 1.85-3.2l.8-1.1.4-.45.5-.4v-.1l.1-.2.3-.4.55-.2 1.15-.15.65-.1h.4l.4.45-.15.7-.2.5-.15.4-.7 1.7q-1.2 3.3-1.2 4.5 0 1.1 1.5 3.5l1.45 2.1 1.9 2.5.55.7 4.6 5.35M57.9 27.75l1.3-4.7.25-.85v-.1l-.2-.15-.25-.1-.4.25-.7.95q-.8 1.1-2.05 3.2L54.6 28.5q-1.25 2.45-1.4 3.8l-.05.4v.05l.05.4.35.4 2.7 3.2 7.8 9.3 3.2 2.95.45.35q1.65 1.1 2.85 1l.2-.25.05-.05.1-.15q.9-1.15 1.5-2.7.65-1.65.65-2.65l-.2-.6-.35-.3q-.05 0-1.4 1.15-1.35 1.15-1.6 1.15l-1.95-2-.05-.1-5.05-5.6-1.95-2.5-1.4-2q-1.75-2.7-1.75-4.15l.55-1.85m-20.8-.65 2.65-4.65q1.85 1.6 4 2.95 1.1.75 1.3 1.25v.15l-.05.55-.25.9-.5 1.1q-.9 1.9-2.3 3.8l-.2.2-4.2-3.75-.2-.2-.2-.15-.8-.9.05-.05.7-1.2m4.5 4.9.05.05q.5-1.5 1.35-3.45v-.05l.55-1.85q0-.45-1.55-1.4l-2.1-1.25-.4.95-1.45 3.3.7 1.1.75.8 2.1 1.8m-15.65-7.65 1.5-1.15 1-.8.15.3 1.35 2.2 2.25 3.7.2.3.55.95.05.05.1.15 1.55 3-7.15 6.05-3.05 2.5-.05-.15-2.05-5.3-1.8-5.2-.3-.95-.25-.75.6-.5.3-.25 3-2.5 1.8-1.45.25-.2m-1.3 14.9.2.6.1-.1.95-.9 2.3-2.2 4.35-3.9-4.3-8.4-.25.25-1.05.9-1.05.85-4.6 3.7 1.3 3.85 2.05 5.35" fill="#66444a" fill-rule="evenodd"/><path d="m57.2 22.05.1.1-.5.4-1.1.4q-9.05-.5-13.55-3.1l-2.9-2.25.75-1.15q2.7 3.85 9.7 5.05l7.5.55m-22.85-9.7-2.25-2.7q-.8 1.55-2.35 5.85-1.5 4.15-2.3 7.7l-1.5 1.15q.2-4.9 2.65-12.65 1.6-5.1 2.95-8.05l.2-.1q.2 1.15 1.15 3.85 1.1 3.15 1.75 3.35l-.2.8-.1.8m1.05 1.2.15-1.3q.75 1.1 2.05 2.15l1.95 1.35-.85 1.3-3.3-3.5m-15.55 54.6q1 2.45 7.1 7.7l-.1-1.2q0-.9.3-2.6l.3-1.8q.55 1.7 4.4 9.2l.25.45.65 2.25Q25.9 79.8 22 74.4q-1.6-2.2-2.7-4.9l-.05.95.05.45h-.05q-.5-1.1-.5-1.7 0-.35.9-.95l.2-.1m-2.75-3.7 1.2 1.35-.5 1.1q-3.35 1.5-5.2 1.95l-5.95.7-2.4-.2q-1.1-.25-1.2-.5l.1-.1q2.05-.6 5.15-5.3 2.25-3.35 3.3-6.6l1.25 2-3.3 4.65-4.05 4.75-.25.2q7.65-1 11.85-4m0 3.6q.55.9.95 2.65.45 2 .2 3.05v.1h.05q.25-.3.95-.7l.4-.3.35 1-1.6.8-1.75.4h-.7q.6-.95.6-2.55l-.4-3.4.95-1.05" fill="#b8e792" fill-rule="evenodd"/><path d="m56.8 22.55-.4.45-.8 1.1L45 27.35l.05-.55v-.15l6.5-2.15 4.15-1.55 1.1-.4m10.3 27.2.8.7.15.1-.6 3.25-.95 2.85-.95-1q-1.25-1.2-3.65-1.2-2.9 0-4.95 1-2.3 1.1-2.3 2.85l.2 1.6.8 1.35h-1.2l-2.7-1.05-1.6-.95q-.5 1.05-4.1 3.5L40.45 66l-.6-.3-.45-.2-.9-.4-2.55-1.1-6.1-2.25q-.4.8-3.2 3.8l-3.75-1.4-1.2-.45-2.05-.85-.5 1.65-.5 1.7-.35-.4-1.2-1.35-1.65-2-1.2-1.55-1.4-2.05-1.25-2-1.55-2.8-1.9-3.8q.15-6.45 3.9-12.8 1.45-2.55 4.9-5.25l1-.75q1.4-1.05 2.3-1.45l.3.95q-1.25.4-2.4 1.2-3.3 2.25-5.8 7.45Q9.7 45.2 9.5 49.8l-.05.85v.05q0 .65.4.85l.55 1.1 1.55 3.1 1.3 2.35 2.55 4 1.6 2.15.15.2h.2l.1-.55.25-.8.65-1.35 2.55.75 1.1.3.65.15q2.5.65 3.3 1.4l1.95-2.4q.8-.9 1.95-.9.8 0 4.9 1.35l4.6 1.35h.3l.8-.15 4.3-2.85q3.75-3 4.15-3 .45 0 2.2 1.3l2.15 1.6q-.3-.95-.3-1.6 0-2.25 1.9-3.7 1.95-1.5 4.9-1.5 2.8 0 6.05 1l.5-2q.4-1.8.4-3.1m-31.65-21.3.9-.15v.05l.8.9-1.4.2-2.75.45-.05-.05-.55-.95 3.05-.45" fill="#482612" fill-rule="evenodd"/><path d="M53.2 32.3q.15-1.35 1.4-3.8l1.25-2.25q1.25-2.1 2.05-3.2l.7-.95.4-.25.25.1.2.15v.1l-.25.85-1.3 4.7-4.7 4.55m7.3 3.45 1.95 2.5 5.05 5.6.05.1 1.95 2q.25 0 1.6-1.15t1.4-1.15l.35.3.2.6q0 1-.65 2.65-.6 1.55-1.5 2.7l-.1.15-.05.05L65 44l-.85-1.05-2.2-2.65-2.9-3.35.55-.4.9-.8M39.5 25l.4-.95L42 25.3q1.55.95 1.55 1.4L43 28.55v.05q-.85 1.95-1.35 3.45L41.6 32l-.9-2.9-.3-.9-.9-3.2M28 24.6l.25-.25 4.3 8.4-4.35 3.9-2.3 2.2-.95.9-.1.1-.2-.6q.5-3.9 1.85-9.05l.25-1.1L28 24.6" fill="#cfb4b9" fill-rule="evenodd"/><path d="m68.05 50.55.45.4q1.4 2.45 3.6 4.25 2.4 2 6.7 3.7-3.35 3.4-6.5 4.75-3.05 1.3-8 1.3l-5.55-.85q-3.3-.9-4.25-1.95.45.95 1.6 1.7.8.55 1.5.75l-.05.4q0 1.95 2.3 4.2 1.2 1.2 2.7 2.25l-2 .6-.15.05q-4.1-1.3-7.4-3.95l-4-4.2q-.25 0-1.55.75l-1.3.75.7 2.3.6 2.1-2.3-1.6 1.7 1.9.45 1.7.05 1.6.05 2.25q-.05.8-.45 1.25l-.1-.15q-.3-2.35-1.35-4.25-.8-1.4-2.75-3.2-.4.35-1.65 2.8l-.45 1q-.7.75-1.25 2.05-.95 2.15-1.05 4.35l-1.15-.2q-1.55-5.4-3.05-6.45l-2.6-1.4q-1.8-1.1-3.7-3.35l.2-.2 7 2.6 4.8-4.85.6.3 5.6-3.25q3.6-2.45 4.1-3.5l1.6.95 2.7 1.05h1.2l-.8-1.35-.2-1.6q0-1.75 2.3-2.85 2.05-1 4.95-1 2.4 0 3.65 1.2l.95 1 .95-2.85.6-3.25M55.7 22.95l-4.15 1.55-6.5 2.15q-.2-.5-1.3-1.25-2.15-1.35-4-2.95L37.1 27.1l-.1-.5-.55-3.3q.25-1.55 1.75-4.15l1.05-1.55 2.9 2.25q4.5 2.6 13.55 3.1M29.95 24.9l.15-.95q1.2-6.35 1.9-8.4l2.75 10.35.7 2.55-3.05.45-.2-.3-2.25-3.7m8.75-7.85-.95 1.6q-1.4 2.45-1.5 3.1l-.1-.25-.65-3-.25-2.4.15-2.55 3.3 3.5m-17 46.65 2.3 6.25q-.8-.45-1.75-1.3l-1.15-1q-.5 0-1.25.5l-.2.1q-.9.6-.9.95 0 .6.5 1.7l.05.05.25 1.55.1.35-.4.3q-.7.4-.95.7l-.05-.1q.25-1.05-.2-3.05-.4-1.75-.95-2.65l1.1-1.25-.05-.05q-.2.1-.35.15l.5-1.1.35.4.5-1.7.5-1.65 2.05.85m-6.25-1.25 1.65 2q-4.2 3-11.85 4l.25-.2q2.5-.8 4.95-2.15 2.85-1.6 5-3.65" fill="#2a7559" fill-rule="evenodd"/><path d="m57.9 27.75-.55 1.85q0 1.45 1.75 4.15l-.65.7-2.2 2.3-2.7-3.2-.35-.4-.05-.4v-.05l.05-.4 4.7-4.55M39.5 25l.9 3.2.3.9.9 2.9-2.1-1.8-.75-.8-.7-1.1L39.5 25M24.65 39.25 22.6 33.9l-1.3-3.85 4.6-3.7 1.05-.85 1.05-.9-1.25 4.5-.25 1.1q-1.35 5.15-1.85 9.05M14 44.65l.5.05q1.85.25 1.85 2.65 0 1.8-3.05 1.8-.55 0-.95-.5-.4-.5-.4-1.2 0-1.45 1.25-2.2.35-.6.8-.6" fill="#fff" fill-rule="evenodd"/><path d="M55.6 24.1q-.95 1.35-1.85 3.2l-.15.35q-1.55 3.3-1.55 5.15l.05.55.05.15 3.15 4.2q2.95 3.7 6.9 7.5l4.9 4.55q0 1.3-.4 3.1l-.5 2q-3.25-1-6.05-1-2.95 0-4.9 1.5-1.9 1.45-1.9 3.7 0 .65.3 1.6l-2.15-1.6q-1.75-1.3-2.2-1.3-.4 0-4.15 3l-4.3 2.85 2.5-3.45 3.7-5.1 3.4-4.5-.7-7.05-.15-1.55-.3-3.45-3.95-1.9-3.55-1.75q-2.9.55-7.7 2.25l-6.6 2 7.15-6.05-1.55-3-.1-.15 2.75-.45 1.4-.2.2.15.2.2 4.2 3.75.2-.2q1.4-1.9 2.3-3.8l.5-1.1.25-.9 10.6-3.25" fill="#673214" fill-rule="evenodd"/><path d="m59.1 33.75 1.4 2-.9.8-.55.4 2.9 3.35 2.2 2.65L65 44l5.75 6.1-.2.25q-1.2.1-2.85-1l-.45-.35-3.2-2.95-7.8-9.3 2.2-2.3.65-.7" fill="#faece9" fill-rule="evenodd"/><path d="m27.5 39.1 6.6-2q4.8-1.7 7.7-2.25l3.55 1.75q-5.9 3.7-11.25 8.95-5.95 5.85-5.95 8.2 0 .7.55.7l3.65-2.55q4.05-3.15 6-4.35 3.95-2.8 6.15-3.95 2.35-1.2 5.1-1.65l.15 1.55.7 7.05-3.4 4.5-3.7 5.1q-2.95 1.3-5.8 1.3l-5.9-.95-3.8-.95q-.9 0-2 1.4l-1.3 1.4q-.75 0-3.65-1.65l-2.65-1.65-.5-.5-.25.85-.5.75h-.05l-2.65-4.4-.3-.6Q11.5 50.6 11.45 50l.1-.05q4.95 3.2 11.25 3.2 3.25 0 6.5-4.65 3.55-5.85 5.75-8.35l-12.5 2.5q-.65 0-2.55-5.1l-1.85-5.4q1.15-.8 2.4-1.2l1.8 5.2 2.05 5.3.05.15 3.05-2.5" fill="#ac6115" fill-rule="evenodd"/><path d="m45.35 36.6 3.95 1.9.3 3.45q-2.75.45-5.1 1.65-2.2 1.15-6.15 3.95-1.95 1.2-6 4.35l-3.65 2.55q-.55 0-.55-.7 0-2.35 5.95-8.2 5.35-5.25 11.25-8.95m-2 23.55-2.5 3.45-.8.15h-.3l-4.6-1.35q-4.1-1.35-4.9-1.35-1.15 0-1.95.9l-1.95 2.4q-.8-.75-3.3-1.4l-.65-.15-1.1-.3-2.55-.75-.65 1.35-.25.8-.1.55h-.2l-.15-.2-1.6-2.15-2.55-4-1.3-2.35-1.55-3.1-.55-1.1q-.4-.2-.4-.85v-.05l.05-.85q.2-4.6 2.85-10.2 2.5-5.2 5.8-7.45l1.85 5.4q1.9 5.1 2.55 5.1l12.5-2.5q-2.2 2.5-5.75 8.35-3.25 4.65-6.5 4.65-6.3 0-11.25-3.2h-.1V50q.05.6 2.55 5.15l.3.6 2.65 4.4H17l.5-.75.25-.85.5.5 2.65 1.65q2.9 1.65 3.65 1.65l1.3-1.4q1.1-1.4 2-1.4l3.8.95 5.9.95q2.85 0 5.8-1.3M14 44.65q-.45 0-.8.6-1.25.75-1.25 2.2 0 .7.4 1.2t.95.5q3.05 0 3.05-1.8 0-2.4-1.85-2.65l-.5-.05" fill="#ffc831" fill-rule="evenodd"/><path d="m36.45 23.3.55 3.3.1.5-.7 1.2h-.05l-.9.15-.7-2.55L32 15.55q-.7 2.05-1.9 8.4l-.15.95-1.35-2.2-.15-.3-1 .8q.8-3.55 2.3-7.7 1.55-4.3 2.35-5.85l2.25 2.7-.1 1.2q0 2.2.8 6.05.8 3.7 1.3 4.55l.1-.85M24 69.95l.35 1 3.5-2.8q1.9 2.25 3.7 3.35l2.6 1.4q1.5 1.05 3.05 6.45l-1.85-.5-4.55-1.75 1.15 2.35h-.1q-3.85-7.5-4.4-9.2l-.3 1.8q-.3 1.7-.3 2.6l.1 1.2q-6.1-5.25-7.1-7.7.75-.5 1.25-.5l1.15 1q.95.85 1.75 1.3m-11.15-11.1 1.4 2.05 1.2 1.55q-2.15 2.05-5 3.65Q8 67.45 5.5 68.25l4.05-4.75 3.3-4.65M60.4 72.1l-3.3.35-5.7-.6q-1.65-.5-3.95-2l-.6-2.1-.7-2.3 1.3-.75q1.3-.75 1.55-.75l4 4.2q3.3 2.65 7.4 3.95m-13.55 4.7q-.7-1.1-2-1.95-1.45-.9-3.1-1.1h-.45l.95-1.65q-.9.2-1.6 1.05l.45-1q1.25-2.45 1.65-2.8 1.95 1.8 2.75 3.2 1.05 1.9 1.35 4.25" fill="#53a774" fill-rule="evenodd"/><path d="m38.5 65.1-3.95 4.15-6.9-2.5-3 1.9-1.75-4.5 3.75 1.4q2.8-3 3.2-3.8l6.1 2.25 2.55 1.1m11.25-27.35q-.15 10.6-3.15 13.8Q44.1 54.2 33.65 56l1.75-5.9 1.65-4.7q1.4-1.2 2.95-2.3 4.75-3.35 9.75-5.35M43.6 50.9q.95-.9.95-2.25t-.95-2.3q-.9-.9-2.25-.9t-2.3.9q-.9.95-.9 2.3 0 1.35.9 2.25.95.95 2.3.95 1.35 0 2.25-.95" fill="#47121d" fill-rule="evenodd"/><path d="M43.6 50.9q-.9.95-2.25.95t-2.3-.95q-.9-.9-.9-2.25t.9-2.3q.95-.9 2.3-.9 1.35 0 2.25.9.95.95.95 2.3 0 1.35-.95 2.25" fill="#27e3e5" fill-rule="evenodd"/><path d="M49.75 37.75q-.15 10.6-3.15 13.8Q44.1 54.2 33.65 56l1.75-5.9 1.65-4.7q-2.8 2.25-4.95 4.7l-.7 2.6-.8 3.55m19.15-18.5q2.2-.9 4.5-1.55m-17.2 9.2q1.4-1.2 2.95-2.3 4.75-3.35 9.75-5.35m-20.8 16.4q1.35-2.1 3.15-4.05" fill="none" stroke="#4c2912" stroke-linecap="square" stroke-linejoin="miter-clip" stroke-miterlimit="3"/></g><use ffdec:characterId="2" height="26.35" width="20.25" xlink:href="#l" id="c"/><use ffdec:characterId="4" height="38.5" width="47.35" xlink:href="#m" id="d"/><use ffdec:characterId="6" height="23.1" width="28.4" xlink:href="#n" id="e"/><use ffdec:characterId="8" height="40.7" width="47.2" xlink:href="#o" id="f"/><use ffdec:characterId="10" height="51.8" width="25.2" xlink:href="#p" id="g"/><use ffdec:characterId="12" height="22.8" width="32.2" xlink:href="#q" id="h"/><use ffdec:characterId="14" height="29.8" width="25.6" xlink:href="#r" id="i"/><use ffdec:characterId="16" height="35" width="30.6" xlink:href="#s" id="j"/><use ffdec:characterId="18" height="83.05" width="85.9" xlink:href="#t" id="k"/><path d="M27.75 0q0 2-8.15 3.4Q11.5 4.9 0 4.9q-11.5 0-19.65-1.5-8.1-1.4-8.1-3.4 0-2.05 8.1-3.5Q-11.5-4.9 0-4.9q11.5 0 19.6 1.4 8.15 1.45 8.15 3.5" fill-opacity=".349" fill-rule="evenodd" transform="translate(27.75 4.9)" id="b"/></defs></svg>