<svg xmlns:ffdec="https://www.free-decompiler.com/flash" xmlns:xlink="http://www.w3.org/1999/xlink" ffdec:objectType="frame" height="90" width="90" xmlns="http://www.w3.org/2000/svg"><use ffdec:characterId="20" height="88.7" transform="translate(21.95 .7)" width="52.3" xlink:href="#a"/><defs><g id="a" transform="translate(-21.95 -.7)"><use ffdec:characterId="2" height="45.65" transform="translate(30.25 59.5) scale(.1531)" width="68.45" xlink:href="#b"/><use ffdec:characterId="4" height="34.45" transform="translate(32.3 79.55) scale(.2775)" width="101.4" xlink:href="#c"/><use ffdec:characterId="6" height="68.1" transform="translate(36.55 71.7) scale(.1531)" width="56.75" xlink:href="#d"/><use ffdec:characterId="8" height="100" transform="translate(38 60.85) scale(.1531)" width="99.8" xlink:href="#e"/><use ffdec:characterId="10" height="88.7" transform="translate(50.15 60.95) scale(.1531)" width="99.35" xlink:href="#f"/><use ffdec:characterId="12" height="185.9" transform="translate(22.5 43.75) scale(.1531)" width="103.3" xlink:href="#g"/><use ffdec:characterId="17" height="425.85" transform="translate(29.55 .7) scale(.1531)" width="281.2" xlink:href="#h"/><use ffdec:characterId="19" height="85.9" transform="translate(46.7 71.25) scale(.1531)" width="60.6" xlink:href="#i"/></g><g id="q" fill-rule="evenodd"><path d="M15.2 17.5q-4.1-2.4-8.6-4.55-4.35-4.5 2.55-7.45 12.95-.4 25.9 3.95Q32.7 10 30.9 11q-10.2 1.2-15.7 6.5" fill="#f6fcf9"/><path d="M63.5 23.95q3.35-7.05 2.95-11.4Q63.7 1.2 50.55 6.9q-2.15.75-4.35 2.15l-.75.6Q35.05 20.4 36.8 33.2q1.75 11.75 12.95 6.85l2.15-1.4q7.65-5.85 11.6-14.7m3.15.2-1 2.35q-3.95 8.85-11.2 15.7l-.6.4q-7.85 5.7-15.5.8-4.1-5.3-4.9-11L6.4 17.1Q-6.35 5.5 6.4 0q20.2-.4 38.85 5.9l1.55-1.75q15.7-7.85 21 5.5 1.75 6.45-1.15 14.5M30.9 11q1.8-1 4.15-1.55Q22.1 5.1 9.15 5.5q-6.9 2.95-2.55 7.45 4.5 2.15 8.6 4.55l7.85 4.3q1.6-7.45 7.85-10.8m5.5 7.05q1.6-3.3 4.15-6.45l-3.75-1.4q-5.9 1.8-8.85 5.9-1.15 1.55-1.75 3.35-.8 1.75-1 3.7l8.25 5.3q0-3.5 1.6-7.05.55-1.75 1.35-3.35" fill="#11181e"/><path d="M27.95 16.1q2.95-4.1 8.85-5.9l3.75 1.4Q38 14.75 36.4 18.05q-5.1.8-8.45-1.95" fill="#90dec1"/><path d="M35.05 21.4q-1.6 3.55-1.6 7.05l-8.25-5.3q.2-1.95 1-3.7l8.85 1.95" fill="#299536"/><path d="M36.4 18.05q-.8 1.6-1.35 3.35l-8.85-1.95q.6-1.8 1.75-3.35 3.35 2.75 8.45 1.95" fill="#49a765"/><path d="M15.2 17.5q5.5-5.3 15.7-6.5-6.25 3.35-7.85 10.8l-7.85-4.3" fill="#b6ebdb"/><path d="M63.5 23.95q-3.95 8.85-11.6 14.7l-2.15 1.4q-11.2 4.9-12.95-6.85-1.75-12.8 8.65-23.55l.75-.6q2.2-1.4 4.35-2.15 13.15-5.7 15.9 5.65.4 4.35-2.95 11.4M43.1 36.3q.55 4.9 6.65 2l3.75-2.95q2.55-2.55 5.5-11.4Q60.75 11 51.3 16.3q-20.6 18.65-8.2 20" fill="#dffde3"/><path d="M51.3 16.3q9.45-5.3 7.7 7.65-2.95 8.85-5.5 11.4l-3.75 2.95q-6.1 2.9-6.65-2-.6-10.8 8.2-20m5.15 7.65q.55-11.4-5.9-2.15-6.9 11-4.9 14.5 2.15 0 4.1-1.35l3.95-4.35q1.95-2.7 2.75-6.65" fill="#0d141a"/><path d="M56.45 23.95q-.8 3.95-2.75 6.65l-3.95 4.35q-1.95 1.35-4.1 1.35-2-3.5 4.9-14.5 6.45-9.25 5.9 2.15" fill="#20fc0b"/><path d="M43.1 36.3q-12.4-1.35 8.2-20-8.8 9.2-8.2 20" fill="#7bf598"/></g><g id="s" fill-rule="evenodd"><path d="M19.05 5.7q-4.3-.8-8.05.55 1.95 2.55 2.55 4.55.6 1.95-.2 3.1Q12.2 19 12 22.35q-.4 4.7 1.55 4.7Q21.6 15.7 29.85 10q-5.3-3.35-9.8-4.15l-1-.15m-10 1.35Q6.7 8.4 4.55 10.6q.55 4.3 4.9 10 3.3-9.05-.4-13.55m.6 23.75Q-1.95 12.15.4 8.25q12.55-15.5 35.35-1.8 4.5-2.35 9.2-2.75 17.3 1.4 9.25 25.7Q34.95 58.65 5.1 68.1 1.6 53.75 9.65 30.8m20.4 19.05Q47.9 35.9 52.8 18.25q-.2-10.6-7.25-11.8-10.2-1.75-24.75 15.5-3.3 3.95-6.85 8.85-6.65 18.25-5.9 32.35 12.75-6.25 22-13.3" fill="#11181e"/><path d="M13.55 10.8q.8-4.35 5.5-5.1l1 .15Q22.8 9.8 12 22.35q.2-3.35 1.35-8.45.8-1.15.2-3.1" fill="#1d5af7"/><path d="M19.05 5.7q-4.7.75-5.5 5.1-.6-2-2.55-4.55 3.75-1.35 8.05-.55" fill="#e1eeff"/><path d="M9.05 7.05q3.7 4.5.4 13.55-4.35-5.7-4.9-10 2.15-2.2 4.5-3.55m21 42.8q-9.25 7.05-22 13.3-.75-14.1 5.9-32.35 3.55-4.9 6.85-8.85-2.9 15.5-3.3 30.65l12.55-2.75" fill="#fafcfc"/><path d="M12 22.35Q22.8 9.8 20.05 5.85q4.5.8 9.8 4.15-8.25 5.7-16.3 17.05-1.95 0-1.55-4.7" fill="#1918c1"/><path d="M20.8 21.95Q35.35 4.7 45.55 6.45q7.05 1.2 7.25 11.8-4.9 17.65-22.75 31.6L17.5 52.6q.4-15.15 3.3-30.65" fill="#cce3ea"/></g><g id="t" fill-rule="evenodd"><path d="m94.75 47.9-.35-3.75-1-8.05-.8-4.1-.55-3.35q-2.95-16.5-7.1-18.25Q41 .2 22.35 9.4q-6.65 3.35-10.2 9.05-4.7 8.65-6.05 15.5-2.95 13.95 6.85 21l2.35 1.55h5.5q11-.4 22.55-3.5 0 1.35.8 2.75-8.45 2.15-16.7 2.7l-2.35.2q-6.45.4-12.95-.2L11 56.9l-1-1-.2-.35-3.9-3.35-3.55-2.75Q-5.3 31 12.15 9.2 32-7.25 85.75 5.7q9.2 3.7 13.35 39.8l-4.35 2.4M56.7 62.2l3.15-.2Q29.8 85.15 23.95 81.85q-5.5-1.6-12.4-13.95l-3.3-6.7q.95-.55 2.35-1.35Q17.05 72.6 21.4 77.5q2.9 3.15 4.9 2.55 2.55-.2 7.45-2.75Q42 73.2 56.7 62.2" fill="#070318"/><path d="m94.75 47.9 4.35-2.4q7.25 60.65-59.45 53.8-31-10.8-33.4-37.9l2-.2 3.3 6.7q4.75 24.15 27.9 27.05l9.8.2Q99.1 93.6 94.75 47.9" fill="#11181e"/><path d="m94.4 44.15.35 3.75Q75.15 58.85 62.2 61.6l-2.35.4-3.15.2q-10.2-2.55-12.55-6.45l2.75-.8q2.55 2.75 6.25 3.9Q66.7 63 94.4 44.15" fill="#721f04"/><path d="m93.4 36.1 1 8.05Q66.7 63 53.15 58.85l2.95-.75q21 0 37.3-22" fill="#f3c819"/><path d="M44.15 55.75q-.8-1.4-.8-2.75 20.8-4.15 48.7-24.35L92.6 32l-14.7 9q-14.15 8.65-28.25 13.15l-2.75.8-2.75.8" fill="#722107"/><path d="m92.6 32 .8 4.1q-16.3 22-37.3 22 7.1-2 10.6-5.5h.2q11.4-5.9 11-11.6l14.7-9" fill="#d95f11"/><path d="M27.45 58.45q8.25-.55 16.7-2.7 2.35 3.9 12.55 6.45-14.7 11-22.95 15.1-11.2 5.1-13.15-14.7l6.85-4.15M43.35 53Q31.8 56.1 20.8 56.5q-3.95-.2-2.55-3.3 21-6.1 38.05-16.7l-2.35-3.35Q31 32 22.35 9.4q18.65-9.2 62.6 1 4.15 1.75 7.1 18.25-27.9 20.2-48.7 24.35" fill="#1918c1"/><path d="M2.35 49.45 5.9 52.2l-.4 2.35.4 1.35.75 1q1.2 1.4 2 1.4.75 0 2.35-1.4l1.15 1.55-1.55 1.4q-1.4.8-2.35 1.35l-2 .2q-2.15 0-3.9-1.75-4.1-2.75 0-10.2" fill="#752207"/><path d="m9.8 55.55.2.35 1 1q-1.6 1.4-2.35 1.4-.8 0-2-1.4l-.75-1h1.35l2.55-.35" fill="#e24510"/><path d="m5.9 52.2 3.9 3.35-2.55.35H5.9l-.4-1.35.4-2.35" fill="#fefdfd"/><path d="m59.85 62 2.35-.4Q25.9 88.3 49.25 95.15l-9.8-.2q-23.15-2.9-27.9-27.05 6.9 12.35 12.4 13.95 5.85 3.3 35.9-19.85" fill="#fafcfc"/><path d="M20.8 56.5h-5.5l-2.35-1.55q2.15-1.75-1.4-4.35-5.1-4.5-5.45-16.65 1.35-6.85 6.05-15.5 3.55-5.7 10.2-9.05Q31 32 53.95 33.15l2.35 3.35Q39.25 47.1 18.25 53.2q-1.4 3.1 2.55 3.3" fill="#1d5bf7"/><path d="M53.15 58.85q-3.7-1.15-6.25-3.9l2.75-.8q7.25 2.75 19-4.1L66.9 52.6h-.2q-3.5 3.5-10.6 5.5l-2.95.75" fill="#fefffe"/><path d="M77.9 41q.4 5.7-11 11.6l1.75-2.55q-11.75 6.85-19 4.1Q63.75 49.65 77.9 41" fill="#fdf80b"/><path d="m25.1 58.65 2.35-.2-6.85 4.15q1.95 19.8 13.15 14.7-4.9 2.55-7.45 2.75-2 .6-4.9-2.55l-5.7-15.7 9.4-3.15" fill="#1d5af7"/><path d="M12.15 58.45q6.5.6 12.95.2l-9.4 3.15 5.7 15.7q-4.35-4.9-10.8-17.65l1.55-1.4" fill="#e3f0ff"/><path d="M12.95 54.95q-9.8-7.05-6.85-21 .35 12.15 5.45 16.65 3.55 2.6 1.4 4.35" fill="#e5f0ff"/><path d="M62.2 61.6q12.95-2.75 32.55-13.7 4.35 45.7-45.5 47.25Q25.9 88.3 62.2 61.6" fill="#cce3ea"/></g><g id="u" fill-rule="evenodd"><path d="M9.25 54.4q10.2 7.85 19.8-7.65l.2-.4q.2-21.4 14.5-34.95-14.5-2.15-24.5-.2l-1.4.4q-4.7 1-8.2 3.15 3.3-4.1 9-6.85Q43.4-2.7 58.9 17.5q-13.95 1.55-25.35 12.15-2.55 3.95.2 7.25 5.3 5.3 14.95 7.3l6.85.95 8.85-.2q-.4 5.9-3.15 6.9.6-7.25-8.85-4.9l-3.5.35q-5.9.8-10.25 3.55-4.7 2.95-7.45 7.85-13.55 6.7-21.95-4.3m82.4-28.45q5.9 5.3 0 6.85-14.7 5.9-35.3 9.25l-5.5-1.8q-10.2-3.35-10-5.9 7.25-6.25 23.55-8 11.35-1.4 27.25-.4m-47.5 40.6q.8-4.3 4.15-6.45 1.15-.8 2.95-1.2l8.2-.4q3.35 7.05 4.95 12.2-12.4-8.25-20.25-4.15" fill="#cce3ea"/><path d="M9.65 14.75q3.5-2.15 8.2-3.15l1.4-.4q10-1.95 24.5.2-14.3 13.55-14.5 34.95l-.2.4q-9.6 15.5-19.8 7.65-2.75-3.75-5.1-9.25-5.1-17.45 5.5-30.4m9.2 3.35-4.1.2Q6.9 20.25 6.1 34.35q.6 16.5 8.05 20.05 7.85.4 11-9.45 1.15-3.9 1.75-9.6Q25.35 23 18.85 18.1" fill="#f8fcfa"/><path d="M9.25 54.4q8.4 11 21.95 4.3 2.75-4.9 7.45-7.85Q43 48.1 48.9 47.3l3.5-.35q9.45-2.35 8.85 4.9 2.75-1 3.15-6.9l-8.85.2-6.85-.95q-9.65-2-14.95-7.3-2.75-3.3-.2-7.25 11.4-10.6 25.35-12.15Q43.4-2.7 18.65 7.9q-5.7 2.75-9 6.85-10.6 12.95-5.5 30.4 2.35 5.5 5.1 9.25m82.4-28.45q-9.6-3.35-21.6-4.35l-17.85-.55q-11 3.7-16.45 10.55-3.15 6.3 14.3 9.85l4.1.75 2.2-.15q20.6-3.35 35.3-9.25 5.9-1.55 0-6.85M68.9 17.3l6.45.4q21.8 1.35 23.55 8.8 2.15 8.85-5.5 11.2-11.75 4.9-23.7 6.7 0 8.05-5.15 12.55 9.85 22.35 1.8 31.2-8.45 4.1-33.95-21.4-9.05 1.55-18.25-2.35Q-9.6 44.6 6.5 13.35q16.1-19.6 42.55-10.4Q60.25 7.9 64.4 17.1l4.5.2m-21 39.25q1.35-.6 2.95-.8l7.05-.4-3.55-6.45-4.9.8q-4.5.95-8.05 3.1-4.5 2.75-7.45 7.3l7.65 7.85q0-7.5 4.75-10.4.75-.6 1.55-1M64.4 70.7q-1.6-5.15-4.95-12.2l-8.2.4q-1.8.4-2.95 1.2-3.35 2.15-4.15 6.45l-.2 3.55Q60.25 85.8 64 82.85q2.95-3.35.4-12.15" fill="#11181e"/><path d="m56.35 42.05-2.2.15-4.1-.75Q32.6 37.9 35.75 31.6q5.45-6.85 16.45-10.55l17.85.55q12 1 21.6 4.35-15.9-1-27.25.4-16.3 1.75-23.55 8-.2 2.55 10 5.9l5.5 1.8M64.4 70.7q2.55 8.8-.4 12.15-3.75 2.95-20.05-12.75l.2-3.55Q52 62.45 64.4 70.7" fill="#fafcfc"/><path d="M33.95 60.1q2.95-4.55 7.45-7.3 3.55-2.15 8.05-3.1l4.9-.8 3.55 6.45-7.05.4q-1.6.2-2.95.8l-2.15.2q-4.15.6-11.8 3.35" fill="#2c244c"/><path d="M24.15 38.7v-.4q-1.2-17.85-8.25-17.45-1.15.35-2.35 1.15-6.65 4.5-4.5 20.05 3.35 10 7.05 9.4 1.95.2 3.75-1.2 1.75-1.95 3.1-6.25l1.2-5.3m-5.3-20.6q6.5 4.9 8.05 17.25-.6 5.7-1.75 9.6-3.15 9.85-11 9.45Q6.7 50.85 6.1 34.35q.8-14.1 8.65-16.05l4.1-.2" fill="#0f161c"/><path d="M19.85 50.25q-1.8 1.4-3.75 1.2-3.7.6-7.05-9.4Q6.9 26.5 13.55 22q1.2-.8 2.35-1.15 7.05-.4 8.25 17.45v.4q-1.75.4-2.95 1.15-1.35.8-1.95 2.2-1 1.35-1 3.5v.4q.2 2.55 1.6 4.3m-7.45-23.9q-1.2.15-2 1.15-.55.8-.55 3.35 0 1.55 1.15 1.75h.2q1 0 1.95-1.55.8-1.4.8-2.75 0-1.95-1.2-1.95h-.35m-.8 9.8q0-.8-.8-.8l-.8.2-.15.8q0 .75.95.75.6 0 .8-.35v-.6" fill="#25fe10"/><path d="M11.6 36.15v.6q-.2.35-.8.35-.95 0-.95-.75l.15-.8.8-.2q.8 0 .8.8m.8-9.8h.35q1.2 0 1.2 1.95 0 1.35-.8 2.75-.95 1.55-1.95 1.55H11q-1.15-.2-1.15-1.75 0-2.55.55-3.35.8-1 2-1.15" fill="#c1ffb2"/><path d="M18.25 45.95v-.2q.2-.8 1.8-2.35l.2-.8q0-.55.15-.95.2-.6.6-.8l.4-.4.2-.2q1 0 1 .8 0 .6-1 2.35l-.4.6q-1.55 2.15-2.35 2.15l-.6-.2" fill="#e3ffe5"/><path d="M19.85 50.25q-1.4-1.75-1.6-4.3l.6.2q.8 0 2.35-2.15l.4-.6q1-1.75 1-2.35 0-.8-1-.8l-.4-.4q1.2-.75 2.95-1.15l-1.2 5.3q-1.35 4.3-3.1 6.25" fill="#7effe6"/><path d="M33.95 60.1q7.65-2.75 11.8-3.35l2.15-.2q-.8.4-1.55 1-4.75 2.9-4.75 10.4l-7.65-7.85" fill="#605098"/></g><g id="v" fill-rule="evenodd"><path d="m26.35 21.95.35 4.9.2 5.5.4 5.7q-6.1 0-8.65 4.5l-4.3-4.1-3.7-3.55-4.35-4.1Q1.4 15.5 4.35 0q7.65.95 22 21.95M17.1 35.7q1.75-1.75 4.1-2.55l2.75-.8v-5.3q-4.9-11.55-15.7-19-.35 9 1 16.85.4 3.55 1.4 6.9.75 3.1 4.7 5.45.75-.95 1.75-1.55" fill="#5d060e"/><path d="M17.1 35.7q-6.1.4.4-6.65L13.95 15.9q11.8 12.75 7.25 17.25-2.35.8-4.1 2.55" fill="#757a19"/><path d="m26.7 26.85-.35-4.9q12.95.4 22.55 12.95 2.35 12.95-3.75 25.35 20.25 44.7 41.4 87.5l7.3 14.5 6.65 2.4q4.3 1.55 1.95 5.3L99.5 181.5q-.15 5.1-6.85 4.3l-11.75-4.7q-4.75-1.15-4.15-6.05l1.95-7.3-49.65-97.9Q7.3 71.8 1.2 58.25q-3.9-15.1 5.1-27.45l4.35 4.1Q3.55 45.3 7.1 57.7q1.15 1.75 3.15 3.1 4.7 3.15 14.3 3.35l7.45-.2 53.6 105q4.1 1.35 3.9-3.15L55.15 94.75 38.3 59.85l2.55-4.9q2.95-6.3 3.35-11.4.2-2.35-.2-4.5-3.95-8.25-17.3-12.2m.2 5.5q6.9.8 10.2 4.9 2 2.55 2.35 6.5.2 2.55-.15 4.9-1.2 6.1-6.7 10.8-7.85 1.75-13.75 0-2.55-.8-4.7-2.15-2.75-1.4-3.35-4.35-1.35-5.1 3.55-14.5l4.3 4.1q-5.45 11.2 0 10.8l11.6.4q9.6-12.75-2.95-15.7l-.4-5.7M83.65 172.5l-.4 3.3 10.95 3.95 2.2-9.65-3.55-2.35q-1.95 5.9-9.2 4.75" fill="#11181e"/><path d="M10.25 60.8q-2-1.35-3.15-3.1-3.55-12.4 3.55-22.8l3.7 3.55q-4.9 9.4-3.55 14.5l-.55 7.85" fill="#ebfcf0"/><path d="m40.85 54.95-2.55 4.9q-2.35 3.9-6.3 4.1l-7.45.2-5.7-4.7q5.9 1.75 13.75 0 5.5-4.7 6.7-10.8 1.95 1.55 1.55 6.3" fill="#edfcf0"/><path d="M24.55 64.15q-9.6-.2-14.3-3.35l.55-7.85q.6 2.95 3.35 4.35 2.15 1.35 4.7 2.15l5.7 4.7" fill="#a3f0ca"/><path d="M26.7 26.85Q40.05 30.8 44 39.05q.4 2.15.2 4.5-3.15-4.7-7.1-6.3-3.3-4.1-10.2-4.9l-.2-5.5" fill="#defde3"/><path d="M44.2 43.55q-.4 5.1-3.35 11.4.4-4.75-1.55-6.3.35-2.35.15-4.9-.35-3.95-2.35-6.5 3.95 1.6 7.1 6.3" fill="#8bf3aa"/><path d="m38.3 59.85 16.85 34.9Q35.55 71 38.3 59.85" fill="#f6fcf8"/><path d="M55.15 94.75 89.5 165.8q.2 4.5-3.9 3.15L32 63.95q3.95-.2 6.3-4.1Q35.55 71 55.15 94.75" fill="#cbe4e9"/><path d="M83.65 172.5q7.25 1.15 9.2-4.75l3.55 2.35-2.2 9.65-10.95-3.95.4-3.3" fill="#cce3ea"/><path d="M21.2 33.15q4.55-4.5-7.25-17.25l3.55 13.15q-6.5 7.05-.4 6.65-1 .6-1.75 1.55-3.95-2.35-4.7-5.45-1-3.35-1.4-6.9 4.3 8.05 6.3 4.7-2-9-7.3-21.55 10.8 7.45 15.7 19v5.3l-2.75.8" fill="url(#j)"/><path d="M8.25 8.05q5.3 12.55 7.3 21.55-2 3.35-6.3-4.7-1.35-7.85-1-16.85" fill="url(#k)"/></g><g id="h"><use ffdec:characterId="13" height="425.85" width="281.2" xlink:href="#l"/><use ffdec:characterId="16" height="58" transform="translate(77.1 333.2)" width="87.05" xlink:href="#m"/></g><g id="l" fill-rule="evenodd"><path d="M74 234.5q.15 2.15.55 4.1 3.75 23.15 8.25 43.95 3.35 14.35-2.75 26.1L78.3 312l-24.95 46.3-1.55 3.15-7.05 12.95-4.15 7.65L22.35 363l.2-19.4 5.3 9.8v7.25L31.8 365l4.5 4.9 5.5 5.85 27.85-52.95 2.55-4.9 6.5-12.4q3.3-6.25 2.75-13.7l-.6-5.7v-.2q-.2-.8 0-1.4-1.75-7.05-3.35-14.5l-4.3-20.6-2.35-12.35Q58.85 171.5 52 83q-1-12-1.75-24.15Q48.85 40 47.9 20.2 9.4 124.8 4.7 246.05q-.6 4.15 1.4 9.45 1.15 3.5 3.3 7.45L0 303.15l5.5-33.75-5.1-18.25Q2.75 120.1 51.4 0q5.3 91.25 13.95 170.1l.95 9.85.6 4.7.2 2.75 2.75 20.4q1.95 13.75 4.15 26.7" fill="#752207"/><path d="M50.25 58.85q-2 3.55-3.75 7.45-26.1 53.95-31 150.5L33.75 260l-21.6-33.35-1.35 6.85-4.7 22q-2-5.3-1.4-9.45Q9.4 124.8 47.9 20.2q.95 19.8 2.35 38.65m-32.4 265.9L5.9 302.6l10-47.3-4.15 33.55-1.35 11 21 7.25-20.2-1.95 6.65 19.6m25.1 9.4 7.5-27.45-4.15-10 7.25 8.45.8 1.15-11.2 28.05-.2-.2" fill="#fffef9"/><path d="M46.5 66.3q1.75-3.9 3.75-7.45Q51 71 52 83q-1.4 34.15.8 68.65 3.7 63.8 19.2 128.75 9.85 13.35 3.75 21.8-6.1 8.25-11.4 16.65-5.3 8.25-16.45 22.8l7.05-17.5 6.65-16.45q8.65-3.95 8.25-6.3-9.8 2.55-9.6-.2Q40.8 267.25 35.3 218q-2.75-45.35 5.3-104.4-.2 86.35 19.05 161.1Q40.2 166.8 46.5 66.3" fill="#e34610"/><path d="M74 234.5q15.3-28.25 45.5-39.45 33.35-13.55 77.1-3.95-5.85-10.4-15.65-17.45-17.7-12.55-47.9-14.7-43.75-3.15-66.15 25.7l-.6-4.7-.95-9.85q8.45-21.35 42.6-39.8 18.8-9.05-1.4 24.5 71.45-6.85 95.55 34.75 22-12.35 53.4-23.35 11.55-5.5 7.05 15.9-32.95 37.65-59.25 63.55 16.5 28.65 11 64.2-4.55 5.7-5.1 9.4l-5.5 1.2q1.35-5.5 6.25-11.8 4.75-31.8-10.4-59.45l-13.5 12.95Q165.4 280.4 149.9 290.2q-33.35 10.6-34.3 5.7-1.8-7.25-1.6-15.3l.2-2.55q.6-11.6 5.1-24.55 20.2-21.55 45.75-43.75-18.45-13.9-55.55-6.1l-3.15 1.4q-18.45 8.85-31.8 33.55-.4-1.95-.55-4.1m36.85-99.9q-34.7 17.45-44.55 45.35 12.2-13.35 24.15-19.85 4.35-2.55 8.65-3.9 8.85-12.95 11.75-21.6m18.45 158.35q21.2-3.5 32.4-13.9 49.45-44.15 96.55-100.7 1.55-3.9 0-7.05-94 31.8-136.8 84-6.85 21.35-3.3 39.05l11.15-1.4M77.1 358.5l-3.1.6-17.3 1.95-3.15.2-1.75.2 1.55-3.15q67.9-5.5 121.9-34.15-2.75 1.6-4.9 6.1l-6.3 2.95Q124 351.45 77.1 358.5m109.7-162.1q-22.75-8.25-53.95 0 22.35-1.15 36.5 10 6.65-6.05 17.45-10" fill="#11181e"/><path d="M180.95 173.65q9.8 7.05 15.65 17.45-43.75-9.6-77.1 3.95-30.2 11.2-45.5 39.45-2.2-12.95-4.15-26.7Q94.2 177.95 136 167q20-.6 44.95 6.65M74.55 238.6q13.35-24.7 31.8-33.55l6.1 1.95q-11.6 18.05 1.75 71.05l-.2 2.55q-.2 8.05 1.6 15.3.95 4.9 34.3-5.7 15.5-9.8 36.15-28.05 19.4 16.9 17.65 58.3-12.95 2.15-28.45 3.7-54 28.65-121.9 34.15L78.3 312l1.75-3.35q6.1-11.75 2.75-26.1-4.5-20.8-8.25-43.95m36.3-104q-2.9 8.65-11.75 21.6-4.3 1.35-8.65 3.9l20.4-25.5m7.3 159.75q3.3-27.5 37.25-51.8 35.15-27.1 79.9-50.65-.8 7.25-17.1 21.6-55.15 63-88.9 79.45l-11.15 1.4m38.85 29.4q-4.15-6.65-14.75-13.5-22.15-12.95-32.55-8.05-26.9 19.8-39.05 45.7-4.5 6.7 11.55 4.5 55.95-10.75 74.8-28.65" fill="#cce3ea"/><path d="m106.35 205.05 3.15-1.4q37.1-7.8 55.55 6.1-25.55 22.2-45.75 43.75-4.5 12.95-5.1 24.55-13.35-53-1.75-71.05l-6.1-1.95m79.7 57.1 13.5-12.95q15.15 27.65 10.4 59.45-4.9 6.3-6.25 11.8 1.75-41.4-17.65-58.3M66.3 179.95q9.85-27.9 44.55-45.35l-20.4 25.5q-11.95 6.5-24.15 19.85m.6 4.7q22.4-28.85 66.15-25.7 30.2 2.15 47.9 14.7Q156 166.4 136 167q-41.8 10.95-66.15 40.8l-2.75-20.4-.2-2.75m51.25 109.7q-3.55-17.7 3.3-39.05 42.8-52.2 136.8-84 1.55 3.15 0 7.05-47.1 56.55-96.55 100.7-11.2 10.4-32.4 13.9 33.75-16.45 88.9-79.45 16.3-14.35 17.1-21.6-44.75 23.55-79.9 50.65-33.95 24.3-37.25 51.8m38.85 29.4q-18.85 17.9-74.8 28.65-16.05 2.2-11.55-4.5Q82.8 322 109.7 302.2q10.4-4.9 32.55 8.05 10.6 6.85 14.75 13.5" fill="#fafcfc"/><path d="m15.1 239 .8-3.75 41.2 70.85-16.7 40.25-5.85 14.1-2.2 1-4.5-8.05-5.3-9.8L0 303.15l9.4-40.2L15.1 239m38.45 66.15-36.7-63.8L3.9 302.6l29.25 56.5 9.25-22.95.75-1.8 11.2-28.05-.8-1.15" fill="#08a02d"/><path d="M46.5 66.3q-6.3 100.5 13.15 208.4Q40.4 199.95 40.6 113.6q-8.05 59.05-5.3 104.4 5.5 49.25 24.95 83.2-.2 2.75 9.6.2.4 2.35-8.25 6.3l-6.65 16.45-14.55 22.2 16.7-40.25-41.2-70.85-.8 3.75-4.3-5.5 1.35-6.85L33.75 260 15.5 216.8q4.9-96.55 31-150.5m6.3 85.35Q50.6 117.15 52 83q6.85 88.5 18.85 154.05l-18.05-85.4" fill="#fff709"/><path d="M47.9 341.65q11.15-14.55 16.45-22.8 5.3-8.4 11.4-16.65 6.1-8.45-3.75-21.8-15.5-64.95-19.2-128.75l18.05 85.4 2.35 12.35 4.3 20.6q1.6 7.45 3.35 14.5-.2.6 0 1.4v.2l.6 5.7q.55 7.45-2.75 13.7l-6.5 12.4q-20 19-35.9 52l-4.5-4.9q4.7-.4 15.3-21.4l.8-1.95M6.1 255.5l4.7-22 4.3 5.5-5.7 23.95Q7.25 259 6.1 255.5" fill="#f7cb1c"/><path d="m11.75 288.85 4.15-33.55-10 47.3 11.95 22.15q8.85-19.45 25.1 9.4-5.45-11.95 3.55-25.3-36.7-4.1-25.7-35.5-6.5 5.7-9.05 15.5m41.8 16.3-7.25-8.45 4.15 10-7.5 27.45-.55 2-9.25 22.95L3.9 302.6l12.95-61.25 36.7 63.8m-1.75 56.3 1.75-.2q-.95 10.6-8.8 13.15l7.05-12.95" fill="#28ff07"/><path d="m203.7 320.45 5.5-1.2q38.85-7.85 59.25-26.9 8.85 5.5 12.75 11.6-1.95 34.75-33.75 70.85-31.2 29.05-71.05 22.95-7.25-3.15-10-9.2-.8-1.8-1.15-3.55-1-3.55-.6-7.65 0-11.4.6-20.2 1.15-18.65 5.1-26.9 2.15-4.5 4.9-6.1 15.5-1.55 28.45-3.7M61.2 406.4q.6-2.15 1.6-4.35 3.7-4.1 8.45-2.15 1.75.6 3.7 2.15 4.7 5.3 5.5 10.4v2.75q-17.45 16.5-20.2 7.45-1.4-6.05.2-12.95.2-1.75.75-3.3m141.1-80.85q-12.75 1.75-27.05 1.95-6.1 3.75-7.3 26.7-.75 11.15-.15 26.7.15 8 8.4 11.15 4.55 1.6 11.8 1.6 64.55-1.2 88.3-86.55-.4-2.15-2.35-4.15-1.8-1.75-4.9-3.5-24.55 20.6-66.75 26.1m-136 77.3q-1.15 1.2-2.15 3.55-2.95 8.8-1.95 13.35.4 2.15 1.55 3.3l3.55-.55q5.5-1.8 10.4-7.1 1-1.35-1-5.85-4.3-6.9-7.25-7.5-1.75-.35-3.15.8" fill="#5d060e"/><path d="M167.95 354.2q1.4-2 3.75-3.55 1.55-1.35 3.55-5.1 4.7-7.05 6.85-8.45 4.7-3.5 8.45-4.7 3.7-1.15 6.25-2.55 2.35-1.55 5.5-4.3 42.2-5.5 66.75-26.1 3.1 1.75 4.9 3.5-41.8 44.75-92.85 71.65-.95 1-1.75 2.55h-.2q-2.55-3.95 22.2-17.85 18.8-11.4 29.2-22.2-25.9 18.45-49.25 28.85V348.1l-6.45 36.9 4.1-7.85.2.2q-2.55 4.7-2.95 14.7-8.25-3.15-8.4-11.15-.6-15.55.15-26.7" fill="#f72603"/><path d="M273.95 302.95q1.95 2 2.35 4.15-23.75 85.35-88.3 86.55-7.25 0-11.8-1.6.4-10 2.95-14.7l.2-.2q.8-1.55 1.75-2.55 51.05-26.9 92.85-71.65" fill="#a7181a"/><path d="M167.95 354.2q1.2-22.95 7.3-26.7 14.3-.2 27.05-1.95-3.15 2.75-5.5 4.3-2.55 1.4-6.25 2.55-3.75 1.2-8.45 4.7-2.15 1.4-6.85 8.45-2 3.75-3.55 5.1-2.35 1.55-3.75 3.55" fill="#9f211a"/><path d="m74 359.1 3.1-.6q8.65 27.1 32.8 31.6 32.55 5.9 46.3-20 8.85-12.75 7.85-36.9l6.3-2.95q-3.95 8.25-5.1 26.9-6.1 21.95-23.75 32.35-7.85 2.75-14.95 3.75l-12.55.6q-11-1-19.6-6.7-3.35-2.35-6.1-4.9-10.8-9.8-14.3-23.15m-20.45 2.15 3.15-.2q-1.35 6.7-4.1 10.8-2.75 3.75-7.85 7.05v-4.5q7.85-2.55 8.8-13.15" fill="#07a02c"/><path d="m178.95 377.15-4.1 7.85 6.45-36.9v17.85q23.35-10.4 49.25-28.85-10.4 10.8-29.2 22.2-24.75 13.9-22.2 17.85h-.2" fill="#f7edde"/><path d="M165.25 385q.35 1.75 1.15 3.55Q136 421.7 80.45 415.2v-2.75q52.6 7.3 84.8-27.45" fill="#0e1018"/><path d="M56.7 361.05 74 359.1q3.5 13.35 14.3 23.15-19.05.4-35.7-10.4 2.75-4.1 4.1-10.8m69.85 32.2q7.1-1 14.95-3.75 17.65-10.4 23.75-32.35-.6 8.8-.6 20.2-.4 4.1.6 7.65-32.2 34.75-84.8 27.45-.8-5.1-5.5-10.4-1.95-1.55-3.7-2.15 4.9.8 11.95 7.25l5.3 1.6q8.65 1.75 17.85-.6 23.55-7.85 20.2-14.9" fill="#2c2b4b"/><path d="M77.1 358.5q46.9-7.05 86.95-25.3 1 24.15-7.85 36.9-13.75 25.9-46.3 20-24.15-4.5-32.8-31.6" fill="#24ff0b"/><path d="m72.2 317.9-2.55 4.9q-20.6 27.45-27.85 52.95l-5.5-5.85q15.9-33 35.9-52" fill="#e14b11"/><path d="M66.3 402.85q1.4-1.15 3.15-.8 4.7 6.5-5.7 21-1.15-1.15-1.55-3.3 6.5-12.2 4.1-16.9" fill="#f23f05"/><path d="M88.3 382.25q2.75 2.55 6.1 4.9 8.6 5.7 19.6 6.7-10.8 16.25-25.5 14.9l-5.3-1.6q-7.05-6.45-11.95-7.25-4.75-1.95-8.45 2.15-1 2.2-1.6 4.35-10.2-3.55-15.5-18.25l-.95-9.25q5.1-3.3 7.85-7.05 16.65 10.8 35.7 10.4" fill="#a7ceda"/><path d="m114 393.85 12.55-.6q3.35 7.05-20.2 14.9-9.2 2.35-17.85.6 14.7 1.35 25.5-14.9" fill="#5b658c"/><path d="m54.95 324.15-7.05 17.5-.8 1.95q-10.6 21-15.3 21.4l-3.95-4.35v-7.25l4.5 8.05 2.2-1 5.85-14.1 14.55-22.2" fill="#f8fff7"/><path d="M44.75 374.4v4.5l.95 9.25q5.3 14.7 15.5 18.25-.55 1.55-.75 3.3-15.3-7.45-19.85-27.65l4.15-7.65" fill="#0f1218"/><path d="M77.7 415.4q-4.9 5.3-10.4 7.1 4.15-6.7 10.4-7.1" fill="#ef3207"/><path d="M69.45 402.05q2.95.6 7.25 7.5 2 4.5 1 5.85-6.25.4-10.4 7.1l-3.55.55q10.4-14.5 5.7-21" fill="#a0201c"/><path d="M69.65 322.8 41.8 375.75q7.25-25.5 27.85-52.95" fill="#f7c81c"/><path d="M62.2 419.75q-1-4.55 1.95-13.35 1-2.35 2.15-3.55 2.4 4.7-4.1 16.9" fill="#f0d87a"/><path d="m17.85 324.75-6.65-19.6 20.2 1.95-21-7.25 1.35-11q2.55-9.8 9.05-15.5-11 31.4 25.7 35.5-9 13.35-3.55 25.3-16.25-28.85-25.1-9.4" fill="url(#n)"/></g><g id="m"><filter id="o"><feColorMatrix in="SourceGraphic" result="filterResult0" values="0 0 0 0 0.13725491,0 0 0 0 0.99607843,0 0 0 0 0.039215688,0 0 0 1 0"/><feConvolveMatrix divisor="144" in="filterResult0" kernelMatrix="1 1 1 1 1 1 1 1 1 1 1 1 1 1 1 1 1 1 1 1 1 1 1 1 1 1 1 1 1 1 1 1 1 1 1 1 1 1 1 1 1 1 1 1 1 1 1 1 1 1 1 1 1 1 1 1 1 1 1 1 1 1 1 1 1 1 1 1 1 1 1 1 1 1 1 1 1 1 1 1 1 1 1 1 1 1 1 1 1 1 1 1 1 1 1 1 1 1 1 1 1 1 1 1 1 1 1 1 1 1 1 1 1 1 1 1 1 1 1 1 1 1 1 1 1 1 1 1 1 1 1 1 1 1 1 1 1 1 1 1 1 1 1 1" order="12 12" result="filterResult1"/><feComposite in="SourceGraphic" in2="filterResult1" result="filterResult2"/></filter><use ffdec:characterId="15" filter="url(#o)" height="58" width="87.05" xlink:href="#p"/></g><g id="x" fill-rule="evenodd"><path d="M14.35 42.7q-1.8-5.85-2.4-12.55 1-17.85 12.4-19.05 4.5-.55 10.8 1.6 12.15 9 17.05 22.15L45.15 47.8q1.75 4.95 2.35 9.25-8.65-5.5-14.35-15.9-8.6-5.9-18.8 1.55" fill="#cce3ea"/><path d="M47.5 57.05q-.6-4.3-2.35-9.25l7.05-12.95Q47.3 21.7 35.15 12.7q-6.3-2.15-10.8-1.6-11.4 1.2-12.4 19.05.6 6.7 2.4 12.55Q21.8 69 49.45 78.85L46.1 69.8q2.15-5.9 1.4-12.75M26.1 6.4Q38.25 4.45 53 26.45q15.1 36.7.2 59.45Q10.8 70.2 7.85 29.75 9.8 7.8 26.1 6.4m29.05 54.55q1.15-12.35-1.6-22.15-2.9 4.9-5.65 10 1.55 4.9 1.95 9.6.4 5.7-1.2 11L51.8 79q2.55-9.6 3.35-18.05" fill="#11181e"/><path d="M14.35 42.7q10.2-7.45 18.8-1.55 5.7 10.4 14.35 15.9.75 6.85-1.4 12.75l3.35 9.05Q21.8 69 14.35 42.7" fill="#fafcfc"/><path d="m49.85 58.4 5.3 2.55Q54.35 69.4 51.8 79l-3.15-9.6q1.6-5.3 1.2-11" fill="#f72603"/><path d="M49.85 58.4q-.4-4.7-1.95-9.6 2.75-5.1 5.65-10 2.75 9.8 1.6 22.15l-5.3-2.55" fill="#a7181a"/><path d="M33.35 40.55q11.2-9 20.4-23.75-7.25-6.25-14.3-9.8-1.6-.8-3.15-1.35-17.05-6.9-32.2 3.7l-2.15 1.6L6.1 16.6q10.8 15.7 16.65 30.65l7.45-4.35q1.6-1.15 3.15-2.35m25.7-22.35Q31.4 48.4 21.8 49.2 14.15 30.95.4 12.3q-1.95-3.15 6.1-7.45 27.85-13.15 51.8 9.4 1.95 1.2.75 3.95" fill="#11181e"/><path d="M33.35 40.55q-1.55 1.2-3.15 2.35v-.2q0-5.5-2.75-22.15 6.3-6.3 8.85-14.9 1.55.55 3.15 1.35Q36.7 13.3 30 21.9q3.15 10.05 3.35 18.65" fill="#070318"/><path d="M39.45 7q7.05 3.55 14.3 9.8-9.2 14.75-20.4 23.75-.2-8.6-3.35-18.65 6.7-8.6 9.45-14.9" fill="#cce3ea"/><path d="m6.1 16.6-4.15-5.65 2.15-1.6q12.8 4.7 19.05 9.25l6.5 21.95q-2.75 3.35-6.1 1.4Q14.5 21.35 6.1 16.6" fill="#1d5af7"/><path d="m30.2 42.9-7.45 4.35Q16.9 32.3 6.1 16.6q8.4 4.75 17.45 25.35 3.35 1.95 6.1-1.4.2 1.2.55 2.15v.2" fill="#e5f0ff"/><path d="M4.1 9.35q15.15-10.6 32.2-3.7-2.55 8.6-8.85 14.9Q30.2 37.2 30.2 42.7q-.35-.95-.55-2.15l-6.5-21.95Q16.9 14.05 4.1 9.35" fill="#1918c1"/></g><use ffdec:characterId="1" height="45.65" width="68.45" xlink:href="#q" id="b"/><use ffdec:characterId="3" height="34.45" width="101.4" xlink:href="#r" id="c"/><use ffdec:characterId="5" height="68.1" width="56.75" xlink:href="#s" id="d"/><use ffdec:characterId="7" height="100" width="99.8" xlink:href="#t" id="e"/><use ffdec:characterId="9" height="88.7" width="99.35" xlink:href="#u" id="f"/><use ffdec:characterId="11" height="185.9" width="103.3" xlink:href="#v" id="g"/><use ffdec:characterId="14" height="58" width="87.05" xlink:href="#w" id="p"/><use ffdec:characterId="18" height="85.9" width="60.6" xlink:href="#x" id="i"/><linearGradient gradientTransform="matrix(.0042 .0157 -3.7909 1.0161 436.25 -90.3)" gradientUnits="userSpaceOnUse" id="j" spreadMethod="pad" x1="-819.2" x2="819.2"><stop offset="0" stop-color="#ef4c05"/><stop offset="1" stop-color="#e69b16"/></linearGradient><linearGradient gradientTransform="matrix(.0061 .0035 -1.9606 3.3876 193.5 -296.35)" gradientUnits="userSpaceOnUse" id="k" spreadMethod="pad" x1="-819.2" x2="819.2"><stop offset="0" stop-color="#f2eece"/><stop offset="1" stop-color="#e7b225"/></linearGradient><path d="M50.7 0q21 0 35.85 5.05Q101.4 10.1 101.4 17.2q0 7.15-14.85 12.2-14.85 5.05-35.85 5.05-21.05 0-35.9-5.05Q0 24.35 0 17.2q0-7.1 14.8-12.15Q29.65 0 50.7 0" fill-opacity=".349" fill-rule="evenodd" id="r"/><path d="M0 25.3Q46.9 18.25 86.95 0q1 24.15-7.85 36.9-13.75 25.9-46.3 20Q8.65 52.4 0 25.3" fill="#36f926" fill-rule="evenodd" id="w"/><radialGradient cx="0" cy="0" gradientTransform="translate(24.15 301.4) scale(.0365)" gradientUnits="userSpaceOnUse" id="n" r="819.2" spreadMethod="pad"><stop offset="0" stop-color="#01ae1c"/><stop offset="1" stop-color="#28ff07"/></radialGradient></defs></svg>