<svg xmlns:ffdec="https://www.free-decompiler.com/flash" xmlns:xlink="http://www.w3.org/1999/xlink" ffdec:objectType="frame" height="90" width="90" xmlns="http://www.w3.org/2000/svg"><use ffdec:characterId="31" height="176.4" transform="matrix(.525 0 0 .525 -1.444 1.155)" width="178.4" xlink:href="#a"/><defs><use ffdec:characterId="2" height="28.2" width="15.05" xlink:href="#b" id="n"/><use ffdec:characterId="4" height="25" transform="translate(0 1.7)" width="40.1" xlink:href="#c" id="o"/><use ffdec:characterId="11" height="28.55" width="23.2" xlink:href="#d" id="p"/><use ffdec:characterId="14" height="61.3" transform="translate(4.65 21.55)" width="60.1" xlink:href="#e" id="q"/><use ffdec:characterId="13" height="61.3" width="60.1" xlink:href="#f" id="e"/><use ffdec:characterId="16" height="32.2" width="56.1" xlink:href="#g" id="r"/><use ffdec:characterId="18" height="34.15" width="22.05" xlink:href="#h" id="s"/><use ffdec:characterId="21" height="67.95" transform="translate(15.95 25.3)" width="69.05" xlink:href="#i" id="t"/><use ffdec:characterId="20" height="67.95" width="69.05" xlink:href="#j" id="i"/><use ffdec:characterId="23" height="136.35" width="147" xlink:href="#k" id="u"/><use ffdec:characterId="29" height="29.95" width="21.2" xlink:href="#l" id="v"/><linearGradient gradientTransform="matrix(.0143 -.0004 .0045 -.3394 38.65 481.35)" gradientUnits="userSpaceOnUse" id="w" spreadMethod="pad" x1="-819.2" x2="819.2"><stop offset="0" stop-color="#03e2c2"/><stop offset="1" stop-color="#0260f2"/></linearGradient><linearGradient gradientTransform="matrix(-.0081 .0005 .0073 .3388 22.4 -404.2)" gradientUnits="userSpaceOnUse" id="x" spreadMethod="pad" x1="-819.2" x2="819.2"><stop offset="0" stop-color="#10d7ed"/><stop offset="1" stop-color="#13f88e"/></linearGradient><linearGradient gradientTransform="matrix(-.0155 .0028 .0467 .3342 -33.25 -387.7)" gradientUnits="userSpaceOnUse" id="y" spreadMethod="pad" x1="-819.2" x2="819.2"><stop offset="0" stop-color="#84f7e9"/><stop offset="1" stop-color="#7bfc9c"/></linearGradient><linearGradient gradientTransform="matrix(.0173 .0046 -.1001 .3738 165.95 -434.4)" gradientUnits="userSpaceOnUse" id="z" spreadMethod="pad" x1="-819.2" x2="819.2"><stop offset="0" stop-color="#84f7e9"/><stop offset="1" stop-color="#7bfc9c"/></linearGradient><linearGradient gradientTransform="matrix(.0091 .0013 -.0559 .3827 104.75 -458.2)" gradientUnits="userSpaceOnUse" id="A" spreadMethod="pad" x1="-819.2" x2="819.2"><stop offset="0" stop-color="#10d7ed"/><stop offset="1" stop-color="#13f88e"/></linearGradient><linearGradient gradientTransform="matrix(-.0163 -.0018 .0424 -.3845 -37.95 542.25)" gradientUnits="userSpaceOnUse" id="B" spreadMethod="pad" x1="-819.2" x2="819.2"><stop offset="0" stop-color="#03e2c2"/><stop offset="1" stop-color="#0260f2"/></linearGradient><linearGradient gradientTransform="matrix(-.0035 .0035 -.2736 -.2736 80.35 126.4)" gradientUnits="userSpaceOnUse" id="C" spreadMethod="pad" x1="-819.2" x2="819.2"><stop offset="0" stop-color="#ddf"/><stop offset="1" stop-color="#a5b9ff"/></linearGradient><linearGradient gradientTransform="matrix(-.0013 -.0084 .3824 -.0575 41.85 104.2)" gradientUnits="userSpaceOnUse" id="D" spreadMethod="pad" x1="-819.2" x2="819.2"><stop offset="0" stop-color="#19b7b3"/><stop offset="1" stop-color="#096b9e"/></linearGradient><linearGradient gradientTransform="matrix(.001 -.0036 .3726 .1001 54.05 97.25)" gradientUnits="userSpaceOnUse" id="E" spreadMethod="pad" x1="-819.2" x2="819.2"><stop offset="0" stop-color="#37b7de"/><stop offset="1" stop-color="#25a0da"/></linearGradient><linearGradient gradientTransform="matrix(0 -.0057 .3869 0 13.4 101.35)" gradientUnits="userSpaceOnUse" id="F" spreadMethod="pad" x1="-819.2" x2="819.2"><stop offset="0" stop-color="#19b7b3"/><stop offset="1" stop-color="#096b9e"/></linearGradient><g id="a" transform="translate(2.75 -2.2)"><use ffdec:characterId="1" height="9.8" transform="matrix(1.4517 0 0 2.735 56.466 140.399)" width="55.5" xlink:href="#m"/><use ffdec:characterId="3" height="28.2" transform="translate(99.55 128.8) scale(.8947)" width="15.05" xlink:href="#n"/><use ffdec:characterId="10" height="40.35" transform="matrix(1.0758 .591 -.6498 1.2081 122.933 98.46)" width="45.35" xlink:href="#o"/><use ffdec:characterId="12" height="28.55" transform="translate(69.8 130.05) scale(.8947)" width="23.2" xlink:href="#p"/><use ffdec:characterId="15" height="82.9" transform="translate(28.59 60.17) scale(.8947)" width="80.45" xlink:href="#q"/><use ffdec:characterId="17" height="32.2" transform="translate(68.8 118.1) scale(.8947)" width="56.1" xlink:href="#r"/><use ffdec:characterId="19" height="34.15" transform="translate(108 124.15) scale(.8947)" width="22.05" xlink:href="#s"/><use ffdec:characterId="22" height="93.3" transform="translate(93.78 54.664) scale(.8947)" width="91.5" xlink:href="#t"/><use ffdec:characterId="28" height="136.35" transform="translate(24.25 4.7) scale(.8947)" width="147" xlink:href="#u"/><use ffdec:characterId="30" height="29.95" transform="translate(88.8 135.9) scale(.8947)" width="21.2" xlink:href="#v"/></g><g id="b" fill-rule="evenodd"><path d="m6.7 23.35.25.7-1.6.35-.45-1.95-.8-2.15-1.65-2.55Q1.45 16.2 1 15.1-.4 11.95.15 8.25.2 11.3 1.5 13.9q.9 1.75 2.85 4.2l.45.5.65 1.4 1.05 2.85.2.5m4.45-.15.75-1.5q1.6-3.9.2-5.5 1.05-5.35-.5-9.6Q10.05 2.3 6.2 0q4.5 1.05 6.5 4.95 2 4 1.3 10.6 1.15 1.1 1.05 3.15-.1 1.8-1.2 3.9l-2.7.6" fill="#405c79"/><path d="M6.95 24.05q.8 1.85 1.55 1.75l.75-.3 1.05-1 .85-1.3 2.7-.6q-1.05 2.05-2.6 3.55-1.6 1.6-3.2 2.05-1.9-.55-2.6-3.35l-.1-.45 1.6-.35" fill="#f7ff8d"/><path d="M1.75 5.2 2 4.8Q3.65 2.35 6.2 0q3.85 2.3 5.4 6.6 1.55 4.25.5 9.6 1.4 1.6-.2 5.5l-.75 1.5-.85 1.3-1.05 1-.75.3q-.75.1-1.55-1.75l-.25-.7q2.35-.45 2.9-3.15.5-2.65-1.2-5.4-1.1-1.65-1.95-3.8l-1.2-3.2q-.6-1.45-1.25-2-.85-.75-2.25-.6" fill="#87a8f2"/><path d="M1.75 5.2q1.4-.15 2.25.6.65.55 1.25 2l1.2 3.2q.85 2.15 1.95 3.8 1.7 2.75 1.2 5.4-.55 2.7-2.9 3.15l-.2-.5L5.45 20q2.2-.6 1.7-3.6-.45-2.9-3.3-7.55l-.2-.3Q2.25 5.25.3 7.9q.55-1.35 1.45-2.7" fill="#a7c4ea"/><path d="M.15 8.25.3 7.9q1.95-2.65 3.35.65l.2.3q2.85 4.65 3.3 7.55.5 3-1.7 3.6l-.65-1.4-.45-.5Q2.4 15.65 1.5 13.9.2 11.3.15 8.25" fill="#fdfde1"/></g><g id="c"><path d="M-.2 19.15h-.05l.05-.05v.05" fill="#474e99" fill-rule="evenodd" transform="translate(.25 1.15)"/><path d="M25.25 8.6v.5l-2.5-.3-1.2.05-1.4.1q-1.9.3-3.55 1.3l-2.55 1.8-2.2 1.5-3.25 1.7-1.25.55 2.35-1.7 2.45-2.05h-.05l2.55-1.95 2.5-1.25L19.8 8l1.05-.05 2.4.15 2 .5" fill="#fff" fill-rule="evenodd" transform="translate(.25 1.15)"/><path d="m25.25 9.1-.1 1.45L24 10.1l-.8-.2-.9-.05q-4.05-.05-7.45 2.4l-8.9 6.6L4.3 17.6l.25-.1.05-.05.85-.4.2-.25.25-.1 1.2-.75.25-.15 1.25-.55 3.25-1.7 2.2-1.5 2.55-1.8q1.65-1 3.55-1.3l1.4-.1 1.2-.05 2.5.3" fill="#a5c4fa" fill-rule="evenodd" transform="translate(.25 1.15)"/><path d="m25.15 10.55-.4 5.1q-1.3-1.4-4-1.45-3.1-.05-7.8 4.9-4.4 4.55-8.45 4.45h-.1l-.05-.05-.65-.6v-.05l-3-2.75-.35-.4 1.6-.85 2-1.05.05-.05.2-.05.1-.1 1.65 1.25 8.9-6.6q3.4-2.45 7.45-2.4l.9.05.8.2 1.15.45" fill="#86a8fb" fill-rule="evenodd" transform="translate(.25 1.15)"/><path d="M25 16.8q-1.3-1.4-4-1.45-3.1-.05-7.8 4.9-4.4 4.55-8.45 4.45h-.1l-.05-.05m-4-3.8L2.2 20l2-1.05.05-.05.2-.05.1-.1.25-.1.05-.05.85-.4.2-.25.25-.1 1.2-.75.25-.15 2.35-1.7 2.45-2.05h-.05l2.55-1.95L17.4 10l2.65-.85 1.05-.05 2.4.15 2 .5" fill="none" stroke="#405c79" stroke-linecap="round" stroke-linejoin="round" stroke-width=".6"/><path d="M25.35-.1q2.6-.1 5.5.9 3.05.95 5.8 2.9L38.3 5Q36 6.1 35.15 8.55l-.65 2.4-.95 2.9q-1.05 2.75-3.9 3.95-2.55 1.05-5.8.45-3.3-.6-5.8-2.7-2.7-2.3-3.6-5.65-.55-1.8.5-3.75.7-1.3 2.2-3Q19.5.75 23.2.1l2.15-.2m-1.95-.95q-4.15.5-6.8 3.15-1.9 1.75-2.7 3.2-1 1.75-.85 3.4l.4 1.95q.85 2.5 3.3 5.15l.1.05q2.65 2.45 6.2 3.25l6.45-.2q3.2-1.15 4.6-4.2l1.15-3.15.85-2.65q1.15-2.65 3.75-3.8-3.7-3.4-8.1-5.05-4.3-1.6-8.35-1.1" fill="#405c79" fill-rule="evenodd" transform="translate(.25 1.15)"/><path d="M36.65 3.7Q33.9 1.75 30.85.8q-2.9-1-5.5-.9-5.2 2.25-5.8 6.25 1.9-1 3.4-.5l-3.3 2.95.7.85q2.85-3.3 7-3.95-3.4 1.6-5.75 5.15 3.55.85 5.9.05 1.75-.7 3.25-2.55 1.55-2.15 2.45-3 1.45-1.45 3.45-1.45" fill="#fffffc" fill-rule="evenodd" transform="translate(.25 1.15)"/><path d="M25.35-.1 23.2.1q-3.7.65-6.05 3.05-1.5 1.7-2.2 3-1.05 1.95-.5 3.75.9 3.35 3.6 5.65 2.5 2.1 5.8 2.7 3.25.6 5.8-.45 2.85-1.2 3.9-3.95l.95-2.9.65-2.4Q36 6.1 38.3 5l-1.65-1.3q-2 0-3.45 1.45-.9.85-2.45 3-1.5 1.85-3.25 2.55-2.35.8-5.9-.05 2.35-3.55 5.75-5.15-4.15.65-7 3.95l-.7-.85 3.3-2.95q-1.5-.5-3.4.5.6-4 5.8-6.25" fill="#a5c4f6" fill-rule="evenodd" transform="translate(.25 1.15)"/></g><g id="d" fill-rule="evenodd"><path d="M4.3 16.8q3.8-1.55 5.85-3.4 2.55-2.2 2.75-4.95.25-3.9-2.65-5.5-2.9-1.7-7.15.05l-.15-.2Q5.45.95 11.3.25q6.85-.85 10.35 1.5-1.45.05-2.45 2.1l-2.1 5.8q-2.9 8.4-13.25 9.3l.45-2.15" fill="#fdfde1"/><path d="M3.1 3q4.25-1.75 7.15-.05 2.9 1.6 2.65 5.5-.2 2.75-2.75 4.95-2.05 1.85-5.85 3.4.75-3.95.7-6.7.05-4.65-1.9-7.1" fill="#fffffb"/><path d="m4.3 16.8-.45 2.15-.5 2.25-.2 1-2.7-1.4 1.6-9q.8-4.9.9-9l.15.2Q5.05 5.45 5 10.1q.05 2.75-.7 6.7M21.65 1.75Q25.05 9.5 21 17.5q-1.6 3.25-4.1 5.85-2.35 2.35-4.65 3.5l-2.3-1.2q12.8-9.2 11.7-23.9" fill="#405c79"/><path d="M3.85 18.95q10.35-.9 13.25-9.3l2.1-5.8q1-2.05 2.45-2.1-1 18.25-18.3 19.45l.5-2.25" fill="#a7c3de"/><path d="m.45 20.8 2.7 1.4q-.55 1.4-.35 2.45.25 1.1 1.2 1.45l3.05.3q1.55-.1 2.9-.75l2.3 1.2Q4.7 30.35.75 26.7q-.8-.7-.75-2.25l.45-3.65" fill="#f7ff8d"/><path d="m3.15 22.2.2-1q17.3-1.2 18.3-19.45 1.1 14.7-11.7 23.9-1.35.65-2.9.75L4 26.1q-.95-.35-1.2-1.45-.2-1.05.35-2.45" fill="#86a6d3"/></g><g id="f" fill-rule="evenodd"><path d="M35.75 57.35q18.75-4.1 22.7-20.7-7.4-2.75-15.8-7.9-7.7-4.75-13.7-9.9L24 14.45l-4.65-4.7Q16.1 6.1 13.25 1.9q-2.2 8.8.85 16.8 3.2 8.3 11.5 14l-3.7-1.5Q12.45 34.8 3 34.55q10.8 16.2 35.5 10.35l-4.5 2q.15 4.1-2.95 7.7-1.85 2.1-4.75 4l9.45-1.25M0 32.4q9.15.3 18.65-2.5Q6.5 19.4 13 0q21 26.2 47.1 35.95-.65 5.45-4.9 10.95-4 5.25-10.05 9.1-6.1 3.85-12.3 4.95-6.7 1.15-11.75-1.45 6.65-3.9 10.45-10.55Q8.8 52.5 0 32.4" fill="#f7ff8d"/><path d="M35.75 57.35q9.65-7.9 11.3-13.8-8.2-.35-13.4-2.75-2.25-1.05-2.85-2.05-.6-1.05.7-1.7l5.15-1q4.1-.5 5.15-1.3-4.95-2.95-8.25-7.2-3.15-3.95-4.6-8.7 6 5.15 13.7 9.9 8.4 5.15 15.8 7.9-3.95 16.6-22.7 20.7" fill="url(#w)"/><path d="M28.95 18.85q1.45 4.75 4.6 8.7 3.3 4.25 8.25 7.2-1.05.8-5.15 1.3l-5.15 1q-1.3.65-.7 1.7.6 1 2.85 2.05 5.2 2.4 13.4 2.75-1.65 5.9-11.3 13.8L26.3 58.6q2.9-1.9 4.75-4Q38.4 50.35 44 43.65q-8.5 1.5-14.75-.4-6.45-1.95-9.75-7.1 7.4 1.2 14.6-.25Q18.45 22.15 19.35 9.75l4.65 4.7 4.95 4.4" fill="url(#x)"/><path d="M19.35 9.75q-.9 12.4 14.75 26.15-7.2 1.45-14.6.25 3.3 5.15 9.75 7.1 6.25 1.9 14.75.4-5.6 6.7-12.95 10.95 3.1-3.6 2.95-7.7l4.5-2Q13.8 50.75 3 34.55q9.45.25 18.9-3.35l3.7 1.5q-8.3-5.7-11.5-14-3.05-8-.85-16.8 2.85 4.2 6.1 7.85" fill="url(#y)"/></g><g id="g" fill-rule="evenodd"><path d="M.7 16.75q-1.3-2.05-.2-4.8 1.05-2.7 3.65-4 4.5-2.25 13.4-4.35Q23.5 2.2 32.1 1q10.3-1.5 13-.8 2.1.55 2.8 3.35L48 5.1l-.4 1.4-1.2 1.75q-3.8 4.15-10.2 7.05-5.7 2.6-12.3 3.65l-4.65.55v-.05l-.1-1.3q8.05-.7 17.75-5.35 4-1.9 6.5-3.75 2.6-1.9 2.5-2.9-.25-3.8-1.7-5.2-1.4-1.3-3.3.05l-1.1 1.3q-1.95 2-5.25 3.4-3.4 1.5-9.6 2.75l-7.9.95-6.55-.3-3.25-.6-1.35-.3q10.85.5 19.2-1.05Q34.4 5.4 40.9 1L23.2 3.55q-9.95 1.8-17.7 4.5-2.15.9-3.3 3.1-.6 1.15-.8 2.3-.1.85-.05 1.7-.4.75-.65 1.6" fill="#591e0d"/><path d="M40.9 1q1.9-1.35 3.3-.05 1.45 1.4 1.7 5.2.1 1-2.5 2.9-2.5 1.85-6.5 3.75-9.7 4.65-17.75 5.35L19 17.2l2.1-.4 1.65-.35 1.4-.35q4.7-1.15 9.05-3l1.15-.5 1.25-.55 1.2-.6 1.55-.8q2.9-1.7 4.3-3.35l.85-1.25q.7-1.45-.35-3.45-1.1-2-2.25-1.6" fill="#fde3ff"/><path d="m47.6 6.5.4-1.4q2.3.7 4.05 2 1.85 1.35 2.8 3.15 1.7 3.3 1.1 7.5-.5 3.95-2.75 6.8-1.15 1.45-2.35 2.15-1.15.65-3 .9l-5 .6-5.45.8-10.55 2.4-10.3.55q-3.85-.6-8.15-3.15l1.4.1 2.4-.3q1.45.9 3.5 1.35l6.35.35q6.65-.45 17.75-3.55l6.25-.95q3.6-.5 5.1-1.7 1.25-1.05 2.05-2.6l.55-1.5.5-2.65-.15-2.6q-.45-2.8-2.05-4.95-1.7-2.4-4.45-3.3" fill="#405c79"/><path d="M23.9 18.95q6.6-1.05 12.3-3.65 6.4-2.9 10.2-7.05l1.2-1.75q2.75.9 4.45 3.3 1.6 2.15 2.05 4.95l.15 2.6q-2.55-5.05-5.8-5.8-2.7 2.4-8.05 4.8-4.85 2.15-7.6 2.6-4.6.7-8.9 0" fill="#87a8f2"/><path d="M5.5 8.05q7.75-2.7 17.7-4.5L40.9 1q1.15-.4 2.25 1.6 1.05 2 .35 3.45l-.85 1.25q.45-7-2.85-5L40.9 1q-6.5 4.4-15.8 6.15Q16.75 8.7 5.9 8.2l-.4-.15m5 1.05 6.55.3q2.05 2.55 4.05 7.4l-2.1.4q-.6-2.5-2.55-4.45Q13.7 10 9.8 10l-3 .45 3.7-1.35m26.3 2.35-1.2.6-1-4.45 1.35-.6.85 4.45" fill="#fca44d"/><path d="M1.35 15.15q-.05-.85.05-1.7.6-1.65 2.3-3.1Q5.4 8.9 7.25 8.5l3.25.6-3.7 1.35q-2.05.7-3.7 2.3-1.1 1.1-1.75 2.4M39.8 2.3q3.3-2 2.85 5-1.4 1.65-4.3 3.35.95-2.4-.35-4.8L35.95 7l-1.35.6-2.25.8-3.9 1-5.55.65-1.1.05-1.2-.05-3.55-.65 7.9-.95q6.2-1.25 9.6-2.75 3.3-1.4 5.25-3.4" fill="#be6711"/><path d="M1.4 13.45q.2-1.15.8-2.3 1.15-2.2 3.3-3.1l.4.15 1.35.3q-1.85.4-3.55 1.85-1.7 1.45-2.3 3.1M35.95 7 38 5.85q1.3 2.4.35 4.8l-1.55.8L35.95 7m-.35 5.05-1.25.55-1.15.5-.85-4.7 2.25-.8 1 4.45M24.15 16.1l-1.4.35-.95-6.35 1.1-.05 1.25 6.05m-7.1-6.7 3.55.65.5 6.75q-2-4.85-4.05-7.4" fill="#f8e769"/><path d="m19.25 19.5 4.65-.55q4.3.7 8.9 0 2.75-.45 7.6-2.6 5.35-2.4 8.05-4.8 3.25.75 5.8 5.8l-.5 2.65-.55 1.5q-5.2-9.7-9.2-6-10.3 7.8-20.6 5.5-1.55 6.25-7.7 8.95-2.05-.45-3.5-1.35 2.4-.6 4.25-2.5 2.75-2.75 2.8-6.6" fill="#a7c4ea"/><path d="M33.2 13.1q-4.35 1.85-9.05 3l-1.25-6.05 5.55-.65 3.9-1 .85 4.7m-10.45 3.35-1.65.35-.5-6.75 1.2.05.95 6.35" fill="#fff"/><path d="M53.2 21.5q-.8 1.55-2.05 2.6-1.5 1.2-5.1 1.7l-6.25.95q-11.1 3.1-17.75 3.55l-6.35-.35q6.15-2.7 7.7-8.95 10.3 2.3 20.6-5.5 4-3.7 9.2 6" fill="#fefef1"/><path d="M.7 16.75q.25-.85.65-1.6.65-1.3 1.75-2.4 1.65-1.6 3.7-2.3l3-.45q3.9 0 6.65 2.75Q18.4 14.7 19 17.2l.15.95.1 1.3v.05q-.05 3.85-2.8 6.6-1.85 1.9-4.25 2.5l-2.4.3-1.4-.1q-3-.4-5.3-2.7Q.35 23.35.35 19.45q0-1.45.35-2.7m13.8-4.3q-2.05-1.4-4.7-1.4l-.75.05q-3 .2-5.2 2.4-2.45 2.45-2.45 5.95 0 1 .25 1.9l.35 1.3q.65 1.45 1.85 2.7Q5.2 26.7 6.8 27.3l3 .55q3.25 0 5.6-2.15l.35-.35q2.45-2.45 2.45-5.9 0-3.5-2.45-5.95l-1.25-1.05" fill="#3285e1"/><path d="M14.95 19.85q.85-5.25-3.4-7.7-1.1-.6-2.5-1.05l.75-.05q2.65 0 4.7 1.4 1.35 2.05 2 4.05l-.65 1.8-.9 1.55m.45 5.85q-2.35 2.15-5.6 2.15l-3-.55q6.45.8 9.95-4.75-.4 1.6-1.35 3.15" fill="#abc1fe"/><path d="M7.4 14q-.25.25-.25.65l.25.65.65.25.65-.25.3-.65-.3-.65q-.25-.3-.65-.3t-.65.3m-3.6 4.6-.6-.3q-1.5 1.6-.65 3.7l-.9-.65q-.25-.9-.25-1.9 0-3.5 2.45-5.95 2.2-2.2 5.2-2.4 1.4.45 2.5 1.05l-2.35.6q1.45 3.5-.6 5.5-1 1-2.25 1.05l.7-1.1q.2-.7-.15-1.35-.35-.7-1.05-.9-.65-.15-1.3.25t-.85 1.15q-.15.65.1 1.25m7.5-.3q-.35-.35-.35-.8 0-.5.35-.85t.85-.35q.45 0 .8.35.35.35.35.85l-.35.8q-.35.35-.8.35-.5 0-.85-.35" fill="#f7fee4"/><path d="m3.8 18.6.05.1q.35.7 1.05.85.7.2 1.3-.2l.15-.05q1.25-.05 2.25-1.05 2.05-2 .6-5.5l2.35-.6q4.25 2.45 3.4 7.7-.8.9-2 1.65-1.25.8-2.55 1.25Q6 24.1 2.55 22q-.85-2.1.65-3.7l.6.3m7.5-.3q.35.35.85.35.45 0 .8-.35l.35-.8q0-.5-.35-.85t-.8-.35q-.5 0-.85.35t-.35.85q0 .45.35.8" fill="#aaf7d8"/><path d="M7.4 14q.25-.3.65-.3t.65.3l.3.65-.3.65-.65.25-.65-.25-.25-.65q0-.4.25-.65m-1.05 5.3-.15.05q-.6.4-1.3.2-.7-.15-1.05-.85l-.05-.1q-.25-.6-.1-1.25.2-.75.85-1.15.65-.4 1.3-.25.7.2 1.05.9.35.65.15 1.35l-.7 1.1" fill="#fffffe"/><path d="m14.5 12.45 1.25 1.05q2.45 2.45 2.45 5.95 0 3.45-2.45 5.9l-.35.35q.95-1.55 1.35-3.15.8-2.9-.25-6.05-.65-2-2-4.05" fill="#fccdff"/><path d="M6.8 27.3q-1.6-.6-2.95-1.95-1.2-1.25-1.85-2.7 4 3 7.85 2.1l1.8-.65 1.75-1.3 1.1-1.45.45-1.5.9-1.55.65-1.8q1.05 3.15.25 6.05-3.5 5.55-9.95 4.75" fill="#457efd"/><path d="M2.55 22q3.45 2.1 7.85.75 1.3-.45 2.55-1.25 1.2-.75 2-1.65l-.45 1.5-1.1 1.45-1.75 1.3-1.8.65Q6 25.65 2 22.65l-.35-1.3.9.65" fill="#91d9da"/></g><g id="h" fill-rule="evenodd"><path d="M18.55 26.95 19 24.9q.7-5.4-1.55-6.9-.5-6.95-3.8-11.65Q10.35 1.5 4.8 0q5.9-.2 9.65 3.95 3.8 4.25 5.1 12.6 1.75 1.05 2.3 3.6.5 2.3-.15 5.2l-3.15 1.6m-5.45 1.7.6.8-1.9.95-1.2-2.3q-.85-1.55-1.7-2.35L6 23.1l-2.65-2.8Q.55 16.9 0 12.2q1.1 3.7 3.6 6.5 1.65 1.85 4.9 4.2l.75.5 1.2 1.45 2.25 3.25.4.55" fill="#405c79"/><path d="m17 30.4.9-1.55.65-1.9 3.15-1.6q-.6 2.9-2 5.25-1.45 2.55-3.35 3.55-2.45-.05-4.3-3.3l-.25-.45 1.9-.95q1.6 2 2.45 1.65l.85-.7" fill="#f7ff8d"/><path d="m17 30.4.1-2.7q-.05-7.75-3.35-15.35-1.75-4-3.9-6.45-2.3-2.6-4.5-2.9l-1.4 2.1q-1 1.25-2.75 2.2Q2.4 3.7 4.8 0q5.55 1.5 8.85 6.35 3.3 4.7 3.8 11.65 2.25 1.5 1.55 6.9l-.45 2.05-.65 1.9-.9 1.55" fill="#87a8f2"/><path d="M1.2 7.3q1.75-.95 2.75-2.2L5.35 3q2.2.3 4.5 2.9 2.15 2.45 3.9 6.45 3.3 7.6 3.35 15.35l-.1 2.7-.85.7q-.85.35-2.45-1.65l-.6-.8q2.75-1.35 2.55-4.85-.25-3.5-3.25-6.25-1.9-1.75-3.65-4.1l-2.5-3.5Q5 8.3 3.95 7.8L1 7.9l.2-.6" fill="#a7c4ea"/><path d="m1 7.9 2.95-.1q1.05.5 2.3 2.15l2.5 3.5q1.75 2.35 3.65 4.1 3 2.75 3.25 6.25.2 3.5-2.55 4.85l-.4-.55-2.25-3.25q2.55-1.4.95-5-1.55-3.35-6.6-8.2l-.3-.3Q1.6 7.8.1 11.7q.25-1.9.9-3.8" fill="#fcfcdb"/><path d="M.1 11.7q1.5-3.9 4.4-.35l.3.3q5.05 4.85 6.6 8.2 1.6 3.6-.95 5l-1.2-1.45-.75-.5q-3.25-2.35-4.9-4.2-2.5-2.8-3.6-6.5l.1-.5" fill="#fffffb"/></g><g id="j" fill-rule="evenodd"><path d="M0 36.25Q31.15 27.65 58.8 0q4.65 22.6-10.65 33.3 10.45 4 20.9 4.55-12.8 21.95-38.3 15.75 3.45 7.9 10.45 12.95-6.15 2.45-13.65.55-6.9-1.8-13.35-6.75Q7.85 55.45 4 49.1q-4-6.65-4-12.85m30.55 23.8q-3.05-4.3-2.35-9l-4.8-2.65q27.35 8.95 42-8.35-10.85-.65-21.15-5.6l-4.4 1.35Q50.1 30.15 54.9 21.05q4.65-8.8 3.3-18.9-3.8 4.45-8.05 8.3L44.2 15.3l-6.25 4.5q-7.6 5.25-17.05 9.95-10.3 5-19.2 7.45Q4 56.4 24.75 62.75 29.55 64.2 35.4 65q-3.1-2.45-4.85-4.95" fill="#f7ff8d"/><path d="M50.15 10.45q4.25-3.85 8.05-8.3 1.35 10.1-3.3 18.9-4.8 9.1-15.05 14.75l4.4-1.35q10.3 4.95 21.15 5.6-14.65 17.3-42 8.35l4.8 2.65q-.7 4.7 2.35 9-7.8-5.4-13.25-13.55 9.45 2.45 16.9.9 7.6-1.6 12.1-7.15-8.65.65-16.65-1.65 19.85-14.05 20.5-28.15" fill="url(#z)"/><path d="M30.55 60.05q1.75 2.5 4.85 4.95-5.85-.8-10.65-2.25-9.9-9.85-10.95-16.65 9.4.35 15.7-1.9 2.7-.95 3.55-2.05.85-1.15-.6-2-.85-.55-5.7-1.55-4.65-1-5.7-2 6.05-2.85 10.4-7.4 4.15-4.2 6.5-9.4l6.25-4.5 5.95-4.85q-.65 14.1-20.5 28.15 8 2.3 16.65 1.65-4.5 5.55-12.1 7.15-7.45 1.55-16.9-.9 5.45 8.15 13.25 13.55" fill="url(#A)"/><path d="M24.75 62.75Q4 56.4 1.7 37.2q8.9-2.45 19.2-7.45 9.45-4.7 17.05-9.95-2.35 5.2-6.5 9.4-4.35 4.55-10.4 7.4 1.05 1 5.7 2 4.85 1 5.7 1.55 1.45.85.6 2-.85 1.1-3.55 2.05-6.3 2.25-15.7 1.9 1.05 6.8 10.95 16.65" fill="url(#B)"/></g><g id="k" fill-rule="evenodd"><path d="M8.6 29.15q-2 3.7-3.25 8.55Q3.6 44.75 3.8 52.85q.2 8.25 2.4 15.8Q7.7 73.8 9.95 78q1.25 2.35 2.75 4.4 5.1-2 7.95 3.4.5-2.5 1.65-6.5l1.1.8v.05q-1.65 4.45-1.9 8.25v.3q-.15 2.9.6 6.95l1.25 7.35q.55 4.8.05 9.95-.15 1.55-1.5 4.2-.9 1.9-.1 3.2 3.85 6.4 12.85 10.1 4.6 1.85 9.95 2.85l10.1.95q11.55.3 23.2-2.9 12.4-3.35 22.35-10.1l-1.65 1.9q2.7 2.2 6 2.45 2.95.3 5.55-1 2.55-1.3 3.7-3.5 1.2-2.35.25-4.85-2.7-.05-4.55-1.15l-.9-.65q-2.15-1.8-2.2-4.85.95 2.5 3.1 3.65l.85.4 1.75.45 4.3-.35q3.45-.95 6.5-3.65 3.3-2.9 5.25-7.2 2-4.4-.8-7.45-2.55-2.75-7.9-3.25l-6.4.35-4.15 1.2q-5.75 2.3-8.8 7l.8-1.6q3.05-5.55 10.3-7.65 8.2-2.35 16.2 1.15 22.65-39.8 14.7-65.95L141 23.35q-12.6 3.2-23.65 8.25-15.65 7.1-28.4 17.85l.45-2.05q5.7-4.9 11.75-9 4.35-2.95 8.95-5.45l2.6-1.45q14.05-7.3 29.8-10.65 13.3 26-12.55 72.95 6.15 12.95-14.9 22.25 1.2 2.7.05 5.55-1.15 2.75-3.85 4.35-2.85 1.7-6.2 1.3-3.75-.5-7.05-3.65-9.15 6.95-21.65 10.25-11.6 3.05-23.55 2.35-11.8-.65-20.45-4.75-9.1-4.4-12.3-11.4l-.2-.75-.05-.15q-6-3.5-6.25-8.15-.25-4.55 4.85-7.55Q6.85 91.5 10.65 84.3q-20.7-37.15-1.25-61.1 12.1.9 16.5 9.5l-1.7-.55-.85.55q-5.55-6.05-12.6-6.8-1.15 1.45-2.15 3.25m.55 9.1q3.15.8 4.9 6.4l-.75 2.4q-1.45-6.45-4.15-8.8M15.2 84.4h-.1q-2.2.35-2.8 2.9-.6 2.75 1.2 6.9l1.4 2.8q2.05 3.5 5.45 7.25-1.2.55-2.15 1.15-5.4 3.45-1.1 9.35l2.85 3.25.45-1.1 1.75-3.35q.75-2.5-.3-8.85l-1.6-10.2q-.35-4.05.2-7.65l.05-.3q-2.9-2.4-5.3-2.15m68.15 14.45q.7-8.2 7.45-15.75 4.5-5 15.6-13.25 12.4-9.25 17.25-13.9 9-8.7 12.5-18.05-.65 7.2-5.4 13.7l-2 2.45v.05l-.1.1q-1.55 1.8-3.5 3.6l-4.6 3.85q.5 5.8-1.55 11.9-1.9 5.75-5.75 10.9-3.8 5.1-8.85 8.7-5.15 3.75-10.7 5.2 9.95-4 17.2-13.6 3.6-4.8 5.7-10 2.4-5.85 2.9-12.2-13.75 9.25-24.2 18.5 2.1-.95 3.35.5 1.2 1.4.9 4.15l-.1.85q-.55 2.55-2.3 5.05l-2.85 3.15-3.8 2.75q6.2-5.65 7.45-10.3.5-1.9 0-3.15-.5-1.2-1.7-1.45-2.9-.65-6.4 3.25-4.1 4.55-6.4 13h-.1m-37.5 27.35q.3.5-.5.65-.8.15-1.35-.55-1-1.25-2.7-1.8l-3.85-.7 5.55.15q1.9.7 2.85 2.25" fill="#405c79"/><path d="M9.95 78Q7.7 73.8 6.2 68.65 4 61.1 3.8 52.85q-.2-8.1 1.55-15.15 1.25-4.85 3.25-8.55 3.6 4.05 6.95 11.65l-1.5 3.85q-1.75-5.6-4.9-6.4-1.3.7-1.85 5.45-.65 5.2.2 11.9 1.35 11.6 7.25 21-1.6 1.7-4.8 1.4m107.4-46.4q11.05-5.05 23.65-8.25l1.15 3.35q-10.75.15-24.8 4.9m-32.8 38.9 4.4-4.1 9.35-9.55 15.9-8.8q1.9 3.55.25 8.5-1.65 5-6.05 8.6-4.1 3.3-7.55 6.4Q98.4 70.35 89 70.4l-4.45.1m46.3-18.75 3-4q3.7-5.2 4.25-8.25 4 19.35-3.3 32.8-4.25-.25-8.5 1.65 2.05-9.05-1.15-16.15 1.95-1.8 3.5-3.6l.1-.1v-.05l2.1-2.3" fill="#cfdbf7"/><path d="M8.6 29.15q1-1.8 2.15-3.25 7.05.75 12.6 6.8l-5.6 3.45q-1.25 2.35-2.2 4.65-3.35-7.6-6.95-11.65m80.35 20.3q12.75-10.75 28.4-17.85 14.05-4.75 24.8-4.9 7.95 26.15-14.7 65.95-8-3.5-16.2-1.15-7.25 2.1-10.3 7.65-1.6-.7-4.15.4-3 1.2-4 .85t.9-2.05q5.55-1.45 10.7-5.2 5.05-3.6 8.85-8.7 3.85-5.15 5.75-10.9 2.05-6.1 1.55-11.9l4.6-3.85q3.2 7.1 1.15 16.15 4.25-1.9 8.5-1.65 7.3-13.45 3.3-32.8-.55 3.05-4.25 8.25l-3 4-.1-.15q4.75-6.5 5.4-13.7-3.5 9.35-12.5 18.05-4.85 4.65-17.25 13.9Q95.3 78.1 90.8 83.1q-6.75 7.55-7.45 15.75h-.1q-1.2-5.5 5.2-14.1 4.5-6.1 12.4-13.2 3.45-3.1 7.55-6.4 4.4-3.6 6.05-8.6 1.65-4.95-.25-8.5l-15.9 8.8-9.35 9.55-4.4 4.1q-5.75.3-8.15 1.2 6.3-5.75 9.95-14.45 1.6-3.7 2.6-7.8m24.15 43.1 6.4-.35q5.35.5 7.9 3.25 2.8 3.05.8 7.45-1.95 4.3-5.25 7.2-3.05 2.7-6.5 3.65l-4.3.35q9.25-4.65 9.4-10.15.1-3.45-1.55-6.3-2.2-3.75-6.9-5.1M22.3 79.3q-1.15 4-1.65 6.5-2.85-5.4-7.95-3.4-1.5-2.05-2.75-4.4 3.2.3 4.8-1.4-5.9-9.4-7.25-21-.85-6.7-.2-11.9.55-4.75 1.85-5.45 2.7 2.35 4.15 8.8-2.1 7.45-1.35 14.2Q13.2 72.55 22.3 79.3m-7.2 5.15.1-.05q2.4-.25 5.3 2.15l-.05.3q-.55 3.6-.2 7.65l1.6 10.2q1.05 6.35.3 8.85l-1.75 3.35-.45 1.1-2.85-3.25q5.5-3.75 1.1-9.35.95-.6 2.15-1.15-3.4-3.75-5.45-7.25 5.5-5.55.2-12.55m84.35 2.1.1-.85q.3-2.75-.9-4.15-1.25-1.45-3.35-.5 10.45-9.25 24.2-18.5-.5 6.35-2.9 12.2-2.05-3.1-17.15 11.8m-16 12.3q2.3-8.45 6.4-13 3.5-3.9 6.4-3.25 1.2.25 1.7 1.45.5 1.25 0 3.15-1.25 4.65-7.45 10.3 1.8-2.35 2-5.2V92q.05-2.4-1.15-3.25-1.35-1.05-3.3 1.1-1.6 1.75-3.1 5.2l-1.5 3.8" fill="#87a7eb"/><path d="M91.35 5.4q-9.1.3-17.8 3 .2 2.6-.9 4.45-1 1.65-2.85 2.25l-3.5-.15q-1.85-.75-2.9-2.7-10.95 5.05-19.75 11.9l-.95.8q-2.95 2.35-5.5 5.2-1.9-.05-.5-4.1Q53.6 10.2 71.6 4.85q13.1-3 19.75.55" fill="#fff"/><path d="M43.65 24.15q8.8-6.85 19.75-11.9 1.05 1.95 2.9 2.7l3.5.15q1.85-.6 2.85-2.25 1.1-1.85.9-4.45 8.7-2.7 17.8-3Q89 13.95 76 28.65q-4.75 2.35-8.35 6.1l2.3-7.05q-10.1 7.85-17.15 17.2l-.55-3.05q5.7-12.65 15.4-25.25-12.2 3.35-21.15 11.3l-1.8-2.45-1.05-1.3m-6.95 1.9q-1.4 4.05.5 4.1l-3.2 3.8q-.65-2.15 1.35-6.6l1.35-1.3" fill="#95faf4"/><path d="m23.35 32.7.85-.55 1.7.55q1.7.7 3.25 1.9l2.3 2.3.25.3-1.1 1.7q-2.15-2.65-7.65-5l-2.25 1.35-2.3 1.35q-2.25 5.65-3.5 10.9l-.4 1.9-.2.9-.3 2.05q-.8 5.45-.15 9.7l.05.1q.75 4.8 3.35 9.15l.05.1.65 1.05.3.45q1.95 2.9 4.95 6.05l.2 1.15-1.1-.8q-9.1-6.75-10.35-18.05-.75-6.75 1.35-14.2l.75-2.4 1.5-3.85q.95-2.3 2.2-4.65l5.6-3.45M89.4 47.4l-.45 2.05q-1 4.1-2.6 7.8-3.65 8.7-9.95 14.45-6.3 5.85-14.55 8.1-8.55 2.3-18.3.45-3.3 4.9-7.5 7.85-3.9 2.75-8.85 3.95l-.35-.9.5-.5q2.65-3.05 5.55-8.8l2.75-5.9.3-.65.15-.35 1.8-3.75.4-.8q3.05-6.3 5.7-8.75 1.65-1.5 3.65-1.75 1.95-.25 3.95.65l.1-1.2q-4.25-.1-6-3.95-.85-1.9-1.2-5.25l-.05-1.05-.05-.3-.1-2.55.05-11.2q-.15-5.95-1.4-9.45l-.25-.65.95-.8 1.05 1.3 1.8 2.45q4.1 6.25 5.75 13.95l.55 3.05q.95 6.4.3 13.75l-1.15 7.7Q60.25 64.1 63 41q2.05-3.5 4.65-6.25 3.6-3.75 8.35-6.1 2.85-1.45 6.15-2.35 5.75 4.2 8.5 11.4-.25 5.05-1.25 9.7M47.6 31.2l-1.8-2.9q-1-1.35-2.2-2.4l.85 2.6q.95 3.05 1.05 7.95l-.05 5.25v4.75q.1 5.55 1.3 8.2.8 1.8 2.3 2.7 1.2.75 2.9.8h.1q.9-11-2.45-21.75-.8-2.85-2-5.2m31.7-1.95q-10.1 4.35-15.55 11.8.35 4-.3 8.05-.55 3.65-1.9 7.25l-.45 1.05-.4 1-.85 1.85q-2.15 4-4.8 5.8-1.7 1.15-3.55 1.4-2.45 6.95-6.8 11.65 18.6 2.15 30-8.05Q86.4 60.5 89.4 37.8q-2.75-6.2-6.95-9.8l-3.15 1.25m-28.8 32.6-2.8-.35-.5.05q-1.5.35-2.7 1.45-2.15 2-4.65 7l-.45.8L34.6 81q-2.05 4.1-3.95 6.65l-.25.3-.55.65-2.05 2.3q2.95-.7 5.7-2.45 3-1.9 5.4-4.8 5.1-5.9 7.55-9.75Q50 68.25 51.3 62.15l-.1-.05-.7-.25" fill="#591e0d"/><path d="M110.1 32.95q-4.6 2.5-8.95 5.45-1.9-2.2-2.3-4.7-.45-2.3.4-4.3.85-1.95 2.5-2.95 1.75-1.05 3.85-.65l-1.4-9.35 1.95-2.45q4.7 7.1 3.95 18.95m-68.45-5.9 1.3-1.45q1.25 3.5 1.4 9.45l-.05 11.2.1 2.55Q43.4 37 42.2 30l-.05-.5-.5-2.45m5.95 4.15q1.2 2.35 2 5.2 3.35 10.75 2.45 21.75h-.1q-.75-.25-1.35-.8.95-11.95-3-26.15M35.65 75.95l-2.75 5.9q-2.9 5.75-5.55 8.8l-.95-2.6L27.55 87l.3-.25q3.5-3.4 7.15-9.75l.6-1.05h.05M82.45 28q4.2 3.6 6.95 9.8-3 22.7-14.7 33.25-11.4 10.2-30 8.05l4-.35q4.7-.5 9.35-1.7 5.35-1.9 9.75-4.8 10.05-6.65 15.3-18.8 1.8-4.2 3.05-9.05l1.4-6.8-5.1-9.6m-32.2 34.5.25-.65.7.25.1.05q-1.3 6.1-4.85 11.75-2.45 3.85-7.55 9.75-2.4 2.9-5.4 4.8-2.75 1.75-5.7 2.45l2.05-2.3.55-.65.25-.3q2.05-1.05 4-2.6 3.5-2.7 6.75-7 2.3-3.05 4.4-6.75 2.3-4 4.45-8.8m44-31.6q.55 0 .95.4.4.4.4.95 0 .6-.4.95-.4.4-.95.4-.55 0-.95-.4-.4-.35-.4-.95 0-.55.4-.95.4-.4.95-.4" fill="#fde3ff"/><path d="M23.4 80.15v-.05l-.2-1.15q-.75-3.65-1.05-7.35-.55-6.45.2-13 1.6-5.85 3.8-10.95l1.2-2.7 1.15-2.25q.75-1.55 1.65-2.95l.45-.85 1.1-1.7 2.3-3.25 3.2-3.8q2.55-2.85 5.5-5.2l.25.65-1.3 1.45Q29.3 40.65 23.2 58.25l-.35.95Q21.8 74.9 26.4 88.05l.95 2.6-.5.5q-2.25-5.45-3.45-11" fill="#2c83e0"/><path d="m42.15 29.5.05.5q-7.75 9.55-12.3 26.15-.85 2.5-3.35 2.65 1-5.2 2.75-9.7 3.8-9.65 12.85-19.6m-.3 3.1.25-.45q1.25 12.8-3.4 28.15-12.6-.2 3.15-27.7M37.4 50.1q.45 0 .75-.35l.3-.75-.3-.75q-.3-.3-.75-.3t-.8.3q-.3.35-.3.75 0 .45.3.75.35.35.8.35m.15 2.6q-.1-1.15-.65-1.3-.5-.1-1.15.8-.65.95-1.05 2.4-.35 1.45-.25 2.6.1 1.1.6 1.25.5.15 1.2-.8.6-.9 1-2.35.4-1.5.3-2.6m-11.2 7.5q2.35 1.65 1.6 5.85-.45 3.05-.7 7.15-.5 8.2.6 13.55l-.3.25q-1.85-4.55-2.1-12.15-.2-7.9.9-14.65M33 75.9q-2 3.95-4.35 7.45.05-6.65.75-11.15 1.55 2.3 3.6 3.7m5.55-14.35-2.8 8.25Q33.4 68 31.2 65.35l.2-.4q1.15-2.1 3.05-2.85l4.1-.55m-4.45 12.1-.5 1.05q-2.1-1.5-4-3.9l.3-1.5q2 2.7 4.2 4.35" fill="#9effcf"/><path d="M51.95 58.15q-1.7-.05-2.9-.8l-1.45-2.8q-.8-1.9-.8-3.75-.05-2.2-.65-4.8l-.7-3.5v-.8l.05-5.25q-.1-4.9-1.05-7.95l-.85-2.6q1.2 1.05 2.2 2.4l1.15 8.15v.2l.15 1.75.65 9.2q.35 4.75 1.2 7.05.45 1.2 1.05 2l.6.7q.6.55 1.35.8m11.5-9.05q.65-4.05.3-8.05 5.45-7.45 15.55-11.8l-3.9 12.3q-6 2.7-11.95 7.55m-8.4 16.95q2.65-1.8 4.8-5.8l7.6-3.6Q62.9 64.05 54.7 70.5l.35-4.45m5.65-7.65.4-1 .45-1.05 9-5.4L68.4 55q-3.35.3-7.7 3.4M14.9 47.5q1.25-5.25 3.5-10.9l2.3-1.35q-3.1 6.5-3.95 12.7l-1.85-.45m-.6 2.8 2.1.65-.4 2.1-2-.7.3-2.05m-.4 11.85h2.2v.05q.55 2.7 2.4 5.3l.85 1.1-2.1 2.7q-2.6-4.35-3.35-9.15M20 69.3l.3.35-2.05 3.25-.3-.45L20 69.3m25.05-4.85-.6.9-.6 1.3h2.6L45.1 69.8h-2.7l-2.6 5.7-1.25 2.7q-2.05 4.2-3.9 6.85-1.95 1.55-4 2.6 1.9-2.55 3.95-6.65l4.8-10.2.45-.8 7.35-8.45.5-.05 2.8.35-.25.65-1.9.2-1.5.4q-1.1.5-1.8 1.35" fill="#f8e769"/><path d="m41.65 27.05.5 2.45Q33.1 39.45 29.3 49.1q-1.75 4.5-2.75 9.7l-3.35-.55q6.1-17.6 18.45-31.2m.2 5.55Q26.1 60.1 38.7 60.3q-15.35 1.15 3.15-27.7M37.4 50.1q-.45 0-.8-.35-.3-.3-.3-.75 0-.4.3-.75.35-.3.8-.3.45 0 .75.3l.3.75-.3.75q-.3.35-.75.35m.15 2.6q.1 1.1-.3 2.6-.4 1.45-1 2.35-.7.95-1.2.8-.5-.15-.6-1.25-.1-1.15.25-2.6.4-1.45 1.05-2.4.65-.9 1.15-.8.55.15.65 1.3m-8.9 30.65q-2.55-25.5 9.9-21.8l-4.1.55q-1.9.75-3.05 2.85l-.2.4q2.2 2.65 4.55 4.45l-1.65 3.85Q31.9 72 29.9 69.3l-.3 1.5q1.9 2.4 4 3.9l-.6 1.2q-2.05-1.4-3.6-3.7-.7 4.5-.75 11.15m-5.8-24.15q2.2.15 3.5 1-1.1 6.75-.9 14.65.25 7.6 2.1 12.15l-1.15 1.05Q21.8 74.9 22.85 59.2" fill="#f1ffd1"/><path d="m45.8 28.3 1.8 2.9q3.95 14.2 3 26.15l-.6-.7q-.5-9.35-3.05-20v-.2L45.8 28.3m5.7 39.15q1.85-.25 3.55-1.4l-.35 4.45q2.25 1 6.05-.75 4.25-2 8.35-6.6.9 3.3-1.3 9.1-4.4 2.9-9.75 4.8-4.65 1.2-9.35 1.7 5.5-7.5 2.8-11.3M19.35 68.6l.65.7-2.05 3.15-.65-1.05-.05-.1 2.1-2.7m.95 1.05 1.45 1.5.4.45q.3 3.7 1.05 7.35-3-3.15-4.95-6.05l2.05-3.25m4.75-34.05q2.7 1.45 5.1 4.15-.9 1.4-1.65 2.95-3.55.9-7.1 3.8.65-5.25 3.65-10.9m2.3 9.35-1.2 2.7q-3.3 1.75-5.6 5.1l.55-4.15q3.15-2.75 6.25-3.65m11.2 33.25 1.25-2.7 2.6-5.7h2.7l1.35-3.15h-2.6l.6-1.3.6-.9q3.5 1.55 3.3-1.75l1.9-.2q-2.15 4.8-4.45 8.8l-7.25 6.9M83.1 53.45l-2.8-7.15 3-9.4 2.85 7.5q-1.25 4.85-3.05 9.05" fill="#fca44d"/><path d="M46.95 36.65q2.55 10.65 3.05 20-.6-.8-1.05-2-.85-2.3-1.2-7.05l-.65-9.2-.15-1.75M44.7 79.1q4.35-4.7 6.8-11.65 2.7 3.8-2.8 11.3l-4 .35m-22.95-7.95q-2.6-3.05-3.7-8.25-1-4.65-.7-10.2.25-5.1 1.95-10.1 1.4-4.3 3.55-7.9l2.2.9q-3 5.65-3.65 10.9 3.55-2.9 7.1-3.8l-1.15 2.25q-3.1.9-6.25 3.65l-.55 4.15q2.3-3.35 5.6-5.1-2.2 5.1-3.8 10.95-.75 6.55-.2 13l-.4-.45m23.3-6.7q.7-.85 1.8-1.35l1.5-.4q.2 3.3-3.3 1.75m-10.4 20.6q1.85-2.65 3.9-6.85l7.25-6.9q-2.1 3.7-4.4 6.75-3.25 4.3-6.75 7m33.15-12.8q2.2-5.8 1.3-9.1-4.1 4.6-8.35 6.6-3.8 1.75-6.05.75 8.55-3.25 15.75-14.2 7.15-10.95 12-28.3l5.1 9.6-1.4 6.8-2.85-7.5-3 9.4 2.8 7.15q-5.25 12.15-15.3 18.8" fill="#be6711"/><path d="M42.2 30q1.2 7 2.2 18.8l.05.3.05 1.05q.35 3.35 1.2 5.25 1.75 3.85 6 3.95l-.1 1.2q-2-.9-3.95-.65-2 .25-3.65 1.75-2.65 2.45-5.7 8.75l-.4.8-2.15-1.4 2.8-8.25q-12.45-3.7-9.9 21.8Q31 79.85 33 75.9l2 1.1q-3.65 6.35-7.15 9.75-1.1-5.35-.6-13.55.25-4.1.7-7.15.75-4.2-1.6-5.85l.2-1.4q2.5-.15 3.35-2.65Q34.45 39.55 42.2 30m-3.5 30.3q4.65-15.35 3.4-28.15l-.25.45q-18.5 28.85-3.15 27.7m-2.6 14.65-.15.35-.35.65-2-1.25.5-1.05 2 1.3" fill="#73adfd"/><path d="M49.05 57.35q-1.5-.9-2.3-2.7-1.2-2.65-1.3-8.2V42.5l.7 3.5q.6 2.6.65 4.8 0 1.85.8 3.75l1.45 2.8m30.25-28.1L82.45 28q-4.85 17.35-12 28.3-7.2 10.95-15.75 14.2 8.2-6.45 12.75-13.85l-7.6 3.6.85-1.85q4.35-3.1 7.7-3.4l2.15-4.05-9 5.4q1.35-3.6 1.9-7.25 5.95-4.85 11.95-7.55l3.9-12.3m-58.6 6 2.25-1.35q5.5 2.35 7.65 5l-.45.85q-2.4-2.7-5.1-4.15l-2.2-.9q-2.15 3.6-3.55 7.9-1.7 5-1.95 10.1-.3 5.55.7 10.2 1.1 5.2 3.7 8.25l-1.45-1.5-.3-.35-.65-.7-.85-1.1q-1.85-2.6-2.4-5.3v-.05h-2.2l-.05-.1q-.65-4.25.15-9.7l2 .7.4-2.1-2.1-.65.2-.9.4-1.9 1.85.45q.85-6.2 3.95-12.7m26.5 26.3L39.85 70q2.5-5 4.65-7 1.2-1.1 2.7-1.45" fill="#fefefe"/><path d="M101.15 38.4q-6.05 4.1-11.75 9 1-4.65 1.25-9.7-2.75-7.2-8.5-11.4-3.3.9-6.15 2.35Q89 13.95 91.35 5.4 84.7 1.85 71.6 4.85q11.8-3.5 24.1-2.45 4.95 8.9 2.7 22.7 1.5-2.35 2.35-6l3.45-2.65 1.4 9.35q-2.1-.4-3.85.65-1.65 1-2.5 2.95-.85 2-.4 4.3.4 2.5 2.3 4.7M46.5 27.9q8.95-7.95 21.15-11.3-9.7 12.6-15.4 25.25-1.65-7.7-5.75-13.95m6.3 17q7.05-9.35 17.15-17.2l-2.3 7.05Q65.05 37.5 63 41q-2.75 23.1-11.05 25.35l1.15-7.7q.65-7.35-.3-13.75m-21.35-8q-.05-5.55 2.9-11.7l1 2.15q-2 4.45-1.35 6.6l-2.3 3.25-.25-.3m62.8-6q-.55 0-.95.4-.4.4-.4.95 0 .6.4.95.4.4.95.4.55 0 .95-.4.4-.35.4-.95 0-.55-.4-.95-.4-.4-.95-.4" fill="#ae95fa"/><path d="m112.7 31.5-2.6 1.45q.75-11.85-3.95-18.95l-1.95 2.45-3.45 2.65q-.85 3.65-2.35 6 2.25-13.8-2.7-22.7-12.3-1.05-24.1 2.45-18 5.35-34.9 21.2l-1.35 1.3-1-2.15q-2.95 6.15-2.9 11.7l-2.3-2.3q3.9-16.15 6.35-10.85Q60.4-1.9 98.2.15q3.1 8.05 2.7 16.05l5.25-5.8q3.1 3.3 4.8 8.7 1.75 5.55 1.75 12.4" fill="#5d4a95"/><path d="m26.55 58.8-.2 1.4q-1.3-.85-3.5-1l.35-.95 3.35.55" fill="#d9fffc"/><path d="m100.95 99.15-.8 1.6q3.05-4.7 8.8-7l4.15-1.2q4.7 1.35 6.9 5.1 1.65 2.85 1.55 6.3-.15 5.5-9.4 10.15l-1.75-.45-.85-.4q6.95-1.75 8.6-5.65 1.45-3.45-1.35-6.75-2.7-3.3-6.95-3.6-4.75-.35-8.25 3.7-1.1 1.35-3.45 1.4l-4.65-.4q-2.45-.25-2.2-2.15.2-1.9 3-5.05l2.85-3.15q1.75-2.5 2.3-5.05 15.1-14.9 17.15-11.8-2.1 5.2-5.7 10-7.25 9.6-17.2 13.6-1.9 1.7-.9 2.05 1 .35 4-.85 2.55-1.1 4.15-.4m8.6 15.95q1.85 1.1 4.55 1.15.95 2.5-.25 4.85-1.15 2.2-3.7 3.5-2.6 1.3-5.55 1-3.3-.25-6-2.45l1.65-1.9Q90.3 128 77.9 131.35q-11.65 3.2-23.2 2.9l-10.1-.95q15.9.5 30.3-3.65 14.45-4.2 26.15-12.85 1.05 2.6 2.85 3.7 1.6.95 3.2.5 1.6-.5 2.35-2.05.75-1.7.1-3.85M21.5 88.4q.25-3.8 1.9-8.25 1.2 5.55 3.45 11l.35.9q4.95-1.2 8.85-3.95 4.2-2.95 7.5-7.85 9.75 1.85 18.3-.45 8.25-2.25 14.55-8.1 2.4-.9 8.15-1.2l-7 5.6q-14.8 10.5-31.95 9.85-3.4 3.05-8.55 5-4 1.5-9.95 2.55-2.1-.7-3.25-1.75-1.2-1.05-2.35-3.35m-6.4-4v.05q5.3 7-.2 12.55l-1.4-2.8q-1.8-4.15-1.2-6.9.6-2.55 2.8-2.9m3.1 21q4.4 5.6-1.1 9.35-4.3-5.9 1.1-9.35M92.5 92q-2.65 0-4.65 1.25-2 1.3-2.9 3.55v-1.75q1.5-3.45 3.1-5.2 1.95-2.15 3.3-1.1 1.2.85 1.15 3.25" fill="#a8c5fc"/><path d="M109.55 113.25q-2.15-1.15-3.1-3.65.05 3.05 2.2 4.85l.9.65q.65 2.15-.1 3.85-.75 1.55-2.35 2.05-1.6.45-3.2-.5-1.8-1.1-2.85-3.7-11.7 8.65-26.15 12.85-14.4 4.15-30.3 3.65-5.35-1-9.95-2.85-9-3.7-12.85-10.1-.8-1.3.1-3.2 1.35-2.65 1.5-4.2.5-5.15-.05-9.95l-1.25-7.35q-.75-4.05-.6-6.95v-.3q1.15 2.3 2.35 3.35Q25 92.8 27.1 93.5q5.95-1.05 9.95-2.55 5.15-1.95 8.55-5 17.15.65 31.95-9.85l7-5.6 4.45-.1q9.4-.05 11.85 1.15-7.9 7.1-12.4 13.2-6.4 8.6-5.2 14.1l.1.35.1-.35 1.5-3.8v1.75q.9-2.25 2.9-3.55 2-1.25 4.65-1.25v.3q-.2 2.85-2 5.2l3.8-2.75q-2.8 3.15-3 5.05-.25 1.9 2.2 2.15l4.65.4q2.35-.05 3.45-1.4 3.5-4.05 8.25-3.7 4.25.3 6.95 3.6 2.8 3.3 1.35 6.75-1.65 3.9-8.6 5.65m-63.7 12.95q-.95-1.55-2.85-2.25l-5.55-.15 3.85.7q1.7.55 2.7 1.8.55.7 1.35.55.8-.15.5-.65m-12.4-8.6q1.35-.8 1.3-1.6-.05-1.05-1.15-1.75-1-.65-2.5-.8l-2.75.2q-1.3.45-1.7 1.4-.35.85.9 2.1t2.5 1.3q1.9.05 3.4-.85" fill="#fffffb"/><path d="m37.9 71.2-1.8 3.75-2-1.3 1.65-3.85 2.15 1.4M35 77l-2-1.1.6-1.2 2 1.25L35 77" fill="#d8fffd"/><path d="M33.45 117.6q-1.5.9-3.4.85-1.25-.05-2.5-1.3t-.9-2.1q.4-.95 1.7-1.4l2.75-.2q1.5.15 2.5.8 1.1.7 1.15 1.75.05.8-1.3 1.6m-5.45-1 .3.3q.95.95 1.9.95 1.45.05 2.6-.6 1.05-.6 1.05-1.25-.05-.8-.9-1.35-.8-.5-1.95-.65h-.75l-1.35.2q-1 .35-1.3 1.05-.25.55.4 1.35" fill="#951f0e"/><path d="M30.25 114H31q1.15.15 1.95.65.85.55.9 1.35 0 .65-1.05 1.25-1.15.65-2.6.6-.95 0-1.9-.95l-.3-.3q1.35.4 2.1-.7.7-1.05.15-1.9" fill="#cc1613"/><path d="M28 116.6q-.65-.8-.4-1.35.3-.7 1.3-1.05l1.35-.2q.55.85-.15 1.9-.75 1.1-2.1.7" fill="#ea4436"/><path d="m66.55 89.45 1.9-.75q2 .7 4.1 2.95 2.1 2.2 3.6 5.2 1.85 3.75 1.9 8.25.05 4.95-2.3 9.35 1.4-3.05 1.4-8.65-.05-5.65-2-9.2l-1.2.65q-2.2-4.9-7.4-7.8M77.6 111.8q3.25-5.3 2.2-11.15-1.35-7.55-9.25-12.75l3.35-1.15q2.15 1.7 4.1 5.3 1.95 3.4 2.75 6.75.45 1.75.35 3.85-.05 1.95-.5 3.85-.4 1.55-1.3 3l-1.7 2.3" fill="#a5c4fc"/><path d="M75.75 114.45q2.35-4.4 2.3-9.35-.05-4.5-1.9-8.25-1.5-3-3.6-5.2-2.1-2.25-4.1-2.95l-1.9.75-2.2.9q-9.55 4.15-18.15 10l-2.05 1.45-3.7 2.75q5.85-12.2 25.7-17.2 5.1-2.5 7.25-6.8-.2 3.25-2.6 6.2.8-.4 3.35-.85l3.7-.4q-2 .55-3.95 1.25l-3.35 1.15q7.9 5.2 9.25 12.75 1.05 5.85-2.2 11.15l-1.85 2.65M21.7 94.35l-1.8-1.9q-1.25-2-1.4-5.7.75 2.55 2.55 4.4l3.6 2.9q2.25 1.75 3.35 3.4 1.55 2.35 2 5.95l-1-2.15-.65-1.2q-.85-1.3-1.85-2.25l-3.65-2.65-.6-.4-.55-.4" fill="#405c79"/><path d="M66.55 89.45q5.2 2.9 7.4 7.8l.1.25q1.95 4.55.95 9.7-1 4.9-4.35 8.45-3.5 3.75-8.25 4.5l-8.3-.4q-3.9-1.05-6.55-3.5-2.75-2.6-3.65-6.2-1-3.85.25-8.25l2.05-1.45-.7 3.4-.15 1.3q-.2 2.8.2 4.4l.85 2.25q.9 1.75 2.4 3.15l.65.6q2.15 1.7 5.1 2.5l7.3.35q1.65-.3 3.1-.95 2.3-1 4.15-3 1.95-2.05 3-4.7l.8-2.65v-.1l.3-2.15q.2-3.3-1.1-6.35-.95-2.1-3-4.3l-.2-.2-2-1.8q-1.25-1-2.55-1.75l2.2-.9M29 101.25q.35 13.05-4.05 13.2-2.35.05-3.2-5.25-.85-5.3-.05-14.85l.55.4q-.45 6.5 0 11.25l.3 2.2.05.4q.6 3.45 1.5 4.4l.7.35q.85.05 1.5-.7 1.2-1.45 1.7-5.95l.25-3.3.1-3.35.65 1.2" fill="#0259eb"/><path d="m73.2 104.75-.3 2.15v.1l-5.1-1.65 4.3 4.3q-1.05 2.65-3 4.7-1.85 2-4.15 3l-3.5-4.9.4-.3q2.15-1.75 3.35-4.4.95-2 1.15-4.2l6.85 1.2m-23.75 10.7-.65-.6q-1.5-1.4-2.4-3.15 1.8-.85 3 .6 1.25 1.45.05 3.15m-23.05-8.1q.75-.55 1.6-.65-.5 4.5-1.7 5.95-1.55-2.95-.8-4.7l.4.15.4-.15.15-.35-.05-.25m-3.8 1.25q1.3-.25 1.5 4.4-.9-.95-1.5-4.4" fill="url(#C)"/><path d="m72.9 107-.8 2.65-4.3-4.3 5.1 1.65m-7.95 10.35q-1.45.65-3.1.95l-7.3-.35q-2.95-.8-5.1-2.5 1.2-1.7-.05-3.15-1.2-1.45-3-.6l-.85-2.25q-.4-1.6-.2-4.4l.15-1.3.8 3.1q-.4.8-.2 1.65.3 1.15 1.6 1.65l.4.1 1.9 2.15q3.2 2.9 6.6 2.25l.95-.25q2.15-.65 3.9-1.95l3.5 4.9M69.1 94.1q2.05 2.2 3 4.3 1.3 3.05 1.1 6.35l-6.85-1.2q.3-3.1-.85-6.55l3.6-2.9m-42.7 13.25-.1-.15q-.2-.15-.4-.15-.25 0-.4.15-.15.15-.15.4l.15.35q-.75 1.75.8 4.7-.65.75-1.5.7l-.7-.35q-.2-4.65-1.5-4.4l-.05-.4-.3-2.2q.3 1.35 1 1.8l1.35-.15q1.7-1.5 1.35-6.3l2.3 2.05-.25 3.3q-.85.1-1.6.65" fill="#58e5e8"/><path d="M46.2 100.35q8.6-5.85 18.15-10 1.3.75 2.55 1.75l-7.5 5.1q2.95 7.75 1.75 12.6-.9 3.6-3.6 4.6l-.95.25q-3.4.65-6.6-2.25l-1.9-2.15q1.1.35 2.4 0 1.55-.45 2.4-1.55.85-1.05.55-2.15-.3-1.15-1.6-1.7l-2.8-.05q-1.5.4-2.35 1.5l-.4.55-.8-3.1.7-3.4" fill="url(#D)"/><path d="M66.35 103.55q-.2 2.2-1.15 4.2-1.2 2.65-3.35 4.4l-.4.3q-1.75 1.3-3.9 1.95 2.7-1 3.6-4.6 1.2-4.85-1.75-12.6l7.5-5.1 2 1.8.2.2-3.6 2.9q1.15 3.45.85 6.55m-4.35.15q0 .55.6.9.6.4 1.45.4t1.45-.4q.6-.35.6-.9t-.6-.9q-.6-.4-1.45-.4t-1.45.4q-.6.35-.6.9" fill="url(#E)"/><path d="M62 103.7q0-.55.6-.9.6-.4 1.45-.4t1.45.4q.6.35.6.9t-.6.9q-.6.4-1.45.4t-1.45-.4q-.6-.35-.6-.9m-13.9 6.55-.4-.1q-1.3-.5-1.6-1.65-.2-.85.2-1.65l.4-.55q.85-1.1 2.35-1.5l2.8.05q1.3.55 1.6 1.7.3 1.1-.55 2.15-.85 1.1-2.4 1.55-1.3.35-2.4 0m-23.95-4.8-.75.45q-.45 0-.75-.45-.3-.4-.3-1t.3-1.05q.3-.4.75-.4t.75.4q.35.45.35 1.05 0 .6-.35 1m1.35 2.5-.15-.35q0-.25.15-.4.15-.15.4-.15.2 0 .4.15l.1.15.05.25-.15.35-.4.15-.4-.15" fill="#faf9ff"/><path d="m22.25 94.75.6.4 3.65 2.65q1 .95 1.85 2.25l-.1 3.35-2.3-2.05q.35 4.8-1.35 6.3l-1.35.15q-.7-.45-1-1.8-.45-4.75 0-11.25m1.9 10.7q.35-.4.35-1t-.35-1.05q-.3-.4-.75-.4t-.75.4q-.3.45-.3 1.05 0 .6.3 1 .3.45.75.45l.75-.45" fill="url(#F)"/></g><g id="l" fill-rule="evenodd"><path d="M3.55 18.45q3.45-2.1 5.25-4.2 2.2-2.6 1.95-5.35-.4-3.9-3.5-5.1Q4.1 2.65.2 5.05l-.2-.2Q2.2 2.65 7.85 1q6.6-1.9 10.5-.1-1.45.25-2.1 2.4L15.1 9.4q-1.6 8.75-11.65 11.25l.1-2.2" fill="#fdfde1"/><path d="M.2 5.05q3.9-2.4 7.05-1.25 3.1 1.2 3.5 5.1.25 2.75-1.95 5.35-1.8 2.1-5.25 4.2.1-3.95-.35-6.75-.75-4.55-3-6.65" fill="#fffffb"/><path d="m3.55 18.45-.1 2.2L3.3 23l-.05 1-2.9-.95.25-9.15q-.05-5-.6-9.05l.2.2q2.25 2.1 3 6.65.45 2.8.35 6.75M18.35.9q4.55 7.05 1.85 15.65-1.15 3.45-3.2 6.4-1.9 2.75-4 4.15l-2.45-.8q11.2-11.1 7.8-25.4" fill="#405c79"/><path d="M3.45 20.65Q13.5 18.15 15.1 9.4l1.15-6.1q.65-2.15 2.1-2.4Q20.25 19.05 3.3 23l.15-2.35" fill="#a7c3de"/><path d="m.35 23.05 2.9.95q-.3 1.45.05 2.45.4 1.1 1.4 1.25l3.05-.15q1.5-.35 2.8-1.25l2.45.8q-6.95 4.7-11.4 1.7-.9-.55-1.1-2.05-.15-.8-.15-3.7" fill="#f7ff8d"/><path d="m3.25 24 .05-1Q20.25 19.05 18.35.9q3.4 14.3-7.8 25.4-1.3.9-2.8 1.25l-3.05.15q-1-.15-1.4-1.25-.35-1-.05-2.45" fill="#86a6d3"/></g><path d="M27.75 0q0 2-8.15 3.4Q11.5 4.9 0 4.9q-11.5 0-19.65-1.5-8.1-1.4-8.1-3.4 0-2.05 8.1-3.5Q-11.5-4.9 0-4.9q11.5 0 19.6 1.4 8.15 1.45 8.15 3.5" fill-opacity=".349" fill-rule="evenodd" transform="translate(27.75 4.9)" id="m"/></defs></svg>