<svg xmlns:ffdec="https://www.free-decompiler.com/flash" xmlns:xlink="http://www.w3.org/1999/xlink" ffdec:objectType="frame" height="90" width="90" xmlns="http://www.w3.org/2000/svg"><use ffdec:characterId="18" height="88.8" transform="matrix(.9996 0 0 1 .45 1.3)" width="89.8" xlink:href="#a"/><defs><g id="a" transform="translate(-.45 -1.3)"><use ffdec:characterId="1" height="7.5" transform="matrix(1.1915 0 0 2.2447 23.468 73.24)" width="43.95" xlink:href="#b"/><use ffdec:characterId="8" height="70.15" transform="translate(42.593 40.596) scale(.6594)" width="72.3" xlink:href="#c"/><use ffdec:characterId="9" height="51.25" transform="translate(.718 37.37) scale(.6594)" width="60" xlink:href="#d"/><use ffdec:characterId="10" height="26.45" transform="translate(31.369 62.596) scale(.6594)" width="23.6" xlink:href="#e"/><use ffdec:characterId="11" height="35.4" transform="translate(46.285 60.678) scale(.6594)" width="32.55" xlink:href="#f"/><use ffdec:characterId="12" height="24.4" transform="translate(58.887 59.205) scale(.6594)" width="33.15" xlink:href="#g"/><use ffdec:characterId="13" height="112.65" transform="translate(15.164 1.292) scale(.6594)" width="109.6" xlink:href="#h"/></g><g id="i" fill-rule="evenodd"><path d="M22.65-9.7v-.15q-.3-2.65-2.2-6.55-2.55-4.95-5.8-6.55l-.2-.05q-1.55-.95-4.85-1.6l-3.1-.5-3.2-.2q-4.8 0-7.55 1-2.5.8-6.7 3.7l-.25.05-1.4.25 6.35-4.15q3.95-1.85 8.9-1.85l3.85.4 1.05.3q2.95 1 5.05 1.35l.3.05q4.65 1.15 7.85 5.3 2.65 3.45 3.1 7.9l-1.2 1.3m-.1 1.1 1.35-1.2v.05l.05.65q-1.1 5.9-5.2 9.55l-1.1.9 1.95-3q2.35-3.85 2.95-6.95m-8 16.65 2.35-2.4 3.15-3.5L22.55.6q-2.85 4.25-8 7.45m-17.8 9.45-.55-.35-1.2-.6q-.6-.35-2.4-1.05l-3-1.15-.45-.2.05-.05.5.05q4.6 1.45 7.4 3.35h-.35m-13.65-.8 1.35.2.05.05 1 .6q1.15.75 1.65.9l2 .45 1.35.5q-1.15 1.2-3.5 1.6l-3.5.4q-3 0-5.8-1.65l-.8-.55-.95-.75 1.75.8h.15q2.5 1.05 4.45 1.05l3.1-.55 2.3-.65-.15-.05q-.95 0-2.5-.85-1.35-.7-1.95-1.5m-9.25.65q.75.95 1.45 2.4l2.4 4.75.1.1h-.1q-2.35-.5-8.95-6.15l-2.4-2.45-1.05-1.2 5.7 4.45 5.05 3.45q-1.85-3.65-2.2-5.35" fill="#0cf2d7" transform="translate(40.65 27)"/><path d="M23.85-11q-.45-4.45-3.1-7.9-3.2-4.15-7.85-5.3l-.3-.05q-2.1-.35-5.05-1.35l-1.05-.3-3.85-.4q-4.95 0-8.9 1.85l-6.35 4.15 1.4-.25.25-.05.75-.15 2.6-.35q3.75 0 7.8 2.45Q3.8-16.5 5.3-14h-.05L3.5-15.05h-.05l-2.35-1.3q-1.55-.75-3.95-.75l-1.1.1-1.1.1 1.15.1q3 .55 5.1 2.8l1.05 1.45-.85.15-.25-.25-2-1.7-.3-.25h-.1l-3.55-1q-2.05-.6-2.05-1.2H-7v-.4l.95-.35 1.45-.25 3.65.2 2.3.6-.85-.55-2.4-1.2-2.5-.65-3-.5q-3.25 0-6.5 1.75l-.1-.3-.1-.25q0-.85 2.05-2.95 2.15-2.1 3.85-2.8l5.15-1.85L1.7-27h.1l2.5.15.3-.05.55-.05 1.35.1q3.8.3 8.75 2.5 5.7 2.5 7 5.05l.1.25 1.75 5.15.5 2.1-.75.8m-22-5.75.1.05v-.1l-.1.05" fill="#355c5b" transform="translate(40.65 27)"/><path d="M-10.95-20.6q4.2-2.9 6.7-3.7 2.75-1 7.55-1l3.2.2 3.1.5q3.3.65 4.85 1.6l.2.05q3.25 1.6 5.8 6.55 1.9 3.9 2.2 6.55v.15l-.55.65-.5-1.85-1.65-4.15q-2.8-5.8-6.4-6.4v.2l.05.1.2.15.85 1.45.5 1.35q-2.05-2.1-4.7-3.65-1.95-1.1-3.95-1.65l-4.15-.55-5.1.55-2.95.65.5.05q4.85 1.9 9.4 6.4l2.3 2.5q1.85 2.2 2.5 4l-.15.65-.05.35-1.6-1.8-.7-.9L5.35-13 3.5-15.05 5.25-14h.05Q3.8-16.5.2-18.65q-4.05-2.45-7.8-2.45l-2.6.35-.75.15" fill="#7bbeba" transform="translate(40.65 27)"/><path d="M3.5-15.05 5.35-13l1.15 1.4.7.9 1.6 1.8-.4 1.35q-.5-1.35-1.8-2.8l-.1-.1q-1.9-2.1-3.95-2.1h-.3L1.2-14q-2.1-2.25-5.1-2.8l-1.15-.1 1.1-.1 1.1-.1q2.4 0 3.95.75l2.35 1.3h.05M9-9.9q-.65-1.8-2.5-4l-2.3-2.5q-4.55-4.5-9.4-6.4l-.5-.05 2.95-.65 5.1-.55 4.15.55q2 .55 3.95 1.65 2.65 1.55 4.7 3.65l-.5-1.35L13.8-21l-.2-.15-.05-.1v-.2q1.75.6 3.95 4.55 2.15 3.85 2.15 6l-.25 2.1-.2.8q-.2-5.25-2.05-6.7l-.85 2.35-1.4 3.2L13.5-6l-.6 1.5-.5 1.05q0-1.55-1-4.15-1.1-2.9-2.15-3.5L9-9.9" fill="#abdfca" transform="translate(40.65 27)"/><path d="m22.65-9.7 1.2-1.3.75-.8.3 2.75q0 3.8-2.15 6.95Q20.8.55 17.9 2.1q1.85-.55 4.25-1.9 1.5-.8 2.5-1.55l.1.2.25.5q-2.8 4.75-5.65 7-2.8 2.2-6.75 4.2-3.2 1.6-6.1 2.65-5.45 1.9-10 1.9l-1.95-.05Q-1.5 16.9-.9 18.2l-1.35.15-1.4.1-4.55-.15-4.45-.75.8.45.95.4 1.15.3 1.15.1q.5 0 .5.15l-.05.2h-.1l-.1.1q-.9 1.15-2.15 1.75-2.35 1.1-6.4 1.1-1.9 0-4.35-1.05l-1.05-.5q-1.2-.6-1.55-1.15l1.55 3 .15.2 1.6 2.25v.05l.05.2-.05.1v.05L-22.3 25q-4.4-.9-8.7-5.35l-4.85-5.7-.1-.1-3.65-4.65v-.9l.4.6.85 1.45 1 1.2 1.2 1.45 1.45 1.8 1.05 1.2 2.4 2.45q6.6 5.65 8.95 6.15h.1l-.1-.1-2.4-4.75q-.7-1.45-1.45-2.4l-1.1-1.2 1.75 1.2 1.45 1.1.95.75.8.55q2.8 1.65 5.8 1.65l3.5-.4q2.35-.4 3.5-1.6l-1.35-.5-2-.45q-.5-.15-1.65-.9l-1-.6-.05-.05-1.35-.2q-2.05-.4-5.4-1.7l-1.8-.75q-6.05-2.6-9.45-5.35l10.25 5.2 1 .45q5.85 2.4 19.05 2.95h.35q-2.8-1.9-7.4-3.35l.65.1 2.9.15q6.4 0 13.25-2.5l2.6-1.05.3-.1 5.15-2.7q5.15-3.2 8-7.45l-2.5 1.55-2.2.85q-1.45.85-8.35 3.5l-1.65.65-1.35.55q-7.45 2.7-11.7 3.25l-6.55.6-3.55-.15h-.05l-6.95-1.15-3.9-1q-10.25-2.85-14-7.5l-.05-.3-.4-2.4.65.35 4.25 1.35q4.35 1.2 7.45 1.2l6-.2 5.9-.65.1-.05 5.2-1.2Q-4.8-2.2-1.25-5.1l.3-.3L.8-7.2q1.55-1.9 1.55-2.9 0-1.15-.95-2.3l.85-.15h.3q2.05 0 3.95 2.1l.1.1q1.3 1.45 1.8 2.8l.4-1.35.05-.35L9-9.9l.25-1.2q1.05.6 2.15 3.5 1 2.6 1 4.15l.5-1.05.6-1.5 1.4-3.15 1.4-3.2.85-2.35Q19-13.25 19.2-8v.85l-.2.95-.1.95 2.65-3.25.4-.4.15.15.05.05-.05-.35.55-.65M7.85-7.05l-.1-.15L6.5-8.7l-.55-.55Q3.8-11.4 2.7-11.8q.5 1.1.5 2.25 0 1.3-1.15 3.05Q.8-4.5-6.85-1l-.3.15-.15.05q-1.65 1-7.55 2.2l-.7.15-6.75 1-3.15.2h-.75L-33.55 2l-5-1.25q6.1 5.45 11.8 7.5l4.45 1.25 4.65.95q6.45 1.2 16.5-.85 4.3-1.25 7.65-2.5 2.9-1.15 5.05-2.3l1.5-.8 3.35-1.8 1.25-.85 1.1-.9q4.1-3.65 5.2-9.55l-.05-.65v-.05l-1.35 1.2-4.2 4.6v-.05l.05-1.05v-.4l-.35-3.45q-.35-3-.95-3.6l-.7 1.45-1.5 2.9-1.45 3.4-1.35 2.85-.85-3.35q-.7-2.35-1.75-4.15L9.3-8.1q-.35 1.45-1.05 2.05l-.4-1" fill="#03397c" transform="translate(40.65 27)"/><path d="m-15.55 1.55.7-.15Q-8.95.2-7.3-.8l.15-.05.3-.15Q.8-4.5 2.05-6.5 3.2-8.25 3.2-9.55q0-1.15-.5-2.25 1.1.4 3.25 2.55l.55.55 1.25 1.5.1.15q-.2.8-1.35 2.2L3.9-2.2q-3.75 3.55-5.45 4l-.05.05 1.3.1 2.05-.35 1.2-.25q-.9 1.75-4.4 2.55l-4.85.55q-3.25 0-6-1.15l-3.25-1.75" fill="#22b5e7" transform="translate(40.65 27)"/><path d="m7.85-7.05.4 1q.7-.6 1.05-2.05l.2-1.35q1.05 1.8 1.75 4.15l.85 3.35 1.35-2.85 1.45-3.4 1.5-2.9.7-1.45q.6.6.95 3.6l.35 3.45-.1.15-.2.15q-.25-.3-.45-2l-.5-2.15-4.55 8.1-.2.35q-2.1 3.45-4.9 5.3l-1 .6-1.45.7-2.2 1.15Q-.55 8.75-2.7 9.1l-7.9.4-2.05-.1-.65-.1q.75-.25 1.35-.7.9-.65.9-1.25 0-.65-1.9-1.1l-4.45-.7-4.9-1q-2.7-.75-3.75-1.8h.6l3.15-.2 6.75-1 3.25 1.75q2.75 1.15 6 1.15l4.85-.55q3.5-.8 4.4-2.55l-1.2.25-2.05.35-1.3-.1.05-.05q1.7-.45 5.45-4l2.6-2.65q1.15-1.4 1.35-2.2" fill="#0e92df" transform="translate(40.65 27)"/><path d="m-39.6 8.3-.4-4.6-.2-1.95q3.75 4.65 14 7.5l3.9 1 6.95 1.15h.05v.05q.3 1.05 2.3 1.9l.85.35.75.2.4.2.15.05.45.2 3 1.15q1.8.7 2.4 1.05l1.2.6.55.35q-13.2-.55-19.05-2.95l-1-.45-10.25-5.2q3.4 2.75 9.45 5.35l1.8.75q3.35 1.3 5.4 1.7.6.8 1.95 1.5 1.55.85 2.5.85l.15.05-2.3.65-3.1.55q-1.95 0-4.45-1.05h-.15l-1.75-.8-1.45-1.1-1.75-1.2 1.1 1.2q.35 1.7 2.2 5.35L-29 19.25l-5.7-4.45-1.45-1.8-1.2-1.45-1-1.2-.85-1.45-.4-.6m58-13.8v.4l-.05 1.05V-4l4.2-4.6q-.6 3.1-2.95 6.95l-1.95 3-1.25.85L13.05 4l-1.5.8Q9.4 5.95 6.5 7.1 3.15 8.35-1.15 9.6q-10.05 2.05-16.5.85l-4.65-.95-4.45-1.25q-5.7-2.05-11.8-7.5l5 1.25 7.35.75h.15Q-25 3.8-22.3 4.55l4.9 1 4.45.7q1.9.45 1.9 1.1 0 .6-.9 1.25-.6.45-1.35.7l.65.1 2.05.1 7.9-.4q2.15-.35 5.55-2.25l2.2-1.15L6.5 5l1-.6q2.8-1.85 4.9-5.3l.2-.35 4.55-8.1.5 2.15q.2 1.7.45 2l.2-.15.1-.15m1.65 7.65-3.15 3.5-2.35 2.4-5.15 2.7 1.2-1.05L14.25 6v-.05h-.05l-4.25.6-.45-.05q6.9-2.65 8.35-3.5l2.2-.85" fill="#0776b5" transform="translate(40.65 27)"/><path d="M13.55-21.45q3.6.6 6.4 6.4l1.65 4.15.5 1.85-.15.15-.4.4-2.65 3.25.1-.95.2-.95V-8l.2-.8.25-2.1q0-2.15-2.15-6-2.2-3.95-3.95-4.55" fill="#6797a2" transform="translate(40.65 27)"/><path d="m9.5 6.5.45.05 4.25-.6.05.05-3.65 3.7-1.2 1.05-.3.1-2.6 1.05q-6.85 2.5-13.25 2.5l-2.9-.15-.65-.1-1.45-.4-.4-.05-.85-.35q-2-.85-2.3-1.9v-.05l3.55.15 6.55-.6Q-.95 10.4 6.5 7.7l1.35-.55L9.5 6.5" fill="#1098e8" transform="translate(40.65 27)"/></g><g id="d" fill-rule="evenodd"><path d="m-16-18.35-.65-1.9-.45-2 3.55.35.6 3.85-3.05-.3m-11.45-4.7 1.15 1.2.15.15.85 9.2q.45 4.75 1.1 7.25l1.1 1 4.5 4.2-6.05-3.55-2.8-19.45m15.2 1.3 3.5.3-.85 4.95-1.2-1.4-.9-.05-.55-3.8m9.65 6.6 2.5 3.05Q-.15-9.05-.65-6l-2.3-2.7.15-2.15.2-4.3m8.75 29.7-7.5-4.4q0-3.35.2-4.4L6.6 11.7l-.4 2.15-.05.7M-6.05 7.4l-9.4-5.6 3.25-4.55 6.85 5.25-.35 2.6-.35 2.3" fill="#d6d7f4" transform="translate(30 25.6)"/><path d="m-17.1-22.25.45 2 .65 1.9-6.25-.55.35 1.15-2.2-1.9-2.05-2.05-.15-.15-1.15-1.2v-.15l10.25.95h.1m4.15 4.2-.6-3.85 1.2.15h.1l.55 3.8-1.15-.1h-.1m4.2-3.4h.05l1 .1 5.1 6.2-.2 4.3-.15 2.15-6.65-7.8.85-4.95M-.1-12.1 13.75 4.7 11.3 8-.65-6q.5-3.05.55-6.1M20.85 9l-.55-.2-.35-.35-.05-.25.1-.5h.05l.15-.15.1-.05q.2-.15.5-.15.8 0 .8.9v.15q-.05.6-.7.6h-.05" fill="#fff" transform="translate(30 25.6)"/><path d="m-13.55-21.9-3.55-.35h-.1l-10.25-.95h-.15l.15.15 2.8 19.45 6.05 3.55.5.3.1.05 2.55 1.5 9.4 5.6 4.7 2.75 7.5 4.4-.1.65-.35.4-.55.7-32.3-19.4L-30-25.6l23.55 2.5L15.5 2.75 13.75 4.7-.1-12.1l-2.5-3.05-5.1-6.2-1-.1h-.05l-3.5-.3h-.1l-1.2-.15" fill="#4c4c65" transform="translate(30 25.6)"/><path d="m-16-18.35 3.05.3h.1l1.15.1.9.05 1.2 1.4 6.65 7.8L-.65-6 11.3 8l2.45-3.3 1.75-1.95.1-.1.3-.25.7-.15q.7 0 .95.7l.15.95v.65l-.8 5.35-.2 1.2-.05.05-.1.25-.2.6-.8 2.05-.7 1.55-.15.25L14 17l-.55.7-.1.1-.95.85-1.35 1-.9.5-3.65 2.3q-1.3.8-2.95.8-1.5 0-1.5-.9 0-2.05 2.2-5l.9-1.05.55-.7.35-.4.35-.5L7.6 13l.25-.35-1.25-.95-7.75-5.95-4.2-3.25-6.85-5.25-2.75-2.1-4.25-3.3-2.7-9.6-.35-1.15 6.25.55M9.75 9.95l.4-.45.05-.1.55-.7-21.7-24.95-9.65-1.5L-18-8.6 6.25 9.8l2.35 1.75 1.15-1.6m-.35 7.7q2-1.1 3-2.1.65-.75 2.15-4.4Q16.1 7.2 16.1 5.8l-.05-.4q-1.55.95-3.7 3.8l-.5.65-1.85 2.7-.75 1.15L7.2 17l-.25.4-.5.95-.45.9 2.85-1.35.2-.1.35-.15" fill="#6a240c" transform="translate(30 25.6)"/><path d="m-26.15-21.7 2.05 2.05 2.2 1.9 2.7 9.6.1.35q-.45.45-4 3.55l-1.1-1q-.65-2.5-1.1-7.25l-.85-9.2m24.8 31.85-4.7-2.75.35-2.3.35-2.6 4.2 3.25q-.2 1.05-.2 4.4m-14.1-8.35L-18 .3l-.1-.05.85-1.7 1.05-1.45 1.25-1.95 2.75 2.1-3.25 4.55" fill="#9b9dba" transform="translate(30 25.6)"/><path d="m-6.2-1.05-.7-3.4-2.65-2.45v.75l.25 1.3.2 1.35-1.05-.9-.25-.2-.9-3.9-7.4-6.8-.2-.4-.25-.55 4.7 4.15 1.7 1.6 1.2 1.15.25.2 8.1 7.55 8.25 6.55Q9.3 8.2 10.2 9.4l-.05.1-.4.45-1.6-1.6-2.7-2.2L-3.8-1.5q.25.35.25 2.7L-6-.9l-.2-.15" fill="#b44d16" transform="translate(30 25.6)"/><path d="m-9.1-3.5-.2-1.35-.25-1.3v-.75l2.65 2.45.7 3.4-2.7-2.3-.2-.15m5.55 4.7q0-2.35-.25-2.7l9.25 7.65 2.7 2.2 1.6 1.6-1.15 1.6L6.25 9.8l-8.7-7.65-.85-.75-.25-.2M-18.7-15.3l7.4 6.8.9 3.9q-3.2-2.65-5.4-4.3l-.4-.3-2.5-6.1M9.4 17.65l-.35.15-.2.1L6 19.25l.45-.9L9.9 14.2l1.05-1.4q.75-.85 1.15-.85.45 0 .45.65 0 1.1-1.4 2.95l-1.75 2.1" fill="#d17e1e" transform="translate(30 25.6)"/><path d="m-6.2-1.05.2.15 2.45 2.1.25.2.85.75 8.7 7.65L-18-8.6l-2.6-9.15 9.65 1.5L10.75 8.7l-.55.7q-.9-1.2-5.15-4.45L-3.2-1.6l-8.1-7.55-.25-.2q-.4-1.75-.4-2.8l.25-1.9.25-1.65-.05-.4-.95 2.2q-.9 1.7-2 1.8l-4.7-4.15.25.55.2.4 2.5 6.1.4.3q2.2 1.65 5.4 4.3l.25.2 1.05.9.2.15 2.7 2.3M7.2 17l2.05-3.3.75-1.15 1.85-2.7.5-.65q2.15-2.85 3.7-3.8l.05.4q0 1.4-1.55 5.35-1.5 3.65-2.15 4.4-1 1-3 2.1l1.75-2.1q1.4-1.85 1.4-2.95 0-.65-.45-.65-.4 0-1.15.85L9.9 14.2l-3.45 4.15.5-.95v.05L7.2 17" fill="#ffe63d" transform="translate(30 25.6)"/><path d="m-11.55-9.35-1.2-1.15-1.7-1.6q1.1-.1 2-1.8l.95-2.2.05.4-.25 1.65-.25 1.9q0 1.05.4 2.8" fill="#e8a725" transform="translate(30 25.6)"/><path d="m-18.1.25-.5-.3-4.5-4.2q3.55-3.1 4-3.55l-.1-.35 4.25 3.3-1.25 1.95-1.05 1.45-.85 1.7" fill="#7e6c9d" transform="translate(30 25.6)"/><path d="M23.15 7Q21.2 5.65 20 5.65q-.55 0-1.35.45l-.85.55-.15.45-.15.65q0 .4 2 1.6l3.1 1.9q.85.7 2.35 2.85 1.15 1.55 1.9 1.55h.05l.1.2v-.05l-.1-.15q.55-.05.7-1.2v-.7q0-3.05-2.9-5.55l-.15-.15-.3-.25-1.1-.8M16.9 9.9l.8-5.35V3.9l.55-.15.65-.2.95.15q1.05.3 2.5 1.25l.75.5 2.95 2.5L27.3 9.8l.8 1.5.15.4q.35 1.15.35 2.75 0 1.3-.75 2.2l-.75.6-.3.15-.1-.15-1.85-2-1.5-1.6-.25-.3-.55-.55-.2-.2-.6-.55-.25-.2Q19.1 9.7 17.45 9.7l-.45.05-.1.15m10.1.7v.05l.15-.4-.15.35" fill="#033003" transform="translate(30 25.6)"/><path d="M26.85 15.65q-.75 0-1.9-1.55-1.5-2.15-2.35-2.85l-3.1-1.9q-2-1.2-2-1.6l.15-.65.15-.45.85-.55q.8-.45 1.35-.45 1.2 0 3.15 1.35l.15.5.2 1.05-.05.25-1.85-.4v-.15q0-.9-.8-.9-.3 0-.5.15l-1-.4h-.85v.3l1.5 1.05.35.35.55.2.05.05 3.8 3.85 2.15 2.65.05.05v.05h-.05" fill="#66ff6e" transform="translate(30 25.6)"/><path d="m22.55 12.8.55.55.25.3q.1 1-.2 2.3V16l-.2.7-.05.1-.6.9.25 1.45.1.7v.05l.05.7-.05 1v.05q-.15 1.25-.6 2.1l-.7.8q-1.25 1-4.15 1-2.8 0-4.4-2.05-1.05-1.35-1.75-3.85l1.35-1q.6 2.15 1.7 3.4l.4.45q1.25 1.15 3 1.15 1.65 0 2.75-1.1l.9-1.45.2-1.05v-.4l-.35-1-.55.7-.4.2-1.4.35q-1.05 0-2-1.2l-.05-.1-.1-.1q-.7-1-.5-1.6l-2 .1.7-1.15.15-.25h.05q.05-.1.15-.1l.6.2-.1-1.65.8-2.05-.15 1.1.05 1.1v.35q.15 1.9.7 2.75l.35.4q.55.5 1.5.6h.7l.4-.05q1.3-.35 2.05-2.3.6-1.55.6-2.9v-.25m2.3 2.45 1.85 2 .1.15.3-.15.35 2.5-.1.6-1.5-1.95-2.1-1.95 1.1-1.2m3.4-3.55-.15-.4-.8-1.5 2.2-5.95.3.15.15.2.05.2-.05.15-.75 2.8q-.75 2.95-.95 4.35m-5.9-6.75Q20.9 4 19.85 3.7L22 1.95l2.1-1.6.05-.05.1.1 1 .85-2.9 3.7" fill="#03397c" transform="translate(30 25.6)"/><path d="m16.9 9.9.1-.15.45-.05q1.65 0 4.05 2.15l.25.2.05 1.1q0 1.95-.95 3.65l-.95 1.45-.4.05h-.4q.55-.25 1.3-1.4.8-1.35.8-2.35 0-.9-.4-1.6-.65-1.1-2-1.1-1 0-1.65.75-.5.5-.9 1.6l-.05-1.1.15-1.1.2-.6.1-.25.05-.05.2-1.2m6.45 3.75 1.5 1.6-1.1 1.2-.6-.45v-.05q.3-1.3.2-2.3M27.3 9.8l-1.25-1.85-2.95-2.5-.75-.5 2.9-3.7q1.25.95 2.85 1.85l1.4.75-2.2 5.95m-6.85 9.55.55-.7.35 1v.4l-.2 1.05-.65.7q-1.4 1.3-3.45 1.3-1.45 0-2.55-.6l-.4-.45q-1.1-1.25-1.7-3.4l.95-.85-.05.2q0 1.6 1.2 2.7 1.3 1.2 3.55 1.2 1.5 0 2.05-.6.4-.45.4-1.55l-.05-.4" fill="#0776b5" transform="translate(30 25.6)"/><path d="M26.9 15.65v-.05l-.05-.05-2.15-2.65-3.8-3.85V9q.65 0 .7-.6l1.85.4.05-.25-.2-1.05-.15-.5 1.1.8.3.25h-.05l-.25.5-.1.65q0 2.1 1.55 3.8 1.1 1.25 1.9 1.45-.15 1.15-.7 1.2m-6.95-7.2-1.5-1.05v-.3h.85l1 .4-.1.05-.15.1-.05.05-.1.5.05.25" fill="#177217" transform="translate(30 25.6)"/><path d="m24.55 8.05.15.15q2.9 2.5 2.9 5.55v.7q-.8-.2-1.9-1.45-1.55-1.7-1.55-3.8l.1-.65.25-.5h.05" fill="#f9fbf6" transform="translate(30 25.6)"/><path d="m21.75 12.05.6.55.2.2v.25q0 1.35-.6 2.9-.75 1.95-2.05 2.3l.95-1.45q.95-1.7.95-3.65l-.05-1.1M14.5 22.5q1.1.6 2.55.6 2.05 0 3.45-1.3l.65-.7-.9 1.45q-1.1 1.1-2.75 1.1-1.75 0-3-1.15" fill="#0bdcd1" transform="translate(30 25.6)"/><path d="M16.25 14.2q.4-1.1.9-1.6.65-.75 1.65-.75 1.35 0 2 1.1.4.7.4 1.6 0 1-.8 2.35-.75 1.15-1.3 1.4h-.3q-.95-.1-1.5-.6l.95-.15q1.05-.4 1.05-1.8 0-2.15-1.45-2.15-1.3 0-1.6.7v-.1m4.2 5.15.05.4q0 1.1-.4 1.55-.55.6-2.05.6-2.25 0-3.55-1.2-1.2-1.1-1.2-2.7l.05-.2.1-.1q-.15.75.6 1.2l1.15.35.95-.3.45-.35.05.1q.95 1.2 2 1.2l1.4-.35.4-.2" fill="#1098e8" transform="translate(30 25.6)"/><path d="M22.65 19.9v-.05l-.1-.7-.25-1.45.6-.9 1.7 1.75q1.95 2.15 1.95 3.4l-.05.7-1-1.15q-1-1.1-1.85-1.6h-1" fill="#4f2568" transform="translate(30 25.6)"/><path d="m23.15 16 .6.45 2.1 1.95 1.5 1.95.05.1q1.05 1.6 1.05 3.1l-.45 1.3q-.55.8-1.4.8l-2.15-.85-2.4-1.05q.45-.85.6-2.1l3.5 1.45.3-.25.05-.2.05-.7q0-1.25-1.95-3.4l-1.7-1.75.05-.1.2-.7" fill="#2b0f36" transform="translate(30 25.6)"/><path d="M22.65 19.9h1q.85.5 1.85 1.6l1 1.15-.05.2-.3.25-3.5-1.45v-.05l.05-1-.05-.7m-7.8-4.3.7-1.55.1 1.65-.6-.2q-.1 0-.15.1h-.05" fill="#a94ebe" transform="translate(30 25.6)"/><path d="m16.6 18.6-.45.35-.95.3-1.15-.35q-.75-.45-.6-1.2L14 17l2-.1q-.2.6.5 1.6l.1.1m-.35-4.3q.3-.7 1.6-.7 1.45 0 1.45 2.15 0 1.4-1.05 1.8l-.95.15-.35-.4q-.55-.85-.7-2.75v-.25" fill="#22b5e7" transform="translate(30 25.6)"/><path d="m6.6 11.7 1.25.95-.25.35-1.2 1.7-.25-.15.05-.7.4-2.15" fill="#9d9fbc" transform="translate(30 25.6)"/></g><g id="e" fill-rule="evenodd"><path d="m6-13.15.2-.05h.4q2.5 0 3.9 2.55.85 1.55 1.15 3.7l-.4 2.2-.9 2.7L8.7.05Q5.75 3.5 2.9 4.1l-.3-.05Q1.2 3.8.2 3l.3.05q4.8 0 4.8-4.1 0-2.2-1.4-3.4-1.3-1.1-3.2-1.1-1.75 0-2.5 1.1.35-2.65 1.6-4.3 1.6-2.05 6.2-4.4m-8.8 16.1q-.65-.65-1.4-.9l-.4-.1 2.2-.35q1.55 3.95 6.35 3.95l.95-.1q-.85.9-4.55 2.65l-.15.1q-1.35-3.8-3-5.25" fill="#0776b5" transform="translate(11.8 13.2)"/><path d="M-1.8-4.45q.75-1.1 2.5-1.1 1.9 0 3.2 1.1 1.4 1.2 1.4 3.4 0 4.1-4.8 4.1L.2 3l-.35-.3-.25-.25Q-1.55 1.2-1.85-.7l.35.3 1.05.7Q.35.3 1-.15q.95-.7.95-2.2 0-.85-.6-1.6-.65-.8-1.45-.8-1.15 0-1.7.65h-.05l.05-.35" fill="#1098e8" transform="translate(11.8 13.2)"/><path d="M-1.8-4.1q.55-.65 1.7-.65.8 0 1.45.8.6.75.6 1.6 0 1.5-.95 2.2Q.35.3-.45.3L-1.5-.4l-.35-.3-.05-.55-.05-.95.1-1.55v-.3l.05-.05" fill="#22b5e7" transform="translate(11.8 13.2)"/><path d="m11.65-6.95.15 2.4q0 2.95-1.85 5.75Q8.6 3.3 7.9 3.55q.3.35.45 1.75 0 .95-.65 2.05L6.4 8.9l-.45.25q-1.55.9-4.6 2.2L1 9.95.6 9l.15-.1q4.5-1.95 5.35-3.65l-1.2.2-.95.1q-4.8 0-6.35-3.95l-2.2.35q-.95-1.6-1.6-2l1.9-.45h.3q2.6-12.2 10-12.65-4.6 2.35-6.2 4.4-1.25 1.65-1.6 4.3l-.05.35v.35l-.1 1.55.05.95.05.55q.3 1.9 1.45 3.15l.25.25.2.2.15.1q1 .8 2.4 1.05l.3.05.95.05q3.55 0 6-5.15l.5-1.05q1.05-1.6.9-2.7l.4-2.2" fill="#03397c" transform="translate(11.8 13.2)"/><path d="M-7.75 6.45q.35-.65 1.1-1.15-1.7.15-2.55 1.9l-.05-.5q0-2.65 3-4.1.8-.4 1.65-.65l.4.1q.75.25 1.4.9l.35.55q.3.6.3.85 0 .9-.7 2-1 1.55-2.7 1.55l-1.5-.35q-.8-.4-.7-1.1" fill="#f9fbf6" transform="translate(11.8 13.2)"/><path d="m1.35 11.35-.2.05q-4.7 1.85-7.7 1.85-1.95 0-2.85-.65-1.15-.75-1.1-2.55l-.85-.95q-.45-.6-.45-1.5 0-3.5 2.75-5.9Q-7.65.5-6.2-.05q.65.4 1.6 2-.85.25-1.65.65-3 1.45-3 4.1l.05.5q.85-1.75 2.55-1.9-.75.5-1.1 1.15-.55.9-.55 2l.05.35.05.4q.4 1.55 2.65 1.55Q-3.6 10.75.6 9l.4.95.35 1.4" fill="#7d8f88" transform="translate(11.8 13.2)"/><path d="M-7.75 6.45q-.1.7.7 1.1l1.5.35q1.7 0 2.7-1.55.7-1.1.7-2 0-.25-.3-.85l-.35-.55Q-1.15 4.4.2 8.2-3.85 10-5.75 10l-1.45-.2q-.7-.3-1-.6l-.05-.4-.05-.35q0-1.1.55-2" fill="#accdc0" transform="translate(11.8 13.2)"/><path d="M2.9 4.1Q5.75 3.5 8.7.05l1.65-2.1L9.85-1q-2.45 5.15-6 5.15L2.9 4.1m2 1.35 1.2-.2Q5.25 6.95.75 8.9L.6 9q-4.2 1.75-6.15 1.75-2.25 0-2.65-1.55.3.3 1 .6l1.45.2q1.9 0 5.95-1.8l.15-.1q3.7-1.75 4.55-2.65" fill="#0cf2d7" transform="translate(11.8 13.2)"/></g><g id="f" fill-rule="evenodd"><path d="M-2.05 12.85Q-3.1 10.95-4.1 6.3q-1.9-.55-3-1.25Q-8.45 4.1-10 2.1l-3.55-5.25q-1.85-3.25-2.65-6.6v-.3q.05-2.2 1.45-3.8l-.1 1.8q0 2.25 2.55 6.85 2.05 3.65 3.45 5.2Q-7 2.05-4.3 3.4q2.7 1.3 5.45 1.55l.25-.05Q3 4.8 5.55 3.45l1.4-.75 1.4-.95.2-.2.35-.5q1.55-2.45 1.55-6 0-3.9-1.4-6.5-.9-1.7-2.4-3l-.25-.25q-1.85-1.5-4.5-2.4 3.1.6 5.2 1.9 5.05 3.05 5.05 10 0 4.4-1.2 6.05 1.65.55 3.45 3.95l.25.45-1.3-.15-1.3.05L11.9 5l-.9-.85L8.95 2.6H8.9l-.9.8-2.25 1.7q-2.4 1.4-5 1.4L-.8 6.4l-1.15-.3v.15q.4 2.05 1.25 3.7-1.05 1.3-1.35 2.9" fill="#03397c" transform="translate(16.25 17.7)"/><path d="m8 3.4.9-.8h.05L11 4.15l.9.85.15.15.4.55 1.2 2.35q.35.95.35 2.3 0 2.15-1.2 3.6l.25-2.6q0-2.4-1.1-4.4l-1.2-1.65-.2-.2Q9.45 4 8 3.4M6.65-14.45q1.5 1.3 2.4 3 1.4 2.6 1.4 6.5 0 3.55-1.55 6l-.35.5-.2.2-1.4.95Q8.05.9 8.5-1.25L8.8-5l-.15-2.65-.65-3.4q-.15-1.05-.85-2.15-.4-.65-.5-1.25" fill="#0cefd6" transform="translate(16.25 17.7)"/><path d="m-14.75-13.85.25-.25q1.1-1.15 2.9-2 3.35-1.6 6.95-1.6l6.55.6q2.65.9 4.5 2.4l.25.25q.1.6.5 1.25.7 1.1.85 2.15l.65 3.4L8.8-5l-.3 3.75Q8.05.9 6.95 2.7l-1.4.75Q3 4.8 1.4 4.9h-.25v.05Q-1.6 4.7-4.3 3.4-7 2.05-8.85 0q-1.4-1.55-3.45-5.2-2.55-4.6-2.55-6.85l.1-1.8M-.7 9.95q-.85-1.65-1.25-3.7V6.1l1.15.3 1.55.1q2.6 0 5-1.4L8 3.4q1.45.6 2.55 1.7l-1.95.2-.45.05q-2.15.4-4.3 1.4l-.3.15-.35.15Q.65 8.3-.7 9.95m-7.35-14.6-.4 1.6v.4q0 2.7 2.1 4.4 2 1.6 4.9 1.6 2.75 0 4.6-1.25Q5.5.5 5.5-2.8q0-2.5-1.8-4.25Q2.05-8.7.05-8.7q-3.15 0-5.45 1.2-2.1 1.05-2.65 2.85" fill="#0776b5" transform="translate(16.25 17.7)"/><path d="m-6.25-4.9.55-.4q.5-.4 1.15-.4 1.35 0 2.5.75 1.55 1 1.55 2.9 0 1.35-.75 2.2-.85.9-2.35.9-1.55 0-2.5-.85-1.1-1-1.1-2.9l.2-1.5.5-.6.25-.1" fill="#22b5e7" transform="translate(16.25 17.7)"/><path d="m-6.25-4.9-.25.1-.5.6-.2 1.5q0 1.9 1.1 2.9.95.85 2.5.85 1.5 0 2.35-.9.75-.85.75-2.2 0-1.9-1.55-2.9-1.15-.75-2.5-.75-.65 0-1.15.4l-.55.4m-1.8.25q.55-1.8 2.65-2.85Q-3.1-8.7.05-8.7q2 0 3.65 1.65Q5.5-5.3 5.5-2.8q0 3.3-2.35 4.9-1.85 1.25-4.6 1.25-2.9 0-4.9-1.6-2.1-1.7-2.1-4.4v-.4l.4-1.6" fill="#1098e8" transform="translate(16.25 17.7)"/><path d="m3.55 6.9.3-.15q2.15-1 4.3-1.4l.45-.05 1.35.9q1.5 1.25 1.5 2.7 0 1-.55 2-.65 1.1-1.45 1.2l-.9-1.4h-.2l.25 1.2.05.25-.8.3-.85.2q-1.05 0-2.4-.75-1.9-1.05-1.9-2.75 0-.75.4-1.55l.45-.7" fill="#f9fbf6" transform="translate(16.25 17.7)"/><path d="M-.7 9.95Q.65 8.3 3.2 7.05l.35-.15-.45.7q-.4.8-.4 1.55 0 1.7 1.9 2.75 1.35.75 2.4.75l.85-.2.8-.3.1 1.25-.05 1-.05.2-.3.5-.95.2q-3.15 0-5.65-2.2Q.25 11.8-.7 9.95M8.6 5.3l1.95-.2.2.2 1.2 1.65q1.1 2 1.1 4.4l-.25 2.6V14l-.6.6q-.7.5-1.35.5l-.65-.2.05-.5q0-.75-.7-2.1l-.1-.2q.8-.1 1.45-1.2.55-1 .55-2 0-1.45-1.5-2.7L8.6 5.3" fill="#accdc0" transform="translate(16.25 17.7)"/><path d="M14.65 5.25q1.65 3.25 1.65 5.7 0 1.9-.85 3.5l-1.15 1.5-.4.25q-2.45 1.3-8.15 1.5H5.7q-5.35-.85-7.55-4.5l-.2-.35q.3-1.6 1.35-2.9.95 1.85 2.45 3.15 2.5 2.2 5.65 2.2l.95-.2.3-.5.05-.2.05-1-.1-1.25-.05-.25-.25-1.2h.2l.9 1.4.1.2q.7 1.35.7 2.1l-.05.5.65.2q.65 0 1.35-.5l.6-.6v-.05q1.2-1.45 1.2-3.6 0-1.35-.35-2.3l-1.2-2.35-.4-.55 1.3-.05 1.3.15" fill="#7d8f88" transform="translate(16.25 17.7)"/></g><g id="g" fill-rule="evenodd"><path d="m1.8-8.15 1.25-.25 4.15.7 3.75.75 5.6.3.05.75q0 2.45-1.75 4.2Q13.5-.3 11.7.2l1.6 1.45q1.6 1.5 1.6 2.15 0 .65-1.45 1.45-1.6.85-3.3.85l-2.8-.5Q6 5.15 5.65 4.75l-2.35.4-.5-.1v.5L2.4 9q-.7 3.2-2.25 3.2-1.9 0-2.6-2.55-.95-3.6-2.1-5.25l.05-.15.15-1.25.85.5L-2 4.95q.65.65 1.45 2.65l.15.4.85 1.9.75-1.55q.6-1.5.6-2.65l-.35-2.3-.2-.75-.25-.9-.2-.45.3.15.75.6q.75.8.95 1.65h1.75L4 2.55l.05-.5q4.45 2.8 6.6 2.35l-.1-.05h1.35q1.25-.1 1.3-.75v-.1q0-.4-.9-1.4L11 .9 9.1.35 6.65.05h-.1L5.25 0 3.1.2 2.7.15Q3.2-.7 4.65-.9l1.55-.15 2 .1q3.9 0 5.55-1.9.85-1.05 1.05-2.65l-2.35.35L7.1-5.9l-2.15-.35-4-.45-.45.15 1.3-1.6M-8.8.9q-1-.55-3.65-3.7l-4.1-5 .95-1 4.55 5.6q1.5 1.85 2.35 2.1l-.1 2m-5.6-11 .3-.35.1-.1 5.2 1.35q2 .55 2.9.55l-.8 1.25-3.5-1.3-1.55-.6-2.65-.8" fill="#03397c" transform="translate(16.55 12.2)"/><path d="m-14.85-9.6.45-.5 2.65.8Q-11-8.05-9.8-7.1q1.3 1 2.2.75l.35.15-.95 2.75-.05.2q-.65-.3-2.9-2.5l-3.7-3.85M.5-6.55l.45-.15 4 .45h-.9q-.95.1-1.55.75-.65.65-.65 1.5 0 1.1 1.5 1.45l2.95.2 5.05-.25 2.4-.25Q12.1-.95 8.2-.95l-2-.1-1.55.15-.85-.25q-1.85 0-2.4.85-.25.45-.3 1.75L.8 1.3l.2.45.25.9L1 6.45Q.8 7.2.2 7.6l-.6.4-.15-.4q-.8-2-1.45-2.65L-3.5 3.5l-.85-.5-.05-.5Q-4.6.7-2.55-2.45l3-4.05.05-.05M6.65.05l2.45.3L11 .9l1.3 1.2q.9 1 .9 1.4v.1l-1.15.05L9.35 3Q7.1 1.95 6.65.05M-.2 1.9Q-.75.55-1.75.55q-.55 0-.85.7l-.2 1 .15.4.8 1.25q1 1.35 1.7 1.35.4 0 .4-.8Q.25 3-.2 1.9" fill="#1098e8" transform="translate(16.55 12.2)"/><path d="m4.95-6.25 2.15.35 5.35.75 2.35-.35q-.2 1.6-1.05 2.65l-2.4.25-5.05.25-2.95-.2Q1.85-2.9 1.85-4q0-.85.65-1.5.6-.65 1.55-.75h.9M-.2 1.9Q.25 3 .25 4.45q0 .8-.4.8-.7 0-1.7-1.35l-.8-1.25-.15-.4.2-1q.3-.7.85-.7 1 0 1.55 1.35" fill="#22b5e7" transform="translate(16.55 12.2)"/><path d="m-15.6-8.8.05-.05.45-.5.25-.25 3.7 3.85q2.25 2.2 2.9 2.5L-8.7-1.1q-.85-.25-2.35-2.1l-4.55-5.6M4.65-.9Q3.2-.7 2.7.15l.4.05L5.25 0l1.3.05h.1Q7.1 1.95 9.35 3l2.7.65 1.15-.05q-.05.65-1.3.75h-1.35l.1.05q-2.15.45-6.6-2.35l-.05.5.55 1.15H2.8q-.2-.85-.95-1.65l-.75-.6q.05-1.3.3-1.75.55-.85 2.4-.85l.85.25m-3.4 3.55.2.75.35 2.3q0 1.15-.6 2.65L.45 9.9-.4 8l.6-.4q.6-.4.8-1.15l.25-3.8" fill="#0776b5" transform="translate(16.55 12.2)"/><path d="M-4.55 4.4q-.4.9-1.45.9-2.1 0-2.65-2.75L-8.8.9l.1-2 .45-2.15.05-.2.95-2.75.55-1.2.8-1.25.1-.2.45-.6Q-3.2-12.2-.7-12.2q1.15 0 2.2 1.25.95 1.15.95 2l-.65.8-1.3 1.6-.05.05-3 4.05Q-4.6.7-4.4 2.5l.05.5-.15 1.25-.05.15M-7.6 2.3l.1.25q.55 1.2 1.35 1.2.25 0 1.5-3.35l1.45-3.85L-.9-6.1l2-2.2q0-.75-.8-1.45t-1.6-.7l-.25.1-.5.15h-.05Q-4-9.1-5.75-6.4l-.45.75-1.35 2.95Q-8-1.25-8 .2l.05.75.05.15.1.6.2.6" fill="#033003" transform="translate(16.55 12.2)"/><path d="m-6.2-5.65.45-.75Q-4-9.1-2.1-10.2h.05l.5-.15.25-.1q.8 0 1.6.7t.8 1.45l-2 2.2-2.3 2.65L-4.65.4q-1.25 3.35-1.5 3.35-.8 0-1.35-1.2l-.1-.25.65.2q.3 0 1.15-1.8.9-1.95.9-3.15l-.35-.7Q-5.6-3.5-5.6-4q0-1 1.45-1l.55.1 2.3-2.25 1-.9q.55-.6.55-.95 0-.5-.75-.5-1.2 0-2.55 1.45l-.5-.1-.4.2-.15.2-.2.2v.35l.1.45.05.15q-.9 1.3-1.3 1.3-.6 0-.75-.35" fill="#65ff6d" transform="translate(16.55 12.2)"/><path d="m-4.15-6.6-.05-.15-.1-.45v-.35l.2-.2.15-.2.4-.2.5.1q.45.15.45.8 0 .85-1.05.85-.35 0-.5-.2" fill="#fdfefd" transform="translate(16.55 12.2)"/><path d="M-6.2-5.65q.15.35.75.35.4 0 1.3-1.3.15.2.5.2 1.05 0 1.05-.85 0-.65-.45-.8Q-1.7-9.5-.5-9.5q.75 0 .75.5 0 .35-.55.95l-1 .9-2.3 2.25-.55-.1Q-5.6-5-5.6-4q0 .5.35.85l.35.7q0 1.2-.9 3.15-.85 1.8-1.15 1.8l-.65-.2-.2-.6-.1-.6h.45q.9-.05.9-2.05l-.05-.9-.95-.85 1.35-2.95" fill="#156e15" transform="translate(16.55 12.2)"/><path d="m-7.25-6.2-.35-.15q-.9.25-2.2-.75-1.2-.95-1.95-2.2l1.55.6 3.5 1.3-.55 1.2" fill="#0cf2d7" transform="translate(16.55 12.2)"/><path d="M-7.95.95-8 .2q0-1.45.45-2.9l.95.85.05.9q0 2-.9 2.05h-.45l-.05-.15" fill="#20a91d" transform="translate(16.55 12.2)"/></g><g id="h" fill-rule="evenodd"><path d="m-12.45-40.65 1.6-3.35q1.05-2.55 1.05-5.65l-.05-2-1.15 1-3.25 2.45-.2.1-6.7 4.5q-9 6.65-12 14.3 4.45-2.1 5.7-2.1 1.2-.05 4.5 3.3l.35.35.05.05q1.85 1.95 3.25 4.3l.2.3 1.6 2.9-.1.1-.6.85-.15-.25-3.55-5.2q-3.95-5.25-5.85-5.25h-.05l-.8-.1-.3-.05q-8.9 2.85-13.8 12.75-4.35 8.75-4.35 20.1 0 4 1.6 9.6l1.6 5.5 1.15 3.95q1 3.75 2.75 6.75l3.5 4.75-.35-2-.05-.25-.2-.95q-.5-2.8-.5-5.95l.25-6.3.4-3.1L-35.45 6l.05-.25q.85-9.35 3.2-15.5l2.85-5.35 2.1-3.15 1.2.3-.9 1.3-1.6 2.6-.45.85-1.95 3.9q-1.75 4.05-1.85 6.55V-2l.05.4Q-28.6-.1-16.6 1.3l-3.6.7q-2.75.9-4.55 4.05Q-25.9 8-27.2 11.8q-.55 1.65-1.1 2.35l-.4.05h-.25l-.85-.25-1.45-.65-1.7-.5-.35-.05q-.85 0-1.15.4-.3.4-.6 1.85v3.15l-.3.05q-1.05.65-1.05 2.2 0 1.25 1.2 1.65l.35.1q-.4 2.7-.55 14.45-4.1-4.5-7.2-11.2-1.65-3.55-2.9-7.55-1.95-6.05-3.05-13.15l-.05-.45-.3-5.4V-2.5l.1-.35.1.2-.05-.4-.05.2q-2.85-4.4-4.5-12.1-1.4-6.6-1.5-12.9l2.5.15v.4q0 4.5 1.45 11.55Q-49.2-8.1-47.5-6.1q.1-7.75 4.65-13.85l-5.2-7.95-.15-.25 1.7-.6.2.25q3.05 4 4.75 5.45.4-.95 2.6-2.4 2.2-1.35 2.95-1.85l.1-.25.15-.3.1-.1 1.05-2.25q-1.25-.95-6.45-3.25l-.65-.3.9-2.8.4.1q4.75 1.45 6.8 3Q-32-37.1-28-41q3.65-3.55 7.8-5.85 4.65-2.6 7.15-4.9 1.75-1.7 3.75-4.6 1.3.1 1.9 2.35.4 1.5.4 3.45l-.25 2.1Q-1.95-52 9.35-52q3.1 0 13.2 2.25 7.25 1.55 11.2 1.45l.5 1.4q0 1.15-.6 1.9l-.8.95h.5q4.55 1.3 8.95 4.35l5.65 4.2-4.8-.4-.6-.05q-3.7-2.45-13.65-7l2.4-3.4-3.45.5q-2.9 0-8.95-1.8l-5-1.15-6.2-.55q-5.1.1-10.25 2.1l-2.5.95-.25.1-3.85 1.55-.25.15-3.05 3.9v-.05m4.6 16.75L-5-27.3l4.85-5.15q2.35-2.3 4.25-3.75l.2-.15L6.7-38q1.3-.7 2.25-.75l.25-.05q1.65 0 4.3 1.6l1.75 1.15.65.5 1 .75.1.05q1.95 1.55 2.65 2.7Q21-33.2 24.7-33.8l2.85-.4 3.55-.5 5.85-.85 1.75-.2-.1 1.2-8.6 1.4-9.4 1.95q4.75 3.75 8.25 9.7l10.9-5.95q.85 1.45 2.35 2.5l-4.45 2.5q-5.2 3.3-5.2 7.35 0 1.1.75 3.85l.65 2.45.25 1.1v.1l.15.15-.05-.05q3.25-3.65 7.15-10.55l3.3-5.6 1.6-2.55h.15v1.95L46-23.2l2.1.45q-.15 4.7-2.65 10.95L42.2-4.45l.8.2.1.3L41.25 0q-2 4.25-2.35 5.75-.55 2.25-2.15 4.95-1.7 2.7-2.9 3.3h-.05v.05q.2.95-.7 2.9l-1.15 2.2 3.75-2.1 2.95-1.85.1-.15-1.65-.35-1.85-.25q1.9-1.35 3.65-3.35l.35-.4q4.45-5.35 8-15.05Q50.8-14 51.7-22.55l1.5-.25 1.25-.15Q53.4-14.1 49.4-3.6q-5.3 13.95-10.35 16.7h2.1l.95.35.25.4q0 2.95-5.1 5.75Q34 21.4 31 22.2l-.15.05-.2.4q-3.9 7-9.4 12.6l-6.05 5.3q-9.4 7.2-16.85 7.2h-.4l-.2-1.2L1.45 41l.15-.3.5-.85.55-.95.2-.45L4.9 34.4l1.5-3.8.5-1.4v-.15l.9-3.3h.05l1.65.1h.55Q7.9 33.4 4.35 39.5q-2.6 4.55-5 6.75 13.45-3.1 21.9-13.3l.5-.65Q30.3 21.5 32 13.9l1.4-7.05.3-1.8.1-1.05.05-4.55-.05-1q-.2-4.15-1.05-7.4V-9l-1.3-3.55q-1.7-4.15-4.6-8.55l-1.65-2.35Q19.05-31.9 11.45-36.9l-.1-.1-1.95.75q-1.8.6-2.3 1.05l-5.25 4.5-6.5 6.2q-3.45 3.35-5.75 6.25l-.35-.65-.4-.75.35-.4.9-1.25.4-.55 1.65-2.05m39.8 43.05-.25.1h.15l.1-.1M7.9-16.25q-2.3-7-5.3-11.85v-.05l.25-.2q2.65 1.05 4.9 7.1l1.1 3.65 1.9 6.85.95 4.8.1.6.35 4.15.2 4.55v1.3L12.4 10l-.05 7.3-.05.55-.75 3.55h-.1l-1.65.1.45-.8.35-1.25v-.2l.1-.85.05-.55V16.2l-.9-.4q-.95-.45-1.7-.35L6 15.3l-2.7-.55q-3.25-.9-6-3.25-2.3-1.95-2.5-3-1.5-3.45-1.9-3.95-1.15-1.6-4.15-2.7l18.4 1.1 4.15-.35-.05-2.2q-.4-6.5-2.55-14l-.25-.85v-.05l-.55-1.75M-33.4 1.2q-.2 2.2-1.5 9.15v.6l.7-.5.9-.3.7.3V9.5q-.1-2.7-.5-5.6l-.3-2.7m68.6 7.4.5-.15q1-.45 1.55-1.7.5-1.1.95-4.15.35-2 1.5-3.7l1.9-3-1.8-.65L38-5.3q3.85-6.2 4.2-7.25h-2.1q-1.6.35-3.2 2.65l-2.6 3.55-.1.15q.75 3.8.95 7.85.2 3.65-.15 5.9v1.2l.2-.15" fill="#03397c" transform="translate(54.8 56.35)"/><path d="m-11-50.65 1.15-1 .05 2q0 3.1-1.05 5.65l-1.6 3.35.25-2.65.15-3.05.2-.55q1.05-2.6.85-3.75m-30.7 16.9.65.3q5.2 2.3 6.45 3.25l-1.05 2.25q-1.6-1.85-3.65-3.25l-2.8-1.8-4.85-2.65q2 .55 5.25 1.9m93.4 11.2q-.9 8.55-4.45 18.2-3.55 9.7-8 15.05L45.9-7.35q3.1-8.4 4.6-15.2.95-4.6 1.25-8.45l.1.15.15 2.6-.3 5.7m-7.05-1.1-3.3 5.6q-3.9 6.9-7.15 10.55l-.1-.2-.25-1.1q1.4-1.1 4.95-6.55l5.7-8.35.15.05" fill="#0cf2d7" transform="translate(54.8 56.35)"/><path d="m-12.45-40.6 3.05-3.9.25-.15 3.85-1.55q-.35.8-1.55 2.35l4.2 1.75q.3 0 3.8-1.9 3.85-2.05 6.1-2.6l4.25-1.1q1.4-.5 2.4-1.1l5 1.15q6.05 1.8 8.95 1.8l3.45-.5-2.4 3.4q9.95 4.55 13.65 7h-.7l-3.15.2-1.75.2-5.85.85-3.55.5q.4-.8 1.3-1.6L31-37.7l-1.95-.4-4.2-.1q-4 0-5.9.9-1.7.8-2.05 2.5l-1-.75.65-1.4 1.5-3.5-2.8 1.95-1.75 1.3q-2.65-1.6-4.3-1.6l-.25.05.5-2.8q.65-2.6 1.55-4.75h-.75Q5.3-45.4-.1-41.85l4.6-1 3.35-.85L6.7-38l-2.4 1.65.5-2.4q.55-2.1.8-2.45-.65 0-4.7 1.65-4.3 1.8-5.6 3.05l-.35 8.05.05 1.15-2.85 3.4-.25-6.85L-9-41.3q-1.65.85-2.65.85l-.85-.1.05-.05m-14.8 22.35-2.1 3.15-2.85 5.35q-2.35 6.15-3.2 15.5l-.05.25-1.45 8.75-.4 3.1-.25 6.3q0 3.15.5 5.95l.2.95q-1.1-1.05-1.85-3.75l-.4-1.7-.3-5.95v-1.8l.3-7.15q.5-6.2 1.95-11.55 4.7-17.6 10.7-20.65 1.05 0 1.7 1.7l.65 2.2-1.85-.35h-.1l.5-.8.05-.65-.35-.05q-.45 0-1.4 1.2m-1.35-11.8.8.1h.05q1.9 0 5.85 5.25l3.55 5.2.15.25-.7 1.1q-1.65-2.8-3.05-4.75-2.75-3.9-4.45-3.9l-.25.1q-.2-.75-.75-1.55l-1.2-1.8m9.3 6.65q-1.4-2.35-3.25-4.3l-.05-.05 3.3-8.6 4.85-11.75.2-.1 3.25-2.45q.2 1.15-.85 3.75l-.2.55-2.2 4.35q-4.6 8.4-5.9 16.1l3.6-6.1q3.4-5.25 5.95-6.15 1.2 4.8 1.25 10.7l-.15 5.6-.4.55-.9 1.25q0-3.4-.85-14.5l-3.6 3.9q-3.05 3.85-4.05 7.25m37.35-17.05.05-.15-.05.15m8.8 19.35q2.9 4.4 4.6 8.55L32.75-9v.05q.85 3.25 1.05 7.4l.05 1-1.85 5-2.55 6.25h-.3l-3.6-11.85L22.1 4.4l-4.65 6.95-.15-.15q-.4-3.15-1.65-7.2-1.55-5.05-3.85-9.35l-.1-.6-.95-4.8-1.9-6.85q3 4.1 7.75 13.5.8-1.9 2.05-7.95l1.1-6.15.3-.05q1.8 0 5.1 4.35 2.7 3.6 3.2 5.05l.35-2.95q0-2.85-.8-5.9l-1.05-3.4M33.4 6.85 32 13.9q-1.7 7.6-10.25 18.4l-.5.65q-8.45 10.2-21.9 13.3 2.4-2.2 5-6.75 3.55-6.1 5.7-13.65h.1q2.35-.1 4.55-.95 2.5-1 2.5-2.05 0-1.2-2.05-1.45h-3.6l.75-3.55.05-.55.05-7.3-.05-5.35 2.6 8.25 1.4 4.95.4 2 1.05-2 3.4-6.65q2.75-5.4 3.7-6.5l1.85 5.65 1.65 5.35 3.3-5.5 1.7-3.35M20.75-45.5l-4.15.45-3.2-.2-.75 2.45-.25 1.6.1.75q.1.15.45.15l4.9-1.65q5.4-1.8 8.6-2.4l-3-.8-2.7-.35" fill="#1098e8" transform="translate(54.8 56.35)"/><path d="m42.55-35.95.6.05 4.8.4.6.1.65.1q4 .65 5.15 1.5l.45 4.8-.35 6.05-1.25.15-1.5.25.3-5.7-.15-2.6v-.3l-.05-.4-5.15-2.25q-2.95-.9-6.8-.9l-1.25.15.1-1.2 3.15-.2h.7m-83.35-.6-.9 2.8q-3.25-1.35-5.25-1.9l-.25-.1-2.1-.35-1.95.15v.05l-.15.75-.5 3.3-.4 4.15-2.5-.15v-.7q0-2 .6-4.65l1.05-4.8 2.65-.15q4.35 0 9.65 1.55l.05.05m25.05 50.1-2-.15h-1.6l-1.2.15 1 1.35.8.65 3-1.55v-.45m-.15-1.1q1.4.05 1.4 1 0 1-1.35 2.1-1.4 1.1-2.9 1.1l-.9-.25-.8-1q-1.85-1.85-1.85-2.55l.3-.65.2-.15.15-.05 3.7.6 2.05-.15" fill="#5d011a" transform="translate(54.8 56.35)"/><path d="M-46.95-35.65-42.1-33q-1.1 2.05-2.95 3.35l-1.45.9-4.55-6.1-.15-.15-.2-.15.15-.75v-.05l1.95-.15 2.1.35.25.1m95.05 12.9L46-23.2l.4-1.05v-1.95h-.15l-1.6 2.55-.15-.05-.95-.4-1.45-.85q5.35-3.15 9.55-6.2l.1.15q-.3 3.85-1.25 8.45l-2.4-.2" fill="#c32f51" transform="translate(54.8 56.35)"/><path d="m-35.65-27.95-.1.1-.15.3-.1.25q-.75.5-2.95 1.85-2.2 1.45-2.6 2.4-1.7-1.45-4.75-5.45l-.2-.25 1.45-.9q1.85-1.3 2.95-3.35l2.8 1.8q2.05 1.4 3.65 3.25m74.9 38.65-.35.4q-1.75 2-3.65 3.35l1.85.25 1.65.35-.1.15-2.95 1.85-3.75 2.1 1.15-2.2q.9-1.95.7-2.9V14h.05q1.2-.6 2.9-3.3 1.6-2.7 2.15-4.95.35-1.5 2.35-5.75l1.85-3.95-.1-.3-.8-.2 3.25-7.35q2.5-6.25 2.65-10.95l2.4.2q-1.5 6.8-4.6 15.2L39.25 10.7m-5.4-19.5-.65-2.45q-.75-2.75-.75-3.85 0-4.05 5.2-7.35l4.45-2.5 1.45.85.95.4-5.7 8.35Q35.25-9.9 33.85-8.8m-67.25 10 .3 2.7q.4 2.9.5 5.6v.95l-.7-.3-.9.3-.7.5v-.6q1.3-6.95 1.5-9.15" fill="#0776b5" transform="translate(54.8 56.35)"/><path d="m-5.3-46.2.25-.1 2.5-.95q5.15-2 10.25-2.1l6.2.55q-1 .6-2.4 1.1l-4.25 1.1Q5-46.05 1.15-44q-3.5 1.9-3.8 1.9l-4.2-1.75q1.2-1.55 1.55-2.35m-42.9 18.05.15.25 5.2 7.95q-4.55 6.1-4.65 13.85-1.7-2-3.35-9.65-1.45-7.05-1.45-11.55v-.4h.6l3.5-.45m11.35 59.2.05.25.35 2-3.5-4.75q-1.75-3-2.75-6.75l-1.15-3.95-1.6-5.5q-1.6-5.6-1.6-9.6 0-11.35 4.35-20.1 4.9-9.9 13.8-12.75l.3.05 1.2 1.8q.55.8.75 1.55-.8.45-2.65 3.3-2.4 3.8-4.7 8.9-6.3 14.1-6.3 25.9l.2 6.45.6 5.65.4 2.1.4 1.7q.75 2.7 1.85 3.75M-17.5-20.2l-1.6-2.9-.2-.3q1-3.4 4.05-7.25l3.6-3.9q.85 11.1.85 14.5l-.35.4Q-13.4-24-14.1-24q-.7 0-3.4 3.8m-5.1-7.55-.35-.35q-3.3-3.35-4.5-3.3-1.25 0-5.7 2.1 3-7.65 12-14.3l6.7-4.5-4.85 11.75-3.3 8.6m17.6.45-.05-1.15.35-8.05q1.3-1.25 5.6-3.05 4.05-1.65 4.7-1.65-.25.35-.8 2.45l-.5 2.4-.2.15q-1.9 1.45-4.25 3.75L-5-27.3m21.9-7.5q.35-1.7 2.05-2.5 1.9-.9 5.9-.9l4.2.1 1.95.4-2.15 1.9q-.9.8-1.3 1.6l-2.85.4q-3.7.6-5.05 1.75-.7-1.15-2.65-2.7l-.1-.05m-27.3 16.55q2.3-2.9 5.75-6.25l6.5-6.2 5.25-4.5q.5-.45 2.3-1.05l1.95-.75.1.1q7.6 5 13.75 13.45l1.65 2.35 1.05 3.4q.8 3.05.8 5.9l-.35 2.95q-.5-1.45-3.2-5.05-3.3-4.35-5.1-4.35l-.3.05-1.1 6.15Q17.4-6 16.6-4.1q-4.75-9.4-7.75-13.5l-1.1-3.65q-2.25-6.05-4.9-7.1l-.5-.15.25.4-4.85 4.1-7.45 7.15-.7-1.4m50.15-9.2-10.9 5.95q-3.5-5.95-8.25-9.7l9.4-1.95 8.6-1.4-.1 2.25q0 2.8 1.25 4.85m-65.9 40.25q.75-3.85 3.75-6.8 3.15-3.05 6.75-3.05 6.4 0 9.35 5.45 1.6 2.95 3.25 8.6l-3.2-3.2Q-10.75 8.75-17 8.75q-4.65 0-7.65 2.75l-1.5 1.3m46.9-58.3 2.7.35 3 .8q-3.2.6-8.6 2.4l-4.9 1.65q-.35 0-.45-.15l-.1-.75.25-1.6.75-2.45 3.2.2 4.15-.45" fill="#35d3e7" transform="translate(54.8 56.35)"/><path d="m-12.05-46.35-.15 3.05-.25 2.65-.05.1.85.1q1 0 2.65-.85l.9 10.55.25 6.85-1.65 2.05.15-5.6q-.05-5.9-1.25-10.7-2.55.9-5.95 6.15l-3.6 6.1q1.3-7.7 5.9-16.1l2.2-4.35" fill="#0763b7" transform="translate(54.8 56.35)"/><path d="m-26.65-26.7.25-.1q1.7 0 4.45 3.9 1.4 1.95 3.05 4.75l-.65 1-.05.1-2.3-.25-2.2-.3-.65-2.2q-.65-1.7-1.7-1.7-6 3.05-10.7 20.65Q-38.6 4.5-39.1 10.7l-.3 7.15v1.8l.3 5.95-.4-2.1-.6-5.65-.2-6.45q0-11.8 6.3-25.9 2.3-5.1 4.7-8.9 1.85-2.85 2.65-3.3M6.7-38l1.15-5.7-3.35.85-4.6 1q5.4-3.55 10.35-4.45H11q-.9 2.15-1.55 4.75l-.5 2.8Q8-38.7 6.7-38m6.8.8 1.75-1.3 2.8-1.95-1.5 3.5-.65 1.4-.65-.5-1.75-1.15M33.85-.55 33.8 4l-.1 1.05-.3 1.8-1.7 3.35-3.3 5.5-1.65-5.35L24.9 4.7q-.95 1.1-3.7 6.5l-3.4 6.65-1.05 2-.4-2-1.4-4.95-2.6-8.25v-1.3l-.2-4.55-.35-4.15q2.3 4.3 3.85 9.35 1.25 4.05 1.65 7.2l.15.15L22.1 4.4l3.45-5.55 3.6 11.85h.3L32 4.45l1.85-5M-9.35-16.2l-.05-.1-.3-.55L-2.25-24l4.85-4.1q3 4.85 5.3 11.85l-2.95.45-4.4.1-4.95-.3-4.15-.25-.8.05" fill="#0761b5" transform="translate(54.8 56.35)"/><path d="m-26.05-17.95-1.2-.3q.95-1.2 1.4-1.2l.35.05-.05.65-.5.8" fill="#033b7e" transform="translate(54.8 56.35)"/><path d="m-18.2-19.25.6-.85.1-.1q2.7-3.8 3.4-3.8.7 0 2.95 4.35l.4.75.35.65.7 1.4.3.55.05.1.85 1.7 1.1 2 .2.35q-.5 1.75-4.2 4.95-4 3.45-5.6 3.65-1.3-.9-2.8-3.8-1.55-3.1-1.75-5.5l-.05-.25 1.2-2.6.8-1.35.05-.1.65-1 .7-1.1m7.5 3.05-.25-.55-.4-1q-1.4-3.2-2.25-4.1l-.65-.4-2.65 3.55-.85 1.25-.35.5-1.95 3.35q-.3.1-.25.35l.05.15.05.25.2.75v.05q.5 1.75 1.4 3.6l1.45 2.4.15.2q.45.45.85.45.55 0 3.45-2.4l3.75-3.4-1.75-5" fill="#033003" transform="translate(54.8 56.35)"/><path d="m-14.1-18.8.05-.25.45-2.8q.85.9 2.25 4.1l.4 1 .25.55.4 2.75v.5l-1.75-.1-.95-2.65-1.1-3.1m-4 1.85-.45 2.55h.05l1.15-1.35 1.85-2v.85l-.95 3.25-3.75.35.15-.3 1.95-3.35m-1.9 4.9h1.6l1.55 3.75-.3 2.25-1.45-2.4q-.9-1.85-1.4-3.6m5.9 4.2q-1.35-.65-1.35-1.7l.5-1.45.65-1.05 2.45.25 1.55.2-1.15 1.15-1.85-.4q-1.15 0-1.15 1.6 0 1 .7 1.1l-.25.2-.1.1" fill="#65ff6d" transform="translate(54.8 56.35)"/><path d="m-13.6-21.85-.45 2.8-.05.25-1.15 5.6 3.2.15 1.75.1v-.5l-.4-2.75 1.75 5-3.75 3.4q-2.9 2.4-3.45 2.4-.4 0-.85-.45l-.15-.2.3-2.25v-.25l.55-3.5H-20v-.05l-.2-.75-.05-.25.05-.2 3.75-.35.95-3.25v-.85l-1.85 2-1.15 1.35h-.05l.45-2.55.35-.5.85-1.25 2.65-3.55.65.4m-1.9 9.75-.55 5.95h.05l1.1-1.05.8-.65.1-.1.25-.2q-.7-.1-.7-1.1 0-1.6 1.15-1.6l1.85.4 1.15-1.15-1.55-.2-2.45-.25-1.15-.1h-.05v.05" fill="#fff" transform="translate(54.8 56.35)"/><path d="m-52.3-27.7.4-4.15.5-3.3.2.15.15.15q.7 3.05 2.85 6.7l-3.5.45h-.6m90.9-6.85 1.25-.15q3.85 0 6.8.9l5.15 2.25.05.4h-.2q-3.45-.25-9.75 2.65l-2.15 1.05Q38.5-29.5 38.5-32.3l.1-2.25" fill="#f67c99" transform="translate(54.8 56.35)"/><path d="m-46.5-28.75-1.7.6q-2.15-3.65-2.85-6.7l4.55 6.1" fill="#811446" transform="translate(54.8 56.35)"/><path d="M-16.6 1.3q-12-1.4-16.15-2.9l-.05-.4v-.75l3.85.8 2.7.45L-15-.15 3.35 1l1.2-.05L7.25.7 8.8.55 11.25.4l.05 2.2-4.15.35-18.4-1.1-.2-.1-.3.05-1.3-.15-2.6-.25-.8-.15-.15.05m-10.35-17.95.9-1.3h.1l1.85.35 2.2.3 2.3.25-.8 1.35-2.9-.55-2.5-.3-1.15-.1m17.6.45.8-.05 4.15.25 4.95.3 4.4-.1 2.95-.45.55 1.75-2.4.2h-.2l-3 .15H1.9l-8.65-.35H-8.5l-.85-1.7" fill="#4c4c65" transform="translate(54.8 56.35)"/><path d="m4.9 34.4-2.05 4.05-.2.45-1.2-.1-2-.1q-.7-.1-2.55-1.6-2-1.6-2-2.5 0-.5 3.15-1.1l4.1-.55q.55 0 1.25.45l1.5 1M-8.5-14.5h1.75l8.65.35h.95q.95 4.9 1.35 10.2l.35 4.9-1.2.05L-15-.15-26.25-1.5v-.2l.4-5.3.05-9.55 2.5.3 2.9.55-1.2 2.6.05.25q.2 2.4 1.75 5.5 1.5 2.9 2.8 3.8 1.6-.2 5.6-3.65 3.7-3.2 4.2-4.95l-.2-.35-1.1-2m-22 32-.1-2.4.2-.05 1.1.15q2.15 0 5.3-2.9 3.15-2.95 6.6-2.95 1.8 0 3.7.8l2.1 1.15.25.15q2.8 1.6 7.55 6.4l.55.55 2.65 2.15-5.05-.5-.8.1V20q0-1.65-.3-2.15-.35-.65-1.5-.65l-3.9.5-.8.15-2.75.7-.2.1-.05.1-3.15-.2h-6.8q-.4-.45-1.35-.7l-3.25-.35m1.1 4.5 1.3-.4 2-1.15 3.5 3.55q2.1 2.05 4.35 2.95l5.35 2.1-5.8-.95q-9.6-2-10.7-6.1m13.5-9.55-2.05.15-3.7-.6-.15.05-.2.15-.3.65q0 .7 1.85 2.55l.8 1 .9.25q1.5 0 2.9-1.1 1.35-1.1 1.35-2.1 0-.95-1.4-1m-5.05 17.5.95 1.55.25.7q0 .65-.55 1.3l-.6.7-1.75.35h-.85l1.45-2.95 1.1-1.65m13 4.75q.35.25.4 1.35l.25 2.25 1.3 2.45 1.45 1.8q-2.35-.25-5.5-2.5-3.6-2.6-3.6-5.2v-.8l.3-.35 2.35.05q2.05.15 3.05.95m-7.8 1.3-2.35 2.7-.4-4.9q0-1.75.75-1.75.7 0 2.05.9l1.25 1.1q0 .55-1.3 1.95M-4 46.05l.3.7.1.25.1.25q.45 1 .45 1.6 0 .45-.4.45l-1-.35-.1-1.5.2-1 .35-.4m-.8 5.75-.4 1-1 .8-.35.05h-.2l-.1-.95q0-1.15 1.05-1.15l1 .25m-6.2-.9-.75-.65-.2-.15-.05-.05q-.35-.4-.35-1.6v-.1l.05-.55h.1q.4 0 .8.65.45.7.45 1.65l-.05.8" fill="#f9fbf6" transform="translate(54.8 56.35)"/><path d="m-14.1-18.8 1.1 3.1.95 2.65-3.2-.15 1.15-5.6m-1.4 6.7.05-.05 1.15.1-.65 1.05-.5 1.45q0 1.05 1.35 1.7l-.8.65-1.1 1.05h-.05l.55-5.95" fill="#156e15" transform="translate(54.8 56.35)"/><path d="m-29-13.2.45-.85 1.6-2.6 1.15.1-.05 9.55-.4 5.3v.2l-2.7-.45-.1-6.25q-.3-2.9.05-5m31.85-.95 3-.15h.2Q7.85-10.5 8.4-5L8.8.55 7.25.7l-2.7.25-.35-4.9q-.4-5.3-1.35-10.2" fill="#a1a0c2" transform="translate(54.8 56.35)"/><path d="M-18.4-12.05h2.1l-.55 3.5v.25l-1.55-3.75" fill="#20a91d" transform="translate(54.8 56.35)"/><path d="M-28.3 14.15q.55-.7 1.1-2.35 1.3-3.8 2.45-5.75Q-22.95 2.9-20.2 2l3.6-.7.95.1 2.6.25 1.3.15.5.05q3 1.1 4.15 2.7.4.5 1.9 3.95.2 1.05 2.5 3 2.75 2.35 6 3.25l2.7.55 2.15.15q.75-.1 1.7.35l.9.4v1.65l-.05.55-.1.85v.2l-.9.5-1.6.4-1.8.3q-3.9 0-6.6-1.55l-1.75-1.25-.7-.6-.3-.25Q-4.7 11.35-6.3 8.4q-2.95-5.45-9.35-5.45-3.6 0-6.75 3.05-3 2.95-3.75 6.8-1.4 1.05-2.15 1.35" fill="#1097e7" transform="translate(54.8 56.35)"/><path d="M-32.8-2.75q.1-2.5 1.85-6.55l1.95-3.9q-.35 2.1-.05 5l.1 6.25-3.85-.8M6.05-14.3l2.4-.2v.05l.25.85q2.15 7.5 2.55 14L8.8.55 8.4-5q-.55-5.5-2.35-9.3" fill="#6c6b97" transform="translate(54.8 56.35)"/><path d="m-34.85 22.15-.35-.1q-1.2-.4-1.2-1.65 0-1.55 1.05-2.2l.3-.05 1.15-.3.7-.2.25-.05 1.9-.1h.55l3.25.35q.95.25 1.35.7.25.3.25.65 0 .65-.45 1.25l-2 1.15-1.3.4-2.8.3h-.3l-2.35-.15m19.15-3.6 2.75-.7.8-.15 3.9-.5q1.15 0 1.5.65.3.5.3 2.15v.15l-.2 1.6-.05.4-.2.55-.05.15-.75 1.25q-.95 1.05-2.1 1.05-1.2 0-3.5-1.7-2.75-2.05-2.75-4.2l.1-.5.25-.2m-13.45.5-1.8.05-.1-.05-2.8.25-.3.15-.1.3q0 .3 1 .5l1.8.2 2.75-.35q1.4-.35 1.4-.65 0-.35-1.85-.4m21.75 2.9q.25-.75.25-1.6 0-2.2-1.1-2.2-1.5 0-2.75.7-1.1.55-1.85 1.5l-.9 1.3v.05q0 .7 1.65 1.4 1.5.65 2.6.65.8 0 1.55-.9l.55-.9m-5.4-3.1h-.4q-2.1 0-2.1.75l1.05 1.45 1.6-2.05q0-.15-.15-.15" fill="#772b15" transform="translate(54.8 56.35)"/><path d="m-32.95 12.8 1.7.5 1.45.65.85.25.65-.05q.75-.3 2.15-1.35l1.5-1.3q3-2.75 7.65-2.75 6.25 0 10.75 5.05l3.2 3.2.3.25.7.6L-.3 19.1q2.7 1.55 6.6 1.55l1.8-.3 1.6-.4.9-.5-.35 1.25Q7.3 22.2 4.9 22.2l-2.3-.25q-1.7-.45-3.2-1.4l-2.65-2.15-.55-.55q-4.75-4.8-7.55-6.4l-.25-.15-2.1-1.15q-1.9-.8-3.7-.8-3.45 0-6.6 2.95-3.15 2.9-5.3 2.9l-1.1-.15-.2.05.1 2.4h-.55l-1.9.1v-4.8" fill="#9daca5" transform="translate(54.8 56.35)"/><path d="M-29.15 19.05q1.85.05 1.85.4 0 .3-1.4.65l-2.75.35-1.8-.2q-1-.2-1-.5l.1-.3.3-.15 2.8-.25.1.05 1.8-.05M12.2 22.4q3.35 0 3.35 1 0 1.15-5.85 1.15l-2.1-.05q-1.3-.2-.95-1.05l.3-.05.5-.25 2.6-.7 2.15-.05" fill="#ff5f00" transform="translate(54.8 56.35)"/><path d="m6.9 29.2-.5 1.4-4.1.3-10.65-.3-4.9-.4-7.25-.9-.45.65-1.1 1.65-1.45 2.95h.85l1.75-.35.75-.25 1.05-.3-.2 3.25q0 2.05.7 3.75.6 1.4 1.15 1.7 0-2.2 1.05-3.9.8-1.35 1.2-1.35l.2.15q1.8 2.9 5.85 5l.1.05 1 .45 2.4.9 2.6.2v-.05q-.1-1.5-.8-3.2-.7-1.75-1.55-2.6h1.2q1.15.25 3.8 1.25 1.95.7 2.5.6l-.5.85-.15.3H1.2l-2-.35q-1.75-.55-2.7-1.4l1.9 5.25-.2.5-.55.25-.7-.1q.5.4.8 1.4l.2 1.2.05 1.3-.05.95q-.2.45-1 .5l-.35 3.15Q-4 56.3-5.6 56.3q-2.25 0-3.65-1.15-1.3-1.05-2.55-3.5v-.05l-.1-.15-1.45-.95q-.45-.55-.45-2.25l.3-3.05.65-3.3-1.2-1q-1.05-.95-1.3-1.7l-.75 2.25-.65 2.9q-1.35-.4-2.35-2.6-1.05-2.25-1.05-4.95l.1-1.65-1.05.4-2.25.35h-.95l-.15-.75q0-1.15 1.05-3.3.9-1.9 1.95-3.3l-5.8-1.55q-3.8-1.5-4.95-4.7l2.8-.3q1.1 4.1 10.7 6.1l5.8.95.8.1 11.3.55 4.9-.2 2.8-.3m-18.25 13.85V43l-.2-.25q-.7 3-.75 5.05l-.05.55v.1q0 1.2.35 1.6l.05.05.2.15.75.65q.25.15.55.4l1.75 1.35q1.15.85 1.95 1h.2l.35-.05 1-.8.4-1v-.1l.1-1.2-.1-1.2.05-.5.3.15 1 .35q.4 0 .4-.45 0-.6-.45-1.6l-.1-.25-.1-.25-.3-.7-.4-.85h-1.2l-1.9-.4-.25-.05-.15-.05-.4-.1h-.05l-2.1-.85-.25-.15-.65-.55" fill="#7d8f88" transform="translate(54.8 56.35)"/><path d="M-15.75 13.55V14l-3 1.55-.8-.65-1-1.35 1.2-.15h1.6l2 .15" fill="#e30" transform="translate(54.8 56.35)"/><path d="m7.8 25.75-.9 3.3v.15l-2.8.3-4.9.2-11.3-.55-.8-.1-5.35-2.1q-2.25-.9-4.35-2.95l-3.5-3.55q.45-.6.45-1.25 0-.35-.25-.65h6.8l3.15.2-.1.5q0 2.15 2.75 4.2 2.3 1.7 3.5 1.7 1.15 0 2.1-1.05l.75-1.25.05-.15.2-.55.05-.4.2-1.6.8-.1 5.05.5q1.5.95 3.2 1.4l2.3.25q2.4 0 5.35-1.5l-.45.8h-.3l-.1.05-2.3.6-.45.1H6.4v.15q-.45.15-.65.4-.3.3-.3 1 0 1.55 2.35 1.95M6.4 30.6l-1.5 3.8-1.5-1q-.7-.45-1.25-.45l-4.1.55q-3.15.6-3.15 1.1 0 .9 2 2.5 1.85 1.5 2.55 1.6l2 .1 1.2.1-.55.95q-.55.1-2.5-.6-2.65-1-3.8-1.25h-1.2q.85.85 1.55 2.6.7 1.7.8 3.2v.05l-2.6-.2-2.4-.9-1-.45-.1-.05q-4.05-2.1-5.85-5l-.2-.15q-.4 0-1.2 1.35-1.05 1.7-1.05 3.9-.55-.3-1.15-1.7-.7-1.7-.7-3.75l.2-3.25-1.05.3-.75.25.6-.7q.55-.65.55-1.3l-.25-.7-.95-1.55.45-.65 7.25.9 4.9.4 10.65.3 4.1-.3m-14.35 4.1q-1-.8-3.05-.95l-2.35-.05-.3.35v.8q0 2.6 3.6 5.2 3.15 2.25 5.5 2.5L-6 40.75l-1.3-2.45-.25-2.25q-.05-1.1-.4-1.35m-7.8 1.3q1.3-1.4 1.3-1.95l-1.25-1.1q-1.35-.9-2.05-.9-.75 0-.75 1.75l.4 4.9 2.35-2.7m3.45 11.8q.05-2.05.75-5.05l.2.25v.05l-.05 1.2q0 2.95.9 5.25 1.05 2.7 2.75 2.7.55 0 .95-.65l1.1-1.4q.9-1.35.9-2.3l-.45-2.6v-.05h.85l.4.85-.35.4-.2 1 .1 1.5-.3-.15-.05.5.1 1.2-.1 1.2v.1l-1-.25q-1.05 0-1.05 1.15l.1.95q-.8-.15-1.95-1l-1.75-1.35q-.3-.25-.55-.4l.05-.8q0-.95-.45-1.65-.4-.65-.8-.65h-.1M35 8.6V7.55q.35-2.25.15-5.9-.2-4.05-.95-7.85l.1-.15 2.6-3.55q1.6-2.3 3.2-2.65h2.1Q41.85-11.5 38-5.3l1.8.55 1.8.65-1.9 3Q38.55.6 38.2 2.6q-.45 3.05-.95 4.15Q36.7 8 35.7 8.45l-.5.15H35" fill="#accdc0" transform="translate(54.8 56.35)"/><path d="m-12.85 20.35.5-.3h.8q1.75 0 2.9.65.85.45 1.25 1.25l-.55.9q-.75.9-1.55.9-1.1 0-2.6-.65-1.65-.7-1.65-1.4v-.05l.9-1.3" fill="#e46e4e" transform="translate(54.8 56.35)"/><path d="M-7.4 21.95q-.4-.8-1.25-1.25-1.15-.65-2.9-.65h-.8l-.5.3q.75-.95 1.85-1.5 1.25-.7 2.75-.7 1.1 0 1.1 2.2 0 .85-.25 1.6m-5.4-3.1q.15 0 .15.15l-1.6 2.05-1.05-1.45q0-.75 2.1-.75h.4" fill="#aa4d33" transform="translate(54.8 56.35)"/><path d="m-11.35 43.05.65.55.25.15q-.05.75.6 1.15l.85.25q.35 0 .55-.25l.15-.3.4.1.15.05.25.05-.25.65q-.45.65-1.3.65-1.25 0-1.4-.8l-.15 1.2v.05q0 1.7 1 3.35.9 1.55 1.7 1.55.2 0 .35-.4l.2-.6q-1.05-.4-1.05-2.25 0-.45.3-.75l.1-.15q.35-.35.85-.35l1 .4q.6.45.7.9l.2-1.25-.1-1.8h.1v.05l.45 2.6q0 .95-.9 2.3l-1.1 1.4q-.4.65-.95.65-1.7 0-2.75-2.7-.9-2.3-.9-5.25l.05-1.2m4 5.4q0 1.25.95 1.25.6 0 .6-.65 0-.8-.55-1.15l-.6-.25-.3.15-.1.65" fill="#6a240d" transform="translate(54.8 56.35)"/><path d="m-7.5 44.8 1.9.4h.25l.1 1.8-.2 1.25q-.1-.45-.7-.9l-1-.4q-.5 0-.85.35l-.1.15q-.5-.4-1.85-.9h-.65v-.05l.15-1.2q.15.8 1.4.8.85 0 1.3-.65l.25-.65" fill="#dc7e02" transform="translate(54.8 56.35)"/><path d="m-10.45 43.75 2.1.85h.05l-.15.3q-.2.25-.55.25l-.85-.25q-.65-.4-.6-1.15m3.1 4.7.1-.65.3-.15.6.25q.55.35.55 1.15 0 .65-.6.65-.95 0-.95-1.25" fill="#b34c16" transform="translate(54.8 56.35)"/><path d="M-10.6 46.55h.65q1.35.5 1.85.9-.3.3-.3.75 0 1.85 1.05 2.25l-.2.6q-.15.4-.35.4-.8 0-1.7-1.55-1-1.65-1-3.35" fill="#e4b373" transform="translate(54.8 56.35)"/><path d="M42.1-24.95q-1.5-1.05-2.35-2.5l2.15-1.05q6.3-2.9 9.75-2.65-4.2 3.05-9.55 6.2" fill="#821446" transform="translate(54.8 56.35)"/><path d="M10.05 25.85H9.5l-1.65-.1H7.8q-2.35-.4-2.35-1.95 0-.7.3-1 .2-.25.65-.4l.7-.25 2.3-.6.4-.05 1.65-.1h3.7q2.05.25 2.05 1.45 0 1.05-2.5 2.05-2.2.85-4.55.95h-.1m2.15-3.45-2.15.05-2.6.7-.5.25-.3.05q-.35.85.95 1.05l2.1.05q5.85 0 5.85-1.15 0-1-3.35-1" fill="#4e596b" transform="translate(54.8 56.35)"/><path d="M-30.15-1.15h.05l1.8.45 1.45.3v.05q-1 .35-2 1.95-1.45 2.25-1.5 4.95l-.25-.05-.7.1q0-2.6.35-4.75.25-2.1.8-3m26.5 3.7 1.35.1.7.05q-2 1.4-2.9 3.5.25-1.9.85-3.65m12.8 0 .25.05 1.5-.15.15 2.3-1.9-2.2" fill="#acaaca" transform="translate(54.8 56.35)"/><path d="m-24.3 3.1.1 2.35v.15l-.75-.3q-.65-.5-.65-1.05 0-1.15 1.3-1.15m-4.05 11h-.1l-1.55-.5-.4-.15-.6-2.5-.3-4.1V6.6l.7-.1.25.05v.15q0 1.7.65 4.25.6 2.6 1.35 3.15m2.4-11.5.1-.3v-.2h.2q.55 0 .55.6 0 .4-.35.4-.5 0-.5-.5m-2.2 7.1q-.35-.35-.35-1.15V7.9l.5-.5 1-.3h.15q1.2 0 1.2 1.35 0 .45-.45 1l-.05.05q-.55.55-1.15.55h-.05l-.3-.05-.5-.3m38.8 5.85-.15 1.1-.2 1.75-2.6 1.25-2.4.65q-2.65.3-5.45-1.25l-1.4-.9-.15-.15 2.4.95q2.25.8 3.3.8 4.05 0 6.65-4.2m-4-6.6L6 8.65q-.95-.6-.95-1.5 0-.75.15-1l1-.7.8-.15q3 0 3 1.95 0 .7-.55 1.2l-.05.05-.25.15-1.75.45-.75-.15m.1 2.8-.4-.15q-.5-.3-.5-.85L6.2 10l.2-.25.2-.1.5-.1q1.05 0 1.05 1v.1l-.35.8-.35.3-.4.05-.3-.05m-4.95 1.9-.2.15q-.75.6-1.5.6l-1.2-.65-.25-.5v-.15l.25-1 .3-.65v-.05l.1-.1.2-.1.2-.05h.05l.8-.2q.6 0 1.15.55.55.55.55 1.3l-.45.85" fill="#fff" transform="translate(54.8 56.35)"/><path d="M-25.9.05q.85.55 1.3 1.75l.3 1.3q-1.3 0-1.3 1.15 0 .55.65 1.05l.75.3-.25 3.6-.1.95-.85-.05-.7-.65q.45-.55.45-1 0-1.35-1.2-1.35H-27l-.55-.6q-.4-.3-.75-.3l-.5.2-.15.15-.05-.05q0-2.45 1.1-4.3.85-1.5 2-2.15m-.05 2.55q0 .5.5.5.35 0 .35-.4 0-.6-.55-.6h-.2v.2l-.1.3m26.2.05 3.95-.2 3.4.05q2.2 1.55 2.75 3.75l.55 3.55v.4l-.05.5q-.35-1.15-1.4-2.25.55-.5.55-1.2Q10 5.3 7 5.3l-.8.15-1 .7q-.15.25-.15 1 0 .9.95 1.5l.65.3-.05.7-.2.1-.2.25-.35.75q0 .55.5.85l.4.15q-.2.8-1.15 1.5l-.1.05q-1.05.75-2.25.75l-1.45-.4.45-.85q0-.75-.55-1.3t-1.15-.55l-.8.2-.55-1.9Q-1.2 8.1-2.45 8.1q-1.2 0-2.05 1.8.15-2.05.75-3.4 1.1-2.3 4-3.85" fill="#013f00" transform="translate(54.8 56.35)"/><path d="M-26.85-.35q.5.1.95.4-1.15.65-2 2.15Q-29 4.05-29 6.5v.25l.3 2.65v.15l.3 1.8.6 1.8.4.8-.95.15q-.75-.55-1.35-3.15-.65-2.55-.65-4.25v-.15q.05-2.7 1.5-4.95 1-1.6 2-1.95M-1.6 2.7h.5l1.35-.05q-2.9 1.55-4 3.85-.6 1.35-.75 3.4l-.1.25-.05-1.3.1-2.25.05-.4q.9-2.1 2.9-3.5M10.85 12l.05.7-.15 2-.1.85q-2.6 4.2-6.65 4.2-1.05 0-3.3-.8L-1.7 18q-1.2-1.45-1.85-2.9l1.45 1.35.8.5 1.05.5q2.3 1.05 4.1 1.05 2.55 0 4.4-1.75l.25-.25.4-.55 1.3-2.2.65-1.75" fill="#033003" transform="translate(54.8 56.35)"/><path d="M-30.4 13.45q-.85-.4-1.45-.5l-.1-.1q-.7-.75-.7-5.4 0-2.75.35-5.25.35-2.9 1-3.45l.2-.1.95.2q-.55.9-.8 3Q-31.3 4-31.3 6.6v.25l.3 4.1.6 2.5m28.85 4.7-.7-.5Q-6.6 14.2-6.6 9.25q0-2.5.4-4.15l.9-2.35.05-.15 1.4-.05h.2q-.6 1.75-.85 3.65l-.05.4-.1 2.25.05 1.3-.05.05v.4h.05l.05.45v.15l.05.3.25 1.35.35 1.35.35.9q.65 1.45 1.85 2.9l.15.15" fill="#03397c" transform="translate(54.8 56.35)"/><path d="m-24.55 10.15-.3 1.3-.5.45-.75.95-.25.35-.1.1-.6-.85-.35-1.7.05-.7h.05q.6 0 1.15-.55l.05-.05.7.65.85.05M-27 7.1l-1 .3-.5.5v.65q0 .8.35 1.15l-.55-.15V9.4l-.3-2.65v-.2h.05l.15-.15.5-.2q.35 0 .75.3l.55.6m37.75 4.55.1.05v.3l-.65 1.75-.2.05-1.65-.3q-.75-.45-.9-1.75l.35-.3.35-.8.25-.05.35-.05q.85 0 1.25.35l.75.75M8.5 16.5l-.25.25Q6.4 18.5 3.85 18.5q-1.8 0-4.1-1.05l-1.05-.5-.8-.5-.25-.9q0-1.65 1-1.8h.25l1.2.65q.75 0 1.5-.6l.2-.15 1.45.4q1.2 0 2.25-.75l.1-.05h.95q.95.25 1.5 1.2.45.8.45 1.75v.3m-9.85-3.4q-.65.65-1.2.65-1.4 0-1.4-1.4 0-.8.5-1.3t1.25-.5l.65.15.75.75-.3.65-.25 1" fill="#57ff00" transform="translate(54.8 56.35)"/><path d="m-26.45 13.3-.9.6-.05.05-.4-.8-.6-1.8-.3-1.8.55.15.5.3.3.05-.05.7.35 1.7.6.85m37.3-2.6-.05.6v.35h-.05L10 10.9q-.4-.35-1.25-.35l-.35.05-.25.05v-.1q0-1-1.05-1l-.5.1.05-.7.75.15 1.75-.45.25-.15.05-.05q1.05 1.1 1.4 2.25m-4.1 1.05.3.05.4-.05q.15 1.3.9 1.75l1.65.3.2-.05-1.3 2.2-.4.55v-.3q0-.95-.45-1.75-.55-.95-1.5-1.2H5.6q.95-.7 1.15-1.5m-7.85 2h-.25q-1 .15-1 1.8l.25.9-1.45-1.35-.25-.55-.1-.35-.35-1.35-.25-1.35-.05-.45.05-1.15q.85-1.8 2.05-1.8 1.25 0 1.65 1.15l.55 1.9H-.3l-.2.05-.2.1h-.1v.15l-.75-.75-.65-.15q-.75 0-1.25.5t-.5 1.3q0 1.4 1.4 1.4.55 0 1.2-.65v.15l.25.5" fill="#1ca800" transform="translate(54.8 56.35)"/><path d="m7.6 2.5 1.55.05 1.9 2.2.1 2L11 8.9l-.1.9-.55-3.55Q9.8 4.05 7.6 2.5" fill="#033a69" transform="translate(54.8 56.35)"/></g><path d="M16.7-1.6q6.45 1.1 6.45 2.65 0 1.55-6.45 2.6L1.2 4.8l-15.6-1.15q-6.4-1.05-6.4-2.6t6.4-2.65L1.2-2.7l15.5 1.1" fill-opacity=".349" fill-rule="evenodd" transform="translate(20.8 2.7)" id="b"/><use ffdec:characterId="2" height="52.25" transform="translate(2.05)" width="65.65" xlink:href="#i" id="c"/></defs></svg>