<svg xmlns:ffdec="https://www.free-decompiler.com/flash" xmlns:xlink="http://www.w3.org/1999/xlink" ffdec:objectType="frame" height="90" width="90" xmlns="http://www.w3.org/2000/svg"><use ffdec:characterId="54" height="248.25" transform="translate(-11.921 -.973) scale(.3353)" width="344.1" xlink:href="#a"/><defs><use ffdec:characterId="2" height="64.1" width="155.75" xlink:href="#b" id="t"/><use ffdec:characterId="9" height="214.25" width="177" xlink:href="#c" id="u"/><use ffdec:characterId="11" height="183.45" width="125" xlink:href="#d" id="v"/><use ffdec:characterId="13" height="113.35" width="57" xlink:href="#e" id="w"/><use ffdec:characterId="15" height="375.05" transform="translate(0 95.95)" width="315" xlink:href="#f" id="y"/><use ffdec:characterId="22" height="53.9" width="50.85" xlink:href="#g" id="z"/><use ffdec:characterId="24" height="54.1" width="39.65" xlink:href="#h" id="A"/><use ffdec:characterId="26" height="59.2" width="57.3" xlink:href="#i" id="B"/><use ffdec:characterId="28" height="55.9" width="50.2" xlink:href="#j" id="C"/><use ffdec:characterId="30" height="115.2" width="91.7" xlink:href="#k" id="D"/><use ffdec:characterId="32" height="43.45" width="64.9" xlink:href="#l" id="E"/><use ffdec:characterId="34" height="93.9" width="72" xlink:href="#m" id="F"/><use ffdec:characterId="36" height="103.05" width="110.25" xlink:href="#n" id="G"/><use ffdec:characterId="38" height="13.6" transform="translate(1)" width="12.45" xlink:href="#o" id="H"/><use ffdec:characterId="42" height="73.55" width="81.95" xlink:href="#p" id="I"/><use ffdec:characterId="44" height="48.3" width="50.9" xlink:href="#q" id="J"/><use ffdec:characterId="46" height="558.65" transform="translate(178.5 53.15)" width="593.85" xlink:href="#r" id="M"/><g id="a" transform="translate(35.55 2.9)"><use ffdec:characterId="1" height="8.8" transform="matrix(2.1935 0 0 4.1326 57.52 208.95)" width="58.4" xlink:href="#s"/><use ffdec:characterId="8" height="80.85" transform="translate(99.922 151.689) scale(.8884)" width="155.75" xlink:href="#t"/><use ffdec:characterId="10" height="214.25" transform="matrix(-.8884 0 0 .8884 293.5 15.3)" width="177" xlink:href="#u"/><use ffdec:characterId="12" height="183.45" transform="matrix(-.8884 0 0 .8884 99.9 24.6)" width="125" xlink:href="#v"/><use ffdec:characterId="14" height="113.35" transform="matrix(-.8884 0 0 .8884 95.45 97.75)" width="57" xlink:href="#w"/><filter id="x"><feColorMatrix in="SourceGraphic" result="filterResult0" values="0 0 0 0 0.5803922,0 0 0 0 0.90588236,0 0 0 0 1.0,0 0 0 1 0"/><feConvolveMatrix divisor="1764" in="filterResult0" kernelMatrix="1 1 1 1 1 1 1 1 1 1 1 1 1 1 1 1 1 1 1 1 1 1 1 1 1 1 1 1 1 1 1 1 1 1 1 1 1 1 1 1 1 1 1 1 1 1 1 1 1 1 1 1 1 1 1 1 1 1 1 1 1 1 1 1 1 1 1 1 1 1 1 1 1 1 1 1 1 1 1 1 1 1 1 1 1 1 1 1 1 1 1 1 1 1 1 1 1 1 1 1 1 1 1 1 1 1 1 1 1 1 1 1 1 1 1 1 1 1 1 1 1 1 1 1 1 1 1 1 1 1 1 1 1 1 1 1 1 1 1 1 1 1 1 1 1 1 1 1 1 1 1 1 1 1 1 1 1 1 1 1 1 1 1 1 1 1 1 1 1 1 1 1 1 1 1 1 1 1 1 1 1 1 1 1 1 1 1 1 1 1 1 1 1 1 1 1 1 1 1 1 1 1 1 1 1 1 1 1 1 1 1 1 1 1 1 1 1 1 1 1 1 1 1 1 1 1 1 1 1 1 1 1 1 1 1 1 1 1 1 1 1 1 1 1 1 1 1 1 1 1 1 1 1 1 1 1 1 1 1 1 1 1 1 1 1 1 1 1 1 1 1 1 1 1 1 1 1 1 1 1 1 1 1 1 1 1 1 1 1 1 1 1 1 1 1 1 1 1 1 1 1 1 1 1 1 1 1 1 1 1 1 1 1 1 1 1 1 1 1 1 1 1 1 1 1 1 1 1 1 1 1 1 1 1 1 1 1 1 1 1 1 1 1 1 1 1 1 1 1 1 1 1 1 1 1 1 1 1 1 1 1 1 1 1 1 1 1 1 1 1 1 1 1 1 1 1 1 1 1 1 1 1 1 1 1 1 1 1 1 1 1 1 1 1 1 1 1 1 1 1 1 1 1 1 1 1 1 1 1 1 1 1 1 1 1 1 1 1 1 1 1 1 1 1 1 1 1 1 1 1 1 1 1 1 1 1 1 1 1 1 1 1 1 1 1 1 1 1 1 1 1 1 1 1 1 1 1 1 1 1 1 1 1 1 1 1 1 1 1 1 1 1 1 1 1 1 1 1 1 1 1 1 1 1 1 1 1 1 1 1 1 1 1 1 1 1 1 1 1 1 1 1 1 1 1 1 1 1 1 1 1 1 1 1 1 1 1 1 1 1 1 1 1 1 1 1 1 1 1 1 1 1 1 1 1 1 1 1 1 1 1 1 1 1 1 1 1 1 1 1 1 1 1 1 1 1 1 1 1 1 1 1 1 1 1 1 1 1 1 1 1 1 1 1 1 1 1 1 1 1 1 1 1 1 1 1 1 1 1 1 1 1 1 1 1 1 1 1 1 1 1 1 1 1 1 1 1 1 1 1 1 1 1 1 1 1 1 1 1 1 1 1 1 1 1 1 1 1 1 1 1 1 1 1 1 1 1 1 1 1 1 1 1 1 1 1 1 1 1 1 1 1 1 1 1 1 1 1 1 1 1 1 1 1 1 1 1 1 1 1 1 1 1 1 1 1 1 1 1 1 1 1 1 1 1 1 1 1 1 1 1 1 1 1 1 1 1 1 1 1 1 1 1 1 1 1 1 1 1 1 1 1 1 1 1 1 1 1 1 1 1 1 1 1 1 1 1 1 1 1 1 1 1 1 1 1 1 1 1 1 1 1 1 1 1 1 1 1 1 1 1 1 1 1 1 1 1 1 1 1 1 1 1 1 1 1 1 1 1 1 1 1 1 1 1 1 1 1 1 1 1 1 1 1 1 1 1 1 1 1 1 1 1 1 1 1 1 1 1 1 1 1 1 1 1 1 1 1 1 1 1 1 1 1 1 1 1 1 1 1 1 1 1 1 1 1 1 1 1 1 1 1 1 1 1 1 1 1 1 1 1 1 1 1 1 1 1 1 1 1 1 1 1 1 1 1 1 1 1 1 1 1 1 1 1 1 1 1 1 1 1 1 1 1 1 1 1 1 1 1 1 1 1 1 1 1 1 1 1 1 1 1 1 1 1 1 1 1 1 1 1 1 1 1 1 1 1 1 1 1 1 1 1 1 1 1 1 1 1 1 1 1 1 1 1 1 1 1 1 1 1 1 1 1 1 1 1 1 1 1 1 1 1 1 1 1 1 1 1 1 1 1 1 1 1 1 1 1 1 1 1 1 1 1 1 1 1 1 1 1 1 1 1 1 1 1 1 1 1 1 1 1 1 1 1 1 1 1 1 1 1 1 1 1 1 1 1 1 1 1 1 1 1 1 1 1 1 1 1 1 1 1 1 1 1 1 1 1 1 1 1 1 1 1 1 1 1 1 1 1 1 1 1 1 1 1 1 1 1 1 1 1 1 1 1 1 1 1 1 1 1 1 1 1 1 1 1 1 1 1 1 1 1 1 1 1 1 1 1 1 1 1 1 1 1 1 1 1 1 1 1 1 1 1 1 1 1 1 1 1 1 1 1 1 1 1 1 1 1 1 1 1 1 1 1 1 1 1 1 1 1 1 1 1 1 1 1 1 1 1 1 1 1 1 1 1 1 1 1 1 1 1 1 1 1 1 1 1 1 1 1 1 1 1 1 1 1 1 1 1 1 1 1 1 1 1 1 1 1 1 1 1 1 1 1 1 1 1 1 1 1 1 1 1 1 1 1 1 1 1 1 1 1 1 1 1 1 1 1 1 1 1 1 1 1 1 1 1 1 1 1 1 1 1 1 1 1 1 1 1 1 1 1 1 1 1 1 1 1 1 1 1 1 1 1 1 1 1 1 1 1 1 1 1 1 1 1 1 1 1 1 1 1 1 1 1 1 1 1 1 1 1 1 1 1 1 1 1 1 1 1 1 1 1 1 1 1 1 1 1 1 1 1 1 1 1 1 1 1 1 1 1 1 1 1 1 1 1 1 1 1 1 1 1 1 1 1 1 1 1 1 1 1 1 1 1 1 1 1 1 1 1 1 1 1 1 1 1 1 1 1 1 1 1 1 1 1 1 1 1 1 1 1 1 1 1 1 1 1 1 1 1 1 1 1 1 1 1 1 1 1 1 1 1 1 1 1 1 1 1 1 1 1 1 1 1 1 1 1 1 1 1 1 1 1 1 1 1 1 1 1 1 1 1 1 1 1 1 1 1 1 1 1 1 1 1 1 1 1 1 1 1 1 1 1 1 1 1 1 1 1 1 1 1 1 1 1 1 1 1 1 1 1 1 1 1 1 1 1 1 1 1 1 1 1 1 1 1 1 1 1 1 1 1 1 1 1 1 1 1 1 1 1 1 1 1 1 1 1 1 1 1 1 1 1 1 1 1 1 1 1 1 1 1 1 1 1 1 1 1 1 1 1 1 1 1 1 1 1 1 1 1 1 1 1 1 1 1 1 1 1 1 1 1 1 1 1 1 1 1 1 1 1 1 1 1 1 1 1 1 1 1 1 1 1 1 1 1 1 1 1 1 1 1 1 1 1 1 1 1 1 1 1 1 1 1 1 1 1 1 1 1 1 1 1 1 1 1 1 1 1 1 1 1 1 1 1 1 1 1 1 1 1 1 1 1 1 1 1 1 1 1 1 1 1 1 1 1 1 1 1 1 1 1 1 1 1 1 1 1 1 1 1 1 1 1 1 1 1 1 1 1 1 1 1 1 1 1 1 1 1 1 1 1 1 1 1 1 1 1 1 1 1 1 1 1 1 1 1 1 1 1 1 1 1 1 1 1 1 1 1 1 1 1 1 1 1 1 1 1 1 1 1 1 1 1 1 1 1 1 1 1 1 1 1 1 1 1 1 1 1 1 1 1 1 1 1 1 1 1 1 1 1 1 1 1 1 1 1 1 1 1 1 1 1 1 1 1 1 1 1 1 1 1 1 1 1 1 1 1 1 1 1 1 1 1 1 1 1 1 1 1 1 1 1 1 1 1 1 1 1 1 1 1 1 1 1 1 1 1 1 1 1 1 1 1 1 1 1 1 1 1 1 1" order="42 42" result="filterResult1"/><feComposite in="SourceGraphic" in2="filterResult1" result="filterResult2"/></filter><use ffdec:characterId="21" filter="url(#x)" height="471" transform="matrix(-.1945 0 0 .1945 94.85 112.392)" width="430.85" xlink:href="#y"/><use ffdec:characterId="23" height="53.9" transform="matrix(-.8884 0 0 .8884 112.25 178.15)" width="50.85" xlink:href="#z"/><use ffdec:characterId="25" height="54.1" transform="matrix(-.8884 0 0 .8884 107.85 147.55)" width="39.65" xlink:href="#A"/><use ffdec:characterId="27" height="59.2" transform="matrix(-.8884 0 0 .8884 175.05 182.75)" width="57.3" xlink:href="#B"/><use ffdec:characterId="29" height="55.9" transform="matrix(-.8884 0 0 .8884 102.05 72.55)" width="50.2" xlink:href="#C"/><use ffdec:characterId="31" height="115.2" transform="matrix(-.8884 0 0 .8884 158.15 81.2)" width="91.7" xlink:href="#D"/><use ffdec:characterId="33" height="43.45" transform="matrix(-.8884 0 0 .8884 207.3 92.4)" width="64.9" xlink:href="#E"/><use ffdec:characterId="35" height="93.9" transform="matrix(-.8884 0 0 .8884 208.4 125.2)" width="72" xlink:href="#F"/><use ffdec:characterId="37" height="103.05" transform="matrix(-.8884 0 0 .8884 170.4 22.5)" width="110.25" xlink:href="#G"/><use ffdec:characterId="41" height="13.6" transform="matrix(-.8884 0 0 .8884 127.138 83.25)" width="13.45" xlink:href="#H"/><use ffdec:characterId="43" height="73.55" transform="matrix(-.8884 0 0 .8884 212.25 59.8)" width="81.95" xlink:href="#I"/><use ffdec:characterId="45" height="48.3" transform="matrix(-.8884 0 0 .8884 152.65 155.8)" width="50.9" xlink:href="#J"/><use ffdec:characterId="53" height="134.35" transform="matrix(-.8884 0 0 .8884 276.294 95.85)" width="181.95" xlink:href="#K"/></g><g id="b" fill-rule="evenodd"><path d="M1.1 10.1q8.95-15.85 28.15-6.6 12.9 46.2 44.75 43 55.75-30.85 71.25-11.6-26.85-5.25-75.4 22.35-70 21.6-68.75-47.15" fill="#397db1" transform="translate(.2 -.1)"/><path d="m29.25 3.5 2.7 1.35Q41.1 43.4 75.75 44.3q57.55-39.05 79.8 0-19.1-21.25-84.15 15.35L60.45 62.2Q-3.3 74.4-.05 12.3l1.15-2.2Q-.15 78.85 69.85 57.25q48.55-27.6 75.4-22.35Q129.75 15.65 74 46.5q-31.85 3.2-44.75-43" fill="#0a244e" transform="translate(.2 -.1)"/></g><g id="c" fill-rule="evenodd"><path d="M176 76.8q2.4 3.3-1 7.8-44.45-8.5-52.65-20.6 14.2 11.35 25.7 10.4L176 76.8" fill="#1b326c"/><path d="M123.35 44.05q5.6 25.9 52.65 32.75l-27.95-2.4q-18.6-6.6-25.7-27.55l-1.3-4.25q1.45 1.25 2.3 1.45" fill="#0a234b"/><path d="M152.05 113.65q-15.3 4.35-20.4 29.25-11-10.6-32.05-4.35-16.35 4.65-26.35 19.85-13-13.45-25.7 0-20.65 28.35-1.7 55.85-27.3-14.6-40.35-49.75-10.9-29.05-.2-55.4 10.4-29.4 33.45-52.55L44 51.1l1.05 2.25q-2.7 2.35-5.25 4.8-18.25 17.6-29.6 42.5L7.85 106q-12.7 31.2.5 61.3 10.6 27.8 33.55 43.25-20.3-26.4-26.45-63.9-.5-8.75.25-16.95 2.15-23.95 14.95-43.2Q41.5 67.95 57.05 55l2.7-2.15 2.8.1Q43.25 67.5 29.8 90.8q-9.15 14.95-11.7 33.25-1.75 12.35-.5 26.25 3.85 26.4 19.05 49.15-.65-3.9-.85-7.6-1.3-20.75 9.6-33.25 13.15-13.85 25.55-4.35-7.4-24.45-4.1-52.55l.25-1.75q2.8-23.85 13.5-44.3l3-5.4 2.2-.65q-4 7.15-7.05 14.6-5.1 12.15-7.8 24.9-2.2 10.5-2.8 21.4-1.2 23.25 4.25 42.5-.1-25.15 6.05-49.3v-.1L80 97.8q5.2-21.1 15.75-42.05l2.8-5.35 1.95-.5q-27.45 54.8-26.45 103.75Q95.2 130 127.2 136.6l-2.55-3.85q-20.15-31.45-22.7-67.8-.5-7.6-.3-15.4l2.05-.8q-.4 5.85-.35 11.6.3 22.9 8.7 44.6 6.05 15.6 16.3 30.6-7-16.7-11.5-35.45l-.75-3.4q-4.75-21.9-4.55-41.6.05-6.9.75-13.55l.85-1.75q1.5 8.2 4.25 14.85 2.1 5.1 4.95 9.35 8.2 12.1 52.65 20.6-30.1-3.3-30.35-2.6-21.6-4.85-30.85-32.6-.3 9.55.25 18.9 1.65 28.75 11.4 55.8 2.35 6.55 5.2 13.05 2.4-11.7 10.85-19.15 3.85-3.4 8.95-5.9l1.6 1.55" fill="#092046"/><path d="M114.05 68.3q11.3 11.45 26.75 15.7l1.75 6.6q-1.2 12 7.9 21.5-5.1 2.5-8.95 5.9-8.25-9.6-12.4-28-6.1 17.5-3.65 34.1-9.75-27.05-11.4-55.8" fill="#eee"/><path d="m175 84.6-22.95 29.05-1.6-1.55q-9.1-9.5-7.9-21.5L140.8 84q-15.45-4.25-26.75-15.7-.55-9.35-.25-18.9 9.25 27.75 30.85 32.6.25-.7 30.35 2.6" fill="#9fbcd0"/><path d="M115 4.35q1.1.9 2 2.2 1.6 17.5 6 34.7-2.95.4-5.75-4.6-2.85-8.2-9.1-14.6-12.6 7.8-20.45 4.15l16.5-9.9q7.05-1.9 11.6 1.05l-.8-13M85.4 24.8q-2.55-1.9-4.5-5.3 11.75-4.85 4.5 5.3" fill="#164111"/><path d="m44 51.1-1-2.3q16.2-14.7 36.35-27.6l-.65-2q34.1-31.05 40.05-11.95 1.6 21.2 5.9 33.5.45 3.7-1.3 3.3-.85-.2-2.3-1.45-2.5-2.1-6.6-7.25-.4 2.4-1.3 4.45l-.85 1.75q-2.8 4.7-8.6 7.2l-2.05.8-1.15.35-1.95.5-1.35.3q-4.25.35-6.6-2.9l-4.8 1.8-2.2.65q-10.25 3-21.05 2.7l-2.8-.1q-5.9-.4-12.05-1.7l-2.65 2.2L44 51.1m43.7-24.9q7.85 3.65 20.45-4.15 6.25 6.4 9.1 14.6 2.8 5 5.75 4.6-4.4-17.2-6-34.7-.9-1.3-2-2.2-5.1-4.25-14.35.7Q89.9 11.2 80.9 19.5q1.95 3.4 4.5 5.3 1.05.85 2.3 1.4m9.6 3-1.1-.05q-11.65 1-15.85-5.95l-3.25 1.9-6.7 4.3-7.6 5.4Q55.2 40.5 48.4 47l-2.95 2.9q22.8 4.75 45.55-4.05 1.85-11.6 12.95-15.2 8.45 1.1 3.2 9.4 2.75-9.4-6-6.6-12.6 10.05-6.3 15.85 16.9-2.7 18.75-16.75-1.7-3.95-3.55-6.2-1.4-1.7-2.9-2.4-5.7 5.1-9.85 5.25" fill="#05250b"/><path d="m77.1 25.1 3.25-1.9q4.2 6.95 15.85 5.95l1.1.05q-11.4 3.5-20.2-4.1" fill="#c19d06"/><path d="m115 4.35.8 13q-4.55-2.95-11.6-1.05l-16.5 9.9q-1.25-.55-2.3-1.4 7.25-10.15-4.5-5.3 9-8.3 19.75-14.45Q109.9.1 115 4.35" fill="#64a083"/><path d="M97.3 29.2q4.15-.15 9.85-5.25 1.5.7 2.9 2.4-17.25 5.9-27.3 18.6l-7 2.8 5.55-7.2.2-2q-12 3.6-21.75 10.8L48.4 47q6.8-6.5 14.4-12.2l-3.75 5.95 18.2-10.7-6.85-.65 6.7-4.3q8.8 7.6 20.2 4.1" fill="#f8ef5e"/><path d="M110.05 26.35q1.85 2.25 3.55 6.2-1.85 14.05-18.75 16.75-6.3-5.8 6.3-15.85 8.75-2.8 6 6.6 5.25-8.3-3.2-9.4-11.1 3.6-12.95 15.2-22.75 8.8-45.55 4.05L48.4 47l11.35 2.35q9.75-7.2 21.75-10.8l-.2 2-5.55 7.2 7-2.8q10.05-12.7 27.3-18.6" fill="#ae8506"/><path d="m62.8 34.8 7.6-5.4 6.85.65-18.2 10.7 3.75-5.95m-50.4 70.8q5.1-25 27.3-44.35-17.8 20.5-27.3 44.35" fill="#fff"/><path d="M59.75 52.85 57.05 55 39.8 58.15q2.55-2.45 5.25-4.8l2.65-2.2q6.15 1.3 12.05 1.7M85.8 49.6l4.8-1.8q2.35 3.25 6.6 2.9l1.35-.3-2.8 5.35q-8 .85-17 8.45 3.05-7.45 7.05-14.6" fill="#2349a1"/><path d="M57.05 55Q41.5 67.95 30.65 86.5q-12.8 19.25-14.95 43.2L10.2 154q-9.5-20.6 0-53.35 11.35-24.9 29.6-42.5L57.05 55m21.7 9.2q9-7.6 17-8.45Q85.2 76.7 80 97.8l-1.55 5.8v.1l-6.25 19.6q-2.7-15.15-1.25-34.2 2.7-12.75 7.8-24.9M12.4 105.6q9.5-23.85 27.3-44.35Q17.5 80.6 12.4 105.6" fill="#468bd1"/><path d="M15.7 129.7q-.75 8.2-.25 16.95 6.15 37.5 26.45 63.9Q18.95 195.1 8.35 167.3q-13.2-30.1-.5-61.3l2.35-5.35Q.7 133.4 10.2 154l5.5-24.3" fill="#21418e"/><path d="M80.6 55.65Q69.9 76.1 67.1 99.95l-.25 1.75Q57 117.45 56.9 135.2q-12.55-7.4-19.25-24.6-15 33.05-1.85 81.25.2 3.7.85 7.6-15.2-22.75-19.05-49.15-1.25-13.9.5-26.25l6-18.9q22.3-40.35 56.5-49.5" fill="#f3f5f5"/><path d="m83.6 50.25-3 5.4q-34.2 9.15-56.5 49.5l-6 18.9q2.55-18.3 11.7-33.25 13.45-23.3 32.75-37.85 10.8.3 21.05-2.7" fill="#b4d1df"/><path d="m121.05 42.6 1.3 4.25q-3.85 2.25-4.95 7.8-2.75-6.65-4.25-14.85.9-2.05 1.3-4.45 4.1 5.15 6.6 7.25" fill="#20408d"/><path d="M103.7 48.75q5.8-2.5 8.6-7.2-.7 6.65-.75 13.55-4.5-1.25-8.2 5.25-.05-5.75.35-11.6" fill="#1e3d86"/><path d="M122.35 46.85q7.1 20.95 25.7 27.55-11.5.95-25.7-10.4-2.85-4.25-4.95-9.35 1.1-5.55 4.95-7.8" fill="#3d75c0"/><path d="m100.5 49.9 1.15-.35q-.2 7.8.3 15.4-18.3 21.3-19.85 54.65l3.8 19.3q8.45-18.65 11.35-42.2 8.35 29.35 27.4 36.05l2.55 3.85q-32-6.6-53.15 17.05-1-48.95 26.45-103.75" fill="#a8c6d7"/><path d="m116.1 96.7.75 3.4q4.5 18.75 11.5 35.45-10.25-15-16.3-30.6l5.55 8.2-1.5-16.45" fill="#1a3068"/><path d="M111.55 55.1q-.2 19.7 4.55 41.6l1.5 16.45-5.55-8.2q-8.4-21.7-8.7-44.6 3.7-6.5 8.2-5.25" fill="#3b71bd"/><path d="M125.45 124.1Q123 107.5 129.1 90q4.15 18.4 12.4 28-8.45 7.45-10.85 19.15-2.85-6.5-5.2-13.05" fill="#9ab7cd"/><path d="M124.65 132.75q-19.05-6.7-27.4-36.05-2.9 23.55-11.35 42.2l-3.8-19.3q1.55-33.35 19.85-54.65 2.55 36.35 22.7 67.8" fill="#eff0f0"/><path d="M78.45 103.7Q72.3 127.85 72.4 153q-5.45-19.25-4.25-42.5.6-10.9 2.8-21.4-1.45 19.05 1.25 34.2l6.25-19.6" fill="#1a316b"/><path d="M66.85 101.7q-3.3 28.1 4.1 52.55-12.4-9.5-25.55 4.35-10.9 12.5-9.6 33.25-13.15-48.2 1.85-81.25 6.7 17.2 19.25 24.6.1-17.75 9.95-33.5" fill="#9bb8ce"/></g><g id="d" fill-rule="evenodd"><path d="m74.95 41.45 3.5 3.55-14.5-1.55q2.45 3.05 5.6 5.3 2.25 1.55 4.85 2.7 2.95 1.25 6.4 1.95l-1.35-2.85 5.35 3.65q-13.75 2.95-22.4-7.9.5-10.9-10.05-12.9-9.8 3.1-4.85 10.95-1.55-6 3.2-8.15 7.15-1.7 9.3 5.3 2.1 9.45-8.9 9.2-9.45.8-11.7-8-.75-11.95 11.15-12.4l3.3.2q8.3 5.75 17.1 13.5l4-2.55" fill="#9b6b05"/><path d="m76.05 40.7-1.1.75-4 2.55q-8.8-7.75-17.1-13.5l-3.95-2.6q-2.4-1.55-4.8-2.95L42 30.1l-5.85 9.8-3.1 5.2H21.9l6.35-18.4Q34.35-.55 48.8 0q9.65 2.1 16.45 15.55 6.8 15.6 15.95 21.9l-5.15 3.25M42.1 2.9Q34 7.1 30.2 26.35L24.6 42.8l8.8-.9 10.05-17.3-2.2-3.5q14.5 7.75 29.8 20.8l7.3-4.7q-5.75-5.3-10.8-13-1.7-3.95-3.55-7.25v-.05Q58.75 7.4 52.45 2.85 46.6.55 42.1 2.9" fill="#05200c"/><path d="m74.95 41.45 1.1-.75L91.5 56.5H88l-2.25.15q-6.95.3-13.05-1.55l-3.8-1.45-2.15-1.05-2.2-1.25-3.25-2.3q-3.85 2.1-7.15 3l-2.1.45-2.55.2-1.65-.15q-5.55-.75-9-6.45l-1.45-2.8-1.25-3.4L42 30.1q3.65-2.9 7.9-2.2l3.95 2.6-3.3-.2q-11.9.45-11.15 12.4 2.25 8.8 11.7 8 11 .25 8.9-9.2-2.15-7-9.3-5.3-4.75 2.15-3.2 8.15-4.95-7.85 4.85-10.95 10.55 2 10.05 12.9 8.65 10.85 22.4 7.9l1.35-.35 2.05 1.2L78.45 45l-3.5-3.55" fill="#7a3204"/><path d="m78.45 45 9.75 10.05-2.05-1.2-1.35.35-5.35-3.65 1.35 2.85q-3.45-.7-6.4-1.95l2.75-2.3-7.6-3.75v3.35q-3.15-2.25-5.6-5.3L78.45 45" fill="#f6e745"/><path d="M69.55 48.75V45.4l7.6 3.75-2.75 2.3q-2.6-1.15-4.85-2.7M44.3 6.5q1.2-.8 2.9-.8 1.65 0 2.85.8 1.2.8 1.2 1.9 0 1.15-1.2 1.95t-2.85.8q-1.7 0-2.9-.8-1.15-.8-1.15-1.95 0-1.1 1.15-1.9" fill="#fff"/><path d="M64 16.95q1.85 3.3 3.55 7.25 5.05 7.7 10.8 13l-7.3 4.7q-15.3-13.05-29.8-20.8l2.2 3.5L33.4 41.9l-8.8.9 5.6-16.45Q34 7.1 42.1 2.9q-4.65 10.35 4.1 12.2l7.35 8.1q6.5 8.45 14.85 14.8l6.15-2.3Q66.9 27.15 64 16.95" fill="#13340e"/><path d="m89.6 61.55 11.2 14.3q7.65 10.85 12.7 22.1l1.9 30.1-8.1-17.5-.05-.2Q94.8 79.2 75.2 58.35q7.2-.6 14.4 3.2M71.65 80.8l-1.5 25.15-6.05-17.5-.95-5.05Q60.25 70 56 57.25q5.05-1.7 10.5.25 3.4 11.55 5.15 23.3M38.6 56.25q4.7-2.7 9.1-1.75l-.65 8.55q-.5 17.65-4.55 32.4l-5.75 5.8v-17.6q1.35-12.4 1.85-27.4" fill="#4486cc"/><path d="m37.4 43.3 1.45 2.8-.25 10.15q-.5 15-1.85 27.4-3.05 28.2-10.55 43.1l.3 1.55q10.85-14.1 16-32.85 4.05-14.75 4.55-32.4l.65-8.55.15-1.95 1.65.15q.05 20.25-3.65 36.95-4.8 21.95-16.05 37.65 3.35-.95 6.5-1.45l9.6-.5q15.25 1.1 22.65 15.5L66 114.25q-.85-9.35-2.35-18.4-3.75-22.6-11.6-43.35l2.1-.45 1.85 5.2Q60.25 70 63.15 83.4l.95 5.05q4.95 26.7 5.95 52 5.9-30.55 1.6-59.65-1.75-11.75-5.15-23.3l-1.95-6.15 2.2 1.25q5 14.4 7 30.05 3.65 27.9-2 59.85 5.1-4.55 11.05-5.15l4.1.1q4.05.45 8.55 2.65 13.85 6.3 14.55 26.3 9-36.3-14.5-76.85-8.3-14.4-20.75-29.35l-5.85-6.55 3.8 1.45 2.5 3.25q19.6 20.85 32.05 52l.05.2q2.85 7.1 5.35 14.8 4.75 27.75-3.55 50.8 16.6-19.05 12.7-49.95-2.15-14.4-8.3-28.25-5.05-11.25-12.7-22.1l-11.2-14.3-3.85-4.9L88 56.5q62.95 71.05 18.85 126.95 5.1-31.6-10.5-41.15-17.5-7.6-26.5 6.35-12-31.3-44.45-17.5-4.4-20.15-18-26.2l.65-1.25q13.05 6.35 17.25 19.6l.45 1.6q9.1-17.25 10.8-62.85l.35-12.7q-5.85 12.4-14.55 18-6 3.8-13.3 4.4l-.65-1.8Q21.1 67.9 29.05 58.6q2.95-3.5 5.25-8 1.75-3.35 3.1-7.3" fill="#122f5d"/><path d="M38.85 46.1q3.45 5.7 9 6.45l-.15 1.95q-4.4-.95-9.1 1.75l.25-10.15m15.3 5.95q3.3-.9 7.15-3l3.25 2.3 1.95 6.15q-5.45-1.95-10.5-.25l-1.85-5.2M72.7 55.1q6.1 1.85 13.05 1.55l3.85 4.9q-7.2-3.8-14.4-3.2l-2.5-3.25" fill="#1b3370"/><path d="m64.1 88.45 6.05 17.5 1.5-25.15q4.3 29.1-1.6 59.65-1-25.3-5.95-52" fill="#1a3068"/><path d="m66.75 52.6 2.15 1.05 5.85 6.55Q87.2 75.15 95.5 89.55l8.4 40.05q-3.95-14.9-11.5-28.55-.35 20.45-5.5 36.4l-4.1-.1q.6-28.85-9.05-54.7-2-15.65-7-30.05" fill="#f0f0f0"/><path d="M82.8 137.35q-5.95.6-11.05 5.15 5.65-31.95 2-59.85 9.65 25.85 9.05 54.7" fill="#9cb9ce"/><path d="M86.9 137.45q5.15-15.95 5.5-36.4 7.55 13.65 11.5 28.55l-8.4-40.05Q119 130.1 110 166.4q-.7-20-14.55-26.3-4.5-2.2-8.55-2.65" fill="#a1bed2"/><path d="m107.3 110.55 8.1 17.5-1.9-30.1q6.15 13.85 8.3 28.25 3.9 30.9-12.7 49.95 8.3-23.05 3.55-50.8-2.5-7.7-5.35-14.8" fill="#1d397c"/><path d="M42.1 2.9q4.5-2.35 10.35-.05Q58.75 7.4 64 16.9v.05q2.9 10.2 10.55 18.75L68.4 38q-8.35-6.35-14.85-14.8l-7.35-8.1q-8.75-1.85-4.1-12.2m2.2 3.6q-1.15.8-1.15 1.9 0 1.15 1.15 1.95 1.2.8 2.9.8 1.65 0 2.85-.8 1.2-.8 1.2-1.95 0-1.1-1.2-1.9-1.2-.8-2.85-.8-1.7 0-2.9.8" fill="#598a71"/><path d="M49.9 27.9q-4.25-.7-7.9 2.2l3.1-5.15q2.4 1.4 4.8 2.95" fill="#143c10"/><path d="m36.15 39.9 1.25 3.4q-1.35 3.95-3.1 7.3l-8.15-1.5q.85-1.9 1.3-4h5.6l3.1-5.2" fill="#1e3c84"/><path d="m49.5 52.7 2.55-.2q7.85 20.75 11.6 43.35l-1.6 12.4-5.15-14.1q-2.3 21.6-11 31.2l-9.6.5q8.95-16.9 9.55-36.2 3.7-16.7 3.65-36.95" fill="#f2f4f4"/><path d="M25.9 45.1h1.55q-.45 2.1-1.3 4Q22 58.3 8.5 61.7l-7.25 1.35L0 61.2q21.35-1.85 25.9-16.1" fill="#0c2959"/><path d="M8.4 69.95 7.2 67.2H3.7l-2.45-4.15L8.5 61.7q8.65 2.45 20.55-3.1Q21.1 67.9 8.4 69.95" fill="#1f3d87"/><path d="m26.15 49.1 8.15 1.5q-2.3 4.5-5.25 8-11.9 5.55-20.55 3.1Q22 58.3 26.15 49.1" fill="#4487cd"/><path d="M11.65 90.9q.95-9.2-2.6-19.15 7.3-.6 13.3-4.4l14.2-5.3q-1.7 45.6-10.8 62.85l-.45-1.6q3.45-17.95 0-37.4l-13.65 16.9V90.9" fill="#efefef"/><path d="M8.05 103.7q2.95-6.2 3.6-12.8v11.9L25.3 85.9q3.45 19.45 0 37.4-4.2-13.25-17.25-19.6m37.85 21.65q8.7-9.6 11-31.2l5.15 14.1 1.6-12.4q1.5 9.05 2.35 18.4l2.55 26.6q-7.4-14.4-22.65-15.5" fill="#9ab7cd"/><path d="M42.5 95.45q-5.15 18.75-16 32.85l-.3-1.55q7.5-14.9 10.55-43.1v17.6l5.75-5.8" fill="#1a316a"/><path d="M36.3 125.85q-3.15.5-6.5 1.45 11.25-15.7 16.05-37.65-.6 19.3-9.55 36.2" fill="#9bb8ce"/></g><g id="e" fill-rule="evenodd"><path d="m24.25 5.75 1.95.5Q24.05 26.1 27.55 35.6l-1.9.35q-.9-3.7-1.45-7.55-1.5-10.9.05-22.65M4.5 39.9Q-1.05 20.65.25 0H2q.2 20.65 4.1 39.65l-1.6.25" fill="#0f2345"/><path d="M20.45 42.35 4.7 46.45v-5.8l14.55-2.25 1.2 3.95m5.55-5 1.2-.2 3.4 2.5L25.5 41l.5-3.65m19.05 28.1L46.7 71q-18.05-9.35-33.55-8.75l-3.8-5.9q4.35-1.3 10.15-.8v4.3l25.55 5.6" fill="#a07205"/><path d="m25.65 35.95 1.9-.35 5.65 4.2-1.25.6-1.4.65Q19.75 46 7.7 47.4l-2.4.2-2.45.2.65-7.7 1-.2 1.6-.25 15.4-2.9 4.15-.8M43.8 61.2l1.8.85L50 75.3l-2.4-1.55Q31 63.5 12.5 64.05l-1.2.05-5.5-6.9q1-1.9 2.8-3 .85-.5 1.85-.85 4.65-1.55 13 .4 5.1 1.2 11.55 3.7L41.15 60l2.65 1.2M19.25 38.4 4.7 40.65v5.8l15.75-4.1L25.5 41l5.1-1.35-3.4-2.5-1.2.2-2.15.3-3.15.5-1.45.25m.25 17.15q-5.8-.5-10.15.8l3.8 5.9q15.5-.6 33.55 8.75l-1.65-5.55-.85-2.9q-14.55-6.15-24.7-7" fill="#763307"/><path d="m20.45 42.35-1.2-3.95 1.45-.25v2.6h3.2l-.05-3.1 2.15-.3-.5 3.65-5.05 1.35m24.6 23.1-25.55-5.6v-4.3q10.15.85 24.7 7l.85 2.9" fill="#f7eb4f"/><path d="m20.7 38.15 3.15-.5.05 3.1h-3.2v-2.6" fill="#fff"/><path d="M24.25 5.75Q22.7 17.5 24.2 28.4l-3.35-2.65.65 11-15.4 2.9Q2.2 20.65 2 0l22.25 5.75" fill="#3775a9"/><path d="M24.2 28.4q.55 3.85 1.45 7.55l-4.15.8-.65-11 3.35 2.65" fill="#83dffa"/><path d="M31.95 40.4q8 7.95 11.85 20.8L41.15 60q-3.2-10.3-10.6-18.95l1.4-.65M8.6 54.2l-3.3-6.6 2.4-.2 2.75 5.95q-1 .35-1.85.85" fill="#112d58"/><path d="M30.55 41.05q7.4 8.65 10.6 18.95L35 57.45l-5.15-12.5-9.15 2.15 2.75 6.65q-8.35-1.95-13-.4L7.7 47.4q12.05-1.4 22.85-6.35" fill="#153917"/><path d="M23.45 53.75 20.7 47.1l9.15-2.15L35 57.45q-6.45-2.5-11.55-3.7" fill="#568787"/><path d="M50 75.3q17 33.3-7.35 38.05 1.65-8.15-1.75-15.6l-9.3 2-10.1 10.15V96.1l-4.1-10.15q-4.55.9-10.8-2.1l4.7-11.3q-2.45-3.4 0-8.45l1.2-.05q-2.75 5.3-.2 7.4l3.6-5.8q9.8-1.2 10.95 9.1-2.45 8.55-7.8 10.7l4.2 9.8V106l9.4-11.1v2.85l7.7-2.2-1.4-2.75Q27.3 95.9 23.35 88q6.25 5.05 14.75 3.05l-2.25-4.45Q39 78.9 47.6 73.75L50 75.3m-1.1 1.3q-7.55 1.5-10.65 10.3 9.9 15 6.15 24.1 19.15-5.15 4.5-34.4m-40 6.35q12.4 5 16.2-8.75-1.2-8.35-8-7L8.9 82.95" fill="#0a2551"/><path d="M47.6 73.75Q39 78.9 35.85 86.6l2.25 4.45q-8.5 2-14.75-3.05 3.95 7.9 15.6 4.8l1.4 2.75-7.7 2.2V94.9l-9.4 11.1V95.25l-4.2-9.8q5.35-2.15 7.8-10.7-1.15-10.3-10.95-9.1l-3.6 5.8q-2.55-2.1.2-7.4 18.5-.55 35.1 9.7m1.3 2.85q14.65 29.25-4.5 34.4 3.75-9.1-6.15-24.1 3.1-8.8 10.65-10.3m-40 6.35 8.2-15.75q6.8-1.35 8 7-3.8 13.75-16.2 8.75" fill="#7fdcf9"/></g><g id="g" fill-rule="evenodd"><path d="m34.7 15.9.7 2.25Q13 20.8 27.5 31.65 50 34.25 50.85 53.9L38.9 49.7v3.85q-8.15-2.35-17.4-1.3l-1.55-3.3-12.7-2.85Q5.55 30.6 0 17.7 10.8 14.65 10.4.95l2.1-.5Q13.05 15.1 2.1 18.8q5.8 13.45 6.7 25.65l11.15 2.45q-.2-2.25 0-3.95.65-6.3 6.7-5.5V32.5q-6.9-5.3-6.3-9.15.75-5 14.35-7.45m-8.8 23.3-2.55-.1q-1.4 1.55-2.1 3.05-2 4.3 2.1 7.9l13.4 1.35Q34.9 40.3 25.9 39.2m12.25-2.65Q34.1 34.3 28.6 33.2v4.35q1.65.45 3 1.15 5.25 2.7 6.2 8.95l11 3.5q-2-9.8-10.65-14.6" fill="#092047"/><path d="M20.35 23.35q-.6 3.85 6.3 9.15V35l-6.7-3.45v11.4L11.4 41.6Q6.7 29.5 8.15 20.25l5.8 2.3 4.7 7.35q1.9-1.6-1.2-6.55h2.9" fill="#7ddbf9"/><path d="M34.7 15.9q-13.6 2.45-14.35 7.45h-2.9q3.1 4.95 1.2 6.55l-4.7-7.35-5.8-2.3Q6.7 29.5 11.4 41.6l8.55 1.35q-.2 1.7 0 3.95L8.8 44.45q-.9-12.2-6.7-25.65Q13.05 15.1 12.5.45 28.55-2.6 34.7 15.9" fill="#3570a5"/><path d="M21.25 42.15q.7-1.5 2.1-3.05l2.55.1 5.9 6.45h-8l-2.55-3.5M31.6 38.7q-1.35-.7-3-1.15V33.2q5.5 1.1 9.55 3.35l3.6 6.4L31.6 38.7" fill="#eee"/><path d="m21.25 42.15 2.55 3.5h8l-5.9-6.45q9 1.1 10.85 12.2l-13.4-1.35q-4.1-3.6-2.1-7.9M31.6 38.7l10.15 4.25-3.6-6.4q8.65 4.8 10.65 14.6l-11-3.5q-.95-6.25-6.2-8.95" fill="#9ab7cd"/><path d="M26.65 35v2.45q-6.05-.8-6.7 5.5v-11.4l6.7 3.45" fill="#346ca0"/></g><g id="h" fill-rule="evenodd"><path d="m16.55 3.15.1-1.4.9-1.75 3.5 10.05-.65 2.25-3.85-9.15" fill="#0a244f"/><path d="M20.4 12.3q-3.7 11.6-11.5 16 5.95-8 7.65-25.15l3.85 9.15" fill="#387aae"/><path d="m18.05 8.85.35-1.25q12.7 10 17.85 22.4 3.3 7.95 3.4 16.85-1.15 12.9-21.25 2.85L0 35.9l1.2-.75Q35 61.25 37.8 47q.25-9.35-4.4-18.65-4.9-9.8-15.35-19.5" fill="#091f45"/><path d="M1.2 35.15Q-1.75 27.2 5 16.2l5.75 12.7L24.1 41.6q-8.2-.1-15.55-8.45l-2.2 2.3q8.9 8.75 18.55 12.95 14.15 2.25 8.5-20.05 4.65 9.3 4.4 18.65Q35 61.25 1.2 35.15" fill="#3774a8"/><path d="m5 16.2 13.05-7.35q10.45 9.7 15.35 19.5 5.65 22.3-8.5 20.05-9.65-4.2-18.55-12.95l2.2-2.3Q15.9 41.5 24.1 41.6L10.75 28.9 5 16.2" fill="#80dcf9"/></g><g id="i" fill-rule="evenodd"><path d="m48.2 4 1.45 2.6q-4.85 18.95-2.6 25.35Q59.05 43.4 57 58q-5-5.15-14.45-6.25v-1H37.5q-4.5 1.95-9.85 0L12.4 59.2v-8.55q-6.95 1.4-12.4 8 3.45-26.7 23.8-30.25 6.65-7.85 7.35-22.45l1.7-1.55q-.6 13.4-5.75 23.8 12.55 7 11.3 20.7h3.25q-1.4-7.4.05-12.05 1-3.15 3.25-5.05Q43.9 18.75 48.2 4m-33 31.05-1.05-1.35q-8.6 7.8-11.3 19.7l9.65-4.7q.3-3.35 1.5-6.9.85-2.65 2.25-5.4l-1.05-1.35m3.9-3.15-3.3 1.25 1.4 1.95 1.9-3.2m7.4-1.45-2.25-.4q-9.8 8.2-10.65 26.55l13.05-7.35h9.65l-.2-4.85q-1.15-11.9-9.6-13.95m23.4 6.85-3.75-4.5q-3.75 4.7-3.45 10.85.2 3.1 1.35 6.6 6.3.3 11.4 4.7.4-9.3-5.55-17.65" fill="#092148"/><path d="M48.2 4q-4.3 14.75-3.25 27.8-3.2-14.2.4-30.75 1.55 1 2.85 2.95m-6.5 32.85q-1.45 4.65-.05 12.05H38.4q1.25-13.7-11.3-20.7 5.15-10.4 5.75-23.8 4.6-4.05 8.3-4.35Q39.85 21.1 31.9 27q5.15 4.75 7.45 11.2l2.35-1.35" fill="#346ea2"/><path d="M14 41.8q-1.2 3.55-1.5 6.9l-9.65 4.7q2.7-11.9 11.3-19.7l1.05 1.35-4.9 6.5 3.7.25m22.1 2.6.2 4.85h-9.65L13.6 56.6q.85-18.35 10.65-26.55l2.25.4q-6.55 8.05-7 18.7 6.75-5.45 16.6-4.75m6.6-.75 10.5 4.8-3.3-11.15q5.95 8.35 5.55 17.65-5.1-4.4-11.4-4.7-1.15-3.5-1.35-6.6" fill="#9cb9ce"/><path d="m15.2 35.05 1.05 1.35q-1.4 2.75-2.25 5.4l-3.7-.25 4.9-6.5m3.9-3.15-1.9 3.2-1.4-1.95 3.3-1.25m17 12.5q-9.85-.7-16.6 4.75.45-10.65 7-18.7 8.45 2.05 9.6 13.95m6.6-.75q-.3-6.15 3.45-10.85l3.75 4.5 3.3 11.15-10.5-4.8" fill="#eeefef"/><path d="M44.95 31.8q-2.25 1.9-3.25 5.05l-2.35 1.35q-2.3-6.45-7.45-11.2 7.95-5.9 9.25-26.95 2.25-.2 4.2 1-3.6 16.55-.4 30.75" fill="#81daf9"/></g><g id="j" fill-rule="evenodd"><path d="m32.25 33.5 1.6 1.8Q17.3 30.45 8.25.95L9.5.5q8.85 26.85 22.75 33M3.15 4.65l.4-.45 15.8 27.3-2.65-1.7L3.15 4.65" fill="#06280c"/><path d="m38.65 42 2.9.75-1.85-8.1-7.45-1.15Q18.1 17.4 20.8 8.6q13.9 11.2 21.5 24.9l2.8 14-3.65 1.6q-1-4-2.8-7.1" fill="#507862"/><path d="m32.25 33.5 7.45 1.15 1.85 8.1-2.9-.75q-1.35-2.35-3.1-4.2l-.8-1.5-.9-1-1.6-1.8m7.45 7.3q-.05-7.15-3.95-5.3.85 3.2 3.95 5.3" fill="#05240b"/><path d="M42.3 33.5Q34.7 19.8 20.8 8.6 15.6 4.4 9.5.5l2.15-.5Q44.5 22 50.2 48.9q-7.35 6-17.3 7l3.5-5.5-2.05-3.15Q28.2 52 21.3 51.3l1.5-5.5Q6.15 43.95 0 15.45l.05-1.5q4 13.4 10.6 22.75l2.3-2.4.55 1.75q.6 1.85 1.35 3.25 1.1 2 2.5 2.9 2.35 1.5 5.45-.35 1.6 3.45 1.6 6.4l-.05 1.3 1.45-.05q6.1-.4 9.95-6.3v2.75l2.2 2.6-1.75 5.4q3.15-.55 5.95-1.75l3.5-1.9q1.5-.95 2.8-2.05l-.55-1.95q-2.2-6.65-5.6-12.8" fill="#7a3304"/><path d="M20.8 8.6q-2.7 8.8 11.45 24.9Q18.35 27.35 9.5.5q6.1 3.9 11.3 8.1M.7 9.75q.75-3 2.45-5.1L16.7 29.8l-1.85-1.3q-1.25 4.15-.6 8.3l-.75-.75-.55-1.75Q5.45 24.95.7 9.75" fill="#14380f"/><path d="m33.85 35.3.9 1q-8.45-.85-15.4-4.8L3.55 4.2Q5.4 2.1 8.25.95q9.05 29.5 25.6 34.35" fill="#13360e"/><path d="m34.75 36.3.8 1.5q-5.85-1.5-3.65 6.6l-3.3 2.8-3.15.35V42.4l-1.3-.3q-.9-3-3.5-5.5-4.95-3.35-4.15 2l-2.25-1.8q-.65-4.15.6-8.3l1.85 1.3 2.65 1.7q6.95 3.95 15.4 4.8" fill="#4d735d"/><path d="M.05 13.95q.15-2.3.65-4.2 4.75 15.2 12.25 24.55l-2.3 2.4Q4.05 27.35.05 13.95m17.3 28.25-.85-3.6q3.4 2.45 7.65 3.5.85 2.85.25 6.15 0-2.95-1.6-6.4-3.1 1.85-5.45.35" fill="#a47605"/><path d="m24.15 42.1 1.3.3v5.15l3.15-.35-2.8 2.3-1.45.05.05-1.3q.6-3.3-.25-6.15" fill="#fff"/><path d="M16.5 38.6q-.8-5.35 4.15-2 2.6 2.5 3.5 5.5-4.25-1.05-7.65-3.5" fill="#13350e"/><path d="m14.25 36.8 2.25 1.8.85 3.6q-1.4-.9-2.5-2.9l-.6-2.5" fill="#f7eb4f"/><path d="m25.8 49.5 2.8-2.3q3.45-.95 7.15-4-3.85 5.9-9.95 6.3" fill="#9b6a05"/><path d="M38.65 42q1.8 3.1 2.8 7.1l-1.2.55-4.5-6.45q-3.7 3.05-7.15 4l3.3-2.8q-2.2-8.1 3.65-6.6 1.75 1.85 3.1 4.2m6.45 5.5-2.8-14q3.4 6.15 5.6 12.8l-2.8 1.2" fill="#12310d"/><path d="M39.7 40.8q-3.1-2.1-3.95-5.3 3.9-1.85 3.95 5.3" fill="#f7ea4a"/><path d="m35.75 43.2 4.5 6.45 1.2-.55.7 3.1q-2.8 1.2-5.95 1.75l1.75-5.4-2.2-2.6V43.2" fill="#996705"/><path d="m41.45 49.1 3.65-1.6.55 2.8-3.5 1.9-.7-3.1" fill="#f7e947"/><path d="m45.65 50.3-.55-2.8 2.8-1.2.55 1.95q-1.3 1.1-2.8 2.05" fill="#986705"/></g><g id="k" fill-rule="evenodd"><path d="m46.4 113.45-14.5-23.9L70.7 83l-2.45 22.8-8.2 3.7-2.95-1.3-10.7 5.25" fill="#3b80b5"/><path d="m46.4 113.45 10.7-5.25 2.95 1.3-12.6 5.7-1.05-1.75" fill="#0a2653"/><path d="m14.05 42.8-.45-1.35 10.5 2.3 10.5 18.1L44.7 64l.7 1.1 5.1 8 2.6 1.45 8.6 4.8 1.45-1.5 6.55-6.8 1.4-6.95 5.4-4.35.2-35.05q2.4 15.15 1.45 36.25v9.1l-2.55 1.3-1.4 3.35-.9 1.75-3.35 5.35q-3.6 4.95-8.6 9.05l-19.3-11.6-3.15-8-10.3-1.4q-6.6-5.3-12.85-22.1l-1.7-4.95M34.5 63.65l-1.55-.4-9.6-17.4-7.15-2.1L28.55 67.6l3.75.8 8 1.65 4.1 8.2L61.6 88.7l.75-1.15L74.1 70.8l2.6-1.95v-5.9l-4.4 2.4-1.2 7.1-9.2 8.45-1.5-.7-2.15-1.05-6.35-3L49.5 75l-5-8.15-.55-.95-1.7-.4-1.5-.35-6.25-1.5" fill="#823604"/><path d="m32.3 68.4-3.75-.8L16.2 43.75l7.15 2.1 9.6 17.4 1.55.4-2.2 4.7v.05" fill="#ad8106"/><path d="m14.05 42.8 1.7 4.95q3.45 16.6 13.7 27.45L25.4 89.75l-1.3-.85 3.85-12.95q-13.5-15.3-13.9-33.15" fill="#0c2b5e"/><path d="m44.9 39.3-2.5 1.8 19.95-2.85-.75-1.8-2.95-7.3-11.15 8.2-2.6 1.95m10.35 10.8 6.2 4.7q1.7-7.45 1.35-14.9l-19.95 2.95 6.75 3.7 5.65 3.55m-9.4-13.6 12.65-9.2 14.6 15.25L62.9 58q-10.6-8.65-25.2-15.55l8.15-5.95m17.35-.1.7 1.65 5.45 2.4-3.95-4.15-3.95-4.15 1.75 4.25m1.25 3.75L63.2 53.7 71 42.55l-6.55-2.4" fill="#90128d"/><path d="m40.75 65.15 1.5.35-1.05 2.85h-2.55l2.1-3.2m17.5 14 2.15 1.05-.3 5.85-2.15-1.45.3-5.45m3.35-42.7.75 1.8L42.4 41.1l2.5-1.8 11.75-2 4.95-.85" fill="#fff"/><path d="m44.9 39.3 2.6-1.95 8.85-1.7.3 1.65-11.75 2m10.35 10.8-5.65-3.55 8.15-4.1-2.5 7.65" fill="#eaa5d6"/><path d="m49.6 46.55-6.75-3.7L62.8 39.9q.35 7.45-1.35 14.9l-6.2-4.7 2.5-7.65-8.15 4.1" fill="#8c27c1"/><path d="m76.7 24.7-.2 35.05-5.4 4.35-1.4 6.95-6.55 6.8L62.9 58l10.2-15.45L58.5 27.3l-12.65 9.2q-7.2-1.9-10.9-6.7l1.75 16.8h5.35L34.6 61.85l-10.5-18.1-10.5-2.3Q5.55 10 31.35 0L71.2 5.25q3.7 8.1 5.5 19.45M53.1 74.55l-2.6-1.45-5.1-8 11.05-11.15-3.35 20.6" fill="#153e10"/><path d="m47.5 37.35 11.15-8.2 2.95 7.3-4.95.85-.3-1.65-8.85 1.7m17.9-1.05-2.2.1-1.75-4.25 3.95 4.15" fill="#8b27bf"/><path d="m34.5 63.65 6.25 1.5-2.1 3.2H32.3l2.2-4.7m7.75 1.85 1.7.4.55.95-2.2 1.5h-1.1l1.05-2.85" fill="#f8ef5a"/><path d="m63.15 77.85-1.45 1.5-8.6-4.8 3.35-20.6L45.4 65.1l-.7-1.1-10.1-2.15 7.45-15.25H36.7l-1.75-16.8q3.7 4.8 10.9 6.7l-8.15 5.95Q52.3 49.35 62.9 58l.25 19.85" fill="#598a71"/><path d="m63.2 36.4 2.2-.1 3.95 4.15-5.45-2.4-.7-1.65" fill="#e99dd2"/><path d="m64.45 40.15 6.55 2.4-7.8 11.15 1.25-13.55" fill="#8926bd"/><path d="m44.5 66.85 5 8.15 2.4 1.15-1.5 3.45 7.55 5 2.15 1.45 2.25 1.5-.45-6.65 9.2-8.45 1.2-7.1 4.4-2.4v5.9l-2.6 1.95-11.75 16.75-.75 1.15-17.2-10.45-4.1-8.2-8-1.65v-.05h10l2.2-1.5" fill="#a37605"/><path d="m69.95 81.8 3.35-5.35-.1 1.4Q71.5 95 65.55 103q-1.75 2.4-3.95 4 2.25-3.25 3.9-6.7 4.1-8.6 4.45-18.5" fill="#0a2551"/><path d="m51.9 76.15 6.35 3-.3 5.45-7.55-5 1.5-3.45m8.5 4.05 1.5.7.45 6.65-2.25-1.5.3-5.85" fill="#f7ee57"/><path d="m36.65 96.95 6.05-4.55q-1.2-6.15-7.55-6.8-8.2.3-3.4-9.85v-2q6.15-1.85 10.3 7.9L56 91.4l2.7 9.65q4.25-3.75 1.55-8.3l5.25 1.95v5.6q-5.65 7.75-14.6 5.8l-14.25-9.15" fill="#99e7fb"/><path d="M15.75 47.75Q22 64.55 28.6 69.85l10.3 1.4 3.15 8 19.3 11.6q5-4.1 8.6-9.05-.35 9.9-4.45 18.5v-5.6l-5.25-1.95q2.7 4.55-1.55 8.3L56 91.4l-13.95-9.75q-4.15-9.75-10.3-7.9v2q-4.8 10.15 3.4 9.85 6.35.65 7.55 6.8l-6.05 4.55-11.25-7.2 4.05-14.55Q19.2 64.35 15.75 47.75" fill="#4090c2"/><path d="M50.9 106.1q8.95 1.95 14.6-5.8-1.65 3.45-3.9 6.7-2.45 1.75-5.4 2.5l-5.3-3.4" fill="#3b7fb3"/><path d="M81 49.25q-5.7-7.55-6.15-19.75-1.15 4.1-1.55 8.05-1.5 14.45 6.6 26.9 5.85-1.45 9.85-7.9-5.3-2.8-8.75-7.3m-4.5-16.7q1.5 15.9 13.25 21.8-5-10.9-13.25-21.8m-46.8-5.7q-4.8 4.7-9.65 7.75-9.35 5.95-18.95 6.05-.95 22.85 17.2 23.7 24.05-15.3 13.45-34Q33.5 51.1 6 54.05l3.8-1.2.1-.05q24.65-8.55 19.8-25.95M1.1 40.65l.55-1.95q19.15-3.25 27.6-16.45Q48.75 47.8 19.8 67.4-4.7 64.25 1.1 40.65m74.2-16.4 16.4 30.7q-1.65 9.85-11.6 12.9Q66.3 50 75.3 24.25" fill="#7a3304"/><path d="M81 49.25q-5.35-1.65-7.7-11.7.4-3.95 1.55-8.05.45 12.2 6.15 19.75M9.9 52.8q18.8-9.15 19.8-25.95 4.85 17.4-19.8 25.95" fill="#fff"/><path d="M73.3 37.55q2.35 10.05 7.7 11.7 3.45 4.5 8.75 7.3-4 6.45-9.85 7.9-8.1-12.45-6.6-26.9" fill="#a07205"/><path d="M76.5 32.55q8.25 10.9 13.25 21.8Q78 48.45 76.5 32.55" fill="#f7eb4d"/><path d="M29.7 26.85q-1 16.8-19.8 25.95l-.1.05-3.8 1.2q9.85-9.7 14.05-19.45 4.85-3.05 9.65-7.75" fill="#f7ee57"/><path d="M20.05 34.6Q15.85 44.35 6 54.05q27.5-2.95 25.75-23.7 10.6 18.7-13.45 34Q.15 63.5 1.1 40.65q9.6-.1 18.95-6.05" fill="#ac8106"/></g><g id="l" fill-rule="evenodd"><path d="m63.15 16.15 1.75 2.45q-1.75 10.5-6.6 16.65-5.45 6.8-14.7 8.2l-5.15-.1q20.6-2.25 24.7-27.2M11.3 42.65l-2.45-.05Q3.15 33.25 0 22.2l2.1-2.25 9.2 22.7" fill="#0c2753"/><path d="M63.15 16.15q-4.1 24.95-24.7 27.2l-2.6-.1-14.25-9.2-5.05 8.75-5.25-.15-9.2-22.7q36-37.85 61.05-3.8M40.9 34.7l.4 5.7 7.05-8.35-7.45 2.65" fill="#3c83b6"/><path d="m35.85 43.25-19.3-.45 5.05-8.75 14.25 9.2m5.05-8.55 7.45-2.65-7.05 8.35-.4-5.7" fill="#78c7f9"/></g><g id="m" fill-rule="evenodd"><path d="M27.4 25.3q12.15-1.95 20.85-8.95l-2.05-5.7-1.85 1q-3.25 1.8-6.6 3.2l-3.45 1.3-2.2.7-1.95.55-2.7.7-3.85-2.2-3.8-2.15-.95-.55-6.65-3.75L1.9 23.7l2.15 4.05-1.2 1.85L0 24q3.1-5.85 7.15-10.8l2.1-2.45 2.8-2.95 1.6.75 7.5 3.65 5.35 2.6 1.8.9 8.7-3.75 2.15-.95 4.5-1.9 2.05-.9 1.9-.4 2.95 9.2-3.5 2.45-1.4.85q-8.5 5.1-17.55 5.9l-.7-.9" fill="#823908"/><path d="m44.35 11.65 1.85-1 2.05 5.7q-8.7 7-20.85 8.95l-1.5-1 2.8-.9 3.8-1.45 2.15-.85 4.25-2 6.75-3.65-1.3-3.8m6 13.55 6.9 4.4-2.55 2-4.35-6.4" fill="#a88314"/><path d="m45.65 20.3 1.4-.85 2.55 4.45-1.65 1.05-1.15-2.35-1.15-2.3m.05-12.1-2.05.9q-3-5.7-.9-8.2l2.95 7.3M9.25 10.75l-2.1 2.45L8.7 0l1.85.05-.4 3.45-.9 7.25" fill="#0b2756"/><path d="m21.15 12.2-7.5-3.65-.15-2.95-3.35-2.1.4-3.45 10.2.25-1.5 3.45v.05L17.8 7.25l3.35 4.95" fill="#3d80b8"/><path d="m37 11.95-8.7 3.75-1.8-.9q-.1-5.85-7.25-11v-.05q10.7.85 17.75 8.2" fill="#e1f7fe"/><path d="m39.15 11-2.15.95q-7.05-7.35-17.75-8.2L20.75.3l9 .25L39.15 11M26.5 14.8l-5.35-2.6-3.35-4.95 1.45-3.45q7.15 5.15 7.25 11" fill="#71bcfa"/><path d="m13.65 8.55-1.6-.75-2.8 2.95.9-7.25 3.35 2.1.15 2.95" fill="#82d6f9"/><path d="m12.2 9.45 6.65 3.75-1.5 5.35-5.05-3.4-.1-5.7m7.6 4.3 3.8 2.15-1.3 5.95-3.6-2.4 1.1-5.7m10.35 3.65 1.95-.55.4 5.1-3.8 1.45 1.45-6m4.15-1.25 3.45-1.3 1.15 4.25-4.25 2-.35-4.95" fill="#fff"/><path d="M4.05 27.75 1.9 23.7 12.2 9.45l.1 5.7-8.25 12.6m14.8-14.55.95.55-1.1 5.7-1.35-.9 1.5-5.35m4.75 2.7 3.85 2.2 2.7-.7-1.45 6-2.8.9-3.6-2.45 1.3-5.95m8.5.95 2.2-.7.35 4.95-2.15.85-.4-5.1m20.6 16.4L50 35.4q-16.1 8.15-27.2 23.45-10.1-1.3-14.35-14l.9-3.3q5.1 7.3 12.6 10.65 10.25-14.9 24.5-24.5l6.25 5.55" fill="#f7ed55"/><path d="m27.4 25.3.7.9-9.8 17.85-7.7-5.75-1.1-.8-6.65-4.95V29.6l1.2-1.85 8.25-12.6 5.05 3.4 1.35.9 3.6 2.4 3.6 2.45 1.5 1m-1.75 1.75q-2.4-2.55-5.05-4.55-1.4-1.1-2.95-2l-2.6-1.45-3.2-1.4-1.1 2.15-6 11.9 7.9 5.95 4.3 3.2 1.05.8 7.65-14.6" fill="#9b149d"/><path d="m43.65 9.1-4.5 1.9L29.75.55l13 .35q-2.1 2.5.9 8.2" fill="#3c84b8"/><path d="M37.75 14.85q3.35-1.4 6.6-3.2l1.3 3.8-6.75 3.65-1.15-4.25m14.95 18.4-6.25-5.55 3.9-2.5 4.35 6.4-2 1.65" fill="#c9d689"/><path d="M30.5 39.15q-5 5.2-9.3 11.25l-1.7-1.05 10-21.15q8.65-1.1 17.3-5.6l1.15 2.35q-5.4 3.4-10.25 7.5-5.3-7.05-7.2 6.7" fill="#5a94ab"/><path d="M37.7 32.45q-3.75 3.15-7.2 6.7 1.9-13.75 7.2-6.7" fill="#becbbd"/><path d="M30.5 39.15q3.45-3.55 7.2-6.7 4.85-4.1 10.25-7.5l1.65-1.05q5.35 1.25 9.8 6l-2.2 1.9-1.15 1.05-5.4 4.65q-17.1 6.85-26.5 22.65l-3.45-.2-2-.45q-1.55-.45-2.9-1.25l-1.45-.95Q9.5 53.6 6.8 45.25l2.7-7.75 1.1.8q2.75 6.9 8.9 11.05l1.7 1.05q4.3-6.05 9.3-11.25M46.45 27.7q-14.25 9.6-24.5 24.5-7.5-3.35-12.6-10.65l-.9 3.3q4.25 12.7 14.35 14Q33.9 43.55 50 35.4l2.7-2.15 2-1.65 2.55-2-6.9-4.4-3.9 2.5" fill="#833704"/><path d="M20.6 22.5q2.65 2 5.05 4.55L13.3 29.7l1.75-10.65 2.6 1.45-1.85 4.6 4.8-2.6m-3.65 18.35-4.3-3.2.65-7.95 3.65 11.15M4.75 31.7l6-11.9 1.45 8.9-7.45 3" fill="#eaa5d6"/><path d="m20.6 22.5-4.8 2.6 1.85-4.6q1.55.9 2.95 2m-5.55-3.45L13.3 29.7l12.35-2.65L18 41.65l-1.05-.8L13.3 29.7l-.65 7.95-7.9-5.95 7.45-3-1.45-8.9 1.1-2.15 3.2 1.4" fill="#8f28c4"/><path d="m14.35 57.3 1.45.95Q0 80.45 22.5 85.4q-7.3-9.65-3.8-25.9l2 .45Q14.85 94.85 49 90.3q-9.45-6-7.85-17.4l-7.6-7.6Q54.9 84 66.25 74.65 49.35 63.05 46.3 51.2l2.7 4.35q14.8-13 21.3-3.25Q73 28.75 58 36.4l-1.95-3.55 1.15-1.05 1.45 2.85q17.1-8.05 12.3 23.2-6.7-16.2-20.5 0l4.05 4.3 14.55 12.5q-14.7 9.15-26.05 0-3.25 7.7 9.3 16.2-14.3 7.4-27.05-3.15-27.6-5.05-10.9-30.4" fill="#0e3368"/><path d="M15.8 58.25q1.35.8 2.9 1.25-3.5 16.25 3.8 25.9Q0 80.45 15.8 58.25m4.9 1.7 3.45.2q9.4-15.8 26.5-22.65l5.4-4.65L58 36.4q15-7.65 12.3 15.9-6.5-9.75-21.3 3.25l-2.7-4.35q3.05 11.85 19.95 23.45Q54.9 84 33.55 65.3l7.6 7.6Q39.55 84.3 49 90.3q-34.15 4.55-28.3-30.35" fill="#80dcf9"/><path d="M28.1 26.2q9.05-.8 17.55-5.9l1.15 2.3q-8.65 4.5-17.3 5.6l-10 21.15q-6.15-4.15-8.9-11.05l7.7 5.75 9.8-17.85" fill="#295b57"/></g><g id="n" fill-rule="evenodd"><path d="M72.1 4.95q7.05 3.9 13.4 8.45 6.75 4.8 12.7 10.3l-5.65-10.35q2.75 1.95 5.2 4.25l2.3 7.75 4.6 9.5L106 27.9l1.2 2.15q-1.8 10.2-5.5 17 2.85-9.6-1.85-19.85l-11-10.65 6.8 13.85 5.05 14.1-4.55-7.2Q95.1 27 82.5 14.6l-14-10.3 3.6.65M97.75 56.5l3.6-7.05-2 5.95-1.6 1.1" fill="#2a56ae"/><path d="M92.55 13.35 98.2 23.7q-5.95-5.5-12.7-10.3-6.35-4.55-13.4-8.45 4.7 1 8.9 2.55l4.5 5.9-1.1-4.55q4.35 1.9 8.15 4.5M106 27.9l-1.35 6.95-4.6-9.5-2.3-7.75q4.8 4.45 8.25 10.3" fill="#96e1f8"/><path d="m72.1 4.95-3.6-.65 14 10.3Q95.1 27 96.15 37.3q.75 7.35-4.3 13.6 3.95 13.8-2 24.5 13-7.7 17.05-21.05 3-10 .95-23.1l-.65-1.2-1.2-2.15q-3.45-5.85-8.25-10.3-2.45-2.3-5.2-4.25-3.8-2.6-8.15-4.5L81 7.5q-4.2-1.55-8.9-2.55M91.15 54.1q-1.1-11-7.9-20.75-2.65-3.75-6.1-7.35L74.4 42.1l3.25 2.7 2.75 2.85L82.2 50q1.65 2.25 2.95 4.8 1.4 2.85 2.45 6.05l.95 3.65q.75 3.2 1.1 6.75 1.9-7.2 1.75-13.95v-.05l-.25-3.15M22.6 15.5l.85-1.8q4-6.9 11.15-12l-2.15.5q-3.25.75-6.2 1.95-5.65 2.25-10.1 5.95-1.25 1.05-2.45 2.25-5.8 5.8-9.3 14.45l-1.8 5.15-.65 2.4.75 2.1 1.95 4.3Q13.2 56.7 38.1 66.45q-8.05 3.35-10.65 6.2Q22.4 78.2 38.1 82q16.85 8.3 25.35 4.45 4.5-2.05 6.7-7.5v8.75q16.3 1.25 17.5-18.2-.05-3.15-.8-6.1-4-16.1-27-26.1l-4.4 6.35 3.8 5.2q9.35 13.95 8.4 25.3-.55 5.9-3.9 11.15-6.9-11.25-17.3-17.35-2.2-1.3-4.6-2.4L35.3 47.8Q26 42.5 22.4 35.75q-4.2-7.8-.85-17.55l1.05-2.7m13.15 13.95q-1.75 2-.05 11.65 2.15 11.75 7.15 23.05 12.3 6.75 20.5 17.65Q73.9 62.3 42.6 33.25q-5.15-5.8-6.85-3.8m36.8 11.8 3.7-18q12.05 7.5 15.15 25Q103.8 27.65 62.25 2 97 5.05 109.35 30.05q5.2 32-19.7 48.2v3.1l-5.95 9.4-2.4 12.3q-3.9-2.4-10.95 0-1.45-8.2-17.55-9.65l-3.95-4.8q-40.7-11.55-14.9-21.95-29.9-12.7-33.95-34Q9.95.7 39 0 7.4 25.55 34.4 45.4q-6.05-35.1 19.3-3.75l5.25-7.85 13.6 7.45m-17 47.4-3.95-.2 2 2.65q11.55 2.15 18.15 8.55h7.8l1.65-11.5q-4.3 1.75-8.75 2L68.6 90v-5.8l-5.8 4.7-7.25-.25" fill="#0a2756"/><path d="m84.4 8.85 1.1 4.55L81 7.5l3.4 1.35" fill="#2850a6"/><path d="m91.15 54.1-7-10.55-6.25-11.2V29.7l5.35 3.65q6.8 9.75 7.9 20.75" fill="#b18dde"/><path d="M83.25 33.35 77.9 29.7v2.65l6.25 11.2 7 10.55.25 3.15-5.35-6.35 1.55 9.95q-1.05-3.2-2.45-6.05l-3.2-12.15.25 7.35-1.8-2.35V40.9l-2.35-3.4-.4 7.3-3.25-2.7L77.15 26q3.45 3.6 6.1 7.35" fill="#1e3c83"/><path d="m77.65 44.8.4-7.3 2.35 3.4v6.75l-2.75-2.85" fill="#ab92de"/><path d="m96.15 37.3 4.55 7.2-5.05-14.1-6.8-13.85 11 10.65q4.7 10.25 1.85 19.85 3.7-6.8 5.5-17l.65 1.2q2.05 13.1-.95 23.1l-9.6 7.05 2.05-6 2-5.95-3.6 7.05-1.85 3.7q-.85-5.65-4.05-9.3 5.05-6.25 4.3-13.6" fill="#d4ecf4"/><path d="m32.45 2.2 2.15-.5q-7.15 5.1-11.15 12l-.85 1.8-1.35-4.5 11.2-8.8m-16.3 7.9q4.45-3.7 10.1-5.95-7.9 4.5-9.85 13.1l-.25-7.15" fill="#88dffa"/><path d="M32.45 2.2 21.25 11l1.35 4.5-1.05 2.7-1.65-4.9-4.7 9.75q1.75 7.8 5.3 14.05 3 5.25 7.2 9.4-5.15-3.05-9.7-8.55L15.1 34H9.4l5.8-3.3q-2.1-4.45 0-10.5l-1.5-7.85q1.2-1.2 2.45-2.25l.25 7.15q1.95-8.6 9.85-13.1 2.95-1.2 6.2-1.95M4.65 40.75l-1.95-4.3 10.4 6.2 4.1 2.4-12.55-4.3m-2.05-8.8 1.8-5.15 3.85-1.85 1.5-.7-1 1.1-6.15 6.6" fill="#2d5eb8"/><path d="M21.55 18.2q-3.35 9.75.85 17.55l-1.9 1.35q-3.55-6.25-5.3-14.05l4.7-9.75 1.65 4.9" fill="#94e1fa"/><path d="m2.7 36.45-.75-2.1.65-2.4 6.15-6.6h1.85l4.6-5.15q-2.1 6.05 0 10.5L9.4 34h5.7l2.9 3.95q-.6 5.45-4.9 4.7l-10.4-6.2" fill="#b0e7f7"/><path d="m15.2 20.2-4.6 5.15H8.75l1-1.1-1.5.7 3.45-6.4 3.5 1.65m53.1 32.85q-.7 0-1.25-.5-.55-.55-.55-1.3t.55-1.25q.55-.55 1.25-.55.75 0 1.3.55.55.5.55 1.25t-.55 1.3q-.55.5-1.3.5m-.7 9.6q0-2.15.85-3.7.9-1.5 2.1-1.5 1.25 0 2.1 1.5.9 1.55.9 3.7 0 2.15-.9 3.7-.85 1.5-2.1 1.5-1.2 0-2.1-1.5-.85-1.55-.85-3.7" fill="#fff"/><path d="M4.4 26.8q3.5-8.65 9.3-14.45l1.5 7.85-3.5-1.65-3.45 6.4L4.4 26.8" fill="#91e1f9"/><path d="M22.4 35.75Q26 42.5 35.3 47.8l6.55 17.75q2.4 1.1 4.6 2.4L49.3 79.6q-10.9.8-20.95-3.2l10.4-1.1-11.3-2.65q2.6-2.85 10.65-6.2-24.9-9.75-33.45-25.7l12.55 4.3-4.1-2.4q4.3.75 4.9-4.7 4.55 5.5 9.7 8.55-4.2-4.15-7.2-9.4l1.9-1.35" fill="#f3f7f7"/><path d="M35.75 29.45q1.7-2 6.85 3.8Q73.9 62.3 63.35 81.8q-8.2-10.9-20.5-17.65-5-11.3-7.15-23.05-1.7-9.65.05-11.65l7.75 17.8 4.45 4.65L63.1 67.85v-6.9l-10.75-15v8.95l-2.4-7.5-2.4-7.5-4.05-3.6v4.8l-1-6-6.75-5.65M41.1 55.7l1.95-7-6.15-8.35 4.2 15.35m2.95 1.65 5.05 3.4 5.55 7.35 5.5 3.95V67l-12.5-13.15V59l-3.6-8.35v6.7m.2 6.15 7.9 3.5-4.5-5.6-3.4-2.1v4.2m19.2 13.05V70.5l-2.2-2.1v6.35l2.2 1.8" fill="#23479d"/><path d="m35.75 29.45 6.75 5.65 1 6v-4.8l4.05 3.6 2.4 7.5q.35 3.6-2 4.5l-4.45-4.65-7.75-17.8M41.1 55.7l-4.2-15.35 6.15 8.35-1.95 7" fill="#c3adea"/><path d="m59.25 48.85-3.8-5.2 4.4-6.35-.6 11.55" fill="#4399ca"/><path d="M67.65 74.15q.95-11.35-8.4-25.3l.6-11.55q23 10 27 26.1-7.55 21.9-19.2 10.75m-.05-11.5q0 2.15.85 3.7.9 1.5 2.1 1.5 1.25 0 2.1-1.5.9-1.55.9-3.7 0-2.15-.9-3.7-.85-1.5-2.1-1.5-1.2 0-2.1 1.5-.85 1.55-.85 3.7m.7-9.6q.75 0 1.3-.5.55-.55.55-1.3T69.6 50q-.55-.55-1.3-.55-.7 0-1.25.55-.55.5-.55 1.25t.55 1.3q.55.5 1.25.5" fill="#96e6fa"/><path d="m49.95 47.4 2.4 7.5v-8.95l10.75 15v6.9L47.95 51.9q2.35-.9 2-4.5" fill="#4c99da"/><path d="M44.25 63.5v-4.2l3.4 2.1 4.5 5.6-7.9-3.5m-.2-6.15v-6.7l3.6 8.35v-5.15L60.15 67v5.05l-5.5-3.95-5.55-7.35-5.05-3.4" fill="#4e9bdd"/><path d="m63.45 76.55-2.2-1.8V68.4l2.2 2.1v6.05" fill="#4a97d9"/><path d="M63.75 85.3q3.35-5.25 3.9-11.15Q79.3 85.3 86.85 63.4q.75 2.95.8 6.1-1.2 19.45-17.5 18.2v-8.75q-2.2 5.45-6.7 7.5l.3-1.15" fill="#3d88ba"/><path d="M46.45 67.95q10.4 6.1 17.3 17.35l-.3 1.15Q54.95 90.3 38.1 82q-15.7-3.8-10.65-9.35l11.3 2.65-10.4 1.1q10.05 4 20.95 3.2l-2.85-11.65" fill="#bcd8e4"/><path d="M55.55 88.65 58.4 91q10.35.9 18.65 6.35l1.5-3.75q-3.75-.65-6.1-3.45 4.45-.25 8.75-2l-1.65 11.5h-7.8q-6.6-6.4-18.15-8.55l-2-2.65 3.95.2" fill="#203e89"/><path d="M72.45 90.15q2.35 2.8 6.1 3.45l-1.5 3.75Q68.75 91.9 58.4 91l-2.85-2.35 7.25.25 5.8-4.7V90l3.85.15" fill="#4589ce"/><path d="m87.6 60.85-1.55-9.95 5.35 6.35v.05l-2.85 7.2-.95-3.65" fill="#4580c9"/><path d="M106.9 54.35Q102.85 67.7 89.85 75.4q5.95-10.7 2-24.5 3.2 3.65 4.05 9.3l1.85-3.7 1.6-1.1-2.05 6 9.6-7.05" fill="#aac8d9"/><path d="m82.2 50-.25-7.35 3.2 12.15q-1.3-2.55-2.95-4.8" fill="#7b8ad4"/><path d="m88.55 64.5 2.85-7.2q.15 6.75-1.75 13.95-.35-3.55-1.1-6.75" fill="#1e3d85"/></g><g id="o" fill-rule="evenodd"><path d="M2.4 1.8q6.5 5.05 10.05 11.35Q.35 16.15 0 0l2.4 1.8m2.55 4.9L5 5.5 2.25 3.55q0 1.9.45 3.45.8 2.8 3.2 4.4Q5 9 4.95 6.7m1.15 0q-.3 4.45 3.95 4.7-.85-3-3.95-4.7" fill="#0d2f69"/><path d="M2.7 7q-.45-1.55-.45-3.45L5 5.5l-.05 1.2L2.7 7" fill="#fff"/><path d="m2.7 7 2.25-.3Q5 9 5.9 11.4 3.5 9.8 2.7 7" fill="#e3de41"/><path d="M6.1 6.7q3.1 1.7 3.95 4.7-4.25-.25-3.95-4.7" fill="#c3db3c"/></g><g id="p" fill-rule="evenodd"><path d="m70.25 11.35.15-1.7-2.95 2.6-2.8 2.15q-6.25 4.55-13 6.7l1.65-1.9 3.55-2.1 3.5-2.1.25-6.05.25-6-3.2 3.2q-9.3 8.8-20.1 15.45-12.1 3.6-20.65 11.95-6.4 6.2-10.8 15.1l3.15 3.75 6.45-1.35q-.35-2.1-.05-3.95 1.8-11 26.7-14.65-31.3 8.65-24.75 20.4H7.95Q3.5 56.6 2.2 59.7q-1.6 3.9 1.65 6.7 2.95 2.6 10 4.3l-1.4-5.7q7.85.25 14.65-2.3v-4.95l.95 1.8 2.2 3.75q5.9 8.5 14.3 8.9L43 62.45Q64.95 67.5 73.6 56q10.15-9.65 6.4-15.05-.9-1.3-2.6-2.35-1.3-.85-3.05-1.5-2.45-.9-5.75-1.55-.8 2-1.8 3.65-4.25 7.05-11.95 9.05l-5 1.2q9.2-3.55 14-8.7 4.6-4.95 5.15-11.4l-3.5 4.4Q54.45 46.15 35.2 51.2q-6.05 1.55-12.9 2.4 27.95-5.15 42.65-22.7l3.95-5.25 1.35-14.3m6.45 24.5q8.45 3.7 3.35 14.45-10.9 19.2-35.3 14.15l1.75 9q-11.65 1-17.65-9.8Q22 66.9 14.2 66.3l2.6 6.05Q-7.75 68.45 3.55 55l1.1-5.35v-2.2Q9.3 38.6 17.7 30.25q3.35-7.35 14.35-13.15 6.2-3.95 7.7-12.6 4.05 4.45 3.5 11.4 9.4-6.5 18.3-15.9 1.65 7.1 0 13.9l10.2-7.3q1.1 17.3-2.55 27.5 4.55.45 7.5 1.75M41.2 9.9l-1.05-2.25-1.2 3.15q-2.1 4.45-5.8 7.5-6.6 3.15-11.4 8.35l4.4-2.05q6.6-3 13.25-6.05l2.2-1q.8-4.15-.4-7.65" fill="#072c0c"/><path d="m70.25 11.35-2.9 4.75.1-3.85 2.95-2.6-.15 1.7m-26.9 48.7-1.2 1.55q-.1 3.8-2.2 4.35l1.2-6.25 2.2.35M26.15 24.6l-4.4 2.05q4.8-5.2 11.4-8.35 3.7-3.05 5.8-7.5l1.2-3.15L41.2 9.9l-1.8 2.4-4.5 6.1-8.75 6.2" fill="#fff"/><path d="m67.45 12.25-.1 3.85Q60.3 27.3 52.1 36.85q-5.5 4.95-5.8 7.75l-1.95 1.3q-8.75-7.05-21.75 1.65 2.8-9.05 19.75-15.1-24.9 3.65-26.7 14.65l-5.3-.85 6.55-12.7q8.55-8.35 20.65-11.95 10.8-6.65 20.1-15.45l-.6 8.25-3.75 4.8-1.65 1.9q-6.1 6.65-13.1 10.55Q51.8 29.9 64.65 14.4l2.8-2.15" fill="#639d80"/><path d="m67.35 16.1 2.9-4.75-1.35 14.3-3.95 5.25q2-6.75 2.4-14.8" fill="#b08606"/><path d="M60.6 8.95 60.35 15l-3.5 2.1.2-2.7 3.55-5.45" fill="#ad8106"/><path d="m57.05 14.4.6-8.25 3.2-3.2-.25 6-3.55 5.45" fill="#f7ee58"/><path d="m56.85 17.1-3.55 2.1 3.75-4.8-.2 2.7m-5.2 4q6.75-2.15 13-6.7-12.85 15.5-26.1 17.25 7-3.9 13.1-10.55" fill="#164211"/><path d="m63.85 40.75 1.65-7 3.5-4.4q-.55 6.45-5.15 11.4" fill="#f8ef5d"/><path d="m65.5 33.75-1.65 7q-4.8 5.15-14 8.7L42.6 51.2q-3.2 7.3-10.35 6.65-5.7-1.5 0-3.95l2.95-2.7q19.25-5.05 30.3-17.45" fill="#174413"/><path d="M66.8 39.2q1-1.65 1.8-3.65 3.3.65 5.75 1.55-3.2 4.45-7.55 2.1" fill="#164111"/><path d="M77.4 38.6q1.7 1.05 2.6 2.35-1.3 2.45-2.95 4.55 1.05-3.25.35-6.9" fill="#d3d55a"/><path d="m35.2 51.2-2.95 2.7q-5.7 2.45 0 3.95 7.15.65 10.35-6.65l7.25-1.75 5-1.2q7.7-2 11.95-9.05 4.35 2.35 7.55-2.1 1.75.65 3.05 1.5.7 3.65-.35 6.9-10 13.05-31.75 12.05l-1.95 2.5-2.2-.35-1.2 6.25-.35 1.55q-5.8-3.1-10.05-8.75l-1.5.8-.95-1.8v2.1q-11.45 3.55-17.65 3.8L5.2 63.3q-3-.85-3-3.6 1.3-3.1 5.75-6.85 5.15 1.95 0 3.9v2.65q6.4-5.55 14.35-5.8 6.85-.85 12.9-2.4" fill="#5d9176"/><path d="M80 40.95q3.75 5.4-6.4 15.05-8.65 11.5-30.6 6.45l1.55 9.75q-8.4-.4-14.3-8.9 4.85 5.1 9.35 4.2l.35-1.55q2.1-.55 2.2-4.35l1.2-1.55q20 2.65 26.85-5.7 5.35-4 6.85-8.85 1.65-2.1 2.95-4.55" fill="#ac8106"/><path d="M67.35 16.1q-.4 8.05-2.4 14.8-14.7 17.55-42.65 22.7-7.95.25-14.35 5.8v-2.65q5.15-1.95 0-3.9h9.65q-6.55-11.75 24.75-20.4Q25.4 38.5 22.6 47.55q13-8.7 21.75-1.65l1.95-1.3q.3-2.8 5.8-7.75 8.2-9.55 15.25-20.75" fill="#184914"/><path d="M77.05 45.5q-1.5 4.85-6.85 8.85-6.85 8.35-26.85 5.7l1.95-2.5q21.75 1 31.75-12.05" fill="#143f0f"/><path d="M41.2 9.9q1.2 3.5.4 7.65l-2.2 1q.65-3.4 0-6.25l1.8-2.4" fill="#b38906"/><path d="M39.4 18.55q-6.65 3.05-13.25 6.05l8.75-6.2 4.5-6.1q.65 2.85 0 6.25" fill="#184613"/><path d="m5.2 63.3 4.25.35-.2 2.95-5.4-.2 1.35-3.1" fill="#f9fbff"/><path d="M27.1 60.2v2.5q-6.8 2.55-14.65 2.3l1.4 5.7q-7.05-1.7-10-4.3l5.4.2q1.65-.45 3.2-1.6 8.85-1.45 14.65-4.8" fill="#a57705"/><path d="m30.25 63.3-2.2-3.75 1.5-.8Q33.8 64.4 39.6 67.5q-4.5.9-9.35-4.2m-3.15-3.45v.35q-5.8 3.35-14.65 4.8-1.55 1.15-3.2 1.6l.2-2.95q6.2-.25 17.65-3.8M3.85 66.4Q.6 63.6 2.2 59.7q0 2.75 3 3.6l-1.35 3.1" fill="#f7ed55"/><path d="m16.9 33.55-6.55 12.7 5.3.85q-.3 1.85.05 3.95L9.25 52.4 6.1 48.65q4.4-8.9 10.8-15.1" fill="#1a4820"/><path d="M36 50.1q-.9 3.45-11.4 2.75Q29.95 42.6 36 50.1" fill="#f9f367"/><path d="M36 50.1q-6.05-7.5-11.4 2.75 10.5.7 11.4-2.75m-14.25 3.95q6.4-15.35 15.9-4.7.2 7.05-15.9 4.7" fill="#06320e"/></g><g id="q" fill-rule="evenodd"><path d="m24.2.45-3.65.7-3.65.75Q-6.3 31.95 5.3 42.65q16.5 9 28.05-5.35v2.05h2.3l4.15-8h-2.15l12.3-7.45.95 2.3-7.9 3.65-5.95 10.4-5 1.3Q21.75 53.8 4.4 43.75-8.55 28.3 16.8 0h5.9l1.5.45" fill="#103166"/><path d="m20.55 1.15 3.65-.7Q30.6 2.5 35.7 6l-1.05 4.55-15.1 9.65L30.3 8.8 28 3.95l-7.45-2.8" fill="#4090c2"/><path d="M5.3 42.65Q-6.3 31.95 16.9 1.9l3.65-.75L28 3.95l2.3 4.85-10.75 11.4 15.1-9.65L35.7 6q8.5 5.9 13.35 15.9-4.9 1.7-7.6-1.15.35-7.05-4.4-5.6-2.25 26.7-31.75 27.5m20.2-19.6q-.5 0-.9.35-.35.35-.35.9 0 .5.35.9.4.35.9.35.55 0 .9-.35l.35-.9q0-.55-.35-.9t-.9-.35M10.75 28.1q-.1 6.6 4.75 3.25V21.6l-4.75 6.5" fill="#96e6fa"/><path d="M25.5 23.05q.55 0 .9.35t.35.9l-.35.9q-.35.35-.9.35-.5 0-.9-.35-.35-.4-.35-.9 0-.55.35-.9.4-.35.9-.35M10.75 28.1l4.75-6.5v9.75q-4.85 3.35-4.75-3.25" fill="#fff"/><path d="m49.95 23.9-12.3 7.45h2.15l-4.15 8h-2.3V37.3Q21.8 51.65 5.3 42.65q29.5-.8 31.75-27.5 4.75-1.45 4.4 5.6 2.7 2.85 7.6 1.15l.9 2" fill="#3d86b9"/></g><g id="K" transform="translate(39.05 11.65)"><filter id="L"><feColorMatrix in="SourceGraphic" result="filterResult3" values="0 0 0 0 0.5803922,0 0 0 0 0.90588236,0 0 0 0 1.0,0 0 0 1 0"/><feConvolveMatrix divisor="1764" in="filterResult3" kernelMatrix="1 1 1 1 1 1 1 1 1 1 1 1 1 1 1 1 1 1 1 1 1 1 1 1 1 1 1 1 1 1 1 1 1 1 1 1 1 1 1 1 1 1 1 1 1 1 1 1 1 1 1 1 1 1 1 1 1 1 1 1 1 1 1 1 1 1 1 1 1 1 1 1 1 1 1 1 1 1 1 1 1 1 1 1 1 1 1 1 1 1 1 1 1 1 1 1 1 1 1 1 1 1 1 1 1 1 1 1 1 1 1 1 1 1 1 1 1 1 1 1 1 1 1 1 1 1 1 1 1 1 1 1 1 1 1 1 1 1 1 1 1 1 1 1 1 1 1 1 1 1 1 1 1 1 1 1 1 1 1 1 1 1 1 1 1 1 1 1 1 1 1 1 1 1 1 1 1 1 1 1 1 1 1 1 1 1 1 1 1 1 1 1 1 1 1 1 1 1 1 1 1 1 1 1 1 1 1 1 1 1 1 1 1 1 1 1 1 1 1 1 1 1 1 1 1 1 1 1 1 1 1 1 1 1 1 1 1 1 1 1 1 1 1 1 1 1 1 1 1 1 1 1 1 1 1 1 1 1 1 1 1 1 1 1 1 1 1 1 1 1 1 1 1 1 1 1 1 1 1 1 1 1 1 1 1 1 1 1 1 1 1 1 1 1 1 1 1 1 1 1 1 1 1 1 1 1 1 1 1 1 1 1 1 1 1 1 1 1 1 1 1 1 1 1 1 1 1 1 1 1 1 1 1 1 1 1 1 1 1 1 1 1 1 1 1 1 1 1 1 1 1 1 1 1 1 1 1 1 1 1 1 1 1 1 1 1 1 1 1 1 1 1 1 1 1 1 1 1 1 1 1 1 1 1 1 1 1 1 1 1 1 1 1 1 1 1 1 1 1 1 1 1 1 1 1 1 1 1 1 1 1 1 1 1 1 1 1 1 1 1 1 1 1 1 1 1 1 1 1 1 1 1 1 1 1 1 1 1 1 1 1 1 1 1 1 1 1 1 1 1 1 1 1 1 1 1 1 1 1 1 1 1 1 1 1 1 1 1 1 1 1 1 1 1 1 1 1 1 1 1 1 1 1 1 1 1 1 1 1 1 1 1 1 1 1 1 1 1 1 1 1 1 1 1 1 1 1 1 1 1 1 1 1 1 1 1 1 1 1 1 1 1 1 1 1 1 1 1 1 1 1 1 1 1 1 1 1 1 1 1 1 1 1 1 1 1 1 1 1 1 1 1 1 1 1 1 1 1 1 1 1 1 1 1 1 1 1 1 1 1 1 1 1 1 1 1 1 1 1 1 1 1 1 1 1 1 1 1 1 1 1 1 1 1 1 1 1 1 1 1 1 1 1 1 1 1 1 1 1 1 1 1 1 1 1 1 1 1 1 1 1 1 1 1 1 1 1 1 1 1 1 1 1 1 1 1 1 1 1 1 1 1 1 1 1 1 1 1 1 1 1 1 1 1 1 1 1 1 1 1 1 1 1 1 1 1 1 1 1 1 1 1 1 1 1 1 1 1 1 1 1 1 1 1 1 1 1 1 1 1 1 1 1 1 1 1 1 1 1 1 1 1 1 1 1 1 1 1 1 1 1 1 1 1 1 1 1 1 1 1 1 1 1 1 1 1 1 1 1 1 1 1 1 1 1 1 1 1 1 1 1 1 1 1 1 1 1 1 1 1 1 1 1 1 1 1 1 1 1 1 1 1 1 1 1 1 1 1 1 1 1 1 1 1 1 1 1 1 1 1 1 1 1 1 1 1 1 1 1 1 1 1 1 1 1 1 1 1 1 1 1 1 1 1 1 1 1 1 1 1 1 1 1 1 1 1 1 1 1 1 1 1 1 1 1 1 1 1 1 1 1 1 1 1 1 1 1 1 1 1 1 1 1 1 1 1 1 1 1 1 1 1 1 1 1 1 1 1 1 1 1 1 1 1 1 1 1 1 1 1 1 1 1 1 1 1 1 1 1 1 1 1 1 1 1 1 1 1 1 1 1 1 1 1 1 1 1 1 1 1 1 1 1 1 1 1 1 1 1 1 1 1 1 1 1 1 1 1 1 1 1 1 1 1 1 1 1 1 1 1 1 1 1 1 1 1 1 1 1 1 1 1 1 1 1 1 1 1 1 1 1 1 1 1 1 1 1 1 1 1 1 1 1 1 1 1 1 1 1 1 1 1 1 1 1 1 1 1 1 1 1 1 1 1 1 1 1 1 1 1 1 1 1 1 1 1 1 1 1 1 1 1 1 1 1 1 1 1 1 1 1 1 1 1 1 1 1 1 1 1 1 1 1 1 1 1 1 1 1 1 1 1 1 1 1 1 1 1 1 1 1 1 1 1 1 1 1 1 1 1 1 1 1 1 1 1 1 1 1 1 1 1 1 1 1 1 1 1 1 1 1 1 1 1 1 1 1 1 1 1 1 1 1 1 1 1 1 1 1 1 1 1 1 1 1 1 1 1 1 1 1 1 1 1 1 1 1 1 1 1 1 1 1 1 1 1 1 1 1 1 1 1 1 1 1 1 1 1 1 1 1 1 1 1 1 1 1 1 1 1 1 1 1 1 1 1 1 1 1 1 1 1 1 1 1 1 1 1 1 1 1 1 1 1 1 1 1 1 1 1 1 1 1 1 1 1 1 1 1 1 1 1 1 1 1 1 1 1 1 1 1 1 1 1 1 1 1 1 1 1 1 1 1 1 1 1 1 1 1 1 1 1 1 1 1 1 1 1 1 1 1 1 1 1 1 1 1 1 1 1 1 1 1 1 1 1 1 1 1 1 1 1 1 1 1 1 1 1 1 1 1 1 1 1 1 1 1 1 1 1 1 1 1 1 1 1 1 1 1 1 1 1 1 1 1 1 1 1 1 1 1 1 1 1 1 1 1 1 1 1 1 1 1 1 1 1 1 1 1 1 1 1 1 1 1 1 1 1 1 1 1 1 1 1 1 1 1 1 1 1 1 1 1 1 1 1 1 1 1 1 1 1 1 1 1 1 1 1 1 1 1 1 1 1 1 1 1 1 1 1 1 1 1 1 1 1 1 1 1 1 1 1 1 1 1 1 1 1 1 1 1 1 1 1 1 1 1 1 1 1 1 1 1 1 1 1 1 1 1 1 1 1 1 1 1 1 1 1 1 1 1 1 1 1 1 1 1 1 1 1 1 1 1 1 1 1 1 1 1 1 1 1 1 1 1 1 1 1 1 1 1 1 1 1 1 1 1 1 1 1 1 1 1 1 1 1 1 1 1 1 1 1 1 1 1 1 1 1 1 1 1 1 1 1 1 1 1 1 1 1 1 1 1 1 1 1 1 1 1 1 1 1 1 1 1 1 1 1 1 1 1 1 1 1 1 1 1 1 1 1 1 1 1 1 1 1 1 1 1 1 1 1 1 1 1 1 1 1 1 1 1 1 1 1 1 1 1 1 1 1 1 1 1 1 1 1 1 1 1 1 1 1 1 1 1 1 1 1 1 1 1 1 1 1 1 1 1 1 1 1 1 1 1 1 1 1 1 1 1 1 1 1 1 1 1 1 1 1 1 1 1 1 1 1 1 1 1 1 1 1 1 1 1 1 1 1 1 1 1 1 1 1 1 1 1 1 1 1 1 1 1 1 1 1 1 1 1 1 1 1 1 1 1 1 1 1 1 1 1 1 1 1 1 1 1 1 1 1 1 1 1 1 1 1 1 1 1 1 1 1 1 1 1 1 1 1 1 1 1 1 1 1 1 1 1 1 1 1 1 1 1 1 1 1 1 1 1 1 1 1 1 1 1 1 1 1 1 1 1 1 1 1 1 1 1 1 1 1 1 1 1 1 1 1 1 1 1 1 1 1 1 1 1 1 1 1 1 1 1 1 1 1 1 1 1 1 1 1 1 1 1 1 1 1 1 1 1 1 1 1 1 1 1 1 1 1 1 1 1 1 1 1 1 1 1 1 1 1 1 1 1 1 1 1" order="42 42" result="filterResult4"/><feComposite in="SourceGraphic" in2="filterResult4" result="filterResult5"/></filter><use ffdec:characterId="52" filter="url(#L)" height="613.7" transform="translate(-39.071 -11.634) scale(.2189)" width="831.25" xlink:href="#M"/></g><path d="M27.75-.5q0 1.85-8.6 3.1l-20.6 1.3-20.7-1.3q-8.5-1.25-8.5-3.1t8.5-3.15l20.7-1.25 20.6 1.25q8.6 1.3 8.6 3.15" fill-opacity=".349" fill-rule="evenodd" transform="translate(30.65 4.9)" id="s"/><path d="M197.65 76.55q57.35-17.75 0-76.1 136.8-7.7 114.15 120.15-54.35 80.1 0 98.15-10.3 44.25-54.05 48.1l36.05 28q-91.7 118.35-208.3 62.1-150.45-116.1-36.1-280.4 24.4 67.2 56.1 18 5.05-54.95 54.1-44.05-34 50.85 38.05 26.05" fill="#fff" fill-opacity=".749" fill-rule="evenodd" id="f"/><path d="M379.35 220.3q47.25 43.4 64.1-50.1 80.9 87.35 72.1 258.4 42.85 41.3 78.1-24.05 4.1 100.05-86.1 98.15Q378 636.4 147 450.65l46.1-24.05q-74.3-21.25-108.15-76.1 85.45 3.6 28-68.1Q-57.1 130.5 28.85 46.05 96.7-28.8 193.1 18 47.7 74.2 223.15 166.2q99.3 20.05 34.05-54.05 49.5-19.85 84.1 42.05 9.35 49.25 38.05 66.1" fill="#fff" fill-opacity=".749" fill-rule="evenodd" id="r"/></defs></svg>