<svg xmlns:ffdec="https://www.free-decompiler.com/flash" xmlns:xlink="http://www.w3.org/1999/xlink" ffdec:objectType="frame" height="90" width="90" xmlns="http://www.w3.org/2000/svg"><use ffdec:characterId="29" height="270.35" transform="matrix(.3134 0 0 .3136 -.611 2.399)" width="299.3" xlink:href="#a"/><defs><radialGradient cx="0" cy="0" gradientTransform="translate(9.95 36.6) scale(.0333)" gradientUnits="userSpaceOnUse" id="m" r="819.2" spreadMethod="pad"><stop offset="0" stop-color="#ce8c49"/><stop offset="1" stop-color="#1d7e6d"/></radialGradient><radialGradient cx="0" cy="0" gradientTransform="translate(15.45 23.35) scale(.0292)" gradientUnits="userSpaceOnUse" id="n" r="819.2" spreadMethod="pad"><stop offset="0" stop-color="#ce8c49"/><stop offset="1" stop-color="#1d7e6d"/></radialGradient><radialGradient cx="0" cy="0" gradientTransform="translate(25.65 15.5) scale(.0285)" gradientUnits="userSpaceOnUse" id="o" r="819.2" spreadMethod="pad"><stop offset="0" stop-color="#ce8c49"/><stop offset="1" stop-color="#1d7e6d"/></radialGradient><radialGradient cx="0" cy="0" gradientTransform="translate(12.95 44.8) scale(.0058)" gradientUnits="userSpaceOnUse" id="p" r="819.2" spreadMethod="pad"><stop offset="0" stop-color="#a5612d"/><stop offset="1" stop-color="#092924"/></radialGradient><radialGradient cx="0" cy="0" gradientTransform="translate(53.75 58.25) scale(.0291)" gradientUnits="userSpaceOnUse" id="q" r="819.2" spreadMethod="pad"><stop offset="0" stop-color="#b1894f"/><stop offset="1" stop-color="#1b7e6e"/></radialGradient><radialGradient cx="0" cy="0" gradientTransform="translate(39.3 53) scale(.0297)" gradientUnits="userSpaceOnUse" id="r" r="819.2" spreadMethod="pad"><stop offset="0" stop-color="#b1894f"/><stop offset="1" stop-color="#1b7e6e"/></radialGradient><radialGradient cx="0" cy="0" gradientTransform="translate(59.55 57.35) scale(.0222)" gradientUnits="userSpaceOnUse" id="s" r="819.2" spreadMethod="pad"><stop offset="0" stop-color="#b1894f"/><stop offset="1" stop-color="#1b7e6e"/></radialGradient><radialGradient cx="0" cy="0" gradientTransform="translate(20 42.35) scale(.0124)" gradientUnits="userSpaceOnUse" id="t" r="819.2" spreadMethod="pad"><stop offset="0" stop-color="#092924"/><stop offset="1" stop-color="#4e230c"/></radialGradient><radialGradient cx="0" cy="0" gradientTransform="translate(20 42.35) scale(.0124)" gradientUnits="userSpaceOnUse" id="u" r="819.2" spreadMethod="pad"><stop offset="0" stop-color="#092924"/><stop offset="1" stop-color="#a69085"/></radialGradient><radialGradient cx="0" cy="0" gradientTransform="translate(67.15 49.75) scale(.0294)" gradientUnits="userSpaceOnUse" id="v" r="819.2" spreadMethod="pad"><stop offset="0" stop-color="#838557"/><stop offset="1" stop-color="#177d6f"/></radialGradient><radialGradient cx="0" cy="0" gradientTransform="matrix(.034 0 0 .034 68.4 50.1)" gradientUnits="userSpaceOnUse" id="w" r="819.2" spreadMethod="pad"><stop offset="0" stop-color="#795e35"/><stop offset="1" stop-color="#167e6f"/></radialGradient><radialGradient cx="0" cy="0" gradientTransform="translate(12.3 11.25) scale(.0667)" gradientUnits="userSpaceOnUse" id="x" r="819.2" spreadMethod="pad"><stop offset="0" stop-color="#a5612d"/><stop offset=".871" stop-color="#092924"/></radialGradient><radialGradient cx="0" cy="0" gradientTransform="matrix(.033 0 0 .033 8.75 11.25)" gradientUnits="userSpaceOnUse" id="y" r="819.2" spreadMethod="pad"><stop offset="0" stop-color="#ffc558"/><stop offset="1" stop-color="#41af9a"/></radialGradient><radialGradient cx="0" cy="0" gradientTransform="translate(13 24.7) scale(.0253)" gradientUnits="userSpaceOnUse" id="z" r="819.2" spreadMethod="pad"><stop offset="0" stop-color="#ffc558"/><stop offset="1" stop-color="#41af9a"/></radialGradient><radialGradient cx="0" cy="0" gradientTransform="translate(18 38.15) scale(.0233)" gradientUnits="userSpaceOnUse" id="A" r="819.2" spreadMethod="pad"><stop offset="0" stop-color="#ffc558"/><stop offset="1" stop-color="#41af9a"/></radialGradient><radialGradient cx="0" cy="0" gradientTransform="translate(28 56) scale(.0286)" gradientUnits="userSpaceOnUse" id="B" r="819.2" spreadMethod="pad"><stop offset="0" stop-color="#1c7e6e"/><stop offset="1" stop-color="#7f8658"/></radialGradient><radialGradient cx="0" cy="0" gradientTransform="translate(51.45 43.45) scale(.0344)" gradientUnits="userSpaceOnUse" id="C" r="819.2" spreadMethod="pad"><stop offset="0" stop-color="#167e6f"/><stop offset="1" stop-color="#a5612d"/></radialGradient><radialGradient cx="0" cy="0" gradientTransform="translate(34.75 27.45) scale(.0271)" gradientUnits="userSpaceOnUse" id="D" r="819.2" spreadMethod="pad"><stop offset="0" stop-color="#167e6f"/><stop offset="1" stop-color="#a5612d"/></radialGradient><radialGradient cx="0" cy="0" gradientTransform="translate(26.6 21.85) scale(.0185)" gradientUnits="userSpaceOnUse" id="E" r="819.2" spreadMethod="pad"><stop offset="0" stop-color="#167e6f"/><stop offset="1" stop-color="#a5612d"/></radialGradient><radialGradient cx="0" cy="0" gradientTransform="translate(52.3 38.15) scale(.0284)" gradientUnits="userSpaceOnUse" id="F" r="819.2" spreadMethod="pad"><stop offset="0" stop-color="#39a89a"/><stop offset="1" stop-color="#ce8c4a"/></radialGradient><radialGradient cx="0" cy="0" gradientTransform="translate(49.75 32) scale(.0178)" gradientUnits="userSpaceOnUse" id="G" r="819.2" spreadMethod="pad"><stop offset="0" stop-color="#39a89a"/><stop offset="1" stop-color="#ce8c4a"/></radialGradient><radialGradient cx="0" cy="0" gradientTransform="translate(26.65 17.1) scale(.0365)" gradientUnits="userSpaceOnUse" id="H" r="819.2" spreadMethod="pad"><stop offset="0" stop-color="#914b24"/><stop offset="1" stop-color="#fdc157"/></radialGradient><radialGradient cx="0" cy="0" gradientTransform="translate(49.6 10.4) scale(.0644)" gradientUnits="userSpaceOnUse" id="I" r="819.2" spreadMethod="pad"><stop offset="0" stop-color="#904a23"/><stop offset="1" stop-color="#ffc558"/></radialGradient><radialGradient cx="0" cy="0" gradientTransform="translate(52.5 14.25) scale(.0578)" gradientUnits="userSpaceOnUse" id="J" r="819.2" spreadMethod="pad"><stop offset="0" stop-color="#632d10"/><stop offset="1" stop-color="#d09041"/></radialGradient><radialGradient cx="0" cy="0" gradientTransform="translate(33.5 71.55) scale(.0247)" gradientUnits="userSpaceOnUse" id="K" r="819.2" spreadMethod="pad"><stop offset="0" stop-color="#632d10"/><stop offset="1" stop-color="#d09041"/></radialGradient><radialGradient cx="0" cy="0" gradientTransform="translate(14.45 63.5) scale(.0044)" gradientUnits="userSpaceOnUse" id="L" r="819.2" spreadMethod="pad"><stop offset="0" stop-color="#fdb02f"/><stop offset="1" stop-color="#ff2e47"/></radialGradient><g id="a" transform="translate(1.95 -7.65)"><use ffdec:characterId="1" height="7.75" transform="matrix(2.7561 0 0 5.1924 31.37 237.657)" width="55.5" xlink:href="#b"/><use ffdec:characterId="6" height="141.4" transform="translate(114.663 105.4) scale(.7674)" width="238.05" xlink:href="#c"/><use ffdec:characterId="8" height="141.5" transform="translate(44.8 26.3) scale(1.0743)" width="47.2" xlink:href="#d"/><use ffdec:characterId="10" height="92.5" transform="translate(31.35 163.7) scale(1.0743)" width="50.85" xlink:href="#e"/><use ffdec:characterId="12" height="63.5" transform="translate(.15 105.8) scale(1.0743)" width="89.9" xlink:href="#f"/><use ffdec:characterId="14" height="79.25" transform="translate(67.45 143.65) scale(1.0743)" width="62.95" xlink:href="#g"/><use ffdec:characterId="16" height="50.15" transform="translate(74.3 101.35) scale(1.0743)" width="63.8" xlink:href="#h"/><use ffdec:characterId="18" height="107.35" transform="translate(108.8 161.9) scale(1.0743)" width="73.75" xlink:href="#i"/><use ffdec:characterId="20" height="167.85" transform="translate(154.1 7.65) scale(1.0743)" width="53" xlink:href="#j"/><use ffdec:characterId="22" height="79.25" transform="translate(112.2 83.75) scale(1.0743)" width="70.55" xlink:href="#k"/><use ffdec:characterId="28" height="85.6" transform="translate(62.1 41.95) scale(1.0743)" width="56" xlink:href="#l"/></g><g id="M"><path d="m45.55 84 1-.2.3-.1q7.25-1.6 13.95-5.1l4.2-3.4 3-2.45L84.15 59.7l.35-.3.35-.4.2-.2q5.35-5.65 11.15-8.85V50q7.85-4.45 16.6-4.3h1.2l2.45.2.15.05 2.05.3q2.9.5 5.9 1.5h.1l1.3.65 3.65 1.75 1.4.65 8.15 3.9 6.25 3 .85.4 6.35 3 6.35 3.05.65.3.65.3h-.05l4.6 1.35 2.1.35 1.4.1 4.15-.05 1.85-.25q4-.7 8.15-2.5 4.2-1.8 8.6-4.8l5.4-4.05 1.25-1.05.05-.05 1.2-.75 1.55-1.15q3-2.35 5.35-5.7l1.05-1.6q1.6-2.6 2.9-5.75l1.7-4.8v-.1l.05-.1q.05-.2.2-.25l.4-.05.15.05.15.15.05.35v.05l-.1.35q-1.3 4.2-3 7.7l-2.1 3.65-.45.65-.5.75-.15.2q-2.65 3.5-6 5.9l-.75.55-1.1.7-2.45 2-6.35 4.55-1.4.85q-3.95 2.3-7.75 3.7l-1.45.5q-5.4 1.7-10.5 1.4l-1.75-.15q-3.5-.4-6.85-1.75l-.05-.05-4.7-2.25-1.5-.7-16.95-8.1-3.05-1.45-9.4-4.5q-3.3-1.05-6.5-1.55l-3.35-.35-1.35-.05q-8.45-.15-16.05 4 3.1 9.3 5.05 18.9l1.5 8.45v.1l.05-.05.15-.05h.3l8.45 4.85q6.4-5.95 7.15-15.55l-2.7-12.85-.05.65-.15-1.25-.1-1.4q.05-.15.25-.2l.3.1.15.25 2.45 11.5.65 3.1v.1l-.4 3.15.2.05 9.55 5.65 7.4-7.2q1.4-4.5 0-8.95v-.3l.25-.2h.3l.2.25.25.9.1.45.35 1.9q.3 3-.65 6.05l7 7.35L153 73.9l2.35-5.95v-.05l.2-.15h.3l.25.2v.3l-2.35 6 4.85 6.95.05.05 9.2-3.9.05-.1q1.4-3.05.6-6.65l.05-.25.2-.15.25.05.1.2.15.6q.55 3.45-.75 6.35l-.05.05.1-.05.2.05L175 81l.05.05 7.55-6.25.3-.55.1-.25-.05-.25q.3-1.9-1-4.6v-.25l.15-.15h.2l.2.15q1.35 2.7 1.1 4.65l5.05 1 .1.05 3.35-6.65-.1-.1-.35-1.15v-.1l-1-3v-.2l.15-.15h.3l.1.15.15.5.8 2.35 7.25-1.1 3.05-6.9-2.6-3.65-.05-.25.15-.2.2-.05.2.15L201.6 56l1.3 1.8 5.55-4.35q.55-2.1.15-3.75-.4-1.6-1.7-2.75l-.1-.2.1-.25q.05-.1.2-.1l.2.1q1.35 1.2 1.8 2.75.6 1.95-.1 4.45l-.1.15-5.8 4.5-3.2 7.2-.1.1-.15.05-4.95.8-2.35.35.25.85v.1l.1.1v.25l-2.7 5.3-.8 1.6-.2.15h-.2l-.05-.05h-.2l-2.35-.45-2.4-.5-.8 1.05-6.3 5.25-1.4 1.15-.2.05-.2-.1-.05-.05-.15-.05-3.95-2.25-2.3-1.3-.15-.15v-.05l.05-.15h-.05v.15l-.15.15-7.55 3.15-1.95.85h-.25l-.15-.15-.05-.1-.1-.1-3.35-4.8-1.5-2.1-4.85 1.55-3.45 1.1h-.25l-.2-.1-5.7-6.05-1.3-1.35-6.05 5.85L130.1 77l-.25.1-.25-.05-6.9-4.1-2.85-1.65q-1.25 5.9-5 10.25l-.5.6-.4.4-1.15 1.15-.25.1-.25-.05-6.75-3.85-1.95-1.15-.15-.25-.05-.05v.05q-2.6 5.55-5.7 9.35l-2.9 3.05-.2.1h-.15l-7.95-1.65-9.15 11.8-.25.15-.3-.05L68.7 96 66 94.25h-.05v.05q-.65 4.55-2 8.45-1.35 3.75-3.3 6.9l-.25.15-.3-.05-11.2-6.15-1.6-.9v11.2l-.05.2.05.3-.2.25-.3.05-16.8-4.6-.25-.2-.05-.1-.15-.15-20.6-26.8-7-1.1-1.5-.25-.35-.2-.1-.35q.05-.25.2-.35l.4-.1 1.95.3 2.1.35 20.2 3.2 1.6.25 1.4.2h.05q7.8.7 15.05-.35l1.45-.25 1.15-.2m167.1-46.45.05.15v7.1l-.05.2-.5.75-1.4 2.15-.05.05-.15.05-.2-.05-.15-.2.05-.2 1.85-2.85v-7l.1-.2.2-.1.2.1.05.05M85.2 60.15l-.05.05-9.55 7.75 11 20.6 7.8 1.6q4.65-4.25 8.3-12.1l-1.45-8.25q-1.95-9.5-4.95-18.7-5.85 3.3-11.1 9.05M39.25 88.4l-1.65-2.05-.1-.3V86q-4.75.25-9.75-.2l-17.6-2.75 6.45 8.4 13.6 17.7.05.2 16.25 4.45v-11.45l-.05-.25q-.45-2.3-1.65-4.8-1.9-4.1-5.55-8.9m41.15-9.7-5.45-10.25-13.5 10.95-.1.05q-7.7 4.05-16.15 5.65l-1.1.2-5.8.65Q43.25 92 45.55 97q1.15 2.5 1.65 4.75l12.95 7.1 1.7-3.15q2.35-5.05 3.3-11.5v-.7l-3.25-6.75-.45-.85q-2.75-5.6-1.05-3l.85 1.35 2.3 3.7 2.45 4.7-.05.65 10.95 7.1 8.95-11.55L80.4 78.7" fill="#092924" fill-rule="evenodd"/><path d="m212.4 34.5.25 3v.05l-.05-.05-.2-.1-.2.1-.1.2v7l-1.85 2.85-.05.2.15.2.2.05.05.05-1.5 1.2q-.45-1.55-1.8-2.75l-.2-.1q-.15 0-.2.1l-.1.25.1.2q1.3 1.15 1.7 2.75.4 1.65-.15 3.75l-5.55 4.35-1.3-1.8 4.6-8.55.15-.2.5-.75.45-.65 2.1-3.65q1.7-3.5 3-7.7m-14.05 20.1 1.1-.7.4.7 2.6 3.65-3.05 6.9-7.25 1.1-.8-2.35 8.75-7-1.75-2.3m-7.3 8.65h-.25l-.15.15v.2l1 3v.1l.35 1.15.1.1-3.35 6.65-.1-.05-5.05-1q.25-1.95-1.1-4.65l-.2-.15h-.2l-.15.15v.25q1.3 2.7 1 4.6l.05.25-.1.25-.3.55-7.55 6.25L175 81l-6.25-3.55-.2-.05h-.05q1.3-2.9.75-6.35l11.15-.95-1.45-3.9 1.45-.5 2.5 3.2L190 65l-1.85-3 1.4-.85 1.5 2.05v.05m-22.3 6.95-.2.15-.05.25q.8 3.6-.6 6.65l-.05.1-9.2 3.9-.05-.05-4.85-6.95 2.35-6v-.1l9.9 3.05.7-3.75 1.75.15.3 2.6m-13.4-2.3v.05L153 73.9l-8.05 2.55-7-7.35q.95-3.05.65-6.05l13.6 4.55 1.4-4.9 1.5.7.25 4.5m-17.45-8.1-.2-.25h-.3l-.25.2v.3q1.4 4.45 0 8.95l-7.4 7.2-9.55-5.65-.2-.05.4-3.15v-.1l-.65-3.1 14.65-.95-.8-10.05 3.05 1.45 1.3 5.2h-.05m-21.05-4.65.05-.65 2.7 12.85q-.75 9.6-7.15 15.55L104 78.05h-.3l-.15.05-.05-.05-1.5-8.45 14.4-3-3.4-19.9 1.35.05 2 6.1.5 2.3m-31.65 5q5.25-5.75 11.1-9.05 3 9.2 4.95 18.7l1.45 8.25q-3.65 7.85-8.3 12.1l-7.8-1.6-11-20.6 9.55-7.75.05-.05m-68.6 31.3 18 5.75h7l-2.35-8.8q3.65 4.8 5.55 8.9 1.2 2.5 1.65 4.8l.05.25v11.45l-16.25-4.45-.05-.2-13.6-17.7M80.4 78.7l5.45 10.15-8.95 11.55-10.95-7.1.05-.65-2.45-4.7-2.3-3.7L66 87.4l14.4-8.7m-18.95 7.2.45.85 3.25 6.75v.7q-.95 6.45-3.3 11.5l-1.7 3.15-12.95-7.1q-.5-2.25-1.65-4.75l16.65-6-.75-5.1" fill="#135a4f" fill-rule="evenodd"/><path d="m198.35 54.6 1.75 2.3-8.75 7-.15-.5-.1-.15-.05-.05-1.5-2.05 6.35-4.55 2.45-2m1.5 0-.4-.7.75-.55q3.35-2.4 6-5.9L201.6 56l-1.25-1.75-.2-.15-.2.05-.15.2.05.25m-30.6 16.45-.15-.6-.1-.2-.25-.05-.3-2.6q5.1.3 10.5-1.4l1.45 3.9-11.15.95m-13.15-2.9v-.2l-.25-.2h-.3l-.2.15-.25-4.5 4.7 2.25.05.05q3.35 1.35 6.85 1.75l-.7 3.75-9.9-3.05m-17.5-5.1-.35-1.9-.1-.45-.2-.9-1.3-5.2 16.95 8.1-1.4 4.9-13.6-4.55m-18.85 1.1-2.45-11.5-.15-.25-.3-.1q-.2.05-.25.2l.1 1.4.15 1.25-.5-2.3-2-6.1 3.35.35q3.2.5 6.5 1.55l9.4 4.5.8 10.05-14.65.95M102 69.6q-1.95-9.6-5.05-18.9 7.6-4.15 16.05-4l3.4 19.9-14.4 3m78.4-3.9q3.8-1.4 7.75-3.7l1.85 3-7.1 3.9-2.5-3.2M16.6 91.45l-6.45-8.4 17.6 2.75q5 .45 9.75.2v.05l.1.3 1.65 2.05 2.35 8.8h-7l-18-5.75M45.55 97q-2.3-5-7.25-11.05l5.8-.65 1.1-.2q8.45-1.6 16.15-5.65l.1-.05 13.5-10.95L80.4 78.7 66 87.4l-4.75-3.15-.85-1.35q-1.7-2.6 1.05 3l.75 5.1-16.65 6" fill="#167e6f" fill-rule="evenodd"/><path d="M45.55 84q1.1-3.1 6.55-9.2 4.75-5.05 12.6-9.7 3.15-.95 2.5 3.9l-.6 3.7 4.3-7 11.9-15.1q1.45 1.7 2 5.1 2.1-8 8.45-16.55h.2q7.45-.65 10.4 1.5 9.5-4.8 19.25-6.95l-3.85 9.6q11.7-3.4 19.65-1.3l-4.15 5.55q10.75-1.7 20.95.75l-3.9 4.6q10.95-4.3 18.5-5.2l-5.2 10.75q7.45-4.3 14.6-5.85l-1.2 7.5q8.2-7.4 16-12.1l.4 2.25 3.6-7.45q3.5-7.8 6.3-9.5l1 2.1q2.7-14.05 7.4-17.7l1.1 1.7-.8 4.1-.6-2.1q-.8 1.3-1.55 2.95Q208.75 30 206.9 40v4.6l-1.05 1.6-1.85-9.4-.75 1.2-3.45 6.3-3.35 10.6-5.4 4.05 2.35-7.55-1.35 1-13.65 9.8-4.1 4.05-1.85.25 3.35-4.8.95-5.5.15-1.1-12.8 6.2-4.5 3.15-.65-.3 7.45-13.55-15 4.5-5.15 3-.85-.4 6.6-7.9-1.35-.05-15.55-.55-4.1 1.6-1.4-.65 5.7-7.05-1.7.15-12.9 1.15-2.05 1.85-2.05-.3 4.8-10.65-17.1 7.5-10.1-1.9-9.25 16.25.1 1.65-.2.2-.35.4-.35.3-.95-3.5-1-3.5-11.5 14.9-1.3 2.55-1.4 2.6-3 2.45q1-5.35.9-8.35l-.1-.85q-7.05 3.4-15.3 11.7L48 81.9l-1.15 1.8-.3.1-1 .2m-43-3.2 12.65-6.1q9.7-3.85 19.1-3.4l-3.5 6.9q7.95-3 16.1-4.5 1.25 3.15-.5 6.7l-2 3.8-1.45.25q3.95-5.25 3.3-8.85l-.15-.5q-5.6.9-13.15 3.7l-.35.15-2.5.95-3.65 4.7-1.6-.25 7-11 .45-.75q-5.9-1.1-16.25 2.95l-.25.1-2.2.85-8.95 4.65-2.1-.35" fill="#4e230c" fill-rule="evenodd"/><path d="m48 81.9 2.5-4.2q8.25-8.3 15.3-11.7l.1.85-6.4 8.85q-6.55 4.7-11.5 6.2m21.4-11.75 1.3-2.55 11.5-14.9 1 3.5q-7.25 8.2-13.8 13.95m49.25-23.9 2.05-1.85 12.9-1.15-7.65 5.15-1.3-.65h-.1q-3-1-5.9-1.5M131 50.8l4.1-1.6 15.55.55-11.5 4.95-8.15-3.9m15.25 7.3 5.15-3 15-4.5q-6.9 7.6-13.8 10.5l-6.35-3m13.35 6.35 4.5-3.15 12.8-6.2-.15 1.1q-6.3 7.75-11.95 9.9l-4.6-1.35h.05l-.65-.3m14.7 1.8 4.1-4.05 13.65-9.8-4.85 6.9-4.75 4.45q-4.15 1.8-8.15 2.5m22.15-11.35 3.35-10.6 3.45-6.3q-.25 5.45-2.75 13.9l-1.55 1.15-1.2.75-.05.05-1.25 1.05m10.45-10.3V40q1.85-10 4.45-15.65 0 9.9-1.55 14.5-1.3 3.15-2.9 5.75M16.05 75.55Q26.4 71.5 32.3 72.6l-.45.75L23 80.6l-6.95-5.05m16.55 3.4.35-.15Q40.5 76 46.1 75.1l.15.5-2.05 1.7q-6.2 5.05-13 5l1.4-3.35" fill="#a5612d" fill-rule="evenodd"/><path d="M46.85 83.7 48 81.9q4.95-1.5 11.5-6.2l6.4-8.85q.1 3-.9 8.35l-4.2 3.4q-6.7 3.5-13.95 5.1M68 72.75l1.4-2.6q6.55-5.75 13.8-13.95l.95 3.5L68 72.75M85.05 58.8l-.1-1.65L94.2 40.9l10.1 1.9 17.1-7.5-4.8 10.65-.15-.05-2.45-.2h-1.2q-8.75-.15-16.6 4.3v-.05q-5.8 3.2-11.15 8.85m48.55-15.55 1.7-.15-5.7 7.05-3.65-1.75 7.65-5.15m17.05 6.5 1.35.05-6.6 7.9-6.25-3 11.5-4.95m15.75.85-7.45 13.55-6.35-3.05q6.9-2.9 13.8-10.5m10.35 5.6-.95 5.5-3.35 4.8-4.15.05-1.4-.1-2.1-.35q5.65-2.15 11.95-9.9m15.3-3.8 1.35-1-2.35 7.55q-4.4 3-8.6 4.8l4.75-4.45 4.85-6.9m11.2-14.4.75-1.2 1.85 9.4q-2.35 3.35-5.35 5.7 2.5-8.45 2.75-13.9m8.1-13.65q.75-1.65 1.55-2.95l.6 2.1-1.95 10.35-.05.1v.1l-1.7 4.8q1.55-4.6 1.55-14.5m-179.5 49-7 11-20.2-3.2 8.95-4.65 2.2-.85.25-.1L23 80.6l8.85-7.25m-5.4 11.25 3.65-4.7 2.5-.95-1.4 3.35q6.8.05 13-5l2.05-1.7q.65 3.6-3.3 8.85-7.25 1.05-15.05.35h-.05l-1.4-.2" fill="#6b3213" fill-rule="evenodd"/><path d="m217.95 14.4-.25 5.1-3 17.8-2 5.2v-4.8l-.05-.15v-.05l-.25-3 .1-.35v-.05l2.8-8.6 2.65-11.1m-5.8 31.35L208 57.5q-5.65 11.3-12.8 17.85v.05l-.45.2q-9.9 5.35-19.85 8.3-14 2-29.6-2.55l-12.1-2.15q-13.55-.2-28.4 9.2l-32.15 22.9-18.25 10.9-5.5-18.6 11.2 6.15.3.05.25-.15q1.95-3.15 3.3-6.9L68.7 96l8.1 5.25.3.05.25-.15 9.15-11.8L94.45 91h.15l.2-.1 2.9-3.05 7.85-7.95 6.75 3.85.25.05.25-.1 1.15-1.15.4-.4.5-.6q3-1 7.85-8.6l6.9 4.1.25.05.25-.1 1.35-1.35 7.35-4.5 5.7 6.05.2.1h.25l3.45-1.1 6.35.55 3.35 4.8.1.1.05.1.15.15h.25l1.95-.85h5.2l4.95-1.8 3.95 2.25.15.05.05.05.2.1.2-.05 1.4-1.15 4.3-1 5.2-4.8 2.35.45h.2l.05.05h.2l.2-.15.8-1.6 4.7-6.95 4.95-.8.15-.05.1-.1 3.2-7.2 5.8-4.5.1-.15q.7-2.5.1-4.45l1.5-1.2-.05-.05.15-.05.05-.05 1.4-2.15" fill="#b4a7d2" fill-rule="evenodd"/><path d="m23.45 135.15-21.5-53.4 7 1.1 20.6 26.8.15.15.05.1.25.2 16.8 4.6.3-.05.2-.25-.05-.3.05-.2v-11.2l1.6.9 5.5 18.6 18.25-10.9 32.15-22.9q14.85-9.4 28.4-9.2l12.1 2.15q15.6 4.55 29.6 2.55 9.95-2.95 19.85-8.3l.45-.2v-.05q7.15-6.55 12.8-17.85l4.15-11.75.5-.75.05-.2v-2.3l2-5.2 3-17.8.25-5.1.35-1.5.1 18.85-.95 11.15q-4 17-8.35 28.1l-7.85 9.45-1.35 1.05q-7 5.3-14.3 8.5-15.6 5.2-31.2-1.55l-1.25-.55-9.55-3.7q-10-2.7-16.8-1.6-9.55 2-18.6 7.75-3.3 2.1-6.5 4.7l-.5.35-11.8 8.4-9.2 9.2q-11.3 10.9-28.8 15.6l-27.95 6.55M190 73.45l2.7-5.3v-.25l-.1-.1v-.1l-.25-.85 2.35-.35-4.7 6.95m-3.8 1.25-5.2 4.8-4.3 1 6.3-5.25.8-1.05 2.4.5m-15.45 4.55-4.95 1.8h-5.2l7.55-3.15.15-.15v-.15h.05l-.05.15v.05l.15.15 2.3 1.3m-16-2.5-6.35-.55 4.85-1.55 1.5 2.1m-15.95-5.6-7.35 4.5 6.05-5.85 1.3 1.35m-16.1 1.8q-4.85 7.6-7.85 8.6 3.75-4.35 5-10.25l2.85 1.65m-17.15 6.95-7.85 7.95q3.1-3.8 5.7-9.35h.05l.15.25 1.95 1.15M68.7 96l-4.75 6.75q1.35-3.9 2-8.45l.05-.05L68.7 96" fill="#8678a2" fill-rule="evenodd"/><path d="m24.8 138.6-1.35-3.45 27.95-6.55q17.5-4.7 28.8-15.6l9.2-9.2 11.8-8.4L85 110.2q-6.8 8.3-13.6 12L52.6 130l-27.8 8.6" fill="#b0eaf1" fill-rule="evenodd"/><path d="m213.5 23.5.8-4.1L218.8 0q2.4 7.4 2.1 19.9l-1.15 20.05-.1.25Q216.3 58.45 211 70.6q-2.95 6.25-10.1 11.9-9.05 7.9-20.35 11.65l-.85.2q-12.8 2.5-25.55-3.3l-1.15-.5q-20.6-8.3-27-5.35-16.9 5.2-30.3 16.9l-.65.6Q81.8 119 63.6 128.2l-38.05 12.25-.75-1.85 27.8-8.6 18.8-7.8q6.8-3.7 13.6-12l16.2-14.8.5-.35q3.2-2.6 6.5-4.7 9.05-5.75 18.6-7.75 6.8-1.1 16.8 1.6l9.55 3.7 1.25.55Q170 95.2 185.6 90q7.3-3.2 14.3-8.5l1.35-1.05L209.1 71q4.35-11.1 8.35-28.1l.95-11.15.8-22.65-.9 3.8-.35 1.5-2.65 11.1-2.8 8.6-.05-.35-.15-.15-.15-.05-.4.05q-.15.05-.2.25l1.95-10.35" fill="#65597f" fill-rule="evenodd"/><path d="m218.3 12.9.9-3.8-.8 22.65-.1-18.85" fill="#aee5ec" fill-rule="evenodd"/><path d="M211.5 34.05v-.1" fill="none" stroke="red" stroke-linecap="round" stroke-linejoin="round" stroke-width=".1"/></g><g id="N" fill-rule="evenodd"><path d="m16.15 138.85-5.7-9.75Q7.7 115.75 17.2 91.95l5.4-8.45q-11.25 26.05-6.45 55.35M18 35.25v-5.3L15.4 7.2l5.3 18.25 3.05 19.15v16.55l-.4 3.6h-.15L23.05 62 20.9 46.65 18 35.25" fill="#a5612d"/><path d="m45 105.5-27.3 36-1.55-2.65q-4.8-29.3 6.45-55.35l.75-1.2V64.75l.4-3.6V44.6L20.7 25.45 15.4 7.2l-.3-2.75L23 22.7l6.1 16.55 3.7 9 1.05 3.2L45 105.5M5.85 97.3l.1-5.25v-.25l4.25-3.3L3.1 91q6.95-4.9 13.95-9.7l-9 13.6-2.2 2.4M9.25 73l.7-1.35 2.15-4.5 4.6-3.55-8.05 2 .7-1.6 9.2-3.9 2.9-2.3-5.4 9.35q-4.85 5.1-6.8 5.85" fill="#642e10"/><path d="m10.45 129.1-3.55-6q-1.3-14.35-1.05-25.8l2.2-2.4 9-13.6q-7 4.8-13.95 9.7l-1.4.45Q3.85 83.55 9.25 73q1.95-.75 6.8-5.85l5.4-9.35-2.9 2.3-9.2 3.9 6.2-14.2 2.45-9v-5.55l2.9 11.4L23.05 62l.15 2.75.05 1h.1V82.3l-.75 1.2-5.4 8.45q-9.5 23.8-6.75 37.15" fill="#8f4923"/><path d="m6.9 123.1-2-3.45-.8-18.4v-8.5L0 93.7q.2-4.5 3.35-11.85l6.95-14.6H5.6q4-5.15 7.1-13.6l4.2-13.4-.3-10.1L13.95 0l2 3.1L26.2 26.9q5.25 10.75 6.85 18.2l2.25 4.75 11.9 52.75-2.2 2.9-11.15-54.05-1.05-3.2-3.55-11L23 22.7 15.1 4.45l.3 2.75L18 29.95V40.8l-2.45 9L9.35 64l-.7 1.6 8.05-2-4.6 3.55-2.15 4.5-.7 1.35Q3.85 83.55 1.7 91.45L3.1 91l7.1-2.5-4.25 3.3v.25l-.1 5.25q-.25 11.45 1.05 25.8" fill="#4e230c"/><path d="m23 22.7 6.25 14.55 3.55 11-3.7-9L23 22.7" fill="#b0eaf1"/></g><g id="O" fill-rule="evenodd"><path d="m9.3 71.4 1.3.7.5.3.25.2-6.45 1.5-1.85 3.15Q.35 84.15 1.9 86l3.35-4.15 3.15-.6 2.95-.5-.6 1.1-.15.3-.4.75-4.85.5-3.9 5.9L.2 85.75q-1.25-8.7 4.7-13.2l4.4-1.15m17.8 13.35.8-1.95.8-1.95 1.15-1.2q-1 5.25-1 8.65l-.15 1.55 3.3-3.1L36.55 82v1.35L34.8 85.4l-1.05 1.25-.85.95-.3.3-5.05 4.6q-.6-2.7-.45-7.75" fill="#65597f"/><path d="m25.85 79.25-.15.65-3.15 1.45-1.95 1.9-.65.15 2.9-3.05q2.15-1.55 3-1.1M40.4 73.2l.45 1.2.25 4.7-3.2 6.05-4.15 1.5 1.05-1.25 2.8-1 2.8-5.4v-5.8m-4.05 7.45.2.9V82L32 86.75l4.35-6.1m-23 1.35-.25.5-.75-.7v-.05l.4-.5.6.75m-.65-1.9-.1.25-1 .35-.25.05-2.95.5 2.05-1.05 2.25-.1" fill="#b0eaf1"/><path d="M34.9 76.25q.85 1.5 1.45 4.4L32 86.75l-3.3 3.1.15-1.55 1.9-2.95 4.15-9.1m-21.45 1.1-.75 2.75-2.25.1-2.05 1.05-3.15.6L1.9 86q.95-5.05 5-7.3 4.3-2.55 6.55-1.35" fill="#8678a2"/><path d="m29.85 79.65 1.1-1.25 3.65-2.55.3.4-4.15 9.1-1.9 2.95q0-3.4 1-8.65M1.9 86q-1.55-1.85 1.15-8.75L4.9 74.1l6.45-1.5q1.15 1.4 2.1 4.75-2.25-1.2-6.55 1.35-4.05 2.25-5 7.3" fill="#b4a7d2"/><path d="m10.6 72.1.25-.1 1.85-.8q2.9 2.95 3.2 5.65l-.2 1.2-.25.85-1.1 2.85-.35.6-.65.85-2.6-1.35.6-1.1.25-.05 1-.35.1-.25.75-2.75q-.95-3.35-2.1-4.75l-.25-.2-.5-.3m24.2 3 .05-.05q2.05 3.3 2.2 6.65l.05.05q.65.25-.05-3.65l-1.9-4.5-.05-.1q-4.6 3.25-6.15 5.5v1.1l1.25-1.85 4.6-3.15m.1 1.15-.3-.4-3.65 2.55-1.1 1.25-1.15 1.2-.55-1.6-.05-.1-.05-.25 2.15-2.4 4.9-3.5q2.35 2 2.7 6l.05 2.35-.1 1.15-1.05.7-.15.15v-1.8l-.2-.9q-.6-2.9-1.45-4.4m-19.45 1-2.6-5.5-1 .6 2.35 5.05-.65 2.8-.8 1.05-.4.5v.05l.75.7.25-.5q1.2-1.25 2.1-4.75" fill="#953e02"/><path d="M34.85 75.05h-.05l.35-1.45 1.9 4.5q.7 3.9.05 3.65l-.05-.05q-.15-3.35-2.2-6.65M14.2 77.4l1.25-.15q-.9 3.5-2.1 4.75l-.6-.75.8-1.05.65-2.8" fill="#af610b"/><path d="M34.8 75.05v.05l-4.6 3.15-1.25 1.85V79q1.55-2.25 6.15-5.5l.05.1-.35 1.45M14.2 77.4l-2.35-5.05 1-.6 2.6 5.5-1.25.15" fill="#faad00"/><path d="m10.85 72 3.8-3.8h1.95l1.6 1.8 1.2 3.85-1.65 4-1.85-1q-.3-2.7-3.2-5.65l-1.85.8m4.6 6.9 1.1.95L15.1 82l-.75-.25 1.1-2.85m11.65 1.4 1.25-5.25q3.05-3.85 7.15-5.5l1.4.55 1.95 6.25L37.8 79q-.35-4-2.7-6l-4.9 3.5-2.15 2.4.05.25.05.1-1.05 1.05m-1.7-10.4.05.65q-1.35-.55-5.05 1.3l-.3-1.25-2.35-2.1 3.6.75h3.55l.5.65" fill="#2baca4"/><path d="m32.95 66.05 7.3-.85L44.1 60l-1.75-2.25-2.8.95q-4.9.4-8.5 0l-2.7-2.35-1.5 4.8.45.5q3.15 3.6 5.65 4.4M9.3 71.4l5.6-5 2.45.25 1.35-1.25 3.7 1.1q3.5-4.55 5.15-13l.8-5.9 1.85-.8-1 6.25-.65 2.6L31.1 58q5.25.85 10.8-.6l2.9-1.25 2.15-.95 2-3.1v-4.5l-4.45-4-2.15-1.95 1.35-.55 4.75 4.65 1.4.3.9 1.25-1.95 16.85-2.9 9.2v4.15l-4.35 4.4-1.15 2.25-2.45 2.7-4.5 1.7-.55-.95.85-.95 4.15-1.5 3.2-6.05-.25-4.7-.45-1.2-.8-1.55q-1.15-1.65-3-2.55l-1.1.45q-4.1 1.65-7.15 5.5L27.1 80.3l-.2.6 1 1.9-.8 1.95-1.5-3.5-3 1.75q-2.35 2.65-7 3.2-3.3-.5-5.4-3.3l.4-.75 3.85 2.5 5.5-1.25.65-.15 1.95-1.9 3.15-1.45.15-.65 1.1-4.35-1.55 2.15-1.5.8-2.8-1.75-.1.5-.6 2.5-2.8 1.75-1.05-1-1.1-.95.25-.85 2.15 2 2.4-1.85q.55-3-.8-6.8L18.2 70l-1.6-1.8h-1.95l-3.8 3.8-.25.1-1.3-.7m35.75-11.8.15.15 2.9-.35.6-5.8-.9 1.5-.4.6-4.35 2 2 1.9m1.8.75H44.9L41.2 65l2.05 2.6 3-.75q1.1-1.85 1.35-6.5h-.75m-5.2 18.1-.25 1.95 2.7-3.55.45-3.15 1.5-6.15-1.1.35-1.6.5-2.65 3.1 1.2 3.1-.2 3.3-.05.55m-1.7-12.8-1.9.45-5.7.5q-2.7-1-5.7-4.9l-2.25 4.9.55.95 1.5 2.7 4.45 1.15 3.7-1.95.6-.2 1.5-.5.75.5 2.6 1.75 2.55-2.65-1.75-2.95-.9.25M25.4 69.9l-.5-.65h-3.55l-3.6-.75 2.35 2.1.3 1.25.85 3.55 2.7 1.3.45.2q1.8-1.2 2.35-3.9-.1-1.4-1.35-3.1m-2.65-1.3h1.95l-.85-1.1-1.1 1.1m-4.7-.7 3.8.8.75-.95-4-.5-.55.65m9.55 6.45 2.95-2.15-3.45-1 .5 3.15" fill="#092924"/><path d="M32.95 66.05q-2.5-.8-5.65-4.4l10.05.95h3.5q-2.1 2.25-7.9 3.45M18.2 70l1.25 1.4q1.35 3.8.8 6.8l-2.4 1.85-2.15-2 .2-1.2 1.85 1 1.65-4L18.2 70m-1.65 9.85 1.05 1 2.8-1.75.6-2.5 2.1 1.6q-3.3 4.3-7.1 5.15l-.2.05-1.8-1.05.35-.6.75.25 1.45-2.15M27.9 82.8l-1-1.9.2-.6 1.05-1.05.55 1.6-.8 1.95m7.6-13.25 1.1-.45q1.85.9 3 2.55v7.75l-1.75 1.95L37.8 79l1.05-2.65-1.95-6.25-1.4-.55m4.45-3.9 1.3 2.25-1.05 1.95-2.75-.6-.75-.5-1.5.5-.5.15-.1.05-2.65.9L28.4 70l-3.45-2.45-.55-.95 2.25-4.9q3 3.9 5.7 4.9l5.7-.5 1.9-.45m-19.55 6.2q3.7-1.85 5.05-1.3l.25 2.55-1.75 3.6-2.7-1.3-.85-3.55m-2.35-3.95.55-.65 4 .5-.75.95-3.8-.8m4.7.7 1.1-1.1.85 1.1h-1.95m4.85 5.75-.5-3.15 3.45 1-2.95 2.15" fill="#167e6f"/><path d="m27.3 61.65-.45-.5 1.5-4.8 2.7 2.35q3.6.4 8.5 0l2.8-.95L44.1 60l-3.85 5.2-7.3.85q5.8-1.2 7.9-3.45h-3.5l-10.05-.95M21 76.6l.1-.5 2.8 1.75 1.5-.8 1.55-2.15-1.1 4.35q-.85-.45-3 1.1l-2.9 3.05-5.5 1.25-3.85-2.5.15-.3 2.6 1.35.65-.85 1.8 1.05.2-.05q3.8-.85 7.1-5.15L21 76.6m18.6-4.95.8 1.55V79l-2.8 5.4-2.8 1 1.75-2.05.15-.15 1.05-.7.1-1.15 1.75-1.95v-7.75m2.75-30 2.15 1.95 3.6 4.6-.35 4q-1.35 3.05-2.95 3.95l-2.9 1.25q-5.55 1.45-10.8.6l-2.55-2.35.65-2.6 1-6.25 12.15-5.15M47.8 55.1l-.45 3.3-2.3 1.2-2-1.9 4.35-2 .4-.6m-4.55 12.5L41.2 65l3.7-4.65h1.95l-1 5.65-2.6 1.6m-1.6 10.85.05-.55.2-3.3-1.2-3.1 2.65-3.1 1.6-.5-1.85 8.65-1.45 1.9m-4.2-9.2 2.75.6 1.05-1.95-1.3-2.25.9-.25 1.75 2.95L40.05 71l-2.6-1.75m-12.5-1.7L28.4 70l3.55.35 2.65-.9-3.7 1.95-4.45-1.15-1.5-2.7m.5 3-.05-.65q1.25 1.7 1.35 3.1-.55 2.7-2.35 3.9l-.45-.2 1.75-3.6-.25-2.55" fill="#135a4f"/><path d="m44.5 43.6 4.45 4v4.5l-2 3.1-2.15.95q1.6-.9 2.95-3.95l.35-4-3.6-4.6m3.3 11.5.9-1.5-.6 5.8-2.9.35-.15-.15 2.3-1.2.45-3.3m-4.55 12.5 2.6-1.6 1-5.65h.75q-.25 4.65-1.35 6.5l-3 .75m1.7.3 1.1-.35-1.5 6.15-.45 3.15-2.7 3.55.25-1.95 1.45-1.9 1.85-8.65" fill="#afe7ef"/><path d="m47.85 31.65.05.1-5.05 3.3q-3 1.7-6.25 3.05-4 1.65-8.5 2.75l-.3.05-9.55-3.2-5.05-7.5-5.35-6.45q-.25 2.75 0 5.75.25 3.35 1.05 7.2 2.25 5.3 5.3 7.55-1.6-1.1-5.15-5.05l2 3.05 1.7 1.85-1.55.45-2.95-3.45-1.05-3.25q-2.3-9.1-.6-16.5L9.85 24l1.45-2.25q1.3-6.7 2.9-10.35l2.6 3.15.9-.8 3.35-8.05 4-5.7 3 6.75.3 1.6.1.7.6 3.8 2.3 5.55 2.4 3.7-3.4-3.9-2-5.65-.75-5.05L24.95.85l-4.7 9.4-2.3 6.85 1.95 5.5.7 2.65 5 4.3 1.45 1.3 7.7 2.5-1.55-.2q-3.75-.5-6.5-1.55l-6.6-6.1-2.4-7-2.6-4.4-.2.5-1.95 6.8.4 6.45 5.05 9.2 2.85 1.1q3.05 1.05 6.3 1.55 5.55-.7 11.05-3.15l9.25-4.9m-35.9-8.55-1.15 2.25.05.1 1.1 1.55v-3.9" fill="#a5612d"/><path d="m33.75 22.1-5.3-4.2-3.4-6.55L19.9 22.6l-1.95-5.5 2.3-6.85 4.7-9.4L27.6 7.5l.75 5.05 2 5.65 3.4 3.9m-21.8 1V27l-1.1-1.55-.05-.1 1.15-2.25m2.95-8.5.2-.5 2.6 4.4 2.4 7 6.6 6.1q2.75 1.05 6.5 1.55l-4.95.1q-4.65-.75-9.8-5.2-2.8-5.3-3.55-13.45m12.9 26.3-4.05.65q-5.5-.5-10.7-4.8l-5.2-7.25q-.25-3 0-5.75l5.35 6.45 5.05 7.5 9.55 3.2" fill="#ffc558"/><path d="m7.85 29.5 5.2 7.25q5.2 4.3 10.7 4.8l4.05-.65h.05l.25-.05q4.5-1.1 8.5-2.75 0 8.1-5.05 10.65l-10.4 1.75q-2.45-1.25-4.45-2.75l-2.25-1.85-1.7-1.8-1.7-1.85-2-3.05q3.55 3.95 5.15 5.05Q11.15 42 8.9 36.7q-.8-3.85-1.05-7.2" fill="url(#m)"/><path d="m21.25 38.15-2.85-1.1-5.05-9.2-.4-6.45 1.95-6.8q.75 8.15 3.55 13.45 5.15 4.45 9.8 5.2l4.95-.1 1.55.2 2.15.7-7.7 4.45-7.95-.35" fill="url(#n)"/><path d="m40.65 8 5.65 18.5-11.75 4.4-8.95-1.35-5-4.3-.7-2.65 5.15-11.25 3.4 6.55 5.3 4.2-2.4-3.7-2.3-5.55-.6-3.8L40.65 8" fill="url(#o)"/><path d="m46.3 26.5 1.55 5.15-9.25 4.9Q33.1 39 27.55 39.7q-3.25-.5-6.3-1.55l7.95.35 7.7-4.45-2.15-.7-7.7-2.5-1.45-1.3 8.95 1.35 11.75-4.4m1.6 5.25 2.75 9-8.7 4.45-1.75 5.35-5.95 2.15-5.15.9q-4.4-1.3-7.95-3.1l10.4-1.75Q36.6 46.2 36.6 38.1q3.25-1.35 6.25-3.05l5.05-3.3" fill="#135a4f"/><path d="M15.45 48.55q-2.2-1.75-4.25-4l1.55-.45 1.7 1.8 2.25 1.85-1.25.8" fill="url(#p)"/><path d="m28.35 8.35 12.1-1 .2.65-12.2 1.05-.1-.7m22.3 32.4.2.6-8.5 4.85-1.75 4.9-6.4 2.15-6.45.85q-6.5-1-12.3-5.55l1.25-.8q2 1.5 4.45 2.75 3.55 1.8 7.95 3.1l5.15-.9 5.95-2.15 1.75-5.35 8.7-4.45" fill="#092924"/></g><g id="P" fill-rule="evenodd"><path d="m11.15 15.45.2-.55v.55l.85-.15 1.6-.2v-2.5l.05-.1v-.05h.1l.15.05.05.1v2.55l.95.4 1.25.5H20v-.9l.1-.35-.75-1.3 1.1-.25.65 1.1.05.4-.1.2.05.2v1.75l1.9 1.85 3.4.3.3.15 2.1 1.95-.2-2.15q-3-3.55-3.5-5.75v-.05l-.05-.45H25v-.55l.2-.6 1.25.05v.25l-.15.4-.2.5.05.25q.3 1.05 1.2 2.45l.1.2 2.1 2.7.1.3.3 3v.15l-.05.1-.05.15-.05.05v.05l-.1.35v.15l-1.5 2.6-.1.05h-.15l-.05-.05-.05-.05.05-.15 1.3-2.3-.3-.15-1.05-.95-1.75-1.55-3.4-.35-.3-.15-.85-.85h-.05l-3.1 2.5-.45.95-.85 2 2.5.25 1.05 1.8h-.05l-1.3-1.15h-2.8l.1.05.05.1q.25 2.1-.05 3.25-.25 1-.9 1.4l.3.1q1.3-.85 3.8-1.1l1.4 1.35-1.5-.3-2.05.45.1.05.05.15-.25 1.55-.5 2.95 1.3 2.15 1.35 2.25v.1l-.35 1.6.1.05.15.1 2-.95 1.75-.9.25-.35 1.85-2.7 1.15-1.55-.3-4.4.05-.1 1.2-1.9.05-.15.05-.1.05-.05.2-.4.1-.05h.15l.05.15v.15l-.15.2 5.05 2.9q1.75 1.95 1.7 3.15l.8 4-.05.15-.1.05h-.15l-.1-.1-.15-.95-.6-3.05v-.05q0-1.1-1.55-2.9l-5.05-2.85-.2.3-1 1.6.1 1.6.2 2.8-.05.1-3.2 4.65q1 1.9 1.25 4v2.55l-.35.7-.15.3-.1.1h-.15l-.1-.1v-.15l.2-.35.3-.6.05-1q0-2.8-1.25-5.2l-1.55.75-2 .95.05.05.05.1-.1.4q-.15.15-.35.25l-.4-.1-.05-.05h-.1v-.05l-.45-.2q-4.05-2.15-7.95-1.95l-2.45.4h-.25l-.35-.05-.2-.15Q1.75 36 .05 28.05v-.2l.8-3.5.95.55-.7 3.1q.75 3.5 2.35 6.3l.1-.1.8-.7 1.2-1.85.45-1.1-3.8-2.45-.15-.15-.1-.1v-.1l.15-.1h.05l.05.05 2.65 1.7 1.45.9.05.15v.1l-.55 1.4-1.25 1.85-.85.7h-.1v.05q1.7 2.8 4.25 4.85l.05.05h.05l2.2-.4-.25-.6-1.1-3.1-1.4-.1-2.4-.2-.65-.05-.15-.05-.05-.15.05-.1.15-.05.7.05 2.15.2 1.65.1 3.55-1.95 1.5-2.75-.35-.2-.25-.25-1.35-2.65-1.25 2-.1.1-2.4 1-1.25.5h-.1l-.1-.1v-.15l.1-.1 3.6-1.5 1.3-2.05.1-.1-.35-.65-.2-.45-.75-.5 1.4-.3.15.1.1.1 1.4 3 .55 1.1 1.2.55.05-.05q.55-.3.8-1.15.35-1.1.1-3.2l.05-.15.1-.05H15l-2.15-2.2-.15-.7-1.5.85H9.45l-.15-.4q1.9-.15 3.4-.95V19.1L11.45 18l.25-.3.1-.15.15-.35v.1l1.5 1.6.15.55.8-.95-2.35-2.7-.05-.1-.6.1h-.05v.1l-.2-.45m24.75-6.7.7.3.3.3h.05l.3.2q3.85 5.4 2.95 8.55l3.3 8.6.05.05.05.3-.1.4q-.65 1.1-.9 2.1-.7 2.55 1.55 3.8l.2.15.1.2v-.15l3.9 2q4.1 1.15 8.2.6l6.2 3.4 2.2 2.2-.35.05q-1.15.05-3-1.5L61 40l-2.35-1.7q-.8 1.6-4.25 1.7l4-1.8-1.5-.75-1.15-.4-8.3-.35-.5-.15-.35-.15q-2.8.9-4.5.8l3.7-1.2-1.4-.7-1.35-.7-.85-1.4-.6-1.15q-.5-1.15-.05-2.7l-3.1-1.2-.05-.1-.05-.1.55-1.75-.85-.3-3.2-1.35q.7-1.85 2.35-4.2l-4.15-2-.1-.1v-.1l1.25-3.35-3.4-1.1-.1-.05-.05-.15.55-3.05v-.3l.1-.1.15-.05.1.05.05.15-.05.2-.2 1.05-.3 2 3.4 1.05.05.05h.15l1.6-.85.7-.4h.15l.1.1v.15l-.05.1-2.35 1.3h-.15l-.15-.05-.05.25-.85 2.2-.25.75 4 1.95 2.1-.85-.35-.9v-.35q.85-2.8-2.7-7.75l-.05-.15h-.15l-1.75-.75 1.45-.55M.55 22.3v-.15q-.2-2.3.25-5.2l.05-.15 1.55-2.6.8.7-1.35 2.3q-.4 2.8-.25 5l-.15.6-.9-.5m35.4 1.05-.4.75 4.25 2.1 2.15-.65-2.35-6-1.3.5-.5.25-1.85 3.05m3.5 3.25-.25-.1-.4 1.35 2.8 1.2q.3-1 .9-2l-.4-1.1-2.5.7h-.15v-.05m2.25 17.65.25-.5.4-2.45-.9-2.95 1.45 2.85-.8 3.65-1.15 2.65-.7 1.65q-.7 3.65.35 6.15l.1.25.25.55-.3 2-.15.95-.55-.3v-1.3l.1-2.2-.25-.9-.05-.15q-.35-1.7-.3-4.25l2.25-5.7M54.35 54.4l-.65-1.95q-.6-.55-1.35-2.8l-.3-6.85.65 2.8v3.9l1.35 2.45.05.5.25 1.95M20.9 18.2l-.7-.7-.2-.4v-.65h-3.75l-1.55-.7-.75-.3-1.55.2 2.3 2.65.1-.1q1.15-.85 2.05-1.15 1.1-.45 1.8 0l.05.1v.15l-.1.05h-.15l-.85-.15q-1 .1-2.5 1.25H15l-.15.05-.05-.05-.05.1-1.15 1.5v2.25l1.55 1.85 1.5.3.3-.75 1.15-2.6.05-.05 3.15-2.5-.4-.35m-8.95-.9v.05-.05m-.35 16.65L9.1 35.3l1.4 3.75h.95v-.2l.05-.1 5.2-3.7.2-1.25.55-3.25.05-.1h.05l-1.1.25-.05.1v.05l-.3.25h-.4l-1.5-.65-1.5 2.85-.05.05-1.05.6m7.6 6.35.15-.65-.65-1.05-1.9-3.15-1 .7-4.05 2.9q3.6.1 7.25 2l.2-.75" fill="#092924"/><path d="m33.6 7.45-.75.5-.25.05-3.75-3.85q-5.4-2.2-9-1.55l-.05.35.1.05q.55.2 1.05.55l.55.4.35.25q2.25 1.75 4.45 5.65l-1.1.2q-2.75-4.65-5.55-6l-.95 6.15.75 1.35-1.3-.15-.5-.85-.05-.35.95-6.2.4-2.5-1.1.65q-2.85 1.95-5.5 6l-.55.9-.05.25q-.4 2.5-.4 5.6l-.2.55-.3.8-.55-.05.05-.25v-.05l-.05-.2v-2.4q.05-2.45.4-4.5v-.05l.15-.6.2-.6-.1.15.5-2.05-.75.4Q8.7 7.2 6.45 9.4L3.9 13.7l-.85-.6L5.6 8.8l.1-.15q3.65-3.5 6.5-4.55l.4.05.3.3v.35l-.2.5-.25.85.15-.3q3.25-4.3 6.8-5.8h.4l.3.2.05.4-.15.85q3.8-.6 9.35 1.7l.15.1 4.1 4.15M9.3 22.7l.15.4.15.2-1 .4q-1.3-2.5-1.75-6.35l-.05-.55-.15-1.4v-.45Q4.85 17.1 3.2 21.3l-.9 1.95-.85-.45.15-.6.6-1.3v.05q1.1-2.9 2.3-4.85l.05-.05.3-.4v-.05l.2-.3.35-.5.75-.9.6-.6q.15-.15.4-.15l.35.15.15.4.1 2.1.1.65v.5l.1.75q.25 1.75.65 3.15l.1.4.25.55.35.9" fill="#65597f"/><path d="m11.05 7.55-.2.6-.15.6v.05q-.35 2.05-.4 4.5v2.4l.05.2v.05l-.05.25-1.8-.25.9-4.75 1.65-3.65M18.55 4l-.95 6.2.05.35.5.85-2.05-.25.95-4.7L18.55 4m7.75 5.85q-2.2-3.9-4.45-5.65l1.6.1q4.6 2.3 6 4.65l-3.15.9m-19.45 7.5Q7.3 21.2 8.6 23.7l-2.05.75-.55.05q-.35-1.65.45-5.65l.4-1.5" fill="#b4a7d2"/><path d="m10.7 6.05.75-.4-.5 2.05.1-.15L9.4 11.2l-.9 4.75-.75-.15-.1-2.1-.15-.4-.35-.15q-.25 0-.4.15l-.6.6 1.35-2.75 3.2-5.1m7.15-3.9 1.1-.65-.4 2.5-1.5 2.45-.95 4.7-1.15-.15-.9-1.05 3.8-7.8m4 2.05-.35-.25-.55-.4 3.55.35q4.8 1.6 7.1 4.4l-2.15.65q-1.4-2.35-6-4.65l-1.6-.1M6.65 15.4l.15 1.4.05.55-.4 1.5q-.8 4-.45 5.65l-1.8-.25.5-2.9 1.95-5.95" fill="#8678a2"/><path d="m3.9 13.7 2.55-4.3Q8.7 7.2 10.7 6.05l-3.2 5.1-1.35 2.75-.75.9-1.5-1.1m8.45-5.55q2.65-4.05 5.5-6l-3.8 7.8-1.7-1.8m8.6-4.6q-.5-.35-1.05-.55l-.1-.05.05-.35q3.6-.65 9 1.55L32.6 8l-1 .3q-2.3-2.8-7.1-4.4l-3.55-.35M2.3 23.25l.9-1.95q1.65-4.2 3.45-6.35v.45L4.7 21.35l-.5 2.9h-.05l-1.85-1" fill="#fff"/><path d="M11.35 14.9q0-3.1.4-5.6l1.5 2.25-1.15 1.9.1 1.85-.85.15v-.55m5.6 8.8-.3.75-1.5-.3-1.55-1.85v-1.75l2.15 2.5 1.2.65M7.2 34.9l-2.15-.2-.5-.9 1.25-1.85 1.4 2.95m-2.2.15 2.4.2 1.85 3.2h-1.1L5 35.05m-.15-5.65L2.2 27.7l-.05-.05-.1-2.6 2.45 1.3.35 3.05M2.2 28.1 6 30.55l-.45 1.1-1.2 1.85-1.05-1.9-1.1-3.5m5.75-10.4 1.15.1-.5 3.05q-.4-1.4-.65-3.15M1.6 22.2q-.15-2.2.25-5l1.35-2.3 1.35 1.15-.05.05q-1.2 1.95-2.3 4.85v-.05l-.6 1.3m13.7 15.05-.55 1.05 4.45 2-.2.75q-3.65-1.9-7.25-2l4.05-2.9-.5 1.1" fill="#135a4f"/><path d="m33.6 17.35.85-2.2h2.15l1 3.6-4-1.4m2.65-3.65-1.6.85h-.15l-.05-.05-3.4-1.05.3-2L33 10.9l3.2 2.5.05.3m-5.05-3.25-.55 3.05.05.15.1.05 3.4 1.1-1.25 3.35v.1l.1.1 4.15 2q-1.65 2.35-2.35 4.2l3.2 1.35-.85 1.85 2 1.55q0 3.4 2.5 4.65l1.35.65 1.35.7-2.3 1.9q1.7.1 4.5-.8l.35.15.5.15 8.3.35 1.15.4q-2.6 1.95-5.45 2.5h1.4l.3.05h1.25q3.45-.1 4.25-1.7L61 40l.6.3q1.85 1.55 3 1.5l2 6.15-4.65 2.5-5.15 1q-1-.2-2.35-3.2l-1.1-4.7-1.9-2.45.6 1.7-.35 3.15q-.45 4.2 0 6.2l-9.7-.7 1.9-9.55-2.6-4 .15.45.9 2.95-.4 2.45-.25.5-3 4.8-5.1-3.6-7.75-4.4 1.85-5.75-.95-3.15-.1-1.6 1-1.6 4.8 4.45 2.65 6.85-.05-2.75.15.95.1.1h.15l.1-.05.05-.15-.8-4q.05-1.2-1.7-3.15l-5.05-2.9.15-.2v-.15l-.05-.15H28l-.1.05-.2.4-.05.05-.05.1-.05.15-2.2 1.4.1 6.55-1.85 2.7-5.3-4.4-.75-2.6.25-1.55-.05-.15-.1-.05L19.7 30l1.5.3-1.05-1.75H16.6q.3-1.15.05-3.25l-.05-.1v-.05h2.7l1.3 1.15.95 1q.7-1.6-1.7-4.1l-1.9-.95.45-.95 3.1-2.5h.05l.85.85.3.15 3.4.35 1.75 1.55-1.05 4.25 1.1-.65.05.05h.15l.1-.05 1.5-2.6v-.15l.1-.35v-.05l.05-.05.05-.15.05-.1v-.15l1.4-4.75-3.9-1.25-.1-.2q-.9-1.4-1.2-2.45l-.05-.25.2-.5.15-.4v-.25h.15l4.6-1.2m4.75 12.9 1.85-3.05.5-.25 1.35 5.1-3.7-1.8m-16.6-9.85.75 1.3-.1.35v.9h-3.65l-1.25-.5.1-1.6-.5-.95 4 .7.65-.2m-4.65 2.25 1.55.7H20v.65l.2.4.7.7-4.35 3.3-1.3-1.45-.15-1.6q1.5-1.15 2.5-1.25l.85.15h.15l.1-.05v-.15l-.05-.1q-.7-.45-1.8 0l-1.9-.35-.25-.95M13.6 28.1l-1.4-3-.1-.1-.15-.1-2.35-1.5v-.1l-.15-.2h1.75l1.5-.85.15.7 2.15 2.2h.9q-.1 2.85-.95 3.6l-1.35-.65m-3.05-2.9.75.5.2.45-.8 1.4-2.6 1.5-1.55-2.85 4-1M8.2 30.3l2.4-1 .1-.1 1.25-2 1.35 2.65.25.25.35.2-3.25 2.75L8.2 30.3M11.45 18l1.25 1.1v1.95l-3.75.75-.25-.55-.1-.4.5-3.05 2.35.2m.15 15.95 1.05-.6.05-.05 1.5-2.85 1.5.65h.4l.3-.25v-.05l.05-.1 1.1-.25h-.05l-.05.1-.55 3.25-2.7 2-2.6-1.85m7.1 4.65-3.4-1.35.5-1.1 1-.7 1.9 3.15" fill="#2baca4"/><path d="m34.45 9.3 1.75.75h.15l.05.15q3.55 4.95 2.7 7.75v.35l.35.9-2.1.85-4-1.95.25-.75 4 1.4-1-3.6h-2.15l.05-.25.15.05h.15l2.35-1.3.05-.1v-.15l-.1-.1h-.15l-.7.4-.05-.3-3.2-2.5-1.65.55.2-1.05 2.9-1.1m3.6 16.6.85.3-.55 1.75.05.1.05.1 3.1 1.2q-.45 1.55.05 2.7l.6 1.15.85 1.4-1.35-.65q-2.5-1.25-2.5-4.65l-2-1.55.85-1.85m6.35 9.4 1.4.7-3.7 1.2 2.3-1.9m12.5 2.15 1.5.75-4 1.8h-1.25l-.3-.05h-1.4q2.85-.55 5.45-2.5m-18.6-17.4 1.3-.5 2.35 6-2.15.65-4.25-2.1.4-.75 3.7 1.8-1.35-5.1m-8.35 1.65-.3-3-.1-.3-2.1-2.7 3.9 1.25-1.4 4.75M15.1 15.55l-.95-.4V12.9l.55.1.5.95-.1 1.6m-1.25-3.1v.05l-.05.1v2.5l-1.6.2-.1-1.85 1.15-1.9.6.9m25.6 14.15v.05h.15l2.5-.7.4 1.1q-.6 1-.9 2l-2.8-1.2.4-1.35.25.1m-11.9 1.95-1.2 1.9-.05.1.3 4.4-1.15 1.55-.1-6.55 2.2-1.4M21.2 30.3l-1.4-1.35q-2.5.25-3.8 1.1l-.3-.1q.65-.4.9-1.4h3.55l1.05 1.75m-.55-4-1.05-1.8-2.5-.25.85-2 1.9.95q2.4 2.5 1.7 4.1l-.95-1 .1.15-.05-.15m7.2-4.6 1.05.95.3.15-1.3 2.3-.05.15.05.05-1.1.65 1.05-4.25m-.2 7.25.2-.3 5.05 2.85q1.55 1.8 1.55 2.9v.05l.6 3.05.05 2.75-2.65-6.85-4.8-4.45M20.9 18.2l.4.35-3.15 2.5-.05.05-1.15 2.6-1.2-.65-2.15-2.5v-.5l1.15-1.5.05-.1.05.05.15-.05h.1l.15 1.6 1.3 1.45 4.35-3.3m-4.05-1.15q-.9.3-2.05 1.15l-.1.1-2.3-2.65 1.55-.2.75.3.25.95 1.9.35m-.95 8.1h.55l-.1.05-.05.15q.25 2.1-.1 3.2-.25.85-.8 1.15l-.05.05-1.2-.55-.55-1.1 1.35.65q.85-.75.95-3.6m-4.4 1 .35.65-.1.1-1.3 2.05-3.6 1.5-.1.1v.15l.1.1h.1l1.25-.5 2.45 2.75 3.25-2.75-1.5 2.75L8.85 35l-1.65-.1-1.4-2.95.55-1.4v-.1l-.05-.15-1.45-.9-.35-3.05.4.2 1.65-.35 1.55 2.85 2.6-1.5.8-1.4m-4.1 9.1 1.4.1 1.1 3.1h-.65l-1.85-3.2m3.95-19.35v-.1h.05l.6-.1.05.1 2.35 2.7-.8.95-.15-.55-1.5-1.6v-.25l-.1-.1-.5-1v-.05m1.35 5.15v.7q-1.5.8-3.4.95l-.35-.9 3.75-.75m4.2 12.75-.2 1.25-5.2 3.7-.05.1v.2h-.95L9.1 35.3l2.5-1.35 2.6 1.85 2.7-2" fill="#167e6f"/><path d="m23.6 39.2-.25.35-1.75.9-3.25-3.15-1.3-2.15.5-2.95.75 2.6 5.3 4.4m-4.4 1.1-4.45-2 .55-1.05 3.4 1.35.65 1.05-.15.65" fill="#177e6f"/><path d="m21.6 40.45-2 .95-.15-.1-.1-.05.35-1.6v-.1l-1.35-2.25 3.25 3.15m-1.65 1.3-.05-.05-.05-.05 2-.95 2.8 4.45-.05 1-.3.6-1.85-2.85-2.5-2.15" fill="#145b4f"/><path d="m51.1 59.05 4.15.45.45.05 5.05 1.6-4.9-.7h-5l-3.2-1.8 3.45.4m-5.55 1.7.55 1.15-5.7-2.35.1-.5.15-.95 4.9 2.65m-5.6-2q-4.5-2.6-8.75-6.85 5.05 3.85 8.75 5.55v1.3m-11.85-8.3.1 1.15-2.5-2.75-1.35-1.5.1-.1.15-.3 3.5 3.5M5.05 34.7l-.7-.05-.15.05-.05.1.05.15.15.05.65.05 3.15 3.4H9.9l.25.6-2.2.4-.1-.05Q5.3 37.35 3.6 34.55l.1-.05.85-.7.5.9m-2.9-7.05H2.1l-.15.1v.1l.1.1.15.15 1.1 3.5 1.05 1.9-.8.7-.1.1Q1.85 31.5 1.1 28l.7-3.1.25.15.1 2.6" fill="#b0eaf1"/><path d="m32.6 8 .25-.05.75-.5.5.55 1.8.75-1.45.55-2.9 1.1.05-.2-.05-.15-.1-.05-.15.05-.1.1v.3l-4.6 1.2h-.15l-1.25-.05.35-.35.1-.05-.3-.8-.15-.35 1.1-.2 3.15-.9 2.15-.65 1-.3M3.05 13.1l.85.6 1.5 1.1-.35.5-1.35-1.15-.25.4 1.4 1.05v.05l-.3.4L3.2 14.9l-.8-.7.65-1.1m7.25 3.1.55.05.3-.8.2.45v.05l.5 1 .1.1v.15l-.15.35-.15.1.05.05-.25.3-2.35-.2-1.15-.1-.1-.75 2.9.1-.15-.35-.1-.05-2.65-.2-.1-.65.75.15 1.8.25m1.45-6.9.05-.25.55-.9 1.7 1.8.9 1.05 1.15.15 2.05.25 1.3.15 1 1.7-1.1.25-.65.2-4-.7-.55-.1v-.3l-.05-.1-.15-.05h-.1l-.6-.9-1.5-2.25m20.7-.65L27.1 10.3l-.1.6q3.35-.5 5.8-1.7l-.35-.55M.85 24.35v-.15l-.3-1.9.9.5.85.45 1.85 1 .05.05v-.05l1.8.25.55-.05 2.05-.75 1-.4v.1l2.35 1.5-1.4.3-4 1-1.65.35-.4-.2-2.45-1.3-.25-.15-.95-.55m13.1-12.8.45.6 4.8 1.05-.7-1.2h-3.2l-1.15-1.05L12.5 9.4l1.45 2.15M4.95 25l-2.3-1.05-.2.55 2.25 1.35.15.1 5.1-1.1-.75-.45-4.05.65-.2-.05" fill="#953e02"/><path d="m32.45 8.65.35.55q-2.45 1.2-5.8 1.7l.1-.6 5.35-1.65m-18.3 2.3L15.3 12h3.2l.7 1.2-4.8-1.05-.45-.6.2-.6m-6.3 5.5 2.65.2.1.05.15.35-2.9-.1v-.5m-3.15 9.4.25-.85.2.05 4.05-.65.75.45-5.1 1.1-.15-.1" fill="#af610b"/><path d="M13.95 11.55 12.5 9.4l1.65 1.55-.2.6m-8.9 3.75-.2.3-1.4-1.05.25-.4 1.35 1.15M4.7 25.85 2.45 24.5l.2-.55L4.95 25l-.25.85" fill="#faad00"/><path d="m21.85 40.7 1.55-.75q1.25 2.4 1.25 5.2l-2.8-4.45" fill="#177e6e"/><path d="m73.35 50.45 1 1.1-6.9 1.35-.95 3.3-5.75-.65 1.3 6.35-1.2.3-5.5-1.25-1.3 2.45-6.95-2.9.8 3-3.2-.95q-6.3-1.15-14.5-10L29.75 54q-2.15-1-4.4-3.4l.35-1.75 2.5 2.75-.1-1.15-.25-1.55-2.05-3.4 4.8 5.8.5.45.1.15q4.25 4.25 8.75 6.85l.55.3-.1.5 5.7 2.35-.55-1.15.2-3.15 1.9 1.05 3.2 1.8h5l4.9.7.35.05-.15-1.35-.85-5.3 5.8.8.55-1.5.5-1.45 6.4-1.95" fill="#4e230c"/><path d="m40.95 47.5 1.3 6.6 8.85 4.95-3.45-.4-1.9-1.05-.2 3.15-4.9-2.65.3-2-.25-.55-.1-.25q-1.05-2.5-.35-6.15l.7-1.65m14.3 12-.9-5.1-.25-1.95 6.85 7.4.15 1.35-.35-.05-5.05-1.6-.45-.05M31.2 51.9l-.1-.15-.5-.45-4.8-5.8 2.05 3.4.25 1.55-3.5-3.5.35-.7V43.7l.3.4 9.7 7.3 4.8 2.8.05.15.25.9-.1 2.2q-3.7-1.7-8.75-5.55" fill="#915f30"/><path d="M60.1 54.55q1.25-.6 6.35-.7l-.55 1.5-5.8-.8" fill="#7d5f34"/><path d="m41.45 38.35-.15-.45 2.6 4-1.9 9.55 9.7.7q-.45-2 0-6.2l.35-3.15.3 6.85q.75 2.25 1.35 2.8l.65 1.95.9 5.1-4.15-.45-8.85-4.95-1.3-6.6 1.15-2.65.8-3.65-1.45-2.85" fill="url(#q)"/><path d="m26.75 32.15.95 3.15-1.85 5.75 7.75 4.4 5.1 3.6 3-4.8-2.25 5.7q-.05 2.55.3 4.25l-4.8-2.8-9.7-7.3-.3-.4q-.25-2.1-1.25-4l3.2-4.65.05-.1-.2-2.8" fill="url(#r)"/><path d="m64.6 41.8.35-.05 8.4 8.7-6.4 1.95-.5 1.45q-5.1.1-6.35.7l.85 5.3-6.85-7.4-.05-.5-1.35-2.45v-3.9l-.65-2.8-.6-1.7 1.9 2.45 1.1 4.7q1.35 3 2.35 3.2l5.15-1 4.65-2.5-2-6.15" fill="url(#s)"/><path d="M25.35 50.6 23.1 48l-1.25-2.6-2.8-3 .05-.05.4.1q.2-.1.35-.25l.1-.4v-.05l2.5 2.15 1.85 2.85-.2.35v.15l.1.1h.15l1.35 1.5-.35 1.75" fill="url(#t)"/><path d="m19.05 42.4-.05-.1h.05l.05.05-.05.05" fill="url(#u)"/><path d="m61.5 46-.3-1.85 1.8-9.9L78.65 22.8l1.5 1.3L64 34.25l-.9 4.3L61.5 46" fill="#0a2823"/><path d="m80.15 24.1 7.9 6.65L84 32.6l-13.85 6.2Q63.7 40.05 64 34.25L80.15 24.1" fill="#39a89a"/><path d="m62.85 55-.7-4.6 4.35-2.15v-.1q-.75-3.85-3.4-9.6l.9-4.3q-.3 5.8 6.15 4.55L84 32.6 69.75 49.45l-6.5 3.25h3.65l-.75 2.3h-3.3" fill="url(#v)"/><path d="m88.05 30.75 1.85 1.6-3.25 12.8-13.4 5.6L67 52.4l-.1.3h-3.65l6.5-3.25L84 32.6l4.05-1.85" fill="url(#w)"/><path d="M62.15 50.4 61.5 46l1.6-7.45q2.65 5.75 3.4 9.6v.1l-4.35 2.15" fill="#4ea68f"/><path d="m86.65 45.15-.75 3.2-18.5 4.75-.6 3.15-3.85-.6-.1-.65h3.3l.75-2.3.1-.3 6.25-1.65 13.4-5.6" fill="#4e230c"/></g><g id="Q" fill-rule="evenodd"><path d="m23.25 34.7-.5 1.55-6 4.6L8.5 46.2l-.5-.75-2.5-3.4-2.95-7.3-1.2 2.15.05.15q.55 4.2 1.35 6.7l.8 3.35.5.9 7.05 6.85.4 7.5.15 2.3 2.95-2.15 2.85-5 .2-.35 1.75-1.3 5.85-4.4 3.75-5.3-.15 1.55q-.6 1.95-2.85 4.95l-6.85 4.6-1.65 2.45 1.65 12.35L19 75.7l-.15 1.45L23.7 75l5.1-2.3 4.15-4.7 2.8-5 3-2 2-2.1.75-.8-1.25 2.9-3.85 2.35 2.2 5.7 5.9-3.3 7.1-6.6v2.6L45.75 67q-4.8 3.5-8.65 4.05l-1.45-4.8-6.2 7.6-12.15 5.4.45-6.35-1.3-11.6-2.1 3.05-4.9 2.55.55-4.35-.35-7.35-6.85-6.95Q-.6 39.6.1 27.65l5.5-8.5q1.9-2.45 3.5-6.65l1.55-7.55.95-.15-.25 1.95.55 4.2.75 2.05.2.55.1.2 5.05-2.3q1.9-2.2 2.9-2.3l-.15.2-2.65 2.85-5.6 2.2Q11.35 12.8 11 9l-.95 4.5.3 6.75q1.9-.6 3.9-1.6 2.45-1.3 4.95-3.2l5.55-6.4-1.95 3.1-1.15 1.8-2.8 2.8q-4.5 2.8-9.1 4.4l-.5-5.6-2.1 3.7Q6.4 27.1 8.6 29.5l1.75-1.55 6.9-5.05 5.65-3.3 2.05-2.2.05 1.25-2.65 2.4-.45.3-4.85 2.9-9.15 6.5-1.8-4.65v-5.4l-3.4 5.2-1.2 1.8-.25.35.15 7.5.9-2-.7-5.35 1.35 5.05.05.25v-.3q2.25 6.9 5.35 11.7l.5.6 14.4-10.8" fill="#65597f"/><path d="m43 15.85-.75 1.4-3.05 2.15-6.4 4.5-2.65 2-4.95 7-1.05 1.85q2.35 5.7 3.95 8.15l.25.25 1.45 1.2q6.35 5.05 12 7.6l-1.9-.75q-5.85-2.5-11.9-7.35-2.3-2.85-4.15-8.55l-.1.2-.25.15-.75.6.5-1.55 1.6-2.8.3-.25 3.85-5 2.35-2.5 9.75-6.65 1.15-2-2.5-6.25.3-9.05 1-.2-.7 6.75.15 2.4 2.5 6.7M24.95 17.4l3.65-4 2.9-4q.1 1.05-.9 2.6l-.1.15-1.95 2.3-.1.2-3.05 3.6-.4.4-.05-1.25" fill="#092924"/><path d="M14.25 18.65q-2 1-3.9 1.6l-.3-6.75L11 9q.35 3.8 1.5 5.4l5.6-2.2 2.65-2.85.15-.2 5.3-6.45 1.8-.25-2.85 3.7-6.3 8.25-4.6 4.25m-1.4-5.1-.2-.55.85-8.45L25 2.85 23 5.4l-6.25 5.7-3.9 2.45M4.05 48l-.5-.9-.8-3.35q-.8-2.5-1.35-6.7l-.05-.15 1.2-2.15 2.95 7.3 2.5 3.4L4.05 48m6.3-20.05L8.6 29.5q-2.2-2.4-1.45-10.25l2.1-3.7.5 5.6q4.6-1.6 9.1-4.4l2.8-2.8 1.15-1.8v4.95L10.35 27.95M2.7 25.9l3.4-5.2v5.4l1.8 4.65 9.15-6.5 4.85-2.9Q19 31.9 14.75 37.5q-4.25 5.5-6.4 7.4Q5.25 40.1 3 33.2l-.3-7.3m-1.1 2.3.7 5.35-.9 2-.15-7.5.25-.35.1.5" fill="#fff"/><path d="m24.85 31.9-1.6 2.8-14.4 10.8-.5-.6q2.15-1.9 6.4-7.4Q19 31.9 21.9 21.35l.45-.3 2.65-2.4.4-.4 2.05-.25-.7 3.9.7.65-1.2 4.7-.95 3.8-.45.85m-2.1 4.35.75-.6q.65 4.7 1.7 7.25-.15 1.95-.55 2.7l-.45.9-4.8 9.35-1.75 1.3-.2.35-5.95 4.85-.4-7.5L4.05 48 8 45.45l.5.75 8.25-5.35 6-4.6M24.8 15.9l.15.15v1.35l-2.05 2.2-5.65 3.3-6.9 5.05L22.8 17.1v-4.95l1.95-3.1-5.55 6.4q-2.5 1.9-4.95 3.2l4.6-4.25 6.3-8.25-.4 2.9-.8 5.95.85.9m-3.9-6.75q-1 .1-2.9 2.3l-5.05 2.3-.1-.2 3.9-2.45L23 5.4l2-2.55 1.2-.15-5.3 6.45M12.65 13l-.75-2.05-.55-4.2.25-1.95 1.9-.25-.85 8.45M19 75.7l.15-3.65L17.5 59.7l1.65-2.45 6.85-4.6q2.25-3 2.85-4.95l2.25 8.45q-3.2 10.45-8.7 15.7L19 75.7m-17.5-48 1.2-1.8.3 7.3-.05.05L1.6 28.2l-.1-.5" fill="#b4a7d2"/><path d="m41.8 51.95 9.8 3.95v3.25l-7.1 6.6-5.9 3.3-2.2-5.7L40.25 61l1.25-2.9-.75.8-5.15 3.45-7.15 9.15L23.7 75l-4.85 2.15.15-1.45 3.4-3.85q5.5-5.25 8.7-15.7l-2.25-8.45.15-1.55-3.75 5.3-5.85 4.4 4.8-9.35.45-.9q.4-.75.55-2.7-1.05-2.55-1.7-7.25l.25-.15.1-.2Q25.7 41 28 43.85q6.05 4.85 11.9 7.35l1.9.75M17.45 57.5l-2.85 5-2.95 2.15-.15-2.3 5.95-4.85" fill="#8678a2"/><path d="m40.75 58.9-2 2.1-3 2-2.8 5-4.15 4.7-5.1 2.3 4.75-3.5 7.15-9.15 5.15-3.45" fill="#b0eaf1"/><path d="m33.75 1.35-1.9 5.15-7.05 9.4-.85-.9.8-5.95.4-2.9L28 2.45l5.75-1.1m-3.25 10.8 1.4 9.1L27.75 26l-1.5 1.25 1.2-4.7-.7-.65.7-3.9-2.05.25 3.05-3.6.1-.2 1.95-2.3m2.3 11.75-.45 8-.1.25q-1.6 7.5-3.9 11l-.25-.25q-1.6-2.45-3.95-8.15l1.05-1.85 4.95-7 2.65-2" fill="#2baca4"/><path d="m39.2 19.4 1.7 4.6-.75 5.35-2.9 5.35-3.95 11-3.5-1.35-1.45-1.2q2.3-3.5 3.9-11l.1-.25.45-8 6.4-4.5m-7.85 4.75L29 26.65l-3.85 5 .15-.6.95-3.8 1.5-1.25 4.15-4.75-1.4-9.1.1-.15q1-1.55.9-2.6l-2.9 4-3.65 4v-1.35l-.15-.15 7.05-9.4 1.9-5.15 3.9-.75.75 15.8-7.05 7.75" fill="#167e6f"/><path d="m39.2 19.4 3.05-2.15.75-1.4 8.6 11.55q22.7 12.7 0 28.5l-9.8-3.95q-5.65-2.55-12-7.6l3.5 1.35 3.95-11 2.9-5.35.75-5.35-1.7-4.6M40.05.2l-.3 9.05 2.5 6.25-1.15 2-9.75 6.65 7.05-7.75L37.65.6h.05l2.35-.4" fill="#135a4f"/></g><g id="R" fill-rule="evenodd"><path d="m20.2 24.55.6.8-10.3 8.3-4.7 3.45-1-3.95L.6 35.3q-1-1.7-.35-5.35L8.7 18.6l.05.05q-1.25 2.7-4.4 6.65L.8 30.75l.35 3.4L4.8 32.4l.7-5.45L12.35 18l.7-.1-6.9 9.5q-.9 6.1-.15 8.25l.15.3 4.6-3.3 9.45-8.1M6.6 31.2l.65-3.8q1.45-2.3 2.4-3.2L7.9 27.3l-1.3 3.9" fill="#511c63"/><path d="m15.8 18.65 4.4 5.9-9.45 8.1-4.6 3.3-.15-.3.6-4.45 1.3-3.9 1.75-3.1.25-.2.1-.1 5.8-5.25m-7.05 0v-.05l3.6-.6-6.85 8.95-.7 5.45-3.65 1.75.95-3.85 1.55-2.65.7-2.35q3.15-3.95 4.4-6.65" fill="#702788"/><path d="m13.05 17.9 1.9-.3.85 1.05L10 23.9l-.1.1-.25.2q-.95.9-2.4 3.2l-.65 3.8-.6 4.45q-.75-2.15.15-8.25l6.9-9.5m-8.7 7.4-.7 2.35L2.1 30.3l-.95 3.85-.35-3.4 3.55-5.45" fill="#b73ec6"/><path d="m11.55 35.2.4-4 1.3-2.6-.75.45q-.5-.7-.45-3.25l.4-1.7-1.1.55-.6-1.5.45.1.35.75.65-.15h.05l.2.25.45.6-.2 3.1v.55l.75-.75v1.6l-1.05 2-.05 1.55-.05 1.15-.75 1.3M20.3 9.35l.3-1.15q1.3.4 1.9 4.35v.3l.25 2 .9-1.9.7-5.7q1.75 1.2 2.7 5.2.8 4.4 0 6.9l2.05-2.4-.1 3.15v.75l-.05 1.85-.6 2.3-.25.7-.6 1.75-.65 1.35-3.35 3.05-1.9 2.65-1.1 1.2.05-2.1.05-.5v-.65l1.25-4.75-1 1.25-2.05 2.6q-.3-.65-.3-1.95l.1-.7.1-2.15q1.3-3.15 2.55-5.15l-2.5 3-.15-.4-.1-.25v-.1l.05-.7.6-2.75.45-3.05V14.8q-.85-4.35-1.7-5.1l.95.3.65 1.9q.55 2.25.5 5.3l.1.3-1.05 5.45 2.6-2.5-.05.3.85-.8-.45 1-2.85 6.35v3.35l4.1-5 1.55-1.85-2.05 3.45q-1.5 3.95-1.7 6.45v.4l-.05.6 1.8-2.85 3.3-3.05.25-.2q1.85-2.45 2.2-7.9l.05-.6.1-1.8-2.5 2.75q1.55-5.15.15-8.85l-1.75-4-.3 3.65L23 15.7l-.65.6-.05-.1-2-6.85" fill="#8f6728"/><path d="m21.65 20.45.65-4.15h.05l.65-.6 1.3-3.85.3-3.65 1.75 4q1.4 3.7-.15 8.85l2.5-2.75-.1 1.8-.05.6q-.35 5.45-2.2 7.9l-.25.2.45-1.85.55-4.7-.8 1.65.05-2.45q-.45 1.75-1.55 2.35l-1.55 1.85 1.35-4.85q.4-2.3.25-4.7l-.35 1.1-.15.9-.4-2.15-.75 3.25-1.2 1.75.45-1-.85.8.05-.3m-10.45 2.8q.5.2 1 .6l-.65.15-.35-.75m1.7 1.45.45.9v.2l-.65 2 .2-3.1m.55 4.5v.4l-.05.15-.15 1.4-.05.4-.85 1.2.05-1.55 1.05-2" fill="#e1ba77"/><path d="m14.15 5.85.6-1.4 5.4 5.5.15-.6 2 6.85v.1l-.65 4.15-2.6 2.5 1.7-3.25.4-5.75-1.6-2.75-.05.7-.65-1.9-.95-.3-3.75-3.85m-.8 19.95.1.2v1.6l-.75.75v-.55l.65-2m-.15 5.75-.55 1.65-.35.7.05-1.15.85-1.2m12.9-2.75-3.3 3.05L21 34.7l.05-.6v-.4l4.4-7q.65-1.1.85-2.8l.8-1.65-.55 4.7-.45 1.85m-2.85-3.15-4.1 5v-.95q2.4-3.75 4.8-8.9l.4-2.7.15-.9.35-1.1q.15 2.4-.25 4.7l-1.35 4.85" fill="#af894b"/><path d="m19.5 11.9.05-.7 1.6 2.75-.4 5.75-1.7 3.25 1.05-5.45-.1-.3q.05-3.05-.5-5.3m1.55 21.8q.2-2.5 1.7-6.45l2.05-3.45q1.1-.6 1.55-2.35l-.05 2.45q-.2 1.7-.85 2.8l-4.4 7m-1.9-4v-2.4L22 20.95l1.2-1.75.75-3.25.4 2.15-.4 2.7q-2.4 5.15-4.8 8.9" fill="#ffe2b0"/><path d="m14.75 4.45 1.4-1.15 4.45 4.9-.3 1.15-.15.6-5.4-5.5m1.9-1.15L28 0l9.5 8.25 2 11.8-1.05 5.55-4.05 14.1-1.15.5-4.15-14.15-1.6 1.4.6-1.75 5.5-3.1 3.65-7.55-.35-2.45-.4 2.25-1.15-.3.4 1.9-2.75 5.9L28.35 25l.6-2.3.05-1.85 2.85-2.1 1.9-5.65-.85-4.85v5.65l-1.8 4.45L29 20.1l.1-3.15-2.05 2.4q.8-2.5 0-6.9-.95-4-2.7-5.2l-.7 5.7-.9 1.9-.25-2v-.3l-.05-2.3q-.1-.7-.8-1.95l-5-5" fill="#135a4f"/><path d="m20.15 43-.4.1-.9-.25.9-9.05.8-.7v.5l-.05 2.1-.15 3.75-.2 3.55M7.6 21.7l6.55-15.85L17.9 9.7q.85.75 1.7 5.1v2.55l-.45 3.05-5.05 2.05-1.7.6-.1-.05q-.85-.45-2.1-.45l-2.6-.85m10.65 7.5-.1-2.45.45-2.55.15.4 2.5-3q-1.25 2-2.55 5.15l-.1 2.15-.35.3m2.6-.25 1-1.25-1.25 4.75v.1l-.85.7 1.1-4.3" fill="#8678a2"/><path d="m17.3 42.45-7.2-2 1.3-3.05 3.95-1.1 2.15-.95-.2 7.1M16.15 25.7l1 3.65-2.15 1.7-.75-1.1.1-.55-.25-3.6-.1-.45.65 1.5 1.5-1.15m-1.55.2-.8-1.2q-.45-1.1-1.4-1.65l1.7-.6 1.65 2.2-1.15 1.25m-2.65 10.25.1-.25q1.05-2.05 1.8-4.8l.65 1.45 2.8-1.95.2 3.05-3.9 2.2-1.65.3" fill="#fff"/><path d="m10.1 40.45-1.2-.35 2.65-4.9.75-1.3.35-.7.55-1.65.05-.4.15-1.4.05-.15V26l-.1-.2v-.2l-.45-.9-.45-.6-.2-.25h-.05q-.5-.4-1-.6l-.45-.1-.8-.05-2.7-.85.35-.55 2.6.85q1.25 0 2.1.45l.1.05q.95.55 1.4 1.65l.8 1.2.25.35 3.7-3.1-.05.7v.1l-2.35 1.75-1.5 1.15-.65-1.5.1.45.25 3.6-.1.55-.2.65.55 1.2 2.65-1.65 1-.95.35-.3-.1.7-1.2 1-2.8 1.95-.65-1.45q-.75 2.75-1.8 4.8l-.1.25-.35.75 3.85-1.05 2.55-1.2 1.75-1.4.85-.7v.55h-.05l-.8.7-1.3 1.1-.95.45-2.15.95-3.95 1.1-1.3 3.05" fill="#65597f"/><path d="m18.85 42.85-1.55-.4.2-7.1.95-.45 1.3-1.1-.9 9.05m-2.7-17.15 2.35-1.75.1.25-.45 2.55.1 2.45-1 .95-2.65 1.65-.55-1.2.2-.65.75 1.1 2.15-1.7-1-3.65m2.4-2.55-3.7 3.1-.25-.35 1.15-1.25-1.65-2.2 5.05-2.05-.6 2.75M17.3 30.6l1.2-1q0 1.3.3 1.95l2.05-2.6-1.1 4.3-1.75 1.4-2.55 1.2-3.85 1.05.35-.75 1.65-.3 3.9-2.2-.2-3.05" fill="#b4a7d2"/><path d="m20.5 35.7 1.1-1.2 1.9-2.65 3.9-1.95-.5 2.3-6.55 7.25.15-3.75" fill="#2baca4"/><path d="M33.25 40.2 20.15 43l.2-3.55 6.55-7.25.5-2.3-3.9 1.95 3.35-3.05.65-1.35 1.6-1.4 4.15 14.15m3.25-25.35-.75 1.6-.4-1.9 1.15.3" fill="#167e6f"/><path d="M16.15 3.3h.5l5 5q.7 1.25.8 1.95l.05 2.3q-.6-3.95-1.9-4.35l-4.45-4.9M37.5 8.25l2.2 1.95.8 11.7L37 38.2l-2.6 1.5 4.05-14.1 1.05-5.55-2-11.8M28.1 25.7l.25-.7L33 22.35l2.75-5.9.75-1.6.4-2.25.35 2.45-3.65 7.55-5.5 3.1m.9-4.85v-.75l2.1-1.75 1.8-4.45V8.25l.85 4.85-1.9 5.65-2.85 2.1" fill="#092924"/><path d="m29.9 38.1-.4-3.05v-.35l1.25-2.4-.35-3.55L33 22.2l.3-.2.35 1.95 3.75-3.35 6.4-4.35q-4.9 4.25-9.7 9.2L29.9 38.1" fill="#fff"/><path d="m38.1 34.85.65-.4L39.9 34l-.45.9 4.65-1 9.55-6.1 8-7.4-.35 5.75-12.5 8.8-3.15-.5-3 1.55-6.1 1.4.7-.8.85-1.75m13.45-24.8 1.9.1.45 4.25-17.6 13.05-1.05 8.1-5.3 2.95-.05-.4 4.2-12.65q4.8-4.95 9.7-9.2 3.85-3.35 7.75-6.2" fill="#702788"/><path d="m39.9 34 2.4-3.5 11.85-13.6.3 3.25 7.3-1.55-.1 1.8-8 7.4-9.55 6.1-4.65 1 .45-.9m-10.4.7.25-4.3.65-1.65.35 3.55-1.25 2.4M33.3 22q7.85-6.1 15.75-12.1l2.5.15q-3.9 2.85-7.75 6.2l-6.4 4.35-3.75 3.35L33.3 22" fill="#eb55ff"/><path d="m37.45 35.25-7.9 4.65q-1.15-2.85-1.3-9.4l1.55-3.2 1.85-6L48.1 8.5l6.55.8.4 9.7 8.75-1.75-.9 8.75-8.75 6.8-9.55 6-5.1.4-1.65-.75 6.95-.75 4-2.75 12.5-8.8.35-5.75.1-1.8-7.3 1.55-.3-3.25L42.3 30.5 39.9 34l-1.15.45-.65.4q-.3.15-.65.4M53.9 14.4l-.45-4.25-1.9-.1-2.5-.15q-7.9 6-15.75 12.1l-.3.2-2.6 6.55-.65 1.65-.25 4.3v.35l.4 3.05.05.4 5.3-2.95 3.95-2.25L50 19.7l4.05-3.55-.15-1.75" fill="#511c63"/><path d="m48.8 34.95-4 2.75-6.95.75-1.6-.7.3-.35 6.1-1.4 3-1.55 3.15.5m5.1-20.55.15 1.75L50 19.7 39.2 33.3l-3.95 2.25 1.05-8.1L53.9 14.4" fill="#b73ec6"/><path d="m39.5 39.2-1.35.1-3.35-1.4 2.65-2.65q.35-.25.65-.4l-.85 1.75-.7.8-.3.35 1.6.7 1.65.75" fill="#953e02"/><path d="M5.45 40.8v-.2l.3-2.7q3.1-2.9 6.15-4.6l1.45-.4q1.2 1.5 2.1 3.7l-.9-.25-1.25-2.9-.5.25Q9.65 35.1 6.2 38v4.75q.3 4.4.95 6.45l.15.35 2.55-1.85 2.2-1.6.35-.45.1.15.5.2-.55.7-.15.2q-.1.05-.25.15l-4.85 3.1q-.65-.8-1.1-2.95l-.2-.8-.05-.4-.1-.35-.15-.8-.05-.9-.1-3.15" fill="#850e1c"/><path d="m2.3 38.95-.8 1.15q1.9 3.3 4.1 4.75l.15.8-2.4-1.55-.2.4-.2.4 1.8 1.5H5.9l.2.8-.7.1q-2.45-.4-3.8-2.25l.7-1.75-.55-.65-.15-.15-1.4-2.6 2.1-2.75-.2-1.25 2.65-3.55L5 33.4l-.75 1.1-1.1 1.65 2.3 4.45v.2l-.8.15-1.85-2.8-.5.8" fill="#953e02"/><path d="m2.3 38.95.5-.8 1.85 2.8.8-.15.1 3.15Q4 42.2 2.3 38.95m1.95-4.45L5 33.4l.85 3.6 6.05-4.3v.6Q8.85 35 5.75 37.9l-.15.1-1.35-3.5m-1.1 10 .2-.4 2.4 1.55.1.35-2.7-1.5M24 40.75l2.65-1.2 9.5-6.6 2.25-4.8-.1 3.15-1 3.05-.25 1.35-3.45 3.45-3.45 1.25-6.6 1.15h-4.3l2.2-.55h.95l1.6-.25h.05H24m-1.75 2.8 4.2-.55 8.7-3.95.7-.9 3.05 1.6-2.95 2.65-6.9 1.25-6.8-.1m-1.35 3.6 10.65-1.9-1.25 1.65-2.3.45-7.1-.2" fill="#af610b"/><path d="m5 33.4-.25-1.05.8-1.1.7 4.6 5.65-4.2v1.05L5.85 37 5 33.4" fill="#55205c"/><path d="M5.6 44.85Q3.4 43.4 1.5 40.1l.8-1.15q1.7 3.25 3.25 5l.05.9m-.15-4.25-2.3-4.45 1.1-1.65L5.6 38l.15-.1-.3 2.7m.45 5.8H4.75l-1.8-1.5.2-.4 2.7 1.5.05.4m24.25-6-6.2 2.35-6.3-.25-3.6-1.5.15-.15 7.25.15-2.2.55h4.3l6.6-1.15m-16.75 5 .3-.4 6.7.9 8.65-2.25 6.9-1.25-1.75 1.5-14 2.8-6.8-1.3m4.3 1.65 1.6.35 1.6-.25 7.1.2-6.95 1.2-3.35-1.5" fill="#faad00"/><path d="m12.8 33.7.5-.25 1.25 2.9-1.45-.75-4.75 3.3 4.95 2-.2.1 2.3 1.4-.9.95-4.95-2.1 2.85 4.4-.35.45-2.2 1.6q-1.45-3.4-1.95-8v-1.55l1.6-1.85 3.3-2.6" fill="#c3162d"/><path d="M7.9 38.15v1.55q.5 4.6 1.95 8L7.3 49.55l-.15-.35.05-2.95.05-7.45.65-.65" fill="#9f0d20"/><path d="m12.4 45.65-2.85-4.4 4.95 2.1-1.45 1.45-.65.85m.9-4.75-4.95-2 4.75-3.3 1.45.75 1.05 2.3-.25.1-2.05 2.15" fill="#ff2d48"/><path d="m12.8 33.7-3.3 2.6-1.6 1.85-.65.65-.05 7.45-.55-3.75v-3.95L6.2 38q3.45-2.9 6.6-4.3m2.45 5.95 8.75 1.1-1.6.25h-.95l-7.25-.15 1.05-1.2" fill="#fff"/><path d="m6.2 38 .45.55v3.95l.55 3.75-.05 2.95q-.65-2.05-.95-6.45V38" fill="#ff566d"/><path d="m14.5 43.35.9-.95.6.3-1.95 1.8-.35.5-.3.4-.4.6-.5-.2-.1-.15.65-.85 1.45-1.45" fill="#982f17"/><path d="M15.4 42.4 13.1 41l.2-.1 2.05-2.15.25-.1.5-.35.3-.2 8.1-2.8 8.8-5.9 6.35-2.15-1.8 8.45-1.4 2 3.45 1.6-1.85 2.5-3.15 2.35-1.85.7-2.35 2.7-11.05 2-7.6-2.5q.15-.1.25-.15l.15-.2 6.8 2.2 1.8-.35 6.95-1.2 2.3-.45 1.25-1.65-10.65 1.9-1.6.25-1.6-.35L13 46l.4-.6 6.8 1.3 14-2.8 1.75-1.5 2.95-2.65-3.05-1.6-.7.9-8.7 3.95-4.2.55-1.35.15-4.9-1-.6-.3m23-14.25-5.35 2.25-7.9 5.45-9.45 3.3-.45.5-1.05 1.2-.15.15 3.6 1.5 6.3.25 6.2-2.35 3.45-1.25 3.45-3.45.25-1.35 1-3.05.1-3.15" fill="#974307"/><path d="m15.25 39.65.45-.5 9.45-3.3 7.9-5.45 5.35-2.25-2.25 4.8-9.5 6.6-2.65 1.2-8.75-1.1M13.7 45l.35-.5L16 42.7l4.9 1 1.35-.15 6.8.1-8.65 2.25-6.7-.9m-1.25 1.7L13 46l4.7 1.05 3.35 1.5-1.8.35-6.8-2.2" fill="#faf700"/><path d="m14.55 36.35.9.25.65 1.7-.5.35-1.05-2.3" fill="#850d1c"/></g><g id="S" fill-rule="evenodd"><path d="M72.1 92.9q.15 6.35-1.2 11l-6.15-8V93l2.7 3.35 2.2 3.6.45.7q.75-3.6.25-10.05l1.75 2.3m-15.6 2q.3 5.6-.6 9.5l-1.25 2.95-6.25-9.75v-.75l.25-2.8 5.45 9.45.05.45q1.35-3.7.5-11.5l.2.3 1.65 2.15M35 96.6v.05l-3.85 9.45-2.15-3.15q-1.3-2.85-1.75-7.05l1.4-2.6q.4 6.75 2 10l.45-1.15 3.15-8.35.6 2.35.15.45" fill="#65597f"/><path d="M71.9 90.05h.05l.15 2.85-1.75-2.3-1.95-2.25q-1.8-2.8-3.85-3.85l-.15-.35q-.9 4.05.35 8.6v1.65l-1.25-.35-.85-1.85-.5-3.35-.05-.6q-.35-3.85 1.05-7.1-.7 4.3-.4 7.5.2 3.25 1.1 4.5l-.45-5.1q.1-3.85.95-4.4l2.35 2 1.45 1.2 2.35 3.3-.1-1.4-4.15-5.05-.8-.95-2.05-1.5-.15-.35.1-.3.9.75.25.15q2.9 2.4 5.15 5.2v.1l.5.6.85 1.25.9 1.4M56.7 92.2l.15.2-.35 2.5-1.65-2.15-.2-.3-2.15-3.5-3.05-3.25q-1.05 3.05-.8 8.35l-.25 2.8-.5-.6L46.75 95l-.4-1.35.15.15-.05-.5-.05-.5q-.3-2.5.1-6.1.45-3.7 1.6-5.45h.05l.25.25 3.55 3.75.15.15 1.4 1.85.15.1.45.6.05.1.55.75 1.15 1.95.85 1.45m-29.45 3.7-.3-2.6-.05-.25.45-1 1.8-4.15.35-.75L32 83.6l1-1.45.2.5 2.4 5.55.05.1.15.8.35 1.75-.15 3.1-.6 1.1-.55 1.1-.6-2.35q-.15-4.9-2-7.5l-.25.55-3.35 6.45-1.4 2.6m5.7-12.75-.1-.2-2.2 3.4-2.65 5.2v1.4l4.05-7.4.55-.1.15-.05.9 1.9v.15q.75 1.85 1.1 3.75l.2 3.45.55-2q0-3-1.3-6.7l-.4-1.05-.85-1.75m15.15-.95q-1.2 4.6-1.25 9.65l-.05.65 1.2 2.8v-.75q-.65-6.25 1.1-9.8l1.95 1.7q2.45 2.45 4.35 6.1l.15-1-1.65-2.65q-1.55-2.55-3.3-4.45l-.15-.15-2.15-2-.15-.1-.05-.05v.05" fill="#953e02"/><path d="m32.6 85.45.35-2.3.85 1.75.4 1.05-.55 1.35-.9-1.9-.15.05m30.8-4.2 2.05 1.5.8.95.45 1.95-2.35-2-.95-2.4m-14.3 3.5-.8-2.45 2.15 2 .15.15.45 2-1.95-1.7" fill="#af610b"/><path d="M34.2 85.95q1.3 3.7 1.3 6.7l-.55 2-.2-3.45q-.35-1.9-1.1-3.75v-.15l.55-1.35m32.05-2.25 4.15 5.05.1 1.4-2.35-3.3-1.45-1.2-.45-1.95m-15.65.75q1.75 1.9 3.3 4.45l1.65 2.65-.15 1q-1.9-3.65-4.35-6.1l-.45-2" fill="#faad00"/><path d="m32.6 85.45-.55.1-4.05 7.4v-1.4l2.65-5.2 2.2-3.4.1.2-.35 2.3m30.65-4.55.15.35.95 2.4q-.85.55-.95 4.4l.45 5.1q-.9-1.25-1.1-4.5-.3-3.2.4-7.5l.1-.25M48.1 82.2h.05l.15.1.8 2.45q-1.75 3.55-1.1 9.8v.75l-1.2-2.8.05-.65q.05-5.05 1.25-9.65" fill="#faf700"/><path d="m32 86.85.25-.55q1.85 2.6 2 7.5l-3.15 8.35-.4-3.15q.05-7.25 1.3-12.15m32.55-2.35q2.05 1.05 3.85 3.85l1.95 2.25q.5 6.45-.25 10.05l-.45-.7-1.25-5.8-3.85-9.65m-9.9 7.95q.85 7.8-.5 11.5l-.05-.45-1.45-8.35-3.2-9.45 3.05 3.25 2.15 3.5" fill="#b4a7d2"/><path d="M28.65 93.3 32 86.85q-1.25 4.9-1.3 12.15l.4 3.15-.45 1.15q-1.6-3.25-2-10m36.1-.3v-.25q-1.25-4.55-.35-8.6l.15.35 3.85 9.65 1.25 5.8-2.2-3.6-2.7-3.35M54.1 103.5l-5.45-9.45q-.25-5.3.8-8.35l3.2 9.45 1.45 8.35" fill="#fff"/><path d="m29.05 42.35.9-1.65 11.95 4.05Q49.15 56.8 54 67.2l3.1 5.7 2.4-1.8 5.4 1.65q4.85 4.85 8.85 12.5l-1.85 4.8-.9-1.4 1-3.85-3-5.45h-1.45q2.05 1.9 3.95 5.25l-1.35 2.8-.5-.6v-.1l1.2-2.2-3.65-5.1-1.7-.65q-1.05-.8-2.9-1.25l-1.25-.3q-1.45 2.05-2.1 4.55l-.5 2.65q1.25 3.75 2.4 4.85l.95-1 .05.6-1.2 1.25-.25-.45-2.1-3.55-.5 1.55-.8 2.2L59.65 93l3.85 1.05 1.25.35v1.5l-.1-.2-4.7-.7L57 91.8l-.3.4-.85-1.45.55-1.2.75-1.95-.25-1.8-1-1.4-.45.5-.85.9-.5 2.15-.45-.6-.15-.1.5-2.4-.45-.85-.75-.85-.15-.15-2.2-2.1-.15-.15-1.25-.9q-1.2-.8-2.35-1.15l-1.1 2q-1 1.85-1.45 4.65-.3 1.95-.35 4.3v1.25l2.6 1.9.05.5-.1.35-5.45-3.6 1.05 2.7 1.3 1.8 3.35 1.65 1.3.05.5.6v1.05l-5.25-1.55L40.5 93q-1.75 3.45-5.5 3.6l-.15-.45.55-1.1 3.75-1.5.95-1.8-.95-3.7-.95 2.35-2.4-1.3-.15-.8-.05-.1 2.2 1.45 1.2-2.8-.45-2.5v-.1l.4-3.35q-1.65-1.75-3.55-2.75l-1.25-.55-2.1-.65-2.3 1.7-.95.7-2.65 7.3.8 1 .55-.1.8-.15 1.2-.25-.35.75-1.9.3-.5.05-.85-.65-.25 1.25.55 1 1.15 2.2-.45 1 .05.25q-1.65-1.45-2.75-4.2l-.05-.15.5-2.65q2.1-7.8 6.4-11.65l-.75-2.7-3.4-8.7-4.85-8.2.85-1.5 3.95 7.1 7-7.05 6.65-4.1 1.2.5 2.05.9-2.7-4.4-6.3-2.15-5.7-2m13.5 8.7-2.05-.65-6.75 4.25-6.5 6.8.65 1.2q5.7.7 10-1.2 3.4-2.05 6.5-5.95v-3l-.45-1-1.4-.45m3.85 7.7-2.75-1.25-.1.05q-3 3.7-6.3 5.05l-6.35 1-1.15 2.4.65 1.4 8.75 1.4q4.5-.75 7.35-4.8l.9-3.25.35-1.4-1.35-.6M30.3 63.4l-2-.1 1.1 2.05.9-1.95m10.35 5.9-1.5.5-6.25-.9-1.1 1.85.6 1.95v.3l.25 1.15 2.1-1 .25.15 3.85 2.25.15.1.85 1.6.7-2.45 4.25-3.1 3.8.8.8-.7.1-.05.7-.6 1.3-3.55.3-.9-.4-1.2-1.85-.95-1.9-.95-2.75 3.65q-2.25 1.25-4.25 2.05m-9.15.65 1.2-1.45-2-.45.8 1.9m4.15 7.7 2.85 1.5.65 1.35.25-1.4-1.4-3.25-3.75-1.55-.3.2-1.25.85-1 .65-1.8 1.2-.8 1.45 1.8-1.25 1.35-1.05 2.05.9 1.35.4m9.7-4.9-.45-.25-3.75 2.9-.2 1.95-1.55 6.2.85 3.6.5 2.4 2.7 1.35.7-8.4v-.25l2-4.25 2.3.8.85.35.2.15 3.15 2.7.85.75 1.1 1.95.65-.9.25-.35-2.6-4.1-.75-1.3-1.8-2.8q-1.85-1.8-5-2.5m-.3-17.1v.1l-.95 1.3 1.95.8 2 .8-3-5v2m4.35 8.25 1.65.6-2.5-4.25-.4 1.5-.4 1.5 1.65.65m15.85 10.55-.1-.2.05.15-5.05-1.65-.6-.2-2.95 2.6-.95 6.25 1.6 3.5.75 1.75.4-1.3-.25-2.25q1.2-3.75 2.35-5.85v-.05l.1-.15 1.05-.4.25-.15 2.4 1.05 2.8 1.25.25-.05 1.05-.1-3.15-4.2m-10.9-2.95-2.1-4.25-.3 1.15-.7 2.6 3.1.5m.6 8.25.95-5-1.3-2.55-3.4-.95-1.8 1.7q2.75 2.05 5.55 6.8" fill="#092924"/><path d="m35 73.3-.25-.15-2.1 1L32.4 73v-.3l-.6-1.95 1.1-1.85 6.25.9 1.5-.5 4.5-1.15L47 67.1l2.5 4.65-.1.05-.8.7-3.8-.8-4.25 3.1L35 73.3m-1.05 1.2.3-.2L38 75.85l1.4 3.25-.25 1.4-.65-1.35-2.85-1.5-1.7-3.15m1.45 3.65q1.9 1 3.55 2.75l-.4 3.35v.1l.45 2.5-1.2 2.8-2.2-1.45-2.4-5.55.9 1 .5.6q1.4-1.2.8-6.1m.4 10.95 2.4 1.3.95-2.35.95 3.7-.95 1.8-3.75 1.5.6-1.1.15-3.1-.35-1.75m9.55-16.35q3.15.7 5 2.5l1.8 2.8.5 3.95-3.15-2.7-.1-.2-4.05-6.35m-1.2 9.75-.7 8.4-2.7-1.35-.5-2.4 1.9 1.25.15-1q.65-3.65 1.85-4.9m-11.9-15.85q6.45-1.6 12-6.25l1.65 3.1q-2.85 3.25-6.05 4.9l-7.6-1.75m-5 21.55 1.9-.3-1.8 4.15-1.15-2.2 1.05-1.65m2.25-1.05-1.2.25 3.7-3.8-2.5 3.55m20.95-6.25 2.2 2.1.15.15.75.85.45.85-.5 2.4-1.4-1.85-.15-.15-3.55-3.75 1.7.75.9.4-.55-1.75m3.65 7.05.5-2.15.85-.9.8 1.5.15 3.15-.55 1.2-1.15-1.95-.55-.75-.05-.1m-6.2 8.3-1.3-.05-3.35-1.65-1.3-1.8-1.05-2.7 5.45 3.6.4 1.35 1.15 1.25m-1.5-3.45-2.6-1.9v-1.25l1.4.9.55-3.4v-.1q.65-3.3 1.45-5.9l.9.1Q46.95 83 46.5 86.7q-.4 3.6-.1 6.1m18.8-18.4.05.1 2.1 4.25-.25.05-2.8-1.25-4.15-4.8 5.05 1.65m-4.7 2.85q-1.15 2.1-2.35 5.85l.25 2.25-.4 1.3-.75-1.75q0-2 1.25-4.95l.35-.75 1.65-1.95m4 4.2 2.15 1.25-1.15-3.95 1.7.65 3.65 5.1-1.2 2.2q-2.25-2.8-5.15-5.2v-.05m-1.35-.3q-1.4 3.25-1.05 7.1l-.95 1q-1.15-1.1-2.4-4.85l2.4 3.8.6-3.75.15-1.25 1.25-2.05m-1 7.7.5 3.35.85 1.85L59.65 93l-2.35-3.15.8-2.2q1.75 2.35 2.6 2l.25.45 1.2-1.25" fill="#167e6f"/><path d="m34.3 77.25-2.05-.9-1.35 1.05.8-1.4 1-.65 1.05.9.55 1m-4.55 1.4 2.3-1.7 2.1.65q1.3 3.35-.05 6.05l-.9-1-.2-.5-1 1.45-3.7 3.8-.8.15v-2.4q1.05-3.7 2.25-6.5m18.7.15-2.3-.8-2 4.25v.25q-1.2 1.25-1.85 4.9l.65-5q-1.25-1.1-1.3-4.7.2-3.95 3.7-2.55 2.3 2.1 3.1 3.65m-4.3 6.55q.45-2.8 1.45-4.65l1.1-2q1.15.35 2.35 1.15l1.05 2.4-1.7-.75-.25-.25h-.05l-.9-.1q-.8 2.6-1.45 5.9l-1.6-1.7m17.5-8.7-1.05.4-.1.15v.05l-1.65 1.95-.35.75q-1.55-2.3-.15-4.75 1.85-.25 3.3 1.45m.95.85 1.85 3.9-.2-.05-.9-.75-.1.3-.1.25-1.25 2.05-.15 1.25-2.5-2.7q.65-2.5 2.1-4.55l1.25.3" fill="#4cffd7"/><path d="m33.95 74.5 1.7 3.15-1.35-.4-.55-1-1.05-.9 1.25-.85m-3.05 2.9-1.8 1.25.8-1.45 1.8-1.2-.8 1.4m3.25.2 1.25.55q.6 4.9-.8 6.1l-.5-.6q1.35-2.7.05-6.05m6.1 9.55-.85-3.6 1.55-6.2.2-1.95 3.75-2.9.45.25 4.05 6.35-.1.05-.85-.35q-.8-1.55-3.1-3.65-3.5-1.4-3.7 2.55.05 3.6 1.3 4.7l-.65 5-.15 1-1.9-1.25m-14.05 2.7-.55-1 .25-1.25.85.65.5-.05-1.05 1.65m1.3-2.3-.55.1-.8-1 2.65-7.3.95-.7q-1.2 2.8-2.25 6.5v2.4m16.3 2.1q.05-2.35.35-4.3l1.6 1.7v.1l-.55 3.4-1.4-.9m5.25-9.8 1.25.9.15.15.55 1.75-.9-.4-1.05-2.4m15.25-2.3-2.4-1.05-.25.15q-1.45-1.7-3.3-1.45-1.4 2.45.15 4.75-1.25 2.95-1.25 4.95l-1.6-3.5.95-6.25 2.95-2.6.6.2 4.15 4.8m-1.7-.05q1.85.45 2.9 1.25l1.15 3.95-2.15-1.25-.05-.05-1.85-3.9m-.85 6.95-.6 3.75-2.4-3.8.5-2.65 2.5 2.7m-3.65 3.2.5-1.55 2.1 3.55q-.85.35-2.6-2" fill="#2baca4"/><path d="m34.75 44.35 6.3 2.15 2.7 4.4-2.05-.9-.9-1.4-6.05-4.25m9.65 9.75-1.85-3.05 1.4.45.45 1v1.6m2 4.65 1.35.6-.35 1.4-1-2m3.15 5.8 1.85.95.4 1.2-.3.9-1.95-3.05m3.35 14.8 2.6 4.1-.25.35Q54 82.4 52.9 79.35m2.55 5.55.45-.5 1 1.4.25 1.8-.75 1.95-.15-3.15-.8-1.5m-10.3-29.15-.1-.1v-2l3 5-2-.8-.9-2.1m3 6 .4-1.5 2.5 4.25-1.65-.6-1.25-2.15m17.1 12.75v-.05l3.15 4.2-1.05.1-2.1-4.25m4.9 12.9 1.35-2.8q-1.9-3.35-3.95-5.25H69l3 5.45-1 3.85-.85-1.25m-18.2-19 .3-1.15 2.1 4.25-2.4-3.1" fill="#b0eaf1"/><path d="m22.9 53.55 6.15-11.2 5.7 2 6.05 4.25.9 1.4-1.2-.5-6.65 4.1-7 7.05-3.95-7.1m21.5.55v1.4q-3.1 3.9-6.5 5.95-4.3 1.9-10 1.2l-.65-1.2 6.5-6.8 6.75-4.25 2.05.65 1.85 3.05m3 6.65L46.5 64q-2.85 4.05-7.35 4.8l-8.75-1.4-.65-1.4 1.15-2.4 6.35-1q3.3-1.35 6.3-5.05l.1-.05 2.75 1.25 1 2M30.3 63.4l-.9 1.95-1.1-2.05 2 .1m10.35 5.9q2-.8 4.25-2.05l2.75-3.65 1.9.95 1.95 3.05-1.3 3.55-.7.6L47 67.1l-1.85 1.05-4.5 1.15m-.1 5.5-.7 2.45-.85-1.6-.15-.1L35 73.3l5.55 1.5m-9.05-4.85-.8-1.9 2 .45-1.2 1.45m20.65 8.1.75 1.3q1.1 3.05 2.35 4.45l-.65.9-1.1-1.95-.85-.75-.5-3.95m-19.9-11.4 7.6 1.75q3.2-1.65 6.05-4.9l-1.65-3.1q-5.55 4.65-12 6.25m12.8-10.9h.1l.9 2.1-1.95-.8.95-1.3m3.1 6 1.25 2.15-1.65-.65.4-1.5m3.8 6.65 2.4 3.1-3.1-.5.7-2.6m3 11.35q-2.8-4.75-5.55-6.8l1.8-1.7 3.4.95 1.3 2.55-.95 5" fill="#135a4f"/><path d="m30.15 23.4 1.65.6-2.6-3.8 1.3-.65.75 1.35 3.15 4.35 3.5 1.65v.05l1.05 5.55.4-.75q.9 1.25.95 5.65l-2 13.25q-3.4 9.05-9.2 11.8h-4.85q-6.45 0-13.45-4.95-2.4-1.7-4.85-4l-2.7-4-1.35-5.6.75.35-1.35-4 .9-1.15-1.25-3.45 1.25-.7 1 2.75 1.85-2.25L10.9 14.3l1.15-4.15 9.9 7.7 2.95 3.5 1.7.65 3.55 1.4m-2 9.15L19.1 25.8l-.3.9-4 12.05-4.15 6.4L9 47.6l-1.5.55L3.65 46l2.6 5.5.8.9 4.45 4.75 1 .5q6.75 3.35 14.45 4Q30.45 60.7 33 58q1.8-1.85 3.15-4.6l1.8-7.75.85-5.75.15-5.35-.8 1-.85 1-.4.5-3.25-1.4-3.25-1.45-2.25-1.65M18.7 25.5l.15-.4q1.65.75 3.25 1.65 4.45 2.6 8.65 6.4L34.5 35l1.85.9 1.15-2.1.1-.2q.65-1.95-.8-4.75l-.65-1.2-4.25-1.9-3-1.35-4.15-1.9-4.25-4.3-7.25-5.95-.85-.65-4.75 19.1-1.05 3-1.1 3-2.6 4.1.8 2.4.65 2.05 3.5 1.65L14.1 38l2.15-5.75.85-2.35 1.6-4.4" fill="url(#x)"/><path d="m29.2 20.2-.9-1.3q-3-4.4-7.8-8.65-3.2-2.85-7.2-5.55L8.7 2.4l-1.05-.5-3.5 9.6q-1.35 3.95-2.1 7.65l-.15.9q-1.4 7.2-.3 13.25l.6 1.65-1.25.7-.9-2.45V30q-.2-5.05.8-10.25 1.05-5.7 3.6-11.55L7.4 0l9.55 5.7q8.25 5.2 13.55 13.85l-1.3.65" fill="#8d582b"/><path d="m2.2 34.95-.6-1.65q-1.1-6.05.3-13.25l.15-.9L8.3 8.9l2.6 5.4-5.85 21.15L3.2 37.7l-1-2.75" fill="url(#y)"/><path d="m17.1 29.9-.85 2.35-5.15 6.5-4.8 5.45-2.6-1-.8-2.4 2.6-4.1 1.1-3 4.3-6.3 2.35-7.05 3.85 9.55" fill="url(#z)"/><path d="m24.4 45 1.65 10.25-1.65.75q-9.95 0-17.35-3.6l-.8-.9-2.6-5.5 3.85 2.15L9 47.6l1.65-2.45 6.6-7.15 2.2-2.75L24.4 45" fill="url(#A)"/><path d="m18.8 26.7.3-.9 9.05 6.75 2.5 13.85-.9 5.75q-1.5 1.95-3.7 3.1L24.4 45 23 39.45 18.8 26.7" fill="#a5925c"/><path d="M22.1 26.75q-1.6-.9-3.25-1.65l-.15.4-5.45-13.25 7.25 5.95 4.25 4.3 4.15 1.9 3.8 6-.55.65-10.05-4.3" fill="#c98d4c"/><path d="m8.7 2.4 4.6 2.3L26.6 22l-1.7-.65-2.95-3.5-9.9-7.7L8.7 2.4" fill="#d08d4a"/><path d="M2.05 19.15q.75-3.7 2.1-7.65l3.5-9.6 1.05.5 3.35 7.75-1.15 4.15-2.6-5.4-6.25 10.25M18.8 26.7 23 39.45 24.4 45l-4.95-9.75-2.2 2.75-6.6 7.15 4.15-6.4 4-12.05m-.1-1.2-1.6 4.4-3.85-9.55-2.35 7.05-4.3 6.3 1.05-3 4.75-19.1.85.65L18.7 25.5" fill="#ffe359"/><path d="M16.25 32.25 14.1 38l-6.25 8.9-3.5-1.65-.65-2.05 2.6 1 4.8-5.45 5.15-6.5" fill="#488f69"/><path d="M26.05 55.25q2.2-1.15 3.7-3.1l.9-5.75-2.5-13.85 2.25 1.65 3.25 1.45 1.65 4.45v3.3l2-6.85.85-1q-.15 4.2-1.4 10.05l-4.7 9.8q-2.85 3-5.35 3.85l-14.2-1.6-1-.5-4.45-4.75Q14.45 56 24.4 56l1.65-.75" fill="url(#B)"/><path d="m33.65 35.65 3.25 1.4.4-.5-2 6.85v-3.3l-1.65-4.45M28.9 24.4l3 1.35 4 2.9 1.6 5.15-1.15 2.1-1.85-.9v-1.85l-1.8-2.75-3.8-6" fill="#265a49"/><path d="m34.5 35-3.75-1.85q-4.2-3.8-8.65-6.4l10.05 4.3.55-.65 1.8 2.75V35" fill="#84784b"/><path d="M20.5 10.25q6.25 7.25 9.65 13.15L26.6 22 13.3 4.7q4 2.7 7.2 5.55" fill="#a5612d"/><path d="M20.5 10.25q4.8 4.25 7.8 8.65l.9 1.3 2.6 3.8-1.65-.6q-3.4-5.9-9.65-13.15M38.8 39.9l-.85 5.75-1.8 7.75Q34.8 56.15 33 58l2.45-5.1.55-3 2.8-10m-6.9-14.15 4.25 1.9.65 1.2q1.45 2.8.8 4.75l-.1.2-1.6-5.15-4-2.9" fill="#b0eaf1"/><path d="m38.15 35.55.8-1-.15 5.35-2.8 10-.55 3L33 58q-2.55 2.7-6.05 3.65-7.7-.65-14.45-4l14.2 1.6q2.5-.85 5.35-3.85l4.7-9.8q1.25-5.85 1.4-10.05" fill="#135a4f"/></g><g id="T" fill-rule="evenodd"><path d="m13.85.7.15.4 1.1 11.7v.25q1.5 14.7 4.15 27.85 8.35 16.3 19.3 27l.2.35-.1.4-.35.2-2.55.45-1.1.05 15.55 19.3.05.15L53 95.65v.45l-.35.3q-1.95.8-4.4.45 4.9 19.85 1.05 34.85v.05l-2.85 9-.25.35-.4.05-.35-.15-3.2-3.55q-5.4 16.9-17.35 24.8v-.05q-7.55 5.25-10.8 5.65l-.4-.05-.2-.3v-.45q3.75-7.85 5.2-15.55 2.3-12.4-1.5-24.3l-8.6-22.55v-.3l.15-.25q9.45-12.4 1.9-30.65Q.05 61.2 0 50.85q.05-8.5 3.75-20.15L12.5.45q.05-.25.25-.4h.45l.3.25.1.3.25.1m.5 15.85Q13.55 9.8 13 2.75l-2.25 7.85-2.45 8.5-3.45 11.95Q1.2 42.5 1.15 50.85 1.25 59.7 9.3 70l2.3 2.8.1.15q7.75 18.75-1.9 31.6l8.45 22.3q3.45 10.7 2.05 21.8-1.15 8.8-5.25 17.85l.2-.1q2.85-.95 7.9-4.4l1.1-.75q11.9-7.8 17.15-24.8l-.5-.6-3.15-3.45-.15-.45.05-.1-.15-.2-2.15-5.45-.1-.6-.05-.2-.05-.5q-.2-1.15-.05-1.55.1-.35.4.35l.1.1.15.45.65 1.55 2.15 5.4v.4l.05.05 7.05 7.85.3-.9 2-6.4.05-.1.2-.7v.05q3.45-13.45-.3-30.9l-.9-4q-2.15-.6-4.7-2.05l-.25-.35.05-.45.35-.25.45.05q2.5 1.45 4.55 2l.2.05 3.6.1.45-.1-2.45-6.25-15.8-19.65-.15-.3q-4.3-.1-8.7-2.1l-.5-.3-.95-.65-1.6-1.1q-2.85-1.95-.9-1l3.1 1.4 1.35.6q4.75 2.25 9.55 2l2.35-.25q-10.65-10.6-18.75-26.5l-.05-.2q-2.35-11.7-3.85-24.7" fill="#4e230c"/><path d="M9.3 70Q1.25 59.7 1.15 50.85q.05-8.35 3.7-19.8L8.3 19.1v14.45Q9.9 50 14.75 61.45l4.25 10-4.6-6.9 4.75 10.05L24 83.1l-7.85-9.8q-5.9-7.4-10.7-18.7Q6.55 64.75 9.3 70m25.1 38.65L30.45 87l6 14.7 1.5 18.6-3.55-11.65" fill="#fec458"/><path d="M34.65 68.2q-4.8.25-9.55-2l-1.35-.6-3.1-1.4q-1.95-.95.9 1l1.6 1.1.95.65 12.15 18.8 14 9.3 1 .6-3.6-.1-.2-.05q-2.05-.55-4.55-2l-.45-.05-.35.25-4.2-2.7-3-2 5.55 7.45.8 15.25L40 125.15l5.95 13.45-.3.9-7.05-7.85-.05-.05v-.4l-2.15-5.4-.65-1.55-.15-.45-.1-.1-3.5-7.85-2.7 14.1-9 18.7q1.4-11.1-2.05-21.8l-8.45-22.3q9.65-12.85 1.9-31.6l-.1-.15L9.3 70q-2.75-5.25-3.85-15.4 4.8 11.3 10.7 18.7L24 83.1l-4.85-8.5-4.75-10.05 4.6 6.9-4.25-10Q9.9 50 8.3 33.55V19.1l2.45-8.5-.7 17.55.15.85q3.1 20.45 10.55 30.7l7.1 4.55 4.4 1.7 2.4 2.25m-.25 40.45 3.55 11.65-1.5-18.6-6-14.7 3.95 21.65" fill="#d08d4a"/><path d="M10.75 10.6 13 2.75q.55 7.05 1.35 13.8l-.6 9.15q2 15.25 8.25 29l8.75 9.9 1.5 1.35-4.4-1.7-7.1-4.55Q13.3 49.45 10.2 29l-.15-.85.7-17.55m37.2 121.6-2 6.4L40 125.15l1.25-13.45-.8-15.25L34.9 89l3 2 6.4 8.45 2.6 13.7 1.05 18.95v.1m-12.45-8.5q-.3-.7-.4-.35-.15.4.05 1.55l.05.5.05.2v.6l.65 10.65q-6.15 15.45-15.05 22.6l-5.6 6.95-.2.1q4.1-9.05 5.25-17.85l9-18.7 2.7-14.1 3.5 7.85m14.75-28.65-14-9.3-12.15-18.8.5.35 7.25 5.3 18.4 22.45" fill="#a5612d"/><path d="M14.35 16.55q1.5 13 3.85 24.7l.05.2q8.1 15.9 18.75 26.5l-2.35.25-2.4-2.25-1.5-1.35L22 54.7q-6.25-13.75-8.25-29l.6-9.15m10.25 50.7q4.4 2 8.7 2.1l.15.3 15.8 19.65 2.45 6.25-.45.1-1-.6-18.4-22.45-7.25-5.3v-.05M42.1 93.7l-.05.45.25.35q2.55 1.45 4.7 2.05l.9 4q1.8 20.1.2 30.9l-.1.65h-.05l-1.05-18.95-2.6-13.7L37.9 91l4.2 2.7m-6.75 32.5 2.15 5.45.15.2-.05.1.15.45 3.15 3.45-4.6 9.3Q30.25 155.6 23.15 162q-5.05 3.45-7.9 4.4l5.6-6.95q8.9-7.15 15.05-22.6l-.65-10.65h.1" fill="#6b3213"/><path d="M47.9 100.55q3.75 17.45.3 30.9h-.1q1.6-10.8-.2-30.9m-7 35.3.5.6q-5.25 17-17.15 24.8l-1.1.75q7.1-6.4 13.15-16.85l4.6-9.3" fill="#aee5ec"/></g><g id="U" fill-rule="evenodd"><path d="m12.85 56.25-.1.25-.15 2.25-.1 1.6v.5l-.1 1.75-.1.2-.8 1.55q-.05-3.8.55-8.9l.05-.35.1-.75L10 56q-3.7 4.3-5.9 7.5l.1-1.5.05-.1v-.4l.6-.8q3.8-5.15 7.65-7.85l.35 3.4M13.7 42l-.45 1.1-.8.75-2.3 9.8-2.55-3q-2.4-5.2-2.5-12.7l3.05-5.45 1.15-1.55.8-.35-3.75 7.55q.25 7 1.8 11.7l.9 1.1.7.85.25-4 2.1-5.5 2.35-2.15-.6 1.45-.15.4" fill="#6d688c"/><path d="m42.2 57.5-.85 2.35-.1.15-11.95 8 .25-.6 5.7-5.05 6.95-4.85M8.6 48.8q-1.2-5.95.25-12.15l2.9-5.8 1.6 1.95-2.9 4.2Q8.2 43.35 8.7 48.8h-.1m2.9 7.5-.1.7-2.05 5.7L8 70.25 5.1 72.4l.7-2.25q1.55-5.4 4.05-11.55l1.65-2.3m19.3-13.8.7-.65.25 2.5-6.9 11.15 3.25-8.15 2.7-4.85" fill="#8678a2"/><path d="m29.3 68 11.95-8-1 1.85-.6.75-.8.95-7.5 3.9-2.25 1 .2-.45M13.35 32.8l1.95 3.45-.65 2.9L11 42.3l-1 5.5-.25 4-.7-.85-.25-1.1-.1-1.05q-.5-5.45 1.75-11.8l2.9-4.2M11.4 57l-.4 3.7q-.3 3.3.25 4.4l-.85 2.05-2.4 3.1 1.35-7.55L11.4 57m13.45-1.5 6.9-11.15q0 2.5-.4 4.9L24 58.35l-.05-.5.9-2.35" fill="#b4a7d2"/><path d="m8.75 29.75.85-.9 2.4-1.4.4.35 3.1 2.95 2.95 4.9-.1.4v.4l-.75 4.35-1.15 1.25-.3.3-1 1.1-1.9-.35.45-1.1 1.4.5.9-1 .95-1.05.4-3.3.25-2.05-.4-.55-2.6-3.6L12 28l-1.7 1.1-.45.9 1.1-.4.35.3 2.2 1.95L15.85 36v.5l-.3 2.35-.2 1.4-.75.7-.75.65.6-1.45.2-1 .65-2.9-1.95-3.45-1.6-1.95-.8-.6-.85.35-.8.35-1.15 1.55-.3-.7.9-2.05m2.5 35.35.2-.45.05-.3.8-1.55 1.1 2.7q-.3 1.5-1.3 3.35l-1.15 1.85-1.5 2.05q-2.7 2.4-5.2 2.15-1.95-1.95-2.55-7.65l.35-2.95L4.2 62l-.1 1.5-.25 4.5q.2 1.75.5 2.9.25 1.05.7 1.45v.05h.05L8 70.25l2.4-3.1.85-2.05m-7.2 6.05-.65-1.9-.3-5.2-.75.95q0 3.75.7 6.15l.45 1.1 1.1 2.05.1.1.05.05q1.6 0 3.5-1.55L9 71.85l2.4-3.25 1.35-2.95-.65-1.25q.15 2.1-2.3 4.95L9 70.4Q6.6 73.3 4.85 73l-.25-.1-.55-1.75" fill="#953e02"/><path d="m42 61.75-.6.8-2.8 2.8h-.8l1.7-1.6 1.45-1.95 1.05-.05m-24.65-24.6-.4 3.3L16 41.5l-1.4-.55.75-.7.2-1.4 1.8-1.7M9 70.4l.8-1.05q2.45-2.85 2.3-4.95l.65 1.25-1.35 2.95L9 71.85V70.4m24.45-26.95.05 1.85-.9 4.6-.15.5-.95.6.6-1.7.25-4.5 1.1-1.35" fill="#faad00"/><path d="m42.6 57.85 1.85-1.35q-.95 2.85-2.45 5.25l-1.05.05 1.2-2.05.45-1.9m-25.4-23.3.4.55-.25 2.05-1.8 1.7.3-2.35 1.35-1.95M4.85 73q1.75.3 4.15-2.6v1.45l-.75 1.05q-1.9 1.55-3.5 1.55l-.05-.05-.1-.1.25-1.3M32 41.2l.1-.1 1.25-1.8.1 4.15-1.1 1.35-.3-3.45-.05-.15" fill="#af610b"/><path d="m43 55.75.15-.05 1.6-.3-.3 1.1-1.85 1.35.2-.95-.9.15 1.1-1.3m-.8 1.75-6.95 4.85-5.7 5.05q1.05-2.25 2.95-5.2l2.15-2.45q4.5-1.9 7.55-2.25M11.3 29.9l-.35-.3-1.1.4.45-.9L12 28l-.7 1.9M9.05 50.95l-.9-1.1q-1.55-4.7-1.8-11.7l3.75-7.55.85-.35.8.6-2.9 5.8Q7.4 42.85 8.6 48.8l.2 1.05.25 1.1m3 4.5-.55.85-1.65 2.3q-2.5 6.15-4.05 11.55l-.7 2.25-.05-.05q-.45-.4-.7-1.45-.3-1.15-.5-2.9l.25-4.5Q6.3 60.3 10 56l2.2-1.65-.1.75-.05.35M3.5 72.25l.55-1.1.55 1.75.25.1-.25 1.3-1.1-2.05M32.1 41.1l-.1-.05-1.55.8-.35.4.8-2 2.4-1.85.05.9-1.25 1.8m-1.3 1.4-2.7 4.85-3.25 8.15-.9 2.35q-.45-3.4 1.15-9.75l1.85-2.15 3.85-3.45" fill="#fff"/><path d="m43 55.75-1.1 1.3-2.55.3-5 1.85.55-.85q4.45-1.85 8.1-2.6M11.3 29.9 12 28l2.6 2.95 2.6 3.6-1.35 1.95V36l-2.35-4.15-2.2-1.95M3.5 72.25l-.45-1.1q-.7-2.4-.7-6.15l.75-.95.3 5.2.65 1.9-.55 1.1m26.6-30q-3.1 2.55-5.25 5.1v-1.2l5.65-5.55.4-.35-.8 2" fill="#faf700"/><path d="m21.7 38.85.05.45Q20.5 41.9 19 42.85l-2.85-.5.3-.3 2.4.3 2.85-3.5m1 24.25.5 2.15-3.95 3.1.25-1.3 2.85-1.95.35-2M14 69.95q.6.45 1.1 2.55l-2.85 3.55-2.9 1.2 2.55-1.75 2.4-3.25-.3-2.3m15.95-5.6-4.75.3-1.35.5-.1-.8L25.8 64l4.7-.25-.55.6m9-15.45-1.2 1.6-1.5 1.2-4.55.65.6-.4.05-.2 3.75-.55 2.85-2.3M16 41.5l-.9 1-1.4-.5.15-.4.75-.65 1.4.55m-1.35-2.35-.2 1-2.35 2.15-2.1 5.5 1-5.5 3.65-3.15M11.5 56.3l.55-.85q-.6 5.1-.55 8.9l-.05.3-.2.45Q10.7 64 11 60.7l.4-3.7.1-.7m20.95-5.9L32 51.45l-.85.35.35-.8.95-.6m-1.1-1.15-.15 1.05-7.1 8.65-.05-.35-.05-.25 7.35-9.1m-16.25 22L18.4 68l.6-1.8.1.2-.5 2.6-3.05 3.15-.45-.9" fill="#b0eaf1"/><path d="m43.3 25.55.65-.45-.45-2.35q-1.25-4.55-3-8.5-2.15-4.9-4.9-8.95l-.25-.55q-1.85 9.2-4.5 15.35l-1.6 1.15-.65 3.25.15.1q2.9 2.9 4.55 5.25l7.15-2.4 2.85-1.9M41.6 30l.2.05L43 31.9l1.35 3.35.35 3.05-.6 3 .85 1.05.4.5L47.7 42l.4-7.3q-1.5-3.95-4.55-5.95L43 28.4l-4.65.85 3.25.75m14.15-3.7.85-6.7q-8.1 3.65-14.4 7.5l4.65 2.9.65.85q1.25 1.95 1.75 3.75.3 4.9-.65 7.75l-.9 2.5 6.9-.95 2.35 2.35.9 1.3.3.65q-.5 3.25-1.2 5.65l-.1.15-.9 2.5 3.25-4 .25-.35q2.2-3.15 4.25-7.4l-1.55-.4-1.05-.25q-1.85 1.7-3.5 2.15l.55-.65.15-.1 2.35-2.6 2.6-4.15L65.5 33v-.1q2.5-4.45 3.25-11.75l-.4.1-10.85 2.6-1.75 2.45m-47 3.45.4-2.9q2.55-2.15 7.8-5.35l2.95-1.2 3.85-5.95q3-6.2 2.5-14.35 4.2 7.9 3.75 17.7 2.85-6.1 4.25-15.6 8.05 10.4 10.9 21.5l13.3-6.35-1.15 5.9 12.55-4.05q1.75 2.85-.75 7.7l-5.35 13.65-1.75 2.9 3 .8-7.55 12.15-4.2 4.05-1.45.4L47.35 66l-5 4.95-1.4-5.55-1.7.35.65-.75 5.65-1.15.2-.35q1.25-2.2 1.85-4.4.5-2.1.5-4.25l-.15-1.6q-4.05-.6-8.45 0l-2.9.5-.75.65-.35.35-.95 3.25-.35.1q0-1.35.85-4l1.8-1.45.5-1.15-.9.8-1.7.55-4.25.25 1.2-.75 4.55-.65 1.5-1.2 1.2-1.6 1.15-1.6-.1-.1-1.15-1.2-.25-1.7-.45-2.95q-.25-2.55-1.75-6.25h-.3q-2.4-.05-5.6.75l-5 3.35-1.35 3.4v.2l.45 2.85L23.5 47q-.85-2-.85-5.25l2.05-3.5-.55-.25-4.05 6.15h-1.15l-.5-.1 2.05 1.3 1.5.4h-2.4l-1.45-.65-.95-1.25-1.2-.25q-1 4.65-.05 8.25l1.15 3.3.85 2.3 4.8 3.05 1.55.7-1.75-.25q1 1.8 1.2 3.4l.1.8 1.35-.5 4.75-.3-.1.2-.5.6-.05.05-5.1.55L20.1 68 17 71.4l-1.4 2.05-3.9 3.5-5.8 2.3-2.15-.1Q2.3 77.8.6 75.15L0 73.2q-.15-3.85.6-9.2l4.25-3.3-.6.8v.4L1 64.45Q.65 68.4.75 71.4q.05 1.6.25 3 1.25 2.3 2.45 3.9l.4.5L7.5 78h.05l1.8-.75 2.9-1.2 2.85-3.55q-.5-2.1-1.1-2.55l-.45-.35-1.75 1.15-1.3.85.45-.9 1.6-1.05.95-.65.5.15q.9-1.75 1.25-4.9l-2.75-3.4v-.5h.05l2.45.25 4.6 5.55-.1.9-.25 1.3 3.95-3.1-.5-2.15-.45-2.1-4.65-2.65-1-1.55h-2.9l-1.1 1.95.15-2.25.1-.25 2.3-4.4-.5-6 1.05-2.3-.55-.1 1-1.1 2.85.5q1.5-.95 2.75-3.55l-.05-.45-.25-1.75-3.1-.65v-.4l2.9.45q1.25-2.5 1.8-7.7l-.1-.2-.2-.3-.15-.15-.05-.1-.2-.3-.65-.8-4.15-3.9-6.4 3.45L10 28.35l-.4.5-.85.9M44.15 38l.15-.9q-.65-3.35-2.85-6.75l-3.6-.45-1.25-.05-5.7 2.4-2.9 3.6-1.55 1.9L31.1 35l5.75-.55 1.5 5.15.85 6.2 1.1 1.3 2.05-3.1 1.5-3.75.3-2.25m.9 5.8-1.15-1.55-3 5.25-2.65 3.1q3.1-2.35 6.1-4.2l.15-.05 2-1.25.75-2.25-2.2.95M56 47.6q-.65-1.3-1.8-2.35l-6.45.95-3.15 1.6-1.25.6 5.25-.15 4.15 2.1.5 1.5.15 5.4q2.65-2.15 3-8.75l-.4-.9m-3.4 3.9V51q-1.45-1.4-3.95-2.2H42.5l-3.55 2.75-.2.2-1.05 1.15 6.15-.6 4.65.55.2 1.9q.15 2-.25 3.6l-1.65 4.6-.55.85 1.2-.25 3.5-3.45 1.65-1.7v-6.9M47 64.1l-5.15 1.1.65 4.55 6.6-7.1L47 64.1M23.35 21.3l4.25 2.85q1.1-7.5 0-17.4L27.1 8q-1.25 6.1-3.65 9.65l-1.6 2.2-.9 1.2 2.4.25m-2.6-.05-.25.15-2.6 1.45q-.1 0-.15.1L20 24.5q2.5 2.35 3.75 4.35l-.05.05.1.1 3.8 2.5q1.85-.85 3.05-3.6l-5.8-4.9-2.4-1-1.65-.75h-.05m6.7 13.35L27 32.1l-3.4-2.85q-.3 1.25-.25 2.5l-1.25 4.7.25 2.4 1.4-2.05h2.1l1.6-2.2m2.85-3.25 2.45-1.1-1.9-2-1.1 2q-1.4 1.85-2.15 2l.15 2 2.55-2.9M15 54.4l-1 1.75h2.3L15.75 53 15 54.4m4 11.8-4.2-5.15h-1.3q1.5 1.1 2.1 2.8.2 2.05-.2 3.3l-1.15 2.35.85 1.75.45.9L18.6 69l.5-2.6-.1-.2" fill="#092924"/><path d="M43.55 28.75q3.05 2 4.55 5.95l-.4 7.3-2.35.85-.4-.5.15-1.6q0-1.8-.4-2.45l-.35-3.05L43 31.9l2.4 3.95.85-2.2-2.95-4.7.25-.2m-20.8-.45.2.3.1.2q-.55 5.2-1.8 7.7l-2.9-.45.1-.4-2.95-4.9-3.1-2.95 4.7 3 2.05 2.15 3-1.9.45-2.8.15.05m-4.4 8.15 3.1.65.25 1.75-2.85 3.5-2.4-.3 1.15-1.25.75-4.35m-5.8 33.2-1.6 1.05 1.15-1.85.8-.3-.35 1.1M10.5 71.6l1.3-.85L7.55 78H7.5l-3.65.8-.4-.5 1-2.4 2.5-.25 2.4-2 1.15-2.05m14.1-25.95-.45-2.85 1.35 1.75-.9 1.1m14-1.35.25 1.7L40 47.2l-4.15 3.45-3-.15.8-2.35q.95-4.9.45-7.65l-.5-2 .75 1 1.5 6.85 2.75-2.05M34.55 58l.95-3.25.35-.35.25 2.1 2.4-.75 5.15-1.55 1.9.3.25 1.45 2.3-1.1q0 2.15-.5 4.25l-4.05 1.35q1.5-2.7 1.7-5.7-5.15.85-10.7 3.25m2.3-23.55 1.75 3.3 1.55 4.95 4-4.7-.3 2.25-1.5 3.75-2.05 3.1-1.1-1.3-.85-6.2-1.5-5.15m8.2 9.35 2.2-.95-.75 2.25-2 1.25.55-2.55M56 47.6l.4.9q-.35 6.6-3 8.75l-.15-5.4-.5-1.5-4.15-2.1-5.25.15 1.25-.6h5.25q2.55 1.2 3.55 2.8l2.6-3m-15.5 4.2q3.8-.2 7.15.15l1 .75.45 1.55 3.5-2.75v5.1l-3.4 1.6-.5-3.45-.2-1.9-4.65-.55-6.15.6 1.05-1.15 1.75.05M23.45 27.1l1.85 1.7 2.45-1-5.3-5.8 2.4 1 5.8 4.9q-1.2 2.75-3.05 3.6L23.8 29l-.05-.15q-1.25-2-3.75-4.35l-2.25-1.55q.05-.1.15-.1l3.7 2.5 1.85 1.75m6.85 4.25-2.55 2.9-.15-2q.75-.15 2.15-2l1.1-2 1.9 2-2.45 1.1m-2.85 3.25-1.6 2.2h-2.1l-1.4 2.05-.25-2.4 1.25-4.7q-.05-1.25.25-2.5L27 32.1l.45 2.5" fill="#167e6f"/><path d="m41.8 30.05-.05-.1 1.55-1 2.95 4.7-.85 2.2L43 31.9l-1.2-1.85m-29.2 28.7 1.1-1.95h.85l-2 3.55h-.05l.1-1.6M3.45 78.3Q2.25 76.7 1 74.4q-.2-1.4-.25-3l2.1 3.9 1.6.6-1 2.4M17.1 55.15l-1.15-3.3q-.95-3.6.05-8.25l1.2.25.95 1.25-1.7 2.65.65 7.4m19-20.05h.3q1.5 3.7 1.75 6.25l.45 2.95-2.75 2.05-1.5-6.85-.75-1-.1-.5 2.6-2.9m-.25 19.3.75-.65 2.9-.5-1 2.5-2.4.75-.25-2.1m2-24.5 3.6.45q2.2 3.4 2.85 6.75l-.15.9-4 4.7-1.55-4.95-1.75-3.3-5.75.55-4.65 2.75 1.55-1.9 4.35-2.1 4.75.1 3.55-3.2-2.8-.75m5.5 18.9-2.85 3-1.75-.05.2-.2 3.55-2.75h.85m-28.6 7.35H14l1-1.75-.25 1.75" fill="#2baca4"/><path d="m41.75 29.95-.15.05-3.25-.75L43 28.4l.3.55-1.55 1M9.6 28.85l.4-.5 1.15-1.85 6.4-3.45 4.15 3.9.65.8-1.6 1.75-3.65 1.3-4.7-3-.4-.35-2.4 1.4m1.35 41.85-.45.9-1.15 2.05-2.4 2-2.5.25-1.6-.6-2.1-3.9q-.1-3 .25-6.95l3.25-2.55-.05.1-2.15 2.3-.35 2.95q.6 5.7 2.55 7.65 2.5.25 5.2-2.15l1.5-2.05m13.2-27.9v-.2l1.35-3.4 5-3.35q3.2-.8 5.6-.75L33.5 38l-.15-.5-6.7 5.65-1.15 1.4-1.35-1.75M39.5 53.25q4.4-.6 8.45 0l.15 1.6-2.3 1.1-.25-1.45-1.9-.3-5.15 1.55 1-2.5M37.85 29.9l2.8.75-3.55 3.2-4.75-.1-4.35 2.1 2.9-3.6 5.7-2.4 1.25.05m6.75 17.9 3.15-1.6 6.45-.95q1.15 1.05 1.8 2.35l-2.6 3q-1-1.6-3.55-2.8H44.6m-1.25 1h5.3q2.5.8 3.95 2.2v.5l-3.5 2.75-.45-1.55-1-.75q-3.35-.35-7.15-.15l2.85-3M20.5 21.4q1.55.9 2.85 2.95l.1 2.75-1.85-1.75-3.7-2.5 2.6-1.45" fill="#4cffd7"/><path d="m44.95 42.35-.85-1.05.6-3q.4.65.4 2.45l-.15 1.6M14.55 56.8h2.05l1 1.55L22.25 61l.45 2.1-.35 2-2.85 1.95.1-.9L15 60.6l-2.45-.25 2-3.55m-2.05 4.05 2.75 3.4q-.35 3.15-1.25 4.9l-.5-.15-.95.65.35-1.1-.8.3q1-1.85 1.3-3.35l-1.1-2.7.1-.2.1-1.75m-.7 9.9 1.75-1.15.45.35.3 2.3-2.4 3.25-2.55 1.75-1.8.75 4.25-7.25m11.95-6.4q-.2-1.6-1.2-3.4l1.75.25-1.55-.7-4.8-3.05-.85-2.3-.65-7.4 1.7-2.65 1.45.65H22l-1.5-.4-2.05-1.3.5.1h1.15L24.15 38l.55.25-2.05 3.5q0 3.25.85 5.25l.6 1.1-.8 3.7q-1 6.45.55 8.7l6.5-7.35.15-.05 4.25-.25 1.7-.55.9-.8-.5 1.15-1.8 1.45q-.85 2.65-.85 4l-.55 1.8-.05.05-3.1 3.8-4.7.25-2.05.35M40 47.2l.1.1-1.15 1.6-2.85 2.3-3.75.55.5-1.25 3 .15L40 47.2m7.6 11.9q-.6 2.2-1.85 4.4l-5.25.85 1.35-1.45.95-1.2.75-1.25 4.05-1.35m-3.1-12.75-.15.05q-3 1.85-6.1 4.2l2.65-3.1 3-5.25 1.15 1.55-.55 2.55m8.1 10.25v1.8l-1.65 1.7-4.15 2.85 1.65-4.6q.4-1.6.25-3.6l.5 3.45 3.4-1.6m-37.85-.45L15 54.4l.75-1.4.55 3.15h-1.55m.35 15.1-.85-1.75 1.15-2.35q.4-1.25.2-3.3-.6-1.7-2.1-2.8h1.3L19 66.2l-.6 1.8-3.3 3.25" fill="#135a4f"/><path d="m29.35 65.15.5-.6.1-.2.55-.6 3.1-3.8.05-.05 1-.15-2.15 2.45q-1.9 2.95-2.95 5.2l-.25.6-.2.45 2.25-1 6.65-3L36.6 66l-8.1 3.5q-.5-.1 0-2.1l.85-2.25M31.2 50.3l-.8 2.8-.05.05-6.5 7.35q-1.55-2.25-.55-8.7l.8-3.7.2.9.8-.9q-1.6 6.35-1.15 9.75l.05.5.05.25.05.35 7.1-8.65" fill="#65597f"/><path d="m22.35 27.75.2.3.05.1v.1l-.45 2.8-3 1.9-2.05-2.15 3.65-1.3 1.6-1.75m-1.6-6.5h.05l1.65.75 5.3 5.8-2.45 1-1.85-1.7-.1-2.75q-1.3-2.05-2.85-2.95l.25-.15" fill="#2caba3"/><path d="m68.35 21.25.4-.1Q68 28.45 65.5 32.9v.1l-.35.5-6.85 12-.15.1-1.2.65-2.35-2.35-6.9.95.9-2.5q.95-2.85.65-7.75-.5-1.8-1.75-3.75l2.85 3.1.5 1.8 1.25 5q8-7.8 16.25-19.5" fill="url(#C)"/><path d="m43.3 25.55-2.85 1.9-7.15 2.4q-1.65-2.35-4.55-5.25l-.15-.1.65-3.25 1.6-1.15 1.05 4.4 3.35-8.7q.55-4.25.35-10.5 2.75 4.05 4.9 8.95l2.8 11.3" fill="url(#D)"/><path d="m27.1 8 .5-1.25q1.1 9.9 0 17.4l-4.25-2.85.4-.8L26.3 15l.8-7" fill="url(#E)"/><path d="m23.35 21.3-2.4-.25.9-1.2 1.9.65-.4.8" fill="#1c7e6d"/><path d="m21.85 19.85 1.6-2.2Q25.85 14.1 27.1 8l-.8 7-2.55 5.5-1.9-.65" fill="#52a28a"/><path d="M30.85 20.1q2.65-6.15 4.5-15.35l.25.55q.2 6.25-.35 10.5l-3.35 8.7-1.05-4.4" fill="#b39157"/><path d="m55.75 26.3 1.75-2.45 10.85-2.6q-8.25 11.7-16.25 19.5l-1.25-5 4.8-9.1.1-.35" fill="url(#F)"/><path d="m47.5 30.85-.65-.85-4.65-2.9q6.3-3.85 14.4-7.5l-.85 6.7-.1.35-4.8 9.1-.5-1.8-2.85-3.1" fill="url(#G)"/><path d="m62.15 44.35 1.55.4q-2.05 4.25-4.25 7.4l-.25.35-2.25 1.35q.7-2.4 1.2-5.65l-.3-.65 4.3-3.2" fill="#318068"/><path d="m58.15 45.6-.55.65q1.65-.45 3.5-2.15l1.05.25-4.3 3.2-.9-1.3 1.2-.65" fill="#34a498"/><path d="M40.5 14.25q1.75 3.95 3 8.5l.45 2.35-.65.45-2.8-11.3M65.5 33l-2.25 5.75-2.6 4.15-2.35 2.6 6.85-12 .35-.5m-6.3 19.5-3.25 4 .9-2.5.1-.15 2.25-1.35m-13.45 11-.2.35L39.9 65l.6-.65 5.25-.85m5.2-3.4-3.5 3.45-1.2.25.55-.85 4.15-2.85" fill="#a6dee5"/><path d="m23.5 47 1.1-1.35.9-1.1 1.15-1.4 6.7-5.65.15.5.1.5.5 2q.5 2.75-.45 7.65l-.8 2.35-.5 1.25-.05.2-.6.4-1.2.75h-.1l.8-2.8.15-1.05q.4-2.4.4-4.9l-.25-2.5-.7.65-3.85 3.45-1.85 2.15-.8.9-.2-.9-.6-1.1m10.7 11.1.35-.1q5.55-2.4 10.7-3.25-.2 3-1.7 5.7l-.75 1.25-.95 1.2-1.35 1.45-.6.65-.65.75-.35.3-2.3-.05 1.4-1.55.85-.9.8-.95.6-.75 1-1.85.1-.15.85-2.35q-3.05.35-7.55 2.25l-1 .15.55-1.8m10.25-1.6.3-1.1-1.6.3-.15.05q-3.65.75-8.1 2.6l-.55.85 5-1.85 2.55-.3.9-.15-.2.95-.45 1.9-1.2 2.05-1.45 1.95-1.7 1.6h.8l2.8-2.8.6-.8q1.5-2.4 2.45-5.25M32 41.05v.15l.05.15.3 3.45-.25 4.5-.6 1.7-.35.8.85-.35.45-1.05.15-.5.9-4.6-.05-1.85-.1-4.15-.05-.9-2.4 1.85-.4.35-5.65 5.55v1.2q2.15-2.55 5.25-5.1l.35-.4 1.55-.8" fill="#933e02"/></g><g id="V" fill-rule="evenodd"><path d="m7.1 68.15.35.85-.2 2.25-.95-1.7.25-.4.3.55.15-1.3.1-.25m9.9-3 .35-.2.05-.3L19.1 66q0-1.55 1.75-4.5h2l1.4-3.25.3-.65 1.3 1.25.25 1.35-1.5-1.45-.2.5q-1 2-1.75 4.7l-.55 3.55.15 3.55-.15.2-1.1-.5-.95-.55-.6 3.15-.7 2.05-.3.85-2-1.35-2.05-1.4-.65 3.4-.3.85-.35-.35 1.15-4.8 4 2.35 1.5-5.5 1.95 1q-.2-3.75.7-8.2h-1.15L19.6 66.9l-1.75-1.1-2.45 4.3-.5-.1-.45-.1-.65-.15.3 1.6h-1.5l-.45 3.6-.9-.55.15-.9v-.1l.4-2.9H13l-.15-.95-.1-.05-1.3-.25-1.7 3.4-.5 1-.3-1.1q.8-1.9 2.15-4.25l.1-.15q2.2.05 3 .7l.65.15 1.7-3.1.45-.75M13.1 77.4l-.25.95-1.7-1.9.2-.6 1.75 1.55" fill="#061613"/><path d="m36.55 42 5.35.65 3.6 1.85-2.05 2.7 5.4 4 .4.3q3.25 2.85 4.2 5.7H50.1l.15.55q3.35 3.1 4 6.9l.55 3-.05 1.35-7.7-1.25.7-.55.15-.2 5.5.35v-.2q-.45-3.1-2.7-7l-1.45-2.25-1.3-1.15-.15-.4 3-1.1-1.55-1.45-3.85-3.65-2.45-2.4-1.5 2.25-3.05 1.55-1.1-.65 3.3-2.15.2-.2L43.65 45l-1.15-.5-.7-.3-2.05-.2-4.95-.6 1.55-1.25.2-.15M28.4 61.75l1.15 1.75v6.7l-.1.25q-1.6 3-3.55 4.7l-.4.35-3.1.95-6.15 4.7q-3.5 3-6.95 4.45l-.4-4.85v-6l-.2-.05h-.1q-4.55-.7-6.1-6.55v-.2l.1-2.25q-.3-1.9.15-4.3l.1-2.15v-.2l.05-.1 1.15-2.75.3-.8.1-.25.35-.9q1.6-3.85 3.35-6l.6.75 1.75-2.35L14.1 43l1 1.7q1.75-3.4 3.8-6.05l.15-.2q1.7-2.2 3.6-3.9l.65 3-.1.2-.3.45-.55-2.65-.6.75q-4.1 4.7-6.05 8.4l-.25.45.65 4.2.15-.45.05 1.85v.1h.05v.3l-.45.4q-.4-4.85-1.65-7.35l-.2-.3Q11 47.4 9.5 50.35l.6 2.35.5 1.75-.3 1.05L8.2 50l-.6 1.1L4.3 57l-.95 2.6Q3 63.4 3.1 66.5q.5 3.15 1.7 4.4l.2.15q1.8-4.25 4.6-6.6v.4L8.1 66.5l-1 1.65-.1.25-.45.75-.25.4-.8 1.35-.2.75 2.9 1.95h.05l.2.15.5-1.2.3 1.1.5-1 1.65.75v.1l-.15.9-1.25-.75v2.25l.7.15.15-.9 1.4.85.35.25q.65-1.3 1-3.85l1.4-.25-.1-2.15.5.1 2.45-4.3 1.75 1.1 1.65-4.65h1.15q-.9 4.45-.7 8.2l-1.95-1-1.5 5.5-4-2.35-1.15 4.8.35.35-.4 1.25-.05.15L11.75 78l-1.6-1.35-.2 1.35q-.45 3.9.2 6.3l.35-.2 4.7-3.2 6.1-5.3 1.55-.5 2.25-.7q1.75-1.5 3.45-3.95l.4-2.55v-3.65l.05-.1-.2-.25-1-1.6-1.7-2.1-.25-1.35 2.55 2.9M13.1 77.4l-1.75-1.55-.2.6 1.7 1.9.25-.95" fill="#092924"/><path d="M2.5 67.95Q.35 65.45 0 58.8l2.1 1.45-.6-3.85q.4-3.95 1.7-5.55l1.6 3.4-.35.9-.85-1.5-.35-.7-.7 4.25.25 1.75.05.3-.1 2.15-1.65-.8q.6 3.2 1.5 5.1l-.1 2.25m13.85-16.8 2.9-2.65q.35 1 .25 2.2-.15 2.05-1.7 5.2l-.3 1.1-.25 1.05L19.1 58q.25.1.5.35L18.35 61v.05l.9 1.35q-.9 1.25-1.75 1.25l-.1 1-.05.3-.35.2-1.2.1L12.1 64l-.1.2-.15.2q-1 1.85-1.75 2.15l-.3.1-.2-1.8v-.4l-.15-1.55.05-1.45q.2-2.65.8-5.95l.3-1.05.75-.7 1.25 2.05.3.85q1.2-2.5 3-4.9v-.2l.45-.4M18.7 51l.05-.3.2-1.2-2.6 2.75-2.75 3.9-.6.9.1.7.4 2.05.15.8L16.3 58l.8-2.55.4-.85.1-.25L18.7 51m-6.05 7.25-.7-2.3-.1-.2-.5-1.25-.55 1.9q-.45 3.1-.55 5.65l-.05.75-.1 1.8v1.3l3-5.2-.45-2.45m5.85.8.15-.45-1.7-.2L14 61.65l1-.25 2.85-.6.65-1.75m-1.4 2.35-2.9.55-.6.7 3.9.4h.05l1-.8-.8-1-.65.15m-4.3 1.25-.05.1-.6 1.15q2.75.95 4.55.8l.2-.6-.3-.75-3.8-.7" fill="#953e02"/><path d="M19.75 42.2q-2.5 3.55-3.5 6.7l-.15.45-.65-4.2.25-.45 2.65-1.85 2.4-3.6-1 2.95M10.1 52.7l3-6.7-.5 9.8-1.25-2.05-.75.7-.5-1.75m-2.25-.2 1.65 8.95-.05 1.45.15 1.55Q6.8 66.8 5 71.05l-.2-.15q-.4-3.55.3-8.65 1.2-5.6 2.75-9.75m16.55 6.75.2-.5 1.5 1.45 1.7 2.1 1 1.6.15.25v.1q-.2 3.35-.85 5.4l-2.6 3.9-2.65 1.55-1.55.5-6.1 5.3-4.7 3.2.7-1.15q.65-2.05.55-4.95L13 79.15l.05-.15q.85 0 2.2-1.9l1.2-2.2 2 1.35.3-.85 1.8-2.35.45-2.3 1.1.5.15.05v-.25l1.25-2.3q1.35-3.85.95-8.7l-.05-.8m.5 4.3v3l1.6.65q.75-.15 1.55-1.15l-.1-1.15L26.7 63l-1.5-.55-.3 1.1m-.35 4.2-.8 1.5.15.8h1.25q.4-.45.7-1.85l-1.3-.45m3.6.25q-.45-.65-1.6-.5l-.4 1.15.85.85q.75-.15 1.15-1.5m11.6-24 2.05.2.7.3-3.6 3.05-7.05-.4 1.65-2.25 6.25-.9m5.65 6.15 3.85 3.65-4.55-1.3-.9-1.1 1.6-1.25m5.3 10q2.25 3.9 2.7 7l-3.5-4.85-.15-.15-1-2.95 1.95.95" fill="#2baca4"/><path d="m21.75 36.3-1 2.95-2.4 3.6-2.65 1.85q1.95-3.7 6.05-8.4m-8.55 9.45-.1.2V46l-3 6.7-.6-2.35q1.5-2.95 4.55-6.45l.2.3-1.05 1.55M7.6 51.1l.25 1.4Q6.3 56.65 5.1 62.25q-.7 5.1-.3 8.65-1.2-1.25-1.7-4.4-.1-3.1.25-6.9L4.3 57l3.3-5.9m16.8 8.15.05.8q.4 4.85-.95 8.7l-1.25 2.3-.15-3.55.55-3.55q.75-2.7 1.75-4.7M21 70.75l-.45 2.3-1.8 2.35.7-2.05.6-3.15.95.55m-4.55 4.15-1.2 2.2Q13.9 79 13.05 79l.4-1.25.3-.85.65-3.4 2.05 1.4m-4.7 3.1q.1 2.9-.55 4.95l-.7 1.15-.35.2q-.65-2.4-.2-6.3l.2-1.35 1.6 1.35" fill="#4cffd7"/><path d="M22.9 38.2q-1.8 2.05-3.15 4l1-2.95 1-2.95.6-.75.55 2.65m-9.7 7.55 1.05-1.55q1.25 2.5 1.65 7.35v.2q-1.8 2.4-3 4.9l-.3-.85.5-9.8.1-.25M7.6 51.1l.6-1.1 2.1 5.5q-.6 3.3-.8 5.95L7.85 52.5l-.25-1.4m.9 21.6.25-2.7 1.35-3.45q.75-.3 1.75-2.15l.15-.2.1-.2 3.7 1.25 1.2-.1-.45.75-2.35 2.95q-.8-.65-3-.7l-.1.15L9.55 70 8.5 72.7m8.9-8.05.1-1q.85 0 1.75-1.25l-.9-1.35V61l1.25-2.65q-.25-.25-.5-.35l2.55-2.35-.3 2.5 1.35-.5 1.55.6-1.4 3.25h-2Q19.1 64.45 19.1 66l-1.7-1.35m-6.15 9.75.9.55.45-3.6h1.5l-.3-1.6.65.15.05 1.95-1.35.15q-.35 2.8-.9 4l-1.4-.85-.15.9-.7-.15v-2.25l1.25.75M42.5 44.5l1.15.5-2.85 3.55-4.3 1.35-5.85-.65.75-1.55.45-.55 7.05.4 3.6-3.05m6.75 9.3 1.55 1.45-3 1.1-.85-1.3-2.7-.8-1.6-2 1.15-.85.9 1.1 4.55 1.3m-1.3 2.95 1.3 1.15 1.45 2.25-1.95-.95-.8-2.45m5.45 10.4v.2L47.9 67q1.15-1.75 1.9-4.65l.1-.05 3.5 4.85" fill="#167e6f"/><path d="m10.5 46.65 6.85-14.2L14.1 43l-3.6 3.65m9-13.9 2.95-6.85.55-5.05 1 1.85-.25 1.05-.6 2.75q-1.9 4.65-3.55 6.3l-.1-.05m-1.4 14.5.45-1q.35-1.1 1.75-2.95l2.8-3.95 9.5-7.15 1.15-1.55-1.35 3.85-5.95 6.15-8.35 6.6m17.75-16.2.35-.8.3-.45 3-3.1q1.4-2.05 2.25-4.7l-.35 2.5q-1.25 3.2-2.45 4.4l-3.1 2.15m-6.6 24.4v-.05l.35-1.7.75-.15 3.65 1.7 1.5.5 9.25 4.3q.8 1.75 0 2.95l-1.5 2.05-3.6 1.8-1.4.4 3.75-2.2-3.35.15 1.25-1.35.1-.4 2.9-2.05.75-1.35-4.65-1.7q-6.05-.95-9.75-2.9m-.1 19.2.85-1.8 1.4-2.2 4.9-2.4-4.15 3.8-.05.1h.05l-3 2.5" fill="#ffe773"/><path d="M26.3 48.75v4.9Q24.1 56 22.15 57.2v-2.3q.95-.95 2-1.85l.05-.15q.6.15 1.75-2.4.05-.85.35-1.75m-6.8 1.95 1.25 3.95-2.95 1.25q1.55-3.15 1.7-5.2m6 12.55v-.35l1.1.45 1.05 1.7.05.95-1.2.85.75-1.1-.6-1.7-1.15-.8m-.45 5 .35.25-.3 1.05-.45.1.4-1.4m1.7.5.4-.75.5.25-.65.9-.25-.4" fill="#a5612d"/><path d="m17.5 54.6-.4.85-3.6 4.35-.4-2.05q2.6-2.95 4.4-3.15m-4.85 3.65.45 2.45-3 5.2v-1.3q1.15-4.35 2.55-6.35m-8.2-3.1-.1.25-.3.8-1.15 2.75.7-5.3.85 1.5M15 61.4l-1 .25 2.95-3.25 1.7.2-.15.45h-.6L15 61.4m2.1 0 .65-.15.8 1-1 .8h-.05l.4-.8-.8-.85" fill="#af610b"/><path d="m18.7 51-1.1 3.35-.1.25q-1.8.2-4.4 3.15l-.1-.7.6-.9L18.7 51m-6.75 4.95.7 2.3q-1.4 2-2.55 6.35l.1-1.8.05-.75 1.7-6.1" fill="#faf700"/><path d="m13.6 56.15 2.75-3.9 2.6-2.75-.2 1.2-.05.3-5.1 5.15m-3.35 5.9q.1-2.55.55-5.65l.55-1.9.5 1.25.1.2-1.7 6.1" fill="#fff"/><path d="m3.6 53.65-.7 5.3h-.1l-.25-1.75.7-4.25.35.7m-.85 7.75q-.45 2.4-.15 4.3-.9-1.9-1.5-5.1l1.65.8" fill="#f9ab00"/><path d="m28.65 61.5-.25.25-2.55-2.9-1.3-1.25-.3.65-1.55-.6.65-.3 2.55-2.15 1.35-2.05.35 1.5L30.9 51l-.5-1.35.25-.4 5.85.65 4.3-1.35-.2.2-3.3 2.15-8.15 2.45q-2.2 4.55-.5 8.15M6.3 69.55l.95 1.7.2-2.25-.35-.85 1-1.65 1.5-1.65.2 1.8.3-.1L8.75 70l-.25 2.7-.3.9-2.9-1.95.2-.75.8-1.35M7 68.4l-.15 1.3-.3-.55.45-.75M19.1 58l-1.85.05.25-1.05 4.25-2-.1.65L19.1 58m19.3-6.45L41.45 50l1.5-2.25 2.45 2.4-1.6 1.25-1.15.85 1.6 2-2.75-.75-3.1-1.95" fill="#135a4f"/><path d="M34.2 41.9q2.75-3.65 9.9-6.75l7.65-4.3q2-3.95 2.65-11.8l.05-.05q-.3 7.2-1.05 11.15l-.15.7-.6.8-9.5 4.35-8.95 5.9m-5.85-29.45 3 4.9.05.3q1 7.1.35 10.95l-1.1-10.45-2.3-5.7M8.2 73.6l.3-.9L9.55 70l1.55-1.7q-1.35 2.35-2.15 4.25l-.5 1.2-.2-.15H8.2m6-4.75 2.35-2.95-1.7 3.1-.65-.15m27.4-14.2 4.85 1.5Q47.8 58.4 48.5 63l-1.25 2.75.75-3.2-2.05-5.3-4.35-2.6M22.85 75.1l2.65-1.55 2.6-3.9q.65-2.05.85-5.4v3.65l-.4 2.55q-1.7 2.45-3.45 3.95l-2.25.7" fill="#b0eaf1"/><path d="m14.45 69.9.45.1.1 2.15-1.4.25q-.35 2.55-1 3.85l-.35-.25q.55-1.2.9-4l1.35-.15-.05-1.95" fill="#061e1b"/><path d="m24.9 63.55.3-1.1 1.5.55 1.25 1.9.1 1.15q-.8 1-1.55 1.15l-1.6-.65v-3m1.6 3.3 1.2-.85-.05-.95-1.05-1.7-1.1-.45v.35l-.25 2.95 1.25.65m-1.95.9 1.3.45q-.3 1.4-.7 1.85H23.9l-.15-.8.8-1.5m.1 1.9.45-.1.3-1.05-.35-.25-.3-.2-.5 1.7.4-.1m2.5-1.65-.25-.2-.35.75.2.2.25.4.65-.9-.5-.25m1 0q-.4 1.35-1.15 1.5l-.85-.85.4-1.15q1.15-.15 1.6.5" fill="#4f240d"/><path d="m26.5 66.85-1.25-.65.25-2.95 1.15.8.6 1.7-.75 1.1m-1.85 2.8-.4.1.5-1.7.3.2-.4 1.4m2.5-1.65-.4.75-.2-.2.35-.75.25.2" fill="#f4b754"/><path d="M17.1 55.45 16.3 58l-2.65 2.6-.15-.8 3.6-4.35m1.4 3.6-.65 1.75-2.85.6 2.9-2.35h.6m-5.7 3.6 3.8.7.3.75-.2.6q-1.8.15-4.55-.8l.6-1.15.05-.1m4.7.4-3.9-.4.6-.7 2.9-.55.8.85-.4.8" fill="#faad00"/><path d="m26.3 53.65 1.1-1.45.35.95 1.9-2.25.3-.35.45-.9.5 1.35-3.3 3.65-.35-1.5-1.35 2.05-2.55 2.15-.65.3-1.35.5.3-2.5.1-.65-4.25 2 .3-1.1 2.95-1.25h1.4v2.55q1.95-1.2 4.15-3.55" fill="#2a3525"/><path d="M54.5 17.9q0-7-4.5-15.15l-.05.4-3.15 13.5-3.05 6.85-1.15-4.8-.35 1.65-.1.35-.4 1.3q-.85 2.65-2.25 4.7l-3 3.1-.3.45-.35.8q-.95 1.9-1.45 1.9l.5-3.9-1.15 1.6-1.15 1.55-9.5 7.15-2.8 3.95q-1.4 1.85-1.75 2.95l-.45 1-1.75 3.5h-.05l-.05-1.85q1-3.15 3.5-6.7 1.35-1.95 3.15-4l.3-.45.15-.15 2.8-3.85q3.75-3.35 5.35-4l.25-1.15q.65-3.85-.35-10.95l-.05-.3-3-4.9L24.8 7.6l.35 2.3q.95 7.15-.2 13.2l-.2.95L24 22.7l-1-1.85-.55 5.05-2.95 6.85-.1.15-.05.1-.85-2.95-.6 1.35-.55 1.05-6.85 14.2L8.75 49l.6-2.7 5.45-11.1 3.8-9.7.95 3.15q2.95-4.05 2.2-12.75l2 2.85q1.15-5.8-1.8-14.35 5.45 3.35 10 10.85l.25.45q2.2 7.8.8 12.65l2.65-3 .85 2.75q3.2-4.5 6.15-12.05l1.45 3.35q2.15-4.5 3.7-12.35L48.95 0Q54.4 6.25 56 17.05l-.75 12.8-2.1 3.05q-9.85 3.75-16.6 9.1l-.2.15-1.55 1.25-.65.6-.65.9-1.65 2.25-.45.55-.75 1.55-.25.4-.45.9-.3.35q-1.55-1.05 1.15-5.15l2.9-3.25.5-.6 8.95-5.9 9.5-4.35.6-.8.15-.7q.75-3.95 1.05-11.15l.05-1.1m-2.6-4.15q.2 3.8-.4 7.5-.75 4.2-1.75 5.7l-7 6.6q-8.5 2.85-13.75 10-2 2.95-2.7 5.2-.3.9-.35 1.75-1.15 2.55-1.75 2.4l1.3-2.45q.4-2.6 3.3-7.2l.15-.35q4.15-6.1 13.2-10.2l6.65-5.55q2.95-5.75 3.1-13.4m-4.85 54-1.65 1.5-8.9 2.15-4.65 3.35-4.35 3.55 1.5-4.95q1.85-3.2 3.6-5.25l3.05-1.4 2.5-1.7q3.3-3.55-3.5-3.15l-6-.35q-1.7-3.6.5-8.15l8.15-2.45 1.1.65 3.1 1.95 2.75.75 2.7.8.85 1.3.15.4.8 2.45 1 2.95.05.2q-.75 2.9-1.9 4.65l-.15.2-.7.55M31.6 30.65q-3.7 2.7-4.65 4.4l4.65-3.55v-.85m-1.25 22.9-.75.15-.35 1.7v.05q-.6 3.15-.15 5.05l.15.05 5.35.65 3.4-.3q1.8.8 2 1.95v.6l-.1.4-1.25 1.35-.7.8q-2.7 1.85-5.15 2.5l-1.4 2.15-1.4 2.2-.85 1.8-.65 1.5 7.45-5.55 8.7-2.15q1.45-.75 2.6-2.7L48.5 63q-.7-4.6-2.05-6.85l-4.85-1.5-3.95-2.9-1.05.8h-1.95l-4.3 1m6.95 14.2-2.05 2.05-3.05 2.3-.05-.05 4.15-3.8 1-.5m2.35-.9 3.6-1.8 1.5-2.05q.8-1.2 0-2.95l-9.25-4.3L39.65 57l5.6 2.7q1.05 2.35-.45 4.45l-1.35 1.55-3.8 1.15" fill="#4e230c"/><path d="m17.9 31.4.6-1.35.85 2.95.05-.1h.05l-1.05 4-.5-5.5m6.1-8.7.75 1.35.2-.95-.05 5-1.15-4.35.25-1.05m1.15-12.8-.35-2.3 3.55 4.85 2.3 5.7 1.1 10.45-.25 1.15q-1.6.65-5.35 4l-2.8 3.85-.05-.05-.65-3q-1.9 1.7-3.6 3.9L21 35.2l8.15-10.45-1.7-8-2.3-6.85" fill="#8f4923"/><path d="m33.75 30.65 1.15-1.6-.5 3.9-2.75 3.75.75-2.2 1.35-3.85m8.4-9.95.1-.35.35-1.65 1.15 4.8-1.25 3.75-.35-6.55" fill="#914b24"/><path d="m17.35 32.45.55-1.05.5 5.5 1.05-4 .15-.1q1.65-1.65 3.55-6.3l.6-2.75 1.15 4.35.05-5q1.15-6.05.2-13.2l2.3 6.85 1.7 8L21 35.2l-1.95 3.25-.15.2q-2.05 2.65-3.8 6.05l-1-1.7 3.25-10.55" fill="url(#H)"/><path d="M40 63.45v-.6l.15-1.6q-.35-1.1-2.05-1.9-2.8.55-3.5 1.85l-5.35-.65-.15-.05q-.45-1.9.15-5.05 3.7 1.95 9.75 2.9l4.65 1.7-.75 1.35-2.9 2.05" fill="#ffc458"/><path d="m34.8 43.4 4.95.6-6.25.9.65-.9.65-.6" fill="#4ceec7"/><path d="M49.95 3.15q1.7 5.35 1.95 10.6-.15 7.65-3.1 13.4l-6.65 5.55q-9.05 4.1-13.2 10.2l-.15.35q-2.9 4.6-3.3 7.2l-1.3 2.45-.05.15q-1.05.9-2 1.85v-.25h-1.4L19.5 50.7q.1-1.2-.25-2.2l-2.9 2.65v-.4l1.75-3.5 8.35-6.6 5.95-6.15-.75 2.2 2.75-3.75q.5 0 1.45-1.9l3.1-2.15q1.2-1.2 2.45-4.4l.35-2.5.4-1.3.35 6.55 1.25-3.75 3.05-6.85 3.15-13.5" fill="url(#I)"/><path d="m49.95 3.15.05-.4q4.5 8.15 4.5 15.15l-.1 1.15q-.65 7.85-2.65 11.8l-7.65 4.3q-7.15 3.1-9.9 6.75l-.5.6-2.9 3.25q-2.7 4.1-1.15 5.15l-1.9 2.25-.35-.95-1.1 1.45v-4.9q.7-2.25 2.7-5.2 5.25-7.15 13.75-10l7-6.6q1-1.5 1.75-5.7.6-3.7.4-7.5-.25-5.25-1.95-10.6" fill="url(#J)"/><path d="m30.35 53.55 4.3-1h1.95l1.05-.8 3.95 2.9 4.35 2.6 2.05 5.3-.75 3.2q-1.15 1.95-2.6 2.7l-8.7 2.15-7.45 5.55.65-1.5 3-2.5.05-.05 3.05-2.3 2.05-2.05.95-.5 1.4-.4 3.8-1.15 1.35-1.55q1.5-2.1.45-4.45l-5.6-2.7-4.15-1.25-1.5-.5-3.65-1.7" fill="url(#K)"/><path d="M40 62.85q-.2-1.15-2-1.95l-3.4.3q.7-1.3 3.5-1.85 1.7.8 2.05 1.9l-.15 1.6" fill="#985327"/><path d="m31.4 70.65 1.4-2.15q2.45-.65 5.15-2.5l.7-.8 3.35-.15-3.75 2.2-.95.5-1 .5-4.9 2.4" fill="#e2a24f"/><path d="M15.65 59.35 13.6 61.1l-.3.6-.55 1.1-.75 1.5-.2.35-.55-.45v-.05q.5-1.3 2.25-3.6l2.25-1.9.25.45-.35.25" fill="#df8f00"/><path d="m14.05 61.85 1.15-.95q.55.1.55.3l-.55.6-.8.3-.15-.05-.2-.2m-.8 1.7.1.2v.05l-.1.25-.25.1h-.15l-.1-.1-.1-.25.1-.25.25-.1.25.1" fill="#fff"/><path d="M14.25 64.8v-.15q.35-1.65 1.7-1.6-.3 1-1.1 1.5l-.6.25m1.5-2.35q0 .3-.2.3l-.3-.25q0-.35.25-.3l.25.25" fill="#fffa3d"/><path d="m15.9 60.25-.25-.9.35-.25.35.85q.65 1.8.05 3.8-1.4 2.65-3.95 1.45l-.05-.05-.6-.5.2-.35.6.35 1.65.15.6-.25q.8-.5 1.1-1.5.3-.9.15-2.15l-.2-.65m-2.6 1.45.4.5.05.05.15.45.35.95-.85-.4-.65-.45.55-1.1" fill="#6c0914"/><path d="m14.05 61.85-.35.35-.4-.5.3-.6 2.05-1.75.25.9-.7.65-1.15.95m-.65 1.4-.15.3-.25-.1-.25.1-.1.25.1.25.1.1-.25.5-.6-.35.75-1.5.65.45" fill="#c3182d"/><path d="m13.7 62.2.35-.35.2.2.15.05.8-.3.55-.6q0-.2-.55-.3l.7-.65.2.65q.15 1.25-.15 2.15-1.35-.05-1.7 1.6v.15l-1.65-.15.25-.5H13l.25-.1.1-.25v-.05l-.1-.2.15-.3.85.4-.35-.95-.15-.45-.05-.05m2.05.25-.25-.25q-.25-.05-.25.3l.3.25q.2 0 .2-.3" fill="url(#L)"/></g><use ffdec:characterId="2" height="140.45" transform="translate(2.85)" width="220.95" xlink:href="#M" id="c"/><use ffdec:characterId="7" height="141.5" width="47.2" xlink:href="#N" id="d"/><use ffdec:characterId="9" height="92.5" width="50.85" xlink:href="#O" id="e"/><use ffdec:characterId="11" height="63.5" width="89.9" xlink:href="#P" id="f"/><use ffdec:characterId="13" height="79.25" width="62.95" xlink:href="#Q" id="g"/><use ffdec:characterId="15" height="50.15" width="63.8" xlink:href="#R" id="h"/><use ffdec:characterId="17" height="107.35" width="73.75" xlink:href="#S" id="i"/><use ffdec:characterId="19" height="167.85" width="53" xlink:href="#T" id="j"/><use ffdec:characterId="21" height="79.25" width="70.55" xlink:href="#U" id="k"/><use ffdec:characterId="23" height="85.6" width="56" xlink:href="#V" id="l"/><path d="M19.6-3.8q8.15 1.15 8.15 2.75 0 1.65-8.15 2.75L0 2.85-19.65 1.7q-8.1-1.1-8.1-2.75 0-1.6 8.1-2.75L0-4.9l19.6 1.1" fill-opacity=".349" fill-rule="evenodd" transform="translate(27.75 4.9)" id="b"/></defs></svg>