<svg xmlns:ffdec="https://www.free-decompiler.com/flash" xmlns:xlink="http://www.w3.org/1999/xlink" ffdec:objectType="frame" height="90" width="90" xmlns="http://www.w3.org/2000/svg"><use ffdec:characterId="1" height="9.8" transform="matrix(.9184 0 0 1.7292 27.064 71.227)" width="55.5" xlink:href="#a"/><use ffdec:characterId="3" height="126.65" transform="matrix(.3687 0 0 .3685 10 33.85)" width="204.1" xlink:href="#b"/><use ffdec:characterId="5" height="49.4" transform="matrix(.3687 0 0 .3685 44.073 49.452)" width="30.8" xlink:href="#c"/><use ffdec:characterId="7" height="33.8" transform="matrix(.3687 0 0 .3685 35.721 43.95)" width="42.95" xlink:href="#d"/><use ffdec:characterId="9" height="42.7" transform="matrix(.3687 0 0 .3685 31.65 42.95)" width="25.15" xlink:href="#e"/><use ffdec:characterId="11" height="51.7" transform="matrix(.3687 0 0 .3685 3.1 42.55)" width="183.5" xlink:href="#f"/><use ffdec:characterId="13" height="46.4" transform="matrix(.3687 0 0 .3685 42.8 45.25)" width="34.05" xlink:href="#g"/><use ffdec:characterId="19" height="141.15" transform="matrix(.3687 0 0 .3685 23.1 0)" width="132.1" xlink:href="#h"/><use ffdec:characterId="28" height="116.2" transform="matrix(.3687 0 0 .3685 .1 29.4)" width="224.7" xlink:href="#i"/><defs><g id="n" fill-rule="evenodd"><path d="M173.3 38.25q1.15 1.95 1.95 4.05 4.4 11-.25 24.65-9 22.2-35.4 30.2-15.1 2.65-25.4-5-15.65 19.85-35.8 21.8-21.2 4.25-37.85-14.75 1.3-1.7 3.1-3.05 2.95 2.9 5.9 5.25Q65.2 114 80 110.35q18.5-3.25 33.8-21.4 11.2 10.3 30.6 3.4l6.35-3.45q15.6-9.4 20.35-21.65 1.5-3.9 1.9-8.1 2.25-23.15-15.4-31-26-14.1-58.6 18.4-20.6-2.45-35.6.4-9.4 1.75-16.6 5.6-13.7 8.85-9.1 31.4l-2.15.85q-7.9-11.65 5.05-30.45 16.15-15.3 56.6-10.6 26.6-23.3 42.6-23 14.7-2.1 24 5.45l2.1 1.9q2.7 2.75 4.9 6.45l2.5 3.7" fill="#3b160a"/><path d="M173.3 38.25q5.35-1.2 8.1 3.8 4.35 5.8 7.4 5.3 7.15.85 11.7-7.7-.3-12.85-8.1-15.6-7.35-2.4-12.8 2.8 4.55-6.9 12.3-4.8 1.7-9.45-4.7-14.4-8.3-8.15-19 0-5.1 6.7-1.85 15.25l.25-2.15.45 1.4.25 1.7-.4 2.2q-.45 1.45-1 2.05l-2.1-1.9.9-.7q-4-6.3-2.6-13.95 2.9-8.25 8.8-10.2 13.7-4.85 23.1 8 3.35 7.7 0 12.2 9.6 4.6 10.1 15.9-2.45 15.3-17.3 13-5.6-1-7.5-7.8-1.85-2.15-4.05-.35-.8-2.1-1.95-4.05M40.55 99.2q-1.7 2.2-2.55 4.95 8.45 11.9-3.7 20.4-9.45 5.2-20.6-2.5-7.45-6.6-4.5-18.6-6.65-.9-9-10.8-1.75-14 11.1-19.1 11.7-3.6 16.2 10.4 1.75 1.6 5.5 1.2l2.55-.35 2.15-.85 3.35-2.05h.05q3.1-2.4 6.6-6.45 14.05 2.75 7.3 16.1-2.35.45-4.4 1.15-4.1 1.3-6.95 3.45-1.8 1.35-3.1 3.05m-5.65 7.25q-.1-12.75 19.6-16.5 3.5-9.75-6.8-14.5Q38.9 88 31.2 88.15q-3.85.95-7-3.4-4.35-11.3-15.4-5.1Q3.35 83.5 4 92.15q3.35 14.85 20.4 4.9-6.2 6.2-13 4.8-1.65 16.25 9.5 20.5 8.6 3 15.5-4.4 3.4-4.75 0-14.2-.9.7-1.5 2.7" fill="#726c97" fill-opacity=".996"/><path d="M159.7 37.85q2.1.25 4.9-.1 8.4 12.5 6.5 29.5-4.75 12.25-20.35 21.65 8.8-5.6 3.25-19.15 18.55-10.25 5.7-31.9M99 46.55q23.7-18.25 38.4-19.2 9.2-1.15 15.6 2.8.1 1.25.35 2.3-27.65-9-43.95 15.3L99 46.55M74.95 58.7q3.8 5.85 6.25 13.45l.5 2.55q-.6 18.1-18.3 21.45-6.75 1.35-12.8-3.45 2.05-.7 4.4-1.15 6.75-13.35-7.3-16.1-3.5 4.05-6.6 6.45-.2-9.4 6.9-16.15 13.45-10.5 26.95-7.05" fill="#a54901"/><path d="M153.35 32.45q1.2 4.65 6.35 5.4 12.85 21.65-5.7 31.9 5.55 13.55-3.25 19.15l-6.35 3.45q-19.4 6.9-30.6-3.4-15.3 18.15-33.8 21.4-14.8 3.65-30.45-8.95 36.8 3.2 32.15-26.7l-.5-2.55q-2.45-7.6-6.25-13.45-4.75-7.25-11.55-11.75 15-2.85 35.6-.4l10.4 1.2q16.3-24.3 43.95-15.3" fill="#753018"/><path d="M159.7 37.85q-5.15-.75-6.35-5.4-.25-1.05-.35-2.3-6.4-3.95-15.6-2.8-14.7.95-38.4 19.2 32.6-32.5 58.6-18.4 17.65 7.85 15.4 31-.4 4.2-1.9 8.1 1.9-17-6.5-29.5-2.8.35-4.9.1m-96.3 9.1q6.8 4.5 11.55 11.75-13.5-3.45-26.95 7.05-7.1 6.75-6.9 16.15h-.05l-3.35 2.05q-4.6-22.55 9.1-31.4 7.2-3.85 16.6-5.6M81.7 74.7q4.65 29.9-32.15 26.7-2.95-2.35-5.9-5.25Q46.5 94 50.6 92.7q6.05 4.8 12.8 3.45Q81.1 92.8 81.7 74.7" fill="#d17227"/><path d="M187.45 28.3q.75-.45 1.35-.45 3.85 0 6 2.2 2.3 2.3 2.3 6.75 0 3.1-2 5.35-2.05 2.3-4.95 2.3-2.85 0-4.85-1.95-1.95-2-2.3-5.25l.05-.9 1.65.5q1.75 0 3.2-1 1.8-1.25 1.8-3.35 0-1.2-.3-1.85-.4-.85-1.95-2.35M174.7 10.15q10.4-6.2 13.6 8.1-9.8-5.55-17.6 6-5.15-7.9 4-14.1m-127 65.3q10.3 4.75 6.8 14.5-19.7 3.75-19.6 16.5-3.5-4 1-11.1 7.45-8.9 15.5-9.7.55-5.9-3.7-10.2m-19.1 31.5q3.1 2.55 3.1 5.55 0 2.7-2.8 4.65-2.45 1.7-5.15 1.7-2.2 0-4.15-2.45-1.6-2-2.2-4.35 8.95.35 4-7.4l1.05-.2q3.2 0 6.15 2.5m-8.9-25q7.55 11.05-3 15.4-8.05 2.85-9.8-5.7 13.3 6.75 12.8-9.7" fill="#c9c7ef"/><path d="M187.45 28.3q1.55 1.5 1.95 2.35.3.65.3 1.85 0 2.1-1.8 3.35-1.45 1-3.2 1l-1.65-.5-.05.9q.35 3.25 2.3 5.25 2 1.95 4.85 1.95 2.9 0 4.95-2.3 2-2.25 2-5.35 0-4.45-2.3-6.75-2.15-2.2-6-2.2-.6 0-1.35.45m-21.55-.2q.55-.6 1-2.05l.4-2.2-.25-1.7-.45-1.4-.25 2.15q-3.25-8.55 1.85-15.25 10.7-8.15 19 0 6.4 4.95 4.7 14.4-7.75-2.1-12.3 4.8 5.45-5.2 12.8-2.8 7.8 2.75 8.1 15.6-4.55 8.55-11.7 7.7-3.05.5-7.4-5.3-2.75-5-8.1-3.8l-2.5-3.7q-2.2-3.7-4.9-6.45m8.8-17.95q-9.15 6.2-4 14.1 7.8-11.55 17.6-6-3.2-14.3-13.6-8.1m-139.8 96.3q.6-2 1.5-2.7 3.4 9.45 0 14.2-6.9 7.4-15.5 4.4-11.15-4.25-9.5-20.5 6.8 1.4 13-4.8Q7.35 107 4 92.15q-.65-8.65 4.8-12.5 11.05-6.2 15.4 5.1 3.15 4.35 7 3.4 7.7-.15 16.5-12.7 4.25 4.3 3.7 10.2-8.05.8-15.5 9.7-4.5 7.1-1 11.1m-6.3.5q-2.95-2.5-6.15-2.5l-1.05.2q4.95 7.75-4 7.4.6 2.35 2.2 4.35 1.95 2.45 4.15 2.45 2.7 0 5.15-1.7 2.8-1.95 2.8-4.65 0-3-3.1-5.55m-8.9-25q.5 16.45-12.8 9.7 1.75 8.55 9.8 5.7 10.55-4.35 3-15.4" fill="#fff"/></g><g id="o"><path d="m24.45 11.65.15-1.8q0-2.4-2.75-8.25L20-2.5q-.85-2-1.35-3.65l-.2-.65v-.05l-.25-.95-.35-2.35-.2-.8-.15-.55-.1-.3q1.4.7 1.8 1.2l2.5 4.05 1.15 2.45-.25-.35-.3-.45-2-2.9L22.65-2q3.15 8.65 3.15 14.9l-1.05-1-.3-.25M22.3-4.9l-.6-1.65.6 1.65" fill="#ffaf8e" fill-rule="evenodd" transform="translate(3.6 21.3)"/><path d="M10.65 11.65q2-1.1 3.85-1.65 5.65-1.75 9.95 1.65l-.15.35-.95-.1-.6-.2Q16 9.65 10.2 13.7l-.6 10.2 1.9-1.3 3.5-2.5 1.1-.8q5.5 3.1 6.9 5.9l.8-1.3.95-2.4q1-3.4 1.05-8.6 0-6.25-3.15-14.9L20.3-7.8l2 2.9.3.45.25.35L25.2-.6q3.6 14 .65 23.6l-.9 2.45-1.35 2.65q-3.1-.75-7.7-5.6L10 27.7l-1.4-1.1V14.1Q-3.1 11.8-3.6 2.5q-.2-3.65 1.5-7.6l.85-1.75-.15 9.05.05.3.5 2.6Q.9 10.55 8.6 12.9q1.05-.7 2.05-1.25M22.85-4.1l.9 2.35.65 2-.65-2-.9-2.35M-2.2 1.05l.1-6.15-.1 6.15" fill="#7b0e0f" fill-rule="evenodd" transform="translate(3.6 21.3)"/><path d="m14.5 10-2.45-.9Q9.8 8.2 9 7.2L7.8 5.6q-.65-.95-.8-1.7l-.55-2.2Q6 .2 6-.6l.9-6.15.15-.8 2.15-3.1q1.15-1.25 2.9-1.95 1.3-.55 2.9-.75l1.3-.1.1.05.85 1.3.05.25.1.05.1.3-.15-.25.25.95.05-.15.2.8.35 2.35.25.95v.05l.2.65Q19.15-4.5 20-2.5l1.85 4.1q2.75 5.85 2.75 8.25l-.15 1.8q-4.3-3.4-9.95-1.65m8.2 1.8.65.1.9.3 1.55.7q-.05 5.2-1.05 8.6l-.75-.8-1.5-1-1.85-1.3q-1.4-.8-2.7-.8-.4 0-.6.2l-.05-.1-.1-4.7 5.5-1.2" fill="#df6c6c" fill-rule="evenodd" transform="translate(3.6 21.3)"/><path d="M22.7 11.8 17.2 13l-.85.2-1.05.3-3.7 1.1-.2.1-.05.25q-.15 1.05-.15 3.6 0 1.5.3 4.05l-1.9 1.3.6-10.2q5.8-4.05 12.55-2l-.05.1m-6.5 7.4.95-.2q1.3 0 3.8 2.1l2.85 2.8-.8 1.3q-1.4-2.8-6.9-5.9l.1-.1m-17.6-17q.05-.65.9-1.4Q.5 0 1.3 0q1.2 0 2 .8t.8 1.95Q4.1 5.3.55 5.3l-1.4-.2-.5-2.6-.05-.3" fill="#ffd9b7" fill-rule="evenodd" transform="translate(3.6 21.3)"/><path d="M16.3-13.45q-1.25-.95-2.6-1.4 1.45-.95 3.05-1.6l1.7 2.55 1 1.95 2.25 5.4-2.5-4.05q-.4-.5-1.8-1.2l-.1-.05-.05-.25-.85-1.3-.1-.05m-14-4.85-1.15 2.55Q-1.5-8.4 2.2-2.1l-.3.5.55.3Q5.3.4 5.3 2.45q0 1.15-.45 1.8L3.5 5.7q4.2 4.9 7.15 5.95-1 .55-2.05 1.25Q.9 10.55-.85 5.1l1.4.2q3.55 0 3.55-2.55Q4.1 1.6 3.3.8t-2-.8Q.5 0-.5.8q-.85.75-.9 1.4l.15-9.05-.85 1.75q.65-10.4 4.4-13.2m15.35 7.35-.05.15-.25-.95.15.25.15.55M5.45-7.4l.1-.2-.25.55.1-.25.05-.1m6.05 30q-.3-2.55-.3-4.05 0-2.55.15-3.6l.05-.25.2-.1 3.7-1.1-.25 4.3v1.65l-.05.65-3.5 2.5" fill="#ffb08e" fill-rule="evenodd" transform="translate(3.6 21.3)"/><path d="m13.4-14.95.05.05h.05l-.1-.05m2.9 1.5-1.3.1q-1.6.2-2.9.75-1.75.7-2.9 1.95l-2.15 3.1-.15.8L6-.6q0 .8.45 2.3L7 3.9q.15.75.8 1.7L9 7.2q.8 1 3.05 1.9l2.45.9q-1.85.55-3.85 1.65Q7.7 10.6 3.5 5.7l1.35-1.45q.45-.65.45-1.8Q5.3.4 2.45-1.3l-.55-.3.3-.5q-3.7-6.3-1.05-13.65L2.3-18.3l.1-.05q4.9-3.45 10.25-1.45 2.15.75 4.1 3.35-1.6.65-3.05 1.6 1.35.45 2.6 1.4M5.55-7.6l-.1.15v.05l-.05.05v.05l-.1.25.25-.55M17.2 13l.1 4.7v.1h.05q.2-.2.6-.2 1.3 0 2.7.8l1.85 1.3 1.5 1 .75.8-.95 2.4-2.85-2.8q-2.5-2.1-3.8-2.1l-.95.2-1.15.25V17.8l.25-4.3 1.05-.3.85-.2" fill="#a44647" fill-rule="evenodd" transform="translate(3.6 21.3)"/><path d="M20.35 4.85q-1.95-2.6-4.1-3.35Q10.9-.5 6 2.95L5.9 3Q2.15 5.8 1.5 16.2l-.1 6.15m23.9-7.6-2.25-5.4-1-1.95-1.7-2.55m6.1 12.35-1.15-2.45.6 1.65.3.45m1.8 4.7-.65-2-.9-2.35" fill="none" stroke="#7b0e0f" stroke-linecap="round" stroke-linejoin="round" stroke-width="1.5"/></g><g id="p"><path d="m31.9 22.15-.8-4.95q-.95-5.1-1.85-7.55l-.55.4-1.25.25-3-.3q-2.05 0-5.35 3.8t-4.5 3.8q-1.25 0-2.3-.9-.85-.75-1.6-2-1.8-3.05-1.8-7.25l.25-4.15q.2-2.05.5-3.15L40.2.9q8.25 26.6.7 27.45-.7.7-3.2 1.35l-6.3 2.75q.8-3.9.8-6.15l-.3-4.05.1-.15-.1.05" fill="#609dca" fill-rule="evenodd" transform="translate(-1.55)"/><path d="M12.3 16.7q1.05.9 2.3.9 1.2 0 4.5-3.8t5.35-3.8l3 .3 1.25-.25.55-.4q.9 2.45 1.85 7.55l.8 4.95v.1q-1.55 1.85-3.85 3.7-2.35 1.85-3.2 1.85l-.75-.05q-.1-.9-.7-1.55l-.8-.55-.1-.05-.8-.15q-1 0-1.7.75l-.15.2q-.5.6-.55 1.45v.4l.2.8q-2.45-.4-4.95-2.4-3.25-2.5-3.25-5.6 0-1.55.25-2.45l.75-1.9m9.95 3.25-.05-.05q-.5-.45-1.25-.5l.35.9-.35.6-.6.4q-.65 0-.65-.75l.25-.65.55-.45q-.65.05-1.1.5-.55.6-.55 1.45l.15.7.4.7.35.3 1.1.3q.85 0 1.4-.6.6-.55.6-1.4 0-.85-.6-1.45M21 27.8l-.25-.4q-.2-1.2.95-1.2l.5.05.15.3v.15q0 1.25-.9 1.25l-.4-.1-.05-.05" fill="#fff" fill-rule="evenodd" transform="translate(-1.55)"/><path d="M19.3 28.25v-.4q.05-.85.55-1.45.1.75.45 1l.7.4.05.05.4.1q.9 0 .9-1.25v-.15l.15-.25.05-.2-.05-.45h.1l.25 1.15q0 2.45-1.9 2.45l-.9-.2-.15-.1-.6-.7m2.9-8.35v.6q0 1.05-.4 1.55-.5.7-2.05 1.05l-.35-.3-.4-.7.65.1q.7 0 1.15-.45.5-.5.5-1.25v-.2l-.35-.9q.75.05 1.25.5" fill="#b14800" fill-rule="evenodd" transform="translate(-1.55)"/><path d="m22.6 25.65.8.55q.6.65.7 1.55v.3q0 1.1-.7 1.85t-1.65.75h-.1l-.4-.05h-.1L20 29.9l-.05-.05-.45-.8h.55l.9.2q1.9 0 1.9-2.45l-.25-1.15m-.4-5.7h.05q.6.6.6 1.45t-.6 1.4q-.55.6-1.4.6l-1.1-.3q1.55-.35 2.05-1.05.4-.5.4-1.55v-.55" fill="#d17227" fill-rule="evenodd" transform="translate(-1.55)"/><path d="m19.85 26.4.15-.2q.7-.75 1.7-.75l.8.15v.05l.05.45-.05.2-.15.25-.15-.3-.5-.05q-1.15 0-.95 1.2l.25.4-.7-.4q-.35-.25-.45-1m1.45-6.1v.2q0 .75-.5 1.25-.45.45-1.15.45l-.65-.1-.15-.7q0-.85.55-1.45.45-.45 1.1-.5l-.55.45-.25.65q0 .75.65.75l.6-.4.35-.6" fill="#ff0" fill-rule="evenodd" transform="translate(-1.55)"/><path d="m31.9 22.25.3 4.05q0 2.25-.8 6.15-10.15 3.4-9.65-1.8.95 0 1.65-.75t.7-1.85v-.3l.75.05q.85 0 3.2-1.85 2.3-1.85 3.85-3.7M9.65.15q-.3 1.1-.5 3.15L8.9 7.45q0 4.2 1.8 7.25.75 1.25 1.6 2l-.75 1.9q-.25.9-.25 2.45 0 3.1 3.25 5.6 2.5 2 4.95 2.4l.45.8q-2.95-.9-8.4 2.7l-4.15.15q-6.35-3.2-5.8-6L3.2 0l6.45.15" fill="#93cdf6" fill-rule="evenodd" transform="translate(-1.55)"/><path d="m19.5 29.05-.2-.8m0-.4q.05-.85.55-1.45l.15-.2q.7-.75 1.7-.75l.8.15m.1.05.8.55q.6.65.7 1.55v.3q0 1.1-.7 1.85t-1.65.75h-.1l-.4-.05h-.1L20 29.9l-.05-.05-.45-.8m2.75-9.1-.05-.05q-.5-.45-1.25-.5M19 22.1l.4.7.35.3 1.1.3q.85 0 1.4-.6.6-.55.6-1.4 0-.85-.6-1.45M19 22.1l-.15-.7q0-.85.55-1.45.45-.45 1.1-.5" fill="none" stroke="#592801" stroke-linecap="round" stroke-linejoin="round" transform="translate(-1.55)"/></g><g id="q" fill-rule="evenodd"><path d="M.25 26.35 1 26l2.45 5.8 2.95 8.85q3.25-3.25 6-8.2l.3-.6 10.35 6.55-1.55-3.55q-2.05-5.25-2.85-10.95l1.1.65q1.55 7.75 5.4 16.35L12.8 33.6q-3.05 6.05-6.7 9.1L.25 26.35" fill="#7b0e0f"/><path d="m1 26-.75.35q-1-9.35 1.85-15l2.05 2.85Q2.5 18.85 2.3 23.5q6.25-3.1 13.15-1.95l2.9.65q-.1-3.95.2-7.8Q18.9 9.15 20 4.2l.95.4q-1.5 10.15-1.2 19.95l-1.1-.65q-3-1.55-7-1.2Q7 23.1 1 26" fill="#1e6090"/><path d="M4.15 14.2 2.1 11.35Q6.15 3.25 10.8 0l1.35.6-2.2 2.85.85.95q.7 1 .7 1.8l-.15.8-.45.85-.1.1q-.75.95-1.85 1.1h-.4l-1.9-.4-1.4 2.75-.5 1.2q2.55-1.05 4.8-.8l6.6-9.35 1.55.7-4.55 5.7-.6.75-2.45 3.1q-2.7.15-5.95 1.5m5.9-7.3.2-.8v-.25l-.25-.7-.7-.8-.2.3-.5.7-1.3 2.1.55.35h.55q.7 0 1.25-.5l.4-.4" fill="#592801"/><path d="M1 26q6-2.9 10.65-3.3l5.15 1.95q1.7 6.55 4.7 10.2l1.55 3.55-10.35-6.55-.3.6-5.25 5.5-3.7-6.15L1 26" fill="#df6c6c"/><path d="M11.65 22.7q4-.35 7 1.2.8 5.7 2.85 10.95-3-3.65-4.7-10.2l-5.15-1.95" fill="#ffb08e"/><path d="M15.45 21.55Q8.55 20.4 2.3 23.5q.2-4.65 1.85-9.3 3.25-1.35 5.95-1.5l2.45-3.1 3.65 3.95q-1.35 4.4-.75 8m-12 10.25 3.7 6.15 5.25-5.5q-2.75 4.95-6 8.2L3.45 31.8" fill="#fff"/><path d="M18.55 14.4q-.3 3.85-.2 7.8l-2.9-.65q-.6-3.6.75-8L12.55 9.6l.6-.75 5.4 5.55" fill="#93cdf6"/><path d="M20 4.2q-1.1 4.95-1.45 10.2l-5.4-5.55 4.55-5.7L20 4.2" fill="#609dca"/><path d="m12.15.6 4 1.85-6.6 9.35q-2.25-.25-4.8.8l.5-1.2 2-1.55 1.7-.8q1.1-.15 1.85-1.1l.1-.1.45-.85.15-.8q0-.8-.7-1.8l-.85-.95L12.15.6" fill="#ec751b"/><path d="m5.25 11.4 1.4-2.75 1.9.4h.4l-1.7.8-2 1.55m4.8-4.5-.4.4q-.55.5-1.25.5h-.55l-.55-.35 1.3-2.1.5-.7.2-.3.7.8.25.7v.25l-.2.8" fill="#ffdb00"/></g><g id="r" fill-rule="evenodd"><path d="m146.9 31.25-3.4 1.15-4.3 1.2q-13.25 3.2-26.05.9l-2.2-.45q-5.75-.6-11.2-1.8-7.55-1.65-14.5-4.45-9-4.4-14.55-9.9.7 4.3-.2 7.95-1.25 4.95-5.5 8.7l2.85-.25q13.1-1 25.7-.2l1.5.15 9.2 1.25 1 .15 4.95 1.05q4.4.95 8.6 2.3 13.95 4.9 26.1 11.3l31.6-1.15 3.7-.15-2.25-1.3-29.3-17.1-1.75.65m1.3 7.95-.45-4.1-.45-2.15-.05-.4.05-.15q1.25 1.6 1.65 3.7l.3 3.8q0 2.2-1.15 5.4l-.9 2.1q-.8 1.4-1.6 1.4-.4 0-.4-.45l1.5-2.7q.8-1.55 1.2-3.1l.25-1.55.05-1.1v-.7m-12.6-5.7 12.8-3.9 35.1 20-38.9 2.1q-16.2-8.75-32.1-12.8-22.2-6.05-51.6-2.5l-1.1-3.3h-4.5v4.3L37.5 25.9l-1.3-3.8-4.8-2.8v1.2Q15.85 15.7 0 0l27.3 3.5 1 2.5 5.1 1.6V6.4l19 2.4 1.2 5.7h2.8q-1.1-1.65 1-3.6Q65 12 71.5 15.3q6.25 6.25 11.4 8.9 16.9 10.85 52.7 9.3M52.2 16.9l.15 1.8.15 2.1.2 1.7q.45 3.65 1.2 7.25L59.4 31q-.75-3.1-1.2-6.75l-.15-1.5-.2-2.55-.1-1.7-.05-.9-5.55-2.05.05 1.35m-10.75 9.35 10.7 6.65 1.2.75q-2.25-10.7-3.2-23.2Q41.9 9.7 34.7 7.7l4.15 16.95 1.15.75 1.45.85m27.1 1.15.45-1.7q.75-3.75.3-8.95Q62.9 15.3 58.8 13q-.05 11.85 2.85 21.65l.55-.15q.75-.3 1.4-.65 3.55-1.9 4.95-6.45M26.05 6.75l-.25-1.7-23-4.3 4 2.6 4 2.55 14.35 9.3L27.9 17l1.05.65q-1.5-3.65-2.5-8.7l-.05-.25-.35-1.95m2.2 3.35.2.95 1.25 5.55.2.1 6.2 2.4-.75-3.1-.35-1.55-.45-1.65-.3-1.25-.35-1.4-6.05-1.65.4 1.6" fill="#592801"/><path d="m176.5 49.15-31.6 1.15q-12.15-6.4-26.1-11.3-4.2-1.35-8.6-2.3 1.55-.65 2.95-2.2 12.8 2.3 26.05-.9 2.7 2.45 4.05 7.1l4.65 1.85q-.4 1.55-1.2 3.1l-1.5 2.7q0 .45.4.45.8 0 1.6-1.4 1.85-.1 3.3-4.2l26 5.95m-81.45-14.9-1.5-.15q-12.6-.8-25.7.2 2.3-1.7 4.05-6.35 10.75 3.6 23.15 6.3m-36.85-10q.45 3.65 1.2 6.75l-5.5-1.25q-.75-3.6-1.2-7.25l5.5 1.75m-6.05 8.65-10.7-6.65-.6-7.75 9.3 2.7 2 11.7m11.45.95.7-8 4.25 1.55q-1.4 4.55-4.95 6.45M25.15 15.2 10.8 5.9 23 10.85l2.15 4.35m4.75-1.4 5.45 2.2.75 3.1-6.2-2.4v-2.9" fill="#ec751b"/><path d="m177.95 47.7 2.25 1.3-3.7.15-26-5.95.4-1.4 27.05 5.9m-73.7-12.2-9.2-1.25q-12.4-2.7-23.15-6.3-1.75 4.65-4.05 6.35l-2.85.25q4.25-3.75 5.5-8.7Q78.1 28.8 90.1 32l14.15 3.5m34.95-1.9 4.3-1.2.45 5.65.15 1.7 4.05 1.25-.25 1.55-4.65-1.85q-1.35-4.65-4.05-7.1M52.5 20.8l5.55 1.95.15 1.5-5.5-1.75-.2-1.7m-2.35.4-9.3-2.7.6 7.75L40 25.4l-2.1-9.8 12.05 4.6.2 1m18.4 6.2-4.25-1.55-.7 8q-.65.35-1.4.65l-1-11 7.8 2.2-.45 1.7M27.9 17l-2.75-1.8L23 10.85 10.8 5.9l-4-2.55 19.1 7.45 2 6.2m2-3.2v-1.1l5.1 1.75.35 1.55-5.45-2.2" fill="#b04700"/><path d="m143.5 32.4 3.4-1.15.3 1.3.1.4.45 2.15.45 4.1-4.25-1.15-.45-5.65m-33.3 4.3-4.95-1.05-1-.15L90.1 32q4.6.7 9.65.25 5.45 1.2 11.2 1.8l2.2.45q-1.4 1.55-2.95 2.2m40.85 2.85v-6l15.9 9.7-15.9-3.7m-102.2-22L37.5 13.5l-.65-3.5 12 2.8v4.75m3.5 1.15-.15-1.8 5.55 1.6.1 1.7-5.5-1.5m19.5 5.95.55-3.45q4.75 3.9 16.25 8.55l-16.8-5.1m-3.4-1.2-7.5-3.5-.5-3.95q3.45 1.8 8 2v5.45m-42.4-16.7.35 1.95-11.35-4.1 11 2.15m2.4 4.3-.2-.95 6 1.45.3 1.25-6.1-1.75" fill="#ffdb00"/><path d="m146.9 31.25 1.75-.65 29.3 17.1-27.05-5.9-.4 1.4q-1.45 4.1-3.3 4.2l.9-2.1q1.15-3.2 1.15-5.4l-.3-3.8q-.4-2.1-1.65-3.7l-.05.15h-.05l-.3-1.3m-76.4-5.4q.9-3.65.2-7.95 5.55 5.5 14.55 9.9 6.95 2.8 14.5 4.45-5.05.45-9.65-.25-12-3.2-19.6-6.15m73.45 12.2 4.25 1.15v.7l-.05 1.1-4.05-1.25-.15-1.7m7.1 1.5 15.9 3.7-15.9-9.7v6m-102.2-22V12.8l-12-2.8.65 3.5 11.35 4.05m3.5 1.15 5.5 1.5.2 2.55-5.55-1.95-.15-2.1m5.4-.2-5.55-1.6-.05-1.35 5.55 2.05.05.9m-5.6 14.4-2-11.7-.2-1-12.05-4.6 2.1 9.8-1.15-.75L34.7 7.7q7.2 2 15.45 2.75.95 12.5 3.2 23.2l-1.2-.75m19.7-8.25 16.8 5.1Q77.15 25.1 72.4 21.2l-.55 3.45M69 25.7l-7.8-2.2 1 11-.55.15q-2.9-9.8-2.85-21.65 4.1 2.3 10.5 3.75.45 5.2-.3 8.95m-.55-2.25V18q-4.55-.2-8-2l.5 3.95 7.5 3.5M6.8 3.35l-4-2.6 23 4.3.25 1.7-11-2.15L26.4 8.7l.05.25q1 5.05 2.5 8.7L27.9 17l-2-6.2L6.8 3.35m21.65 7.7 6.1 1.75.45 1.65-5.1-1.75v4l-.2-.1-1.25-5.55m5.8.5-6-1.45-.4-1.6 6.05 1.65.35 1.4" fill="#fff"/></g><g id="s"><path d="M31.1 33.6q-4.05 9.75-14.75 12.8-.9-4.8-3.4-10.5Q4.1 38.45 0 35.75q6.6-5.9 11.4-13.8l.7.2q-4.95 9.15-10.05 13Q7 36.2 13.35 34.6q2.45 4.1 3.6 10.5 7.85-3.3 12.3-9.8l1.45-2.35.4.65" fill="#7b0e0f" fill-rule="evenodd"/><path d="M31.45 8.35Q36.8 27 31.1 33.6l-.4-.65Q26.05 26.2 13.35 22.5l-.65-.15-.6-.2-.7-.2q2.9-6.45 2.2-16.25l1.1-.4q.3 2.2.25 4.7-.15 5.05-2 11.1l4.7 1.05.3.1q4.8 1.6 9.2 5.25l4.05 3.9q3.25-8.3-.55-21.65l.8-1.4" fill="#1e6090" fill-rule="evenodd"/><path d="M28.05.35 29 0l1.7 5 .3 1.15.45 2.2-.8 1.4q-2.25 3.5-5.6 5.4l-5.6-4.6v-7l1.15-.45-.5 6.85L24.95 14l5.45-5-.55-2-.3-1.1-1.5-5.55" fill="#592801" fill-rule="evenodd"/><path d="M13.1 23q11.05 4.4 14.95 10.05-3.3 4-7.05 5.85l-2.8-7.15-9.15.25 4.05-9" fill="#df6c6c" fill-rule="evenodd"/><path d="m13.35 22.5-.25.5-4.05 9 9.15-.25L21 38.9l.25.65q4.1-.7 8-4.25-5.25 4.95-10.6 6.95-1.45-4.2-4.5-8.45h-7.6l6.15-11.45.65.15" fill="#ffb08e" fill-rule="evenodd"/><path d="m30.7 32.95-1.45 2.35q-3.9 3.55-8 4.25L21 38.9q3.75-1.85 7.05-5.85Q24.15 27.4 13.1 23l.25-.5q12.7 3.7 17.35 10.45" fill="#a44647" fill-rule="evenodd"/><path d="M29.25 35.3q-4.45 6.5-12.3 9.8-1.15-6.4-3.6-10.5-6.35 1.6-11.3.55 5.1-3.85 10.05-13l.6.2L6.55 33.8h7.6q3.05 4.25 4.5 8.45 5.35-2 10.6-6.95" fill="#ffd9b7" fill-rule="evenodd"/><path d="M19.45 7.05v3.5l5.6 4.6q3.35-1.9 5.6-5.4 3.8 13.35.55 21.65l-4.05-3.9 1.2-2.75q1-3.8.1-9.95l-3.7 3-9.3-7.4 4-3.35" fill="#609dca" fill-rule="evenodd"/><path d="m14.7 5.3 4.75-1.75v3.5l-4 3.35 9.3 7.4 3.7-3q.9 6.15-.1 9.95l-1.2 2.75q-4.4-3.65-9.2-5.25l-.3-.1-4.7-1.05q1.85-6.05 2-11.1.05-2.5-.25-4.7" fill="#fff" fill-rule="evenodd"/><path d="M24.5 1.65 26 1.1v4.6q-.2-.2-.5-.25l-1 .15 1-.15q.3.05.5.25v3.05l.65-.5 2.9-2.35.3 1.1-5.35 4.1V9.75l1.3-.3.85-1.2-.85 1.2-1.3.3v-8.1" fill="#b04700" fill-rule="evenodd"/><path d="m26 1.1 2.05-.75 1.5 5.55-2.9 2.35.05-.15q.2-.85-.1-1.65L26 5.7l.6.75q.3.8.1 1.65l-.05.15-.65.5V1.1" fill="#ec751b" fill-rule="evenodd"/><path d="m20.6 3.1 3.9-1.45V5.6l-.4.2q-.65.5-.85 1.35Q23 8 23.3 8.8q.35.75 1.05.9l.15.05-.15-.05q-.7-.15-1.05-.9-.3-.8-.05-1.65.2-.85.85-1.35l.4-.2v5.5L29.85 7l.55 2-5.45 5-4.85-4.05.5-6.85" fill="#ffdb00" fill-rule="evenodd"/><path d="m24.5 9.75-.15-.05q-.7-.15-1.05-.9-.3-.8-.05-1.65.2-.85.85-1.35l.4-.2 1-.15q.3.05.5.25l.6.75q.3.8.1 1.65l-.05.15-.85 1.2-1.3.3z" fill="none" stroke="#592801" stroke-linecap="round" stroke-linejoin="round"/></g><g id="t"><path d="M12.55 72.8v.05h-.05l.05-.05" fill="#f16ed4" fill-rule="evenodd"/><path d="m25.2 95-1 2.55Q4.2 94.8.5 77.85q-1.4-10 1.3-19.7Q.95 56.2.65 54.7.4 53.35.4 51.35q0-7.95 4.35-9.3h.15l-.1.1q6.2 7.5 13.3 11.1h.6l3.8 1.6 5 2q1.95.85 3.9 2.7l2.25 1.9q1.2 1.25 2.8 4l-1.5 4-.6-1.25q-1.5-3.1-2.9-4.7-1.25-1.45-3.55-3.15-1.35-1.25-3.9-2.2l-4.5-1.4q-4.65-1.5-8-3.85-4.15-2.95-7-7.55-1.95 6.15 0 11.6-2.15 8.55-1.2 18.7 3.15 17.6 20.3 19.2l1.6.15m-7-21.1q1.55 1.35 3 3.9 2.4 4.25 2.4 6.1l-.4.55-.8-1.55-.7-1.5-1.5-2.7-1.3-.5q-1.2-.55-2.2-.55l-.95.15-.4.15-.5-.05-.05-.25q0-.65 3.1-.9h.95l-1.25-1.7q-1.9-1.9-5.05-2.2v-.1q.3-.45 1.7-.45 2.1 0 3.95 1.6" fill="#7b0e0f" fill-rule="evenodd"/><path d="m25.2 95-1.6-.15Q10.8 91.6 6.75 79.6l1.2.4 1.65.45 2.8-.25 2.15-.55.15.7q.2.85 2.15 2.45 2.1 1.65 3.35 1.65.9 0 1.6-.65l.6-.9.8 1.55.4-.55q0-1.85-2.4-6.1-1.45-2.55-3-3.9-.5-1.35-.85-3.25-.45-2.55-.45-4.55 0-4.7 1.9-6.55l.7.4q10 1.9 14.85 8.25l.6 1.25L25.2 95" fill="#df6c6c" fill-rule="evenodd"/><path d="m6.75 79.6-.85-3.05q-1.95-10.6.6-26.2 5.6 5.4 12.3 9.2-1.9 1.85-1.9 6.55 0 2 .45 4.55.35 1.9.85 3.25-1.85-1.6-3.95-1.6-1.4 0-1.7.45v.05l-.05.05h.05l.45.9.6 1.4.4 1.7.5 2.7.05.1-2.15.55-2.8.25L7.95 80l-1.2-.4" fill="#ffb08e" fill-rule="evenodd"/><path d="m22.4 82.9-.6.9q-.7.65-1.6.65-1.25 0-3.35-1.65-1.95-1.6-2.15-2.45l-.15-.7-.05-.1-.5-2.7-.4-1.7-.6-1.4-.45-.9q3.15.3 5.05 2.2l1.25 1.7h-.95q-3.1.25-3.1.9l.05.25.5.05.4-.15.95-.15q1 0 2.2.55l1.3.5 1.5 2.7.7 1.5" fill="#a44647" fill-rule="evenodd"/><path d="M23.6 94.85q-17.15-1.6-20.3-19.2-.95-10.15 1.2-18.7-1.95-5.45 0-11.6 2.85 4.6 7 7.55 3.35 2.35 8 3.85l4.5 1.4q2.55.95 3.9 2.2 2.3 1.7 3.55 3.15 1.4 1.6 2.9 4.7-4.85-6.35-14.85-8.25l-.7-.4q-6.7-3.8-12.3-9.2-2.55 15.6-.6 26.2l.85 3.05q4.05 12 16.85 15.25" fill="#ffd9b7" fill-rule="evenodd"/><path d="M90.65 112.3q1.4-3 2.05-6.35h4.7q-1.35 13.45-24.2 22.7-4.65 1.9-9.5 2.45 1.4 6.3-.55 10.05-5.9-1.6-9.2-6.9-2.7 4.2-6.95 5.45-2.75-4.8-1.3-10.85-5.15-1.8-10.5-4.9-11.3-6.85-7.9-17.9h1.8l.1 4.2q.8 9.3 6.8 12.4 5.45 3.1 10.65 4.9l-.45-1.85q-.8-4.55 2.85-7.85l1.25 1q-3.7 2.75-2.3 9.1l.5.15 1.75.5.35.1q5 1.2 9.75 1.2 2.45-4.35-.55-10.25l.4-1.4q4.35 4 1.4 11.6l1.7-.1 2.7-.4q5.8-1.5 10.35-3.7 3.35-1.6 6.05-3.6 5.5-4.1 8.25-9.75m-43.3 26.1q3.5-1.4 6.1-4.95l-1.35-2.85-.85-.2-1.95-.45-2.6-.75q-1 5 .65 9.2m9.45-7.15-3.85-.5q3.35 6.4 9.1 9.4 1.2-1.45 1.15-4.55l-.55-4.4-3.95.15-1.9-.1" fill="#510b17" fill-rule="evenodd"/><path d="m29.9 110.5 19.15 7.35q-3.65 3.3-2.85 7.85l-1.2-.25.15-2.9Q37.1 120 31.8 115.6q-1.25-2.3-1.9-5.1m27.8 9 2.1.15q3 5.9.55 10.25-4.75 0-9.75-1.2l2-.6 2.4-1.35q2-1.2 2.55-2.05.4-.7.4-2.5l-.25-2.7m2.5-1.25 25.4-4.95q1 2.6-3.2 8.75-2.7 2-6.05 3.6 1.95-1 3.55-3.4-7.45 2.7-14.6 2.2-.15 4.15-2 5.3l-1.7.1q2.95-7.6-1.4-11.6m-8.95 12.15.85.2 1.35 2.85q-2.6 3.55-6.1 4.95l-.05-1.35q3.85-1.4 3.95-6.65m7.45.95 3.95-.15.55 4.4q-.6 2.35-1.7 3.2 1.1-2.7-2.8-7.45" fill="#891328" fill-rule="evenodd"/><path d="m56.75 119.4.95.1.25 2.7q0 1.8-.4 2.5-.55.85-2.55 2.05l-2.4 1.35-2 .6-.35-.1-1.75-.5-.35-1.5q0-1.25 1.2-2.55 1.2-1.3 2.65-1.5 1.35-.15 2.65-1.05l1.35-1.05.75-1.05m19.6 6.25q-4.55 2.2-10.35 3.7l-2.7.4q1.85-1.15 2-5.3 7.15.5 14.6-2.2-1.6 2.4-3.55 3.4m-27.05 4.3 1.95.45q-.1 5.25-3.95 6.65-.05-4.05 2-7.1m7.5 1.3 1.9.1q3.9 4.75 2.8 7.45-2.9-1.85-4.7-7.55m-11.8-5.8q-9.3-2.4-13.2-9.85 5.3 4.4 13.35 6.95l-.15 2.9" fill="#de1818" fill-rule="evenodd"/><path d="m29.2 110.25.7.25q.65 2.8 1.9 5.1 3.9 7.45 13.2 9.85l1.2.25.45 1.85q-5.2-1.8-10.65-4.9-6-3.1-6.8-12.4m21.1 8.6 6.45.55-.75 1.05-1.35 1.05q-1.3.9-2.65 1.05-1.45.2-2.65 1.5t-1.2 2.55l.35 1.5-.5-.15q-1.4-6.35 2.3-9.1m35.3-5.55 5.05-1q-2.75 5.65-8.25 9.75 4.2-6.15 3.2-8.75m-38.25 25.1q-1.65-4.2-.65-9.2l2.6.75q-2.05 3.05-2 7.1l.05 1.35m15.85-2.8q.05 3.1-1.15 4.55-5.75-3-9.1-9.4l3.85.5q1.8 5.7 4.7 7.55 1.1-.85 1.7-3.2" fill="#ff754b" fill-rule="evenodd"/><path d="m99.7 85.85-.2.4h-.15l.35-.4m9.5-6.05h.1l.05.1-.15-.1m-40.95 35.55q-9.65 7-18-.45-.6-1.45-.8-3.3 1.05-3.1 3.95-5.6 4-.05 7.85-3.25 4.5 2.85 8.05 8 1.05 3.7-1.05 4.6" fill="#f16ed4" fill-rule="evenodd"/><path d="M80.4 63.25Q90.05 55.3 101 52.1l3.9-.45 3.8-.8q1.75-.4 3.9-1.55l3.3-1.75q3.35-1.6 5.85-5.1 1.95-2.75 3.95-7.7 10.75 14.75 3.5 25.7 8 18.95-6.1 33.3-9.5 9.1-23.1 6.2-.25 10.05-12.4 16.5-15.2 6.8-30.85 5.85-5.7-.35-11.45-1.75-19.6-6.2-22.7-17.8-2-11.15 4.6-18.4-2.35-14.45 5.4-22.5-5.75 9.8-4.8 23.3-3.8 5.15-4.1 13 .65 17.75 27.8 22.1l5.95.5 1.55.05q14.25.3 27.2-5.25 14.85-7.15 8.1-26.7 2.25 1.85 3.8 8 12.25 3.35 21.8-5.5 1.85-1.5 3.3-3.2 1.8-2.1 2.95-4.45 4.65-9.3.15-22.95 5.6-8.35 0-20.7-1.75 5.1-7.3 9.5-5.5 4.4-10.15 4.4l-3.8.4-3.15.6-7.3 2.7q-2.5.9-6.8 4.3l-1.75 1.35-2.3 1.6-2.05 1.15-1.3-2.8m28.95 9.7.8.05.05.15-1.1.5-1.05.35q-2.4.95-3.65 2.05-1.25 1.1-2.2 2.55l1-.35q2.7-.8 4.8-.05.55.2 1.05.55l.8.85.8 1.55-.05.05-1.05-1.15-.2-.15-.05-.1h-.1q-1.3-.9-3.25-.9-2.4 0-4.65 1.2-.95 1.9-1.35 4.15l-.25 1.6-.35.4q-.7-.2-.7-2.1 0-3.1 2.85-6.9 3.25-4.35 7.85-4.3M29.8 79.1q7.25 1.35 11.7 7.45l-.95-.75q.2 8.35-7.55 14.45-2.95 1.65-4.75-1.1l-.55-1q-.7-6.7 1.1-11.8l1-7.05v-.2m5.1 2.85-1.8-1-1.65 2.7q-3.05 5.75-2.65 11.7.55 5.25 3 4.1 6.05-3.5 7.35-11.05l.3-3.45-1.4-1-3.15-2m9.75 13q.15-.3.35-.25l.3.3.1.75-.2.75-.35.3-.3-.35q-.1-.3-.05-.75 0-.45.15-.75m9.85 2.6q0-.45.15-.75t.35-.25l.3.3.1.75-.2.75-.35.3-.3-.35q-.1-.3-.05-.75m27.7-17.4-2.7-3.2Q75.8 79 72.35 81.8l-4.3 3.75-4.15 4.3 1.5 4q3.75 8.8 9.3 11.2 10.1 2.6 14.3-4.5 2.35-8.9-6.8-20.4m-8.7 25.65-1.7-.95q-5.3-3.15-7.1-10.4-.55-2.15-.8-4.6l-.8.9q3.2-5.4 7.55-9.2l.1-.05q6.9-6.1 16.65-8.05-3.55 1.2-6.9 3 8.05 7.1 10.2 17.9.85 6.15-2.2 9.2-6.75 6.2-15 2.25m-2.6 7.35q-.15 1.9-1.5 2.8-3.3 3.6-8.8 3.8l-6.35-.7q-4.15-1.5-5.65-4.5-1.3-5.85.35-9.65-.45-.35-.1-.75 7.4 2.35 12.25-2.65 5.45 2.75 9.6 9.1.3 1.45.2 2.55m-2.65 2.2q2.1-.9 1.05-4.6-3.55-5.15-8.05-8-3.85 3.2-7.85 3.25-2.9 2.5-3.95 5.6.2 1.85.8 3.3 8.35 7.45 18 .45m-18.95-6.1q1.25-2.3 2.85-3.3l-2.65-.75q-.25 2.2-.2 4.05" fill="#7b0e0f" fill-rule="evenodd"/><path d="m35.8 61.95 44.6 1.3 1.3 2.8 2.05-1.15 2.3-1.6q2.9-1.7 7.25-3.1 4.05-1.3 12.3-3.15l8-1.9h.05l.45 1.5.4 1.75q0 4.25-2.95 9.95-1.45 2.85-2.2 4.6-4.6-.05-7.85 4.3-2.85 3.8-2.85 6.9 0 1.9.7 2.1h.15l.2-.4q1.65-1.2 4.3-2.05 2.7-.85 4.85-.85l1.9.05.05.05.9 1q2.45 1.75 3.8 2.1l4.5 1q.75 0 3.15-1.25l1.25-.7-1.2 2.95q-1.45 1.7-3.3 3.2-9.55 8.85-21.8 5.5-1.55-6.15-3.8-8 6.75 19.55-8.1 26.7-12.95 5.55-27.2 5.25l1.6-1.05q5.5-.2 8.8-3.8 1.35-.9 1.5-2.8 2.1-.6 2.6-7.35 8.25 3.95 15-2.25 3.05-3.05 2.2-9.2-2.15-10.8-10.2-17.9 3.35-1.8 6.9-3-9.75 1.95-16.65 8.05-.4-1.3-1.35-2.8-1.1-1.7-2.2-2.35-1.5-.9-5-1.9l-2.7-.35-2.7-.25-2-.5-1.9-.5q-7.55-1.25-12.85-3.15L33.1 67q1.15-2.65 2.7-5.05m5.15 34.75q.65.95 2.05 1.85l.05.05q2.65 1.8 6.75 2.55l7.05-.2 1.8-.75q.6 1.7-2.4 2.95-2.65 1.1-5.25 1.1l-2.15-.1q-2.2-.3-4.45-1.1-4.5-1.6-4.5-4.25 0-1.55 1.05-2.1" fill="#df6c6c" fill-rule="evenodd"/><path d="m59 120.8-1.55-.05q-12.25-2.9-21.95-8.3-7.5-3.65-7.25-13.3 1.8 2.75 4.75 1.1 7.75-6.1 7.55-14.45l.95.75q-4.45-6.1-11.7-7.45l.95-4.95q.9-3.75 2.35-7.15l6.95 2.7q5.3 1.9 12.85 3.15l1.9.5 2 .5 2.7.25 2.7.35q3.5 1 5 1.9 1.1.65 2.2 2.35.95 1.5 1.35 2.8l-.1.05q-4.35 3.8-7.55 9.2l.8-.9q.25 2.45.8 4.6 1.8 7.25 7.1 10.4l1.7.95q-.5 6.75-2.6 7.35.1-1.1-.2-2.55-4.15-6.35-9.6-9.1-4.85 5-12.25 2.65-.35.4.1.75-1.65 3.8-.35 9.65 1.5 3 5.65 4.5l6.35.7-1.6 1.05m54.65-65.65 4.05-1.3q6.35-2.5 8.6-6.8.8 3.05.8 4.75 0 2.5-1.05 5.75-1.05 3.2-2.25 4.5 1.4 2.6 1.9 5.75l.3 4.8q0 5.4-.6 8.7l-1 3.9-1.25.7q-2.4 1.25-3.15 1.25l-4.5-1q-1.35-.35-3.8-2.1l-.9-1V83h-.05q-.75-1.05-1.3-2.8l.1-.15 1.05 1.15.05-.05-.8-1.55-.8-.85q-.45-1.7-.45-3.3 0-.55.5-1.8l1.1-.5-.05-.15-.8-.05q.75-1.75 2.2-4.6 2.95-5.7 2.95-9.95l-.4-1.75-.45-1.5m-69 39.8q-.15.3-.15.75-.05.45.05.75l.3.35.35-.3.2-.75-.1-.75-.3-.3q-.2-.05-.35.25m-3.7 1.75q-1.05.55-1.05 2.1 0 2.65 4.5 4.25 2.25.8 4.45 1.1l2.15.1q2.6 0 5.25-1.1 3-1.25 2.4-2.95l-1.8.75-7.05.2q-4.1-.75-6.75-2.55-3.05-6.65 10.5-5.95l-2.95-.7q-4.05-.7-7.05.1-3 .9-3.15 2.85-.05.9.55 1.8m17.7 3.5q1.2-.8 1.3-1.95.15-1.95-2.55-3.8-1.15-.85-2.5-1.3l-1.25-.5h-.1.1l1.25.5q1.35.45 2.5 1.3 2.7 1.85 2.55 3.8-.1 1.15-1.3 1.95m-4.15-2.65q-.05.45.05.75l.3.35.35-.3.2-.75-.1-.75-.3-.3q-.2-.05-.35.25-.15.3-.15.75" fill="#ffb08e" fill-rule="evenodd"/><path d="m32.6 61.85 3.2.1q-1.55 2.4-2.7 5.05-1.45 3.4-2.35 7.15l-.95 4.95-.7-.15.7.35-1 7.05q-1.8 5.1-1.1 11.8l.55 1q-.25 9.65 7.25 13.3 9.7 5.4 21.95 8.3l-5.95-.5q-27.15-4.35-27.8-22.1.3-7.85 4.1-13-.95-13.5 4.8-23.3m53.45 1.45 1.75-1.35q4.3-3.4 6.8-4.3l7.3-2.7 3.15-.6 3.8-.4q4.65 0 10.15-4.4 5.55-4.4 7.3-9.5 5.6 12.35 0 20.7 4.5 13.65-.15 22.95l-1.75 1.5 1-3.9q.6-3.3.6-8.7l-.3-4.8q-.5-3.15-1.9-5.75 1.2-1.3 2.25-4.5 1.05-3.25 1.05-5.75 0-1.7-.8-4.75-2.25 4.3-8.6 6.8l-4.05 1.3h-.05l-8 1.9q-8.25 1.85-12.3 3.15-4.35 1.4-7.25 3.1m-43 35.3-.05-.05q-1.4-.9-2.05-1.85-.6-.9-.55-1.8.15-1.95 3.15-2.85 3-.8 7.05-.1l2.95.7q-13.55-.7-10.5 5.95" fill="#ffd9b7" fill-rule="evenodd"/><path d="M109.1 73.65q-.5 1.25-.5 1.8 0 1.6.45 3.3-.5-.35-1.05-.55-2.1-.75-4.8.05l-1 .35q.95-1.45 2.2-2.55 1.25-1.1 3.65-2.05l1.05-.35m.35 6.55q.55 1.75 1.3 2.8l-1.9-.05q-2.15 0-4.85.85-2.65.85-4.3 2.05l.25-1.6q.4-2.25 1.35-4.15 2.25-1.2 4.65-1.2 1.95 0 3.25.9l.15.1.1.3" fill="#a44647" fill-rule="evenodd"/><path d="M79.2 96.2q-3.3 2.8-7.3-4.35l.45-.35q.55-.55.55-1.3t-.55-1.3q-.55-.55-1.3-.55l-.55.1-.75.45q-.3.3-.45.7l-.1.6q0 .75.55 1.3l.75.5q.35 4.1 1.8 6.4-2.5-2.8-3.6-8.2-.45-2.15-.65-4.65l4.3-3.75q2.5.3 4.6 1.45 3.2 1.75 5.5 5.5-2.6-3.45-5.25-3.8 2.65 5.5 2.55 7.9-.75.9-.75 2.15l.2 1.2M32.7 84.1l2.2-2.15 3.15 2-.15 3.1v.1q-1 2.4-2.15 3.35-.65-.65-1.35-.65-.7 0-1.2.45-.45.5-.45 1.2 0 .45.45 1.15-.95.05-1.4-.9-.9-1.95 0-5.7 0 .55.4.95.4.4 1 .4t1-.4q.4-.4.4-1t-.4-1q-.4-.4-1-.4t-1.1.4h-.05l.65-.9" fill="#920968" fill-rule="evenodd"/><path d="m79.2 96.2.55.9q.75.9 1.85.9t1.85-.9q.75-.85.75-2.1t-.75-2.15Q82.7 92 81.6 92t-1.85.85q.1-2.4-2.55-7.9 2.65.35 5.25 3.8l.85 1.5q3.05 6.7-.9 10.3-3.7 3.65-9-1.1l-1.1-1.05q-1.45-2.3-1.8-6.4l.55.05.85-.2q4 7.15 7.3 4.35M32.05 85h.05q-.45.4-.3.95v.1q-.9 3.75 0 5.7.45.95 1.4.9.5.5 1.2.5t1.15-.5q.5-.45.5-1.15l-.3-1q1.15-.95 2.15-3.35-.65 5.75-4.6 7.6-2.2 1.35-3.3-1.7-.6-4.4 2.05-8.05" fill="#ed097e" fill-rule="evenodd"/><path d="M79.75 92.85Q80.5 92 81.6 92t1.85.85q.75.9.75 2.15t-.75 2.1q-.75.9-1.85.9t-1.85-.9l-.55-.9L79 95q0-1.25.75-2.15m-7.85-1-.85.2-.55-.05-.75-.5q-.55-.55-.55-1.3l.1-.6q.15-.4.45-.7l.75-.45.55-.1q.75 0 1.3.55t.55 1.3q0 .75-.55 1.3l-.45.35m.4 6.55 1.1 1.05q5.3 4.75 9 1.1 3.95-3.6.9-10.3l-.85-1.5q-2.3-3.75-5.5-5.5 2.55-1.8 5.25-3.1 9.15 11.5 6.8 20.4-4.2 7.1-14.3 4.5-5.55-2.4-9.3-11.2 1.6-1.95 3.3-3.65 1.1 5.4 3.6 8.2M31.45 83.65l1.25.45-.65.9Q29.4 88.65 30 93.05q1.1 3.05 3.3 1.7 3.95-1.85 4.6-7.6l1.25 1.25q-1.3 7.55-7.35 11.05-2.45 1.15-3-4.1-.4-5.95 2.65-11.7M32.1 85q.5-.4 1.1-.4.6 0 1 .4t.4 1q0 .6-.4 1t-1 .4q-.6 0-1-.4t-.4-.95v-.1q-.15-.55.3-.95m1.1 7.65q-.45-.7-.45-1.15 0-.7.45-1.2.5-.45 1.2-.45t1.35.65l.3 1q0 .7-.5 1.15-.45.5-1.15.5t-1.2-.5m16.1 16.6q-.05-1.85.2-4.05l2.65.75q-1.6 1-2.85 3.3" fill="#fff" fill-rule="evenodd"/><path d="m31.45 83.65 1.65-2.7 1.8 1-2.2 2.15-1.25-.45m6.6.3 1.4 1-.3 3.45-1.25-1.25v-.1l.15-3.1m34.3-2.15q3.45-2.8 7.15-4.85l2.7 3.2q-2.7 1.3-5.25 3.1-2.1-1.15-4.6-1.45M65.4 93.85l-1.5-4 4.15-4.3q.2 2.5.65 4.65-1.7 1.7-3.3 3.65" fill="#d1d4ff" fill-rule="evenodd"/><path d="m43.05 98.6-.05-.05q-1.4-.9-2.05-1.85-.6-.9-.55-1.8.15-1.95 3.15-2.85 3-.8 7.05-.1l2.95.7h.1l1.25.5q1.35.45 2.5 1.3 2.7 1.85 2.55 3.8-.1 1.15-1.3 1.95l-1.8.75-7.05.2q-4.1-.75-6.75-2.55z" fill="none" stroke="#7b0e0f" stroke-linecap="round" stroke-linejoin="round"/><path d="m35.45 41.05.05-.3-.2-1.3Q34 35.95 28.75 31q-4.25-4-4.25-9.5 0-2.25 1.1-4.7 1.1-2.5 2.6-3.55 8.55-7 18.6-2.3Q57.25-.9 69.2.05q16.4 0 20.5 16.1 15.05-2.65 22.1 7.4l1.1 2.95q.6 1.85.6 3.35 0 3-1.7 5.1-1.75 2.15-4.4 2.2-2.95.1-6.1 1.15-3.35 1.15-4.25 2.7l-.15.2-4.25-.3q.55-1.25 4.1-3.55 4.1-2.7 6.8-2.7l2.4-.15 2.75-.45q1.5-.15 1.5-4.05 0-1.8-.65-3.65-.65-1.95-1.8-3.1-8.9-6.6-20.35-3.4-1.35-10.8-10.15-14.8-3.7-1.7-8.75-2.2-11.6.45-21.1 11.6-15.15-6.4-19.6 7.2v2.2q.2 2.55 2.5 4.5l3.7 3.3q1.95 2.65 2.95 4.6 1.2 2.6 1.25 5l-2.75-.2m42.3-18-.05-1.3q0-1.1.35-3.1 1.45 2.3 1.45 4.9l.1.7 2.75-.8q1.7-.6 3.15-.6l4.1.8q.85.2 1.6.75l1.6 1.45q.75.7 1.45 3.35.65 2.45.65 4 0 1.35-1.35 4.35l-1.8 3.35h-2.8q6.1-6.4 2.65-12.75-4.05-4.9-12.8-2.6l-.15-.45-.75-1.75-.15-.3" fill="#1e6090" fill-rule="evenodd"/><path d="m35.45 41.05 2.75.2q4 .45 8.25 1.85l.4.1q4.55 1.55 9.45 4.15 2.05 1 4 2.15 7-4.4 14.6-6.55l.55-.15q6.55-1.75 13.5-1.9h3.7l4.25.3.5.05q3 1.8 2.5 3.2-7.65 8-15.7 21.6-6.2 2.65-12.5 3.9L61.65 71q-.15 1.25-2.4 3.25-1.55 1.4-3 2.1 4.7.05 4.7 4.15 0 2.95-2.75 4.5-2.05 1.15-4.45 1.15-5.9 0-8.65-3.9-1.7-2.45-1.7-5.1 0-3.8 1.9-6.9l.65-1q-7.35-1.75-14.85-5.2Q27.2 53.5 21 44.15q6.7-3.4 14.45-3.1m-1.45 23q13 5.15 25.35 5.45l9.5-.5Q63.6 61.5 57 57.1q-12.3-8.2-29.15-5.65 2.55 5 4.45 11.9l1.7.7m35.6 4.3.35.5 1.4-.2 5.9-1.35q-3.55-5.35-7.6-9.5l-.15-.15Q51.4 39.2 23.6 44.85q1.9 2.3 3.55 5.3 28-3.7 42.45 18.2M63 51.15l.05.05 3.85 2.75q2.95-1.85 5.8-3.15l1.95-.8q2.2-.9 4.45-1.5l.5-.1 1-.25.45-.1q6.35-1.25 12.4.2l2.95-3.6-2.3-1.1H94Q82.5 39.2 61.05 49.9L63 51.15m11.8.35-.55.25-2 .9-.1.05L68.2 55q6.05 5 10.85 11.8l3.85-1.35.85-1.75h.05v-.2l.2-.4q3.6-7.3 8.65-13.9-9.15-1.4-17.85 2.3M52.2 76.6l4.1-1.35q1.25-.4 2.05-1.25l1.15-1.55.9-1.45-2.5-.05h-.05l-9.75-1.2-1-.25-.85 1.05q-1 1.35-1.25 2.75l-.4 3.85q0 2.3 1.65 4.45 2.3 2.95 6.9 3.15h.6q3.4 0 5-1.7 1.15-1.2 1.15-2.8 0-2.6-4.1-3.4l-.45-.1-.95.25-.25.05q.75.5 1.25 1.6l.45 1.65q0 .65-.85 1.45l-.15.1q-1.2 1-3.05 1h-.4l-1.3-.8-.7-.3-.15-.25q-.45-.8-.45-1.55 0-1.1.55-1.8l.2-.25.6-.45q.55-.35 2.05-.85m3.15.15h.05-.05m-3.8 5.1h.3q1.75 0 2.55-.8.5-.5.5-1.05l-.35-1.1q-.4-1-.8-1l-1 .65-.85.6q-.3 0-.45-.6l.25-.45.4-.45.05-.05h-.05l-.7.1-1.1.85q-.5.75-.5 1.35 0 .5.4 1.05V81l.35.4.75.4.25.05" fill="#592801" fill-rule="evenodd"/><path d="M51.3 25.95v.1l.05-.1q2.95-9.55 9.35-9.8 12.05-3.45 17.05 6.9l.15.3.75 1.75.15.45q.7 2.1.7 5.3 0 6.85-4.05 11.95l-.55.15q-7.6 2.15-14.6 6.55-1.95-1.15-4-2.15-4.9-2.6-9.45-4.15l-.4-.1-2.65-4Q42 36.45 42 33.95q0-3.25 2.2-5.6 2.4-2.5 6.05-2.5l1.05.1" fill="#93cdf6" fill-rule="evenodd"/><path d="M75.45 42.8q4.05-5.1 4.05-11.95 0-3.2-.7-5.3 8.75-2.3 12.8 2.6 3.45 6.35-2.65 12.75-6.95.15-13.5 1.9" fill="#75a1ed" fill-rule="evenodd"/><path d="m51.3 25.95-.2-1.4q0-4.2 4.6-8t9.55-3.8l3.15.1q4.25 0 7.7 3.4l1.95 2.4q-.35 2-.35 3.1l.05 1.3q-5-10.35-17.05-6.9-6.4.25-9.35 9.8h-.05" fill="#609dca" fill-rule="evenodd"/><path d="M77.25 5.05q8.8 4 10.15 14.8 11.45-3.2 20.35 3.4 1.15 1.15 1.8 3.1.65 1.85.65 3.65 0 3.9-1.5 4.05l-2.75.45-2.4.15q-2.7 0-6.8 2.7-3.55 2.3-4.1 3.55h-.9l1.8-3.35q1.35-3 1.35-4.35 0-1.55-.65-4-.7-2.65-1.45-3.35l-1.6-1.45q-.75-.55-1.6-.75l-4.1-.8q-1.45 0-3.15.6l-2.75.8-.1-.7q0-2.6-1.45-4.9l.15-.95.5-4.2-.45-4.9q-.4-2.3-1-3.55" fill="#d1d4ff" fill-rule="evenodd"/><path d="M38.2 41.25q-.05-2.4-1.25-5-1-1.95-2.95-4.6l-3.7-3.3q-2.3-1.95-2.5-4.5v-2.2q4.45-13.6 19.6-7.2Q56.9 3.3 68.5 2.85q5.05.5 8.75 2.2.6 1.25 1 3.55l.45 4.9-.5 4.2-.15.95-1.95-2.4q-3.45-3.4-7.7-3.4l-3.15-.1q-4.95 0-9.55 3.8-4.6 3.8-4.6 8l.2 1.4-1.05-.1q-3.65 0-6.05 2.5-2.2 2.35-2.2 5.6 0 2.5 1.8 5.15l2.65 4q-4.25-1.4-8.25-1.85m6.2 5.15-1.35-.35-7.4-.7-3.6.05-1.65.15-1.15.25q.85 2.3.85 3.15.9-.5 2.05-.45l1.95.15 2.8-.2 6.6.95 5.1 1.15.2-2.3V48q-2.35-1.05-4.4-1.6M33.85 62.45l.15 1.6-1.7-.7q-1.9-6.9-4.45-11.9Q44.7 48.9 57 57.1l-1.85-.7q-7.2-2.65-14.3-3.35l-1.05-.1q-4.25-.35-8.5 0 1.95 5.55 2.55 9.5m23-11.6L52.2 49.2l-.9 2.7q2.45.85 4.85 2.2h.05q2.8 1.6 5.5 3.85 5.55 4.7 7.9 10.4-14.45-21.9-42.45-18.2-1.65-3-3.55-5.3 27.8-5.65 45.9 12.8Q66.75 55 62 52.8q-1.35-.6-4-1.55l-1.15-.4m6.3.25-.15.05-1.95-1.25Q82.5 39.2 94 43.55l-1.15-.15-1.2-.15-6.05.8q-1.75.25-2.7 1.55l-1.85 2.45-.45.1-1 .25 2.75-4.1.05-.15h-.25l-3.4 1.15-4.35 1.35v.7q.3.35.3 1.6L74.65 50l-1.95.8-.15-.45q-.35-1.1-.35-1.8l.2-1.4h-.5l-3.9 1.2q-2.3.9-4.85 2.75M49.4 81.75l.7.3 1.3.8q.9.7 1.75 1.9-4.6-.2-6.9-3.15-1.65-2.15-1.65-4.45l.4-3.85q.25-1.4 1.25-2.75l.85-1.05 1 .25-.5 1.25-.5 1.4-.25.65q-.45 1.55-.45 3.05 0 3.15 1.65 5l1.35.65m.8-.8q0-.6.4-1t.85-.4q.4 0 .65.55l.2.6-.75 1.15-.25-.05-.75-.4-.35-.4v-.05" fill="#fff" fill-rule="evenodd"/><path d="m30.4 45.55 1.65-.15 3.6-.05 7.4.7 1.35.35.6 2.65q-5.3-1.6-10.8-1.6l-3.3.2q-.5-.65-.5-2.1m3.45 16.9q5.85 2.6 12.75 3l2.35.05q.55-3.6-2.25-7.5-2.45-3.35-5.85-4.95 7.1.7 14.3 3.35 5.05 5.85 5.05 9.7l-.25 2.2-.6 1.2Q47 69.2 34 64.05l-.15-1.6m37.5 6.2q-1.2-3.8-4.45-8.15-3.75-5.05-8.9-9.25 2.65.95 4 1.55 4.75 2.2 7.5 4.85l.15.15q4.05 4.15 7.6 9.5l-5.9 1.35M79.6 48.4l-.5.1q-2.25.6-4.45 1.5l.05-1.05q0-1.25-.3-1.6v-.7l4.35-1.35 3.4-1.15.2.15-2.75 4.1m4.25 14.75-1.05.4q-2.15.95-3.4 1.1L76.95 59q-1.9-3.95-4.7-6.35l2-.9.55-.25 6.45.1 6.45.75q-1.6 2.75-2.65 5.6-1.1 2.95-1.2 5.15v.05M52.2 76.6q-1.5.5-2.05.85l-.6.45-.05-.7q0-1.3.7-2.15.7-.85.7-1.45 0-1.35-.7-1.6l-2.6-1 .5-1.25 9.75 1.2q-.55 2.8-3.1 4-1.7.8-2.55 1.65m2.8 5.15q.85-.8.85-1.45l-.45-1.65q-.5-1.1-1.25-1.6l.25-.05.95-.25.45.1.55 1.2.35 1.1q0 .8-.45 1.4L55 81.75m-2.9-4.1-.4.45-.25.45q.15.6.45.6l.85-.6 1-.65q.4 0 .8 1l.35 1.1q0 .55-.5 1.05-.8.8-2.55.8h-.3l.75-1.15-.2-.6q-.25-.55-.65-.55-.45 0-.85.4-.4.4-.4 1-.4-.55-.4-1.05 0-.6.5-1.35l1.1-.85.7-.1v.05" fill="#ec751b" fill-rule="evenodd"/><path d="m59.35 69.5.6-1.2.25-2.2q0-3.85-5.05-9.7l1.85.7q6.6 4.4 11.85 11.9l-9.5.5M56.2 54.1l.45-1.25.2-2 1.15.4q5.15 4.2 8.9 9.25 3.25 4.35 4.45 8.15l-1.4.2-.35-.5q-2.35-5.7-7.9-10.4-2.7-2.25-5.5-3.85m37.9-10.55 2.3 1.1-2.95 3.6q-6.05-1.45-12.4-.2l1.85-2.45q.95-1.3 2.7-1.55l6.05-.8 1.2.15 1.15.15h.1m-21.85 9.1q2.8 2.4 4.7 6.35l2.45 5.65q1.25-.15 3.4-1.1l1.05-.4-.05.35-.05.2-.85 1.75-3.85 1.35Q74.25 60 68.2 55l3.95-2.3.1-.05M49.55 77.9l-.2.25q-.55.7-.55 1.8 0 .75.45 1.55l.15.25-1.35-.65q-.35-1.85-.35-2.6 0-1.65.85-3.45l.85-1.7-.1-.3-1.15-.15-1.05-.5.5-1.4 2.6 1q.7.25.7 1.6 0 .6-.7 1.45t-.7 2.15l.05.7" fill="#b04700" fill-rule="evenodd"/><path d="M30.4 45.55q0 1.45.5 2.1l3.3-.2q5.5 0 10.8 1.6l-.6-2.65q2.05.55 4.4 1.6v.25l-.2 2.3-5.1-1.15-6.6-.95-2.8.2-1.95-.15q-1.15-.05-2.05.45 0-.85-.85-3.15l1.15-.25m10.45 7.5q3.4 1.6 5.85 4.95 2.8 3.9 2.25 7.5l-2.35-.05q-6.9-.4-12.75-3-.6-3.95-2.55-9.5 4.25-.35 8.5 0l1.05.1m16-2.2-.2 2-.45 1.25h-.05q-2.4-1.35-4.85-2.2l.9-2.7 4.65 1.65m6.2.35.1-.1q2.55-1.85 4.85-2.75l3.9-1.2h.5l-.2 1.4q0 .7.35 1.8l.15.45q-2.85 1.3-5.8 3.15l-3.85-2.75m20.8 11.9q.1-2.2 1.2-5.15 1.05-2.85 2.65-5.6l-6.45-.75-6.45-.1q8.7-3.7 17.85-2.3Q87.6 55.8 84 63.1h-.15m-26 7.85h.05l2.5.05-.9 1.45L58.35 74q-.8.85-2.05 1.25l-4.1 1.35q.85-.85 2.55-1.65 2.55-1.2 3.1-4m-6.45 11.9h.4q1.85 0 3.05-1l.15-.1 1.25-1.2q.45-.6.45-1.4l-.35-1.1-.55-1.2q4.1.8 4.1 3.4 0 1.6-1.15 2.8-1.6 1.7-5 1.7h-.6q-.85-1.2-1.75-1.9M47.1 72.4l1.05.5 1.15.15.1.3-.85 1.7q-.85 1.8-.85 3.45 0 .75.35 2.6-1.65-1.85-1.65-5 0-1.5.45-3.05l.25-.65" fill="#ffdb00" fill-rule="evenodd"/><path d="M80.3 109.5q-.05-1.15 2.55-2.05 2.65-.95 6.4-1.1l6.45.6q2.75.7 2.8 1.85 0 1.1-2.65 2.05-2.6.95-6.35 1.1l-6.5-.6q-2.7-.75-2.7-1.85m-47.7-5.35q0 1.1-2.35 1.85l-5.55.75q-3.25 0-5.6-.75-2.3-.75-2.3-1.85t2.3-1.85q2.35-.75 5.6-.75 3.25 0 5.55.75 2.35.75 2.35 1.85" fill="#f16ed4" fill-rule="evenodd"/><path d="M80.3 109.5q-.05-1.15 2.55-2.05 2.65-.95 6.4-1.1l6.45.6q2.75.7 2.8 1.85 0 1.1-2.65 2.05-2.6.95-6.35 1.1l-6.5-.6q-2.7-.75-2.7-1.85m-47.7-5.35q0 1.1-2.35 1.85l-5.55.75q-3.25 0-5.6-.75-2.3-.75-2.3-1.85t2.3-1.85q2.35-.75 5.6-.75 3.25 0 5.55.75 2.35.75 2.35 1.85z" fill="none" stroke="#8e0a5a" stroke-linecap="round" stroke-linejoin="round"/></g><g id="i"><use ffdec:characterId="21" height="17.8" transform="translate(209.8 64.9)" width="14.9" xlink:href="#j"/><use ffdec:characterId="23" height="28" transform="translate(194.9 88.2)" width="24.7" xlink:href="#k"/><use ffdec:characterId="25" height="34.2" transform="translate(0 16.7)" width="24" xlink:href="#l"/><use ffdec:characterId="27" height="23.4" transform="translate(25)" width="14.7" xlink:href="#m"/></g><g id="u" fill-rule="evenodd"><path d="M11.95 8q-1.9-.45-3.1-1.5-1.3-1.15-2.35-3.4 0 1.6-1.05 2.85Q4.25 7.3 2.4 7.5q1.55.5 3.3 2.85 1.6 2.2 2.2 4.25.75-2.65 1.5-3.6l.95-1.65q.55-.85 1.6-1.35M6.5 0q1.95 5.7 8.4 7.2-5.15 3.7-6.8 10.6Q4.55 9.35 0 7.6q4.55-1 6.5-7.6" fill="#920968"/><path d="M11.95 8q-1.05.5-1.6 1.35L9.4 11q-.75.95-1.5 3.6-.6-2.05-2.2-4.25Q3.95 8 2.4 7.5q1.85-.2 3.05-1.55Q6.5 4.7 6.5 3.1q1.05 2.25 2.35 3.4 1.2 1.05 3.1 1.5" fill="#f16ed4"/></g><g id="v" fill-rule="evenodd"><path d="M20.2 15.1q-5.9 3.35-7.1 8.5-3.5-8.35-9.4-8.5 6.2-2.4 6.8-10.4 3.1 8.1 9.7 10.4" fill="#f16ed4"/><path d="M24.7 13.8Q15.65 18.5 13 28 11.7 17.35 0 15.7 10.65 10.95 9.3 0q7.15 15.85 15.4 13.8m-4.5 1.3q-6.6-2.3-9.7-10.4-.6 8-6.8 10.4 5.9.15 9.4 8.5 1.2-5.15 7.1-8.5" fill="#920968"/></g><g id="w" fill-rule="evenodd"><path d="M10.9 0Q16.85 16.45 24 16.5q-8.45 1.25-12.7 17.7Q6.8 18.5 0 16.2q9.05-2 10.9-16.2m.5 5.1Q8.1 15.3 3.2 16.4q3.6 2 8.4 13 4.8-11.9 8.2-13.1-5.9-4.05-8.4-11.2" fill="#920968"/><path d="M11.4 5.1q2.5 7.15 8.4 11.2-3.4 1.2-8.2 13.1-4.8-11-8.4-13 4.9-1.1 8.2-11.3" fill="#f16ed4"/></g><g id="x" fill-rule="evenodd"><path d="M11.7 10.4q-1.8-.35-3.45-1.75Q6.5 7.2 5.3 5q-.2 2.8-.7 4.3-.75 2.25-2.7 3.3 5.55 2.75 6.4 7.5l.7-5.45q.65-2.75 2.7-4.25M4 0q4.05 9.25 10.7 9.6-5 4.55-6 13.8Q5 14.65 0 12.7 5.2 8.6 4 0" fill="#920968"/><path d="M11.7 10.4Q9.65 11.9 9 14.65l-.7 5.45q-.85-4.75-6.4-7.5 1.95-1.05 2.7-3.3.5-1.5.7-4.3 1.2 2.2 2.95 3.65 1.65 1.4 3.45 1.75" fill="#f16ed4"/></g><use ffdec:characterId="2" height="126.65" width="204.1" xlink:href="#n" id="b"/><use ffdec:characterId="4" height="49.4" width="30.8" xlink:href="#o" id="c"/><use ffdec:characterId="6" height="33.8" width="42.95" xlink:href="#p" id="d"/><use ffdec:characterId="8" height="42.7" width="25.15" xlink:href="#q" id="e"/><use ffdec:characterId="10" height="51.7" width="183.5" xlink:href="#r" id="f"/><use ffdec:characterId="12" height="46.4" width="34.05" xlink:href="#s" id="g"/><use ffdec:characterId="14" height="141.15" width="132.1" xlink:href="#t" id="h"/><use ffdec:characterId="20" height="17.8" width="14.9" xlink:href="#u" id="j"/><use ffdec:characterId="22" height="28" width="24.7" xlink:href="#v" id="k"/><use ffdec:characterId="24" height="34.2" width="24" xlink:href="#w" id="l"/><use ffdec:characterId="26" height="23.4" width="14.7" xlink:href="#x" id="m"/><path d="M27.75 0q0 2-8.15 3.4Q11.5 4.9 0 4.9q-11.5 0-19.65-1.5-8.1-1.4-8.1-3.4 0-2.05 8.1-3.5Q-11.5-4.9 0-4.9q11.5 0 19.6 1.4 8.15 1.45 8.15 3.5" fill-opacity=".349" fill-rule="evenodd" transform="translate(27.75 4.9)" id="a"/></defs></svg>