<svg xmlns:ffdec="https://www.free-decompiler.com/flash" xmlns:xlink="http://www.w3.org/1999/xlink" ffdec:objectType="frame" height="90" width="90" xmlns="http://www.w3.org/2000/svg"><use ffdec:characterId="30" height="197.25" transform="matrix(.4565 0 0 .4567 4.268 0)" width="180.25" xlink:href="#a"/><defs><g id="a" transform="translate(-9.35)"><use ffdec:characterId="1" height="9.8" transform="matrix(1.3544 0 0 2.5516 36.017 172.247)" width="55.5" xlink:href="#b"/><use ffdec:characterId="6" height="166.75" transform="matrix(-.7496 0 0 .7496 68.6 6.6)" width="77.55" xlink:href="#c"/><use ffdec:characterId="8" height="47.85" transform="matrix(-.7496 0 0 .7496 126.7 147.589)" width="45.55" xlink:href="#d"/><use ffdec:characterId="10" height="76.6" transform="matrix(-.7496 0 0 .7496 64.7 116.8)" width="57.7" xlink:href="#e"/><use ffdec:characterId="12" height="83.45" transform="matrix(-.7496 0 0 .7496 124.6 111.9)" width="107.8" xlink:href="#f"/><use ffdec:characterId="17" height="201.25" transform="matrix(-.7496 0 0 .7496 187 5.25)" width="159.2" xlink:href="#g"/><use ffdec:characterId="19" height="27.75" transform="matrix(-.7496 0 0 .7496 57.45 116.7)" width="57.35" xlink:href="#h"/><use ffdec:characterId="21" height="94.25" transform="matrix(-.7496 0 0 .7496 76 76.2)" width="50.85" xlink:href="#i"/><use ffdec:characterId="25" height="63.7" transform="matrix(-.7496 0 0 .7496 70.75 49.7)" width="44.05" xlink:href="#j"/><use ffdec:characterId="27" height="76.55" transform="matrix(-.7496 0 0 .7496 107.65 99.6)" width="71.4" xlink:href="#k"/><use ffdec:characterId="29" height="52.35" transform="matrix(-.7496 0 0 .7496 91.1 83.2)" width="68.4" xlink:href="#l"/></g><g id="c"><filter id="m"><feColorMatrix in="SourceGraphic" result="filterResult0" values="0 0 0 0 0.0,0 0 0 0 1.0,0 0 0 0 1.0,0 0 0 1 0"/><feConvolveMatrix divisor="196" in="filterResult0" kernelMatrix="1 1 1 1 1 1 1 1 1 1 1 1 1 1 1 1 1 1 1 1 1 1 1 1 1 1 1 1 1 1 1 1 1 1 1 1 1 1 1 1 1 1 1 1 1 1 1 1 1 1 1 1 1 1 1 1 1 1 1 1 1 1 1 1 1 1 1 1 1 1 1 1 1 1 1 1 1 1 1 1 1 1 1 1 1 1 1 1 1 1 1 1 1 1 1 1 1 1 1 1 1 1 1 1 1 1 1 1 1 1 1 1 1 1 1 1 1 1 1 1 1 1 1 1 1 1 1 1 1 1 1 1 1 1 1 1 1 1 1 1 1 1 1 1 1 1 1 1 1 1 1 1 1 1 1 1 1 1 1 1 1 1 1 1 1 1 1 1 1 1 1 1 1 1 1 1 1 1 1 1 1 1 1 1 1 1 1 1 1 1 1 1 1 1 1 1" order="14 14" result="filterResult1"/><feComposite in="SourceGraphic" in2="filterResult1" result="filterResult2"/></filter><use ffdec:characterId="3" filter="url(#m)" height="159.25" transform="translate(11.35 6.3)" width="66.2" xlink:href="#n"/><use ffdec:characterId="5" height="166.75" width="57.75" xlink:href="#o"/></g><g id="t" fill-rule="evenodd"><path d="m28.9 17.1.7-1.65 1.35 30.45q-2.25-7.85-1.7-16.25-3.45 9.9-4.7 22.7l-1.1-4.95q1.6-15.8 5.45-30.3m4.8 70.45q-2.65-2.6-3.25-6.5 1.05-7.15 4.35-5.8 1.95-5.95 1.1-12.75l10.55-23.4q1.3 26.75-12.75 48.45m13.65 61.65L20.5 125.35 49 101.7q-4.6 16.5-14.8 30.5l14.25 17.5-1.1-.5" fill="#fff"/><path d="m29.6 15.45-.7 1.65q-4.1 10.5-7.65 22.3l-2.3-7.1Q25.6 17.15 33.6 6.1l-4 9.35" fill="#b46205"/><path d="M23.5 63.9q-1.7-13.35-6.45-26.3-3.5-7.7-4.6-21.6l-.9 1.95-.15-1.15 1.25-4.25q.45 9.8 2.95 17.95 5.55 14.05 8.45 28.2l-.2 5.95-.35-.75" fill="#a34803"/><path d="m11.55 17.95.9-1.95q1.1 13.9 4.6 21.6 4.75 12.95 6.45 26.3l-.4-.7-.7 6.4-.6-4q-1.1-12-4.55-24.25l-3.9-11.65q-1-5.1-1.8-11.75" fill="#db7f00"/><path d="m23.45 47.4 1.1 4.95-.1 1.15q-2.9-13.3-7.15-22.85Q13.15 18.9 13.1 7.1q-1.85 4.3-1.7 9.7l.15 1.15q.8 6.65 1.8 11.75 1.35 6.9 3 11.15 3.5 12.85 5.45 24.75l.6 4-.45 3.8q-.65-8.6-3.9-19.9l-2.2-7.8Q11.7 29.75 11 19.55l-.15-2.65q-.2-8.95 2.8-12.7.25 12.45 3.25 22.2l.75 2.25 1.3 3.65 2.3 7.1 2.2 8" fill="#564461"/><path d="m17.65 28.65-.75-2.25Q23.65 10.65 34.1 0q3.95 12.35 4.15 26.05.1 6.1-.55 12.5l14.9-14.6q8.05 33-9.4 69.7h14.55q-2.05 19.8-13.25 36.45 11.4 15.75 12.2 36.65-26.7.3-48.1-26.65l.35-1.25q22.4 28.3 46.65 26.8.3-18.5-12.2-35.95 12.25-16.25 13.1-34.9H41.9q18-39.3 10-68.85L36.8 40.9q1.25-25.05-3.1-38.5-11.15 11.3-16.05 26.25" fill="#d07c26"/><path d="M30.95 45.9 29.6 15.45l4-9.35q-8 11.05-14.65 26.2l-1.3-3.65Q22.55 13.7 33.7 2.4q4.35 13.45 3.1 38.5l15.1-14.95q8 29.55-10 68.85h14.6q-.85 18.65-13.1 34.9 12.5 17.45 12.2 35.95-24.25 1.5-46.65-26.8l.8-3.15Q31.3 152.5 52 154.05l-3.55-4.35-14.25-17.5q10.2-14 14.8-30.5l6.1-5.1q-8.8-.15-19.1 3.2 1.3-5.85-1.2-11.3l-1.1-.95q14.05-21.7 12.75-48.45l.05-.05 4.3-9.6-18.6 20.3-1.25-3.85" fill="#df9915"/><path d="M24.55 52.35q1.25-12.8 4.7-22.7-.55 8.4 1.7 16.25l1.25 3.85.9 2.15 1.05 3q1.3 3.95 1.75 7.6.85 6.8-1.1 12.75-3.3-1.35-4.35 5.8.6 3.9 3.25 6.5l1.1.95q2.5 5.45 1.2 11.3-.55 2.35-1.7 4.75l-2.75 4.55q4.15-17.3.5-20.4l-2.2-6.45q-.5-7.1 3.5-10.8.55-7.7-2.65-12.65-4.4-7-4.6-14.1-1.9 12.5-1.55 23.6l-1.8 4.95V85.7l-4.55 17.8-.2-.7 4.25-18.25-.35-2.4q.4-4 .05-8.75l.45-3.8.7-6.4.4.7.35.75.2-5.95.4-5.2.1-1.15m2-6.15q.4 4.15 2.45 7.85 4.6 7.55 5 14.1l-.1 3.3q-1.8 1.65-2.55 3.6l-.4 1.45q1.5-1.9 3.5-2.1 2.7-10.65-1.5-21.4l-.1-.2-.1-.2q-3.45-8.25-4.45-17.9-1.85 5.1-1.8 9.65l.05 1.85m6.3 41.95q3.05 6.95 0 17.9 5-8.8 1.6-16.95l-2.7-2.9 1.1 1.95" fill="#60485c"/><path d="M34 68.15q.4-7.35-3.6-16.7-1.75-4.15-2.5-8.65l-1.35 3.4-.05-1.85L28 38.5q1.2 7.8 4.3 15.1 3.5 10.5 1.75 19.5l-2.7 1.95q.75-1.95 2.55-3.6l.1-3.3m-5.6 3.9 1.15-3.4-1.05-3.45-.5 1.45-.4-.7L28 62l2.4 6.6-1.95 4.95-.05-1.5" fill="#7d2b04"/><path d="m26.55 46.2 1.35-3.4q.75 4.5 2.5 8.65 4 9.35 3.6 16.7-.4-6.55-5-14.1-2.05-3.7-2.45-7.85" fill="#ca6e00"/><path d="M24.05 58.7q-2.9-14.15-8.45-28.2-2.5-8.15-2.95-17.95L11.4 16.8q-.15-5.4 1.7-9.7.05 11.8 4.2 23.55 4.25 9.55 7.15 22.85l-.4 5.2m7.3 16.35 2.7-1.95q1.75-9-1.75-19.5-3.1-7.3-4.3-15.1l-1.5 5.85q-.05-4.55 1.8-9.65 1 9.65 4.45 17.9l.1.2.1.2q4.2 10.75 1.5 21.4-2 .2-3.5 2.1l.4-1.45" fill="#eed168"/><path d="M28.9 17.1q-3.85 14.5-5.45 30.3l-2.2-8q3.55-11.8 7.65-22.3" fill="#b5d2d5"/><path d="M11 19.55q.7 10.2 4.85 26.15l2.2 7.8q3.25 11.3 3.9 19.9.35 4.75-.05 8.75-4.55-27.75-11.2-46.5-.6 22.05 7.05 39.6-3.75 6.3-11.5 7.9l-2.1-1.9q7.95-1.5 12.4-6-15.05-29-5.55-55.7m7.2 83.95 4.55-17.8V73.25l1.8-4.95q-.35-11.1 1.55-23.6.2 7.1 4.6 14.1 3.2 4.95 2.65 12.65-4 3.7-3.5 10.8l2.2 6.45q3.65 3.1-.5 20.4l-1.4 1.85-9.2 6.7q-.8-7.7-2.75-14.15m11.1-20.55q-1.05-8.9 2.55-14.35-.7-7.4-4.3-10.9-3.45 19.6 1.75 25.25" fill="#282b60"/><path d="m34.15 54.9-1.05-3-.9-2.15 18.6-20.3-4.3 9.6-.05.05-12.3 15.8" fill="#ae5707"/><path d="M35.9 62.5q-.45-3.65-1.75-7.6l12.3-15.8L35.9 62.5" fill="#b7d6e0"/><path d="m13.35 29.7 3.9 11.65Q20.7 53.6 21.8 65.6q-1.95-11.9-5.45-24.75-1.65-4.25-3-11.15" fill="#ffea50"/><path d="m10.85 16.9.15 2.65q-9.5 26.7 5.55 55.7-4.45 4.5-12.4 6l-.8-.65L0 78.25q8.3-2.25 13.25-6.3Q.55 40.6 10.85 16.9m4.1 57.15-.65-1.15q-5.65 3.7-12.5 5.55l1.2 1 1.2 1.05q6.3-1.1 11.35-5.35l-.6-1.1" fill="#524362"/><path d="m14.95 74.05.6 1.1Q10.5 79.4 4.2 80.5L3 79.45q7.15-1.7 11.95-5.4" fill="#cf7300"/><path d="m3 79.45-1.2-1q6.85-1.85 12.5-5.55l.65 1.15q-4.8 3.7-11.95 5.4m24.6-13.5-.6-1.2.95-5.45q2.65 3.55 3.3 9.1-2.25 4.15-2.7 8.55l-.1-3.4 1.95-4.95L28 62l-.4 3.95" fill="#f6f659"/><path d="m28.4 72.05-.15-4.9-.25-.5.5-1.45 1.05 3.45-1.15 3.4" fill="#c16300"/><path d="m28 66.65.25.5.15 4.9.05 1.5.1 3.4q-.15 1.95 0 3.9-3-5.6-1.55-16.1l.6 1.2.4.7" fill="#1874d8"/><path d="M27 64.75q-1.45 10.5 1.55 16.1-.15-1.95 0-3.9.45-4.4 2.7-8.55-.65-5.55-3.3-9.1L27 64.75m2.3 18.2q-5.2-5.65-1.75-25.25 3.6 3.5 4.3 10.9-3.6 5.45-2.55 14.35" fill="#2e2e60"/><path d="m21.9 82.15.35 2.4L18 102.8Q14.2 90.7 6.25 83.15q7.75-1.6 11.5-7.9-7.65-17.55-7.05-39.6 6.65 18.75 11.2 46.5" fill="#2b4c92"/><path d="M34.3 104.55q1.15-2.4 1.7-4.75 10.3-3.35 19.1-3.2l-6.1 5.1-14.7 2.85" fill="#b76505"/><path d="m31.55 109.1 2.75-4.55L49 101.7l-28.5 23.65-6.5-5.75 4.2-16.1q1.95 6.45 2.75 14.15l9.2-6.7 1.4-1.85" fill="#b6d5de"/><path d="m32.85 88.15-1.1-1.95 2.7 2.9q3.4 8.15-1.6 16.95 3.05-10.95 0-17.9" fill="#f0e177"/><path d="m20.5 125.35 26.85 23.85-37.15-15.15L14 119.6l6.5 5.75" fill="#b7d5df"/><path d="m47.35 149.2 1.1.5 3.55 4.35Q31.3 152.5 9.75 135.7l.45-1.65 37.15 15.15" fill="#b86605"/></g><g id="u" fill-rule="evenodd"><path d="M7.85-1.25Q7.8-.65 9-.6q1.85.1 6.5 9.45l-.15.1-1.75 1.3-3.7 2.4-2.55.85-2.4-3.65-2.3 7.8L1.3 18.9q.2-8.65 6.55-20.15" fill="#9aabd8" transform="translate(0 2.15)"/><path d="m23.15 14.8-.8 3.25q-1.75 6.9.65 11.3t8 8.3l.6.4q5.5 3.7 13.95 7-7.35 1.1-13.95.35-11.15-1.25-20.1-7.75-3.15-2.3-6-5.2l-3.05-3.4Q-3.65 15.75 5.5.85l2.85-3-.5.9Q1.5 10.25 1.3 18.9l1.35-1.25q2.45-2 5.3-3.25 1.1-.5 2.3-.85.7-1.1 3.9-2.6l.1-.05.05.1-.2.1v.15l-.4 1.4q-2.25 0-2.65 1.85-5.65.85-9.7 6 .75 6.05 4.15 9.45l.65.6.4-.6.45-.6q1.15-1.7 2.7-3.25 2.2-2.35 4.95-4.5l3.95 3 1.85 1.45q-.9-3.15 2.7-11.25m-8.25 7.9-1.75 1.7-3.2 3.2-1.65 1.75-1.6 1.8q3.85 4.05 8.65 6.5l-1.4-2.95h3l.55-.6 1.95-2.3 1.05-1.2.95.5.95.5-2.45-5-.8-.65-4.25-3.25m5.05 9.7-1.9 2.05-1.9 3.2-.3.6 6.55 3.4q.3-1.9 1.2-3.65l.2-.35.9-1.3.8-.95-4.65-3.75-.9.75m10.1 7.7.4-.5-4.2-3.5-.85.55-1 1-.25.4q-.8 1.35-.75 3.3l5.6 2.1q-.05-1.35.5-2.5l.55-.85m.05 1.2q-.45 1-.35 2.25l1.85.4 10.7.8-3.05-.95q-3.9-1.4-7.65-3.65l-.35-.25q-.75.6-1.15 1.4" fill="#524362" transform="translate(0 2.15)"/><path d="M9.7 26.1Q8.15 27.65 7 29.35l-.45.6-1.2-6.3L9.7 26.1M7.95 14.4q-2.85 1.25-5.3 3.25l2.3-7.8 2.4 3.65.6.9" fill="#cd8c35" transform="translate(0 2.15)"/><path d="M15.7 9.3h.35q.75-.7.45.15 1.75.85 5.35 5.4l-.2.4-.5.1q-.75 1.95-.35 1.45-2.6 4.95-2.2 7.8l-3.95-3q-1.65-4.3-.85-9l.3-1.35v-.15l.2-.1-.05-.1.25-.25-.25.1-.05.05v-.1l.05.05L15 10l.7-.7m-.8 13.4 4.25 3.25 2.3 5.15-.95-.5-1.3-1.25q-2.85-2.9-4.3-6.65" fill="#444b79" transform="translate(0 2.15)"/><path d="M14.65 21.6q-2.75 2.15-4.95 4.5l-4.35-2.45 1.2 6.3-.4.6-.65-.6q-3.4-3.4-4.15-9.45 4.05-5.15 9.7-6 .4-1.85 2.65-1.85l.4-1.4-.3 1.35q-.8 4.7.85 9" fill="#c2d0e8" transform="translate(0 2.15)"/><path d="M15.5 8.85q2.05-1.45.2.45l-.7.7-.75.75-.05-.05v.1l.05-.05.25-.1-.25.25-.1.05q-3.2 1.5-3.9 2.6-1.2.35-2.3.85l-.6-.9 2.55-.85 3.7-2.4 1.75-1.3.15-.1" fill="#5f709d" transform="translate(0 2.15)"/><path d="m21.65 15.25 1.5-.45q-3.6 8.1-2.7 11.25L18.6 24.6q-.4-2.85 2.2-7.8-.4.5.35-1.45l.5-.1m-2.5 10.7.8.65 2.45 5-.95-.5-2.3-5.15" fill="#52effa" transform="translate(0 2.15)"/><path d="m25.4 36.65.85-.55 4.2 3.5-.4.5-4.65-3.45" fill="#b1c7e3" transform="translate(0 2.15)"/><path d="M29.5 40.95q-.55 1.15-.5 2.5l-5.6-2.1q-.05-1.95.75-3.3l5.35 2.9m9.75 2.85 3.05.95-10.7-.8-1.85-.4q-.1-1.25.35-2.25l9.15 2.5" fill="#b8d2e7" transform="translate(0 2.15)"/><path d="m19.45 31.8-1.95 2.3-7.55-6.5 3.2-3.2 6.3 7.4m-1.4 2.65 1.9-2.05 4.75 3.95-.9 1.3-.2.35-5.55-3.55m12 5.65-.55.85-5.35-2.9.25-.4 1-1 4.65 3.45m.05 1.2q.4-.8 1.15-1.4l.35.25q3.75 2.25 7.65 3.65l-9.15-2.5" fill="#fff" transform="translate(0 2.15)"/><path d="m13.15 24.4 1.75-1.7q1.45 3.75 4.3 6.65l1.3 1.25-1.05 1.2-6.3-7.4" fill="#b3c4e3" transform="translate(0 2.15)"/><path d="m19.95 32.4.9-.75 4.65 3.75-.8.95-4.75-3.95" fill="#aec4e2" transform="translate(0 2.15)"/><path d="m17.5 34.1-.55.6h-3l1.4 2.95q-4.8-2.45-8.65-6.5l1.6-1.8 1.65-1.75 7.55 6.5" fill="#dfe9f4" transform="translate(0 2.15)"/><path d="M23.6 38q-.9 1.75-1.2 3.65l-6.55-3.4.3-.6 1.9-3.2L23.6 38" fill="#bbd4ea" transform="translate(0 2.15)"/></g><g id="v" fill-rule="evenodd"><path d="m20.95 1.3-.1-1.3Q28.7 3.25 36.3 8.1q27.85 25.95 19.45 50.5Q43.25 84.1 0 73.5l1.7-.6q14.5 3.05 25.1 2.3l.85-.85q3.75-4.25 1.2-10.55-1.15-2.75-3.5-5.9l-1.1-3.65L25.3 52l1.25 5.5q2.15 2.85 3.2 5.6.65 1.7.9 3.35.6 3.65-.75 7.15l-.55 1.35 3.95-.65q8.55-1.8 13.85-6.85.8-2.7.9-5.1.05-2.6-.65-4.75-.7-2.05-2.05-3.8-1.2-1.45-2.95-2.7l-2.6-6.05-1.05-2.55L26.7 48l.4-2.15 1.75-.5-1.35-1.65.2-1 1.45 1.3q.6-4.15 3.1-7.2 1.6-1.9 4-3.4l.75-.45 5.8-6.4 6.6 6.5q3.95 2.05 5.85 5.5-1.25-4.5-3.75-9.4-4.05-8.1-9.9-14.25l-2.25-2.2q-7.8-7.3-18.4-11.4M42.7 27.75l-4.7 6q-8.15 3.75-7.8 11.15l9.7-2.95 3.6 8.45q3.05 2.65 4.45 5.6 1.85 3.9.85 8.25l-.7 2.25q10.65-10.2 7.95-24.65-2.7-5.2-7.05-7.5l-6.3-6.6" fill="#524362"/><path d="M20.95 1.3q10.6 4.1 18.4 11.4l-6.85 8.5q-3.5 1-6.35 5.25l-1.1-3.7-.4-1.25-2.05.3-1.65-20.5" fill="#3d3f73"/><path d="M41.6 14.9q5.85 6.15 9.9 14.25 2.5 4.9 3.75 9.4-1.9-3.45-5.85-5.5l-6.6-6.5-.45-1.35q-1.6-4.3-4.65-7.75 1.65-1.45 3.9-2.55m1.1 12.85 6.3 6.6q4.35 2.3 7.05 7.5 2.7 14.45-7.95 24.65l.7-2.25 4.7-9.45-5.55 1.2q-1.4-2.95-4.45-5.6l-3.6-8.45q4.85-4.75 2.8-14.2" fill="#ddebf5"/><path d="M37.7 17.45q3.05 3.45 4.65 7.75l-5.8 7.75q-3 .55-5.8 4l-2.95.2q-.15-3.8-1.05-7.95 2-4.9 7.45-6.4 1-3.1 3.5-5.35" fill="#434a78"/><path d="m39.35 12.7 2.25 2.2q-2.25 1.1-3.9 2.55-2.5 2.25-3.5 5.35-5.45 1.5-7.45 6.4l-.6-2.75Q29 22.2 32.5 21.2l6.85-8.5m3.45 13.85-5.8 6.4-.75.45.3-.45 5.8-7.75.45 1.35" fill="#2a3259"/><path d="M36.25 33.4q-2.4 1.5-4 3.4l-1.5.15q2.8-3.45 5.8-4l-.3.45" fill="#293058"/><path d="M32.25 36.8q-2.5 3.05-3.1 7.2l-1.45-1.3.05-1.4.05-4.15 2.95-.2 1.5-.15" fill="#dba137"/><path d="m39.9 41.95-9.7 2.95q-.35-7.4 7.8-11.15l4.7-6q2.05 9.45-2.8 14.2" fill="#4e5f82"/><path d="m24.25 54.25 1.1 3.65q2.35 3.15 3.5 5.9l-11.7-.5q4.2-3.9 6.75-8.6l.35-.45" fill="#cae0ee"/><path d="m26.7 48 12.05-5.5 1.05 2.55-11.9 6.65q7.95 4 17.45 2.1 1.35 1.75 2.05 3.8-7.2 4.95-16.45 5.45-1.35-3.3-3.45-6.25l-1.4-6.5.05-.65.45-1.6.1-.05" fill="#c1dbeb"/><path d="M29.75 63.1q-1.05-2.75-3.2-5.6L25.3 52l.8-1.7 1.4 6.5q2.1 2.95 3.45 6.25l-1.2.05" fill="#778fab"/><path d="m39.8 45.05 2.6 6.05q1.75 1.25 2.95 2.7-9.5 1.9-17.45-2.1l11.9-6.65" fill="#fff"/><path d="M30.65 66.45q-.25-1.65-.9-3.35l1.2-.05 1.25 3.4h-1.55" fill="#394e68"/><path d="M28.85 63.8q2.55 6.3-1.2 10.55l-16.8-1.5q3.1-.3 5.5-1.3l-5.3-3.5q3.4-2.2 6.1-4.75l11.7.5" fill="#556b89"/><path d="M48.8 64.25q1-4.35-.85-8.25l5.55-1.2-4.7 9.45" fill="#cb8023"/><path d="M47.4 57.6q.7 2.15.65 4.75-7.05 7.4-14.85 10.3 3.75-1.7 6-6.2h-7l-1.25-3.4q9.25-.5 16.45-5.45" fill="#5e7b90"/><path d="M48.05 62.35q-.1 2.4-.9 5.1-5.3 5.05-13.85 6.85l-.15-1.6.05-.05q7.8-2.9 14.85-10.3" fill="#bfdaeb"/><path d="M29.9 73.6q1.35-3.5.75-7.15h8.55q-2.25 4.5-6 6.2l-.05.05-3.25.9" fill="#ca7a19"/><path d="m33.3 74.3-3.95.65.55-1.35 3.25-.9.15 1.6m-5.65.05-.85.85q-10.6.75-25.1-2.3l2.25-.7 3.55.75 3.35-.1 16.8 1.5" fill="#52effa"/><path d="m7.5 70.25 3.55-2.2 5.3 3.5q-2.4 1-5.5 1.3l-3.35.1v-2.7" fill="#ca7917"/><path d="m3.95 72.2-.3-.1L6 71.05l1.5-.8v2.7l-3.55-.75" fill="#4e5e82"/></g><g id="w" fill-rule="evenodd"><path d="M22.5 12.25q38.85-18.8 75.2-5.5l3.2 1.15 1.65 20.5-20.8 3.1-10.65 2.15q-7.05-2.5-12.85-3.3l-1.7-.15-9.5.5-1.6.45q-2.85.9-5.2 2.55L28.9 26.85q-3.35-5.75-6.4-14.6" fill="#3d3f73"/><path d="m22.5 12.25-1.5.95q-5.05 3.2-8.85 6.5-3.85 3.35-6.35 6.75-4 5.45-4.7 11.15-.95 7.8 4.5 16.1 10.25 16.9 32.15 24.45-4.9-2.35-8-5.15l-1.8-1.75Q23 65.65 24.7 58.5q1.2-4.95 5.55-10.65 1.4-6.95 6.05-10.05l1.95-1.05q.55 1.1 1.45 2 3.15 3.25 10.4 3.8l2.2-5.2 14.75-2.9 4.05-.8 10.65-2.15 20.8-3.1 2.05-.3.4 1.25 1.1 3.7.6 2.75q.9 4.15 1.05 7.95l-.05 4.15-.15 1.3.1.1-.2 1-.35 2.05-.05.1-.4 2.15-.1.05-.45 1.6-.15.35-.75 1.9.05.1-1.05 2.25-.05-.1-.3.55q-2.55 4.7-6.75 8.6-2.7 2.55-6.1 4.75l-3.55 2.2-1.5.8-2.35 1.05-2 .8h.05l-1.7.6h-.05l-.25.1-.1.05-.6.2q-28.2 9.35-60.3-10.65v.1l-1.05-.95v-.05l-.2-.15-.65-.6-4.4-4.15-.35-.35-1.1-1.2h-.05l-.9-1.05-.3-.35-.3-.35Q5.55 56.25 3.3 52l-.1-.2-.95-2-.15-.35q-8.85-20.9 19.95-38.55Q64.3-8.5 100.8 6.6l.1 1.3-3.2-1.15q-36.35-13.3-75.2 5.5m5.75 40.15q-1.3 2.1-2.05 4.05-3.9 10 5.35 16.75 1.15.9 2.4 1.65 13.3 8.45 33.55 6.55l6.65-.85q-4.25-.4-8-1.6-5.15-1.65-9.35-4.9l-1.7-1.45-.75-.65-2.05-2.3q-2.65-3.5-3.25-7.8l-.15-1.15q-.2-2.45.3-5.15l.2-1.05q.55-2.6 1.7-5.45v-5.3l-1.35-.2q-7.85-1.25-11.9-5-4.15.8-5.95 7.7l-.35 1.5q-1.95 2.4-3.3 4.65M83.1 33.15 68.05 35.8Q67.45 57.4 80 60.25l1.45.25q10.45-2.7 19.35 0l1.1 2.1q6.45-10 3.95-24.7-.7-4-2-8.3L83.1 33.15M61.15 37l-7.95 1.35q-2 5.4-1.1 11.1-3.75 7.1-2.15 13.3.95 3.85 4.05 7.35l3.1 2.8h1.1l8.4.45q5.35.65 10.05 2.25v3.85q6.6-1.55 12.35-5.2 5.6-3.5 10.35-8.95l1.45-1.7-1.1-2.9q-7.95-1.75-18.75 1.1-3.55-1.15-6.1-2.95-1.95-1.4-3.35-3.2l-1-1.5-.85-1.8-.6-1.8-.4-1.8L66.75 36l-5.6 1m12.6 42.45h.05l1.85.2v-3.2q-5.2-2.05-12.5-2.45l-3.75-.1q3.85 4.3 14.35 5.55" fill="#524362"/><path d="m70.5 54.15 1 1.5-5.25 9.95 10.95-4.65.8.6q-6.65 4.3-14.1 5.65 3.5-5.45 6.6-13.05" fill="#f0e177"/><path d="M105.85 37.9q2.5 14.7-3.95 24.7l-1.1-2.1q-8.9-2.7-19.35 0L80 60.25l2.35-8.1q14.2-2.95 23.5-14.25" fill="#d6e7f2"/><path d="m49.4 54.5-.2 1.05-1.95-.05q.1-.7.35-1.35l1.8.35m30.55 8.3-1.1-.7-.85-.55-.8-.6-2.35-2.1q2.55 1.8 6.1 2.95 10.8-2.85 18.75-1.1l1.1 2.9-1.45 1.7-.45-3.2q-8.6-.9-17.25 1.6l-1.7-.9" fill="#9ca5b9"/><path d="M66.6 73.35q7.95-4.25 13.35-10.55l1.7.9q8.65-2.5 17.25-1.6l.45 3.2Q94.6 70.75 89 74.25l-12.35 3.3V75.6q-4.7-1.6-10.05-2.25" fill="#e0edf5"/><path d="m61.15 37-6.95 2.95v8.8l14.85 1.8.6 1.8q-3.1 10.8-8.75 16.85 9.7-2.05 17.95-7.1l1.1.7q-5.4 6.3-13.35 10.55l-8.4-.45q-2.9-4.2 0-11.3l-8.25 1.15q-1.6-6.2 2.15-13.3-.9-5.7 1.1-11.1L61.15 37" fill="#9eb1db"/><path d="m48.9 60.7.15 1.15Q44.4 68.3 38.55 72.6q8.75 2.65 16.55 0l1.7 1.45-2.45.45q-9.5 1.6-18.7-1.5 5.85-3.5 10.7-9.05l.9-1.1 1.65-2.15m29.95 1.4q-8.25 5.05-17.95 7.1 5.65-6.05 8.75-16.85l.85 1.8q-3.1 7.6-6.6 13.05 7.45-1.35 14.1-5.65l.85.55" fill="#93481f"/><path d="M77.2 60.95 66.25 65.6l5.25-9.95q1.4 1.8 3.35 3.2l2.35 2.1" fill="#cd8c35"/><path d="m52.3 69.65 2.05 2.3H41.1q3.8-2.45 7.4-6.85l3.8 4.55" fill="#ca7917"/><path d="M80 60.25Q67.45 57.4 68.05 35.8l15.05-2.65-.75 19-2.35 8.1" fill="#38336e"/><path d="m105.95 56.6.15-.35-.05.65-.1-.3" fill="#c1dbeb"/><path d="m107.65 49.3-.1-.1.15-1.3-.05 1.4" fill="#dba137"/><path d="m103.85 61.3.3-.55.05.1-.35.45" fill="#cae0ee"/><path d="m105.25 58.6-.05-.1.75-1.9.1.3-.8 1.7" fill="#778fab"/><path d="M5.8 26.45q2.5-3.4 6.35-6.75 7.1 16.75 17.4 25.45l-.7 2.1q-1.65 1.8-3 3.75Q15.8 46.7 9.8 35.75q-2.3-4.2-4-9.3M28.25 52.4q1.35-2.25 3.3-4.65l.35-1.5q7.05 6.05 15.7 7.9-.25.65-.35 1.35-10.15-.5-19-3.1M63.15 74q7.3.4 12.5 2.45v3.2l-1.85-.2h-.05q-7.7-2.3-10.6-5.45" fill="#fff"/><path d="m83.1 33.15 20.75-3.55q1.3 4.3 2 8.3-9.3 11.3-23.5 14.25l.75-19" fill="#74839c"/><path d="m17.4 68.75.2.15v.05l-.2-.2M81.65 79.5h-.05l2-.8.3.1-2.25.7M71.1 33.65l-4.05.8-8.95-1.1.15-3q5.8.8 12.85 3.3m-31.4 5.1q-.9-.9-1.45-2l-.9-.45 1.2-1.2 2.25 2.5-1.1 1.15m2.25-2.05-1.7-3q2.35-1.65 5.2-2.55l.3 3.6q-2.15.75-3.8 1.95m5.1-6 9.5-.5-.15 3.1q-5.15-.1-9 .95l-.35-3.55M67.5 81.4q-20.25 1.9-33.55-6.55 14.9 5.85 28.6 4.55l4.95 2M89 74.25q-5.75 3.65-12.35 5.2v-1.9L89 74.25" fill="#52effa"/><path d="m31.5 30.75-2.6-3.9 11.35 6.85-1.7 1.4-7.05-4.35" fill="#282d56"/><path d="M29.75 73q3.1 2.8 8 5.15Q15.85 70.6 5.6 53.7.15 45.4 1.1 37.6 6.3 63.9 29.75 73m8.8-37.9 1.7-1.4 1.7 3-1.15.9-2.25-2.5m6.9-3.95 1.6-.45.35 3.55-1.65.5-.3-3.6m11.1-.95 1.7.15-.15 3-1.7-.05.15-3.1m9.6 48.75q3.75 1.2 8 1.6l-6.65.85-4.95-2 3.6-.45" fill="#329bb5"/><path d="m21 13.2 1.5-.95q3.05 8.85 6.4 14.6l2.6 3.9q2.85 3.8 5.85 5.55l.9.45-1.95 1.05-.85-.75Q25.85 28.15 21 13.2" fill="#47517c"/><path d="m38.55 35.1-1.2 1.2q-3-1.75-5.85-5.55l7.05 4.35" fill="#444c79"/><path d="m67.05 34.45-14.75 2.9-2.2 5.2q-7.25-.55-10.4-3.8l1.1-1.15 1.15-.9q1.65-1.2 3.8-1.95l1.65-.5q3.85-1.05 9-.95l1.7.05 8.95 1.1" fill="#010101" fill-opacity="0"/><path d="m69.05 50.55-14.85-1.8v-8.8L61.15 37l5.6-1 1.9 12.75.4 1.8" fill="#414778"/><path d="m27.95 71.25 1.8 1.75Q6.3 63.9 1.1 37.6q.7-5.7 4.7-11.15 1.7 5.1 4 9.3 3 12.15 13.65 19.4-1 2-1.7 4.15-4.3.95-8.65.9 5.45 7.6 14.85 11.05" fill="#4d5c81"/><path d="M12.15 19.7q3.8-3.3 8.85-6.5 4.85 14.95 14.45 23.85-4.05 3.6-5.9 8.1-10.3-8.7-17.4-25.45" fill="#b5cee6"/><path d="M26.2 56.45q.75-1.95 2.05-4.05 8.85 2.6 19 3.1-.75 3.4 0 7.35l-.9 1.1q-11.8-1.65-20.15-7.5" fill="#90a0d4"/><path d="M25.85 51q-1.4 2-2.4 4.15Q12.8 47.9 9.8 35.75 15.8 46.7 25.85 51" fill="#95a6d6"/><path d="M36.3 37.8q-4.65 3.1-6.05 10.05-4.35 5.7-5.55 10.65l-2.95.8q.7-2.15 1.7-4.15 1-2.15 2.4-4.15 1.35-1.95 3-3.75l.7-2.1q1.85-4.5 5.9-8.1l.85.75" fill="#6d83a6"/><path d="M10.85 62.45v.05-.05" fill="#c2d0e8"/><path d="M10.85 62.45h.05l1.1 1.2-1.15-1.15v-.05" fill="#444b79"/><path d="M24.7 58.5q-1.7 7.15 3.25 12.75-9.4-3.45-14.85-11.05 4.35.05 8.65-.9l2.95-.8M16.15 62l8.7 6.5-1.8-7.7-6.9 1.2" fill="#da9e34"/><path d="M33.95 74.85q-1.25-.75-2.4-1.65-9.25-6.75-5.35-16.75 8.35 5.85 20.15 7.5Q41.5 69.5 35.65 73q9.2 3.1 18.7 1.5 3.6 2.8 8.2 4.9-13.7 1.3-28.6-4.55" fill="#59728c"/><path d="m16.15 62 6.9-1.2 1.8 7.7-8.7-6.5" fill="#ca7918"/><path d="m49.75 43.55 1.35.2v5.3q-1.15 2.85-1.7 5.45l-1.8-.35q.7-2.3 2.15-4.4v-6.2" fill="#6477a0"/><path d="M31.9 46.25q1.8-6.9 5.95-7.7 4.05 3.75 11.9 5v6.2q-1.45 2.1-2.15 4.4-8.65-1.85-15.7-7.9" fill="#a5bade"/><path d="M49.2 55.55q-.5 2.7-.3 5.15l-1.65 2.15q-.75-3.95 0-7.35l1.95.05" fill="#596a9a"/><path d="M49.05 61.85q.6 4.3 3.25 7.8l-3.8-4.55q-3.6 4.4-7.4 6.85h13.25l.75.65q-7.8 2.65-16.55 0 5.85-4.3 10.5-10.75" fill="#e5bf56"/><path d="M56.8 74.05q4.2 3.25 9.35 4.9l-3.6.45q-4.6-2.1-8.2-4.9l2.45-.45" fill="#3a4f69"/><path d="m49.95 62.75 8.25-1.15q-2.9 7.1 0 11.3h-1.1L54 70.1q-3.1-3.5-4.05-7.35" fill="#5d798f"/><path d="M73.75 79.45Q63.25 78.2 59.4 73.9l3.75.1q2.9 3.15 10.6 5.45" fill="#aec3e3"/></g><g id="g"><filter id="p"><feColorMatrix in="SourceGraphic" result="filterResult3" values="0 0 0 0 0.0,0 0 0 0 1.0,0 0 0 0 1.0,0 0 0 1 0"/><feConvolveMatrix divisor="169" in="filterResult3" kernelMatrix="1 1 1 1 1 1 1 1 1 1 1 1 1 1 1 1 1 1 1 1 1 1 1 1 1 1 1 1 1 1 1 1 1 1 1 1 1 1 1 1 1 1 1 1 1 1 1 1 1 1 1 1 1 1 1 1 1 1 1 1 1 1 1 1 1 1 1 1 1 1 1 1 1 1 1 1 1 1 1 1 1 1 1 1 1 1 1 1 1 1 1 1 1 1 1 1 1 1 1 1 1 1 1 1 1 1 1 1 1 1 1 1 1 1 1 1 1 1 1 1 1 1 1 1 1 1 1 1 1 1 1 1 1 1 1 1 1 1 1 1 1 1 1 1 1 1 1 1 1 1 1 1 1 1 1 1 1 1 1 1 1 1 1 1 1 1 1 1 1" order="13 13" result="filterResult4"/><feComposite in="SourceGraphic" in2="filterResult4" result="filterResult5"/></filter><use ffdec:characterId="14" filter="url(#p)" height="190.45" transform="translate(0 10.8)" width="123.25" xlink:href="#q"/><use ffdec:characterId="16" height="178.8" transform="translate(23.05)" width="136.15" xlink:href="#r"/></g><g id="y" fill-rule="evenodd"><path d="M115.65 94.05V85.9l-5.3-8.65v7.85l-3.5-12.95q5.75 4.65 10.2 10.85l1.3 1.9q-5.1 13.9 7.4 20.2 1.35 12.1.3 19.55L124.6 107l-5.15-4.6-1.35-1.15q-1-3.85-2.45-7.2" fill="#efd96f"/><path d="M110.35 81.15v-3.9l5.3 8.65v8.15l-1.5-8.25-3.8-4.65m9.1 21.25 5.15 4.6 1.45 17.65q-.6 4.3-2 7.05 2.05-22.25-4.6-29.3m-10.4 18-2.25.85q4.85-3.45 3.45-10.4-1.2-9.35-12.05-15.55-15.65-6.95-18.3 4.1l-1.8-1.2-1.05-4.9-8-12.9-.9-1.75 1.15.6 8.6 13.45 2.75 1.7q-1 2.25-.75 5 1.3-11.3 15.5-6.6 3.05 1.2 5.55 2.9 7.2 4.8 10.2 13.45 1.2 7.15-2.1 11.25m-16.45-1.95-12.6-2.2-7.15-17.85-4-9.95-8.1-20.3L64 69.2l31 9.95 9.45 3h2.6l-5.3 3.55L62.5 70.2l.4.95v.1l18 44.1 10.1 2 1.6 1.1m28.95-19.15q3.75 2.15 8.05 2.9 8.2 7.55.55 29.3 4.85-20.35-.75-28.2-5.55-1.55-7.85-4m-13.3 16.6q-.95 3.5-5.9 3.85-9.6-.8-15.85-8.9-6.95-8.5-2.4-15.15l.85-.45q-4.1 6.5.5 12.85 1.25 1.75 3.25 3.55l4.4 3.8q8.65 6.25 15.15.45m-72.9-88q-1.75-3-2.75-6.15l-.05-7.95q10.4 19.8 37.5 37l30.85 19.6 2.85 8.55-1.45-1.35-3.1-6.15L60.55 45.9Q46 36.25 34.3 20.25l1.05 7.65m35.15 96.85 1 .4q-7 7-8.95 13.65l4.6-3.75q-4.8 5.15-7.55 11.25.3-9.6 10.9-21.55" fill="#7d2b04"/><path d="M110.35 85.1v-3.95l3.8 4.65 1.5 8.25q-2.2-5.05-5.3-8.95" fill="#cc6f00"/><path d="M97.55 48.8v-6.1q6.75 6.75 14.8 12.8 9.5 9.6 11.6 23.95l-1.7 1.2-.55-2.8q-1.15-10.7-8.75-16.7-7.7-4.5-15.35-12.3l-.05-.05" fill="#d97d00"/><path d="M97.55 48.8 96.1 35.95q5.05 10.6 16.45 18.15 11.3 11.35 12.6 25.85l-5.3 6.15q.8-2.6 2.4-5.45l1.7-1.2q-2.1-14.35-11.6-23.95-8.05-6.05-14.8-12.8v6.1" fill="#8d3703"/><path d="M126.05 124.65q1.05-7.45-.3-19.55-12.5-6.3-7.4-20.2l-1.3-1.9q-5-15.1-15.95-24.9 3.15 17.45 9.95 32.5l1.6 12.25-1.6-2.85-4-17.85q-7.9-16.25-10.85-35.4l1.35 2.05.05.05q5.95 8.35 15.95 14.2 6 6.15 8.15 14.8l.55 2.8q-1.6 2.85-2.4 5.45-.95 3.15-.65 5.9l.05 2q.45 2.45 1.6 4.4v.05l.1.1.55.8q2.35 3.15 6.9 4.65 3.65 11.8.85 31.15l-.85 5.15q-3.85 1.55-7.75 1.7l3.4-10.3q1.4-2.75 2-7.05" fill="#282b60"/><path d="m119.85 86.1 5.3-6.15q-1.3-14.5-12.6-25.85-11.4-7.55-16.45-18.15l1.45 12.85-1.35-2.05q-1.2-7.6-1.6-15.6 6.7 11.05 18.35 20.35 14 13.15 13.9 30.35-7.3 3.3-7.65 10.15-.3-2.75.65-5.9" fill="#faf5d4"/><path d="M117.05 83q-4.45-6.2-10.2-10.85l3.5 12.95.7 5.5q-6.8-15.05-9.95-32.5 10.95 9.8 15.95 24.9" fill="#2a7dce"/><path d="M119.25 94q3.4 6.3 10.85 6.7 7.15 6 3.9 36.6-2.8 1.85-5.6 3l.85-5.15.9-3.65q7.65-21.75-.55-29.3-4.3-.75-8.05-2.9l-.6-.75-.1-.1v-.05q-1.15-1.95-1.6-4.4M32.6 21.75Q30.65 15.65 31.35 9q12.35 19.1 30.2 32.5 19.5 15 37.85 24.45l1.5 4.45-30.85-19.6q-27.1-17.2-37.5-37l.05 7.95" fill="#f0e177"/><path d="M90.8 125.5q15.85.35 20.15 14.8 4.9 1.9 9.7 1.7 3.9-.15 7.75-1.7 2.8-1.15 5.6-3 3.25-30.6-3.9-36.6-7.45-.4-10.85-6.7l-.05-2q.35-6.85 7.65-10.15.1-17.2-13.9-30.35-11.65-9.3-18.35-20.35.4 8 1.6 15.6 2.95 19.15 10.85 35.4h-2.6Q93.85 68.8 63.95 52.5 39.6 40.05 32.65 25.55L31.5 22.7q-2.95-8.2-.45-17.1 24.5 35.7 64.15 55.35l3 3.4-5.8-40.3q5.8 13.85 19.65 25.05 16.3 13.4 16.25 33.85-8.25 2.45-7.85 9.45 1.4 5.6 9.65 6.6 8.35 7.8 5.2 38.9-14.2 8.6-25.45 3.4-5.75-17.9-23.25-14.25h-1.3q2.8-1.05 5.5-1.55M36.1 29.2q8.35 13.2 30.7 23.7l3.9 2.15Q88.85 65.4 102.3 77.6l1.45 1.35-2.85-8.55-1.5-4.45Q81.05 56.5 61.55 41.5 43.7 28.1 31.35 9q-.7 6.65 1.25 12.75 1 3.15 2.75 6.15l.75 1.3" fill="#484065"/><path d="m130.15 131.5-.9 3.65q2.8-19.35-.85-31.15-4.55-1.5-6.9-4.65l.05-.05q2.3 2.45 7.85 4 5.6 7.85.75 28.2m-65.7-41.9 3.1 1.6q8.15 5.95-17.85 12.6l-3.8-1.4q2.9-.8 5.4-1.85 5-2.15 8.55-5.4 2.7-2.45 4.6-5.55" fill="#dc8100"/><path d="m105.75 105.1.95 2.2q1.4 11.4-8 7.9l2.2-1.6q5.7.05 4.85-8.5" fill="#0fc2e1"/><path d="M106.8 121.25q-6.3 1.7-14.2-2.8l-1.6-1.1q-6-4.4-9-11.25-1.3-2.55-1.8-4.85l-.3-1.85q2.65-11.05 18.3-4.1 10.85 6.2 12.05 15.55 1.4 6.95-3.45 10.4m-.1-13.95-.95-2.2-3.45-3.4-2.85-2.45-4.05-2.75-1.45-.75q-5.05-2.35-9-.5l-.85.45q-4.55 6.65 2.4 15.15 6.25 8.1 15.85 8.9 4.95-.35 5.9-3.85.8-3.1-1.55-8.6M36.1 29.2l-.75-1.3-1.05-7.65q11.7 16 26.25 25.65L99.2 71.45l3.1 6.15Q88.85 65.4 70.7 55.05 51.9 42.8 36.1 29.2m42 69-9.05-17.8 8 12.9 1.05 4.9" fill="#e48c00"/><path d="M112.65 102.85q4.65 9.4-1.9 16.6l-1.7.95q3.3-4.1 2.1-11.25-3-8.65-10.2-13.45 3.4-4.1-12.65-7.1 7.25-1.25 14.85 4 4.7 2.4 7.9 7.4l1.6 2.85m-79.8-64.6q1.65 21.3 12.5 35.45-16.65-17.05-30.8-42.05l-.9-4.15q7.9 9.5 19.2 10.75m19.4 70.6q2.3 3.85 5.45 7.05l-25.1-4 19.65-3.05m17.05-29.6 15 7.65-6.4 2.3-8.6-9.95M48.25 163.9q3.7-13.1 10.65-24.3-1.85 5.9-1.35 12.35l-9.3 11.95" fill="#fff"/><path d="M115.65 94.05q1.45 3.35 2.45 7.2 3.35 12.6 2.05 30.45h3.9l-3.4 10.3q-4.8.2-9.7-1.7-4.3-14.45-20.15-14.8l10.25.45-10.45-6.4-10.6-3.3 12.6 2.2q7.9 4.5 14.2 2.8l2.25-.85 1.7-.95q6.55-7.2 1.9-16.6l-1.6-12.25-.7-5.5q3.1 3.9 5.3 8.95" fill="#2a7bce"/><path d="m118.1 101.25 1.35 1.15q6.65 7.05 4.6 29.3h-3.9q1.3-17.85-2.05-30.45" fill="#cb7000"/><path d="M111.05 100q-3.2-5-7.9-7.4l-1.4-6.9 5.3-3.55 4 17.85" fill="#f9eccf"/><path d="M97.6 48.85q7.65 7.8 15.35 12.3 7.6 6 8.75 16.7-2.15-8.65-8.15-14.8-10-5.85-15.95-14.2m-26.9 6.2-3.9-2.15Q44.45 42.4 36.1 29.2q15.8 13.6 34.6 25.85m4.15 71.45 1.75.55q-5.45 3.7-9.45 8 2.25-4.45 7.7-8.55" fill="#ffea50"/><path d="M32.65 25.55q6.95 14.5 31.3 26.95 29.9 16.3 40.5 29.65l-9.45-3q-7.15-8.75-17.7-15.3l-6.15-3.5L39.9 40.3q3.45 30.6 20.95 43.5 3.7 2.7 8 4.65l4 9.95q-6.1 6.8-14.7 7.85 6.7 13.9 23.45 20.8h-5l-1.75-.55-3.35-1.35-1-.4-1.7-.85-3.45-1.9q-4.3-2.65-7.65-6.1-3.15-3.2-5.45-7.05-1.45-2.4-2.55-5.05 26-6.65 17.85-12.6l-3.1-1.6q-11.7-6.25-19.1-15.9-10.85-14.15-12.5-35.45-.45-6.05-.2-12.7" fill="#245fa2"/><path d="m39.9 40.3 31.25 20.05 6.15 3.5q-15.8-1-13.3 5.35l-3.25-1.05 8.1 20.3q-4.3-1.95-8-4.65L58.1 65.55 39.9 40.3" fill="#5ce2ed"/><path d="m31.5 22.7 1.15 2.85q-.25 6.65.2 12.7Q21.55 37 13.65 27.5 7.95 20.6 4 9.4q5.35 63.65 47.3 91.15-2.5 1.05-5.4 1.85l3.8 1.4q1.1 2.65 2.55 5.05L32.6 111.9l-3.95.6-10-3.45q11.7 16.1 45.55 20.25-3.6 4.95-5.3 10.3-6.95 11.2-10.65 24.3l-1.8 7.3q-4.95-20.15 9.5-41.3-26.7-3.3-41.7-22.45L42.3 97.4Q2.95 67.85.2 20.05-.35 10.4.6 0q10.05 10.65 30.9 22.7" fill="#dda913"/><path d="M103.15 92.6q-7.6-5.25-14.85-4-1.55.25-3 .8l-1-2.5-15-7.65-1.15-.6.9 1.75 9.05 17.8 1.8 1.2.3 1.85-2.2-.75-12.5-24.25 19.6 9.15 1.1 2.6q6.4-1.25 14.45 1.7v-3l-37.7-15.5h-.05v-.05l-.4-.95 39.25 15.5 1.4 6.9" fill="#ffb606"/><path d="m62.9 71.25.05-.05 37.7 15.5v3Q92.6 86.75 86.2 88l-1.1-2.6-19.6-9.15-2.6-5" fill="#f9eb8e"/><path d="M60.85 83.8Q43.35 70.9 39.9 40.3l18.2 25.25 2.75 18.25" fill="#b2e7cf"/><path d="M57.7 115.9q3.35 3.45 7.65 6.1-19.5-3.95-36.7-9.5l3.95-.6 25.1 4" fill="#b6d4db"/><path d="M45.35 73.7q7.4 9.65 19.1 15.9-1.9 3.1-4.6 5.55-23.95-8.2-41.9-47.45l-3.4-16.05q14.15 25 30.8 42.05m29.3 94.8q6.2-10.05 15.45-18.75 2.45 2.05 4.6 4.9-10.05 9.45-20.05 13.85m-17.1-16.55q18.4-11.5 30.5-3.65-19.65 4.6-39.8 15.6l9.3-11.95" fill="#b5d1cd"/><path d="M59.85 95.15q-3.55 3.25-8.55 5.4Q9.35 73.05 4 9.4q6.45 21.85 13.95 38.3 17.95 39.25 41.9 47.45" fill="#dca601"/><path d="M88.3 88.6q16.05 3 12.65 7.1-2.5-1.7-5.55-2.9-14.2-4.7-15.5 6.6-.25-2.75.75-5 1.3-2.9 4.65-5 1.45-.55 3-.8" fill="#ebb049"/><path d="m84.3 86.9 1 2.5q-3.35 2.1-4.65 5l-2.75-1.7-8.6-13.45 8.6 9.95 6.4-2.3" fill="#e99f3c"/><path d="M65.5 76.25 78 100.5l2.2.75q.5 2.3 1.8 4.85 3 6.85 9 11.25l-10.1-2-18-44.1 2.6 5" fill="#822f04"/><path d="m95.4 96.5 4.05 2.75q-2.1.15-3.1.75-1.35-1.1-3.1-2 .8-.85 2.15-1.5m6.9 5.2 3.45 3.4q-1.05 4.35-4.15 4.35-.2-1.75-.75-3.35 2.6 0 1.45-4.4" fill="#042c33"/><path d="m99.45 99.25 2.85 2.45q1.15 4.4-1.45 4.4-1.3-3.6-4.5-6.1 1-.6 3.1-.75" fill="#0eb4c8"/><path d="M105.75 105.1q.85 8.55-4.85 8.5l.75-.95-.05-3.2q3.1 0 4.15-4.35m-11.8-9.35 1.45.75q-1.35.65-2.15 1.5l-2.6-1.15q1.4-.65 3.3-1.1" fill="#054650"/><path d="m101.6 109.45.05 3.2-.75.95q-1.9 0-4.5-.95.8-1.25 0-2.55-2.35-1.15-2.75 1.45-.75-.65-1.15-1.7 1.95-2.9-2-7.55-2.5-1.05-3.7-.7.2-3 3.85-4.75l2.6 1.15q-3.1 3.2 2.15 8.9 3.7 2.6 6.2 2.55" fill="#2a98a0"/><path d="M98.7 115.2q9.4 3.5 8-7.9 2.35 5.5 1.55 8.6-6.5 5.8-15.15-.45l5.6-.25M84.95 95.25q3.95-1.85 9 .5-1.9.45-3.3 1.1l-.45-.15q-9.5-.3-4.75 11.4-4.6-6.35-.5-12.85" fill="#0d9db8"/><path d="M90.05 110.4q5.1 3.5 8.65 4.8l-5.6.25-4.4-3.8q-2-1.8-3.25-3.55-4.75-11.7 4.75-11.4l.45.15Q87 98.6 86.8 101.6q-2.1.6 0 5.8 1.2 2.8 3.25 3" fill="#2ec7d9"/><path d="M96.4 112.65q-1.7-.15-2.75-1.1.4-2.6 2.75-1.45.8 1.3 0 2.55m-3.9-2.8q-1.35.65-2.45.55-2.05-.2-3.25-3-2.1-5.2 0-5.8 1.2-.35 3.7.7 3.95 4.65 2 7.55" fill="#f0f0f0"/><path d="m100.9 113.6-2.2 1.6q-3.55-1.3-8.65-4.8 1.1.1 2.45-.55.4 1.05 1.15 1.7 1.05.95 2.75 1.1 2.6.95 4.5.95" fill="#2fdbee"/><path d="M96.35 100q-2.15 1.3.75 4.9 2.35 1.2 3.75 1.2.55 1.6.75 3.35-2.5.05-6.2-2.55-5.25-5.7-2.15-8.9 1.75.9 3.1 2" fill="#2a8b91"/><path d="M100.85 106.1q-1.4 0-3.75-1.2-2.9-3.6-.75-4.9 3.2 2.5 4.5 6.1" fill="#2fd4e0"/><path d="M77.3 63.85Q87.85 70.4 95 79.15L64 69.2q-2.5-6.35 13.3-5.35" fill="#3799d7"/><path d="M58.15 106.25q8.6-1.05 14.7-7.85L80 116.25l-21.85-10" fill="#48bbe2"/><path d="M76.6 127.05h10q17.5-3.65 23.25 14.25 11.25 5.2 25.45-3.4l-.55 4.95q-13 4.05-26.7 0-13.4-21.45-35.95-4.05l-2.35 1.9q25.8 2.9 29.25 16.25l-1.25 2.45-1.85-3-1.2-1.75q-2.15-2.85-4.6-4.9l-2.05-1.45q-12.1-7.85-30.5 3.65.8-2.95 2.05-5.65 2.75-6.1 7.55-11.25 4-4.3 9.45-8" fill="#282c61"/><path d="m80 116.25 10.6 3.3 10.45 6.4-10.25-.45q-2.7.5-5.5 1.55h-3.7q-16.75-6.9-23.45-20.8l21.85 10" fill="#58ddee"/><path d="m68.8 123.9 1.7.85Q59.9 136.7 59.6 146.3q-1.25 2.7-2.05 5.65-.5-6.45 1.35-12.35 1.7-5.35 5.3-10.3 2-2.75 4.6-5.4" fill="#ebb14b"/><path d="m65.35 122 3.45 1.9q-2.6 2.65-4.6 5.4-33.85-4.15-45.55-20.25l10 3.45q17.2 5.55 36.7 9.5m-47.4-74.3Q10.45 31.25 4 9.4q3.95 11.2 9.65 18.1l.9 4.15 3.4 16.05" fill="#c27a03"/><path d="m71.5 125.15 3.35 1.35q-5.45 4.1-7.7 8.55l-4.6 3.75q1.95-6.65 8.95-13.65" fill="#d77b00"/><path d="m134.75 142.85-.45 3.45q-15.9 19.4-36.55 13.1l1.25-2.45q-3.45-13.35-29.25-16.25l2.35-1.9q8.7 1.4 16.05 4.4 5.05 2.1 9.45 4.9v-3.8l8.65 2.8q-6.8-7.35-13.95-10-9.7-3.5-20.2 1.7 22.55-17.4 35.95 4.05 13.7 4.05 26.7 0" fill="#2573ca"/><path d="M92.3 137.1q7.15 2.65 13.95 10l-8.65-2.8v3.8q-4.4-2.8-9.45-4.9-3.15-3.8 4.15-6.1" fill="#77dfe2"/><path d="M95.9 156.4q-8.05 13.35-23.95 16.75l2.7-4.65q10-4.4 20.05-13.85l1.2 1.75" fill="#daa301"/><path d="M97.75 159.4q-3.1 4.95-9.95 9.85-6.7 4.8-17.05 9.55-4.25-3.35 0-15.25l-23.65 10-.65-2.35 27.5-12.45 14.1-10.45 2.05 1.45q-9.25 8.7-15.45 18.75l-2.7 4.65q15.9-3.4 23.95-16.75l1.85 3" fill="#decc11"/><path d="M88.15 143.2q-7.35-3-16.05-4.4 10.5-5.2 20.2-1.7-7.3 2.3-4.15 6.1" fill="#d7efc2"/><path d="m88.05 148.3-14.1 10.45-27.5 12.45 1.8-7.3q20.15-11 39.8-15.6" fill="#d99f01"/></g><g id="z" fill-rule="evenodd"><path d="m48.1 6.65-2.45-.75.95-.3H52L53.5 8l-1.1 1.7q.15-1.6-.7-3.05h-3.6m-1.45 3 .55-2.15-5.35-1.35.7-.45q6.05.9 6.15 1.95H48l-1.25 3.3-.1-1.3m-15.25 1.7Q24.15 12.1 12 1.6q6.65 1.7 13.05 3.8 1.2 4.35 6.35 5.95m19.3.7q1.35 5.3-2.05 9.9l.6-2.45 1-3.9-.6-2.5-.3-3.7 1.35 2.65m3.5-2.8q3.95 4.1.9 10.5 1.1-5.75-.9-10.5m-6.4 10.1h-2.55q.8-1.55 2.05-1.7l.5 1.7m3.5-2.45h.5l.55 2.35H50.7l.6-2.35m-14.85 0 2.45.2q2.4 4.5 2.35 8.5l-.2-1q-1.2-5-4.6-7.7" fill="#fff"/><path d="M52.4 9.7 53.5 8 52 5.6h-5.4l-.95.3 2.45.75.8.25.6.9q.9 1.55 1.4 3.3l.9-.45.6-.95M41.85 6.15q-2.65 1.6-6.15 1.8l-3.3 3.7-1-.3q-5.15-1.6-6.35-5.95Q18.65 3.3 12 1.6L8 .55 9.1 0l16.5 4.7q1.4 5.2 6.9 6.4l2.8-3.8q3.75.3 7-2.15l2.3.55 1.75-.9q3 .5 5.65 0l2.5 3.3q5.75 6.45 0 14.5l-.9-1.6-1.35.95V20.2l-1.8.1-2.55 3.65-.6-3.6h-2.05q-1.5 2.3-3.4 2.8l-.2-.95q2.15-.2 3.9-4.2l.85-.4.85-.4-1.2-3.25-2.25.75 1.7-1.25-.65-1.5-1.65-.6q-1.55 1.75-3.85 1.95 2.05-.5 2.95-2.1v-.75l4.2 1.25.25-.75L48 7.65h.7q-.1-1.05-6.15-1.95l-.7.45m6.5 2.1-1 2.5-.7 1.65-1.4-.5q3.4 5.1 3.05 10.5l.35-.45q3.4-4.6 2.05-9.9L49.55 8.9l-1.2-.65m4.05 2.5-.25.45-1 .55q2.3 4 3.3 8.45l.15.55.5-1q3.05-6.4-.9-10.5l-.55-.5-.45.75-.8 1.25M52 15.4l.9 4.8.8-1.2-1.25-3.85-.45.25m.15-.55-.9-2.05.1 3.4.35-.9.45-.45m-4.35 4.5-.5-1.7q-1.25.15-2.05 1.7h2.55m3.5-2.45-.6 2.35h1.65l-.55-2.35h-.5" fill="#5b445a"/><path d="M48.1 6.65h3.6q.85 1.45.7 3.05l-.6.95q.05-3.8-2.3-2.85l-.6-.9-.8-.25" fill="#23b2d7"/><path d="m46.65 9.65-.05-1.3-5-.9q-2.55 1.5-5.9 1.6-1.75 2.85-5.8 4.4-13-1.05-22.95-12.3L8 .55l4 1.05q12.15 10.5 19.4 9.75l1 .3 3.3-3.7q3.5-.2 6.15-1.8L47.2 7.5l-.55 2.15" fill="#36bddc"/><path d="M6.95 1.15Q16.9 12.4 29.9 13.45q4.05-1.55 5.8-4.4 3.35-.1 5.9-1.6l5 .9.05 1.3.1 1.3-.25.75-4.2-1.25-2.95 2.85q2.3-.2 3.85-1.95l1.65.6.65 1.5-1.7 1.25 2.25-.75 1.2 3.25-.85.4-1.4.1q-1.45 2.4-3.5 3.85-1.4-5.2-6.45-7.85h-1.6l-1.35-1 .95 1.4-1.2.8 1.1-.2q2.25.25 3.2 1.55l-1.05-.2v6.35l-4-.5-3.25-4.85.3 1.05-4.2-3.05q-10.65 0-21.85 1.6-5.95-9.05 4.85-15.5" fill="#196ed0"/><path d="m47.35 10.75 1-2.5 1.3 4.85.6 2.5-1 3.9.35-3.7-2.25-5.05m7.3 8.85q0-5.9-2.25-8.85l.8-1.25q2.75 4.55 1.45 10.1m-18.85-.1-.05-2.7.7.1q3.4 2.7 4.6 7.7-2.8-5.4-5.25-5.1" fill="#7d2b04"/><path d="m51.8 10.65-.9.45q-.5-1.75-1.4-3.3 2.35-.95 2.3 2.85" fill="#1b63c1"/><path d="M54.45 20.2q-1-4.45-3.3-8.45l1-.55.25-.45q2.25 2.95 2.25 8.85l-.2.6M52 15.4l.45-.25L53.7 19l-.8 1.2-.9-4.8" fill="#c0700d"/><path d="m48.35 8.25 1.2.65 1.15 3.15-1.35-2.65.3 3.7-1.3-4.85m6.1 11.95.2-.6q1.3-5.55-1.45-10.1l.45-.75.55.5q2 4.75.9 10.5l-.5 1-.15-.55" fill="#ffea50"/><path d="m52.15 14.85-.45.45-.35.9-.1-3.4.9 2.05" fill="#1971d4"/><path d="m48.65 21.95-.35.45q.35-5.4-3.05-10.5l1.4.5.7-1.65 2.25 5.05-.35 3.7-.6 2.45" fill="#c0700e"/><path d="M2.1 16.65q11.2-1.6 21.85-1.6l4.2 3.05.3 1.05q-1.85-1.95-4.6-3.4L2.45 17.1l-.35-.45m34.05-.4q-.95-1.3-3.2-1.55l2.1-.4 3.05 2.3-1.95-.35m5.35 5.3q2.05-1.45 3.5-3.85l1.4-.1-.85.4q-1.75 4-3.9 4.2l-.15-.65m-2.15-8.25 2.95-2.85v.75q-.9 1.6-2.95 2.1" fill="#b1f6a0"/><path d="m28.15 18.1-.3-1.05 3.25 4.85 4 .5v-6.35l1.05.2 1.95.35-3.05-2.3-2.1.4-1.1.2 1.2-.8-.95-1.4 1.35 1h1.6q5.05 2.65 6.45 7.85l.15.65.2.95q.3 2.15.05 4.6l-6.2-4.55-5.2-.6q-3.1-4.55-7-6.2L2.8 17.6l-.35-.5 21.4-1.35q2.75 1.45 4.6 3.4l-.3-1.05m8.3-1.2-.7-.1.05 2.7v2.65l5.4 4.25.05-.75v-.05q.05-4-2.35-8.5l-2.45-.2" fill="#524362"/><path d="M41.25 25.6v.05l-.05.75-5.4-4.25V19.5q2.45-.3 5.25 5.1l.2 1" fill="#c17310"/></g><g id="A" fill-rule="evenodd"><path d="M10.5.95 9.4 1q-3.2.2-6.7 1.2 6.05 4.45 10.8 10l5.15.2 2.75-.2q3.45-.45 6.9-1.55Q21.5.8 10.5.95m-7.35 7.9h-1.3l10.8 8.9 7.8-.25q2.95-.85 5.15-3l2.3-2.95q-6.95 2.55-15.05 1.4l-2.15-3-.8-1.1H3.15m24 9.7 1.75-2.5-.25-4.8q-4.4 9.05-16 7.25l-.95-.65-.95-.65-5.85 3.85 4.6.55q4.1.75 7.5 2.45 3.15-.1 5.85-1.7 2.35-1.35 4.3-3.8m.55 10.25q-8.8 2.6-18.3 0 .45-2.8 2.65-6-4.25-1.2-9.2-1.2l7.4-5L0 8.15h7.75L1.2 1.95q15.05-6.2 27.4 7.2 2.95 6.1 2.6 12.55.65 2.4 3.2 3.7l-.8.75h.9l-.5 1.7h1.3q.3 4.6-2.05 5.4l-1.65.15v-2.9L27.7 32v-3.2M11 28.5q8.35 2.75 18.5-1v-1.15q2.65-.15 3.7-.85l-.45-.25-1-1q-.65-.85-1.15-2.1-4.4 3.15-13.65 2.55L12.7 23q-1.9 2.65-2.4 5.25l.7.25m23.75 0-.75-.05-1.5 1.85v2.45q2.35-.85 2.25-4.25m-1.7-1.55L31.9 27l-1.75.1v1l-1.7.85v2.1q4.95-1.15 5.2-4.15l-.6.05m-2.55-5.8q.3-2.8-1.25-4.6-3.5 5.4-8.6 7.5 5.05.65 9.85-2.9" fill="#524362"/><path d="m20.45 17.5-7.8.25-10.8-8.9h1.3l9.75 8.1 7.55.55" fill="#78c3b2"/><path d="m10.5.95-.9 1.5 4.45 7.6 7.35 2.15-2.75.2-5-1L12 9.5 8.4 2.85 9.4 1l1.1-.05" fill="#1b67c7"/><path d="m9.4 1-1 1.85L12 9.5l1.65 1.9 5 1-5.15-.2Q8.75 6.65 2.7 2.2q3.5-1 6.7-1.2" fill="#7cffff"/><path d="m21.4 12.2-7.35-2.15-4.45-7.6.9-1.5q11-.15 17.8 9.7-3.45 1.1-6.9 1.55M10.7 9.95l2.15 3q8.1 1.15 15.05-1.4l-2.3 2.95q-6.5 2.1-12.15.65l-3.9-5.2h1.15m1 7.9.95.65q11.6 1.8 16-7.25l.25 4.8-1.75 2.5q-4.9 3.55-11 2.75l-7.2-2 2.75-1.45M31.9 27l-3.45 3v-1.05l1.7-.85v-1l1.75-.1" fill="#281f68"/><path d="M27.15 18.55q-1.95 2.45-4.3 3.8l-6.2.35q-3.4-1.3-7.15-1.1l-4.6-.55 5.85-3.85.95.65-2.75 1.45 7.2 2q6.1.8 11-2.75" fill="#1a68c9"/><path d="m28.6 9.15 13.25 8.1-1.15 4.85q-1.55 2.3-4.7 2.6l-.8.75h.75l-.85 1.1h1.1l-.9 1.3H34l.5-1.7h-.9l.8-.75q-2.55-1.3-3.2-3.7.35-6.45-2.6-12.55m-6.4 28.3 5.5-8.65V32l3.9-1.5v2.9l1.65-.15 1.75 4.1 3.5-3.6 2.3 2.1 2.1 14.45 1.15.95-.5-2.85 3.05-.05h.45l.05.95q.45 2.15.15 4.2l-1.85 2.9q-1.55-2.1-7.25.45-1.8 1.95-5.1-2.9L22.2 37.45" fill="#c0bbc4"/><path d="m32.75 25.25.45.25q-1.05.7-3.7.85v1.15q-10.15 3.75-18.5 1 4.9.25 9.4-.15L28.65 27l.8-1.75h3.3" fill="#6cb8b6"/><path d="M32.75 25.25h-3.3l-.8 1.75-8.25 1.35 4.8-2.7 6.55-1.4 1 1" fill="#1e52ab"/><path d="M20.4 28.35q-4.5.4-9.4.15l-.7-.25q.5-2.6 2.4-5.25l4.25 1.7q9.25.6 13.65-2.55.5 1.25 1.15 2.1l-6.55 1.4-4.8 2.7" fill="#1b65c3"/><path d="M33.25 33.25q2.35-.8 2.05-5.4l.9-1.3h-1.1l.85-1.1h-.75l.8-.75q3.15-.3 4.7-2.6l-1.2 4.85 1.3 8.9-2.3-2.1-3.5 3.6-1.75-4.1M49.5 45q.2.25.65.35l-.1 1.95L49 46.05v-.85l.5-.2M25.6 58.65l9.8 3.9 1.75-3.85 3.15 3.6-4.55 4.3q-6.5-1.7-10.15-7.95m16.1 3.2q2.15-1.35 3.65-4.45.1.7-.3 1.75l-2.5 4.55-.85-1.85m-17.55 5.1h-2V64.7l-2.9.3-7.05 4.3-1.2-1.15-.1-1.1 1.55 1.65q6.25-5.05 10-4.6l1.7 2.85m-12.9-.6-.8-7q1 2.2 2.3 3.1 7.5-4.8 11.65-4.85 2.95 7.2 11.45 9.75l5.3-5.25 1.05 2.2q-1.5 3.85-3.6 6.7l-.6-.8q-4 6.15-8 2.3l-2.7-4.05h-1.4l-3.1-4.9 1.05-5.2q-5 .85-10.75 4.65l-1.85-1v4.35m37.75-19-.1-.8q1.25 1.5 1.25 3.85l-.9-1.15-.25-1.9M33.55 87.9l-.05.05-3.7 4.2 2.4-4.7 1.4-6.35 3.8-4.8q-1.3 6.45-3.85 11.6M31.9 74.5q2.5.7 6.2-3.25l-2.05 2.45v.55q-1.6 1.35-3.25 1.55l-.9-1.3m-10.8-2.45.2-.95 3.75 5.25q.6 6-.75 10.8V77.3l-3.2-5.25" fill="#fff"/><path d="M30.5 21.15q-4.8 3.55-9.85 2.9 5.1-2.1 8.6-7.5 1.55 1.8 1.25 4.6" fill="#1e73d0"/><path d="M3.15 8.85H9.9l.8 1.1H9.55l3.9 5.2q5.65 1.45 12.15-.65-2.2 2.15-5.15 3l-7.55-.55-9.75-8.1" fill="#196fd2"/><path d="M22.85 22.35q-2.7 1.6-5.85 1.7-3.4-1.7-7.5-2.45 3.75-.2 7.15 1.1l6.2-.35" fill="#3a8cc7"/><path d="M32.5 32.15V30.3l1.5-1.85.75.05-2.25 3.65" fill="#1874d8"/><path d="m31.9 27 1.15-.05q-1.2 2.45-4.6 3.55V30l3.45-3" fill="#1c5cb8"/><path d="m32.5 32.15 2.25-3.65q.1 3.4-2.25 4.25v-.6m-4.05-1.65q3.4-1.1 4.6-3.55l.6-.05q-.25 3-5.2 4.15v-.55" fill="#a3e9a5"/><path d="m41.85 17.25.55.35-.55 2.7q3.7 8.3 4.9 15.85 4.9 4.15 3.6 11.5l.5 4.1-2.25.55q-.65 5.1-3.4 7.85l-4.05 7.75 1.9-.5.7 8.2-4.4 10.25-5.1 4.35-.65-1.6-4.05 4.65q-2.15-2.8-3.75-7.45l.2-.8q1.7 4.8 3.8 7.15l3.7-4.2.05-.05q5.4-7.35 4.75-15.6l-1.75 1.15v1.4l1.5-1.85q-1.5 4.45-4.9 6.75-2.45-5.45-6-10.6h-4.8l-.55-.7h3.25l-.9-1.5-1.7-2.85q-3.75-.45-10 4.6l-1.55-1.65.1 1.1.05 1.1.9 1.45 5.85-2-.35.95-5.8 1.8-1.5-3.65.25-1.05.25-1.05-1-8.4.2-.35q1.15 2.75 2.85 5 5.4-4.1 12.05-4.8l.85 1.5q3.65 6.25 10.15 7.95l4.55-4.3 1.1-1.05.3.6.85 1.85 2.5-4.55q.4-1.05.3-1.75-.2-1.7-3.35-1.55-2.2.25-4.65 2.15-2.6-.15-4.3-4.05 3.3 4.85 5.1 2.9 5.7-2.55 7.25-.45l.45 1.15q1.1-1.95 1.4-4.05.3-2.05-.15-4.2l-.05-.95h-.45l.2-4.25q.05-9.75-3.9-19.8l-1.3-3.05-1.4 6.35 1.9 11.8 1.45 9 .5 2.85-1.15-.95-2.1-14.45-1.3-8.9 1.2-4.85 1.15-4.85m8.3 28.1-.15-2.1q-.45-3.55-2.65-5.9l-.5-.5q.55 3.75.5 7.35l-.05.75q.95.4 1.7 1.1l1.05 1.25.1-1.95M22.8 63.55l3.1 4.9h1.4L30 72.5q4 3.85 8-2.3l.6.8q2.1-2.85 3.6-6.7l-1.05-2.2-5.3 5.25q-8.5-2.55-11.45-9.75-4.15.05-11.65 4.85-1.3-.9-2.3-3.1l.8 7 1.2 1.7q6.05-4.7 10.35-4.5m26.1-17-.85-.8.1.75.2 1.65.9 1.1.9 1.15q0-2.35-1.25-3.85m-1.1 2.85.7 2.3 1.75-.35q-.8-1.65-2.2-2.95l-.25 1m-5.25 22.15v-3.3l-.9.35-.95.3-2.1 2.85.6.65v1.7l-.4 3.45 1.3-3.3 2.45-2.7m3.2-12.9q2.9-3.25 2.05-7.9-.1 4.55-2.05 7.9m-4.2 19.9 1.2-3.1V72.4l-2.35 2.45-2.05 4.75L37 83.4l-.5 1.1-2.35 3.9.3.8 2.2-1.9.9-.75 1.3-1.1 2.7-6.9m-5.5-4.3v-.55l2.05-2.45q-3.7 3.95-6.2 3.25l-.95-.45 2.45 4.6 2.65-2.75v-1.65" fill="#904723"/><path d="m43.1 25.3-.2-1q3.95 10.05 3.9 19.8l-3.7-18.8" fill="#ff746e"/><path d="m42.9 24.3.2 1q.5 8.3-1 14.1l-1.9-11.8 1.4-6.35 1.3 3.05m-.15 48.1-2.6 7.1-2.6 7.05-.9.75.35-3.9 1.35-3.8 2.05-4.75 2.35-2.45M23.3 89.85l-.25.55q-2.45-4.6-3.45-11.9l1.5-6.45 1.7 6.65.5 11.15" fill="#8a0008"/><path d="M49.5 45q-.4-.4.3-1.3-1.25-.9-2.45.5.05-3.6-.5-7.35l.5.5q.7 2.85.6 5.15 1.2-.05 2.05.75l.15 2.1q-.45-.1-.65-.35" fill="#1571be"/><path d="M47.35 44.2q1.2-1.4 2.45-.5-.7.9-.3 1.3l-.5.2v.85q-.75-.7-1.7-1.1l.05-.75m.8 2.3-.1-.75.85.8.1.8-.85-.85" fill="#eeda72"/><path d="M50 43.25q-.85-.8-2.05-.75.1-2.3-.6-5.15 2.2 2.35 2.65 5.9" fill="#74d8dc"/><path d="m43.1 25.3 3.7 18.8-.2 4.25-3.05.05-1.45-9q1.5-5.8 1-14.1" fill="#c93e3f"/><path d="m48.15 46.5.85.85.25 1.9-.9-1.1-.2-1.65" fill="#e08000"/><path d="m47.8 49.4.25-1q1.4 1.3 2.2 2.95l-1.75.35-.7-2.3m-2.05 9.25q1.95-3.35 2.05-7.9.85 4.65-2.05 7.9" fill="#dc7e00"/><path d="m25.6 58.65-.85-1.5 8.3-3.2q1.7 3.9 4.3 4.05 2.45-1.9 4.65-2.15 3.15-.15 3.35 1.55-1.5 3.1-3.65 4.45l-.3-.6-1.1 1.05-3.15-3.6-1.75 3.85-9.8-3.9" fill="#769dc0"/><path d="m45.4 56.4 1.85-2.9q-.3 2.1-1.4 4.05l-.45-1.15" fill="#b6d4da"/><path d="m41.65 68.6.9-.35v3.3l-.8-.2-.1-2.75" fill="#fefdf4"/><path d="M39.2 74.1v-1.7l-.6-.65 2.1-2.85.95-.3.1 2.75-2.55 2.75" fill="#e77a00"/><path d="m42.55 71.55-2.45 2.7-1.3 3.3.4-3.45 2.55-2.75.8.2m-26.2 5.55q.8-5.85 3.05-10.95l.6.8V67l6.4 8.75q.05 4.6-.8 8.55l-.1-8.15-4.35-5.9q-1.25 3.55-1.9 8.4.85 8.25 3.8 12.55l-1 1.6q-2.3-6.9-3.55-14.35l2.1-8.7L20 67q-1.95 4.45-3.65 10.1" fill="#f0e177"/><path d="M42.75 72.4v3.05l-1.2 3.1-1.4.95 2.6-7.1m-21.65-.35 3.2 5.25-1.5 1.4-1.7-6.65" fill="#ff9250"/><path d="m40.15 79.5 1.4-.95-2.7 6.9-1.3 1.1 2.6-7.05M24.3 77.3v9.85l-1 2.7-.5-11.15 1.5-1.4" fill="#cc2a12"/><path d="M11.25 66.35V62l1.85 1q5.75-3.8 10.75-4.65l-1.05 5.2q-4.3-.2-10.35 4.5l-1.2-1.7" fill="#7889ab"/><path d="m9.85 56.95 12.35-19.5 10.85 16.5-8.3 3.2q-6.65.7-12.05 4.8-1.7-2.25-2.85-5" fill="#7caed5"/><path d="M25.6 84.3q-.85 3.75-2.55 6.9-2.95-4.3-3.8-12.55.65-4.85 1.9-8.4l4.35 5.9.1 8.15m-1.3 2.85q1.35-4.8.75-10.8L21.3 71.1l-.2.95-1.5 6.45q1 7.3 3.45 11.9l.25-.55 1-2.7" fill="#ae734c"/><path d="m16.45 77.85-.1-.75Q18.05 71.45 20 67l.6 2.75-2.1 8.7-2.05-.6" fill="#fe9a00"/><path d="M25.8 85.8q-1.35 5.35-4.25 8.45-3.95-7.2-5.8-17.15l-4.3 1.3-2.7-7v-4l1.9-1.7-.25 1.05q-.55.35-1.15.65v3l2.7 6.9 3.1-.9.85-.25q.45-2.95 1.4-5.9l.15-.6.35-.95 1.45-3.7 2.55 3.45.55.7.75 1.05 3.9 5.2-.2 4.2L26 85l-.2.8m-.2-1.5q.85-3.95.8-8.55L20 67v-.05l-.6-.8q-2.25 5.1-3.05 10.95l.1.75q1.2 8.65 5.3 15.35l.3-.4 1-1.6q1.7-3.15 2.55-6.9" fill="#60485b"/><path d="m17.45 69.65-.15.6-5.25 1.85 3.6.55-.6 3.75-3.1.9-.3-5.85 5.8-1.8" fill="#f4e899"/><path d="m11.95 77.3-2.7-6.9v-3q.6-.3 1.15-.65l-.25 1.05 1.5 3.65.3 5.85" fill="#943c04"/><path d="m11 68.15 1.2 1.15 7.05-4.3-1.45 3.7-5.85 2-.9-1.45-.05-1.1" fill="#8392aa"/><path d="M17.3 70.25q-.95 2.95-1.4 5.9l-.85.25.6-3.75-3.6-.55 5.25-1.85" fill="#af4e02"/><path d="m22.05 92.8-.3.4q-4.1-6.7-5.3-15.35l2.05.6q1.25 7.45 3.55 14.35" fill="#8a0b07"/><path d="m31.9 74.5.9 1.3q1.65-.2 3.25-1.55v1.65l-2.65 2.75-2.45-4.6.95.45" fill="#8796c4"/><path d="M22.35 69.15h4.8q3.55 5.15 6 10.6 3.4-2.3 4.9-6.75l-1.5 1.85v-1.4l1.75-1.15q.65 8.25-4.75 15.6 2.55-5.15 3.85-11.6l-3.8 4.8-1.4 6.35V81.1q-1.7-5.5-6.55-11.25l-2.55.35-.75-1.05" fill="#f0e076"/><path d="m23.1 70.2 2.55-.35Q30.5 75.6 32.2 81.1v1.35q-2.5-5.25-5.4-2.85l.2-4.2-3.9-5.2" fill="#a13d04"/><path d="m19.25 65 2.9-.3v2.25h2l.9 1.5H21.8L19.25 65" fill="#707e9e"/><path d="M29.8 92.15Q27.7 89.8 26 85l.8-5.4q2.9-2.4 5.4 2.85v5l-2.4 4.7" fill="#c97b1a"/><path d="m36.65 87.3-2.2 1.9-.3-.8 2.05-1.5.3-2.4.5-1.1-.35 3.9" fill="#e6c259"/><path d="m34.15 88.4 2.35-3.9-.3 2.4-2.05 1.5" fill="#b05002"/></g><g id="B" fill-rule="evenodd"><path d="m30.35 35.85.4-3.75-4.35-18.05.25-2.85.65 1.9 4.4 19.25.8 3.95 5.6 4.45v3.35l-.9-3.15-6-3.7-.85-1.4" fill="#9b4203"/><path d="M38.1 44.1v-3.35l-5.6-4.45-.8-3.95-4.4-19.25 2.9 8.4 2.75 10.8 5.65 6.85v5.8l-4.8-2.55-.6-1.3 4.9 3m-6.95 5.7 1.4-3.6-2.15-5.95-10.2-2.55-9.6-16.4q3.7 4.4 4.3-.55L22.35 33l8.35 4.85q1.9 3.7 3.2 7.45-1.55 2.2-2.45 4.95h-1l-.2-.9.9.45" fill="#f0e177"/><path d="m30.35 35.85.85 1.4 2 3.85.6 1.3 4.8 2.55 1 3.1 1.1 3.45-.4-.35-6.25-5.35-.15-.5q-1.3-3.75-3.2-7.45l-.85-1.55L23 30.5l-9.1-11.45L1.3 3.2l.85 4.25q3 14.1 7.5 26.95l1.8 2.8q1.3.75 2.6 1.3 2.15.8 4.35 1l4.05-.25.4.5 7.1 7.95.3 1.65.2.9.1.75 1.5 2 .2 1.25v.05l-.45 1.35-.35.45-.3.25q-1.5 1.2-5 1.45l1 2q-14.3 1.55-19.65-9 6.2 4 9.9 3.1-1.45-4.25-5.5-3l-5.5-6.55-4.6-12.8 6.7 3.2Q2.65 17.7 0 0l23.75 30.15.95.85 1.55 1.3 4.1 3.55M4.25 36l1.3 3.45 1.9 4.85 4.85 5.6q5.35-.6 5.85 4.75-4.05.75-8.6-1.75l2.35 2.45q5.8 5.1 14 3.85l-1.15-1.65-1-.45q-3.4-1.75-2.25-5.85 4.9-5.7 8.1 1.6-3.25-3.55-5.65-.4-1.35 4.4 2.55 4.65l2.15-.25q3.15-.75 2.85-3.55l-.6-.85q-1-1.7-1.55-4.4-3-4.25-7.1-8-5.3 1-10.3-2.05l-8.8-4.8 1.1 2.8M25.2 50.55l2.5-.15q-2.35-2.15-4.35 0-.9.75-1.2 1.65-.6 1.8 1.2 4-1-2.1.3-4.4l1.55-1.1m13.4-1.7.8.8-1.45-4.2-2.7-1.55-1.1-.65.7 1.9 3.75 3.7" fill="#96481c"/><path d="m31.2 37.25 6 3.7.9 3.15-4.9-3-2-3.85" fill="#ba5d00"/><path d="m26.4 14.05 4.35 18.05-.4 3.75-4.1-3.55-.65-10.1.8-8.15" fill="#c46700"/><path d="m27.3 13.1-.65-1.9-.25 2.85-.8 8.15-.9 8.8-.95-.85 2.4-23.85 8.8 25.65 4.65 6.6v9.5l-1-3.1v-5.8l-4.85-7.3L30.2 21.5l-2.9-8.4" fill="#524362"/><path d="m38.6 39.15-5.65-6.85-2.75-10.8 3.55 10.35 4.85 7.3m1 6.7V44.7q1.2 2.55 1.55 5.5l.8 1.75v.6q2.15 3.9 1.3 4.95l-.6-.25.45-.45-1.9-5.1-1.6-5.85m-25.7-26.8L23 30.5l6.85 5.8.85 1.55L22.35 33 14.9 20.75l-1-1.7m8.35 21q4.1 3.75 7.1 8 .55 2.7 1.55 4.4l-1.35-1.55q-2.35-4.1-6.5-5.55l-.8-5.3M43.4 58.6q-1.05 1.05-4 1l-.55-2.05h-.95l-1.95-2.2H33.8l-1.05-1.2.75 1.55 1.45 1q0 2.4 1.85 2.5l1.55 2.2H40l-.5 1.55-1.3-.45v-.8q-3.4-1.8-5-4.9h-1l-.4-1.15.45-1.35v-.05l.45-3.55q.95 4.35 5.85 4.85 1 2.75 4.85 3.05" fill="#fff"/><path d="M2.15 7.45 1.3 3.2l4.95 10.7 4.35 7.4 9.6 16.4 10.2 2.55 2.15 5.95-1.4 3.6v-4.1l-1.55-4.75-6.75-1.2-.4-.5-4.05.25.6-1.85-3.4-5.9-10.85-19.4L6.4 20.5 2.15 7.45m21.6 49.65 1 .45 1.15 1.65q-8.2 1.25-14-3.85 5.85 3.15 11.85 1.75M8.05 38.8l4.55 4.15q7.55-.6 9 5.55l5-.15q-3.05-.3-5.3 1.5-2.1-5.75-8.65-6.05l-4.6-5" fill="#7d2b04"/><path d="m10.6 21.3-4.35-7.4L1.3 3.2l12.6 15.85 1 1.7q-.6 4.95-4.3.55" fill="#f9f3c9"/><path d="M2.15 7.45 6.4 20.5l4.65 14.3 3 3.7q-1.3-.55-2.6-1.3l-1.8-2.8q-4.5-12.85-7.5-26.95" fill="#b0fab6"/><path d="m6.4 20.5-1.65-8.15 10.85 19.4 3.4 5.9-.6 1.85q-2.2-.2-4.35-1l-3-3.7L6.4 20.5" fill="#db7f00"/><path d="m4.25 36-1.1-2.8 8.8 4.8q5 3.05 10.3 2.05l.8 5.3q4.15 1.45 6.5 5.55l1.35 1.55.6.85q.3 2.8-2.85 3.55 1.65-.95 2.2-3.1-1.9-4.1-4.25-5.4l-5 .15q-1.45-6.15-9-5.55L8.05 38.8l-.65-.7-2.35-2.6q2.55 4.65 6.4 9.05-3.7-3.6-7.2-8.55m14.3 16.5q-.7-4.9-5.45-6.9 6.95 1.5 5.5 7.5l-.05-.6" fill="#f0e178"/><path d="M5.55 39.45 4.25 36q3.5 4.95 7.2 8.55-3.85-4.4-6.4-9.05l2.35 2.6.65.7 4.6 5q6.55.3 8.65 6.05 2.25-1.8 5.3-1.5 2.35 1.3 4.25 5.4-.55 2.15-2.2 3.1l-2.15.25q-3.9-.25-2.55-4.65 2.4-3.15 5.65.4-3.2-7.3-8.1-1.6-1.15 4.1 2.25 5.85-6 1.4-11.85-1.75L9.55 52.9q4.55 2.5 8.6 1.75l.45-1.55q1.45-6-5.5-7.5 4.75 2 5.45 6.9-1.9-4.9-6-3.65l-4.5-5.45-2.5-3.95" fill="#c76700"/><path d="m25.6 22.2.65 10.1L24.7 31l.9-8.8" fill="#ffea50"/><path d="m22.85 39.75 6.75 1.2 1.55 4.75v4.1l-.9-.45-.3-1.65-7.1-7.95" fill="#c26400"/><path d="M22.15 52.05q.3-.9 1.2-1.65 2-2.15 4.35 0l-2.5.15q-1.1-.25-3.05 1.5" fill="#853004"/><path d="M18.15 54.65q-.5-5.35-5.85-4.75l-4.85-5.6-1.9-4.85 2.5 3.95 4.5 5.45q4.1-1.25 6 3.65l.05.6-.45 1.55" fill="#8afee6"/><path d="m25.2 50.55-1.55 1.1q-1.3 2.3-.3 4.4-1.8-2.2-1.2-4 1.95-1.75 3.05-1.5" fill="#efbd6e"/><path d="M39.6 43.3q1.5 3.6 2.2 7.3 1.35 2.1 1 2.8 1.25 2.05 1.1 3.8l-.65.85-2.7-1.35-1.4-2.45-.5.5q-1.95-2.95-4.3-4.8-.6-1.6-1.35-2.15l.15-.4q1.1 1 1.55 2.35 2.2 1.9 4 4.3l.55-.4 1.5 2.7 1.9.9.6.25q.85-1.05-1.3-4.95v-.6l-.8-1.75q-.35-2.95-1.55-5.5v-1.4" fill="#844831"/><path d="M39.6 48.05v-2.2l1.6 5.85 1.9 5.1-.45.45-1.9-.9 1.85.35-1.9-5.2-1.1-3.45" fill="#52ffee"/><path d="m37.95 45.45 1.45 4.2-.8-.8-2.1-3.15 1.45-.25" fill="#c94442"/><path d="m37.95 45.45-1.45.25-1.25-1.8 2.7 1.55" fill="#ef9186"/><path d="m36.5 45.7 2.1 3.15-3.75-3.7-.7-1.9 1.1.65 1.25 1.8" fill="#8a0008"/><path d="m33.9 45.3.15.5-.2.35-.4.75-.3.5-.15.4q-.9 1.8-.95 3.2h-1.5l-.1-.75h1q.9-2.75 2.45-4.95" fill="#5d4458"/><path d="m34.05 45.8 6.25 5.35v.75l-6.45-5.75.2-.35m5.2 7.85-.55.4q-1.8-2.4-4-4.3-.45-1.35-1.55-2.35l.3-.5 1.3 2.1 3.95 4.25.6-.3-.05.7" fill="#3ca1d8"/><path d="M33 47.8q.75.55 1.35 2.15 2.35 1.85 4.3 4.8l.5-.5 1.4 2.45 2.7 1.35.65-.85q0 .85-.5 1.4-3.85-.3-4.85-3.05-4.9-.5-5.85-4.85l-.45 3.55-.2-1.25-1.5-2h1.5q.05-1.4.95-3.2m6.5 15.15-.05.3h-1.6V62q-2.9-1.6-4.75-4.65h-1.55l-.1-1.25.35-.45.4 1.15h1q1.6 3.1 5 4.9v.8l1.3.45" fill="#c0bbc4"/><path d="m40.3 51.15.4.35 1.9 5.2-1.85-.35-1.5-2.7.05-.7-.6.3L34.75 49l-1.3-2.1.4-.75 6.45 5.75v-.75" fill="#195593"/><path d="M43.9 57.2q.95 3.3-4.5 2.8l.4.7h.65v.45l-.65 2.55h-2.5v-1.55q-2.8-1.6-4.5-4.45h-1.65v-1.35l.3-.25.1 1.25h1.55q1.85 3.05 4.75 4.65v1.25h1.6l.05-.3.5-1.55h-1.65l-1.55-2.2q-1.85-.1-1.85-2.5l-1.45-1-.75-1.55 1.05 1.2h2.15l1.95 2.2h.95l.55 2.05q2.95.05 4-1 .5-.55.5-1.4m-6.75.2-1.45-1.7h-1.2l.8.8q-.1 2.1 1.7 2.4l.6.85.65.9.3-.9.05-1.7h-.9l-.55-.65m1.4 3.65.75-.3-.35-.95-.4 1.25" fill="#5b455c"/><path d="M37 58.9q-1.8-.3-1.7-2.4l-.8-.8h1.2l1.45 1.7q.2.95-.15 1.5" fill="#de302d"/><path d="M37.7 58.05h.45l.4 1.7-.3.9-.65-.9q.45-.6.1-1.7" fill="#600403"/><path d="m37.15 57.4.55.65q.35 1.1-.1 1.7l-.6-.85q.35-.55.15-1.5" fill="#ff8576"/><path d="M38.15 58.05h.45l-.05 1.7-.4-1.7" fill="#db2f2c"/><path d="m38.55 61.05.4-1.25.35.95-.75.3" fill="#de8f00"/><path d="m35.25 51.4-1.35-1.05.1.9.1.55.6.9q1.1 1.4 2.75 1.35-.95-1.5-2.2-2.6v-.05m-1.45-1.6q2.5 1.55 4.2 4.6-3.2.15-4.2-2.55l-.45-3.45.45 1.4" fill="#755f6e"/><path d="m34 51.25-.1-.9 1.35 1.05q-.1 1.15-1.25-.15" fill="#fff"/><path d="M35.25 51.45q1.25 1.1 2.2 2.6-1.65.05-2.75-1.35 1.9 1.05.55-1.25" fill="#600403"/><path d="M35.25 51.4v.05q1.35 2.3-.55 1.25l-.6-.9-.1-.55q1.15 1.3 1.25.15" fill="#de302d"/></g><g id="C" fill-rule="evenodd"><path d="M62.95 7.2q-3.6-1.1-5.4.45-5.35.95-6.2 9.45-.65.05-1.35.4-.7 1.7-2.7 1.65 3.65-6-5.6-10.85l1-1Q54.2-3 60.05 2.15q2.25 2.6 2.9 5.05" fill="#281f68"/><path d="m63.05 7.85-.1-.65q-.65-2.45-2.9-5.05Q54.2-3 42.7 7.3l-1 1-.4.55-.35.55q-1.2 2.1-1.3 5.15v1.1q.05 1.9.45 4.2 4.2 2 8.95 1.3L50.4 21l.85-.15q7.1-1.25 9.9-5.6.8-1.25 1.2-2.7.95-1.9.8-3.85l-.1-.85m-23.85 8.3v-.05q0-2.05.3-4.25-1.6 4-.85 8.5l.7 2.9q6.35 1.6 11.25.9l1.05-.2Q58.5 22.6 62.4 16.5q.85-2 .8-4.3-2.75 7.7-12.05 9.3l-5.35.3q-3.15-.2-6.3-1.45-.3-2.05-.3-4.2m-6.5 16-.25-.7 6.2-8.05Q35.9 11.6 44 4.9q16.75-11.5 19.8 4 1.3 8.05-4.5 12.45l-1.1.75-2.5 1.3q-8.25 3-16.45.6l-6.55 8.15" fill="#544361"/><path d="m56.8 10-.25 1.05q4.2-1 4.15 2.25l-.35 1.1q-.9 1.85-3 1.55-.75 3.2-3.25 2.6-1.4-1-2.65-.95l-.8.15q-1.75 2.7-4.15 1.45 4.35-5.5-5.2-10.35l.4-.55q9.25 4.85 5.6 10.85 2 .05 2.7-1.65.7-.35 1.35-.4.95-.1 1.85.4 3.45 1.85 3.55-2.3 2.7 1 3.4-1.7 0-3.05-4.4-1.55.3-3.05 1.8-4.3 1.8-1.55 5.4-.45l.1.65Q58 6.05 56.8 10" fill="#a86631"/><path d="M41.3 8.85q9.55 4.85 5.2 10.35 2.4 1.25 4.15-1.45l.8-.15-.2 3.25-.85.15v-1.5q-2.9 1.9-6.1.65 5.95-4.95-3.35-10.75l.35-.55m-1.65 6.8v-1.1q1.45-2.9 4.1-1.7 2.35 3.8.6 5.45-1.45.95-2.85 0 2.1-.35 1.95-2.4-.05-2.05-3.05-1.75-.45.55-.75 1.5m-1 4.7.55-4.2q0 2.15.3 4.2 3.15 1.25 6.3 1.45l5.25.6.6 1.55-1.05.2-.9-1.25-9.35-1.1-1 1.45-.7-2.9m1.75-6.2q2.8-1.35 3.6 1.4.25 2.25-2 2.85 1.65.15 2.35-1 .85-1.9-.9-3.85-1.85-1.1-3.05.6" fill="#7d2b04"/><path d="m50.4 21-1.35.15q-4.75.7-8.95-1.3-.4-2.3-.45-4.2.3-.95.75-1.5 3-.3 3.05 1.75.15 2.05-1.95 2.4 1.4.95 2.85 0 1.75-1.65-.6-5.45-2.65-1.2-4.1 1.7.1-3.05 1.3-5.15 9.3 5.8 3.35 10.75 3.2 1.25 6.1-.65V21" fill="#d86c00"/><path d="M40.4 14.15q1.2-1.7 3.05-.6 1.75 1.95.9 3.85-.7 1.15-2.35 1 2.25-.6 2-2.85-.8-2.75-3.6-1.4" fill="#f0df79"/><path d="M56.8 10q1.2-3.95 6.25-2.15l.1.85Q60 6.65 56.8 10" fill="#f4e7a0"/><path d="m60.35 14.4.35-1.1q.05-3.25-4.15-2.25L56.8 10q3.2-3.35 6.35-1.3.15 1.95-.8 3.85-.4 1.45-1.2 2.7l-.8-.85" fill="#e9b24f"/><path d="M57.55 7.65q-1.5 1.25-1.8 4.3 4.4-1.5 4.4 1.55-.7 2.7-3.4 1.7-.1 4.15-3.55 2.3-.9-.5-1.85-.4.85-8.5 6.2-9.45m-1.35 7.3q2 .1 2.85-1.65-1.65-1.1-3.8 0V9.6q-2.7 2.55-2.95 6.7 3.7 2.85 3.9-1.35" fill="#1571be"/><path d="M56.2 14.95q-.2 4.2-3.9 1.35.25-4.15 2.95-6.7v3.7q2.15-1.1 3.8 0-.85 1.75-2.85 1.65" fill="#74d8dc"/><path d="M59.3 21.35q-2.35 5.5-9.75 7.1l-2.1 3.65Q43 34.95 38.3 36.75l-.8-.15 2.25-1.15v-.05l7.1-3.75 2.1-3.65q4.1-.55 6.7-2.8l1.2-1.2 1.35-1.9 1.1-.75" fill="#524362"/><path d="M37.5 36.6q-3.55-.75-4.8-4.45L39.25 24q8.2 2.4 16.45-.6l2.5-1.3-1.35 1.9q-6.6 1.7-13.3 2.2l-5.1 6.95 1.3 2.3-2.25 1.15" fill="#214194"/><path d="M51.45 17.6q1.25-.05 2.65.95 2.5.6 3.25-2.6 2.1.3 3-1.55l.8.85q-2.8 4.35-9.9 5.6l.2-3.25" fill="#f4e9a1"/><path d="M50.6 24.15q-4.9.7-11.25-.9l1-1.45 9.35 1.1.9 1.25" fill="#e07e00"/><path d="m45.8 21.8 5.35-.3q9.3-1.6 12.05-9.3.05 2.3-.8 4.3-3.9 6.1-10.75 7.45l-.6-1.55-5.25-.6m-6.05 13.6 7.6-8.7q4.2-.3 8.3-1.5-2.6 2.25-6.7 2.8l-2.1 3.65-7.1 3.75" fill="#fff"/><path d="m39.75 35.45-1.3-2.3 5.1-6.95q6.7-.5 13.3-2.2l-1.2 1.2q-4.1 1.2-8.3 1.5l-7.6 8.7v.05" fill="#1caed5"/><path d="M38.65 20.35q-.75-4.5.85-8.5-.3 2.2-.3 4.25v.05l-.55 4.2" fill="#fb8e00"/><path d="M39.05 40.1h6l-7.6 3.05-4.35-3.25 5.95.2m6.6 0L35.5 35.15l1.65-1.85 8.5 6.8m-4.25-6.25 5.15 2.9 2.2 6.8 1.35 1.7 1 3.2-2.55-.65L42.6 43l4.1-2.95-6.6-5.1 1.3-1.1m11.75 15.2 5.65 1.3 7.8 6.4 4 1.25q.65 4.7-.9 9.5l-.8.35q1.3-3.95.35-7.7l-.4-1.4-9.6-6.8-6.1-2.9M35.8 38.4l1.7 1.15-4.5-.5-4.95-4.1 5.4 3.55 2.35-.1m26.55 32.1 1.55.3-7.95 3.35-.9-1q4-.55 7.3-2.65m-4.15 5.35.85-.45 6.25-3.3.95-1.75.6-1.25 2.1-.65L66 72.6q-3.9 2.9-7.8 3.25" fill="#fff"/><path d="m50.1 45.25 3.05 3.8 6.1 2.9 9.6 6.8.4 1.4q-4.15-1.2-9.1-5.8 2.35 4.8 7.55 7.95l-.05.8q-1.3 1.5-3.2 1.05l-1.5-2.55-8.5-4.85 2.35 6.75-4.1 3.6-1-.25 3.85-3.65-2.1-.85-.7-2.7-4.2-4.35-3.05-5.1h4.7L42.6 43l5.95 4.8 2.55.65-1-3.2" fill="#8af1f1"/><path d="m29.45 22.15-4.3 1.05-8-2.2L19 23.9l1.25 2 .6.95 10.6 4.55.75 3.9 5.3 3.7 1.55 1.1-5.95-.2-7.15-5.85-16.55-1L21.8 45.5l5.85 5.95 5.65-5.15.4-.4q6.7-2.35 11.95-5.8l-8.5-6.8-.75-5.6-5.45-4.8 5.55 4.05.6-1.45-2.65-.85-3.55-2.9-1.45.4m11.95 11.7q2.95.85 5.65 2.55l2.3 6.75 4.35 5.3L59 49.8l7.75 6.3 4.45 1.45q.65 5.4-1.05 10.45l-3.6 4.95q-4.15 3.45-10.1 3.6L58 74.3l-2.1.9-5.4-5.85-4.65.8q-3.6-2.65-5-8.3l6.1 1.75 1.15-1.15-3.6-1.85-.75-6.8-5.55-2.6-1.35-2.4-1.5-.55-1.55-1.45-6.2 5.75L7.85 32.3l4.65.25L0 21.85l17.55 1.1-1.9-3.1 9.15 2.7 6.15-1.65 3.65 3.2 3.35 1-1 2.15.8 5.85 2.35 1.85 6.6 5.1L42.6 43l7.6 7.2h-4.7l3.05 5.1.7 1.15-4.9-2.35.95 5.9q1.9 1.55 4.55 2.5l-2.1 1.55.35.45q1.4 1.65 3.6 2.35l1 .25 4.1-3.6-2.35-6.75 2.05 3.6 1.95 2.4 4 1.6H60.8l-2.2 1.6q-.6 5.15 6.55 4.1 2.2-2.85 2.5-6.95l.05-.8q-5.2-3.15-7.55-7.95 2.95 4.55 8.1 7.45 0 3.7-1.15 6.7l1.8-.65.8-.35q1.55-4.8.9-9.5l-4-1.25-7.8-6.4-5.65-1.3-3.05-3.8-1.35-1.7-2.2-6.8-5.15-2.9M3.35 23.9l6.7 5.7 3.4 3 4.8.25 8.05.4 7.2 4.6h1.45l-3.45-2.3-.85-3.75-10.4-4.35-.45-.7-.7-1.1L18 23.8 1.9 22.65l1.45 1.25m44.25 31-2.85-4.75-1.25-.25-4.35-.75-1.25-.25.75 1.85 6.5 3 2.45 1.15m1.05-5.4-5.15-4.9-1.5-1.4-3 1.35-.7.3-3.75 1.6 1.65 1.6 12.45 1.45M35.8 38.4l-2.35.1-5.4-3.55 4.95 4.1 4.5.5-1.7-1.15m13.25 28.35-.7-.3-1.3-1.9L41.8 63l1.1 2.35.85 1.3q1.05 1.5 2.45 2.65 3.5-.15 5.55-1.55l-1-.4-1.7-.6m9.25-3.15-1.45-1.85.45 2.05 1.2 1.4 1.45-1.05-1.65-.55m-1.75 4.55 1.35-2.4-1.1-1.25-4.75 3.85 4.5-.2m-1.5 5 .9 1 7.95-3.35-1.55-.3-1.95-.3-1.6-.25-.8-3.2-1.2 2.4-5.5-.2 1.6 1.8 2.15 2.4m8.75-1.7-5.05 2.35-1.1 2.1.55-.05q3.9-.35 7.8-3.25l2.95-4.15-2.1.65-.6 1.25-2.45 1.1" fill="#524362"/><path d="m47.6 54.9-2.45-1.15-6-4.6 4.35.75-1.1.7 5.2 4.3m-6.1-8.45 4.4 1.9-6.55-1.85-1.05-1.65.7-.3 2 1.7.5.2m7.55 20.3 1.7.6q-4.1 2.2-7-.7l-.85-1.3q3.6 3.15 6.15 1.4m13.3 3.75q-3.3 2.1-7.3 2.65l-2.15-2.4q3.8 2.5 7.5-.55l1.95.3m-3.3 4.9 4.75-3.95 2.45-1.1-.95 1.75-6.25 3.3" fill="#7d2b04"/><path d="m68.9 67.85-1.8.65q1.15-3 1.15-6.7-5.15-2.9-8.1-7.45 4.95 4.6 9.1 5.8.95 3.75-.35 7.7" fill="#21459a"/><path d="M67.65 63.1q-.3 4.1-2.5 6.95-7.15 1.05-6.55-4.1l2.2-1.6h1.65l-4-1.6-1.95-2.4-2.05-3.6 8.5 4.85 1.5 2.55q1.9.45 3.2-1.05" fill="#1970d3"/><path d="m58.3 63.6 1.65.55-1.45 1.05-1.2-1.4-.45-2.05 1.45 1.85" fill="#c4dded"/><path d="M51.7 66.85q-2.2-.7-3.6-2.35l3.95-1.85-5.6-2.8-2.1-5.75 4.9 2.35-.7-1.15 4.2 4.35.7 2.7 2.1.85-3.85 3.65" fill="#1b64c2"/><path d="m50.75 67.35 1 .4q-2.05 1.4-5.55 1.55-1.4-1.15-2.45-2.65 2.9 2.9 7 .7" fill="#fee84f"/><path d="m52.9 70.75-1.6-1.8 5.5.2 1.2-2.4.8 3.2 1.6.25q-3.7 3.05-7.5.55" fill="#c16d0a"/><path d="M42.9 65.35 41.8 63l5.25 1.55 1.3 1.9.7.3q-2.55 1.75-6.15-1.4" fill="#c47009"/><path d="m48.1 64.5-.35-.45 2.1-1.55q-2.65-.95-4.55-2.5l-.95-5.9 2.1 5.75 5.6 2.8-3.95 1.85" fill="#b1f6a0"/><path d="m56.55 68.15-4.5.2 4.75-3.85 1.1 1.25-1.35 2.4" fill="#c3ddec"/><path d="m59.05 75.4-.85.45-.55.05 1.1-2.1 5.05-2.35-4.75 3.95" fill="#c87911"/><path d="M29 24.85q2.35-1.05.45-2.7l1.45-.4 3.55 2.9 2.65.85-.6 1.45-5.55-4.05 5.45 4.8.75 5.6-1.65 1.85-.75-4.8L30 24.7l-1 .15" fill="#f0e178"/><path d="M37.75 33.1q1.9.2 3.65.75l-1.3 1.1-2.35-1.85" fill="#52cfe3"/><path d="m29 24.85-3.1.4-6.9-3.1v1.75L17.15 21l8 2.2 4.3-1.05q1.9 1.65-.45 2.7" fill="#f6ecaf"/><path d="M19 23.9v-1.75l6.9 3.1 3.1-.4 1-.15 4.75 5.65.75 4.8 10.15 4.95h-6.6L37.5 39l-2.9-3.35-.65-5.05-4.4-4.65h-4l-5.6-2.65.3 2.6-1.25-2" fill="#822e04"/><path d="m20.25 25.9-.3-2.6 5.6 2.65h4l4.4 4.65.65 5.05L37.5 39l-5.3-3.7-.75-3.9-10.6-4.55-.6-.95" fill="#ffa707"/><path d="M10.05 29.6 5.7 24.15h.05l5.2 2.6h-1.2l8.5 6.1-4.8-.25-3.4-3m7.85-4.1 1.2.15.7 1.1h-1.15l-.75-1.25" fill="#c93e3f"/><path d="m18.25 32.85-8.5-6.1h1.2l5.4 2.7 8.75 2.7-5.35-3.65-1.1-1.75h1.15l.45.7 10.4 4.35.85 3.75 3.45 2.3H33.5l-7.2-4.6-8.05-.4" fill="#8a0008"/><path d="m18.65 26.75 1.1 1.75 5.35 3.65-8.75-2.7-5.4-2.7h7.7" fill="#ca6755"/><path d="m5.7 24.15-2.35-.25-1.45-1.25L18 23.8l1.1 1.85-1.2-.15-12.15-1.35H5.7" fill="#8d070c"/><path d="M5.75 24.15 17.9 25.5l.75 1.25h-7.7l-5.2-2.6" fill="#e6846f"/><path d="M45.05 40.1h.6q-5.25 3.45-11.95 5.8l-.4.4-2.6.65-6.9-8.2-7.9-1.65 2.05 4.1-5.8-6.5 12.1 3.2 6.4 5.25h6.8l7.6-3.05" fill="#a24703"/><path d="m17.95 41.2 3.85 4.3L9.4 33.05l16.55 1 7.15 5.85 4.35 3.25h-6.8l-6.4-5.25-12.1-3.2 5.8 6.5" fill="#f0e177"/><path d="m21.8 45.5-3.85-4.3-2.05-4.1 7.9 1.65 6.9 8.2 2.6-.65-5.65 5.15-5.85-5.95" fill="#ffb61a"/><path d="m45.9 48.35 2.75 1.15-12.45-1.45-1.65-1.6 3.75-1.6 1.05 1.65 6.55 1.85" fill="#e48900"/><path d="m45.15 53.75-6.5-3-.75-1.85 1.25.25 6 4.6" fill="#e78c00"/><path d="m43.5 44.6 5.15 4.9-2.75-1.15-4.4-1.9 2-1.85" fill="#f7f0bc"/><path d="m43.5 44.6-2 1.85-.5-.2-2-1.7 3-1.35 1.5 1.4" fill="#e99a3a"/><path d="m43.5 49.9 1.25.25 2.85 4.75-5.2-4.3 1.1-.7" fill="#f7eeb9"/><path d="m3.35 23.9 2.35.25 4.35 5.45-6.7-5.7" fill="#dba776"/></g><g id="D" fill-rule="evenodd"><path d="M28.35 16.7q-5.7.45-13.55-2.3l1.55-1.5q5.5 2.85 12 3.8" fill="#ff756f"/><path d="m14.8 14.4-1.4-.5-1-.4.9 3.1-1.85 1.6q-2.3-4.65-3.4-11.3 3.85 3.65 8.3 6l-1.55 1.5" fill="#ffc192"/><path d="M65.85 31.25 63.5 29.3l-.7-.6-.85 2-2.9 6.7 4.45 9.3 3.35-3.45q-1.1 2.85-3.25 4.6Q60.25 43.3 58 37.4q2.55-4.6 4.4-9.85 2.1 1.5 3.45 3.7m-21.75-14-.9.6-3.85 2.65-2.3.35q-2.9-1.3-6.45-.4-5.55 2.55-6 8.3l-1.25.05-4-3.65q-4.5-5.45-5.95-11.25l1.4.5q7.85 2.75 13.55 2.3l3.1-.5 12.65 1.05m15.75 19.9 1.45.5.3.1 1.95 4.8.45-.85.75 1.95-.4.85-.5-.9-.3 1.95-3.7-8.4M21.15 20.3l2.05 3-6.4-4.95q2.9 5.55 6.9 9.35 1.15-9.45 14.45-9.25L28.5 17.4l-11.45-.65q3.2 2.1 7.35 2.85l-3.25.7" fill="#8a0008"/><path d="m43.2 17.85.9-.6q2.6 2.95 4.8 6.15 2.8 4.1 4.85 8.5-5.4-9-10.55-14.05M31.45 16.2l-3.1.5q-6.5-.95-12-3.8-4.45-2.35-8.3-6 1.1 6.65 3.4 11.3 1.7 3.6 4.1 6l-2.25-7.6-.9-3.1 1 .4q1.45 5.8 5.95 11.25l4 3.65q-3 0-5.9-.95l-1.3-1.55q-2.75-3.35-4.95-7.25-3.15-6.7-4.05-14.35 3.4 3.75 6.9 6.25 7.7 4.85 16.1 5.2l1.3.05m5.6 4.65 2.3-.35q7.7 4.3 7.15 14.5l2.2 1.15 3.95-1.3-.6 1.2q-2.3.5-3.5 3.35-2.7-1-5.25-3.4 1.75-5.1-1.35-10.7-2.15-3.2-4.9-4.45" fill="#c93e3f"/><path d="M49.2 21.5q-2.25-2.95-4.85-5.4l-10-.75q-8.3-.7-15.4-3.6Q10.7 8.4 6.1 1.5q0 7.85 2.3 14.1 3.05 8.45 8.4 13.25 4.75 1.2 9.05 1.15 2.55-12.95 13.7-5.95 5.15 5.15 2.8 11.85 2.85 4.55 7.15 4.9.45-2.6 2.45-3.6l.15.35q-2.15 1.3-1.9 3.8h-1.55l-1.8.65-2.95.5.6.6.4.4v.05q3.55 3.35 8.4 4.6l.6-1.5q.75-1.35 1.95-2.1l.25.4q-1.7.85-2.65 3.5-2.6-.45-4.7-1.55-3.15-1.6-5.25-4.65l4.5-.95-1.05-.35-4.95.55q1.95 4.3 6.9 6.6 2.25 1.05 5.1 1.7.35-3 2.5-4.2l.3.45q-2.2 1.2-2.2 4.3-9.85-1.3-13.5-9.65h5.4q-3.1-2.05-4.9-4.6 2.9-7.05-4.65-10.1-7.55-1.5-8.2 6.4-5.9 3.3-12.05 3Q4.35 30.9 0 18.75l9.55 1.7Q5.8 12.45 5.6 0q10.75 15.6 39 15.55 6.35 6.35 10.55 14.35l-.4.8q-2.4-5.05-5.55-9.2M17 33q5.55-.1 9.55-2.3l-4.4-.2q-2.95-.25-5.35-.9-3.25-2.45-5.6-6.1l-.6-1.05q-3.45.8-6.9-.45Q8.3 28.8 17 33m22.75-7.7q-2.05-1.05-4.8-1.25-6.55 0-8 6.8-4.6 2.5-10.1 2.6l-4.15-2.2Q6 27.05 2.8 21.5l7.5.4-.55-1.1-8.9-1.15q2.65 7.5 9.55 11.8l6.1 3.35q6.2.3 11.65-2.95.75-7.45 7.9-6.75 3.75 1.1 5.95 3.75l-2.25-3.55m-13.2 5.4q2.3-9.5 12.3-6.35-3.4-3.15-7.6-1.9-5.1 2.8-4.7 8.25" fill="#524362"/><path d="M44.1 17.25 31.45 16.2l-1.3-.05q-8.4-.35-16.1-5.2-3.5-2.5-6.9-6.25.9 7.65 4.05 14.35 2.2 3.9 4.95 7.25l1.3 1.55q2.9.95 5.9.95l1.25-.05q.45-5.75 6-8.3 3.55-.9 6.45.4 2.75 1.25 4.9 4.45 3.1 5.6 1.35 10.7 2.55 2.4 5.25 3.4 1.2-2.85 3.5-3.35l-.35.65.25.5q-2 1-2.45 3.6-4.3-.35-7.15-4.9 2.35-6.7-2.8-11.85-11.15-7-13.7 5.95-4.3.05-9.05-1.15-5.35-4.8-8.4-13.25Q6.1 9.35 6.1 1.5q4.6 6.9 12.85 10.25 7.1 2.9 15.4 3.6l10 .75q2.6 2.45 4.85 5.4 2.1 3.55-.3 1.9-2.2-3.2-4.8-6.15" fill="#f0e177"/><path d="m53.9 46.65-.6 1.5q-4.85-1.25-8.4-4.6 4.05 2.7 7.95 3.9l1.1-2.3-3.45-2.9-6 .85-.6-.6 2.95-.5 3.85-.45q.2-.65.95-1.1l3.15 3.7-.9 2.5M22.15 30.5l4.4.2q-4 2.2-9.55 2.3l.5-1.9 4.65-.6M3.7 22q3.45 1.25 6.9.45l.6 1.05-4.15.7L3.7 22" fill="#1571be"/><path d="M44.9 43.55v-.05l-.4-.4 6-.85 3.45 2.9-1.1 2.3q-3.9-1.2-7.95-3.9M17.5 31.1 17 33Q8.3 28.8 3.7 22l3.35 2.2 10.45 6.9" fill="#74d8dc"/><path d="m21.15 20.3 3.25-.7q-4.15-.75-7.35-2.85l11.45.65 9.65 1.05q-13.3-.2-14.45 9.25-4-3.8-6.9-9.35l6.4 4.95-2.05-3" fill="#f48a08"/><path d="m13.3 16.6 2.25 7.6q-2.4-2.4-4.1-6l1.85-1.6" fill="#ff716d"/><path d="M39.75 25.3 42 28.85q-2.2-2.65-5.95-3.75-7.15-.7-7.9 6.75Q22.7 35.1 16.5 34.8l-6.1-3.35q-6.9-4.3-9.55-11.8l8.9 1.15.55 1.1-7.5-.4q3.2 5.55 9.9 9.75l4.15 2.2q5.5-.1 10.1-2.6 1.45-6.8 8-6.8 2.75.2 4.8 1.25" fill="#e19137"/><path d="M55.85 44.55q-1.2.75-1.95 2.1l.9-2.5-3.15-3.7q-.75.45-.95 1.1l-3.85.45 1.8-.65h1.55q-.25-2.5 1.9-3.8 1.8 3.8 3.75 7M22.15 30.5l-4.65.6-10.45-6.9 4.15-.7q2.35 3.65 5.6 6.1 2.4.65 5.35.9m4.4.2q-.4-5.45 4.7-8.25 4.2-1.25 7.6 1.9-10-3.15-12.3 6.35" fill="#281f68"/><path d="m39.35 20.5 3.85-2.65q5.15 5.05 10.55 14.05l.2.4-1.3 2.55-3.95 1.3L46.5 35q.55-10.2-7.15-14.5" fill="#ffc594"/><path d="m61.2 51.15.2.3 2-2.85q-3.4-4.9-5.95-11.25 2.75-4.85 4.7-10.6l1.3 1.1Q61.75 25.1 58.7 24l-4.6 9.05-1.75 3.55q1.15 2.6 2.45 5 2.75 5.05 6.15 9.25l.25.3m6-16.9-1.35-3q-1.35-2.2-3.45-3.7-1.85 5.25-4.4 9.85 2.25 5.9 5.6 10.45 2.15-1.75 3.25-4.6.8-2.1 1.05-4.85l.05-.85-.75-3.3M54.75 30.7l.4-.8 3.45-6.8 4.85 2.9Q74.3 38.8 61.4 52.35q-2.4-2.8-4.6-6.3l-.3-.45-.4-.65-.25-.4q-1.95-3.2-3.75-7l-.15-.35-.25-.5.35-.65.6-1.2 1.3-2.55.8-1.6" fill="#96481c"/><path d="M53.75 31.9q-2.05-4.4-4.85-8.5 2.4 1.65.3-1.9 3.15 4.15 5.55 9.2l-.8 1.6-.2-.4" fill="#dc903c"/><path d="M58.7 24q3.05 1.1 4.75 3.85l-1.3-1.1q-1.95 5.75-4.7 10.6Q60 43.7 63.4 48.6l-2 2.85-.2-.3 1.2-2.55-5.9-11.45 1.7-2.7q1.85-3.3 3.3-7.45l-2.3-1.6-.5-1.4" fill="#e8c160"/><path d="m58.7 24 .5 1.4-5.1 7.65L58.7 24" fill="#ebcb67"/><path d="m63.5 29.3.95 1.75 1.1 2.15-2.35-3.4-.6 4.3-1.3 3.55-1.45-.5 2.1-6.45.85-2 .7.6" fill="#d28e34"/><path d="m63.5 29.3 2.35 1.95 1.35 3-2.75-3.2-.95-1.75m3.35 13.95L63.5 46.7l-4.45-9.3 2.9-6.7-2.1 6.45 3.7 8.4.3-1.95.5.9.4-.85.65-1.5-.05 1.6 2.2-6.65.35 1.3q-.25 2.75-1.05 4.85" fill="#c94442"/><path d="m64.65 34.3-1.25-2.1-.8 1.9.6-4.3 1.45 4.5" fill="#e75118"/><path d="m62.6 34.1.8-1.9 1.25 2.1 1.05 3.25-1.2 1.15-1.8-.6-.1-4" fill="#f38511"/><path d="m64.45 31.05 2.75 3.2.75 3.3-.05.85-.35-1.3-2-3.9-1.1-2.15" fill="#e21e1f"/><path d="m64.65 34.3-1.45-4.5 2.35 3.4 2 3.9-2.2 6.65.05-1.6.25-4.05.05-.55-1.05-3.25" fill="#fff"/><path d="m59.2 25.4 2.3 1.6q-1.45 4.15-3.3 7.45l-2.25 2.15h-3.6l1.75-3.55 5.1-7.65" fill="#f59300"/><path d="m61.6 37.75 1.1.35 1.25 3.1 1.7-3.1-.25 4.05-.65 1.5L64 41.7l-.45.85-1.95-4.8" fill="#c00004"/><path d="m62.7 38.1 1.8.6 1.2-1.15-.05.55-1.7 3.1-1.25-3.1" fill="#de0003"/><path d="m62.6 34.1.1 4-1.1-.35-.3-.1 1.3-3.55" fill="#e7b625"/><path d="m58.2 34.45-1.7 2.7 5.9 11.45-1.2 2.55-.25-.3-.4-4.5-4.6-7.8H54.2l.6 3.05q-1.3-2.4-2.45-5h3.6l2.25-2.15" fill="#7d2b04"/><path d="M60.95 50.85q-3.4-4.2-6.15-9.25l-.6-3.05h1.75l4.6 7.8.4 4.5" fill="#d27600"/><path d="M56.5 45.6q-2.15 1.2-2.5 4.2-2.85-.65-5.1-1.7 1.65-.1-.15-1.2 2.1 1.1 4.7 1.55.95-2.65 2.65-3.5l.4.65" fill="#dd9741"/><path d="M48.9 48.1q-4.95-2.3-6.9-6.6l4.95-.55 1.05.35-4.5.95q2.1 3.05 5.25 4.65 1.8 1.1.15 1.2" fill="#f0de77"/></g><use ffdec:characterId="2" height="159.25" width="66.2" xlink:href="#s" id="n"/><use ffdec:characterId="4" height="166.75" width="57.75" xlink:href="#t" id="o"/><use ffdec:characterId="7" height="47.85" width="45.55" xlink:href="#u" id="d"/><use ffdec:characterId="9" height="76.6" width="57.7" xlink:href="#v" id="e"/><use ffdec:characterId="11" height="83.45" width="107.8" xlink:href="#w" id="f"/><use ffdec:characterId="13" height="190.45" width="123.25" xlink:href="#x" id="q"/><use ffdec:characterId="15" height="178.8" width="136.15" xlink:href="#y" id="r"/><use ffdec:characterId="18" height="27.75" width="57.35" xlink:href="#z" id="h"/><use ffdec:characterId="20" height="94.25" width="50.85" xlink:href="#A" id="i"/><use ffdec:characterId="22" height="63.7" width="44.05" xlink:href="#B" id="j"/><use ffdec:characterId="26" height="76.55" width="71.4" xlink:href="#C" id="k"/><use ffdec:characterId="28" height="52.35" width="68.4" xlink:href="#D" id="l"/><path d="M27.75 0q0 2-8.15 3.4Q11.5 4.9 0 4.9q-11.5 0-19.65-1.5-8.1-1.4-8.1-3.4 0-2.05 8.1-3.5Q-11.5-4.9 0-4.9q11.5 0 19.6 1.4 8.15 1.45 8.15 3.5" fill-opacity=".349" fill-rule="evenodd" transform="translate(27.75 4.9)" id="b"/><path d="M23.05 0q3.1 12.85 3.5 25.95l7.2-8.3Q45.15 51 27.55 84.1l12.3 1Q37.4 109.4 20 126.9q8.75 15.9 10.75 32.35l-22.3-1.5q-14.45-4.9-27.05-18.5-2-2.15-4.5-7.35l-3.25-6.75 1.3-10.55Q-8.7 25.55.55 19.75 8.85 7.2 23.05 0" fill="#fff" fill-rule="evenodd" transform="translate(26.35)" id="s"/><path d="M99.6 58.3q8.25 12.1 23.65 69.1-20.35 52.55-39.05 63.05l-4.05-21.25-26.05 12.4q-2.55-28.85 5.25-51.3Q20.55 119.4 10 93.05l40.5-9.25Q2.55 58.4 0 0l105.55 58.35-5.95-.05m-6.65 97.1q-2.9 9.65.85 12.6l-.85-12.6" fill="#fff" fill-rule="evenodd" id="x"/></defs></svg>