<svg xmlns:ffdec="https://www.free-decompiler.com/flash" xmlns:xlink="http://www.w3.org/1999/xlink" ffdec:objectType="frame" height="90" width="90" xmlns="http://www.w3.org/2000/svg"><use ffdec:characterId="43" height="368.25" transform="matrix(.2817 0 0 .2815 -8.762 -14.962)" width="427.75" xlink:href="#a"/><defs><g id="a" transform="translate(31.1 53.15)"><use ffdec:characterId="1" height="6.95" transform="matrix(4.2449 0 0 7.9975 14.253 258.606)" width="56.3" xlink:href="#b"/><use ffdec:characterId="8" height="435.7" transform="matrix(.7012 -.0391 .0892 .654 -31.048 -35.721)" width="404.35" xlink:href="#c"/><use ffdec:characterId="10" height="163.35" transform="translate(141.75 194.022) scale(.4363)" width="101.8" xlink:href="#d"/><use ffdec:characterId="12" height="189.2" transform="translate(21.7 200.7) scale(.4363)" width="151" xlink:href="#e"/><use ffdec:characterId="14" height="197.85" transform="translate(190.4 195.5) scale(.4363)" width="125.35" xlink:href="#f"/><use ffdec:characterId="21" height="355.55" transform="translate(145.297 5.119) scale(.6283)" width="375.8" xlink:href="#g"/><use ffdec:characterId="23" height="208.05" transform="translate(51.05 141.82) scale(.4363)" width="346.65" xlink:href="#h"/><use ffdec:characterId="25" height="165" transform="translate(162.3 160.8) scale(.4363)" width="138" xlink:href="#i"/><use ffdec:characterId="27" height="183.85" transform="translate(87.95 234.85) scale(.4363)" width="143.2" xlink:href="#j"/><use ffdec:characterId="29" height="163" transform="translate(99.1 190.5) scale(.4363)" width="168" xlink:href="#k"/><use ffdec:characterId="36" height="435.7" transform="matrix(.8016 -.0446 .0815 .7494 36.98 -35.094)" width="404.35" xlink:href="#l"/><use ffdec:characterId="42" height="428.5" transform="translate(36.55 36.8) scale(.4363)" width="365.1" xlink:href="#m"/></g><g id="n" fill-rule="evenodd"><path d="M495.8-100.45q49.8 24 22.15 62.75-.55.9-1.7 1.45 4.3-33.55-21.4-62.25l.95-1.95" fill="#87e5ff" transform="translate(-189.2 106.15)"/><path d="m468.25-97.1-.1-1.7q8.2-5.9 17.45-6.75 67.45-6.5 41.2 55.45-1.95.35-2.15-.85-6.2-41.55-56.4-46.15" fill="#4ba9e7" transform="translate(-189.2 106.15)"/><path d="M379.05-92.1q.9-.2 2.8.75 2.3 1.2 6.95 9.3 5.2 9.1 4.9 14.45l-4.35 1.85-1.2.2q-2.95-1.5-7.55-10.45-5.25-10.4-2.65-16.05l1.1-.05" fill="#87e5ff" transform="translate(-189.2 106.15)"/><path d="M383.45-88.9q-.05.7-2.65 5.75-1.4 2.75 6 8.6 4.3 3.5 9.55 6.45l.25 1.05q.35 1-.45 2.6-.8 1.55-1.4 1.75-.75.1-1.5.6l-5.4-2.75q-2.4-2.2-6.8-8.1-4.85-6.55-7.8-11.9-8-15 6.15-7.75 4.05 2.1 4.05 3.7" fill="#4ba9e7" transform="translate(-189.2 106.15)"/><path d="M329 101.6q0 1.15-2.4 4.9-2.3 3.65-3.35 4.3l-2.85-2.4q-.6-.55-.6-1.75 0-1.55 1.7-4.05 2.45-3.65 6.65-4l.45.75q.4.6.4 2.25" fill="#87e5ff" transform="translate(-189.2 106.15)"/><path d="m463.05 139-5.05-.75-.35-.65q-.4-.45-.4-2.6 0-.4 6.05-7.1 7.1-7.85 13.35-13.55 19.4-17.7 19.4-4.7 0 5.6-13.9 17.6Q468.5 139 463.05 139" fill="#d9ffff" transform="translate(-189.2 106.15)"/><path d="m499.2 90.8-15.55 20.15Q472.9 124.8 463.4 132.3l-2.25-2.25q-.5-.55-.45-1.35.1-1.05 11.45-13.95 12.95-14.7 17.15-21.45l5.5-9.85q4.5-8.2 7.25-12.35 8.9-13.2 7.7 3.4-11.55 44.65-19.75 44.05l-2.95-.8-.15-.4q-.25-.4-.15-1.85l5.1-9.9q5.6-10.6 7.35-14.8" fill="#87e5ff" transform="translate(-189.2 106.15)"/><path d="M497.4 101.75q.3.65.2 2.1-.05.55-5 3.3-6.6 3.7-8.6 5-2.15-.8-2.7-2.1-.15-.55 0-2.2.2-3.5 2.7-5.9 4.25-4.1 13.15-1.05l.25.85" fill="#87e5ff" transform="translate(-189.2 106.15)"/><path d="M502.25 91.2q.3.5.2 1.9-.1 1.5-4.15 6.85-4.1 5.5-5.9 5.95l-2.25-2.1q-.55-.5-.55-.75.15-2 3.7-6.65 4.3-5.8 8.6-5.9l.35.7" fill="#87e5ff" transform="translate(-189.2 106.15)"/><path d="M411.85 38.4q2.8-2.3 4.5-.45 1.95 2.1 1.95 9.4 0 23.9-16.95 51.85l-11.65 17.4q-5.3 7.65-5.3 9.4 0 6.55 1.9 14.4l3.8 13.55q4.7 17.45 1.55 33.4 13.2-22.3 21.3-54.45 4.1-16.4 4.6-17.7 2.1-6.7 4.55-6.7 5.7 0 6.75 5.25.6 2.7-.05 5.7 0 2.15-3.5 16.7-4.4 18.15-9.7 33.75-16.45 48.3-33.2 48.3-5.4 0-7.25-3.2-.8-1.4-.8-3.6l2.65-15.95q2.7-16.45 2.7-20.1 0-12.2-5.3-29.7l-3.6-12.3q-1.65-6.3-1.65-10.45 0-1.65 12.85-15.25 13.85-16.45 17.7-31.05 0-9.85 3.3-22.7 1.2-4.5 3.75-8.95 2.55-4.55 5.1-6.55" fill="#c1edf3" transform="translate(-189.2 106.15)"/><path d="M368.1 236.9q-5.4 6.5-15.8 11.85-26.35 13.45-75.75 15.65-.5 1.2-2.75 10.95-1.8 7.8-5.2 12.55-10.55 14.6-44.95 14.6-16.15 0-23.35-11.4-2.3-3.6-3.4-7.95-.65-2.6-.65-3.85 0-3.35 1.85-5.75 2.05-2.6 5.4-2.6 2.75 0 4.9 2.65 1 1.2 3.6 5.8 4.7 8.4 10.9 8.4 5.85 0 16.85-3.7 12.1-4.05 14-7.9l.7-.9-5.25.65-6.35.6q-8.9 0-11.4-4.15-.75-1.3-.85-2.95l.1-1.6q0-4.95 3.3-5.95l10.1-.4q5.45 0 13.15-4.6 4.8-2.85 14.05-10.05 9.65-7.5 13.8-10.1 7.35-4.6 12.3-4.6 8.1 0 9.55 4.8.75 2.45-.1 5.7v.75q31.4-1.7 38.3-5.35 2.85-1.55 4.75-4.8l4.25-7.05q7-9.6 13.2-8.1 2.45.55 4 2.9 1.45 2.2 1.45 5 0 5.25-4.7 10.9" fill="#d9ffff" transform="translate(-189.2 106.15)"/><path d="M373.8 119.35q2.75 4.75 3.9 9.7 1.5 5.75 2.65 14.95 1 7.95 1 11.3 0 6.35-2.9 25.15l-2.9 19.25q0 1.05 3.65 4.35 3.6 3.3 3.6 4.75 0 2.95-2.75 8.1-3.2 6.05-8.35 11.2-14.05 14.2-34.05 14.2-6.7 0-8.75-3.95-.65-1.3-.75-2.85l.05-1.55q0-3.5 2.7-4.8l6.65-1.5q11.45-2.05 16.95-12 1.45-2.7 3.7-10.05l3-10.25q2.05-6.15 3.95-19.3 1.85-13 1.85-20.55 0-5.95-2.9-17.7t-2.9-17.3q0-6.75 2.15-8.65 1.85-1.65 4.95.7 2.85 2.15 5.5 6.8" fill="#d9ffff" transform="translate(-189.2 106.15)"/><path d="M448.5 162.5q-6.5 86.05-98.05 79.75-7.1-.3-13.85-2.25 90.4-22.2 108.1-73.8l3.8-3.7" fill="#d9ffff" transform="translate(-189.2 106.15)"/><path d="M371.35 235.65q-5.25 3.6-7.25 7.7-.8 4.95-3.15 7.65-4.25 4.85-18.4 6.7l-19.15 1-19.1 1q-20.9 2.7-27.25 7.35l-3.15 3q-1.4 1.4-3.7 1.7l-4.35-.05-.35-.95q-.35-.75-.35-2.5 0-3.85 7.55-7.8 10.45-5.5 31.8-8.25l18.55-.95 18.6-.95q2.95-.35 7.85-1.65 5.2-1.4 5.75-2.15-.5-.7-4.7-1.35-3.65-.55-3.65-2.8 0-1.7 3.15-3.2 1.7-.85 6.9-2.5 10.05-3.2 10.05-6.3 0-4.55-4.7-6.85-7.2-3.45-22.5 2l-3.6-2.1-.75-.45q0-4.8 6.25-6.7 5.7-1.7 13.8-.35 8.15 1.3 13.8 4.85 6.25 3.95 6.25 9.05 0 2.95-4.2 5.85" fill="#87e5ff" transform="translate(-189.2 106.15)"/><path d="M378.45 225.35q0-3.15-6.15-5.05-6.9-2.1-17.05-.8-16.35 2.1-19.5 6.25l-1.4 2.75q-.8 1.3-3.25 1.6-3.65.5-4.35-1.5v-2.45q0-3.4 3.85-6.15 5.25-3.75 17.75-6.65 25.85-2.55 33.95 1.1 3.25 1.5 4.25 4.15.6 1.65.6 5.2 0 13.75-10.15 24.9-9.45 10.45-20.85 11.95-18.35 2.35-36.3 2.2-18.1-.7-26.8-.5l-.25-.55q-.3-.3-.3-2.05 0-2.25 2-3.55 2.75-1.85 10-2.8 4.3-.55 23.95.05 19.65.6 27.5-.45 7.6-.95 10.2-2.65 1.4-.9 2.3-2.3l-4.95-1q-3.75-1-3.75-2.85 0-1.1 2.9-3.15l6.45-4.25q9.35-6.3 9.35-11.45" fill="#87e5ff" transform="translate(-189.2 106.15)"/><path d="M381.4 234.7q-.7 2.95-5.15 3.55l-4.35-.05q-.3-1.35.25-4.35l.65-4.85q0-4.6-7.25-8.1l-5-2.55q-2.25-1.45-2.25-3.05 0-3.7 3.6-4.05 3.3-.35 7.95 2.05 4.7 2.5 7.9 6.45 3.6 4.35 3.6 8.75l.05 6.2" fill="#87e5ff" transform="translate(-189.2 106.15)"/><path d="M381.45 233.65q-.8 1.3-3 2.85-2.15 1.6-3 2.95-1.35 2.2-1.35 6.1 0 2.8-5.6 6.75-5.7 4-10.9 4.65l-7.1.25-.35-.45q-.35-.3-.35-2.05 0-1.55.6-2.15.5-.6 2.2-1.2 6.6-2.45 11.5-5.4l-3.45-2.15q-.9-.7-.9-1.65 0-2.2 2.05-3.9l4.5-2.8q6.5-4.05 6.5-10.7 0-2.15 1.55-3 1.45-.8 3.45-.25 5 1.3 5 6.1 0 3.8-1.35 6.05" fill="#87e5ff" transform="translate(-189.2 106.15)"/><path d="m353.5 252.7-.8-.7q0-2.45 4.8-5.9 5.7-4.1 12.75-4.2 0 .25.55.75.55.55.55 2.25 0 2.2-5.75 5.1-8.15 4.2-8.75 4.7l-3.35-2m16.45-20.25-7.55 2.25q-11.05-15.55-37.7 2.05-2.75 1.75-6.05.85 19.65-34.7 50.55-10.45 2.35 1.8.75 5.3m-105.4 61.45q-.65-.65-.65-2.1 0-3.8 10.75-14 10.8-10.35 15.35-10.5l.55.95q.5.75.5 2.9-12.15 21.35-23 25.55l-3.5-2.8m35.95-62.95q.55.7.55 2.85 0 2.3-4.8 7.05-4.7 4.7-11.7 9.6-17.3 12-27.9 12-8.7 0-10.9-1.8-.55-.45-.55-2.2 0-2.4 1.85-2.7 1.3-.2 5.9-.1 12-.55 25.6-11.35 2.3-1.7 8-8.95 6.15-6.2 13.4-5.2l.55.8m-101 44.8-.85 6.45q0 7.4 18.1 8.15l.55.85q.55.65.55 2.75 0 2.7-1.8 3.55l-6 .65q-11.95 0-17.55-7.7-1.8-2.45-2.7-5.4-.6-1.85-.6-2.7.25-3.3 1.65-6.65 2.8-6.7 8.7-6.95.6 2.55-.05 7m229.15-23.3q0 3.1-5.6 7.25-5.4 4-8.75 4l-5.05-.75-.35-.55q-.4-.4-.4-2.5 0-3.25 5.5-6.15 4.3-2.3 13.55-5.1 0 .25.55.95.55.75.55 2.85m-13.6-182.6-5.5-8.6q-2.5-4-2.5-5.1 0-6.55 3.85-5.35 3.45 1.1 8.4 7.85 5 6.8 8.4 15.25 3.85 9.5 3.85 17.05 0 9.5-8.95 31.05-4.8 11.5-12.65 28.05-1.8 4.1-11.7 32.65-8.2 23.7-9.65 23.7-3.65 0-4.35-2.6v-3q0-10.55 6.05-27.75 4.25-11.95 13.35-31.9l13.3-29.65Q423 96.9 423 90.6q0-7.7-7.95-20.75" fill="#87e5ff" transform="translate(-189.2 106.15)"/><path d="M415.75 58q0 1.8 1.45 8.25 1.45 6.4 1.45 8.2 0 4.05-3.3 14.75l-3.95 11.75q3.05 1.95 4.6 3.5 1.2 1.2 1.2 1.75-16.85 94.4-27.15 94.4-3.55 0-4.3-3.4l-.05-3.85q0-7.1 2.2-14.05 2.15-6.95 2.15-20.2 0-10.05-6.5-25.3-6.55-13.35-6.55-14 0-1.4 5.15-5.15l11.35-8.7q16.45-14.45 16.45-31.85 0-1.8-1.45-8.6t-1.45-8.6q0-4.15.6-5.6 1.85-4.4 8.5-2 .4 1.2.05 3.8l-.45 4.9m-18.65 78.7q3 8.9 1.45 16.25h.35l3.75-22.7q2.2-13.95 3.85-20.25-4.45 3.9-17.75 11.8 5.6 6.5 8.35 14.9" fill="#87e5ff" transform="translate(-189.2 106.15)"/><path d="M387.15 114.9q0-3.4 2-4.25 1.75-.75 4.35.65 2.55 1.3 4.4 3.85 2.05 2.75 2.1 5.55 0 3.6.75 10.7l.7 8.5q0 8.9-4.35 11.95-6.85-6.25-8.9-18.15-1.05-5.9-1.05-18.8" fill="#87e5ff" transform="translate(-189.2 106.15)"/><path d="M394.2 128q-5.6-7.35-5.6-8.75 0-11.75 9.95-.85 3.2 3.5 6.85 8.7 3.1 4.45 3.1 4.85 0 4.15-4.9 4.15-3.25 0-9.4-8.1" fill="#87e5ff" transform="translate(-189.2 106.15)"/><path d="M422.1 89.95q-2.5 8.1-5.55 15.75-8.8 21.9-15.1 21.9-3.5 0-4.25-2.6l-.1-3.05q0-7.35 7.1-15.8l5.6-7.15q2.95-4.4 4.15-9.1 3.2-12.9 6.55-17.25 3.8-5 3.8 8.7 0 1.45-2.2 8.6" fill="#87e5ff" transform="translate(-189.2 106.15)"/><path d="M421.1 74.65q.85 4.6.45 11.25 0 8.7-.35 13.95l-.9.9q-.9.9-3.1.9t-2.85-.5l-1.5-1.3V73q6.5-7.5 8.25 1.65" fill="#87e5ff" transform="translate(-189.2 106.15)"/><path d="M423.05 86.7q2.7-.55 2.7 6.8 0 2-5.2 11.45-5.4 9.75-7.7 11.05l-4.35-3.85q0-2.05 2.7-8.15 2.75-6.3 5.95-11.15 3.65-5.7 5.9-6.15" fill="#87e5ff" transform="translate(-189.2 106.15)"/><path d="M418.15 91.9q.5.75.5 2.85 0 3.2-9.95 12.15-9.35 8.4-15.95 12l-3.35-3.05-.8-.95q0-6.05.7-8.65.85-3.25 3.55-5.35 3.5-2.75 24.75-9.95 0 .25.55.95" fill="#87e5ff" transform="translate(-189.2 106.15)"/><path d="M512.75-19.8q.55.65.55 2.8 0 2.25-7.5 15.1-8.6 14.7-9.4 16.55-.9 2.2-1.75 7.8l-1.6 9.85q-2.35 12.1-7.7 12.1-5.45 0-6.5-5.05-.35-1.6-.2-3.6l.2-1.9q0-16.45 6.95-27.25 5.95-9.3 26.4-27.25 0 .25.55.85m-97.5 61.25q3.5 1.65 8.4 9.2 5.05 7.85 8.4 17.3 3.85 10.75 3.85 19.4 0 5.5-1.45 15.1-1.9 12.25-4.35 12.25-5.75 0-4.5-14.25L426.9 89q.75-6.25.3-8.55-3.4-17.1-10-26.5-5.8-6.1-5.8-7.75 0-6.55 3.85-4.75m11.2 215.2-5.6-.75-.35-1.2q-.4-1-.4-3.15 0-5.05 3.85-4.5 3.75.55 9.05 5.95-1.8 3.65-6.55 3.65" fill="#4ba9e7" transform="translate(-189.2 106.15)"/><path d="M415.4 41.7q.55.75.55 2.85 0 2.5-2.15 3.35-2.75.65-4 1.55 1.05.4 2.9 3.45 1.8 2.95 1.8 4l1.6-1.7q1.15-.85 3.45-.85 8.95 0 13.65 29.95 2.3 14.95 2.85 30.05 0 13.15-3.4 27.65-4.45 18.95-12.35 24.35l-3.55-3q-.8-.85-.8-2.05 2.85-7.6 5.7-16.3 5.7-17.4 5.7-31.2 0-6.9-2.9-21.95-2.4-12.4-4.5-19.9-6.4 13.4-11.4 22.05-9.5 16.35-15.6 16.35-3.65 0-4.35-2.6v-3q0-2.75 4.3-12.25 4.35-9.7 4.4-10.8.45-3.8 4.2-11.9 3.55-7.6 3.55-10.75 0-.85-2.4-5.35-2.45-4.5-2.45-4.95 0-3.85 1.55-5.35 3.1-3 13.1-2.65 0 .25.55.95m-3.45 25.35q-1.35 1.35-2.3 3.4-.95 2.05-.95 3.65l2.05-3.65 1.2-3.4" fill="#4ba9e7" transform="translate(-189.2 106.15)"/><path d="M418.6 48.7q1.7 2.5 1.7 4.4 0 3.65-5.35 12.5-5.05 8.3-7.7 10.3L403.9 73l-.8-1.05q0-1.15 3.15-9t3.15-10.25q0-10.35 5.45-7.55 2.05 1.05 3.75 3.55" fill="#4ba9e7" transform="translate(-189.2 106.15)"/><path d="M412.35 78.15q-3.5 5.6-6.35 7.9l-3.6-3.1q-.75-.8-.75-1.95 0-1.05 2.25-5.1 2.35-4.3 4.9-7.5 7.15-9.05 7.15 1 0 2.85-3.6 8.75M351.9 195.9l11.05 1.45 6.15 1.45-.45 1.45q12.9 3.15 18 11.5 3.4 5.7 3.4 14.8 0 11.1-4.8 20.45-7.95 15.45-26.05 15.45l-5.6-.75-.35-.7q-.4-.45-.4-2.55 0-1.15 4.5-3.75l9.85-5.8q14.3-9.55 14.3-21.65 0-7.45-3.25-11.75-5.2-6.9-18.5-6.9-10.1 0-16.35 4.7l-4.05 3.25q-2.15 1.45-4.4 1.45l-4.35-.9-.35-.5q-.4-.4-.4-2.55 0-1.6 4.75-5.95 4.85-4.45 11.15-8.55 3.25-2.1 6.15-3.65" fill="#4ba9e7" transform="translate(-189.2 106.15)"/><path d="m381.5 212.6-1.45 4.9q-25.35-6.25-47.1 6.25-13.8-1.1 0-13.1 9.75-7.15 21.75-11.1l6.15-.15 1.25 5.2q7.6-.35 14.4 2.95l4.25 2.3.75 2.75" fill="#4ba9e7" transform="translate(-189.2 106.15)"/><path d="m353.7 170.85.4 3.5q-2.2 2.4-5.4 3.2-11.7 3.15-15.95 13.3l4.1 6.55 16.35-1.05.7-2.7 3.15-1.55 4.3 4.6q-1.2 8.35-10.7 9.85-10.95 1.7-19.95-4.3-4.35-2.95-5.2-8.15-2.8-17.15 14.05-23.3 7.55-2.8 14.15.05" fill="#4ba9e7" transform="translate(-189.2 106.15)"/><path d="M349.45 170.85q.5.65.5 2.75 0 1.55-6.5 8.05-6.55 6.55-6.55 10.25 0 2 .55 2.5.5.45 2.75.5 9.3.25 18.65 2.3l.55.95q.55.7.55 2.85 0 2.25-2.5 3.6-3.4 1.8-11.1 1.8-12.05 0-16.1-6.3-1.85-2.8-1.85-7.65 0-7.45 3.75-13 5.2-7.8 16.75-9.65 0 .35.55 1.05" fill="#4ba9e7" transform="translate(-189.2 106.15)"/></g><g id="o" fill-rule="evenodd"><path d="m90.85 20.35-.55 2.5q-6.6 31.35.55 57.5l1.65 25.5q-13.45-4.3-23.5 0l-1.9-1.9q15.4-11.9 16.4-25.6-10.2-26.5 3.75-62.6l3.6 4.6" fill="#bf809b" transform="translate(0 -.05)"/><path d="m92.5 105.85-1.65-25.5q-7.15-26.15-.55-57.5l.55-2.5 2.1 3Q86 61.75 97 82.35q-1 13.35-3.75 23.75l-.75-.25" fill="#40ead0" transform="translate(0 -.05)"/><path d="M93.25 106.1Q96 95.7 97 82.35q-11-20.6-4.05-59-2.7 26.3 8 54.5 5.75 42.5-26.85 68.55L64 148.85q-25.6 23.9-40.5 8.5-.8-3.65-1.2-7.4-12.9 13.1-22.3-12.1l21.5-107q2.9-4.45 5.8-8.25L14.6 96.45q11.95.2 18.9 6.4 19.25-12.35 33.6 1.1l1.9 1.9-4 34.4q20.7-5.5 28.25-34.15M61.5 146.35l4-36q-8.3-15.45-29-4.5-12 27.95-9 46.5 14.15 13.05 34-6M22.05 146q-.7-18.85 9.7-39.75-6.55-8.5-20.25-4.4L5 137.35q5.6 13.95 17.05 8.65" fill="#712131" transform="translate(0 -.05)"/><path d="M87.25 15.75q-13.95 36.1-3.75 62.6-1 13.7-16.4 25.6-14.35-13.45-33.6-1.1-6.95-6.2-18.9-6.4L27.3 22.6q31.15-41.4 59.95-6.85" fill="#837f9a" transform="translate(0 -.05)"/><path d="m92.5 105.85.75.25Q85.7 134.75 65 140.25l4-34.4q10.05-4.3 23.5 0m-31 40.5q-19.85 19.05-34 6-3-18.55 9-46.5 20.7-10.95 29 4.5l-4 36M22.05 146Q10.6 151.3 5 137.35l6.5-35.5q13.7-4.1 20.25 4.4-10.4 20.9-9.7 39.75" fill="#521611" transform="translate(0 -.05)"/></g><g id="p" fill-rule="evenodd"><path d="M111.45.75q-17.5 42.55-3 45.45 23.05 21.95 18.5 31.5-28.7-12.55-8 19-.6 4.9-1.6 9.35-8.05-3.1-14.4-10.35l7.35 18.6q-9.05 17.25-21.35 3.9-8.05-3.55-11.5-11.75-5.8-.45 1 12.75 9.1 15.35-3.75 17l-5.1 5.85q-2.7-21-21.1-24.85-2.5-.45-5.45-.05l-3.55-2.45-5.3.75q.1-5.1-2.65-8.7l16.2-.55 13.45 9.75L58.3 104q7.45-2.15 14.65-5.8l8 2.5L82 96.9h6.85l7.1 2.3q-5.45-5.25-13-5.8l1-3.7 4.5-3q12-4.45 21.25 2.25-6.65-8.4-20.3-4.3 16.65-37.3-3.95-69.95 14.75-11.4 26-13.95M133 123.65l1.8-5.85 1.3-5.45q1.85 7.3 4.85 13.85l.85 3.4-8.8-5.95M64.5 155.7q-3.8 11.45 6.95 10l14.75-18.75q-5.05 16.8-14.75 20.1-6.25 2.15-14.5-1.4 4-4.7 7.55-9.95" fill="#dba784"/><path d="M117.35 106.05q1-4.45 1.6-9.35-20.7-31.55 8-19 4.55-9.55-18.5-31.5-14.5-2.9 3-45.45 29.4-6.65 35 47.45-3.3.45-5.4 3.65-10.55 11.8-1.9 41.05-.3 5.1-2.2 7.3l-3.5-23.5q-4.05 21.4 1.35 41.1l-1.8 5.85q-3.5 10.2-8.7 16.05-18-3.85-38.8 17l1.7-11.6q23.4-8.4 30.15-39.05" fill="#837f9a"/><path d="M85.45 14.7q20.6 32.65 3.95 69.95l-.95 2.05-4.5 3-1 3.7q-2.3-.2-4.75.05l10.65 3.45H82l-1.05 3.8-8-2.5q-7.2 3.65-14.65 5.8l2.9 11.95-13.45-9.75-16.2.55L29 104.2l20.95-4q18.7-.25 35.5-15.5 14.05-43.8 0-70" fill="#f2d4a2"/><path d="m87.2 145.1-1.7 11.6q20.8-20.85 38.8-17 1.95.4 3.95 1.15 6.7 2.5 13.05 8.6l2.2 2.25q2.3-5.55-1.7-22.1l-.85-3.4q-3-6.55-4.85-13.85-4.1-16-2.65-35.65l3.5 23.5q1.9-2.2 2.2-7.3.4-6.95-2.2-19.2 0-15.85 4.1-21.85 2.1-3.2 5.4-3.65-6.65 15.8 0 33.5 2.75 14-4.5 24-.45 12.7 8.5 31 3.4 25.85-14 23-12.5-27.55-42.5-2.5-17.25 22.4-40.8 12.7-11.25 11.75-25.65 19.3l-7-2.5q-.95-4.5-1.5-9-6.85 5.5-15.5 0-.3-6.2-.1-12.1L0 162.2q.65-45.8 23.5-61 31.6-2.25 54.45-18.5 12.95-29.4 7.5-68 14.05 26.2 0 70-16.8 15.25-35.5 15.5l-20.95 4 2.55 2.55q2.75 3.6 2.65 8.7l5.3-.75 3.55 2.45q2.95-.4 5.45.05 18.4 3.85 21.1 24.85l.4 4.65-5.5 9q-3.55 5.25-7.55 9.95 8.25 3.55 14.5 1.4 9.7-3.3 14.75-20.1l1.8-7.25-.8 5.4m2.2-60.45q13.65-4.1 20.3 4.3-9.25-6.7-21.25-2.25l.95-2.05m-6.45 8.75q7.55.55 13 5.8l-7.1-2.3-10.65-3.45q2.45-.25 4.75-.05M51.5 164.7q7.2-7.95 16-19-1.8-8.05-4.6-13.55-3.75-7.35-9.15-10.2-10.7-5.6-27.95 6.05-7.55 35.2-3.3 56.2l2.45.55q8.25-.1 26.3-19.8l.25-.25M30.25 116q-.8-9.6-7.25-9.8l-9 12 16.25-2.2m-23.8 44.85v.4q-.2 7.15 1.05 13.45 5.6 4.2 11.2.4-2.7-24.7 5.3-49.4 7.3-4.9 13.25-7l-15.75 3.2-6.5 1.3q-8.05 21.2-8.55 37.65" fill="#712131"/><path d="M134.8 117.8q-5.4-19.7-1.35-41.1-1.45 19.65 2.65 35.65l-1.3 5.45m4.35-24.9q-8.65-29.25 1.9-41.05-4.1 6-4.1 21.85 2.6 12.25 2.2 19.2" fill="#45e2cc"/><path d="M117.35 106.05Q110.6 136.7 87.2 145.1l.8-5.4-1.8 7.25-14.75 18.75q-10.75 1.45-6.95-10l5.5-9-.4-4.65 5.1-5.85q12.85-1.65 3.75-17-6.8-13.2-1-12.75 3.45 8.2 11.5 11.75 12.3 13.35 21.35-3.9l-7.35-18.6q6.35 7.25 14.4 10.35" fill="#bf809b"/><path d="M124.3 139.7q5.2-5.85 8.7-16.05l8.8 5.95q4 16.55 1.7 22.1l-2.2-2.25-2.3-12.3q-7.1-11.25-10.75 3.7-2-.75-3.95-1.15m-61.4-7.55q2.8 5.5 4.6 13.55-8.8 11.05-16 19 12.15-15.5 11.4-32.55m-37.95 52.6-2.45-.55q-4.25-21 3.3-56.2 17.25-11.65 27.95-6.05-12.6-2.25-19.5 15.2l-.6-1.5q-1.05-2.2-2.55-2.2-1.5 0-2.6 2.2-1.05 2.2-1.05 5.3 0 3.1 1.05 5.3 1.1 2.2 2.6 2.2l.1.05-6.25 36.25m5.3-68.75L14 118.2l9-12q6.45.2 7.25 9.8m-23.8 44.85q.5-16.45 8.55-37.65l6.5-1.3q-10.6 13.8-15.05 38.95" fill="#853a23"/><path d="m51.5 164.7-.25.25q-18.05 19.7-26.3 19.8l6.25-36.25v-.05q1.45-.05 2.45-2.2 1.1-2.2 1.1-5.3 0-2.15-.5-3.8 6.9-17.45 19.5-15.2 5.4 2.85 9.15 10.2.75 17.05-11.4 32.55m-30-42.8 15.75-3.2q-5.95 2.1-13.25 7-8 24.7-5.3 49.4-5.6 3.8-11.2-.4-1.25-6.3-1.05-13.45v-.4Q10.9 135.7 21.5 121.9m106.75 18.95q3.65-14.95 10.75-3.7l2.3 12.3q-6.35-6.1-13.05-8.6" fill="#521611"/><path d="M31.1 148.45q-1.5 0-2.6-2.2-1.05-2.2-1.05-5.3 0-3.1 1.05-5.3 1.1-2.2 2.6-2.2t2.55 2.2l.6 1.5q.5 1.65.5 3.8 0 3.1-1.1 5.3-1 2.15-2.45 2.2h-.1" fill="#bca7bc"/></g><g id="q" fill-rule="evenodd"><path d="m51.8 6.3 10.8-.45q2.55.85 5.05 2.35 14.6 62.6-8.15 113.4-9.8-3.15-21.9-1.75L34.7 124l-3.6-2.6Q32.2 67.5 49 11.8l2.8-5.5" fill="#c7819e"/><path d="M67.65 8.2q-2.5-1.5-5.05-2.35l-10.8.45L55.1.35q46.75-7.65 69.5 151 6.4 21.2-40.5 46.5-15.15-6.3-26-18.95-26.3 22-36 16.95-1.95-8.7-2.45-17.05l-.55.05-17.5 4q-8.2-29.35 26-64-1.7-20.3 6-57.5Q37.5 35.5 49 11.8 32.2 67.5 31.1 121.4l3.6 2.6 2.9-4.15q12.1-1.4 21.9 1.75 4.7 1.5 8.85 4.05l2.95 1.95 5.8-8.75q15.9 4.3 28.3 14.45 7.8 6.35 14.2 15.05Q99.3 27.1 67.65 8.2M79.7 124.65l-2.1-.3q-16.6 14.7-19.5 47 9.15 13.7 25 19l13.15-7.6q27.85-17.65 22.85-29.9l-5.95-7.45q-14.45-16.45-30.4-20.15l-3.05-.6m-30.55-1-5.5-.3H39.1q-23.6 35.1-13.5 66.5 3.4 1.3 9.2-1.5 7.6-3.75 19.3-14.5 2.25-21.25 15.7-43.75-7.4-5.35-20.65-6.45m-40.1 49.8 10.45-1.1q.25-25.05 14.05-46.65l-3-.4-2.95-.45q-18.5 15.45-22.5 49l3.95-.4" fill="#712131"/><path d="M83.1 190.35q-15.85-5.3-25-19 2.9-32.3 19.5-47l2.1.3q-13.75 20.55-14.1 39.2 1.9 7.2 5.1 12.9 4.75 8.55 12.4 13.6m-57.5-.5q-10.1-31.4 13.5-66.5h4.55q-4.25 6.85-7.5 14.45l-.95-.15q-1.85 0-3.15 2.15-1.3 2.15-1.3 5.2 0 2.7 1.05 4.75l-.1.35q-5.45 18-6.1 39.75" fill="#b77638"/><path d="m79.7 124.65 3.05.6q8.6 16.05 3.35 35.6-6.8 24.95-15.4 15.9-3.2-5.7-5.1-12.9.35-18.65 14.1-39.2m-.1 13.2q-1.65 0-2.85 2.5-1.15 2.5-1.15 6t1.15 6q1.2 2.5 2.85 2.5 1.65 0 2.8-2.5 1.2-2.5 1.2-6t-1.2-6q-1.15-2.5-2.8-2.5m-35.95-14.5 5.5.3q-7.95 26-6.05 46.2-2.55 10.3-8.3 18.5-5.8 2.8-9.2 1.5.65-21.75 6.1-39.75l.35.1q1.3 2.15 3.15 2.15 1.85 0 3.15-2.15 1.3-2.15 1.3-5.2 0-3.05-1.3-5.2-.95-1.6-2.2-2 3.25-7.6 7.5-14.45m-34.6 50.1-3.95.4q4-33.55 22.5-49l2.95.45q-17.45 20.2-21.5 48.15" fill="#8c3a21"/><path d="M79.6 137.85q1.65 0 2.8 2.5 1.2 2.5 1.2 6t-1.2 6q-1.15 2.5-2.8 2.5t-2.85-2.5q-1.15-2.5-1.15-6t1.15-6q1.2-2.5 2.85-2.5m-43.45-.05q1.25.4 2.2 2 1.3 2.15 1.3 5.2 0 3.05-1.3 5.2-1.3 2.15-3.15 2.15-1.85 0-3.15-2.15l-.25-.45q-1.05-2.05-1.05-4.75 0-3.05 1.3-5.2 1.3-2.15 3.15-2.15l.95.15" fill="#e9dee9"/><path d="M105.4 133.3Q93 123.15 77.1 118.85l-5.8 8.75-2.95-1.95Q81.2 103.9 80.1 42.35q20.7 43.7 25.3 90.95" fill="#fad9a2"/><path d="M82.75 125.25q15.95 3.7 30.4 20.15 9.3 16.9-16.9 37.35l-13.15 7.6q-7.65-5.05-12.4-13.6 8.6 9.05 15.4-15.9 5.25-19.55-3.35-35.6m-33.6-1.6q13.25 1.1 20.65 6.45-13.45 22.5-15.7 43.75-11.7 10.75-19.3 14.5 5.75-8.2 8.3-18.5-1.9-20.2 6.05-46.2m-18.6 1.65 3 .4q-13.8 21.6-14.05 46.65l-10.45 1.1q4.05-27.95 21.5-48.15" fill="#57150f"/><path d="M59.5 121.6Q82.25 70.8 67.65 8.2 99.3 27.1 119.6 148.35q-6.4-8.7-14.2-15.05-4.6-47.25-25.3-90.95 1.1 61.55-11.75 83.3-4.15-2.55-8.85-4.05" fill="#e2a984"/><path d="m113.15 145.4 5.95 7.45q5 12.25-22.85 29.9 26.2-20.45 16.9-37.35" fill="#40ead0"/></g><g id="r" fill-rule="evenodd"><path d="m79.25 17.05-2.5 6.45q6.7-2.35 13.2-3.85l1.5-.3 5.95-1.1 11.05-.15.35 23.6q-9.05 3.1-10.1 10.7-3.55 2.45-6.7 5.1-4.5 3.7-8.05 7.75-15.1 17.2-12 38.8-1.75-2.3-3.2-4.75-1.7-2.9-2.9-6-8.7-22.55 7.1-57.85l-9.35 5 1-2.55 9.1-16.85 5.55-4m19.75 42q.35 6.15 3.05 12.25 18.2 27.4 51.6 17.6l3.1-.6.25 16-5.25 2.75q-9.5 4.6-20.55 8.5-1.5 1.75-2.7 3.55l-2.4 3.65-10.2.75q-11.6-.05-23.15-3.9l-2.7-.95q-3.65-1.9-6.75-4.05l-2.25-1.7q-5.25-22.4 6.1-40.3 2.2-3.35 4.95-6.65 3.1-3.55 6.9-6.9" fill="#df4448" transform="translate(2.75 .05)"/><path d="m157 104.3.15 10.75q-13.9-.05-22 3.95-3.55 1.75-5.95 4.25-4.8 5.1-5.15 13.25l-.05 6.95q-4.5-8.85 1.7-19.95l.4-.75 2.4-3.65q1.2-1.8 2.7-3.55 11.05-3.9 20.55-8.5l5.25-2.75" fill="#ffac47" transform="translate(2.75 .05)"/><path d="m157.15 115.05.05 5.6h-.15q-7.5-.9-13.1 1.15-15.95 6.05-17 36.55v1.9l-.05.5.1 6.95.05.75q.3 8.25-1.4 16.3l-.15.6-.4 2-.85 3.2-.05.4q-1.25 4.6-2.9 9.05l-2.6 6.5-1.55 3.45q-3.85 8.7-10.65 15.2-13 11.75-27 18.65l-1.8.85-5.6 2.45-2.5.9-4.7 1.55-.3.1q-7.05 2.05-23.1 4.2h-.15l.05-.05q-1.7-1.15-3.35-3.4-2.85-3.9-2.9-8.8l.05-1.45q.15-1.35.6-2.55v-.05l.35-.5 1.4-1.05q12-8.7 16.5-13.1l.9-1 2.45-2.6 2.45-2.9q8.55-11.05 11.75-24.7l.5-2.4.55-3.2.7-7.5.05-4.65q0-4.8-.55-9.9l-.9-3-.7-1.9q-7.35-19.95-21.8-34.95l-1.1-3.95q-20.4-76.6 25.7-106.6l4.9-2.95q3.45-1.9 7.15-3.65l.1 6.25-.35.2q-3.45 1.65-6.6 3.55l-5.55 4-.35.3q-20.2 16.4-25.8 50.3l-.1 2q-1.1 25.4 6.9 44.45l.9 2.05Q59.8 130.2 67 138.35q6.75 9.95 9.7 20.55l.05.2.35 1.2.2.7q1.5 6.3 1.6 12.85l.05 4.65q-.2 3.7-.8 7.5l-.6 3.25-.5 2.4q-2.95 12-9.95 24.65l-1.4 2.4-23.8 25q-1.95 4.3 2.55 6.15 11.8-2.8 20.1-5.75l4.95-2 2.5-1 7.4-3.7q14.1-7.65 24.75-19l2.25-2.5 7.2-9.35.35-.5.6-1.55q2.4-6.2 4.15-13.45l.05-.4.55-2 .3-1.55.4-1.7q1.3-6.45 2-12.9l.4-3.25.1-.7.7-7.75.05-.5.1-1.7v-.2l.6-13.85.05-1.1.05-6.95q.35-8.15 5.15-13.25 2.4-2.5 5.95-4.25 8.1-4 22-3.95" fill="#702031" transform="translate(2.75 .05)"/><path d="M98.7 52.4q-.35 2.45.2 5.5l.05.3.05.85q-3.8 3.35-6.9 6.9-2.75 3.3-4.95 6.65-11.35 17.9-6.1 40.3-5.3-4-9.1-8.85-3.1-21.6 12-38.8Q87.5 61.2 92 57.5q3.15-2.65 6.7-5.1" fill="#ff5b61" transform="translate(2.75 .05)"/><path d="M73.7 21.05 64.6 37.9l-1.45 2.75.45-.2q-14.35 34.9-9.25 77.65-8-19.05-6.9-44.45l.1-2q5.6-33.9 25.8-50.3l.35-.3" fill="#ff5883" transform="translate(2.75 .05)"/><path d="m64.6 37.9-1 2.55 9.35-5q-15.8 35.3-7.1 57.85 1.2 3.1 2.9 6 1.45 2.45 3.2 4.75l.05.3q1.1 7.5 4.5 15.5l1.7 3.9q6.2 18.9 9.3 35.2l.4 1.9q1.2 6.65 1.85 12.85l.45 4.65.05 1.1-2.3-1.05q-2.7-1.65-4.85-4.6-3.5-4.7-5.75-12.8l-.25-.7-.35-1.2-.05-.2q-2.95-10.6-9.7-20.55-7.2-8.15-11.75-18.2l-.9-2.05q-5.1-42.75 9.25-77.65l-.45.2 1.45-2.75m16.45 75 2.25 1.7q3.1 2.15 6.75 4.05l2.7.95q11.55 3.85 23.15 3.9l10.2-.75-.4.75q-6.2 11.1-1.7 19.95l-.05 1.1q-1.9 7.7-4.8 13.9l-.95 1.95-.25.5q-3.9 7.4-9.3 12.55-2.8 2.65-5.95 4.7l-1.65 1q-2.55 1.45-5.25 2.5v-3.4l-.2-4.65q-.3-6.2-1.35-12.85l-.35-1.9q-2.85-16.45-9.7-35.7l-1.25-3.4Q81.8 116.3 81.1 113l-.05-.1" fill="#f8585d" transform="translate(2.75 .05)"/><path d="m90.25 179.45-.05-1.1-.45-4.65q-.65-6.2-1.85-12.85l-.4-1.9q-3.1-16.3-9.3-35.2l-1.7-3.9q-3.4-8-4.5-15.5l-.05-.3q3.8 4.85 9.1 8.85l.05.1q.7 3.3 1.85 6.75l1.25 3.4q6.85 19.25 9.7 35.7l.35 1.9q1.05 6.65 1.35 12.85l.2 4.65v3.4l-5.5-2.2h-.05" fill="#ff5782" transform="translate(2.75 .05)"/><path d="m77.1 160.3.25.7q2.25 8.1 5.75 12.8 2.15 2.95 4.85 4.6l2.3 1.05.3 6.4.05 3.2-.05 2.4q-.45 15.3-5 27Q93 206.7 95.1 191.4l.25-2.4.25-3.25.2-4.1q2.7-1.05 5.25-2.5l1.65-1q3.15-2.05 5.95-4.7 5.4-5.15 9.3-12.55l.25-.5.95-1.95q2.9-6.2 4.8-13.9l-.6 13.85v.2l-.1 1.7-.05.5-.7 7.75-.1.7-.4 3.25q-.7 6.45-2 12.9l-.4 1.7-.3 1.55-.55 2-.05.4q-1.75 7.25-4.15 13.45l-.6 1.55-.35.5-7.2 9.35-2.25 2.5q-10.65 11.35-24.75 19l-7.4 3.7-2.5 1-4.95 2q-8.3 2.95-20.1 5.75-4.5-1.85-2.55-6.15l23.8-25 1.4-2.4q7-12.65 9.95-24.65l.5-2.4.6-3.25q.6-3.8.8-7.5l-.05-4.65q-.1-6.55-1.6-12.85l-.2-.7" fill="#8e3045" transform="translate(2.75 .05)"/><path d="M90.25 179.45h.05l5.5 2.2-.2 4.1-.25 3.25-.25 2.4q-2.1 15.3-9.55 27.05 4.55-11.7 5-27l.05-2.4-.05-3.2-.3-6.4" fill="#ea5358" transform="translate(2.75 .05)"/><path d="M75.5 18.8q3.1-2 6.45-3.7 3.8-1.95 8-3.45 4.4-1.5 9.3-2.55 6.45-1.45 13.75-2 62.75 3.45 87.05 51.9 6.9 13.7 10.7 31.15-8.55-10.6-19.4-16.25l-3.95-1.75 2.4 4.2q9.7 18.85 5.2 40.5-1.1 4.7-2.7 9.5-2.85-7.05-8.35-9.1-2.25-.85-4.85-.85l-.2 1q-2 10.2-12.4 20.7 3.6-14.5-1.95-20.2-2.35-2.35-6.3-3.2-16.15-.3-25.05 4.3-3.5 1.85-5.8 4.45l-3.5.3.35-.8 2.35-3.75 2.6-3.5q10.85-4.15 20.2-8.9 14.8-7.65 25.8-16.9 20.05-14.5-11.7-37.2 2.8-.8-.35-10.8Q130.1 10.25 86.2 21.1q-6.4 1.65-13 4.15l2.3-6.45" fill="#ffac47" transform="translate(2.75 .05)"/><path d="m75.5 18.8-2.3 6.45q6.6-2.5 13-4.15 43.9-10.85 76.95 20.8 3.15 10 .35 10.8 31.75 22.7 11.7 37.2-11 9.25-25.8 16.9-9.35 4.75-20.2 8.9l-2.6 3.5-2.35 3.75-10.1 1q-7.35-.25-14.65-1.55-9.85-1.6-18-6.75l-2.25-1.55q-5.4-3.95-9.2-8.6-1.8-2.25-3.3-4.75-1.55-2.65-2.8-5.5l-.25-.35-.55-1.5q-1.05-2.8-1.7-5.65l-.35.1q-1.2-4.1-1.95-8.5-1.9-11.55-.95-22.95l.45-3.55q.55-5.55 2.1-10.75l1.3-3.55L70.1 22.8q2.6-2.1 5.4-4m20.45 40.6.05.75q.45 6.05 3.25 12.1 18.65 26.9 51.7 16.5 16.45-2.7 11.7-18.75-10.6-32.75-46.2-29.5Q96.9 42.15 95.6 53.55q-.3 2.45.3 5.45l.05.25v.15" fill="#df4448" transform="translate(2.75 .05)"/><path d="M127.4 123.45q2.3-2.6 5.8-4.45 8.9-4.6 25.05-4.3 3.95.85 6.3 3.2 5.55 5.7 1.95 20.2 10.4-10.5 12.4-20.7l.2-1q2.6 0 4.85.85 5.5 2.05 8.35 9.1 1.6-4.8 2.7-9.5 4.5-21.65-5.2-40.5l-2.4-4.2 3.95 1.75q10.85 5.65 19.4 16.25-3.8-17.45-10.7-31.15Q175.75 10.55 113 7.1q-7.3.55-13.75 2-4.9 1.05-9.3 2.55-4.2 1.5-8 3.45-3.35 1.7-6.45 3.7-2.8 1.9-5.4 4l-.25.3.75-1.45 3.1-6.3 1.4-2.85q6.7-4 14.65-7.15l1.45-.45Q106.8.3 121.05-.05q50.25-1.1 83.4 50.45 18.7 43.25 6 45.6l-7.1-5.65q1.35 14.95-.5 26.2-2.7 16-12.1 24.7-3.4-13.5-8.4-15.55-18 30.6-24.1 16.65 9-23.3-3.2-22.1-7.5-.8-13.05 1.4l-2.35.35-11.5 1.35-.75.1m-9.65-80.05q-7.25.55-11.7 2.65 18.8-2.7 28.15 16.6 2.85 12.9-13.65 11.3-14.15-.3-20.95-11.25.7 4.65 2.8 9.15 16.75 24.1 46.5 14.8 14.65-2.4 10.45-16.75-9.6-29.5-41.6-26.5m-3.2 4.6q-4.7-1.25-10.15-1.1-6.4 3.95-5.3 11.9l.25 1.1v1q10.4 13.45 29.75 10.1 5.85-3.75 1.85-11-6.8-9.25-16.4-12m-18.6 11.4v-.15L95.9 59q-.6-3-.3-5.45 1.3-11.4 20.85-13.05 35.6-3.25 46.2 29.5 4.75 16.05-11.7 18.75-33.05 10.4-51.7-16.5-2.8-6.05-3.25-12.1l.05-.15-.1-.6" fill="#702031" transform="translate(2.75 .05)"/><path d="M99.1 58.8q-1.1-7.95 5.3-11.9 5.45-.15 10.15 1.1 8.1 11.65-1.35 14.35-9.1 3.2-14.1-3.55" fill="#114296" transform="translate(2.75 .05)"/><path d="M99.1 58.8q5 6.75 14.1 3.55 9.45-2.7 1.35-14.35 9.6 2.75 16.4 12 4 7.25-1.85 11-19.35 3.35-29.75-10.1v-1l-.25-1.1" fill="#4ef5cc" transform="translate(2.75 .05)"/><path d="M117.75 43.4q32-3 41.6 26.5 4.2 14.35-10.45 16.75-29.75 9.3-46.5-14.8-2.1-4.5-2.8-9.15 6.8 10.95 20.95 11.25 16.5 1.6 13.65-11.3-9.35-19.3-28.15-16.6 4.45-2.1 11.7-2.65m39.85 35.55q3.7-7.8-5.7-19.6-9.85-11.65-11.85 6-9.85 9.35-1.4 15.9 12.3 6.5 18.95-2.3" fill="#ffdb3f" transform="translate(2.75 .05)"/><path d="M157.6 78.95q-6.65 8.8-18.95 2.3-8.45-6.55 1.4-15.9 2-17.65 11.85-6 9.4 11.8 5.7 19.6" fill="#ff9e29" transform="translate(2.75 .05)"/><path d="m61.1 87.85.35-.1q.65 2.85 1.7 5.65l-1.75-4.6-.3-.95" fill="#f8585d" transform="translate(2.75 .05)"/><path d="M118.4 21.55q.35 2.8-1.9 4.8-4.25 4-9.3 6.1-6.75 2.85-13.85 4.1-5.95 1.45-11.9.7-.65-.1-.95-.7 1-5.7 6-8.6 13.9-8.1 29.4-7.4 1.4 0 2.5 1m-36.2 57.6q16.85 2.2 26.65 18.75-3.75 2.4-7.65 1.05l-4-1.9-3.35-2.3q-8.1-6.35-13.55-15.9l1.9.3" fill="#8cd392" transform="translate(2.75 .05)"/><path d="M118.4 21.55q-1.1-1-2.5-1-15.5-.7-29.4 7.4-5 2.9-6 8.6.3.6.95.7 5.95.75 11.9-.7 7.1-1.25 13.85-4.1 5.05-2.1 9.3-6.1 2.25-2 1.9-4.8m2.6-2.9q2.8.55 1.8 3.25l-1.25 2.2q-5.15 6.1-11.95 8.9-6.9 2.8-14.05 4.35L89.5 38.4q-5.6 1.15-11.15.1-.55 0-.95-.6-.1-2.55 1.6-4.8l2.2-2.45 7.85-5.35.75-.35q6.9-3.2 14.25-5 7.8-1.85 15.65-1.45l1.3.15m-38.8 60.5-1.9-.3q5.45 9.55 13.55 15.9l3.35 2.3 4 1.9q3.9 1.35 7.65-1.05-9.8-16.55-26.65-18.75m15.35 2.75q7.85 5.55 12.45 15.3l1.35 3.05-1.95 2.2q-7 .25-13.1-3.1-9.25-5.15-16-14.65-2.4-2.15-3.95-5.25-.5-.75-.1-1.65l1.2-1q9-1.25 16.95 3.3l3.15 1.8" fill="#712131" transform="translate(2.75 .05)"/><path d="m195.45 274.95.75-.55q.45-.55.35-1.25l-.05-.45v.05l-.5-3.05-.05-.25q-1.1-6.8-2.9-12.75l-.65-2-.65-1.85v-.15q-1.35-4.1-3.15-8l-.05-.1v-.15l-.2-.35-.85-1.9-.15-.15q-5.85-12-15.4-21.9-20.35-21.1-49.05-23.05h-.05l-3.55-.15h-.05l-7.1.15q-21.95 1.35-39.85 14.6-16.65 12.45-23.9 30.9-2.65 6.7-4.1 14.15v.15q-.15.7.25 1.25l1.05.75.35.1.55.05q.7-.05 1.15-.6l.75-.85 1.45-1.55V256q5.25-5.7 8.95-8.55 16.35-11.85 39.55-4.4l1.45.45h-.05q1.35.45 2.7 1.05 8.6 3.95 14.15 12 4.4 6.5 7.3 15.65 2.4 7.5 3.65 16.6.15.75.7 1.15.5.45 1.2.3l.4-.1.7-.55q.4-.55.3-1.25-1.3-9.5-3.8-17.2l-1.1-3.35q-2.8-7.55-6.6-13.2-6.1-8.85-15.55-13.15h-.05l-2.85-1.15-.1-.05-1.4-.45-1.9-.6q-23.8-6.9-40.65 5.5-3.45 2.6-8.1 7.55l.05-.35.9-3.05q.8-2.55 1.75-5 6.95-17.6 22.85-29.4 17.05-12.65 38.05-13.95l4.35-.2 2.5.05h-.05l3.45.15q27.5 1.85 46.95 22.05 8.95 9.25 14.55 20.35l.15.75.95 2.05h.05q1.9 4.15 3.2 7.8l.15.3.05.3.6 1.7.6 1.9q1.7 5.75 2.85 12.3v.15l.5 3.1v.05l.05.25q.05.7.6 1.1.55.5 1.25.35l.35-.05" fill="#702031" transform="translate(2.75 .05)"/><path d="m195.45 274.95-.35.05h.35v-.05m-2.2-1.4-.05-.25v-.05l.05.3" fill="#d03f43" transform="translate(2.75 .05)"/><path d="M184.1 242.9q-5.6-11.1-14.55-20.35-19.45-20.2-46.95-22.05l-3.45-.15h.05l-2.5-.05q-2.15.85-5.15 2.25h-.05q-5.45 2.55-10.55 5.85-11.45 7.3-14.25 13.5 10.7-2.3 21-1 12.05 1.45 23.55 7.9 8.65 4.85 15.2 11.45-2.5 1.25-4.7 2.6 13.45 12.2 28.25 57.65l5.6-1.9q-17.95-47-29.15-58.35l2.2-1q19.35-7.95 35.45 3.65m-134.4 5.95-.9 3.05q9.75-16.95 29.75-23.2 3.65-1.1 7.25-1.85 1.15 6.3 7.45 9.9l4.25 2.45 1.9.6 1.4.45.1.05 2.85 1.15h.05q9.45 4.3 15.55 13.15 3.8 5.65 6.6 13.2 2.45-16.45 15.8-24.95-5.6-4.95-12.5-8.9-11.1-6.15-22.65-7.75-10.2-1.45-20.8.65-.15-1.3.15-2.7.25-1.1.75-2.25l-6.15 1.65q-21.2 6.6-30.85 25.3" fill="#ea5358" transform="translate(2.75 .05)"/><path d="M141.75 242.85q2.2-1.35 4.7-2.6-6.55-6.6-15.2-11.45-11.5-6.45-23.55-7.9-10.3-1.3-21 1-.5 1.15-.75 2.25-.3 1.4-.15 2.7 10.6-2.1 20.8-.65 11.55 1.6 22.65 7.75 6.9 3.95 12.5 8.9" fill="#ff557e" transform="translate(2.75 .05)"/><path d="m116.7 200.3-4.35.2q-21 1.3-38.05 13.95-15.9 11.8-22.85 29.4-.95 2.45-1.75 5 9.65-18.7 30.85-25.3l6.15-1.65q2.8-6.2 14.25-13.5 5.1-3.3 10.55-5.85h.05q3-1.4 5.15-2.25m-67.9 51.6-.05.35q4.65-4.95 8.1-7.55 16.85-12.4 40.65-5.5l-4.25-2.45q-6.3-3.6-7.45-9.9-3.6.75-7.25 1.85-20 6.25-29.75 23.2" fill="#8d3146" transform="translate(2.75 .05)"/><path d="M195.1 275q-.7.15-1.25-.35-.55-.4-.6-1.1l-.05-.3-.5-3.1V270q-1.15-6.55-2.85-12.3l-.6-1.9-.6-1.7-.05-.3-.15-.3q-1.3-3.65-3.2-7.8h-.05l-.95-2.05-.15-.75q-16.1-11.6-35.45-3.65l-2.2 1q11.2 11.35 29.15 58.35l6.4-3.05q7.75-4.3 11.75-12.15 2.1-4 1.7-8.4h-.35m-69.15-7.2 1.1 3.35q2.5 7.7 3.8 17.2.1.7-.3 1.25l-.7.55q2.3 3.6 6.1 6.1 7 4.5 15.3 5.65l15.2-.55 3.55-.85q-14.8-45.45-28.25-57.65-13.35 8.5-15.8 24.95" fill="#df4448" transform="translate(2.75 .05)"/><path d="m129.6 278.55.55 4.15q.4 2.4 1.15 4.8l1.95 5.1q1.55 3.5 3.8 6.95 22.9 27.45 53.15 22 8.6-1.55 17.8-5.65-7.7-.35-13.95-3.4-1.1-.5-2.15-1.15l2.75-.4q11.85-1.95 20.2-11.35l3.4-4.45q-4.15 1.1-7-.7l-2-1.95.4-.45q3.95-4.3 5.25-12.6-5.45 6.5-9.9 5.9-1.9-.25-3.6-1.7-5.65-7.3-6.55-12.9-.4-2.2 0-4.15l-1-1.7-.25.4-.9 2.35-.75 2.4q1.85 6.35 2.85 12.2 1.55 9.35 1.05 17.5.2 14.05-20.9 7.3.6 1.55-5.05 3.5-25.65-4.25-35.55-27.95-1.45-3.5-2.6-7.4l-2.15 3.35" fill="#ffac47" transform="translate(2.75 .05)"/><path d="m129.6 278.55 2.15-3.35q1.15 3.9 2.6 7.4 9.9 23.7 35.55 27.95 5.65-1.95 5.05-3.5 21.1 6.75 20.9-7.3.5-8.15-1.05-17.5-1-5.85-2.85-12.2l.75-2.4.9-2.35-3-4.95q-2.6-3.25-5.6-6.15-4.15-3.9-9.25-5.9l-1.45-.5q-3.65-1.1-7.05-1.2-1.7-.1-3.3.05l-3.45.6-.25.1-3.6.95q-2.5.85-5.05 2.2-5.9 3.1-10.75 7.35l-1.45 1.4q-2.35 2.1-4.15 4.6l-1.2 1.85-4.45 8.95v3.9m25.8-4.75q2.95-1.85 6.6-2.65 18.65-.6 25.1 18 4.35 8.35-4.55 11.65-18.5 6.35-29.15-11.1-5.85-9.4-1.15-13.85 1.05-.95 2.55-1.75h.2v-.05l.4-.25" fill="#df4448" transform="translate(2.75 .05)"/><path d="M194.85 266.6q-.4 1.95 0 4.15.9 5.6 6.55 12.9 1.7 1.45 3.6 1.7 4.45.6 9.9-5.9-1.3 8.3-5.25 12.6l-.4.45 2 1.95q2.85 1.8 7 .7l-3.4 4.45q-8.35 9.4-20.2 11.35l-2.75.4q1.05.65 2.15 1.15 6.25 3.05 13.95 3.4-9.2 4.1-17.8 5.65-30.25 5.45-53.15-22-2.25-3.45-3.8-6.95l-1.95-5.1q-.75-2.4-1.15-4.8l-.55-4.15v-3.9l.05-.25-.45.9-1.7 3.55-.9 1.6q.5 4.4 1.75 9.1l.25.8q3.25 8.7 7.95 15.3 16.55 23.25 51.25 20.85 26-6.2 22.85-12.8l-5-1.3q7.25-4.45 11.75-9.15 6.4-6.65 7.1-13.85-7.25 3.05-9.9 1.45 7.8-18.6-.6-16.65-7.55 12.05-11.2 6.1-2.9-3.15-3.75-6.5l-.65-1.1-3.3-5.75-.25-.35M155 274.05v.05h-.2q-1.5.8-2.55 1.75-4.7 4.45 1.15 13.85 10.65 17.45 29.15 11.1 8.9-3.3 4.55-11.65-6.45-18.6-25.1-18-3.65.8-6.6 2.65v.1l-.4.15m30.45 14.8q3.85 7.5-4.15 10.5-16.6 5.65-26.15-9.95-2.15-3.5-2.8-6.25 5.2 9.45 17.2 7.2 6.8-3.15.45-10.1-4.9-6.35-12.2-5.75 2.35-1.2 5.1-1.8 16.7-.55 22.55 16.15m-29.6-13.2.6-.3.15-.05.3-.2q9.65.1 14.65 10.1.35 3.9-4.3 4.55-6.55.05-11.05-3.4-2.25-1.7-3.95-4.25-.4-4.25 3.6-6.45" fill="#702031" transform="translate(2.75 .05)"/><path d="M156.2 286.35q8.05-.3 6.1-5.5-1.65-5.25-6.45-5.2-4 2.2-3.6 6.45 1.7 2.55 3.95 4.25" fill="#114296" transform="translate(2.75 .05)"/><path d="M155.85 275.65q4.8-.05 6.45 5.2 1.95 5.2-6.1 5.5 4.5 3.45 11.05 3.4 4.65-.65 4.3-4.55-5-10-14.65-10.1l-.3.2-.15.05-.6.3" fill="#4ef5cc" transform="translate(2.75 .05)"/><path d="M185.45 288.85q-5.85-16.7-22.55-16.15-2.75.6-5.1 1.8 7.3-.6 12.2 5.75 6.35 6.95-.45 10.1-12 2.25-17.2-7.2.65 2.75 2.8 6.25 9.55 15.6 26.15 9.95 8-3 4.15-10.5m-5.95-2.8q7.15 3.4 5.35 9.4-2.25 4.35-10.8 4.1-8.65-.5-1.3-7.5.9-7.6 6.75-6" fill="#ffdb3f" transform="translate(2.75 .05)"/><path d="M179.5 286.05q-5.85-1.6-6.75 6-7.35 7 1.3 7.5 8.55.25 10.8-4.1 1.8-6-5.35-9.4" fill="#ff9e29" transform="translate(2.75 .05)"/><path d="m41.65 128.05-1.4-.5.05-.7q-.05-.55-.5-.9l-1-.2q-3.45.55-6.65 1.45l-1.25.4h-.05l-4.25 1.7q-3.45 1.55-6.5 3.85-2.5 1.8-4.7 4.05l-2.45 2.7q-2.75 3.4-4.9 7.55-2.35 4.55-4 9.95v.05l-.35 1.1-.6 2.05q-1.65 5.8-2.75 11.25l-1.05 6.1.05.05-.65 4.8v.05l-.05.7-1.25 8.75q-.3 3.85.05 5.65l1.2 5.2 1.6 7.15.6 1.85.25 1q1.25 4 2.85 7.8 2.65 6.35 6.35 12.1 5.1 7.85 12.15 14.4l.1.2h.05l5.4 4.65 12.9 6.05 3.6.95 6.5 1.1-1.2-1.8-.45-.6q-5.6-6.7-7.55-15l-.3-1.1-1.5-4.55-.95-2.55v-.15l-1.75-5.35-.4-1.6q-.9-4.45-.95-8.8-.1-3.05.25-6.1.3-2.55.9-5 3.85-16.65 20.7-30.7l3.75-3-.05-1.9-.35-3.7q-.65-5.5-1.75-10.45-2.3-10.1-6.75-17.65-3.65-6.05-8.7-10.45l-2.3-1.9m-36 33.3.65-2.05.3-1.2v.1q1.6-5.25 3.8-9.5 2.25-4.35 5.15-7.75l1.75-1.85q2.05-2.15 4.4-3.8v-.05q2.8-2.05 6.05-3.5 1.95-.9 4-1.55l1.2-.4.1-.05q4.85 2.45 8.6 6.05l.65.6q7.25 7.3 10.05 18.9 1.85 7.55 1.7 17l-.05 2.9q-7.4 5.45-12.5 11.35l-2.4 3-2.6 4q-2.05 3.45-3.45 7-.9 2.45-1.5 5.05-.8 3.55-.95 7.25v2.9l.45 3.2q.8 5.7 2.35 10.95l.85 2.9q1.2 3.7 2.8 7.25l.6 1.4q2.2 4.6 4.9 9l-.5 2.45-.55 2.75-.75-.3-4.35-1.75q-6.4-2.8-11.95-8.05-8-7.55-14.2-19.8l-1.45-2.9q-2.15-4.6-4.05-9.75l-.3-.95-.2-.3-.25-.8-.05-.15v-.1l-.1-.2q-.95-2.35-1.65-5.05l-.35-1.95-.05.05-.25-1.75Q1 197.8.9 193.65l.1-5.35.3-4.1.1-1.15.55-4.7.9-5.2.15-.8q1.1-5.35 2.65-11h.05-.05m-4.25 21.7-.05.1.05-.1" fill="#702031" transform="translate(2.75 .05)"/><path d="M5.65 161.35h.05-.05" fill="#f7933c" transform="translate(2.75 .05)"/><path d="m1.4 183.05-.05.1.05-.1" fill="#d03f43" transform="translate(2.75 .05)"/><path d="m1.3 184.2-.3 4.1-.1 5.35q.1 4.15.65 8.25l.25 1.75.05-.05.35 1.95q.7 2.7 1.65 5.05l.1.2v.1l.05.15.35.85.15.25.45.95q2.2 4.5 5.25 7.5 3.45 3.35 8.1 4.75l.6 1.4q8.55 22.35 21.85 28.6l.75.3.55-2.75q-8.85-8.2-15.2-23l-1.9-4.65-6.65.1-1.25-6.25-.85-6.1-.1-.95q-.7-6.45-.4-12.6l.3-4 .65.3q2.4 1.2 4.9 2.05v3.9q.15 5.75.9 11.25.35 3.1 1 6.1l1.5 6.2 5.65-9.5v-2.9q.15-3.7.95-7.25.6-2.6 1.5-5.05l-.95-.35q-5.5-.55-10.55-2.4l.2-4.1q.25-5.05 4.45-24.75-1.85-1.2-2.8.3-.9 1.4-2.35-.3l-1.7 7.7-2.75 13.85-.4 3.25-.2 1.7-2.8-1.55-.25-.15q-3.3-2-6.4-4.55l-5.25-5" fill="#ea5358" transform="translate(2.75 .05)"/><path d="M21.55 197.8q-2.5-.85-4.9-2.05l-.65-.3-.3 4q-.3 6.15.4 12.6l.1.95.85 6.1 1.25 6.25 6.65-.1-1.5-6.2q-.65-3-1-6.1-.75-5.5-.9-11.25v-3.9" fill="#ff557e" transform="translate(2.75 .05)"/><path d="m4 211.05.25.8.2.3.3.95q1.9 5.15 4.05 9.75l1.45 2.9q6.2 12.25 14.2 19.8Q30 250.8 36.4 253.6l4.35 1.75q-13.3-6.25-21.85-28.6l-.6-1.4q-4.65-1.4-8.1-4.75-3.05-3-5.25-7.5l-.45-.95-.15-.25-.35-.85m38.05 41.85.5-2.45q-2.7-4.4-4.9-9l-.6-1.4q-1.6-3.55-2.8-7.25l-.85-2.9q-1.55-5.25-2.35-10.95l-.45-3.2-5.65 9.5 1.9 4.65q6.35 14.8 15.2 23" fill="#8d3146" transform="translate(2.75 .05)"/><path d="M33.05 200.55q1.4-3.55 3.45-7l2.6-4 2.4-3q5.1-5.9 12.5-11.35l.05-2.9q.15-9.45-1.7-17-2.8-11.6-10.05-18.9l-.65-.6q-3.75-3.6-8.6-6.05l-.1.05-1.2.4q-2.05.65-4 1.55-3.25 1.45-6.05 3.5v.05q-2.35 1.65-4.4 3.8l-1.75 1.85q-2.9 3.4-5.15 7.75-2.2 4.25-3.8 9.5v-.1l-.3 1.2-.65 2.05Q4.1 167 3 172.35l-.15.8-.9 5.2-.55 4.7-.1 1.15 5.25 5q3.1 2.55 6.4 4.55l.25.15 2.8 1.55.2-1.7.4-3.25 2.75-13.85 1.7-7.7q1.45 1.7 2.35.3.95-1.5 2.8-.3-4.2 19.7-4.45 24.75l-.2 4.1q5.05 1.85 10.55 2.4l.95.35M6.8 164.25l-.1.4-.2-.25.3-.15" fill="#df4448" transform="translate(2.75 .05)"/><path d="M46.9 182.85q.95-1.3 2.5-2.2 4.05-2.4 11.55-2.55 1.8.3 2.95 1.35 2.65 2.5 1.35 9.35 4.55-5.1 5.25-9.9l.1-.45 2.25.25q2.6.85 4.05 4.05l1-4.45q1.65-10.2-3.3-18.75l-1.15-1.9 1.85.8q5.1 2.3 9.3 7.1-2.1-8.05-5.6-14.25-12.35-22-41.35-22.25-3.4.45-6.35 1.25-2.2.6-4.2 1.4-1.9.8-3.6 1.8-1.55.8-2.95 1.85l-.95 3.05q3.05-1.35 5.95-2.2 20.05-6.05 36 7.95 1.7 4.55.4 5 15.2 9.85 6.25 17-4.85 4.6-11.5 8.5-4.25 2.35-9.2 4.55l-1.1 1.75-1 1.75-.15.35 1.65-.2" fill="#ffac47" transform="translate(2.75 .05)"/><path d="m20.55 135.35-2.4 2.05-3.35 7.45-.55 1.7q-.6 2.4-.7 5l-.15 1.65q-.15 5.3 1 10.65.4 2.25 1.25 4.3l1.05 2.5.15.35.05.15 1.45 2.5 1.65 2.1q1.85 2.1 4.4 3.8l1.1.7q3.85 2.2 8.5 2.75l6.75.4 4.65-.7 1-1.75 1.1-1.75q4.95-2.2 9.2-4.55 6.65-3.9 11.5-8.5 8.95-7.15-6.25-17 1.3-.45-.4-5-15.95-14-36-7.95-2.9.85-5.95 2.2l.95-3.05M30.9 153.7l-.05-.1q-.35-1.4-.2-2.6.3-5.25 9.3-6.5Q56.3 142.2 62 157.25q2.5 7.35-5 8.9-15.05 5.6-24.25-6.45-1.45-2.75-1.8-5.6l-.05-.4" fill="#df4448" transform="translate(2.75 .05)"/><path d="m46.9 182.85.3-.1 5.25-.9 1.1-.15q2.55-1.2 6-1 5.6-.8 2 10.25 3.15 6.35 10.75-8.3 2.35.85 4.25 7 4.1-4.15 5-11.65.65-5.3-.35-12.2l3.45 2.45q5.8-1.4-3.8-21.05-16.5-23.25-39.65-21.6-6.6.45-13.7 2.95l-.65.25q-3.6 1.65-6.65 3.6l-.55 1.4-1.3 3-.35.7.15-.1 2.4-2.05q1.4-1.05 2.95-1.85 1.7-1 3.6-1.8 2-.8 4.2-1.4 2.95-.8 6.35-1.25 29 .25 41.35 22.25 3.5 6.2 5.6 14.25-4.2-4.8-9.3-7.1l-1.85-.8 1.15 1.9q4.95 8.55 3.3 18.75l-1 4.45q-1.45-3.2-4.05-4.05l-2.25-.25-.1.45q-.7 4.8-5.25 9.9 1.3-6.85-1.35-9.35-1.15-1.05-2.95-1.35-7.5.15-11.55 2.55-1.55.9-2.5 2.2m-7.65-34.75q4.5 1.05 7.85 5.2 2 3.25-.65 5.15-8.8 1.95-13.9-4.1l-.05-.3v-.1l-.1-.55q-.7-3.65 2.15-5.65l4.7.35m-8.35 5.6.1.35-.05.05q.35 2.85 1.8 5.6 9.2 12.05 24.25 6.45 7.5-1.55 5-8.9-5.7-15.05-22.05-12.75-9 1.25-9.3 6.5-.15 1.2.2 2.6l.05.1m4.35-6.4q2-1.05 5.35-1.45 14.75-2.1 19.8 11.4 2.3 6.55-4.45 8.05-13.55 5-21.8-5.85-1.1-2.1-1.5-4.2 3.4 4.9 9.95 4.7 7.65.4 6.05-5.55-4.75-8.75-13.4-7.1" fill="#702031" transform="translate(2.75 .05)"/><path d="m39.25 148.1-4.7-.35q-2.85 2-2.15 5.65 2.45 3.05 6.55 1.35 4.35-1.45.3-6.65" fill="#114296" transform="translate(2.75 .05)"/><path d="m32.4 153.4.1.55v.1l.05.3q5.1 6.05 13.9 4.1 2.65-1.9.65-5.15-3.35-4.15-7.85-5.2 4.05 5.2-.3 6.65-4.1 1.7-6.55-1.35" fill="#4ef5cc" transform="translate(2.75 .05)"/><path d="M35.25 147.3q8.65-1.65 13.4 7.1 1.6 5.95-6.05 5.55-6.55.2-9.95-4.7.4 2.1 1.5 4.2 8.25 10.85 21.8 5.85 6.75-1.5 4.45-8.05-5.05-13.5-19.8-11.4-3.35.4-5.35 1.45m16.2 8.3q.5-8.3 5.3-3.1 4.65 5.3 3.05 8.95-2.8 4.25-8.65 1.5-4.05-2.85.3-7.35" fill="#ffdb3f" transform="translate(2.75 .05)"/><path d="M51.45 155.6q-4.35 4.5-.3 7.35 5.85 2.75 8.65-1.5 1.6-3.65-3.05-8.95-4.8-5.2-5.3 3.1" fill="#ff9e29" transform="translate(2.75 .05)"/></g><g id="s" fill-rule="evenodd"><path d="m336.85 80.55 1.65 3.05q6.9 21.1-3.8 38.25-2.65 4.25-6.4 8.3l-1.2-8.3q-6.6-49.6 9.75-41.3M33.9 158.95q-3.6-2.2-6.75-4.7-9.2-7.25-14.7-16.95Q16.9 42.75 27.8 82.65 46.2 55 56.3 79.15q9.95-15.85 16-2.5 33.2 73.6-37.85 82.25l-.55.05" fill="#fad9a2" transform="translate(0 9.35)"/><path d="M328.8 68.95q4.7 5.9 8.05 11.6-16.35-8.3-9.75 41.3l1.2 8.3q-4.65 4.9-10.95 9.5l-.15-17.8q.4-50.95 11.6-52.9m-44.15 79.75q-22.5-.25-41.15 6.25l7.8-17.8 33.35 11.55m-63.75 17.5q-9 5.95-16.75 14.05-3.8 3.95-7.35 8.4-31.35 5.65-58.85 4.75-20.85-.65-39.5-5.05-9-44.4 35.35-53.2l4.15 1.55q29.7 10.2 66.2 1.85 6.25-1.45 12.65-3.4l4.1 31.05" fill="#e2a984" transform="translate(0 9.35)"/><path d="M23.3 28.05q22.65-40.8 81.15-37.1l69.4 5.3L212.95.6q37.7 5.2 81.6 30.75 6.9 5.2 12.95 10.3 14.4 12.15 23.55 23.5 4.7 5.9 8.05 11.6l1.65 3.05q10.75 20.65 1.95 38.25l-2.15 3.85-.1-.05-.45.9q-9.65 18.1-40.2 32.9-48.45-10.6-95.65 29.55-4.7 3.95-9.35 8.45-31 5.15-56.85 5.05-62.5-.2-95.15-31.05-61.05-24-35-106 .8-.6 1.85-2.55l.85-1.65 2.6-6.6-1.3 4.7q-14.9 54.3.65 81.75 5.5 9.7 14.7 16.95 3.15 2.5 6.75 4.7 4.15 2.55 8.9 4.7l8.25 5.45q21.6 13.2 47.4 19.25 18.65 4.4 39.5 5.05 27.5.9 58.85-4.75 3.55-4.45 7.35-8.4 7.75-8.1 16.75-14.05 10.45-7.05 22.6-11.25 18.65-6.5 41.15-6.25l16.15.95q9.35-4.75 16.55-10 6.3-4.6 10.95-9.5 3.75-4.05 6.4-8.3 10.7-17.15 3.8-38.25l-1.65-3.05q-3.35-5.7-8.05-11.6-9.15-11.35-23.55-23.5l-12.95-10.3Q248.4 9.6 210.7 4.4L171.6.05l-69.4-5.3q-55.7-3.5-78.9 33.3" fill="#712131" transform="translate(0 9.35)"/><path d="M23.3 28.05q23.2-36.8 78.9-33.3l69.4 5.3 39.1 4.35q37.7 5.2 81.6 30.75l12.95 10.3q14.4 12.15 23.55 23.5-11.2 1.95-11.6 52.9l.15 17.8q-7.2 5.25-16.55 10l-16.15-.95-33.35-11.55-7.8 17.8q-12.15 4.2-22.6 11.25l-4.1-31.05q-6.4 1.95-12.65 3.4-36.5 8.35-66.2-1.85l-4.15-1.55q-44.35 8.8-35.35 53.2-25.8-6.05-47.4-19.25l-8.25-5.45q-4.75-2.15-8.9-4.7l.55-.05q71.05-8.65 37.85-82.25-6.05-13.35-16 2.5Q46.2 55 27.8 82.65q-10.9-39.9-15.35 54.65-15.55-27.45-.65-81.75l1.3-4.7q3.9-12.9 10.2-22.8m284.6 52.2q-.1-8.5-.85-17.95L247.3 98.65l-6.55 15.75 17.55.25 41.5.55-1.9 8.25 4.4.2.6-1.8 1.75-6.55q3.5-15.05 3.25-35.05" fill="#c076a8" transform="translate(0 9.35)"/><path d="m258.3 114.65-17.55-.25 6.55-15.75 59.75-36.35q.75 9.45.85 17.95l-49.1 27.9-.5 6.5" fill="#b13943" transform="translate(0 9.35)"/><path d="M307.9 80.25q.25 20-3.25 35.05l-4.85-.1 8.1-34.95" fill="#45e3ca" transform="translate(0 9.35)"/><path d="m304.65 115.3-1.75 6.55-.6 1.8-4.4-.2 1.9-8.25 4.85.1" fill="#7b4e4d" transform="translate(0 9.35)"/><path d="m299.8 115.2-41.5-.55.5-6.5 49.1-27.9-8.1 34.95" fill="#df4f55" transform="translate(0 9.35)"/></g><g id="t" fill-rule="evenodd"><path d="m72.35 23.4-.05-.05Q57.7 11.2 40.4 1.55L51 0q76.45 48.85 86 122-19.65-61.15-64.65-98.6M23 102.5l4.6 5 .3.3q76.65 81.5 109 27.7l.1.05q-14.55 28.7-40 29.45-48.5-19.1-74-62.5" fill="#712131"/><path d="M40.4 1.55q17.3 9.65 31.9 21.8l.05.05q10 11.8 18.55 23.15Q76.4 31.9 69 38.5 55.1 85.1 66.5 120q6.8 13.95 21 20.5-21.5-.7-59.6-32.7l-.3-.3-4.6-5Q-30.45 15.05 40.4 1.55" fill="#c7819e"/><path d="M72.35 23.4q45 37.45 64.65 98.6l1 11.5-1.05 1.85q-9.3-40.05-46.05-88.8Q82.35 35.2 72.35 23.4" fill="#40ead0"/><path d="M27.9 107.8q38.1 32 59.6 32.7-14.2-6.55-21-20.5Q55.1 85.1 69 38.5q7.4-6.6 21.9 8.05 36.75 48.75 46.05 88.8l-.05.15q-32.35 53.8-109-27.7M100 133l10.5-5q-.25-41.95-24-74.5Q72.05 34.15 71 65q-1.6 52.65 29 68" fill="#e2a984"/><path d="M108.3 119.3q0-4.05-2.35-6.95-2.3-2.85-5.55-2.85t-5.6 2.85q-2.3 2.9-2.3 6.95 0 4.05 2.3 6.9 2.35 2.9 5.6 2.9 3.25 0 5.55-2.9 2.35-2.85 2.35-6.9M100 133q-30.6-15.35-29-68 1.05-30.85 15.5-11.5 23.75 32.55 24 74.5l-10.5 5" fill="#fad9a2"/><path d="M108.3 119.3q0 4.05-2.35 6.9-2.3 2.9-5.55 2.9t-5.6-2.9q-2.3-2.85-2.3-6.9 0-4.05 2.3-6.95 2.35-2.85 5.6-2.85 3.25 0 5.55 2.85 2.35 2.9 2.35 6.95" fill="#fffeff"/></g><g id="u" fill-rule="evenodd"><path d="m140.25 30.45 2.95 7.9q-6.35 47.55-8.3 98.1l-.2 5.9q-32.55 41.95-48.5 28.55-10.2 7.3-22.5 12.95-5.45-13.3-4.8-36.9Q32 163.2 7.2 166.35q-.4-12.5 1.85-24.75l-1.35-.25q-21.75 3.1 18-63l43.15 2.6q9.8-21.45 10.85-41.1 2.45-5.3 4.85-9.9-1 13.75-2.75 24-4.05 22.9-12.2 28.4l-.4.25H56l5.75 18.25 1.95 2q19.55-12.2 36.05-6 5.4 2 10.45 6 11.8 17.9 10 30-10.25 18.75-26.8 32.55 7.55 9.15 38.8-29.05-.6-23.95 1.55-51.15 2-25.9 6.5-54.75M44.35 85.4q-6.45-1.35-16.15-1.05l-19 36 12.6-15.2q3.3-6.45 7.4-12.8l4.6-.2q12.9-.3 21.6 4.25l1.45.8q.05-1.7-.35-3.2-1.85-6.4-12.15-8.6m33.55 18.45q-4.8 1.05-10.2 3-5.75 47.2 0 67.5 4.05-1.95 8.05-4.45 20.3-12.9 38.45-41.05-3.2-22.5-19.8-25.7-7.05-1.4-16.5.7m-53.2 51.3 34.4-13.1q.7-14.9 3.65-33.5-8.95-7.3-20.05-9l-6.7-.5-5.8.3q-17.5 31.85-16.5 60l11-4.2" fill="#712131"/><path d="M133.75 85.2q-2.15 27.2-1.55 51.15-31.25 38.2-38.8 29.05 16.55-13.8 26.8-32.55 1.8-12.1-10-30-5.05-4-10.45-6 23.75 1.35 12.3-41.7 19.9 6.25 21.7 30.05" fill="#e2a984"/><path d="M99.75 96.85q-16.5-6.2-36.05 6l-1.95-2L56 82.6h12.05l-.35.75 1.5-.75.4-.25q8.15-5.5 12.2-28.4 18.35-2.55 30.25 1.2 11.45 43.05-12.3 41.7" fill="#fbdaa2"/><path d="M140.25 30.45q-4.5 28.85-6.5 54.75-1.8-23.8-21.7-30.05-11.9-3.75-30.25-1.2 1.75-10.25 2.75-24 31.35-60.15 55.7.5" fill="#cd84a2"/><path d="m33.8 92.15-4.6.2q-4.1 6.35-7.4 12.8l-12.6 15.2 19-36q9.7-.3 16.15 1.05L33.8 92.15m33.9 82.2q-5.75-20.3 0-67.5 5.4-1.95 10.2-3-10.1 36.1-10.2 70.5m-54-15q-1-28.15 16.5-60l5.8-.3q-15.25 30.2-22.3 60.3" fill="#b77638"/><path d="m33.8 92.15 10.55-6.75q10.3 2.2 12.15 8.6.4 1.5.35 3.2l-1.45-.8q-8.7-4.55-21.6-4.25m44.1 11.7q9.45-2.1 16.5-.7-14.55 31.65-18.65 66.75-4 2.5-8.05 4.45.1-34.4 10.2-70.5m-53.2 51.3-11 4.2q7.05-30.1 22.3-60.3l6.7.5q4.15 30.45-18 55.6" fill="#8c3a21"/><path d="M94.4 103.15q16.6 3.2 19.8 25.7Q96.05 157 75.75 169.9q4.1-35.1 18.65-66.75m-51.7-3.6q11.1 1.7 20.05 9-2.95 18.6-3.65 33.5l-34.4 13.1q22.15-25.15 18-55.6" fill="#57150f"/></g><g id="v" fill-rule="evenodd"><path d="M50.5 50.85q4.55-2.55 10.75-3.35 43.6-.8 75.25-38.5-4.2 28.05-18.15 56.95l-.7 1.4-6.15 3.15q3.15-.35 6.65-1.6 12.15-4.4 28.6-20.15-5 19.05-17.7 38.15H129l-5.5.6 5.55-.2h.05l1.9-.05h.65q24.5-.25 32.85 7-39.35 4.45-62.35 28.4l-1.4 1.5-1.25 1.35 1.4-1.2q9.7 10.6 13.35 18.55l-8-3.6-2.4-2.75q-4.75-5.75-6.35-10.25l.6-1.4q5.2-12.15 16.1-20.65 2.45-1.95 5.25-3.7 8.4-5.35 19.55-9l-28 1 14.25-22.25-23.5 10q-1.9-3.15.25-9.15.7-1.95 1.75-4.1 6.7-6.9 9.25-15.5-7.25 4.15-14.5 12.5 5.15-12.25 16.25-26.5Q97.3 49 76.5 53.75l6.5-6.5q-13.2 2-24.5 16.5-1.9-5.65 4-13.25-7.05-.9-11.4 1.55l-.6-1.2m-10.45 13.7Q42.8 55.2 50.4 50.9l.7 1.15q-7.25 4.1-7.1 17.45l-3.95-4.95" fill="#df4f55"/><path d="M114.25 142.85q-3.65-7.95-13.35-18.55l-1.4 1.2 1.25-1.35 1.4-1.5q23-23.95 62.35-28.4-8.35-7.25-32.85-7H131l-1.9.05h-.05l-5.55.2 5.5-.6h.05q12.7-19.1 17.7-38.15-16.45 15.75-28.6 20.15-3.5 1.25-6.65 1.6l6.15-3.15.7-1.4Q132.3 37.05 136.5 9q-31.65 37.7-75.25 38.5-6.2.8-10.75 3.35l-.1.05q-7.6 4.3-10.35 13.65-1.25 4.2-1.5 9.45l-.05 1.9V78l-.45-2.05Q20 90.3 23.65 111.15q1.1 6.75 4.55 14.15l.8 1.7q3.65 7.8 8.65 13.15 14 15.1 38.35 10.35 19.75-10 39.5 5.5 2.35-5.25-1.25-13.15M62 44q38.75 2.3 79-44-3.55 36.85-21.7 66.45 16.05-9.25 31.2-24.95-4.85 25.3-18.85 45.15Q163.4 83.95 168 97q-16.1 0-31.25 5.45-12.55 20.9-18.25 44.75 2.25 8.75-2.5 15.8-9.1-10.75-27-13-35.15 15.5-58.5-9-16-24.4-11.65-42.6Q7.7 87.65 0 66.5q8.5 17.75 20 28.05l1.05-2.45q2.3-5 6.35-9.4 4.2-4.7 10.3-8.75-2.25-15.55 10-23.85Q53.35 46.3 62 44m-8.75 51.5q.15 2.9.75 6 0-3.35.6-6.15 2.25-10.6 13.3-12.75l5.4-.55 5.2.2q17.8 12.3 7.5 28.5-5.65 4.85-10.8 6.45-13.25 4.15-22.95-13.2-2.3-12-.3-20.85Q55.9 65.8 76.25 60.5 61.9 67.4 56.5 78.2q-3.9 7.65-3.25 17.3m15-11.5q-4.6.85-8.1 4.35-3.2 3.25-4.2 7.4-.45 1.85-.45 3.9v.1q.05 6.55 4.65 11.15 4.7 4.7 11.3 4.7 6.6 0 11.25-4.7 4.7-4.65 4.7-11.25t-4.7-11.3q-2.45-2.45-5.5-3.6-2.65-1.05-5.75-1.05l-3.15.3-.3-1.05.25 1.05m61.7 25.4 3.55-5.7q-16.1 6.5-31.05 19.25 9.6 9.7 13.7 18l2.35-7.3q4.25-12.15 11.45-24.25" fill="#782b38"/><path d="M51.1 52.05q4.35-2.45 11.4-1.55-5.9 7.6-4 13.25 11.3-14.5 24.5-16.5l-6.5 6.5Q97.3 49 114.75 37.5 103.65 51.75 98.5 64q7.25-8.35 14.5-12.5-2.55 8.6-9.25 15.5-1.05 2.15-1.75 4.1-6.65 10.25-12.45 12.2l-3.05.7 5-11.75q-14.5 5.1-20 3.5L91.25 64q-23.65-1.45-29.7 13.8l-5.05.4q5.4-10.8 19.75-17.7-20.35 5.3-24.3 22.65-6.45-5.75-13.7 12.35-1.6 8.5 1.5 15.7 4.95 11.55 22 19.8 5.8 1.65 11.05 1.35-1.5 6.15-10.6 8.55l-2.95.6q-23.3-2.9-29.25-28.75-.55 9.55 4.5 17.5l-4.95-3.9-1.35-1.05q-3.45-7.4-4.55-14.15 2.4-18.05 14.4-35.2L38.5 78v-2.1l.05-1.9q.25-5.25 1.5-9.45L44 69.5q-.15-13.35 7.1-17.45m50.65 28.2 23.5-10L111 92.5l28-1q-11.15 3.65-19.55 9L104 97.25l5-3-11.25-5q6.75-6.65.55-7l3.45-2m-41.1 18.9-.9-.75q-1.35-1.35-1.35-3.3 0-1.95 1.35-3.3 1.35-1.35 3.3-1.35 1.95 0 3.3 1.35l.7.85q.65 1.05.65 2.45 0 1.95-1.35 3.3-1.35 1.35-3.3 1.35-1.35 0-2.4-.6" fill="#fffeff"/><path d="M119.45 100.5q-2.8 1.75-5.25 3.7-18.7 3.7-37.45 19.55l20.75 2.5q1.6 4.5 6.35 10.25-8.95-3.55-24.1-5.5-3.35 1.15-6.95 1.35-5.25.3-11.05-1.35-17.05-8.25-22-19.8v-5.95q19.1 25.8 35.45 11.95 5.15-1.6 10.8-6.45 10.3-16.2-7.5-28.5l-5.2-.2q-4.2-4.2-11.75-4.25Q67.6 62.55 91.25 64L71.5 75.75q5.5 1.6 20-3.5L86.5 84l3.05-.7q5.8-1.25 8.75-1.05 6.2.35-.55 7l11.25 5-5 3 15.45 3.25m-95.8 10.65Q20 90.3 38.05 75.95q-12 17.15-14.4 35.2M47.7 50.1q-12.25 8.3-10 23.85Q31.6 78 27.4 82.7 15 76.95 16.25 54.75q.85-14.9 31.45-4.65m-26.65 42L20 94.55Q8.5 84.25 0 66.5l1.4-5.75Q8.7 78.1 21.05 92.1m97.45 41.55q-6.3-2.1-8-10.65 10.2-11.35 19.45-13.6-7.2 12.1-11.45 24.25" fill="#fad9a2"/><path d="M102 71.1q-2.15 6-.25 9.15l-3.45 2q-2.95-.2-8.75 1.05 5.8-1.95 12.45-12.2m12.2 33.1q-10.9 8.5-16.1 20.65l-.6 1.4-20.75-2.5Q95.5 107.9 114.2 104.2m-59.6-8.85-1.35.15q-.65-9.65 3.25-17.3l5.05-.4q7.55.05 11.75 4.25l-5.4.55q-11.05 2.15-13.3 12.75m20.6 21.85q-16.35 13.85-35.45-11.95v5.95q-3.1-7.2-1.5-15.7 7.25-18.1 13.7-12.35-2 8.85.3 20.85 9.7 17.35 22.95 13.2" fill="#e3aa85"/><path d="M62 44q-8.65 2.3-14.3 6.1-30.6-10.25-31.45 4.65Q15 76.95 27.4 82.7q-4.05 4.4-6.35 9.4Q8.7 78.1 1.4 60.75 14.25 14.05 62 44" fill="#e2a984"/><path d="m67.05 92.65-.7-.85q-1.35-1.35-3.3-1.35-1.95 0-3.3 1.35-1.35 1.35-1.35 3.3 0 1.95 1.35 3.3l.9.75q-.15.8-.15 1.7 0 3.5 2.45 5.95t5.95 2.45q1.75 0 3.25-.6 1.5-.65 2.7-1.85 2.45-2.45 2.45-5.95t-2.45-5.95q-2.45-2.45-5.95-2.45l-1.85.2m-11.1 3.1q1-4.15 4.2-7.4 3.5-3.5 8.1-4.35h.05l3.15-.3q3.1 0 5.75 1.05 3.35 3.05 4.05 7 3.45 11.5-8.9 17.25l-.6.25q-13.5 3-15.45-9.6-.3-1.8-.35-3.9" fill="#ffad32"/><path d="m67.05 92.65 1.85-.2q3.5 0 5.95 2.45t2.45 5.95q0 3.5-2.45 5.95-1.2 1.2-2.7 1.85-1.5.6-3.25.6-3.5 0-5.95-2.45t-2.45-5.95q0-.9.15-1.7 1.05.6 2.4.6 1.95 0 3.3-1.35 1.35-1.35 1.35-3.3 0-1.4-.65-2.45" fill="#ffe76f"/><path d="M77.2 84.75q3.05 1.15 5.5 3.6 4.7 4.7 4.7 11.3 0 6.6-4.7 11.25-4.65 4.7-11.25 4.7t-11.3-4.7q-4.6-4.6-4.65-11.15l.8-.1q1.95 12.6 15.45 9.6l.6-.25q12.35-5.75 8.9-17.25-.7-3.95-4.05-7" fill="#e5701d"/><path d="m103.85 136.5 2.4 2.75 8 3.6q3.6 7.9 1.25 13.15-19.75-15.5-39.5-5.5-24.35 4.75-38.35-10.35Q51.4 146 68 142.75l-5.8-1.85q9.1-2.4 10.6-8.55 3.6-.2 6.95-1.35 15.15 1.95 24.1 5.5" fill="#e6ac86"/><path d="M37.65 140.15q-5-5.35-8.65-13.15l.55-.65 4.95 3.9q-5.05-7.95-4.5-17.5 5.95 25.85 29.25 28.75l2.95-.6 5.8 1.85q-16.6 3.25-30.35-2.6" fill="#fbdaa3"/><path d="m118.5 133.65-2.35 7.3q-4.1-8.3-13.7-18 14.95-12.75 31.05-19.25l-3.55 5.7q-9.25 2.25-19.45 13.6 1.7 8.55 8 10.65" fill="#c5809d"/></g><g id="w" fill-rule="evenodd"><path d="M456.1 88.45q-4.75-14.15-18-14.05-29.15 10.8-21.25 31.05 12.45 9.5 13.65 20.85.4 3.75-.45 7.75 1.95-1 3.5-1.5 10.75-3.45 1.85 18.65l-3.75 8.45-.3.3q-4.6 4.45-8.95 7.25-13.55 8.7-24.75 1.65l13.2-6.4 12-16.2-1-1.8q-18.95.95-24-12.8-26.2-36.4-.6-61.6 79.45-29.1 78 34.4-3.8-1.8-9.2-11.6 4.75 15.8-2.8 20.8 3.65-20.45-7.15-25.2" fill="#4ba9e7" transform="translate(-163.65 72.3)"/><path d="M456.1 88.45q-10.15-4.4-32.85 4.8-3.55 6.9 6.8 18.4l2.15 14.4-1.7.25q-1.2-11.35-13.65-20.85-7.9-20.25 21.25-31.05 13.25-.1 18 14.05m-22.55 44.1-.7-2.1 2.4-15.2q15.5 5.5 11.45 18.45l-.55 1.55q-2.75 6.95-10.75 15.95 8.9-22.1-1.85-18.65m-79.75 5.35q7.2 1.65 14.25 5.35Q350.5 124.9 360 125.8q10.8 3.1 20.85 13.25 8.5 12.2 4.8 20.9-1.45 3.45-4.8 6.3-4.9 1.5-7.4-1-.7 5.75-4.4 7 1.5-6.5.55-12.3-2.15-12.65-15.8-22.05" fill="#7acfee" transform="translate(-163.65 72.3)"/><path d="M446.15 135.25q-2.35 12.65-9 24.3l-.5.4q-6.2 4.75-13.15 9l-1.1-1.75 1.05 1.8-13.6 7.35-21-.1-14 5.4-2.55-5.25q2.55.4 4.95 1.45l20.4-9q11.2 7.05 24.75-1.65 4.35-2.8 8.95-7.25l.3-.3 3.75-8.45q8-9 10.75-15.95M356.5 238.9q-.3-4.1-2.45-9.25 16.7-10.6 7.8-30.4-5.5-7.7-10.45-5.45-3 1.35-5.75 6.25-2.65 4.75-1.8 10.65-4.05-13.95 6.85-18.3l.7 1.4-.6-1.45q3.2-1.25 7.65-1.7 16.05-1.65 22.6 9.8-3.3 24.95-24.55 38.45m-8.15-54.35 2.1-1.9q8.5-5.55 15.85-6.4-8.25 9.35-17.95 8.3m-20.3-53.7q-2.9 4.85 7.4 6 9.25-1.1 18.35 1.05 13.65 9.4 15.8 22.05.95 5.8-.55 12.3-3.45 1.15-9.6-1.8.4-5.85-.4-10.5-3-18.05-23.2-18.9l-.7-.05q-11.2-4.05-7.1-10.15" fill="#c1edf3" transform="translate(-163.65 72.3)"/><path d="m437.15 159.55-.2.4q-7.65 13.15-20.9 24.9 18 38.75-32.4 56.55 5.6-8 8.8-16.95 14.9-9.35 16.8-28.8l2.8-7.6-9.6 9-.65-.1-4.35-.7q-6.05-9.3-10.8-10.4 12.4-4.25 23.2-9.5l13.6-7.35.05-.05q6.95-4.25 13.15-9l.5-.4m-45.9 95.85q10.6-6.55 22-17.75l4.95.15q-9.8 15.1-26.95 17.6m-63.2-124.55q16.7-9.5 31.95-5.05-9.5-.9 8.05 17.45-7.05-3.7-14.25-5.35-9.1-2.15-18.35-1.05-10.3-1.15-7.4-6" fill="#4baae8" transform="translate(-163.65 72.3)"/><path d="m383.65 241.4-11.2 3.45q4.45 8.15-4 19.2 10.95-1.4 22.8-8.65 17.15-2.5 26.95-17.6 3.95 3.65-4.95 25.85-26.35 27.75-52.65 20.8 15.55.5 28.85-11.8 7.7-7.55 0-7.4-32.95 7.45-57.95 1.15-12.05-3.1-22.25-9.35-12.4 1.55-23.65 4.25-11.9 2.8-22.55 6.95 9.7-9.45 22.55-14.2 10.15-3.8 22.25-4.65l7.4 4.25 33.6-1.8q8.35-3.9 7.65-12.95 21.25-13.5 24.55-38.45-6.55-11.45-22.6-9.8-4.45.45-7.65 1.7l-.1.05q-10.9 4.35-6.85 18.3l-1.3.85-.1-.15q-8.1-13.7 5.9-26.85 9.7 1.05 17.95-8.3l6 .15 2.55 5.25 14-5.4 21 .1q-10.8 5.25-23.2 9.5 4.75 1.1 10.8 10.4l4.35.7q.35 7.1-5.55 11.7-1.05 8.25-3.8 15.8-3.2 8.95-8.8 16.95m-108.2 4.45q5.1-3.25 10.15-5.5 24.05-10.95 45.9.25 3.3 1.65 6.55 3.85l-27.35 2.65q-8.8-8.8-25.1-3.85-4.45 1.3-9.5 3.7l-.65-1.1m5.65 47.6q1.95 1.1 4.5 2.1l3.25 1.1q18.1 0 17.6-7.8 9.8 1.7 2 10.7l-2 2.1.8 4.8q-18.05-.45-27-11.6l.85-1.4" fill="#87e5ff" transform="translate(-163.65 72.3)"/><path d="M360.6 284.45q-10.3-2.75-20.55-10.8l-8.55-1.9q-22.05-4.3-45.9-2.35l-2.75.25q-6 5.6-7.9 10.25-20.25-11.85-25.3 2.15-2.25 6.75 10.8 7.4-2.15 9.5-19.7-2.6l-.3-.2-4.9.95-.55.1q-17.3 2-33.15-11.9l-3.7-3.45 1.1-1.5q-18.15-7.3-35.6 0 13.65-13.45 31.9-12.15 17.25 13.85 36.1 13.75 22.1-2.35 34.2-20 5.35-3.25 10.25-5.5 5.05-2.4 9.5-3.7 16.3-4.95 25.1 3.85l-5.85.55 3 1.75q-12.1.85-22.25 4.65-12.85 4.75-22.55 14.2 10.65-4.15 22.55-6.95 11.25-2.7 23.65-4.25 10.2 6.25 22.25 9.35 25 6.3 57.95-1.15 7.7-.15 0 7.4-13.3 12.3-28.85 11.8" fill="#d9ffff" transform="translate(-163.65 72.3)"/><path d="M274.95 279.9q-3 7.35 4.15 12.35l-.75 1.2q-6.45-3.8-9.5 7.8-9.9.45-17.6-3.4-7.15 10.05-15.9 13.15 8.45-12.95-.95-13.05 3.45-2.55 6.65-6.7.05-2-1.3-2.9l1-1.5q17.55 12.1 19.7 2.6-13.05-.65-10.8-7.4 5.05-14 25.3-2.15m-81.9 5.2q.45-6 5.1-12.75l3.7 3.45-.85.45q-5.8 3.2-7.95 8.85m2.5-26.4q5.8.45 12.1 2.35-3.75-9.15-.2-19 1.25 4.2 2.85 7.6-4.25 20 22.15 19.8 25.5-6.25 24.85-20.05 8.55-3.1 18.15-3.55l.65 1.1q-4.9 2.25-10.25 5.5-12.1 17.65-34.2 20-18.85.1-36.1-13.75" fill="#89eaff" transform="translate(-163.65 72.3)"/><path d="M235.35 311q-15.9 5.55-37.1-11.95-5.85-6.4-5.2-13.95 2.15-5.65 7.95-8.85-3.95 11.25 9.45 21.8 13.2 7.75 23.95-.1 9.4.1.95 13.05" fill="#d8ffff" transform="translate(-163.65 72.3)"/><path d="M239.75 288.35q1.35.9 1.3 2.9-3.2 4.15-6.65 6.7-10.75 7.85-23.95.1-13.4-10.55-9.45-21.8l.85-.45q15.85 13.9 33.15 11.9l.55-.1q2.8-.2 4.2.75" fill="#55c1ff" transform="translate(-163.65 72.3)"/><path d="M210.3 249.65q8.2 17.3 26.15 12.6 9.5-8.8 20.85-12.85.65 13.8-24.85 20.05-26.4.2-22.15-19.8" fill="#dbffff" transform="translate(-163.65 72.3)"/><path d="m492-67 1.85-3.1h.1Q520.8-42.95 504-8l-2.8-1.95Q509.6-40.5 492-67" fill="#87e5ff" transform="translate(-163.65 72.3)"/><path d="M489.75-62.35q-4.9-7.1 6.9-9.95 28.35 3.8 18.2 34.15-5.85 9.2-7-.1-.25-26.15-18.1-24.1" fill="#4ba9e7" transform="translate(-163.65 72.3)"/><path d="M512.15-25.7q-3.65 15.55-5.65 19.65l-2.9-1.6q-.6-.45-.75-1.25-.1-.55 2.35-10.85l3.1-13.9q.95-6.1.45-11.6-.55-5.8 2.55-6.55 1.3-.35 2.4.55 1.15.85 1.5 2.55 1.1 5.4-3.05 23" fill="#4ba9e7" transform="translate(-163.65 72.3)"/></g><g id="x" fill-rule="evenodd"><path d="m326.85 231 .6.6 34.1 33.95-1 1.45-22.25-.25L326.85 231M78.75 368.4q-.65-6.65-8-17.1 12.4-21.55 34.5-19.75l-1.25 3q-14.5 12.4-25.5 9 5.45 42.8 14.2 45.6l2.3 5.15-17.2.15q2.2-3.25 2.95-7.9 1.8-10.35-2-18.15" fill="#ffae32"/><path d="m326.3 230.45.55.55 11.45 35.75 22.25.25-3.35 4.65-20.4-1.15q-10.45 14.95-24.8 24.45 11.35-11.4 22.05-28.15l-11.45-40.05 3.7 3.7m21 53.5q-36.4 41.9-95.15 64.1 1.15-10.25-1.1-23-14-16.75-28.5-28.35 16.35 11.4 32.7 26.6 18 0 28.25-8.8 6.2-2.45 12.2-6.25l-7.9 9.8q31.4-13.75 59.5-34.1m-99.6-11.65q-1.3 2.65-2.2 5.95 3.5 14.4 9.65 19.8-10.2 2.1-17.9-8.75l-1.1-2.2q-6.75-15 2.3-28.7.65 14.4 9.25 13.9M45.05 350.45q3.55 1.1 7.45 3.1-7.5 4.15-11.75 8.6-13.85 14.45 7.05 32.3-12.6-2.45-21.85-10.2l.55-.7q4-7.85 3.05-15.2 4-12.3 15.5-17.9M275.3 123.5q-12.1 21.2-33.55 37.8 10 22 7.05 50l.8-.6q-2.35 14.15 0 23.6 6.9-5.15 12.95-11.3 5.8-5.95 10.75-12.8.45 9.05 7.75 7.3l-10.6 31.3-3.65 5.75q-16-15.2-34.7-25.55 15.55-46.85 7.75-67.5l-.4-1.05-6.95-21.4q6-3.6 11.35-7.85 17.95-14.2 28.4-35.55-16.3 39.9 3.05 27.85M169.45 11q6.8-2.05 13.85-3.55-3.2 1.7-6.25 3.5l-.5.55-1.1.7q-37.1 19.2-46.8 52.15h-.1L108.3 65.9q4.2-8.15 7.5-17.15l3.45 1.2Q143.4 26.3 169.45 11M111.7 46.65Q97.65 57.8 87.05 67.9q9.9-12.2 20.9-22.05l3.75.8m-82.2 288.5q2.8 3.3 6.5 6.4 1.15-5.2 2.6-10.25l-1.7 16.55q-9.9-2-16.3 5.95l-1.9-7.75 10.8-10.9m63.2 54q-8.75-2.8-14.2-45.6 8.15 15.8 18.7 25.4-2.55 10.55 1.75 17.2l-3.7 2.95-2.55.05" fill="#b84a13"/><path d="m327.45 231.6-1.15-1.15-3.7-3.7-1-1q.4 18.2-8.95 34.4-12.4 21.45-41.9 39.4-9.25 4.1-15.6-1.5-6.15-5.4-9.65-19.8.9-3.3 2.2-5.95 6.45-13.45 22.85-11.25-5.2-5.35-11-10.2-9.25-7.8-20-14.5-3-1.85-6.1-3.6l-2.65-1.5-.6 3.35q-4.7 22.6-21.9 40.4l-7.8 7.3q11.15 5.75 22.05 14.4 14.5 11.6 28.5 28.35 2.25 12.75 1.1 23 58.75-22.2 95.15-64.1 5.2-5.95 9.9-12.3l3.35-4.65 1-1.45-34.1-33.95m-304.4 123q-3.8 3.9-6.55 10.45-9.85-5.65-16.5-24 12.8-3.45 20-12.5l-3.5-10-5.5 2.5q-13.2-13.65 14.5-54.5-4.05-.95-4.5-5.5 20.3-10.15 30.5-40.5-7.4 4.6-13 0 1.05-9.3 6-16.25 2.85-4 7-7.25l-17.5 7.5q1.65 12.9-2 17-8.15 4.2-21.15-17.25l-3.35-5.75q-6.2-11.75-1.45-23.5 4.4-11 18.45-22.05-4.75-29.95 6.55-53.3Q35.95 89.45 44 80.5q5.3-23.55 12.5-11-6.2 17.65-8.15 30.2-1 6.6-.85 11.8 2.9-6.1 6.25-11.8 11.2-19 27.75-33.7 46.6-60.2 118-66 6.45 5.3-17.5 13.95-10.75 6.15-19.05 13.4-9.8 8.6-16.1 18.85-3.8 6.1-6.35 12.8 10.6-3.2 18 0 22.75-25.8 27.5-15.55l-9 18q28.85 9.7 45 33.5 58.6-33.35 59.55-85 8.15-8.6 14.7 29.6l.1.65.15 1.25q9.4 72.5-47.45 121.05 5.7 15.55 5.5 35.05 16.9-10.35 42.5-38.05 6.55-.3 6 10-5.8 56.35-30 85.05 9.6 13-3.5 13-22.45-.6-16 21 11.6 18.6 39-10.55 27.7-23.9 25.5-62l47.05 48.55q-36.7 59.1-113.55 87.65-3.85 20.8-23 30.35-36.05 11.15-55.9-4.3l-2.5-2.1q-18.05 7.3-33.35 7.6-.65 20.35-14.35 35l-.3.35h-.05q-35.7 25.8-62.9-19.3 11 .55 18-8.5 8.15-21.5-14.45-34.75Q77.9 319.1 107.3 327q15.9-33.35 46.5-41.75l.7-.2-.65.05h-.05q-12.1.25-25.6-10.8 2.5 14-3.2 25.25-5.4-2.2-9.2-7.6-7.15 12.6-15.75 16.2l.05-.1-.05.1.05-.15 1.15-2.2q-.45.3-.8 1.25 3.15-9.95 2.6-22.5 4.15 9.15-1.8 21.25 6.3-4.95 13.3-15.75-2.05-3.45-3.55-8 5.3 8.9 13.05 14.5 3.85-10.25 3.2-24.3l-.25-3.2.6 2.4v.05q4.75 3.8 9.7 6.35 8.2 4.25 17.1 5.2 1.65-6.1 4.1-12.05l2.75.15 11.4 1.4 1.6.3Q185.2 259.7 193.3 239q8.15-25.6-3.5-60.7-21.15-.8-27.75-24.05 7.15-2.25 12.15-8.85l1.35-1.9q-15.25-1.6-23.75-9-2.85 0-5.25-1.2-3.75-1.9-6.5-6.55l5.05 3.35 6.7 4.4 14.25-21.75-21.9-1.25q-8.9-1.05-17.65-3l-1.45-.35q-27.15 21.35-59.3 36.1l-14.8 15.25q-7.35-1.15-10-5.15l-2.05.75-3.45 1.2-2.9-1-1.4-.5-.95-.3q-12.8 11.25-17.45 20.55-4.3 8.7-1.55 15.7 1.25 3.3 2.8 6.4 1.8 3.7 3.95 7.15 4.7 7.5 11 13.7-.85-7.6-.3-13.7.5-6.1 2.4-10.7 2-4.95 5.65-8.1 7.35-6.95 13.95-10.45l1.4-.7q5.8-2.75 11.05-2.85h.9l-.8.35q-3.85 1.6-7.15 3.2-5.5 2.6-9.7 5.25l-4.3 2.9q-7.35 5.45-9.65 11.05-1.4 3.35-.95 6.75 16.05-11.45 28.7-13.35h.05l.8-.15.05.15q3.5 10 12.35 8.7l.35.7q-8.6 4.2-12.2-4.75-.8-1.9-1.35-4.35L56.45 190l-.4 2.95Q55 199 52.4 204.3q-3.55 7.2-9.95 12.95 6.65.7 15.75-5l1.85-12 .75-4.7.1 4.75-.1 4-.15 2.7-.05.45q-1.5 18.45-10.7 32.4 6.15.35 13.15-5.5l.35-.3.6 1.1-.25.1.15 1.05.45 2.25q-2.05 9.1 1.65 17.2l5.25-6.25q1.45 10.4 5.95 19l1.8 3.25q6.95-2.35 13.9-16.25-.25-3.65-.95-6.7l-.7-2.5.95 1.65q1.85 3.75 2.4 10.55l.15 7q8.25-8.1 14.8-22.2-1.65-2.75-3-5.8-1.15-2.6-2.05-5.5 1.55 3.35 3.45 6.35 4.1 6.5 9.85 11.4l3.8-7.7q.55 7.15-3.1 11.2-4.45-3.45-7.75-8.15-7.3 15.95-18.5 24.2.75-5.8.75-10.65-5.7 11.3-14 16.4-7.05-10.2-8.3-23.25l-4.75 7.75q-5.55-6.65-3.2-22.1-4.7 4.15-10.8 4.2l-3.15-.2q-8.4 11.8-22.6 20.3h10.75l-1 1.2q-28.7 34.65-22.5 52.35l7.05-11.1.5-2.8.15.05q-1.25 25.6 13.6 35.35 5.2-26.7 19.75-43.75-1.85 15.85 5 28.75 8.3-22.05 22.05-37.6l4.45-4.7.05.45-2.4 3.1q-1.25 1.6-2.35 3.25.95 19.55 7.7 27.5 3-26.25 14-30.25l-.5.6q-11.35 13.7-11.5 34.9-9.3-7.05-11.3-30.45-12.35 18.2-17.7 39.45-10.7-8.2-8.85-32.55-6.85 12.55-11.55 26.2l-2.55 27.4-2.3-.15q-8.05-.1-13.7 5.65m17.7 7.55-.05 2.15-.3.45q-8.6 13.5 7.4 29.7l1.35.25 10.35.9-10 12Q21.65 419.95 8 377.1l5.5-8q5.2 9.15 12.45 15.15 9.25 7.75 21.85 10.2-20.9-17.85-7.05-32.3m-.05 2.75q.05 18.25 8.45 29.75l-.7-.75q-12.2-13.65-7.75-29M286.75 22.35l-.95-4.4q-3.35 53.55-66 84.3l-3.45-4.6-4.25-5.25q-7.55-8.95-15.15-14.95-13.85-11-27.7-12.2-13 15.5-27.6 28.85 15.9-5.85 26.65.05 9.75 5.3 15.25 20.35 5.05 14.5-7.75 32.75 6.2 7.15 10.85 16.4 11.15 22.35 12.9 56.9-3 23.8-14.1 40.5l-4.45 6-4 4.5-1.35 1.6q8.8 1.95 17.4 5.65 2.65 1.1 5.3 2.4 5.25-4.95 9.7-10.15 16.8-19.8 21.75-43.3l2.3 1.25q18.7 10.35 34.7 25.55l3.65-5.75q21.25-35.3 27.35-82.05l-5.7 6.1q-13.65 14.25-28.45 26.7L249.6 210.7l-.8.6q2.95-28-7.05-50 21.45-16.6 33.55-37.8Q299 81.8 286.75 22.35M175.45 12.2l1.1-.7.5-.55q3.05-1.8 6.25-3.5-7.05 1.5-13.85 3.55-34.15 10.25-61.5 34.85-11 9.85-20.9 22.05 10.6-10.1 24.65-21.25l6.55-5.15-2.45 7.25q-3.3 9-7.5 17.15-7 13.6-16.45 25 12.95-6.5 27.4-10.4l-2.5 5.25q7.55-4.4 15.75-8.75l24.8-13.25q-12.9-.7-26.75 3.25l.95-2.9v-.05q12-31.25 43.95-51.85m-34.7 126.3q6.4 5.85 15.3 8.5-2.85 3.15-8.5 5.15l-2.75.85 8-5.25q-8.1-2.55-12.8-7.85-2.3-2.6-3.75-5.9l.2-.15q1.95 2.5 4.3 4.65m-1.5 66.55 1.5 2.65q12.7.85 20.75-6.45-9.5-5.8-11.25-16.75.85 2.05 1.95 3.9 4.4 7.4 12.8 11.85-8.6 10.3-23.85 8.25 2.9 6.15 3.6 14.5-6.65.85-10.2-1.05 0 17.15-7.55 25.8l-4.75-6.2-.25-.3 5.3 3.5q5.05-12.4 5.6-23.9-1.25-1.15-1.9-2.85 1.85 1.4 3.65 2.15 4.05 1.7 8.1.35l-4.15-15.1-.6-2.15 1.25 1.8m23.9-17.05 6.4-7.25q-4.7-2.35-8.25-5.7-8.05-7.55-10.25-20.05 3.25 11.6 13.6 20.05l2.65 2 4.5 2.95q-.85 2.2-2.1 4-2.3 3.15-6 4.9l-.15.05-2 .8 1.6-1.75m10.9-34-6 3.75q6.2 9.2 14.25 12.75l-8.25-16.5m1.5-15.75q6.95-14.5-1-30-20-20.55-37.3-3.25 14.15 2.75 33.05 1.75 4.85 8.05-10.25 27.25l15.5 4.25m-4.75 51.85 1.85 2.1q8.15 8.9 18.9 12.05l-3 6.25-.05-4.75-.1-.05q-10.6-4.95-15.75-12.45l-1.85-3.15m.75 22.95 7.75 11.7-1.65 1.1-4.1 2.65 3.25-4.75-10.15-18.15 4.9 7.45m7.75 19.2q3.2 4.1 5.25 11.25-5.6 2.95-11.9 1.7l-1.2-.3 1.2 3.85q1.9 5.35 4.65 10.25l-2.85 2-1.8.9q-3.85 1.65-8.35 1.6l10.5-4.5-2.15-5.55q-3.1-9-2.85-15.45.65 3.55 1.65 6.9l1.2-.05q6.1-.5 10.15-2.35l-3.5-10.25M94.05 85.4q13.1-20.45 19.75-37.65-14.75 10.7-27.95 24.15-9.2 9.35-17.65 20.05Q75.3 84.1 82.75 78q.35 9.6-4.1 20.35 5.4-3.45 11.05-6.4l1.2-1.7 3.15-4.8v-.05m19.85 2.05.85-3.45q-17.55 5-34.4 15.7l-3.25 2.15q-6.5 13.45-20.3 28.75 15.4-15.8 37.7-30.9 9.1-6.2 19.4-12.25M92.1 128.1q18.1-10.8 34.4-24.2 26.85-22.1 48.8-51.4-7.6 5.9-17.25 12.25-10.6 6.9-23.7 14.4-10.8 6.1-23.3 12.6-6.75 3.95-12.95 7.95-28.55 18.45-44.8 37.5-6 7-10.3 14.1 26-9.45 49.1-23.2M75.8 87.3l-4.15 4.3-7.2 8.1q-12.8 15.15-23.25 33.35l-.9 7.3-1 7.5q24.95-27.9 35.1-48.15 4.6-9.3 6.15-17l-4.75 4.6m-14.1 80.1-.9-1.45q7.2-3.9 13.15-1l.15.05.1.05 1.55.9q-.4 1.7-1.45 3.1-2.1 2.8-6.8 4.45 5.7-4.05 6-7.25-6.25-2.25-11.8 1.15m-24.95-14.15 7.75-63q-3.35 4.6-5.95 9.45-12.7 23.8-7.1 54.05l5.3-.5m21.2-2.65 2.95-2.95-17.5 7.25q.7.95 2 1.65 1.9.95 5.1 1.35l7.45-7.3m45.3 19.15q-4.8 4.55-9.55 3.85l-.2-.9q3.25-.5 7.25-2.95.15-4.35-3.75-8.75 4.45 2.05 6 7.65l.25 1.1m-10.7 10.55q1.2-.25 2.2-.8-.5 6.05-8.7 1.6-2.05-1.1-4.55-2.85 2.6 1.1 4.85 1.65l6.2.4m-3.05 12.2q-9.85 6.7-12.25-9 3.45 10.8 12.25 9M95 144q14.7-3.75 10 7 .4-7.65-10-7m66.75 132.2h-.4l-1.05 2.65q-15.4 40.85 7.05 88.6 2.45 3.15 5.3 5.65 11.15 9.75 28.35 9.65 11.05-.15 24.6-4.3 4.25-2.15 7.75-4.9 15.45-12.4 14.1-37.2-.3-5.05-1.25-10.6-35.1-42-73.55-48.45l-7.5-.9-3.4-.2M20.6 353.8q6.4-7.95 16.3-5.95l1.7-16.55q-1.45 5.05-2.6 10.25-3.7-3.1-6.5-6.4-2.65-3.1-4.55-6.4-7.45 11.15-19 15.8 1.45 10.5 10.5 16.25 1.85-4.15 4.15-7m30.2 42.35q-26.95-.35-37.3-27.05l3 15q2.25 5.55 5.05 9.5 5.25 7.4 12.55 9.1 5.75 1.35 12.85-.9 5.85-1.85 12.55-6.2l-8.7.55m27.95-27.75q3.8 7.8 2 18.15-.75 4.65-2.95 7.9l-.65.9q18.65 8.9 31.6-1.75-6.7-2.7-9.8-7.45-4.3-6.65-1.75-17.2-10.55-9.6-18.7-25.4 11 3.4 25.5-9l1.25-3 1.2-2.75q-25.95-5.35-40.7 26.5 9.25 5.3 13 13.1m68.85-50.75q-10.95 6.8-9.35 23.4 3.05 17.7 21.4 16.95-8.2-21.65-9.05-41.95l-3 1.6m3.25-14.4.3-3.6q.65-5.85 1.95-11.6-16.75 7.4-27.9 18.15-8 7.7-13.05 17.1-3.1 5.7-5.15 12-5.3 4.5-10.6 7.25-6.75 3.45-13.55 3.95l-1.1.05q20.55 33.75 52.65 34.55 4.3-3.15 2.7-10.1 11.2 3.85 26.7-3.1l-1.1-2.5-2.25-5.35q-19.2 2.6-23.7-12.75l-.5-4.75q-2.05-25.65 14.3-28.4-.15-5.5.3-10.9m-37.15 85.3q2.5-3.15 4.8-7.25-8.2-2.5-15.4-7.6l-4.55-3.55q-.65 3.2-.3 6.25.6 5.55 4.45 10.6 2.45 3.25 6.35 6.35 2.4-2.05 4.65-4.8m1.85 32.2q18.95-16.4 19.1-37-7.15-.1-13.65-1.75-6.4 10.8-14.25 15.7-13.5 8.45-31.2-.65-1.65 1.45-3.7 2.5-3.95 1.95-9.6 2.3l4.65 6.05.05.05q20.9 24.85 46.35 14.65l2.25-1.85m94.2-107.05q5.85 1.8 10.45 6.75 7.4 7.9 7.4 19.1 0 11.2-7.4 19.1-7.4 7.9-17.9 7.9-9.9 0-17-7l-.9-.9q-6.1-6.5-7.15-15.2l-.25-3.9q0-11.2 7.4-19.1 7.4-7.9 17.9-7.9 3.95 0 7.45 1.15m15.1 25.65q0-10.05-6.65-17.1-6.65-7.1-16.05-7.1-9.45 0-16.05 7.1-6.65 7.05-6.65 17.1t6.65 17.15q6.6 7.1 16.05 7.1 9.4 0 16.05-7.1t6.65-17.15" fill="#712131"/><path d="M357.2 271.65q-4.7 6.35-9.9 12.3-28.1 20.35-59.5 34.1l7.9-9.8q8.3-5.35 16.3-13.3 14.35-9.5 24.8-24.45l20.4 1.15m-123.75-38.9q3.1 1.75 6.1 3.6l4.2 17.4q7.9-5.7 15.8-2.9 5.8 4.85 11 10.2-16.4-2.2-22.85 11.25-8.6.5-9.25-13.9l2.3-3.15-7.3-22.5M21.55 393.6q-2.8-3.95-5.05-9.5l-3-15q10.35 26.7 37.3 27.05l-3.85 5.65q-7.1 2.25-12.85.9 4.6-14.15-12.55-9.1m56.25.85 17.2-.15-2.3-5.15 2.55-.05 3.7-2.95q3.1 4.75 9.8 7.45-12.95 10.65-31.6 1.75l.65-.9m58.45-51.9.5 4.75q4.5 15.35 23.7 12.75l2.25 5.35q-18.9 4.55-32.25-3-5.85-27.45 5.8-19.85m.85 28.45q1.6 6.95-2.7 10.1-32.1-.8-52.65-34.55 21.3 15.65 40.9 12.35 6 9.1 14.45 12.1m-30.35 26.7q7.85-4.9 14.25-15.7 6.5 1.65 13.65 1.75-.15 20.6-19.1 37-22.5 4.8-32.8-3.95 29.75 1.55 33-20.5l-9 1.4" fill="#e5701d"/><path d="M219.8 102.25q62.65-30.75 66-84.3l.95 4.4q.05 43.55-14.5 73.3-10.45 21.35-28.4 35.55 38.8-52.4 19.45-55.45-29.4 28.25-43.5 26.5m43.85 97.3q14.8-12.45 28.45-26.7-7.15 21.25-18.8 37.35-4.95 6.85-10.75 12.8l15.5-27.25q-7.55 4.3-14.4 3.8" fill="#f8eb7c"/><path d="M286.75 22.35Q299 81.8 275.3 123.5q-19.35 12.05-3.05-27.85 14.55-29.75 14.5-73.3m5.35 150.5 5.7-6.1q-6.1 46.75-27.35 82.05l10.6-31.3q-7.3 1.75-7.75-7.3 11.65-16.1 18.8-37.35M115.8 48.75l2.45-7.25-6.55 5.15-3.75-.8q27.35-24.6 61.5-34.85-26.05 15.3-50.2 38.95l-3.45-1.2" fill="#dd7239"/><path d="M168.3 94.15q-10.75-5.9-26.65-.05 14.6-13.35 27.6-28.85 13.85 1.2 27.7 12.2 1.7 18.3-3.9 31.05-12.35-15.15-24.75-14.35m7.15-81.95Q143.5 32.8 131.5 64.05v.05l-.95 2.9q13.85-3.95 26.75-3.25L132.5 77q-8.2 4.35-15.75 8.75l2.5-5.25q-14.45 3.9-27.4 10.4 9.45-11.4 16.45-25l20.25-1.55h.1q9.7-32.95 46.8-52.15" fill="#e79c51"/><path d="m232.1 229-2.3-1.25q-4.95 23.5-21.75 43.3-8 6.8-15 7.75-8.6-3.7-17.4-5.65l1.35-1.6q48.3-.8 53.1-92l.45-14.25q-26.75-17.7-18.45-72.9l4.25 5.25q1.8 46.8 23.45 63.9l.05-.05q7.8 20.65-7.75 67.5" fill="#ed7525"/><path d="M186.65 163.65q-4.65-9.25-10.85-16.4 12.8-18.25 7.75-32.75-5.5-15.05-15.25-20.35 12.4-.8 24.75 14.35 5.6-12.75 3.9-31.05 7.6 6 15.15 14.95-8.3 55.2 18.45 72.9l-.45 14.25q-14.3 11.8-43.45-15.9" fill="#fbb33d"/><path d="M146.55 133.3q2.4 1.2 5.25 1.2 8.5 7.4 23.75 9l-1.35 1.9q-9.6 5.75-17.65 3.6-.6 13 9.2 26.05l1.55 2-2.65-2q-10.35-8.45-13.6-20.05 2.2 12.5 10.25 20.05 3.55 3.35 8.25 5.7l-6.4 7.25q-5.95 2.45-10.95.4-1.1-1.85-1.95-3.9 1.75 10.95 11.25 16.75-8.05 7.3-20.75 6.45l-1.5-2.65q5.9-1.4 8.55-6.8-4.25-5.95-4.25-20.5 5.3 5.9 12.25 5.25-2.6-3.75-4.35-7.95-4.4-10.25-3.9-22.9 5.65-2 8.5-5.15-8.9-2.65-15.3-8.5 5.2 2.1 9.55 0l-3.75-5.2" fill="#ac404b"/><path d="m167.3 177.05-1.55-2q-9.8-13.05-9.2-26.05 8.05 2.15 17.65-3.6-5 6.6-12.15 8.85 6.6 23.25 27.75 24.05 11.65 35.1 3.5 60.7-8.1 20.7-19.05 33.85l-1.6-.3-11.4-1.4q7.25-1.45 11.4-7.2l1.8-2.95 2.85-2q-2.75-4.9-4.65-10.25l-1.2-3.85 1.2.3q6.3 1.25 11.9-1.7-2.05-7.15-5.25-11.25l-1.65-6.4 1.65-1.1-7.75-11.7 1.1.65q8.7 4.9 15.9-3.2l3-6.25q-10.75-3.15-18.9-12.05l-1.85-2.1-.05-.1q1.15-1.4 1.9-3.55l.15-.45-3.1-2q1.25-1.8 2.1-4l-4.5-2.95" fill="#934460"/><path d="M40.7 364.3v.6q-4.45 15.35 7.75 29l.7.75v.05l-1.35-.25q-16-16.2-7.4-29.7l.3-.45m111.5-175.9q5 2.05 10.95-.4l-1.6 1.75 2-.8.15-.05q3.7-1.75 6-4.9l3.1 2-.15.45q-.75 2.15-1.9 3.55-2.15 2.6-5.7 2.75 5 8.1 2.5 12l-.9.85-6.1 5.65q-.1 3.55 1.6 7.1-4.4 2.6-9.6 1.15 3.95 9.1 0 17.25V247l-1.25-1q1-9.25-8.25-13.75-6.45 8.3-6.5 19l-4.8-1.7q.55 14.55-8 5.5l-5.75 5.5q-10.2-5.55-15 15l-1.75-6.75-6.25 5.9-6.25 5.85v-6.5q-10.55 10.2-16.25 10-.4-7.6-1.75-13.05-1.4-5.45-3.75-8.7-2.4 4.3-3 11.25-7.85-3.75-10.25-15.25-11.3 10.95-18.3 22.75-.35-8.6 6.05-22 17-10.8 10.45-16.75v-.65q6.1-.05 10.8-4.2-2.35 15.45 3.2 22.1l4.75-7.75q1.25 13.05 8.3 23.25 8.3-5.1 14-16.4 0 4.85-.75 10.65 11.2-8.25 18.5-24.2 3.3 4.7 7.75 8.15 3.65-4.05 3.1-11.2l.65-.5 4.75 6.2q7.55-8.65 7.55-25.8 3.55 1.9 10.2 1.05-.7-8.35-3.6-14.5 15.25 2.05 23.85-8.25-8.4-4.45-12.8-11.85m-89.1-16.9q-.45-2.25-1.4-4.1 5.55-3.4 11.8-1.15-.3 3.2-6 7.25l7.6.8-1.5.75L69 177v9.25l4.4 10.1q-8.85 1.3-12.35-8.7l-.05-.15q2.5-7.05 2.45-12.45l-.25-3.2.8-.35h-.9m-6.2-9.3q-2.5-1.7-5.95-2.7l14.8-15.25q32.15-14.75 59.3-36.1l1.45.35q8.75 1.95 17.65 3l2.4 3.5-11.35 1.1-9.65.9.95.7q6.6 5.2 9.5 15.6l-.2-.3.4.9-.05.05q-4.85-3.7-9.65-5.85-14.4-6.45-28.25 1.15-5.85 4.95 12 4-38.2 9-32 12.25L96 140.75Q87.55 151.3 66 154l-9.1 8.2m-.85 30.75.4-2.95 3.75-2.05q.55 2.45 1.35 4.35 3.6 8.95 12.2 4.75l2.25-1.3q-.75-10.75 1.25-12.25 2.4 15.7 12.25 9-4.6-6.65-3.45-11.4 8.2 4.45 8.7-1.6-1 .55-2.2.8l1.15-6.7q4.75.7 9.55-3.85l.4-.75 1.85 1-3.25-11.75 6.25 2.5q1-4.4-2-10.75 4.55-3.55 10.75-2l-4-9q5.75 2.2 9.75 13.25h-1.75v6.25q-5.3-4.65-11.5-2.75 2.75 5 4.15 10l.15.45q1.2 4.45 1.35 8.85l-.15 5.2q-2.85-3.95-6.5-5.2l-6.25-.3.25.3q5.6 7.35 5.5 14.7-7.05-5.7-15.65-2.8-.15 9.95-2.05 17.35l-.05.2-3-3.25v3.25l-4-5.75q.2 2.9 1.85 5.55 1.4 2.3 3.9 4.45-8.95.95-16.25-3 4.35 4.75 4.75 12.5-.2 3-1.2 3.75-1.6 1.25-5.3-3.75-1 14.1-7.25 16.9l-.6-1.1q-3.6-12.05-2.8-26.6l.05-.45.15-2.7.1-4-.1-4.75-.75 4.7q-.05-6.6-4-7.3" fill="#e2a984"/><path d="m166.65 205.6.9-.85q2.5-3.9-2.5-12 3.55-.15 5.7-2.75l.05.1 1.85 3.15q5.15 7.5 15.75 12.45l.1.05.05 4.75q-7.2 8.1-15.9 3.2l-1.1-.65-4.9-7.45" fill="#a9414e"/><path d="M208.3 275q17.2-17.8 21.9-40.4 5.6 1.45-1.25 34l-.25.9q-.6 1.9-.75 3.65-18.9 11.4-19.65 1.85m31.25-38.65q10.75 6.7 20 14.5-7.9-2.8-15.8 2.9l-4.2-17.4m15.6 61.7q6.35 5.6 15.6 1.5 29.5-17.95 41.9-39.4-2.45 25.6-30.65 54.95-12.4 4.5-25.45 3.45-33.85-24.5-28.75-43.5-.05 8.1 8.35 12.05l1.1 2.2q7.7 10.85 17.9 8.75M39.05 349.1q2.85.3 6 1.35-11.5 5.6-15.5 17.9-.95-7.1-6.5-13.75 5.65-5.75 13.7-5.65l2.3.15M249.6 210.7l14.05-11.15q6.85.5 14.4-3.8L262.55 223q-6.05 6.15-12.95 11.3-2.35-9.45 0-23.6M216.35 97.65l3.45 4.6q14.1 1.75 43.5-26.5 19.35 3.05-19.45 55.45-5.35 4.25-11.35 7.85l6.95 21.4.35 1.1q-21.65-17.1-23.45-63.9M21.55 393.6q17.15-5.05 12.55 9.1-7.3-1.7-12.55-9.1m141.15-28.2 1.1 2.5q-15.5 6.95-26.7 3.1-8.45-3-14.45-12.1l2.15-.45q2.7 2.25 5.65 3.95 13.35 7.55 32.25 3m-55.95 32.3 9-1.4q-3.25 22.05-33 20.5 10.3 8.75 32.8 3.95l-2.25 1.85q-25.45 10.2-46.35-14.65 7.9 5.6 20.05 5.35 10.95-2.65 7.5-7-14.4-1.85-22.65-6.75 2.05-1.05 3.7-2.5 17.7 9.1 31.2.65" fill="#ffad32"/><path d="m177 271.55 4-4.5q17.25-1.7 37.05-45.05 3.45-17.7-13.25-2.5-8.55 29.5-19.35 41.55 11.1-16.7 14.1-40.5-1.75-34.55-12.9-56.9 29.15 27.7 43.45 15.9-4.8 91.2-53.1 92" fill="#f6e97c"/><path d="M93.25 69.75q-2.6-.4-7.4 2.15 13.2-13.45 27.95-24.15-6.65 17.2-19.75 37.65 3.35-10.2 1.7-13.75 3.05-4.1 4.25-8.15-3.95 2.35-6.75 6.25" fill="#b13f47"/><path d="M85.85 71.9q4.8-2.55 7.4-2.15-2.8 3.85-4.55 9.25 4.3-3.7 7.05-7.35 1.65 3.55-1.7 13.75v.05l-3.15 4.8-1.2 1.7q-5.65 2.95-11.05 6.4Q83.1 87.6 82.75 78 75.3 84.1 68.2 91.95q8.45-10.7 17.65-20.05" fill="#e5aa86"/><path d="M93.25 69.75q2.8-3.9 6.75-6.25-1.2 4.05-4.25 8.15Q93 75.3 88.7 79q1.75-5.4 4.55-9.25" fill="#fffdfd"/><path d="M113.9 87.45Q103.6 93.5 94.5 99.7q-22.3 15.1-37.7 30.9 13.8-15.3 20.3-28.75l3.25-2.15Q97.2 89 114.75 84l-.85 3.45" fill="#ffb634"/><path d="M134.35 79.15q13.1-7.5 23.7-14.4 9.65-6.35 17.25-12.25-21.95 29.3-48.8 51.4-16.3 13.4-34.4 24.2l11.2-11.1q-26.9 14.75-49.95 20.2l21.9-17.7q24.35-5.85 44.05-19.8l3-2.2L82 114l52.35-34.85" fill="#fc3a4c"/><path d="M53.3 137.2q16.25-19.05 44.8-37.5 6.2-4 12.95-7.95 12.5-6.5 23.3-12.6L82 114l40.3-16.5-3 2.2q-19.7 13.95-44.05 19.8l-21.9 17.7h-.05m-20.75 18.1L20.2 173l.8 2.05q3.75 10.8-6.8 10.95l1.1 10.55-4.1-5.8q-2.75-7 1.55-15.7 4.65-9.3 17.45-20.55l.95.3 1.4.5m118.6 144.35-.3 3.6q-28 2.65-28.6 52.85l2.55 2.35-2.15.45q-19.6 3.3-40.9-12.35l1.1-.05q17.6 7.2 35.15 9.8 1.95-32.35 14.1-46.35 7.55-8.7 19.05-10.3m-7.4 43.8q.05-.8.55-1.35.6-.55 1.45-.55l.8.15.6.4q.6.6.6 1.45t-.6 1.4q-.55.6-1.4.6-.85 0-1.45-.6-.55-.55-.55-1.4v-.1m1.3-8.55q0 1.4-.75 2.4-.7 1-1.75 1t-1.8-1q-.65-.95-.7-2.25l.3-1.75.35-.7.05-.1q.75-1 1.8-1t1.75 1l.65 1.35.1 1.05m47.45-7.45q1.1-.45 2.4-.45 2.65 0 4.5 1.85t1.9 4.4v.15q0 2.65-1.9 4.5-1.85 1.9-4.5 1.9t-4.55-1.9q-1.85-1.85-1.85-4.5t1.85-4.55q.95-.95 2.15-1.4m8.2 19.45q1.3 0 2.2.9.95.95.95 2.25t-.95 2.2q-.9.95-2.2.95-1.3 0-2.25-.95-.9-.9-.9-2.2 0-1.3.9-2.25.95-.9 2.25-.9" fill="#fffeff"/><path d="M62.3 113.7q4.55-6.9 8.1-14 3.05-6.1 5.4-12.4l4.75-4.6q-1.55 7.7-6.15 17-10.15 20.25-35.1 48.15l1-7.5q12.95-12.9 22-26.65" fill="#f2761e"/><path d="m127.6 271.45-.6-2.4.25 3.2-3.25-.45q-2.95 17.65-13.25 2.5l-3 13.75-6.5-10.25-3.75 4.95-2.5-8.05 6.25-5.9 1.75 6.75q4.8-20.55 15-15l5.75-5.5q8.55 9.05 8-5.5l4.8 1.7q.05-10.7 6.5-19 9.25 4.5 8.25 13.75l-5.5-5.75q.7 12.4-4 16.75l-3.05-4.75q-7.25 7.15-3.75 19.2h-7.4M71.65 91.6l4.15-4.3q-2.35 6.3-5.4 12.4-3.55 7.1-8.1 14L46.95 129l24.7-37.4M60.8 165.95q-1.5-2.2-3.9-3.75L66 154q21.55-2.7 30-13.25l-17.75 4.75q-6.2-3.25 32-12.25 10.05-.95 11.5 5.75-4.25-2.75-8.5 0l4 9q-6.2-1.55-10.75 2 3 6.35 2 10.75l-6.25-2.5L105.5 170l-1.85-1-.65-.35q-1.55-5.6-6-7.65 3.9 4.4 3.75 8.75-4 2.45-7.25 2.95l-2.5.05 2.7.85-1.15 6.7-6.2-.4q-2.25-.55-4.85-1.65 2.5 1.75 4.55 2.85-1.15 4.75 3.45 11.4-8.8 1.8-12.25-9-2 1.5-1.25 12.25l-2.6.6-4.4-10.1V177l4.6-1.95 1.5-.75q8.45-4.55 10.15-11.05-5 6.85-10.95 5.8 1.05-1.4 1.45-3.1l-1.55-.9-.1-.05-.15-.05q-5.95-2.9-13.15 1m-12.45-10.8-.1-.45q0-.5.3-.85.35-.3.85-.3t.8.3l.25.3.1.55q0 .5-.35.8-.3.35-.8.35t-.85-.35l-.2-.35M95 144q10.4-.65 10 7 4.7-10.75-10-7M70.75 271q1.35 5.45 1.75 13.05 5.7.2 16.25-10v3.25l-2.55 2.45-.2-.25-4.45 4.7q-9.35 3.95-22.3 20.35l-6-17.75q-11.45 10-18.55 23.3 4.45-16.65 17.25-36.05 8.15 24.5 14.8 11.5l4-14.55m15.3 8.95q1.1 9.45 8.85 6.15l.25-.3L87 296.3l-3.35-13.25 2.4-3.1m74.25-1.1 1.05-2.65h.4l21.15 32.35q-6.8 4.05-10.25 13.5-2.95 8.1-3.5 20.05-.15 2.15-.15 4.45.45 8.45 3.65 15.15 2.9 6 8 10.6-4.75-2.55-8-6.9-9.25-12.55-6.15-40.1 7.55-26-6.2-46.45M46.95 401.8l3.85-5.65 8.7-.55q-6.7 4.35-12.55 6.2" fill="#fff"/><path d="M92.1 128.1Q69 141.85 43 151.3q4.3-7.1 10.3-14.1h.05q23.05-5.45 49.95-20.2l-11.2 11.1" fill="#944561"/><path d="M71.65 91.6 46.95 129l15.35-15.3q-9.05 13.75-22 26.65l.9-7.3q10.45-18.2 23.25-33.35l7.2-8.1" fill="#ffb233"/><path d="m230.2 234.6.6-3.35 2.65 1.5 7.3 22.5-2.3 3.15q-9.05 13.7-2.3 28.7-8.4-3.95-8.35-12.05l.15-1.9q.15-1.75.75-3.65l.25-.9q6.85-32.55 1.25-34m82.45 25.55q9.35-16.2 8.95-34.4l1 1 11.45 40.05q-10.7 16.75-22.05 28.15-8 7.95-16.3 13.3-6 3.8-12.2 6.25l-1.5.6q28.2-29.35 30.65-54.95M35.45 156.3l2.6 1q8.85 6.65-2.35 17.75l-1 .95q-10.55 9.35-11.45 28.3l-.05.5-.6-.5q-3.5-2.8-7.3-7.75L14.2 186q10.55-.15 6.8-10.95l-.8-2.05 12.35-17.7 2.9 1m31.5 251.65-.05-.05-4.65-6.05q5.65-.35 9.6-2.3 8.25 4.9 22.65 6.75 3.45 4.35-7.5 7-12.15.25-20.05-5.35" fill="#ffe76f"/><path d="m36.75 153.25-5.3.5q-5.6-30.25 7.1-54.05 2.6-4.85 5.95-9.45l-7.75 63" fill="#e83646"/><path d="m38.05 157.3-2.6-1 3.45-1.2 2.05-.75q2.65 4 10 5.15 3.45 1 5.95 2.7 2.4 1.55 3.9 3.75l.9 1.45q.95 1.85 1.4 4.1-5.25.1-11.05 2.85 8.4-8.25-14-17.05m25.15 14.55.25 3.2q.05 5.4-2.45 12.45l-.8.15h-.05q-12.65 1.9-28.7 13.35-.45-3.4.95-6.75 2.3-5.6 9.65-11.05-5.85 6.15-4.85 11.3l12.8-6 6.5-7.75-10.15-.45q4.2-2.65 9.7-5.25 3.3-1.6 7.15-3.2" fill="#ec7a11"/><path d="M38.05 157.3q22.4 8.8 14 17.05l-1.4.7q-6.6 3.5-13.95 10.45-3.65 3.15-5.65 8.1-1.9 4.6-2.4 10.7-.55 6.1.3 13.7-6.3-6.2-11-13.7-2.15-3.45-3.95-7.15-1.55-3.1-2.8-6.4l4.1 5.8q3.8 4.95 7.3 7.75l.6.5.05-.5q.9-18.95 11.45-28.3l1-.95q11.2-11.1 2.35-17.75m8.3 23 10.15.45-6.5 7.75-12.8 6q-1-5.15 4.85-11.3l4.3-2.9" fill="#fcb345"/><path d="m50.45 154.15-.25-.3q-.3-.3-.8-.3t-.85.3q-.3.35-.3.85l.1.45-2.95 1.4q-1.3-.7-2-1.65l17.5-7.25-2.95 2.95-7.5 3.55" fill="#0f4d57"/><path d="m50.45 154.15 7.5-3.55-7.45 7.3q-3.2-.4-5.1-1.35l2.95-1.4.2.35q.35.35.85.35t.8-.35q.35-.3.35-.8l-.1-.55m90 178.3q.95-7.15 7.1-13l.7.6q.35 14.25 4.2 25-4.65-1.15-5.35 6.55-2-2-3.95-6h.05l-.05-.05-.7-1.45-.45-1.05 1.75.4v.1q0 .85.55 1.4.6.6 1.45.6t1.4-.6q.6-.55.6-1.4 0-.85-.6-1.45l-.6-.4q2.6-4.4-.9-7.3l-.7-.55-.65-1.35q-.7-1-1.75-1t-1.8 1l-.05.1-.25-.15M103.1 373.7q-2.2 1.75 4.9 8.9l-9.75-6.2q-.35-3.05.3-6.25l4.55 3.55m7.55 14.2q1 1.65 3.05.65-2.25 2.75-4.65 4.8-3.9-3.1-6.35-6.35l7.95.9m110.75-45.85q-3.45-17.55-12.75-13.35 9.7 11.35-1.25 22.1-2.85 2.7-6.7 2.55-3.9-.15-8.8-3.3-5.15-1.45-1 5.9-3.55-3.9-6.5-10.5 19.55 6.75 16.95-12l-.05-.2q-.05-2.55-1.9-4.4-1.85-1.85-4.5-1.85-1.3 0-2.4.45 8.25-14.45 21.75-3.9 8 9.4 7.15 18.5m-20.7 4.85q-1.3 0-2.25.9-.9.95-.9 2.25t.9 2.2q.95.95 2.25.95t2.2-.95q.95-.9.95-2.2 0-1.3-.95-2.25-.9-.9-2.2-.9" fill="#248c9f"/><path d="m75.1 174.3-7.6-.8q4.7-1.65 6.8-4.45 5.95 1.05 10.95-5.8-1.7 6.5-10.15 11.05m-33.6 84.75q-6.4 13.4-6.05 22 7-11.8 18.3-22.75 2.4 11.5 10.25 15.25.6-6.95 3-11.25 2.35 3.25 3.75 8.7l-4 14.55q-6.65 13-14.8-11.5-12.8 19.4-17.25 36.05-2.05 3.75-3.7 7.75-2.25-5.2-1.25-17.8l2.5-4.5L31 290.3l-4.25 5.5q.4-9.1 2.2-16.45 2.3-9.7 7-16.4l1-1.2 4.55-2.7" fill="#fad9a2"/><path d="m135.2 116.1 11.35-1.1-2.4-3.5 21.9 1.25-14.25 21.75-6.7-4.4q6.7-8.9-9.9-14" fill="#b13f48"/><path d="m146.55 133.3 3.75 5.2q-4.35 2.1-9.55 0-2.35-2.15-4.3-4.65l-.45-.55q-2.9-10.4-9.5-15.6l-.95-.7 9.65-.9q16.6 5.1 9.9 14l-5.05-3.35q2.75 4.65 6.5 6.55" fill="#e8be96"/><path d="m114.05 166.2-.15-.45q-1.4-5-4.15-10 6.2-1.9 11.5 2.75v-6.25H123q-4-11.05-9.75-13.25 4.25-2.75 8.5 0-1.45-6.7-11.5-5.75-17.85.95-12-4 13.85-7.6 28.25-1.15 4.8 2.15 9.65 5.85l.1.05q1.45 3.3 3.75 5.9l1.8 5.55q-9.6-7.5-15.3-5.6-1.5.5-2.75 1.65 1.5 1.45 2.75 3.55 3.4 5.85 4.7 16.95l.05.25.75 1.05 2.15 3.3q-4.2 1.7-7.65-3.45l-1.25-2.15q-2.4 7.9-.7 14.05.45 1.65 1.2 3.2-3.05-1.15-5.45-3.2-3.95-3.3-6.25-8.85" fill="#f0ca9c"/><path d="M147.55 152.15q-.5 12.65 3.9 22.9 1.75 4.2 4.35 7.95-6.95.65-12.25-5.25 0 14.55 4.25 20.5-2.65 5.4-8.55 6.8l-1.25-1.8.6 2.15q-5.4-4.5-3.55 10.85l-8.5 1.5-1 20.25-4-5.75q-2.75 20.25-13.6 6.1-1.9-3-3.45-6.35.9 2.9 2.05 5.5-2.7 11.15-11.95 21-.55-6.8-2.4-10.55l-.95-1.65.7 2.5q-5.85 18.85-14.75 19.7-4.5-8.6-5.95-19L66 255.75q-3.7-8.1-1.65-17.2 1.55 6.2 6.15 9.95l2-15.75q5.15 25.1 10.25 23.55-1.45-11.05 7-23 5.6 4.55 6.5 11 6.45-12.7 7.5-29.05-.35 14.35 8 17.8v-17.8q4.25 1.85 5.75 9.25v-15q4.85 3.05 11.55-1.25l-6-18.35 3.45-.55q5.8-.55 10.8 1.65-4.3-6.7-5.2-15.95l-.05-.3.5.3q3.6 2.4 7.25 7.95-.45-4.05-1.75-7.95-1.45-4.3-3.9-8.45l-2.15-3.3 10.8 1.7q-2.3-10.85-7.05-16.7l7.8 2.7-1.75-5.55-1.8-5.55q4.7 5.3 12.8 7.85l-8 5.25 2.75-.85" fill="#e74d5f"/><path d="m132 163.3-.75-1.05-.05-.25q-1.3-11.1-4.7-16.95-1.25-2.1-2.75-3.55 1.25-1.15 2.75-1.65 5.7-1.9 15.3 5.6l1.75 5.55-7.8-2.7q4.75 5.85 7.05 16.7l-10.8-1.7" fill="#eddfe4"/><path d="M76.55 222q1-.75 1.2-3.75-.4-7.75-4.75-12.5 7.3 3.95 16.25 3 4.2 8.3 1 12-3-7.15-8.75-8.75.95 12.4-2.75 18.25l-2.2-8.25m13.95-17.5.05-.2q1.9-7.4 2.05-17.35 8.6-2.9 15.65 2.8.1-7.35-5.5-14.7l-.25-.3 6.25.3q3.65 1.25 6.5 5.2.95 9.55 5.75 16.25-12.1 2.7-20.25-6.5 1.6 7 1.9 14.3.3 6.4-.4 12.95-1.1-7.8-4.35-12.95-1.6-2.45-3.65-4.3l-3.75 4.5" fill="#fff0b4"/><path d="M64 235.15q6.25-2.8 7.25-16.9 3.7 5 5.3 3.75l2.2 8.25q3.7-5.85 2.75-18.25 5.75 1.6 8.75 8.75 3.2-3.7-1-12-2.5-2.15-3.9-4.45-1.65-2.65-1.85-5.55l4 5.75v-3.25l3 3.25 3.75-4.5q2.05 1.85 3.65 4.3 3.25 5.15 4.35 12.95.7-6.55.4-12.95-.3-7.3-1.9-14.3 8.15 9.2 20.25 6.5-4.8-6.7-5.75-16.25l.15-5.2q-.15-4.4-1.35-8.85 2.3 5.55 6.25 8.85 2.4 2.05 5.45 3.2-.75-1.55-1.2-3.2-1.7-6.15.7-14.05l1.25 2.15q3.45 5.15 7.65 3.45 2.45 4.15 3.9 8.45 1.3 3.9 1.75 7.95-3.65-5.55-7.25-7.95l-.5-.3.05.3q.9 9.25 5.2 15.95-5-2.2-10.8-1.65l-3.45.55 6 18.35q-6.7 4.3-11.55 1.25v15q-1.5-7.4-5.75-9.25v17.8q-8.35-3.45-8-17.8-1.05 16.35-7.5 29.05-.9-6.45-6.5-11-8.45 11.95-7 23-5.1 1.55-10.25-23.55l-2 15.75q-4.6-3.75-6.15-9.95l-.45-2.25-.15-1.05.25-.1" fill="#fffcff"/><path d="M77.2 268.5q8.9-.85 14.75-19.7.7 3.05.95 6.7-6.95 13.9-13.9 16.25l-1.8-3.25m17.4-10q9.25-9.85 11.95-21 1.35 3.05 3 5.8-6.55 14.1-14.8 22.2l-.15-7m13.35-20.15q10.85 14.15 13.6-6.1l4 5.75 1-20.25 8.5-1.5q-1.85-15.35 3.55-10.85l4.15 15.1q-4.05 1.35-8.1-.35-1.8-.75-3.65-2.15.65 1.7 1.9 2.85-.55 11.5-5.6 23.9l-5.3-3.5-.4.8-3.8 7.7q-5.75-4.9-9.85-11.4" fill="#d44648"/><path d="M137.3 277.85q-4.95-2.55-9.7-6.35v-.05h7.4q-3.5-12.05 3.75-19.2l3.05 4.75q4.7-4.35 4-16.75l5.5 5.75 1.25 1v-10.25q3.95-8.15 0-17.25 3.85 5.3 9.75 4.95l3.75 4.55q-6.15 3.75-9.75-2.5 6.15 17.25 2.25 37.25l-7.25-4.5q-6.6 17.95-14 18.6" fill="#ff4c71"/><path d="m95 274.7 2.5 8.05-2.35 3.05-.25.3q-7.75 3.3-8.85-6.15l.15-.2 2.55-2.45v3.25L95 274.7" fill="#ffdfa6"/><path d="m103.05 284.55-.05-1q-11 4-14 30.25-6.75-7.95-7.7-27.5 1.1-1.65 2.35-3.25L87 296.3l8.15-10.5 2.35-3.05 3.75-4.95 6.5 10.25 3-13.75q10.3 15.15 13.25-2.5l3.25.45q.65 14.05-3.2 24.3-7.75-5.6-13.05-14.5 1.5 4.55 3.55 8-7 10.8-13.3 15.75 5.95-12.1 1.8-21.25m-47-91.6q3.95.7 4 7.3l-1.85 12q-9.1 5.7-15.75 5 6.4-5.75 9.95-12.95 2.6-5.3 3.65-11.35m4.55 14.5q-.8 14.55 2.8 26.6l-.35.3q-7 5.85-13.15 5.5 9.2-13.95 10.7-32.4m-8.65 34.2v.65q6.55 5.95-10.45 16.75l-4.55 2.7H26.2q14.2-8.5 22.6-20.3l3.15.2M21 301.4l-.5 2.8-7.05 11.1q-6.2-17.7 22.5-52.35-4.7 6.7-7 16.4-6.85 8.1-7.85 21.2l-.1.85" fill="#ba3e40"/><path d="m161.25 271.15-2.75-.15-5.7-2.25-1.75 10.5-13.75-1.4q7.4-.65 14-18.6l7.25 4.5q3.9-20-2.25-37.25 3.6 6.25 9.75 2.5l-3.75-4.55 3.5-.7q-2.35-2.7-3.65-5.4-1.7-3.55-1.6-7.1l6.1-5.65 10.15 18.15-3.25 4.75 4.1-2.65 1.65 6.4 3.5 10.25q-4.05 1.85-10.15 2.35l-1.2.05q-1-3.35-1.65-6.9-.25 6.45 2.85 15.45l2.15 5.55-10.5 4.5q4.5.05 8.35-1.6l1.8-.9-1.8 2.95q-4.15 5.75-11.4 7.2" fill="#b23f47"/><path d="M158.5 271q-2.45 5.95-4.1 12.05-8.9-.95-17.1-5.2l13.75 1.4 1.75-10.5 5.7 2.25" fill="#964562"/><path d="M81.55 284.2Q67.8 299.75 59.5 321.8q-6.85-12.9-5-28.75-14.55 17.05-19.75 43.75-14.85-9.75-13.6-35.35l.05-.9h-.1q1-13.1 7.85-21.2-1.8 7.35-2.2 16.45l4.25-5.5 1.25 5.25-2.5 4.5q-1 12.6 1.25 17.8 1.65-4 3.7-7.75 7.1-13.3 18.55-23.3l6 17.75q12.95-16.4 22.3-20.35" fill="#df4f55"/><path d="M20.6 353.8q-2.3 2.85-4.15 7-9.05-5.75-10.5-16.25 11.55-4.65 19-15.8 1.9 3.3 4.55 6.4l-10.8 10.9 1.9 7.75" fill="#eb9932"/><path d="M105.25 331.55q-22.1-1.8-34.5 19.75 7.35 10.45 8 17.1-3.75-7.8-13-13.1 14.75-31.85 40.7-26.5l-1.2 2.75" fill="#ffe970"/><path d="m147.6 317.65 3-1.6q.85 20.3 9.05 41.95-18.35.75-21.4-16.95-1.6-16.6 9.35-23.4m4.85 27.4q-3.85-10.75-4.2-25l-.7-.6q-6.15 5.85-7.1 13l-.1.85q-.3.7-.3 1.6v.15q.05 1.3.7 2.25.75 1 1.8 1t1.75-1q.75-1 .75-2.4l.6-.5q3.5 2.9.9 7.3l-.8-.15q-.85 0-1.45.55-.5.55-.55 1.35l-1.75-.4.45 1.05.7 1.45v.05q1.95 4 3.95 6 3.95 3.95 7.9-.55-1.45-2.85-2.55-6M108 382.6l1.75 1.7q.2 2.4.9 3.6l-7.95-.9q-3.85-5.05-4.45-10.6l9.75 6.2m82.9-26.65q9.4 10.35 22.6 1.35 7.1-7.5 7.9-15.25.85-9.1-7.15-18.5-13.5-10.55-21.75 3.9-1.2.45-2.15 1.4-1.85 1.9-1.85 4.55t1.85 4.5q1.9 1.9 4.55 1.9t4.5-1.9q1.9-1.85 1.9-4.5l.05.05q2.6 18.75-16.95 12 2.95 6.6 6.5 10.5m33.95-16.6q0 10.05-6.65 17.15-6.65 7.1-16.05 7.1-9.45 0-16.05-7.1-6.65-7.1-6.65-17.15 0-10.05 6.65-17.1 6.6-7.1 16.05-7.1 9.4 0 16.05 7.1 6.65 7.05 6.65 17.1" fill="#40ead0"/><path d="M150.85 303.25q-.45 5.4-.3 10.9-16.35 2.75-14.3 28.4-11.65-7.6-5.8 19.85-2.95-1.7-5.65-3.95l-2.55-2.35q.6-50.2 28.6-52.85" fill="#c54f14"/><path d="M82.85 346.5q6.8-.5 13.55-3.95l18.6 6.75q-.7-11.45 4-22-3.4.45-6.85-4 5.05-9.4 13.05-17.1l6.9 3.75q-12.15 14-14.1 46.35-17.55-2.6-35.15-9.8" fill="#ffed71"/><path d="M125.2 306.2q11.15-10.75 27.9-18.15-1.3 5.75-1.95 11.6-11.5 1.6-19.05 10.3l-6.9-3.75" fill="#ffbd35"/><path d="M96.4 342.55q5.3-2.75 10.6-7.25 2.05-6.3 5.15-12 3.45 4.45 6.85 4-4.7 10.55-4 22l-18.6-6.75" fill="#ffaf32"/><path d="M152.45 345.05q1.1 3.15 2.55 6-3.95 4.5-7.9.55.7-7.7 5.35-6.55M108 382.6q-7.1-7.15-4.9-8.9 7.2 5.1 15.4 7.6-2.3 4.1-4.8 7.25-2.05 1-3.05-.65-.7-1.2-.9-3.6l-1.75-1.7m82.9-26.65q-4.15-7.35 1-5.9 4.9 3.15 8.8 3.3 3.85.15 6.7-2.55 10.95-10.75 1.25-22.1 9.3-4.2 12.75 13.35-.8 7.75-7.9 15.25-13.2 9-22.6-1.35" fill="#0f387f"/><path d="m181 267.05 4.45-6q10.8-12.05 19.35-41.55 16.7-15.2 13.25 2.5-19.8 43.35-37.05 45.05" fill="#fbb33c"/><path d="M152.55 219.5q5.2 1.45 9.6-1.15 1.3 2.7 3.65 5.4l-3.5.7q-5.9.35-9.75-4.95" fill="#e4bfa7"/><path d="M208.05 271.05q-4.45 5.2-9.7 10.15-2.65-1.3-5.3-2.4 7-.95 15-7.75" fill="#bd4c13"/><path d="M222.55 296.7q-10.9-8.65-22.05-14.4l7.8-7.3q.75 9.55 19.65-1.85l-.15 1.9q-5.1 19 28.75 43.5 13.05 1.05 25.45-3.45l1.5-.6q-10.25 8.8-28.25 8.8-16.35-15.2-32.7-26.6" fill="#e6701d"/><path d="M206.2 303.55Q218 304.8 227.85 317q2.3 4.05 4.65 7.3 6.5 23.9-9.45 39.85l-3.5 3.15q-24.15 12.15-37.8-1.5-1-6.8 3.55-6.25 7.1 7 17 7 10.5 0 17.9-7.9 7.4-7.9 7.4-19.1 0-11.2-7.4-19.1-4.6-4.95-10.45-6.75-6.15-5.5-25.5-5.9 3.6-1.8 8.05-2.25 7.25-2.75 13.9-2" fill="#fff177"/><path d="m165.15 276.4 7.5.9q38.45 6.45 73.55 48.45.95 5.55 1.25 10.6-7.7-1.95-14.95-12.05-2.35-3.25-4.65-7.3-9.85-12.2-21.65-13.45-21.1-3.45-33.55-16.8-4.25-4.6-7.5-10.35" fill="#eb731d"/><path d="M169.15 342.1q.55-11.95 3.5-20.05 3.45-9.45 10.25-13.5l1.35-.75q19.35.4 25.5 5.9-3.5-1.15-7.45-1.15-10.5 0-17.9 7.9-7.4 7.9-7.4 19.1l.25 3.9q-2.55 2-4.6 1.6-2-.35-3.5-2.95" fill="#ffc739"/><path d="m161.75 276.2 3.4.2q3.25 5.75 7.5 10.35 12.45 13.35 33.55 16.8-6.65-.75-13.9 2-4.45.45-8.05 2.25l-1.35.75-21.15-32.35" fill="#ce5215"/><path d="M233.35 373.55q-3.5 2.75-7.75 4.9-13.55 4.15-24.6 4.3-12.7-3.6-20.35-10.45-5.1-4.6-8-10.6-3.2-6.7-3.65-15.15 0-2.3.15-4.45 1.5 2.6 3.5 2.95 2.05.4 4.6-1.6 1.05 8.7 7.15 15.2l.9.9q-4.55-.55-3.55 6.25 13.65 13.65 37.8 1.5l3.5-3.15q-1.6 9.65 10.3 9.4" fill="#fe7c20"/><path d="M201 382.75q-17.2.1-28.35-9.65-2.85-2.5-5.3-5.65-22.45-47.75-7.05-88.6 13.75 20.45 6.2 46.45-3.1 27.55 6.15 40.1 3.25 4.35 8 6.9 7.65 6.85 20.35 10.45" fill="#ffff7d"/><path d="M247.45 336.35q1.35 24.8-14.1 37.2-11.9.25-10.3-9.4Q239 348.2 232.5 324.3q7.25 10.1 14.95 12.05" fill="#c24e14"/></g><use ffdec:characterId="2" height="408.65" transform="translate(25.55 17.2)" width="344.95" xlink:href="#n" id="c"/><use ffdec:characterId="9" height="163.35" width="101.8" xlink:href="#o" id="d"/><use ffdec:characterId="11" height="189.2" width="151" xlink:href="#p" id="e"/><use ffdec:characterId="13" height="197.85" width="125.35" xlink:href="#q" id="f"/><use ffdec:characterId="15" height="326.75" transform="translate(11.5)" width="227.25" xlink:href="#r" id="g"/><use ffdec:characterId="22" height="208.05" width="346.65" xlink:href="#s" id="h"/><use ffdec:characterId="24" height="165" width="138" xlink:href="#t" id="i"/><use ffdec:characterId="26" height="183.85" width="143.2" xlink:href="#u" id="j"/><use ffdec:characterId="28" height="163" width="168" xlink:href="#v" id="k"/><use ffdec:characterId="30" height="384.65" transform="translate(0 51.05)" width="353.9" xlink:href="#w" id="l"/><use ffdec:characterId="37" height="428.5" width="365.1" xlink:href="#x" id="m"/><path d="M20.3-1.55Q28.55-.5 28.55.95q0 1.4-8.25 2.4L.4 4.4l-19.9-1.05q-8.25-1-8.25-2.4 0-1.45 8.25-2.5l19.9-1 19.9 1" fill-opacity=".349" fill-rule="evenodd" transform="translate(27.75 2.55)" id="b"/></defs></svg>