<svg xmlns:ffdec="https://www.free-decompiler.com/flash" xmlns:xlink="http://www.w3.org/1999/xlink" ffdec:objectType="frame" height="90" width="90" xmlns="http://www.w3.org/2000/svg"><use ffdec:characterId="41" height="225.8" transform="matrix(.384 0 0 .3842 -7.277 1.076)" width="259.65" xlink:href="#a"/><defs><g id="a" transform="translate(18.95 -2.8)"><use ffdec:characterId="1" height="9.8" transform="matrix(2.3207 0 0 4.3722 78.251 185.776)" width="55.5" xlink:href="#b"/><use ffdec:characterId="3" height="307" transform="matrix(.3232 -.0058 .0058 .3232 112.55 5.8)" width="290.65" xlink:href="#c"/><use ffdec:characterId="5" height="71.8" transform="matrix(.3091 .0936 -.0936 .3091 94.9 111.3)" width="115.8" xlink:href="#d"/><use ffdec:characterId="10" height="368.15" transform="matrix(-.1836 .0057 .0057 .1836 150.088 124.701)" width="443.55" xlink:href="#e"/><use ffdec:characterId="12" height="297.05" transform="matrix(.3091 .0936 -.0936 .3091 19.35 74.05)" width="436.2" xlink:href="#f"/><use ffdec:characterId="14" height="102.8" transform="matrix(.3232 -.0058 .0058 .3232 88.4 131.6)" width="212" xlink:href="#g"/><use ffdec:characterId="10" height="368.15" transform="matrix(.2248 .007 -.007 .2248 135.64 120.45)" width="443.55" xlink:href="#e"/><use ffdec:characterId="16" height="140.5" transform="matrix(.3125 .0842 -.0842 .3125 97.35 129.7)" width="103.75" xlink:href="#h"/><use ffdec:characterId="18" height="63.25" transform="matrix(.3125 .0842 -.0842 .3125 100.45 118.7)" width="122" xlink:href="#i"/><use ffdec:characterId="20" height="194.9" transform="rotate(20.307 -350.079 439.15) scale(.3234)" width="128.05" xlink:href="#j"/><use ffdec:characterId="22" height="112.5" transform="rotate(31.086 -155.542 308.838) scale(.3231)" width="93.55" xlink:href="#k"/><use ffdec:characterId="24" height="126.6" transform="matrix(.3091 .0936 -.0936 .3091 114.35 85.4)" width="95.05" xlink:href="#l"/><use ffdec:characterId="26" height="38.9" transform="matrix(.3232 -.0058 .0058 .3232 106.3 128.7)" width="77.4" xlink:href="#m"/><use ffdec:characterId="28" height="129.45" transform="matrix(.3232 -.0058 .0058 .3232 127.95 128.25)" width="194.1" xlink:href="#n"/><use ffdec:characterId="30" height="129.65" transform="matrix(.3232 -.0058 .0058 .3232 122.15 94.6)" width="109.95" xlink:href="#o"/><use ffdec:characterId="36" height="214.3" transform="matrix(.3232 -.0058 .0058 .3232 95.4 40.7)" width="247.8" xlink:href="#p"/><use ffdec:characterId="38" height="102.25" transform="matrix(.3232 -.0058 .0058 .3232 146.4 91.25)" width="109.35" xlink:href="#q"/><use ffdec:characterId="40" height="120.75" transform="matrix(.3232 -.0058 .0058 .3232 164 114.75)" width="106.35" xlink:href="#r"/></g><g id="s" fill-rule="evenodd"><path d="M216.5 277.7q76.05-72.6 43.9-174.4l-.2-.35q-8.45-17.5-22.15-32.55l-3.65-3.85q-22.15-22.65-49.75-30.9-15.8-4.75-33.35-4.7-45.25-.05-78.65 31.25l-.8.75q-3.7 3.5-7.3 7.45-7.3 8-13.1 16.7-8.8 13.2-14.2 27.95-8.6 23.4-8.6 50.75 0 8 .75 15.65 4.4 45.85 35.15 79.7 35.9 39.45 86.75 39.5 30.25-.05 55.2-14h.05l9.95-8.95M109.85 72.2q17.7-8.6 38.7-8.55 12.85-.05 24.5 3.25l.5.1q24.05 6.8 42.9 27.55 28.1 30.9 28.1 74.65 0 43.7-28.1 74.65-7.05 7.75-14.85 13.55-13.25 9.9-28.65 14.15-11.6 3.2-24.4 3.2-39.8 0-67.9-30.9-27.1-29.8-28.1-71.5v-3.15q0-43.75 28.1-74.65 13.3-14.65 29.2-22.35M242.3 265.65Q204.65 307 151.45 307q-53.2 0-90.8-41.35Q23 224.3 23.05 165.8q-.05-58.5 37.6-99.85 37.6-41.35 90.8-41.35 53.2 0 90.85 41.35 37.6 41.35 37.6 99.85 0 58.5-37.6 99.85m-29.5-25.25q26.8-29.5 26.8-71.2 0-41.75-26.8-71.2-26.8-29.5-64.75-29.45Q110.1 68.5 83.3 98q-26.8 29.45-26.8 71.2 0 41.7 26.8 71.2 26.8 29.45 64.75 29.45t64.75-29.45" fill="#704228"/><path d="m234.4 66.55 3.65 3.85q13.7 15.05 22.15 32.55l.2.35q32.15 101.8-43.9 174.4-19.65 1.75-32.65-5.15 31.55-15.85 51.6-38.35l10.75-6q38.9-89.5 0-81.2-14.65-68.95-72.65-80l-.5-.1q-11.65-3.3-24.5-3.25-21-.05-38.7 8.55Q53.5 90.65 46 174.9l-16.6 6.55q-.75-7.65-.75-15.65 0-27.35 8.6-50.75L54.65 105q45.45-62.85 135.2-44.8 31.3 18.2 44.55 6.35" fill="#b05c17"/><path d="M51.45 87.1q5.8-8.7 13.1-16.7 3.6-3.95 7.3-7.45l.8-.75q33.4-31.3 78.65-31.25 17.55-.05 33.35 4.7 15.35 17.85 0 16.15Q117 35.3 51.45 87.1" fill="#f7e9a9"/><path d="M37.25 115.05q5.4-14.75 14.2-27.95Q117 35.3 184.65 51.8q15.35 1.7 0-16.15 27.6 8.25 49.75 30.9-13.25 11.85-44.55-6.35Q100.1 42.15 54.65 105l-17.4 10.05" fill="#e6c53d"/><path d="M109.85 72.2q-15.9 7.7-29.2 22.35-28.1 30.9-28.1 74.65v3.15L46 174.9q7.5-84.25 63.85-102.7" fill="#fbf1b6"/><path d="M173.55 67q58 11.05 72.65 80 1.75 8.2 2.85 17.2 9.35.7 9.2 24.4-2.55 16.05-10.8 10.8-15.3 39.4-45.85 58 7.8-5.8 14.85-13.55 28.1-30.95 28.1-74.65 0-43.75-28.1-74.65Q197.6 73.8 173.55 67" fill="#f3dc90"/><path d="M246.2 147q38.9-8.3 0 81.2l-10.75 6q-20.05 22.5-51.6 38.35l-7.3 3.5q-2.05-2.05-3.6-4.5 15.4-4.25 28.65-14.15 30.55-18.6 45.85-58 8.25 5.25 10.8-10.8.15-23.7-9.2-24.4-1.1-9-2.85-17.2" fill="#e2b335"/><path d="M206.5 286.65q-24.95 13.95-55.2 14-50.85-.05-86.75-39.5-30.75-33.85-35.15-79.7L46 174.9l6.55-2.55q1 41.7 28.1 71.5 28.1 30.9 67.9 30.9 12.8 0 24.4-3.2 1.55 2.45 3.6 4.5 9.85 10 29.95 10.6" fill="#522e1e"/><path d="m216.5 277.7-9.95 8.95h-.05q-20.1-.6-29.95-10.6l7.3-3.5q13 6.9 32.65 5.15" fill="#7d470c"/><path d="M38.15 115.05q-8.25-8.9-13.25-18.35-6.9-13.2-7.45-27.5-13.25 18.85-11.4 47 7.9 17.85 0 31.2-.55 2.55-.8 5.05-.55 4.45-.35 8.6.5 9.5 4.95 17.35 10.85 8.05 20.45 6-6.75-16.15-9.85-35.1l-1-7.1q-1.45-13.7 6.5-15.05 2.9-.5 7.1.65 2.15 3.15 3.35 6.15 3.95 9.85-2.15 17.85 2.4-8.65.1-15.85-1-3.1-2.9-5.95-10-2.3-9.55 11l.15 2.8q1.8 21.25 10.65 39.95 8-2.8 15.15-12.75 13.4-26.95-4.8-51l-4.9-4.95M.45 120q-2.2-50.8 20.2-60 .5 33.15 28.2 59 25.3 45.05-13.6 67.4-39.2 8-34.8-40.6Q9 135.65.45 120" fill="#724328"/><path d="M24.9 96.7q5 9.45 13.25 18.35.9 11.6-1.75 18.9-1.2-3-3.35-6.15-4.2-1.15-7.1-.65.95-16.75-6.7-34.95l5.65 4.5m-3 44.3q-.45-13.3 9.55-11 1.9 2.85 2.9 5.95-7.4-4.4-12.45 5.05" fill="#edd949"/><path d="m38.15 115.05 4.9 4.95q18.2 24.05 4.8 51-7.15 9.95-15.15 12.75-8.85-18.7-10.65-39.95l-.15-2.8q5.05-9.45 12.45-5.05 2.3 7.2-.1 15.85 6.1-8 2.15-17.85 2.65-7.3 1.75-18.9m-17.7 34.25q3.1 18.95 9.85 35.1-9.6 2.05-20.45-6-4.45-7.85-4.95-17.35 8.8-.7 15.55-11.75" fill="#d2a01e"/><path d="M25.95 127.15q-7.95 1.35-6.5 15.05-6.75 8.05-14.2 10.25.25-2.5.8-5.05 7.9-13.35 0-31.2-1.85-28.15 11.4-47Q18 83.5 24.9 96.7l-5.65-4.5q7.65 18.2 6.7 34.95" fill="#f8efb4"/><path d="m19.45 142.2 1 7.1Q13.7 160.35 4.9 161.05q-.2-4.15.35-8.6 7.45-2.2 14.2-10.25" fill="#edd847"/><path d="m248 16.05-.15-4.65q13.45 8.2 19.6 23.85l-10.2-10.85q14 29.45-9.6 52-9.05 18.2 4 22.2-12 10.5-23.4-5.95V90.6q9.75-26.1 28.4-33 3.5-26.25-8.65-41.55" fill="#e4bd39"/><path d="M267.45 35.25q-6.15-15.65-19.6-23.85l.15 4.65q.6 34.7-15.15 57.95-4.4 9.45-4.6 16.6v2.05q.75 12.7 16.2 17.35 19.4-.15 20-18.6 1.6-15.85-12.8-13.4-10.35 9.9 0 20.6-13.05-4-4-22.2 14.25-7.45 19.6 8.4 1.95 25.05-22 28.6l-5 6.9-5 6.9q45.3-1.85 48.6-41.2-13.15.05-11.6-28.6-1-12.5-4.8-22.15M240.85 0q41.9 15.3 38.6 70.8 3.95 7.65 11.2 11.4-.15 52-64.2 48.4 8.3-7.8 13.6-18.6-27.25-9-5-51.8 9.6-29.55 5.8-60.2" fill="#3e2216"/><path d="M228.25 92.65q11.4 16.45 23.4 5.95-10.35-10.7 0-20.6 14.4-2.45 12.8 13.4-.6 18.45-20 18.6-15.45-4.65-16.2-17.35m19.4-16.25q23.6-22.55 9.6-52l10.2 10.85q3.8 9.65 4.8 22.15-1.55 28.65 11.6 28.6-3.3 39.35-48.6 41.2l5-6.9q40.05-4.1 27-35.5-5.35-15.85-19.6-8.4" fill="#b66519"/><path d="M248 16.05q12.15 15.3 8.65 41.55-18.65 6.9-28.4 33 .2-7.15 4.6-16.6Q248.6 50.75 248 16.05" fill="#f4e29b"/><path d="m240.25 120.3 5-6.9q23.95-3.55 22-28.6 13.05 31.4-27 35.5" fill="#854d0d"/></g><g id="t" fill-rule="evenodd"><path d="M2.15 48.75 3.8 29.8Q28.2 10.45 52 19.2L100.8 0l1.45 3.85L53 26.2l-7.25-.9-7.45-1-8.7-1.1-20.05 9v6.75l-7.4 9.8m111.7-14.35 1.95 5.2L58.6 62q-26.05 19.2-41.75.7l2.75-4.1q9.4 16.2 30 4.4l7.8-5.2 56.45-23.4" fill="#190c09"/><path d="m102.25 3.85 1.2 3.05L54.4 32.1q-.5-2.95-1.4-5.9l49.25-22.35" fill="#805b6e"/><path d="m16.85 62.7-4.65 6.9L0 51.6l2.15-2.85 7.4-9.8 2.85-3.75 1.85 1.6L27 47.6l-7.4 11-2.75 4.1m-4.1-23.8L3.6 52l6.75 9.35 2.05 2.85 10.6-17-10.25-8.3" fill="#8f8576"/><path d="M9.55 38.95V32.2l20.05-9 8.7 1.1q2.75 15.8-24.05 12.5l-1.85-1.6-2.85 3.75" fill="#af7d90"/><path d="M10.35 61.35 3.6 52l9.15-13.1-2.4 22.45" fill="#fbfbfa"/><path d="m10.35 61.35 2.4-22.45L23 47.2l-10.6 17-2.05-2.85" fill="#c4c8c1"/><path d="m38.3 24.3 7.45 1Q49.25 48.95 27 47.6L14.25 36.8q26.8 3.3 24.05-12.5" fill="#876171"/><path d="m103.45 6.9 10.4 27.5L57.4 57.8 49.6 63q-20.6 11.8-30-4.4l7.4-11q22.25 1.35 18.75-22.3l7.25.9q.9 2.95 1.4 5.9l49.05-25.2" fill="#6b4a51"/></g><g id="u" fill-rule="evenodd"><path d="M249.5 52.9q47.6 14.3 87.4 53.4l-9.35-.9Q294.8 75.5 249.5 52.9m91.85 147.2q12.4 62.95-28 117.1 21.6-51.7 28-117.1" fill="#77ffe7" transform="translate(2.1 2.2)"/><path d="M329.4 112.95q45.55 65.8 106.25 64-32.9 46.35-85.5 29.35 1.15 121.1-78.7 159.65 10.75-65.6-19.95-102.75l-10.1 13.85q-18.6-38.65-55.25-60.15 13.55 75.3-15.8 124.85Q156 290.8 99.4 269.4l-32.75-12.95L81.9 284.7Q6.4 244.5-1.65 172.05l-.05-1.2Q-3.15 141.25.55 112q3.7-28.9 20.75-54.55 17.05-25.7 37.85-39.05Q129.2-30 241.05 35.3l-9.7 8.1Q291.5 50 347.2 109.35l-17.8 3.6m-1.85-7.55 9.35.9q-39.8-39.1-87.4-53.4-40.85-12.35-87.35-6.5 27.3-9.7 60.65-4.85l4.9-6.65Q180.1 9.15 141.25 5.4 93.15.65 58.55 29.55l-1.1.9Q35 49.6 21.2 75.45 7.8 100.6 5.8 129.2q-1.5 21.1 2.45 41.65l.2 1.2.9 4.7v.05q3.45 17.25 9.9 35.9 20.7 39 47.65 55.55L55.3 240.3q69.4 28.05 103.4 67.1 5.95 6.85 10.85 14.05 14.05-35 9.55-83.25l-.05-.4q-1.75-18.65-6.2-39.25 40.35 20.25 70.4 64.3l5.4-7.8 5.45-7.75 3.25 4.1q28.7 36.8 23.25 100.95 7.6-6.7 14.25-13.55 10.35-10.65 18.5-21.6 40.4-54.15 28-117.1-4.6-23.55-16.55-48.25l2.2 2.8q13.7 24.3 18.55 43.85 9.8 2.25 18.75 3.05 27.45 2.4 46.4-9 6.7-4 12.25-9.75-55.85-1-104.9-78.35l9.5.95" fill="#4c1115" transform="translate(2.1 2.2)"/><path d="M249.5 52.9q45.3 22.6 78.05 52.5l-9.5-.95q49.05 77.35 104.9 78.35-5.55 5.75-12.25 9.75-49.4-11.9-89.4-47.65l2.8 5.5.7 1.45q11.95 24.7 16.55 48.25-6.4 65.4-28 117.1-8.15 10.95-18.5 21.6 12.9-95-26.6-163.65 14.7 4.25 29.1 20.8-16.6-56.95-54.4-98.35l53.1 28.25q-79.8-85.5-177.65-70.35 22.5-6.45 43.75-9.1 46.5-5.85 87.35 6.5m26.15 35.6q23.65 18.3 44.5 37.1-16.35-24.55-37.9-41.9-24-19.35-54.45-29.8 25.2 17 47.85 34.6m11.8 48.3q34.2 47.95 39.65 88 6.05-54.05-39.65-88" fill="#f6c762" transform="translate(2.1 2.2)"/><path d="M364.3 201.55q-8.95-.8-18.75-3.05-4.85-19.55-18.55-43.85l37.3 46.9" fill="#771325" transform="translate(2.1 2.2)"/><path d="M410.7 192.55q-18.95 11.4-46.4 9l-37.3-46.9-5.7-9.75q40 35.75 89.4 47.65" fill="#c03c3a" transform="translate(2.1 2.2)"/><path d="m275.65 88.5 6.6-4.8q21.55 17.35 37.9 41.9-20.85-18.8-44.5-37.1m11.8 48.3q45.7 33.95 39.65 88-5.45-40.05-39.65-88" fill="#e9f667" transform="translate(2.1 2.2)"/><path d="m282.25 83.7-6.6 4.8Q253 70.9 227.8 53.9q30.45 10.45 54.45 29.8" fill="#c33f3c" transform="translate(2.1 2.2)"/><path d="M141.25 5.4q38.85 3.75 86.45 29.5l-4.9 6.65q-33.35-4.85-60.65 4.85h-29.1l14.3-8.05L98.1 43.2l43.15-37.8" fill="#bc3b39" transform="translate(2.1 2.2)"/><path d="M294.85 338.8q-6.65 6.85-14.25 13.55 22-83.7-25.65-145.3l2.4 44.35-3.25-4.1-5.45 7.75-59.75-100.3 56.15 30.2-20.15-37.5 26.15 13.15q-37.1-41.75-96.3-70.85l11.5 24.85q-31.8-26.45-83.95-44.05l36.1-15.05q97.85-15.15 177.65 70.35l-53.1-28.25q37.8 41.4 54.4 98.35-14.4-16.55-29.1-20.8 39.5 68.65 26.6 163.65M244.1 232.9l2.5-21.55-23.65-24.05 21.15 45.6" fill="#bb3737" transform="translate(2.1 2.2)"/><path d="m248.65 255.05-5.4 7.8q-30.05-44.05-70.4-64.3 4.45 20.6 6.2 39.25-5.65-25.75-19.3-46.5l-.15-.2-23.2-42.65-43.3-11.75q18.9 8.8 33.85 20.05L96.8 150.3q23.5 23.7 31.35 50.65L97.7 184q42.45 44.75 67.8 103.8l-15.2-9.75 8.4 29.35q-34-39.05-103.4-67.1l11.6 27.95Q39.95 251.7 19.25 212.7q-6.45-18.65-9.9-35.9 12.15 27.45 29.55 44.75 4.4-20.05.2-48.8 5.55 26.95 13.35 36.8l-2-10.35q31.55 43.35 70.7 54.95-30-47.65-59.1-111.2l14.15 4.35q-6.15-14.55-17.65-26.95L39 103.4l19.55-3.2q28.4-2.6 57.5 6.6-24-18.1-57.5-20.55L23.6 87.5q11.8-21.7 24.85-42.9l9-14.15 1.1-.9Q93.15.65 141.25 5.4L98.1 43.2l49.25-4.85-14.3 8.05h29.1q-21.25 2.65-43.75 9.1L82.3 70.55q52.15 17.6 83.95 44.05l-11.5-24.85q59.2 29.1 96.3 70.85l-26.15-13.15 20.15 37.5-56.15-30.2 59.75 100.3" fill="#851428" transform="translate(2.1 2.2)"/><path d="M9.35 176.8v-.05l-.9-4.7-.2-1.2Q4.3 150.3 5.8 129.2q2-28.6 15.4-53.75 13.8-25.85 36.25-45l-9 14.15Q35.4 65.8 23.6 87.5l34.95-1.25q33.5 2.45 57.5 20.55-29.1-9.2-57.5-6.6L39 103.4l19.55 16.95q11.5 12.4 17.65 26.95l-14.15-4.35q29.1 63.55 59.1 111.2-39.15-11.6-70.7-54.95l2 10.35q-7.8-9.85-13.35-36.8 4.2 28.75-.2 48.8-17.4-17.3-29.55-44.75" fill="#510930" transform="translate(2.1 2.2)"/><path d="m179.05 237.8.05.4q4.5 48.25-9.55 83.25-4.9-7.2-10.85-14.05l-8.4-29.35 15.2 9.75Q140.15 228.75 97.7 184l30.45 16.95Q120.3 174 96.8 150.3l30.15 6.45q19.85 15 32.65 34.35l.15.2q13.65 20.75 19.3 46.5" fill="#b63236" transform="translate(2.1 2.2)"/><path d="M159.6 191.1q-12.8-19.35-32.65-34.35Q112 145.5 93.1 136.7l43.3 11.75 23.2 42.65" fill="#550b31" transform="translate(2.1 2.2)"/><path d="m244.1 232.9-21.15-45.6 23.65 24.05-2.5 21.55" fill="#f4be5c" transform="translate(2.1 2.2)"/><path d="M280.6 352.35q5.45-64.15-23.25-100.95l-2.4-44.35q47.65 61.6 25.65 145.3" fill="#801427" transform="translate(2.1 2.2)"/></g><g id="v" fill-rule="evenodd"><path d="M418.15 55.25 365.1 67.4l-44.7 10.2L186 104q-27-10.25-47.6-28-17.95-10-36.75-6L79.2 81.2 65.6 74l-8 29.6-9.2-5.2-4.8 26.4-21.15 13.55q-2.3 2.9-4.25 5.9-1.8 2.65-3.25 5.35Q3.15 171.25 8.8 196q4.45-2.7 8.75-4.65Q50.3 176.6 74 206l.95 4.4v.05q.55 3.95.25 8-.25 3.05-1 6.15-2 8.2-7.65 16.65l-3.65 5-5.1-2.1q12.95-17.05 9.4-35.35-28.1-34.95-63.2 0-13-42.2 16-79.2-13.75-39.95 8.8-87.2L48 72Q40.1 31.4 72 0q2.4 38.7 24 66.4 16.55-9.1 39.2 0l21.6 18.4 29.6 14.4 194.4-40q23.8-4.4 37.35-3.95M71 22.25q-1.05-4.5-1.8-9.05-17.45 34.15-14.8 77.6L36.5 68.75 26.8 56.8q-9.6 40.4 0 76.4L39.6 122 46 89.6l9.6 9.2 6.8-31.2 16.4 9.2L94.4 72Q77.15 48.5 71 22.25" fill="#561a1f"/><path d="M365.1 67.4 172 121.2l-17.2-11.6Q138.4 76.3 96 96H71.6l-5.2 18q12.75 9.15 10.4 28.8-10.35 15.95-23.2 5.2l-5.2 16h-7.6L22 170.8l-8.4 12 1.35-33.2q1.45-2.7 3.25-5.35L42 136l1.6-11.2 4.8-26.4 9.2 5.2 8-29.6 13.6 7.2L101.65 70q18.8-4 36.75 6Q159 93.75 186 104l134.4-26.4 44.7-10.2" fill="#c04138"/><path d="M54.4 90.8q-2.65-43.45 14.8-77.6.75 4.55 1.8 9.05-11.8 30.8-16.6 68.55m-27.6 42.4q-9.6-36 0-76.4l9.7 11.95q-10.45 27.3-9.7 64.45" fill="#ebca68"/><path d="M71 22.25Q77.15 48.5 94.4 72l-15.6 4.8-16.4-9.2-6.8 31.2-9.6-9.2-6.4 32.4-12.8 11.2q-.75-37.15 9.7-64.45L54.4 90.8Q59.2 53.05 71 22.25" fill="#ba2319"/><path d="M418.15 55.25q6.8.25 11 1.65L169.6 128l-8.4 13.2H150q6.75-16.95-2.8-28H82.8q1.35 24.2 19.2 42.4H84.4v10q-10.8 4.3-16.4 17.6-17.8-2.1-28.4-10.4l-22.05 18.55q-4.3 1.95-8.75 4.65-5.65-24.75 6.15-46.4l-1.35 33.2 8.4-12 18.8-6.8h7.6l5.2-16q12.85 10.75 23.2-5.2 2.35-19.65-10.4-28.8l5.2-18H96q42.4-19.7 58.8 13.6l17.2 11.6 193.1-53.8 53.05-12.15" fill="#a32d25"/><path d="M17.55 191.35 39.6 172.8q10.6 8.3 28.4 10.4 5.6-13.3 16.4-17.6v-10H102q-17.85-18.2-19.2-42.4h64.4q9.55 11.05 2.8 28h11.2l8.4-13.2 259.55-71.1q5.35 1.85 6.65 5.6l-242.6 68.7q-14.1 9.65-20.4 22.4l-7.2 4.4q-5.8-2.1-11.05-3.35-44.1-10.55-49.55 38-1.2 10.3-.6 23.35l-29.45-5.6L74 206q-23.7-29.4-56.45-14.65" fill="#782325"/><path d="M154.55 154.65q5.25 1.25 11.05 3.35l7.2-4.4q8.85 18.3 24.7 26.55 17.25 17.45 38.95 24.3l-5.45 6.8q-19.7 22.9-48.8 34.9l8.3-23.4q9.7-6.9 16.9-17.5l3-4.85-3.75 4.45q-31.3-18.45-52.1-50.2" fill="#c5391a"/><path d="M435.8 62.5q.7 2.05.2 4.7L270.4 120q-93.05 16.75-87.2 36 18.7 32.25 68.95 21.8l-3.6 7.35q-12.1 2.1-22.55 1.85-16.3-.5-28.5-6.85-15.85-8.25-24.7-26.55 6.3-12.75 20.4-22.4l242.6-68.7M206.65 204.85l3.75-4.45-3 4.85q-7.2 10.6-16.9 17.5-30.9 21.85-87.7 6.05 68.55 15.35 103.85-23.95" fill="#53191f"/><path d="M105 192.65q15.45-18.4 39-27.45 11.8 30.8 40.4 48.8-3.95 3.3-8.15 5.95-19.1-13.6-35.05-36.75l-11.6 6.8q-18.7 14.9-20.55 35.95-16.2-5.1-34.1-15.5v-.05l29.45 5.6q-.6-13.05.6-23.35" fill="#e7af59"/><path d="m190.5 222.75-8.3 23.4q-15.05 6.2-32.6 9.45-45.75 6.7-86.7-9.35l3.65-5 17.1 4.55 17.15 4.6 5.2-13.2-30.8-18.75q.3-4.05-.25-8 17.9 10.4 34.1 15.5 28.75 9.05 52.05 1.2 7.9-2.65 15.15-7.2 4.2-2.65 8.15-5.95-28.6-18-40.4-48.8-23.55 9.05-39 27.45 5.45-48.55 49.55-38 20.8 31.75 52.1 50.2-35.3 39.3-103.85 23.95 56.8 15.8 87.7-6.05M112 239.2l-5.6 12.8h10.4l4-10.4-8.8-2.4" fill="#de6f2d"/><path d="m129.6 190 11.6-6.8q15.95 23.15 35.05 36.75-7.25 4.55-15.15 7.2Q140.9 213 129.6 190" fill="#eddc89"/><path d="M252.15 177.8q15.6-3.25 34.25-10.6 18.25 75.85-114.4 124-94.5 17.2-153.6-16 27.1-14.95 39.4-31.05l5.1 2.1Q52 260 31.6 274.4q56.6 26.35 121.45 11.9 18.9-4.2 38.55-11.9 93.45-30.15 91.2-98.8-18.55 6.8-34.25 9.55l3.6-7.35" fill="#e29a4b"/><path d="M74.2 224.6q.75-3.1 1-6.15L106 237.2l-5.2 13.2-17.15-4.6L87.2 234l-13-9.4m37.8 14.6 8.8 2.4-4 10.4h-10.4l5.6-12.8" fill="#e8c163"/><path d="m83.65 245.8-17.1-4.55q5.65-8.45 7.65-16.65l13 9.4-3.55 11.8" fill="#efe28f"/><path d="M109.05 225.95Q110.9 204.9 129.6 190q11.3 23 31.5 37.15-23.3 7.85-52.05-1.2" fill="#e8c063"/><path d="m231 211.25 5.45-6.8q3.85-5.2 7.35-10.85l4.75-8.45q15.7-2.75 34.25-9.55 2.25 68.65-91.2 98.8-19.65 7.7-38.55 11.9Q203 256.05 231 211.25" fill="#f9f7e2"/><path d="M182.2 246.15q29.1-12 48.8-34.9-28 44.8-77.95 75.05Q88.2 300.75 31.6 274.4 52 260 62.9 246.25q40.95 16.05 86.7 9.35 17.55-3.25 32.6-9.45" fill="#faf7e4"/><path d="M226 187q10.45.25 22.55-1.85l-4.75 8.45L226 187" fill="#e4b059"/><path d="M197.5 180.15q12.2 6.35 28.5 6.85l17.8 6.6q-3.5 5.65-7.35 10.85-21.7-6.85-38.95-24.3" fill="#da6329"/><path d="M18.2 144.25q1.95-3 4.25-5.9L43.6 124.8 42 136l-23.8 8.25" fill="#a72e25"/><path d="M119.7 85.6q12.8 0 21.85 9.05t9.05 21.85q0 12.8-9.05 21.85t-21.85 9.05q-12.8 0-21.85-9.05T88.8 116.5q0-12.8 9.05-21.85t21.85-9.05m-16.4 7.65q-1.95 1.4-3.7 3.15-3.25 3.25-5.2 7-1.5 2.8-2.25 5.85-.9 3.5-.9 7.35 0 11.8 8.35 20.15 6.4 6.4 14.8 7.9l5.4.5q11.8-.05 20.2-8.4 5.8-5.8 7.55-13.3.75-3.2.8-6.6v-.25q0-11.85-8.35-20.2-8.4-8.35-20.2-8.35-9.35 0-16.5 5.2" fill="#dd8d74"/><path d="M94.4 103.4q1.95-3.75 5.2-7 1.75-1.75 3.7-3.15-4.5 19.25 16 24.15 15.6 2.7 18.8-17.4 8.55 5.9 10.2 16.6l.05.25q-.05 3.4-.8 6.6l-3.95-7.25q-22.75 25.25-43-.05l-3.7-5.1-1.7-2.65q3.35-1.45 6-5-1.9-2.2-6.8 0" fill="#f1cea2"/><path d="M103.3 93.25q7.15-5.2 16.5-5.2 11.8 0 20.2 8.35 8.35 8.35 8.35 20.2h-.05q-1.65-10.7-10.2-16.6-3.2 20.1-18.8 17.4-20.5-4.9-16-24.15" fill="#f6efc4"/><path d="m96.9 111.05 3.7 5.1q-2 23.5 22 24.45l-9.65 3.35q-24.35-11.9-16.05-32.9" fill="#e87a87"/><path d="M114.4 144.65q-8.4-1.5-14.8-7.9-8.35-8.35-8.35-20.15 0-3.85.9-7.35l3.05-.85 1.7 2.65q-8.3 21 16.05 32.9l1.45.7" fill="#eea998"/><path d="M92.15 109.25q.75-3.05 2.25-5.85 4.9-2.2 6.8 0-2.65 3.55-6 5l-3.05.85" fill="#fffffe"/><path d="M147.55 123.45q-1.75 7.5-7.55 13.3-8.4 8.35-20.2 8.4l-5.4-.5-1.45-.7 9.65-3.35q-24-.95-22-24.45 20.25 25.3 43 .05l3.95 7.25" fill="#eda596"/></g><g id="w" fill-rule="evenodd"><path d="M114.15 2.9Q56.75 24.5 28.8 54.8 15 69.75 8.4 86.8q3.1 1.3 6.6 2.35l1.65.5L14.2 94Q6.7 92.5 0 90.4 27.15 24.65 107.2 0l6.95 2.9" fill="#6d3f1a"/><path d="M114.15 2.9 122 6.2Q67.4 29.7 36.6 63 24.9 75.6 16.65 89.65l-1.65-.5L28.8 54.8q27.95-30.3 85.35-51.9" fill="#c7851b"/><path d="M36.6 63Q67.4 29.7 122 6.2L212 44l-8.7 53.25q-45.1-22.3-78-14.4L36.6 63" fill="#722121"/><path d="M16.65 89.65Q24.9 75.6 36.6 63l88.7 19.85q-6.05 1.45-11.7 3.95-64.7 11.7-96.95 2.85" fill="#8e2a26"/><path d="m203.3 97.25-.9 5.55q-50.65-27.25-85.6-12.4Q54 101.65 14.2 94l2.45-4.35Q48.9 98.5 113.6 86.8q5.65-2.5 11.7-3.95 32.9-7.9 78 14.4" fill="#581414"/><path d="M28.8 54.8 15 89.15q-3.5-1.05-6.6-2.35 6.6-17.05 20.4-32" fill="#e9cc40"/></g><g id="x" fill-rule="evenodd"><path d="M11.8 53.65Q-9.8 29.35 8.15 2.3l2.45-.4q-17.5 27.7 5.1 51.45l-3.9.3" fill="#190f10"/><path d="M15.7 53.35Q-6.9 29.6 10.6 1.9q21.65-3.6 41.45-.35l2.1 2.4q-10.7 9.8-31.6 5.95l-4.6 8.6q6.1 19.4-4 27.4l3.65 7.3-1.9.15" fill="#3775c0"/><path d="m17.6 53.2-3.65-7.3q10.1-8 4-27.4l4.6-8.6q20.9 3.85 31.6-5.95l14.9 16.9-.65.85q-16.7 2.7-32.25-.8l8.4 6h-12.8Q54.2 41.2 36.7 51.65L17.6 53.2" fill="#22557d"/><path d="m52.05 1.55 5.1.95L70.6 18.65l-1.55 2.2-14.9-16.9-2.1-2.4" fill="#280e0b"/><path d="m67.8 26.45 2.55-4.15 2.8 3.2-1.85 6.1-3.5-5.15" fill="#995d0e"/><path d="m11.8 53.65 3.9-.3 1.9-.15 19.1-1.55 4.05-.35Q56 38.55 68.4 21.7l.65-.85 1.55-2.2 5.55 6.65q-.55 3.05-1.6 6.2l-1.25 3.2-1.8 3.75Q67.35 46.3 60 54.5l-1.85 2L50 64.45l-5 4.4-3.7 3-3.15 2.45Q21.2 64.25 11.8 53.65M71.3 31.6l1.85-6.1-2.8-3.2-2.55 4.15q-7.65 11.8-18.8 22.2l-6.65 5.85-11.75 1-11.75.95q7.75 7.2 19.3 14.05l8.75-7.05 5.7-5.2Q66.2 44.9 71.3 31.6" fill="#5c231d"/><path d="m90.6 57.95-19.1-19.5 1.8-3.75q8.9 11.85 18.55 21.25l-1.25 2" fill="#d4b18e"/><path d="M60 54.5q7.35-8.2 11.5-16.05 5.5 14.4 17.4 22.4l-2.95 4.85h-7.4L60 54.5" fill="#987461"/><path d="m67.8 26.45 3.5 5.15q-5.1 13.3-18.7 26.65l-3.6-9.6q11.15-10.4 18.8-22.2" fill="#623923"/><path d="M74.55 31.5q8.75 13.35 20.3 24.45 4.25 4.15 8.9 7.95v15.6l-8 22.2q-7.75 8.95-16.5 15.95l-1-2.35q8.1-6.8 15.7-15.8l7.2-21V64.3q-3.8-3.1-7.45-6.6l-3.2 4.9-4.35 6.7h-8l-20-12.8 1.85-2 18.55 11.2h7.4l2.95-4.85 1.7-2.9 1.25-2Q82.2 46.55 73.3 34.7l1.25-3.2m-6 66.2q4.3 6.4 7.8 13.55l1.9 4.05-2.5 2q-8.85-23.25-26.4-38.2l-3.55 2.25q-4.7 3-9.45 5.95l.95-3.4 11.85-8q8 6.8 14.5 15.05l4.9 6.75" fill="#190704"/><path d="M36.7 51.65Q54.2 41.2 31.75 26.9h12.8l-8.4-6q15.55 3.5 32.25.8Q56 38.55 40.75 51.3l-4.05.35" fill="#183753"/><path d="m90.5 62.6 3.2-4.9q3.65 3.5 7.45 6.6v3L90.5 62.6" fill="#513845"/><path d="m90.5 62.6 10.65 4.7v11.2q-11.05 20-24.8 32.75-3.5-7.15-7.8-13.55 11.55-7 15.8-21.2L50 64.45l8.15-7.95 20 12.8h8l4.35-6.7" fill="#3f2a36"/><path d="m71.5 38.45 19.1 19.5-1.7 2.9q-11.9-8-17.4-22.4" fill="#af8978"/><path d="m52.6 58.25-5.7 5.2-4.55-8.95L49 48.65l3.6 9.6" fill="#965c0f"/><path d="m46.9 63.45-8.75 7.05-7.55-15 11.75-1 4.55 8.95" fill="#be7319"/><path d="M50 64.45 84.35 76.5q-4.25 14.2-15.8 21.2l-4.9-6.75 11.1-9.85Q62 72.55 45 68.85l5-4.4" fill="#523846"/><path d="M67.95 122.8Q60.8 100.75 47.8 83.6l-2.25 6.6-14.1 40.5q4.1-26.55 14.35-49.35l3.55-2.25q17.55 14.95 26.4 38.2l-7.8 5.5" fill="#81838a"/><path d="m45.55 90.2 2.25-6.6q13 17.15 20.15 39.2-4.55 2.85-9.2 5.1-1.05-19.5-13.2-37.7" fill="#b8bbc0"/><path d="M45 68.85q17 3.7 29.75 12.25l-11.1 9.85q-6.5-8.25-14.5-15.05l-11.85 8q1.75-6 4-12.05l3.7-3" fill="#6b4b62"/><path d="M79.25 117.65Q57.1 135.3 28.75 140.5 26.7 111.85 34.2 86l3.1-2.1-.95 3.4q-5.95 22.2-4.9 43.4l.3 4.8q14.1-1.4 27-7.6 4.65-2.25 9.2-5.1l7.8-5.5 2.5-2 1 2.35" fill="#4b4d5d"/><path d="m101.15 78.5-7.2 21q-7.6 9-15.7 15.8l-1.9-4.05Q90.1 98.5 101.15 78.5" fill="#4f3647"/><path d="M45.55 90.2q12.15 18.2 13.2 37.7-12.9 6.2-27 7.6l-.3-4.8 14.1-40.5m.25-8.85q-10.25 22.8-14.35 49.35-1.05-21.2 4.9-43.4 4.75-2.95 9.45-5.95" fill="#f9fbfa"/><path d="M34.2 86q1.75-5.95 3.95-11.7l3.15-2.45q-2.25 6.05-4 12.05L34.2 86" fill="#362225"/><path d="M38.15 70.5q-11.55-6.85-19.3-14.05l11.75-.95 7.55 15" fill="#e6c33d"/><path d="m50.85 71 1.35.25q1.35 0 2.3-.95.95-.95.95-2.3 0-1.35-.95-2.3-.95-.95-2.3-.95-1.35 0-2.3.95-.5.5-.7 1.1-.7.1-1.25.6-.65.7-.65 1.65t.65 1.6q.7.7 1.65.7l1.25-.35m-3.15-6.15q1.5-1.5 3.6-1.5 2.05 0 3.55 1.5t1.55 3.6q-.05 2.05-1.55 3.55t-3.55 1.55q-2.1-.05-3.6-1.55t-1.5-3.55q0-2.1 1.5-3.6" fill="#1e72e1"/><path d="m49.2 66.8.4-.05q.95 0 1.6.65.7.7.7 1.65t-.7 1.6l-.35.35-1.25.35q-.95 0-1.65-.7-.65-.65-.65-1.6 0-.95.65-1.65.55-.5 1.25-.6" fill="#61f7b6"/><path d="M46.7 63.85q2.1-2.05 5-2.05t4.95 2.05q2.1 2.1 2.1 5t-2.1 4.95q-2.05 2.1-4.95 2.1-2.9 0-5-2.1-2.05-2.05-2.05-4.95 0-2.9 2.05-5m1 1q-1.5 1.5-1.5 3.6 0 2.05 1.5 3.55t3.6 1.55q2.05-.05 3.55-1.55t1.55-3.55q-.05-2.1-1.55-3.6t-3.55-1.5q-2.1 0-3.6 1.5" fill="#1c2d2f"/><path d="m50.85 71 .35-.35q.7-.65.7-1.6 0-.95-.7-1.65-.65-.65-1.6-.65l-.4.05q.2-.6.7-1.1.95-.95 2.3-.95 1.35 0 2.3.95.95.95.95 2.3 0 1.35-.95 2.3-.95.95-2.3.95L50.85 71" fill="#01180e"/></g><g id="y" fill-rule="evenodd"><path d="M2.25 50.85 0 48.95q5.5-15.7 18.4-26.2l44.6-17Q74.6 2 83.9.7L43.15 16 18.8 25.15q-11 10.9-16.55 25.7m119.7-22 .05 1.9-36 31.4q-26.5 2-45.55.35l2.8-.2 12.15-1h.05l29.15-2.35 34.35-27.7 3-2.4" fill="#220500"/><path d="M40.45 62.5q-12-1.05-21.05-3.6l-1.8-5.95 4.8-8H47l13-12.8-16.8-16.1Q79.55 27.9 76 49.15l-16.9 10-22.9-3.4 7.05 6.55-2.8.2m15-1.2 28.15-5.15 35.35-24.9-34.35 27.7-29.15 2.35" fill="#21507a"/><path d="M2.25 50.85q5.55-14.8 16.55-25.7L43.15 16l.05.05L60 32.15l-13 12.8H22.4l-4.8 8 1.8 5.95q-10.65-3-17.15-8.05" fill="#3671c0"/><path d="M43.15 16 83.9.7q36.85-5.15 38.05 28.15l-3 2.4-35.35 24.9-28.15 5.15 3.65-2.15 16.9-10q3.55-21.25-32.8-33.1l-.05-.05" fill="#173350"/><path d="m59.1 59.15-3.65 2.15h-.05l-12.15 1-7.05-6.55 22.9 3.4" fill="#173650"/></g><g id="z" fill-rule="evenodd"><path d="m73.1 59.1 2.5-1.2Q102.8 75 110 107.1l-3.2 6.35q-.5-30.25-33.7-54.35" fill="#543e42"/><path d="M73.1 59.1q33.2 24.1 33.7 54.35-10.75 18.8-28.9 20.25L56.1 67.15l17-8.05" fill="#6d464a"/><path d="M57.15 130.3q-22.1-10.8-12.75-57.6l2.75-1.3q-9.5 43.1 10 58.9" fill="#715151"/><path d="M77.9 133.7q-8.2.65-17.9-2.2l-2.85-1.2q-19.5-15.8-10-58.9l8.95-4.25 21.8 66.55" fill="#976363"/><path d="m57.7 3.4 3.7 1.3 21.4 32.6v6.6L92 54.6l-1.65 2.75L79.8 44.7v-6.6L65.6 15.8 57.7 3.4m-36.9 78-5.2-25.3L0 35.9l.65-2.1 4.85 5.65L16.55 52.3 28.2 65.9l2.6 7.8L19 59.3l5 22.6-3.2-.5" fill="#13121a"/><path d="M17.6 6.75Q32.75-4.75 57.7 3.4l7.9 12.4 10.6 23.9v7.4l12 13.85L81 72.9l-21.8-6.2-4.6 9.6-19.4-3.2-8.05 9.3-3.15-.5-5-22.6 11.8 14.4-2.6-7.8-11.65-13.6 12.65 4.8h18.6V33.5l-7.4-6-4.2-10.6L17.6 6.75" fill="#102140"/><path d="M.65 33.8Q6.55 15.1 17.6 6.75L36.2 16.9l4.2 10.6 7.4 6v23.6h-9.3L38 32.5 12.8 17.3 5.5 39.45.65 33.8" fill="#163360"/><path d="m65.6 15.8 14.2 22.3v6.6l10.55 12.65-2.15 3.6-12-13.85v-7.4L65.6 15.8" fill="#142f5d"/><path d="m92 54.6 9.2 10.7q-4.15 8.3-8.8 15.9l-1.2 1.95q-6.35 10-13.6 18.75l-15.25-.8-9.05-.9-4.25-.55Q35.8 97.7 23.4 94.3l-2.6-12.9 3.2.5 3.15.5L50 85.9l4.6-9.6 4.6-9.6L81 72.9l7.2-11.95 2.15-3.6L92 54.6m.7 19.6 4.3-8.9-4.65-5.55-3.15 5.15-7 11.4-21.8-6-8.6 18.4-7.85-1.15-14.1-2.15-5.25-.8 1.8 8.3 6.15 1.75q7.5 1.9 15.2 3.05 13.7 2.05 28.05 1.6 5.65-6.65 10.4-13.95 3.5-5.4 6.5-11.15" fill="#23171a"/><path d="m89.2 64.9 3.15-5.15L97 65.3l-4.3 8.9-3.5-9.3" fill="#9c4013"/><path d="m62.35 101.1 15.25.8q7.25-8.75 13.6-18.75L121 105.9l.95 20.15q-20.75-19.2-46.15-16.55l-1.65 2.05-6.55-5.8-5.25-4.65" fill="#231727"/><path d="m89.2 64.9 3.5 9.3q-3 5.75-6.5 11.15l-4-9.05 7-11.4" fill="#60320a"/><path d="M86.2 85.35q-4.75 7.3-10.4 13.95l-15.4-29 21.8 6 4 9.05" fill="#3a1f18"/><path d="M127.55 131.75q2.35 33.35-6.35 63.15-36.45-5.5-60.75-34.15 0-4.3.25-8.35.55-8.6 2.2-16.05 2.9-12.8 9.2-22.05l2.05-2.75 1.65-2.05q25.4-2.65 46.15 16.55l5.6 5.7m-6.35-.85-1.3-1.55q-17.55-19.85-41.5-16.85 13.25 21.45 24.85 43.5l8.55 16.7 6.2 13q5.65-25.8 3.2-54.8m-56.75 19.45-.25 3.55q15.75 24.1 46.7 33.05l.25.1 5.65 1.45-35.35-65.7L76 112.7q-9.75 16.5-11.55 37.65" fill="#4c4f5e"/><path d="m67.6 105.75 6.55 5.8-2.05 2.75q-9.25-9.55-18.5 2.6-4.3 13.4 9.3 19.45-1.65 7.45-2.2 16.05l-13.3-15.9q-.55-15.95 3.1-28.55l17.1-2.2" fill="#442e4c"/><path d="M92.4 81.2q16.7 8.4 31.4 22.9 2.75 14.1 3.75 27.65l-5.6-5.7-.95-20.15-29.8-22.75 1.2-1.95m-31.95 79.55Q51.4 150.05 44 136.1q-.45-19.55 5.05-36.45l4.25.55q-1.6 3.7-2.8 7.75-3.65 12.6-3.1 28.55l13.3 15.9q-.25 4.05-.25 8.35" fill="#1a0807"/><path d="M38.5 57.1h-9.3l-12.65-4.8L5.5 39.45l7.3-22.15L38 32.5l.5 24.6" fill="#2447b1"/><path d="m27.15 82.4 8.05-9.3 19.4 3.2-4.6 9.6-22.85-3.5" fill="#14305c"/><path d="M75.8 99.3q-14.35.45-28.05-1.6l-3.8-10.15 7.85 1.15 8.6-18.4 15.4 29" fill="#dda32e"/><path d="M32.55 94.65 26.4 92.9l-1.8-8.3 5.25.8 2.7 9.25" fill="#6c3b0c"/><path d="m62.35 101.1 5.25 4.65-17.1 2.2q1.2-4.05 2.8-7.75l9.05.9" fill="#372438"/><path d="M47.75 97.7q-7.7-1.15-15.2-3.05l-2.7-9.25 14.1 2.15 3.8 10.15" fill="#a24714"/><path d="m119.9 129.35 1.3 1.55q-2.4 24-9.4 41.8l-8.55-16.7q-.35-26.9 16.65-26.65" fill="#8486a3"/><path d="m81.45 122.8 35.35 65.7-5.65-1.45-.25-.1Q88.95 172.2 70.1 155.5q-1.65-28.9 11.35-32.7" fill="#f6f9f8"/><path d="M64.45 150.35Q66.25 129.2 76 112.7l5.45 10.1q-13 3.8-11.35 32.7l-5.65-5.15" fill="#a9adc0"/><path d="M110.9 186.95Q79.95 178 64.2 153.9l.25-3.55 5.65 5.15q18.85 16.7 40.8 31.45" fill="#8588a4"/><path d="M121.2 130.9q2.45 29-3.2 54.8l-6.2-13q7-17.8 9.4-41.8" fill="#acb0c5"/><path d="M103.25 156q-11.6-22.05-24.85-43.5 23.95-3 41.5 16.85-17-.25-16.65 26.65" fill="#51506d"/><path d="M72.1 114.3q-6.3 9.25-9.2 22.05-13.6-6.05-9.3-19.45 9.25-12.15 18.5-2.6" fill="#663a63"/><path d="M69.45 96.65q-1.2.2-2.15 1.05-1.15 1.25-1.15 2.9t1.15 2.75q1.2 1.25 2.85 1.25 1.2 0 2.15-.65l2.35.45q2.35 0 4-1.65t1.65-4q0-2.35-1.65-4t-4-1.65q-2.35 0-4 1.65-.85.9-1.2 1.9m-2.6-3.35q2.6-2.6 6.25-2.6 3.55 0 6.15 2.6 2.65 2.6 2.7 6.25-.05 3.55-2.7 6.15-2.6 2.6-6.15 2.7-3.65-.1-6.25-2.7t-2.6-6.15q0-3.65 2.6-6.25" fill="#1e72e1"/><path d="M72.3 103.95q-.95.65-2.15.65-1.65 0-2.85-1.25-1.15-1.1-1.15-2.75t1.15-2.9q.95-.85 2.15-1.05l.7-.05q1.65 0 2.8 1.1 1.2 1.25 1.2 2.9t-1.2 2.75l-.65.6" fill="#61f7b6"/><path d="M66.85 93.3q-2.6 2.6-2.6 6.25 0 3.55 2.6 6.15 2.6 2.6 6.25 2.7 3.55-.1 6.15-2.7 2.65-2.6 2.7-6.15-.05-3.65-2.7-6.25-2.6-2.6-6.15-2.6-3.65 0-6.25 2.6m-1.75-1.75Q68.75 88 73.8 88q5.05 0 8.6 3.55 3.65 3.65 3.65 8.7 0 5-3.65 8.6-3.55 3.65-8.6 3.65t-8.7-3.65q-3.55-3.6-3.55-8.6 0-5.05 3.55-8.7" fill="#1c2d2f"/><path d="M69.45 96.65q.35-1 1.2-1.9 1.65-1.65 4-1.65t4 1.65q1.65 1.65 1.65 4t-1.65 4q-1.65 1.65-4 1.65l-2.35-.45.65-.6q1.2-1.1 1.2-2.75t-1.2-2.9q-1.15-1.1-2.8-1.1l-.7.05" fill="#01180e"/></g><g id="A" fill-rule="evenodd"><path d="m28.6 103.35-3.8-1.85L0 23.1l2.35-3.75 22.55 72.2 3.7 11.8M48.2 1.55l4.2 1.15 41.15 71.45-.65 5.05L48.2 1.55" fill="#140909"/><path d="M2.35 19.35q16.6-24.8 45.85-17.8L92.9 79.2q-3.9 24.85-19.4 31.15v-9.65l-8.1-8-2.8-7.8L31 65.5l-6.1 26.05-22.55-72.2" fill="#112341"/><path d="M73.5 110.35q-4.1 1.65-9.05 2.05l-.05-13.1-25.6-17.2-6.7 22.85-3.5-1.6-3.7-11.8L31 65.5l31.6 19.4 2.8 7.8 8.1 8v9.65" fill="#1a3c68"/><path d="M64.45 112.4q-13.25.95-32.35-7.45l6.7-22.85 25.6 17.2.05 13.1" fill="#2447b1"/></g><g id="B" fill-rule="evenodd"><path d="M19.75 44.8Q21.9 24.7 55 0l1.65 1.35Q25.55 26 23.8 47.2l4.6-1.2 9.2-2.4q-2 18.4 4.25 29.35 5.55 9.8 17.75 13.65 19.6-3.9 29.85-28.5l.75 4.1-2.25 4.75-1.85 3.25Q73.85 90.75 53.6 89.8q-3.3-2.2-6.05-4.75-8.4-7.75-11.75-18.7-2.6-8.5-2.2-18.95l-6.9 1.7-6.9 1.7q-.4-2.95-.05-6" fill="#754526"/><path d="M62.7 6.95q3.7 3.7 6.95 7.75Q48.6 31.85 43.5 57.6q-4.7-11.35-2.9-31.5Q49.7 15 62.7 6.95" fill="#c8871b"/><path d="M19.75 44.8q-.35 3.05.05 6l6.9-1.7-3.25 2.9L9.4 64.4q5.3 7.05 12.4 11.75 2.55 1.7 5.4 3.1 8.95 4.5 20.35 5.8 2.75 2.55 6.05 4.75l-3.85.6-5.65.3Q18.95 90.65 0 63.4l19.75-18.6" fill="#601818"/><path d="m26.7 49.1 6.9-1.7q-.4 10.45 2.2 18.95-1.65 9.45-8.6 12.9-2.85-1.4-5.4-3.1Q37.15 61.8 23.45 52l3.25-2.9" fill="#c92f17"/><path d="m28.4 46-4.6 1.2Q25.55 26 56.65 1.35l6.05 5.6Q49.7 15 40.6 26.1 33.25 35.05 28.4 46" fill="#f7eaad"/><path d="M41.85 72.95Q35.6 62 37.6 43.6L28.4 46q4.85-10.95 12.2-19.9-1.8 20.15 2.9 31.5-1.5 7.35-1.65 15.35" fill="#ecd142"/><path d="M23.45 52q13.7 9.8-1.65 24.15-7.1-4.7-12.4-11.75L23.45 52" fill="#e7572b"/><path d="M35.8 66.35q3.35 10.95 11.75 18.7-11.4-1.3-20.35-5.8 6.95-3.45 8.6-12.9" fill="#a42819"/><path d="m86.1 70.2 1.85-3.25q15.7 39.35-3.35 59.65l-22.8-8.8-17.7-27.1 5.65-.3 13.65 24 19.6 8.4q15.55-16.35 3.1-52.6" fill="#856859"/><path d="M53.6 89.8q20.25.95 32.5-19.6 12.45 36.25-3.1 52.6l-19.6-8.4-13.65-24 3.85-.6" fill="#a77e70"/><path d="M89.45 58.1Q79.2 82.7 59.6 86.6q-12.2-3.85-17.75-13.65.15-8 1.65-15.35 5.1-25.75 26.15-42.9 14.75 18.35 19.8 43.4" fill="#a46b10"/></g><g id="C" fill-rule="evenodd"><path d="m73.8 6.15 2.5 1.3-4.7 24.45q-9.6 5.9-21.75 4.7l7.2-6.3 2.25.6L73.8 6.15" fill="#693d20"/><path d="M11.7 15.15Q24.5 8.2 45.2 4.8L49 0l18.6 3 2.15 1.1-20.25-2-2.7 4.4-3.9.65Q26.35 10 15.55 15.5q10.75 1.15 20.6 4.6 4.5 1.6 8.85 3.65 2.45 1.15 4.8 2.45l9 2L72.5 5.5l1.3.65L59.3 30.9l-2.25-.6-7.95-2.1-.9-.5Q38 22.15 26.6 19.3q-6.6-1.65-13.65-2.4l2.6-1.4-3.85-.35" fill="#741b18"/><path d="m76.3 7.45 1.1.55-4 25.2q-12.05 8.45-28.8 4.4Q22.65 27.65 0 23.8q4.65-4.85 11.7-8.65l3.85.35-2.6 1.4q-4.5 2.6-7.85 5.7 6.25 1.1 12.55 2.85 9.25 2.5 18.7 6.4Q41 33.75 45.7 36l4.15.6Q62 37.8 71.6 31.9l4.7-24.45" fill="#4d281c"/><path d="m69.75 4.1 2.75 1.4-13.7 22.7-9-2q-2.35-1.3-4.8-2.45 14.6-.7 1.8-17.25l2.7-4.4 20.25 2" fill="#972317"/><path d="m57.05 30.3-7.2 6.3-4.15-.6q-4.7-2.25-9.35-4.15L48.2 27.7l.9.5 7.95 2.1" fill="#985e10"/><path d="M46.8 6.5Q59.6 23.05 45 23.75q-4.35-2.05-8.85-3.65 1.05-6.3 6.75-12.95l3.9-.65" fill="#bf2a17"/><path d="M36.15 20.1q-9.85-3.45-20.6-4.6Q26.35 10 42.9 7.15q-5.7 6.65-6.75 12.95" fill="#e54d29"/><path d="M26.6 19.3q11.4 2.85 21.6 8.4l-11.85 4.15q-9.45-3.9-18.7-6.4l8.95-6.15" fill="#c1791b"/><path d="M12.95 16.9q7.05.75 13.65 2.4l-8.95 6.15Q11.35 23.7 5.1 22.6q3.35-3.1 7.85-5.7" fill="#e8c83f"/></g><g id="D" fill-rule="evenodd"><path d="M11.55 6.05V2.9q27.6-5.8 54.15-.05l12.2 7.8h5.3l2.5 4.7 5.7-6 11.9 4.3h90.8q-24.9 10.15-20.4 88.6l-3.35-1.75q.05-15.55.75-28.3 2.5-46.95 13.8-55.55h-81.6l-11-4.4-3 3.3-3 3.3-4.6-5.8h-6.2l-10-7Q39-2.1 11.55 6.05" fill="#400e11"/><path d="M11.55 2.9v31.95l18.15 16.4 3.55.6q20.35 3 48.25 2.6l44.3 22.95L148.15 89l22.2 11.5 3.35 1.75-5.6 27.2q-63.35-46.3-95.6-62.8l-44.8-4Q11.85 56.7.4 37.65q-.8-14.4 0-32l2.1-.6q-1.75 17.45.6 30.8 5.45 16.1 25.2 24.4l7.85.7 11.15.95 25.4 2.15q19.05 10.7 37.05 22l.35.2 5.95 3.8L127 97.2q8.35 5.55 16.5 11.25 11.75 8.25 23 16.8l1.9-11.1 1.9-11.1-14.95-7.7L113.8 74l-7.95-4.1L84.7 59l-3.4-1.75-38.6-1.3-13.6-1.5-19.85-18V3.4l2.3-.5" fill="#5e1e16"/><path d="M3.1 35.85Q.75 22.5 2.5 5.05L5 4.4 3.1 35.85" fill="#e4bc39"/><path d="M9.25 3.4v33.05l19.85 18 7.05 6.5-7.85-.7q-19.75-8.3-25.2-24.4L5 4.4l4.25-1" fill="#8c530e"/><path d="m33.25 51.85-3.55-.6-18.15-16.4v-13l12.75-3.4q26.25-16.95 48.8-2.6h6l6 11.3-2.2 5.7-12.8-12.4-4.4 3.8-24.8-6.4q-26.55 10.7-7.65 34" fill="#8d1f16"/><path d="M11.55 6.05Q39-2.1 65.5 6.05l10 7h6.2l4.6 5.8 1 2.6-2.2 5.7-6-11.3h-6Q50.55 1.5 24.3 18.45l-12.75 3.4V6.05" fill="#6a1c1d"/><path d="M33.25 51.85q-18.9-23.3 7.65-34l24.8 6.4 4.4-3.8 12.8 12.4 2.2-5.7 2.2-5.7h3.2l12 20.2-9.2 2-11.8 10.8q-27.9.4-48.25-2.6m4.05-25.6q-6.85 14.65 8 23.4h27q18.5-13.6-11.8-23.4H37.3" fill="#ab1e13"/><path d="m86.3 18.85 3-3.3 20.8 22.3v13.4l15.7 26.15-44.3-22.95 11.8-10.8 9.2-2-12-20.2h-3.2l-1-2.6" fill="#711713"/><path d="m89.3 15.55 3-3.3 11 4.4h81.6q-11.3 8.6-13.8 55.55l-6 16.05-16.95.75-22.35-11.6-15.7-26.15v-13.4l-20.8-22.3" fill="#57161a"/><path d="M37.3 26.25h23.2q30.3 9.8 11.8 23.4h-27q-14.85-8.75-8-23.4" fill="#de3923"/><path d="m29.1 54.45 13.6 1.5 4.6 5.95-11.15-.95-7.05-6.5" fill="#b25c17"/><path d="m42.7 55.95 38.6 1.3L84.7 59l4.4 9.65 20.65 17.4q-18-11.3-37.05-22L47.3 61.9l-4.6-5.95" fill="#e0ae33"/><path d="m84.7 59 21.15 10.9 10.2 20.15-5.95-3.8-.35-.2-20.65-17.4L84.7 59" fill="#a64d15"/><path d="m105.85 69.9 7.95 4.1L127 97.2l-10.95-7.15-10.2-20.15" fill="#6a3a0a"/><path d="m168.4 114.15-1.9 11.1q-11.25-8.55-23-16.8l15.75 3.6 9.15 2.1" fill="#9c3e13"/><path d="m155.35 95.35 14.95 7.7-1.9 11.1-9.15-2.1-3.9-16.7" fill="#5d320a"/><path d="M171.1 72.2q-.7 12.75-.75 28.3L148.15 89l16.95-.75 6-16.05" fill="#5d1311"/><path d="m113.8 74 41.55 21.35 3.9 16.7-15.75-3.6q-8.15-5.7-16.5-11.25L113.8 74" fill="#3d221a"/></g><g id="E" fill-rule="evenodd"><path d="m16.55 41.4-4.95-6.8-.4 4.15-2.9-5.4 1.85-18.15L87.75 0l1.45 2.75q-23 16.35-42.4 33.2L32.35 34.8l-15.8 6.6" fill="#bc9d84"/><path d="m8.3 33.35 2.9 5.4.4-4.15 4.95 6.8L24 51.6l2.35 3.2Q36 45.3 46.8 35.95 66.2 19.1 89.2 2.75L90.4 5q-20 15.35-39.05 31.45l-7 5.95-18 15.8q-5.4-5.05-9.85-11.15-2.85-3.95-5.3-8.3l-1.35 13.4 2.95 4.35 11.75 17.1q7.2-6.95 14.75-13.4 7.05-6.05 14.35-11.7Q74.6 32.45 98 19.6 63.1 42.7 34.1 68.45h-.05L25.75 76v4h5v8h-6v3.8h5v8.6h-6v13.3l-2.5-.35.5-13.35h-4.2v-7h4v-4.8h-4.2v-8.4h5.8v-3l-2.05-3.3L9.55 55.15l-2.95-4.7 1.7-17.1M26.55 81.5l-7.4-.15v4.9H29.4v-4.7l-2.85-.05M20.6 98.65h7.45v-5.1l-1.85.15-7.05.6v4.35h1.45" fill="#3e2316"/><path d="m16.55 41.4 15.8-6.6L24 51.6l-7.45-10.2" fill="#fcf5e4"/><path d="M24.55 73.6 12.8 56.5l3.7-9.45q4.45 6.1 9.85 11.15l-1.8 15.4" fill="#f5e6a2"/><path d="m32.35 34.8 14.45 1.15Q36 45.3 26.35 54.8L24 51.6l8.35-16.8" fill="#eacda0"/><path d="M9.55 55.15 21.1 73.5l-6.45-2.8-6.35-2.75 1.25-12.8" fill="#812221"/><path d="m6.6 50.45 2.95 4.7-1.25 12.8-.75 7.45 5.2 14.2-2.05 17.6q-1.65-2.65-1.95-6.4V88.4l-4.6-14L6.6 50.45m101.3-12 2.05 3.95q-25.3 33.2-30.8 59l-3.65 1.35q5-33.5 32.4-64.3" fill="#621718"/><path d="m12.8 56.5-2.95-4.35 1.35-13.4q2.45 4.35 5.3 8.3l-3.7 9.45" fill="#edce40"/><path d="m21.1 73.5 2.05 3.3v3h-5.8v8.4h4.2V93h-4v7h4.2l-.5 13.35Q13.7 112 10.7 107.2l2.05-17.6q-2.4-10.95 1.9-18.9l6.45 2.8" fill="#c02a17"/><path d="m8.3 67.95 6.35 2.75q-4.3 7.95-1.9 18.9l-5.2-14.2.75-7.45" fill="#9a2418"/><path d="M29.75 91.8h-5V88h6v-8h-5v-4l8.3-7.55h.05l12.3-5.3q5 12.85 0 20.45-5.7 8.45-16.65 8.2" fill="#e34627"/><path d="M21.6 86.25h-2.45v-4.9l7.4.15-4.95 4.75" fill="#e9c93e"/><path d="m21.6 86.25 4.95-4.75 2.85.05v4.7h-7.8m4.6 7.45 1.85-.15v5.1H20.6l5.6-4.95" fill="#a76910"/><path d="M39.3 60.2q-7.55 6.45-14.75 13.4l1.8-15.4 18-15.8-5.05 17.8" fill="#e6c23c"/><path d="m26.2 93.7-5.6 4.95h-1.45V94.3l7.05-.6" fill="#e9c73d"/><path d="M23.75 113.7v-13.3h6v-8.6q10.95.25 16.65-8.2 5-7.6 0-20.45l2.5-1.1q5.45 10 5.65 21.15-8.8 18.1-28.85 30.6l-1.95-.1" fill="#ba2615"/><path d="m75.5 102.75-3.7 1.3L74.35 80q13.1-25.9 31.6-45.3l1.95 3.75q-27.4 30.8-32.4 64.3" fill="#8c1f16"/><path d="M34.1 68.45Q63.1 42.7 98 19.6h.05l7.9 15.1Q87.45 54.1 74.35 80l-2.55 24.05q-11.35 3.9-20.7 6.3L63.55 73.4l-4.8-15.6-9.85 4.25-2.5 1.1-12.3 5.3" fill="#6e1c1e"/><path d="M98 19.6Q74.6 32.45 53.65 48.5l-2.3-12.05Q70.4 20.35 90.4 5l7.65 14.6H98" fill="#643a23"/><path d="M53.65 48.5q-7.3 5.65-14.35 11.7l5.05-17.8 7-5.95 2.3 12.05" fill="#995f10"/><path d="M51.1 110.35q-15.55 3.9-25.4 3.45 20.05-12.5 28.85-30.6-.2-11.15-5.65-21.15l9.85-4.25 4.8 15.6-12.45 36.95" fill="#912116"/><path d="M25.2 104.55q-2.7 1.85-5.05 4.45l-3.65-1.7-7.65-3.6q-4.05 8.1-2 15.05.7 2.5 2.2 4.85 4.3 2.85 8.5 3.85 5.55 1.25 10.95-.7 3-1.1 5.95-3.15 7.4-12.2-1.3-22.8-4.3 1.15-7.95 3.75M39.15 119l-1.8 4.9q-10.6 9.55-26.3 3.3-5.9-3.1-6.9-10.7-8.25-5.15 0-14.4 2.75-3.7 5.1-.4l10.3 4.6q6.1-5.9 14.2-8.2l2.1 2.75 1.45 2.35q3.15 5.95 2.5 12.4l-.65 3.4m-35-4.6q-.05-5.5 2.9-11.4-2.55-.4-5.1 4.7-.6 5.6 2.2 6.7" fill="#492a19"/><path d="M25.2 104.55q3.65-2.6 7.95-3.75l2.2 14.1q-5 5.95-6.85 11.85-5.4 1.95-10.95.7 15.4-9 7.65-22.9" fill="#95590e"/><path d="m16.5 107.3 3.65 1.7q2.35-2.6 5.05-4.45 7.75 13.9-7.65 22.9-4.2-1-8.5-3.85-1.5-2.35-2.2-4.85 12.05 0 9.65-11.45" fill="#bc6e19"/><path d="M33.15 100.8q8.7 10.6 1.3 22.8-2.95 2.05-5.95 3.15 1.85-5.9 6.85-11.85l-2.2-14.1" fill="#5e3522"/><path d="M4.15 114.4q-2.8-1.1-2.2-6.7 2.55-5.1 5.1-4.7-2.95 5.9-2.9 11.4" fill="#f8d541"/><path d="M6.85 118.75q-2.05-6.95 2-15.05l7.65 3.6q2.4 11.45-9.65 11.45" fill="#f5e49e"/><path d="M35.85 100.85q26.85-10.5 44.6-1.35l1.3 10.4Q62 104.95 39.15 119l.65-3.4 5.2-2.55q4.45-2 8.75-3.35 2.55-.85 5.05-1.4h.05q5.1-1.25 10.05-1.5l10.85.6-1.5-6.5q-6.65-3.3-13.9-3.9l-3.1-.1q-5.55 0-11.45 1.5-3.8 1-7.8 2.65-2.35.95-4.7 2.15l-1.45-2.35" fill="#4a2b1b"/><path d="M64.35 97q7.25.6 13.9 3.9l1.5 6.5-10.85-.6-4.55-9.8" fill="#563020"/><path d="M68.9 106.8q-4.95.25-10.05 1.5 4.65-4 2.4-11.4l3.1.1 4.55 9.8" fill="#8b530d"/><path d="M58.85 108.3h-.05q-2.5.55-5.05 1.4l-10.05-7.4-1.7-1.25q4-1.65 7.8-2.65l9.05 9.9" fill="#e5bd39"/><path d="M61.25 96.9q2.25 7.4-2.4 11.4l-9.05-9.9q5.9-1.5 11.45-1.5" fill="#b66619"/><path d="M53.75 109.7q-4.3 1.35-8.75 3.35 2.6-5.2-1.3-10.75l10.05 7.4" fill="#8e550e"/><path d="M39.8 115.6q.65-6.45-2.5-12.4 2.35-1.2 4.7-2.15l1.7 1.25q3.9 5.55 1.3 10.75l-5.2 2.55" fill="#5d3521"/><path d="m17.75 112.05-1.35-.8-.2-.25q-.65-.75-.65-1.8 0-1.2.85-2.05.85-.85 2.05-.85 1.2 0 2.05.85l.1.1h.1q1.35 0 2.3.95v.05q-.95-.5-2-.5.35.65.35 1.45 0 1.2-.85 2.05-.85.85-2.05.85l-.7-.05" fill="#e4fecd"/><path d="M23.05 108.25q.95 1 .95 2.3 0 1.35-1 2.3-.95 1-2.3 1-1.35 0-2.35-1l-.6-.8.7.05q1.2 0 2.05-.85.85-.85.85-2.05 0-.8-.35-1.45 1.05 0 2 .5h.05" fill="#001508"/><path d="M16.2 111q-.3.8-.3 1.7 0 2.05 1.45 3.5 1.45 1.45 3.5 1.45t3.5-1.45q1.45-1.45 1.45-3.5t-1.45-3.5l-1.3-.95-.05-.05q-.95-.95-2.3-.95h-.1l-.1-.1q-.85-.85-2.05-.85-1.2 0-2.05.85-.85.85-.85 2.05 0 1.05.65 1.8m10.45 5.85q-2.25 2.2-5.4 2.25-3.15-.05-5.4-2.25-2.25-2.3-2.25-5.45 0-3.15 2.25-5.4 2.25-2.25 5.4-2.25 3.15 0 5.4 2.25 2.25 2.25 2.25 5.4 0 3.15-2.25 5.45" fill="#34d6dc"/><path d="m17.75 112.05.6.8q1 1 2.35 1t2.3-1q1-.95 1-2.3 0-1.3-.95-2.3l1.3.95q1.45 1.45 1.45 3.5t-1.45 3.5q-1.45 1.45-3.5 1.45t-3.5-1.45q-1.45-1.45-1.45-3.5 0-.9.3-1.7l.2.25 1.35.8" fill="#1c66d2"/><path d="M26.65 116.85q2.25-2.3 2.25-5.45 0-3.15-2.25-5.4-2.25-2.25-5.4-2.25-3.15 0-5.4 2.25-2.25 2.25-2.25 5.4 0 3.15 2.25 5.45 2.25 2.2 5.4 2.25 3.15-.05 5.4-2.25m1.4-12.25q2.8 2.8 2.8 6.75t-2.8 6.75q-2.8 2.8-6.75 2.8t-6.75-2.8q-2.8-2.8-2.8-6.75t2.8-6.75q2.8-2.8 6.75-2.8t6.75 2.8" fill="#132f31"/></g><g id="F" fill-rule="evenodd"><path d="M96.45 159.3q.7 3.7.35 7.3l-.65 3.55q-.85-1.3-1.25-3.25-.5-2.15-.5-5.1l1.7-4.95.35 2.45M77.2 172.8q.1-1.95.65-3.55l3.7 5.55-4.35-2" fill="#9b0b2d"/><path d="m99.3 155.8-4.1-2.95-2.9 9.3-9.05 1.4 9.5-12h29l-21.45 3-1 1.25" fill="#c8ae8d"/><path d="m99.3 155.8 1-1.25 21.45-3q8.8 16.2 13.15 34.15l-11.15 8.5q5.4-23.9-6.1-36.75-10.35.6-19.3 8.2l.95-9.85" fill="#eacda1"/><path d="m96.45 159.3-.35-2.45-1.7 4.95q0 2.95.5 5.1.4 1.95 1.25 3.25l.65-3.55q.35-3.6-.35-7.3m-4.15 2.85 2.9-9.3 4.1 2.95-.95 9.85-1.05 10.25q-2.75-3.2-4.1-8.7l-.9-5.05m-14.45 7.1.75-1.65q2.15 1.8 3.4 4 1.65 3 1.55 6.85l-6.35-3.55v-.1l-1.3-.6 1.3-1.4 4.35 2-3.7-5.55" fill="#0e0000"/><path d="M93.2 167.2q1.35 5.5 4.1 8.7l1.05-10.25q8.95-7.6 19.3-8.2 11.5 12.85 6.1 36.75l-11.1 8.5q-14.2 1.7-27.95-6.1-7.05-13.5-7.5-21.7l6.35 3.55q.1-3.85-1.55-6.85 5.35-3.15 11.2-4.4m1.3 30.5 3.75-2.25-5.85-.25 2.1 2.5" fill="#fcf5e4"/><path d="m141.7 172.55 1.6 2.1-5.75 11.4-23.75 18.75q-16.25 1.65-27.45-5.05l-1.65-3.15q13.75 7.8 27.95 6.1l11.1-8.5 11.15-8.5 6.8-13.15" fill="#886951"/><path d="m94.5 197.7-2.1-2.5 5.85.25-3.75 2.25" fill="#1f362e"/><path d="m141.7 172.55-6.8 13.15q-4.35-17.95-13.15-34.15 10.35 8.6 19.95 21" fill="#be9f85"/><path d="M77.15 189.75h9.55q-.95-2.15-2.1-3.95-4.25-6.45-11.4-8.1l-1.35-.25-1.75-.2q-9.2 3.4-2.5 12.5h9.55M70 175.25q14.5 1.65 19.2 16.4H67.1q-9.45-10.6 2.9-16.4" fill="#2e0907"/><path d="m77.15 189.75-.45-.35 7.9-3.6q1.15 1.8 2.1 3.95h-9.55" fill="#d12169"/><path d="M73.2 177.7q-2.5 7.3 3.5 11.7l-.8.35q-7.45-3.05-4.05-12.3l1.35.25" fill="#3c0106"/><path d="m84.6 185.8-7.9 3.6q-6-4.4-3.5-11.7 7.15 1.65 11.4 8.1" fill="#9f0d31"/><path d="M71.85 177.45q-3.4 9.25 4.05 12.3h-8.3q-6.7-9.1 2.5-12.5l1.75.2" fill="#fff"/><path d="m103.8 182.15-.35 3q-3.85-23.5 25.35-35.6l-1.4 3.1-1.75.65q-2.7 1.05-5.05 2.45l-1.6.95q-12.05 7.75-14.95 23.85l-.25 1.6" fill="#070000"/><path d="M127.4 152.65q4.5 19.75-5.3 27.9-2 1.2-4.1 1.95 2.45-2.45 3.85-5.35 6.35-8.7 3.8-23.85l1.75-.65" fill="#a18772"/><path d="M120.6 155.75q2.35-1.4 5.05-2.45 2.55 15.15-3.8 23.85 4-8.6-1.25-21.4" fill="#f7f7f5"/><path d="M118 182.5q-6.75 2.4-14.2-.35l.25-1.6q3.4 1.9 7 1.95 3.05.05 6.25-1.2 4.75-6.85 4.25-14.75-.3-4.75-2.55-9.85l1.6-.95q5.25 12.8 1.25 21.4-1.4 2.9-3.85 5.35" fill="#37201b"/><path d="M104.05 180.55q2.9-16.1 14.95-23.85 2.25 5.1 2.55 9.85l-2.35.1q-.2-.7-.75-1.25-.8-.8-2-.8t-2.05.8q-.8.85-.8 2.05 0 1.2.8 2 .85.85 2.05.85l1.35-.3q.45 7-5.95 7.9l-.05-.1q0-.65-.5-1.15-.45-.45-1.1-.45-.65 0-1.15.45-.45.5-.45 1.15 0 .65.45 1.1.5.5 1.15.5l.65-.15.2 3.25q-3.6-.05-7-1.95" fill="#970c2e"/><path d="m117.8 170-1.35.3q-1.2 0-2.05-.85-.8-.8-.8-2t.8-2.05q.85-.8 2.05-.8 1.2 0 2 .8.55.55.75 1.25l.1.8q0 1.2-.85 2l-.65.55m-6 7.8v.1q-.05.6-.5 1l-.45.35-.65.15q-.65 0-1.15-.5-.45-.45-.45-1.1 0-.65.45-1.15.5-.45 1.15-.45.65 0 1.1.45.5.5.5 1.15" fill="#f1ebe7"/><path d="m119.2 166.65 2.35-.1q.5 7.9-4.25 14.75-3.2 1.25-6.25 1.2l-.2-3.25.45-.35q.45-.4.5-1h.05q6.4-.9 5.95-7.9l.65-.55q.85-.8.85-2l-.1-.8" fill="#fd816b"/><path d="m209.95 52.55.85 3.45q1.4 6.1 2.05 13.35.75 8.65.45 18.9-2.35 9.9-6.55 17.6l-2.4 3.95q-14.7 22.05-47.55 23-27.25-7.3-19.35-30.85 2.6-7.85 9.1-17.45 25.95-6.6 35.4-22.05 3.6-5.9 4.8-13.15.65-4.15.55-8.7l.25-.1h-.25q-.15-3.85-.8-7.95-.75-4.6-2.2-9.55 11.05 3.3 17.9 12.7 3.1 4.25 5.35 9.8l2.4 7.05m-.55 18.4q-1.5-22.65-16.85-37.4h-.05q2.45 46.35-44.2 54.2-3.85 5.85-6 10.95-6.4 15 1.9 23.6 3.55 3.7 9.85 6.25l2.75 1q34.95.65 50.75-34.55 1.1-5.4 1.6-10.5.7-7.1.25-13.55" fill="#676563"/><path d="m209.95 52.55 9.6-3.3-12-3.75q-2.25-5.55-5.35-9.8 15 3.95 27.6 11.3l-10 8 28 18.5-14.5 23.55 14.5 15.5-20 21.5 9.5 12.5Q205.15 177 168.5 194q1.3-2.9 2.25-6.1 22.6-9.75 39.95-25.05 9.75-8.65 17.85-19.05l-4.15-3.4-4.1-3.35-8.75 3 21.8-20.7 6.95-6.6-7.95-5-12.3-7.75 11.6-15.95 6.15-8.55-27-19.5-.85-3.45m-70.1-32.8 4.2-11L135 11.6q-7.15 2.45-13.75 5.4h-.05Q97.95 27.25 80.65 43.5q-10.15 9.45-18.25 21l1-5.75V47.9l-6.95 6.65q-27.7 27.6-30.75 52.55-1.15 9.2 1.1 18.05 3.45 13.75 14.95 26.6l10.1-8.15 1.9-1.6q-10.85 12.55-13 22.25 7.7 29.4 40.55 35.3l-1.35-3.05q-1.7-4-2.9-7.55-7.15-21.45 4.25-28.2l9.5-13h31q14.5 12 26.8 29.1l1.8 2.55q1.7-4.8 2.8-9.2 6-25-9.05-36.95-2.6-2.05-5.85-3.75l-3.75-.5h-3.05q-9.05.55-17.35 8.05-2.25 2-4.4 4.5 9.4-17.2 28.5-15 14.55 6.85 17.9 21.45l.6 3.3q.65 4.7.25 10.15l-.7 6.05q-1.2 7.1-3.9 15.3l-1.15 3.25q-3.9-6.05-7.95-11.4l-1.6-2.1q-9.6-12.4-19.95-21h-29l-9.5 12q-3.15 1.4-4.65 4.05l-.75 1.65q-.55 1.6-.65 3.55v2q.4 8.25 7.5 21.8l1.65 3.15 1.9 3.3q-40.05-.6-59-37.5l4.85-12.6 1.65-4.4-3-3.7q-4.05-5.3-6.75-10.65-10.05-19.6-3.05-40.25l1-2.75q1.15-2.95 2.6-5.85 10.8-21.6 39.7-44.35v12q35-40.2 87.5-53l-8.5 23 17-8.5V31q12.75-.1 24.25 1.55.65 4.1.8 7.95l-27-2.5-2.85 10.2-2.55 9.1-1.6 5.7 3.5-40.25-24 15.25 7.05-18.25" fill="#1f403c"/><path d="m207.55 45.5 12 3.75-9.6 3.3-2.4-7.05M210.8 56l27 19.5-6.15 8.55-18.8-14.7Q212.2 62.1 210.8 56" fill="#52866f"/><path d="m135 11.6 9.05-2.85-4.2 11Q111.7 46.55 89.05 82V56.5l-16.7 42.2-7.05-7.95q-2.75 5-4.8 10.15-1.5-15.75 1.9-36.4 8.1-11.55 18.25-21Q66.5 63.15 65.5 84.75 81.7 43.9 121.2 17v.05l-15.65 20.7L135 11.6" fill="#81c7a0"/><path d="M139.85 19.75 132.8 38q-22.6 26.55-34 55.75 39.05-18.2 58-71L153.3 63l28.65-.55q-9.45 15.45-35.4 22.05-22.6 6.75-40.75 23.75 4.05-9.45 13-19.75l-25.25 18.4-4-9.9 3.75-13-17.75 18.25-3.2-3.55 16.7-42.2V82q22.65-35.45 50.8-62.25" fill="#72ad85"/><path d="M80.65 43.5Q97.95 27.25 121.2 17 81.7 43.9 65.5 84.75q1-21.6 15.15-41.25m40.6-26.5q6.6-2.95 13.75-5.4l-29.45 26.15 15.65-20.7.05-.05m7.55 34.25 13.5-7.75q-7.7 17.95-24 28.75l10.5-21" fill="#73f4df"/><path d="m132.8 38 24-15.25q-18.95 52.8-58 71 11.4-29.2 34-55.75m-4 13.25-10.5 21q16.3-10.8 24-28.75l-13.5 7.75" fill="#7ac39c"/><path d="M142.3 98.7q2.15-5.1 6-10.95 46.65-7.85 44.2-54.2h.05q15.35 14.75 16.85 37.4-1.55-3.85-3.45-7.55-4.15-7.95-10.15-15.15 7.9 49.7-44.5 61.5-6.55-2.3-9-11.05" fill="#fdfeff"/><path d="M157.45 48.2 160.3 38l27 2.5v.1l-29.85 7.6" fill="#72bd96"/><path d="m154.9 57.3 2.55-9.1 29.85-7.6q.1 4.55-.55 8.7l-31.85 8" fill="#64a07c"/><path d="m153.3 63 1.6-5.7 31.85-8q-1.2 7.25-4.8 13.15L153.3 63" fill="#3b7065"/><path d="M118.05 147.75H90.8l-3.2-1.65q16.45-7.55 16.8-25.2 1.3-5.2-9.6-10.9l-1.25-3.1 25.25-18.4q-8.95 10.3-13 19.75 18.15-17 40.75-23.75-6.5 9.6-9.1 17.45-27.1 14.05-27.7 39.6l8.3 6.2" fill="#3f786a"/><path d="M144.2 122.3q-8.3-8.6-1.9-23.6 2.45 8.75 9 11.05 52.4-11.8 44.5-61.5 6 7.2 10.15 15.15-6.35 46.95-61.75 58.9" fill="#91a88f"/><path d="M209.4 70.95q.45 6.45-.25 13.55-12.75 34.8-55.1 44.05-6.3-2.55-9.85-6.25 55.4-11.95 61.75-58.9 1.9 3.7 3.45 7.55" fill="#6e8c7a"/><path d="m134.55 129 3.75.5q3.25 1.7 5.85 3.75 9.75 17.15 9.05 36.95-1.1 4.4-2.8 9.2l-1.8-2.55Q147 150.6 134.55 129" fill="#386962"/><path d="M109.75 141.55q2.15-2.5 4.4-4.5 15.5 5.8 26.65 18.45-1-6-2.95-12-1.95-5.8-4.85-11.6l-1.5-2.9h3.05q12.45 21.6 14.05 47.85-12.3-17.1-26.8-29.1h-3.75l-8.3-6.2" fill="#5b9477"/><path d="M114.15 137.05q8.3-7.5 17.35-8.05l1.5 2.9-5.95 3.6 10.8 8q1.95 6 2.95 12-11.15-12.65-26.65-18.45" fill="#6bb994"/><path d="M133 131.9q2.9 5.8 4.85 11.6l-10.8-8 5.95-3.6" fill="#5ff7df"/><path d="M156.15 148q-3.35-14.6-17.9-21.45-19.1-2.2-28.5 15 .6-25.55 27.7-39.6-7.9 23.55 19.35 30.85 32.85-.95 47.55-23l11.7.15-3.25 2.55-19 13-25.75 8.75-11.9 13.75" fill="#31574c"/><path d="M157 161.45q.4-5.45-.25-10.15L169.8 137l10.7-3.95q-10.3 9-9.95 20.95l-7.65 6.85-5.9.6" fill="#ba9c82"/><path d="m156.3 167.5.7-6.05 5.9-.6q13.3-1.8 24.8-7.65 8-4.1 15.1-10.2l-4.25-3.5 12.5-11.25h-5.75L219.05 110l-3-.05-11.7-.15 2.4-3.95L224.8 107l-14 18.75h7.75l-14 13 3.25 2.75q-8.65 13.4-34.6 21.6l-2.8.85q-6.55 1.95-14.1 3.55m.45-16.2-.6-3.3 11.9-13.75 25.75-8.75 19-13-16 14.5-16.3 6.05-10.7 3.95-13.05 14.3" fill="#705a4c"/><path d="m162.9 160.85 7.65-6.85q-.35-11.95 9.95-20.95l16.3-6.05v8.75l-15 15.75 5.9 1.7q-11.5 5.85-24.8 7.65" fill="#eac89d"/><path d="m187.7 153.2-5.9-1.7 15-15.75V127l16-14.5 3.25-2.55 3 .05-13.75 18.25h5.75l-12.5 11.25 4.25 3.5q-7.1 6.1-15.1 10.2" fill="#fbf2e2"/><path d="M209.15 84.5q-.5 5.1-1.6 10.5-15.8 35.2-50.75 34.55l-2.75-1q42.35-9.25 55.1-44.05" fill="#a1f1d8"/><path d="M231.65 84.05 220.05 100l12.3 7.75-9.3 7-4.5 11h-7.75l14-18.75-18.05-1.15q4.2-7.7 6.55-17.6.3-10.25-.45-18.9l18.8 14.7" fill="#315a5b"/><path d="m232.35 107.75 7.95 5-6.95 6.6-14.8 6.4 4.5-11 9.3-7" fill="#4b7d69"/><path d="m233.35 119.35-21.8 20.7 8.75-3 4.1 3.35-18.6 15.6 4.9 6.85q-17.35 15.3-39.95 25.05 3.1-10.55 2.45-24.8 25.95-8.2 34.6-21.6l-3.25-2.75 14-13 14.8-6.4" fill="#253f40"/><path d="m224.4 140.4 4.15 3.4q-8.1 10.4-17.85 19.05l-4.9-6.85 18.6-15.6" fill="#2d5258"/><path d="M26.8 125.15q-2.25-8.85-1.1-18.05l5.8 7.15q7.35-31.85 24.95-59.7l6.95-6.65v10.85l-3.9 10Q50.55 87.9 52.25 107l-2.5 11q-4.05 4.7-3.8 8.3-6.45-7.25-7.95-18.55-2.35 14.9 0 30.75l-11.2-13.35" fill="#8bcfa5"/><path d="M26.55 85.35q-1.45 2.9-2.6 5.85l-9.7-16.9q-24.8 55.1 18.5 70.55l3 3.7-1.65 4.4Q-22.45 125.7 14.75 66l11.8 19.35" fill="#767f7a"/><path d="M22.95 93.95q-7 20.65 3.05 40.25-27-11.25-11.85-53.4l8.8 13.15" fill="#fbfdfa"/><path d="m23.95 91.2-1 2.75-8.8-13.15Q-1 122.95 26 134.2q2.7 5.35 6.75 10.65-43.3-15.45-18.5-70.55l9.7 16.9" fill="#a2ae8f"/><path d="M25.7 107.1q3.05-24.95 30.75-52.55-17.6 27.85-24.95 59.7l-5.8-7.15" fill="#81fae6"/><path d="m89.55 97-10.8 8.85-3.2-3.6L93.3 84l-3.75 13" fill="#478370"/><path d="m78.75 105.85 1.5 1.65 3.6 4.05 1.95 2.2-2.7 4.2-4.35 6.75-7.4 11.45-1.55 2.35q-1.95-1.45-3.75-3.15-5.6-5.15-10.3-12.4l-.75-1.2q.6-4.35 1.6-8.6l.7-2.7q1.3-4.85 3.2-9.55 2.05-5.15 4.8-10.15l7.05 7.95 3.2 3.55 3.2 3.6m-12.1-9.9-1.15-1.3-1.5 3.2q-5 11.1-7 23.2 3.05 5.1 6.6 9.2 2.45 2.8 5.15 5.15l12.9-19.45 1.1-1.65-3.95-4.5-12.15-13.85" fill="#2a5743"/><path d="m80.25 107.5 8.65-6.8 2.35 6.1-7.4 4.75-3.6-4.05" fill="#f7ebab"/><path d="m80.25 107.5-1.5-1.65L89.55 97l4 9.9 1.25 3.1q10.9 5.7 9.6 10.9-1.05 4.1-9.6 7.85-3.5 19.75-22.75 20-5.35-.7-9.7-3.55-6-4-10.1-12.2-5.85-2.45-6.3-6.4v-.3q-.25-3.6 3.8-8.3l2.5-11 5.05 3.45-.7 2.7-3.6-2.6q-1 6.65-.85 12 .3 8.95 4 14.35 2.6 3.8 6.85 5.8 13.25 8.2 22.2-1.85l2.05-2.65q4-3.75 5.4-11.5-2.15-1.45-3.15-3.25-1.65-2.9-.35-6.75.95-2.9 3.5-6.25l-1.4-3.65-2.35-6.1-8.65 6.8M50 121.05q-5.05 6.35 1.55 9l-1.55-9m40.95-2.15q.4 2.3 2.45 5.3 7.65 2.45 8.5-4.5-.85-3.7-3.55-5.6-1.25-.9-2.95-1.4-5.25 1.8-4.45 6.2" fill="#623316"/><path d="m91.25 106.8 1.4 3.65q-2.55 3.35-3.5 6.25l-6.05 1.25 2.7-4.2-1.95-2.2 7.4-4.75m7.1 7.3q0 6.1-7.4 4.8-.8-4.4 4.45-6.2 1.7.5 2.95 1.4" fill="#ecd245"/><path d="m63.4 58.75-1 5.75q-3.4 20.65-1.9 36.4-1.9 4.7-3.2 9.55L52.25 107q-1.7-19.1 7.25-38.25l3.9-10" fill="#7ab58a"/><path d="m64 97.85 1.5-3.2 1.15 1.3v9.35q-3.4 2.2-2.25 6.25 3.45 1.65 5.1-1.5l9.3-.25 3.95 4.5-1.1 1.65-1.5.1-19.45.85L64 97.85" fill="#30dba8"/><path d="M66.65 95.95 78.8 109.8l-9.3.25q1.85-3.5-2.85-4.75v-9.35" fill="#85f7c0"/><path d="M66.65 105.3q4.7 1.25 2.85 4.75-1.65 3.15-5.1 1.5-1.15-4.05 2.25-6.25" fill="#ecfdd5"/><path d="m68.3 133-2.55-12.7 10.7-3.15L68.3 133" fill="#2797d4"/><path d="M68.75 135.4q-2.7-2.35-5.15-5.15l-3.2-11.7.3-1.65 19.45-.85-3.7 1.1-10.7 3.15L68.3 133l.45 2.4" fill="#022514"/><path d="M63.6 130.25q-3.55-4.1-6.6-9.2 2-12.1 7-23.2l-3.3 19.05-.3 1.65 3.2 11.7" fill="#89fec9"/><path d="m81.65 115.95-12.9 19.45-.45-2.4 8.15-15.85 3.7-1.1 1.5-.1" fill="#40e0e7"/><path d="M56.15 136.9q-3.7-5.4-4-14.35l3.6.4q4.7 7.25 10.3 12.4-3.2 4.2-9.9 1.55M50 121.05l1.55 9q-6.6-2.65-1.55-9" fill="#efd947"/><path d="m51.85 143.6-10.1 8.15q-11.5-12.85-14.95-26.6L38 138.5q-2.35-15.85 0-30.75 1.5 11.3 7.95 18.55v.3q.15 9.65 5.9 17" fill="#7ab58c"/><path d="m53.75 142-1.9 1.6q-5.75-7.35-5.9-17 .45 3.95 6.3 6.4 4.1 8.2 10.1 12.2l-.05.05-8.55-3.25" fill="#488573"/><path d="m90.8 147.75-9.5 13q-11.4 6.75-4.25 28.2-9.35-6.1-8.25-29.2l-6.5-14.5.05-.05q4.35 2.85 9.7 3.55 19.25-.25 22.75-20 8.55-3.75 9.6-7.85-.35 17.65-16.8 25.2l3.2 1.65" fill="#335b4d"/><path d="M77.05 188.95q1.2 3.55 2.9 7.55-30.6-14.6-17.65-51.25l6.5 14.5q-1.1 23.1 8.25 29.2" fill="#437e6d"/><path d="M85.2 140.85Q76.25 150.9 63 142.7q-4.25-2-6.85-5.8 6.7 2.65 9.9-1.55 1.8 1.7 3.75 3.15l1.55-2.35q2.55 7.5 13.85 4.7" fill="#cd951d"/><path d="M52.15 122.55q-.15-5.35.85-12l3.6 2.6q-1 4.25-1.6 8.6l.75 1.2-3.6-.4" fill="#fff7ba"/><path d="m79.95 196.5 1.35 3.05q-32.85-5.9-40.55-35.3l8.5 8.75q-3.2-14.5 4.5-31l8.55 3.25Q49.35 181.9 79.95 196.5" fill="#7ec59d"/><path d="M98.35 114.1q2.7 1.9 3.55 5.6-.85 6.95-8.5 4.5-2.05-3-2.45-5.3 7.4 1.3 7.4-4.8" fill="#cd921d"/><path d="M89.15 116.7q-1.3 3.85.35 6.75-5.35 3.6-10.75 1.25l4.35-6.75 6.05-1.25" fill="#ca901a"/><path d="M89.5 123.45q1 1.8 3.15 3.25-1.4 7.75-5.4 11.5l-2.05 2.65q-11.3 2.8-13.85-4.7l7.4-11.45q5.4 2.35 10.75-1.25" fill="#b07b11"/><path d="M40.75 164.25q2.15-9.7 13-22.25-7.7 16.5-4.5 31l-8.5-8.75" fill="#71f2db"/><path d="M170.75 187.9q-.95 3.2-2.25 6.1-6.6 14.55-22.2 20.3 0-16-5.9-33.95l1.25-2.45q6.3 16.1 7.65 32.15 4.45-3.7 7.95-7.8 4.05-4.7 6.85-9.95 6.7-12.65 6.3-28.35l2.8-.85q.65 14.25-2.45 24.8" fill="#173333"/><path d="m151.25 186.05 1.15-3.25 10.15-10.25 1.55 19.75q-2.8 5.25-6.85 9.95l-.2-15.45-2.75 7.25-3.05-8" fill="#325d5d"/><path d="M143.3 174.65q4.05 5.35 7.95 11.4l3.05 8 2.75-7.25.2 15.45q-3.5 4.1-7.95 7.8-1.35-16.05-7.65-32.15l1.65-3.25" fill="#548b72"/><path d="M152.4 182.8q2.7-8.2 3.9-15.3 7.55-1.6 14.1-3.55.4 15.7-6.3 28.35l-1.55-19.75-10.15 10.25" fill="#274542"/><path d="M144.15 133.25q15.05 11.95 9.05 36.95.7-19.8-9.05-36.95" fill="#5f9b7d"/></g><g id="G" fill-rule="evenodd"><path d="m53.35 38.1 20.4-1.6 10.4 6.8 9-8-13.5-11.1q12.5 4.05 20.3 10.1-16.9 21.15-36.35 30.4 12.3-8.65 3.75-18-9.8.3-17.4-3.2-12.15 11.3-3.7 27l-3.7.65-8.15-7.65q-.6-2.55-2.65-5.15 2.4-12.15 14-19.7l7.6-.55" fill="#851c15"/><path d="m79.65 24.2 13.5 11.1-9 8-10.4-6.8-20.4 1.6q9.3-2.3 15.4-12.6l.4-4.2q5.6 1.3 10.5 2.9" fill="#5d181b"/><path d="m42.55 71.15 3.7-.65q8.8-1.75 17.15-5.7l.2-.1q19.45-9.25 36.35-30.4-7.8-6.05-20.3-10.1-4.9-1.6-10.5-2.9l-.3-4.1q21.6 3.45 40.5 15.7-11.4 13.8-22.3 23.35L82.4 60.1q-9.2 7.25-18.05 11.5-12.5 5.95-24.35 5.75h-.05q-5.8-.1-11.45-1.65 2.35-1.85 3.85-3.8l10.2-.75" fill="#4f1316"/><path d="m53.35 38.1-7.6.55q-6.15-.5-13.4-3.75-7.55 8.05-8 16.8 4.8 3.4 7.4 6.65 2.05 2.6 2.65 5.15 1.05 4.3-2.05 8.4-1.5 1.95-3.85 3.8l-2 1.45-2.15 1.35Q-4.2 88.15.75 50.3q2.35-20.55 18.6-31.2 1.6-26.55 39.2-16.2 8.8 5.45 10.3 14.3l.3 4.1-.4 4.2q-6.1 10.3-15.4 12.6m10.5-9.15q2.95-3.75 2.9-9.85l-1.5-3.35Q60.5 6.45 52.05 3.8 41.85.65 26.35 6.9q-5.95 8.9-3.85 15.25 2.7 8.35 19.25 12.35l3.95.25q13.25.4 18.15-5.8m-1.9-6.85q-6.25 3.25-11.45 4.4-8.9 1.95-14.9-2.15-4.1-2.8-6.85-8.45 10.95 12.85 33.2 6.2M12 29.15Q6.4 35.8 4.3 43.9q-2.75 10.25.2 22.75l1.05 4.05q11.5 12.4 23.8 0 4.8-11.3-3.55-15.3-1.65-.8-3.85-1.3-12.35 3.95 0 10.6-3.95 2.4-6.85.35-1.4-1-2.55-2.95-.2-8.15 6.4-11.7 1.1-.65 2.4-1.1 2.2-9.9 8.2-16l-10.2-11.2q-4.2 3.3-7.35 7.05" fill="#3f2316"/><path d="m65.25 15.75 1.5 3.35q.05 6.1-2.9 9.85l-1.9-6.85 3.3-6.35" fill="#864d0e"/><path d="m65.25 15.75-3.3 6.35q-22.25 6.65-33.2-6.2 4.5-12.15 23.3-12.1 8.45 2.65 13.2 11.95m-7.6-1q-1.05-1.05-2.6-1.05t-2.65 1.05q-1.05 1.1-1.05 2.65 0 1.55 1.05 2.6 1.1 1.1 2.65 1.1 1.55 0 2.6-1.1 1.1-1.05 1.1-2.6t-1.1-2.65" fill="#b66519"/><path d="M26.35 6.9q15.5-6.25 25.7-3.1-18.8-.05-23.3 12.1l-2.4-9m31.3 7.85q1.1 1.1 1.1 2.65 0 1.55-1.1 2.6-1.05 1.1-2.6 1.1T52.4 20q-1.05-1.05-1.05-2.6t1.05-2.65q1.1-1.05 2.65-1.05 1.55 0 2.6 1.05" fill="#e4bd3a"/><path d="m61.95 22.1 1.9 6.85q-4.9 6.2-18.15 5.8 3.65-2.55 4.8-8.25 5.2-1.15 11.45-4.4" fill="#542f1e"/><path d="m45.7 34.75-3.95-.25q-16.55-4-19.25-12.35 6.9 3.35 13.1 2.2 6 4.1 14.9 2.15-1.15 5.7-4.8 8.25" fill="#8b510d"/><path d="M46.25 70.5q-8.45-15.7 3.7-27 7.6 3.5 17.4 3.2 8.55 9.35-3.75 18l-.2.1q-8.35 3.95-17.15 5.7" fill="#b02114"/><path d="M98.85 85.75Q92.7 97.15 85 100.7q9.3-22.25-9.05-26-13.8 2.75-12.55 17.15l-3.45-7.35-13.55-4.85 15.75-1.15 2.2-6.9q8.85-4.25 18.05-11.5 11.55 10.7 16.45 25.65" fill="#e4b78f"/><path d="m64.35 71.6-2.2 6.9-15.75 1.15-6.4-2.3q11.85.2 24.35-5.75" fill="#a67c6f"/><path d="M87.05 56.25q11 9.5 14.7 23.45l-2.9 6.05Q93.95 70.8 82.4 60.1l4.65-3.85m-20.15 43q-6.05-3.2-12.75-9.75-16.1-3.9-27.65-12.35l2-1.45q5.65 1.55 11.45 1.65H40l6.4 2.3 13.55 4.85 3.45 7.35 3.5 7.4" fill="#806157"/><path d="M85 100.7q-8.2 3.75-18.1-1.45l-3.5-7.4q-1.25-14.4 12.55-17.15 18.35 3.75 9.05 26" fill="#fbeedd"/><path d="M22.5 22.15Q20.4 15.8 26.35 6.9l2.4 9q2.75 5.65 6.85 8.45-6.2 1.15-13.1-2.2" fill="#b96a19"/><path d="M12 29.15q3.15-3.75 7.35-7.05l10.2 11.2q-6 6.1-8.2 16-1.3.45-2.4 1.1-.2-3.85.7-7.7l.75-2.6q1.05-3.3 2.95-6.6L12 29.15" fill="#5c3521"/><path d="M18.95 50.4q-6.6 3.55-6.4 11.7-13.05-15.2 7.1-19.4-.9 3.85-.7 7.7" fill="#e4bb39"/><path d="M12.55 62.1q1.15 1.95 2.55 2.95 1.5 2.4 3.55 3.35-6.7 3.35-14.15-1.75-2.95-12.5-.2-22.75l9.05-7 7.05 3.2-.75 2.6q-20.15 4.2-7.1 19.4" fill="#b86819"/><path d="M4.3 43.9q2.1-8.1 7.7-14.75l11.35 4.35q-1.9 3.3-2.95 6.6l-7.05-3.2-9.05 7" fill="#8e560f"/><path d="M45.75 38.65q-11.6 7.55-14 19.7-2.6-3.25-7.4-6.65.45-8.75 8-16.8 7.25 3.25 13.4 3.75" fill="#691c1d"/><path d="m34.4 63.5 8.15 7.65-10.2.75q3.1-4.1 2.05-8.4" fill="#62191c"/><path d="M15.1 65.05q2.9 2.05 6.85-.35-12.35-6.65 0-10.6 2.2.5 3.85 1.3 2.5 6.6 0 12.5-4.15 1.9-7.15.5-2.05-.95-3.55-3.35" fill="#e4b938"/><path d="M25.8 55.4q8.35 4 3.55 15.3-12.3 12.4-23.8 0L4.5 66.65q7.45 5.1 14.15 1.75 3 1.4 7.15-.5 2.5-5.9 0-12.5" fill="#874f0d"/></g><g id="H" fill-rule="evenodd"><path d="m73.75 46.8 2.6-.85 2.5 3.3-2.6 1.7-2.5-4.15" fill="#512c0c"/><path d="m73.75 46.8 2.5 4.15q-6.75 3.9-14.1 4.05l-.85-6q5.65-.25 12.45-2.2" fill="#3e2119"/><path d="m76.25 50.95 2.6-1.7-2.5-3.3-2.6.85q-6.8 1.95-12.45 2.2-4.55.15-8.4-.85-6.25-1.6-10.6-6.35-2.85-3.1-4.85-7.55l-2.9 2q1.6 5.95 4.75 9.85 3.25 4.05 8.25 5.75L53 53.8q4.7 1.25 9.15 1.2 7.35-.15 14.1-4.05M66.1 19.9l2.85 6.85 6 4.4v6q4.4 11.2 17.6 18l1.9 9.7-2.5 1.9-1.8-9.6-9.2-7.4-2.9 2.1q-4.1 2.6-8.3 4-12.05 3.95-24.85-2.6-2.85-1.5-5.75-3.5l-6.2-12.6q-7.4 4.35-11.4 12.6l6.8-3.6L17.5 60.2l-2.15-2.25 4.4-4.4-9-10.4 1.15-3 6.65 7.2q1.6-2.3 3.35-4.35 2.75-3.2 5.9-5.7 4.75-3.9 10.4-6.2 3.4-1.4 7.15-2.25l6.3-.95 7.9-.2 3.6.25-2.55-9.7 5.5 1.65m-6.95 27.35q6.6.4 15.2-1.9l-8.2-14q-7.95-.7-14.75.2-6.2.75-11.45 2.8 5.55 12.05 19.2 12.9" fill="#190c09"/><path d="M44.9 53.25q12.8 6.55 24.85 2.6 5.15 7.2 11.5 3.2-.05-3.95-3.2-7.2l2.9-2.1 9.2 7.4 1.8 9.6-5.6-8-13.6 10.2-8-10.4-13.1 11.7q-7.7-7.6-6.75-17" fill="#362337"/><path d="m91.95 66.75 2.5-1.9 2.5-1.9 9.4 13.6q.1 41.35-44 41l2.4-7.2-15.2 10.4-10.2-28.2 3.6-14.6 1.5-1.3 3.75-3.4 3.45-3 13.1-11.7 8 10.4 13.6-10.2 5.6 8m-1.4 2.7-4.4-6.5-10.45 7.5-2.15 1.5q2.7 5.45 2.75 11.6.05 10.15-7.15 22.2l-3 9.4 5.8-1.3q10.65-3.3 18.8-12.9l1.65-9.85 2.55-15.15-4.4-6.5m11.25 4.05-4.75-7.65-4.5 3.5 4.7 6.3q1.85 27.65-16.1 37.6 22.5-6.8 23.1-35.8l-2.45-3.95m-34.15-6.3-2.7-4.45-19.8 17.4-3 11.4 8.4 25.6L56.1 114q19.15-12.6 17.85-36.45l-6.3-10.35" fill="#363546"/><path d="M69.75 55.85q4.2-1.4 8.3-4 3.15 3.25 3.2 7.2-6.35 4-11.5-3.2" fill="#432d4b"/><path d="m75.7 70.45 10.45-7.5 4.4 6.5-6.8 10.7-8.05-9.7" fill="#f6f9f8"/><path d="m90.55 69.45 4.4 6.5q-5.75 11.7-13.6 16.4l-5.05-8.8q-.05-6.15-2.75-11.6l2.15-1.5 8.05 9.7 6.8-10.7" fill="#a9adc0"/><path d="m97.25 75.65-4.7-6.3 4.5-3.5 4.75 7.65-4.55 2.15" fill="#b3b7cb"/><path d="m101.8 73.5 2.45 3.95q-.6 29-23.1 35.8 17.95-9.95 16.1-37.6l4.55-2.15" fill="#52526e"/><path d="M94.95 75.95 92.4 91.1q-6.45 14.45-20.45 22.75l-5.8 1.3 3-9.4q7.2-12.05 7.15-22.2l5.05 8.8q7.85-4.7 13.6-16.4" fill="#545470"/><path d="m92.4 91.1-1.65 9.85q-8.15 9.6-18.8 12.9 14-8.3 20.45-22.75" fill="#888aa3"/><path d="M25.15 19.35 21.85 8.2q6.2-4.55 13.4-5.4l2.5 11.25q-6.85 1.4-12.6 5.3" fill="#a84f16"/><path d="m21.85 8.2 3.3 11.15q-5.95 4-10.75 10.75l-6.1-5.45Q14.35 13.7 21.85 8.2" fill="#e0ae33"/><path d="m66.1 19.9-5.5-1.65-3.3-.8-7.55-1.2L44.2 16l-6.7.7Q25.55 18.95 18 29q-2.45 3.25-4.45 7.35-.9 1.8-1.65 3.8l-1.15 3-9-10.4q16.6-46.25 58.4-27.2L66.1 19.9M21.85 8.2q-7.5 5.5-13.55 16.45l-2.95 5.9 5 6q1.9-3.5 4.05-6.45 4.8-6.75 10.75-10.75 5.75-3.9 12.6-5.3l10.3-.7q5.65.3 11.9 2l-2.6-7.8q-6.05-3-11.6-4.2-5.5-1.2-10.5-.55-7.2.85-13.4 5.4" fill="#412416"/><path d="M45.35 28.85q-3.75.85-7.15 2.25l-.7-14.4 6.7-.7 1.15 12.85" fill="#4d3652"/><path d="m48.05 13.35-2.3-10q5.55 1.2 11.6 4.2l2.6 7.8q-6.25-1.7-11.9-2" fill="#43261b"/><path d="M37.75 14.05 35.25 2.8q5-.65 10.5.55l2.3 10-10.3.7" fill="#733f0c"/><path d="m60.6 18.25 2.55 9.7-3.6-.25-2.25-10.25 3.3.8" fill="#3d293c"/><path d="m59.55 27.7-7.9.2-1.9-11.65 7.55 1.2 2.25 10.25" fill="#2c1d2c"/><path d="m51.65 27.9-6.3.95L44.2 16l5.55.25 1.9 11.65" fill="#3e293b"/><path d="M62.15 55q-4.45.05-9.15-1.2l-.1-5.65q3.85 1 8.4.85l.85 6" fill="#6b390a"/><path d="m59.15 47.25-7.75-15.7q6.8-.9 14.75-.2l8.2 14q-8.6 2.3-15.2 1.9" fill="#9295aa"/><path d="m51.4 31.55 7.75 15.7q-13.65-.85-19.2-12.9 5.25-2.05 11.45-2.8" fill="#fcf3f8"/><path d="m28.35 46.15-6.8 3.6q4-8.25 11.4-12.6l6.2 12.6q2.9 2 5.75 3.5-.95 9.4 6.75 17l-3.45 3q-7.4-3.95-12.65-12.1-5.9 3.2-8.4 9.2l-4.85-5.1q18-9.95 6.05-19.1" fill="#4a334f"/><path d="m53 53.8-5.45-1.95q-5-1.7-8.25-5.75l3-4.3q4.35 4.75 10.6 6.35l.1 5.65" fill="#ab4b15"/><path d="M39.3 46.1q-3.15-3.9-4.75-9.85l2.9-2q2 4.45 4.85 7.55l-3 4.3" fill="#e5ae31"/><path d="M44.45 76.65q-7.7-2.85-11.3-10.3l2.4 8.8-4.1 2.5.7-2.1-5-5.2q2.5-6 8.4-9.2 5.25 8.15 12.65 12.1l-3.75 3.4" fill="#3f2a3e"/><path d="M42.95 77.95h-5.8l-6.75 3.2q.45-1.8 1.05-3.5l4.1-2.5-2.4-8.8q3.6 7.45 11.3 10.3l-1.5 1.3" fill="#130707"/><path d="m64.95 62.75 2.7 4.45v26.35L56.1 114l-5.55 3.15q15.85-21.25 14.4-54.4" fill="#b1b4c5"/><path d="M27.8 37.3q-3.15 2.5-5.9 5.7l-8.35-6.65q2-4.1 4.45-7.35l9.8 8.3" fill="#513753"/><path d="m8.3 24.65 6.1 5.45q-2.15 2.95-4.05 6.45l-5-6 2.95-5.9" fill="#ab5316"/><path d="M21.9 43q-1.75 2.05-3.35 4.35l-6.65-7.2q.75-2 1.65-3.8L21.9 43" fill="#422c3e"/><path d="M38.2 31.1q-5.65 2.3-10.4 6.2L18 29q7.55-10.05 19.5-12.3l.7 14.4" fill="#76466c"/><path d="m15.35 57.95 2.15 2.25 4.8 5.05 4.85 5.1 5 5.2-.7 2.1q-.6 1.7-1.05 3.5-3.1 11.35-2.65 25.2-48.4-20.65-12.4-48.4m7.65 43.7 2.15 1.1q-1.4-13.4 3.6-26.8l-13.8-14.4q-28.3 21.05 8.05 40.1" fill="#37313e"/><path d="m17.5 60.2 10.85-14.05q11.95 9.15-6.05 19.1l-4.8-5.05" fill="#73436b"/><path d="m14.95 61.55 13.8 14.4q-5 13.4-3.6 26.8l-2.15-1.1q-11.9-20.7-8.05-40.1" fill="#b2b5c4"/><path d="m50.55 117.15-8.4-25.6 3-11.4 19.8-17.4q1.45 33.15-14.4 54.4M23 101.65q-36.35-19.05-8.05-40.1-3.85 19.4 8.05 40.1" fill="#f7f9f8"/><path d="m67.65 67.2 6.3 10.35Q75.25 101.4 56.1 114l11.55-20.45V67.2" fill="#575771"/></g><use ffdec:characterId="2" height="307" width="290.65" xlink:href="#s" id="c"/><use ffdec:characterId="4" height="71.8" width="115.8" xlink:href="#t" id="d"/><use ffdec:characterId="6" height="368.15" transform="translate(5.8)" width="437.75" xlink:href="#u" id="e"/><use ffdec:characterId="11" height="297.05" width="436.2" xlink:href="#v" id="f"/><use ffdec:characterId="13" height="102.8" width="212" xlink:href="#w" id="g"/><use ffdec:characterId="15" height="140.5" width="103.75" xlink:href="#x" id="h"/><use ffdec:characterId="17" height="63.25" width="122" xlink:href="#y" id="i"/><use ffdec:characterId="19" height="194.9" width="128.05" xlink:href="#z" id="j"/><use ffdec:characterId="21" height="112.5" width="93.55" xlink:href="#A" id="k"/><use ffdec:characterId="23" height="126.6" width="95.05" xlink:href="#B" id="l"/><use ffdec:characterId="25" height="38.9" width="77.4" xlink:href="#C" id="m"/><use ffdec:characterId="27" height="129.45" width="194.1" xlink:href="#D" id="n"/><use ffdec:characterId="29" height="129.65" width="109.95" xlink:href="#E" id="o"/><use ffdec:characterId="31" height="214.3" width="247.8" xlink:href="#F" id="p"/><use ffdec:characterId="37" height="102.25" width="109.35" xlink:href="#G" id="q"/><use ffdec:characterId="39" height="120.75" width="106.35" xlink:href="#H" id="r"/><path d="M27.75 0q0 2-8.15 3.4Q11.5 4.9 0 4.9q-11.5 0-19.65-1.5-8.1-1.4-8.1-3.4 0-2.05 8.1-3.5Q-11.5-4.9 0-4.9q11.5 0 19.6 1.4 8.15 1.45 8.15 3.5" fill-opacity=".349" fill-rule="evenodd" transform="translate(27.75 4.9)" id="b"/></defs></svg>