<svg xmlns:ffdec="https://www.free-decompiler.com/flash" xmlns:xlink="http://www.w3.org/1999/xlink" ffdec:objectType="frame" height="90" width="90" xmlns="http://www.w3.org/2000/svg"><use ffdec:characterId="10" height="85.15" transform="translate(6.9 3)" width="73.75" xlink:href="#a"/><defs><g id="a" transform="translate(-6.9 -3)"><use ffdec:characterId="1" height="26.9" transform="translate(17.4 77) scale(.4148)" width="108.6" xlink:href="#b"/><use ffdec:characterId="2" height="77.15" transform="translate(8.828 34.06) scale(.4148)" width="57.05" xlink:href="#c"/><use ffdec:characterId="3" height="122.55" transform="translate(21.542 35.444) scale(.4148)" width="84.95" xlink:href="#d"/><use ffdec:characterId="4" height="67.1" transform="translate(34.49 35.384) scale(.4148)" width="52.6" xlink:href="#e"/><use ffdec:characterId="5" height="87.05" transform="translate(50.222 43.056) scale(.4148)" width="69.65" xlink:href="#f"/><use ffdec:characterId="6" height="86.2" transform="translate(28.034 3.019) scale(.4148)" width="94.6" xlink:href="#g"/><use ffdec:characterId="7" height="44.85" transform="translate(14.451 30.859) scale(.4148)" width="59.3" xlink:href="#h"/><use ffdec:characterId="8" height="54.75" transform="translate(35.212 30.205) scale(.4148)" width="75.45" xlink:href="#i"/><use ffdec:characterId="9" height="67.5" transform="translate(36.969 44.354) scale(.4148)" width="51" xlink:href="#j"/></g><g id="c"><path d="M-3.15-22.75q1.15-1.6 2.8-2.75 4.55-2.3 7.95-6.8 4.8-5.25 12.15-5.25 8.25.1 7.75 8.2Q24.85-9 14.5 6.55q-.4 3.65-2.45 8.15l-.15.2-.1.25Q9.6 19.7 5.7 25.1 2.2 30.05-9.8 35q-1.8 1.5-3.55 1.75 2.5-1.5 2.75-4.65l.05-.6.55-4.8v-.15q.4-7.8 5-12.5L4.65 2.1q2.2-2.7 2.4-7.2v-3.3Q7-16.65 4.8-22.1q-4.05-3.7-7.2-1.2l-.6.55h-.15.15q-1.35 2.1 1.45 10.35 3.1 4.8 3 8.15Q1.4-3 .9-1.9-.35 1.05-5.2 5.2q-5.55 4.75-10.3 13.5l-1.6 2.9q-1.75 3.55-2.25 7.3-.6 4.3-4.2 5.85l-1.8.6q.45-.25.95-.85 2.55-3.15 1.75-7.75l-.15-.7q-.75-4.95.3-11.95v-.05q2.85-3.4 6.1-6.6 3.15-1.85 7.5-2.75Q-2.6 1.5-3-3.95q-.6-2.5-2.35-1.8.35-2.2-.45-4.4-.85-8 2.65-12.6" fill="#ad591b" fill-rule="evenodd" transform="translate(28.5 38.55)"/><path d="m-3-22.75.6-.55q3.15-2.5 7.2 1.2Q7-16.65 7.05-8.4v3.3q-.2 4.5-2.4 7.2L-5 14.05q-4.6 4.7-5 12.5v.15l-.55 4.8-.05.6q-.25 3.15-2.75 4.65h-1.4q-5.1 1.7-9.8 0-1.15.55-2.05-1.65l.9.35.15-.05.2-.05 1.8-.6q.2.6 4.15-.9 4.6-2.35 4.85-3.5 1.7-5.65.4-7.95-1.4-2.2-2.95-.8l1.6-2.9Q-9 12.5-4.65 9.25l.35-.3q5.7-4.7 7.55-9.1.35-3.65-1.8-4.1.1-3.35-3-8.15-2.8-8.25-1.45-10.35" fill="#931010" fill-rule="evenodd" transform="translate(28.5 38.55)"/><path d="M1.45-4.25q2.15.45 1.8 4.1-1.85 4.4-7.55 9.1l-.35.3Q-9 12.5-15.5 18.7q4.75-8.75 10.3-13.5Q-.35 1.05.9-1.9q.5-1.1.55-2.35M-17.1 21.6q1.55-1.4 2.95.8 1.3 2.3-.4 7.95-.25 1.15-4.85 3.5-3.95 1.5-4.15.9 3.6-1.55 4.2-5.85.5-3.75 2.25-7.3" fill="#b62424" fill-rule="evenodd" transform="translate(28.5 38.55)"/><path d="m-26.6 35.1-.45-1.25-.15-.5q-1.4-9.9 3.35-17.65l1.35-1.6q-1.05 7-.3 11.95l.15.7q.8 4.6-1.75 7.75-.5.6-.95.85l-.2.05-.15.05-.9-.35m10.2-27.65Q-12.9 4.05-9 .9q3.15-3.3 3.65-6.65 1.75-.7 2.35 1.8.4 5.45-5.9 8.65-4.35.9-7.5 2.75" fill="#d26d23" fill-rule="evenodd" transform="translate(28.5 38.55)"/><path d="M15.15 75.3q1.75-.25 3.55-1.75 12-4.95 15.5-9.9 3.9-5.4 6.1-9.95l.1-.25.15-.2q2.05-4.5 2.45-8.15Q53.35 29.55 56 9.2q.5-8.1-7.75-8.2Q40.9 1 36.1 6.25q-3.4 4.5-7.95 6.8-1.65 1.15-2.8 2.75" fill="none" stroke="#995625" stroke-linecap="round" stroke-linejoin="round" stroke-width="2"/><path d="M-2.4-23.3q3.15-2.5 7.2 1.2Q7-16.65 7.05-8.4v3.3q-.2 4.5-2.4 7.2L-5 14.05q-4.6 4.7-5 12.5v.15l-.55 4.8-.05.6q-.25 3.15-2.75 4.65m14.8-41q.1-3.35-3-8.15-2.8-8.25-1.45-10.35M-15.5 18.7l-1.6 2.9q-1.75 3.55-2.25 7.3-.6 4.3-4.2 5.85l-1.8.6-.2.05-.15.05-.9-.35m11.1-16.4q4.75-8.75 10.3-13.5Q-.35 1.05.9-1.9q.5-1.1.55-2.35" fill="none" stroke="#620101" stroke-linecap="round" stroke-linejoin="round" transform="translate(28.5 38.55)"/><path d="M25.35 15.8h.15l.6-.55M15.15 75.3h-1.4q-5.1 1.7-9.8 0-1.15.55-2.05-1.65l-.45-1.25-.15-.5Q-.1 62 4.65 54.25L6 52.65v-.05q2.85-3.4 6.1-6.6 3.5-3.4 7.4-6.55 3.15-3.3 3.65-6.65.35-2.2-.45-4.4-.85-8 2.65-12.6" fill="none" stroke="#620101" stroke-linecap="round" stroke-linejoin="round" stroke-width="2"/></g><g id="d"><path d="M-20.8 30.45v.2h-.05l.05-.2" fill="#bdf4fe" fill-rule="evenodd" transform="translate(42.45 61.25)"/><path d="m21.65 91.7-.05.2" fill="none" stroke="#64a4c5" stroke-linecap="round" stroke-linejoin="round" stroke-width="2"/><path d="M-27.4 25.2q1.35-1.65 3.3-2.5 2.85-1.25 6.9-.65l1.15.3.45.35q1.7 1.35 1.15 2.65-1.5 3.7-8.65 4.9-4-.45-4.3-5.05m.85 1.45q.15 1.1.8 1.75.65.65 1.55.65.85 0 1.5-.65t.95-1.7q.3-1.1-.55-1.9-.85-.8-2-.9-1.2-.05-1.85.75-.6.8-.4 2" fill="#bdf4fe" fill-rule="evenodd" transform="translate(42.45 61.25)"/><path d="M-26.55 26.65q-.2-1.2.4-2 .65-.8 1.85-.75 1.15.1 2 .9.85.8.55 1.9-.3 1.05-.95 1.7-.65.65-1.5.65-.9 0-1.55-.65t-.8-1.75" fill="#fff" fill-rule="evenodd" transform="translate(42.45 61.25)"/><path d="m-16.05 22.35.85.35q3.7 1.75 3.8 6.1.25 3.6-9.95 5.1-3.05.3-6.75-1.4l-.45-1.85V28.7q.2-1.75 1.15-3.5.3 4.6 4.3 5.05 7.15-1.2 8.65-4.9.55-1.3-1.15-2.65l-.45-.35" fill="#6ee8fc" fill-rule="evenodd" transform="translate(42.45 61.25)"/><path d="m-16.05 22.35.85.35q3.7 1.75 3.8 6.1.25 3.6-9.95 5.1-3.05.3-6.75-1.4l-.45-1.85V28.7q.2-1.75 1.15-3.5 1.35-1.65 3.3-2.5 2.85-1.25 6.9-.65l1.15.3z" fill="none" stroke="#64a4c5" stroke-linecap="round" stroke-linejoin="round" transform="translate(42.45 61.25)"/><path d="m-35.1 9.65-2.05-2.7q-1.95-1.7-3-9.6l-.4-3.1.35-.4q.75-.9 2 0l.85.8q2.2 1.55 4.35 2.5 1.7.7 3.4 1l1.05.15L-17.6-.15l.65.25q-2.35.55-4.55 3.3l-.15.2q-4.8 9.35-2.2 11.3 1.2.9 2.85 1.15 1.5.6 2.45 1.3 1.2.85 1.55 1.75.05.95.65 1.9.5.45.4 1.45-.1 1 1.15 1.75.55.35.55 1.2-.05.65-.45 1.65l-.25 1.85-.05.4q0 1.35.65 1.85l.4.2-1-.2-.55-.25-1.5-1.6-.4-.4-3.15-3.5-5.45-6.75.5.35 5.2 3 .7.45 1.9.4q-1.85-2.1-2.6-4.3-.25-.85-.8-1.2l-1.1-.2-3.1-.3q-.85.1-1.2.5l-.25.75-.9-.75-.55-.45q1.85-.9 2-3.25v-.9l-.05-.45q0-.4-.3-1.05-.5-1.4-2.05-3.9Q-31.25 4.15-35 4q-1.65-.05-.75 2.35.75 1.45.65 3.3" fill="#3e2f83" fill-rule="evenodd" transform="translate(42.45 61.25)"/><path d="M-16.95.1q2.4.9 4.25 4.15 2.8 5 4.75 13.1l.9 4.15 2.55 5.85q.4.85.3 1.55-.25 1.75-3.65 2l-1.9.25-4.2.2-.4-.2q-.65-.5-.65-1.85l.05-.4.25-1.85q.4-1 .45-1.65 0-.85-.55-1.2-1.25-.75-1.15-1.75.1-1-.4-1.45-.6-.95-.65-1.9-.35-.9-1.55-1.75-.95-.7-2.45-1.3-1.65-.25-2.85-1.15-2.6-1.95 2.2-11.3l.15-.2Q-19.3.65-16.95.1" fill="#271a63" fill-rule="evenodd" transform="translate(42.45 61.25)"/><path d="m-26 18.65-.75-.55.25-.75q.35-.4 1.2-.5l3.1.3 1.1.2q.55.35.8 1.2.75 2.2 2.6 4.3l-1.9-.4-.7-.45-5.2-3-.5-.35m-2.2-1.75q-3.65-3.05-6.9-7.25.1-1.85-.65-3.3-.9-2.4.75-2.35 3.75.15 6.4 3.35 1.55 2.5 2.05 3.9l.35 1.5v.9q-.15 2.35-2 3.25m10.5 5.95L-25.5 19l7.8 3.85" fill="#5a4b9b" fill-rule="evenodd" transform="translate(42.45 61.25)"/><path d="m-35.1 9.65-2.05-2.7q-1.95-1.7-3-9.6l-.4-3.1.35-.4q.75-.9 2 0l.85.8q2.2 1.55 4.35 2.5 1.7.7 3.4 1l1.05.15L-17.6-.15l.65.25q2.4.9 4.25 4.15 2.8 5 4.75 13.1l.9 4.15 2.55 5.85q.4.85.3 1.55-.25 1.75-3.65 2l-1.9.25-4.2.2-1-.2-.55-.25-1.5-1.6-.4-.4-3.15-3.5-5.45-6.75-.75-.55-.9-.75-.55-.45q-3.65-3.05-6.9-7.25m9.1 9 .5.35 7.8 3.85" fill="none" stroke="#151083" stroke-linecap="round" stroke-linejoin="round" transform="translate(42.45 61.25)"/><path d="M-11.5 28.45q2.2-1.05 4.9-1.9l.55-.15.8-.15L-4.2 26l1.35-.15 1.95-.1 2.2.25.85.25 1.7.6.4-.4.5-.2.45-.25 1-.4.45-.15q4.85-1.7 8.65.15l1.1.65.35.2q2.3 2.45 2.25 5.25 1.75 6.75-3.4 8.55-3.1 2.3-8.95-.45l-.1-.05q-1 2.7-2.65 4.85l-1.6 1.85q-3.25 3.2-8.35 4.95l-1 .35-2.65.7-11.95 1.95-3.35.6q-3.6.7-6.95-2.95-2.75-3-2.05-5.25l1.15-2.3q-1.55-.85-1.65-4.55-1.15-3.85 5.25-7.95l.45-.3.55-.25.85-.3-1.05 1.4v.1l-.1.1-.7.7q-1.9 2.25-1.1 5.8l1.1 1.25q1.25 1 3.1 1.25 2.7.35 5.35-.6l.55-.15q2.7-1.45 3.3-4.35l.05-.4q-.15-1.55-1.45-2.85 3.6 1.9 6.55 0 1.15-.8 1.35-2 .05-.5-.05-1.05l-.2-.6-.8-1.3m-18.75 14q-1.15.75-2.1 2.25l-.45.85q-.15 2.85 3.35 4.15 3.15 1.1 5.95-.25 2.2-2.15.4-4.65l-.15-.2q-1.9-2.45-4.65-2.25l-1.35.2-1-.1q-1.35.35-2.35 1.65l-.25.4.25-.4q1-1.3 2.35-1.65m36.8-2.7.1-.15.1-.25-.1.25-.1.15M3.15 28.8q-.1-.65.7-1.95-.8 1.3-.7 1.95" fill="#6ee8fc" fill-rule="evenodd" transform="translate(42.45 61.25)"/><path d="m-23.55 30.65 2.75.55h.05l-.05-.1q-.3-.7-.05-1.35h.05v-.25l.1-.15.1.4q.6 2.1 3.1 2.25 2.95-.65 3.15-2.25.05-.4-.05-.8-.05-1.55-2.05-2.35 2.95-.7 4.85 1.7l.1.15.8 1.3.2.6q.1.55.05 1.05-.2 1.2-1.35 2-2.95 1.9-6.55 0 1.3 1.3 1.45 2.85l-.05.4q-.6 2.9-3.3 4.35l-.55.15q-2.65.95-5.35.6-1.85-.25-3.1-1.25l-1.1-1.25q-.8-3.55 1.1-5.8l.7-.7q-.55 1.05-.7 2.2v1.3q.25 2.05 1.65 2.45 2.8 1.15 5.35-.3.95-.6 1.45-1.3 1.15-1.45.65-3.2-.25-.7-.65-1.25-.9-1.35-2.75-2m-8.8 14.05q-.45 2.95 1.95 4.05 3.45.4 5.35-1.95.6-1.3.25-2.2-.25-.65-.95-1.1-1.2-.75-3.5-.85l-1-.2 1 .1 1.35-.2q2.75-.2 4.65 2.25l.15.2q1.8 2.5-.4 4.65-2.8 1.35-5.95.25-3.5-1.3-3.35-4.15l.45-.85m12.2-12.7-.6-.8.6.8" fill="#bdf4fe" fill-rule="evenodd" transform="translate(42.45 61.25)"/><path d="M-27.4 31.15q1.9-.65 3.85-.5 1.85.65 2.75 2 .4.55.65 1.25.5 1.75-.65 3.2-.5.7-1.45 1.3-2.55 1.45-5.35.3-1.4-.4-1.65-2.45v-1.3q.15-1.15.7-2.2l.1-.1v-.1l1.05-1.4m6.7-1.8q.6-1.05 2.4-2.05.95-.5 1.85-.7 2 .8 2.05 2.35.1.4.05.8-.2 1.6-3.15 2.25-2.5-.15-3.1-2.25l-.1-.4m-9.55 13.1 1 .2q2.3.1 3.5.85.7.45.95 1.1.35.9-.25 2.2-1.9 2.35-5.35 1.95-2.4-1.1-1.95-4.05.95-1.5 2.1-2.25" fill="#fff" fill-rule="evenodd" transform="translate(42.45 61.25)"/><path d="M-11.5 28.45q2.2-1.05 4.9-1.9l.55-.15.8-.15L-4.2 26l1.35-.15 1.95-.1 2.2.25.85.25 1.7.6.4-.4.5-.2.45-.25 1-.4.45-.15q4.85-1.7 8.65.15l1.1.65.35.2q2.3 2.45 2.25 5.25 1.75 6.75-3.4 8.55-3.1 2.3-8.95-.45l-.1-.05q-1 2.7-2.65 4.85l-1.6 1.85q-3.25 3.2-8.35 4.95l-1 .35-2.65.7-11.95 1.95-3.35.6q-3.6.7-6.95-2.95-2.75-3-2.05-5.25l1.15-2.3q-1.55-.85-1.65-4.55-1.15-3.85 5.25-7.95l.45-.3.55-.25.85-.3q1.9-.65 3.85-.5l2.75.55h.05l-.05-.1q-.3-.7-.05-1.35m.05-.25.1-.15q.6-1.05 2.4-2.05.95-.5 1.85-.7 2.95-.7 4.85 1.7l.1.15.8 1.3.2.6q.1.55.05 1.05m-19.8 11.05q-1.35.35-2.35 1.65l-.25.4m36.7-17.65q-.8 1.3-.7 1.95m3.6 10.55-.1.25-.1.15m-27.3-8.55.6.8" fill="none" stroke="#64a4c5" stroke-linecap="round" stroke-linejoin="round" transform="translate(42.45 61.25)"/><path d="m-28.65 8.5-.05-.15q-.7-1.85-2.35-4.55 1.9 2.1 5.15 2.35 4.4 2 7.95.35-2.45.4-3.65 0-1.2-.4.05-.85Q-19 6-16.6 3.8q-2.05.8-4.75.95-6.6-.1-11.25-3.3.75-2.9 8.4-2.15 8.45-.25 14.45-6.4l5.5-6.9q2.05-2.65 4.15-1.55 2.8 1.45 4.35 4.7Q6.45-6.15 6.5 3.9l.05.35q1.2 10.15 1.1 22L9.6 33.2q.3 1.4-.55 1.85l-.8.35Q6 36.35 2.6 36.8h-.2l1.45 1.5-1.85.15-1.55-1.5h-.7q-1.5.1-2.1-.8l-2.1-2.75.55.05h.1l2.95-.3.05-.05q1.15-1.4-.3-3.5-1.2-.65-.6-1.7l.85-1.45q1.05-2.1 1.2-4.5.15-5.15-.45-6.9-.6-1.7-2.95-1.15-2.5 1.3-2.95 2.15-.1 1.25-1.4 1.8-1.15.4-1.6-.5-.3-1.4.1-3.8.15-2.25-.05-4.1-.05-1.2.4-1.45 1.25-.45 1.6-1.15.75-1.5-2.2-.8-1.75.4-2.2 1.5-.9 2.35-1.95 4.2-1.05 2-.95 3.05.15 3.15-.5 3.65-.3-1.15-.85-2.2l-.1-.15v-.05q-.7-2.3-4.7-2.4-2.8-.1-4.05-2.6-1.1 2.5.45 4.7-1.55-.45-2.4-1.2.05-4.1-2.25-6.05M2.4 36.8l-.15.05-1.1.1h-.7.7l1.1-.1.15-.05" fill="#3e2f83" fill-rule="evenodd" transform="translate(42.45 61.25)"/><path d="m-31.05 3.8-1.55-2.35q4.65 3.2 11.25 3.3 2.7-.15 4.75-.95Q-19 6-21.55 5.65q-1.25.45-.05.85 1.2.4 3.65 0-3.55 1.65-7.95-.35-3.25-.25-5.15-2.35m40.1 31.25.55 1.65-1.35.55q-2 .7-4.2 1l-.2.05-1.45-1.5h.2q3.4-.45 5.65-1.4l.8-.35M-14.5 23.9q-.65-.6-.9-1.55-.5-2-1.7-3.9-2.85-3.3-6.9-2.7-1.55-2.2-.45-4.7 1.25 2.5 4.05 2.6 4 .1 4.7 2.4v.05l.1.15q.55 1.05.85 2.2.7 2.55.25 5.45" fill="#271a63" fill-rule="evenodd" transform="translate(42.45 61.25)"/><path d="m-26.4 14.55-.8-1.05-1.2-4.15-.25-.85q2.3 1.95 2.25 6.05M-4.45 33.4l-1.45-1.95-1.8-.2q-2.35-3.85-6.05-6.85l-.75-.5q.45-2.9-.25-5.45.65-.5.5-3.65-.1-1.05.95-3.05 1.05-1.85 1.95-4.2.45-1.1 2.2-1.5 2.95-.7 2.2.8-.35.7-1.6 1.15-.45.25-.4 1.45.2 1.85.05 4.1-.4 2.4-.1 3.8.45.9 1.6.5 1.3-.55 1.4-1.8.45-.85 2.95-2.15 2.35-.55 2.95 1.15.6 1.75.45 6.9-.15 2.4-1.2 4.5l-.85 1.45q-.6 1.05.6 1.7 1.45 2.1.3 3.5l-.05.05-2.95.3h-.1l-.55-.05m1.5-1.65-2.95-.3 2.95.3" fill="#5a4b9b" fill-rule="evenodd" transform="translate(42.45 61.25)"/><path d="M-24.2-.7q8.45-.25 14.45-6.4l5.5-6.9q2.05-2.65 4.15-1.55 2.8 1.45 4.35 4.7Q6.45-6.15 6.5 3.9l.05.35q1.2 10.15 1.1 22L9.6 33.2q.3 1.4-.55 1.85l.55 1.65-1.35.55q-2 .7-4.2 1l-.2.05-1.85.15-1.55-1.5h-.7q-1.5.1-2.1-.8l-2.1-2.75-1.45-1.95-1.8-.2q-2.35-3.85-6.05-6.85l-.75-.5q-.65-.6-.9-1.55-.5-2-1.7-3.9-2.85-3.3-6.9-2.7M.45 36.95h.7l1.1-.1.15-.05h.2q3.4-.45 5.65-1.4l.8-.35m-14.95-3.6 2.95.3" fill="none" stroke="#151083" stroke-linecap="round" stroke-linejoin="round" transform="translate(42.45 61.25)"/><path d="m12.1 30.95 3.95-.45q2.3.55 3.95 1.75l1.5 2.4q.6 1.45-.3 2.65l-1.65 1.25q-1.45.25-2.5 1.85-2.45 1.1-5.55 1.4l-5.15-.05-1.45-.3q-2.8-.9-5.05-3.7.25-1.1.65-2.05 1.05 0 2.2 1.6.85.9 2.2 1.4l5.15.6 1.45-.3q3.85-1 3.5-4.35.6-.55 1.85 0 1.75.45 1.25-1.25-.9-1.55-3.5-1.4-1.2-.7-2.5-1.05m12 7.9.1-.05q2.4-1.15 4.95-1.6.65-1.45-1.45-4.75-1-1.5.6-2.35l2.6-1.3q3.1-1.4 5.15-1.55l.75-.05 1.45.35q2.45.85 3.75 2.25l-4.25-.4-.95.1-.75.05q-3.2.35-5.15 1.45-.85.45-1.45 1.05 1.8 1.3 1.25 4.55-.65 3.1-4.45 4.45.1 2.4-2.05 2.9l-1.85.1-.45-.05-.7-.25q-1.2-.65-.4-3l.4-.3 1.15-.7 1.75-.9m-46.3 3.9 1-2q-.4 4.85 2.7 5.85 2.5 1.05 7.7-2.5l2.95-1.65q1.75-1.05 2.8-2.1 1.4-1.65 1.2-3.35l-.75-1.35q2 .75 3.2 1.95.7 2.35 1.45 2.8.75.85 0 1.65-1.1 1.05-3.35 1.7l3.15.35q.7 0 1.3.55.85 2.75-.2 5.1-.7 1.5-2.1 2.85-1.65 2-3.9 2.3l-1.5.05q-4-.9-5.35-4.45-2.45 1.35-6 .95-1.35-.45-2.3-1.7-1.65-2.25-2-7m37.6 3.9q.85-.8.85-1.75l-.3-1.05-.45-.7q1.5.35 3 1.25l.45.25q1.2 1 1.8 1.95-1.5-.95-2.05-.95-1 0-2.05.45l-1.25.55m.45 2.65.25.45q.5 1.1-.25 2.4-1.15 1.3-4.35 1.25-4.5-.9-5.1-3.65l-.05-.15q-.25-1.45-1.45-1.65h-.7q-2-.9-.85-3.4.7-.75 1.55-1.05l1.45-.3q2.45 1.15 4.35.7-.95 1.05-1.75 3.65-.1 1.05.8 2.2l1.35 1.4.4.3q1.85 1.15 3.45-.55l.9-1.6M-5.3 44.05q-1.55.45-2.8 1.5-1.5 1.95-1 4.2l.25.95.45.25Q-6.7 52-6.1 52q1.55 0 2.45-1.65.85-1.5.85-3.8 0-1.5-1.45-2.15l-1.05-.35.25-.05 1.75-.25-1.75.25-.25.05M-2 50.4q.35 1.5-1.35 2.6l-1.7.3q-1.75-.1-3.35-1.65l-.45-.95.45.95q1.6 1.55 3.35 1.65l1.7-.3q1.7-1.1 1.35-2.6" fill="#bdf4fe" fill-rule="evenodd" transform="translate(42.45 61.25)"/><path d="M-21.2 40.75q1-1.45 2.8-2.6 6.3-5.2 13-2.8l.35.15.45.15.75 1.35q.2 1.7-1.2 3.35-1.05 1.05-2.8 2.1l-2.95 1.65q-5.2 3.55-7.7 2.5-3.1-1-2.7-5.85M.5 35.7q1.4-3.15 4.4-4.35l1.35-.4 5.25-.15.6.15q1.3.35 2.5 1.05 2.6-.15 3.5 1.4.5 1.7-1.25 1.25-1.25-.55-1.85 0Q15.35 38 11.5 39l-1.45.3-5.15-.6q-1.35-.5-2.2-1.4-1.15-1.6-2.2-1.6m15 7.45.45.7.3 1.05q0 .95-.85 1.75l-.05.05h-.05l-.05.05q-.8.65-1.6.65-1.2 0-1.95-.6l-.2-.2q-.7-.75-.7-2l.1-.5.2-.3-.4.1.8-.6 4-.15M-8.85 50.7l-.25-.95q-.5-2.25 1-4.2 1.25-1.05 2.8-1.5l1.05.35q1.45.65 1.45 2.15 0 2.3-.85 3.8Q-4.55 52-6.1 52q-.6 0-2.3-1.05l-.45-.25" fill="#fff" fill-rule="evenodd" transform="translate(42.45 61.25)"/><path d="m20 32.25 1.2 1.05 1.15 1.4q1.15 1.75 1.75 4.15l-1.75.9-1.15.7-.4.3q-.8 2.35.4 3l.7.25.45.05 1.85-.1q2.15-.5 2.05-2.9 3.8-1.35 4.45-4.45.55-3.25-1.25-4.55.6-.6 1.45-1.05 1.95-1.1 5.15-1.45l.75-.05.95-.1-.95.25-.75.25q-1.3.5-2.5 1.55-1.5.8-.7 4.3l1.45 3q1.6 2.75-.55 4.75l-6.45 5.3q-1.25 1.15-3.1 1.05l-.3-.05-3.1-.05-.1.15q-2.75 3.8-7.75 7.05-.75.75-1.45 1.15l-2.25.15q-2.4-.25-4.35-1-1.05-.45-1.95-1.05l-.6 1.1q-1 1.55-2.7 2.55l-.8.45-3.9.45q-1.7-.15-3.5-.9-2.35-.95-4.9-2.85l-.2-.25q-1.7-2-2.9-2.2-3.65-.55-5.25-4.75v-.05q-1.4-4-.4-7 .35 4.75 2 7 .95 1.25 2.3 1.7 3.55.4 6-.95 1.35 3.55 5.35 4.45l1.5-.05q2.25-.3 3.9-2.3 1.4-1.35 2.1-2.85 1.05-2.35.2-5.1-.6-.55-1.3-.55l-3.15-.35q2.25-.65 3.35-1.7.75-.8 0-1.65-.75-.45-1.45-2.8l1.25.15q2.25 2.8 5.05 3.7l1.45.3 5.15.05q3.1-.3 5.55-1.4 1.05-1.6 2.5-1.85l1.65-1.25q.9-1.2.3-2.65l-1.5-2.4M2.95 56.2q.8-1.75.95-4.15l-.5-2.3q-.95-3.9-2.25-5.1 1.3 1.2 2.25 5.1l.5 2.3q-.15 2.4-.95 4.15M-1.4 37.6l.8.95-.8-.95m16.9 5.55-4 .15-.8.6.4-.1-.2.3-.1.5q0 1.25.7 2l.2.2q.75.6 1.95.6.8 0 1.6-.65l.05-.05h.05l.05-.05 1.25-.55q1.05-.45 2.05-.45.55 0 2.05.95-.6-.95-1.8-1.95l-.45-.25q-1.5-.9-3-1.25m-4.8.75q-1.9.45-4.35-.7l-1.45.3q-.85.3-1.55 1.05-1.15 2.5.85 3.4h.7q1.2.2 1.45 1.65l.05.15q.6 2.75 5.1 3.65 3.2.05 4.35-1.25.75-1.3.25-2.4l-.25-.45-.9 1.6q-1.6 1.7-3.45.55l-.4-.3-1.35-1.4q-.9-1.15-.8-2.2.8-2.6 1.75-3.65m5.55 4.7-.4.7.4-.7m4.55 1.15.4-.7q.3-.75 0-1.55l-.45-.9.45.9q.3.8 0 1.55l-.4.7m0-9-1.55 1.1 1.55-1.1" fill="#6ee8fc" fill-rule="evenodd" transform="translate(42.45 61.25)"/><path d="m12.1 30.95 3.95-.45q2.3.55 3.95 1.75l1.2 1.05 1.15 1.4q1.15 1.75 1.75 4.15l.1-.05q2.4-1.15 4.95-1.6.65-1.45-1.45-4.75-1-1.5.6-2.35l2.6-1.3q3.1-1.4 5.15-1.55l.75-.05 1.45.35q2.45.85 3.75 2.25l-4.25-.4-.95.25-.75.25q-1.3.5-2.5 1.55-1.5.8-.7 4.3l1.45 3q1.6 2.75-.55 4.75l-6.45 5.3q-1.25 1.15-3.1 1.05l-.3-.05-3.1-.05-.1.15q-2.75 3.8-7.75 7.05-.75.75-1.45 1.15l-2.25.15q-2.4-.25-4.35-1-1.05-.45-1.95-1.05l-.6 1.1q-1 1.55-2.7 2.55l-.8.45-3.9.45q-1.7-.15-3.5-.9-2.35-.95-4.9-2.85l-.2-.25q-1.7-2-2.9-2.2-3.65-.55-5.25-4.75v-.05q-1.4-4-.4-7l1-2q1-1.45 2.8-2.6 6.3-5.2 13-2.8l.35.15.45.15q2 .75 3.2 1.95l1.25.15q.25-1.1.65-2.05 1.4-3.15 4.4-4.35l1.35-.4 5.25-.15.6.15M-1.4 37.6q.7 2.35 1.45 2.8.75.85 0 1.65-1.1 1.05-3.35 1.7l3.15.35q.7 0 1.3.55 1.3 1.2 2.25 5.1l.5 2.3q-.15 2.4-.95 4.15M-.6 38.55l-.8-.95m16.9 5.55-4 .15-.8.6q-.95 1.05-1.75 3.65-.1 1.05.8 2.2l1.35 1.4.4.3q1.85 1.15 3.45-.55l.9-1.6.4-.7m4.5-2q-.6-.95-1.8-1.95l-.45-.25q-1.5-.9-3-1.25m-20.8.9q-1.55.45-2.8 1.5-1.5 1.95-1 4.2l.25.95.45.95q1.6 1.55 3.35 1.65l1.7-.3q1.7-1.1 1.35-2.6m-3.3-6.35.25-.05 1.75-.25m24.1-3 .4-.3 1.15-.7 1.75-.9m-4.85 3 1.55-1.1m-.05 5.85.45.9q.3.8 0 1.55l-.4.7" fill="none" stroke="#64a4c5" stroke-linecap="round" stroke-linejoin="round" transform="translate(42.45 61.25)"/><path d="m-1.8-57.65 4.7 2.3q2.05 2.25 1.65 5.2-1.55 5.9-7.3 13.3Q-5.95-29-3-22.7q.75 2.25-1.45 5.6l-.2.65-.1.3q-2.4 8-13.95 12.1-11.5 3.4-17.55-.7-3.35-2.95-4-8.3-1.35-7.8 3.75-17.3 1.65-3.55 2.15-6 .4-2.05-.1-3.35.85-5.85 2.8-10.1l1.1-2.1q1.9-5.55 13.05-8.8 7.05-.5 15.7 3.05m-34.7 27.3 1.3-2.25-1.3 2.25m3.65 12.6q-2.3-3.35-3.8-3.3-2.95.55-1.65 5.35 2.35 7.1 12.75 6.2 3.6-.1 5-2.05.5-3-3.25-2.6-5.8-.35-9.05-3.6" fill="#3e2f83" fill-rule="evenodd" transform="translate(42.45 61.25)"/><path d="M-32.85-17.75q3.25 3.25 9.05 3.6 3.75-.4 3.25 2.6-1.4 1.95-5 2.05-10.4.9-12.75-6.2-1.3-4.8 1.65-5.35 1.5-.05 3.8 3.3" fill="#5a4b9b" fill-rule="evenodd" transform="translate(42.45 61.25)"/><path d="m-1.8-57.65 4.7 2.3q2.05 2.25 1.65 5.2-1.55 5.9-7.3 13.3Q-5.95-29-3-22.7q.75 2.25-1.45 5.6l-.2.65-.1.3q-2.4 8-13.95 12.1-11.5 3.4-17.55-.7-3.35-2.95-4-8.3-1.35-7.8 3.75-17.3 1.65-3.55 2.15-6 .4-2.05-.1-3.35.85-5.85 2.8-10.1l1.1-2.1q1.9-5.55 13.05-8.8 7.05-.5 15.7 3.05M-35.2-32.6l-1.3 2.25" fill="none" stroke="#050584" stroke-linecap="round" stroke-linejoin="round" transform="translate(42.45 61.25)"/><path d="m-40.85-7.5-.95-1.2.95 1.2m2 6.45-1.55-1.6q-1.9-2.3-1.4-6.05-.35-1.9.05-2.85l.65-1.25q.25-.3.95.6l.4.85q-.75 3.4 2.05 6.3 2.85 2.5 6.8 3.2-1.65.8-4.95.45-2.35-.4-3 .35m20.6-7.1q1.45-.65 2.75-1.5l.1-.1q5.6-3.85 7.8-8.3 1.4-3.5 3.8-1.75 1.35 1 .65 4.3-.65 3.4-4.05 7.15-7.95 9.05-18 10.7l-.45.1L-32.6 2l2.85-.45q5.1.35 9.4-1.45 3.95-1.6 6.8-4.3 1.85-1.65 2.9-3.7l.25-.45q.55-1.75 1.55-3.2 1.35-2.45-2.15 0-3.5 1.8-5.8 4-1.75.75-3.95 2.25 1-1.65 2.5-2.85" fill="#700" fill-rule="evenodd" transform="translate(42.45 61.25)"/><path d="M-39.75-11.35q.85 1.6 2.1 2.8-1.25 1.7 3.05 4.1l5.7 2.4q1.15.65.05 1.25-3.2 1.2-7.9 1.2-1.1-.65-2.1-1.45.65-.75 3-.35 3.3.35 4.95-.45-3.95-.7-6.8-3.2-2.8-2.9-2.05-6.3M-23-6.45q2.5-.65 4.75-1.7-1.5 1.2-2.5 2.85 2.2-1.5 3.95-2.25l.85-.35q1.3-.45 0 .75-2.85 1.05-5 3.75 2.1-1.35 4.75-2.1 1.1-.2 2.1-1.05-1.35 2.15-3.1 3.15-1.15.6-2.25 1.75-.7.85-2.8 1.05Q-25-.25-28.6 1l-1.15.55-2.85.45-1.2-.35q2.85-1 7.25-2l4.85-.8q1.3-.35.65-.7l-5.85-.25q-1.5-1.25 0-1.3 2.75-.25 3.8-1.3 1.55-1 .1-1.75" fill="#b62424" fill-rule="evenodd" transform="translate(42.45 61.25)"/><path d="m-37.65-8.55 1.65 1.3q3.15 2.55 8.7 1.6l4.3-.8q1.45.75-.1 1.75-1.05 1.05-3.8 1.3-1.5.05 0 1.3l5.85.25q.65.35-.65.7l-4.85.8q-4.4 1-7.25 2-1.6-.45-2.95-1.25 4.7 0 7.9-1.2 1.1-.6-.05-1.25l-5.7-2.4q-4.3-2.4-3.05-4.1" fill="#ff1313" fill-rule="evenodd" transform="translate(42.45 61.25)"/><path d="M-29.75 1.55-28.6 1Q-25-.25-22.25-.6q2.1-.2 2.8-1.05 1.1-1.15 2.25-1.75 1.75-1 3.1-3.15-1 .85-2.1 1.05-2.65.75-4.75 2.1 2.15-2.7 5-3.75 1.3-1.2 0-.75l-.85.35q2.3-2.2 5.8-4 3.5-2.45 2.15 0-1 1.45-1.55 3.2l-.25.45q-1.05 2.05-2.9 3.7-2.85 2.7-6.8 4.3-4.3 1.8-9.4 1.45" fill="#931010" fill-rule="evenodd" transform="translate(42.45 61.25)"/><path d="m-41.8-8.7.95 1.2m2 6.45-1.55-1.6q-1.9-2.3-1.4-6.05-.35-1.9.05-2.85l.65-1.25q.25-.3.95.6l.4.85q.85 1.6 2.1 2.8l1.65 1.3q3.15 2.55 8.7 1.6l4.3-.8q2.5-.65 4.75-1.7 1.45-.65 2.75-1.5l.1-.1q5.6-3.85 7.8-8.3 1.4-3.5 3.8-1.75 1.35 1 .65 4.3-.65 3.4-4.05 7.15-7.95 9.05-18 10.7l-.45.1L-32.6 2l-1.2-.35Q-35.4 1.2-36.75.4q-1.1-.65-2.1-1.45z" fill="none" stroke="#620100" stroke-linecap="round" stroke-linejoin="round" transform="translate(42.45 61.25)"/><path d="m-35.95-28.5.05.45.35 2.95q.6 3.4 3.15 5.9 3.1 2.35 4.4 1.7.65-.2.4-.85 1.7.55 3.65.55h.75q-.85 1.95-3.8 1.6-3.4-.3-6.75-3.4-1.75-2.4-2.2-5.25v-3.65" fill="#64d223" fill-rule="evenodd" transform="translate(42.45 61.25)"/><path d="m-35.9-28.05-.05-.45q.25-3.95 1.9-6.9 2-3.6 4.15-4.45 2.05-.85 4.3-.9l2.65-.2q3.75-.3 7.55.95 7.65 4.3 4.5 16.8-2.25 5.4-6.55 7.2-6.1 3-11.95.4-2.7-1.8-4.35-4 3.35 3.1 6.75 3.4 2.95.35 3.8-1.6 4.2-.25 7.35-3.25 3.45-3.2 3.7-7.8.2-4.65-2.9-7.9-3.1-3.2-7.8-3.2-4.6 0-7.9 3-2.2 2-3.1 4.8l-.25.8-.25 1.9q-.35 4.5 1.95 7.65-2.4-2.3-2.7-4.7-.35-4.6-.8-1.55" fill="#297100" fill-rule="evenodd" transform="translate(42.45 61.25)"/><path d="m-20.7-36.25.3-.15 1.45-.4q.55 0 .85.45.3.45.3 1.1 0 1.1-.65 1.6-.35.3-.9.45l-1.1.1-.5.5q0 .45.9.6.85.1.85.55 0 .6-.7.85l-1.5.35q-1.75.45-2.5 1.15v.25l.35.15.5.05q.7 0 1.95-.55l2.8-.55 1.6.3.8.5q1.05.8 1.05 2.15 0 2-1.65 4.1-1.8 2.35-4.15 2.35l-1.15-.2-.55-.25-1.55-.95h-.35l-.85.2h-.1q-1.25 0-2.1-1.65-.7-1.45-.7-3 0-1.65 1.95-2.9l1.35-.8q.65-.3.65-.5 0-.25-.55-.4-.6-.15-.6-.45 0-.2.95-.6l1.05-.5-.05-.4q-.15-.3-1.2.35l-2.1 1.9q-1.1 1.15-2.05 3.75-.3.85 0 2.65.45 2.4-.6 1.9-1-.35-1.2-.9v-.15l-.2-.55-.5-.35-.25.15q-.35-.05-.6-.5l-.3-.7q0-.6.4-1.3.4-.6.5-1.6l-.05-.3v-.45l-.65-.1-.45-.35.25-.9.4-.05q.45-.1.65-.3l.5-.85.65-.5.6.2q.3.35.3.85 0 .9-.45 1.9l.15.3q.1.15.25.15.35 0 .65-.65l.55-1.15.95-.85q.65-.55.65-1.15l-.2-.55-.15-.6q0-1.45 1.75-1.85l3.3-.6 1-.35m-10.4 4.3v.05l-.1.1-.1.35-.3-.3-.4.2-.4.15-.3-.1-.1-.3.2-.7q.25-.4.6-.4l.35.1.2.15.05.05.3.65m5.55 5.35-.4.5-.05.55v.1q0 .75.75 1.35l.05.05q.55.6.9.25.35-.4-.15-.55-.5-.15-.75-.65l-.2-.6.45-.3.45-.25.1-.1h.1v-.1l.05-.05v-.05q.15-.3-.5-.4l-.8.25m5.15-1q-1.45.75.15 1.2.35.35.05.95-.3.5-.9.6-.6.05-.6.9.05.7.9.55 1.75-.35 1.95-2.25.15-1.75-1.5-2l-.05.05" fill="#170000" fill-rule="evenodd" transform="translate(42.45 61.25)"/><path d="M-23.2-17.8h-.75q-1.95 0-3.65-.55l-1.1-.45q3.6-.1 6.9-1.75l1.15.2q2.35 0 4.15-2.35 1.65-2.1 1.65-4.1 0-1.35-1.05-2.15l-.8-.5q.1-2.1-1.75-4.2.65-.5.65-1.6 0-.65-.3-1.1-.3-.45-.85-.45l-1.45.4-.3.15q-3.7-2.15-8.8.35l-.15.05h-.05l-.05.05h-.05q-2.15.95-3.5 3.25l-.3.85-.25-.45q.9-2.8 3.1-4.8 3.3-3 7.9-3 4.7 0 7.8 3.2 3.1 3.25 2.9 7.9-.25 4.6-3.7 7.8-3.15 3-7.35 3.25" fill="#ffad00" fill-rule="evenodd" transform="translate(42.45 61.25)"/><path d="m-20.7-36.25-1 .35-3.3.6q-1.75.4-1.75 1.85l.15.6.2.55q0 .6-.65 1.15l-.95.85-.55 1.15q-.3.65-.65.65-.15 0-.25-.15l-.15-.3q.45-1 .45-1.9 0-.5-.3-.85l-.6-.2-.65.5-.5.85q-.2.2-.65.3l-.4.05-.25.9.45.35.65.1v.45l.05.3q-.1 1-.5 1.6-.4.7-.4 1.3l.3.7q.25.45.6.5l.25-.15.5.35.2.55v.15q.2.55 1.2.9 1.05.5.6-1.9-.3-1.8 0-2.65.95-2.6 2.05-3.75l2.1-1.9q1.05-.65 1.2-.35l.05.4-1.05.5q-.95.4-.95.6 0 .3.6.45.55.15.55.4 0 .2-.65.5l-1.35.8Q-28-27.85-28-26.2q0 1.55.7 3 .85 1.65 2.1 1.65h.1l-1.3.45q-3.4.15-5.25-1.85V-23l-.95-1.85q-.9-1.8-1.05-3.7v-2.85l.05-.3.3-.85q1.35-2.3 3.5-3.25h.05l.05-.05h.05l.15-.05q5.1-2.5 8.8-.35m-10.4 4.3-.3-.65-.05-.05-.2-.15-.35-.1q-.35 0-.6.4l-.2.7.1.3.3.1.4-.15.4-.2.3.3.1-.35.1-.1v-.05" fill="#f7e24e" fill-rule="evenodd" transform="translate(42.45 61.25)"/><path d="M-32.4-21.8q-2.3-3.15-1.95-7.65l.25-1.9.25-.8.25.45-.05.3v2.85q.15 1.9 1.05 3.7l.95 1.85v.05q.6 1.7 3.05 3.05l-2-.15-1.1-1-.6-.65-.1-.1" fill="#fef6b2" fill-rule="evenodd" transform="translate(42.45 61.25)"/><path d="m-25.1-21.55.85-.2h.35l1.55.95.55.25q-3.3 1.65-6.9 1.75l-1.9-1.25 2 .15q-2.45-1.35-3.05-3.05 1.85 2 5.25 1.85l1.3-.45m8.4-7.9-1.6-.3-2.8.55q-1.25.55-1.95.55l-.5-.05-.35-.15v-.25q.75-.7 2.5-1.15l1.5-.35q.7-.25.7-.85 0-.45-.85-.55-.9-.15-.9-.6l.5-.5 1.1-.1q.55-.15.9-.45 1.85 2.1 1.75 4.2" fill="#ffc500" fill-rule="evenodd" transform="translate(42.45 61.25)"/><path d="m-25.55-26.6.8-.25q.65.1.5.4v.05l-.05.05v.1h-.1l-.1.1-.45.25-.45.3.2.6q.25.5.75.65.5.15.15.55-.35.35-.9-.25l-.05-.05q-.75-.6-.75-1.35v-.1l.05-.55.4-.5" fill="#f0d14b" fill-rule="evenodd" transform="translate(42.45 61.25)"/><path d="m-20.4-27.6.05-.05q1.65.25 1.5 2-.2 1.9-1.95 2.25-.85.15-.9-.55 0-.85.6-.9.6-.1.9-.6.3-.6-.05-.95-1.6-.45-.15-1.2m.5.6h-.05q.25.25.05 0" fill="#fec300" fill-rule="evenodd" transform="translate(42.45 61.25)"/><path d="M-27.6-18.35q.25.65-.4.85-1.3.65-4.4-1.7-2.55-2.5-3.15-5.9l-.35-2.95q.45-3.05.8 1.55.3 2.4 2.7 4.7l.1.1.6.65 1.1 1 1.9 1.25 1.1.45" fill="#d0fe80" fill-rule="evenodd" transform="translate(42.45 61.25)"/><path d="M6.5 32.75v3.65q.45 2.85 2.2 5.25 1.65 2.2 4.35 4 5.85 2.6 11.95-.4 4.3-1.8 6.55-7.2 3.15-12.5-4.5-16.8-3.8-1.25-7.55-.95l-2.65.2q-2.25.05-4.3.9-2.15.85-4.15 4.45-1.65 2.95-1.9 6.9" fill="none" stroke="#1d5500" stroke-linecap="round" stroke-linejoin="round" stroke-width="2"/><path d="M-23.2-17.8h-.75q-1.95 0-3.65-.55l-1.1-.45-1.9-1.25-1.1-1-.6-.65-.1-.1q-2.3-3.15-1.95-7.65l.25-1.9.25-.8q.9-2.8 3.1-4.8 3.3-3 7.9-3 4.7 0 7.8 3.2 3.1 3.25 2.9 7.9-.25 4.6-3.7 7.8-3.15 3-7.35 3.25z" fill="none" stroke="#1d5500" stroke-linecap="round" stroke-linejoin="round" transform="translate(42.45 61.25)"/></g><g id="e"><path d="m.85-30.45.1.05q.85.35 1.25 1.2 1 2.8 1.8 3.55l.55.45.2.15.25.15-5.7-.4q-4.45.4-5.75 2.35-.95 1.95-2.8 2.8l-.35.35q-3.55 3.4-2.05 8.3.6 1.6 1.95 2.2l.1.05q.9.3 2.85-2.45 5.7-9.15 9.9-9.6l6.15-.45q1.7 1.8 1.65 3.55.45 2.3 3.1 4.3L16-12.3q5.9 3.05 8.8 7.4 1.05 7.4-.15 13.15l-1.7 7.45q-4.85 4.7-9.1 8.05-8.6 5.35-20.5 3.2-2.25-.15-3.8-1.65-4.25-4.6-7.75-14.85-3.45-8.75-2.05-18.55 1.4-7.3 4.75-12.45l3.05-3.8.4-.45q3.7-3.8 8.6-5.55l4.3-.1m9.2 14.95 4 1.6-4-1.6" fill="#ad591b" fill-rule="evenodd" transform="translate(26.3 33.55)"/><path d="m5-24.9.1.05q2.75 1.55 4.2 3.1l-6.15.45q-4.2.45-9.9 9.6Q-8.7-8.95-9.6-9.25l-.1-.05q-1.35-.6-1.95-2.2-1.5-4.9 2.05-8.3l.35-.35q1.85-.85 2.8-2.8 1.3-1.95 5.75-2.35l5.7.4" fill="#d26d23" fill-rule="evenodd" transform="translate(26.3 33.55)"/><path d="M13.85 23.75Q.2 34.7-6.7 32.05h-.1q-7.2-4.1-11.3-12l-4.45-9.8Q-27.4-1.2-23.7-12.6q3.5-12.55 11.7-17.35Q-6.6-33.8-2-32l2.85 1.55-4.3.1q-4.9 1.75-8.6 5.55l-.4.45-3.05 3.8q-3.35 5.15-4.75 12.45-1.4 9.8 2.05 18.55 3.5 10.25 7.75 14.85 1.55 1.5 3.8 1.65 11.9 2.15 20.5-3.2" fill="#931010" fill-rule="evenodd" transform="translate(26.3 33.55)"/><path d="m27.15 3.1.1.05q.85.35 1.25 1.2 1 2.8 1.8 3.55l.55.45.2.15.25.15.1.05q2.75 1.55 4.2 3.1 1.7 1.8 1.65 3.55.45 2.3 3.1 4.3l1.95 1.6q5.9 3.05 8.8 7.4 1.05 7.4-.15 13.15l-1.7 7.45q-4.85 4.7-9.1 8.05m.2-37.65-4-1.6" fill="none" stroke="#9a4609" stroke-linecap="round" stroke-linejoin="round" stroke-width="2"/><path d="M40.15 57.3Q26.5 68.25 19.6 65.6m-.1 0q-7.2-4.1-11.3-12l-4.45-9.8Q-1.1 32.35 2.6 20.95 6.1 8.4 14.3 3.6q5.4-3.85 10-2.05l2.85 1.55" fill="none" stroke="#620100" stroke-linecap="round" stroke-linejoin="round" stroke-width="2"/><path d="m.85-30.45-4.3.1q-4.9 1.75-8.6 5.55l-.4.45-3.05 3.8q-3.35 5.15-4.75 12.45-1.4 9.8 2.05 18.55 3.5 10.25 7.75 14.85 1.55 1.5 3.8 1.65 11.9 2.15 20.5-3.2" fill="none" stroke="#620100" stroke-linecap="round" stroke-linejoin="round" transform="translate(26.3 33.55)"/></g><g id="f"><path d="M-11.55-19.15Q-8.8-24.9-2.1-27.9q4.4-1.8 5.8-3.1l.1-.15h.1q1.65-1.9 3.75-2.6l3.4-.95 7.35-.35q3.05.7 5.5 2.95 2.05 2.45 2.65 4.85l.05.3q-2.8-2-7.95-2.5-6.15-.8-16.7 4.05-5.65 2-11.35 6.25-2.4.95-2.15 0m27.6 10.9-2.25 1.2-3.2 1.2Q3.45-3.55-1.05 2.2q-1 1.35-1.6 3.55l-.55 2.6q-.65.65-.6-2.15l.1-.45q.4-1.95-.1-3.95.45-2.65-6.7-3.3-3.15-.15-2.8-1.4l3.8-.45q8.05.9 16-2.2l7.3-2.25 2.25-.45" fill="#ffac6f" fill-rule="evenodd" transform="translate(34.3 43.5)"/><path d="m26.6-26.95-.05-.3q-.6-2.4-2.65-4.85-2.45-2.25-5.5-2.95 3.4-.4 9.45 3.65 4.45 4.25 4.65 12l-.85-.45q-1.35-.6-2.25 2.15-.85 2.75.1 3.8.6.55-.3 2.2-1.85 3.8-5.2 6.4 1.3-2.35 2.2-5.05 2-5.8 2-12.2 0-3.4-1.6-4.4m-44.5 46.3q1.85-1.95 4.9-2.3 5.4-1.1 10.5-.1 2.2.35.95-1.85l-.9-2.75q-.85-3.6.6-6.6.7-1.4 1.95-2.7 3.55-4.4 10.65-3.2L13.8.7q.85.45.9.95l-.9.35-6.5 1.55L5.2 4.7q.15-2.05-3.15 0L1.2 5.75q-1.6 2.4-1.8 6.6l-.05 2.35Q-.4 16.65 1 18.6q.8 1.05 0 2.45-.85 3.65.75 6 1.5 1.3 0 2.9-5.25 5.4-11.6 7.1 5.4-4.5 5.9-8 .25-7.85-4.1-8.8-5.45-1.15-9.85-.9m10-49.4q-1.45-1.6-3.2-6.65-3.35-4.05-9.1-4.25-1.95-.15-1.5-1.3l4.5-.25q6.05.65 8.75 4.95.95 2.9.55 7.5" fill="#b62424" fill-rule="evenodd" transform="translate(34.3 43.5)"/><path d="m7.65-33.75-.6.15-.85.1 4.95-5.65q3.9-2.9 11.45-1.3 6.1 3 10.7 9.45 1.9 6.6.4 13.95l-.05.45q.15-1.95-1.15-2.8-.2-7.75-4.65-12-6.05-4.05-9.45-3.65l-7.35.35-3.4.95M24-5.3l-.35.55Q22.35-2.6 20.6-.8 17.8.6 14.7 1.65q-.05-.5-.9-.95l-3.05-.85Q3.65-1.35.1 3.05q-1.25 1.3-1.95 2.7-1.45 3-.6 6.6l.9 2.75q1.25 2.2-.95 1.85-5.1-1-10.5.1-3.05.35-4.9 2.3-5.35.3-9.25 2.65l-.75-.15q2.75-3.65 8.25-5.6l.7-.35q5-2.3 14.1-.8 1.7.45 1.35-1.45v-1.3l.1-1.8.2-2.2.55-2.6q.6-2.2 1.6-3.55 4.5-5.75 11.65-8.05l3.2-1.2 2.25-1.2.3-.15q3.1-1.8 5.5-4.35l1.8-2.15 1.5-2.65.3-.75.4-1.1q.65-2.15.85-4.6.25-1.45-.1-2.95 1.6 1 1.6 4.4 0 6.4-2 12.2-.9 2.7-2.2 5.05m-55.45-30.3.75-2.8q2.4-3.05 9-3.85-.45 1.15 1.5 1.3 5.75.2 9.1 4.25 1.75 5.05 3.2 6.65l-.55 4.15-2.3 1.2-.55.25q1.05-1.2 1.35-2.8 1.1-3.6-1.35-6.3l-.1-.1q-5.25-4.85-17.95-3.6-1.75.4-2.1 1.65" fill="#931010" fill-rule="evenodd" transform="translate(34.3 43.5)"/><path d="M26.6-26.95q.35 1.5.1 2.95-.2 2.45-.85 4.6l-.4 1.1-.3.75q-.5.75-1.65 1.45l-2.35 1.2q-3.85 1.85-7.35 3.15-6.15 2.2-11.35 2.5-11.95.4-15.25-3-.8-1.3 0-3.85l.8-2.05.45-1q-.25.95 2.15 0 5.7-4.25 11.35-6.25 10.55-4.85 16.7-4.05 5.15.5 7.95 2.5M-3.2 8.35l-.2 2.2q-1.25.6-5.4-1.05-2.55-.45-4.65-3.75Q-14.7 3.8-15.8.85q-.9-3.1 1.35-3.6l1.15-.15q-.35 1.25 2.8 1.4 7.15.65 6.7 3.3.5 2 .1 3.95l-.1.45q-.05 2.8.6 2.15" fill="#d26d23" fill-rule="evenodd" transform="translate(34.3 43.5)"/><path d="M32.5-19.4q1.3.85 1.15 2.8v.25l-.05.35q-1.25 8.4-8.05 12.25l-1.9 1.25L20.6-.8q1.75-1.8 3.05-3.95L24-5.3q3.35-2.6 5.2-6.4.9-1.65.3-2.2-.95-1.05-.1-3.8.9-2.75 2.25-2.15l.85.45M5.2 4.7 4.1 5.75Q2.75 7.4 2.25 9.85l.3 2.5q1.15 6.1 6 7.5 3.2.85 2.35 4.85Q7.7 30.1-1 36.45l-.2.2q-7.15 4.2-16.55 5.9 4.75-2.9 7.9-5.5 6.35-1.7 11.6-7.1 1.5-1.6 0-2.9-1.6-2.35-.75-6 .8-1.4 0-2.45-1.4-1.95-1.65-3.9l.05-2.35q.2-4.2 1.8-6.6l.85-1.05q3.3-2.05 3.15 0" fill="#ff1313" fill-rule="evenodd" transform="translate(34.3 43.5)"/><path d="M7.65-33.75q-2.1.7-3.75 2.6h-.1l-.1.15q-1.4 1.3-5.8 3.1-6.7 3-9.45 8.75l-.45 1-.8 2.05q-.8 2.55 0 3.85 3.3 3.4 15.25 3 5.2-.3 11.35-2.5 3.5-1.3 7.35-3.15l2.35-1.2q1.15-.7 1.65-1.45l-1.5 2.65-1.8 2.15q-2.4 2.55-5.5 4.35 1.25-.8-2.55-.45h-.2L.85-5.3q-9.4 2-19.45-.4 4.55 1.8 9.1 2.35l-3.8.45-1.15.15q-2.25.5-1.35 3.6 1.1 2.95 2.35 4.9 2.1 3.3 4.65 3.75 4.15 1.65 5.4 1.05l-.1 1.8v1.3q.35 1.9-1.35 1.45-9.1-1.5-14.1.8l-.7.35q-5.5 1.95-8.25 5.6-4.4-1.4-5.4-12l-.3-4.1q-.95-13.95-.6-23.9.2-6.2.9-10.85 1.45-3.25 2-6.1l.05-.3q.35-1.25 2.1-1.65 12.6-1.25 17.85 3.5 2.45 2.7 1.35 6.3-.3 1.6-1.35 2.8l.55-.25-.4.45 2.85-1.45 3.05-1.7 1.15-.7q4-2.45 7.6-5.25l7.65-5.8L6.2-33.5l.85-.1.6-.15M-20-21.7q1.65 1.45 7.8-2.05l1.05-.5-1.05.5q-6.15 3.5-7.8 2.05m-2.35 12.65q1 5.3 2.85 10.55 1.15 2.25 1.8 4.25 1.2 3.9.6 6.6l-.05.15q-.35 2.05-1.8 3.4 1.45-1.35 1.8-3.4l.05-.15q.6-2.7-.6-6.6-.65-2-1.8-4.25-1.85-5.25-2.85-10.55" fill="#ad591b" fill-rule="evenodd" transform="translate(34.3 43.5)"/><path d="m16.35-8.4-.3.15-2.25.45-7.3 2.25q-7.95 3.1-16 2.2-4.55-.55-9.1-2.35Q-8.55-3.3.85-5.3L13.6-8.85h.2q3.8-.35 2.55.45" fill="#9a4609" fill-rule="evenodd" transform="translate(34.3 43.5)"/><path d="m67.95 26.9.05-.45q1.5-7.35-.4-13.95Q63 6.05 56.9 3.05m-2 39.65 3.05-1.7 1.9-1.25q6.8-3.85 8.05-12.25l.05-.35M7.15 65.5q3.9-2.35 9.25-2.65 4.4-.25 9.85.9 4.35.95 4.1 8.8-.5 3.5-5.9 8-3.15 2.6-7.9 5.5 9.4-1.7 16.55-5.9m15.9-35q3.1-1.05 5.9-2.45m-15.4 5.5 2.1-1.15 6.5-1.55.9-.35m-15.7 34.8Q42 73.6 45.2 68.2q.85-4-2.35-4.85-4.85-1.4-6-7.5l-.3-2.5q.5-2.45 1.85-4.1l1.1-1.05M5.15 6.45q-1.75.4-2.1 1.65L3 8.4q-.55 2.85-2 6.1M12.6 1.25q-6.6.8-9 3.85l-.75 2.8m23 9.7.55-4.15q.4-4.6-.55-7.5-2.7-4.3-8.75-4.95l-4.5.25" fill="none" stroke="#620101" stroke-linecap="round" stroke-linejoin="round" stroke-width="2"/><path d="m45.45 4.35-7.65 5.8q-3.6 2.8-7.6 5.25l-1.15.7L26 17.8l-2.85 1.45" fill="none" stroke="#9a4609" stroke-linecap="round" stroke-linejoin="round" stroke-width="2"/><path d="M56.9 3.05q-7.55-1.6-11.45 1.3" fill="none" stroke="#690803" stroke-linecap="round" stroke-linejoin="round" stroke-width="2"/><path d="m-11.15-24.25-1.05.5q-6.15 3.5-7.8 2.05m1.05 37.6q1.45-1.35 1.8-3.4l.05-.15q.6-2.7-.6-6.6-.65-2-1.8-4.25-1.85-5.25-2.85-10.55" fill="none" stroke="#9a4609" stroke-linecap="round" stroke-linejoin="round" transform="translate(34.3 43.5)"/><path d="m7.65-33.75-.6.15-.85.1 4.95-5.65m7.25 4.1-7.35.35-3.4.95m18.95 6.8-.05-.3q-.6-2.4-2.65-4.85-2.45-2.25-5.5-2.95m15.25 18.7v-.25M26.6-26.95q.35 1.5.1 2.95-.2 2.45-.85 4.6l-.4 1.1-.3.75-1.5 2.65-1.8 2.15q-2.4 2.55-5.5 4.35l-.3.15-2.25 1.2-3.2 1.2Q3.45-3.55-1.05 2.2q-1 1.35-1.6 3.55l-.55 2.6-.2 2.2-.1 1.8v1.3q.35 1.9-1.35 1.45-9.1-1.5-14.1.8l-.7.35q-5.5 1.95-8.25 5.6l.75.15M-1.2 36.65l.2-.2m-10.3-70q-5.25-4.75-17.85-3.5" fill="none" stroke="#620101" stroke-linecap="round" stroke-linejoin="round" transform="translate(34.3 43.5)"/></g><g id="g"><path d="m20.05-33-.25.1-7.15 3q-3 1.3-3.2 2.5 0 1.3-2.85 1.85-1.75.25-3-.75 4.7-3.3 10.7-5.95 9.05-4.05 16.6-6.2l1.5.7L20.05-33" fill="#fff7b3" fill-rule="evenodd" transform="translate(47.05 43.35)"/><path d="m19.8-32.9.25-.1 12.35-4.75q2.9 1.5 3.95 4.15l-16.2 6.1Q8.45-23.05-.5-15l-4.25 4.2H-9.5l.8-2.5 2.8-4.2q2.8-3.6 6.65-6.7 1.85.6 3.25 0 2.4 1.3 5.8-.7 1.7-1.1 3.15-3.1l.5-.55q2.4-2.5 6.35-4.35" fill="#ffc500" fill-rule="evenodd" transform="translate(47.05 43.35)"/><path d="M19.8-32.9q-3.95 1.85-6.35 4.35l-.5.55q-1.45 2-3.15 3.1-3.4 2-5.8.7-1.4.6-3.25 0l2.85-2.1q1.25 1 3 .75 2.85-.55 2.85-1.85.2-1.2 3.2-2.5l7.15-3" fill="#ffed52" fill-rule="evenodd" transform="translate(47.05 43.35)"/><path d="M.75-24.2q-3.85 3.1-6.65 6.7-.4-1.05 1-3.6 4.4-4.35 9.85-7.65 14.15-9.95 30.3-13.6 8.55.6 11.3 9.65-13.9 2.15-36.45 13.95l-1.05.55Q-.6-13.5-.5-15q8.95-8.05 20.65-12.5l16.2-6.1q-1.05-2.65-3.95-4.15l-1.5-.7q-7.55 2.15-16.6 6.2-6 2.65-10.7 5.95L.75-24.2" fill="#64d223" fill-rule="evenodd" transform="translate(47.05 43.35)"/><path d="M29.8-21.4q3.55 1.5 4.75 3.9-2.75-1.5-6.85-.65-6 .9-15.85 5.7-8.55 4.7-9.15 7.4L1.85-3.9Q.6-5.05-1.15-6q10.25-8.45 23.4-13.1l.4-.1 7.15-2.2m5.25 5.3q-1.85 3.45-1.8 7.15Q18.8-8.1 4-1.35L3.15-2.6l-1.3-1.3.85-1.15q3.4-4 11.1-6.6 11.1-3.45 21.25-4.45" fill="#3e2f83" fill-rule="evenodd" transform="translate(47.05 43.35)"/><path d="m34.55-17.5.5 1.4q-10.15 1-21.25 4.45-7.7 2.6-11.1 6.6.6-2.7 9.15-7.4 9.85-4.8 15.85-5.7 4.1-.85 6.85.65" fill="#5a4b9b" fill-rule="evenodd" transform="translate(47.05 43.35)"/><path d="m-5.9-17.5-2.8 4.2-.8 2.5h4.75L-.5-15q-.1 1.5 9.55-3.2l1.05-.55q22.55-11.8 36.45-13.95v6.1L29.8-21.4l-7.15 2.2-.4.1Q9.1-14.45-1.15-6L-3.3-7.1-5-7.6l-.55-.1q-6.35-1.45-9.75 1.45 4.05-8.5 10.4-14.85-1.4 2.55-1 3.6m.9 9.9Q.05-13.25 9.05-18.2.05-13.25-5-7.6" fill="#3c8a10" fill-rule="evenodd" transform="translate(47.05 43.35)"/><path d="m-5-7.6 1.7.5L-1.15-6q1.75.95 3 2.1l1.3 1.3-.3.45q-.5.7-1.4.7-1.1 0-2.25-.8L-2.5-3.6q-.55-.4-2.55-.95-1.15-.35-1.15-1.3L-5.75-7l.75-.6" fill="#b62424" fill-rule="evenodd" transform="translate(47.05 43.35)"/><path d="M4-1.35q.9 1.4 1.25 3l.2 2.6Q5 7.4 3.3 6 1.25 3.45-1.55 1.65-2.85.8-4.35.1q-8.2-3.05-12.25-2.45-1.35-.6-.25-2.2l1.4-1.6.15-.1q3.4-2.9 9.75-1.45l-.2.7-.45 1.15q0 .95 1.15 1.3 2 .55 2.55.95l1.7 1.35q1.15.8 2.25.8.9 0 1.4-.7l.3-.45L4-1.35" fill="#700" fill-rule="evenodd" transform="translate(47.05 43.35)"/><path d="M.75-24.2q-3.85 3.1-6.65 6.7l-2.8 4.2-.8 2.5h4.75L-.5-15q8.95-8.05 20.65-12.5l16.2-6.1q-1.05-2.65-3.95-4.15l-1.5-.7q-7.55 2.15-16.6 6.2-6 2.65-10.7 5.95L.75-24.2" fill="none" stroke="#fe9500" stroke-linecap="round" stroke-linejoin="round" transform="translate(47.05 43.35)"/><path d="M42.15 22.25q4.4-4.35 9.85-7.65Q66.15 4.65 82.3 1q8.55.6 11.3 9.65v6.1l-16.75 5.2-7.15 2.2-.4.1q-13.15 4.65-23.4 13.1m-14.15-.25q4.05-8.5 10.4-14.85" fill="none" stroke="#1e5700" stroke-linecap="round" stroke-linejoin="round" stroke-width="2"/><path d="M76.85 21.95q3.55 1.5 4.75 3.9l.5 1.4q-1.85 3.45-1.8 7.15-14.45.85-29.25 7.6" fill="none" stroke="#090984" stroke-linecap="round" stroke-linejoin="round" stroke-width="2"/><path d="M46.55-32.7q-13.9 2.15-36.45 13.95l-1.05.55Q.05-13.25-5-7.6" fill="none" stroke="#1e5700" stroke-linecap="round" stroke-linejoin="round" transform="translate(47.05 43.35)"/><path d="M51.05 42q.9 1.4 1.25 3l.2 2.6q-.45 3.15-2.15 1.75Q48.3 46.8 45.5 45q-1.3-.85-2.8-1.55Q34.5 40.4 30.45 41q-1.35-.6-.25-2.2l1.4-1.6.15-.1q3.4-2.9 9.75-1.45l.55.1 1.7.5 2.15 1.1q1.75.95 3 2.1l1.3 1.3.85 1.25" fill="none" stroke="#610100" stroke-linecap="round" stroke-linejoin="round" stroke-width="2"/><path d="M2.7-5.05 1.85-3.9m33.2-12.2q-10.15 1-21.25 4.45-7.7 2.6-11.1 6.6" fill="none" stroke="#090984" stroke-linecap="round" stroke-linejoin="round" transform="translate(47.05 43.35)"/><path d="M-34.1 2.45q4.3-4.8 13-5.9l.35-.05 4.25-.1q3.95-.1 10.5 1.45 4.35 1.35 7.6 4.3 1.5 1.4 3.05 3.35Q8.8 13.4 7.4 24.1l-44-15.5q.95-3.8 2.45-6l.05-.15" fill="#f0a330" fill-rule="evenodd" transform="translate(47.05 43.35)"/><path d="M12.95 45.8q4.3-4.8 13-5.9l.35-.05 4.25-.1q3.95-.1 10.5 1.45 4.35 1.35 7.6 4.3 1.5 1.4 3.05 3.35 4.15 7.9 2.75 18.6m-44-15.5q.95-3.8 2.45-6" fill="none" stroke="#640100" stroke-linecap="round" stroke-linejoin="round" stroke-width="2"/><path d="m-37.75-6.15.9-.65q1.35-.6 8.55 3.5 7.1 4.1 9.55 9.05-.8 1.35-2.1 2.8l-5.25 3.75q-3.4 2.5-6.35 3.3-3.5-.75-4.05-4.05V5.6l-.05-1.65q.25-1.2 1.2-2.45l1.2-1.55q.55-.8.55-1.35 0-1.55-1.5-3-1.25-1.25-2.65-1.75" fill="#623b00" fill-rule="evenodd" transform="translate(47.05 43.35)"/><path d="m-37.9-4.7-.85-1.75q-.7-1.05-1.4-1.15.35-1.2 1.25-1.45 2.65-1.75 9.1 1.85 7.2 2.45 12.1 7.25.75 2.6-1.05 5.7Q-21.2.8-28.3-3.3q-7.2-4.1-8.55-3.5l-.9.65-.4.5.25.95m-2.2 10.4.15.2 1.2.8q.75 0 1.45-1.05.7-1 .7-2.15l.05.45.05 1.65v5.95q.55 3.3 4.05 4.05l-4.65.1q-2.8-2.8-3-10" fill="#b4862c" fill-rule="evenodd" transform="translate(47.05 43.35)"/><path d="M-40.15-7.6q.7.1 1.4 1.15l.85 1.75q1.05 4.05 1.3 8.2 0 1.15-.7 2.15-.7 1.05-1.45 1.05l-1.2-.8-.15-.2v-.75l.85.35q.85 0 1-1.15V1.9q-.5-8.4-1.85-8.4l-.25.05.2-1.15" fill="#e7ba67" fill-rule="evenodd" transform="translate(47.05 43.35)"/><path d="m-37.9-4.7-.25-.95.4-.5q1.4.5 2.65 1.75 1.5 1.45 1.5 3 0 .55-.55 1.35l-1.2 1.55q-.95 1.25-1.2 2.45l-.05-.45q-.25-4.15-1.3-8.2" fill="#8c5400" fill-rule="evenodd" transform="translate(47.05 43.35)"/><path d="m-40.35-6.45.25-.05q1.35 0 1.85 8.4v2.25q-.15 1.15-1 1.15l-.85-.35v-7.4q-.4-2.45-.25-4" fill="#ffe5b0" fill-rule="evenodd" transform="translate(47.05 43.35)"/><path d="m-37.9-4.7-.25-.95.4-.5.9-.65q1.35-.6 8.55 3.5 7.1 4.1 9.55 9.05M-36.6 3.5q-.25-4.15-1.3-8.2m1.35 8.65.05 1.65v5.95q.55 3.3 4.05 4.05m-4.1-11.65.05 1.65m-.1-2.1.05.45" fill="none" stroke="#620101" stroke-linecap="round" stroke-linejoin="round" transform="translate(47.05 43.35)"/><path d="M28.3 49.1q1.8-3.1 1.05-5.7-4.9-4.8-12.1-7.25-6.45-3.6-9.1-1.85-.9.25-1.25 1.45l-.2 1.15q-.15 1.55.25 4v8.15q.2 7.2 3 10l4.65-.1q2.95-.8 6.35-3.3l5.25-3.75q1.3-1.45 2.1-2.8z" fill="none" stroke="#620101" stroke-linecap="round" stroke-linejoin="round" stroke-width="2"/><path d="m28.7 2.35-3.35-.8L18.5.6q-.3 1.45-3 1.8l-3.2-.65q-1.4-.2-3.1.65-2.6 1.05-3.5 0-.5-1.6.8-2.5 1.95-.8 4.45-1.25Q21.3-3.2 28.7 2.35" fill="#ffe5b0" fill-rule="evenodd" transform="translate(47.05 43.35)"/><path d="m29.2 7.6.15.55v.3q.8.15.25 2.3l-.1.3Q27.95 14.7 25.4 17q-2 1.25-3.55 3.3l-.3.25q-1.9 2.7-4.9 3.7-2.55.1-2.65-1.45 2.75-.8 5.55-3l.35-.25q6.65-5 8.8-10.5l.5-1.45m1.55-3.5q-3.15-1.55-10.7-1.7-6.8 0-13.2 1.65-2.95.2-2.95-2.8Q5.05.5 6.5-.1q-1.3.9-.8 2.5.9 1.05 3.5 0 1.7-.85 3.1-.65l3.2.65q2.7-.35 3-1.8l6.85.95 3.35.8 1.75 1.45.3.3" fill="#e9bd69" fill-rule="evenodd" transform="translate(47.05 43.35)"/><path d="M29.35 8.45v-.3l-.15-.55q-.4-1.2-2.15-2-5.3-1.3-11.75-.55-10.5 1.2-14.25 6.4-1.45 2.4-1.2 4.8-.6-2.65-.85-5.85.05-6.1 4.9-9.15 0 3 2.95 2.8 6.4-1.65 13.2-1.65 7.55.15 10.7 1.7l2.25 2q1.35 2.55-1.75 7l-7.7 9.6q-4.05 3.55-7.85 4.4-4.55 1.55-9.45.75-4.15-3-5.95-9.65 1.2 2.1 5.6 3.85 4.05 1.9 8.1.75.1 1.55 2.65 1.45 3-1 4.9-3.7l.3-.25q1.55-2.05 3.55-3.3 2.55-2.3 4.1-5.95l.1-.3q.55-2.15-.25-2.3" fill="#b48327" fill-rule="evenodd" transform="translate(47.05 43.35)"/><path d="M14 22.8q-4.05 1.15-8.1-.75Q1.5 20.3.3 18.2l-.45-1.95q-.25-2.4 1.2-4.8 3.75-5.2 14.25-6.4 6.45-.75 11.75.55 1.75.8 2.15 2l-.5 1.45q-3.55-2.2-12 .35-5.55 1.35-6.25 3.6-.45 1.7.85 3.6 1.9 1.75 1.4 3.1-2.75 2.95 1.3 3.1" fill="#623b00" fill-rule="evenodd" transform="translate(47.05 43.35)"/><path d="M28.7 9.05q-2.15 5.5-8.8 10.5l-.35.25q-2.8 2.2-5.55 3-4.05-.15-1.3-3.1.5-1.35-1.4-3.1-1.3-1.9-.85-3.6.7-2.25 6.25-3.6 8.45-2.55 12-.35" fill="#8c5400" fill-rule="evenodd" transform="translate(47.05 43.35)"/><path d="m29.2 7.6.15.55v.3M14 22.8q-4.05 1.15-8.1-.75Q1.5 20.3.3 18.2m-.45-1.95q-.25-2.4 1.2-4.8 3.75-5.2 14.25-6.4 6.45-.75 11.75.55 1.75.8 2.15 2m-.5 1.45q-2.15 5.5-8.8 10.5l-.35.25q-2.8 2.2-5.55 3" fill="none" stroke="#620101" stroke-linecap="round" stroke-linejoin="round" transform="translate(47.05 43.35)"/><path d="M47.35 61.55q1.8 6.65 5.95 9.65 4.9.8 9.45-.75 3.8-.85 7.85-4.4l7.7-9.6q3.1-4.45 1.75-7l-2.25-2-.3-.3-1.75-1.45Q68.35 40.15 58 42q-2.5.45-4.45 1.25-1.45.6-2.6 1.35-4.85 3.05-4.9 9.15.25 3.2.85 5.85l.45 1.95z" fill="none" stroke="#620101" stroke-linecap="round" stroke-linejoin="round" stroke-width="2"/><path d="m-10.7-2.1-.3.6q-.55.7-1.9 1.25l-.05.05q-2 1.3-4.65 1.95l-3.45.5h-.8l-1.25-.4v2.8q1.9.25 2.6 2.25l.1.3q.5 1.75-1.25 2.85l-3 2.65-.75 1.9q-.25 1.35.45 2.25l.15.1q2.7 1.65 4.55 3.45 1.3 1 2.65 1.65l.2.1q2.6 1.25 5.35 1.25l1.05-.1 1.25-.35q.7-.3 1.3-.8 1 .8 2.2 1l2.95-.2 1.15-.25q-1.5-2.55-1.35-3.75l1.55.35h.65q1.15-.05 2.15-.65l.2-.25Q1.9 17.15.6 14q.9 1.05 3.45 1.55l4.6.25.15.6-4 .5q1.9.6 3.25 1.9h.05q1 1.4-.45 2.45l-2.1 1.5q1.5.9 2.05 2.7l.1.25q.35.6 1.05.7-1 1.05-2 1.2h-.7q.4-.95-.85-1.35-2.85-.35-5.25 1.1.15-1.5-1.25-2l-.25-.1-.4.95q-.75 1.05-3 1.45l-1.3.1-.25.05.25-.25.5-1.15v-.15q-.05-1.15-.5-1.8-.35-.5-.95-.75-1.3.9-2.55 1.45l-1.25.5-4.9.2-1.5-.55-.2-.15q-1.9-1-3.3-3.1-1.05-1.85-3.85-2.3l-.9-.15-.8-.2q-2.05-.6-2.5-1.65-.6-1.4.35-3.15l.2-.35.15-.25q.75-1.4 2.6-2.5l1.65-.85q2.2-.55 2.8-2.35.3-1.75-1.55-2.4l-.2-.05q-.9-.25-1.7 0 .65-1 .55-2.05.05-.95-.25-1.55-.35-.75-1.2-.95l-.1-.05-.9-.05-.65.1.65-1.55.9-1.2.25-.25 1.25-.8 2.6-1.1v-.05l.3-.1.2-.05.75-.2 2.7-.25 3.95.5 2.85.7q.2.5.1.95M5.05 12.45l-.2.25L2 11.3q-.95-.6.9-1.15 2.55-.65 4.25-2 .7.55.8 1.45-1.95.95-2.9 2.85M-33 3.05l.65-.5.65-.3q1.25-.5 2.2 0l.35.25-.4.55-.15.3q-.55-.65-1.2-.7l-.75.15q-1.25.6-1.4 2.45V6.3q-.2 1.25-.9 2.15l-1.1.95v.05l-.25.15q-1.8 1.05-3.05 2.45l.55-1.45.05-.2.2-.35.75-1 .75-.75q1-1.15 1.75-2.85.4-1.5 1.3-2.4m35.5 19.9q1.55.7 3.05-.2-1.5.9-3.05.2m.4-5.2q.85-.55 1.9-.85-1.05.3-1.9.85" fill="#8c5400" fill-rule="evenodd" transform="translate(47.05 43.35)"/><path d="m-10.7-2.1.95.15q1.8.45 3.5 1.25l.95.45 1.15.75q1.75 1.55 1.8 4.15l.05.3q.15.6 1 .45l.25-.05q.95-1.7 3.4-2.5l.15.05q.4.6.05 1.45v.2q-.3 1.1.65 1.5 2.4-.85 3.85-.3l-2.7 1.6-1-.05 1 .05q1.85.15 2.8.8-1.7 1.35-4.25 2-1.85.55-.9 1.15l2.85 1.4.2-.25q2.95 1.2 3.6 3.35l-4.6-.25Q1.5 15.05.6 14q1.3 3.15.45 4.4l-.2.25q-1 .6-2.15.65h-.65l-1.55-.35q-.15 1.2 1.35 3.75l-1.15.25-2.95.2q-1.2-.2-2.2-1-.6.5-1.3.8l-1.25.35-1.05.1q-2.75 0-5.35-1.25l-.2-.1q-1.35-.65-2.65-1.65-1.85-1.8-4.55-3.45l-.15-.1q-.7-.9-.45-2.25l.75-1.9 3-2.65q1.75-1.1 1.25-2.85l-.1-.3q-.7-2-2.6-2.25v-2.8l1.25.4h.8l3.45-.5q2.65-.65 4.65-1.95l.05-.05Q-11.55-.8-11-1.5l.3-.6M4.5 13.35l.35-.65-.35.65M-33.35 2.7l.45-.45 1.35-1.1 2.15-1.4 2.45-1.05q.55-.75-.55-.6l-.05-.2 1-.4.9-.3 4.1-.95v.15l-2.6 1.1-1.25.8-.25.25-.9 1.2-.65 1.55q-1 .2-1.75.95l-.2.25-.35-.25q-.95-.5-2.2 0l-.65.3-.65.5-.35-.35" fill="#b76e00" fill-rule="evenodd" transform="translate(47.05 43.35)"/><path d="M-30.9 2.65q.65.05 1.2.7l.15-.3q-.35.9-.35 1.75.7.5 1.8.25 1.65-.35 2.45-1.35l.15-.25q.35-.65.35-1.2 0-.55-.4-.95.85.2 1.2.95.3.6.25 1.55.1 1.05-.55 2.05l-1 .5-.7.8.1.2.6.45.6-.2 1.35-.2q1.75-.2.95-1.5 1.85.65 1.55 2.4-.6 1.8-2.8 2.35l-1.65.85q-1.85 1.1-2.6 2.5l-.15.25-.2.35q-.95 1.75-.35 3.15.45 1.05 2.5 1.65l.8.2.9.15q2.8.45 3.85 2.3 1.4 2.1 3.3 3.1l.2.15 1.5.55 4.9-.2 1.25-.5q1.25-.55 2.55-1.45.6.25.95.75.45.65.5 1.8v.15l-.5 1.15-.25.25.25-.05 1.3-.1q.7.5.75 1.4.2 1.45-2.05 1.65h-1.9q.15.7.7 1.05l.45.15.75.1q1.05.2 1.05.8l-1.05.15q-1.8.1-3.5-.75l-.75-.45-.5-.25-.9.15-.1.1q-.55.6.95 1.8l.05.05q.85.6 0 .8l-.2.05q-1.65.3-4.85-1.3l-.1-.1q-.75-.5-1.15.7l-.1.5-.6 1.6q-1.2 2.05-1.3-1.15l-.1-2.35q-.15-1.55-.5-2.25-.8-.9-2.95 2.25h-.05v.05l-.05.05q-1.4 1.65-2.7 1.2l-.35-.15-.45-.45-.5-.25-.45-.1v-.25l.6-.1h.1l-.1-.05q-3.45-.9-6.25-2.95-2.35-1.6-2.5-4.4v-.2q-.1-1.2 1.4-1.3 2.7-.2 4.3-2.2 1.05-1.6-.05-4.3l-.05-.1q-.6-1.4-1.55-2.25-.4-.35-.95-.6-.6-1.05-1.5-1.5l.9-.15.95.6q1.2-.25.65-1-.6-1.05-.05-1.5l1.55-.1q.9.7 1.05.25.35-.4-.4-1.1-.9-.25-.75-.9.9-.7 2.15.5 1.25.45.9-.55-.25-1.2-2.5-1.85-2.65.25-4.45 1.75.7-.9.9-2.15V5.25l.45.75q.8.9 1.7-.55.7-1.9 0-2.8M-41.6 16.5l.15.55.55 1.2.6.9.6.7.85.75.2.1.8.45q-.05.9-.8 1.8l-.1.1-.45.4q-.85.6-1.7.85-1.9.55-3.65-.65l-.5-.45q.1-.65 2.3-1.1l1.85-.15.05-.05q1-1 0-2.05l-.05-.05q-1.65-1.85-.7-3.3m11.8-10.95-.1-.75.1.75m4.1 26.55-.75.2-.25.05.25-.05.75-.2m18.15-3.5 1.05-.8-1.05.8m-24.7 4.45-.75-.8 1.15.4-.4.4m.25-8.1v.3q.2 2.4 2.4 3.45 1.65.95 2.8 1.2l.35.1.8.05q.9-.05 1.45-.9Q-22.95 27-25.65 25q-.35-.25-.8-.55l-.5-.25-1.6-.8q-3-.5-3.45 1.55" fill="#b4862c" fill-rule="evenodd" transform="translate(47.05 43.35)"/><path d="m-29.15 2.5.2-.25q.75-.75 1.75-.95l.65-.1.9.05.1.05q.4.4.4.95 0 .55-.35 1.2l-.15.25q-.8 1-2.45 1.35-1.1.25-1.8-.25 0-.85.35-1.75l.4-.55m-3.9 2.75q.15-1.85 1.4-2.45l.75-.15q.7.9 0 2.8-.9 1.45-1.7.55l-.45-.75m8.4.6q.8-.25 1.7 0l.2.05q.8 1.3-.95 1.5l-1.35.2-.6.2-.6-.45-.1-.2.7-.8 1-.5m-13.7 6.2q1.25-1.4 3.05-2.45l.25-.15V9.4l1.1-.95q1.8-1.5 4.45-1.75 2.25.65 2.5 1.85.35 1-.9.55-1.25-1.2-2.15-.5-.15.65.75.9.75.7.4 1.1-.15.45-1.05-.25l-1.55.1q-.55.45.05 1.5.55.75-.65 1l-.95-.6-.9.15H-34l-3.35-.15-1.3.35-.25.1.25-.35.3-.4m-3.2 3.2-.05 1.25q-.95 1.45.7 3.3l.05.05q1 1.05 0 2.05l-.05.05-1.85.15q-2.2.45-2.3 1.1-.95-1-1-2.2v-.2q0-.95.55-2.1 1.1-2.25 3.95-3.45m9.55 9.7q.45-2.05 3.45-1.55l1.6.8.5.25q.45.3.8.55 2.7 2 1.45 4.15-.55.85-1.45.9l-.8-.05-.35-.1q-1.15-.25-2.8-1.2-2.2-1.05-2.4-3.45v-.3" fill="#e9bd69" fill-rule="evenodd" transform="translate(47.05 43.35)"/><path d="m-33.35 2.7.35.35q-.9.9-1.3 2.4-.75 1.7-1.75 2.85l-.45-.45 1.8-3.8 1.35-1.35" fill="#b56d00" fill-rule="evenodd" transform="translate(47.05 43.35)"/><path d="M-39.95 13.25V14l.1.6q.3 1 1.2 1.8l.9.65q3.1 1.55 4.35-.7l.25-1.75-.05-.6q-.15-.95-.8-1.5h.05q.9.45 1.5 1.5l.25.5.1.1.15.3.1.2.65 1.25q.4 4.1-1.7 4.45l-4.75-.2-.85-.25-.15-.05-1.05-.45-.6-.7-.6-.9-.55-1.2-.15-.55.05-1.25.25-.65.4-.6.95-.75" fill="#38170e" fill-rule="evenodd" transform="translate(47.05 43.35)"/><path d="M-34 12.5q.65.55.8 1.5l.05.6-.25 1.75q-1.25 2.25-4.35.7l-.9-.65q-.9-.8-1.2-1.8l-.1-.6v-.75l1.05-.45.25-.1 1.3-.35 3.35.15" fill="#65380d" fill-rule="evenodd" transform="translate(47.05 43.35)"/><path d="m-31.2 16.35-.65-1.25-.1-.2-.15-.3-.1-.1-.25-.5q.55.25.95.6.95.85 1.55 2.25l.05.1q1.1 2.7.05 4.3-1.6 2-4.3 2.2-1.5.1-1.4 1.3v.2q.15 2.8 2.5 4.4 2.8 2.05 6.25 2.95v.05l-.6.1h-1.5l-1.35-.1q-2.75-.4-5.35-2.2-2.5-2.2-3.05-5.6l-.1-1.5.1-.1q.75-.9.8-1.8 1 .5 2.15.65 2.65.6 4.35-.8 1.35-1.75.15-4.65" fill="#a07014" fill-rule="evenodd" transform="translate(47.05 43.35)"/><path d="m-39.7 19.85 1.05.45.15.05-.15.35-.2-.1-.85-.75m2.05.75 4.75.2q2.1-.35 1.7-4.45 1.2 2.9-.15 4.65-1.7 1.4-4.35.8-1.15-.15-2.15-.65l.2-.55" fill="#7c4802" fill-rule="evenodd" transform="translate(47.05 43.35)"/><path d="m-38.5 20.35.85.25-.2.55-.8-.45.15-.35" fill="#774301" fill-rule="evenodd" transform="translate(47.05 43.35)"/><path d="M-4.95 27.65q2.25-.4 3-1.45l.4-.95.25.1q1.4.5 1.25 2 2.4-1.45 5.25-1.1 1.25.4.85 1.35h.7q-1.35 2.55-3.6 4l-.2.15L1.75 33l-.9 1.1q-.85.95-2.15 1.55l-.6.25h-.05q-1.8 1.95-4.3 3.3l-1.15.55-2.35.95-1.85.5-1.85.45-2.7.4-1.25.1q-3.05.3-6.5.15h-1.75l-.8-.1-.9-.15-1.55-.4-1.2-.45-1.75-.7-1.05-.5-.4-.25-.7-.35q-2.3-1.1-4.65-3.15l-2.25-2.2-2.6-3.05q-1.3-1.35-2.5-4.3l-.45-2.05V22.5l.4-1.5q.05 1.2 1 2.2l.5.45q1.75 1.2 3.65.65.85-.25 1.7-.85l.45-.4.1 1.5q.55 3.4 3.05 5.6 2.6 1.8 5.35 2.2l1.35.1-2.95.2-1.15-.4.75.8.4.45q.65.95.9 2 1.15-1.6 3.55-2.8l.45.1.5.25.45.45.35.15q1.3.45 2.7-1.2l.05-.05.05-.05q2.15-3.15 2.95-2.25.35.7.5 2.25l.1 2.35q.1 3.2 1.3 1.15l.6-1.6.1-.5q.4-1.2 1.15-.7l.1.1q3.2 1.6 4.85 1.3l.2-.05q.85-.2 0-.8l-.05-.05q-1.5-1.2-.95-1.8l.1-.1.9-.15.5.25.75.45q1.7.85 3.5.75l1.05-.15q0-.6-1.05-.8l-.75-.1-.45-.15q-.55-.35-.7-1.05h1.9q2.25-.2 2.05-1.65-.05-.9-.75-1.4m-1.3 8.7q2.25.35 4.3-.45-2.05.8-4.3.45m8.1-6.1q1.9.1 3.85-2.05l.35-.6-.35.6q-1.95 2.15-3.85 2.05m-2.2-1.75.3-1.15-.3 1.15" fill="#a17114" fill-rule="evenodd" transform="translate(47.05 43.35)"/><path d="M-27.4 32.7q-2.4 1.2-3.55 2.8-.25-1.05-.9-2l-.4-.45.4-.4 2.95-.2h1.5v.25" fill="#b2842b" fill-rule="evenodd" transform="translate(47.05 43.35)"/><path d="M53.8 70.95q1-.15 2-1.2m-2 1.2q-1.35 2.55-3.6 4l-.2.15-1.2 1.25-.9 1.1q-.85.95-2.15 1.55l-.6.25h-.05M1 64.35v-.2q0-.95.55-2.1 1.1-2.25 3.95-3.45" fill="none" stroke="#640100" stroke-linecap="round" stroke-linejoin="round" stroke-width="2"/><path d="m7.1 56.6-.95.75-.4.6-.25.65m2.65-2.45-1.05.45m1.05-.45.25-.35.3-.4" fill="none" stroke="#471300" stroke-linecap="round" stroke-linejoin="round" stroke-width="2"/><path d="m-41.55 15.25-.05 1.25.15.55.55 1.2.6.9.6.7.85.75.2.1.8.45q1 .5 2.15.65 2.65.6 4.35-.8 1.35-1.75.15-4.65l-.65-1.25-.1-.2-.15-.3-.1-.1-.25-.5q-.6-1.05-1.5-1.5H-34l-3.35-.15-1.3.35-.25.1" fill="none" stroke="#471300" stroke-linecap="round" stroke-linejoin="round" transform="translate(47.05 43.35)"/><path d="M8.65 15.8q-.65-2.15-3.6-3.35.95-1.9 2.9-2.85-.1-.9-.8-1.45-.95-.65-2.8-.8l-1-.05m1.5 5.4-.35.65M-29.15 2.5l.2-.25q.75-.75 1.75-.95l.65-.1.9.05.1.05q.85.2 1.2.95.3.6.25 1.55.1 1.05-.55 2.05.8-.25 1.7 0l.2.05q1.85.65 1.55 2.4-.6 1.8-2.8 2.35l-1.65.85q-1.85 1.1-2.6 2.5l-.15.25-.2.35q-.95 1.75-.35 3.15.45 1.05 2.5 1.65l.8.2.9.15q2.8.45 3.85 2.3 1.4 2.1 3.3 3.1l.2.15 1.5.55 4.9-.2 1.25-.5q1.25-.55 2.55-1.45.6.25.95.75.45.65.5 1.8v.15l-.5 1.15-.25.25.25-.05 1.3-.1q2.25-.4 3-1.45l.4-.95.25.1q1.4.5 1.25 2 2.4-1.45 5.25-1.1 1.25.4.85 1.35h.7M-30.9 2.65q.65.05 1.2.7l.15-.3.4-.55m-1.75.15-.75.15q-1.25.6-1.4 2.45V6.3q-.2 1.25-.9 2.15l-1.1.95v.05l-.25.15q-1.8 1.05-3.05 2.45M8.75 26.4q-.7-.1-1.05-.7l-.1-.25q-.55-1.8-2.05-2.7-1.5.9-3.05.2m-27.15-17.1-1 .5-.7.8.1.2M-29.9 4.8l.1.75m3 26.75.1.05.25-.05.75-.2m-3.85-29.05q-.35.9-.35 1.75m23.4 23-1.05.8m-21.35 3.85-1.35-.1q-2.75-.4-5.35-2.2-2.5-2.2-3.05-5.6l-.1-1.5-.45.4q-.85.6-1.7.85-1.9.55-3.65-.65l-.5-.45q-.95-1-1-2.2l-.4 1.5v2.15l.45 2.05q1.2 2.95 2.5 4.3l2.6 3.05 2.25 2.2Q-36.3 38.3-34 39.4l.7.35.4.25 1.05.5 1.75.7 1.2.45 1.55.4.9.15.8.1h1.75q3.45.15 6.5-.15l1.25-.1 2.7-.4 1.85-.45 1.85-.5 2.35-.95 1.15-.55q2.5-1.35 4.3-3.3-2.05.8-4.3.45m-31.6-15.2q-.05.9-.8 1.8l-.1.1m11.35 9.4h-1.5m2.2-.1h-.1l-.6.1m32.95-9.7 2.1-1.5q1.45-1.05.45-2.45m-.05 0Q6.7 17.5 4.8 16.9q-1.05.3-1.9.85m-2.95 9.6-.3 1.15m6.4-.9-.35.6q-1.95 2.15-3.85 2.05M4.8 16.9l4-.5" fill="none" stroke="#640100" stroke-linecap="round" stroke-linejoin="round" transform="translate(47.05 43.35)"/><path d="m-16.55 4.35.3-.3q1.4 1.45 3.05 1.3 1.15-.45 2.2-.55h1.25l.1.05q1.95.3 1.2-.75 1.15.4 2.2.95L-3.8 6.7q1.05 1.85-.95.95l-.15-.05-1.35-.35-3.5-.6L-11 6.5l-3.3-.1q-2.15-.7-2.25-2.05" fill="#ffed52" fill-rule="evenodd" transform="translate(47.05 43.35)"/><path d="m-3.8 6.7 1.55 1.5q.95 1.6-1.3 1.1l-2.7-.6-3.5-.4-1.25-.05h-3.6q-2.3.35-2.5-1.55-.1-1.5.55-2.35.1 1.35 2.25 2.05l3.3.1 1.25.15 3.5.6 1.35.35.15.05q2 .9.95-.95" fill="#ffad00" fill-rule="evenodd" transform="translate(47.05 43.35)"/><path d="M-16.25 4.05q.8-.75 2.3-.85l2.95.25 1.25.3 1.3.35q.75 1.05-1.2.75l-.1-.05H-11q-1.05.1-2.2.55-1.65.15-3.05-1.3" fill="#fff7b3" fill-rule="evenodd" transform="translate(47.05 43.35)"/><path d="M-17.6 11.4q-1.45-.15-2.65.6-.1-.85 2.25-1.7l.4.2.2.1 1.8.35h3l1.6.65 1.25.35 3.25.3q-1.75.65-2.85.65h-.4l-1.25-.1-.3-.05-.9-.15-1.55-.4-2.05.15-.55.15-1.05.3h-.2l-.35.05q-.7.35-.15.45l.5-.05.2-.05.85-.3.3-.1 2.45-.05 1.5.3 1.3.35 1.25.35q.75.25 1.45.6l.8.25q.65.3.5.6-.9.8-2.6 1.5 1.05-.1 2.2.35.75.35 1.15.75l.2.25-.2-.05-1.7-.4-1.35-.15-.1-.05h-.35q-.95-.15-1.25 0l1.25.3.35.05.45.1.1.05q.75.05 1.2.5.5.55 0 .4l-1.65-.4-.45-.05-1.25-.05-3.7.6-2.7-.05-.2-.05q-.85-.2-1.3-.6-1.05-.95-1.9-3.3l-.5-.3.15-.6q1.45-1.2 3.55-2.15l.2-.1q.95-.05.35-.3l-.3-.05h-.25m-1 2.45-.55.15-1.1.35v.25l.2.35.25.35q.95 2.45 2.2 2.8h.75l.85-.15.1-.05 2.9-.8 2-.75 1.25-.6.2-.15.25-.1.8-.45q-.05-.1-.9-.45l-.35-.1-.6-.25L-11 14l-1-.25-1-.2h-.2l-.5-.1-.7-.05-3 .2-.15.05-.05-.05-.3-.05q-.35 0-.7.3" fill="#411100" fill-rule="evenodd" transform="translate(47.05 43.35)"/><path d="m-18.6 13.85-.1.05-.3.7v.2l.3.85.7.4.4.15.2.05q1.7.5 2.9-.35.75-.55 1.15-1.25l.3-.05.2-.1.2-.4-.15-.4-.2-.15 1 .2.15.85v.1q-.05 1.2-1.15 2.4l-2.9.8-.1.05-1.4-.25-.2-.1-1.35-1.4-.35-1.6.15-.6.55-.15" fill="#492a2a" fill-rule="evenodd" transform="translate(47.05 43.35)"/><path d="m-18 16.05-.7-.4-.3-.85v-.2l.3-.7.1-.05 1-.2h.05l.15.05q.2.05.35.2l.3.7v.2q0 .5-.3.85l-.35.25-.2.05-.4.1" fill="#d8cdc6" fill-rule="evenodd" transform="translate(47.05 43.35)"/><path d="m-19.15 14-.15.6.35 1.6 1.35 1.4.2.1 1.4.25-.85.15h-.75q-1.25-.35-2.2-2.8l-.25-.35-.2-.35v-.25l1.1-.35" fill="#a38f70" fill-rule="evenodd" transform="translate(47.05 43.35)"/><path d="M-13.35 14.65q-.4.7-1.15 1.25-1.2.85-2.9.35l-.2-.05-.4-.15.4-.1.2-.05.35-.25q.3-.35.3-.85v-.2l-.3-.7q-.15-.15-.35-.2l-.15-.05.15-.05 3-.2.7.05.5.1-.35.05-.3.15-.15.35.15.4.3.1.2.05" fill="#320000" fill-rule="evenodd" transform="translate(47.05 43.35)"/><path d="M-11.85 14.7v-.1l-.15-.85 1 .25.65.25.6.25.35.1q.85.35.9.45l-.8.45-.25.1-2.3-.9" fill="#9f8b6c" fill-rule="evenodd" transform="translate(47.05 43.35)"/><path d="m-13 13.55.2.15.15.4-.2.4-.2.1-.3.05-.2-.05-.3-.1-.15-.4.15-.35.3-.15.35-.05h.2" fill="#ddd2cc" fill-rule="evenodd" transform="translate(47.05 43.35)"/><path d="M-13 17.1q1.1-1.2 1.15-2.4l2.3.9-.2.15-1.25.6-2 .75" fill="#fffdf9" fill-rule="evenodd" transform="translate(47.05 43.35)"/><path d="m-3.8 6.7 1.55 1.5q.95 1.6-1.3 1.1l-2.7-.6-3.5-.4-1.25-.05h-3.6q-2.3.35-2.5-1.55-.1-1.5.55-2.35l.3-.3q.8-.75 2.3-.85l2.95.25 1.25.3 1.3.35q1.15.4 2.2.95L-3.8 6.7z" fill="none" stroke="#ff9500" stroke-linecap="round" stroke-linejoin="round" transform="translate(47.05 43.35)"/><path d="M-18.95-13.8v.25q0 .75-1.25 2.4l-1.2 2.05-.2.9-.05.75-.45.75-.25.85q0 .6.4 1 .4.35 1.05.35.85 0 1.4-.55l.9-.55.7.05.7.1 1.7-.35.95-.6.2-.6q0-.5-1.15-.45-1.2 0-1.2-.5 0-.8 1.65-1.1l1.9-.15 1.05-.55.85-.5q.75-.5.75-1.1l-.9-.15q-.95-.1-.95-.75l.05-.45.85-.7.5-.25.15-.1q6.9-5.35 13.95-9.75l-.1-.45.55-.15-.3.65v.05l-.9 1.8q-4.85 2.75-8.85 6.65l-.1.15-2.25 3.15-.35.65.75-.45q.4-.05.7-.25h.05Q-5.7-13-4.55-13q.8 0 1.2.5l-.45 1.2q-.8-.5-3.45 1.4-2.25 1.65-5.3 2.95l-1.35.25-.35.5q-.3.6 1.15.85 3.85-2.45 5.55-2.2l.15.35q-2.5.75-5.6 3.15l-.15.1Q-17.95-1-20.8-1.1q-1.25-.45-1.9 1.05l-.15.05q-1.65.5-1.5-1.7-.2-3.3 1.2-5.95l.1-.4q1.7-3.85 3.9-5.75h.2" fill="#e7dac7" fill-rule="evenodd" transform="translate(47.05 43.35)"/><path d="M-19.15-13.8q-2.2 1.9-3.9 5.75l-.1.4q-1.4 2.65-1.2 5.95-.15 2.2 1.5 1.7l.15-.05q.65-1.5 1.9-1.05 2.85.1 7.65-2.85l.15-.1q3.1-2.4 5.6-3.15l.55-.15.5.2-.1.2q-6.95 7.35-15.3 8-2.85.45-3.45-.95l-.1-.4q-.85-8.1 5.2-13.45l.85-.5.1.45m11.6 6.25q-1.7-.25-5.55 2.2-1.45-.25-1.15-.85l.35-.5 1.35-.25q3.05-1.3 5.3-2.95 2.65-1.9 3.45-1.4-1.05 1.9-3.75 3.75m3-5.45q-1.15 0-3.1 1.3h-.05q-.3.2-.7.25l-.4-.2 2.25-3.15.1-.15q4-3.9 8.85-6.65-1.65 2.95-3.7 5.35l-.25.2q-1.5 1.9-3 3.05" fill="#c8b9a4" fill-rule="evenodd" transform="translate(47.05 43.35)"/><path d="m3.05-23.95.1.45q-7.05 4.4-13.95 9.75l-.15.1-.5.25-.85.7-.05.45q0 .65.95.75l.9.15q0 .6-.75 1.1l-.85.5-1.05.55-1.9.15q-1.65.3-1.65 1.1 0 .5 1.2.5 1.15-.05 1.15.45l-.2.6-.95.6-1.7.35-.7-.1-.7-.05-.9.55q-.55.55-1.4.55-.65 0-1.05-.35-.4-.4-.4-1l.25-.85.45-.75.05-.75.2-.9 1.2-2.05q1.25-1.65 1.25-2.4v-.4l.15-.3q.45.3.35 1.85 2.1-3.15 3.8-3.25h.05l.25.05h.05l-.55 1.7.85-1.2q6.25-6.25 17.05-8.85M-16-11q.4-1.65 1.15-2.9-.75 1.25-1.15 2.9m-2.45-1.4-.65 2.7.65-2.7" fill="#fff" fill-rule="evenodd" transform="translate(47.05 43.35)"/><path d="M-7.55-7.55q-1.7-.25-5.55 2.2-1.45-.25-1.15-.85m10.45-5.1.45-1.2q-.4-.5-1.2-.5-1.15 0-3.1 1.3h-.05q-.3.2-.7.25l-.75.45M2.4-21.6l.9-1.8v-.05l.3-.65-.55.15Q-7.75-21.35-14-15.1l-.85 1.2Q-15.6-12.65-16-11M2.4-21.6q-1.65 2.95-3.7 5.35l-.25.2q-1.5 1.9-3 3.05m-14.25-1.25q.45.3.35 1.85 2.1-3.15 3.8-3.25h.05l.25.05h.05l-.55 1.7m8.4 6.95q-6.95 7.35-15.3 8-2.85.45-3.45-.95l-.1-.4q-.85-8.1 5.2-13.45l.85-.5m.3.3v-.35l.15.05m-.3 4.55.65-2.7M-7.4-7.2l.55-.15-.55-.2h-.15q2.7-1.85 3.75-3.75m-3.05 3.95.5.2.1.05-.2.15" fill="none" stroke="#b1a78b" stroke-linecap="round" stroke-linejoin="round" transform="translate(47.05 43.35)"/></g><g id="h"><path d="m-28.2 6.8-.1-.65-.5-5.1.6 5.75-.6-5.75v-3.3l-.05-.2 2.55.15.2.05-.05.55q-.25 2.95 1.35 3.6.95.45 2 2.55l.55.95q.5.95 3.15 2.95l.2.15q2.75 2.7 5.2 5.7-3.6-1.1-7.05-2.95-2.25-1.8-4.7-2.6-2.4-.6-2.75-1.85M-8.05.65Q-6.15-1.5-4.55-4q3.45-4.5 4-6.65l.05-.25.4-2.5q1.8.3 1.55 3.6-.15.8.8 2.3Q3.6-4.95 1.7-3.15L1-2.8q-.8.45-1.75.65l-1.95.25-.1.05Q-5.45.9-8.05.65M4.5-17.75q1.05-1.2 2.95-1.75h.1l.15.55.8-.2.25.4L7.6-17.3q-.85 2.05-.8 4.7-.05 1.9 1.2 3.65.75 1.4-.1 2.55-2.15.75-3.7-1.5-1.8-2.4-.9-4.75l-.05-.25.05-.95q-.05-2.5 1.2-3.9" fill="#fffefe" fill-rule="evenodd" transform="translate(29.65 22.4)"/><path d="M16.7-10.7q.4.7 1.2 1.45 2-.3 4.1-3.4 1.25 1.1 1.4 2.75 2.35-.55 5.75-4.85l-.85 2-1.4 4.4q-.65 2.15-.75 5.1-.15 3-1.7 5.65-1.5 2.6-4.4 2-3 3.6-7.05 6.4l-.25.25-6.1 4.7Q2.6 18.2-.3 21.35q-2 1.75-7.8-1.45-7.95-2.25-15.5-6.5-4.4-2.1-4.3-3.2l-.3-3.4q.35 1.25 2.75 1.85 2.45.8 4.7 2.6 3.45 1.85 7.05 2.95l2.75.7.2.05q4.95 1.2 8.5 1.6l.15.05q6.8-3.9 13.5-9.55Q15.5 4 18.05.6q1.15-1.1.8-2.9.3-1.85-1.25-2.6-.85-.8-1.65-.3-2.25.55-3.55-1.45l-.15-.2q-2.15-3.6-2.55-5.35l-.75-1.6q-1.05-2.05-.2-4.35v-.6l-.25-.4-.8.2-.15-.55.25-.05q1.65-.25 1.55.8v.05q.35 5.15 2.25 7.55l.4.45q0 2.1 1.2 2.65 1.7.3 2.4-1.15.45-1.1 1.1-1.5M-28.8 1.05l-.3-3.15.3-.15v3.3m11.4 5.05q1.95.3 4.05-.6 2.9-2.15 5.3-4.85 2.6.25 5.25-2.5l.1-.05 1.95-.25Q1.15.45 3.35.3l.5-.2L7.9.3q2.75 1.7 0 5.8-.6 2.1-3.1 2.6-.8.6-1.6.25L3.05 9h-.1q-.7 0-.85 1l-.15.1q-4.15 2.9-9.05.1-1.8.1-2.25-.55l-.15-.05q-.9-.8-4-1.4-2.9-1.15-3.9-2.1m37.45-1.7 2.5-3.35-2.5 3.35M23.4-9.9q.05 1.05-.4 2.4.45-1.35.4-2.4" fill="#c7b8a3" fill-rule="evenodd" transform="translate(29.65 22.4)"/><path d="m-18.15 4.8.7.85h.05q.3.2 0 .45 1 .95 3.9 2.1 3.1.6 4 1.4l.15.05q.45.65 2.25.55 4.9 2.8 9.05-.1l.15-.1q.15-1 .85-1h.1l.15-.05q.8.35 1.6-.25 2.5-.5 3.1-2.6Q10.65 2 7.9.3L3.85.1l-.5.2q-2.2.15-4.1-2.45Q.2-2.35 1-2.8l.7-.35q1.9-1.8.55-4.35-.95-1.5-.8-2.3.25-3.3-1.55-3.6l.4-2.55q.45-3.6 2.5-5.95-.05 3.65 1.7 4.15-1.25 1.4-1.2 3.9l-.05.95.05.25q-.9 2.35.9 4.75 1.55 2.25 3.7 1.5.85-1.15.1-2.55-1.25-1.75-1.2-3.65-.05-2.65.8-4.7l1.15-1.45v.6q-.85 2.3.2 4.35l.75 1.6q.4 1.75 2.55 5.35l.05.1.1.1q1.3 2 3.55 1.45.8-.5 1.65.3 1.55.75 1.25 2.6.35 1.8-.8 2.9Q15.5 4 11.4 7.05 4.7 12.7-2.1 16.6l-.15-.05q-3.55-.4-8.5-1.6l-.2-.05-2.75-.7q-2.45-3-5.2-5.7l-.2-.15q-2.65-2-3.15-2.95l-.55-.95q-1.05-2.1-2-2.55-1.6-.65-1.35-3.6.4.95 3.3 2.7 2.5 1.5 4.7 3.8M11.6-11.15l.2-.15q2-2.05 4.7-1.5-.4 1 .2 2.1-.65.4-1.1 1.5-.7 1.45-2.4 1.15Q12-8.6 12-10.7l-.4-.45m.4.45 1.1.9-1.1-.9" fill="#e7dac7" fill-rule="evenodd" transform="translate(29.65 22.4)"/><path d="m-26.15-1.7.2-.5 1 .45q.3.3 1.35.85l.2.1 4.25.65v.05l.15 1.85q.15 2 .85 3.05-2.2-2.3-4.7-3.8-2.9-1.75-3.3-2.7" fill="#c6b7a2" fill-rule="evenodd" transform="translate(29.65 22.4)"/><path d="M16.7-10.7q.4.7 1.2 1.45 2-.3 4.1-3.4 1.25 1.1 1.4 2.75 2.35-.55 5.75-4.85l-.85 2-1.4 4.4q-.65 2.15-.75 5.1-.15 3-1.7 5.65-1.5 2.6-4.4 2-3 3.6-7.05 6.4l-.25.25-6.1 4.7Q2.6 18.2-.3 21.35q-2 1.75-7.8-1.45-7.95-2.25-15.5-6.5-4.4-2.1-4.3-3.2l-.3-3.4-.6-5.75-.3-3.15m9.95 1.95v.05l.15 1.85q.15 2 .85 3.05l.7.85h.05q.3.2 0 .45 1.95.3 4.05-.6 2.9-2.15 5.3-4.85Q-6.15-1.5-4.55-4q3.45-4.5 4-6.65l.05-.25.4-2.5.4-2.55q.45-3.6 2.5-5.95-.05 3.65 1.7 4.15 1.05-1.2 2.95-1.75h.1l.25-.05q1.65-.25 1.55.8v.05q.35 5.15 2.25 7.55l.4.45 1.1.9m-1.3-1.5q2-2.05 4.7-1.5-.4 1 .2 2.1M3.3-12.65l-.05-.25.05-.95q-.05-2.5 1.2-3.9M23-7.5q.45-1.35.4-2.4m-.85 10.95-2.5 3.35m-29.4 5.25-.15-.05q-.9-.8-4-1.4-2.9-1.15-3.9-2.1" fill="none" stroke="#b1a78b" stroke-linecap="round" stroke-linejoin="round" transform="translate(29.65 22.4)"/><path d="m-18.9-14.9.3-.15q2.65-.95 5.25 2.15l.35 1.05q.25 1.5-1 2.65-1.15.9-2.2-.25-.55-2-2.2-3.65l-.4-.45q-.45-.7-.1-1.35M-5.1-3.15l1.4-.05 1.25-.15q1.15-.05 2 1.15Q1.9.4 5.05.65q.9 1-.8 1.2l-1.35-.1-1.6-.6L-.2.05-.45-.2q-1.1-1.7-3.1-1.95l-2-.35q-.95-.3.45-.65m-9.7 4.25q1.05.2.9 2.95l-.4 1.65q-.7 1.4-2.2 0l-.6-.8q-.85-1.4-.4-2.4l.05-.15q.95-1.7 2.55-1.1l.1-.15m-.3.35.2-.2-.2.2m16.5 5.5-.6.3-2.9.25-.2-.1Q-5 7.35-7 4.25l-.2-.4q-.6-2 .2-3.65l.15-.3q.8-1.1 2.1-.4Q-3.05 1.2-.8.7q1.2 0 2.05.45l1.2.95.25.35q.85 2.4-1.3 4.5" fill="#e9bd69" fill-rule="evenodd" transform="translate(29.65 22.4)"/><path d="M5.05.65 6.1.7l.1.05q.85.5.7 2.75-.4 2.35-1.6 3.2-2.7 1.7-4.4.8-1.45 1.35-3.5 1.75L-5.95 9h-.1L-7 8.7q-1.05-.6-1.9-2.4l-1.8-.2q-1.05-.35-1.85-1.4-.5 1.85-2.8 2.25-1.45.15-3.1-1.6-1.15-2.45-1.4-8.55 1.85-2.5 1-7.6l-.95-2.05v-.1l-.05-.05q-.25-1.25.95-1.9-.35.65.1 1.35l.4.45q1.65 1.65 2.2 3.65 1.05 1.15 2.2.25 1.25-1.15 1-2.65l-.35-1.05.7 1q1.25 2.7.05 8l-.05.15-.7 2.4.15.05.85.3 1.65-.9 2.8-1.2.9-.25.5.05 1.4.15q-1.4.35-.45.65l2 .35q2 .25 3.1 1.95l.25.25 1.5 1.1 1.6.6 1.35.1q1.7-.2.8-1.2m-19.95.6q-1.6-.6-2.55 1.1l-.05.15q-.45 1 .4 2.4l.6.8q1.5 1.4 2.2 0l.4-1.65q.15-2.75-.9-2.95l-.1.15m1.55-2.6-.55 1.1-.9 1.35.9-1.35.55-1.1M1.4 6.95q2.15-2.1 1.3-4.5l-.25-.35-1.2-.95Q.4.7-.8.7q-2.25.5-3.95-1.2-1.3-.7-2.1.4L-7 .2q-.8 1.65-.2 3.65l.2.4q2 3.1 4.7 3.15l.2.1 2.9-.25.1.25.5-.55M-8.9 6.3l-.95-2.55.95 2.55m-3.65-1.6-.1-.15q-.15-2.5-1.25-4.8 1.1 2.3 1.25 4.8l.1.15m7.8-5.2-.4-.45-.8-.75L-7-1.75l-1.1.4q-1.25.6-2.6.6L-12.35-1l1.65.25q1.35 0 2.6-.6l1.1-.4 1.05.05.8.75.4.45" fill="#b4862c" fill-rule="evenodd" transform="translate(29.65 22.4)"/><path d="M5.05.65 6.1.7l.1.05q.85.5.7 2.75-.4 2.35-1.6 3.2-2.7 1.7-4.4.8-1.45 1.35-3.5 1.75L-5.95 9h-.1L-7 8.7q-1.05-.6-1.9-2.4l-1.8-.2q-1.05-.35-1.85-1.4l-.1-.15q-.15-2.5-1.25-4.8l.55-1.1.7-2.4.05-.15q1.2-5.3-.05-8l-.7-1q-2.6-3.1-5.25-2.15l-.3.15q-1.2.65-.95 1.9l.05.05v.1-.1m-.05 9.75q1.85-2.5 1-7.6l-.95-2.05m6.6 11.55.85.3 1.65-.9 2.8-1.2.9-.25.5.05 1.4.15 1.4-.05 1.25-.15q1.15-.05 2 1.15Q1.9.4 5.05.65m-19.95.6.1-.15.9-1.35m-1 1.5-.2.2m16.5 5.5q2.15-2.1 1.3-4.5l-.25-.35-1.2-.95Q.4.7-.8.7q-2.25.5-3.95-1.2l-.4-.45-.8-.75L-7-1.75l-1.1.4q-1.25.6-2.6.6L-12.35-1M.9 7.5l.5-.55m-11.25-3.2.95 2.55" fill="none" stroke="#6f2b17" stroke-linecap="round" stroke-linejoin="round" transform="translate(29.65 22.4)"/><path d="m-11.7-9.65.25-.5q3.85-2.3 1.8.8-2.65 4.55-7.05 8l-.15.15q-2.15 2-6.95 1l-1.85-.65q-.85-.95-.6-1.75 2.25.8 3.7.75 1.55 0 5.2-2.2Q-14.6-5.8-13-7.5q.45-.5 1.3-2.15" fill="#c7b8a3" fill-rule="evenodd" transform="translate(29.65 22.4)"/><path d="m-12-9.8.3.15Q-12.55-8-13-7.5q-1.95.35-4.35 2.05l-.15.05q-2.45 1.85-7.25 1.8-1.15-.05-1.5 1-.25.8.6 1.75l-3.45-.95q-.35-4.45 2.45-4.45 7.8-.6 12.3-2.35L-12-9.8" fill="#fffefe" fill-rule="evenodd" transform="translate(29.65 22.4)"/><path d="M-13-7.5q-1.6 1.7-4.35 3.45-3.65 2.2-5.2 2.2-1.45.05-3.7-.75.35-1.05 1.5-1 4.8.05 7.25-1.8l.15-.05q2.4-1.7 4.35-2.05" fill="#e7dac7" fill-rule="evenodd" transform="translate(29.65 22.4)"/><path d="m-11.45-10.15-.05.05-.3.2-.2.1-2.35 1.2q-4.5 1.75-12.3 2.35-2.8 0-2.45 4.45m5.3 1.6q4.8 1 6.95-1l.15-.15q4.4-3.45 7.05-8 2.05-3.1-1.8-.8m-2.9 1.55 2.55-1.3" fill="none" stroke="#b1a78b" stroke-linecap="round" stroke-linejoin="round" transform="translate(29.65 22.4)"/></g><g id="i"><path d="M17.85-17.75q-2 .9-3.1-.35l-.5-.8v-.85l.4-1.1.3 1.1.65 1.15.65.5q.65.35 1.6.35" fill="#357e0c" fill-rule="evenodd" transform="translate(37.7 27.35)"/><path d="M20.9-.85q-3.4-.65-5.65-3.6l-.8-2.1-.1-.8-.85.35-.85-.05-.65-.1-1.6-.45-1.95-.45-.5-.1-2 .25Q4.8-7.7 4-7.3 2.45-7.95.85-7.85l-1.45.2-.7.15-.25.1-.45-.55q.8-.8.7-2.75l-.1-.3.95.8 1.95.25 4.15.15 2.8-.3q1.3-.3 2.4-.9l1.15-.8q1.05-1.05 1.05-2.4l-.3-1.45.9.3 1.95.15.8-.2q2.6-.65 3.45-2.7l.15-.5-.15.5q-.85 2.05-3.45 2.7l-.8.2-1.95-.15-.9-.3q-.45-.2-.85-.55-.75-.7-1.1-1.9l-.15-.55.05-1.1q.35-3.45 2.95-5 1.95-1.2 5.25-1.3l5.3.65q-2.4 2.95-2.1 5.55v.1q-.35 2.7 2.05 4.4l.6.35q1.35.9 1.6 2.5.35 1.85-1.6 4.2-1.15 2.25 0 2.95l1.65.25-1.65.65q-1.7.5-3.3 0-1.8-.6-3.4-2.55l-.6-1.7q.3 5.8 3.45 7.85M-37 18.05l-.05-.2q-.85-5.9 3.75-8.45l.95-.5q2.4-1.2 5.15-1.15l2.55.2q1.35.6 1.45-.5V7.2l.7-2.3q.1 1.4.7 2.55l.6.95.45.5.15.2 1.65 1.2 1.15.1q1.4-.8.45-1.65-.7-.45-1.2-1.3l-.4-.95-.1-.4q-.25-.65.1-1.25.55-.95 2.5-1.65l2.6-1.75 2.65-2.4q.85-.55 1.3-1.7.5-1.25.5-3.2v-.45l1.15.75 2.1.95q.65 2.15 1.85 3.55l-2.05.25-2.7 1.1-1.8 1.15q-2.6 2.1-4.9 6l-.7 1.3q-.8 2.2 0 4.35l.25 2.2-.2 1.85-.7 1.85q-.65 1.35-1.85 2.5l-.45.45q-4.55 3.15-11 1.85l-1.95-.75q-3.1-1.6-4.65-5m3.35-3.95-.45 2q-.15.75.25 1.5.55 1.2 1.5 1.95.7.5 1.6.8l2.05.35h.25l2.85-.1h.15q3.45-.3 4.7-3.45l.15-.45v-1.6q-.1-1.1-.6-2-.65-1.05-1.85-1.75l-.05-.05q-.45-.25-.85-.45-1.6-.75-3.25-.65-1.9.05-4 1.1l-1.15.85q-.85.8-1.3 1.95M20-18.6l.2-1.15v-.4q-1.45-2.8-3.6-2.3l-1.15.75-.8.85-.4 1.1v.85l.5.8q1.1 1.25 3.1.35.7 0 1.3-.3l.25-.05.6-.5m2.25 3.1-.8-.3-2.75.05q-5.25 1.95-4.35 8.4-.9-6.45 4.35-8.4l2.75-.05.8.3-.8.2-.35.1q-.75.15-1.1.45l-1.3 1.3q-.55.65-.55 1.3l.1.75v.15h.1l.85 1.6q.95 1 2.25.9 1.15-.15 2.6-1.2l.7-1.45.1-.5.05-.3-.15-.8-.7-1.3-.85-.7-.75-.4-.2-.1m-4.8 6.8q-.15-2 .8-2.7-.95.7-.8 2.7" fill="#3c8a10" fill-rule="evenodd" transform="translate(37.7 27.35)"/><path d="m-22.5 4.9 1.1-2.55.2.3.6.35q.65.15 1.65-.4l.45-.25q.7-.4.9-.9.3-.65-.4-1.55-.2-.4 1.1-1.35l1.95-1.2 1.75-.15.45.15q.75.25 1.4 0 .7-.25 1.25-1.2.6-1 .7-2 0 1.95-.5 3.2-.45 1.15-1.3 1.7l-2.65 2.4-2.6 1.75q-1.95.7-2.5 1.65-.35.6-.1 1.25l.1.4.4.95q.5.85 1.2 1.3.95.85-.45 1.65l-1.15-.1-1.65-1.2-.15-.2-.45-.5-.6-.95q-.6-1.15-.7-2.55m20-18.9.6-.4 1.3-.7.3.35.1.35-.1.85q0 1.15 1.25 1.75.95.5 2.05.5l1.75-.85q1.6-.9 2.8-.85l.9-.05.4-.05q.65-.15 1.2-.55l.8-.75.2-.35.85-1.45q.4.35.85.55l.3 1.45q0 1.35-1.05 2.4l-1.15.8q-1.1.6-2.4.9l-2.8.3-4.15-.15-1.95-.25-.95-.8q-.4-1.8-1.1-3m26.7-11.4.65.05 1.1.1q-1.65 2.75-.05 4.05 1.75 1.45 2.9 1.5 1.9 0 1.75 3.55-.3 4.7-1.75 9.45-.8.65-1.9 1.15l-.5.45-1.65-.25q-1.15-.7 0-2.95 1.95-2.35 1.6-4.2-.25-1.6-1.6-2.5l-.6-.35q-2.4-1.7-2.05-4.4v-.1q-.3-2.6 2.1-5.55m-1.95 9.9.2.1.75.4h-.85l-.9.2-.45.35q-.55.5-.55 1.45t.85 1.75l.15.15q.75.6 1.8.6.6 0 1-.45l.5-.8.1-.15-.1.5-.7 1.45q-1.45 1.05-2.6 1.2-1.3.1-2.25-.9l-.85-1.6-.1-.15-.1-.75q0-.65.55-1.3l1.3-1.3q.35-.3 1.1-.45l.35-.1.8-.2m-7.6-5.35.8-.85q.4 1.4 1.7 1.95.8.35 2 .35l.55-.05q.25-.05.3.85l-.6.5-.25.05q-.6.3-1.3.3-.95 0-1.6-.35l-.65-.5-.65-1.15-.3-1.1" fill="#64d223" fill-rule="evenodd" transform="translate(37.7 27.35)"/><path d="m-21.4 2.35.2-.45.2-.45.4-.7 1.65-2.35 1.05-1.05 1.15-.95q3.55-2.55 6.6-3.45l.75.75v.45q-.1 1-.7 2-.55.95-1.25 1.2-.65.25-1.4 0l-.45-.15-1.75.15-1.95 1.2Q-18.2-.5-18-.1q.7.9.4 1.55-.2.5-.9.9l-.45.25q-1 .55-1.65.4l-.6-.35-.2-.3M-.6-15.1l1.45-.45 5.55.15 2.05.35q2.2.05 3.45-1.15l-.85 1.45-.2.35-.8.75q-.55.4-1.2.55l-.4.05-.9.05q-1.2-.05-2.8.85L3-11.3q-1.1 0-2.05-.5-1.25-.6-1.25-1.75l.1-.85-.1-.35-.3-.35m26.55-10.15q2.6.35 3.25-.8l.65-.45q3.45.4 3.35 9.75-.3 6.7-4.4 10.05 1.45-4.75 1.75-9.45.15-3.55-1.75-3.55-1.15-.05-2.9-1.5-1.6-1.3.05-4.05m-10.5 3.55 1.15-.75q2.15-.5 3.6 2.3v.4L20-18.6q-.05-.9-.3-.85l-.55.05q-1.2 0-2-.35-1.3-.55-1.7-1.95M23.2-15l.85.7.7 1.3.15.8-.05.3-.1.15-.5.8q-.4.45-1 .45-1.05 0-1.8-.6l-.15-.15q-.85-.8-.85-1.75t.55-1.45l.45-.35.9-.2h.85" fill="#d1ff81" fill-rule="evenodd" transform="translate(37.7 27.35)"/><path d="M29.85-26.5q1.7-.85 4.1.45 3.15 1.95 3.1 7.3.75 6.95-1.35 10.65-2.95 5.7-8.25 7l-2.7.4q-1.8.15-3.3-.05l-.55-.1Q17.75-2.9 17.45-8.7l.6 1.7q1.6 1.95 3.4 2.55 1.6.5 3.3 0l1.65-.65.5-.45q1.1-.5 1.9-1.15 4.1-3.35 4.4-10.05.1-9.35-3.35-9.75M15.25-4.45 12-4.7l-.35-.1-3.2-.4-1.3.3L5.6-6.45 4-7.3q.8-.4 1.95-.6l2-.25.5.1 1.95.45 1.6.45.65.1.85.05.85-.35.1.8.8 2.1m-19.3 5.8-.3.1-2 1.15Q-8.8 4.05-10 5.6l-1.4 1.85-1.2 1.6q-.95 1.25-2.25 1.95-.95 1.05-.55 3.6v.7l-.15 1.85L-16 19l-.6 1.75-.05.2q-.45 1.3-1.4 2.4-1.75 2-5.15 3.15-4.9 1.15-8.95-.9l-.2-.15q-3.75-2.7-4.65-7.4 1.55 3.4 4.65 5l1.95.75q6.45 1.3 11-1.85l.45-.45q1.2-1.15 1.85-2.5l.7-1.85.2-1.85-.25-2.2q-.8-2.15 0-4.35l.7-1.3q2.3-3.9 4.9-6L-9.05.3l2.7-1.1 2.05-.25.15.15q-.2 1.45.1 2.25" fill="#297100" fill-rule="evenodd" transform="translate(37.7 27.35)"/><path d="M7.15-4.9q1.2 1.6 1.3 3.6v.8l-.1.95-.45 1Q6.1 4.65.95 4.25q-2.75-.5-4-1.55L-4 1.45l-.05-.1q-.3-.8-.1-2.25l1.1.95q1.4 1 3.25 1.3h.65l1.85-.1Q6.15.7 6.55-1.7q.5-3.25-2.9-4.75-1.55-.75-2.8-1l-1.45-.2 1.45-.2q1.6-.1 3.15.55l1.6.85L7.15-4.9" fill="#ffad00" fill-rule="evenodd" transform="translate(37.7 27.35)"/><path d="M-11.55-10.7q-.25-2.25.7-3.7l1.5-1.45q2.85-1.55 5.65.5l.65.6.25.35.3.4q.7 1.2 1.1 3l.1.3q.1 1.95-.7 2.75l-1.05.55h-.25l-.2.05h-.7q-.95-.2-1.15-1.9-.15-1.75.9-2.05h.95q.1-.7-.45-1.9l-1.15-1.2q-1.35-.85-3.15-.45l-1.25.45q-1.1.65-1.65 2.1l-.4 1.6m10 3.3.25-.1.7-.15 1.45.2q1.25.25 2.8 1 3.4 1.5 2.9 4.75Q6.15.7 2.7 1.25q-.9-.2-1.2-.5-.25-.25.05-.6Q3.3-.1 4.25-1.1 5.6-2.75 4.2-4.7q-1.65-1.1-2.75-.95L0-5.15l.55.5q.3.8.2 1.3l-.1.3q-.3.55-1.35.5-1.8-.45-2.25-1.6l-.1-.65v-.5q0-1.45 1.5-2.1M-3.3-9.35l.25-.35q.5-.9 0-1.35l-.45-.25.45.25q.5.45 0 1.35l-.25.35m1.55 4.1 1.05-.2.7.3-.7-.3-1.05.2" fill="#fff6ab" fill-rule="evenodd" transform="translate(37.7 27.35)"/><path d="m-2-7.95.45.55q-1.5.65-1.5 2.1v.5l.1.65-.1.65q.4 1.4 1.8 2.1l2.1.65q1.5.15 2.5-.6 1.3-1 .6-2.35-.85-1-2.5-.95.2.55-.7 1.3.1-.5-.2-1.3L0-5.15l1.45-.5q1.1-.15 2.75.95 1.4 1.95.05 3.6-.95 1-2.7 1.25-.3.35-.05.6Q-.15 1-2.1 0l-.95-.85q-1.65-1.6-2.15-3.7-.25-1.1-1.75-1.6-3.05-1.35-3.4-4.15-.2-1.95-.8-2 .55-1.45 1.65-2.1l1.25-.45q1.8-.4 3.15.45l1.15 1.2q.55 1.2.45 1.9h-.95q.3-2.45-2.75-1.9-1.6.7-1.3 2.9l.1.25q.4 1.35 1.85 2.4l2.35.3h.7l.2-.05h.25L-2-7.95" fill="#ffed52" fill-rule="evenodd" transform="translate(37.7 27.35)"/><path d="m-23.1 11.3.05.05q1.2.7 1.85 1.75.5.9.6 2v1.6l-.15.45q-1.25 3.15-4.7 3.45h-.15l-2.85.1h-.25l-2.05-.35-.65-1.5q-.35-.55-.35-1.4 0-.35.75-1.1l1-1.3.7-1.25q.35-.45 1.2-.75l.9-.35 1.55-.7q1.6-.7 2.55-.7M.75-3.35q.9-.75.7-1.3 1.65-.05 2.5.95.7 1.35-.6 2.35-1 .75-2.5.6l-2.1-.65q-1.4-.7-1.8-2.1l.1-.65Q-2.5-3-.7-2.55q1.05.05 1.35-.5l.1-.3m-4.95-4-2.35-.3Q-8-8.7-8.4-10.05l-.1-.25q-.3-2.2 1.3-2.9 3.05-.55 2.75 1.9-1.05.3-.9 2.05.2 1.7 1.15 1.9" fill="#ffc500" fill-rule="evenodd" transform="translate(37.7 27.35)"/><path d="M-10.15-7.05q-1.15-1.4-1.4-3.6v-.05l.4-1.6q.6.05.8 2 .35 2.8 3.4 4.15 1.5.5 1.75 1.6.5 2.1 2.15 3.7l.95.85q1.95 1 3.6.75.3.3 1.2.5l-1.85.1H.2q-1.85-.3-3.25-1.3l-1.1-.95-.15-.15q-1.2-1.4-1.85-3.55l-2.1-.95-1.15-.75-.75-.75" fill="#fec500" fill-rule="evenodd" transform="translate(37.7 27.35)"/><path d="M-33.65 14.1q.45-1.15 1.3-1.95l1.15-.85q2.1-1.05 4-1.1 1.65-.1 3.25.65l-3.25.75-.85.4-2.3 1.5v.15l-.2.95q-.35.65-1.1.65l-.7-.15-.6-.3-.7-.7" fill="#fff7b3" fill-rule="evenodd" transform="translate(37.7 27.35)"/><path d="M-30.75 20.35q-.9-.3-1.6-.8-.95-.75-1.5-1.95-.4-.75-.25-1.5l.45-2 .7.7.6.3.7.15q.75 0 1.1-.65l.2-.95v-.15l2.3-1.5.85-.4 3.25-.75q.4.2.85.45-.95 0-2.55.7l-1.55.7-.9.35q-.85.3-1.2.75l-.7 1.25-1 1.3q-.75.75-.75 1.1 0 .85.35 1.4l.65 1.5" fill="#f9e750" fill-rule="evenodd" transform="translate(37.7 27.35)"/><path d="M-4.2-7.35h.7m4.25 4-.1.3" fill="none" stroke="#995625" stroke-linecap="round" stroke-linejoin="round" transform="translate(37.7 27.35)"/><path d="M29.85-26.5q1.7-.85 4.1.45 3.15 1.95 3.1 7.3.75 6.95-1.35 10.65-2.95 5.7-8.25 7l-2.7.4q-1.8.15-3.3-.05l-.55-.1q-3.4-.65-5.65-3.6L12-4.7l-.35-.1-3.2-.4-1.3.3m-11.2 6.25-.3.1-2 1.15Q-8.8 4.05-10 5.6l-1.4 1.85-1.2 1.6q-.95 1.25-2.25 1.95-.95 1.05-.55 3.6v.7l-.15 1.85L-16 19l-.6 1.75m-.05.2q-.45 1.3-1.4 2.4-1.75 2-5.15 3.15-4.9 1.15-8.95-.9l-.2-.15q-3.75-2.7-4.65-7.4l-.05-.2q-.85-5.9 3.75-8.45l.95-.5q2.4-1.2 5.15-1.15l2.55.2q1.35.6 1.45-.5V7.2l.7-2.3 1.1-2.55.2-.45.2-.45.4-.7 1.65-2.35 1.05-1.05 1.15-.95q3.55-2.55 6.6-3.45M-2.5-14l.6-.4 1.3-.7 1.45-.45 5.55.15 2.05.35q2.2.05 3.45-1.15-.75-.7-1.1-1.9l-.15-.55.05-1.1q.35-3.45 2.95-5 1.95-1.2 5.25-1.3l5.3.65.65.05 1.1.1q2.6.35 3.25-.8l.65-.45q3.45.4 3.35 9.75-.3 6.7-4.4 10.05-.8.65-1.9 1.15l-.5.45-1.65.65q-1.7.5-3.3 0-1.8-.6-3.4-2.55l-.6-1.7q-.15-2 .8-2.7l.1.15.85 1.6q.95 1 2.25.9 1.15-.15 2.6-1.2l.7-1.45.1-.5.05-.3-.15-.8-.7-1.3-.85-.7-.75-.4-.2-.1-.8-.3-2.75.05q-5.25 1.95-4.35 8.4l.1.8.8 2.1M-4.3-1.05l-2.05.25-2.7 1.1-1.8 1.15q-2.6 2.1-4.9 6l-.7 1.3q-.8 2.2 0 4.35l.25 2.2-.2 1.85-.7 1.85q-.65 1.35-1.85 2.5l-.45.45q-4.55 3.15-11 1.85l-1.95-.75q-3.1-1.6-4.65-5M15.45-21.7l1.15-.75q2.15-.5 3.6 2.3v.4L20-18.6l-.15.5q-.85 2.05-3.45 2.7l-.8.2-1.95-.15-.9-.3q-.45-.2-.85-.55M4-7.3q.8-.4 1.95-.6l2-.25.5.1 1.95.45 1.6.45.65.1.85.05.85-.35m.3-13.5.8-.85m2.4 3.95q-2 .9-3.1-.35l-.5-.8v-.85l.4-1.1" fill="none" stroke="#1d5500" stroke-linecap="round" stroke-linejoin="round" transform="translate(37.7 27.35)"/><path d="M7.15-4.9q1.2 1.6 1.3 3.6v.8l-.1.95-.45 1Q6.1 4.65.95 4.25q-2.75-.5-4-1.55L-4 1.45l-.05-.1m-6.1-8.4q-1.15-1.4-1.4-3.6m0-.05q-.25-2.25.7-3.7l1.5-1.45q2.85-1.55 5.65.5l.65.6.25.35.3.4q.7 1.2 1.1 3l.1.3q.1 1.95-.7 2.75l.45.55.25-.1.7-.15 1.45-.2q1.6-.1 3.15.55l1.6.85L7.15-4.9M-9.4-6.3l-.75-.75m6.65-4.25.45.25q.5.45 0 1.35l-.25.35M0-5.15l.55.5q.3.8.2 1.3m-3.7-.8-.1-.65v-.5q0-1.45 1.5-2.1m-2.9-3.9h.95m-.95 0q-1.05.3-.9 2.05.2 1.7 1.15 1.9m.7 0 .2-.05h.25L-2-7.95m2.65 4.9q-.3.55-1.35.5-1.8-.45-2.25-1.6m5.65 5.4Q6.15.7 6.55-1.7q.5-3.25-2.9-4.75-1.55-.75-2.8-1l-1.45-.2m.6 2.5-.7-.3-1.05.2m4.45 6.5-1.85.1H.2q-1.85-.3-3.25-1.3l-1.1-.95" fill="none" stroke="#ff9500" stroke-linecap="round" stroke-linejoin="round" transform="translate(37.7 27.35)"/><path d="M-30.75 20.35q-.9-.3-1.6-.8-.95-.75-1.5-1.95-.4-.75-.25-1.5l.45-2q.45-1.15 1.3-1.95l1.15-.85q2.1-1.05 4-1.1 1.65-.1 3.25.65.4.2.85.45l.05.05q1.2.7 1.85 1.75.5.9.6 2v1.6l-.15.45q-1.25 3.15-4.7 3.45h-.15l-2.85.1h-.25l-2.05-.35z" fill="none" stroke="#f89200" stroke-linecap="round" stroke-linejoin="round" transform="translate(37.7 27.35)"/></g><g id="j"><path d="m-14.75-27 5.5-1.75.45-.1 5-1.65q3.7-1.1 7.45-1.8 1.65-.15 2.55.55l.8 1.2v.05q.1 2.25-2.4 4.35-5.7 3.65-11 9.25l-1.2 1.25q-5.1 4.55-5.15 9.15.05 4.25 2.6 5.6Q-6.2 3-5.4 7.65l1.1 9.5q-.6 3.15 1.75 6.3Q-.4 26.35 1 25.8q3.2-.45 5.95 1.85 1.5 1.35 1 2.7L7 31.55l-1.9-.7Q-1.65 27.3-7.6 20.3q-1.9-1.85-3.4-4.15l-1.4-2.55q-3.75-8.9-4.2-15.8-.1-2.3.15-4.4 2.2-8.85 3.1-18.05.7-2.55-1.4-2.35" fill="#ffac6f" fill-rule="evenodd" transform="translate(25.75 33.5)"/><path d="M7.95 30.35q.5-1.35-1-2.7Q4.2 25.35 1 25.8q-1.4.55-3.55-2.35-2.35-3.15-1.75-6.3l-1.1-9.5Q-6.2 3-10.15-.9q-2.55-1.35-2.6-5.6.05-4.6 5.15-9.15l1.2-1.25q5.3-5.6 11-9.25 2.5-2.1 2.4-4.35v-.05l-.8-1.2q2.55-.5 3.9 1.25l.65 1.05q.85 2.2-.6 4.75l-6.5 9.45q-2.75 4.3 0 4.25Q5-11.35 7.8-13.9q3.75-2.9 4.75-.65.85 2.6-2.5 8.7l-.2.4Q8.15-2.5 6.75.75L3.55 8.7q4.15-1.55 6.3-3.85 3-2.1 4.3-1.35.8.8.25 6.7l.05 4.65q-.05 3.6-3.55 11.65-.9 1.9-2.95 3.85" fill="#d26d23" fill-rule="evenodd" transform="translate(25.75 33.5)"/><path d="M3.65-32.3 7.9-33q3.85-.25 6.4 2.4l4.95 5.25Q20-23 19.4-16.9l-.05.85-1 9.55Q19.85 1.55 22.5 9q2.95 6.9 2 11.45-2.55 3.8-8.45 7.3L8.5 32.4q-.45-.45-1.5-.85l.95-1.2Q10 28.4 10.9 26.5q3.5-8.05 3.55-11.65l-.05-4.65q.55-5.9-.25-6.7-1.3-.75-4.3 1.35-2.15 2.3-6.3 3.85L6.75.75q1.4-3.25 3.1-6.2l.2-.4q3.35-6.1 2.5-8.7-1-2.25-4.75.65Q5-11.35 3.65-11q-2.75.05 0-4.25l6.5-9.45q1.45-2.55.6-4.75l-.65-1.05q-1.35-1.75-3.9-1.25-.9-.7-2.55-.55m13 42 1.7-16.2-1.7 16.2" fill="#ad591b" fill-rule="evenodd" transform="translate(25.75 33.5)"/><path d="m8.5 32.4.3.6q-7.55-.25-15.65-3.3l-.65-.15 1.1-.35.9-.35 2.45-.25-5.6-7.65-2.35-4.8q1.5 2.3 3.4 4.15 5.95 7 12.7 10.55l1.9.7q1.05.4 1.5.85m-29.35-56.5.25-.4q2.75-1.35 5.85-2.5 2.1-.2 1.4 2.35-.9 9.2-3.1 18.05-.25 2.1-.15 4.4-1.15-2.45-.95-5.2l.1-.85v-.25l.15-1 1.25-8.3q.8-4.55-.1-5.5-.7-.8-1.55-.5-.25.45-1.65.4-.45-.4-1.1.15l-.4-.85" fill="#700" fill-rule="evenodd" transform="translate(25.75 33.5)"/><path d="M-7.5 29.55q-2.65-.75-5-4.45-5.2-6.8-7.3-13.35l-.15-.35-2.5-9.3q-1.7-6.1-2.2-11.9l-.1-1.4q0-6.6 3.9-12.9l.4.85q.55 1.7.3 5.6l-.05.25-.1.7q-.8 6.8-.05 15.8v.2l-.15 7.3.8-.2.15 1.55q.55 1 .8.5 1.15 1.15 3.15 6.3l.15.35q3.2 8.05 9.05 14.1l-1.1.35" fill="#cd0000" fill-rule="evenodd" transform="translate(25.75 33.5)"/><path d="M-16.6-2.2q.45 6.9 4.2 15.8l1.4 2.55 2.35 4.8 5.6 7.65-2.45.25q-1.85-3.8-4.05-7.3l-3.8-5.35q-3.9-7-4.45-13.7l-.7 5.15-.25.8q-.25.5-.8-.5l-.15-1.55q-.35-3.5.15-7.4-.05-4.65 1.05-9.3.95-5.2 0-10.8-.35-1.8-.85-2.3 1.4.05 1.65-.4.85-.3 1.55.5.9.95.1 5.5l-1.25 8.3-.15 1v.25l-.1.85q-.2 2.75.95 5.2" fill="#931010" fill-rule="evenodd" transform="translate(25.75 33.5)"/><path d="M-19.35-23.4q.5.5.85 2.3.95 5.6 0 10.8-1.1 4.65-1.05 9.3-.5 3.9-.15 7.4l-.8.2.15-7.3v-.2q-.75-9 .05-15.8l.1-.7.05-.25q.25-3.9-.3-5.6.65-.55 1.1-.15m.6 31.85.25-.8.7-5.15q.55 6.7 4.45 13.7l3.8 5.35q2.2 3.5 4.05 7.3l-.9.35q-5.85-6.05-9.05-14.1l-.15-.35q-2-5.15-3.15-6.3" fill="#b62424" fill-rule="evenodd" transform="translate(25.75 33.5)"/><path d="m41.8 61.25-7.55 4.65" fill="none" stroke="#9a4609" stroke-linecap="round" stroke-linejoin="round" stroke-width="2"/><path d="M34.55 66.5Q27 66.25 18.9 63.2l-.65-.15q-2.65-.75-5-4.45-5.2-6.8-7.3-13.35m-.15-.35-2.5-9.3q-1.7-6.1-2.2-11.9L1 22.3q0-6.6 3.9-12.9m.25-.4Q7.9 7.65 11 6.5" fill="none" stroke="#620100" stroke-linecap="round" stroke-linejoin="round" stroke-width="2"/><path d="m8.5 32.4.3.6m-28.6-21.25-.15-.35m-.9-35.5.25-.4m5.85-2.5q2.1-.2 1.4 2.35-.9 9.2-3.1 18.05-.25 2.1-.15 4.4.45 6.9 4.2 15.8l1.4 2.55q1.5 2.3 3.4 4.15 5.95 7 12.7 10.55l1.9.7q1.05.4 1.5.85" fill="none" stroke="#620100" stroke-linecap="round" stroke-linejoin="round" transform="translate(25.75 33.5)"/><path d="m-14.75-27 5.5-1.75.45-.1 5-1.65q3.7-1.1 7.45-1.8L7.9-33q3.85-.25 6.4 2.4l4.95 5.25Q20-23 19.4-16.9l-.05.85-1 9.55Q19.85 1.55 22.5 9q2.95 6.9 2 11.45-2.55 3.8-8.45 7.3m2.3-34.25-1.7 16.2" fill="none" stroke="#9a4609" stroke-linecap="round" stroke-linejoin="round" transform="translate(25.75 33.5)"/></g><path d="M15.9 22.9Q0 19.05 0 13.45t15.9-9.6Q31.85 0 54.3 0q22.5 0 38.4 3.85 15.9 4 15.9 9.6T92.7 22.9q-15.9 4-38.4 4-22.45 0-38.4-4" fill-opacity=".353" fill-rule="evenodd" id="b"/></defs></svg>