<svg xmlns:ffdec="https://www.free-decompiler.com/flash" xmlns:xlink="http://www.w3.org/1999/xlink" ffdec:objectType="frame" height="90" width="90" xmlns="http://www.w3.org/2000/svg"><use ffdec:characterId="35" height="152.05" transform="matrix(.55 0 0 .55 -2.558 .66)" width="184.9" xlink:href="#a"/><defs><g id="a" transform="translate(4.65 -1.2)"><use ffdec:characterId="1" height="9.8" transform="matrix(1.3152 0 0 2.4779 43.652 121.708)" width="55.5" xlink:href="#b"/><use ffdec:characterId="6" height="157.15" transform="matrix(.673 0 0 .673 35 3.03)" width="155.4" xlink:href="#c"/><use ffdec:characterId="8" height="24.8" transform="matrix(.673 0 0 .673 80.3 114.6)" width="24.55" xlink:href="#d"/><use ffdec:characterId="10" height="39.95" transform="matrix(.673 0 0 .673 46.55 109.8)" width="22.25" xlink:href="#e"/><use ffdec:characterId="12" height="49" transform="matrix(.673 0 0 .673 47.35 94.55)" width="77.9" xlink:href="#f"/><use ffdec:characterId="17" height="247.55" transform="matrix(.2678 .0658 -.0658 .2678 104.715 53.502)" width="273.3" xlink:href="#g"/><use ffdec:characterId="22" height="57" transform="matrix(.673 0 0 .673 20.544 114.878)" width="177.2" xlink:href="#h"/><use ffdec:characterId="24" height="32.8" transform="matrix(.673 0 0 .673 86.95 110.2)" width="36.9" xlink:href="#i"/><use ffdec:characterId="26" height="35.7" transform="matrix(.673 0 0 .673 57.1 116.75)" width="28.35" xlink:href="#j"/><use ffdec:characterId="32" height="145.65" transform="matrix(.673 0 0 .673 8.5 15.95)" width="156.1" xlink:href="#k"/><use ffdec:characterId="34" height="60.85" transform="matrix(.673 0 0 .673 77.2 75.75)" width="69.2" xlink:href="#l"/></g><g id="n" fill-rule="evenodd"><path d="m127 46.25-.1.1q-.85 1.4-.85 3.4.05 2.35 2.85 3.8l.2.1q2.05 1.05 4.35 1.25h.8q2.2 0 3.2-1.3.55-.9 1.9-4.55h-.05q.75-2.1 4.25-4.25 2.15-1.3 2.15-3.95-.05-1-.6-1.75l-1.55-1.45q-2.05-1.3-4.3-1.3-1.65.1-3.15 2.4l-.85 2.05-.65 1.6h-.1l-1.8.35q-2.7.7-4.25 1.85-.9.7-1.45 1.65m5.95-5.4q.4-1.5 1.65-3.2 2.2-3.25 4.65-3.15 2.8 0 5.3 1.6 3.05 2 3 4.75 0 3.65-3.1 5.5h.05q-2.8 1.7-3.45 3.35l-2.1 4.95-.05.05q-1.45 2-4.65 2-3.3 0-6.2-1.55-3.85-2.05-3.85-5.4 0-4.3 3.15-6.6 1.95-1.55 5.6-2.3m-23.05-23.1q3.55 2.3 3.55 6.65 0 4.3-1.95 7.65-2.65 4.45-7.4 4.45-3 0-4.15-2.1-.6-.95-.8-2.5-.9 1.95-1.25 4.65-1.1 8.25-1.75 10.15-1.4 4.55-5.3 9.2h-.05q-2.8 3.35-2.85 6.15 0 1.6.55 2.35.65.75 2.1.75 2.1-.05 5.15-2.4Q99.4 59.9 100.4 60q2.75-.1 2.75 3.3.1 3.05-3.9 6.25-3.15 2.5-3.25 4.7 0 1.1 1 1.7h.05q.95.6 2.15.6l2.8-.4h.15q2.35 0 3.2 1.15v.05l.65 1.3 1.5-.1q1.55-.05 3.1 1.35 1.6 1.45 1.55 3.05.2 1.85-3.45 3.5-2.35 1.1-2.4 3.2 0 .9.65 2.9.8 2.3.8 4.15.05 1.35-1.05 3.9-.65 1.55-.85 2.95l-.1 1.15.05.45-.05.8.2.2q3.45 5.4 6.6 12.1v.05q1.3 2.4 1.2 3.85-.05 1.7-1.6 2.35h-.1l-.15.05h-.85l-.3-.1-1.1-.35-2.35-.75-3.7.5q-4.25.85-11.8 3.3l-2.05.65q-10.7 3.25-17.35 3.25-4.95 0-8.2-3.6-4.4-4.75-6.65-6.05-3.65-2.1-5.5-4.85v.05q-2.65-3.8-2.65-9.7 0-4.7 2.7-13.1 2.6-8.05 2.6-12.6 0-3.65-1.85-5.1l-.1-.1-5.4-2.25q-3.45-1.55-5.3-5.55-2.15-4.7-3.2-5.9-6.25-6.55-9.45-7.8-3.35-1.25-14.35-1.25l-6.65.05h-.05q-3.5.2-6.35 1.05h-.25l-.6.15-.7-.15-.4-.55q-.1-.35.1-.65l.55-.45.55-.1q2.05-2.25 8.3-6.75H9.5q5.75-4.2 7.45-6.2l3.55-5.35 1.4-3.3-.35.3q-.95.8-2.35.8-3.15 0-4.25-2.55-.6-1.35-.6-4.3Q14.3 21 18.3 17.5q3.45-3.05 6.05-3 2.3 0 2.7.95.3.4.35 1.9 1.65-.7 2.55-2.6.5-1.15 1.45-5.8.85-4.2 2.35-6.05 2.2-2.9 7-2.9 1.9-.05 2.85 2v-.05q.65 1.3.65 2.8l-.3 2L45.7 8.1l.4.5-.1.6-.4.45-2.25 1.1q-.7.45-.75 1.1 0 2.9 2.7 4.05h-.05l6.95.85 7.4.8q3.9 1.3 3.9 5.1l-.65 3.5q-.6 2.05-.6 2.95 0 2.45 2 3.95 2.85 2 8.9 2 3.7 0 6.75-2.75 1.4-1.25 5.4-6.4 3.7-4.7 6.8-6.75 4.65-3.2 10.8-3.2 4.25 0 7 1.8m-3.5 16.55q2.15-.8 3.5-3.2 1.7-2.95 1.7-6.7 0-3.35-2.7-5.1-1.25-.75-2.8-1.15l-3.2-.35-2.8.2-.1.05q-3.8.5-6.9 2.6-2.9 1.9-6.3 6.4-4.2 5.35-5.7 6.65h.05l-1.8 1.35-.15.1q-2.85 1.75-6.05 1.75H72.1l-4.3-.45q-2.85-.6-4.65-1.95-2.1-1.5-2.55-3.85l-.1-.35-.1-1.2q0-1.05.7-3.45.6-2.05.6-3 0-2-1.75-2.95l-.9-.4-1.45-.3-2.4-.25-3.05-.15q-5.4-.2-7.55-1.05-3.85-1.5-3.85-5.7-.05-1.55 1.55-2.65h.05q.2-.15 1.05-.55-1.5-1.3-1.35-1.95l.05-.25.3-1.7q0-1.05-.45-1.95-.4-.9-1.2-.95-3.8 0-5.6 2.2-1.25 1.6-1.95 5.25-1 4.9-1.55 6.2-1.35 2.95-4.2 3.75l-.8.2-.55-.1-.45-.3-.1-.55-.05-2.05-1.15-.1q-2.05.05-4.85 2.5l-.65.65-.2.2q-2.45 2.55-2.5 5.55 0 2.4.5 3.55l.2.4q.7 1.1 2.35 1.1.7 0 1.15-.4 1.1-.95 2.5-1.4h.6l.45.35.1.3.05.3q-.15 2.25-1.95 5.75-1.55 2.85-3.75 5.6-1.7 2.15-7.75 6.5l-5.9 4.55 3.6-.35h.6l6.15-.1 3.8.05q8.3.15 11.15 1.35 3.5 1.3 10.15 8.25 1.2 1.25 3.55 6.35 1.55 3.35 4.4 4.65l1.05.45L54 74.7l-.05-.1q2.6 1.85 2.6 6.6 0 3.2-1.2 8.05l-1.5 5.1q-1.55 4.6-2.1 8.05-.55 2.6-.55 4.5 0 5.25 2.35 8.65 1.6 2.35 4.9 4.25 2.45 1.35 7.1 6.45l.15.2.2.15q2.65 2.6 6.5 2.6 6 0 15.3-2.7l1.25-.35.1-.05.7-.2 1.5-.5q7.25-2.35 11.55-3.25l2.45-.45 2.05-.2 2 .6.35.1 1.1.35.45.15q.5-.15.55-.65 0-1.05-.95-2.85l-.05-.05q-2.95-6.35-6.2-11.45l-.1-.15-.1-.05-.05-.2-.05-.05-.15-.55-.2-2q0-2 .8-4.1l.3-.7.15-.35.75-2.85q0-1.6-.65-3.55-.8-2.45-.8-3.5-.05-3.2 3.5-4.85 2.2-1 2.35-1.85 0-.85-.95-1.7-.95-.8-1.85-.85l-1.05.05-.2.6-.6.25-.6-.15-.35-.5-.05-.15-.7-2q-.5-.45-1.65-.5l-3.1.35q-1.5 0-2.8-.65h-.05l-.25-.2-1.45-1.35v-.05q-.5-.8-.5-1.85-.05-2.95 3.95-6.1 3.15-2.55 3.25-4.85 0-1.35-.95-1.45-.65.15-3.5 2.4-3.65 2.8-6.3 2.75-2.5 0-3.55-1.45L87 65.5q-.65-.75-.8-2.2l-.1-1.25q-.05-2.55 1.85-5.35.6-1 1.5-1.95v-.05q1.8-2.15 3-4.25 1.3-2.2 1.95-4.3l1.65-9.8q.35-2.9 1.35-5 .7-1.75 1.85-3l.05-.05.3-.3q.25-.3.65-.3.35 0 .6.3l.3.65-.3.6q-.05 2.9.65 4.25h.05q.75 1.2 2.55 1.2l2.3-.4m15 38.75.05-.1 1.95-2.1h-.1q-.35-.15-.55-.45-.2-.35-.1-.7l.45-.55.65-.1 1.1.3q.2-.15.5-.15h1.45q.35 0 .65.25l.25.55 1.85.5.05.05q2.15 1.05 2.15 4.7 0 3.05-1.4 5.3-1.8 2.8-4.95 2.8-2.05 0-3.6-1.35v.05q-1.8-1.5-1.8-4.15 0-3 1.4-4.85m7-.95-2.95-.75-2.65 2.85q-.95 1.4-.95 3.7 0 1.7 1.15 2.7 1 .9 2.4.9l1.5-.3.1-.05q1.05-.5 1.75-1.6 1.15-1.8 1.15-4.3 0-2.35-1.2-3.05h-.05l-.25-.1" fill="#4a58b7"/><path d="M127 46.25q.55-.95 1.45-1.65 1.55-1.15 4.25-1.85l1.8-.35h.1l.65-1.6.85-2.05q1.5-2.3 3.15-2.4 2.25 0 4.3 1.3l1.55 1.45q-5.85.95-9 3.9-3.25 3-3.25 7.45l.6 4.45q-2.3-.2-4.35-1.25l.75-1.15q.6-1.25.6-2.6 0-1.6-.55-2.55-.65-1.2-2.05-1.2l-.85.1M106.4 34.3l-2.3.4q-1.8 0-2.55-1.2h-.05q-.7-1.35-.65-4.25l.3-.6-.3-.65q-.25-.3-.6-.3-.4 0-.65.3l-.3.3-.05.05q-1.15 1.25-1.85 3-.85-.6-2.9-.6-3.85 0-6.1 5.2-1.65 3.85-1.65 7.15 0 2.95 2.1 5.15 1.65 1.75 3.6 2.2-1.2 2.1-3 4.25v.05q-.9.95-1.5 1.95-.8-.05-12.75 5-6.75 2.9-6.75 5.8 0 1.15.95 2.45l1.55 1.45v.1l-.1-.75-.15-.8q0-4.35 7.1-5.35l5.4-.55 3-.75q.15 1.45.8 2.2l.05.05Q88.1 67 90.6 67q2.65.05 6.3-2.75 2.85-2.25 3.5-2.4.95.1.95 1.45-.1 2.3-3.25 4.85-4 3.15-3.95 6.1 0 1.05.5 1.85v.05q-.7 1.05-1.6 4.65-.9 3.8-.9 5.85 0 5.2 2.95 11.15l1.55 2.8q1.8 3.15 4.85 7.5 6 8.6 7.8 14l-2-.6-2.05.2q-.45-1.95-1.8-3.7-2.35-2.85-6.05-2.85-3.95 0-6.9 1.6l-.75.45q-3 1.9-3 5.25l.2 2 .75 2.05q-9.3 2.7-15.3 2.7-3.85 0-6.5-2.6l-.2-.15.55-1.6.95-2.6 2.35.85q2.3.8 4.9.8 6.4 0 10-6 2.75-4.6 2.75-10.05 0-2.35-.7-4.3-.8-2.3-2.6-4-1.75-1.6-4.1-2.35-2.35-.85-5.3-.85-5.85 0-10.5 2.75-5 2.95-4.05 6.7l-2.5-1.5q-2.1-1.1-4.85-1.9h-.85q.55-3.45 2.1-8.05l1.5-5.1q1.05 1.15 4.3 2.15 5.4 1.55 7.5 1.55 7.05 0 12.5-3 7.75-4.3 7.75-13.1 0-5.2-2.7-7.55-2.15-1.95-5.8-1.95-2.55 0-4.4.75-2.25.8-2.65 2.45 4.45.85 5.7 4.9 1.35 4.1-2.3 7.6-3.4 3.25-9 .85 4.65-13.4-7.95-18.85.45-9.6-5.15-17.1.7-.5 1.15-2.2.4-1.6.4-3.45 0-5.9-5.2-11.35l-3.6-3.55q-1.65-1.6-1.65-2.55 0-.35.35-.7.4-.4.65-.4.8 0 2.25 1.25l1.5 1.6v-.9q0-7.7-6.7-7.7-2.5 0-4.65 1.9-2.5 2.2-2.5 5.55 0 2.35 2.15 5.5 1.6 2.3 3.3 3.85l3.55 3.2q1.6 1.7 1.85 4.15-1.3-1.3-5.3-2.95-5.1-2.05-9.45-2.05l-3.7.45q-3.05.55-4 1.35 2.25-3.25 2.25-6.8l-.25-3q-.25-2.3-.65-2.65l-.35 1.35-.4.9-1.1-1.65q-1.4-1.75-2.6-1.75-1.4 0-2.65 1.85l-.95 2-.2-.4q-.5-1.15-.5-3.55.05-3 2.5-5.55.8 2.95 4.7 2.95l2.95-.5q1.05-.7 1.15-2.9 2.85-.8 4.2-3.75.55-1.3 1.55-6.2.7-3.65 1.95-5.25 1.8-2.2 5.6-2.2.8.05 1.2.95.45.9.45 1.95l-.3 1.7-.05.25q-.15.65 1.35 1.95-.85.4-1.05.55h-.05q-1.6 1.1-1.55 2.65 0 4.2 3.85 5.7 2.15.85 7.55 1.05l3.05.15q-.6 1-1.2 2.95-.95 3.1-.95 5.3 0 5.45 3.2 8.6 3.2 3.15 8.6 3.15 1.9 0 5-1.1l2.25-.75h1.05q3.2 0 6.05-1.75h.2q3.65-.5 6.75-2.55 3-1.95 4.8-4.9 3.05-.6 5.95-4 2.55-3 3.1-5.65l.1-.05 2.8-.2 3.2.35q-1.3 1.1-2.2 3.25-1 2.45-1 4.9 0 2.65.75 4.4l1.25 2.05q.9 1.3 1.5 1.55M96.35 77.7h.05q1.3.65 2.8.65l3.1-.35q1.15.05 1.65.5l.7 2 .05.15-2.1 3.25q-1.45 2.2-1.45 4.35 0 1.4 1.2 3.7 1.2 2.35 1.2 5.1 0 1.45-.45 2.7l-.3.85-.65.8q.85-.3 1.6-.8l.05-.05 1.15-.85.05.2-.3.7q-.8 2.1-.8 4.1l.2 2 .15.55.05.05.05.2q-3.55-4.55-6.35-9.6-2.9-5.15-2.9-13.15 0-5.45 1.25-7.05m-14.4-37.65-.75-.15q-5.05 0-7.25 2.85-1.15 1.5-2.35 5.8-1 3.55-2.65 4.5-2.5 1.3-8.3-.95-.75 1.15-.95 2.1-.15.6-.15 2.05 0 1.5 2.05 3.2 2.45 2.15 6.1 2.15 4 0 7.3-2.9 3.2-2.8 3.55-6.3.4-4.15 1-6.25 1.05-3.75 3.4-5.85l-.05-.1-.95-.15M88.1 91.9q-1.35 0-2.35.95-.9 1-.9 2.3l.1.8q.2.85.8 1.5l1.7.95h.65q1.35 0 2.3-.95.95-.9.95-2.3 0-1.3-.95-2.3-.95-.95-2.3-.95m38.8-10.7-1.5.3q-1.4 0-2.4-.9-1.15-1-1.15-2.7 0-2.3.95-3.7l2.65-2.85 2.95.75-.85 1.25-.65 1.6v6.25" fill="#5ffafd"/><path d="M145.1 39.1q.55.75.6 1.75 0 2.65-2.15 3.95-3.5 2.15-4.25 4.25h.05q-1.35 3.65-1.9 4.55-1 1.3-3.2 1.3h-.8l-.6-4.45q0-4.45 3.25-7.45 3.15-2.95 9-3.9m-39-20.95q1.55.4 2.8 1.15 2.7 1.75 2.7 5.1 0 3.75-1.7 6.7-1.35 2.4-3.5 3.2-.6-.25-1.5-1.55l-1.25-2.05q-.75-1.75-.75-4.4 0-2.45 1-4.9.9-2.15 2.2-3.25m-1.4 62.5.35.5.6.15.6-.25.2-.6 1.05-.05q.9.05 1.85.85.95.85.95 1.7-.15.85-2.35 1.85-3.55 1.65-3.5 4.85 0 1.05.8 3.5.65 1.95.65 3.55l-.75 2.85-.2.15-1.15.85-.05.05q-.75.5-1.6.8l.65-.8.3-.85q.45-1.25.45-2.7 0-2.75-1.2-5.1-1.2-2.3-1.2-3.7 0-2.15 1.45-4.35l2.1-3.25m.55 41.05-2.45.45-1.05-1.25q-2.2-2.25-5.7-2.25-2.5 0-4.9 2.2l-1.4 1.55q-.9 1.3-.9 2.5v.1l.1 1.15-1.25.35-.75-2.05-.2-2q0-3.35 3-5.25l.75-.45q2.95-1.6 6.9-1.6 3.7 0 6.05 2.85 1.35 1.75 1.8 3.7m-39.55 4.75-.15-.2q-4.65-5.1-7.1-6.45-3.3-1.9-4.9-4.25-2.35-3.4-2.35-8.65 0-1.9.55-4.5h.85q2.75.8 4.85 1.9l2.5 1.5Q59 102.05 64 99.1q4.65-2.75 10.5-2.75 2.95 0 5.3.85 2.35.75 4.1 2.35 1.8 1.7 2.6 4 .7 1.95.7 4.3 0 5.45-2.75 10.05-3.6 6-10 6-2.6 0-4.9-.8l-2.35-.85-.95 2.6-.55 1.6m-10.35-37.2q1.2-4.85 1.2-8.05 0-4.75-2.6-6.6l.05.1-4.85-2.2.7-4.5q.55-3 .55-4.85 0-8.15-3.65-12.85-1.15-1.5-6.1-3.75-5.6-2.7-9.45-2.7-4.15 0-6.5 1.6-1.85 1.2-5.85 6l-3.8-.05-6.15.1q1-1.45 3.1-3.05l5.9-4.05q3.7-2.6 5.65-5.45.95-.8 4-1.35l3.7-.45q4.35 0 9.45 2.05 4 1.65 5.3 2.95-.25-2.45-1.85-4.15l-3.55-3.2q-1.7-1.55-3.3-3.85-2.15-3.15-2.15-5.5 0-3.35 2.5-5.55Q39.8 18 42.3 18q6.7 0 6.7 7.7v.9L47.5 25q-1.45-1.25-2.25-1.25-.25 0-.65.4-.35.35-.35.7 0 .95 1.65 2.55l3.6 3.55q5.2 5.45 5.2 11.35 0 1.85-.4 3.45-.45 1.7-1.15 2.2 5.6 7.5 5.15 17.1 12.6 5.45 7.95 18.85 5.6 2.4 9-.85 3.65-3.5 2.3-7.6-1.25-4.05-5.7-4.9.4-1.65 2.65-2.45 1.85-.75 4.4-.75 3.65 0 5.8 1.95 2.7 2.35 2.7 7.55 0 8.8-7.75 13.1-5.45 3-12.5 3-2.1 0-7.5-1.55-3.25-1-4.3-2.15M24 29.15l-.1-.3-.45-.35h-.6q-1.4.45-2.5 1.4-.45.4-1.15.4-1.65 0-2.35-1.1l.95-2q1.25-1.85 2.65-1.85 1.2 0 2.6 1.75l1.1 1.65-.05.2-.1.2m35.95-9.45q1.75.95 1.75 2.95 0 .95-.6 3-.7 2.4-.7 3.45l.1 1.2q-1.5-.9-2.05-1.8-.7-1.15-.7-3.6 0-1.85.45-2.9.45-1.1 1.75-2.3m22 20.35.95.15.05.1q-2.35 2.1-3.4 5.85-.6 2.1-1 6.25-.35 3.5-3.55 6.3-3.3 2.9-7.3 2.9-3.65 0-6.1-2.15-2.05-1.7-2.05-3.2 0-1.45.15-2.05.2-.95.95-2.1 5.8 2.25 8.3.95 1.65-.95 2.65-4.5 1.2-4.3 2.35-5.8 2.2-2.85 7.25-2.85l.75.15M128.4 72.1l.25.1h.05q1.2.7 1.2 3.05 0 2.5-1.15 4.3-.7 1.1-1.75 1.6h-.1v-6.2l.65-1.6.85-1.25m-53.3 30.3q-3.55 0-6.05 2.5t-2.5 6.05q0 3.55 2.5 6 2.5 2.55 6.05 2.55 3.5 0 6-2.55 2.5-2.45 2.5-6t-2.5-6.05q-2.5-2.5-6-2.5" fill="#138cff"/><path d="m129.1 53.65-.2-.1q-2.8-1.45-2.85-3.8 0-2 .85-3.4l.1-.1.85-.1q1.4 0 2.05 1.2.55.95.55 2.55 0 1.35-.6 2.6l-.75 1.15m-31.7-22.3q-1 2.1-1.35 5l-1.65 9.8q-.65 2.1-1.95 4.3-1.95-.45-3.6-2.2-2.1-2.2-2.1-5.15 0-3.3 1.65-7.15 2.25-5.2 6.1-5.2 2.05 0 2.9.6M87.95 56.7q-1.9 2.8-1.85 5.35l.1 1.25-3 .75-5.4.55q-7.1 1-7.1 5.35l.15.8.1.75v-.1l-1.55-1.45q-.95-1.3-.95-2.45 0-2.9 6.75-5.8 11.95-5.05 12.75-5m6.7 19.45 1.45 1.35.25.2q-1.25 1.6-1.25 7.05 0 8 2.9 13.15 2.8 5.05 6.35 9.6l.1.05.1.15q3.25 5.1 6.2 11.45l.05.05q.95 1.8.95 2.85-.05.5-.55.65l-.45-.15-1.1-.35-.35-.1q-1.8-5.4-7.8-14-3.05-4.35-4.85-7.5l-1.55-2.8q-2.95-5.95-2.95-11.15 0-2.05.9-5.85.9-3.6 1.6-4.65M8.9 51.5h-.6l-3.6.35 5.9-4.55q6.05-4.35 7.75-6.5 2.2-2.75 3.75-5.6 1.8-3.5 1.95-5.75l-.05-.3.1-.2.05-.2.4-.9.35-1.35q.4.35.65 2.65l.25 3q0 3.55-2.25 6.8-1.95 2.85-5.65 5.45L12 48.45q-2.1 1.6-3.1 3.05m9.75-31.8.2-.2.65-.65q2.8-2.45 4.85-2.5l1.15.1.05 2.05.1.55.45.3.55.1.8-.2q-.1 2.2-1.15 2.9l-2.95.5q-3.9 0-4.7-2.95m36.55-.95 2.4.25-1.45 4.1q-.6 2.1-.6 3.65 0 5.2 1.8 7.5 2.05 2.45 6.9 2.45l2.55-.1 1-.15 4.3.45-2.25.75q-3.1 1.1-5 1.1-5.4 0-8.6-3.15-3.2-3.15-3.2-8.6 0-2.2.95-5.3.6-1.95 1.2-2.95m24.15 16.3 1.8-1.35h-.05q1.5-1.3 5.7-6.65 3.4-4.5 6.3-6.4 3.1-2.1 6.9-2.6-.55 2.65-3.1 5.65-2.9 3.4-5.95 4-1.8 2.95-4.8 4.9-3.1 2.05-6.75 2.55l-.05-.1M88.1 91.9q1.35 0 2.3.95.95 1 .95 2.3 0 1.4-.95 2.3-.95.95-2.3.95h-.65l-1.7-.95q-.6-.65-.8-1.5l-.1-.8q0-1.3.9-2.3 1-.95 2.35-.95" fill="#fff"/><path d="M102.8 122.15q-4.3.9-11.55 3.25l-1.5.5-.7.2-.2-1.1v-.1q0-1.2.9-2.5l1.4-1.55q2.4-2.2 4.9-2.2 3.5 0 5.7 2.25l1.05 1.25M49.15 72.5l-1.05-.45q-2.85-1.3-4.4-4.65-2.35-5.1-3.55-6.35Q33.5 54.1 30 52.8q-2.85-1.2-11.15-1.35 4-4.8 5.85-6 2.35-1.6 6.5-1.6 3.85 0 9.45 2.7 4.95 2.25 6.1 3.75Q50.4 55 50.4 63.15q0 1.85-.55 4.85l-.7 4.5M57.6 19l1.45.3.9.4q-1.3 1.2-1.75 2.3-.45 1.05-.45 2.9 0 2.45.7 3.6.55.9 2.05 1.8l.1.35q.45 2.35 2.55 3.85 1.8 1.35 4.65 1.95l-1 .15-2.55.1q-4.85 0-6.9-2.45-1.8-2.3-1.8-7.5 0-1.55.6-3.65L57.6 19m17.5 83.4q3.5 0 6 2.5t2.5 6.05q0 3.55-2.5 6-2.5 2.55-6 2.55-3.55 0-6.05-2.55-2.5-2.45-2.5-6t2.5-6.05q2.5-2.5 6.05-2.5" fill="#11b3ff"/></g><g id="o" fill-rule="evenodd"><path d="m22.2 22.15-.55.25-.5-.8q-6-5.3-9.6-5.7l-1.6.45Q3.5 16.95 0 5.6q.85-2.9 4.45-4.35Q7.15.2 10.75 0l1.65.15q.65.2.8 1-.15 4.5.1 6.2.25 2.05 1.4 3.7 1.5 2.45 3.2 1.85l4.3 9.25" fill="#7979d4"/><path d="m21.65 22.4-2.15-.25q-2.8-1.1-7.95-6.25 3.6.4 9.6 5.7l.5.8m-11.7-6.05-1.35.2q-6.8.6-8.3-9.25L0 5.6q3.5 11.35 9.95 10.75" fill="#95a8ed"/><path d="m21.65 22.4.55-.25q-.5-4.1-3.85-10.9-1.65 1.3-3.4-1.85-1-1.7-1.3-3.3-.35-1.4-.45-4.95.35 2.95.75 4.05.35 1.05 1.25 2.45 1.6 2.3 3.15 1.1 3.25 2.15 6.2 14.1-4.2 5.6-13.05-4.8Q5.45 19.2 2.7 16-.05 13 0 5.6l.3 1.7q1.5 9.85 8.3 9.25l1.35-.2 1.6-.45q5.15 5.15 7.95 6.25l2.15.25" fill="#434186"/><path d="M13.2 1.15q.1 3.55.45 4.95.3 1.6 1.3 3.3 1.75 3.15 3.4 1.85 3.35 6.8 3.85 10.9l-4.3-9.25q-1.7.6-3.2-1.85-1.15-1.65-1.4-3.7-.25-1.7-.1-6.2" fill="#ffc1bd"/></g><g id="p" fill-rule="evenodd"><path d="M.7 4.4Q3.3-.35 7.1 0q4.1 1.45 6.5 8.05 2.6 7.3 1.05 16.4-1.75 2.25-1.85 7.35l-2.9-3.7-.45-.65-.6-.8-1.7-8.8-1-4.65q-.65-2.55-1.9-3.5-.8-.55-1.75-.4l-.9.15L1.05 7 .7 4.4" fill="#95a8ed"/><path d="m17.65 7.6.45 1.25q8.6 24.75-.6 31.1Q9.7 36.5 4 24.9-.8 14.9.15 7L.7 4.4 1.05 7l.55 2.45q2 8.9 7 16.8l.25.4.6.8.45.65 2.9 3.7.75 1 1.55 1.5 2.05 1.95q.15.15.2.1 2.6-3.2 2.6-12.2-.1-7.65-1.85-14.8l-.45-1.75" fill="#434186"/><path d="m8.85 26.65-.25-.4q-5-7.9-7-16.8l.9-.15q.95-.15 1.75.4 1.25.95 1.9 3.5l1 4.65 1.7 8.8" fill="#b9d6ff"/><path d="M18.1 9.35q1.75 7.15 1.85 14.8 0 9-2.6 12.2-.05.05-.2-.1 1.4-5.7 1.45-13.65.15-6.05-.5-13.25" fill="#ffc1bd"/><path d="M7.1 0q2.9.25 6.35 3.3 2.05 1.6 4.2 4.3l.45 1.75q.65 7.2.5 13.25-.05 7.95-1.45 13.65L15.1 34.3l-1.55-1.5-.75-1q.1-5.1 1.85-7.35 1.55-9.1-1.05-16.4Q11.2 1.45 7.1 0" fill="#7979d4"/></g><g id="q" fill-rule="evenodd"><path d="m41.25 4.85 10.8 5.55q5.55 2.25 11.15 1.2l6.7-.2q4.05.7 6.15 3.5 1.3 1.7 1.7 3.8l-.25-1q-.3-.9-1.4-2.25-1.4-1.75-3.15-2.45-2.4-1-6.6-.65-8 .6-10.25.25l-3.85-.75-.4-.15q-4.6-1.4-10.1-4.6l-.5-2.25m29.5 29.35-3.85 3.85q-3.35 3.1-8.15 6-4.55 2.7-7.85 3.6-7.05 2.05-17 .95-6.45-.75-15.5-3.05l1.4-1.2.4-.4q20.1 4.95 34.5-.6h.05q10.15-4 16-9.15M8.15 3.9q6.6-4.2 14.8-3.9Q30 .25 38.8 3.9l.85.35-.5 1.2q-18.5-8.25-31.9.15l.9-1.7" fill="#434186"/><path d="m73.25 31.55-2.5 2.65q-5.85 5.15-16 9.15h-.05q-6.8.15-11.7-3-10.05 1.5-20.7 0 .45-1.25.55-2.7v-.15q.35-.3.75-.5 8.75 3.6 20.5.85l1.85 1.85q9.05 0 12.75-4.4 2.25-4.3 4.3-5.8.95-.3 1.6-.8 5.3-2.35 7.45-6.35 2.25-4.1.9-9.35 2.45 2.55 2.65 8.3.2 5.95-2.35 10.25M41.75 7.1q5.5 3.2 10.1 4.6-1.85-.45-4.9.65-3.55 1.3-5.9 3.9 1.3-4.55.7-9.15" fill="#95a8ed"/><path d="M3.85 31.65q-9.5-15.6 4.3-27.75l-.9 1.7Q3.4 13.7 9.5 27.25l-1 .35q-2.15-3.95-3.3-8.55-.75-3.1-.65-6.1.15-2.3.7-4.1l.1-.25.15-.4-2 3.3q-1.85 3.55-2.35 6.2-.65 4.6 1.6 9.9.65 1.6 1.65 3.25l-.55.8m35.8-27.4.8-2 .8 2.6.5 2.25q.6 4.6-.7 9.15-.65 2.05-1.7 4.15-4.3 8.65-15.75 16.6-.4.2-.75.5v-1.1q8.7-7.05 13.4-14.6 3.4-5.45 4.25-9.8.6-3.2-.15-7l-.45 1.15-.35 1.25q-1.35 3.15-3.8 6.95L33 18.25q-5.95 8.1-12.2 12.7L20 30l5.65-5.45q9.3-9.75 13.5-19.1l.5-1.2" fill="#9e3c03"/><path d="m39.55 7.4.35-1.25.45-1.15q.75 3.8.15 7-.85 4.35-4.25 9.8-4.7 7.55-13.4 14.6-.15-1.95-.9-3.55 5.2-2.6 12.15-12.15 2.7-3.75 4.05-7 1.25-3.1 1.4-6.3M5.25 8.85q-.55 1.8-.7 4.1-.1 3 .65 6.1 1.15 4.6 3.3 8.55-1.3.55-2.45 1.6-3.75-5-3.25-11.65.15-1.8.9-4.2l1.55-4.5" fill="#e88a06"/><path d="M64.6 28.7q-.65.5-1.6.8l-1.7.45-8.9-.25q-5-1.2-8-3.7-3.05-2.4-2.45-4.7.6-2.3 4.55-3.15l8.85.4q5 1.15 8.1 3.55 3 2.5 2.4 4.8-.25 1.05-1.25 1.8m-43.8 2.25q6.25-4.6 12.2-12.7l2.75-3.9q-.5 2.4-6.4 9.4-5.35 6.4-7.75 8.35l-.8-1.15M2.75 27.6q-2.25-5.3-1.6-9.9.5-2.65 2.35-6.2-3.1 7.45-.75 16.1M9.1 45.45q-1.6-.65-2.95-2-2.6-2.6-2.6-6.35 0-3.7 2.6-6.35 2.65-2.65 6.4-2.65 2.5 0 4.55 1.2-4.3-1.2-8.3 1.2 2.9 1.75 1.1 3.65Q8.05 36 6.15 33.8 3.2 40.75 9.2 45.35l-.1.1" fill="#fff"/><path d="m51.85 11.7.4.15 3.85.75q2.25.35 10.25-.25 4.2-.35 6.6.65 1.35 5.25-.9 9.35-2.15 4-7.45 6.35 1-.75 1.25-1.8.6-2.3-2.4-4.8-3.1-2.4-8.1-3.55l-8.85-.4q-3.95.85-4.55 3.15-.6 2.3 2.45 4.7 3 2.5 8 3.7l8.9.25 1.7-.45q-2.05 1.5-4.3 5.8-3.7 4.4-12.75 4.4l-1.85-1.85Q32.35 40.6 23.6 37q11.45-7.95 15.75-16.6 1.05-2.1 1.7-4.15 2.35-2.6 5.9-3.9 3.05-1.1 4.9-.65M20 30l-.2-.2q-1.5-1.5-3.3-2.25 4.6-.9 9.15-3L20 30" fill="#b9d6ff"/><path d="M35.75 14.35q2.45-3.8 3.8-6.95-.15 3.2-1.4 6.3-1.35 3.25-4.05 7-6.95 9.55-12.15 12.15l-.35-.75q2.4-1.95 7.75-8.35 5.9-7 6.4-9.4M3.5 11.5l2-3.3-.15.4-.1.25-1.55 4.5q-.75 2.4-.9 4.2-.5 6.65 3.25 11.65-.45.25-.8.6l-.85 1.05q-1-1.65-1.65-3.25-2.35-8.65.75-16.1" fill="#fcd322"/><path d="M18.4 45.55q-2.5 1.85-5.85 1.85-4.25 0-7.3-3.05-3-2.95-3-7.25 0-3.05 1.6-5.45l.55-.8.85-1.05q.35-.35.8-.6 1.15-1.05 2.45-1.6l1-.35 3.05-.4q2.1 0 3.95.7 1.8.75 3.3 2.25l.2.2.8.95.8 1.15.35.75q.75 1.6.9 3.55v1.25q-.1 1.45-.55 2.7l-.85 1.95-.05.1-1.2 1.55-.4.4-1.4 1.2M17.1 29.3q-2.05-1.2-4.55-1.2-3.75 0-6.4 2.65-2.6 2.65-2.6 6.35 0 3.75 2.6 6.35 1.35 1.35 2.95 2l.5.2 2.95.45q3.7 0 6.35-2.65l.85-.95q1.8-2.35 1.8-5.4v-.4l-.25-1.8q-.6-2.35-2.4-4.15l-1.8-1.45" fill="#9b1e07"/><path d="m17.1 29.3 1.8 1.45q1.8 1.8 2.4 4.15-2.35-2-5.1-2.25-2.65-.15-4.7 1.3-4.9 3.6-2.3 11.4-6-4.6-3.05-11.55 1.9 2.2 3.75.35 1.8-1.9-1.1-3.65 4-2.4 8.3-1.2m4.45 7.4v.4q0 3.05-1.8 5.4l-1.45-.9q-.9-.85-.9-2.1t.9-2.15q.9-.9 2.15-.9l1.1.25m-6.75.9q.6.6.6 1.45 0 .8-.6 1.4-.6.6-1.4.6-.85 0-1.45-.6t-.6-1.4q0-.85.6-1.45t1.45-.6q.8 0 1.4.6m.6 4.75q.25-.3.65-.3.35 0 .65.3l.25.65-.25.65-.65.25-.65-.25-.3-.65q0-.4.3-.65" fill="#ff5f3f"/><path d="M77.75 18.7q.25 1.35.1 2.8-.4 4.5-4.6 10.05 2.55-4.3 2.35-10.25-.2-5.75-2.65-8.3 1.75.7 3.15 2.45 1.1 1.35 1.4 2.25l.25 1M22.3 40.35q10.65 1.5 20.7 0 4.9 3.15 11.7 3-17.3 2.7-33.25-1.05l.85-1.95M9.5 27.25Q3.4 13.7 7.25 5.6q13.4-8.4 31.9-.15-4.2 9.35-13.5 19.1-4.55 2.1-9.15 3-1.85-.7-3.95-.7l-3.05.4" fill="#7979d4"/><path d="m21.3 34.9.25 1.8-1.1-.25q-1.25 0-2.15.9-.9.9-.9 2.15t.9 2.1l1.45.9-.85.95q-2.65 2.65-6.35 2.65l-2.95-.45-.4-.3q-2.6-7.8 2.3-11.4 2.05-1.45 4.7-1.3 2.75.25 5.1 2.25m-5.9 7.45q-.3.25-.3.65l.3.65.65.25.65-.25.25-.65-.25-.65q-.3-.3-.65-.3-.4 0-.65.3m-.6-4.75q-.6-.6-1.4-.6-.85 0-1.45.6t-.6 1.45q0 .8.6 1.4.6.6 1.45.6.8 0 1.4-.6.6-.6.6-1.4 0-.85-.6-1.45" fill="#d22301"/><path d="m20.2 43.95 1.2-1.55.05-.1q15.95 3.75 33.25 1.05-14.4 5.55-34.5.6" fill="#ffc1bd"/></g><g id="r"><path d="m95.55 97.65-.75-.1q-5.65 1.6-2.8 4.9.35.45 1 .5l.9-.05q5.4-1 3.45-4-.6-.95-1.65-1.2l-.15-.05m-1.5-2.3q7.3-.05 6 5.9-.25 1.3-1.4 2.1-7 4.9-9.8-1.3-.75-1.7.4-3.3 1.85-2.5 4.8-3.4m63.75 45.55-.35-.1-.35-.45-.1-.4-.65.7h.05l-1.75 1.85q-2.8 2.7-5.1 2.65-2.75.05-4.3-3.45-1.3-3.05-2.75-3.65-.6-.1-1.15 1.3v-.05l-1.6 5.2h-.05q-3 8.55-10.25 8.7-2.1.05-3.5-.95-1.6-1.1-1.6-2.85l.35-1.7.2-1.6-.05-.6-1.05-1q-1.05-1.45-.45-3.7v-.05l1.3-3.4q1.15-3.4-2.4-4.95l-.35-.15q-3.85-1.45-6.75 1.2-2.1 1.95-4.75 7.4l-1.7 3.4-2.9 5.15h-.05q-3.1 4.4-6.9 4.35-2.15 0-3.8-1.15l-.05-.05q-1.95-1.4-1.9-3.45-.05-1.75 3.4-10.2 1.65-4.1 2.45-7.35.85-3.3.85-5.8 0-5.55-1.95-8.95-.75-1.25-1.65-2.05-1.85-1.55-4.55-1.55-3.65 0-5.3 1.7v.05q-1.4 1.5-1.4 4.5 0 2.15.15 2.85v.05q.2 1.15 1 1.25.55 0 1-.4l.75-.85.35-.25h.45l.35.3.15.4v.15l.2 3.15q0 6.4-4.5 11-4.35 4.3-11.1 5l-.35-.05q-11.1-4.15-23.6-1.85l-3.3.75-1.2.3q-5.5 1.5-17.3 11.1l-16.25 14.1-.15.15-.55.15-.5-.25-.2-.55.25-.5 17.2-14.65q12.3-9.8 18.35-11.3 14.7-3.7 27.6 1.1 6.1-.65 10.05-4.55 4.05-4.15 4.05-9.95v-1.6q-.8.6-1.75.6-2 .1-2.45-2.5l-.2-3.15q0-3.7 1.8-5.55 1.95-2.2 6.4-2.2 4.95 0 7.5 4.35 2.15 3.65 2.15 9.7 0 5.2-3.4 13.7-3.25 8-3.3 9.65.05 1.3 1.3 2.25 1.3.9 2.95.9 3.1-.05 5.7-3.7v-.05q1.2-1.65 4.5-8.3 2.8-5.8 5.1-7.85 3.6-3.25 8.3-1.5 5.4 2.1 3.6 7l-1.25 3.35-.05.1q-.35 1.4.25 2.35h.05l.8.75.05.05q.5.4.5 1.65l-.25 1.9v.05l-.3 1.35q0 .95.95 1.6 1.05.75 2.6.7 6.3-.25 8.9-7.7v.05q1.15-3.9 1.65-5.25 1.15-3 3.05-2.15 2.05.6 3.65 4.45 1.05 2.5 2.9 2.55 1.8-.05 4.05-2.2v-.05l1.65-1.75 1.25-1.5.4-.25h.5q.85.25 1.1 1.85v.1l.05.15-.1.55-.45.35h-.2" fill="#4a58b7" fill-rule="evenodd" transform="translate(-1.55)"/><path d="M93 102.95v-.05q0-1.05 1.2-3.15l1.35-2.1.15.05q1.05.25 1.65 1.2 1.95 3-3.45 4l-.9.05M49.8 140.2q4.6.45 7.5 1.65 3.2 1.3 6.35 4.45l3.1 4.4q2.5 3.35 4.1 3.35 1.2 0 2.45-1.75l2.45-3.85q3.9-5.65 10.1-5.65 1.95 0 2.95 1.25.85 1.05.85 2.6 0 2.15-1.75 2.9l-3.35-.1q-.6 2.65-2.05 4.65l-3 3.3v.15q1.1-.7 2.7-.85l2.95-.05q5.15 0 9.25 3.65l.2.15q-4.1 2.7-8.1 4.65-2.8 1.35-6.35 2.1-.85.2-2.6 3.4-1.8 3.3-2.15 3.4l-2.85-.6 2.65-3.05q2.35-3 3-3.2l1.55-.75q2.35-1.45 2.35-3.5 0-.75-1.05-1.5-1.05-.7-2.1-.7-3.55 0-7.15 2.25-.5.35-2.85 4.3-2.4 4.2-3.4 5.05l-1.4-.2 2.95-7.5q.8-1.55.8-3.55 0-5.3-5.45-11.6-6.3-7.3-16-8.15l.05-.35 3.3-.75m55.5 23.25 3.15-1q4.25-1.8 4.25-4.65 0-.9-.5-1.5 1.95-3.8 3.4-5.85 1.4.45 2.35 1.65 1.4 1.8 1.4 4.8 0 4.45-4.1 10-4.15 5.65-8.7 7.15v.2l7.6-.4q2.45-.6 4.3-1.85 2.95-2 5.55-6.9 3.05-5.85 4.4-7.3 3.15-3.4 8.5-3.4 2.5 0 5.45 3.45l.25.3q2.7 3.1 3.9 3.1.95 0 1.95-.55l.95-.6-3.35 3.25-.35.35-.75-.15q-.9-.35-2.2-2.15l-1.6-1.95-.05-.05-.05-.05q-2.45-2.5-4.85-2.5-3.3 0-6 3.1-1.55 1.75-4.25 6.65-2.6 4.65-4.3 6.35-1.25 1.25-2.6 1.8l-12.45 1.35q-12.2 1.1-15.35.3 1.15-.4 3.65-3.55 2.6-3.3 3.6-3.85 4.75-2.65 6.8-5.55m-6.35-31.9q-4.5 0-6.3-2.15-1.6-1.9-1.6-6.3 0-3.25.95-5.1 1.15-2.45 4.2-3.25.9.8 1.65 2.05 1.95 3.4 1.95 8.95 0 2.5-.85 5.8" fill="#138cff" fill-rule="evenodd" transform="translate(-1.55)"/><path d="M94.6 160.45q3.9 3.45 6.5 3.45l4.2-.45q-2.05 2.9-6.8 5.55-1 .55-3.6 3.85-2.5 3.15-3.65 3.55l-3.4-.5-4.15-.8-3.8-.6-2.3-.25-2.2-.25q.35-.1 2.15-3.4 1.75-3.2 2.6-3.4 3.55-.75 6.35-2.1 4-1.95 8.1-4.65m17.6-4.15-.55-.5q-.8-.55-1.8-.55l-1.15.05-1.3.65q.95-3.25 2.3-4.5 1.35-1.3 3.95-1.3l1.95.3q-1.45 2.05-3.4 5.85m-65.75-15q9.7.85 16 8.15 5.45 6.3 5.45 11.6 0 2-.8 3.55l-2.95 7.5-1.95-.25-26.1-1.3-16.85-.4q-4.2-1.5-7.5-3.7L28 152.35q11.8-9.6 17.3-11.1l1.15.05m19.1 31q1-.85 3.4-5.05 2.35-3.95 2.85-4.3 3.6-2.25 7.15-2.25 1.05 0 2.1.7 1.05.75 1.05 1.5 0 2.05-2.35 3.5l-1.55.75q-.65.2-3 3.2l-2.65 3.05-7-1.1m53.5 2.45q1.35-.55 2.6-1.8 1.7-1.7 4.3-6.35 2.7-4.9 4.25-6.65 2.7-3.1 6-3.1 2.4 0 4.85 2.5l.05.05.05.05 1.6 1.95q1.3 1.8 2.2 2.15l.35.45q-10.15 8.6-23.45 10.45l-2.8.3" fill="#11b3ff" fill-rule="evenodd" transform="translate(-1.55)"/><path d="M93 102.95q-.65-.05-1-.5-2.85-3.3 2.8-4.9l.75.1-1.35 2.1q-1.2 2.1-1.2 3.15v.05m1.6 57.5-.2-.15q-4.1-3.65-9.25-3.65l-2.95.05q-1.6.15-2.7.85v-.15l3-3.3q1.45-2 2.05-4.65l3.35.1q1.75-.75 1.75-2.9 0-1.55-.85-2.6-1-1.25-2.95-1.25-6.2 0-10.1 5.65l-2.45 3.85q-1.25 1.75-2.45 1.75-1.6 0-4.1-3.35l-3.1-4.4q-3.15-3.15-6.35-4.45-2.9-1.2-7.5-1.65 12.5-2.3 23.6 1.85l.35.05q6.75-.7 11.1-5 4.5-4.6 4.5-11l-.2-3.15v-.15l-.15-.4-.35-.3h-.45l-.35.25-.75.85q-.45.4-1 .4-.8-.1-1-1.25v-.05q-.15-.7-.15-2.85 0-3 1.4-4.5v-.05q1.65-1.7 5.3-1.7 2.7 0 4.55 1.55-3.05.8-4.2 3.25-.95 1.85-.95 5.1 0 4.4 1.6 6.3 1.8 2.15 6.3 2.15-.8 3.25-2.45 7.35-3.45 8.45-3.4 10.2-.05 2.05 1.9 3.45l.05.05q1.65 1.15 3.8 1.15 3.8.05 6.9-4.35h.05l2.9-5.15q4.8 1 9.3-3.2 4.3-4.1 4.25-8.65 3.55 1.55 2.4 4.95l-1.3 3.4v.05q-.6 2.25.45 3.7l1.05 1 .05.6-.2 1.6-.35 1.7q0 1.75 1.6 2.85 1.4 1 3.5.95 7.25-.15 10.25-8.7h.05l1.6-5.2v.05q.55-1.4 1.15-1.3 1.45.6 2.75 3.65 1.55 3.5 4.3 3.45 2.3.05 5.1-2.65l1.75-1.85h-.05l.65-.7.1.4.35.45.35.1v.85q0 5.1-3.05 10.8-2.05 3.9-5.15 7.35l-.2.2-.95.6q-1 .55-1.95.55-1.2 0-3.9-3.1l-.25-.3q-2.95-3.45-5.45-3.45-5.35 0-8.5 3.4-1.35 1.45-4.4 7.3-2.6 4.9-5.55 6.9-1.85 1.25-4.3 1.85l-7.6.4v-.2q4.55-1.5 8.7-7.15 4.1-5.55 4.1-10 0-3-1.4-4.8-.95-1.2-2.35-1.65l-1.95-.3q-2.6 0-3.95 1.3-1.35 1.25-2.3 4.5l1.3-.65 1.15-.05q1 0 1.8.55l.55.5q.5.6.5 1.5 0 2.85-4.25 4.65l-3.15 1-4.2.45q-2.6 0-6.5-3.45" fill="#5ffafd" fill-rule="evenodd" transform="translate(-1.55)"/><path d="M122.25 132.4q.05 4.55-4.25 8.65-4.5 4.2-9.3 3.2l1.7-3.4q2.65-5.45 4.75-7.4 2.9-2.65 6.75-1.2l.35.15" fill="#fff" fill-rule="evenodd" transform="translate(-1.55)"/><path d="M10.7 167.25v-1.55q22.15-1.8 48.45.55l20.15 2.1 17.95 1.5q18.6.85 30.8-3.95 14.7-5.75 27.2-21.8 3.25-11.75-3.5-18.2-7.1-6.55-24.6-7.65h-.1l-.55-.05-.5-.2-.25-.55.15-.4-12-15.75-.15-.5q.05-.3.25-.5l.55-.2 6.45.45q7.6.75 13.35 2.7 2.95 1 5.6 2.35-17.55-19.5-13.6-47.15 1.75-12.15 7.65-25.9l.2-.25Q150.8 17.15 152.15.85l.05-.3q.1-.35.35-.45l.6-.05q.3.1.45.35l.25.45q11.9 24.05 5.85 51.3v.15l-.25 1.15-.35.45-.25.1-2.05 4.45q-10.1 23.4.35 43.55-2.5-9.5-1.15-18.1.8-5.55 3.3-10.7 2.55-5.45 8.8-14.35l.3-.4 10.45-15.6.25-.2.3-.15q24.95-3.5 38.4-15.6l.5-.2.5.2.25.45q3.05 18.4-4.45 31.1-7.6 12.85-26 19.9-20.6 9.5-19.05 48.95 6.15-33.45 32.8-36.85l1.5-.05.1.05v.7l-.3.65h-.1l.1-.2-.05.05-.45.2.4-.05q-5.2 11.35-1.7 22.05l-.05.45-.3.4-.45.1q-17-1.1-30.4 25.05-.45 32.9-14.75 48.75-11.6 12.9-35.5 17.15-8.55 1.5-22.15 2.5L75 210q-28.55 2.55-45.15 10.35v-1.6q16.65-7.7 45-10.25l23.3-1.75h.2l7.05-.6 14.75-1.9q23.35-4.15 34.65-16.65 13.95-15.6 14.35-47.95l.1-.35 1.8-3.4.65-1.1q4.55-7.9 9.5-12.9 8.8-8.95 18.85-8.65-2.5-8.8.6-18.1l.2-.6.95-2.5-2.8.55q-24.65 5.55-28.9 41.15v.1l-.05.1-.05.25-.1.15-.1.1-.55.15q-.35-.05-.5-.25-.25-.3-.2-.6l.05-.15-.25-.5q-2.2-29.35 6.55-44.15Q179.75 80.7 188 77l.05-.05q17.25-6.6 24.7-18.5 7.55-12.05 5-29.5l-3.25 2.55q-4.3 3.05-9.45 5.45-9.3 4.25-21.4 6.4l-.1.05-1.85.3-1.7.25-9.75 14.5-.9 1.25-2.05 3q-4.6 6.7-6.65 11.15l-.05.2q-1.35 2.8-2.2 5.8-.6 2.1-.9 4.25v.05q-1.2 7.75.8 16.25.85 3.65 2.3 7.4v.55l-.35.4-.5.05-.45-.3q-5.75-8.45-7.85-17.45-3.55-15.45 3.7-32.6l1.95-4.2 1.15-2.3v-.05q5.1-22.85-2.8-43.45l-.05-.15-2.05-4.85-.6 3.25q-1.7 6.85-6 13.5-2.75 4.15-6.5 8.2l-4.4 4.4-.5.45q-5.75 13.35-7.45 25.2-2.25 15.7 2.55 28.7 3.05 8.35 9.05 15.6l.1.1q2.5 3 5.55 5.85l.05.1q1.15.8 3.1 3l1.75 2.2-2.3-1.55-3.45-2.5-.2-.15q-4.6-3.25-10.25-5.15-5.45-1.85-12.75-2.55l-.25-.05-4.75-.35 11.45 15.1 1.1.1q17.05 1.25 24.1 7.95 2.45 2.25 3.75 5.15.65 1.5 1 3.15.95 4.9-.8 11.3l-.05.15v.05l-.15.25q-10.05 13-21.55 19.4-3.15 1.75-6.35 3-12.45 4.9-31.4 4.05l-18.05-1.5-20.15-2.1q-26.2-2.35-48.3-.55v.05m151.7-71q.3-2.95 1.05-5.65 1.05-4 2.95-7.55 3.1-5.55 9.45-11.55l9.75-9.55 3.4-3.5q5.75-6 8.1-9.4-.7 2.65-3.4 6.1l-2.8 3.3-.75.85-3.35 3.45-9.75 9.55q-6.35 6-9.45 11.55l-3.6 6.9q-1.2 2.65-1.6 5.5m-13.7-64.8q-1.55 6.75-4.7 14.8l-.05.05v.1l-.35.8-.3.8-.05.1q-2.7 6.6-3.95 10.35l-.2.55-.75 2.45q-4.05 14.95 4.15 39-9.05-20-6.25-35.25l.95-4v-.05l.7-2.45v-.05l.05-.2q1.2-3.95 3.05-8.6l1-2.3v-.05l.7-1.65.05-.05v-.05l5.95-14.3" fill="#434186" fill-rule="evenodd" transform="translate(-1.55)"/><path d="m156.5 144.9.15-.25v-.05l.05-.15q2.35-4.15 3.55-11.65 1-6.45.85-12.75 2.3 5.3 2.75 12.5.35 5.7-.4 12.65-2.2 19.65-13.95 32.85-8.7 9-19.5 13.5-10.75 4.45-26.1 5.5-8.3.55-29.25-.8-18.75-1.2-28.75.2l-1.6-23.4q7.6-.7 30.7 2.25 23.35 2.95 33.1 2.15 8.15-.7 13.95-2.5 7.3-2.35 14.45-7.45 14.45-10.25 20-22.6m0-14.9q-1.3-2.9-3.75-5.15-7.05-6.7-24.1-7.95l-1.1-.1-11.45-15.1 4.75.35.25.05q1.3 4.8 4.95 10.05l2.65 3.5q8.75-1.1 18 3.8 4.25 2.25 6.7 4.75l.1.1q2.6 2.7 3 5.7m-26.05-42.85q-4.8-13-2.55-28.7 1.7-11.85 7.45-25.2l.5-.45 4.4-4.4q3.75-4.05 6.5-8.2 4.3-6.65 6-13.5l.85 2.35q-1.45 5.9-5.75 11.9L146.3 23l-5.4 6-4.2 4.65q-5.9 11.95-7.55 24.8-1.8 13.85 1.3 28.7m27.95-7.3q.85-3 2.2-5.8l.05-.2q2.05-4.45 6.65-11.15l2.05-3 .9-1.25 9.75-14.5 1.7-.25 1.85-.3.1-.05q12.1-2.15 21.4-6.4-3.75 3.7-11.4 5.75l-9.75 2-.1.05-1.9.3q-1.85 4.4-8.65 13.4l-4.2 5.35q-4.6 5.75-7.6 10.6-1.85 2.9-3.05 5.45m11.7 53.9q4.25-35.6 28.9-41.15l2.8-.55-.95 2.5-1.25.3q-22.15 5.25-29.5 38.9m-7.7-37.5q.4-2.85 1.6-5.5l3.6-6.9q3.1-5.55 9.45-11.55l9.75-9.55 3.35-3.45.75-.85 2.8-3.3q2.7-3.45 3.4-6.1-.55 3.4-2.25 6.7l-1.6 2.7-1.65 2.25q-2.35 2.9-9.95 10.1-7.25 6.8-11 11.85-3.15 4.15-5.35 8.75-1.95 3.85-3.2 8.05l-.1.1.15-1 .05-.4.05-.7.15-1.2m-19.9 4.2q-8.2-24.05-4.15-39l.75-2.45.2-.55q1.25-3.75 3.95-10.35l.05-.1.3-.8.35-.8v-.1l.05-.05q3.15-8.05 4.7-14.8-.6 7.65-3 15.4l-.1.2-3.75 11.4-.45 1.3q-4.35 15.7 1.1 40.7m-12.8 80.6q-16.85 4.05-32.4 4.2 15.5 7.5 32.4-4.2" fill="#b9d6ff" fill-rule="evenodd" transform="translate(-1.55)"/><path d="M155.45 8.45q7.9 20.6 2.8 43.45v.05l-1.15 2.3-1.95 4.2q-7.25 17.15-3.7 32.6-3.25-6-2.35-17.6.65-8.95 3.7-15 1.3-2.7 3.1-4.8 4.9-24.1-2.3-44.6l1.85-.6M214.5 31.5l3.25-2.55q2.55 17.45-5 29.5-7.45 11.9-24.7 18.5L188 77q-8.25 3.7-13.1 11.95.8-4.7 5.4-9.5 5.05-5.3 11.6-7.4 11.35-4.6 17.05-13.6 6.65-10.5 5.55-26.95m-13.85 63.65q-3.1 9.3-.6 18.1-10.05-.3-18.85 8.65-4.95 5-9.5 12.9l-.25-.55q1.75-5.75 8.45-13.3l.15-.15q8.7-9.75 16.75-9.85-2.25-7.45 2.8-16.1l1.05.3m-95.25 111-7.05.6h-.2l-23.3 1.75q-28.35 2.55-45 10.25v-.25q4.65-9.2 32.65-12.15l12.25-.95q11.9-.6 23.45.15h.05l7.15.6" fill="#ffc1bd" fill-rule="evenodd" transform="translate(-1.55)"/><path d="M129.7 181.05q-16.9 11.7-32.4 4.2 15.55-.15 32.4-4.2" fill="#fff" fill-rule="evenodd" transform="translate(-1.55)"/><path d="M10.7 167.25v-.05q22.1-1.8 48.3.55l20.15 2.1 18.05 1.5q18.95.85 31.4-4.05 3.2-1.25 6.35-3 11.5-6.4 21.55-19.4-5.55 12.35-20 22.6-7.15 5.1-14.45 7.45-5.8 1.8-13.95 2.5-9.75.8-33.1-2.15-23.1-2.95-30.7-2.25l1.6 23.4q10-1.4 28.75-.2 20.95 1.35 29.25.8 15.35-1.05 26.1-5.5 10.8-4.5 19.5-13.5 11.75-13.2 13.95-32.85.75-6.95.4-12.65-.45-7.2-2.75-12.5.15 6.3-.85 12.75-1.2 7.5-3.55 11.65 1.75-6.4.8-11.3-.35-1.65-1-3.15-.4-3-3-5.7l-.1-.1q-2.45-2.5-6.7-4.75-9.25-4.9-18-3.8l-2.65-3.5q-3.65-5.25-4.95-10.05 7.3.7 12.75 2.55 5.65 1.9 10.25 5.15l.2.15 3.45 2.5 2.3 1.55-1.75-2.2q-1.95-2.2-3.1-3l-.05-.1q-3.05-2.85-5.55-5.85l-.1-.1q-6-7.25-9.05-15.6-3.1-14.85-1.3-28.7 1.65-12.85 7.55-24.8l4.2-4.65 5.4-6 1.55-2.05q4.3-6 5.75-11.9 7.2 20.5 2.3 44.6-1.8 2.1-3.1 4.8-3.05 6.05-3.7 15-.9 11.6 2.35 17.6 2.1 9 7.85 17.45l.45.3.5-.05.35-.4v-.55q-1.45-3.75-2.3-7.4-2-8.5-.8-16.25v-.05q.3-2.15.9-4.25 1.2-2.55 3.05-5.45 3-4.85 7.6-10.6l4.2-5.35q6.8-9 8.65-13.4l1.9-.3.1-.05 9.75-2q7.65-2.05 11.4-5.75 5.15-2.4 9.45-5.45 1.1 16.45-5.55 26.95-5.7 9-17.05 13.6-6.55 2.1-11.6 7.4-4.6 4.8-5.4 9.5-8.75 14.8-6.55 44.15l.25.5-.05.15q-.05.3.2.6.15.2.5.25l.55-.15.1-.1.1-.15.05-.25.05-.1v-.1q7.35-33.65 29.5-38.9-5.05 8.65-2.8 16.1-8.05.1-16.75 9.85l-.15.15q-6.7 7.55-8.45 13.3l-.1.4-.3 1.25-1.8 3.4-.1.35q-.4 32.35-14.35 47.95-11.3 12.5-34.65 16.65l-14.75 1.9-7.15-.6h-.05q-11.55-.75-23.45-.15l-12.25.95q-28 2.95-32.65 12.15l-.2.3-.15.05q-9.75-4.75-16.1-9.9-5.7-4.7-8.7-9.65-1.2-2.05-1.95-4.1-2.6-7.35.4-15.5.9-2.45 2.3-4.95 2.1-3.7 5.25-7.5m186.4-118.2q-2.35 3.4-8.1 9.4l-3.4 3.5-9.75 9.55q-6.35 6-9.45 11.55-1.9 3.55-2.95 7.55-.75 2.7-1.05 5.65l-.15 1.2-.05.7-.05.4-.15 1 .1-.1q1.25-4.2 3.2-8.05 2.2-4.6 5.35-8.75 3.75-5.05 11-11.85 7.6-7.2 9.95-10.1l1.65-2.25 1.6-2.7q1.7-3.3 2.25-6.7m-48.4-17.6-5.95 14.3v.05l-.05.05-.7 1.65v.05l-1 2.3q-1.85 4.65-3.05 8.6l-.05.2v.05l-.7 2.45v.05l-.95 4q-2.8 15.25 6.25 35.25-5.45-25-1.1-40.7l.45-1.3 3.75-11.4.1-.2q2.4-7.75 3-15.4" fill="url(#m)" fill-rule="evenodd" transform="translate(-1.55)"/><path d="m168.35 134.35.1-.15.05-.25.05-.1m4.8-44.9q.8-4.7 5.4-9.5 5.05-5.3 11.6-7.4 11.35-4.6 17.05-13.6 6.65-10.5 5.55-26.95" fill="none" stroke="#434186" stroke-linecap="round" stroke-linejoin="round" stroke-width=".5"/></g><g id="s" fill-rule="evenodd"><path d="M162.75 4.05q1.2-.9 2.6-1.6 1.95-.95 3.2.35.5 1-.15 1.95-1.95 3.1-2.9 6.45-.35 1.3-.35 2.6.05 6.65-5.2 12.15-3.35 3.6-7.2.65l-2.45-2.3 1.7-.45 4.4-.75q5.5-1.15 5.5-5-1.6-3.85-1.6-5.25 0-1.35 1.05-4.8.85-2.9 1.4-4M87.5 29.5l.65-.3 3.55-1.1q1.35.55.35 2.05-.9 1.35-1.4 2.8-1.1 2.95-3 5.25-1.45-1.5-1.45-4.4 0-1.15.55-2.75.4-.95.75-1.55m-6.8 13.7q-3.75 1.6-7.65.65-7.55-1.7-4.7-6l.25-.1.6-.15q1.65 0 3.7 2.6 1.35 1.6 2.05 2.95.7-.7 1.7-.7l2.85.45 1.2.3M7.25 11.95l.4.1q6.2 1.3 2.2 8.2-1.5 2.6-4.1.65l-1.5-1.15v-.85q0-3.15.25-3.8.5-1.65 2.75-3.15M39.7 25.8q-3.2.7-1.95-.8 1.8-.1 2.1.7l-.15.1" fill="#138cff"/><path d="m150.3 24.3 2.45 2.3q3.85 2.95 7.2-.65 5.25-5.5 5.2-12.15 0-1.3.35-2.6.95-3.35 2.9-6.45.65-.95.15-1.95-1.25-1.3-3.2-.35-1.4.7-2.6 1.6-2.4 1.7-3.95 3.85l-.25.4q-2.8 4.05-3.05 9.65l-.25.15q-4.75 1.15-5.65 3.05-.7 1.4.7 3.15M165.1 0q8.85.35 4.4 7.9l-2.1 3.05q2.4 6.75-1.9 13.55-5.15 8.25-14.1 4.15-4.45-2.05-4.45-6.5 0-3 3-5 2.2-1.45 4.35-1.8-.25-9.55 8.25-14.4 1.25-.7 2.55-.95M93.3 33.15l-4.35 6.05-1.15 1.4q-3.6 4.6-9.35 5.9-11.2 2.5-12.8-7-.4-2.4 1.45-4.3 5.5-5.9 10.8-.65 4.6-7.3 13.3-8.85 6.15 1.55 2.1 7.45m-5.65 5.05q1.9-2.3 3-5.25.5-1.45 1.4-2.8 1-1.5-.35-2.05l-3.55 1.1-.65.3q-3.7 1.6-6.65 4.4h-.05l-2.4 2.65q-1.75 2.2-3.75-.65l-1.1-1.1q-1.4-.75-3.3.95-1.15 1.05-1.8 1.95l-.1.15q-2.85 4.3 4.7 6 3.9.95 7.65-.65l.55-.25q3.9-1.8 6.4-4.75M4.25 19.75l1.5 1.15q2.6 1.95 4.1-.65 4-6.9-2.2-8.2l-.4-.1-1.15-.1q-6.85 3.2-1.85 7.9m-1.65 1.8q-4.2-4-1.65-8.95Q2.5 9.7 5.9 9.4q11.2.7 6.15 11-2.8 5.7-7.4 2.75-1-.6-2.05-1.6m33.05 5.3q-1.95-3.35 2.1-4.35 7.75 1.5 1.65 5.15-2.4 1.45-3.75-.8m4.05-1.05.15-.1q-.3-.8-2.1-.7-1.25 1.5 1.95.8" fill="#4a58b7"/><path d="M149.6 21.15q.9-1.9 5.65-3.05l.25-.15q.25-5.6 3.05-9.65-.65 2.6-.4 8.35.05 1.65-.6 2.3-.75.8-3.15.8-.75 0-3 .75l-1.8.65M73.55 34.8l1.1 1.1q2 2.85 3.75.65l2.4-2.65.05.05.3 1.25q0 1.85-1.15 3.1-1.3 1.4-3.35 1.4-1.25 0-2.15-.7-1.15-.85-1.15-2.55l.2-1.65" fill="#fff"/><path d="M162.75 4.05q-.55 1.1-1.4 4-1.05 3.45-1.05 4.8 0 1.4 1.6 5.25 0 3.85-5.5 5l-4.4.75-1.7.45q-1.4-1.75-.7-3.15l1.8-.65q2.25-.75 3-.75 2.4 0 3.15-.8.65-.65.6-2.3-.25-5.75.4-8.35l.25-.4q1.55-2.15 3.95-3.85M87.5 29.5q-.35.6-.75 1.55-.55 1.6-.55 2.75 0 2.9 1.45 4.4-2.5 2.95-6.4 4.75l-.55.25-1.2-.3-2.85-.45q-1 0-1.7.7-.7-1.35-2.05-2.95-2.05-2.6-3.7-2.6l-.6.15-.15-.05q.65-.9 1.8-1.95 1.9-1.7 3.3-.95l-.2 1.65q0 1.7 1.15 2.55.9.7 2.15.7 2.05 0 3.35-1.4 1.15-1.25 1.15-3.1l-.3-1.25-.05-.05h.05q2.95-2.8 6.65-4.4M7.25 11.95Q5 13.45 4.5 15.1q-.25.65-.25 3.8v.85q-5-4.7 1.85-7.9l1.15.1" fill="#5ffafd"/></g><g id="t" fill-rule="evenodd"><path d="m16.8 1.25 1.55 4.2 1 3.15q.65 1.35 2.1 3 2.65 2.85 4.6 1.35Q30.9 15.6 36.9 30.4q-5.05 6.85-19.05-5.95-8.2 1.4-12.55-2.5Q1.05 18.25 0 9.1l.6 2.1q3.6 12.15 13 11.4l4-.85q8 6.35 12.2 7.75l2.95.3.65-.35q-1.25-5-6.95-13.35-2.1 1.6-5.05-2.25-1.65-2.15-2.35-4.1-1.65-4.8-2.25-8.5" fill="#434186"/><path d="M16.8 1.25q.6 3.7 2.25 8.5.7 1.95 2.35 4.1 2.95 3.85 5.05 2.25 5.7 8.35 6.95 13.35L26.05 18.1q-2.25.75-4.8-2.25-1.8-2.05-2.5-4.6-1.55-5.4-1.95-10" fill="#ffc1bd"/><path d="m33.4 29.45-.65.35q-1.25-1.25-3.15-4.1-3.1-4.55-3.55-7.6l7.35 11.35" fill="#7979d4"/><path d="m12.65.1 2.7.1q1.1.35 1.45 1.05.4 4.6 1.95 10 .7 2.55 2.5 4.6 2.55 3 4.8 2.25.45 3.05 3.55 7.6 1.9 2.85 3.15 4.1l-2.95-.3q-3.7-2.85-6.65-9.35-5.5-1.6-8.35-5.75-1.7-2.55-1.85-6.2l-.5-4.05q-.35-2.6.2-4.05" fill="#95a8ed"/><path d="M0 9.1q.7-3.75 4.8-6.4Q8.55.3 12.65.1q-.55 1.45-.2 4.05l.5 4.05q.15 3.65 1.85 6.2 2.85 4.15 8.35 5.75 2.95 6.5 6.65 9.35-4.2-1.4-12.2-7.75l-4 .85q-.4-7-4.4-10.45-3.95-3.5-8.6-.95L0 9.1" fill="#b9d6ff"/><path d="M13.6 22.6q-9.4.75-13-11.4 4.65-2.55 8.6.95 4 3.45 4.4 10.45" fill="#fff"/></g><g id="u" fill-rule="evenodd"><path d="m14.65 25-1.8 1.45L8.1 29.9q3.1-3.15 7.1-8.3l5.8-7.95q5.4-7.85 7.35-7.5L14.65 25" fill="#95a8ed"/><path d="m8.1 29.9 4.75-3.45 1.8-1.45q9-7.85 13.7-18.85-.2 9.05-8.95 18.8Q10.8 34.6 2.3 35.7-5 26.8 11.1 4.5q-4.3 7.1-6.75 15.35-2.55 8.65-.95 12.4l2.8-1.3q.9-.5 1.9-1.05" fill="#434186"/><path d="M15.2 21.6q-4 5.15-7.1 8.3-1 .55-1.9 1.05l-2.8 1.3q-1.6-3.75.95-12.4Q6.8 11.6 11.1 4.5q2.85-1.9 5.25-2.95 5 4.1-1.15 20.05" fill="#fff"/><path d="M28.35 6.15Q26.4 5.8 21 13.65l-5.8 7.95q6.15-15.95 1.15-20.05 9.9-4.6 12 4.6" fill="#b9d6ff"/><path d="m14.65 25 13.7-18.85q-4.7 11-13.7 18.85" fill="#ffc1bd"/></g><g id="v" fill-rule="evenodd"><path d="M100.45 96.3q5.35 4.15 12.15 4.45.35 10.25-5.4 21.1 2.75-8.3 2.1-16.6-4.6-2.05-6.8-4.5-1.85-2.1-2.05-4.45m-39.7-40.05q5-3.1 8.05-3.95-1.15 4.45-3.35 9.25l-.6 1.3Q62.8 67 60 71.45q-7.75 12.4-17.9 20.1-3.75 2.9-8.2 4.8-4.7 2-8.5 2.2 10.45-3.85 20.4-15.3 11.1-12.9 14.8-26.95l.15-.05m11.2-4.2q2.7.75 1 6.25l-.9 1.25q-3.4.75-1.1-6.05l1-1.45m15.5 6.1q0 1.5-2.8 4.4l-.05.05-6-.15q1.9-.4 3.95-1.35 2.7-1.2 4.9-2.95m59.2 9.3q-9.5 1.85-15.05 4.4.9 8.65-3.6 14.1-4.1 4.95-11.35 5.95-7.05.95-14.05-2.3-5-2.35-8.7-6.25-1.85-1.95-3.3-4.3 18.25-7.75 49.2-11.6h6.85" fill="#7979d4"/><path d="m130.45 94.25-5 2.15-.25.05q-27.1 1.85-31.3-13.1 3.7 3.9 8.7 6.25 7 3.25 14.05 2.3 7.25-1 11.35-5.95 4.5-5.45 3.6-14.1 5.55-2.55 15.05-4.4l5.65.2q-6.75 13.6-21.85 26.6M105 125.6l-1.25 1.35-7.5 3.65Q65.15 145.7 39.7 142q-8.9-1.3-15.4-4.95 25.95 7.75 55.2-4.3 28.9-11.25 23-32 2.2 2.45 6.8 4.5.65 8.3-2.1 16.6l-2.2 3.75M87 57.2q.45.35.45.95-2.2 1.75-4.9 2.95-2.05.95-3.95 1.35l-5.4-.15q7.2-4.4 13.8-5.1m-37 74.65q.05 1.5-1.55 3.1-1.75 1.75-4 1.8-2.65.1-4.65-2.5 4.1 2.25 6.7.65 2.6-1.6.45-5.15 2.7.15 3 1.9l.05.2M70.95 53.5q-2.3 6.8 1.1 6.05-2.75 3.4-7.2 3.3l.6-1.3 5.5-8.05" fill="#95a8ed"/><path d="M125.2 96.45q-4.8 1.65-9.7 2.15-8.65.85-15.05-2.3.2 2.35 2.05 4.45 5.9 20.75-23 32-29.25 12.05-55.2 4.3l-4.2-2.8q-6.55-5.1-9.15-12.65 15.8 13.15 36 10.5-.85 3.15-7.15 2.15 2 2.6 4.65 2.5 2.25-.05 4-1.8 1.6-1.6 1.55-3.1 8.05-.85 15.65-6.3 9.35-1.35 16.85-6.5 7.15-5 10.5-11.95 3.4-7.2 1.65-14.2-1.9-7.65-9.6-13.35Q80.35 66.8 73.2 62.3l5.4.15 6 .15h.05q1.2 5.05 5.7 6.6 3.95 1.45 11.95.55l17.9-2.85q13.95-2.5 23.45-3.6l9.85 1.95-.45 2.45-.75-.05-5.65-.2h-6.85q-29.65.6-49.2 11.6 1.45 2.35 3.3 4.3 4.2 14.95 31.3 13.1" fill="#bdd9ff"/><path d="m130.45 94.25 1.6-.8q8.4-4.5 14-11.5 5.25-6.65 7-14.25l.45-2.45-9.85-1.95q-39.6-7.4-59-.7v-.05q2.8-2.9 2.8-4.4 0-.6-.45-.95-2.2-1.8-14.05 1.1 1.7-5.5-1-6.25l-3.15.25q-3.05.85-8.05 3.95l-.1-.15.3-1.3q14.9-9.55 14 .75 7.3-1.75 11.1-.75 2.45.6 3.45 2.35l.6 1.65.1.95q36.3-5.25 65.9 3.85-4.05 28.5-40.05 37.1 1.15 15.55-12.3 26.25l1.25-1.35q10.25-11.6 9.6-24.9l-2 .05q-6.8-.3-12.15-4.45 6.4 3.15 15.05 2.3 4.9-.5 9.7-2.15l.25-.05 5-2.15m9.35-26.8q-30.95 3.85-49.2 11.6 19.55-11 49.2-11.6m-100 66.8q6.3 1 7.15-2.15.3-1 0-2.35 2.15 3.55-.45 5.15-2.6 1.6-6.7-.65M10.95 121.6q2.6 7.55 9.15 12.65l4.2 2.8q6.5 3.65 15.4 4.95 25.45 3.7 56.55-11.4-14 9-29.85 12.75-15.15 3.55-28.55 1.6-13.45-1.9-21.55-8.9-8.6-7.35-9.05-18.85 7.3-8.35 5.85-24.8l3.1 3.25q1.15 13.85-6.2 22.5l.95 3.45" fill="#434186"/><path d="M153.05 67.7q-1.75 7.6-7 14.25-5.6 7-14 11.5l-1.6.8q15.1-13 21.85-26.6l.75.05m-40.45 33.05 2-.05q.65 13.3-9.6 24.9l2.2-3.75q5.75-10.85 5.4-21.1m-23.1-43.6q-1-1.75-3.45-2.35Q94.9 45.1 100.8 34l2.1 1.6q-4.85 10.9-13.4 21.55m19.5-44.2-.35 3.1-.45-.25.8-2.85m-1.2 4.2.6.25q-1.4 8.55-4.95 16.9l-2-1.5q3.85-7.55 6.35-15.65M55.95 34q7.9 13.2-2.45 35.3-12.85 23.1-32.15 29.2 23.6-14.1 32.05-31.7 7.45-15.65 2.55-32.8m-14.4 4.85.75-.3.35 1.3q.45 1.75 1.7 2.85 2.05 1.75 5.1.55-2.65 5.7-6 10.3.2-7.55-1.9-14.7" fill="#ffc1bd"/><path d="m90.1 58.8-.6-1.65q8.55-10.65 13.4-21.55l-2.1-1.6-3.65-2q-12.25-5.3-31.3 4.1l-1.6 2.65-2.7 5.05-.3-2.1 2.6-5.6Q81.35 1.2 110.6 0q5.45 30.6-20.5 58.8M109.3 10V3.2l-4.55.4q-12.4 1.9-23.4 12.35 11.75-4.8 21.25-2.35 2.3.6 4.5 1.65l1.1.55.45.25.35-3.1.05-.35.25-2.6m-1.5 7.15-1.3-.55q-2.45-.95-4.95-1.5-10.45-2.3-21.85 2.5-6.65 6.75-12.8 16.7 15.2-8.05 26.6-5.2 2.35.55 4.6 1.65 1.7.85 3.35 2.05l2 1.5q3.55-8.35 4.95-16.9l-.6-.25m-75.95 2.5q1.65.4 3.4 1.45-3.3-6.1-7.05-10.05l-2.25-2.1q-4.9 8.6-6.2 17.6 5.65-8.25 12.1-6.9m4.2 2.9-.3-.65-3.45-.9q-7.25-1-12.75 7.2l-.05.7q-.55 6.5.8 13.25.95-1.85 2-3.4 5.7-9.05 12.2-9.1 1.7-.05 3.45.6l1.75.75q-1.75-4.65-3.65-8.45m2.1 8.55-3.5-.35q-6.25.5-11.8 9.4l-2.15 3.8q.95 4 2.6 8.1 1.5-2.65 3.45-4.95 3.65-4.5 8.9-7.45 1.65-.95 3.45-1.75l2.65-1.05L40 31.8q-.95-.5-1.85-.7m1.15 8.65q-1.9.85-3.6 1.8-5 2.7-8.25 6.5-2 2.25-3.4 4.9l-.75-.9-4.85-5.45q-6.3-24.6 7.15-40 14.6 9.35 17.35 27.45-.65 1.85-.55 3.8.05 1.1.25 2l-.35-1.3-.75.3-2.25.9" fill="#652e2d"/><path d="m104.75 3.6 4.55-.4V10l-2.2 5.25q-2.2-1.05-4.5-1.65l.8-2.65q5.65 0 1.35-3.95V3.6M98.1 30.75q-2.25-1.1-4.6-1.65l8.05-14q2.5.55 4.95 1.5-3.55 7.5-8.4 14.15m-33.85 8 1.6-2.65q19.05-9.4 31.3-4.1-8.1 10.65-19.8 19-7.55-5.05-15.9.85.55-4.05.1-8.05Q76.3 44.95 88.3 33.55q-12-.85-24.05 5.2M28.2 11.05Q31.95 15 35.25 21.1q-1.75-1.05-3.4-1.45-1.55-4.35-3.65-8.6m-5.9 27.7q-1.05 1.55-2 3.4-1.35-6.75-.8-13.25l.05-.7Q25.05 20 32.3 21l3.45.9.3.65q1.15 3.9 1.9 7.7-1.75-.65-3.45-.6-.75-3.95-1.95-7.75-7.95.1-12.8 8.3 1 4.7 2.55 8.55m4.45 8.35q-1.95 2.3-3.45 4.95-1.65-4.1-2.6-8.1l2.15-3.8q5.55-8.9 11.8-9.4l3.5.35q.65 3.45.95 6.8-1.8.8-3.45 1.75-.2-3.9-.75-7.7-7.25 3.2-11.1 10.3l.05.1q1.3 2.6 2.9 4.75m8.95-5.55q1.7-.95 3.6-1.8.75 11.4-2.5 21.25l-4.95 3.9q-3.5-6.35-7.8-11.95 1.4-2.65 3.4-4.9 3.15 3.9 7.25 6.15 1.05-6.4 1-12.65" fill="#b36657"/><path d="M86.05 54.8q-3.8-1-11.1.75.9-10.3-14-.75l.5-2.95q8.35-5.9 15.9-.85 11.7-8.35 19.8-19l3.65 2q-5.9 11.1-14.75 20.8M109.3 10l-.25 2.6-.05.35-.8 2.85-1.1-.55 2.2-5.25m-2.8 6.6 1.3.55q-2.5 8.1-6.35 15.65-1.65-1.2-3.35-2.05 4.85-6.65 8.4-14.15m-70.45 5.95q1.9 3.8 3.65 8.45l-1.75-.75q-.75-3.8-1.9-7.7M39.1 37.9q-.3-3.35-.95-6.8.9.2 1.85.7l1.75 5.05-2.65 1.05m.2 1.85 2.25-.9q2.1 7.15 1.9 14.7Q40.4 57.7 36.8 61q3.25-9.85 2.5-21.25" fill="#893f3c"/><path d="M102.6 13.6q-9.5-2.45-21.25 2.35 11-10.45 23.4-12.35V7q4.3 3.95-1.35 3.95l-.8 2.65m-9.1 15.5q-11.4-2.85-26.6 5.2 6.15-9.95 12.8-16.7 11.4-4.8 21.85-2.5l-8.05 14M61.55 43.8l2.7-5.05q12.05-6.05 24.05-5.2-12 11.4-26.75 10.25M28.2 11.05q2.1 4.25 3.65 8.6-6.45-1.35-12.1 6.9 1.3-9 6.2-17.6l2.25 2.1m6.3 18.6q-6.5.05-12.2 9.1-1.55-3.85-2.55-8.55 4.85-8.2 12.8-8.3 1.2 3.8 1.95 7.75M26.75 47.1q-1.6-2.15-2.9-4.75l-.05-.1q3.85-7.1 11.1-10.3.55 3.8.75 7.7-5.25 2.95-8.9 7.45m.7.95q3.25-3.8 8.25-6.5.05 6.25-1 12.65-4.1-2.25-7.25-6.15" fill="#e47e6b"/><path d="m60.95 54.8-.3 1.3-.05.2q-3.7 14.05-14.8 26.95-9.95 11.45-20.4 15.3l-4.2 1.25q-2.75-2-5-4.15l-3.1-3.25q-2.7-3.15-4.55-6.55l5.45 4.2 1.25-.8 1.65 1.45 2.65 2.3q8.95-7.8 14.5-19.1-6.1-14.55-15.85-25.95l-.85-1.05-1.55 2.05-.7.95-.75.95-1.2-1.15q1.6-2.4 3.65-4.8l1.65 1.7 4.85 5.45.75.9q4.3 5.6 7.8 11.95L36.8 61q3.6-3.3 6.65-7.45 3.35-4.6 6-10.3-3.05 1.2-5.1-.55-1.25-1.1-1.7-2.85-.2-.9-.25-2-.1-1.95.55-3.8.45-1.4 1.35-2.8 2.35-3.6 6.8-5.6 5.8 2.45 8.85 11.2.85 2.4 1.3 4.85l.3 2.1q.45 4-.1 8.05l-.5 2.95m-5-20.8-2.35-3.2-1.95-2.05q-1.9-.3-4 2.55-1.9 2.6-2.75 5.8l-.15.6q-.65 2.9.5 3.95 1.45 1.35 5.3-1.15.95 3.85-4.65 11.9l-1.25 1.7-1.4 1.85-1.05 1.3-3.7 4Q35.15 64.5 32 66l3.7 7.9q-2.45 5.6-7.05 11.05-3.6 4.2-9.1 8.95l-4.6-3.3 4.35 5.35 2.05 2.55q19.3-6.1 32.15-29.2Q63.85 47.2 55.95 34m-47.5 8.5q3.1-4.5 1.3-7.9-.7-1.35-2.05-2.45l-.85-.65Q.7 38.45 3.9 59.1q.6 4.4 1.75 9.35l-1 4.55Q-.8 59.1.15 44.2q1-14.85 7.45-15.8Q17 35.9 10 44.7v10.5l-1.7 4.25Q7.1 53.2 7.6 43.6l.85-1.1" fill="#aa4103"/><path d="m19.3 95.95-4.35-5.35 4.6 3.3q5.5-4.75 9.1-8.95 4.6-5.45 7.05-11.05L32 66q3.15-1.5 6.5-4.75 4.4 3.75 6.95 14.1-11.4 13.75-26.15 20.6m22.9-38.7 1.05-1.3q4.85 3.65 8.1 10.95l-.6 1.5-.65.95q-3.15-8-7.9-12.1m3.7-4.85q5.6-8.05 4.65-11.9-3.85 2.5-5.3 1.15-1.15-1.05-.5-3.95 7.45 2 6.9-8.95l1.95 2.05q5.7 12.7-.05 30.45-2.4-5.95-7.65-8.85M9.75 34.6q-3.95 3.9-1.3 7.9l-.85 1.1q-2.2 4-2.5 10.2-.25 6.3 1.8 9.75-.7 2.4-1.25 4.9Q4.5 63.5 3.9 59.1q-.4-13.8 3.8-26.95 1.35 1.1 2.05 2.45m5.35 15.3q2.95 2.7 7.4 9.6 5.2 7.95 6.95 13.85-1.8 6.8-7.05 12.9-2.45 2.4-5.5 4.45l-1.65-1.45q8.15-5.5 11.6-16.65-3.5-12.55-12.05-21.3l-.45-.45.75-.95" fill="#fcd322"/><path d="m53.6 30.8 2.35 3.2q4.9 17.15-2.55 32.8-8.45 17.6-32.05 31.7l-2.05-2.55q14.75-6.85 26.15-20.6l4.65-6 .65-.95.6-1.5 2.2-5.65q5.75-17.75.05-30.45M8.45 42.5q-2.65-4 1.3-7.9 1.8 3.4-1.3 7.9M6.9 63.55Q4.85 60.1 5.1 53.8q.3-6.2 2.5-10.2-.5 9.6.7 15.85l-1.4 4.1m15.5 22.7Q27.85 81 30.55 74.1 25.3 58.85 15.8 48.95l1.55-2.05.85 1.05q9.75 11.4 15.85 25.95Q28.5 85.2 19.55 93l-2.65-2.3q3.05-2.05 5.5-4.45" fill="#e88a06"/><path d="m68.8 52.3 3.15-.25-1 1.45-5.5 8.05q2.2-4.8 3.35-9.25m4.15 6Q84.8 55.4 87 57.2q-6.6.7-13.8 5.1 7.15 4.5 11.85 17.25 7.7 5.7 9.6 13.35 1.75 7-1.65 14.2-3.35 6.95-10.5 11.95-7.5 5.15-16.85 6.5-7.6 5.45-15.65 6.3l-.05-.2q-.3-1.75-3-1.9.3 1.35 0 2.35-20.2 2.65-36-10.5l-.95-3.45q7.35-8.65 6.2-22.5 2.25 2.15 5 4.15l4.2-1.25q3.8-.2 8.5-2.2 4.45-1.9 8.2-4.8 10.15-7.7 17.9-20.1 2.8-4.45 4.85-8.6 4.45.1 7.2-3.3l.9-1.25m11.7 4.3q19.4-6.7 59 .7-9.5 1.1-23.45 3.6l-17.9 2.85q-8 .9-11.95-.55-4.5-1.55-5.7-6.6M38.5 61.25l3.7-4q4.75 4.1 7.9 12.1l-4.65 6Q42.9 65 38.5 61.25m4.75-5.3 1.4-1.85 1.25-1.7q5.25 2.9 7.65 8.85l-2.2 5.65q-3.25-7.3-8.1-10.95m1.5-18.25.15-.6q.85-3.2 2.75-5.8 2.1-2.85 4-2.55.55 10.95-6.9 8.95M7.7 32.15Q3.5 45.3 3.9 59.1.7 38.45 6.85 31.5l.85.65m7.4 17.75.7-.95q9.5 9.9 14.75 25.15-2.7 6.9-8.15 12.15 5.25-6.1 7.05-12.9-1.75-5.9-6.95-13.85-4.45-6.9-7.4-9.6m-.4 38.25-.55.4q-4.3-4-7.9-11.2 1.55-12.7 8.3-25.05l2.9 3.8q-4.55 5.6-7.1 11.55 2.55-4.4 9.45-8.05l1.05 1.75q-7 3.5-9.8 7.7 3.7-3.7 10.75-6.05l.9 1.7Q12.45 67.5 8.25 76.05q2.45 6.5 6.45 12.1" fill="#fff"/><path d="M5.65 68.45q.55-2.5 1.25-4.9l1.4-4.1L10 55.2q1.25-2.8 3.15-5.5l1.2 1.15.45.45q8.55 8.75 12.05 21.3-3.45 11.15-11.6 16.65l-1.25.8-5.45-4.2q-3.2-6-3.9-12.85l1-4.55m11.8-12.35-2.9-3.8Q7.8 64.65 6.25 77.35q3.6 7.2 7.9 11.2l.55-.4 2.65-2.05q3-2.75 5.2-6.4l1.9-3.6.05-.15L25.95 72l-.25-.65-3-6.65-.9-1.7-.95-1.65-1.05-1.75-2.35-3.5" fill="#083577"/><path d="M14.7 88.15q-4-5.6-6.45-12.1 4.2-8.55 14.45-11.35l3 6.65q-8.9-1.1-14.55 3.2 2.2 6.65 6.2 11.55l-2.65 2.05M21.8 63q-7.05 2.35-10.75 6.05 2.8-4.2 9.8-7.7L21.8 63m-2-3.4q-6.9 3.65-9.45 8.05 2.55-5.95 7.1-11.55l2.35 3.5m2.75 20.1Q21 78.75 21 77.55q0-.6.75-1.4.75-.9 1.6-.9.6 0 1.15.7l-.05.15-1.9 3.6m-3.8-.15.35-.25h.1q.65 0 .65.5 0 .95-.65.95l-.45-.3q-.3-.25-.3-.45 0-.3.3-.45m-1.4-2.2q-.5-.3-.5-.75l.05-.7.8-.1.75.05q.65.3.65.85 0 .85-.9.85l-.85-.2" fill="#01d5ff"/><path d="m25.7 71.35.25.65-1.45 3.95q-.55-.7-1.15-.7-.85 0-1.6.9-.75.8-.75 1.4 0 1.2 1.55 2.15-2.2 3.65-5.2 6.4-4-4.9-6.2-11.55 5.65-4.3 14.55-3.2m-8.35 6 .85.2q.9 0 .9-.85 0-.55-.65-.85l-.75-.05-.8.1-.05.7q0 .45.5.75m1.4 2.2q-.3.15-.3.45 0 .2.3.45l.45.3q.65 0 .65-.95 0-.5-.65-.5h-.1l-.35.25" fill="#0f4592"/><path d="M69.45 84.85q-1.8-.55-3.65-.55-6.3.05-11.5 6.05-2.8 3.25-4.75 7.65-1.2 2.6-2.05 5.65l-1 3.85q.6-11.7 6.8-18.6 5.65-6.35 13.3-6.1 7.75.25 13.05 7.15 5.9 7.7 6.1 21-2.6-13.2-8.35-20.25-1.5-1.9-3.15-3.2l-1-.8q-1.85-1.25-3.8-1.85l2.05 1.9-.45.2-1.6-2.1m4.05 6 .5-.4.3-.25q3.6 5.35 4 12.3l-.1 4.55q-.5 5.85-3.3 10.15-2.85 4.45-7.15 5.7-8.2 2.4-14.45-3.35-6.25-5.85-5.8-15.9.6 7.45 4.25 12.25 2.15 2.75 5.35 4.6l1.7.9q2.7 1.15 5.35 1.05l.65-.05q4.1-.35 7.2-3.55 2.05-2.1 3.3-4.65 2.3-4.75 1.85-11.05-.5-6.45-3.65-12.3" fill="#2f091d"/><path d="M49.55 98q1.95-4.4 4.75-7.65 5.2-6 11.5-6.05 1.85 0 3.65.55l1.6 2.1-.3.25q-.65.7-.65 1.65l.1.6-6.45-.45q-7.25 1-14.2 9" fill="#561035"/><path d="m73.25 86.7 1 .8q.45.6.45 1.35 0 .75-.4 1.35l-.3.25-.5.4-1.1.3q-.95 0-1.65-.7-.4-.4-.55-1l-.1-.6q0-.95.65-1.65l.3-.25.45-.2.9-.2.85.15m-5.5 36.2q4.3-1.25 7.15-5.7 2.8-4.3 3.3-10.15l.1-4.55q4.4 2.55 7.45 8.45-1.1 4.95-7.3 8.55-5.5 3.2-10.7 3.4M52.6 109.25q-.75-5.95 1.9-11.7 3.55-7.5 9.4-7.5 5.2 0 7.85 4.35 2.35 3.9 2.05 10-.1 3.4-1.1 6.55-4.65-8.3-11.4-7.05-6.45 1.25-7.75 9.25l1-.25q.85 0 1.45.6.65.65.65 1.5v.2q-.05.75-.65 1.3-.4.45-1 .55l-.45.05q-.85 0-1.5-.6-.6-.6-.6-1.5 0-.85.6-1.5l.4-.3q-.5-1.8-.85-3.95" fill="#fff"/><path d="M69.45 84.85q1.95.6 3.8 1.85l-.85-.15-.9.2-2.05-1.9m4.8 2.65q1.65 1.3 3.15 3.2 5.75 7.05 8.35 20.25-3.05-5.9-7.45-8.45-.4-6.95-4-12.3.4-.6.4-1.35 0-.75-.45-1.35" fill="#de95d2"/><path d="M47.5 103.65q.85-3.05 2.05-5.65 6.95-8 14.2-9l6.45.45q.15.6.55 1 .7.7 1.65.7l1.1-.3q3.15 5.85 3.65 12.3.45 6.3-1.85 11.05.9-4.55-1.5-9.8.3-6.1-2.05-10-2.65-4.35-7.85-4.35-5.85 0-9.4 7.5-2.65 5.75-1.9 11.7l-.85 6.65q-3.65-4.8-4.25-12.25" fill="#8b1453"/><path d="M75.3 114.2q-1.25 2.55-3.3 4.65-3.1 3.2-7.2 3.55l-.65.05q2.9-1.25 5.1-4.25l1.75-2.9q1.1-2.15 1.7-4.35 1-3.15 1.1-6.55 2.4 5.25 1.5 9.8m-16.5 7.2-1.7-.9q-3.2-1.85-5.35-4.6l.85-6.65q.35 2.15.85 3.95l-.4.3q-.6.65-.6 1.5 0 .9.6 1.5.65.6 1.5.6l.45-.05q1.5 2.55 3.8 4.35" fill="#e12f8b"/><path d="M72.7 110.95q-.6 2.2-1.7 4.35l-1.75 2.9q-6-11.5-12.6-3v-.2q0-.85-.65-1.5-.6-.6-1.45-.6l-1 .25q1.3-8 7.75-9.25 6.75-1.25 11.4 7.05" fill="#fd76bc"/><path d="M64.15 122.45q-2.65.1-5.35-1.05-2.3-1.8-3.8-4.35.6-.1 1-.55.6-.55.65-1.3 6.6-8.5 12.6 3-2.2 3-5.1 4.25" fill="#d55597"/></g><g id="w" fill-rule="evenodd"><path d="m67.05 9.2.3-2q-.05-1.4-1.3-3.4-1.3-2-2.45-1.85h-.3Q49.75 1.2 29.9 14.8 12.7 26.45 2.15 40.05l1.5 1.4h.15q14.4 1.2 26.1 12.05 1-.6 1.95-.7.35-.05.7.2l.3.6-.2.7q-.25.3-.6.3-.7.1-1.4.6l-.05.05h-.05l-.05.1-.05.05-.05.05q-.5.4-.5 1 .05 1.25 1.4 2l-.05-.05q1.25.65 2.6.65l1.65-.15q1.45-.25 2.25-.95V58q1-1 1-2.9-.1-.55-1.15-1.55-1.8-1.6-1.8-4.7 0-4.95 2.25-7.75h.05q1.9-2.6 5.4-3.2l.05-.8q.4-2.55 4.15-3.35l.7.1.4.6v.5l-.1.15-.55.45q-2.5.55-2.75 2.15l.05.1 2.45 2.05q1.1.65 2.05.65 2.05-.05 3.35-3.15l.25-1.25q-.1-1-1.2-1.75-2.45-1.75-3.75-3.95-2-3.4-.95-7.9.7-3.1 2.7-5.8 2.75-3.8 6.9-5.55l.55.6q.85 1.6-2.45 3.45l.5.85q.75.6 1.95.6 3.05 0 5.6-2.3l1.25-1.25q1.7-1.95 2.35-3.8l.05-.1M63.3.1q2.2-.6 4.3 2.65 1.65 2.6 1.6 4.45.05 3.35-3.15 7.1-3.7 4.2-8.25 4.15-1.95 0-3.15-1.05v.05q-.65-.55-.95-1.25-1.55 1.05-2.6 2.7-5.55 8.65 3.3 15.4 1.5 1.1 1.15 3.05-1.4 7.9-9.4 3.45l-1.85-1.25h-.05l-.2-.05H44l-.15-.15-.2-.4.25.75q-2.85.45-4.4 2.5v.05q-1.85 2.35-1.85 6.6 0 2.2 1.15 3.4 1.85 1.75 1.75 2.85 0 2.85-1.55 4.25-1.65 1.5-5.15 1.5-1.8 0-3.45-.8-2.35-1.25-2.3-3.6 0-.9.45-1.65-11.3-10.5-25.3-11.55-.3-.05-.55-.25L.3 40.8l-.3-.6q-.05-.35.2-.65Q11 25.45 28.85 13.3 49.25-.65 63.3.1M41.65 27.65l-2.8.85-2.8.65-5.2.8-2.2.1-2.4-.6q-1.1-1.05-.3-2.9 3.1-7.1 10.6-10.75 3.3-1.5 5.1-1.85-3.95 1.6-8.45 5.65-5.15 4.6-5.95 8.25.15.4 1.5.55l1.95.1h.05l10.4-.8.5-.05m-10.7 10.1q1 .15 1.8.55l.6.15q2.55 1.05 3.6 1.9-1.35-.65-3.2-1.05l-2-.35-2.8-.15q-6.3-.35-9.25 1.55-.35.75.75 1.55L28 47.5l.35.25-1.9-.85-1.95-.95-3.6-2.3-1.3-.95q-1.55-1.3-1.6-2-.05-.8.5-1.35.4-.4 1.2-.7 5.25-2.05 10.45-1.1l.8.2" fill="#aa4103"/><path d="m67.05 9.2-.05.1q-.65 1.85-2.35 3.8l-1.25 1.25q-2.8-3.2-5.6-2.6l-.55-.6q-7.3 1.65-11.55 6-4.25 4.4-2.2 8.2l-7.45-1q-3.45-.75 5.6-10.4-1.8.35-5.1 1.85-7.5 3.65-10.6 10.75-.8 1.85.3 2.9l2.4.6 2.2-.1 5.2-.8 2.8-.65 2.8-.85v-.1l3.3-.9q1.5 2.6 3.65 3.75 1.3 2.2 3.75 3.95 1.1.75 1.2 1.75-3.1 1.75-3.6 4.4-.95 0-2.05-.65 3.2-2.45.9-4.9v-.5l-.4-.6-.7-.1q-3.75.8-4.15 3.35-3.85-.25-6.75 1.45l-5.85-.85-.8-.15q-5.2-.95-10.45 1.1-.8.3-1.2.7-.55.55-.5 1.35.05.7 1.6 2l1.3.95 3.6 2.3 1.95.95 1.9.85 4.2 2.95q1.6 3.25 4.35 4.65.8 2.6-1.4 3.55l-1.65.15q-1.35 0-2.6-.65l.05.05q-1.35-.75-1.4-2 0-.6.5-1l.05-.05.05-.05.05-.1h.05l.05-.05q.7-.5 1.4-.6.35 0 .6-.3l.2-.7-.3-.6q-.35-.25-.7-.2-.95.1-1.95.7Q18.2 42.65 3.8 41.45l8.45.25q1.45.4 5.05 2.15 3.05 1.45 4.8 2.5-5.5-5.35-14.55-7.4 14.5-6.75 34.1-7-19.45-3-31.65 2.65Q19.65 24.05 35.4 15 46.7 8.75 59.95 4.05q2.25 7.55 7.1 5.15m-35 37.6-7.75-5.2 9.45.25-1.7 4.95" fill="#fcd322"/><path d="M63.4 14.35q-2.55 2.3-5.6 2.3-1.2 0-1.95-.6l-.5-.85q3.3-1.85 2.45-3.45 2.8-.6 5.6 2.6m-6.15-3.2q-4.15 1.75-6.9 5.55-2 2.7-2.7 5.8-1.05 4.5.95 7.9-2.15-1.15-3.65-3.75l-3.3.9-.5.15-10.4.8h-.05l-1.95-.1q-1.35-.15-1.5-.55.8-3.65 5.95-8.25 4.5-4.05 8.45-5.65-9.05 9.65-5.6 10.4l7.45 1q-2.05-3.8 2.2-8.2 4.25-4.35 11.55-6m-3.7 24.95-.25 1.25q-1.3 3.1-3.35 3.15.5-2.65 3.6-4.4m-10 1-.05.8q-3.5.6-5.4 3.2h-.05q-2.25 2.8-2.25 7.75 0 3.1 1.8 4.7 1.05 1 1.15 1.55 0 1.9-1 2.9v-.05q-.8.7-2.25.95 2.2-.95 1.4-3.55-2.75-1.4-4.35-4.65l-4.2-2.95-.35-.25-7.55-5.6q-1.1-.8-.75-1.55 2.95-1.9 9.25-1.55l2.8.15 2 .35q1.85.4 3.2 1.05-1.05-.85-3.6-1.9l-.6-.15q-.8-.4-1.8-.55v-.05l5.85.85q2.9-1.7 6.75-1.45m-11.5 9.7 1.7-4.95-9.45-.25 7.75 5.2" fill="#e88a06"/><path d="M3.8 41.45h-.15l-1.5-1.4Q12.7 26.45 29.9 14.8 49.75 1.2 63.3 1.95h.3q1.15-.15 2.45 1.85 1.25 2 1.3 3.4l-.3 2q-4.85 2.4-7.1-5.15Q46.7 8.75 35.4 15 19.65 24.05 10 34.6q12.2-5.65 31.65-2.65-19.6.25-34.1 7Q16.6 41 22.1 46.35q-1.75-1.05-4.8-2.5-3.6-1.75-5.05-2.15l-8.45-.25m44.1-1.6-2.45-2.05-.05-.1q.25-1.6 2.75-2.15l.55-.45.1-.15q2.3 2.45-.9 4.9" fill="#fff"/></g><use ffdec:characterId="2" height="131.05" transform="translate(0 23.95)" width="147.55" xlink:href="#n" id="c"/><use ffdec:characterId="7" height="24.8" width="24.55" xlink:href="#o" id="d"/><use ffdec:characterId="9" height="39.95" width="22.25" xlink:href="#p" id="e"/><use ffdec:characterId="11" height="49" width="77.9" xlink:href="#q" id="f"/><use ffdec:characterId="13" height="220.35" width="218.4" xlink:href="#r" id="g"/><use ffdec:characterId="18" height="47" transform="translate(6.1 6.05)" width="171" xlink:href="#s" id="h"/><use ffdec:characterId="23" height="32.8" width="36.9" xlink:href="#t" id="i"/><use ffdec:characterId="25" height="35.7" width="28.35" xlink:href="#u" id="j"/><use ffdec:characterId="27" height="145.65" width="156.1" xlink:href="#v" id="k"/><use ffdec:characterId="33" height="60.85" width="69.2" xlink:href="#w" id="l"/><linearGradient gradientTransform="matrix(-.0126 .0472 -.9659 -.2588 314.2 156.35)" gradientUnits="userSpaceOnUse" id="m" spreadMethod="pad" x1="-819.2" x2="819.2"><stop offset="0" stop-color="#8436a9"/><stop offset="1" stop-color="#95a8ed"/></linearGradient><path d="M27.75 0q0 2-8.15 3.4Q11.5 4.9 0 4.9q-11.5 0-19.65-1.5-8.1-1.4-8.1-3.4 0-2.05 8.1-3.5Q-11.5-4.9 0-4.9q11.5 0 19.6 1.4 8.15 1.45 8.15 3.5" fill-opacity=".349" fill-rule="evenodd" transform="translate(27.75 4.9)" id="b"/></defs></svg>