<svg xmlns:ffdec="https://www.free-decompiler.com/flash" xmlns:xlink="http://www.w3.org/1999/xlink" ffdec:objectType="frame" height="90" width="90" xmlns="http://www.w3.org/2000/svg"><use ffdec:characterId="29" height="178.4" transform="matrix(.515 0 0 .5153 -.245 -1.16)" width="164" xlink:href="#a"/><use ffdec:characterId="30" height="61.9" transform="scale(1.8091 1.454)" width="49.75" xlink:href="#b"/><defs><g id="a" transform="translate(14.65 2.25)"><use ffdec:characterId="1" height="44.2" transform="translate(14.5 145.05) scale(.6691)" width="166.5" xlink:href="#c"/><use ffdec:characterId="2" height="53.85" transform="translate(30.114 125.014) scale(.6691)" width="38.6" xlink:href="#d"/><use ffdec:characterId="3" height="100.7" transform="translate(76.68 88.669) scale(.6691)" width="36.9" xlink:href="#e"/><use ffdec:characterId="4" height="74.95" transform="matrix(.6755 -.178 .178 .6755 99.717 82.47)" width="51.85" xlink:href="#f"/><use ffdec:characterId="5" height="100.45" transform="translate(22.564 66.814) scale(.6691)" width="143.4" xlink:href="#g"/><use ffdec:characterId="6" height="98.75" transform="translate(81.664 98.414) scale(.6691)" width="57.15" xlink:href="#h"/><use ffdec:characterId="7" height="76.25" transform="translate(34.964 119.8) scale(.6691)" width="49.2" xlink:href="#i"/><use ffdec:characterId="8" height="77.3" transform="translate(16.837 52.27) scale(.6691)" width="74.85" xlink:href="#j"/><use ffdec:characterId="9" height="35.45" transform="matrix(.5221 -.4168 .4168 .5221 -.04 103.308)" width="42.5" xlink:href="#k"/><use ffdec:characterId="10" height="41.45" transform="translate(22.997 80.58) scale(.6691)" width="71.75" xlink:href="#l"/><use ffdec:characterId="11" height="61.05" transform="rotate(-9.773 684.861 32.297) scale(.6684)" width="60.8" xlink:href="#m"/><use ffdec:characterId="12" height="23.7" transform="translate(28.465 110.465) scale(.6691)" width="22.7" xlink:href="#n"/><use ffdec:characterId="13" height="20.9" transform="translate(35.542 98.279) scale(.6691)" width="16.75" xlink:href="#o"/><use ffdec:characterId="14" height="39.6" transform="translate(6.164 98.814) scale(.6691)" width="35" xlink:href="#p"/><use ffdec:characterId="15" height="171.2" transform="translate(6.914 -1.238) scale(.6691)" width="141.35" xlink:href="#q"/><use ffdec:characterId="16" height="116.95" transform="translate(-.836 4.516) scale(.6691)" width="104.05" xlink:href="#r"/><use ffdec:characterId="17" height="21.3" transform="translate(22.917 47.741) scale(.6691)" width="11.5" xlink:href="#s"/><use ffdec:characterId="18" height="15.85" transform="translate(28.636 51.43) scale(.6691)" width="16.95" xlink:href="#t"/><clipPath id="u" transform="translate(23.25 47.75) scale(.6691)"><path d="M24.05 6.5q1.4 1.05.7 4.05-.7 2.9-3.35 5.5-2.6 2.65-7 4.4-4.45 1.8-5.8-.05-1.35-1.85.5-5.65 1.85-3.9 4.45-6.55 2.65-2.6 5.9-2.7 3.2-.05 4.6 1" fill="#f9ffff" fill-rule="evenodd"/></clipPath><g clip-path="url(#u)"><use ffdec:characterId="19" height="19.95" transform="translate(27.666 49.222) scale(.6691)" width="16.15" xlink:href="#v"/></g><use ffdec:characterId="20" height="22.05" transform="translate(27.265 48.52) scale(.6691)" width="21.7" xlink:href="#w"/><use ffdec:characterId="21" height="83.45" transform="translate(15.724 26.029) scale(.6691)" width="66.65" xlink:href="#x"/></g><g id="d"><path d="M4.7 0h17.9q-2.05 10.6-4.5 17.25 5.45 4.55 9.35 8.9-4.75 7.9-12.3 9.95-2.2-7.85-8.35-15.75Q4.95 13.05 4.7 0m11.55 21.4 1.85-4.15-1.85 4.15" fill="#c4f2ff" fill-rule="evenodd" transform="translate(1.25 1.25)"/><path d="M13.6 36.45q-4.05-7-11.2-11.55-2.7-1.55-2.35-4.05Q1.35 13.15.4 0h4.3q.25 13.05 2.1 20.35 6.15 7.9 8.35 15.75l-1.55.35" fill="#f9ffff" fill-rule="evenodd" transform="translate(1.25 1.25)"/><path d="M27.45 26.15q6.65 7.45 8.65 14.2-1.15 11.35-17.75 11-1.1-8.5-4.75-14.9l1.55-.35q7.55-2.05 12.3-9.95" fill="#2a96c4" fill-rule="evenodd" transform="translate(1.25 1.25)"/><path d="M5.95 1.25h17.9q-2.05 10.6-4.5 17.25 5.45 4.55 9.35 8.9M14.85 37.7q-4.05-7-11.2-11.55Q.95 24.6 1.3 22.1q1.3-7.7.35-20.85h4.3" fill="none" stroke="#3c5566" stroke-linecap="round" stroke-linejoin="round" stroke-width="2.5"/><path d="M15.15 36.1q7.55-2.05 12.3-9.95M13.6 36.45l1.55-.35m2.95-18.85-1.85 4.15" fill="none" stroke="#3c5566" stroke-linecap="round" stroke-linejoin="round" transform="translate(1.25 1.25)"/><path d="M28.7 27.4q6.65 7.45 8.65 14.2-1.15 11.35-17.75 11-1.1-8.5-4.75-14.9" fill="none" stroke="#283a46" stroke-linecap="round" stroke-linejoin="round" stroke-width="2.5"/></g><g id="e"><path d="M4.55 42.4q7.9-15.9 5.95-21.55-4.95-4.7-7.85-12.25-8-31.75 6.35-42.5Q39.15-52.8 33.2.2l-2.4 15.35q-5.45 14.65-6.55 30.7-4.4-.6-9.4 1.2-.85.2-1.65.55l-3.4.65 3.4-.65q.8-.35 1.65-.55 2.35 2.95-2.65 11.9L7.9 59l-2-.65 3.9-9.7q-2.95.05-4.25-1.8-1.05-1.55-1-4.45-.05 2.9 1 4.45L.4 54.25q-.8-1.8 0-4.05l4.15-7.8m8.8-16.95q-1.65 1.9-3.9 9.3L6.4 43.3q.65 4.9 4.85 2.6 3-5.05 4.8-15.2.4-7.1-2.7-5.25" fill="#c4f2ff" fill-rule="evenodd" transform="translate(1.45 40.1)"/><path d="M5.55 46.85q1.3 1.85 4.25 1.8l-3.9 9.7Q1.5 56.7.4 54.25l5.15-7.4m7.8-21.4q3.1-1.85 2.7 5.25-1.8 10.15-4.8 15.2-4.2 2.3-4.85-2.6l3.05-8.55q2.25-7.4 3.9-9.3" fill="#f9ffff" fill-rule="evenodd" transform="translate(1.45 40.1)"/><path d="M14.85 47.45q5-1.8 9.4-1.2-.25 4.15-.25 8.4-2.55 4.85-11.8 4.7 5-8.95 2.65-11.9" fill="#2a96c4" fill-rule="evenodd" transform="translate(1.45 40.1)"/><path d="m33.2.2.65-.2M4.55 42.4q-.05 2.9 1 4.45 1.3 1.85 4.25 1.8l3.4-.65q.8-.35 1.65-.55 5-1.8 9.4-1.2" fill="none" stroke="#3c5566" stroke-linecap="round" stroke-linejoin="round" transform="translate(1.45 40.1)"/><path d="M25.7 86.35q1.1-16.05 6.55-30.7l2.4-15.35q5.95-53-24.2-34.1Q-3.9 16.95 4.1 48.7q2.9 7.55 7.85 12.25Q13.9 66.6 6 82.5" fill="none" stroke="#3c5566" stroke-linecap="round" stroke-linejoin="round" stroke-width="2.5"/><path d="M25.7 86.35q-.25 4.15-.25 8.4-2.55 4.85-11.8 4.7l-4.3-.35-2-.65q-4.4-1.65-5.5-4.1-.8-1.8 0-4.05L6 82.5" fill="none" stroke="#283a46" stroke-linecap="round" stroke-linejoin="round" stroke-width="2.5"/></g><g id="f"><path d="m36.15 24.55-.2 3.1Q34.4 20.1 31.2 16.1q2.15 7.75.95 16.25-1.05 5.05-.3 8.8l.3 1.35-.55-1.35Q29.75 36 30 29.5q-1 6.4-1 11.65Q29 62.5 45.8 64.6 31.4 69.15 23 50.85q-.25 4.25 1.85 9.85l-4.15-6.6q.85 7.25 8.05 13-11.3-3.35-10.5-22.5l.3-3.45q.25-6.4-1-12 2.6 2.05 3.3 7.8 1.8-3.45 0-9.55 2.85 2.35 4.45 8.5-.05-15.6-6.7-23.3l-2.2-2.15q3.4-.1 7.15 2.15l2.5 1.75-.95-1.75q-4.5-7.3-11.7-7.7 6.8-3.45 13.9 3.2-.4-3.95-3.05-6.75 7.3 3.05 10.15 10.8l.15.45q1.75 5 1.6 11.95" fill="#f9ffff" fill-rule="evenodd" transform="translate(1.2 1.25)"/><path d="M35.95 27.65q-.45 7.9 1.2 13.5 1.3 4.5 4 7.55-4.05.5-6.2-1.95Q38.7 63.6 48.65 62.6l-.85 1.95q-11.65 5.85-19.95-1 3.7 5.8 11 8.5l-1.5.2q-5.7.85-10.05-1.55Q7.7 62.15 2.2 41.15-1 28.95.55 12.6l.15-1.8q2.3.4 4.25 1.8 6.7 4.9 8.55 22.1 4.25-12.25-1.7-20.15 4.5 1.5 9.05 8-2.05-6.35-5.7-9.95-2.4-2.4-5.5-3.55 2.9-1.3 8-.4-5.5-3.4-11.4-1.95l5.1-5.7Q16.3-.85 22.4.65l1.85.7q2.65 2.8 3.05 6.75-7.1-6.65-13.9-3.2 7.2.4 11.7 7.7l.95 1.75-2.5-1.75q-3.75-2.25-7.15-2.15l2.2 2.15q6.65 7.7 6.7 23.3-1.6-6.15-4.45-8.5 1.8 6.1 0 9.55-.7-5.75-3.3-7.8 1.25 5.6 1 12l-.3 3.45q-.8 19.15 10.5 22.5-7.2-5.75-8.05-13l4.15 6.6q-2.1-5.6-1.85-9.85 8.4 18.3 22.8 13.75Q29 62.5 29 41.15q0-5.25 1-11.65-.25 6.5 1.6 11.65l.55 1.35-.3-1.35q-.75-3.75.3-8.8 1.2-8.5-.95-16.25 3.2 4 4.75 11.55M27.3 70.7q-6.3-3.55-9.7-13.75-1.2-4.7-1.35-10.85.15 6.15 1.35 10.85 3.4 10.2 9.7 13.75m6.05-34.6.6 5.05 1 5.6-1-5.6-.6-5.05m-15.8 25.1q-2.8-5.65-3.45-14.6l-.15-5.45-.45-6.45.45 6.45.15 5.45q.65 8.95 3.45 14.6" fill="#cdf0ff" fill-rule="evenodd" transform="translate(1.2 1.25)"/><path d="m34.4 12.15.25.45q6.1 12.1 9.65 11.25-3.15 4.2-8.15.7.15-6.95-1.6-11.95l-.15-.45" fill="#c6f4ff" fill-rule="evenodd" transform="translate(1.2 1.25)"/><path d="M.7 10.8Q5.1 3.3 11.35 1l-5.1 5.7q5.9-1.45 11.4 1.95-5.1-.9-8 .4 3.1 1.15 5.5 3.55 3.65 3.6 5.7 9.95-4.55-6.5-9.05-8 5.95 7.9 1.7 20.15-1.85-17.2-8.55-22.1Q3 11.2.7 10.8" fill="#93dfff" fill-rule="evenodd" transform="translate(1.2 1.25)"/><path d="M47.8 64.55q-3.4 6.35-8.95 7.5-7.3-2.7-11-8.5 8.3 6.85 19.95 1" fill="#90e3ff" fill-rule="evenodd" transform="translate(1.2 1.25)"/><path d="M.7 10.8q2.3.4 4.25 1.8 6.7 4.9 8.55 22.1l.45 6.45.15 5.45q.65 8.95 3.45 14.6m17.4-14.45-1-5.6-.6-5.05m-17.1 10q.15 6.15 1.35 10.85 3.4 10.2 9.7 13.75" fill="none" stroke="#3c5566" stroke-linecap="round" stroke-linejoin="miter-clip" stroke-miterlimit="3" transform="translate(1.2 1.25)"/><path d="m35.6 13.4.25.45q6.1 12.1 9.65 11.25-3.15 4.2-8.15.7l-.2 3.1q-.45 7.9 1.2 13.5 1.3 4.5 4 7.55-4.05.5-6.2-1.95 3.75 16.85 13.7 15.85L49 65.8q-3.4 6.35-8.95 7.5l-1.5.2q-5.7.85-10.05-1.55Q8.9 63.4 3.4 42.4.2 30.2 1.75 13.85l.15-1.8q4.4-7.5 10.65-9.8Q17.5.4 23.6 1.9l1.85.7q7.3 3.05 10.15 10.8z" fill="none" stroke="#3c5566" stroke-linecap="round" stroke-linejoin="miter-clip" stroke-miterlimit="3" stroke-width="2.5"/></g><g id="g"><path d="M.2 47.05q27.4 5.55 46.3-6.2Q39.6 49.5 41.6 57q6.3-13.2 19.5-16.65 7.8-1.85 14.85-4.85l-3.5 3.4Q86.4 35.25 92.9 19.35l-.75 6.25q10.7-10.2 1.35-15.45-7.7-3.65-17.45-13.5 12.05 9.8 29.7 7.55 18.15-4.65 30.6 15.2 8.05 13.55 1.8 29.1L117.1 72.45l-3.95 2.95q-29.65-.5-50.3 7.4-35.45 5.95-55.7-11.3Q-1.1 59.8.2 47.05" fill="#c4f2ff" fill-rule="evenodd" transform="translate(1.25 14.85)"/><path d="M76.05-3.35Q85.8 6.5 93.5 10.15q9.35 5.25-1.35 15.45l.75-6.25q-6.5 15.9-20.45 19.55l3.5-3.4q-7.05 3-14.85 4.85Q47.9 43.8 41.6 57q-2-7.5 4.9-16.15Q27.6 52.6.2 47.05q1.2-11.35 8.2-19 23.65-62.3 67.65-31.4" fill="#93dfff" fill-rule="evenodd" transform="translate(1.25 14.85)"/><path d="M1.45 61.9Q.15 74.65 8.4 86.35q20.25 17.25 55.7 11.3 20.65-7.9 50.3-7.4l3.95-2.95 21.05-23.95q6.25-15.55-1.8-29.1-12.45-19.85-30.6-15.2-17.65 2.25-29.7-7.55-44-30.9-67.65 31.4" fill="none" stroke="#3c5566" stroke-linecap="round" stroke-linejoin="round" stroke-width="2.5"/><path d="M8.4 28.05q-7 7.65-8.2 19" fill="none" stroke="#3c5566" stroke-linecap="round" stroke-linejoin="round" transform="translate(1.25 14.85)"/></g><g id="h"><path d="m0 28.85 21.75-8.2q3 22.55 18.8 20.6l-4.7 3.2q-2.6 1.3-5.1 2.05 12.35 3.9 6.2 29.25-1.2 5.2-4.05 6.05-3.35-.25-4.75-4.6 4.45-13.6 1.5-30.4Q11 51.75 0 28.85M30.9 94.7q-4.8-1.8-6.5-3.85l5.1-8.4q2 1.7 5.6.8L30.9 94.7m-.15-48.2-1.1.3 1.1-.3" fill="#f9ffff" fill-rule="evenodd" transform="translate(1.25 1.25)"/><path d="m21.75 20.65 8.5-3.2L52.6 0q.5 15.85-7.25 28.25-1.9 6.8 5.05 5.8 6.75-.7 2.75 13.05L49.4 61.7q-1.75 9.5-1.45 19.15l-6.45.25q-2.35.5-4.9 1.65l-1.5.5q-3.6.9-5.6-.8-1.35-1.2-2-3.45l.65-1.8q1.4 4.35 4.75 4.6 2.85-.85 4.05-6.05 6.15-25.35-6.2-29.25 2.5-.75 5.1-2.05l4.7-3.2q-15.8 1.95-18.8-20.6" fill="#c4f2ff" fill-rule="evenodd" transform="translate(1.25 1.25)"/><path d="M47.95 80.85q.05 5.5.85 11.1-4.5 4.75-11.3 4.25 3.55-5.35 4-15.1l6.45-.25" fill="#2a96c4" fill-rule="evenodd" transform="translate(1.25 1.25)"/><path d="M37.5 96.2q-3.05-.2-6.6-1.5l4.2-11.45 1.5-.5q2.55-1.15 4.9-1.65-.45 9.75-4 15.1m-13.1-5.35q-1.7-2-.5-4.15 2.1-3.75 3.6-7.7.65 2.25 2 3.45l-5.1 8.4" fill="#93dfff" fill-rule="evenodd" transform="translate(1.25 1.25)"/><path d="M53.85 1.25q.5 15.85-7.25 28.25-1.9 6.8 5.05 5.8 6.75-.7 2.75 13.05l-3.75 14.6q-1.75 9.5-1.45 19.15m-19.8-3.65q4.45-13.6 1.5-30.4Q12.25 53 1.25 30.1" fill="none" stroke="#3c5566" stroke-linecap="round" stroke-linejoin="round" stroke-width="2.5"/><path d="m27.5 79 .65-1.8m13.35 3.9 6.45-.25M27.5 79q.65 2.25 2 3.45 2 1.7 5.6.8l1.5-.5q2.55-1.15 4.9-1.65M29.65 46.8l1.1-.3q2.5-.75 5.1-2.05" fill="none" stroke="#3c5566" stroke-linecap="round" stroke-linejoin="round" transform="translate(1.25 1.25)"/><path d="M49.2 82.1q.05 5.5.85 11.1-4.5 4.75-11.3 4.25-3.05-.2-6.6-1.5-4.8-1.8-6.5-3.85-1.7-2-.5-4.15 2.1-3.75 3.6-7.7" fill="none" stroke="#283a46" stroke-linecap="round" stroke-linejoin="round" stroke-width="2.5"/></g><g id="i"><path d="m14.65 74.8-2.2-.2q-3.75-1.1-5.6-2.55L10.9 61.2q2.35 2.6 6.65.9l-2.9 12.7m-4.8-18.5q1.45-5.8 1.85-13Q12.75 21 8.85 17.8 2.75 13 0 8.5.6-.85 8 .1q12.45 9.4 12.8 26.2 1.45 21.3-2.45 31.15-5.7 5-8.5-1.15" fill="#f9ffff" fill-rule="evenodd" transform="translate(1.25)"/><path d="M46.7 4.75q-3.1 7.45-10.15 15.4-5.1 8.1-6.15 40.2l.15 1.55q-3.4-2.35-8.3-1.35-2.2.45-4.7 1.55-4.3 1.7-6.65-.9-1-1.15-1.55-3.05l.5-1.85q2.8 6.15 8.5 1.15 3.9-9.85 2.45-31.15Q20.45 9.5 8 .1l38.7 4.65" fill="#c4f2ff" fill-rule="evenodd" transform="translate(1.25)"/><path d="m30.55 61.9.6 8.2q-2.9 4.65-11.55 4.9 3.4-5.45 2.65-14.45 4.9-1 8.3 1.35" fill="#2a96c4" fill-rule="evenodd" transform="translate(1.25)"/><path d="m19.6 75-4.95-.2 2.9-12.7q2.5-1.1 4.7-1.55.75 9-2.65 14.45M6.85 72.05q-2.6-2.2-1.35-5.25 2.35-3.85 3.85-8.65.55 1.9 1.55 3.05L6.85 72.05" fill="#93dfff" fill-rule="evenodd" transform="translate(1.25)"/><path d="M47.95 4.75q-3.1 7.45-10.15 15.4-5.1 8.1-6.15 40.2l.15 1.55m-20.7-5.6q1.45-5.8 1.85-13Q14 21 10.1 17.8 4 13 1.25 8.5" fill="none" stroke="#3c5566" stroke-linecap="round" stroke-linejoin="round" stroke-width="2.5"/><path d="m9.35 58.15.5-1.85m1.05 4.9q2.35 2.6 6.65.9 2.5-1.1 4.7-1.55 4.9-1 8.3 1.35m-19.65-.7q-1-1.15-1.55-3.05" fill="none" stroke="#3c5566" stroke-linecap="round" stroke-linejoin="round" transform="translate(1.25)"/><path d="m31.8 61.9.6 8.2q-2.9 4.65-11.55 4.9l-4.95-.2-2.2-.2q-3.75-1.1-5.6-2.55-2.6-2.2-1.35-5.25 2.35-3.85 3.85-8.65" fill="none" stroke="#283a46" stroke-linecap="round" stroke-linejoin="round" stroke-width="2.5"/></g><g id="j"><path d="M9.75-2.9Q36.6 2.9 47.4 0q3.4 26.6 9.8 38.85 5.95 8.05 3.75 13.5-2.25 5.45-7.6 8.8-4.2 2.7-11.05 5h-.05q-3.3-26.8-9.45-29.3Q35.15 23.9 9.75-2.9M42.3 66.15h-.05.05" fill="#5aceff" fill-rule="evenodd" transform="translate(12.05 5.2)"/><path d="M5.15 54.3q2.8-9.65.65-16.15 19.35-.05 19.7 16.15-2.4 2.05-20.35 0" fill="#f9ffff" fill-rule="evenodd" transform="translate(12.05 5.2)"/><path d="M3.5 61.4q.45-3 1.65-7.1 17.95 2.05 20.35 0-.35-16.2-19.7-16.15l-1-2.5Q22.2 31.7 32.55 50.2q.85 3.35-3.5 6.1-13.65 7-25.55 5.1" fill="#c4f2ff" fill-rule="evenodd" transform="translate(12.05 5.2)"/><path d="M4.8 35.65Q3.1 32.5 0 30.15q-8.05-8.6-10-15.75Q-14.85-8.4 9.75-2.9q25.4 26.8 23.05 39.75 6.15 2.5 9.45 29.3l-4.2 1.25L34 68.45l-3.25.7-12.05 1.6q-9.5.6-12.55-1.85-3.1-2.45-2.8-5.9l.15-1.6q11.9 1.9 25.55-5.1 4.35-2.75 3.5-6.1Q22.2 31.7 4.8 35.65" fill="#93dfff" fill-rule="evenodd" transform="translate(12.05 5.2)"/><path d="M16.85 40.85q-1.7-3.15-4.8-5.5-8.05-8.6-10-15.75Q-2.8-3.2 21.8 2.3q26.85 5.8 37.65 2.9 3.4 26.6 9.8 38.85Q75.2 52.1 73 57.55q-2.25 5.45-7.6 8.8-4.2 2.7-11.05 5h-.05l-4.2 1.25-4.05 1.05-3.25.7-12.05 1.6q-9.5.6-12.55-1.85-3.1-2.45-2.8-5.9l.15-1.6q.45-3 1.65-7.1 2.8-9.65.65-16.15l-1-2.5z" fill="none" stroke="#3c5566" stroke-linecap="round" stroke-linejoin="round" stroke-width="2.5"/></g><g id="k"><path d="m41.3 17.3-.85 8.1q-10.35-3.85-20.3 4.75l-.9.7q-3.9-6.1-1.2-13.4l11.05-2.2q5.65-1 12.2 2.05M8.55 0q-3.5 8.6-.3 16.05L5 15.4Q-2.4 8.5 8.55 0" fill="#861916" fill-rule="evenodd" transform="translate(.5 1.15)"/><path d="M19.25 30.85q-5.8 4.05-10.65 2.5-3.05-7.95-3.55-15.8 5.85.75 13-.1-2.7 7.3 1.2 13.4M.25 9v-.1Q.6 4.7 8.55 0-2.4 8.5 5 15.4l-1.4-.7Q.05 12.05.25 9" fill="#e20401" fill-rule="evenodd" transform="translate(.5 1.15)"/><path d="m8.25 16.05 8-.6q15.95-3.1 25.25 0l-.2 1.85q-6.55-3.05-12.2-2.05l-11.05 2.2q-7.15.85-13 .1.5 7.85 3.55 15.8l-1.9-.95Q-1.25 24.25.25 9q-.2 3.05 3.35 5.7l1.4.7 3.25.65" fill="#ee9493" fill-rule="evenodd" transform="translate(.5 1.15)"/><path d="m8.25 16.05 8-.6q15.95-3.1 25.25 0l-.2 1.85-.85 8.1q-10.35-3.85-20.3 4.75l-.9.7q-5.8 4.05-10.65 2.5l-1.9-.95Q-1.25 24.25.25 9v-.1Q.6 4.7 8.55 0q-3.5 8.6-.3 16.05L5 15.4l-1.4-.7Q.05 12.05.25 9" fill="none" stroke="#390b0b" stroke-linecap="round" stroke-linejoin="miter-clip" stroke-miterlimit="3" transform="translate(.5 1.15)"/></g><g id="l"><path d="M49 25.7q-4.9-2.4-3.1-4.9-3.7-.75-7.3-2.65l-.3 2.15q-.65.6-1.2 1.6l-.5 1.05-.7-.3.85-4.45v-.15q1-2.7 4.8-5.05l-.85 3.2q12.8 4.25 23.9 2 6.1-1.3 11.5-3.95 8-3.95 14.45-10.95-4.25 8.1-14.65 12.85l-6.55 2.7-4.8 1.4q.4 3.1-.85 4.35l-.35.05Q56.05 26.2 49 25.7m9.95-4.6-4.1-.35-4 .5-.65.3q-.95.4-1.2 1.05-.35.85 1.45 1.25l4.15.3 4-.55q1.6-.45 1.85-1.3.1-.7-.95-1.05l-.55-.15" fill="#fff376" fill-rule="evenodd" transform="translate(-32.65 1)"/><path d="m58.95 21.1.55.15q1.05.35.95 1.05-.25.85-1.85 1.3l-4 .55-4.15-.3q-1.8-.4-1.45-1.25.25-.65 1.2-1.05l.65-.3 4-.5 4.1.35m-9.45 9.3-1.75.05-1.8-.2q-.7-.15-.7-.45 0-.25.8-.4.7-.15 1.75 0l1.8.2q.6 0 .6.35t-.7.45m-5.15-.7-.3.75-.55.35q-.35 0-.65-.35l-.2-.75.2-.85q.3-.3.65-.3.35 0 .55.3.3.35.3.85" fill="#fffcf6" fill-rule="evenodd" transform="translate(-32.65 1)"/><path d="m49 25.7-4.8-.65q-.3-1.75-1-3.15-1.15-2.35-2.95-2.35-1 0-1.95.75l.3-2.15q3.6 1.9 7.3 2.65-1.8 2.5 3.1 4.9" fill="#ffc422" fill-rule="evenodd" transform="translate(-32.65 1)"/><path d="m64.8 24.95-1.45-.3.35-.05 4.75-1.35 2.7-.95q3.6 1.9 3.15 6.45-3.4 1.7-6.8 2.9 3.95-5.1-2.7-6.7" fill="#367a65" fill-rule="evenodd" transform="translate(-32.65 1)"/><path d="M101.6 6.7q-6.2 6.9-12.4 12.15-7.45 6.15-14.9 9.9.45-4.55-3.15-6.45 14.1-5.3 29.1-18.4l1.35 2.8" fill="#2c4a42" fill-rule="evenodd" transform="translate(-32.65 1)"/><path d="M71.25 35.05q.25-1.7-.35-3.05 10.85-4.25 18.3-13.15 6.2-5.25 12.4-12.15l1.8 3.75Q95.65 22.5 79.65 30.9q-4.25 2.4-8.4 4.15M68.1 33q.7 1.85.2 3.2l-1.5.55-.35-3.25 1.65-.5" fill="#c67300" fill-rule="evenodd" transform="translate(-32.65 1)"/><path d="m69.35 18.85 6.55-2.7Q86.3 11.4 90.55 3.3l.85-1.85.95-.2 6-1.25 1.9 3.9q-15 13.1-29.1 18.4l-2.7.95q1.95-1.5.9-4.4M90.55 3.3l1.8-2.05-1.8 2.05" fill="#c87500" fill-rule="evenodd" transform="translate(-32.65 1)"/><path d="m36.05 31.4.05.1.7 1.95q1.25 2.4 3 2.4 1.4 0 2.55-1.5l2.7.8q-.5 1.85.55 3.75-6.3-1.05-11.95-4.45l.7-3.8 1.7.75m27.65-6.8q1.25-1.25.85-4.35l4.8-1.4q1.05 2.9-.9 4.4L63.7 24.6" fill="#ffc221" fill-rule="evenodd" transform="translate(-32.65 1)"/><path d="M38.3 20.3q.95-.75 1.95-.75 1.8 0 2.95 2.35.7 1.4 1 3.15l4.8.65q7.05.5 14.35-1.05l1.45.3Q58.05 27 49.75 26.7q-5.05.2-5.6-1.25-2.75-8.65-7.55-2.5l.5-1.05q.55-1 1.2-1.6" fill="#2f7f66" fill-rule="evenodd" transform="translate(-32.65 1)"/><path d="M39.35 32.25q-.05 1.55 2.85 0l3.9-.15q4.75.55 6.1-.85 1.4-3.15-2.2-3.4-6.5-.15-6.5-2.8-1-2.8-1.2-1.05 1.4 5.4-1.35 7.3l.25-.5q.85-1.45.95-3.45.05-1.55-.45-2.85l-.25-.65q-.75-1.4-1.8-1.4-.9 0-1.6 1l-.3.4q-.8 1.5-.85 3.5-.1 2 .65 3.45.75 1.45 1.8 1.45m-2.75-9.3q4.8-6.15 7.55 2.5.55 1.45 5.6 1.25 8.3.3 15.05-1.75 6.65 1.6 2.7 6.7Q55.2 36 43 33.35l-.1.1q-5 2.95-6.8-1.95l-.05-.1q-.45-1.7-.35-3.7.05-2.7.9-4.75" fill="#3bbb98" fill-rule="evenodd" transform="translate(-32.65 1)"/><path d="m42.9 33.45.1-.1q12.2 2.65 24.5-1.7 3.4-1.2 6.8-2.9 7.45-3.75 14.9-9.9-7.45 8.9-18.3 13.15l-2.8 1-1.65.5-2.25.6q.7 2.4-.3 3.6-9.7 2.7-18.3 1.2-1.05-1.9-.55-3.75l-2.7-.8.55-.9m13.55 5.3 3.55-.7q1.9-.55 1.9-1.8-.05-1.2-1.55-1.3-1.5-.15-4.8 0l-.85.05-2.3.2-2.55.3q-2.3.35-1.9 1.85.35 1.35 2.4 1.6l3.7.1 1.2-.15 1.2-.15" fill="#fffd7c" fill-rule="evenodd" transform="translate(-32.65 1)"/><path d="M70.9 32q.6 1.35.35 3.05L68.3 36.2q.5-1.35-.2-3.2l2.8-1" fill="#fcbe1d" fill-rule="evenodd" transform="translate(-32.65 1)"/><path d="m66.45 33.5.35 3.25-2.9.95q1-1.2.3-3.6l2.25-.6" fill="#ffc222" fill-rule="evenodd" transform="translate(-32.65 1)"/><path d="m54.7 35 .85-.05q3.3-.15 4.8 0 1.5.1 1.55 1.3 0 1.25-1.9 1.8l-3.55.7q-1.6-1.5-1.75-3.75" fill="#fffff7" fill-rule="evenodd" transform="translate(-32.65 1)"/><path d="m56.45 38.75-1.2.15-1.2.15q-1.3-1.65-1.65-3.85l2.3-.2q.15 2.25 1.75 3.75" fill="#ffc528" fill-rule="evenodd" transform="translate(-32.65 1)"/><path d="m54.05 39.05-3.7-.1q-2.05-.25-2.4-1.6-.4-1.5 1.9-1.85l2.55-.3q.35 2.2 1.65 3.85" fill="#fcfff1" fill-rule="evenodd" transform="translate(-32.65 1)"/><path d="M36.1 31.5q1.8 4.9 6.8 1.95l-.55.9q-1.15 1.5-2.55 1.5-1.75 0-3-2.4l-.7-1.95" fill="#39795e" fill-rule="evenodd" transform="translate(-32.65 1)"/><path d="m37.9 29.45.05.3q.55 1.2 1.4 1.2.9 0 1.45-1.2.55-1.15.55-2.75 0-1.65-.55-2.85Q40.25 23 39.35 23q-.85 0-1.4 1.15-.4.85-.5 1.9l-.15 1.2q0 1.25.45 2.1l.15.1m1.45 2.8q-1.05 0-1.8-1.45t-.65-3.45q.05-2 .85-3.5l.3-.4q.7-1 1.6-1 1.05 0 1.8 1.4l.25.65q.5 1.3.45 2.85-.1 2-.95 3.45l-.25.5q-.7.95-1.6.95" fill="#4672a1" fill-rule="evenodd" transform="translate(-32.65 1)"/><path d="M37.45 26.05q.1-1.05.5-1.9.55-1.15 1.4-1.15.9 0 1.45 1.15.55 1.2.55 2.85 0 1.6-.55 2.75-.55 1.2-1.45 1.2-.85 0-1.4-1.2l-.05-.3q.4.8.9.8.65 0 1-.9.5-.85.5-2.1 0-1.2-.5-2.1-.35-.85-1-.85-.55 0-1.05.85l-.3.9" fill="#b5e3ff" fill-rule="evenodd" transform="translate(-32.65 1)"/><path d="m37.45 26.05.3-.9q.5-.85 1.05-.85.65 0 1 .85.5.9.5 2.1 0 1.25-.5 2.1-.35.9-1 .9-.5 0-.9-.8l-.15-.1q-.45-.85-.45-2.1l.15-1.2" fill="#337b65" fill-rule="evenodd" transform="translate(-32.65 1)"/><path d="M40.95 31.3q2.75-1.9 1.35-7.3.2-1.75 1.2 1.05 0 2.65 6.5 2.8 3.6.25 2.2 3.4-1.35 1.4-6.1.85l-3.9.15q-2.9 1.55-2.85 0 .9 0 1.6-.95m8.55-.9q.7-.1.7-.45t-.6-.35l-1.8-.2q-1.05-.15-1.75 0-.8.15-.8.4 0 .3.7.45l1.8.2 1.75-.05m-5.15-.7q0-.5-.3-.85-.2-.3-.55-.3-.35 0-.65.3l-.2.85.2.75q.3.35.65.35l.55-.35.3-.75" fill="#8efce1" fill-rule="evenodd" transform="translate(-32.65 1)"/><path d="M8.9 14q-3.8 2.35-4.8 5.05v.15l-.85 4.45-1.55 8-.7 3.8q5.65 3.4 11.95 4.45 8.6 1.5 18.3-1.2l2.9-.95 1.5-.55 2.95-1.15q4.15-1.75 8.4-4.15 16-8.4 23.75-20.45l-1.8-3.75-1.35-2.8L65.7 1l-6 1.25" fill="none" stroke="#542b01" stroke-linecap="round" stroke-linejoin="round" stroke-width="2"/><path d="m37.45 26.05.3-.9q.5-.85 1.05-.85.65 0 1 .85.5.9.5 2.1 0 1.25-.5 2.1-.35.9-1 .9-.5 0-.9-.8l-.15-.1q-.45-.85-.45-2.1l.15-1.2m1.9 6.2q-1.05 0-1.8-1.45t-.65-3.45q.05-2 .85-3.5l.3-.4q.7-1 1.6-1 1.05 0 1.8 1.4l.25.65q.5 1.3.45 2.85-.1 2-.95 3.45l-.25.5q-.7.95-1.6.95M38.3 20.3q.95-.75 1.95-.75 1.8 0 2.95 2.35.7 1.4 1 3.15l4.8.65q7.05.5 14.35-1.05l.35-.05 4.75-1.35 2.7-.95q14.1-5.3 29.1-18.4M38.3 20.3q-.65.6-1.2 1.6l-.5 1.05q-.85 2.05-.9 4.75-.1 2 .35 3.7l.05.1.7 1.95q1.25 2.4 3 2.4 1.4 0 2.55-1.5l.55-.9.1-.1q12.2 2.65 24.5-1.7 3.4-1.2 6.8-2.9 7.45-3.75 14.9-9.9 6.2-5.25 12.4-12.15M35.9 22.65l.7.3m-.55 8.45-1.7-.75" fill="none" stroke="#20352f" stroke-linecap="round" stroke-linejoin="round" transform="translate(-32.65 1)"/><path d="M57.9 4.3q-6.45 7-14.45 10.95-5.4 2.65-11.5 3.95-11.1 2.25-23.9-2L8.9 14M59.7 2.25l.4-.5m-.4.5L57.9 4.3" fill="none" stroke="#3c5566" stroke-linecap="round" stroke-linejoin="round" stroke-width="2.5"/><path d="m37.3 25.3 1.2.05q0 .95-.75 1.65-.8.75-1.9.75-.8 0-1.35-.35.2-.7.6-1.1l.15.1q.35.4.85.4t.85-.4l.35-.85v-.25" fill="#f53b2f" fill-rule="evenodd" transform="translate(-32.65 1)"/><path d="M37.3 25.3v.25l-.35.85q-.35.4-.85.4t-.85-.4l-.15-.1q.8-.95 2.2-1" fill="#ffbeba" fill-rule="evenodd" transform="translate(-32.65 1)"/><path d="M34.5 27.4v-.05q0-.85.5-1.5l.2-.3q.7-.7 1.85-.7h.05q.8 0 1.4.5l-1.2-.05q-1.4.05-2.2 1-.4.4-.6 1.1" fill="#e6eef9" fill-rule="evenodd" transform="translate(-32.65 1)"/><path d="m38.5 25.35.3.2.35.45q-.2.9-1 1.65-.95 1.05-2.4 1.05l-1-.15-.25-1.15q.55.35 1.35.35 1.1 0 1.9-.75.75-.7.75-1.65m1.1 2.1q-.05 1-.8 1.75-.7.7-1.75.7l-1.45-.4q2.65.25 4-2.05" fill="#b9110e" fill-rule="evenodd" transform="translate(-32.65 1)"/><path d="M39.15 26q.45.55.45 1.35v.1q-1.35 2.3-4 2.05l-.4-.3-.45-.65 1 .15q1.45 0 2.4-1.05.8-.75 1-1.65" fill="#4d0000" fill-rule="evenodd" transform="translate(-32.65 1)"/><path d="m38.5 25.35.3.2.35.45q.45.55.45 1.35v.1q-.05 1-.8 1.75-.7.7-1.75.7l-1.45-.4-.4-.3-.45-.65-.25-1.15v-.05q0-.85.5-1.5l.2-.3q.7-.7 1.85-.7h.05q.8 0 1.4.5z" fill="none" stroke="#390b0b" stroke-linecap="round" stroke-linejoin="round" transform="translate(-32.65 1)"/></g><g id="m"><path d="M32.4 23.2q8.45-4 16.3-5.9Q58.4 11.4 55 0l4.35.4q2.4 21.5-15.05 31.65-15.95 12.75-19.6 27.5-2.5-5.9-8.65-8.3 9-14.05 23.65-24.65-11.5 4.1-21.95 16 6.8-11.7 19.1-18.2-.85-1.8-4.45-1.2" fill="#7f1e15" fill-rule="evenodd" transform="translate(.65 .55)"/><path d="M32.4 23.2q3.6-.6 4.45 1.2-12.3 6.5-19.1 18.2 10.45-11.9 21.95-16-14.65 10.6-23.65 24.65-5.1-2.05-12.8-1.7 7.4-14.3 26.9-25.3l.7-.35 1.55-.7" fill="#e20401" fill-rule="evenodd" transform="translate(.65 .55)"/><path d="M16.05 51.25q6.15 2.4 8.65 8.3Q14.45 48.75 0 54.6 3.15 37 30.15 24.25q-19.5 11-26.9 25.3 7.7-.35 12.8 1.7" fill="#ef9096" fill-rule="evenodd" transform="translate(.65 .55)"/><path d="M24.7 59.55q3.65-14.75 19.6-27.5Q61.75 21.9 59.35.4L55 0q3.4 11.4-6.3 17.3-7.85 1.9-16.3 5.9l-1.55.7-.7.35Q3.15 37 0 54.6q14.45-5.85 24.7 4.95z" fill="none" stroke="#390b0b" stroke-linecap="round" stroke-linejoin="miter-clip" stroke-miterlimit="3" transform="translate(.65 .55)"/></g><g id="n"><path d="M17.75 3.2 18.3 0l3.4.1V4q-1.05-2-3.95-.8" fill="#83161c" fill-rule="evenodd" transform="translate(.5 .5)"/><path d="M3.2 21.8Q-1.55 21.05.8 6.1 1.15 3 2.05 1.3v.85q-2.1 14.4.3 17.45Q4.5 22.65 13 15.95 19.95 19 20.8 6.4q-3.5 5.05-8.65 5.05 4.15-2.5 5.6-8.25 2.9-1.2 3.95.8-.3 7.45-2.15 10.7l-.2.35-.05.1q-2.05 3.05-5.8 1.45-4.7 3.7-8.9 5.05l-1.4.15" fill="#e70000" fill-rule="evenodd" transform="translate(.5 .5)"/><path d="M2.05 2.15q.3 12.8 8.45 10.05l1.65-.75q5.15 0 8.65-5.05-.85 12.6-7.8 9.55-8.5 6.7-10.65 3.65-2.4-3.05-.3-17.45" fill="#831714" fill-rule="evenodd" transform="translate(.5 .5)"/><path d="M19.3 15.15Q13 25.25 3.2 21.8l1.4-.15q4.2-1.35 8.9-5.05 3.75 1.6 5.8-1.45" fill="#611f20" fill-rule="evenodd" transform="translate(.5 .5)"/><path d="M3.2 21.8Q-1.55 21.05.8 6.1 1.15 3 2.05 1.3v.85q.3 12.8 8.45 10.05l1.65-.75q4.15-2.5 5.6-8.25L18.3 0l3.4.1V4q-.3 7.45-2.15 10.7l-.2.35-.05.1Q13 25.25 3.2 21.8l1.4-.15q4.2-1.35 8.9-5.05 3.75 1.6 5.8-1.45" fill="none" stroke="#390b0b" stroke-linecap="round" stroke-linejoin="miter-clip" stroke-miterlimit="3" transform="translate(.5 .5)"/></g><g id="o"><path d="m62.9 31.05-.5-2.65q-4.75-.15-7 2l-.25-.85q3.05-1.95 7.55-1.85.45 1.95.2 3.35" fill="#ffc92c" fill-rule="evenodd" transform="translate(-51.4 -25.45)"/><path d="m61.3 26.65-2.65.35-2.4.75q-.95.35-1.05.8l1 .05 2.65-.75 2.55-.65.95-.2-1.05-.35m-6.6 5.25q-.15-.4-.15-.8l-.1-1.3.1-2.1q3.9-2.35 8.35-1.5 1 1.15 1.3 2.9l.05 1-.15 1.7-.15.95q-4.45-1.5-8.65.95l-.6-1.8m.7-1.45.3 2.15q3.5-1.85 7.2-1.55.25-1.4-.2-3.35-4.5-.1-7.55 1.85l.25.85v.05" fill="#fffd7a" fill-rule="evenodd" transform="translate(-51.4 -25.45)"/><path d="m61.3 26.65 1.05.35-.95.2-2.55.65-2.65.75-1-.05q.1-.45 1.05-.8l2.4-.75 2.65-.35m-7.8 6.65q-1.2 3.4.75 5.9-2.75-2.5-.75-5.9m12.3 5.25q.85-2.85.5-5.6 1.1 2.6-.5 5.6" fill="#fffdf4" fill-rule="evenodd" transform="translate(-51.4 -25.45)"/><path d="M54.55 31.1q0 .4.15.8-1.3 1.55-1.3 3.5 0 2.45 1.8 4.15.85.85 1.9 1.25l-.05.6q-1.8-1-2.8-2.2-1.95-2.5-.75-5.9.35-1.05 1.05-2.2m9.7-1-.05-1 1.1 1q2.35 2.3 2.35 5.4 0 3.2-2.25 5.4l-.35-1.2.75-1.15q1.6-3 .5-5.6-.65-1.5-2.05-2.85m-8.85.35v-.05q2.25-2.15 7-2l.5 2.65q-3.7-.3-7.2 1.55l-.3-2.15" fill="#c77400" fill-rule="evenodd" transform="translate(-51.4 -25.45)"/><path d="m64.1 31.8.15-1.7q1.4 1.35 2.05 2.85.35 2.75-.5 5.6l-.75 1.15-.7-.85q1.1-1.5 1.1-3.45 0-2.1-1.35-3.6m-9.65-2 .1 1.3q-.7 1.15-1.05 2.2-2 3.4.75 5.9 1 1.2 2.8 2.2l-.1 1.35q-1.55-.6-2.85-1.85-2.2-2.2-2.2-5.4 0-3.1 2.2-5.4l.35-.3" fill="#facc30" fill-rule="evenodd" transform="translate(-51.4 -25.45)"/><path d="M65.4 40.9q.2 1.35.05 3.55-5.6 1.95-7.3 1.2-.35-1.3-.4-2.65v-2l.05-.55q2.75-.05 3.55-.85l2.6-.9.4.15.7.85.35 1.2m-5.8 2.9-.65.25q.5 1.6 5.1 0l-2.85-.35q1.9-.55 2.85-1.25-.2-.15-.5-.15-1-.2-2.5.45 2.05-1.25 2.55-2.6l-.55-.05q-2-.3-4.6 1h2.45l-2.45 1.4 3.1.35-1.85.9-.1.05" fill="#7d200e" fill-rule="evenodd" transform="translate(-51.4 -25.45)"/><path d="m59.7 43.75 1.85-.9-3.1-.35 2.45-1.4h-2.45q2.6-1.3 4.6-1l.55.05q-.5 1.35-2.55 2.6 1.5-.65 2.5-.45.3 0 .5.15-.95.7-2.85 1.25l2.85.35q-4.6 1.6-5.1 0l.65-.25h.1v-.05" fill="#e20200" fill-rule="evenodd" transform="translate(-51.4 -25.45)"/><path d="m57.05 41.4.05-.6.2-.85 4.05-.35q-.8.8-3.55.85l-.05.55v2q.05 1.35.4 2.65l-.25-.15q-.95-1.2-.95-2.75l.1-1.35" fill="#f80000" fill-rule="evenodd" transform="translate(-51.4 -25.45)"/><path d="M54.55 31.1q0 .4.15.8l.6 1.8q4.2-2.45 8.65-.95l.15-.95.15-1.7-.05-1q-.3-1.75-1.3-2.9-4.45-.85-8.35 1.5l-.1 2.1.1 1.3m2.5 10.3.05-.6q-1.05-.4-1.9-1.25-1.8-1.7-1.8-4.15 0-1.95 1.3-3.5m2.25 10.85q-1.55-.6-2.85-1.85-2.2-2.2-2.2-5.4 0-3.1 2.2-5.4l.35-.3m9.75-.7 1.1 1q2.35 2.3 2.35 5.4 0 3.2-2.25 5.4.2 1.35.05 3.55-5.6 1.95-7.3 1.2l-.25-.15q-.95-1.2-.95-2.75l.1-1.35m4.3-1.8 2.6-.9.4.15q1.1-1.5 1.1-3.45 0-2.1-1.35-3.6m.95 7.9.35 1.2m-1.05-2.05.7.85m-7.95 1.1.2-.85 4.05-.35" fill="none" stroke="#390b0b" stroke-linecap="round" stroke-linejoin="round" transform="translate(-51.4 -25.45)"/></g><g id="p"><path d="m31.3 7.45.85 2.4q-.1.9-.7 1.75l-.15-4.15" fill="#5433fc" fill-rule="evenodd" transform="translate(1.25 1.25)"/><path d="M29.55 5.1q1 .9 1.75 2.35l.15 4.15-1.55 1.45q.35-5.15-1.35-8.5l.15-.2.85.75M22.35 28q.5-.35.8-1.5l1.6 3.4-2.4-1.9m6.15-10.9 1.95-.05-.8 1.85-1.9 4.25-.65 2q-1.05-1.05-1.65-2.4 1.8-2 3.05-5.65" fill="#5a33ff" fill-rule="evenodd" transform="translate(1.25 1.25)"/><path d="m24.25 15.85-.7 1.1q-4.4 2.95-7.45 7.25-.9-.5-1.75-.85l.8-.8.55-.6.85-1.05.2-.25q1.55-1.5 3.15-2.6 2.2-1.55 4.35-2.2" fill="#5636fb" fill-rule="evenodd" transform="translate(1.25 1.25)"/><path d="m19.25 13.35-.35-3.5.1-2.2 1.95 1.25q-.2 1.55-.1 3.55l.1 1.25q-.8-.2-1.7 0v-.35" fill="#4423d6" fill-rule="evenodd" transform="translate(1.25 1.25)"/><path d="m22.5 3.7.8.85Q21.4 5.9 20.95 8.9L19 7.65l.5-1.3q.85-1.8 3-2.65" fill="#329ecf" fill-rule="evenodd" transform="translate(1.25 1.25)"/><path d="m25.7 2.9 1.35.45q-2.35.15-3.75 1.2l-.8-.85q1.35-.6 3.2-.8" fill="#462ad7" fill-rule="evenodd" transform="translate(1.25 1.25)"/><path d="m27.05 3.35 1.2.65.3.55q-2.8-.4-4 0 3.75 3.8 2.25 10.4l-2.05.95-.5.25q1.25-2.8 1.35-5.2.15-3.55-2.3-6.4 1.4-1.05 3.75-1.2" fill="#502af3" fill-rule="evenodd" transform="translate(1.25 1.25)"/><path d="m23.15 2.35.3-.55.85-1.05q1-.9 2.5-.7l.85.1q.45.2.7.45.15 0 .2.15L26.9.5q-1.55-.05-2.35.65-.55.35-.7.9l-.2.4-.5-.1m5.4 2.2q1.7 3.35 1.35 8.5-1.25 1-3.1 1.9 1.5-6.6-2.25-10.4 1.2-.4 4 0" fill="#a987ff" fill-rule="evenodd" transform="translate(1.25 1.25)"/><path d="m2.9 19 1.55-.7.75-.55 2.15.35q2 0 4.5-.8 3.25-1.3 1.65-3.25-1.45-1.35-2.1-2.6l-.4-.9q3.75 3.5 5.65-1.75 0 4.5-.4 6.75Q13.75 20.3 2.9 19" fill="#ffc221" fill-rule="evenodd" transform="translate(1.25 1.25)"/><path d="M1.05 20.25q.6-.65 1.85-1.25 10.85 1.3 13.35-3.45.4-2.25.4-6.75-1.9 5.25-5.65 1.75-.35-1-.2-1.9.8-1.35 1.65-2.35.15 5.1 2.5 1.7Q18 3.65 23.1 2.35h.05l.5.1 2.05.45q-5.8.1-7.4 3.2-.5.95-.6 2.15.3 2.5.2 4.4l-.2 2.1-.2.75-.8 1.45-1.05.95-1.65.95-.85.35q-2.2.8-5.2 1H5.7q-3.25-.6-4.65.05" fill="#fff980" fill-rule="evenodd" transform="translate(1.25 1.25)"/><path d="M12.45 6.3q3.2-3.65 7.3-3.95 1.75-.15 3.35 0Q18 3.65 14.95 8q-2.35 3.4-2.5-1.7" fill="#fffdfa" fill-rule="evenodd" transform="translate(1.25 1.25)"/><path d="m23.9 13.45.1.8.25 1.6q-1.15-1.95-3.3-2.15l-.1-1.25q-.1-2 .1-3.55 2.3 1.75 2.95 4.55m-.35 3.5-.45.8q-1.45 3.4-.4 7.4l.1.15.35 1.2q-.3 1.15-.8 1.5l-2.15-1.4-1.35-.95q-1.05-.5-2.15-1.15l-.6-.3q3.05-4.3 7.45-7.25m-12.15-5.5q.65 1.25 2.1 2.6 1.6 1.95-1.65 3.25-2.5.8-4.5.8 2.35-2.55 4.05-6.65" fill="#a98aff" fill-rule="evenodd" transform="translate(1.25 1.25)"/><path d="m5.2 17.75 1.65-2.2 2.4-4.3q.7-1.45 1.55-2.6-.15.9.2 1.9l.4.9q-1.7 4.1-4.05 6.65l-2.15-.35" fill="#3f29c9" fill-rule="evenodd" transform="translate(1.25 1.25)"/><path d="M20.95 13.7q0 2.85-1.05 4.35-1.6 1.1-3.15 2.6l-.2.25q-2.65 1.2-5.55.95l-1.05-.35-1.35-.55q3.4.1 6.05-.75l.75-.3 1.6-.7.05-.05 1.3-1.55.65-1.75.2-1.25.05-.9q.9-.2 1.7 0" fill="#3bace6" fill-rule="evenodd" transform="translate(1.25 1.25)"/><path d="M26.9 25.9q-2.35-2.75-2.6-7 .3 2.15 1.15 3.85.6 1.35 1.65 2.4l-.2.75m-5.95-12.2q2.15.2 3.3 2.15-2.15.65-4.35 2.2 1.05-1.5 1.05-4.35m1.85 11.6-.1-.15q-1.05-4 .4-7.4.7 7.1 2.75 10.8.3 1.1-.6.75-1.35-.9-2.45-4m-8.45-1.95h-.1L12 22.25q-.15-.15-.25-.15l-.75-.25q2.9.25 5.55-.95l-.85 1.05-.55.6-.8.8" fill="#aef9ff" fill-rule="evenodd" transform="translate(1.25 1.25)"/><path d="m28.7 26.35-.2.9-.75-.55-.85-.8.2-.75.9.75.7.45" fill="#44f4ff" fill-rule="evenodd" transform="translate(1.25 1.25)"/><path d="M32.1 16.75q-.8 3.45-2.8 7.55l-.6 2.05-.7-.45q2.3-5.1 3.5-9.05l.6-.1" fill="#a63d78" fill-rule="evenodd" transform="translate(1.25 1.25)"/><path d="M32.5 12.35v1.15l-.1 1.75-.3 1.5-.6.1.4-1.35.4-1.8.15-1.3.05-.05" fill="#ff611f" fill-rule="evenodd" transform="translate(1.25 1.25)"/><path d="m30.45 17.05 1.05-.2Q30.3 20.8 28 25.9l-.9-.75.65-2 1.9-4.25.8-1.85" fill="#6632ef" fill-rule="evenodd" transform="translate(1.25 1.25)"/><path d="M12.75 35.6q-1.65-.2-2.9-1.05l1.1.05q2.35 0 3.95-1.8 1.75-1.9 1.75-4.4 0-2.05-1-3.55l.7.35 2.85 1.6.1 1.7q0 3.05-2.2 5.05-1.8 1.75-4.35 2.05" fill="#560003" fill-rule="evenodd" transform="translate(1.25 1.25)"/><path d="m9.85 34.55-.95-.8-1.4-1.8q1.3 1.4 3 1.4 1.75 0 2.95-1.55 1.2-1.4 1.2-3.4 0-2.1-1.2-3.55-1.2-1.45-2.95-1.45l-1 .15 1.3-.85q2.25.75 4.85 2.15 1 1.5 1 3.55 0 2.5-1.75 4.4-1.6 1.8-3.95 1.8l-1.1-.05" fill="#9d1612" fill-rule="evenodd" transform="translate(1.25 1.25)"/><path d="M7.5 31.95Q7 30.7 6.85 29.3v-.6Q7 25.95 8.9 24.1l.6-.55 1-.15q1.75 0 2.95 1.45 1.2 1.45 1.2 3.55 0 2-1.2 3.4-1.2 1.55-2.95 1.55-1.7 0-3-1.4m2.4-6.45q-.95 0-1.6.7-.55.85-.55 1.9 0 1.15.55 1.85.65.85 1.6.85.9 0 1.5-.85.65-.7.65-1.85 0-1.05-.65-1.9-.6-.7-1.5-.7" fill="#f1342e" fill-rule="evenodd" transform="translate(1.25 1.25)"/><path d="M9.9 25.5q.9 0 1.5.7.65.85.65 1.9 0 1.15-.65 1.85-.6.85-1.5.85-.95 0-1.6-.85-.55-.7-.55-1.85 0-1.05.55-1.9.65-.7 1.6-.7" fill="#fab6b3" fill-rule="evenodd" transform="translate(1.25 1.25)"/><path d="M17.05 34.9q-1.45.8-3.3.8l-1-.1q2.55-.3 4.35-2.05 2.2-2 2.2-5.05l-.1-1.7 1.1.7v.5q0 3.65-2.45 6.25l-.25.3-.05.05-.5.3" fill="#a60f18" fill-rule="evenodd" transform="translate(1.25 1.25)"/><path d="m20.3 27.5.2.2.1 1.15q0 2.9-2.05 4.9l-.95.8.25-.3q2.45-2.6 2.45-6.25v-.5" fill="#ff6325" fill-rule="evenodd" transform="translate(1.25 1.25)"/><path d="m20.5 27.7 3.8 3.1q2.9 2.95 2.15 4.35-.85 1.4-5.05.45l-3.8-1.05.95-.8q2.05-2 2.05-4.9l-.1-1.15m-13.65 1-.55-.5-1-.8-.8-.8-.25-.2-.4-.45q-2.4-2.6-1.65-3.85.75-1.2 4.2-.7l.75.15 1.35.4 1.1.3 1.2.45-1.3.85-.6.55Q7 25.95 6.85 28.7" fill="#3814e8" fill-rule="evenodd" transform="translate(1.25 1.25)"/><path d="m28.7 35.55-.2.5q-1 1.7-5.85.65l-5.5-1.8.4-.3.05-.05 3.8 1.05q4.2.95 5.05-.45.75-1.4-2.15-4.35l-3.8-3.1-.2-.2-1.1-.7-2.85-1.6-.7-.35q-2.6-1.4-4.85-2.15l-1.2-.45-1.1-.3-1.35-.4-.75-.15q-3.45-.5-4.2.7-.75 1.25 1.65 3.85l.4.45.25.2.8.8 1 .8.55.5v.6l-.45-.35-1.15-.85-1.05-.75-.45-.45-1.1-1q-3.4-3.4-2.4-5l.35-.4h.1l.05-.1.25-.15h.05q1.4-.65 4.65-.05l.3.05 1.4.35 1.2.35 1.35.55 1.05.35.75.25q.1 0 .25.15l2.25 1.1h.1q.85.35 1.75.85l.6.3q1.1.65 2.15 1.15l1.35.95 2.15 1.4 2.4 1.9L26 31l.8.9.6.7q1.45 1.7 1.3 2.95" fill="#bfaff6" fill-rule="evenodd" transform="translate(1.25 1.25)"/><path d="M23.55 16.95q.3 6.9 3.2 10.4-.25 2.05.05 4.55L26 31l-1.25-1.1-1.6-3.4-.35-1.2q1.1 3.1 2.45 4 .9.35.6-.75-2.05-3.7-2.75-10.8l.45-.8" fill="#e9f8fb" fill-rule="evenodd" transform="translate(1.25 1.25)"/><path d="m26.75 27.35.75.75q-.3 1.85-.1 4.5l-.6-.7q-.3-2.5-.05-4.55" fill="#85f3ff" fill-rule="evenodd" transform="translate(1.25 1.25)"/><path d="m28.5 27.25-.15 1.55q-.05 1.05.2 2 .5 2.55.15 4.75.15-1.25-1.3-2.95-.2-2.65.1-4.5.05-.75.25-1.4l.75.55" fill="#cc591a" fill-rule="evenodd" transform="translate(1.25 1.25)"/><path d="m23.55 16.95.7-1.1v.55l.05 2.5q.25 4.25 2.6 7l.85.8q-.2.65-.25 1.4l-.75-.75q-2.9-3.5-3.2-10.4" fill="#1696d5" fill-rule="evenodd" transform="translate(1.25 1.25)"/><path d="m24.3 18.9-.05-2.5q2.1.65 4.25.7-1.25 3.65-3.05 5.65-.85-1.7-1.15-3.85" fill="#a988fd" fill-rule="evenodd" transform="translate(1.25 1.25)"/><path d="m29.9 13.05 1.55-1.45-.15 1.55-.15 1.35q-2 1.05-4.25 1.7l-2.15-.3 2.05-.95q1.85-.9 3.1-1.9m-6 .4q0-2.2-1.1-3.6-2-2.25-.6-2.45 1.95 2.15 2.2 5.5l-.4 1.35-.1-.8" fill="#deffff" fill-rule="evenodd" transform="translate(1.25 1.25)"/><path d="m32.15 9.85.15.9.2 1.35-.05.3-.15 1.3-.4 1.8-1.05.35.3-1.35.15-1.35.15-1.55q.6-.85.7-1.75" fill="#54e6fd" fill-rule="evenodd" transform="translate(1.25 1.25)"/><path d="m30.85 15.85 1.05-.35-.4 1.35-1.05.2-1.95.05q-2.15-.05-4.25-.7v-.25l.5-.25 2.15.3 3.95-.35" fill="#1d8ed2" fill-rule="evenodd" transform="translate(1.25 1.25)"/><path d="m31.15 14.5-.3 1.35-3.95.35q2.25-.65 4.25-1.7" fill="#4beaff" fill-rule="evenodd" transform="translate(1.25 1.25)"/><path d="M24.4 12.9q-.25-3.35-2.2-5.5-1.4.2.6 2.45 1.1 1.4 1.1 3.6-.65-2.8-2.95-4.55.45-3 2.35-4.35 2.45 2.85 2.3 6.4-.6-4.1-2.45-5.4 1.6 4.65 1.25 7.35" fill="#acfcff" fill-rule="evenodd" transform="translate(1.25 1.25)"/><path d="m24 14.25.4-1.35q.35-2.7-1.25-7.35 1.85 1.3 2.45 5.4-.1 2.4-1.35 5.2v-.3l-.25-1.6" fill="#aef9fc" fill-rule="evenodd" transform="translate(1.25 1.25)"/><path d="M23.85 2.05q.15-.55.7-.9l.05.15 1 .45q.5 0 .9-.45.4-.4.4-.8l1.65.25-1 1.15q-.75.55-1.95.55-1 0-1.75-.4" fill="#b026d1" fill-rule="evenodd" transform="translate(1.25 1.25)"/><path d="M24.55 1.15q.8-.7 2.35-.65 0 .4-.4.8-.4.45-.9.45l-1-.45-.05-.15" fill="#de54ff" fill-rule="evenodd" transform="translate(1.25 1.25)"/><path d="m28.55.75.6.6q.1 1.9-.45 3L28.25 4l-1.2-.65-1.35-.45-2.05-.45.2-.4q.75.4 1.75.4 1.2 0 1.95-.55l1-1.15" fill="#af2cca" fill-rule="evenodd" transform="translate(1.25 1.25)"/><path d="M29.15 1.35q.85 1.3.4 3.75l-.85-.75q.55-1.1.45-3" fill="#cd2e33" fill-rule="evenodd" transform="translate(1.25 1.25)"/><path d="m18.3 6.1 1.2.25-.5 1.3-.1 2.2.35 3.5-1.35-.7q.1-1.9-.2-4.4.1-1.2.6-2.15" fill="#bf7802" fill-rule="evenodd" transform="translate(1.25 1.25)"/><path d="m14 18.85 1.65-.95L17 19.2l-1.6.7-.75.3-.65-1.35" fill="#ecbe2b" fill-rule="evenodd" transform="translate(1.25 1.25)"/><path d="m15.65 17.9 1.05-.95 1.65.65-1.3 1.55-.05.05-1.35-1.3" fill="#fdb918" fill-rule="evenodd" transform="translate(1.25 1.25)"/><path d="m16.7 16.95.8-1.45.2-.75 1.5-.15-.2 1.25-.65 1.75-1.65-.65" fill="#fffe8c" fill-rule="evenodd" transform="translate(1.25 1.25)"/><path d="m17.9 12.65 1.35.7v.35l-.05.9-1.5.15.2-2.1" fill="#ffc616" fill-rule="evenodd" transform="translate(1.25 1.25)"/><path d="M25.7 2.9q-1.85.2-3.2.8-2.15.85-3 2.65l-1.2-.25q1.6-3.1 7.4-3.2m-20 17.3h2.25q3-.2 5.2-1l.85-.35.65 1.35q-2.65.85-6.05.75l-1.2-.35-1.4-.35-.3-.05" fill="#c57802" fill-rule="evenodd" transform="translate(1.25 1.25)"/><path d="M32.5 12.1v.25M17.15 34.9h-.1l.5-.3M.6 20.5l.15-.1.25-.15h.05m22.6-17.8.2-.4m1.85.85 1.35.45 1.2.65.45.35.85.75M22.5 3.7l.8.85q2.45 2.85 2.3 6.4-.1 2.4-1.35 5.2l.5-.25 2.05-.95q1.85-.9 3.1-1.9l1.55-1.45q.6-.85.7-1.75m-.65 7 .6-.1m-8.2-3.3.1.8.25 1.6-.7 1.1-.45.8q-1.45 3.4-.4 7.4l.1.15.35 1.2 1.6 3.4-2.4-1.9-2.15-1.4-1.35-.95q-1.05-.5-2.15-1.15l-.6-.3q-.9-.5-1.75-.85l.8-.8.55-.6.85-1.05.2-.25q1.55-1.5 3.15-2.6 2.2-1.55 4.35-2.2-1.15-1.95-3.3-2.15-.8-.2-1.7 0m1.7-4.8q2.3 1.75 2.95 4.55m.4 5.45-.05-2.5v-.55m4.25 1.25 1.95-.05 1.05-.2M28 25.9l.7.45m-1.6-1.2.9.75m.5-8.8q-2.15-.05-4.25-.7m1.2 6.35q.6 1.35 1.65 2.4m-2.35 4.75L26 31l.8.9.6.7q1.45 1.7 1.3 2.95M24.3 18.9q.3 2.15 1.15 3.85M20.5 27.7l3.8 3.1q2.9 2.95 2.15 4.35-.85 1.4-5.05.45l-3.8-1.05M.6 20.5h.1l.05-.1m20.2-11.5L19 7.65M7.35 18.1q2.35-2.55 4.05-6.65m-.4 10.4.75.25q.1 0 .25.15l2.25 1.1h.1M11 21.85l-1.05-.35-1.35-.55m2.2 1.75-1.2-.45-1.1-.3-1.35-.4-.75-.15q-3.45-.5-4.2.7-.75 1.25 1.65 3.85l.4.45.25.2.8.8 1 .8.55.5v.6m3.95-6.6q2.25.75 4.85 2.15l.7.35 2.85 1.6 1.1.7.2.2" fill="none" stroke="#521661" stroke-linecap="round" stroke-linejoin="round" transform="translate(1.25 1.25)"/><path d="M6.85 28.7Q7 25.95 8.9 24.1l.6-.55 1.3-.85m9.7 5 .1 1.15q0 2.9-2.05 4.9l-.95.8" fill="none" stroke="#390b0b" stroke-linecap="round" stroke-linejoin="round" transform="translate(1.25 1.25)"/><path d="M23.1 2.35h.05l.5.1 2.05.45q-1.85.2-3.2.8-2.15.85-3 2.65l-.5 1.3-.1 2.2.35 3.5v.35l-.05.9-.2 1.25-.65 1.75-1.3 1.55-.05.05-1.6.7-.75.3q-2.65.85-6.05.75l-1.2-.35-1.4-.35-.3-.05q-3.25-.6-4.65.05M18.3 6.1q-.5.95-.6 2.15.3 2.5.2 4.4l-.2 2.1-.2.75-.8 1.45-1.05.95-1.65.95-.85.35q-2.2.8-5.2 1H5.7m5.1-11.55q-.15.9.2 1.9l.4.9q.65 1.25 2.1 2.6 1.6 1.95-1.65 3.25-2.5.8-4.5.8l-2.15-.35M25.7 2.9q-5.8.1-7.4 3.2" fill="none" stroke="#7d4b02" stroke-linecap="round" stroke-linejoin="round" transform="translate(1.25 1.25)"/><path d="m24.4 3.6.3-.55.85-1.05q1-.9 2.5-.7l.85.1q.45.2.7.45.15 0 .2.15l.6.6q.85 1.3.4 3.75 1 .9 1.75 2.35l.85 2.4.15.9.2 1.35m0 .25v1.15l-.1 1.75-.3 1.5q-.8 3.45-2.8 7.55l-.6 2.05-.2.9-.15 1.55q-.05 1.05.2 2 .5 2.55.15 4.75l-.2.5q-1 1.7-5.85.65l-5.5-1.8m-10.3-5.6-.45-.35-1.15-.85-1.05-.75-.45-.45-1.1-1q-3.4-3.4-2.4-5l.35-.4M6.45 19l1.65-2.2 2.4-4.3q.7-1.45 1.55-2.6" fill="none" stroke="#521661" stroke-linecap="round" stroke-linejoin="round" stroke-width="2.5"/><path d="M2.3 21.5q.6-.65 1.85-1.25l1.55-.7.75-.55m5.6-9.1q.8-1.35 1.65-2.35Q16.9 3.9 21 3.6q1.75-.15 3.35 0" fill="none" stroke="#7d4b02" stroke-linecap="round" stroke-linejoin="round" stroke-width="2.5"/><path d="M18.3 36.15q-1.45.8-3.3.8l-1-.1q-1.65-.2-2.9-1.05l-.95-.8-1.4-1.8q-.5-1.25-.65-2.65" fill="none" stroke="#390b0b" stroke-linecap="round" stroke-linejoin="round" stroke-width="2.5"/></g><g id="q"><path d="M91.2 9.65V8.8q16.35 2.5 25.45 17.55l9.1 19.65q-7.6-3.75-14.55-9.5l7.25 9.35-.05-.05q4.2 8.55 14.5 15.3 4.55 3.35 5.6 8.75 1.2 6.05-2 14.65-.6-7.45-5.35-10.8-4.15-1.8-7.1-3.85l-2.55-1.95 1 1.95q2.35 3.95 7.05 7 2.2 3.4 2.7 6.6 1.1 7.2-6.7 13.5l-9 7.4-.6.35q8.25-11.65 6.1-24.3-4.6 12.95-10.4 20-4.15 5-5.35 11.25.5-7.95 4.5-17.5 6.5-13.5 5.65-24.3-.8-9.95-7.8-17.6 6.95 5.15 13.9 13.55-6.25-24.55-26.8-37.4 6.6.6 13.75 3.05-3.8-16.85-18.3-21.8m-2.25-1.1-.3.3-2.2-.5 2.5.2-2.5-.2-1.35-.05-2.25-.25 11.4-5.55-5.3 6.05M69.4 135.4q-5-31.55 11.9-44.95-4.85 6.05-5.9 9.7 7.95-4.8 15.8-14-5.25 9.25-10.55 13.75-16.1 19.45-5.9 30.9-1.7 5.6-.9 11.2-2.7-3.05-4.45-6.6m.55-130.1L66 5.45l-5.85.45L73 0q-.45 3.1-3.05 5.3m-59.1 65.85Q-5.9 41.4 28.4 16 15.35 26.25 13.6 40.95l-.95-3.05v.1l-.1.2q-8.4 13-1.5 33.4l-.2-.45m88.6-1.3q5.7-19.6-5.7-29.8 17.9 8.8 8.45 29.8-2.95 6.45-8.45 14.1 3.8-7.55 5.7-14.1" fill="#c4f2ff" fill-rule="evenodd" transform="translate(1.25 1.85)"/><path d="M91.2 9.65q14.5 4.95 18.3 21.8-7.15-2.45-13.75-3.05 20.55 12.85 26.8 37.4-6.95-8.4-13.9-13.55 7 7.65 7.8 17.6.85 10.8-5.65 24.3-4 9.55-4.5 17.5-.25 3.7.25 7-5.75-6.8-2.1-21.55l4.35-15.25q-11.1 10-17.6 19.9-6.45 9.85-8.3 19.6-2.4-4.6-2.75-10.85-6.25 11.85-3.1 22.4l-2.3-2.1q-10.2-11.45 5.9-30.9 5.3-4.5 10.55-13.75-7.85 9.2-15.8 14 1.05-3.65 5.9-9.7-16.9 13.4-11.9 44.95-4.85-9.5-3.3-22.05.5-4.25 1.8-8.85l1.65-4.5q5.5-7.5 4.85-16.2.9-9.85-.1-10.95l-2.35-2.75q-.4-.5-1.2-.8.8-1.95 1.2-4v-.95l-2.6.35q-2.4-.2-4.4 1.35 3.3-8.65.55-2.35l16.35-52.65L80.2 9.3l-1.85-1.75 4.5.5 2.25.25 1.35.05 2.2.5 2.55.8m8.25 60.2q-1.9 6.55-5.7 14.1 5.5-7.65 8.45-14.1 9.45-21-8.45-29.8 11.4 10.2 5.7 29.8" fill="#f9ffff" fill-rule="evenodd" transform="translate(1.25 1.85)"/><path d="m82.85 8.05-4.5-.5L80.2 9.3l1.65 1.75L65.5 63.7l-.75 2.55q-.95.75-1.8 2L26.35 56.8q-3.9-19.95 6.75-44.1L28.4 16Q-5.9 41.4 10.85 71.15-4.85 45 15.8 24.3l2.4-2.75Q-4.9 40.05 3.75 69.8-3.2 57.55 2.7 38 16.85 5.55 54.55 3.05 66.2 2.5 73 0L60.15 5.9 66 5.45l3.95-.15q12.55-.6 24.3-2.8l-11.4 5.55" fill="#fbffff" fill-rule="evenodd" transform="translate(1.25 1.85)"/><path d="M129.55 76.85q-4.7-3.05-7.05-7l-1-1.95 2.55 1.95q2.95 2.05 7.1 3.85 4.75 3.35 5.35 10.8l-1.55 3.75q-1.6-8.15-5.4-11.4m-11.1-31-7.25-9.35q6.95 5.75 14.55 9.5l2.05 4.4q-5.2-.7-9.35-4.55" fill="#94e0ff" fill-rule="evenodd" transform="translate(1.25 1.85)"/><path d="M77.05 132.9q-3.15-10.55 3.1-22.4.35 6.25 2.75 10.85 1.85-9.75 8.3-19.6 6.5-9.9 17.6-19.9l-4.35 15.25q-3.65 14.75 2.1 21.55l1.25 1.35q1.55 13.9-6.15 20.45 1.35-10-3.5-17.6-3.8-6.6-3.45-13-3.35 9.95 1.15 19.85 2.4 6.35-4.65 13.35l-.05.05-.45.45q-5.95 5.05-10.05 7.25-7.7 4.25-11.95 10.05l-.1.05-2.25 2.35q2.9-8.5 15.6-17 5.65-6.05-.75-17.45 1.25 6.95.3 10.5-.4-3.35-4.3-6.25l-.15-.15m39.75-.2q2.5-3.35 1.05-9 5.2 4.55-2.1 12.35 1.05-1.85 1.05-3.35m-1.05-2.75q-1.15 8.8-13.85 16.45l5.5-6.2q2.6-2.6 4.65-5.65 2.2-4.35 1.65-11.5l1.7 1.7q.65 2.65.35 5.2" fill="#c5f7ff" fill-rule="evenodd" transform="translate(1.25 1.85)"/><path d="M106.3 111.65q1.2-6.25 5.35-11.25 5.8-7.05 10.4-20 2.15 12.65-6.1 24.3l.6-.35 9-7.4q7.8-6.3 6.7-13.5 4.1 15.45-10.05 27.35-11.5 9.65-4.35 12.9 1.45 5.65-1.05 9 0-1.55-1.05-2.75.3-2.55-.35-5.2l-1.7-1.7q.55 7.15-1.65 11.5-2.05 3.05-4.65 5.65-6.35 6.1-16.2 9.7l-1.45.5q-14.55 4.55-21.05 10.45 4.25-5.8 11.95-10.05 4.1-2.2 10.05-7.25l.45-.45.05-.05q7.05-7 4.65-13.35-4.5-9.9-1.15-19.85-.35 6.4 3.45 13 4.85 7.6 3.5 17.6 7.7-6.55 6.15-20.45l-1.25-1.35q-.5-3.3-.25-7" fill="#93dfff" fill-rule="evenodd" transform="translate(1.25 1.85)"/><path d="m28.4 16 4.7-3.3q-10.65 24.15-6.75 44.1L24.1 59q-7.25-8.45-10.5-18.05Q15.35 26.25 28.4 16" fill="#97e3ff" fill-rule="evenodd" transform="translate(1.25 1.85)"/><path d="M3.75 69.8Q-4.9 40.05 18.2 21.55l-2.4 2.75Q-4.85 45 10.85 71.15l.2.45-3.55 3.35Q5.3 72.5 3.75 69.8" fill="#c9effa" fill-rule="evenodd" transform="translate(1.25 1.85)"/><path d="M12.65 38v-.1l.95 3.05q-1.3 11 3.7 24.55-7-13.8-4.7-27.3l.05-.2m-.1.2q-6.9 17.35.5 31.4l-.25.25-1.75 1.75q-6.9-20.4 1.5-33.4" fill="#f5fdff" fill-rule="evenodd" transform="translate(1.25 1.85)"/><path d="M12.6 38.2q-2.3 13.5 4.7 27.3l-3.95 3.85-.3.25q-7.4-14.05-.5-31.4h.05" fill="#95ddf6" fill-rule="evenodd" transform="translate(1.25 1.85)"/><path d="M17.3 65.5q-5-13.55-3.7-24.55 3.25 9.6 10.5 18.05l-6.8 6.5" fill="#c9f5ff" fill-rule="evenodd" transform="translate(1.25 1.85)"/><path d="M65.5 63.7q2.75-6.3-.55 2.35l-.2.2.75-2.55" fill="#c1f4f8" fill-rule="evenodd" transform="translate(1.25 1.85)"/><path d="M81.5 139.3q.95-3.55-.3-10.5 6.4 11.4.75 17.45-12.7 8.5-15.6 17-1.5 1.85-2.3 3.85-1.25-7.9 9.8-15.75 8.3-6.6 7.65-12v-.05" fill="#f4ffff" fill-rule="evenodd" transform="translate(1.25 1.85)"/><path d="M133.5 85.3q-.5-3.2-2.7-6.6 3.8 3.25 5.4 11.4l1.55-3.75q3.2-8.6 2-14.65-1.05-5.4-5.6-8.75-10.3-6.75-14.5-15.3l.05.05q4.15 3.85 9.35 4.55l-2.05-4.4-9.1-19.65q-9.1-15.05-25.45-17.55l-2.25-.25-.3.3m.3-.3-2.5-.2m7.8-5.85q-11.75 2.2-24.3 2.8 2.6-2.2 3.05-5.3-6.8 2.5-18.45 3.05Q18.1 7.4 3.95 39.85-1.95 59.4 5 71.65q1.55 2.7 3.75 5.15l3.55-3.35m83.2-69.1-5.3 6.05m28.9 115.15q-7.15-3.25 4.35-12.9 14.15-11.9 10.05-27.35" fill="none" stroke="#3c5566" stroke-linecap="round" stroke-linejoin="miter-clip" stroke-miterlimit="3" stroke-width="2.5"/><path d="M80.65 99.9q-16.1 19.45-5.9 30.9M69.95 5.3 66 5.45M15.8 24.3Q-4.85 45 10.85 71.15l.2.45q-6.9-20.4 1.5-33.4l.1-.2-.05.2q-2.3 13.5 4.7 27.3l6.8-6.5q-7.25-8.45-10.5-18.05l-.95-3.05v.1m.7 31.35 3.95-3.85m9.05-8.7L24.1 59M12.8 69.85l.55-.5m-.55.5-1.75 1.75m104.7 58.35q.3-2.55-.35-5.2m-3.35 9.8q-2.05 3.05-4.65 5.65" fill="none" stroke="#3c5566" stroke-linecap="round" stroke-linejoin="miter-clip" stroke-miterlimit="3" transform="translate(1.25 1.85)"/><path d="M67.35 115.2q-1.55 12.55 3.3 22.05 1.75 3.55 4.45 6.6-.8-5.6.9-11.2l2.3 2.1.15.15q3.9 2.9 4.3 6.25M67.6 165.1l2.25-2.35m12.9-21.55q.65 5.4-7.65 12-11.05 7.85-9.8 15.75.8-2 2.3-3.85m49.4-33.3q1.05 1.2 1.05 2.75 0 1.5-1.05 3.35 7.3-7.8 2.1-12.35m-10.45 16.5-5.5 6.2q12.7-7.65 13.85-16.45m-8.35 10.25q-6.35 6.1-16.2 9.7l-1.45.5q-14.55 4.55-21.05 10.45" fill="none" stroke="#3c5566" stroke-linecap="round" stroke-linejoin="miter-clip" stroke-miterlimit="3" stroke-width="1.5"/><path d="M104.45 97.1q-3.65 14.75 2.1 21.55l1.25 1.35q-1.4-9.2 8.15-15.3l.6-.35 9-7.4q7.8-6.3 6.7-13.5" fill="none" stroke="#3c5566" stroke-linecap="round" stroke-linejoin="miter-clip" stroke-miterlimit="3" transform="translate(1.25 1.85)"/></g><g id="r"><path d="M25.35 52.5q-1.5 17.15 7.5 18.8Q50.2 73.45 53.5 57.7l2.3-.15q-.6 4.3 1.85 7.5l12.4-8.5Q76.6 62.15 76.4 74q-8.65 15.85-13.8 29-4.25 7.15-13.6 7.15-7.35-.1-13.55 2.4-22.15 10.35-33-2.1-4.85-11-.1-15.45Q15.7 83.35 17.2 74.65q2.2-15.05 8.15-22.15m-.5 54.45q1.55.2 1.7-1.65.15-1.8-1.05-2.6-1.3-.8-2.7-.5-1.45.3-2.55 1.15-1.2.7-2 1.95-.85 1.25.7 1.3h.5l2.4.05 3 .3M7.4 105.3q1.5.45.5-1.3-1.05-1.85-2.55-2.85-1.55-1.05-1.9-.95-.45.1-.85.85-.5.75-.5 1.65 0 .85.55 1.65.45.5 1.3.6h.6l2.85.35" fill="#f9ffff" fill-rule="evenodd" transform="translate(1.25 -6.75)"/><path d="M2.45 110.45q10.85 12.45 33 2.1 6.2-2.5 13.55-2.4 9.35 0 13.6-7.15 5.15-13.15 13.8-29 .2-11.85-6.35-17.45l-12.4 8.5q-2.45-3.2-1.85-7.5l-2.3.15q-3.3 15.75-20.65 13.6-9-1.65-7.5-18.8 3.8-4.6 9.2-5.95 55-16.15 51.35 40.25-12.5 5.05-19.3 17.55-.55 7.3-15.95 9.7-8.25.7-12.2 3.25-15.8 9.85-27 .8-5.75-1.45-8-5.45l-1-2.2m28.85 7.3q-12.7 2.2-19.85.35 7.15 1.85 19.85-.35" fill="#c4f2ff" fill-rule="evenodd" transform="translate(1.25 -6.75)"/><path d="M24.85 106.95q.55-2.35-1.65-2.75-3.4-.45-3.75 2.4h-.5q-1.55-.05-.7-1.3.8-1.25 2-1.95 1.1-.85 2.55-1.15 1.4-.3 2.7.5 1.2.8 1.05 2.6-.15 1.85-1.7 1.65" fill="#5bd7ff" fill-rule="evenodd" transform="translate(1.25 -6.75)"/><path d="M3.95 104.95q-.85-.1-1.3-.6-.55-.8-.55-1.65 0-.9.5-1.65.4-.75.85-.85.35-.1 1.9.95 1.5 1 2.55 2.85 1 1.75-.5 1.3-.3-3.1-2.9-2.9-1.3.6-.55 2.55" fill="#54ceff" fill-rule="evenodd" transform="translate(1.25 -6.75)"/><path d="M19.45 106.6q.35-2.85 3.75-2.4 2.2.4 1.65 2.75l-3-.3-2.4-.05M7.4 105.3l-2.85-.35h-.6q-.75-1.95.55-2.55 2.6-.2 2.9 2.9" fill="#8eddfc" fill-rule="evenodd" transform="translate(1.25 -6.75)"/><path d="M26.6 45.75q-5.95 7.1-8.15 22.15-1.5 8.7-14.85 20.35-4.75 4.45.1 15.45l1 2.2q2.25 4 8 5.45 11.2 9.05 27-.8 3.95-2.55 12.2-3.25 15.4-2.4 15.95-9.7M35.8 39.8q-5.4 1.35-9.2 5.95" fill="none" stroke="#3c5566" stroke-linecap="round" stroke-linejoin="round" stroke-width="2.5"/><path d="M11.45 118.1q7.15 1.85 19.85-.35m-6.45-10.8q1.55.2 1.7-1.65.15-1.8-1.05-2.6-1.3-.8-2.7-.5-1.45.3-2.55 1.15-1.2.7-2 1.95-.85 1.25.7 1.3h.5l2.4.05 3 .3m-20.9-2q-.85-.1-1.3-.6-.55-.8-.55-1.65 0-.9.5-1.65.4-.75.85-.85.35-.1 1.9.95 1.5 1 2.55 2.85 1 1.75-.5 1.3l-2.85-.35h-.6z" fill="none" stroke="#3c5566" stroke-linecap="round" stroke-linejoin="round" transform="translate(1.25 -6.75)"/><path d="M44.7 12.55q15.3-7.95 45.25-5 6.8 6.45 7.6 9.4.7 2.55.7 4.15 0 3.95-2 11.35-1.85 6.9-7.75 17.05L75.6 68.55Q72.85 60.7 61.9 53.5q8.8-3.4 19.25-13.25l3.45-3.4Q71.2 44.6 60.3 47.9q9.65-4.6 20.9-14.5h.05l.1-.15 1.95-1.85 6.85-4.7q-16.9 7.8-29.95 10.75 4.2-5.5 12.35-12-10.5 2.85-17.25 8.15l-11.65 9q3-9.2 12.45-15.45 7.85-5.3 20.2-8.5l11.2-3.15q-21.2 1.15-38.25 10.8 2.45-3.35 8.05-6.65-15.85 4.6-22.45 17.4Q37.45 24.9 53.2 15.5l4.1-1.95Q44.7 16.3 35.05 27.7l1.05-2.6q5.25-7.95 13.2-12.25-14.1 5-19.5 22.95v-3.1q-2.7 6.05-3.35 12.25-.95-18 18.25-32.4M83.4 8.3q-20.85-2.75-34.1 4.55 13.25-7.3 34.1-4.55" fill="#f9ffff" fill-rule="evenodd" transform="translate(1.25 -6.75)"/><path d="M102.8 8.8v.85l-4.75-1.3 4.75.45M40.7 51.55H39Q36.75 38.7 44 29q-10.45 7.8-6.8 22.55h-1.3l-7.45 3.4q-1.7-5-2-9.65v-.35q.65-6.2 3.35-12.25v3.1q5.4-17.95 19.5-22.95-7.95 4.3-13.2 12.25l-1.05 2.6Q44.7 16.3 57.3 13.55l-4.1 1.95q-15.75 9.4-18.35 21.55 6.6-12.8 22.45-17.4-5.6 3.3-8.05 6.65Q66.3 16.65 87.5 15.5l-11.2 3.15q-12.35 3.2-20.2 8.5-17.45 8.5-15.4 24.4m2.95-8.95 11.65-9q6.75-5.3 17.25-8.15-8.15 6.5-12.35 12Q73.25 34.5 90.15 26.7l-6.85 4.7-1.95 1.85-.1.15h-.05Q62.75 44.15 46.75 48.7q4.1-7.75 13.4-15.55-8.6 2.85-16.6 13.2v-3.7l.1-.05m16.65 5.3q10.9-3.3 24.3-11.05l-3.45 3.4Q58.1 57.85 46.3 51.7q6.4-.3 13.65-3.65l.35-.15M34.85 37.05q-1.5 6.85 1.05 14.5-2.55-7.65-1.05-14.5" fill="#c4f2ff" fill-rule="evenodd" transform="translate(1.25 -6.75)"/><path d="M61.9 53.5q-11.25 4.4-19.75-1.95l4.15.15-4.15-.15q.05-4.75 1.4-8.9v3.7q8-10.35 16.6-13.2-9.3 7.8-13.4 15.55 16-4.55 34.45-15.3-11.25 9.9-20.9 14.5l-.35.15Q52.7 51.4 46.3 51.7q11.8 6.15 34.85-11.45Q70.7 50.1 61.9 53.5" fill="#95e0ff" fill-rule="evenodd" transform="translate(1.25 -6.75)"/><path d="M42.15 51.55H40.7q-2.05-15.9 15.4-24.4-9.45 6.25-12.45 15.45l-.1.05q-1.35 4.15-1.4 8.9m-3.15 0h-1.8Q33.55 36.8 44 29q-7.25 9.7-5 22.55" fill="#97e3ff" fill-rule="evenodd" transform="translate(1.25 -6.75)"/><path d="M75.6 68.55Q72.85 60.7 61.9 53.5q-11.25 4.4-19.75-1.95H35.9l-7.45 3.4q-1.7-5-2-9.65m0-.35q-.95-18 18.25-32.4M83.3 31.4l-1.95 1.85-.1.15h-.05q-11.25 9.9-20.9 14.5m20.85-7.65Q70.7 50.1 61.9 53.5m-8.7-38q-15.75 9.4-18.35 21.55-1.5 6.85 1.05 14.5m40.4-32.9q-12.35 3.2-20.2 8.5-9.45 6.25-12.45 15.45l-.1.05q-1.35 4.15-1.4 8.9l4.15.15q6.4-.3 13.65-3.65M49.3 12.85q13.25-7.3 34.1-4.55M36.1 25.1q5.25-7.95 13.2-12.25" fill="none" stroke="#3c5566" stroke-linecap="round" stroke-linejoin="miter-clip" stroke-miterlimit="3" transform="translate(1.25 -6.75)"/></g><g id="s"><path d="m40.15 77.65.85-2.4.75-1.45.75-1 1.7-1.4q.55-.3 1.35 1 .7 1.25-1.3 3.25l-2.6 2.65-2.05 2.4.55-3.05" fill="#001727" fill-rule="evenodd" transform="translate(-34.25 -71.35)"/><path d="M41.2 73.45q-4.9 7.1-5.3 12.9-.15 4.2-1.15 5.8" fill="none" stroke="#01597e" stroke-linecap="round" stroke-linejoin="round" transform="translate(-34.25 -71.35)"/></g><g id="v"><path d="m10.2 15.95.4.55q1.75 2 4.25 2 2.1 0 3.6-1.45l.8.3.85-.35.35-.85q0-.5-.35-.85l-.15-.1q.85-1.55.85-3.45 0-2.7-1.8-4.7-1.7-1.95-4.15-1.95-2.5 0-4.25 1.95-1.7 2-1.7 4.7 0 1.5.45 2.7v.2q.15.8.8 1.2l.05.1M14.7 2.7q3.1 0 5.3 2.75 2.25 2.75 2.25 6.7 0 4-2.25 6.75-2.2 2.75-5.3 2.75-3.15 0-5.4-2.75-2.2-2.75-2.2-6.75 0-3.95 2.2-6.7 2.25-2.75 5.4-2.75" fill="#930091" fill-rule="evenodd" transform="translate(-6.6 -2.2)"/><path d="M12.15 16.15q1.2.85 2.7.85 2.05 0 3.45-1.7 1.5-1.65 1.5-4 0-2.3-1.5-4-1.4-1.65-3.45-1.65-2.05 0-3.55 1.65-1.45 1.7-1.45 4l.15 1.3-.25.35q-.45.7-.4 1.5-.45-1.2-.45-2.7 0-2.7 1.7-4.7 1.75-1.95 4.25-1.95 2.45 0 4.15 1.95 1.8 2 1.8 4.7 0 1.9-.85 3.45l-.7-.25q-.5 0-.85.35-.4.35-.4.85t.4.85l.05.05q-1.5 1.45-3.6 1.45-2.5 0-4.25-2l-.4-.55.15.1 1.65.1h.15" fill="#f70ea7" fill-rule="evenodd" transform="translate(-6.6 -2.2)"/><path d="m10 12.6-.15-1.3q0-2.3 1.45-4 1.5-1.65 3.55-1.65T18.3 7.3q1.5 1.7 1.5 4 0 2.35-1.5 4-1.4 1.7-3.45 1.7-1.5 0-2.7-.85l1.25-1.05q.5-.95.3-1.85-.15-.95-.9-1.35l-1.75-.15q-.6.2-1.05.85" fill="#220809" fill-rule="evenodd" transform="translate(-6.6 -2.2)"/><path d="M12.15 16.15H12l-1.65-.1-.15-.1-.05-.1q-.65-.4-.8-1.2v-.2q-.05-.8.4-1.5l.25-.35q.45-.65 1.05-.85l1.75.15q.75.4.9 1.35.2.9-.3 1.85l-1.25 1.05m6.3.9L18.4 17q-.4-.35-.4-.85t.4-.85q.35-.35.85-.35l.7.25.15.1q.35.35.35.85l-.35.85-.85.35-.8-.3" fill="#fff" fill-rule="evenodd" transform="translate(-6.6 -2.2)"/><path d="M14.7 2.7q3.1 0 5.3 2.75 2.25 2.75 2.25 6.7 0 4-2.25 6.75-2.2 2.75-5.3 2.75-3.15 0-5.4-2.75-2.2-2.75-2.2-6.75 0-3.95 2.2-6.7 2.25-2.75 5.4-2.75z" fill="none" stroke="#220809" stroke-linecap="round" stroke-linejoin="round" transform="translate(-6.6 -2.2)"/></g><g id="w"><path d="M21.4 16.05q2.65-2.6 3.35-5.5.7-3-.7-4.05-1.4-1.05-4.6-1-3.25.1-5.9 2.7-2.6 2.65-4.45 6.55-1.85 3.8-.5 5.65 1.35 1.85 5.8.05 4.4-1.75 7-4.4m4.9-3.3q-2.05 4.55-6.5 7.2-4.45 2.8-8.65 3.2-3.95.35-4.85-3.6-.9-4.1.9-8.7 1.7-4.65 6.55-7.4Q18.5.7 22.4 1.25q3.9.5 5.05 3.75.9 3.2-1.15 7.75" fill="#c4f2ff" fill-rule="evenodd" transform="translate(-6 -1.15)"/><path d="M21.4 16.05q-2.6 2.65-7 4.4-4.45 1.8-5.8-.05-1.35-1.85.5-5.65 1.85-3.9 4.45-6.55 2.65-2.6 5.9-2.7 3.2-.05 4.6 1 1.4 1.05.7 4.05-.7 2.9-3.35 5.5z" fill="none" stroke="#01597e" stroke-linecap="round" stroke-linejoin="round" transform="translate(-6 -1.15)"/></g><g id="x"><path d="M35.55 55q.55.55.55 1.35t-.55 1.35q-.55.55-1.35.55t-1.35-.55q-.55-.55-.55-1.35t.55-1.35q.55-.55 1.35-.55l.9.2.45.35" fill="#ffb6b6" fill-rule="evenodd" transform="translate(-23.5 -38.9)"/><path d="m35.5 53.15.9.65q.95 1.05.95 2.5 0 1.4-.95 2.45-.95 1-2.3 1-1.35 0-2.3-1l-.15-.2q-.8-1-.8-2.25 0-1.45.95-2.5.95-1 2.3-1l1.4.35m.05 1.85-.45-.35-.9-.2q-.8 0-1.35.55t-.55 1.35q0 .8.55 1.35t1.35.55q.8 0 1.35-.55t.55-1.35q0-.8-.55-1.35" fill="#ff878d" fill-rule="evenodd" transform="translate(-23.5 -38.9)"/><path d="m31.65 58.55.15.2q.95 1 2.3 1 1.35 0 2.3-1 .95-1.05.95-2.45 0-1.45-.95-2.5l-.9-.65.05-2.1q1.4.2 2.5 1.1 1.55 1.35 1.55 3.5 0 2.1-1.55 3.9-1.65 1.7-3.9 1.9-2.3.2-3.9-1.2-.6-.5-.85-1l2.25-.7" fill="#ee191f" fill-rule="evenodd" transform="translate(-23.5 -38.9)"/><path d="M31.15 52.1q1.35-1 3-1.15l1.4.1-.05 2.1-1.4-.35q-1.35 0-2.3 1-.95 1.05-.95 2.5 0 1.25.8 2.25l-2.25.7q-.8-1.1-.8-2.55 0-1.05.4-2.05l.25-.15q.9-.4 1.45-1.5l.45-.9" fill="#ff3a43" fill-rule="evenodd" transform="translate(-23.5 -38.9)"/><path d="M34.9 49.2q2.5.15 4.1 1.9 1.85 2.05 1.65 4.95-.3 2.95-2.4 4.9Q36.05 63 33.3 63q-2.85 0-4.65-2.05-.75-.85-1.1-1.9l1.4.2h.45q.25.5.85 1 1.6 1.4 3.9 1.2 2.25-.2 3.9-1.9 1.55-1.8 1.55-3.9 0-2.15-1.55-3.5-1.1-.9-2.5-1.1-.15-1-.65-1.85" fill="#8b020a" fill-rule="evenodd" transform="translate(-23.5 -38.9)"/><path d="M37.65 48q1.35.5 2.5 1.4l.9.95q1.85 2.2 1.85 5.15 0 2.55-1.3 4.65l-1.45 1.8q-2.75 3-6.75 3.25-3.9.35-6.65-2.1-2.1-1.8-2.6-4.35l-.15-1.6q0-2.05.85-3.85-.35 1.8.15 3.1.1 2.1 1.1 3.7l1 1.35Q29.5 64 32.85 64q3.4 0 5.8-2.55 2.55-2.45 2.7-5.95.1-3.45-2.35-6L37.25 48h.4" fill="#ff84b4" fill-rule="evenodd" transform="translate(-23.5 -38.9)"/><path d="M37.25 48 39 49.5q2.45 2.55 2.35 6-.15 3.5-2.7 5.95-2.4 2.55-5.8 2.55-3.35 0-5.75-2.55l-1-1.35.25-1.7 1.2.65q.35 1.05 1.1 1.9Q30.45 63 33.3 63q2.75 0 4.95-2.05 2.1-1.95 2.4-4.9.2-2.9-1.65-4.95-1.6-1.75-4.1-1.9l-.15-.15-.5-.65 3-.4" fill="#520205" fill-rule="evenodd" transform="translate(-23.5 -38.9)"/><path d="m31 49.9-.4-.35-1.65.05q-.85.5-1.5 1.6-.55 1.05-.55 1.95.05.85.55 1.35-.75 1.7-1.1 3.9l-.8-.9-.55-1.1v-.9q.05-2.35 1.2-4.25l.55-.7q2.5-2.5 5.9-3 .9.25 1.6.85-1.8.5-3.25 1.5" fill="#d79098" fill-rule="evenodd" transform="translate(-23.5 -38.9)"/><path d="M26.1 60.1q-1-1.6-1.1-3.7l.55 1.1.8.9-.25 1.7" fill="#b06f77" fill-rule="evenodd" transform="translate(-23.5 -38.9)"/><path d="m27.55 59.05-1.2-.65q.35-2.2 1.1-3.9-.2.7-.25 1.55-.15 1.65.35 3" fill="#c2272d" fill-rule="evenodd" transform="translate(-23.5 -38.9)"/><path d="m27.45 54.5.25.15q.6.35 1.3 0-.4 1-.4 2.05 0 1.45.8 2.55h-.45l-1.4-.2q-.5-1.35-.35-3 .05-.85.25-1.55" fill="#d82930" fill-rule="evenodd" transform="translate(-23.5 -38.9)"/><path d="M27.45 54.5q-.5-.5-.55-1.35 0-.9.55-1.95.65-1.1 1.5-1.6l1.65-.05.4.35.1.15q-.5.2-.95.55-1.6 1.45-2.6 3.65l-.1.25" fill="#e2d4d4" fill-rule="evenodd" transform="translate(-23.5 -38.9)"/><path d="m27.45 54.5.1-.25q1-2.2 2.6-3.65.45-.35.95-.55l.2.9-.15 1.15-.9.8q-.8.85-1.25 1.75-.7.35-1.3 0l-.25-.15" fill="#e3b0b9" fill-rule="evenodd" transform="translate(-23.5 -38.9)"/><path d="m34.7 47.4 1.75.25.8.35-3 .4q-.7-.6-1.6-.85l.75-.15h1.3" fill="#ad687a" fill-rule="evenodd" transform="translate(-23.5 -38.9)"/><path d="M24.15 58.75q.5 2.55 2.6 4.35 2.75 2.45 6.65 2.1 4-.25 6.75-3.25l1.45-1.8.9.45-2.15 2.75-1.4 1q-1.85 1.15-3.55 1.7l-4.2.45q-2.1-.3-3.95-1.65-1.7-1.2-3.2-3.25-.15-1.35.1-2.85" fill="#fbffff" fill-rule="evenodd" transform="translate(-23.5 -38.9)"/><path d="M41.05 50.35q.4-1.35 1.8-1.6l1.5 1.6 1.05 1.75q-.35 1.55-1.65 1.65.25 2.1-.2 3.95-.35 1.55-1.05 2.9l-.9-.45q1.3-2.1 1.3-4.65 0-2.95-1.85-5.15" fill="#9ad6fa" fill-rule="evenodd" transform="translate(-23.5 -38.9)"/><path d="m41.05 50.35-.9-.95q-1.15-.9-2.5-1.4l-1.2-.35-1.75-.25 2.75-.35q3.2 0 5.4 1.7-1.4.25-1.8 1.6" fill="#62b0ff" fill-rule="evenodd" transform="translate(-23.5 -38.9)"/><path d="M45.4 52.1q.7 1.65.7 3.6l-1.15 2.9-1.4-.9q.45-1.85.2-3.95 1.3-.1 1.65-1.65" fill="#55acf9" fill-rule="evenodd" transform="translate(-23.5 -38.9)"/><path d="m43.55 57.7 1.4.9q-1.7 3.65-4.5 6.7l-1.5-.95 1.4-1 2.15-2.75q.7-1.35 1.05-2.9" fill="#366fb2" fill-rule="evenodd" transform="translate(-23.5 -38.9)"/><path d="m35.45 68.6-2.8.35-2.85-.35q1.2-.5 1.4-2.1l4.2-.45q.95 1.8.05 2.55" fill="#b0e2fd" fill-rule="evenodd" transform="translate(-23.5 -38.9)"/><path d="m37.8 67.85-2.35.75q.9-.75-.05-2.55 1.7-.55 3.55-1.7l1.5.95-2.65 2.55" fill="#57aefe" fill-rule="evenodd" transform="translate(-23.5 -38.9)"/><path d="m26.7 66.85-1-1.05q-1.45-1.85-1.65-4.2 1.5 2.05 3.2 3.25-.7 1-.55 2" fill="#ade2ff" fill-rule="evenodd" transform="translate(-23.5 -38.9)"/><path d="M29.8 68.6q-1.75-.55-3.1-1.75-.15-1 .55-2 1.85 1.35 3.95 1.65-.2 1.6-1.4 2.1" fill="#fafeff" fill-rule="evenodd" transform="translate(-23.5 -38.9)"/><path d="m34.25 48.4.5.65.15.15q.5.85.65 1.85l-1.4-.1q-1.65.15-3 1.15l.15-1.15-.2-.9-.1-.15q1.45-1 3.25-1.5" fill="#c02e39" fill-rule="evenodd" transform="translate(-23.5 -38.9)"/><path d="M29 54.65q.45-.9 1.25-1.75l.9-.8-.45.9q-.55 1.1-1.45 1.5l-.25.15" fill="#feb6b9" fill-rule="evenodd" transform="translate(-23.5 -38.9)"/><path d="m46.1 55.7-.3 2.35q-.95 4.55-4.85 7.75l-3.15 2.05 2.65-2.55q2.8-3.05 4.5-6.7l1.15-2.9" fill="#59fdfe" fill-rule="evenodd" transform="translate(-23.5 -38.9)"/><path d="M37.65 48q1.35.5 2.5 1.4l.9.95q1.85 2.2 1.85 5.15 0 2.55-1.3 4.65l-1.45 1.8q-2.75 3-6.75 3.25-3.9.35-6.65-2.1-2.1-1.8-2.6-4.35l-.15-1.6q0-2.05.85-3.85.5-1.05 1.35-2.05-1.15 1.9-1.2 4.25v.9q.1 2.1 1.1 3.7l1 1.35Q29.5 64 32.85 64q3.4 0 5.8-2.55 2.55-2.45 2.7-5.95.1-3.45-2.35-6L37.25 48l-.8-.35 1.2.35m5.2.75q-2.2-1.7-5.4-1.7l-2.75.35 1.75.25m-3.8-.1.75-.15h1.3m10.7 4.7q.7 1.65.7 3.6l-.3 2.35q-.95 4.55-4.85 7.75l-3.15 2.05-2.35.75-2.8.35-2.85-.35q-1.75-.55-3.1-1.75l-1-1.05q-1.45-1.85-1.65-4.2-.15-1.35.1-2.85M45.4 52.1l-1.05-1.75-1.5-1.6m-10.2-1.2q-3.4.5-5.9 3l-.55.7" fill="none" stroke="#01597e" stroke-linecap="round" stroke-linejoin="round" transform="translate(-23.5 -38.9)"/><path d="M71.75 66.5 67 70.2l7.9-10.75.4-.25-3.55 7.3M70 76l4.7-10.8.75-.35-.3 1.45-1.2 6.15L70 76" fill="#ccf6ff" fill-rule="evenodd" transform="translate(-23.5 -38.9)"/><path d="m73.95 72.45 1.2-6.15q7.1-7.3 11.25-17.65-1.6 7.15-5.05 14.45l-5.55 8.85-1.9.8.05-.3m-7.3-8.6q-1-.1-.55-1.05 10.4-8.45 20.2-20.6l2-2.3q.6 0 .8 1.8-.8-.75-2.2 1.3-8.25 12.3-20.25 20.85" fill="#bfedfa" fill-rule="evenodd" transform="translate(-23.5 -38.9)"/><path d="M74.9 59.45 67 70.2l-.1-.1-9.4-4.3.5-5.05q.35-3.75 3.3-6.25 12.55-4.55 26.05-14.3.6-.35.95-.3l-2 2.3q-9.8 12.15-20.2 20.6-.45.95.55 1.05l8.25-4.4M89.1 41.7q.2 1.75-1.05 7.55-3 12.75-9.9 21.7l-2.05.85-.3.15 5.55-8.85q3.45-7.3 5.05-14.45.55-3.2.5-5.65 1.4-2.05 2.2-1.3" fill="#f9ffff" fill-rule="evenodd" transform="translate(-23.5 -38.9)"/><path d="m71.75 66.5 3.55-7.3-.4.25-8.25 4.4Q78.65 55.3 86.9 43q.05 2.45-.5 5.65Q82.25 59 75.15 66.3l.3-1.45-.75.35-2.95 1.3" fill="#8ad9fa" fill-rule="evenodd" transform="translate(-23.5 -38.9)"/><path d="m67 70.2 4.75-3.7 2.95-1.3L70 76l-3.1-5.9.1.1" fill="#f3ffff" fill-rule="evenodd" transform="translate(-23.5 -38.9)"/><path d="M72.5 76.4 70 76l3.95-3.55-.05.3 1.9-.8.3-.15-3.6 4.6" fill="#f6feff" fill-rule="evenodd" transform="translate(-23.5 -38.9)"/><path d="m78.15 70.95 1.05-.4q-.9 3.1-3.45 4.85l-3.25 1 3.6-4.6 2.05-.85" fill="#c5f4fc" fill-rule="evenodd" transform="translate(-23.5 -38.9)"/><path d="M64.8 1q-.35-.05-.95.3-13.5 9.75-26.05 14.3-2.95 2.5-3.3 6.25M64.8 1q.6 0 .8 1.8.2 1.75-1.05 7.55-3 12.75-9.9 21.7l1.05-.4q-.9 3.1-3.45 4.85" fill="none" stroke="#3c5566" stroke-linecap="round" stroke-linejoin="round" stroke-width="2"/><path d="m71.75 66.5 3.55-7.3-.4.25-8.25 4.4Q78.65 55.3 86.9 43q.05 2.45-.5 5.65-1.6 7.15-5.05 14.45m-6.65 2.1-2.95 1.3m2.2 5.95 1.2-6.15.3-1.45-.75.35m1.4 6.6-.3.15-1.9.8.05-.3m2.15-.65 2.05-.85" fill="none" stroke="#3c5566" stroke-linecap="round" stroke-linejoin="round" transform="translate(-23.5 -38.9)"/><path d="M81.15 100q1.75-5.35 2-8.75.1-2.05-.3-3.4L81.2 84.8q-1.9-4.6-1.85-10.45-.05 5.85 1.85 10.45-.55 7.7-5.95 10.45.7-1.95 0-4-.3 2.05-2.05 3.65l-.65.6q-2 1.6-2.4 3.3-.5-4.8 3.45-11.4l1.65-3.6q1.3-3.55 1.45-7.05l2.65-2.4 1.15-1.65 1.85-3.4q.8.3 1.15 2.35l1.2 11.7q.85 9.6-3.55 16.65" fill="#c1f4f8" fill-rule="evenodd" transform="translate(-23.5 -38.9)"/><path d="m81.2 84.8 1.65 3.05q.4 1.35.3 3.4-.25 3.4-2 8.75l-1.65 4.5q-1.3 4.6-1.8 8.85l-2.45 3.7-1.4 1.55 1.4-3.7q2.85-8.05 4.95-18.35l.95-5.2q-1.15 2.5-3.5 4.5-1.35 1.15-2.4 2.45-2.6 3.15-3.4 6.95-1-5.1.7-9.75l.65-.6q1.75-1.6 2.05-3.65.7 2.05 0 4 5.4-2.75 5.95-10.45" fill="#54caf8" fill-rule="evenodd" transform="translate(-23.5 -38.9)"/><path d="M71.85 105.25q.8-3.8 3.4-6.95 1.05-1.3 2.4-2.45 2.35-2 3.5-4.5l-.95 5.2q-2.1 10.3-4.95 18.35l-1.4 3.7q-2.1 1.9-4.4 2.55 4.75-7.1 2.75-14.45l-.05-.15-.3-1.3" fill="#c4f2ff" fill-rule="evenodd" transform="translate(-23.5 -38.9)"/><path d="m81.2 84.8 1.65 3.05q.4 1.35.3 3.4-.25 3.4-2 8.75l-1.65 4.5q-1.3 4.6-1.8 8.85m1.65-39Q79.3 80.2 81.2 84.8q-.55 7.7-5.95 10.45.7-1.95 0-4-.3 2.05-2.05 3.65l-.65.6" fill="none" stroke="#3c5566" stroke-linecap="round" stroke-linejoin="miter-clip" stroke-miterlimit="3" transform="translate(-23.5 -38.9)"/><path d="M49.05 56.6q-1.7 4.65-.7 9.75l.3 1.3.05.15q2 7.35-2.75 14.45 2.3-.65 4.4-2.55l1.4-1.55 2.45-3.7M46.65 59.9q-.3 1.2.15 2.45-5.55-5.15 3.3-17.4l1.65-3.4 1.1-3.45m-3.8 18.5q-2 1.6-2.4 3.3" fill="none" stroke="#3c5566" stroke-linecap="round" stroke-linejoin="miter-clip" stroke-miterlimit="3" stroke-width="1.5"/></g><path d="M142.1 6.45Q166.5 13 166.5 22.1q0 9.15-24.4 15.6-24.35 6.5-58.85 6.5t-58.9-6.5Q0 31.25 0 22.1 0 13 24.35 6.45 48.75 0 83.25 0t58.85 6.45" fill-opacity=".349" fill-rule="evenodd" id="c"/><path d="M24.05 6.5q1.4 1.05.7 4.05-.7 2.9-3.35 5.5-2.6 2.65-7 4.4-4.45 1.8-5.8-.05-1.35-1.85.5-5.65 1.85-3.9 4.45-6.55 2.65-2.6 5.9-2.7 3.2-.05 4.6 1" fill="#f9ffff" fill-rule="evenodd" transform="translate(-8.05 -5.5)" id="t"/><path d="M49.75 61.9H0V0h49.75v61.9" fill="#8962ff" fill-opacity="0" fill-rule="evenodd" id="b"/></defs></svg>