<svg xmlns:ffdec="https://www.free-decompiler.com/flash" xmlns:xlink="http://www.w3.org/1999/xlink" ffdec:objectType="frame" height="90" width="90" xmlns="http://www.w3.org/2000/svg"><use ffdec:characterId="48" height="77.85" transform="translate(1.6 9.1)" width="85.75" xlink:href="#a"/><defs><use ffdec:characterId="1" height="153.6" transform="translate(4.8 57.2)" width="105.85" xlink:href="#b" id="p"/><use ffdec:characterId="8" height="34.45" width="101.4" xlink:href="#c" id="q"/><use ffdec:characterId="10" height="134.5" width="134" xlink:href="#d" id="r"/><use ffdec:characterId="12" height="107.55" transform="translate(3.75 116.65)" width="92.1" xlink:href="#e" id="s"/><use ffdec:characterId="19" height="117.1" transform="translate(2.5 131)" width="95.2" xlink:href="#f" id="t"/><use ffdec:characterId="26" height="99.2" width="100.25" xlink:href="#g" id="u"/><use ffdec:characterId="28" height="106" width="104.9" xlink:href="#h" id="v"/><use ffdec:characterId="30" height="144.45" width="155.65" xlink:href="#i" id="w"/><use ffdec:characterId="32" height="164.9" width="93" xlink:href="#j" id="x"/><use ffdec:characterId="34" height="132.3" width="54.95" xlink:href="#k" id="y"/><use ffdec:characterId="36" height="79.5" width="112.45" xlink:href="#l" id="z"/><use ffdec:characterId="38" height="58.4" width="50.9" xlink:href="#m" id="A"/><use ffdec:characterId="40" height="303.65" width="350.55" xlink:href="#n" id="B"/><use ffdec:characterId="42" height="128.35" width="248.75" xlink:href="#o" id="C"/><g id="a" transform="translate(-1.6 -9.1)"><use ffdec:characterId="7" height="216.6" transform="translate(70.886 9.094) scale(.1487)" width="110.65" xlink:href="#p"/><use ffdec:characterId="9" height="34.45" transform="translate(19.15 70.35) scale(.4573)" width="101.4" xlink:href="#q"/><use ffdec:characterId="11" height="134.5" transform="translate(48.95 52.778) scale(.1487)" width="134" xlink:href="#r"/><use ffdec:characterId="18" height="226.9" transform="translate(66.992 52.703) scale(.1487)" width="95.85" xlink:href="#s"/><use ffdec:characterId="25" height="249.45" transform="translate(1.578 20.469) scale(.1487)" width="98.5" xlink:href="#t"/><use ffdec:characterId="27" height="99.2" transform="translate(24.078 64.228) scale(.1487)" width="100.25" xlink:href="#u"/><use ffdec:characterId="29" height="106" transform="translate(46.878 66.428) scale(.1487)" width="104.9" xlink:href="#v"/><use ffdec:characterId="31" height="144.45" transform="translate(33.378 50.828) scale(.1487)" width="155.65" xlink:href="#w"/><use ffdec:characterId="33" height="164.9" transform="translate(41.828 50.428) scale(.1487)" width="93" xlink:href="#x"/><use ffdec:characterId="35" height="132.3" transform="translate(30.778 53.328) scale(.1487)" width="54.95" xlink:href="#y"/><use ffdec:characterId="37" height="79.5" transform="translate(15.678 57.078) scale(.1487)" width="112.45" xlink:href="#z"/><use ffdec:characterId="39" height="58.4" transform="translate(26.478 55.378) scale(.1487)" width="50.9" xlink:href="#A"/><use ffdec:characterId="41" height="303.65" transform="translate(16.4 11.5) scale(.1487)" width="350.55" xlink:href="#B"/><use ffdec:characterId="47" height="128.4" transform="translate(18.6 31) scale(.1487)" width="248.75" xlink:href="#C"/></g><g id="b" fill-rule="evenodd"><path d="M93.45 0q-.65 3.85.45 6.7 1.1 2.8 4.8 5.9 3.65 3.1 5.9 8.4 2.2 5.25.6 9.75-2.8 7.85-10.2 10.8-6.9 2.65-14.15 2.65 2.5-1.65 3.35-3.3.8-1.65 0-5-.8-3.4-4.1-8.65-3.35-5.25-3.55-8-.65-7.75 5.1-12.85Q86.8 1.8 93.45 0M88 7.2q-6.5 5.2-5.3 12.7.6 3.65 3.15 6.4 3.7 4.1 5.55 8.95.4 1.1.45 2.4 5.3-3 7-9.6.9-3.55-.25-5.85-1.2-2.35-4.7-5-3.45-2.65-4.5-5.1-1.05-2.5-1.4-4.9M25.85 94.7q-4.15.6-7.95 3.15-6.3 4.2-9.8 12.1-3.5 7.85-1.6 16.8 1.9 8.95 8.95 14.9 7 5.9 15.55 6.3 8.5.4 15.95-2.55 6.95-2.8 10.7-9.9l7.35 3.55q4.2 1.75 8.5 1.5 7.75-.95 12.2-7.2 4.4-6.25 4.25-13.45-.15-7.2-2.7-13.35-2.4-5.75-8.45-7.6-1.05.9-2.3 1.55-1.05.65-2.1.35l-1.15-.45-.65-.6 2.7-2.95 2.4-2.95 1.95-2.8 1.4-2.85q1.05-2.6 1.45-5.4.4-2.5.05-5-.3-2.35-1.05-4.6-.7-2-1.6-3.85-1.3-2.55-3.35-4.35L74 62.85l-3.65-3.4-3.15-3.75q-1.6-2.05-2.55-4.3-.9-2.25-1.35-4.7-.3-1.65-.35-3.3v-1.8l.3-3.45.6-3.3q.4-1.7.95-3.3l.75-2.05-5.15 3.7-.35.25q-4.15 2.85-4.35 9.4-.25 6.5-.2 11.55.05 5-1.9 9.8-1.95 4.8-8.85 7.2l-13 4.35q-6.2 2-9.05 6.95-2.65 4.6-3 10.7 1.95-.95 4.15-1.1l1.15-.05 2.05.25q2.2.55 3.55 2.15-2.45-.3-4.75.05m63.8-8.8q-.6 6.2-5 10.15 1.5.25 4.95 2.65 4.6 3.15 6.9 11.9 2.3 8.7.1 17.45-2.25 8.75-8.3 13.8-6.6 5.5-15.35 5.6-7.45.05-14.35-2.55-4.65 3.8-10.35 6.05-8.2 3.15-17.05 2.55-8.7-.6-16.35-4.9-7.7-4.35-11.7-12.2-3.7-7.35-3.05-15.5.65-8.2 4.55-15.6 3.5-6.6 9.55-11.35-.6-.1-.7-1.25l-.25-2q1.1-9.3 7.95-15.4 6.5-5.9 14.95-8.05l6-1.4.35-.05q1.65-.45 4.35-2.5 1.75-1.35 2.1-4.5l.1-1.2-.15-3.05v-1.3q-.05-3.9.2-7.7.45-6.8 4.95-12 2.8-3.3 6.35-5.15 2.6-1.4 5.65-2.05 2.15-.4 4.45-.05-3.85 4.6-3.35 11.5.2 2.9 1 5.6 1.3 4.4 4.25 8.2 4.75 6.15 9.35 10.45 4.55 4.25 6.55 10.7 1.95 6.45 1.35 13.15" fill="#364ea5"/><path d="M23.85 92.3q-2.2.15-4.15 1.1.35-6.1 3-10.7 2.85-4.95 9.05-6.95l13-4.35q6.9-2.4 8.85-7.2 1.95-4.8 1.9-9.8-.05-5.05.2-11.55.2-6.55 4.35-9.4l.35-.25 5.15-3.7-.75 2.05q-.55 1.6-.95 3.3l-.6 3.3-.3 3.45v1.8q.05 1.65.35 3.3.45 2.45 1.35 4.7.95 2.25 2.55 4.3l3.15 3.75 3.65 3.4 2.55 2.2q2.05 1.8 3.35 4.35.9 1.85 1.6 3.85.75 2.25 1.05 4.6.35 2.5-.05 5-.4 2.8-1.45 5.4l-1.4 2.85-1.95 2.8-2.4 2.95-2.7 2.95.65.6 1.15.45q1.05.3 2.1-.35 1.25-.65 2.3-1.55 6.05 1.85 8.45 7.6 2.55 6.15 2.7 13.35.15 7.2-4.25 13.45-4.45 6.25-12.2 7.2-4.3.25-8.5-1.5l-7.35-3.55q-3.75 7.1-10.7 9.9-7.45 2.95-15.95 2.55-8.55-.4-15.55-6.3-7.05-5.95-8.95-14.9-1.9-8.95 1.6-16.8 3.5-7.9 9.8-12.1 3.8-2.55 7.95-3.15-4.7 3.55-7 9.1L16 110.3q-.75 1.7 1.2 3.5 1.9 1.8 1.5 4.05-.45 2.2-3.15 7.1-2.75 4.9 5.05 8.45 3.3 1.6 6.8 2.45 3.6.85 3.55 4.2l-.2.3-.65.45-1.15.65q4.25 1.3 11.45-.95 7.15-2.25 11.15-7.15 3.95-4.9 5.85-9.05 1.6-3.6 0-9.05 2.45-.2 3.3 2.9.65 2.45.1 5.8-.45 3.1 1.15 5.75 1.45 2.55 3.8 3.25-.1-2.35 1.85-4.3 1.05-1.05 4.4-3.2 6.45-4.25 6.45-8.9l-.5-2.6-.3-1.35q-3.95-.7-6.3-3.4-2.85-3.35-3.3-9.85-.5-6.5 4-10.55l3.1-3.05q1.4-1.85 1.4-4.7 0-1.5-.75-3.45l-.8-1.65q.55 2.5-.45 4.95-1.3 2.95-4.4 5.05-3.1 2.1-8.35 1.5 2.85-2 3.85-5.25 1.35-4.4-.3-8.6-1.5-3.95-3.75-7.65l-.9 1.15-2.7 3.15q-1.55 1.85-7.55 5.15-6.05 3.25-9.75 4.25-8.1 2.3-10.95 3.95-5.6 3.25-5.9 8.7" fill="#5291ca"/><path d="M88 7.2q.35 2.4 1.4 4.9 1.05 2.45 4.5 5.1 3.5 2.65 4.7 5 1.15 2.3.25 5.85-1.7 6.6-7 9.6-.05-1.3-.45-2.4-1.85-4.85-5.55-8.95-2.55-2.75-3.15-6.4-1.2-7.5 5.3-12.7M25.85 94.7q2.3-.35 4.75-.05-1.35-1.6-3.55-2.15L25 92.25l-1.15.05q.3-5.45 5.9-8.7 2.85-1.65 10.95-3.95 3.7-1 9.75-4.25 6-3.3 7.55-5.15l2.7-3.15.9-1.15q2.25 3.7 3.75 7.65 1.65 4.2.3 8.6-1 3.25-3.85 5.25 5.25.6 8.35-1.5 3.1-2.1 4.4-5.05 1-2.45.45-4.95l.8 1.65q.75 1.95.75 3.45 0 2.85-1.4 4.7l-3.1 3.05q-4.5 4.05-4 10.55.45 6.5 3.3 9.85 2.35 2.7 6.3 3.4l.3 1.35.5 2.6q0 4.65-6.45 8.9-3.35 2.15-4.4 3.2-1.95 1.95-1.85 4.3-2.35-.7-3.8-3.25-1.6-2.65-1.15-5.75.55-3.35-.1-5.8-.85-3.1-3.3-2.9 1.6 5.45 0 9.05-1.9 4.15-5.85 9.05-4 4.9-11.15 7.15-7.2 2.25-11.45.95l1.15-.65.65-.45.2-.3q.05-3.35-3.55-4.2-3.5-.85-6.8-2.45-7.8-3.55-5.05-8.45 2.7-4.9 3.15-7.1.4-2.25-1.5-4.05-1.95-1.8-1.2-3.5l2.85-6.5q2.3-5.55 7-9.1m10.95-.5q.55 3.45-1.35 6.15-1.65 2.35-4.7 3.75-2.1.65-3.05 1.1-1.55.8-2 2.8l-1.2 3.95q-.2.5-.2 2.9 0 5.7 5.05 9.5 5.05 3.75 10.9 3.85 5.8.1 9.6-3.7 3.75-3.85 3.75-9.65 0-4.95-3-10.2-2.85-4.9-5.7-5.05l-.35.6-.4 1.05.15 2.9q-.8 3.95-4.7 6.45-3.9 2.45-5.4 5.2-.15-.15-.3-.15l-.7-1.9q-.45-1.2-.4-2.65.05-1.5 3.2-5.8 3.15-4.35 2.75-7.7-.45-3.3-1.95-3.4" fill="#7fe6fa"/><path d="M36.8 94.2q1.5.1 1.95 3.4.4 3.35-2.75 7.7-3.15 4.3-3.2 5.8-.05 1.45.4 2.65l.7 1.9q.15 0 .3.15 1.5-2.75 5.4-5.2 3.9-2.5 4.7-6.45l-.15-2.9.4-1.05.35-.6q2.85.15 5.7 5.05 3 5.25 3 10.2 0 5.8-3.75 9.65-3.8 3.8-9.6 3.7-5.85-.1-10.9-3.85-5.05-3.8-5.05-9.5 0-2.4.2-2.9l1.2-3.95q.45-2 2-2.8.95-.45 3.05-1.1 3.05-1.4 4.7-3.75 1.9-2.7 1.35-6.15" fill="#f3f9ff"/></g><g id="d"><path d="m0 19.65.2-4.3q2.95-1.1 6.3-1.4l16.9-.5 6.8.25q5.25.45 10.55 1.95 3.6 1 6.25 2.8 3.9 2.65 5.9 7.05 3.3 7.4-3.45 11.45L47 38.2q-5.5 2.1-11-1-6.75-3.8-15.2-9.95-7.85-5.75-20.8-7.6" fill="#ef180b" fill-rule="evenodd" transform="translate(0 2.5)"/><path d="M0 19.65q12.95 1.85 20.8 7.6Q29.25 33.4 36 37.2q5.5 3.1 11 1l2.45-1.25Q56.2 32.9 52.9 25.5q-2-4.4-5.9-7.05-2.65-1.8-6.25-2.8-5.3-1.5-10.55-1.95Q41.45 8.05 49.25 1.3l1.35.3q7.15 1.6 13.8 4.65Q70.35 9 76 12.4l9.85 5.8 1.6.95 6.2 4q-2.5-1.4-9.85 2.9l-.8.5q-1.95 1.2-3.9 2.7-3.6 2.7-7.35 6.4l-5.4 5.75-1.6 1.85-2.55 3.1q-3.55 4.45-5.9 8.35-1.5 2.45-2.5 4.65-1.85 4.15-1.45 6.2L47 60.7q-7.95-7-16.8-13.7l-5.3-3.95-7.5-5.25-2.35 2.75q-1.9 1.6-4.4 1.6-2.95 0-6.2-4.55Q0 31.25 0 20.1v-.45M13.85 35.4l3.55 2.4-3.55-2.4" fill="#a73442" fill-rule="evenodd" transform="translate(0 2.5)"/><path d="m30.2 13.7-6.8-.25-16.9.5q-3.35.3-6.3 1.4.55-7.1 2.9-10.9 2.55-4 6.85-4 2.5 0 4.55 1.75l.15.15q3.95-1.1 8.1-1.6L35.85 0q6.8-.15 13.4 1.3-7.8 6.75-19.05 12.4m63.45 9.45.3.15.25.25q2.15 2.25-1.35 9.95-2.05 4.7-5.55 9.75L83 49l-5.25-6.25q5.8-7.1 5.25-16.2l.8-.5q7.35-4.3 9.85-2.9m-84.8-19q2.85-1.05 5.8-1.8-2.95.75-5.8 1.8m43.5 61.4q-.4-2.05 1.45-6.2 1-2.2 2.5-4.65 4.95 4.3 8.7 9.45-6.75 3.65-10.4 3.3L53.25 67q-.7-.5-.9-1.45" fill="#832430" fill-rule="evenodd" transform="translate(0 2.5)"/><path d="m62.2 46.35 2.55-3.1 1.6-1.85 5.4-5.75 2.5 3q-.75 1-1.45 2.3L71 44.5l-.15.2 4.5 5q3.25 3.6 4.5 5.4 7.1 10.25 7.6 10.25l2-.65.6-.25 1.85-.75 1 3.2.6 2.15-.6-2.15-1-3.2 1.45-.55.25.1q2.1.85 3.7 2.1l1.7 1.5q.5.55.65 1.2l1.75.1.2 2.4v.5q-.2 2.45-2.5 4.2-1.75 1.35-3.65 1.65l-1.2.1-3.1-.4-1.8-1.05q-2.8 4.8-5.15 7.2.55-2.7-.85-5.55-2.35-4.9-7.75-3.7l-.85-1.95q-2.7-6.1-2.7-12.6l1.3 2.2.8 1.35q3.35 5.55 8.55 9.2.45-3.5-.55-6.95-2.4-8.6-10.3-12.8L66 49.1l4.9 7.85L66 49.1l5.85 2.85q7.9 4.2 10.3 12.8 1 3.45.55 6.95-5.2-3.65-8.55-9.2l-.8-1.35-1.3-2.2-1-1.7q-.35-.55-.15-.3-3.35-4.65-4.45-5.8l-4.25-4.8M77.15 87.6q1.45.55 3.05.6 7.85.1 11.9-7.5 1.9 1.4 4.25 1.15l.2-.05.05.1q5 8.05 6 17.9.85 8.6-3.85 15.65-.7-1.8-1.95-3.3 1.35-3.35 1.3-6.75-.1-4.6-3.65-7.6-6.7-5.6-12.85.15L77.15 87.6m11-13.05 1.2 1-1.2-1m-14.8-13.4-2.45-4.2 2.45 4.2m-6.5 20.45q.3 2.75 1.9 4.05 1.7 1.3 5.2 1.45l-3.2 9.45q-.95.55-1.85 1.2l-2.7 2q-1.25 1.1-2.8 1.8l-.2-1.4-.65-3.85-.85-3.85q-.95-4.4 0-8.8.1-.45.55-.7l1.5-.85.9-.5h2.2" fill="#e2d0bc" fill-rule="evenodd" transform="translate(0 2.5)"/><path d="M56.3 54.7q2.35-3.9 5.9-8.35l4.25 4.8q1.1 1.15 4.45 5.8-.2-.25.15.3l1 1.7q0 6.5 2.7 12.6l.85 1.95q5.4-1.2 7.75 3.7 1.4 2.85.85 5.55l-.3.3q-3.25 3.15-7.05 3.85l-1.4-3.2-1.2 2.4-.3 1q-3.5-.15-5.2-1.45-1.6-1.3-1.9-4.05l-.05-1.25q0-3.1 3-4.6.05-5.7-3.2-10.4 3.25 4.7 3.2 10.4l-.05 1L69.6 80l.15-3.25.05-1q-3 1.5-3 4.6l.05 1.25h-2.2l-.9.5-1.5.85q-.45.25-.55.7-.95 4.4 0 8.8l.85 3.85.65 3.85.2 1.4q1.55-.7 2.8-1.8l2.7-2q.9-.65 1.85-1.2l3.2-9.45h.7l1.35-.05 1.15.55 4.45 10.35q6.15-5.75 12.85-.15 3.55 3 3.65 7.6.05 3.4-1.3 6.75 1.25 1.5 1.95 3.3l-1.1 1.5q-2.85 3.7-6.6 5.35l-1.15-2.25q-1.75-3.05-4.45-5.4l-5-4.4q-1.7-1.55-3.05-3.45-1.5-2-2.6-4.25l-2.15-4.9-.5-1.5-1.3 2.25-1.3 1.75q-3.2 4.2-6.5 7.75l-2.25-2.35-3.3-4.15q-3.1-4.1-5.6-13.3 1.55-5.35 4.2-10.2 1.9-3.45 4.7-5.85 2-1.8 4.45-3l2.35-1-2.6-3.9Q61.25 59 56.3 54.7" fill="#fffeef" fill-rule="evenodd" transform="translate(0 2.5)"/><path d="M71.75 35.65q3.75-3.7 7.35-6.4.45 5.95-3.65 10.8l-.95 1q-.4.4-.65.95 7.5 11.5 15.6 22.7l-2 .65q-.5 0-7.6-10.25-1.25-1.8-4.5-5.4l-4.5-5 .15-.2 1.8-3.55q.7-1.3 1.45-2.3l1.2 1.4-1.2-1.4-2.5-3m41.85 76.95-.6-.85q-2.95 4.5-6.6 8.1 5-8.25 8.6-17.45l-2.9-6.45q-2.85-6.7-7.35-12.3l2.25 9.5q1.85 8 1.85 11.5 0 3.95-8.7 12.85-4.4 4.5-8.25 7.4l-.3-1.05-.55-1.55q3.75-1.65 6.6-5.35l1.1-1.5q4.7-7.05 3.85-15.65-1-9.85-6-17.9l-.05-.1-.2.05Q94 82.1 92.1 80.7q-4.05 7.6-11.9 7.5-1.6-.05-3.05-.6l-.3-.7q3.8-.7 7.05-3.85l.2.05.1-.35q2.35-2.4 5.15-7.2l1.8 1.05 3.1.4 1.2-.1q1.9-.3 3.65-1.65 2.3-1.75 2.5-4.2v-.5l-.2-2.4 3.8 1.2-.2.55q-.4 1.1-.4 1.7 0 .55 4.65 4.65 5.2 4.65 6.3 6.05l7.95 9.35q-.9 2.05-1.7 6.7l-1.3 7.1q-.2.8-1.8 2.75l-2.45 3.05q-.35.5-1.35.8l-1.3.55m-8.85-28.95-3.2-3.65 3.2 3.65" fill="#b68885" fill-rule="evenodd" transform="translate(0 2.5)"/><path d="m83 49 5.35 6.35.95 1.1q6.5-1.3 10.5 4.4l.75 1.15.3.55 1.5-.15q10.4-.25 14.2 6.65 1 1.85 1.55 4.25l1.75 1.3q6.75 5.3 11.65 11.9-2.45 20.8-12.4 33.65l-5.5-7.55 1.3-.55q1-.3 1.35-.8l2.45-3.05q1.6-1.95 1.8-2.75l1.3-7.1q.8-4.65 1.7-6.7l-7.95-9.35q-1.1-1.4-6.3-6.05-4.65-4.1-4.65-4.65 0-.6.4-1.7l.2-.55-3.8-1.2-.9-4.15-.7-3.15.7 3.15.9 4.15-1.75-.1q-.15-.65-.65-1.2l-1.7-1.5q-1.6-1.25-3.7-2.1l-.25-.1-1.85-.7.4 1.25-1.85.75-.6.25q-8.1-11.2-15.6-22.7.25-.55.65-.95l.95-1 2.3 2.7-2.3-2.7q4.1-4.85 3.65-10.8 1.95-1.5 3.9-2.7.55 9.1-5.25 16.2L83 49m23.4 70.85q-6.1 6.05-14.1 9.65.1-2.4-.4-4.6 3.85-2.9 8.25-7.4 8.7-8.9 8.7-12.85 0-3.5-1.85-11.5l-2.25-9.5q4.5 5.6 7.35 12.3l2.9 6.45q-3.6 9.2-8.6 17.45m13.45-45.25q-8.3-4.6-14.65-5.25 6.35.65 14.65 5.25m-31.5-19.25 3.15 7.1-3.15-7.1" fill="#85dbec" fill-rule="evenodd" transform="translate(0 2.5)"/><path d="M14.65 4.85q3.95-1.1 8.1-1.6l13.1-.75q6.8-.15 13.4 1.3l1.35.3q7.15 1.6 13.8 4.65Q70.35 11.5 76 14.9l9.85 5.8 1.6.95 6.2 4 .3.15.25.25q2.15 2.25-1.35 9.95-2.05 4.7-5.55 9.75L83 51.5M17.4 40.3l-3.55-2.4m.8-33.05q-2.95.75-5.8 1.8M17.4 40.3l7.5 5.25 5.3 3.95q8.85 6.7 16.8 13.7l5.35 4.85q-.4-2.05 1.45-6.2 1-2.2 2.5-4.65 2.35-3.9 5.9-8.35l2.55-3.1 1.6-1.85 5.4-5.75q3.75-3.7 7.35-6.4 1.95-1.5 3.9-2.7l.8-.5q7.35-4.3 9.85-2.9M65 66.65q-6.75 3.65-10.4 3.3l-1.35-.45q-.7-.5-.9-1.45" fill="none" stroke="#611929" stroke-linecap="round" stroke-linejoin="round" stroke-width="5"/><path d="m83 51.5 5.35 6.35.95 1.1q6.5-1.3 10.5 4.4l.75 1.15.3.55 1.5-.15q10.4-.25 14.2 6.65 1 1.85 1.55 4.25l1.75 1.3q6.75 5.3 11.65 11.9-2.45 20.8-12.4 33.65l-5.5-7.55-.6-.85q-2.95 4.5-6.6 8.1-6.1 6.05-14.1 9.65.1-2.4-.4-4.6l-.3-1.05-.55-1.55-1.15-2.25q-1.75-3.05-4.45-5.4l-5-4.4q-1.7-1.55-3.05-3.45-1.5-2-2.6-4.25l-2.15-4.9-.5-1.5-1.3 2.25-1.3 1.75q-3.2 4.2-6.5 7.75l-2.25-2.35-3.3-4.15q-3.1-4.1-5.6-13.3 1.55-5.35 4.2-10.2 1.9-3.45 4.7-5.85 2-1.8 4.45-3l2.35-1-2.6-3.9q-3.75-5.15-8.7-9.45m19.15-14.65-1.2-1.4-2.5-3m3.7 4.4 2.3 2.7q5.8-7.1 5.25-16.2m-5.25 16.2L83 51.5" fill="none" stroke="#6b4d4c" stroke-linecap="round" stroke-linejoin="round" stroke-width="5"/><path d="M88.35 57.85q-1.35-2.6-3-5.05m16.05 17.85-.9-4.15-.7-3.15m1.6 7.3 3.8 1.2q6.35.65 14.65 5.25M91.9 66.2l-.4-1.25-3.15-7.1m3.55 8.35 1 3.2.6 2.15m7.9-.9.2 2.4v.5q-.2 2.45-2.5 4.2-1.75 1.35-3.65 1.65l-1.2.1-3.1-.4-1.8-1.05q-2.8 4.8-5.15 7.2l-.3.3q-3.25 3.15-7.05 3.85l-.85.15-1.35.05h-.7q-3.5-.15-5.2-1.45-1.6-1.3-1.9-4.05l-.05-1.25q0-3.1 3-4.6l-.05 1-.15 3.25m19.75-4.45-1.2-1M70.9 59.45 66 51.6l5.85 2.85q7.9 4.2 10.3 12.8 1 3.45.55 6.95-5.2-3.65-8.55-9.2l-.8-1.35-1.3-2.2m-1.15-2 2.45 4.2m-6.75 4.2q3.25 4.7 3.2 10.4m34.95 7.9q4.5 5.6 7.35 12.3l2.9 6.45q-3.6 9.2-8.6 17.45m-4.85-39.85 3.2 3.65" fill="none" stroke="#6b4d4c" stroke-linecap="round" stroke-linejoin="round" stroke-width="2"/></g><g id="e" fill-rule="evenodd"><path d="M87.45 70.6q.2-3.45-1.55-6.4-5.8-9.8-17.5-11.1-1.6-.3-3.15-1.05-11.25-5.7-9.8-18.7 1.35-12.05-6-21.55L46.2 8.35q4.8 12.05-5 20.35-2.75 2.25-6.15 3.7-11.4 4.7-16.55 16-3.65 7.9.5 15.45-4.3.8-8.45 5.25Q5.5 74.5 5.5 80.5q0 8.65 3.95 12.65 3.8 3.95 11.75 3.95l1.55-.05L25.7 97l9.35-1q.2 1.85 1 3.45.55 1.1 1.55 1.25 2.95.45 5.6-.7 3.15-1.35 5.9-3.45l.95.55q3.1 1.65 6.65 1.75 4.6.35 9.05-1.25 2.3-.85 4.6-2.7 3.7-3.05 5.7-7.45l1.7-4.5q9.2-3.05 9.7-12.35m-5.7 15.75-.7 2.4q-1.7 5.25-5.65 9-7.45 6.95-17.55 7.35v.1l-1.05-.1.6.15-3.05-.25-.3-.05-4-1.1-.3.25q-5.8 4.45-13.3 3.15-4.2-.85-5.65-4.8-7.4 1.55-14.9-.05-8.3-1.85-12.7-9.25Q-1.4 85.5.65 76.8q2.05-8.9 9.75-13.75l3.6-2.1-.1-.15q-3.75-6.6-1.75-13.8l.2-.7.2-.7q3.5-9.95 12.6-14.1 9.7-4.45 13.05-8.15 3.3-3.8 3.5-6.8.2-3.05-1.9-8.3-2-4.9-2.95-8.25 8.2-.1 13.5 4.1 5.35 4.2 8.45 11.35 3.05 7.15 2.75 14.25-.35 7.1 1.7 11.3 2 4.15 6.5 5.7 4.5 1.55 11.15 4.4 6.65 2.8 9.45 9.7 2.75 6.85 1.15 13.7t-4.7 9.35q-2.75 2.25-5.05 2.5m-7.2-75.05-.8 7.35q-.6 4.8 2.3 6.9-1.55.35-4.6.05-3.95-.35-6.45-2-2.5-1.7-3.1-4-1.2-4.75 2.5-8.2 3.7-3.3 3.05-8.35l-.1-.55q2.8 1.55 5.05 3.85 2.35 2.4 2.15 4.95m-6.65 2.5q-1.8 1.4-1.8 3.2 0 .75.75 1.6.7.8 1.5 1.05.5-4.05 1.95-7.6l-2.4 1.75" fill="#364ea5"/><path d="M87.45 70.6q-.5 9.3-9.7 12.35l-1.7 4.5q-2 4.4-5.7 7.45-2.3 1.85-4.6 2.7-4.45 1.6-9.05 1.25-3.55-.1-6.65-1.75l-.95-.55q-2.75 2.1-5.9 3.45-2.65 1.15-5.6.7-1-.15-1.55-1.25-.8-1.6-1-3.45l-9.35 1-2.95.05-1.55.05q-7.95 0-11.75-3.95-3.95-4-3.95-12.65 0-6 5.05-11.4 4.15-4.45 8.45-5.25-4.15-7.55-.5-15.45 5.15-11.3 16.55-16 3.4-1.45 6.15-3.7 9.8-8.3 5-20.35l3.25 3.45q7.35 9.5 6 21.55-1.45 13 9.8 18.7 1.55.75 3.15 1.05 11.7 1.3 17.5 11.1 1.75 2.95 1.55 6.4m-37.4-39.3-.05-.95-.4-.85q-2.4 6.8-9.45 9.7l-5.25 2.05-.7 1.1-2.4 3.8q-1.2 1.8-1.5 3.8-.25 1.65-.25 3.35 0 1.25.4 2.45 1.1 3.35 4.65 4.6l-.45.4-.7.4q-1.15.55-2.35.6l-4.05.4-3.55-.6q.25 6.7-6.9 9.9-2.95 1.4-4.3 4.1-2.2 4.25-1.3 8.95 1.5 7.55 8.9 9.1l8.2.25q5.85-1.2 10.3 2.75l.8.05q2.75-.6 3.95-3.05l.45-1.05.25-.1q.7-.1.85-.35.15-.25 2.35.4l4.05.6q6.75 0 10.3-1.7 5.25-2.5 5.25-8.95 0-2.2-.5-4.6l-.55-2.5.15-.65q.2-.55.5-.55.8 0 1.2.6l.55.8.05-.05q.9-.65 1.85-2.4 1.4-2.7 1.4-4.75 0-3.75-4.5-5.3l-7.5-1.8q-3.2-1-6.15-5.55-2.85-4.35-2.85-7.8l.3-1.4.3-1q-1.25.1-2.05.95-.85.8-1.05 2.05-1.2-3.7-1.2-5.6 0-1.85 1.5-5.65 1.45-3.8 1.45-5.95" fill="#5291ca"/><path d="m67.9 13.8 2.4-1.75q-1.45 3.55-1.95 7.6-.8-.25-1.5-1.05-.75-.85-.75-1.6 0-1.8 1.8-3.2M50.05 31.3q0 2.15-1.45 5.95-1.5 3.8-1.5 5.65 0 1.9 1.2 5.6.2-1.25 1.05-2.05.8-.85 2.05-.95l-.3 1-.3 1.4q0 3.45 2.85 7.8 2.95 4.55 6.15 5.55l7.5 1.8q4.5 1.55 4.5 5.3 0 2.05-1.4 4.75-.95 1.75-1.85 2.4l-.05.05-.55-.8q-.4-.6-1.2-.6-.3 0-.5.55l-.15.65.55 2.5q.5 2.4.5 4.6 0 6.45-5.25 8.95-3.55 1.7-10.3 1.7l-4.05-.6q-2.2-.65-2.35-.4-.15.25-.85.35l-.25.1-.45 1.05q-1.2 2.45-3.95 3.05l-.8-.05q-4.45-3.95-10.3-2.75l-8.2-.25q-7.4-1.55-8.9-9.1-.9-4.7 1.3-8.95 1.35-2.7 4.3-4.1 7.15-3.2 6.9-9.9l3.55.6 4.05-.4q1.2-.05 2.35-.6l.7-.4.45-.4q-3.55-1.25-4.65-4.6-.4-1.2-.4-2.45 0-1.7.25-3.35.3-2 1.5-3.8l2.4-3.8.7-1.1 5.25-2.05q7.05-2.9 9.45-9.7l.4.85.05.95M35.1 78.1q-.1-2.05-3.4-2.55-3-.45-3.1-2.45-2.85 3-3 7.25-.2 4.2 4.05 6.8 4.25 2.6 8.9 2.45 4.6-.15 6.85-.9 4.05-1.4 4.7-5.3.6-3.95-.4-6.35-1.05-2.4-3.15-3.7-2.15-1.35-3.3-2.65-1.75-2-2.45-4.65-.6 5.35-5.7 12.05" fill="#7fe6fa"/><path d="M35.1 78.1q5.1-6.7 5.7-12.05.7 2.65 2.45 4.65 1.15 1.3 3.3 2.65 2.1 1.3 3.15 3.7 1 2.4.4 6.35-.65 3.9-4.7 5.3-2.25.75-6.85.9-4.65.15-8.9-2.45t-4.05-6.8q.15-4.25 3-7.25.1 2 3.1 2.45 3.3.5 3.4 2.55" fill="#f3f9ff"/></g><g id="f" fill-rule="evenodd"><path d="M43.75 13.7q-2.85 3.85-3.4 5.7-.95 3.1-1.55 7.45-.6 4.35-.2 8.35.35 4.05.35 9.05-.05 5-3.85 8.1-3.85 3.1-12.65 5.75-7.85 2.3-11.25 5.85Q6.1 69.2 6.1 77.1q0 7.85 3.2 10.65 3.1 2.7 7.05 3.15l.05.1 2.95 7.55q1.85 4.25 5 7.35 3.7 3.6 8.9 4.05 4.85.45 9.55-1.2 2.6-.8 4.6-2.6l.55 1.05q1 1.7 2.6 2.9 1.4 1.2 2.95 1.4 1.65.15 3-.6l1.6-1.25q1.35-1.35 2.1-3.05l.75-1.6q3.95 1.7 8.25 2.1l.75.1 2.5.15q3.7-.05 6.8-1.25 4.35-1.8 7.65-4.35 3.3-2.55 3.3-7.4-.05-4.8-.95-8.95-.95-4.15-3.15-7.7-2.25-3.6-4.25-4.35l-3-1.15q-2.5-.8-3-3.15 1.8-3.65 1.65-9-.2-6.25-3.15-11.75-3-5.5-8.1-8.6l-3.6-2.35-9.85-6.7-2.1-1.85q-3.5-4.25-3.55-9.9 0-5.15 1.2-10l.4-1.45-5 6.25M84.2 57.85q.15 7-.45 10.5Q93.25 75.3 94.9 87q1.85 12.9-7 21.6-3.05 3-7.25 3.95-7.95 1.75-15.85.2-8.45 7.9-18.05 1.4l-1.1-.8q-10.8 5.05-21.6-1.45-9-5.25-10.15-15.55-7.6-3-10.8-8Q0 83.5 0 74.95q0-7.9 4.85-13.15 3.85-4.25 11.4-7.2.95-.35 5.7-1.8 3.75-1.15 5.7-2.2 6.05-3.25 5.7-9.95-.35-6.7.35-13.5.7-6.85 6.6-16.05Q46.15 1.9 50.7.8q4.55-1.1 5.95-.65l1.3.3q-6.4 14.6-3.85 20.75 2.55 6.2 8.5 9.35 5.95 3.15 13.7 10.7 7.7 7.5 7.9 16.6M30 11.3q3.3 3.3 3.4 8.2.1 4.85-3.6 8.05-3.75 3.2-9.5 3.2l-1.35-.05-.75-.3 1.1-1.35q.9-1.7.85-3.7l-.25-3-.5-2.15q-.55-1.9-.6-3.85-.05-2 .2-3.9.2-1.35.7-2.65.55-1.3 1.4-2.45.95-1.2 2.2-2.2Q24.7 4 26.25 3h.6q-.2.5-.2 2.3 0 2.7 3.35 6m-1.7 7.1q0-2.25-2.15-4.65L23.9 10.9q-.65 2-.65 4.05 0 2.15.9 5.05l1.3 4.05 2.35-2.65q.5-1 .5-3" fill="#364ea5"/><path d="m43.75 13.7-.15 4.05q1.4 9.3 4.55 14 3.15 4.7 11 9.4 7.8 4.65 10.45 7.25 4.95 4.9 4.95 11.85l-.35 4.05q-.35 2.4-.35 3.85 0 3.6 3.5 4.8l.5.2.3.25 1 .95q4.25 4.2 6.15 10 1.9 5.8 1.25 11.85-.7 6.1-6.25 8.85-3.7 1.85-7.85 2.3l-2.5-.15-.75-.1q-4.3-.4-8.25-2.1l-.75 1.6q-.75 1.7-2.1 3.05l-1.6 1.25q-1.35.75-3 .6-1.55-.2-2.95-1.4-1.6-1.2-2.6-2.9l-.55-1.05q-2 1.8-4.6 2.6-4.7 1.65-9.55 1.2-5.2-.45-8.9-4.05-3.15-3.1-5-7.35L16.4 91l-.05-.1q-3.95-.45-7.05-3.15-3.2-2.8-3.2-10.65 0-7.9 5.1-13.15 3.4-3.55 11.25-5.85 8.8-2.65 12.65-5.75 3.8-3.1 3.85-8.1 0-5-.35-9.05-.4-4 .2-8.35.6-4.35 1.55-7.45.55-1.85 3.4-5.7m2.2 29.3q-1.65-4.05-1.65-7.05V32.9q-1.55 3.9-1.35 8.15.2 4.5-.5 8.9-.7 4.6-3.5 7.95l-1.75 1.7q-4.15 2.95-9.3 2.85 3.9.95 7.8.1-.3 2.45-3.5 4.3-3.1 1.85-5.9 1.7-2.4.4-4.65-.95-1.95-1.2-2.7-3.55-1.85 3.9-2.3 8.3-.45 4.55.55 8.85 1.1 4.55 5.75 6.15l1.5.45q-.8 1-1.4 3.05-.65 2.2-.65 4.2 0 5.4 4.2 8.7 3.6 2.8 8.1 2.8 4.2 0 7.25-3.35l3.9-5.75.4-.65.3-.45.65-.6q.95 0 1.2 1.65l.25 3.55q.5 5.2 5 5.2 3.15 0 4.2-2.5l.8-2.5.5.45.5.45q2.15 0 4.25-3.5 2-3.35 2-6.5 0-1.85-.6-3.55l-.6-1.9q0-.45.65-1.15l1 .05q1.5.6 2.8 1.6l3.2 3 1.2 1.55q1.45 2.05 1.35 4.4l.55-.25.2-.1 1.1-1.3q.7-1.25.75-2.85.2-4.75-1.2-10.7-1.45-5.95-4.1-8.6-2.7-2.65-5.65-4.45-2.95-1.85-4.5-4.35-.65-1-.65-2.15.05-3.35-.5-6.5-.65 1.95-2.55 2.7l-4.25.55q-2.3 0-3.55-1.1l-3.45-2.8.5-3.75q0-3.35-1.65-7.4" fill="#5291ca"/><path d="M72.45 107.35q4.15-.45 7.85-2.3 5.55-2.75 6.25-8.85.65-6.05-1.25-11.85t-6.15-10l-1-.95-.3-.25-.5-.2q-3.5-1.2-3.5-4.8 0-1.45.35-3.85l.35-4.05q0-6.95-4.95-11.85-2.65-2.6-10.45-7.25-7.85-4.7-11-9.4-3.15-4.7-4.55-14l.15-4.05 5-6.25-.4 1.45q-1.2 4.85-1.2 10 .05 5.65 3.55 9.9l2.1 1.85 9.85 6.7 3.6 2.35q5.1 3.1 8.1 8.6 2.95 5.5 3.15 11.75.15 5.35-1.65 9 .5 2.35 3 3.15l3 1.15q2 .75 4.25 4.35 2.2 3.55 3.15 7.7.9 4.15.95 8.95 0 4.85-3.3 7.4-3.3 2.55-7.65 4.35-3.1 1.2-6.8 1.25M45.95 43q1.65 4.05 1.65 7.4l-.5 3.75 3.45 2.8q1.25 1.1 3.55 1.1l4.25-.55q1.9-.75 2.55-2.7.55 3.15.5 6.5 0 1.15.65 2.15 1.55 2.5 4.5 4.35 2.95 1.8 5.65 4.45 2.65 2.65 4.1 8.6 1.4 5.95 1.2 10.7-.05 1.6-.75 2.85l-1.1 1.3-.2.1-.55.25q.1-2.35-1.35-4.4l-1.2-1.55-3.2-3q-1.3-1-2.8-1.6l-1-.05q-.65.7-.65 1.15l.6 1.9q.6 1.7.6 3.55 0 3.15-2 6.5-2.1 3.5-4.25 3.5l-.5-.45-.5-.45-.8 2.5q-1.05 2.5-4.2 2.5-4.5 0-5-5.2l-.25-3.55q-.25-1.65-1.2-1.65l-.65.6-.3.45-.4.65-3.9 5.75q-3.05 3.35-7.25 3.35-4.5 0-8.1-2.8-4.2-3.3-4.2-8.7 0-2 .65-4.2.6-2.05 1.4-3.05l-1.5-.45q-4.65-1.6-5.75-6.15-1-4.3-.55-8.85.45-4.4 2.3-8.3.75 2.35 2.7 3.55 2.25 1.35 4.65.95 2.8.15 5.9-1.7 3.2-1.85 3.5-4.3-3.9.85-7.8-.1 5.15.1 9.3-2.85l1.75-1.7q2.8-3.35 3.5-7.95.7-4.4.5-8.9-.2-4.25 1.35-8.15v3.05q0 3 1.65 7.05M28.3 18.4q0 2-.5 3l-2.35 2.65-1.3-4.05q-.9-2.9-.9-5.05 0-2.05.65-4.05l2.25 2.85q2.15 2.4 2.15 4.65m20.8 61.85q-1.3 1.15-2.6 1.6h-.9v-2.3q.65-3.55 2.8-5.75 1.8-1.85 1.8-5.15l-.6-4.4q.05 2.65-3.15 5.8L41 74.95l-.1-.1-.2-1.8q0-1.7 1.2-4.7 1.2-2.95 1.2-4.85l-.25-1.35-.8-.65-1.7 3.1q-.45.75-3.9 3.35-6.65 5-6.65 11.4 0 3.4 3.3 6.6 3.2 3.1 6.2 3.1l2.75-.3 3.45-.5q2.65-.6 4.75-4.85l-1.35.4-1.3.25q1.6-2.4 1.6-3.1l-.05-.7-.05-.1v.1m1.15 3.15.05-.05v-.1l-.05.15" fill="#7fe6fa"/><path d="M50.25 83.4q-2.1 4.25-4.75 4.85l-3.45.5-2.75.3q-3 0-6.2-3.1-3.3-3.2-3.3-6.6 0-6.4 6.65-11.4 3.45-2.6 3.9-3.35l1.7-3.1.8.65.25 1.35q0 1.9-1.2 4.85-1.2 3-1.2 4.7l.2 1.8.1.1 5.45-4.9q3.2-3.15 3.15-5.8l.6 4.4q0 3.3-1.8 5.15-2.15 2.2-2.8 5.75v2.3h.9q1.3-.45 2.6-1.6h.05l.05.7q0 .7-1.6 3.1l1.3-.25 1.35-.4" fill="#f3f9ff"/></g><g id="g"><path d="M77.4 24.35q-5.8-.45-10.75-3.1l-3.35 2.6-9.75 6.95q-.15.05-.25.15l-.15.6-.95 2.4-1.75 2.6-1.1 1.25-.4.45-.3.45.85 4.4q.35 3.05.2 5.9l-4.25-2.4-1.05-.5 1.2.15Q40 41.4 38.75 39.2q-1.55-2.75-1.55-6.05 0-4.1 3-7.75 3.15-3.85 7.05-3.85 2.4 0 4.45.85 2.55 1.05 4.6 3.45-2.05-2.4-4.6-3.45L80.5 0l5.8 4.3 6.05 5 2.9 2.85Q92.7 13.7 90.3 15.6q-6.5 4.1-12.9 8.75M41.35 40.9q3.1 1.75 8.15 2.2-5.05-.45-8.15-2.2m-9.45 29 .6-.6 6.5.95q1.6 3.15 1.6 4.65 0 3.25-4.7 5.85-4.25 2.3-8.4 2.3-1.65 0-2.7-1.9-.9-1.6-.9-3.25v-.65l.45-.35 2.45-2.2 2.85-2.65 2.25-2.15m-20.35 4.45.05-.05-.05.05-.35-1.05-1.35 1.55-6.65.3-2.75-.4h-.1l-.35-1 4-3.7 3.35-3.5q1-1.15 7.4.85l.4-1.65 4 1.1q2.75.85 5.05 2.45 1 3.85-3.3 6.85-2.35 1.7-5.3 1.15-3-.5-4.05-2.95m4.65-6.85-5 5.8 5-5.8" fill="#fffeef" fill-rule="evenodd" transform="translate(2.5 2.5)"/><path d="m77.4 24.35-1.95 1.4-1.7 1.25-7.35 5.7.5 2.35q.7 3.1.7 4.4 0 2.9-1.5 4.5t-4.25 1.6l-1.35-.15q-2-2.45-2.8-5.35-.7-2.45-.55-5.15-.15 2.7.55 5.15-1.55 1.65-1.65 4.4l-.05.6q0 3 3.6 4.2-1.4 2-1.9 3.15l-.7 2.1-1.7-1.5-1-.8-4.6-3.2q.15-2.85-.2-5.9l-.85-4.4.3-.45.4-.45 1.1-1.25 1.75-2.6.95-2.4.15-.6q.1-.1.25-.15l9.75-6.95 3.35-2.6q4.95 2.65 10.75 3.1M54 43.2l-4.5-.1 4.5.1" fill="#e1cfbb" fill-rule="evenodd" transform="translate(2.5 2.5)"/><path d="m60.5 45.4 1.35.15q2.75 0 4.25-1.6t1.5-4.5q0-1.3-.7-4.4l-.5-2.35 7.35-5.7 1.7-1.25 1.95-1.4.9.05 2.55.3q-3.25 3.6-6.1 7.55 3.1 8.1 1.15 12.55-.8 2.15-2.9 3.45l-1.05.65.55 3.65.4 2.25.45 1.9.6-.2q1.9-.55 3.65.6 1.75 1.2 1.25 3.4-.15.95-.85 1.55l-1.5 1.05q5.7.7 7.55 3.45 1.3 1.9 1.3 6.65 0 4-1.9 6.4-1.7 2.05-4.8 2.95l-4.7.8-1.55.15-2.4.2-.25.5q-1.55 3-4.85 4.7l-3.3 1.45-.05-.1 2.05-1.75 2.45-2.7 1.3-1.9 1-1.85.9-2.95.3-3-.25-3.5q-.35-2-1.75-3.1l-.2-.1q-.85-.6-1.7-.75l-1.4-.2v-.1q-.8-3.45-2.3-6.7l-.15-.4Q59.95 57.4 57 54.5l.7-2.1q.5-1.15 1.9-3.15-3.6-1.2-3.6-4.2l.05-.6 2.6.6 1.85.35 1.9 2q2.1 1.9 4.2 2.4l1 .25q2.35 0 4.35-1.15-2 1.15-4.35 1.15l-1-.25q-2.1-.5-4.2-2.4l-1.9-2M46.95 80.5l.45 1.8q.6 2.25.75 4.6v.05l-.55.25-4.6 2.1q-2.85 1.05-5.6 2.25l-5.9 2.1-2.75.55-.8-.95-2-2-1.45-2.7.2-.1q1.75-.85 2.25-.9l1.25.1q1.6 0 6.15-1.7l5.25-2.1 1.85-.7q1.25-.65 1.55-1.5.2-.65.2-3.2v-3.5l-.3-3.75 1.15-.2.9.1q.85 4.75 2 9.4" fill="#b68885" fill-rule="evenodd" transform="translate(2.5 2.5)"/><path d="m44.4 46.1 1.05.5L49.7 49l4.6 3.2Q53 54.9 50.8 57q-3.6 3.35-8.45 3.9-4.8.75-8.35-2.4-3.3-3-4.45-7.1l-.7-3.15q5.85-3.15 12.75-2.4l2.8.25" fill="#ffe5aa" fill-rule="evenodd" transform="translate(2.5 2.5)"/><path d="m54.3 52.2 1 .8 1.7 1.5q2.95 2.9 4.8 6.75-1.65 2.15-3.8 3.95-3.55 3-7.9 4.25L44.05 71l-1.15-.2-3.9-.55-6.5-.95-.6.6q-3.85-2.25-6.5-5.8-2.45-3.4-2.85-7.65-.15-1.65-.15-3.25l.6-.65.8-.75q2.4-2.2 5.05-3.55l.7 3.15q1.15 4.1 4.45 7.1 3.55 3.15 8.35 2.4 4.85-.55 8.45-3.9 2.2-2.1 3.5-4.8" fill="#f29e7a" fill-rule="evenodd" transform="translate(2.5 2.5)"/><path d="M22.4 53.2q0 1.6.15 3.25.4 4.25 2.85 7.65 2.65 3.55 6.5 5.8l-2.25 2.15-3.05-.75-.35-.35-2.05-1.65q-2.3-1.6-5.05-2.45l-4-1.1q2-7.25 7.25-12.55M44.05 71l6.05-1.55q4.35-1.25 7.9-4.25 2.15-1.8 3.8-3.95l.15.4q1.5 3.25 2.3 6.7l-.05.1q-1.4 3.6-4.05 6.35-3.05 3.2-7.2 4.9-2.95 1.2-6 .8-1.15-4.65-2-9.4l-.9-.1m17.4-2.4 1.55-.25 1.2.1-1.2-.1-1.55.25" fill="#e46c60" fill-rule="evenodd" transform="translate(2.5 2.5)"/><path d="m48.55 86.95-.1-.1-.15.05h-.15q-.15-2.35-.75-4.6l-.45-1.8q3.05.4 6-.8 4.15-1.7 7.2-4.9 2.65-2.75 4.05-6.35h.05l1.4.2q.85.15 1.7.75l-.05.35-.5 2-.65 2.15-1.4 3.3L63 80.4q-1 1.6-2.45 2.9l-1.95 1.5q-1.6 1.05-3.5 1.55l-2.75.5-2.85.25-.95-.15" fill="#bd3756" fill-rule="evenodd" transform="translate(2.5 2.5)"/><path d="M61.45 90.4q-7.25 2.15-12.9-3.45l.95.15 2.85-.25 2.75-.5q1.9-.5 3.5-1.55l1.95-1.5Q62 82 63 80.4l1.75-3.2 1.4-3.3.65-2.15.5-2 .05-.35.2.1q1.4 1.1 1.75 3.1l.25 3.5-.3 3-.9 2.95-1 1.85-1.3 1.9-2.45 2.7-2.05 1.75-.1.15" fill="#a5b5d5" fill-rule="evenodd" transform="translate(2.5 2.5)"/><path d="M72.5 90.4q-1.2-.5-1.2-1.9 0-1.55 1.45-2.15l.95-.25q-1.2.3 1.7-.05l.9-.1q1.25 0 2.15.35 1.35.55 1.35 1.7 0 1.35-1.8 2.15-1.4.6-3 .6l-2.5-.35" fill="#e86d61" fill-rule="evenodd" transform="translate(2.5 2.5)"/><path d="m39 70.25 3.9.55v.4l.3 3.75v3.5q0 2.55-.2 3.2-.3.85-1.55 1.5l-1.85.7-5.25 2.1q-4.55 1.7-6.15 1.7l-1.25-.1q-.5.05-2.25.9l-.2.1-.45-.75q-2.15-3.65-4.9-7.1l4.75-3.45-4.75 3.45q2.75 3.45 4.9 7.1l.45.75q-.35.15-.65.4l-.75-1-.75-1.2-3.3 1.75q-2.8 1.35-5.85 2.1h-.35l-.35-.35-1.6-2.1-.95-1.3L6 80.95l-1.4.85-.4-.35 5.65-6.6-5.65 6.6-.1.05-.2.2L2 77.75l-1.6-2.9.05-.1 2.75.4 6.65-.3 1.7-.5q1.05 2.45 4.05 2.95 2.95.55 5.3-1.15 4.3-3 3.3-6.85l2.05 1.65.35.35 3.05.75-2.85 2.65-2.45 2.2-.4-.45-.05.8v.65q0 1.65.9 3.25 1.05 1.9 2.7 1.9 4.15 0 8.4-2.3 4.7-2.6 4.7-5.85 0-1.5-1.6-4.65" fill="#e2d0bc" fill-rule="evenodd" transform="translate(2.5 2.5)"/><path d="m83.35 27.2 5.1-5.35q2.1-2 4.35-3.75 2.4-1.9 4.95-3.45l-2.9-2.85-6.05-5L83 2.5 54.2 24.9q-2.05-.85-4.45-.85-3.9 0-7.05 3.85-3 3.65-3 7.75 0 3.3 1.55 6.05 1.25 2.2 6.85 7.05m10.7-20.4q-2.05-2.4-4.6-3.45m6 17.65q-.7-2.45-.55-5.15m.55 5.15q.8 2.9 2.8 5.35l1.9 2q2.1 1.9 4.2 2.4l1 .25q2.35 0 4.35-1.15l.55 3.65.4 2.25.45 1.9.6-.2q1.9-.55 3.65.6 1.75 1.2 1.25 3.4-.15.95-.85 1.55L79 65.6q5.7.7 7.55 3.45 1.3 1.9 1.3 6.65 0 4-1.9 6.4-1.7 2.05-4.8 2.95l-4.7.8-1.55.15-2.4.2m10.85-59q-3.25 3.6-6.1 7.55 3.1 8.1 1.15 12.55-.8 2.15-2.9 3.45l-1.05.65" fill="none" stroke="#6b4d4c" stroke-linecap="round" stroke-linejoin="round" stroke-width="5"/><path d="m48.1 48.75-1.2-.15-2.8-.25q-6.9-.75-12.75 2.4-2.65 1.35-5.05 3.55l-.8.75-.6.65q-5.25 5.3-7.25 12.55l-.4 1.65q-6.4-2-7.4-.85l-3.35 3.5-4 3.7.35 1 .05.1 1.6 2.9 1.9 3.95.2-.2m65.9 2.2-.25.5q-1.55 3-4.85 4.7l-3.3 1.45-.15.05q-7.25 2.15-12.9-3.45l-.1-.1-.15.05-.15.05-.55.25-4.6 2.1q-2.85 1.05-5.6 2.25l-5.9 2.1-2.75.55-.8-.95-2-2-1.05-1.15-1.05-1.15-.75-1-.75-1.2-3.3 1.75q-2.8 1.35-5.85 2.1h-.35l-.35-.35-1.6-2.1-.95-1.3-3.95-5.9-1.4.85" fill="none" stroke="#4f3228" stroke-linecap="round" stroke-linejoin="round" stroke-width="5"/><path d="m46.9 48.6 1.05.5 4.25 2.4 4.6 3.2 1 .8 1.7 1.5q2.95 2.9 4.8 6.75l.15.4q1.5 3.25 2.3 6.7v.1l1.4.2q.85.15 1.7.75l.2.1q1.4 1.1 1.75 3.1l.25 3.5-.3 3-.9 2.95-1 1.85-1.3 1.9L66.1 91l-2.05 1.75-.1.15M34.4 72.4l.6-.6 6.5.95 3.9.55 1.15.2.9.1q.85 4.75 2 9.4l.45 1.8q.6 2.25.75 4.6v.05l.05 2m16.05-20.5h-.05l-1.2-.1-1.55.25M75 92.9l2.5.35q1.6 0 3-.6 1.8-.8 1.8-2.15 0-1.15-1.35-1.7-.9-.35-2.15-.35l-.9.1q-2.9.35-1.7.05l-.95.25q-1.45.6-1.45 2.15 0 1.4 1.2 1.9m2.9-4.35q-.9-.2-1.5 0l-.2.05M32.15 74.55l2.25-2.15m-8 7.35-4.75 3.45q2.75 3.45 4.9 7.1l.45.75 1.45 2.7M26.7 71.8q-2.3-1.6-5.05-2.45l-4-1.1m-5.3 9.1 1.35-1.55 5-5.8m-6.35 7.35-5.65 6.6-.1.05m22.15-10.55L26.7 71.8m.15 7.6 2.45-2.2 2.85-2.65m-5.75 5.2.45-.35" fill="none" stroke="#4f3228" stroke-linecap="round" stroke-linejoin="round" stroke-width="2"/><path d="m52 45.6 4.5.1m-4.5-.1q-5.05-.45-8.15-2.2" fill="none" stroke="#6b4d4c" stroke-linecap="round" stroke-linejoin="round" stroke-width="3"/></g><g id="h"><path d="m.5 22.05 2.15-1q6.2-2.9 13.1-2.8-1.15 1.05-2 2.3l-2.3 3.7q.4-.4 1-.4 3.9 0 6.85 3.15 2.95 3.1 2.95 6.4 0 3.25-1.65 5.25-1.7 2-5.1 2.55l3.9 3.3 1.55 1.2-2.55.65 2.55-.65q2.95-.9 5.45-2.6l1.7 4.55.9 2.1 1.3 2.75.9 1.7 2.1 3.6-1.2 1.15-.85 1.4q-1.15 2.45-1.05 6.5l-2.15.2q-3.7.75-6.45 4.65l-.6.85-.6 1-2.25-2.05q-1.1-1.4-1.35-3.05-.45-3.4.15-6.75l.35-1.35q.8-2.95 2.8-5.4l1.05-1.3-2.75-7.3-1.15.15q-11.3 1.65-15.4-9.35Q-1 29.6.5 22.05M62.15 73.8l2.3 1.9.45.4 5.05 4.95v4.35q-1.8 1.25-4 2.35-3.75 1.9-5.2 1.9-2.5 0-4.8-1.65L52 85l-5-3.65q-2.75-2-4.8-3.25 4.35-5.9 10.95-9.1l.85-.3q3 1.6 5.9 3.5l2.25 1.6m-34.1-6.75-6.7-15.35 6.7 15.35" fill="#fffeef" fill-rule="evenodd" transform="translate(2.5 2.5)"/><path d="M15.75 18.25h.55q7.35.2 11.5 6.1 4 5.75 2.9 12.95l-.25 1.55-.15.7q-1.75 2.05-3.9 3.55-2.5 1.7-5.45 2.6l-1.55-1.2-3.9-3.3q3.4-.55 5.1-2.55 1.65-2 1.65-5.25 0-3.3-2.95-6.4-2.95-3.15-6.85-3.15-.6 0-1 .4l2.3-3.7q.85-1.25 2-2.3m54.2 67.15-.15 15.1-16.65.15q-6.15-2.8-10.95-6.7-3.85-3.05-6.85-6.75l-1.1.6q2.05-5.5 7.2-8.7l.75-1q2.05 1.25 4.8 3.25L52 85l3.95 3q2.3 1.65 4.8 1.65 1.45 0 5.2-1.9 2.2-1.1 4-2.35m-33-31.6.05.1.3.65 1.85 1.6.5.5-2.05-.25q-1.75.25-3.3.9-.55.2-1 .5l-2.1-3.6-.9-1.7-1.3-2.75-.9-2.1q1.4-4 2.2-8.1l.45-.5q1.9 1.55 2.95 3.35 1.3 2.15 2.05 6.15l.5 3.1.7 2.15" fill="#e2d0bc" fill-rule="evenodd" transform="translate(2.5 2.5)"/><path d="m.5 22.05.75-2.85L17.75 0q11.4 5.1 20.55 13.75l-3.3.15q-.95.2-1.9.55 3.95 2.25 6.05 4.35 4.55 4.6 4.55 11.55 0 3.2-.5 6-.5 2.75-1.6 3.25t-2.55 1.55q-.6.45-.95 1.2-.5 1.1-.5 2.85l-.3 4.5q0 1.8.45 2.95l-.7 1.1-.1.05-.7-2.15-.5-3.1q-.75-4-2.05-6.15-1.05-1.8-2.95-3.35l-.3-.2.25-1.55q1.1-7.2-2.9-12.95-4.15-5.9-11.5-6.1h-.55q-6.9-.1-13.1 2.8l-2.15 1m31.55 15.2-1.3 1.8 1.3-1.8m-3.55-20.5 2.3-1.3 2.3-1-2.3 1-2.3 1.3M35.9 42l2.2.35-2.2-.35" fill="#b48583" fill-rule="evenodd" transform="translate(2.5 2.5)"/><path d="M33.1 14.45q.95-.35 1.9-.55l3.3-.15.7.15q2.2.25 4.1 1.4 2.2 1.25 4 3.05 1.7 1.7 2.9 3.75 1.1 1.9 1.7 4.05 1 3.45.3 6.85-.25 1.35-.9 2.45-1.85 3.1-4.75 4.95l-.95.5-1.9.8q-2.65.9-5.4.65 2.75.25 5.4-.65l1.9-.8.95-.5-.4 8.7q-2.55 1.25-4.8 3.25l-1 .9 1-.9 1.4 2.8q-2.95-.25-4.1-1.35l-.7-1.15q-.45-1.15-.45-2.95l.3-4.5q0-1.75.5-2.85.35-.75.95-1.2 1.45-1.05 2.55-1.55 1.1-.5 1.6-3.25.5-2.8.5-6 0-6.95-4.55-11.55-2.1-2.1-6.05-4.35m54.4 63.6 3.9-1.55 2.7 3.9 5.8 9.2-.4.35-10.55 10.45-4.5-3.55q1.2-1.95 3.6-4 4.7-4 4.7-6l-2.85-3.2q-2.6-2.75-2.8-5.5l.4-.1m-8.65 22.15L76.3 99l3.6-14-2.9-4.8q-1.15-2-2.9-3.75-1.3-1.35-1.3-1.85l.1-.85 2.6-.6 4.4 4.25q2.95 3.25 5.15 6.85l-6.2 15.95" fill="#85dbec" fill-rule="evenodd" transform="translate(2.5 2.5)"/><path d="M42.55 55.15q.55 1.4.55 2.45 0 1.5-.4 2.75-.95 2.95-4.1 4.65l-5.9 2.2-2.5-.35q-.1-4.05 1.05-6.5l.85-1.4 1.2-1.15q.45-.3 1-.5 1.55-.65 3.3-.9l2.05.25-.5-.5-1.85-1.6-.3-.65-.05-.1.1-.05.7-1.1.7 1.15q1.15 1.1 4.1 1.35m-2.15 1.6-.75-.1.75.1" fill="#ffe5aa" fill-rule="evenodd" transform="translate(2.5 2.5)"/><path d="M49.55 47.8q1.15 4.8 1.1 9.85l-.15 2.7q-.65 5.65-4.1 10.4L44.5 73q-5.55 5.85-13.25 5.05-1.9.15-3.7-.55-4.8-1.9-5.95-5.8 2.75-3.9 6.45-4.65l2.15-.2 2.5.35 5.9-2.2q3.15-1.7 4.1-4.65.4-1.25.4-2.75 0-1.05-.55-2.45l-1.4-2.8q2.25-2 4.8-3.25 1.7-.85 3.6-1.3M33.7 67.5l-1-.3 1 .3" fill="#f29e7a" fill-rule="evenodd" transform="translate(2.5 2.5)"/><path d="m61.4 47.9.65 1.1q1.4 2.5 2.35 5.2.85 2.35 1.2 4.9l.15 1.25.2 4.65q-.05 3-1.5 5.7-.9 1.75-2.3 3.1l-2.25-1.6Q57 70.3 54 68.7l-.85.3q-6.6 3.2-10.95 9.1l-.75 1q-5.15 3.2-7.2 8.7-4.35 1.9-9.3.55-1.95-.55-3.05-2-5.35-6.8-1.35-12.75l-.15-.05.6-1 .6-.85q1.15 3.9 5.95 5.8 1.8.7 3.7.55 7.7.8 13.25-5.05l1.9-2.25q3.45-4.75 4.1-10.4l.15-2.7q.05-5.05-1.1-9.85 2.65-.7 5.55-.65l6.3.75m-21.1 29v.15l.25.15q.1-.4-.25-.3" fill="#e66d61" fill-rule="evenodd" transform="translate(2.5 2.5)"/><path d="M98.75 67.65q.5.7.5 1.3 0 1.35-1.4 2.75Q96.5 73 95.3 73q-1.25 0-2.2-1.15-.95-1.15-.95-2.65 0-1.2.7-2.15.75-1.05 1.95-1.15l1 .2q1.3.1 1.9.5l1.05 1.05M61.4 47.9q3.8.85 7.2 2.7l2.2 4.7q1.05 2.45 1.65 5.05 1 4.2.7 8.75L73 70.6 71.95 74l-7.5 1.7-2.3-1.9q1.4-1.35 2.3-3.1 1.45-2.7 1.5-5.7l-.2-4.65-.15-1.25q-.35-2.55-1.2-4.9-.95-2.7-2.35-5.2l-.65-1.1" fill="#bd3756" fill-rule="evenodd" transform="translate(2.5 2.5)"/><path d="M71.95 74 73 70.6l.15-1.5q.3-4.55-.7-8.75-.6-2.6-1.65-5.05l-2.2-4.7q4.05 2.25 7.45 6 1.65 1.85 2.8 3.75 2.05 3.55 2.3 7.45-.45 1.35-.5 2.7l-.25 3.95-.5 2.95-4.4-4.25-2.6.6-.95.25" fill="#a5b7d6" fill-rule="evenodd" transform="translate(2.5 2.5)"/><path d="m64.45 75.7 7.5-1.7.95-.25-.1.85q0 .5 1.3 1.85 1.75 1.75 2.9 3.75l2.9 4.8-3.6 14-5-2.4-.2 3.9h-1.3l.15-15.1v-4.35L64.9 76.1l-.45-.4m16.7-7.9-.1 2.8 6 6.95v.05l.05.55q.2 2.75 2.8 5.5l2.85 3.2q0 2-4.7 6-2.4 2.05-3.6 4l-1.25-1-2.6 5.15-1.75-.8 6.2-15.95q-2.2-3.6-5.15-6.85l.5-2.95.25-3.95q.05-1.35.5-2.7" fill="#b68885" fill-rule="evenodd" transform="translate(2.5 2.5)"/><path d="m14.25 86 .2.25q.35.65.35 1.85 0 1.4-.6 2.5-.85 1.55-2.55 1.55-2.4 0-3.95-1.2-1.6-1.25-1.6-3.15 0-3.45 3.55-3.45l2.3.25 1.05.55q.3.15.6.4l.65.45" fill="#e46c60" fill-rule="evenodd" transform="translate(2.5 2.5)"/><path d="M3.75 21.7 3 24.55q-1.5 7.55 1.35 15.1 4.1 11 15.4 9.35l1.15-.15 2.55-.65q2.95-.9 5.45-2.6 2.15-1.5 3.9-3.55l.45-.5 1.3-1.8m1.05-22.8-2.3 1-2.3 1.3m9.8-3-3.3.15q-.95.2-1.9.55m5 27.9q2.75.25 5.4-.65l1.9-.8.95-.5q2.9-1.85 4.75-4.95.65-1.1.9-2.45.7-3.4-.3-6.85-.6-2.15-1.7-4.05-1.2-2.05-2.9-3.75-1.8-1.8-4-3.05-1.9-1.15-4.1-1.4l-.7-.15Q31.65 7.6 20.25 2.5M96.6 82.9l5.8 9.2m-.4.35L91.45 102.9l-4.5-3.55-1.25-1-2.6 5.15-1.75-.8-2.55-1.2-5-2.4-.2 3.9 1.5-.05m-2.8.05h1.3M22.9 76.05l.15.05M40.6 44.85l-2.2-.35m-17.5 4.35 2.75 7.3-1.05 1.3q-2 2.45-2.8 5.4l-.35 1.35q-.6 3.35-.15 6.75.25 1.65 1.35 3.05l2.25 2.05m21.8 20.4q4.8 3.9 10.95 6.7L72.3 103" fill="none" stroke="#6b4d4c" stroke-linecap="round" stroke-linejoin="round" stroke-width="5"/><path d="M20.25 2.5 3.75 21.7M71.1 53.1q-3.4-1.85-7.2-2.7l-6.3-.75q-2.9-.05-5.55.65-1.9.45-3.6 1.3l.4-8.7M71.1 53.1q4.05 2.25 7.45 6 1.65 1.85 2.8 3.75 2.05 3.55 2.3 7.45l-.1 2.8 6 6.95.05.05.4.45L93.9 79l2.7 3.9m-73.55-6.8q-4 5.95 1.35 12.75 1.1 1.45 3.05 2 4.95 1.35 9.3-.55l1.1-.6q3 3.7 6.85 6.75m-1.05-41.6-1 .9m1-.9q2.25-2 4.8-3.25" fill="none" stroke="#4f3228" stroke-linecap="round" stroke-linejoin="round" stroke-width="5"/><path d="m64.65 76.3 2.3 1.9 7.5-1.7.95-.25 2.6-.6 4.4 4.25q2.95 3.25 5.15 6.85l-6.2 15.95M44.7 80.6q4.35-5.9 10.95-9.1l.85-.3q3 1.6 5.9 3.5l2.25 1.6m2.3 1.9.45.4 5.05 4.95v4.35L72.3 103M24.1 74.2l-.6.85-.6 1q-1.7 2.85-2.95 5.9m16.8 8.35q2.05-5.5 7.2-8.7l.75-1m-9.5-10.9 1 .3m5.95-10.85.75.1m-7.1 1.05q.45-.3 1-.5 1.55-.65 3.3-.9l2.05.25m-9.45 10.2q-.1-4.05 1.05-6.5l.85-1.4 1.2-1.15m-.6 9.4-2.5-.35-2.15.2q-3.7.75-6.45 4.65" fill="none" stroke="#4f3228" stroke-linecap="round" stroke-linejoin="round" stroke-width="2"/><path d="m23.85 54.2 6.7 15.35" fill="none" stroke="#6b4d4c" stroke-linecap="round" stroke-linejoin="round" stroke-width="2"/><path d="m101.25 70.15-1.05-1.05q-.6-.4-1.9-.5l-1-.2q-1.2.1-1.95 1.15-.7.95-.7 2.15 0 1.5.95 2.65t2.2 1.15q1.2 0 2.55-1.3 1.4-1.4 1.4-2.75 0-.6-.5-1.3M98.3 68.6l-.75-.2h-.25M16.75 88.5l-.65-.45q-.3-.25-.6-.4l-1.05-.55-2.3-.25q-3.55 0-3.55 3.45 0 1.9 1.6 3.15 1.55 1.2 3.95 1.2 1.7 0 2.55-1.55.6-1.1.6-2.5 0-1.2-.35-1.85l-.2-.25z" fill="none" stroke="#4f3228" stroke-linecap="round" stroke-linejoin="round" stroke-width="3"/></g><g id="i"><path d="m87.95 24.2-1.25-.15-6.65.05q-6.05.05-11.3 3.35-3.65 2.3-5.15 5.65-.65 1.4-.9 3.1l-.05.55-.9.15-5.55.5h-.5.5l5.55-.5.9-.15q2.8-.6 3.4-2l3.25-1.55q3.95.35 7.85 1.6 7.2 2.45 10.65 8.8 1 1.8.65 4.25Q87 57.9 78.45 63.7l-3.8 2.35-.2.1h.2q.65 7 2.7 13.7l1.7 5q.85-1.55 1.9-2.95 2.7-3.6 6.7-5.85l9.05-.35q9.5.2 15.15 7.2 4.1 5.1 5.45 11.35.6 2.65.65 5.5.05 2.85-1.45 5.1-3 4.6-7.3 8.35-1.75 1.6-3.65 2.9l-1.45.45q1.8-4 1.4-8.95-.8-9.6-9.25-9.9l-1.95 1.95q-1.65 1.5-3.9 3.05-6.7 4.6-17.2 4.6-2.4 0-4.7-.75l-.3-.1-.1-.05.05.1.2.2-.4.3q-2.95 2.6-3.05 6.5-.05 1.45.5 2.8l.15.4.1-.3 4.05 1.45q8.5 3.05 17.45 2.1l7.15-1.1q4.9-.95 9.7-2.3l.1.05-.35.65 1.8-1.15q5.6-1.85 9.95-5.85l1.15-1.15q5.7-5.95 7.2-14.1 3.2.2 5.85-.75 3.9-1.45 6.4-5.65 1.05 2.4.8 4.1h.15l.05 1.55v1.85h.05q3.2 0 5.95-1.8l2.1 1.3q1.5.75 3.2 1.15l1.2.2.4.1-.7 2-.9 1.8-1.4 1.9q-.45 3.35-2.1 5.7l-.1.2q-2.25 3.1-6.5 4.5.7-2.35-.6-4.5-.75-1.25-2-1.75l-1.2-.3q-3.05 4.05-7.4 6.35l-1.15-.8q-2.4-1.6-5.1-2.35l-1.55 1.8q-6.55 6.95-15.25 10.45h-.1l-.45.1q-2.65.55-4.4 2.45l.4.5q-1.25 4-4 7.15l-.8.85-.4.4q-6.85 6.65-16.25 5.85-4.85.1-9.2-1.95-8.55-4.15-11.65-13.45-5.75-2.75-11.55.25l-.75.45q-1.55 2.95-6.35 5.85-5.05 3.1-9.2 3.1-5.05 0-8.7-3.65-3.85-3.85-3.85-9.6l.2-5.05q5.85 3.25 12.7 3.65l4.6.25.2-.05q5.85-.5 10.3-3.05 2.8-1.7 5.1-4.2l2.45.3q6.75.1 6.9-6.5l-1.55-2.45-.3-.35.95-.2q1.5-.3 2.25-1.45 2.5-3.65 1.6-8.15-1.05-.2-1.7-.65-1.55-1.05-1.55-3.65 0-3.3 4.75-6.55l1.9-1.15.1-.05-.1-.2q0-1-.6-2.85l-.25-.75-4.35-.65q-.8-.85-.4-2.2 1.9-6.7 9.85-8.25l-6.65-.65-4.25-.85q3.35-1.15 6.55-2.6l-.7-4.2-.75-1.9 1.15-1.3-1.15 1.3-2.55 1.45q-2.65 1.15-4.05 1.15-2.65 0-2.65-3.85 0-2.3 2.85-5.5 1.5-1.65 2.8-2.4-1.2-2.9-2.95-6.25l-1.8-3.15q-3.6-5.8-6.4-5.8-.45 0-1.25.4l-.85.55-.2-1.7q0-1.05.45-2.2.45-1.15 1.1-1.6-.65.45-1.1 1.6-.45 1.15-.45 2.2l.2 1.7-.15.05q-.55-3.3-3.15-5.75-2.75-2.65-6.35-2.65-1.45 0-4.75 1.05l-1.55.55q-.95 3.4.55 7.75 1.45 4.3 5.55 5.9Q15.7 39 0 29.2V29q.85-4.35 3-7.65 3.5-5.4 11.05-9.85 8.2-4.9 19.9-8.25Q45.3 0 53.55 0q13.6 0 25.8 3.25 7.25 1.9 23.55 7 6.4 1.7 10.15 3.5l2.1 1.15q-13 3.1-27.2 9.3M37.8 18.4q-5.35 2.95-6.55 7.4 1.2-4.45 6.55-7.4m-7.45 43.8q0-4.45 2.05-8.35 2.15-4.1 4.75-4.1l2.45 1.65q2.25 1.65 4.55 1.65L45.5 53q1.65 8.9-2.7 16.8.45-2.8.25-5.85l-2.6.35-1.7.3q-5.25 0-8.4-2.15v-.25m32.3-16.15q-1 0-2.2.75 1.2-.75 2.2-.75m4.1-.2q4.6-.5 7.25 3.15 2.2 3.15.6 6.75-.8 1.85-2.8 3-3.1 1.8-6.3 3.3 3.2-1.5 6.3-3.3 2-1.15 2.8-3 1.6-3.6-.6-6.75-2.65-3.65-7.25-3.15m-25.6 8.05.1.65.85 4 .95 5.4-.95-5.4-.85-4-.1-.65M24.4 83.95l.5-.25 1.75-.45.2-.1 1.85-.05q7.65 0 12.8 6.6 4.5 5.75 4.5 12.25v1.75l-1.3-.25-4.35-.9q-4.7-.95-7.9-2.25-9.75-3.9-9.75-12 0-2.35.6-3.3.4-.6 1.1-1.05m48.85-5H71.1q-2.6.5-5.4 2.1 2.8-1.6 5.4-2.1h2.15m.4-4.5L72 75.4q-3.45 1.8-7.05 1.85h-.2.2q3.6-.05 7.05-1.85l1.65-.95m-1.6 16.65-3.55 1.2q-3.2.95-4.45.95l-1.85-.15 1.85.15q1.25 0 4.45-.95l3.55-1.2m21.2 30.4 1.05 1.45q1.65 2.65 1.55 5.9l-.35 3.4.35-3.4q.1-3.25-1.55-5.9l-1.05-1.45m-29.8-17.35 4.65 2.25-4.65-2.25m-3.5 2.75-.7-1.2.7 1.2m3.9 8.85 1.55.55-1.55-.55m-20.4 3.3.4 1.05q1.15 4.1-2.15 6.95 3.3-2.85 2.15-6.95l-.4-1.05m26.4-52.9h4.6-4.6m6.8 24.9q.9-3.4 2.4-6.2-1.5 2.8-2.4 6.2m19.6 6.65q1.5-1.75 2.15-3.45l.1-.25q1.45-4.1-.4-5.95-1.9-1.9-4.65-1.9-1.75 0-3.65.9-2 .95-2.65 2.25.65-1.3 2.65-2.25 1.9-.9 3.65-.9 2.75 0 4.65 1.9 1.85 1.85.4 5.95l-.1.25q-.65 1.7-2.15 3.45m2.85 26.9-.1.1-.55.65.55-.65.1-.1m36.6-17.7.75-3.65.65-7.15-.65 7.15-.75 3.65m9.2 1.55.3-12.85-.3 12.85m-24.05 1.35-4.2-.7 4.2.7" fill="#b68885" fill-rule="evenodd" transform="translate(2.5 2.5)"/><path d="M37.35 39.45q-4.1-1.6-5.55-5.9-1.5-4.35-.55-7.75l1.55-.55q3.3-1.05 4.75-1.05 3.6 0 6.35 2.65 2.6 2.45 3.15 5.75v.05l.15-.1.85-.55q.8-.4 1.25-.4 2.8 0 6.4 5.8-7.45-.15-8.5-4.85 1.05 4.7 8.5 4.85l1.8 3.15q1.75 3.35 2.95 6.25-1.3.75-2.8 2.4-2.85 3.2-2.85 5.5 0 3.85 2.65 3.85 1.4 0 4.05-1.15l2.55-1.45.75 1.9.7 4.2q-3.2 1.45-6.55 2.6l4.25.85 6.65.65Q61.9 67.7 60 74.4q-.4 1.35.4 2.2l4.35.65.25.75q.6 1.85.6 2.85v.25l-1.9 1.15q-4.75 3.25-4.75 6.55 0 2.6 1.55 3.65.65.45 1.7.65.9 4.5-1.6 8.15-.75 1.15-2.25 1.45l-.95.2.3.35 1.55 2.45q-.15 6.6-6.9 6.5l-2.45-.3q-2.3 2.5-5.1 4.2l-.2-1.7-3 .35q-9.9 1.7-19.25-2.35-8.6-3.85-11.8-13.05 4.95-1.6 5-7.55.05-5.1-4.2-8.05.2-1.55.8-2.9 2.2-4.8 5.45-8.75 6.6-1.85 13.7-.05 5.5 1.45 8.6 5.35 2.4 3.05 3.35 7.6-.95-4.55-3.35-7.6 2.2-3.55 2.9-7.6 4.35-7.9 2.7-16.8l-1.35.05q-2.3 0-4.55-1.65l-2.45-1.65q-2.6 0-4.75 4.1-2.05 3.9-2.05 8.35l-.1.2-.45-.35q-3.05-2.4-3.5-6.85l-.05-.65-.05-1.05q0-5.85 4.45-9.8 3.65-3.35 6.7-4.25l.5.2 3.75.8q1.8 4.75 3.2 9.7l.7 2.85-.7-2.85q-1.4-4.95-3.2-9.7l-3.75-.8-.5-.2m12.6-.1q-4.15 1.5-8.35 1.1 4.2.4 8.35-1.1m-.55 65q.35-1.25 1.75-2.1 1.4-.85 3.1-.85 1.85 0 3.15 1.5-1.3-1.5-3.15-1.5-1.7 0-3.1.85-1.4.85-1.75 2.1m-3.4-.65v-1.75q0-6.5-4.5-12.25-5.15-6.6-12.8-6.6l-1.85.05-.2.1-1.75.45-.5.25q-.7.45-1.1 1.05-.6.95-.6 3.3 0 8.1 9.75 12 3.2 1.3 7.9 2.25l4.35.9 1.3.25.15.45.45-.2-.15-.1-.05-.1-.4-.05m19.4 12.6q-.55-1.35-.5-2.8.1-3.9 3.05-6.5l.4-.3.15-.15q2.3.75 4.7.75 10.5 0 17.2-4.6 2.25-1.55 3.9-3.05l1.95-1.95q8.45.3 9.25 9.9.4 4.95-1.4 8.95h-.1q-4.8 1.35-9.7 2.3l-7.15 1.1q-8.95.95-17.45-2.1l-4.05-1.45-.25-.1" fill="#e2d0bc" fill-rule="evenodd" transform="translate(2.5 2.5)"/><path d="M17.6 72.1q-3.25 3.95-5.45 8.75-.6 1.35-.8 2.9 4.25 2.95 4.2 8.05-.05 5.95-5 7.55 3.2 9.2 11.8 13.05 9.35 4.05 19.25 2.35l3-.35.2 1.7q-4.45 2.55-10.3 3.05l-.2.05-4.6-.25q-6.85-.4-12.7-3.65-2.55-1.45-4.95-3.45-5-4.2-8.5-9.85l-.8-1.35q-2.4-5.5-1.3-11.7Q3.3 78.55 12.8 73.9q2.35-1.15 4.8-1.8m7.6 45.4q2.2 1 4.5 1.45-2.3-.45-4.5-1.45" fill="#fffeef" fill-rule="evenodd" transform="translate(2.5 2.5)"/><path d="M63.6 33.1q1.5-3.35 5.15-5.65 5.25-3.3 11.3-3.35l6.65-.05 1.25.15q-7.5 3.2-15.3 7.3l-.1.05-.5.25v.05L69.3 33.2l2.75-1.35.15-.05.45-.05q3.1-.3 6.35-.05 7.35.5 12.3 5.7 4.7 5 4.25 11.55-.15 2.5-1.4 4.6l-.6 1q-1.9 3-4.2 5.55-2.9 3.25-6.65 5.15l-4 1.5q.35 6.35 1.6 12.55l.65 2.6q-1.05 1.4-1.9 2.95l-1.7-5q-2.05-6.7-2.7-13.7v-.1l3.8-2.35q8.55-5.8 10-15.85.35-2.45-.65-4.25-3.45-6.35-10.65-8.8-3.9-1.25-7.85-1.6-2.85-.3-5.7-.1m24.05 42.95q3.15-1.8 7.15-2.7 25.15-5.4 29.15 17.85l.45-.1q2.45-.55 4.5-2.4 2.55-2.3 3.1-5.2 1.65.45 3.4 3.7l.7 1.4q-2.5 4.2-6.4 5.65-2.65.95-5.85.75l.15-.75.1-.8.3-2.35-.3 2.35-.1.8-.15.75q-1.5 8.15-7.2 14.1l-1.15 1.15q-4.35 4-9.95 5.85 1.9-1.3 3.65-2.9 4.3-3.75 7.3-8.35 1.5-2.25 1.45-5.1-.05-2.85-.65-5.5-1.35-6.25-5.45-11.35-5.65-7-15.15-7.2l-9.05.35m-4.95-10.8-3.75.55-4.3.35 4.3-.35 3.75-.55m54.35 27.45v-.1l3.65-3.65q2.4-2.3 3.35-5.25 1.25 1.3 2 3.65.6 2.05.4 3.85l-.35 1.5.8-.95 1.25-1.1 2.15-1.9q.35 1.05.35 3.6 0 2.4-.65 4.7l-.4-.1-1.2-.2q-1.7-.4-3.2-1.15l.1-3.1.05-.1h-.05v.1l-2.15 1.75-.05.05q-2.75 1.8-5.95 1.8h-.05v-1.85l-.05-1.55m8.25-1.65v1.35-1.35" fill="#85dbec" fill-rule="evenodd" transform="translate(2.5 2.5)"/><path d="m71.8 35.7 2.75-1.35.15-.05.45-.05q3.1-.3 6.35-.05 7.35.5 12.3 5.7 4.7 5 4.25 11.55-.15 2.5-1.4 4.6l-.6 1q-1.9 3-4.2 5.55-2.9 3.25-6.65 5.15l-4 1.5q.35 6.35 1.6 12.55l.65 2.6q2.7-3.6 6.7-5.85 3.15-1.8 7.15-2.7 25.15-5.4 29.15 17.85l.45-.1q2.45-.55 4.5-2.4 2.55-2.3 3.1-5.2 1.65.45 3.4 3.7l.7 1.4q1.05 2.4.8 4.1l.15-.1 3.65-3.65q2.4-2.3 3.35-5.25 1.25 1.3 2 3.65.6 2.05.4 3.85l-.35 1.5.8-.95 1.25-1.1 2.15-1.9q.35 1.05.35 3.6 0 2.4-.65 4.7l-.7 2-.9 1.8-1.4 1.9q-.45 3.35-2.1 5.7M74.55 34.3l.5-.25.1-.05q7.8-4.1 15.3-7.3 14.2-6.2 27.2-9.3l-2.1-1.15q-3.75-1.8-10.15-3.5-16.3-5.1-23.55-7-12.2-3.25-25.8-3.25-8.25 0-19.6 3.25Q24.75 9.1 16.55 14 9 18.45 5.5 23.85q-2.15 3.3-3 7.65v.2q15.7 9.8 37.35 10.25-3.05.9-6.7 4.25-4.45 3.95-4.45 9.8l.05 1.05.05.65q.45 4.45 3.5 6.85l.45.35.1.05q3.15 2.15 8.4 2.15l1.7-.3 2.6-.35q.2 3.05-.25 5.85-.7 4.05-2.9 7.6-3.1-3.9-8.6-5.35-7.1-1.8-13.7.05-2.45.65-4.8 1.8-9.5 4.65-11.35 15.05-1.1 6.2 1.3 11.7l.8 1.35m69-70.45-.35.25h-.15m-6 2.95-2.6 1.25m2.6-1.25 3.25-1.55M45.55 66.45l-.95-5.4-.85-4-.1-.65m2.1 31.1q-.95-4.55-3.35-7.6m-22.9 37.9-.2 5.05q0 5.75 3.85 9.6 3.65 3.65 8.7 3.65 4.15 0 9.2-3.1 4.8-2.9 6.35-5.85l.75-.45q5.8-3 11.55-.25 3.1 9.3 11.65 13.45 4.35 2.05 9.2 1.95 9.4.8 16.25-5.85l.4-.4.8-.85q2.75-3.15 4-7.15m45.3-16.45q-2.25 3.1-6.5 4.5.7-2.35-.6-4.5-.75-1.25-2-1.75l-1.2-.3q-3.05 4.05-7.4 6.35l-1.15-.8q-2.4-1.6-5.1-2.35l-4.2-.7m-37.6-24.25q.85-1.55 1.9-2.95m-1.9 2.95q-1.5 2.8-2.4 6.2" fill="none" stroke="#6b4d4c" stroke-linecap="round" stroke-linejoin="round" stroke-width="5"/><path d="M39.85 41.95q-4.1-1.6-5.55-5.9-1.5-4.35-.55-7.75 1.2-4.45 6.55-7.4m99.25 74.2-.5-4.8-.15-.85-.35-1.95m-61.4-18.85 4.3-.35 3.75-.55m-35.5-32.7-.2-1.7q0-1.05.45-2.2.45-1.15 1.1-1.6M58.2 39.9h.5l5.55-.5.9-.15q2.8-.6 3.4-2M48 55.5l-.7-2.85q-1.4-4.95-3.2-9.7l-3.75-.8-.5-.2m9.85-6.9q1.05 4.7 8.5 4.85m4.75 9.4q1.2-.75 2.2-.75m-21.05-5.6q4.2.4 8.35-1.1m14.1 16.6 1.15-1.3m-4.75-7.85q-1.3.75-2.8 2.4-2.85 3.2-2.85 5.5 0 3.85 2.65 3.85 1.4 0 4.05-1.15l2.55-1.45m1.45 6.1q3.2-1.5 6.3-3.3 2-1.15 2.8-3 1.6-3.6-.6-6.75-2.65-3.65-7.25-3.15m-2 31.4-4.35-.65q-.8-.85-.4-2.2 1.9-6.7 9.85-8.25L65.7 68l-4.25-.85Q64.8 66 68 64.55M45.3 72.3q4.35-7.9 2.7-16.8m13.75 52.7-1.55-2.45-.3-.35q-1.3-1.5-3.15-1.5-1.7 0-3.1.85-1.4.85-1.75 2.1M45.3 72.3 44.25 74m4.25 32.2.4.05.05.1m-.45-.15-1.3-.25-4.35-.9q-4.7-.95-7.9-2.25-9.75-3.9-9.75-12 0-2.35.6-3.3.4-.6 1.1-1.05m41.3-2.9q2.8-1.6 5.4-2.1h2.15M68.1 83.6l.1-.05m-.95-3.8h.2q3.6-.05 7.05-1.85l1.65-.95M68.1 83.6l-1.9 1.15Q61.45 88 61.45 91.3q0 2.6 1.55 3.65.65.45 1.7.65l1.85.15q1.25 0 4.45-.95l3.55-1.2m-68.5 10.9q3.5 5.65 8.5 9.85 2.4 2 4.95 3.45 5.85 3.25 12.7 3.65l4.6.25M98 134.75l.35-3.4q.1-3.25-1.55-5.9L95.75 124M70.6 108.9l-4.65-2.25m2.2 12.25-.25-.1-1.55-.55m1.8.65 4.05 1.45q8.5 3.05 17.45 2.1l7.15-1.1q4.9-.95 9.7-2.3h.1l1.45-.45q5.6-1.85 9.95-5.85l1.15-1.15q5.7-5.95 7.2-14.1l.15-.75.1-.8.3-2.35m-28.15 6.6-1.95 1.95q-1.65 1.5-3.9 3.05-6.7 4.6-17.2 4.6-2.4 0-4.7-.75l-.3-.1-.1-.05m-8.85-.7.7 1.2M44.2 129.55q3.3-2.85 2.15-6.95l-.4-1.05m93.6-26.35v-.1m7.85 15.85-.1.2m-40.75 13.4 1.55-.05m39.7-29.6v.1l-.1 3.1-.3 12.85m.4-16.05v-1.35m-70.85-24.9h-4.6m4.6 0h.2m12.5 23.15q.65-1.3 2.65-2.25 1.9-.9 3.65-.9 2.75 0 4.65 1.9 1.85 1.85.4 5.95l-.1.25q-.65 1.7-2.15 3.45m2.2 27.65.55-.65.1-.1q1.75-1.9 4.4-2.45l.45-.1h.1M139.6 98.6l-.65 7.15-.75 3.65m1.35-14.2.05 1.55v1.85" fill="none" stroke="#6b4d4c" stroke-linecap="round" stroke-linejoin="round" stroke-width="2"/><path d="M32.2 121.45q-2.3-.45-4.5-1.45" fill="none" stroke="#6b4d4c" stroke-linecap="round" stroke-linejoin="round" stroke-width=".5"/></g><g id="j"><path d="M20.25 7.7q4.6.25 8.85 2.3 5.9 2.85 11.45 6.65 5.55 3.75 9.6 8.8 4.45 5.5 6.8 12.1l.25.65-2.65-1.2q-7.65-3.3-11.4-3.3l-1.05.15q-.3.2-.3.9 0 2.1 6.75 7.75v.15l-7.25-1.2-6.8-1.5h-.3q10.3 9 12.9 12.45 5.95 7.95 5.95 19 0 4.9-1.1 10.65-1.1 5.55-2.5 8.2-2.2 4.4-5.25 7.1-3.45 3.1-7.1 3.1-2 0-3.45-.6l-2.9-1.1-1.15.35q-1.4.4-2.55 1.1h-.85l-5.05.65q-3.15.75-5.45 1.8-.65-.1-.75.15v.2l-.05.4.05.45q-1.15-.2-1.15-1.35 0-2.4 6.15-4.65 3.05-1.1 6.4-1.8h.8q-2.25-1.6-4.15-3.5-4.45-4.6-6.75-10.65l3.35-.75Q25.1 79 25.1 78q0-1.05-1.7-1.4l-3.7-.25-5.15.6q-2.3.5-3.9 1.45l-.65.35-.25.3-.2.5Q7.9 79.3 7.9 77.9q0-1.25 2.05-2.4Q11 74.9 13 74q-2.45-5-4.4-10.15-2.4-6.5-4.1-13.3-1.7-6.65-1.95-13.5Q11.9 18.9 20.25 7.7" fill="#ef180b" fill-rule="evenodd" transform="translate(2.5 2.5)"/><path d="M2.55 37.05q.25 6.85 1.95 13.5 1.7 6.8 4.1 13.3Q10.55 69 13 74q-2 .9-3.05 1.5-2.05 1.15-2.05 2.4 0 1.4 1.65 1.65v.1l.2 1.25q.25.8.6.85l1.55.2 1.5.1 2.85-.15q2.3 6.05 6.75 10.65 1.9 1.9 4.15 3.5h-.8q-3.35.7-6.4 1.8-6.15 2.25-6.15 4.65 0 1.15 1.15 1.35 0 .35.15.5.25.3 1.35.6l2.95.45q1.3 0 2.95-.6.95-.4 2.8-1.25l2.4-1.2q.3-.25 1.3-.45l.75-.5q0-.45-.4-.65-.55-.2-.9-.4l-1.25-.15q1.15-.7 2.55-1.1l1.15-.35 2.9 1.1q1.45.6 3.45.6 3.65 0 7.1-3.1 3.05-2.7 5.25-7.1 1.4-2.65 2.5-8.2 1.1-5.75 1.1-10.65 0-11.05-5.95-19-2.6-3.45-12.9-12.45h.3l6.8 1.5 7.25 1.2v-.15q-6.75-5.65-6.75-7.75 0-.7.3-.9l1.05-.15q3.75 0 11.4 3.3l2.65 1.2q1.85 5.45 2.85 11.25l.05.2-.55-.25-.4-.7.4.7-1.65-.6-.6-.1q-1.6 4.35-.25 10.9 1.35 6.5 2.15 12.6.75 6.05 1.1 14.05l.45 15.2q.05 7.15-.55 14.45-.4 4.7-.45 9.3l-1.45-1q-2.8 21-8.8 35.7l-20.75-35.35-7.45 12.35Q3.35 97.2 0 42l2.55-4.95" fill="#a73442" fill-rule="evenodd" transform="translate(2.5 2.5)"/><path d="m59.55 49.4.7 1.35Q76.8 81.45 88 148.3q-12.8-12-28.25-23.1.05-4.6.45-9.3.6-7.3.55-14.45l-.45-15.2q-.35-8-1.1-14.05-.8-6.1-2.15-12.6-1.35-6.55.25-10.9l.6.1 1.65.6" fill="#832430" fill-rule="evenodd" transform="translate(2.5 2.5)"/><path d="m9.55 79.55.2-.5.25-.3.65-.35q1.6-.95 3.9-1.45l5.15-.6 3.7.25q1.7.35 1.7 1.4 0 1-5.5 3.15l-3.35.75-2.85.15-1.5-.1-1.55-.2q-.35-.05-.6-.85l-.2-1.25.1-.1h-.1m5.4 24.3-.05-.45.05-.4v-.2q.1-.25.75-.15 2.3-1.05 5.45-1.8l5.05-.65h.85l1.25.15q.35.2.9.4.4.2.4.65l-.75.5q-1 .2-1.3.45l-2.4 1.2q-1.85.85-2.8 1.25-1.65.6-2.95.6l-2.95-.45q-1.1-.3-1.35-.6-.15-.15-.15-.5" fill="#611929" fill-rule="evenodd" transform="translate(2.5 2.5)"/><path d="M22.75 10.2q3.2-4.4 6.3-7.7m-6.3 7.7Q14.4 21.4 5.05 39.55L2.5 44.5q3.35 55.2 21.3 94.9l7.45-12.35L52 162.4q6-14.7 8.8-35.7l1.45 1q15.45 11.1 28.25 23.1-11.2-66.85-27.75-97.55l-.7-1.35-.4-.7" fill="none" stroke="#611929" stroke-linecap="round" stroke-linejoin="round" stroke-width="5"/></g><g id="k"><path d="m43.35 18.15 3.55 6.25.65 1.3q-.4 1.45-.45 3l-.8 12.85Q45 56.1 43.9 59.2q-1.15 3.05-2.85 6.15-1.7 3.05-3.65 5.25l-4.15 3.65q-2 1.45-4.75 1.45t-5.9-1.75Q19.9 72.5 18 70.4q-2.05-2.25-2.8-5.9l-.7-6.2-1.8-13.4q-.5-4.75-.5-12.45l.6-7.25q1.9-3.5 4.35-6.55l.25.3q1.6 1.8 4.45 2.6.4.1 4 1.75 2.75 1.2 4.6 1.25l.15.05q2.45 1 8.45-3.2l4.3-3.25" fill="#ef180b" fill-rule="evenodd" transform="translate(2.5 2.5)"/><path d="m47.55 25.7 2.4 5.5q.3 52.4-11.15 84.25l-3.05-9.25-14.4 21.1-3.6-36.55-17.75 12L10 52.2 5.95 41.5l1.2-4.2 3.6-8q.95-2.15 2.05-4.1l-.6 7.25q0 7.7.5 12.45l1.8 13.4.7 6.2q.75 3.65 2.8 5.9 1.9 2.1 4.6 3.55 3.15 1.75 5.9 1.75 2.75 0 4.75-1.45l4.15-3.65q1.95-2.2 3.65-5.25 1.7-3.1 2.85-6.15 1.1-3.1 2.4-17.65l.8-12.85q.05-1.55.45-3" fill="#a73442" fill-rule="evenodd" transform="translate(2.5 2.5)"/><path d="M31.35 1.45q6.7 7.9 12 16.7l-4.3 3.25q-6 4.2-8.45 3.2l-.15-.05q-1.85-.05-4.6-1.25-3.6-1.65-4-1.75-2.85-.8-4.45-2.6l-.25-.3.95-1.15q1.55-1.85 3.2-3.2l3.6-3.1q4.25-4.35 5.5-7.05l.95-2.7" fill="#832430" fill-rule="evenodd" transform="translate(2.5 2.5)"/><path d="m32.6 2.5 1.25 1.45q6.7 7.9 12 16.7l3.55 6.25.65 1.3 2.4 5.5q.3 52.4-11.15 84.25l-3.05-9.25-14.4 21.1-3.6-36.55-17.75 12 10-50.55L8.45 44l-1.4-3.6" fill="none" stroke="#611929" stroke-linecap="round" stroke-linejoin="round" stroke-width="5"/></g><g id="l"><path d="M26.85 73.25h-.1l-.6-.15-6.05-3.8q-4.2-2.65-7.2-6.35L9.25 58.5Q7.1 55.85 5.5 52.75 3.2 48.3 1.95 43.5q-1-3.8-1.45-7.55-.4-3.2-.5-6.35 6.55 1.4 12.05 3.85l3 1.45q-.1-12.7.3-19.6.35-7 .1-10.35 5 4.1 14 12.95 8.05-2.6 11.7-1 3 1.65 4.85 4.3l-.65.05q-2.15.3-4 .95l-2.8.8q-2.2.85-4.15 2.05-1.55.95-2.75 2.4-1 1.2-1.45 2.65l-2.15-1-1.75-.9q-1.35-.6-2.25-1.55L23.9 30q-.05 1.7.05 3.4.15 1.75-.9 3.3-.8 1.3-2.2 2l-1.45.65q2.35 1.6 4.9 3.05l2.6 1.4q6.95-2.25 14.15-.95l1 .25q-1.75.5-3.35 1.25-2.05.9-5.65 3.1-.9.5-2.2 1.75l-2.15 2.05-3.8 3.65q-.6 0-3.85-1.25l-3.6-1.45q4.9 7.65 10.65 12.45l7.8 6.45q-4.4 1.55-9.05 2.15M42.1 13.8Q44.6 6.6 50.55 0q3.8 5 7.1 7.45l5.1 3.7q.9.7 1.15 4.9l.2 3.55.05.6h-.05q-1.2 1-3.6 1-.95 0-4.8-2.2l-3.8-2.25-2.7-1.2q-1.25-.55-2.4-.6l-3.3-.6-1.4-.55m32.85 12.6 1 1.35v.05l20-12 1.35 1.75-3.9 3.2-7.6 6.1-6.5 4.9-3.95 1.9q-9.05 4.25-15.1 4.25l-2.55-.25q-.9-.25-2.05-.95l-1.05 1.25-1.8 1.25-2.3.95-.35.15-2.45-.45q-4.8-.9-7.2-5.15-1-1.75-.55-3.7.75-3.05 3.55-4.55 2.3-1.15 4.7-1.25 1.95-.1 4.05.6 4.35 1.45 5.25 5.45l3.6-.3 8.05-2.05q3.1-.85 5.8-2.5m-62.9 7.05 2.9 2.55q2.15 1.75 4.45 3.35-2.3-1.6-4.45-3.35l-2.9-2.55M32.1 20.5l-2.65-2.6 2.65 2.6m13.35 24.1.05-.1q2.5-2.7 6.1-2.7l1.55.05 1.7.5 1.5.5.05.05 1.15 2q.8 1.25.9 2.9l.1 2q.15 1.85-.35 3.75l-.6 1.5q-1 1.65-2.7 2.55-1.4.8-3.1.9l-2.95.05-2.55-.8-1.45-.5Q43 54.6 43 50.95q0-3.7 2.45-6.35M57.5 31.25q-2.8-.1-5.4-1.15 2.6 1.05 5.4 1.15" fill="#fffeef" fill-rule="evenodd" transform="translate(2.5 2.5)"/><path d="M41.15 16.9q.4-1.6.95-3.1l1.4.55 3.3.6q1.15.05 2.4.6l2.7 1.2L55.7 19q3.85 2.2 4.8 2.2 2.4 0 3.6-1h.05l.5-.5q6.25 1.45 10.3 6.7-2.7 1.65-5.8 2.5l-8.05 2.05-3.6.3q-.9-4-5.25-5.45-2.1-.7-4.05-.6l-1.3-2.6-.9-1.4.9 1.4 1.3 2.6q-2.4.1-4.7 1.25-2.8 1.5-3.55 4.55-.45 1.95.55 3.7 2.4 4.25 7.2 5.15l2.45.45.35-.15 2.3-.95 1.8-1.25 1.05-1.25q1.15.7 2.05.95l2.55.25q6.05 0 15.1-4.25l3.95-1.9 6.5-4.9 7.6-6.1 3.9-3.2 5.55 7.05-2.15 2.6q-4.75 5.75-10.9 10-4.1 2.85-8.75 4.2l-.1-.2-.4.3-1.35.9-1.8 1.15-2.05 1.1-3.25 1.65-3.55 1.6q-1.05.35-1.9.95-.9.55-1.5 1.5L64.1 52.4l-1.2 2.05-.35.05-3.8.5 3.8-.5.35-.05-.55.55q-1.4 1.3-3.1 2.25l-2.65 1.3-2.6 1-2.6.85-2.65.35q2.1 1.2 4.55 1.65l-6.2 3.75q-4.25 2.3-8.85 4.05l-2.35.9-7.8-6.45q-5.75-4.8-10.65-12.45l3.6 1.45q3.25 1.25 3.85 1.25l3.8-3.65 2.15-2.05q1.3-1.25 2.2-1.75 3.6-2.2 5.65-3.1 1.6-.75 3.35-1.25l-1-.25q-7.2-1.3-14.15.95l-2.6-1.4q-2.55-1.45-4.9-3.05l1.45-.65q1.4-.7 2.2-2 1.05-1.55.9-3.3-.1-1.7-.05-3.4l.15-3.35q.9.95 2.25 1.55l1.75.9 2.15 1q.45-1.45 1.45-2.65 1.2-1.45 2.75-2.4 1.95-1.2 4.15-2.05l2.8-.8q1.85-.65 4-.95l.65-.05q-1.85-2.65-4.85-4.3m39.4 24.6q-5.2 1.55-10.6 2.2l-8.5.25 1.45-1.25q3.65-2.85 7.55-5.25l7.95-5.1.9-.6-.9.6-7.95 5.1q-3.9 2.4-7.55 5.25l-1.45 1.25 8.5-.25q5.4-.65 10.6-2.2M57.5 40.3q-3.75.45-7.35 0 3.6.45 7.35 0m6.85-17.4-.2-2.7.2 2.7m-7.95 20-.05-.05-1.5-.5-1.7-.5-1.55-.05q-3.6 0-6.1 2.7l-.05.1Q43 47.25 43 50.95q0 3.65 1.85 6.3l1.45.5 2.55.8 2.95-.05q1.7-.1 3.1-.9 1.7-.9 2.7-2.55l.6-1.5q.5-1.9.35-3.75l-.1-2q-.1-1.65-.9-2.9l-1.15-2q1.45.55 1.6 1-.15-.45-1.6-1m-14.35.2q1.8.5 3.4 1.5-1.6-1-3.4-1.5m2.8 14.15q1.1 1.7 3 2.95l.9.55-.9-.55q-1.9-1.25-3-2.95" fill="#e2d0bc" fill-rule="evenodd" transform="translate(2.5 2.5)"/><path d="m102.85 24.6 4.6 5.85q-3.4 3.85-7.75 7.3-11 8.65-28.15 14.9l-.15.4q-1.2 3.3-2.9 6.2-5.8 10.2-17.65 13.55-11.95 3.15-24 .45 4.65-.6 9.05-2.15l2.35-.9q4.6-1.75 8.85-4.05l6.2-3.75q-2.45-.45-4.55-1.65l2.65-.35 2.6-.85 2.6-1 2.65-1.3q1.7-.95 3.1-2.25l.55-.55 4.8-.75-2.7 3.65q-4.25 5.35-8.4 5.35l-3.3-.3 3.3.3q4.15 0 8.4-5.35l2.7-3.65-4.8.75 1.2-2.05 1.05-2.05q.6-.95 1.5-1.5.85-.6 1.9-.95l3.55-1.6 3.25-1.65 2.05-1.1 1.8-1.15 1.35-.9.5-.1q4.65-1.35 8.75-4.2 6.15-4.25 10.9-10l2.15-2.6M67.7 53.7l3.7-.65-3.7.65" fill="#b68885" fill-rule="evenodd" transform="translate(2.5 2.5)"/><path d="M29.35 75.75h-.1l-.6-.15-6.05-3.8q-4.2-2.65-7.2-6.35L11.75 61Q9.6 58.35 8 55.25 5.7 50.8 4.45 46q-1-3.8-1.45-7.55-.4-3.2-.5-6.35 6.55 1.4 12.05 3.85l3 1.45q-.1-12.7.3-19.6.35-7 .1-10.35 5 4.1 14 12.95 8.05-2.6 11.7-1 .4-1.6.95-3.1 2.5-7.2 8.45-13.8 3.8 5 7.1 7.45l5.1 3.7q.9.7 1.15 4.9l.2 3.55.55.1q6.25 1.45 10.3 6.7l1 1.35v.05l20-12 1.35 1.75 5.55 7.05 4.6 5.85q-3.4 3.85-7.75 7.3-11 8.65-28.15 14.9l-.15.4q-1.2 3.3-2.9 6.2-5.8 10.2-17.65 13.55-11.95 3.15-24 .45m37.3-53.05-.05-.6m.05.6.2 2.7m-34.9-5L34.6 23" fill="none" stroke="#6b4d4c" stroke-linecap="round" stroke-linejoin="round" stroke-width="5"/><path d="m44.55 45.6-1-.25q-7.2-1.3-14.15.95l-2.6-1.4q-2.55-1.45-4.9-3.05-2.3-1.6-4.45-3.35l-2.9-2.55M48.5 23.7q-1.85-2.65-4.85-4.3m56.15.65-3.9 3.2-7.6 6.1-6.5 4.9-.9.6-7.95 5.1q-3.9 2.4-7.55 5.25l-1.45 1.25 8.5-.25q5.4-.65 10.6-2.2l.5-.1q4.65-1.35 8.75-4.2 6.15-4.25 10.9-10l2.15-2.6m-54.65.6q1.95-.1 4.05.6 4.35 1.45 5.25 5.45l3.6-.3 8.05-2.05q3.1-.85 5.8-2.5M48.5 23.7l.9 1.4 1.3 2.6q-2.4.1-4.7 1.25-2.8 1.5-3.55 4.55-.45 1.95.55 3.7 2.4 4.25 7.2 5.15l2.45.45q3.6.45 7.35 0m-12.05 4.3L48 47q2.5-2.7 6.1-2.7l1.55.05 1.7.5 1.5.5.05.05q1.45.55 1.6 1m-5.9-13.8q2.6 1.05 5.4 1.15m-12.65 26q-1.85-2.65-1.85-6.3 0-3.7 2.45-6.35-1.6-1-3.4-1.5M65.4 56.95l-.35.05-3.8.5m-10 5.75q2.1 1.2 4.55 1.65l3.3.3q4.15 0 8.4-5.35l2.7-3.65-4.8.75m-14.15 6.3-.9-.55q-1.9-1.25-3-2.95m26.55-4.2-3.7.65" fill="none" stroke="#6b4d4c" stroke-linecap="round" stroke-linejoin="round" stroke-width="2"/></g><g id="m"><path d="M0 26.4v-.15l.9-1.05 1.45-1.7 1.5-1.7L5.4 20l1.35-1.6 1.4-1.65 1.3-1.6 2.2-2.6 2.5-2.7 2.7-2.6 2.8-2.15 1.85-1.25.35-.2 1.6-.85 2-.95 2.25-.75 2.35-.6L33.8.05l3.45.05 2.55.45 2.9.9.2.1-.15 1.85q0 2.05.7 5.4L36 8.2l-6.9 7.9q-2.6 2.75-5.55 4.95-4.1 3.1-9.15 4.95-4.3 1.65-8.9 1.25L0 26.4" fill="#ef180b" fill-rule="evenodd" transform="translate(2.5 2.5)"/><path d="M43.45 8.8q.5 2.65 1.5 6.15 1.5 5.5 2 10-26 19.15-43.6 14.3-1.15-2.1-1.85-4.45Q.3 30.65 0 26.4l5.5.85q4.6.4 8.9-1.25 5.05-1.85 9.15-4.95 2.95-2.2 5.55-4.95L36 8.2l7.45.6" fill="#a73442" fill-rule="evenodd" transform="translate(2.5 2.5)"/><path d="m46.95 24.95.15 3.55q0 8.05-3.3 16.8-1.45 3.75-2.25 6.45l-2.3.65-.4.1q-5.6 1.4-11.25.6-5.8-.75-11.05-2.9-4.95-1.9-8.9-5.5-2.6-2.45-4.3-5.45 17.6 4.85 43.6-14.3" fill="#832430" fill-rule="evenodd" transform="translate(2.5 2.5)"/><path d="M2.5 28.9v-.15l.9-1.05L4.85 26l1.5-1.7 1.55-1.8 1.35-1.6 1.4-1.65 1.3-1.6 2.2-2.6 2.5-2.7 2.7-2.6 2.8-2.15L24 6.35l.35-.2 1.6-.85 2-.95 2.25-.75 2.35-.6 3.75-.45 3.45.05 2.55.45 2.9.9.2.1 3 1.15m-4.35 49.05 2.55-1M2.5 28.9q.3 4.25 1.5 8.4.7 2.35 1.85 4.45 1.7 3 4.3 5.45 3.95 3.6 8.9 5.5 5.25 2.15 11.05 2.9 5.65.8 11.25-.6l.4-.1 2.3-.65" fill="none" stroke="#611929" stroke-linecap="round" stroke-linejoin="round" stroke-width="5"/></g><g id="n" fill-rule="evenodd"><path d="M78.55 113.35q4.15 14.95 9.3 28.95l40.75-49.55q-10.05 8.05-20.55 15.15l-2.8 1.85q-6.3 4.1-12.75 7.85l-.05.05-16.35-13.5 2.2 8.4.25.8m-10.5-16.9-.15-.4-.1-1.15v-.15l.3-1.25.4-.7L93 115.45l.05-.05Q140 81.15 143.8 80.65l-7.9 8.9q-26.95 30.65-50.1 59.1-8.9-28.45-17.75-52.2" fill="#795205"/><path d="m78.55 113.35-.25-.8-2.2-8.4 16.35 13.5.05-.05q6.45-3.75 12.75-7.85-3.95 3.1-6.55 6l-5.8 6.2q-2.35 2.35-3.65 2.35-1.85 0-5.95-4.8-2.7-3.1-4.75-6.15" fill="#fccb65"/><path d="m105.25 109.75 2.8-1.85q10.5-7.1 20.55-15.15L87.85 142.3q-5.15-14-9.3-28.95 2.05 3.05 4.75 6.15 4.1 4.8 5.95 4.8 1.3 0 3.65-2.35l5.8-6.2q2.6-2.9 6.55-6" fill="#dda026"/><path d="M68.05 96.45q8.85 23.75 17.75 52.2 23.15-28.45 50.1-59.1L91.75 151l-1.5 2.75q-1.8 2.85-3.55 2.85-1 0-1.75-.75-.65-.7-.9-1.8l-.55-1.5-.3-.85-15.1-54.5-.1-.7.05-.05" fill="#c7a19b"/><path d="M322.65 202.4q2.8 1.25 5.9 1.35l-3.9 17.5q-14.6 42.65-54.6 59.35l-3.55-.3-8.6.6-4.25.45.05-.2q55.75-17.6 68.95-78.75M119 52.3l3.1 7.45.5 1.25q-7.45-4.25-14.7-9l-3.55-2.35-1.8 1.35-1.25 1-1.7 1.4-2.95 2.4-.85.5-.4-.4-3.05-3.9Q89.4 48.1 86 43.2q-5.35 4.45-10.15 8.8Q57.3 68.65 46.7 83.2q-2.45 3.35-4.45 6.65 4.75.2 8.6 1.05-21.35.6-30.5 11.35l-.15.2-4.4 5.85q-2.05 2.8-3.75 5.9-1.55 2.8-2.7 5.9-1.1 2.85-1.75 5.9-.6 2.95-.75 6-.1 3 .25 6 .4 3.1 1.25 6.1l10.5 40 .8 5.3.1 4.75q0 8.5-2.1 14.25-1.4 3.95-4.6 8.2-3.7 4.9-4.6 6.7-2.1 4.25-2.1 10.05 0 2.8 1.9 7.55 2.05 5.15 6 9.15 15.3 14.1 40.45 15.95l-2.3 11.1q5.85 6.15 16 9.15 1.7-5.15 4.05-9.95l2.1-4.2 18.95 4.1-6.05.1-5.9.05v.05l-.45 3.6-.35 2.85-.35 2.9-.55 3.8q-.2.8.2 1.45.8 1.1 2.15 1.65l.6.15 1.2.4 2.5.8 1.45.4.8.25 3.75.95 3.45.8 1.45.3q-2.8.4-4.8 1.55-1.05.6-3.65 2.7l-1-.25-1.95-.55-2-.7-1.8-.65-1.15-.45-2.4-1.25-1.7-1.15q-2.9-2-2.9-2.7 0-3 .6-5l-2.5 4q-.95 1.25-2.8 1-1.9-.25-7.6-2.25-5.7-2.05-7.95-3.5l-3.9-2.5q-1.65-1.1-2.9-2.4l-1.25-1.45-1.05-1.25q-.4-.4-.4-1.4l-.05-1.05 1.35-4.5q-20-3.65-33-14.15l-1.6-1.4-3.05-3.25-.05-.1-.55-.7q-5.3-7.1-6.4-11.75-1.35-5.55-.8-9.6t1.8-8.1q1.2-4.05 5.2-8.4 4-4.4 6.15-10.65 2.15-6.25 2-11.15-.15-4.9-4.25-19.95-3.7-13.7-4.1-17.9l-.3-.65-2.35-5.85q-2-5.3-2.8-10.95-.85-5.65-.2-11.2.6-5.4 2.6-10.25 2.1-5.3 5.65-10.3 3.55-5.05 7.7-8.5 4.1-3.45 8.75-6.1 4.3-2.45 8.9-4.75l.5-.65 2.75-3.45q13.5-16.65 29.6-31.2 7.8-7 16.2-13.55l.55-.4.5-.4.3-.15 1.35-.3q2.85 0 6.65 5.7 2.25 3.3 3.6 6.35 6.35-5.5 7.85-6.25 1.5-.8 5.35 1.8 3.75 2.45 8.8 7.2l.1.3m28.95 231.25 5.25.65 1.45.2.4.05 4 .55 1.25.2.75.1 17.75 1.95 5.8.4-3.1 2.45-2.7-.3-11.45-1.35-.75-.1-1.25-.2-4-.55-7.95-1h-.2l-5.8-.5-4.3-.2.3 3.4.2 3.05.1 1.5.15 5.2-.15.05-.55-.6-2.2-1.7-.4-.25.3-.75q.05-.95-.45-2.5l-.25-.95-.6-3.05-.05-.55q-.4-2.6-.25-4.55l.05-.45q.8-.75 1.8-.8l5.6.45 1.25.15" fill="#6b4d4c"/><path d="M270.25 10.75q-5-1.55-10.2-2.45L253 7.2l-.4-.05q-16.85-2.2-30.2 2.15-4.6 1.5-10.8 4.7l-.45.25q-4.8 3.75-9.3 7.8-5.7 5.1-10.95 10.65l-.15-2q-8.1-4.75-16.8-.95-4.05 1.7-6.75 5.2 6.35-.25 11.35 2.9l-1.65.05-3.7-.4q-2.75-.2-5.5-.1-5.8.4-11.05 2.8l-1.25.7q-4.5 2.55-6.65 7.25-.9 1.95-.9 3.85-.1 3.2 2.3 6.1 3.7 4.55 9.45 6.55 5.45 1.75 11.15 2.85 5.25 1.25 10.85 1.95l11.15.75 10.95.7q5.45.45 11.15 1.7 5.7 1.2 10.25 4.45 3.4 2.4 3.85 6.15l-.05 2.65q-.75 5.6-3.7 10.1t.65 7.9q3.55 3.35 6.45 4.05 5.65 1.25 11.5-.1 2.7-.8 6.75-1.5l.4-.05 4.05-.6q5.3-.1 10.55.9 4 .7 7.7 2.25l2.85 1.4q5.1 2.8 8.5 7.45 3.25 4.45 5.35 9.6 2.1 5.3 3.05 10.75.7 3.95.85 7.9h-.1l.1.05v3.7q-.1 4.85-1.05 9.55l-.35 1.6v.15l-.9 3.6q-.5.65-.5 1.85v.3q0 3.15 1.5 5.3 1.55 2.2 4 2.2 2.9 0 3.65-3.55.75-3.6 3.6-3.6 2.25 0 3.3 2.65.7 1.65.8 3.9l.35 5.2-.05 1.75q-.3 1.1-1.3 1.6l-1.1-2.9-.15-1.6.05-4.15q-.25-3.05-1.95-3.05-1.25 0-1.5 1.9-.25 1.8-.75 2.6l-.15.2-1.6.7q-2.3.9-4.65.85-2.4-.1-4.3-2.5-1.75-2.15-2.05-4.9l.25-2.9q.3-2.85 1.05-5.65l.15-.6.25-.95q1-4.65 1.05-9.65.05-5.9-.9-11.2-.95-5.3-2.3-8.2l-1.8-3.85q-7-14.05-18.05-16.65l-4.95-.85-6.55-.3-1.35.05-4 .25-4.65.75q-6.7 1.2-9.7 1.25l-2.95-.05-1.4-.05q-3.4-.35-6-1.9l-2.85-2.35q-3.4-3.7-3.2-6.85.2-3.2 2.4-5.5 2.2-2.3 2.8-7.75.15-1.7-.2-3.15-.8-3.25-4.15-5.4-4.95-3.1-13.95-4.4l-6.3-.3-6.15-.3-8.7-.6-8.7-.55-8.75-1.4q-4.2-.85-8.1-2.35-4.35-1.8-8.5-3.8l-3.2 1.35q-4.85 2.15-8.9 4.85l-.1-.05q-9-4.3-17.75-9.25l-.5-1.25-3.1-7.45.15-.05.35-.25q3.85-3.05 7.25-6.65 5.15-5.25 10.45-10.25 4.35-4.15 9-8.35l.5-.4q.6-.35 1.2-.35.7 0 3.75 1.35L155.5 29l6.4 2.45 1.25-1.8q4.8-7.2 13.35-7.95 8-1.1 14.6 2.1 9.15-10.7 22.05-16.6Q229.1-.1 246.9 0q17.1.1 33.4 7.1 16.3 6.95 27.45 22.2 8.1 11.1 12.65 22.7 1.7 4.4 2.9 8.85 3.2 11.75 4.3 22.35l.5 8.05q.2 7.75-.65 17.55l-1.1 9.95q.4 6.45 1.65 10.8 2.4 8.15 9.3 15.05 4.25 4.25 8.75 12.5l1.1 2.1q1.1 2.5 1.9 5.3l.45 1.9q1.05 4.85 1.05 10.55 0 11.65-6 18.95-6 7.25-14.5 7.8l-1.5.05q-3.1-.1-5.9-1.35-2.4-1.05-4.5-2.9-1.6-1.4-3.05-3.2-4.5-5.6-7.25-11.8l.25-.1 5.85 7.1q6.5 7.85 16.45 6.6t13.25-10.8q3.15-9.2 0-20.9l-.2-.85-.35-1.05-1.95-5.3q-3.8-8.6-11-16.15-2.15-2.3-3.9-5l-.85-1.4-.75-1.4-.55-1.1q-3.2-6.7-4.2-15.45.65-4.6.95-9.9.65-11.25-.3-25.6l-.05-1q-1.15-16.35-5.65-27.5L313.7 52l-2.15-4.05-1.85-3.1-4.25-6.85q-2.8-4.35-4.35-6.2l-.45-.5q-4.75-5.35-8.7-8.9-4.5-3.95-9.75-6.65-5.1-2.7-10.7-4.6l-1.25-.4m-6.7 62.1.5 4.95.05 3.1q-.05.85-.55 1.25-1.45.35-2.15-.95l-1.75-3.3 1.3.55q.25-2.65-.2-5.35-.65-4-2.1-7.65l-.6-1.35q-.8-1.75-2.5-2.75-4.8-2.85-8.05 2.25-2.65 4.2-3.8 9.15-.95 3.9-.7 7.95l.15 2q-1 .3-1.35-.85-.35-.95-.4-2.35V79l.05-1.85.1-1.4q.1-1.55.55-3.4l.85-3.55q.95-3.45 3.05-6.45 1.7-2.35 4.3-3.9 1.7-1 3.45-.65 1.85.25 2.8.95l1.85 1.55 1.4 1.55.7 1.05.55 1.1 1.05 2.45q.7 1.8 1.3 5.5l.15.9M194.3 45.4l-.2-.7v-.2l4.65-.7q4.95-2 4.95-3.4 0-.85-1.4-1.45l-.7-.25-.9-.25-2.5-.35-1 .05q-4.15.3-7.9 3.05l-1.2-1.35 1.25-1.3q1.7-1.5 3.05-1.95 1.1-.45 3.55-.65 2.4-.25 4.8 0 2.4.2 4 1.35 1.6 1.1 1.8 2.6.15 1.45-1.3 2.95-1.1 1.15-2.75 2-1.65.85-3.5 1.1l-3.25-.1-.1-.2-.35.1-1-.35m101.3 154.2 2.4-.95 1.2-.35h2.15q1.75.05 3.9 2.2 2.1 2.1 2.25 5.75.1 3.6-2.15 5.8-2.25 2.15-6.95 2.15-2.4 0-4.2-1.5-2-1.7-2-4.45 0-2.85 1.5-6.1.75-1.6 1.9-2.55m7.9 10.9.85-.95q.85-1.45.4-4.3-.45-2.85-2.25-3.8-1.85-.95-2.5-.85h-.05q-.6.15-1.3.55l-.3.2q-.7.3-1.25 1l-.35.45-.45.85q-.8 1.8-.8 3.7 0 2.5 1.15 3.3.95.7 3.5.7 2.15 0 3.35-.85M242 41.95l.1-.15.55-.5.35-.1 1.25-.25q.95-.2 1.85.85.9 1.05.7 2.45-.2 1.4-1.6 4.15-1.45 2.7-3.7 2.7-.85 0-1.4-.8-.5-.75-.5-1.65 0-1.9.7-3.85l.35-.8 1-1.65.35-.4M218.75 30.8l.9-.2q.95 0 1.7.5.75.45.8 1.6.05 1.15-1.35 3.75-1.45 2.6-2.8 2.6-2.55 0-2.55-2.15 0-1.8.9-3.4.4-.75.95-1.4l.8-.8.2-.2.45-.3m-70.15 1.4-23.25 20.9L139 62.45l.1-.1 4.85-3-1.05-3.1q-.7-2.2-.7-4.25-.05-4.2 2.9-7.85 4.65-5.7 11.7-7.4l-8.15-4.6-.05.05" fill="#4e3228"/><path d="m148.6 32.2.05-.05 8.15 4.6q-7.05 1.7-11.7 7.4-2.95 3.65-2.9 7.85 0 2.05.7 4.25l1.05 3.1-4.85 3-.1.1-13.65-9.35 23.25-20.9" fill="#2f1644"/><path d="M201.85 22.05q4.5-4.05 9.3-7.8l.45-.25q6.2-3.2 10.8-4.7 13.35-4.35 30.2-2.15l.4.05 7.05 1.1q5.2.9 10.2 2.45Q272.2 32.3 250 43.5l-2.35-2.4q-2.35-2.25-5.25-.9-4.25 1.95-5.4 6.7-34.4 2.9-35.15-24.85M242 41.95l-.35.4-1 1.65q-.25-.4-.25-1 0-.7.3-.9l1-.2.3.05m7.15 21.4.15-.2.6-.2q.8 0 1.5.95t.7 1.95q0 1-.7 1.75-.75.75-1.8.75-.65 0-1.05-.65t-.4-1.65q0-.7.3-1.6l.35-.75.35-.35m-30.4-32.55-.45.3-.2.2-.8.8q-.55.65-.95 1.4-.35-.45-.35-1.35 0-.75.4-1.3.45-.65 1.1-.65l.75.25.5.35m3.05-2.35q-2.4-1.3-4.8.25-1.95 1.35-2.55 3.7-1.65 3.6-.4 7.15.55 1.55 2.25 1.95 2.6.55 4.6-1.05 3.75-3.05 3.5-7.85-.15-2.85-2.6-4.15m-24.6 9.7 1-.05 2.5.35q-.05.8-.6 1.6l-.2.3-1.1.55-.4.2q-1.4-.05-1.4-1.75l.2-1.2m38.9 50.45q4.55-1.75 8.7.6 1 .6 1.25 1.7 1.15 4.9-2.85 7.6-3.75 2.55-7.6 1.05-1.2-.55-1.75-1.8-1.95-4.65 1.25-8.55l.6-.45.4-.15m-78-47.15q.65-.5 2.2-.9l1.25-.25 4.95-.35q2.3.2 4 2.1 1.65 1.85 1.65 5.2 0 2.7-2.35 4.75l-.2.15Q167.3 54 165 54q-4 0-7.05-1.85l-.25-.15q-2.95-1.9-2.95-4.55 0-2.25 1.55-4.2.7-.95 1.65-1.7l.15-.1" fill="#ffe5a9"/><path d="m270.25 10.75 1.25.4q5.6 1.9 10.7 4.6 5.25 2.7 9.75 6.65 3.95 3.55 8.7 8.9l.45.5q1.55 1.85 4.35 6.2-2.3 7.8-6.6 14-11 15.8-35.3 20.85l-.15-.9q-.6-3.7-1.3-5.5L261.05 64l-.55-1.1-.7-1.05-1.4-1.55-1.85-1.55q-.95-.7-2.8-.95-1.75-.35-3.45.65-2.6 1.55-4.3 3.9-2.1 3-3.05 6.45l-.85 3.55q-.45 1.85-.55 3.4l-.1 1.4-6.85.2q-4.95-.3-9.65-1.85-4.65-1.6-9.15-3.8-4.6-2.3-8.65-5.3l-5.2-4.75-4.6-5.6L194.6 52q-2.25-3.45-4.2-7.1l1.45.6q1.25.5 2.5.4l.95-.15.45.1 3.25.1q1.85-.25 3.5-1.1 1.65-.85 2.75-2 1.45-1.5 1.3-2.95-.2-1.5-1.8-2.6-1.6-1.15-4-1.35-2.4-.25-4.8 0-2.45.2-3.55.65-1.35.45-3.05 1.95l-1.25 1.3q-.45-.85-.5-2l-1.2.1-3.05.25-4-.3-.8-.05q-5-3.15-11.35-2.9 2.7-3.5 6.75-5.2 8.7-3.8 16.8.95l.15 2q5.25-5.55 10.95-10.65Q202.6 49.8 237 46.9q1.15-4.75 5.4-6.7 2.9-1.35 5.25.9l2.35 2.4q22.2-11.2 20.25-32.75M155.4 40.9l1.25-.7q5.25-2.4 11.05-2.8 2.75-.1 5.5.1 5.4 1.45 10.05 5.15 4.9 3.8 3.5 9.35l-.2.7q-2 6.2-8.25 8.85-9.1 3.9-18.6.25-7.65-3.05-8.05-9.8-.15-2.25.5-4.9.9-3.6 3.25-6.2m103.25 24.55q-.35 6.25-1.9 10.2-2.5 6.2-8 6.2l-3.7-.25q-1.1-.25-2.05-.9-.25-4.05.7-7.95 1.15-4.95 3.8-9.15 3.25-5.1 8.05-2.25 1.7 1 2.5 2.75l.6 1.35m-56.35-26.5-2.4 1.4.2-.3q.55-.8.6-1.6l.9.25.7.25m-3.9 2.15-2.6.85-2.6.15q-2.55 0-3.9-.9 3.75-2.75 7.9-3.05l-.2 1.2q0 1.7 1.4 1.75m42.25 2.9-.35.8q-.7 1.95-.7 3.85 0 .9.5 1.65.55.8 1.4.8 2.25 0 3.7-2.7 1.4-2.75 1.6-4.15.2-1.4-.7-2.45-.9-1.05-1.85-.85l-1.25.25-.35.1-.55.5-.1.15-.3-.05-1 .2q-.3.2-.3.9 0 .6.25 1m8.5 19.35-.35.35-.35.75q-.3.9-.3 1.6 0 1 .4 1.65.4.65 1.05.65 1.05 0 1.8-.75.7-.75.7-1.75t-.7-1.95q-.7-.95-1.5-.95l-.6.2-.15.2m-32.8-29.85q-.9 1.6-.9 3.4 0 2.15 2.55 2.15 1.35 0 2.8-2.6 1.4-2.6 1.35-3.75-.05-1.15-.8-1.6-.75-.5-1.7-.5l-.9.2-.5-.35-.75-.25q-.65 0-1.1.65-.4.55-.4 1.3 0 .9.35 1.35m5.45-5.05q2.45 1.3 2.6 4.15.25 4.8-3.5 7.85-2 1.6-4.6 1.05-1.7-.4-2.25-1.95-1.25-3.55.4-7.15.6-2.35 2.55-3.7 2.4-1.55 4.8-.25m16.95 59.05.7-.2.15-.05 1.95-.5 3.7.3q1.9.35 3.6 1.25 1.65.95 2.4 2.45l.95 2.8q.3 1.6 0 3.2l-.7 1.5-1.3 1.5q-1.15 1.35-2.6 2.1l-2 .95q-1.55.6-3.25.8l-3.55.2-3.15-.6q-1.35-.4-2.4-1.25-1.05-.8-1.6-1.95-.6-1.25-.65-2.65-.1-1.35.25-2.65.35-1.3 1.05-2.45.9-1.35 2.1-2.5l.7-.55q-3.2 3.9-1.25 8.55.55 1.25 1.75 1.8 3.85 1.5 7.6-1.05 4-2.7 2.85-7.6-.25-1.1-1.25-1.7-4.15-2.35-8.7-.6l2.65-1.1M158.1 41.45l-.15.1q-.95.75-1.65 1.7-1.55 1.95-1.55 4.2 0 2.65 2.95 4.55l.25.15Q161 54 165 54q2.3 0 4.6-1.85l.2-.15q2.35-2.05 2.35-4.75 0-3.35-1.65-5.2-1.7-1.9-4-2.1l-4.95.35-1.25.25q-1.55.4-2.2.9" fill="#f29e7a"/><path d="m305.45 38 4.25 6.85 1 7.15q.6 5.6.8 11.15.35 8.35-.75 17.25l-.5 2.8q-1.65 7.3-7 13.8-6.4 7.7-15.95 9.65-8.5 1.65-20.35-1.15-11.9-2.85-14.7-1.2-2.45 1.35-1.65 1.85l-.05.15q-4.05.7-6.75 1.5-5.85 1.35-11.5.1-2.9-.7-6.45-4.05-3.6-3.4-.65-7.9t3.7-10.1l.05-2.65q-.45-3.75-3.85-6.15-4.55-3.25-10.25-4.45-5.7-1.25-11.15-1.7l-10.95-.7-11.15-.75q-5.6-.7-10.85-1.95-5.7-1.1-11.15-2.85-5.75-2-9.45-6.55-2.4-2.9-2.3-6.1 0-1.9.9-3.85 2.15-4.7 6.65-7.25-2.35 2.6-3.25 6.2-.65 2.65-.5 4.9.4 6.75 8.05 9.8 9.5 3.65 18.6-.25 6.25-2.65 8.25-8.85l.2-.7q1.4-5.55-3.5-9.35-4.65-3.7-10.05-5.15l3.7.4 2.4.45.3.2.35.3-.65-.5.05-.45 4 .3 3.05-.25 1.2-.1q.05 1.15.5 2-.6.75-.6 1.3l.1.55h.5l.3-.15.7-.2.2-.15q1.35.9 3.9.9l2.6-.15 2.6-.85h.05l1.45-.75 2.4-1.4q1.4.6 1.4 1.45 0 1.4-4.95 3.4l-4.65.7v.2l.2.7.05.5q-1.25.1-2.5-.4l-1.45-.6q1.95 3.65 4.2 7.1l2.75 4.05 4.6 5.6 5.2 4.75q4.05 3 8.65 5.3 4.5 2.2 9.15 3.8 4.7 1.55 9.65 1.85l6.85-.2-.05 1.85v.5q.05 1.4.4 2.35.35 1.15 1.35.85l-.15-2q.95.65 2.05.9l3.7.25q5.5 0 8-6.2 1.55-3.95 1.9-10.2 1.45 3.65 2.1 7.65.45 2.7.2 5.35l-1.3-.55 1.75 3.3q.7 1.3 2.15.95.5-.4.55-1.25l-.05-3.1-.5-4.95q24.3-5.05 35.3-20.85 4.3-6.2 6.6-14m-13 122.95v-.15l.35-1.6q.95-4.7 1.05-9.55v-3.7q3.55.7 5.1 2.25 1.7 1.7 1.7 5t-1.85 5.55l-.4.45q-1.85 1.85-4.55 1.85l-1.4-.1m19.55-2.9q.9-1.85 2.65-2.9 1.7-1.05 5.3-.9 3.55.15 5.7 4.5l.2.45q1.7 3.7 1.9 7.2v.8q0 3.5-1.85 6.7-2.2 3.75-5.55 3.75-5.6 0-7.75-4.05-1.35-2.45-1.6-7.2l-.05-2.4.4-3.1.2-1.1.15-.6.15-.8.15-.35m-12 42.6q1.4 1.3 2.2 3 .85 2 1.15 3.85l.15 3q-1.2.85-3.35.85-2.55 0-3.5-.7-1.15-.8-1.15-3.3 0-1.9.8-3.7l.45-.85.35-.45 1.05-.9.2-.1.3-.2q.7-.4 1.3-.55l.05.05M235.1 89.2l-.7.55q-1.2 1.15-2.1 2.5-.7 1.15-1.05 2.45-.35 1.3-.25 2.65.05 1.4.65 2.65.55 1.15 1.6 1.95 1.05.85 2.4 1.25l3.15.6 3.55-.2q1.7-.2 3.25-.8l2-.95q1.45-.75 2.6-2.1l1.3-1.5.7-1.5q.3-1.6 0-3.2l-.95-2.8q-.75-1.5-2.4-2.45-1.7-.9-3.6-1.25l-3.7-.3-1.95.5-.15.05-.7.2q-1.25.35-2.45.85l-.6.4-.35.15-.25.3" fill="#e46c60"/><path d="m309.7 44.85 1.85 3.1L313.7 52l1.15 2.7q1.7 8.45 2.45 17 .5 5.75.6 11.5l-.15 10.8q-.3 7.1-1.45 14.8l-1.8 9.65q-2.25 10.55 4.95 17.8l4.4 4.15.75.95 3.7 5.25 4.2 6.3q1.85 3.1 3.2 6.3l.6 1.6q1.05 2.75 1.65 5.6l.55 4 .3 5q.15 3.95-.5 8.05-.45 2.65-1.8 4.85l-1.7 2.1q-1.85 1.95-4.5 2.35-4.85.4-9.6-1.65-4.2-1.85-7.55-4.8-2.95-2.55-4.95-5.75l.05-1.75-.35-5.2q-.1-2.25-.8-3.9-1.05-2.65-3.3-2.65-2.85 0-3.6 3.6-.75 3.55-3.65 3.55-2.45 0-4-2.2-1.5-2.15-1.5-5.3l.1-.3.4-1.85.9-3.6 1.4.1q2.7 0 4.55-1.85l.4-.45q1.85-2.25 1.85-5.55t-1.7-5q-1.55-1.55-5.1-2.25v-.05q-.15-3.95-.85-7.9-.95-5.45-3.05-10.75-2.1-5.15-5.35-9.6-3.4-4.65-8.5-7.45l-2.85-1.4q-3.7-1.55-7.7-2.25-5.25-1-10.55-.9l-4.05.6-.35-.1q-.8-.5 1.65-1.85 2.8-1.65 14.7 1.2 11.85 2.8 20.35 1.15 9.55-1.95 15.95-9.65 5.35-6.5 7-13.8l.5-2.8q1.1-8.9.75-17.25-.2-5.55-.8-11.15l-1-7.15m2.3 113.2-.15.35-.15.8-.15.6-.2 1.1-.4 3.1.05 2.4q.25 4.75 1.6 7.2 2.15 4.05 7.75 4.05 3.35 0 5.55-3.75 1.85-3.2 1.85-6.7v-.8q-.2-3.5-1.9-7.2l-.2-.45q-2.15-4.35-5.7-4.5-3.6-.15-5.3.9-1.75 1.05-2.65 2.9m-12 42.55q.65-.1 2.5.85 1.8.95 2.25 3.8.45 2.85-.4 4.3l-.85.95-.15-3q-.3-1.85-1.15-3.85-.8-1.7-2.2-3v-.05" fill="#bd3756"/><path d="M314.85 54.7q4.5 11.15 5.65 27.5l.05 1q.95 14.35.3 25.6-.3 5.3-.95 9.9 1 8.75 4.2 15.45l.55 1.1.75 1.4.85 1.4q1.75 2.7 3.9 5 7.2 7.55 11 16.15l1.95 5.3.35 1.05.2.85q3.15 11.7 0 20.9-3.3 9.55-13.25 10.8t-16.45-6.6l-5.85-7.1-.65-.8-.55-1.45q1-.5 1.3-1.6 2 3.2 4.95 5.75 3.35 2.95 7.55 4.8 4.75 2.05 9.6 1.65 2.65-.4 4.5-2.35l1.7-2.1q1.35-2.2 1.8-4.85.65-4.1.5-8.05l-.3-5-.55-4q-.6-2.85-1.65-5.6l-.6-1.6q-1.35-3.2-3.2-6.3l-4.2-6.3-3.7-5.25-.75-.95-4.4-4.15q-7.2-7.25-4.95-17.8l1.8-9.65q1.15-7.7 1.45-14.8l.15-10.8q-.1-5.75-.6-11.5-.75-8.55-2.45-17" fill="#a5b5d5"/><path d="M307.85 184.5q2.75 6.2 7.25 11.8 1.45 1.8 3.05 3.2-6.8 45.1-64.45 81.65l-1.15.35q-22.95 6.95-52.95 6.7l-15-.55-5.8-.4-17.75-1.95-.75-.1-1.25-.2-4-.55-.4-.05-1.45-.2-5.25-.65 5.25.25q12.75.5 25.6.15l20.8-1.25 11.65-1.2q7.2-.65 14.3-2.25l2.7-.65q48.05-13.1 63.6-53.1-3.6-1.7-6.5-6-3.4-5-3.4-10.45 0-4.8 2.7-9.75l2.7-4.25-2.45-4.65q-2.5-4.9-2.5-10.05 0-2.45.85-9.05l.6-4.9.2-3.2-1.85-4q-3.4-6.9-9-15.4-7.55-11.45-16.35-22.85l-.8-.4-4.1-2-4.3-1.9-5.5.95-9.6.9q-12.95 0-19.7-5.1-2.55-1.95-4.2-4.6-3.5-5.45-3.5-14l.35-4.45.3-2.75q-16.2.9-33.5-4.8-18.65-6.75-22.95-17.35l3.2-1.35q4.15 2 8.5 3.8 3.9 1.5 8.1 2.35l8.75 1.4 8.7.55 8.7.6 6.15.3 6.3.3q9 1.3 13.95 4.4 3.35 2.15 4.15 5.4.35 1.45.2 3.15-.6 5.45-2.8 7.75-2.2 2.3-2.4 5.5-.2 3.15 3.2 6.85l2.85 2.35q2.6 1.55 6 1.9l1.4.05 2.95.05q3-.05 9.7-1.25l4.65-.75 4-.25 1.35-.05 6.55.3 4.95.85q11.05 2.6 18.05 16.65l1.8 3.85q1.35 2.9 2.3 8.2.95 5.3.9 11.2-.05 5-1.05 9.65l-.25.95-.15.6q-.75 2.8-1.05 5.65l-.25 2.9q.3 2.75 2.05 4.9 1.9 2.4 4.3 2.5 2.35.05 4.65-.85l1.6-.7.15-.2q.5-.8.75-2.6.25-1.9 1.5-1.9 1.7 0 1.95 3.05l-.05 4.15.15 1.6q.1 1.5.35 2.35l.2.65.05.1.1.15 1.05 1.35.3.65m-8.65 13.8q.15-.1.35-.15-2.4.1-3.95 1.45-1.15.95-1.9 2.55-1.5 3.25-1.5 6.1 0 2.75 2 4.45 1.8 1.5 4.2 1.5 4.7 0 6.95-2.15 2.25-2.2 2.15-5.8-.15-3.65-2.25-5.75-2.15-2.15-3.9-2.2h-2.15" fill="#b68885"/><path d="M318.15 199.5q2.1 1.85 4.5 2.9-13.2 61.15-68.95 78.75 57.65-36.55 64.45-81.65" fill="#85dbec"/><path d="M122.6 61q8.75 4.95 17.75 9.25l.1.05q4.05-2.7 8.9-4.85 4.3 10.6 22.95 17.35 17.3 5.7 33.5 4.8l-.3 2.75-.35 4.45q0 8.55 3.5 14 1.65 2.65 4.2 4.6 6.75 5.1 19.7 5.1l9.6-.9 5.5-.95 4.3 1.9 4.1 2 .8.4q8.8 11.4 16.35 22.85 5.6 8.5 9 15.4l1.85 4-.2 3.2-.6 4.9q-.85 6.6-.85 9.05 0 5.15 2.5 10.05l2.45 4.65-2.7 4.25q-2.7 4.95-2.7 9.75 0 5.45 3.4 10.45 2.9 4.3 6.5 6-15.55 40-63.6 53.1l-2.7.65q-7.1 1.6-14.3 2.25l-11.65 1.2-20.8 1.25q-12.85.35-25.6-.15l-5.25-.25-.85-.1-.4-.05-5.6-.45q-1 .05-1.8.8l-.05.45q-.15 1.95.25 4.55l.05.55.6 3.05.25.95q.5 1.55.45 2.5l-.3.75q-.2.2-.55.2l-1.25-.05-.8.1-2.3.85q-8.9 2.85-24.25.8l-4.05-.3-3.2-.3h-.05l-3.5-.45-2.65-.55-.55-.15-1.45-.3-3.45-.8-3.75-.95-.8-.25-1.45-.4-2.5-.8-1.2-.4-.6-.15q-1.35-.55-2.15-1.65-.4-.65-.2-1.45l.55-3.8.35-2.9.35-2.85.45-3.6v-.05l5.9-.05-.2 2.85q0 7.65 7 10.15l1.05.35q3.8 1.1 15.1 1.1l16.15-1.1 1.7-.35q9-2.05 9-7l-.35-1.4q-.35-.95-.35-1.55l-.4-.15 4.6.15q14.3 0 37.3-6.05 22.95-6.05 22.85-11.25-.1-5.2-8.65-5.65l-13.6-1.5-12.35-2.05q-7.35-1.05-16.65-3.1-7.25-1.6-12.45-3.35l-1.45-.5-.75-.25-.7-.3q-2.2-.85-5.15-2.3-5.1-2.5-8.85-5.4l-7.1-5.7-6.95-5.85-6.5-5.85q-3-2.95-7.5-5.2-2.6-1.35-5.35-2.05l-2-.45-2.2-.4h-.05q-4.3 0-8.1 1.75-2.75 1.3-9.2 5.75-5.5 3.75-15.8 8.35l-.95.4-.8.25-1.6.5q-6.45 2.15-13.4.2-7.4-2.25-13.25 2.35-2.6 2.1-2.7 5.3-.15 4.4 1.6 8.2l.75 1.45q1.05 2.15 2.7 4 4.4 5.15 12.75 7.9l10.6 2.9q6.4 1.75 10 3.55l.05.2.3.15-.75 2.75q-.7 1.8-.7 2.55 0 5.15 9.5 5.7l8.8-.05q-2.35 4.8-4.05 9.95-10.15-3-16-9.15l2.3-11.1q-25.15-1.85-40.45-15.95-3.95-4-6-9.15-1.9-4.75-1.9-7.55 0-5.8 2.1-10.05.9-1.8 4.6-6.7 3.2-4.25 4.6-8.2 2.1-5.75 2.1-14.25l-.1-4.75-.8-5.3-10.5-40q-.85-3-1.25-6.1-.35-3-.25-6 .15-3.05.75-6 .65-3.05 1.75-5.9 1.15-3.1 2.7-5.9 1.7-3.1 3.75-5.9l4.4-5.85.15-.2Q29.5 91.5 50.85 90.9q-3.85-.85-8.6-1.05 2-3.3 4.45-6.65Q57.3 68.65 75.85 52q4.8-4.35 10.15-8.8 3.4 4.9 6.35 8.8l3.05 3.9.4.4.85-.5 2.95-2.4 1.7-1.4 1.25-1 1.8-1.35L107.9 52q7.25 4.75 14.7 9m-99.45 85.45 1.9-.25.45-.05.45-.05q2.1-.25 6.1 1.35 3.95 1.6 7.35 3.55 2.9 1.6 5.7 3.35 2.9 1.9 5.7 3.95l5.05 3.9 4.4 3.95L64 170l3.8 4.1 5.1 5.05q3 2.7 6.35 4.65 1.85 1.05 3.85 1.9 2.95 1.2 5.95 1.7 3.75.7 7.45-.15l4.8-1.35 2.35-.7q20.85-14.5 38.5-21.05 18.7-7 26.3-9.55 7.55-2.6 13.5-6.7 5.9-4.1 17.15-4.95 8.5-1.65 8.85-11.4.35-9.8-10.15-22.55-10.55-12.75-28.55-20.9-18-8.15-30.35-11.3-12.4-3.2-23.55-4.45-11.15-1.3-22.6.75l-6.1 1.15q-5.25 1.1-4.85 1.95-1.9.9-3.7 1.95l-4 2.4-6.25 3.95-6.5 4.15-5.9 3.4-2.7 1.3-5.1 2-6.5 1.9-3.9 1.4q-3.65 1.45-7.15 3.25-3.15 1.7-6.05 3.85-2.75 2.05-5.1 4.55-2.15 2.25-3.85 4.9-1.6 2.5-2.7 5.25t-1.75 5.65q-.8 3.8-.7 7.85.1 3.6 1.4 6.9.6 1.6 1.8 2.9 2.75 2.85 6.8 3.1l2.4-.2.8-.2" fill="#e2d0bc"/><path d="m135.9 89.55 7.9-8.9q-3.8.5-50.75 34.75l-.05.05L68.5 92.8l-.4.7-.3 1.25v.15l.1 1.15.15.4-.05.05.1.7 15.1 54.5.3.85.55 1.5q.25 1.1.9 1.8.75.75 1.75.75 1.75 0 3.55-2.85l1.5-2.75 44.15-61.45m-49.25-15.3 6.1-1.15q11.45-2.05 22.6-.75 11.15 1.25 23.55 4.45 12.35 3.15 30.35 11.3T197.8 109q10.5 12.75 10.15 22.55-.35 9.75-8.85 11.4-11.25.85-17.15 4.95-5.95 4.1-13.5 6.7-7.6 2.55-26.3 9.55-17.65 6.55-38.5 21.05l-2.35.7-4.8 1.35q-3.7.85-7.45.15-3-.5-5.95-1.7-2-.85-3.85-1.9-3.35-1.95-6.35-4.65l-5.1-5.05L64 170l-3.75-3.85-4.4-3.95-5.05-3.9q-2.8-2.05-5.7-3.95-2.8-1.75-5.7-3.35-3.4-1.95-7.35-3.55-4-1.6-6.1-1.35l-.45.05-.45.05-1.9.25-.8.2-2.4.2q-4.05-.25-6.8-3.1-1.2-1.3-1.8-2.9-1.3-3.3-1.4-6.9-.1-4.05.7-7.85.65-2.9 1.75-5.65 1.1-2.75 2.7-5.25 1.7-2.65 3.85-4.9 2.35-2.5 5.1-4.55 2.9-2.15 6.05-3.85 3.5-1.8 7.15-3.25l3.9-1.4 6.5-1.9 5.1-2 2.7-1.3 5.9-3.4 6.5-4.15 6.25-3.95 4-2.4q1.8-1.05 3.7-1.95 1.65-.8 3.4-1.45l1.45-.5M55.25 265q-3.6-1.8-10-3.55l-10.6-2.9q-8.35-2.75-12.75-7.9-1.65-1.85-2.7-4l-.75-1.45q-1.75-3.8-1.6-8.2.1-3.2 2.7-5.3 5.85-4.6 13.25-2.35 6.95 1.95 13.4-.2l1.6-.5.8-.25.95-.4q10.3-4.6 15.8-8.35 6.45-4.45 9.2-5.75 3.8-1.75 8.1-1.75h.05l2.2.4 2 .45q2.75.7 5.35 2.05 4.5 2.25 7.5 5.2l6.5 5.85 6.95 5.85 7.1 5.7q3.75 2.9 8.85 5.4 2.95 1.45 5.15 2.3l.7.3.75.25 1.45.5q5.2 1.75 12.45 3.35 9.3 2.05 16.65 3.1l12.35 2.05 13.6 1.5q8.55.45 8.65 5.65.1 5.2-22.85 11.25-23 6.05-37.3 6.05l-4.6-.15.4.15q0 .6.35 1.55l.35 1.4q0 4.95-9 7l-1.7.35-16.15 1.1q-11.3 0-15.1-1.1l-1.05-.35q-7-2.5-7-10.15l.2-2.85 6.05-.1-18.95-4.1-2.1 4.2-8.8.05q-9.5-.55-9.5-5.7 0-.75.7-2.55l.75-2.75-.35-.35" fill="#fffeef"/><path d="m184.6 287.65 15 .55q30 .25 52.95-6.7l.15.25.55-.35.4-.05 4.25-.45 8.6-.6 3.55.3q-28.7 12-70.45 10.65l-18.1-1.15 3.1-2.45m-87.2 9.05.55.15 2.65.55 3.5.45h.05l3.2.3 4.05.3q15.35 2.05 24.25-.8l2.3-.85.8-.1 1.25.05q.35 0 .55-.2l.4.25 2.2 1.7.55.6.1.15-.3 1.05q-17.8 4.75-39.4 2.8l-13-1.75-1.25-.25-.9-.15q2.6-2.1 3.65-2.7 2-1.15 4.8-1.55" fill="#611929"/></g><g id="o" fill-rule="evenodd"><path d="m172.5 34.95-2-5.1q-3.05-6.6-10.5-15.95-7.25-9.05-18.7-13.9l6.25.55q16.4 3.35 43.85 25.15l.25.2q2.3.3 6.15-2.6 4.15-3.1 10.9-5.35 6.75-2.3 14.65-3.45l9.25.7q-8.3.85-13.95 3.65-1.1.5-2.05 1.1h-.1V20q-8.3 6.05-20.2 12.1-14.15 7.25-20.8 11.4-15.55 9.9-21.7 14.65-9.5 7.35-15.8 15.35h-.1q1.5-3.85 5.55-8.95 5.4-6.85 17.75-15.55 10.95-7.75 11.8-10.3l.1-.45q.05-1.2-.6-3.3M21.45 38.5l-.25-1.65-.55-2.15-.6-1.65-.2-.35-.1-.25-.65-.9-.35-.85q6.45 5.65 11.85 12.55 5.1 6.5 9.1 13.65 4.1 7.35 6.8 15.4l1 3.25.15.6-.45 1.55-1 3.2-.2-.05-.1-.5-1.55-5.7-2.1-5.55-1.45-3.05-1.55-3.15-1.75-3.15L36 57l-1.55-2.75-1.6-2.65-3.2-5-2.6-3.85q-1.8-2.6-4.35-4l-.35-.05-.9.35v-.55M73 108.55q4.45-3.85 4.45-6.9 0-2.6-2.05-4.25-1.95-1.55-4.65-1.55-1.95 0-4.25.75-2.3.8-3.5 1.95l-.1-.2q0-.45-1.65-1.55-1.5-1.05-2-1.2-3.25-.95-4.4-.95-3 0-4.7 2.25-1.6 2.1-1.6 5.4 0 4.9 4.25 8.9-2.9-1.7-4.65-5.4l-.55-1.3-.45-1.5q-1.25-4.6 1.15-8.7 3.05-5.3 7.85-3.3 4.65 1.9 7 4.95h.05l.05-.1q1.65-1.4 3.95-2.35 2.6-1.05 4.65-1.05 3.9 0 5.5 2.65 1.2 2 1.2 6.05 0 3.25-4.1 6.35L73 108.55"/><path d="m227.65 104.15-5.35 5.8-.2.25-.8 3.95-1.25 4.8q-1.15 3.25-3.25 6.05l-.7-2.45q-.45-1.55-1.3-2.75-1.45-2.1-3.6-3.3-2.65 1.5-6.4 2.9-3.2 1.15-9.1 1.65l-7.3.35q-11.45.15-23.6-5.1-12.2-5.25-19.7-18.6-7.4-13.15-7.1-23.9v-.3q6.3-8 15.8-15.35 6.15-4.75 21.7-14.65 6.65-4.15 20.8-11.4 11.9-6.05 20.2-12.1l.1-.05q6.3.15 14.85 6.55 10.35 7.75 13.2 26.25 2.85 18.45-4.6 32.75-5.35 10.3-12.4 18.65m-50.2-29.6q.05-4.4-3.3-7.65-3.45-3.25-7.85-3.25-4.4 0-6.9 3.05-2.55 3.05-2.4 9.2.15 6.15 6.65 13.3 5.3 5.85 10.7 7.1l-.95-4.75q-.9-4.2-.9-6.35 0-3.35 1.15-6.05 1.3-3 3.7-4.35l.1-.1v-.15M45.5 82.3q-2.05 3.8-5.85 6.25-2.95 1.95-6.3 3.1-7.25 2.45-14.25-.15-6.55-2.35-9.7-8.75v-.45h-.2q-3.05-6.55-2.4-13.65.55-6.45 2.8-12.45l.2.05v-.5l.55-1.4q1.4-3.4 3.3-6.55 3.15-5.2 7.8-9.3v.55l.9-.35.35.05q2.55 1.4 4.35 4l2.6 3.85 3.2 5 1.6 2.65L36 57l1.5 2.75 1.75 3.15 1.55 3.15 1.45 3.05 2.1 5.55 1.55 5.7.1.5-.5 1.45M28.25 58.2q-2.15-2.15-5.15-2.25-2.5-.3-4.55 1.45l-1.4 1.6q-1.05 1.5-1.2 3.1-.1 1.35-.05 2.7l.2 2q.35 1.6 1.3 2.75l3.75 4.65 2.75 3.35.6-4.6q.3-1.9 1.35-3.65l2.3-3.2 2.35-2.45q.15-2.4-1.3-4.4l-.95-1.05m24.55 53q-4.25-4-4.25-8.9 0-3.3 1.6-5.4 1.7-2.25 4.7-2.25 1.15 0 4.4.95.5.15 2 1.2 1.65 1.1 1.65 1.55l.1.2q1.2-1.15 3.5-1.95 2.3-.75 4.25-.75 2.7 0 4.65 1.55 2.05 1.65 2.05 4.25 0 3.05-4.45 6.9l-3.9 2.85q-5.3 3.55-8.3 4.6l-.4.15q-4.8-2.3-7.6-4.95" fill="#240d4e"/><path d="M177.35 74.8q-2.4 1.35-3.7 4.35-1.15 2.7-1.15 6.05 0 2.15.9 6.35l.95 4.75q-5.4-1.25-10.7-7.1-6.5-7.15-6.65-13.3-.15-6.15 2.4-9.2 2.5-3.05 6.9-3.05t7.85 3.25q3.35 3.25 3.3 7.65l-.1.25M28.25 58.2l.95 1.05q1.45 2 1.3 4.4l-2.35 2.45-2.3 3.2q-1.05 1.75-1.35 3.65l-.6 4.6-2.75-3.35-3.75-4.65q-.95-1.15-1.3-2.75l-.2-2q-.05-1.35.05-2.7.15-1.6 1.2-3.1l1.4-1.6q2.05-1.75 4.55-1.45 3 .1 5.15 2.25" fill="#7fe6fa"/><path d="M147.55.55q9-.8 17.3 1.95 10.7 3.4 20.35 9.45 5.6 3.45 10.15 8.2 13.3-6.15 17.05-7.5 9.9-3.7 18.05-3.7 3.2 0 6 1.4 2.65 1.35 4.25 3.6L237.25 16q-2.7 1.55-3.7 2.3 5.6 5.45 8.9 12.7 4.5 9.95 5.8 20.85 1.35 10.85-1.05 21.45-2.5 10.8-9.1 19.65-4.65 6.2-10.45 11.2 7.05-8.35 12.4-18.65 7.45-14.3 4.6-32.75-2.85-18.5-13.2-26.25-8.55-6.4-14.85-6.55.95-.6 2.05-1.1 5.65-2.8 13.95-3.65l-9.25-.7q-7.9 1.15-14.65 3.45-6.75 2.25-10.9 5.35-3.85 2.9-6.15 2.6l-.25-.2Q163.95 3.9 147.55.55m48.15 120.5q-6.1 1.85-16.1 2.7 10 2.8 21.9 2.95-8.15 2.1-16.7 1.55-10.05-.65-19.5-3.85-9.05-2.95-16.35-8.85-7.2-5.85-12.45-13.45-5.05-7.25-7.3-15.8l-1.5.75q-4.6 2.55-8.55 6.1h-1.35l1.3-4.55q3.2-5.65 6.1-9.35 2.85-3.75 9.2-10.3 6.3-6.6 13.6-12.9l12.35-10.45q6.3-5.05 12.15-10.65.65 2.1.6 3.3l-.1.45q-.85 2.55-11.8 10.3-12.35 8.7-17.75 15.55-4.05 5.1-5.55 8.95l-.15.35.25-.05q-.3 10.75 7.1 23.9 7.5 13.35 19.7 18.6 12.15 5.25 23.6 5.1l7.3-.35M45.5 82.3q-1.55 3.95-5.05 6.85-6.85 5.55-15.75 7-8.75 1.65-16.95-1.4-4.4-1.7-7.75-5l9.95.6q-2.15-3.5-3.75-7.1-3.5-7.75-3.3-16.5.15-8.7 4.2-16.25 4.05-7.65 11.5-11.6-1.7-8.2-8.6-13.35l-1.6-1.2q7.95 1.05 13.8 5.25 5.8 4.2 10.4 9.65 4.55 5.45 7.85 12 3.2 6.25 6.3 14.4 3.05 8.15 4.8 9.8 1.7 1.6 2.9 1.9l1.85.1q-.4 1.15-1.85 1.8-1.35.55-3.2.55-.8 0-2.65-1.2l-.45-.3-.5-2.15-.15-.6-1-3.25q-2.7-8.05-6.8-15.4-4-7.15-9.1-13.65-5.4-6.9-11.85-12.55l.35.85.65.9.1.25.2.35.6 1.65.55 2.15.25 1.65q-4.65 4.1-7.8 9.3-1.9 3.15-3.3 6.55l-.55 1.4-.2.45q-2.25 6-2.8 12.45-.65 7.1 2.4 13.65l.2.45q3.15 6.4 9.7 8.75 7 2.6 14.25.15 3.35-1.15 6.3-3.1 3.8-2.45 5.85-6.25" fill="#b68885"/><path d="m9.4 82.75-.2-.45h.2v.45m.2-26.55.2-.45v.5l-.2-.05" fill="#6d4f4c"/><path d="m73 108.55 1.45-1.05q4.1-3.1 4.1-6.35 0-4.05-1.2-6.05-1.6-2.65-5.5-2.65-2.05 0-4.65 1.05-2.3.95-3.95 2.35l.35-.6q2.45-4.05 7.15-5.15 4.15-1.15 7.8 1.25 4.25 2.8 5.1 7.95.8 4.95-2.1 8.8-3.05 4-7.65 6.15-4 1.85-8.2 2.95l-8.2.35q-3.4-2.65-6.2-5.8-2.35-2.65-3.35-5.9l.2-.05q1.75 3.7 4.65 5.4 2.8 2.65 7.6 4.95l.4-.15q3-1.05 8.3-4.6l3.9-2.85" fill="#ba8e8c"/></g><path d="M50.7 0q21 0 35.85 5.05Q101.4 10.1 101.4 17.2q0 7.15-14.85 12.2-14.85 5.05-35.85 5.05-21.05 0-35.9-5.05Q0 24.35 0 17.2q0-7.1 14.8-12.15Q29.65 0 50.7 0" fill-opacity=".349" fill-rule="evenodd" id="c"/></defs></svg>