<svg xmlns:ffdec="https://www.free-decompiler.com/flash" xmlns:xlink="http://www.w3.org/1999/xlink" ffdec:objectType="frame" height="90" width="90" xmlns="http://www.w3.org/2000/svg"><use ffdec:characterId="21" height="78.8" transform="translate(-2.75 8.65)" width="90.8" xlink:href="#a"/><defs><g id="a" transform="translate(2.75 -8.65)"><use ffdec:characterId="1" height="9.8" transform="matrix(.8307 0 0 1.565 31.799 69.932)" width="55.5" xlink:href="#b"/><use ffdec:characterId="2" height="59" transform="translate(33.714 39.508) scale(.3895)" width="35.1" xlink:href="#c"/><use ffdec:characterId="3" height="132.6" transform="translate(2.318 27.473) scale(.3895)" width="217.6" xlink:href="#d"/><use ffdec:characterId="4" height="24.25" transform="translate(28.944 55.937) scale(.3895)" width="25.7" xlink:href="#e"/><use ffdec:characterId="5" height="61.05" transform="translate(35.091 56.219) scale(.3895)" width="26.95" xlink:href="#f"/><use ffdec:characterId="6" height="21.9" transform="translate(38.454 57.584) scale(.3895)" width="14.1" xlink:href="#g"/><use ffdec:characterId="7" height="51.2" transform="translate(41.783 54.428) scale(.3895)" width="77.1" xlink:href="#h"/><use ffdec:characterId="8" height="37.05" transform="translate(69.786 59.044) scale(.3895)" width="26" xlink:href="#i"/><use ffdec:characterId="9" height="12.8" transform="translate(54.098 65.807) scale(.3895)" width="22.6" xlink:href="#j"/><use ffdec:characterId="10" height="51.15" transform="translate(43.863 40.297) scale(.3895)" width="46.45" xlink:href="#k"/><use ffdec:characterId="11" height="29.15" transform="translate(43.2 51.832) scale(.3895)" width="36.25" xlink:href="#l"/><use ffdec:characterId="12" height="64.35" transform="translate(61.223 40.076) scale(.3895)" width="48.45" xlink:href="#m"/><use ffdec:characterId="13" height="47.4" transform="translate(29.902 32.868) scale(.3895)" width="122.7" xlink:href="#n"/><use ffdec:characterId="14" height="91.15" transform="translate(37.862 8.67) scale(.3895)" width="109.95" xlink:href="#o"/><use ffdec:characterId="15" height="29.75" transform="translate(50.738 59.365) scale(.3895)" width="18.8" xlink:href="#p"/><use ffdec:characterId="16" height="84.95" transform="translate(56.946 54.364) scale(.3895)" width="37.55" xlink:href="#q"/></g><g id="c" fill-rule="evenodd"><path d="M-9.4-13.2q.25 1.45 1.5 2.1 1.6.85 4 1.1l4.85.55 1.5.15 8.15.8 4.5-.2 1.8-.5.6-.1.05 1.5h-2l-.5-.05L8.5-8l-6.05-.25h-.2l-5.1-.35-1.4-.15-1.05-.15q-5.15-.65-5.15-3.95v-.5q.1-3.15 1.55-6.45 1.9-4.6 5.85-9.6l1.15-.1h.05L-3-27.8q-2.35 3.4-4.1 7-2.25 4.5-2.35 6.65l.05.95M-6.75.9-5.1.65h.35l4 .45.6.15q1.55.4 3.55 1.25l1.4.65q1.85.85 4 3.9L10 9l.2.35q.75 1.5.75 2.55 0 .85-.65 1.3l-.25-.3-.55-.5q-2.3-2.05-5.3-3.6Q1 7.2-1.65 6.75L-3.5 6.6l-.7.05-1.45.35-1.05.35-1.1.4-.1.05-1.15.55-.35.3-.7-1.1-.35-1.55q0-2.4 1.55-3.9.9-.85 2.15-1.2m5.25 5.65Q.55 7 3.5 8.1q2.65 1 4.1 1.9 1.4.9 2.05 1.95.6 1 .35-1.35l-.35-1.2q-.95-2-4.25-4.5-1.45-1.05-2.7-1.8l-.9-.45Q.25 1.9-1.1 1.7l-1.2-.15h-.2l-2 .15h-.1l-.3.05-1.45.35-.25.05q-1.2.45-1.9 1.15-.8.85-.8 2.15 0 1.25.85 1.9l.8-.5 2.15-.6 1.25-.1h.2l2.55.4" fill="#541036" transform="translate(17.55 29.5)"/><path d="M.95-9.45q-1-1.05-2.3-1.15-4.6-.45-5.8-1-.95-.35-1.2-1.45l-1.05-.15-.05-.95q.1-2.15 2.35-6.65 1.75-3.6 4.1-7l11.5 1.55 8.45 1.15-.1.25-.25 2.5-.15 2.1q0 4.5.25 8.15l.2 2.9-1.8.5-4.5.2-8.15-.8-1.5-.15m.85 12.1.9.45q1.25.75 2.7 1.8 3.3 2.5 4.25 4.5l.35 1.2q.25 2.35-.35 1.35Q9 10.9 7.6 10q-1.45-.9-4.1-1.9Q.55 7-1.5 6.55l.75-2q.3-.85.5-.85l.65.15q.65 0 1-.35.4-.3.4-.8v-.05" fill="#945119" transform="translate(17.55 29.5)"/><path d="M.95-9.45-3.9-10q-2.4-.25-4-1.1-1.25-.65-1.5-2.1l1.05.15q.25 1.1 1.2 1.45 1.2.55 5.8 1 1.3.1 2.3 1.15" fill="#e4a222" transform="translate(17.55 29.5)"/><path d="m-4.25-8.75 1.4.15-.55.8-.25.45-.7 1.45-.35 1q-.55 2.2-.55 4.05l.15 1.5-1.65.25-.3-.9-.05-1.45q0-2.1.8-4.2l.05-.1q.55-1.45 1.4-2.4l.6-.6m19.3.9.5.05.1.5.1 1.5L14.3.5l-1.5 4.45-1.85 3.15-.75 1.25L10 9q.95-1.25 2.65-6.05 2.2-6.45 2.4-10.8m-5 20.75-.45.65q-2.85 3.6-8.65 9.2-4.55 4.4-6.95 6l-.15.15-.3.15-.8.45q-.2-.15-.3-.2l.4-.35.25-.15q3.05-2.15 7.6-6.6 5.55-5.45 8.8-9.8l.55.5M-15.75 27l-.05.05-.25.65-.9-.65q-.4-.55-.6-1.45l5.2-10.15 2-4.05L-9.3 9l.15-.3.1-.35 1.15-.55-.5 1.05-1 2.2L-15.75 27" fill="#683a30" transform="translate(17.55 29.5)"/><path d="m-4.35-5.9.7-1.45.25-.45 2.65.4 3.6.5L4.1-5.3q1.15 1.4 2.05 1.2v.6Q5.75-1 4.65.85L3.4 2.5q-2-.85-3.55-1.25l-.6-.15q2-3.2 2-3.95 0-.8-1-1.75Q-1.2-5.95-3.9-5.95l-.45.05" fill="#e3a38b" transform="translate(17.55 29.5)"/><path d="m-5.1.65-.15-1.5q0-1.85.55-4.05l.35-1 .45-.05q2.7 0 4.15 1.35 1 .95 1 1.75 0 .75-2 3.95l-4-.45h-.35m-6.6 28.2-1.35-.35-1.75-.8-.95-.7 6.35-15.95 1.9-.2q2 0 2.85.95.75.85.75 2.75 0 4-2.3 7.75-1.8 2.9-5.5 6.55" fill="#fbf8d8" transform="translate(17.55 29.5)"/><path d="m-2.85-8.6 5.1.35h.2L8.5-8l6.55.15q-.2 4.35-2.4 10.8Q10.95 7.75 10 9L8.8 7.05Q6.65 4 4.8 3.15L3.4 2.5 4.65.85Q5.75-1 6.15-3.5v-.6q-.9.2-2.05-1.2L2.85-6.9l-3.6-.5-2.65-.4.55-.8M-6.9 28.8l-.5-.05-.65.1q2.65-2.5 5.1-5.6 5.7-7.05 5.7-11.6 0-1.6-2.55-2.4-2.1-.7-5-.7l-3.6.3.5-1.05.1-.05 1.1-.4L-5.65 7l1.45-.35.7-.05 1.85.15Q1 7.2 4.2 8.8q3 1.55 5.3 3.6-3.25 4.35-8.8 9.8-4.55 4.45-7.6 6.6" fill="#8c694a" transform="translate(17.55 29.5)"/><path d="m-1.5 6.55-2.55-.4.45-1.45 1.1-3.15h.2l1.2.15q1.35.2 2.9.95v.05q0 .5-.4.8-.35.35-1 .35l-.65-.15q-.2 0-.5.85l-.75 2m-4-.3-2.15.6.05-.75q0-1.35-.4-2.1l-.5-.7q.7-.7 1.9-1.15l.25-.05 1.45-.35.3-.05-.65 3.25-.25 1.3" fill="#e3a025" transform="translate(17.55 29.5)"/><path d="M-4.05 6.15h-.2l-1.25.1.25-1.3.65-3.25h.1l2-.15-1.1 3.15-.45 1.45" fill="#fff" transform="translate(17.55 29.5)"/><path d="m-8.05 28.85-2.1.1-1.35-.05-.2-.05Q-8 25.2-6.2 22.3q2.3-3.75 2.3-7.75 0-1.9-.75-2.75-.85-.95-2.85-.95l-1.9.2 1-2.2 3.6-.3q2.9 0 5 .7 2.55.8 2.55 2.4 0 4.55-5.7 11.6-2.45 3.1-5.1 5.6" fill="#dc9995" transform="translate(17.55 29.5)"/><path d="m-7.65 6.85-.8.5q-.85-.65-.85-1.9 0-1.3.8-2.15l.5.7q.4.75.4 2.1l-.05.75" fill="#c57575" transform="translate(17.55 29.5)"/></g><g id="d" fill-rule="evenodd"><path d="m32.1-21.6-1.35 1.9-55.9 33.5-.4-.75L32.1-21.6" fill="#736073" transform="translate(108.8 66.3)"/><path d="m-25.15 13.8 55.9-33.5 1.35-1.9 24.5-14.65L54.9-33l-78.7 49.15-1.35-2.35" fill="#612c87" transform="translate(108.8 66.3)"/><path d="m-25.55 13.05.4.75 1.35 2.35L54.9-33l1.7-3.25L80.1-50.4l.65-.05 1.15.4.45 1.2-.05.35-.25.55L47.6-26 2.65 2.4l-6.7 4.3-20.35 12.55-.2.7-8.25 5.25q-.5-1.7-1.5-3.8l-1.05-1.8-.3-.45 10.15-6.1" fill="#1d0f1c" transform="translate(108.8 66.3)"/><path d="m32.1-21.6-57.65 34.65-10.15 6.1-.4-.5-.25-.3L78.6-50.35l.65-.4q.3-.1.8-.35l.1-.05.1-.05h.05l.65-.05.55.05q1.8.25 1.8 2.3l-.15.7-.15.55-.15.5-.15.1-.9.55-.05.05-114.3 73.05-.3-1.4 8.25-5.25L-4.05 6.7l6.7-4.3L47.6-26l34.45-21.95.25-.55.05-.35-.45-1.2-1.15-.4-.65.05-23.5 14.15L32.1-21.6" fill="#1c0f1b" transform="translate(108.8 66.3)"/><path d="M87.95-55.1q1.2 0 2 .7l.05.05.15.15.3.4.25 1.1-.15.8-.95 1.6q-.95 1.15-1.65 1.35l.15.45q0 1.4-1.8 2.15-1.4.55-3.15.55-.2 0-.7-.3l-.1-.05q-.35-.2-.55-.35l.9-.55.3.15.8.25q1.3 0 2.05-.9.8-.85.8-2.2 0-1.45-.9-2.5-1-1.15-2.45-1.15-.95 0-1.8.55l-.2.1q-.95.7-1 1.55h-.05l-.1.05-.1.05q-.5.25-.8.35l-.65.4q.2-1.7 1.4-2.8l.25-.15q1.1-.9 2.65-.9l1 .15.75.5q.05-.65 1.2-1.15l.3-.05 1.8-.35m1.55 1.5-.45-.35q-.55-.4-1.25-.4l-1.5.45h-.05l-.8.4 1.45 1.65.75 1.4q.85 0 1.55-1 .55-.85.55-1.4l-.25-.75M-32.85 25.2l.3 1.4.05 1.15q0 1.4-1.05 2.65-1.05 1.2-2.3 1.2l-.75-.1-.4-.1-.2-.35-.45-1-.1-.15-.2-.4-1.9-3.7-.95-1.6-.45-.65-1.4-1.65-.55-.55-.1-.1-.75-.65q.25-1.9 1.65-2.85 1.3-.85 3.05-.85 1.55 0 3 1.45l.25.3.4.5.3.45 1.05 1.8q1 2.1 1.5 3.8m-4.45-6.25q-1.2-.85-2.7-.85-1.05 0-1.85.6-.85.65-1.2 1.9l.85.75 1 1 .65.85.6.9 1.1 1.85q.95 1.8 1.45 3.25l.25.7.05.2.8.15q1.35 0 2-.95.5-.75.6-1.85v-.25q0-2.1-1.15-4.8l-.7-1.5-.8-1.1-.95-.85" fill="#470a0c" transform="translate(108.8 66.3)"/><path d="m90-54.35-.05-.05q-.8-.7-2-.7 5.55-4.3 6.5-11.2.8 5.5-4.45 11.95m.55 2.45.15-.8-.25-1.1q11.45-2.55 18.35 2.7-8.65-4.1-18.25-.8" fill="#461354" transform="translate(108.8 66.3)"/><path d="M81.5-52.85q.85-.55 1.8-.55 1.45 0 2.45 1.15.9 1.05.9 2.5 0 1.35-.8 2.2-.75.9-2.05.9l-.8-.25-.3-.15.15-.1.15-.5.15-.55h.55q1.15 0 1.55-.35.3-.35.3-1.2 0-1.35-1.4-2.2l-1.9-.65-.75-.25m4.75-1.05.65.7q.65.45 1.1.45l1.15-.6.35-.25.25.75q0 .55-.55 1.4-.7 1-1.55 1l-.75-1.4-1.45-1.65.8-.4m-121.8 74.8.7 1.5q1.15 2.7 1.15 4.8v.25l-1.1 1.6q-.8.9-1.85.9l-.5-.05-.25-.7.6-.7q.25-.55.25-2.1 0-1.25-.45-2.15l-.8-1.35.15-.1q1.6-1.15 2.1-1.9" fill="#945119" transform="translate(108.8 66.3)"/><path d="M80.3-51.2q.05-.85 1-1.55l.2-.1.75.25 1.9.65q1.4.85 1.4 2.2 0 .85-.3 1.2-.4.35-1.55.35h-.55l.15-.7q0-2.05-1.8-2.3l-.55-.05-.65.05m9.2-2.4-.35.25-1.15.6q-.45 0-1.1-.45l-.65-.7h.05l1.5-.45q.7 0 1.25.4l.45.35" fill="#e4a222" transform="translate(108.8 66.3)"/><path d="M-4.05 6.7-24.6 19.95l.2-.7L-4.05 6.7M-33.7 27.45q-.1 1.1-.6 1.85-.65.95-2 .95l-.8-.15-.05-.2.5.05q1.05 0 1.85-.9l1.1-1.6" fill="#c3f4a0" transform="translate(108.8 66.3)"/><path d="m-41.25 23.55.45.65.95 1.6 1.9 3.7-1.9 4-4 .95 1.15 5-1.45 2.65q-2.1-1.55-4.75-2.75L-52.4 38l.25-.05.05-.05.05-.05q6.1-5.65 7.85-12.8V25l2.95-1.45m-.65 14.75.55.2q1.9.6 2.8.6 1.8 0 3.85-1.8l3.3-3.25.55-.25-5.35 7.1-5.2-1.25-.5-1.35m-11.4-14.35 1.6-4.05.3-.85.15-.35.25-.4 2.15-.95.75-.25-1.65 1.5-.45 3.15-2.95 2.25-.15-.05M-97.05 58.3h.2q6.65.65 13.35-1.1h.1l.1-.15q5.6-9.25 20.05-15.3h.05l1.5-.6 5.1.95 5.9 1.25-10.9 5.5-.5.25-8.2.45q-5.6.75-6.05 2.65-1.35.6-1.35 1.75 0 1 1.85 1.9l-5.1 3.25-4.6 3.25-.15.05-.25.05-9.3.9-9 .6 4.55-3.6 2.65-2.05" fill="#83868a" transform="translate(108.8 66.3)"/><path d="m-37.2 31.05-.75 2.1 1.6.65.7.2.35.05.25-.1 3.15-.95 2.05-.6 1.1-.35q-1.55 3.1-3.55 6-1.8 2.65-3.4 4.25l-6.05-1.4-.1.05-1.15 2.1-.2.35q-5.05 1.6-9.35 3.6-5.2 2.4-7.8 3.75l-3.5 1.8-3.75-.3-4.95.4q-2.6.4-2.9.95l-.1.1q0 .7 1.35 1.2l2 .55 3 .4-11.05 7.05q-14 4.4-28.15 3.1l-.4-.05q2.1-4 6.6-9.85 4.9-6.3 9.75-11.15l.9-.35 3.25-1.5 2.4-1.15.15 1.4q.25.5.9.55h.05q1.45 0 3.35-2.55l1.6-2.2.1-.25q6.1-3.55 11.5-8.1l4.15-3.75 3.3-3.4.2-.15 3.1-.85 2.3-6.15 11.55-2.2-5.05 5.85v.55l4.65-.1.75.65.1.1-6.85.85-2.95 2.45-.55-.2-2.15-.9-4.2.9-1.95 2.2-2.8 2.65-1.9 1.65-2.25 1.85-5.35 4.1q-3.45 2.55-4.65 2.8l-1.9 3.15q-1.8 2.15-4.25 2.4l-.75.05-.75-.35-.4-.7v-.2l-4.5 2.1-.15.15q-5.35 4.7-10.15 10.95-3.45 4.5-4.85 7.15l-.35.6q14.5-.1 25.95-3.65l7.25-4.7q-.95-.2-2.1-.75l-.1-.05q-1.85-.9-1.85-1.9 0-1.15 1.35-1.75.75-.4 1.9-.55l4.7-.65 2.65.1 1.8.1 1.7-.05q9.3-5.5 18.8-8.25l.25-.05.4-.75 1.45-2.65-1.15-5 4-.95 1.9-4 .2.4.1.15.45 1m-5.1 6.3.4.95.5 1.35 5.2 1.25 5.35-7.1-.55.25-3.7 1.35-3.85-1.45-3.5.8-.8.2.95 2.4m-12.75-14.1 1.75.7.15.05 2.95-2.25.45-3.15 1.65-1.5 1.1-1-7.25 1.65L-56 22.9l.95.35m-36.25 25.6 1.6-1.6.1-.1h.05L-85 46q8.15-2.45 14.7-7.35l3.95-3.3.25-.25q3.45-3.25 6.35-7.3l.35-.5.05-.1.1-.05q7.8-3 14.75-2.5l.35.05-.05.3v.05q-1.75 7.15-7.85 12.8l-.05.05-.05.05-.25.05q-4.9 1.4-9.1 3.05l-.2.1-1.5.6h-.05Q-77.7 47.8-83.3 57.05l-.1.15h-.1q-6.7 1.75-13.35 1.1h-.4l.15-.4.2-.6q1.85-4.5 5.6-8.45m46.35-23.6q-6.6-.4-14 2.45l-.8 1.1q-4.65 6.3-10.55 10.65-6.6 4.8-14.8 7.25l-4.2 1.05-1.9 1.95-.15.2q-3 3.25-4.65 6.9l-.4.9v.05h.1q6.25.5 12.55-1.1 5.7-9.4 20.4-15.5l.3-.15.15-.05 1.05-.4h.05l8.45-2.9.9-.25q5.75-5.35 7.5-12.05l.05-.1h-.05" fill="#595b5d" transform="translate(108.8 66.3)"/><path d="m-43.2 21.35.55.55 1.4 1.65L-44.2 25l.05-.3-.35-.05q-6.95-.5-14.75 2.5l-.1.05-.05.1-.35.5-.15-3.35 4.2-.9 2.15.9.55.2 2.95-2.45 6.85-.85m.9 16 2.85-.05 2.95-.25 1.6-.9h-.25l-2 .2-2.8-.5-2.5-1.1 3.5-.8 3.85 1.45 3.7-1.35-3.3 3.25q-2.05 1.8-3.85 1.8-.9 0-2.8-.6l-.55-.2-.4-.95m-9.1-18.3-.3.85-1.6 4.05-1.75-.7 1.9-2.25 1.75-1.95M-91.5 46.3l.15-.15 4.5-2.1v.2l.4.7.75.35.75-.05-.05.75-4.55 1.15h-.05l-.1.1-1.6 1.6-.2-2.55m22.7-13.5 2.25-1.85 1.9-1.65-1.45 5.8-.25.25-3.95 3.3 1.5-5.85m-28.1 24.5-.2.6-.15.4h.2l-2.65 2.05-4.55 3.6 9-.6 9.3-.9.25-.05.15-.05 4.6-3.25 5.1-3.25.1.05q1.15.55 2.1.75l-7.25 4.7Q-92.35 64.9-106.85 65l.35-.6 3.5-2.9q2.9-2.25 6.1-4.2m35.2-16.15.2-.1q4.2-1.65 9.1-3.05l3.5 1.35q2.65 1.2 4.75 2.75l-.4.75-.25.05q-9.5 2.75-18.8 8.25l-1.7.05-1.8-.1-2.65-.1-4.7.65q-1.15.15-1.9.55.45-1.9 6.05-2.65l8.2-.45.5-.25 10.9-5.5-5.9-1.25-5.1-.95M-96.4 57.7l.4-.9q1.65-3.65 4.65-6.9l.15-.2 1.9-1.95 4.2-1.05q8.2-2.45 14.8-7.25 5.9-4.35 10.55-10.65l.8-1.1q7.4-2.85 14-2.45v.1q-1.75 6.7-7.5 12.05l-.9.25-8.45 2.9-.05-.15-.05-.85q0-2.05 1.45-3.55 1-1 2.25-1.45l.55.35 1.5.45q2.4 0 4-1.45 1.65-1.5 1.65-3.8 0-.9-.9-1.85-.7-.7-1.4-.95l.4.55.4 1.15q0 1.55-.95 2.65Q-54 33-55.95 33l-1.25-.2q-.85-.4-.85-1.2 0-1.9 1.45-2.9l-.25-.05q-1.05 0-1.8 1.3-.6 1.1-.6 2.1l.05.5-.1.05q-.9.45-2.4 2.1-1.85 2.1-1.9 3.35l-.5-.2-.65-.1q-2.4 0-4.15 1.25-1.8 1.2-5.8 5.45-4.05 4.3-11.2 4.15l-1.25-.1q-1.75 0-3.35 1.55-1.8 1.7-1.8 4.1 0 1.4.7 2.35.7.95 2 .95 2 0 3.5-1.15 1.6-1.25 1.6-3 0-.8-.45-1.6-.5-.95-1.2-.95t-1.25.4l-.6.6.5-.1q1.65 0 1.65 1.65 0 1.1-.65 1.85-.75.7-1.95.7-.9 0-1.5-.6-.7-.7-.7-1.85 0-1.8 1.5-2.9 1.15-.85 2.45-.85l1.6.15 1.55.1q3.4 0 6.25-1.95 1.75-1.2 4.55-4.2 2.65-2.95 4.1-3.85 2.35-1.45 5.05-.9l.1 1.1.15 1.05q-14.7 6.1-20.4 15.5-6.3 1.6-12.55 1.1l-.1-.05m43.1-27.45q0-.95-1-.95l-.75.05-.1.05-.35.15-.25.25h-.05l-.45.9.25.9.75.25q.7 0 1.35-.55.6-.5.6-1.05" fill="#e9e5df" transform="translate(108.8 66.3)"/><path d="m-37.3 18.95.95.85-1.7.65q-2.25 1.05-3.15 1.9l-1-1q.75-.8 2.65-1.6 1.3-.6 2.25-.8m-5.15 15.8 2.5 1.1 2.8.5 2-.2h.25l-1.6.9-2.95.25-2.85.05-.95-2.4.8-.2m-8.95-15.7L-53.15 21l-1.9 2.25-.95-.35 1.75-5.15L-47 16.1l-1.1 1-.75.25-2.15.95-.25.4-.15.35m-33.55 26.2q2.45-.25 4.25-2.4l1.9-3.15q1.2-.25 4.65-2.8l5.35-4.1-1.5 5.85Q-76.85 43.55-85 46l.05-.75m20.3-15.95 2.8-2.65 1.95-2.2.15 3.35q-2.9 4.05-6.35 7.3l1.45-5.8M-91.3 48.85q-3.75 3.95-5.6 8.45-3.2 1.95-6.1 4.2l-3.5 2.9q1.4-2.65 4.85-7.15Q-96.85 51-91.5 46.3l.2 2.55" fill="#fff" transform="translate(108.8 66.3)"/><path d="m-61.85 40.55-1.05.4-.15.05-.3.15-.15-1.05-.1-1.1q-2.7-.55-5.05.9-1.45.9-4.1 3.85-2.8 3-4.55 4.2-2.85 1.95-6.25 1.95l-1.55-.1-1.6-.15q-1.3 0-2.45.85-1.5 1.1-1.5 2.9 0 1.15.7 1.85.6.6 1.5.6 1.2 0 1.95-.7.65-.75.65-1.85 0-1.65-1.65-1.65l-.5.1.6-.6q.55-.4 1.25-.4t1.2.95q.45.8.45 1.6 0 1.75-1.6 3-1.5 1.15-3.5 1.15-1.3 0-2-.95t-.7-2.35q0-2.4 1.8-4.1 1.6-1.55 3.35-1.55l1.25.1q7.15.15 11.2-4.15 4-4.25 5.8-5.45 1.75-1.25 4.15-1.25l.65.1.5.2q.05-1.25 1.9-3.35 1.5-1.65 2.4-2.1l.1-.05-.05-.5q0-1 .6-2.1.75-1.3 1.8-1.3l.25.05q-1.45 1-1.45 2.9 0 .8.85 1.2l1.25.2q1.95 0 3-1.35.95-1.1.95-2.65l-.4-1.15-.4-.55q.7.25 1.4.95.9.95.9 1.85 0 2.3-1.65 3.8-1.6 1.45-4 1.45l-1.5-.45-.55-.35q-1.25.45-2.25 1.45-1.45 1.5-1.45 3.55l.05.85v.15m8.55-10.3q0 .55-.6 1.05-.65.55-1.35.55l-.75-.25-.25-.9.45-.9h.05l.25-.25.35-.15.1-.05.75-.05q1 0 1 .95" fill="#fb9ee3" transform="translate(108.8 66.3)"/><path d="m-42.2 21.35-.85-.75q.35-1.25 1.2-1.9.8-.6 1.85-.6 1.5 0 2.7.85-.95.2-2.25.8-1.9.8-2.65 1.6m4.8 7.85q-.5-1.45-1.45-3.25l-1.1-1.85 2.15-1.2.8 1.35q.45.9.45 2.15 0 1.55-.25 2.1l-.6.7" fill="#dd9834" transform="translate(108.8 66.3)"/><path d="m-36.35 19.8.8 1.1q-.5.75-2.1 1.9l-.15.1-2.15 1.2-.6-.9-.65-.85q.9-.85 3.15-1.9l1.7-.65" fill="#fde46b" transform="translate(108.8 66.3)"/></g><g id="e" fill-rule="evenodd"><path d="M9.65-1.9q1.35-.15 2.25.65.95.85.95 2.45 0 1.7-.55 3.6-.8 2.6-2.35 3.05l-.6.05-1.95-.15q-.6-.2-1.25-.75-.25 1.45-3 3.25-2.8 1.9-4.2 1.9-1.85 0-3-.9-1.4-1.15-1.4-3.6L-5 5.7q.45-1.7.4-2.2-.15-1.4 1.1-2.4Q-2.35.15-.9.4l-.1.05-.85 1.1q-.6.1-1.1.5-.85.65-.85 1.5l-.4 2.05-.35 1.5-.05.8q0 1.25 1.1 2.05l1.65.65h.4q1.6 0 3.95-1.9 2.4-1.95 2.4-3.3l-.25-1.65-.45-.95-.4-1.55.5.2.3.2.2.2.05.3V2.1l-.05-.25q-.05-.2.05-.5l.2-.45.6-.8-.1 1.2-.45.7-.1.8v.1l.3 1.35q.3 1.3.55 1.45Q7.7 6.95 9.1 6.95q.8 0 1.4-.55.8-.75 1.3-2.55.5-1.85.5-3.65 0-.65-1-1.15l-1.2-.4-.1-.15-.35-.4M-3.7-9.5q0-.5-.4-1-.5-.5-.95-.5L-7.3-9.75-9.55-8.2q-.6.4-1 1.3l-.15.35-.45 1.95q0 .8.4 1.5l1.35 1.55Q-7.85-.3-6.85-.3l1.95-.1q.5 0 .9-.8l.25-.55.8-.15-.6 1.3Q-4.2.5-5.3.5h-1.35L-7.6.4l-.7-.35-1.65-.75-.35-.1-2.55-3.3q-.05-1.85 1.35-3.6l1.7-1.75q3.1-2.65 5.05-2.65 1.15 0 2.1 1.35l.9 1.95-1.9-.65-.05-.05" fill="#683a30" transform="translate(12.85 12.1)"/><path d="m10.1-1.35 1.2.4q1 .5 1 1.15 0 1.8-.5 3.65-.5 1.8-1.3 2.55l.25-1.4-.1-1.3v-.1l.05-.25.25-3.35v-.25l-.15-.2-.7-.9M4.2 2.8l.45.95.25 1.65q0 1.35-2.4 3.3-2.35 1.9-3.95 1.9h-.4L-.8 9.05l.3.05Q.05 9 2.2 6.95 4.4 4.8 4.4 4.3l-.2-1.5M-8.4-4.45l1.6 1.35 1.75 1.5h.2l1.1-.15-.25.55q-.4.8-.9.8l-1.95.1q-1 0-2.55-1.25l-1.35-1.55h.45q.55 0 1.45-.9l.45-.45" fill="#ab5b4a" transform="translate(12.85 12.1)"/><path d="m9.65-1.9.35.4.1.15.7.9.15.2V0l-.25 3.35-.05.25q-.35 1.35-.95 1.35l-1.8-.8L7.6 4l-.2-.1h-.05q-1.9-1.1-1.9-1.7l.1-.9.1-1.2.35-4 .15-1.8L9.2-2.45l.45.55M3.8 1.25l.4 1.55.2 1.5q0 .5-2.2 2.65Q.05 9-.5 9.1l-.3-.05q-.8-.2-1.3-1.4l-.05-.05Q-2.8 6-2.8 2.8l.95-1.25.85-1.1.1-.05.05-.1L1.7-2.75l.25-.3q.5.4 1.45 3.1l.35 1.1.05.1M-7-7.6l1.95-2 .35-.05 1 .15.05.05 1.9.65h.15L.8-7.6l1.25.7.3.2q1.1.8 1.2 1.3v.1q0 .95-3.5 2.35l-3 1.05-.8.15-1.1.15h-.2L-6.8-3.1l-1.6-1.35-.9-.7L-8-6.6l1-1m8.05 1.5-2.4-1.5q-2.35-1.3-2.9-1.3-.75 0-1.6.65l-.95.95-.95 1.15-.35.9v.2l.05.05v.15l.25.1.45.3L-4.5-2.6q1.6 0 6.7-2.3l-.3-.45-.85-.75m.8 3.85v-.05l-.05.05-3 3.6-.15.25q-.8 1.05-.8 2.15v.3l.3 3.3q.4 1.5 1.2 1.5l.3-.1.95-.8 1.7-2L3.05 5q.5-.7.5-1.2L3.4 2.45l-.1-.55-.1-.5-.25-.85-1.1-2.8M10.4 2.4l.05-1.6q0-1.2-1.75-3.05l-.2-.25-.4-.35-1.65-1.7v.9l-.3 5.45q0 .5 1.7 1.5l.05.05.1.1 1.7.9q.5 0 .7-1.75v-.2" fill="#5e5153" transform="translate(12.85 12.1)"/><path d="M5 2.9v-.1l.1-.8.45-.7-.1.9q0 .6 1.9 1.7l-.4.15q-.8 0-1.55-.7L5 2.9m-9.55 4.2.35-1.5.4-2.05q0-.85.85-1.5.5-.4 1.1-.5L-2.8 2.8q0 3.2.65 4.8l.05.05-1 .65q-.7 0-1.2-.7l-.25-.5m.85-16.6-1-.15-.35.05-1.95 2-.45.15q-1.35.55-2.35.55h-.75q.4-.9 1-1.3l2.25-1.55L-5.05-11q.45 0 .95.5.4.5.4 1" fill="#ffffd7" transform="translate(12.85 12.1)"/><path d="M10.5 6.4q-.6.55-1.4.55-1.4 0-3.25-1.25-.25-.15-.55-1.45L5 2.9l.4.45q.75.7 1.55.7l.4-.15h.05l.2.1.3.15 1.8.8q.6 0 .95-1.35v.1l.1 1.3-.25 1.4m-12.35 4.2-1.65-.65q-1.1-.8-1.1-2.05l.05-.8.25.5q.5.7 1.2.7l1-.65q.5 1.2 1.3 1.4l-1.05 1.55m-8.7-17.5h.75q1 0 2.35-.55L-7-7.6l-1 1-1.3 1.45.9.7-.45.45q-.9.9-1.45.9h-.45q-.4-.7-.4-1.5l.45-1.95.15-.35" fill="#e3a38b" transform="translate(12.85 12.1)"/><path d="m-7.75-6.15.95-1.15.95-.95q.85-.65 1.6-.65.55 0 2.9 1.3l2.4 1.5-.45.25-1.5.15-3.6-.25-2.35.1-.8-.15-.1-.15m9.55 3.9L.6 1.9-.75 6.25l-.9-1.15-.5-1.05v-.3q0-1.1.8-2.15l.15-.25 3-3.6M8 3.45l-.1-.1-.05-.05q-1.7-1-1.7-1.5l.3-5.45q.6.65 1.15 2.8l.5 3-.1 1.3" fill="#fff" transform="translate(12.85 12.1)"/><path d="m-7.75-6.15.1.15.8.15 2.35-.1 3.6.25 1.5-.15.45-.25.85.75-1.6.05-2.85.25H-5.6q-1.45.05-1.75.6l-.45-.3-.25-.1-.05-.2v-.2l.35-.9m9.55 3.9h.05l1.1 2.8.25.85-.3-.55-.6-.8q.15 1.1-1.3 5.2l-1.35 3.5-.3.1q-.8 0-1.2-1.5l-.3-3.3.5 1.05.9 1.15L.6 1.9l1.2-4.15m6.3-.6-.75-.4Q8.2-2.3 8.95.2l.7 3.05.75-.85v.2q-.2 1.75-.7 1.75L8 3.45l.1-1.3-.5-3Q7.05-3 6.45-3.65v-.9l1.65 1.7m-.75-.4-.1-.15v.1l.1.05" fill="#edded6" transform="translate(12.85 12.1)"/><path d="m1.9-5.35.3.45q-5.1 2.3-6.7 2.3l-2.85-1.85q.3-.55 1.75-.6h3.05L.3-5.3l1.6-.05M-.35 8.75 1 5.25q1.45-4.1 1.3-5.2l.6.8.3.55.1.5.1.55.15 1.35q0 .5-.5 1.2l-.75.95-1.7 2-.95.8M8.1-2.85l.4.35.2.25Q10.45-.4 10.45.8l-.05 1.6-.75.85L8.95.2q-.75-2.5-1.6-3.45l.75.4" fill="#8e767e" transform="translate(12.85 12.1)"/></g><g id="f" fill-rule="evenodd"><path d="M4.55-26.55Q3.95-24 3.5-20.4q-.4 1.2-.65 3.5l-.25 4.55-.5 4.1L1.9-6l-.35-.15-.9-.25q-1 0-1.6 1.5-.5 1.2-.5 2.5 0 1.7.6 2.25.3.35 1.5.75l-.7 2.05Q-1.25 5.6-2.7 5.6l-.15-.05.15-.85-.15-.6-.15-.35-.15-.3-.3-.35L-4.5 2Q-6.15.45-7.3.45l-.85.1q.25-.3.7-.5l2.2-.8Q-1.9-1.8-1.6-4.2q.5-6.75 1.35-11.1 1.35-7.25 4.8-11.25M9.95-3.3q1.1 1.1 1.2 3v2.1l-.1.95-.1.5L2.85.6.9-.55q-1.55-1.1-1.55-2.5Q-.65-4.7.4-5.4l.15-.05.25.05 1.05.3 3.5 1 4.7 1.35-.1-.55" fill="#310e28" transform="translate(13.5 30.5)"/><path d="M3.5-20.4q.45-3.6 1.05-6.15l.7-2.4L2.1-25.4q-4.25 5-7.25 9.9Q-9.1-8.9-10.5-3.85l-.1.3q-1.05.75-1.45 1.85l-.05.15-.3 2.55.1 1.65q.15.8.7 1.45l-.05.1-.4 1.1-1.1-2.1q-.35-.95-.35-2.2 0-1.9.55-3.35l.2-.5.9-1.15.1-.25.25-.95.85-2.65 1.2-2.55 2.2-4.35q2.55-4.75 7.6-10.1L4.1-28.6l2.25-1.9-.85 3.1q-.9 4.3-1.3 11.05-.3 5.25-.35 10.9l2.45.65 3.55.7.1.8.1.55-4.7-1.35-3.5-1L.8-5.4l-.25-.05-.15.05q-1.05.7-1.05 2.35 0 1.4 1.55 2.5L2.85.6l8.1 2.65.1.05 1.5.45.9 1.35-11-3.95L1.4 5Q.35 7.5-2.5 7.5l-1.1-.15.2-.5q1.8-.05 3.4-2.6Q1.4 2 1.35.85L.65.6Q-.55.2-.85-.15q-.6-.55-.6-2.25 0-1.3.5-2.5.6-1.5 1.6-1.5l.9.25.35.15.5.1.65-9 .45-5.5" fill="#260327" transform="translate(13.5 30.5)"/><path d="M4.55-26.55q-3.45 4-4.8 11.25-.85 4.35-1.35 11.1-.3 2.4-3.65 3.45l-2.2.8q-.45.2-.7.5l-.6.2-.7.35-.7.45-.9 1.35-.55 1.2q-.55-.65-.7-1.45L-12.4 1l.3-2.55q1.05 1.5 2.6 1.5t2.25-1.05q.6-.8.6-1.9l-.15-2.6q0-4.95 3.45-11.45 2.15-4.1 5.45-8.35l3.15-3.55-.7 2.4" fill="#5d1f3c" transform="translate(13.5 30.5)"/><path d="M2.1-25.4q-3.3 4.25-5.45 8.35Q-6.8-10.55-6.8-5.6l.15 2.6q0 1.1-.6 1.9-.7 1.05-2.25 1.05t-2.6-1.5l.05-.15q.4-1.1 1.45-1.85l.1-.3Q-9.1-8.9-5.15-15.5q3-4.9 7.25-9.9" fill="#ab3c71" transform="translate(13.5 30.5)"/><path d="m-2.85 5.55.15.05q1.45 0 2.65-2.95L.65.6l.7.25Q1.4 2 0 4.25q-1.6 2.55-3.4 2.6l.55-1.3M1.9-6l.2-2.25.5-4.1.25-4.55q.25-2.3.65-3.5l-.45 5.5-.65 9-.5-.1" fill="#737b63" transform="translate(13.5 30.5)"/><path d="m-8.15.55.85-.1Q-6.15.45-4.5 2l1.05 1.1.3.35.15.3.15.35.15.6-.15.85-.55 1.3-.2.5-.05.05-2.1 4.25q-3.05 6.9-3.05 14.7l.15 2.75.05.6.1.85q-1.35-2.15-2.35-4.7l-1.3-4.25q-1.05-4.45-1.05-8.6 0-3.65.8-6.65l.35-1.05.4-1.1.05-.1.55-1.2.9-1.35.7-.45.7-.35.6-.2m.15.85-.45.05q-.6.1-1.05.45l-.6.7v.05l-.25 1.2-.75 3.4q-.75 3.65-.75 7.1 0 2.95.4 5.9l.15 1.25q.65 4.15 1.75 5.95l.05.1v-.1l-.3-2.6.05-1.5q.4-4.9 3.05-11.65l2.25-4.95.85-2.05q0-.85-1.35-2.05-1.45-1.3-2.8-1.3L-8 1.4" fill="#5e5153" transform="translate(13.5 30.5)"/><path d="M-9.5 1.9q.45-.35 1.05-.45L-8 1.4l.6.5q.55.65.55 2.15 0 1.85-1.55 7.1Q-10 16.4-10 20.7l.25 2.65-.05 1.5.3 2.6h-.05q-1.1-1.8-1.75-5.95l-.15-1.25v-.65q0-6.2 1.7-10.4l1.2-2.6Q-8 5.35-8 4.5q0-1.45-.45-1.95-.05-.05-1.05-.65" fill="#edded6" transform="translate(13.5 30.5)"/><path d="m-8 1.4.25-.05q1.35 0 2.8 1.3Q-3.6 3.85-3.6 4.7l-.85 2.05-2.25 4.95q-2.65 6.75-3.05 11.65L-10 20.7q0-4.3 1.6-9.55 1.55-5.25 1.55-7.1 0-1.5-.55-2.15l-.6-.5" fill="#8e787b" transform="translate(13.5 30.5)"/><path d="M-11.45 20.25q-.4-2.95-.4-5.9 0-3.45.75-7.1l.75-3.4.25-1.2V2.6l.6-.7q1 .6 1.05.65.45.5.45 1.95 0 .85-.55 2.1l-1.2 2.6q-1.7 4.2-1.7 10.4v.65" fill="#fff" transform="translate(13.5 30.5)"/></g><g id="g" fill-rule="evenodd"><path d="m-.85-2.65.5-.05.7.15L2.15.1q1.3 2.1 2.1 2.75l.4.25q1.3.55 2.05-1.15l.35-1.5-.15-.6q-1.95-.8-3.95-5.2l-1.2-2.6-.3-.75Q.7-10.35.2-10.55l-.6-.2-.1-.05q-1-.3-1.8 0-.8.25-1.25 1.2l-.65 3.25.15-.25.5-.5.45-1.95.95-.75.85.05.5.15q.95.45 2.15 2.6l.15.2Q2.75-4.25 3.55-3l2.5 2.65q.9.85.3 2.15-.25.6-.75.8-.5.2-1.1 0h-.1l-.05-.05-.1-.15-2.05-3Q1.05-2.55.15-2.95l-.7-.2-.3.5" fill="#260327" transform="translate(7.05 10.95)"/><path d="M4.5 2.6q.6.2 1.1 0 .5-.2.75-.8.6-1.3-.3-2.15L3.55-3q-.8-1.25-2.05-3.8L1.35-7Q.15-9.15-.8-9.6l-.5-.15q.05.4.5.85l.95.95.5 1.85.05.6.25 1.05.6 1.65q.5.95 1.2 1.65l1.7 1.8q.6.85.2 1.85l-.15.1" fill="#ab3c71" transform="translate(7.05 10.95)"/><path d="m-.55-3.15.7.2q.9.4 2.05 2.35l2.05 3 .1.15.05.05h.1l.15-.1q.4-1-.2-1.85l-1.7-1.8q-.7-.7-1.2-1.65l-.6-1.65L.7-5.5l-.05-.6-.5-1.85-.95-.95q-.45-.45-.5-.85l-.85-.05-.95.75-.45 1.95q.75-.6 1.5-.3 1.4.65 1.8 2.5l.15.95v.2l-.1.15-.35.45" fill="#5d1f3c" transform="translate(7.05 10.95)"/><path d="m-1.45-5.95-.6-.6q-.7-.3-1.4.45l-1.4 2.3q-.65 1.5-1 4.8h.05l.75-2.1.35-.75 1.55-2.7.15-.15q1-1.4 1.55-1.25" fill="#8e787b" transform="translate(7.05 10.95)"/><path d="M-1.45-5.95Q-2-6.1-3-4.7l-.15.15-1.55 2.7-.35.75L-5.8 1l-.1.15-.15 2.65-.15 1.4.2-.55L-4.4-.3l.15-.3.9-1.55q.65-.8 1.1-.6.25.1.4.6l.05.05 1.25-1.95v-.1l-.1-.6-.15-.3-.25-.4-.4-.5" fill="#edded6" transform="translate(7.05 10.95)"/><path d="m-4.2-6.35-.1.2-1.2 2.25Q-6.1-2.6-6.6.85L-7.05 5l.2 2.65.15.7.3 1.4.45 1.2q.2-2.25.75-4.35l1.95-4.9.2-.5 1.3-2.45.25-.4.6-.95.05-.05.3-.5.35-.45.1-.15v-.2l-.15-.95q-.4-1.85-1.8-2.5-.75-.3-1.5.3l-.5.5-.15.25M-5.85 1q.35-3.3 1-4.8l1.4-2.3q.7-.75 1.4-.45l.6.6.4.5.25.4.15.3.1.6v.1L-1.8-2.1l-.75 1.3-.8 1.65-.85 1.75-1.2 3.75-.7 3.05q-.25-.85-.1-4.2l.15-1.4.15-2.65.05-.15" fill="#55454c" transform="translate(7.05 10.95)"/><path d="M-6.2 5.2q-.15 3.35.1 4.2l.7-3.05 1.2-3.75.85-1.75.8-1.65.75-1.3-.05-.05q-.15-.5-.4-.6-.45-.2-1.1.6l-.9 1.55-.15.3L-6 4.65l-.2.55" fill="#fff" transform="translate(7.05 10.95)"/></g><g id="h"><path d="M-36.15-2.35Q-37-4.95-37-8.9q0-3.1.3-3.9l.8-1.55.55.8v.2q0 2.4.35 4.65l.55 3q1.3-.3 2.7 3.4l.1.25q.65 1.85 1 3.6l-.9.75-.95 1.5-.05-.1-.05-.05-1.8-2.6-1.5-2.8-.25-.6m4.25 17.25-1.95-1.75-1.1-1.5q-2.3-3.65-2.3-9.2L-37.2.9l1.35 2.5.65.85 2.15 2q2.2 1.3 3.6 2.35 2.6 1.85 2.6 2.8 0 1.15-1.4 2.2-1.5 1.15-3.65 1.3" fill="#ffffd7" fill-rule="evenodd" transform="translate(38.55 25.6)"/><path d="m-36.15-2.35.25.6 1.5 2.8 1.8 2.6.05.05.05.1 1.3 1.45h.05l-.05-.35q0-.75.6-1.15.45-.3.9-.3.7 0 1.2.55.55.65.55 1.75 0 .95-.15 1.1l.6-.05.5.05q1.55.15 3.1 1.55 2 1.7 2 3.8 0 1.4-1.55 2.65-1.8 1.4-4.6 1.4l-1.1.05q-1.5-.5-2.75-1.4 2.15-.15 3.65-1.3 1.4-1.05 1.4-2.2 0-.95-2.6-2.8-1.4-1.05-3.6-2.35l-2.15-2-.65-.85L-37.2.9l.2-1.35.85-1.9m5.5 3.9q-.35-1.75-1-3.6l-.1-.25q-1.4-3.7-2.7-3.4l-.55-3q-.35-2.25-.35-4.65l.1-.05.6.75q.5 2.95 1.45 4.85 1.45 2.8 4.45 4.6l.7.35q2 1 4.8 1.4l.8.1 1.65.45.2.2q.4.45.4 1.35 0 1.3-.95 2.85-.8 1.35-1.95 2.15l-1.9-.1V5.5q-1.85-.05-2.45-2.05-.6-2.1-2.7-2.1l-.5.2m21.8 22q-1.95.75-3.9.75l-2-.1q-5.4-.75-9.55-5.35l.95-.25 2.8-.25 6.5.2 1.5.25q3.5.95 3.7 4.75" fill="#e3a38b" fill-rule="evenodd" transform="translate(38.55 25.6)"/><path d="M-33.75-11.5v-.15l-.1-1.3q0-3.25 4-6.05 4.05-2.8 9.05-2.8 7.95 0 12.2 6l-.55 2.15-.2 3.2q0 3.3.65 6 .85 3.5 2.75 5.6Q-7.5 2.5-8.8 3.05q1.3-.55 2.85-1.9l.25-.2 1.25-1.2Q-3.75.2-.5.9l4 .7 1.25.15 1.1.2q3.55 0 8.8-1.5 5-1.4 6.65-2.65l.05-.6v-.15l-1.9-1.9-3-2.35q-1.65-1.45-2.6-3-1.15-1.95-1.15-4 0-2.55 2.25-5.8l.3.95q.6 1.55 1.4 2.35l.55.5.1.05-.05.1q-.3 2.65 2.55 4.85 1.75 1.4 3.5 2.05l.65.2-.65.55q.05 2.25 1 4.7 1.35 3.45 3.45 3.45.85 0 1.35-1.35l.45-2.25q0-3.7-1.55-5.7l-.8-.75-1 .2.15-.95.15-1.1q0-2.1-1.35-3.8-1.25-1.65-3.5-2.75l-.35-1.15-.6-1.5q-.75-1.45-1.65-2.3 1.4-.65 3.05-.65 1.9 0 3.95 1.2 1.8 1 2.75 2.35.4.55.8 2.45l.3 1.45q.65 3.65 1.1 4.8l1.5 3.2 2.2 4.55q2.55 5.05 2.55 7.25l-.4 2-.7 1.5.15-.7q0-.7-.75-1.1-.7-.35-1.8-.35-1.5 0-5.35 1.55-3.2 1.3-5.45 2.8l-.55-.3q-1.45-.75-2.95-.75l-.1-.05v.05q-1.15.05-2.1.55l-2.1 1.15.25-.95h-.1l-5.15 2.5Q6.2 12.5 2.9 12.5H1.3l-.5-.1-.45-.2-3.95-2.3q-4.3-2.6-4.45-2.65V8.6l.25 1.2v.4l-2.75-3.3Q-9.3 4.85-8.8 3.05l.25-1.95V.25l-1.35 1.6-.6.7q-.8.8-1.35 1-3 1.1-5.35 1.1l-1.05-.1q1.6-.7 3.2-1.85 3.3-2.3 4.75-5.1.85-1.8 1.05-3.75-.5.3-1.15.6l-2.85 1.1q-3.1 1-5.3 1-3.65 0-6.15-1.6l-4.2-3.45q-2.35-.3-4.85-3m63.35-6.8-1.2-.9q-1.9-1.2-3.8-1.2l-3.3.55 3.3-.55q1.9 0 3.8 1.2l1.2.9m2.9 9.45q-2.25-1.45-4.55-1.45h-.75.75q2.3 0 4.55 1.45m-11.15 5.9L21.3-4.1q0-2.1 1.7-4l.3-.3-.3.3q-1.7 1.9-1.7 4l.05 1.15m-4.7-13.75q-2.85 3.05-2.85 5.8l.05.7-.05-.7q0-2.75 2.85-5.8M3.5 1.6q-.35 1.1-.6 3.1-.25 2.25-.25 4.6 0 2.1.25 3.2-.25-1.1-.25-3.2 0-2.35.25-4.6.25-2 .6-3.1m15.85 5.95 1.45-4.1q.75-2.55.75-4.3L21.3-2.2l.25 1.35q0 1.75-.75 4.3l-1.45 4.1" fill="#2e102d" fill-rule="evenodd" transform="translate(38.55 25.6)"/><path d="m-32.5 3.8.95-1.5.9-.75.5-.2q2.1 0 2.7 2.1.6 2 2.45 2.05h-.1l.1.05 1.9.1q1.15-.8 1.95-2.15.95-1.55.95-2.85 0-.9-.4-1.35l-.2-.2-1.65-.45-.8-.1q-2.8-.4-4.8-1.4l-.7-.35q-3-1.8-4.45-4.6-.95-1.9-1.45-4.85l.8 1 .1.15q2.5 2.7 4.85 3l4.2 3.45q2.5 1.6 6.15 1.6 2.2 0 5.3-1l2.85-1.1q-.45 2-1.3 3.65l-.85 1.3q-1.8 2.5-5.7 5.05l-.35.25.35-.15 1.05.1q2.35 0 5.35-1.1.55-.2 1.35-1-.15 1.7-1.7 5.6l-.9 2.2-.7.75-.25.3q-5.4 5.65-10.4 5.65h-1.35 1.35q5 0 10.4-5.65l.25-.3.7-.75 2.55-3.45 2.75 3.3v-.4l-.25-1.2V7.25q.15.05 4.45 2.65l3.95 2.3.45.2.5.25v-.15h1.6q3.3 0 7.25-1.65l5.15-2.5h.1l-.25.95 2.1-1.15q.95-.5 2.1-.55h.1q1.5 0 2.95.75l.55.3q2.25-1.5 5.45-2.8 3.85-1.55 5.35-1.55 1.1 0 1.8.35.75.4.75 1.1l-.15.7q-.7 1.85-4.8 5.05-5.1 4-9.85 4.95l-1.9 1.7Q15.8 21 12.05 21l-2.1-.3-.35.3Q8.15 22.35 6 22.85l-4.95.35-4.7-.55-2.3-.7q-1.45 1.05-2.9 1.6-.2-3.8-3.7-4.75l-1.5-.25-6.5-.2-2.8.25-.95.25-1.5-1.8-3.35-.75 1.1-.05q2.8 0 4.6-1.4 1.55-1.25 1.55-2.65 0-2.1-2-3.8Q-25.45 7-27 6.85l-.5-.05-.6.05q.15-.15.15-1.1 0-1.1-.55-1.75-.5-.55-1.2-.55-.45 0-.9.3-.6.4-.6 1.15l.05.35h-.05l-1.3-1.45M-19.35 5l-3.75.65 3.75-.65M21.5 16.45Q24 13.7 24 10.1q0-.8-1.05-1.45Q24 9.3 24 10.1q0 3.6-2.5 6.35m-27.45 5.5 2.15-1.85q1.85-1.8 4.15-7.9-2.3 6.1-4.15 7.9l-2.15 1.85m15.9-1.25q2.6-2.8 5.2-11.4-2.6 8.6-5.2 11.4" fill="#ab5b4a" fill-rule="evenodd" transform="translate(38.55 25.6)"/><path d="m14.95-20 .1-.15q1.75-2.5 4-3.5.9.85 1.65 2.3l.6 1.5.35 1.15q2.25 1.1 3.5 2.75 1.35 1.7 1.35 3.8l-.15 1.1-.15.95 1-.2.8.75q1.55 2 1.55 5.7L29.1-1.6q-.5 1.35-1.35 1.35-2.1 0-3.45-3.45-.95-2.45-1-4.7l.65-.55q1-.8 2.25-1.15-1.25.35-2.25 1.15l-.65-.2q-1.75-.65-3.5-2.05-2.85-2.2-2.55-4.85l.05-.1-.1-.05-.55-.5q-.8-.8-1.4-2.35l-.3-.95m6.35.15q-2.5.85-4.55 3l-.1.15.1-.15q2.05-2.15 4.55-3" fill="#431c45" fill-rule="evenodd" transform="translate(38.55 25.6)"/><path d="m-8.6-15.8 1.25 2.05-.2 2.2q0 3.6 1.9 6.9l1.9 2.9q0 .6-.7 1.5L-5.7.95l-.25.2q-1.9-2.1-2.75-5.6-.65-2.7-.65-6l.2-3.2.55-2.15" fill="#737b63" fill-rule="evenodd" transform="translate(38.55 25.6)"/><path d="M-10.4-5.55q.65-.3 1.15-.6-.2 1.95-1.05 3.75-1.45 2.8-4.75 5.1-1.6 1.15-3.2 1.85v-.1q3.9-2.55 5.7-5.05l.85-1.3q.85-1.65 1.3-3.65m-.1 8.1.6-.7 1.35-1.6v.85l-.25 1.95q-.5 1.8-1.75 3.85l-2.55 3.45.9-2.2q1.55-3.9 1.7-5.6" fill="#c3f4a0" fill-rule="evenodd" transform="translate(38.55 25.6)"/><path d="m3.2 12.05-.55-.8-.8 1.55q-.3.8-.3 3.9 0 3.95.85 6.55l.25.6 1.5 2.8 1.8 2.6.05.05.05.1.95-1.5.9-.75.5-.2q2.1 0 2.7 2.1.6 2 2.45 2.05h-.1l.1.05 1.9.1 3.75-.65m-16-18.55.1.15.6.75.8 1 .1.15q2.5 2.7 4.85 3l4.2 3.45q2.5 1.6 6.15 1.6 2.2 0 5.3-1l2.85-1.1q.65-.3 1.15-.6-.2 1.95-1.05 3.75-1.45 2.8-4.75 5.1-1.6 1.15-3.2 1.85l1.05.1q2.35 0 5.35-1.1.55-.2 1.35-1l.6-.7 1.35-1.6v.85l-.25 1.95q-.5 1.8-1.75 3.85l-2.55 3.45-.7.75-.25.3q-5.4 5.65-10.4 5.65h-1.35L9.4 41.9q-1.5-.5-2.75-1.4L4.7 38.75l-1.1-1.5q-2.3-3.65-2.3-9.2l.05-1.55.2-1.35.85-1.9m72.3 8.8q-.7 1.85-4.8 5.05-5.1 4-9.85 4.95l-1.9 1.7q-3.8 2.85-7.55 2.85l-2.1-.3-.35.3q-1.45 1.35-3.6 1.85l-4.95.35-4.7-.55-2.3-.7q-1.45 1.05-2.9 1.6-1.95.75-3.9.75l-2-.1q-5.4-.75-9.55-5.35l-1.5-1.8m48.75-8.4q1.05.65 1.05 1.45 0 3.6-2.5 6.35M20.3 30.15l-.35.15m18.95 7.5q-2.3 6.1-4.15 7.9l-2.15 1.85M53.7 34.9q-2.6 8.6-5.2 11.4" fill="none" stroke="#683a30" stroke-linecap="square" stroke-linejoin="miter-clip" stroke-miterlimit="3" stroke-width="2"/><path d="m31.2 11.85-.2 2.2q0 3.6 1.9 6.9l1.9 2.9q0 .6-.7 1.5.7.45 3.95 1.15l4 .7 1.25.15 1.1.2q3.55 0 8.8-1.5 5-1.4 6.65-2.65l.05-.6v-.15l-1.9-1.9-3-2.35q-1.65-1.45-2.6-3-1.15-1.95-1.15-4 0-2.55 2.25-5.8l.1-.15q1.75-2.5 4-3.5 1.4-.65 3.05-.65 1.9 0 3.95 1.2 1.8 1 2.75 2.35.4.55.8 2.45l.3 1.45q.65 3.65 1.1 4.8l1.5 3.2 2.2 4.55q2.55 5.05 2.55 7.25l-.4 2-.7 1.5.15-.7q0-.7-.75-1.1-.7-.35-1.8-.35-1.5 0-5.35 1.55-3.2 1.3-5.45 2.8l-.55-.3Q59.5 33.2 58 33.2h-.1q-1.15.05-2.1.55l-2.1 1.15.25-.95h-.1l-5.15 2.5q-3.95 1.65-7.25 1.65-.25-1.1-.25-3.2 0-2.35.25-4.6.25-2 .6-3.1m-12.3 1.45q1.3-.55 2.85-1.9l.25-.2 1.25-1.2M65.75 15.3l-1 .2q-1.25.35-2.25 1.15l-.65.55-.3.3q-1.7 1.9-1.7 4l.05 1.15m5.85-7.35h.75q2.3 0 4.55 1.45m-11.2-11 3.3-.55q1.9 0 3.8 1.2l1.2.9M52.4 15.4l-.05-.7q0-2.75 2.85-5.8l.1-.15q2.05-2.15 4.55-3M39.35 38l-.45-.2-3.95-2.3q-4.3-2.6-4.45-2.65v1.35l.25 1.2v.4L28 32.5m11.85 5.6v.15l-.5-.25.5.1h1.6m18.4-14.7.25 1.35q0 1.75-.75 4.3l-1.45 4.1v.05" fill="none" stroke="#260327" stroke-linecap="square" stroke-linejoin="miter-clip" stroke-miterlimit="3" stroke-width="2"/></g><g id="i" fill-rule="evenodd"><path d="M7.7-5.3q-.2-1.25-1-2.75-1.1-2.1-2.65-3.2l-4.1-.95q-2.9-.7-4.3-2.65l.75 4v.05L-2.35-6q.25.8 1.35 1.45 1.1.55 1.1 1Q.25-2.1.6-1.8q.35.35 1.75.35L3.1-.2l-.75.15-.75.2Q.3.15-.1-.45L-.85-2.3l-4 2.65q-4 2.5-6 2.5l-1.45-.1q-.7-.25-.7-1.1 0-.9.7-2.3l.35-.5 7.55-6.5-.75-4.9-.25-2.15v-3.8q.6 2.7 4.85 4.25l3.2 1 2.25 1 1.9 3.4 1.65 3.5-.1.85-.65-.8m-11 .45Q-4-5.9-4.05-6.7L-7.6-3.85-11.5-.5l-.45.45-.2.45q0 1.35 1.1 1.35 1.75 0 4.9-2.2l4.45-3.1q-.85-.25-1.6-1.3" fill="#260327" transform="translate(13 18.5)"/><path d="m-3.6-10.85-.75-4q1.4 1.95 4.3 2.65l4.1.95q1.55 1.1 2.65 3.2.8 1.5 1 2.75-.75-.8-1.55-1l-.4-.05H5.6l-.65.1-.35.1.05-.6q0-1.2-.85-1.9-.95-.75-3.3-1-2.9-.35-4.05-1.15l-.05-.05" fill="#310e28" transform="translate(13 18.5)"/><path d="M2.35-1.45Q.95-1.45.6-1.8.25-2.1.1-3.55q0-.45-1.1-1Q-2.1-5.2-2.35-6l-1.25-4.8h.05Q-2.4-10 .5-9.65q2.35.25 3.3 1 .85.7.85 1.9l-.05.6q-.95.25-1.75 1Q1.6-3.95 1.6-2.6l.75 1.15m-5.65-3.4q.75 1.05 1.6 1.3l-4.45 3.1q-3.15 2.2-4.9 2.2-1.1 0-1.1-1.35l.2-.45.45-.45 3.9-3.35 3.55-2.85q.05.8.75 1.85" fill="#5d1f3c" transform="translate(13 18.5)"/><path d="m7.7-5.3.65.8q1.5 2.05 2.8 6.3Q13 8 13 12.6l-.1 3.1-.15 1.05-.2 1.8-1.1-3.3-3.1-6.75-3.7-6.2-1.5-2.4-.05-.1-.75-1.25L1.6-2.6q0-1.35 1.25-2.55.8-.75 1.75-1l.35-.1.65-.1h.15l.4.05q.8.2 1.55 1m4.7 19v-.05Q11.9 7.8 9.9 1.5q-2.2-7-4.05-6.8l-1.4.25-1 .5Q3-4.1 2.75-2.8l.1.05.8 1.1q2.2 2.9 4.9 8.15l3.75 7.75h.1v-.55" fill="#5e5154" transform="translate(13 18.5)"/><path d="m2.85-2.75-.1-.05q.25-1.3.7-1.75l1-.5 1.4-.25Q7.7-5.5 9.9 1.5q2 6.3 2.5 12.15v.05Q8.35-3.1 4.4-3.1l-.85.2-.7.15" fill="#8e787b" transform="translate(13 18.5)"/><path d="m2.85-2.75.7-.15.85-.2q3.95 0 8 16.8v.55h-.1L8.55 6.5q-2.7-5.25-4.9-8.15l-.8-1.1" fill="#edded6" transform="translate(13 18.5)"/></g><g id="j" fill-rule="evenodd"><path d="m11.25.95-.05.45-8 2.55-5.25 1.35q-3.5 1.1-5.85 1.1-1.45 0-2.4-.75l-.45-.35q-.55-.65-.55-1.55 0-1.05.55-2.1l.65-.95 1-.3Q-4.5-1.15-1-2.95l4.9-2.9.75-.5L5-6.4l1.65.2q-1.2.7-3.55 1.8l-.15.1L-3-1.6l-6.7 2.7q-1.3 1.65-1.15 3l.65 1.05q.5.4 1.35.55l2.7-.15q1.5-.1 7.9-2 6.3-1.95 9.5-2.6" fill="#260327" transform="translate(11.3 6.4)"/><path d="m-10.2 5.15-.65-1.05q-.15-1.35 1.15-3L-3-1.6l5.95-2.7-.2 1.5Q2.2-1.15.05.7q-1.35 1.15-5 2.8-3.75 1.65-5 1.65h-.25" fill="#ab3c71" transform="translate(11.3 6.4)"/><path d="M6.65-6.2q1.1.3 2.05.95 2.6 1.7 2.6 5.55l-.05.65q-3.2.65-9.5 2.6-6.4 1.9-7.9 2l-2.7.15q-.85-.15-1.35-.55h.25q1.25 0 5-1.65Q-1.3 1.85.05.7q2.15-1.85 2.7-3.5l.2-1.5.15-.1q2.35-1.1 3.55-1.8" fill="#5d1f3c" transform="translate(11.3 6.4)"/></g><g id="k" fill-rule="evenodd"><path d="M6.7-1.85q-.15-3-2.35-4.3l-.5-.25-3.1-1.75-.25-.1-1.25-.45-2.15-.25h-.05l-.6.05q.55.25 1 1.15Q-2-6.6-2-5.6q0 1.3-.5 2.3l-.55.75-.4.45-.65.5q-.4.3-.9.45l-1.4-.9q.85-1.1 1.25-2.05.4-1.05.4-2.25 0-1.75-1.2-1.75L-7.6-7.05Q-9.15-6-10-6q-1 0-3-.95l-2.15-.9q-.5 0-.8.6l-.3 1.25q0 1.1.5 2.25l.6 1-.7.5-.85-1.95q-.45-1.45-.45-2.85l.05-.7.95-1.75h-.05l-.7.35-1.15.7-1.3 1.05-.25.3.65-2.55q.4-1.7.7-1.7 1.15 0 3.65 1.95 2.45 1.9 3.65 1.9 1.2 0 2.25-.6l2.45-1.8h.1q1.5.9 4.05.9L1-9.15l3.3-.2q3.05 0 4.6 1 2.05 1.25 2.05 4.3 0 2.1-1.5 4.25L7.5 2.6v-.3L7.7.5q0-1.1-.6-1.9l-.4-.45" fill="#5d1f3c" transform="translate(23.2 25.55)"/><path d="m-6.4-2.05 1.4.9q.5-.15.9-.45l.65-.5.4-.45.55-.75q.5-1 .5-2.3 0-1-.55-2.15-.45-.9-1-1.15l.6-.05h.05l2.15.25 1.25.45.25.1 3.1 1.75.5.25q2.2 1.3 2.35 4.3v.4q0 1.9-1.25 4.3-.85 1.8-1.5 2.3l.65.25 1.9.25q5.5 0 9.45-4.55l.3-.4q3.1-3.8 4.3-9.6v-.05q.95.15 1.6.75 1.1 1 1.1 3.5 0 5.25-4.2 9.7L15.8 7.65l-.85.45-.05.05q-2.45 1.3-5.3 1.6l-2.15.15q-3.75 0-5.95-.85L-.6 8l-3.75-3.1-1.1-1.4Q-6.7 1.95-7.7 1.25q-.45-.3-.95-.5Q-9.9.2-11.7.2q-2.65 0-4.35 2.7l-.75 1.25-.1.2-.3.4-.25.3q-.55.55-1.2.55-.5 0-1.25-.5-.85-.6-.85-1.3l.25-.5.1-.15-.85-1.25L-22 .15l-.05-.3-.1-1 .3-2.25.4-1.15q.65-1.4 1.85-2.55l.25-.3 1.3-1.05 1.15-.7.7-.35h.05l-.95 1.75-.1.3q-.55 1.5-.55 2.5 0 1.75 1.1 3.2l.4-.25.4-.25.7-.5.15-.05.55-.3q1.3-.7 2.8-.7l2.65.45 1.4.6.35.2.85.5m-1.25.25-1.7-.7-2.2-.4-1.75.15-1.35.55-.25.1-.55.3-.8.5-1.2 1-.7.7-.4.6q-.8 1.1-1.4 2.7l-.1.2.65.6 1.1.3h.2l.15-.25.2-.2.05-.1Q-16.05 1.9-15 1l.15-.15.2-.15q1.3-.95 3.8-.95l2.55.5q.55.2 1.05.5 1.55.9 2.5 2.3l.6.95q1.35 1.95 3.7 3.3l.05.05.65.35q2.8 1.45 5.3 1.45l2.35-.1q6.05-.6 9.85-4.3l.55-.55q3.85-4.25 3.85-9.95 0-1.2-1.2-2.15-1.9 6.15-4.35 9.65L15.25 3.4Q12 7 2.2 5.85q-.4-.1-.9-.4-1.6-.9-4.45-3.8l-.3-.25q-1.7-1.75-3.4-2.8l-.8-.4m5.55-6.65h-.25l.7 1.6.2 1.5q0 1.45-.85 2.95l-.05.05-.8 1.05-.4.4-.55.25.1.15 1.25 1.6 1.55 1.6Q.5 4.35 1.75 4.9l1 .25.65-.25q.7-.65 1.45-2.8l.85-3.25q0-1.2-.35-2.15L4.3-5l-1.1-.85-2-1.2-1.25-.7-2.05-.7m-15.1-.2.25-.1-.2-.1-.05.2-.35.2-1.5 1.2-.85 1.1-.15.25-.25.35-.95 2.15-.2.85-.05.75q0 1.4.4 2.35l.25.45.95 1.4 1.2-1.55.1-.15 1-1.2.35-.4-.65-1.85-.4-1.8.35-2.25.75-1.85" fill="#470a0c" transform="translate(23.2 25.55)"/><path d="m6.7-1.85.4.45q.6.8.6 1.9l-.2 1.8v.3L9.45.2q1.5-2.15 1.5-4.25 0-3.05-2.05-4.3-1.55-1-4.6-1l-3.3.2-3.1.15q-2.55 0-4.05-.9h-.1L-8.7-8.1q-1.05.6-2.25.6t-3.65-1.9q-2.5-1.95-3.65-1.95-.3 0-.7 1.7l-.65 2.55q-1.2 1.15-1.85 2.55l-.4 1.15-.25-1.3-.35-4.35q0-5.35 2.2-10.55l2.65-1q3.55-1.1 9.6-2.25l12.65-2 8.7-.7q3.7 0 5.3.85h-.05l.15.05.95.7q.95 1.35 1.35 5l.25 3.2q-.1 3.7-.75 6.8v.05q-1.2 5.8-4.3 9.6l-.3.4Q12 5.65 6.5 5.65L4.6 5.4l-.65-.25q.65-.5 1.5-2.3Q6.7.45 6.7-1.45v-.4m-23.8-5.9-.05.7q0 1.4.45 2.85l.85 1.95-.4.25-.4.25q-1.1-1.45-1.1-3.2 0-1 .55-2.5l.1-.3" fill="#311628" transform="translate(23.2 25.55)"/><path d="m-15.15-2.75-.6-1q-.5-1.15-.5-2.25l.3-1.25q.3-.6.8-.6l2.15.9Q-11-6-10-6q.85 0 2.4-1.05l1.65-1.05q1.2 0 1.2 1.75 0 1.2-.4 2.25-.4.95-1.25 2.05l-.85-.5-.35-.2-1.4-.6-2.65-.45q-1.5 0-2.8.7l-.55.3-.15.05" fill="#ab3c71" transform="translate(23.2 25.55)"/><path d="m-9.35-2.5 1.7.7Q-7.8-.6-8.3.25l-2.55-.5q-2.5 0-3.8.95l-.2.15L-15 1q-.6-.15-.95-1.05l-.3-1.25.8-.5.55-.3q.15.55.55.8.4.3 1.5.3 1.3 0 2.4-.55l1.1-.95m7.05.1.05.05q.35.8 1.15.8.65 0 1-2.35 0-1.8-.95-3.35l-1.05-1.2 2.05.7.1.2Q1.1-5.65 1.1-3.3 1.1.05-1 .05q-.9 0-1.7-.8l-.45-.55.8-1.05.05-.05" fill="#ffe868" transform="translate(23.2 25.55)"/><path d="m-14.9-2.1.25-.1 1.35-.55 1.75-.15 2.2.4-1.1.95q-1.1.55-2.4.55-1.1 0-1.5-.3-.4-.25-.55-.8m12.8-6.35 1.05 1.2Q-.1-5.7-.1-3.9q-.35 2.35-1 2.35-.8 0-1.15-.8l-.05-.05q.85-1.5.85-2.95l-.2-1.5-.7-1.6h.25M-21.25-3.4l.95-2.15.25-.35.15-.25.85-1.1-.35.7Q-20-5.3-20-3.3v.05q-.4.3-.55.3-.25 0-.5-.25l-.2-.2" fill="#fff" transform="translate(23.2 25.55)"/><path d="m-7.65-1.8.8.4q1.7 1.05 3.4 2.8l.3.25-.6.55-1 .85q-.95-1.4-2.5-2.3-.5-.3-1.05-.5.5-.85.65-2.05M-15 1q-1.05.9-2.7 3.25l-.05.1-.2.2-.15.25h-.2l-1.1-.3-.65-.6.1-.2q.6-1.6 1.4-2.7l.4-.6.7-.7 1.2-1 .3 1.25q.35.9.95 1.05m11.85-2.3.45.55q.8.8 1.7.8 2.1 0 2.1-3.35 0-2.35-1.05-4.25l-.1-.2 1.25.7.8 2.5q.6 2.2.6 3.35 0 2.05-.65 2.85Q1.5 2.3.5 2.3q-.85 0-2.7-1.8L-3.55-.9l.4-.4" fill="#e4a222" transform="translate(23.2 25.55)"/><path d="M-3.15 1.65q2.85 2.9 4.45 3.8.5.3.9.4Q12 7 15.25 3.4l1.35-1.65q1.1 1.25 1.15 3-3.8 3.7-9.85 4.3l-2.35.1q-2.5 0-5.3-1.45l-.65-.35-.05-.05Q-2.8 5.95-4.15 4l-.6-.95 1-.85.6-.55m4.35-8.7 2 1.2L4.3-5l.05.3.3 2.6q0 1.5-1.25 4.15L1.75 4.9Q.5 4.35-1.2 2.7l-1.55-1.6L-4-.5l-.1-.15.55-.25L-2.2.5Q-.35 2.3.5 2.3q1 0 1.45-.65.65-.8.65-2.85 0-1.15-.6-3.35l-.8-2.5" fill="#945119" transform="translate(23.2 25.55)"/><path d="M16.6 1.75q2.45-3.5 4.35-9.65 1.2.95 1.2 2.15 0 5.7-3.85 9.95l-.55.55q-.05-1.75-1.15-3M1.75 4.9 3.4 2.05Q4.65-.6 4.65-2.1l-.3-2.6L4.3-5l1.05 1.7q.35.95.35 2.15L4.85 2.1Q4.1 4.25 3.4 4.9l-.65.25-1-.25M-17.2-8.65l-.75 1.85-.35 2.25.4 1.8.65 1.85-.35.4q-1.2-1.6-1.2-3.75 0-1.6.6-3l.65-1.2.35-.2" fill="#737b63" transform="translate(23.2 25.55)"/><path d="M20.55-8.95q.65-3.1.75-6.8l-.25-3.2q-.4-3.65-1.35-5l-.95-.7-.15-.05h.05l.95-.05q1.6.55 2.35 3.85.6 2.6.6 6.4l-.05 3.6-.35 2.7q-.65-.6-1.6-.75m-40.8-10.65q-2.2 5.2-2.2 10.55l.35 4.35.25 1.3-.3 2.25-.7-2.65q-.35-1.65-.35-4.4 0-6.55 2.15-11.2v-.1l.2-.3h.55l.15.05-.1.15" fill="#270427" transform="translate(23.2 25.55)"/><path d="m-17.6-.5-1 1.2-.1.15-.65-1.2-.1-.1Q-20-1.7-20-3.15v-.1l.05-.05H-20q0-2 .6-3.25l.35-.7 1.5-1.2-.65 1.2q-.6 1.4-.6 3 0 2.15 1.2 3.75" fill="#663825" transform="translate(23.2 25.55)"/><path d="m-20.85 1-.25-.45q-.4-.95-.4-2.35l.05-.75.2-.85.2.2q.25.25.5.25.15 0 .55-.3v.1q0 1.45.55 2.7l.1.1-.3.5q-.5.85-1.2.85" fill="#fbb479" transform="translate(23.2 25.55)"/><path d="m-18.7.85-1.2 1.55-.95-1.4q.7 0 1.2-.85l.3-.5.65 1.2" fill="#9c6f33" transform="translate(23.2 25.55)"/><path d="m-16.9 4.35.1-.2.75-1.25Q-14.35.2-11.7.2q1.8 0 3.05.55.5.2.95.5 1 .7 2.25 2.25l1.1 1.4L-.6 8l-.7 2.45q-2.75-1-3.6-2.25l-.15-.2q-1.9-3.4-3.5-4.3-1.65-.9-3.65-.85-2 0-2.7.85l-1.3 2.7-.7-2.05" fill="#8c694a" transform="translate(23.2 25.55)"/><path d="M15.8 7.65q-.35 1.05-2.05 1.75-2.35.85-3.75 1.55-4.05 1.95-6.6 6.1l-.2-.1-.8-.2-.85.2q3.7-5.3 8.05-7.2 2.85-.3 5.3-1.6l.05-.05.85-.45m-30.55 4.55q-.65-2.7-1.35-4.3l-1.35-2.85.25-.3.3-.4.7 2.05.05.2.45 1.3.9 2.7.2.55-.15 1.05" fill="#683a30" transform="translate(23.2 25.55)"/><path d="M-14.2 23.5q-1.2-1.5-1.2-3.8l.25-4.4.4-3.1.15-1.05-.2-.55-.9-2.7-.45-1.3-.05-.2 1.3-2.7q.7-.85 2.7-.85 2-.05 3.65.85 1.6.9 3.5 4.3l.15.2q-.9 4.65-2.25 7.2-2.15 4.05-7.05 8.1" fill="#ffffd7" transform="translate(23.2 25.55)"/><path d="M-11.15 25.4q-1.2-.3-2.15-1l-.9-.9q4.9-4.05 7.05-8.1 1.35-2.55 2.25-7.2.85 1.25 3.6 2.25Q-3 15.1-6.6 20.1q-2.5 3.5-4.55 5.3" fill="#b9bc8b" transform="translate(23.2 25.55)"/><path d="M1.55 16.95q-.8.3-1.75 1.2l-.65.7Q.2 16.2 1.3 14.35l1.75-2.6-.05-.1q-.95 0-3.65-.95l-.65-.25L-.6 8l2.1 1.05q2.2.85 5.95.85l2.15-.15q-4.35 1.9-8.05 7.2" fill="#ab5b4a" transform="translate(23.2 25.55)"/><path d="m-.85 18.85-2 2.35q-3.8 4.4-6.75 4.4l-1.55-.2q2.05-1.8 4.55-5.3 3.6-5 5.3-9.65l.65.25q2.7.95 3.65.95l.05.1-1.75 2.6Q.2 16.2-.85 18.85" fill="#e3a38b" transform="translate(23.2 25.55)"/></g><g id="l" fill-rule="evenodd"><path d="m-11.3-6.3-1.6-.8-2.05-1.8q-.9 1.4-1.5 4.5Q-17-1.65-17 .45q0 4.45 1.3 7.7l1.65 2.9 1.5 1.4.8.5 1.35.55h1.8l2.5-.1.1.75.05.25-.35.05-.65.1-.9.05q-2.9 0-6-2.2l-1.5-1.3-.8-1.25q-1.95-3.8-1.95-8.4 0-6.15 3-11.4l1.35 1.6 2.45 1.6v.45m9.4 6.2Q-.75-.4.8-2q1.4-1.4 2.35-2.95h.05l.95.1 7.4-.95 2.15-.4 2.3-.6 2.15-.75-.1.85-.55.3-1.1.7.15-.5-.95.4-2.7.75-1.2.25-6.95.7-1.35-.15v.05Q.55.8-3.35 1h-.1l.2-.1 1.1-.75.25-.25" fill="#b86d5d" transform="translate(18.1 14.55)"/><path d="M-14.7-6.95h-.05v.05Q-13.5.2-8.9 3.95q2.55 2 2.9 2.45.6.75.95 1.65.3.95.3 2.1 0 1.75-.75 3.2l-.6.05-2.5.1h-1.8l-1.35-.55-.8-.5-1.5-1.4-1.65-2.9Q-17 4.9-17 .45q0-2.1.55-4.85.6-3.1 1.5-4.5l2.05 1.8 1.6.8-.05.5q-3.2-.5-3.35-1.15M-3.35 1Q.55.8 3.4-4.2v-.05l1.35.15 6.95-.7 1.2-.25Q11.4-3.15 8.35-.9 4.4 2.1.95 2.95l-2.45.25q-2 0-3.1-.55l-.55-.3-.55-.85 2.25-.5.05.05.05-.05" fill="#ffffd7" transform="translate(18.1 14.55)"/><path d="m-14.75-6.9.05-.05q.15.65 3.35 1.15 0 2.85 1.45 4.9 1.65 2.35 4.15 2.4h.05l.55.85.55.3q1.1.55 3.1.55l2.45-.25-2.6 2.3-3.4 2.8Q-5.4 7.15-6 6.4q-.35-.45-2.9-2.45Q-13.5.2-14.75-6.9" fill="#b9bc8b" transform="translate(18.1 14.55)"/><path d="m-7.95-11.4.1-.1.3-.4.45-.05h.25q.8 0 .8.8 0 .5-.55 1.15-.6.75-1.1.75-.65 0-.65-1 0-.55.4-1.15m-.85 3.9.25-.25.35-.05.5.15.3.4q0 .75-.7.75l-.5-.1-.2-.75v-.15" fill="#fff" transform="translate(18.1 14.55)"/><path d="m-7.55-11.9-.4.5q-.4.6-.4 1.15 0 1 .65 1 .5 0 1.1-.75.55-.65.55-1.15 0-.8-.8-.8h-.25l-.45.05M-1.5-1.5l-.1.05Q-3.35.7-5.65.7h-.15Q-8 .6-9.45-1.45q-1.3-1.8-1.3-4.3v-.8q.2-3 2-5.1 1.8-2.1 4.1-2.1 1.4 0 2.5.75 1.7 2.4 1.7 6.3 0 3.05-1.05 5.2m-7.3-5.85.2.75.5.1q.7 0 .7-.75l-.3-.4-.5-.15-.35.05-.25.25v.15" fill="url(#r)" transform="translate(18.1 14.55)"/><path d="m-11.35-5.8.05-.5v-.45q.25-3.2 2.25-5.5 1.95-2.3 4.5-2.3t4.25 2.3q1.65 2.35 1.4 5.7Q.9-3.2-1.15-.9l-.75.8-.25.25-1.1.75-.2.1-2.25.5h-.05q-2.5-.05-4.15-2.4-1.45-2.05-1.45-4.9m9.2-7.2q-1.1-.75-2.5-.75-2.3 0-4.1 2.1-1.8 2.1-2 5.1v.8q0 2.5 1.3 4.3Q-8 .6-5.8.7h.15q2.3 0 4.05-2.15l.1-.05Q.25-3.6.45-6.55q.2-3-1.3-5.1L-2.15-13" fill="#01291e" transform="translate(18.1 14.55)"/><path d="m-6.1 13.4.6-.05 2.1-.35q2.7-.6 5.4-2.15l.95-.6Q7.65 7.3 11.7 2.2q3.45-4.25 4.6-7.6l.1-.3 1.1-.7.55-.3Q17.5-3.45 14.7.2L8.45 7.5q-2.25 2.9-8.5 5.15l-.65.2-5.25 1.55-.05-.25-.1-.75" fill="#683a30" transform="translate(18.1 14.55)"/><path d="m16.4-5.7-.1.3q-1.15 3.35-4.6 7.6-4.05 5.1-8.75 8.05l-.95.6q3.75-3.4 7.8-8.25 4.4-5.25 5.8-8.4l.95-.4-.15.5" fill="#c3f4a0" transform="translate(18.1 14.55)"/><path d="M-5.5 13.35q.75-1.45.75-3.2 0-1.15-.3-2.1l3.4-2.8 2.6-2.3Q4.4 2.1 8.35-.9q3.05-2.25 4.55-4.15l2.7-.75q-1.4 3.15-5.8 8.4Q5.75 7.45 2 10.85-.7 12.4-3.4 13l-2.1.35" fill="#e3a38b" transform="translate(18.1 14.55)"/><path d="m-2.15-13 1.3 1.35q1.5 2.1 1.3 5.1Q.25-3.6-1.5-1.5-.45-3.65-.45-6.7q0-3.9-1.7-6.3" fill="#d0ffb2" transform="translate(18.1 14.55)"/></g><g id="m" fill-rule="evenodd"><path d="M-24.2-15.4q.15-7.5 5.9-12.7 2.05-1.9 4.45-3.1l.75-.3 2.05-.65q2.15 0 4.8 1.15l1.5.75-.7.5q1.65.85 3.25 2.3 4.6 6.7 6.45 11.65 1.2 3.05 1.85 7.85l-1.4.55-1.65.55.2-.7.25-1.85q0-3.2-1-4.4-1-1.3-4.45-2.15h-.1l.05.05q3.2 3.2 3.2 3.95 0 .65-3.65.65-6.1 0-16.2-2.65l-5.55-1.45" fill="#310e28" transform="translate(24.2 32.15)"/><path d="m-23.8-12.35-.1-.4-.3-2.3v-.35l5.55 1.45q10.1 2.65 16.2 2.65 3.65 0 3.65-.65 0-.75-3.2-3.95l.05-.05q3.45.85 4.45 2.15 1 1.2 1 4.4l-.25 1.85-.2.7-1.45.35-.1-1.05-.1-.55Q1-10.65.25-10.65q-.7 0-.85 1.85l-.25 2.65-1.1.1.05-.55q0-1.7-.95-2.8-1-1.15-2.85-1.15-1.25 0-2.35.8Q-9.2-8.9-9.2-7.8l.2.85-2.85-.65-1.9-.5-1.8-.6q-4.6-1.5-7.5-3.45l-.45-.1-.3-.1" fill="#5d1f3c" transform="translate(24.2 32.15)"/><path d="M7.7-11.2q1.45.4 1.85 1.4l.25 2.3-.05.15-.75 2-.55 1.6.1-2.45Q8.5-8.3 7.9-9.05l-.5.55-.5.45-.75.55q-1.1.75-2.55 1.2l-.85.3-1.05.25-.55.1-3.25.3h-.75L-5.2-5.4l-2.4-.3-.85-.15-3.8-.85-1.8-.45-1.7-.55q-3.7-1.25-7-3l1.7 4.7.25.65q1.2 1.45 4.5 2.75l.95.35 1.15.4 3.25.9.55.15 3.75.6h.4l2.2.05L-.7-.2q3.45-.1 7.65-1.25L6.25-.4 6-.05 5.75.3q-2.8-.05-8.3 5.35l-.25.25-1.95 2.05-.45.5-1.7 2.1-.55.8-.3.65-.05.15-.05.2.1.35.6 1.45.75 1.45-.05.1-.05.1-.05.35-.9-1.55-.95-1.95.1-.2.15-.5.35-.7.65-1.25 1.45-2.2.8-.95 1.65-1.75 2.3-1.95Q1.4 1.4 3.85 0l-8 .6-2.4-.1-4.55-.65-.25-.05-.45-.15-3.75-1.1-1-.35q-2.1-.85-3.45-1.7l-.15-.1-.75-.6-.35-.35-1.85-4.85-.55-1.8-.1-.4-.2-.75h.15l.3.1.45.1q2.9 1.95 7.5 3.45l1.8.6 1.9.5 2.85.65 3 .6h.1l3.45.3h.5l1.1-.1 2.15-.3.3-.05 1.45-.35L4.7-7.4l1.4-.55.85-.45.4-.25.55-.4.05-.05-.25-1.1v-1" fill="#470a0c" transform="translate(24.2 32.15)"/><path d="m-15.75-7.7 1.7.55-1.05 3.9-.25 1-.95-.35.1-.35.25-.7-.25-.25-.45-.2.9-3.6M-5.2-5.4l2.35.05h.75l3.25-.3L.8-4.5l-.35.45L-.8-4.2l-2.85.35-.4 3.7-2.2-.05.4-1q.8-2.15.8-3.3l-.15-.9M-.5 10l-.5-.85-1.15-2.05q1 .3 2.2 1.75l.45.6q-.7.1-1 .55m-5.9 5.6-.75-1.45-.6-1.45-.1-.35.05-.2.05-.15.3-.65.55-.8 1.05 2.15.2.35-.75 2.55" fill="#e4a222" transform="translate(24.2 32.15)"/><path d="m1.15-5.65.55-.1L2.75-6l.85-.3q1.45-.45 2.55-1.2l.75-.55.5-.45.1.4.1 2.2L7.35-2l-.4.55Q2.75-.3-.7-.2l-3.35.05.4-3.7L-.8-4.2l1.25.15.35-.45.35-1.15M-16.3-2.6q-3.3-1.3-4.5-2.75l-.25-.65-1.7-4.7q3.3 1.75 7 3l-.9 3.6.45.2.25.25-.25.7-.1.35M5.75.3l-.3.5-.95 1.65q0 .25 1.45.3h1q-3.2 2.4-3 5.1l-1.35-.4.2 2.15-1.75-.2-.55.05-.45-.6q-1.2-1.45-2.2-1.75l-.15-.2-.5-1 .25-.25Q2.95.25 5.75.3" fill="#945119" transform="translate(24.2 32.15)"/><path d="m-4.75-30.25.15-.1 1.15.6q2.85 1.6 5.4 4.7 2.7 3.2 3.8 6.15l1.5 4.85.45 2.75v1.1l.25 1.1-.05.05-.55.4-.4.25q.05-4.55-3.6-11.5Q.8-24.75-2.2-27.45q-1.6-1.45-3.25-2.3l.7-.5" fill="#260327" transform="translate(24.2 32.15)"/><path d="m-9-6.95-.2-.85q0-1.1 1.15-1.95 1.1-.8 2.35-.8 1.85 0 2.85 1.15.95 1.1.95 2.8l-.05.55h-.5l-3.45-.3H-6l-3-.6m8.15.8L-.6-8.8q.15-1.85.85-1.85.75 0 1.15 2.55l.1.55.1 1.05-.3.05-2.15.3" fill="#8f2d65" transform="translate(24.2 32.15)"/><path d="M6.1-7.95q-.65-4.8-1.85-7.85Q2.4-20.75-2.2-27.45q3 2.7 5.55 7.55Q7-12.95 6.95-8.4l-.85.45m1.3-.55.5-.55q.6.75.65 2.85l-.1 2.45-.15.35-.15.3-.05.05L7.35-2l.25-3.9-.1-2.2-.1-.4" fill="#737b63" transform="translate(24.2 32.15)"/><path d="m9.8-7.5.4-.8q.5-.75 2.8-1.15l3.7-.35q1.8 0 3.4 1.15 1.4 1 2 2.4 2.15 4.8 2.15 5.7 0 1-3.5 8.15l-.15.35.25 5.15q0 7.6-1.65 9.55-1.35 1.6-6.2 1.85h-1.5L8 23.95 5.25 28.2q-2.4 3.45-3.65 4l-3.1-.8q-.35-.15-.65-.25-2.4-.95-3.3-2.3l-2.15-3-.4-.6q-1.2-1.95-1.2-3.05l.7-1.35 1.1-1.15-.15.85-.05.35-.5.5-.5 1 1 2 3 4.65q.35.5 1.6.95l1.35.4 2.8.55q1.4 0 3.75-3.15 1.75-2.35 2.45-4.1l.05-.15L5.55 22q-1.3-1.25-1.3-2v-.3l.3-2.2.15.4.15.55-.2 1.25.1.25.65.85.25.25 1.55 1.5q1.1.9 3.15.9h.4l1.5-.05 3.2-.6q2.05-.6 2.45-1.2 1.45-1.95 1.45-9.9l-.15-2.65-.15-1.15q1.2-1.4 2.35-3.75 1.45-2.9 1.45-4.1 0-4.7-2.65-6.65-2.3-1.75-7.15-1.75l-.2.05q-1.25.05-1.7 1l-.3 1.15-.05.05-.95 1L8.3-3.4l.15-.35.55-1.6.75-2 .05-.15M-8.15 11.95q-1.55-.25-3.25-1.3-2.25-1.35-4.65-4.05l-1.2-1.35-2.1-3.05q-1.6-2.85-1.6-5.4l.05-1 .75.6.15.1q.1 2.5 1.4 5.1l1.8 3 .2.3q2.5 3.35 5.75 5.1 1.45.8 3.05 1.25l-.35.7m25-.4.7 2.4h-.05l-.45-1.1-.2-.45-.3-.65q-.85-1.8-1.15-1.8l-1.1.5-.75.3-.35-.1 1.35-.65 1.2-.4q.65 0 .95 1.3l.15.65m-3.3-8.95L14 3.75l4.6.45v.05l-2.05.3-1.7-.2-1.05-.15-.1.05-.85-1.6.55-.05h.15m-6.6.15h1.1Q6 3.65 5.1 4.85 4.3 5.9 4.3 7.5v.45l-.25-.1h-.1q-.2-2.7 3-5.1m-8.55 9.7L-.55 10h.05q.3-.45 1-.55l.55-.05 1.75.2.1.7-1.2-.3-.85-.15H.6q-.4 0-.9.55l-.55.9-.6 1.3-.1.35-.15-.2-.05-.05.15-.25m3.85 6.45-.4-.8.75.1q.6 0 .65.55l.1.5.45 2.45h-.05l-1.2-2.9-.3.1" fill="#683a30" transform="translate(24.2 32.15)"/><path d="m-7.6 24.4-1-2 .5-1 .5-.5-.15 1.65v.25l.15.1.25.2-.25 1.3M10.85-6.15l.3-1.15q.45-.95 1.7-1l-.25 1.6-1.05-.1-.7.65M12.2 2.7l.05 1q0 2.7-.95 4-.75 1.05-2.35 1.5L4.4 7.95h-.1V7.5q0-1.6.8-2.65.9-1.2 2.95-2.1H9.3l2.9-.05M-1.55 12.95l.1-.35.6-1.3.55-.9q.5-.55.9-.55h.25l.85.15 1.2.3.45 2.75-.8.95q-.65.7-2.1.7-.2 0-.9-.4l-.1-.1-.4-.55-.55-.6-.05-.1m-9.3-2.95q-3.25-1.75-5.75-5.1l-.2-.3.6-.6q1.2-1 2.35-1 1.45 0 2.65 1.05 1.45 1.25 1.45 3.3 0 .7-.5 1.7l-.6.95" fill="#ffffd7" transform="translate(24.2 32.15)"/><path d="m12.85-8.3.2-.05q4.85 0 7.15 1.75 2.65 1.95 2.65 6.65 0 1.2-1.45 4.1-1.15 2.35-2.35 3.75l.15 1.15.15 2.65q0 7.95-1.45 9.9-.4.6-2.45 1.2l-3.2.6-1.5.05-1.55-.85q-1.7-1.05-2.4-2.25l1.55.25 1.1.15 4.3.55 1.8-.1h.05l.15-.9-.15-4.25-.85-4.05-.25-.9-.95-.35.75-.3 1.1-.5q.3 0 1.15 1.8l.3.65.2.45.45 1.1h.05l-.7-2.4q.1-1.95 1.05-4.6L19.4 3h-.35l-1.15.35-.6-.1-.15-.75h.2l1.3-1.7Q19.7-1.3 19.7-4l-.1-1.65-3.75-.65-3.25-.4.25-1.6m-8.6 28v.3q0 .75 1.3 2l1.85 1.55-.05.15q-.7 1.75-2.45 4.1-2.35 3.15-3.75 3.15l-2.8-.55L-3 30l-.85-1.4q-1.45-2.45-1.6-3.95l.8.55.6.4 2.55 1.5.4-.3.65-.6.2-.2 1.95-2.25L2.75 22l.35-.95-.05-.25-.8-1.9.3-.1 1.2 2.9h.05l-.45-2.45.9.45M-11.35-.2l.25.05 4.55.65 2.4.1 8-.6Q1.4 1.4-.95 3.15l-2.3 1.95-1.65 1.75q-.5-2.5-3-4.15-2.15-1.45-4.55-1.85l1.1-1.05" fill="#ab5b4a" transform="translate(24.2 32.15)"/><path d="m-7.4 19.7.05-.15.7-3.25.1-.15.05-.35.05-.1.05-.1.75-2.55 1.05-2.7.4.25q1.2.75 2.45 2.1l.05.05.15.2.05.1.55.6.4.55 1.3 1.95 1.1 1.95.4.8.8 1.9.05.25-.35.95-1.05 1.75L-.25 26l-.2.2-.65.6-.4.3-2.55-1.5-.6-.4-.8-.55-1.9-1.55-.25-.2-.15-.1v-.25l.15-1.65.05-.35.15-.85M7.35-2l.75-1.05.05-.05.15-.3 1.55-1.7.95-1 .05-.05.7-.65 1.05.1 3.25.4 3.75.65.1 1.65q0 2.7-1.05 4.8l-1.3 1.7h-.2l-.45-.05-.6-.05-2.55.2h-.15l-.55.05h-.1l-.55.05-2.9.05H5.95Q4.5 2.7 4.5 2.45L5.45.8l.3-.5L6-.05l.25-.35.7-1.05.4-.55m-2.5 20.45-.15-.55-.15-.4-.65-2.15-.55-2.3-.45-2.75-.1-.7-.2-2.15 1.35.4h.1l.25.1h.1L8.95 9.2l1.85.6 2.4.85.35.1.95.35.25.9.85 4.05.15 4.25-.15.9h-.05l-1.8.1-4.3-.55-1.1-.15-1.55-.25-1.45-.3-.05-.2-.45-1.4M19.15-4.3q-.35-1-1.7-1.4l-4-.5h-.05l-.9.15h-.1l-.7.25-1 .65-.5.5-3.15 4.5L6.3.95l-.55.85-.15.25 11.05-.15.4-.1.05-.05q.8-.35 1.4-1.6.75-1.6.75-3.65l-.1-.8M8.2 9.7Q4.95 8.6 3.15 8.25v.15q0 .95.75 3.85l.6 2 1.65 5.5.45.1 1.8.3 2.85.25 3.4.05.1-.1.1-.3.15-.65v-1.45q0-4.05-.9-6.05l-.25-.15-4.1-1.5-1.05-.4-.45-.15H8.2M-.55 25.45l.95-1.2q1.4-1.95 1.85-3.35l.1-.15-.1-.15-.8-1.5-1.7-2.95-1.25-2-.3-.5q-1.4-1.9-2.4-2.7l-.15-.15-.95 2.85q-1.1 3.7-1.8 8.75v.15l.05.1 1.6 1.5 1.25.9 2.65 1.45.05.05.95-1.1" fill="#5e5153" transform="translate(24.2 32.15)"/><path d="m19.15-4.3.1.8q0 2.05-.75 3.65-.6 1.25-1.4 1.6l-.05.05-.4.1-11.05.15.15-.25 7.2-3.15 6.2-2.95m-4.3 24.35-.95-1.45-2.9-3.85-3.6-3.25-2.1-1.75.05-.05h2.9l.45.15 1.05.4 4.1 1.5.25.15q.9 2 .9 6.05v1.45l-.15.65m-16.65-6.4.3.5 1.25 2 1.7 2.95.8 1.5.1.15-.1.15Q1.8 22.3.4 24.25l-.95 1.2Q-1.2 21.7-2.1 18q-1.15-4.8-1.6-5.55l.05-.05 1.85 1.25" fill="#8e787b" transform="translate(24.2 32.15)"/><path d="m11.7-5.8.7-.25h.1l.9-.15h.05l4 .5q1.35.4 1.7 1.4l-6.2 2.95-7.2 3.15.55-.85Q7.75.75 10-.9q2.85-1.95 2.85-3.25l-.7-1.2-.45-.45M3.15 8.4v-.15q1.8.35 5.05 1.45H5.35l-.05.05 2.1 1.75 3.6 3.25 2.9 3.85.95 1.45-.1.3-.1.1-3.4-.05-2.85-.25q.05-2.15-.65-4.1-1.1-3-4.6-7.65m-3.7 17.05-.95 1.1-.05-.05-2.65-1.45-.6-3.15-.35-3.95q0-2.15.5-3.75.45-1.55.45-2.6v-.65q1 .8 2.4 2.7l-1.85-1.25h-.05v.05q.45.75 1.6 5.55.9 3.7 1.55 7.45" fill="#edded6" transform="translate(24.2 32.15)"/><path d="M10.75 23.45h-.4q-2.05 0-3.15-.9l-1.55-1.5-.25-.25-.65-.85-.1-.25.2-1.25.45 1.4.05.2 1.45.3q.7 1.2 2.4 2.25l1.55.85m-6.2-5.95-.3 2.2-.9-.45-.1-.5q-.05-.55-.65-.55l-.75-.1-1.1-1.95-1.3-1.95.1.1q.7.4.9.4 1.45 0 2.1-.7l.8-.95.55 2.3.65 2.15M-3 30q-1.25-.45-1.6-.95l-3-4.65.25-1.3 1.9 1.55q.15 1.5 1.6 3.95L-3 30M17.15 2.5l.15.75.6.1L19.05 3h.35l-1.5 3.95q-.95 2.65-1.05 4.6l-.15-.65q-.3-1.3-.95-1.3l-1.2.4-1.35.65-2.4-.85-1.85-.6q1.6-.45 2.35-1.5.95-1.3.95-4l-.05-1 .55-.05h.1l.85 1.6.1-.05 1.05.15 1.7.2 2.05-.3V4.2L14 3.75l-.45-1.15 2.55-.2.6.05.45.05M-4.9 6.85l-.8.95-1.45 2.2-.65 1.25q-1.6-.45-3.05-1.25l.6-.95q.5-1 .5-1.7 0-2.05-1.45-3.3Q-12.4 3-13.85 3-15 3-16.2 4l-.6.6-1.8-3q.55-.35 1.4-.55l2.9-.35 1.8.15h.05q2.4.4 4.55 1.85 2.5 1.65 3 4.15" fill="#e3a38b" transform="translate(24.2 32.15)"/><path d="m-14.05-7.15 1.8.45 3.8.85-.15.7-.9-.15-.5-.05-.95 4.4-3.25-.9-1.15-.4.25-1 1.05-3.9M6.3.95l.75-1.1 3.15-4.5.5-.5 1-.65.45.45.7 1.2q0 1.3-2.85 3.25Q7.75.75 6.3.95m-11.5 7.5.45-.5L-2.8 5.9l.5 1 .15.2L-1 9.15l.5.85h-.05l-1.05 2.45-1.85-1.95-1.75-2.05m8.35-.05q3.5 4.65 4.6 7.65.7 1.95.65 4.1l-1.8-.3-.45-.1-1.65-5.5-.6-2q-.75-2.9-.75-3.85M-4.2 25.05l-1.25-.9-1.6-1.5-.05-.1v-.15q.7-5.05 1.8-8.75l.95-2.85.15.15v.65q0 1.05-.45 2.6-.5 1.6-.5 3.75l.35 3.95.6 3.15" fill="#fff" transform="translate(24.2 32.15)"/><path d="m-8.45-5.85.85.15 2.4.3.15.9q0 1.15-.8 3.3l-.4 1h-.4l-3.75-.6-.55-.15.95-4.4.5.05.9.15.15-.7m3.25 14.3 1.75 2.05 1.85 1.95-.15.25Q-3 11.35-4.2 10.6l-.4-.25-1.05 2.7-.2-.35-1.05-2.15 1.7-2.1" fill="#ffe868" transform="translate(24.2 32.15)"/><path d="M-20-3.5q1.35.85 3.45 1.7l1 .35 3.75 1.1.45.15-1.1 1.05h-.05L-14.3.7l-2.9.35q-.85.2-1.4.55Q-19.9-1-20-3.5" fill="#8c694a" transform="translate(24.2 32.15)"/></g><g id="n" fill-rule="evenodd"><path d="M13.65-19.85q.55-.35 1.2-.5l.8.05q1.8.25 3.7 1.7 2.35 1.8 2.35 3.7l-.05 1-.05.15-.2.35-.45.35-.55.05-.95-.25-.95-.2-.35-.05-1.1.15-.25.05q-1.25.3-2.5 1.25-1.9 1.4-3.3 1.4-.75 0-1.2-.85-.35-.8-.35-2.05v-.5q.2-1.85 1.5-3.5l.25-.35.05-.05.8-.8.9-.65.7-.45m.25 1.25-.25.1-.75.45q-1 .6-1.65 1.3l-.05.1q-.9 1.1-.9 2.6l.05.8.2.75q.25.5.95.5.95 0 2.65-.85l1.9-1h.05l1.75-.2h.75q1.75-.25 1.75-1.15 0-1.4-2.4-2.6-1.6-.75-2.9-.95l-.6-.15-.1.05h-.05l-.4.25" fill="#470a0c" transform="translate(61.35 23.7)"/><path d="m12.95-19.4-.9.65-1.05-.7q-1.65-.9-3.3-1.9l2.3.6 2.95 1.35m5.55 5.95.95.2.95.25.55-.05L23-9.6l-1.4.3q-.8-2-3.1-4.15M14.35 6.1Q9.05 7.75 6.2 8.3l-4.7.5 12.7-4.25.15 1.55m7.6-13.65.35.35 2.3 2.1-.55-.05-1.8.25-.3-2.65" fill="#737b63" transform="translate(61.35 23.7)"/><path d="m12.05-18.75-.8.8-.05.05-.25.35q-1.3 1.65-1.5 3.5v.5q0 1.25.35 2.05.45.85 1.2.85 1.4 0 3.3-1.4 1.25-.95 2.5-1.25l.25-.05 1.1-.15.35.05q2.3 2.15 3.1 4.15l-1 .25 1.35 1.5.3 2.65-1.35.25q-2.1.5-2.1.8 0 .35 1.15 1.65l2 2.6.05.1-2.8-.3-1 .15.65 1.9.65 2.05-2.3-.85-2.45-.6q-.4 0-.5.25l-.05.15v1.3L1.5 8.8l-1.4.05L4.5 7.1Q9.45 5 9.45 4.15q0-.95-4.8-.95L-5.9 2.85Q-21.25.9-21.25-12.55q0-2.35 1.05-5.85l.5-1.45h.35q3.25 0 10.2-1.9Q-2.2-23.7-.6-23.7q1.4 0 2.45.55l.6.4-.35.05-.05.45L2-22.3l-.05.35h2.8l2.95.6q1.65 1 3.3 1.9l1.05.7M6.9-1.45l4.5-.5q2.1-.55 2.1-1.55 0-1.75-2.85-2.6L5.8-6.75 4.25-6.9l-.45.7q-1 1.7-1 2.65 0 .9 1.1 1.5 1.15.6 3 .6" fill="#310e28" transform="translate(61.35 23.7)"/><path d="m13.65-19.85-.7.45L10-20.75l-2.3-.6-2.95-.6h-2.8L2-22.3l.05.05.05-.45.35-.05 1.2-.05q3.3 0 6.65 1.25 2.3.8 3.35 1.7m7.3 6.8.45-.35.6.15.8 1.1.65 1 .65 1.4-1.1.15-2.05-3.45M14.45 6.7Q9.25 8.35 4.7 8.85l-4.3.3H-.75l-5.1.1-2.55-.2q-.4.5-2.55 1.8l-2.2 1.15-.3.2-.2.05-3.8-2.55q-1.6-1.05-6.3-3.45l-1.4-.75-.5-.25-.75-.35-3.75-2.4-.55-.45q-1.85-1.7-2.4-3.55l-.15-.5-.1-1.15q-.05-1.55.5-3.3l.15-.55q.6-1.9 1.8-3.95l.5-.75 1.65-2.55.7-.85.95-1.25.2-.25 1.95-2.1 2.75-2.15.65-.35.35.3-.6.4q-1.85 1.25-3.5 3.05l-.75.75-2.3 2.9q-3.9 5.4-3.9 9.95 0 4.2 4.9 7.55l2.1 1.25 4.85 2.3.3.1q.55.2 1.2.5 1.7 1.05 3.05 2l2.3 1.75.05.05 2.2-1.45 2.4-1.7.2-.15 2.45.3 4.45.2H.1l1.4-.05 4.7-.5q2.85-.55 8.15-2.2l.1.55v.05" fill="#260327" transform="translate(61.35 23.7)"/><path d="M11.25-16.75q.65-.7 1.65-1.3l.75-.45.25-.1.15.2.4 1.1-.1.7q-.4.7-1.55.7-.9 0-1.45-.8l-.1-.05" fill="#fff" transform="translate(61.35 23.7)"/><path d="m14.35-16.6.1-.7-.4-1.1-.15-.2.4-.25h.05l1.7.75q1 .7 1 1.75 0 .85-.55 1.2-.55.3-.55.8 0 .3.15.5h-.05l-1.9 1q-1.7.85-2.65.85-.7 0-.95-.5l-.2-.75.75.15q3.55 0 3.55-2.45l-.25-.95-.05-.1" fill="#e4a222" transform="translate(61.35 23.7)"/><path d="m14.35-18.85.1-.05.6.15q1.3.2 2.9.95 2.4 1.2 2.4 2.6 0 .9-1.75 1.15h-.75l-1.75.2q-.15-.2-.15-.5 0-.5.55-.8.55-.35.55-1.2 0-1.05-1-1.75l-1.7-.75" fill="#945119" transform="translate(61.35 23.7)"/><path d="m11.25-16.75.1.05q.55.8 1.45.8 1.15 0 1.55-.7l.05.1.25.95q0 2.45-3.55 2.45l-.75-.15-.05-.8q0-1.5.9-2.6l.05-.1" fill="#ffe868" transform="translate(61.35 23.7)"/><path d="m22-13.25 5.2-.8 1.5-.2 3.9-.2h.3l4.85.65 2.4.45q4.9 1.15 6.95 1.15l1.7-.1 2.1-.4q-1.25 2.05-3.6 3.95l-2.8 1.9 8.35 4q3.65 1.75 8.3 3.4l-4.4 1.7q-3.1.95-5.25.95l-1.3-.15h-.1q2.75 2.45 4.65 3.6l6.6 3.2-3 .75-4.25.3-1.65-.1-1.7-.1-4.75-.2-2.85-.3-4.45-.65 2.4 2.4 2.4 2.6-7.4-.45-2.4-.4q-1.6-.4-6.95-2.95l2.8 3.65q1.6 2.2 2.35 3.9l-5.8-1.65q-10.25-3.7-11.65-9.95v-.05l-.1-.55-.15-1.55v-1.3l.05-.15q.1-.25.5-.25l2.45.6 2.3.85-.65-2.05-.65-1.9 1-.15 2.8.3-.05-.1-2-2.6Q18.8-3.5 18.8-3.85q0-.3 2.1-.8l1.35-.25 1.8-.25.55.05-2.3-2.1-.35-.35-1.35-1.5 1-.25 1.4-.3 1.1-.15.3-.1 6.15-.4h.25l3.1.15 3.3.5L42.25-8l.15.05Q43.6-8 45.45-9.1q2.25-1.3 3.15-2.95l-1.95.15-1.45.15-4.6-.65-1.85-.25L35.2-13l-1.8-.05-3.05.1-2.7.25-4.85.55-.8-1.1m-45.75 19.5q-2.1 1.85-5.7 3.15-7.1 1.9-8.35 1.9h-.1l-2.5-.25-2.3-.4 2.3-1.75 1.4-1.05-3.35.35-3.4-.25q-3.3-.5-5.1-2.05l.65.1q1.4 0 2.95-.75l1.05-.6q-4.7-.75-7.85-1.7-5.05-1.6-7.3-5.5.75.4 1.45.5l2.45.1 3.05-.2q4.55-.55 8.65-2.7l-4.75-3.2q-2.95-2.15-6.3-6.65 5 1.55 10.55 1.75 3 .1 6.7-.1L-41-14.3l-1.5-1.75q-2.05-2.45-2.7-4.35 5.1 2.55 11.45 2.75l4.05.15q1.5.25 2.4.95l.2.2-.95 1.25q-.9-.55-2.2-.85l-4.3-.65q-5.25-.25-8.25-1.35l3 3.6.7.65q1 .9 1.8 1.05l1.9.4 2.05.25 2.05.25.9.05-.5.75-1-.1h-4.85l-7.4-.2q-5.95-.35-9.7-1.45 2.9 2.8 6 4.95l1.6 1.1q1.75 1 2.55 1l7.55-.9.1-.05 3.35-.4-.15.55-3.5.25-2.8.35q-2.9.5-5.55 1.5l-6.15 2.6-2.5.75-1.85.25-1.15.05-1.5-.1-.8-.1Q-56.7.8-51.2 2.05l.35.05 1.4.3 5.4.7q1.4 0 4.1-1.9 2.85-2.05 6.7-3.2l.15.5-3.3 1.35-.75.4-3.85 2.4q-5.45 3.7-7 3.9l1.7.55 1.75.4.65.05q3.7 0 7.8-2.45 3.25-2 5.4-3.05l.55.45-2.75 1.65-2.25 1.65-.5.4L-38 8.6q-1.3 1.25-3.05 1.75.45.4 1.35.4l2.45-.15q4.9-.75 10.85-4.3l1.25-.8 1.4.75M32.5-9.15l-1.9-.1-4.85.25-1.35.1-.95.05h-.1l-1.6.1-.1.05.15.2 2.05 2 1.6 1.35.15.15h4.8q1.7 0 8.7 2.65l3.4 1.3 1.45.6 1.9 1q1.15.6 1.85.8l4 .5 3.4-.45 2.95-.85q-1.8-.55-5.3-2.3L46.3-5q-5.8-2.8-10.75-3.75h-.2l-2.85-.4m-5 4.75-2.7-.1-2.45.2h-.1l-2.65.45 3.05 3.9.2.2.1.05q4.95.75 9.95 4.1l.25.15q3.95 2.7 5.05 4.5l5.6.35 1.75.1 5.4.15 4.15-.35 2.6-.25q-1.65-.8-5.35-3.15L45 1.3 43 .25 39.95-1.2Q33.6-3.95 27.5-4.4M22.9.75 22.4.7l-3.55.1q.5 2 1.45 3.2l2 1.85 2.3 2.4 1.55 1.6q2.2 1.5 6.2 2.65l2.3.65 5.3.6 1.6-.1-2.95-3.9-.15-.15-.55-.6-.25-.2Q35.85 7 33.5 5.55l-.15-.05-3.05-1.9-.55-.35-1.55-.85Q25.2.85 22.9.75m.9 7.85-.1-.15-.9-.9q-3.65-3.3-7.95-3.7l-.1.4v.15q.1 5.3 6.05 8.75 2 1.2 5.1 2.3l.15.05L30 17q-4.25-6.2-6-8.15l-.2-.25" fill="#461354" transform="translate(61.35 23.7)"/><path d="m24.1-9.75-.65-1.4-.65-1 4.85-.55 2.7-.25 1.1.9 2.45 1.95-3.1-.15h-.25l-6.15.4-.3.1M35.2-13l3.55.35L41.4-9.7q-1.05-.4-3.8-1.95L35.2-13M45.85.55l-1.9-1-1.45-.6-3.4-1.3Q32.1-5 30.4-5h-4.8l-.15-.15-1.6-1.35-2.05-2-.15-.2.1-.05 1.6-.1h.1l.95-.05 1.35-.1 4.85-.25 1.9.1 8.6 5.6q2.85 1.95 4.75 4.1m-.3 8.95-1.75-.1-5.6-.35q-1.1-1.8-5.05-4.5l-.25-.15q-5-3.35-9.95-4.1l-.1-.05-.2-.2-3.05-3.9 2.65-.45h.1l2.45-.2 2.7.1q3.2 1.3 6.25 3.4l5.65 4.4q2 1.65 6.25 2.8 3.55 1 5.55 1L48 8.7l-2.45.8m-5.6-10.7L43 .25l.65 1.6.4 1.8L44 4 41.4.65 39.95-1.2m-5.3 14.35-2.3-.65q-4-1.15-6.2-2.65l-1.55-1.6-2.3-2.4-2-1.85q-.95-1.2-1.45-3.2L22.4.7l.5.05q.85.4 1.95 1.1 2.6 1.6 4 3.4.8 1.05 2.2 4.15 1.25 2.05 3.6 3.75M30.3 3.6l3.05 1.9.9 1.7 1.25 2.85v.55h-.15L32.7 6.7l-2.4-3.1m-4.25 11.9-.15-.05q-3.1-1.1-5.1-2.3-5.95-3.45-6.05-8.75v-.15l.1-.4q4.3.4 7.95 3.7l.9.9.1.15.2.3q.85 1.35 1.4 2.85.45 1.25.65 3.75m-62.8-26.55h2.15l.25.55 1.5-.55h.95l1 .1Q-32.1-8.9-32.7-7l-3.35.4-.1.05-7.55.9q-.8 0-2.55-1l3.2-.7-1.4-1.8 2.8 1.15.9-.5 2.05-.5 2 .25q-.05-.4-1-1l-.95-.6v-.05l1.75.4 2.15.65-2-1.7m6.35-.65-.9-.05-2.05-.25-2.05-.25-1.9-.4q-.8-.15-1.8-1.05l.3.05q1.95 0 4.75-1.15l3.8-1.15q1.3.3 2.2.85l-.7.85-1.65 2.55m-4.35 2.35.1.05-.05-.05h-.05M-49.5 2.3l2.15.2q1.8 0 2.95-.7.85-.5.85-1l-2.7-2.6v-.15l1.6.45q.8.4 1.55.4 1.5 0 3.3-.55l-.8-.65-.85-.7-.1-.1.65.15.75.15q1.3 0 2.35-1.15.65-.75 1.45-2.25l3.5-.25q-.55 1.75-.5 3.3l.1 1.15q-3.85 1.15-6.7 3.2-2.7 1.9-4.1 1.9l-5.4-.7-.05-.1M-53.35-1l1.3 1.5h-.05l-2.1-.8-1-.45 1.85-.25m8.8 8.5q1.2-.5 2.2-1.3 1.4-1.05 2.25-2.35l1.9-2.5 1.05-1.1.75-.4 3.3-1.35q.55 1.85 2.4 3.55-2.15 1.05-5.4 3.05-4.1 2.45-7.8 2.45l-.65-.05m9.4-1.7 2.25-1.65 2.75-1.65 3.75 2.4.75.35.5.25-1.25.8q-5.95 3.55-10.85 4.3.85-1.15 1.3-2.55l.8-2.25" fill="#b04ba5" transform="translate(61.35 23.7)"/><path d="m33.9-10.1-2.45-1.95-1.1-.9 3.05-.1 1.8.05 2.4 1.35q2.75 1.55 3.8 1.95l-2.65-2.95 1.85.25 4.6.65 1.45-.15 1.95-.15q-.9 1.65-3.15 2.95Q43.6-8 42.4-7.95L42.25-8 37.2-9.6l-3.3-.5m-1.4.95 2.85.4h.2Q40.5-7.8 46.3-5l6.45 3.25q3.5 1.75 5.3 2.3l-2.95.85-3.4.45-4-.5q-.7-.2-1.85-.8-1.9-2.15-4.75-4.1l-8.6-5.6m-5 4.75q6.1.45 12.45 3.2L41.4.65 44 4l.05-.35-.4-1.8L43 .25l2 1.05 7.35 4.6q3.7 2.35 5.35 3.15l-2.6.25-4.15.35-5.4-.15L48 8.7l3.2-1.5q-2 0-5.55-1-4.25-1.15-6.25-2.8L33.75-1Q30.7-3.1 27.5-4.4M22.9.75q2.3.1 5.3 1.65l1.55.85.55.35 2.4 3.1 2.65 3.9h.15v-.55L34.25 7.2l-.9-1.7.15.05Q35.85 7 37.65 8.8l.25.2.55.6.15.15 2.95 3.9-1.6.1-5.3-.6q-2.35-1.7-3.6-3.75-1.4-3.1-2.2-4.15-1.4-1.8-4-3.4-1.1-.7-1.95-1.1m3.15 14.75q-.2-2.5-.65-3.75-.55-1.5-1.4-2.85v-.05q1.75 1.95 6 8.15l-3.95-1.5M-34.6-11.05h1.75l-1.5.55-.25-.55m-4.5-2.65-.7-.65-3-3.6q3 1.1 8.25 1.35l4.3.65-3.8 1.15q-2.8 1.15-4.75 1.15l-.3-.05m-7.15 7.05-1.6-1.1q-3.1-2.15-6-4.95 3.75 1.1 9.7 1.45l7.4.2 2 1.7-2.15-.65-1.75-.4v.05l.95.6q.95.6 1 1l-2-.25-2.05.5-.9.5-2.8-1.15 1.4 1.8-3.2.7m1.75-2.55h-.05l.1.05-.05-.05m8.15 3q-.8 1.5-1.45 2.25-1.05 1.15-2.35 1.15l-.75-.15-.65-.15.1.1.85.7.8.65q-1.8.55-3.3.55-.75 0-1.55-.4l-1.6-.45v.15l2.7 2.6q0 .5-.85 1-1.15.7-2.95.7l-2.15-.2-2.15-.8.45.55Q-56.7.8-58.65-.9l.8.1 1.5.1 1.15-.05 1 .45 2.1.8h.05l-1.3-1.5 2.5-.75 6.15-2.6q2.65-1 5.55-1.5l2.8-.35m-8.2 13.7-1.75-.4-1.7-.55q1.55-.2 7-3.9l3.85-2.4-1.05 1.1-1.9 2.5q-.85 1.3-2.25 2.35-1 .8-2.2 1.3m9.4-1.7-.8 2.25q-.45 1.4-1.3 2.55l-2.45.15q-.9 0-1.35-.4 1.75-.5 3.05-1.75l2.35-2.4.5-.4" fill="#ff87ff" transform="translate(61.35 23.7)"/><path d="m-21.8-20.5.6.25 1.5.4-.5 1.45q-1.05 3.5-1.05 5.85Q-21.25.9-5.9 2.85l10.55.35q4.8 0 4.8.95Q9.45 5 4.5 7.1L.1 8.85h-1.9l-4.45-.2-2.45-.3-.2.15-2.4 1.7-2.2 1.45-.05-.05-2.3-1.75q-1.35-.95-3.05-2-.65-.3-1.2-.5l-.3-.1-4.85-2.3 1.05-.7q1.7-1.55 1.7-3.5 0-1.6-.85-2.95-1-1.6-2.65-1.6l-1.15.25q-.4-1.95-.4-3.2 0-1.6 1.3-6.95l.95-3.75q1.65-1.8 3.5-3.05M6.9-1.45q-1.85 0-3-.6-1.1-.6-1.1-1.5 0-.95 1-2.65l.45-.7 1.55.15 4.85.65q2.85.85 2.85 2.6 0 1-2.1 1.55l-4.5.5" fill="#5d1f3c" transform="translate(61.35 23.7)"/><path d="m-25.25 4.95-2.1-1.25q-4.9-3.35-4.9-7.55 0-4.55 3.9-9.95l2.3-2.9.75-.75-.95 3.75q-1.3 5.35-1.3 6.95 0 1.25.4 3.2L-26-3.8q1.65 0 2.65 1.6.85 1.35.85 2.95 0 1.95-1.7 3.5l-1.05.7" fill="#ab3c71" transform="translate(61.35 23.7)"/><path d="m13.25 20.35.6.65q1.95 2 4.75 2l.95-.1q1.45-.15 2.7-.95L23.3 21q1.95-1.95 1.95-4.7 0-1.8-.8-3.25l-1.15-1.5-.45-.4Q21.05 9.6 18.6 9.6q-1.65 0-2.95.65-.95.5-1.7 1.25l-.1.05q-.85.85-1.3 1.8l-.45 1.2-.2 1.75.25 1.85q.3 1.2 1.1 2.2m1.9-10.65q1.55-.85 3.45-.85 2.6 0 4.6 1.6l.65.6Q26 13.2 26 16.3q0 3.05-2.15 5.25-1.5 1.45-3.35 1.95l-.75.15h-.2l-.95.05q-3.1 0-5.25-2.15l-.75-.85q-.75-.95-1.1-2.1-.35-1.1-.35-2.3 0-1.1.25-2.05.2-.7.55-1.35.5-1 1.4-1.85l.35-.35q.65-.6 1.45-1" fill="#470a0c" transform="translate(61.35 23.7)"/><path d="m16.65 12.75-.4-1.15-.6-1.35q1.3-.65 2.95-.65 2.45 0 4.25 1.55l-.1.15-.55.65q1.15 1.6 1.15 4.15 0 2.35-1.1 3.95-1.05 1.5-2.9 1.95l.2.9-.95.1q-2.8 0-4.75-2l-.6-.65 1-.6 1.05-1.05.4.5q.95.9 2.15 1.1l.75.05q1.65 0 2.85-1.15 1.2-1.2 1.2-2.9 0-1.65-1.2-2.85-1.2-1.2-2.85-1.2-1.1 0-1.95.5" fill="#e4a222" transform="translate(61.35 23.7)"/><path d="m15.65 10.25.6 1.35.4 1.15-.95.7q-1.2 1.2-1.2 2.85 0 1.35.8 2.4l-1.05 1.05-1 .6q-.8-1-1.1-2.2l.3-.45q.55-.85.55-1.5 0-1.15-.9-1.65l.45-1.2q.25.2.4.2.4 0 .7-.35.4-.35.4-1l-.1-.7q.75-.75 1.7-1.25" fill="#ffe868" transform="translate(61.35 23.7)"/><path d="m13.95 11.5.1.7q0 .65-.4 1-.3.35-.7.35-.15 0-.4-.2.45-.95 1.3-1.8l.1-.05m-1.85 3.05q.9.5.9 1.65 0 .65-.55 1.5l-.3.45-.25-1.85.2-1.75m5.15-.55.15-.05q.75 0 .75.55l-.25.5-.6.25q-.5 0-.5-.55l.05-.2.15-.35v-.05l.25-.1" fill="#fff" transform="translate(61.35 23.7)"/><path d="M16.65 12.75q.85-.5 1.95-.5 1.65 0 2.85 1.2 1.2 1.2 1.2 2.85 0 1.7-1.2 2.9-1.2 1.15-2.85 1.15l-.75-.05q-1.2-.2-2.15-1.1l-.4-.5q-.8-1.05-.8-2.4 0-1.65 1.2-2.85l.95-.7m1.7 6.9h.25q1.35 0 2.35-.95.95-1 .95-2.4 0-1.35-.95-2.35l-1.05-.75-1.3-.25q-1 0-1.75.5l-.65.5q-.95 1-.95 2.35 0 .95.45 1.75l.5.65q.95.85 2.15.95" fill="#01291e" transform="translate(61.35 23.7)"/><path d="m18.35 19.65 1.35-1q1.6-1.05 1.6-2.5 0-1-.65-1.85l-.75-1.1 1.05.75q.95 1 .95 2.35 0 1.4-.95 2.4-1 .95-2.35.95h-.25" fill="#d1ffb2" transform="translate(61.35 23.7)"/><path d="m19.9 13.2.75 1.1q.65.85.65 1.85 0 1.45-1.6 2.5l-1.35 1q-1.2-.1-2.15-.95l-.5-.65q-.45-.8-.45-1.75 0-1.35.95-2.35l.65-.5q.75-.5 1.75-.5l1.3.25m-2.9.95-.15.35-.05.2q0 .55.5.55l.6-.25.25-.5q0-.55-.75-.55l-.15.05q-.2 0-.25.15" fill="url(#s)" transform="translate(61.35 23.7)"/><path d="m19.55 22.9-.2-.9q1.85-.45 2.9-1.95 1.1-1.6 1.1-3.95 0-2.55-1.15-4.15l.55-.65.1-.15.45.4 1.15 1.5.25 2.05q0 2.55-1.35 5.05l-1.1 1.8q-1.25.8-2.7.95" fill="#945119" transform="translate(61.35 23.7)"/><path d="M24.45 13.05q.8 1.45.8 3.25 0 2.75-1.95 4.7l-1.05.95 1.1-1.8q1.35-2.5 1.35-5.05l-.25-2.05" fill="#737b63" transform="translate(61.35 23.7)"/><path d="m-29.25 14.7.2.6q.8 1.8 2.1 1.8l.5-.05 1.35-.9.6-.85q1.15-1.8 1.4-4.35.15-1.65-.1-3l-.4-1.35-.2-.35q-.75-1.45-1.95-1.45-.75 0-1.45.6l-.9 1.15-.05.05q-.5.75-.8 1.65l-.35 1.1-.25 1.6v1.7l.3 2.05m1.9-9.8q.8-.75 1.7-.75 1.25 0 2.1 1.45l.25.55q.85 2 .55 4.8-.3 2.8-1.55 4.8-.8 1.35-1.75 1.8l-.35.1-.1.05-.55.05q-1.45 0-2.3-2l-.25-.8-.3-1.85v-2.15l.35-1.85.35-1.25.85-1.7.2-.35.8-.9" fill="#470a0c" transform="translate(61.35 23.7)"/><path d="M-26.95 7.7-27 6.65l-.2-1.25q.7-.6 1.45-.6 1.2 0 1.95 1.45l-.1.15-.3.55q.4 1.45.15 3.8-.2 2.15-.85 3.65-.7 1.35-1.55 1.8v.85l-.5.05q-1.3 0-2.1-1.8l-.2-.6.55-.55.6-1 .15.45.95 1.05.3.05q.8 0 1.5-1.1.65-1.1.8-2.65.15-1.5-.3-2.6-.5-1.1-1.3-1.1-.5 0-.95.45" fill="#e4a222" transform="translate(61.35 23.7)"/><path d="m-27.2 5.4.2 1.25.05 1.05-.5.65q-.65 1.1-.8 2.6-.15 1.25.15 2.2l-.6 1-.55.55-.3-2.05.15-.4q.35-.8.4-1.4.1-1.05-.3-1.5l.35-1.1.15.15.4-.25.25-.95.05-.65.9-1.15" fill="#ffe868" transform="translate(61.35 23.7)"/><path d="m-28.1 6.55-.05.65-.25.95-.4.25-.15-.15q.3-.9.8-1.65l.05-.05m-1.2 2.8q.4.45.3 1.5-.05.6-.4 1.4l-.15.4v-1.7l.25-1.6m2.5-.5.1-.05q.35 0 .3.5l-.15.45-.3.25q-.25 0-.2-.5l.05-.2.1-.35.1-.1" fill="#fff" transform="translate(61.35 23.7)"/><path d="M-26.95 7.7q.45-.45.95-.45.8 0 1.3 1.1.45 1.1.3 2.6-.15 1.55-.8 2.65-.7 1.1-1.5 1.1l-.3-.05-.95-1.05-.15-.45q-.3-.95-.15-2.2.15-1.5.8-2.6l.5-.65m.2 6.3h.1q.7 0 1.25-.85.5-.9.65-2.2.1-1.25-.25-2.15l-.4-.65-.65-.25q-.45 0-.85.45l-.35.45q-.6.9-.7 2.15l.1 1.6.2.6q.35.8.9.85" fill="#01291e" transform="translate(61.35 23.7)"/><path d="m-26.75 14 .75-.9q.85-.95.95-2.3.1-.9-.1-1.7l-.25-.95.4.65q.35.9.25 2.15-.15 1.3-.65 2.2-.55.85-1.25.85h-.1" fill="#d1ffb2" transform="translate(61.35 23.7)"/><path d="m-25.4 8.15.25.95q.2.8.1 1.7-.1 1.35-.95 2.3l-.75.9q-.55-.05-.9-.85l-.2-.6-.1-1.6q.1-1.25.7-2.15l.35-.45q.4-.45.85-.45l.65.25m-1.5.8-.1.35-.05.2q-.05.5.2.5l.3-.25.15-.45q.05-.5-.3-.5l-.1.05-.1.1" fill="url(#t)" transform="translate(61.35 23.7)"/><path d="M-26.45 17.05v-.85q.85-.45 1.55-1.8.65-1.5.85-3.65.25-2.35-.15-3.8l.3-.55.1-.15.2.35.4 1.35-.1 1.9q-.2 2.35-1.1 4.65l-.7 1.65-1.35.9" fill="#945119" transform="translate(61.35 23.7)"/><path d="M-23.2 7.95q.25 1.35.1 3-.25 2.55-1.4 4.35l-.6.85.7-1.65q.9-2.3 1.1-4.65l.1-1.9" fill="#737b63" transform="translate(61.35 23.7)"/></g><g id="o"><path d="m-54.4 37.05 1.25-1.7 2.45-1.8q.8-.45 1.8-.8 4.65-1.95 12.95-2.8h.2l.9 2.9.05.1.6 1.95h-.4q-6.75.8-9.3 2.35-1.15.75-1.35 1.65-.2.85.5 1.9h.05q1.2 1.15 3.55 2.3l1.3.55.8.3-.05.3-.9-.05q-8.2-.25-11.75-1.95-1.3-.6-2.05-1.45-1.35-1.5-.6-3.75m12.05 6.1-2.8-1.9q-1.6-1.5-1.5-3v-.05q-.3-3.85 11.15-5.45l-.3-1.05-.35-1.1q-7.55.8-11.95 2.45-.95.35-1.7.75-1.6.8-2.6 1.7l-1.45 1.8q-.6 1.9.7 3.25l1.7 1.15q3.1 1.5 9.9 1.85l-.8-.4m7.35-8.8-.35-1.05q-10.85 1.55-10.7 4.9v.05l.15.85.05-.35q.2-1.15 1.6-2 2.55-1.6 9.25-2.4" fill="#595b5d" fill-rule="evenodd" transform="translate(54.65 45.9)"/><path d="M-35 34.35q-6.7.8-9.25 2.4-1.4.85-1.6 2l-.05.35-.15-.85v-.05q-.15-3.35 10.7-4.9l.35 1.05m-.8-2.65.3 1.05q-11.45 1.6-11.15 5.45v.05q-.1 1.5 1.5 3l2.8 1.9q-2.5-.15-4.4-1.35-2-1.15-2.55-3.15l-.25-1.75.2-.85q.4-.8 1.65-1.55l1.25-.7 1.05-.45q4.1-1.7 8.3-1.7l1.3.05" fill="#8e787b" fill-rule="evenodd" transform="translate(54.65 45.9)"/><path d="m-42.35 43.15.8.4q-6.8-.35-9.9-1.85l-1.7-1.15 1.5-.75 2.35-1.15q.55 2 2.55 3.15 1.9 1.2 4.4 1.35M-52.4 35.5q1-.9 2.6-1.7l2.1.7q-1.25.75-1.65 1.55l-3.05-.55m4.3-2.45q4.4-1.65 11.95-2.45l.35 1.1-1.3-.05q-4.2 0-8.3 1.7l-1.05.45-1.65-.75" fill="#edded6" fill-rule="evenodd" transform="translate(54.65 45.9)"/><path d="M-53.15 40.55q-1.3-1.35-.7-3.25l1.45-1.8 3.05.55-.2.85.25 1.75-2.35 1.15-1.5.75m3.35-6.75q.75-.4 1.7-.75l1.65.75-1.25.7-2.1-.7" fill="#fff" fill-rule="evenodd" transform="translate(54.65 45.9)"/><path d="m-29.5-41.6.6.8q.5 1 .5 2.2 0 1-.5 1.8.5-.8.5-1.8 0-1.2-.5-2.2l-.6-.8q3.65 1.55 6.95 5.95l.1.05-.95 1.4q-.5.6-.95.8.45-.2.95-.8l.95-1.4q2.35 3.15 4.3 6.6l-.15.2q-.7 1.3-1.85 1.6 1.15-.3 1.85-1.6l.15-.2q2.05 3.75 3.6 7.9Q-11.5-13-10.8-9.8q.45 2.1.45 5.1-.4-4.2-7.2-17.65l-2.6-4.85q-2.25-3.9-4.2-6.2-2.5-2.95-4.5-3.4h-.05q-2.85-.6-4.8 1.1l.15-1.1q0-1.55-.85-2.95l-.1-.15.1.15q.85 1.4.85 2.95l-.15 1.1q-1.15.95-2.05 2.7-1.2 2.45-1.75 5.15l-.1-.05.05.05q-.55 2.5-.55 5.2 0 2.15.4 4.5l.3 1.6q.6.15 1.05.7.6.8.6 1.85l-.25 1.1-.25 1.3q0 2.85 3.85 10.8 1.85.2 2.85 2.15.75 1.55.9 3.65l-.25 1.7q-.15 1.35-1.3 3.8-1.15 2.5-3 2.45-1.85-.05-2.9-2.4-.9-1.8-.9-4.2l.05-1.1.75.15q2.15 0 2.15-2.55L-35.25.1q.95-.95 2.4-.95l.45.05-.45-.05q-1.45 0-2.4.95l-1.25-2.55q-2.45-4.8-2.45-8.6l.25-2.25-.7-3.15-.35-1.6q-1.05-5.35-1.05-9.85l.05-.85q.25-4.55 3.65-8.7l2.6-2.45q1.85-1.45 4-2.1l1 .4m-8.1 13.7q-.9-.95-2.45-.95l-.7.1.7-.1q1.55 0 2.45.95m.2 11.35-.8-.15-1.2.25 1.2-.25.8.15" fill="#e4a222" fill-rule="evenodd" transform="translate(54.65 45.9)"/><path d="M-30.5-42q-2.15.65-4 2.1-1-1.45-2.3-1.45l-1.15.25 1.15-.25q1.3 0 2.3 1.45l-2.6 2.45q-3.4 4.15-3.65 8.7l-.05.85q0 4.5 1.05 9.85l.35 1.6.7 3.15-.25 2.25q0 3.8 2.45 8.6L-35.25.1l1.2 2.75q0 2.55-2.15 2.55l-.75-.15.25-2.05Q-38.25 1.65-39-.75l-.95-4.4-1.5-3.75-1.3-3.55.35-1.45-.3-2-.55-7.7v-2.95q.2-4.8 2.05-9.75 1.25-3.25 3.25-4.8 2-1.55 4.85-1.4l2.6.5m-12.75 15.45.65-.95q.8-1 1.85-1.25-1.05.25-1.85 1.25l-.65.95M-36.7 3.2l.35-1.2q.4-1.2 1.1-1.9-.7.7-1.1 1.9l-.35 1.2m-5.7-17.1 1.25-1.55q.85-.75 1.75-1-.9.25-1.75 1l-1.25 1.55" fill="#ffff45" fill-rule="evenodd" transform="translate(54.65 45.9)"/><path d="M-28.9-36.8q.5-.8.5-1.8 0-1.2-.5-2.2l-.6-.8-1-.4-2.6-.5q-2.85-.15-4.85 1.4l1.15-.25q1.3 0 2.3 1.45l.1.15q.85 1.4.85 2.95l-.15 1.1q1.95-1.7 4.8-1.1h.05q2 .45 4.5 3.4 1.95 2.3 4.2 6.2 1.15-.3 1.85-1.6l.15-.2q-1.95-3.45-4.3-6.6l-.1-.05q-3.3-4.4-6.95-5.95m5.15 8.2q.45-.2.95-.8l.95-1.4m2.3 8.4 2.6 4.85q6.8 13.45 7.2 17.65 0-3-.45-5.1-.7-3.2-3.75-11.3-1.55-4.15-3.6-7.9m-18.8 34.25-.05 1.1q0 2.4.9 4.2 1.05 2.35 2.9 2.4 1.85.05 3-2.45 1.15-2.45 1.3-3.8l.25-1.7q-.15-2.1-.9-3.65-1-1.95-2.85-2.15l-.45-.05q-1.45 0-2.4.95-.7.7-1.1 1.9l-.35 1.2Q-38.25 1.65-39-.75l-.95-4.4-1.5-3.75-1.3-3.55.35-1.45-.3-2-.55-7.7v-2.95q.2-4.8 2.05-9.75 1.25-3.25 3.25-4.8m1 46.35.25-2.05m-4.05-31.95.7-.1q1.55 0 2.45.95l.05.05q-.55 2.5-.55 5.2 0 2.15.4 4.5l.3 1.6q.6.15 1.05.7.6.8.6 1.85l-.25 1.1-.25 1.3q0 2.85 3.85 10.8m-5.1-27.05q.55-2.7 1.75-5.15.9-1.75 2.05-2.7m-3.85 7.85h.05m-3.25-.9q-1.05.25-1.85 1.25l-.65.95m3.85 10.1 1.2-.25.8.15m-2 .1q-.9.25-1.75 1l-1.25 1.55" fill="none" stroke="#7c292d" stroke-linecap="square" stroke-linejoin="miter-clip" stroke-miterlimit="3" transform="translate(54.65 45.9)"/><path d="M-28.7-1.8q0 2.05-1.45 5.75l-.9 2.35.65.75q.85 1.3.85 3.3 0 2.95-2.1 5.2-1.85 1.95-3.45 1.95-1.25 0-2-.4.75-3.3 2.25-6.7l.35-.8.75-1.25.95-1.6 1.2-2.6 1.1-2.35q.75-1.95 1.05-3.95l.75.3v.05m-8.85 18.55q-.9-.8-1.05-2.45l1.3-2.35 3.05-3.9 1.05-1.3-2.7 4.85q-1.5 3.2-1.65 5.15m5.1 25.7-2.9-.15 1.4-3.25 6.65-.2-5.15 3.6" fill="#cc62a7" fill-rule="evenodd" transform="translate(54.65 45.9)"/><path d="m-26.95-1.05-1.7-.8h-.05l-.75-.3q-.3 2-1.05 3.95l-1.1 2.35-1.2 2.6-.95 1.6-.75 1.25-.35.8q-1.5 3.4-2.25 6.7l-.45 2.1-.05-.15v-1.5l.05-.8q.15-1.95 1.65-5.15l2.7-4.85.4-.65.25-.5-.65 1.15-1.05 1.3-3.05 3.9-1.3 2.35-.15.4-.4 1.05-.1.4-.1.05-1.25 2.5-.55 2.15q-.85-3 .95-6.35l1.85-2.85v-.05l2.4-3.05q3.2-3.95 4.3-6 1.7-3.3 1.15-6.25l1.65.35q5 1.2 9.5 5.55 5.15 5.05 5.65 8.95l-.85 1.15q-1.55-4.65-3.9-7.35Q-20.5 2.6-23.9.6l-3.05-1.65m8.25 41.1.25.25-3 1.7-1.45.8-1.05.45.65-1.05.4-.85-7.45 3.9-4.2-.1-.8-1.25-.7-1 1.3-2.7.2-.55.35-.65.15-.35.05-.1 7.65-.3.65.7.85.8 3.1-2.4.05.05q1.15.9 2.45 2.1l.25.25h.05l.25.3m-1.85-.95-1.1-1.15-3.25 2.5-1.8-1.35-5.35 3.6 1.35.85.85.55 7.55-3.95.75-.4-1.15 2.45.3-.25 2.65-2.05-.8-.8m-14.8 4 1 1.35h3.65l-1.85-1.35h-2.8m2.9-.65 5.15-3.6-6.65.2-1.4 3.25 2.9.15" fill="#430010" fill-rule="evenodd" transform="translate(54.65 45.9)"/><path d="m-28.65-1.85 1.7.8q2.25 4.2 3.25 8.95.85 3.95.85 8.85 0 1.45-.65 3.5l-.3 1.15-2.55 1.9-1.3.95q-.1-2.4-1-5.4l-.5-1.6-.1-.55-.3-1.05-.45-.85-.15.3-.15.5-.75 1.5-.05.1-.25.45-1.85 2.95q-1.3 1.95-2.35 2.95-1.2-.95-2.3-2.8-1.65-2.7-1.55-4.05v-.05l.05-.45.1-.05.1-.4.4-1.05.15-.4q.15 1.65 1.05 2.45l-.05.8v1.5l.05.15.45-2.1q.75.4 2 .4 1.6 0 3.45-1.95 2.1-2.25 2.1-5.2 0-2-.85-3.3l-.65-.75.9-2.35Q-28.7.25-28.7-1.8l.05-.05m-6.7 44.95h2.8l1.85 1.35h-3.65l-1-1.35" fill="#9a3765" fill-rule="evenodd" transform="translate(54.65 45.9)"/><path d="m-15.15 35.6.6.65q-1.7 2.25-4.15 3.8l-.25-.3q2.3-1.9 3.8-4.15m-19.6 4.6q-1.5-2.15-2.4-4.5L-38.7 30l.5.6.25.85 1.1 3.8q.8 2.3 2.3 4.4l-.2.55" fill="#682e00" fill-rule="evenodd" transform="translate(54.65 45.9)"/><path d="M-23.9.6q3.4 2 5.45 4.35 2.35 2.7 3.9 7.35l-.1.1-1 1.25Q-16.8 9.5-19.7 5.4q-1.9-2.7-4.2-4.8" fill="#d08462" fill-rule="evenodd" transform="translate(54.65 45.9)"/><path d="M-39.4 16.7q-.1 1.35 1.55 4.05 1.1 1.85 2.3 2.8-1 .95-1.75 1.1h-.05l-1.1-2.7-.8-2.95-.2-1.6v-.05l.05-.65m10.25.55.5 1.6q.9 3 1 5.4l-2.45 1.6.55-1.4.3-1.3q.35-1.85.35-3.45l-.25-2.45m5.35 4.15.3-1.15q.65-2.05.65-3.5 0-4.9-.85-8.85-1-4.75-3.25-8.95L-23.9.6q2.3 2.1 4.2 4.8 2.9 4.1 4.05 8.25l-1.55 1.75q-2.5 2.65-5.75 5.3l-.85.7m-6.9 22.15-1.35-.85 5.35-3.6 1.8 1.35 3.25-2.5 1.1 1.15-1.85 2.85-.3.25 1.15-2.45-.75.4-8.4 3.4" fill="#4c1a40" fill-rule="evenodd" transform="translate(54.65 45.9)"/><path d="m-28.05 30.85 1.85-1.15 1.4-.9 1.85-1.2 2.35-1.7 2.75-2q1.3 3.45.1 5.9l-.1.25-.55 1.4 1.15 1.1 1.5 1.6.15.25-.3.45-1.4 2.1-1.95 2.55q-1.3-1.2-2.45-2.1l-.05-.05-3.1 2.4-.85-.8 2.55-3.1q2-2.55 2.35-3.55h-.7l-3.3-.35q-2-.4-3.25-1.1" fill="#ab5b4a" fill-rule="evenodd" transform="translate(54.65 45.9)"/><path d="m-15.6 34.4.7.85-.25.35q-1.5 2.25-3.8 4.15H-19l-.25-.25 1.95-2.55 1.4-2.1.3-.45" fill="#d1ac73" fill-rule="evenodd" transform="translate(54.65 45.9)"/><path d="m-36.25 32.3.9.6.7.5q2.15 0 6.6-2.55 1.25.7 3.25 1.1l3.3.35h.7q-.35 1-2.35 3.55l-2.55 3.1-.65-.7-7.65.3-.05.1-.15.35-1.6-4.1-.45-2.6" fill="#e3a38b" fill-rule="evenodd" transform="translate(54.65 45.9)"/><path d="m-20.55 39.1.8.8-2.65 2.05 1.85-2.85m-1.75 1.05-7.55 3.95-.85-.55 8.4-3.4" fill="#737b63" fill-rule="evenodd" transform="translate(54.65 45.9)"/><path d="M-38.2 30.6v-.15l.2.25 1.6 1.5.15.1.45 2.6 1.6 4.1-.35.65q-1.5-2.1-2.3-4.4l-1.1-3.8-.25-.85" fill="#ffffd7" fill-rule="evenodd" transform="translate(54.65 45.9)"/><path d="m-27.4 29.25 8.05-4.75-3.25 8.3-8.95-.65.1-.45 5 .25q.4-.3.4-.7 0-1.9-1.35-2m6.35-2.05L-23 28.8q-1.6 1.7-1.6 3.25l1.6.1 1.95-4.95" fill="#0b4678" fill-rule="evenodd" transform="translate(54.65 45.9)"/><path d="M-21.05 27.2-23 32.15l-1.6-.1q0-1.55 1.6-3.25l1.95-1.6" fill="#8ef6ff" fill-rule="evenodd" transform="translate(54.65 45.9)"/><path d="m-31.45 31.7 4.05-2.45q1.35.1 1.35 2 0 .4-.4.7l-5-.25" fill="#fff" fill-rule="evenodd" transform="translate(54.65 45.9)"/><path d="m-11.8 10.95-.2-1-2.75 3.45-.7.85-1.85 2.15-2.85 2.85-3.35 2.85-.7.55-1.35.85-1.2.75-.9.55-.55.35-1.9 1.1-.8 1.2.6-2.25q.55-2.85.55-6.55l-.05-1.2-.1-.65-.25-1-.9 2.15-1.1 1.9-1.6 2.3-1.4 1.7q-1.55 1.55-2.7 1.85l.3 2.8q.3 1.25.95 2.3l.5.65q.7 1 1.7 1.55l1.85-.4q1.05-.25 4-2.05L-26.1 29l2.85-1.85.8-.55 2.8-1.95q3.9-2.85 5.65-4.7l-1.9 2.3-1.15 1.35-.1.1q.35 1.1.35 4.45 0 .95-.3 1.95l-.35 1v.05l1.85 2 .15.25.25.3.7.9q.95-1.75 1.5-3.6 1.5-5.15 1.65-11.6l.05-1.4q0-4.5-.5-7.05m-2.85 1.45.1-.1.85-1.15q1.45-2.15 2.45-4.3 2.65 13.35-.8 24.75-.95 2.6-2.5 4.65l-.6-.65.25-.35-.7-.85-.15-.25-1.5-1.6-1.15-1.1.55-1.4.1-.25q1.2-2.45-.1-5.9l-2.75 2-2.35 1.7-1.85 1.2-1.4.9-1.85 1.15q-4.45 2.55-6.6 2.55l-.7-.5-.9-.6-.15-.1-1.6-1.5-.2-.25v.15l-.5-.6-.05-.25-.15-.2q-2.4-3.25-2.4-7.35l.15-1.35.55-2.15 1.25-2.5-.05.45v.05l-.05.65v.05l.2 1.6.8 2.95 1.1 2.7h.05q.75-.15 1.75-1.1 1.05-1 2.35-2.95l1.85-2.95.25-.45.05-.1.75-1.5.15-.5.15-.3.45.85.3 1.05.1.55.25 2.45q0 1.6-.35 3.45l-.3 1.3-.55 1.4 2.45-1.6 1.3-.95 2.55-1.9.85-.7q3.25-2.65 5.75-5.3l1.55-1.75 1-1.25m-25.15 7.8v-.5l-.05-.65.05-.85-.6 1.45-.25 2.35q0 3.2 1.6 6.3l.7 1.2 1.25 1.5-.95-2.4-.05-.85-.15-2.05V25l-.1-.1-.25-.3-.7-1.55-.5-2.85" fill="#682e00" fill-rule="evenodd" transform="translate(54.65 45.9)"/><path d="m-17.3 16.4 1.85-2.15.7-.85L-12 9.95l.2 1q-.95 3.8-3.9 8.3l-3.95 5.4-2.8 1.95 3.7-6.9q1.15-1.95 1.45-3.3m6 1.6-.05 1.4Q-11.5 25.85-13 31q-.55 1.85-1.5 3.6l-.7-.9-.25-.3q1.95-4.45 2.95-8.25.8-3.35 1.2-7.15m-26.25 10.5-.3-2.8q1.15-.3 2.7-1.85l1.4-1.7 1.6-2.3-2 3.45-2.2 2.95-.15.2-.1 3.35-.6-.85-.35-.45m6.5-10.55.9-2.15.25 1 .1.65q-.15 2.9-1 5.75-.75 2.55-1.65 4l2.15-2-.6 2.25.8-1.2 1.9-1.1.55-.35.9-.55-1 2.5q-.2.5-1.35 1.4-1.35.95-3.65 1.9l-1.9.75q1.45-3.25 2.45-6.6 1.15-3.8 1.15-6.25m-8.75 2.25-.1.4-.05 1q0 2.8 1.2 4.25l-.05.1-.05.55.1.75-1.05-1.9q-.4-1.2-.4-3.1l.1-1.35.3-1.2v.5" fill="#e4a222" fill-rule="evenodd" transform="translate(54.65 45.9)"/><path d="m-22.45 26.6-.8.55L-26.1 29l1.65-4.4.95-2.5 3.35-2.85 2.85-2.85q-.3 1.35-1.45 3.3l-3.7 6.9m-16.3.65-.1-.75.05-.55.05-.1.05-.65.1-.6.25.3.1.1v.7l.15 2.05.05.85.95 2.4-1.25-1.5-.2-1-.1-.75-.1-.5" fill="#fff" fill-rule="evenodd" transform="translate(54.65 45.9)"/><path d="m-26.1 29-2.45 1.55q-2.95 1.8-4 2.05l-1.85.4q-1-.55-1.7-1.55l-.5-.65q-.65-1.05-.95-2.3l.35.45.6.85.1-3.35.15-.2 2.2-2.95 2-3.45 1.1-1.9q0 2.45-1.15 6.25-1 3.35-2.45 6.6l1.9-.75q2.3-.95 3.65-1.9 1.15-.9 1.35-1.4l1-2.5 1.2-.75 1.35-.85.7-.55-.95 2.5-1.65 4.4m-13.7-9.3-.3 1.2-.1 1.35q0 1.9.4 3.1l1.05 1.9.1.5.1.75.2 1-.7-1.2q-1.6-3.1-1.6-6.3l.25-2.35.6-1.45-.05.85.05.65" fill="#ffff45" fill-rule="evenodd" transform="translate(54.65 45.9)"/><path d="M-11.8 10.95q.5 2.55.5 7.05-.4 3.8-1.2 7.15-1 3.8-2.95 8.25l-.15-.25-1.85-2v-.05l.35-1q.3-1 .3-1.95 0-3.35-.35-4.45l.1-.1 1.15-1.35 1.9-2.3q-1.75 1.85-5.65 4.7l3.95-5.4q2.95-4.5 3.9-8.3m-18 6.5.05 1.2q0 3.7-.55 6.55l-2.15 2q.9-1.45 1.65-4 .85-2.85 1-5.75m-8.95 8.4q-1.2-1.45-1.2-4.25l.05-1 .1-.4.5 2.85.7 1.55-.1.6-.05.65" fill="#b75404" fill-rule="evenodd" transform="translate(54.65 45.9)"/><path d="M-18.85 29.35h.15l15.2 1.4 4.6 1.05q6.7 2.15 6.1 5.95-1.2 5.9-18.3 6.9-5.35.25-12.25.1l-1.8-.15 1.7-.45.9-.1q11.4-1.6 14.25-4.7.3-2.3-2.45-3.2l-9.7-.45h-.1l-1.65-1.6h-.1l-.05-.25v-.1l.05-.1.05-.05 3.4-4.25m7.6 4.65.65.1q2.8.65 3.55 1.95.25.55.2 1.25l-.05.4q-.1 1-.9 1.95-2.3 2.75-10.55 4.3l-1.3.25 11.4-.4Q5.5 42.6 6.6 37.7v-.05Q7 34.3.95 32.4l-2.3-.6q-6.25-1.45-17.25-1.85l-2.8 3.6q4.75-.15 7.95.15l1.95.25.25.05m3.7 3.85.05-.6v-.05l-.15-.8q-.55-1.1-3.1-1.65l-2.95-.5h-.1q-3.1-.25-7.55-.15l1 .95 9.75.5q2.35.75 2.85 2.4l.1.35.1-.45" fill="#595b5d" fill-rule="evenodd" transform="translate(54.65 45.9)"/><path d="m-2.7 33.2-2.4 1.55-1.95 1.3q-.75-1.3-3.55-1.95l-.65-.1 3.05-1.95q3.05.25 5.3 1.05l.2.1m-4.2 4.5 3.3-1.35 3.6-1.6q1.55 1.35 1.55 3.4 0 2.9-7.15 4.45-5.15 1.15-12.75 1.35 8.25-1.55 10.55-4.3.8-.95.9-1.95" fill="#fff" fill-rule="evenodd" transform="translate(54.65 45.9)"/><path d="m-7.05 36.05 1.95-1.3 2.4-1.55q1.65.6 2.7 1.55l-3.6 1.6-3.3 1.35.05-.4q.05-.7-.2-1.25m-1.15-4L-11.25 34l-.25-.05-1.95-.25.85-1.75h1.3l3.1.1m.45 5.9q-.5-1.65-2.85-2.4l-9.75-.5-1-.95q4.45-.1 7.55.15h.1l2.95.5q2.55.55 3.1 1.65l.15.8v.05l-.05.6-.2.1" fill="#edded6" fill-rule="evenodd" transform="translate(54.65 45.9)"/><path d="m-2.7 33.2-.2-.1q-2.25-.8-5.3-1.05l-3.1-.1h-1.3l-.85 1.75q-3.2-.3-7.95-.15l2.8-3.6q11 .4 17.25 1.85l4.25 1.85q2.55 1.4 2.55 3.6 0 1.85-1.3 2.9-1.05.9-3.85 1.6l-8.55 2.05-11.4.4 1.3-.25q7.6-.2 12.75-1.35 7.15-1.55 7.15-4.45 0-2.05-1.55-3.4-1.05-.95-2.7-1.55" fill="#8e787b" fill-rule="evenodd" transform="translate(54.65 45.9)"/><path d="m-1.35 31.8 2.3.6Q7 34.3 6.6 37.65v.05q-1.1 4.9-14.85 6.1L.3 41.75q2.8-.7 3.85-1.6 1.3-1.05 1.3-2.9 0-2.2-2.55-3.6l-4.25-1.85" fill="#d08462" fill-rule="evenodd" transform="translate(54.65 45.9)"/><path d="m46.9-33.65 1.65-.5-1.65.5-3.15-3.3q-3.05-2.55-7-3.55l-9-.45q.6-1.15.6-1.7 0-1.15-.85-1.75l-1.05-.5 1.05.5q.85.6.85 1.75 0 .55-.6 1.7-4.8.45-10.45 2.45l-.4.25.15-.3q.35-.75.35-1.9 0-.95-.35-1.6.35.65.35 1.6 0 1.15-.35 1.9l-.15.3q-3.45 1.65-6.85 4.15-.05-2.2-1.55-3.05 1.5.85 1.55 3.05-4.55 3.3-8.95 8l.1-1.1q0-1.4-1.3-2.1 1.3.7 1.3 2.1l-.1 1.1q-5 5.35-9.85 12.55v.85q0 .85-.75 1.7-.7.85-1.6 1.05-.6.15-1.15 1.25l-.8 1.95Q-14.1-4.15-16.1-.1q.35 3.2-1.4 6-1.75 2.85-4.3 2.85-1.25 0-1.9-1-.65-.9-.65-2.25l.05-.75.35.5q.8.9 1.95.9 1.65 0 2.7-2.1.85-1.65.85-3.4l-.2-1.95-.05-.4q0-4.55 4.15-8.35l2.8-2.8q1.3-1.6 1.3-3.4l.15-.2 4.45-5.8L-.1-29.3l.55-.65q3.6-4 8.05-7.2l.6-.45q3.9-2.7 7.95-4.45l1.15-.45.55-.2 5.3-1.6 2.4-.6 1.5-.35q4.65-.15 8.6 1l.15.25q.5.85.5 2l-.45 1.5.45-1.5q0-1.15-.5-2l-.15-.25q4.95 1.45 8.85 4.9 2.25 2 4.15 4.7l1.15 1.75 1.35 3.5-.6.25-2.4.25 2.4-.25.6-.25q4 11.95 1.85 26-1.85 10.35-4.45 16.35-3.35 8.45-4.15 15.2h-.1q.25-10.55 3.2-18.7 6.9-19.55.65-38.35l-1.3-3.45-.85-1.3m1.65-.5 1-.5-1 .5m-4.8-2.8.45-.35q1.1-.85 1.2-2.05-.1 1.2-1.2 2.05l-.45.35m-52.5 23.4q-.2-1.25-.85-2.15l-.7-.75.7.75q.65.9.85 2.15m-9.9 12.25q2.05.2 2.4 1.45l.15-.25-.15.25q-.35-1.25-2.4-1.45" fill="#e4a222" fill-rule="evenodd" transform="translate(54.65 45.9)"/><path d="M15.9-43.05q5.35-1.7 10.1-2.1l.45.25-2.4.6-5.3 1.6-.55.2-1.15.45q-.4-.65-1.15-1 .75.35 1.15 1Q13-40.3 9.1-37.6l-.6.45-2.4-.55 2.4.55q-4.45 3.2-8.05 7.2l-.55.65-5.75 7.05-4.45 5.8-.15.2q0 1.8-1.3 3.4l-2.8 2.8q-4.15 3.8-4.15 8.35l.05.4.2 1.95q0 1.75-.85 3.4-1.05 2.1-2.7 2.1-1.15 0-1.95-.9l-.35-.5q.1-1.55.75-2.85l1.7-2.55.35-.45-.25.05q.8-2.9 2.55-6.6l2.5-4.9-.25-1.25q0-1.15 1.45-2.25l1.5-.85q4.8-7.3 10.55-12.9Q1-34.3 6.1-37.7q4.6-3.1 9.6-5.3l.2-.05M-14-16.9l1.45-.3q1.3 0 2.25.75-.95-.75-2.25-.75l-1.45.3m10.55-12.9.5-.15q1.45 0 2.55.5l.3.15-.3-.15q-1.1-.5-2.55-.5l-.5.15M-21.5-1.1l1.95-.25.9.05-.9-.05-1.95.25" fill="#ffff45" fill-rule="evenodd" transform="translate(54.65 45.9)"/><path d="m48.55-34.15-1.65.5.85 1.3 1.3 3.45 2.4-.25.6-.25-1.35-3.5-1.15-1.75M26.45-44.9l1.05.5q.85.6.85 1.75 0 .55-.6 1.7l9 .45.45-1.5q0-1.15-.5-2l-.15-.25q-3.95-1.15-8.6-1l-1.95.1q-4.75.4-10.1 2.1.75.35 1.15 1 .35.65.35 1.6 0 1.15-.35 1.9l-.15.3.4-.25q5.65-2 10.45-2.45m-1.3-3.95-.45-.25m19.4 5.8q-.1 1.2-1.2 2.05l-.45.35 3.15 3.3m-3.15-3.3q-3.05-2.55-7-3.55m15.3 11.1q4 11.95 1.85 26-1.85 10.35-4.45 16.35-3.35 8.45-4.15 15.2l-.1.65v-.65q.25-10.55 3.2-18.7 6.9-19.55.65-38.35m-12.5-15.35q4.95 1.45 8.85 4.9m-67.15 38.3q.8-2.9 2.55-6.6l2.5-4.9-.25-1.25q0-1.15 1.45-2.25l1.5-.85q4.8-7.3 10.55-12.9Q1-34.3 6.1-37.7q4.6-3.1 9.6-5.3l.2-.05m-7.4 5.9q1.5.85 1.55 3.05 3.4-2.5 6.85-4.15m-10.8.55 2.4.55M-.1-29.3q1.3.7 1.3 2.1l-.1 1.1q4.4-4.7 8.95-8M-10.3-16.45q-.95-.75-2.25-.75l-1.45.3M-.1-29.3l-.3-.15q-1.1-.5-2.55-.5l-.5.15M-21.85-.65l.35-.45-.25.05-.1.4-1.7 2.55q-.65 1.3-.75 2.85l-.05.75q0 1.35.65 2.25.65 1 1.9 1 2.55 0 4.3-2.85 1.75-2.8 1.4-6l-.15.25q-.35-1.25-2.4-1.45l-.9-.05-1.95.25m11.2-15.35.7.75q.65.9.85 2.15 4.85-7.2 9.85-12.55m-9.85 12.55v.85q0 .85-.75 1.7-.7.85-1.6 1.05-.6.15-1.15 1.25l-.8 1.95Q-14.1-4.15-16.1-.1" fill="none" stroke="#79242d" stroke-linecap="square" stroke-linejoin="miter-clip" stroke-miterlimit="3" transform="translate(54.65 45.9)"/><path d="m49.55-34.65-1 .5m-3.15-5.2q2.25 2 4.15 4.7" fill="none" stroke="#79242d" stroke-linecap="round" stroke-linejoin="miter-clip" stroke-miterlimit="3" transform="translate(54.65 45.9)"/></g><g id="p" fill-rule="evenodd"><path d="M2.35-4.65q-.25-.05-.6-.25l-.9-.25-3.7 2.35Q-5.5-.9-6.9-.55l-.6.05Q-9.4-.5-9.4-3q0-1.15.45-2.05l.4-.65q2.9.05 7.7-4.25L2-12.5l.8-.8q1.8-1.55 2.5-1.55l.9.05h.1q1.45.2 2.25.95.85.8.85 2.2 0 1.5-.9 4.35l-.1-.35-.35-.9.55-2.7q0-.85-.8-1.4l-1-.4-.75-.1q-1.4 0-4.05 2.05l-.25.2-4.6 3.5q-1 .65-4.5 1.9-1.55.55-1.55 2.45 0 .9.55 1.45.45.45 1.25.55h.25q.15 0 .2-.1Q-5.05-2-2.5-3.7 0-5.45 1.3-5.45l.95.1.1.7" fill="#260327" transform="translate(9.4 14.85)"/><path d="M-7.1-1.05q-.8-.1-1.25-.55-.55-.55-.55-1.45 0-1.9 1.55-2.45 3.5-1.25 4.5-1.9l4.6-3.5.25-.2q2.65-2.05 4.05-2.05l.75.1q-.3.45-1.1.7l-1.7.7-1.6 2.1-.4.6-.85 1.2-1.65 1.7-2.4 1.4-3.05 1.25q-1.2.7-1.2 2.15l.05.2" fill="#ab3c71" transform="translate(9.4 14.85)"/><path d="m2.25-5.35-.95-.1Q0-5.45-2.5-3.7-5.05-2-6.65-1.15q-.05.1-.2.1h-.25l-.05-.2q0-1.45 1.2-2.15l3.05-1.25 2.4-1.4 1.65-1.7.85-1.2.4-.6 1.6-2.1 1.7-.7q.8-.25 1.1-.7l1 .4q.8.55.8 1.4l-.55 2.7q-.55-1.2-1.65-1.2-2.05 0-3.6 2.1L2.15-6.6 2-6.35l.1.3.15.7" fill="#5d1f3c" transform="translate(9.4 14.85)"/><path d="M4.85-8.35 5.9-8.7q1.05 0 1.55 1.3.4 1.15.4 3.55 0 2.15-1.3 6.45l-.1-.05.25-3v-1.1L6.2-5.7l-.05-.25q-.55-2.25-1.3-2.4" fill="#8e787b" transform="translate(9.4 14.85)"/><path d="M4.85-8.35q.75.15 1.3 2.4l.05.25.5 4.15v1.1l-.25 3v.2L5.3 6.2l-.65 1.75.05-.75.75-6.95v-.5l-.3-2.4Q4.8-4 4.15-4q-.35 0-.8.55l-.05.05-.55-3 .05-.2.5-.65.3-.35.5-.35.75-.4" fill="#edded6" transform="translate(9.4 14.85)"/><path d="m8.5-7.3.05.25.25 3.45q0 1.95-1.25 6.45L5.85 8.1l-1.7 3.15-.55.8-1.15 1.55-1.15 1.3q.95-2.85 1.35-5.8Q3 6.5 3 2.05v-.7L2.65-2.4l-.05-.55-.25-1.6v-.1l-.1-.7-.15-.7-.1-.3.15-.25.65-1.05q1.55-2.1 3.6-2.1 1.1 0 1.65 1.2l.35.9.1.35M6.55 2.6q1.3-4.3 1.3-6.45 0-2.4-.4-3.55-.5-1.3-1.55-1.3l-1.05.35-.75.4-.5.35-.3.35-.5.65-.05.2.55 3 .15 2 .15 2.5v2.55q0 2.4-.55 5.3L2.35 13q.7-.85 2.3-5.05L5.3 6.2l1.15-3.45.1-.15" fill="#55454c" transform="translate(9.4 14.85)"/><path d="M4.65 7.95q-1.6 4.2-2.3 5.05l.7-4.05q.55-2.9.55-5.3V1.1l-.15-2.5-.15-2 .05-.05Q3.8-4 4.15-4q.65 0 1 1.35l.3 2.4v.5L4.7 7.2l-.05.75" fill="#fff" transform="translate(9.4 14.85)"/></g><g id="q" fill-rule="evenodd"><path d="m12.2-6.3.05-.2v-.15l.05-.05v-.1l.1-.6-.3-1.55q-.4-.65-1.55-1 0-4.9-3.15-8.85-2.3-2.85-7.75-6.55l-4.6-3.25-4-2.85-1.85-1.7-1.95-2.1-1.9-2.05-.35-.35-.2-.2-1.75-2.05-.3-.5-.3 4.35q0 14.45 4.1 23.15 2.7 5.65 7.3 9.3Q-4.25-2.15-2-.95l.15.1.95 1.5.5.4 1.2.4.4.1L2.55 3.3h-1.2Q0 3.3-1 2.15L-2.4 0-8-3.85q-2.75-1.95-5-5.6-2.1-3.4-3.9-10.4-1.85-7.25-1.85-12.45l.45-6.5.7-3.65.7 1.35 2.05 2.95 3.8 4q3.85 3.6 12.05 9.2 6.25 4.3 8.15 6.9 1.65 2.15 2.75 6.95l.05.05q.7.15 1.25 1.5t.55 2.65L13.4-5l-.15.65-1-1.85-.05-.1" fill="#260327" transform="translate(18.75 42.45)"/><path d="m11.2-7.15-.9-2-1.05-1.4-.05-.3q-.55-4.25-2.9-7.5-2.05-2.8-6.4-5.9-4.35-2.95-6.85-4.85l-.95-.75q-4.2-3.35-6.7-7.2l-.05-.25 1.9 2.05 1.95 2.1 1.85 1.7 4 2.85 4.6 3.25q5.45 3.7 7.75 6.55 3.15 3.95 3.15 8.85 1.15.35 1.55 1l.3 1.55-.1.6v.1l-.05.05v.15l-.05.2-.45-.65-.55-.2" fill="#737b63" transform="translate(18.75 42.45)"/><path d="M-6.95-29.1q2.5 1.9 6.85 4.85 4.35 3.1 6.4 5.9 2.35 3.25 2.9 7.5l.05.3 1.05 1.4.9 2-1.55-.25q-4.35 0-6.3 1.65.3-1 1.5-2.5 1.65-2.05 1.65-3.8 0-4.9-4.55-8.95l-4.4-3.6q-2.75-2.35-4.5-4.5" fill="#310e28" transform="translate(18.75 42.45)"/><path d="m11.2-7.15.55.2.45.65.05.1 1 1.85Q15.45.2 17.1 8.75t1.7 15.6q0 7-.6 10.8l-1.05 4.25-1.1 3.1.05-2.5q0-17.8-11.8-34.35l-.25-.3-1.5-2.05L1.2 1.55l-.4-.5v-.3q.1-1.3.35-2.4.55-2.6 1.95-3.9l.25-.2Q5.3-7.4 9.65-7.4l1.55.25m6.5 33.35q-.15-6.95-1.5-14.7-1.7-10.15-4.85-16.65l-.3-.6-.3-.2-.4-.15-1.8-.3q-2.75 0-4.5 1.25l-.7.6q-.9.9-1.3 2.25l-.2 1.85v.3l.05.3.15.2 2.1 2.55.45.55q8.2 10.95 12.55 30.5l.3-2.4.25-3V26.2" fill="#5e5153" transform="translate(18.75 42.45)"/><path d="M2.05-2.3q.4-1.35 1.3-2.25l.7-.6Q5.8-6.4 8.55-6.4l1.8.3.4.15.3.2.3.6q3.15 6.5 4.85 16.65 1.35 7.75 1.5 14.7l-.2-1.2q-.65-7-3-15.2Q10.55-3.7 5.1-3.7q-.9 0-2.4.95l-.65.45" fill="#8e787b" transform="translate(18.75 42.45)"/><path d="M-14.6-37.05q2.5 3.85 6.7 7.2l.95.75q1.75 2.15 4.5 4.5l4.4 3.6q4.55 4.05 4.55 8.95 0 1.75-1.65 3.8-1.2 1.5-1.5 2.5l-.25.2q-1.4 1.3-1.95 3.9Q.9-.55.8.75v.3l.4.5-.4-.1-1.2-.4-.5-.4-.95-1.5-.15-.1q-2.25-1.2-4.15-2.65Q-4.2-5.85-3.6-7.05q.65-1.25.65-2.65 0-3.65-2.15-6.35l-4.85-4.55q-3.25-3.1-4.8-6.65-2.2-4.95-2.2-12.4v-.25l1.75 2.05.2.2.4.6" fill="#5d1f3c" transform="translate(18.75 42.45)"/><path d="M-6.15-3.6q-4.6-3.65-7.3-9.3-4.1-8.7-4.1-23.15l.3-4.35.3.5v.25q0 7.45 2.2 12.4 1.55 3.55 4.8 6.65l4.85 4.55q2.15 2.7 2.15 6.35 0 1.4-.65 2.65-.6 1.2-2.55 3.45" fill="#ab3c71" transform="translate(18.75 42.45)"/><path d="m4.6 3.45-.45-.55L2.05.35 1.9.15l-.05-.3v-.3l.2-1.85.65-.45q1.5-.95 2.4-.95 5.45 0 9.4 13.5 2.35 8.2 3 15.2l-.5-2.2-1.75-6.25Q14 12.5 11.95 8.1q-2.9-6.15-4.5-6.15-1.3 0-2.3.85l-.55.65" fill="#edded6" transform="translate(18.75 42.45)"/><path d="m17.7 28.55-.25 3-.3 2.4Q12.8 14.4 4.6 3.45l.55-.65q1-.85 2.3-.85 1.6 0 4.5 6.15 2.05 4.4 3.3 8.45L17 22.8l.5 2.2.2 3.55" fill="#fff" transform="translate(18.75 42.45)"/></g><radialGradient cx="0" cy="0" gradientTransform="translate(-7.7 -10) scale(.0106)" gradientUnits="userSpaceOnUse" id="r" r="819.2" spreadMethod="pad"><stop offset="0" stop-color="#05492a"/><stop offset="1" stop-color="#96fe74"/></radialGradient><radialGradient cx="0" cy="0" gradientTransform="translate(17.45 14.1) scale(.0074)" gradientUnits="userSpaceOnUse" id="s" r="819.2" spreadMethod="pad"><stop offset="0" stop-color="#05492a"/><stop offset="1" stop-color="#96fe74"/></radialGradient><radialGradient cx="0" cy="0" gradientTransform="matrix(.0036 0 -.0007 .0068 -26.65 8.9)" gradientUnits="userSpaceOnUse" id="t" r="819.2" spreadMethod="pad"><stop offset="0" stop-color="#05492a"/><stop offset="1" stop-color="#96fe74"/></radialGradient><path d="M27.75 0q0 2-8.15 3.4Q11.5 4.9 0 4.9q-11.5 0-19.65-1.5-8.1-1.4-8.1-3.4 0-2.05 8.1-3.5Q-11.5-4.9 0-4.9q11.5 0 19.6 1.4 8.15 1.45 8.15 3.5" fill-opacity=".349" fill-rule="evenodd" transform="translate(27.75 4.9)" id="b"/></defs></svg>