<svg xmlns:ffdec="https://www.free-decompiler.com/flash" xmlns:xlink="http://www.w3.org/1999/xlink" ffdec:objectType="frame" height="90" width="90" xmlns="http://www.w3.org/2000/svg"><use ffdec:characterId="19" height="221.4" transform="matrix(.4073 0 0 .4074 3.9 -.204)" width="242.85" xlink:href="#a"/><use ffdec:characterId="20" height="61.55" transform="scale(1.4622)" width="61.55" xlink:href="#b"/><defs><g id="a" transform="translate(0 .5)"><use ffdec:characterId="1" height="35.4" transform="translate(0 185.5)" width="174.75" xlink:href="#c"/><use ffdec:characterId="2" height="48.95" transform="translate(68.05 152.2)" width="31.2" xlink:href="#d"/><use ffdec:characterId="3" height="112.6" transform="translate(133.35 35.9)" width="69.5" xlink:href="#e"/><use ffdec:characterId="4" height="76.2" transform="translate(18.6 124.1)" width="34.2" xlink:href="#f"/><use ffdec:characterId="5" height="64.15" transform="translate(39.3 117.6)" width="97.7" xlink:href="#g"/><use ffdec:characterId="6" height="55.9" transform="translate(125.35 154.75)" width="51.65" xlink:href="#h"/><use ffdec:characterId="7" height="62.9" transform="translate(50.55 106.65)" width="109.2" xlink:href="#i"/><use ffdec:characterId="8" height="62.8" transform="translate(50.15 144.6)" width="48.1" xlink:href="#j"/><use ffdec:characterId="9" height="59.6" transform="translate(24.4 87.35)" width="146.05" xlink:href="#k"/><use ffdec:characterId="10" height="39.25" transform="translate(98.65 28.1)" width="52.25" xlink:href="#l"/><use ffdec:characterId="11" height="32.9" transform="translate(83.2 17.45)" width="52.25" xlink:href="#m"/><use ffdec:characterId="12" height="100.8" transform="translate(12 20.4)" width="120.85" xlink:href="#n"/><use ffdec:characterId="13" height="33.15" transform="translate(46.15 2.3)" width="31.6" xlink:href="#o"/><use ffdec:characterId="14" height="41.85" transform="translate(57.3 -.5)" width="66.65" xlink:href="#p"/><use ffdec:characterId="15" height="42.1" transform="matrix(-1 0 0 1 102.55 39.4)" width="72.7" xlink:href="#q"/><clipPath id="r" transform="matrix(-1 0 0 1 102.55 39.4)"><path d="M67.5 1.75q2.15 2.3 4.2 7.75l.2.75q-1.05 13.45-7.35 15.3-2.1.9-5.1-6.25 6.8-4.2 8.05-17.55m-31.55 25.6q-.6 5.2-3.25 8.75-17.9 8.05-25-6.25-2.45-6.25 2.6-7.35 12.5 6.5 25.65 4.85" fill="#fff" fill-rule="evenodd"/><path d="M71.9 10.25q1.45 5.6.35 10.75-3.2 12.2-10.2 9.55-4.95-2.75-6.7-14.05l.55-.4Q62.8 9.25 64 0q1.8-.1 3.5 1.75-1.25 13.35-8.05 17.55 3 7.15 5.1 6.25 6.3-1.85 7.35-15.3M32.7 36.1q-2.35 3.1-6.3 4.9-7.35 2.05-13.75.2-17.6-3.4-10.75-30.65 17.7 15.95 34.05 10.6.3 3.35 0 6.2Q22.8 29 10.3 22.5q-5.05 1.1-2.6 7.35 7.1 14.3 25 6.25" fill="#dbd6c2" fill-rule="evenodd"/></clipPath><g clip-path="url(#r)"><use ffdec:characterId="16" height="31.3" transform="matrix(-1 0 0 1 83.75 43.85)" width="49.9" xlink:href="#s"/></g><use ffdec:characterId="17" height="44.1" transform="matrix(-1 0 0 1 103.55 38.4)" width="74.7" xlink:href="#t"/></g><g id="d"><path d="M5.8 26.2Q3.7 25 1.65 22.8q-3.3-4 0-7.2H6.9l.85-34.9 21.45 8.25L23.8 19q-.3 8.3-13.3 8.65 6.15-1.35 7.75-4.9 1.35-5.15-.6-6.3l-5.25 1.9q-9.2-.15-6.6 7.85" fill="#b8924b" fill-rule="evenodd" transform="translate(1 20.3)"/><path d="M10.5 27.65q-2.35-.1-4.7-1.45-2.6-8 6.6-7.85l5.25-1.9q1.95 1.15.6 6.3-1.6 3.55-7.75 4.9" fill="#f3c265" fill-rule="evenodd" transform="translate(1 20.3)"/><path d="M6.8 46.5q-2.1-1.2-4.15-3.4-3.3-4 0-7.2H7.9L8.75 1 30.2 9.25 24.8 39.3q-.3 8.3-13.3 8.65-2.35-.1-4.7-1.45" fill="none" stroke="#5b4524" stroke-linecap="round" stroke-linejoin="round" stroke-width="2"/><path d="M5.8 26.2q-2.6-8 6.6-7.85" fill="none" stroke="#5b4524" stroke-linecap="round" stroke-linejoin="round" transform="translate(1 20.3)"/></g><g id="e"><path d="M63 8.4q2.35 2.55 3.6 5.65.85 5.8-4.45 7.65-5.3.75-10.75-.2-.1-2.1-1.8-3.6-1.85-1.6-4.4-1.6-2.55 0-4.35 1.6-1 .85-1.45 1.9-5.4.6-10 4.45l-.7.6-.05.05-.35.4q-1.65 1.7-2.45 4.35-2.4 9.45 6.1 13.05 18.6 9.9 22.5 24.75Q56.3 86.9 39.3 100.6q-14.15 9.85-30.85 7.9L0 97.75q7.75 1.65 18.1-2.1 5.75 10.6 17.2 2.2Q40.5 94 46 86.45q.45.8 1.45.4l2.8-1.8q1.2-1.1 1.7-2.95.55-1.9.05-3.5-.55-1.5-1.7-1.85-.15-16-12.4-24.05-14.05-7-15.45-15.05-2.6-12.65 5.65-18.4 8.6-6.95 21.8-3.3 6 1.8 8.7 1.3 9.45.1 4.4-8.85m-42.5 94.35-3.45.2q-1.9.6-2.85 1.65-.95 1.1-.65 2.15.3 1.05 1.65 1.55 1.35.45 2.95 0 1.55-.4 2.55-1.5.9-1.1 1.05-2.35.3-1.35-1.25-1.7" fill="#b8924b" fill-rule="evenodd" transform="translate(1 1)"/><path d="M63 8.4q5.05 8.95-4.4 8.85-2.7.5-8.7-1.3-13.2-3.65-21.8 3.3-8.25 5.75-5.65 18.4 1.4 8.05 15.45 15.05 12.25 8.05 12.4 24.05l-.05-.05q-1.2-.3-2.4.8-1.25 1.1-1.9 3.3-.6 2.2-.3 4.45.1.75.35 1.2-5.5 7.55-10.7 11.4-11.45 8.4-17.2-2.2l4.7-1.9-.2 1.2q-.55 4.4 2.55 3.2l6.15-2.3 4.75-1.75q1.65-.7.5-3.25t-2.05-2.5l-2.15.05q10.3-7.3 8.85-15.3l-.25-1.05q-1.5-3.5-4-6.5l.6-.2q2.3-.8 2.7-2.65.45-1.9-1.05-4.1L36.15 54q-1.5-2.25-4-1.7-2.55.5-1.95 3.85.4 2.4.85 3.8l-5.2-3.35Q10 46.8 14.3 24q2.3-5.7 5.5-9.9l-.05.8q0 1.95 1.25 3.45 1.25 1.5 2.95 1.8 1.7.3 2.45-2.15.8-2.45 1.75-4.55.95-2.1-.85-2.7-1.75-.6-3.45-.6l-.55.05q9-8.45 24.75-8.2-.35 1.2.35 2.7L44 4.4q-4.15.3-8.25 2.75-4.1 2.4-4.65 4.25-.5 1.85 4.65.5t9.85-1.3q4.65.1 8.9 1.1 4.25.95 4.75-1.2.1-.6-.2-1.2l1.1-1.1q.55-1 .3-2.2L63 8.4M17.2 36.75q-.3 1.4.15 3.15.45 1.75 1.45 2.8 1 1.05 1.9.8.9-.25 1.25-1.65.3-1.4-.15-3.15-.45-1.75-1.45-2.8-1-1.05-1.9-.8-.9.25-1.25 1.65" fill="#f4c165" fill-rule="evenodd" transform="translate(1 1)"/><path d="m49.25.4-.9 1-.3.6Q32.3 1.75 23.3 10.2q-1.35.2-2.35 1.35-.95 1.1-1.15 2.55-3.2 4.2-5.5 9.9l.4-1.8Q23.35-3 49.25.4" fill="#fff" fill-rule="evenodd" transform="translate(1 1)"/><path d="M50.3 76.75q1.15.35 1.7 1.85.5 1.6-.05 3.5-.5 1.85-1.7 2.95l-2.8 1.8q-1 .4-1.45-.4-.25-.45-.35-1.2-.3-2.25.3-4.45.65-2.2 1.9-3.3 1.2-1.1 2.4-.8l.05.05M39.4 19.8q.45-1.05 1.45-1.9 1.8-1.6 4.35-1.6t4.4 1.6q1.7 1.5 1.8 3.6l-4.75-1.15q-3.8-.95-7.25-.55M59.05 9.3q-.9-1.55-5.1-3.1-3-1.1-5.55-1.5-.7-1.5-.35-2.7l.3-.6.9-1 .75.1Q56.35 2.65 60.45 6q.25 1.2-.3 2.2l-1.1 1.1M19.8 14.1q.2-1.45 1.15-2.55 1-1.15 2.35-1.35l.55-.05q1.7 0 3.45.6 1.8.6.85 2.7-.95 2.1-1.75 4.55-.75 2.45-2.45 2.15-1.7-.3-2.95-1.8-1.25-1.5-1.25-3.45l.05-.8m-2.6 22.65q.35-1.4 1.25-1.65t1.9.8q1 1.05 1.45 2.8.45 1.75.15 3.15-.35 1.4-1.25 1.65t-1.9-.8q-1-1.05-1.45-2.8-.45-1.75-.15-3.15m19.75 28.8q-2.5-3.05-5.9-5.6-.45-1.4-.85-3.8-.6-3.35 1.95-3.85 2.5-.55 4 1.7l3.05 4.6q1.5 2.2 1.05 4.1-.4 1.85-2.7 2.65l-.6.2m-4.6 22.85 2.15-.05q.9-.05 2.05 2.5t-.5 3.25l-4.75 1.75-6.15 2.3q-3.1 1.2-2.55-3.2l.2-1.2 3.85-1.85q3.2-1.75 5.7-3.5M20.5 102.75q1.55.35 1.25 1.7-.15 1.25-1.05 2.35-1 1.1-2.55 1.5-1.6.45-2.95 0-1.35-.5-1.65-1.55-.3-1.05.65-2.15.95-1.05 2.85-1.65l3.45-.2" fill="#945f1b" fill-rule="evenodd" transform="translate(1 1)"/><path d="M8.45 108.5q16.7 1.95 30.85-7.9 17-13.7 15.15-33.15 2.5 9.15-1.05 18.35-11.5 26.55-43.4 24.7l-1.55-2M29.4 24.25q4.6-3.85 10-4.45-.4.9-.4 1.95v.05q-6.15-.3-9.6 2.45m22-2.75q5.45.95 10.75.2 5.3-1.85 4.45-7.65l.65 2q2.25 12.75-16.45 8.1.6-1.1.6-2.4v-.25" fill="#d8b685" fill-rule="evenodd" transform="translate(1 1)"/><path d="m50.8 24.15-3.3-.9q-4.75-1.3-8.5-1.45v-.05q0-1.05.4-1.95 3.45-.4 7.25.55l4.75 1.15v.25q0 1.3-.6 2.4" fill="#ba6f23" fill-rule="evenodd" transform="translate(1 1)"/><path d="m48.4 4.7.2.35q1.05 2.1 3.5 3.5 2.4 1.4 4.8 1.3 1.3-.05 2.15-.55.3.6.2 1.2-.5 2.15-4.75 1.2-4.25-1-8.9-1.1-4.7-.05-9.85 1.3-5.15 1.35-4.65-.5.55-1.85 4.65-4.25Q39.85 4.7 44 4.4l4.4.3" fill="#fee98c" fill-rule="evenodd" transform="translate(1 1)"/><path d="M59.05 9.3q-.85.5-2.15.55-2.4.1-4.8-1.3-2.45-1.4-3.5-3.5l-.2-.35q2.55.4 5.55 1.5 4.2 1.55 5.1 3.1" fill="#cf7a27" fill-rule="evenodd" transform="translate(1 1)"/><path d="M67.6 15.05q-1.25-3.1-3.6-5.65L61.45 7Q57.35 3.65 51 1.5l-.75-.1Q24.35-2 15.7 23.2l-.4 1.8Q11 47.8 26.85 57.6l5.2 3.35q3.4 2.55 5.9 5.6 2.5 3 4 6.5l.25 1.05q1.45 8-8.85 15.3-2.5 1.75-5.7 3.5l-3.85 1.85-4.7 1.9Q8.75 100.4 1 98.75l8.45 10.75 1.55 2q31.9 1.85 43.4-24.7 3.55-9.2 1.05-18.35-3.9-14.85-22.5-24.75-8.5-3.6-6.1-13.05.8-2.65 2.45-4.35m.35-.4.05-.05m37.9-10.8.65 2q2.25 12.75-16.45 8.1l-3.3-.9q-4.75-1.3-8.5-1.45-6.15-.3-9.6 2.45" fill="none" stroke="#5b4524" stroke-linecap="round" stroke-linejoin="round" stroke-width="2"/><path d="m29.3 26.3.35-.4" fill="none" stroke="#0dff00" stroke-linecap="round" stroke-linejoin="round" stroke-width=".05"/></g><g id="f"><path d="M13.05 6.7q1.15-.8 2.5-.8 2.25 0 3.85 2.2t1.6 5.35q0 3.15-1.6 5.35-1.6 2.2-3.85 2.2t-3.85-2.2l-.1-.1q.15-6.65 1.45-12M11.8 25.35l1.85-.4q1.6 0 2.75.95 1.1 1 1.1 2.35t-1.1 2.3q-1.15 1-2.75 1l-1.3-.15-.55-6.05M25.5 40.8l-.35 1.7q-.8 2.4-2.65 2.9-1.9.5-3.75-1.15-1.9-1.65-2.65-4.5t.05-5.2q.75-2.35 2.65-2.85 1.85-.5 3.75 1.1 1.85 1.65 2.6 4.5l.35 2.4v1.1" fill="#945f1b" fill-rule="evenodd" transform="translate(1 1)"/><path d="m11.6 18.7.1.1q1.6 2.2 3.85 2.2t3.85-2.2q1.6-2.2 1.6-5.35 0-3.15-1.6-5.35-1.6-2.2-3.85-2.2-1.35 0-2.5.8.95-3.65 2.4-6.7 4.05 5.25 9.25 19.3 1.05 7.95.8 20.4l-.35-2.4q-.75-2.85-2.6-4.5-1.9-1.6-3.75-1.1-1.9.5-2.65 2.85-.8 2.35-.05 5.2t2.65 4.5q1.85 1.65 3.75 1.15 1.85-.5 2.65-2.9l.35-1.7q-.2 7.65-.8 16.9-.45 7.9-6.1 11.55-2.2 1.15-4.65 1.6l-.5.05q-2.85.15-3-2.2-.15-1.55 1.2-3.55Q8 67.6 8.15 70.7v.2l-1-.15-.35-.05q-1.95-.85-2.15-3.05.2-2.85 2.1-4.65-4 1.55-3.8 5.8l.1.65q-2.95-1.5-1.9-6.75 3-4.7 11.65-3.8 2.9-5.85.95-18.9-.85-4.5-1.4-8.6l1.3.15q1.6 0 2.75-1 1.1-.95 1.1-2.3 0-1.35-1.1-2.35-1.15-.95-2.75-.95l-1.85.4-.2-6.65M13.8 59l-1-.1 1 .1m-5.95 3.65-1.1.35 1.1-.35m5.1 1.7-1.3.8 1.3-.8" fill="#f4c165" fill-rule="evenodd" transform="translate(1 1)"/><path d="M24.7 19.3q3.5 9.3 7.5 22.5l-2.65 21.3q-.75 7.1-2.8 8.4-6.8 3.8-15.5 2.25l-.7-.15q-4.55.8-6.4-1.3-3.1-.6-3.9-3.75-.35-1.4-.25-3.35.4-1.4 1.15-2.5-1.05 5.25 1.9 6.75l-.1-.65q-.2-4.25 3.8-5.8-1.9 1.8-2.1 4.65.2 2.2 2.15 3.05l.35.05 1 .15v-.2q-.15-3.1 3.5-5.55-1.35 2-1.2 3.55.15 2.35 3 2.2l.5-.05q2.45-.45 4.65-1.6 5.65-3.65 6.1-11.55.6-9.25.8-16.9v-1.1q.25-12.45-.8-20.4M3.05 69.45v.2q.25 1.65 1.1 2.65-.85-1-1.1-2.65v-.2m7.5 4.15q-2.2-.6-2.4-2.7.2 2.1 2.4 2.7" fill="#b8924b" fill-rule="evenodd" transform="translate(1 1)"/><path d="M14.05 7.7q-1.3 5.35-1.45 12l.2 6.65.55 6.05q.55 4.1 1.4 8.6 1.95 13.05-.95 18.9l1 .1m-.75-52.3Q15 4.05 16.45 1q4.05 5.25 9.25 19.3 3.5 9.3 7.5 22.5l-2.65 21.3q-.75 7.1-2.8 8.4-6.8 3.8-15.5 2.25l-.7-.15q-4.55.8-6.4-1.3-3.1-.6-3.9-3.75Q.9 68.15 1 66.2q.4-1.4 1.15-2.5 3-4.7 11.65-3.8" fill="none" stroke="#5b4524" stroke-linecap="round" stroke-linejoin="round" stroke-width="2"/><path d="M4.15 72.3q-.85-1-1.1-2.65v-.2l-.1-.65q-.2-4.25 3.8-5.8l1.1-.35m3.8 2.5Q8 67.6 8.15 70.7v.2q.2 2.1 2.4 2.7m1.1-8.45 1.3-.8" fill="none" stroke="#5b4524" stroke-linecap="round" stroke-linejoin="round" transform="translate(1 1)"/></g><g id="g"><path d="m20.15 26.1 3.35 11.1q9.8 8.75 34.95 11.45 11.6 1.3 19.8 4.5 6.3 1.45 11.3-.15-12.7 10.85-44.35 10.1-30.75-.4-38.95-17.45-1.6-3.3-2.75-6.65 23.1 23.35 20.2-1.1l-.2-.7q-3.7-3.3-6.45-10.8l3.1-.3M62.2 55.7q12.55-1.65 10.35-3.3L60.7 49.15Q55.6 56 62.2 55.7" fill="#a6572c" fill-rule="evenodd" transform="translate(.55)"/><path d="M62.2 55.7q-6.6.3-1.5-6.55l11.85 3.25q2.2 1.65-10.35 3.3M3.5 39Q1.35 32.8.65 26.35 3.5 23.8 11.2 25.5q2.5.95 5.85.9 2.75 7.5 6.45 10.8l.2.7Q26.6 62.35 3.5 39m4.75-9.85q-1.8.7-2.3 3.25-.45 2.65.75 5.65Q7.85 41 9.95 42.6q2.15 1.65 3.95.95 1.8-.75 2.25-3.4.55-2.6-.6-5.55-1.2-3-3.4-4.65-2.1-1.55-3.9-.8" fill="#dd7f4c" fill-rule="evenodd" transform="translate(.55)"/><path d="m.65 26.35-.2-2.7-.25-2.1 4.25-3.5q2 5.6 6.75 7.45-7.7-1.7-10.55.85" fill="#f4c165" fill-rule="evenodd" transform="translate(.55)"/><path d="M26.2 24.6q-3.25 1.05-6.05 1.5l-3.1.3q-3.35.05-5.85-.9-4.75-1.85-6.75-7.45L.2 21.55l-.15-2.5 5-3q5 10.9 21.15 8.55" fill="#b8924b" fill-rule="evenodd" transform="translate(.55)"/><path d="M40.8 17.95q-8.2 4.55-14.6 6.65-16.15 2.35-21.15-8.55l-5 3Q-.45 9.55 2.7 0l38.1 17.95" fill="#936f39" fill-rule="evenodd" transform="translate(.55)"/><path d="M8.25 29.15q1.8-.75 3.9.8 2.2 1.65 3.4 4.65 1.15 2.95.6 5.55-.45 2.65-2.25 3.4-1.8.7-3.95-.95-2.1-1.6-3.25-4.55-1.2-3-.75-5.65.5-2.55 2.3-3.25" fill="#e49878" fill-rule="evenodd" transform="translate(.55)"/><path d="M26.2 24.6q6.4-2.1 14.6-6.65l55.35 26q-2.1 5.25-6.6 9.05-5 1.6-11.3.15-8.2-3.2-19.8-4.5Q33.3 45.95 23.5 37.2l-3.35-11.1q2.8-.45 6.05-1.5" fill="#874123" fill-rule="evenodd" transform="translate(.55)"/><path d="M90.1 53q4.5-3.8 6.6-9.05M4.05 39q1.15 3.35 2.75 6.65Q15 62.7 45.75 63.1 77.4 63.85 90.1 53M4.05 39Q1.9 32.8 1.2 26.35l-.2-2.7" fill="none" stroke="#432012" stroke-linecap="round" stroke-linejoin="round" stroke-width="2"/></g><g id="h"><path d="m39.2 27 .75-.45 3.55-.15q1.5.9 1.65 3.15.1 1.3-.35 2.65l-.45.65-2.8 3.3-.75 1.25-.25.1-1.4.5q-1.2.2-2.15-.35-1.5-.85-1.65-3.15l.1-1.85q.3-1.35 1.1-2.75 1.1-1.85 2.65-2.9m-7.05-7.7q1.2-.15 1.9.55l.5.8q.25.75.05 1.75-.4 1.6-1.85 3.05-1.45 1.45-3.05 1.85l-.9.1-.15-.5-1.9-2.9q.45-1.5 1.75-2.8 1.45-1.45 3.1-1.8l.55-.1" fill="#945f1b" fill-rule="evenodd" transform="translate(1 1)"/><path d="M44.8 32.2q.45-1.35.35-2.65Q45 27.3 43.5 26.4l-3.55.15-.75.45q-.35-2.85-4.65-6.35l-.5-.8q-.7-.7-1.9-.55Q24 13.55 23.4 2.7l5.5-1.65v.05l.95 2.1 1.35 3.85q3.35 9.7 13.85 13 2 1.15 4.25 2 1.65 2.3-4.5 10.15m-9.35.45-.1 1.85q.15 2.3 1.65 3.15.95.55 2.15.35-.75 1.1-1.25 2.35-.8 1.85-1.1 3.95.15-4.85-3.8-8.5l2.45-3.15" fill="#b8924b" fill-rule="evenodd" transform="translate(1 1)"/><path d="m39.15 38 1.4-.5.25-.1q-1.45 2.6-.3 3.8 1.4 1.95-.15 5.35-.85 1.85-2.6 4.15-3.95 3.8-11.35 3.05l1.55-.1q6.7-.7 8.55-5.8l.25-3.25.05-.3q.3-2.1 1.1-3.95.5-1.25 1.25-2.35m5.9-17.95q-10.5-3.3-13.85-13L29.85 3.2l-.95-2.1v-.05L32.4 0l3.65 11.25q3.45 5.6 9 8.8" fill="#d8b685" fill-rule="evenodd" transform="translate(1 1)"/><path d="M39.2 27q-1.55 1.05-2.65 2.9-.8 1.4-1.1 2.75L33 35.8l-.15.2-1.05-.7-1.85-.95q-1.75-.75-3.5-.9 2.9-3.55 2.35-6.05l.9-.1q1.6-.4 3.05-1.85Q34.2 24 34.6 22.4q.2-1-.05-1.75 4.3 3.5 4.65 6.35M23.4 2.7q.6 10.85 8.75 16.6l-.55.1q-1.65.35-3.1 1.8-1.3 1.3-1.75 2.8-4-5.15-10.05-4.45-7.35.25-16.1-8.3Q12.9 6.1 23.4 2.7" fill="#f4c165" fill-rule="evenodd" transform="translate(1 1)"/><path d="M16.85 40.55q0-1.4 1.45-2.4t3.5-1q2.05 0 3.5 1 1.45 1 1.45 2.4t-1.45 2.4q-1.45 1-3.5 1t-3.5-1q-1.45-1-1.45-2.4" fill="#fee98c" fill-rule="evenodd" transform="translate(1 1)"/><path d="m41.8 38.4.75-1.25 2.8-3.3.45-.65q6.15-7.85 4.5-10.15-2.25-.85-4.25-2-5.55-3.2-9-8.8L33.4 1l-3.5 1.05-5.5 1.65Q13.9 7.1 1.6 12.25l-.6-.6M27.75 25l1.9 2.9.15.5q.55 2.5-2.35 6.05m.3-9.45q-4-5.15-10.05-4.45-7.35.25-16.1-8.3M41.8 38.4q-1.45 2.6-.3 3.8" fill="none" stroke="#5b4524" stroke-linecap="round" stroke-linejoin="round" stroke-width="2"/><path d="M16.8 40.6q0 1.4 1.45 2.4t3.5 1q2.05 0 3.5-1 1.45-1 1.45-2.4t-1.45-2.4q-1.45-1-3.5-1t-3.5 1q-1.45 1-1.45 2.4m3.9 12.1q-3.15-.45-5.75-2l-.25-.3q-3-3.95-1.2-9.5l.6-1.5q3.5-4.95 10.5-5.85 4.6 1.75 5.7 6.45 3.15 12-9.6 12.7" fill="#f4c165" fill-rule="evenodd" transform="translate(1 1)"/><path d="M16.8 40.6q0-1.4 1.45-2.4t3.5-1q2.05 0 3.5 1 1.45 1 1.45 2.4T25.25 43q-1.45 1-3.5 1t-3.5-1q-1.45-1-1.45-2.4" fill="#fee98c" fill-rule="evenodd" transform="translate(1 1)"/><path d="m29.9 34.4 1.85.95 1.05.7.15-.2q3.95 3.65 3.8 8.5l-.05.3-.25 3.25Q34.6 53 27.9 53.7q4.65-2.65 5.6-9 .8-6.15-3.6-10.3" fill="#936f39" fill-rule="evenodd" transform="translate(1 1)"/><path d="m24.6 33.55 1.8-.05q1.75.15 3.5.9 4.4 4.15 3.6 10.3-.95 6.35-5.6 9l-1.55.1q-2.6-.25-5.65-1.1Q33.45 52 30.3 40q-1.1-4.7-5.7-6.45m8.35 2.3q2.95 1.25 5.45 3.4l-.55 1.15q-.8 1.85-1.1 3.95.15-4.85-3.8-8.5" fill="#b8924b" fill-rule="evenodd" transform="translate(1 1)"/><path d="m38.4 39.25 1.45 1.4v1.45h1.05q.65 1.8-.6 4.5-.85 1.85-2.6 4.15-3.95 3.8-11.35 3.05l1.55-.1q6.7-.7 8.55-5.8l.25-3.25.05-.3q.3-2.1 1.1-3.95l.55-1.15" fill="#d8b685" fill-rule="evenodd" transform="translate(1 1)"/><path d="M21.7 53.7q-3.15-.45-5.75-2l-.25-.3q-3-3.95-1.2-9.5l.6-1.5q3.5-4.95 10.5-5.85l1.8-.05m14.5 8.6q.65 1.8-.6 4.5-.85 1.85-2.6 4.15-3.95 3.8-11.35 3.05-2.6-.25-5.65-1.1" fill="none" stroke="#5b4524" stroke-linecap="round" stroke-linejoin="round" stroke-width="2"/><path d="M26.4 33.5q1.75.15 3.5.9l1.85.95 1.05.7" fill="none" stroke="#5b4524" stroke-linecap="round" stroke-linejoin="round" transform="translate(1 1)"/></g><g id="i"><path d="M97.9 42.15q3.95 3.95 6.6 8.15l-.4.2q-2.45 1.3-5.65 1.6l-2.05.1q-4.5 0-7.45-2.45-2.9-2.45-2-5.75.9-3.35 4.25-2.75l.2.05 6.5.85m-32.1-17.4q7.35 1.75 14.4 5.2.5 2.2 0 3.95l-.6 1.5q-1.6 2.8-3.85 2.8t-3.5-3.6q-.8-2.35-2.3-4.35l-1.8-2.1q-1.75-1.75-2.35-3.4M91.2 36.6q-1.35 1.1-2.75.7-1.4-.35-2.05-2.05-.4-1-.35-2.05l5.15 3.4m-30.8 3.05-4.15 1.85q-1.5.45-4.1 2.85-2.55 2.45-4.25-2.85-1.7-5.3 1.65-7.35 3.35-2.05 6.75-2.3t4.85 1.45q1.45 1.7 1.7 3.3.25 1.6-2.45 3.05m.45 15.75 2.55.75 3.65.9-.2.45q-1.15 3.1-3.75.95-1.9-1.6-2.25-3.05m16.25-3.35-.2-.1q-4.5-2.5-11.25-4.3h-.1l1.95-.5q3.25-.4 6.45 1.15 3.25 1.5 3.15 3.55v.2M45.4 29.8q-1.25-.35-2.25-1.15-1.65-1.3-1.65-3.15 0-1.85 1.65-3.2Q44.8 21 47.1 21q2.3 0 3.95 1.3 1.65 1.35 1.65 3.2 0 .85-.35 1.6l-.35.6-.95.95Q49.4 30 47.1 30l-1.4-.1-.3-.1m-24.85-3.45q1 3.8 0 4.9-.95 1.1-3.8 1.1-2.85 0-4.85-2.05-2.05-2-2.05-4.85 0-2.85 2.05-4.9 2-2 3.4-2.05 1.4-.1 2.8 1.95 1.45 2.05 2.45 5.9" fill="#945f1b" fill-rule="evenodd"/><path d="M91.2 41.25q-3.35-.6-4.25 2.75-.9 3.3 2 5.75 2.95 2.45 7.45 2.45l2.05-.1 1.4 3.9q-6.35 3.1-17.2 5.9l-9.75-.55q-7.5.35-19.3-3.35-5.9-1.8-10.1-5.4-27.15-.15-36.15-12.2 12.95 5.05 13.8-4.4 19.95-.05 37.65-7.85l11.15 2.1q1.5 2 2.3 4.35 1.25 3.6 3.5 3.6t3.85-2.8l.6-1.5q6.5 2.6 11.1 7.25l-.1.1m-30.8-1.6q2.7-1.45 2.45-3.05-.25-1.6-1.7-3.3-1.45-1.7-4.85-1.45-3.4.25-6.75 2.3T47.9 41.5q1.7 5.3 4.25 2.85 2.6-2.4 4.1-2.85l4.15-1.85m.45 15.75q.35 1.45 2.25 3.05 2.6 2.15 3.75-.95l.2-.45 8.25.9q5.1.05 5.6-1.7.45-1.7-3.8-4.2v-.2q.1-2.05-3.15-3.55-3.2-1.55-6.45-1.15l-1.95.5q-6.75-1.85-11.8-1.9-5.15 0-5.6 1.75-.5 1.75 4 4.25 3.6 2.05 8.7 3.65" fill="#f4c165" fill-rule="evenodd"/><path d="m93.1 29.75-.05.05-.1-.15.15.1m11.4 20.55.2-.1.85 1.85.1.25q-2.2 1.9-5.8 3.7l-1.4-3.9q3.2-.3 5.65-1.6l.4-.2M91.25 36.55v.05l3.8 2.9 2.85 2.65-6.5-.85-.2-.05.1-.1q-4.6-4.65-11.1-7.25.5-1.75 0-3.95 2.95 1.45 5.85 3.25-.05 1.05.35 2.05.65 1.7 2.05 2.05 1.4.4 2.75-.7l.05-.05M65.8 24.75q.6 1.65 2.35 3.4l1.8 2.1-11.15-2.1Q41.1 35.95 21.15 36q-.85 9.45-13.8 4.4l-1.7-2.7q11.65 4.95 14.7-3.7 11.95-.4 25.05-4.2l.3.1 1.4.1q2.3 0 3.95-1.35l.95-.95 9.95-3.85 3.85.9" fill="#b8924b" fill-rule="evenodd"/><path d="m105.25 43.6-.8-.3q-1.9-.6-4.15-.9-3.2-4.6-7.4-8.15l.25-.8q.55-1.95-.1-3.65l.05-.05q6.9 5 12.15 13.85m.4 8.7-.1-.25-.85-1.85q2.2-1.35 2.5-3.05l1 1.95q-.8 1.65-2.55 3.2m-18.7-22.25-2.75-1.5-5.2-2.2-1.25-2.95 9 2.7 3.2 1.6q-.85.15-1.75.8l-1.25 1.55" fill="#d8b685" fill-rule="evenodd"/><path d="M100.3 42.4q2.25.3 4.15.9l.8.3 1.95 3.55q-.3 1.7-2.5 3.05-1.9-4.25-4.4-7.8m-7.25-12.6q.65 1.7.1 3.65l-.25.8-5.95-4.2 1.25-1.55q.9-.65 1.75-.8 1.55.85 3 1.95l.1.15M79 26.35q-5.8-2.5-11.1-5.15l-1-.5q.55-.45 1.4-.75l1.2.5 8.25 2.95L79 26.35" fill="#ba6f23" fill-rule="evenodd"/><path d="M92.9 34.25q4.2 3.55 7.4 8.15l-2.2-.25h-.2l-2.85-2.65-3.8-2.9v-.05q1.05-.85 1.65-2.3m-12.7-4.3-.5-1.6-.7-2 5.2 2.2 2.75 1.5q-.4.7-.65 1.55l-.25 1.6q-2.9-1.8-5.85-3.25M66.9 20.7q-.95.6-1.2 1.5l-.15.6q-.05.95.25 1.95l-3.85-.9L52 27.7l.35-.6q.35-.75.35-1.6 0-1.85-1.65-3.2Q49.4 21 47.1 21q-2.3 0-3.95 1.3-1.65 1.35-1.65 3.2t1.65 3.15q1 .8 2.25 1.15-13.1 3.8-25.05 4.2-3.05 8.65-14.7 3.7l-1.1-2.4Q-12.85-7.7 36 1.7q7.55 5.9 16.35 10.75 6.75 3.7 14.3 6.8l1.65.7q-.85.3-1.4.75m-46.35 5.65q-1-3.85-2.45-5.9-1.4-2.05-2.8-1.95-1.4.05-3.4 2.05-2.05 2.05-2.05 4.9 0 2.85 2.05 4.85 2 2.05 4.85 2.05 2.85 0 3.8-1.1 1-1.1 0-4.9" fill="#936f39" fill-rule="evenodd"/><path d="M67.05 57.05q1.3-2.75 5.45-2.95 4.25-.2 4.6-2.05 4.25 2.5 3.8 4.2-.5 1.75-5.6 1.7l-8.25-.9m-1.5-9.4q-1.85.7-2.95 2.35-1.6 2.4-1.85 4.35l.1 1.05q-5.1-1.6-8.7-3.65-4.5-2.5-4-4.25.45-1.75 5.6-1.75 5.05.05 11.8 1.9" fill="#fee98c" fill-rule="evenodd"/><path d="M97.9 42.15h.2l2.2.25q2.5 3.55 4.4 7.8l-.2.1q-2.65-4.2-6.6-8.15M79 26.35l.7 2 .5 1.6q-7.05-3.45-14.4-5.2-.3-1-.25-1.95l.15-.6q.25-.9 1.2-1.5l1 .5q5.3 2.65 11.1 5.15m7.05 6.85.25-1.6q.25-.85.65-1.55l5.95 4.2q-.6 1.45-1.65 2.3l-.05.05-5.15-3.4" fill="#88511a" fill-rule="evenodd"/><path d="m67.05 57.05-3.65-.9-2.55-.75-.1-1.05Q61 52.4 62.6 50q1.1-1.65 2.95-2.35h.1q6.75 1.8 11.25 4.3l.2.1q-.35 1.85-4.6 2.05-4.15.2-5.45 2.95" fill="#cf7a27" fill-rule="evenodd"/><path d="M105.25 43.6Q100 34.75 93.1 29.75l-.15-.1q-1.45-1.1-3-1.95l-3.2-1.6-9-2.7-8.25-2.95-1.2-.5-1.65-.7q-7.55-3.1-14.3-6.8Q43.55 7.6 36 1.7m71.2 45.45-1.95-3.55m1.95 3.55 1 1.95M7.35 40.4q9 12.05 36.15 12.2 4.2 3.6 10.1 5.4 11.8 3.7 19.3 3.35l9.75.55" fill="none" stroke="#5b4524" stroke-linecap="round" stroke-linejoin="round" stroke-width="2"/></g><g id="j"><path d="m21.8 5.1-.05-.7q0-1.8 1.3-3.1t3.1-1.3q1.8 0 3.1 1.3t1.3 3.1q0 .9-.35 1.65l-.95 1.45q-1.3 1.3-3.1 1.3t-3.1-1.3Q22 6.45 21.8 5.1M39 11.6q.5.55.5 1.25t-.5 1.2q-.55.55-1.25.55t-1.2-.55q-.55-.5-.55-1.2t.55-1.25q.5-.5 1.2-.5t1.25.5m-10.8 5.6q1.55 0 2.7 1.1Q32 19.45 32 21q0 1.55-1.1 2.65-1.15 1.15-2.7 1.15l-1.75-.4v.1q-.3 2.1-2 3.8-1.65 1.65-3.7 1.9-2.1.3-3.3-.9-1.25-1.25-.95-3.35.3-2 1.95-3.65 1.7-1.7 3.75-2.05l2.2.3q.2-1.3 1.15-2.25 1.1-1.1 2.65-1.1M32.8 34l-3.1 7.35-.15-1.5q0-2.55 1.35-4.35.85-1.15 1.9-1.5" fill="#945f1b" fill-rule="evenodd" transform="translate(1)"/><path d="M43.85 14q.9.35 1.7 1.25l.35 1q-4.1-1.85-8.05 5.85L32.8 34q-1.05.35-1.9 1.5-1.35 1.8-1.35 4.35l.15 1.5-4.8 11.2q-3.35 6.95-14.45 6.55.65 1.5 2.2 2.3-6.5 1.25-8.15-1.45-5.15-.4-4.4-7.5l.3-1.4Q.95 49 2 47.45q-1.3 5.1 1.75 7.3.05-3.4 2-5.05-1.7 5.35 1.4 6.5l2.85-.25q1.45-5.1 5.15-4.95-2.2.85-2.55 3.8 0 1.65 3.1 1.65 5.4-.4 7.1-5l10.6-26.3Q39.3 12.1 43.85 14m-33.4 45.1q-.55-1.3-.45-3.15-.1 1.85.45 3.15m-5.95.85q-.7-2.7-.75-4.8v-.4.4q.05 2.1.75 4.8" fill="#b8924b" fill-rule="evenodd" transform="translate(1)"/><path d="M30.2 6.05Q36.65 8.1 43.85 14 39.3 12.1 33.4 25.15l-10.6 26.3q-1.7 4.6-7.1 5-3.1 0-3.1-1.65.35-2.95 2.55-3.8-3.7-.15-5.15 4.95l-2.85.25q-3.1-1.15-1.4-6.5-1.95 1.65-2 5.05Q.7 52.55 2 47.45q2.9-4.65 9.75-5.5.9-15.25 4.75-35.45 2.55-1.15 5.3-1.4.2 1.35 1.25 2.4 1.3 1.3 3.1 1.3t3.1-1.3l.95-1.45m-2 11.15q-1.55 0-2.65 1.1-.95.95-1.15 2.25l-2.2-.3q-2.05.35-3.75 2.05-1.65 1.65-1.95 3.65-.3 2.1.95 3.35 1.2 1.2 3.3.9 2.05-.25 3.7-1.9 1.7-1.7 2-3.8v-.1l1.75.4q1.55 0 2.7-1.15Q32 22.55 32 21q0-1.55-1.1-2.7-1.15-1.1-2.7-1.1M39 11.6q-.55-.5-1.25-.5t-1.2.5q-.55.55-.55 1.25t.55 1.2q.5.55 1.2.55t1.25-.55q.5-.5.5-1.2T39 11.6M5.75 49.7l.9-.65-.9.65m6-7.75 1.65-.15-1.65.15" fill="#f4c165" fill-rule="evenodd" transform="translate(1)"/><path d="m42.65 19.1-5.8 15.95L35.4 34q3.5-7.55 7.25-14.9m-9.7 26.7-3.35 9.3q-3.7 7.1-15.75 6.4 9.3-1.15 12.95-8l4.05-9.45.05.1q.9 1.25 2.05 1.65" fill="#d8b685" fill-rule="evenodd" transform="translate(1)"/><path d="m36.85 35.05-3.9 10.75q-1.15-.4-2.05-1.65l-.05-.1L35.4 34l1.45 1.05" fill="#ba6f23" fill-rule="evenodd" transform="translate(1)"/><path d="M45.9 16.25q1.05 4-3.25 2.85Q38.9 26.45 35.4 34l-1.35-.25-1.25.25 5.05-11.9q3.95-7.7 8.05-5.85M13.85 61.5l-1.2-.1q-1.55-.8-2.2-2.3 11.1.4 14.45-6.55l4.8-11.2q.25 1.5 1.15 2.7L26.8 53.5q-3.65 6.85-12.95 8" fill="#936f39" fill-rule="evenodd" transform="translate(1)"/><path d="m32.8 34 1.25-.25 1.35.25-4.55 10.05q-.9-1.2-1.15-2.7L32.8 34" fill="#88511a" fill-rule="evenodd" transform="translate(1)"/><path d="m46.55 15.25.35 1q1.05 4-3.25 2.85l-5.8 15.95-3.9 10.75-3.35 9.3q-3.7 7.1-15.75 6.4l-1.2-.1q-6.5 1.25-8.15-1.45-5.15-.4-4.4-7.5l.3-1.4Q1.95 49 3 47.45q2.9-4.65 9.75-5.5.9-15.25 4.75-35.45m-3.1 35.3-1.65.15" fill="none" stroke="#5b4524" stroke-linecap="round" stroke-linejoin="round" stroke-width="2"/><path d="M10.45 59.1q.65 1.5 2.2 2.3m2.5-10.4q-3.7-.15-5.15 4.95-.1 1.85.45 3.15m-4.7-9.4q-1.95 1.65-2 5.05v.4q.05 2.1.75 4.8m2.15-10.9-.9.65" fill="none" stroke="#5b4524" stroke-linecap="round" stroke-linejoin="round" transform="translate(1)"/></g><g id="k"><path d="M109.95 9.55q2.7-.9 3.55-5.05-8.2-2.65-18.55-4.5l-11.4.8q12.25 3.4 20.9 6.6l5.5 2.15M40.15 43.2q-2.4-5.05-5.75-7.5h8.5q15.75 8.8 34.9 1.15 18.2-10.95 28.15-11 7.8 4.5 15.6.45 3.9-4.05-1.4-9.35-2.5-.25-2.85 2.95 2.85 1.8 2.85 3.65.45 3.35-11.3 1.05-1.05-1.15-1-3.1-13.7 2.2-32.05 11.4l-2.55.9Q45 43.15 28.95 18.85q-5.7 7.4-19.35 7.85v4.2q-3.9.45-6.05 4.5 5.35 7.8 18.6-4.65 8.35 8.65 18 12.45" fill="#94b3ae" fill-rule="evenodd" transform="translate(1 1)"/><path d="M113.5 4.5q-.85 4.15-3.55 5.05l4.55 2.05q6.75 3.25 9.4 6.25-.15 1.55-3.75-.9l-1.6-1.2q-6.1-2.95-9.7 1.85l-.15.4q-.6 1.55-.75 2.8l-.1.7q-.05 1.95 1 3.1 11.75 2.3 11.3-1.05 0-1.85-2.85-3.65.35-3.2 2.85-2.95 5.3 5.3 1.4 9.35-7.8 4.05-15.6-.45-9.95.05-28.15 11-19.15 7.65-34.9-1.15h-8.5q3.35 2.45 5.75 7.5 18.8 7.4 42.6-3.55 11.5-4.9 19.15-5.95 23.2-5 42.15-4.3-4.1-16.4-30.55-24.9m2.65 14.7 1.15.7-1.15-.7M.65 26.35q.85 6 2.9 9.05 2.15-4.05 6.05-4.5v-4.2l-8.95-.35" fill="#9ee7e0" fill-rule="evenodd" transform="translate(1 1)"/><path d="M120.15 16.95q3.6 2.45 3.75.9-2.65-3-9.4-6.25l-4.55-2.05-5.5-2.15Q95.8 4.2 83.55.8L21.8 4.9.35 6.35Q0 12.15 0 16.9l9.6 9.8q13.65-.45 19.35-7.85Q45 43.15 73.25 33.8l2.55-.9q18.35-9.2 32.05-11.4l.1-.7q.15-1.25.75-2.8l.15-.4q3.6-4.8 9.7-1.85l1.6 1.2m-5.65-5.35q-1.35 4.9-7.9 2.4 1.5 2.4 2.1 4-.6-1.6-2.1-4 6.55 2.5 7.9-2.4m-10.05-4.2q3 4.55 2.15 6.6-.7 1.6-3.8 1.7.9 2.1-.8 2.9 4.25 2.3 5.95 2.2-1.7.1-5.95-2.2 1.7-.8.8-2.9 3.1-.1 3.8-1.7.85-2.05-2.15-6.6m-33 19.6q2.7 3.4 1.8 6.8.9-3.4-1.8-6.8M21.8 4.9q3.2 7.95 7.15 13.95-3.95-6-7.15-13.95M96.95 19q6.4 7.8-14.15 2.25 5.9 9.75-6.55 7.25Q88.7 31 82.8 21.25 103.35 26.8 96.95 19l5.05-.4-5.05.4q-3.7-.35-9.6-1.85 5.9 1.5 9.6 1.85m.7-3.9 5.15.6-5.15-.6m-34 14.5q3.95 5-2.65 6.2 6.6-1.2 2.65-6.2" fill="#bb4b26" fill-rule="evenodd" transform="translate(1 1)"/><path d="M0 16.9q.05 5.4.65 9.45l8.95.35L0 16.9" fill="#ee5627" fill-rule="evenodd" transform="translate(1 1)"/><path d="m117.3 19.9-1.15-.7m-8.3 2.3q-.05 1.95 1 3.1 11.75 2.3 11.3-1.05 0-1.85-2.85-3.65" fill="none" stroke="#3d544f" stroke-linecap="round" stroke-linejoin="round" transform="translate(1 1)"/><path d="M120.15 16.95q3.6 2.45 3.75.9-2.65-3-9.4-6.25l-4.55-2.05-5.5-2.15Q95.8 4.2 83.55.8L21.8 4.9q3.2 7.95 7.15 13.95Q45 43.15 73.25 33.8q.9-3.4-1.8-6.8m48.7-10.05-1.6-1.2q-6.1-2.95-9.7 1.85l-.15.4q-.6-1.6-2.1-4 6.55 2.5 7.9-2.4m-5.8 6.4q-.6 1.55-.75 2.8-1.7.1-5.95-2.2 1.7-.8.8-2.9 3.1-.1 3.8-1.7.85-2.05-2.15-6.6m3.5 13.4-.1.7q-13.7 2.2-32.05 11.4l-2.55.9M102 18.6l-5.05.4q-3.7-.35-9.6-1.85m15.45-1.45-5.15-.6m-21.4 13.4Q88.7 31 82.8 21.25 103.35 26.8 96.95 19M9.6 26.7q13.65-.45 19.35-7.85M9.6 26.7l-8.95-.35M61 35.8q6.6-1.2 2.65-6.2" fill="none" stroke="#5b2113" stroke-linecap="round" stroke-linejoin="round" transform="translate(1 1)"/><path d="M114.5 5.5q26.45 8.5 30.55 24.9-18.95-.7-42.15 4.3-7.65 1.05-19.15 5.95-23.8 10.95-42.6 3.55-9.65-3.8-18-12.45Q9.9 44.2 4.55 36.4q-2.05-3.05-2.9-9.05M84.55 1.8l11.4-.8q10.35 1.85 18.55 4.5" fill="none" stroke="#3d544f" stroke-linecap="round" stroke-linejoin="round" stroke-width="2"/><path d="M22.8 5.9 1.35 7.35Q1 13.15 1 17.9q.05 5.4.65 9.45" fill="none" stroke="#5b2113" stroke-linecap="round" stroke-linejoin="round" stroke-width="2"/><path d="m30.25 34.65.65-.55q1.5-1.5.15-4.45-1.3-3-3.6-5.2-2.25-2.3-5.2-2.9-2.9-.65-5.65 1.55-.7.55-1.15.25l-.9 1.75q2.9 2.15 5.9 3.25 3 1.1 3.75 1.9 4.05 4.2-3.35 5.4l4.1.4 1.45-.1q2.4-.3 3.85-1.3" fill="#bb4b26" fill-rule="evenodd" transform="translate(1 1)"/><path d="M14.55 25.1q-.65 1.5-.75 2.9v.4q0 1.6.3 3.25l.25.95 1.9 1.35 1.65.8 2.15.7.8.2q7.4-1.2 3.35-5.4-.75-.8-3.75-1.9-3-1.1-5.9-3.25m2.65 6.75h.9l.85.45q.3.35.2.65-.05.25-.45.35h-1l-.75-.45-.3-.55q.1-.3.55-.45M13.8 28q2.7 3 9.85 3.8Q16.5 31 13.8 28" fill="#ee5627" fill-rule="evenodd" transform="translate(1 1)"/><path d="M9.3 34q-2.35 1.65-4.35 4.3-2.75 4-3.7 9.95Q11.9 45.9 14.5 40.2l-1.95 1.1q-1.5.6-2.3-.2l1.6-2.75Q11.45 35.9 9.3 34m11.9 8.75q2.7 8.8 11.4 11.55 2.9.8 4.95 1.55-.2-10.7-6.2-13.25 2.8 2.4.75 2.9-2.5.1-5.3-3.65-2.5 0-5.6.9m-16.4 2.4q-.3-.15-.1-.95.05-.8.6-1.75.55-.95 1.25-1.45.55-.5.85-.35.3.2.2 1l-.7 1.7-1.15 1.5q-.65.5-.95.3m27.55 4.3.75.6-.9.05-2.1-.95-2.05-1.4q-.75-.6-.6-.95l.95.05 2.05 1.2 1.9 1.4" fill="#ed5627" fill-rule="evenodd" transform="translate(1 1)"/><path d="M14.1 31.65q-2.55.75-4.8 2.35 2.15 1.9 2.55 4.35 1.9-2.75 4.4-4.4-2.5 1.65-4.4 4.4l-1.6 2.75q.8.8 2.3.2l1.95-1.1q2-1.75 3.4-5.45-1.4 3.7-3.4 5.45-2.6 5.7-13.25 8.05l-.35 2.9q2.95.15 6.15-.9 9.45-2.75 13.1-13.2.3 3.1 1.05 5.7 3.1-.9 5.6-.9 2.8 3.75 5.3 3.65 2.05-.5-.75-2.9l-.3-.1.05-.1.25.2q6 2.55 6.2 13.25 2.5.9 3.65 1.75 3.25-7.4-4.8-15.55-5.75-5.4-6.15-7.4-1.45 1-3.85 1.3l-1.45.1-4.1-.4-.8-.2.1 1.6-.1-1.6-2.15-.7-1.65-.8-1.9-1.35-.25-.95m17 10.75q-3.25-2-6.15-6.35.15 3.7 1.4 5.1l.45.7-.45-.7q-1.25-1.4-1.4-5.1 2.9 4.35 6.15 6.35" fill="#bc4a26" fill-rule="evenodd" transform="translate(1 1)"/><path d="M4.8 45.15q.3.2.95-.3l1.15-1.5.7-1.7q.1-.8-.2-1-.3-.15-.85.35-.7.5-1.25 1.45t-.6 1.75q-.2.8.1.95m12.4-13.3q-.45.15-.55.45l.3.55.75.45h1q.4-.1.45-.35.1-.3-.2-.65l-.85-.45h-.9m15.15 17.6-1.9-1.4-2.05-1.2-.95-.05q-.15.35.6.95l2.05 1.4 2.1.95.9-.05-.75-.6" fill="#fefefe" fill-rule="evenodd" transform="translate(1 1)"/><path d="M30.25 34.65q-1.45 1-3.85 1.3l-1.45.1-4.1-.4-.8-.2.1 1.6m-6.05-5.4.25.95 1.9 1.35q-2.5 1.65-4.4 4.4l-1.6 2.75m6-7.15 1.65.8q-1.4 3.7-3.4 5.45m3.4-5.45 2.15.7m3.6-3.65Q16.5 31 13.8 28m17.3 14.4.25.2q2.8 2.4.75 2.9-2.5.1-5.3-3.65l-.45-.7q-1.25-1.4-1.4-5.1 2.9 4.35 6.15 6.35" fill="none" stroke="#5b2113" stroke-linecap="round" stroke-linejoin="round" transform="translate(1 1)"/><path d="m31.25 35.65.65-.55q1.5-1.5.15-4.45-1.3-3-3.6-5.2-2.25-2.3-5.2-2.9-2.9-.65-5.65 1.55-.7.55-1.15.25l-.9 1.75q-.65 1.5-.75 2.9v.4q0 1.6.3 3.25-2.55.75-4.8 2.35-2.35 1.65-4.35 4.3-2.75 4-3.7 9.95l-.35 2.9q2.95.15 6.15-.9 9.45-2.75 13.1-13.2.3 3.1 1.05 5.7 2.7 8.8 11.4 11.55 2.9.8 4.95 1.55 2.5.9 3.65 1.75 3.25-7.4-4.8-15.55-5.75-5.4-6.15-7.4z" fill="none" stroke="#5b2113" stroke-linecap="round" stroke-linejoin="round" stroke-width="2"/></g><g id="l"><path d="m21.2 25.55.7-1.05v.05q.55-.85.75-2.6.65-6.65 3.05-8.6l.2-.15h.05q8-4.2 12.15 1.25l.1.85v.15l.05.2-3.3 2.05q.7-1.85.2-3.35l-.2-.45q-2.3-2.25-5.45-1.3h.05q-2.3.55-3.95 1.9l-.1.15-.1.1q-1.35 1.85-.7 5.45l.05.15q.45 1.5 1.25 2.5l-4.8 2.7m6.45-3.6h-.05l-.2-.25q-.6-.7-.9-1.6v-.2q-.5-2.65.35-4.05 1.35-1.1 3-1.55H30q2-.65 3.5.7.25 1.2-.5 2.7l-1.3.9-1.35-.15q-.55-.5-.2-1.3h-.05l.4-.5q.3-.05.75.25v.05l.7.1.45-.3.1-.05.1-.65q0-.5-.45-.65-1.2-.8-2.1-.45l.05-.05q-1 .15-1.55 1.4l-.1.2q-.85 2.2.9 3.5l.4.15.75.2-2.85 1.6" fill="#fffdfe" fill-rule="evenodd" transform="translate(.5 .5)"/><path d="m35.85 10.3-1-.4-.75-.2-.05-.05q-3.8-.8-9.05 2.05l-.2.05q-3.1 2.15-3.95 10l-.45 1.85q-.9 1.5-3.05 3.1-6.85 5.35-16.9 9.95L0 30.7 11.9 20 31.45 0l6.8 2.65L35 7.4l.85 2.9M1.2 38.25q10.2-4.7 17.25-10.15l1.65-1.4 1.1-1.15 4.8-2.7.1.1.05.05.15.1 2.1 1.35q3.8 1.25 7.25-.75 5.1-3.15 4.35-8.65l-.05-.25-.05-.2L48.25 9V6.5l3-.15-2.05 6.25-7.6 8.55L21.05 35.2 1.2 38.25m37.05-22.6q.4 4.1-3.5 6.55-2.7 1.55-5.75.55h.05l-1.4-.8 2.85-1.6.75.05 1.1-.1.1-.05.15-.05 1.9-1.5.1-.25.05-.05.3-.7 3.3-2.05M34.6 18.5h-.05.05" fill="#b3aaa1" fill-rule="evenodd" transform="translate(.5 .5)"/><path d="M.45 36.65q10.05-4.6 16.9-9.95 2.15-1.6 3.05-3.1l.45-1.85q.85-7.85 3.95-10l.2-.05q5.25-2.85 9.05-2.05l.05.05.75.2 1 .4.45.25v-.05q1.9 1 3.35 3.15l.1.4.15.55.05.2.05.25q.75 5.5-4.35 8.65-3.45 2-7.25.75l-2.1-1.35-.15-.1-.05-.05-.1-.1q-.8-1-1.25-2.5l-.05-.15q-.65-3.6.7-5.45l.1-.1.1-.15q1.65-1.35 3.95-1.9h-.05q3.15-.95 5.45 1.3l.2.45q.5 1.5-.2 3.35l-.3.7-.05.05-.1.25-1.9 1.5-.15.05-.1.05-1.1.1-.75-.05-.75-.2-.4-.15q-1.75-1.3-.9-3.5l.1-.2q.55-1.25 1.55-1.4l-.05.05q.9-.35 2.1.45.45.15.45.65l-.1.65-.1.05-.45.3-.7-.1v-.05q-.45-.3-.75-.25l-.4.5h.05q-.35.8.2 1.3l1.35.15 1.3-.9q.75-1.5.5-2.7-1.5-1.35-3.5-.7h-.15q-1.65.45-3 1.55-.85 1.4-.35 4.05v.2q.3.9.9 1.6l.2.25h.05l1.4.8H29q3.05 1 5.75-.55 3.9-2.45 3.5-6.55l-.05-.2v-.15l-.1-.85Q33.95 9 25.95 13.2h-.05l-.2.15q-2.4 1.95-3.05 8.6-.2 1.75-.75 2.6v-.05l-.7 1.05-1.1 1.15-1.65 1.4Q11.4 33.55 1.2 38.25l-.6.2-.3-.1L.1 38l-.1-.8.1-.3.2-.2.15-.05M34.6 18.5h-.05.05" fill="#ee5625" fill-rule="evenodd" transform="translate(.5 .5)"/><path d="M35.85 10.3 35 7.4l3.25-4.75 10 3.85V9l-8.35 5.6-.15-.55-.1-.4Q38.2 11.5 36.3 10.5v.05l-.45-.25" fill="#fff" fill-rule="evenodd" transform="translate(.5 .5)"/><path d="M49.2 12.6q-2.3 6.15-4.7 10.2L25.45 34.5l-4.4.7L41.6 21.15l7.6-8.55" fill="#d9d3d0" fill-rule="evenodd" transform="translate(.5 .5)"/><path d="M38.25 2.65 31.45 0 11.9 20 0 30.7l.45 5.95m20.6-1.45 4.4-.7L44.5 22.8q2.4-4.05 4.7-10.2l2.05-6.25-3 .15-10-3.85M21.05 35.2 1.2 38.25" fill="none" stroke="#675e54" stroke-linecap="round" stroke-linejoin="round" transform="translate(.5 .5)"/></g><g id="m"><path d="M48.25.15v2.5l-8.35 5.6-.15-.55-.1-.4Q34.8.1 25 5.3l-.2.1q-3.1 2.15-3.95 10l-.45 1.85q-.9 1.5-3.05 3.1Q10.5 25.7.45 30.3L0 24.35l11.9-10.7q5.85-5.9 11.7-12.35L48.25.15M26 16.5l-4.8 2.7.7-1.05v.05q.55-.85.75-2.6.65-6.65 3.05-8.6l.2-.15h.05q8-4.2 12.15 1.25l.1.85v.15l.05.2-3.3 2.05q.7-1.85.2-3.35l-.2-.45q-2.3-2.25-5.45-1.3h.05q-2.3.55-3.95 1.9l-.1.15-.1.1q-1.35 1.85-.7 5.45l.05.15q.45 1.5 1.25 2.5m1.65-.9h-.05l-.2-.25q-.6-.7-.9-1.6v-.2q-.5-2.65.35-4.05 1.35-1.1 3-1.55H30q2-.65 3.5.7.25 1.2-.5 2.7l-1.3.9-1.35-.15q-.55-.5-.2-1.3h-.05l.4-.5q.3-.05.75.25v.05l.7.1.45-.3.1-.05.1-.65q0-.5-.45-.65-1.2-.8-2.1-.45l.05-.05q-1 .15-1.55 1.4l-.1.2q-.85 2.2.9 3.5l.4.15.75.2-2.85 1.6" fill="#fffdfe" fill-rule="evenodd" transform="translate(.5 .5)"/><path d="m48.65 7.7-6.1 7-21.3 14.1L1.2 31.9q10.2-4.7 17.25-10.15l1.65-1.4 1.1-1.15 4.8-2.7.1.1.05.05.15.1 2.1 1.35q3.8 1.25 7.25-.75Q40.75 14.2 40 8.7l-.05-.25-.05-.2 8.35-5.6V.15l3-.15-2.6 7.7m-21 7.9L30.5 14l.75.05 1.1-.1.1-.05.15-.05 1.9-1.5.1-.25.05-.05.3-.7 3.3-2.05q.4 4.1-3.5 6.55-2.7 1.55-5.75.55h.05l-1.4-.8m6.95-3.45h-.05.05" fill="#b3aaa1" fill-rule="evenodd" transform="translate(.5 .5)"/><path d="m39.9 8.25.05.2.05.25q.75 5.5-4.35 8.65-3.45 2-7.25.75l-2.1-1.35-.15-.1-.05-.05-.1-.1q-.8-1-1.25-2.5l-.05-.15q-.65-3.6.7-5.45l.1-.1.1-.15q1.65-1.35 3.95-1.9h-.05q3.15-.95 5.45 1.3l.2.45q.5 1.5-.2 3.35l-.3.7-.05.05-.1.25-1.9 1.5-.15.05-.1.05-1.1.1-.75-.05-.75-.2-.4-.15q-1.75-1.3-.9-3.5l.1-.2q.55-1.25 1.55-1.4l-.05.05q.9-.35 2.1.45.45.15.45.65l-.1.65-.1.05-.45.3-.7-.1v-.05q-.45-.3-.75-.25l-.4.5h.05q-.35.8.2 1.3l1.35.15 1.3-.9q.75-1.5.5-2.7Q32 7.3 30 7.95h-.15q-1.65.45-3 1.55-.85 1.4-.35 4.05v.2q.3.9.9 1.6l.2.25h.05l1.4.8H29q3.05 1 5.75-.55 3.9-2.45 3.5-6.55l-.05-.2v-.15l-.1-.85q-4.15-5.45-12.15-1.25h-.05l-.2.15q-2.4 1.95-3.05 8.6-.2 1.75-.75 2.6v-.05l-.7 1.05-1.1 1.15-1.65 1.4Q11.4 27.2 1.2 31.9l-.6.2-.3-.1-.2-.35-.1-.8.1-.3.2-.2.15-.05q10.05-4.6 16.9-9.95 2.15-1.6 3.05-3.1l.45-1.85q.85-7.85 3.95-10l.2-.1q9.8-5.2 14.65 2l.1.4.15.55m-5.3 3.9h-.05.05" fill="#ee5625" fill-rule="evenodd" transform="translate(.5 .5)"/><path d="m21.25 28.8 21.3-14.1 6.1-7q-2 5.2-4.15 8.75l-19.05 11.7-4.2.65" fill="#d9d3d0" fill-rule="evenodd" transform="translate(.5 .5)"/><path d="m21.25 28.8 4.2-.65 19.05-11.7q2.15-3.55 4.15-8.75l2.6-7.7-3 .15L23.6 1.3q-5.85 6.45-11.7 12.35L0 24.35l.45 5.95m.75 1.6 20.05-3.1" fill="none" stroke="#675e54" stroke-linecap="round" stroke-linejoin="round" transform="translate(.5 .5)"/></g><g id="n"><path d="M15.65 35.55q-.1 2.25.45 3.05.6.8 1.25.8t1.15-1.25q.45-1.25.55-3.15.15-1.9-.35-3.15-.45-1.25-1.25-1.15-.75.1-1.25 1.35-.45 1.25-.55 3.5" fill="#fefefe" fill-rule="evenodd" transform="translate(1 -20.4)"/><path d="m29.15 42.65 5.05-3.6q-1.75-11.4-12.35-17.65-6.75 5.85-8.5 17.4.85 5.65 4.6 4.6 4.95-1.25 4.15-17.05l-.85-1.5q7.95 3.35 7.9 17.8m-13.5-7.1q.1-2.25.55-3.5.5-1.25 1.25-1.35.8-.1 1.25 1.15.5 1.25.35 3.15-.1 1.9-.55 3.15-.5 1.25-1.15 1.25-.65 0-1.25-.8-.55-.8-.45-3.05" fill="#f4c165" fill-rule="evenodd" transform="translate(1 -20.4)"/><path d="M13.35 38.8q-1 6.75-.35 15.45l12.6-9.05 3.55-2.55q.05-14.45-7.9-17.8l.85 1.5q.8 15.8-4.15 17.05-3.75 1.05-4.6-4.6m12.25 6.4q.3-11.7-3.5-18.85 3.8 7.15 3.5 18.85" fill="#b7914a" fill-rule="evenodd" transform="translate(1 -20.4)"/><path d="M14.35 18.4q-1 6.75-.35 15.45l12.6-9.05 3.55-2.55 5.05-3.6Q33.45 7.25 22.85 1q-6.75 5.85-8.5 17.4M23.1 5.95q3.8 7.15 3.5 18.85M22.25 4.45l.85 1.5" fill="none" stroke="#5b4524" stroke-linecap="round" stroke-linejoin="round" stroke-width="2"/><path d="M94.7 41q4.95-2.6 10.3-4.25 2.6.4.05 2.55-4.75 4.05-7.95 5.55-4.25 1.2-2.4-3.85" fill="#ffe2b0" fill-rule="evenodd" transform="translate(1 -20.4)"/><path d="m105 36.75 4.55-.85q3.15-.55 8.6 1.15v1.5q-12.55.6-19.75 8.4-2.5 2.5-7 .75l-2.95-3q3.05-2.05 6.25-3.7-1.85 5.05 2.4 3.85 3.2-1.5 7.95-5.55 2.55-2.15-.05-2.55" fill="#f4c165" fill-rule="evenodd" transform="translate(1 -20.4)"/><path d="M118.15 38.55q-.05 11.75-2.85 18.35l-1.65-3.8q.75 9.85-5.9 10.8l-6.15-6.1q6.3-13.75 13.1-17.3-8.35.3-16.05 8.8l-2.45 3.15-4.8-4.75q4.5 1.75 7-.75 7.2-7.8 19.75-8.4" fill="#b8924b" fill-rule="evenodd" transform="translate(1 -20.4)"/><path d="m101.6 57.8-5.4-5.35 2.45-3.15q7.7-8.5 16.05-8.8-6.8 3.55-13.1 17.3" fill="#936f39" fill-rule="evenodd" transform="translate(1 -20.4)"/><path d="m106 16.35 4.55-.85q3.15-.55 8.6 1.15v1.5q-.05 11.75-2.85 18.35l-1.65-3.8q.75 9.85-5.9 10.8l-6.15-6.1-5.4-5.35-4.8-4.75-2.95-3q3.05-2.05 6.25-3.7 4.95-2.6 10.3-4.25m9.7 3.75q-8.35.3-16.05 8.8" fill="none" stroke="#5b4524" stroke-linecap="round" stroke-linejoin="round" stroke-width="2"/><path d="m30.3 40.35.55-.4.45-1.15-.1-.6.2-.05q.55 0 .95.4.4.4.4.95 0 .55-.4.95-.4.4-.95.4-.55 0-.95-.4l-.15-.1m4.1 2.05v-.05q0-.6.45-1.05.45-.45 1.05-.45.6 0 1.05.45.45.45.45 1.05 0 .6-.45 1.05-.45.45-1.05.45-.6 0-1.05-.45l-.05-.05q-.4-.45-.4-.95m-.05 3.15q.35.4.35.9 0 .55-.35.9-.4.4-.95.4-.55 0-.9-.4l-.35-.45q1.05-.1 1.85-.9l.35-.45M.4 64.35q1.25-.85 2.95-.85 2 0 3.45 1.15 1.4 1.2 1.4 2.9T6.8 70.4q-1.45 1.2-3.45 1.2-1.95 0-3.35-1.15l.4-6.1m64.7 43.2-.65-1.5q-.9-2.35 1.4-3.35 2.35-1 4.3-1 1.95 0 3.35 1.4l.5.6q.9 1.2.9 2.75 0 1.25-.6 2.3l-.8 1.05q-1.4 1.4-3.35 1.4-1.95 0-3.4-1.4l-.9-1.05-.75-1.2M85.75 91.7q-2.25-.85-1.65-3.75l.05-.1 1.05-.65q3.95-2.7 6.65-7l.9-1.5.2-.1q2.2-.9 3.55.65 1.45 1.55.9 4.2-.45 2.65-2.5 4.7-2.05 2.05-4.45 3.25-2.35 1.15-4.7.3M70.1 85.85q.35.7.35 1.5 0 1.6-1.35 2.7-1.35 1.15-3.3 1.15-1.95 0-3.3-1.15-1.35-1.1-1.35-2.7t1.35-2.75l.1-.1q1.35-1 3.2-1 1.95 0 3.3 1.1l1 1.25m-28.65-45.2q.55 0 .95.4.4.4.4.95 0 .55-.4.95-.4.4-.95.4-.55 0-.95-.4-.4-.4-.4-.95 0-.55.4-.95.4-.4.95-.4m-38.6 34.6q1-1.8 2.7-2.5l2.95.05q1.35.8 1.6 2.6.15 1.75-.85 3.55Q8.2 80.7 6.6 81.5l-3.05-.1q-1.35-.75-1.5-2.55-.25-1.85.8-3.6m1.8-13.8q0-.95.7-1.65.65-.65 1.6-.65.95 0 1.65.65.65.7.65 1.65t-.65 1.6q-.7.7-1.65.7t-1.6-.7q-.7-.65-.7-1.6M39.2 47q.4.4.4.95 0 .55-.4.95-.4.4-.95.4-.55 0-.95-.4-.4-.4-.4-.95 0-.55.4-.95.4-.4.95-.4.55 0 .95.4m34.35.95q0-.65.5-1.15.45-.45 1.1-.45.65 0 1.15.45.45.5.45 1.15 0 .65-.45 1.1-.5.5-1.15.5-.65 0-1.1-.5-.5-.45-.5-1.1m-13.65 5.3q.45-.45 1.15-.45t1.2.45q.45.5.45 1.2l-.45 1.15q-.5.5-1.2.5t-1.15-.5q-.5-.45-.5-1.15t.5-1.2m-5.35-1.75q.4.4.4.95 0 .55-.4.95-.4.4-.95.4-.55 0-.95-.4-.4-.4-.4-.95 0-.55.4-.95.4-.4.95-.4.55 0 .95.4m5.05-6.25q.65 0 1.1.45.45.45.45 1.1 0 .65-.45 1.1-.45.45-1.1.45-.65 0-1.1-.45-.45-.45-.45-1.1 0-.65.45-1.1.45-.45 1.1-.45m5.4 4.3q0-.85.6-1.45t1.45-.6q.85 0 1.45.6t.6 1.45q0 .85-.6 1.45t-1.45.6q-.85 0-1.45-.6t-.6-1.45m20.15 56.05-1.65-1.05q-1.85-1.55-1.85-3.75t1.8-3.6q1.8-1.45 4-1.45 2.2-.05 4.4 1.45 1.15.75 1.8 2-3.65 3.5-8.5 6.4M99.7 91.75l-.25-1.4q0-1.75 1.25-3l.4-.35q.55-.4 1.2-.6-1.1 2.75-2.6 5.35m4.2-11.1q-1.1-1.95-1.1-3.8 0-2 1.2-3.4l.55-.55q.05 4.05-.65 7.75m-11.35 25.1 1.55-1.05q-.5.8-1.5 1l-.05.05m18.35-30.1.1 1.2q0 1.4-.55 2.85l.45-4.05m-3.2 13.45.15 1.25q0 1.75-1.2 2.95-.9.9-2 1.15 1.75-2.55 3.05-5.35" fill="#714c1f" fill-rule="evenodd" transform="translate(1 -20.4)"/><path d="m31.2 38.2.1.6-.45 1.15-.55.4-.65.1q-.7 0-1.15-.5-.5-.45-.5-1.15t.5-1.2q.45-.45 1.15-.45t1.2.45l.35.6m-2.25 5.35q.15-.95.9-1.7.85-.85 2.05-.85 1.2 0 2.1.85l.4.55q0 .5.4.95l.05.6q0 .9-.5 1.6L34 46q-.8.8-1.85.9h-.25q-.75 0-1.4-.35l-.65-.55q-.9-.85-.9-2.05v-.4" fill="#fff" fill-rule="evenodd" transform="translate(1 -20.4)"/><path d="M30.5 46.55q2.1 3.5 5 5.3 9.45 5.75 22.25 5.75 10.4-.35 19.85-4.35 3.55-1.9 4.25-4.85-4.45-1.65-8.35-4.9-29 .85-31.05-5.15-3.7.75-5.95 0-1.9-1.05-3.3-3.75-2.8-.5-6.1 2.85.7 3.3 1.85 6.1v.4q0 1.2.9 2.05l.65.55M.55 78.9q13.35 28.9 50.95 30.15 7.45.2 13.6-1.5l.75 1.2.9 1.05q1.45 1.4 3.4 1.4t3.35-1.4l.8-1.05q.6-1.05.6-2.3 0-1.55-.9-2.75 7-4.3 11.75-12 2.35.85 4.7-.3 2.4-1.2 4.45-3.25 2.05-2.05 2.5-4.7.55-2.65-.9-4.2-1.35-1.55-3.55-.65l-.2.1.65-1.3 1.3-3q.15-.4-.05-.75l-.55-.55-.75.05q-.4.15-.55.55l-.9 2.2q-.55-.5-1.65-.4-1.7 2.95-5.5 6.4-8.25 3.8-14.65 3.95l-1-1.25q-1.35-1.1-3.3-1.1-1.85 0-3.2 1-5.45-2.35-8.8-8.8-17.7 1.5-24.4-4.6-9.25 5.05-14.1-6-2.4-11.45 3.1-22.7Q27.3 32.2 34 29.85q21.7-4.65 39.35 2.6 17.1 8.7 27.35 20.45 3.75 10.85 3.85 20l-.55.55q-1.2 1.4-1.2 3.4 0 1.85 1.1 3.8l.15.25-.2-.05q-.55 2.85-1.55 5.55-.65.2-1.2.6l-.4.35q-1.25 1.25-1.25 3l.25 1.4q-2.45 4-6.05 7.45-.65-1.25-1.8-2-2.2-1.5-4.4-1.45-2.2 0-4 1.45-1.8 1.4-1.8 3.6t1.85 3.75l1.65 1.05-4.75 2.55q-17.5 8.1-33.55 7.9 17.1 1.35 34.8-4.9 6.05-2.4 10.9-5.4l.05-.05q1-.2 1.5-1 6.55-4.5 10.55-10.25 1.1-.25 2-1.15 1.2-1.2 1.2-2.95l-.15-1.25q1.95-4.4 2.75-9.4.55-1.45.55-2.85l-.1-1.2q.3-5.85-.85-12.4 3.55-2.1 3.6-10.15 8.35 41.65-22.1 56.3-27.75 12.15-63.45 3.5Q3.95 101.6.55 78.9" fill="#b8924b" fill-rule="evenodd" transform="translate(1 -20.4)"/><path d="m30.3 40.35.15.1q.4.4.95.4.55 0 .95-.4.4-.4.4-.95 0-.55-.4-.95-.4-.4-.95-.4l-.2.05-.35-.6q-.5-.45-1.2-.45t-1.15.45q-.5.5-.5 1.2t.5 1.15q.45.5 1.15.5l.65-.1m-1.35 3.2q-1.15-2.8-1.85-6.1 3.3-3.35 6.1-2.85 1.4 2.7 3.3 3.75 2.25.75 5.95 0 2.05 6 31.05 5.15 3.9 3.25 8.35 4.9-.7 2.95-4.25 4.85-9.45 4-19.85 4.35-12.8 0-22.25-5.75-2.9-1.8-5-5.3.65.35 1.4.35h.25l.35.45q.35.4.9.4t.95-.4q.35-.35.35-.9 0-.5-.35-.9.5-.7.5-1.6l-.05-.6.05.05q.45.45 1.05.45.6 0 1.05-.45.45-.45.45-1.05 0-.6-.45-1.05-.45-.45-1.05-.45-.6 0-1.05.45-.45.45-.45 1.05v.05l-.4-.55q-.9-.85-2.1-.85-1.2 0-2.05.85-.75.75-.9 1.7M.4 64.35q1-9.4 4.7-20.3-.5 6.55 2.35 7.9 2.35 1.1 8.7-6.85l2.25-2.7q-5.5 11.25-3.1 22.7 4.85 11.05 14.1 6 6.7 6.1 24.4 4.6 3.35 6.45 8.8 8.8l-.1.1q-1.35 1.15-1.35 2.75t1.35 2.7q1.35 1.15 3.3 1.15 1.95 0 3.3-1.15 1.35-1.1 1.35-2.7 0-.8-.35-1.5 6.4-.15 14.65-3.95 3.8-3.45 5.5-6.4 1.1-.1 1.65.4l-.3.6v.05l-1.4 2.55-.05.05q-2.5 3.95-6.05 6.4-2.2 1.45-4.75 2.35-.4.15-.6.55-.2.35-.05.75l.55.55.75.05 4.15-1.95-.05.1q-.6 2.9 1.65 3.75Q81 99.4 74 103.7l-.5-.6q-1.4-1.4-3.35-1.4-1.95 0-4.3 1-2.3 1-1.4 3.35l.65 1.5q-6.15 1.7-13.6 1.5Q13.9 107.8.55 78.9q-.6-4.05-.55-8.45 1.4 1.15 3.35 1.15 2 0 3.45-1.2 1.4-1.15 1.4-2.85 0-1.7-1.4-2.9-1.45-1.15-3.45-1.15-1.7 0-2.95.85m11.25-8.15q-.4-.1-.75.15t-.4.65q-1.6 10.2 3.6 15.1l.75.25q.4 0 .7-.3l.25-.7-.3-.7q-4.4-4.35-3-13.35l-.2-.75q-.25-.3-.65-.35m29.8-15.55q-.55 0-.95.4-.4.4-.4.95 0 .55.4.95.4.4.95.4.55 0 .95-.4.4-.4.4-.95 0-.55-.4-.95-.4-.4-.95-.4M39.2 47q-.4-.4-.95-.4-.55 0-.95.4-.4.4-.4.95 0 .55.4.95.4.4.95.4.55 0 .95-.4.4-.4.4-.95 0-.55-.4-.95M4.65 61.45q0 .95.7 1.6.65.7 1.6.7.95 0 1.65-.7.65-.65.65-1.6 0-.95-.65-1.65-.7-.65-1.65-.65t-1.6.65q-.7.7-.7 1.65m-1.8 13.8q-1.05 1.75-.8 3.6.15 1.8 1.5 2.55l3.05.1q1.6-.8 2.65-2.55 1-1.8.85-3.55-.25-1.8-1.6-2.6l-2.95-.05q-1.7.7-2.7 2.5M65 49.55q0 .85.6 1.45t1.45.6q.85 0 1.45-.6t.6-1.45q0-.85-.6-1.45t-1.45-.6q-.85 0-1.45.6t-.6 1.45m-5.4-4.3q-.65 0-1.1.45-.45.45-.45 1.1 0 .65.45 1.1.45.45 1.1.45.65 0 1.1-.45.45-.45.45-1.1 0-.65-.45-1.1-.45-.45-1.1-.45m-5.05 6.25q-.4-.4-.95-.4-.55 0-.95.4-.4.4-.4.95 0 .55.4.95.4.4.95.4.55 0 .95-.4.4-.4.4-.95 0-.55-.4-.95m5.35 1.75q-.5.5-.5 1.2t.5 1.15q.45.5 1.15.5t1.2-.5l.45-1.15q0-.7-.45-1.2-.5-.45-1.2-.45t-1.15.45m13.65-5.3q0 .65.5 1.1.45.5 1.1.5.65 0 1.15-.5.45-.45.45-1.1 0-.65-.45-1.15-.5-.45-1.15-.45-.65 0-1.1.45-.5.5-.5 1.15" fill="#f4c165" fill-rule="evenodd" transform="translate(1 -20.4)"/><path d="M84.15 87.85 80 89.8l-.75-.05-.55-.55q-.15-.4.05-.75.2-.4.6-.55 2.55-.9 4.75-2.35 3.55-2.45 6.05-6.4l.05-.05 1.4-2.55v-.05l.3-.6.9-2.2q.15-.4.55-.55l.75-.05.55.55q.2.35.05.75l-1.3 3-.65 1.3-.9 1.5q-2.7 4.3-6.65 7l-1.05.65M11.65 56.2q.4.05.65.35l.2.75q-1.4 9 3 13.35l.3.7-.25.7q-.3.3-.7.3l-.75-.25Q8.9 67.2 10.5 57q.05-.4.4-.65.35-.25.75-.15" fill="#886932" fill-rule="evenodd" transform="translate(1 -20.4)"/><path d="M113.65 53.1q7.9 15.15 3.85 32.15-1.8 5.7-4.7 11.05-5.15 9.5-14.75 14.6-10.1 5.45-21.4 7.85-11.95 2.4-24 .85-11.7-1.4-22.55-5.8l-2-.9q35.7 8.65 63.45-3.5 30.45-14.65 22.1-56.3" fill="#d8b685" fill-rule="evenodd" transform="translate(1 -20.4)"/><path d="M100.7 52.9q4.45 5.2 7.6 10.95l1.75-.6q1.15 6.55.85 12.4-.3-1.25-1.1-2.2-1.2-1.45-2.9-1.45-1.35 0-2.35.9-.1-9.15-3.85-20m-7.05 46.3q3.6-3.45 6.05-7.45.3.85 1 1.55l.4.4q1.1.85 2.55.85l1-.1q-4 5.75-10.55 10.25.55-.95.35-2.7-.15-1.6-.8-2.8m8.65-12.8q1-2.7 1.55-5.55l.2.05q1.3 2 2.95 2 1.8 0 2.9-2l.55-1.2q-.8 5-2.75 9.4-.3-1-1.05-1.75-1.25-1.2-3-1.2l-1.35.25m-17.15 19.2q1.2.55 2.7.55l4.7-.4q-4.85 3-10.9 5.4-17.7 6.25-34.8 4.9 16.05.2 33.55-7.9l4.75-2.55" fill="#866535" fill-rule="evenodd" transform="translate(1 -20.4)"/><path d="m104.05 80.9-.15-.25q.7-3.7.65-7.75 1-.9 2.35-.9 1.7 0 2.9 1.45.8.95 1.1 2.2l-.45 4.05-.55 1.2q-1.1 2-2.9 2-1.65 0-2.95-2m-11.5 24.85-4.7.4q-1.5 0-2.7-.55 4.85-2.9 8.5-6.4.65 1.2.8 2.8.2 1.75-.35 2.7l-1.55 1.05m12.1-11.3-1 .1q-1.45 0-2.55-.85l-.4-.4q-.7-.7-1-1.55 1.5-2.6 2.6-5.35l1.35-.25q1.75 0 3 1.2.75.75 1.05 1.75-1.3 2.8-3.05 5.35" fill="#5e3c1a" fill-rule="evenodd" transform="translate(1 -20.4)"/><path d="m19.4 22-2.25 2.7q-6.35 7.95-8.7 6.85-2.85-1.35-2.35-7.9-3.7 10.9-4.7 20.3l-.4 6.1q-.05 4.4.55 8.45 3.4 22.7 27.55 34l2 .9q10.85 4.4 22.55 5.8 12.05 1.55 24-.85 11.3-2.4 21.4-7.85 9.6-5.1 14.75-14.6 2.9-5.35 4.7-11.05 4.05-17-3.85-32.15-.05 8.05-3.6 10.15l-1.75.6q-3.15-5.75-7.6-10.95-10.25-11.75-27.35-20.45Q56.7 4.8 35 9.45 28.3 11.8 19.4 22z" fill="none" stroke="#5b4524" stroke-linecap="round" stroke-linejoin="round" stroke-width="2"/><path d="m41 86.3.4.55q.5.55 1.25.55t1.3-.55q.5-.5.5-1.25t-.5-1.3l-.25-.15q-.45-.35-1.05-.35-.75 0-1.25.5-.55.55-.55 1.3l.15.7m-16.8.7.1-.65q0-.9-.55-1.55-.6-.6-1.4-.6-.8 0-1.35.6-.6.65-.6 1.55t.6 1.5l.15.2q.5.45 1.2.45.8 0 1.4-.65l.45-.85m-2.3-5.45q0 .65.6 1.1.55.45 1.4.45l1.45-.45q.55-.45.55-1.1 0-.65-.55-1.1-.6-.45-1.45-.45t-1.4.45q-.6.45-.6 1.1m-3.4-1.05q-.7 0-1.2.5t-.5 1.2q0 .7.5 1.2t1.2.5q.7 0 1.2-.5t.5-1.2q0-.7-.5-1.2t-1.2-.5m30.85 8.65q0 .9.65 1.5.6.65 1.5.65t1.55-.65q.6-.6.6-1.5t-.6-1.55q-.65-.6-1.55-.6t-1.5.6q-.65.65-.65 1.55M42 94.25q.55.75 1.35.75t1.4-.75q.55-.7.55-1.75t-.55-1.8q-.6-.7-1.4-.7-.8 0-1.35.7-.6.75-.6 1.8t.6 1.75m7.7.6q-.35.5-.35 1.15 0 .85.65 1.4.65.6 1.6.6.95 0 1.6-.6.65-.55.65-1.4 0-.85-.65-1.45l-.7-.4-.4.65q-.5.5-1.2.5-.65 0-1.2-.45M15.25 86q0 .6.45 1.05.45.45 1.05.45.6 0 1.05-.45l.45-1.05q0-.6-.45-1.05-.45-.45-1.05-.45-.6 0-1.05.45-.45.45-.45 1.05" fill="#714c1f" fill-rule="evenodd" transform="translate(1 -20.4)"/><path d="m52.5 94.15.1-.55q0-.7-.5-1.2t-1.2-.5q-.7 0-1.2.5t-.5 1.2q0 .7.5 1.2v.05q.55.45 1.2.45.7 0 1.2-.5l.4-.65M14 82.7q0 .55.3.9.25.4.6.4t.65-.4l.25-.9-.25-.95q-.3-.35-.65-.35-.35 0-.6.35-.3.4-.3.95" fill="#fefefe" fill-rule="evenodd" transform="translate(1 -20.4)"/><path d="M63.9 98.6q1-1.55-.95-1.7-6.5 1.45-11.45 1.35-12.25-.4-14.35-11 2.25-.2 3.85-.95l-.15-.7q0-.75.55-1.3.5-.5 1.25-.5.6 0 1.05.35 1.2-1.7 1.3-4.15.1-2.55-3.25-3.3l-.3-.05-12.9-.95q.4 8.6-4.35 11.3l-.45.85q-.6.65-1.4.65-.7 0-1.2-.45H21l-2.75.15q-4.9-.7-7.2-6.15-.5 1.3 0 3l.5.75q2.2 5.95 5.45 7.65 6.35 4.1 13.4-.85 9.3 16.7 28.25 8.2 2.6-.8 5.25-2.2M34.35 79.95q-1.5 3.5-1.85 6.45-.65 6.4 4.4 10.2 10.4 7.65 21.75 4.2-11.35 3.45-21.75-4.2-5.05-3.8-4.4-10.2.35-2.95 1.85-6.45m-22.8 5.85q3.95 5.7 8.6 6.55 8.6 1.1 12.35-5.95-3.75 7.05-12.35 5.95-4.65-.85-8.6-6.55" fill="#b8924b" fill-rule="evenodd" transform="translate(1 -20.4)"/><path d="m12.05 64.65.5.75q3.95 5.7 8.6 6.55 8.6 1.1 12.35-5.95.35-2.95 1.85-6.45m24.3 20.85q2.6-.8 5.25-2.2m-5.25 2.2Q48.3 83.85 37.9 76.2q-5.05-3.8-4.4-10.2" fill="none" stroke="#5b4524" stroke-linecap="round" stroke-linejoin="round" stroke-width="2"/><path d="M36.65 73.3 35.5 73q-3.2-.6-5.5.55t-2.3 3.4q0 2.25 2.3 4.25 1 .85 2.15 1.45 2.75.65 5.45-.6 4.4-2.4-.95-8.75m-5.55 5.4q-.35-.3-.25-.7.1-.35.55-.5.45-.15 1 0 .6.15.95.55.3.35.2.7l-.5.5-1.1-.05q-.55-.15-.85-.5" fill="#53201d" fill-rule="evenodd" transform="translate(1 -20.4)"/><path d="M32.15 82.65q1.55.8 3.35 1.15 3.25.65 5.5-.55 2.3-1.1 2.3-3.35T41 75.6q-1.85-1.6-4.35-2.3 5.35 6.35.95 8.75-2.7 1.25-5.45.6" fill="#4f1c19" fill-rule="evenodd" transform="translate(1 -20.4)"/><path d="M31.1 78.7q.3.35.85.5l1.1.05.5-.5q.1-.35-.2-.7-.35-.4-.95-.55-.55-.15-1 0-.45.15-.55.5-.1.4.25.7" fill="#fffffd" fill-rule="evenodd" transform="translate(1 -20.4)"/><path d="m37.65 52.9-1.15-.3q-3.2-.6-5.5.55t-2.3 3.4q0 2.25 2.3 4.25 1 .85 2.15 1.45 1.55.8 3.35 1.15 3.25.65 5.5-.55 2.3-1.1 2.3-3.35T42 55.2q-1.85-1.6-4.35-2.3z" fill="none" stroke="#432012" stroke-linecap="round" stroke-linejoin="round" stroke-width="2"/></g><g id="o"><path d="M21.8 11.05q.05-1.35-.55-2.3l-.4-.35q-2.15-1.05-4.1.3-1.5.8-2.4 2.1l-.1.35q-.55 1.6.65 4.05l.05.05 1.4 1.45.05.05-2.5 2.55.2-.6q.2-.65 0-2v-.05q-.9-4.55.3-6.4l.05-.15.1-.1q4.6-4.4 8.5-1.55l.2.4.05.2.1.2-1.6 1.8m2.75-3.1-.2-.35-.35-.3q-4.9-4-10.7 1.75l-.05.05q-1.75 2.15-.7 7.85l.05 1.35h-.05q-.25 1.15-1.4 2.7-3.05 4.25-8.9 10 1.05.7.8 1.05L3 32.1l-.05.05L0 27.45l6.05-9.9L11.7 6.6 28.55.75l.5 1.7-4.5 5.5m-7 7.65-.1-.05-.1-.05q-.6-.35-1.05-1.05v-.05q-.8-1.65-.55-2.75.65-.95 1.7-1.6l.15-.05q1.15-.8 2.4-.25.35.75.15 1.8l-.7.85-.8.15q-.4-.2-.35-.7l.1-.3h.4l.7-.05.3-.4v-.55q-.1-.45-.55-.5l-1.7.1v.05q-.65.35-.85 1.4v.15q-.1 1.75 1.45 2.3l.3.1h.5l-1.4 1.45M3 32.15h-.05H3" fill="#fffdfe" fill-rule="evenodd" transform="translate(.5 .5)"/><path d="m21.8 11.05 1.6-1.8q1 2.6-1.05 5.05v-.05Q20.8 15.9 18.6 15.8l-1.05-.2 1.4-1.45.7-.15.7-.3.1-.05.15-.1 1.05-1.4.05-.25v-.15l.1-.7m-7.9 8.25 2.5-2.55.25.15 1.85.45q2.95.15 5-2.05 2.9-3.25 1.2-6.95l-.1-.25-.05-.15 4.5-5.5-.5-1.7L30.6 0q-.05 4.65-.5 8.25L15.2 26.4 3 32.15h-.05L3 32.1l.05-.05q5.8-5.15 9.35-10.15l.9-1.3.6-1.3" fill="#b3aaa1" fill-rule="evenodd" transform="translate(.5 .5)"/><path d="m16.4 16.75-.05-.05-1.4-1.45-.05-.05q-1.2-2.45-.65-4.05l.1-.35q.9-1.3 2.4-2.1 1.95-1.35 4.1-.3l.4.35q.6.95.55 2.3l-.1.7v.15l-.05.25-1.05 1.4-.15.1-.1.05-.7.3-.7.15h-.5l-.3-.1q-1.55-.55-1.45-2.3v-.15q.2-1.05.85-1.4v-.05l1.7-.1q.45.05.55.5v.55l-.3.4-.7.05h-.4l-.1.3q-.05.5.35.7l.8-.15.7-.85q.2-1.05-.15-1.8-1.25-.55-2.4.25l-.15.05q-1.05.65-1.7 1.6-.25 1.1.55 2.75v.05q.45.7 1.05 1.05l.1.05.1.05 1.05.2q2.2.1 3.75-1.55v.05q2.05-2.45 1.05-5.05l-.1-.2-.05-.2-.2-.4q-3.9-2.85-8.5 1.55l-.1.1-.05.15q-1.2 1.85-.3 6.4v.05q.2 1.35 0 2l-.2.6-.6 1.3-.9 1.3q-3.55 5-9.35 10.15.25-.35-.8-1.05 5.85-5.75 8.9-10 1.15-1.55 1.4-2.7h.05l-.05-1.35q-1.05-5.7.7-7.85l.05-.05Q19.1 3.3 24 7.3l.35.3.2.35.05.15.1.25q1.7 3.7-1.2 6.95-2.05 2.2-5 2.05l-1.85-.45-.25-.15" fill="#ee5625" fill-rule="evenodd" transform="translate(.5 .5)"/><path d="m30.1 8.25-.8 4.55-10.8 12.05-3.3 1.55L30.1 8.25" fill="#d9d3d0" fill-rule="evenodd" transform="translate(.5 .5)"/><path d="M28.55.75 11.7 6.6 6.05 17.55 0 27.45l2.95 4.7H3l12.2-5.75 3.3-1.55L29.3 12.8l.8-4.55q.45-3.6.5-8.25l-2.05.75z" fill="none" stroke="#675e54" stroke-linecap="round" stroke-linejoin="round" transform="translate(.5 .5)"/></g><g id="p"><path d="m26.8 24.8 1.15-1.65v.05q.7-1.05.9-3.25.9-8.6 4.05-11.15l.05-.05.05-.05h.05q10.5-5.55 15.85 1.65l.15 1.1v.2l.05.2-4.55 2.8q1-2.45.35-4.4l-.25-.5q-2.9-2.8-6.85-1.6h.05q-2.85.7-4.95 2.4l-.05.05-.15.15-.05.1q-1.7 2.35-.85 6.95l.05.1q.55 1.9 1.6 3.15L26.8 24.8m8.5-4.75-.15-.1-.05-.05q-.85-.95-1.3-2.3v-.2q-.65-3.5.5-5.35 1.75-1.4 3.95-2h.15q2.65-.85 4.65 1 .35 1.55-.65 3.55l-1.75 1.2-1.85-.15q-.8-.7-.4-1.85l.05-.05.6-.7 1.05.4h.05l.75.1.6-.4q.25-.45.1-.8l-.4-.6q-1.5-1-2.7-.6l.05-.05q-1.2.2-1.9 1.75l-.1.2q-1 2.7 1.15 4.3l.25.15.05.05 1.25.25-3.95 2.25m15.7-9.4-.25-.85-.1-.35Q44.45.3 32 6.95l-.15.1q-3.9 2.7-5 12.7-.2 1.6-.6 2.4-1.15 1.9-3.9 4Q14.6 32.15 1 39l-1-7.85 15.25-13.7q7.5-7.5 15-15.75L61.75.2v3.2L51 10.65M1 39.05q.5 1.35.35 1.7l-.1.05-.05.05-.2-1.8" fill="#fffdfe" fill-rule="evenodd" transform="translate(.5 .5)"/><path d="m26.8 24.8 6.65-3.75.05.05.1.15.15.1q1.1 1.1 2.7 1.7 4.8 1.6 9.15-.95h.05q6.4-4 5.4-10.95l-.05-.3v-.2L61.75 3.4V.2l3.9-.2-3.55 10.25-7.3 8-27.2 18.6-26.4 4 .05-.05.1-.05q13.2-6 22.2-13l2.1-1.8 1.15-1.15m17.75-10.15 4.55-2.8q.55 5.35-4.5 8.55-3.55 2.05-7.5.75h.05q-1.1-.4-1.85-1.1l3.95-2.25.75.05 1.4-.15.1-.05.15-.05q2.1-1.4 2.45-1.9l.1-.2.05-.15.3-.7" fill="#b3aaa1" fill-rule="evenodd" transform="translate(.5 .5)"/><path d="m49.1 11.85-.05-.2v-.2l-.15-1.1q-5.35-7.2-15.85-1.65H33l-.05.05-.05.05q-3.15 2.55-4.05 11.15-.2 2.2-.9 3.25v-.05L26.8 24.8l-1.15 1.15-2.1 1.8q-9 7-22.2 13 .15-.35-.35-1.7L.95 39H1q13.6-6.85 21.35-12.85 2.75-2.1 3.9-4 .4-.8.6-2.4 1.1-10 5-12.7l.15-.1Q44.45.3 50.65 9.45l.1.35.25.85v.2l.05.3q1 6.95-5.4 10.95h-.05q-4.35 2.55-9.15.95-1.6-.6-2.7-1.7l-.15-.1-.1-.15-.05-.05q-1.05-1.25-1.6-3.15l-.05-.1q-.85-4.6.85-6.95l.05-.1.15-.15.05-.05q2.1-1.7 4.95-2.4h-.05q3.95-1.2 6.85 1.6l.25.5q.65 1.95-.35 4.4l-.3.7-.05.15-.1.2q-.35.5-2.45 1.9l-.15.05-.1.05-1.4.15-.75-.05-1.25-.25-.05-.05-.25-.15q-2.15-1.6-1.15-4.3l.1-.2q.7-1.55 1.9-1.75l-.05.05q1.2-.4 2.7.6l.4.6q.15.35-.1.8l-.6.4-.75-.1h-.05l-1.05-.4-.6.7-.05.05q-.4 1.15.4 1.85l1.85.15 1.75-1.2q1-2 .65-3.55-2-1.85-4.65-1h-.15q-2.2.6-3.95 2-1.15 1.85-.5 5.35v.2q.45 1.35 1.3 2.3l.05.05.15.1q.75.7 1.85 1.1h-.05q3.95 1.3 7.5-.75 5.05-3.2 4.5-8.55M1 39.05V39v.05" fill="#ee5625" fill-rule="evenodd" transform="translate(.5 .5)"/><path d="M62.1 10.25q-2.5 6.4-5.15 10.8l-24.35 15-5 .8 27.2-18.6 7.3-8" fill="#d9d3d0" fill-rule="evenodd" transform="translate(.5 .5)"/><path d="m61.75.2-31.5 1.5q-7.5 8.25-15 15.75L0 31.15 1 39v.05l.2 1.8 26.4-4 5-.8 24.35-15q2.65-4.4 5.15-10.8L65.65 0l-3.9.2z" fill="none" stroke="#675e54" stroke-linecap="round" stroke-linejoin="round" transform="translate(.5 .5)"/></g><g id="q" fill-rule="evenodd"><path d="M67.5 1.75q2.15 2.3 4.2 7.75l.2.75q-1.05 13.45-7.35 15.3-2.1.9-5.1-6.25 6.8-4.2 8.05-17.55m-31.55 25.6q-.6 5.2-3.25 8.75-17.9 8.05-25-6.25-2.45-6.25 2.6-7.35 12.5 6.5 25.65 4.85" fill="#fff"/><path d="M71.9 10.25q1.45 5.6.35 10.75-3.2 12.2-10.2 9.55-4.95-2.75-6.7-14.05l.55-.4Q62.8 9.25 64 0q1.8-.1 3.5 1.75-1.25 13.35-8.05 17.55 3 7.15 5.1 6.25 6.3-1.85 7.35-15.3M32.7 36.1q-2.35 3.1-6.3 4.9-7.35 2.05-13.75.2-17.6-3.4-10.75-30.65 17.7 15.95 34.05 10.6.3 3.35 0 6.2Q22.8 29 10.3 22.5q-5.05 1.1-2.6 7.35 7.1 14.3 25 6.25" fill="#dbd6c2"/></g><g id="s"><path d="M26.3 18.55q2.9 0 4.95 2.45 2.05 2.45 2.05 5.9t-2.05 5.9q-2.05 2.45-4.95 2.45-2.9 0-4.95-2.45-2.05-2.45-2.05-5.9t2.05-5.9q2.05-2.45 4.95-2.45m-.2 3.25q-1.45 0-2.5 1.4-1 1.4-1 3.35 0 1.95 1 3.35 1.05 1.4 2.5 1.4t2.45-1.4q1.05-1.4 1.05-3.35 0-1.95-1.05-3.35-1-1.4-2.45-1.4" fill="#417994" fill-rule="evenodd" transform="translate(-18.8 -4.45)"/><path d="M26.1 21.8q1.45 0 2.45 1.4 1.05 1.4 1.05 3.35 0 1.95-1.05 3.35-1 1.4-2.45 1.4-1.45 0-2.5-1.4-1-1.4-1-3.35 0-1.95 1-3.35 1.05-1.4 2.5-1.4" fill="#423222" fill-rule="evenodd" transform="translate(-18.8 -4.45)"/><path d="M26.3 18.55q2.9 0 4.95 2.45 2.05 2.45 2.05 5.9t-2.05 5.9q-2.05 2.45-4.95 2.45-2.9 0-4.95-2.45-2.05-2.45-2.05-5.9t2.05-5.9q2.05-2.45 4.95-2.45z" fill="none" stroke="#423222" stroke-linecap="round" stroke-linejoin="round" transform="translate(-18.8 -4.45)"/><path d="M67.85 10.9q.85 3.05-.4 5.7-1.25 2.7-3.8 3.35-2.55.7-5-1-2.35-1.65-3.2-4.7-.8-3.05.4-5.75 1.3-2.65 3.85-3.35 2.55-.65 4.95 1 2.4 1.7 3.2 4.75m-3.35.6q-.45-1.75-1.7-2.75t-2.55-.65Q59 8.45 58.4 9.9q-.5 1.5-.05 3.25.45 1.7 1.65 2.7 1.25 1 2.5.65 1.3-.35 1.9-1.8.55-1.5.1-3.2" fill="#417994" fill-rule="evenodd" transform="translate(-18.8 -4.45)"/><path d="M64.5 11.5q.45 1.7-.1 3.2-.6 1.45-1.9 1.8-1.25.35-2.5-.65-1.2-1-1.65-2.7-.45-1.75.05-3.25.6-1.45 1.85-1.8 1.3-.35 2.55.65 1.25 1 1.7 2.75" fill="#423222" fill-rule="evenodd" transform="translate(-18.8 -4.45)"/><path d="M67.85 10.9q.85 3.05-.4 5.7-1.25 2.7-3.8 3.35-2.55.7-5-1-2.35-1.65-3.2-4.7-.8-3.05.4-5.75 1.3-2.65 3.85-3.35 2.55-.65 4.95 1 2.4 1.7 3.2 4.75z" fill="none" stroke="#423222" stroke-linecap="round" stroke-linejoin="round" transform="translate(-18.8 -4.45)"/></g><path d="M174.75 17.7q0-7.35-25.55-12.5Q123.6 0 87.35 0q-36.2 0-61.8 5.2Q0 10.35 0 17.7t25.55 12.5q25.6 5.2 61.8 5.2 36.25 0 61.85-5.2 25.55-5.15 25.55-12.5" fill-opacity=".349" fill-rule="evenodd" id="c"/><path d="M52.7 17.8q2.15.55 3.65-.3l.55-.4Q63.8 10.25 65 1q1.8-.1 3.5 1.75 2.15 2.3 4.2 7.75l.2.75q1.45 5.6.35 10.75-3.2 12.2-10.2 9.55-4.95-2.75-6.7-14.05m-19.4 4.65q.3 3.35 0 6.2-.6 5.2-3.25 8.75-2.35 3.1-6.3 4.9-7.35 2.05-13.75.2-17.6-3.4-10.75-30.65 17.7 15.95 34.05 10.6l2.3-.9" fill="none" stroke="#5b4524" stroke-linecap="round" stroke-linejoin="round" stroke-width="2" id="t"/><path d="M0 61.55V0h61.55v61.55H0" fill-opacity="0" fill-rule="evenodd" id="b"/></defs></svg>