<svg xmlns:ffdec="https://www.free-decompiler.com/flash" xmlns:xlink="http://www.w3.org/1999/xlink" ffdec:objectType="frame" height="90" width="90" xmlns="http://www.w3.org/2000/svg"><use ffdec:characterId="30" height="90.95" transform="translate(0 -.45)" width="90" xlink:href="#a"/><defs><g id="a" transform="translate(0 .45)"><use ffdec:characterId="11" height="90" width="90" xlink:href="#b"/><use ffdec:characterId="29" height="178.9" transform="matrix(.5082 0 0 .5083 10.2 -.458)" width="136.95" xlink:href="#c"/></g><g id="c" transform="translate(0 .9)"><use ffdec:characterId="12" height="59.9" transform="translate(0 138.35) scale(.5941)" width="230.5" xlink:href="#d"/><use ffdec:characterId="13" height="28.05" transform="translate(44.006 125.306) scale(.5941)" width="19.35" xlink:href="#e"/><use ffdec:characterId="14" height="102.6" transform="translate(7.709 36.47) scale(.5941)" width="42.45" xlink:href="#f"/><use ffdec:characterId="15" height="103" transform="translate(23.459 74.109) scale(.5941)" width="178.9" xlink:href="#g"/><use ffdec:characterId="16" height="86.25" transform="translate(100.109 108.209) scale(.5941)" width="39.15" xlink:href="#h"/><use ffdec:characterId="17" height="113.25" transform="translate(73.709 101.259) scale(.5941)" width="65.35" xlink:href="#i"/><use ffdec:characterId="18" height="127" transform="translate(39.959 102.509) scale(.5941)" width="77.15" xlink:href="#j"/><use ffdec:characterId="19" height="111.85" transform="translate(4.759 101.209) scale(.5941)" width="61.85" xlink:href="#k"/><use ffdec:characterId="20" height="25.7" transform="translate(21.609 89.009) scale(.5941)" width="9.85" xlink:href="#l"/><use ffdec:characterId="21" height="34.6" transform="translate(22.609 77.459) scale(.5941)" width="13.35" xlink:href="#m"/><use ffdec:characterId="22" height="36.2" transform="translate(39.409 85.709) scale(.5941)" width="30.6" xlink:href="#n"/><use ffdec:characterId="23" height="33.3" transform="translate(33.359 78.659) scale(.5941)" width="41.95" xlink:href="#o"/><use ffdec:characterId="24" height="89.1" transform="translate(23.096 34.009) scale(.5941)" width="94.05" xlink:href="#p"/><use ffdec:characterId="25" height="54.1" transform="translate(24.617 47.517) scale(.4827)" width="49.85" xlink:href="#q"/><use ffdec:characterId="26" height="365.3" transform="matrix(.0768 .0073 -.0097 .0715 27.958 45.151)" width="245.7" xlink:href="#r"/><use ffdec:characterId="27" height="123.55" transform="translate(61.509 39.659) scale(.5941)" width="56.2" xlink:href="#s"/><use ffdec:characterId="28" height="84.35" transform="translate(23.259 -.891) scale(.5941)" width="75.75" xlink:href="#t"/></g><g id="e"><path d="m5.7 0 11.65 6.65Q5.95 14.8 2 26.05-3.35 15.15 5.7 0" fill="#4a3253" fill-rule="evenodd" transform="translate(1 1)"/><path d="m6.7 1 11.65 6.65Q6.95 15.8 3 27.05-2.35 16.15 6.7 1z" fill="none" stroke="#1e0e25" stroke-linecap="round" stroke-linejoin="round" stroke-width="2"/></g><g id="f"><path d="M15.35 15.95q4.9.25 6.5 12.3 1.2 6.7-2.2 8.15-4.05-.5-5.4-2.9l-.55-1.45q1.9-1.2 2.65-4.7 2.65-1.3.8-3.5-1.65-2.55-1.9-7l.1-.9" fill="#444019" fill-rule="evenodd" transform="translate(1.5 30.6)"/><path d="m13.75 30.15 1.5-13.3q.25 4.45 1.9 7 1.85 2.2-.8 3.5-.75 3.5-2.65 4.7l-.1-.75.15-1.15" fill="#d4b437" fill-rule="evenodd" transform="translate(1.5 30.6)"/><path d="M10.8 39.7q-.55-.85-.85-1.85-1.4-5.95 3.8-7.7l-.15 1.15.1.75.55 1.45q-1.25 2.85 5.4 2.9 3.9 4.2-1.75 5.1-.95.95-3.25.7-2.6-.75-3.85-2.5m-.3-4.65q-.65.5-.65 1.3t.65 1.4q.7.6 1.65.65.95.1 1.6-.4.7-.5.7-1.3t-.7-1.4q-.65-.6-1.6-.7-.95-.05-1.65.45" fill="#ffd325" fill-rule="evenodd" transform="translate(1.5 30.6)"/><path d="M10.5 35.05q.7-.5 1.65-.45.95.1 1.6.7.7.6.7 1.4 0 .8-.7 1.3-.65.5-1.6.4-.95-.05-1.65-.65-.65-.6-.65-1.4 0-.8.65-1.3" fill="#f9ef72" fill-rule="evenodd" transform="translate(1.5 30.6)"/><path d="M10.25 58.9q-3.8 3.75-6.1 6.9 4.45.85 8.35-4.3-1.4 5.05-3.85 7.3Q.85 70 2.4 65.1q5.15-9.05 13.8-18.15.75-2 0-2.9-1.8-.7-3-1.45-1.85-1.2-2.5-2.65l.1-.25q1.25 1.75 3.85 2.5l4.75.5 1.9-.1q-4.65 7.95-11.05 16.3" fill="#253b58" fill-rule="evenodd" transform="translate(1.5 30.6)"/><path d="M8.65 68.8q-1.4 1.3-3.2 1.65l-2.3-.1q-3.3-2.95-2-6.85l4.5-8.6q1.95.35 3-.75 1.25-1.3-1.15-3.05l5.7-8.5q1.2.75 3 1.45.75.9 0 2.9-8.65 9.1-13.8 18.15Q.85 70 8.65 68.8" fill="#87bcff" fill-rule="evenodd" transform="translate(1.5 30.6)"/><path d="M3.15 70.35Q-1.15 69.3.4 61.3l10.3-21.35q.65 1.45 2.5 2.65l-5.7 8.5q2.4 1.75 1.15 3.05-1.05 1.1-3 .75l-4.5 8.6q-1.3 3.9 2 6.85" fill="#ccf8ff" fill-rule="evenodd" transform="translate(1.5 30.6)"/><path d="M24.75 35.3q2.9-6.6.95-11.55-1.75-8.15-1-18.3L31.8 0q-3.15 16.75-4.25 31.1l-.3 1.05q-.8 2.1-2.5 3.15m0 6.5Q20.7 49.4 14.1 55.3l-3.85 3.6q6.4-8.35 11.05-16.3l3.45-.8" fill="#fff90c" fill-rule="evenodd" transform="translate(1.5 30.6)"/><path d="M19.65 36.4q3.15.15 5.1-1.1 1.7-1.05 2.5-3.15 1.7 2.85 1.5 5.7-1 2.75-4 3.95l-3.45.8-1.9.1-4.75-.5q2.3.25 3.25-.7 5.65-.9 1.75-5.1-6.65-.05-5.4-2.9 1.35 2.4 5.4 2.9" fill="#815700" fill-rule="evenodd" transform="translate(1.5 30.6)"/><path d="m15.35 15.95.4-3.65 8.95-6.85q-.75 10.15 1 18.3 1.95 4.95-.95 11.55-1.95 1.25-5.1 1.1 3.4-1.45 2.2-8.15-1.6-12.05-6.5-12.3" fill="#22220c" fill-rule="evenodd" transform="translate(1.5 30.6)"/><path d="M19.65 36.4q3.15.15 5.1-1.1 1.7-1.05 2.5-3.15m-13.55-.1.55 1.45q1.35 2.4 5.4 2.9" fill="none" stroke="#131306" stroke-linecap="round" stroke-linejoin="round" transform="translate(1.5 30.6)"/><path d="m26.2 36.05-8.95 6.85-.4 3.65-.1.9-1.5 13.3-.15 1.15.1.75m11-26.6 7.1-5.45q-3.15 16.75-4.25 31.1l-.3 1.05q1.7 2.85 1.5 5.7-1 2.75-4 3.95Q22.2 80 15.6 85.9l-3.85 3.6q-3.8 3.75-6.1 6.9 4.45.85 8.35-4.3-1.4 5.05-3.85 7.3-1.4 1.3-3.2 1.65l-2.3-.1Q.35 99.9 1.9 91.9l10.3-21.35.1-.25q-.55-.85-.85-1.85-1.4-5.95 3.8-7.7M22.8 73.2l3.45-.8m-3.45.8-1.9.1-4.75-.5q-2.6-.75-3.85-2.5" fill="none" stroke="#131306" stroke-linecap="round" stroke-linejoin="round" stroke-width="3"/><path d="m35.05-28.9 4.25-.15.15 2.6-1.85 8-2.3-.85q1.35-5.6-.25-9.6m-12.8 39.8q-.6.3-1.15.65L19.7 8.1q8.05-5.6 9.25-13l1.4-2.5 2.35 2.7q-4.35 9.2-10.45 15.6m-5 2.3-2.15.6q-.85-1.2-1.25-3h2.35l1.05 2.4" fill="#ffd325" fill-rule="evenodd" transform="translate(1.5 30.6)"/><path d="M31.3-9.6q2.15-1.85 3.8-5l1.15.8-1.75 4.9q-2-.9-3.35-.25l.15-.45" fill="#ffd120" fill-rule="evenodd" transform="translate(1.5 30.6)"/><path d="M39.45-26.45q.25 12.3-4.25 22.05-5.55 10.65-12.95 15.3 6.1-6.4 10.45-15.6l-2.35-2.7.45-1.05.35-.7q1.35-.65 3.35.25l1.75-4.9 1.35-4.65 1.85-8" fill="#815700" fill-rule="evenodd" transform="translate(1.5 30.6)"/><path d="m14.6 6.15 1.55-.45q8-2.85 12.8-10.6-1.2 7.4-9.25 13l1.4 3.45q-1.85 1-3.85 1.65l-1.05-2.4h-2.35q-.45-1.85-.4-4.35l1.15-.3M34.2-27.2l-.55-1.2 1.4-.5q1.6 4 .25 9.6l2.3.85-1.35 4.65-1.15-.8q-1.65 3.15-3.8 5 4.95-11.85 2.9-17.6" fill="#fbffde" fill-rule="evenodd" transform="translate(1.5 30.6)"/><path d="M16.15 5.7Q28.7-6.7 30.7-22.7q-.1-2 1.9-1.5l.6-2.5-.35.15q-.15-1.05.8-1.85l.55 1.2-1 .5 1-.5q2.05 5.75-2.9 17.6l-.15.45-.35.7-.45 1.05-1.4 2.5q-4.8 7.75-12.8 10.6" fill="#22220c" fill-rule="evenodd" transform="translate(1.5 30.6)"/><path d="M14.45 2.6q2.7-3.55 5.05-12 4.2 0 5.1-3.9-2.35-2.9 1.9-9.25 2.85-2.2 6.35-4l.35-.15-.6 2.5q-2-.5-1.9 1.5-2 16-14.55 28.4l-1.55.45-.1-1.4-.05-2.15" fill="#444019" fill-rule="evenodd" transform="translate(1.5 30.6)"/><path d="M26.5-22.55q-4.25 6.35-1.9 9.25-.9 3.9-5.1 3.9-2.35 8.45-5.05 12 0-15.9 12.05-25.15" fill="#d5b537" fill-rule="evenodd" transform="translate(1.5 30.6)"/><path d="m14.5 4.75.1 1.4 1.55-.45q8-2.85 12.8-10.6l1.4-2.5.45-1.05.35-.7.15-.45q4.95-11.85 2.9-17.6M14.6 6.15l-1.15.3" fill="none" stroke="#131306" stroke-linecap="round" stroke-linejoin="round" transform="translate(1.5 30.6)"/><path d="M28 8.05Q15.95 17.3 15.95 33.2l.05 2.15-1.05 1.7q-.05 2.5.4 4.35.4 1.8 1.25 3l2.15-.6q2-.65 3.85-1.65.55-.35 1.15-.65 7.4-4.65 12.95-15.3 4.5-9.75 4.25-22.05l-.15-2.6-4.25.15-1.4.5q-.95.8-.8 1.85-3.5 1.8-6.35 4m6.7-4.15-.35.15m1.35-.65-.55-1.2m-.45 1.7 1-.5" fill="none" stroke="#131306" stroke-linecap="round" stroke-linejoin="round" stroke-width="3"/></g><g id="g"><path d="M164.6 74.25q6.8 16.1 11.3 25.75-22.95-18.05-53.05-11.6l-20.75 5.1q-42.15 12.75-71.4-5.1-6.6-4.9-11.8-10.2 39 21.15 67.55 14.65 10.75-.9 26.15-6.55 35.65-10.55 56.5 6.9l-4.5-18.95" fill="#fffa0e" fill-rule="evenodd" transform="translate(1.5 1.5)"/><path d="M71.7 46.1q2-1.85 5.55-3.35l9.75-2q40.1-4.2 40.25 15.7-21.2-14.7-27.2-4.8-4.9 8.5-10.55 10.25-11.75 3.15-19-5.8-3.25-5.85 1.2-10M10.6 9.5q4.7-1.75 9.1 13.25 4.1 5.65.1 14.3 5.3.55 5.55 6.2l.05 2.1q-.25 7.3-7.65 6.35Q7.8 49.55 3.15 35l6.1 2.75Q-1.95 16.8 10.6 9.5" fill="#d9a7c2" fill-rule="evenodd" transform="translate(1.5 1.5)"/><path d="M77.25 42.75q-3.55 1.5-5.55 3.35-12.7-3.65-27.3 1.7-7.85 3-15.05 3.9 8.3-18.85-6.8-17 4.6-7.55 1.7-16.65Q17.7-3.5 5.6 5.65L11.65 0 35.1 14.95H46Q51.5 42.6 73.55 43.2l3.7-.45m56.65-2.95q18.95 6.45 26.35 24.1l4.35 10.35 4.5 18.95q-20.85-17.45-56.5-6.9-15.4 5.65-26.15 6.55Q57.9 99.35 18.9 78.2 5.3 64.25 1.5 47.6q19.75 25.3 47.55 20.75Q56.45 73.9 79.8 80q11.05 3.85 37.95-2.15 32.4-.75 33.65-9.5.35-10.7-17.5-28.55" fill="#8c3660" fill-rule="evenodd" transform="translate(1.5 1.5)"/><path d="M5.6 5.65q12.1-9.15 18.65 12.4 2.9 9.1-1.7 16.65 15.1-1.85 6.8 17 7.2-.9 15.05-3.9 14.6-5.35 27.3-1.7-4.45 4.15-1.2 10 7.25 8.95 19 5.8 5.65-1.75 10.55-10.25 6-9.9 27.2 4.8-.15-19.9-40.25-15.7l7.3-2.3q9.55-2.8 25.65-1.75 7.6.9 13.95 3.1 17.85 17.85 17.5 28.55-1.25 8.75-33.65 9.5-26.9 6-37.95 2.15-23.35-6.1-30.75-11.65Q21.25 72.9 1.5 47.6-2.9 28.45 5.6 5.65m5 3.85q-12.55 7.3-1.35 28.25L3.15 35q4.65 14.55 14.6 16.7 7.4.95 7.65-6.35l-.05-2.1q-.25-5.65-5.55-6.2 4-8.65-.1-14.3-4.4-15-9.1-13.25" fill="#b15083" fill-rule="evenodd" transform="translate(1.5 1.5)"/><path d="m78.75 44.25-3.7.45Q53 44.1 47.5 16.45H36.6L13.15 1.5 7.1 7.15Q-1.4 29.95 3 49.1q3.8 16.65 17.4 30.6 5.2 5.3 11.8 10.2 29.25 17.85 71.4 5.1l20.75-5.1q30.1-6.45 53.05 11.6-4.5-9.65-11.3-25.75l-4.35-10.35q-7.4-17.65-26.35-24.1-6.35-2.2-13.95-3.1-16.1-1.05-25.65 1.75l-7.3 2.3-9.75 2z" fill="none" stroke="#2b111e" stroke-linecap="round" stroke-linejoin="round" stroke-width="3"/></g><g id="h"><path d="M26.6 54.25q4.65 4.15 5.9 13.8Q34.9 40.1 14.1 13.5q-6.8-2.25-7.15 4.6l3.15 6.2q-2.95-.05-6.85 1.55Q-1.1 19 .35 14.05L6.35 0q20.3 14.3 28.5 47.7 3.7 21.15-3.25 35.55.15-17.65-5-29" fill="#3a1a44" fill-rule="evenodd" transform="translate(1.5 1.5)"/><path d="m10.1 24.3-3.15-6.2q.35-6.85 7.15-4.6 20.8 26.6 18.4 54.55-1.25-9.65-5.9-13.8-3.45-7.75-9.35-12.6 3.4-10.4-2.85-16.1-1.8-1.2-4.3-1.25" fill="#4a3253" fill-rule="evenodd" transform="translate(1.5 1.5)"/><path d="M28.1 55.75q5.15 11.35 5 29 6.95-14.4 3.25-35.55-8.2-33.4-28.5-47.7l-6 14.05Q.4 20.5 4.75 27.35q3.9-1.6 6.85-1.55 2.5.05 4.3 1.25 6.25 5.7 2.85 16.1 5.9 4.85 9.35 12.6z" fill="none" stroke="#1e0e25" stroke-linecap="round" stroke-linejoin="round" stroke-width="3"/></g><g id="i"><path d="m3 38.25-3-8.4Q5.3 8.5 20.95 0 59.8 22.9 62.3 82.95q.6 17.2-4.05 27.3Q60.2 74.75 30.6 52.6q11.3 5.15 21.65 14.85-13.3-49.2-31-54.85Q15.95 10.05 6 26.7l2.75 8.2L3 38.25" fill="#3a1a44" fill-rule="evenodd" transform="translate(1.5 1.5)"/><path d="m30.6 52.6-.05-.05-4.15-2.95q7.95-14.7.3-25.2L8.75 34.9 6 26.7q9.95-16.65 15.25-14.1 17.7 5.65 31 54.85Q41.9 57.75 30.6 52.6" fill="#4a3253" fill-rule="evenodd" transform="translate(1.5 1.5)"/><path d="m4.5 39.75-3-8.4Q6.8 10 22.45 1.5 61.3 24.4 63.8 84.45q.6 17.2-4.05 27.3Q61.7 76.25 32.1 54.1m-.05-.05L27.9 51.1q7.95-14.7.3-25.2L10.25 36.4 4.5 39.75l.15.5" fill="none" stroke="#1e0e25" stroke-linecap="round" stroke-linejoin="round" stroke-width="3"/></g><g id="j"><path d="M52.9 82.45q7.05 8.45 10.9 20.7 9.8-61.65-29.65-96.3-5.25 1-30.4 21.8 8.1-15.7 23.55-27.45 7.3-6.1 27.05 19.05 6.5 7.35 11.15 18.55 18.6 54.75-2.9 85.2 1.95-24.2-9.7-41.55" fill="#3a1a44" fill-rule="evenodd" transform="translate(1.5 1.5)"/><path d="M26.55 22.5Q15.2 24.45 2.9 40.6q-4.45.65-2.1-5.5 1.35-3.3 2.95-6.45 25.15-20.8 30.4-21.8Q73.6 41.5 63.8 103.15q-3.85-12.25-10.9-20.7-6.1-9.1-15.95-16.3l2-1.2q4.15 4.1 8.8 2.5 4.15-2 3.8-9.6 5.2-8.9 2.3-17.9-4.55-11.4-11.7-12.7l-1.45-.2q-9.35-9.1-14.15-4.55" fill="#4a3253" fill-rule="evenodd" transform="translate(1.5 1.5)"/><path d="M26.55 22.5q4.8-4.55 14.15 4.55l1.45.2q7.15 1.3 11.7 12.7 2.9 9-2.3 17.9.35 7.6-3.8 9.6-4.65 1.6-8.8-2.5 8.5-5.6 10.7-12.95.9-3.2.7-6.65-1.15-7.8-5.25-11.4-3.35-3-8.7-3.15-3.1-.1-1.6-3.75-.5-5.5-6.6-4.75l-1.65.2" fill="#9d8ba3" fill-rule="evenodd" transform="translate(1.5 1.5)"/><path d="M5.25 30.15Q3.65 33.3 2.3 36.6q-2.35 6.15 2.1 5.5Q16.7 25.95 28.05 24l1.65-.2q6.1-.75 6.6 4.75-1.5 3.65 1.6 3.75 5.35.15 8.7 3.15 4.1 3.6 5.25 11.4.2 3.45-.7 6.65-2.2 7.35-10.7 12.95l-2 1.2q9.85 7.2 15.95 16.3 11.65 17.35 9.7 41.55Q85.6 95.05 67 40.3q-4.65-11.2-11.15-18.55Q36.1-3.4 28.8 2.7 13.35 14.45 5.25 30.15z" fill="none" stroke="#1e0e25" stroke-linecap="round" stroke-linejoin="round" stroke-width="3"/></g><g id="k"><path d="M27.8 1.3q1.8-1 3.5-1.3 13.05 8.55 25.95 33.4l1.6 6.8q-2.25.25-5.15-.65-3.9-3.8-7.85-8.7Q40.4 25.5 35.2 24.3q-7.85-1.4-6.3 5.45 1.8 2.35-1.5 2.2-8.7.25-10.1 6.8-2.5 13.5 10.95 25.35-21.5 13.65-17.65 44.75-3.65-7.35-6.05-14.75 0-22.5 13.3-32.95Q1.1 27.3 40.25 19.3q-7.15-8.05-12.45-18" fill="#3a1a44" fill-rule="evenodd" transform="translate(1.5 1.5)"/><path d="M27.8 1.3q5.3 9.95 12.45 18-39.15 8-22.4 41.85Q4.55 71.6 4.55 94.1 1.75 85.45.7 76.75L7.4 37.5q5.7-1.15 2.4-6.85l5.65-16.15Q22.1 4.4 27.8 1.3" fill="#4a3253" fill-rule="evenodd" transform="translate(1.5 1.5)"/><path d="M.7 76.75q-3-24.25 7.25-49.2 3.9-7.55 7.5-13.05L9.8 30.65q3.3 5.7-2.4 6.85L.7 76.75" fill="#9d8ba3" fill-rule="evenodd" transform="translate(1.5 1.5)"/><path d="M6.05 95.6q2.4 7.4 6.05 14.75-3.85-31.1 17.65-44.75Q16.3 53.75 18.8 40.25q1.4-6.55 10.1-6.8 3.3.15 1.5-2.2-1.55-6.85 6.3-5.45 5.2 1.2 10.65 6.55 3.95 4.9 7.85 8.7 2.9.9 5.15.65l-1.6-6.8Q45.85 10.05 32.8 1.5q-1.7.3-3.5 1.3Q23.6 5.9 16.95 16q-3.6 5.5-7.5 13.05Q-.8 54 2.2 78.25q1.05 8.7 3.85 17.35z" fill="none" stroke="#1e0e25" stroke-linecap="round" stroke-linejoin="round" stroke-width="3"/></g><g id="l"><path d="m2.9 0 1.85 3.15q-2.8.4-2.85 16-.5-.8-.85-1.85l-.2-.8-.1-.3Q.45 8.5 2.5.75L2.9 0" fill="#87bbfe" fill-rule="evenodd" transform="translate(1.5 1.5)"/><path d="m4.75 3.15.25.4Q2.45 9.45 6.85 22.7q-3.2-.45-4.95-3.55.05-15.6 2.85-16" fill="#253b58" fill-rule="evenodd" transform="translate(1.5 1.5)"/><path d="M.75 16.2Q-1.35 8.2 2.5.75.45 8.5.75 16.2" fill="#ccf8ff" fill-rule="evenodd" transform="translate(1.5 1.5)"/><path d="M6.5 5.05q-2.55 5.9 1.85 19.15-3.2-.45-4.95-3.55-.5-.8-.85-1.85l-.2-.8-.1-.3Q.15 9.7 4 2.25l.4-.75" fill="none" stroke="#0f1b24" stroke-linecap="round" stroke-linejoin="round" stroke-width="3"/></g><g id="m"><path d="M3.35 4.8Q4.85 2.3 7 0q-4.25 15.35 3.35 31.6l-3-3.3q-6.55-9.5-4-23.5" fill="#253b58" fill-rule="evenodd" transform="translate(1.5 1.5)"/><path d="M7.35 28.3 3.8 23.7q-1.9-3.6-2.25-7.2 1.6-.8-.25-1.95V9.1q.8-2.25 2.05-4.3-2.55 14 4 23.5" fill="#87bbfe" fill-rule="evenodd" transform="translate(1.5 1.5)"/><path d="m3.8 23.7-.5-.75-.25-.4L1.2 19.4 0 17.05q0-4.3 1.3-7.95v5.45q1.85 1.15.25 1.95.35 3.6 2.25 7.2" fill="#ccf8ff" fill-rule="evenodd" transform="translate(1.5 1.5)"/><path d="M4.85 6.3q1.5-2.5 3.65-4.8-4.25 15.35 3.35 31.6l-3-3.3-3.55-4.6-.5-.75-.25-.4L2.7 20.9l-1.2-2.35q0-4.3 1.3-7.95.8-2.25 2.05-4.3z" fill="none" stroke="#0f1b24" stroke-linecap="round" stroke-linejoin="round" stroke-width="3"/></g><g id="n"><path d="M20.2 5.65Q23.75 3 26.6 0 31.15 16.6 15 26.65q5.95-5.55 9-12.8 3.1-9.95-3.8-8.2" fill="#fff90c" fill-rule="evenodd" transform="translate(1.5 1.5)"/><path d="M15 26.65q-4.4 2.7-10.2 4.9Q19.15 22.6 20.3 10.7q-3.1 1.8-6.25 3.55L10.5 11.4q4.6-2.25 8.45-4.85l1.25-.9q6.9-1.75 3.8 8.2-3.05 7.25-9 12.8" fill="#253b58" fill-rule="evenodd" transform="translate(1.5 1.5)"/><path d="M4.8 31.55 0 33.2l1.85-1.55q6.4-3.75 9.6-9.85 3.05.45 3.75-1.45-.1-3.1-3-2.05.6-3.25-1.65-4.45l-.05-2.45 3.55 2.85q3.15-1.75 6.25-3.55-1.15 11.9-15.5 20.85" fill="#87bcff" fill-rule="evenodd" transform="translate(1.5 1.5)"/><path d="M1.85 31.65q8.5-7.6 8.7-17.8 2.25 1.2 1.65 4.45 2.9-1.05 3 2.05-.7 1.9-3.75 1.45-3.2 6.1-9.6 9.85" fill="#ccf8ff" fill-rule="evenodd" transform="translate(1.5 1.5)"/><path d="M28.1 1.5q4.55 16.6-11.6 26.65-4.4 2.7-10.2 4.9L1.5 34.7l1.85-1.55q8.5-7.6 8.7-17.8L12 12.9" fill="none" stroke="#0f1b24" stroke-linecap="round" stroke-linejoin="round" stroke-width="3"/></g><g id="o"><path d="m33.1.65 5.85 8.6-2.2 2.6q-2.85 3-6.4 5.65l-1.25.9 5.8-7.4q1-3.4-1.8-10.35" fill="#fff90c" fill-rule="evenodd" transform="translate(1.5 1.5)"/><path d="M29.1 18.4q-3.85 2.6-8.45 4.85Q11.8 27.5 0 30.3q2.95-2.35 5.1-5.75 21-5.7 27.4-15.45-8.95 3.95-12.15 3.05l-1.3-.85q-.95-3.35-.4-8L19.2 0h13.45l.45.65Q35.9 7.6 34.9 11l-5.8 7.4" fill="#253b58" fill-rule="evenodd" transform="translate(1.5 1.5)"/><path d="M6.6 21.7q1.65-3.55 2.6-8.05l.2-.95q2.85-5.05 5-12.7h4.8l-.55 3.3Q17.4 9.4 15 13.65q-3.15 5.6-8.4 8.05" fill="#ccf8ff" fill-rule="evenodd" transform="translate(1.5 1.5)"/><path d="m5.1 24.55 1.5-2.85q5.25-2.45 8.4-8.05Q17.4 9.4 18.65 3.3q-.55 4.65.4 8l1.3.85q3.2.9 12.15-3.05-6.4 9.75-27.4 15.45" fill="#87bbfe" fill-rule="evenodd" transform="translate(1.5 1.5)"/><path d="M9.4 12.7q1-5.7.9-12.7h4.1q-2.15 7.65-5 12.7" fill="#87bcff" fill-rule="evenodd" transform="translate(1.5 1.5)"/><path d="m34.6 2.15 5.85 8.6-2.2 2.6q-2.85 3-6.4 5.65l-1.25.9q-3.85 2.6-8.45 4.85Q13.3 29 1.5 31.8q2.95-2.35 5.1-5.75l1.5-2.85q1.65-3.55 2.6-8.05l.2-.95q1-5.7.9-12.7h22.35l.45.65z" fill="none" stroke="#0f1b24" stroke-linecap="round" stroke-linejoin="round" stroke-width="3"/></g><g id="p"><path d="M15.2 73.4q.25-2.35 1.8-5.15l.4-.25q2.9-2.05 5.4-3.2-1.85 6.75-7.6 8.6m50.7-2.35 1.75 5.35-2.85.7q-1.75-1.1-.1-5.4l1.2-.65m-8.7 4.5 1.75 5.7-9.05 2.7.3-4.3q4.45-1.2 7-4.1M46 80.85l-7.55-6.05q-1.5-2.55-2.05-6.9l1.5 1.05q.7 2.5 4.3 5l3.8 6.9" fill="#ffd325" fill-rule="evenodd" transform="translate(-10.85 1.5)"/><path d="M71.15 75.6q.55 2.85-.75 3.6l-11.5 3.6q-9.25 4.25-12.45 3.05-13.7-14.8-21.6-16.2l2.7-6.45q4.55 1.7 8.85 4.7.55 4.35 2.05 6.9L46 80.85l3.9 3.1 9.05-2.7-1.75-5.7 7.5-3.85q-1.65 4.3.1 5.4l2.85-.7 3.5-.8" fill="#815700" fill-rule="evenodd" transform="translate(-10.85 1.5)"/><path d="M14.15 57.45q-2-9.15-1.75-20.1L22.35 6.5 37.85 0l-5 21.2q28.45-5.9 37 10.85 3.2 9.75-1.55 18.65.65-6.65-.55-10.75-2.6 13.75-8.05 19.2-11.95 13.5-27.7 1.7l-5.9 2.65q-.8.25-1.65.6-6.55.45-10.3-6.65m38-28.6q-2.65-8.7-28.95 4.5-9.15 5.2-8.6 14.9.65 12.75 10.2 7.1 8.85 8.55 20.45-3.45 8.7-10.3 6.9-23.05" fill="#444019" fill-rule="evenodd" transform="translate(-10.85 1.5)"/><path d="M52.15 28.85q1.8 12.75-6.9 23.05-11.6 12-20.45 3.45-9.55 5.65-10.2-7.1-.55-9.7 8.6-14.9 26.3-13.2 28.95-4.5" fill="#daba39" fill-rule="evenodd" transform="translate(-10.85 1.5)"/><path d="M72.55 0H85q12.6 9.8 18.4 23.6-6.55 24.75-34.5 45.6 1.8 3.95 2.25 6.4l-3.5.8-1.75-5.35-1.2.65-7.5 3.85q-4.5 2.1-8.75 3.65l-5.25-5.7Q53.8 80.2 71.5 61l-5.35 3.45q20.55-22.8 31.55-47.6-5.5-9-11.8-11.55-9.8 6.35-13.35-5.3M68.9 69.2l-.65.45-2.35 1.4 2.35-1.4.65-.45" fill="#fff90c" fill-rule="evenodd" transform="translate(-10.85 1.5)"/><path d="M37.85 0h34.7Q76.1 11.65 85.9 5.3q6.3 2.55 11.8 11.55-11 24.8-31.55 47.6L71.5 61Q53.8 80.2 43.2 73.5l-5.3-4.55-1.5-1.05q-4.3-3-8.85-4.7l-1.45.3 5.9-2.65q15.75 11.8 27.7-1.7 5.45-5.45 8.05-19.2 1.2 4.1.55 10.75 4.75-8.9 1.55-18.65-8.55-16.75-37-10.85l5-21.2M17.4 68q-2.05-4.95-3.25-10.55 3.75 7.1 10.3 6.65l-1.65.7q-2.5 1.15-5.4 3.2" fill="#22220c" fill-rule="evenodd" transform="translate(-10.85 1.5)"/><path d="m49.9 83.95-3.9-3.1-3.8-6.9q-3.6-2.5-4.3-5l5.3 4.55 5.25 5.7q4.25-1.55 8.75-3.65-2.55 2.9-7 4.1l-.3 4.3" fill="#fbffe2" fill-rule="evenodd" transform="translate(-10.85 1.5)"/><path d="m24.85 69.65-9.15 7.4q-.7-1.7-.5-3.65 5.75-1.85 7.6-8.6l1.65-.7q.85-.35 1.65-.6l1.45-.3-2.7 6.45" fill="#fbffde" fill-rule="evenodd" transform="translate(-10.85 1.5)"/><path d="M24.45 64.1q.85-.35 1.65-.6l1.45-.3q4.55 1.7 8.85 4.7l1.5 1.05 5.3 4.55 5.25 5.7q4.25-1.55 8.75-3.65l7.5-3.85 1.2-.65 2.35-1.4.65-.45m-46.1-4.4 1.65-.7M17.4 68q2.9-2.05 5.4-3.2" fill="none" stroke="#131306" stroke-linecap="round" stroke-linejoin="round" transform="translate(-10.85 1.5)"/><path d="M3.3 58.95q-2-9.15-1.75-20.1L11.5 8 27 1.5h47.15q12.6 9.8 18.4 23.6Q86 49.85 58.05 70.7q1.8 3.95 2.25 6.4.55 2.85-.75 3.6l-11.5 3.6q-9.25 4.25-12.45 3.05-13.7-14.8-21.6-16.2l-9.15 7.4q-.7-1.7-.5-3.65.25-2.35 1.8-5.15l.4-.25Q4.5 64.55 3.3 58.95z" fill="none" stroke="#131306" stroke-linecap="round" stroke-linejoin="round" stroke-width="3"/></g><g id="q"><path d="M31.9 45.75q5-3.45 7.75-7.1 3.25.5 2.1-3.1 5.95-7.15 3-20.05l-.6-2.25-6.3 2.75-.85-2.15q-1.65-3.35-3.85-5.5l4.7-2.4q-1.8-2.8-5.55-4.9 5.45 1.75 9.55 6.55 6.65 7.65 5.95 18.45-.7 10.8-8.1 18.4l-.3.3q-8.4 6.45-16.65 6.5-11.25.45-19.85-11.2-3.35-6.2-2.85-14 .15-2.4.65-4.65-.05 3.15.25 6.05.3 3.35 1.05 6.25l1.45 4.45.9 1.9 1.95-1.5.55.8.3.4 1.05 1.2q3.6 3.85 8.5 4.6l1.7.2q-.3 4.75 8.05 3.3 3-1.65 5.45-3.3" fill="#815700" fill-rule="evenodd" transform="translate(1 1)"/><path d="M31.9 45.75q-2.45 1.65-5.45 3.3-8.35 1.45-8.05-3.3h.8q5.35 0 9.7-3.25l.6-.4.4-.35 4.85-3.6 2.5.9Q21.9 50.8 31.9 45.75M.95 27.45q-.3-2.9-.25-6.05.55-2.6 1.6-5Q4.85 12 8.65 8.6q.6.5.55 1.95Q2.55 18.5.95 27.45M32.3 1.05q3.75 2.1 5.55 4.9l-4.7 2.4q-5.4-5.35-14-3.8v-2.1Q23.85 1.1 32.2 1l.1.05M37.85 16l6.3-2.75.6 2.25q-.05 11.1-3.7 17.35L37.4 32q4.2-5.55.45-16" fill="#ffd428" fill-rule="evenodd" transform="translate(1 1)"/><path d="M44.75 15.5q2.95 12.9-3 20.05 1.15 3.6-2.1 3.1-2.75 3.65-7.75 7.1-10 5.05 5.35-6.7l-2.5-.9-4.85 3.6 2.05-2q2.8-3 4.35-6.55l1.1-1.2 3.65.85q3.65-6.25 3.7-17.35M3.45 38.15 2 33.7l1.7-1.05q.5 2.15 1.55 4.1l-1.8 1.4" fill="#f9ef72" fill-rule="evenodd" transform="translate(1 1)"/><path d="M2 33.7q-.75-2.9-1.05-6.25 1.6-8.95 8.25-16.9v.25l-.1.1q-3 3.3-4.5 7.3-.7 1.8-1.1 3.75l-.05.25-.4 3.15v3.25l.1 1.3.55 2.75L2 33.7M33.15 8.35q2.2 2.15 3.85 5.5l.85 2.15q3.75 10.45-.45 16l-1.1 1.2.2-.4q1.4-3.45 1.65-7.45.45-6.55-2.35-11.6-.8-1.5-1.9-2.85-3.55-4.5-8.55-5.6l-.9-.15-2.45-.2-4.45.6q-1.95.55-3.8 1.6l-.3-2.2q-2.6 1.65-4.8 3.65-3.8 3.4-6.35 7.8 2-4.85 5.8-8.8Q15.65 0 25.5 0q3.6 0 6.7 1-8.35.1-13.05 1.45v2.1q8.6-1.55 14 3.8" fill="#fafedd" fill-rule="evenodd" transform="translate(1 1)"/><path d="M8.65 8.6q2.2-2 4.8-3.65l.3 2.2-1.35.9-.85.6L9.2 10.8v-.25q.05-1.45-.55-1.95" fill="#f9ef71" fill-rule="evenodd" transform="translate(1 1)"/><path d="M21.35 23.65 20.2 22.5q-.55-2.25 0-4.15l1.2 1.55q0 1.1.9 1.85.95.7 2.3.65 1.35-.1 2.25-.95.95-.85.95-1.95 0-.75-.4-1.3-.75-2.6-6.05-1.65.9-1.2 4.15-2.75l.65-.1h.1q3.7.3 4.5 5.15.7 5.3-7.35 5.9-1.1-.35-2-1.05l-.05-.05m-3.8-18.1q3.75-.3 5.6 1.1 1.6 1.8-3 2.45-3.3 3.65-5.45 1-2.35 1.55-3.2.05v-.05q2.15-1.4 4.8-1.95l-3.9-.1 1.35-.9q1.85-1.05 3.8-1.6m1.2 36.1.95-.85q1.55-.05 1-1.45l.65-1.45q.35 3-.3 4.9l-.9-.35-1.4-.8" fill="#87bcff" fill-rule="evenodd" transform="translate(1 1)"/><path d="m26.25 13.7 3.2.4q.85.3 1.6.9 1.05.8 1.55 1.8.05 4-2.05 6.6-1.85 1.45-4.3 1.65l-2.85-.3q8.05-.6 7.35-5.9-.8-4.85-4.5-5.15m-2.9 17.15 1.8-.5q-.15 4.85 3.2 8.15l-3-.9q-2.2-2.95-2-6.75M8.85 35.4l.35.95q.25 2.3 1.25 4l-.65.2q-1-2.5-.95-5.15m12.5 2.5.4-1.35.95 2.85q.05 2.95-1.6 3.4h-.05q.65-1.9.3-4.9" fill="#253b58" fill-rule="evenodd" transform="translate(1 1)"/><path d="m6.85 39.35-.55-.8-1.05-1.8Q4.2 34.8 3.7 32.65l-.55-2.75q1.9-.65 3.3-.55.3 2.05-.15 3.7l-.35.9-.8 1.3 1.35-.2q2.15-.55 3.65-2.6l.5 2.9q2.15-.65 3.6 2.1 1.75-2.45 4.4-1.1.6-1.7 1.5-2.95 1.9 2.5 4.5 3.85l.7.35 3 .9 1.45.2q-4.05-4-3.6-8.45 4.15-.25 10.3 2.55l-.2.4q-1.55 3.55-4.35 6.55l-2.05 2-.4.35-.6.4q-2.9.85-5.3.75l-.85-.1q.35-1.8-.05-3.75l-.95-2.85-.4 1.35-.65 1.45-1 1.45-.95.85q-2.55-1.9-4.4-2.25l-1.8.05-.3.15-1.05.5q-1.15-1.65-2-3.75l-.35-.95-.2-.65q-1 2.9 0 5.75l-1.8-1.15" fill="#2f2118" fill-rule="evenodd" transform="translate(1 1)"/><path d="M16.7 45.55q-4.9-.75-8.5-4.6l5.3-.2h.5q1.65 0 6.15 1.7l.9.35h.05l1.65.35.85.1q-3.65 1.9-6.9 2.3M29.45 14.1q-.55-4.3-2.7-6.8-1.15 5.45-5.9 4.4-5.35 4.05-7.2 0l.2-.15q1.85 2.5 4.5.95l2.05-1.7 4.4-.3q-.15-2.65.55-5.2 5 1.1 8.55 5.6 1.1 1.35 1.9 2.85 0 16.65-3.15 16-11.3-2-14.4 5-2.55-.4-3.6 1.3-1.9-1.95-3.5-1.7-.85-6.65-8.1-5.75v-3.25l.4-3.15q-.15 5.25 1.4 5.65 5.2.05 6.6 4.7 1.75-.1 2.7 1.5 1.65-.9 3.6-.6 1.45-2.85 5.3-4 1.45-.25 1.2-3 .05-.6-1-.95-1.25-.55-1.85-1.75v-.05q.9.7 2 1.05l2.85.3q2.45-.2 4.3-1.65l.5-.4q2.05-1.8 2.05-4.1 0-1.15-.5-2.1-.5-1-1.55-1.8-.75-.6-1.6-.9" fill="#22220c" fill-rule="evenodd" transform="translate(1 1)"/><path d="m18.4 45.75-1.7-.2q3.25-.4 6.9-2.3 2.4.1 5.3-.75-4.35 3.25-9.7 3.25h-.8M32.6 16.8q.5.95.5 2.1 0 2.3-2.05 4.1l-.5.4q2.1-2.6 2.05-6.6M20.85 27.25l-.05.85q-.7 2.25-2.75 1.6l.35-.3q1.65-.35 2.45-2.15m-2.4.1q-1.35-.55-3.7 2.4-.4.15-.8-.3l-.45-.85q1 .75 2.55-1.15l2.4-.1m1.7 6.05q-.9 1.25-1.5 2.95-2.65-1.35-4.4 1.1-1.45-2.75-3.6-2.1l-.5-2.9q-.5-1.35-1.35-2.1l-.65-.5-1.15-.4-.55-.1q-1.4-.1-3.3.55l-.1-1.3q7.25-.9 8.1 5.75 1.6-.25 3.5 1.7 1.05-1.7 3.6-1.3 3.1-7 14.4-5 3.15.65 3.15-16 2.8 5.05 2.35 11.6-.25 4-1.65 7.45-6.15-2.8-10.3-2.55l-1.05.1 1.05-.1q-.45 4.45 3.6 8.45l-1.45-.2q-3.35-3.3-3.2-8.15l-1.8.5q-1.55.6-2.7 1.9l-.5.65M9.2 36.35q.85 2.1 2 3.75l-.75.25q-1-1.7-1.25-4m3.05 3.25.3-.15 1.8-.05q.1.9-.35 1.3-.7-.8-1.75-1.1m10.45-.2q.4 1.95.05 3.75l-1.65-.35q1.65-.45 1.6-3.4" fill="#fff90c" fill-rule="evenodd" transform="translate(1 1)"/><path d="m8.2 40.95-1.05-1.2-.3-.4 1.8 1.15 1.15.05.65-.2.75-.25 1.05-.5q1.05.3 1.75 1.1.45-.4.35-1.3 1.85.35 4.4 2.25l1.4.8q-4.5-1.7-6.15-1.7h-.5l-5.3.2" fill="#423f19" fill-rule="evenodd" transform="translate(1 1)"/><path d="M20.65 32.75q1.15-1.3 2.7-1.9-.2 3.8 2 6.75l-.7-.35q-1.8-1.35-1.95-2.35-.45-2.6-2.05-2.15" fill="#89beff" fill-rule="evenodd" transform="translate(1 1)"/><path d="M5.1 23.8q-.65-1.3-.35-3.1.15-.85.45-1.55.4-1 1.1-1.8 1.15-1.3 2.5-1.35-1.9 1.15-2.6 2.45l1.45.65q-.45.65-.45 1.55t.45 1.5q.5.65 1.2.65l1.15-.65.05.05q-.7 1.25-2.3.95Q6 22.7 6.5 20.4H5.3q-.35 2.85.8 3.9l-1-.5m15.1-1.3q-.8-1.15-.8-2.6 0-2.35 2-4.2 1.75-1.55 4.1-1.9-3.25 1.55-4.15 2.75 5.3-.95 6.05 1.65l-.55-.55q-.9-.75-2.25-.65-1.35.05-2.3.95-.9.85-.9 1.95l-1.2-1.55q-.55 1.9 0 4.15M9.6 26.85v-.25q.9-2.45 2.65-2.8-.85 1.95.95 1.9 1.15-.1.5-2.3-.65-1.9-.35-4 .95 1.15 1.95 1.3-2.4 2.55-.1 1.4-.6 1.1-.75 3.2 0 .8-1.65.45-1.4.3-1.35-1-1.15.7-1.85 2.1m10.55 6.55.5-.65q1.6-.45 2.05 2.15.15 1 1.95 2.35-2.6-1.35-4.5-3.85m-.45 7.4 1-1.45q.55 1.4-1 1.45" fill="#ccf8ff" fill-rule="evenodd" transform="translate(1 1)"/><path d="M13.65 11.7q1.85 4.05 7.2 0 4.75 1.05 5.9-4.4 2.15 2.5 2.7 6.8l-3.2-.4h-.1l-.65.1q-2.35.35-4.1 1.9-2 1.85-2 4.2 0 1.45.8 2.6l1.15 1.15.05.1q.6 1.2 1.85 1.75 1.05.35 1 .95.25 2.75-1.2 3-3.85 1.15-5.3 4-1.95-.3-3.6.6-.95-1.6-2.7-1.5-1.4-4.65-6.6-4.7-1.55-.4-1.4-5.65l.05-.25Q3.9 20 4.6 18.2q-.15 1.15.6.95-.3.7-.45 1.55-.3 1.8.35 3.1l.1.2q.75 1.4 2.15 1.4T10 24q1.2-1.35 1.55-3.3l.1-1.2q-.05-1.1-.45-1.95 2.7-1.7 1.4-5.3l1.05-.55m1.65 9q-1-.15-1.95-1.3-.3 2.1.35 4 .65 2.2-.5 2.3-1.8.05-.95-1.9-1.75.35-2.65 2.8v.25q-.25 1.7.65 2.25l1.1.25q0-2.65.9-2.15.65.35 1.25 1.4l.45.85q.4.45.8.3 2.35-2.95 3.7-2.4.8 1.15-.05 2.05l-.35.3q2.05.65 2.75-1.6l.05-.85q-.15-.95-1.1-2.25l-1.55-1.85q.2 2.6-1.2 2.45-1.6.15-.95-1.3 2.25-2.15 1.8-5.1l-1.2 1.15q-.7.45-1.35.35" fill="#444019" fill-rule="evenodd" transform="translate(1 1)"/><path d="M11.2 17.55q.4.85.45 1.95-2.25 6-5.55 4.8-1.15-1.05-.8-3.9h1.2q-.5 2.3 1.25 2.75 1.6.3 2.3-.95l.05-.15q.4-.55.4-1.4 0-.9-.5-1.55-.45-.6-1.15-.6t-1.2.6l-1.45-.65q.7-1.3 2.6-2.45h.1q1.4 0 2.2 1.35l.1.2m4.1 3.15q.65.1 1.35-.35.75.7-.8 2.4-2 3.65 1.15 2.85 1.4.15 1.2-2.45L19.75 25q.5 2.45-.4 3.45-1.2-4.2-4.4-.6-.6 1.2-1.2 0-.7-1.5-1.5-1.4-1.95-.55-2 2.65-.9-.55-.65-2.25.7-1.4 1.85-2.1-.05 1.3 1.35 1 1.65.35 1.65-.45.15-2.1.75-3.2-2.3 1.15.1-1.4" fill="#88beff" fill-rule="evenodd" transform="translate(1 1)"/><path d="m11.65 19.5-.1 1.2Q11.2 22.65 10 24q-1.25 1.4-2.65 1.4T5.2 24l-.1-.2 1 .5q3.3 1.2 5.55-4.8m5 .85 1.2-1.15q.45 2.95-1.8 5.1-.65 1.45.95 1.3-3.15.8-1.15-2.85 1.55-1.7.8-2.4m3.1 4.65q.95 1.3 1.1 2.25-.8 1.8-2.45 2.15.85-.9.05-2.05l-2.4.1q-1.55 1.9-2.55 1.15-.6-1.05-1.25-1.4-.9-.5-.9 2.15l-1.1-.25q.05-3.2 2-2.65.8-.1 1.5 1.4.6 1.2 1.2 0 3.2-3.6 4.4.6.9-1 .4-3.45" fill="#213856" fill-rule="evenodd" transform="translate(1 1)"/><path d="M21.4 19.9q0-1.1.9-1.95.95-.9 2.3-.95 1.35-.1 2.25.65l.55.55q.4.55.4 1.3 0 1.1-.95 1.95-.9.85-2.25.95-1.35.05-2.3-.65-.9-.75-.9-1.85m-13.75-.8q.5-.6 1.2-.6t1.15.6q.5.65.5 1.55 0 .85-.4 1.4l-.1.1-1.15.65q-.7 0-1.2-.65-.45-.6-.45-1.5t.45-1.55" fill="#26250e" fill-rule="evenodd" transform="translate(1 1)"/><path d="M12.6 12.25q1.3 3.6-1.4 5.3l-.1-.2Q10.3 16 8.9 16h-.1q-1.35.05-2.5 1.35-.7.8-1.1 1.8-.75.2-.6-.95 1.5-4 4.5-7.3l.1-.1 2.35-2.15-.05 1.45v.05q-.25 1.6-1 2.3l2.1-.2" fill="#d5b537" fill-rule="evenodd" transform="translate(1 1)"/><path d="M25.35 5.3q-.7 2.55-.55 5.2l-4.4.3-2.05 1.7 1.85-2.65 3.8-.2q-.2-2.2.45-4.5l.9.15" fill="#f1f413" fill-rule="evenodd" transform="translate(1 1)"/><path d="m13.65 11.7-1.05.55-2.1.2q.75-.7 1-2.3.85 1.5 3.2-.05 2.15 2.65 5.45-1 4.6-.65 3-2.45-1.85-1.4-5.6-1.1l4.45-.6 2.45.2q-.65 2.3-.45 4.5l-3.8.2-1.85 2.65q-2.65 1.55-4.5-.95l-.2.15" fill="#253c59" fill-rule="evenodd" transform="translate(1 1)"/><path d="m11.5 10.1.05-1.45.85-.6 3.9.1q-2.65.55-4.8 1.95" fill="#cdf9ff" fill-rule="evenodd" transform="translate(1 1)"/><path d="M8.8 30.35q.85.75 1.35 2.1-1.5 2.05-3.65 2.6 2.75-1.65 2.3-4.7" fill="#ffff09" fill-rule="evenodd" transform="translate(1 1)"/><path d="m8.15 29.85.65.5q.45 3.05-2.3 4.7l-1.35.2.8-1.3q2.7-.1 2.2-4.1" fill="#28374e" fill-rule="evenodd" transform="translate(1 1)"/><path d="m6.45 29.35.55.1q.7 2.75-.7 3.6.45-1.65.15-3.7" fill="#d4ffff" fill-rule="evenodd" transform="translate(1 1)"/><path d="m7 29.45 1.15.4q.5 4-2.2 4.1l.35-.9q1.4-.85.7-3.6" fill="#84baff" fill-rule="evenodd" transform="translate(1 1)"/><path d="M8.65 40.5q-1-2.85 0-5.75l.2.65q-.05 2.65.95 5.15l-1.15-.05" fill="#aeddfe" fill-rule="evenodd" transform="translate(1 1)"/><path d="m6.3 38.55-1.95 1.5-.9-1.9 1.8-1.4 1.05 1.8" fill="#ffd325" fill-rule="evenodd" transform="translate(1 1)"/><path d="M2.9 40.05q8.6 11.65 19.85 11.2 8.25-.05 16.65-6.5Q32 52.1 22.35 52.1q-9.9 0-16.4-7.65-1.8-2.1-3.05-4.4" fill="#ffff0b" fill-rule="evenodd" transform="translate(1 1)"/><path d="m18.4 45.75-1.7-.2q-4.9-.75-8.5-4.6l-1.05-1.2-.3-.4-.55-.8-1.05-1.8Q4.2 34.8 3.7 32.65l-.55-2.75q1.9-.65 3.3-.55l.55.1 1.15.4.65.5q.85.75 1.35 2.1-1.5 2.05-3.65 2.6l-1.35.2.8-1.3.35-.9q.45-1.65.15-3.7M36.3 33.2q-1.55 3.55-4.35 6.55l-2.05 2M13.65 11.7l-1.05.55-2.1.2q.75-.7 1-2.3v-.05l.05-1.45L9.2 10.8l-.1.1q-3 3.3-4.5 7.3-.7 1.8-1.1 3.75m20.95-16.8L22 4.95l-4.45.6q-1.95.55-3.8 1.6l-1.35.9-.85.6m6.8 3.85 2.05-1.7 4.4-.3q-.15-2.65.55-5.2l-.9-.15m-6.1 7.35q-2.65 1.55-4.5-.95l-.2.15m22.15 2.05q-.8-1.5-1.9-2.85-3.55-4.5-8.55-5.6m-15.2 27.15.5 2.9q2.15-.65 3.6 2.1 1.75-2.45 4.4-1.1.6-1.7 1.5-2.95l.5-.65q1.15-1.3 2.7-1.9l1.8-.5 1.05-.1q4.15-.25 10.3 2.55 1.4-3.45 1.65-7.45.45-6.55-2.35-11.6M3.05 28.6l.1 1.3m.3-7.7-.4 3.15v3.25m8.15 11.5 1.05-.5.3-.15 1.8-.05q1.85.35 4.4 2.25l1.4.8.9.35h.05l1.65.35.85.1q2.4.1 5.3-.75l.6-.4M6.85 39.35l1.8 1.15 1.15.05.65-.2.75-.25m17.7 2.4q-4.35 3.25-9.7 3.25h-.8M36.3 33.2l.2-.4m-11.85 4.45.7.35" fill="none" stroke="#3c2300" stroke-linecap="round" stroke-linejoin="round" transform="translate(1 1)"/><path d="M1.7 22.4q-.5 2.25-.65 4.65-.5 7.8 2.85 14 1.25 2.3 3.05 4.4 6.5 7.65 16.4 7.65 9.65 0 17.05-7.35l.3-.3q7.4-7.6 8.1-18.4.7-10.8-5.95-18.45-4.1-4.8-9.55-6.55L33.2 2q-3.1-1-6.7-1-9.85 0-17.4 7.6-3.8 3.95-5.8 8.8-1.05 2.4-1.6 5" fill="none" stroke="#3c2300" stroke-linecap="round" stroke-linejoin="round" stroke-width="2"/><path d="M11.2 17.55q.4.85.45 1.95l-.1 1.2Q11.2 22.65 10 24q-1.25 1.4-2.65 1.4T5.2 24l-.1-.2q-.65-1.3-.35-3.1.15-.85.45-1.55.4-1 1.1-1.8 1.15-1.3 2.5-1.35h.1q1.4 0 2.2 1.35l.1.2m10.15 6.1L20.2 22.5q-.8-1.15-.8-2.6 0-2.35 2-4.2 1.75-1.55 4.1-1.9l.65-.1h.05m.05 0 3.2.4q.85.3 1.6.9 1.05.8 1.55 1.8.5.95.5 2.1 0 2.3-2.05 4.1l-.5.4q-1.85 1.45-4.3 1.65l-2.85-.3q-1.1-.35-2-1.05l-.05-.05m.05-3.75q0-1.1.9-1.95.95-.9 2.3-.95 1.35-.1 2.25.65l.55.55q.4.55.4 1.3 0 1.1-.95 1.95-.9.85-2.25.95-1.35.05-2.3-.65-.9-.75-.9-1.85m-13.75-.8q.5-.6 1.2-.6t1.15.6q.5.65.5 1.55 0 .85-.4 1.4l-.1.1-1.15.65q-.7 0-1.2-.65-.45-.6-.45-1.5t.45-1.55m1.95 7.75v-.25q.9-2.45 2.65-2.8-.85 1.95.95 1.9 1.15-.1.5-2.3-.65-1.9-.35-4 .95 1.15 1.95 1.3.65.1 1.35-.35l1.2-1.15q.45 2.95-1.8 5.1-.65 1.45.95 1.3 1.4.15 1.2-2.45L19.75 25q.95 1.3 1.1 2.25l-.05.85q-.7 2.25-2.75 1.6l.35-.3q.85-.9.05-2.05-1.35-.55-3.7 2.4-.4.15-.8-.3l-.45-.85q-.6-1.05-1.25-1.4-.9-.5-.9 2.15l-1.1-.25q-.9-.55-.65-2.25M8.65 40.5q-1-2.85 0-5.75l.2.65.35.95q.85 2.1 2 3.75m7.55 1.55.95-.85 1-1.45.65-1.45.4-1.35.95 2.85q.4 1.95.05 3.75m5.6-4.65 1.45.2q-4.05-4-3.6-8.45m-.85 7.35 3 .9m-8.2-5.1q1.9 2.5 4.5 3.85" fill="none" stroke="#142230" stroke-linecap="round" stroke-linejoin="round" transform="translate(1 1)"/></g><g id="r"><path d="M285.7 32.4q1.35 19.65-3.8 38.3-3.8 13.7-11.2 26.85l-3.85 6.55q20.25 34.85 20.25 80.2 0 57.3-32.35 97.75-16.7 21.05-37.15 31.2-.5 20.85-13.95 25.9-15.25 4.35-26.7-15.3-11.7 19.9-25.45 15.75-13.6-6.2-15.35-20-.2-3.3 0-6.25-20.55-10.15-37.4-31.3Q66.4 241.6 66.4 184.3q0-44.75 19.75-79.25l-4.45-7.5Q74.3 84.4 70.5 70.7q-5.2-18.65-3.8-38.3l.15-2.1Q68.2 15.4 73.25 0q.15 5.65.7 11.05.45 5.1 1.2 10.05 3.8 23.5 14.5 42.3l2.9 4.75q3.5 5.4 7.6 10.45l2.65 3.1q31.1-35.7 74-35.7 42.5 0 73.4 35.05l2.05-2.45q4.1-5.05 7.6-10.45l2.85-4.75q10.75-18.8 14.5-42.3l1.3-10.05.6-11.05q5.15 15.4 6.4 30.3l.2 2.1" fill="#0c2c77" fill-rule="evenodd" transform="translate(-53.9 12.5)"/><path d="M231.8 44.9q1.35 19.65-3.8 38.3-3.8 13.7-11.2 26.85l-3.85 6.55q20.25 34.85 20.25 80.2 0 57.3-32.35 97.75-16.7 21.05-37.15 31.2-.5 20.85-13.95 25.9-15.25 4.35-26.7-15.3-11.7 19.9-25.45 15.75-13.6-6.2-15.35-20-.2-3.3 0-6.25-20.55-10.15-37.4-31.3Q12.5 254.1 12.5 196.8q0-44.75 19.75-79.25l-4.45-7.5Q20.4 96.9 16.6 83.2q-5.2-18.65-3.8-38.3l.15-2.1q1.35-14.9 6.4-30.3.15 5.65.7 11.05.45 5.1 1.2 10.05 3.8 23.5 14.5 42.3l2.9 4.75q3.5 5.4 7.6 10.45l2.65 3.1q31.1-35.7 74-35.7 42.5 0 73.4 35.05l2.05-2.45q4.1-5.05 7.6-10.45l2.85-4.75q10.75-18.8 14.5-42.3l1.3-10.05.6-11.05q5.15 15.4 6.4 30.3l.2 2.1z" fill="none" stroke="#0c2c77" stroke-linecap="round" stroke-linejoin="round" stroke-width="25"/><path d="M163.5 49.8q-15.05 1.8-26.95 13.95 11.75-3.6 22.85.7-7 .7-13.65 2.6l-.2.05v.05l-.45-.05q-6.2.45-14.05 1.95l7.3.6q-17.05 6.8-31.25 21.9-18.4 13.45-29.2 35-14.5 31.25-11.95 82.05l-.05-1v-.95q-.55-42.1 16.95-77.7Q72.4 153.9 72.4 184.3q0 20.4 4.7 38.4 2.85 16.5 8.15 27.9l-2.05-10.05q6.6 15.5 17.3 28.9 28.05 35.2 67.75 35.2t67.8-35.2q11.55-14.5 18.35-31.4-1.05 6.2-2.5 12.55 6.4-13.8 9.2-34.95 3-14.9 3-31.35 0-35.2-13.95-63.1l.55.85q21.1 38.4 20.55 84.6l.1-.05q2.1-49.4-12.1-80.05-11.35-22.7-31.1-36.35-13.65-14-29.75-20.5l7.7-.65q-7.85-1.5-14.05-1.95l-.05.3-.8-.25-.5.05V67q-6.55-1.85-13.45-2.55 9.65-3.5 23.3-.45-11.3-11.3-25.7-13.9l-4.6-.6-6.75.3m82.8 36.7q32.3 40.55 32.3 97.8 0 57.3-32.3 97.75-20.4 25.6-46.15 35.05-15.05 5.5-31.9 5.5-16.8 0-31.85-5.5-25.75-9.45-46.2-35.05-32.25-40.45-32.25-97.75 0-57.25 32.25-97.8Q122.55 46 168.25 46 214 46 246.3 86.5" fill="#b96a49" fill-rule="evenodd" transform="translate(-53.9 12.5)"/><path d="M145.55 67.15q15.35 1 14.55 5.85-.05 3.75-7.15 5.75-33.8 13.1-54.55 39.55-18.2 24.1-21.1 64.55-1.25 28.7 4.05 53.05 1.6 7.55 3.9 14.7-5.3-11.4-8.15-27.9-1.4-8.5-2.2-18.35-3.95-48.4 13.55-78.05 18.95-33 50.95-48 7.15-2.95 6.55-5 .2-2.65-7.6-3.65l-7.3-.6q7.85-1.5 14.05-1.95l.45.05m45.15.05.5-.05.8.25.05-.3q6.2.45 14.05 1.95l-7.7.65q-7.4 1.05-7.25 3.6-.55 2.05 6.6 5 31.95 15 50.95 48 17.5 29.65 13.55 78.05l-1.15 11.3q-2.8 21.15-9.2 34.95 2.8-8.95 4.7-18.5 4.4-22.8 3.25-49.25-2.9-40.45-21.1-64.55Q218 91.85 184.2 78.75q-7.15-2-7.15-5.75-.75-4.7 13.65-5.8m37.45 23q19.75 13.65 31.1 36.35 14.2 30.65 12.1 80.05l-.1.05q1.65-50.1-17.35-83.6-6.95-12.6-16.85-22.6-13.1-13.2-31.35-21.9Q218 83.2 228.15 90.2m-96.7-11.65q-20.35 9.7-34.25 25.05-8.05 8.8-13.95 19.45-19 33.5-17.35 83.6v.95l.05 1q-2.55-50.8 11.95-82.05 10.8-21.55 29.2-35 10.9-7.9 24.35-13" fill="#4ec046" fill-rule="evenodd" transform="translate(-53.9 12.5)"/><path d="M159.4 64.45q4.7 1.8 9.25 5.05 3.85-3.35 8.6-5.05 6.9.7 13.45 2.55-18-1.05-21.25 7-1.15 5.1 10.75 8.25 12.65 3.55 20.9 8.05 39.55 24.35 51 64.5 9.8 39.2 2.3 83.25-6.8 16.9-18.35 31.4-28.1 35.2-67.8 35.2-39.7 0-67.75-35.2-10.7-13.4-17.3-28.9-8.25-45.4 1.85-85.75Q96.5 114.65 136 90.3q8.3-4.5 20.9-8.05 11.95-3.15 10.75-8.25-3.3-8.2-21.9-6.95 6.65-1.9 13.65-2.6m-21.05 5.2q7.8 1 7.6 3.65.6 2.05-6.55 5-32 15-50.95 48-17.5 29.65-13.55 78.05.8 9.85 2.2 18.35-4.7-18-4.7-38.4 0-30.4 10.45-55.35l3.6-6.9q18.25-27.85 45-43.5-13.45 5.1-24.35 13 14.2-15.1 31.25-21.9m60.05.05q16.1 6.5 29.75 20.5-10.15-7-22.45-11.65 26.35 15.4 44.45 42.65 13.95 27.9 13.95 63.1 0 16.45-3 31.35l1.15-11.3q3.95-48.4-13.55-78.05-19-33-50.95-48-7.15-2.95-6.6-5-.15-2.55 7.25-3.6" fill="#924926" fill-rule="evenodd" transform="translate(-53.9 12.5)"/><path d="M85.25 250.6q-2.3-7.15-3.9-14.7-5.3-24.35-4.05-53.05 2.9-40.45 21.1-64.55 20.75-26.45 54.55-39.55 7.1-2 7.15-5.75.8-4.85-14.55-5.85v-.05l.2-.05q18.6-1.25 21.9 6.95 1.2 5.1-10.75 8.25-12.6 3.55-20.9 8.05-39.5 24.35-50.95 64.5-10.1 40.35-1.85 85.75l2.05 10.05m186-43.95q.55-46.2-20.55-84.6l-.55-.85q-18.1-27.25-44.45-42.65 18.25 8.7 31.35 21.9 9.9 10 16.85 22.6 19 33.5 17.35 83.6M251.9 250.6q1.45-6.35 2.5-12.55 7.5-44.05-2.3-83.25-11.45-40.15-51-64.5-8.25-4.5-20.9-8.05-11.9-3.15-10.75-8.25 3.25-8.05 21.25-7v.2q-14.4 1.1-13.65 5.8 0 3.75 7.15 5.75 33.8 13.1 54.55 39.55 18.2 24.1 21.1 64.55 1.15 26.45-3.25 49.25-1.9 9.55-4.7 18.5m-186-43.95q-1.65-50.1 17.35-83.6 5.9-10.65 13.95-19.45 13.9-15.35 34.25-25.05-26.75 15.65-45 43.5l-3.6 6.9q-17.5 35.6-16.95 77.7" fill="#10783d" fill-rule="evenodd" transform="translate(-53.9 12.5)"/><path d="M168.65 67q-2.15-1.7-4.4-2.95-8.7-4.95-18.7-4.05 22.45-7.3 45.4 0-10.45-.5-18.2 4.1-2.15 1.25-4.1 2.9" fill="#751300" fill-rule="evenodd" transform="translate(-53.9 12.5)"/><path d="M163.5 49.8q-2 .95-2 2.3 0 1.4 2.15 2.4t5.2 1q3.1 0 5.25-1t2.15-2.4q0-1.15-1.4-2 14.4 2.6 25.7 13.9-13.65-3.05-23.3.45-4.75 1.7-8.6 5.05-4.55-3.25-9.25-5.05-11.1-4.3-22.85-.7 11.9-12.15 26.95-13.95m5.15 17.2q1.95-1.65 4.1-2.9 7.75-4.6 18.2-4.1-22.95-7.3-45.4 0 10-.9 18.7 4.05 2.25 1.25 4.4 2.95" fill="#dc3f30" fill-rule="evenodd" transform="translate(-53.9 12.5)"/><path d="M174.85 50.1q1.4.85 1.4 2 0 1.4-2.15 2.4t-5.25 1q-3.05 0-5.2-1-2.15-1-2.15-2.4 0-1.35 2-2.3l6.75-.3 4.6.6" fill="#f89d11" fill-rule="evenodd" transform="translate(-53.9 12.5)"/><path d="M109.6 62.3q-15.05 1.8-26.95 13.95 11.75-3.6 22.85.7 4.7 1.8 9.25 5.05 3.85-3.35 8.6-5.05 9.65-3.5 23.3-.45-11.3-11.3-25.7-13.9l-4.6-.6-6.75.3M31.35 263.1l-2.05-10.05q-8.25-45.4 1.85-85.75 11.45-40.15 50.95-64.5 8.3-4.5 20.9-8.05 11.95-3.15 10.75-8.25-3.3-8.2-21.9-6.95l-.2.05v.05l-.45-.05q-6.2.45-14.05 1.95l7.3.6q7.8 1 7.6 3.65.6 2.05-6.55 5-32 15-50.95 48-17.5 29.65-13.55 78.05.8 9.85 2.2 18.35 2.85 16.5 8.15 27.9M136.8 79.7l.5-.05.8.25.05-.3q6.2.45 14.05 1.95l-7.7.65q-7.4 1.05-7.25 3.6-.55 2.05 6.6 5 31.95 15 50.95 48 17.5 29.65 13.55 78.05l-1.15 11.3q-2.8 21.15-9.2 34.95 1.45-6.35 2.5-12.55 7.5-44.05-2.3-83.25-11.45-40.15-51-64.5-8.25-4.5-20.9-8.05-11.9-3.15-10.75-8.25 3.25-8.05 21.25-7v.2m37.45 23q19.75 13.65 31.1 36.35 14.2 30.65 12.1 80.05l-.1.05q.55-46.2-20.55-84.6l-.55-.85q-18.1-27.25-44.45-42.65 12.3 4.65 22.45 11.65m-96.7-11.65q-13.45 5.1-24.35 13-18.4 13.45-29.2 35Q9.5 170.3 12.05 221.1l-.05-1v-.95q-.55-42.1 16.95-77.7l3.6-6.9q18.25-27.85 45-43.5" fill="none" stroke="#930" stroke-linecap="round" stroke-linejoin="round" stroke-opacity="0" stroke-width="2"/><path d="M192.4 99q32.3 40.55 32.3 97.8 0 57.3-32.3 97.75-20.4 25.6-46.15 35.05-15.05 5.5-31.9 5.5-16.8 0-31.85-5.5-25.75-9.45-46.2-35.05Q4.05 254.1 4.05 196.8q0-57.25 32.25-97.8 32.35-40.5 78.05-40.5 45.75 0 78.05 40.5z" fill="none" stroke="#930" stroke-linecap="round" stroke-linejoin="round" stroke-opacity="0" stroke-width="3"/><path d="M74.3 193.6q-.35-9.35 0-19.25 2.45 55.15 23.9 83.9 5.65 6.95 4 15.7-1.85 5.8-5.7 4.75-3.9-1.55-4.8-7.35-.85-6.85.55-9.85l-.7.75Q81.35 244.9 76 215.2l-1.05-10.15q3.7 25.95 11.3 42.75 3.1 8.55 5.1 5.85 1.25-1.95-4.1-9.7-7.55-12.9-12.95-50.35m25.4 76q-1.05-8.9-5.35-9.05-1.25.15-2.1.95.85-.8 2.1-.95 4.3.15 5.35 9.05m-7.1-3.95q-.65 1.6-.4 3.9.2 2.3 1.15 3.85.95 1.5 2.05 1.4 1.15-.1 1.8-1.8.6-1.65.4-3.95-.25-2.3-1.15-3.8-.95-1.5-2.1-1.4-1.1.1-1.75 1.8" fill="#51cdff" fill-rule="evenodd" transform="translate(-53.9 12.5)"/><path d="m74.3 174.35.5-9.55q1.45 40.25 11.75 67.4 6.95 16.4 14.1 24.8 5.75 5.7 5.4 16.3-1.3 11.1-7.4 11-6.3-1.4-8.05-12.8-.45-3.95 0-6.45Q79.75 243.3 76 215.2q5.35 29.7 15.55 47.05l.7-.75q-1.4 3-.55 9.85.9 5.8 4.8 7.35 3.85 1.05 5.7-4.75 1.65-8.75-4-15.7-21.45-28.75-23.9-83.9m17.25 87.9q-.7 1.1-.95 2.8.25-1.7.95-2.8" fill="#3979a9" fill-rule="evenodd" transform="translate(-53.9 12.5)"/><path d="M74.95 205.05q-.45-5.6-.65-11.45 5.4 37.45 12.95 50.35 5.35 7.75 4.1 9.7-2 2.7-5.1-5.85-7.6-16.8-11.3-42.75m17.65 60.6q.65-1.7 1.75-1.8 1.15-.1 2.1 1.4.9 1.5 1.15 3.8.2 2.3-.4 3.95-.65 1.7-1.8 1.8-1.1.1-2.05-1.4-.95-1.55-1.15-3.85-.25-2.3.4-3.9" fill="#d0efff" fill-rule="evenodd" transform="translate(-53.9 12.5)"/><path d="M20.4 206.1q-.35-9.35 0-19.25l.5-9.55q1.45 40.25 11.75 67.4 6.95 16.4 14.1 24.8 5.75 5.7 5.4 16.3-1.3 11.1-7.4 11-6.3-1.4-8.05-12.8-.45-3.95 0-6.45-10.85-21.75-14.6-49.85l-1.05-10.15q-.45-5.6-.65-11.45" fill="none" stroke="#930" stroke-linecap="round" stroke-linejoin="round" stroke-opacity="0" stroke-width="3"/><path d="m91.55 262.25.7-.75q.85-.8 2.1-.95 4.3.15 5.35 9.05m-9.1-4.55q.25-1.7.95-2.8" fill="none" stroke="#930" stroke-linecap="round" stroke-linejoin="round" stroke-opacity="0" transform="translate(-53.9 12.5)"/><path d="m207.6 134.2-6.1-13.1q5.7-18.1 13.4-24.1 8.05-5.35 14.85-11.4-4.25 22.15-11.15 39.55l-11 9.05m29.45-55.6q4.75-5.05 8.85-10.45-1.75 18.55-6.2 35.15-4.8 5.95-10.35 11.7 4.85-15.4 7.7-36.4m12.2-15.2q12.5-18.8 16.9-42.3l.25 4.55q.45 10.5-.95 20.65-3.45 23.85-17.4 45.45l-2.25 3.35q3.75-16.2 3.45-31.7" fill="#3460a7" fill-rule="evenodd" transform="translate(-53.9 12.5)"/><path d="m275.8 30.3.2 2.1q1.65 19.65-4.4 38.3 1.9-21.7-5.2-45.05l-.25-4.55q.9-4.95 1.45-10.05 6.45 5.45 8.2 19.25m-17.25 67.25q-8.6 13.3-21.45 26.1 6.1-10.25 10.95-31.9 13.95-21.6 17.4-45.45 2.3 28-6.9 51.25" fill="#ecfff9" fill-rule="evenodd" transform="translate(-53.9 12.5)"/><path d="M271.6 70.7q-4.45 13.7-13.05 26.85 9.2-23.25 6.9-51.25 1.4-10.15.95-20.65 7.1 23.35 5.2 45.05m-34.5 52.95q-10.85 10.75-24.65 21.15l-4.85-10.6 11-9.05q6.9-17.4 11.15-39.55l2.75-2.45 1-1 3.55-3.55q-2.85 21-7.7 36.4l-10.75 10.15L229.35 115q5.55-5.75 10.35-11.7 4.45-16.6 6.2-35.15l3.35-4.75q.3 15.5-3.45 31.7l2.25-3.35q-4.85 21.65-10.95 31.9m30.5-112.6q.55-5.4.75-11.05 5.95 15.4 7.45 30.3-1.75-13.8-8.2-19.25m-27.9 92.25q3.25-4.05 6.1-8.2-2.85 4.15-6.1 8.2" fill="#baf4ff" fill-rule="evenodd" transform="translate(-53.9 12.5)"/><path d="m201.5 121.1-6-13.05q9.2-13.25 15.65-15.85 1.7-.7 3.15-.65 4.75.05 7.65-2.9 7.3-8.35 10.55-5.5l-2.75 2.45q-6.8 6.05-14.85 11.4-7.7 6-13.4 24.1m9.05-28.3q-.8.55-1.4 1.65-.6 1.15-.65 2.15-.05 1.05.5 1.4.5.3 1.3-.3.7-.55 1.35-1.7.6-1.1.65-2.1.05-1.05-.45-1.35l-.6-.1-.7.35" fill="#dfa70c" fill-rule="evenodd" transform="translate(-53.9 12.5)"/><path d="m195.5 108.05-2.9-.8q10.65-16.6 22.4-18.2 2.9-.1 5-1.35l4.3-3.8q4.85-5.6 9.2-1.75l-1 1q-3.25-2.85-10.55 5.5-2.9 2.95-7.65 2.9-1.45-.05-3.15.65-6.45 2.6-15.65 15.85" fill="#ffe512" fill-rule="evenodd" transform="translate(-53.9 12.5)"/><path d="m210.55 92.8.7-.35.6.1q.5.3.45 1.35-.05 1-.65 2.1-.65 1.15-1.35 1.7-.8.6-1.3.3-.55-.35-.5-1.4.05-1 .65-2.15.6-1.1 1.4-1.65" fill="#1b2c74" fill-rule="evenodd" transform="translate(-53.9 12.5)"/><path d="m221.9 42.8.2 2.1q1.65 19.65-4.4 38.3-4.45 13.7-13.05 26.85-8.6 13.3-21.45 26.1-10.85 10.75-24.65 21.15l-4.85-10.6-6.1-13.1-6-13.05-2.9-.8q10.65-16.6 22.4-18.2 2.9-.1 5-1.35l4.3-3.8q4.85-5.6 9.2-1.75l3.55-3.55q4.75-5.05 8.85-10.45l3.35-4.75q12.5-18.8 16.9-42.3.9-4.95 1.45-10.05.55-5.4.75-11.05 5.95 15.4 7.45 30.3" fill="none" stroke="#930" stroke-linecap="round" stroke-linejoin="round" stroke-opacity="0" stroke-width="3"/><path d="m266.15 21.1.25 4.55q.45 10.5-.95 20.65-3.45 23.85-17.4 45.45l-2.25 3.35q-2.85 4.15-6.1 8.2-4.8 5.95-10.35 11.7l-10.75 10.15-11 9.05m25.9-52.05-1 1-2.75 2.45q-6.8 6.05-14.85 11.4-7.7 6-13.4 24.1" fill="none" stroke="#930" stroke-linecap="round" stroke-linejoin="round" stroke-opacity="0" transform="translate(-53.9 12.5)"/><path d="M66.9 42.5q-.2-10.3 1.5-20.65l.8-4.5q1.55 23.85 11.75 44Q78.8 76.7 80.6 93.2l-1.85-3.55Q67.45 66.55 66.9 42.5m24.35 35.4q.3 21.2 3.35 37-4.85-6.35-8.9-12.8-2.45-17-2-35.65 3.4 5.9 7.55 11.45m12.8 48.4q-4.8-18.1-6.4-40.6 6.05 6.8 13.4 13.05 6.9 6.9 10.45 25.55l-7.65 12.3-9.8-10.3" fill="#3460a7" fill-rule="evenodd" transform="translate(-53.9 12.5)"/><path d="M66.9 42.5q.55 24.05 11.85 47.15 2.25 22.05 7.1 32.95-11.2-14.25-18.25-28.45Q61.25 70 66.9 42.5m2.3-25.15-.8 4.5q-9.85 22.3-10.5 44.1-3.8-19.2.15-38.5l.45-2.1q3.35-13.5 10.4-18.15-.05 5.15.3 10.15" fill="#ecfff9" fill-rule="evenodd" transform="translate(-53.9 12.5)"/><path d="M68.4 21.85Q66.7 32.2 66.9 42.5q-5.65 27.5.7 51.65-6.9-14.05-9.7-28.2.65-21.8 10.5-44.1m10.35 67.8 1.85 3.55q-1.8-16.5.35-31.85l2.75 5.1q-.45 18.65 2 35.65 4.05 6.45 8.9 12.8-3.05-15.8-3.35-37l3.1 3.9.85 1.15 2.45 2.75q1.6 22.5 6.4 40.6-5.05-5.65-9.45-11.4 4.4 5.75 9.45 11.4l9.8 10.3-6.05 9.9q-12.45-11.9-21.95-23.9-4.85-10.9-7.1-32.95M68.9 7.2q-7.05 4.65-10.4 18.15 3.25-14.6 11-29.15-.5 5.6-.6 11m16.8 94.9q-2.75-4.4-5.1-8.9 2.35 4.5 5.1 8.9" fill="#baf4ff" fill-rule="evenodd" transform="translate(-53.9 12.5)"/><path d="m97.65 85.7-2.45-2.75q3.55-2.45 9.8 6.7 2.55 3.3 7.3 3.8 1.45.1 3 1 6.1 3.35 13.7 17.6l-7.5 12.25q-3.55-18.65-10.45-25.55-7.35-6.25-13.4-13.05m16.95 9.05q-.55.2-.65 1.3 0 .95.45 2.1.45 1.25 1.15 1.85.75.7 1.25.45.6-.25.65-1.3.05-1.05-.4-2.2-.5-1.15-1.2-1.8l-.65-.45-.6.05" fill="#dfa70c" fill-rule="evenodd" transform="translate(-53.9 12.5)"/><path d="m95.2 82.95-.85-1.15q4.75-3.25 8.95 2.85l3.8 4.3q1.95 1.45 4.75 1.9 11.55 3 20.1 20.75l-2.95.45q-7.6-14.25-13.7-17.6-1.55-.9-3-1-4.75-.5-7.3-3.8-6.25-9.15-9.8-6.7" fill="#ffe512" fill-rule="evenodd" transform="translate(-53.9 12.5)"/><path d="m114.6 94.75.6-.05.65.45q.7.65 1.2 1.8.45 1.15.4 2.2-.05 1.05-.65 1.3-.5.25-1.25-.45-.7-.6-1.15-1.85-.45-1.15-.45-2.1.1-1.1.65-1.3" fill="#1b2c74" fill-rule="evenodd" transform="translate(-53.9 12.5)"/><path d="M27.05 73.85q-10.2-20.15-11.75-44-.35-5-.3-10.15.1-5.4.6-11-7.75 14.55-11 29.15l-.45 2.1Q.2 59.25 4 78.45q2.8 14.15 9.7 28.2 7.05 14.2 18.25 28.45 9.5 12 21.95 23.9l6.05-9.9 7.65-12.3 7.5-12.25 2.95-.45q-8.55-17.75-20.1-20.75-2.8-.45-4.75-1.9l-3.8-4.3q-4.2-6.1-8.95-2.85l-3.1-3.9q-4.15-5.55-7.55-11.45l-2.75-5.1" fill="none" stroke="#930" stroke-linecap="round" stroke-linejoin="round" stroke-opacity="0" stroke-width="3"/><path d="M68.4 21.85Q66.7 32.2 66.9 42.5q.55 24.05 11.85 47.15l1.85 3.55q2.35 4.5 5.1 8.9 4.05 6.45 8.9 12.8 4.4 5.75 9.45 11.4l9.8 10.3M69.2 17.35l-.8 4.5M97.65 85.7l-2.45-2.75-.85-1.15m3.3 3.9q6.05 6.8 13.4 13.05 6.9 6.9 10.45 25.55" fill="none" stroke="#930" stroke-linecap="round" stroke-linejoin="round" stroke-opacity="0" transform="translate(-53.9 12.5)"/><path d="M233 184.9q0 40.4-24.05 68.95-24.05 28.55-58 28.55-34 0-58.05-28.55-24-28.55-24-68.95 0-40.4 24-69 24.05-28.55 58.05-28.55 33.95 0 58 28.55 24.05 28.6 24.05 69m-41.8-71.7q-16.25-16.8-39.85-22.3-23.65 6.15-39.2 22.25l-.15.2q-22.85 23.8-28.05 69.05-4.55 47.2 27.5 71.05 39.4 21.6 82.35-2.75 36-28.3 25.15-83.55-8.95-34.5-27.75-53.95" fill="#d3def2" fill-rule="evenodd" transform="translate(-53.9 12.5)"/><path d="M191.2 113.2q48.4 117.55-50.55 114.25-62.9-52.2-28.65-114.1l.15-.2q15.55-16.1 39.2-22.25 23.6 5.5 39.85 22.3" fill="#6b789b" fill-rule="evenodd" transform="translate(-53.9 12.5)"/><path d="M112 113.35q-34.25 61.9 28.65 114.1 98.95 3.3 50.55-114.25 18.8 19.45 27.75 53.95 10.85 55.25-25.15 83.55-42.95 24.35-82.35 2.75-32.05-23.85-27.5-71.05 5.2-45.25 28.05-69.05" fill="#354873" fill-rule="evenodd" transform="translate(-53.9 12.5)"/><path d="M179.1 197.4q0 40.4-24.05 68.95-24.05 28.55-58 28.55-34 0-58.05-28.55-24-28.55-24-68.95 0-40.4 24-69 24.05-28.55 58.05-28.55 33.95 0 58 28.55 24.05 28.6 24.05 69z" fill="none" stroke="#930" stroke-linecap="round" stroke-linejoin="round" stroke-opacity="0" stroke-width="3"/><path d="M149.1 234.95q-24.65 0-42.15-18.8Q89.5 197.4 89.5 170.8q0-26.55 17.45-45.35 17.5-18.8 42.15-18.8 24.7 0 42.15 18.8 17.5 18.8 17.5 45.35 0 26.6-17.5 45.35-17.45 18.8-42.15 18.8" fill="url(#u)" fill-rule="evenodd" transform="translate(-53.9 12.5)"/><path d="M149.1 234.95q-24.65 0-42.15-18.8Q89.5 197.4 89.5 170.8q0-26.55 17.45-45.35 17.5-18.8 42.15-18.8 24.7 0 42.15 18.8 17.5 18.8 17.5 45.35 0 26.6-17.5 45.35-17.45 18.8-42.15 18.8z" fill="none" stroke="#930" stroke-linecap="round" stroke-linejoin="round" stroke-opacity="0" transform="translate(-53.9 12.5)"/><path d="M248.5 193.45q-3.15 37.8-13.75 51.35-7.85 8.25-5.35 10.05 3.85 2.55 7.65-6.3 10.15-17.45 12.2-43.65.1 5.2-.2 10.2-4.2 30.1-18.7 48.35l-1.25-.7q2.9 2.85 2.6 9.8-.6 5.85-6.95 7.75-6.3 1.45-10.45-4.2-4.3-8.5 4.2-16 31.65-30.65 26.75-85.85 2.25 9.85 3.25 19.2m-22.6 71.85q-1.9 0-3.3 1.6-1.35 1.6-1.35 3.9t1.35 3.9q1.4 1.6 3.3 1.6t3.25-1.6q1.4-1.6 1.4-3.9t-1.4-3.9q-1.35-1.6-3.25-1.6m-8.1 6.25q.3-8.95 7.65-9.5 2.1 0 3.65.7-1.55-.7-3.65-.7-7.35.55-7.65 9.5" fill="#51cdff" fill-rule="evenodd" transform="translate(-53.9 12.5)"/><path d="M249.05 215.1q-1.65 28.35-16.5 51.05 1.1 2.45 1 6.4-1.1 11.55-11.6 13.55-10.3.65-14.35-10.25-2.3-10.55 6.5-16.75 10.8-9.05 19.95-26.05Q247 205 242.85 164.8l2.4 9.45q4.9 55.2-26.75 85.85-8.5 7.5-4.2 16 4.15 5.65 10.45 4.2 6.35-1.9 6.95-7.75.3-6.95-2.6-9.8l1.25.7q1.4 1 2.2 2.7-.8-1.7-2.2-2.7 14.5-18.25 18.7-48.35" fill="#3979a9" fill-rule="evenodd" transform="translate(-53.9 12.5)"/><path d="m248.5 193.45.75 11.45q-2.05 26.2-12.2 43.65-3.8 8.85-7.65 6.3-2.5-1.8 5.35-10.05 10.6-13.55 13.75-51.35m-22.6 71.85q1.9 0 3.25 1.6 1.4 1.6 1.4 3.9t-1.4 3.9q-1.35 1.6-3.25 1.6t-3.3-1.6q-1.35-1.6-1.35-3.9t1.35-3.9q1.4-1.6 3.3-1.6" fill="#d0efff" fill-rule="evenodd" transform="translate(-53.9 12.5)"/><path d="m195.35 217.4-.75-11.45q-1-9.35-3.25-19.2l-2.4-9.45q4.15 40.2-8.8 68.25-9.15 17-19.95 26.05-8.8 6.2-6.5 16.75 4.05 10.9 14.35 10.25 10.5-2 11.6-13.55.1-3.95-1-6.4 14.85-22.7 16.5-51.05.3-5 .2-10.2" fill="none" stroke="#930" stroke-linecap="round" stroke-linejoin="round" stroke-opacity="0" stroke-width="3"/><path d="m230.35 263.45-1.25-.7q-1.55-.7-3.65-.7-7.35.55-7.65 9.5m14.75-5.4q-.8-1.7-2.2-2.7" fill="none" stroke="#930" stroke-linecap="round" stroke-linejoin="round" stroke-opacity="0" transform="translate(-53.9 12.5)"/><path d="M137.45 296.8q-2.4-2.2-4.85-2.25-2.5 0-3.6 2.15-1.05 2.25-.1 5.45.95 3.15 3.4 5.35 2.4 2.3 4.9 2.3 2.45.05 3.55-2.2 1.05-2.2.1-5.35-.95-3.2-3.4-5.45m-27.65-24.15q10.6 11.2 27.45 16.2 11.95 1.35 15.5 13.75 2.25 8.1 6.55 7.75 3.75-.8.25-10.8-2.8-10.15 7.05-10.15 12.7-3.15 16.55-14.6 4.05-3.85 9.2-1.95 8.1 5.55 9.55 15.9.15 8.25-5.6 7.5-6.35-1.75-7.25-8.35-.2-4.45 3.1-4.25-4.35-2.75-6 2.95-.95 4.85 2.35 9-4.25-3.25-9.7-4.85-13.75-3.7-13.5 11.7.65 9.7 9.8 15.6 6.9 3.25 9.85-2.45-14.7-.7-16.4-13.4-1.1-11 9.85-9.45 9.2 2.05 14.55 14.2 6.05 15.25-2.7 20.8-8.5 5.65-29.55-11.4-11.45 16.5-23.8 10.8-12.3-7-14.6-22.35-1.3-14.95 11.75-12.95 8.6 2.05 10.85 12.65 1.1 10.1-8.7 10.65 5.95 5.8 12.2 1.35 5.15-6.85-4.55-20.1-9.55-10.3-20.2-5.15-2.5 1.8-3.9 4.35l.15-.65q1-6.65-5.95-11.85-4.2-2.65-6 0 5.9-.75 8.1 7.05.45 5.3-4.3 5.2-7.45-1.2-10.8-10.8-2.3-9.1 2.05-13.25 2.75-.4 6.8 1.35M107 285.6q.35-1.55.95-2.5-.6.95-.95 2.5m88.6 1.1q-1.9-2.05-3.45-3.05 1.55 1 3.45 3.05m-4.9.7q-.6 1.3-.05 3.1.55 1.8 1.95 3.1 1.45 1.3 2.85 1.3 1.4.05 2.05-1.25.6-1.3.05-3.1-.55-1.8-1.95-3.1t-2.8-1.35q-1.4 0-2.1 1.3m-18.55 9.8q-1.05 2.2-.1 5.4 1 3.15 3.4 5.4 2.45 2.25 4.95 2.3 2.45 0 3.5-2.25 1.1-2.15.1-5.3-.95-3.2-3.4-5.5-2.4-2.2-4.85-2.2-2.5-.05-3.6 2.15m16.35-1.6q2 1.45 3.7 3.35l-.9-.55q-1.65-1.35-2.8-2.8m-80.75-9q-.65 1.3-.1 3.1t2 3.1q1.4 1.3 2.85 1.3 1.4.05 2-1.25.65-1.3.1-3.1t-2-3.1q-1.35-1.3-2.75-1.35-1.45 0-2.1 1.3" fill="#51cdff" fill-rule="evenodd" transform="translate(-53.9 12.5)"/><path d="M183.15 274.8q-3.85 11.45-16.55 14.6-9.85 0-7.05 10.15 3.5 10-.25 10.8-4.3.35-6.55-7.75-3.55-12.4-15.5-13.75-16.85-5-27.45-16.2l3.15 1.5q43.85 25.5 70.2.65M103 271.3q-4.35 4.15-2.05 13.25 3.35 9.6 10.8 10.8 4.75.1 4.3-5.2-2.2-7.8-8.1-7.05 1.8-2.65 6 0 6.95 5.2 5.95 11.85l-.15.65-1.05 2.4q-2.9 4.45-10.25.6-10.85-6.55-11-19.9.8-6.8 5.55-7.4m33.2 43.85q9.8-.55 8.7-10.65-2.25-10.6-10.85-12.65-13.05-2-11.75 12.95 2.3 15.35 14.6 22.35 12.35 5.7 23.8-10.8 21.05 17.05 29.55 11.4 8.75-5.55 2.7-20.8-5.35-12.15-14.55-14.2-10.95-1.55-9.85 9.45 1.7 12.7 16.4 13.4-2.95 5.7-9.85 2.45-9.15-5.9-9.8-15.6-.25-15.4 13.5-11.7 5.45 1.6 9.7 4.85-3.3-4.15-2.35-9 1.65-5.7 6-2.95-3.3-.2-3.1 4.25.9 6.6 7.25 8.35 5.75.75 5.6-7.5-1.45-10.35-9.55-15.9 3.1 1.15 6.65 4.35 8.95 10.2 5.65 18.6-3.65 8.05-12.45 3.15 4.1 4.45 6.55 11 6.55 21.95-5.5 27.1-13.7 4.2-31-15.65-5.55 19.85-20.35 15.55-15.3-6.35-21.25-20.2-4.3-11.65-1.95-18.75l1.05-2.4q1.4-2.55 3.9-4.35 10.65-5.15 20.2 5.15 9.7 13.25 4.55 20.1-6.25 4.45-12.2-1.35m52.3-19.55q1.15 1.45 2.8 2.8l.9.55q-1.7-1.9-3.7-3.35" fill="#3979a9" fill-rule="evenodd" transform="translate(-53.9 12.5)"/><path d="M137.45 296.8q2.45 2.25 3.4 5.45.95 3.15-.1 5.35-1.1 2.25-3.55 2.2-2.5 0-4.9-2.3-2.45-2.2-3.4-5.35-.95-3.2.1-5.45 1.1-2.15 3.6-2.15 2.45.05 4.85 2.25m34.7.4q1.1-2.2 3.6-2.15 2.45 0 4.85 2.2 2.45 2.3 3.4 5.5 1 3.15-.1 5.3-1.05 2.25-3.5 2.25-2.5-.05-4.95-2.3-2.4-2.25-3.4-5.4-.95-3.2.1-5.4m18.55-9.8q.7-1.3 2.1-1.3 1.4.05 2.8 1.35t1.95 3.1q.55 1.8-.05 3.1-.65 1.3-2.05 1.25-1.4 0-2.85-1.3-1.4-1.3-1.95-3.1t.05-3.1m-82.95-.8q.65-1.3 2.1-1.3 1.4.05 2.75 1.35 1.45 1.3 2 3.1t-.1 3.1q-.6 1.3-2 1.25-1.45 0-2.85-1.3-1.45-1.3-2-3.1t.1-3.1" fill="#d0efff" fill-rule="evenodd" transform="translate(-53.9 12.5)"/><path d="M107.95 283.1q-.6.95-.95 2.5m77.95 30q-2.95 5.7-9.85 2.45-9.15-5.9-9.8-15.6-.25-15.4 13.5-11.7 5.45 1.6 9.7 4.85-3.3-4.15-2.35-9 1.65-5.7 6-2.95 1.55 1 3.45 3.05m-7.1 8.9q1.15 1.45 2.8 2.8l.9.55q-1.7-1.9-3.7-3.35m-68.75 0 .15-.65q1-6.65-5.95-11.85-4.2-2.65-6 0m11.8 12.5-1.05 2.4m17.5 17.15q5.95 5.8 12.2 1.35 5.15-6.85-4.55-20.1-9.55-10.3-20.2-5.15-2.5 1.8-3.9 4.35" fill="none" stroke="#930" stroke-linecap="round" stroke-linejoin="round" stroke-opacity="0" transform="translate(-53.9 12.5)"/><path d="M129.25 287.3q-26.35 24.85-70.2-.65l-3.15-1.5q-4.05-1.75-6.8-1.35-4.75.6-5.55 7.4.15 13.35 11 19.9 7.35 3.85 10.25-.6-2.35 7.1 1.95 18.75Q72.7 343.1 88 349.45q14.8 4.3 20.35-15.55 17.3 19.85 31 15.65 12.05-5.15 5.5-27.1-2.45-6.55-6.55-11 8.8 4.9 12.45-3.15 3.3-8.4-5.65-18.6-3.55-3.2-6.65-4.35-5.15-1.9-9.2 1.95z" fill="none" stroke="#930" stroke-linecap="round" stroke-linejoin="round" stroke-opacity="0" stroke-width="3"/><path d="m192.05 126.5.5.5q27.7 30.8 22.9 63.4-1 5.9-3.25 11.05l-.1.25q-9.2 20.75-38.7 29.45-21.2 3.65-28.9 15.85 4.05-12.2 28.9-19.6 40-14.25 38.35-48.25-1.3-32-38.05-66.8 9.95 6.3 18.35 14.15m.65 12.6q7.4 23.4-4.8 43.25-9.85 13.55-23.3 22.5-17.35 10.05-25.6 26.55-6.6 16.85 3.4 28.5-15.1-2.95-22.7-42 10.45-4.4 20.15-14 13.15-15.4 4-28.3 13.8 5.5 9.65 28.25 16.7-10.35 23.2-20.1 16.65-14.85 16-44.65" fill="#d8801c" fill-rule="evenodd" transform="translate(-53.9 12.5)"/><path d="M192.55 127q16.3 15.4 26.6 36.6 8.2 23.6-1.4 41.8-2.65 2.6-4.55 2.5-2.7-.75-1.1-6.2l.1-.25q2.25-5.15 3.25-11.05 4.8-32.6-22.9-63.4m30.35 80.7q-8.2 26.8-29.7 41.85 1.6-11.95 13.75-21.4 10.35-8.05 15.95-20.45m-24.8-55.6q10.35 22 6.25 41.25-3.9 19.55-28.95 25.75-25.95 6.6-35.25 24.3 2.5-21.2 24.45-33.55 38.05-16.95 33.5-57.75" fill="#fcf7cd" fill-rule="evenodd" transform="translate(-53.9 12.5)"/><path d="M217.75 205.4q-2.65 4.95-6.55 9.5-16.1 16.25-35.8 18.75-24.45 4.15-30.9 13.35 7.7-12.2 28.9-15.85 29.5-8.7 38.7-29.45-1.6 5.45 1.1 6.2 1.9.1 4.55-2.5m-24.55 44.15q-4 2.75-8.45 5.1 3.75-2.85 5.4-10.25 1.7-11.3 13.1-18.75 17.5-11.05 23.55-37.05-1.25 10.2-3.9 19.1-5.6 12.4-15.95 20.45-12.15 9.45-13.75 21.4m-.5-110.45q17.65 29.1 15.65 50.5-3.5 23.2-24.45 30.05-52.2 16.55-41.5 40.25-10-11.65-3.4-28.5 8.25-16.5 25.6-26.55 13.45-8.95 23.3-22.5 12.2-19.85 4.8-43.25m5.4 13q4.55 40.8-33.5 57.75-21.95 12.35-24.45 33.55 9.3-17.7 35.25-24.3 25.05-6.2 28.95-25.75 4.1-19.25-6.25-41.25" fill="#ffd00f" fill-rule="evenodd" transform="translate(-53.9 12.5)"/><path d="M143.85 175.6q14.25 2.95 14.2 18.5 11.1-3.65 18.65-10.35-6.5 9.75-23.2 20.1 4.15-22.75-9.65-28.25" fill="#f8f838" fill-rule="evenodd" transform="translate(-53.9 12.5)"/><path d="M138.65 139.5q16.3 15.4 26.6 36.6 8.2 23.6-1.4 41.8-2.65 4.95-6.55 9.5-16.1 16.25-35.8 18.75-24.45 4.15-30.9 13.35 4.05-12.2 28.9-19.6 40-14.25 38.35-48.25-1.3-32-38.05-66.8 9.95 6.3 18.35 14.15m1.15 123.05q-4 2.75-8.45 5.1 3.75-2.85 5.4-10.25 1.7-11.3 13.1-18.75 17.5-11.05 23.55-37.05-1.25 10.2-3.9 19.1-8.2 26.8-29.7 41.85M88.5 272.4q-10.7-23.7 41.5-40.25 20.95-6.85 24.45-30.05 2-21.4-15.65-50.5.65 29.8-16 44.65-7.55 6.7-18.65 10.35.05-15.55-14.2-18.5 9.15 12.9-4 28.3-9.7 9.6-20.15 14" fill="none" stroke="#930" stroke-linecap="round" stroke-linejoin="round" stroke-opacity="0" stroke-width="2"/><path d="M118.25 169.65q-6.65 12.9 2.9 28.3 7.05 9.6 14.65 14-5.55 39.05-16.5 42 7.25-11.65 2.45-28.5-6-16.5-18.6-26.55-9.75-8.95-16.9-22.5-8.9-19.85-3.5-43.25-.5 29.8 11.6 44.65 4.75 9.75 16.9 20.1-3.05-22.75 7-28.25m-35.4-48.6.35-.5q6.15-7.85 13.35-14.15-26.7 34.8-27.65 66.8-1.2 34 27.85 48.25 18.05 7.4 21 19.6-5.55-12.2-21-15.85-21.4-8.7-28.1-29.45l-.1-.25q-1.6-5.15-2.35-11.05-3.45-32.6 16.65-63.4" fill="#d8801c" fill-rule="evenodd" transform="translate(-53.9 12.5)"/><path d="M82.85 121.05q-20.1 30.8-16.65 63.4.75 5.9 2.35 11.05l.1.25q1.15 5.45-.8 6.2-1.4.1-3.3-2.5-6.95-18.2-1.05-41.8 7.5-21.2 19.35-36.6m-22.05 80.7q4.1 12.4 11.6 20.45 8.8 9.45 10 21.4-15.65-15.05-21.6-41.85m18-55.6q-3.3 40.8 24.35 57.75 15.95 12.35 17.8 33.55-6.8-17.7-25.65-24.3-18.2-6.2-21.05-25.75-2.95-19.25 4.55-41.25" fill="#fcf7cd" fill-rule="evenodd" transform="translate(-53.9 12.5)"/><path d="M82.75 133.15q-5.4 23.4 3.5 43.25 7.15 13.55 16.9 22.5 12.6 10.05 18.6 26.55 4.8 16.85-2.45 28.5 7.8-23.7-30.15-40.25-15.2-6.85-17.8-30.05-1.45-21.4 11.4-50.5m-14.1 62.6q6.7 20.75 28.1 29.45 15.45 3.65 21 15.85-4.65-9.2-22.45-13.35-14.3-2.5-26-18.75-2.85-4.55-4.75-9.5 1.9 2.6 3.3 2.5 1.95-.75.8-6.2m-7.85 6q-1.95-8.9-2.85-19.1 4.4 26 17.15 37.05 8.25 7.45 9.5 18.75 1.2 7.4 3.9 10.25-3.2-2.35-6.1-5.1-1.2-11.95-10-21.4-7.5-8.05-11.6-20.45m18-55.6q-7.5 22-4.55 41.25 2.85 19.55 21.05 25.75 18.85 6.6 25.65 24.3-1.85-21.2-17.8-33.55-27.65-16.95-24.35-57.75" fill="#ffd00f" fill-rule="evenodd" transform="translate(-53.9 12.5)"/><path d="M118.25 169.65q-10.05 5.5-7 28.25-12.15-10.35-16.9-20.1 5.5 6.7 13.55 10.35 0-15.55 10.35-18.5" fill="#f8f838" fill-rule="evenodd" transform="translate(-53.9 12.5)"/><path d="M81.9 224.45q-7.6-4.4-14.65-14-9.55-15.4-2.9-28.3Q54 185.1 54 200.65 45.95 197 40.45 190.3q-12.1-14.85-11.6-44.65-12.85 29.1-11.4 50.5 2.6 23.2 17.8 30.05 37.95 16.55 30.15 40.25m-1.55-12.9q-2.95-12.2-21-19.6Q13.8 219.7 15 185.7q.95-32 27.65-66.8-7.2 6.3-13.35 14.15m-.8 123.05q2.9 2.75 6.1 5.1-2.7-2.85-3.9-10.25-1.25-11.3-9.5-18.75-12.75-11.05-17.15-37.05.9 10.2 2.85 19.1 5.95 26.8 21.6 41.85m-17.85-44.15q1.9 4.95 4.75 9.5 11.7 16.25 26 18.75 17.8 4.15 22.45 13.35m-34.9-120q-11.85 15.4-19.35 36.6-5.9 23.6 1.05 41.8" fill="none" stroke="#930" stroke-linecap="round" stroke-linejoin="round" stroke-opacity="0" stroke-width="2"/><path d="M117.25 248.9q-3.2-1.6-7.1-.55-5 1-9.95-2.45-8.85-6.5-16.85-21.6 3.85 3.3 12.15 5.45 21.25 5.25 21.75 19.15M93.6 233.75q6.85 14.95 18.2 9.2-5.15-6.5-18.2-9.2" fill="#c9480e" fill-rule="evenodd" transform="translate(-53.9 12.5)"/><path d="M93.6 233.75q13.05 2.7 18.2 9.2-11.35 5.75-18.2-9.2" fill="#ffe68d" fill-rule="evenodd" transform="translate(-53.9 12.5)"/><path d="M94.5 252.15q-7.2-6.05-9.85-18.85 4.3 9.1 10.2 14.45 9.1 7.7 18.2 7.1-11.4 2.4-18.55-2.7" fill="#8affd6" fill-rule="evenodd" transform="translate(-53.9 12.5)"/><path d="M63.35 261.4q-.5-13.9-21.75-19.15-8.3-2.15-12.15-5.45 8 15.1 16.85 21.6 4.95 3.45 9.95 2.45 3.9-1.05 7.1.55" fill="none" stroke="#930" stroke-linecap="round" stroke-linejoin="round" stroke-opacity="0" stroke-width="2"/><path d="M94.5 252.15q7.15 5.1 18.55 2.7-9.1.6-18.2-7.1-5.9-5.35-10.2-14.45 2.65 12.8 9.85 18.85z" fill="none" stroke="#930" stroke-linecap="round" stroke-linejoin="round" stroke-opacity="0" transform="translate(-53.9 12.5)"/><path d="M97.7 253.95q4.05.3 8.35-1.05 13.65-4.8 9.6-23.7-4.05-18.15 7.65-17.4 12.6 2.05 12.15 20.85.85 21.55 20.5 30.05 3.75 1.15 7 1.3-7.8 1.4-15.5-3.2-13.35-8.15-14.65-25.9.2-14-7.35-15.7-9.75-1.85-6.65 11.95 2.45 12.4-2.95 19.65-6.45 6.85-18.15 3.15" fill="#374769" fill-rule="evenodd" transform="translate(-53.9 12.5)"/><path d="M97.7 253.95q11.7 3.7 18.15-3.15 5.4-7.25 2.95-19.65-3.1-13.8 6.65-11.95 7.55 1.7 7.35 15.7 1.3 17.75 14.65 25.9 7.7 4.6 15.5 3.2 8.45.45 22.35-7.5-3.8 12.15-26.7 17.15-25.9 2.4-47.15-5.95-21.25-8.4-21.3-24.4 3.8 9.4 7.55 10.65m2.25 4.65q31.25 23.7 75.45 6.1-45.65 8.85-75.45-6.1" fill="#6678aa" fill-rule="evenodd" transform="translate(-53.9 12.5)"/><path d="M99.95 258.6q29.8 14.95 75.45 6.1-44.2 17.6-75.45-6.1" fill="#d3def2" fill-rule="evenodd" transform="translate(-53.9 12.5)"/><path d="M109.05 276.5q-3.25-.15-7-1.3-19.65-8.5-20.5-30.05.45-18.8-12.15-20.85-11.7-.75-7.65 17.4 4.05 18.9-9.6 23.7-4.3 1.35-8.35 1.05-3.75-1.25-7.55-10.65.05 16 21.3 24.4 21.25 8.35 47.15 5.95 22.9-5 26.7-17.15-13.9 7.95-22.35 7.5z" fill="none" stroke="#930" stroke-linecap="round" stroke-linejoin="round" stroke-opacity="0" stroke-width="2"/><path d="M188.4 144.8q0 14.25-13.45 24.35-13.4 10.05-32.4 10.05-18.95 0-32.4-10.05-13.4-10.1-13.4-24.35 0-14.25 13.4-24.3 13.45-10.1 32.4-10.1 19 0 32.4 10.1 13.45 10.05 13.45 24.3" fill="url(#v)" fill-rule="evenodd" transform="translate(-53.9 12.5)"/><path d="M134.5 157.3q0 14.25-13.45 24.35-13.4 10.05-32.4 10.05-18.95 0-32.4-10.05-13.4-10.1-13.4-24.35 0-14.25 13.4-24.3 13.45-10.1 32.4-10.1 19 0 32.4 10.1 13.45 10.05 13.45 24.3z" fill="none" stroke="#930" stroke-linecap="round" stroke-linejoin="round" stroke-opacity="0" stroke-width="5"/><path d="M117.5 159.1q1.65-4.35 3.8-8.9l3.25 7.65q-3.3 0-7.05 1.25m12.7 18.55q.7 4.15.75 8.05-6.2 9.55-15.6 16.8-2.65-6.1-3.2-13.2 8-5.7 18.05-11.65m-18 3.85q.4-5.65 2-11.9 5.3-3.4 12.75-5.05l2.05 7q-9.55 4.8-16.8 9.95m16.25 19.55q-2.4 6.15-7.15 10.95l-2-2.55q5.05-3.75 9.15-8.4" fill="#a60aff" fill-rule="evenodd" transform="translate(-53.9 12.5)"/><path d="M114.2 169.6q1.3-5.05 3.3-10.5 3.75-1.25 7.05-1.25l2.4 6.7q-7.45 1.65-12.75 5.05m14.8 1.95 1.2 6.1q-10.05 5.95-18.05 11.65-.3-3.75.05-7.8 7.25-5.15 16.8-9.95m-.55 29.5q-4.1 4.65-9.15 8.4-2.4-3.3-3.95-6.95 9.4-7.25 15.6-16.8.2 8.5-2.5 15.35" fill="#d88bfb" fill-rule="evenodd" transform="translate(-53.9 12.5)"/><path d="m114.2 160.45 3.3-1.35q-2 5.45-3.3 10.5-4.8 3-7.85 7.4 2.35-7.8 7.85-16.55m12.7-2.45 3.65 5.8-3.6.75-2.4-6.7 2.35.15m6.65 11.3 2.35 5-5.7 3.35-1.2-6.1 4.55-2.25m2.8 6.15q1.85 4.9 2.6 9.3-4.2 9.25-10.5 16.3 2.7-6.85 2.5-15.35 3.1-4.85 5.4-10.25M116.3 211.5q-3.3-2.7-5.7-5.7l4.75-3.3q1.55 3.65 3.95 6.95l-3 2.05m-11.15-17q-.75-3.35-.65-6.95 3.45-3.1 7.7-6.05-.35 4.05-.05 7.8l-7 5.2" fill="#b085cd" fill-rule="evenodd" transform="translate(-53.9 12.5)"/><path d="m117.5 159.1-3.3 1.35q3.05-4.95 7.1-10.25-2.15 4.55-3.8 8.9M106.35 177q3.05-4.4 7.85-7.4-1.6 6.25-2 11.9-4.25 2.95-7.7 6.05.1-5 1.85-10.55m18.2-19.15-3.25-7.65 5.6 7.8-2.35-.15m6 5.95 3 5.5-4.55 2.25-2.05-7 3.6-.75m5.35 10.5.45 1.15q-2.3 5.4-5.4 10.25-.05-3.9-.75-8.05l5.7-3.35m3.05 10.45q3.3 20.1-17.65 30.25l-5-3.5 3-2.05 2 2.55q4.75-4.8 7.15-10.95 6.3-7.05 10.5-16.3M110.6 205.8q-4.1-5.2-5.45-11.3l7-5.2q.55 7.1 3.2 13.2l-4.75 3.3" fill="#4c039a" fill-rule="evenodd" transform="translate(-53.9 12.5)"/><path d="M67.4 162.7q-4.05 5.3-7.1 10.25-5.5 8.75-7.85 16.55-1.75 5.55-1.85 10.55-.1 3.6.65 6.95 1.35 6.1 5.45 11.3 2.4 3 5.7 5.7l5 3.5q20.95-10.15 17.65-30.25-.75-4.4-2.6-9.3L82 186.8l-2.35-5-3-5.5-3.65-5.8-5.6-7.8z" fill="none" stroke="#930" stroke-linecap="round" stroke-linejoin="round" stroke-opacity="0" stroke-width="2"/><path d="M151.55 250.15q.5-13.8 21.75-16.55 8.3-1.15 12.15-4-8 14.15-16.85 19.6-4.95 2.85-9.95 1.25-3.9-1.5-7.1-.3m5.45-5.3q11.3 7.1 18.2-7-13.05 1.15-18.2 7" fill="#c9480e" fill-rule="evenodd" transform="translate(-53.9 12.5)"/><path d="M157 244.85q5.15-5.85 18.2-7-6.9 14.1-18.2 7" fill="#ffe68d" fill-rule="evenodd" transform="translate(-53.9 12.5)"/><path d="M173.95 251.7q5.9-4.65 10.2-13.25-2.65 12.5-9.85 17.65-7.15 4.25-18.55.5 9.1 1.7 18.2-4.9" fill="#8affd6" fill-rule="evenodd" transform="translate(-53.9 12.5)"/><path d="M173.95 251.7q5.9-4.65 10.2-13.25-2.65 12.5-9.85 17.65-7.15 4.25-18.55.5 9.1 1.7 18.2-4.9" fill="none" stroke="#930" stroke-linecap="round" stroke-linejoin="round" stroke-opacity="0" transform="translate(-53.9 12.5)"/><path d="M97.65 262.65q.5-13.8 21.75-16.55 8.3-1.15 12.15-4-8 14.15-16.85 19.6-4.95 2.85-9.95 1.25-3.9-1.5-7.1-.3z" fill="none" stroke="#930" stroke-linecap="round" stroke-linejoin="round" stroke-opacity="0" stroke-width="2"/></g><g id="s"><path d="m17.9 63.35.05 2.15q-7.7-14.55-6.25-27.2l18.75 3.4q1.6 9.75 7.85 20 3.7 5.8 1.65 11.6-1.6 2.55-5.65 4.55l-.65.1-1.25.2q5.8-4.6 1.2-13.8-5.15-12.9-11.9-10.05-5.4 1.5-3.8 9.05" fill="#22220c" fill-rule="evenodd" transform="translate(1.5 1.5)"/><path d="M17.9 63.35q-1.6-7.55 3.8-9.05 6.75-2.85 11.9 10.05 4.6 9.2-1.2 13.8-2.9.25-6.4-.1l-2.1-2.9q3.55 1.65 5.1-1 1.8-2-.65-9.05-4.35-9.15-8.3-6.9-2 1.1-2.15 5.15" fill="#444019" fill-rule="evenodd" transform="translate(1.5 1.5)"/><path d="m30.45 41.7 3.8.65 9.5 25.5q4.65.15 7.8 3.85 3.95 6.8-1.45 12.25l-1.35 1.15q3.45-14-4.9-14.95l.35-1.05-.45-1.25.45 1.25-.35 1.05q-1.3 3.45-4.05 5.45-2.3 1.6-5.5 2.25 4.05-2 5.65-4.55Q42 67.5 38.3 61.7q-6.25-10.25-7.85-20M48.1 85.55Q42.95 96.2 37.75 102.9 31 114.35 24.9 118.35 34.75 104.2 45 87.4l3.1-1.85" fill="#fff90c" fill-rule="evenodd" transform="translate(1.5 1.5)"/><path d="m17.95 65.5-.05-2.15q.15-4.05 2.15-5.15 3.95-2.25 8.3 6.9 2.45 7.05.65 9.05-1.55 2.65-5.1 1l-1.85-2.75q-2.3-3.5-4.1-6.9m6.1-1.85-1.6-2.85.7 3.05q-.3.15-.55.4-.55.55-.55 1.3t.55 1.3q.55.55 1.3.55l.7-.1 1.25 2.7-.65-3.15q.55-.55.55-1.3t-.55-1.3q-.5-.5-1.1-.55l-.05-.05" fill="#d5b537" fill-rule="evenodd" transform="translate(1.5 1.5)"/><path d="M24.1 63.7q.6.05 1.1.55.55.55.55 1.3t-.55 1.3l.65 3.15-1.25-2.7-.7.1q-.75 0-1.3-.55t-.55-1.3q0-.75.55-1.3.25-.25.55-.4l-.7-3.05 1.6 2.85-.15.05h.2" fill="#f7f16d" fill-rule="evenodd" transform="translate(1.5 1.5)"/><path d="m32.4 78.15 1.25-.2q4.2 3 2.15 4.5-9.15 4.8-16.8-.75v-.35q-.3-3.95 3.05-8.95l1.85 2.75 2.1 2.9q3.5.35 6.4.1m-5.2.9q-.8-.6-2-.6t-2.05.6q-.8.6-.8 1.45t.8 1.45q.85.6 2.05.6 1.2 0 2-.6.85-.6.85-1.45t-.85-1.45" fill="#f9ef72" fill-rule="evenodd" transform="translate(1.5 1.5)"/><path d="m33.65 77.95.65-.1q3.2-.65 5.5-2.25 9.3 6.55-3.75 14.15l-2.9.05-6.35-.65-3.15-.7Q19.45 85.6 19 81.7q7.65 5.55 16.8.75 2.05-1.5-2.15-4.5" fill="#ffd325" fill-rule="evenodd" transform="translate(1.5 1.5)"/><path d="M27.2 79.05q.85.6.85 1.45t-.85 1.45q-.8.6-2 .6t-2.05-.6q-.8-.6-.8-1.45t.8-1.45q.85-.6 2.05-.6 1.2 0 2 .6" fill="#fbffde" fill-rule="evenodd" transform="translate(1.5 1.5)"/><path d="M24.9 118.35q-4.25 2.75-8.15 2.05l-1.5-.7-2.05-2.45q3.45 1.65 6.4 1 6.5-1.55 10.5-14.65l.15-.5q1.7-5.65 2.9-13.3l2.9-.05q4.9-.4 8.95-2.35-10.25 16.8-20.1 30.95" fill="#253b58" fill-rule="evenodd" transform="translate(1.5 1.5)"/><path d="M33.15 89.8q-1.2 7.65-2.9 13.3l-.15.5q-2.7 6.85-4.5 8.65-1.6.95-1.35-.65 1.85-5.45 1.7-12.2.6-4.45.85-10.25l6.35.65M19.6 118.25q-2.95.65-6.4-1-3.7-4.8-3.9-9.15 4.7 10.4 12.1 6.2 1.55-.9.65 1.55-.95 1.65-2.45 2.4" fill="#87bcff" fill-rule="evenodd" transform="translate(1.5 1.5)"/><path d="M15.25 119.7q-10.9-5.5-5.8-19.05Q9.4 108 13.6 111.9q4.85 2.75 8.35-.5 2.8-3.35 4-12 .15 6.75-1.7 12.2-.25 1.6 1.35.65 1.8-1.8 4.5-8.65-4 13.1-10.5 14.65 1.5-.75 2.45-2.4.9-2.45-.65-1.55-7.4 4.2-12.1-6.2.2 4.35 3.9 9.15l2.05 2.45" fill="#cefaff" fill-rule="evenodd" transform="translate(1.5 1.5)"/><path d="m48.75 85.1-.65.45L45 87.4q-4.05 1.95-8.95 2.35 13.05-7.6 3.75-14.15 2.75-2 4.05-5.45 8.35.95 4.9 14.95" fill="#815700" fill-rule="evenodd" transform="translate(1.5 1.5)"/><path d="m31.95 43.2 3.8.65 9.5 25.5q4.65.15 7.8 3.85Q57 80 51.6 85.45l-1.35 1.15-.65.45Q44.45 97.7 39.25 104.4q-6.75 11.45-12.85 15.45-4.25 2.75-8.15 2.05l-1.5-.7q-10.9-5.5-5.8-19.05v-1.1m21-57.85L13.2 39.8Q11.75 52.45 19.45 67q1.8 3.4 4.1 6.9l1.85 2.75 2.1 2.9m10.05 11.7q4.9-.4 8.95-2.35l3.1-1.85m-29.1-4.2q-.3-3.95 3.05-8.95m11.1 17.4-6.35-.65q-.25 5.8-.85 10.25-1.2 8.65-4 12-3.5 3.25-8.35.5-4.2-3.9-4.15-11.25m23.7-10.85 2.9-.05M20.5 83.2q.45 3.9 4.65 6.75l3.15.7" fill="none" stroke="#131306" stroke-linecap="round" stroke-linejoin="round" stroke-width="3"/><path d="m32.4 78.15 1.25-.2.65-.1q3.2-.65 5.5-2.25 2.75-2 4.05-5.45l.35-1.05-.45-1.25M32.4 78.15q-2.9.25-6.4-.1" fill="none" stroke="#131306" stroke-linecap="round" stroke-linejoin="round" transform="translate(1.5 1.5)"/><path d="M16.35 36.8q-4.3-5.6-5.05-13.05 12.8 6.35 16.4-3.25 1.3-4.3-1.05-8.15-5.6-8.9-13.4-5.8l2.5-5.5 1.15-1q9.45.7 17.95 9.85 6.1 13.15-.65 23.9-5.25 6.55-17.85 3" fill="#444019" fill-rule="evenodd" transform="translate(1.5 1.5)"/><path d="m15.75 1.05-2.5 5.5q7.8-3.1 13.4 5.8Q29 16.2 27.7 20.5q-3.6 9.6-16.4 3.25.75 7.45 5.05 13.05 1.55 2.05 3.55 3.8l-2.6-.05q-4.65-4.1-7.95-9.45-7.85-17.25 6.4-30.05m.95 8.75q-1.6 0-2.75 1-1.15 1.05-1.15 2.5t1.15 2.45q1.15 1.05 2.75 1.05t3.7 2.85l.2-6.35q0-1.45-1.15-2.5-1.15-1-2.75-1" fill="#d5b537" fill-rule="evenodd" transform="translate(1.5 1.5)"/><path d="M16.7 9.8q1.6 0 2.75 1 1.15 1.05 1.15 2.5l-.2 6.35q-2.1-2.85-3.7-2.85t-2.75-1.05q-1.15-1-1.15-2.45 0-1.45 1.15-2.5 1.15-1 2.75-1" fill="#f7f16d" fill-rule="evenodd" transform="translate(1.5 1.5)"/><path d="m16.9.05-1.15 1Q1.5 13.85 9.35 31.1q3.3 5.35 7.95 9.45 1.8 1.65 3.85 3.05l3.5 1.95q4.65 2.3 9.1 2.7 2.55.2 4.75 0l-10.85-.35q-7.9-2.15-15.95-9.6-.15-1.5-1.15-3-2.95-4.2-7.95-2.65l-.05-.05-.45-1q-.8-2.75-1.25-5.3 4.2-1.55 3.9-6.65l.3-3.9Q6 8.6 9.7 3.85q-3 .35-6.5 2.55Q5.25 3.2 8.7 1q4.2-1.25 8.2-.95" fill="#fbffde" fill-rule="evenodd" transform="translate(1.5 1.5)"/><path d="M3.2 6.4q3.5-2.2 6.5-2.55Q6 8.6 5.05 15.75L0 19.2q-.15-7.7 3.2-12.8m8.5 31.9q8.05 7.45 15.95 9.6l-1.9 3.85Q16.35 49 10.05 43q1.9-2.35 1.65-4.7" fill="#ffd325" fill-rule="evenodd" transform="translate(1.5 1.5)"/><path d="m5.05 15.75-.3 3.9q.3 5.1-3.9 6.65Q.1 22.5 0 19.2l5.05-3.45M2.6 32.65q5-1.55 7.95 2.65 1 1.5 1.15 3 .25 2.35-1.65 4.7Q5.5 38.65 2.6 32.65" fill="#f9ef72" fill-rule="evenodd" transform="translate(1.5 1.5)"/><path d="M38.5 48.25q-2.2.2-4.75 0-4.45-.4-9.1-2.7 12.3 1.15 18.05-2.75 5.8-4 .1-22 5.7 11.1 5.5 22.8 2.1 10.2-6.8 10.4 4.6-4.2 5.15-8.75-3.2 2.5-8.15 3m8.15-3 1.65-1.65-1.65 1.65" fill="#fff90c" fill-rule="evenodd" transform="translate(1.5 1.5)"/><path d="M16.35 36.8q12.6 3.55 17.85-3 6.75-10.75.65-23.9 3.9 4.25 7.65 10.3l.3.6q5.7 18-.1 22-5.75 3.9-18.05 2.75l-3.5-1.95q-2.05-1.4-3.85-3.05l2.6.05q-2-1.75-3.55-3.8" fill="#22220c" fill-rule="evenodd" transform="translate(1.5 1.5)"/><path d="m27.65 47.9 10.85.35q4.95-.5 8.15-3Q46.1 49.8 41.5 54h-.8q-8.25-.3-14.95-2.25l1.9-3.85" fill="#815700" fill-rule="evenodd" transform="translate(1.5 1.5)"/><path d="m16.9.05-1.15 1Q1.5 13.85 9.35 31.1q3.3 5.35 7.95 9.45 1.8 1.65 3.85 3.05l3.5 1.95q4.65 2.3 9.1 2.7 2.55.2 4.75 0 4.95-.5 8.15-3l1.65-1.65" fill="none" stroke="#131306" stroke-linecap="round" stroke-linejoin="round" transform="translate(1.5 1.5)"/><path d="M36.35 11.4q-8.5-9.15-17.95-9.85-4-.3-8.2.95-3.45 2.2-5.5 5.4Q1.35 13 1.5 20.7q.1 3.3.85 7.1.45 2.55 1.25 5.3l.45 1M44.3 22.3l-.3-.6q-3.75-6.05-7.65-10.3m-9.1 41.85q6.7 1.95 14.95 2.25h.8q8.9-.2 6.8-10.4.2-11.7-5.5-22.8M11.55 44.5q6.3 6 15.7 8.75m-15.7-8.75Q7 40.15 4.1 34.15" fill="none" stroke="#131306" stroke-linecap="round" stroke-linejoin="round" stroke-width="3"/></g><g id="t"><path d="m18.15 37.95 5.75-4.6 12.3 36.1-18.3.9q-.65-2.5 2.55-6.25 1.45-1.65 2.35-4.05 2.65-9.85-4.65-22.1" fill="#444019" fill-rule="evenodd" transform="translate(1.5 1.5)"/><path d="M19.65 39.45q7.3 12.25 4.65 22.1-.9 2.4-2.35 4.05-3.2 3.75-2.55 6.25l18.3-.9-12.3-36.1-5.75 4.6z" fill="none" stroke="#131306" stroke-linecap="round" stroke-linejoin="round" stroke-width="3"/><path d="M25.35 49.8q-.65-1-.85-2.25l1.85-.25-1 2.5" fill="#b7c482" fill-rule="evenodd" transform="translate(1.5 1.5)"/><path d="m25 45.1-1.7-1.25q.4-3.55-.45-8.85l12.6-4L49.2 47.1q-.75 5.95-2.7 10.55-3.85-5.75-9.35-7.55-1.45-.35-2.8-1.35-3.95-3.4-8-1.45l.35-.95L25 45.1l1.7 1.25-.35.95-1.85.25q-.05-1.2.5-2.45" fill="#782e51" fill-rule="evenodd" transform="translate(1.5 1.5)"/><path d="M26.35 47.3q4.05-1.95 8 1.45 1.35 1 2.8 1.35 5.5 1.8 9.35 7.55-1.45 3.4-3.55 6.1-.3-7.95-9.25-9.35-1.5-.1-1.6-1-.65-2.95-6.75-3.6l1-2.5m.65 9.35q-3.75-2.2-2.9-3.75.9 1.05 6.15 1.5 2.3.5 2 2.45-.55 1.4-3.95.5l-1.3-.7" fill="#b15083" fill-rule="evenodd" transform="translate(1.5 1.5)"/><path d="M42.95 63.75q-1.8 2.15-4 3.85-4.7 2.95-7.55 2.3L27 56.65l1.3.7q3.4.9 3.95-.5.3-1.95-2-2.45-5.25-.45-6.15-1.5l1.25-3.1q6.1.65 6.75 3.6.1.9 1.6 1 8.95 1.4 9.25 9.35" fill="#d9a7c2" fill-rule="evenodd" transform="translate(1.5 1.5)"/><path d="M46.5 57.65q1.95-4.6 2.7-10.55L35.45 31l-12.6 4q.85 5.3.45 8.85L25 45.1l1.7 1.25-.35.95-1 2.5q-.65-1-.85-2.25-.05-1.2.5-2.45m21.5 12.55q-1.45 3.4-3.55 6.1-1.8 2.15-4 3.85-4.7 2.95-7.55 2.3L27 56.65q-3.75-2.2-2.9-3.75l1.25-3.1m-.85-2.25 1.85-.25m1.95 10.05-1.3-.7" fill="none" stroke="#311323" stroke-linecap="round" stroke-linejoin="round" transform="translate(1.5 1.5)"/><path d="m29.15 42.65-.95 1.9q-.95.8-.75-.15 1.6-3.55 3.55-5.45 1.7-1.25 4.55-.3-3.15-.7-4.65 1.15-1.3 1.6-1.75 2.85" fill="#371d16" fill-rule="evenodd" transform="translate(1.5 1.5)"/><path d="M33.3 45.5 39 45l-3.25 3.25q-.45-2.4-2.45-2.75" fill="#465507" fill-rule="evenodd" transform="translate(1.5 1.5)"/><path d="M29.95 46.55q1.35-.65 3.35-1.05 2 .35 2.45 2.75-1.4 1-2.5 1.2-1.65.15-3.3-2.9m2.1-.15-.2.55.2.5.55.25.5-.25.25-.5-.25-.55-.5-.2-.55.2" fill="#b4bf7e" fill-rule="evenodd" transform="translate(1.5 1.5)"/><path d="m32.05 46.4.55-.2.5.2.25.55-.25.5-.5.25-.55-.25-.2-.5.2-.55" fill="#fbffdf" fill-rule="evenodd" transform="translate(1.5 1.5)"/><path d="M33.3 45.5 39 45h1.6m-11.2 1.8.55-.25q1.35-.65 3.35-1.05m2.45 2.75L39 45m-9.05 1.55q1.65 3.05 3.3 2.9 1.1-.2 2.5-1.2" fill="none" stroke="#311323" stroke-linecap="round" stroke-linejoin="round" transform="translate(1.5 1.5)"/><path d="m31.45 26.7.4.05q7.85 1.35 16.75 13.3 2.75 3.35 4.5 6.7 2.5 7.15-3.2 15l-.8.95q5.55-8.6 3.6-15.25-2.1-3.95-5.9-8.2-6.75-8.2-12.75-11.25.95 1.6.45 4.35 6.95 3.55 10.6 10.4 2.6-2.95 4.9 1.7l.85 2.05q.45 4.15-.15 7.3-2.05.5-4.05-1.3-.3-4.05-2.45-6.6-2.95-6-9.6-10.85-.95-.65-2.3-.75-.3-.95-1.3-1 .85-5.85-5.15-4.45l-2.2 1-3 .95-1.95.25-.05-.05 2.65-1.1 6.2-3.05 3.95-.15" fill="#ffd326" fill-rule="evenodd" transform="translate(1.5 1.5)"/><path d="M52.45 70.45q13.6-15.15-5.75-38.8-6.45-8.6-14.7-12.1-12.85-5.7-21.4-16.3l3.3.3q8.75 2.95 16.5 7.5 25.8 21.2 33.2 38.6Q66.05 55.9 65 61.4l-1.5 1.55-3.65 3q-3.35 2.5-7.4 4.5" fill="#22220c" fill-rule="evenodd" transform="translate(1.5 1.5)"/><path d="M65 61.4q1.05-5.5-1.4-11.75-7.4-17.4-33.2-38.6 24.4 14.35 39 44.7l.7-1.15q1.55 2.1 2.65 5.1-6.05 8.2-15.4 13.3l5.25-4.45q-.3-.45 2.65-3.25l3.55-3.35-1.55-3.15L65 61.4m2.25-2.6 2.15-3.05-2.15 3.05" fill="#fff90c" fill-rule="evenodd" transform="translate(1.5 1.5)"/><path d="m50.4 71.4 2.05-.95q4.05-2 7.4-4.5l-1.55 2.3 1.2 1.7-6 3.5q-1.15-1.75-3.1-2.05m13.1-8.45L65 61.4l2.25-2.6 1.55 3.15-3.55 3.35q-1.4-.75-1.75-2.35m-31.6 4.2q2.5-.9 4.7-2.2l1.9-1.2q2.2-.55 4.15-2l3.1.25q-3 3.2-7.05 5.95-1.45.15-1.7-.9l-6.5 2.4q-.5 2.35-6.6 2.8.85-1.65 1.7-2.1l.5-.2q3.6-1.05 5.8-2.8" fill="#ffd325" fill-rule="evenodd" transform="translate(1.5 1.5)"/><path d="m49.1 62.7-.1.1-1 1q-7.7 7.55-19.65 8.95l-6.1.35-3.85-.15-.9-.1v-.6q3.7.2 6.4 0 6.1-.45 6.6-2.8l6.5-2.4q.25 1.05 1.7.9 3.4-1.25 10.3-7.9 4.5-5.75 1.85-13.55L50 44.45q-2.3-4.65-4.9-1.7-3.65-6.85-10.6-10.4.5-2.75-.45-4.35 6 3.05 12.75 11.25 3.8 4.25 5.9 8.2 1.95 6.65-3.6 15.25m-.2 9.3 1.5-.6q1.95.3 3.1 2.05l6-3.5-1.2-1.7 1.55-2.3 3.65-3q.35 1.6 1.75 2.35-2.95 2.8-2.65 3.25L57.35 73q-12 6.55-29.5 7.95 4.05-1.65 6.7-2.25 2.65-.6 3-2.25Q44.2 74.8 48.9 72" fill="#815700" fill-rule="evenodd" transform="translate(1.5 1.5)"/><path d="m23.65 29.85 2.2-1q6-1.4 5.15 4.45-7.05.6-7.35-3.45m23 22.65q2 1.8 4.05 1.3-.45 2.25-1.5 3.95-.95-2.4-2.6-2l.05-3.25m-26-21.7q1.45 3.45.65 4.65-1.05 1.5-3.65 2.75l-.6-1.7q2.2-.7 2.5-1.45.35-1.8-.85-4l1.95-.25M17.5 72.25v-2.6q2.25 2.55 4.1 1 1.85-2.35 4-.5-.85.45-1.7 2.1-2.7.2-6.4 0m2.65 6.35 7.7-.5v2.85l-8.05.4.35-2.75m22.5-16.85 2.65-2.6q.5.9 2 1.1L45.75 62l-3.1-.25" fill="#f9ef72" fill-rule="evenodd" transform="translate(1.5 1.5)"/><path d="M23.65 29.85q.3 4.05 7.35 3.45 1 .05 1.3 1-4.7-.55-14.1 4.85l-.55-.95q2.6-1.25 3.65-2.75.8-1.2-.65-4.65l3-.95M44.2 45.9q2.15 2.55 2.45 6.6l-.05 3.25q1.65-.4 2.6 2 1.05-1.7 1.5-3.95.6-3.15.15-7.3Q53.5 54.3 49 60.05q-6.9 6.65-10.3 7.9 4.05-2.75 7.05-5.95l1.55-1.75q-1.5-.2-2-1.1l-2.65 2.6q-1.95 1.45-4.15 2 8.6-5.9 7.4-13.2-.6-2.4-1.7-4.65M17.5 69.65v-.5q8.15.2 14.4-2-2.2 1.75-5.8 2.8l-.5.2q-2.15-1.85-4 .5-1.85 1.55-4.1-1" fill="#f6f9d8" fill-rule="evenodd" transform="translate(1.5 1.5)"/><path d="m18.25 31.15.4-.15.05.05q1.2 2.2.85 4-.3.75-2.5 1.45-.5-2-.45-4.85l1.65-.5" fill="#fbcd24" fill-rule="evenodd" transform="translate(1.5 1.5)"/><path d="M12.1 12.95q.15-2.4 5.5 4.4 3.75 3.95 7.8 5.2 3.05 1.1 6.05 4.15l-3.95.15-6.2 3.05q1.05-1.45.2-3.45-1.3-2.85-5.5-3.9-1.7-5.4-3.9-9.6M48 63.8q-3.5 7.6-10.7 11.75l-11.6 1.9q-.35-2.55 2.65-4.7Q40.3 71.35 48 63.8m-29.6 9.15 3.85.15q-.75 2.55.8 4.6l-4.65.3q-.75-2.5 0-5.05" fill="#d5b537" fill-rule="evenodd" transform="translate(1.5 1.5)"/><path d="M16 22.55q4.2 1.05 5.5 3.9.85 2-.2 3.45L18.65 31l-.4.15-2.25-8.6m6.25 50.55 6.1-.35q-3 2.15-2.65 4.7l-2.65.25q-1.55-2.05-.8-4.6" fill="#f7f16d" fill-rule="evenodd" transform="translate(1.5 1.5)"/><path d="m13.9 3.55-3.3-.3q8.55 10.6 21.4 16.3 8.25 3.5 14.7 12.1 19.35 23.65 5.75 38.8l-2.05.95-1.5.6q-5.3 2.15-11.6 3.55Q44.5 71.4 48 63.8l1-1 .1-.1.8-.95q5.7-7.85 3.2-15-1.75-3.35-4.5-6.7-8.9-11.95-16.75-13.3l-.4-.05q-3-3.05-6.05-4.15-4.05-1.25-7.8-5.2-5.35-6.8-5.5-4.4Q7.3 3.8 0 0q7.2 1.3 13.9 3.55" fill="#444019" fill-rule="evenodd" transform="translate(1.5 1.5)"/><path d="M37.3 75.55q6.3-1.4 11.6-3.55-4.7 2.8-11.35 4.45l-9.7 1.65-7.7.5-2.65.05v-.6l.9-.05 4.65-.3 2.65-.25 11.6-1.9" fill="#fafac5" fill-rule="evenodd" transform="translate(1.5 1.5)"/><path d="m17.5 78.65 2.65-.05-.35 2.75h-2.3v-2.7m10.35-.55 9.7-1.65q-.35 1.65-3 2.25-2.65.6-6.7 2.25V78.1" fill="#ffd324" fill-rule="evenodd" transform="translate(1.5 1.5)"/><path d="m31.45 26.7.4.05q7.85 1.35 16.75 13.3 2.75 3.35 4.5 6.7 2.5 7.15-3.2 15l-.8.95-.1.1-1 1q-7.7 7.55-19.65 8.95l-6.1.35-3.85-.15m18.9 2.6q6.3-1.4 11.6-3.55l1.5-.6 2.05-.95q4.05-2 7.4-4.5l3.65-3L65 61.4l2.25-2.6 2.15-3.05M18.65 31l2.65-1.1 6.2-3.05 3.95-.15m-8.4 51 2.65-.25 11.6-1.9M18.4 78l4.65-.3" fill="none" stroke="#131306" stroke-linecap="round" stroke-linejoin="round" transform="translate(1.5 1.5)"/><path d="M15.4 5.05Q8.7 2.8 1.5 1.5q7.3 3.8 12.1 12.95 2.2 4.2 3.9 9.6l2.25 8.6.4-.15M31.9 12.55Q24.15 8 15.4 5.05M33.8 35.8q1.35.1 2.3.75 6.65 4.85 9.6 10.85 1.1 2.25 1.7 4.65 1.2 7.3-7.4 13.2l-1.9 1.2q-2.2 1.3-4.7 2.2-6.25 2.2-14.4 2v3.7l.9.1q-.75 2.55 0 5.05l-.9.05v3.3h2.3l8.05-.4q17.5-1.4 29.5-7.95 9.35-5.1 15.4-13.3-1.1-3-2.65-5.1l-.7 1.15q-14.6-30.35-39-44.7M18.55 38l.6 1.7.55.95q9.4-5.4 14.1-4.85M18.55 38q-.5-2-.45-4.85l1.65-.5" fill="none" stroke="#131306" stroke-linecap="round" stroke-linejoin="round" stroke-width="3"/></g><use ffdec:characterId="10" height="90" width="90" xlink:href="#w" id="b"/><use ffdec:characterId="9" height="90" width="90" xlink:href="#x" id="w"/><use ffdec:characterId="8" height="90" width="90" xlink:href="#y" id="x"/><use ffdec:characterId="7" height="90" width="90" xlink:href="#z" id="y"/><use ffdec:characterId="6" height="90" width="90" xlink:href="#A" id="z"/><use ffdec:characterId="5" height="90" width="90" xlink:href="#B" id="A"/><use ffdec:characterId="4" height="90" width="90" xlink:href="#C" id="B"/><use ffdec:characterId="3" height="90" width="90" xlink:href="#D" id="C"/><use ffdec:characterId="2" height="62.45" transform="scale(1.4411)" width="62.45" xlink:href="#E" id="D"/><use ffdec:characterId="1" height="62.45" width="62.45" xlink:href="#F" id="E"/><linearGradient gradientTransform="matrix(0 -.0521 .0726 0 152.65 150.7)" gradientUnits="userSpaceOnUse" id="u" spreadMethod="pad" x1="-819.2" x2="819.2"><stop offset="0" stop-color="#600"/><stop offset="1" stop-color="#ef4218"/></linearGradient><linearGradient gradientTransform="matrix(0 .0419 -.039 0 142.55 144.8)" gradientUnits="userSpaceOnUse" id="v" spreadMethod="pad" x1="-819.2" x2="819.2"><stop offset="0" stop-color="#fff" stop-opacity=".851"/><stop offset="1" stop-color="#fff" stop-opacity=".102"/></linearGradient><path d="M0 62.45V0h62.45v62.45H0" fill="#bcbebd" fill-opacity="0" fill-rule="evenodd" id="F"/><path d="M196.7 51.1q-33.75 8.8-81.45 8.8t-81.5-8.8Q0 42.35 0 29.95q0-12.4 33.75-21.2Q67.55 0 115.25 0t81.45 8.75q33.8 8.8 33.8 21.2 0 12.4-33.8 21.15" fill-opacity=".349" fill-rule="evenodd" id="d"/></defs></svg>