<svg xmlns:ffdec="https://www.free-decompiler.com/flash" xmlns:xlink="http://www.w3.org/1999/xlink" ffdec:objectType="frame" height="90" width="90" xmlns="http://www.w3.org/2000/svg"><use ffdec:characterId="32" height="231.95" transform="translate(.507 7.274) scale(.3497)" width="251" xlink:href="#a"/><defs><g id="a" transform="translate(-1.45 -20.8)"><use ffdec:characterId="1" height="9.8" transform="matrix(2.7057 0 0 5.0976 46.016 202.772)" width="55.5" xlink:href="#b"/><use ffdec:characterId="3" height="117.5" transform="translate(76.567 26) scale(.9442)" width="43.1" xlink:href="#c"/><use ffdec:characterId="5" height="70.55" transform="translate(5.4 111.95) scale(.9442)" width="93.45" xlink:href="#d"/><use ffdec:characterId="10" height="62.45" transform="translate(133.406 126.987) scale(.9442)" width="126.05" xlink:href="#e"/><use ffdec:characterId="12" height="95.85" transform="translate(107.6 62.4) scale(.9442)" width="83.5" xlink:href="#f"/><use ffdec:characterId="14" height="103.95" transform="translate(120.25 140.85) scale(.9442)" width="76.9" xlink:href="#g"/><use ffdec:characterId="16" height="49.4" transform="translate(46 173.5) scale(.9442)" width="71.4" xlink:href="#h"/><use ffdec:characterId="20" height="56.15" transform="translate(52.45 140.7) scale(.9442)" width="67.6" xlink:href="#i"/><use ffdec:characterId="22" height="87.95" transform="translate(92.55 87.95) scale(.9442)" width="55.5" xlink:href="#j"/><use ffdec:characterId="26" height="84.55" transform="translate(58.5 43.6) scale(.9442)" width="103" xlink:href="#k"/><use ffdec:characterId="31" height="171.7" transform="translate(126.45 20.9) scale(1.0853)" width="72.65" xlink:href="#l"/></g><g id="q" fill-rule="evenodd"><path d="M10.3 36.4q5-20.9 18.75-33.25V7.9L38.6 0 37 9.6l4-3-5.5 26.5-2.8-2.1-4.75 20.7-1.4.65 5.5-22.7-3.45-3.3-4.75 27.15-.95.4q.2-5.35.95-10.85V43q1.35-9.55 4.4-19.45l2.6 4.2L36 5.7l.6-2.75-7.8 6.9-2 12.6-1.1 6.7-2.75-3-.85-1-3.65 27.05-.8-2 3.6-27.3 3.25 3 3.1-18.95Q15.55 18.2 10.8 42.1l-.5-5.7m24.5-19.3-2.75 12.55 2.7 1.2L38.1 14.1l.85-4.15-3.55 4.3-.6 2.85" fill="#51487d" transform="translate(2.1)"/><path d="M10.8 42.1q4.75-23.9 16.8-35.15-8.85 15.35-12.35 32.5L14.2 41.8l-1-2.3-2.05 6.4-.35-3.8m16-19.65 2-12.6 7.8-6.9L36 5.7l-9.2 16.75m8-5.35.6-2.85 3.55-4.3-.85 4.15-3.3 3M11.85 47.6l1.35-4.75.85 2.05-2.4 23.95-1.5-4.4 1.7-16.85m-4.8 10.95-1.3-3.75v-9.15L8 53.45l.35 1.15-1.3 3.95m4.75 38.5 2.8 9.25-1.3 1.65-1.5-10.9" fill="#fff" transform="translate(2.1)"/><path d="M27.6 6.95 24.5 25.9l-3.25-3-3.6 27.3-.65-1.6.6-14.4-2.35 5.25q3.5-17.15 12.35-32.5m-4.65 19.2 2.75 3 1.1-6.7L36 5.7l-5.15 22.05-2.6-4.2q-3.05 9.9-4.4 19.45l-.9-16.85m9.1 3.5L34.8 17.1l3.3-3-3.35 16.75-2.7-1.2" fill="#bbafd7" transform="translate(2.1)"/><path d="m18.45 52.2 3.65-27.05.85 1 .9 16.85v.05q-.75 5.5-.95 10.85l-3.15 1.35-1.3-3.05m5.4 1.3 4.75-27.15 3.45 3.3-5.5 22.7-2.7 1.15m-8.8-9.55 1.35-4.05.1 7.5-1.45-3.45M4.7 69.25l-1.35-.2 1.4-5-.05 5.2" fill="#8281a4" transform="translate(2.1)"/><path d="m22.9 53.9.95-.4 2.7-1.15 1.4-.65 5.15 3.2-6.15 35.6-11.15 14.25q-2.1-12.4-11.9-22l1.85-12.4v-.9l4.4.7q1.55 4.2 3.55 7.2l6.05-22.1 3.15-1.35M11.65 68.85l2.4-23.95 4.1 10.35-5 18-1.5-4.4" fill="#ff8e01" transform="translate(2.1)"/><path d="m17.65 50.2.8 2 1.3 3.05-6.05 22.1q-2-3-3.55-7.2-1.85-4.95-3.1-11.6l1.3-3.95 1.8-5.6 1-3.1 2.05-6.4 1 2.3.85 2.15 1.45 3.45.5 1.2.65 1.6m9.3 40.3-.4 2.15-13.9 17.6L10.5 97.1 0 84.45l1.55-13.5.65-2.1 1.15.2-1.6 15.5 9.9 11.55.15.95 1.5 10.9 1.3-1.65 1.2-1.55L26.95 90.5m-12.9-45.6-.85-2.05-1.35 4.75-3.4 11.75 1.7 5.1 1.5 4.4 1.5 4.4 5-18-4.1-10.35" fill="#cc6004" transform="translate(2.1)"/><path d="m10.3 36.4.5 5.7.35 3.8-1 3.1-.65-7.55-1.5 12-2.25-7.8v23.8l-1.05-.2.05-5.2-1.4 5-1.15-.2 2.45-8.1v-21.7l2.6 7.2 2.8-12.45.25 2.6m6.2 11-.1-7.5-1.35 4.05-.85-2.15 1.05-2.35 2.35-5.25-.6 14.4-.5-1.2" fill="#2f2858" transform="translate(2.1)"/><path d="m8 53.45 1.5-12 .65 7.55-1.8 5.6L8 53.45M5.75 54.8l1.3 3.75q1.25 6.65 3.1 11.6l-4.4-.7V54.8" fill="#62d4fe" transform="translate(2.1)"/><path d="m11.85 47.6-1.7 16.85-1.7-5.1 3.4-11.75m-8.5 21.45 1.35.2 1.05.2v.9L3.9 82.75q9.8 9.6 11.9 22l-1.2 1.55-2.8-9.25-.15-.95-9.9-11.55 1.6-15.5" fill="#fef10f" transform="translate(2.1)"/><path d="M17.2 81 4.85 96.95q-.25 4.5-2.05 7.3-.8 1.35-4.45 3.8l-.35.2.75-.65 1.7-2.15 1.9-2.85v-7.65l13.2-15.7L17.2 81" fill="#b9ed8e" transform="translate(2.1)"/><path d="m15.55 79.25-13.2 15.7v7.65l-1.9 2.85-1.7 2.15-.75.65 2.35-3.85V94.3L14.2 77.9l1.35 1.35m14.75 15.1 1.45 1.45-19.25 18.7q-3 3.45-4.25 2.9L30.3 94.35" fill="#38654a" transform="translate(2.1)"/><path d="M2.8 104.25q1.8-2.8 2.05-7.3L17.2 81l5.05 5.1q-12.1 19.6-19.45 18.15" fill="#97c273" transform="translate(2.1)"/><path d="M26.25 90.2 29 93q-10.95 13.25-24.1 23.65-.75.35-2.85-.95 14.3-12.3 24.2-25.5" fill="#4c8965" transform="translate(2.1)"/><path d="m29 93 1.3 1.35L8.25 117.4l-3.35-.75Q18.05 106.25 29 93" fill="#f8bbbb" transform="translate(2.1)"/><path d="m-2 108.25.35-.2q3.65-2.45 4.45-3.8 7.35 1.45 19.45-18.15l4 4.1q-9.9 13.2-24.2 25.5-4.25-1.65-4.15-4.5l.1-2.95" fill="#69a975" transform="translate(2.1)"/></g><g id="r" fill-rule="evenodd"><path d="m75.35 35.8-1.1 2.35Q68.9 48.4 56.4 57.85 40.15 68.5 22.7 70.55l7.1-9.15q-7.85 4.05-15.95 4.5l5.1-7.1-7.9 4.2 2.05-4.85-9.05 5.05 4.55-9.7L0 57.05Q16.9 27.8 55.55 12.5l1.85-5.05L68.7 0l-1.65 6.05 9.5-3.75-2.75 6.3-1.2.15 1.25-3.9-7.1 3.35-.75 4.1-.35 1.8-3.05 3.25-1.25-.25 2.4-3.1 1.6-7.35.75-3.6-7 5.05-2.25 5.15q-32.9 11.6-53.3 40.95l5.2-2.35 5.15-2.35 4.95-2.3-2.3-1.4q10.9-15.1 36.55-21.35l-.3 2.3-3.7 6.3 2.15 1.2L53.6 31l5.6-3.35 2.6-1.55 1.1-.15 11.05-1.9q-2.7 4.65-6.8 8.65l-.75.7-.95.9-2.6 2.1 3.4-1.25 1.05-.4 9.75-3.6-.85 2.5-.85 2.15M16.5 58.3l2.65-1.35 2.5-1.25 3.1-2.95q5.85-8.2 16.7-12.2 3-1.1 6.35-1.9l2.9-3.2-2.6-1.65q-9.9 3.25-18.25 8.85-4.9 3.3-9.3 7.35l3.1 1.5-2.6 1.4-2.85 1.55L15.3 56 14 59.55l2.5-1.25m2.2-7.9 2.9-3.1-5.15 2.35L11.3 52l-4 7.25 4.1-2.3 4.8-2.8 4.15-2.35-1.65-1.4m45.35-23.55-10.55 6.2q-9.15 15.1-25.5 22.2v-4.2L16.65 64.4l1.15-.25q3.9-.9 7.95-2.55Q43.2 54.65 63.5 34.55l8.1-8.9-3.75.6-3.8.6M29.15 53.3q10.85-5.1 18-13.45-7.95 1.8-17.05 8.7l-.95 4.75m.65 14.75q6.1-1.5 11.55-3.8 21.35-9.1 33.6-30.85l-7.35 2.7-1.85.65-2.8 1.05-5.7 4.2Q53.1 51.9 35.4 62.35l-1.85 1.1v-3.8l-7.4 9.2 3.65-.8m4.85-6.65q17.05-9.7 20.8-18.05-9.9 8.9-20.8 15.35v2.7m-10.6-21.7q-2.95 2.5-5.65 5.35l4.3.95q12-8.15 25.1-13.45l.5-.8 3.25-5.8q-15.65 3.7-27.5 13.75" fill="#51487d"/><path d="m92.45 20.95.85-.85q.6 6.2-1.55 10.7L80.2 34.6l-5.95 3.55 1.1-2.35 6.05-3.05 9.55-3.2 1.5-8.6M73.8 8.6l3.95-.5v1.5l-3.45.25-3.45.2-2.4 6.2-7.8 6.05-.45-1.4 2.6-1.95 1.6-1.2 2.65-2 2.8-6.6 2.75-.4 1.2-.15m3.8 6.15.25-.35.2 1.2q.85 4.1 4.55 6.1 1.3.65 2.95 1.1l2.05.4 2.3.25Q76.75 26 77.6 14.75" fill="#302958"/><path d="M8.75 51.85q7.7-14.3 25.55-24.45-16.05 11.5-20.4 22.1l-5.15 2.35m48.05-34.3q.7-7.05 9.3-14.5l-.75 3.6q-4.6 3.45-5.3 10.15l-3.3 2.35.05-1.6m5.8-.2 3.05-3.25.35-1.8 7.85-7.45-1.25 3.9-2.75.4-2.8 6.6-2.65 2-1.8-.4M16.5 58.3l1.7-3.85 2.85-1.55-1.9 4.05-2.65 1.35m2.2-7.9-2.5 3.75-4.8 2.8 5.05-7.3 5.15-2.35-2.9 3.1m45.35-23.55 3.8-.6Q58.6 37.8 44.9 46.5q-5.2 6.75-16.6 11.45l-2.55 3.65q-4.05 1.65-7.95 2.55l7.5-7.8q6.45.6 20.7-11.4 4.7-4 10.2-9.3l7.85-8.8m-34.2 15.8q8.35-5.6 18.25-8.85l2.6 1.65-2.9 3.2q-3.35.8-6.35 1.9-4.1-.8-11.6 2.1m-.05 25.4 3.75-4.6 1.85-1.1Q57 54.7 65.75 36.75l1.85-.65Q66 47.85 43.8 60.75l-2.45 3.5q-5.45 2.3-11.55 3.8M24.05 39.7q11.85-10.05 27.5-13.75l-3.25 5.8q-10.65.35-24.25 7.95" fill="#8281a4"/><path d="m34.3 27.4.05-.05q9.75-5.55 22.45-9.8l-.05 1.6-3.25 2.4-.4 2.9Q27.45 30.7 16.55 45.8l2.3 1.4-4.95 2.3q4.35-10.6 20.4-22.1M65.35 6.65 63.75 14l-2.4 3.1-1.3-.3q.7-6.7 5.3-10.15M66 12.3l.75-4.1 7.1-3.35L66 12.3M19.15 56.95l1.9-4.05 2.6-1.4-3.1-1.5q4.4-4.05 9.3-7.35 7.5-2.9 11.6-2.1-10.85 4-16.7 12.2l-3.1 2.95-2.5 1.25m-2.95-2.8 2.5-3.75 1.65 1.4-4.15 2.35m51.65-27.9 3.75-.6-8.1 8.9Q43.2 54.65 25.75 61.6l2.55-3.65q11.4-4.7 16.6-11.45 13.7-8.7 22.95-20.25m-26.5 38 2.45-3.5Q66 47.85 67.6 36.1l7.35-2.7Q62.7 55.15 41.35 64.25m6.95-32.5-.5.8Q34.7 37.85 22.7 46l-4.3-.95q2.7-2.85 5.65-5.35 13.6-7.6 24.25-7.95" fill="#bbafd7"/><path d="m61.35 17.1 1.25.25 1.8.4-1.6 1.2-2.55-.85-1.35 1-4.1 3.1-.95 7.15L53.6 31l-1.5.9.3-2 .4-3.15.3-2.3.4-2.9 3.25-2.4 3.3-2.35 1.3.3m-1.15 3.8.45 1.4 1.15 3.8-2.6 1.55 1-6.75m6.2 12.5.9 1.35-1.05.4-.8-.85.95-.9" fill="#cc6004"/><path d="m62.8 18.95-2.6 1.95-1 6.75L53.6 31l.25-1.65 3.75-2.2 1.3-8.05 1.35-1 2.55.85m3.45 16.2-3.4 1.25 2.6-2.1.8.85" fill="#ff8e01"/><path d="m60.65 22.3 7.8-6.05 2.4-6.2 3.45-.2q-.3 5.6 1.1 9.9-2.65-1.65-3.15-6.7-1.35 9.6-9.35 12.9l-1.1.15-1.15-3.8m-7.85 4.45-.4 3.15-3.3 3.15 3.7-6.3" fill="#938dde"/><path d="m8.75 51.85-5.2 2.35q20.4-29.35 53.3-40.95L59.1 8.1l7-5.05q-8.6 7.45-9.3 14.5-12.7 4.25-22.45 9.8l-.05.05Q16.45 37.55 8.75 51.85m9.45 2.6-1.7 3.85-2.5 1.25L15.3 56l2.9-1.55m-1.75-4.8-5.05 7.3-4.1 2.3 4-7.25 5.15-2.35m1.35 14.5-1.15.25L28 51.05v4.2q16.35-7.1 25.5-22.2l10.55-6.2-7.85 8.8q-5.5 5.3-10.2 9.3-14.25 12-20.7 11.4l-7.5 7.8m15.75-.7-3.75 4.6-3.65.8 7.4-9.2v3.8m32.2-26.7Q57 54.7 35.4 62.35 53.1 51.9 57.25 42l5.7-4.2 2.8-1.05" fill="#fff"/><path d="M77.75 9.6v3.75l-.15 1.4q-.85 11.25 12.3 8.7v5.35l-13.7 4.85.85-2.5-9.75 3.6-.9-1.35.75-.7q5.5-1.85 8.65-7.15l4.85 2.35q-3.7-3.25-5.25-8.15-1.4-4.3-1.1-9.9l3.45-.25" fill="#3f3479"/><path d="m92.45 20.95-1.5 8.6-9.55 3.2-6.05 3.05.85-2.15 13.7-4.85v-5.35l2.55-2.5" fill="#f8bbbb"/><path d="M62.9 25.95q8-3.3 9.35-12.9.5 5.05 3.15 6.7 1.55 4.9 5.25 8.15l-4.85-2.35q-3.15 5.3-8.65 7.15 4.1-4 6.8-8.65l-11.05 1.9M52.4 29.9l-.3 2 1.5-.9-2.35 3.25-2.15-1.2 3.3-3.15" fill="#6660a3"/><path d="m53.85 29.35.95-7.15 4.1-3.1-1.3 8.05-3.75 2.2" fill="#fef10f"/></g><g id="s" fill-rule="evenodd"><path d="m94.85-7.85-2.7-1.9q16.55-14.85 33.8-2l-1.2 1.55q-6.6.05-12.95 1.45l1-2.25-7.95 1.95.5 1.5-1.7-.4-.4-1.9q6.2-1.55 12.5-2.5l-1.55 1.95q4.65-1 9.55-1-2-1.5-4.1-2.55-12.15-5.75-24.7 3.75l1.95 2.1-2.05.25m8.95 2.9 8.3.4-.2-1.25 1.25-1.45q4.1.85 8.45 2.35-11.35 11.8-29.45 7.65l1.4-2.4 2.2-1.4-1.6 2.85q9.8 3.1 19.15-2.25 2.9-1.5 5.7-3.65l-5.35-1.65.4 2.4q-6.35 1.1-11.6-1.15l1.35-.45" fill="#302958" transform="translate(-.25 17.7)"/><path d="M119.65-13.95q2.1 1.05 4.1 2.55-4.9 0-9.55 1l1.55-1.95q-6.3.95-12.5 2.5l.4 1.9-5-.3q7.25-8.5 21-5.7m-17.2 9.45q5.25 2.25 11.6 1.15l-.4-2.4L119-4.1q-2.8 2.15-5.7 3.65-7.8 1.8-15.4.65l.75-2.9q2-1.1 3.8-1.8" fill="#3f3479" transform="translate(-.25 17.7)"/><path d="m94.85-7.85 2.05-.25 1.75-.15 5 .3 1.7.4q1.75.3 3.25 1.1-2.35.45-4.8 1.5l-1.35.45q-1.8.7-3.8 1.8l-2.9 1.65-2.2 1.4Q84 6.7 72.85 15.9 42.1 28.6 6.3 15.1q-2.8-2.3-4.2-4.35 34 16.4 65.4 5.3l25.35-17.4.05-.05 5-2.85L101.5-6q-12.05-.45-36.6 8.6-15.65 5.05-30.65 4.9-16.4-.2-31.7-6.65l1.4-1.3q11.15 4.7 21.9 6.1Q40.55 7.55 54 3.4L94.85-7.85" fill="#38654a" transform="translate(-.25 17.7)"/><path d="m96.9-8.1-1.95-2.1q12.55-9.5 24.7-3.75-13.75-2.8-21 5.7l-1.75.15m16.4 7.65Q103.95 4.9 94.15 1.8l1.6-2.85 2.9-1.65L97.9.2q7.6 1.15 15.4-.65" fill="#6660a3" transform="translate(-.25 17.7)"/><path d="M2.1 10.75Q0 7.9.3 5.35q27.25 13.9 49.5 10.2Q81.2 1.1 97.9-4.25l-5 2.85-.05.05q-9.9 5.85-32 17.4-21.15 8-58.75-5.3" fill="#4c8965" transform="translate(-.25 17.7)"/><path d="M34.25 7.5q15 .15 30.65-4.9Q89.45-6.45 101.5-6l-3.6 1.75q-12.2.85-35.8 10.7-16.35 2.7-27.85 1.05" fill="#97c273" transform="translate(-.25 17.7)"/><path d="M.3 5.35Q.5 2.9 2.55.85q15.3 6.45 31.7 6.65 11.5 1.65 27.85-1.05Q85.7-3.4 97.9-4.25 81.2 1.1 49.8 15.55 27.55 19.25.3 5.35" fill="#69a975" transform="translate(-.25 17.7)"/><path d="M92.85-1.35 67.5 16.05q-31.4 11.1-65.4-5.3 37.6 13.3 58.75 5.3 22.1-11.55 32-17.4" fill="#f8bbbb" transform="translate(-.25 17.7)"/></g><g id="t" fill-rule="evenodd"><path d="M22 42.5q10.5 10.9 12.7 20.75 1.5 6.55-.6 12.65l2.25-1.95.95-.95q2.75-2.8 4.95-6.4-4.1 13.9-3.2 21.65l12.9-9.7L62.6 92.3q12.7-13.6 8.7-33.5-1.65-8.3-6.25-17.75h14.9l-4.5-4.3-8.35-8q-2.05-9.7-5.9-15.85-8.75-14.15-26.9-9.85l.7-2.3q23.05-4.85 31.7 21.1 5.55 12.5 16.8 18.8-5.95 5.85-16.05 2.1Q80.8 75.4 62.6 95.85l-10.8-14.9L38.55 92.5q-2.85-6.9 0-16.95L30.7 78.7q9.15-19.9-9.3-34.3l.6-1.9" fill="#aa8c60"/><path d="m40.45 22.1-1.55-1.55 26.15 20.5q4.6 9.45 6.25 17.75-13.7-19.45-30.85-36.7m35 14.65q-6.4 2.95-15.15-.65l.9-23.2q3.85 6.15 5.9 15.85l8.35 8" fill="#fff8c8"/><path d="m38.9 20.55-8.4-5.35 3.8-12.15q18.15-4.3 26.9 9.85l-.9 23.2q8.75 3.6 15.15.65l4.5 4.3h-14.9L38.9 20.55M37.3 73q5.65-22.1 3.15-50.9Q57.6 39.35 71.3 58.8q4 19.9-8.7 33.5L51.95 78.55l-12.9 9.7q-.9-7.75 3.2-21.65-2.2 3.6-4.95 6.4" fill="#e6d291"/><path d="m38.9 20.55 1.55 1.55q2.5 28.8-3.15 50.9l-.95.95q.5-6.25-1.65-10.7Q32.5 53.4 22 42.5-25.95 26 30.5 15.2l8.4 5.35" fill="#bc9d6d"/><path d="M34.7 63.25q2.15 4.45 1.65 10.7L34.1 75.9q2.1-6.1.6-12.65" fill="#f8bbbb"/></g><g id="u" fill-rule="evenodd"><path d="m39.7 78.7 1.95 10.7-8.2-8.75q-5-10.7-8.75-23 4.45 9.15 9.45 15.25 2.7 3.35 5.55 5.8M51.8 63l7.5 2.8v6.85l-2.8-3.5q-.85-3.35-4.7-6.15m-4.75-5.25 1.6 1.45 1.3 3.65-1.15.2-1.75-5.3m-5.6 9.65-1.4 1.7-2.3-1.7Q35.1 58.85 27.3 55.45l-4.2-9.05v-5.95l1.15-1.05.1.95.8 7.85 2.65 5.9q7.4 5.1 11.95 12.5l1.7.8" fill="#ff8e01"/><path d="m29.6 39.1 1.45.8q6.75 11.55 15.5 19.55l1.5 3.8-.8.25-1.4-3.5-3.9-3.75Q36 50.05 31.4 42.3l-1.8-3.2m12.9 27.2-.55.5-2-1.05q-5.2-9-11.7-12.15l-3.9-13.25-.1-.95.65-.6 1.65 5.35 2.7 8.65 1.9 1.25q3.5 2.5 6.25 6l.05.05q1.8 2.3 3.25 5.05l1.8 1.15" fill="#587d07"/><path d="m26.45 37.4 3.15 1.7 1.8 3.2-2.6 2.3q-1.55-3.25-2.95-6.7l.6-.5" fill="#5b731c"/><path d="m24.9 38.8.95-.9q1.4 3.45 2.95 6.7 3.8 8.2 8.6 15.45-2.75-3.5-6.25-6l-4.6-9.9-1.65-5.35" fill="#6d9205"/><path d="m43.3 90.8.65 2.9L32.4 81.75q-8.85-18.65-12.65-38.2l3.35-3.1v5.95l4.2 9.05q7.8 3.4 10.45 11.95l2.3 1.7 1.4-1.7.5-.6.55-.5q1.75-1.55 3.8-2.4.5-.25.95-.4l.8-.25.75-.2 1.15-.2-1.3-3.65-1.6-1.45q-5.8-5.4-9.8-14.4l-6.2-3.45-1.45-.8-3.15-1.7 12.15 4.45q2.5 11.45 12.3 16.6v2.6l10.05 3.6V74.7l-1.65-2.05V65.8L51.8 63q-2.05.45-3.9 1.3L44.95 66q-3.75 2.65-6.55 7.35l-11.8-15.3-.05-.05-2.85-3.75 1 3.4q3.75 12.3 8.75 23l8.2 8.75-1.95-10.7.9.45 2 8.5.7 3.15m-6.85-22.65q-1.45-9.1-8.5-10.9L38.3 71.6l1-1.4-2.85-2.05" fill="#cc6004"/><path d="m24.7 57.65-1-3.4L26.55 58l.05.05 7.55 14.85q-5-6.1-9.45-15.25M44.95 66l2.95-1.7 4.9 3.15-3.2 7.8 1.1 4.9q-3.4-6.45-6.35-9.35l.6-4.8m16 8.7v-6.75Q72.8 79.8 75.05 94.8L72 93.65q-2.35-10.05-8.5-15.8l-2.55-3.15m5.45 25.45Q62.35 84.8 51.35 74.6l2.4-6.75q13.15 11.45 15.05 33l-2.4-.7m-13.75-.2-3.15-11-8.05-12.3 1.95-6.15q10.15 11.95 11 30.65l-1.75-1.2" fill="#fff"/><path d="m26.6 58.05 11.8 15.3q2.8-4.7 6.55-7.35l-.6 4.8-1.5-1.25-3.15 9.15q-2.85-2.45-5.55-5.8L26.6 58.05m21.3 6.25q1.85-.85 3.9-1.3 3.85 2.8 4.7 6.15l-2.9-3.6-.8 1.9-4.9-3.15M31.05 39.9l6.2 3.45q4 9 9.8 14.4l1.75 5.3-.75.2-1.5-3.8q-8.75-8-15.5-19.55m10.9 26.9-.5.6-1.7-.8Q35.2 59.2 27.8 54.1l-2.65-5.9-.8-7.85 3.9 13.25q6.5 3.15 11.7 12.15l2 1.05" fill="#fef10f"/><path d="M47.25 63.5q-.45.15-.95.4l-4.35-7.65 3.9 3.75 1.4 3.5m-16.1-9.45-1.9-1.25-2.7-8.65 4.6 9.9" fill="#a5ba01"/><path d="M46.3 63.9q-2.05.85-3.8 2.4l-1.8-1.15q-1.45-2.75-3.25-5.05l-.05-.05q-4.8-7.25-8.6-15.45l2.6-2.3q4.6 7.75 10.55 13.95l4.35 7.65" fill="#e8ff21"/><path d="m43.3 90.8-.7-3.15 5.2 4.75 1.4 3.45h-2.7l6.15 4.1 1.75 1.2q-.85-18.7-11-30.65l-1.95 6.15-.85 2.5-.9-.45 3.15-9.15 1.5 1.25q2.95 2.9 6.35 9.35l-1.1-4.9 3.2-7.8.8-1.9 2.9 3.6 2.8 3.5 1.65 2.05 2.55 3.15 1.55 1.95 3.9 12.7L72 93.65l3.05 1.15q-2.25-15-14.1-26.85V65.8Q75.5 79.95 76.9 96.95l-7.4-2.6 1.7 9.6-10.9-4.1-3.85-4.65h2.75l-5.05-7.95Q56.3 96 55.8 103.5l-8.35-3.95-3.5-5.85h2.25l-2.9-2.9m8.05-16.2L50.9 76l2.3 8.2 7.2 8.2 1.1 3.65h-1.95l1.5 2.4 5.35 1.7 2.4.7q-1.9-21.55-15.05-33l-2.4 6.75" fill="#51487d"/><path d="m42.6 87.65-2-8.5.85-2.5 8.05 12.3 3.15 11-6.15-4.1h2.7l-1.4-3.45-5.2-4.75m23.8 12.5-5.35-1.7-1.5-2.4h1.95l-1.1-3.65-7.2-8.2-2.3-8.2.45-1.4q11 10.2 15.05 25.55m-2.9-22.3q6.15 5.75 8.5 15.8l-3.05-1.15-3.9-12.7-1.55-1.95" fill="#bbafd7"/><path d="m36.45 68.15 2.85 2.05-1 1.4-10.35-14.35q7.05 1.8 8.5 10.9" fill="#010101" fill-opacity="0"/><path d="m27.2 19.05-.3-2.25q-.8-2.35-1.8-.55l-.7 1.65q-1.55-3.3-1-4.95.25-.8 1-1.2L19.75.95l1.75.55 1.8.65 8.35 16q1 11.15 5.45 20l-.1 1.7-6-13.1-1.75-10.05L21.5 1.5l3.85 10.8q-1.7.3-.95 2.7 1.95-2.05 3.55 2.25l1.2 8.65 7.7 15.1-.5 2.6-1.9-2.95-3.2-7.15-3.2-7.1-.85-7.35M16.1.2l1.1.15.15 1.55Q17.6 6 16.3 8.1q.35 2.8 1.75 3.25 2.4-.6 0-3.15 2.8-.6 4.2 2.25l.2 1.2-.2 1.85q-.55 2.1-3 3.3v7.9l-4.7-4.95 1.5.8 1.55.75.25-1.25.7-4 1.65-1.35q1.9-2.1.4-5-.35 2.8-2.05 3.25-.85-.25-1.6-.9-1.2-1.15-1.95-3.4Q17.1 5.2 16.1.2M13.6 0l1.2.05q.7 7-2.45 8.8l-.95.4q-3.2.95-9.25-1.95l.55-1 1.4.65Q10.75 10 13 7.6l.55-.85Q14.6 4.6 13.6 0m-3.15 15.45-.8-.9-.15-2.6H7.15l-.65-.7-2.2-.8-1.2-.75-1.4-1.4.45-1q2.85 4.35 8.3 3.9v4.25m-10.25.9 2.2.95 2.25.95v.95q1.85-1.45 3.05-.45.7 3.3 1.65 6.35-3.25-3.3-2.2 1l3.2 4.4 3.3 4.2q3.3 5.55 8.05 9.4l1.6 1.2q.2 4.4 2.7 7.5l-1.7.2-1.95.05q-8.05-6.1-11.2-17.15Q2.05 31 .2 16.35m5.75 8.75q.2-2.85 1.65-2.55l-.9-2.7q-1.05-.4-1.7 1.95l-.9-2.05H2.95q1.05 9.2 6.3 13.3 1.2.95 2.6 1.6l-2.1-3.25-1.9-2.45-1.9-2.5V25.1m15.6 21.95-.5-1.65q-4.5-4.05-8.4-9.6 1 2.3 2.15 4.45 3.35 6.15 7.95 11.15l-1.2-4.35" fill="#cc6004"/><path d="M25.1 16.25q1-1.8 1.8.55l.3 2.25-2.1-2.8m6.15 17.25 3.2 7.15 1.9 2.95-1 2.7-4.1-5.1v-7.7M19.75.95l4.65 10.8q-.75.4-1 1.2l-.95-1.3-.2-1.2q-1.4-2.85-4.2-2.25 1.55-3.65-.7-6.3L17.2.35l2.55.6M3.1 9.7l1.2.75q-.8 3.9.35 7.8L2.4 17.3l-.95-4.35L3.1 9.7m16.15 15v-7.9q4.45 7.3 6.4 14.6l-6.4-6.7m8.25 23.15 1.6.8 1.2 2.9-1.45.6-1.35-4.3" fill="#a5ba01"/><path d="M13.6 0q1 4.6-.05 6.75L7.9 1.25Q10.4 0 13.6 0" fill="#4c8965"/><path d="m36.85 41-7.7-15.1-1.2-8.65q-1.6-4.3-3.55-2.25-.75-2.4.95-2.7L21.5 1.5l7.75 15.2L31 26.75l6 13.1-.15 1.15M14.8.05l1.3.15q1 5-1.1 8.45.75 2.25 1.95 3.4.45 3.05 3.25 2.65l-1.65 1.35-.7 4-5.5-11.2q3.15-1.8 2.45-8.8M2.95 19.75l3 5.35v1.35l1.9 2.5 1.4 4.1q-5.25-4.1-6.3-13.3m11.85 20.5q3.35 4.9 6.75 6.8l1.2 4.35q-4.6-5-7.95-11.15m10.05 6.1L26 52.8q-2.5-3.1-2.7-7.5l1.55 1.05" fill="#ff8e01"/><path d="M13.55 6.75 13 7.6q-5.15-5.05-8.9-.65L2.7 6.3q2-3.5 5.2-5.05l5.65 5.5" fill="#69a975"/><path d="m9.65 14.55.8.9 4.1 4.3 4.7 4.95 6.4 6.7 2.55 2.7 3.65 10.2v5.5l-2.75-1.15-1.6-.8-1.25-.65-1.4-.85-1.55-1.05-1.6-1.2q-4.75-3.85-8.05-9.4-2.55-4.3-4.3-9.6-.95-3.05-1.65-6.35-.75-3.55-1.2-7.5l.65.7 2.5 2.6m6.8 8.8-8.55-9.2q.4 3.2 1.05 6.15Q13.2 38.7 29 47.1l1.9 1q-.6-5.05-3.8-13.35l-10.65-11.4" fill="#302958"/><path d="M2.15 7.3q6.05 2.9 9.25 1.95l4.65 11.3-1.5-.8-4.1-4.3V11.2q-5.45.45-8.3-3.9m5 4.65H9.5l.15 2.6-2.5-2.6m-4.2 7.8H4.1L5 21.8q.65-2.35 1.7-1.95l.9 2.7q-1.45-.3-1.65 2.55l-3-5.35m4.9 9.2 1.9 2.45 2.1 3.25q-1.4-.65-2.6-1.6l-1.4-4.1m6.95 11.3q-1.15-2.15-2.15-4.45 3.9 5.55 8.4 9.6l.5 1.65q-3.4-1.9-6.75-6.8m-1.15-5.55-3.3-4.2-3.2-4.4q-1.05-4.3 2.2-1 1.75 5.3 4.3 9.6m11.2 11.65 1.4.85 1.5 5.25-1.75.35-1.15-6.45" fill="#fef10f"/><path d="m4.3 10.45 2.2.8q.45 3.95 1.2 7.5-1.2-1-3.05.45v-.95q-1.15-3.9-.35-7.8m17.95 3.05q4.25 10.3 5.95 20.6l-2.55-2.7q-1.95-7.3-6.4-14.6 2.45-1.2 3-3.3m9.6 30.8 2.7 3.45q-1.1 1.7-2.75 2.9l.05-.85v-5.5M18.05 8.2q2.4 2.55 0 3.15-1.4-.45-1.75-3.25 1.3-2.1 1.05-6.2 2.25 2.65.7 6.3m-1.1 3.85q.75.65 1.6.9 1.7-.45 2.05-3.25 1.5 2.9-.4 5-2.8.4-3.25-2.65" fill="#e8ff21"/><path d="m1.7 8.3 1.4 1.4-1.65 3.25.95 4.35-2.2-.95-.2-2.1q.6-3.4 1.7-5.95m26.05 44.15-1.5-5.25 1.25.65 1.35 4.3-1.1.3" fill="#587d07"/><path d="M8.95 20.3q-.65-2.95-1.05-6.15l8.55 9.2q3.05 12 10.9 21.85-10.6-8.4-18.4-24.9" fill="#938dde"/><path d="m27.2 19.05.85 7.35 3.2 7.1v7.7l4.1 5.1-.8 1.45-2.7-3.45-3.65-10.2q-1.7-10.3-5.95-20.6l.2-1.85.95 1.3q-.55 1.65 1 4.95l.7-1.65 2.1 2.8m1.9 29.6 2.75 1.15-.05.85-1.5.9-1.2-2.9" fill="#6d9205"/><path d="M13 7.6q-2.25 2.4-8.9-.65 3.75-4.4 8.9.65" fill="#97c273"/><path d="m16.45 23.35 10.65 11.4q3.2 8.3 3.8 13.35l-1.9-1-1.6-1.9h-.05q-7.85-9.85-10.9-21.85" fill="#6660a3"/><path d="M29 47.1Q13.2 38.7 8.95 20.3q7.8 16.5 18.4 24.9h.05l1.6 1.9" fill="#3f3479"/></g><g id="v" fill-rule="evenodd"><path d="m39.3.8 7.85 5.35-.1 1.2q-.25 6.75 4.4 10l2.35 7.6-1.35 1.4-1.75-8.1q-5.7-2.4-3.65-10.9l-8.9-5.25L39.3.8" fill="#6660a3"/><path d="M42.55 1.95 39.3.8l.85-.8 11.3 3.35q-.1 2.35.2 4.25l.3 1.5.45 1.55.65 1.4.9 1.3q1.1 1.3 2.6 2l1.7 5-.95 1-2.05-4.65q-4.9-4.9-5.2-12.15l-7.5-2.6m-5.35 1.3.95-1.15 8.9 5.25q-2.05 8.5 3.65 10.9l1.75 8.1-1.15 1.2-1.75-8.75q-5.25-3.25-3.7-11.75l-8.65-3.8" fill="#302958"/><path d="m39.3.8 3.25 1.15 6.4 3.65q.8 8.05 5.65 12.1l1.85 4.55-2.65 2.7-2.35-7.6q-4.65-3.25-4.4-10l.1-1.2L39.3.8" fill="#3f3479"/><path d="m38.7 15-1.25 1.05-3.9-5.35q1.05-4 3.65-7.45l8.65 3.8q-1.55 8.5 3.7 11.75l1.75 8.75-.8.8-1.75-8.6Q45.2 15.9 43.8 10.8L38.7 15" fill="#6d9205"/><path d="M49.3 29.55q.3-15.3-10.6-14.55l5.1-4.2q1.4 5.1 4.95 8.95l1.75 8.6-1.2 1.2" fill="#a5ba01"/><path d="m38.85 18-1.4-1.95L38.7 15q10.9-.75 10.6 14.55l-1.55 1.65h-.05q.6-14.35-8.85-13.2" fill="#e8ff21"/><path d="m37.45 16.05 1.4 1.95q8.95 2.6 6.5 11.2l-.6-1q.15-2-.15-3.55-.25-1.35-.85-2.35l-1.2-1.45q-1.65-1.4-4.45-1.55l-4.95-6.8.4-1.8 3.9 5.35" fill="#587d07"/><path d="m57.3 21.35.95-1L70.2 8.1q-2.7 12.6-8.7 24.1l-.5.95-4.6 7.7-1.3 1.95-2.8 3.9q-6.95 2.7-15.65 1.5l-.35-1.55-.5-1.9q-1.2-4.2-3.2-8.55l-.7-1.4-.5-1.05-.8-1.55-3.95-3.8 2.25-4.55h11.8l1.85-3 1.2 1.45-1.8 2.6 1.25 1.3 1.4-1.55q.3 1.55.15 3.55l.6 1 1.45 2.95.8-.85.15-.1 1.55-1.65 1.2-1.2.8-.8 1.15-1.2 1.35-1.4 2.65-2.7.85-.9m-3.35-8-.9-1.3.45-2.85.45-2.8-2 2.7-.3-1.5 4.45-5.45-2.15 11.2M41.65 26.6l-1.1-1.7-10.65.25-1.75 3.9 1.75 2 .1-1.9q5.45 8.6 7.85 17.75l1.75.05q6.2.1 11.85-1.45 6.4-9.2 11.05-19.2l2.9-6.75 2.65-7.35L46.7 34.4l-5.05-7.8" fill="#cc6004"/><path d="m52.4 10.65-.45-1.55 2-2.7-.45 2.8-1.1 1.45M43.75 22.3q.6 1 .85 2.35l-1.4 1.55-1.25-1.3 1.8-2.6m-2.1 4.3 5.05 7.8 21.35-22.2-2.65 7.35q-14.3 20-28.1 19.2l-3.85-7.05v-3.35q5.65 2.35 8.2-1.75" fill="#fef10f"/><path d="M38.85 18q9.45-1.15 8.85 13.2l-.1.1-.8.85-1.45-2.95q2.45-8.6-6.5-11.2m-8.95 7.15 10.65-.25 1.1 1.7q-2.55 4.1-8.2 1.75v3.35l-3.55-6.55m1.5 8.6.5 1.05q-3.05-.15-5.15-2.95Q14.85 34.9 10.6 43.8l-8.5.65q6.65-12 24-14.9 1.9 3.4 5.3 4.2m33.95 7.05-4.7-4.1 1.8-2.8q4.05 2.35 6.35 6.35l-3.45.55m-35.1-4.9 1.25 6.4q-10.1-3.15-19.3 1.6 4.5-7.8 14.35-10.55 1.45 1.9 3.7 2.55" fill="#fff"/><path d="m53.05 12.05-.65-1.4 1.1-1.45-.45 2.85m12.35 7.5-2.9 6.75-10.95 17.2-11.95 3.45-1.75-.05q-2.4-9.15-7.85-17.75l-.1 1.9-1.75-2 1.75-3.9 3.55 6.55 3.85 7.05q13.8.8 28.1-19.2" fill="#ff8e01"/><path d="m42.55 1.95 7.5 2.6q.3 7.25 5.2 12.15l2.05 4.65-.85.9-1.85-4.55q-4.85-4.05-5.65-12.1l-6.4-3.65M62.5 26.3q-4.65 10-11.05 19.2-5.65 1.55-11.85 1.45l11.95-3.45L62.5 26.3" fill="#f8bbbb"/><path d="M32.6 36.2q2 4.35 3.2 8.55l-4.85 1.05q-7.4-3.3-17.1-1.05l-1.65-.85q9.2-4.75 19.3-1.6l-1.25-6.4 2.35.3M2.1 44.45l8.5-.65 3.65 3.45-12.15-2.8M62.45 33.9l-1.8 2.8 4.7 4.1-5.9 3.45 2.05-3.7 1.5-.4-2.8-1.4-1.25 1.95-2.55.15 4.6-7.7 1.45.75" fill="#8281a4"/><path d="M61.5 32.2q7.6 2.95 9.9 9.1-6.55 5.1-15.55 4.65l3.5-4.3-4.25 1.15 1.3-1.95 2.55-.15 2.55-.15-2.05 3.7 9.9-2.95-.55-1.05q-2.3-4-6.35-6.35L61 33.15l.5-.95M36.3 46.65l-6.85.8q-4.65-3.05-9.05-1.3l2.05 3.25-6.25-1.05Q7.15 48.6 0 45.1q6.2-14.35 26.65-16.7l3.95 3.8.8 1.55q-3.4-.8-5.3-4.2-17.35 2.9-24 14.9l12.15 2.8-3.65-3.45q4.25-8.9 16.15-11.95 2.1 2.8 5.15 2.95l.7 1.4-2.35-.3q-2.25-.65-3.7-2.55Q16.7 36.1 12.2 43.9l1.65.85 5.7 2.95v-2.5q5.05-1 9.9.95l1.5-.35 4.85-1.05.5 1.9" fill="#51487d"/><path d="M13.85 44.75q9.7-2.25 17.1 1.05l-1.5.35q-4.85-1.95-9.9-.95v2.5l-5.7-2.95m51.5-3.95 3.45-.55.55 1.05-9.9 2.95 5.9-3.45m-6.4-.1 1.25-1.95 2.8 1.4-1.5.4-2.55.15" fill="#bbafd7"/></g><g id="i"><use ffdec:characterId="17" height="40.85" transform="translate(32.6 1.5)" width="35" xlink:href="#m"/><use ffdec:characterId="19" height="56.15" width="64.9" xlink:href="#n"/></g><g id="m" fill-rule="evenodd"><path d="m37.8 38.45 2.85-1.05 10.25-3.85q10.2-7.9 16.3-22.35l.4.35Q62.85 26.5 51.1 34.9l-18.5 7.45.4-2.1 4.8-1.8" fill="#38654a" transform="translate(-32.6 -1.5)"/><path d="m40.65 37.4 9.7-4.75q9.45-9.9 15.8-22.45l1.05 1q-6.1 14.45-16.3 22.35L40.65 37.4" fill="#f8bbbb" transform="translate(-32.6 -1.5)"/><path d="m65.1 9.2 1.05 1q-6.35 12.55-15.8 22.45l-9.7 4.75-2.85 1.05 12.35-8.05L65.1 9.2" fill="#4c8965" transform="translate(-32.6 -1.5)"/><path d="M65.1 9.2 50.15 30.4 37.8 38.45l-4.8 1.8Q37.35 17.9 57.05 1.5l8.05 7.7" fill="#69a975" transform="translate(-32.6 -1.5)"/></g><g id="w" fill-rule="evenodd"><path d="m60.75 5.45.45.5q-9.3 6.7-18.05 4.1l-.7-.2 2.3-4.25-3.15 1.3-1.15 3q-3.5 5.8-6 4.65l-1.2 1.4 1.55.95-2.25 4.15-.75 1.35 3.65-2.55 2-1.4q2.4 1.5 3.95 1.25 1.55-.25 2.35-2.3-2.7.6-3.15-1.55-.15-.7-.05-1.65 3.5-3.15 12.5-2.45l7.4 5.05 4.25-2.75.2 1.55q-14.15 7.35-17.75 18.25-12.25 6.5-22.75 22.3-.2-4.65.35-9.15l.2-1.4.15-1.1.5-2.65.55-2.2.85 2.25.4 1.05.45 1.25 3.9-4.4h.05q4.8-5 8.85-7.1 1.65-.9 3.15-1.25 1.5-2.65 1.15-4.7-2.25-1.35-1.6 1.6l-1.2-.15q-2.25-.7-1.5-3.75 2-2.8 4.4-1.95l1.1.55 2.9-2.8q1.65 1.15 2.95 0 1.1-2.7-1.95-3.45l.95-4-1.85-.3-2.75.05q-2.3.3-4.65 1.45-1 3.95 2.35 1.4 1.45 2.85-2.15 5.1l-2.1.05q-1.3-.2-2.45-1.15l-7.5 5.4 3.75-7-1.05-1.25-1-1.2L33.35 13l1.15.8 1.55.2 3.85-4.3.55-1.9.55-1.9q2.25-1.45 4.6-2.25V5.9l-2 3.25 1.35.2 1.8.15q4 .15 8.6-1.4l5.4-2.65M22.05 45.7l-4.1 6.6v-8l1.5.45v3.45l1.6-2.95 1 .45m-.5-14.4 3.65-4.8-2.3 5.25-1.35-.45m3.9 20.1-.1 1.15q8.15-11.6 21-19.35 1.75-7.15 8.35-13.45l4.15-2.45-7.25-3.2-.25 1.05-.25 1.05q1.7 1 1.95 2.45l.1.65-.65 1q-1.35 1.65-3.35.95L46.1 23.8q-1.95-1.5-4.05 0-1.7 3.55.55 3.75.8-2.7 2.8-1.25.8 3.45-1.4 6.1-9.3 4.25-16.85 13.25l-.85-3.4-.85 9.15" fill="#cc6004"/><path d="M54.8 1.5q3.6 1.5 5.95 3.95l-5.4 2.65q-4.6 1.55-8.6 1.4l8.05-8" fill="#4c8965"/><path d="m32.55 21.05 2.25-4.15-1.55-.95 1.2-1.4q2.5 1.15 6-4.65l1.15-3 3.15-1.3-2.3 4.25-9.9 11.2m13.85-8.5-2.3 2.85q-3.35 2.55-2.35-1.4 2.35-1.15 4.65-1.45m-6.55 8q-8.3 10.9-12.45 22.4L27 41.9l1.9-6.3v-6.7L23.75 32q3.8-9.35 8.85-15.45l1.05 1.25-3.75 7 7.5-5.4q1.15.95 2.45 1.15m.75-4.7q.45 2.15 3.15 1.55-.8 2.05-2.35 2.3-2.2-1.35-.8-3.85m-.15-8.05-.55 1.9-3.85 4.3-1.55-.2 5.95-6" fill="#e8ff21"/><path d="M45.6 3.65 49.95 0l1.15.25-5.5 5.65V3.65" fill="#38654a"/><path d="m51.1.25 1.35.4-7.5 8.7-1.35-.2 2-3.25L51.1.25" fill="#97c273"/><path d="M31.8 39.8q6.6-14.25 17.35-27.3l1.85.3-5.95 9.7q-2.4-.85-4.4 1.95-.75 3.05 1.5 3.75l-1.5 4.5q-4.05 2.1-8.85 7.1" fill="#6d9205"/><path d="m42.45 9.85.7.2-7.7 9.8-3.65 2.55.75-1.35 9.9-11.2m3.95 2.7 2.75-.05Q38.4 25.55 31.8 39.8h-.05l-3.9 4.4-.45-1.25q4.15-11.5 12.45-22.4l2.1-.05q3.6-2.25 2.15-5.1l2.3-2.85" fill="#fff"/><path d="m25.45 51.4.85-9.15.85 3.4q7.55-9 16.85-13.25 2.2-2.65 1.4-6.1 1.9 3.15-1.45 7.05Q32.4 40.7 25.45 51.4M42.6 27.55q-2.25-.2-.55-3.75 2.1-1.5 4.05 0l3.05-2.55q2 .7 3.35-.95-1.95 3.15-6.1 4.15-4.35-.4-3.8 3.1m10.45-8.9q-.25-1.45-1.95-2.45l.25-1.05q2.9 1.3 1.7 3.5M24.65 32.3l2.85-1.45v2.2l-2.85-.75m-5.2 12.45 1.6.5-1.6 2.95v-3.45" fill="#fef10f"/><path d="M61.2 5.95q2.8 3.3 3.5 8.1l-4.25 2.75-7.4-5.05q-9-.7-12.5 2.45-.1.95.05 1.65-1.4 2.5.8 3.85-1.55.25-3.95-1.25l-2 1.4 7.7-9.8q8.75 2.6 18.05-4.1m-9.85 9.2.25-1.05 7.25 3.2-4.15 2.45q-6.6 6.3-8.35 13.45-12.85 7.75-21 19.35l.1-1.15q6.95-10.7 18.5-18.05 3.35-3.9 1.45-7.05-2-1.45-2.8 1.25-.55-3.5 3.8-3.1 4.15-1 6.1-4.15l.65-1-.1-.65q1.2-2.2-1.7-3.5" fill="#ff8e01"/><path d="m51 12.8-.95 4q3.05.75 1.95 3.45-1.3 1.15-2.95 0l-2.9 2.8-1.1-.55L51 12.8m-8.85 15.4 1.2.15q-.65-2.95 1.6-1.6.35 2.05-1.15 4.7-1.5.35-3.15 1.25l1.5-4.5" fill="#a5ba01"/><path d="M52.45.65q1.25.35 2.35.85l-8.05 8-1.8-.15 7.5-8.7" fill="#69a975"/><path d="M25.2 26.5q3.05-6.45 6.4-11.15l1 1.2q-5.05 6.1-8.85 15.45l5.15-3.1v6.7L27 41.9l-.85-2.25 1.35-4.4v-4.4l-2.85 1.45-.9-.3-.85-.25 2.3-5.25M33.35 13Q37 8.4 41 5.9l-.55 1.9-5.95 6-1.15-.8" fill="#587d07"/><path d="M24.75 47q-1.35-.75-2.7-1.3l-1-.45-1.6-.5-1.5-.45-4.25-.65Q4.55 32.55 0 18.2q9 8.7 21.55 13.1l1.35.45.85.25.9.3 2.85.75v1.15l-3.2-.9Q12.4 29.6 2.4 21.65l3.2 6.5.05.1 2.85 5.2q2.6 4.4 5.55 8.6Q20 43 24.95 45.6l-.2 1.4" fill="#302958"/><path d="M27.5 34.2v1.05l-1.35 4.4-.55 2.2-2.4-.65q-5.65-4.4-9.5-10.15 5.45 1.9 10.6 2.25l3.2.9" fill="#6660a3"/><path d="m23.2 41.2 2.4.65-.5 2.65-10.2-3.55-6.4-7.5-2.85-5.2q5.8 9.5 17.55 12.95" fill="#3f3479"/><path d="m8.5 33.45 6.4 7.5 10.2 3.55-.15 1.1Q20 43 14.05 42.05q-2.95-4.2-5.55-8.6" fill="#f8bbbb"/><path d="M23.2 41.2Q11.45 37.75 5.65 28.25l-.05-.1-3.2-6.5q10 7.95 21.9 11.65-5.15-.35-10.6-2.25 3.85 5.75 9.5 10.15" fill="#938dde"/></g><g id="x" fill-rule="evenodd"><path d="m38.55 32.65.95-.4-1 13.65 3.25 3.8.55 2.75-1.2-.2v-2l-3.7-4.45 1.15-13.15" fill="#8281a4"/><path d="m39.5 32.25.8-.35-.6 13.25 3.1 4 .9-1.15 1.7-2.1L46.85 29q.55-.2 1.05-.45l-1.2 17.8-1.1 1.6 2.25 3.25-.8 1.9-1.6-.2.85-1.6-1.2-2.2-1.05 1.2-1 1.2.15 1.1-.9-.15-.55-2.75-3.25-3.8 1-13.65" fill="#302958"/><path d="m27.85 37.4 1.55-.7 1.65 12.25-3.25 6.25-1.8 2.2.6-1.35 1.35-3.1 2-4.45-2.1-11.1" fill="#51487d"/><path d="m29.4 36.7 1.8-.8 1.6 12.15q3.4-.3 4.5 3.4l-4.1-1.2q-3.1 2.35-5.4 4.95l3.25-6.25L29.4 36.7m-17.9 17q.9 2.25-2.05 4.1-.75-.25-1.45-1 2.55-.55 3.5-3.1m3.7 15.5-.35.3L12 61.15l5.1-6.7 1.2.4-4.9 6.05.6 2.2q2.75-3.95 5.85-4.85-4.05 2.05-5.65 6.95l1 4m-3.3-5.5 2.85 7q4.4-4.5 7.15-10.6l.55.45q-2.7 6.55-7.2 11.35l.55 14.5q-4.45-10.7-3.9-22.7m18.95-6.45.75-4 .05-.05 1.5-1.55-1.05 5.8-.9-.55-.35.35" fill="#fff"/><path d="m31.2 35.9 7.35-3.25L37.4 45.8l3.7 4.45v2l-3.8-.8q-1.1-3.7-4.5-3.4L31.2 35.9" fill="#bbafd7"/><path d="m45.6 29.55 1.25-.55-1.45 16.9-1.7 2.1-.6-.75 1.2-2.5 1.3-15.2M44.05 50.3l1.05-1.2 1.2 2.2-.85 1.6-.65-.1-.75-2.5M49.3 56l.8-.3 1.15 1.4-.55.75h-.5L49.3 56m-26 18.6 2.35-3.9q-3.25 8-8.35 14.05l6-10.15m24.9-20.2.85.05.45.85-.95.2-.35-1.1M30.05 72.15v1.15l-4.3.65.4-1.15 3.9-.65" fill="#f8bbbb"/><path d="m42.25 31.05 3.35-1.5-1.3 15.2-1.2 2.5-2.15-2.65 1.3-13.55" fill="#3f3479"/><path d="m40.3 31.9 1.95-.85-1.3 13.55 2.15 2.65.6.75-.9 1.15-3.1-4 .6-13.25m2.9 20.7-.15-1.1 1-1.2.75 2.5-1.6-.2" fill="#6660a3"/><path d="m30.05 74.65-5 1.1.7-1.8 4.3-.65v1.35M12.45 44.2l1.5-.65q3.15 4 5.3 8.05L21 55.25l-1.2-.65-.65-1.15-.4-.7q-2.65-4.35-6.3-8.55" fill="#38654a"/><path d="M13.95 43.55 17.4 42q5.95 1.15 10.55 10.95l-1.35 3.1q-3.15-6.45-7.35-4.45-2.15-4.05-5.3-8.05" fill="#69a975"/><path d="m47.05 53.1 3.2.25 1.5 1.5-1.65.85-.8.3-.95.2-6.35-.3-2.05-.5-3.75-1.2q-3.25-.15-2.3 1.35.9.9 2.55 0-.3 5.5-5.05 2.15L29 60.05l-4.2 4q-.45-1.35-1.3-2.4l-1.05-1.1-.55-.45q-2.75 6.1-7.15 10.6l-2.85-7-.9-2.15 1.5-3.25-1.55.3q-2.9.4-3.55-1.45l-.15-1.55q3.6.45 3.7-3l-.05-1.1v-6.65l.55-.2.45 2.8q3.4 3.45 6.85 5.3l.4.7q-3.15-.25-7.1-4.55l-.1 2.9-.45 1.9q-.95 2.55-3.5 3.1.7.75 1.45 1 1.3.45 2.7-1l.45.45.4.5 1.4-1.5-.8-3.2 1.15 2.85L17 53.55l2.8 1.05 1.2.65q2.3 1.4 4.1 3.5l.9-1.35 1.8-2.2q2.3-2.6 5.4-4.95l4.1 1.2 3.8.8 1.2.2.9.15 1.6.2.65.1 1.6.2M10.95 72l-1.9-1.6-.7-2.35 1.2.25.25.9 1 1.05.15 1.75m7.35-17.15-1.2-.4-5.1 6.7 2.85 8.35.35-.3q4.2-4.1 6.2-9.9l-.25-1.3q-.65-2.25-2.85-3.15m6.5 7.6.3.3 5.75-5.5.35-.35.9.55q3.2 1.8 3.25-.55-1.85-.45-2.45-2.35 1.5-1.5 4.15-1 6.3 3 11.5 1.95l.95-.2-.45-.85-.85-.05q-7.3-.7-15.05-2.75l-1.5 1.55-.1.1L26 58.95l-1.1 1.15-3.6-3.75 1.1 3.35 2.4 2.75" fill="#cc6004"/><path d="m51.75 54.85 1.5 1.45-1.5 2.75q-6.6-.85-14.25 2.2-7.3 4.9-6.35 13.15l-1.1.25v-2.5l-.05-2.5-3.35 1.4-.5 1.75-.4 1.15-.7 1.8q-3.2 7.35-9.45 12.2-3.85-7.2-4.65-15.95l-.15-1.75q-.15-3.25.05-6.65l.15-2.05.9 2.15q-.55 12 3.9 22.7l1.05-1.15.45-.5q5.1-6.05 8.35-14.05l.15-.4 4.9-2.1q.85-1.85 1.95-3.4 2.5-3.5 6.5-5.25 1.15-.5 2.4-.85 2.65-.75 5.85-.85h3.3l.55-.75-1.15-1.4 1.65-.85m-43.4 13.2q-2.1-6.5-5.2-9.85l5.05-6.7h2.7l.05 1.1-2.55.55-3.35 4.95.6 1.15 1.75 3.4 1.3 3.1.85 2.55-1.2-.25" fill="#587d07"/><path d="m19.15 53.45.65 1.15-2.8-1.05-2.25 2.35-1.15-2.85.8 3.2-1.4 1.5-.4-.5q1.7-2.5-.65-5.45l.1-2.9q3.95 4.3 7.1 4.55m6.85 5.5-1.2 3.5-2.4-2.75-1.1-3.35 3.6 3.75 1.1-1.15m22.2-4.55.35 1.1q-5.2 1.05-11.5-1.95-2.65-.5-4.15 1 .6 1.9 2.45 2.35-.05 2.35-3.25.55l1.05-5.8Q40.9 53.7 48.2 54.4" fill="#ff8e01"/><path d="m11.5 53.7.45-1.9q2.35 2.95.65 5.45l-.45-.45q-1.4 1.45-2.7 1 2.95-1.85 2.05-4.1m-.55 4.9L7.4 62.65l-1.75-3.4 1.75-2.1q.65 1.85 3.55 1.45M29 60.05l2.4-2.35q4.75 3.35 5.05-2.15-1.65.9-2.55 0-.95-1.5 2.3-1.35l3.75 1.2-.8 4.15q-4 1.75-6.5 5.25L29 60.05" fill="#e8ff21"/><path d="m11.45 44.65 1-.45q3.65 4.2 6.3 8.55-3.45-1.85-6.85-5.3l-.45-2.8" fill="#505050"/><path d="M17.65 62.2q0 .35.25.55l.55.25.55-.25.25-.55-.25-.55-.55-.25q-.35 0-.55.25-.25.25-.25.55m-.15-.65q.35-.35.8-.35.5 0 .8.35.35.35.35.8 0 .5-.35.8-.3.35-.8.35-.45 0-.8-.35-.35-.3-.35-.8 0-.45.35-.8m.8-6.7q2.2.9 2.85 3.15l-1.3.25q-3.1.9-5.85 4.85l-.6-2.2 4.9-6.05" fill="#13fffb"/><path d="M17.65 62.2q0-.3.25-.55.2-.25.55-.25l.55.25.25.55-.25.55-.55.25-.55-.25q-.25-.2-.25-.55" fill="#c8fffe"/><path d="M17.5 61.55q-.35.35-.35.8 0 .5.35.8.35.35.8.35.5 0 .8-.35.35-.3.35-.8 0-.45-.35-.8-.3-.35-.8-.35-.45 0-.8.35M21.15 58l.25 1.3q-2 5.8-6.2 9.9l-1-4q1.6-4.9 5.65-6.95l1.3-.25" fill="#0bb8b1"/><path d="m10.95 58.6 1.55-.3-1.5 3.25-.15 2.05-2.15 2.15-1.3-3.1 3.55-4.05m12.55 3.05q.85 1.05 1.3 2.4l4.2-4 3.65 4.75q-1.1 1.55-1.95 3.4l-4.9 2.1q-2.2-2-2.5-6.5-2 5.75 0 10.8l-6 10.15-.45.5.45-13.95q3.8-4.5 6.2-9.65M42 55.9l6.35.3-.95 1.65q-3.2.1-5.85.85l.45-2.8" fill="#6d9205"/><path d="m22.45 60.55 1.05 1.1q-2.4 5.15-6.2 9.65l-.45 13.95-1.05 1.15-.55-14.5q4.5-4.8 7.2-11.35m8.4-3.3-5.75 5.5-.3-.3 1.2-3.5 5.55-5.65.05-.05-.75 4" fill="#fef10f"/><path d="m21 55.25-1.75-3.65q4.2-2 7.35 4.45L26 57.4l-.9 1.35q-1.8-2.1-4.1-3.5" fill="#97c273"/><path d="m39.95 55.4 2.05.5-.45 2.8q-1.25.35-2.4.85l.8-4.15M7.4 57.15l-1.75 2.1-.6-1.15 3.35-4.95 2.55-.55q-.1 3.45-3.7 3l.15 1.55" fill="#b9ff4b"/><path d="m8.7 65.75 2.15-2.15q-.2 3.4-.05 6.65l-1-1.05-.25-.9-.85-2.55m39.65-9.55.95-.2.9 1.85h-2.8l.95-1.65m-22.7 14.5-2.35 3.9q-2-5.05 0-10.8.3 4.5 2.5 6.5l-.15.4" fill="#a5ba01"/><path d="m17.4 42 10.45-4.6 2.1 11.1-2 4.45Q23.35 43.15 17.4 42m8.75 30.8.5-1.75 3.35-1.4.05 2.5-3.9.65" fill="#4c8965"/><path d="m24.9 9.45 2.25-.3 15.35 5.5-.45.95L24.9 9.45M22.35 43l-1.1.35 2.7-11.6.95-4.05.95-3.95 1.85-7.95-5.1-5.95.9-.15 2.6 2.95 2.6 3.05L22.35 43" fill="#cc6004"/><path d="m36.7 26.5-6.95 14.05-7.4 2.45 6.35-27.3-2.6-3.05q7.5-1.35 10.6 13.85" fill="#fff"/><path d="M8.1 24Q9.2 12.8 22.6 9.85l5.1 5.95-1.85 7.95q-6.25-3.3-13.6 2.6L8.1 24" fill="#4c8965"/><path d="M42.05 15.6 36.7 26.5q-3.1-15.2-10.6-13.85L23.5 9.7l1.4-.25 17.15 6.15" fill="#bbafd7"/><path d="m12.35 46.25-1.45.45V32.1l1.6-3.1q-.9-2.45-4.5-3.9l.1-1.1 4.15 2.35 1.75 1-1.3 5.95h-.85l.5 12.95" fill="#38654a"/><path d="m24.9 27.7-.95 4.05q-2.5-6.45-9.1-5.25 5.25-4.55 10.05 1.2" fill="#b9ed8e"/><path d="m21.25 43.35-8.9 2.9-.5-12.95h.85l1.3-5.95.85-.85q6.6-1.2 9.1 5.25l-2.7 11.6" fill="#97c273"/><path d="m25.85 23.75-.95 3.95q-4.8-5.75-10.05-1.2l-.85.85-1.75-1q7.35-5.9 13.6-2.6" fill="#69a975"/><path d="M10.65 50.2v1.3l-8.6-2.65L0 38.8l2.45-15.1 2.6-3.3.35 2.05-.9.65-1.45 1.2-.4 2.75L1 38.5l.5 1.85 2.7 3.95 2.75 3.95 3.7-1.75v1.45L7.6 49.1l3.05 1.1m0-6.6v.8l-3.4 1.75-4.2-9.1v-3.6l2.15 1.9.95-3.9.3 1.05-.9 4.35L3.5 34.9v1.7l1.65 3.5 2.45 5.2 3.05-1.7m-7.4 3.9 2.45.9L2.15 43l1.1 4.5" fill="#cc6004"/><path d="M10.65 50.2 7.6 49.1l3.05-1.15v2.25m-3.7-1.95L4.2 44.3l-1.55-5.25v-12l.4-2.75 1.45-1.2q.75 5.05 1.65 8.35l-.95 3.9-2.15-1.9v3.6l4.2 9.1 3.4-1.75v1.1L7.4 46.9l-.45 1.35m-.5-15.75.6 1.7-1.9 5.9-1.65-3.5v-1.7l2.05 1.95.9-4.35m-3.2 15L2.15 43l3.55 5.4-2.45-.9" fill="#fef10f"/><path d="m4.5 23.1.9-.65Q8.35 39.3 10.65 37.3v.45q-2.05.5-3.6-3.55l-.6-1.7-.3-1.05q-.9-3.3-1.65-8.35" fill="#587d07"/><path d="m4.2 44.3-2.7-3.95L1 38.5l1.65-11.45v12L4.2 44.3m6.45-6.55v.7L8.8 39.6l-1.2 5.7-2.45-5.2 1.9-5.9q1.55 4.05 3.6 3.55" fill="#fff"/><path d="M10.65 38.45v5.15L7.6 45.3l1.2-5.7 1.85-1.15" fill="#6d9205"/><path d="m10.65 46.5-3.7 1.75.45-1.35 3.25-1.4v1" fill="#ff8e01"/><path d="m54.3 16.4.7 1.5-5.35 5Q38.1 34.4 29.15 46.25l-1.05 1.4-1.15 1.55-15.3 3.9-5.05-3.7.2-.95 18.9-9.9 5-6.55 11.4-14.95-1.3.7-3.6 1.95q-1.75-.75-2.05-3.05l-.05-.1v-.5l.35-.45q1.3-1.45 2.55.45.4-1.8-.6-2.8l-.6-.5q-2.75.9-2.55 4.95 1.15 5.25-3.2 8.75l-5.6 8.65-.35.25-1.45.8q-2.1-3.25-4.5-1.8-.9.55-1.85 1.8 3.6-1.65 2.4 2.1l-.7 1.3-11.7 6.6.2-1 7-4.05 4.4-2.55q1.5-3.35-2.5-.9-.25-1.05.15-1.95.45-1.2 2-2.15l2.35-.3q1.8.25 2.95 2.05l1.2-.95 5.6-8.65 1.2-1.25q2.65-3.3 1.7-6.85l.1-1.4q.4-3.4 2.6-3.95l1.3-.05q2.2 3.3 0 4.95-.2-2.25-1.75-1.15-.05 2.55 1.5 2.9l4.8-3.25-.4-4.15 1-2.45.3 3.8.15 4.45L26.2 38.95l-15.5 8.8-2.4 1.35 5.95 2.25 1.9-.55 9-2.75L54.3 16.4" fill="#cc6004"/><path d="m9.1 37.9 14-10.25L40.75 2.5l.2 2.15-4.7 7.6q-2.2.55-2.6 3.95l-14.3 16.4q-5.9 4.05-10.25 5.3" fill="#e8ff21"/><path d="m53.4 15.3.9 1.1-29.15 31.65Q37.5 31.4 53.4 15.3m1.6 10-.4 1.4-16.4 16.7-4.55 1.45L55 25.3m-14.2-7.55 1.3-.7L30.7 32l10.1-14.25" fill="#f8bbbb"/><path d="m55 17.9.4 1.65L31.1 45.6l-1.95.65Q38.1 34.4 49.65 22.9l5.35-5" fill="#938dde"/><path d="M55.5 21.95 55 25.3 33.65 44.85l-1.2.35L55.5 21.95" fill="#3f3479"/><path d="m55.4 19.55.1 2.4L32.45 45.2l-1.35.4 24.3-26.05" fill="#6660a3"/><path d="m6.8 48.45.3-1.35 12.7-7q2.8-4.45-.65-5.75 2.4-1.45 4.5 1.8l1.45-.8q2.35-.8 4.35-5.1 5.9-5.6 5.7-13.6.3 2.3 2.05 3.05l3.6-1.95L30.7 32l-5 6.55-18.9 9.9M43 12.85q7.4-.55 10.4 2.45-15.9 16.1-28.25 32.75l-9 2.75-5.45-3.05 15.5-8.8L43.15 17.3 43 12.85m-7.55 2.75 1.95-2.35q1 1 .6 2.8-1.25-1.9-2.55-.45" fill="#ff8e01"/><path d="m7.1 47.1.2-.95 11.7-6.6.7-1.3q1.2-3.75-2.4-2.1.95-1.25 1.85-1.8 3.45 1.3.65 5.75l-12.7 7m30.3-33.85-1.95 2.35-.35.45v.5l.05.1q.2 8-5.7 13.6-2 4.3-4.35 5.1l.35-.25 5.6-8.65q4.35-3.5 3.2-8.75-.2-4.05 2.55-4.95l.6.5M16.15 50.8l-1.9.55L8.3 49.1l2.4-1.35 5.45 3.05" fill="#fef10f"/><path d="m7.5 45.15 1.15-5.2 7.9-4.25q-.4.9-.15 1.95l-1.5 1.1-.4 2.35-7 4.05m1.6-7.25.3-1.55q6.55-3.75 13.35-9.6L41.3 0q.9 4.45 1.4 9.05l-1 2.45.4 4.15-4.8 3.25q-1.55-.35-1.5-2.9 1.55-1.1 1.75 1.15 2.2-1.65 0-4.95l-1.3.05 4.7-7.6-.2-2.15L23.1 27.65 9.1 37.9m24.55-21.7-.1 1.4q.95 3.55-1.7 6.85l.95-5.65-11.9 14.45-2.35.3.8-.95 14.3-16.4" fill="#6d9205"/><path d="m31.85 24.45-1.2 1.25-5.6 8.65-1.2.95q-1.15-1.8-2.95-2.05L32.8 18.8l-.95 5.65M16.4 37.65q4-2.45 2.5.9l-4.4 2.55.4-2.35 1.5-1.1" fill="#a5ba01"/><path d="m54.6 26.7-1.4 4.15-14.05 13.5-11.05 3.3 1.05-1.4 1.95-.65 1.35-.4 1.2-.35 4.55-1.45 16.4-16.7" fill="#302958"/><path d="m8.65 39.95.45-2.05q4.35-1.25 10.25-5.3l-.8.95q-1.55.95-2 2.15l-7.9 4.25" fill="#fff"/></g><g id="y" fill-rule="evenodd"><path d="m76.55 16.05-1.95 1.6-5.4 2.05q7.05-5.65 11.45-13.25l2.4-.6-6.5 10.2m-8.85 8.2q-3.7 3.9-6.8 8.3L62 25.1l5.9-4.2-.2 3.35m-8.45 2.5-3.9 5.75 1.05-8.05-5.05 6.8-.85-2.4L60.7 16.7l-3.55 10.6 2.1-.55M85.7 25l3.05-4 6.75-5.3 1.85.35-6 6.9 4.4-1.7 1.6 1.7L85.7 25M58.55 3.2l1.05 11.25L54 19.5l4.55-16.3" fill="#e6d291"/><path d="m74.6 17.65 1.95-1.6-.6 1.75q-3.1 9-8 17.55 9.6-7.8 20.8-14.35l-3.05 4-9.2 11.95-1.95 1.25L86.1 23.25q-3.15 2.05-6.3 4.25-6.95 4.9-14 10.55l9.1-19.65-1.4 1.4q-4.05 3.9-7.9 8.5l-.05.05q-6.5 7.75-12.4 17.35l1.3-2.3 1-1.75 4.7-8.2 1.15-8.7-1.2 1.85-3.05 4.85-3.6 5.65-.4-1.15 2.3-3.45 3.9-5.75 3.2-4.85-.45 3.2-1.1 7.45q3.1-4.4 6.8-8.3 3.2-3.45 6.9-6.6" fill="#382e6b"/><path d="m83.05 5.85-2.4.6q-10.55 2.9-21.05 8L58.55 3.2 43.4 24.45l-.1-.95L59.3 0q1.75 5.05 2.15 11Q70.6 7.4 81.2 5.25q3.8-.8 6.6-3.2-.3 6.55-3.25 12.15 10-1.2 18.45 1.1l-4.25 5.5-1.4 2.15-1.6-1.7 4.55-4.45-2.95-.75-1.85-.35q-6.6-.9-13.85 1.1l.75-2.2 3.2-9.35-2.55.6" fill="#aa8c60"/><path d="M80.65 6.45q-4.4 7.6-11.45 13.25l5.4-2.05q-3.7 3.15-6.9 6.6l.2-3.35-5.9 4.2.45-3.2-3.2 4.85-2.1.55 3.55-10.6-10.2 12.15-2.95-8.25-3.65 8.7-.5-4.85L58.55 3.2 54 19.5l5.6-5.05q10.5-5.1 21.05-8m-4.15 30.5L85.7 25l11.65-2.05-1.4 2.15q-7.85 4.65-15.75 9.55l-3.7 2.3M88.75 21q-11.2 6.55-20.8 14.35 4.9-8.55 8-17.55l6.45-3.2-.75 2.2q7.25-2 13.85-1.1L88.75 21" fill="#fff8c8"/><path d="m76.55 16.05 6.5-10.2 2.55-.6-3.2 9.35-6.45 3.2.6-1.75M55.35 32.5l-2.3 3.45-1.7-4.7 5.05-6.8-1.05 8.05m42-16.45 2.95.75-4.55 4.45-4.4 1.7 6-6.9" fill="#bc9d6d"/><path d="m53.05 35.95.4 1.15-1.05 4-.3-.7-1.5-3.6-1.6-3.9-.65-1.6-.35-.7-1.85 3.15q-1.05 5.8.95 6.7 1.65-1.35 0-2.35.2-.75.7-.95l.55-.05 1.7 1q1.3 3.05 0 5.5l-1.1 1.15-1.2.75q-1.35.5-2.7 0v4.85l-.6.7-4.9 6.1 1.95 2.3q-3 4-3.35 7.3l4.65-2.15-.7 1.75-.7 1.8-2.9 1.6-1.45.8-1.2.65-1.15.65-7-6.3 1.1-1.8.6.55-.6 1.15 6.15 5.45 1.5-.85 4.75-2.6v-1.2l-3.95 1.85q.2-4.7 3.3-8.65L38.5 57.1l2.95-3.45 2.9-3.45v-5.4q3.35 1.05 5.3-2.15l.3-2q.15-3.05-2.1-2.95 1.9 2.7-.7 3.9-2.6-.55-2.25-5.8.35-2.15 1.2-3.8.65-1.2 1.55-2.15l.6-.6 4.05 9.6.5-1.5-4.5-12.8-.7-1.9q-5.1 10.95-6.65 22.7v.05l-.5 5.5-4.8 5.7-1.55 1.85.9.35 2.05.85-.65 3.85-5.15 2.4q2-1.25 4.05-2.55l.7-.45v-2.6l-1.65-.9-1.6-.85 3.45-3.85 2.3-2.6 1.15-1.3-.05-1.4v-.95q.05-2.85.4-5.65.25-1.9.65-3.7.9-3.9 2.45-7.7l-.55-4.35-.4-3.1-2.55 6.6-.3-2.3 3.6-8.65.4 3.9.1.95.5 4.85 3.65-8.7 2.95 8.25.85 2.4 1.7 4.7m42.9-10.85q-17.1 22.35-39 43.15l-6.7.8-.8.1-.9.1-1 .1-.15-1.5-.15-1.55-.35-3 .8-1.65 2.45-5.05.15 1.55.1.8.3 2.4q-1 1.1-1.2 2.5-.1.75-.05 1.6.45 2.5 1.8-1.25 1.25.95 2.9 0 1.9-2.15 0-3.65.45-2.05 2.65-3.1 1.2-.5 2.1-.6 1.55-.15 2.1 1.05l.25 1.2q-1.65-.45-2.25 1.3.4 1.55 2.1.8 2.45-1.1 2-4.05L66 54.2 76.95 43l7.15-7.25 1.55-1.6-1.65.15-1.55.15-2.25.2q7.9-4.9 15.75-9.55m-4.3 3.4-8.1 5.25L87 33.2 63.85 57.3l-.6 3.25 11.1-11.3 19.2-22-1.9 1.25M60.6 63.25l1.5-1.5q-2.3 1.55-3.7-.6-.25-2 1.95-2.95l-.55-.15q-2.65-.75-4.7 2.25l.35.55.35 1.25q.05 1.1-.7 2.4-1.8 1.35-3.7.9-1.1 1.75-1.75 1.5-.55-.15-.85-1.5-.05-2.15 1.1-4.15l-.15-1.95-2.05 4.05.35 3.05.2 2 8.55-1.3 3.8-3.85" fill="#cc6004"/><path d="m57.05 31.45 3.05-4.85-4.65 15.05-1 1.75-3 4 5.6-15.95m8.5-3.1.05-.05q3.85-4.6 7.9-8.5L55.2 50.6l-1.5 1 1.15-2.65q-3.4-2.9 2.05-3.65l8.65-16.95m14.25-.85q3.15-2.2 6.3-4.25L66.7 43.2l-3.85 2.45q8.05-9.8 16.95-18.15m2.65 6.95L84 34.3l-8.2 6.5q-12.55 9.7-25.4 18.15l-.1-.8 2.4-4.7 6.5-4 23.25-15m-41.5 10.9q1.55-11.75 6.65-22.7l.7 1.9-.65 5.3q-.9.95-1.55 2.15l-.3-2.35q-2.25 4.8-2.4 9.2 1.2 4.6 4.65 4.45-1.5 1.15-3.5.35l-2.2-3-1.4 4.7m6.85-8.2q-.5.2-.7.95 1.65 1 0 2.35-2-.9-.95-6.7L48 30.6l.35.7q-.9 2.95-.55 5.85M35.65 56.6l5.8-2.95-2.95 3.45-3.5 1.7-.9-.35 1.55-1.85m8.8-5.55.6-.7V45.5q1.35.5 2.7 0-1.7 9.65-4.3 17.35.95-5.95 1-11.8m-4.85-2.6v.95q-5.2 2.15-10.35 3.65-10.05 2.85-20 3.1H5.6l-1.75-.7L15.1 51.9q10.45 1.85 24.5-3.45m-1.1 3.65-2.3 2.6q-.15-3.8 2.3-2.6m-4.15 7.3 1.65.9v1.3q-1.85.1-1.65-2.2M40 42.8l-2.5 1.65q.25 6.4-4.85 2.8l-5.85.95 2.95-.95 8.6-16.2L40 42.8m19.8 15.25-4.35 2.8-.35-.55q2.05-3 4.7-2.25M48.25 68.4l-.2-2 .75-1q.3 1.35.85 1.5l-1.4 1.5" fill="#fff"/><path d="m74.55 38.2 1.95-1.25 3.7-2.3 2.25-.2-23.25 15-6.5 4-2.4 4.7-.15-1.55 1.55-3.25-1.1-6.55 1.5-6.4.3.7-1.25 5.65 1.3 5.65 1.25-.8 1.5-1 5.1-3.3 2.55-1.65 3.85-2.45 7.85-5" fill="#587d07"/><path d="M91.65 28.5 87 33.2l-3.45.55 8.1-5.25m-50.7 16.85 1.4-4.7 2.2 3-.2 1.15v5.4l-2.9 3.45-5.8 2.95 4.8-5.7.5-5.5v-.05m7.1-2.05q-3.45.15-4.65-4.45.15-4.4 2.4-9.2l.3 2.35q-.85 1.65-1.2 3.8-.35 5.25 2.25 5.8 2.6-1.2.7-3.9 2.25-.1 2.1 2.95-.85 1.8-1.9 2.65m-5.5-16.25-2.35 8.1-.6-4.6 2.55-6.6.4 3.1M31.25 65.9l5.15-2.4.65-3.85v5.2l-1.8 1.1 1.2 4.1-1.5.85-6.15-5.45.6-1.15 1.85 1.6m28.55-7.85.55.15q-2.2.95-1.95 2.95 1.4 2.15 3.7.6l-1.5 1.5q-2.55.15-3.85-1.95l-.95.8-.35-1.25 4.35-2.8M48.05 66.4l-.35-3.05 2.05-4.05.15 1.95q-1.15 2-1.1 4.15l-.75 1" fill="#fef10f"/><path d="m87 33.2 4.65-4.7 1.9-1.25-19.2 22-11.1 11.3.6-3.25L87 33.2M44.55 43.65q2 .8 3.5-.35 1.05-.85 1.9-2.65l-.3 2q-1.95 3.2-5.3 2.15l.2-1.15m3.1-13.8.65-5.3 4.5 12.8-.5 1.5-4.05-9.6-.6.6m-7.45 5.3 2.35-8.1.55 4.35q-1.55 3.8-2.45 7.7l-.45-3.95m-3.15 24.5L35 58.8l3.5-1.7 2.05 2.35q-3.1 3.95-3.3 8.65l3.95-1.85v1.2l-4.75 2.6-1.2-4.1 1.8-1.1v-5.2M55.8 62.1l.95-.8q1.3 2.1 3.85 1.95l-3.8 3.85-8.55 1.3 1.4-1.5q.65.25 1.75-1.5 1.9.45 3.7-.9.75-1.3.7-2.4" fill="#ff8e01"/><path d="m84 34.3 1.65-.15-1.55 1.6-8.3 5.05 8.2-6.5" fill="#e8ff21"/><path d="m73.5 19.8 1.4-1.4-9.1 19.65-4.1 6.9q-.75-1.65-1.45 0-.35 1.25.9.9l-.85 1.45-5.1 3.3 18.3-30.8" fill="#5391c7"/><path d="M86.1 23.25 74.55 38.2l-7.85 5 19.4-19.95" fill="#3f367a"/><path d="m53.45 37.1 3.6-5.65-5.6 15.95 3-4-1.3 2.3q5.9-9.6 12.4-17.35L56.9 45.3q-5.45.75-2.05 3.65L53.7 51.6l-1.25.8-1.3-5.65 1.25-5.65 1.05-4m12.35.95q7.05-5.65 14-10.55-8.9 8.35-16.95 18.15L60.3 47.3l.85-1.45.55-.9 4.1-6.9m-26.2 10.4q-14.05 5.3-24.5 3.45l11.7-3.7 5.85-.95q5.1 3.6 4.85-2.8L40 42.8q-.35 2.8-.4 5.65m-6.85 10.1 1.6.85q-.2 2.3 1.65 2.2v1.3l-.7.45q-3-1.15-2.55-4.8" fill="#62d4fe"/><path d="M76.95 43 66 54.2l-5 3.7q-.55-1.2-2.1-1.05L76.95 43M49 32.9l1.6 3.9-.55 1.3-1.7-1 .65-4.2m-.05 11.85 1.1-1.15q.3 9.05-2.35 18.05l-3.05 1.85q3.25-8.45 4.3-18.75" fill="#6d9205"/><path d="M84.1 35.75 76.95 43 58.9 56.85q-.9.1-2.1.6-2.2 1.05-2.65 3.1l-4.65 3.3q.2-1.4 1.2-2.5l-.3-2.4Q63.25 50.5 75.8 40.8l8.3-5.05M48.35 31.3l.65 1.6-.65 4.2-.55.05q-.35-2.9.55-5.85m-.6 14.2 1.2-.75q-1.05 10.3-4.3 18.75l-1.85 1.1-4.65 2.15q.35-3.3 3.35-7.3l-1.95-2.3 4.9-6.1q-.05 5.85-1 11.8 2.6-7.7 4.3-17.35" fill="#b9ff4b"/><path d="m66 54.2-2.9 2.95q.45 2.95-2 4.05-1.7.75-2.1-.8.6-1.75 2.25-1.3L61 57.9l5-3.7m-15.85 2.4-2.45 5.05q2.65-9 2.35-18.05 1.3-2.45 0-5.5l.55-1.3 1.5 3.6-1.5 6.4 1.1 6.55-1.55 3.25" fill="#a5ba01"/><path d="m60.1 26.6 1.2-1.85-1.15 8.7-4.7 8.2L60.1 26.6" fill="#4a67a4"/><path d="m28.8 63.75-2.5-2.15Q12.6 61.45 0 55.4l28.55-9.55 10.6-18.8.15 1.2.3 2.3.6 4.6.45 3.95q-.4 1.8-.65 3.7l-1.65-11.75-8.6 16.2-2.95.95-11.7 3.7-11.25 3.55 1.75.7q8.1 3.15 18.6 4.4l3.3.3 3.75 5.05-1.85-1.6-.6-.55" fill="#2e2759"/><path d="M29.25 53.05q5.15-1.5 10.35-3.65l.05 1.4-1.15 1.3q-2.45-1.2-2.3 2.6l-3.45 3.85q-.45 3.65 2.55 4.8-2.05 1.3-4.05 2.55l-3.75-5.05q-3.2-3.55 1.75-7.8" fill="#5dbfee"/><path d="M61.15 45.85q-1.25.35-.9-.9.7-1.65 1.45 0l-.55.9" fill="#fafeff"/><path d="M9.25 56.15q9.95-.25 20-3.1-4.95 4.25-1.75 7.8l-3.3-.3-14.95-4.4" fill="#528dc3"/><path d="m48.55 69.25.9-.1v1.65q-3.7 2.85-6.35 8.1.4-2.5 1.95-4.85 1.35-2.05 3.5-3.95v-.85M5.6 56.15h3.65l14.95 4.4q-10.5-1.25-18.6-4.4" fill="#f8bbbb"/><path d="m47.7 61.65-.8 1.65.35 3-1.5 2.05-1.45-1.6q-1.25.4-2.2-.4l.7-1.75 1.85-1.1 3.05-1.85m-.3 6.2.15 1.5 1-.1v.85q-2.15 1.9-3.5 3.95.2-2.6-.9-5l.35-.6 1.25 1.1 1.65-1.7" fill="#4c8965"/><path d="M54.15 60.55q1.9 1.5 0 3.65-1.65.95-2.9 0-1.35 3.75-1.8 1.25-.05-.85.05-1.6l4.65-3.3" fill="#6f9305"/><path d="M50.25 69.05v2.05q-4.2 3.4-6.8 8.85l-4.75 4.6-1.1-5.9q2-2.05 1.2-5.85l-2.95-1.6 1.2-.65 2 .95.6-1.6q.6.3 1.2.55l1.25.55 1.85-3.65.35-.6 1.45 1.6 1.5-2.05.15 1.55-1.65 1.7-1.25-1.1-.35.6-1.65 3.05-1.15-.45-1.2-.5-.65 1.95q1.25 3.15-.25 6.5V83l.8-.75 2.65-2.55.4-.8q2.65-5.25 6.35-8.1v-1.65l.8-.1" fill="#38654a"/><path d="M39.25 79.6q1.5-3.35.25-6.5l.65-1.95 1.2.5q.45 5-2.1 7.95m-2.2-9.05 1.45-.8 1.15.15-.6 1.6-2-.95" fill="#b9ed8e"/><path d="m43.1 78.9-.4.8-2.65 2.55q3.9-4.55 2.45-10.15l1.65-3.05q1.1 2.4.9 5-1.55 2.35-1.95 4.85m-4.6-9.15 2.9-1.6.7-1.8q.95.8 2.2.4l-.35.6q-1.7.9-3.1 3.1-.6-.25-1.2-.55l-1.15-.15" fill="#69a975"/><path d="m40.05 82.25-.8.75v-3.4q2.55-2.95 2.1-7.95l1.15.45q1.45 5.6-2.45 10.15" fill="#97c273"/><path d="M40.85 70.45q1.4-2.2 3.1-3.1L42.1 71l-1.25-.55" fill="#95c173"/><path d="m46.8 59.55 1.3-3.45q-2.35 1.35-4.2 3.3l-.4.4-.5.6-1.55 2.2-.2.4-.9 1.8 2.55-.9 1.85-.65.75-.25 1.3-3.45m-7.45 5.9q2.85-7.85 10.05-11l-2.4 8.8q-3.75 1.6-7.65 2.2" fill="#587d07"/><path d="M43.9 59.4q1.85-1.95 4.2-3.3l-1.3 3.45-1.85 1.15q-.25-.85-1.05-1.3m-1 4.5-2.55.9.9-1.8q.5 1.05 1.65.9" fill="#bbafd7"/><path d="m42.55 63.35.1-.7.4-.2q.55-.4.4-1.1l.8-.1q.05.65-.3 1.35-.7.85-1.4.75" fill="#ff4348"/><path d="M46.8 59.55 45.5 63l-.75.25q.5-1.5.2-2.55l1.85-1.15m-3.8.85.5-.6q1.4.4.75 1.45l-.8.1-.45-.95m-.45 2.95-1.1-.75 1.2.05-.1.7" fill="#fff"/><path d="m44.75 63.25-1.85.65q-1.15.15-1.65-.9l.2-.4 1.1.75q.7.1 1.4-.75.35-.7.3-1.35.65-1.05-.75-1.45l.4-.4q.8.45 1.05 1.3.3 1.05-.2 2.55" fill="#7d1313"/><path d="M41.45 62.6 43 60.4l.45.95q.15.7-.4 1.1l-.4.2-1.2-.05" fill="#5d0c0a"/></g><g id="l"><use ffdec:characterId="28" height="117.25" transform="scale(.87)" width="57.5" xlink:href="#o"/><use ffdec:characterId="30" height="121.45" transform="matrix(.87 0 0 .87 17.6 66.05)" width="63.3" xlink:href="#p"/></g><g id="z" fill-rule="evenodd"><path d="m45.8 15.35-3.15-4.5v2.25q4 7.95 6.75 16.8v.05q2.75 8.95 4.15 18.8L47.6 60.8l.45 1.7.45 1.75q3.45-4.95 5.8-11.45l1.5-4.8q-2.85-20.85-10-32.65M30.05 39.9V27.8l-4.3 6.95Q23.7 20.8 25.75 6l6.55 4.45L34.15 0l7.45 10.45v-3.7q13.75 15.75 15.9 41.4-1.7 6.8-4.85 12.15l-1.35 2.1-1.45 1.9-1.7 2-1.05-1.9-1-1.85L42 71.7l-2.15-2.25-.05-2.5 1 1.2 1 1.2 7.55-14.45 2-3.8 1.2-2.25q-3.6-25.05-14.2-40.2l-3.85-4.9v9.5Q41.4 24.2 44.7 36.8l.25 1q1.4 5.65 2.1 11.6l-7.3 14.55-.05-2.15 6-12.5q-3.4-26.05-16-38.35h-.05l-2.05-1.9q-2 9.5-1.2 20.2L29.5 23q2.4 5.7 2.6 13.35l-2.05 3.55" fill="#51487d"/><path d="M49.4 29.9q-2.75-8.85-6.75-16.8v-2.25l3.15 4.5 3.6 14.55m-17.3 6.45Q31.9 28.7 29.5 23l-3.1 6.25q-.8-10.7 1.2-20.2l2.05 1.9h.05q4.75 6.65 6.55 13.65 1.85 6.9.85 14.15L35.45 31l-3.35 5.35m12.6.45q-3.3-12.6-10.2-23.55v-9.5l3.85 4.9q5.3 15 6.35 28.15M33 39.1l1.35-2.3.5 2.75-2.4 10.1-1.25 3.6-.4-2.2L28.25 60q.9-10.1 4.75-20.9M6 103.5l-1-2.2 3.3-6.15v-3.4h1.1v-2.2q1 1 1.5 2.55l-1.3 2.2-1.75 3.55L8 99.2l-2 4.3m20.45-34.1 1.4-1.45 2.9-3-.4 2.45L13.85 88q7.4-7.9 15.15-15.15l-.65 1.9-.75.9q-8.2 8.1-15.85 18.05-.15-1.25-.65-2.3-.55-1.2-1.5-2.1l3.75-4.6 7.25-9 .15.8 5.7-7.1" fill="#fff"/><path d="M52.65 60.3 51.6 76.1l-17 12.85-.8-.7 10.75-8.3 5.65-4.35 1.1-13.2 1.35-2.1m-35.7 38.65-6.9 18.3L0 94.85 7.45 76.2l2.9-2.7 3.05-2.9 6-5.6 2-6.2.95-2.6q3.15-8.15 7.7-16.3l2.05-3.55L35.45 31l1.65 7.75 1.5 9.6q.65 5.5.95 10.95l.15 2.5.05 2.15.05 3 .05 2.5-.3 8.2-9.35 7.55-1.1.85-1.05.9-9.4 7.55-1 2.6-.7 1.85M47.1 64.4l1.05 1.9-.2 7.65-15.4 13.25-.9-.75L45 75.1l2.1-1.8v-8.9M34.85 39.55l-.5-2.75L33 39.1q-6.2 11.15-11.9 27.55L9.15 78.25 6.6 84.2v.1L2.15 94.8 5 101.3l1 2.2 1.05 2.35 2.85 6.35 6.85-17.95.4-1.1q6.15-4.9 12.35-9.85l8.2-6.55q0-11.55-.9-21.65v-.15q-.7-8.15-1.95-15.4" fill="#cc6004"/><path d="M45.8 15.35q7.15 11.8 10 32.65l-1.5 4.8-6.25 9.7-.45-1.7 5.95-12.05q-1.4-9.85-4.15-18.8v-.05l-3.6-14.55m-6.05 48.6 7.3-14.55q-.7-5.95-2.1-11.6 4.4 5.95 6.4 13.3l-2 3.8-8.55 13.25-1-1.2-.05-3m-2.65-25.2q1-7.25-.85-14.15 5.1 12.6 2.35 23.75l-1.5-9.6" fill="#8281a4"/><path d="M29.7 10.95q12.6 12.3 16 38.35l-6.15 10q-.3-5.45-.95-10.95 2.75-11.15-2.35-23.75-1.8-7-6.55-13.65M44.95 37.8l-.25-1q-1.05-13.15-6.35-28.15 10.6 15.15 14.2 40.2l-1.2 2.25q-2-7.35-6.4-13.3" fill="#bbafd7"/><path d="M39.85 69.45 42 71.7l4.1-9.15 1 1.85L45 75.1 31.65 86.45 30.2 85.2l9.35-7.55.3-8.2m8.3-3.15 1.7-2v10.4l-5.3 5.25-10.75 8.3-1.25-1.05 15.4-13.25.2-7.65m-15.7-16.65 2.4-10.1q1.25 7.25 1.95 15.4V75.6l-7.3 7.7q-6.2 4.95-12.35 9.85l-.4 1.1L9.8 109.4l-2.75-3.55L6 103.5l2-4.3q.55 2.55 2.45 3.5 2.2-7.8 6.25-11.95 8.6-6.45 13.5-13.25l-2.9 1.15 3.2-4.25q3.55-11.6 1.95-24.75M10.9 92.1l.4 2.35-1.7-.15v3.55H7.85L9.6 94.3l1.3-2.2" fill="#ff8e01"/><path d="M54.3 52.8q-2.35 6.5-5.8 11.45l-.45-1.75 6.25-9.7m-10.65 56.45-.8.75L36 99.25V94.3l-7.95-7.35 1.05-.9 7.95 7.75v4.5l6.6 10.95M45.7 49.3l-6 12.5-.15-2.5 6.15-10m3.65 5.6L41.8 69.35l-1-1.2 8.55-13.25" fill="#f8bbbb"/><path d="M10.35 73.5q3.4-10.7 12-17.3l-.95 2.6q-5.75 5.55-8 11.8l-3.05 2.9" fill="#2e2759"/><path d="m28.25 60 2.55-8.95.4 2.2q1.9 11.5-2.1 21.6-4.7 4.6-1.8 3.8l2.9-1.15q-4.9 6.8-13.5 13.25-4.05 4.15-6.25 11.95-1.9-.95-2.45-3.5l-.15-1.35H9.6V94.3l1.7.15-.4-2.35q-.5-1.55-1.5-2.55v2.2H8.3v3.4H6.15l-.95 2.6-1.6-3.95 3-9.5v-.1l7.75-7.65v4q4.7-4.45 6.1-9.8l1 4.1 4.3-5.95 2.5-8.9m2.75.05-.35-4.95-4.2 14.3-5.7 7.1-.15-.8-.45-2.2q-1.95 4.55-5.45 7.75l-1 .8V78.4l-6.4 6.4-2.9 8.9.75 1.9v-1.8l2 .55v-3.5h1.2l.5-2.2.75.65q.95.9 1.5 2.1.5 1.05.65 2.3l.1 1.15-1.6.45v3.8h-1.6l1.4 2.3q1.75-6.3 7.05-11.85 6.2-4.9 10.7-10.4-3.85.9-.2-3.5l.75-.9.65-1.9 1.35-5.45.4-2.45.25-4.9" fill="#587d07"/><path d="m26.45 69.4 4.2-14.3.35 4.95-3.15 7.9-1.4 1.45M5.15 93.8v1.8l-.75-1.9 2.9-8.9 6.4-6.4v2.3l-4.5 4.35-4.05 8.75m9.55-12.55q3.5-3.2 5.45-7.75l.45 2.2-7.25 9 1.35-3.45" fill="#b9ff4b"/><path d="M33 39.1Q29.15 49.9 28.25 60l-2.5 8.9-4.3 5.95-1-4.1q-1.4 5.35-6.1 9.8v-4L6.6 84.2l2.55-5.95 11.95-11.6Q26.8 50.25 33 39.1m-1.8 14.15 1.25-3.6q1.6 13.15-1.95 24.75l-3.2 4.25q-2.9.8 1.8-3.8 4-10.1 2.1-21.6M5 101.3l-2.85-6.5L6.6 84.3l-3 9.5 1.6 3.95.95-2.6H8.3L5 101.3" fill="#fef10f"/><path d="m27.85 67.95 3.15-7.9-.25 4.9-2.9 3M9.6 89.3l-.75-.65-.5 2.2h-1.2v3.5l-2-.55 4.05-8.75 4.5-4.35v1.35l1-.8-1.35 3.45-3.75 4.6" fill="#e8ff21"/><path d="M30.35 67.4 29 72.85Q21.25 80.1 13.85 88l16.5-20.6m-2.75 8.25q-3.65 4.4.2 3.5-4.5 5.5-10.7 10.4-5.3 5.55-7.05 11.85l-1.4-2.3h1.6v-3.8l1.6-.45-.1-1.15q7.65-9.95 15.85-18.05" fill="#a5ba01"/><path d="m49.85 64.3 1.45-1.9-1.1 13.2-5.65 4.35 5.3-5.25V64.3M36.8 55.1q.9 10.1.9 21.65l-8.2 6.55 7.3-7.7V55.1M16.75 94.25 9.9 112.2l-2.85-6.35 2.75 3.55 6.95-15.15M45 75.1l2.1-10.7v8.9L45 75.1" fill="#f7bab9"/><path d="m21.4 58.8-2 6.2-6 5.6q2.25-6.25 8-11.8" fill="#4b68a4"/><path d="m18.4 98.85-.75-1.75 1-2.6 9.4-7.55L36 94.3v3.8q-9.55-12.45-17.6.75" fill="#4c8965"/><path d="M34.6 88.95 39 92.7l-.95 5.8 7 9.4-1.4 1.35-6.6-10.95v-4.5l-7.95-7.75 1.1-.85 1.45 1.25.9.75 1.25 1.05.8.7m3.45 25.55-1.4 1.25q-5.45-6.5-17.05-9.15l-2.65-7.65.7-1.85.75 1.75 3.05 6.9q6.35.65 11.2 3.85 2.95 1.95 5.4 4.9" fill="#38654a"/><path d="m40.9 111.85-2.85 2.65q-2.45-2.95-5.4-4.9.9-11.65-6.8-13.85 1.75-.6 4.1-.45 6.75 3.55 10.95 16.55" fill="#b9ed8e"/><path d="m42.85 110-1.95 1.85q-4.2-13-10.95-16.55-2.35-.15-4.1.45-5 1.75-4.4 10l-3.05-6.9q8.05-13.2 17.6-.75v1.15L42.85 110" fill="#69a975"/><path d="M25.85 95.75q7.7 2.2 6.8 13.85-4.85-3.2-11.2-3.85-.6-8.25 4.4-10" fill="#97c273"/></g><g id="A" fill-rule="evenodd"><path d="m28.45 12.25-2.8 8.45 1 5.15.95 5.15-2.95 8.4q4.8 12.7 1.2 26.95 3.2 12.6 4.65 25.2l.95 12.6-3.1-1.4 1.45 4.5 1.75 5.5 1.85 5.8q7.35-21.5 6.15-52.2Q39 52.5 35.1 38.85q2.75-14.95-3.85-35.1l-2.8 8.5m-3 16.2-.4-2.15-1.35-7.35L30.9 0q5.05 10.6 6.45 23.5L46.1 4.3l3.65 18.55L55.9 12.5l2.35 20-2.9 7.1L60 61.15q6.6 29.3 0 53.3-4.55-10.25-5.4-21.75l2.05 1.5-3.25-18.6q1.9 25.35-7.95 45.45L40.3 99.7q-2.1 12.6-7.1 21.75l-2-5-2.15 1.45Q17.1 96.65 20.6 73.55L22 75.1q-.45 7.9.05 14.6 1.3 16.15 8.5 25-2.45-7.15-3.95-15.55l1.2.95 2.45 1.95-.95-7.45-.75 1.15-.7 1.15.15-12.35q-.55-4.8-1.5-9.7l-.4-1.95-1.3-5.6-.35-1.4.5-1.7q1-3.95 1.2-7.9l.05-1.4q.05-7.8-3.15-15.8l1.5-3.7L26 31.75l-.55-3.3M6.65 42.2l.15 1.45-3.95-3.95L1.2 38v18.85L5.3 68.5q.05 33.8 10.95 50.05 2-9.55 1.85-21.1l-3 3.25Q13.75 86.45 16.25 69l1.3 1.35q-1.9 14.55-1.4 27l2.85-2.4q2 15.5-2.4 26.1Q3.45 103.2 4.1 69.7L0 56.35v-21.7l6.65 7.55m32.9-19.75-1.65 3.8-1.4 13.5q2.85 9.65 4.85 29.35l1.15 5.1q2.65 13.2 2.3 26.15l-.1 2.05-3-2.6 2.7 10.3 1.5 5.85q8-15.6 5.8-49.2l-5.95-27.7 2.5-13.45-2.5-17.1-1.5 3.35-4.7 10.6m20.7 85.75q4.25-22.35-2.75-51.25L53.85 39.2l2.7-7.2-1.4-15.1-5.7 9.7-2.5 13q1.6 5.5 2.8 11 1.8 8 2.85 16l.8 6.85q3.85 11.6 4.65 23.15H56q.9 8.5 3.8 13.8l.45-2.2M40.8 95.75l2.5 2.55-1.1-16.8-1.4 14.25M28.55 94.6l.55-1.3-.55-4.35v5.65" fill="#51487d"/><path d="m26.65 25.85-1-5.15 2.8-8.45 2.9 18.2L29.6 40.9v-7.3l-2.95-7.75m4.9 86.9-1.75-5.5 1.65-3.1-.95-12.6 3-31.05q4.85 33.15-1.95 52.25M6.8 43.65l.35 3.75v7l2.75 7.75v5.45l3.65 2.15q-2.5 13.15-3.1 28.45Q7.2 82.6 8.5 64.05L4.55 54.3l-1.7-14.6 3.95 3.95M42.5 74.2q1.5-14.3-2.35-34.8l1-6.25-1.6-10.7 4.7-10.6-.95 18.4-3.15 9.15q4.8 19.15 7.35 38.65.35 5.6.3 10.65-.95 7.1-3 11.65.35-12.95-2.3-26.15m7.25-23.6q7.5 16.15 9.65 36.2l-6.8-20.2q-1.05-8-2.85-16M22 75.1l2.9 3.05 1.6-3.3q.95 4.9 1.5 9.7l-.15 12.35.7-1.15-.75 4.35-1.2-.95-4.55-9.45q-.5-6.7-.05-14.6" fill="#8281a4"/><path d="m11.9 30.95-4.65 5.1 1.6 11.75 2.2 1.75q2.5 2.4 2.9 5.7l-1.7 1.25q-.9-5.3-5-7.6l-.1-1.5-.35-3.75-.15-1.45-.6-6.7 7.65-9.2h11.35l.4 2.15-10.8-.45-2.75 2.95" fill="#302958"/><path d="m11.05 49.55-2.2-1.75-1.6-11.75 4.65-5.1Q19 26.1 24.55 35.4l-1.5 3.7q3.2 8 3.15 15.8l-.75-.55q-1.55-13.2-9.5-17.3-7 .75-4.9 12.5M26.1 72.9l-1.65 2.25-6.65-6.9q.85-.85 1.75-1.4l3.75 5.6 1.5-5.15 1.3 5.6" fill="#6660a3"/><path d="M11.9 30.95 14.65 28l10.8.45.55 3.3-1.45 3.65Q19 26.1 11.9 30.95" fill="#3f3479"/><path d="m29.8 107.25-1.45-4.5 3.1 1.4-1.65 3.1m.7-15.7q-1.45-12.6-4.65-25.2 3.6-14.25-1.2-26.95L27.6 31l-.95-5.15 2.95 7.75v7.3l3.9 19.6-3 31.05M7.25 48.9q4.1 2.3 5 7.6L9.9 58.65v3.5L7.15 54.4v-5.5h.1M42.5 74.2l-1.15-5.1q-2-19.7-4.85-29.35l1.4-13.5 1.65-3.8 1.6 10.7-1 6.25Q44 59.9 42.5 74.2m1.9 35.9-2.7-10.3 3 2.6.1-2.05q2.05-4.55 3-11.65-.25 12.5-3.4 21.4m10.75-93.2L48.7 38.75l1.05 11.85q-1.2-5.5-2.8-11l2.5-13 5.7-9.7m4.25 69.9q1.15 10.2.85 21.4l-.45 2.2q-2.9-5.3-3.8-13.8h2.05q-.8-11.55-4.65-23.15l-.8-6.85 6.8 20.2M10.45 98.2q.6-15.3 3.1-28.45l1.1.65 1.6-1.4q-2.5 17.45-1.15 31.7l3-3.25-5.3 9.8q-1.4-4.4-2.35-9.05m17.35 1.9.75-4.35.75-1.15.95 7.45-2.45-1.95m-1.2-.95q1.5 8.4 3.95 15.55-7.2-8.85-8.5-25l4.55 9.45" fill="#bbafd7"/><path d="m28.45 12.25 2.8-8.5q6.6 20.15 3.85 35.1 3.9 13.65 4.45 27.5 1.2 30.7-6.15 52.2l-1.85-5.8q6.8-19.1 1.95-52.25l-3.9-19.6 1.75-10.45-2.9-18.2m15.8-.4 1.5-3.35 2.5 17.1-2.5 13.45 5.95 27.7q2.2 33.6-5.8 49.2l-1.5-5.85q3.15-8.9 3.4-21.4.05-5.05-.3-10.65-2.55-19.5-7.35-38.65l3.15-9.15.95-18.4m10.9 5.05 1.4 15.1-2.7 7.2 3.65 17.75q7 28.9 2.75 51.25.3-11.2-.85-21.4-2.15-20.05-9.65-36.2L48.7 38.75l6.45-21.85m-31.2 37.85q1.6 5.85-.9 9.5-2.55.25-5.1 1.7 3-5.45.05-9.55l-5.95 2.3q5.45-5.55 9.7-5.5l2.2 1.55M2.85 39.7l1.7 14.6 3.95 9.75Q7.2 82.6 10.45 98.2q.95 4.65 2.35 9.05l5.3-9.8q.15 11.55-1.85 21.1Q5.35 102.3 5.3 68.5L1.2 56.85V38l1.65 1.7" fill="#fff"/><path d="m12.25 56.5 1.7-1.25q3.85-2.6 8.25-3.25l3.25 2.35.75.55-.05 1.4-2.2-1.55-2.2-1.55q-4.25-.05-9.7 5.5l-.7.65v7l2.9 2.25q1.85-1.65 3.7-2.65 2.55-1.45 5.1-1.7l1.9-.05-.5 1.7q-2.6-.45-4.9.95-.9.55-1.75 1.4l6.65 6.9 1.65-2.25.4 1.95-1.6 3.3L22 75.1l-1.4-1.55-3.05-3.2-1.3-1.35-1.6 1.4-1.1-.65L9.9 67.6v-8.95l2.35-2.15" fill="#cc6004"/><path d="m23.95 54.75 2.2 1.55q-.2 3.95-1.2 7.9l-1.9.05q2.5-3.65.9-9.5" fill="#ff8e01"/><path d="M13.95 55.25q-.4-3.3-2.9-5.7-2.1-11.75 4.9-12.5 7.95 4.1 9.5 17.3L22.2 52q-4.4.65-8.25 3.25m5.6 11.6q2.3-1.4 4.9-.95l.35 1.4-1.5 5.15-3.75-5.6" fill="#938dde"/><path d="M12.05 58.7 18 56.4q2.95 4.1-.05 9.55-1.85 1-3.7 2.65l-2.9-2.25v-7l.7-.65" fill="#fef10f"/></g><use ffdec:characterId="2" height="117.5" width="43.1" xlink:href="#q" id="c"/><use ffdec:characterId="4" height="70.55" width="93.45" xlink:href="#r" id="d"/><use ffdec:characterId="6" height="39.75" transform="translate(.35)" width="125.7" xlink:href="#s" id="e"/><use ffdec:characterId="11" height="95.85" width="83.5" xlink:href="#t" id="f"/><use ffdec:characterId="13" height="103.95" width="76.9" xlink:href="#u" id="g"/><use ffdec:characterId="15" height="49.4" width="71.4" xlink:href="#v" id="h"/><use ffdec:characterId="18" height="56.15" width="64.9" xlink:href="#w" id="n"/><use ffdec:characterId="21" height="87.95" width="55.5" xlink:href="#x" id="j"/><use ffdec:characterId="23" height="84.55" width="103" xlink:href="#y" id="k"/><use ffdec:characterId="27" height="117.25" width="57.5" xlink:href="#z" id="o"/><use ffdec:characterId="29" height="121.45" width="63.3" xlink:href="#A" id="p"/><path d="M27.75 0q0 2-8.15 3.4Q11.5 4.9 0 4.9q-11.5 0-19.65-1.5-8.1-1.4-8.1-3.4 0-2.05 8.1-3.5Q-11.5-4.9 0-4.9q11.5 0 19.6 1.4 8.15 1.45 8.15 3.5" fill-opacity=".349" fill-rule="evenodd" transform="translate(27.75 4.9)" id="b"/></defs></svg>