<svg xmlns:ffdec="https://www.free-decompiler.com/flash" xmlns:xlink="http://www.w3.org/1999/xlink" ffdec:objectType="frame" height="90" width="90" xmlns="http://www.w3.org/2000/svg"><use ffdec:characterId="16" height="91" transform="translate(0 -.6)" width="90" xlink:href="#a"/><defs><g id="a" transform="translate(0 .6)"><use ffdec:characterId="6" height="90" width="90" xlink:href="#b"/><use ffdec:characterId="15" height="232.1" transform="matrix(.3919 0 0 .392 10.724 -.585)" width="160.05" xlink:href="#c"/></g><g id="c" transform="translate(14.1 3.15)"><use ffdec:characterId="7" height="40.1" transform="translate(2.45 187.85)" width="121" xlink:href="#d"/><use ffdec:characterId="8" height="96.05" transform="translate(7 -3.15)" width="56.5" xlink:href="#e"/><use ffdec:characterId="9" height="24.05" transform="translate(88.8 160)" width="26.1" xlink:href="#f"/><use ffdec:characterId="10" height="178.25" transform="translate(15.75 39.15)" width="101.2" xlink:href="#g"/><use ffdec:characterId="11" height="41.35" transform="translate(3.65 130.55)" width="26.3" xlink:href="#h"/><use ffdec:characterId="12" height="96.05" transform="translate(88 -.2)" width="57.95" xlink:href="#i"/><use ffdec:characterId="13" height="32.45" transform="translate(88.75 135.9)" width="26.75" xlink:href="#j"/><use ffdec:characterId="14" height="52.85" transform="translate(8.35 120.35)" width="26.65" xlink:href="#k"/></g><g id="e"><path d="M39.8 87.25q-4.8-1.3-10.7-.15-5.45 1.9-8.2 5.45-1.25 1.15-3.7-.35-8.25-6.25-12.3-14.85Q-3.3 60.6 2.2 42.8q6.9-17.35 19.85-21.45Q-1.35 34.3 2.4 61.95q3.55 21.2 17.25 28.45 11.65-8.35 20.15-3.15" fill="#fffbd7" fill-rule="evenodd" transform="translate(1.5 1.5)"/><path d="M47.1 91q-.45-.15-.95-.5-2.85-2.3-6.35-3.25-8.5-5.2-20.15 3.15Q5.95 83.15 2.4 61.95q-3.75-27.65 19.65-40.6Q24 20.7 26 20.4q5.25-.6 7.85-3.5Q39.3 9.25 28.65.1L30.5 0l2.7 1.7q8.9 13.1-3.2 19.9l-11.55 5.15q-14.9 7.8-13.65 31.7.85 15.75 15.8 28.3Q30.25 80 42.85 84.9q3.45 2.7 4.25 6.1M24.25 29.15q-2.7 1.4-4.95 3.6-3.75 3.65-5.95 9.35l-.4 1.1q-.9 4.9-1 9.2-.1 6.3 1.6 11.3 2.25 6.6 7.8 10.8 1.45 1.1 3.15 2.05-12.15-5.3-13.55-19-2.1-21.35 13.3-28.4" fill="#ffc770" fill-rule="evenodd" transform="translate(1.5 1.5)"/><path d="M28.7 27.4q-2.35.65-4.45 1.75-15.4 7.05-13.3 28.4 1.4 13.7 13.55 19 2.35 1.3 5.1 2.25l2.55.8q6.95 2.2 10.7 5.3-12.6-4.9-22.25 1.85Q5.65 74.2 4.8 58.45q-1.25-23.9 13.65-31.7L30 21.6q12.1-6.8 3.2-19.9 3.35 2.5 5.2 6.15 1.45 3 1.9 6.8l-.05 1.65q-.45 4.7-4.45 7.8-2.2 1.7-5.5 2.9l-1.6.4" fill="#bb4100" fill-rule="evenodd" transform="translate(1.5 1.5)"/><path d="m40.2 4.9 2.05 3.9q.85 2.1 1.4 4.75.5 3.45.05 6.45-.9 6.15-5.95 10.5-2.15 1.8-4.9 3.3l-.4.2q-1.1.55-2.1 1.2-4.15 2.75-5.95 6.7l-.15.5q-1 2.95-1.3 5.6-.25 2.9.3 5.45.55 2.8 2.05 5.05l1.05 1.6q1.45 2.2 3.7 4.05 2.75 2.2 6.4 3.05l5.35.55 5.8-.2q3.95 2.2 5.1 6.85 2.2 7.85-1.6 14.35-2.1 2.75-4 2.25-.8-3.4-4.25-6.1-3.75-3.1-10.7-5.3l-2.55-.8q-2.75-.95-5.1-2.25-1.7-.95-3.15-2.05 3.2-7.75 8.7-10.35-5.5 2.6-8.7 10.35-5.55-4.2-7.8-10.8 5.35-5.55 12.8-3.6-7.45-1.95-12.8 3.6-1.7-5-1.6-11.3.1-4.3 1-9.2l.4-1.1q2.2-5.7 5.95-9.35 2.25-2.2 4.95-3.6 2.1-1.1 4.45-1.75l1.6-.4q3.3-1.2 5.5-2.9 2.15 2.95 1.95 6.4.2-3.45-1.95-6.4 4-3.1 4.45-7.8l.05-1.65q-.45-3.8-1.9-6.8 2.15-.7 3.85.95-1.7-1.65-3.85-.95-1.85-3.65-5.2-6.15L30.5 0h.65q3.2.1 5.6 1.6-1.75-.05-.1 1.5 1.75 1.5 2.4 2.65 1.1 1.7 1.15-.85m-15.8 37q-.7-5.8-5.1-9.15 4.4 3.35 5.1 9.15m5.95-6.7q.35-3.85-1.65-7.8 2 3.95 1.65 7.8M41.6 12.65q.15 1.2.45 1.9.3.7.6.6.3-.15.3-1l-.2-1.85-.55-1.75-.5-.65q-.2.05-.2.85l.1 1.9M43.7 20q-.9-2.45-3.45-3.7 2.55 1.25 3.45 3.7m-12.15 9q.7 1.2.4 3.65.3.4 1-.15 2.65-1.55 3.25-2.65.15-3.95-1.45-3L31.55 29m8.9-7.15q-.6 1.55-1.6 2.45-.45.75 0 1.8.25.5.7.3 2.15-1.15 2.7-5.8-.85-1.55-1.8 1.25m-11.7 12.5q.45-4.2-1.15-4.2-2.85.65-3.65 2.45 1.05 1.1 1.5 2.65.35 1.65 1.05 1.1l2.25-2m-5.65 7q-1.4-6.3-3.05-5-1.7.95-1.9 4.1 2.05.95 4.15 3.25.95-1.15.8-2.35M22.95 48q-2.55-5.45-9.6-5.9 7.05.45 9.6 5.9m.3 5.45q-6-3.2-11.3-1.05 5.3-2.15 11.3 1.05m-8.4-4.7q-.05.75.45.55 3.05.1 5.85 1.55.85.3.8-2.65-2.25-3.35-6.15-3.25-.85.15-.95 3.8m.45 5.15q-.4 3.65 1.4 4.85l1.15-.2 5.65-.3q.9.05.15-1.05-.85-1.15-1.2-3.1-6.8-2.2-7.15-.2m9.75 7.25q-3.85-.75-6.55 1.7-1.1.95 2 4.1l2.15.05q2.2-2.5 4.5-2.8 1.3-.15-2.1-3.05m11.4 6.05q-3.2 4.4-4.3 12.4 1.1-8 4.3-12.4m-11.3 5.55q2.5.7 4.75 2.25.6.15.85-1.1 1.2-3.7 3.2-6.05.25-.45-1.05-.95-1.7-1.15-3-1.25-4.2 2.45-4.75 7.1m22.4-4.4q-3.5-.45-2.7 1.05 3.15 4.4 1.7 11.85l3.7 2.5q2.55-8.95-2.7-15.4M42.1 80q1.45-5.05.1-9-.7-1.75-1.55-2.1-4.75-2.35-5.1 8.3 3.55.75 6.55 2.8m-.3-12.25q6.35 9.35 1.05 17.15 5.3-7.8-1.05-17.15" fill="#be4100" fill-rule="evenodd" transform="translate(1.5 1.5)"/><path d="M36.75 1.6q2 1.2 3.45 3.3-.05 2.55-1.15.85-.65-1.15-2.4-2.65-1.65-1.55.1-1.5m4.85 11.05-.1-1.9q0-.8.2-.85l.5.65.55 1.75.2 1.85q0 .85-.3 1-.3.1-.6-.6t-.45-1.9M31.55 29l3.2-2.15q1.6-.95 1.45 3-.6 1.1-3.25 2.65-.7.55-1 .15.3-2.45-.4-3.65m8.9-7.15q.95-2.8 1.8-1.25-.55 4.65-2.7 5.8-.45.2-.7-.3-.45-1.05 0-1.8 1-.9 1.6-2.45M23.1 41.35q.15 1.2-.8 2.35-2.1-2.3-4.15-3.25.2-3.15 1.9-4.1 1.65-1.3 3.05 5m5.65-7-2.25 2q-.7.55-1.05-1.1-.45-1.55-1.5-2.65.8-1.8 3.65-2.45 1.6 0 1.15 4.2m-13.9 14.4q.1-3.65.95-3.8 3.9-.1 6.15 3.25.05 2.95-.8 2.65-2.8-1.45-5.85-1.55-.5.2-.45-.55m10.2 12.4q3.4 2.9 2.1 3.05-2.3.3-4.5 2.8l-2.15-.05q-3.1-3.15-2-4.1 2.7-2.45 6.55-1.7M15.3 53.9q.35-2 7.15.2.35 1.95 1.2 3.1.75 1.1-.15 1.05l-5.65.3-1.15.2q-1.8-1.2-1.4-4.85m9.85 18.85q.55-4.65 4.75-7.1 1.3.1 3 1.25 1.3.5 1.05.95-2 2.35-3.2 6.05-.25 1.25-.85 1.1-2.25-1.55-4.75-2.25M42.1 80q-3-2.05-6.55-2.8.35-10.65 5.1-8.3.85.35 1.55 2.1 1.35 3.95-.1 9m5.45-11.65q5.25 6.45 2.7 15.4l-3.7-2.5Q48 73.8 44.85 69.4q-.8-1.5 2.7-1.05" fill="#ffb900" fill-rule="evenodd" transform="translate(1.5 1.5)"/><path d="M28.7 27.4q-2.35.65-4.45 1.75-2.7 1.4-4.95 3.6 4.4 3.35 5.1 9.15m8.8-40.2L30.5 0m5.3 24.1q-2.2 1.7-5.5 2.9l-1.6.4q2 3.95 1.65 7.8M38.4 7.85q1.45 3 1.9 6.8l-.05 1.65q2.55 1.25 3.45 3.7m-5.95 10.5q.2-3.45-1.95-6.4 4-3.1 4.45-7.8M38.4 7.85q2.15-.7 3.85.95M33.2 1.7q3.35 2.5 5.2 6.15m-19.1 24.9q-3.75 3.65-5.95 9.35 7.05.45 9.6 5.9m-9.6-5.9-.4 1.1q-.9 4.9-1 9.2 5.3-2.15 11.3 1.05m1.25 23.1q2.35 1.3 5.1 2.25l2.55.8q1.1-8 4.3-12.4m-15.1 7.3q1.45 1.1 3.15 2.05m-3.15-2.05q3.2-7.75 8.7-10.35m-16.5-.45q2.25 6.6 7.8 10.8m5-14.4q-7.45-1.95-12.8 3.6-1.7-5-1.6-11.3M47.1 91q-.8-3.4-4.25-6.1-3.75-3.1-10.7-5.3m10.7 5.3q5.3-7.8-1.05-17.15" fill="none" stroke="#4b1701" stroke-linecap="round" stroke-linejoin="round" transform="translate(1.5 1.5)"/><path d="M38.25 3.1q2 1.2 3.45 3.3l2.05 3.9q.85 2.1 1.4 4.75.5 3.45.05 6.45-.9 6.15-5.95 10.5-2.15 1.8-4.9 3.3l-.4.2q-1.1.55-2.1 1.2-4.15 2.75-5.95 6.7l-.15.5q-1 2.95-1.3 5.6-.25 2.9.3 5.45.55 2.8 2.05 5.05l1.05 1.6q1.45 2.2 3.7 4.05 2.75 2.2 6.4 3.05l5.35.55 5.8-.2q3.95 2.2 5.1 6.85 2.2 7.85-1.6 14.35-2.1 2.75-4 2.25-.45-.15-.95-.5-2.85-2.3-6.35-3.25-4.8-1.3-10.7-.15-5.45 1.9-8.2 5.45-1.25 1.15-3.7-.35-8.25-6.25-12.3-14.85Q-1.8 62.1 3.7 44.3q6.9-17.35 19.85-21.45 1.95-.65 3.95-.95 5.25-.6 7.85-3.5 5.45-7.65-5.2-16.8L32 1.5h.65q3.2.1 5.6 1.6z" fill="none" stroke="#4b1701" stroke-linecap="round" stroke-linejoin="round" stroke-width="3"/></g><g id="f"><path d="M3.45 13.8 0 9.65 11.8 0l9 3.45Q9.65 6.8 3.45 13.8" fill="#4b017e" fill-rule="evenodd" transform="translate(1.5 1.5)"/><path d="M9.15 20.65 8 19.25l13.9-15.4q-3.8 9.6-12.75 16.8" fill="#4d0080" fill-rule="evenodd" transform="translate(1.5 1.5)"/><path d="M3.45 13.8q6.2-7 17.35-10.35l1.1.4L8 19.25 3.45 13.8" fill="#b100e4" fill-rule="evenodd" transform="translate(1.5 1.5)"/><path d="m21.9 3.85 1.2.45Q17.3 19.15 9.5 21.05l-.35-.4q8.95-7.2 12.75-16.8" fill="#fb4290" fill-rule="evenodd" transform="translate(1.5 1.5)"/><path d="m22.3 4.95-9-3.45-11.8 9.65 3.45 4.15 4.55 5.45 1.15 1.4.35.4q7.8-1.9 13.6-16.75l-1.2-.45-1.1-.4z" fill="none" stroke="#0f001a" stroke-linecap="round" stroke-linejoin="round" stroke-width="3"/></g><g id="g"><path d="M30.1 8.05q-.55-.95-1.65-1.15l.2-.25q1.3-.85 2.95-.5l-1.5 1.9m-4.95 4.85 3-.4q-.6 2.4-.6 5.35.15 5.55 3.25 5.65l-3.35.95q-3.6-.9-3.55-5.5-.15-2.7 1.25-6.05" fill="#00c3d6" fill-rule="evenodd" transform="translate(1.75 1)"/><path d="M28.45 6.9q1.1.2 1.65 1.15-1.3 1.9-1.95 4.45l-3 .4 1.2-2.5 1 .25 1.05-.3.45-.75q0-.45-.45-.75t-1.15 0L28.4 6.9h.05" fill="#bdf9ff" fill-rule="evenodd" transform="translate(1.75 1)"/><path d="M27.25 8.85q.7-.3 1.15 0 .45.3.45.75l-.45.75-1.05.3-1-.25.9-1.55" fill="#f8fffc" fill-rule="evenodd" transform="translate(1.75 1)"/><path d="m30.1 8.05 1.5-1.9q3.4-.1 4.3 7.4l-5.1 9.95q-3.1-.1-3.25-5.65 0-2.95.6-5.35.65-2.55 1.95-4.45" fill="#005b78" fill-rule="evenodd" transform="translate(1.75 1)"/><path d="m30.1 8.05 1.5-1.9m-3.45 6.35q.65-2.55 1.95-4.45m.7 15.45q-3.1-.1-3.25-5.65 0-2.95.6-5.35" fill="none" stroke="#00303c" stroke-linecap="round" stroke-linejoin="round" transform="translate(1.75 1)"/><path d="M33.35 7.15q-1.65-.35-2.95.5l-.2.25h-.05L29 9.85l-.9 1.55-1.2 2.5q-1.4 3.35-1.25 6.05-.05 4.6 3.55 5.5l3.35-.95 5.1-9.95q-.9-7.5-4.3-7.4z" fill="none" stroke="#00303c" stroke-linecap="round" stroke-linejoin="round" stroke-width="2"/><path d="M17.95 47.15q5.8-15.45 13.55-31.7 2.95-4.7 8.9-6.65-5.3 13.2-9.8 25.65l-3.2 9.1q-4.75 1.35-9.45 3.6" fill="#f5d400" fill-rule="evenodd" transform="translate(1.75 1)"/><path d="m63.3 46.95 1.8.7q3.4 1.35 6.3 3 7.05 3.95 11.55 9.4-4.05 30.55 1.15 59.1l-1.5 1.3q-9.6 7.6-31.55 7.45 1.05-17.4 3.9-36.45l.4-2.75 2.15-12.95 22.75-2.85q-10.5-2-22.2-.3 2.25-12.5 5.25-25.65" fill="#4d0082" fill-rule="evenodd" transform="translate(1.75 1)"/><path d="M65.45 9.3q3.5 1.05 6.6 2.55 7.1 3.35 12.05 9.1l-12.9-.4-1.5.15q-12.3.75-4.25-11.4M66 35.35l3-1.9q1.7-1.05 4.15-.05Q66.6 54.85 84 53l-.8 4.95q-5.65-4.6-11.35-7.95-4.15-2.45-8.3-4.2L66 35.35M51.05 127.9q21.95.15 31.55-7.45 1.8 12.35-22.25 21.95-6.4 2-10 4.4l.2-9.7q5.05-3 12.4-5.25-6.6.4-12.25 1.85l.35-5.8m-.2 39.5-.35-7.9q2.85.35 7.45-.9-6.15-.1-1.7-5.9 3.85-4 11.65-3.2 5.3.35 6.05 4.25-.65 7.2-9.35 11.6-5.75 2.85-13.75 2.05m27.05.3q3.7-3.85 5-8.75 2.4-8.95-5.35-14.15 4.35-2.65 6.55-6.65.7 8.6 2.65 18.35 1.5 6.65-8.85 11.2" fill="#e18e00" fill-rule="evenodd" transform="translate(1.75 1)"/><path d="m85.25 52.8-.75 9.1q-2.2 29-.4 57.25.5 8 1.35 15.9.95 9.3 2.35 18.45 1.95 6.9-2.45 12.35-4.7 5.8-15.2 7.45 4.7-2.45 7.75-5.6 10.35-4.55 8.85-11.2-1.95-9.75-2.65-18.35-.9-10.35 0-19-5.2-28.55-1.15-59.1l1.55 1.85-1.55-1.85q-4.5-5.45-11.55-9.4-.95-1.2.45-.65 5.7 3.35 11.35 7.95L84 53l1.25-.2m.2 82.25-1.35 3.1 1.35-3.1" fill="#ff4191" fill-rule="evenodd" transform="translate(1.75 1)"/><path d="m70.15 173.3-.4.05-18.3 1.95-.6-7.9q8 .8 13.75-2.05 8.7-4.4 9.35-11.6-.75-3.9-6.05-4.25-7.8-.8-11.65 3.2-4.45 5.8 1.7 5.9-4.6 1.25-7.45.9-.25-6.25-.15-12.7 3.6-2.4 10-4.4 24.05-9.6 22.25-21.95l1.5-1.3q-.9 8.65 0 19-2.2 4-6.55 6.65 7.75 5.2 5.35 14.15-1.3 4.9-5 8.75-3.05 3.15-7.75 5.6" fill="#9a2e00" fill-rule="evenodd" transform="translate(1.75 1)"/><path d="M51.45 175.3q-8.25.45-15.35 0l-1.1-.5-.35-13.45q6.15 4.2 13.4 5.65l2.8.4.6 7.9M7.7 166.85q-3.4-2.7-5.25-6.2Q1.3 155.9.7 150.45q2.7 6.35 6.1 8.75l.9 7.65M.2 144.4l-.15-3.85.05-8.1.15-3.85q.5 1.8 1.3 3.5 1.8 3.7 4.9 6.65l-.15 6.75q-4.5-5.1-6.1-1.1m50.5-10.7-.15 3.4q-11.85 7.05-10.9 18.15-2.6-1.65-4.7-3.7l.7-11.95 1.15.35q6-4.2 13.9-6.25m-.2 25.8q-5.65-.8-4.5-7.8.95-2.65 4.35-4.9-.1 6.45.15 12.7" fill="#d66d00" fill-rule="evenodd" transform="translate(1.75 1)"/><path d="m27.4 43.55 3.2-9.1q2 4.75 4.9 4.3L34.45 42q-3.55.5-7.05 1.55M9.25 123.7q4 1.3 9.5 2.2l-.8 12.25h-.1q-3.75-5.95-10.7-9.1l.2-2.15 1.9-3.2m25.7 27.85-.3 9.8q-5-3.4-9.2-8.6.25-9.45 1.05-19.3l.05.2-.05-.2.6-6.5 9.5.65-.95 12q-5.6-1.95-9.1-5.95 1.45 11.05 8.4 17.9m-17.5-1.4-.2 8.8q-2.7 1.7-5.85 1.7-2.45.05-4.6-1.45-.55-6.6-.5-13.7l.6.7q2.85 5.2 0 5.7 2.15 2.85 4.6 1.15 2.85-5.45-4-13.35l-1.05-.95.55-8.2q8.95 8.5 8.85 21.35l1.6-1.75" fill="#fff5b7" fill-rule="evenodd" transform="translate(1.75 1)"/><path d="M26.45 133.15q-1.1 7.95-9 17l.5-12q4.25-.6 8.5-5m-9.2 25.8q3.75-2.4 6.7-8.1l1.5 1.9q-.25 7.8-.1 15.35-1.6-1.65-2.85-3.5-2.5 2.2-5.3 3.4l.05-9.05" fill="#feeacf" fill-rule="evenodd" transform="translate(1.75 1)"/><path d="m48.15 7.5 6.8.2-3.85 9.5-.1.35-4.4 4.5q0-6-.6-9.95l2.15-4.6M36.1 175.3 25.6 174q-8.45-1.6-14.1-4.65 3-.25 5.7-1.35 2.8-1.2 5.3-3.4 1.25 1.85 2.85 3.5 3.8 3.9 9.65 6.7l1.1.5m8.1-138.25-1.35 4.35-8.4.6 1.05-3.25q2.65-.4 6.1-5.3 1.1 2.15 2.6 3.6m-17.1 89.9-.6 6.5-.05-.3.05.3q-.8 9.85-1.05 19.3l-1.5-1.9q-2.95 5.7-6.7 8.1l.2-8.8q7.9-9.05 9-17-4.25 4.4-8.5 5l.8-12.25 8.35 1.05" fill="#fff7d2" fill-rule="evenodd" transform="translate(1.75 1)"/><path d="m.7 150.45-.5-6.05q1.6-4 6.1 1.1-.05 7.1.5 13.7-3.4-2.4-6.1-8.75M66 35.35 63.55 45.8q-6.25-2.6-12.45-3.65l.45-2q5.95.15 14.45-4.8M50.55 137.1l-.2 9.7q-3.4 2.25-4.35 4.9-1.15 7 4.5 7.8l.35 7.9-2.8-.4q-7.25-1.45-13.4-5.65l.3-9.8q2.1 2.05 4.7 3.7-.95-11.1 10.9-18.15m.5-9.2-.35 5.8q-7.9 2.05-13.9 6.25l-1.15-.35.95-12 13.35.25 1.1.05m-43.7-1-.2 2.15-1.05-.45 1.25-1.7M7 130.55l-.55 8.2q-3.1-2.95-4.9-6.65 2.05-.8 4-2.85l1.45 1.3" fill="#f6d400" fill-rule="evenodd" transform="translate(1.75 1)"/><path d="m11.5 169.35-3.8-2.5-.9-7.65q2.15 1.5 4.6 1.45 3.15 0 5.85-1.7L17.2 168q-2.7 1.1-5.7 1.35m15.05-35.7q3.5 4 9.1 5.95l-.7 11.95q-6.95-6.85-8.4-17.9m-19.4-4.6q6.95 3.15 10.7 9.1h.1l-.5 12-1.6 1.75q.1-12.85-8.85-21.35l.15-1.5m-.7 9.7 1.05.95q6.85 7.9 4 13.35-2.45 1.7-4.6-1.15 2.85-.5 0-5.7l-.6-.7.15-6.75m18.9 29.35q-.15-7.55.1-15.35 4.2 5.2 9.2 8.6L35 174.8q-5.85-2.8-9.65-6.7" fill="#fdc06d" fill-rule="evenodd" transform="translate(1.75 1)"/><path d="M50.7 133.7q5.65-1.45 12.25-1.85-7.35 2.25-12.4 5.25l.15-3.4" fill="#982f00" fill-rule="evenodd" transform="translate(1.75 1)"/><path d="m.25 128.6.55-9.35q2.45 2.25 6.95 3.95l-.4 3.7-1.25 1.7-2.5-.9 1.95 1.55q-1.95 2.05-4 2.85-.8-1.7-1.3-3.5" fill="#975c4a" fill-rule="evenodd" transform="translate(1.75 1)"/><path d="m57.5 75.75.55-3.15q11.7-1.7 22.2.3L57.5 75.75" fill="#3f0069" fill-rule="evenodd" transform="translate(1.75 1)"/><path d="M43.35 76q7.55-2.4 14.7-3.4l-.55 3.15-9.1 1.15-5.35.65.3-1.55" fill="#8200ab" fill-rule="evenodd" transform="translate(1.75 1)"/><path d="M5.2 89.8q4-18.65 11.25-38.65 4.85-3.95 10.45-6.1-4.45 13-7.95 25.15l-6.2-.65q-2.65.15 5.85 1.8l-2.1 7.7-.95-.05q-1.8 0-3.15.65-1.3.7-1.3 1.65 0 .9 1.3 1.6 1.25.6 2.95.65l-.55 2.15q-3-.6-6.05-3.35 1.85 6 5.15 7.1l-1.15 5Q8.1 93.1 5.2 89.8m45.6-46.35q5.95 1.1 12.5 3.5-3 13.15-5.25 25.65-7.15 1-14.7 3.4 3.05-15.45 7.45-32.55m-7.75 34.1 5.35-.65 9.1-1.15-2.15 12.95q-8.05 3-14-1.8l1.7-9.35m11.9 13.9q-2.85 19.05-3.9 36.45l-1.1-.05-13.35-.25q.85-17.4 4.3-38 3.55 6.35 14.05 1.85m-5.5-9.7q-1.8 0-3.1.6-1.25.65-1.25 1.55t1.25 1.5q1.3.65 3.1.65l3.05-.65q1.3-.6 1.3-1.5t-1.3-1.55q-1.25-.6-3.05-.6" fill="#b100e4" fill-rule="evenodd" transform="translate(1.75 1)"/><path d="M15.35 83.55q-1.7-.05-2.95-.65-1.3-.7-1.3-1.6 0-.95 1.3-1.65 1.35-.65 3.15-.65l.95.05-1.15 4.5m34.1-1.8q1.8 0 3.05.6 1.3.65 1.3 1.55t-1.3 1.5l-3.05.65q-1.8 0-3.1-.65-1.25-.6-1.25-1.5t1.25-1.55q1.3-.6 3.1-.6" fill="#ca38f3" fill-rule="evenodd" transform="translate(1.75 1)"/><path d="m55.35 88.7-.4 2.75q-10.5 4.5-14.05-1.85l.45-2.7q5.95 4.8 14 1.8" fill="#7101a5" fill-rule="evenodd" transform="translate(1.75 1)"/><path d="m16.5 79.05 2.25.6q1.3.7 1.3 1.65 0 .9-1.3 1.6-1.35.65-3.2.65h-.2l1.15-4.5" fill="#e3b3ff" fill-rule="evenodd" transform="translate(1.75 1)"/><path d="M26.9 45.05q3.45-1.35 7.2-1.95-4.5 14.15-7.8 29.6-3.3-1.75-7.35-2.5 3.5-12.15 7.95-25.15m15.95-2.5 7.95.9Q46.4 60.55 43.35 76l-2.3.75q-1.3.95 2 .8l-1.7 9.35-1.95-1.8q.45 2.65 1.5 4.5-3.45 20.6-4.3 38l-9.5-.65q3.8-38.9 15.75-84.4M18.6 71.35h.05q3.25.55 6.15 2.6l1.1.65q-5.05 24.15-7.15 51.3-5.5-.9-9.5-2.2l-1.5-.5q1.6-13.6 5-28.75l1.15-5q1.9.6 4.25-.4 3.15-1.5 4.8-5.75-4.05 3.2-8.15 2.4l.55-2.15h.2q1.85 0 3.2-.65 1.3-.7 1.3-1.6 0-.95-1.3-1.65l-2.25-.6 2.1-7.7" fill="#d68dff" fill-rule="evenodd" transform="translate(1.75 1)"/><path d="m7.75 123.2 1.5.5-1.9 3.2.4-3.7" fill="#9b6d94" fill-rule="evenodd" transform="translate(1.75 1)"/><path d="M.8 119.25q1.1-14.3 4.4-29.45 2.9 3.3 7.55 4.65-3.4 15.15-5 28.75-4.5-1.7-6.95-3.95" fill="#70a" fill-rule="evenodd" transform="translate(1.75 1)"/><path d="m7 130.55-1.45-1.3.55-.65 1.05.45-.15 1.5" fill="#d56c00" fill-rule="evenodd" transform="translate(1.75 1)"/><path d="m6.1 128.6-.55.65-1.95-1.55 2.5.9" fill="#842e47" fill-rule="evenodd" transform="translate(1.75 1)"/><path d="m34.1 43.1 8.75-.55q-11.95 45.5-15.75 84.4l-8.35-1.05q2.1-27.15 7.15-51.3 3.1 1.65 2.6-.55-1.05-.75-2.2-1.35 3.3-15.45 7.8-29.6" fill="#ffedfd" fill-rule="evenodd" transform="translate(1.75 1)"/><path d="M51.1 42.15q6.2 1.05 12.45 3.65l-.25 1.15q-6.55-2.4-12.5-3.5l.3-1.3" fill="#74742a" fill-rule="evenodd" transform="translate(1.75 1)"/><path d="m42.85 41.4 8.25.75-.3 1.3-7.95-.9-8.75.55q-3.75.6-7.2 1.95l.5-1.5q3.5-1.05 7.05-1.55l8.4-.6" fill="#787f77" fill-rule="evenodd" transform="translate(1.75 1)"/><path d="m16.45 51.15 1.5-4q4.7-2.25 9.45-3.6l-.5 1.5q-5.6 2.15-10.45 6.1" fill="#6e7528" fill-rule="evenodd" transform="translate(1.75 1)"/><path d="M44.2 37.05q2.95 3 7.35 3.1l-.45 2-8.25-.75 1.35-4.35" fill="#fff6b8" fill-rule="evenodd" transform="translate(1.75 1)"/><path d="m59.9 8.3 5.55 1Q57.4 21.45 69.7 20.7L66 35.35q-8.5 4.95-14.45 4.8Q55.3 24.55 59.9 8.3" fill="#727429" fill-rule="evenodd" transform="translate(1.75 1)"/><path d="M51.55 40.15q-4.4-.1-7.35-3.1 3.05-9.85 6.8-19.5l.15-.4L59.9 8.3q-4.6 16.25-8.35 31.85" fill="#748275" fill-rule="evenodd" transform="translate(1.75 1)"/><path d="M46 12.1q.6 3.95.6 9.95l4.4-4.5q-3.75 9.65-6.8 19.5-1.5-1.45-2.6-3.6-3.45 4.9-6.1 5.3Q40.15 24.8 46 12.1" fill="#728281" fill-rule="evenodd" transform="translate(1.75 1)"/><path d="M84.1 20.95q2.4 2.75 4.3 6.05-.95 6.15-1.65 12.25L85.5 44.8q-7.6-9.55-12.35-11.4-2.45-1-4.15.05l-3 1.9 3.7-14.65 1.5-.15 12.9.4" fill="#68552a" fill-rule="evenodd" transform="translate(1.75 1)"/><path d="M84 53q-17.4 1.85-10.85-19.6 4.75 1.85 12.35 11.4L84 53" fill="#67542a" fill-rule="evenodd" transform="translate(1.75 1)"/><path d="m86.75 39.25-1.5 13.55L84 53l1.5-8.2 1.25-5.55" fill="#554221" fill-rule="evenodd" transform="translate(1.75 1)"/><path d="M63.55 45.8q4.15 1.75 8.3 4.2-1.4-.55-.45.65-2.9-1.65-6.3-3l-1.8-.7.25-1.15" fill="#604f24" fill-rule="evenodd" transform="translate(1.75 1)"/><path d="M40.4 8.8q2.1-.7 4.55-1 .65 1.7 1.05 4.3-5.85 12.7-10.5 26.65-2.9.45-4.9-4.3Q35.1 22 40.4 8.8" fill="#738376" fill-rule="evenodd" transform="translate(1.75 1)"/><path d="m44.95 7.8 3.2-.3L46 12.1q-.4-2.6-1.05-4.3" fill="#ffe97f" fill-rule="evenodd" transform="translate(1.75 1)"/><path d="m41.35 86.9-.45 2.7q-1.05-1.85-1.5-4.5l1.95 1.8" fill="#7e34ad" fill-rule="evenodd" transform="translate(1.75 1)"/><path d="m14.8 85.7-.9 3.75q-3.3-1.1-5.15-7.1 3.05 2.75 6.05 3.35" fill="#7401a6" fill-rule="evenodd" transform="translate(1.75 1)"/><path d="m25.9 74.6-1.1-.65q-2.9-2.05-6.15-2.6h-.05l.35-1.15q4.05.75 7.35 2.5l-.4 1.9" fill="#9a5cbd" fill-rule="evenodd" transform="translate(1.75 1)"/><path d="m18.95 70.2-.35 1.15q-8.5-1.65-5.85-1.8l6.2.65" fill="#8100ac" fill-rule="evenodd" transform="translate(1.75 1)"/><path d="M14.8 85.7q4.1.8 8.15-2.4-1.65 4.25-4.8 5.75-2.35 1-4.25.4l.9-3.75" fill="#8034b2" fill-rule="evenodd" transform="translate(1.75 1)"/><path d="M50.8 43.45q5.95 1.1 12.5 3.5l1.8.7q3.4 1.35 6.3 3 7.05 3.95 11.55 9.4l1.55 1.85m-.4 76.25 1.35-3.1m-58.55-90q3.45-1.35 7.2-1.95l8.75-.55 7.95.9m-23.9 1.6q-5.6 2.15-10.45 6.1m34.6 76.75q21.95.15 31.55-7.45l1.5-1.3M7.75 123.2l1.5.5q4 1.3 9.5 2.2l8.35 1.05 9.5.65 13.35.25 1.1.05m-.35 5.8q5.65-1.45 12.25-1.85-7.35 2.25-12.4 5.25-11.85 7.05-10.9 18.15-2.6-1.65-4.7-3.7-6.95-6.85-8.4-17.9 3.5 4 9.1 5.95l1.15.35q6-4.2 13.9-6.25m-.35 13.1q3.6-2.4 10-4.4 24.05-9.6 22.25-21.95m-47.95 40.9q6.15 4.2 13.4 5.65l2.8.4q8 .8 13.75-2.05 8.7-4.4 9.35-11.6-.75-3.9-6.05-4.25-7.8-.8-11.65 3.2-4.45 5.8 1.7 5.9-4.6 1.25-7.45.9-5.65-.8-4.5-7.8.95-2.65 4.35-4.9m27.55 20.9q3.7-3.85 5-8.75 2.4-8.95-5.35-14.15 4.35-2.65 6.55-6.65m-6.2 29.55q-3.05 3.15-7.75 5.6M26.5 133.45l.05.2m-.05-.2-.05-.3q-1.1 7.95-9 17l-1.6 1.75q.1-12.85-8.85-21.35l-1.45-1.3-1.95-1.55 2.5.9 1.05.45q6.95 3.15 10.7 9.1h.1q4.25-.6 8.5-5m-9.2 25.8q3.75-2.4 6.7-8.1l1.5 1.9q4.2 5.2 9.2 8.6M7.75 123.2q-4.5-1.7-6.95-3.95m5.5 26.25.6.7q2.85 5.2 0 5.7 2.15 2.85 4.6 1.15 2.85-5.45-4-13.35l-1.05-.95q-3.1-2.95-4.9-6.65-.8-1.7-1.3-3.5m6.05 16.9q-4.5-5.1-6.1-1.1m6.6 14.8q2.15 1.5 4.6 1.45 3.15 0 5.85-1.7M17.2 168q2.8-1.2 5.3-3.4 1.25 1.85 2.85 3.5 3.8 3.9 9.65 6.7l1.1.5M6.8 159.2q-3.4-2.4-6.1-8.75M17.2 168q-2.7 1.1-5.7 1.35" fill="none" stroke="#4d1000" stroke-linecap="round" stroke-linejoin="round" transform="translate(1.75 1)"/><path d="M19.7 48.15q5.8-15.45 13.55-31.7 2.95-4.7 8.9-6.65 2.1-.7 4.55-1l3.2-.3 6.8.2 4.95.6 5.55 1q3.5 1.05 6.6 2.55 7.1 3.35 12.05 9.1 2.4 2.75 4.3 6.05-.95 6.15-1.65 12.25L87 53.8l-.75 9.1m-.4 57.25q.5 8 1.35 15.9.95 9.3 2.35 18.45 1.95 6.9-2.45 12.35-4.7 5.8-15.2 7.45l-.4.05-18.3 1.95q-8.25.45-15.35 0l-10.5-1.3q-8.45-1.6-14.1-4.65l-3.8-2.5q-3.4-2.7-5.25-6.2-1.15-4.75-1.75-10.2l-.5-6.05-.15-3.85.05-8.1.15-3.85.55-9.35m15.65-68.1 1.5-4" fill="none" stroke="#4d1000" stroke-linecap="round" stroke-linejoin="round" stroke-width="3.5"/><path d="M86.25 62.9q-2.2 29-.4 57.25m-83.3.1q1.1-14.3 4.4-29.45 4-18.65 11.25-38.65" fill="none" stroke="#0f001a" stroke-linecap="round" stroke-linejoin="round" stroke-width="3.5"/><path d="m57.7 61.4-.3.35-1.1.45-.9-.3-.2-.15q-.45-.45-.45-1.1 0-.65.45-1.1.45-.45 1.1-.45.65 0 1.1.45.45.45.45 1.1l-.15.75M41.2 46.85q.7 1.05.55 2.55-.15 1.5-1.05 2.55Q39.75 53 38.6 53q-1.15 0-1.8-1.05-.7-1.05-.55-2.55.15-1.5 1.05-2.55.9-1.05 2.05-1.05t1.85 1.05M23.4 56.4q.45.45.45 1.1 0 .65-.45 1.1-.45.45-1.1.45-.65 0-1.1-.45-.45-.45-.45-1.1 0-.65.45-1.1.45-.45 1.1-.45.65 0 1.1.45" fill="#a9ffff" fill-rule="evenodd" transform="translate(1.75 1)"/><path d="M37.8 68.8q9.7-10.95 19.25-11.65 1.2.35 2.05 1.3 1.1 1.75-1.1 2.8l-.3.15.15-.75q0-.65-.45-1.1-.45-.45-1.1-.45-.65 0-1.1.45-.45.45-.45 1.1 0 .65.45 1.1l.2.15q-1.8.05-2.9-1.3l.7-.55q1.05-.7 3.1-1.55-12.15 1.9-21.05 18.25-1.8-.9-3.75-.05-1.55-13.3-4.9-17.5-.95-1.2-2.05-1.65 2.25 5.05-2.7 2.7l-.2-.2-.2-.25q-2.8-3.7-.25-4.7 5.2.2 8.9 6.35 1.65 4.35 2.15 8.5l.85-1.65.05.05q2.2-5.65 3.4-13.65l-1.15-.9q-1.7-1.7-1.3-4 .4-2.35 1.75-3.8 1.3-1.45 2.95-1.75l2.45-.1q3.85 2.75 2.25 6.5-1.05 1.9-3.15 3-2.8 2.45-4.05 14.4.1 4.2 1.5.75m3.4-21.95q-.7-1.05-1.85-1.05-1.15 0-2.05 1.05-.9 1.05-1.05 2.55-.15 1.5.55 2.55.65 1.05 1.8 1.05t2.1-1.05q.9-1.05 1.05-2.55.15-1.5-.55-2.55M23.4 56.4q-.45-.45-1.1-.45-.65 0-1.1.45-.45.45-.45 1.1 0 .65.45 1.1.45.45 1.1.45.65 0 1.1-.45.45-.45.45-1.1 0-.65-.45-1.1" fill="#01f5ff" fill-rule="evenodd" transform="translate(1.75 1)"/><path d="M41.25 44.15q1.35.4 2.4 1.45 1.75 1.7 1.75 4.1 0 2.4-1.75 4.1-1.4 1.4-3.3 1.65-2.4 6.1-2.55 13.35-1.4 3.45-1.5-.75 1.25-11.95 4.05-14.4 2.1-1.1 3.15-3 1.6-3.75-2.25-6.5m15.8 13 .5-.05q1.45-.25 2.35.4.9.7.95 2.2.05 1.85-2.1 2.65l-5.85.3q-1.65-.85-.4-2.05 1.1 1.35 2.9 1.3l.9.3 1.1-.45.3-.35.3-.15q2.2-1.05 1.1-2.8-.85-.95-2.05-1.3m-3.85 2.9q-10.5 4.6-17.2 17.1l-.75-.4Q44.15 60.4 56.3 58.5q-2.05.85-3.1 1.55m-26.6-.85q.85 2.4-.5 2.8-1.95.6-4.25-1.75 4.95 2.35 2.7-2.7 1.1.45 2.05 1.65m3.5 2.25q1.65 2.8 3 6.85l-.85 1.65q-.5-4.15-2.15-8.5" fill="#025975" fill-rule="evenodd" transform="translate(1.75 1)"/><path d="M41.25 44.15q1.35.4 2.4 1.45 1.75 1.7 1.75 4.1 0 2.4-1.75 4.1-1.4 1.4-3.3 1.65-2.4 6.1-2.55 13.35 9.7-10.95 19.25-11.65l.5-.05q1.45-.25 2.35.4.9.7.95 2.2.05 1.85-2.1 2.65l-5.85.3q-1.65-.85-.4-2.05l.7-.55q-10.5 4.6-17.2 17.1l-.75-.4q-1.8-.9-3.75-.05-1.55-13.3-4.9-17.5.85 2.4-.5 2.8-1.95.6-4.25-1.75l-.2-.2-.2-.25q-2.8-3.7-.25-4.7 5.2.2 8.9 6.35 1.65 2.8 3 6.85l.05.05q2.2-5.65 3.4-13.65l-1.15-.9q-1.7-1.7-1.3-4 .4-2.35 1.75-3.8 1.3-1.45 2.95-1.75l2.45-.1M56.3 58.5q-2.05.85-3.1 1.55m-28.65-2.5q1.1.45 2.05 1.65" fill="none" stroke="#023d4a" stroke-linecap="round" stroke-linejoin="round" transform="translate(1.75 1)"/><path d="M59.05 86.6Q47.7 96.9 39.5 85.1q7.4 5.75 19.55 1.5M23.1 83q-6.25 10.05-14.15-.8 6.35 4.95 14.15.8" fill="#1d0003" fill-rule="evenodd" transform="translate(1.75 1)"/><path d="M13.05 77.5q5.95-.65 9.85 4.4m17.65 1q6.55-5.15 14.3-3.3M19.3 104.45q.95.05 2.05-1.15 4.4-5 11.7.4 4.2 4 6.05 3.1" fill="none" stroke="#0f001a" stroke-linecap="round" stroke-linejoin="round" transform="translate(1.75 1)"/><path d="m95 16-.15.2q-6.3 0-10.65 2.25-2-.05-1.8-1.7 4.3-2.35 9.85-1.6 1.55.3 2.75.85" fill="#bdf9ff" fill-rule="evenodd" transform="translate(1.75 1)"/><path d="M82.4 16.75q-.2 1.65 1.8 1.7 4.35-2.25 10.65-2.25-5.6 7.8-12.45 13.1l-3.35-.65.55-1.25.4-3.1-.15-2.5-.2-1-.3-.75-.5-.6q1.65-1.65 3.55-2.7m1.8 1.7q-2.5 1.3-4.35 3.35 1.85-2.05 4.35-3.35" fill="#00c5d5" fill-rule="evenodd" transform="translate(1.75 1)"/><path d="M94.85 16.2h.55q1.8 1.05 2.6 2.85Q93.8 26 87.7 29.4q-2.45.25-5.3-.1 6.85-5.3 12.45-13.1" fill="#005b78" fill-rule="evenodd" transform="translate(1.75 1)"/><path d="M87.7 29.4Q93.8 26 98 19.05l.45 1.5q-3.05 7.9-10.75 8.85" fill="#f94398" fill-rule="evenodd" transform="translate(1.75 1)"/><path d="M72 28.45q1.35-.95 1.25-2.05l-3.2-.15q-4.65 1.4-9 1.7-3.45.45-5-1.35-4.3-5.55 5.6-13.85 1.7-1.3 3.25-2.2Q56 19.5 59.25 21q5.2 1.85 14.4-.3 1.65-.3 1.7 2.7l-.05 1.45q-.2 2.25-1.25 3.1l-1.5.35-.55.15m3.35-.4q.65-1.05.9-2.95 1.85 0 3.75-.8l-.4 3.1-4.25.65m0-4.65q-3.45.9-10.2 3.45l-4.1 1.1 4.1-1.1q6.75-2.55 10.2-3.45" fill="#015c7b" fill-rule="evenodd" transform="translate(1.75 1)"/><path d="M74 7q1.1 1.2 1.8 3.2l-.05.5q-2.9-5-10.85-.15-1.55.9-3.25 2.2-9.9 8.3-5.6 13.85 1.55 1.8 5 1.35 4.35-.3 9-1.7l3.2.15q.1 1.1-1.25 2.05l-.25.1q-2.6.9-5.9 3-16.05 7.05-17.3-.65-1.65-10.75 11-20.9Q69.8 2.5 74 7m-.75 22.25q1.3 0 2.1-1.2l4.25-.65-.55 1.25-.8.8-5-.2m3-4.15-.05-2.8 3.65-.5.15 2.5q-1.9.8-3.75.8" fill="#01c5d5" fill-rule="evenodd" transform="translate(1.75 1)"/><path d="M45.95 36.15q-4.65-8.25 2.65-18.9 9.5-12.1 17.6-13.3Q71.4 2.65 74 7q-4.2-4.5-14.45 3-12.65 10.15-11 20.9 1.25 7.7 17.3.65l-1.3.8q-4.7 3.05-8.2 4.55-5.85 2.8-9.7-.15l-.7-.6" fill="#bdf8ff" fill-rule="evenodd" transform="translate(1.75 1)"/><path d="M75.8 10.2q-.7-2-1.8-3.2-2.6-4.35-7.8-3.05-8.1 1.2-17.6 13.3-7.3 10.65-2.65 18.9-5.65-5.1-2.3-13.6Q54.5 4.3 66.3.4q9.85-2.45 9.5 9.8m3.55 9.85.3.75q-1.6.75-3.55.8l-.25-.85q1.25-.6 3.5-.7" fill="#fdfffe" fill-rule="evenodd" transform="translate(1.75 1)"/><path d="M74.5 19.25q.8-.5 2.4-.45 1.25-.05 1.95.65-2.05-.05-3.45.5-.35-.5-.9-.7" fill="#00b7c3" fill-rule="evenodd" transform="translate(1.75 1)"/><path d="m75.4 19.95.45.8.25.85.1.7.05 2.8q-.25 1.9-.9 2.95-.8 1.2-2.1 1.2-.55-.35-.7-.95l1.5-.35q1.05-.85 1.25-3.1l.05-1.45q-.05-3-1.7-2.7.05-1 .85-1.45.55.2.9.7" fill="#03c3d2" fill-rule="evenodd" transform="translate(1.75 1)"/><path d="m78.85 19.45.5.6q-2.25.1-3.5.7l-.45-.8q1.4-.55 3.45-.5m.8 1.35.2 1-3.65.5-.1-.7q1.95-.05 3.55-.8" fill="#bdf6ff" fill-rule="evenodd" transform="translate(1.75 1)"/><path d="M94.85 16.2h.55L95 16m-10.8 2.45q4.35-2.25 10.65-2.25M82.4 29.3q2.85.35 5.3.1m-26.65-1.45q-3.45.45-5-1.35-4.3-5.55 5.6-13.85 1.7-1.3 3.25-2.2m13.95 8.9.5.6.3.75.2 1q1.85-2.05 4.35-3.35m-8.8 1.5.45.8.25.85.1.7.05 2.8q-.25 1.9-.9 2.95-.8 1.2-2.1 1.2m2.15-9.3q-.35-.5-.9-.7m-.85 1.45q1.65-.3 1.7 2.7l-.05 1.45q-.2 2.25-1.25 3.1l-1.5.35-.55.15m7.85-6.65.15 2.5-.4 3.1-.55 1.25 3.35.65m-21.35-1.35 4.1-1.1q6.75-2.55 10.2-3.45" fill="none" stroke="#00303c" stroke-linecap="round" stroke-linejoin="round" transform="translate(1.75 1)"/><path d="M96.75 17q-1.2-.55-2.75-.85-5.55-.75-9.85 1.6-1.9 1.05-3.55 2.7-.7-.7-1.95-.65-1.6-.05-2.4.45-.8.45-.85 1.45-9.2 2.15-14.4.3-3.25-1.5 5.65-10.45 7.95-4.85 10.85.15l.05-.5q.35-12.25-9.5-9.8-11.8 3.9-22.65 22.15-3.35 8.5 2.3 13.6l.7.6q3.85 2.95 9.7.15 3.5-1.5 8.2-4.55l1.3-.8q3.3-2.1 5.9-3m26.25-9.5q-.8-1.8-2.6-2.85m2.6 2.85.45 1.5q-3.05 7.9-10.75 8.85M74.3 29.3q.15.6.7.95l5 .2.8-.8" fill="none" stroke="#00303c" stroke-linecap="round" stroke-linejoin="round" stroke-width="2"/><path d="M31.7 5.95Q34.35.3 37.35.35q5.55.4 6.95 15.95-.85 13.15-6.85 19.2l2.6-6.55q4.2-13.05.65-22-4.1-7.15-9-1" fill="#feffff" fill-rule="evenodd" transform="translate(1.75 1)"/><path d="m31.15 7.2.55-1.25q4.9-6.15 9 1 3.55 8.95-.65 22l-2.6 6.55-1.5 1.25q-3.25 1.85-6.75-4.4 6.75 4.05 9.85-6.85 2.2-5.5 1.6-13.25v-.3q-.3-3.1-1.8-5.15-3.65-3.95-7.7.4M28.5 20q6.05 2.5 8-1.85 1.05-3.65-.15-8.95.75 1.3 1.5 3.35.65 3.35.1 6.4l-.6 2.2q-4.2 5.2-9.8-.1-.1-.85.35-1.35l.6.3" fill="#bdf8ff" fill-rule="evenodd" transform="translate(1.75 1)"/><path d="m29.2 32.35-.3-.5q-1.2-2.9-2.25-4.1l-.45-.5 4.2 1.15q7.5 1.6 7.55-9.45.55-3.05-.1-6.4-.75-2.05-1.5-3.35-3.1-5.3-6.3.95l1.1-2.95q4.05-4.35 7.7-.4 1.5 2.05 1.8 5.15v.3q.6 7.75-1.6 13.25-3.1 10.9-9.85 6.85" fill="#00c5d5" fill-rule="evenodd" transform="translate(1.75 1)"/><path d="m37.35 21.15-1.1 2.4q-2.55 5.15-6.3 2.1-1.6-1.75-3.05-2.75-.05-1.25.65-1.85 5.6 5.3 9.8.1" fill="#03c7d5" fill-rule="evenodd" transform="translate(1.75 1)"/><path d="M26.65 27.75q-2.15 1.6-3.45.65-1.65-6.95 3.25-10.8.75.05 1.55.55.8.6.5 1.85l-.6-.3q-1.8-.5-2.6 2.3.75.3 1.6.9-.85-.6-1.6-.9l-.15.45q-.8 3.5.9 4.7l.15.1.45.5m11.3-8.8Q37.9 30 30.4 28.4l-4.2-1.15-.15-.1q-1.7-1.2-.9-4.7l.15-.45q.8-2.8 2.6-2.3-.45.5-.35 1.35-.7.6-.65 1.85 1.45 1 3.05 2.75 3.75 3.05 6.3-2.1l1.1-2.4.6-2.2" fill="#07577a" fill-rule="evenodd" transform="translate(1.75 1)"/><path d="M23.2 28.4q-.7-.55-1.2-1.75-.8-5.55 2.6-8.4.9-.7 1.85-.65-4.9 3.85-3.25 10.8" fill="#00c3d6" fill-rule="evenodd" transform="translate(1.75 1)"/><path d="m31.15 7.2.55-1.25m4.65 3.25q.75 1.3 1.5 3.35.65 3.35.1 6.4l-.6 2.2-1.1 2.4q-2.55 5.15-6.3 2.1-1.6-1.75-3.05-2.75-.85-.6-1.6-.9l-.15.45q-.8 3.5.9 4.7l.15.1.45.5m1.25-8.05.6.3m-.6-.3q-1.8-.5-2.6 2.3m-2.1 6.4q-1.65-6.95 3.25-10.8" fill="none" stroke="#00303c" stroke-linecap="round" stroke-linejoin="round" transform="translate(1.75 1)"/><path d="M33.45 6.95q2.65-5.65 5.65-5.6 5.55.4 6.95 15.95-.85 13.15-6.85 19.2l-1.5 1.25q-3.25 1.85-6.75-4.4l-.3-.5q-1.2-2.9-2.25-4.1-2.15 1.6-3.45.65-.7-.55-1.2-1.75-.8-5.55 2.6-8.4.9-.7 1.85-.65.75.05 1.55.55.8.6.5 1.85 6.05 2.5 8-1.85 1.05-3.65-.15-8.95-3.1-5.3-6.3.95l1.1-2.95" fill="none" stroke="#00303c" stroke-linecap="round" stroke-linejoin="round" stroke-width="2"/><path d="M28.4 75.35q-.95.75-1.95-.4-6.5-10.2-20.3-13.8 14.5.6 22.5 12.8.35.95-.25 1.4m12.55 2.4q-1.45-.55-.55-2Q54.85 63 89.35 63.05 61 64.9 43 76.85q-1.35.9-2.05.9" fill="#1d0003" fill-rule="evenodd" transform="translate(1.75 1)"/></g><g id="h"><path d="M11.25 2.7V5l-.95.6-.15.05q-.5.65-.45 1.9-2.1 2.55-3.75 5-2 3-3.3 5.9-2.35 5-2.4 9.5-1.95-8.45 11-25.25" fill="#ffefff" fill-rule="evenodd" transform="translate(1.5 1.5)"/><path d="M9.7 7.55q.05 1.05.45 2.55l.1.55v.05q-1.05 4.4-4.5 8.25-2.05 2.7-1.9 6.05 1.25 6 6.3 5.9-2.75 1.5-5.85.45-2-1-4.05-3.4.05-4.5 2.4-9.5 2.55 1.6 3.95-2.35 1.4-3.95-.65-3.55 1.65-2.45 3.75-5" fill="#b100e4" fill-rule="evenodd" transform="translate(1.5 1.5)"/><path d="M11.25 2.7q4.15-4.9 9.15-.95 3.9 3.5 2.6 10.7-2 10.55-9.9 22.3-3.8 5.45-6.95 2.6-1.15-2.1-1.85-6 3.1 1.05 5.85-.45-5.05.1-6.3-5.9-.15-3.35 1.9-6.05 3.45-3.85 4.5-8.25v-.05l-.1-.55q-.4-1.5-.45-2.55-.05-1.25.45-1.9l.15-.05.95-.6V2.7" fill="#4b017e" fill-rule="evenodd" transform="translate(1.5 1.5)"/><path d="M5.95 12.55q2.05-.4.65 3.55-1.4 3.95-3.95 2.35 1.3-2.9 3.3-5.9" fill="#d190f8" fill-rule="evenodd" transform="translate(1.5 1.5)"/><path d="M4.3 31.35q.7 3.9 1.85 6-3.3-2.95-5.85-9.3l-.05-.1q2.05 2.4 4.05 3.4" fill="#4d0082" fill-rule="evenodd" transform="translate(1.5 1.5)"/><path d="M7.65 38.85q3.15 2.85 6.95-2.6 7.9-11.75 9.9-22.3 1.3-7.2-2.6-10.7-5-3.95-9.15.95Q-.2 21 1.75 29.45l.05.1q2.55 6.35 5.85 9.3z" fill="none" stroke="#0f001a" stroke-linecap="round" stroke-linejoin="round" stroke-width="3"/></g><g id="i"><path d="M13.3 87.25q8.8-5.2 19.95 3.15 14.1-7.25 18.9-28.45 5.35-27.65-17.3-40.6 12.7 4.1 18.6 21.45 4.5 17.8-4.7 34.55-4.55 8.6-13.15 14.85-2.55 1.5-3.7.35Q29.35 89 24 87.1q-5.85-1.15-10.7.15" fill="#fffbd7" fill-rule="evenodd" transform="translate(1.5 1.5)"/><path d="m27.65 0 1.85.1q-11.2 9.15-6.2 16.8 2.45 2.9 7.65 3.5 2 .3 3.9.95 22.65 12.95 17.3 40.6-4.8 21.2-18.9 28.45-11.15-8.35-19.95-3.15-3.55.95-6.55 3.25-.5.35-1 .5 1-3.4 4.6-6.1 12.9-4.9 22.15 1.85 15.7-12.55 17.45-28.3 2.65-23.9-11.8-31.7L26.9 21.6q-11.7-6.8-2.05-19.9 1.3-.95 2.8-1.7m4.55 29.15q15 7.05 11.65 28.4-2.2 13.7-14.65 19l3.3-2.05q5.75-4.2 8.4-10.8 2-5 2.25-11.3.15-4.3-.45-9.2l-.35-1.1q-1.85-5.7-5.4-9.35-2.1-2.2-4.75-3.6" fill="#ffc770" fill-rule="evenodd" transform="translate(1.5 1.5)"/><path d="M24.85 1.7Q15.2 14.8 26.9 21.6l11.25 5.15q14.45 7.8 11.8 31.7Q48.2 74.2 32.5 86.75 23.25 80 10.35 84.9q3.95-3.1 11.05-5.3l2.6-.8q2.8-.95 5.2-2.25 12.45-5.3 14.65-19Q47.2 36.2 32.2 29.15q-2.05-1.1-4.35-1.75L26.3 27q-3.25-1.2-5.35-2.9-3.8-3.1-4-7.8l.05-1.65q.65-3.8 2.3-6.8 2.05-3.65 5.55-6.15" fill="#bb4100" fill-rule="evenodd" transform="translate(1.5 1.5)"/><path d="M27.65 0q-1.5.75-2.8 1.7-3.5 2.5-5.55 6.15-2.1-.7-3.9.95 1.8-1.65 3.9-.95-1.65 3-2.3 6.8l-.05 1.65q.2 4.7 4 7.8 2.1 1.7 5.35 2.9l1.55.4q2.3.65 4.35 1.75 2.65 1.4 4.75 3.6 3.55 3.65 5.4 9.35l.35 1.1q.6 4.9.45 9.2-.25 6.3-2.25 11.3-2.65 6.6-8.4 10.8l-3.3 2.05q-2.4 1.3-5.2 2.25l-2.6.8q-7.1 2.2-11.05 5.3-3.6 2.7-4.6 6.1-1.9.5-3.85-2.25-3.4-6.5-.75-14.35 1.4-4.65 5.5-6.85l5.75.2Q5.5 77.1 10.35 84.9 5.5 77.1 12.4 67.75l5.4-.55q3.7-.85 6.6-3.05 2.35-1.85 3.9-4.05l1.15-1.6q1.65-2.25 2.35-5.05.7-2.55.6-5.45-.15-2.65-.95-5.6l-.15-.5q1.05-5.8 5.65-9.15-4.6 3.35-5.65 9.15-1.55-3.95-5.55-6.7l-2-1.2-.4-.2q-2.7-1.5-4.7-3.3 0-3.45 2.3-6.4-2.3 2.95-2.3 6.4-4.8-4.35-5.35-10.5-.3-3 .4-6.45.7-2.65 1.7-4.75 1-2.25 2.25-3.9-.1 2.55 1.1.85.75-1.15 2.55-2.65 1.75-1.55 0-1.5Q23.8.1 27 0h.65M14.7 12.3l-.3 1.85q-.05.85.2 1l.65-.6.55-1.9.2-1.9-.15-.85q-.15-.05-.5.65l-.65 1.75m2.25 4q-2.6 1.25-3.65 3.7 1.05-2.45 3.65-3.7m-.5 5.55q-.8-2.8-1.75-1.25.3 4.65 2.35 5.8.45.2.75-.3.5-1.05.1-1.8-.95-.9-1.45-2.45m21.2 18.6q0-3.15-1.65-4.1-1.6-1.3-3.35 5-.2 1.2.65 2.35 2.25-2.3 4.35-3.25m4.7 1.65q-7.05.45-9.95 5.9 2.9-5.45 9.95-5.9m.8 10.3Q38 50.25 31.8 53.45q6.2-3.2 11.35-1.05m-9.1-1.55q2.9-1.45 5.95-1.55.5.2.45-.55.15-3.65-.7-3.8-3.9-.1-6.35 3.25-.2 2.95.65 2.65m-6.2-23.45q-2.2 3.95-2.1 7.8-.1-3.85 2.1-7.8m-.45 6.95 2.15 2q.65.55 1.1-1.1.55-1.55 1.65-2.65-.7-1.8-3.5-2.45-1.6 0-1.4 4.2m-4.1-1.85q.7.55 1 .15-.15-2.45.6-3.65l-3.05-2.15q-1.55-.95-1.65 3 .55 1.1 3.1 2.65m9.2 42q-2.75-7.75-8.1-10.35 5.35 2.6 8.1 10.35m8.4-10.8q-5.05-5.55-12.6-3.6 7.55-1.95 12.6 3.6m-11.35-2.55q-3.55 2.9-2.3 3.05 2.3.3 4.35 2.8l2.15-.05q3.3-3.15 2.25-4.1-2.55-2.45-6.45-1.7M13.5 68.9q-.85.35-1.65 2.1-1.6 3.95-.45 9 3.15-2.05 6.7-2.8.3-10.65-4.6-8.3m15.3 3.85q-.3-4.65-4.35-7.1-1.3.1-3.1 1.25-1.3.5-1.1.95 1.9 2.35 2.85 6.05.2 1.25.8 1.1 2.35-1.55 4.9-2.25m-7.4 6.85q-.65-8-3.6-12.4 2.95 4.4 3.6 12.4m11.15-25.5q-.45 1.95-1.35 3.1-.85 1.1.05 1.05l5.65.3q.6.4 1.15.2 1.85-1.2 1.65-4.85-.2-2-7.15.2M6.65 68.35Q1 74.8 3.05 83.75l3.85-2.5Q5.85 73.8 9.25 69.4q.9-1.5-2.6-1.05" fill="#be4100" fill-rule="evenodd" transform="translate(1.5 1.5)"/><path d="M21.3 1.6q1.75-.05 0 1.5-1.8 1.5-2.55 2.65-1.2 1.7-1.1-.85 1.6-2.1 3.65-3.3m-6.6 10.7.65-1.75q.35-.7.5-.65l.15.85-.2 1.9-.55 1.9-.65.6q-.25-.15-.2-1l.3-1.85m1.75 9.55q.5 1.55 1.45 2.45.4.75-.1 1.8-.3.5-.75.3-2.05-1.15-2.35-5.8.95-1.55 1.75 1.25m21.2 18.6q-2.1.95-4.35 3.25-.85-1.15-.65-2.35 1.75-6.3 3.35-5 1.65.95 1.65 4.1m-3.6 10.4q-.85.3-.65-2.65 2.45-3.35 6.35-3.25.85.15.7 3.8.05.75-.45.55-3.05.1-5.95 1.55M23.3 32.5q-2.55-1.55-3.1-2.65.1-3.95 1.65-3L24.9 29q-.75 1.2-.6 3.65-.3.4-1-.15m4.1 1.85q-.2-4.2 1.4-4.2 2.8.65 3.5 2.45-1.1 1.1-1.65 2.65-.45 1.65-1.1 1.1l-2.15-2m2.15 26.8q3.9-.75 6.45 1.7 1.05.95-2.25 4.1L31.6 67q-2.05-2.5-4.35-2.8-1.25-.15 2.3-3.05M13.5 68.9q4.9-2.35 4.6 8.3-3.55.75-6.7 2.8-1.15-5.05.45-9 .8-1.75 1.65-2.1m15.3 3.85q-2.55.7-4.9 2.25-.6.15-.8-1.1-.95-3.7-2.85-6.05-.2-.45 1.1-.95 1.8-1.15 3.1-1.25 4.05 2.45 4.35 7.1m3.75-18.65q6.95-2.2 7.15-.2.2 3.65-1.65 4.85-.55.2-1.15-.2l-5.65-.3q-.9.05-.05-1.05.9-1.15 1.35-3.1M6.65 68.35q3.5-.45 2.6 1.05-3.4 4.4-2.35 11.85l-3.85 2.5Q1 74.8 6.65 68.35" fill="#ffb900" fill-rule="evenodd" transform="translate(1.5 1.5)"/><path d="M27.65 0q-1.5.75-2.8 1.7-3.5 2.5-5.55 6.15-1.65 3-2.3 6.8l-.05 1.65q.2 4.7 4 7.8 2.1 1.7 5.35 2.9l1.55.4q2.3.65 4.35 1.75 2.65 1.4 4.75 3.6 3.55 3.65 5.4 9.35l.35 1.1q.6 4.9.45 9.2-.25 6.3-2.25 11.3-2.65 6.6-8.4 10.8l-3.3 2.05q-2.4 1.3-5.2 2.25l-2.6.8q-7.1 2.2-11.05 5.3-4.85-7.8 2.05-17.15M10.35 84.9q-3.6 2.7-4.6 6.1M15.4 8.8q1.8-1.65 3.9-.95M13.3 20q1.05-2.45 3.65-3.7M32.4 48q2.9-5.45 9.95-5.9M31.8 53.45q6.2-3.2 11.35-1.05M31.3 41.9q1.05-5.8 5.65-9.15m-11.2 2.45q-.1-3.85 2.1-7.8M24.4 64.15q5.35 2.6 8.1 10.35m-4.2-14.4q7.55-1.95 12.6 3.6m-23.1 3.5q2.95 4.4 3.6 12.4m-2.75-49.1q0-3.45 2.3-6.4" fill="none" stroke="#4b1701" stroke-linecap="round" stroke-linejoin="round" transform="translate(1.5 1.5)"/><path d="M36.35 22.85q-1.9-.65-3.9-.95-5.2-.6-7.65-3.5-5-7.65 6.2-16.8l-1.85-.1h-.65q-3.2.1-5.7 1.6-2.05 1.2-3.65 3.3-1.25 1.65-2.25 3.9-1 2.1-1.7 4.75-.7 3.45-.4 6.45.55 6.15 5.35 10.5 2 1.8 4.7 3.3l.4.2 2 1.2q4 2.75 5.55 6.7l.15.5q.8 2.95.95 5.6.1 2.9-.6 5.45-.7 2.8-2.35 5.05l-1.15 1.6q-1.55 2.2-3.9 4.05-2.9 2.2-6.6 3.05l-5.4.55-5.75-.2q-4.1 2.2-5.5 6.85Q0 83.75 3.4 90.25 5.35 93 7.25 92.5q.5-.15 1-.5 3-2.3 6.55-3.25 4.85-1.3 10.7-.15 5.35 1.9 7.9 5.45 1.15 1.15 3.7-.35 8.6-6.25 13.15-14.85 9.2-16.75 4.7-34.55-5.9-17.35-18.6-21.45z" fill="none" stroke="#4b1701" stroke-linecap="round" stroke-linejoin="round" stroke-width="3"/></g><g id="j"><path d="M7.4 5.25q1.7-1.2 4.15.35 2.4 1.55 4.75 5.85 2.35 4.35 2.25 7.85-.1 3.5-2.2 3.1-2.2-.4-4.45-2.35-2.3-1.95-4.2-4.8-1.85-2.8-1.9-5.8-.1-3.05 1.6-4.2" fill="#d68dff" fill-rule="evenodd" transform="translate(1 1.5)"/><path d="M14.75 4.05q3.5 3.8 7.15 11.1 3.5 7.15 1.75 13.25l-1.35.35h-.05q1.9-10.85-8.15-23.6-.9-1.95.65-1.1" fill="#ff3f92" fill-rule="evenodd" transform="translate(1 1.5)"/><path d="M7.4 5.25Q5.7 6.4 5.8 9.45q.05 3 1.9 5.8 1.9 2.85 4.2 4.8 2.25 1.95 4.45 2.35 2.1.4 2.2-3.1.1-3.5-2.25-7.85-2.35-4.3-4.75-5.85Q9.1 4.05 7.4 5.25M8.25 0l1.95.6 3.9 4.55q10.05 12.75 8.15 23.6-4.95-.2-8.4-4.05-1.75-1.95-3.45-3Q.9 16.65 2.1 6.9l.65-1.4Q4.7 1.4 8.25 0" fill="#b100e4" fill-rule="evenodd" transform="translate(1 1.5)"/><path d="m22.3 28.75-2.15.55q-4.2.85-8.55-3.3-4.55-4.15-10.15-5.05Q-1.7 15.4 2.1 6.9q-1.2 9.75 8.3 14.8 1.7 1.05 3.45 3 3.45 3.85 8.4 4.05h.05" fill="#4e0183" fill-rule="evenodd" transform="translate(1 1.5)"/><path d="M10.2.6q2.2.95 4.55 3.45-1.55-.85-.65 1.1L10.2.6" fill="#4d0082" fill-rule="evenodd" transform="translate(1 1.5)"/><path d="M2.45 22.45Q-.7 16.9 3.1 8.4L3.75 7q1.95-4.1 5.5-5.5" fill="none" stroke="#0f001a" stroke-linecap="round" stroke-linejoin="round" stroke-width="2"/><path d="m9.25 1.5 1.95.6q2.2.95 4.55 3.45 3.5 3.8 7.15 11.1 3.5 7.15 1.75 13.25m-3.5.9q-4.2.85-8.55-3.3-4.55-4.15-10.15-5.05" fill="none" stroke="#0f001a" stroke-linecap="round" stroke-linejoin="round" stroke-width="3"/></g><g id="k"><path d="M12.9 1.7q-.5-.05-.05.65 1.8 1.8 2.85 5.95.25 1.35 1.15.4.85-1-1.9-5.1-1.3-1.6-2.05-1.9m5.85 15.15 4.55.1q-.35 1.7-1.7 2.9L17.85 23l-.3-.3q-.95-4 1.2-5.85M.6 41.55.05 38q.3.5 1.15-2.2 1.95 2.25 4.2-1.1 2.05-4-.75-4.6l.55-.5.2-.15q.95-.65 1.6-2.05.2 1.3.65 2.15 1.6 1.15 3.3 1.05 2.15-.1 4.45-2.2.25-.5-.05-1.2-.6-.7-1.45-.3-1.85 1.45-4 .5-2.3-1.15-2.05-10 .2-1.3 3.8-1.4 2-.4.35-1.95l1.45.15q1.05 1.9-.85 3.25-2.35 4.1 3 5.4v.55q-5.3.95-5.15-5.05-1.3 5.9 1.75 7.75 2.1.6 5.15-.5.35.25.35.85v.25q-2.25 5.45-8.65 4.4-.9-.5-1.4-1.55.5 1.05 1.4 1.55l.45.15q1.55 1.55 4.25 1.7-3.3 5.7-7.9 8.6-2.55 1.35-5.25 0M7.55 15.2v-2.55Q7.3 7.25 5.05 2.5 4.15.35 4.45 0L7.8.55q6.75.3 9.15 4.05 1.05 4.15-.55 5.45h1.2q.4 3.35 0 5.6-.2 3.4-1.9-2.45-.3-10.35-6.1-11.9L7.8.55q5.65 6 3.75 9.5.55.25 1.3 0 .65 3.1-2.1 4.1-1.6.2-3.2 1.05M22 17.4q.1-1-1.25-.9-1.9.35-2.85 2.05-.85 1.8.1 2.45.35.35.9-1 2.65-1.15 3.1-2.6m-2.05 10.8-1.45.35q1.1-1.65.5-3.85l2.95-1.55q-.1 3.15-2 5.05M5 1l.9 1.75q.6.95 1.05 2.65l.45 2.4q.45 1.35 2.45.85 1.35-.55.6-3.6Q8.65.4 5.15.7 4.95.75 5 1" fill="#b100e4" fill-rule="evenodd" transform="translate(.5 1.5)"/><path d="M12.9 1.7q.75.3 2.05 1.9 2.75 4.1 1.9 5.1-.9.95-1.15-.4-1.05-4.15-2.85-5.95-.45-.7.05-.65M6.8 23.55l-.25-2.65v-.05q.65-3.8.05-5.05l.95-.6q1.6-.85 3.2-1.05l1.25-.1q1.65 1.55-.35 1.95-3.6.1-3.8 1.4-.25 8.85 2.05 10 2.15.95 4-.5.85-.4 1.45.3.3.7.05 1.2-2.3 2.1-4.45 2.2Q8.4 29.65 8 27.65l-1.2-4.1M22 17.4q-.45 1.45-3.1 2.6-.55 1.35-.9 1-.95-.65-.1-2.45.95-1.7 2.85-2.05 1.35-.1 1.25.9M6.95 5.4Q9 6.05 8.5 4.3 8 1.4 5 1q-.05-.25.15-.3 3.5-.3 5.3 4.35.75 3.05-.6 3.6-2 .5-2.45-.85l-.45-2.4M1.2 35.8l.45-1.7q.85-2.25 3-4 2.8.6.75 4.6-2.25 3.35-4.2 1.1" fill="#d190f8" fill-rule="evenodd" transform="translate(.5 1.5)"/><path d="m23.3 16.95.4.25q1.7 1.35.4 4.25l-1.65.6-.5.3-.2.1q-2.9 1.35-3.9.55l3.75-3.15q1.35-1.2 1.7-2.9m-.05 2.9q.45 1.25-.8 2.2 1.25-.95.8-2.2" fill="#460175" fill-rule="evenodd" transform="translate(.5 1.5)"/><path d="M16.95 4.6q.95 1.65 1.15 3.5 1.25 2.95.65 8.75-2.15 1.85-1.2 5.85l.3.3q1 .8 3.9-.55l.2-.1v.8L19 24.7q.6 2.2-.5 3.85l1.45-.35q-.4 1.05.15 1.2l-.55.2Q14.4 48.05 6.6 49.85q-2.2-.55-4.15-2.3-1.15-2.1-1.85-6 2.7 1.35 5.25 0 4.6-2.9 7.9-8.6-2.7-.15-4.25-1.7l-.45-.15q6.4 1.05 8.65-4.4v-.25q0-.6-.35-.85-3.05 1.1-5.15.5-3.05-1.85-1.75-7.75-.15 6 5.15 5.05v-.55q.05-3.2.75-5.65-.25-1.6-1.5-2.65.4-3.55-.8-5.5l-.25-.4q-.35-5.3-4.2-7.35 3.85 2.05 4.2 7.35l.25.4q1.2 1.95.8 5.5 1.25 1.05 1.5 2.65-.7 2.45-.75 5.65-5.35-1.3-3-5.4 1.9-1.35.85-3.25L12 14.05l-1.25.1q2.75-1 2.1-4.1-.75.25-1.3 0 1.9-3.5-3.75-9.5l1.8.75q5.8 1.55 6.1 11.9 1.7 5.85 1.9 2.45.4-2.25 0-5.6h-1.2q1.6-1.3.55-5.45m-1.7 26.7q2.1-1.4 2.45-4.6-.35 3.2-2.45 4.6m-.4-16.75-1.4-.35 1.4.35m4.7 15.05-1.8.15 1.8-.15" fill="#4d0082" fill-rule="evenodd" transform="translate(.5 1.5)"/><path d="m24.1 21.45-.2.35q-.9 1.8-1.6 4.75-.75 2.1-2.2 2.85-.55-.15-.15-1.2 1.9-1.9 2-5.05v-.8l.5-.3 1.65-.6" fill="#8a3ab5" fill-rule="evenodd" transform="translate(.5 1.5)"/><path d="M.05 38 0 36.85q0-.85.15-1.65.6-3.4 3.7-5.7 1.5-1.2 3-3.9l-.05-2.05 1.2 4.1q.4 2 2.95 2.95-1.7.1-3.3-1.05Q7.2 28.7 7 27.4q-.65 1.4-1.6 2.05l-.2.15-.55.5q-2.15 1.75-3 4l-.45 1.7Q.35 38.5.05 38m6.5-17.15-.1-.55q-.4-1.5-.45-2.55-.05-1.25.45-1.9l.15-.05q.6 1.25-.05 5.05m.4-15.45Q6.5 3.7 5.9 2.75L5 1q3 .4 3.5 3.3.5 1.75-1.55 1.1m.05 22-.15-1.6v-.2.2L7 27.4" fill="#ffefff" fill-rule="evenodd" transform="translate(.5 1.5)"/><path d="M.05 38 0 36.85q0-.85.15-1.65.6-3.4 3.7-5.7 1.5-1.2 3-3.9M9.6 1.3q3.85 2.05 4.2 7.35l.25.4q1.2 1.95.8 5.5 1.25 1.05 1.5 2.65-.7 2.45-.75 5.65v.55q-5.3.95-5.15-5.05m7.25 8.1v.25q-.35 3.2-2.45 4.6m-4.5-17.15 1.25-.1 1.45.15 1.4.35m3.9 2.3q-2.15 1.85-1.2 5.85l.3.3q1 .8 3.9-.55l.2-.1.5-.3q1.25-.95.8-2.2m-5.5 9.9 1.8-.15M7.8.55l1.8.75M7.55 15.2q1.6-.85 3.2-1.05" fill="none" stroke="#0f001a" stroke-linecap="round" stroke-linejoin="round" transform="translate(.5 1.5)"/><path d="M17.45 6.1q.95 1.65 1.15 3.5 1.25 2.95.65 8.75l4.55.1.4.25q1.7 1.35.4 4.25l-.2.35q-.9 1.8-1.6 4.75-.75 2.1-2.2 2.85l-.55.2Q14.9 49.55 7.1 51.35q-2.2-.55-4.15-2.3m4.4-21.95-.05-2.05-.25-2.65v-.05l-.1-.55q-.4-1.5-.45-2.55-.05-1.25.45-1.9l.15-.05.95-.6v-2.55Q7.8 8.75 5.55 4q-.9-2.15-.6-2.5l3.35.55q6.75.3 9.15 4.05m-9.3 24.95q.5 1.05 1.4 1.55l.45.15M7.35 27.1v.2l.15 1.6q.2 1.3.65 2.15" fill="none" stroke="#0f001a" stroke-linecap="round" stroke-linejoin="round" stroke-width="3"/></g><use ffdec:characterId="5" height="90" width="90" xlink:href="#l" id="b"/><use ffdec:characterId="4" height="90" width="90" xlink:href="#m" id="l"/><use ffdec:characterId="3" height="90" width="90" xlink:href="#n" id="m"/><use ffdec:characterId="2" height="60.15" transform="scale(1.4963)" width="60.15" xlink:href="#o" id="n"/><use ffdec:characterId="1" height="60.15" width="60.15" xlink:href="#p" id="o"/><path d="M60.15 0v60.15H0V0h60.15" fill="#872801" fill-opacity="0" fill-rule="evenodd" id="p"/><path d="M103.25 34.2q-17.7 5.9-42.75 5.9-25 0-42.75-5.9Q0 28.35 0 20.05t17.75-14.2Q35.5 0 60.5 0q25.05 0 42.75 5.85Q121 11.75 121 20.05q0 8.3-17.75 14.15" fill-opacity=".349" fill-rule="evenodd" id="d"/></defs></svg>