<svg xmlns:ffdec="https://www.free-decompiler.com/flash" xmlns:xlink="http://www.w3.org/1999/xlink" ffdec:objectType="frame" height="90" width="90" xmlns="http://www.w3.org/2000/svg"><use ffdec:characterId="31" height="75.45" transform="translate(.8 7.9)" width="91.3" xlink:href="#a"/><defs><linearGradient gradientTransform="matrix(.0073 .0273 -1.0823 .2906 178.75 -19.35)" gradientUnits="userSpaceOnUse" id="B" spreadMethod="pad" x1="-819.2" x2="819.2"><stop offset="0" stop-color="#3e0066"/><stop offset="1" stop-color="#5d00aa"/></linearGradient><linearGradient gradientTransform="matrix(.0097 0 -.0028 1.1207 38.95 -157.05)" gradientUnits="userSpaceOnUse" id="C" spreadMethod="pad" x1="-819.2" x2="819.2"><stop offset="0" stop-color="#593c9a"/><stop offset="1" stop-color="#5b1f79"/></linearGradient><linearGradient gradientTransform="matrix(.0025 .0219 -.9922 .1139 127.65 12.65)" gradientUnits="userSpaceOnUse" id="D" spreadMethod="pad" x1="-819.2" x2="819.2"><stop offset="0" stop-color="#2a0063"/><stop offset="1" stop-color="#7339b1"/></linearGradient><linearGradient gradientTransform="matrix(.0021 .0181 -.9922 .1139 168.8 9.45)" gradientUnits="userSpaceOnUse" id="E" spreadMethod="pad" x1="-819.2" x2="819.2"><stop offset="0" stop-color="#2a0063"/><stop offset="1" stop-color="#7339b1"/></linearGradient><linearGradient gradientTransform="matrix(.0001 .0194 -.9983 .0033 156.45 25.75)" gradientUnits="userSpaceOnUse" id="F" spreadMethod="pad" x1="-819.2" x2="819.2"><stop offset="0" stop-color="#3e268a"/><stop offset="1" stop-color="#8065cf"/></linearGradient><linearGradient gradientTransform="matrix(.0037 .0137 -.9652 .2584 175.05 -21.9)" gradientUnits="userSpaceOnUse" id="G" spreadMethod="pad" x1="-819.2" x2="819.2"><stop offset="0" stop-color="#6b33a1"/><stop offset="1" stop-color="#23005c"/></linearGradient><linearGradient gradientTransform="matrix(.0015 .0056 -.9659 .259 133.95 -12.3)" gradientUnits="userSpaceOnUse" id="H" spreadMethod="pad" x1="-819.2" x2="819.2"><stop offset="0" stop-color="#745ac1"/><stop offset="1" stop-color="#3b2487"/></linearGradient><linearGradient gradientTransform="matrix(.0043 .016 -.9652 .2584 229.5 -18.95)" gradientUnits="userSpaceOnUse" id="I" spreadMethod="pad" x1="-819.2" x2="819.2"><stop offset="0" stop-color="#6b33a1"/><stop offset="1" stop-color="#23005c"/></linearGradient><linearGradient gradientTransform="matrix(.0044 .0166 -.9659 .259 173.1 -.15)" gradientUnits="userSpaceOnUse" id="J" spreadMethod="pad" x1="-819.2" x2="819.2"><stop offset="0" stop-color="#745ac1"/><stop offset="1" stop-color="#3b2487"/></linearGradient><linearGradient gradientTransform="matrix(.0061 -.0226 .9643 .2588 -204.4 -38.85)" gradientUnits="userSpaceOnUse" id="K" spreadMethod="pad" x1="-819.2" x2="819.2"><stop offset="0" stop-color="#632c63"/><stop offset=".525" stop-color="#992a82"/><stop offset="1" stop-color="#c22e54"/></linearGradient><linearGradient gradientTransform="matrix(.0015 .0058 -.9632 .2626 107.15 3.8)" gradientUnits="userSpaceOnUse" id="L" spreadMethod="pad" x1="-819.2" x2="819.2"><stop offset="0" stop-color="#d7497f"/><stop offset="1" stop-color="#af2d96"/></linearGradient><linearGradient gradientTransform="matrix(.004 .007 -.8659 .4971 99.15 -17.05)" gradientUnits="userSpaceOnUse" id="M" spreadMethod="pad" x1="-819.2" x2="819.2"><stop offset="0" stop-color="#ffce92"/><stop offset="1" stop-color="#ffa2ab"/></linearGradient><linearGradient gradientTransform="matrix(0 .0066 -.9986 -.001 114.45 28.6)" gradientUnits="userSpaceOnUse" id="N" spreadMethod="pad" x1="-819.2" x2="819.2"><stop offset="0" stop-color="#ac0427"/><stop offset="1" stop-color="#83013e"/></linearGradient><linearGradient gradientTransform="matrix(.0024 .0091 -.9659 .259 120 6.55)" gradientUnits="userSpaceOnUse" id="O" spreadMethod="pad" x1="-819.2" x2="819.2"><stop offset="0" stop-color="#8c273b"/><stop offset="1" stop-color="#68064a"/></linearGradient><linearGradient gradientTransform="matrix(-.003 -.0232 .9891 -.1265 -177.85 48.65)" gradientUnits="userSpaceOnUse" id="P" spreadMethod="pad" x1="-819.2" x2="819.2"><stop offset="0" stop-color="#632c63"/><stop offset=".525" stop-color="#992a82"/><stop offset="1" stop-color="#c22e54"/></linearGradient><linearGradient gradientTransform="matrix(-.0047 .0082 -.8646 -.4991 122.05 62.25)" gradientUnits="userSpaceOnUse" id="Q" spreadMethod="pad" x1="-819.2" x2="819.2"><stop offset="0" stop-color="#cb1419"/><stop offset="1" stop-color="#82013a"/></linearGradient><linearGradient gradientTransform="matrix(.0078 .0251 -.9518 .2961 146.2 2.6)" gradientUnits="userSpaceOnUse" id="R" spreadMethod="pad" x1="-819.2" x2="819.2"><stop offset="0" stop-color="#6d64d3"/><stop offset="1" stop-color="#e7e7fb"/></linearGradient><linearGradient gradientTransform="matrix(.0078 .0251 -.9518 .2961 165.35 -.85)" gradientUnits="userSpaceOnUse" id="S" spreadMethod="pad" x1="-819.2" x2="819.2"><stop offset="0" stop-color="#6d64d3"/><stop offset="1" stop-color="#e7e7fb"/></linearGradient><use ffdec:characterId="1" height="57.35" width="67.95" xlink:href="#b" id="o"/><use ffdec:characterId="3" height="26.45" width="101.4" xlink:href="#c" id="p"/><use ffdec:characterId="5" height="40.9" width="63.35" xlink:href="#d" id="q"/><use ffdec:characterId="7" height="48" width="34.95" xlink:href="#e" id="r"/><use ffdec:characterId="9" height="86.8" width="108.4" xlink:href="#f" id="s"/><use ffdec:characterId="11" height="45.8" width="25.05" xlink:href="#g" id="t"/><use ffdec:characterId="13" height="19.85" width="25.05" xlink:href="#h" id="u"/><use ffdec:characterId="15" height="45.35" width="27.2" xlink:href="#i" id="v"/><use ffdec:characterId="17" height="38.4" width="36.2" xlink:href="#j" id="w"/><use ffdec:characterId="19" height="63.2" width="45" xlink:href="#k" id="x"/><use ffdec:characterId="21" height="71.8" width="81.8" xlink:href="#l" id="y"/><use ffdec:characterId="27" height="26.45" width="25.8" xlink:href="#m" id="z"/><use ffdec:characterId="29" height="74.65" width="32.15" xlink:href="#n" id="A"/><g id="a" transform="translate(-.8 -7.9)"><use ffdec:characterId="2" height="57.35" transform="translate(26.65 27.25) scale(.5489)" width="67.95" xlink:href="#o"/><use ffdec:characterId="4" height="26.45" transform="translate(26.2 74.477) scale(.3356)" width="101.4" xlink:href="#p"/><use ffdec:characterId="6" height="40.9" transform="translate(36.85 47.35) scale(.4891)" width="63.35" xlink:href="#q"/><use ffdec:characterId="8" height="48" transform="translate(17.35 37.9) scale(.5489)" width="34.95" xlink:href="#r"/><use ffdec:characterId="10" height="86.8" transform="translate(11.85 23.05) scale(.5489)" width="108.4" xlink:href="#s"/><use ffdec:characterId="12" height="45.8" transform="translate(38.4 48.15) scale(.5489)" width="25.05" xlink:href="#t"/><use ffdec:characterId="14" height="19.85" transform="translate(25.1 41.7) scale(.5489)" width="25.05" xlink:href="#u"/><use ffdec:characterId="16" height="45.35" transform="translate(36.85 48.8) scale(.5489)" width="27.2" xlink:href="#v"/><use ffdec:characterId="18" height="38.4" transform="translate(30.15 37.95) scale(.5489)" width="36.2" xlink:href="#w"/><use ffdec:characterId="20" height="63.2" transform="translate(57.2 37) scale(.5489)" width="45" xlink:href="#x"/><use ffdec:characterId="26" height="71.8" transform="translate(19.6 7.9) scale(.5489)" width="81.8" xlink:href="#y"/><use ffdec:characterId="28" height="26.45" transform="translate(41.8 41) scale(.5489)" width="25.8" xlink:href="#z"/><use ffdec:characterId="30" height="74.65" transform="translate(2.75 25.2) scale(.5489)" width="32.15" xlink:href="#A"/></g><g id="b" fill-rule="evenodd"><path d="M57.4 44.45q.55-1.05 1.6-2 2.05-1.8 2.05-4.75l-.25-3.9-3.05-8.55q-1.55-2.65-7-9.7-5.45-7.1-16.55-11.3-6.3-2.4-12.6-2.9-3.75-.3-7.5.05 7.6-2.45 15.45-.65Q40.7 3.2 48.9 11.3q7.95 7.9 12.75 18.1l.2.45.4 2.35.4 4.35q.15 2.85-1.75 5.75-1.95 2.85-1.9 4.85 0 2 2.75 2.95 2.8.95 4.35.9l1.85-.35q-2.65 3.3-7.05 3.7Q53.4 62 26.65 50q-11.15.55-13.2-2.75-2.05-3.05-3.25-10.5-21.7-11.85 2.85-35l.05.05Q-7.6 26.25 9.15 35.05l.85.45-.25-1.95.55 2.05.4 1.35q2.75 9.95 4.65 10.7 3.9 1.65 9.35 1.6l3.75-.3q20.4 9.4 30.8 5.45h-.4l-.8-.05q-2.2-.25-3-2.2l-.3-1q1.3 4.15 8.5 1.25l.8-.15q-2.95-.3-5.1-1.85-2.2-1.55-2.1-3.85L57.2 45l.2-.55M38.15 32.5q5.4-3.45-2-20.35 8.75 17.5 2 20.35" fill="#355183"/><path d="M21.6 1.35q6.3.5 12.6 2.9 11.1 4.2 16.55 11.3 5.45 7.05 7 9.7l3.05 8.55.25 3.9q0 2.95-2.05 4.75-1.05.95-1.6 2 .15-2.1.9-3.6l-1 .6q-.8.65-1.25 1.25v-.55q.3-3.6 2.25-5.95l-3.15.95q-4 1.05-8.8-1.9 2.9-1.3 2.9-3.9 0-1.65-1.1-1.85l-2.65-.2.65 3.7-.2 1.55-.65-1.4q-.8-1.2-1.4-1.2h-.25l.1 3.3q.05.75.55 1.45l.75 1.05q.55 1.3.75 2.85l.05.4.15 1q.4.5 1.15.8l2.4.35L52 43.1q1.55.2 1.55 1.45l-.3.9.35.65.25.75-.35.7.85 1.2q3.45 4.55 8.9 3.65-7.2 2.9-8.5-1.25l.3 1-.9-.55q-1.45-1.1-2.25-2.85l-.45.2-2 .9 1.1 1.25q2.9 3.65 7.5 3.25l.8.05h.4q-10.4 3.95-30.8-5.45l-3.75.3q-14.2-5.6-11.35-14.7-.5 8.35 6.8 10.1-4.2-6.45-3.5-12.9.8 6.75 2.4 7.6v-14.6q-5.95-3.1-6.55-9.3 1.1-2.85 9.1-14.1M38.15 32.5q6.75-2.85-2-20.35 7.4 16.9 2 20.35" fill="#6c9fd3"/><path d="M9.15 35.05Q-7.6 26.25 13.1 1.8v-.05l1-.35q3.75-.35 7.5-.05-8 11.25-9.1 14.1-2.75 6.85-.45 12.7-3.1-3.3-3.9-8.9-3.15 4.45 1 15.8" fill="#feffff"/><path d="m57.4 44.45-.2.55-.35 1.55q-.1 2.3 2.1 3.85 2.15 1.55 5.1 1.85l-.8.15q-5.45.9-8.9-3.65l-.85-1.2.35-.7-.25-.75-.35-.65.3-.9q0-1.25-1.55-1.45l-2.45.05-2.4-.35q-.75-.3-1.15-.8l-.15-1-.05-.4q-.2-1.55-.75-2.85l-.75-1.05q-.5-.7-.55-1.45l-.1-3.3h.25q.6 0 1.4 1.2l.65 1.4.2-1.55-.65-3.7 2.65.2q1.1.2 1.1 1.85 0 2.6-2.9 3.9 4.8 2.95 8.8 1.9l3.15-.95q-1.95 2.35-2.25 5.95v.55q.45-.6 1.25-1.25l1-.6q-.75 1.5-.9 3.6m-2.35 7.7q.8 1.95 3 2.2-4.6.4-7.5-3.25l-1.1-1.25 2-.9.45-.2q.8 1.75 2.25 2.85l.9.55m-30.35-2.9q-5.45.05-9.35-1.6-1.9-.75-4.65-10.7l-.4-1.35-.55-2.05.25 1.95-.85-.45Q5 23.7 8.15 19.25q.8 5.6 3.9 8.9-2.3-5.85.45-12.7.6 6.2 6.55 9.3v14.6q-1.6-.85-2.4-7.6-.7 6.45 3.5 12.9-7.3-1.75-6.8-10.1-2.85 9.1 11.35 14.7" fill="#b7d6f6"/></g><g id="d" fill-rule="evenodd"><path d="m18.95 2.85.35.2.05.05q14 19.65 26.8 22.5 7.95 1.1 13.9-6.25 5.85 7.05 1.35 13Q51.3 44 27.1 39.75.15 28.8 0 9.55l.7-1.5Q.65 13 2.2 17.25l.15.4q3.5 9.35 14.8 15.6 4.65 2.6 10.6 4.6l7.6 1.05q8.8.6 15.85-1.95 3.8-1.4 7.2-3.7 5.05-4.75 1.45-11.2-3.65 5.4-12.45 5.7l-.45-.1q1.35.9 4.05 1.9l5.6 1.6q-3.75-.35-7.2-1.5-4.75-1.55-9-4.5l-.3-.55-3.7-2.35-4.65-3.75q-3.95-3.6-7.65-8.3-2.65-3.4-5.15-7.35" fill="#5f0665"/><path d="m21.7 29-.2-.75-1.95-9.05 5.85 6.2-3.7 3.6" fill="#5b1f79"/><path d="M17.15 33.25Q5.85 27 2.35 17.65l-.15-.4.65-1.35.45.4q1.3 1.3 18.2 11.95l.2.75-4.55 4.25" fill="#5c1f79"/><path d="M.7 8.05Q7.5-4.8 18.95 2.85q2.5 3.95 5.15 7.35 3.35 7.6 7.05 13.05l-.95 1.8q3.6 3.65 1.7 10.9.85 2.35 3.45 2.95l-7.6-1.05q-5.95-2-10.6-4.6L21.7 29l3.7-3.6-5.85-6.2 1.95 9.05Q4.6 17.6 3.3 16.3l-.45-.4-.65 1.35Q.65 13 .7 8.05" fill="url(#B)"/><path d="M51.2 36.95q-7.05 2.55-15.85 1.95-2.6-.6-3.45-2.95 1.9-7.25-1.7-10.9l.95-1.8q9.1 13.6 20.05 13.7" fill="url(#C)"/><path d="m31.75 18.5 4.65 3.75q3.25 5.6 7.05 8.6 6.65 5.25 14.95 2.4-3.4 2.3-7.2 3.7-10.95-.1-20.05-13.7.8-2.2.6-4.75" fill="#f37cd7"/><path d="M24.1 10.2q3.7 4.7 7.65 8.3.2 2.55-.6 4.75-3.7-5.45-7.05-13.05" fill="#f14ad2"/><path d="m36.4 22.25 3.7 2.35.3.55q1.6 2.9 7 5.05-1.2.75-3.95.65-3.8-3-7.05-8.6" fill="#f04ed4"/><path d="M40.4 25.15q4.25 2.95 9 4.5h-1q4.75 3.65 10 3.6-8.3 2.85-14.95-2.4 2.75.1 3.95-.65-5.4-2.15-7-5.05" fill="#681ac8"/><path d="M51 29.55q-2.7-1-4.05-1.9l.45.1q5.45 1.2 9.3-.1-1.55 1.45-5.7 1.9" fill="#6819c8"/><path d="M49.4 29.65q3.45 1.15 7.2 1.5l-5.6-1.6q4.15-.45 5.7-1.9-3.85 1.3-9.3.1 8.8-.3 12.45-5.7 3.6 6.45-1.45 11.2-5.25.05-10-3.6h1" fill="#8856cb"/></g><g id="e" fill-rule="evenodd"><path d="m30.8 10.05-3.15-.75Q25 8.25 24.55 8.25l-2.5.35-3.75.3-2.75-.5L14.4 8l-.55.2-.55.15-.5-.25q.45-.05.6-.3l.05-.05.1-.8L12.2 2.7l-.2-.6-1.2 1.8q-.75.95-1.65 2.85 0 .7.85 1.15l.45.2v.2q-1 .1-1.8-.75Q7.35 8.7 6.3 10.2q-2.25 3.15-3.1 6.3l-.6 2q-4.45 21.25 15.2 27.85l4.35 1.2Q-2 43.55.2 21.7.45 13.75 8 6.2q.5-1.15 2.1-3.75Q11.65-.15 12.05 0q.35.1 1.45 2.65.95 2.3 1.2 3.95 1.4 1.25 4.05 1.3l4.45-.4q1.85-.5 4.35.85Q30.4 9.6 33.4 9.7l.85.65-1.3-.05-2.15-.25" fill="#2d021d"/><path d="m12.8 8.1.5.25.55-.15.55-.2 1.15.4 2.75.5 3.75-.3 2.5-.35q.45 0 3.1 1.05l3.15.75q-3.5 1.75-4.95.85-1.5-.9-1.35-1.2-.9.5-.65 1.9-5.75 3.8-7.35 10.7 1.65-8 7.45-12.7-3.05 1.05-4.3 2.45-3.7 4.7-3.65 12.9l-.1 2.3.2.65q-.25 1.6-.35 3.35-.05.7-.75.55l-.2-1.85q-1.95-10.6 5-18.75-.85-.55-1.8-.6l-2.1-.05-2.55.15h-.25l.7-1 .55-.7-.05-.15-.25.05q-4.2 1.7-7.45 7.85-3.25 5.85-2.15 13.6Q1.25 20 8.65 7.55q.8.85 1.8.75v-.2l1.35.15.8-.1.2-.05" fill="#77205c"/><path d="m30.8 10.05 2.15.25q1.1.6 1.35 1.4-4.55 1.85-8.95.9l.75-.6-.8.55-.55.4q-7.2 5.2-8.65 14.95l-.2-.65.1-2.3.3-1.75.2-.9q1.6-6.9 7.35-10.7-.25-1.4.65-1.9-.15.3 1.35 1.2 1.45.9 4.95-.85M4.45 30.35q-1.1-7.75 2.15-13.6 3.25-6.15 7.45-7.85l.25-.05.05.15-.55.7-.7 1-.35.1q-11.6 12-5.45 25.4-1.9-2.85-2.85-5.85" fill="#4d0b1d"/><path d="m32.95 10.3 1.3.05.2.25q.6.7.5 1.65-.1 1.15-1.35 2.55-1.85.5-4.9 3.2-10.6 10.45-4 17.15-7.6-5.45 3.4-17.35 2.7-2.5 4.95-3.6l.3-.3q.9-.85 1-1.6l-.05-.6q-.25-.8-1.35-1.4" fill="#290015"/><path d="M34.35 12.3q-.1.75-1 1.6l-.3.3q-2.25 1.1-4.95 3.6-11 11.9-3.4 17.35-6.1-1.45-8.1-7.4l.05-.2q1.4-8.8 8.2-14.5 3.7.85 9.5-.75" fill="url(#D)"/><path d="M24.7 35.15q-5.95-.3-8.25-6.2L16.3 31q-.35 1.9-1.15 1.3l-.15-.4v-.1q.7.15.75-.55.1-1.75.35-3.35 1.45-9.75 8.65-14.95l.55-.4.8-.55-.75.6q4.4.95 8.95-.9l.05.6q-5.8 1.6-9.5.75-6.8 5.7-8.2 14.5l-.05.2q2 5.95 8.1 7.4" fill="#2e021e"/><path d="M17.8 46.35Q-1.85 39.75 2.6 18.5l.6-2q.85-3.15 3.1-6.3 1.05-1.5 2.35-2.65-7.4 12.45-4.2 22.8.95 3 2.85 5.85l1.1 1.55.2.25 3.55 3.85q2.45 2.3 5.65 4.5M16 24.95q-.05-8.2 3.65-12.9 1.25-1.4 4.3-2.45-5.8 4.7-7.45 12.7l-.2.9-.3 1.75" fill="#cf3284"/><path d="M10.45 8.1 10 7.9q-.85-.45-.85-1.15.9-1.9 1.65-2.85L12 2.1l.2.6-.55.6L11 4.55q-.4 1.1-.55 2.25v1.3" fill="#ffcece"/><path d="M10.45 7.15V6.8q.15-1.15.55-2.25l.65-1.25.25.7.2 1.7q.05 1.1-1.4 1.45h-.25" fill="#de9191"/><path d="m12.2 2.7 1.35 4.25-.1.8-.6.3-.25.1-.8.1-1.35-.15v-.95h.25q1.45-.35 1.4-1.45L11.9 4l-.25-.7.55-.6" fill="#9f6575"/><path d="m13.35 10.7-1.85 2.05q2.5-1 5.2-1.05h2.1l-.4.55-.7-.05-3.45.25q-2.45.45-3.55 1.25l-.05.05Q5 21.05 5.75 28.9q.4 4.45 2.85 9.1l-.2-.25-1.1-1.55q-6.15-13.4 5.45-25.4l.35-.1h.25" fill="#2b0225"/><path d="m15 31.8-.25-.75L14.3 29l-.05-.3q-.4-2.25-.2-4.55v-.6l.25-1.7.2-1 .25-1.15.3-1q1-3.45 3.35-6.45l.4-.55h-2.1q-2.7.05-5.2 1.05l1.85-2.05 2.55-.15 2.1.05q.95.05 1.8.6-6.95 8.15-5 18.75l.2 1.85" fill="#4e0b1d"/><path d="m22.15 47.55-4.35-1.2q-3.2-2.2-5.65-4.5Q9.4 28.7 14.55 14.7q-7.6 6-8.8 14.2-.75-7.85 4.9-15.15l.05-.05q1.1-.8 3.55-1.25l3.45-.25.7.05q-2.35 3-3.35 6.45l-.3 1-.25 1.15-.2 1-.25 1.7v.6q-.2 2.3.2 4.55l.05.3q-1.75 13.15 10.1 18.85l-2.25-.3" fill="url(#E)"/><path d="M14.75 31.05Q14.4 42.5 25.75 48l-1.35-.15Q12.55 42.15 14.3 29l.45 2.05" fill="#2b0018"/><path d="M5.75 28.9q1.2-8.2 8.8-14.2-5.15 14-2.4 27.15L8.6 38q-2.45-4.65-2.85-9.1" fill="url(#F)"/></g><g id="f" fill-rule="evenodd"><path d="M19.95 49.7 99.6 1.6l1.4.1.7-.7q.4-.4 1.15-.7l1.5-.3 1.8.5q.7.3 1.25.95.5.6.8 1.45.3.85.2 1.45l-.4 1.1q-.6 1.1-1.55 1.8-.75.6-1.85.5l-.2-.1-.05.2-.25.65-.6 1.1-81 46.5-.05-.7 79.9-47.15.25-.4.6-1.9v-.2q-.05-1.55-1.85-2.45l-1.25-.55-79.6 47.5-.55-.55M104.3 5.85l.1.55.1-.05q1.7-.75 1.7-2.05 0-.95-.45-1.65t-1.65-.75q-1.15-.05-1.65.8l.15.1.1.15.2.15.4.55.6 1 .35.9.05.3" fill="#400404"/><path d="M14.8 78.25q2.6 4.6 6.5 8.55-4.4-.9-9.7-6.05-6.05-5.8-8.5-10.55Q.65 65.45.15 60.75-.4 56 .9 51.65q1.35-4.3 3.75-8.2Q7 39.6 10.9 37.2h.05l.25-.05h.1q.55 0 .55.5l-.65 1.6-.55 1.4-.1.5q-.7 3 .05 6.45.5 2.45 1.15 4.55l.2.65.5 1.45Q8.5 48.6 9.6 39.2-6.15 57.55 8.15 74.85l1.25 1.7q2.45 3.1 5.45 5.4l.85.65 1.65 1.15q-8.5-9.7-8-23.15l.4.25q.25 3.45.95 6.7l1.1 3.95.25.75 1.45 3.5 1.3 2.5" fill="#150000"/><path d="m13.2 62 .85.35-.45-2.5-.35-.55L11.2 56q-1.95-3.65-2.8-7.75l-.6 1.2-.95 2.7-.05-1.3q-.2-3.9.75-7.65-2.65 3.55-4.05 8-1.5 4.75-.85 9.4t2.45 8.75q1.3 3 3.05 5.5-14.3-17.3 1.45-35.65-1.1 9.4 2.85 15.05l.1.15.05.2.25.7.5 1.6L14.8 62l.35 1.25q-3.2-1.25-5.4-2.4l-.4-.25v-.8q1.85 1.3 3.85 2.2" fill="#1b0707"/><path d="M8.15 74.85q-1.75-2.5-3.05-5.5-1.8-4.1-2.45-8.75-.65-4.65.85-9.4 1.4-4.45 4.05-8-.95 3.75-.75 7.65l.05 1.3.95-2.7.6-1.2q.85 4.1 2.8 7.75l2.05 3.3.35.55.45 2.5-.85-.35-1.55-1.85Q9.4 56.5 8.2 52.25q-.45.6-.9 2.15-.5 1.7-.65 5.15l-.15-.4Q4.85 55.1 4.75 50.6q-.7 3.8-.7 7.85Q4 63 5.6 67.25q1.55 3.9 3.8 7.55 2.1 3.4 4.75 6.35l.7.8q-3-2.3-5.45-5.4l-1.25-1.7" fill="#2c1a14"/><path d="m19.95 49.7.55.55.5.65q.9 1.35 1.25 3.25l.2 1.25.05.7v2l-4.85 2.8-.55-.55 4.5-2.85.05-3q-.35-2.5-2-4.25L18 48.9l-6.05 3.9-.2-.65Q14 50.4 17.6 48.3q1.35.5 2.35 1.4" fill="#2d021d"/><path d="m20.5 50.25 79.6-47.5 1.25.55L21 50.9l-.5-.65m82.7-44.5v.2l-.6 1.9-.25.4-79.9 47.15-.2-1.25 80.95-48.4" fill="#ad5839"/><path d="m12.6 54.6-.05-.2-.1-.15-.5-1.45L18 48.9l1.65 1.35-7.05 4.35m9.05-.1-.05 3-4.5 2.85-.9-1-.9-1 6.35-3.85" fill="#77205c"/><path d="M101.35 3.3q1.8.9 1.85 2.45l-80.95 48.4q-.35-1.9-1.25-3.25l80.35-47.6" fill="#791a18"/><path d="m12.85 55.3-.25-.7 7.05-4.35q1.65 1.75 2 4.25l-6.35 3.85-2.45-3.05" fill="#4d0b1d"/><path d="M23.2 74.8q-1.85-.85-3.5-1.9l1.4-2.7 3.1 1.85-1 2.75m-5.25-3.1q-2.7-1.9-5.1-4.35l2.4-2.4q1.85 2.15 4.05 3.9l-1.35 2.85m11.6 2.5q4 1.2 8.6 1.5l.95 2.7q-4.95-.15-9.35-1.25l-.2-2.95m10.95 1.65 4.45-.1 1.3 2.3-4.45.35-1.3-2.55" fill="#dd4038"/><path d="M9.75 60.85q2.2 1.15 5.4 2.4Q25.1 74.6 39.2 74.95q9.95.3 19.1-3.3 4.95-2 9.65-5.1-7.6 11.6-28.7 13.35-10.9.05-20.35-5.85-.45-.9-1.5-1.75-1.7-1.45-3-1.5l-3.7-3.25q-.7-3.25-.95-6.7M23.2 74.8l1-2.75-3.1-1.85-1.4 2.7q1.65 1.05 3.5 1.9m-5.25-3.1 1.35-2.85q-2.2-1.75-4.05-3.9l-2.4 2.4q2.4 2.45 5.1 4.35m11.6 2.5.2 2.95q4.4 1.1 9.35 1.25l-.95-2.7q-4.6-.3-8.6-1.5m10.95 1.65 1.3 2.55 4.45-.35-1.3-2.3-4.45.1" fill="#86010b"/><path d="M14.4 70.8q1.3.05 3 1.5 1.05.85 1.5 1.75l.3 1.2-.05.3q-.1 1.15-1.1 1.6l-2.1.25q-.2-.15-.35-.2l-.7-.5 1.2.05 1.6-.35q.75-.4.65-1.5-.1-1.05-1.55-2.2-1.5-1.2-2.5-1.2l-1.45.25q-.6.2-.8.5l-.25-.75q.85-.7 2.45-.7h.15" fill="#737998"/><path d="M17.65 60.9q3.15 3.2 7.05 5.55 4.75 2.9 11.2 3.95l10.65.45q13-1 22.7-8.1-10.4 9.75-30.55 8.7-16.15-1.7-25.35-14.55l-.5-1.6 2.45 3.05.9 1 .9 1 .55.55" fill="#70779a"/><path d="M13.2 62q-2-.9-3.85-2.2v.8q-.5 13.45 8 23.15L15.7 82.6l-.85-.65-.7-.8Q11.5 78.2 9.4 74.8q-2.25-3.65-3.8-7.55Q4 63 4.05 58.45q0-4.05.7-7.85.1 4.5 1.75 8.55l.15.4q.15-3.45.65-5.15.45-1.55.9-2.15 1.2 4.25 3.45 7.9L13.2 62" fill="#6b4646"/><path d="m69.25 62.75 4.2-3.6q-1.8 4.8-4 8.75-8.45 7.7-17.6 10.75-17.15 5.55-32.7-3.1l.05-.3-.3-1.2q9.45 5.9 20.35 5.85 21.1-1.75 28.7-13.35-4.7 3.1-9.65 5.1Q29.35 79.4 14.8 62l-1.45-5.1q9.2 12.85 25.35 14.55 20.15 1.05 30.55-8.7M14.4 70.8h-.15q-1.6 0-2.45.7l-1.1-3.95 3.7 3.25" fill="#c3ac6c"/><path d="M12.05 72.25q.2-.3.8-.5l1.45-.25q1 0 2.5 1.2 1.45 1.15 1.55 2.2.1 1.1-.65 1.5l-1.6.35-1.2-.05-1.4-.95-1.45-3.5" fill="#010101" fill-opacity="0"/><path d="M15.15 63.25 14.8 62q14.55 17.4 43.5 9.65-9.15 3.6-19.1 3.3-14.1-.35-24.05-11.7" fill="#fd926f"/><path d="M69.05 68.55q-9 15.3-24.5 16.1-19.7 1-29.75-6.4l-1.3-2.5 1.4.95.7.5q.15.05.35.2 10.85 6.7 25.5 6.2 18.2-.9 27.6-15.05" fill="#727897"/><path d="m69.45 67.9-.4.65q-9.4 14.15-27.6 15.05-14.65.5-25.5-6.2l2.1-.25q1-.45 1.1-1.6 15.55 8.65 32.7 3.1Q61 75.6 69.45 67.9" fill="#fff"/><path d="m102.7 2.95-.1-.15-.15-.1q.5-.85 1.65-.8 1.2.05 1.65.75.45.7.45 1.65 0 1.3-1.7 2.05l-.1.05-.1-.55.05-.05q1.1-.3 1.1-1.3 0-1.35-.5-1.65-.55-.35-1.2-.35l-.7.2-.35.25" fill="#78215e"/><path d="m102.7 2.95.35-.25.7-.2q.65 0 1.2.35.5.3.5 1.65 0 1-1.1 1.3l-.05.05-.05-.3-.35-.9-.6-1-.4-.55-.2-.15" fill="#4d0c1e"/></g><g id="g" fill-rule="evenodd"><path d="m6.9 12.8.05-.15L6.9 2.2Q6.15.15 2.6.65 1.35.8.9 2.2v13.95H.45L.4 16 .35 2.75l.1-.5Q.95.2 2.5.15 6.6-.5 7.25 2l.1.7.05 10.45-.5-.35" fill="#090f36"/><path d="M.9 12.6V2.2Q1.35.8 2.6.65 6.15.15 6.9 2.2l.05 10.45-.05.15-1.05 1.95-.35.65-1.15 2.05H4.3l-.6.95v-.8l.05-.75V12.2q-.15-2.9-.8-4.9l-.8 2.6-.35.95-.05.1L.9 12.6" fill="#2a1f5a"/><path d="m15.3 29.8-.1.6q-1.1-.15-2.2-.95l-.25-.2-.3-.25-.9-.95-.85-1.15-.7-6.1.25.15.3.2.75.4.05.05.45.3.4.25 1.65 1.1 1.6 1.35.05 1.4v.6l-.05 1.05v.05l-.05.95-.1 1.15m-3.75-7.35-.9-.65.2 2.25.35 3.05.25.25 1.9 1.6 1.35.9.05-.9.1-4.25-3.3-2.25" fill="#4c0000"/><path d="m10.55 21.15-.3-.2-.25-.15.7 6.1.85 1.15.9.95.3.25.25.2q1.1.8 2.2.95l.1-.6 1.1 1.3v.1l.3.35.05.05.1 1.15q-.15 1-1.8 3.65l-.85 1.25-.15.25-2.5 2.75-3.75 3-.35.15-1.45.4q-.85-.1-1.4-.85-.6-.8-.75-1.4-.2-.65.5-3.9l.35-1.7q1.1-.6 1.5-3.85.25-.5-.1-5.35l-.35-3.45-.85-4.05-.4-1.45.2-.35.95-1.6.25-.4.4-.65 1.1-2.05v.65q.05 1.65.55 3.1.4 1.15 1.05 2.15v.05l.2.25 1.35 1.8" fill="#8b6bb6"/><path d="m11.8 21.9-.45-.3q6.65-.9 13.7-8.45-1.8 8.1-8.25 14.95l-.45-.6q2.4-2.25 4.3-5.05 2.45-3.8 4.1-8.6-5.7 6.7-12.95 8.05" fill="#767f9a"/><path d="M12.6 24.1v-.05l-.6-.7-.35-.25-.15-.1.05-.1.05-.25-.05-.2 3.3 2.25-.1 4.25-.3-.2-.1-1.55v-.65l-.3-1.05L13 24.4l-.15-.05-.1-.1-.15-.15" fill="#ff4d50"/><path d="m12.7 24.25-.15-.1-.25-.05-.1-.05-.7-.3-.05-.15.05-.5V23l.15.1.35.25.6.7v.05l.1.15m.15 1.35.2-.35V25l-.2-.65.15.05 1.05 1.1.3 1.05h-.05l-.1-.4-.85-.05-.05.1-.15-.2-.3-.4m1.5 1v.6l.1 1.55-.9-.75-.05-.65V27l.55-.1.25-.35.05.05" fill="#b10a2b"/><path d="M11.5 23v.1l-.05.5.05.15.7.3.1.05.25.05.15.1h.05l.1.1.2.65v.25l-.2.35-.1.05-.1.05-.85-.9-.7-.55-.25-.2-.2-2.25.9.65.05.2-.05.25-.05.1m2.95 5.75.3.2-.05.9-1.35-.9.2-.95.9.75" fill="#de9295"/><path d="M15.5 26.6V26q3.2-2.75 4.35-5.5-3.45 2.35-6 2.75l-1.65-1.1-.4-.25q7.25-1.35 12.95-8.05-1.65 4.8-4.1 8.6-2.15 2.5-5.15 4.15" fill="#838079"/><path d="m12.65 25.7.1-.05.1-.05.3.4.15.2.2.8v.35l.05.65-1.5-1.2q-.2-.3-.15-1.05l.4.05.35-.1" fill="#520707"/><path d="m10.85 24.05.25.2.7.55.85.9-.35.1-.4-.05q-.05.75.15 1.05l1.5 1.2-.2.95-1.9-1.6-.25-.25-.35-3.05" fill="#b69487"/><path d="m13.3 26.2.05-.1.85.05.1.4-.25.35-.55.1-.2-.8" fill="#db9395"/><path d="m4.5 18.2.4 1.45.85 4.05.35 3.45q.35 4.85.1 5.35-.4 3.25-1.5 3.85l.35-1.85v-.75q.05-1.8-.3-3.6l-.6-2-.2-.7v-2.1Q3.9 24 2.8 20.45l-.05-.2.4-.3h.05l.55-.65.3-.4.3-.5.15-.2" fill="#9f9ee6"/><path d="m15.5 26-.05-1.4-1.6-1.35q2.55-.4 6-2.75-1.15 2.75-4.35 5.5" fill="#8e070f"/><path d="m15.3 29.8.1-1.15.05-.95v-.05l.05-1.05.7.7.15.2.45.6.7 1.15.85 1.75.2.65v.9q-.5 2.9-2.1 5.2L12.4 42.4q-2.3 2.25-4.95 3.2l-2.85-.15q-.7-.4-1.3-1.45-1.15-1.9-.4-4.45l.05-.1Q4 36.8 4.3 34.55v-.75l-.25-3.65-.45-1.8-.05-.05-.25-1Q2.6 25 .35 21.65l-.15-.4-.05-.05q-.2-.85-.1-1.7l.05-.3v-.25l.1-1.4.4.7-.1 1.1v.6l.05.7.55 1.2 1.2 1.85q.8 1.35 1.65 3.75l.2.7.6 2q.35 1.8.3 3.6v.75l-.35 1.85-.35 1.7q-.7 3.25-.5 3.9.15.6.75 1.4.55.75 1.4.85l1.45-.4.35-.15 3.75-3 2.5-2.75.15-.25.85-1.25q1.65-2.65 1.8-3.65l-.1-1.15-.05-.05-.3-.35v-.1l-1.1-1.3" fill="#594a8b"/><path d="m16.35 27.5-.15-.2-.7-.7q3-1.65 5.15-4.15-1.9 2.8-4.3 5.05" fill="#a5a5a5"/><path d="m.4 16 .05.15.3.9-.15 1.2-.4-.7v-.05l.15-1.35L.4 16m1.35-5.05.05-.1.35-.95.8-2.6q.65 2 .8 4.9v4.65l-.05.75-.3 1.3-.2.25-.45.5-.25-.3-.8-1.25.05-7.15m1.45 9h-.05.05" fill="#4c5792"/><path d="M.9 16.15V12.6l.85-1.65-.05 7.15-.75-1.85-.05-.1" fill="#4a9ae4"/><path d="m6.9 12.8.5.35-1.1 2.05-.4.65-.25.4-.95 1.6-.2.35-.15.2-.3.5-.3.4-.55.65h-.05l-.4.3h-.2q-.85-.65-1.8-3.2l-.3-.9H.9l.05.1.75 1.85.8 1.25.25.3.45-.5.2-.25.3-1.3v.8l.6-.95h.05L5.5 15.4l.35-.65L6.9 12.8m2.3 6.55L9 19.1v-.05l.2.3" fill="#564789"/><path d="m2.75 20.25.05.2q1.1 3.55 1.15 4.9v2.1q-.85-2.4-1.65-3.75l-1.2-1.85-.55-1.2-.05-.7v-.6l.1-1.1.15-1.2q.95 2.55 1.8 3.2h.2" fill="#feffff"/></g><g id="h" fill-rule="evenodd"><path d="M14.2 13.75q5.3-4.05 7.6-7.05 2.25-2.95 2.55-4.25l.05-1.6-.35-.4h-.45q-1.25.35-2.05 1.3L21.3 2l-.2.25-.5.6q-1.25 1.75-2.95 3.1l-5.6 4-.4.35q.05-.6.4-1.55l.05.1 3.2-1.75 2.6-2 2.25-2.4 1.1-1.3 1.2-.95q.85-.55 1.4-.45l.5.15.4.2q.35.65.3 1.35l-.2 1.2V3q-.4 1.1-3.1 4.55-2.8 3.5-6.9 6.3l-.65-.1" fill="#081038"/><path d="m21.3 2 .25-.25q.8-.95 2.05-1.3h.45l.35.4-.05 1.6q-.3 1.3-2.55 4.25-2.3 3-7.6 7.05-.8-.2-1.5-.7l-.65-.65.6.05 1-.15 1-.75q4.4-3.3 6.25-5.6 1.75-2.3 1.75-3.45 0-.6-.4-.65l-.15-.05-.8.2M3.7 17.75h.05l1.5-.25q.85-.4.85-1l-.35-1.95q-.25-.95-.15-2l.1-.05.3 1.75.4 1.05.95 1.55.2.25.35.35 1.25.75q-.15.4-1.55.8l-2.4.35-1.15-.2q-.4-.15-.4-.85l.05-.55" fill="#2a1f5a"/><path d="m11.65 10.3.4-.35 5.6-4q1.7-1.35 2.95-3.1l.5-.6.2-.25.8-.2.15.05Q20 5.6 16.7 8.1q-3.2 2.35-5.05 3.1l-.05-.4.05-.5" fill="#4896de"/><path d="M22.25 1.85q.4.05.4.65 0 1.15-1.75 3.45-1.85 2.3-6.25 5.6l-1 .75-1 .15-.6-.05-.4-1.2q1.85-.75 5.05-3.1 3.3-2.5 5.55-6.25M2.5 10.3q-.1.5.2.95.35.55.85.55.7 0 1.2-.6l.45-1.35-.15-.65h.1l1.6.3-.1.05-.7 1.1-.25 1.05-.1.85q-.1 1.05.15 2l.35 1.95q0 .6-.85 1l-1.5.25H3.7l.1-.55.15-1.15q0-2.5-1.6-2.8-1.6-.3-1.6-.75 0-1.05 1.7-2.2h.05m1.55 2.5q0 .5.45.5l.55-.45q0-.5-.5-.5t-.5.45" fill="#4c5792"/><path d="m14.2 13.75.65.1q.1 1.65-.2 2.3l-.55.85q-.2.1-.25.2l-1.45.85-2.55.35-.7-.2-1.25-.75-.35-.35-.2-.25-.95-1.55-.4-1.05-.3-1.75v-.8l.25-1.05.7-1.1.1-.05.95-.8.15-.1q.7-.4 1.5-.55h.2q1.6 0 2.5.7-.35.95-.4 1.55l-.05.5.05.4.4 1.2.65.65q.7.5 1.5.7m-4.2 4 .85.1q1.7 0 2.7-1.15.9-1.05.7-2.6l-.5.15h-.2q-.95-.1-1.65-1.05l-.05-.1q-.75-1-.75-2.2 0-1.4.5-1.8l-.15-.15q-.35-.4-1.1-.35l-1.6.3q-2.05.6-2.35 2.45l-.05.35v.2l.1 1.85.05.25q.1.6.35.95l.65 1.2.3.3q1 1 2.2 1.3" fill="#813009"/><path d="M13.55 14.25h.2l.5-.15q.2 1.55-.7 2.6-1 1.15-2.7 1.15l-.85-.1q1.5-.65 2.75-1.9.7-.7.8-1.6" fill="#fc8e07"/><path d="M9.85 18.4q-1.5 1.45-4.35 1.45-2.9 0-2.5-1.55l.45-2.6q0-1.2-.95-1.7l-1.95-.45-.25-.05-.25-.35q-.2-.35.4-1.6.55-1.25 2.5-2.4 1.8-1.1 4.75-.45l-.95.8-1.6-.3h-.1Q4 9.25 2.5 10.3h-.05q-1.7 1.15-1.7 2.2 0 .45 1.6.75t1.6 2.8L3.8 17.2l-.1.55-.05.55q0 .7.4.85l1.15.2L7.6 19q1.4-.4 1.55-.8l.7.2" fill="#0b133c"/><path d="m5.05 9.2.15.65-.45 1.35q-.5.6-1.2.6-.5 0-.85-.55-.3-.45-.2-.95Q4 9.25 5.05 9.2m-1 3.6q0-.45.5-.45t.5.5l-.55.45q-.45 0-.45-.5" fill="#4894dc"/><path d="M6.4 11.35Q6.7 9.5 8.75 8.9l1.6-.3q.75-.05 1.1.35l-.35.45-.1.1-2 .25q.3.1.3.6l-.3.7q-.35.35-.7.35-.9 0-.9-.95l-1 .9m2.8.75q0 .55-.5.55-.4 0-.4-.4 0-.55.5-.55.4 0 .4.4" fill="#fff"/><path d="m7.5 16.15-.65-1.2Q6.6 14.6 6.5 14l-.05-.25.05.05q1.75.95 3.4-.2l.3-.35q.4-.4.35-1-.1-1.75.45-2.75l.1-.1.35-.45.15.15q-.5.4-.5 1.8 0 1.2.75 2.2.05.6-.4 1.1l-.95.85-1.05.7-1.4.5-.55-.1" fill="#fa8c07"/><path d="m6.45 13.75-.1-1.85v-.2l.05-.35 1-.9q0 .95.9.95.35 0 .7-.35l.3-.7q0-.5-.3-.6l2-.25q-.55 1-.45 2.75.05.6-.35 1l-.3.35q-1.65 1.15-3.4.2l-.05-.05M9.2 12.1q0-.4-.4-.4-.5 0-.5.55 0 .4.4.4.5 0 .5-.55" fill="#ffe85c"/><path d="M10 17.75q-1.2-.3-2.2-1.3l-.3-.3.55.1 1.4-.5 1.05-.7.95-.85q.45-.5.4-1.1l.05.1q.7.95 1.65 1.05-.1.9-.8 1.6-1.25 1.25-2.75 1.9" fill="#b75413"/></g><g id="i" fill-rule="evenodd"><path d="m9.7 2.35.25-.15Q14.2-1 15.4.45V13.6q-1.35 3.65-2.95 6.55.6-3.95-.2-10.7L10.7 10.7l-1 .25v-8.6" fill="#2a1f5a"/><path d="M9.1 17.15 9.05 17V2.85l.65-.5V17.5l.15.6-.75-.95M15.4.45l.4.7.45 11.55-.85.9V.45" fill="#090f36"/><path d="M16.25 12.7q.3 3.8 1.45 7.85.95 4.1.95 7.65l-.7.35q.1-3.4-.8-7.35-1.05-3.1-1.3-7.35l-1.8 4.4-1.95 3.4-.85.9q-1.05-1.35-1.7-3.7L9.1 17.2v-.05l.75.95.85 2.75.6 1.1 1.15-1.8q1.6-2.9 2.95-6.55l.85-.9" fill="#564789"/><path d="M18.65 28.2q5.45-2.75 8.45-7.9.95 9.85-7.3 17.1l-.15.1q-1.25.1-1.35-1.05l.05-.1q8.4-5.7 8.55-14.95l-1.35 1.8-.3.35-.7.8Q21.25 28 17.85 29l-.2-.3.3-.15.7-.35" fill="#81310b"/><path d="m25.25 23.55.3-.35q-1.2 5.7-6.2 8.9l-.55-1.25q5.3-2.7 6.45-7.3" fill="#ffe95d"/><path d="m24.55 24.35.7-.8q-1.15 4.6-6.45 7.3l-.45-.95q4.45-2.45 6.2-5.55" fill="#fffffd"/><path d="m25.55 23.2 1.35-1.8q-1.25 7.45-7 12.35l-.55-1.65q5-3.2 6.2-8.9" fill="#fa8c07"/><path d="m14.05 18.25 1.8-4.4q.25 4.25 1.3 7.35.9 3.95.8 7.35l-.3.15-.55-.95-1.45 3.3q-.1-7.95-1.6-12.8m1.2 18.15q.5 1.45 1.5 2.25l1.05-1.4q.3.75-.35 1.55l-3.4 2.25-1.4.65.7-1.2q1.15-1.9 1.9-4.1" fill="#8b6bb6"/><path d="m9.85 18.1-.15-.6v-6.55l1-.25v10.15l-.85-2.75" fill="#4895dd"/><path d="m12.45 20.15-1.15 1.8-.6-1.1V10.7l1.55-1.25q.8 6.75.2 10.7" fill="#4c5792"/><path d="m19.65 37.5-.05.8-.45.95-.15.25q-1.9 2.25-4.45 3.4-2.7 1.15-5.85 2l-5.85.25Q1.15 44.7.4 43.6q-.4-.7-.4-1.9 0-2.2 1.95-4.05l.1-.05q3.85-3.1 5.25-6.35.8-3.05 1.8-14.05l.45 1.65Q8.15 32 7.15 33.35l-4.4 4.95q-1.2 1-1.15 2.7 0 1.7.65 2.2.5.35 1.5.4l.35.05 4.8-.7 3.5-1.1.25-.15 1.4-.65 3.4-2.25q.65-.8.35-1.55l.5-.8q.1 1.15 1.35 1.05" fill="#594a8b"/><path d="M9.55 18.85q.65 2.35 1.7 3.7l.85-.9.25 3.15.05 4.65q-.15 2.6-1.85 7.15-1.75 4.5-8.3 6.6-.65-.5-.65-2.2-.05-1.7 1.15-2.7l4.4-4.95q1-1.35 2.4-14.5" fill="#feffff"/><path d="M14.05 18.25q1.5 4.85 1.6 12.8l-1.05 2.3q.1 1.55.5 2.75l.15.3q-.75 2.2-1.9 4.1l-.7 1.2-.25.15-3.5 1.1-4.8.7-.35-.05q-1-.05-1.5-.4 6.55-2.1 8.3-6.6 1.7-4.55 1.85-7.15l-.05-4.65-.25-3.15 1.95-3.4" fill="#9f9ee6"/><path d="m15.65 31.05 1.45-3.3.55.95.2.3.5.9.45.95.55 1.25.55 1.65-1.55 2.6-.05.1-.5.8-1.05 1.4q-1-.8-1.5-2.25l-.15-.3q-.4-1.2-.5-2.75l1.05-2.3m2-1.1-.5-1.05-.95 2.1-1.25 2.75q.4 1.55.95 2.75l.75 1.4.45-.7 2.2-3.65-1.65-3.6" fill="#4c0000"/><path d="m18.35 29.9-.5-.9q3.4-1 6.7-4.65-1.75 3.1-6.2 5.55" fill="#ffed5c"/><path d="m17.3 30.4-.05.05-.3.6.65.85.15.2.05.15-.2.65-.45.4h-.25l-.25-1.2-.45-1.1.95-2.1.5 1.05-.35.45" fill="#de9295"/><path d="m17.75 32.1-.15-.2-.65-.85.3-.6.05-.05.45 1.7m-.6 1.2.45-.4.2-.65.1.1.35 1.45-.3 1.05h-.05l.15-.4q0-.45-.7-.45l-.15.05v-.25l-.05-.5m.8 1.6-.3.55-.7 1.4-.45-1.1.35-.65.15-.25.5.2.4-.2.05.05" fill="#b10a2b"/><path d="m17.3 30.4.35-.45 1.65 3.6-2.2 3.65-.15-.35.7-1.4.3-.55v-.05l.3-1.05-.35-1.45-.1-.1-.05-.15-.45-1.7" fill="#ff4d50"/><path d="M16.9 33.3h.25l.05.5v.25l-.2.8-.15.25-.35.65-.7-1.8q0-.35.45-1l.3.25.35.1" fill="#520707"/><path d="m17.2 34.05.15-.05q.7 0 .7.45l-.15.4-.4.2-.5-.2.2-.8" fill="#db9395"/><path d="m16.2 31 .45 1.1.25 1.2-.35-.1-.3-.25q-.45.65-.45 1l.7 1.8-.6.75q-.55-1.2-.95-2.75L16.2 31" fill="#b69487"/><path d="m16.95 36.85.15.35-.45.7-.75-1.4.6-.75.45 1.1" fill="#dd9597"/><path d="M26.9 21.4q-.15 9.25-8.55 14.95l1.55-2.6q5.75-4.9 7-12.35" fill="#b85413"/></g><g id="j" fill-rule="evenodd"><path d="m21.8.15.8-.15q-.3 4.6-.15 6l.45.15.8.75q.4.55.45 1.65l-.05 2.05-.15 1.35-.25-.85.15-.65V9.4q0-2.7-1.25-2.7-.65 0-.9.3l.1-6.85M15.5 10.3l.35-4.2.1-4V2l.15-.05.25-.05v2.6l-.25 5.3-.6.5" fill="#0b133c"/><path d="m16.35 1.9.1-.05.95-.4L20.5.5l1.3-.35L21.7 7q.25-.3.9-.3 1.25 0 1.25 2.7v1.05l-.15.65q-.75-1.55-3.45-2.2-2.1.25-3.25 1.25-.65.5-1 1.25l.1-1.35V9.8l.25-5.3V1.9" fill="#2a1f5a"/><path d="m23.95 11.95-.1.7-.05.15q-.25 1.2.65 1.65.9.4 2.9 2.85l-1.7-1.35-.85-.65-1.1-.8q-.55-.35-.6-.75l.15-.35.15-.9v-.85l-.15-.45-.55-.75-1.1-.75q-.85-.55-2.3-.35-1.5.15-2.2.9l-.8 1-.35.6-.4 2.55-.1.6-.95 3.55-.15.3-.6 1.95-.35-.25.55-2.45.85-3.75.7-4.05.6-.5v.25L16 11.4q.35-.75 1-1.25 1.15-1 3.25-1.25 2.7.65 3.45 2.2l.25.85" fill="#5b005e"/><path d="M24.15 19.6q-3.55 2.25-6.3 2.4 1.5-1.25 2.65-2.85 1.15-1.65 1.15-2.2l-.05-.2q-.45 0-.25-.3l.2-1.7-.1-1.6-.5-.4-.2.2-1.95 2.65q-1.3 1.6-1.75 1.35l-.7-.75-.35-.65-.45-1.15.4-2.55.35-.6.8-1q.7-.75 2.2-.9 1.45-.2 2.3.35l1.1.75.55.75.15.45v.85l-.15.9-.15.25v.1q.05.4.6.75l1.1.8.85.65 1.7 1.35-.4.35 3.1 3.15q3 3.05 3.9 8.35l.35 3.25q.2 2.5 1.05 4.85l-1.65-1.3-.25-.25-1.65-3.45q1.2 1.3 2 1.65L32.2 30q-1-2.3-4-4.1l-.35.1-.1.05-.45.35-.25.95q-1.85-3.55-2.9-7.75m-10.4 1.2q1.05.8 2.35 1.1-.95 5.75-2.85 9.3-.05-2.65-.85-2.65-.45 0-.65.5l-.35.7h-.05l.3-2.35.05-.75-.05-1 2.1-4.85" fill="#8856cb"/><path d="m27.35 17.3 2.25 2.3q3.9 3.35 5.25 10.15l.1 3.55q.1 2.25.95 4.4l.3.7q-9.05-5.6-12.05-18.8 1.05 4.2 2.9 7.75 2.4 4.65 6.15 8.1l.25.25.25.25 1.65 1.3q-.85-2.35-1.05-4.85l-.35-3.25q-.9-5.3-3.9-8.35l-3.1-3.15.4-.35M16.7 22Q14 34.15 9.85 35.4l1-2.3q-6 4.45-10.85 4.6 5.1-2.95 10-9.95 2.3-3.45 3.4-7.2l.35.25-2.1 4.85Q7.9 32.55 1.05 37.4q3.8-.3 10.5-5.45l-.8 2.6 1.3-1.45.15-.2.95-1.45.1-.25q1.9-3.55 2.85-9.3l.6.1" fill="#5c0565"/><path d="M17.85 22H16.7l-.6-.1q-1.3-.3-2.35-1.1l.6-1.95.15-.3.95-3.55.1-.6.45 1.15.35.65q.15.9.6 1.4.4.5.35 1.1l-.2.6.5 1.25.25 1.45M33.2 35.45q-3.75-3.45-6.15-8.1l.25-.95.45-.35.1-.05.6 1.45q.2.8 1.4 1.1 1.15.25 1.25 1.4 0 1.1-.55 1.5l2.65 4m-21-2.55-.15.2-1.3 1.45.8-2.6q-6.7 5.15-10.5 5.45 6.85-4.85 10.6-11.75l.05 1-.05.75-1.1 2.35Q9.4 32 7.45 33.3l2.6-1.1 1.55-.9h.05q.55 0 .55 1.35v.25" fill="#ffadc4"/><path d="m16.35 16.2.7.75q.45.25 1.75-1.35l1.95-2.65.2-.2.5.4.1 1.6-.2 1.7q-.2.3.25.3l.05.2q0 .55-1.15 2.2-1.15 1.6-2.65 2.85l-.25-1.45-.5-1.25.2-.6q.05-.6-.35-1.1-.45-.5-.6-1.4m17.1 19.5-.25-.25-2.65-4q.55-.4.55-1.5-.1-1.15-1.25-1.4-1.2-.3-1.4-1.1l-.6-1.45.35-.1q3 1.8 4 4.1l1.6 3.9q-.8-.35-2-1.65l1.65 3.45m-20.2-4.5-.1.25-.95 1.45v-.25q0-1.35-.55-1.35h-.05l-1.55.9-2.6 1.1q1.95-1.3 3.1-3.55l1.1-2.35-.3 2.35v.05l.05-.05.35-.7q.2-.5.65-.5.8 0 .85 2.65" fill="#f37cd7"/><path d="m13.65 17.65.5-.65q1.45 2.85 3.35 4.15Q20.2 20 22.55 18l.5.8-1.4 1-.4.25-2.15 1.2q1.8 3.9 3 7.75l.1.35-1.15 1.05q-1.95-5.45-3.2-7.85l-.35-.6-1.8 7.85-1.3-1.7 1.5-7.25-1.6-1.55q-.7-.9-.65-1.65" fill="#fff"/><path d="M22.55 18q-2.35 2-5.05 3.15-1.9-1.3-3.35-4.15l-.5.65q-1.45 3.85-1.45 6.8l.95 1.75 1.25 1.9 1.3 1.7 1.8-7.85.35.6q1.25 2.4 3.2 7.85l1.15-1.05 4.45-4.95 1.8-2.5 1.8-2.95q-1.95-2.1-4.55-3.4l-.55-.3-2.6 2.75m-5.1 2.6q4.45-1.85 7.6-6.1l.5.25.4.2q2.45 1.4 4.6 3.45l.35.35-.05.15q-3.75 6.85-8.5 10.85L20.75 31l-3-8.05q-1.3 7.7-2 7.7-2.25-2.3-4.15-5.95 1.05-7.5 2.7-8.5 1.25 2.9 3.15 4.4" fill="#81300a"/><path d="M13.65 17.65q-.05.75.65 1.65l-1.15 6.9-.95-1.75q0-2.95 1.45-6.8" fill="#fa8c07"/><path d="m14.3 19.3 1.6 1.55-1.5 7.25-1.25-1.9 1.15-6.9m7.8 9.7q-1.2-3.85-3-7.75l2.15-1.2q.55 2.9 2.2 6.7-.05 1.2-1.35 2.25m-.45-9.2 1.4-1q2 3.3 1.2 7.05l-2.6-6.05" fill="#ffe85c"/><path d="m22.2 29.35-.1-.35q1.3-1.05 1.35-2.25-1.65-3.8-2.2-6.7l.4-.25 2.6 6.05q.8-3.75-1.2-7.05l.8-.7q2.05 2.2 2.8 6.3l-4.45 4.95" fill="#fa8b06"/><path d="m23.05 18.8-.5-.8 2.6-2.75.55.3-.95 1.5-.9 1.05-.8.7" fill="#ffeb5f"/><path d="M25.7 15.55q2.6 1.3 4.55 3.4l-1.8 2.95q-1.15-2.95-3.7-4.85l.95-1.5" fill="#fc8d06"/><path d="m28.45 21.9-1.8 2.5q-.75-4.1-2.8-6.3l.9-1.05q2.55 1.9 3.7 4.85" fill="#b85413"/><path d="m16.9 7.05-.05-1.1q2.6 2.45 3.75 4.55l-.8.15h-.05l-2.85-3.6" fill="#ff4d50"/><path d="m16.85 5.95.05 1.1-2.15 3.85-.95-.1q1.45-3.05 3.05-4.85" fill="#ffad8a"/><path d="m16.9 7.05 2.85 3.6-.95.15v-.05l-1.85-2.6-.05-1.1" fill="#b20b2d"/><path d="m14.75 10.9 2.15-3.85.05 1.1-1.55 2.75v.05l-.65-.05" fill="#e0907c"/><path d="m16.95 8.15 1.85 2.6v.05l-1.7.25-.15-2.9" fill="#520707"/><path d="m18.8 10.8.95-.15h.05l-2.55 4.7-.05-1.4 1.6-3.15" fill="#5d0423"/><path d="m19.8 10.65.8-.15q-1.15 3.05-3.3 5.7l-.05-.85 2.55-4.7" fill="#881a41"/><path d="M20.6 10.5q-1.15-2.1-3.75-4.55-1.6 1.8-3.05 4.85 2.15 3.8 3.5 5.4 2.15-2.65 3.3-5.7m.8-.1q-1.4 3.45-4.2 6.7-2.65-3.7-3.85-6.65 2.35-4.5 3.5-4.9 2.9 1.9 4.55 4.85" fill="#4b0000"/><path d="m17.1 11.05 1.7-.25-1.6 3.15-.1-2.9" fill="#2c0206"/><path d="m14.75 10.9.65.05h.05l1.75 3 .05 1.4q-1.35-1.75-2.5-4.45" fill="#a50b27"/><path d="m15.4 10.9 1.55-2.75.15 2.9-1.65-.1-.05-.05" fill="#b38e6a"/><path d="m13.8 10.8.95.1q1.15 2.7 2.5 4.45l.05.85q-1.35-1.6-3.5-5.4" fill="#ff5254"/><path d="m15.45 10.95 1.65.1.1 2.9-1.75-3" fill="#510707"/></g><g id="k" fill-rule="evenodd"><path d="m7.2 5.15-.05-.05-.85-.2q-.8 0-1.2 1-.3.7-.3 1.55l.2 1.4.4 2.1.1 1.35 1.3-1.8-1.35 2.55-1.4 2.2Q2.1 18.4 1.3 20.4.5 22.3.05 23.75l1.25-1.5 3.65-3.95q1.75-1.65 3.95-3.25l.05.05 1.8 1 .55.35q2 1.2 3.7 2.9 2.05 2.05 3.7 4.45l1.25 1.95 1.3 2.3q.85-5.8-2.4-14.35l-4.35.4q-2.4-.1-3.9-1.25-.85-.6-1.4-1.5 4.2 3.95 13.6.95-1.75.85-3.5 1.3l.85 1.95q3.8 9.4.8 19.65 7.2-7.55 6.65-21.85.6 2.55.6 5.15l1.75 1.25q10 8.35 10.3 35.65l1.05-2.7q2.2-6.3 1.65-13.1-1.5-21.9-18.4-35.9-.4 1.65-1 2.3l-1.5.85L22 6.8l.1-.15.65-.45q.85-.8.85-2.1 0-.8-1.25-1.4-.95-.65-2.9-1.15l-.45-.1.1 2.9.25 1.8q.2.8 1.4.8l1.2-.2v.05l-1.6.55-.75.15q-.75 1.1-1.95 1.5l-2.9.5q-1.65 0-2.95-.7L9.2 7.15q-1-.7-1.85-1.8l-.15-.2m.5-1.55.2.25Q10.55 6.9 13.7 7q1.85.5 3.55-.5-.35-2.6-.35-3.55l.35-1.85q.1-.55.5-.85l1.8-.25q1.35.05 3.9 1.3t6.95 4.95Q45.6 23.7 44.95 40.9q.35 11.85-6.6 22.3-1.25-18.45-13.3-29.85L22.8 36q-1.4 1.35-2.7 1.45l-1.7-.1q-.35-.25.15-1.3l.7-1.35.6-1.7.45-1.65v-.1q-2.3-5.95-4.85-8.9-2.6-3.05-4.35-4.3-1.75-1.25-1.9-1.2-1.95 1.45-3.45 3.3l-.3.5-.05-1.85-2.8 2.55Q.55 23.45.25 25L0 23.85l.05-.1-.05.05q.05-2 2.15-5.85l1.8-3.2.3-2.1-.45-3.2-.45-2.3q0-1.45.5-2.55.65-1.55 2.05-1.55.95 0 1.8.55m18.35 28.9q7.65 5.45 11.45 16.15l1.75 5.95q.2-25.8-11.05-36.1 0 6.3-3.45 13.1l1.3.9" fill="#2d021d"/><path d="m8.95 15.1-.05-.05q-2.2 1.6-3.95 3.25L1.3 22.25l-1.25 1.5Q.5 22.3 1.3 20.4q.8-2 2.75-5.15l1.4-2.2L6.8 10.5l-1.3 1.8-.1-1.35-.4-2.1-.2-1.4q0-.85.3-1.55.4-1 1.2-1l.85.2.05.05q-.1 1.65 1.15 3 1.2 1.35 3.35 2.4 2.1 1.05 4.2 1.1 2.05.05 3.15-.6 2.65-1.45 3.1-2 .45-.55.2-.95l-.3-.5-1.7-.25 1.6-.55H22l.05.05 1.5-.85q.6-.65 1-2.3 16.9 14 18.4 35.9.55 6.8-1.65 13.1.05-28.95-9.25-36.9-1.95-1.7-2.1 3.95L28.2 18.5q0-2.6-.6-5.15.55 14.3-6.65 21.85 5-7.75 3.05-20.25-1.85-.2-3.85.6l-.85-1.95q1.75-.45 3.5-1.3-9.4 3-13.6-.95.55.9 1.4 1.5l-.8 1.1-.85 1.15" fill="#4d0b1d"/><path d="M20.15 15.55q2-.8 3.85-.6 1.95 12.5-3.05 20.25 3-10.25-.8-19.65m9.8 4.2q.15-5.65 2.1-3.95 9.3 7.95 9.25 36.9l-1.05 2.7q-.3-27.3-10.3-35.65m-9.6-12.4 1.7.25.3.5q.25.4-.2.95-.45.55-3.1 2-1.1.65-3.15.6-2.1-.05-4.2-1.1-2.15-1.05-3.35-2.4-1.25-1.35-1.15-3l.15.2q.85 1.1 1.85 1.8l2.6 1.65q1.3.7 2.95.7l2.9-.5q1.2-.4 1.95-1.5l.75-.15" fill="#77205c"/><path d="m8.95 15.1.85-1.15.8-1.1q1.5 1.15 3.9 1.25l4.35-.4q3.25 8.55 2.4 14.35l-1.3-2.3q-.65-5.7-1.45-7.8l-.15-.35q-2.75-1.65-5.7-2.05l-.4-.05-.95.95-.55-.35-1.8-1" fill="url(#G)"/><path d="m11.3 16.45.95-.95.4.05q2.95.4 5.7 2.05l.15.35q.8 2.1 1.45 7.8L18.7 23.8q-1.65-2.4-3.7-4.45-1.7-1.7-3.7-2.9" fill="url(#H)"/><path d="M19.45 1.55q1.95.5 2.9 1.15 1.25.6 1.25 1.4 0 1.3-.85 2.1l-.65.45-.15.1L21 5.4l.4-.85q.1-.55-.45-1.5-.6-.95-1.25-1.15h-.15l-.1-.35" fill="#9f6575"/><path d="M19.55 1.9h.15q.65.2 1.25 1.15.55.95.45 1.5l-.4.85-.9-1.65-.55-1.85" fill="#de9191"/><path d="m19.45 1.55.1.35.55 1.85.9 1.65.95 1.35-1.2.2q-1.2 0-1.4-.8l-.25-1.8-.1-2.9.45.1" fill="#fcc"/><path d="M37.5 48.65q-.05-11.75-8.55-23.05-.9 4.3-2.9 6.9l-1.3-.9q3.45-6.8 3.45-13.1 11.25 10.3 11.05 36.1l-1.75-5.95" fill="url(#I)"/><path d="M26.05 32.5q2-2.6 2.9-6.9 8.5 11.3 8.55 23.05-3.8-10.7-11.45-16.15" fill="url(#J)"/></g><g id="l" fill-rule="evenodd"><path d="m25.3 15.05-1.85-.15-8.7 8.3 4.6-.25 5.45-.3v.1l-2.05.25h-.15l-5.05.6-3 .35Q16 27.9 18.1 32.4l-2-1.7-.7-.55q-3.05-5.7-2.15-7.6 4.05-4.75 12.55-12.5-.95-3.75-1-4.75l-.05-.25q0-1.05.3-1.15h.65q5.7 3.05 8.25 7.05-2.6 5.55-5.15 10.15l-1.6 2.7.25.5 2.6 5.6-.45.7-3.7-8 3.85-7.2-.55-.05-1.75-.15-2.15-.15m3.3-6.85-1.95-1.3.2 1.15.45 3.15-3.2 3.05 3.65.55 2.1.3h.05l2.2-4.2-3.5-2.7" fill="url(#K)"/><path d="m14.75 23.2 8.7-8.3 1.85.15-5.85 5.85 4.9-1-.25.45-.3.5-9.05 2.35" fill="#ffdf86"/><path d="m17.55 23.6 5.05-.6h.15l1 3.6.7 3-1.9 2.9-5-8.9" fill="url(#L)"/><path d="m19.35 22.95-4.6.25 9.05-2.35.3-.5.25-.45 2.4-.5-.3.5q-3.45 2.5-7.1 3.05m10.5-7.85-2.1-.3.35-.45 1.75.75" fill="#d89335"/><path d="m14.55 23.95 3-.35 5 8.9 1.9-2.9.2 1.4q0 1.25-1.3 3.5l-.55.45-8.25-11" fill="url(#M)"/><path d="m.2 18.3-.2.2v-.25l.2.05" fill="#2d021d"/><path d="m26.85 8.05-.2-1.15 1.95 1.3.15 1.55-1.9-1.7" fill="#d69c26"/><path d="m28.1 14.35-1.7-.85 2.45-2.5-.1-1.25 1.7 1.55-2.35 3.05" fill="#fa616d"/><path d="m27.75 14.8-3.65-.55 3.2-3.05-.45-3.15 1.9 1.7.1 1.25-2.45 2.5 1.7.85-.35.45" fill="#ffe481"/><path d="m25.3 15.05 2.15.15q-1.85 2.5-3.1 4.7l-4.9 1 5.85-5.85" fill="#ee5974"/><path d="m29.2 15.35.55.05-3.85 7.2-1.1.05 1.65-2.75.3-.5 2.45-4.05m-3.8 7.3q-.45 1.6 1.75 8.65l-.2.2q-2.15-6.05-2.15-8.75l.6-.1" fill="#81060b"/><path d="m28.6 8.2 3.5 2.7-2.2 4.2h-.05l-1.75-.75 2.35-3.05-1.7-1.55-.15-1.55m29.05 2.95-.6.25-3.55 1.75-2.75 1.3-.3-1L56.2 10l1.45 1.15M55.4 2.4l-1.5 5.8 1.85 1.45-2.65 1.6-1.3-2.45L53 4.85l2.4-2.45" fill="#d21c14"/><path d="m27.45 15.2 1.75.15-2.45 4.05-2.4.5q1.25-2.2 3.1-4.7" fill="#c8161a"/><path d="m22.75 23 2.05-.25q0 2.7 2.15 8.75l-3.6 3q1.3-2.25 1.3-3.5l-.2-1.4-.7-3-1-3.6" fill="url(#N)"/><path d="m27.45 24.3-.25-.5 1.6-2.7q11.65-8.2 21 .9l.2.5-1.3 1.5q-4.1-4.3-8.7-4.75-5.85-.6-12.55 5.05" fill="#355183"/><path d="m24.8 22.65-5.45.3q3.65-.55 7.1-3.05l-1.65 2.75" fill="#b60922"/><path d="m25.9 22.6 3.7 8-.95 1.4v6.5l-2.2-1.35q1.4-3.7.8-5.2l1.6-1.35-.45-.35-1.25 1.05q-2.2-7.05-1.75-8.65l.5-.05" fill="url(#O)"/><path d="M35.45 25.2v-.05l4.1 8-1.6 1.35.1-1.5-2.65-5.2v-.1l.05-2.5m-3.7 14.35v.05l-1.15.9-.3-.5v-7.5l.4-.5.85.9v.05l.2 6.6" fill="#b00b2c"/><path d="m30.7 32 4.75-6.8-.05 2.5-.05.05-3.8 5.15-.85-.9" fill="#dd9295"/><path d="m35.5 22.9-.05 2.25v.05L30.7 32l-.65-.7 5.45-8.4" fill="#fcada2"/><path d="m35.45 25.15.05-2.25 4.95 9.5-.9.75-4.1-8" fill="#ff4d50"/><path d="m35.35 27.75.05.05-.25 9.05-3.6-3.9v-.05l3.8-5.15" fill="#b49184"/><path d="m30.05 29.9-2.6-5.6q6.7-5.65 12.55-5.05 7.1 4.3 2.15 10.5-3.25-3.45-6.55-8.4l-5.55 8.55m22.3 16.15q.75 1.5-2 5.1L53 50.4l-.05.25q0 .8 1.4.8l2.35-.1 1.65.1q.85.15 2.2.85 1.55 1.45 1.55 3.35l.15-.2 4.35-.1q1.95 1.3 2.2 3.45.2 2.15-.35 3.85-.6 1.65-1.35 2.4 2.1-1.4 3.55-4.1l.45 2.1q.15 1.65-2.4 4.4-2.5 2.65-5.95 2.3 1.6-1.45 1.55-3.85-.1-3.7-4.4-4.5-4.2-.8-5.9-1.65-3.7-1.65-5-5.25l-.05-.1q-1.35-3.7-1.5-6.2l-.05-.8q.6-.5 1.8-.95l2.35-.5.8.1M43.6 47.6h.05l.05.2-.05.25-.3.2h-.1l-.15-.3q0-.4.3-.4l.2.05m-1.25.7-.4.15h-.15q-.3-.15-.3-.75l.1-.7q.15-.15.4-.25.55-.1.55.8l-.2.75" fill="#feffff"/><path d="m48.7 24 1.3-1.5-.2-.5q-3.9-10.25-4.2-14.9L55.8 0q2.05.45-.4 7L67 16.1l-1.4 15.55-.05.65h-.1l-1.5.25L65 18.15 58.05 32.1l-7.35 4.3q-4.6 2.3-9.7 4.1l.05-.65.95-.3q4.25-1.6 8.4-3.75l6-3.45-5.25-.95-6.55-1.25-2.7 2.8-.4.4-.2.15v-.9l7.4-8.6m8.95-12.85L56.2 10l-5.75 3.45-.15-.55 2.8-1.65 2.65-1.6L53.9 8.2l1.5-5.8q-4.75 2.9-8.5 5.9l2 5.45.15.55.3.8 1.85 6.3.35 1.5-5.6 6.1-.85.9 3.25.55L57.5 32l7.55-15-12.35 4-.05-.15 5.1-1.9 6.65-2.45-6.75-5.35" fill="url(#P)"/><path d="m50.45 13.45.3 1-1.4.65-.3-.8 1.4-.85m3.05-.3 3.55-1.75-2.95 2.3-.6-.55m-.65 8.45-1.65-.2 1.45-.55.05.15.15.6" fill="#d68c32"/><path d="m57.05 11.4.6-.25 6.75 5.35-6.65 2.45q-1.5-3.1-3.65-5.25l2.95-2.3" fill="#d01b16"/><path d="M53 4.85 49.1 8.8l1.2 4.1-1.4.85-2-5.45q3.75-3 8.5-5.9L53 4.85" fill="#ffe382"/><path d="m53.1 11.25-2.8 1.65-1.2-4.1L53 4.85 51.8 8.8l1.3 2.45" fill="#f8606f"/><path d="m50.3 12.9.15.55-1.4.85-.15-.55 1.4-.85" fill="#ad2a7b"/><path d="m49.35 15.1 1.4-.65.45 1.45 1.45 4.95-1.45.55-1.85-6.3" fill="#ffc997"/><path d="m50.75 14.45 2.75-1.3.6.55-2.9 2.2-.45-1.45" fill="#ffd78c"/><path d="m51.2 21.4 1.65.2 7.1.75-1.55.4-3.55.9-5.15 5.4q-1.75-.1-3.75-.05l5.6-6.1-.35-1.5" fill="#ffadaa"/><path d="m52.85 21.6-.15-.6 12.35-4-7.55 15-9.15-1.55 1.35-1.4 3.8.5 3.2-3 1.7-3.8 1.55-.4-7.1-.75m-2.7 10.5 1-.7 5.25.95-6 3.45q-4.15 2.15-8.4 3.75l-.15-1.65h.05l2.1-2.55.75.85.05-.05 5.35-4.05" fill="url(#Q)"/><path d="m49.7 29.05 5.15-5.4 3.55-.9-1.7 3.8-3.2 3-3.8-.5" fill="#af2c95"/><path d="M54.1 13.7q2.15 2.15 3.65 5.25l-5.1 1.9-1.45-4.95 2.9-2.2" fill="#db4c7e"/><path d="M40 19.25q4.6.45 8.7 4.75l-7.4 8.6-5.7-11.25q3.3 4.95 6.55 8.4 4.95-6.2-2.15-10.5m7.3 25.85q4.25-.55 5.05.95l-.8-.1-2.35.5q-1.2.45-1.8.95l-.1-2v-.3m15.45 24.65q3.45.35 5.95-2.3 2.55-2.75 2.4-4.4l-.45-2.1q-1.45 2.7-3.55 4.1.75-.75 1.35-2.4.55-1.7.35-3.85-.25-2.15-2.2-3.45l-4.35.1.8-1.1.55-.65 1.65-1.25q1.35-.95 2.2-.85.85.05 4.1 2.2 2.95 1.95 3.35 5.3l.05.5q.45 4.75-2.85 8.25-5.25 4.1-11.5 3.1 1.3-.5 2.15-1.2m-2.2-17.45q-1.35-.7-2.2-.85l-1.65-.1-2.35.1q-1.4 0-1.4-.8l.05-.25q1.8-.35 3.35-.05 2.6.45 4.2 1.95" fill="#b7d6f6"/><path d="M61.85 38.95q-.1-.95.5-1.2l1.5-.1q.9.15 1.05 1.15.15 1-1.4 1.05-1.55 0-1.65-.9m-3.8-2.8q.9 0 2.15.95 1.2.9 1.15 2.45-.1 1.45-2.55 1.85-.05 2.9-7 8.4 7.4-7.45 4.5-11.15-1.15-1.75-6.15-.65 6.5-3.4 15.8-4.65l1 .75q-2.95.3-8.9 2.05m-48.6 6.1q2.1-6.55 5.95-9.95 4.4 1.25 12.75 9.65l1.55 2.25q-5.45-5.95-11.05-8.65-1.5 1.85-4.85.5-2.8 3.1-3.9 5.7l-.45.5" fill="#e279d1"/><path d="M61.85 38.95q.1.9 1.65.9 1.55-.05 1.4-1.05-.15-1-1.05-1.15l-1.5.1q-.6.25-.5 1.2M51.8 49.8q6.95-5.5 7-8.4 2.45-.4 2.55-1.85.05-1.55-1.15-2.45-1.25-.95-2.15-.95Q65 35.7 73.5 41.6q-2.45-1.1-5.55-1.45 8.45 3 11.75 10.4l-2.35-.95q-4.4-4.2-11.75-8.4-.95-.1-1 .5 1.1 7.85-2 11.95 1.1-7.9-2.3-11.3-3 4.35-8.5 7.45m-22.1-5.6 1.4 1.9q-1.6-1.65-3.3-2.3-.65-1.45-3.05-3.25-1.1 2.45-2.4 3.55l-1 .5q.35-4.85-1.6-6.55-6.65.45-9.85 3.7 1.1-2.6 3.9-5.7 3.35 1.35 4.85-.5 5.6 2.7 11.05 8.65" fill="#77205c"/><path d="m63.95 32.55-.1.05q-7.4 1.2-13 4.05l-.15-.25 7.35-4.3L65 18.15l-1.05 14.4" fill="#3f000c"/><path d="m66.95 34.1-1-.75q-9.3 1.25-15.8 4.65 5-1.1 6.15.65 2.9 3.7-4.5 11.15l-.2.2-1.25 1.15q2.75-3.6 2-5.1-.8-1.5-5.05-.95l-.7.1-1.1.2-.35.1-.45.1v-.1l-.35.15-.2.05-2.4.6-2.7.75 1.1-1.6q4.1-5.5 10.7-8.8 5.6-2.85 13-4.05l.1-.05 1.5-.25h.1l.05-.65q3.25.6 12.85 13.65-1.95-2.35-4.9-3.65l-.05-.05q-3.55-5-6.55-7.5M56.4 40.45q-.15-.95-.75-1.7-1.85-1.45-8.45 1-4.25 2.75-7.05 6.65l2.8-.8q11.2-3.05 9.85 2.45 4-4.75 3.6-7.6" fill="#2e021c"/><path d="M51.8 49.8q5.5-3.1 8.5-7.45 3.4 3.4 2.3 11.3 3.1-4.1 2-11.95.05-.6 1-.5 7.35 4.2 11.75 8.4Q69 46.9 62.6 53.65q-3.05-5.5-10.9-3.7v-.05l.1-.1m21.7-8.2q-8.5-5.9-15.45-5.45 5.95-1.75 8.9-2.05 3 2.5 6.55 7.5m-30.55 4-2.8.8q2.8-3.9 7.05-6.65 6.6-2.45 8.45-1 .6.75.75 1.7-7.9.35-13.45 5.15M27.8 43.8q-2.6-1-5.45.3 1.3-1.1 2.4-3.55 2.4 1.8 3.05 3.25m-6.45.8-.1-.5q-.8-3.7-5.15-3.85-5.15.3-7.4 4.7l.75-2.7.45-.5q3.2-3.25 9.85-3.7 1.95 1.7 1.6 6.55M16.6 46q.7-4.05-2.1-4.4 4.55-1.1 6.35 2.15-2.2-.1-4.25 2.25" fill="#480942"/><path d="m51.15 31.4-1 .7-3.85.4-2.3 2.85-2.1-2.4 2.7-2.8 6.55 1.25" fill="#ff9da7"/><path d="M45.95 29q2-.05 3.75.05l-1.35 1.4-3.25-.55.85-.9" fill="#db5e4b"/><path d="m50.15 32.1-5.35 4.05-.05.05-.75-.85 2.3-2.85 3.85-.4" fill="#b81a90"/><path d="m50.7 36.4.15.25q-6.6 3.3-10.7 8.8l-3.7 1.85 4.5-6 .05-.8q5.1-1.8 9.7-4.1" fill="#5f0009"/><path d="m44.7 45.6.45-.1v1.8l-.5-.15.05-1.55" fill="#807daf"/><path d="m44.15 45.75.2-.1.35-.05-.05 1.55-.35.95-.7.8.15-.3.5-1.5-.1-1.35" fill="#0f1740"/><path d="m41.75 46.3 2.4-.6v.05l-.7.3q-.8.35-1.45.7-.25.1-.4.25l-.55.3-.8.55-.3.2 1.3.4.45.15.1.05.75.3.4.15.45.2 1.3.55.6.3 1 .5-4.05-1.1-1.15-.45-1.65-.65-1.65.8.45-.5 1.05-.9.3-.2 2.15-1.35" fill="#060f36"/><path d="m45.15 45.5.35-.1v2l-.1 1.7-.1 1.05-.6-.3.2-.95.25-1.6v-1.8" fill="#030c35"/><path d="m46.6 45.2.7-.1v.3q-.35 2.1-.15 4.6.2 2.45 1 4.95h-.05l-.3-.6v-.05l-.2-.45q-1.15-2.75-1.1-4.95l.1-3.7" fill="#0f1a42"/><path d="m45.5 45.4 1.1-.2-.1 3.7q-.05 2.2 1.1 4.95l.2.45v.05q-3.15 1.9-5.8 2.8-3.6 1.2-6.15 1.3l-2.1-.15 1.6-.45.4-.15q4.05-1.3 5.15-2.45 1.4-1.45 1.5-3.05.1-1.65-.15-2.65l4.05 1.1-1-.5.1-1.05.1-1.7v-2" fill="#2a1f5a"/><path d="m47.3 45.4.1 2 .05.8q.15 2.5 1.5 6.2l.05.1q1.3 3.6 5 5.25 1.7.85 5.9 1.65 4.3.8 4.4 4.5.05 2.4-1.55 3.85-.85.7-2.15 1.2 6.25 1 11.5-3.1 3.3-3.5 2.85-8.25l-.05-.5.1.5q.65 3.25-.6 6 1.15-1.6 2-3.9.8-2.3-.15-4.9-.95-2.65-2.7-3.7-1.75-1.1-2.8-1.35l-1.4-.5q-.35-.2-.35-.8l.05-.25 2.7-.2q4.45 1.3 6.05 5.7 1.55 4.35-.7 8.1-1.8 2.7-3.8 4.25l-3.95 2.35-3.65 1.15-3.35.25-2.15-.3q-.6-.25-1.25-.85l.75-.1 1.45-.45 1.45-1.05q.6-.7.85-1.75t.1-1.8L62.9 64l-1.05-1.2q-.6-.35-1.6-.7-2.8-.1-5.3-1.1-2.55-1-4.4-2.7-1.5-1.35-2.45-3.35h.05q-.8-2.5-1-4.95-.2-2.5.15-4.6" fill="#2f4b7f"/><path d="m44.25 47.1-.35-.05-.25.05-.2-1.05.7-.3.1 1.35" fill="#842076"/><path d="m43.65 47.1.25-.05.35.05-.5 1.5-.15.3-.65.2-.4-.15-.75-.3-.1-.05.1-.15h.15l.4-.15.25.1.65-.15h.1l.3-.2.05-.25-.05-.2h-.05l.05-.5" fill="#ff39a4"/><path d="m44.65 47.15.5.15-.25 1.6-.2.95-1.3-.55.2-.4.7-.8.35-.95" fill="#fff"/><path d="m77.35 49.6 2.35.95q-3.3-7.4-11.75-10.4 3.1.35 5.55 1.45l.05.05q2.95 1.3 4.9 3.65l.2.25q1.15 1.5 1.95 3.45 1.5 2.85 1.1 6.35-1.55-4.65-8.85-5.2l-1.1-.15-2.7.2q-3 .65-5.45 3.5l-.55.65-.8 1.1-.15.2q0-1.9-1.55-3.35-1.6-1.5-4.2-1.95-1.55-.3-3.35.05l-2.65.75L51.6 50l.05-.05h.05q7.85-1.8 10.9 3.7Q69 46.9 77.35 49.6" fill="#2c021c"/><path d="M56.4 40.45q.4 2.85-3.6 7.6 1.35-5.5-9.85-2.45 5.55-4.8 13.45-5.15" fill="#340422"/><path d="m39.55 33.15.9-.75-.45 9-1.05-.95v-.05l.6-7.25m-4.7 14.1-.05.85-5.55-6.5 1.35-1.1 4.2 6.75h.05" fill="#ff829b"/><path d="m29.6 30.6.45-.7 5.55-8.55 5.7 11.25v.9l-.2 4.4-.05 1.95-.05.65-.05.8-4.5 6-1.5 1.95-3.7-4.15-2.6-2.9V32l.95-1.4m5.9-7.7-5.45 8.4-.6.9-.2 9.4 5.55 6.5 5.2-6.7.45-9-4.95-9.5" fill="#520104"/><path d="m41.5 33.35.35 4.55h-.75l.2-4.4.2-.15" fill="#8f340a"/><path d="m44 35.35-2.1 2.55h-.05l-.35-4.55.4-.4 2.1 2.4" fill="#d75645"/><path d="m35.4 27.8 2.65 5.2-.1 1.5-2.8 2.35-3.4 2.7-.2-6.6 3.6 3.9.25-9.05" fill="#520707"/><path d="m37.7 39.25-2.55-2.35-.3 9.3-3.1-6.6v-.05l3.4-2.7 2.8-2.35-.25 4.75" fill="#770c0e"/><path d="m34.85 46.2.3-9.3 2.55 2.35.05.05-2.9 6.9" fill="#2f0206"/><path d="m37.95 34.5 1.6-1.35-.6 7.25v.05l-1.2-1.15-.05-.05.25-4.75m-6.2 5.1 3.1 6.6v1l-.05.05-4.2-6.75 1.15-.9" fill="#d41256"/><path d="m34.85 46.2 2.9-6.9 1.2 1.15-4.1 6.75v-1" fill="#660427"/><path d="m41.85 37.9.15 1.65-.95.3.05-1.95h.75" fill="#5d0008"/><path d="m30.05 31.3.65.7-.4.5V40l.3.5-1.35 1.1.2-9.4.6-.9" fill="#ff4e51"/><path d="m27.15 31.3 1.25-1.05.45.35-1.6 1.35-3.15 2.55-.9.7 2.5 1.5.75.45 2.2 1.35v.5l-5.95-3.4-8.15-11.65 8.25 11 .55-.45 3.6-3 .2-.2" fill="#5d3363"/><path d="M27.25 31.95q.6 1.5-.8 5.2l-.75-.45-1.6-2.2 3.15-2.55" fill="#82013c"/><path d="m25.7 36.7-2.5-1.5.9-.7 1.6 2.2" fill="#da5f4e"/><path d="m15.4 30.15.7.55 2 1.7 4.4 3.7 6.15 5.55v.55l2.6 2.9h-.05q1.25 2.65.45 2.25-3.25-3.1-6.05-3.3l-1.15.05-.8.15q-1.45.4-2.8 1.7V44.1q-2.85.15-5.25 4 .65-8.85-5.45-2.45-1.75 2.85-2.75 2.3-.7-1.25 0-5.25 3.3-11.55 8-12.55M27.8 43.8q1.7.65 3.3 2.3l-1.4-1.9-1.55-2.25q-8.35-8.4-12.75-9.65-3.85 3.4-5.95 9.95l-.75 2.7q2.25-4.4 7.4-4.7 4.35.15 5.15 3.85l.1.5 1-.5q2.85-1.3 5.45-.3M16.6 46q2.05-2.35 4.25-2.25-1.8-3.25-6.35-2.15 2.8.35 2.1 4.4" fill="#280018"/><path d="m31.25 45.1 3.7 4.15-3.3-1.9q.8.4-.45-2.25h.05" fill="#722d6b"/><path d="m33.75 58.3 2.1.15q2.55-.1 6.15-1.3 2.65-.9 5.8-2.8l.3.6q-2.3 1.35-5.2 2.45-4.7 1.75-7.35 1.65l-4.3-.6q-1.55-.55-4.7-2.4l-.1-.05-.85-1.05q-.6-.95-.6-1.5l.15-2.6q-1.15-2.35-1.5-6.6l.8-.15q.5 4.4 1.65 8.25l-.35-.4v1.7q0 .55.45 1.15l.75.65q.3.55 3.3 1.8l3.5 1.05m-7.9-12.5-.75-.15.2-.25h.45q3.35-.05 6.1 4.15l-.25-.15-.85-.9-.35.4-.8.75-.1.1-2.45 1.45-.2.1-.2.05.2-.15 1-.85 1.15-1 .1-.05.3-.3.15-.15.45-.35.35-.35-.7-.55-1.05-.75-.4-.2-.25.05-.3.15-.2.6-.05-.3-.05-.05-.05-.4-.1-.5-.75-.25 1.05 3.3.25.9-.2-.4Q26.5 48 26.2 45.85l-.35-.05M34 53.45l.95-.3q.55-.3.95-.3.4 0 .4.3 0 .4-.7.65l-1 .15-.75-.15-.6-.4.05-.15.45.15.25.05" fill="#0c133b"/><path d="m35.35 57.85-1.6.45-3.5-1.05q-3-1.25-3.3-1.8l-.75-.65q-.45-.6-.45-1.15v-1.7l.35.4q-1.15-3.85-1.65-8.25l1.15-.05.15 1.35h-.45l-.2.25.75.15q.15 2.25.7 4.3l.3 1.1-.2.15.2-.05q.2 2.25 1.05 3.4.8 1.15 2.45 1.85l2.9 1.05 2.1.25" fill="#4896de"/><path d="M42.25 49.55q.25 1 .15 2.65-.1 1.6-1.5 3.05-1.1 1.15-5.15 2.45l-.4.15-2.1-.25-2.9-1.05q-1.65-.7-2.45-1.85-.85-1.15-1.05-3.4l.2-.1 2.45-1.45.1-.1.8-.75.35-.4.85.9.25.15q-2.75-4.2-6.1-4.15l-.15-1.35q2.8.2 6.05 3.3l3.3 1.9 1.3-.7 3.05-.7-1.05.9-.45.5 1.65-.8 1.65.65 1.15.45M34 53.45l-.25-.05-.45-.15-.05.15.6.4.75.15 1-.15q.7-.25.7-.65 0-.3-.4-.3t-.95.3l-.95.3" fill="#4c5792"/><path d="m29.4 49-.3.3-.1.05h-.05q-.9-.35-1.15-1.05l.15.05.05.05 1.4.6m-1.9.25-1.05-3.3.75.25.1.5.05.4.05.05.05.3v.35l-.05.2v.65q.3.8 1.1.9l-.4.1-.45-.15-.1-.3-.1-.2.05.25" fill="#7371a2"/><path d="m27.45 47.45.2-.6.3-.15.25-.05.4.2.2.85-.05.3q-.15.35-.7.35h-.1l-.25-.25-.25-.3v-.35m1.5.6.4.1-.1.35-.3-.05v-.4" fill="#fffdfe"/><path d="m27.85 50.35-1 .85-.3-1.1q-.55-2.05-.7-4.3l.35.05q.3 2.15 1.35 3.9l.2.4.1.2" fill="#4a69a8"/><path d="m27.45 47.8.25.3.1.2q.25.7 1.15 1.05l-.45.2q-.8-.1-1.1-.9V48l.05-.2" fill="#ebedf0"/><path d="m30 48.5-.45.35-.15.15-1.4-.6.05-.05q.55 0 .7-.35l.2.05v.4l.3.05.1-.35q.35.1.65.35" fill="#f52b8e"/><path d="m29 49.35-1.15 1-.1-.2-.25-.9.05-.05.1.3.45.15.4-.1.45-.2H29" fill="#202953"/><path d="m28.6 46.85 1.05.75.7.55-.35.35q-.3-.25-.65-.35l-.4-.1-.2-.05.05-.3-.2-.85" fill="#55001e"/><path d="m43.45 46.05.2 1.05-.05.5-.2-.05q-.3 0-.3.4l.15.3-.65.15-.25-.1.2-.75q0-.9-.55-.8.65-.35 1.45-.7" fill="#56001f"/><path d="m38.95 40.45 1.05.95-5.2 6.7.05-.85v-.05l4.1-6.75" fill="#931a46"/><path d="m40.15 45.45-1.1 1.6-2.8 1.5-1.3.7 1.5-1.95 3.7-1.85" fill="#742f6e"/><path d="m41.8 48.45-.1.15-.45-.15-.2-.55v-.6l.55-.3-.1.7q0 .6.3.75" fill="#a52d8c"/><path d="m39.05 47.05 2.7-.75-2.15 1.35-.3.2-3.05.7 2.8-1.5" fill="#0b133a"/><path d="m41.25 48.45-1.3-.4.3-.2.8-.55v.6l.2.55" fill="#8c87bb"/><path d="M28.65 39v2.65L22.5 36.1l.2-.5 5.95 3.4" fill="#69064a"/><path d="M18.1 32.4q-2.1-4.5-3.55-8.45L22.7 35.6l-.2.5-4.4-3.7" fill="#6b104d"/><path d="M63.6 53.7q2.45-2.85 5.45-3.5l-.05.25q0 .6.35.8l1.4.5q1.05.25 2.8 1.35 1.75 1.05 2.7 3.7.95 2.6.15 4.9-.85 2.3-2 3.9 1.25-2.75.6-6l-.1-.5q-.4-3.35-3.35-5.3-3.25-2.15-4.1-2.2-.85-.1-2.2.85L63.6 53.7" fill="#6da0d4"/></g><g id="m" fill-rule="evenodd"><path d="M1.9.95Q.8 1.1 0 1.8 1.45-.2 3.25.05T5.9 1.9l1.75 3.6 1.7 3.15L11 10.9l-.4.15L8.85 8.6 6.9 5.1Q6 3.25 5.3 2.35 4.2.9 2.65.9L1.9.95m5 13.95-1.95-3.2-.35-.6-1.55-3.2L2 5.05l-.1-.45-.05-.3.7 1.75 1.95 3.9 2.65 4.6-.15.2-.1.15" fill="#07133e"/><path d="M1.9 4.6q-.65-.75-.6-1.65l.4-1.65.2-.35.75-.05Q4.2.9 5.3 2.35q.7.9 1.6 2.75l1.95 3.5 1.75 2.45-.2.1-.7.55-.95.9Q7.9 10.2 5.9 6.95L3.4 3q-.4-.4-.8-.2l-.15.05L2.2 3l-.25.25-.1 1.05.05.3m10.2 13.95.1-.45q.15-.55.5-.95.5-.55 1.15-.85l1.75-.3h.25l.35-.05 4.05 2.65q1.85.95 2.85 1.2l1.5.3.45.35q0 .4-.75.55l-.05-.1-.3-.25-1.8-.2-1.5-.1-3.25-1.8q-2.05-1.25-2.95-1.2-.9 0-2.35 1.2" fill="#2a1f5a"/><path d="m1.85 4.3.1-1.05L2.2 3l.25-.15.15-.05q-.25 1.25.8 3.35l2.2 4.2 2.25 3.3-.7.9-2.65-4.6-1.95-3.9-.7-1.75" fill="#4a9be3"/><path d="M11 10.9q1.7-.7 4 .35l1.05.9q.7.7.65 2.35l-.25 1.2-.25.25-.35.05h-.25l-1.75.3q-.65.3-1.15.85-.35.4-.5.95l-.1.45-.15 1.2-.05.75-.05.15-.2.3-1.65.3q-1.6 0-2.65-1.05-1.1-1.1-1.1-2.95 0-1.2.6-2.2l.05-.15.1-.15.15-.2.7-.9.1-.15.8-.9.95-.9.7-.55.2-.1.4-.15m-2.05 2.15L8.2 14l-.5 1-.15.35q-.3.8-.2 1.95.05 1.55.95 2.45.85.85 2.15.85l.35-.05q.15.15.3-.1l.45-.5.15-.85q0-.55.25-1.35.25-.85 1-1.45.6-.5 1.5-.75l.5-.1q1.2-.25 1.2-1.35l-.05-.4q-.25-.95-1.35-1.65-1.1-.65-2.3-.65l-.6.05-.55.1h-.05q-1 .15-1.6.7l-.4.35-.3.45" fill="#80300b"/><path d="M2.6 2.8q.4-.2.8.2l2.5 3.95q2 3.25 2.85 5.65l-.8.9-.1.15-2.25-3.3-2.2-4.2q-1.05-2.1-.8-3.35m18.05 17.55-1.75-.2 1.25.6 2.15.45q1.05.1 1.05.9t-.95.95l-1.7.2-1.95.05-2.55-.7-.5-.25q-.8-.4-1.1-.45l1.1.85V23q0 .95-.55 1.7-.5.7-1.25.75l-.1-.7q-.2-2.5-1.9-4.25l.05-.75.15-1.2q1.45-1.2 2.35-1.2.9-.05 2.95 1.2l3.25 1.8" fill="#4c5792"/><path d="m10.8 20.55-.35.05q-1.3 0-2.15-.85-.9-.9-.95-2.45-.1-1.15.2-1.95L7.7 15l.5-1 .75-.95 1.2 1.4q.7 1.2.7 1.85l-.25 1.5q-.3.95-.3 1.55 0 .85.5 1.2M8.1 15.5q-.4.2-.4.95l.25.7.65.3.65-.4.25-.75q0-.95-1.05-.95-.15 0-.25.1l-.1.05m.65 2.85q0 .2.15.4l.3.2q.4 0 .4-.65 0-.45-.35-.45l-.35.1-.1.15-.05.25" fill="#ffe85c"/><path d="m8.1 15.5.1-.05q.1-.1.25-.1 1.05 0 1.05.95l-.25.75-.65.4-.65-.3-.25-.7q0-.75.4-.95m.65 2.85.05-.25.1-.15.35-.1q.35 0 .35.45 0 .65-.4.65l-.3-.2q-.15-.2-.15-.4" fill="#fff"/><path d="M9.65 12.25q.6-.55 1.6-.7h.05l.55-.1 1.4 1.05q1.15 1.2 1.2 2.3l-1.25.5q-.55.25-1 .8l-.1-.85q-.15-1.35-2.45-3" fill="#b75413"/><path d="m8.95 13.05.3-.45.4-.35q2.3 1.65 2.45 3l.1.85-.25.35-.15.2q-.65 1-.65 1.9l.1 1.25-.15.65h-.05l-.25.1q-.5-.35-.5-1.2 0-.6.3-1.55l.25-1.5q0-.65-.7-1.85l-1.2-1.4m2.9-1.6.6-.05q1.2 0 2.3.65 1.1.7 1.35 1.65l.05.35v.05l-.35.3-.8.25-.55.15q-.05-1.1-1.2-2.3l-1.4-1.05" fill="#fa8c07"/><path d="M16.15 14.1q0 1.1-1.2 1.35l-.5.1q-.9.25-1.5.75-.75.6-1 1.45-.25.8-.25 1.35l-.15.85-.45.5.15-.65-.1-1.25q0-.9.65-1.9l.15-.2.25-.35q.45-.55 1-.8l1.25-.5.55-.15.8-.25.35-.3" fill="#bc5713"/><path d="m16.45 15.7 1.9 1.25 2 1.15h.45l2.45.2 2.05-.15-.65 1.25-.3.3.55.1q.85.1.9.6 0 .5-.55.9l-.85.35v.25q0 1.1-1.45 1.7-1.1.45-2.75.5l-2.9-.45-.7-.35-1 1.75q-1 1.4-1.6 1.4-.6 0-1.15-2.35-.55-2.35-1.2-3.15l.2-.3.05-.15q1.7 1.75 1.9 4.25l.1.7q.75-.05 1.25-.75.55-.75.55-1.7v-.25l-1.1-.85q.3.05 1.1.45l.5.25 2.55.7 1.95-.05 1.7-.2q.95-.15.95-.95 0-.8-1.05-.9l-2.15-.45-1.25-.6 1.75.2 1.5.1 1.8.2.3.25.05.1q.75-.15.75-.55l-.45-.35-1.5-.3q-1-.25-2.85-1.2l-4.05-2.65.25-.25m8.1 2.95-1.4.15-1.45-.15h-.25l1.5.65.75.2.9-.8v-.1l-.05.05" fill="#0c133c"/><path d="m24.6 18.7-.9.8-.75-.2-1.5-.65h.25l1.45.15 1.4-.15.05.05" fill="#241d55"/></g><g id="n" fill-rule="evenodd"><path d="M25.45 7.25q-2.25-.7-3.65-.7-2.7 0-5.05 1.15L12.3 1.25Q14.5.3 16.95.05l1.8-.05 3.35.4q3.85 1.05 6.85 5l.5.75v.35q-.05 1.15-.6 2.15-1.25-.8-3.4-1.4" fill="#584ecb"/><path d="M21.25 14.15q1.15-1.3 2.7-1.4 4.2-.15 6.8 3.15 1.7 2.1 1.35 4.6l-.7 1.75-1.4-.8q-2-.85-4-.35l-4.75-6.9v-.05" fill="#685fd3"/><path d="m22 29.6-4.3-1.95-.05-.85q0-2.15.4-4.3l.8-3.6 4.5 4.2-.45 1.15q-.75 2.25-.9 5.35" fill="#6d64d4"/><path d="m18 31.2 3.95.7q.05 2.15.4 4.7.85 7.8 2.65 9.85l.95.95q-1.75-1.2-3.25-3.3-1.5-2.1-2.65-5.35-1.2-3.3-1.8-6.05L18 31.2" fill="#7971d9"/><path d="M23.05 74.65q-4-3.3-7.3-7.05-5.95-6.8-10.2-16.35Q1.25 41.8.4 33.95l-.4-5.7 5.8.95q-.15 1.45-.15 2.95.05 10.95 7.1 25.6 4.85 9.95 10.3 16.9" fill="url(#R)"/><path d="M27.75 62.6q-16.85-6.55-13.9-29.45.95 20.8 13.9 29.45" fill="url(#S)"/><path d="M9.2 16.4q-1.5 3.15-2.3 6.35l-6.9-3q.4-7.9 5.35-13.45l6.35 5.9q-1.35 1.8-2.5 4.2" fill="#776cd7"/></g><path d="M50.7 12.3q21 0 35.85 3.85 14.85 3.9 14.85 9.35 0 5.5-14.85 9.35-14.85 3.9-35.85 3.9-21.05 0-35.9-3.9Q0 31 0 25.5q0-5.45 14.8-9.35 14.85-3.85 35.9-3.85" fill-opacity=".349" fill-rule="evenodd" transform="translate(0 -12.3)" id="c"/></defs></svg>