<svg xmlns:ffdec="https://www.free-decompiler.com/flash" xmlns:xlink="http://www.w3.org/1999/xlink" ffdec:objectType="frame" height="90" width="90" xmlns="http://www.w3.org/2000/svg"><use ffdec:characterId="29" height="159.85" transform="matrix(.5253 0 0 .525 -4.413 1.496)" width="180.2" xlink:href="#a"/><defs><g id="a" transform="translate(8.4 -2.85)"><use ffdec:characterId="1" height="9.8" transform="matrix(1.5188 0 0 2.8614 46.003 134.579)" width="55.5" xlink:href="#b"/><use ffdec:characterId="3" height="53.15" transform="translate(78.45 107.75) scale(.9312)" width="48.2" xlink:href="#c"/><use ffdec:characterId="5" height="23.7" transform="translate(48.95 99.4) scale(.9312)" width="32.55" xlink:href="#d"/><use ffdec:characterId="11" height="109.5" transform="translate(32.9 2.85) scale(.9312)" width="104.1" xlink:href="#e"/><use ffdec:characterId="18" height="88.95" transform="translate(97.95 39.147) scale(.9312)" width="79.3" xlink:href="#f"/><use ffdec:characterId="20" height="41.15" transform="translate(53.2 110.35) scale(.9312)" width="29.7" xlink:href="#g"/><use ffdec:characterId="22" height="34.65" transform="translate(63.1 90.05) scale(.9312)" width="41.45" xlink:href="#h"/><use ffdec:characterId="24" height="21.9" transform="translate(82.25 92.25) scale(.9312)" width="17" xlink:href="#i"/><use ffdec:characterId="26" height="21.2" transform="translate(59.75 93.1) scale(.9312)" width="27.05" xlink:href="#j"/><use ffdec:characterId="28" height="36.5" transform="translate(.75 112.65) scale(.9312)" width="98.45" xlink:href="#k"/></g><g id="l" fill-rule="evenodd"><path d="m29.05 12.05-1.35-.85-.15-.25.1-.3q.1-.15.3-.15l.25.1 1.85 1.05 1.55.7h-.05q1.85.8 1.85 2.75 0 3.6-2 9.05l-.45 1.2 3.6 4.45q2.4 3 4.55 4.8l.05.05.3.25 3.8 3.5q2.1 2.75 1.55 6.1l-.15.3-.3.05h-.1q-.05 2.6-2.6 4.15-2.15 1.3-5.1 1.3H36l-2.95.15q-1.8 0-5.35-1.7-3.8-1.8-3.75-4.95 0-1.4.65-4.3l.3-1.4.35-2.7-3.3-4.6-2.5-.35-6.05-1.05L8 28.1q-2.6-.7-4.25-1.9l-.85-.75-.1-.1-.05-.2.15-.25q.1-.15.25-.15l.3.15.45.4.4.35q1.5 1.05 3.9 1.7v-.05l5.4 1.3.05.05 5.9 1 2.65.35 3 .25 1.35-.35q1.9-1 3.55-4.65v-.05l.55-1.35q1.95-5.25 1.95-8.75 0-1.45-1.35-2l-2.2-1.05m-2 18.55-1.85.45-2.2-.15 3.05 4.5-.35 2.9-.3 1.4q-.65 2.8-.65 4.1.05 2.65 3.3 4.25 3.3 1.6 5 1.6h1.35l-1.05-1.1-2.65-3.35-.15-.25.1-.3q.1-.15.3-.15l.3.1L34 48.05q.85 1.2 2.15 1.45h.4q2.75 0 4.7-1.2 2.2-1.3 2.2-3.65 0-1.05-.75-2.35l.05.05-1.85-2.75-.05-.3.2-.25.3-.05.25.2 1.8 2.7.7 1.6q.1-2.5-1.5-4.6l-4-3.7-.8-.7q-1.85-1.7-3.85-4.2l-3.4-4.15q-1.6 3.35-3.5 4.45" fill="#0e0200"/><path d="M27.05 30.6q1.9-1.1 3.5-4.45l3.4 4.15q2 2.5 3.85 4.2l-1.85-.1-1.3-.1-2.4-.5-3-1.45-2.2-1.75" fill="#884f53"/><path d="M23.7 14.2q.25 1.4 1.25 1.8l3.7 1q-1.5 2.8-3.8 5.1-2.3 2.2-6.05 2.85l-5.75-.15q-2.65-.95-3.35-3.4l.1-.05q4.55-3.05 10.9-5.95l3-1.2" fill="#4d3f3f"/><path d="m29.05 12.05 2.2 1.05q1.35.55 1.35 2 0 3.5-1.95 8.75l-.55 1.35v.05q-1.65 3.65-3.55 4.65l-1.35.35-3-.25-2.65-.35-5.9-1-.05-.05-5.4-1.3v.05q-2.4-.65-3.9-1.7 2.3-2.15 5.4-4.25.7 2.45 3.35 3.4l5.75.15q3.75-.65 6.05-2.85 2.3-2.3 3.8-5.1l-3.7-1q-1-.4-1.25-1.8l5.35-2.15" fill="#262220"/><path d="m2.8 25.35.1.1.85.75Q5.4 27.4 8 28.1l5.4 1.3 6.05 1.05 2.5.35 3.3 4.6-.35 2.7-.3 1.4q-.65 2.9-.65 4.3-.05 3.15 3.75 4.95 3.55 1.7 5.35 1.7L36 50.3h.55q2.95 0 5.1-1.3 2.55-1.55 2.6-4.15h.1l.3-.05.15-.3q.55-3.35-1.55-6.1l-3.8-3.5-.3-.25-.05-.05q-2.15-1.8-4.55-4.8l-3.6-4.45.45-1.2q2-5.45 2-9.05 0-1.95-1.85-2.75h.05l-1.55-.7 4.3-1.75.95.9 1.05 1.25q.4.55.45 1.75l-.05 2.1q0 2.1-.55 4.7-.55 2.35-1.25 3.65l.15.15 4.8 6.8q4.85 3 6 4.3 2.3 2.55 2.3 7.55 0 3.6-1.75 6.5-2 3.35-5.25 3.35l-6.25.25q-6.6 0-10.25-2-4.75-2.6-4.75-8.75 0-1.85.35-3.6.35-1.85.95-2.6l-.75-.9-.95-1.1-4.4-.35-7.8-1.3q-3.8-.85-5.75-4.05-.8-1.4-1.55-3.7l.95.15 1.8.4" fill="#150400"/><path d="M28.75 42.7q1.45.95 1.45 1.95 0 .95-.35 1.35-.35.4-1.15.4-.8 0-1.85-.6-1.15-.7-1.15-1.4 0-.45.55-1.25l.8-.85.35-.25 1.35.65m2.95-1.25.3-.3q.9-.75 1.3-.75 1.45 0 2.95 2.25 1.4 2.1 1.5 2.95.1.8-.15.85l-1.35.5q-1.05.45-2.8-1.6-1.8-2.05-1.8-3.25l.05-.65" fill="#3f363b"/><path d="m37.8 34.5.8.7 4 3.7q1.6 2.1 1.5 4.6l-.7-1.6-1.8-2.7-.25-.2-.3.05-.2.25.05.3 1.85 2.75-.05-.05q.75 1.3.75 2.35 0 2.35-2.2 3.65-1.95 1.2-4.7 1.2h-.4q-1.3-.25-2.15-1.45l-2.75-3.45-.3-.1q-.2 0-.3.15l-.1.3.15.25 2.65 3.35 1.05 1.1h-1.35q-1.7 0-5-1.6-3.25-1.6-3.3-4.25 0-1.3.65-4.1l.3-1.4 1.65-1.1 1.05-.9 1.05.6 1.9.5q1.2 0 2.3-1.3.75-.9 1-1.8l1.3.1 1.85.1m-6.1 6.95-.05.65q0 1.2 1.8 3.25 1.75 2.05 2.8 1.6l1.35-.5q.25-.05.15-.85-.1-.85-1.5-2.95-1.5-2.25-2.95-2.25-.4 0-1.3.75l-.3.3m-2.95 1.25-1.35-.65-.35.25-.8.85q-.55.8-.55 1.25 0 .7 1.15 1.4 1.05.6 1.85.6t1.15-.4q.35-.4.35-1.35 0-1-1.45-1.95" fill="#221e1e"/><path d="m25.7 38.3.35-2.9L23 30.9l2.2.15 1.85-.45 2.2 1.75 3 1.45 2.4.5q-.25.9-1 1.8-1.1 1.3-2.3 1.3l-1.9-.5-1.05-.6-1.05.9-1.65 1.1" fill="#ba9391"/><path d="M30.35 25.4q-2.3 5.85-5.75 5.8l-2.55-.3-5.6-1.05-7.5-1.5q-2.15-.4-3.7-1.3-1.85-1.1-2.4-2.65v-.05l-.05-.1-.35-3.85q-.3-2-1.6-2.1H.8l-.3-.1-.1-.3q0-.2.15-.3l.1-.05.15-.05h.25q1.8.15 2.2 2.8l.35 3.85q.5 1.25 2.05 2.2 1.45.8 3.4 1.2l7.55 1.5 5.6 1.05 2.4.3q3.05-.05 5.15-5.65l.4-1.15q1.7-5.4 1.7-9.75-.1-.55-2.9-2.35l-3.7-2.45h-.05L21.8 5.4q-1.65-1.95-2.4-4.1l-.25-.75V.2l.25-.15h.3l.2.25.05.2q.7 2.3 2.45 4.4h.05l3.35 3.6 3.6 2.35q3.35 2.15 3.25 3 0 4.45-1.75 10l-.55 1.55" fill="#0e0200"/><path d="M21.2 16.35q1.25.8 1.3 1.1l-2.35 1.9q-1.25.8-3 .8-1.45 0-2.35-.95-.75-.8-.8-1.95l.1-.05q4-1.7 5.15-1.7.6 0 1.95.85" fill="#886c68"/><path d="M21.2 16.35q-1.35-.85-1.95-.85-1.15 0-5.15 1.7l-.1.05q.05 1.15.8 1.95.9.95 2.35.95 1.75 0 3-.8l2.35-1.9q-.05-.3-1.3-1.1m7.5.65q-2.35 3.6-3.8 5.1-2.45 2.55-6.1 2.9-3.65.35-5.8-.5t-2.7-1.7l-1.1-4.25q3.95-4.3 7.95-5.5l8.2-1.25-.7.95q-.65.9-.65 1.8 0 1.25 2.05 1.9l2.65.55" fill="#524342"/><path d="m2 25.35-.35-.55q-1.4-2.4-1.4-3.55T.4 19.6l.45-1.3q1.3.1 1.6 2.1l.35 3.85.05.1v.05l-.75.75-.1.2m-1.35-7.8Q0 16.75 0 15.7q0-2.15 3.35-4.85 2.85-2.3 6.6-3.9 3.6-1.55 5.7-2.85l3.75-2.8q.75 2.15 2.4 4.1l3.4 3.65h.05l3.7 2.45q2.8 1.8 2.9 2.35 0 4.35-1.7 9.75l-.4 1.15q-2.1 5.6-5.15 5.65l-2.4-.3-5.6-1.05-7.55-1.5q-1.95-.4-3.4-1.2-1.55-.95-2.05-2.2l-.35-3.85q-.4-2.65-2.2-2.8H.8l-.15.05M28.7 17l-2.65-.55Q24 15.8 24 14.55q0-.9.65-1.8l.7-.95-8.2 1.25q-4 1.2-7.95 5.5l1.1 4.25q.55.85 2.7 1.7 2.15.85 5.8.5t6.1-2.9q1.45-1.5 3.8-5.1" fill="#2c2722"/><path d="M19.95.5h.15l5.6.45q2.55 3.15 7.6 7.3 3.65 3.05 3.65 7.7 0 3.15-1.1 6.3Q34.5 26 32.65 26l-1.45-.25-.85-.35.55-1.55q1.75-5.55 1.75-10 .1-.85-3.25-3L25.8 8.5l-3.35-3.6h-.05Q20.65 2.8 19.95.5m2.1 30.4q-.8 3.5-1.75 3.5-18.75 0-18.75-7.75 0-.75.45-1.3l.1-.2.75-.75q.55 1.55 2.4 2.65 1.55.9 3.7 1.3l7.5 1.5 5.6 1.05" fill="#150400"/></g><g id="m" fill-rule="evenodd"><path d="m14.65 20.1-1.2.85q-1.25.65-3.5.65l-2.05-.25-.4-.15-1.95-.95q-1.55-1-2.05-2.1l.15-.7q.4-1.9.75-2.7.7-1.55 2.4-2.75.5-.4 3.25-1.7L12 9.4l.15-.05q1.9 1.6 2.25 4.85l.25 5.9" fill="#fffefe"/><path d="m12.15 9.35.2-.05q.7-.45 1.95-1l2.55-1.15q3.6-1.55 4.95-1.85l5.05-.35q2.3.4 2.3 1.3 0 1.65-5.6 6.95-5.45 5-8.65 6.65l-.25.25-.25-5.9q-.35-3.25-2.25-4.85" fill="#cfb3a5"/><path d="M12.15 9.35 12 9.4l-1.95.9Q7.3 11.6 6.8 12q-1.7 1.2-2.4 2.75-.35.8-.75 2.7l-.15.7q.5 1.1 2.05 2.1l1.95.95.4.15 2.05.25q2.25 0 3.5-.65l1.2-.85.25-.25q3.2-1.65 8.65-6.65 5.6-5.3 5.6-6.95 0-.9-2.3-1.3l-5.05.35q-1.35.3-4.95 1.85L14.3 8.3q-1.25.55-1.95 1l-.2.05M.9 19.6Q0 18.4 0 16.45q0-3.9 2.05-5.8 2-1.9 8.4-5.15l4.1-1.9q1.3-.6 3.1-1.35Q21.95.6 23.5.3l3.05-.3 2.9.35q2.7.7 3.1 4.35.25 2.45-2.6 5.8l-3.6 3.6q-5.7 4.9-10.8 7.7-8.25 4.25-13.6-.95L.9 19.6" fill="#150400"/></g><g id="n" fill-rule="evenodd"><path d="m95.15 43.15.65-5.85Q90.4 12.2 78.9 5.1l-.25-.1q.4 9-9.9 18.8l-.05.05q-13.35 15.5-10.65 28.4l.05.2-.05.3q-.1.1-.25.15l-.3-.05-.2-.25-.05-.4-.05-.05-.05-.4q-1.9-10.35 6.2-22.25 1.9-2.9 4.45-5.8Q60 21 49.6 25.4h-.25q-4.9-1.3-11.75 1.65-5.6 2.4-12.45 7.7l-.3.05h-.05v.1l-.2.2-.05.25q-4.05 5.95-5.75 12.8v.05q-.65 2.5-.95 5.1l-.3 3.75v4.45l-.05.25.05.2v.2l.05.25.3 3.55q1.45 10.75 9.25 18.1l3.1 2.65V76l.15-.25v-.05l-.6-2.15-.8-4.25.1-.3q.1-.15.25-.15l.3.1.15.25q.85 6.85 3.8 11.3 1.4 2.2 3.35 3.85 3 2.5 7.15 3.65l1.05.3.35-1.65 2.2-10.4L48 75q-.4-2.1-.2-5 0-.2.15-.3.1-.1.3-.1l.25.15.1.3q-.2 2.8.2 4.9.5 2.75 2.05 4L55.8 72l-.95-1.55v-.3l.15-.25h.3l.25.15.95 1.65.1.1q4.7 7.4 11.2 9.45l.95.3 3.1-7.3q-2.9-3.45-5.25-8.05v-.3l.2-.25h.3l.2.2q2.35 4.6 5.25 8.05l.15.15 1.6 1.75q5.85 6.05 13.8 7.75l.05.05 3 .45.35-1.5.4-2q1.7-10.15-.65-23.1l-.65 1.1-1.55 2.2-.3.15-.3-.05-.15-.3.1-.3 2.7-4.2.05-.05 1.8-4.05 1.25-4.1v-.15l.95-4.55m-20.4-5.45-.6-.5-.1-.2.05-.25L78.3 30v-.05q1.6-2.95 2.2-5.5l.2-1.15.1-1.6v-3.35l-.1-.1-.15-.25v-.05l.15-.25.25-.15h.25q.15 0 .3.15l.1.25v3.75q0 2-.75 4.35l-1.8 4.25-.05.05-3.85 6.3-.15.25.1.05.55.1h2.15l.2.15.1.2-.05.25Q77 39.7 75.35 43.7v.05q-1.5 3.2-3.15 4.8l.3.45.35.95-.45 1.6v.05l-.6.95-.2.55-.2.2-.3.05-.25-.2v-.3l.35-.85.55-.85h-.05l.35-1.2-.2-.5-.5-.85v-.25l.1-.2q1.6-1.5 3.15-4.75l2.5-5.55h-1.45l-.9-.15M76.7 0q8.6 2.6 15.25 13 9.5 17.45 7.25 34 6.95 12.5 4 26l-7.25 13.75-9.45-.55q-5.75 5.85-13.25 9.5-8.75 4.25-19.95 5.45l-.6.05q-6.7.65-14.25.25-7.6-.5-10.6-4.8-1.4-2-1.8-4.85l-3.15-5.3q-10.2-11.35-9.25-22.75l-6.5-6Q-.2 45.65.15 33.5q-1.1-12 5.4-10.5l18.2 7.35Q29.5 23.7 40.2 21q8.5-1.95 10.25 0 8.5-3.35 17-2.25Q71.55 16.2 74.7 7q-1.7-3.95 2-7m21.15 56.65q-1.2-3.65-3.1-7.7l-1.1 3.35-1.75 4q2.65 14.3.6 25.2l-.4 1.95-.15.65.55-.1q3.45-.9 6.5-9.25 2-5.75.1-13.75l-1.25-4.35M73.1 94.85q6.9-3.4 12.3-8.7l1.85-1.95q-6.9-1.7-12.25-6.6l-2.55-2.65-3.1 7.2-.2.2-.3.05-1-.25q-6.75-1.95-11.6-9.4l-4.95 7q-.1.1-.25.15l-.3-.05q-1.05-.65-1.7-1.8l-.6-1.3-.65 3.2-1.45 6.7-.5 2.2-.15.25-.3.05-.5-.1q-5.5-1.25-9.15-4.65-1.75-1.65-3.1-3.8l-1.6-3.15V87.5l-.1.3-.25.1-.25-.05-3.3-2.7q-1.3 7.15 1.35 11.05 2.85 4 10 4.45 7.4.4 14-.25l1-.1q11-1.25 19.6-5.45m-58.2-63.3-9.6-3.6Q3.35 51.4 16.75 61.25V56.8q.1-2.75.55-5.35l.65-3.15Q12.2 44.65 8.8 38.1L7.4 35l-.2-.5-.4-1.1v-.3q.05-.15.25-.2h.3l.2.25q.9 2.7 2.15 5 3.2 5.95 8.45 9.35 1.7-6.7 5.7-12.55l-8.95-3.4" fill="#7c4220"/><path d="M37.6 40.2q-3.9 3.65-6.55 6.6-5.4 5.9-5.7 12.15l-1.4-3.75-.1-3.5q0-3.45.15-4.4.3-2.2 1.6-4.1-.5.2-1.1.7L23 45.2l2.6-4.4q2.85-4.3 5.1-5.75l-1.25 2.5q2-2.2 4.6-4.2 3.65-2.85 6-3.3-1.95 1.65-4.3 4.7-3.3 4.4-4.45 7.25 1.05-.7 3.7-1.3l2.6-.5m5.1-3.55q2.05-2.85 4.05-3.7l-2.2 3.6q-1.05 1.6-3.25 2.25.5-.95 1.4-2.15m7.7 8.95-1.15-3.3-.75-2.6q.75-1.1 2-2.45 1.65-1.75 2.95-2.75L50.4 45.6" fill="#fff8e1"/><path d="M58.05 52.25q-2.7-12.9 10.65-28.4l.05-.05Q79.05 14 78.65 5l.25.1q11.5 7.1 16.9 32.2l-.65 5.85q-1.6 1.85-4.2 3.55l-5.25 3.25h-.5l3.75-6.9q2.5-5.15 2.5-8.1 0-7.7-3.2-12.4-5.1-8.75-7.8-9.5l.1 4.65v.3l.25 3.45v.25l-.1 1.6-.2 1.15q-.6 2.55-2.2 5.5V30l-4.2 6.75-.05.25.1.2.6.5q-3.95 8.35-8.3 12.25l-.2-2.45-2.3 2.6q-2.6 2.6-4.4 2.6l-1.3-.35-.2-.1M44.1 88q-4.15-1.15-7.15-3.65Q35 82.7 33.6 80.5q-2.95-4.45-3.8-11.3l-.15-.25-.3-.1v-.4l.1-1.5-1.3 3q-2.85 7-2.3 9.75h-.5q-3.2-5.25-5.05-14.1l-1.6-8.45-.85-3.85q.3-2.6.95-5.1v-.05q1.7-6.85 5.75-12.8l.05-.25.2-.2v-.1h.05l.3-.05q6.85-5.3 12.45-7.7l1.2-.2 3.75-.4 4.6.1.35.05.5.1 3.9-1.15 5.3-.85q1 0 3.65.75L58.3 27.9l-2.45 2.7 3.25-.8 2.05-.35q-5.35 6.1-7.2 12.55-.95 3.25-2.2 14.95-.9-1.25-2.05-3.7l-1.45-3.5-2.1 6.9Q43.9 64 44.2 66.3l-.1-.05-.15-.05-2.8-5.65q-1.7-3.75-2.1-6.7-1.45 1.5-2.8 7.3-1.35 5.75-.9 11 .45 5.2 1.6 6.75L44.1 88m6.3-42.4 3.05-11.1q-1.3 1-2.95 2.75-1.25 1.35-2 2.45l.75 2.6 1.15 3.3m-7.7-8.95q-.9 1.2-1.4 2.15 2.2-.65 3.25-2.25l2.2-3.6q-2 .85-4.05 3.7m-5.1 3.55-2.6.5q-2.65.6-3.7 1.3 1.15-2.85 4.45-7.25 2.35-3.05 4.3-4.7-2.35.45-6 3.3-2.6 2-4.6 4.2l1.25-2.5q-2.25 1.45-5.1 5.75L23 45.2l1.5-1.3q.6-.5 1.1-.7-1.3 1.9-1.6 4.1-.15.95-.15 4.4l.1 3.5 1.4 3.75q.3-6.25 5.7-12.15 2.65-2.95 6.55-6.6m-22.7-8.65q.75 1 2.15 2l4.3 2.65Q17.9 39.45 14 39.45q-.85 0-2.45-.6l-1.85-.7q-1.25-2.3-2.15-5l-.2-.25h-.3q-.2.05-.25.2v.3l.4 1.1.2.5q.2 3.3 2 7.1 1.4 2.95 3.3 5.15L11 46.7l-1.55-.35q.7 3.65 3.15 6.9 2 2.6 4.15 3.55v4.45Q3.35 51.4 5.3 27.95l9.6 3.6M64.05 70.1l-1.7 1.95-2.9-4.6-1.7-2.95q1.15.65 6.3 5.6" fill="#f3e395"/><path d="m95.15 43.15-.95 4.55v.15l-1.25 4.1-1.8 4.05-.05.05-2.7 4.2q-.65.45-.7.2l-2.65-2.65L82.8 56q-1.1-.75-1.95-1l1.3-2.25 1.8-4.55q2-5.7 2-10.1 0-3.25-1.55-8.75-.9-3.2-2.8-8.45v-2.95l-.1-.25q-.15-.15-.3-.15h-.25l-.25.15h-.15l-.1-4.65q2.7.75 7.8 9.5 3.2 4.7 3.2 12.4 0 2.95-2.5 8.1l-3.75 6.9h.5l5.25-3.25q2.6-1.7 4.2-3.55M67.8 81.25q-6.5-2.05-11.2-9.45l-.1-.1-.95-1.65-.25-.15H55l-.15.25v.3L55.8 72l-4.95 6.95q-1.55-1.25-2.05-4-.4-2.1-.2-4.9l-.1-.3-.25-.15q-.2 0-.3.1-.15.1-.15.3-.2 2.9.2 5l-.3 1.25-1.9-3.1-2.45-4q-.25.65-.35 1.65l-.05 3.15q0 4.75.65 7.65.6 2.55 1.9 5.05l-.35 1.65-1.05-.3-7.15-9.1q-1.15-1.55-1.6-6.75-.45-5.25.9-11 1.35-5.8 2.8-7.3.4 2.95 2.1 6.7l2.8 5.65.15.05.1.15v-.1q-.3-2.3 1.95-9.65l2.1-6.9 1.45 3.5q1.15 2.45 2.05 3.7Q53 45.25 53.95 42q1.85-6.45 7.2-12.55l-2.05.35-3.25.8 2.45-2.7 2.55-2.45q-2.65-.75-3.65-.75l-5.3.85L48 26.7l-.5-.1-.35-.05-4.6-.1-3.75.4-1.2.2q6.85-2.95 11.75-1.65h.25Q60 21 67.8 23.7q-2.55 2.9-4.45 5.8-8.1 11.9-6.2 22.25l.05.4v.05h.05l.05.4.2.25.3.05q.15-.05.25-.15l.05-.3-.05-.2.2.1 1.3.35q1.8 0 4.4-2.6l2.3-2.6.2 2.45q4.35-3.9 8.3-12.25l.9.15h1.45l-2.5 5.55q-1.55 3.25-3.15 4.75l-.1.2v.25l.5.85.2.5-.35 1.2h.05l-.55.85-.35.85v.3l.25.2.3-.05.2-.2.2-.55q1.25.15 2.65 1.2l1.05.6q1.75 1.65 4.15 6.15 2.2 4.25 2.7 7.1-1.95-2.15-4.3-3.95-.75-.6-6.85-4.7-1.35-.9-4.1-1.35l-4.65-.65q-3.65-.65-4.75-2.8 2 4.9 6.05 12.3l1.1 2.6q2.35 5.9 2.95 12.2m-38.45-12.4q-.15 0-.25.15l-.1.3.8 4.25.6 2.15v.05l-.15.25v10.7l-3.1-2.65q-7.8-7.35-9.25-18.1l-.3-3.55-.05-.25v-.2l-.05-.2.05-.25v-4.45l.3-3.75.85 3.85 1.6 8.45q1.85 8.85 5.05 14.1h.5q-.55-2.75 2.3-9.75l1.3-3-.1 1.5v.4m34.7 1.25q-5.15-4.95-6.3-5.6l1.7 2.95 2.9 4.6 1.7-1.95M9.7 38.15l1.85.7q1.6.6 2.45.6 3.9 0 7.35-3.25l-4.3-2.65q-1.4-1-2.15-2l8.95 3.4q-4 5.85-5.7 12.55-5.25-3.4-8.45-9.35m7.05 18.65q-2.15-.95-4.15-3.55-2.45-3.25-3.15-6.9l1.55.35 1.7.55q-1.9-2.2-3.3-5.15-1.8-3.8-2-7.1l1.4 3.1q3.4 6.55 9.15 10.2l-.65 3.15q-.45 2.6-.55 5.35" fill="#dfbe59"/><path d="m47.7 76.25-2.2 10.4q-1.3-2.5-1.9-5.05-.65-2.9-.65-7.65L43 70.8q.1-1 .35-1.65l2.45 4 1.9 3.1m33.15-50.2q.75-2.35.75-4.35v-.8q1.9 5.25 2.8 8.45 1.55 5.5 1.55 8.75 0 4.4-2 10.1l-1.8 4.55-1.3 2.25-1.45-1.3.8-1q1.25-1.8 1.25-3.35l-.3-2.25q2.55-3.25 2.55-5.5 0-1.7-.95-2.2l-2-.6v-.05l.45-2.5.5-3.55-.1-4.05-.75-2.6" fill="#cd9d48"/><path d="m88.4 60.25-.1.3.15.3.3.05.3-.15 1.55-2.2.65-1.1q2.35 12.95.65 23.1-2.15-6.25-3.95-12.6-.6-2.05-2.75-6.2-1.6-3.05-2.4-5.75l2.25 1.8 2.65 2.65q.05.25.7-.2m3.1 22.3-.35 1.5-3-.45-.05-.05q-7.95-1.7-13.8-7.75l-1.5-4-2.65-7.9q2.55 1.55 6.15 4.35l6.65 5.2q3.55 2.7 5.65 5.15l2.9 3.95m-10.65-56.5.75 2.6.1 4.05-.5 3.55-.45 2.5v.05l2 .6q.95.5.95 2.2 0 2.25-2.55 5.5l.3 2.25q0 1.55-1.25 3.35l-.8 1q-1.1 1.25-2.15 1.15-.9-.05-1.75-.5l-1.05-.6q-1.4-1.05-2.65-1.2l.6-.95v-.05l.45-1.6-.35-.95-.3-.45q1.65-1.6 3.15-4.8v-.05q1.65-4 2.7-6.05l.05-.25-.1-.2-.2-.15h-2.15l-.55-.1.05-.3 3.85-6.3.05-.05 1.8-4.25m12.8 26.25 2.75 2.3 1.45 2.05L99.1 61q1.9 8-.1 13.75-3.05 8.35-6.5 9.25l-.4-.55.4-1.95q2.05-10.9-.6-25.2l1.75-4" fill="#9a6642"/><path d="m91.9 80.55-.4 2-2.9-3.95q-2.1-2.45-5.65-5.15l-6.65-5.2q-3.6-2.8-6.15-4.35l2.65 7.9 1.5 4-1.6-1.75-.15-.15q-2.9-3.45-5.25-8.05l-.2-.2h-.3l-.2.25v.3q2.35 4.6 5.25 8.05l-3.1 7.3-.95-.3q-.6-6.3-2.95-12.2l-1.1-2.6q-4.05-7.4-6.05-12.3 1.1 2.15 4.75 2.8l4.65.65q2.75.45 4.1 1.35 6.1 4.1 6.85 4.7 2.35 1.8 4.3 3.95-.5-2.85-2.7-7.1-2.4-4.5-4.15-6.15.85.45 1.75.5 1.05.1 2.15-1.15l1.45 1.3q.85.25 1.95 1 .8 2.7 2.4 5.75 2.15 4.15 2.75 6.2 1.8 6.35 3.95 12.6" fill="#cd9a47"/><path d="M97.85 56.65 96.4 54.6l-2.75-2.3 1.1-3.35q1.9 4.05 3.1 7.7" fill="#c99846"/><path d="M51.05 79.9q.15-.05.25-.15l4.95-7q4.85 7.45 11.6 9.4l1 .25.3-.05.2-.2 3.1-7.2L75 77.6q5.35 4.9 12.25 6.6l-1.85 1.95q-5.4 5.3-12.3 8.7-.6-3.45-1.85-6.6-1.3-3.2-6-3.75l-4.6-1.25h-.05l-3-1.05q-1.35-2.35-5.55-2.25h-1.1l.1-.05" fill="#ab7664"/><path d="M73.1 94.85q-8.6 4.2-19.6 5.45 1.2-5.5 3.1-9.25l4-7.8h.05l4.6 1.25q4.7.55 6 3.75 1.25 3.15 1.85 6.6" fill="#cfb2a6"/><path d="m53.5 100.3-1 .1q-.85-3-2.25-6.3-2.3-5.5-3.9-7.45l1.45-6.7h4.25q4.2-.1 5.55 2.25l3 1.05-4 7.8q-1.9 3.75-3.1 9.25" fill="#efe6d8"/><path d="M52.5 100.4q-6.6.65-14 .25-7.15-.45-10-4.45-2.65-3.9-1.35-11.05l3.3 2.7.25.05.25-.1.1-.3v-2.3q.85-.75 2.35-.85l2.35.05q3.65 3.4 9.15 4.65l.5.1.3-.05.15-.25.5-2.2q1.6 1.95 3.9 7.45 1.4 3.3 2.25 6.3m-14.3-8.1q1-.95 3.25-2l-6.9-.25 3.6 2.3.05-.05" fill="#fefdfd"/><path d="M31.05 80.7v-3.25l1.6 3.15-1.6.1m16.75-.75.65-3.2.6 1.3q.65 1.15 1.7 1.8l-.05.1h-2.9" fill="#b1806a"/><path d="M31.05 85.2v-4.5l1.6-.1q1.35 2.15 3.1 3.8l-2.35-.05q-1.5.1-2.35.85" fill="#f0e7da"/><path d="m38.2 92.3-.05.05-3.6-2.3 6.9.25q-2.25 1.05-3.25 2m22.95-11q-.05-1.7-.5-3.7l-2.1-1.85-9.65 9.3q1.35 2.85 4.15 3.4l.55.1 3.6-.4 1.15-.6.25-.15.4-.3.35-.35.65-.8.25-.35.2-.45.2-.4.45-1.9v-.35l.05-1.2m3.75.1-3.1-2.75q.35 2.4 0 5.65-1.5 2.65-2.6 3.75 5.15-2.15 5.7-6.65m.35-1.2q1.35 5.15-4.45 8-9.05 4.4-14.6-2.15 6.25-4.8 12.3-11.4 3.45 3.9 6.75 5.55m-17 5-.8.75q1.7 2.45 3.6 2.35-1.85-.75-2.8-3.1" fill="#170400"/><path d="m55.8 84.5-.55.15q-.4 0-.7-.3-.3-.3-.3-.7 0-.4.3-.7.3-.3.7-.3l.7.3.3.55q-.15.05 0 .2l-.3.65-.15.15" fill="#00374f"/><path d="m60.6 81.25-.15-.95-.45-.4-.55-.1-.95-.85q-.85 2.2-2.35 2.2l-.85-.1q-.85 0-1.25.35-.4.3-.45 1.15v.25l-.1.5v.15q0 .9.65 1.55.5.55 1.2.6l-1.05.1-.65-.2-.4-.2-.4-.25h-.05l-1.2 1.2h-.05l.05.1.45 1.1 1 1q-2.8-.55-4.15-3.4l9.65-9.3 2.1 1.85q.45 2 .5 3.7l-.55-.05" fill="#000722"/><path d="m59 87.1-.35.05q-.6 0-1.1-.45-.55-.5-.55-1.2 0-.85.8-1.55.75-.65 1.65-.65.8 0 .8 1.7l-.1.55-.15.4-.65.8-.35.35" fill="#67f3ff"/><path d="m58.5 82.8-.5-.3q-.25-.25-.25-.65t.25-.7q.3-.25.7-.25l.65.25.25.4.05.05v.25l-.05.4-.25.25v.05l-.05.05-.6.2h-.2" fill="#e3f6fd"/><path d="m53.5 83.3.1-.5v-.25q.05-.85.45-1.15.4-.35 1.25-.35l.85.1q1.5 0 2.35-2.2l.95.85.55.1.45.4.15.95q-.4 0-1 .3l-.25-.4-.65-.25q-.4 0-.7.25-.25.3-.25.7 0 .4.25.65l.5.3-.2.05-.6.2q-.4 0-.7-.5-.3-.55-1.5-.55-.45 0-.5.15l-.5.6-1 .55" fill="#003760"/><path d="m53.05 88.45-1-1-.45-1.1-.05-.1h.05l1.2-1.2h.05l.4.25.4.2-.1.3.6.95.8.7 2.3.3 1.1-.2-1.15.6-3.6.4-.55-.1" fill="#004079"/><path d="M48.25 85.2q.95 2.35 2.8 3.1-1.9.1-3.6-2.35l.8-.75" fill="#dff4fa"/><path d="m60.8 81.9.3.6v.35l-.45 1.9-.2-1.25-.5-.5-.6-.45v-.05l.25-.25h.3l.9-.35" fill="#005cb2"/><path d="m53.65 85.5.65.2 1.05-.1q-.7-.05-1.2-.6-.65-.65-.65-1.55v-.15l1-.55.5-.6q.05-.15.5-.15 1.2 0 1.5.55.3.5.7.5l.6-.2.2-.05h.2l.6-.2.05-.05.6.45.5.5.2 1.25-.2.4-.2.45-.1-.05.1-.55q0-1.7-.8-1.7-.9 0-1.65.65-.8.7-.8 1.55 0 .7.55 1.2.5.45 1.1.45l.35-.05-.4.3-.25.15-1.1.2-2.3-.3-.8-.7-.6-.95.1-.3m2.6-2-.3-.55-.7-.3q-.4 0-.7.3-.3.3-.3.7 0 .4.3.7.3.3.7.3l.55-.15.2.05.55-.25.45-.55q0-.3-.35-.3l-.4.05" fill="#0095f7"/><path d="M59.6 81.55q.6-.3 1-.3l.1.35.1.3-.9.35h-.3l.05-.4v-.25l-.05-.05m-3.35 1.95.4-.05q.35 0 .35.3l-.45.55-.55.25-.2-.05.15-.15.3-.65v-.2" fill="#42eaff"/><path d="m60.6 81.25.55.05-.05 1.2-.3-.6-.1-.3-.1-.35" fill="#000922"/><path d="M64.9 81.4q-.55 4.5-5.7 6.65 1.1-1.1 2.6-3.75.35-3.25 0-5.65l3.1 2.75" fill="#e5f7fd"/><path d="M29.55 105.9 24.8 102l.8-1.05 6.3 3.2h.85l-.35 1.3-.15.6-2.7-.15m-4.9-9.25q-1.6-2.6-2.5-6.25l3.25-1.9q-.6 3.3 4.2 5.3l5.45 2.45q5.05.65 12.35 0l2.95-.45q5-.95 10.9-2.7l-7.45 4.05-1.05.25-13.85 3.35q-12.1-5.85-14.25-4.1" fill="#c0071c"/><path d="m25.6 100.95.8-1.05 1.75.65q-2.05-1.5-3.5-3.9 2.15-1.75 14.25 4.1l13.85-3.35-2.35 2.6-6.3 1.8-3.05 2.05-3.65-.35 2 .55-6.65.1h-.85l-6.3-3.2" fill="#750002"/><path d="m61.25 93.1 6.7-2.2.75-.45q7.2-4.4 11.85-8.8l2.3 1.25-18.7 18.5-14.5 5.5-17.4-.85.15-.6.35-1.3 6.65-.1q8.2 1.85 16.7-2.7-7.95 2.7-15.05 2.5l3.05-2.05 6.3-1.8 2.35-2.6 1.05-.25 7.45-4.05" fill="#3f0000"/><path d="m29.55 105.9-.4 2.75-1.6.85-6.65-5.25v-4.5l-3.1-6.5v-5q3-3.35 6.85-4.6l2.65 2q-1.75 3.55 1.6 5.75 5.75 3.15 12.4 4Q69 92.45 80.55 80.15l3 2-.7.75-2.3-1.25q-4.65 4.4-11.85 8.8l-.75.45-6.7 2.2q-5.9 1.75-10.9 2.7l-2.95.45q-7.3.65-12.35 0L29.6 93.8q-4.8-2-4.2-5.3l-3.25 1.9q.9 3.65 2.5 6.25 1.45 2.4 3.5 3.9l-1.75-.65-.8 1.05-.8 1.05 4.75 3.9m11.5-2.05q7.1.2 15.05-2.5-8.5 4.55-16.7 2.7l-2-.55 3.65.35" fill="#150400"/></g><g id="o" fill-rule="evenodd"><path d="M58.05 13.9Q62.2 11.05 72.4 6l-5.55-.8-8.3-.8q-3.65 0-6.65 1.35Q49.2 7 46.15 9.6l1.4-.2.85.05 2.9.1q2.3.05-.5.45l-3.05.4-12.8 1.65h-.05l-5.05.8q-4.25.85-7.35 2.25-.7.3-1.35.65L12.2 20.6q-1.95 1.1-2.85 1.75-4.95 3.45-7.15 8.3l-.65 3.8-.4 3.45q.1 1.65 3.7 1.85l5.4-.05h.1L22 41.2l6.1-.3 7.95-3.7 2.55-1.15.1-.05h.05l3.55-2.05q2.65-1.9 3.85-4.9l.1-.2q3.25-8.65 11-14.4l.8-.55M2.3 46.7Q-.05 44.15 0 43.6v-.05l.5-3.35.15-.35q.15-.15.35-.15-.9-.7-.85-1.8 0-1.35.4-3.6l.65-3.8.05-.15q2.3-5.15 7.55-8.8h-.05l3.6-2.2 8.35-4.5q1.05-.55 2.25-1 3-1.25 7-2.05l4.85-.75 9.75-1.25.2-.25q3.6-3.3 6.75-4.7 3.2-1.45 7.05-1.45h.05l8.35.8 6.75 1.1.2.1.15.15.15.3-.05.3-.2.2q-7.85 3.85-12.3 6.45l-.3.2q-2.2 1.25-3.5 2.25-7.4 5.45-10.55 13.65l-.1.3q-1.35 3.4-4.3 5.55l-3.05 1.8 1.55 1.8.7.85 2.9 3.05.4.35q2.65 2.4 3.55 3.85.8 1.4 4.7 6.45l4.45 6 .05.25-.1.3-.2.2h-.3q-15.1-3.6-20.3-4.55Q29 53.65 20.4 53.65h-6.6l-4.15-.55q-1.4-.4-2-1v.05L3.55 48 2.3 46.7m38.95-6.95-.65-.8L38.9 37l-2.45 1.1h.05l-8.05 3.75h-.05l-6.4.35-11.8-1.5-5.4.05q-2.2-.15-3.3-.7v.15L1 43.65q.1.35 1.65 1.95l1.6 1.7 4.1 4.1q.8.7 3.05 1.05l2.4.2h6.6l6.1.2h.3l10.65 1.25q5 .9 19.05 4.3l-3.65-4.9-4.75-6.55q-.85-1.35-3.35-3.6h-.05l-.55-.55-2.9-3.05" fill="#170400"/><path d="M22.5 15.1q3.1-1.4 7.35-2.25l5.05-.8h.05l12.8-1.65 3.05-.4q2.8-.4.5-.45l-2.9-.1-.85-.05-1.4.2Q49.2 7 51.9 5.75q3-1.35 6.65-1.35l8.3.8 5.55.8q-10.2 5.05-14.35 7.9-2.65.8-5.45 2-5.7 2.45-10.85 3.9-7.85 2.25-18.6 4.7l-8.55 1.95q1.6-2.65 3.9-5.5 2.65-3.2 4-5.85" fill="#ab0618"/><path d="m58.05 13.9-.8.55q-7.75 5.75-11 14.4l-.1.2q-4.05.7-12.4 2.75-9.8 2.45-11.15 2.45-2.75 0-8-2.45-5.7-2.9-7.95-3.75l2.05-1.6 1.85-2q.65-.75 1.2-2.45l.45-1.4 8.95-4.85q.65-.35 1.35-.65-1.35 2.65-4 5.85-2.3 2.85-3.9 5.5l8.55-1.95q10.75-2.45 18.6-4.7 5.15-1.45 10.85-3.9 2.8-1.2 5.45-2" fill="#5e0002"/><path d="M46.15 29.05q-1.2 3-3.85 4.9L38.75 36h-.05l-.1.05-2.55 1.15-7.95 3.7-6.1.3-11.65-1.5h-.1l-5.4.05q-3.6-.2-3.7-1.85l.4-3.45.65-3.8q2.2-4.85 7.15-8.3.9-.65 2.85-1.75l-.45 1.4q-.55 1.7-1.2 2.45l-1.85 2-2.05 1.6q2.25.85 7.95 3.75 5.25 2.45 8 2.45 1.35 0 11.15-2.45 8.35-2.05 12.4-2.75M11.4 52.45q-2.25-.35-3.05-1.05l-4.1-4.1-1.6-1.7Q1.1 44 1 43.65l.5-3.45v-.15q1.1.55 3.3.7l5.4-.05L22 42.2l6.4-.35h.05l8.05-3.75h-.05L38.9 37l1.7 1.95.65.8L28.4 46.2q-3.25 1.6-17 6.25" fill="#3a0000"/><path d="m41.25 39.75 2.9 3.05q-7.5 4.75-17.35 10.05h-.3l-6.1-.2h-6.6l-2.4-.2q13.75-4.65 17-6.25l12.85-6.45" fill="#520004"/><path d="m44.15 42.8.55.55h.05q2.5 2.25 3.35 3.6l4.75 6.55 3.65 4.9Q42.45 55 37.45 54.1L26.8 52.85q9.85-5.3 17.35-10.05" fill="#920216"/><path d="m29.95 11.8.8-3.5.05-.1 5.4-.8q3.65-.4 5.3-1.25l7.7-4.2q1.7-.8 3.7-1.45l1.15-.15 3.9-.35Q65.2 0 71.4 1.3q7.9 1.6 7.9 4.4 0 2.45-4.05 4.5-4.6 1.85-5.85 2.45l-6.5 3.05q-3.55 1.75-4.65 3.5-4.3 6.75-7.5 10.9-3.25 4.2-6.5 7.35 3 2.45 10.3 11.75 8.65 10.25 8.65 12.85 0 1.9-1.65 2.45l-2.75.5-1.2-.75-3.55-2.45q-4.1-2.3-8.4-2.85l-5.45-.6-5.2-.6-4-1-2.25-.85-1.05.05-9.7.2-5.15-.15-2.55-.2-2.15.2-1.95.15q-1.2 0-2.55-3.25-.85-2.1-1.35-4.4v-1.8L3.55 48l4.1 4.15v-.05q.6.6 2 1l4.15.55h6.6q8.6 0 16.85 1.45 5.2.95 20.3 4.55h.3l.2-.2.1-.3-.05-.25-4.45-6q-3.9-5.05-4.7-6.45-.9-1.45-3.55-3.85l-.4-.35-2.9-3.05-.7-.85-1.55-1.8 3.05-1.8q2.95-2.15 4.3-5.55l.1-.3q3.15-8.2 10.55-13.65 1.3-1 3.5-2.25l.3-.2q4.45-2.6 12.3-6.45l.2-.2.05-.3-.15-.3-.15-.15-.2-.1-6.75-1.1-8.35-.8h-.05q-3.85 0-7.05 1.45-3.15 1.4-6.75 4.7l-.2.25-9.75 1.25-4.85.75" fill="#150400"/></g><g id="p" fill-rule="evenodd"><path d="m6.7 19.35-.8-1.55-.6-.95-.05-.1-.15-.2-.1-.3.2-.25q.1-.1.3-.1l.25.2.15.25.8 1.3 1.1 2.1q1.15 1.8 3.05 1.8h1.25l3.95-.8 4.8-1.55 2.9-1.55.75-.45 2.3-1.4h.05q1.35-.85 1.65-.95h.3l.25.2v.3l-.2.25q-.3.1-1.7.95L24.9 17.9l-.5.3.85 3.6.5 3.35q0 3-1.35 5.5l-2 2.7q-3.45 3.6-8.4 3.6l-2.9-.35v-.05q-.5-.2-.75-.55l-1.1.4-1.7.35q-2 0-3.3-.95-1.5-1.15-1.5-3.05 0-1 .25-1.85.8-2.8 4.15-4.3l2.8-1.3H9.9l.95-1 .15-.65-.1-.5-.05-.05-.7-.8q-1.8-.25-3-2.1l-.05-.05-.4-.8m16.85 11.2q1.4-2.45 1.4-5.4l-.5-3.2-.75-3.35-2.5 1.3-.05.05-4.9 1.55-4.9.9h-.05l.05.1q.45.25.45 1.15 0 .75-.4 1.4l-1.1.95-2.6 1.25-.1.05-.1.05q-3.35 1.5-3.85 4.35l-.1 1.05q0 1.5 1.2 2.4 1.1.8 2.8.8l1.4-.3 1.05-.4-.2-1.1.05-.6q.15-1 .85-2.15.75-1.2 1.65-1.9l.2-.15.25-.1.3.2v.05l.05.2-.15.3q-.9.65-1.6 1.8-.8 1.3-.8 2.35l.05.45.25.7.05.1.5.45 2.55.3q4.55 0 7.8-3.35h.05l1.7-2.25" fill="#120200"/><path d="m10.65 34.6-.05-.45q0-1.05.8-2.35.7-1.15 1.6-1.8l.15-.3.1-.2q.55.15.95.85.5.75.5 1.55 0 1.35-.8 2.25-.9 1-2.35 1-.4 0-.9-.55m-7-2.9q.5-2.85 3.85-4.35l.1-.05.1-.05q1.3 1.1 1.3 1.6 0 1.2-1.6 2.5-1.55 1.25-2.75 1.25-.45 0-.85-.6l-.15-.3" fill="#574b44"/><path d="m11.35 22.4 4.9-.9 4.9-1.55.05-.05 2.5-1.3.75 3.35.5 3.2q0 2.95-1.4 5.4-1.15-.3-1.8-1.2l-1.1-2.7q-2.2 1.15-4.2 1.15-3.05 0-5.05-2.75.4-.65.4-1.4 0-.9-.45-1.15v-.1" fill="#98615b"/><path d="m12.65 15.65 2.05-.25 4.2-.2q-.35 1.7-3.25 3.95l-3.55 2.4h-1.25q-1.9 0-3.05-1.8l-1.1-2.1h.2q1 .7 1.95.7 1.5 0 2.65-1.1l1.15-1.6" fill="#5c4c45"/><path d="M5.9 16.35 7 16.1l2.45-.15 3.2-.3-1.15 1.6q-1.15 1.1-2.65 1.1-.95 0-1.95-.7h-.2l-.8-1.3" fill="#988377"/><path d="M18.9 15.2h.1l7.45-.55 2.15.1-.1.1q-.3.1-1.65.95h-.05l-2.3 1.4-.75.45-2.9 1.55-4.8 1.55-3.95.8 3.55-2.4q2.9-2.25 3.25-3.95" fill="#302b24"/><path d="m27.15 16.55 1 2.35q.95 2.25 1.2 3.85l.1.3q1.15 6.05-3.15 11.9-4.55 6.2-11 6.2l-3.45-.3q-1.3-.4-2.8-1.9l-2.6.25q-2.95 0-4.7-2Q0 35.15 0 31.85q0-4.65 3.4-8.15 2.9-3.05 3.3-4.35l.4.8.05.05q1.2 1.85 3 2.1l.7.8.05.05.1.5-.15.65-.95 1h.05l-2.8 1.3Q3.8 28.1 3 30.9q-.25.85-.25 1.85 0 1.9 1.5 3.05 1.3.95 3.3.95l1.7-.35 1.1-.4q.25.35.75.55v.05l2.9.35q4.95 0 8.4-3.6l2-2.7q1.35-2.5 1.35-5.5l-.5-3.35-.85-3.6.5-.3 2.25-1.35" fill="#150400"/><path d="m23.55 30.55-1.7 2.25h-.05q-3.25 3.35-7.8 3.35l-2.55-.3-.5-.45-.05-.1-.25-.7q.5.55.9.55 1.45 0 2.35-1 .8-.9.8-2.25 0-.8-.5-1.55-.4-.7-.95-.85h-.15v-.05l-.3-.2-.25.1-.2.15q-.9.7-1.65 1.9-.7 1.15-.85 2.15l-.05.6.2 1.1-1.05.4-1.4.3q-1.7 0-2.8-.8-1.2-.9-1.2-2.4l.1-1.05.15.3q.4.6.85.6 1.2 0 2.75-1.25 1.6-1.3 1.6-2.5 0-.5-1.3-1.6L10.3 26l1.1-.95q2 2.75 5.05 2.75 2 0 4.2-1.15l1.1 2.7q.65.9 1.8 1.2" fill="#2c2622"/><path d="M28.15 14.05q.35.3.3.75l-.05.5q-.7 2.05-7.7 4.8-7 2.6-10 2.6l-.85-.05-1.2-.4q-1.6-.9-2.7-3.15-.65-1.35-1-2.75l-.15-.75-.2-2.35q-.05-1.8 1.95-4.5L8.8 6.1 14.6.15q.1-.15.25-.15l.3.15.1.25-.1.3-.55.55-4.05 4.2-.15.15-1 1.05L7.55 8.8q-2.1 2.7-2.15 4.45 0 2.1.65 4.05l.6 1.45q1.5 3.1 4.05 3.15l1.95-.2q2.85-.55 7.75-2.35 7.15-2.8 7.25-4.55l-.35-.25-.95-.25-.25-.15-.1-.3.2-.25q.1-.1.3-.1l.95.25.7.3" fill="#0e0200"/><path d="M6.05 17.3q-.65-1.95-.65-4.05.05-1.75 2.15-4.45l2.2.65q1.2.5 2.2 1.9.95 1.4.75 2.95-.2 1.55-1.2 2.8-1.05 1.25-2.45 1.25-.95 0-2.35-.7l-.65-.35" fill="#9a8377"/><path d="m12.65 21.7-1.95.2q-2.55-.05-4.05-3.15l-.6-1.45.65.35q1.4.7 2.35.7 1.4 0 2.45-1.25 1-1.25 1.2-2.8.2-1.55-.75-2.95-1-1.4-2.2-1.9l-2.2-.65L9.4 6.65l1-1.05.15-.15h.3q2.3.15 5.15 3.4 2.9 3.3 2.9 5.9 0 2.4-3.9 5.4l-2.35 1.55" fill="#5d4d46"/><path d="m28.15 14.05-.7-.3-.95-.25q-.2 0-.3.1l-.2.25.1.3.25.15.95.25.35.25q-.1 1.75-7.25 4.55-4.9 1.8-7.75 2.35L15 20.15q3.9-3 3.9-5.4 0-2.6-2.9-5.9-2.85-3.25-5.15-3.4h-.3l4.05-4.2q5.65 1.85 9.65 5.8 3.7 3.55 3.9 7" fill="#302b24"/></g><g id="q" fill-rule="evenodd"><path d="m2.9 14.15.1-1.7.1-3.05 4.55 2.05q-.9 3.4-.9 8.45 0 1.15.7 3.65l1.1 3.15q.6 1.15 2.05 2.55l2.3 1.85q-.35.9-1.4 1.7l-1.05.7-.5-.2q-2.1-.75-4.35-2.7-3.6-3.2-4.2-4.8-.6-1.6.2-4.55l.95-3.55.35-3.55" fill="#ffcf5c"/><path d="m7.65 11.45.75.3 1.95.8.2.1q.75 6.85 3.5 11.5 3.55 6 9.4 6l3.95-.5 3.95-.85-4.15 1.5q-11.65 3.45-14.8 3.45l-1.95-.25 1.05-.7q1.05-.8 1.4-1.7l-2.3-1.85q-1.45-1.4-2.05-2.55l-1.1-3.15q-.7-2.5-.7-3.65 0-5.05.9-8.45" fill="#fc7923"/><path d="M10.55 12.65Q14 14 14.95 14l3.15-.4q.7 2.1 2.15 4.4 1.7 2.75 3 3.5 1.85 1.2 4.05 1.45 3 .2 3 2l-.45 1.45.9.15 3.45-.6q2.75-.75 2.75-1.7 0-.55-1.3-2.85t-1.3-3l.5-1 .55-.95.9-.55-.55 1.8q-.4 1.35-.45 2.1l1.3-1.35L38.15 21l1.45 2.75q-2.55 2.7-5.85 4.2l-2.4.85-3.95.85-3.95.5q-5.85 0-9.4-6-2.75-4.65-3.5-11.5" fill="#a83516"/><path d="m18.1 13.6 3.2-1.2 5.3-2.75q.05-.3 2-1.85l6.85-5.45Q37.4.9 38.1.9q.35 0 .95.9l.1.15-.65 2.35-.4 2.85q0 1.65.45 2.3l-.05.1-.55 1.15-3.15 6.2.6-.45-.55.95-.5 1q0 .7 1.3 3t1.3 2.85q0 .95-2.75 1.7l-3.45.6-.9-.15.45-1.45q0-1.8-3-2-2.2-.25-4.05-1.45-1.3-.75-3-3.5-1.45-2.3-2.15-4.4m16.7 3.3-.1.05V17l.1-.1" fill="#4b2012"/><path d="m3.1 9.4-.4-.25.45-.75h.05l6.4 2.15q6.2 1.9 8.1 1.9 5.35 0 11.25-6.2l4.25-4.3Q35.55 0 37.7 0q1.05 0 2.35 1.25 1.4 1.35 1.4 2.6l-1.95 5.4q-1 2.6-1.45 4.1l-.1.25q1.65 2.55 2.2 5.15l.1.75.35 4.4q-3.45 3.4-5.25 4.45-1.8 1-4.75 2L20.85 33q-6.8 1.65-9.3 1.65-2.5-.05-6.7-3.65T.2 25.2q-.5-2.25.35-4.15l1.15-2.6 1.2-4.3-.35 3.55-.95 3.55q-.8 2.95-.2 4.55.6 1.6 4.2 4.8 2.25 1.95 4.35 2.7l.5.2 1.95.25q3.15 0 14.8-3.45l4.15-1.5 2.4-.85q3.3-1.5 5.85-4.2L38.15 21l-1.55-2.55-1.3 1.35q.05-.75.45-2.1l.55-1.8-.9.55-.6.45 3.15-6.2.55-1.15.05-.1q1.8-3.85 1.8-4.35 0-.95-.9-2.6l-.3-.55-.1-.15q-.6-.9-.95-.9-.7 0-2.65 1.45L28.6 7.8q-1.95 1.55-2 1.85l-5.3 2.75-3.2 1.2-3.15.4q-.95 0-4.4-1.35l-.2-.1-1.95-.8-.75-.3L3.1 9.4" fill="#150400"/><path d="m39.15 1.95.3.55q.9 1.65.9 2.6 0 .5-1.8 4.35-.45-.65-.45-2.3l.4-2.85.65-2.35" fill="#a53616"/></g><g id="r" fill-rule="evenodd"><path d="m2.45 20.7-.2.1-.9-3.1-1.2-5.35.3-.25q1.05.5 1.7 2.5.55 1.75.55 3.4l-.25 2.7" fill="#ede3d5"/><path d="M.45 12.1 6.7 6.15 8.05 4.7l.1-.1q1.8.6 2.9 2.4l1.8 3.7.1.05q-3 3.8-9.15 9.3-.15.05-.25.2l-1.1.45.25-2.7q0-1.65-.55-3.4-.65-2-1.7-2.5" fill="#caada1"/><path d="M8.15 4.6 9.6 2.8q1.9-1.9 4-1.85 2.1 0 2.1 4.3 0 2-2.7 5.45h-.15L11.05 7q-1.1-1.8-2.9-2.4" fill="#a36d60"/><path d="M.15 12.35.1 12.1l-.1-.3q.7-1.25 2.7-3.2l3.25-3.35 2.8-3.35Q10.8 0 13.1 0q1.9 0 2.7.95.75.95 1.2 3.35.35 2.4-5.1 8.75-4.95 5.65-9.1 8.85l-.45-.9.1-.3 1.1-.45q.1-.15.25-.2 6.15-5.5 9.15-9.3l.05-.05q2.7-3.45 2.7-5.45 0-4.3-2.1-4.3-2.1-.05-4 1.85L8.15 4.6l-.1.1L6.7 6.15.45 12.1l-.3.25" fill="#150400"/></g><g id="s" fill-rule="evenodd"><path d="m11.1 19.05-.15-.05-.75-.2q-1.75-.65-3.9-1.95-1.65-1-3.25-2.85-1.6-1.9-1.45-3.55.1-1.7.65-2.8.55-1.1 1.25-1.05L5 7q-.25-.55-.7-.85l-1.1-.9-.65-.55Q.8 2.95.8 1.9q0-.6.7-.6.9 0 3.3.8 2.15.7 2.65 1l2.2 1.4.3 1.25.15.8.9-3.15Q11.65 1 12.65 1q.85 0 1.95 3l.65 1.95.05.2 1.95 1.35.35.25.5 1.15.7 1.2.7 1 .65 1.4-.35 1.4-.9 1.4q-.7.9-2.7 2.05l-3.1 1.4-2 .3m-1-12.5-.05.1v.55l.05-.55v-.1" fill="#fffefe"/><path d="m26.9 19.9-.65.1-2.5.3-5.75-.15-6.9-1.1 2-.3 3.1-1.4q2-1.15 2.7-2.05l.9-1.4.35-1.4-.65-1.4-.7-1-.7-1.2-.5-1.15q1.45 1.15 2.2 1.55l3.1 1.9q1 .45 2.75.55h.05l.05.1-.05 1.25.6 3.9.6 2.9" fill="#ede3d5"/><path d="m26.9 19.9.15.7-2.3.25-6.05.35-6.15-.4Q10.4 20.35 7.4 19q-3-1.4-5.1-4.05Q.15 12.3.45 10.1.7 7.85 1 7.25q.3-.6 1.65-1.45Q1.6 5.2.85 4.15 0 3 0 2 0 .95.5.7L2.8.35Q4.7.2 9.85 3.45q.05-.75.55-1.8Q11.25 0 12.5 0q1.05 0 1.85 1.5l.95 2.25 1.1 2.05 2.05 1.7q1.9 1.25 4.3 2.25l1.95 1q.3-.1.95.9v.1q-1.75-.1-2.75-.55l-3.1-1.9q-.75-.4-2.2-1.55l-.35-.25-1.95-1.35-.05-.2L14.6 4q-1.1-3-1.95-3-1 0-1.65 2.4l-.9 3.15-.15-.8-.3-1.25-2.2-1.4q-.5-.3-2.65-1-2.4-.8-3.3-.8-.7 0-.7.6 0 1.05 1.75 2.8l.65.55 1.1.9q.45.3.7.85l-1.5-.4q-.7-.05-1.25 1.05t-.65 2.8Q1.45 12.1 3.05 14q1.6 1.85 3.25 2.85 2.15 1.3 3.9 1.95l.75.2.15.05 6.9 1.1 5.75.15 2.5-.3.65-.1" fill="#160400"/></g><g id="t" fill-rule="evenodd"><path d="m55.8 1.25.1-.05h.25l.2.15.05.15h9.25l.15.05.1.15h.9l.15.05.1.15v.15l-.9 1.7Q83 9.1 91 12.2q4.05 1.55 5.85 2.55l1.3.9.3.4-.1.4-.05.15v.1l-.1.15-.1.1q-6.05 4.45-26.05 6.5l-1.9.2-12.45.9-8.7.35-9.15 8.55-.2.05H38.4l-.15-.05-.1-.15v-.1L26.4 31.8l-.1.05H26l-.15-.2L22.9 24h-.15L11 21.35l-.1-.05Q4.25 17.75 3 15.05l-.05-.2.1-.2.2-.1 3.5-.65h.1L30.1 16 55.8 1.25m.15 7.15L64.9 2h-8.95l-17.6 10.05-7.95 4.55v.05l-.15.05-7.5 4.25.75-.2.35-.1 13.9.75 18.2-13m9.85-4.95.6-1.25h-.6l-.15-.05-.05-.05-27.65 19.75-.15.05h-.2l-13.8-.75-1.25.05.85 2.15v.15l.1.15 2.95 7.65 11.65 1.4-.55-10.4.05-.2h.05q.05-.1.15-.1l.2.1.05.15.6 10.75h.9l8.8-8.15-2.55-.35-.2-.05-.05-.2v-4l.1-.15q.05-.1.15-.1h.05l4.75-3.5.25-.1 6.5.3h.05l3.7-2.9.05-.05.15-.1.2.1.05.15-.05.2-2.55 2.65 12.35.15 15.8-.35 10.8-.5-.1-.05q-.3-.35-1.15-.8-1.8-.95-5.85-2.5-8.05-3.15-25.05-8.55l-.15-.1-.05-.1.05-.15.2-.35m-44.3 16.8.7.15h.05l6.8-3.8-7.15-.65L8.7 14.8l-1.85-.2-1.55.3q1.85 1.05 4.35 2l3.8 1.3.15.05 7.9 2m-7.7-1.4-2.85-.95-.7-.25q-3.4-1.25-5.7-2.6l-.7.1q1.5 2.35 7.3 5.5l6.1 1.4 5.35 1.2-.8-2.05v-.05l-.05-.1-.05-.2-7.9-2m52.65 4.65q22.15-1.8 29.85-6.05L86 18.95l-.65.05L73 20.15l-.65.05-16.35.55h-3.6l-6.35-.15v3.45l2.85.35h.05l8.9-.35 8.6-.55m20.1-5.35 8.75-1.25-8.35.4-15.6.3-12.5-.15-.55-.05-1.9-.05-5.5-.25-3.85 2.85 5.8.1 8.6-.05 4.15-.15 6.25-.3 14.7-1.4" fill="#1c0600"/><path d="m21.9 15.95.35.3q1.05 1 1.05 2l-.6 1-1.2 1-7.9-2-.15-.05-3.8-1.3-.55-1.05-.4-1.05 13.2 1.15m65.05 1.35-.4.85-14.7 1.4-.2-.55-.3-1.4 15.6-.3" fill="#fffdf6"/><path d="m21.5 20.25 1.2-1 .6-1q0-1-1.05-2l-.35-.3 7.15.65-6.8 3.8h-.05l-.7-.15M8.7 14.8l.4 1.05.55 1.05q-2.5-.95-4.35-2l1.55-.3 1.85.2m78.25 2.5 8.35-.4-8.75 1.25.4-.85m-15.1 2.25-6.25.3-4.15.15-8.6.05 3.55-2.7 1.9.05.55.05 12.5.15.3 1.4.2.55" fill="#c3c7a7"/><path d="m56 20.75 16.35-.55.65-.05L85.35 19l.65-.05 10.3-1.5q-7.7 4.25-29.85 6.05l-4.5-.5q-3.75-.6-5.95-2.25" fill="#8c865b"/><path d="m55.95 8.4-18.2 13-13.9-.75-.35.1-.75.2 7.5-4.25.15-.05v-.05l7.95-4.55-.55 1.15-.85 1.55 2.35-1.2q2.85-1.35 4.25-1.35.55 0 .95.3 1.85-2.3 5.7-3.9 2.35-1 7.05-2.4l.1.05-1.4 2.15M44.5 12.5l.05.05-.05-.05" fill="#ffd03e"/><path d="M38.35 12.05 55.95 2h8.95l-8.95 6.4 1.4-2.15V6.2h-.1q-4.7 1.4-7.05 2.4-3.85 1.6-5.7 3.9-.4-.3-.95-.3-1.4 0-4.25 1.35l-2.35 1.2.85-1.55.55-1.15" fill="#d78200"/><path d="m37.6 22.1-.05.2.55 10.4-11.65-1.4-2.95-7.65-.1-.15v-.15l-.85-2.15 1.25-.05 13.8.75v.2" fill="#d78100"/><path d="M37.6 21.9h.2l.15-.05L65.6 2.1l.05.05.15.05h.6l-.6 1.25-1.75 1.95-1.65 1.65q-.35.4-.95 1.8t-.6 2.3q0 1.75.25 2.65l-3.7 2.9h-.05l-6.5-.3-.25.1-4.75 3.5h-.05q-.1 0-.15.1l-.1.15v4l.05.2.2.05 2.55.35-8.8 8.15h-.9l-.6-10.75-.05-.15-.2-.1q-.1 0-.15.1h-.05v-.2" fill="#7d3006"/><path d="m66.45 23.5-8.6.55-8.9.35h-.05l-2.85-.35V20.6l6.35.15H56q2.2 1.65 5.95 2.25l4.5.5m-13.6-3.45-5.8-.1 3.85-2.85 5.5.25-3.55 2.7" fill="#495e53"/><path d="m57.7 24.55-1.05 3.1H51.4l-9.5 8.85q-11 .25-18.25-2.75l-3.25-7.5Q9.25 25.05.3 17.9q-1-4.25 1.5-7h4.5l.8-.2Q29.65 6.5 52.55 0l3.25 1.25L30.1 16 6.85 13.9h-.1l-3.5.65-.2.1-.1.2.05.2q1.25 2.7 7.9 6.25l.1.05L22.75 24h.15l2.95 7.65.15.2h.3l.1-.05 11.75 1.4v.1l.1.15.15.05h1.25l.2-.05L49 24.9l8.7-.35M23.35 13.6l6.45.7 6.25-4.3-12.7 3.6" fill="#150400"/><path d="m13.8 18.85 7.9 2 .05.2.05.1v.05l.8 2.05-5.35-1.2-2.05-1.35q-1-.85-1.4-1.85" fill="#526758"/><path d="m17.25 22.05-6.1-1.4q-5.8-3.15-7.3-5.5l.7-.1q2.3 1.35 5.7 2.6l.7.25 2.85.95q.4 1 1.4 1.85l2.05 1.35" fill="#a5a068"/></g><use ffdec:characterId="2" height="53.15" width="48.2" xlink:href="#l" id="c"/><use ffdec:characterId="4" height="23.7" width="32.55" xlink:href="#m" id="d"/><use ffdec:characterId="6" height="109.5" width="104.1" xlink:href="#n" id="e"/><use ffdec:characterId="12" height="65" transform="translate(0 23.95)" width="79.3" xlink:href="#o" id="f"/><use ffdec:characterId="19" height="41.15" width="29.7" xlink:href="#p" id="g"/><use ffdec:characterId="21" height="34.65" width="41.45" xlink:href="#q" id="h"/><use ffdec:characterId="23" height="21.9" width="17" xlink:href="#r" id="i"/><use ffdec:characterId="25" height="21.2" width="27.05" xlink:href="#s" id="j"/><use ffdec:characterId="27" height="36.5" width="98.45" xlink:href="#t" id="k"/><path d="M27.75 0q0 2-8.15 3.4Q11.5 4.9 0 4.9q-11.5 0-19.65-1.5-8.1-1.4-8.1-3.4 0-2.05 8.1-3.5Q-11.5-4.9 0-4.9q11.5 0 19.6 1.4 8.15 1.45 8.15 3.5" fill-opacity=".349" fill-rule="evenodd" transform="translate(27.75 4.9)" id="b"/></defs></svg>