<svg xmlns:ffdec="https://www.free-decompiler.com/flash" xmlns:xlink="http://www.w3.org/1999/xlink" ffdec:objectType="frame" height="90" width="90" xmlns="http://www.w3.org/2000/svg"><use ffdec:characterId="46" height="90" transform="translate(-.65)" width="91.45" xlink:href="#a"/><defs><g id="a" transform="translate(.65)"><use ffdec:characterId="8" height="90" width="90.45" xlink:href="#b"/><use ffdec:characterId="45" height="226.55" transform="matrix(.3229 0 0 .3227 -.641 8.067)" width="283.25" xlink:href="#c"/></g><g id="b"><use ffdec:characterId="6" height="90" width="90.45" xlink:href="#d"/><use ffdec:characterId="7" height="0" transform="matrix(.9552 0 0 .9554 1.5 0)" width="0" xlink:href="#sprite7"/></g><g id="d"><use ffdec:characterId="4" height="90" width="90.45" xlink:href="#e"/><use ffdec:characterId="5" height="0" transform="matrix(.6991 0 0 .6987 .25 2.45)" width="0" xlink:href="#sprite6"/></g><g id="e" transform="translate(.45)"><use ffdec:characterId="1" height="0" transform="translate(-.45 12.65) scale(.3335)" width="0" xlink:href="#sprite4"/><use ffdec:characterId="3" height="71.05" transform="scale(1.4622 1.2667)" width="61.55" xlink:href="#f"/></g><g id="c" transform="translate(2.45 7.85)"><use ffdec:characterId="9" height="31.1" transform="translate(82.75 189.95) scale(.9252)" width="122.95" xlink:href="#g"/><use ffdec:characterId="10" height="105.65" transform="translate(203.825 8.475) scale(.9252)" width="47.7" xlink:href="#h"/><use ffdec:characterId="11" height="16.2" transform="translate(244.35 55.7) scale(.9252)" width="31.55" xlink:href="#i"/><use ffdec:characterId="12" height="20.15" transform="matrix(.8211 -.4237 .4237 .8211 236.44 42.292)" width="41.5" xlink:href="#j"/><use ffdec:characterId="13" height="14.4" transform="rotate(-27.288 186.327 -452.606) scale(.7557)" width="25.65" xlink:href="#k"/><use ffdec:characterId="14" height="18.15" transform="matrix(.8058 -.5501 .5501 .8058 227.165 14.07)" width="32.95" xlink:href="#l"/><use ffdec:characterId="15" height="20.65" transform="matrix(-.0379 -.9735 .9735 -.0379 203.627 24.157)" width="29.85" xlink:href="#m"/><use ffdec:characterId="16" height="7.5" transform="rotate(-92.221 121.079 -86.344) scale(.5083)" width="11.4" xlink:href="#n"/><use ffdec:characterId="11" height="16.2" transform="matrix(-.0916 -.2906 .2906 -.0916 200 64.8)" width="31.55" xlink:href="#i"/><use ffdec:characterId="12" height="20.15" transform="matrix(-.6157 -.0159 -.0159 .6157 216.144 62.96)" width="41.5" xlink:href="#j"/><use ffdec:characterId="17" height="67.9" transform="translate(169.65 110) scale(.9252)" width="75.75" xlink:href="#o"/><use ffdec:characterId="18" height="42.2" transform="translate(207.175 74.975) scale(.9252)" width="48.9" xlink:href="#p"/><use ffdec:characterId="19" height="41.7" transform="translate(140.525 171.175) scale(.9252)" width="46.2" xlink:href="#q"/><use ffdec:characterId="20" height="37.5" transform="translate(92.125 174.775) scale(.9252)" width="28.85" xlink:href="#r"/><use ffdec:characterId="21" height="78.7" transform="translate(127.525 53.625) scale(.9252)" width="87.85" xlink:href="#s"/><use ffdec:characterId="22" height="46.6" transform="translate(143.175 90.275) scale(.9252)" width="49.05" xlink:href="#t"/><use ffdec:characterId="23" height="49.6" transform="translate(80.775 88.655) scale(.9252)" width="50.55" xlink:href="#u"/><use ffdec:characterId="24" height="136.1" transform="translate(18.725 48.775) scale(.9252)" width="82.8" xlink:href="#v"/><filter id="w"><feColorMatrix in="SourceGraphic" result="filterResult0" values="0 0 0 0 1.0,0 0 0 0 1.0,0 0 0 0 0.0,0 0 0 1 0"/><feConvolveMatrix divisor="25" in="filterResult0" kernelMatrix="1 1 1 1 1 1 1 1 1 1 1 1 1 1 1 1 1 1 1 1 1 1 1 1 1" order="5 5" result="filterResult1"/><feComposite in="SourceGraphic" in2="filterResult1" result="filterResult2"/></filter><use ffdec:characterId="28" filter="url(#w)" height="34.95" transform="translate(-1.817 39) scale(1.008)" width="25.35" xlink:href="#x"/><filter id="y"><feColorMatrix in="SourceGraphic" result="filterResult3" values="0 0 0 0 1.0,0 0 0 0 1.0,0 0 0 0 0.0,0 0 0 1 0"/><feConvolveMatrix divisor="25" in="filterResult3" kernelMatrix="1 1 1 1 1 1 1 1 1 1 1 1 1 1 1 1 1 1 1 1 1 1 1 1 1" order="5 5" result="filterResult4"/><feComposite in="SourceGraphic" in2="filterResult4" result="filterResult5"/></filter><use ffdec:characterId="28" filter="url(#y)" height="34.95" transform="matrix(-1.008 0 0 1.008 67.467 20.5)" width="25.35" xlink:href="#x"/><use ffdec:characterId="29" height="103.8" transform="translate(86.675 93.834) scale(.9252)" width="101.4" xlink:href="#z"/><use ffdec:characterId="30" height="56.75" transform="translate(171.804 106.625) scale(.9252)" width="39" xlink:href="#A"/><use ffdec:characterId="31" height="43.15" transform="translate(97.975 79.975) scale(.9252)" width="81.4" xlink:href="#B"/><use ffdec:characterId="32" height="107.3" transform="matrix(.9247 .0285 -.0285 .9247 93.654 109.347)" width="46.6" xlink:href="#C"/><use ffdec:characterId="33" height="19.55" transform="translate(90.525 70.325) scale(.9252)" width="21.5" xlink:href="#D"/><use ffdec:characterId="34" height="57.15" transform="translate(104.039 50.368) scale(.9252)" width="61.4" xlink:href="#E"/><use ffdec:characterId="35" height="16.35" transform="translate(105.797 78.633) scale(.9252)" width="47.5" xlink:href="#F"/><use ffdec:characterId="36" height="4.5" transform="translate(103.484 91.54) scale(.9252)" width="45.9" xlink:href="#G"/><use ffdec:characterId="37" height="78.2" transform="translate(98.825 -1.025) scale(.9252)" width="79.8" xlink:href="#H"/><use ffdec:characterId="38" height="20.8" transform="translate(154.25 69.025) scale(.9252)" width="30.55" xlink:href="#I"/><use ffdec:characterId="39" height="90.05" transform="translate(71.425 1.225) scale(.9252)" width="51.6" xlink:href="#J"/><use ffdec:characterId="40" height="96.15" transform="translate(125.225 -4.775) scale(.9252)" width="88" xlink:href="#K"/></g><g id="h"><path d="M28.4 4.6 31.5 0l-2.8 37.05 17 8.35-10.5 27.45 10.5 6.55-.9 1.2-12.1-6.55 9.2-24.55 1.2-3.3-16.7-8.15 1-16.25 1-17.2" fill="#c3e7ff" fill-rule="evenodd" transform="translate(1 1)"/><path d="m28.4 4.6-1 17.2q-.9-.1-1.45 1.15l.4-4.4.45-5.7-10.3 18.2q-3.6 1.85-8.4 5.6 9.15-15.4 20.3-32.05" fill="#7ac3d4" fill-rule="evenodd" transform="translate(1 1)"/><path d="M4.6 53.2 0 50.7q3.8-6.9 8.1-14.05 4.8-3.75 8.4-5.6L6.2 49.25l1.75 1q.2 1.1-1.8 2.2l-1.55.75" fill="#05aeff" fill-rule="evenodd" transform="translate(1 1)"/><path d="m27.4 21.8-1 16.25-1.25.9-.55-.3 1.35-15.7q.55-1.25 1.45-1.15" fill="#07b1fe" fill-rule="evenodd" transform="translate(1 1)"/><path d="m26.35 18.55-.4 4.4-1.35 15.7.55.3-3.85 2.6-1.8-.95 6.85-22.05M7.95 50.2l1.95-2.95 1.75.6-3.7 2.35" fill="#fad940" fill-rule="evenodd" transform="translate(1 1)"/><path d="m26.4 38.05 16.7 8.15-1.2 3.3q-1.15.25-2.25 1.85l1.1-2.8.45-1.1-16.05-8.5 1.25-.9" fill="#3d88c2" fill-rule="evenodd" transform="translate(1 1)"/><path d="m16.5 31.05 10.3-18.2-.45 5.7L19.5 40.6l1.8.95.4.45-10.05 5.85-1.75-.6-1.95 2.95v.05l-1.75-1 10.3-18.2" fill="#fff" fill-rule="evenodd" transform="translate(1 1)"/><path d="m21.7 42 13.25 7.75-.5 1.7-12.4 5.6v-4.1l-10.4-5.1L21.7 42" fill="#fbd840" fill-rule="evenodd" transform="translate(1 1)"/><path d="m25.15 38.95 16.05 8.5-.45 1.1-6.3 2.9.5-1.7L21.7 42l-.4-.45 3.85-2.6" fill="#faad09" fill-rule="evenodd" transform="translate(1 1)"/><path d="m40.75 48.55-1.1 2.8-9.05 22.8-11.4 17.6-9.05-6 8.7-27.25 3.2-1.45v11.7q.5 5.8 4.35 1.75 4.95-9.25 8.05-19.05l6.3-2.9" fill="#f69209" fill-rule="evenodd" transform="translate(1 1)"/><path d="m22.05 57.05 12.4-5.6q-3.1 9.8-8.05 19.05-3.85 4.05-4.35-1.75v-11.7" fill="#faad07" fill-rule="evenodd" transform="translate(1 1)"/><path d="m11.65 47.85 10.4 5.1v4.1l-3.2 1.45.6-1.85-11.5-6.4v-.05l3.7-2.35" fill="#faad05" fill-rule="evenodd" transform="translate(1 1)"/><path d="m7.95 50.25 11.5 6.4-.6 1.85q-.95-.9-2.25-.5L6.15 52.45q2-1.1 1.8-2.2" fill="#4186c1" fill-rule="evenodd" transform="translate(1 1)"/><path d="m41.9 49.5-9.2 24.55 12.1 6.55L27 103.65 7.8 88.05 16.6 58q1.3-.4 2.25.5l-8.7 27.25 9.05 6 7.2 4.75 14.05-16.1-9.85-6.25 9.05-22.8q1.1-1.6 2.25-1.85" fill="#2a548e" fill-rule="evenodd" transform="translate(1 1)"/><path d="m7.8 88.05-1.1-.9L15 58.8 4.6 53.2l1.55-.75L16.6 58 7.8 88.05" fill="#13378b" fill-rule="evenodd" transform="translate(1 1)"/><path d="m19.2 91.75 11.4-17.6 9.85 6.25L26.4 96.5l-7.2-4.75" fill="#b7560f" fill-rule="evenodd" transform="translate(1 1)"/><path d="m45.8 81.6.9-1.2-10.5-6.55L46.7 46.4l-17-8.35L32.5 1l-3.1 4.6Q18.25 22.25 9.1 37.65 4.8 44.8 1 51.7l4.6 2.5L16 59.8 7.7 88.15l1.1.9 19.2 15.6L45.8 81.6" fill="none" stroke="#13378b" stroke-linecap="round" stroke-linejoin="round" stroke-width="2"/><path d="m16.5 31.05 10.3-18.2-.45 5.7-.4 4.4-1.35 15.7.55.3 16.05 8.5-.45 1.1-1.1 2.8-9.05 22.8 9.85 6.25L26.4 96.5l-7.2-4.75-9.05-6 8.7-27.25.6-1.85-11.5-6.4-1.75-1 10.3-18.2z" fill="none" stroke="#c25c12" stroke-linecap="round" stroke-linejoin="round" transform="translate(1 1)"/></g><g id="o" fill-rule="evenodd"><path d="m70.75 2.5-8.4.65q-.3 0-.5.15-.75.4-.7 2.05 0 2.05 1.2 2.1l.95.05 1.95.1q1.65-3.05 3.1-4.4.7 1.75 1.8 2.9l1.35 1.15L73.25 7q2.05-.1 1.6-2.85.05-2.1-1.8-2.15l-.1.05-2.2.45M68.1.05q4.55-.25 6.65 1.15 2 3.2-.1 6.35Q78 48.5 54.75 62.05 32.05 74.5 0 60.45l5.4-8.8Q67.2 70 62.8 8.65V8.5q-3.3-.85-2.4-6.5Q63.5.2 68.1.05m4.45 9.4-2.3-2.05-.9-1q-.9-1.15-1.15-2.1l-3.3 6.35.1.1 3.1 2.6.3 1.35.45 2 3.7-7.25" fill="#123988"/><path d="m70.75 2.5 2.2-.45q-.45 2.3.3 4.95l-1.75.25-1.35-1.15.6-.15V2.5m-7.45 5-.95-.05q-1.2-.05-1.2-2.1-.05-1.65.7-2.05.95-.15.8 2.85 3 .4.65 1.35" fill="#e79e4f"/><path d="M61.85 3.3q.2-.15.5-.15l8.4-.65v3.45l-.6.15q-1.1-1.15-1.8-2.9-1.45 1.35-3.1 4.4l-1.95-.1q2.35-.95-.65-1.35.15-3-.8-2.85" fill="#d17520"/><path d="m72.95 2.05.1-.05q1.85.05 1.8 2.15.45 2.75-1.6 2.85-.75-2.65-.3-4.95" fill="#fbd29e"/><path d="M72.55 9.45h-1.3L68.9 7.5l-.05-.05q-.1-.7.5-1.05l.9 1 2.3 2.05" fill="#ffe560"/><path d="M71.25 9.45h1.3l-3.7 7.25-.45-2q2.2-1.85 2.85-5.25" fill="#f69705"/><path d="m68.9 7.5 2.35 1.95q-.65 3.4-2.85 5.25l-.3-1.35-3.1-2.6 1.6-.05 1.6-3.8.65.55v.05h.05" fill="#fcbd18"/><path d="M69.35 6.4q-.6.35-.5 1.05l-.65-.55-1.6 3.8-1.6.05-.1-.1 3.3-6.35q.25.95 1.15 2.1" fill="#fde261"/></g><g id="p"><path d="M41.4 2.9h1.65l3.15 9.75L44.5 14l-.25-.75-.4-1.15q-.65-1.75-1.15-3.7L42.35 7l-.25-.9-.7-3.2" fill="#bde6fa" fill-rule="evenodd" transform="translate(1 1)"/><path d="m41.4 2.9.7 3.2-5.5-.35.8-2.85h4" fill="#fffdfe" fill-rule="evenodd" transform="translate(1 1)"/><path d="m42.35 7 .35 1.4q-2.7-.65-2.3 1.8l1.2 2.3 2.25-.4.4 1.15q-4.3 1.2-5.15-2V7.4l3.25-.4" fill="#f8b504" fill-rule="evenodd" transform="translate(1 1)"/><path d="M42.7 8.4q.5 1.95 1.15 3.7l-2.25.4-1.2-2.3q-.4-2.45 2.3-1.8" fill="#fae35f" fill-rule="evenodd" transform="translate(1 1)"/><path d="m42.1 6.1.25.9-3.25.4v3.85q.85 3.2 5.15 2l.25.75 1.7-1.35.45 1.3q-2.75 2.8-7.1 1.75-1.1-1.9-2.8-3.6l-1.6-1.4 1.45-4.95 5.5.35" fill="#ed930b" fill-rule="evenodd" transform="translate(1 1)"/><path d="m46.65 13.95.25.85-1.25.5 1.25 3.5-1.2 1.1-.45-1.1-.45-1.1-4.1.55-1.15-2.55q4.35 1.05 7.1-1.75" fill="#f5ca9f" fill-rule="evenodd" transform="translate(1 1)"/><path d="M41.6 23.45v.3q0 6.8-4.85 11.6-3.95 4-9.25 4.7 4.45-2.75 7.2-5.7 2.45-2.75 3.5-5.75l.65-3.25q.35-9.45-5.45-12.45-.7-.4-1.55-.65l-2.2-4.35q2.95.8 5.5 2.8l1.6 1.4q1.7 1.7 2.8 3.6l1.15 2.55.65 2.35.25 2.85" fill="#c1e3fc" fill-rule="evenodd" transform="translate(1 1)"/><path d="m40.7 18.25 4.1-.55.45 1.1-3.9 1.8-.65-2.35" fill="#e69a46" fill-rule="evenodd" transform="translate(1 1)"/><path d="m16.8 4.3.1-2.35 6.8-1.5 1.15 2.1L16.8 4.3" fill="#fefeff" fill-rule="evenodd" transform="translate(1 1)"/><path d="m4.2 7.3 1.8-1 5 9-1.15 2.3q-2.05-4.35-3.7-7.2L4.2 7.3" fill="#bee7fd" fill-rule="evenodd" transform="translate(1 1)"/><path d="M.7 12.8 0 9.55 4.2 7.3l1.95 3.1Q3.9 10.35.7 12.8" fill="#fefdfb" fill-rule="evenodd" transform="translate(1 1)"/><path d="m2.7 22.05-.3-1.5q4.7-.2 5.7-4.4l-2.55-4.5-4.6 2.15-.25-1q3.2-2.45 5.45-2.4 1.65 2.85 3.7 7.2-.95 2.35-1.1 5.05-2.85 1.65-6.05-.6" fill="#f0940f" fill-rule="evenodd" transform="translate(1 1)"/><path d="M2.4 20.55 2.05 19q3.55.6 3.55-2.55L3.65 13.7l-2.5 1.05-.2-.95 4.6-2.15 2.55 4.5q-1 4.2-5.7 4.4" fill="#f9b605" fill-rule="evenodd" transform="translate(1 1)"/><path d="m2.05 19-.9-4.25 2.5-1.05 1.95 2.75q0 3.15-3.55 2.55" fill="#fde55f" fill-rule="evenodd" transform="translate(1 1)"/><path d="M11 15.3q1-1.7 2.5-3.2l3.05-2.4-.25 5q-3.75 6.85-7.55 7.95.15-2.7 1.1-5.05L11 15.3" fill="#fbd19f" fill-rule="evenodd" transform="translate(1 1)"/><path d="m16.55 9.7.25-5.4 8.05-1.75 5.45 10.3-2.75 7.6-5.95 1.65-2.7-2.55L16.2 17l.1-2.3.25-5m2.95 4.7q3.65 2.75 9.4-1.2l-4.75-8.25q-4.5-.5-5.15 3.5-.35 2.25.5 5.95" fill="#ef910d" fill-rule="evenodd" transform="translate(1 1)"/><path d="m15.05 36.75-1.55-1.4q-2.9-2.9-4.05-6.55l-.35-1.4q-.35-1.45-.4-3.05v-.6l.05-1.1q3.8-1.1 7.55-7.95l-.1 2.3q-5.95 8.95-1.15 19.75" fill="#e99d4f" fill-rule="evenodd" transform="translate(1 1)"/><path d="M23.7.45 25.6 0l4.05 7.9 2.2 4.35.55 1.05-2.05 4.7-.85 1.9-1.95.55 2.75-7.6-5.45-10.3L23.7.45" fill="#bce5f7" fill-rule="evenodd" transform="translate(1 1)"/><path d="m21.1 7 2.8-.75 2.4 5.65q-.4 2.1-5.2 1.8-.8-3.75-.25-5.85L21.1 7" fill="#fce460" fill-rule="evenodd" transform="translate(1 1)"/><path d="m21.1 7-.25.85q-.55 2.1.25 5.85 4.8.3 5.2-1.8l-2.4-5.65-2.8.75m-1.6 7.4q-.85-3.7-.5-5.95.65-4 5.15-3.5l4.75 8.25q-5.75 3.95-9.4 1.2" fill="#f9b806" fill-rule="evenodd" transform="translate(1 1)"/><path d="M31.7 19.05 30.35 18l2.05-4.7-.55-1.05q.85.25 1.55.65v3.2l.55.4q-.65 1.8-.95 3.55l-1.3-1" fill="#d17721" fill-rule="evenodd" transform="translate(1 1)"/><path d="m33.95 16.5-.55-.4v-3.2q5.8 3 5.45 12.45l-.65 3.25q.9-8.2-4.25-12.1" fill="#fbd3a0" fill-rule="evenodd" transform="translate(1 1)"/><path d="m31.7 19.05 1.3 1 1.2.95-1.65 4.6L32 27l-2.15.6q3.25-4.9.75-4.6-5.15 1.95-9 2.65 2.6 1.7 2.45 3.45l-.45.1-5.2-3.15.4-5.05 1.3 3.45 11.25-2.8.35-2.6" fill="#e99e4d" fill-rule="evenodd" transform="translate(1 1)"/><path d="M24.05 29.1q.15-1.75-2.45-3.45 3.85-.7 9-2.65 2.5-.3-.75 4.6l-5.8 1.5" fill="#d3731d" fill-rule="evenodd" transform="translate(1 1)"/><path d="M33 20.05q.3-1.75.95-3.55 5.15 3.9 4.25 12.1-1.05 3-3.5 5.75-2-4.3-2.15-8.75L34.2 21l-1.2-.95" fill="#e79e4f" fill-rule="evenodd" transform="translate(1 1)"/><path d="m27.5 40.05-2.35.15q-5.75 0-10.1-3.45-4.8-10.8 1.15-19.75l2.7 2.55-.1 1.45-.4 5.05 5.2 3.15.45-.1 5.8-1.5L32 27l.55-1.4q.15 4.45 2.15 8.75-2.75 2.95-7.2 5.7" fill="#d3751b" fill-rule="evenodd" transform="translate(1 1)"/><path d="m18.9 19.55 2.7 2.55 5.95-1.65 1.95-.55.85-1.9 1.35 1.05-.35 2.6-11.25 2.8L18.8 21l.1-1.45" fill="#f8d39f" fill-rule="evenodd" transform="translate(1 1)"/><path d="m4.2 27.2-1.5-.95V23.3q2.2 2.05 6 1.05.05 1.6.4 3.05-1.8.35-4.9-1v.8" fill="#ea9c51" fill-rule="evenodd" transform="translate(1 1)"/><path d="m9.45 28.8-2.05.4-3.2-2v-.8q3.1 1.35 4.9 1l.35 1.4" fill="#cf7421" fill-rule="evenodd" transform="translate(1 1)"/><path d="M2.7 23.3v-1.25q3.2 2.25 6.05.6l-.05 1.1v.6q-3.8 1-6-1.05" fill="#e7c28e" fill-rule="evenodd" transform="translate(1 1)"/><path d="m45.7 19.9-4.1 3.55-.25-2.85 3.9-1.8.45 1.1" fill="#d4741d" fill-rule="evenodd" transform="translate(1 1)"/><path d="M47.2 13.65 44.05 3.9H38.4l-.8 2.85-1.45 4.95q-2.55-2-5.5-2.8L26.6 1l-1.9.45-6.8 1.5-.1 2.35-.25 5.4-3.05 2.4Q13 14.6 12 16.3l-5-9-1.8 1L1 10.55l.7 3.25.25 1 .2.95.9 4.25.35 1.55.3 1.5v4.2l1.5.95 3.2 2 2.05-.4q1.15 3.65 4.05 6.55l1.55 1.4q4.35 3.45 10.1 3.45l2.35-.15q5.3-.7 9.25-4.7 4.85-4.8 4.85-11.6v-.3l-.25-2.85-.65-2.35-1.15-2.55q-1.1-1.9-2.8-3.6l-1.6-1.4m11.05 1.95.45 1.3.25.85-1.25.5 1.25 3.5-1.2 1.1-4.1 3.55M10.85 18.6 12 16.3m-2.25 7.35-.05 1.1v.6q.05 1.6.4 3.05l.35 1.4m-.7-6.15q.15-2.7 1.1-5.05" fill="none" stroke="#b45c07" stroke-linecap="round" stroke-linejoin="round" stroke-width="2"/><path d="M46.65 13.95q-2.75 2.8-7.1 1.75m-23.25-1-.1 2.3 2.7 2.55 2.7 2.55 5.95-1.65 1.95-.55.85-1.9 1.35 1.05 1.3 1 1.2.95-1.65 4.6L32 27l-2.15.6-5.8 1.5-.45.1-5.2-3.15.4-5.05.1-1.45M16.55 9.7l-.25 5m15.55-2.45-2.2-4.35m2.2 4.35.55 1.05-2.05 4.7m-21.6 4.65q-2.85 1.65-6.05-.6" fill="none" stroke="#b45c07" stroke-linecap="round" stroke-linejoin="round" transform="translate(1 1)"/></g><g id="q"><path d="m23.1 30.05-.25-.3Q21.4 27.7 18.6 28.7q-1 .35-1.1.95-.25 1.5 3.45 1.35 3.05 5.2-3.7 8.15l-6.9-.2q-5.4-2.05-4.2-7.1.8-5.95-.1-12.05 8.35-4.45 18.6-1.45-1.8 9.15 5.2 5.25l2.55-.35q3.6 1 5.85 3l.5.5q1.4 1.4 2.2 3.2 2 4.5-2.55 8.5L35 37.9q3.1-7.6-2.25-9.95l-.7-.3q-.75-.5-1.3-.65-1.25-.45-1.45.8-.3 1.7 1.95 1.75 4.95 3.65-.9 9.85-2.4.05-5.55-.9.1 1.4-4.2 1.15 7.05-3.8 2.5-9.6" fill="#3168a0" fill-rule="evenodd" transform="translate(1 1)"/><path d="M17.25 39.15Q24 36.2 20.95 31q-3.7.15-3.45-1.35.1-.6 1.1-.95 2.8-1 4.25 1.05l.25.3q4.55 5.8-2.5 9.6l-2.75-.25-.6-.25m13.1.25q5.85-6.2.9-9.85Q29 29.5 29.3 27.8q.2-1.25 1.45-.8l-.2.1q-.55.2-.5.75.05.55.55 1 .45.4.95.4.5 0 .85-.35l.35-.85v-.1Q38.1 30.3 35 37.9q-1.85 1.45-4.65 1.5m8.05-.95q4.55-4 2.55-8.5-.8-1.8-2.2-3.2 2.05-.7 2.2 1.15.45-1.6.05-2.85 1.15.85 1.95 2.2.75 1.2 1.2 2.85.25 4.25-1.2 6.35-1.45 2-4.55 2m-.15-12.2q-2.25-2-5.85-3 4.15-.45 6.9.8-2.15 0-1.05 2.2M6.05 19.8q.9 6.1.1 12.05-1.2 5.05 4.2 7.1l-1.7.45q-6.6-1.55-4.7-7.85 1.95-6.3.3-10.7l1.8-1.05m14.85 9.15-1.05.1q-.65.1-.25.7l.6.8q.3.3.7.3l.65-.3.3-.65-.3-.7-.65-.25" fill="#4087bf" fill-rule="evenodd" transform="translate(1 1)"/><path d="M30.75 27q.55.15 1.3.65l.7.3v.1l-.35.85q-.35.35-.85.35t-.95-.4q-.5-.45-.55-1-.05-.55.5-.75l.2-.1m8-.25-.5-.5q-1.1-2.2 1.05-2.2.95.4 1.7 1 .4 1.25-.05 2.85-.15-1.85-2.2-1.15m-17.85 2.2.65.25.3.7-.3.65-.65.3q-.4 0-.7-.3l-.6-.8q-.4-.6.25-.7l1.05-.1" fill="#86c9fd" fill-rule="evenodd" transform="translate(1 1)"/><path d="M21.6 40.65q4.3.25 4.2-1.15 3.15.95 5.55.9 2.8-.05 4.65-1.5l3.4.55q3.1 0 4.55-2 1.45-2.1 1.2-6.35-.45-1.65-1.2-2.85-.8-1.35-1.95-2.2-.75-.6-1.7-1-2.75-1.25-6.9-.8l-2.55.35q-7 3.9-5.2-5.25-10.25-3-18.6 1.45l-1.8 1.05q1.65 4.4-.3 10.7-1.9 6.3 4.7 7.85l1.7-.45 6.9.2.6.25 2.75.25" fill="none" stroke="#13398a" stroke-linecap="round" stroke-linejoin="round" stroke-width="2"/><path d="M23.1 30.05q4.55 5.8-2.5 9.6m11.45-12 .7.3Q38.1 30.3 35 37.9" fill="none" stroke="#13398a" stroke-linecap="round" stroke-linejoin="round" transform="translate(1 1)"/><path d="M18.55 20.95q-4.45 1.15-8.85 1.3Q.45 18.65 5.75 7.8q3.3-2.7 8.5-5.7 3.15-1 6-1.5 4.85 13.5-1.7 20.35" fill="#f9980b" fill-rule="evenodd" transform="translate(1 1)"/><path d="M20.25.6 25.4 0q7.7 10.95 0 18.65-3.45 1.45-6.85 2.3Q25.1 14.1 20.25.6M9.7 22.25l-5.1-.1q-9.75-5.5 1.15-14.35Q.45 18.65 9.7 22.25" fill="#fec804" fill-rule="evenodd" transform="translate(1 1)"/><path d="M21.25 1.6 26.4 1q7.7 10.95 0 18.65m-20.8 3.5q-9.75-5.5 1.15-14.35 3.3-2.7 8.5-5.7 3.15-1 6-1.5" fill="none" stroke="#123988" stroke-linecap="round" stroke-linejoin="round" stroke-width="2"/><path d="M25.4 18.65q-3.45 1.45-6.85 2.3-4.45 1.15-8.85 1.3l-5.1-.1" fill="none" stroke="#123988" stroke-linecap="round" stroke-linejoin="round" transform="translate(1 1)"/></g><g id="r"><path d="M24.3 13.1q.3 11.4.8 16.15.8 4-2.75 5.65l-4.55.15q-4.5-2.35-2.45-6.5 2.45.1 2.25-1.05-.05-.5-.7-.8-1.85-.8-2.8.85l-.2.25q-3 4.6 1.65 7.65-2.8.2-2.75-.95-2.1.8-3.65.75-3.9-4.95-.6-7.85Q10 27.35 9.8 26q-.1-1-.95-.65-.35.15-.85.55l-.45.2Q4 28 6.05 34.05l-2.25.45q-3-3.2-1.65-6.8.5-1.4 1.45-2.55l.3-.4q1.5-1.55 3.9-2.35l1.65.25q4.65 3.1 2.35-10.25l12.5.7" fill="#3168a0" fill-rule="evenodd" transform="translate(1 1)"/><path d="m24.3 13.1 2.55-.15q-1.6 11-.3 16.05 1.25 5-3.1 6.25l-1.1-.35q3.55-1.65 2.75-5.65-.5-4.75-.8-16.15m-6.5 21.95-.4.2-1.85.2Q10.9 32.4 13.9 27.8l.2-.25q.95-1.65 2.8-.85.65.3.7.8.2 1.15-2.25 1.05-2.05 4.15 2.45 6.5m-8.65.2q-1.85-.05-3.1-1.2Q4 28 7.55 26.1v.1l.25.7.55.25q.3 0 .6-.3l.4-.8q0-.45-.35-.6l-.15-.1q.85-.35.95.65.2 1.35-1.25 1.4-3.3 2.9.6 7.85M3.8 34.5q-2.05 0-3-1.6-.95-1.7-.8-5.05l.8-2.3q.55-1.05 1.3-1.75-.25 1 .05 2.3.1-1.5 1.45-.95-.95 1.15-1.45 2.55Q.8 31.3 3.8 34.5M3.2 23q1.85-1 4.6-.6-2.4.8-3.9 2.35Q4.65 23 3.2 23m13.05 4.55q.25-.45-.2-.55l-.7-.1-.4.2-.2.6.2.5.4.25.5-.25.4-.65" fill="#4087bf" fill-rule="evenodd" transform="translate(1 1)"/><path d="M2.1 23.8q.5-.45 1.1-.8 1.45 0 .7 1.75l-.3.4q-1.35-.55-1.45.95-.3-1.3-.05-2.3m6.75 1.55.15.1q.35.15.35.6l-.4.8q-.3.3-.6.3l-.55-.25-.25-.7v-.1l.45-.2q.5-.4.85-.55m7.4 2.2-.4.65-.5.25-.4-.25-.2-.5.2-.6.4-.2.7.1q.45.1.2.55" fill="#86c9fd" fill-rule="evenodd" transform="translate(1 1)"/><path d="m23.35 35.9 1.1.35Q28.8 35 27.55 30q-1.3-5.05.3-16.05l-2.55.15-12.5-.7q2.3 13.35-2.35 10.25L8.8 23.4q-2.75-.4-4.6.6-.6.35-1.1.8-.75.7-1.3 1.75l-.8 2.3q-.15 3.35.8 5.05.95 1.6 3 1.6l2.25-.45q1.25 1.15 3.1 1.2 1.55.05 3.65-.75-.05 1.15 2.75.95l1.85-.2.4-.2 4.55-.15" fill="none" stroke="#13398a" stroke-linecap="round" stroke-linejoin="round" stroke-width="2"/><path d="m8 25.9-.45.2Q4 28 6.05 34.05m7.85-6.25q-3 4.6 1.65 7.65" fill="none" stroke="#13398a" stroke-linecap="round" stroke-linejoin="round" transform="translate(1 1)"/><path d="m15.25 0 1.95.2q13.5 3.3 6.3 14.95-5.45.7-8.95-.9-2.75-4.15-.15-2.6Q11.1 8.8 15.25 0" fill="#f8980d" fill-rule="evenodd" transform="translate(1 1)"/><path d="M14.55 14.25q-2.2-1-3.65-2.9Q8.4-.1 15.25 0q-4.15 8.8-.85 11.65-2.6-1.55.15 2.6" fill="#fec502" fill-rule="evenodd" transform="translate(1 1)"/><path d="m16.25 1 1.95.2q13.5 3.3 6.3 14.95m-12.6-3.8Q9.4.9 16.25 1" fill="none" stroke="#123988" stroke-linecap="round" stroke-linejoin="round" stroke-width="2"/><path d="M23.5 15.15q-5.45.7-8.95-.9-2.2-1-3.65-2.9" fill="none" stroke="#123988" stroke-linecap="round" stroke-linejoin="round" transform="translate(1 1)"/></g><g id="s"><path d="M38.45.15 48.2 6.3l1.75 2.4-7.2-2.05q-.4 1.9 1.6 5.8-2.95-.15-4.25.75 9.6 2.5 16.9 6.65l-4.45 6 4.65 4.3h-5.85q2.45 5.1 7.25 9.5l-4.95-.5q6.25 7.75 12.45 12.7l5.3 15.8 3.05.85 2.25.5q2.1 4.05 7.8 7.05l-10.7.65-5.65-.05q-1.1-11.85-6.5-25.6L48.2 38.75q.6-1.05 3.5-.9-8.35-8.2-9.3-19.45-7.8-6.35-4.35-6.9 5.65-.5-1.7-2.8l2-8.55h.1" fill="#f7910b" fill-rule="evenodd" transform="translate(1 1)"/><path d="M57 19.85q-7.3-4.15-16.9-6.65 1.3-.9 4.25-.75-2-3.9-1.6-5.8l7.2 2.05-1.75-2.4L38.45.15 40.5 0q4.55 2 9.1 6.2l2.6 3.95-7.75-1.85q-.35 2.85 2.75 5.7l10.55 4.85-.75 1M74.45 68.5l-3.05-.85-5.3-15.8q-6.2-4.95-12.45-12.7l4.95.5q-4.8-4.4-7.25-9.5h5.85l-4.65-4.3q4.35 1.15 8.2 4.8-11.3-1.1-3.35 6.05l9.25 3.05-.55 2.1Q49.15 36 69.3 51.3q2.3 9.45 5.15 17.2m11-1.55.4 9q-.55-3.1-5.8-6.55 4.35.15 5.4-2.45" fill="#ffc907" fill-rule="evenodd" transform="translate(1 1)"/><path d="m76.7 69-2.25-.5q-2.85-7.75-5.15-17.2-20.15-15.3-3.2-9.45l.55-2.1-9.25-3.05q-7.95-7.15 3.35-6.05-3.85-3.65-8.2-4.8l4.45-6 .75-1L47.2 14q-3.1-2.85-2.75-5.7l7.75 1.85-2.6-3.95Q45.05 2 40.5 0q10.55 2.35 14.35 12.4L45.5 9.55l2.5 4.2 12 3.95-6.25 8.05H58l5.9 6.5h-7.1l1.6 3.25q8.75 3.65 12.7 2.85L68 43.2l-6.5-1.25 10.2 8.75 3.45 16.2 7.45.5 2.65-3.95.2 3.5q-1.05 2.6-5.4 2.45L76.7 69" fill="#c0e3f9" fill-rule="evenodd" transform="translate(1 1)"/><path d="m38.35.15-2 8.55q7.35 2.3 1.7 2.8-3.45.55 4.35 6.9.95 11.25 9.3 19.45-2.9-.15-3.5.9l13.45 12.3q5.4 13.75 6.5 25.6-42.8-2-68.15-46.9Q18.5 2.25 38.35.15" fill="#da781f" fill-rule="evenodd" transform="translate(1 1)"/><path d="M84.5 76.05q-5.7-3-7.8-7.05l3.35.4q5.25 3.45 5.8 6.55l-1.35.1" fill="#f8900b" fill-rule="evenodd" transform="translate(1 1)"/><path d="M39.45 1.15h-.1Q19.5 3.25 1 30.75q25.35 44.9 68.15 46.9l5.65.05 10.7-.65 1.35-.1-.4-9-.2-3.5-2.65 3.95-7.45-.5-3.45-16.2-10.2-8.75L69 44.2l3.1-4.85q-3.95.8-12.7-2.85l-1.6-3.25h7.1l-5.9-6.5h-4.25L61 18.7l-12-3.95-2.5-4.2 9.35 2.85Q52.05 3.35 41.5 1l-2.05.15z" fill="none" stroke="#b45c07" stroke-linecap="round" stroke-linejoin="round" stroke-width="2"/></g><g id="t"><path d="M7 1.3 8.65 0q10.7 3.2 23.3 9.75l.7 3.7Q19.6 5.9 7 1.3" fill="#3d83be" fill-rule="evenodd" transform="translate(1 1)"/><path d="M27.45 42.9Q16.9 36.75 10.4 31.05l10.35-4.25 2.6-8.75 2.4-.2L41 26.95l-6.75-.25-6.8 16.2" fill="#da781f" fill-rule="evenodd" transform="translate(1 1)"/><path d="M10.4 31.05q-4.3-3.8-6.85-7.4 2.7-4.35 17.2 3.15L10.4 31.05" fill="#4088c3" fill-rule="evenodd" transform="translate(1 1)"/><path d="M47.05 17.8q4.5 15.1-16.6 26.8l-3-1.7 6.8-16.2 6.75.25 5.05.2 1-5.75v-3.6m-43.5 5.85Q-5 11.4 7 1.3q12.6 4.6 25.65 12.15l.7 3.65-7.6.75-2.4.2-2.6 8.75q-14.5-7.5-17.2-3.15" fill="#3168a0" fill-rule="evenodd" transform="translate(1 1)"/><path d="m47.05 21.4-1 5.75-5.05-.2-15.25-9.1 7.6-.75-.7-3.65q6.45 3.7 14.4 7.95" fill="#f9980b" fill-rule="evenodd" transform="translate(1 1)"/><path d="M31.95 9.75q6.5 3.35 15.1 8.05v3.6q-7.95-4.25-14.4-7.95l-.7-3.7" fill="#fcc602" fill-rule="evenodd" transform="translate(1 1)"/><path d="M8 2.3 9.65 1q10.7 3.2 23.3 9.75 6.5 3.35 15.1 8.05m-16.6 26.8-3-1.7Q17.9 37.75 11.4 32.05q-4.3-3.8-6.85-7.4Q-4 12.4 8 2.3" fill="none" stroke="#18376e" stroke-linecap="round" stroke-linejoin="round" stroke-width="2"/><path d="m32.65 13.45-.7-3.7m-6.2 8.1-2.4.2-2.6 8.75-10.35 4.25m36.65-9.65v-3.6M41 26.95l5.05.2 1-5.75m-14.4-7.95.7 3.65-7.6.75M41 26.95l-6.75-.25-6.8 16.2" fill="none" stroke="#ac5c15" stroke-linecap="round" stroke-linejoin="round" transform="translate(1 1)"/></g><g id="u"><path d="m31.75 1.35 16.8-5.1q-15.4 24.7-26.5 31.95-3.35-2.5-5.55-5.5-1.85-2.4-2.95-5.1 7.8-9.45 18.2-16.25" fill="#3168a0" fill-rule="evenodd" transform="translate(1 4.75)"/><path d="m13.1 16.35-.35-1.05Q22.45 4.4 29.9 0l.9.65Q20.15 8 13.1 16.35" fill="#5aa6e0" fill-rule="evenodd" transform="translate(1 4.75)"/><path d="m30.8.65.95.7q-10.4 6.8-18.2 16.25l-.45-1.25Q20.15 8 30.8.65" fill="#3d88c1" fill-rule="evenodd" transform="translate(1 4.75)"/><path d="m31.8 5.4.95.7L49.55 1q-15.4 24.7-26.5 31.95m-9.3-12.9q9.7-10.9 17.15-15.3l.9.65" fill="none" stroke="#113887" stroke-linecap="round" stroke-linejoin="round" stroke-width="2"/><path d="M9.05 25.55q1.8-2.9 4.2-5.65l2.05-1q-2.9 3.25-3.2 5.4l-3.05 1.25m5.3 3.75 3.05-6.6 3.35-3.8q-3.55 6.9-6.2 14l-.2-3.6" fill="#fa960a" fill-rule="evenodd" transform="translate(1 4.75)"/><path d="M13.25 15q11.7-2.25 8.6 11.4l-1.1-7.5-3.35 3.8v-4.9l-2.1 1.1-2.05 1V15m7.65 14.75q-1.95 5.85-6.6 13.35-1.8 1.1-3.55 1.55l-2.4.2h-.1Q5.4 44.7 2.6 42.7q1.1-3.15.85-4.55l.35.35 2.8-2.1L8.7 39l.75-9.8-3.85 1.4q1.4-2.55 3.45-5.05l3.05-1.25 1.95-.8.3 5.8.2 3.6v.35l6.35-3.5" fill="#31689e" fill-rule="evenodd" transform="translate(1 4.75)"/><path d="M9.05 19.7q1.4-2.2 4.2-4.7v4.9q-2.4 2.75-4.2 5.65V19.7m12.8 6.7-.95 3.35-6.35 3.5v-.35q2.65-7.1 6.2-14l1.1 7.5" fill="#fec803" fill-rule="evenodd" transform="translate(1 4.75)"/><path d="m2.6 42.7-.9-.7 1.7-3.85h.05q.25 1.4-.85 4.55m6.45-20.2v3.05Q7 28.05 5.6 30.6l-.5-1.2q1.4-3.7 3.95-6.9" fill="#4088c2" fill-rule="evenodd" transform="translate(1 4.75)"/><path d="M1.7 42 0 40.4q.95-.25 1.7-2.5l-.05-1.5 1.75 1.7v.05L1.7 42m2.5-14.85Q6 23.8 9.05 19.7v2.8Q6.5 25.7 5.1 29.4l-.9-2.25" fill="#5da6db" fill-rule="evenodd" transform="translate(1 4.75)"/><path d="M1.65 36.4q0-4.55 2.55-9.25l.9 2.25q-1.55 4-1.7 8.65v.05l-1.75-1.7" fill="#faca04" fill-rule="evenodd" transform="translate(1 4.75)"/><path d="m5.6 30.6 3.85-1.4L8.7 39l-2.1-2.6-2.8 2.1-.35-.35-.05-.1q.15-4.65 1.7-8.65l.5 1.2" fill="#f99a0a" fill-rule="evenodd" transform="translate(1 4.75)"/><path d="m14.35 29.3-.3-5.8-1.95.8q.3-2.15 3.2-5.4l2.1-1.1v4.9l-3.05 6.6" fill="#da7821" fill-rule="evenodd" transform="translate(1 4.75)"/><path d="M9.05 19.7v5.85l3.05-1.25 1.95-.8.3 5.8.2 3.6v.35l6.35-3.5m-7.65-9.85V15m4.15 7.7v-4.9l-2.1 1.1-2.05 1M5.6 30.6l3.85-1.4L8.7 39l-2.1-2.6-2.8 2.1-.35-.35-.05-.05-1.75-1.7m19.1-17.5-3.35 3.8M4.2 27.15l.9 2.25.5 1.2m15.15-11.7 1.1 7.5" fill="none" stroke="#c5590e" stroke-linecap="round" stroke-linejoin="round" transform="translate(1 4.75)"/><path d="M10.05 24.45q1.4-2.2 4.2-4.7m8.6 11.4-.95 3.35q-1.95 5.85-6.6 13.35M1 45.15q.95-.25 1.7-2.5l-.05-1.5q0-4.55 2.55-9.25 1.8-3.35 4.85-7.45" fill="none" stroke="#113887" stroke-linecap="round" stroke-linejoin="round" stroke-width="2"/></g><g id="v"><path d="m12.5 37.6-7.05-4.4.15-9.4.85 2.45 10.5 2.45v6.4l-4.45 4.7v-2.2m13.15-26.1.85 1.3 9.5 4.6-4.45 4.7v-.25l-.7-.45-5.2-5.1v-4.8" fill="#fbd840" fill-rule="evenodd" transform="translate(1 1)"/><path d="m5.6 23.8-1.85-5.3L2.7 35q-.65.65-2.7.55l2.4-28L9.35 23.4l10.75 3.25v1.65l-3.15.4-10.5-2.45-.85-2.45m23.35.45-.05-1.4-8.3-4.4L21.95 0l6.4 10.45 10.4 4.8.15 3.05-2.9-.9-9.5-4.6-.85-1.3-1.4-2.15v7.9l6.6 4.15.7.7q-1.8.3-2.6 2.15" fill="#68d0f3" fill-rule="evenodd" transform="translate(1 1)"/><path d="m2.7 35 1.05-16.5 1.85 5.3-.15 9.4 7.05 4.4L2.7 35m28.15-13.6-6.6-4.15v-7.9l1.4 2.15v4.8l5.2 5.1" fill="#fffffa" fill-rule="evenodd" transform="translate(1 1)"/><path d="M31.55 22.1 36 17.4l.85 17.8L49 40.05l-1 4.35v.05l-13.7 14.2-21.8-7.85v-11l4.45-4.7v10.35l19.5 6.8 3.75-11.7-7.95-4.1-.7-14.35" fill="#faad07" fill-rule="evenodd" transform="translate(1 1)"/><path d="m2.7 35 9.8 2.6v13.2l21.8 7.85q-2.05 2.45-3.75 2.2L9.3 52.9l1.1-12.3L0 35.55q2.05.1 2.7-.55m14.25-6.3 3.15-.4v15.15l13.65 4.25 2-6.5L29.5 38l-.55-13.75q.8-1.85 2.6-2.15l.7 14.35 7.95 4.1-3.75 11.7-19.5-6.8V28.7" fill="#08aefc" fill-rule="evenodd" transform="translate(1 1)"/><path d="m38.9 18.3.6 14.35 11.75 4.9Q50.5 40.3 48 44.4l1-4.35-12.15-4.85L36 17.4l2.9.9" fill="#07adf9" fill-rule="evenodd" transform="translate(1 1)"/><path d="m51.25 37.55 1.95.8-5.95 26.5 6.45 6.45-3.6.55-7.05-6.15L48 44.45v-.05q2.5-4.1 3.25-6.85m-8.9 38.9-13.6-9.25 1.8-6.35q1.7.25 3.75-2.2l-1.35 7.3 11.2 7.75q-1.5 0-1.8 2.75" fill="#3f87c2" fill-rule="evenodd" transform="translate(1 1)"/><path d="M34.3 58.65 48 44.45 43.05 65.7l7.05 6.15.3.25 2.6 6.05 2.25-3.1.4 4.4L61 73.3l-4.2 10.85 6.8 13.05.4 7.5-11.05-16.6-8.35 3 4.2-5.75-5.7-2.05 3.55-1.95-2.5-7.65-11.2-7.75 1.35-7.3" fill="#f69209" fill-rule="evenodd" transform="translate(1 1)"/><path d="m53.7 71.3 3.5-4.55.4 6.9 13.1-12.3L60.25 84.9l19.95 33.35-5.65 15.85v-13.7L67.9 116q-8.35-13.75-17.05-24.75l-13.15 5.7 6.45-10.5-12.9-4.5 11.7-1.75-.6-3.75q.3-2.75 1.8-2.75l2.5 7.65-3.55 1.95 5.7 2.05-4.2 5.75 8.35-3L64 104.7l-.4-7.5-6.8-13.05L61 73.3l-5.35 6.15-.4-4.4-2.25 3.1-2.6-6.05-.3-.25 3.6-.55m24.9 45.55-10.15-5L64 104.7l4.45 7.15 10.15 5" fill="#245892" fill-rule="evenodd" transform="translate(1 1)"/><path d="m5.6 23.8-1.85-5.3L2.7 35l9.8 2.6v13.2l21.8 7.85-1.35 7.3 11.2 7.75 2.5 7.65-3.55 1.95 5.7 2.05-4.2 5.75 8.35-3L64 104.7l-.4-7.5-6.8-13.05L61 73.3l-5.35 6.15-.4-4.4-2.25 3.1-2.6-6.05-.3-.25-7.05-6.15L48 44.45M5.6 23.8l.85 2.45 10.5 2.45v16.75l19.5 6.8 3.75-11.7-7.95-4.1-.7-14.35v-.25l-.7-.45-6.6-4.15v-7.9l1.4 2.15.85 1.3 9.5 4.6.85 17.8L49 40.05l-1 4.35m16 60.3 4.45 7.15 10.15 5" fill="none" stroke="#cb5805" stroke-linecap="round" stroke-linejoin="round" transform="translate(1 1)"/><path d="M21.1 29.3v-1.65L10.35 24.4 3.4 8.55l-2.4 28 10.4 5.05-1.1 12.3 21.25 7.95-1.8 6.35 13.6 9.25.6 3.75-11.7 1.75 12.9 4.5-6.45 10.5 13.15-5.7q8.7 11 17.05 24.75l6.65 4.4v13.7l5.65-15.85L61.25 85.9 71.7 62.35l-13.1 12.3-.4-6.9-3.5 4.55-6.45-6.45 5.95-26.5-1.95-.8-11.75-4.9-.6-14.35-.15-3.05-10.4-4.8L22.95 1 21.6 19.45l8.3 4.4.05 1.4L30.5 39l6.25 3.2-2 6.5-13.65-4.25V29.3z" fill="none" stroke="#123680" stroke-linecap="round" stroke-linejoin="round" stroke-width="2"/><path d="m65.05 90.15 1.1-1.5.35-.5q-1.9-.1-4.2.65l-.55-1.15q2.1-2 7.1-2-.9.05.7.85-2 5.25-6.45 6.5-4.2 2.75-2.7 7.4l-.05 1.1q-.35 1.15-1.85-.3l-.25-.65q-2.15-6.5 4.95-9.65l1.85-.75" fill="#5aa2dc" fill-rule="evenodd" transform="translate(1 1)"/><path d="m66.15 88.65-1.1 1.5-1.85.75-.7-1.65q2-.85 3.65-.6M58.5 101.2q1.5 1.45 1.85.3 8.75 1.8 7.2-6.95-.5-2.6 3-8.05 7.95 3.7 11.15 4.25.55 10.7-2.65 20.3-9.5 1.9-12-6.6-6.5 1.95-8.55-3.25m6.45 12.05q-2.05-.9-3.15-3-6.15.5-7.75-4.25-3.05-3.6-1.55-7.45 1.35 3.75 5.25 3.55l.4 1.2q4.2 5 6.8 9.95" fill="#3168a0" fill-rule="evenodd" transform="translate(1 1)"/><path d="m60.35 101.5.05-1.1q-1.5-4.65 2.7-7.4 4.45-1.25 6.45-6.5h1q-3.5 5.45-3 8.05 1.55 8.75-7.2 6.95m1.95-12.7q2.3-.75 4.2-.65l-.35.5q-1.65-.25-3.65.6l-.2-.45" fill="#3f87c1" fill-rule="evenodd" transform="translate(1 1)"/><path d="M57.75 102.1q-3.9.2-5.25-3.55l.2-.55q-.1 1.3 2.4 1 1.45 1.2 1.85.3l.2.95.6 1.85" fill="#4187c2" fill-rule="evenodd" transform="translate(1 1)"/><path d="M52.7 98q.5-1.1 1.35-2.25 2.25 1.3 2.9 3.55-.4.9-1.85-.3-2.5.3-2.4-1" fill="#5ba6e0" fill-rule="evenodd" transform="translate(1 1)"/><path d="M69.85 86.65q-5 0-7.1 2m-9.25 10.9Q52 103.4 55.05 107q1.6 4.75 7.75 4.25 1.1 2.1 3.15 3M53.5 99.55l.2-.55q.5-1.1 1.35-2.25" fill="none" stroke="#113887" stroke-linecap="round" stroke-linejoin="round" stroke-width="2"/><path d="m65.05 90.15-1.85.75q-7.1 3.15-4.95 9.65l.25.65q2.05 5.2 8.55 3.25 2.5 8.5 12 6.6" fill="none" stroke="#113887" stroke-linecap="round" stroke-linejoin="round" transform="translate(1 1)"/></g><g id="N" fill-rule="evenodd"><path d="m18.45 20.35-4.2-2-1.25-6 4.55-1.7-1.8-5.6.5 5-4.6 2.25 1.6 6.05-.95-.4-1.45-6.1 4.75-2.3L12.95.8l1.7-.8 3.95 11-4.75 2.2 1.6 4.8 3.2 1.15-.2 1.2" fill="#fcef14"/><path d="m12.3 17.95.95.4-1.6-6.05 4.6-2.25-.5-5 1.8 5.6-4.55 1.7 1.25 6 4.2 2-1.5 9.05 6.3 3.55-.6 1-7.25-4v-6.3L10 27.4l-2.85-2.3-.7.6-5.5 4.4-.95-.9 6.75-6.15 2.8 2.8 5.6-4.65 1-1L4.2 16.55l.5-.85 7.6 2.25" fill="#fffefa"/><path d="m4.2 16.55 11.95 3.65-1 1-11.5-3.8.55-.85" fill="#f7df01"/><path d="m6.45 25.7.7-.6L10 27.4l5.4-3.75v.8L9.55 29.2l-3.1-3.5" fill="#fceb29"/><path d="M15.4 24.45v5.5l7.25 4-.6 1-7.8-4.1v-4.2l1.15-2.2" fill="#f9e620"/><path d="m.95 30.1 5.5-4.4 3.1 3.5 5.85-4.75-1.15 2.2-4.65 4.2-3.05-3.6-4.6 3.8-1-.95" fill="#fec600"/></g><g id="z"><path d="M69.95 19q3.4.6 6.45 1.85 13.85 14.1 13.05 42.25-2.95 8.2-9.85 15.2 13.5-35-9.65-59.3m9 25.5-3.6 6.8-4.5-5.55-3.55 6.65-6.2-5.7 2.6-6.3 6 3.7-.55-12q4.8 6.5 7.85 6.45l1.95 5.95M64.5 42.4l-1.75 4.45 4.25 3.3 2.2-4.9-4.7-2.85M8.65 30.55q-2.5 1.6-4.1 5.8l-.2.3.8-3.85 5.3-8.95-1.8 6.7M4.2 37.4v.15l-.1.25.05-.15.05-.35v.1l-.05.25.05-.25m-1.05 7.1q.55 2.05 1.25 3.45.65 1.3 1.4 2Q5.2 62.3 8.4 72.5q-1.65-.5-3.25-1.8l-.75-2.2q-2.95-9.95-1.25-24" fill="#fec803" fill-rule="evenodd" transform="translate(1 .45)"/><path d="M45 .05q6.05-.2 12.8 1.2 6.1 1.8 11.3 4.35 9 4.4 15 10.8l-1.4 8.15q-2.95-2.25-6.3-3.7-3.05-1.25-6.45-1.85-2.4-1.05-4.1.8l-3.95-4.6q-5.05-5.55-9.7-9.6Q48.45 2.35 45 .05m48.25 29.6q2.45 5.25 3.95 11.3l1.2 6.1.6 4.9-.6 3.75-1.2 5.5q-6.3 24.6-26.7 35.55-4.75 1.75-9.65 2.85-.9.2-2.05 1.1-14.35 3.75-28.9-1.1l-2.1-.6q-5.1-1.4-11.4-6-5.8-3.25-9.8-10.5 5.8 5.45 10.9 8.05.7-2.7 1.8-3.1-2-2.95 0-4.9l.5.4q4.3 3.55 9.3 5.6 4.6 1.8 9.75 2.3l1.4.15v6.6q25.1-1.95 39.35-19.3 6.9-7 9.85-15.2 4.3-11.85.4-26.3l3.4-7.15" fill="#3168a0" fill-rule="evenodd" transform="translate(1 .45)"/><path d="M76.4 20.85q3.35 1.45 6.3 3.7 3.2 3.1 7.15 12.25 3.9 14.45-.4 26.3.8-28.15-13.05-42.25" fill="#f89909" fill-rule="evenodd" transform="translate(1 .45)"/><path d="M84.1 16.4q5.7 5.95 9.15 13.25l-3.4 7.15q-3.95-9.15-7.15-12.25l1.4-8.15m-8.75 18.35-7.8-7.2v9.65q-9.5-7.5-9.7 2-.35 18.05-17.35 29.1l-1.65-1.35L34.25 77l3.45 1.75-2.5 5.65h3.65v6.45q-5.15-.5-9.75-2.3-3.3-8.65-.85-23Q20.6 66 16.7 60.9l1.05-4.5q1.6-11.15-6.35-23.35.9-4.3 2.1-8.9Q37.4 33.6 62 30.8v-5.95l6.05-2.15q4.4 5.95 7.3 12.05" fill="#da781f" fill-rule="evenodd" transform="translate(1 .45)"/><path d="M16.9 12.2q3.9-3.95 8.35-6.6Q34.05.3 45 .05q3.45 2.3 7.2 5.55 4.65 4.05 9.7 9.6l3.95 4.6 2.2 2.9L62 24.85v5.95q-24.6 2.8-48.5-6.65l2.05-7.6 1.35-4.35" fill="#c56c1a" fill-rule="evenodd" transform="translate(1 .45)"/><path d="m72.55 49.55-.75-1.35-2.2 8.95-11.45-9.95 4.8-9.95 4.6 3.05V27.55l7.8 7.2 1.65 3.8q-3.05.05-7.85-6.45l.55 12-6-3.7-2.6 6.3 6.2 5.7 3.55-6.65 4.5 5.55 3.6-6.8.4 1.55L76.2 56l-3.65-6.45M40.5 68.3l9.4 7.55-3.75 1.8 5.95 6.75h-4.45L49 90.65l-1.9.2-.5.05-1.2-7.2 2.65-.45-4.9-5 3.15-2.65-6.6-5.45-3.2 6.05 2.25 2.05-1.95 5.15 3 .4 1.4 7.25-.95-.05-1.4-.15V84.4H35.2l2.5-5.65L34.25 77l4.6-10.05 1.65 1.35m24-25.9 4.7 2.85-2.2 4.9-4.25-3.3 1.75-4.45M40.45 77.95 37.8 75.7l2.1-3.6 3.3 3.5-2.75 2.35" fill="#f7e401" fill-rule="evenodd" transform="translate(1 .45)"/><path d="M67.55 37.2v3.1l-4.6-3.05-4.8 9.95 11.45 9.95 2.2-8.95.75 1.35Q78.2 81.75 52.1 84.4l-5.95-6.75 3.75-1.8-9.4-7.55q17-11.05 17.35-29.1.2-9.5 9.7-2" fill="#e79e4f" fill-rule="evenodd" transform="translate(1 .45)"/><path d="M65.85 19.8q1.7-1.85 4.1-.8Q93.1 43.3 79.6 78.3 65.35 95.65 40.25 97.6V91l.95.05 5.4-.15.5-.05 1.9-.2q14.65-1.9 24.05-11.7 10-10.5 7.15-28.6l-.85-4.3-.4-1.55L77 38.55l-1.65-3.8q-2.9-6.1-7.3-12.05l-2.2-2.9" fill="#4288c4" fill-rule="evenodd" transform="translate(1 .45)"/><path d="M99 51.95q.45 4.8.4 10.05l-1 5.7-1.2 4.4Q93.7 83 85.8 89.2q-7.45 4.65-15.3 7.55Q90.9 85.8 97.2 61.2l1.2-5.5.6-3.75" fill="#5ea6e0" fill-rule="evenodd" transform="translate(1 .45)"/><path d="M72.55 49.55 76.2 56l3.15-9.95.85 4.3q2.85 18.1-7.15 28.6-9.4 9.8-24.05 11.7l-1.35-6.25h4.45q26.1-2.65 20.45-34.85" fill="#d8791f" fill-rule="evenodd" transform="translate(1 .45)"/><path d="M.8 65.75Q-1.9 49.9 4.4 31.6l1-2.8 1.35-2.55-1.6 6.55-.8 3.85-.1.4v.15l-.05.1-.05.35-.05.15.1-.25q-.7 3.6-1.05 6.95-1.7 14.05 1.25 24l.75 2.2-.75-.65Q2.6 68.4.8 65.75M12.55 17.2q2.1-2.7 4.35-5l-1.35 4.35-2.05 7.6q-1.2 4.6-2.1 8.9-2.95 14-2.95 24.4l.15 3.8.05.35q.55 6.05 2.95 11.05l-3.2-.15Q5.2 62.3 5.8 49.95q.4-9.1 2.85-19.4l1.8-6.7 2.1-6.65m-8.3 19.85v.15-.15" fill="#80bae2" fill-rule="evenodd" transform="translate(1 .45)"/><path d="M6.75 26.25q2.7-5 5.8-9.05l-2.1 6.65-5.3 8.95 1.6-6.55" fill="#f99a0a" fill-rule="evenodd" transform="translate(1 .45)"/><path d="m4.35 36.65.2-.3q1.6-4.2 4.1-5.8-2.45 10.3-2.85 19.4-.75-.7-1.4-2-.7-1.4-1.25-3.45.35-3.35 1.05-6.95v-.15l.05-.3-.05.3v-.1l.05-.1v-.15l.1-.4" fill="#ffedb3" fill-rule="evenodd" transform="translate(1 .45)"/><path d="m17.75 56.4-1.05 4.5-.9 2.3-2.25-3.75L12.4 62l-1.15 2.55-2.45-3.1h-.05l1.6-1.8.65 1.45 2.5-3.6 1.95 3.1 2.3-4.2" fill="#f7e505" fill-rule="evenodd" transform="translate(1 .45)"/><path d="m8.8 61.45 2.45 3.1L12.4 62l6.9 6q-3.3 6.05 1 11.4-2.2 1.6-1 3.15-5-4.25-7.7-9.9-2.4-5-2.95-11.05l.15-.15" fill="#fdd29f" fill-rule="evenodd" transform="translate(1 .45)"/><path d="m17.75 56.4-2.3 4.2-1.95-3.1-2.5 3.6-.65-1.45-1.6 1.8-.15-.2-.15-3.8q0-10.4 2.95-24.4 7.95 12.2 6.35 23.35" fill="#fcc602" fill-rule="evenodd" transform="translate(1 .45)"/><path d="m6.6 82.5-2-4.1-.2-.45q-2.5-5.9-3.6-12.2 1.8 2.65 3.6 4.3l.75.65q2.5 6.85 7.4 11.55Q10 77.65 8.4 72.5l3.2.15q2.7 5.65 7.7 9.9-2 1.95 0 4.9-1.1.4-1.8 3.1-5.1-2.6-10.9-8.05" fill="#3f87c1" fill-rule="evenodd" transform="translate(1 .45)"/><path d="M29.1 88.55q-5-2.05-9.3-5.6l-.5-.4q-1.2-1.55 1-3.15-4.3-5.35-1-11.4l-6.9-6 1.15-2.55 2.25 3.75.9-2.3q3.9 5.1 11.55 4.65-2.45 14.35.85 23" fill="#eaa152" fill-rule="evenodd" transform="translate(1 .45)"/><path d="m46.6 90.9-5.4.15-1.4-7.25-3-.4 1.95-5.15-2.25-2.05 3.2-6.05 6.6 5.45-3.15 2.65 4.9 5-2.65.45 1.2 7.2m-6.15-12.95 2.75-2.35-3.3-3.5-2.1 3.6 2.65 2.25" fill="#f8970a" fill-rule="evenodd" transform="translate(1 .45)"/><path d="M8.4 72.5q1.6 5.15 4.15 9.75-4.9-4.7-7.4-11.55 1.6 1.3 3.25 1.8" fill="#f8990b" fill-rule="evenodd" transform="translate(1 .45)"/><path d="M45 .05q3.45 2.3 7.2 5.55 4.65 4.05 9.7 9.6l3.95 4.6 2.2 2.9q4.4 5.95 7.3 12.05l-7.8-7.2V40.3l-4.6-3.05-4.8 9.95 11.45 9.95 2.2-8.95.75 1.35L76.2 56l3.15-9.95-.4-1.55L77 38.55l-1.65-3.8M69.95 19q3.4.6 6.45 1.85 3.35 1.45 6.3 3.7l1.4-8.15M40.5 68.3l9.4 7.55-3.75 1.8 5.95 6.75h-4.45L49 90.65l-1.9.2-.5.05-5.4.15-.95-.05-1.4-.15q-5.15-.5-9.75-2.3-5-2.05-9.3-5.6l-.5-.4q-5-4.25-7.7-9.9-2.4-5-2.95-11.05l-.05-.35.15.2h.05l2.45 3.1L12.4 62l1.15-2.55 2.25 3.75.9-2.3 1.05-4.5q1.6-11.15-6.35-23.35.9-4.3 2.1-8.9l2.05-7.6 1.35-4.35m72.95 24.6 3.4-7.15m-3.4 7.15q3.9 14.45-.4 26.3-2.95 8.2-9.85 15.2 13.5-35-9.65-59.3m9.4 27.05.85 4.3q2.85 18.1-7.15 28.6-9.4 9.8-24.05 11.7M8.65 30.55l1.8-6.7 2.1-6.65m-7.4 15.6-.8 3.85-.1.4v.05l-.05.3v.15q-.7 3.6-1.05 6.95-1.7 14.05 1.25 24l.75 2.2q2.5 6.85 7.4 11.55Q10 77.65 8.4 72.5 5.2 62.3 5.8 49.95q.4-9.1 2.85-19.4m-4.4 6.65v-.15m0 .15-.05.1-.05.35-.05.15.1-.25m0-.15-.05.25m2.6-11.4-1.6 6.55M40.5 68.3l-1.65-1.35L34.25 77l3.45 1.75-2.5 5.65h3.65v6.45M8.6 61.25l-.15-3.8q0-10.4 2.95-24.4" fill="none" stroke="#ae5c13" stroke-linecap="round" stroke-linejoin="round" transform="translate(1 .45)"/><path d="m100.4 62.45-1 5.7-1.2 4.4q-3.5 10.9-11.4 17.1-7.45 4.65-15.3 7.55-4.75 1.75-9.65 2.85-.9.2-2.05 1.1-14.35 3.75-28.9-1.1l-2.1-.6q-5.1-1.4-11.4-6-5.8-3.25-9.8-10.5l-2-4.1-.2-.45q-2.5-5.9-3.6-12.2-2.7-15.85 3.6-34.15l1-2.8" fill="none" stroke="#113885" stroke-linecap="round" stroke-linejoin="round" stroke-width="2"/></g><g id="A"><path d="m29.75 25.65 2.6-.45q9.3 12.35 3.15 18.9 1.5-12.75-5.75-18.45" fill="#92d1fd" fill-rule="evenodd" transform="translate(.05 1)"/><path d="M13.1 34.2q7.45-6.6 16.65-8.55Q37 31.35 35.5 44.1q-.9 1-2.2 1.85l-.05-1.35q1.85-5.45-1.4-8.7-2.2-1.3-1.6 1.3l1 2.15q1.6 12.85-6.8 15.4l-.65-.05q-9.1-.5-7.85-6.9 1.15 3.95 6 3.5 5.4-.05 4.2-10-1.8.15-4-3.25-6.9-.3-9.05-3.85m16.85 3.35q0-.8-.6-1.4-.55-.55-1.35-.55t-1.4.55q-.55.6-.55 1.4 0 .8.55 1.35.6.6 1.4.6.8 0 1.35-.6.6-.55.6-1.35" fill="#3f87c1" fill-rule="evenodd" transform="translate(.05 1)"/><path d="M29.95 37.55q0 .8-.6 1.35-.55.6-1.35.6t-1.4-.6q-.55-.55-.55-1.35t.55-1.4q.6-.55 1.4-.55.8 0 1.35.55.6.6.6 1.4" fill="#88cbff" fill-rule="evenodd" transform="translate(.05 1)"/><path d="m31.85 40.6-.6-1.25-1-2.15q-.6-2.6 1.6-1.3 3.25 3.25 1.4 8.7-.25-2.45-1.4-4" fill="#33669f" fill-rule="evenodd" transform="translate(.05 1)"/><path d="M33.3 45.95q-.45 8.9-8.85 8.8 8.4-2.55 6.8-15.4l.6 1.25q1.15 1.55 1.4 4l.05 1.35" fill="#89cdfc" fill-rule="evenodd" transform="translate(.05 1)"/><path d="M15.95 47.8q-4.65 1.55-6.6-.2-2.55-2.65-.6-9 2.1-2.4 4.35-4.4 2.15 3.55 9.05 3.85 2.2 3.4 4 3.25 1.2 9.95-4.2 10-4.85.45-6-3.5.8-1.35 2.9-1.4-.15-2.6-2.9-1.1.95.5 0 2.5.95-2 0-2.5 2.75-1.5 2.9 1.1-2.1.05-2.9 1.4m-2.3-4.5q-.05-1.1-.65-1.55l-1.35-.95q-.75-.5-1.35.3-.55.85-.55 2.05 0 1.2.55 2 .6.85 1.4.85.8 0 1.35-.85.6-.8.6-1.85" fill="#3168a0" fill-rule="evenodd" transform="translate(.05 1)"/><path d="M13.65 43.3q0 1.05-.6 1.85-.55.85-1.35.85t-1.4-.85q-.55-.8-.55-2t.55-2.05q.6-.8 1.35-.3l1.35.95q.6.45.65 1.55" fill="#3c84bf" fill-rule="evenodd" transform="translate(.05 1)"/><path d="M15.95 47.8q.95-2 0-2.5 2.75-1.5 2.9 1.1-2.1.05-2.9 1.4m15.9-7.2q1.15 1.55 1.4 4l.05 1.35" fill="none" stroke="#18376e" stroke-linecap="round" stroke-linejoin="round" transform="translate(.05 1)"/><path d="M32.4 26.2q9.3 12.35 3.15 18.9-.9 1-2.2 1.85-.45 8.9-8.85 8.8l-.65-.05q-9.1-.5-7.85-6.9-4.65 1.55-6.6-.2-2.55-2.65-.6-9" fill="none" stroke="#18376e" stroke-linecap="round" stroke-linejoin="round" stroke-width="2"/><path d="M16.55 2.3 18 3.4q5.35 8.35-2.3 14.6-6.95 3.8-5.2 12.4 1.75 6.85 10.7 7.2-5.65 1.75-12.65.6Q4.05 36 3.35 28 1.2 23.05.45 19q2.5-4.45 4.65-10.8l7.55 1.15h3.9V2.3M3.25 22.9q-.1 2.8.1 5.1-.2-2.3-.1-5.1" fill="#3168a0" fill-rule="evenodd" transform="translate(.05 1)"/><path d="M16.55 0v2.3L12.1 1l4.45-1" fill="#fec804" fill-rule="evenodd" transform="translate(.05 1)"/><path d="M16.55 2.3V0Q24.8 4.35 28.5 10.5l-.9 5.95Q24.65 8.75 18 3.4l-1.45-1.1" fill="#9cd6fb" fill-rule="evenodd" transform="translate(.05 1)"/><path d="m12.1 1 4.45 1.3v7.05h-3.9Q7.9 6.15 3.95 5.1 7.6 2.05 12.1 1" fill="#f9980b" fill-rule="evenodd" transform="translate(.05 1)"/><path d="M12.65 9.35 5.1 8.2Q2.95 14.55.45 19q-1.8-9.5 3.5-13.9 3.95 1.05 8.7 4.25" fill="#d9771e" fill-rule="evenodd" transform="translate(.05 1)"/><path d="M18 3.4q6.65 5.35 9.6 13.05l-.8 5.05-10.5-1.1-.45 11.25 5.8-4.1 8.15 3 1.35-2.7q1.2.65 1.35 1.65-4.75 6-11.3 8.1-8.95-.35-10.7-7.2-1.75-8.6 5.2-12.4 7.65-6.25 2.3-14.6" fill="#3d85bf" fill-rule="evenodd" transform="translate(.05 1)"/><path d="m29.8 30.55-8.15-3-5.8 4.1.45-11.25 10.5 1.1.8-5.05q2.35 6.25 2.2 14.1" fill="#f7980a" fill-rule="evenodd" transform="translate(.05 1)"/><path d="m27.6 16.45.9-5.95q3.55 6 2.75 13.75l1.2.95-1.3 2.65-1.35 2.7q.15-7.85-2.2-14.1" fill="#ffc605" fill-rule="evenodd" transform="translate(.05 1)"/><path d="M32.5 29.5q-.15-1-1.35-1.65l1.3-2.65q1 1 1.5 2.3l-1.45 2" fill="#8fceff" fill-rule="evenodd" transform="translate(.05 1)"/><path d="M16.55 0v9.35h-3.9L5.1 8.2Q2.95 14.55.45 19m27.15-2.55.9-5.95m2.65 17.35-1.35 2.7-8.15-3-5.8 4.1.45-11.25 10.5 1.1.8-5.05m4.85 8.75-1.3 2.65" fill="none" stroke="#b05e14" stroke-linecap="round" stroke-linejoin="round" transform="translate(.05 1)"/><path d="M28.55 11.5Q24.85 5.35 16.6 1M3.4 29q-.2-2.3-.1-5.1m29.2 2.3-1.2-.95q.8-7.75-2.75-13.75m5.45 17q-.5-1.3-1.5-2.3M3.4 29q.7 8 5.2 10.2" fill="none" stroke="#18376e" stroke-linecap="round" stroke-linejoin="round" stroke-width="2"/></g><g id="B"><path d="M66.45 8.95q-6.2-4-11.65-8.05l.5-.9q10.65 5.7 24 14.9.55 1.3-1.8 3.25V15.6l-.5-.3q-5.55-3.15-10.55-6.35" fill="#9dd7fc" fill-rule="evenodd" transform="translate(1 1)"/><path d="M54.8.9q5.45 4.05 11.65 8.05-2.55 2.85 6.25 7.4-5.5 1.85-13.6 6.8l-12.85 1-3.6-2.55-.8 1.4-3.95 6.7 4.75 3.85 1.15.9 3.95-2.3q.3 1.9-.25 6.35-4.85-.35-9.35-4.25L36.7 32.5q-3.6-4.15-7.2-4.8l-2.65-.05q-1.5-.8-3.2-1L20 25.55l-3.05-.9-2.5 5.8q-2.9.7-5.45 1.85-3.4-3.1-4.8 2.75L1.5 37.3q2.55-5.4 3-10.2l4.7 3.5 1.05-.65 3.6-2.25.4-6.75q.65-4.8-2.25-9.65Q18.55 8.95 25.1 7q15-4.5 30.2-7l-.5.9-12.15 20.7L54.8.9" fill="#da781f" fill-rule="evenodd" transform="translate(1 1)"/><path d="m77 15.3.5.3v2.55l-2.2-1.35q-9.6 5.05-18.5 10.1 2.25-2.55-.9-1.7 1.65-1.1 3.2-2.05 8.1-4.95 13.6-6.8 2.4-.85 4.3-1.05m-.8 1-.9.5.9-.5" fill="#fbc105" fill-rule="evenodd" transform="translate(1 1)"/><path d="M55.9 25.2q3.15-.85.9 1.7l-6.2 3.55-1.1-.95 1.1.95-2.85 1.7-3.95 2.3-1.15-.9q1.3-2.6 6.85-4.05l2.2-1.5 4.2-2.8" fill="#fbe57f" fill-rule="evenodd" transform="translate(1 1)"/><path d="m46.25 24.15 12.85-1q-1.55.95-3.2 2.05L51.7 28l-5.45-3.85m-3.1 0 5.35 4.5-2.95 1.45q-3-.9-3.55-2.25-.85-2.25 1.15-3.7" fill="#f8970a" fill-rule="evenodd" transform="translate(1 1)"/><path d="m42.65 21.6 3.6 2.55L51.7 28l-2.2 1.5-1-.85 1 .85q-5.55 1.45-6.85 4.05L37.9 29.7l3.95-6.7.8-1.4m.5 2.55L41.85 23l1.3 1.15q-2 1.45-1.15 3.7.55 1.35 3.55 2.25l2.95-1.45-5.35-4.5" fill="#fdc609" fill-rule="evenodd" transform="translate(1 1)"/><path d="M29.5 27.7q3.6.65 7.2 4.8l1.45 1.75q4.5 3.9 9.35 4.25l-.35 2.6q-2-1.65-8.7-2.25L36.7 37.6l-2.95-2.75q-2-4.6-4.25-7.15M4.2 35.05Q5.6 29.2 9 32.3q-2.6 1.15-4.8 2.75m10.25-4.6 2.5-5.8 3.05.9q-2.7 1.45-5.55 4.9" fill="#fb960a" fill-rule="evenodd" transform="translate(1 1)"/><path d="M29.5 27.7q2.25 2.55 4.25 7.15l2.95 2.75 1.75 1.25q6.7.6 8.7 2.25-5.55.15-10.45-.2l-6.65-.75.7-1.35q.65-1.55.65-3.4 0-3.65-2.6-6.25l-1.95-1.5 2.65.05m-28 9.6 2.7-2.25q2.2-1.6 4.8-2.75 2.55-1.15 5.45-1.85Q17.3 27 20 25.55l3.65 1.1-1.05-.05-.55.05q-3.3.15-5.7 2.5-2.35 2.4-2.5 5.75l-.05.5.2 1.95q-6-.5-12.5-.05" fill="#f9ca00" fill-rule="evenodd" transform="translate(1 1)"/><path d="M66.45 8.95q5 3.2 10.55 6.35-1.9.2-4.3 1.05-8.8-4.55-6.25-7.4" fill="#fc950a" fill-rule="evenodd" transform="translate(1 1)"/><path d="M7.3 13.7q2.1-1.45 4.7-2.4 2.9 4.85 2.25 9.65l-2 1.35-4.85 3.3-.65.45-.25-.35q-.75-4.95.05-9.05.25-1.55.75-2.95" fill="#db771f" fill-rule="evenodd" transform="translate(1 1)"/><path d="M23.65 26.65q1.7.2 3.2 1l1.95 1.5q2.6 2.6 2.6 6.25 0 1.85-.65 3.4-.65-8.15-5.6-9.75l-1.25-.3q-1.1 1.35-2.6.45-2.9.7-5.1 2.75-1.3 1.2-2.35 2.95.15-3.35 2.5-5.75 2.4-2.35 5.7-2.5l.55-.05 1.05.05m-2.5 1.05q0 .4.25.65l.7.3.65-.3.3-.65-.3-.7q-.25-.25-.65-.25t-.7.25l-.25.7" fill="#fec601" fill-rule="evenodd" transform="translate(1 1)"/><path d="m21.15 27.7.25-.7q.3-.25.7-.25.4 0 .65.25l.3.7-.3.65-.65.3-.7-.3q-.25-.25-.25-.65" fill="#ffeab3" fill-rule="evenodd" transform="translate(1 1)"/><path d="M25.15 29.05q-1.2 2.1-3.5 1.25-2.85 2.25-5.45 1.65 2.2-2.05 5.1-2.75 1.5.9 2.6-.45l1.25.3" fill="#fc970b" fill-rule="evenodd" transform="translate(1 1)"/><path d="m14 37.35-.2-1.95.05-.5q1.05-1.75 2.35-2.95 2.6.6 5.45-1.65 2.3.85 3.5-1.25 4.95 1.6 5.6 9.75l-.7 1.35-5.35-1.05q-5.15-1.3-10.7-1.75" fill="#dd7a1d" fill-rule="evenodd" transform="translate(1 1)"/><path d="M6.5 25.7q-1-1.35-3.3-3.2-.2-2.95 3.35-5.85-.8 4.1-.05 9.05" fill="#fa960c" fill-rule="evenodd" transform="translate(1 1)"/><path d="m10.25 29.95-1.05.65-4.7-3.5.1-1.3Q2.3 24.45 0 22.3l.85-1.65L3.2 22.5q2.3 1.85 3.3 3.2l.25.35-.75.5-1.4-.75 1.4.75.75-.5q3.55 2.65 3.5 3.9" fill="#fbecb5" fill-rule="evenodd" transform="translate(1 1)"/><path d="m7.4 25.6 4.85-3.3v3.45l-2.9 1.7L7.4 25.6" fill="#f59606" fill-rule="evenodd" transform="translate(1 1)"/><path d="m14.25 20.95-.4 6.75-3.6 2.25q.05-1.25-3.5-3.9l.65-.45 1.95 1.85 2.9-1.7V22.3l2-1.35M3.2 22.5.85 20.65Q3.3 16.3 7.3 13.7q-.5 1.4-.75 2.95Q3 19.55 3.2 22.5" fill="#f7c105" fill-rule="evenodd" transform="translate(1 1)"/><path d="m55.3 0-.5.9-12.15 20.7-.8 1.4-3.95 6.7 4.75 3.85 1.15.9 3.95-2.3M75.3 16.8l.9-.5M41.85 23l1.3 1.15 5.35 4.5 1 .85 1.1.95M12 11.3q2.9 4.85 2.25 9.65l-.4 6.75-3.6 2.25-1.05.65-4.7-3.5m19.15-.45q1.7.2 3.2 1l1.95 1.5q2.6 2.6 2.6 6.25 0 1.85-.65 3.4l-.7 1.35M14 37.35l-.2-1.95.05-.5q.15-3.35 2.5-5.75 2.4-2.35 5.7-2.5l.55-.05 1.05.05M7.4 25.6l4.85-3.3 2-1.35M4.6 25.8l1.4.75.75-.5.65-.45" fill="none" stroke="#ae5c13" stroke-linecap="round" stroke-linejoin="round" transform="translate(1 1)"/><path d="M78.5 19.15q2.35-1.95 1.8-3.25Q66.95 6.7 56.3 1 41.1 3.5 26.1 8 19.55 9.95 13 12.3q-2.6.95-4.7 2.4-4 2.6-6.45 6.95L1 23.3q2.3 2.15 4.6 3.5l-.1 1.3q-.45 4.8-3 10.2 6.5-.45 12.5.05 5.55.45 10.7 1.75l5.35 1.05 6.65.75q4.9.35 10.45.2l.35-2.6q.55-4.45.25-6.35l2.85-1.7 6.2-3.55q8.9-5.05 18.5-10.1l2.2 1.35z" fill="none" stroke="#ae5c13" stroke-linecap="round" stroke-linejoin="round" stroke-width="2"/></g><g id="C"><path d="m16.2 48.95-.25-1.25-.05-.55v-.25q.1-2 1.5-3.4 1.5-1.5 3.65-1.5h.4q-.8 2.35-.9 4.5l-.05.8-.2.05-.85.1.05-.35v-.75q.05-1.55-.5-1.45-.5.05-.9 1.45l-.2.7-.2.95-1.5.95" fill="#fd5151" fill-rule="evenodd" transform="translate(1 1)"/><path d="m21.45 42 .4.05q1.65.25 2.85 1.45 1.5 1.5 1.5 3.65 0 1.05-.35 1.95-1.4-1.2-3.05-1.6l-1.85-.2h-.45l.05-.8q.1-2.15.9-4.5m-3.75 6 .2-.95.2-.7q.4-1.4.9-1.45.55-.1.5 1.45v.75l-.05.35-1.75.55m4.15-5.95q1.7 1.35 1.6 4.1.1-2.75-1.6-4.1" fill="#e3383e" fill-rule="evenodd" transform="translate(1 1)"/><path d="m25.85 49.1.5.45.4.45q1.15 7.1-2.5 10.35-1.5-.55-3.3-.55-2.7 0-4.7 1.2l-.7-.65q-1.95-1.95-2.2-4.6l.85.95q1.9 1.8 4.65 1.8 2.7 0 4.6-1.8 1.9-1.75 1.9-4.3l-.3-1.95q-.5-1.35-1.6-2.4l-.65-.55q1.65.4 3.05 1.6" fill="#3570a8" fill-rule="evenodd" transform="translate(1 1)"/><path d="m13.35 55.75-.05-.8q0-1.3.4-2.45.2 1.6 1.35 2.75 1.45 1.45 3.45 1.45t3.4-1.45q1.45-1.4 1.45-3.4v-.05q0-1.95-1.45-3.4l-1.6-1.05.2-.05h.45l1.85.2.65.55q1.1 1.05 1.6 2.4l.3 1.95q0 2.55-1.9 4.3-1.9 1.8-4.6 1.8-2.75 0-4.65-1.8l-.85-.95" fill="#3f9faf" fill-rule="evenodd" transform="translate(1 1)"/><path d="M13.7 52.5q.55-1.65 1.85-2.95l.65-.6 1.5-.95 1.75-.55.85-.1 1.6 1.05q1.45 1.45 1.45 3.4v.05q0 2-1.45 3.4-1.4 1.45-3.4 1.45t-3.45-1.45Q13.9 54.1 13.7 52.5m7.15-1.25q0-.7-.55-1.25-.5-.5-1.2-.5t-1.25.5q-.35.35-.45.8l-.05.45q0 .7.5 1.2.55.55 1.25.55t1.2-.55l.2-.15q.35-.45.35-1.05m-2.8 4.2-.3-.65-.6-.25q-.35 0-.65.25l-.25.65.25.6.65.3q.35 0 .6-.3l.3-.6" fill="#88cafe" fill-rule="evenodd" transform="translate(1 1)"/><path d="M20.85 51.25q0 .6-.35 1.05l-.2.15q-.5.55-1.2.55t-1.25-.55q-.5-.5-.5-1.2l.05-.45q.1-.45.45-.8.55-.5 1.25-.5t1.2.5q.55.55.55 1.25m-2.8 4.2-.3.6q-.25.3-.6.3l-.65-.3-.25-.6.25-.65q.3-.25.65-.25l.6.25.3.65" fill="#c5e7ff" fill-rule="evenodd" transform="translate(1 1)"/><path d="M26.75 50q1.85 2.1 1.85 4.95 0 3.15-2.25 5.4l-.7.65q-.65-.4-1.4-.65Q27.9 57.1 26.75 50" fill="#3e89c2" fill-rule="evenodd" transform="translate(1 1)"/><path d="m25.65 61 .5.3q1.1.8 1.65 1.75l-1.05-.8q-.85-.6-1.65-.85l-.7-.2.15.5q.75 3.4-2 3.6.45-1.7-.35-2.8-.9-1.15-3.3-1.6-1 .2-1.8.65-2.5 1.3-3.35 4.45l-.15-1q0-2.15 2.15-3.7l.5-.3q2-1.2 4.7-1.2 1.8 0 3.3.55.75.25 1.4.65" fill="#db1316" fill-rule="evenodd" transform="translate(1 1)"/><path d="m15.95 68.8-.2-.15q-1-.7-1.5-1.5l-.35-.7-.15-.45q.85-3.15 3.35-4.45.8-.45 1.8-.65 2.4.45 3.3 1.6.8 1.1.35 2.8 2.75-.2 2-3.6l-.15-.5.7.2q.8.25 1.65.85-.55.95 0 2.5.4 1.1-1 2.1l-1.3.7-.2-.1-2.4-.45.1-.7-.1-.9q-.2-1.1-1.05-1.65-1.15-.6-1.4-1.3l-.1-.7q-.75-.05-1 .4-.4.65.4 2.45-1.3-.15-3-1.2-.7 1.2-.45 2.3l.2.6q.4.9 1.65 1.75-.6.3-1.15.75" fill="#e13a41" fill-rule="evenodd" transform="translate(1 1)"/><path d="M27.8 63.05q.5.9.5 1.95 0 1.85-1.6 3.25l-.3.25-1.95-.95 1.3-.7q1.4-1 1-2.1-.55-1.55 0-2.5l1.05.8m-10.7 5q-1.25-.85-1.65-1.75l-.2-.6q-.25-1.1.45-2.3 1.7 1.05 3 1.2-.8-1.8-.4-2.45.25-.45 1-.4l.1.7q.25.7 1.4 1.3.85.55 1.05 1.65l.1.9-.1.7h-.5Q19 67 17.1 68.05" fill="#fb4f4f" fill-rule="evenodd" transform="translate(1 1)"/><path d="M13.05 72.4q.65-1.5 1.9-2.75l1-.85q.55-.45 1.15-.75Q19 67 21.35 67h.5l2.4.45q.6.75.55 2l-.1.45q-.5 2.65-2.7 4.25-2.2 1.55-4.25 1.55t-3.55-1.5q-.8-.8-1.15-1.8m2.85 1.4.2.5.55.25.5-.25.25-.5-.25-.55-.5-.2-.55.2-.2.55m1.95-4.85-.45.6-.2.75q0 .7.5 1.15.55.5 1.3.5t1.25-.5l.8-1.25.05-.15q.25-1-.15-1.6-.4-.6-1.4-.35-1.05.2-1.7.85" fill="#87c9fd" fill-rule="evenodd" transform="translate(1 1)"/><path d="M17.85 68.95q.65-.65 1.7-.85 1-.25 1.4.35.4.6.15 1.6l-.05.15-.8 1.25q-.5.5-1.25.5t-1.3-.5q-.5-.45-.5-1.15l.2-.75.45-.6M15.9 73.8l.2-.55.55-.2.5.2.25.55-.25.5-.5.25-.55-.25-.2-.5" fill="#c3e9ff" fill-rule="evenodd" transform="translate(1 1)"/><path d="m26.4 68.5.45.35q.15 1.05-.2 2.5-1.05 4.1-3.6 5.7-2.55 1.6-5.35 1.6t-4.75-1.95l-.65-.75q0-1.9.75-3.55.35 1 1.15 1.8 1.5 1.5 3.55 1.5T22 74.15q2.2-1.6 2.7-4.25l.1-.45q.05-1.25-.55-2l.2.1 1.95.95" fill="#419eaf" fill-rule="evenodd" transform="translate(1 1)"/><path d="m26.85 68.85.9.8q1.35 1.35 2.05 3-1.35 6.2-5.55 8.3-1.2-.5-2.5-.5-2.9 1.05-4.95 3.45l-1.85-1.45q-2.65-2.65-2.65-6.4v-.1l.65.75q1.95 1.95 4.75 1.95t5.35-1.6q2.55-1.6 3.6-5.7.35-1.45.2-2.5" fill="#3372a8" fill-rule="evenodd" transform="translate(1 1)"/><path d="M29.8 72.65q.6 1.55.6 3.4 0 3.75-2.65 6.4l-.45.45q-1.45-1.35-3.05-1.95 4.2-2.1 5.55-8.3" fill="#3d89c3" fill-rule="evenodd" transform="translate(1 1)"/><path d="m27.3 82.9 1.4 1.6q4.75 6.8 5.25 14.7-.7 7.5-6.65 4.8-2.9 2.7-6.9 1.3-1.2-.75-1.95-2.4-.65-1.45-1-3.55-1.65-3.45-1.05-8.65-1.2 3.05-1.1 7-1.15-3.1-.5-7.5-1.4 3.35-1.15 8.4-1.05-3.1-.25-8.25 1.2-3.95 3.4-6.45 2.05-2.4 4.95-3.45 1.3 0 2.5.5 1.6.6 3.05 1.95m-9.3 3 .4-1.25q1.15-3.05 3.35-4.2 2.1 1.2 2.8 4.1l.35 3.05-.35-3.05q-.7-2.9-2.8-4.1-2.2 1.15-3.35 4.2L18 85.9m11.25 17.55q3.6.25 2.95-6.35-1.55-7.2-4.75-10.8-.9 6.75.6 15.05-3.15-3.6-5.5-12.25-2.7 3.7-.4 12.25-3.05-1.05-4.05-11.5-.9 14.65 6.65 13.9 2.4-1.05 4.5-.3m-11.8-4.1-.25-2.25.25 2.25" fill="#e33840" fill-rule="evenodd" transform="translate(1 1)"/><path d="M18.45 102.9q-3.6-.75-4.8-4.3-.25-5.05 1.15-8.4-.65 4.4.5 7.5-.1-3.95 1.1-7-.6 5.2 1.05 8.65.35 2.1 1 3.55m10.8.55q-2.1-.75-4.5.3-7.55.75-6.65-13.9 1 10.45 4.05 11.5-2.3-8.55.4-12.25 2.35 8.65 5.5 12.25-1.5-8.3-.6-15.05 3.2 3.6 4.75 10.8.65 6.6-2.95 6.35" fill="#ff5353" fill-rule="evenodd" transform="translate(1 1)"/><path d="m21.45 42 .4.05q1.65.25 2.85 1.45 1.5 1.5 1.5 3.65 0 1.05-.35 1.95m-.2 11.9.5.3q1.1.8 1.65 1.75.5.9.5 1.95 0 1.85-1.6 3.25l-.3.25m.9 14.4 1.4 1.6q4.75 6.8 5.25 14.7-.7 7.5-6.65 4.8-2.9 2.7-6.9 1.3-1.2-.75-1.95-2.4-3.6-.75-4.8-4.3-1.05-3.1-.25-8.25 1.2-3.95 3.4-6.45 2.05-2.4 4.95-3.45 1.3 0 2.5.5 1.6.6 3.05 1.95M15.95 68.8l-.2-.15q-1-.7-1.5-1.5l-.35-.7-.15-.45-.15-1q0-2.15 2.15-3.7l.5-.3q2-1.2 4.7-1.2 1.8 0 3.3.55.75.25 1.4.65M16.2 48.95l-.25-1.25-.05-.55v-.25q.1-2 1.5-3.4 1.5-1.5 3.65-1.5h.4m2 4.15q.1-2.75-1.6-4.1M24.9 87.6l-.35-3.05q-.7-2.9-2.8-4.1-2.2 1.15-3.35 4.2L18 85.9m-.8 11.2.25 2.25q.35 2.1 1 3.55" fill="none" stroke="#d91516" stroke-linecap="round" stroke-linejoin="round" transform="translate(1 1)"/><path d="m25.85 49.1.5.45.4.45q1.85 2.1 1.85 4.95 0 3.15-2.25 5.4l-.7.65m.75 7.5.45.35.9.8q1.35 1.35 2.05 3 .6 1.55.6 3.4 0 3.75-2.65 6.4l-.45.45m-10.5 1-1.85-1.45q-2.65-2.65-2.65-6.4v-.1q0-1.9.75-3.55.65-1.5 1.9-2.75l1-.85q.55-.45 1.15-.75Q19 67 21.35 67h.5l2.4.45.2.1 1.95.95M16.25 61l-.7-.65q-1.95-1.95-2.2-4.6l-.05-.8q0-1.3.4-2.45.55-1.65 1.85-2.95l.65-.6 1.5-.95 1.75-.55.85-.1.2-.05h.45l1.85.2q1.65.4 3.05 1.6" fill="none" stroke="#113b87" stroke-linecap="round" stroke-linejoin="round" transform="translate(1 1)"/><path d="m39.85 13.65 1.3 2.85q-1.15-.1-1.95.45.35.65 2.15 1.3l.1 1.55q-4.25-1.75-4.05-2.65.3-1.2 2.6-2.15-2.9.25-3.15-.6-.25-.9 3-.75m1.55 8.2q-2.9-.1-4.15-1.05l.1-1.25q1.05.75 4.1 1l-.05 1.3m-5.95 4.65q2.3.25 4.25 2.75l-.3.55q-1.95-.8-4.2-2.95l.25-.35m3.5 4.25-.4.65q-1.05 0-2.85-1.15 1.25 2.15 1.05 3.45l-.4.45q-1.65-2.8-1.6-5.15 2.25-.05 4.2 1.75m-3.6 4.35-.85.7-2.65-4.2q.05 4.3-.55 5.3-1.2.9-4.8-2.8l.65-.25q1.6.2 3.15 1.9-.35-2.2.35-3.85l1.8-1.6 2.9 4.8m-7.55 4.35-1.45.35-1.65-5.15 1.3-.35 1.8 5.15m-6.75.8-1.2-.05q-.45-2.2.05-5.2H21q.3 3.35.05 5.25M34.75 6.9l.7.7-1.55.95-.55-.7q.55-.95 1.4-.95m2.65 2.9.55.75q-.7 2-1.5 2.55l-.25-.75-.05-.1q.7-.75.6-1.65-.3-.35-1.65-.4L34.25 9q1.55.1 3.15.8M39 24.2q-2.45-2.35-.95-2.4 2.9 2.05 2.45 3.1-.35.8-3.7.55-1-1.35 2.2-1.25M22.25 36.05q.3-.35.75-.35t.75.35l.3.95-.3.9-.75.4-.75-.4q-.3-.35-.3-.9t.3-.95m-4.25-.1q.4.1.6.5.2.5.05 1.05l-.55.8-.8.25q-.35-.1-.55-.6-.2-.45-.05-.95.15-.55.55-.9.4-.25.75-.15" fill="#fb960a" fill-rule="evenodd" transform="translate(1 1)"/><path d="m41.15 16.5-1.3-2.85-1.9-3.1-.55-.75-1.95-2.2-.7-.7-2.6-2 1.8-1.7q2.15 1.35 4.1 3.3l.4.45.05.1q7.35 15.25 0 25.7-7.4 10.4-20 11.55l-3.35-.8.4-4.05 4.3.75 1.2.05 5.3-.45 1.45-.35q3.6-1.15 6.7-3.65l.85-.7 1-.95.4-.45 1.15-1.3.65-1 .4-.65.45-.95.3-.55q1.5-3.45 1.7-7.4l.05-1.3v-.75l-.1-1.55-.2-1.75m-8.1-13.8-3.35.85Q23.95.75 16 .85 18.95 0 22.3 0q5.95 0 10.75 2.7" fill="#f8970c" fill-rule="evenodd" transform="translate(1 1)"/><path d="M39.85 13.65q-3.25-.15-3 .75.25.85 3.15.6-2.3.95-2.6 2.15-.2.9 4.05 2.65v.75q-3.05-.25-4.1-1v-.9q0-2.25-.5-4.25l-.4-1.25v-.05q.8-.55 1.5-2.55l1.9 3.1m1.5 4.6q-1.8-.65-2.15-1.3.8-.55 1.95-.45l.2 1.75m.05 3.6q-.2 3.95-1.7 7.4-1.95-2.5-4.25-2.75 1.4-2.65 1.8-5.7 1.25.95 4.15 1.05m-2 7.95-.45.95Q37 28.95 34.75 29q-.05 2.35 1.6 5.15l-1 .95-2.9-4.8.1-.1q1.6-1.55 2.65-3.35 2.25 2.15 4.2 2.95m-.85 1.6-.65 1-1.15 1.3q.2-1.3-1.05-3.45 1.8 1.15 2.85 1.15m-4.05 4.4q-3.1 2.5-6.7 3.65L26 34.3l.5-.2q3.6 3.7 4.8 2.8.6-1 .55-5.3l2.65 4.2m-8.15 4-5.3.45q.25-1.9-.05-5.25l3.7-.35 1.65 5.15m-6.5.4-4.3-.75.55-5.15 3.8.7q-.5 3-.05 5.2M39 24.2q-3.2-.1-2.2 1.25 3.35.25 3.7-.55.45-1.05-2.45-3.1-1.5.05.95 2.4m-8.35 7.7q-.7 1.65-.35 3.85-1.55-1.7-3.15-1.9 1.85-.75 3.5-1.95m-8.4 4.15q-.3.4-.3.95 0 .55.3.9l.75.4.75-.4.3-.9-.3-.95q-.3-.35-.75-.35t-.75.35m-4.25-.1q-.35-.1-.75.15-.4.35-.55.9-.15.5.05.95.2.5.55.6l.8-.25.55-.8q.15-.55-.05-1.05-.2-.4-.6-.5" fill="#dc791e" fill-rule="evenodd" transform="translate(1 1)"/><path d="M15.5 5.65q2.2-.85 4.75-.85l3.85.55-1.55.55-3.1-.4q-4.6 0-7.9 3.25-3.25 3.3-3.25 7.9 0 3.95 2.4 6.9l-1.45 2.4Q6.8 22.6 6.8 18.25q0-5.55 3.95-9.5 2.15-2.15 4.75-3.1M13.2 29.7l3.5-2.2 2.75.3q4.6 0 7.85-3.3 3.3-3.25 3.3-7.85 0-4.4-3-7.55l1.25-1.15.9.8q3.95 3.95 3.95 9.5t-3.95 9.5q-3.95 3.95-9.5 3.95-3.95 0-7.05-2" fill="#30679f" fill-rule="evenodd" transform="translate(1 1)"/><path d="m22.55 5.9 1.55-.55 4.25-1.45 1.35-.35 3.35-.85-2.1 1.5-.65.5-.4.15-3.55 1.4-1.45.65-1.45.65q-3.95 1.95-7.9 4.6l3.65 3.9-8.8 13.3-1.2.7-.55.3 9.65-14.1-3.75-3.45H9.4l1.5-.95q4.8-3 9.75-5.15l1.9-.8" fill="#fefff7" fill-rule="evenodd" transform="translate(1 1)"/><path d="m32.15 4.9 2.6 2q-.85 0-1.4.95l-.8-.85-1.35-1.2.95-.9m3.3 2.7 1.95 2.2q-1.6-.7-3.15-.8l-.2-.25-.15-.2 1.55-.95m-7.1-3.7Q25 2.25 21 2.25q-3.8 0-6.95 1.5-1.75-.25-5.45.9Q12 1.95 16 .85q7.95-.1 13.7 2.7l-1.35.35" fill="#dd791b" fill-rule="evenodd" transform="translate(1 1)"/><path d="M37.25 20.8q-.4 3.05-1.8 5.7l-.25.35q-1.05 1.8-2.65 3.35l-.1.1-1.8 1.6q-1.65 1.2-3.5 1.95l-.65.25-.5.2-1.3.35L21 35h-1.1l-3.8-.7-.6-.2-2.6-1.15-.9-.55-1.4-1.05 2.6-1.65q3.1 2 7.05 2 5.55 0 9.5-3.95t3.95-9.5q0-5.55-3.95-9.5l-.9-.8L31.2 5.8 32.55 7l.8.85.55.7.15.2.2.25.85 1.2 1.05 2.05.05.1.25.75v.05l.4 1.25q.5 2 .5 4.25v.9l-.1 1.25M24.1 5.35l-3.85-.55q-2.55 0-4.75.85.35-1.75-1.45-1.9 3.15-1.5 6.95-1.5 4 0 7.35 1.65L24.1 5.35M7.8 28.45l-.35-.55-.35-.5q-1.75-2.7-2.25-5.85 1.6 3.15 3.9 5.3l-.95 1.6" fill="#ffc501" fill-rule="evenodd" transform="translate(1 1)"/><path d="M10.7 23.55q-2.4-2.95-2.4-6.9 0-4.6 3.25-7.9 3.3-3.25 7.9-3.25l3.1.4-1.9.8-1.35-.1q-3.85 0-6.6 2.7-1.15 1.15-1.8 2.55l-1.5.95.9.65Q10 14.6 10 15.9q0 3.25 1.9 5.65l-1.2 2" fill="#3d83be" fill-rule="evenodd" transform="translate(1 1)"/><path d="m33.95 3.2-1.8 1.7-.95.9-2.35 2.15L27.6 9.1l-4 3.65 6.3 6.45-13.2 8.3-3.5 2.2-2.6 1.65-2.8 1.75-3.6 2.25h-.05l1.8-3.55.75-.4 1.95-1.05.55-.3 1.2-.7 1.25-.75 2.95-1.9 2.55-1.75q4.2-2.95 8.8-6.65l-5.2-5.6 4.45-4 1.05-.85 1.2-.95 2.55-2 .3-.2.65-.5 2.1-1.5.9.5" fill="#db7920" fill-rule="evenodd" transform="translate(1 1)"/><path d="m30.3 4.7-.3.2-2.55 2-1.2.95-1.05.85-4.45 4 5.2 5.6q-4.6 3.7-8.8 6.65L14.6 26.7l-2.95 1.9-1.25.75 8.8-13.3-3.65-3.9q3.95-2.65 7.9-4.6l1.45-.65 1.45-.65 3.55-1.4.4-.15" fill="#fec803" fill-rule="evenodd" transform="translate(1 1)"/><path d="M2.65 33Q0 28.2 0 22.3q0-9.25 6.5-15.8l2.1-1.85q3.7-1.15 5.45-.9Q11.5 4.9 9.35 7 4.6 11.8 4.6 18.65l.25 2.9-.45-.9-.95-2.3Q2.15 24.8 2.65 33" fill="#fcedb4" fill-rule="evenodd" transform="translate(1 1)"/><path d="M15.5 5.65q-2.6.95-4.75 3.1-3.95 3.95-3.95 9.5 0 4.35 2.45 7.7l-.5.9q-2.3-2.15-3.9-5.3l-.25-2.9Q4.6 11.8 9.35 7q2.15-2.1 4.7-3.25 1.8.15 1.45 1.9" fill="#feeeb3" fill-rule="evenodd" transform="translate(1 1)"/><path d="M10.9 11.85q.65-1.4 1.8-2.55 2.75-2.7 6.6-2.7l1.35.1q-4.95 2.15-9.75 5.15m1 9.7Q10 19.15 10 15.9q0-1.3.3-2.45l4.75 3.4-3.15 4.7" fill="#84cafd" fill-rule="evenodd" transform="translate(1 1)"/><path d="m9.25 25.95 1.45-2.4 1.2-2 3.15-4.7-4.75-3.4-.9-.65h5.15l3.75 3.45-9.65 14.1L6.7 31.4l-.75.4.5-.9 1.35-2.45.95-1.6.5-.9" fill="#fdd841" fill-rule="evenodd" transform="translate(1 1)"/><path d="m7.8 33.1 2.8-1.75L12 32.4q-1.55.8-2.45 2.7l-1.75-2M4.4 20.65l.45.9q.5 3.15 2.25 5.85-1.35.8-1.55 1.45-1.4-3.7-1.15-8.2M6.45 30.9l-.6-1.2q.75-1.55 1.6-1.8l.35.55-1.35 2.45" fill="#f79808" fill-rule="evenodd" transform="translate(1 1)"/><path d="m5.85 29.7-.3-.85q.2-.65 1.55-1.45l.35.5q-.85.25-1.6 1.8m10.25 4.6-.55 5.15-1.4-.75.8-3.3q-4 3-3.3-1.95l-1.45 2.3-.65-.65q.9-1.9 2.45-2.7l.9.55v2.6l2.6-1.45.6.2" fill="#fdc204" fill-rule="evenodd" transform="translate(1 1)"/><path d="m15.55 39.45-.4 4.05q-4.8-1.6-8.65-5.45l-2.3-2.7 3.6-2.25 1.75 2 .65.65q1.7 1.6 3.95 2.95l1.4.75m2.95 4.85q12.6-1.15 20-11.55 7.35-10.45 0-25.7h.05Q44.6 13.4 44.6 22.3q0 9.25-6.55 15.75-6.5 6.55-15.75 6.55l-3.8-.3M5.95 31.8l-1.8 3.55L2.65 33q-.5-8.2.8-14.65l.95 2.3q-.25 4.5 1.15 8.2l.3.85.6 1.2-.5.9" fill="#ffc605" fill-rule="evenodd" transform="translate(1 1)"/><path d="M36.15 12.25 35.1 10.2q1.35.05 1.65.4.1.9-.6 1.65" fill="#dc791c" fill-rule="evenodd" transform="translate(1 1)"/><path d="m16.7 27.5 13.2-8.3-6.3-6.45 4-3.65q3 3.15 3 7.55 0 4.6-3.3 7.85-3.25 3.3-7.85 3.3l-2.75-.3" fill="#418ac1" fill-rule="evenodd" transform="translate(1 1)"/><path d="M14.15 38.7q-2.25-1.35-3.95-2.95l1.45-2.3q-.7 4.95 3.3 1.95l-.8 3.3m-1.25-5.75 2.6 1.15-2.6 1.45v-2.6" fill="#fc980c" fill-rule="evenodd" transform="translate(1 1)"/><path d="m33.95 3.2-1.8 1.7-.95.9-2.35 2.15L27.6 9.1l-4 3.65 6.3 6.45-13.2 8.3-3.5 2.2-2.6 1.65-2.8 1.75-3.6 2.25h-.05l1.8-3.55.5-.9 1.35-2.45.95-1.6.5-.9 1.45-2.4 1.2-2 3.15-4.7-4.75-3.4-.9-.65 1.5-.95q4.8-3 9.75-5.15l1.9-.8 1.55-.55 4.25-1.45 1.35-.35 3.35-.85m5.5 4.35-.05-.1h-.05" fill="none" stroke="#ae5c13" stroke-linecap="round" stroke-linejoin="round" transform="translate(1 1)"/><path d="m24.1 5.35-3.85-.55q-2.55 0-4.75.85-2.6.95-4.75 3.1-3.95 3.95-3.95 9.5 0 4.35 2.45 7.7m19.6-18 .9.8q3.95 3.95 3.95 9.5t-3.95 9.5q-3.95 3.95-9.5 3.95-3.95 0-7.05-2" fill="none" stroke="#123788" stroke-linecap="round" stroke-linejoin="round" transform="translate(1 1)"/><path d="m16.15 44.5 3.35.8 3.8.3q9.25 0 15.75-6.55 6.55-6.5 6.55-15.75 0-8.9-6.05-15.25m-.1-.1-.4-.45q-1.95-1.95-4.1-3.3l-.9-.5Q29.25 1 23.3 1q-3.35 0-6.3.85-4 1.1-7.4 3.8L7.5 7.5Q1 14.05 1 23.3 1 29.2 3.65 34l1.5 2.35m11 8.15q-4.8-1.6-8.65-5.45l-2.3-2.7" fill="none" stroke="#ae5c13" stroke-linecap="round" stroke-linejoin="round" stroke-width="2"/></g><g id="D"><path d="M.6 1.6q3.65.65 6.85 4.15 3.2 4.15 5.9 4.6.05-6.85 2.95-8.8 1.55.5 3.2 1.15 1.6 5.7.3 10.3-7.95.45-11.8-4.7-2.25-3.6-6.25-5.65Q5.75 4.7 8 8.3q3.85 5.15 11.8 4.7-.6 2.15-1.75 4-9.9-3.25-12.4-8.15-1.7-4.2-3.9-6.2L.1 1.9l.5-.3" fill="#dc7a21" fill-rule="evenodd" transform="translate(1 1)"/><path d="M13.05 8.35q-.2-2 .35-5-3.5-2.5-7.8-1.3 2.9 1.85 4.15 3.9 1.2 2.05 3.3 2.4m3.25-6.8q-2.9 1.95-2.95 8.8-2.7-.45-5.9-4.6Q4.25 2.25.6 1.6q5.95-3.15 15.7-.05" fill="#efac68" fill-rule="evenodd" transform="translate(1 1)"/><path d="M11.85 6.4q.4-1.6.25-3.25-2.05-1.05-3.95-.7 2.8 1.9 3.7 3.95m1.2 1.95q-2.1-.35-3.3-2.4Q8.5 3.9 5.6 2.05q4.3-1.2 7.8 1.3-.55 3-.35 5" fill="#fad09e" fill-rule="evenodd" transform="translate(1 1)"/><path d="M11.85 6.4q-.9-2.05-3.7-3.95 1.9-.35 3.95.7.15 1.65-.25 3.25" fill="#fffdfe" fill-rule="evenodd" transform="translate(1 1)"/><path d="m.1 1.9 1.65.75q2.2 2 3.9 6.2 2.5 4.9 12.4 8.15l-.4.55Q4.75 14.2 2.75 5.85 2.25 3.8 0 1.95l.1-.05" fill="#e8ac64" fill-rule="evenodd" transform="translate(1 1)"/><path d="m1.6 2.6-.5.3-.1.05q2.25 1.85 2.75 3.9 2 8.35 14.9 11.7M20.5 3.7q-1.65-.65-3.2-1.15-9.75-3.1-15.7.05" fill="none" stroke="#b45c07" stroke-linecap="round" stroke-linejoin="round" stroke-width="2"/><path d="m.1 1.9 1.65.75Q5.75 4.7 8 8.3q3.85 5.15 11.8 4.7" fill="none" stroke="#b45c07" stroke-linecap="round" stroke-linejoin="round" transform="translate(1 1)"/></g><g id="E"><path d="m85.5 73.6 1.4-.6q2 2.6 3.5 5.35l-1.6.8-3.3-5.55" fill="#fdf001" fill-rule="evenodd" transform="translate(-34.25 -58.6)"/><path d="m86.9 73-1.4.6q-2.7-4.1-6.55-8.5l.05-.05q2.4 1.85 4.75 4.3L86.9 73" fill="#b3dff8" fill-rule="evenodd" transform="translate(-34.25 -58.6)"/><path d="m85.5 73.6 3.3 5.55-2.7 1.35V86l-5.2-9.75 2.65.8-.7-3.35 2.65-.1" fill="#ffc502" fill-rule="evenodd" transform="translate(-34.25 -58.6)"/><path d="M78.95 65.1q3.85 4.4 6.55 8.5l-2.65.1.7 3.35-2.65-.8L86.1 86v-5.5l2.7-1.35q4.75 9.3 3.3 16.8-2.5 1.05-4.65 1.45-3.85.65-6.75-.9 1.6-4.4 5.05-9.85-13.1 3.5-18.25-3.7-2.1-7.3-7.95-7.15l.05-.15 4-5.6 3.25-1.65-2.6 6 14.6-9.4.1.05v.05" fill="#da781f" fill-rule="evenodd" transform="translate(-34.25 -58.6)"/><path d="m88.8 79.15 1.6-.8q2.7 4.95 3.8 10.5 2.1 10.75-6.05 17.9-4 3.5-10.65 5.5 4.7-2.45 7.95-5.35 5.4-4.85 6.65-10.95 1.45-7.5-3.3-16.8" fill="#bce6ff" fill-rule="evenodd" transform="translate(-34.25 -58.6)"/><path d="M92.1 95.95q-1.25 6.1-6.65 10.95-3.25 2.9-7.95 5.35l-4.05 1q6.55-3.2 10.35-8.4 2.35-3.3 3.65-7.45 2.15-.4 4.65-1.45m-6.65 10.95-1.65-2.05 1.65 2.05" fill="#3570a8" fill-rule="evenodd" transform="translate(-34.25 -58.6)"/><path d="m37.15 96.8-1.9.05q.05-3.25.4-7.15.25-2.7.75-5.15l2.5.4q-1.7 6.6-1.75 11.85" fill="#fdcb98" fill-rule="evenodd" transform="translate(-34.25 -58.6)"/><path d="m35.25 96.85 1.9-.05q-.15 9.55 5.2 14.65-2.35-.6-4.55-1.4-.95-1.4-1.55-3.55 1.05-11.5-1-8.35v-1.3" fill="#c3e9fc" fill-rule="evenodd" transform="translate(-34.25 -58.6)"/><path d="M37.15 96.8q.05-5.25 1.75-11.85 6.15 1.15 9.7 4-4.35 7.25-11.45 7.85" fill="#ecac64" fill-rule="evenodd" transform="translate(-34.25 -58.6)"/><path d="m38.9 84.95-2.5-.4q1.75-9.2 6.95-15l.65 2.5 1.2 4.5 1.95-3.45q1 7.7 5.1 12.95l7.3-10.25q5.85-.15 7.95 7.15 5.15 7.2 18.25 3.7-3.45 5.45-5.05 9.85-3.7-3.6-7-5.7-13.45-8.5-20.45 7.8-.35-6.15-4.65-9.65-3.55-2.85-9.7-4" fill="#e89b4b" fill-rule="evenodd" transform="translate(-34.25 -58.6)"/><path d="m66.85 68.4-3.25 1.65-4 5.6-.1.1-7.3 8.15-3.2-7.45.55-10.35q2.75-2.5 6.25-5 5.15-1.95 10.2-1.4 2.5.25 4.9 1.05l-4.05 7.65" fill="#3367a1" fill-rule="evenodd" transform="translate(-34.25 -58.6)"/><path d="m66.85 68.4 4.05-7.65Q75 62.1 78.85 65l-14.6 9.4 2.6-6" fill="#133889" fill-rule="evenodd" transform="translate(-34.25 -58.6)"/><path d="M55.8 61.1q-3.5 2.5-6.25 5-3.3 3-5.55 5.95l-.65-2.5q1.55-1.8 3.5-3.3 4.5-3.5 8.95-5.15" fill="#c2e8fd" fill-rule="evenodd" transform="translate(-34.25 -58.6)"/><path d="M49.55 66.1 49 76.45l3.2 7.45 7.3-8.15.05.05-7.3 10.25q-4.1-5.25-5.1-12.95l-1.95 3.45-1.2-4.5q2.25-2.95 5.55-5.95" fill="#84bae6" fill-rule="evenodd" transform="translate(-34.25 -58.6)"/><path d="M42.35 111.45q-5.35-5.1-5.2-14.65 7.1-.6 11.45-7.85 4.3 3.5 4.65 9.65 7-16.3 20.45-7.8-1.5 6.7 2.45 10.1 4.05 8.4-6.85 11.9-15.45 1.6-26.95-1.35m15.25-7.85q-.05-.3-1.35-.7l-2.75-.4-2.5.15q-1 .2-1 .45t1 .4l2.5.2 2.85.1q1.35.1 1.25-.2m-4.45 5.55 6.35.85q3.7.7 1.5-.45t-4.1-1.5l-4.35-.3-4.1-.15q-1.6-.2-1.6.25t1.85.85l4.45.45" fill="#87caff" fill-rule="evenodd" transform="translate(-34.25 -58.6)"/><path d="M37.8 110.05q2.2.8 4.55 1.4 11.5 2.95 26.95 1.35 10.9-3.5 6.85-11.9-3.95-3.4-2.45-10.1 3.3 2.1 7 5.7 2.9 1.55 6.75.9-1.3 4.15-3.65 7.45l-1.6-1.45q-.85 2.2-2.45 3.85 1.6-1.65 2.45-3.85l1.6 1.45q-3.8 5.2-10.35 8.4-5.5 1.1-12.45 1.4-19.05.7-22.9-4.2l-.3-.4m45.35-11.1q-.2 2.45-.95 4.45l-3.15-1.85 3.15 1.85q.75-2 .95-4.45" fill="#3e89c2" fill-rule="evenodd" transform="translate(-34.25 -58.6)"/><path d="m53.15 109.15-4.45-.45q-1.85-.4-1.85-.85 0-.45 1.6-.25l4.1.15 4.35.3q1.9.35 4.1 1.5 2.2 1.15-1.5.45l-6.35-.85m4.45-5.55q.1.3-1.25.2l-2.85-.1-2.5-.2q-1-.15-1-.4t1-.45l2.5-.15 2.75.4q1.3.4 1.35.7" fill="#c3e7fd" fill-rule="evenodd" transform="translate(-34.25 -58.6)"/><path d="M35.25 98.15q2.05-3.15 1 8.35-.95-3.3-1-8.35" fill="#fff" fill-rule="evenodd" transform="translate(-34.25 -58.6)"/><path d="m86.9 73-1.4.6-2.65.1.7 3.35-2.65-.8L86.1 86v-5.5l2.7-1.35 1.6-.8" fill="none" stroke="#b45c07" stroke-linecap="round" stroke-linejoin="round" transform="translate(-34.25 -58.6)"/><path d="M56.15 19.75q-1.5-2.75-3.5-5.35l-3.15-3.65q-2.35-2.45-4.75-4.3h-.05l-.1-.05q-3.85-2.9-7.95-4.25-2.4-.8-4.9-1.05-5.05-.55-10.2 1.4-4.45 1.65-8.95 5.15-1.95 1.5-3.5 3.3-5.2 5.8-6.95 15-.5 2.45-.75 5.15-.35 3.9-.4 7.15" fill="none" stroke="#b45c07" stroke-linecap="round" stroke-linejoin="round" stroke-width="2"/><path d="M43.25 53.65q6.65-2 10.65-5.5 8.15-7.15 6.05-17.9-1.1-5.55-3.8-10.5M1 38.25v1.3q.05 5.05 1 8.35.6 2.15 1.55 3.55l.3.4q3.85 4.9 22.9 4.2 6.95-.3 12.45-1.4l4.05-1" fill="none" stroke="#0c2c5a" stroke-linecap="round" stroke-linejoin="round" stroke-width="2"/><path d="m66.85 68.4-3.25 1.65-4 5.6-.05.15-7.3 10.25q-4.1-5.25-5.1-12.95l-1.95 3.45-1.2-4.5-.65-2.5m40.45 35.3 1.65 2.05M78.85 65l-14.6 9.4 2.6-6m16.95 36.45-1.6-1.45q-.85 2.2-2.45 3.85m-.7-5.7 3.15 1.85q.75-2 .95-4.45" fill="none" stroke="#0c2c5a" stroke-linecap="round" stroke-linejoin="round" transform="translate(-34.25 -58.6)"/><path d="m62.1 109.4 4.1.75 3.8.45q-4.95 6.85-7.9-1.2" fill="#fefefe" fill-rule="evenodd" transform="translate(-34.25 -58.6)"/><path d="M70 110.6q1.85-.2 2.55-1.65m-10.45.45 4.1.75 3.8.45q-4.95 6.85-7.9-1.2-8.55-1.55-15.05-1.3-7.95.3-7.2-1.85" fill="none" stroke="#0c2c5a" stroke-linecap="round" stroke-linejoin="round" transform="translate(-34.25 -58.6)"/></g><g id="F"><path d="m63.7 93 .9-1.1q2.15-2.15 5.2-2.15l2.35.35 1.05-.05 6.55.35 3.4-.75q-1.4 4.6-3.4 7.8-2.1 3.35-4.8 5.25l-.4.25q-1.95 1.25-4.2 1.75l-.6-.05q-3-.2-5.15-2.35-2.15-2.15-2.15-5.2 0-2.35 1.25-4.1m8.35-.95q-1.4-1.2-3.35-1.2-2.2 0-3.8 1.55-1.55 1.6-1.55 3.8 0 2.2 1.55 3.75 1.6 1.6 3.8 1.6 2.2 0 3.75-1.6 1.6-1.55 1.6-3.75l-.2-1.55q-.45.45-1.1.45-.65 0-1.15-.5-.45-.45-.45-1.1 0-.65.45-1.15.2-.2.45-.3m2.5 10.9.35-.35q2.2-2.25 2.25-5.4 0-3.15-2.15-5.3-1.25-1.25-2.85-1.8 1.6.55 2.85 1.8 2.15 2.15 2.15 5.3-.05 3.15-2.25 5.4l-.35.35m-35.85-9.9h-.05q-.8.85-1.15 1.85v-.05q.25-2.1-.85-3.1l4.15.1 1.35-.2q2.05 0 3.45 1.4.8.8 1.2 1.85l.25 1.65q0 2.05-1.45 3.45-1.4 1.45-3.45 1.45-2.05 0-3.5-1.45l-.25-.3q-1.15-1.3-1.15-3.15l.15-1.25.1-.35.05.45-.05.6q0 .95.4 1.75l.8 1.15q1.25 1.25 2.95 1.25 1.7 0 2.9-1.25l.85-1.1v-.05h-.05q-.55 0-.95-.4-.4-.4-.4-.95 0-.55.4-.95.4-.4.95-.4l.35.05q-.25-1.15-1.15-2.05l-.5-.4q-1.15-.6-2.55-.8l-.55-.05-.15.05h-.1q-.4.1-.7.3-.75.3-1.3.9m-.05 0q-.8.75-1.15 1.8.35-1.05 1.15-1.8" fill="#fefefe" fill-rule="evenodd" transform="translate(-36.15 -89.15)"/><path d="M72.05 92.05q-.25.1-.45.3-.45.5-.45 1.15 0 .65.45 1.1.5.5 1.15.5.65 0 1.1-.45l.2 1.55q0 2.2-1.6 3.75-1.55 1.6-3.75 1.6t-3.8-1.6q-1.55-1.55-1.55-3.75t1.55-3.8q1.6-1.55 3.8-1.55 1.95 0 3.35 1.2m-5.6 6.2q-.35.15-.4.4-.2.5.6 1.05.85.55 2.05.55 1.2 0 2.15-.65.9-.65 1.45-1.95.55-1.35-.65-1.4h-.15q-1.15 0-1.7.75-.65.8-2.1.95l-1.25.3m.4-3.55-.3-.7q-.25-.25-.65-.25t-.7.25l-.25.7.25.65q.3.3.7.3.4 0 .65-.3l.3-.65" fill="#512549" fill-rule="evenodd" transform="translate(-36.15 -89.15)"/><path d="M71.5 96.25h.15q1.2.05.65 1.4-.55 1.3-1.45 1.95-.95.65-2.15.65t-2.05-.55q-.8-.55-.6-1.05.05-.25.4-.4 1.05 1.4 3.3.45t1.75-2.45m-4.65-1.55-.3.65q-.25.3-.65.3t-.7-.3l-.25-.65.25-.7q.3-.25.7-.25.4 0 .65.25l.3.7" fill="#3fa3b3" fill-rule="evenodd" transform="translate(-36.15 -89.15)"/><path d="m66.45 98.25 1.25-.3q1.45-.15 2.1-.95.55-.75 1.7-.75.5 1.5-1.75 2.45-2.25.95-3.3-.45" fill="#51bfbc" fill-rule="evenodd" transform="translate(-36.15 -89.15)"/><path d="m38.65 93.05.05.05v-.05q.75-.75 2-1.2-1.25.45-2 1.2.55-.6 1.3-.9.3-.2.7-.3h.1l.15-.05.55.05q1.4.2 2.55.8l.5.4q.9.9 1.15 2.05l-.35-.05q-.55 0-.95.4-.4.4-.4.95 0 .55.4.95.4.4.95.4l.05.05-.85 1.1q-1.2 1.25-2.9 1.25T38.7 98.9l-.8-1.15q-.4-.8-.4-1.75l.05-.6-.05-.45v-.05q.35-1 1.15-1.85m1.95.1q-.35 0-.6.25t-.25.6l.25.6.6.25.6-.25.25-.6-.25-.6q-.25-.25-.6-.25m-.8 3.15-.5.2q-.55.4-.55 1t.7 1q.75.45 1.75.45l1.95-.35q.9-.4.7-1.05-.15-.45-.6-.45l-.45.1q-.9.25-1.95-.45-.6-.4-1.05-.45" fill="#52244b" fill-rule="evenodd" transform="translate(-36.15 -89.15)"/><path d="M40.6 93.15q.35 0 .6.25l.25.6-.25.6-.6.25-.6-.25-.25-.6q0-.35.25-.6t.6-.25" fill="#429db0" fill-rule="evenodd" transform="translate(-36.15 -89.15)"/><path d="M43.25 97.1q.45 0 .6.45.2.65-.7 1.05l-1.95.35q-1 0-1.75-.45-.7-.4-.7-1t.55-1l.5-.2q-.7 1.45 1.1 1.95 1.7.45 2.35-1.15" fill="#439cae" fill-rule="evenodd" transform="translate(-36.15 -89.15)"/><path d="M39.8 96.3q.45.05 1.05.45 1.05.7 1.95.45l.45-.1q-.65 1.6-2.35 1.15-1.8-.5-1.1-1.95" fill="#4fc0be" fill-rule="evenodd" transform="translate(-36.15 -89.15)"/><path d="m63.7 93 .9-1.1q2.15-2.15 5.2-2.15l2.35.35 1.05-.05 6.55.35 3.4-.75q-1.4 4.6-3.4 7.8-2.1 3.35-4.8 5.25l-.4.25q-1.95 1.25-4.2 1.75-2.75.55-5.9.05m5.9-.05-.6-.05q-3-.2-5.15-2.35-2.15-2.15-2.15-5.2 0-2.35 1.25-4.1-2.05 1.8-2.45 4.75m10.9-7.65q1.6.55 2.85 1.8 2.15 2.15 2.15 5.3-.05 3.15-2.25 5.4l-.35.35m-35.85-9.9h-.05q-.8.75-1.15 1.8.25-2.1-.85-3.1l4.15.1 1.35-.2q2.05 0 3.45 1.4.8.8 1.2 1.85 1.05 1.35 1.85 3.25M37.5 94.9v.05-.1.1l-.1.35-.15 1.25q0 1.85 1.15 3.15l.25.3q1.45 1.45 3.5 1.45T45.6 100q1.45-1.4 1.45-3.45l-.25-1.65m-6.1-3.05q-1.25.45-2 1.2m-.3 6.65q.6 1.95 1.65 2.85l.5.4" fill="none" stroke="#351730" stroke-linecap="round" stroke-linejoin="round" transform="translate(-36.15 -89.15)"/></g><g id="G"><path d="M79.05 105.9q0 .5-1.35.85l-3.15.35-3.2-.35q-1.3-.35-1.3-.85t1.3-.85l3.2-.35 3.15.35q1.35.35 1.35.85m-36-1.35q0 .4-1.3.65l-3.15.3-3.15-.3q-1.3-.25-1.3-.65t1.3-.7l3.15-.25 3.15.25q1.3.3 1.3.7" fill="#fa514e" fill-rule="evenodd" transform="translate(-33.65 -103.1)"/><path d="M79.05 105.9q0 .5-1.35.85l-3.15.35-3.2-.35q-1.3-.35-1.3-.85t1.3-.85l3.2-.35 3.15.35q1.35.35 1.35.85m-36-1.35q0 .4-1.3.65l-3.15.3-3.15-.3q-1.3-.25-1.3-.65t1.3-.7l3.15-.25 3.15.25q1.3.3 1.3.7z" fill="none" stroke="#fc2220" stroke-linecap="round" stroke-linejoin="round" transform="translate(-33.65 -103.1)"/></g><g id="H"><path d="M47.85 1.8 51 0l-4 4.55 3.05 7.5-8.8 7.25 2.8 5.35-8.9 4.5-4.75 6.05.65-2.75q2.05-2 2.6-4.95l6.6-5.15-2.3-5.45q5.9-4.1 9.2-8.85L46.3 4.7l1.55-2.9" fill="#fdc50e" fill-rule="evenodd" transform="translate(1 1)"/><path d="m52.7 27.75 8.05-.75 4.4-4.9.4-5.7 1.6 7.45-4.15 5.4q-4.6 1.35-9.25 1.3l-1.05-2.8" fill="#fdda42" fill-rule="evenodd" transform="translate(1 1)"/><path d="m65.75 16.6 2.55 7.45Q66.7 27.3 63.1 32l-9.45.4.25-1.4-.15-.45q4.65.05 9.25-1.3l4.15-5.4-1.6-7.45.2.2" fill="#f8c10e" fill-rule="evenodd" transform="translate(1 1)"/><path d="m65.75 16.6.15.2 3.75 7.9-4.15 8.4-2.3.75-1.05 1.7h-.05q-4.9-.3-9.45.95l1-4.1 9.45-.4q3.6-4.7 5.2-7.95l-2.55-7.45" fill="#f58e0b" fill-rule="evenodd" transform="translate(1 1)"/><path d="m65.5 33.1 4.15-8.4-3.75-7.9 5.8 6.85-3.9 8.7-2.3.75" fill="#b8cfd5" fill-rule="evenodd" transform="translate(1 1)"/><path d="m31.4 26.25 5.65-5.35-1.7-5.1 10.1-9-1.2-3 3.6-2-1.55 2.9.85 3.35q-3.3 4.75-9.2 8.85l2.3 5.45-6.6 5.15q-.55 2.95-2.6 4.95.7-3.5.35-6.2" fill="#ffdb3d" fill-rule="evenodd" transform="translate(1 1)"/><path d="m51 0-3.15 4.7 3.75 8.7-7.45 5.85 4.2 7.25-1.7 4-3.8-.45-8.15 2.7-4.1 5.2-.95-1 .75-1.75 4.75-6.05 8.9-4.5-2.8-5.35 8.8-7.25L47 4.55 51 0" fill="#f9980d" fill-rule="evenodd" transform="translate(1 1)"/><path d="m51 0-2.05 4.7 4.1 9.4-7.3 5.4 3.2 5.6-.6 1.4-4.2-7.25 7.45-5.85-3.75-8.7L51 0" fill="#aec3be" fill-rule="evenodd" transform="translate(1 1)"/><path d="m53.65 32.4-1 4.1-1.15 3.75-.9 2.4-2.65 5.1q-5.5 4-8.3 6.9l3.25 3.5-1.5.85-3.1-4.4 8.75-7.7q3.4-9.1 5.45-16.9l-.65-1.75-1.95-5 .95-1.85 1.85 6.35 1.05 2.8.15.45-.25 1.4" fill="#b6cbce" fill-rule="evenodd" transform="translate(1 1)"/><path d="m48.95 25.1.65-1.25q-.5 4.55-2.95 11.95-2.75 1.55-5.55 3.05l-6.9 11.9-.7-4.85-.35-.35 5.7-8.9 6.25-2.6 1-2.25.55-1.3 1.7-4 .6-1.4" fill="#feda3e" fill-rule="evenodd" transform="translate(1 1)"/><path d="m49.6 23.85.3-.6 1.95 5L47 39.6l-3.4 1.45-8.65 15-.75-5.3 6.9-11.9q2.8-1.5 5.55-3.05 2.45-7.4 2.95-11.95" fill="#fec907" fill-rule="evenodd" transform="translate(1 1)"/><path d="M51.85 28.25 52.5 30q-2.05 7.8-5.45 16.9l-9.55 7.25.75 1.75-3.15 1.2-.15-1.05 8.65-15L47 39.6l4.85-11.35" fill="#f6910d" fill-rule="evenodd" transform="translate(1 1)"/><path d="m15.35 64.1-.8.9-4.05-3.8.1-4.4 1.85 1.6-.55 2.2 3.45 3.5m16.1-24.35-1.3-1.1-.5-1.7.95 1 4.1-5.2 8.15-2.7 3.8.45-.55 1.3q-.65-.2-2.45 0v.05q-3.2.35-7.05 2.05l-5.15 5.85" fill="#fedb41" fill-rule="evenodd" transform="translate(1 1)"/><path d="M33.15 45.55 27.4 40.2l.85-3.3-.55-.85q1.55-4.7 1.15-11.5l1.75 3.25q-2.4 7.35-.95 9.15l.5 1.7 1.3 1.1 1.6 1.4 4.1-5.95q4.65-1.5 6.5-3.35v-.05q1.8-.2 2.45 0l-1 2.25-6.25 2.6-5.7 8.9" fill="#f28f0d" fill-rule="evenodd" transform="translate(1 1)"/><path d="M52.65 36.5q4.55-1.25 9.45-.95h.05l-.95 1.55q-5.75.85-9.7 3.15l1.15-3.75" fill="#fedb3f" fill-rule="evenodd" transform="translate(1 1)"/><path d="M26.2 11.25 21.55 22.9l3.8 5.5-1.55 1.8.2.25 3.7 5.6.55.85-.85 3.3 5.75 5.35.35.35.7 4.85.75 5.3.15 1.05-.1.05-1.3.5-1.3-10.55-6.8-6.55.75-3.6-4.3-6.6 1.25-3.3-3.1-3.75q2.7-9.55 5.8-11.9l.2-.15m1.5 11.45.15-1.25q2.75 2.65 3.55 4.8.35 2.7-.35 6.2l-.65 2.75-.75 1.75q-1.45-1.8.95-9.15l-1.75-3.25-1.15-1.85" fill="#c2d1ca" fill-rule="evenodd" transform="translate(1 1)"/><path d="M39.65 54.65q2.8-2.9 8.3-6.9l2.65-5.1 9-3.05-1.5 2.35-4.55 1.35-4.5 7 3.85-4.6 6.4-1.7 4.35-6.25 8.5-3.3-1.15 4.1-.1.15-6.05 1.95-3.4 5.1-7.8 2.9-5.45 7.6q-5.65.6-8.55-1.6" fill="#f8920c" fill-rule="evenodd" transform="translate(1 1)"/><path d="m61.2 37.1.95-1.55q4.35-.6 10.75-3.15l2.95-4.55-1.95 9.85-2.45.5-.45.35 1.15-4.1-8.5 3.3L59.3 44l-6.4 1.7-3.85 4.6 4.5-7 4.55-1.35 1.5-2.35 1.6-2.5" fill="#ffc805" fill-rule="evenodd" transform="translate(1 1)"/><path d="m31.45 39.75 5.15-5.85q3.85-1.7 7.05-2.05-1.85 1.85-6.5 3.35l-4.1 5.95-1.6-1.4" fill="#ffc502" fill-rule="evenodd" transform="translate(1 1)"/><path d="m50.6 42.65.9-2.4q3.95-2.3 9.7-3.15l-1.6 2.5-9 3.05" fill="#f4c307" fill-rule="evenodd" transform="translate(1 1)"/><path d="m62.15 35.55 1.05-1.7 2.3-.75 2.3-.75 3.3-.65 5.25-6.35-.5 2.5-2.95 4.55q-6.4 2.55-10.75 3.15" fill="#fcdb42" fill-rule="evenodd" transform="translate(1 1)"/><path d="m76.35 25.35 1.45-1.8-2.45 15.65h-3.9q-.75-.2-.55-.5l.1-.15.45-.35 2.45-.5 1.95-9.85.5-2.5" fill="#b5c9ca" fill-rule="evenodd" transform="translate(1 1)"/><path d="M71.45 39.2Q57.3 51.15 49.95 60.7L39.4 63.05l1-3.45 1-.6 1.5-.85-3.25-3.5q2.9 2.2 8.55 1.6l5.45-7.6 7.8-2.9 3.4-5.1 6.05-1.95q-.2.3.55.5" fill="#da781f" fill-rule="evenodd" transform="translate(1 1)"/><path d="m40.4 59.6-8.95 5.05q-4.6 5.35-7.4 9.8l-1.5-2.5 4.25-10.9h2.95L32.4 47.1l1.3 10.55 1.3-.5.1-.05 3.15-1.2-.75-1.75 9.55-7.25-8.75 7.7 3.1 4.4-1 .6" fill="#dc791b" fill-rule="evenodd" transform="translate(1 1)"/><path d="m18.2 36.35-4.3-5.45 1.55-4.65-3.05-4.1L20.65 12l6.5-3.2-.95 2.45-.2.15-3.85 1.9-6.8 8.55q3.25 4.6 1.05 7.65l5 7.2-1 3.7 5.25 7.15-2.5-.2-2.7-2.9-2.8-3 .65-1.85.8-2.2-.9-1.05" fill="#fee25d" fill-rule="evenodd" transform="translate(1 1)"/><path d="M25.35 28.4q1.9-3.35 2.35-5.7l1.15 1.85q-1.75 7.4-4.85 5.9l-.2-.25 1.55-1.8" fill="#ffdc3e" fill-rule="evenodd" transform="translate(1 1)"/><path d="M22.15 13.3 18.8 24.8q2.4.5.5 4.1l5 8.8-.85 3.8q4.15 2.65 5.35 5.7l.4 3-4.1.85-2.4 5.45q2.6 1.6-1.85 13.8-.75-1.45 0-4.8l.6-5.65-1.8-2.35q.75-3.35 3.8-7.7 3.5-1.05 4.1-2.1l-1.9-.15-5.25-7.15 1-3.7-5-7.2q2.2-3.05-1.05-7.65l6.8-8.55" fill="#ffc702" fill-rule="evenodd" transform="translate(1 1)"/><path d="M24.05 74.45q-.75 1.15-1.35 2.25-1.9-5.2-5.55-9.8l-.05-.5q.35-.4.75-.35.65.1 1.55 1.55 1.05-7.2-1.35-8.2l1.6-1.9 1.8 2.35-.6 5.65q-.75 3.35 0 4.8 4.45-12.2 1.85-13.8l2.4-5.45 4.1-.85-.4-3q-1.2-3.05-5.35-5.7l.85-3.8-5-8.8q1.9-3.6-.5-4.1l3.35-11.5L26 11.4q-3.1 2.35-5.8 11.9l3.1 3.75-1.25 3.3 4.3 6.6-.75 3.6 6.8 6.55-2.65 13.95H26.8l-4.25 10.9 1.5 2.5" fill="#f7910b" fill-rule="evenodd" transform="translate(1 1)"/><path d="m2.75 21.55.6 5.55 5.15 4.45-.6 2.3 4.25 3.55.8 4.25V48l4.2 6.45-1.15 2.4-4.4-3.65v-4.3l-2.25-2.45.75-7.3Q8.3 36.5 6.4 35.3V32l-4-4.5.2-2.8.15-3.15" fill="#f68f0c" fill-rule="evenodd" transform="translate(1 1)"/><path d="m15.4 58.1-5.9-4.75-.6-4.75-2.55-2.9 1.05-5.75-2.3-3.3v-4.2l-3.35-4.9.85-2.85-.2 2.8 4 4.5v3.3q1.9 1.2 3.7 3.85l-.75 7.3 2.25 2.45v4.3l4.4 3.65-.6 1.25" fill="#fec70b" fill-rule="evenodd" transform="translate(1 1)"/><path d="m8.65 54.75-.1-.4-1.6-4.85-3.55-4.2 1.45-5.8-1.9-2.8.85-4L0 27.2l2.75-5.65-.15 3.15-.85 2.85 3.35 4.9v4.2l2.3 3.3-1.05 5.75 2.55 2.9.6 4.75 5.9 4.75 1.05 3.2q-2.25-1.5-4-2.9l-1.85-1.6-1.95-2.05" fill="#ffde51" fill-rule="evenodd" transform="translate(1 1)"/><path d="m27.7 36.05-3.7-5.6q3.1 1.5 4.85-5.9.4 6.8-1.15 11.5" fill="#fdc702" fill-rule="evenodd" transform="translate(1 1)"/><path d="m16.85 37.7 1.35-1.35.9 1.05-.8 2.2-.85-.75-.6-1.15m3.6 6.75 2.7 2.9-2.6-.2-.65 1.4q.9-2.55.55-4.1" fill="#f79206" fill-rule="evenodd" transform="translate(1 1)"/><path d="m12.95 41.65 3.9-3.95.6 1.15q-4.25 7.9.7 13.4l-1 2.2-4.2-6.45v-6.35" fill="#fedc3d" fill-rule="evenodd" transform="translate(1 1)"/><path d="m18.3 39.6-.65 1.85 2.8 3q.35 1.55-.55 4.1l-1.75 3.7q-4.95-5.5-.7-13.4l.85.75" fill="#fbc701" fill-rule="evenodd" transform="translate(1 1)"/><path d="m25.65 47.55 1.9.15q-.6 1.05-4.1 2.1-3.05 4.35-3.8 7.7l-1.6 1.9-.9 1.1-.7.8-1.05-3.2.6-1.25 1.15-2.4 1-2.2 1.75-3.7.65-1.4 2.6.2 2.5.2" fill="#ffe052" fill-rule="evenodd" transform="translate(1 1)"/><path d="m17.1 66.4-.45-3.65-.2-1.45.7-.8q1.6 1.5.7 5.55-.4-.05-.75.35" fill="#ffe155" fill-rule="evenodd" transform="translate(1 1)"/><path d="m16.65 62.75-1.3 1.35-3.45-3.5.55-2.2q1.75 1.4 4 2.9l.2 1.45" fill="#fac903" fill-rule="evenodd" transform="translate(1 1)"/><path d="m17.15 60.5.9-1.1q2.4 1 1.35 8.2-.9-1.45-1.55-1.55.9-4.05-.7-5.55" fill="#ffc607" fill-rule="evenodd" transform="translate(1 1)"/><path d="m14.55 65-2.25 2.35-.55 5.05q-1.4-11-3.1-17.65l1.95 2.05-.1 4.4 4.05 3.8" fill="#fcf100" fill-rule="evenodd" transform="translate(1 1)"/><path d="m66.9 17.8-.15-.2-.2-.2-.4 5.7-4.4 4.9-8.05.75-1.85-6.35-.95 1.85-.3.6-.65 1.25-3.2-5.6 7.3-5.4-4.1-9.4L52 1l-3.15 1.8-3.6 2 1.2 3-10.1 9 1.7 5.1-5.65 5.35q-.8-2.15-3.55-4.8l-.15 1.25q-.45 2.35-2.35 5.7l-3.8-5.5 4.65-11.65.95-2.45-6.5 3.2-8.25 10.15 3.05 4.1-1.55 4.65 4.3 5.45-1.35 1.35-3.9 3.95-.8-4.25-4.25-3.55.6-2.3-5.15-4.45-.6-5.55L1 28.2l3.8 5.5-.85 4 1.9 2.8-1.45 5.8 3.55 4.2 1.6 4.85M66.9 17.8l5.8 6.85-3.9 8.7 3.3-.65 5.25-6.35 1.45-1.8-2.45 15.65h-3.9Q58.3 52.15 50.95 61.7m-38.2 11.7q-1.4-11-3.1-17.65" fill="none" stroke="#b45c07" stroke-linecap="round" stroke-linejoin="round" stroke-width="2"/><path d="m53.65 32.4-1 4.1-1.15 3.75-.9 2.4-2.65 5.1q-5.5 4-8.3 6.9l3.25 3.5-1.5.85-1 .6m21.75-24.05 1.05-1.7 2.3-.75 2.3-.75m-55.5 35-.55 5.05m-3.1-17.65-.1-.4m45.2-23.8.15.45-.25 1.4m-.95-4.65 1.05 2.8m7.45 6.55.95-1.55M59.6 39.6l-1.5 2.35-4.55 1.35m7.65-6.2-1.6 2.5M48.35 26.5l.6-1.4m-17.9 7.35-.65 2.75-.75 1.75.95 1 4.1-5.2 8.15-2.7 3.8.45-.55 1.3-1 2.25-6.25 2.6-5.7 8.9-5.75-5.35.85-3.3-.55-.85-3.7-5.6-.2-.25 1.55-1.8M35 57.15l.1-.05-.15-1.05-.75-5.3-.7-4.85-.35-.35m-7.5 2 1.9.15m-7.9 9.8 1.8 2.35-.6 5.65M18.2 36.35l.9 1.05-.8 2.2-.65 1.85 2.8 3 2.7 2.9 2.5.2m22.7-21.05-1.7 4M31.4 26.25q.35 2.7-.35 6.2M16 56.85l1.15-2.4-4.2-6.45v-6.35M14.55 65l-4.05-3.8.1-4.4-1.95-2.05m8.5-.3 1-2.2 1.75-3.7.65-1.4 2.6.2m-6.5 15.4-.2-1.45q-2.25-1.5-4-2.9l-1.85-1.6m5.85 4.5.7-.8.9-1.1 1.6-1.9m-3.2 3.8-1.05-3.2.6-1.25" fill="none" stroke="#b45c07" stroke-linecap="round" stroke-linejoin="round" transform="translate(1 1)"/><path d="M49.95 60.7 39.4 63.05l1-3.45-8.95 5.05q-4.6 5.35-7.4 9.8-.75 1.15-1.35 2.25-1.9-5.2-5.55-9.8l-.05-.5-.45-3.65-1.3 1.35-.8.9-2.25 2.35" fill="none" stroke="#0c2c5a" stroke-linecap="round" stroke-linejoin="round" transform="translate(1 1)"/></g><g id="I"><path d="m28.2 5.7 1.35.3-.4.25-4 .6q-5.1 8.1-14 8.95-5.5.3-9.6 2.15-3.25-7 .4-16.35 5.35 11.8.4 13 .65.85 1.65.5l1-.6q1.7-1.35.9-3.55Q16.3 6.3 28.2 5.7M4 15.1q3.05-1.1 2.55-3 8.2-3.45 18.6-5.25-10.4 1.8-18.6 5.25.5 1.9-2.55 3" fill="#da781f" fill-rule="evenodd" transform="translate(0 1)"/><path d="M29.15 6.25q-2 1.2-4.2 4.65Q19 17.45 11.9 17.65q-6.6-.25-9.95 1.15l-.4-.85q4.1-1.85 9.6-2.15 8.9-.85 14-8.95l4-.6" fill="#ecac64" fill-rule="evenodd" transform="translate(0 1)"/><path d="M1.95 1.6q8.05-3.55 18.6.75Q24.3 4.7 28.2 5.7q-11.9.6-22.3 5.25.8 2.2-.9 3.55l-1 .6q-1 .35-1.65-.5 4.95-1.2-.4-13m2.6 2.1q.1 1.45.85 2.65.7 1.2.4 2.85 7.05-3 15.5-4.6Q12.4.75 4.55 3.7" fill="#ecac65" fill-rule="evenodd" transform="translate(0 1)"/><path d="M4.55 3.7Q12.4.75 21.3 4.6 12.85 6.2 5.8 9.2q.3-1.65-.4-2.85-.75-1.2-.85-2.65M7.4 6.65q3.25-1.8 6.75-2.25-3.95-1.8-7.2-.6-.4 1.25.45 2.85" fill="#fbcd99" fill-rule="evenodd" transform="translate(0 1)"/><path d="M7.4 6.65q-.85-1.6-.45-2.85 3.25-1.2 7.2.6-3.5.45-6.75 2.25" fill="#fffffb" fill-rule="evenodd" transform="translate(0 1)"/><path d="m29.15 6.25-4 .6q-10.4 1.8-18.6 5.25.5 1.9-2.55 3" fill="none" stroke="#b45c07" stroke-linecap="round" stroke-linejoin="round" transform="translate(0 1)"/><path d="M1.95 2.6q8.05-3.55 18.6.75Q24.3 5.7 28.2 6.7l1.35.3-.4.25q-2 1.2-4.2 4.65Q19 18.45 11.9 18.65q-6.6-.25-9.95 1.15" fill="none" stroke="#b45c07" stroke-linecap="round" stroke-linejoin="round" stroke-width="2"/></g><g id="J"><path d="M12.55 19.3v.1l-.45-2.6-4.65 13.25 4.1 5.7L8.5 51.4l.4.4h-.05q-1.15.15-2.65-1.55l2.6-13.1-4.1-6.7L11.8 12q.95 2.85.75 7.3" fill="#fdc703" fill-rule="evenodd" transform="translate(1 1)"/><path d="M15 18.1q-1.6-2.05-2.45 1.2.2-4.45-.75-7.3L4.7 30.45l4.1 6.7-2.6 13.1q1.5 1.7 2.65 1.55.4 2.5-1.45 3.15-2.8-1.5-5.4-2.5L6 39.8l-6-8.35L13.05 0 15 18.1" fill="#ffd934" fill-rule="evenodd" transform="translate(1 1)"/><path d="m15 18.1.7 6.65.65 1.4q-1.15 3.7-1.5 7.2l-2.3-13.95v-.1q.85-3.25 2.45-1.2" fill="#ffc905" fill-rule="evenodd" transform="translate(1 1)"/><path d="m12.55 19.4 2.3 13.95q-.55 5.5.9 10.6.5 1.9 1.3 3.75 4.3 7.75 3.95 13.6-5.55-3-12.1-9.5l-.4-.4 3.05-15.65-4.1-5.7L12.1 16.8l.45 2.6" fill="#ec961d" fill-rule="evenodd" transform="translate(1 1)"/><path d="M14.85 33.35q.35-3.5 1.5-7.2 4.7 10.35 12.7 20.75l5.8-1.5 2.25 6.2-.55.25-.85-1.15-1.35-3.15q-2.65 1.55-6.5 1.35-4.6-2.35-11.05-16.15-.85 3.95 1.4 10.65l-2.45.55q-1.45-5.1-.9-10.6" fill="#7eb7e2" fill-rule="evenodd" transform="translate(1 1)"/><path d="M31.65 60.05 31 59.2q-5.3-.4-10.25 5.25l-.1-.1-.15-.1.5-2.95q.35-5.85-3.95-13.6-.8-1.85-1.3-3.75l2.45-.55q.35 2.45 1.35 4.45l2.1 3.9q1 1.9 1.9 6.65 4.95-4.1 7.7-1.3 1.35-4.8 3.1-6 .65-.45 1.35-.4l.85 1.15-.95.65q-2.6 2.05-3.95 7.55" fill="#346293" fill-rule="evenodd" transform="translate(1 1)"/><path d="m34.35 51.1-.55-1.05q-6.3 7.65-15.6-6.65-2.25-6.7-1.4-10.65 6.45 13.8 11.05 16.15 3.85.2 6.5-1.35l1.35 3.15q-.7-.05-1.35.4" fill="#3168a0" fill-rule="evenodd" transform="translate(1 1)"/><path d="M34.35 51.1q-1.75 1.2-3.1 6-2.75-2.8-7.7 1.3-.9-4.75-1.9-6.65l-2.1-3.9q-1-2-1.35-4.45 9.3 14.3 15.6 6.65l.55 1.05" fill="#17468c" fill-rule="evenodd" transform="translate(1 1)"/><path d="M37.1 51.6v.05Q36.2 59.8 41.65 75q-1.55 2.3 3.6 7.2.55 1.3 2.65 3.35l-1.05.9-9.15-8.55 3.05-.8q-8-18.15-5.15-24.6l.95-.65.55-.25" fill="#fec803" fill-rule="evenodd" transform="translate(1 1)"/><path d="M45.9 87.85q-6.75-4.5-11.95-10.9H38l-.75-3.85q-1.75-8-5.6-13.05 1.35-5.5 3.95-7.55-2.85 6.45 5.15 24.6l-3.05.8 9.15 8.55-.95 1.4" fill="#eb9619" fill-rule="evenodd" transform="translate(1 1)"/><path d="m49.35 84.85.25.35q-1.5 2.55-3.4 2.85l-.3-.2.95-1.4 1.05-.9q.65-.5 1.45-.7" fill="#a2d4f5" fill-rule="evenodd" transform="translate(1 1)"/><path d="M37.1 51.65q9.4 26.7 5 25.3l3.5 3.35q-.9.6-.35 1.9-5.15-4.9-3.6-7.2-5.45-15.2-4.55-23.35" fill="#ffd93c" fill-rule="evenodd" transform="translate(1 1)"/><path d="m45.6 80.3 3.75 4.55q-.8.2-1.45.7-2.1-2.05-2.65-3.35-.55-1.3.35-1.9" fill="#fefcf0" fill-rule="evenodd" transform="translate(1 1)"/><path d="M20.5 64.25q-7-5.95-13.1-9.3 1.85-.65 1.45-3.15h.05q6.55 6.5 12.1 9.5l-.5 2.95" fill="#fed01b" fill-rule="evenodd" transform="translate(1 1)"/><path d="m17.35 27.15-.65-1.4-.7-6.65L14.05 1 1 32.45l6 8.35-4 12.65q2.6 1 5.4 2.5 6.1 3.35 13.1 9.3m-4.15-38.1q4.7 10.35 12.7 20.75l5.8-1.5 2.25 6.2v.05q9.4 26.7 5 25.3l3.5 3.35 3.75 4.55.25.35q-1.5 2.55-3.4 2.85l-.3-.2q-6.75-4.5-11.95-10.9H39l-.75-3.85q-1.75-8-5.6-13.05L32 60.2q-5.3-.4-10.25 5.25l-.1-.1" fill="none" stroke="#b45c07" stroke-linecap="round" stroke-linejoin="round" stroke-width="2"/><path d="M14.85 33.35q.35-3.5 1.5-7.2m4.3 38.2-.15-.1.5-2.95q.35-5.85-3.95-13.6-.8-1.85-1.3-3.75-1.45-5.1-.9-10.6m21.7 18.5.55-.25m-.55.25-.95.65q-2.6 2.05-3.95 7.55" fill="none" stroke="#0c2c5a" stroke-linecap="round" stroke-linejoin="round" transform="translate(1 1)"/></g><g id="K"><path d="M70.2 3.05 70.65 0q7 18.25 15.35 34.8l-6.3 9.4 3.35 15.65-21 13.3V71.1L81.1 59.05 78.3 44.1l5.5-8.85.3-.5Q76.65 19.7 70.2 3.05" fill="#b6d7e0" fill-rule="evenodd" transform="translate(1 1)"/><path d="m42.8 43.85.9.35 10.7 5.3Q63.1 38.85 68 28.15l1.25 3.4L70.3 36q-1.55.35-2.8 1.75l-.2-2.8L54.9 52.8 49 51.3q.45 4-.35 8.85l-2.2-.95q.8-5.15-.95-10.1-1-2.65-2.7-5.25" fill="#80bbe3" fill-rule="evenodd" transform="translate(1 1)"/><path d="M4.8 87.25q3.85-2.9 6.45-6.2l-4.05-1.5q15.35-19.6 33.9-36.45l1.7.75q1.7 2.6 2.7 5.25l-3.2-1.5Q25.45 62.95 11.2 78.65l2.6 1.6q-1.25 2.9-8 7.75 1.2-2.1-1-.75" fill="#fedb41" fill-rule="evenodd" transform="translate(1 1)"/><path d="M48.65 60.15q.8-4.85.35-8.85l5.9 1.5 12.4-17.85.2 2.8q-1.65 1.75-2.85 5.2-5.4 6.8-6.35 14.05.9 7.2-9.65 3.15" fill="#3168a0" fill-rule="evenodd" transform="translate(1 1)"/><path d="M68 28.15q.55-13.95 2.2-25.1 6.45 16.65 13.9 31.7l-.3.5L72 12.95q-.6 10.7-2.75 18.6L68 28.15" fill="#fad73b" fill-rule="evenodd" transform="translate(1 1)"/><path d="M48.65 60.15Q59.2 64.2 58.3 57q.95-7.25 6.35-14.05 1.2-3.45 2.85-5.2Q67.6 45 64.3 52q-3.95 8.25-4.45 16.05-4.7-3.4-11.75-5.15l.55-2.75" fill="#123988" fill-rule="evenodd" transform="translate(1 1)"/><path d="M62.05 73.15Q60.1 68.8 46.9 63.5l-1.75.5.6-1.8.7-3 2.2.95-.55 2.75q7.05 1.75 11.75 5.15.5-7.8 4.45-16.05 3.3-7 3.2-14.25 1.25-1.4 2.8-1.75 1.35 8.3-2.65 15.15-4.65 7.9-5.45 17.2l-.15 2.75v2.05" fill="#3567a2" fill-rule="evenodd" transform="translate(1 1)"/><path d="m70.3 36 .4-.1q4.55-5.2 5.4-12.15l5.95 11.75-5.6 8.35 2 11.8.4 2.25L62.2 68.35q.8-9.3 5.45-17.2 4-6.85 2.65-15.15" fill="#ec961d" fill-rule="evenodd" transform="translate(1 1)"/><path d="m.85 92.8-.6-1.1 4.25-2.8 1.3-.9q6.75-4.85 8-7.75l-2.6-1.6q14.25-15.7 31.1-31.05l3.2 1.5q1.75 4.95.95 10.1l-1.7-.6Q16.15 72.5 14.3 81.5l3.6.6L.85 92.8M83.8 35.25l-5.5 8.85 2.8 14.95q-1.3-.85-2.65-3.4l-2-11.8 5.6-8.35-5.95-11.75q-.85 6.95-5.4 12.15l-.4.1-1.05-4.45q2.15-7.9 2.75-18.6l11.8 22.3" fill="#fec803" fill-rule="evenodd" transform="translate(1 1)"/><path d="m1.55 93.6-.7-.8L17.9 82.1l-3.6-.6q1.85-9 30.45-22.9l1.7.6-.7 3Q21.5 68.8 15.6 80.9l4.9.9q-7.45 5.5-16 10.2l-2.95 1.6" fill="#ed971e" fill-rule="evenodd" transform="translate(1 1)"/><path d="M45.15 64q-21 6.1-28.05 15.9 4.7 0 6 1.55Q16 87.75 4.5 93.1l-2.3 1.05-.65-.55L4.5 92q8.55-4.7 16-10.2l-4.9-.9q5.9-12.1 30.15-18.7l-.6 1.8" fill="#b0dcf7" fill-rule="evenodd" transform="translate(1 1)"/><path d="M81.1 59.05 62.05 71.1l.15-2.75L78.85 57.9l-.4-2.25q1.35 2.55 2.65 3.4" fill="#fec806" fill-rule="evenodd" transform="translate(1 1)"/><path d="M.25 91.7 0 90.35l4.5-2.9.3-.2Q7 85.9 5.8 88l-1.3.9-4.25 2.8" fill="#fefcf0" fill-rule="evenodd" transform="translate(1 1)"/><path d="M71.2 4.05 71.65 1q7 18.25 15.35 34.8l-6.3 9.4 3.35 15.65-21 13.3Q61.1 69.8 47.9 64.5l-1.75.5q-21 6.1-28.05 15.9 4.7 0 6 1.55Q17 88.75 5.5 94.1l-2.3 1.05-.65-.55-.7-.8-.6-1.1L1 91.35l4.5-2.9.3-.2q3.85-2.9 6.45-6.2l-4.05-1.5q15.35-19.6 33.9-36.45l1.7.75.9.35 10.7 5.3Q64.1 39.85 69 29.15q.55-13.95 2.2-25.1" fill="none" stroke="#b45c07" stroke-linecap="round" stroke-linejoin="round" stroke-width="2"/><path d="M62.05 71.1v2.05m5.95-45 1.25 3.4L70.3 36q1.35 8.3-2.65 15.15-4.65 7.9-5.45 17.2l-.15 2.75m-15.6-11.9-.7 3-.6 1.8m.35-14.9q-1-2.65-2.7-5.25m2.7 5.25q1.75 4.95.95 10.1" fill="none" stroke="#0c2c5a" stroke-linecap="round" stroke-linejoin="round" transform="translate(1 1)"/></g><path d="M0 71.05V0h61.55v71.05H0" fill="url(#L)" fill-rule="evenodd" id="M"/><path d="M18 26.55q-18-4.6-18-11T18 4.6Q36 0 61.5 0q25.45 0 43.45 4.6 18 4.55 18 10.95 0 6.4-18 11-18 4.55-43.45 4.55-25.5 0-43.5-4.55" fill-opacity=".353" fill-rule="evenodd" id="g"/><path d="M15.15 14.15q-1.7.55-4.15-1.9L0 16.2q3.55-4.6 11.55-10.8l2.25 2.65Q21.55 5.4 30.2.75L31.55 0l-16.4 14.15" fill="#fff500" fill-rule="evenodd" id="i"/><path d="M10.85 8.9q-2.2-4.8 0-5.5l24.2-4.85L17.5 7.6l.55 5.15-24.5 5.95 17.3-9.8" fill="#fff500" fill-rule="evenodd" transform="translate(6.45 1.45)" id="j"/><path d="M14.05 8.85Q12 4.95 26.55 1.9l-10.6 6.05Q18.45 9.5.9 16.3l13.15-7.45" fill="#fff500" fill-rule="evenodd" transform="translate(-.9 -1.9)" id="k"/><path d="m15.6 7.25-.45-3.45q9.2-3.85 16.6-5.65Q26.5 2 18.8 5.05q-1.7 1-1.05 3.95-10.3 5.7-18.95 7.3l16.8-9.05" fill="#fff500" fill-rule="evenodd" transform="translate(1.2 1.85)" id="l"/><path d="M15.3 4.45Q23.7.4 29.55-4.35 25.7.45 21.2 3.25q-4.45 2.8-4.85 7.65Q6.3 15 6.25 12.65l7.35-3.5q.35-3.5 1.7-4.7M.6 16.3q-.95.1-.9-.35 0-.35.6-.8.55-.4 1.15-.65.6-.35 1.7-.55l1.4.05q.25.4-.5.8l-1.6.9-1.85.6" fill="#fff500" fill-rule="evenodd" transform="translate(.3 4.35)" id="m"/><path d="M17.1 9.05 9.4 11.7l4.75-3.85-.35-2.1 7-1.55-4.25 2.65.55 2.2" fill="#fff500" fill-rule="evenodd" transform="translate(-9.4 -4.2)" id="n"/><use ffdec:characterId="2" height="71.05" width="61.55" xlink:href="#M" id="f"/><use ffdec:characterId="25" height="34.95" transform="translate(2.1)" width="23.25" xlink:href="#N" id="x"/><linearGradient gradientTransform="matrix(.0376 0 0 .0434 30.75 35.5)" gradientUnits="userSpaceOnUse" id="L" spreadMethod="pad" x1="-819.2" x2="819.2"><stop offset="0" stop-color="#ffc" stop-opacity="0"/><stop offset="1" stop-color="#fee481" stop-opacity="0"/></linearGradient></defs></svg>