<svg xmlns:ffdec="https://www.free-decompiler.com/flash" xmlns:xlink="http://www.w3.org/1999/xlink" ffdec:objectType="frame" height="90" width="90" xmlns="http://www.w3.org/2000/svg"><use ffdec:characterId="1" height="26.95" transform="translate(-165.15 -49.95)" width="23.15" xlink:href="#a"/><use ffdec:characterId="38" height="155.45" transform="translate(11.114 1.994) scale(.5508)" width="137.45" xlink:href="#b"/><defs><g id="b" transform="translate(14.5 -31.4)"><use ffdec:characterId="2" height="16.1" transform="matrix(1.6723 0 0 1.3 -12.49 164.335)" width="61.1" xlink:href="#c"/><use ffdec:characterId="3" height="26.65" transform="matrix(1.3 0 0 1.3 55.775 106.56)" width="18.5" xlink:href="#d"/><use ffdec:characterId="4" height="39.2" transform="matrix(1.3 0 0 1.3 80.265 112.17)" width="26.95" xlink:href="#e"/><use ffdec:characterId="5" height="38.65" transform="matrix(1.3 0 0 1.3 .25 130.21)" width="24.95" xlink:href="#f"/><filter id="g"><feColorMatrix in="SourceGraphic" result="filterResult0" values="0 0 0 0 0.4,0 0 0 0 1.0,0 0 0 0 1.0,0 0 0 1 0"/><feConvolveMatrix divisor="25" in="filterResult0" kernelMatrix="1 1 1 1 1 1 1 1 1 1 1 1 1 1 1 1 1 1 1 1 1 1 1 1 1" order="5 5" result="filterResult1"/><feComposite in="SourceGraphic" in2="filterResult1" result="filterResult2"/></filter><use ffdec:characterId="7" filter="url(#g)" height="14.75" transform="matrix(1.3 0 0 1.3 -4.68 146.495)" width="25.15" xlink:href="#h"/><use ffdec:characterId="8" height="52.05" transform="matrix(1.3 0 0 1.3 10.03 108.85)" width="58.8" xlink:href="#i"/><use ffdec:characterId="9" height="22.35" transform="matrix(1.3 0 0 1.3 47.52 150.905)" width="24.6" xlink:href="#j"/><use ffdec:characterId="10" height="30.3" transform="matrix(1.3 0 0 1.3 38.01 120.505)" width="28.9" xlink:href="#k"/><use ffdec:characterId="11" height="35.05" transform="matrix(1.3 0 0 1.3 24.435 138.95)" width="32.05" xlink:href="#l"/><filter id="m"><feColorMatrix in="SourceGraphic" result="filterResult3" values="0 0 0 0 0.4,0 0 0 0 1.0,0 0 0 0 1.0,0 0 0 1 0"/><feConvolveMatrix divisor="25" in="filterResult3" kernelMatrix="1 1 1 1 1 1 1 1 1 1 1 1 1 1 1 1 1 1 1 1 1 1 1 1 1" order="5 5" result="filterResult4"/><feComposite in="SourceGraphic" in2="filterResult4" result="filterResult5"/></filter><use ffdec:characterId="13" filter="url(#m)" height="22.05" transform="matrix(1.3 0 0 1.3 23.335 142.8)" width="33.05" xlink:href="#n"/><filter id="o"><feColorMatrix in="SourceGraphic" result="filterResult6" values="0 0 0 0 1.0,0 0 0 0 1.0,0 0 0 0 0.8,0 0 0 1 0"/><feConvolveMatrix divisor="4" in="filterResult6" kernelMatrix="1 1 1 1" order="2 2" result="filterResult7"/><feComposite in="SourceGraphic" in2="filterResult7" result="filterResult8"/></filter><use ffdec:characterId="17" filter="url(#o)" height="11.9" transform="rotate(-28.08 300.856 102.417) scale(1.5708)" width="21.8" xlink:href="#p"/><filter id="q"><feColorMatrix in="SourceGraphic" result="filterResult9" values="0 0 0 0 1.0,0 0 0 0 1.0,0 0 0 0 0.8,0 0 0 1 0"/><feConvolveMatrix divisor="4" in="filterResult9" kernelMatrix="1 1 1 1" order="2 2" result="filterResult10"/><feComposite in="SourceGraphic" in2="filterResult10" result="filterResult11"/></filter><use ffdec:characterId="21" filter="url(#q)" height="17" transform="translate(19.198 141.222) scale(1.9032)" width="24.95" xlink:href="#r"/><use ffdec:characterId="22" height="37.9" transform="matrix(1.3 0 0 1.3 3.26 98.815)" width="41.6" xlink:href="#s"/><use ffdec:characterId="23" height="19.1" transform="matrix(1.3 0 0 1.3 -8.015 83.135)" width="19.1" xlink:href="#t"/><use ffdec:characterId="24" height="52.3" transform="matrix(1.3 0 0 1.3 -13.005 70.905)" width="59.65" xlink:href="#u"/><use ffdec:characterId="25" height="52.7" transform="matrix(1.3 0 0 1.3 -4.99 37.08)" width="65.55" xlink:href="#v"/><use ffdec:characterId="26" height="35" transform="matrix(1.3 0 0 1.3 43.675 59.05)" width="14.55" xlink:href="#w"/><use ffdec:characterId="27" height="25.35" transform="matrix(1.3 0 0 1.3 51.655 85.19)" width="23.45" xlink:href="#x"/><use ffdec:characterId="28" height="10.25" transform="matrix(1.3 0 0 1.3 -4.69 94.95)" width="6.85" xlink:href="#y"/><use ffdec:characterId="29" height="15.65" transform="matrix(1.3 0 0 1.3 15.71 94.345)" width="14.6" xlink:href="#z"/><use ffdec:characterId="30" height="13" transform="matrix(1.3 0 0 1.3 -7.535 105.25)" width="36.85" xlink:href="#A"/></g><g id="d"><path d="m-2.85-11.6 1.55-.7Q2.05-5.2 8.1-1.9 7.15-.45 4.6.1 6 2.25 8 2.6 6.5 4.1 4.55 4.05 6 4.95 6 7.1q-.1 2.15 2.25 2.5l-1.6 1.5q-2.4-1.4-2.3-3.9.1-2.5-1.55-3.6Q4.2 3.5 5 2.4q-1.35-.5-2.3-2 1.45-.8 2.75-2.25-5.1-2.4-8.3-9.75" fill="#ff68fa" fill-rule="evenodd" transform="translate(9.25 13.3)"/><path d="M6.65 11.1q-2.75 1.65-7.8 1.15-5.95-6.3-7.1-15.8-.15-5.25 5.4-8.05 3.2 7.35 8.3 9.75Q4.15-.4 2.7.4q.95 1.5 2.3 2-.8 1.1-2.2 1.2 1.65 1.1 1.55 3.6-.1 2.5 2.3 3.9" fill="#d6a561" fill-rule="evenodd" transform="translate(9.25 13.3)"/><path d="M6.4 1.7 7.95 1q3.35 7.1 9.4 10.4-.95 1.45-3.5 2 1.4 2.15 3.4 2.5-1.5 1.5-3.45 1.45 1.45.9 1.45 3.05-.1 2.15 2.25 2.5l-1.6 1.5q-2.75 1.65-7.8 1.15-5.95-6.3-7.1-15.8Q.85 4.5 6.4 1.7z" fill="none" stroke="#b46925" stroke-linecap="round" stroke-linejoin="round" stroke-width="2"/></g><g id="e"><path d="M10.15-.9q-.7.7-1.6 1.2-1.3.7-3 .9Q2.35 1.6 0-.7L2.3 6q.7 2.15 0 4.1-.7 1.95-2.9 4.05Q-5 18.3-12.45 18.6v-1.15q6.5-.75 10.05-3.5Q1.4 11 .65 6.55q-.15-1-1.3-3.8Q-1.75 0-2.05-2.3l-.1-1.7q.05-2 1-3.3 1.2-1.65 3.4-1.35l.5.05Q.85-.2 10.15-.9M0-.7l-.35-3q.05-3.85 3.1-4.9Q-.3-7.55-.35-3.7L0-.7" fill="#ff68fa" fill-rule="evenodd" transform="translate(13.45 19.6)"/><path d="M11.65-2.85q-.6 1.05-1.5 1.95-9.3.7-7.4-7.7 7.85-1.9 8.9 5.75" fill="#de8e86" fill-rule="evenodd" transform="translate(13.45 19.6)"/><path d="M1.55-18.6q3.8 0 6.6 2.6 3.3 3.1 4.15 7.4.6 3.3-.65 5.75-1.05-7.65-8.9-5.75l-.5-.05q2.8-5.4-.7-9.95" fill="#ffb89b" fill-rule="evenodd" transform="translate(13.45 19.6)"/><path d="M-7.5-14.8q2.35-2.6 6.15-3.45l2.9-.35q3.5 4.55.7 9.95-2.2-.3-3.4 1.35-.95 1.3-1 3.3-5.25-.65-5.35-10.8" fill="#693d16" fill-rule="evenodd" transform="translate(13.45 19.6)"/><path d="M-8.4 1.15-9.9-1.9q-2.1-4.95.4-10 .8-1.65 2-2.9Q-7.4-4.65-2.15-4l.1 1.7q.3 2.3 1.4 5.05Q.5 5.55.65 6.55 1.4 11-2.4 13.95q-3.55 2.75-10.05 3.5V15.3Q1.6 13-8.4 1.15" fill="#4c2519" fill-rule="evenodd" transform="translate(13.45 19.6)"/><path d="M-12.45 15.3v-.6q7.8-1.45 6.35-7.95-.45-1.9-1.75-4.5l-.55-1.1Q1.6 13-12.45 15.3" fill="#3f1e1e" fill-rule="evenodd" transform="translate(13.45 19.6)"/><path d="m5.05 20.75-1.5-3.05q-2.1-4.95.4-10 .8-1.65 2-2.9Q8.3 2.2 12.1 1.35L15 1m-1.55 17.9 2.3 6.7q.7 2.15 0 4.1-.7 1.95-2.9 4.05Q8.45 37.9 1 38.2v-3.9q7.8-1.45 6.35-7.95-.45-1.9-1.75-4.5l-.55-1.1M16.2 11q-3.05 1.05-3.1 4.9l.35 3" fill="none" stroke="#370000" stroke-linecap="round" stroke-linejoin="round" stroke-width="2"/><path d="M15 1q3.8 0 6.6 2.6 3.3 3.1 4.15 7.4.6 3.3-.65 5.75-.6 1.05-1.5 1.95-.7.7-1.6 1.2-1.3.7-3 .9-3.2.4-5.55-1.9" fill="none" stroke="#892a2a" stroke-linecap="round" stroke-linejoin="round" stroke-width="2"/></g><g id="f"><path d="M.65 18.1q-1.1-.3-1.8-.95l-1.4-1.6q-4.55 1.6-6.35-4.8h.25q.6 0 1-.45.45-.4.45-1t-.45-1.05q-.4-.4-1-.4-.45 0-.8.25l-.35-2.75Q-2.05 3.3.75 6.9q2.7 3.5-.1 11.2m-4.4-4.65 1.2 2.1-1.2-2.1m.7-2.85-.15.45.15.45.45.2q.25 0 .4-.2l.2-.45-.2-.45q-.15-.2-.4-.2l-.45.2m-1.8-2.3.4.7q.3.3.65.2l.45-.5q.2-.35.05-.8-.1-.5-.45-.8-.3-.25-.65-.15l-.45.45v.9" fill="#ffb89b" fill-rule="evenodd" transform="translate(12.5 19.3)"/><path d="M-1.15 17.15q-4.45 1.1-6.8-1.4-1.95-2.1-2.95-7.7-.75-4.05-.55-7.7l1.35-.9.3 5.9.35 2.75q.35-.25.8-.25.6 0 1 .4.45.45.45 1.05 0 .6-.45 1-.4.45-1 .45h-.25q1.8 6.4 6.35 4.8l1.4 1.6m-3.7-8.85v-.9l.45-.45q.35-.1.65.15.35.3.45.8.15.45-.05.8l-.45.5q-.35.1-.65-.2l-.4-.7m1.8 2.3.45-.2q.25 0 .4.2l.2.45-.2.45q-.15.2-.4.2l-.45-.2-.15-.45.15-.45" fill="#ffe9be" fill-rule="evenodd" transform="translate(12.5 19.3)"/><path d="M8.05 1.6q-.35 3-.15 5.5 2.9 4.4-.65 8.95l-.25.5q-.95 1.6-3.3 1.8L.65 18.1q2.8-7.7.1-11.2-2.8-3.6-10.55-1.55l-.3-5.9q7-3.9 18.15 2.15M5.3 10.55q.7-1.3-.35-3.75Q6 9.25 5.3 10.55 8.15 11.9 7.55 15l-.3 1.05.3-1.05q.6-3.1-2.25-4.45L4.1 11.6l1.2-1.05M7.9 7.1 6.2 5.05 7.9 7.1" fill="#de8e86" fill-rule="evenodd" transform="translate(12.5 19.3)"/><path d="M-11.45.35q.5-11.5 9.9-18.65 8.4-.15 13 5.95-2.75 8-3.4 13.95Q-3.1-4.45-10.1-.55l-1.35.9" fill="#4c2519" fill-rule="evenodd" transform="translate(12.5 19.3)"/><path d="M20.55 20.9q-.35 3-.15 5.5 2.9 4.4-.65 8.95l-.25.5q-.95 1.6-3.3 1.8l-3.05-.25q-1.1-.3-1.8-.95-4.45 1.1-6.8-1.4-1.95-2.1-2.95-7.7-.75-4.05-.55-7.7m17.65 4.7 1.7 2.05m-.65 8.95.3-1.05q.6-3.1-2.25-4.45l-1.2 1.05m.85-4.8q1.05 2.45.35 3.75m-7.85 5-1.2-2.1m1.2 2.1 1.4 1.6" fill="none" stroke="#892a2a" stroke-linecap="round" stroke-linejoin="round" stroke-width="2"/><path d="M1.05 19.65q.5-11.5 9.9-18.65 8.4-.15 13 5.95-2.75 8-3.4 13.95Q9.4 14.85 2.4 18.75l-1.35.9z" fill="none" stroke="#370000" stroke-linecap="round" stroke-linejoin="round" stroke-width="2"/></g><g id="B"><path d="M-5.3-4.5q.35 0 .4.4 0 .3-.4.45l-.9.45q-1.45.95-1.7.95-.45 0-.45-.4 0-.25 1.35-1.05l1.7-.8m-4.75 3.35.5-.5q.5-.1.5.35-.25.55-.55.55l-.45-.4m6.25.3q.4 0 .4.4 0 .45-.35.45-.45 0-.45-.45 0-.4.4-.4" fill="#ff9" fill-rule="evenodd" transform="translate(12.6 7.35)"/><path d="m3.5-1.4 1 .3 3.85-.1q.75.45.8 1.5l-1.6.25L1.95.2Q-2.4 1.35-4.7.7q-1.05 1.55-3.85 2.95V6.4q-3.3.05-2-3.65l.15-.4.95-1.75.2-.35 2.1-1.7 3-1.25q.1.85 1.1 1.1l1 .1q0-1.1-.15-1.85l2.9-.6Q2.3-4 2.6-2.8l.05.25v.1q.15.6.7.95l.15.1M.7-3.95Q.3-2.8.35-1.9l-2.4.4 2.4-.4Q.3-2.8.7-3.95m-7.85 2.5.55.95.25.25q-1.3 1.25-2.2 3.9.9-2.65 2.2-3.9L-6.6-.5l-.55-.95m3.35.6q-.4 0-.4.4 0 .45.45.45.35 0 .35-.45 0-.4-.4-.4M1.95.2Q.5-.45.35-1.9.5-.45 1.95.2m-8.3-.45Q-5.7.4-4.7.7q-1-.3-1.65-.95" fill="#4f1aa9" fill-rule="evenodd" transform="translate(12.6 7.35)"/><path d="M3.5-1.4q1.15-.85.55-2.75L2.9-5.6l1.15 1.45q.6 1.9-.55 2.75l-.15-.1q-.55-.35-.7-.95L2.6-2.8Q2.3-4 .7-3.95l-2.9.6q-.45-1.6-1.85-1.9 1.4.3 1.85 1.9.15.75.15 1.85l-1-.1q-1-.25-1.1-1.1l-3 1.25-2.1 1.7-.2.35-.95 1.75-.15.4Q-11.7 2.1-11.6.15q.8-2.35 3.05-3.9 2.15-1.4 4.5-1.5 4.8-2 6.95-.35 3.75-.6 6.35 1.25l-.05.05.35.15L10.8-3q1 1.1.65 3.6-.35 2.45-3.9-.05L9.15.3q-.05-1.05-.8-1.5l-3.85.1-1-.3m5.7-2.9Q5.85-5.65 4.5-1.1q1.35-4.55 4.7-3.2m-19.25 3.15.45.4q.3 0 .55-.55 0-.45-.5-.35l-.5.5M-5.3-4.5l-1.7.8q-1.35.8-1.35 1.05 0 .4.45.4.25 0 1.7-.95l.9-.45q.4-.15.4-.45-.05-.4-.4-.4" fill="#8f5de4" fill-rule="evenodd" transform="translate(12.6 7.35)"/><path d="M21.85 3q-2.6-1.85-6.35-1.25Q13.35.1 8.55 2.1q-2.35.1-4.5 1.5Q1.8 5.15 1 7.5q-.1 1.95 1.05 2.6-1.3 3.7 2 3.65V11q2.8-1.4 3.85-2.95 2.3.65 6.65-.5l5.6.35q3.55 2.5 3.9.05.35-2.5-.65-3.6L22.15 3.2l-.35-.15m.35.15-.3-.2" fill="none" stroke="#1a217f" stroke-linecap="round" stroke-linejoin="round" stroke-width="2"/><path d="m15.5 1.75 1.15 1.45q.6 1.9-.55 2.75l1 .3q1.35-4.55 4.7-3.2M8.55 2.1q1.4.3 1.85 1.9l2.9-.6q1.6-.05 1.9 1.15l.05.35q.15.6.7.95l.15.1m-.9-1.4.05.25v.1m1.85 1.35 3.85-.1q.75.45.8 1.5l-1.6.25m-14.7-2-2.1 1.7-.2.35L2.2 9.7l-.15.4m8.5-4.25 2.4-.4q-.05-.9.35-2.05M5.45 5.9l3-1.25q.1.85 1.1 1.1l1 .1q0-1.1-.15-1.85m-6.35 7q.9-2.65 2.2-3.9L6 6.85l-.55-.95M7.9 8.05q-1-.3-1.65-.95m6.7-1.65q.15 1.45 1.6 2.1" fill="none" stroke="#1a217f" stroke-linecap="round" stroke-linejoin="round" stroke-width="1.5"/></g><g id="i"><path d="M-27.6-.45q-.6-1.7-.8-3.6 2.65-11.4 10.7-16.6 6.4-4.2 16.35-4.35 4.55.75 7.8 2.55Q10.2-17.4 10.2-10.8q0 8-5.1 13.35l-2.55 1.8Q-3.05 8-7.9 8q-6.75 0-11.75-2.6-3.6-1.9-7.95-5.85m50.75 4.4Q27.7 8.1 25.9 13.2q-2 5.55-6.05 8.2-3.3 2.15-8.4 2.95 4.05-13.65 11.7-20.4" fill="#4c2519" fill-rule="evenodd" transform="translate(29.4 26)"/><path d="M2.75 24.45q-2.55-.6-4.95-1.8-6.05-3-7.65-8.55l-1.85-.65q-3.1-1.1-5.6-2.45-4.2-2.3-6.85-5.35-2.4-2.75-3.45-6.1 4.35 3.95 7.95 5.85Q-14.65 8-7.9 8q4.85 0 10.45-3.65l2.55-1.8q5.1-5.35 5.1-13.35 0-6.6-3.75-11.65 5.9 3.25 7.6 10Q16.9-1.2 22.4 3.3l.75.65q-7.65 6.75-11.7 20.4l-2.5.3-6.2-.2" fill="#3f1e1e" fill-rule="evenodd" transform="translate(29.4 26)"/><path d="M-1.35-25h.2q3.65.3 6.55 1.25 9 2.8 11 11.4 2.55 11 7.8 15.45l.3.25q5.4 4.35 3.35 9.95-2.1 5.55-6.2 8.25t-10.95 3.4l-7.95-.5 6.2.2 2.5-.3q5.1-.8 8.4-2.95 4.05-2.65 6.05-8.2 1.8-5.1-2.75-9.25l-.75-.65q-5.5-4.5-8.35-15.75-1.7-6.75-7.6-10-3.25-1.8-7.8-2.55" fill="#ff76f7" fill-rule="evenodd" transform="translate(29.4 26)"/><path d="M28.05 1h.2q3.65.3 6.55 1.25 9 2.8 11 11.4 2.55 11 7.8 15.45l.3.25q5.4 4.35 3.35 9.95-2.1 5.55-6.2 8.25t-10.95 3.4l-7.95-.5q-2.55-.6-4.95-1.8-6.05-3-7.65-8.55l-1.85-.65q-3.1-1.1-5.6-2.45-4.2-2.3-6.85-5.35-2.4-2.75-3.45-6.1-.6-1.7-.8-3.6 2.65-11.4 10.7-16.6Q18.1 1.15 28.05 1z" fill="none" stroke="#370000" stroke-linecap="round" stroke-linejoin="round" stroke-width="2"/></g><g id="j"><path d="M-4.5 1.3q1-2.55 2.85-4.3Q1.4-5.95 4-6.4l2.35.25q1.1.55 1.3 1.7.9 4.6-3.95 7.15l-1.4-.4q-2.8-.95-6.8-1" fill="#693d16" fill-rule="evenodd" transform="translate(14.1 11.15)"/><path d="M-9.8.65Q-6.45-5.4-1-8.5q4.55-2.55 7.8-1.1 2.45 1.1 2.7 4.15Q.75-11.8-9.8.65" fill="#3f1e1e" fill-rule="evenodd" transform="translate(14.1 11.15)"/><path d="M-9.8.65Q.75-11.8 9.5-5.45l-.4.9Q8.4.75 5.65 5.1l.25-1.3q-.65-.6-2.2-1.1Q8.55.15 7.65-4.45q-.2-1.15-1.3-1.7L4-6.4Q1.4-5.95-1.65-3-3.5-1.25-4.5 1.3h-.25q-3.85-.05-6.3 1.85L-9.8.65M5.9 3.1v.7-.7" fill="#4c2519" fill-rule="evenodd" transform="translate(14.1 11.15)"/><path d="M5.65 5.1 4.9 6.9q-.85 1.6-2.65 2.7-1.8 1.05-3.7.3-.7-.25-1-.75-3.3 1.2-4.4 0-4.6.4-5.8-1.55-1.3-1.95 1.25-4.15l.35-.3q2.45-1.9 6.3-1.85h.25q4 .05 6.8 1l1.4.4q1.55.5 2.2 1.1l-.25 1.3M-2.9 6.15q-.3 1.95.45 3-.75-1.05-.45-3m-3.95 3q-.95-1-.55-3.75-.4 2.75.55 3.75" fill="#de8e86" fill-rule="evenodd" transform="translate(14.1 11.15)"/><path d="M23.6 5.7q-.25-3.05-2.7-4.15-3.25-1.45-7.8 1.1-5.45 3.1-8.8 9.15l-1.25 2.5m16.95.65v-.7m0 .7-.25 1.3" fill="none" stroke="#370000" stroke-linecap="round" stroke-linejoin="round" stroke-width="2"/><path d="m19.75 16.25-.75 1.8q-.85 1.6-2.65 2.7-1.8 1.05-3.7.3-.7-.25-1-.75-3.3 1.2-4.4 0-4.6.4-5.8-1.55Q.15 16.8 2.7 14.6l.35-.3m3.65 2.25q-.4 2.75.55 3.75m4.4 0q-.75-1.05-.45-3" fill="none" stroke="#892a2a" stroke-linecap="round" stroke-linejoin="round" stroke-width="2"/><path d="M9.6 12.45q4 .05 6.8 1l1.4.4m-14.75.45q2.45-1.9 6.3-1.85h.25" fill="none" stroke="#370000" stroke-linecap="round" stroke-linejoin="round" stroke-width="1.5"/></g><g id="k"><path d="M5.55-8.6q2.1 8.45.9 12.85Q5.25 8.7.9 8.35q-5.6-.5-6.45-4.6Q-6.4-.45-2-7.1q4.2-4.2 7.55-1.5" fill="#693d16" fill-rule="evenodd" transform="translate(14.3 15.15)"/><path d="m7.35-9.9-.65.65Q9.3-2.4 9.45 5.55l1-1.2q-.05 1.9.55 2.05-1.6 3.45-8.75 7.15l-10.3-9.9q-4.35-.8-5.5-4.55L2.5-12.95Q4.9-15 7.65-13.5q-1.95 1.15-2.9 2.45l3.05.25-.45.9M-6 3.8l-2.05-.15L-6 3.8M5.55-8.6Q2.2-11.3-2-7.1-6.4-.45-5.55 3.75q.85 4.1 6.45 4.6 4.35.35 5.55-4.1 1.2-4.4-.9-12.85" fill="#4c2519" fill-rule="evenodd" transform="translate(14.3 15.15)"/><path d="m6.7-9.25.65-.65Q12-2.7 10.45 4.35l-1 1.2Q9.3-2.4 6.7-9.25m-3.85 23.4-.6-.6Q9.4 9.85 11 6.4q-.6-.15-.55-2.05l2.15-1.8q-.15 1.7-1.2 2.85l2.2-.75q-2.2 6.05-10.75 9.5" fill="#ff76f7" fill-rule="evenodd" transform="translate(14.3 15.15)"/><path d="M21.65 5.25 21 5.9m3.75 13.6q1.55-7.05-3.1-14.25l.45-.9-3.05-.25q.95-1.3 2.9-2.45-2.75-1.5-5.15.55m7.95 17.3 2.15-1.8q-.15 1.7-1.2 2.85l2.2-.75q-2.2 6.05-10.75 9.5" fill="none" stroke="#370000" stroke-linecap="round" stroke-linejoin="round" stroke-width="2"/><path d="M.75 14.25Q1.9 18 6.25 18.8l2.05.15" fill="none" stroke="#370000" stroke-linecap="round" stroke-linejoin="round" stroke-width="1.5"/></g><g id="l"><path d="M13.4-9.9q-7.3 4.5-10.7 3-2.4-4.45 1-9.6l9.7 6.6" fill="#693d16" fill-rule="evenodd" transform="translate(16.05 17.5)"/><path d="M-9.6-6.95Q3-7.9 10.4 3.8L6.95 7.9Q8.6 7.75 8.8 9.5q.15 1.65-.9 3.15-1.45 2-2.75 2.8-1.4.85-3.15.65-1.4-.15-2.4-.9Q-2 14-2.65 11.3-2 14-.4 15.2q-3.05 1.55-5.35 1.35 2.5-.65 3.1-5.25Q1.15-2.25-12.2-1.75l-1 .05q1.3-2.75 3.6-5.25M5.35 9.65l1.6-1.75-1.6 1.75" fill="#de8e86" fill-rule="evenodd" transform="translate(16.05 17.5)"/><path d="M-8 5.4q0-.6-.25-1-.2-.4-.55-.4-.35 0-.6.4l-.2 1 .2 1 .6.4q.35 0 .55-.4.25-.4.25-1m-4.2-7.15q13.35-.5 9.55 13.05-.6 4.6-3.1 5.25-2.1-.25-3.65-1.95h-1.15q-4.8-8.3-1.65-16.35M-7.4 9.5q0-.4-.3-.7l-.65-.25-.7.25-.25.7.25.65.7.3q.4 0 .65-.3.3-.25.3-.65m-2 5.1q-.85-1.5-1.3-3.9.45 2.4 1.3 3.9" fill="#ffb89b" fill-rule="evenodd" transform="translate(16.05 17.5)"/><path d="M-8 5.4q0 .6-.25 1-.2.4-.55.4l-.6-.4-.2-1 .2-1q.25-.4.6-.4t.55.4q.25.4.25 1m-5.2-7.1 1-.05q-3.15 8.05 1.65 16.35-5-.3-4.35-6.05-.65-5.45 1.7-10.25m5.8 11.2q0 .4-.3.65-.25.3-.65.3l-.7-.3-.25-.65.25-.7.7-.25.65.25q.3.3.3.7" fill="#ffe9be" fill-rule="evenodd" transform="translate(16.05 17.5)"/><path d="M3.7-16.5q-3.4 5.15-1 9.6 3.4 1.5 10.7-3l.1.05q3.6 6.5-1.4 11.8L10.4 3.8Q3-7.9-9.6-6.95q4.65-5.2 13.3-9.55" fill="#4c2519" fill-rule="evenodd" transform="translate(16.05 17.5)"/><path d="M13.4 28.8q.65 2.7 2.25 3.9 1 .75 2.4.9 1.75.2 3.15-.65 1.3-.8 2.75-2.8 1.05-1.5.9-3.15-.2-1.75-1.85-1.6l-1.6 1.75M2.85 15.8q1.3-2.75 3.6-5.25m3.85 23.5q-2.1-.25-3.65-1.95H5.5q-5-.3-4.35-6.05Q.5 20.6 2.85 15.8m2.5 12.4q.45 2.4 1.3 3.9m3.65 1.95q2.3.2 5.35-1.35m10.8-11.4L23 25.4" fill="none" stroke="#892a2a" stroke-linecap="round" stroke-linejoin="round" stroke-width="2"/><path d="M19.75 1q-8.65 4.35-13.3 9.55m20 10.75 1.7-1.85q5-5.3 1.4-11.8" fill="none" stroke="#370000" stroke-linecap="round" stroke-linejoin="round" stroke-width="2"/></g><g id="C"><path d="M1.45-6.5q0 .4-.4.4-.45 0-.45-.4t.45-.4q.4 0 .4.4m1.05.25 1.65.05q1.6.85 1.6 1.35 0 .4-.35.4-.3 0-.75-.35L4-5.3l-1.05-.45q-.45-.2-.45-.5m.7 4.7q.4 0 .4.4t-.35.4q-.45 0-.45-.4t.4-.4m-.95-.2q-.4 0-.65-.35-.15-.25-.15-.45 0-.8.8-.8t.8.8q0 .8-.8.8m-14.15-3q.95-.65.95.1-1.1 1.25-1.55 1.25-.4 0-.4-.4 0-.35 1-.95m3.3-3.85q2.4-.35 2.4.25l-.45.3-1.95.25q-1.8.65-2.05.65-.4 0-.4-.4 0-.7 2.45-1.05m-5 5.45q.85 0 .85.8t-.85.8q-.85 0-.85-.8t.85-.8m9.2.05q0-.4.4-.4t.4.4q0 .4-.35.4-.45 0-.45-.4" fill="#ff9" fill-rule="evenodd" transform="translate(16.55 11)"/><path d="M1.45-6.5q0-.4-.4-.4-.45 0-.45.4t.45.4q.4 0 .4-.4M-11.3-2.3l-3 3.4q-1.9-.55-.95-3.55.8-1.6 1.75-2.6.15-2 1.95-3.3 1.8-1.3 4.95-1.6 3.1-.35 3.85 1.65l.1.2q.35 1.25-.4 2.5l-1.1 1.25q1.4.7 2.95 1l-.05.05-.3 1.5.3.95.35.55q-4.85-.4-6.35-2.45-.7-.95-.7-2.4L-11.3-2.3M-.5-8.05q5.25.25 6.7 2.25l.45.8q-.15.65-.7 1.1-.75.6-2 .55-.4 1.05 1 2.6L7.3 1q1.35.1 2.15-.6l1.7 2.15-1.55.95-3.65-.25q-3.05-2-4.25-3.7Q.6-1.9.9-3.15q.1-.75.9-1.9L-1-5.5l-.3-1.15q0-.8.8-1.4m-13 3q2.55-1.45 5.8-1.75l-.25 1.65.25-1.65q-3.25.3-5.8 1.75m16-1.2q0 .3.45.5L4-5.3l.65.5q.45.35.75.35.35 0 .35-.4 0-.5-1.6-1.35L2.5-6.25m1.45 2.9.35-.55q-.9-.75-2.5-1.15 1.6.4 2.5 1.15l-.35.55m-1.7 1.6q.8 0 .8-.8t-.8-.8q-.8 0-.8.8 0 .2.15.45.25.35.65.35m.95.2q-.4 0-.4.4t.45.4q.35 0 .35-.4t-.4-.4M-8.6-8.6q-2.45.35-2.45 1.05 0 .4.4.4.25 0 2.05-.65l1.95-.25.45-.3q0-.6-2.4-.25m-3.3 3.85q-1 .6-1 .95 0 .4.4.4.45 0 1.55-1.25 0-.75-.95-.1m4.2-2.05 2.9-.05q-.9 1.55.05 2.15l.6.35-.6-.35q-.95-.6-.05-2.15l-2.9.05m3.3 3.7q0 .4.45.4.35 0 .35-.4t-.4-.4q-.4 0-.4.4m-9.2-.05q-.85 0-.85.8t.85.8q.85 0 .85-.8t-.85-.8" fill="#8f5de4" fill-rule="evenodd" transform="translate(16.55 11)"/><path d="m-2.65-8.1 2.15.05q-.8.6-.8 1.4L-1-5.5l-2.05-.1 2.05.1 2.8.45Q1-3.9.9-3.15l-2.1-.2 2.1.2q-.3 1.25.8 2.7L-.35-.3H-.9l-.35-.55-.3-.95.3-1.5.05-.05q-1.55-.3-2.95-1l1.1-1.25q.75-1.25.4-2.5M6.65-5q.25.85 0 2l2.7-.1q3.85 2.85 5.4 6.95l-.55-.05q-1.15 0-2 .6l-1.05-1.85L12.2 4.4l.3.7q.3 2.85-.05 4.05-.45 1.3-1.65.75l.25-.35q.55-.8.55-1.55 0-1.55-1.15-1.55l-.7.15-.05.3-.25.9q-2-2.2-3.5-4.55l3.65.25 1.55-.95L9.45.4q-.8.7-2.15.6L4.95-.75q-1.4-1.55-1-2.6 1.25.05 2-.55.55-.45.7-1.1m-13.9 2.25q-1.45.8-4.05.45l3.35-2.85q0 1.45.7 2.4M6.65-3q-.95.7-1.7 2.25Q5.7-2.3 6.65-3M9.6 3.5l.15 3.1-.15-3.1" fill="#4f1aa9" fill-rule="evenodd" transform="translate(16.55 11)"/><path d="m14.75 3.85.75 2.7q-.85 2.9-3.05 2.6.35-1.2.05-4.05l-.3-.7q.85-.6 2-.6l.55.05M10.8 9.9 9.1 8.65l.35-.85.25-.9.05-.3.7-.15q1.15 0 1.15 1.55 0 .75-.55 1.55l-.25.35" fill="#e38fdd" fill-rule="evenodd" transform="translate(16.55 11)"/><path d="m5.25 8.7-3 3.4q-1.9-.55-.95-3.55.8-1.6 1.75-2.6.15-2 1.95-3.3 1.8-1.3 4.95-1.6Q13.05.7 13.8 2.7l.1.2 2.15.05q5.25.25 6.7 2.25l.45.8q.25.85 0 2l2.7-.1q3.85 2.85 5.4 6.95l.75 2.7q-.85 2.9-3.05 2.6-.45 1.3-1.65.75l-1.7-1.25.35-.85q-2-2.2-3.5-4.55-3.05-2-4.25-3.7l-2.05.15m-.55 0q-4.85-.4-6.35-2.45-1.45.8-4.05.45m21 9.2-.25.9M8.6 5.85q0 1.45.7 2.4" fill="none" stroke="#1a217f" stroke-linecap="round" stroke-linejoin="round" stroke-width="2"/><path d="M5.25 8.7 8.6 5.85l.25-1.65q-3.25.3-5.8 1.75M13.5 5.4l2.05.1 2.8.45q1.6.4 2.5 1.15l-.35.55q-.4 1.05 1 2.6.75-1.55 1.7-2.25m-9.3-5.1q.35 1.25-.4 2.5l-1.1 1.25q1.4.7 2.95 1l2.1.2q.1-.75.9-1.9m-.1 4.6q-1.1-1.45-.8-2.7m4.05 2.4L23.85 12q1.35.1 2.15-.6l1.7 2.15 1.05 1.85.3.7q.3 2.85-.05 4.05m-2.7-2.55-.15-3.1-3.65-.25m3.65.25 1.55-.95m-15.3-6.9-.6-.35q-.95-.6-.05-2.15l-2.9.05" fill="none" stroke="#1a217f" stroke-linecap="round" stroke-linejoin="round" stroke-width="1.5"/></g><g id="D" fill-rule="evenodd"><path d="m-7.95-3.5-.25-.05L-9-3l-.05.15q.5-1.65 1.5-1.75.95-.05 1.3 1.35l.1 1.4-.05-.2q-.5-1.65-1.35-1.6l-.4.15m3.25 8.55-.55.35h-.05l-.2.05q-.65.15-1.3-.4-.7-.55-.65-1.6l.3-2.55Q-6.9-.7-7-2.15L-6.85-1-7 1.2l-.2 2.2q.1 1.9 1.6 1.8l.9-.15M1.45.6l-.2-1.25Q.75-4.8-.5-4.7l-.25.05Q-.3-5.2.2-5.1q.6 0 1.1.95l.1.3.2 1.2L1.55-.2l-.1.8m2.4-2.65h.3q.55.05 1 .8.45.8 1.85-.4l-.1.3-.25.4q-.25.65-.6.65-.6.05-1.1-.85-.45-.9-1.1-.9m.8 4.65-.6.9q-.9.8-1.6.35-.3-.2-.55-1.05.6.7 1.5.65l.75-.35.5-.5" fill="#fceefe" transform="translate(9.05 5.1)"/><path d="m-7.95-3.5.4-.15q.85-.05 1.35 1.6l.05.2L-6.4 0l-.55 3.25Q-7.05 4.5-5.9 4.6q1.05 0 1.4-1.15l.4-1.65q.15 2.25-.45 3.1l-.15.15-.9.15q-1.5.1-1.6-1.8l.2-2.2.15-2.2L-7-2.15q-.05-.7-.35-1l-.6-.35m9.35-.35q.45 1.15.5 3.45v.3l1.05-1.3.3-.35.1-.05.5-.25q.65 0 1.1.9.5.9 1.1.85.35 0 .6-.65l.1.05-.3.45q-.35.5-.7.55-.7.05-1.15-.75l-.95-.75q-.55.05-1 .8L2 .7q.15 1.45.55 1.9.8.9 1.5.35.85-.6 1.1-2.65l-.5 2.3-.5.5-.75.35q-.9.05-1.5-.65l-.25-.7-.15-.75L1.45.6l.1-.8.05-2.45-.2-1.2" fill="#d939f5" transform="translate(9.05 5.1)"/></g><g id="E" fill-rule="evenodd"><path d="m3.5-6.85-.3-.1-.25.05-.35-.05Q2-7 .1-5.65 2.8-8 3.5-7.95l.85.2.1.45-.6 1.85q0-1.1-.35-1.4M3 3.45l-1.05.25q-1.2-.1-1.2-2 0-.85.6-2.45Q1.2.05 1.2.9q0 2.55 1.7 2.55H3M-11-2.4l-.2.5-.2 2.25q-.25-2 .05-3.2.25-1.15 1.15-1.2l.5.2-.9.55-.4.9m7.45 1.5.4-.55Q-3.8.65-4.5 1.1l-1.65.25q-.75-.2-1.5-1.4.9.8 2 .8 1.05 0 2.1-1.65m8.7 8.75q-.35-.2-.35-.6.05-.85 2.75-3.3 2.7-2.5 2.85-3.5.15-1-.9-1l.95-.1h.15l.25.8q0 1-2.7 3.6L8 3.9Q5.45 6.25 5.15 7.85M10 4.1q1-.3 1.35.65.35.95.1 1.75l-.55-1.35-.1-.25q-.3-.7-.8-.8m.15.9-.3.2q-.3.35-.8.35-.85 0-.9-1.1.7.65 1.3.65l.7-.1" fill="#fcf1fe" transform="translate(11.5 7.95)"/><path d="m3.85-5.45-.8 1.8Q1.65-.55 1.65.7q0 1.9 1.2 2 1.2.05 2.1-.8L3 3.45h-.1Q1.2 3.45 1.2.9q0-.85.15-1.65l.8-1.9.6-1.3.8-2.35-.1-.45.05-.1q.35.3.35 1.4M-9.7-3.85l1.15 1.5.2.35Q-7.3.1-6.4.25l1.65-.2 1.2-.95Q-4.6.75-5.65.75q-1.1 0-2-.8L-8.2-1q-1.05-2.15-1.85-2.1-.65.05-.95.7l.4-.9.9-.55M5.15 7.85Q5.45 6.25 8 3.9l.15-.15q2.7-2.6 2.7-3.6l-.25-.8q.9.05.75 1-.15.95-2.6 3.25-.15.9.7.7l.35-.1.2-.1q.5.1.8.8l-.25-.05-.4.15-.7.1q-.6 0-1.3-.65V4.3l.05-.15-.2.15Q5.8 6.45 5.75 7.15q-.05.55.75.75l-1.35-.05" fill="#d939f5" transform="translate(11.5 7.95)"/></g><g id="s"><path d="M.35 9.3Q-.8 8.3-3.8 7.85h-10.1q-.8 2.05-.8 3.85 3.75 1.1 9.8.25l.9-2.4.1 2.25q2.65-.2 2.9 1.3l-.35.9-1.2 1.65q-9.65.55-17.25-2.1-.15-3.1 1.85-6.45l.15-.25 1.15-1.65Q-18.6.05-16.3-5.15q2.25-5.25 7.65-8.65 5.4-3.45 12.95-4.05 7.55-.6 11.5 3.5t4 7.9q.05 3.5-2.3 7.1Q11 8 1.5 10.7L.35 9.3m-18.3-2.2q-1 3.3.55 6.25l13.1 1 .2-.95q-9.2.6-12.15-1.3-1.3-1.9.5-5h-2.2m15.35 7.45.15-.3-.15-.35-.3-.1-.35.1-.1.35.1.3.35.15.3-.15" fill="#f2ae00" fill-rule="evenodd" transform="translate(20.8 18.95)"/><path d="m-4 9.55-.9 2.4q-6.05.85-9.8-.25 0-1.8.8-3.85h10.1Q-.8 8.3.35 9.3L-1 13.1q-.25-1.5-2.9-1.3L-4 9.55l.2-1.7-.2 1.7" fill="#d6730f" fill-rule="evenodd" transform="translate(20.8 18.95)"/><path d="M-17.95 7.1h2.2q-1.8 3.1-.5 5Q-13.3 14-4.1 13.4l-.2.95-13.1-1q-1.55-2.95-.55-6.25" fill="#fdd676" fill-rule="evenodd" transform="translate(20.8 18.95)"/><path d="m.35 9.3 1.15 1.4q-.7 3.15-3.1 5.75-8.35 1.65-18.15-2.15l-.05-.75q7.6 2.65 17.25 2.1l1.2-1.65.35-.9L.35 9.3" fill="#e27f0e" fill-rule="evenodd" transform="translate(20.8 18.95)"/><path d="M1.5 10.7Q11 8 17.5.65l-.5.65Q14.35 5 10.3 7.8q-4.25 3-8.35 3.7-.8 4.45-3.35 6.3-12.8.75-18.15-2.45l-.2-1.05q9.8 3.8 18.15 2.15 2.4-2.6 3.1-5.75l.45.8-.45-.8" fill="#ff68fa" fill-rule="evenodd" transform="translate(20.8 18.95)"/><path d="m-2.6 14.55-.3.15-.35-.15-.1-.3.1-.35.35-.1.3.1.15.35-.15.3" fill="#ffdd8b" fill-rule="evenodd" transform="translate(20.8 18.95)"/><path d="M38.3 19.6q2.35-3.6 2.3-7.1-.05-3.8-4-7.9Q32.65.5 25.1 1.1q-7.55.6-12.95 4.05-5.4 3.4-7.65 8.65-2.3 5.2-.35 10.35L3 25.8m-.15.25Q.85 29.4 1 32.5l.05.75.2 1.05q5.35 3.2 18.15 2.45 2.55-1.85 3.35-6.3 4.1-.7 8.35-3.7 4.05-2.8 6.7-6.5l.5-.65" fill="none" stroke="#851a09" stroke-linecap="round" stroke-linejoin="round" stroke-width="2"/><path d="m16.8 28.5-.9 2.4q-6.05.85-9.8-.25 0-1.8.8-3.85H17q3 .45 4.15 1.45l1.15 1.4.45.8m-3.3 2.5.35-.9 1.35-3.8m-4.35.25.2-1.7" fill="none" stroke="#851a09" stroke-linecap="round" stroke-linejoin="round" stroke-width="1.5"/></g><g id="t"><path d="M-2.65-8.15 0-8.55q3.55 0 6.05 2.5T8.55 0q0 3.55-2.5 6.05T0 8.55q-3.55 0-6.05-2.5l-.3-.3q-3-9.4 3.7-13.9" fill="#ffb89b" fill-rule="evenodd" transform="translate(9.55 9.55)"/><path d="M-2.65-8.15q-6.7 4.5-3.7 13.9-2.2-2.4-2.2-5.75 0-3.55 2.5-6.05 1.5-1.5 3.4-2.1" fill="#ffe9be" fill-rule="evenodd" transform="translate(9.55 9.55)"/><path d="m3.2 15.3.3.3q2.5 2.5 6.05 2.5t6.05-2.5q2.5-2.5 2.5-6.05T15.6 3.5Q13.1 1 9.55 1l-2.65.4Q5 2 3.5 3.5 1 6 1 9.55q0 3.35 2.2 5.75z" fill="none" stroke="#892a2a" stroke-linecap="round" stroke-linejoin="round" stroke-width="2"/></g><g id="u"><path d="m-16.25-18.2 1.6-1.1q2.1 5.35 0 11.1 19.35-6.55 25.6 2.85 6.35 9.5-5.15 28.5-7.85 2.9-16.1 1.55-21.9-8.35-15.25-18.25 1.1 3.5 3.3 3.65-4.05-4.15 3.2-9-1.2-9.75 2.8-19.3m5.75 13.25-.35.65q0 .35.35.6.4.3.95.3.55 0 .9-.3.4-.25.4-.6l-.4-.65-.9-.25-.95.25m-.7-1.45q0-.65-.8-1.1l-1.85-.45-1.9.45q-.75.45-.75 1.1 0 .65.75 1.1.8.45 1.9.45 1.1 0 1.85-.45.8-.45.8-1.1" fill="#ffb89b" fill-rule="evenodd" transform="translate(29.85 26.15)"/><path d="m-10.3 24.7-4.25-.95q-4.85-1.4-7.85-3.3-3.75-2.35-5.45-5.9-1.5-3.05-.8-5.65.65-2.6 3.15-3.55 1.3-2.3 2.75-3.25L-20.6.9q-1.2-9.15 4.35-19.1-4 9.55-2.8 19.3-7.25 4.85-3.2 9-2.2-.15-3.3-3.65-6.65 9.9 15.25 18.25" fill="#ffe9be" fill-rule="evenodd" transform="translate(29.85 26.15)"/><path d="M-14.65-19.3Q1.7-30.2 22.5-20.75 31.2-8.9 27.9 2.4q-6.85 13.15-18.15 19L5.8 23.15q11.5-19 5.15-28.5-6.25-9.4-25.6-2.85 2.1-5.75 0-11.1" fill="#de8e86" fill-rule="evenodd" transform="translate(29.85 26.15)"/><path d="M-11.2-6.4q0 .65-.8 1.1-.75.45-1.85.45t-1.9-.45q-.75-.45-.75-1.1 0-.65.75-1.1l1.9-.45 1.85.45q.8.45.8 1.1m.7 1.45.95-.25.9.25.4.65q0 .35-.4.6-.35.3-.9.3t-.95-.3q-.35-.25-.35-.6l.35-.65" fill="#ffeabe" fill-rule="evenodd" transform="translate(29.85 26.15)"/><path d="m13.6 7.95 1.6-1.1Q31.55-4.05 52.35 5.4q8.7 11.85 5.4 23.15-6.85 13.15-18.15 19l-3.95 1.75q-7.85 2.9-16.1 1.55l-4.25-.95q-4.85-1.4-7.85-3.3Q3.7 44.25 2 40.7q-1.5-3.05-.8-5.65.65-2.6 3.15-3.55 1.3-2.3 2.75-3.25l2.15-1.2q-1.2-9.15 4.35-19.1z" fill="none" stroke="#892a2a" stroke-linecap="round" stroke-linejoin="round" stroke-width="2"/></g><g id="v"><path d="M20.55-19.35Q12.15-4.35-.7-.9q5 .85 10.05.1Q.75 4.6-6.6 7.15q-6.55 2.25-14.1 7.75l-1.45 1.05q1.35-5.3-.85-10.4l-.05-.15.65.05q1.1 0 1.85-.8.8-.75.8-1.85t-.8-1.9Q-21.3.15-22.4.15l-.55.05q.55-3.8 6.05-10.9l1.5-.85-1.5.85-3.15 2.7q-4.05 2.75-6.1 7.65-.6 6.4 1.1 10.4l.45 1.2-1.2 2.9Q-31 9.4-30.05 3.7q.85-5.35 6.45-9.95 5.45-4.5 6.05-8.85 1.45 1.4 2.15 3.55 1.65-.9 3.45-1.15 4.7-.8 6.85-1.55 2.15-.75 3.45-3.35 1 3.05-1.05 6.45 1.05-.2 2.25-.8 6.6-2.6 11.15-6.7 5.25-4.8 12.15-5.25l-2.3 4.55M-16.25-3.6q-.05.65.8.95l2.05.5 2.2.05q.95-.15.95-.8.1-.65-.8-1.2-.8-.6-2-.7l-2.15.2q-.95.35-1.05 1m1 5.3q-.4-.35-1-.35t-1.05.35q-.4.4-.4.9t.4.85q.45.4 1.05.4.6 0 1-.4.45-.35.45-.85t-.45-.9" fill="#fde258" fill-rule="evenodd" transform="translate(32.8 25.9)"/><path d="m23.3-24.9-.45 1q-6.9.45-12.15 5.25-4.55 4.1-11.15 6.7 3.3-1.7 8.05-6.35 6.4-6.4 15.7-6.6m-40.2 14.2Q-22.4-3.6-22.95.2l.55-.05q1.1 0 1.85.75.8.8.8 1.9 0 1.1-.8 1.85-.75.8-1.85.8l-.65-.05.05.15q2.2 5.1.85 10.4l-.5.4q-1 .6-1.6 1.3.75-3.1-.35-6.4l-.45-1.2q-1.7-4-1.1-10.4 2.05-4.9 6.1-7.65l3.15-2.7m-8.9 24.85-.1.2-.45.7q-6.3-5.1-5.3-11.35.85-5.35 6.45-9.95 6.15-5.05 6.1-10l1.25.9.3.25q-.6 4.35-6.05 8.85-5.6 4.6-6.45 9.95-.95 5.7 4.25 10.45m9.55-17.75q.1-.65 1.05-1l2.15-.2q1.2.1 2 .7.9.55.8 1.2 0 .65-.95.8l-2.2-.05-2.05-.5q-.85-.3-.8-.95m1 5.3q.45.4.45.9t-.45.85q-.4.4-1 .4t-1.05-.4q-.4-.35-.4-.85t.4-.9q.45-.35 1.05-.35.6 0 1 .35" fill="#fff5c4" fill-rule="evenodd" transform="translate(32.8 25.9)"/><path d="M10.95 9.25q8.05-6.2 9.5-24 .7 5 4.9 8.7l.1-3.75q5.9 15.7.45 28.55l-1.25 1.1q-.95-2.8-2.95-4.9-5.6 5.9-13.5 9.9 2.6-8.5 2.75-15.6" fill="#b4763e" fill-rule="evenodd" transform="translate(32.8 25.9)"/><path d="M20.45-14.75q-.3-2.15.1-4.6l2.3-4.55.45-1q-4.25 11.15 1 15.65-.8-3.25.8-6.2L26.9-11q2.95 6.3 2.55 13.55L31.7-1.8q.65 14.15-5.8 20.55Q31.35 5.9 25.45-9.8l-.1 3.75q-4.2-3.7-4.9-8.7" fill="#ff76f7" fill-rule="evenodd" transform="translate(32.8 25.9)"/><path d="M20.55-19.35q-.4 2.45-.1 4.6-1.45 17.8-9.5 24-8.1 4.6-16.5 3.1 1.85-1.45 2.25-4-4.75 3-11.7 4.9-4.6 1.2-7.15 2.75v-.05l1.45-1.05q7.55-5.5 14.1-7.75Q.75 4.6 9.35-.8 4.3-.05-.7-.9q12.85-3.45 21.25-18.45" fill="#d6a561" fill-rule="evenodd" transform="translate(32.8 25.9)"/><path d="M10.65 41.9q2.55-1.55 7.15-2.75 6.95-1.9 11.7-4.9-.4 2.55-2.25 4 8.4 1.5 16.5-3.1-.15 7.1-2.75 15.6 7.9-4 13.5-9.9 2 2.1 2.95 4.9l1.25-1.1q6.45-6.4 5.8-20.55l-2.25 4.35q.4-7.25-2.55-13.55l-1.8-4.45q-1.6 2.95-.8 6.2-5.25-4.5-1-15.65-9.3.2-15.7 6.6-4.75 4.65-8.05 6.35-1.2.6-2.25.8 2.05-3.4 1.05-6.45-1.3 2.6-3.45 3.35-2.15.75-6.85 1.55-1.8.25-3.45 1.15l-1.5.85-3.15 2.7m-2.6 24.35.5-.35M7 40.05l-.1.2-.45.7q-6.3-5.1-5.3-11.35.85-5.35 6.45-9.95 6.15-5.05 6.1-10l1.25.9.3.25q1.45 1.4 2.15 3.55m-9.2 22.8q1.1 3.3.35 6.4.6-.7 1.6-1.3m-1.95-5.1L7 40.05" fill="none" stroke="#b46925" stroke-linecap="round" stroke-linejoin="miter-clip" stroke-miterlimit="3" stroke-width="2"/><path d="m-25.55 11.6-.4-1.15Q-27.35 4.8-26.3-.7q-.35 6.7 2.2 10.35v.05l.45 1.25q.15.35-.05.75l-.55.5-.8-.05-.5-.55" fill="#b46925" fill-rule="evenodd" transform="translate(32.8 25.9)"/></g><g id="w"><path d="M-3 8.05q-2.4-.65-2.35-1 0-.4 1.4-2.25 1.4-1.9 1.75-4.9Q1-1.95 3.1-5l-5.65 9.75 4.25-3.7-4.7 7" fill="#fff" fill-rule="evenodd" transform="translate(7.25 17.5)"/><path d="M4.35-7.25Q4.5-1.2.95 4.1q-1.85 3.85-4.7 6.35l.75-2.4 4.7-7-4.25 3.7L3.1-5l1.25-2.25" fill="#66f0ff" fill-rule="evenodd" transform="translate(7.25 17.5)"/><path d="M4.35-7.25q1.85-3.95 2.15-9.5Q6.95-1.4.95 4.1 4.5-1.2 4.35-7.25M.95 4.1Q4 2.35 6.3.45L.3 8.6q-3.65 5.3-6.8 8.15 1.45-2.65 2.75-6.3Q-.9 7.95.95 4.1" fill="#6186d3" fill-rule="evenodd" transform="translate(7.25 17.5)"/><path d="M8.2 21.6q6-5.5 5.55-20.85-.3 5.55-2.15 9.5l-1.25 2.25q-2.1 3.05-5.3 4.9-.35 3-1.75 4.9-1.4 1.85-1.4 2.25-.05.35 2.35 1l-.75 2.4Q2.2 31.6.75 34.25q3.15-2.85 6.8-8.15l6-8.15q-2.3 1.9-5.35 3.65z" fill="none" stroke="#284aa9" stroke-linecap="round" stroke-linejoin="round" stroke-width="1.5"/></g><g id="x"><path d="M1.6-11.7q-4.8 1.4-7.8 4.2l.55.35q.45.45.45 1.05 0 .6-.45 1-.4.45-1 .45T-7.7-5.1l-.3-.4q-1.35 1.8-2.1 4.05l-.55 1.8q-.2-4.8 2.7-8 2.8-3.1 7.65-3.85l1.9-.2" fill="#ffe9be" fill-rule="evenodd" transform="translate(11.65 12.7)"/><path d="M1.6-11.7Q6-11.95 8-9.6 9.4-8 10.15-5.8q.9 2.7.6 5.65L10.15 3Q6.2 5.3 2.05 4.15q5-2.2 4.3-9.8-4.05-4.5-7.5-2.05-1.7 1.2-2.7 3.75-1.1 2.65-1.4 6.8-1.1 2.05-2.9 2.3Q-10.9 3-10.1-1.45-9.35-3.7-8-5.5l.3.4q.45.45 1.05.45.6 0 1-.45.45-.4.45-1t-.45-1.05l-.55-.35q3-2.8 7.8-4.2" fill="#ffb89b" fill-rule="evenodd" transform="translate(11.65 12.7)"/><path d="M-10.1-1.45q-.8 4.45 1.95 6.6 1.8-.25 2.9-2.3.3-4.15 1.4-6.8 1-2.55 2.7-3.75 3.45-2.45 7.5 2.05.7 7.6-4.3 9.8Q6.2 5.3 10.15 3q-1.7 5.75-7.4 7.85-6.9 2.5-11.8-2.7-2.1-4.2-1.6-7.8l.55-1.8m6.25 5.7q4.7-.8 4.3-5.2Q.3-2.65-.85-3.6q-1.2-1-3-.35 1.8-.65 3 .35Q.3-2.65.45-.95q.4 4.4-4.3 5.2" fill="#de8e86" fill-rule="evenodd" transform="translate(11.65 12.7)"/><path d="m21.8 15.7.6-3.15q.3-2.95-.6-5.65-.75-2.2-2.15-3.8-2-2.35-6.4-2.1l-1.9.2Q6.5 1.95 3.7 5.05q-2.9 3.2-2.7 8m20.8 2.65q-1.7 5.75-7.4 7.85-6.9 2.5-11.8-2.7" fill="none" stroke="#892a2a" stroke-linecap="round" stroke-linejoin="miter-clip" stroke-miterlimit="3" stroke-width="2"/><path d="M6.4 15.55q.3-4.15 1.4-6.8Q8.8 6.2 10.5 5q3.45-2.45 7.5 2.05M7.8 8.75q1.8-.65 3 .35 1.15.95 1.3 2.65.4 4.4-4.3 5.2" fill="none" stroke="#892a2a" stroke-linecap="round" stroke-linejoin="miter-clip" stroke-miterlimit="3" stroke-width="1.5"/></g><g id="y"><path d="m-3.05.1 2.2.35Q-.35.6.2.9l.05.05.9.5L.5 2.7q-.8 1.15-1.8 1l-.45-.15-.3-.2-.7-1.05q-.35-1-.3-2.2" fill="#fcfbfb" fill-rule="evenodd" transform="translate(3.8 5.5)"/><path d="M-3.05.1-3-.6v-.15q.2-1.7 1-2.85.8-1.1 1.85-1.1.6-.05 1.05.3l.5.65q.5 1 .2 3.15l-.15.8-.3 1.25-.9-.5L.2.9Q-.35.6-.85.45L-3.05.1" fill="#ba9e9b" fill-rule="evenodd" transform="translate(3.8 5.5)"/><path d="M1.15 1.45 1.45.2l.15-.8q.3-2.15-.2-3.15L.9-4.4q1.05.2 1.65 1.55Q3.25-1.4 3 .5q-.1 1.2-.55 2.1L1.8 3.65Q.85 4.9-.3 4.75q-1.1-.1-1.75-1.4l.3.2.45.15q1 .15 1.8-1l.65-1.25" fill="#de8e86" fill-rule="evenodd" transform="translate(3.8 5.5)"/><path d="M4.7 1.1Q4.25.75 3.65.8 2.6.8 1.8 1.9 1 3.05.8 4.75v.15l-.05.7q-.05 1.2.3 2.2l.7 1.05.3.2.45.15q1 .15 1.8-1l.65-1.25.3-1.25.15-.8q.3-2.15-.2-3.15l-.5-.65z" fill="none" stroke="#370000" stroke-linecap="round" stroke-linejoin="round" stroke-width="1.5"/><path d="M-2.8-.15q.05-.9.55-1.55.5-.8 1.15-.8.65 0 1.15.8.5.75.5 1.8l-.1.8L-.6.45l.05-.5q0-.45-.3-.75-.35-.35-.8-.35-.5 0-.8.35l-.35.65" fill="#651a19" fill-rule="evenodd" transform="translate(3.8 5.5)"/><path d="M-2.8.1v-.25l.35-.65q.3-.35.8-.35.45 0 .8.35.3.3.3.75l-.05.5-.25.35-.8.3q-.5 0-.8-.3L-2.8.1m1.45 1.35.15-.4Q-1 .9-.8.9q.25 0 .4.15l.2.4-.2.4-.4.15-.4-.15-.15-.4" fill="#fff" fill-rule="evenodd" transform="translate(3.8 5.5)"/><path d="m.45.9-.5 1.05q-.5.75-1.15.75-.65 0-1.15-.75-.5-.8-.45-1.8V.1l.35.7q.3.3.8.3l.8-.3.25-.35L.45.9m-1.8.55.15.4.4.15.4-.15.2-.4-.2-.4Q-.55.9-.8.9q-.2 0-.4.15l-.15.4" fill="#892a2a" fill-rule="evenodd" transform="translate(3.8 5.5)"/><path d="M1 5.35q.05-.9.55-1.55.5-.8 1.15-.8.65 0 1.15.8.5.75.5 1.8l-.1.8-.5 1.05q-.5.75-1.15.75-.65 0-1.15-.75-.5-.8-.45-1.8V5.6" fill="none" stroke="#370000" stroke-linecap="round" stroke-linejoin="round" stroke-width=".5"/><path d="m.9-4.4.5.65q.5 1 .2 3.15l-.15.8L.3-.65l-1.35-.4Q-.45-3.1.9-4.4" fill="#ffb89b" fill-rule="evenodd" transform="translate(3.8 5.5)"/><path d="M-3-.85q.2-1.65 1-2.75t1.85-1.1h.1l.5.05.4.25H.9Q-.45-3.1-1.05-1.05l-1.4.2-.3.1-.25-.1" fill="#ffeabe" fill-rule="evenodd" transform="translate(3.8 5.5)"/><path d="M.8 4.65Q1 3 1.8 1.9T3.65.8h.1l.5.05.45.25.5.65q.5 1 .2 3.15l-.15.8" fill="none" stroke="#370000" stroke-linecap="round" stroke-linejoin="round" stroke-width="1.5"/><path d="M1.45.2.3-.65l-1.35-.4-1.4.2-.3.1" fill="none" stroke="#370000" stroke-linecap="round" stroke-linejoin="round" transform="translate(3.8 5.5)"/></g><g id="z"><path d="M-6.55 1.35-6.5 0l.05-.1q.35-2.9 2.5-4.95Q-1.75-7.1 1-7.1l1.3.15q1.1.25 1.95.95l.75.75.25.35.5.9q.75 1.55.8 3.45l-.05.7-.3 1.65-2.05-.6Q-.9-.05-5.75 1.15l-.8.2" fill="#bda19e" fill-rule="evenodd" transform="translate(7.3 7.85)"/><path d="m-6.55 1.35.8-.2q4.85-1.2 9.9.05l2.05.6q-.55 1.8-2.05 3.25-2.2 2-4.95 2l-1-.05-.75-.45-.5.1Q-4.3 6.1-5.2 4.95q-1.25-1.5-1.35-3.6" fill="#fff" fill-rule="evenodd" transform="translate(7.3 7.85)"/><path d="M13.5 9.65 13.8 8l.05-.7q-.05-1.9-.8-3.45l-.5-.9-.25-.35-.75-.75Q10.7 1.15 9.6.9L8.3.75Q5.55.75 3.35 2.8 1.2 4.85.85 7.75l-.05.1L.75 9.2q.1 2.1 1.35 3.6.9 1.15 2.15 1.7l1.25.35 1 .05q2.75 0 4.95-2 1.5-1.45 2.05-3.25z" fill="none" stroke="#370000" stroke-linecap="round" stroke-linejoin="round" stroke-width="1.5"/><path d="M-6.05.05q.2-1.15 1-1.95 1-.95 2.3-.95 1.3 0 2.1.95.7.75.8 1.75l-2.45-.1-.15-.2Q-2.9-.9-3.5-.9l-1.1.45-.2.35-1.25.15" fill="#290000" fill-rule="evenodd" transform="translate(7.3 7.85)"/><path d="M-6.05.05-4.8-.1l-.25.8q0 .65.45 1.1.5.5 1.1.5.6 0 1.05-.5.5-.45.5-1.1 0-.55-.35-.95l2.45.1V.4q-.1 1.25-1 2.15l-.1-.15-.5-.2-.5.2-.2.55.15.4-1.25.25q-1.3 0-2.1-.95-.8-.9-.75-2.25l.05-.35" fill="#370000" fill-rule="evenodd" transform="translate(7.3 7.85)"/><path d="m-4.8-.1.2-.35 1.1-.45q.6 0 1.05.45l.15.2q.35.4.35.95 0 .65-.5 1.1-.45.5-1.05.5-.6 0-1.1-.5-.45-.45-.45-1.1l.25-.8M-2 3.35l-.15-.4.2-.55.5-.2.5.2.1.15.1.4-.2.5q-.2.25-.5.25l-.5-.25-.05-.1M-.15 2.2.3 2l.5.2.2.5-.2.5q-.2.2-.5.2l-.45-.2-.2-.5.2-.5" fill="#fff" fill-rule="evenodd" transform="translate(7.3 7.85)"/><path d="M.15-.15q-.1-1-.8-1.75-.8-.95-2.1-.95t-2.3.95q-.8.8-1 1.95L-6.3.1q.05-2.25 1.3-3.85Q-3.6-5.4-1.7-5.4t3.25 1.65q1.4 1.65 1.4 4v.1l-2.8-.5" fill="#661a1a" fill-rule="evenodd" transform="translate(7.3 7.85)"/><path d="m.15-.15 2.8.5q-.05 2.3-1.4 3.85Q.2 5.9-1.7 5.9T-5 4.2Q-6.3 2.6-6.3.25V.1l.25-.05-.05.35q-.05 1.35.75 2.25.8.95 2.1.95L-2 3.35l.05.1.5.25q.3 0 .5-.25l.2-.5-.1-.4q.9-.9 1-2.15v-.55m-.3 2.35-.2.5.2.5.45.2q.3 0 .5-.2l.2-.5-.2-.5L.3 2l-.45.2" fill="#892a2a" fill-rule="evenodd" transform="translate(7.3 7.85)"/><path d="M2.95.35v-.1q0-2.35-1.4-4Q.2-5.4-1.7-5.4T-5-3.75Q-6.25-2.15-6.3.1v.15Q-6.3 2.6-5 4.2q1.4 1.7 3.3 1.7t3.25-1.7Q2.9 2.65 2.95.35z" fill="none" stroke="#370000" stroke-linecap="round" stroke-linejoin="round" transform="translate(7.3 7.85)"/><path d="M-6.45-.1q.35-2.9 2.5-4.95Q-1.75-7.1 1-7.1l1.3.15q1.1.25 1.95.95l-.65-.1h-.05L2.3-6.15q-3.8 0-6.35 3.2Q-2.7-2.7-1.9-1.9q-1.85.35-3.65 1.3l-.15.1-.75.4M-.3-3.05q-.3.3-.75.3t-.75-.3l-.3-.75.3-.75.75-.3.75.3q.3.3.3.75t-.3.75" fill="#ffeabe" fill-rule="evenodd" transform="translate(7.3 7.85)"/><path d="M-1.9-1.9q-.8-.8-2.15-1.05 2.55-3.2 6.35-3.2l1.25.05h.05l1.4.85.25.35.5.9q.75 1.55.8 3.45Q2.2-2.7-1.9-1.9m1.6-1.15q.3-.3.3-.75t-.3-.75l-.75-.3-.75.3-.3.75.3.75q.3.3.75.3t.75-.3" fill="#ffb89b" fill-rule="evenodd" transform="translate(7.3 7.85)"/><path d="M11.55 1.85Q10.7 1.15 9.6.9L8.3.75Q5.55.75 3.35 2.8 1.2 4.85.85 7.75m10.7-5.9.75.75.25.35.5.9q.75 1.55.8 3.45" fill="none" stroke="#370000" stroke-linecap="round" stroke-linejoin="round" stroke-width="1.5"/><path d="m-6.45-.1.75-.4.15-.1q1.8-.95 3.65-1.3 4.1-.8 8.45 1.35" fill="none" stroke="#370000" stroke-linecap="round" stroke-linejoin="round" transform="translate(7.3 7.85)"/></g><g id="A"><path d="M-12.75-1.8q-.8-.65-.7-2 .05-1.35 1.35-1.7l2.75-.2q1.4.15 2.3.8.85.6-.75 1.8-1.6 1.15-4.95 1.3m1.4-1.8q.3-.3.3-.75t-.3-.75l-.75-.3-.75.3-.3.75q0 .45.3.75t.75.3q.45 0 .75-.3" fill="#48240b" fill-rule="evenodd" transform="translate(18.45 6.5)"/><path d="M-11.35-3.6q-.3.3-.75.3t-.75-.3q-.3-.3-.3-.75l.3-.75.75-.3.75.3q.3.3.3.75t-.3.75" fill="#763a0f" fill-rule="evenodd" transform="translate(18.45 6.5)"/><path d="m13.6 4.1-3.35.5Q11.7 1.05 13.6-.6q.4 2.25 0 4.7" fill="#fff5c4" fill-rule="evenodd" transform="translate(18.45 6.5)"/><path d="M13.6 4.1q.4-2.45 0-4.7 2.05 1.1 3.1 4.2l-3.1.5" fill="#9e8068" fill-rule="evenodd" transform="translate(18.45 6.5)"/><path d="M32.05 5.9q-1.9 1.65-3.35 5.2l3.35-.5 3.1-.5.95-.2m-4.05-4q2.05 1.1 3.1 4.2M5.7 4.7q-.8-.65-.7-2Q5.05 1.35 6.35 1L9.1.8q1.4.15 2.3.8.85.6-.75 1.8-1.6 1.15-4.95 1.3-1.75 2.15-2.05 5.95 1.75.8 4.55 1.2 7.35 1.1 20.5-.75M1.1 5.05q-1.4 3.8 2.55 5.6" fill="none" stroke="#370000" stroke-linecap="round" stroke-linejoin="round" stroke-width="1.5"/></g><use ffdec:characterId="6" height="14.75" width="25.15" xlink:href="#B" id="h"/><use ffdec:characterId="12" height="22.05" width="33.05" xlink:href="#C" id="n"/><use ffdec:characterId="14" height="10.6" transform="translate(.6 1.15)" width="16.05" xlink:href="#D" id="p"/><use ffdec:characterId="18" height="15.9" transform="translate(1.4 .55)" width="23.05" xlink:href="#E" id="r"/><path d="M-165-33.1q0-7.6 3.6-12.25 3.2-4.15 7.9-4.55 4.65-.4 7.9 3 3.6 3.8 3.6 10.55 0 4.45-2 7.85-3.25 5.5-11 5.5-7.5 0-9.5-4.9-1-2.5-.5-5.2" fill="#ffc" fill-opacity=".498" fill-rule="evenodd" transform="translate(165.15 49.95)" id="a"/><path d="M21.6 5.7Q12.65 8.05 0 8.05q-12.65 0-21.6-2.35-8.95-2.35-8.95-5.7t8.95-5.7Q-12.65-8.05 0-8.05q12.65 0 21.6 2.35 8.95 2.35 8.95 5.7T21.6 5.7" fill-opacity=".349" fill-rule="evenodd" transform="translate(30.55 8.05)" id="c"/></defs></svg>