<svg xmlns:ffdec="https://www.free-decompiler.com/flash" xmlns:xlink="http://www.w3.org/1999/xlink" ffdec:objectType="frame" height="90" width="90" xmlns="http://www.w3.org/2000/svg"><use ffdec:characterId="38" height="321.35" transform="matrix(.3252 0 0 .3255 -3.691 -14.401)" width="331.5" xlink:href="#a"/><defs><g id="a" transform="translate(11.35 44.25)"><use ffdec:characterId="1" height="9.8" transform="matrix(3.2089 0 0 6.0456 32.603 217.876)" width="55.5" xlink:href="#b"/><use ffdec:characterId="3" height="280.95" transform="translate(121.75 172.3) scale(.2331)" width="161.2" xlink:href="#c"/><use ffdec:characterId="5" height="321.95" transform="translate(25.1 155.85) scale(.2331)" width="234.55" xlink:href="#d"/><use ffdec:characterId="10" height="878.05" transform="matrix(.2331 0 .0301 .2231 -7.333 -35.9)" width="915.3" xlink:href="#e"/><use ffdec:characterId="19" height="574.2" transform="translate(156.16 76.398) scale(.2331)" width="611.75" xlink:href="#f"/><use ffdec:characterId="21" height="213.7" transform="translate(33.85 117.95) scale(.2331)" width="112.15" xlink:href="#g"/><use ffdec:characterId="23" height="342" transform="translate(53.2 134.5) scale(.2331)" width="463.05" xlink:href="#h"/><use ffdec:characterId="29" height="632.95" transform="translate(-5.55 24.6) scale(.2331)" width="704" xlink:href="#i"/><use ffdec:characterId="31" height="397.95" transform="translate(152.999 154.674) scale(.2331)" width="238.4" xlink:href="#j"/><use ffdec:characterId="33" height="320.05" transform="translate(141.25 122.4) scale(.2331)" width="217.05" xlink:href="#k"/><use ffdec:characterId="10" height="878.05" transform="translate(100.014 -44.261) scale(.2331)" width="915.3" xlink:href="#e"/><use ffdec:characterId="35" height="480.95" transform="translate(69.35 157.8) scale(.2331)" width="322.5" xlink:href="#l"/><use ffdec:characterId="37" height="298.4" transform="translate(99.85 107.5) scale(.2331)" width="269.45" xlink:href="#m"/></g><g id="q" fill-rule="evenodd"><path d="M18 220.4q6.85-7.05 16.3-12.9 13.95-19 16.75-37.3l2.85-2.45q-2.1 22.25-14.35 42-11.05 5.75-18.4 14.85-1.75-1.9-3.15-4.2m81.75-89.35q12.8-5.6 18.9 5.85 8.25 17.3-32.8 77.1l-5.6 3.55-.4-2.55q10.7-16.2 18.1-29.35l.05-.1q21.75-38.8 14.4-51.15l-8.1-2.15-4.55-1.2" fill="#2d0c0c"/><path d="m53.9 167.75 27.65-23.65-11.7 18.8q25.6-19.05 24 0l-1 6.25q-20.2 32.3-26.75 56.1-31.05 14.65-44.95-.65 7.35-9.1 18.4-14.85 12.25-19.75 14.35-42" fill="#732c26"/><path d="m81.55 144.1 6.05-5.2q6.7-5.45 12.15-7.85l4.55 1.2q11.1 13.8-6.3 53.3l-.05.1q-7.4 13.15-18.1 29.35l.4 2.55q-7.5 4.55-14.15 7.7 6.55-23.8 26.75-56.1l1-6.25q1.6-19.05-24 0l11.7-18.8" fill="#5e1c31"/><path d="M85.85 214q6 46.95-8.8 60.1Q12.7 293.5 0 257.8q2.45-21.65 18-37.4 1.4 2.3 3.15 4.2Q8.6 240.25 7 265.8q19.25 12 41.45 8.75 9.9-1.45 20.35-5.75l9.05-4.2q5.7-18.1 3.1-41.75l-.7-5.3 5.6-3.55" fill="#12141d"/><path d="M66.1 225.25q6.65-3.15 14.15-7.7l.7 5.3q-1.65 28.9-12.15 45.95-10.45 4.3-20.35 5.75Q60 254.15 65.6 227l.5-1.75" fill="#151a1f"/><path d="m66.1 225.25-.5 1.75q-5.6 27.15-17.15 47.55Q26.25 277.8 7 265.8q1.6-25.55 14.15-41.2 13.9 15.3 44.95.65" fill="#3a3a3e"/><path d="M98 185.55q17.4-39.5 6.3-53.3l8.1 2.15q7.35 12.35-14.4 51.15M68.8 268.8q10.5-17.05 12.15-45.95 2.6 23.65-3.1 41.75l-9.05 4.2" fill="#4e4664"/><path d="M64.05 174.7q-11.6 12.3-29.05 4-33.95-32.65 6-136.2l8.25-7.3q-15.2 45.05-20.2 75.65Q19.7 168.1 46 174.7h18.05M155.3 27.55q3.25 6.65 5.9 14.95-25.15 64.5-70.1 105.15l4.65-5.55.1-.1Q134.3 94.7 155.3 27.55" fill="#2d0c0c"/><path d="M49.25 35.2q66.35-56.95 96.95-21.7-12 75.75-50.35 128.5l-.1.1-4.65 5.55-22.55 22.55q18.55-22.65 17.55-48.6 1.25-39.3-57.05-10.75 5-30.6 20.2-75.65" fill="#5e1c31"/><path d="m68.55 170.2-4.5 4.5H46q-26.3-6.6-16.95-63.85Q87.35 82.3 86.1 121.6q1 25.95-17.55 48.6" fill="#732c26"/><path d="M146.2 13.5q5 5.75 9.1 14.05Q134.3 94.7 95.85 142 134.2 89.25 146.2 13.5" fill="#4e4664"/></g><g id="r" fill-rule="evenodd"><path d="M49.45 114.5q-3.8 14.1-5.4 27.2-17.5 10.1-29.55 7.5l34.95-34.7m-17.9 40.7 7.5-.95q-.25 13.65 3.55 23.25L36.7 197l-5.15 3.3q4.75-19.4 0-45.1" fill="#b4aced"/><path d="M14.5 149.2q12.05 2.6 29.55-7.5 1.6-13.1 5.4-27.2l3.7-14.85q20.45 33.1 91.55 54.05-7.35 3.85 1.5 18.55-14.6 7.75-21.85-5.05-13.4-8.9-23.2-3-3.65 2.2-5.75 3.8l-4.85 1.05Q74.8 191.7 56 202.15l-2.1-9.8q-2.35-1.65-4.3-3.7L36.7 197l5.9-19.5q-3.8-9.6-3.55-23.25l-7.5.95-17.05-6m109.85 18 .05-.1h-.05v.1" fill="#886696"/><path d="M49.6 188.65q1.95 2.05 4.3 3.7l2.1 9.8q-3.15 1.75-6.4 3.15v-16.65" fill="#9e92cb"/><path d="m14.5 149.2 17.05 6q4.75 25.7 0 45.1l5.15-3.3 12.9-8.35v16.65q3.25-1.4 6.4-3.15 18.8-10.45 34.55-33.1L95.4 168q2.1-1.6 5.75-3.8 9.8-5.9 23.2 3 7.25 12.8 21.85 5.05-8.85-14.7-1.5-18.55l8.5 18.55q-19.55 19.85-58.3 2.15l-1-.5-.65-.3q-20.05 31.95-48.7 38.2l2.5-14.5-22.5 11q7.05-20.95 2-47.1L0 150.2q32.15-13.5 53.15-50.55l-3.7 14.85-34.95 34.7m109.85 18v-.1h.05l-.05.1" fill="#5c4566"/><path d="m128.6 156.75 6.6 1.45 14.55 36.05q13.35 33.05 38.6 39.7 10.55 2.75 23.15.9 31.3 58.2 11.35 87.1l-68.6-10.5-27.05-30.55q-12.3-27.2-73.1-92.65l2.3-4.55 3.65 3.55q32.05 31.45 64.9 74.3l2 2.6 7.25 9.65 6.5 8.9 6.3-5.45q6.7-6.25 12.75-13.3 10.05-11.9 18.2-26.2-29.85-15.7-49.35-81m44.9 107.55-2.25 3.15-1.95 2.6q-6.85 8.7-15.45 16.25l-1.5-1.4 1.25 1.6-6.45 5.2 9.6 13.75 7.85 1.2 12.15 1.85 3.55.55 39 5.9q3.45-5.25 4.85-11.9 3.65-17.85-7.7-45.95-3.05-7.5-7.15-15.75-9.9 2.35-18.95.75l-.35-.1-4.15-1 2.5-6.95-3.05 6.8.55.15q-4.95 12.5-12.35 23.3m-21.95 19.6q9.15-7.3 16.75-16.4 9.85-11.8 17-26.65-2.7-.85-5.3-2.1-12.45 24.75-31.2 41.7l-6 5.15 2.2 3.1 6.55-4.8" fill="#46100c"/><path d="M128.6 156.75q19.5 65.3 49.35 81-8.15 14.3-18.2 26.2l-23.5 10.4-2.05-.55-7.25-9.65 26.8-11.8q-11-43.95-31.05-68.1-15.65-17.55-53.4-1.35-4.5 1.95-9.25 4.35l-3.65-3.55q20.15-37.4 72.2-26.95" fill="#5e1c31"/><path d="m147 277.25-6.3 5.45-6.5-8.9 2.05.55 10.75 2.9m-22.05-15.7q-32.85-42.85-64.9-74.3 4.75-2.4 9.25-4.35l47.9 43.95 7.75 34.7m26.6 22.35-6.55 4.8-2.2-3.1 6-5.15 2.75 3.45m13.05 22.75-7.85-1.2-9.6-13.75 6.45-5.2q.1-.15.25-.2 13.4 12.55 10.75 20.35" fill="#ff859a"/><path d="M159.75 263.95Q153.7 271 147 277.25l-10.75-2.9 23.5-10.4m-32.8.2-2-2.6-7.75-34.7-47.9-43.95q37.75-16.2 53.4 1.35 20.05 24.15 31.05 68.1l-26.8 11.8m58.35-23.3q-7.15 14.85-17 26.65-7.6 9.1-16.75 16.4l-2.75-3.45q18.75-16.95 31.2-41.7 2.6 1.25 5.3 2.1m-8.55 67.65-12.15-1.85q2.65-7.8-10.75-20.35 8.6-7.55 15.45-16.25 7.85 20 7.45 38.45" fill="#a44037"/><path d="M171.25 267.45q4.85 10.8 7.15 21.6 2.05 10 1.9 20l-3.55-.55q.4-18.45-7.45-38.45l1.95-2.6" fill="#12141d"/><path d="m171.25 267.45 2.25-3.15 31.3-4.45q15.3 13.6 18.85 39.05Q203 288 178.4 289.05q-2.3-10.8-7.15-21.6" fill="#474850"/><path d="M178.4 289.05q24.6-1.05 45.25 9.85l.5 4.15q-1.4 6.65-4.85 11.9l-39-5.9q.15-10-1.9-20" fill="#626679"/><path d="M190.35 242.1q9.05 1.6 18.95-.75 4.1 8.25 7.15 15.75-10.75-11.4-26.1-15" fill="#4e4664"/><path d="M223.65 298.9q-3.55-25.45-18.85-39.05l-31.3 4.45q7.4-10.8 12.35-23.3l-.55-.15 3.05-6.8-2.5 6.95 4.15 1 .35.1q15.35 3.6 26.1 15 11.35 28.1 7.7 45.95l-.5-4.15" fill="#1a2028"/><path d="M62.55 77.3q-1.6-3.45-2.95-7.2 13.8-1 29.55-11.5Q96.55 33.2 121.7 0l2.5 4q-11.35 11.5-19.3 27.6-1.55 3.1-2.95 6.4l-1.65 4.1q-3.2 8-5.65 17-13.2 11.8-28.05 17 3.6 12.65 18.55 21.55 3.3 1.85 6.5 3.25 4.15 1.85 8.2 3l.25.1q20.15 5.7 36.1-6.35 11.05-19.1-7.5-29.05-21.25-8-27.55 9.5Q104.7 90.8 114 90.25q4.8-.3 11.2-4.15-.6 2.4-1.95 4.05t-3.45 2.55q-2.1.85-4.95 1l-2.65-.05q-18.8-4.2-11.55-21.55 4.8-5.45 10.3-7.55l3.3-.95 3.95-.35q9.8-.05 21.55 8.85 11.2 27-13.55 37.55-42.1 4.7-60.35-26.05-1.8-3-3.3-6.3" fill="#9a3104"/><path d="m124.2 4 5.7 9.3q-19.95 24.8-18.95 51.25-5.5 2.1-10.3 7.55-7.25 17.35 11.55 21.55l2.65.05 1.1 9.25q-7.7 1.9-15.85 1.05l-.25-.1q-4.05-1.15-8.2-3L78.1 79.1l24.55-15 3.5-8.05-5.85-13.95 1.65-4.1 4.7 8.05 3-6.5-4.75-7.95q7.95-16.1 19.3-27.6m-4.45 83.05q.05-11.95-7.55-12.45 14.5-5.1 22.55 6.1.65 3.9-.45 7.65l-9.1-2.25-1-7q-.95 4.9-4.45 7.95m-61 63.45q19.15-4.9 35-4.25L95.8 154q-18.8 1.5-37 9.6l-.05-13.1m6.1 25-4.05-9.65q16.85-6.85 35.05-9l-11.05 10.6q-10.05 3-19.95 8.05" fill="#f3aa32"/><path d="m104.9 31.6 4.75 7.95-3 6.5-4.7-8.05q1.4-3.3 2.95-6.4m-4.6 10.5 5.85 13.95-3.5 8.05-24.55 15 13.55 21.8q-3.2-1.4-6.5-3.25Q70.2 88.75 66.6 76.1q14.85-5.2 28.05-17 2.45-9 5.65-17m19.45 44.95q-2.35 2-5.75 3.2-9.3.55-12.85-12.15 6.3-17.5 27.55-9.5 5.05 6.2 6.05 12.1-8.05-11.2-22.55-6.1 7.6.5 7.55 12.45m3.5 3.1q1.35-1.65 1.95-4.05l9.1 2.25q-1.4 4.75-5.6 9.3l-1.5.85-3.95-8.35M58.8 163.6q-7.75 3.45-15.35 8.1-1.85-7.05-.4-16.45 8.1-2.8 15.7-4.75l.05 13.1m6.05 11.9q-7.2 3.6-14.3 8.3-4.5-4.1-6.5-9.95 8.2-4.6 16.75-8l4.05 9.65" fill="#fff45b"/><path d="m129.9 13.3 3.15 5.05q-19 19.9-18.8 45.25l-3.3.95q-1-26.45 18.95-51.25" fill="#b04708"/><path d="m133.05 18.35 1.65 2.7q-17.4 22-16.5 42.2l-3.95.35q-.2-25.35 18.8-45.25" fill="#641e2c"/><path d="m115.95 102.95-1.1-9.25q2.85-.15 4.95-1l2.3 8.25q-3.05 1.2-6.15 2" fill="#fce150"/><path d="m123.2 153.55-1 .15h1.3l4.35 2.5q-16.25-3.45-32.05-2.2l-2.05-7.75q16.5.65 29.45 7.3m4.6 2.9h.4q3.4 2.15 6.5 4.8l.5 4q-25.45-5.3-50.4 2.2l11.05-10.6q15.5-1.9 31.95-.4M100.1 104q8.15.85 15.85-1.05 3.1-.8 6.15-2l5.1-2.45 1.5-.85q4.2-4.55 5.6-9.3 1.1-3.75.45-7.65-1-5.9-6.05-12.1 18.55 9.95 7.5 29.05-15.95 12.05-36.1 6.35M114 90.25q3.4-1.2 5.75-3.2 3.5-3.05 4.45-7.95l1 7q-6.4 3.85-11.2 4.15" fill="#bd540a"/><path d="M119.8 92.7q2.1-.9 3.45-2.55l3.95 8.35-5.1 2.45-2.3-8.25" fill="#f3ad33"/><path d="M134.7 21.05q118.8 4.55 96.25 89.2-52 26.4-100.45 42.1l-4.25.7q-16.2-9.1-34.15-10.35l27.55-4v-14q-29.75-4.75-48.2-24.35-4.75-5.05-8.75-11.1 1.5-2.9 3.15-5.65 18.25 30.75 60.35 26.05 24.75-10.55 13.55-37.55-11.75-8.9-21.55-8.85-.9-20.2 16.5-42.2" fill="#5e1c31"/><path d="m227.25 122.15-2.9 7.55-70.6 24H127.4l-1.15-.65 4.25-.7 25.25-4.15 71.5-26.05M43.15 152.4q.25-5.3.9-10.7 1.6-13.1 5.4-27.2 2.3-8.6 5.45-17.6 3.3-9.6 7.65-19.6 1.5 3.3 3.3 6.3-1.65 2.75-3.15 5.65Q49.5 114.3 46.5 151q-1.7.65-3.35 1.4" fill="#46100c"/><path d="m126.25 153.05-3.05.5q-12.95-6.65-29.45-7.3-15.85-.65-35 4.25-7.6 1.95-15.7 4.75-1.45 9.4.4 16.45 7.6-4.65 15.35-8.1 18.2-8.1 37-9.6 15.8-1.25 32.05 2.2l-.05.25q-16.45-1.5-31.95.4-18.2 2.15-35.05 9-8.55 3.4-16.75 8 2 5.85 6.5 9.95 7.1-4.7 14.3-8.3 9.9-5.05 19.95-8.05 24.95-7.5 50.4-2.2l-.5-4q-3.1-2.65-6.5-4.8l1.4.15 3.75.9 3.85 2.75 2 9.5q-7.6-1.75-14.85-2.55l-11.1-.65q-8.55-.1-16.55 1.25l-6.15 1.25q-18 4.3-33.15 16.1l-3.5 7.2q-2.35-1.65-4.3-3.7-4.45-4.65-7-11.15-3.8-9.6-3.55-23.25Q41 153.3 43 152.5l.15-.1q1.65-.75 3.35-1.4 6.65-2.75 13.1-4.55 16.9-4.85 32.5-3.75 17.95 1.25 34.15 10.35" fill="#ba5109"/><path d="M71.45 100.35q18.45 19.6 48.2 24.35v14l-27.55 4q-15.6-1.1-32.5 3.75-1.55-23.05 11.85-46.1" fill="#a44037"/><path d="M62.7 89.25q4 6.05 8.75 11.1-13.4 23.05-11.85 46.1-6.45 1.8-13.1 4.55 3-36.7 16.2-61.75" fill="#ff859a"/><path d="M230.95 110.25q-1.55 5.75-3.7 11.9l-71.5 26.05-25.25 4.15q48.45-15.7 100.45-42.1" fill="#4e4664"/><path d="M148.4 192.55q14.2-5.55 26.85-8.45 25.05-5.7 29.25 2.35 4.25 8.05-14.85 25.25-14.7 13.2-36.55 25.85l-13.7 7.5q-31.2 16.15-56.25 21.85-25.1 5.75-29.3-2.3-4.25-8.1 14.85-25.25 8.25-7.45 18.75-14.65l4.35 5.2-1.35 1.1q-11.7 9.45-9.85 13 1.7 3.35 14.35-.3-4.6 10.1-15.85 12.8-10.25-7.1-8.85-15.3-4.2 4.75-5.05 8.65 8.9 5.4 8.85 11.8l19.95-2.2q-1.05-1.6-1.3-3.55l32.65-6.7 9.9-9.5 6.55-3.8q-1.5-1.1-3.35-2l3.55-5.25q11.55-3.55 7.7 3.1 9.55-2.55 9.6-12.05 5.05-1.1 8.8-3.65 6.2 1 15.95-11.55 3.85-15.2-9.75-13.75 8.9 8.6-22.35 29.65l-6.7 3.45.3-.5-.95.75v.05l-10.4 8.2q-3.7-1.05-8.4-1.5l3.3-1.75 8.05-4.45q12.9-7.5 21.85-14.75 11.65-9.4 9.85-12.95-1.8-3.6-16 .75l-1.95.65-2.5-5.8m-34.85 44.2 5.25 4.3-21.75 8.6-2.55-1.7q1.2-2.4 3.15-5.1 7.4-2.35 15.9-6.1" fill="#16d2ee"/><path d="m145.25 223.85 6.7-3.45q31.25-21.05 22.35-29.65 13.6-1.45 9.75 13.75-9.75 12.55-15.95 11.55 6.05-4.15 8.65-12.2-11.4 12.6-24.8 16.55l7.35-.7q-.05 9.5-9.6 12.05 3.85-6.65-7.7-3.1l3.25-4.8M92.7 255.9q.25 1.95 1.3 3.55l-19.95 2.2q.05-6.4-8.85-11.8.85-3.9 5.05-8.65-1.4 8.2 8.85 15.3 11.25-2.7 15.85-12.8l1.65-.5 1.05-.35q-1.95 2.7-3.15 5.1-1.35 2.65-1.7 5-.25 1.55-.1 2.95" fill="#37f5e5"/><path d="M125.8 230.85q4.7.45 8.4 1.5 2.3.65 4.25 1.55 1.85.9 3.35 2l-6.55 3.8-9.9 9.5-32.65 6.7q-.15-1.4.1-2.95l6.75-1.55-2.5-1.75 21.75-8.6-5.25-4.3q5.85-2.65 12.25-5.9m9.15 6.45-5.95-3.5-10.55 4.1 2.7 3.3-7.4 6.85 9.8-2.65 1.3-2.25 10.1-5.85" fill="#33efe7"/><path d="m148.4 192.55-.85-2q15.6-6.05 29.5-9 26.65-5.65 31.4 3.3 4.65 8.95-15.3 27.35-19.95 18.3-52.85 35.3-32.95 16.95-59.55 22.65-26.65 5.6-31.35-3.35-4.75-8.95 15.2-27.3 9.25-8.5 21.3-16.7l1.55 1.9q-10.5 7.2-18.75 14.65-19.1 17.15-14.85 25.25 4.2 8.05 29.3 2.3 25.05-5.7 56.25-21.85l13.7-7.5q21.85-12.65 36.55-25.85 19.1-17.2 14.85-25.25-4.2-8.05-29.25-2.35-12.65 2.9-26.85 8.45M91.8 229.9l1 1.2q-10.9 8.45-9.5 11.35 1.45 2.85 14.5-1.55 13-4.45 30.05-13.6l7.5-4.2q12.05-6.95 20.5-13.5 11-8.55 9.6-11.45-1.4-2.85-14.05 1.4l-.5-1.2 1.95-.65q14.2-4.35 16-.75 1.8 3.55-9.85 12.95-8.95 7.25-21.85 14.75l-8.05 4.45-3.3 1.75q-6.4 3.25-12.25 5.9-8.5 3.75-15.9 6.1l-1.05.35-1.65.5q-12.65 3.65-14.35.3-1.85-3.55 9.85-13l1.35-1.1" fill="#235d75"/><path d="M168.1 216.05q-3.75 2.55-8.8 3.65l-7.35.7q13.4-3.95 24.8-16.55-2.6 8.05-8.65 12.2m-73.6 31.9 2.55 1.7 2.5 1.75-6.75 1.55q.35-2.35 1.7-5" fill="#affff2"/><path d="m134.95 237.3-10.1 5.85-1.3 2.25-9.8 2.65 7.4-6.85-2.7-3.3 10.55-4.1 5.95 3.5" fill="#a7fef1"/><path d="m134.2 232.35 10.4-8.2v-.05l.65-.25-3.25 4.8-3.55 5.25q-1.95-.9-4.25-1.55" fill="#acfff2"/></g><g id="s" fill-rule="evenodd"><path d="m655.7 186.4 13.75-20.45-27.6 18.25.5-5.95-33.25 25.3 35.9 3 24.15-25.05-13.45 4.9m-6.65 31.5-61.6-13.15q60.65-30.95 115.5-73.15l-53.9 86.3m-96.5-103q83.75 7.05 113.3-67.15l-57.15 40.9 7.2-13.45-75.7 35.45q-7.6-3.1-14.45-7.4 89.7-24.5 166.7-85.4-17.05 56.45-58.2 95.5-47.15 11.1-81.7 1.55" fill="#1acef9"/><path d="m655.7 186.4 13.45-4.9L645 206.55l-35.9-3 33.25-25.3-.5 5.95 27.6-18.25-13.75 20.45m6.7 142.8-9.6 15-15.95 10.25-31.55-9.25 27.85-3.15 9.65-7.95q9.85-2.15 19.6-4.9M540.2 110.65l75.7-35.45-7.2 13.45 57.15-40.9q-29.55 74.2-113.3 67.15-6.35-1.8-12.35-4.25M35.1 664.9l-2.85-9.3Q3 553.25 58.1 432.25 33.8 509.7 38.3 549q16.9-91.25 61.6-182.55 11-22.5 23.7-45.05 21.55-28.3 38.3-37.95 56.35-35.8 88.4-84.9-23.1-3.55 7.95-46.5l4.05 11.4 35.55-29.15 3.35 8.3 81.75-30.3-67.85 55.55 36.65-18q-30.45 48.85-75.05 81l27.35-2.75-21.15 24.3q14.8 13.75 9.8 33.8-2.2 8.65-8.15 18.5-5.65 9.45-14.7 19.95-55.6 30-22.95-37.15l20.3 1.25q21.6-19.4 10.2-30.75-98.9 31.55-130.85 108.45l-3.4 8.75q5.9-4.7 11.65-8.75 25.85-18.2 48.15-22.35l-15 18.4q21.35-6.5 41.1-9.1 20.75 11.8 40.55-1h.05q27.35 2.45 50.8 14.05 2.95 1.45 5.8 3.05l-46.7-4.5q-16.35-3-36.55-2.75l-11.35 2.2-8.2 2q-14.6 3.85-28.1 9.7-12.1 5.2-23.25 12.05l-.5.3q-31.3 19.15-55.3 50.7l-4.9 6.7q-27.8 39.05-45.3 95.8-5.8 18.7-10.45 39.25-15.85 85 68.8 99.7Q271.7 646.2 328.5 552.1q13.9-23.05 22.4-49.7l.1-.4q32-170.15-71.1-153.45l-3.35-1.15q11.65-11.1 10.8-34.35l32.55-28.4q-12.9-23.4 17.35-40.2l114.2-27.05q-44.7 18.85-73.8 48.05l27.3-8.8-47 34.75q-35.55-4.05-42.25 13-1.5 15.2 35.1 11.95 41.9 36.25 39.4 97.55 10-32.05 5.95-71.65 16.2 36.55 19.85 93.45l11.45-46.2q-3.15 68.85-27.05 119.2l17.05-24.15q-17.95 72.5-88.95 128.75-40.45 32-98.1 58.75l-1.7 1q-62.15 35.2-110.35 29.75l-1.1-.15q-54.65-7.6-82.15-37.75m299.65-391q-5.7 21.2 17.75 3.5-16.1-14.1 38.85-38.4l-38.3 13.85q-36.25-3.5-18.3 21.05m-62.95-98.6-8.8 2.75q5.65 14.55-2.65 31.85l-29.65 42.7q-50.95 27.1-86.35 72.55l-32.4 57.95-.95-13.15-16.05 24-.9 1.8q-53.25 108.5-54.3 190.1 10.2-100 93.4-219.4l7.1-10.1q-10.95-13.05 28.2-43.25 15.55-5.1 40.3-31.7l5.95.5q15.85-22.45 40.85-38.25l-11.35 3.05 9.45-10.75q-1.25-10.4 11.7-25.6l23.95-22.55-14.25 8.3 12.1-18.5q-15.5-2.45 8.15-25.45-18.25 6-23.5 23.15m-4.7 127.5q-23.7 3.15-20.05 23.9 9.95 2.45 16.15-12.7 12.65-6.6 3.9-11.2m14.85-21.3q-17.2 17.4-9.25 20.25 13.2-5.4 9.25-20.25M283 621.7q16.95-16.05 36.05-16.5 4.85-3.35 9.45-7.2 30.6-25.65 50.35-73.1l-13.2 14.95-9.85-7.8q-3.35-10.85 11-23.65 22.35-35.4 30.7-90.8l-12.15 25.15Q388.6 323.9 322.65 323q27.9 9.1 45.15 35.45 21.1 94.35-35.5 195.7l-3.8 7.45q-12.15 22.05-29.2 33.4l-34.55 29.2-33.95 33.75 38.4-33.35 13.8-2.9" fill="#3aefff"/><path d="m652.8 344.2 9.6-15q14-3.95 27.75-9l-37.35 24m-10-10.1-9.65 7.95-27.85 3.15 31.55 9.25-10.35 6.6-46.6-18.45q32.1-1.6 62.9-8.5" fill="#18cdf9"/><path d="m652.8 344.2 37.35-24q-13.75 5.05-27.75 9-9.75 2.75-19.6 4.9-30.8 6.9-62.9 8.5l46.6 18.45 10.35-6.6 15.95-10.25m59.8-226.3q-21.65 61.25-61.9 104.2l-81.2-12.85q73.3-30.8 143.1-91.35m-63.55 100 53.9-86.3q-54.85 42.2-115.5 73.15l61.6 13.15m-96.5-103q34.55 9.55 81.7-1.55 41.15-39.05 58.2-95.5-77 60.9-166.7 85.4 6.85 4.3 14.45 7.4 6 2.45 12.35 4.25m-47.35-12.35Q611.85 73.45 706.45 0q-22.3 74.95-69.3 120.6Q557 140.65 505.2 102.55M118.35 702.8q24.85 3.35 55.35 2.15Q266.85 669.6 328.5 621q88.85-70.1 112.15-167.7l-5.3-92.75q52.2-25.65 97.5-25.9-50.15-40.3-108.45-70.3 50.9-32.8 104.8-53.45-90.3 3-162.75-35.45-12.75 15.55-19 37.3.35-38.7 26.15-59.05 20.45-26.4 79.5-51.5-137.8-6.3-230.6 68.9 26.85 46.75-44 81.6-55.25 56.25-92.4 113.75Q8.5 486.5 9.9 611.85q6 32 25.2 53.05 27.5 30.15 82.15 37.75l1.1.15M370.2 168.45q54.6 31 150.6 34.7l38.9 3.25q-68.1 22.65-123.15 56.95 80.7 42.2 115.9 77.95-77.8-1.3-110.8 28.8 22.1 142.95-64.95 223.35-23.95 22.9-48.2 41.7-91.15 70.6-187.05 83.1Q-28.1 708.2 5.55 532.2 28.8 439.05 73.1 366.45q44.9-73.7 111.5-126.2 63.3-52.2 22.45-64.45 105.05-98.35 277.2-75.05-85.15 25.65-114.05 67.7m190.45 170.5q73.25.2 149.05-30.6-30.2 34.5-81 56.4-46.9-7.75-68.05-25.8m-436.2 341.7q-84.65-14.7-68.8-99.7Q60.3 560.4 66.1 541.7q17.5-56.75 45.3-95.8l4.9-6.7q24-31.55 55.3-50.7l.5-.3q11.15-6.85 23.25-12.05 13.5-5.85 28.1-9.7l8.2-2 11.35-2.2q20.2-.25 36.55 2.75l6.85 1.45q26.85 6.45 42.1 22.8 25.7 27.5 18.25 83.05-7.15 26.5-18.25 50.05-54.6 115.85-204.05 158.3m117.6-312.25-10.7 2.15q-18.15 4.05-34.55 11.15-44 19-75.2 59.9l-4.6 6.3q-26.4 37.25-43.05 91.05-5.5 17.8-9.9 37.35-15 80.8 65.3 94.8Q278.8 628.75 328.5 509q7.15-17.2 12.2-35.95 6.25-46.75-12.2-72.6-23.4-32.8-86.45-32.05" fill="#3adcff"/><path d="M35.1 664.9q-19.2-21.05-25.2-53.05-1.4-125.35 76.2-245.4 37.15-57.5 92.4-113.75 70.85-34.85 44-81.6 92.8-75.2 230.6-68.9-59.05 25.1-79.5 51.5-25.8 20.35-26.15 59.05 6.25-21.75 19-37.3Q438.9 213.9 529.2 210.9q-53.9 20.65-104.8 53.45 58.3 30 108.45 70.3-45.3.25-97.5 25.9l5.3 92.75Q417.35 550.9 328.5 621q-61.65 48.6-154.8 83.95-30.5 1.2-55.35-2.15 48.2 5.45 110.35-29.75l1.7-1q57.65-26.75 98.1-58.75 71-56.25 88.95-128.75L400.4 508.7q23.9-50.35 27.05-119.2L416 435.7q-3.65-56.9-19.85-93.45 4.05 39.6-5.95 71.65 2.5-61.3-39.4-97.55-36.6 3.25-35.1-11.95 6.7-17.05 42.25-13l47-34.75-27.3 8.8q29.1-29.2 73.8-48.05l-114.2 27.05q-30.25 16.8-17.35 40.2l-32.55 28.4 21.5-35.4q4.9-32.5 28.2-66.8-26.7 21.2-31.55 59.05l-12.8 16.3q5-20.05-9.8-33.8l21.15-24.3-27.35 2.75q44.6-32.15 75.05-81l-36.65 18 67.85-55.55-81.75 30.3-3.35-8.3-35.55 29.15-4.05-11.4q-31.05 42.95-7.95 46.5-32.05 49.1-88.4 84.9-16.75 9.65-38.3 37.95-12.7 22.55-23.7 45.05Q55.2 457.75 38.3 549q-4.5-39.3 19.8-116.75Q3 553.25 32.25 655.6l2.85 9.3m431.8-362.85-47.55-24.25q-26.75 8.2-50.45 32.05l58.8 34.5q31.3-10.95 67.15-10.4l-71.1-31.55 43.15-.35" fill="#1bcef9"/><path d="M334.75 273.9q-17.95-24.55 18.3-21.05l38.3-13.85q-54.95 24.3-38.85 38.4-23.45 17.7-17.75-3.5m59.5 45.1-9.05-6.3q-4.05-16.25 35.9-27.05-17.8 12.75-8.15 19.35l5.6-7q-1.8 13.7 8.1 17.5-16.45-3.75-32.4 3.5M267.1 302.8q8.75 4.6-3.9 11.2-6.2 15.15-16.15 12.7-3.65-20.75 20.05-23.9m14.85-21.3q3.95 14.85-9.25 20.25-7.95-2.85 9.25-20.25" fill="#a9fffe"/><path d="M394.25 319q15.95-7.25 32.4-3.5-9.9-3.8-8.1-17.5l-5.6 7q-9.65-6.6 8.15-19.35-39.95 10.8-35.9 27.05l9.05 6.3m72.65-16.95-43.15.35 71.1 31.55q-35.85-.55-67.15 10.4l-58.8-34.5q23.7-23.85 50.45-32.05l47.55 24.25" fill="#3aeffd"/><path d="M271.8 175.3q5.25-17.15 23.5-23.15-23.65 23-8.15 25.45l-12.1 18.5 14.25-8.3-23.95 22.55q-12.95 15.2-11.7 25.6l-9.45 10.75 11.35-3.05q-25 15.8-40.85 38.25l-5.95-.5Q184 308 168.45 313.1q-39.15 30.2-28.2 43.25l-7.1 10.1q-83.2 119.4-93.4 219.4 1.05-81.6 54.3-190.1l.9-1.8 16.05-24 .95 13.15 32.4-57.95q35.4-45.45 86.35-72.55l29.65-42.7q8.3-17.3 2.65-31.85l8.8-2.75" fill="#a9ffff"/><path d="M229.05 353.4q-19.75 2.6-41.1 9.1l15-18.4q-22.3 4.15-48.15 22.35-5.75 4.05-11.65 8.75l3.4-8.75Q178.5 289.55 277.4 258q11.4 11.35-10.2 30.75l-20.3-1.25q-9.85 8.8-15.45 17.8-14.35 23.05-.4 47.85l-2 .25" fill="#19cff6"/><path d="m292.7 286.2 12.8-16.3q4.85-37.85 31.55-59.05-23.3 34.3-28.2 66.8l-21.5 35.4q.85 23.25-10.8 34.35-3 2.9-6.9 5h-.05l-6.55-.45q18.25-9.4 21.5-47.25 5.95-9.85 8.15-18.5" fill="#1abcdf"/><path d="M269.6 352.4q-19.8 12.8-40.55 1l2-.25 11.35-1.05q4.4 2.1 10.3 2.65 5.7-.5 10.35-2.8l6.55.45" fill="#35d7e4"/><path d="M231.05 353.15q-13.95-24.8.4-47.85-7.4 37.7 10.95 46.8l-11.35 1.05" fill="#1abcde"/><path d="M246.9 287.5q-32.65 67.15 22.95 37.15 9.05-10.5 14.7-19.95-3.25 37.85-21.5 47.25-4.65 2.3-10.35 2.8-5.9-.55-10.3-2.65-18.35-9.1-10.95-46.8 5.6-9 15.45-17.8" fill="#18d0f3"/><path d="m279.55 365 46.7 4.5q-2.85-1.6-5.8-3.05-23.45-11.6-50.8-14.05 3.9-2.1 6.9-5l3.35 1.15Q383 331.85 351 502l-.1.4q-8.5 26.65-22.4 49.7-56.8 94.1-204.05 128.55Q273.9 638.2 328.5 522.35q11.1-23.55 18.25-50.05 7.45-55.55-18.25-83.05-15.25-16.35-42.1-22.8l-6.85-1.45" fill="#17d2ef"/><path d="m283 621.7-13.8 2.9-38.4 33.35 33.95-33.75L299.3 595q17.05-11.35 29.2-33.4l3.8-7.45q56.6-101.35 35.5-195.7-17.25-26.35-45.15-35.45 65.95.9 62.7 119.75l12.15-25.15q-8.35 55.4-30.7 90.8-14.35 12.8-11 23.65l9.85 7.8 13.2-14.95Q359.1 572.35 328.5 598q-4.6 3.85-9.45 7.2-19.1.45-36.05 16.5" fill="#acfffb"/></g><g id="f" transform="translate(-11.2 -88.15)"><use ffdec:characterId="11" height="547.25" transform="translate(11.2 88.15)" width="529.6" xlink:href="#n"/><use ffdec:characterId="13" height="48.1" transform="translate(146.1 393.35)" width="87.6" xlink:href="#o"/><use ffdec:characterId="15" height="56.6" transform="translate(112.6 280.05)" width="75.8" xlink:href="#p"/></g><g id="n" fill-rule="evenodd"><path d="M359 149.75q15.55 9 27.4 23.05 16.85 19.95 26.2 50.05l1.35-11.2q6.9 26.35-8.2 47.3l-7.45 3.95q19.4-35.2-8.9-77.85 1.2 7.2 1.2 14.25l-.35 6.65Q389 219.7 382.85 233q6.35-38.45-23.85-83.25m115.25 23.85q6.1 11.85 10.35 25.25l-7.2-6.85q13.65 62.15-3.8 116.35-5.7 2.9-11.45 7.15l-27.55 11.95-19 33.55 20.5-20.5q-12.8 35.5-32.5 58.6 38.8-21.95 79.1-69.15 24.55-19.3 47.45-6-36.9 20.8-47.8 62.35 2.9-22.85 20.35-52.3-43.25 29.2-71.6 63.6-85.6 45.9-178.8 40.05 54.45-22.6 89.65-63.05l3.7-19 1.3-2.1-3.9 1.7L359 319l-10.2 9.85q5.35-7.3 7.2-15.35-31.45 5.15-69.1-2-49.5-6.15-85.5 5.4-20.8 6.7-37.05 19.25-11.15 8.55-20.15 19.9 12.25-12.45 26.45-21.25l-22.5 25.2q25.15-15.6 53.25-22.15 28.45-6.6 59.95-3.85 52.15 3.65 89.1-14.5-19.7 28.15-63.6 44.05v.45l-12-.95q18.05-9.5 36.05-19.05-63.45 0-103.65 33.05 31.55-2.6 68.6 4.5 37.15-2.75 61.25-18.5-22.15 29.35-77.75 44.55 29.9-12.15 48.6-28.05-26.85 13.1-57.1 12.5-24.7-9.3-49.45-10-4.55-.15-9.15 0 4-4.8 9.15-9 12.45-10.15 31.45-16.55-15.6 2.7-31.45 6.8-34.95 9-71.2 24.75l-14.05-8 9.6-44.15 38.5.1 29-61.45 8.15-2.2q7.15-1.8 14.15-3.15l.3-.05q18.7-1.2 45 3.75 79.85 45.8 159.7 10-11.95 21.25-31.55 30.05 43.9.75 66.6-42.55 6.95-84.6-22.5-129.65 19.2 10.95 41.15 32.85M349.1 273.7q-10.2-.05-21.05-1.65 23.5-14.8 41.95-39.7v21.5l-20.9 19.85M240.8 450.65q47.15 10.85 106.15 0-50.8 47.7-97.65 16.55l-44.55-8.05 36.05-8.5" fill="#b4aced" transform="translate(-11.2 -88.15)"/><path d="m413.95 211.65-1.35 11.2q-9.35-30.1-26.2-50.05-11.85-14.05-27.4-23.05 3.7 77.9-43.9 119.2l6.35 1.95 6.6 1.15q10.85 1.6 21.05 1.65 26.7.05 49.2-10.8l7.45-3.95-1.1 1.45q-42.05 34.8-135.3 5.5-25.8-2-53.5 3.25l-.3.05q-7 1.35-14.15 3.15l-8.15 2.2q-71 20.4-153.75 86L21.95 380.1l-7.1 7.9-3.65-4.7L48.55 345q40.25-30.7 78.55-50.25 38.1-19.45 74.3-27.85 55.55-12.95 106.6.1l4.35 1.15q7.7-12.75 12.85-24.95 39.65-42.3 26.25-103.45 38.6 12.25 57.1 57.55Q414.1 127.95 357 88.15 455.05 99.1 491.7 195.8q15.3 54.05 5.4 106.45 22.25-.3 43.7 20.75-54.85 36-55.1 87.6-2.5 73.3-67.65 98.2 47.7 16.7 60.6 52.5-42.05-29.45-150.2 40.1-70.95 39.95-127.05 32.95-50.4-6.25-88.75-50.45-59.7-64.4-81.4-120.95 15.9 26.65 31.8 49.1l6.85 9.35q66.55 90.35 131.5 105.35 38.05 8.75 75.5-8.35 38.7-23.1 70.15-39l4.15-2.05 7.65-3.7 2.15-1.05q58.1-27.75 88.6-27.8l13.5 3q-13.4-20.25-54.75-34.9-115.25 52.85-206.95 31.35-64.45-15.15-117.3-67.05l-4.9-6.3 6.35 2.8q53.1 51.25 115.85 66.6 66 16.1 142.65-7.45l4.9-1.55q120.95-37 128.75-106.15 0-21.3 4.65-38.85 10.9-41.55 47.8-62.35l2.6-1.45q-29.95-22.8-70.6-7 5.75-4.25 11.45-7.15 8.55-4.3 17-5.6 6.25-46.4-4.4-98.45l-1.6-5.45q-4.25-13.4-10.35-25.25-28.85-56.15-99.2-77.45 46.55 36.8 38.9 115.5m-70.9 143.55 3.9-1.7-1.3 2.1q-30.35 48.15-86.3 52 55.6-15.2 77.75-44.55l1.85-2.55q-28.8 8.95-49.75 3.7l-2.35-.65q43.9-15.9 63.6-44.05-42.65 1.85-76.6-5-40.1-4.2-72.45 6.15-16.35 5.2-30.75 14.15-14.2 8.8-26.45 21.25 9-11.35 20.15-19.9 16.25-12.55 37.05-19.25 36-11.55 85.5-5.4 37.65 7.15 69.1 2-1.85 8.05-7.2 15.35-14 18.95-51.9 32.7 19.45 4.75 46.15-6.35" fill="#5c4566" transform="translate(-11.2 -88.15)"/><path d="M359 149.75q30.2 44.8 23.85 83.25Q380 250.05 370 265.9v-33.55q-18.45 24.9-41.95 39.7l-6.6-1.15-6.35-1.95q47.6-41.3 43.9-119.2m31.25 56.2.35-6.65 6.45 9.5q7.65 21.8-3.55 35.05l-3.25-37.9m15.5 53q15.1-20.95 8.2-47.3 7.65-78.7-38.9-115.5 70.35 21.3 99.2 77.45-21.95-21.9-41.15-32.85 29.45 45.05 22.5 129.65-22.7 43.3-66.6 42.55 19.6-8.8 31.55-30.05-79.85 35.8-159.7-10-26.3-4.95-45-3.75 27.7-5.25 53.5-3.25 93.25 29.3 135.3-5.5l2.9-2.55-1.8 1.1m56.4 56.55q40.65-15.8 70.6 7l-2.6 1.45q-22.9-13.3-47.45 6-40.3 47.2-79.1 69.15 19.7-23.1 32.5-58.6L415.6 361l19-33.55 27.55-11.95M289.2 364.2q20.95 5.25 49.75-3.7l-1.85 2.55q-24.1 15.75-61.25 18.5-37.05-7.1-68.6-4.5Q247.45 344 310.9 344q-18 9.55-36.05 19.05l12 .95 2.35.2m-118.55-29.4q14.4-8.95 30.75-14.15 32.35-10.35 72.45-6.15 33.95 6.85 76.6 5-36.95 18.15-89.1 14.5-31.5-2.75-59.95 3.85-28.1 6.55-53.25 22.15l22.5-25.2" fill="#fff" transform="translate(-11.2 -88.15)"/><path d="M382.85 233q6.15-13.3 7.4-27.05l3.25 37.9q11.2-13.25 3.55-35.05l-6.45-9.5q0-7.05-1.2-14.25 28.3 42.65 8.9 77.85-22.5 10.85-49.2 10.8l20.9-19.85v12.05q10-15.85 12.85-32.9m101.75-34.15 1.6 5.45q10.65 52.05 4.4 98.45-8.45 1.3-17 5.6 17.45-54.2 3.8-116.35l7.2 6.85m-2.25 187.45q-4.65 17.55-4.65 38.85-7.8 69.15-128.75 106.15l-4.9 1.55q-83.8 8.85-142.65-11.2-30.8-10.5-54.75-28.9 27.4 9.25 54.75 7.65 8.7-.55 17.35-2.15-8.7-2.35-17.35-5.15-95.1-30.75-179.45-113l17.55-19.55q82.75-65.6 153.75-86l-29 61.45-38.5-.1-9.6 44.15 14.05 8q36.25-15.75 71.2-24.75 15.85-4.1 31.45-6.8-19 6.4-31.45 16.55-5.15 4.2-9.15 9 4.6-.15 9.15 0 24.75.7 49.45 10 30.25.6 57.1-12.5-18.7 15.9-48.6 28.05 55.95-3.85 86.3-52l-3.7 19q-35.2 40.45-89.65 63.05 93.2 5.85 178.8-40.05 28.35-34.4 71.6-63.6-17.45 29.45-20.35 52.3M79.2 470.9l4.9 6.3q52.85 51.9 117.3 67.05 91.7 21.5 206.95-31.35 41.35 14.65 54.75 34.9l-13.5-3q-30.5.05-88.6 27.8l-2.15 1.05-7.65 3.7-4.15 2.05q-79.9 37-145.65 26.8-75-11.65-131.5-84.8l-6.85-9.35q-15.9-22.45-31.8-49.1Q17.2 426.5 19 393.35l60.2 77.55m269.6-142.05L359 319l-15.95 36.2q-26.7 11.1-46.15 6.35 37.9-13.75 51.9-32.7m-108 121.8-36.05 8.5 44.55 8.05q46.85 31.15 97.65-16.55-59 10.85-106.15 0" fill="#886696" transform="translate(-11.2 -88.15)"/><path d="M238.35 91.9q-2.15-.3-4.05-.05l.45-1.45 2.05.75 1.55.75" fill="#7e78a5" transform="translate(-11.2 -88.15)"/><path d="M344.05 532.85Q267.4 556.4 201.4 540.3q-62.75-15.35-115.85-66.6l-6.35-2.8L19 393.35 14.85 388l7.1-7.9q84.35 82.25 179.45 113 8.65 2.8 17.35 5.15-8.65 1.6-17.35 2.15-27.35 1.6-54.75-7.65 23.95 18.4 54.75 28.9 58.85 20.05 142.65 11.2m3 46.55q-31.45 15.9-70.15 39-37.45 17.1-75.5 8.35-64.95-15-131.5-105.35 56.5 73.15 131.5 84.8 65.75 10.2 145.65-26.8" fill="#877cab" transform="translate(-11.2 -88.15)"/></g><g id="t" fill-rule="evenodd"><path d="m76.15 24.1 3.45-2.55L41.55 4 4.3 26.45l2.9 1.65q4.45 2.5 9.3 4l10.85 3.05 17.6 4.9 7.1 2 24.1-17.95m-26.1 24-31.9-11.75q-8-2.45-14.55-7.5L0 26.05l8.75-6.75 2.95-2.2q1.9-1.3 3.95-2.35L41.05 0 87.6 21.05 50.05 48.1" fill="#9a3104"/><path d="M16.5 32.1q-4.85-1.5-9.3-4l-2.9-1.65L41.55 4 79.6 21.55l-3.45 2.55L42.05 9 20 19.05l4.5 5.5-8 7.55" fill="#bd540a"/><path d="m76.15 24.1-24.1 17.95-7.1-2 4.6-5-18.05-5-4.15 5.1L16.5 32.1l8-7.55-4.5-5.5L42.05 9l34.1 15.1m-41.6 2.95 19 4.5 3.5-3.5-19-6-3.5 5" fill="#f3aa32"/><path d="m44.95 40.05-17.6-4.9 4.15-5.1 18.05 5-4.6 5m-10.4-13 3.5-5 19 6-3.5 3.5-19-4.5" fill="#fff45b"/></g><g id="u" fill-rule="evenodd"><path d="m14.5 50.1-7.8-.5L31.65 7.4h.2L69.8 4.5 44.75 52.1 57.8 18.05 14.5 50.1" fill="#bd540a"/><path d="M44.75 52.1 69.8 4.5 31.85 7.4h-.2L6.7 49.6l7.8.5 30.25 2M75.8 0 47.75 56.6 0 52.6 29.25 4 75.8 0" fill="#9a3104"/><path d="m14.5 50.1 43.3-32.05L44.75 52.1l-30.25-2" fill="#f3aa32"/></g><g id="v" fill-rule="evenodd"><path d="m109.55 31.5.75 5.05Q73.1 3.95 62.65 32.5q-14.5 35.55 19.05 71.1l.55.6 1 .85q8.35 6.9 19.4 3.45l-2.35 4.1q-18.35 1.1-26.2-11.5-32.55-45.75-9.5-78.15 9.45-18.05 44.95 8.55m-2.2-12.75Q72.3-3.9 52.85 15.7q-2.2 2.2-4.15 4.9-3.05 4.1-5.6 9.4-1.6 10-2.15 19.1l-.35 9.05q0 3.3.15 6.45.85 20.7 8.05 35.8 8.85 18.6 27.35 28.75l13.85-4.8.15.4q-6.9 6.3-16 10.4Q53.8 127.8 44.1 107.8 39.2 97.75 37 84.6q-1.95-11.85-1.75-26.2v-.3q.2-15.15 2.8-33.1 25.25-43.05 68.1-12l1.2 5.75" fill="#9a3104"/><path d="M109.55 31.5Q74.05 4.9 64.6 22.95q-23.05 32.4 9.5 78.15 7.85 12.6 26.2 11.5-4 6.35-9.35 11.4l-.95.35-13.85 4.8Q57.65 119 48.8 100.4q9.2 4.95 9.3-6.8-4.8-15.6-6.15-29.15-.4-3.8-.5-7.4-.15-4.8.15-9.35.75-10.65 4.15-19.75 1.05-2.8 2.35-5.45 5.6-7.05-5.25-6.8 19.45-19.6 54.5 3.05l2.2 12.75" fill="#bd540a"/><path d="M52.85 15.7q10.85-.25 5.25 6.8-1.3 2.65-2.35 5.45L48.7 20.6q1.95-2.7 4.15-4.9m-1.25 32q-.3 4.55-.15 9.35l-10.85 1.1.35-9.05 10.65-1.4m.35 16.75Q53.3 78 58.1 93.6q-.1 11.75-9.3 6.8-7.2-15.1-8.05-35.8l11.2-.15" fill="#f3aa32"/><path d="M55.75 27.95q-3.4 9.1-4.15 19.75l-10.65 1.4Q41.5 40 43.1 30q2.55-5.3 5.6-9.4l7.05 7.35m-4.3 29.1q.1 3.6.5 7.4l-11.2.15q-.15-3.15-.15-6.45l10.85-1.1" fill="#fff45b"/><path d="M37 84.6q2.2 13.15 7.1 23.2l2.3 16.7q-14 13.85-30.7 14-4.15-2.4-6.65-5.35Q37 124.4 37 84.6" fill="#666eff"/><path d="M35.25 58.4q-.2 14.35 1.75 26.2 0 39.8-27.95 48.55 2.5 2.95 6.65 5.35 13.4 7.8 43.9 9.65-.85 8-2.55 14.8-4.25 16.95-13.95 25.8l3.6 5.1q14.8 18.2 41.45 11.4-19.35 23.8-54.1-19.5 15.85-5.2 19.05-32.05-30.25 1.15-53.1-20.05 29.4-11.1 35.25-75.25" fill="#121b6b"/><path d="M44.1 107.8q9.7 20 30.05 27.35 9.1-4.1 16-10.4 25.15 41-2 80.5-26.65 6.8-41.45-11.4 21.8-9.4 10.35-30.9 1.7-6.8 2.55-14.8-30.5-1.85-43.9-9.65 16.7-.15 30.7-14l-2.3-16.7" fill="#2524a4"/><path d="M102.65 108.5q-11.05 3.45-19.4-3.45l-1-.85-.55-.6Q48.15 68.05 62.65 32.5 73.1 3.95 110.3 36.55q6.05 45.85-7.65 71.95" fill="#0f1032"/><path d="M57.05 162.95q11.45 21.5-10.35 30.9l-3.6-5.1q9.7-8.85 13.95-25.8" fill="#474db2"/></g><g id="w" fill-rule="evenodd"><path d="m42.75 194.35-1.75-7.2q-3.6-16.15-5.9-32.5-2.5-18.05-2.3-36.3.2-19 5.1-37.25Q43 62.25 54.65 46.65q11.55-15.35 28-25.1Q98.3 12.25 115.9 7.7q16.85-4.55 34.1-6.25L181.55 0l35.25 1.55q19.65 1.7 39.1 4.75 15.8 2.45 31.8 5.6l33.85 7.3q18.05 4.2 35.95 9.05 19.3 5.15 37.7 11.8 3.1 1.1 5.75 3.35 14.3 11.8 24.45 27.4 10.8 16.55 18.2 34.65 6.7 16.3 11.6 33.25 3.15 10.75 5.45 21.6l-13.25 2.75q-19 4.2-37.4 10.85-17.4 6.15-33.65 14.65-15.7 8.15-30.05 18.65-14.05 10.3-26.25 22.65-12.3 12.45-22.8 26.45-16.5 3.05-33.25 4.3l-32.3 1.3-32.35-1.8q-19.7-2.1-38.9-6.7-19.1-4.8-37.25-12l-14.5-6.05q-17.5-7.95-33.75-18.15-16.8-10.5-32.2-22.85m85.4-144.3-30.7 36.9 24.7 4.15 17.5 51.6q17.4-21.75 39.6-38.55-2 11.1-.95 22.3.5 5.4 3.2 10.05 7.5 13.2 23 10.25-6.55-5.1-10.2-12.7-5.05-10.55-5.45-22.2l-.05-2.35-.05-2.5.2-5.1.45-5.3q1.05-8.7 2.85-17.5L152.2 97.15l4-14.05-28.05-33.05" fill="#5e1c31"/><path d="M128.15 50.05 156.2 83.1l-4 14.05 40.05-18.05q-1.8 8.8-2.85 17.5l-.45 5.3-.2 5.1.05 2.5.05 2.35q.4 11.65 5.45 22.2 3.65 7.6 10.2 12.7-15.5 2.95-23-10.25-2.7-4.65-3.2-10.05-1.05-11.2.95-22.3-22.2 16.8-39.6 38.55l-17.5-51.6-24.7-4.15 30.7-36.9" fill="#a44037"/><path d="M463.05 171.3q-16.85 5.2-33.1 11.25-17.2 6.55-33.9 14.35-16.4 7.75-31.5 17.7-15.6 10.25-27.75 24.55-5.55 6.55-9.35 14.25-15.75 4.9-31.75 8.55-18.5 4.05-37.2 6.25l-30.1 1.85q-9.3.2-18.75-.25-18.5-.9-36.7-4.35-17.9-3.35-35.3-9.25-17.45-5.8-33.9-14.15-16.8-8.5-32.5-19.1-13.65-9.2-26.2-19.65l-2.3-8.95q15.4 12.35 32.2 22.85 16.25 10.2 33.75 18.15l14.5 6.05q18.15 7.2 37.25 12 19.2 4.6 38.9 6.7l32.35 1.8 32.3-1.3q16.75-1.25 33.25-4.3l15.15-2.9q7.3-11.9 16.7-21.9 13.5-14.4 30.3-24.7 16.4-10.05 34.6-17.05 17.3-6.8 35.4-11.5 16.65-4.1 33.65-6.95" fill="#46100c"/><path d="m460.65 160.3 2.4 11q-17 2.85-33.65 6.95-18.1 4.7-35.4 11.5-18.2 7-34.6 17.05-16.8 10.3-30.3 24.7-9.4 10-16.7 21.9l-15.15 2.9q10.5-14 22.8-26.45 12.2-12.35 26.25-22.65 14.35-10.5 30.05-18.65 16.25-8.5 33.65-14.65 18.4-6.65 37.4-10.85l13.25-2.75" fill="#4e4664"/><path d="m84.85 90.4-7.9-.45-5.6-.3-24.85-38 4.6-2.55 21.5 37.55q24.3-1.85 48.6 3.5v26.55l12.6 15.35q10.4-8.45 18.4 13.2 3.3 18.5-2.05 27.25v35.3q-10.85 14.4-24.5 23.2l33.55 44.9-4 38.05q9.05-.8 12.3 8.6l.7 2.35q2.45 17.05-11.95 17.1-17.25-2.2-13.05-22.05l-29.55-28.05v-54.55q-27.35-.2-43.05-17l6.05-.1q17.15 11.45 33.75 13.3l4.25.3 31.8-26.55v-30.7l-3.35 2q-3.4 1.45-7.9 1.7-19.7-4.3-11.05-35.05 1.7-3.2 3.35-5.75 1.5-2.3 2.95-4.05l-12.8-17.25-1.5-26.05-7.2-.4-7.95-.45-4.1-.2-12.05-.7m41.2 68.5q-.15 11.75 9.95 13.95 16.75-.9 12.4-25.5l-1.15-2.85q-6.25-14.2-14.4-4.65-2 2.25-4.05 5.9l-.85 1.6q-1.85 6.6-1.9 11.55m-5.3 75-2.5 1.3 2.4 54.7 28.55 27.05 4.5-38.05-31.25-45.95-1.7.95M151 336.65q2 1.85 4.6 1.85 3.25 0 5.55-2.9 2.35-2.85 2.35-6.9 0-4.05-2.35-6.95-2.3-2.85-5.55-2.85t-5.6 2.85l-1.05 1.65q-.4.7-.65 1.5-.6 1.75-.6 3.8 0 2.1.65 3.9.55 1.65 1.65 3l1 1.05" fill="#9a3104"/><path d="m96.9 91.1 4.1.2-19.25 31.15q-4.4-2.45-8.85-3.95l.6-1.45q8.8-14.6 23.4-25.95m-25.55-1.45 5.6.3L63.1 116.3q-18.05-2.05-37.85 9.85-1.95-25.6 15.05-36.75-.4 17.5-10.75 28 26.75-1.15 41.8-27.75M54.2 137.6l-18.15 2.65q-3.8 4.35-6.4 9.05l-6.35-12.7q10.7-20.35 49.35-17.5l18.5 11.85q28.7 26.95 32.65 73.75-12.05-.75-16.15-11.45-2-38.05-32.55-54.05l-7.05-17.55L54.2 137.6m78.65 2.25q8.15-9.55 14.4 4.65l1.15 2.85q4.35 24.6-12.4 25.5-10.1-2.2-9.95-13.95 6.85.4 9.3-2.9 1.45-2 1.35-5.3l7.3-4.3-11.15-6.55m-49.05 56.6 17.05 2.6q.8 10.4-6.75 14.15l-11.25-16.65.95-.1m65.4 120.5-20.25-30-5.35-47.55 19.1 37.25 6.5 40.3" fill="#f3aa32"/><path d="m84.85 90.4 12.05.7q-14.6 11.35-23.4 25.95L84.85 90.4m42.65 49.1q-1.65 2.55-3.35 5.75Q115.5 176 135.2 180.3q4.5-.25 7.9-1.7v26.95l-32.7 28q-16.6-1.85-33.75-13.3 8.35-.5 17.65-2.8 10.55-2.65 22.35-7.65l-15.05-18.75q-2.2-36.35-31.5-49.8l-2.05-19.6 7.05 17.55q30.55 16 32.55 54.05 4.1 10.7 16.15 11.45l.4 6.1q3.35-46.35-27.35-76.85l-5.5-4.95 23.05-34.2-2 23.4 15.1 21.3m-81-87.85 24.85 38q-15.05 26.6-41.8 27.75 10.35-10.5 10.75-28-17 11.15-15.05 36.75 19.8-11.9 37.85-9.85l7.55 1.5 2 1.3Q34 116.25 23.3 136.6l6.35 12.7q-3.1 5.4-4.6 11.3Q2.35 132.95 0 77.6l46.5-25.95m10 105 .8-13.7 9.25-15.75 1.5 18.75-11.55 10.7m44.35 42.4 10.3 10.5-16.3 4.75-.75-1.1q7.55-3.75 6.75-14.15m22.75 40.35-2.85-5.5 1.7-.95 31.25 45.95-4.5 38.05-6.5-40.3-19.1-37.25" fill="#bd540a"/><path d="m76.95 89.95 7.9.45-11.35 26.65-.6 1.45-2.25-.7-7.55-1.5 13.85-26.35M101 91.3l7.95.45-22.4 33.7q-2.4-1.65-4.8-3L101 91.3m-43.7 51.65-.8 13.7-1.7 1.55-2-15.75 1.9-2.1 2.6 2.6M135.35 156q-2.45 3.3-9.3 2.9.05-4.95 1.9-11.55l.85-1.6 6.55 10.25m13.85 160.95-28.55-27.05-2.4-54.7 2.5-1.3 2.85 5.5 5.35 47.55 20.25 30m-.85 15.65q-.65-1.8-.65-3.9 0-2.05.6-3.8 11.05-.45 5.4 7.85l-5.35-.15" fill="#fff45b"/><path d="m108.95 91.75 7.2.4-1.75 2.65L91.35 129l-4.8-3.55 22.4-33.7m-71.85 64.8q2.45.2 4.25 2.65 2 2.7 2 6.55 0 3.85-2 6.55-2 2.7-4.8 2.7-2.05 0-3.65-1.4l-1.15-1.3q-2-2.7-2-6.55 0-3.85 2-6.55 2-2.7 4.8-2.7l.55.05m-1.6 29.65q-1.2-1.2-1.2-2.9t1.2-2.9q1.2-1.2 2.9-1.2t2.9 1.2q1.2 1.2 1.2 2.9t-1.2 2.9q-1.2 1.2-2.9 1.2t-2.9-1.2m97.35-46.35L144 146.4l-7.3 4.3q.1 3.3-1.35 5.3l-6.55-10.25q2.05-3.65 4.05-5.9" fill="#fff"/><path d="m54.2 137.6-3.15 3.6.05.3-15.05-1.25 18.15-2.65" fill="#7b2203"/><path d="m76.65 220.25-6.05.1q-23.7-.7-39.05-17.55-11.35-23.35-6.5-42.2 1.5-5.9 4.6-11.3 2.6-4.7 6.4-9.05l15.05 1.25.7 7.45-11.5 1q-1.85 3.25-3.2 6.6l-.55-.05q-2.8 0-4.8 2.7t-2 6.55q0 3.85 2 6.55l1.15 1.3q-1.1 15.45 7.3 31.5h.05q20.15 15.05 51.8 8.9l2.25 3.45q-9.3 2.3-17.65 2.8" fill="#2a0001"/><path d="m51.1 141.5-.05-.3 3.15-3.6 13.85-15.95 2.05 19.6q29.3 13.45 31.5 49.8l-2.4.25q-.2-5.85-1.25-11.1-3.2-15.3-13.9-25.85-5.7-5.7-13.6-9.95l.35 3.55-4.45 4.55-13.05 13.25-1.5-16.8-.7-7.45m5.4 15.15 11.55-10.7-1.5-18.75-11.85 13.15-1.9 2.1 2 15.75 1.7-1.55" fill="#993104"/><path d="m51.8 148.95 1.5 16.8 13.05-13.25q12.55 4.8 20.7 12.4 3.65 15.85 1.05 27.6l-9.5 1.05q-20.85-6.25-19.5 14.75l-18.85-3.2h-.05q-8.4-16.05-7.3-31.5 1.6 1.4 3.65 1.4 2.8 0 4.8-2.7t2-6.55q0-3.85-2-6.55-1.8-2.45-4.25-2.65 1.35-3.35 3.2-6.6l11.5-1M35.5 186.2q1.2 1.2 2.9 1.2t2.9-1.2q1.2-1.2 1.2-2.9t-1.2-2.9q-1.2-1.2-2.9-1.2t-2.9 1.2q-1.2 1.2-1.2 2.9t1.2 2.9m17.55 6.6q-.75.75-.75 1.8t.75 1.8q.75.75 1.8.75t1.8-.75q.75-.75.75-1.8t-.75-1.8q-.75-.75-1.8-.75t-1.8.75" fill="#bf2124"/><path d="m66.55 127.2-9.25 15.75-2.6-2.6 11.85-13.15" fill="#fff89c"/><path d="M53.05 192.8q.75-.75 1.8-.75t1.8.75q.75.75.75 1.8t-.75 1.8q-.75.75-1.8.75t-1.8-.75q-.75-.75-.75-1.8t.75-1.8" fill="#cf3031"/><path d="m40.25 205.1 18.85 3.2q-1.35-21 19.5-14.75L92.05 214q-31.65 6.15-51.8-8.9" fill="#ff8374"/><path d="m143.1 178.6 3.35-2v30.7l-31.8 26.55-4.25-.3 32.7-28V178.6" fill="#6c9698"/><path d="m116.15 92.15 1.5 26.05 12.8 17.25q-1.45 1.75-2.95 4.05l-15.1-21.3 2-23.4 1.75-2.65" fill="#679aa1"/><path d="m99.2 191.3 2.4-.25 15.05 18.75q-11.8 5-22.35 7.65L92.05 214 78.6 193.55l9.5-1.05 11.1-1.2m24.6 13.4q-3.95-46.8-32.65-73.75l-18.5-11.85.25-.6q4.45 1.5 8.85 3.95 2.4 1.35 4.8 3l4.8 3.55 5.5 4.95q30.7 30.5 27.35 76.85l-.4-6.1m-12.65 4.85 1.75-.5-12.05-15-17.05 2.4-.95.1L94.1 213.2l.75 1.1 16.3-4.75" fill="#702002"/><path d="M84.05 154.35q10.7 10.55 13.9 25.85-3.8-8.7-10.9-15.3-1.2-5.1-3-10.55" fill="#ff433e"/><path d="m66.35 152.5 4.45-4.55-.35-3.55q7.9 4.25 13.6 9.95 1.8 5.45 3 10.55-8.15-7.6-20.7-12.4" fill="#690204"/><path d="M97.95 180.2q1.05 5.25 1.25 11.1l-11.1 1.2q2.6-11.75-1.05-27.6 7.1 6.6 10.9 15.3" fill="#ff907d"/><path d="m83.8 196.45 17.05-2.4 12.05 15-1.75.5-10.3-10.5-17.05-2.6" fill="#fffff9"/><path d="m148.95 323.4 1.05-1.65q2.35-2.85 5.6-2.85 3.25 0 5.55 2.85 2.35 2.9 2.35 6.95 0 4.05-2.35 6.9-2.3 2.9-5.55 2.9-2.6 0-4.6-1.85 5.4.2 7.45-4.65 2.6-11.25-9.5-8.6" fill="#b84f09"/><path d="m151 336.65-1-1.05q-1.1-1.35-1.65-3l5.35.15q5.65-8.3-5.4-7.85.25-.8.65-1.5 12.1-2.65 9.5 8.6-2.05 4.85-7.45 4.65" fill="#f3ab33"/></g><g id="x" fill-rule="evenodd"><path d="m677.7 276.1.4-.35 4.35-3.85q-28.4 2.95-46.7-20.25l-3.85-5.3q-32.8-78.55-74.65-93.75-1.7-5.25-4-9.85 49.95 21.55 81.65 99.15 25.3 33.95 69.1 18-28.25 36.55-73.5 43.15 33.6 80.05-33.7 173.65-51.7 60.9-104.65 49.6 6.3-33.4-13-55.6-27.15 24.65-36.55 48.1-4.15 29.9-28.55 41.05 5.85-4.95 0-17.55-21.3-11.8-19.9-44.55-7.85 9.55-18.15 16.05-37.65 37.15-46.55 70.05-11.5-15.55-13.85-34.45-.4-2.9-.5-5.85-.8-16.05 4.65-34.4l.35.05q-5.7 41.95 7.95 66.3l1.4-4.15q6.4-17.7 19.35-33.95 5.5-6.95 12.2-13.6 41.7-34 54.05-73.85l-1.5 7.25q-5.75 22.5-17.25 37.8.2 23.1 9.8 36.8 3.1 1.8 5.6 4.05l2.55 2.55q4.35 5 6.35 11.9l12.2-13.7 3.3-3.8q1.65-32.05 35.1-62.6 3.55-3.3 7.5-6.55 48.45-26.05 62.05-87.1-5.7 56.65-50.55 84.65l-2.8 2.35q2.7 6.35 4.85 12.15 84.35-52.45 89.25-136.8 6.45 88.15-87.6 141.55 9.05 27 4.3 41.35 53.4-3.95 95.6-54.1 58.4-74.15 32.15-164.05-16.45 1.8-35.1-.2 54.8-.9 86.85-27.35m-422.6 94 3.6 2.95q-5.1 21.05 5.4 36.95 1.15-1.7 2.45-3.3 3.45-4.4 7.75-8.6l-.55 5.4-2.3 2.45q-22.2 24.8-12.95 72.9v.05l-.3.1q-2.85-7.15-4.4-14l-2.6 3.2q-8.85 11.25-13.85 24.05-9.55 24.5-4.85 54.55 2 12.8 6.65 26.6.4 5.65 1.4 10.9-31.7-76.8 12.3-124.2-4.15-24.45 7.85-44.85-10-14.5-8.75-30.85l.05-.3q.3-3.75 1.2-7.55.7-3.2 1.9-6.45m326.75-36.2 10 5.1-18.55-39.05L597.35 342q-8.65-.1-15.75-3.3l-.05-.05q-8.8-3.95-15.25-12.65l15.55 7.9" fill="#5c4566"/><path d="M635.75 251.65q18.3 23.2 46.7 20.25l-4.35 3.85-.4.35q-38.85 24.45-67.85 3.85 8.3-14.15 25.9-28.3M471.2 470.2q-33.45 30.55-35.1 62.6l-3.3 3.8.8-14.85-8 14.05q-9.4-18.8-7-43.55-9.1 12.2-4.35 46.15l-2.55-2.55q-10.25-22.75 2.4-47.15l3-15.5 16.5-6-3 54.05q16.7-38.4 40.6-51.05m-122.4 67.2q-12.95 16.25-19.35 33.95-10.55-47.95 10.5-97.6-13.15 12.05-19.2 33.05l-.3-.05-.7 2.4q-5.45 18.35-4.65 34.4-10.45 22.5-21.7 33.4-3.65-42.2 12-66.2 27.05-37.45 21.45-56.05 8.4 7.2 18.9 10.75 9 10.75 29.25 11.75-17.5 40.3-40.55 71.1l14.35-10.9m-90.1-164.35.7.55 6.95 13.5.2 19.6q-1.3 1.6-2.45 3.3-10.5-15.9-5.4-36.95m20.45 14.05q11.25 6.65 23.75 11.9l1.5.6q5.9-20.6 22.5-29.05-4.25 29.4-17.8 47.85l-2.7 1.75 3.55-19.05q-20.45 28.5-27.05 60.1 1-13.15-3.5-39.05l-7.95 21.5q-5.6-16.1 0-37.7l2.3-2.45-1.9 18.6 7.3-35m57.35 31q-4.05-18.4 6.5-44.05l-13.05 15.5q12.75-31.75 41.65-43.8l-23.1 33.3 25-28.55q31.75-21.2 29.05-5.5 6.35-13.65 14-18.15l1.05 5.15-4 14 4.75 5.2q-12.15 25.45-38.8 39.9-11.95 5.2-21.8 11.1-2.1-10.65 5.25-27.15-15 19.5-19.95 37.3-3.5 2.8-6.55 5.75M624.4 339q-12.7-18.55-30.55-28.55l26.5 5L624.4 339m-42.55-5.1-8.55-33.95L591.85 339l-10-5.1m-342.7 239.5q-4.65-13.8-6.65-26.6 1.75-13 15.3-27.5l-5.65 13.8.15-1.8-.5 2.6q-4 21.85-2.65 39.5m53.8-70.8-.55-.35-.65 1.1 1.15-9.65q-35 37.25-33.55 88.15 7.1-25 22.2-40.05v3.55q-9.7 8.55-13.65 28.5-5 37.15 5.5 57.55-11.95-11.45-15.55-44.55-8.15-60.1 39.55-108.65 1.8 14.6-4.45 24.4" fill="#b4aced"/><path d="m524.25 150.1-.35-7.3v-.05h-10.7l-23.05-17.55q2.75 8.9 2 17.05l-8.65-2q-.1-9.05-3.35-19.05l-27.9-8q9.75 1.1 21.45 0 32.35-4.5 52.7 11.3 4 19.9-2.15 25.6" fill="#d8ffff"/><path d="M492.15 142.25q.75-8.15-2-17.05l23.05 17.55h10.7v.05l.35 7.3q-3.2 2.95-9.05 2.15-9.65-6.35-23.05-10" fill="#97bac0"/><path d="M492.15 142.25q13.4 3.65 23.05 10 5.85.8 9.05-2.15.1 35.7-30.1 56.25 52-25.75 40.6-73.95 10.25 11.75 16.5 30.35 16.35 46.6-34.55 104.65-44.45 20.8-95.65 5-8-5.4-12.8-12.15 10.75 5.6 25.85 3.65 30.95-2.2 37.55-28.55-2.85-34.7-31.1-29.45 1.3-6.35-7.95-10.6-39.7.65-57.6-6h38.05q44.8-21.8-32-45.05l-18.8-7.55q4.45-11.2 2.45-27.7l15.35 4.2q39.15 10.95 31.5-26.55 6.1 12.25 17.05 18.95 4.8 23.05 45.55 33.15l9.35 1.5q.15 28.1-30.9 46.55 37.1-18.85 39.55-44.55" fill="#365261"/><path d="M553.25 142.75q2.3 4.6 4 9.85 5.35 16.25 5.05 38.2-8.7 58.9-52.55 87.15-33 11-65.3 5.6l-.25-.05q-9.95-1.7-19.8-4.9-4.95-1.65-9.85-3.65-32.05-16.1-14.5-74.1-23.05-1.8-32.7-11.95l.15-.1-.2.05-1.8-2.1q30.1-7.95 16.5-19l-3.45-1-8.15-2.45Q191.4 109.95 96.6 0q195.15 79.5 323.5 77.65-4.55 27.1 53.05 28.55 60.75-2.65 80.1 36.55M526.4 124.5q-20.35-15.8-52.7-11.3-11.7 1.1-21.45 0-13.8-1.55-23.65-7.6-10.95-6.7-17.05-18.95-157.5-11.35-290.9-69.6 61.75 61.9 165.85 108.7 35.7 16.05 76.4 30.3l19.65 6.7q26.3 13.3-7.55 26.55 17.9 6.65 57.6 6 9.25 4.25 7.95 10.6-1.1 5.05-8.95 11.45 10.9-16.8-8.5-16.55l-12.55.45q-6 12.3-8.25 22.95-4.55 21.3 5.95 36.05 4.8 6.75 12.8 12.15 51.2 15.8 95.65-5 50.9-58.05 34.55-104.65-6.25-18.6-16.5-30.35-3.9-4.45-8.35-7.9" fill="#7199aa"/><path d="M677.7 276.1q-32.05 26.45-86.85 27.35 18.65 2 35.1.2 26.25 89.9-32.15 164.05-42.2 50.15-95.6 54.1 4.75-14.35-4.3-41.35 94.05-53.4 87.6-141.55-4.9 84.35-89.25 136.8-2.15-5.8-4.85-12.15l2.8-2.35q44.85-28 50.55-84.65-13.6 61.05-62.05 87.1-3.95 3.25-7.5 6.55-23.9 12.65-40.6 51.05l3-54.05-16.5 6-3 15.5q-12.65 24.4-2.4 47.15-2.5-2.25-5.6-4.05-9.6-13.7-9.8-36.8 11.5-15.3 17.25-37.8l1.5-7.25Q402.7 489.8 361 523.8q-6.7 6.65-12.2 13.6l-14.35 10.9q23.05-30.8 40.55-71.1-20.25-1-29.25-11.75 24.75 8.35 60.8-3.75l8.5-11.75v-.05q29.9-45 29.3-99.3l6.3-2.05q-.4-11.4-2.05-20.2 8.85 6.35 13.05 17.2 10.55-6.2 10.15-24.95l11.35 13.95q-2.55-10.9-11.5-17.05l-3.8-9.6-1.45-3.65q-2.35-5.25-6.25-10.55 9.75 2.45 20 3.25l-35.7-13.4q32.3 5.4 65.3-5.6 43.85-28.25 52.55-87.15.3-21.95-5.05-38.2 41.85 15.2 74.65 93.75l3.85 5.3q-17.6 14.15-25.9 28.3 29 20.6 67.85-3.85m-418.3 97.5q7.75 6.1 16.2 11.35l-1.3 13.15q-4.3 4.2-7.75 8.6l-.2-19.6-6.95-13.5m67.5-3.05 3.05 19Q323 408.6 309.1 418.4q13.55-18.45 17.8-47.85M624.4 339l-4.05-23.55-26.5-5q17.85 10 30.55 28.55m-51.1-39.05 8.55 33.95-15.55-7.9q6.45 8.7 15.25 12.65l-.05.25.1-.2q7.1 3.2 15.75 3.3l-24.05-42.05M251.2 468.2l2.6-3.2q1.55 6.85 4.4 14l.05.15q-11.3 10.75-16.8 23.5-1.35-9.2 9.75-34.45m40.55 35.15-.55.95-.05.05q-9.25 16.35-9.6 37.45-15.1 15.05-22.2 40.05-1.45-50.9 33.55-88.15l-1.15 9.65" fill="#886696"/><path d="M524.25 150.1q6.15-5.7 2.15-25.6 4.45 3.45 8.35 7.9 11.4 48.2-40.6 73.95 30.2-20.55 30.1-56.25m-40.75-9.85 8.65 2q-2.45 25.7-39.55 44.55 31.05-18.45 30.9-46.55" fill="#7294ac"/><path d="M411.55 86.65q7.65 37.5-31.5 26.55L364.7 109l-1.2-7.35q38.4 8.35 48.05-15" fill="#a2cebc"/><path d="m362.25 136.7 18.8 7.55q76.8 23.25 32 45.05H384.5l22.05-9.55q8.8-23.25-43.65-23.7-40.7-14.25-76.4-30.3L167.2 42.1q21.35 8.5 42.7 16.5Q256.8 90 324 120.25q-1.1 8.6-4.1 14.95 4.45-5.3 7.5-13.45 14.9 6.65 30.8 13.3-.75 6.2-2.75 12.15 4.35-4.5 6.8-10.5" fill="#8298c5"/><path d="M355.55 106.45q4.3 15 2.65 28.6-15.9-6.65-30.8-13.3 3.4-9.2 5.05-22l23.1 6.7" fill="#3f635e"/><path d="M364.7 109q2 16.5-2.45 27.7l-4.05-1.65q1.65-13.6-2.65-28.6l9.15 2.55m-32.25-9.25q-1.65 12.8-5.05 22l-3.4-1.5q1.2-10.05-.2-23.15l8.65 2.65" fill="#7ba6a9"/><path d="M209.9 58.6q-21.35-8-42.7-16.5l119.3 83.65q-104.1-46.8-165.85-108.7 133.4 58.25 290.9 69.6-9.65 23.35-48.05 15l1.2 7.35-9.15-2.55-23.1-6.7-8.65-2.65q-56.95-17.25-113.9-38.5" fill="#e8ffff"/><path d="m358.2 135.05 4.05 1.65q-2.45 6-6.8 10.5 2-5.95 2.75-12.15" fill="#9fc5c0"/><path d="M327.4 121.75q-3.05 8.15-7.5 13.45 3-6.35 4.1-14.95l3.4 1.5" fill="#e7ffff"/><path d="M312.35 210.7 343 174.25l5.8 2.8.1 1.45.25 3.35.75 11.85 1.05 16.65q3.35-16.35 14.6-20.85l.2.6q-9.9 7.85-15.25 27.75-11.75 22.7-27.05 29.55 5.05 19.8 0 26.05l-.3-2.65-2.7-24.4q28.65-22 27.05-42.55V180.3h-3.55l-44.05 53.05-5 44.6q6.2.3 9.3 3.2 7.7 7.2-3.3 30.35l-12.45 20.2q-43.85 3.65-74.15-17.7 33.65 49.1 88.6 75.6v9.4q-12.5-5.25-23.75-11.9l-3.55-2.15q-8.45-5.25-16.2-11.35l-.7-.55-3.6-2.95q-9.25-7.75-17.4-16.7l-3.75-4.25q-19.2-22.45-32.2-52.2 51.5 42.7 87.15 20.5 9-14 8.65-22.4-.35-7.7-8.65-10.65-1.95-39.7 8-55.4l11.2-13.3 4.25-5" fill="#46100c"/><path d="m349.9 193.7-.75-11.85q13-12.8 23.95-14.8l3.9 7.7-27.1 18.95" fill="#aba5df"/><path d="m288.45 331.7 12.45-20.2q11-23.15 3.3-30.35l2.2-42.25 27.05-30.55 10.5-28.05h3.55v3l-8.05 30.55-24.05 31.55 4.15 31.7Q305 305 321.4 328q-5.1-12.75 3-37.05 8.75-18.65 8.55-35.55l24-33.55q7.2-20.05 14.45-23.25 3.45 3.45 8.15 5.2 8.1 28.3 2 45.05L331.8 322.5l-1.35 1.95q61.9-11.15 60.6-25.5 11.5-16.55 23 0l-9 35.55q-8.25-.5-17.15 3.6l3.15-16.15L374.5 338q-16.9 5.7-35.05 19l2.55-13.5-11.55 19.55q-13.35 2.05-21.4 13.95-52.4-15.95-76.4-47.3 21.15 14.2 47.25 15.85l8.55-13.85" fill="#a44037"/><path d="m349.15 181.85-.25-3.35.85-1q9.25-11 20.65-13.2l8.15 2.45-5.45.3q-10.95 2-23.95 14.8" fill="#655370"/><path d="M365.55 189.5q-11.25 4.5-14.6 20.85l-1.05-16.65 27.1-18.95-3.9-7.7 5.45-.3 3.45 1q13.6 11.05-16.5 19l1.8 2.1-1.75.65" fill="#90749f"/><path d="M384.5 189.3H375q33.85-13.25 7.55-26.55l-19.65-6.7q52.45.45 43.65 23.7l-22.05 9.55" fill="#c1deff"/><path d="M367.35 188.9q9.65 10.15 32.7 11.95-17.55 58 14.5 74.1 4.9 2 9.85 3.65 17.05 10.45 35.75 15.1 3.9 5.3 6.25 10.55l1.45 3.65q5.45 15.95-4.2 31.15l-16.15-15.7-.1-.4q-5.55-21.55-20.3-23.5-14 1.35-11.2 23.3l-10.85 11.75 9-35.55q-11.5-16.55-23 0 1.3 14.35-60.6 25.5l1.65-1.85q24.15-4.25 45.45-18.65 7.65-16.15 5.4-40.1l2.1-2.45v-5.5l-51.75 65-1.35 1.7-.15-.1 49.75-73.65q6.1-16.75-2-45.05-4.7-1.75-8.15-5.2t-5.65-8.5l1.6-1.2" fill="#5f1f33"/><path d="m452.25 113.2 27.9 8q3.25 10 3.35 19.05l-9.35-1.5q-40.75-10.1-45.55-33.15 9.85 6.05 23.65 7.6" fill="#9dc1c2"/><path d="M440.55 205.9q28.25-5.25 31.1 29.45-6.6 26.35-37.55 28.55-15.1 1.95-25.85-3.65-10.5-14.75-5.95-36.05 12.85-18.85 29.3-6.85 7.85-6.4 8.95-11.45m19.6 23.45q0-3.95-2.3-6.75-2.25-2.75-5.45-2.75t-5.5 2.75q-2.25 2.8-2.25 6.75t2.25 6.7q2.3 2.8 5.5 2.8t5.45-2.8q2.3-2.75 2.3-6.7m-52.05-1q-7.9 23.4 17 26.05 25.4-6.55 7-23.05-9.3-21.4-24-3" fill="#737ecb"/><path d="M460.15 229.35q0 3.95-2.3 6.7-2.25 2.8-5.45 2.8t-5.5-2.8q-2.25-2.75-2.25-6.7t2.25-6.75q2.3-2.75 5.5-2.75t5.45 2.75q2.3 2.8 2.3 6.75" fill="#a6b2ff"/><path d="M402.3 224.2q2.25-10.65 8.25-22.95l12.55-.45q19.4-.25 8.5 16.55-16.45-12-29.3 6.85" fill="#2f4069"/><path d="M408.1 228.35q14.7-18.4 24 3 18.4 16.5-7 23.05-24.9-2.65-17-26.05" fill="#a5b0ff"/><path d="M424.4 278.6q9.85 3.2 19.8 4.9l.25.05 35.7 13.4q-10.25-.8-20-3.25-18.7-4.65-35.75-15.1" fill="#5c4465"/><path d="M302.9 389.6q-54.95-26.5-88.6-75.6 8.65 9.15 18.35 15.7 24 31.35 76.4 47.3-3.6 5.3-6.15 12.6m20.25-118.8.3 2.65q5.05-6.25 0-26.05 15.3-6.85 27.05-29.55 5.35-19.9 15.25-27.75 2.2 5.05 5.65 8.5-7.25 3.2-14.45 23.25l-24 33.55q.2 16.9-8.55 35.55-8.1 24.3-3 37.05-16.4-23-1.85-50.9l3.6-6.3m64.75 67.3q-5.35 2.4-10.9 6.45V341q-28.35 8.3-46.55 33.55v-11.5L342 343.5l-2.55 13.5q18.15-13.3 35.05-19l16.55-16.05-3.15 16.15" fill="#ff859a"/><path d="m367.8 281.35 12.65-14.6-5.9 36.2-6 2.65q6.6-14.15-.75-24.25" fill="#fffefe"/><path d="m333.3 320.9 51.75-65v5.5l-2.1 2.45-2.5 2.9-12.65 14.6-8.85 10.2-25.5 29.45-.15-.1" fill="#46100d"/><path d="M382.95 263.85q2.25 23.95-5.4 40.1-21.3 14.4-45.45 18.65l1.35-1.6 25.65-11.25 9.45-4.15 6-2.65 5.9-36.2 2.5-2.9" fill="#04322f"/><path d="M367.8 281.35q7.35 10.1.75 24.25l-9.45 4.15 1.65-6.4q4.55-3.7 6.75-10.9-4.25 2.4-7.35 5.6l-1.2-6.5 8.85-10.2" fill="#29cc65"/><path d="M302.9 399v-9.4q2.55-7.3 6.15-12.6 8.05-11.9 21.4-13.95v11.5Q348.65 349.3 377 341v3.55q5.55-4.05 10.9-6.45 8.9-4.1 17.15-3.6l10.85-11.75.65 4.1q-7.65 4.5-14 18.15 2.7-15.7-29.05 5.5l-25 28.55 23.1-33.3q-28.9 12.05-41.65 43.8l-3.05-19q-16.6 8.45-22.5 29.05l-1.5-.6" fill="#5d4262"/><path d="m358.95 291.55 1.2 6.5q-3.6 3.7-5.65 8.45 3.55-.95 6.25-3.15l-1.65 6.4L333.45 321l25.5-29.45" fill="#0a554d"/><path d="m432.8 536.6-12.2 13.7q-2-6.9-6.35-11.9-4.75-33.95 4.35-46.15-2.4 24.75 7 43.55l8-14.05-.8 14.85m-103.35 34.75-1.4 4.15q-13.65-24.35-7.95-66.3l.65-2.4q6.05-21 19.2-33.05-21.05 49.65-10.5 97.6m30.7-273.3q3.1-3.2 7.35-5.6-2.2 7.2-6.75 10.9-2.7 2.2-6.25 3.15 2.05-4.75 5.65-8.45m-30.2 91.5 13.05-15.5q-10.55 25.65-6.5 44.05-12.9 12.1-19.1 26.6 4.35 5.65 9.45 10 5.6 18.6-21.45 56.05-15.65 24-12 66.2-4.2 4-8.5 6.45l3-10.55q-9.2-31.6 3.7-68.3v-.05h.05l1.3-1.9q6.25-9.8 4.45-24.4-47.7 48.55-39.55 108.65 3.6 33.1 15.55 44.55-37-30.1-31.35-97.45l.1-.85 5.65-13.8q-13.55 14.5-15.3 27.5-4.7-30.05 4.85-54.55-4.8 25.3-.55 27.05 1.2-8.7 4.65-16.65 5.5-12.75 16.8-23.5l.6 1.55-.35-1.8v-.05q-9.25-48.1 12.95-72.9-5.6 21.6 0 37.7l7.95-21.5q4.5 25.9 3.5 39.05 6.6-31.6 27.05-60.1l-3.55 19.05 2.7-1.75q13.9-9.8 20.85-28.85m13.1 22.8q4.95-17.8 19.95-37.3-7.35 16.5-5.25 27.15-8.05 4.85-14.7 10.15m-101.7 101.4q43.35-26.95 34.55-65.6-6.05 46.45-34.55 65.6" fill="#fff"/><path d="M392.85 388.6q5.9-4.7 10.95-10.3 10.25-11.45 17-26.85 2.6-4.65 10.3-2.4 15.35 8.1-10.95 60.65 3.4-8.3 4.85-15.9l2.1-5.7-1.6 2.45-3.6 5.4 1.2-8.85 4-19.55q-4.15 12.85-17 20.5-29 22.95-37.55 39.1l26-22.55-26.05 35.9h-.05q-10.1-5.2-23.8-3.85 14.2-19.45 44.2-48.05m-39 25.75q-13.3 15.3-12.1 23.3-7.4 1.5-15.7 4.65 9.55-14 27.8-27.95m-131.3-23.75 6.25-18.55-11.85 17.45-6.05-.2 21.5-31.05 5.3-4.85 10.15 16.15q-16.55 7.45-20.2 22.9-2.5-1.15-5.1-1.85" fill="#e72b2b"/><path d="m233.95 349.15 3.75 4.25-5.3 4.85L194.15 393l-3.4 3.1 1.9 1.75q34.05 13.1 47 3.45l3.7 4.35q-2.35-16.95 9.85-29.1-.9 3.8-1.2 7.55l-.05.3q-7.6 6.1-4.15 28.75-42 7.9-64.05-18.05 20.55-22.95 50.2-45.95m233.9-41.25 3.8 9.6.15 3.1q.4 18.75-10.15 24.95-4.2-10.85-13.05-17.2l-.05-.4-1.05-4.6 16.15 15.7q9.65-15.2 4.2-31.15m-23.5 42.7q.6 54.3-29.3 99.3v.05l-8.5 11.75q-36.05 12.1-60.8 3.75-10.5-3.55-18.9-10.75-5.1-4.35-9.45-10 6.2-14.5 19.1-26.6 3.05-2.95 6.55-5.75 6.65-5.3 14.7-10.15 9.85-5.9 21.8-11.1 26.65-14.45 38.8-39.9l2.85-6.65 2.45-.2-2.85 7.1q-6.75 15.4-17 26.85l-10.95 10.3-6.3 4.5q-18.85 10.65-32.7 21.25-18.25 13.95-27.8 27.95 8.3-3.15 15.7-4.65l6.9-1q13.7-1.35 23.8 3.85v.05l.05-.05q29.75-20.1 50.6-53.4-16.85 32.5-47.6 55.2-24.85-6.15-51.05 2.4 25.75 27.2 77.1 13 40.45-41.8 39-112.1l3.75.95.05 4.05m-22.45 45.35 3.6-5.4-.5 3.25q-12.6 32-32 45.85l-3.35 5.05q4.85.55 5.9 4.95l-12.05-4.5q4.95-2.25 9.5-5.5l28.9-43.7" fill="#520a05"/><path d="M392.85 388.6q-30 28.6-44.2 48.05l-6.9 1q-1.2-8 12.1-23.3 13.85-10.6 32.7-21.25l6.3-4.5m-20.35 51.9 26.05-35.9-26 22.55q8.55-16.15 37.55-39.1 12.85-7.65 17-20.5l-4 19.55q-20.85 33.3-50.6 53.4m52.5-46.7q-1.45 7.6-4.85 15.9-7.5 18.4-24.6 39.95-1.05-4.4-5.9-4.95l3.35-5.05q19.4-13.85 32-45.85m-202.45-3.2q-2.75-.8-5.6-1.1l11.85-17.45-6.25 18.55m-11.65-1.3q-7.85.35-16.75 3.7l38.25-34.75-21.5 31.05" fill="#ff8367"/><path d="M471.65 317.5q8.95 6.15 11.5 17.05L471.8 320.6l-.15-3.1" fill="#3adcff"/><path d="M448.6 328.35q1.65 8.8 2.05 20.2l-6.3 2.05-.05-4.05 2.85.95q-13.25-11.25-29.55-2.5l3.6-.45-2.85 6.65-4.75-5.2 4-14-1.05-5.15-.65-4.1q-2.8-21.95 11.2-23.3 14.75 1.95 20.3 23.5l.1.4 1.05 4.6.05.4m-27.9 7.3-1.15 3.85q15.95-4.9 26.55 4.5 3.15-15.75-10-38.05-6.15-2.9-10-2.7-5.85.25-6.35 7.65 1.5 4.55 2.05 9.1.4 3.5.25 7-.25 4.35-1.35 8.65" fill="#842914"/><path d="M421.8 320q-.55-4.55-2.05-9.1.5-7.4 6.35-7.65 4.2 3.2 6.8 7.25-2.2 11.55-11.1 9.5m4.2-5.3q1.4 0 2.4-1t1-2.4q0-1.4-1-2.4t-2.4-1q-1.4 0-2.4 1t-1 2.4q0 1.4 1 2.4t2.4 1m-2.9 9.8q1.05-1 2.5-1t2.45 1q1.05 1.05 1.05 2.5t-1.05 2.45q-1 1.05-2.45 1.05-1.45 0-2.5-1.05-1-1-1-2.45 0-1.45 1-2.5" fill="#fff45b"/><path d="M426 314.7q-1.4 0-2.4-1t-1-2.4q0-1.4 1-2.4t2.4-1q1.4 0 2.4 1t1 2.4q0 1.4-1 2.4t-2.4 1" fill="#fff573"/><path d="M426.1 303.25q3.85-.2 10 2.7 13.15 22.3 10 38.05-10.6-9.4-26.55-4.5l1.15-3.85q7.45-4.65 14.9 0 3.75-15.1-2.7-25.15-2.6-4.05-6.8-7.25" fill="#bd540a"/><path d="M420.7 335.65q1.1-4.3 1.35-8.65.15-3.5-.25-7 8.9 2.05 11.1-9.5 6.45 10.05 2.7 25.15-7.45-4.65-14.9 0m2.4-11.15q-1 1.05-1 2.5t1 2.45q1.05 1.05 2.5 1.05t2.45-1.05q1.05-1 1.05-2.45 0-1.45-1.05-2.5-1-1-2.45-1-1.45 0-2.5 1" fill="#f3aa32"/><path d="M237.7 353.4q8.15 8.95 17.4 16.7-1.2 3.25-1.9 6.45-12.2 12.15-9.85 29.1l-3.7-4.35q-12.95 9.65-47-3.45l-1.9-1.75 3.4-3.1q8.9-3.35 16.75-3.7l6.05.2q2.85.3 5.6 1.1 2.6.7 5.1 1.85 3.65-15.45 20.2-22.9L237.7 353.4m185.4 33.7-1.2 8.85-28.9 43.7q-4.55 3.25-9.5 5.5l12.05 4.5q17.1-21.55 24.6-39.95 26.3-52.55 10.95-60.65-7.7-2.25-10.3 2.4l2.85-7.1-2.45.2-3.6.45q16.3-8.75 29.55 2.5l-2.85-.95-3.75-.95q1.45 70.3-39 112.1-51.35 14.2-77.1-13 26.2-8.55 51.05-2.4 30.75-22.7 47.6-55.2" fill="#7f0a22"/><path d="M214.3 314q30.3 21.35 74.15 17.7l-8.55 13.85q-26.1-1.65-47.25-15.85-9.7-6.55-18.35-15.7m133.2-130.7v20.55q1.6 20.55-27.05 42.55l2.7 24.4-3.6 6.3-4.15-31.7 24.05-31.55 8.05-30.55" fill="#5e1c31"/><path d="M304.2 281.15q-3.1-2.9-9.3-3.2l5-44.6 44.05-53.05-10.5 28.05-27.05 30.55-2.2 42.25" fill="#ff879c"/><path d="m312.35 210.7-4.25 5-7.65-7.85V179.3H277.4q-9.1 11.65-16.15 23.85-4.2 7.3-7.7 14.8l-.7-.45q4.05-13.1 11.55-25.5l2.65-4.25q4-6.05 8.85-11.95h27.55v28l8.9 6.9" fill="#3e5981"/><path d="M288.9 284.4q8.3 2.95 8.65 10.65-24.45-3.25-44.7-16.15-32.25-55.8-63.1-61.05l-2.5-9.55Q84.4 151.2 0 54.05l267.05 133.7-2.65 4.25L65.85 93.6l-31.3-15.5q66.85 70.55 157.85 127.65l2.85 6.05q20.85 8.25 36.5 23.8l.6.6.25.25 1.8 1.9 1.05 1.05q14.7 16 24.4 39l29.05 6" fill="#48668e"/><path d="M308.1 215.7 296.9 229q-9.95 15.7-8 55.4l-29.05-6q-9.7-23-24.4-39 37.7 39 39.45 28.5-1.7-15.05 11-35.55V201.3l8.5-22h6.05v28.55l7.65 7.85" fill="#2e3b6e"/><path d="M261.25 203.15q7.05-12.2 16.15-23.85h17l-8.5 22-6.55 13.5q-16.15 4.8-18.1-11.65" fill="#99abf3"/><path d="M324 120.25Q256.8 90 209.9 58.6q56.95 21.25 113.9 38.5 1.4 13.1.2 23.15" fill="#436c5c"/><path d="m232.6 236.45-.25-.25-.6-.6q-15.65-15.55-36.5-23.8l-2.85-6.05q-91-57.1-157.85-127.65l31.3 15.5 11.3 7.5 128.15 92.7 2 12.05q35.7 12.85 26.1 31.4l-.8-.8" fill="#a8c7ef"/><path d="M264.4 192q-7.5 12.4-11.55 25.5L77.15 101.1l-11.3-7.5L264.4 192" fill="#3a516e"/><path d="M253.55 217.95q3.5-7.5 7.7-14.8 1.95 16.45 18.1 11.65l6.55-13.5v31.05q-12.7 20.5-11 35.55-1.75 10.5-39.45-28.5l-1.05-1.05-1-1.1q9.6-18.55-26.1-31.4l-2-12.05-128.15-92.7 175.7 116.4-1.5 5.35 2.2-4.9m-6.25 18.9q0 6.05 3 10.3 3.05 4.25 7.3 4.25t7.25-4.25q3.05-4.25 3.05-10.3 0-6.05-3.05-10.3-3-4.25-7.25-4.25t-7.3 4.25q-3 4.25-3 10.3" fill="#7e91c8"/><path d="M247.3 236.85q0-6.05 3-10.3 3.05-4.25 7.3-4.25t7.25 4.25q3.05 4.25 3.05 10.3 0 6.05-3.05 10.3-3 4.25-7.25 4.25t-7.3-4.25q-3-4.25-3-10.3" fill="#8894f5"/><path d="m275.6 384.95 3.55 2.15-7.3 35 1.9-18.6.55-5.4 1.3-13.15m-34.25 128.8q28.5-19.15 34.55-65.6 8.8 38.65-34.55 65.6" fill="#6b577d"/><path d="M237.35 492.25q5-12.8 13.85-24.05-11.1 25.25-9.75 34.45-3.45 7.95-4.65 16.65-4.25-1.75.55-27.05" fill="#b6aeed"/><path d="M315.1 543.55q.1 2.95.5 5.85-13.45 31.55-35.2 39.45l5-15q-2.95-12.2-3.65-23.2-20.4 43.85-6.4 82.3l-1.95-1.55q-10.5-20.4-5.5-57.55 3.95-19.95 13.65-28.5v-3.55q.35-21.1 9.6-37.45l.45.2q-12.9 36.7-3.7 68.3l-3 10.55q4.3-2.45 8.5-6.45 11.25-10.9 21.7-33.4m-74.55 40.75q-1-5.25-1.4-10.9-1.35-17.65 2.65-39.5l.25.05q-5.65 67.35 31.35 97.45l-.2.3q-26.6-15.65-32.65-47.4" fill="#6c5060"/></g><g id="y" fill-rule="evenodd"><path d="m227.85 271 .5-3.65-21.7 11.9 2.15-2.35 23-18.05-.6 8.05q-3.6 46.35-11.15 84.8l-.45 2.35-1.8 8.45-2.55 1.15 12.6-92.65m-76.7 83.65 1.45 1.6q5.5 6.3 8.85 13.85v.1l-4.55-.5-3-6.5q-4.1-7.9-10.2-15.2 4.1 3.1 7.45 6.65m64.45 39.7 3.15-1.9 4.5 28.9-2.6 4.8-5.05-31.8m-53.45 5.25 4.3 1-.5 5.95q-1.25 11.35-5.2 24.3l-2.3 7.05q-2.85 8.2-6.7 17.05-5.25 11.95-12.35 24.95-3.65-1.45-7.2-3.2 29.15-42.75 29.95-77.1" fill="#46100c" transform="translate(-50.4 -138.45)"/><path d="m206.65 279.25 21.7-11.9-.5 3.65-28.55 35.45 4-23.5 3.35-3.7m-20.2 91.95-2.2-14.95q-11.85 3.7-22.95 2.1-4.4-.65-8.7-2.1l-1.45-1.6q22.7 5.65 41.6-10.15 7.25 13.5 3.5 25.2l-9.8 1.5m-28 66.7 2.3-7.05 24.5-3.75v-16.85q7.75-.45 16.05-3.7v24.55l-42.85 6.8m29.45 46.5q-10.3 1.7-20.1 1.35l7.4-22.4q7.95.7 16.1-1.2l-3.4 22.25" fill="#a44037" transform="translate(-50.4 -138.45)"/><path d="m227.85 271-12.6 92.65q-9.5 4.05-19 6.05 3.75-11.7-3.5-25.2-18.9 15.8-41.6 10.15-3.35-3.55-7.45-6.65l59.6-65.05-4 23.5L227.85 271m-61.4 129.6q27.8 5.9 49.15-6.25l5.05 31.8q-8.55 15.95-13.7 28Q199 472.6 198.9 482q-5.55 1.5-11 2.4l3.4-22.25q-8.15 1.9-16.1 1.2-12-1.15-23.45-8.4 3.85-8.85 6.7-17.05l42.85-6.8v-24.55q-8.3 3.25-16.05 3.7-10.1.55-19.3-3.7l.5-5.95" fill="#5e1c31" transform="translate(-50.4 -138.45)"/><path d="M152.6 356.25q4.3 1.45 8.7 2.1 11.1 1.6 22.95-2.1l2.2 14.95q-11.85 1.15-23.7-.85l-.4-.1-.9-.15q-3.35-7.55-8.85-13.85M139.4 479.9q7.1-13 12.35-24.95 11.45 7.25 23.45 8.4l-7.4 22.4q-14.8-.55-28.4-5.85m21.35-49.05q3.95-12.95 5.2-24.3 9.2 4.25 19.3 3.7v16.85l-24.5 3.75" fill="#ff859a" transform="translate(-50.4 -138.45)"/><path d="M161.45 370.2h.05q1.3 3 2.3 6.25 34.15 2.1 51.3-11.55l2.7-2.4q-1 5.95-3.9 10.25-14.1 10.05-28.15 8.75l-.05 14.7q-9.3.75-19.15-.45l-4.4-.65q-.3-8.9-2.5-17.2l-8.45-6.4 2.7-8.3 3 6.5 4.55.5" fill="#fff45b" transform="translate(-50.4 -138.45)"/><path d="m151.2 371.5 8.45 6.4q2.2 8.3 2.5 17.2l-7.45-1.55-3.5-22.05m34.5 24.7.05-14.7q14.05 1.3 28.15-8.75-4.9 7.15-15.1 9.75l.1 11.5q-6.45 1.6-13.2 2.2m24.7 67.3q20.75-8.25 14.9 15.2-6.05 16.85-21.1 3.15-.35-1.95-.45-4.2l6.65-14.15" fill="#f3aa32" transform="translate(-50.4 -138.45)"/><path d="m219.6 354.05.45-2.35 9.75 5.3v26.55q-5.3 5.15-11.05 8.9l-3.15 1.9q-21.35 12.15-49.15 6.25l.1-4.85q9.85 1.2 19.15.45 6.75-.6 13.2-2.2 14.4-3.6 27.4-12.45V361l-6.7-6.95m-33.15 17.15 9.8-1.5q9.5-2 19-6.05l-.15 1.25q-17.15 13.65-51.3 11.55-1-3.25-2.3-6.25l-.05-.1.9.15.4.1q11.85 2 23.7.85m-32.55-8-2.7 8.3 3.5 22.05 7.45 1.55v4.5q-4.85-1.25-9.95-3.05-5.45-7.65-5-27l6.7-6.35M200.05 488q-1.2-2.3-1.15-6 .1-9.4 8.05-27.85 5.15-12.05 13.7-28l2.6-4.8 1.5-2.75 2.55-4.55q25.3-11.9 12.55 28.55l-3.95 18.15q5.7 6.85-.1 23.95-3.3 4.05-6.45 6.9l-3.5 2.85q-3.25 2.3-6.3 3.3-8.9 2.75-15.8-6.55-2.5-.85-3.7-3.2m4.15-6.15q3.05 20.25 24.6 3.35 12.35-15.4-7.5-29.05 5.65-.25 9.45 1.1l.85-3.1q7.5-27.9 5.85-35.55-1-4.5-5.15-2l-21.9 46.9-6.65 14.15q.1 2.25.45 4.2" fill="#9a3104" transform="translate(-50.4 -138.45)"/><path d="m181.2 528.4 5.85-38.5 13-1.9q1.2 2.35 3.7 3.2 6.9 9.3 15.8 6.55l-4 22.1q-18.05 6.6-34.35 8.55" fill="#1a2028" transform="translate(-50.4 -138.45)"/><path d="m162.15 395.1 4.4.65-.1 4.85-4.3-1v-4.5" fill="#993105" transform="translate(-50.4 -138.45)"/><path d="M132.2 476.7q3.55 1.75 7.2 3.2 13.6 5.3 28.4 5.85 9.8.35 20.1-1.35l-.85 5.5q-12.45 1.25-24.75-.05-12.25-1.25-24.3-5l-9.8 35.4q12.2 5.95 25.9 7.95 12.9 1.85 27.1.2 16.3-1.95 34.35-8.55 5.1-1.85 10.3-4.1v-21.3l3.5-2.85v28.15q-56.15 33.35-107.7 0l10.55-43.05" fill="#12141d" transform="translate(-50.4 -138.45)"/><path d="M154.1 528.2q-13.7-2-25.9-7.95l9.8-35.4q12.05 3.75 24.3 5l-8.2 38.35" fill="#626679" transform="translate(-50.4 -138.45)"/><path d="M162.3 489.85q12.3 1.3 24.75.05l-5.85 38.5q-14.2 1.65-27.1-.2l8.2-38.35" fill="#474850" transform="translate(-50.4 -138.45)"/><path d="m217.8 362.5 1.8-8.45 6.7 6.95v20.55q-13 8.85-27.4 12.45l-.1-11.5q10.2-2.6 15.1-9.75 2.9-4.3 3.9-10.25m-7.4 101 21.9-46.9q4.15-2.5 5.15 2 1.65 7.65-5.85 35.55l-.85 3.1q-3.8-1.35-9.45-1.1 19.85 13.65 7.5 29.05-21.55 16.9-24.6-3.35 15.05 13.7 21.1-3.15 5.85-23.45-14.9-15.2" fill="#bd540a" transform="translate(-50.4 -138.45)"/><path d="m187.05 489.9.85-5.5q5.45-.9 11-2.4-.05 3.7 1.15 6l-13 1.9" fill="#13141d" transform="translate(-50.4 -138.45)"/><path d="M225.85 494.45v21.3q-5.2 2.25-10.3 4.1l4-22.1q3.05-1 6.3-3.3" fill="#4e4664" transform="translate(-50.4 -138.45)"/><path d="m163.95 174.7.35-.65.7 5.05q4.4 35.15-5.4 58.7 18.2 40.1 43.95 7.95 5.95-7.45 12.3-18.7l.95-1.75.1 1.75q.75 24.2-4.85 47.9l-.6 2.55q-1.9 7.45-4.4 14.85l-2.55 7.15-5.25 12.45q3.4-9.15 6.15-19.6 5.15-19.6 7.9-43.95l1-10.05q-5.55 7.2-10.75 12.25-11.9 11.7-21.75 12.2-14.05.7-23.85-21.25l-1.75 3.3 2.65-9.55q6.05-25.45 3.15-57.45l1.05-1.6.9-1.55" fill="#47120f" transform="translate(-50.4 -138.45)"/><path d="M124.85 142.95q10.5 1.7 18.3 7.3 10.35 7.45 14.6 13.1 3.65 4.8 5.3 12.9l-1.05 1.6q2.9 32-3.15 57.45 2.85-21.9-2.35-50.2l.65-.75-5.55-13q-3.4-7.35-7.45-13.3-2.35-3.45-5.55-6.8-2.9-3-5.1-4.45-1.45-1-4.35-2.1l-4.3-1.75" fill="#4e4664" transform="translate(-50.4 -138.45)"/><path d="m51.4 264.1-.55-.05q-.45-4.1-.45-8.95 0-1.7 4.4-22.75l5.05-25.05q2.2-14.15 9.35-25.5 4.05-6.45 12.6-15.45l10.2-12.3q4.4-5.45 9.4-7.25 7.15-2.6 14-4.65l2.2.1 7.25.7 4.3 1.75q2.9 1.1 4.35 2.1 2.2 1.45 5.1 4.45 3.2 3.35 5.55 6.8 4.05 5.95 7.45 13.3l5.55 13-.65.75q5.2 28.3 2.35 50.2l-2.65 9.55 1.75-3.3q9.8 21.95 23.85 21.25 10.45 14.1 21.75 1.3 4.8-5.45 9.75-15.7-2.75 24.35-7.9 43.95-2.75 10.45-6.15 19.6l5.25-12.45q4.8-2.95 8.9-7.15 9.35-9.65 14.9-26l-1.95 14.6q-1.95 5.85-4.25 11.4-12.3 29.5-34.35 49.15-19.55 3.7-36.8 3.3 42.7-16.9 27.8-57.9-15.15-9.05-27.55-29.05-17.25-17.1-33.05 10.55-12.25 39.15-28.85 56.35l-8.05-6.4-2.05-1.75h-.3l-1.7.05q-18.9-19.7-23.6-46.55-1.1-6.4-1.65-12.8l-.45 5.4-.1 1.4" fill="#5e1c31" transform="translate(-50.4 -138.45)"/><path d="M89.3 324.75q16.6-17.2 28.85-56.35 15.8-27.65 33.05-10.55 12.4 20 27.55 29.05 14.9 41-27.8 57.9-28.8-.7-51.3-12.8l-10.35-7.25m92.5-61.95q9.85-.5 21.75-12.2 5.2-5.05 10.75-12.25l-1 10.05q-4.95 10.25-9.75 15.7-11.3 12.8-21.75-1.3m22.7 36.7 2.55-7.15q2.5-7.4 4.4-14.85l16.85-11.15q-5.55 16.35-14.9 26-4.1 4.2-8.9 7.15m-49.3 6.95q-9.45-31.65-39.05-17.05-14.9 23.25 10.05 32.55 31.45 1.7 29-15.5" fill="#a44037" transform="translate(-50.4 -138.45)"/><path d="m115.4 142.15-12.55-.25q3.8-1.55 7.9-2.45 3.8-.9 7.6-1l8.15.7.4.05q3.6.75 7.1 2.2l1.8.75q9.75 4.3 18.1 10.7 1.45 1.1 2.6 2.55 3.6 4.9 5.25 10.95l.55 1.9 1.65 6.45-.9 1.55q-1.65-8.1-5.3-12.9-4.25-5.65-14.6-13.1-7.8-5.6-18.3-7.3l-7.25-.7-2.2-.1m96.65 132.8 20.25-16.6q-2.4 11.85-5.95 22.6l1.95-14.6-16.85 11.15.6-2.55m-24.3 66.55q-50.35 17.4-91.65-3.55-12.9-10.4-23.75-21.1l.35-.05q-6.95-5.6-12.25-12.75-6.25-8.45-8-18.9-1.5-9.15-1.15-18.35l.1-2.7.1-1.4.45-5.4q.55 6.4 1.65 12.8 4.7 26.85 23.6 46.55l1.7-.05h.3l2.05 1.75 8.05 6.4L99.65 332q22.5 12.1 51.3 12.8 17.25.4 36.8-3.3" fill="#46100c" transform="translate(-50.4 -138.45)"/><path d="M155.2 306.45q2.45 17.2-29 15.5-24.95-9.3-10.05-32.55 29.6-14.6 39.05 17.05" fill="#ff859a" transform="translate(-50.4 -138.45)"/><path d="M225.95 385.7q14.9-1.2 27.9-.25 27.75 2 30.2 12.7 2.45 10.65-21.85 23.8-18.7 10.1-44.8 17.15l-16.25 3.9q-36.85 7.85-64.6 5.85-27.75-2-30.2-12.7-2.45-10.7 21.85-23.8 13.05-7.1 33.25-15.3 5.4 7.5-.1 9.65-4.4 1.65-8.25 3.5-14.6 6.8-13.55 11.55.95 4.4 15.15 4.55-7.3 10-19.8 9.25-9.05-11.6-5.5-20.55-5.6 4-7.5 8.15 8 9.25 6.4 16.6l21.55 4.3q-.75-2.25-.5-4.55l36 3.45 12.75-7.45 7.85-2.1q-1.35-1.8-3.1-3.45l5.05-4.85q13.05-.1 7.3 6.2 10.7.3 13.1-10.55 5.6.5 10.15-1.15 6.3 3.25 19.65-7.8 7.8-16.1-6.85-19.05 7.25 12.9-30.85 26.35l-7.9 1.6.45-.45-1.2.55-12.95 5.9q-3.65-2.45-8.5-4.6l3.95-.9 9.55-2.35q15.4-4.15 26.65-9.4 14.55-6.8 13.55-11.5-1.05-4.75-17.05-4.6l-7.8.35q-1.75-3.85 6.8-8m-70.5 48.15-2.2-2.85q1.8-2.35 4.55-4.75l18.2-1.6 4.5 6.75-25.05 2.45" fill="#16d2ee" transform="translate(-50.4 -138.45)"/><path d="m212.5 420.7 7.9-1.6q38.1-13.45 30.85-26.35 14.65 2.95 6.85 19.05-13.35 11.05-19.65 7.8 7.35-2.65 12.1-11-15.05 10.5-30.15 10.5 4.15 1.3 7.9 1.65-2.4 10.85-13.1 10.55 5.75-6.3-7.3-6.2l4.6-4.4m-63.15 18.8q-.25 2.3.5 4.55l-21.55-4.3q1.6-7.35-6.4-16.6 1.9-4.15 7.5-8.15-3.55 8.95 5.5 20.55 12.5.75 19.8-9.25h1.9l1.2-.05q-2.75 2.4-4.55 4.75-2.1 2.6-3.05 5.15-.7 1.7-.85 3.35" fill="#37f5e5" transform="translate(-50.4 -138.45)"/><path d="M190.3 422.1q4.85 2.15 8.5 4.6l4.05 3.25q1.75 1.65 3.1 3.45l-7.85 2.1-12.75 7.45-36-3.45q.15-1.65.85-3.35l7.5.55-2.25-2.85 25.05-2.45-4.5-6.75 14.3-2.55m-5.9 15.9 1.85-2.1 12.1-3.25-5.4-6.05-12.05 1.1 1.95 4.65-9.45 5.35 11 .3" fill="#33efe7" transform="translate(-50.4 -138.45)"/><path d="M161.45 397.05q-20.2 8.2-33.25 15.3-24.3 13.1-21.85 23.8 2.45 10.7 30.2 12.7t64.6-5.85l16.25-3.9q26.1-7.05 44.8-17.15 24.3-13.15 21.85-23.8-2.45-10.7-30.2-12.7-13-.95-27.9.25l2.35-2.75q14.95-1 28.1.2 29.4 2.6 32.15 14.5 2.75 11.85-22.75 26.05-25.55 14.2-64.35 22.45-38.8 8.15-68.2 5.55-29.4-2.6-32.15-14.5t22.75-26.1q14.3-7.95 32.85-14.05h4.75m57.7-3.35 7.8-.35q16-.15 17.05 4.6 1 4.7-13.55 11.5-11.25 5.25-26.65 9.4l-9.55 2.35-3.95.9-14.3 2.55-18.2 1.6-1.2.05h-1.9q-14.2-.15-15.15-4.55-1.05-4.75 13.55-11.55 3.85-1.85 8.25-3.5l.85 1.75q-3.45 1.25-6.5 2.6-13.7 6-12.9 9.85.8 3.75 15.6 3.15 14.8-.65 34.95-5.35l8.95-2.2q14.35-3.85 24.9-8.5 13.7-6 12.9-9.8-.8-3.85-15.6-3.2l-6.85.5 1.5-1.8" fill="#235d75" transform="translate(-50.4 -138.45)"/><path d="M238.45 419.6q-4.55 1.65-10.15 1.15-3.75-.35-7.9-1.65 15.1 0 30.15-10.5-4.75 8.35-12.1 11m-85.2 11.4 2.2 2.85 2.25 2.85-7.5-.55q.95-2.55 3.05-5.15" fill="#affff2" transform="translate(-50.4 -138.45)"/><path d="m184.4 438-11-.3 9.45-5.35-1.95-4.65 12.05-1.1 5.4 6.05-12.1 3.25-1.85 2.1" fill="#a7fef1" transform="translate(-50.4 -138.45)"/><path d="m198.8 426.7 12.95-5.9.75-.1-4.6 4.4-5.05 4.85-4.05-3.25" fill="#acfff2" transform="translate(-50.4 -138.45)"/></g><g id="z" fill-rule="evenodd"><path d="m16.75 216.55-14.1 8.2 2.15-3.15 21.75-32.35 16.6-6.1q-3.9 5.65-6.8 11.3-3.65 7.05-5.75 14.1l-10.8 6.25-3.05 1.75m115.3-147.3-2.35 9.9-20.05 6.95-2.5 9.5 18.5-3.4q-2.4 6.8-5.3 13.4l-23.25 3.3 8.5-25.3 26.45-14.35m1.5 48 23.15 15.45-7.7 5.6-46.85-.65L81.1 159.2l27.25 8.5-13.75 9.95q-17.7-4.85-33.95-11.8 20.2-14.5 28.65-39.15 23.8-2.6 44.25-9.45m-92.9 77.3q2-4.05 4.5-8.15 18.45-11.6 46.7 10-4.1 4.5-7.75 10.4-2.35 2.8-4.2 5.6-6.7-10.2-13.35 13.4-3.15 31.15 6.1 20.55 1.5 6 4.95 12l1.85 1.8L61.6 284.4l-21.55-24.55q-11.35-21.4-6.75-44.35 4.8 26.15 21.25 21.3l12-31.05q-3.85-22.55-25.9-11.2" fill="#666eff"/><path d="M2.65 224.75 0 226.3v-59.1q0-19.2 4.4-37.1l3.1 3.1q-6.05 41.4-2.7 88.4l-2.15 3.15" fill="#131b6a"/><path d="m157.1 1.1 2.1-1.1q2.55 14.65 2.3 30.05-.55 33.1-14 69.6l-4.75 1.2Q163.9 55.35 157.1 1.1" fill="#9a3105"/><path d="m138.95 10.5 18.15-9.4q6.8 54.25-14.35 99.75l-5.8 1.35q2.55-4.9 4.75-10.25 2.7-6.6 4.95-13.9 3.45-11.45 5.6-24.5l-17.5 14.15q5.1-26.95 4.2-57.2m-30.8 175.6q12 2.45 24.55 3.65 13.75-7.35 26.9-15.5-11.9 16.8-35.4 35l-8.3 11.95q-3.05-4.2-7.75-7.9l8.5 15q7.6 17.85-10 34.05-21.7 5.85-30.05-13.5 17.3 14.25 28.05 1.45 9.55-17.6-7.55-37.05l11.05-12.5q2.15-7.95-4.8-10.4l4.8-4.25m29.95-70.45-11.9-7.35q9.95-2.15 20-5.15l63.05 30.55-6.3 5.15q-32.8 26.25-71.8 46.4-16.75-2.45-32.4-6.5l31.95 3 22.05-14.45 6.15-4.05 4.9-3.2 25.65-16.85 11.35-7.5-49.6-25.55q-6.35 3-13.1 5.5m-31.25 150.4-19.2 48.35-10.9.05-6-5.6 14.4-.95 1.15-3.05 13.6-36.4q3.5-.55 6.95-2.4" fill="#bd540a"/><path d="m135.55 12.25 3.4-1.75q.9 30.25-4.2 57.2l-2.6 11.95-3.5 12.5q-2.05 6.45-4.45 12.75l12.75-2.7 5.8-1.35 4.75-1.2q25.1 15.15 55.45 27.15l2.65 1 .15-.05q2.35 1.35 5.5 2.5l1.15.45 4.65 1.7-4.65 3.9-.2.15-1.6 1.35-.5.35-1.9 1.8-.4.45-.3-.1-4.55 3.65q-17.75 13.95-36.85 26.2l-6.5 4.1q-13.15 8.15-26.9 15.5-12.55-1.2-24.55-3.65l-2.05-.45q-8.4-1.85-16.55-4.3l5.05-3.7 13.75-9.95L149 138.3l7.7-5.6-23.15-15.45-11.95-8-2.25-1.5 1-2.15q2.9-6.6 5.3-13.4 2.25-6.45 4.05-13.05l2.35-9.9q5.7-27.1 3.5-57m-36.8 166.5q15.65 4.05 32.4 6.5 39-20.15 71.8-46.4l6.3-5.15-63.05-30.55q-10.05 3-20 5.15l11.9 7.35 26.1 16.05-7.6 5.5-19.1 13.7-4.25 3.05-6.45 4.65-28.05 20.15M61.6 284.4l17.85-24.25 2.7 2.35-17.55 25.9-1.9-.35L51.1 286l-3.65-5.25 14.15 3.65" fill="#9a3104"/><path d="M4.4 130.1q3.65-15.1 10.5-29.35Q25 79.7 42 60.6l93.55-48.35q2.2 29.9-3.5 57L105.6 83.6l-8.5 25.3q-39.1 4.15-73.6-2.25 46.4 11.95 94.85 3.2l3.25-.6 11.95 8q-20.45 6.85-44.25 9.45-8.45 24.65-28.65 39.15l-2.55-1.1Q34.6 154.4 14 139.65q19.65 16.65 41.55 27.9 16.35 8.4 34 13.8 8.15 2.45 16.55 4.3-7.7 3.6-14.25 10.75-28.25-21.6-46.7-10-2.5 4.1-4.5 8.15-5.3 10.65-7.35 20.95-4.6 22.95 6.75 44.35L61.6 284.4l-14.15-3.65q-12.1-18.15-19.9-39.6-4.6-12.6-7.75-26.35l10.8-6.25q2.1-7.05 5.75-14.1 2.9-5.65 6.8-11.3l-16.6 6.1L4.8 221.6q-3.35-47 2.7-88.4l-3.1-3.1" fill="#2524a4"/><path d="m132.15 79.65 2.6-11.95 17.5-14.15q-2.15 13.05-5.6 24.5l-14.5 1.6m4.8 22.55-12.75 2.7q2.4-6.3 4.45-12.75l13.05-.2q-2.2 5.35-4.75 10.25m1.15 13.45q6.75-2.5 13.1-5.5l49.6 25.55-11.35 7.5-32.85-6 7.6-5.5-26.1-16.05m25.7 44.4-4.9 3.2-25.65-9.3 4.25-3.05 26.3 9.15m-11.05 7.25-22.05 14.45-31.95-3 28.05-20.15 25.95 8.7m-77.2 76.6q9.25 10.4 20.05-2.6 7.35-14.35-7.5-25.05l9-13-4-2.5q4.55-5.15 10.25-10.4 6.95 2.45 4.8 10.4l-11.05 12.5q17.1 19.45 7.55 37.05-10.75 12.8-28.05-1.45-.7-2.45-1.05-4.95m24.35 24.55-13.6 36.4-8.2-23.5 5.95-17.4q8.05 5.65 15.85 4.5M85.15 307.9l-14.4.95Q59.9 298.2 51.1 286l11.6 2.05 22.45 19.85" fill="#f3aa32"/><path d="m132.15 79.65 14.5-1.6q-2.25 7.3-4.95 13.9l-13.05.2 3.5-12.5m57.3 63.55-25.65 16.85-26.3-9.15 19.1-13.7 32.85 6m-30.55 20.05-6.15 4.05-25.95-8.7 6.45-4.65 25.65 9.3m-65.8 37.5 4 2.5-9 13q14.85 10.7 7.5 25.05-10.8 13-20.05 2.6-2.8-20.2 17.55-43.15m-6.8 104.1-1.15 3.05-22.45-19.85 1.9.35 17.55-25.9 1.9 1.45-5.95 17.4 8.2 23.5" fill="#fff45b"/><path d="m120.35 105.6-1 2.15-1 2.1q-48.45 8.75-94.85-3.2 34.5 6.4 73.6 2.25l23.25-3.3M94.6 177.65l-5.05 3.7q-17.65-5.4-34-13.8-21.9-11.25-41.55-27.9 20.6 14.75 44.1 25.1l2.55 1.1q16.25 6.95 33.95 11.8" fill="#121b6b"/><path d="M129.7 79.15q-1.8 6.6-4.05 13.05l-18.5 3.4 2.5-9.5 20.05-6.95M149 138.3l-40.65 29.4-27.25-8.5 21.05-21.55 46.85.65M40.65 194.55q22.05-11.35 25.9 11.2l-12 31.05q-16.45 4.85-21.25-21.3 2.05-10.3 7.35-20.95m32 51.8q-9.25 10.6-6.1-20.55 6.65-23.6 13.35-13.4-11.55 17-7.25 33.95" fill="#92a5ff"/><path d="M79.2 316.6h-.3q2.5 6.75-6.55.25-18.75-18.5-31.35-37.8l6.45 1.7L51.1 286q8.8 12.2 19.65 22.85l6 5.6 2.45 2.15" fill="#46100c"/><path d="m166.1 170.15-1.8 3.9-2.3 3.8q-2.3 3.55-5.5 7.25-10.1 11.65-28.85 24.65L117.4 223.5l-1.5-2.3 8.3-11.95q23.5-18.2 35.4-35l6.5-4.1" fill="#852a13"/><path d="m117.4 223.5.1.1q8.65 14.6-1.35 34.75-3.3 3.7-6.7 6.05l-2.6 1.65q-3.45 1.85-6.95 2.4-7.8 1.15-15.85-4.5l-1.9-1.45-2.7-2.35-1.85-1.8q-3.45-6-4.95-12-4.3-16.95 7.25-33.95 1.85-2.8 4.2-5.6 3.65-5.9 7.75-10.4 6.55-7.15 14.25-10.75l2.05.45-4.8 4.25q-5.7 5.25-10.25 10.4-20.35 22.95-17.55 43.15.35 2.5 1.05 4.95 8.35 19.35 30.05 13.5 17.6-16.2 10-34.05l-8.5-15q4.7 3.7 7.75 7.9l1.5 2.3" fill="#9c3408"/><path d="M41 279.05q-9.7-14.85-15.7-30.15-6.25-15.95-8.55-32.35l3.05-1.75q3.15 13.75 7.75 26.35 7.8 21.45 19.9 39.6l-6.45-1.7" fill="#171b67"/><path d="m109.45 264.4-17.8 52.05-10.4 1.9-2.05-1.75-2.45-2.15 10.9-.05 19.2-48.35 2.6-1.65" fill="#942f09"/></g><g id="A" fill-rule="evenodd"><path d="M236.65 246.8q-3.25-4.85 3.25-9.65-8.35-2.4 0-14.05-26.65-17.8-9-65.1-14.3 12.85-18.55 0-13.45 44.45-67.6 36.05-.25 36.95-29.55 52.6 50.65-13.95 89.85 37.5l5.8 8.05q-2.45-10.65 2.2-25.35l11.85 6.95 7.45 4.4q-7.7-17.45.7-25.35 2.3-2.2 5.85-3.65-1.45-1.2-2.25-2.4m-25.3-103.25q1.4 21.45 30.05 4.5-26.6 64.75 11 73.1l-10.5 10.5 12 7q-18.9 2.3-5.5 13.55-26.75.9-9 32.05l-25.05-11.55 5 37.1-45.55-45.6q-33.5-21.75-77.1-8 30.4-25.45 47.55-77.6 7.75 15.45 31.55 6 27-6.65 35.55-41.05" fill="#5c4566"/><path d="M205.05 284.15q-39.2-51.45-89.85-37.5 29.3-15.65 29.55-52.6 54.15 8.4 67.6-36.05 4.25 12.85 18.55 0-17.65 47.3 9 65.1-8.35 11.65 0 14.05-6.5 4.8-3.25 9.65l-8.8-2.15 5.2 8.2q-8.4 7.9-.7 25.35l-7.45-4.4q-7.55-6.3-7.55-22.1-11.55 14.2-12.3 32.45" fill="#886696"/><path d="M236.65 246.8q.8 1.2 2.25 2.4-3.55 1.45-5.85 3.65l-5.2-8.2 8.8 2.15m-11.75 27-11.85-6.95q-4.65 14.7-2.2 25.35l-5.8-8.05q.75-18.25 12.3-32.45 0 15.8 7.55 22.1" fill="#b2a8e8"/><path d="M58.9 384.8q6.25-13 13.75-25.7l23.55 9.75 26-46.05-12.45-16.15 2.25-2.7 3.5-4.1 59.05 10.5-26.7 67.45-10.65 4.05q-3.8 2.5-6.7 5.15-12.8 11.65-9.45 27l-10.3 1.65 2.45-17.75q-23.05-1-38.05-5.6-9.85-3-16.25-7.5" fill="#5e1c31"/><path d="M72.65 359.1q-7.5 12.7-13.75 25.7-4.7 9.85-8.7 19.85l-1.25 3.2-4.1-3.05q21.7-52.3 64.35-106.1l6.3 1.15-3.5 4.1-2.25 2.7Q88.4 332.2 72.65 359.1m107.1-47.85 5.55 1-23.9 59.15-3.1 2.35-3.3 1.3 24.75-63.8" fill="#46100c"/><path d="M121.05 414q-3.35-15.35 9.45-27 2.9-2.65 6.7-5.15l10.65-4.05 7.15-2.75 3.3-1.3 3.1-2.35q24.7-19.05 41.4-50.65 13.5 55.2-27.05 101.65-7.25 12.6-17.45 15.65l-5.55.95-7.95-.75q-7.25-1.7-15.6-6.8-4.65-6.75-6.85-12.95-.85-2.3-1.3-4.5m26.55-20.05q1.8-3.9 5.15-8.6 24.4-13.6 27.55 7.5v12.55q25.2-25.45 22-74.6-16.9 30.25-44 46.85l-.35.2-18.75 7.5q-4.35 4.7-7.25 9.1-11.05 16.5-1.5 28.5 3.2 4 8.75 7.5 33.75 6.35 38.05-28.55-1.9-24.35-15-15.05-7.2 3.4-10.55 7.4-6.3 7.5 1.05 17.15-11.1-4.45-5.15-17.45" fill="#9a3104"/><path d="M58.9 384.8q6.4 4.5 16.25 7.5l-4.45 20.1q-10.3-2.85-20.5-7.75 4-10 8.7-19.85m50.85-78.15 12.45 16.15-26 46.05-23.55-9.75q15.75-26.9 37.1-52.45" fill="#ff859a"/><path d="m147.85 377.8 26.7-67.45 5.2.9-24.75 63.8-7.15 2.75" fill="#4e4563"/><path d="M131.95 394.45q2.9-4.4 7.25-9.1l18.75-7.5.35-.2q27.1-16.6 44-46.85 3.2 49.15-22 74.6v-12.55q-3.15-21.1-27.55-7.5-3.35 4.7-5.15 8.6l-15.65.5m19.75-.2q3.35-4 10.55-7.4 13.1-9.3 15 15.05-4.3 34.9-38.05 28.55-5.55-3.5-8.75-7.5 43.2 14.95 39.35-28.7h-18.1" fill="#bd540a"/><path d="m110.75 415.65 10.3-1.65q.45 2.2 1.3 4.5l-12.2 1.3q-13.3 1-24.6-.05l-6.95-.9-8.9-1.85q-11.8-3.15-20.75-9.15l1.25-3.2q10.2 4.9 20.5 7.75 19.8 5.45 40.05 3.25m-65.9-10.85 4.1 3.05q-10.5 26.95-15.9 55.1 11.55 6.3 24.45 9h.15l11 1.6q33.4 2.8 75-16.6l9.1-4.5V439l5.55-.95V456q-86.75 45.85-131.35 7.4 5.6-29.1 17.9-58.6" fill="#12141d"/><path d="M122.35 418.5q2.2 6.2 6.85 12.95 8.35 5.1 15.6 6.8l-1.15 18.7q-41.6 19.4-75 16.6l-11-1.6q5.95.3 11.3 0l9.2-1.15q17.1-3.2 26.85-14.3l5.15-36.7 12.2-1.3" fill="#1a2028"/><path d="m131.95 394.45 15.65-.5q-5.95 13 5.15 17.45-7.35-9.65-1.05-17.15h18.1q3.85 43.65-39.35 28.7-9.55-12 1.5-28.5" fill="#f3aa32"/><path d="M110.15 419.8 105 456.5q-9.75 11.1-26.85 14.3l7.4-51.05q11.3 1.05 24.6.05m-41.2 52.15q-5.35.3-11.3 0h-.15L69.7 417l8.9 1.85-9.65 53.1" fill="#474850"/><path d="m78.15 470.8-9.2 1.15 9.65-53.1 6.95.9-7.4 51.05m-29.2-62.95q8.95 6 20.75 9.15l-12.2 54.95q-12.9-2.7-24.45-9 5.4-28.15 15.9-55.1" fill="#81869c"/><path d="m144.8 438.25 7.95.75v13.45l-9.1 4.5 1.15-18.7" fill="#4e4664"/><path d="M75.15 392.3q15 4.6 38.05 5.6l-2.45 17.75q-20.25 2.2-40.05-3.25l4.45-20.1" fill="#a44037"/><path d="m182.3 52.35-2.5 1.05q-3 6.45-4.15 12-.45 2.1-.65 4.1-.5 5.55 1 10.05.7 2.05 1.8 3.9h15.55q1.65-2.55 2.05-4.85 1.05-6.05-6.6-10.2 7.4-1.7 10.3 1.55 3.8 4.25-.25 17-15.4 1-23.05-1L171.3 89l-23.05 15.45-10.5-8.5-23.6 16.7-5.45 3.85V131l11.1 20.95 3.45 3.1 1.7-1.2 12.95-9.55 54.95-40.35q12.5 1.3 21.5-6 5.1-15.3 0-42.55-12.3-10.85-32.05-3.05M167 88l5-3.45q-1.35-.7-2.2-1.6-.3-4.65.1-9.3 1-12.6 6.9-25.25l6.75-1.9q17.55-4.05 32.3 1.9l2.05 6.6 1.5 6.15q3.4 15.9 1.95 31.8-5.8 14.7-19 16.5l-5-1.25-5-1.25.9 37-17.15 16.35 21.1-15.5-3.35 30.25-56.6 43.55-22.75-14.15-5.55-3.45-2.25-1.4-4.1-29.05-5.4-3.5-4.3-29.85-5.25-4.2-5.5-35.55 5.8-5.05.7 4.5-1.5 2.05 2.8 14.3 2.75 14.25 21 18.9-7.55-14.4v-16.95l-12.45-7.1-2.55-5.55 3.6-3.15q1.5 2.8 3.45 5.2l11 7 29.05-20 8.6 7.35 1.9 1.65L167 88m17.85 88.55 5-4 2.85-20.35-4.2 3-54.15 38.75-2.1 6.65 6.25 12.7 17.55-13.85 7.05-5.6 2.25-1.85 12.75-10.1 6.75-5.35M161.8 164.6l25.5-21.1v-24.55l-33.05 23.3-5.65 4-5.45 3.85-20.35 14.35v7.1l9.1 14.8 2 1.4 2.5-2.05 15.45-12.8 5.65-4.7 4.3-3.6m-53.95-8.6-9.15-6.5 3.5 16.05 15.85 11.1 8.25 5.8-5.1-10.9v-6L107.85 156m8.75 27.8-10.4-7.25 5 21 18.1 12.7 6.95 4.85-7.2-15.5.05-7.1-12.5-8.7" fill="#9a3104"/><path d="M185 52.7q-1.8 7.4-2.5 12.9l-6.85-.2q1.15-5.55 4.15-12l2.5-1.05 2.7.35m-2.95 17.85q-.2 3.55.3 6l-6.35 3q-1.5-4.5-1-10.05l7.05 1.05m-67.9 42.1 23.6-16.7.45 13-20 14.55-4.05-10.85m29 37.45 2.4 6.25-17.3 13.15 8.15 16.2-2.5 2.05-2-1.4-9.1-14.8v-7.1l20.35-14.35" fill="#fff"/><path d="m175.65 65.4 6.85.2q-.4 2.7-.45 4.95L175 69.5q.2-2 .65-4.1m6.7 11.15q1.85 9.3 13.05 2.05-.4 2.3-2.05 4.85H177.8q-1.1-1.85-1.8-3.9l6.35-3m-91.2 25.85 2.55 5.55 12.45 7.1v11.45l-16.2-13.25-2.8-14.3 1.5-2.05 2.5 5.5m33.8 51.45-1.7 1.2-3.45-3.1L108.7 131v-14.5l5.45-3.85 4.05 10.85V137l6.75 16.85m12.8-57.9 10.5 8.5L171.3 89v6.45l-3.05 2.3-21 15.7-9.05-4.5-.45-13m27.6 96.05-2.25 1.85-2.9-15.65 1.9-1.15 3.25 14.95m-9.3 7.45L138.5 213.3l-6.25-12.7 2.1-6.65 16.1-9.85 5.6 15.35m-1.8-57.2 7.55 22.35-4.3 3.6-8.9-21.95 5.65-4m-26.4 130.35q8.1 6.45 16.4 9.65l-3.7 8.3q-11.95-3.05-22.25-11.15l1.9-6.8h7.65m-20-116.6 13.35 9.55v6l5.1 10.9-8.25-5.8-10.2-20.65m37.7.35 6.3 16.55-15.45 12.8-8.15-16.2 17.3-13.15m-34.15 132.3 1.1-4.75q11.6 7.1 25.1 10.65l-1.65 10.55q-15-4.15-24.55-16.45" fill="#fff45b"/><path d="m185 52.7-2.7-.35q19.75-7.8 32.05 3.05 5.1 27.25 0 42.55-9 7.3-21.5 6L137.9 144.3l26.35-26.85 4-19.7 3.05-2.3V89l4.5-3.05q7.65 2 23.05 1 4.05-12.75.25-17 17.3 12.55-6.25 24.5v3.5q10.15 4.7 18.5-3.5V70.4Q204.1 55.65 185 52.7m-.15 123.85-6.75 5.35-1.3-13.85-14.7 9-1.9 1.15-9.75 5.9-16.1 9.85 54.15-38.75-3.65 21.35m-8.15 106q3.65-1.25 7.4-3.1l6.8-3.85-3.85 15.35q-17.25 4.1-32.3 3.25l-5.55-.5q-19.85-2.45-35.75-14l.85-3.7 4 3.4q10.3 8.1 22.25 11.15 4.3 1.1 8.85 1.6l5.8.3q7.95.05 16.55-1.75l4.95-8.15m-65.3 6.1q9.55 12.3 24.55 16.45 12.7 3.5 29.3 1.15l3.05-8.3 18-1.5-4.65 12.25q-44.2 13.6-70.95-17l.7-3.05" fill="#bd540a"/><path d="M182.5 65.6q.7-5.5 2.5-12.9 19.1 2.95 26.35 17.7v24.05q-8.35 8.2-18.5 3.5v-3.5q23.55-11.95 6.25-24.5-2.9-3.25-10.3-1.55 7.65 4.15 6.6 10.2-11.2 7.25-13.05-2.05-.5-2.45-.3-6 .05-2.25.45-4.95m-76.35 60.9v5.5l7.55 14.4-21-18.9-2.75-14.25 16.2 13.25m31.75 17.8-12.95 9.55L118.2 137v-13.5l20-14.55 9.05 4.5 21-15.7-4 19.7-26.35 26.85m40.2 37.6L165.35 192l-3.25-14.95 14.7-9 1.3 13.85m-15 11.95-7.05 5.6-5.6-15.35 9.75-5.9 2.9 15.65m-1.3-29.25-7.55-22.35 33.05-23.3v24.55l-25.5 21.1m-13.2-18.35 8.9 21.95-5.65 4.7-6.3-16.55-2.4-6.25 5.45-3.85M157 285.2q9.7.8 19.7-2.65l-4.95 8.15q-8.6 1.8-16.55 1.75l1.8-7.25m-38.95-108.55-15.85-11.1-3.5-16.05 9.15 6.5 10.2 20.65m11.25 33.6-18.1-12.7-5-21 10.4 7.25 12.7 26.45m6.65 94.85 1.65-10.55q14.3 3.7 30.7 3.4l-3.05 8.3q-16.6 2.35-29.3-1.15" fill="#f3aa32"/><path d="m183.55 46.5-6.75 1.9q-5.9 12.65-6.9 25.25-.4 4.65-.1 9.3.85.9 2.2 1.6L167 88q2.1-8.15 2.5-14.35v-.05q1.1-18.75-13.7-20.7Q111 31.8 121.4 0q53.75.05 62.15 46.5M114.5 204.45l22.75 14.15 56.6-43.55 3.35-30.25 5.15-3.8v-31.55q13.2-1.8 19-16.5 1.45-15.9-1.95-31.8l28.5 19.8 2.8 11.75-5.4 1.65-23 18.4-8.45-2.25 38.05 13 50.45.55-45.95 27.45-35.55 8.5q-34.6 53.3-12.5 80.15-20.4 17.5-24 37.8-4.65 1.7-9.25 2.75 13.85-24.55 20.25-52.05-8.6-9.55-2-38.05-54 52.6-74 26.2l-4.85-12.35" fill="#5e1c31"/><path d="m167 88-18.25 12.45-1.9-1.65q9.2-9.05.9-21.9-17.05-22.6-37.05 0-17.95 6.8-9.55-50.55Q105.75 14.1 112.2.3l9.2-.3Q111 31.8 155.8 52.9q14.8 1.95 13.7 20.7v.05q-.4 6.2-2.5 14.35m55.3 24.75 23-18.4 5.4-1.65.45 1.9 5.95 2.5-9.75 7.4 27.05 13 30-.4 5.6 2.35-56.1 1.55-31.6-8.25M175.1 280.7q-14.8 3.15-29.35-1.1l6.75-20.05q25.65-13.4 17.75-33.45-23.25 13.7-43.5 5.9-1.55-5-4.65-8.25l-2.75-6.95q20 26.4 74-26.2-6.6 28.5 2 38.05-6.4 27.5-20.25 52.05" fill="#a44037"/><path d="M219.4 61.15 217.9 55l33.5 23.9 2.95 12.65 68.15 26.9-61.05 44.6-38.15 8.8 2.2-3.3-1.9.3q4.2-5.3 9.3-10.85l-7.4 10.55 34.45-11.05 44-33.45h-1.6l-50.45-.55-38.05-13 8.45 2.25 31.6 8.25 56.1-1.55-5.6-2.35-47.3-20-5.95-2.5-.45-1.9-2.8-11.75-28.5-19.8" fill="#46100d"/><path d="m197.2 144.8-21.1 15.5 17.15-16.35 4.1-3.95v-31.8l5 1.25V141l-5.15 3.8" fill="#97370d"/><path d="m193.25 143.95-.9-37 5 1.25V140l-4.1 3.95m-4.75 11.25 4.2-3-2.85 20.35-5 4 3.65-21.35m5.3 118.5 1.4-3.6 2.6 2.6-3.25 16.25-7.5 2 3.85-15.35 2.9-1.9m-7.5 22.75 7-1.15-2 9.95-9.65 3.45 4.65-12.25" fill="#679aa1"/><path d="M223.6 168.85q-33.35 42.1-8.75 68.8l-2 4q-19.65 17.1-23.45 34.25l-.2.05q-2.45 1.1-4.85 2 3.6-20.3 24-37.8-22.1-26.85 12.5-80.15l35.55-8.5 45.95-27.45h1.6l-44 33.45-34.45 11.05 7.4-10.55q-5.1 5.55-9.3 10.85" fill="#4e4664"/><path d="m94.75 99.25-3.6 3.15-2.5-5.5-.7-4.5Q81.1 43.05 112.2.3q-6.45 13.8-11.05 26.05-18.8 49.75-6.4 72.9M108.95 201l5.55 3.45 4.85 12.35 2.75 6.95q3.1 3.25 4.65 8.25 4.05 12.9-2.1 37.45l-2.45-1.75 1.6-4.55.95-4.1q2.3-12.35-.55-29.9-10.05-6.7-15.25-28.15m114.65-32.15 1.9-.3-2.2 3.3q-19.6 30.25-15.95 45.75 5.1 14.95 13.5 16.55l-3 11.5q-13.65 5-21.15 21l-1.5 3.45-1.4 3.6-3.1 1.55.2.35-6.8 3.85q-3.75 1.85-7.4 3.1-10 3.45-19.7 2.65l-6.7-1.1-6.05-1.85q-8.3-3.2-16.4-9.65l-3.3-2.75.25-.35q10.4 7 20.95 10.1 14.55 4.25 29.35 1.1 4.6-1.05 9.25-2.75 2.4-.9 4.85-2l.2-.05q3.8-17.15 23.45-34.25l2-4q-24.6-26.7 8.75-68.8" fill="#46100c"/><path d="m146.85 98.8-8.6-7.35-29.05 20-11-7q-1.95-2.4-3.45-5.2-12.4-23.15 6.4-72.9-8.4 57.35 9.55 50.55 20-22.6 37.05 0 8.3 12.85-.9 21.9m-1.1 180.8q-10.55-3.1-20.95-10.1l-.15-.05q6.15-24.55 2.1-37.45 20.25 7.8 43.5-5.9 7.9 20.05-17.75 33.45l-6.75 20.05M257.1 97.1l47.3 20-30 .4-27.05-13 9.75-7.4" fill="#ff859a"/><path d="m116.6 183.8 12.5 8.7-.05 7.1 7.2 15.5-6.95-4.85-12.7-26.45" fill="#fff35a"/><path d="m195.2 270.1 1.5-3.45 5.6 4.55-6 38.05q-55.7 19.95-88.6-11-2.7-15.55 5-34.6l12.05-4.6-.95 4.1-7.6 4.55-1.9 8.3-.85 3.7q15.9 11.55 35.75 14l5.55.5q15.05.85 32.3-3.25l7.5-2 3.25-16.25-2.6-2.6m-57.6 24.45q-13.5-3.55-25.1-10.65l-1.1 4.75-.7 3.05q26.75 30.6 70.95 17l9.65-3.45 2-9.95-7 1.15-18 1.5q-16.4.3-30.7-3.4" fill="#702002"/><path d="m124.55 269.85 3.3 2.75h-7.65l-1.9 6.8-4-3.4 1.9-8.3 7.6-4.55-1.6 4.55 2.35 2.15" fill="#f3ab33"/><path d="m144.25 282.25 6.05 1.85-.9 8.05q-4.55-.5-8.85-1.6l3.7-8.3" fill="#f3aa33"/><path d="m150.3 284.1 6.7 1.1-1.8 7.25-5.8-.3.9-8.05" fill="#fce452"/><path d="M83.15 347.85q-14.65 10.55-32.75 5.2-8.7-18.35 0-28.85-9.85 3.25-14.25 8.05 8.15 14.9 2.9 23.95L69 369.35q-.15-3.15 1.1-6.05l51.55 17.1 21.75-5.3h12.35q-1.2-2.8-3.15-5.6l9.3-4.55q19.25 4.4 8.35 10.65 15.6 4.2 23.4-9.2 8 2.65 15.4 2.1 7.95 6.45 31.95-3.4 17.85-18.3-2.55-27.3 5.55 19.4-55.75 23.65l-12.3-.65.9-.4-2 .3h-.05l-21.35 3.15q-4.4-4.5-10.65-9l6.05.2 15.05.3q24.3-.05 42.9-2.95 24.1-3.8 24.45-10.3.4-6.55-23.2-12-10.95-2.5-24-4.05l4.2-9.15q35.2 3.85 62.5 12.25 40.05 12.35 39.4 27.2-.6 14.85-41.55 23.55-31.5 6.65-72.7 6.7-12.3-.05-25.45-.65-57.3-2.6-97.35-14.95-40.1-12.35-39.45-27.2.6-14.85 41.55-23.5 22.45-4.75 49.8-6.15l-8.7 11.55-3.55.55q-24.2 3.8-24.55 10.35-.35 6.1 20.5 11.25m-4 5.65q3.65-2.4 8.6-4.6 12.3 2.7 27.35 4.3l4 10.35L81.3 358l-2.15-4.5" fill="#16d2ee"/><path d="M70.1 363.3q-1.25 2.9-1.1 6.05L39.05 356.2q5.25-9.05-2.9-23.95 4.4-4.8 14.25-8.05-8.7 10.5 0 28.85 18.1 5.35 32.75-5.2l2.8.65 1.8.4q-4.95 2.2-8.6 4.6-4.1 2.65-6.5 5.65-1.7 2-2.55 4.15m100.3-2.5 12.3.65q61.3-4.25 55.75-23.65 20.4 9 2.55 27.3-24 9.85-31.95 3.4 11.9-.95 22.15-10.2-26.3 8.5-48.5 3.15 5.6 3.2 10.95 4.95-7.8 13.4-23.4 9.2 10.9-6.25-8.35-10.65l8.5-4.15" fill="#37f5e5"/><path d="M70.1 363.3q.85-2.15 2.55-4.15l10.8 3.35-2.15-4.5 37.8 5.55-4-10.35 22.15 1.65q6.25 4.5 10.65 9 2.7 2.8 4.7 5.65 1.95 2.8 3.15 5.6H143.4l-21.75 5.3-51.55-17.1m52.15 10.25 3.6-2.1h19.05l-5.55-9.8-18.2-2.8 1.1 6.8-16.05 3.7 16.05 4.2" fill="#33efe7"/><path d="m87.75 348.9-1.8-.4-2.8-.65q-20.85-5.15-20.5-11.25.35-6.55 24.55-10.35l3.55-.55-2.15 2.9q-20.5 3-20.8 8-.35 5.25 21.7 9.6t53.55 5.3l14 .2q22.65 0 40-2.35 22.5-3.05 22.85-8.3.35-5.3-21.65-9.65-9.5-1.9-20.75-3.1l1-2.25q13.05 1.55 24 4.05 23.6 5.45 23.2 12-.35 6.5-24.45 10.3-18.6 2.9-42.9 2.95l-15.05-.3-6.05-.2-22.15-1.65q-15.05-1.6-27.35-4.3m11.7-34.75q-27.35 1.4-49.8 6.15Q8.7 328.95 8.1 343.8q-.65 14.85 39.45 27.2 40.05 12.35 97.35 14.95 13.15.6 25.45.65 41.2-.05 72.7-6.7 40.95-8.7 41.55-23.55.65-14.85-39.4-27.2-27.3-8.4-62.5-12.25l1.55-3.5q36.95 4.35 65.6 13.65 42.25 13.75 41.6 30.25-.65 16.5-43.8 26.15-43.2 9.6-103.5 6.75-60.35-2.9-102.6-16.6Q-.7 359.85 0 343.35q.6-16.55 43.8-26.15 26.15-5.9 58.7-7.1l-3.05 4.05" fill="#235d75"/><path d="M72.65 359.15q2.4-3 6.5-5.65l2.15 4.5 2.15 4.5-10.8-3.35m136.4 9.35q-7.4.55-15.4-2.1-5.35-1.75-10.95-4.95 22.2 5.35 48.5-3.15-10.25 9.25-22.15 10.2" fill="#affff2"/><path d="m122.25 373.55-16.05-4.2 16.05-3.7-1.1-6.8 18.2 2.8 5.55 9.8h-19.05l-3.6 2.1" fill="#a7fef1"/><path d="m147.9 363.85 21.35-3.15h.05l1.1.1-8.5 4.15-9.3 4.55q-2-2.85-4.7-5.65" fill="#acfff2"/></g><g id="B" fill-rule="evenodd"><path d="m29.2 139.55-9.6.6-6.5 12 1.75-.75 2.65-.9q22.6-4.3 46.7 13.7l32.5-23.55q-1.95-15.45 25.35-57.05 4.25-6.5 9.25-13.65 6.4-30.85 23.5-47.45 29.2-20.2 42.75 5 10.95 35.2 0 79.75l-3.85-1.5 6.15-26.2q1.65-56.05-21.55-60.6-33.3 1.1-44.05 51.6l-4.35 8-3.6 6.75-3.9 7.4q-20.65 40.2-20.7 54.95-13.4 5.05-24.1 13.7l-3.55 3Q67.9 169.9 62.7 176.7l-4-3q-15.9 39.1-15.6 78.15l66.65 31q-29.9-38.95 5.5-97.6l2.1.5q-4.1 8.1-7.25 15.65-2.9 6.95-4.95 13.45-5.7 17.9-5 32.1 1.1 21.8 17.2 34.9 24.95 14.1 51.5-7.55 9.95-9.75 16.5-20.35 23.05-37.4 3.45-85.25l1.95-1.45q10.75 16.3 13.65 40.5-.35 6.6-1.2 12.75-.8 5.85-2 11.3l-1.2 4.85q-13 47.95-62.2 61.75-49-16.05-94.65-42.05-17.25 2.9-30.55-6.05-25.15-33.85 0-89.15-6.75-2.55 0-20.5 2.5-4.65 8.6-6.1 2.75-.7 6.25-.75h1.45q11.35.3 29.8 6.85l12.45-8.05q-.5-7 10.3-24.1 5-7.95 12.45-18.05v-.05q7.9-10.75 18.55-23.95l8.85-10.85q1.45-5.25 3.2-10.05 2.15-6.1 4.75-11.45 1.6-3.3 3.4-6.3l.3-.5q11.5-19.5 29.35-25.9 40.55-9.1 53.05 40.05 5.5 38.3-4.6 69.65l-4.15-.95q5.7-13.25 5.3-35.6Q210.1 2 170.35 7.95q-10.2 1.5-18.05 6-20.3 11.6-25 43.1l-39.1 52.4-6.5 8.65-1.25 10.6-.75 5.95-19 11.5q-8.85-3.45-17.15-5.1l-6-.95-8.35-.55m-20.15 89.1 2.05 7.6q4.95 13 25.05 16.05.6-42.05 21-81.1-18.25-18.15-36.55-18.55l-2.35 4.1q-5.65 10.2-8.7 20.95l-.95 3.65Q5.05 196 6.35 211.6q.65 8.4 2.7 17.05M167.3 180.8q10.35-2.65 19.55 9.4 12.95 33.55-16.5 67.1-25.4 20.4-37.55 0-12-47.3 27.1-73.75l3.1-1.05 4.3-1.7m-3.95 25.95q.3-8.35-.75-18.05L158 191q-8.3 5.95-13.7 13.1l-1.35 1.85q-13.65 19.6-6.5 47.7 9.1-4 15.15-11.05l1.95-2.55 2.7-4.2 1.65-3.3.2-.45q4.7-10.6 5.25-25.35m.25-18.55q13.55 46.05-24.4 69.3 10.5 11.7 29.85-3.8 25.55-29.15 14.3-58.3-9.25-12.05-19.75-7.2" fill="#9a3104"/><path d="m14.85 151.4-1.75.75 6.5-12 9.6-.6-2.4 8.9q-4.65.55-9.3 2.05l-.9.15-1.75.75M152.3 13.95q7.85-4.5 18.05-6Q210.1 2 211.9 74.55q.4 22.35-5.3 35.6-4.45-1.2-9.05-2.9 10.95-44.55 0-79.75-13.55-25.2-42.75-5-17.1 16.6-23.5 47.45-5 7.15-9.25 13.65-23.6 17.05-28.3 53.05l-3.3-3.05-3.25-3 .6-1.85q2.6-8.3 6-15.35 8.35-17.45 21.45-27.35l16-26.55q5.15-27.25 21.05-45.55m-34.95 267.9q-16.1-13.1-17.2-34.9 10.25 8 18.6.75l1.5 3.6 5.45-2.1q2.5 18.7 16.55 24.65 8.4 9.2-24.9 8m-12.2-67q2.05-6.5 4.95-13.45 8.9-4 15.65 5.65-4.3 6.05-6.65 12.1l-13.95-4.3m-86.9-58.1 26.4 14.45v12.5q-16 30.2-15.55 57.1L9.05 228.65Q7 220 6.35 211.6q7.45 15.55 20.25 4.15l11.05-40.05q-8.7-14.95-21.8-4.25-3.05 2.45-6.3 6.25 3.05-10.75 8.7-20.95m47.3 38.1q-2.6-.25-5.3-.05l2.4-5.1q20.5-7.15 39.1 9.05-11.8 30.8-11.55 63.1-20 .2-40.05-14.55.05-13.4 2.05-25.3 7.85 20.45 25 9.8l7-28.55q-6.7-6.55-15.9-8.05l-2.1-.4-.65.05m57.5 59.4q-1.35 0-2.35 1.4-.95 1.4-.95 3.4t.95 3.4q1 1.4 2.35 1.4t2.3-1.4q1-1.4 1-3.4t-1-3.4q-.95-1.4-2.3-1.4m-35-35.5Q86.8 217.5 85 217.5q-1.8 0-3.05 1.25-1.25 1.25-1.25 3.05 0 1.8 1.25 3.05 1.25 1.25 3.05 1.25 1.8 0 3.05-1.25 1.25-1.25 1.25-3.05 0-1.8-1.25-3.05" fill="#f3aa32"/><path d="M185.35 253.95q-6.55 10.6-16.5 20.35-26.55 21.65-51.5 7.55 33.3 1.2 24.9-8-14.05-5.95-16.55-24.65-2-14.6 3.05-36.95-1.45-2.95-3-5.2-6.75-9.65-15.65-5.65 3.15-7.55 7.25-15.65 21.5 4.6 42.55-2.2-39.1 26.45-27.1 73.75 12.15 20.4 37.55 0 29.45-33.55 16.5-67.1-9.2-12.05-19.55-9.4 8-3.4 16-8.4 21.1 22.6 2.05 81.55m-70.1-68.7q-35.4 58.65-5.5 97.6l-66.65-31q-.3-39.05 15.6-78.15l4 3q5.2-6.8 11.35-12.35 24 2.75 41.2 20.9m6.8-101.65q-27.3 41.6-25.35 57.05L64.2 164.2q-24.1-18-46.7-13.7 4.65-1.5 9.3-2.05l7.4-.25q15.05.65 30.5 11l26.85-20.8 2.2-1.75q4.7-36 28.3-53.05m-103.8 73.15 2.35-4.1q18.3.4 36.55 18.55-20.4 39.05-21 81.1-20.1-3.05-25.05-16.05l-2.05-7.6L29.1 240.8q-.45-26.9 15.55-57.1v-12.5l-26.4-14.45m42 38.05Q54.7 207.25 52.2 222q-2 11.9-2.05 25.3 20.05 14.75 40.05 14.55-.25-32.3 11.55-63.1-18.6-16.2-39.1-9.05l-2.4 5.1m103.35-6.6q10.5-4.85 19.75 7.2 11.25 29.15-14.3 58.3-19.35 15.5-29.85 3.8 37.95-23.25 24.4-69.3" fill="#bd540a"/><path d="m80.45 128.7 1.25-10.6 6.5-8.65 5.6 3.95q-3.4 7.05-6 15.35l-7.35-.05M8.6 181.35l.95-3.65q3.25-3.8 6.3-6.25 8.85 8.6-.05 17.25-7.6 1.3-7.2-7.35m59.7 13.85q1.15.4 2.1 1.35 1.75 1.75 1.75 4.2t-1.75 4.2q-1.75 1.75-4.2 1.75t-4.2-1.75q-1.75-1.75-1.75-4.2t1.75-4.2q1.5-1.5 3.55-1.7l2.75.35m57.45 11.85q1.55 2.25 3 5.2-5.05 22.35-3.05 36.95l-5.45 2.1-1.5-3.6q-5.25-14.3.35-28.55 2.35-6.05 6.65-12.1m-2.7 47.2q1.35 0 2.3 1.4 1 1.4 1 3.4t-1 3.4q-.95 1.4-2.3 1.4-1.35 0-2.35-1.4-.95-1.4-.95-3.4t.95-3.4q1-1.4 2.35-1.4" fill="#fff"/><path d="m60.7 146.15 19-11.5.75-5.95 7.35.05-.6 1.85 3.25 3-15 11.65-16.3 6.9 1.55-6m27.5-36.7 39.1-52.4q4.7-31.5 25-43.1-15.9 18.3-21.05 45.55l-16 26.55q-13.1 9.9-21.45 27.35l-5.6-3.95m11.95 137.5q-.7-14.2 5-32.1l13.95 4.3q-5.6 14.25-.35 28.55-8.35 7.25-18.6-.75M6.35 211.6Q5.05 196 8.6 181.35q-.4 8.65 7.2 7.35 8.9-8.65.05-17.25 13.1-10.7 21.8 4.25L26.6 215.75q-12.8 11.4-20.25-4.15m59.2-16.75q-2.05.2-3.55 1.7-1.75 1.75-1.75 4.2t1.75 4.2q1.75 1.75 4.2 1.75t4.2-1.75q1.75-1.75 1.75-4.2t-1.75-4.2q-.95-.95-2.1-1.35 9.2 1.5 15.9 8.05l-7 28.55q-17.15 10.65-25-9.8 2.5-14.75 8.05-27.2 2.7-.2 5.3.05m22.5 23.9q1.25 1.25 1.25 3.05 0 1.8-1.25 3.05-1.25 1.25-3.05 1.25-1.8 0-3.05-1.25-1.25-1.25-1.25-3.05 0-1.8 1.25-3.05 1.25-1.25 3.05-1.25 1.8 0 3.05 1.25" fill="#fff45b"/><path d="m206.6 110.15 4.15.95q18.9 3.9 33.7-3 32.95-6.15 22.5 50.55-25.3 68.35-66.95 78l1.2-4.85q36.2-16.45 58.75-72.1 7.35-31.3 1.3-40.85-4.3-6.85-15.35-2.7-16.7 2.85-48.05 45.55l-7.1 5.55-1.95 1.45-5.5 3.7q-8 5-16 8.4l-4.3 1.7-3.1 1.05q-21.05 6.8-42.55 2.2l-2.1-.5q-17.2-18.15-41.2-20.9l3.55-3q9.1.8 17.1 3.9 13.65 5.2 24.05 16.95 40.75 5.55 77.6-26.55l28.05-36.05-5.55-1q-21.65-4.3-41.1-14.15l-.3-.15-7.95-4.45q-22.5-18-43.2-14.55l3.6-6.75q24.95-5.2 49.95 20.5 7.15 3.9 13.85 6.7l3.85 1.5q4.6 1.7 9.05 2.9M132.65 27.8q-1.8 3-3.4 6.3L67.7 65q-1.6 5.45-3.85 10.6-8.9 20.15-28 36.05l-5.7 4.45-2.7 17.7q-3.5.05-6.25.75 5.5-9.15 1.9-21.95 28.8-18.75 41.6-57.1l67.95-27.7" fill="#121b6b"/><path d="M124.5 45.55q-1.75 4.8-3.2 10.05l-8.85 10.85-48.6 9.15Q66.1 70.45 67.7 65l56.8-19.45m-30.6 44.9q-7.45 10.1-12.45 18.05L61.7 133.8H27.45l2.7-17.7 5.7-4.45q23.45 8.3 58.05-21.2m124.95 28.15 5.55 1-28.05 36.05q-36.85 32.1-77.6 26.55-10.4-11.75-24.05-16.95l19.55-9.6q1.55-38.95 37.55-39.55l42.55 6.5 24.5-4m-35.5 38.05q17.8-10.4 25.05-26.05l-30.05-2-33.55 36.05 38.55-8m-45.6-24.05q-19.1 20.35-5 29.05 22.6-3.85 37.55-34.55l-32.55 5.5" fill="#666eff"/><path d="M129.25 34.1q-2.6 5.35-4.75 11.45L67.7 65l61.55-30.9m-47.8 74.4q-10.8 17.1-10.3 24.1l-12.45 8.05q-18.45-6.55-29.8-6.85h32.8l19.75-25.3m-3.85 52.85q10.7-8.65 24.1-13.7.05-14.75 20.7-54.95 18.2-7.8 47.1 7.15l.3.25 7.65 4.2.3.15q19.45 9.85 41.1 14.15l-24.5 4-42.55-6.5q-36 .6-37.55 39.55l-19.55 9.6q-8-3.1-17.1-3.9m52.3-82.8 4.35-8q10.75-50.5 44.05-51.6 23.2 4.55 21.55 60.6l-6.15 26.2q-6.7-2.8-13.85-6.7-25-25.7-49.95-20.5" fill="#2524a4"/><path d="m122.4 92.7 3.9-7.4q20.7-3.45 43.2 14.55-28.9-14.95-47.1-7.15" fill="#555945"/><path d="M112.45 66.45Q101.8 79.65 93.9 90.4v.05q-34.6 29.5-58.05 21.2 19.1-15.9 28-36.05l48.6-9.15m70.9 90.2-38.55 8 33.55-36.05 30.05 2q-7.25 15.65-25.05 26.05m-45.6-24.05 32.55-5.5q-14.95 30.7-37.55 34.55-14.1-8.7 5-29.05" fill="#8ebeff"/><path d="m90.45 133.6 3.3 3.05-2.2 1.75-16.1 6.85 15-11.65" fill="#f2a932"/><path d="m37.55 140.1 6 .95-1.9 4.6 17.5 6.5 16.3-6.9 16.1-6.85-26.85 20.8q-15.45-10.35-30.5-11l3.35-8.1" fill="#f1a731"/><path d="m29.2 139.55 8.35.55-3.35 8.1-7.4.25 2.4-8.9" fill="#fffcce"/><path d="M43.55 141.05q8.3 1.65 17.15 5.1l-1.55 6-17.5-6.5 1.9-4.6" fill="#fffab1"/><path d="M154.7 206.9q-1.55 0-2.7 1.1-1.1 1.15-1.1 2.7 0 1.55 1.1 2.65 1.15 1.15 2.7 1.15 1.55 0 2.65-1.15 1.15-1.1 1.15-2.65 0-1.55-1.15-2.7-1.1-1.1-2.65-1.1m.4-1.95q2.3 0 3.9 1.6t1.6 3.9q0 2.3-1.6 3.9t-3.9 1.6q-2.3 0-3.9-1.6t-1.6-3.9q0-2.3 1.6-3.9t3.9-1.6m-12.15 1 1.35-1.85q5.4-7.15 13.7-13.1l4.6-2.3q1.05 9.7.75 18.05-7.55-12.4-19 4.8 1.6 6.5 9.45 10.7 5.45 6.55 4.3 9.85l-.2.45-1.65 3.3q2.6-6.35-3.95-11.6-8.1-3-9.55-10.2V214q-.7-3.5.2-8.05m3.55 32.3q1-.95 1-2.35 0-1.4-1-2.4-.95-.95-2.35-.95-1.4 0-2.4.95-.95 1-.95 2.4t.95 2.35q1 1 2.4 1t2.35-1m.6 1.4q-1.4 1.4-3.35 1.4-1.95 0-3.35-1.4-1.4-1.4-1.4-3.35 0-1.95 1.4-3.35 1.4-1.4 3.35-1.4 1.95 0 3.35 1.4 1.4 1.4 1.4 3.35 0 1.95-1.4 3.35" fill="#262626"/><path d="M154.7 206.9q1.55 0 2.65 1.1 1.15 1.15 1.15 2.7 0 1.55-1.15 2.65-1.1 1.15-2.65 1.15-1.55 0-2.7-1.15-1.1-1.1-1.1-2.65 0-1.55 1.1-2.7 1.15-1.1 2.7-1.1m-11.95 7.15q1.45 7.2 9.55 10.2 6.55 5.25 3.95 11.6l-2.7 4.2-1.95 2.55q-13.05 7.9-12.95-6.25.05-7.8 4.1-22.3m4.35 25.6q1.4-1.4 1.4-3.35 0-1.95-1.4-3.35-1.4-1.4-3.35-1.4-1.95 0-3.35 1.4-1.4 1.4-1.4 3.35 0 1.95 1.4 3.35 1.4 1.4 3.35 1.4 1.95 0 3.35-1.4" fill="#cdcdcd"/><path d="M155.1 204.95q-2.3 0-3.9 1.6t-1.6 3.9q0 2.3 1.6 3.9t3.9 1.6q2.3 0 3.9-1.6t1.6-3.9q0-2.3-1.6-3.9t-3.9-1.6m3 27.15q1.15-3.3-4.3-9.85-7.85-4.2-9.45-10.7 11.45-17.2 19-4.8-.55 14.75-5.25 25.35m-11.6 6.15q-.95 1-2.35 1-1.4 0-2.4-1-.95-.95-.95-2.35 0-1.4.95-2.4 1-.95 2.4-.95t2.35.95q1 1 1 2.4t-1 2.35" fill="#4a4a4a"/><path d="M142.95 205.95q-.9 4.55-.2 8.05v.05q-4.05 14.5-4.1 22.3-.1 14.15 12.95 6.25-6.05 7.05-15.15 11.05-7.15-28.1 6.5-47.7" fill="#6a6a6a"/><path d="M203.2 220.5q.85-6.15 1.2-12.75-2.9-24.2-13.65-40.5l7.1-5.55q31.35-42.7 48.05-45.55 11.05-4.15 15.35 2.7-4.8 83.05-58.05 101.65" fill="#1c1b7b"/><path d="M201.2 231.8q1.2-5.45 2-11.3 53.25-18.6 58.05-101.65 6.05 9.55-1.3 40.85-22.55 55.65-58.75 72.1" fill="#555944"/><path d="M188.8 168.7q19.6 47.85-3.45 85.25Q204.4 195 183.3 172.4l5.5-3.7" fill="#679aa1"/></g><use ffdec:characterId="2" height="280.95" width="161.2" xlink:href="#q" id="c"/><use ffdec:characterId="4" height="321.95" width="234.55" xlink:href="#r" id="d"/><use ffdec:characterId="6" height="718.25" transform="translate(18.6 136.25)" width="712.6" xlink:href="#s" id="e"/><use ffdec:characterId="12" height="48.1" width="87.6" xlink:href="#t" id="o"/><use ffdec:characterId="14" height="56.6" width="75.8" xlink:href="#u" id="p"/><use ffdec:characterId="20" height="213.7" width="112.15" xlink:href="#v" id="g"/><use ffdec:characterId="22" height="342" width="463.05" xlink:href="#w" id="h"/><use ffdec:characterId="24" height="632.95" width="704" xlink:href="#x" id="i"/><use ffdec:characterId="30" height="397.95" width="238.4" xlink:href="#y" id="j"/><use ffdec:characterId="32" height="320.05" width="217.05" xlink:href="#z" id="k"/><use ffdec:characterId="34" height="480.95" width="322.5" xlink:href="#A" id="l"/><use ffdec:characterId="36" height="298.4" width="269.45" xlink:href="#B" id="m"/><path d="M27.75 0q0 2-8.15 3.4Q11.5 4.9 0 4.9q-11.5 0-19.65-1.5-8.1-1.4-8.1-3.4 0-2.05 8.1-3.5Q-11.5-4.9 0-4.9q11.5 0 19.6 1.4 8.15 1.45 8.15 3.5" fill-opacity=".349" fill-rule="evenodd" transform="translate(27.75 4.9)" id="b"/></defs></svg>