<svg xmlns:ffdec="https://www.free-decompiler.com/flash" xmlns:xlink="http://www.w3.org/1999/xlink" ffdec:objectType="frame" height="90" width="90" xmlns="http://www.w3.org/2000/svg"><use ffdec:characterId="46" height="225.35" transform="translate(5.942 -1.805) scale(.4056)" width="208.95" xlink:href="#a"/><defs><g id="a" transform="translate(-14.65 4.45)"><use ffdec:characterId="1" height="8.1" transform="matrix(2.1265 0 0 5.1101 27.266 179.52)" width="55.95" xlink:href="#b"/><use ffdec:characterId="6" height="195.3" transform="translate(22.889 58) scale(.6946)" width="286.25" xlink:href="#c"/><use ffdec:characterId="8" height="164.6" transform="translate(18.7 17.7) scale(.6946)" width="81.3" xlink:href="#d"/><use ffdec:characterId="13" height="98.35" transform="matrix(.7135 -.0569 .0569 .7135 58.618 2.795)" width="106.9" xlink:href="#e"/><use ffdec:characterId="15" height="206.45" transform="translate(124.5 .25) scale(.6946)" width="117.95" xlink:href="#f"/><use ffdec:characterId="17" height="73.9" transform="translate(16.6 97) scale(.6946)" width="74.9" xlink:href="#g"/><use ffdec:characterId="19" height="53.8" transform="translate(53.35 67.5) scale(.6946)" width="55.8" xlink:href="#h"/><use ffdec:characterId="21" height="99.35" transform="translate(26.85 124.65) scale(.6946)" width="86.8" xlink:href="#i"/><use ffdec:characterId="25" height="69.55" transform="translate(79.35 105) scale(.6946)" width="54.55" xlink:href="#j"/><use ffdec:characterId="27" height="128.05" transform="translate(51.05 64.55) scale(.6946)" width="75.45" xlink:href="#k"/><use ffdec:characterId="29" height="68.7" transform="translate(90.5 57.05) scale(.6946)" width="86.6" xlink:href="#l"/><use ffdec:characterId="33" height="109.9" transform="translate(61.1 2.4) scale(.6946)" width="70.4" xlink:href="#m"/><use ffdec:characterId="35" height="61.4" transform="translate(101.75 95.45) scale(.6946)" width="82.5" xlink:href="#n"/><use ffdec:characterId="38" height="66.55" transform="translate(105.5 53.7) scale(.6946)" width="66.55" xlink:href="#o"/><use ffdec:characterId="43" height="259.9" transform="matrix(.2548 .0648 0 .3139 96.95 31.76)" width="228.05" xlink:href="#p"/><use ffdec:characterId="45" height="104.55" transform="translate(91.4 142.3) scale(.6946)" width="73" xlink:href="#q"/></g><g id="z" fill-rule="evenodd"><path d="m180 78.35-6-7.65q36.15 32.1 54.55 79.5-22.8-46.4-48.55-71.85" fill="#f3b3a3"/><path d="M228.55 150.2q-18.4-47.4-54.55-79.5l6 7.65q30.6 41.2 27.45 88.05-.8 11.5-3.6 23.3 17.95-10.45 23.2-31.35.95-3.9 1.5-8.15m-24.2-4.75-.35-4.05q-3.6-35.35-28.9-64.65l-28.05-33.9L99.2 0q37.3 26.55 74.55 66.9 37.7 32.2 58.85 83.95-10.85 40.9-34.6 44.45 7.9-26.25 6.35-49.85" fill="#1136a7"/><path d="m204 141.4.35 4.05q-11.9-9.1-53.05 4.5-41.4 13.35-81.7-8.05Q9.7 132.1 0 153.55q12.95-56.5 52.05-119.9l6-4.25L42.4 57Q21 93.6 9.25 131q-1.85 5.85-3.45 11.8 12.45-5.15 27.15-6.2 17.4-1.25 38 3.25 20.3 10.65 41.8 12.1 16.15 1.05 32.95-3.1 18.15-7.8 33.05-9.55 14.05-1.65 25.25 2.1" fill="#211929"/><path d="M227.05 158.35q-5.25 20.9-23.2 31.35 2.8-11.8 3.6-23.3 9.15-11.9 8.55-32.8 7.05 9.3 11.05 24.75" fill="#27fdff"/><path d="M180 78.35q25.75 25.45 48.55 71.85-.55 4.25-1.5 8.15-4-15.45-11.05-24.75.6 20.9-8.55 32.8 3.15-46.85-27.45-88.05" fill="#2685d8"/><path d="M204 141.4q-11.2-3.75-25.25-2.1 3-21.55-8.1-40.75 20.4 16 33.35 42.85m-58.3 7.45q-16.8 4.15-32.95 3.1 2.35-22-7.7-47.1 25.65 16.65 40.65 44M32.95 136.6q-14.7 1.05-27.15 6.2 1.6-5.95 3.45-11.8l23.7 5.6" fill="#31223e"/><path d="M178.75 139.3q-14.9 1.75-33.05 9.55-15-27.35-40.65-44 10.05 25.1 7.7 47.1-21.5-1.45-41.8-12.1-20.6-4.5-38-3.25L9.25 131Q21 93.6 42.4 57l15.65-27.6L99.2 0l47.85 42.85 28.05 33.9q25.3 29.3 28.9 64.65-12.95-26.85-33.35-42.85 11.1 19.2 8.1 40.75" fill="#221a29"/></g><g id="A" fill-rule="evenodd"><path d="M71.3 21.2q-7.2 5.85-13.1 15.15 4.1 14.3 0 28.2l3.7 8.2-18.2 3.75 1.6-6q16.4-4.7 9.3-30.3 6.7-20.35 17.05-29.65-.35 5.35-.35 10.65M50.05 7.65l3.3-3.85q-9.45 16.4-14.8 37.3-4.45 5.25-5.95 9.75l-.05-3.65 1.4-1.75q1.75-4.5 1.3-8.3 2.2-6.1 4.85-11.8 4.4-9.45 9.95-17.7M31.8 56.2q.2 2.4 1.45 4.55v6.4l-8.55 1.2.6-2.25 6.5-.3v-9.6m4.7 7.8-1.8-.8v-2.8l1.8-.6V64M4.55 124l4.2-12.75 4.2-12.7L35.7 85.1l.55-1.35q6.85-17 8.65-36.05l1.25-1q-.65 24.55-9.3 42.55-8.25 1.2-18.1 7.95l-.25 1.25-4.8 3.35-8.95 40-2.45-1.05q1-8.9 2.25-16.75m.2 19.25 9.4-37.8 3-1-11.1 49.35-1.3-3.15v-7.4" fill="#e88a06"/><path d="m73.25 19.7-1.95 1.5q0-5.3.35-10.65Q61.3 19.85 54.6 40.2q7.1 25.6-9.3 30.3l-1.6 6-.55 1.8-1.95 5.4-.85 2.15-.4.9-2.2 4.65-2 .25-2.15.45q-2.2.5-4.3 1.3l-2.6 1.15Q23 96.3 19.55 99L6.1 164.6 0 144.15Q4.8 88.6 18.95 73.7l2-1.9 2.2-1.5.15-1.15q.45-3.45 1.15-6.55l2.45-.95V54.8l1.1-2.4q1.8-3.55 4.15-6.35 2.35-7.15 0-13.5Q46.55 3.2 57.5 0 46.9 15.7 39.75 42.2 36.8 44.95 35.1 48l-.95 2.05q-1.55 4.05-.9 8.55l2.1-.3q1.95-.7 2.55-2.95.55-1.9.05-4.95l9.9-7.95.05 4.95-.05 1.8q-.25 9.85-2 18.8l3.55-1.35 1.25-.8 2.05-2.1.8-1.35q3.65-7.1-1.4-22.45Q61.85 14.2 75 4.7q-1.3 7.55-1.75 15M32.6 50.85q1.5-4.5 5.95-9.75 5.35-20.9 14.8-37.3l-3.3 3.85q-8.45 10.2-16.1 25.15l.75 1.8.55 2.55q.45 3.8-1.3 8.3l-1.4 1.75q-2.55 3.65-3.8 8.35v6.85l-2.9 1.5-.55 2.2-.6 2.25 8.55-1.2v-6.4Q32 58.6 31.8 56.2v-.25q-.15-2.4.8-5.1M27.35 69l-1.3.45-1.55.7Q11.2 82.55 4.55 124q-1.25 7.85-2.25 16.75l-.35 3.15 2.8 6.75 1.3 3.15 11.1-49.35.85-3.85-3.4 3-.45 1.85-9.4 37.8v-1.45l8.95-40 4.8-3.35.25-1.25q9.85-6.75 18.1-7.95 8.65-18 9.3-42.55l-1.25 1-2 1.65L39.65 52q.35 6.1-3.15 7.8l-1.8.6v8.55q-3.55-1.1-7.35.05" fill="#7d3d0e"/><path d="m71.3 21.2 1.95-1.5Q71.5 46.75 81.3 72.3l-4.6 1.55-7.95 22.55-22.8 23.7-4 17.5-3.85 2.25v-.2h-.05l-.1.25-.05.1-.4.2v-.05h-.35v-.5h-.05l-.1.25-.15.2-.2.1v.05h.25v.3l-.5.3v-.05l-.05-.4-.15-.2-.2-.1-.2.05-.3.25v-.95l.05-.05 2.3-1.4 2.15-1.25 5.7-19.65 21.35-21.8.55-1.55 6.95-19.2-23.6 7.8v13.2l-17.7 11.55q-9.45 19.35-12.85 44.05l-2.05 1.6q.8-5.35 1.85-10.5l1.25-5.45q3.1-12.55 7.95-23.8l3.4-7.35 7.35-4.95 1-.65 2.9-1.95 3.4-2.3 2.1-1.4V82.8l-1.8.6-2 .65-5.4 1.8.85-2.15 36.75-12.75Q71.4 48.2 71.25 23.5 65.8 27.6 60.3 35.8q2.05 13.55 0 27.5l3.05 10.35-20.2 4.65.55-1.8 18.2-3.75-3.7-8.2q4.1-13.9 0-28.2 5.9-9.3 13.1-15.15M53.5 62.4l-.8 1.35L51.65 59l-1-3.25q-1.15-3.35-2.8-6.55l.05-1.8q4.35 6.55 5.6 15m-27.45 7.05 1.3-.45v3.65l-4 3.8v7.05h9.1Q36 76.7 36.6 65.8l-1.9-1.15V63.2l1.8.8 1.6.65q-1.35 13.5-4.75 20H20.7l1.45-9 3.9-2.55v-3.65m9.15 70.15v1.9l-.05.05-.15.05v.05l-5.8 3.4q-3.15 2-6.15 4.1l.15-2.4 12-7.15" fill="#35150c"/><path d="m23.3 69.15-.15 1.15-2.2 1.5-.25-9.25 5.6-6.2-.7 2.05-3.7 4.7 1.4 6.05m26.75-61.5q-5.55 8.25-9.95 17.7l-5.4 9.25-.75-1.8q7.65-14.95 16.1-25.15m-24 61.8v3.65l-3.9 2.55-1.45 9-5.95 4.95v2.8l8.6-7.75h5.3L12.6 96.2l-3.85 15.05L4.55 124Q11.2 82.55 24.5 70.15l1.55-.7m16.85-20.1 2-1.65q-1.8 19.05-8.65 36.05l6.65-34.4" fill="#fff"/><path d="m43.15 78.3 20.2-4.65L60.3 63.3q2.05-13.95 0-27.5 5.5-8.2 10.95-12.3.15 24.7 6.7 47.45L41.2 83.7l1.95-5.4m-2.8 7.55 5.4-1.8 2-.65 1.8-.6v11.6l-2.1 1.4q2.15-6.55.3-12.4-.15 8.45-3.7 14.7l-2.9 1.95q3.35-4.45 4.6-16-7.9 24.7-5.85 6.55l.05-3.85.4-.9m-.2 14.85-7.35 4.95q-.85-4.7 2.95-14l2-.25q-.5 9.2 2.4 9.3M29.4 113q-4.85 11.25-7.95 23.8-3.25-19.65 7.85-43.4 2.1-.8 4.3-1.3-5.95 11.05-4.2 20.9m-9.2 29.25q-1.05 5.15-1.85 10.5Q11.6 158.2 6.1 164.6L19.55 99q3.45-2.7 7.15-4.45-15 35.1-6.5 47.7m32.5-78.5-2.05 2.1 1-6.85 1.05 4.75m-3.3 2.9L45.85 68q1.75-8.95 2-18.8 1.65 3.2 2.8 6.55l-1.25 10.9" fill="#502213"/><path d="m47.45 95.8-3.4 2.3q3.55-6.25 3.7-14.7 1.85 5.85-.3 12.4m-6.3 4.25-1 .65q-2.9-.1-2.4-9.3l2.2-4.65-.05 3.85q-2.05 18.15 5.85-6.55-1.25 11.55-4.6 16m-8.35 5.6L29.4 113q-1.75-9.85 4.2-20.9l2.15-.45q-3.8 9.3-2.95 14M21.45 136.8l-1.25 5.45q-8.5-12.6 6.5-47.7l2.6-1.15q-11.1 23.75-7.85 43.4m29.2-70.95-1.25.8 1.25-10.9 1 3.25-1 6.85m-15.95-1.2 1.9 1.15q-.6 10.9-4.15 17.7h-9.1v-7.05l4-3.8V69q3.8-1.15 7.35-.05v-4.3m-1 5.85h-4.95l-.3 3.35-3.3 2.15v4.7h5.75l2.8-10.2" fill="#7d3114"/><path d="M40.1 25.35q-2.65 5.7-4.85 11.8l-.55-2.55 5.4-9.25M32.55 47.2l.05 3.65q-.95 2.7-.8 5.1v9.85l-6.5.3.55-2.2 2.9-1.5v-6.85q1.25-4.7 3.8-8.35M20.7 84.65h2.65l-8.6 7.75v-2.8l5.95-4.95m7.95 0h4.7q3.4-6.5 4.75-20L36.5 64v-4.2q3.5-1.7 3.15-7.8l3.25-2.65-6.65 34.4-.55 1.35-22.75 13.45-4.2 12.7L12.6 96.2l16.05-11.55M4.75 141.8v8.85l-2.8-6.75.35-3.15 2.45 1.05" fill="#fcd322"/><path d="M37.95 50.4q.5 3.05-.05 4.95-.15-1.65-.65-2.8-.9-2.25-3.1-2.5L35.1 48q1.45-.9 2.85 2.4m-9.95 2-1.1 2.4-.6 1.55-5.6 6.2.25 9.25-2 1.9-.05-11.95L28 52.4" fill="#1136a7"/><path d="M26.9 54.8v6.85l-2.45.95q.5-2.2 1.15-4.2l.7-2.05.6-1.55" fill="#043aeb"/><path d="M37.9 55.35q-.6 2.25-2.55 2.95-1.25-4.45 1.9-5.75.5 1.15.65 2.8M24.45 62.6q-.7 3.1-1.15 6.55l-1.4-6.05 3.7-4.7q-.65 2-1.15 4.2" fill="#27fdff"/><path d="m35.35 58.3-2.1.3q-.65-4.5.9-8.55 2.2.25 3.1 2.5-3.15 1.3-1.9 5.75" fill="#0c63ef"/><path d="m33.7 70.5-2.8 10.2h-5.75V76l3.3-2.15.3-3.35h4.95" fill="#a25021"/><path d="M50.95 95.55v-13.2l23.6-7.8-6.95 19.2-22.65 21.9-7.1 22.35-2.3 1.4-.05-.1h-.1l-.45.2.05.05h.15l.05.05-12 7.15q1.4-18 10.75-38.3l17-12.9" fill="#8f4f0f"/><path d="m14.15 105.45.45-1.85 3.4-3-.85 3.85-3 1" fill="#b05c05"/><path d="m67.6 93.75-.55 1.55-21.35 21.8-5.7 19.65-2.15 1.25 7.1-22.35 22.65-21.9" fill="#f0b19f"/><path d="M20.4 151.15q3.4-24.7 12.85-44.05l17.7-11.55-17 12.9q-9.35 20.3-10.75 38.3l-.15 2.4-2.65 2" fill="#f3b3a3"/></g><g id="B" fill-rule="evenodd"><path d="M16.95 7.45q.25 5.3-8.4 5.1-3 0-4.5 2.75-1.15 2.05-1.15 5.2 0 2.1 5.4 7.85 5.35 5.75 5.2 8.85-.2 3.15-4.15 5.5-3.95 2.2-13.4 3.2-19.6 5.2-34.6-7.7L-41 34.25q-1.1-2.3-1.1-4.7 0-4.3 5.4-7.2 1.95-1.15 7.85-3.15l.5-.65q1.55-2.4 4.85-4.4 3.65-2.25 7.95-2.9h1.75q-2.55.9-4.3 2.75-1.75 1.8-1.85 4.95-.15 3.15 4.25 5.35 2.45 1.25 5.1 1.85l3-.2q.35-.8-.15-1.3-.6-.6-1.65-3l-.35-.4Q-11.5 19.2-12 17.6q-.5-1.4-.3-4.3.15-2.95 2.7-4.8 2.65-1.8 5.7-1.8 3.1-.1 8.6 1.5 5.5 1.55 7.3 1.55l2.9-.4q1.25-.5 2.05-1.9m-30.45 32.5q2.15 1.25 4.9 1.25 3.55 0 6.8-1l4.7-1.75L-9 37.2l-3.25.25-3.65 1.35q.75.15 2.4 1.15m15-4.7q2.05 0 3.05-.75.85-.75 1.75-2.8-1.1.95-3.3 1.9-2.25.8-3.9.8l-3.55-.05 5.95.9" fill="url(#r)" transform="translate(46.95 -6.7)"/><path d="m-15.95 11.15.8-.8-.5 1.05-.3-.25" fill="url(#s)" transform="translate(46.95 -6.7)"/><path d="M12.1 26.2h-.35q-1.5 0-2.8 1.2-1.25 1.2-1.4 2.65l-.1-1.2q0-5.2 1.5-5.2.65 0 1.8 1.15l1.35 1.4" fill="#f8a815" transform="translate(46.95 -6.7)"/><path d="M5.7 35.75q.85.4 1.5.9l1.1 1.15q.55.9.55 2.05 0 3.65-5.1 6.9-4.8 2.95-9.3 2.95-2.45 0-3.65-.9l.45-2.25.15-.25h.15q1.6 0 2.85.6 1.15.6 2.3.6l2.65-.5 1-.1q2.7-.5 4.55-2.55l1.5-1.9.2-.25q1.45-1.15 1.45-2.15l-.2-1.1-.55-1.4-.1-.15-1.5-1.6v-.05" fill="#ffce29" transform="translate(46.95 -6.7)"/><path d="m8.3 37.8.4-1.3q.55 1.05.55 4.2 0 2.4-.8 4.15l-2.3 4.1q-2 3.25-7.55 3.25-1 0-2.25-.6-1.3-.55-1.95-.55-3.6 0-3.6-1.85v-.4q1.2.9 3.65.9 4.5 0 9.3-2.95 5.1-3.25 5.1-6.9 0-1.15-.55-2.05m-.45 1.15.2 1.1q0 1-1.45 2.15l-.2.25.15-.5 1.3-3" fill="#fbbb1f" transform="translate(46.95 -6.7)"/><path d="M6.55 41.95q.65-1.9.65-4.4h.1l.55 1.4-1.3 3" fill="#fb7615" transform="translate(46.95 -6.7)"/><path d="M-1.4 42.1q.75.65 1.55.9 1.6.5 3.15-1l.1.1q-.15 1.15-1.35 1.85Q1 44.5-.4 44.5l-1.35-.15-2.15-1 .7-.1h.4l-1.9-.65q-1.1 1-3.25 1-2.4 0-3.95-.9h1.5l1.8-.7.5-.05.15.05 1.4-.15.75-.25h1.1l2.55.6.75-.1" fill="#ff7b15" transform="translate(46.95 -6.7)"/><path d="m11.25 45.5-.75 2.25-.15.3q-2.8.85-3.4 1.9h-.1q.6-1.15 2.35-2.4l2.05-2.05" fill="#ff8115" transform="translate(46.95 -6.7)"/><path d="m-3.9 43.35-2.2.4q-1.75.4-2.5 1.6l-.4-1.4h-.1q-.15 1.7-.8 2.55l-.75.55-.75.1-2.15-.35-.75.25h-.4q-1.5-.05-4.05-2.65l-1-1.95-.25-.75q0 1-.85.75l-.85-2.75.8.75.9.4q.55 0 1.5-1 .7-.8 1.9-.95h.4q.75 0 2 1.55l.4.5.25.35 1.65 1.4q1.55.9 3.95.9 2.15 0 3.25-1l1.9.65h-.4l-.7.1M-22 30.6l.1-.25.4 1.65q0 1.9-1.15 3.25l-.2.15-1.4 1.25.5.9q.45.4 1 .4h.25l.6-.15h.5l-.85 1.1q-1 1.45-1 3.2 0 2.05 1.75 4.65l-.1.05q-6.5-3.35-6.5-8.65l.3-2.85q.4-1.95 1.6-2.8l2.7-.8q1.15-.35 1.5-1.1" fill="#fecb26" transform="translate(46.95 -6.7)"/><path d="M-29.95 33.25v.05l-.15-.05h.15" fill="#f76605" transform="translate(46.95 -6.7)"/><path d="M-22.5 37.95h-.25q-.55 0-1-.4l-.5-.9 1.4-1.25.2-.15.15 2.7m-8.95 1q.25-1.05.95-1.8.55-.75 2.7-1.85l-.3 2.85q0 5.3 6.5 8.65l.1.1 1.25 2h-.4q-1.45-.25-3.35-1.75l-2.9-2.5q-1.8-1.45-2.15-3.1l-.15-2q-.15-1.25-1.05-1.25h-.5l-.7.65" fill="#f9aa16" transform="translate(46.95 -6.7)"/><path d="M-21.9 30.35q3.95-1 5.05-2l-1.5 3.1q-.85 1.9-.85 3.3t.6 2.25l2 1.9q-1.2.15-1.9.95-.95 1-1.5 1l-.9-.4-.8-.75-.05-.1-.5-.7.85-1.1h-.5l-.6.15-.15-2.7Q-21.5 33.9-21.5 32l-.4-1.65" fill="#f76a07" transform="translate(46.95 -6.7)"/><path d="m-20.85 42.45.4 1.95q.75 3.85 2.85 5l-4 .8q-2.65 0-5.1-1.9l-1.65-1.5q-3.15-3.2-3.25-6.5v-.2l.15-1.15.7-.65h.5q.9 0 1.05 1.25l.15 2q.35 1.65 2.15 3.1l2.9 2.5q1.9 1.5 3.35 1.75h.4l-1.25-2v-.15q-1.75-2.6-1.75-4.65 0-1.75 1-3.2l.5.7.05.1.85 2.75" fill="#fdbd21" transform="translate(46.95 -6.7)"/><path d="M-31.1 46.8q-1.4-.5-2.9-2.3l-2.55-3.15v-.05q2.55 1.9 3.4 2.7l1.05 1.65 1 1.15" fill="#ffa41f" transform="translate(46.95 -6.7)"/><path d="m-13.8 40.95.9.35 1.55.3 1.85-.3 1.4.65-.5.05-1.8.7h-1.5l-1.65-1.4-.25-.35" fill="#ff7513" transform="translate(46.95 -6.7)"/><path d="m-11.35 39.6.5-.05 3.25.65.75.25q1.65.6 2.15 1.15h-1.1l-.75.25q-2.4-1.55-4.8-2.25" fill="#fcab1d" transform="translate(46.95 -6.7)"/><path d="M-9.5 41.3q-2.4-1.1-3.8-1.35l1.95-.35q2.4.7 4.8 2.25l-1.4.15-.15-.05-1.4-.65" fill="#ff971b" transform="translate(46.95 -6.7)"/><path d="M-15.7 48.05q-1.25-.15-2.65-3.05l-.4-.6q2.55 2.6 4.05 2.65h.3l-.9.95-.4.05" fill="#febf21" transform="translate(46.95 -6.7)"/><path d="M-10.65 47.05q0 1.35-3.25 1.35-.4 0-1.4-.4l.9-.95h.1l.75-.25 2.15.35.75-.1" fill="#f47916" transform="translate(46.95 -6.7)"/><path d="m-2.4 41.1 1 1-.75.1-2.55-.6q-.5-.55-2.15-1.15l1.3-.35q.7 0 2.1.6l1.05.4" fill="#fe8c18" transform="translate(46.95 -6.7)"/><path d="M-8.6 46.3q.6-.95 2.05-.95.6 0 2.35.55l1.65.65.4.25.9.2h.6l-2.65.5q-1.15 0-2.3-.6-1.25-.6-2.85-.6h-.15" fill="#ffad20" transform="translate(46.95 -6.7)"/><path d="M3.4 42.1v-.25l.6-1.3.05-1.25q0-1.75-1.15-5.4-1.25-3.6-1.25-7 0-2.5 1.5-4.4 1.25-1.5 1.9-1.8l1.9-.25q5.05.55 8.75 7.5 3.75 6.9 4.5 12.85-4.55-9.45-8.05-9.45-1.8 0-1.8 2.25 0 1.55.6 5.05l.45 4.8-.15 2.05-2.05 2.05q-1.75 1.25-2.35 2.4h.1q.6-1.05 3.4-1.9l-.4.6Q8.55 50.8 6.2 51.6q-.75 1.1-3.4 1.9l-1.05.35-3.75.4-1.45-.05-2.25-.35Q-8 53.5-9 53l-2.4.25q-1.5 0-3.3-.9-1.85-.9-2.9-2.2l-2 .8-2.8.75q-1.85.15-5.9-1.55-4.1-1.7-4.6-2.35-8.8 3.9-4.25-3.8-2.3-2.7-2.3-5.55 0-2.8 2.55-4.2 2.4-1.35 2.4-3.5.25-4.8 9.7-4.6 8.85.05 9.25-4.4v-.65l-.65-2.5q-.65-2.15-.65-4.05l.25-2.3.65-1.1.3.25-.05.75q0 1.25 3.2 6.9 3.25 5.6 3.15 9.1-.05 3.35-3.95 3.45-3.8.1-3.65 3.65.4 3.05 4.05 3.05 1.15 0 2.8-.75 1.6-.8 3.3-.55 1.7.2 3.5 2.85l.9 1.25-1.05-.4q-1.4-.6-2.1-.6l-1.3.35-.75-.25-3.25-.65-.5.05-1.95.35q1.4.25 3.8 1.35l-1.85.3-1.55-.3-.9-.35-.4-.5q-1.25-1.55-2-1.55h-.4l-2-1.9q-.6-.85-.6-2.25t.85-3.3l1.5-3.1q-1.1 1-5.05 2l-.1.25-5.6.25q-3.1.85-3.6 3.3l-2.4 2q-1.05 1.3-1.05 3.7 0 1.7 1.5 4.15-.85-.8-3.4-2.7h-.1l.1.05L-34 44.5q1.5 1.8 2.9 2.3 1.5 1.35 4.4 1.5 2.45 1.9 5.1 1.9l4-.8q-2.1-1.15-2.85-5l-.4-1.95q.85.25.85-.75l.25.75 1 1.95.4.6q1.4 2.9 2.65 3.05h.05l.35-.05q1 .4 1.4.4 3.25 0 3.25-1.35l.75-.55q.65-.85.8-2.55h.1l.4 1.4q.75-1.2 2.5-1.6l2.2-.4 2.15 1 1.35.15q1.4 0 2.45-.55 1.2-.7 1.35-1.85m8.7-15.9-1.35-1.4q-1.15-1.15-1.8-1.15-1.5 0-1.5 5.2l.1 1.2q.15-1.45 1.4-2.65 1.3-1.2 2.8-1.2h.35m-6.4 9.55h-.05l.05.05 1.5 1.6v.15q0 2.5-.65 4.4l-.35.65-1.3 1.75Q3.05 46.4.35 46.9l-1 .1h-.6l-.9-.2-.4-.25-1.65-.65q-1.75-.55-2.35-.55-1.45 0-2.05.95l-.15.25-.45 2.25v.4q0 1.85 3.6 1.85.65 0 1.95.55 1.25.6 2.25.6 5.55 0 7.55-3.25l2.3-4.1q.8-1.75.8-4.15 0-3.15-.55-4.2l-.4 1.3-1.1-1.15q-.65-.5-1.5-.9" fill="#01f5ff" transform="translate(46.95 -6.7)"/><path d="M-26.7 48.3q-2.9-.15-4.4-1.5l-1-1.15-1.05-1.65q-1.5-2.45-1.5-4.15 0-2.4 1.05-3.7l2.4-2q.5-2.45 3.6-3.3l5.6-.25q-.35.75-1.5 1.1l-2.7.8q-1.2.85-1.6 2.8-2.15 1.1-2.7 1.85-.7.75-.95 1.8l-.15 1.15v.2q.1 3.3 3.25 6.5l1.65 1.5m-3.25-15.05h-.15l.15.05v-.05" fill="#fff" transform="translate(46.95 -6.7)"/><path d="M45.55 26.45q-2.45 1.95-7.05 3.5-9.25 5.05-9.7 9.9-.85 5.15 3.6 6.9h.05l5.95 1.95q3.5 1.6 4.15 4.1.65 2.45-.5 4.2l-1.7 2.35q3.75 10-6.35 14.35-.95 1.05-2 1.3l-7.35-.4q-3.8-.05-7.65 4.5-3.8 4.6-12.1 4.5-4.5-.05-7.6-2.65-4.65-4-5.5-4.45-4.2-2.1-5.2-2.9-2.25-1.85-2.5-4.45-3.2-2.5-4.1-6.15-.65-2.45-.45-3.95t-.4-2.55q-.6-1.1-1.35-2-.7-1-2.25-1.2 1.4-1.8 4.25.2-1.4-5.2-.35-8.5 1.3-4.4 6.45-4.65l4.5.05q2.5-.15 3.45-1.95.35-.55.05-2.15-.25-1.65 1.2-3.65 1.35-2.15 2.65-2.5l4.6-.45Q-2.6 34-1.1 36l1.6.7 1.8.3 3-.55q1.25 0 2.25 1.05.85.95 1.2 2.45.55 2-1.1 4.55-1.9 2.8-5.2 3.9-1.65.85-1.1 3.1.2.75 1 1.25.65.5 1.4.55 1.45 0 2.75-2.4 1.15-2.4 3.9-2.35 1.55 0 2.45.55.95.65 2.2.65 1.85 0 1.55-1.3l-1-1.85-3.15-3.25q-.5-.55-1.15-2.85-.6-2.25.7-6.1 1.3-3.8 4.2-6 3.85-2.85 9.25-4.2l8.35-.25q16.25-2.25 7.45-11.6 10.55 8.45 4.3 14.1m-8 35.8q-4.05 4.2-11.4 8.55 11.4-2.45 11.4-8.55" fill="url(#t)" transform="translate(46.95 -6.7)"/><path d="M-13.1 42h-.1l.1-.1v.1" fill="#f40d00" transform="translate(46.95 -6.7)"/><path d="M2.1 48.95h.05l-.1.1.05-.1m-22.45-19.9v-.1.1" fill="#f8a112" transform="translate(46.95 -6.7)"/><path d="M-24 78.3h-.1l.1-.05v.05m30.15-5.25.15.1h-.05l-.1-.1" fill="#f55500" transform="translate(46.95 -6.7)"/><path d="M-9.2 65.75h.55l-.45.15-.1-.15" fill="#fcc420" transform="translate(46.95 -6.7)"/><path d="m-21.4 47.2.35 1.45-.7-1.3.35-.15" fill="#f8a513" transform="translate(46.95 -6.7)"/><path d="m-7 54.65-1.65 1.7Q-9 55-9.9 53.95l-.05-.1.2-.2.05.05q1.1.95 2.35.95H-7" fill="#fecb24" transform="translate(46.95 -6.7)"/><path d="m-27.15 51.9.1-.05v.1h-.1v-.05" fill="#fa8d13" transform="translate(46.95 -6.7)"/><path d="M17.25 55.1q-.25.3-.35.7-.35.95-.35 2v1.1q0 .85.55.85.5 0 .6-1.45 0-1.55 1.4-1.55l2.7.5q4.7 0 10.1-8.1 5.6-8.4 9.5-9.1H43q-7.25 4.45-8.05 13.35-1.55 14.45-9 17.25l.1-.45.45-1.85v-.6q3.05-3.85 4-5.85 1.65-3.4 1.65-7.25 0-1.15-.35-1.95-.5 3.4-2.95 5.9-2.1 2.3-4.8 3-3.4.75-4.6 2.4-.35.5-1.05 3l-.8 2.4q-.35 0-.45-.5v-.55q0-.8.6-2.05.65-1.25.65-2.2 0-1.35-1.4-3.1-1.4-1.65-1.4-2.5l.6-1.65q.55-1.35.55-2.5l.5.75m-43.35 22-2.35-2.6q-3.35-4.9-8.3-6.15-5.35-.6-7.85-4.85-2.55-4.35-2.35-7.9l.25-3.85q.8-8.9 4.95-16.05 4.2-7.4 11.1-10.7-3.25 3.2-5.15 8.5-1.75 4.65-1.75 9.25l.05 1.4q.25-2.35 3.2-5.85l6.7-8.1 5.95-6.25q2.95-3.1 4.7-7.25 1.65-4.15-.45-9.55 11 3.65 14.15 15.05v.1q.7 1.35.7 5.4 0 1.25-.35 3.5l-.45 3.55q0 3.65 3.5 6.4 3.15 2.5 7.25 2.75 4.1.3 3.85-2.4-.3-2.7-1.6-6.55-1.4-3.85-1.4-7.45 0-4.4 2.1-6.75 2.1-2.4 10.55-8.5 0 8.6 6.65 11.9 3.85 1.8 4.95 3.15 2.35 2.55 2.35 7.65 0 6.2-4.95 10.9-1.75 1.65-3.75 2.9Q28 47.3 29.3 45.3q2-3.2 2-6.8 0-6.45-4-8.85-1.85-1.05-8.2-2.25.05-.65.25-1.35l.45-2.9-.2-.45q0-.6.8-1.05l.1-.1q-.7-.4-2.4-.4-3.05 0-4.85 3-1.5 2.3-1.95 5.5l-.25.85q-.35.95-.35 2.15 0 1.9 3.25 4.8 1.8 1.65 2.6 3.4l.2.35q-.8 2.9-3.85 5.05-3 1.9-5.75 1.9l-1.4.1.95.8h.1q3.3 2.8 5.75 3.15 2.15.4 7.3-3.95.45-.35 1-.75l-2.55 4.35L17 53.4l-.25.25Q15.05 55 13.4 55l-1.8-.25q-1.35 0-1.35 2.2 0 .95.55 3.1 0 2.1-2 3.35-1.6 1-3.05 1-.65 0-.65-.6l2.1-3.85q2.1-4.05 2.1-6.45 0-2.15-1.9-2.15-.95 0-1.6.6L4.5 53.4q-1.1.65-3.55.65l-7.95.6h-.35q-1.25 0-2.35-.95l-.05-.05q-1.15-1-2.15-3.05-1.75-3.5-1.75-6.3l.45-2.3h.1q.45 9.55 6.95 9.55 2.1 0 4.05-1.35 1.75-1.25 4.15-1.15l.1-.1H2.1l-1.85-.5h-.2l-1.75-.3-2.6.5q-.8 0-.95-.3 2.1 0 3.75-1.05 1.05-.75 2.15-.95l-1.9-.4-2.35.4q-2 0-3.25-1.95-1.1-1.85-1.1-4.15l.5-6q.55-3.85.55-5.85 0-4.25-.35-6.5-.7-4.25-3.6-6.85l-1.4 3.95q-.95 2.45-2 3.4l.1-1.15q0-.8-.45-1.75l-.6-1.25h-.1q-.7 3.85-3.4 7.05l-4.8 5.3q-1.75 1.55-2.85 4.25-1.7 3.95-1.7 8.9l.1 1.15-.25 2q0 2.55 1.05 5v.05q-1.5.55-1.5 1.65 0 1.7 2.9 2.6 2.85.75 3.4 2.5l-1.5-.1-1.9.3-1.25.35h-.05l-3.5.2q-3 0-6.55-5.7l-2.2-4.8q-.75-2.05-.75-4.95 0-2.4.7-6.35-1.05 2.3-3.45 6.65-2.05 4.55-2.05 8.5 0 4.85 2.75 9 2.9 4.25 6.3 4.25 1.15 0 3.15-.8 2-.75 3.55-.75 2.3 0 2.3 2.1 0 .6-.55 2.6l-.6 2.7q0 1.85.45 2.9l1.4 2.3" fill="url(#u)" transform="translate(46.95 -6.7)"/><path d="m-24.1 78.3-1.25-.6-.75-.6-1.4-2.3q-.45-1.05-.45-2.9l.6-2.7q.55-2 .55-2.6 0-2.1-2.3-2.1-1.55 0-3.55.75-2 .8-3.15.8-3.4 0-6.3-4.25-2.75-4.15-2.75-9 0-3.95 2.05-8.5 2.4-4.35 3.45-6.65-.7 3.95-.7 6.35 0 2.9.75 4.95l2.2 4.8q3.55 5.7 6.55 5.7l3.5-.2h.05l1.25-.35 1.9-.3 1.5.1q3.75.4 3.75 2.9l-.6 5.1q0 3.5 2.15 3.5 1.75 0 1.75-2.35 0-.85-.25-1.15-.2-.3-1.05-.5v-.65q1.05-3.4 4.25-6.1l3.7-3.1 1.65-1.7 7.95-.6q2.45 0 3.55-.65l1.3-1.45q.65-.6 1.6-.6 1.9 0 1.9 2.15 0 2.4-2.1 6.45L5.1 63.8q0 .6.65.6 1.45 0 3.05-1 2-1.25 2-3.35-.55-2.15-.55-3.1 0-2.2 1.35-2.2l1.8.25q1.65 0 3.35-1.35l.25-.25 1.3-1.55 2.55-4.35q-.55.4-1 .75-5.15 4.35-7.3 3.95-2.45-.35-5.75-3.15l2.85.3q3.15 0 5.05-1.2 2.45-1.45 2.45-4.5 0-1.25-.4-2.45l-.2-.35q-.8-1.75-2.6-3.4-3.25-2.9-3.25-4.8 0-1.2.35-2.15l.25-.85q.45-3.2 1.95-5.5 1.8-3 4.85-3 1.7 0 2.4.4l-.1.1q-.8.45-.8 1.05l.2.45-.45 2.9q-.2.7-.25 1.35 6.35 1.2 8.2 2.25 4 2.4 4 8.85 0 3.6-2 6.8-1.3 2-3.15 3.45l-4.7 2.3-.1.1q-1.9.9-3.15 2.45l-.95 1.5-.5-.75q0 1.15-.55 2.5l-.6 1.65q0 .85 1.4 2.5 1.4 1.75 1.4 3.1 0 .95-.65 2.2-.6 1.25-.6 2.05v.55q.1.5.45.5l.8-2.4q.7-2.5 1.05-3 1.2-1.65 4.6-2.4 2.7-.7 4.8-3 2.45-2.5 2.95-5.9.35.8.35 1.95 0 3.85-1.65 7.25-.95 2-4 5.85v-.85q-.7 2.2-2.95 3.35-2 1.1-4.45.9-3.35-.3-7.7 3.2l-.1-.7q0-1.05 2.55-3.85 2.45-2.8 2.45-5.15 0-.95-.2-1.05l-1.05-.2q-2.35 0-5.15 3.7-1.2 1.65-3.6 6.05l-.15-.1q-1.2-1.25-1.2-2.7 0-.85.35-1.05l1.4-.55.15-.1-1.05-.1q-3.45 0-3.45 3.25l.15 2.8-.35 1.55-1.05.7-.85.1q-2.65 0-2.65-3.7 0-3.85 4.75-8.85 4.6-5.15 4.6-7.95l-.15-.55q-.2 0-.65.55l-.7.6-1.3-.95q-1.45-1-3.3-1.15-1.9-.3-5.25 2.8-3.3 3.05-4.25 8h-.55q-2.95-.1-4.85 2.4-1.15 1.45-2.3 4.9l-.95 2.05q-3.3-.7-3.3-4.75l.6-4.15q0-1.8-1.75-3.25t-3.85-1.45l-6.9.95q-3.3 0-6-5.7-2.2-4.7-2.8-9.85l-.25 4.25q0 5.4 1.85 8.9 2 3.75 5.75 3.75l4.95-.75q2.1 0 4 1.6 1.85 1.55 1.85 3.3 0 .8-1.3 2.6-1.3 1.75-1.3 3.5 0 1.35 1.75 4.2l-.1.05m38.45-50.5-.05-.5v.2l.05.3-.25.7-.25 1.25q0 1.65.8 3.15l2.45 3.7h.3q.8 0 .8-1.35 0-2.6-1.9-4.85-1.65-1.9-1.95-2.6M.05 48.45q-1.65.3-3.05 1.05-1.05.6-2.6.6-5.4 0-5.4-7.55 0-6.95.95-10.4.85-3.45.85-6 0-1.05-.35-2.9l-.4-1.9q-1.7 5.2-6.3 9.25-5.6 4.75-6.8 8v.1l-.25-2.4q0-2.7.85-4.85.9-2.1 2.1-2.4v-.1q-1.75.5-3.15 1.65l4.8-5.3q2.7-3.2 3.4-7.05h.1l.6 1.25q.45.95.45 1.75l-.1 1.15q1.05-.95 2-3.4l1.4-3.95q2.9 2.6 3.6 6.85.35 2.25.35 6.5 0 2-.55 5.85l-.5 6q0 2.3 1.1 4.15 1.25 1.95 3.25 1.95l2.35-.4 1.9.4q-1.1.2-2.15.95-1.65 1.05-3.75 1.05.15.3.95.3l2.6-.5 1.75.3" fill="#01f5ff" transform="translate(46.95 -6.7)"/><path d="m26.05 70.2-.15.55-.95 2.6q-1 2.35-2.8 2.4H17.4q-2.85-.15-7.4 4.55-4.55 4.75-7.4 4.75-2 0-4.3-2.25l-.25-.15q-2.5-2.55-7.6-6-2-1.15-3.45-1.15-1.6 0-3.95 1.7l-2.6 1.55-.45.1-.9.1q-1.65 0-3.1-.55v-.15q-1.75-2.85-1.75-4.2 0-1.75 1.3-3.5 1.3-1.8 1.3-2.6 0-1.75-1.85-3.3-1.9-1.6-4-1.6l-4.95.75q-3.75 0-5.75-3.75-1.85-3.5-1.85-8.9l.25-4.25q.6 5.15 2.8 9.85 2.7 5.7 6 5.7l6.9-.95q2.1 0 3.85 1.45T-20 66.2l-.6 4.15q0 4.05 3.3 4.75l.95-2.05q1.15-3.45 2.3-4.9 1.9-2.5 4.85-2.4l.1.15.45-.15q.95-4.95 4.25-8 3.35-3.1 5.25-2.8 1.85.15 3.3 1.15l1.3.95.7-.6q.45-.55.65-.55l.15.55q0 2.8-4.6 7.95-4.75 5-4.75 8.85 0 3.7 2.65 3.7l.85-.1 1.05-.7.35-1.55-.15-2.8q0-3.25 3.45-3.25l1.05.1-.15.1-1.4.55q-.35.2-.35 1.05 0 1.45 1.2 2.7l.1.1h.05q2.4-4.4 3.6-6.05 2.8-3.7 5.15-3.7l1.05.2q.2.1.2 1.05 0 2.35-2.45 5.15-2.55 2.8-2.55 3.85l.1.7q4.35-3.5 7.7-3.2 2.45.2 4.45-.9 2.25-1.15 2.95-3.35v1.45l-.45 1.85m-9.3-29q.4 1.2.4 2.45 0 3.05-2.45 4.5-1.9 1.2-5.05 1.2l-2.85-.3h-.1l-.95-.8 1.4-.1q2.75 0 5.75-1.9 3.05-2.15 3.85-5.05m-25.4 15.15-3.7 3.1q-3.2 2.7-4.25 6.1v.65q.85.2 1.05.5.25.3.25 1.15 0 2.35-1.75 2.35-2.15 0-2.15-3.5l.6-5.1q0-2.5-3.75-2.9-.55-1.75-3.4-2.5-2.9-.9-2.9-2.6 0-1.1 1.5-1.65h.1v-.1l-.1.05q-1.05-2.45-1.05-5l.25-2-.1-1.15q0-4.95 1.7-8.9 1.1-2.7 2.85-4.25 1.4-1.15 3.15-1.65v.1q-1.2.3-2.1 2.4-.85 2.15-.85 4.85l.25 2.4v-.1q1.2-3.25 6.8-8 4.6-4.05 6.3-9.25l.4 1.9q.35 1.85.35 2.9 0 2.55-.85 6-.95 3.45-.95 10.4 0 7.55 5.4 7.55 1.55 0 2.6-.6 1.4-.75 3.05-1.05h.2l1.85.5-.05.1q-2.4-.1-4.15 1.15-1.95 1.35-4.05 1.35-6.5 0-6.95-9.55v-.6l-.1.6-.45 2.3q0 2.8 1.75 6.3 1 2.05 2.15 3.05l-.2.2.05.1q.9 1.05 1.25 2.4m23-28.55q.3.7 1.95 2.6 1.9 2.25 1.9 4.85 0 1.35-.8 1.35h-.3l-2.45-3.7q-.8-1.5-.8-3.15l.25-1.25.25-.7M-21.4 47.2l-.35.15.7 1.3-.35-1.45" fill="#fff" transform="translate(46.95 -6.7)"/></g><g id="C" fill-rule="evenodd"><path d="M62.3 48.9h-2.7Q48.65 22.1 35.7 0q18.25 10.25 34.9 42.05l-1.7 6.85h-6.6m-16.9 6.9-3.25.65-8.4-.65-.7 3.1-.7 3.1q8.75 10.4 4.8 26.85l32.65 9.1 9.4 2.6 2.45 1.9L71.4 99.7l-5.85-1.6L61 96.9l-22.55-6.1-3.55-1q5.15-17.2-4.1-27.25l2.25-8.45h8.85l7.2-2.8L4.8 10.7l2 5.05L17.05 41.9l-8.9-2.8 9.7 19.65L26 68.9l.85 1.15q6.1 9.45-.85 15.25L24.6 95l8.25.9q15.9 2.2 32.1 8.8 2.85 1.15 5.7 2.45l8.85 4.35q5.15 2.7 10.3 5.85l-.1-3.8q-.5-5.7-2.45-12.25l.85-1.95 8.5 13.95 2.1 13.35 13.9 43.85 1.95 6.2 1.45-2.3q-6.4-52.6-27.05-78.1l.3-2.05q20.9 20.35 28.7 80.05l-2.1 5.45v1.7l-1.4-3.4-1.45-3.5q-8.2-20.6-15.7-46.65l-1.7-12.5-6.3-12.4q2.55 8.6 2.2 16.9-20.45-10.75-38.2-17.45l1.55 11.95 20.5 16.15q12.85 24.25 21.2 50.05l1.6 5.05 1.5 4.8-15.45-8.6q-23.75-48.9-67.75-58.3Q-1.5 96.75 4.1 62.7L20 73.8q-1.05 7.3 4.2 9.7 5.8-2.15 0-13.2l-8.55-10.7-11.7-24.15 9.15 2.5L0 4.35q27.8 19.9 52.05 47.95l-6.65 3.5M42.55 7.95Q53.05 26.4 61 47.4h5.5l1.8-4.5Q56.6 19.75 41.2 5.65l1.35 2.3M19.7 90.9l4.35-1.2v-3.4q-7.4-1.25-6.75-12.2L5.65 66.75q-2 33.7 11.95 54.85 19.5 4.55 34.65 15.6 20.7 15.05 33.35 42.15l5.05 2.95 5.1 2.95q-5.95-25.55-21.65-52.7l-20.8-16.6-1.85-14.05q-5.85-1.95-12-3.35l-.05 4.35 4.45 4.05v10.25l-19.8-2.5q-6.1-8.85-6-23.35l1.65-.45m.95 1.9-1.1.55q-.75 11.55 5.65 19.8l17 2.1v-7l-4.5-4.95.2-5.05-2.9-.6L24.05 96v-4.85l-2.25 1.1q-.55.25-1.15.55" fill="#7d3d0e"/><path d="M84.9 105q1.4-1.65 2.35-3.7 1.95 6.55 2.45 12.25L84.9 105M42.55 7.95l-1.35-2.3q15.4 14.1 27.1 37.25l-1.8 4.5h-1.4Q56.15 25.35 42.55 7.95M112.6 170.5l-13.9-43.85-2.1-13.35-8.5-13.95q6.75 5.7 12.15 19.3 9.7 25.75 12.35 51.85M6.8 15.75l-2-5.05 44.3 40.6-7.2 2.8h-8.85l-2.25 8.45q9.25 10.05 4.1 27.25l-2.85-1.1Q36 74.95 29.1 62.55l2.25-10.7h7.6q1.9-.85 3.75-1.65l1.6-.7L6.8 15.75M17.3 74.1q-.65 10.95 6.75 12.2v3.4l-4.35 1.2v-3.45q-8.95-3.5-4.9-14l2.5.65m.75 17.25q-.1 14.5 6 23.35h-3.1q-5-10.8-5.3-23.2l2.4-.15M39.4 102.9l.05-4.35q6.15 1.4 12 3.35l1.85 14.05 20.8 16.6q15.7 27.15 21.65 52.7l-5.1-2.95q-5.15-24.1-19.1-48.65l-2.7-2.05-8-5.95-2.75-2.05-7.9-5.95-1.55-11.25-9.25-3.5" fill="#e88a06"/><path d="M65.1 47.4H61q-7.95-21-18.45-39.45 13.6 17.4 22.55 39.45M61 96.9l3.95 7.8q-16.2-6.6-32.1-8.8l5.6-5.1L61 96.9m9.65 10.25-5.1-9.05 5.85 1.6 8.1 11.8-8.85-4.35M42.7 50.2q-1.85.8-3.75 1.65h-7.6l-2.25 10.7q6.9 12.4 2.95 26.15l2.85 1.1L24.6 95l1.4-9.7q6.95-5.8.85-15.25l-.75-1.2-6.7-11.35-3.9-10L27 52l-7.75-7.7-5.15-17.7 28.6 23.6M14.8 73.45q-4.05 10.5 4.9 14v3.45l-1.65.45-2.4.15q.3 12.4 5.3 23.2h3.1l19.8 2.5v-10.25l-4.45-4.05 9.25 3.5 1.55 11.25-17.3 6.3-15.15-6.75Q8.3 99.7 8.05 71.7l6.75 1.75M90.65 182.3l-5.05-2.95q-12.65-27.1-33.35-42.15l16.6-5.6 2.7 2.05q13.95 24.55 19.1 48.65m-29.8-56.65L47.1 131l-4.65-2.25 15.65-5.15 2.75 2.05" fill="#fcd322"/><path d="M59.6 48.9h2.7q.95 7.35 3.95 12.3l.55-1.45 2.75 1.65q-2.85-6.55-2.35-12.5h1.7q.4 7.55 5.15 15.55 8.05 6 13.95 14.1 2.05 9.05 1.25 15.7l-.3 2.05-.85 3.05-.85 1.95q-.95 2.05-2.35 3.7l-3.25-2.55-2.45-1.9L62.7 87.7q-11.9-.6-17.2-7.4-6.1-7.8-3.35-23.85l3.25-.65q-2.15 11.4 0 18.4l8.15-19.25 11 10.55.6-1.5q-3.6-5.05-5.55-15.1m27.6 36.6-.6-5.95q-7.55-9.85-18.85-17L66.6 68.6l-1.65 8.65-1.7 8.65 12.9 9.8 4.8 3.65 3.55 2.7q2.2-4.1 2.7-10.2.2-2.95 0-6.35M63.55 72.3l.85-4.95-10-9.55-1.35 2.3q-4.8 8.55-7.15 18.5 4.45 5.1 10.05 6.55l5.35.6 2.25-13.45" fill="#1136a7"/><path d="M62.3 48.9h4.9q-.5 5.95 2.35 12.5l-2.75-1.65-.55 1.45q-3-4.95-3.95-12.3m23.25 34.6q-.4.4-.95.4-.55 0-.9-.4-.4-.35-.4-.9t.4-.95q.35-.35.9-.35t.95.35q.35.4.35.95 0 .55-.35.9m1.65 8.35q-4.95-4.35 0-6.35.2 3.4 0 6.35M66.6 68.6l12.55 6.45-14.2 2.2 1.65-8.65m-3.35 17.3q6.8-4.6 16.45-6.2-5.75 8.2-3.55 16l-12.9-9.8m-10.2-25.8q5.8 3.1 10.5 12.2L61.3 85.75l-5.35-.6q7.7-12.75-2.9-25.05M63.2 91.4l6.6 6.55-32.65-9.1Q41.1 72.4 32.35 62h4.9q-.1 27.45 25.95 29.4m20.95-2.45-.25.55-.55.25-.6-.25-.25-.55q0-.35.25-.6t.6-.25q.3 0 .55.25l.25.6m.2 3.65q.4-.4.9-.4.55 0 .95.4.4.4.4.95 0 .55-.4.9-.4.4-.95.4-.5 0-.9-.4-.4-.35-.4-.9t.4-.95" fill="#27fdff"/><path d="M85.55 83.5q.35-.35.35-.9t-.35-.95q-.4-.35-.95-.35-.55 0-.9.35-.4.4-.4.95 0 .55.4.9.35.4.9.4t.95-.4m1.05-3.95.6 5.95q-4.95 2 0 6.35-.5 6.1-2.7 10.2l-3.55-2.7q-5.2-15.85 5.65-19.8M84.35 92.6q-.4.4-.4.95 0 .55.4.9.4.4.9.4.55 0 .95-.4.4-.35.4-.9t-.4-.95q-.4-.4-.95-.4-.5 0-.9.4m-.2-3.65-.25-.6q-.25-.25-.55-.25-.35 0-.6.25t-.25.6l.25.55.6.25.55-.25.25-.55" fill="#0749ec"/><path d="M81.65 102.45 84.9 105l4.8 8.55.1 3.8q-5.15-3.15-10.3-5.85l-8.1-11.8 10.25 2.75m4.95-22.9q-10.85 3.95-5.65 19.8l-4.8-3.65q-2.2-7.8 3.55-16-9.65 1.6-16.45 6.2l1.7-8.65 14.2-2.2L66.6 68.6l1.15-6.05q11.3 7.15 18.85 17M53.05 60.1l1.35-2.3 10 9.55-.85 4.95q-4.7-9.1-10.5-12.2m-1.65 9-.05-.4q0-.55.35-1 .45-.35 1-.35t.95.35q.4.45.4 1t-.4.95q-.35.4-.85.4l-.05-.05-.05.05q-.55 0-1-.4l-.3-.55M61 96.9l4.55 1.2 5.1 9.05q-2.85-1.3-5.7-2.45L61 96.9m-27.95-38 6.2 1.4q-1.6 25.1 21.9 29.1l2.05 2Q37.15 89.45 37.25 62h-4.9l.7-3.1m24.05 54.8-1.4-8.7 8.4 4.2.65 1.85-6.65-2.8-1 5.45M72 125.35l-4.35-15.45 6.15 2.95.55 2.05h-3.5L72 125.35m13.2-4.4-1.85-3.6 7.75 4.1q14.85 36.7 19.05 73.8l-2.65-2.8q-3.05-35.55-18.1-69.6l-4.2-1.9m-8.05.25q-1.3-3.8-2.35-8.25l3.65 1.75 1.15 3.3-2.85-1.2.4 4.4M6.8 15.75 44.3 49.5l-1.6.7-28.6-23.6 5.15 17.7L27 52l-11.5-4.5 3.9 10 6.7 11.35-.1.05-8.15-10.15-9.7-19.65 8.9 2.8L6.8 15.75M34.9 89.8l3.55 1-5.6 5.1-8.25-.9 10.3-5.2M17.3 74.1l-2.5-.65-6.75-1.75q.25 28 9.7 45.5l15.15 6.75 17.3-6.3 7.9 5.95-15.65 5.15L47.1 131l13.75-5.35 8 5.95-16.6 5.6Q37.1 126.15 17.6 121.6 3.65 100.45 5.65 66.75L17.3 74.1m7.1 35.05q-3.95-6.5-3.75-16.35.6-.3 1.15-.55.75 9.75 2.6 16.9" fill="#fff"/><path d="M55.95 85.15q-5.6-1.45-10.05-6.55 2.35-9.95 7.15-18.5 10.6 12.3 2.9 25.05m-3.15-15.1q.5 0 .85-.4.4-.4.4-.95 0-.55-.4-1-.4-.35-.95-.35-.55 0-1 .35-.35.45-.35 1l.05.4-.45-.05q-.85 0-1.5.6-.6.65-.6 1.55 0 .85.6 1.5.65.6 1.5.6.9 0 1.5-.6.65-.65.65-1.5l-.3-1.15m-2.3 9.85q.85 0 1.45-.6.55-.55.55-1.4 0-.85-.55-1.4-.6-.6-1.45-.6-.8 0-1.4.6-.6.55-.6 1.4 0 .85.6 1.4.6.6 1.4.6m5.6-6.5q-.3-.35-.8-.35t-.85.35q-.3.35-.3.85 0 .45.3.8.35.35.85.35t.8-.35l.35-.8q0-.5-.35-.85" fill="#084eed"/><path d="m52.8 70.05.3 1.15q0 .85-.65 1.5-.6.6-1.5.6-.85 0-1.5-.6-.6-.65-.6-1.5 0-.9.6-1.55.65-.6 1.5-.6l.45.05.3.55q.45.4 1 .4h.1m3.3 3.35q.35.35.35.85l-.35.8q-.3.35-.8.35t-.85-.35q-.3-.35-.3-.8 0-.5.3-.85.35-.35.85-.35t.8.35m-5.6 6.5q-.8 0-1.4-.6-.6-.55-.6-1.4 0-.85.6-1.4.6-.6 1.4-.6.85 0 1.45.6.55.55.55 1.4 0 .85-.55 1.4-.6.6-1.45.6" fill="#27fcff"/><path d="M42.15 56.45Q39.4 72.5 45.5 80.3q5.3 6.8 17.2 7.4l16.5 12.85-9.4-2.6-6.6-6.55-2.05-2q-23.5-4-21.9-29.1l-6.2-1.4.7-3.1 8.4.65" fill="#0645ec"/><path d="m64.75 111.05-.65-1.85-8.4-4.2 1.4 8.7 11.65 9.3-4-11.95m31.8 69.55q-8.35-25.8-21.2-50.05l-20.5-16.15-1.55-11.95q17.75 6.7 38.2 17.45.35-8.3-2.2-16.9l6.3 12.4 1.7 12.5q7.5 26.05 15.7 46.65l-1.4 22.25-1.45-1.55q-4.2-37.1-19.05-73.8l-7.75-4.1 1.85 3.6q4.9 9.9 8.45 20.7 4.4 13.45 6.75 28.3 1.25 8.25 1.9 16.85l-1.4-1.5q-6.3-46.65-19.8-69.05h-1.65q5.6 12.35 6.3 17 .5 3.45-1.7 2.65-5.05-4.5-9.7-21l-.55-2.05-6.15-2.95L72 125.35l8.4 7.75q11.45 24.5 18.15 49.65l-2-2.15M79.6 118l-1.15-3.3-3.65-1.75q1.05 4.45 2.35 8.25 2.05 5.8 4.65 9.85 3.65 6.65 2.9 1.25L79.6 118M35 97.65l2.9.6-.2 5.05 4.5 4.95v7l-17-2.1q-6.4-8.25-5.65-19.8l1.1-.55q-.2 9.85 3.75 16.35l1.5 2.2 3.65.5 10.8 1.45v-4.5l-1.4-1.65-3.8-4.4-.15-5.1m60.2 69.7.05.2v3.8Q93.7 155.7 88 139.55l.6 1.3q6.1 13.2 6.6 26.5" fill="#7d3114"/><path d="m64.75 111.05 4 11.95-11.65-9.3 1-5.45 6.65 2.8m7.25 14.3-1.15-10.45h3.5q4.65 16.5 9.7 21 2.2.8 1.7-2.65-.7-4.65-6.3-17h1.65q13.5 22.4 19.8 69.05l-2.35-2.55q-6.7-25.15-18.15-49.65l-8.4-7.75m30.3 61.45q-.65-8.6-1.9-16.85-.6-16.85-6.9-33.35l.15 5.05q-3.55-10.8-8.45-20.7l4.2 1.9q15.05 34.05 18.1 69.6l-5.2-5.65M79.6 118l5.1 14.3q.75 5.4-2.9-1.25-2.6-4.05-4.65-9.85l-.4-4.4 2.85 1.2M35 97.65l.15 5.1 3.8 4.4-10.8.5 1.4 4.2-3.65-.5-1.5-2.2q-1.85-7.15-2.6-16.9l2.25-1.1V96L35 97.65m53 41.9q5.7 16.15 7.25 31.8v-3.8l-.05-.2q.05-18.8-9.45-34.1l2.35 6.25-.1.05" fill="#de6e35"/><path d="m88.1 99.35.85-3.05q20.65 25.5 27.05 78.1l-1.45 2.3-1.95-6.2q-2.65-26.1-12.35-51.85-5.4-13.6-12.15-19.3m24.9 75.2 1.45 3.5-.05 21.8-2.8-3.05 1.4-22.25" fill="#f3b3a3"/><path d="m38.95 107.15 1.4 1.65v4.5l-10.8-1.45-1.4-4.2 10.8-.5" fill="#a25021"/><path d="M100.4 169.95q-2.35-14.85-6.75-28.3l-.15-5.05q6.3 16.5 6.9 33.35M88.1 139.5l-2.35-6.25q9.5 15.3 9.45 34.1-.5-13.3-6.6-26.5l-.5-1.35" fill="#ffd18a"/><path d="m114.45 178.05 1.4 3.4v25l-17.7-20.8-1.6-5.05 2 2.15 2.35 2.55 1.4 1.5 5.2 5.65 2.65 2.8 1.45 1.55 2.8 3.05.05-21.8" fill="#592311"/></g><g id="D" fill-rule="evenodd"><path d="M49.05 44.35q-6.4 20.4-19.4 29.55-4.5-.65-6.9-4.6l3.5-7.75h-2.4l-3.05-2.4-1.55 2.7-8.3-2.95 2.25-9.85-5.9 8.15L0 52.15 7 35l11.95-1.7 5.35-6.65-.45 3.3-4.25 5.4L8 36.5 1.8 51.35l1.3.85 2.55 1.7.85.55 1 .65q3.65-7.05 8.15-9.35 2.5-1.3 5.25-1.15 6.65 3.65 7.45 13.3l.1.95-2 5.05-2 5 4.5 3.8 2.35-1.8 2.4-2.2q4.1-3.95 7.4-9.05 4.15-6.55 7.05-15l.9-.3M16.9 59.1l1.85.6 5.4-9.75-.95-1.35q-2.95-3.7-6.4-2.4-.7.25-1.35.65l-2.65 10.9 2.05.7 2.05.65m9.7-1-1.8-6.2-3.3 6 3.1 2.3 2-2.1" fill="#48478d"/><path d="m16.9 59.1-2.05-.65q-.15-5.9 1.95-12.25 3.45-1.3 6.4 2.4l-6.3 10.5m-1.25-13.35q-4.5 2.3-8.15 9.35l-1-.65q4.4-8.05 9.15-8.7m12.7 12.15q1.75 4.85-1.05 8.7l6.4 2.1-2.4 2.2-4.85-2.25V63.9l2-5.05-.1-.95" fill="#7979d4"/><path d="M5.65 53.9q1.8-6.6 7.85-13 4.45 1.2 9.8-.8.9 6.05 5.55 10.65 2.7 8.4 12.25 8.9-3.3 5.1-7.4 9.05l-6.4-2.1q2.8-3.85 1.05-8.7-.8-9.65-7.45-13.3-2.75-.15-5.25 1.15-4.75.65-9.15 8.7l-.85-.55" fill="#95a8ed"/><path d="M32.75 18.85q-1.1 5 .25 9.7-4.4 4.95-7.75 1.3l1.1-8.3 6.4-2.7m-8.9 11.1-.8 6 1.4 1q-6.85 1.6-14.05 1L3.1 52.2l-1.3-.85L8 36.5l11.6-1.15 4.25-5.4m4.65 9.8 11.55 8q1.15-.4 2.25-.85l-2.95 6.85q-8.45-.3-10.85-14" fill="#fff"/><path d="m24.45 36.95 4.05 2.8q2.4 13.7 10.85 14l2.95-6.85 5.85-2.25q-2.9 8.45-7.05 15-9.55-.5-12.25-8.9-4.65-4.6-5.55-10.65-5.35 2-9.8.8-6.05 6.4-7.85 13L3.1 52.2l7.3-14.25q7.2.6 14.05-1m-9.6 21.5-2.05-.7 2.65-10.9q.65-.4 1.35-.65-2.1 6.35-1.95 12.25" fill="#b9d6ff"/><path d="m23.2 48.6.95 1.35-5.4 9.75-1.85-.6 6.3-10.5m35.05-13.05-1.15 3.7-16.5 6.7-.85-.6 18.5-9.8M31.3 70.9l-2.35 1.8-4.5-3.8 2-5v4.75l4.85 2.25" fill="#f3b3a3"/><path d="m51.35 3.3 4.35-1.55q-.05 6.65 3.1 9.6 8.05 1.8 14.05-2.7l-8.9 21.6L48.4 35.6l-7.7-3.25 1.7-1.05q9.25-6.4 13.75-17.7l-2.05-2.5-.75-.95q-5.7 12.15-14.15 21.6l-2.75-1.2-1.7-9.05 1.85-1.45.75 3.45.55 2.55.8 3.6q10.35-9.3 12.65-21v-2.7q-.7 4.25-4.8 7.55-2.55 1.95-6.3 3.65l.65-2.05q3.35-1.45 5.95-3.75 2.65-2.25 4.5-5.4V3.3" fill="#7d3114"/><path d="m44.95 5.5-1.25.45-2.45 7.95-.35 1.2-.65 2.05-3.65 2.9-1.85 1.45 1.7 9.05 2.75 1.2 1.5.6 7.7 3.25 15.55-5.35 8.9-21.6q-6 4.5-14.05 2.7-3.15-2.95-3.1-9.6L51.35 3.3l-6.4 2.2m-5.35 9L42 5.05 57.35 0q-1 11.05 7.45 10.25l10.1-3.5L64.8 31.2l-3.45 1.25-2.4.85-10.9 3.95-2.05-.9L35.4 32l-1.95-11.2 5.75-4.65.4-1.65" fill="#35150c"/><path d="m39.6 14.5-.4 1.65-6.45 2.7-6.4 2.7-1.1 8.3L24.6 35l.9.6 12.55 8.55 1.7 1.2.85.6 16.5-6.7 1.15-3.7.7-2.25 2.4-.85-3.3 8.45-9 3.45-.9.3-5.85 2.25q-1.1.45-2.25.85l-11.55-8-4.05-2.8-1.4-1 .8-6 .45-3.3.85-6L39.6 14.5" fill="#7d3d0e"/><path d="m41.25 13.9 2.45-7.95 1.25-.45 1.5 4.55q-2.1 2.45-5.2 3.85m-.55 18.45-1.5-.6q8.45-9.45 14.15-21.6l.75.95q-4.2 11-11.7 20.2l-1.7 1.05m-4.1-12.3 3.65-2.9q3.75-1.7 6.3-3.65l.2 1.35q-2.2 6.85-9.4 8.65l-.75-3.45" fill="#de6e35"/><path d="M41.25 13.9q3.1-1.4 5.2-3.85l.4 1.3q-2.6 2.3-5.95 3.75l.35-1.2m5.5.95q.35 5.95-8.85 11.2l-.55-2.55q7.2-1.8 9.4-8.65" fill="#ffd18a"/><path d="m46.45 10.05-1.5-4.55 6.4-2.2v2.65q-1.85 3.15-4.5 5.4l-.4-1.3m7.65 1.05 2.05 2.5q-4.5 11.3-13.75 17.7 7.5-9.2 11.7-20.2m-7.35 3.75-.2-1.35q4.1-3.3 4.8-7.55v2.7q-2.3 11.7-12.65 21l-.8-3.6q9.2-5.25 8.85-11.2" fill="#a25021"/><path d="m39.2 16.15-5.75 4.65L35.4 32 46 36.35l-1.05 3.8-6.9 4L25.5 35.6l8.1 2.95 2.5-3.7q-2.15-3.05-3.1-6.3-1.35-4.7-.25-9.7l6.45-2.7" fill="#e88a06"/><path d="M33 28.55q.95 3.25 3.1 6.3l-2.5 3.7-8.1-2.95-.9-.6.65-5.15q3.35 3.65 7.75-1.3" fill="#fcd322"/><path d="m46 36.35 2.05.9 10.9-3.95-.7 2.25-18.5 9.8-1.7-1.2 6.9-4 1.05-3.8" fill="#b05c05"/><path d="m26.6 58.1-2 2.1-3.1-2.3 3.3-6 1.8 6.2" fill="#010101" fill-opacity="0"/></g><g id="E" fill-rule="evenodd"><path d="M15.9 3.45 19 1.4 51.3 0l1 1.55-5.9.15-20.45 5.95-1.35.4-2.35.7L18 9.95l-2.5 16.6 7.85 16.85-.85-.35-1.05-.4L13.9 27.1l3.05-17.85 26.15-7.5-8 .2-14.9.35-2.55 1.95-3.85 2.9-2.5 13.1-1.5 7.7 6.45 12.55-2.6-1-1.95-4.25L9 29.3l-.7-1.5-5.75-4.45-2.5-15.9L6.1 5.9l.3 1.4.15.95L8 15.95l2.15 2.9 2.25-11.2.4-2.15 3.1-2.05M2.6 15.3l1.05 6.55 5.05 4.1.95-4.65-2.75-3.6-.4-2.15L5 7.7l-3.5 1 1.1 6.6" fill="#7d3d0e"/><path d="m12.8 5.5-.4 2.15-5.85.6-.15-.95 6.4-1.8M18 9.95l4.25-1.2q6.65-.15 6.95 29.7V42Q26.9 10.25 18 9.95m7.95-2.3L46.4 1.7l5.9-.15q12.55 21.3-19.7 44.25.7-31.1-6.65-38.15m12.1 10q-3.85-6-9.7-9.5 1.85 8.05 9.7 9.5" fill="#a25021"/><path d="M15.9 3.45 12.8 5.5 6.4 7.3l-.3-1.4 9.8-2.45" fill="#35150c"/><path d="M16.25 40.5 9.8 27.95l1.5-7.7 1.65-1.65 2.95-9.25.65-1.95 3.8-1.15 14.75-4.3 8-.2-26.15 7.5L13.9 27.1l7.55 15.55-2.5-1.05-2.7-1.1M2.6 15.3l1.35 2.6 2.55-2.35.4 2.15 2.75 3.6-.95 4.65-5.05-4.1L2.6 15.3" fill="#e88a06"/><path d="m11.3 20.25 2.5-13.1 2.1 2.2-2.95 9.25-1.65 1.65m6.35-16L20.2 2.3l14.9-.35-14.75 4.3-2.7-2M6.5 15.55 3.95 17.9 2.6 15.3 1.5 8.7l3.5-1 1.5 7.85" fill="#fcd322"/><path d="m12.4 7.65-2.25 11.2L8 15.95l-1.45-7.7 5.85-.6M23.35 43.4 15.5 26.55 18 9.95q8.9.3 11.2 32.05l.05.1.2 3.8-3.75-1.55-2.35-.95m-1.1-34.65 2.35-.7q7.6 9.25 4.6 30.4-.3-29.85-6.95-29.7m6.1-.6q3.55 5.65 9.7 9.5-7.85-1.45-9.7-9.5" fill="#7d3114"/><path d="m9 29.3 2.7 5.95q-4.45 5-9.3 3.65L9 29.3m4.8-22.15 3.85-2.9 2.7 2-3.8 1.15-.65 1.95-2.1-2.2" fill="#fff"/><path d="m24.6 8.05 1.35-.4Q33.3 14.7 32.6 45.8l-1.25.85-1.9-.75-.2-3.8-.05-.1v-3.55q3-21.15-4.6-30.4m13.45 9.6q-6.15-3.85-9.7-9.5 5.85 3.5 9.7 9.5" fill="#de6e35"/><path d="m11.7 35.25 1.95 4.25 2.6 1 2.7 1.1q-8.15 7.25-15.9 3.65L2.4 38.9q4.85 1.35 9.3-3.65" fill="#b9d6ff"/><path d="m22.5 43.05.85.35 2.35.95Q18.15 53.2 6.35 53.8l-2.4-4.5q8.1 4.55 18.55-6.25" fill="#7979d4"/><path d="m21.45 42.65 1.05.4Q12.05 53.85 3.95 49.3l-.65-1.4-.25-2.65q7.75 3.6 15.9-3.65l2.5 1.05" fill="#95a8ed"/><path d="m8.3 27.8.7 1.5-6.6 9.6.65 6.35.25 2.65q-1.7-4-3.3-9.1l8.3-11" fill="#48478d"/></g><g id="F" fill-rule="evenodd"><path d="m46.6 3.3 4-1.75 10.45 42.3q-1.35 4.1-3.35 5.8L46.6 3.3" fill="#7979d4"/><path d="M53.05 50.75q-2.15-.55-4.75-2.7-13.85-23.6-6.55-42.65l2.15-.95q3.65 14.8 2.45 27.6 6.8 8.35 6.7 18.7" fill="#b9d6ff"/><path d="M57.7 49.65q-2 1.75-4.65 1.1.1-10.35-6.7-18.7 1.2-12.8-2.45-27.6l2.7-1.15 11.1 46.35" fill="#95a8ed"/><path d="M52.7.65 54.2 0l8.7 35.15-.85 4.95L52.7.65m-4.4 47.4q-2.2-1.75-4.65-4.6-8.9-16.15-4.05-37.1l2.15-.95q-7.3 19.05 6.55 42.65" fill="#48478c"/><path d="m50.6 1.55 2.1-.9 9.35 39.45-1 3.75L50.6 1.55" fill="#f3b3a3"/><path d="m59.7 87.7-8.35 3.9-2.8-1.1-2.55-1-3.5-1.4-1.9-.75 1.6-3.65.5-1.3H29.8L10.3 70.85 8.95 72.2l-5.1 5.25L2.3 79q-4.9-17.35.75-41.2 8.5 14.05 19.6 25.75l2 2.05 6.65 6.35 1.65.35 14.45 2.9 2.5.45 3.65.75 1.75.35 1.05.2 1.1.2-2.7 7.2 1.05.7 1.4 1 2.5 1.65M5.4 74.15l4.55-5.3 20.55 12.1 1.35-.1 13.35-1.1-1.4 3.35-1.4 3.35 3 1.3 3.9 1.65 2.05.9 5.2-2.6-1.7-1.7-.9-.9-.8-.75 2.5-5.65-2.55-.55-22.75-4.95q-10-8.55-18.5-19.35-4.25-5.35-8.1-11.3l-.6 3.4-.5 3.15-.4 3.6-.4 5.8Q1.6 68 3.65 76.15l1.75-2" fill="#7d3d0e"/><path d="m3.15 45.95.6-3.4q3.85 5.95 8.1 11.3l-8.7-7.9" fill="#fff"/><path d="m69.35 88.35-1.65-.2 1.75-10.8q11-5.85 8.9-30.15l4.8 8.85q.95 7.7-.2 14.65l-1.5-4.2Q79.4 77 72.7 78.7v5.85l5.05-.25-8.4 4.05m-42-47.6V23.6q1.35 21.9 16.4 17.15l.9 2.4-1.85 2.4q-9.05.7-15.45-4.8M42.5 88.1l3.5 1.4-10.35 5.95-22.9-2.05L4.5 78.65q11.25-5.55 23.3 13.3l3.45 1.45 11.25-5.3" fill="#735883"/><path d="M78.2 45.75q3.6 3.7 6.15 9.05 2.35 20.6-6.5 32.2-4.7 1.65-8.5 1.35l8.4-4.05.9-.4q3.2-6.2 4.3-13.2 1.15-6.95.2-14.65l-4.8-8.85-.15-1.45m-3.5 4.6-.2 2L62.4 36.9l.55-1.2q5.85 6.35 11.75 14.65M63.75 82.3l-.45 1.45-6.1 2.3-1.4-1 7.95-2.75m-36.4-58.7v17.15q3.2 7.55 10.4 11.55l-1 1.25Q18.8 44.2 27.35 23.6M5.4 74.15l-1.75 2Q1.6 68 1.85 58.5q.95 9.6 3.55 15.65M54.85 86l1.7 1.7-5.2 2.6-2.05-.9 5.55-3.4M46 89.5l2.55 1L35 97.7 12.05 95q-5.15-7.9-8.2-17.55l.65 1.2 8.25 14.75 22.9 2.05L46 89.5" fill="#f3b3a3"/><path d="m70.35 41.75 2.45-2.1q9 3.95 13.6 14.7 2.1 23.85-7.2 33.7-11.9 6.2-16.7-1.35l.8-2.95.45-1.45 2-7.05 3.6-2.9 1.5-1.2q1.05-.8 2.05-1.65l1.6-17.15.2-2 .15-1.85v21.45l-8 6.2L64.5 87q1.5.8 3.2 1.15l1.65.2q3.8.3 8.5-1.35 8.85-11.6 6.5-32.2-2.55-5.35-6.15-9.05-2.55-2.55-5.6-4.3l-1.3 1.6-.95-1.3m-19 49.85L34.8 99.35l-22.85-2q-6.7-8-9.65-18.35l1.55-1.55Q6.9 87.1 12.05 95L35 97.7l13.55-7.2 2.8 1.1m-28.7-28.05 2.45-5.05 12.75 7 2.3 1.25.75.7 1 .95 1.85 1.65 3.5 3.2 1.25 1.1.85.8.55.5-2.5-.45-7.35-6.05-8.7-5.05L26 61l-1.35 4.6-2-2.05m14.7-7.6q-23.7-11.9-10.4-35.85l16.3 12.95 3.05 9.85.45 1.4-1.4 1.75-6.4 7.9-1.6 2m5.45-10.4 1.85-2.4-.9-2.4-1.95-5.45-14.45-11.7q-8.55 20.6 9.4 29.95l1-1.25 5.05-6.75" fill="#533f5f"/><path d="m71.3 43.05 1.3-1.6q3.05 1.75 5.6 4.3l.15 1.45q2.1 24.3-8.9 30.15l-1.75 10.8Q66 87.8 64.5 87l2.35-10.85 8-6.2V48.5q-1.65-2.9-3.55-5.45m-27.55-2.3Q28.7 45.5 27.35 23.6L41.8 35.3l1.95 5.45M31.35 64.1q3.2 3.9 1.6 8.2l-1.65-.35-6.65-6.35L26 61l5.35 3.1m-22.4 8.1 1.35-1.35L29.8 82.4h12.9l-.5 1.3-12.85.85L8.95 72.2" fill="#d1b9de"/><path d="m62.5 86.7-2.8 1-2.5-1.65 6.1-2.3-.8 2.95M37.85 65.5l2-4.75-2.5-4.8 1.6-2 2.45 4.9.75 1.55-.6 1.9-1.4 4.45-2.3-1.25m8.45-22.6 8.45 2.65q4.6-4.9 7.3-12.1 4.55 3.55 8.3 8.3l.95 1.3q1.9 2.55 3.55 5.45l-.15 1.85q-5.9-8.3-11.75-14.65l-.55 1.2q-3 6.15-7.45 10.25l-8.2-2.85-.45-1.4" fill="#35150c"/><path d="M74.5 52.35 72.9 69.5q-1 .85-2.05 1.65-1.7-16.7-8.25-26.8l-3.95 3.4q-1.35 28.05 4.5 5.7Q59.9 72.35 57 59.5V48.75q-1.25 16.4-8.5 25.6l-1.25-1.1q8.45-12 7.7-23.6H52.5q-.25 11.9-8.75 20.4L41.9 68.4q8.5-4.7 9.4-17.4l.05-1.6-2.55-1.1q-1.3 9.35-7.25 14l.6-1.9q4.8-5.05 5.3-12.65l-2.1-1.7 1.4-1.75 8.2 2.85q4.45-4.1 7.45-10.25l12.1 15.45m-5.15 20-3.6 2.9-2 7.05-7.95 2.75-1.05-.7 2.7-7.2 4.25-1.45q3.55-10.85 2.7-26.05 3.4 10.9 4.95 22.7m-14.05 4.4-1.75-.35 4.8-8-3.05 8.35" fill="#7d3114"/><path d="M27.35 40.75q6.4 5.5 15.45 4.8l-5.05 6.75q-7.2-4-10.4-11.55m4 23.35 8.7 5.05 7.35 6.05-14.45-2.9q1.6-4.3-1.6-8.2M42.2 83.7l-1.6 3.65 1.9.75-11.25 5.3-3.45-1.45Q15.75 73.1 4.5 78.65l-.65-1.2 5.1-5.25 20.4 12.35 12.85-.85m40.75-13q-1.1 7-4.3 13.2l-.9.4-5.05.25V78.7q6.7-1.7 8.75-12.2l1.5 4.2" fill="#9f85ad"/><path d="m70.85 71.15-1.5 1.2q-1.55-11.8-4.95-22.7.85 15.2-2.7 26.05l-4.25 1.45-1.1-.2q3.55-5.1 3.25-10.6l-1.25 2.05-4.8 8-3.65-.75-.55-.5Q55.4 70.25 57 59.5q2.9 12.85 6.15-6.05-5.85 22.35-4.5-5.7l3.95-3.4q6.55 10.1 8.25 26.8m-27.1-1.1q8.5-8.5 8.75-20.4h2.45q.75 11.6-7.7 23.6l-3.5-3.2" fill="#a25021"/><path d="M48.5 74.35q7.25-9.2 8.5-25.6V59.5q-1.6 10.75-7.65 15.65l-.85-.8M41.55 62.3q5.95-4.65 7.25-14l2.55 1.1-.05 1.6q-3.95 13.75-10.4 16.45l-.75-.7 1.4-4.45m3.8-16.25 2.1 1.7q-2.2 6.8-6.05 11.1l-2.45-4.9 6.4-7.9m9.95 30.7 3.05-8.35 1.25-2.05q.3 5.5-3.25 10.6l-1.05-.2" fill="#de6e35"/><path d="m31.85 80.85-1.35.1-20.55-12.1-4.55 5.3Q2.8 68.1 1.85 58.5l.4-5.8q7 5.65 9.7 15.25l19.9 12.9m21.25-2.7 2.55.55-2.5 5.65.8.75-8.55 2.65-3-1.3 1.4-3.35 9.3-4.95" fill="#b05c05"/><path d="m2.25 52.7.4-3.6q9.15 6.1 13 19.2l15.95 9.85h11.35l2.25 1.6-13.35 1.1-19.9-12.9q-2.7-9.6-9.7-15.25m51.7 32.4.9.9-5.55 3.4-3.9-1.65 8.55-2.65" fill="#e88a06"/><path d="M51.3 51q-.9 12.7-9.4 17.4l-1-.95q6.45-2.7 10.4-16.45m-3.85-3.25q-.5 7.6-5.3 12.65l-.75-1.55q3.85-4.3 6.05-11.1" fill="#ffd18a"/><path d="m2.65 49.1.5-3.15 8.7 7.9q8.5 10.8 18.5 19.35l22.75 4.95-9.3 4.95 1.4-3.35-2.25-1.6H31.6L15.65 68.3q-3.85-13.1-13-19.2" fill="#fcd322"/></g><g id="j"><use ffdec:characterId="23" height="57.6" transform="translate(0 11.95)" width="40.25" xlink:href="#v"/><use ffdec:characterId="24" height="49.05" transform="translate(8.45)" width="46.1" xlink:href="#w"/></g><g id="G" fill-rule="evenodd"><path d="M38 51.35q3.15-21-9.45-44.5L24.65.1 26.4 0q18.75 28.75 12.1 54.8l-1.3.8.8-4.25M.7 17.9q3.65 8.65 7.25 15.35Q22.7 60.6 37.2 55.6 18.4 66.35 0 19.85l.7-1.95" fill="#48478d"/><path d="m24.65.1 3.9 6.75q12.6 23.5 9.45 44.5-1.9-22.3-13.75-39.05l-1.3 1.7L9.8 30.8l-1.85 2.45Q4.35 26.55.7 17.9 7.3 1.25 24.65.1" fill="#7979d4"/><path d="m38 51.35-.8 4.25q-14.5 5-29.25-22.35L9.8 30.8q5.9 13 13.15 17.5 3.9 2.35 8.25 2.3 3.2-3.05 2.45-9.6-1.1-9.7-10.7-27l1.3-1.7Q36.1 29.05 38 51.35" fill="#95a8ed"/><path d="M33.65 41q.75 6.55-2.45 9.6-4.35.05-8.25-2.3-9.8-32.9 10.7-7.3" fill="#fff"/><path d="M9.8 30.8 22.95 14q9.6 17.3 10.7 27-20.5-25.6-10.7 7.3Q15.7 43.8 9.8 30.8" fill="#b9d6ff"/></g><g id="w" fill-rule="evenodd"><path d="M47.35 46.55 41.7 45.2l-4.25-3.55q2.45-12.55-6.85-20.3-2-4.4-5-8l15.15 8.5 6.6 24.7M20.1 11.95l.35-1.5 2.45 1.4 3.75 6.05-2.15-1.4q-1.9-2.55-4.4-4.55m-.8 3.85.5-2.3 2.65 2.75-3.15-.45" fill="#a25021" transform="translate(-8.45)"/><path d="m24.5 16.5 2.15 1.4-3.75-6.05.8.45q2.6 3.15 4.45 6.6 3.35 9.15 3.65 18.7l-1.15-.7q-.45-12.7-6.15-20.4m-5.2-.7 3.15.45.8 1.05.05.05q4.45 9.1 5.5 18.4L18.7 18.4l.6-2.6m18.15 25.85L34.3 39.3q-.25-10.2-3.7-17.95 9.3 7.75 6.85 20.3" fill="#de6e35" transform="translate(-8.45)"/><path d="m42.8 17.5.55 1.25 8.1 28.75-4.1-.95-6.6-24.7-15.15-8.5q3 3.6 5 8 3.45 7.75 3.7 17.95l-1.45-1q-.1-10.75-4.7-19.4-1.85-3.45-4.45-6.6l-.8-.45-2.45-1.4.7-3.25L42.8 17.5m-22.7-5.55q2.5 2 4.4 4.55 5.7 7.7 6.15 20.4l-1.05-.7q-.95-11.6-6.3-18.85l-.05-.05-.8-1.05-2.65-2.75.3-1.55" fill="#7d3114" transform="translate(-8.45)"/><path d="m42.8 17.5-.55-1.4L21.5 5.65l.35-1.7L43 14.9q7.9 16.25 11.55 34.15L43.9 47.4l-2.2-2.2 5.65 1.35 4.1.95 1.55.35q-4-15-9.65-29.1l-.55-1.25" fill="#35150c" transform="translate(-8.45)"/><path d="M21.5 5.65 42.25 16.1l.55 1.4L21.15 7.2l.35-1.55m21.85 13.1Q49 32.85 53 47.85l-1.55-.35-8.1-28.75" fill="#f3b3a3" transform="translate(-8.45)"/><path d="m41.7 45.2 2.2 2.2-17.2-2.7L8.45 24.45 14.2 0l7.65 3.95-.35 1.7-.35 1.55-.7 3.25-.35 1.5-.3 1.55-.5 2.3-.6 2.6 10.1 17.35.8.45 1.05.7 1.15.7 1.05.7 1.45 1 3.15 2.35 4.25 3.55m-17.45-5.6 3.1 3.5 12.2 2.1-12-8.2L17.5 18.65l2.95-13.8-1.3-.65-1.35-.7-2.65-1.4-3.2 14.25-1.7 7.65 1.4 1.5 12.6 14.1" fill="#7e3e0e" transform="translate(-8.45)"/><path d="m19.15 4.2 1.3.65-2.95 13.8L27.55 37l12 8.2-12.2-2.1-3.1-3.5 2.45-1.55L15.75 18.9l3.4-14.7" fill="#e68906" transform="translate(-8.45)"/><path d="m24.25 39.6-12.6-14.1L15 21.1l11.7 16.95-2.45 1.55m-12.3-23.25 3.2-14.25 2.65 1.4-2.45 9.7-3.4 3.15" fill="#fcd322" transform="translate(-8.45)"/><path d="M28.8 35.75q-1.05-9.3-5.5-18.4 5.35 7.25 6.3 18.85l-.8-.45m4.05 2.55-1.05-.7q-.3-9.55-3.65-18.7 4.6 8.65 4.7 19.4" fill="#ffd18a" transform="translate(-8.45)"/><path d="m11.65 25.5-1.4-1.5 1.7-7.65 3.4-3.15 2.45-9.7 1.35.7-3.4 14.7L26.7 38.05 15 21.1l-3.35 4.4" fill="#fff" transform="translate(-8.45)"/></g><g id="H" fill-rule="evenodd"><path d="m32.1 24.95-1.8 3.2 9.05-2.2 6.25-7.8 22.9-14.3H54.65L32.1 20.75v4.2m-3.6 3.85 1.7-2.85 1-5.55L54.25 2.95q10.5-1 17 .45-4.2 2.3-8.2 4.7-8.85 5.3-16.55 10.8l-6.45 7.85-9.3 2.3-2.75.7.5-.95" fill="#35150c"/><path d="M63.05 8.1q4-2.4 8.2-4.7-6.5-1.45-17-.45l1.3-1Q69.9-.25 74 3.55l-.65 14.3-5.15 1.85-.35-11.65Q59.7 13.2 54.65 22.2l-3.55 1.5 1.6-4-3.5 4.5Q37.95 29 27.65 34.35q7.65-5.25 17.6-9.75 5.7-5.1 11.55-9.75l3.35-2.55q4.2-3.2 8.5-6.1l-5.6 1.9" fill="#a25021"/><path d="m30.2 25.95-1.7 2.85-7 7.5-.5-1 1.95-3.45 7.25-5.9m.55 3.1 9.3-2.3 6.45-7.85q7.7-5.5 16.55-10.8l5.6-1.9q-4.3 2.9-8.5 6.1-9 3.25-15.8 11.95 6.2-6.15 12.45-9.4-5.85 4.65-11.55 9.75-9.95 4.5-17.6 9.75l-.1.05-2.4 1.25-2.55.45 6.2-5.5v1.9l1.95-3.45" fill="#de6e35"/><path d="m74.95 17.3-.05 1.3-20 7.35-2.25.8-7.45 2.75-8.3 4.95-10.2 1.85-6.6 1.2-1.05-2.95-2.9 6.85 1.35 4.45 5-1.75 8-2.85h12.3l6.1-6.8 25.85-11.5v.9l-21.3 9.6-3.1 1.4-.8.4-.55.65-9.15 11.55 6.6 8.1.6-.5 1.3-1.05 1.9-1.55-3.65-7.95 6.5-6.5 1.2-1.25 20.3-8.55-.05 1.05-18.05 7.9-1.4.6-1.25 1.4-5.5 6.2 2.7 4.85.8 1.4.55 1.05-2.65 3.4-3.1 1.15-1.35-1.4-1.65-1.75-1.5-1.55-4.5-4.7 3.65-5.2H31.05L19.7 46.75l-1.05.4-2.65.95-.8-3.65-.85-3.65 3.9-9.15.7-.5.7 1.35L21 35.3l.5 1 1.1-.2 2.55-.45L36.4 33.7l8.55-5.75L68.2 19.7l5.15-1.85 1.6-.55" fill="#7d3d0e"/><path d="m18.95 31.15 8.05-6.1 1.5-5.9 24.6-18 1.85-.3L30.5 19.7 29.1 26l-9.45 6.5-.7-1.35M57.5.5q14.05-1.75 17.95 2.75l-.5 14.05-1.6.55.65-14.3q-4.1-3.8-18.45-1.6L57.5.5" fill="#592311"/><path d="M27.65 34.35Q37.95 29 49.2 24.2l3.5-4.5-1.6 4 3.55-1.5q5.05-9 13.2-14.15l.35 11.65-23.25 8.25-8.55 5.75-11.25 1.95 2.4-1.25.1-.05" fill="#7d3114"/><path d="m74.9 18.6-.15 4.35-25.85 11.5-6.1 6.8h-1.75q4.9-6.9 12.85-11.5l1-3.8 20-7.35m-.15 5.25-.15 4.35-20.3 8.55L53.1 38l.35-4.55 21.3-9.6" fill="#b05c05"/><path d="m74.15 40.8-.1 1.8-3.25 2.35-8.45 5.2-2.4 1.3-1.85.9-8.35 3.7 2.65-3.4L74.15 40.8m-49.8 20.55L13.6 49.2l1.6-4.75.8 3.65 2.6 3.35 2.65 3.35-2.6-7.65 1.05-.4.6 1.2 5.85 12.85 1.6-.65 1.55-.65 1.95-9.5 3.4-3.6.25-3.8h1.3l-.25 2.1-.25 2.15-3.4 4.2-1.55 7.3 1.45-.7 4.25-2.2 5.7-2.95 1.5 1.55L26 62.1l-.7.35-.95-1.1" fill="#533f5f"/><path d="m74.55 29.25-.4 11.55L52.4 52.65l-.55-1.05 14.7-8.95-10.05-5.5 18.05-7.9M32.2 57.65l1.25-6.8 3.4-3.4V44.7h.95l-1.35 10.75-4.25 2.2m-13.6-6.2L16 48.1l2.65-.95-.05 4.3m11.85-3.5-2-2.05 5.3-1.4-3.3 3.45" fill="#9f85ad"/><path d="M54.95.85 57.5.5l-1.95 1.45-1.3 1L31.2 20.4l-1 5.55-1.1.05 1.4-6.3L54.95.85" fill="#d86a32"/><path d="m42.3 81.6-21.2 6.15-6.95-9.3 10.8-14.9L37.2 58.9q9-1.3 3.3 20.4 9.5-13.8 8.05-22.1 4.5 6.2-6.25 24.4M19.65 32.5 29.1 26l1.1-.05-7.25 5.9L21 35.3l-1.35-2.8m7.05 3.8-1.2 4.05 6.7-2.25-4.85 3-4.85 3-5 1.75-1.35-4.45 2.9-6.85 1.05 2.95 6.6-1.2m33.45-24-3.35 2.55q-6.25 3.25-12.45 9.4 6.8-8.7 15.8-11.95M49 35.9l-6.9 11.15 4.95 8-.6.5-6.6-8.1L49 35.9" fill="#fff"/><path d="M32.1 24.95v-4.2l22.55-16.9H68.5l-22.9 14.3-6.25 7.8-9.05 2.2 1.8-3.2" fill="#502213"/><path d="M27.35 41.1 33.8 39q7.95-6.4 18.05-9.75l.8-2.5 2.25-.8-1 3.8q-7.95 4.6-12.85 11.5H30.5l-8 2.85 4.85-3m21 12.9L44 46.2l5.35-6.6 1-4.75 3.1-1.4L53.1 38l-6.5 6.5 3.65 7.95-1.9 1.55" fill="#e88a06"/><path d="m26.7 36.3 10.2-1.85 8.3-4.95 7.45-2.75-.8 2.5Q41.75 32.6 33.8 39l-6.45 2.1 4.85-3-6.7 2.25 1.2-4.05m23.65-1.45-1 4.75L44 46.2l4.35 7.8-1.3 1.05-4.95-8L49 35.9l.55-.65.8-.4" fill="#fcd322"/><path d="m53.85 39.15 7.55 4-10.35 7.05-2.7-4.85 5.5-6.2m-17 5.55v2.75l-3.4 3.4-1.25 6.8-1.45.7 1.55-7.3 3.4-4.2.25-2.15h.9m-9.1 15.45-1.6.65-5.85-12.85 8.15-2.05 2 2.05-.7.7-2 11.5" fill="#d1b9de"/><path d="m56.5 37.15 10.05 5.5-14.7 8.95-.8-1.4 10.35-7.05-7.55-4 1.25-1.4 1.4-.6m-20.05 18.3L37.8 44.7h-1.85l.25-2.1h5.1l-3.65 5.2 4.5 4.7-5.7 2.95M34.9 42.6l-.25 3.8-3.4 3.6-1.95 9.5-1.55.65 2-11.5.7-.7 3.3-3.45-5.3 1.4-8.15 2.05-.6-1.2 11.35-4.15h3.85m-16.25 4.55 2.6 7.65-2.65-3.35.05-4.3" fill="#735883"/><path d="m28.5 28.8-.5.95 2.75-.7-1.95 3.45v-1.9l-6.2 5.5-1.1.2 7-7.5" fill="#ffd18a"/><path d="M62.35 50.15q-4.05 11.4-.55 21.3l-1.1 2.65q-3.75-10-.75-22.65l2.4-1.3m-48.2 28.3-1.2-1.7 11.4-15.4.95 1.1.7-.35-1.05 1.45-10.8 14.9" fill="#48478d"/><path d="m59.05 76.8-13.95 4 9.15-23.6h-7.6l3.1-1.15 8.35-3.7q-3.6 13.85.95 24.45m-15.4-22.75 1.65 1.75-8.1 3.1-12.25 4.65L26 62.1l17.65-8.05" fill="#7979d4"/><path d="m60.7 74.1-1.05 2.5-.6.2q-4.55-10.6-.95-24.45l1.85-.9q-3 12.65.75 22.65" fill="#f3b3a3"/><path d="m45.3 55.8 1.35 1.4h1.9Q50 65.5 40.5 79.3q5.7-21.7-3.3-20.4l8.1-3.1" fill="#b9d6ff"/><path d="m45.1 80.8-2.8.8q10.75-18.2 6.25-24.4h5.7L45.1 80.8" fill="#95a8ed"/><path d="M17.3 86.05Q29.8 80.55 40.7 68l2.3 2 16.3-6.6.8 1.4q-11.2 4-17.25 10.25l-5.75 2.4q-11.15 17.9-20.65 25.3Q9.95 89 9 73.65l3.65-6.3q-.05 13.05 4.65 18.7" fill="#e88a06"/><path d="m40.7 68-2.35-2.05q-11.1 13.9-21.05 20.1-4.7-5.65-4.65-18.7L9 73.65q.95 15.35 7.45 29.1 9.5-7.4 20.65-25.3l5.75-2.4q8.5-5.85 17.9-9.05l-.65-1.2-.8-1.4L43 70l-2.3-2M17.3 86.05l2.75-2.9L17.7 69.2l-2.5-4.1q-2.15 13.45 2.1 20.95m24-7.3v-2l-3.8 2.7-19.65 26.9-1.25 1.75q-2.7-6.5-4.8-13.45l-.7-2.4Q9.4 86.2 8.2 79.9l-.55-2.8-.45-2.65-.3-2.05 7.45-10.8 5.3 6.05 1.4 14.4 17.75-18.8 3.95 5.1L60.15 61l3.1 6.2-2.05.6-1.75.6q-9.5 3.3-18.15 10.35" fill="#7d3d0e"/><path d="m60.1 64.8.65 1.2q-9.4 3.2-17.9 9.05Q48.9 68.8 60.1 64.8m1.1 3q-2.35 19.05-18.25 35.45l.1-1.45q2.9-3.05 5.3-6.3 7.15-9.7 10-21.45l1.1-5.65 1.75-.6" fill="#f3b3a3"/><path d="M40.05 80.55q-1 3.35-1.65 6.95l-16.05 23.4-2.25-2.25 19.95-28.1m.85.45.4-2.25q8.65-7.05 18.15-10.35l-1.1 5.65-9.15 3q-2.65 10.55-.85 18.45-2.4 3.25-5.3 6.3l1.65-22.95L40.9 81M11.1 92.25 4.15 99.9q-.95-10.3 4.05-20 1.2 6.3 2.9 12.35" fill="#735883"/><path d="M58.35 74.05q-2.85 11.75-10 21.45-1.8-7.9.85-18.45l9.15-3" fill="#9f85ad"/><path d="M17.3 86.05q9.95-6.2 21.05-20.1L40.7 68Q29.8 80.55 17.3 86.05" fill="#fcd322"/><path d="M41.3 76.75v2L40.9 81q-2.4 13.7-1.7 25.85l3.75-3.6q15.9-16.4 18.25-35.45l2.05-.6Q60.7 87.8 37.8 111.35q-1.1-11.25.1-20.7L23.05 114.3l-6.45-6.2 1.25-1.75 2.25 2.3 2.25 2.25L38.4 87.5q.65-3.6 1.65-6.95.55-1.95 1.25-3.8m-34.1-2.3.45 2.65L3.1 87.15v13.95l1.05-1.2 6.95-7.65.7 2.4L1.55 105.6 0 87.3l7.2-12.85" fill="#533f5f"/><path d="m42.95 103.25-3.75 3.6Q38.5 94.7 40.9 81l3.8-2.15-1.65 22.95-.1 1.45M4.15 99.9l-1.05 1.2V87.15L7.65 77.1l.55 2.8q-5 9.7-4.05 20" fill="#d1b9de"/><path d="M17.3 86.05q-4.25-7.5-2.1-20.95l2.5 4.1 2.35 13.95-2.75 2.9" fill="#b05c05"/><path d="M41.3 76.75q-.7 1.85-1.25 3.8l-19.95 28.1-2.25-2.3 19.65-26.9 3.8-2.7" fill="#cfb7dd"/><path d="m11.85 71.85-1.15.9L7.2 90.7l-1.35-1.55q.75-8.1 3.85-16.9l9.7-7.7L30.65 75.9l-1.2 1.8-4.35-5.2-1.75-2.15V82.5L21.7 69.1 19.25 66l-2.35 1.85-1.95 1.55-2 1.55-1.1.9" fill="#502213"/><path d="m11.85 71.85 1.1-.9q-3.8 14.5-1.75 28.3 1.65 9.6 2.55-12.15l1.2-17.7-.4 15.95-.15 5-.2 7.75q-2.35 10.75-3.95 0-2.05-11.05 1.6-26.25m7.4-5.85 2.45 3.1 1.65 13.4 1.75-10 4.35 5.2-4.85 7.4v20.5l-6.75 10.6-1.3-1.65V91.1l2.7-25.1" fill="#7d3114"/><path d="m7.2 90.7 3.5-17.95 1.15-.9q-3.65 15.2-1.6 26.25l-.15 2.8q-1.05-4.05-1.6-8.7l-1.3-1.5m5.75-19.75 2-1.55-1.2 17.7q-.9 21.75-2.55 12.15-2.05-13.8 1.75-28.3m10.4 11.55V70.35l1.75 2.15-1.75 10m6.7.3 1.2 20.4-11.4 22.2-.75.75-.85-1.2-.2-5.25 10.2-15.6L27 85.7l3.05-2.9M14.4 90.35l.15-5q.85-9.8 2.3-16.6l-1.25 19.1.95 11.7v2.25l-1.45 10.75q-2.1-3.3-3.55-7.2 4.3.8 2.85-15" fill="#de6e35"/><path d="m29.45 77.7 1.2-1.8 4.6 28.55q-8.3 14.95-16.3 23.6Q3.8 111.1 5.85 89.15L7.2 90.7l1.3 1.5q.55 4.65 1.6 8.7.65 2.3 1.45 4.45 1.45 3.9 3.55 7.2l1.45 2 1.3 1.65 6.75-10.6V85.1l4.85-7.4m-9.6 47.7q7.75-8.3 13.6-22.15l-2.85-21-.45-3.25-4.5 6.35 1.15 19.5-8.8 12.9q-3.45-3.8-5.9-8.9-2.2-4.4-3.7-9.8l-1.5-6.4q.05 5.05 1.1 10 1.15 5.35 3.5 10.6 2.65 5.9 6.75 11.7l.85 1.2.75-.75" fill="#35150c"/><path d="m14.95 69.4 1.95-1.55-.05.9q-1.45 6.8-2.3 16.6l.4-15.95m-4.85 31.5.15-2.8q1.6 10.75 3.95 0l.2-7.75q1.45 15.8-2.85 15-.8-2.15-1.45-4.45m5 11.65 1.45-10.75v12.75l-1.45-2" fill="#ffd18a"/><path d="M16.9 67.85 19.25 66l-2.7 25.1v8.45l-.95-11.7 1.25-19.1.05-.9m1.15 51.85.2 5.25q-4.1-5.8-6.75-11.7l.6-4.4q2.45 5.1 5.9 8.9l.05 1.95M8 102.65q-1.05-4.95-1.1-10l1.5 6.4-.4 3.6" fill="#fff"/><path d="m30.6 82.25-.55.55L27 85.7l1.25 18.4-10.2 15.6-.05-1.95 8.8-12.9-1.15-19.5 4.5-6.35.45 3.25M8.4 99.05q1.5 5.4 3.7 9.8l-.6 4.4Q9.15 108 8 102.65l.4-3.6" fill="#fcd322"/><path d="m19.85 125.4 11.4-22.2-1.2-20.4.55-.55 2.85 21q-5.85 13.85-13.6 22.15" fill="#f3b3a3"/></g><g id="I" fill-rule="evenodd"><path d="m64.45 12 22.15.8-4 2.8.15 14.2-25.1 18.95-5.35-1.9-1.2-2.3 6.85 1.5 22.15-17.4v-11.3l-20.65 14.4L46.6 38.7l-1.8 1-1.65.9-4.2 2.25-5.2 2.85-2.05-.75-7.2-2.5L22.45 47l-.35.8-1 .9-4.9 4.5-1.7 1.55 7.85-2.2.35 1-10.85 3.65L0 68V52l2.25-2.05L4.5 47.8l8.45-7.9 1.7-7.15 4.8-3.25.8-2.9.65-2.55.55-2.05.75-2.65.55-2.2.75-2.7 2.2-1.85 3-2.35q9-6.9 18.25-10.25l-4.6 11.25v2.4l-11.4 6.3-1.8 3.4h2.95L29.55 34.3h4.5L54.6 19.25l7.25-5.3 2.6-1.95m8.8 2.1-8.3-.1L36 35.15l-2.1 1.55h-5.05l-2.7 4.05 7.35 2.55 3.45-1.85 8.2-4.25 15.2-7.95 20.5-15.05-4.5-.05-3.1-.05M44.1 3.6l.55-1.3q-5.85 2.65-11.3 6.35-4.4 3-8.5 6.7l-3.8 14.5-5.15 3.85-2.05 7.1-3.8 3.65-3.9 3.65L4 50.15l-2.55 2.4.65 10.15.1 2 2.4-2.2 16.45-15.7.6-1.05L27.9 35.2l2.5-10.65-3.45 1.25 3.25-7.2 7.8-5.05 2.45-1.6L44.1 3.6" fill="#7d3d0e"/><path d="m36.95 41.45 36.3-27.35 3.1.05-31.2 23.05-8.2 4.25m-3.6-32.8q5.45-3.7 11.3-6.35l-.55 1.3q-19.3 8.7-21.45 35.05L2.1 62.7l-.65-10.15L4 50.15l1.25 6.15 2.1-2-1.2-6.2 3.9-3.65.9 5.45L21.6 38.25q-.9-17.95 11.75-29.6m.05 53.45q-8.4-9.25 0-11.3 8.8-.05 12.9 10.95-2.4 7.95-12.9.35" fill="#fff"/><path d="m61.85 13.95-7.25 5.3-17.85 3.9 2.8-3.95q9.15 1.55 15.3-5.4l-15.3 5.4q2.25-2.85 5.15-5.5l10.15.1 7 .15M25.7 12.6l-2.2 1.85-.75 2.7q-5.85 3-8.95 1.9l5.9-6.1 6-.35M21.45 22l-.55 2.05q-9.5 4.5-10.15-1.8l1.65-1.75q.1 3.35 9.05 1.5" fill="#de6e35"/><path d="m28.7 10.25-3 2.35-6 .35-5.9 6.1-1.4 1.45-1.65 1.75-2.85 2.9-2.05 13.7L4.5 47.8l-2.25 2.15 3.55-25.9 12.65-13.2 10.25-.6m-6.5 9.1L21.45 22q-8.95 1.85-9.05-1.5 3.9 1.65 9.8-1.15" fill="#592311"/><path d="m22.75 17.15-.55 2.2q-5.9 2.8-9.8 1.15l1.4-1.45q3.1 1.1 8.95-1.9m-1.85 6.9-.65 2.55Q12.2 29.8 7.9 25.15l2.85-2.9q.65 6.3 10.15 1.8" fill="#fdcf88"/><path d="m20.25 26.6-.8 2.9-4.8 3.25-8.8 6.1 2.05-13.7q4.3 4.65 12.35 1.45m34.35-7.35L33.9 29.1q1.1-3.05 2.85-5.95l17.85-3.9" fill="#a25021"/><path d="M36 35.15 64.95 14l8.3.1-36.3 27.35-3.45 1.85 2.5-8.15m-32 15 2.15-2.05 1.2 6.2-2.1 2L4 50.15m6.05-5.7 3.8-3.65 2.05-7.1 5.15-3.85 3.8-14.5q4.1-3.7 8.5-6.7Q20.7 20.3 21.6 38.25L10.95 49.9l-.9-5.45" fill="#fcd322"/><path d="m64.45 12-2.6 1.95-7-.15-10.15-.1-2.35-.05v-2.4l22.1.75" fill="#35150c"/><path d="M54.6 19.25 34.05 34.3h-4.5l2.55-10.95h-2.95l1.8-3.4 11.4-6.3 2.35.05q-2.9 2.65-5.15 5.5l15.3-5.4q-6.15 6.95-15.3 5.4l-2.8 3.95Q35 26.05 33.9 29.1l20.7-9.85m-39.95 13.5-1.7 7.15-8.45 7.9 1.35-8.95 8.8-6.1" fill="#7d3114"/><path d="m76.35 14.15 4.5.05-20.5 15.05-15.2 7.95 31.2-23.05M38 13.55l-7.8 5.05-3.25 7.2 3.45-1.25-2.5 10.65-6.25 10.55Q11.3 52.7 4.6 62.5l-2.4 2.2-.1-2 20.55-24.05Q24.8 12.3 44.1 3.6L38 13.55" fill="#e88a06"/><path d="m22.35 52.55-7.85 2.2 1.7-1.55 5.65-2.05.5 1.4m20.8-11.95 1.65-.9q6.95 9.1 9.15 21.05l-1.1 2.35q-2.55-13.65-9.7-22.5M80.1 27v1.65l-22.15 17.4-6.85-1.5-.8-1.3 7.05.75L80.1 27m-36-23.4-3.65 8.35-2.45 1.6 6.1-9.95M21.65 45.75l-.6 1.05L4.6 62.5q6.7-9.8 17.05-16.75" fill="#f3b3a3"/><path d="m16.2 53.2 4.9-4.5.75 2.45-5.65 2.05m30.4-14.5 12.85-6.95 20.65-14.4V27L57.35 44l-7.05-.75q-1.6-2.4-3.7-4.55" fill="#8f4f0f"/><path d="m22.7 53.55-.35-1-.5-1.4-.75-2.45 1-.9.35-.8q1.15 5.3 3.3 9.35 3.95 7.3 11.15 10.55-9.25-.75-14.2-13.35M44.8 39.7l1.8-1q2.1 2.15 3.7 4.55l.8 1.3 1.2 2.3q2.15 4.45 2.9 9.75l-1.25 4.15Q51.75 48.8 44.8 39.7" fill="#48478d"/><path d="m22.45 47 2.05-4.55 7.2 2.5q-1.25.55-2.3 1.2-5.65 3.55-3.65 10.2-2.15-4.05-3.3-9.35m16.5-4.15 4.2-2.25q7.15 8.85 9.7 22.5l-1.15 1.8q-3.1-17.55-12.75-22.05" fill="#7979d4"/><path d="m36 35.15-2.5 8.15-7.35-2.55 2.7-4.05h5.05l2.1-1.55" fill="#b05c05"/><path d="m31.7 44.95 2.05.75 5.2-2.85q9.65 4.5 12.75 22.05l-1.55 1.65q-4.6-23.2-20.75-20.4 1.05-.65 2.3-1.2" fill="#95a8ed"/><path d="M50.15 66.55q-3.9 3.35-10.1 1.5L39.9 68l-1.1-.35-1.8-.75h-.1q-7.2-3.25-11.15-10.55-2-6.65 3.65-10.2 16.15-2.8 20.75 20.4M33.4 62.1q10.5 7.6 12.9-.35-4.1-11-12.9-10.95-8.4 2.05 0 11.3" fill="#b9d6ff"/></g><g id="J" fill-rule="evenodd"><path d="m40.5 26.5-.95 5.6q-6.05 20.9 0 27.3l-4.3 5.55L33 69l-.9-3.85-1.75 1.35 5.8-8.55q-1.75-28.4 5.1-48.65l1.2-1.95L40.5 26.5m21.05 12.35-1.7 5.6-12.5 25.85-1.2 1.8-6.35 4.7-1.2.35 2.15-6.2 20.8-32.1m-9.5 30.8q-4.7 9.9-14.35 18.2 1.8-3.05 3.3-6.5 6.45-4.2 11.05-11.7m-48.4-55.6L3.5 10.7Q9.55 26.5 13.45 44l-1.3-.95-8.5-29M1.2 44.1l-.05-3.2 7.2 22.75-1.9-2.05L1.2 44.1m46.15 38.75-2.2.2 2.8-2.8 1.75-.75-2.35 3.35m18.5-10.25 1.8-.8-2.3 3.05-6.1 5.5.3-.8-10 2.7 8.7-3.35 1.6-.6 6-5.7" fill="#e88a06"/><path d="m40.5 26.5 3.55-21.45-1.6 2.3-1.2 1.95q-9.4 15-12.55 32.15L28.3 44l3.65-3.1q.1 14.3-3.35 27l1.75-1.4 1.75-1.35L33 69l-1.7 2.95v-4.9l-5.05 5.05q3.75-13 4.2-27.8l-4.35 4.35q1-22.3 19.7-48.65l-3.65 32.75q-5.65 14.85-1.85 25 11-13.45 24.05-22.35-5.75 19.45-15.9 34.45l6.45-3.1-6 11.95 21.5-9.25q-7.95 12.65-17.15 21.5l1-2.25 2.8-6.25.55-1.2-10.4 2.65h-3.8l-1.55 1.5-1.8 1.7-.7.7-4.1 3.85 2.45-3.8q9.65-8.3 14.35-18.2L49.1 70.9l-2.95 1.2 1.2-1.8q8.05-12.55 12.5-25.85l1.7-5.6-4.05 3.25q-11.2 9.55-20.45 22.3l-1.8.55 4.3-5.55q-6.05-6.4 0-27.3l.95-5.6m9.2 53-1.75.75-2.8 2.8 2.2-.2 2.2-.6 10-2.7-.3.8-2.25 5.4 8.35-10.9 2.3-3.05-1.8.8-4.55 1.95-11.6 4.95" fill="#7d3d0e"/><path d="m57.5 42.1 4.05-3.25-20.8 32.1 2.95-8.55-3.1.95Q50.15 53.1 57.5 42.1m-8.4 28.8 2.95-1.25q-4.6 7.5-11.05 11.7l1-2.5 7.1-7.95M28.7 41.45Q31.85 24.3 41.25 9.3q-6.85 20.25-5.1 48.65-3.85-11 .3-36.1l-7.75 19.6M4.45 22.8l-.8-8.75 8.5 29-7.7-20.25M1.2 44.1l5.25 17.5-1-1L1.3 47.65l-.1-3.55m36.55 21.45.9-.25q-3.2 12.25-11.1 22.65l-.6.6 10.8-23m1.35 12.4 2.05-.6-.75 1.6-19.55 19.5 1 1.95Q14.2 94.45 8.6 84.9l-1.45-6.3L20 97.45l19.1-19.5m-29.85.6L7.45 66.4Q10.7 78.75 17 88.25q-4.3-2.75-7.75-9.7m52.05-4 4.55-1.95-6 5.7-1.6.6 3.05-4.35M29.45 104.8l.7 3.2-.95.45-1.25-2.9-2.7-3.6.8-.55 2.35 3.45 1.05-.05" fill="#fff"/><path d="m41.85 85.4 1.55-1.5h3.8l10.4-2.65-.55 1.2-4.65 6.45-7.2 6.2q4.4-4.1 5.25-10.55-2.95 1.15-5.9 1.1l-2.7-.25" fill="#735883"/><path d="M37.05 64.4Q46.3 51.65 57.5 42.1q-7.35 11-16.9 21.25l-3.55 1.05m9.1 7.7 2.95-1.2-7.1 7.95 1.15-3.1-3.35 1.05 6.35-4.7m-15.8-5.6-1.75 1.4q3.45-12.7 3.35-27L28.3 44l.4-2.55 7.75-19.6q-4.15 25.1-.3 36.1l-5.8 8.55m-18.2-23.45-1.35-.9.25 2.1-.3 23.3-3.2-11.2v-14.6q-2.05-9.4-3.1-18.95l7.7 20.25M5.45 60.6l2.4 15.75-2.65-2.4L6.45 81 5.1 79.85l-3.8-14.2 3.95 6q-3.35-11.7-3.95-24L5.45 60.6M49.7 79.5l11.6-4.95-3.05 4.35-8.7 3.35-2.2.6 2.35-3.35" fill="#fcd322"/><path d="m42.45 7.35 1.6-2.3L40.5 26.5l1.95-19.15m17.4 37.1q-4.45 13.3-12.5 25.85l12.5-25.85m-2.8 38-2.8 6.25q-7.35 7.3-13.2 10l2.1-1.85 2.05-1.75 7.2-6.2 4.65-6.45m-17.7-1.15-4.45 9.4-11.2 9.5 10.45-10.55 5.2-8.35m26-6.45L57 85.75l2.25-5.4 6.1-5.5" fill="#f3b3a3"/><path d="m39.35 87.8.7-.7.8 3.75-4.65 9.25q2.3-.25 4.85-1.4 5.85-2.7 13.2-10l-1 2.25q-7.4 7.1-12.55 9.3l-1.8.65-4 .15 1.4-3.15 2.05-4.55L39.4 91l-.05-3.2" fill="#533f5f"/><path d="m35.25 64.95 1.8-.55 3.55-1.05 3.1-.95-2.95 8.55-2.15 6.2 1.2-.35 3.35-1.05-1.15 3.1-1 2.5q-1.5 3.45-3.3 6.5l-2.45 3.8-10.9 9.1-.9.75-.85.7q-8.65-7-15.3-16.4-1.85-2.6-3.55-5.4L0 63.25l2.35 1.8Q-.35 50.9.1 36.25 3.3 42.8 5.45 49.9v-8.85Q.95 19 3.35 4.2q9.8 25.35 12.1 44.15l-2.7-2.7 1.85 11q.5 8.75 3.1 16.4l-5.4-.4 1.15 3.8 7.05 8.7q9.15-6.15 10.8-13.2L33 69l2.25-4.05m-23.1-21.9 1.3.95Q9.55 26.5 3.5 10.7l.15 3.35.8 8.75q1.05 9.55 3.1 18.95v14.6l3.2 11.2L11.8 71l4.6.8q-2.9-5.65-3.9-16.45l-1.45-11.1-.25-2.1 1.35.9M6.45 61.6l1.9 2.05-7.2-22.75.05 3.2.1 3.55q.6 12.3 3.95 24l-3.95-6 3.8 14.2L6.45 81 5.2 73.95l2.65 2.4-2.4-15.75 1 1m31.3 3.95-2.05.6-4.5 10.75q-4.8 6.25-11.05 9.75l-7.75-10-2.65-9.9L7 63.65l.45 2.75 1.8 12.15-2.6-2 .5 2.05 1.45 6.3q5.6 9.55 13.25 15.5l.85.65 1-.85 11.2-9.5 4.45-9.4 1.05-2.35.75-1.6-2.05.6-2 .55 4.55-14-3 .8-.9.25" fill="#502213"/><path d="m11.05 44.25 1.45 11.1q1 10.8 3.9 16.45l-4.6-.8-1.05-3.45.3-23.3" fill="#e78906"/><path d="m38.65 65.3 3-.8-4.55 14-9.55 9.45q7.9-10.4 11.1-22.65m1.75 13.65-1.05 2.35-5.2 8.35L23.7 100.2l-1 .85-.85-.65-1-1.95 19.55-19.5" fill="#7d3114"/><path d="M7.45 66.4 7 63.65l2.75 3.1 2.65 9.9 7.75 10q6.25-3.5 11.05-9.75l4.5-10.75 2.05-.6-10.8 23 .6-.6 9.55-9.45 2-.55L20 97.45 7.15 78.6l-.5-2.05 2.6 2q3.45 6.95 7.75 9.7-6.3-9.5-9.55-21.85" fill="#de6e35"/><path d="m23.45 101.5.9-.75.9 1.2 2.7 3.6 1.25 2.9.95-.45q7.05-3.25 8.75-7.1l1.8-.65q-1.95 4-5.45 5.8L29 109.9l-1.9-3.5-3.65-4.9" fill="#4f4f94"/><path d="m35.25 91.65 4.1-3.85.05 3.2-1.05 2.35-7.55 4.5-.95.7-3.8 2.85-.8.55-.9-1.2 10.9-9.1" fill="#7979d4"/><path d="m40.05 87.1 1.8-1.7 2.7.25q4.75 5.05-1.4 11.2l-2.1 1.85q-2.55 1.15-4.85 1.4l4.65-9.25-.8-3.75" fill="#d1b9de"/><path d="M44.55 85.65q2.95.05 5.9-1.1Q49.6 91 45.2 95.1l-2.05 1.75q6.15-6.15 1.4-11.2" fill="#9f85ad"/><path d="M29.45 104.8q3.7-.4 3.6-3.8-1.5 3.25-4.65 3.85l-2.35-3.45 3.8-2.85 6.45-.65-1.4 3.15 4-.15q-1.7 3.85-8.75 7.1l-.7-3.2" fill="#b9d6ff"/><path d="M28.4 104.85q3.15-.6 4.65-3.85.1 3.4-3.6 3.8l-1.05.05" fill="#48478d"/><path d="m36.3 97.9-6.45.65.95-.7 7.55-4.5-2.05 4.55" fill="#94a7ec"/><path d="M15.3 90.35q.6-6.8 6.85-8.15-5.55 2.6-5.85 9.35l-1-1.2m8.6-5.65.8 1.1-2.15 4.1q-1.4-2.5 1.35-5.2m-1.8 5.95-.8 1.5q-1.35-.05-1.3-1.5 1.05-1.35 2.1 0m-.6-9.4q-3 0-5.45 2.85l1.5-6.15.75-1.2 3.2 4.5m-1.05 5.85-.2.6-.6.25q-.35 0-.55-.25-.25-.25-.25-.6l.25-.55q.2-.25.55-.25l.6.25.2.55" fill="#27fdff"/><path d="m15.3 90.35 1 1.2 1.4 1.75 1.8 2.2 1.8-3.35.8-1.5.45-.75 2.15-4.1-.8-1.1-1.75-2.5-.65-.95-3.2-4.5-.75 1.2q-2.75 4.8-3.45 10.95l1.2 1.45m-2.1-1.25q.8-7.55 4.75-13.7 4.65 4.4 7.9 10.6L19.6 96.95l-6.4-7.85" fill="#1136a7"/><path d="M22.15 82.2q-6.25 1.35-6.85 8.15l-1.2-1.45q.7-6.15 3.45-10.95l-1.5 6.15q2.45-2.85 5.45-2.85l.65.95q-5.55 5.15-4.45 11.1l-1.4-1.75q.3-6.75 5.85-9.35" fill="#fff"/><path d="m22.15 82.2 1.75 2.5q-2.75 2.7-1.35 5.2l-.45.75q-1.05-1.35-2.1 0-.05 1.45 1.3 1.5l-1.8 3.35-1.8-2.2q-1.1-5.95 4.45-11.1m-1.7 4.9-.2-.55-.6-.25q-.35 0-.55.25l-.25.55q0 .35.25.6.2.25.55.25l.6-.25.2-.6" fill="#0748ec"/><path d="m36.75 90.1.8-.7q.95 4.85-2.3 8.25-4.5 1.05-6.8-.35l.65-.55 4.5.15 1.25-.3q1.1-1.55 1.55-3.65.35-1.3.35-2.85" fill="#48478d"/><path d="m30 95.95 1-.85.3.7.3.7q-.95.05-1.6-.55m2.15-1.85 1.55-1.35q.3 1.1.05 2l-.4-.15-1.2-.5m4.25-1.15q-.45 2.1-1.55 3.65l-1.25.3q1.05-1.05.85-3.3l1.95-.65" fill="#fff"/><path d="m29.1 96.75.9-.8q.65.6 1.6.55l1.25-.25q.7-.65.9-1.5.25-.9-.05-2l.55-.5.2 1.35q.2 2.25-.85 3.3l-4.5-.15M31 95.1l1.15-1 1.2.5q-.7 1.3-2.05 1.2l-.3-.7" fill="#092b83"/><path d="m34.25 92.25 2.5-2.15q0 1.55-.35 2.85l-1.95.65-.2-1.35" fill="#c8b1e1"/><path d="m33.35 94.6.4.15q-.2.85-.9 1.5l-1.25.25-.3-.7q1.35.1 2.05-1.2" fill="#0645ec"/></g><g id="K" fill-rule="evenodd"><path d="m62.25 14.4.7 5.4-4.2-1.8h-4.4l-2.5-9.7q6.5 1.45 10.4 6.1M42.6 7.15l-4.4 1.7-2.4-1.25 6.8-.45m-6.65 4.6.55 3.75-4.35-6.4 1.15-.55 2.65 3.2m-1.8 11.1-.6.3q0-7.4-4.45-12.1l1.25-.85q4.7 4.8 3.8 12.65m-4 27.35-.5-.75 4.7-2.15q5.25 2.85 10.1 1 3.9-1.55 7.45-6.05l8.5 1.6h.05q-15.4 7.1-30.3 6.35m17.9-7.7 1.55-.5q-3.35 6.15-12.8 4.25l11.25-3.75m-2.4 11.9-2.55-2.3q7.25-1.55 14.7-5.15l.3 2.75q-5.95 3.65-12.45 4.7" fill="#7d3114"/><path d="m50.95 10.5-.2-.95q-4.85-3.1-13.45 1.2l2.8 12.6 1.7 7.6.65 2.85.85.35 5.2 2.1 7.55-4.65-1-4.3-4.1-16.8m.9-2.2 2.5 9.7h4.4l4.2 1.8-.7-5.4-.7-5.4 7.7-9L82.5 7.45q-3.85 10.5-2.85 25.4l-11.5 7.9-.8-2.2 9.95-6.5q-.7-8.25.25-15.2.4-2.75 1.05-5.3l.7-2.35v-.05L79.65 8l-9.7-5.35-6 6.9L65 18.5l.75 6.5-.5-.7-1.75-2.5-5.05-2.3h-3.5l.4 1.65 1 3.8 1.1 4.15.7 2.95-.85.55-8 4.9-7.55-2.25q-4.95 1.2-5.8 4.65l-9.4 5.35-1.25-.7-1.05-.55-5.7-3.15-1-.55-.5-1.75Q15.5 33.9 12.9 30.3l-3.15-3.6-7.2 1.2-1.3 3.3 2.3 4.5 1.15 2.75q1.75 4.4 3 9.45l9.45 1.05q3.05-2.2 6.85-1.85l-.1 1.35-6.35 2.85-11.95-2Q4 41.1 0 31.05l1.8-4.65 8.6-1.95 3.65 2.1-3.25-9.7 1.85-3.4 8.55-2.25 1.75-.45 2.35-.65.55 1.25.85 1.7 4.75 10.1h2.1l.6-.3 1.3-.65 1.9-1-.85-5.7-.55-3.75-.25-1.95 2.5-.95 4.4-1.7 2.2-.85 7.05 2M40.4 33.05l-.95-3.95L38 22.85l-2.65 1.9.85 1.85-4-1.5 2.15 5.75-3.25-2.2-4.85-11.95-.9-2.15-.9-2.25-10.05 2.45-.9 2.3 3.35 15.4.45 2.1.8 3.45.3 1.5 7.75 4 7.3-3.75q1.7-2.75 5.3-4.8L40.6 34l-.2-.95" fill="#48478d"/><path d="m40.1 23.35-2.8-12.6q8.6-4.3 13.45-1.2l.2.95-10.85 2.2q1.75 6.1 0 10.65M1.25 31.2l1.3-3.3 7.2-1.2 3.15 3.6-1.35 2.1-10.3-1.2m54.1-10.05-.4-1.65h3.5l5.05 2.3 1.75 2.5q-4.7-2.9-9.9-3.15M65 18.5l-1.05-8.95 6-6.9L79.65 8l-.35 1.15q-4.8-.2-8.6-2.05l-4.5 4.35L65 18.5m-39.65-3.95-11.85 2.5.9-2.3 10.05-2.45.9 2.25" fill="#fff"/><path d="M41.8 30.95Q47 27.25 53 27.3l-2.05-16.8 4.1 16.8-.75 4q-5.5 2.7-11 2.85l-.85-.35-.65-2.85m-37.1 7.5L3.55 35.7l6.9 6.8q3.75-2.05 8.1-1.65l5.7 3.15-.2 2.2q-3.6-1.15-6.85.45H9q-.8-5.6-4.3-8.2m53.45-6.4-.7-2.95q6.65-.15 12.25 3.1l4.65-3.25q-1.65-10.7 4.25-17.4-.65 2.55-1.05 5.3-2.45 6.7-1.8 14.65L66.6 37q-3.05-5.55-8.45-4.95m-40.85 2.5 4.4 3.6q5.25-3.45 10.75-1.35 3.55-2.7 7.95-3.75l.2.95-1.85.95q-4.45.45-6.7 4.4-3.35 2-6.85 2.25L18.1 38l-.8-3.45" fill="#7979d4"/><path d="M62.25 14.4q-3.9-4.65-10.4-6.1l-7.05-2-2.2.85-6.8.45-1.3.45-1.2.5-1.15.55-.5.3-1.3.8-1.25.85-2.4 2-.85-1.7Q31.05 7.7 36.6 6.2q8.55-2.35 18.05.4-12.8-4.35-21.2-2.6-6.65 1.4-10.5 6.75l-1.75.45Q32.5-6 58.15 6.3l3.4 2.7.7 5.4M23.9 48.45l.1-1.35.05-.9.2-2.2 1.05.55v3.9L28.75 51l-1.4-3.25-.35-.9q6.9-6.1 30.9-10.4l7.95 4.15q-1.2-7.15-8.55-8l.85-.55q5.4-.6 8.45 4.95l.75 1.55.8 2.2v8.3L59.7 61.4H39.2l-5.5-8.15 2.45-.1 4.65 5.8h17.45l8-11.65-.35-2.3-.35-2.3-1.5-.9-6.3-3.95q-19.95 2.9-29.5 9.45l1.4 2.15.5.75.95 1.45.95 1.45q-5.55-.85-8.15-4.65" fill="#7d3d0e"/><path d="m38.2 8.85-2.5.95-1.2-1.75 1.3-.45 2.4 1.25m-1.7 6.65.85 5.7-1.9 1q-.25-7.3-3.8-12.8l.5-.3 4.35 6.4m-2.95 7.65h-2.1l-4.75-10.1 2.4-2q4.45 4.7 4.45 12.1m26.9 20.7h-.05l-8.7-2.75q-3 3.95-7.25 7.2-4.85 1.85-10.1-1l-4.7 2.15-1.4-2.15q9.55-6.55 29.5-9.45l6.3 3.95-2.15 1.35-1.45.7m-23.65 2.4q9.45 1.9 12.8-4.25l-1.55.5q-4.05 0-9.9 2.1l-1.35 1.65" fill="#a25021"/><path d="m35.7 9.8.25 1.95-2.65-3.2 1.2-.5 1.2 1.75m-.25 12.4-1.3.65q.9-7.85-3.8-12.65l1.3-.8q3.55 5.5 3.8 12.8" fill="#de6e35"/><path d="M40.1 23.35q1.75-4.55 0-10.65l10.85-2.2L53 27.3q-6-.05-11.2 3.65l-1.7-7.6M3.55 35.7l-2.3-4.5 10.3 1.2 5.5 6.15.5 1.75 1 .55q-4.35-.4-8.1 1.65l-6.9-6.8m53.9-6.6-1.1-4.15q4 2.35 7.45-.55l3.1 4V13.15l4.3-4q3.9 3.3 8.1.05l-.7 2.35q-5.9 6.7-4.25 17.4L69.7 32.2q-5.6-3.25-12.25-3.1m-18 0 .95 3.95Q36 34.1 32.45 36.8q-5.5-2.1-10.75 1.35l-4.4-3.6-.45-2.1V19.5l9.4-2.8 4.85 11.95 3.25 2.2q3.8 2.15 5.1-1.75" fill="#95a8ed"/><path d="M43.3 34.15q5.5-.15 11-2.85l.75-4 1 4.3-7.55 4.65-5.2-2.1M24 47.1q-3.8-.35-6.85 1.85L7.7 47.9q-1.25-5.05-3-9.45 3.5 2.6 4.3 8.2h8.2q3.25-1.6 6.85-.45l-.05.9m53.55-30.25q-.95 6.95-.25 15.2l-9.95 6.5L66.6 37l9.15-5.5q-.65-7.95 1.8-14.65m-38.8 18.1q-3.6 2.05-5.3 4.8l-7.3 3.75-7.75-4-.3-1.5 7.1 3.6q3.5-.25 6.85-2.25 2.25-3.95 6.7-4.4m-8.6 15.25q14.9.75 30.3-6.35l1.45-.7q-13.85 8.45-30.8 8.5l-.95-1.45m36.1-2.9-8 11.65H40.8l-4.65-5.8 1.3-.15 4.5 4.45H58.1l8.15-10.15" fill="#f3b3a3"/><path d="M12.9 30.3q2.6 3.6 4.15 8.25l-5.5-6.15 1.35-2.1m43.45-5.35-1-3.8q5.2.25 9.9 3.15l.5.7-.75-6.5 1.2-7.05 4.5-4.35q3.8 1.85 8.6 2.05v.05q-4.2 3.25-8.1-.05l-4.3 4V28.4l-3.1-4q-3.45 2.9-7.45.55m-16.9 4.15q-1.3 3.9-5.1 1.75L32.2 25.1l4 1.5-.85-1.85 2.65-1.9 1.45 6.25m-13.2-12.4-9.4 2.8v12.95l-3.35-15.4 11.85-2.5.9 2.15" fill="#b9d6ff"/><path d="m25.85 11.35-.55-1.25-2.35.65Q26.8 5.4 33.45 4l3.15 2.2q-5.55 1.5-10.75 5.15m-.55 33.2 1.25.7 9.4-5.35q.85-3.45 5.8-4.65l7.55 2.25 8-4.9 4.1 3.15-3.5.7q-24 4.3-30.9 10.4l.35.9-2.05.7v-3.9" fill="#fcd322"/><path d="M33.45 4q8.4-1.75 21.2 2.6-9.5-2.75-18.05-.4L33.45 4m32.1 38.7.35 2.3-9.6 10.65-12 .75-3.85-3.8 1.35-.25 3.15 3q8.1.45 14.2-4.95v-4.1q3.2-1.6 6.4-3.6m-38.2 5.05 1.4 3.25-3.45-2.55 2.05-.7m30.55-11.3 3.5-.7-4.1-3.15q7.35.85 8.55 8l-7.95-4.15" fill="#e88a06"/><path d="m64.05 41.8 1.5.9q-3.2 2-6.4 3.6v4.1q-6.1 5.4-14.2 4.95l-3.15-3-1.35.25-3 .4-1.3.15-2.45.1-1.65-.15-.95-1.45q16.95-.05 30.8-8.5l2.15-1.35m-18.4 12.6q6.5-1.05 12.45-4.7l-.3-2.75q-7.45 3.6-14.7 5.15l2.55 2.3" fill="#35150c"/><path d="m65.9 45 .35 2.3-8.15 10.15H41.95L37.45 53l3-.4 3.85 3.8 12-.75L65.9 45" fill="#b05c05"/><path d="m60.4 43.85-8.5-1.6q-3.55 4.5-7.45 6.05 4.25-3.25 7.25-7.2l8.7 2.75M48.05 42.5 36.8 46.25l1.35-1.65q5.85-2.1 9.9-2.1" fill="#ffd18a"/></g><g id="M" fill-opacity=".439" fill-rule="evenodd"><path d="M129.05 74.7q-5.5-5.5-13.35-5.5t-13.4 5.5q-5.5 5.55-5.5 13.4 0 7.85 5.5 13.35 5.55 5.55 13.4 5.55 7.85 0 13.35-5.55 5.55-5.5 5.55-13.35t-5.55-13.4m73.4-40q34.75 34.75 34.75 83.9 0 49.15-34.75 83.85-34.7 34.75-83.85 34.75-49.15 0-83.9-34.75Q0 167.75 0 118.6q0-49.15 34.7-83.9Q69.45 0 118.6 0q49.15 0 83.85 34.7M83 188.3q0-4.75-3.4-8.15-3.35-3.35-8.1-3.35t-8.15 3.35Q60 183.55 60 188.3t3.35 8.1q3.4 3.4 8.15 3.4t8.1-3.4q3.4-3.35 3.4-8.1m50.8-42.3q-1.6-1.6-3.9-1.6T126 146q-1.6 1.6-1.6 3.9t1.6 3.9q1.6 1.6 3.9 1.6t3.9-1.6q1.6-1.6 1.6-3.9t-1.6-3.9m-48.5-32.4q-8.15 0-13.95 5.75-5.75 5.8-5.75 13.95 0 8.15 5.75 13.9 5.8 5.8 13.95 5.8 8.15 0 13.9-5.8 5.8-5.75 5.8-13.9t-5.8-13.95q-5.75-5.75-13.9-5.75m85.9 34.2q0-4.55-2.35-7.8-2.35-3.2-5.65-3.2-3.3 0-5.65 3.2-2.35 3.25-2.35 7.8t2.35 7.75q2.35 3.25 5.65 3.25 3.3 0 5.65-3.25 2.35-3.2 2.35-7.75m36.6-45.9q0-7.4-5.25-12.65T189.9 84q-7.4 0-12.65 5.25T172 101.9q0 7.4 5.25 12.65t12.65 5.25q7.4 0 12.65-5.25t5.25-12.65" fill="#54e9c1"/><path d="M129.05 74.7q5.55 5.55 5.55 13.4 0 7.85-5.55 13.35-5.5 5.55-13.35 5.55t-13.4-5.55q-5.5-5.5-5.5-13.35t5.5-13.4q5.55-5.5 13.4-5.5 7.85 0 13.35 5.5m78.75 27.2q0 7.4-5.25 12.65t-12.65 5.25q-7.4 0-12.65-5.25T172 101.9q0-7.4 5.25-12.65T189.9 84q7.4 0 12.65 5.25t5.25 12.65m-36.6 45.9q0 4.55-2.35 7.75-2.35 3.25-5.65 3.25-3.3 0-5.65-3.25-2.35-3.2-2.35-7.75t2.35-7.8q2.35-3.2 5.65-3.2 3.3 0 5.65 3.2 2.35 3.25 2.35 7.8m-85.9-34.2q8.15 0 13.9 5.75 5.8 5.8 5.8 13.95 0 8.15-5.8 13.9-5.75 5.8-13.9 5.8t-13.95-5.8q-5.75-5.75-5.75-13.9t5.75-13.95q5.8-5.75 13.95-5.75m48.5 32.4q1.6 1.6 1.6 3.9t-1.6 3.9q-1.6 1.6-3.9 1.6t-3.9-1.6q-1.6-1.6-1.6-3.9t1.6-3.9q1.6-1.6 3.9-1.6t3.9 1.6M83 188.3q0 4.75-3.4 8.1-3.35 3.4-8.1 3.4t-8.15-3.4Q60 193.05 60 188.3t3.35-8.15q3.4-3.35 8.15-3.35t8.1 3.35q3.4 3.4 3.4 8.15" fill="#e9dcd7"/></g><g id="N"><path d="m172.3 71.6.8-.7 1.1.05q2.15 0 4.55 2.15 2.55 2.25 2.55 4.9l-.45 1.6q-.6 1.05-1.6 1.05-1.4 0-4.3-3.15-2.9-3.1-2.9-4.4l.1-1.2.15-.3m-5.4 8.75q2.3 1.45 2.3 2.65t-.95 1.9q-.8.6-1.8.6-1.15 0-3.95-3.1l-2.55-3.1.3-.35 1.8-.1q2.45 0 4.85 1.5m9.65 15.85q1.1.45 1.7 1 .95.85.95 2.4l-.45 1.55q-.65.9-1.9.9-.75 0-1.3-.45-.6-.55-.6-1.45 0-1.15.6-2.55.4-.95.9-1.3l.1-.1m8.85-9.15q.1-.3.9-.3l.75.05.15.1.3.15.35.05q1.35.3 2.3 2.25 1 2.1 1 4.5 0 2.15-.6 4.1-.85 2.75-2.5 2.75-.75 0-1.75-5.5-.9-4.9-.9-6.95v-1.2m-2.4 20.9h.15q1.7 0 2.55 1.55.75 1.25.75 3.4 0 1.6-.9 4.3-1.05 3.2-2.25 3.2-.6 0-1.55-3.95-.9-3.7-.9-5 0-1.3.65-2.45l.35-.45.2-.3.25-.2.15-.05.55-.05m-9.95 17.3q.25.1.55-.4l.1-.05.65-.1q.65.2 1.35 1.3.75 1.25.75 2.25 0 1.75-1.05 3.8-1.4 2.75-3.55 2.75l-.55-.15-.45-.55q.05-1.9.4-3.9.6-3.45 1.8-4.95M98.1 0l.15.15.1.3.05 1q0 1.2-1.1 2.65-1.3 1.85-3.25 1.85-2.5 0-2.5-1.45 0-.85 1.9-2.45Q95.2.6 96.55 0h1.55M49.25 21.1l-1.35-.3q-.45-.35-.45-1.25 0-2 2.55-3.3 2.35-1.2 5.3-1.2l2.6.15q0 1.65-3.15 3.75-3.15 2.15-5.5 2.15M67 20.95q-2.1 0-2.1-2 0-1.3 1.35-2.25 1.3-.9 3.15-.9h.95l.15.15.6.75q0 1.6-1.2 2.85-1.25 1.4-2.9 1.4M39.2 20l.05.25q-1.25 2-3.2 3.9-3.8 3.9-7.05 3.9-1 0-1.7-.45-.8-.5-.8-1.3 0-2.2 3.65-4.45 3.45-2.15 6.4-2.15l2.65.3M5.6 48.25l1.65-.5v.65l-.6 2.5q-.3 1.4-.3 2.5 0 2.6.75 5.15l.75 3.3q0 1.3-.75 2.3-.8 1.05-1.95 1.05-1.5 0-3.2-2.7Q0 59.35 0 55.6q0-3.05 2.35-5.35 1.45-1.4 3.25-2l-.3.6.3-.6M.15 69.6l.05-.95.1-.1.1-.15.65.05q2.15.1 4.3.75Q10 70.65 10 73.9q0 2.35-2.5 2.35-2.6 0-4.95-1.95-2.4-2.1-2.4-4.7m21.7-21q2-2.6 4.95-3.85h1.1l.7-.25.4-.05 2.5.3q1.1.5 1.1 2.25 0 1.95-2.9 4.25-3.25 2.6-7.2 2.6-2.35 0-2.35-1.55 0-1.45 1.7-3.7m-6.1-1.75q-.3-.2-.3-.95 0-2.5 5-4.95h.75V42L20 44.75Q18.6 47 16.75 47l-1-.15M158.1 133.2l.55-.05h.35l.5.05q2.4.4 2.4 5.15 0 2.6-2.9 6-2.95 3.5-5.45 3.5l-.35-.1-.25-.05q.65-4.95 1.4-7.85 1.55-5.95 3.75-6.65M106.4 195h.15q2.15.65 2.15 1.65 0 2.4-4.55 6.2-4.7 3.95-8.2 3.95l-1.8-.3q-.9-.5-.9-1.8 0-2.8 3.7-6.05 3.55-3.05 6.9-3.65h2.55m7-10.95q-2 0-2-.9l3.8-3.05q3.85-2.9 4.55-3.15l1.15-.1.7.7q.6.75.6 1.35 0 1.75-3.2 3.5-3.05 1.65-5.6 1.65m-14.85 2.6q0-2.6 1.15-4.35 1.15-1.65 3.25-2.25l.9-.25h.9l1.75 1.05q.35.35.35 1.4 0 1.35-1.8 4.25-2 3.15-3.65 3.15-1.15 0-1.95-.75-.9-.8-.9-2.25m58.8-37.45.9-.1q1.7.6 1.7 2.9 0 2.1-3.35 4.3-3.2 2.15-5.55 2.15h-1.1q-.65-.1-.65-.85 0-.35 3.2-4.25 3.45-4.15 4.8-4.15h.05M90.7 215.6l.2-.15 1.05-.3q1.6 0 2.5 1.2.75 1.05.75 2.8 0 3.05-3.35 5.25-3 1.95-6.35 1.95l-1.85-.3q-1.05-.4-1.05-1.2 0-1 2.65-4.2 2.6-3.15 4.85-4.85l.6-.2h1-1m-4.9-12.3 1.7-.1.05.1.2.7q0 1.2-3.45 6-3.9 5.3-6.4 5.3-1.2 0-2.1-1.05-.9-1.1-.9-2.5 0-3.1 3.75-6.05 3.75-3 7.15-2.4m36.25 2.6q1.35 1 1.35 2.35 0 3.05-2.45 5.55-2.5 2.55-5.95 2.55-2.8 0-2.8-1.2 0-1.65 2.85-5.75 2.15-3.1 3.6-3.9.55-.35.95-.35l.5-.1q1 .15 1.95.85m11.35-33.35.45.05q.55.15 1.05.6.6.6.6 1.55 0 1.25-1.05 2.05-1 .75-2.55.75-2.75 0-2.75-1.2t1.2-2.45q1.1-1.05 2.15-1.35h.9m13-2.3q.35.45.35 1.1 0 1.05-1.85 3.6-2 2.9-3.6 2.9l-1.1-.15v-.3q0-.35 1.45-3.3 1.6-3.45 2.8-4.45h.8l.45.1.7.5m-132.65 40.6q1.9-1.45 4.6-1.9h.55l.8.3q1.35.75 1.35 2.2 0 .95-3.15 2.8-3.2 1.8-5 1.8l-.95-.15q-.45-.25-.45-1.15 0-2.2 2.25-3.9M57 230.05q0-.85 1.1-2.15 1.15-1.35 2.6-2.2 3.85-2.25 5.4 1.3 2.05 4.8-6.4 4.8l-1.95-.3q-.75-.4-.75-1.45m-1.1-19.3q1.05.3 1.85 1.15.75.75.75 1.35 0 1.95-2.4 3.7-2.3 1.7-4.2 1.7l-1.6-.15q-.9-.35-.9-1.45 0-1.3 1.35-3.45 2.2-3.65 5.15-2.85m8.45 6.75 1.4-1.3q1.1-.9 1.5-.9 1.55 0 2.35.6.9.7.9 2.45 0 1.95-1.25 3-1.2 1.05-3.4 1.05-2.5 0-2.5-1.65 0-1.85 1-3.25M12.7 228.65h.8q.5.1.9.45.6.55.6 1.6 0 .7-.45 1.1-.45.5-1.3.5-1.45 0-1.45-1.25 0-.6.3-1.4l.2-.35.4-.65m17.45 5.8q.9.35.9 1.55 0 1.9-2.4 3.4-2.2 1.35-4.55 1.35-1.85 0-3.05-.9-1.2-.95-1.2-2.55 0-1.65 1.2-2.6 1.2-.9 3.05-.9l.8.05 1.6.1.8.05 2.15.3.6.1.1.05m2.3-5.7.3.05 1.1.05 1-.05v.75l-2.65 1.8q-1.3.6-2.7.6l-1.9-.3q-.8-.4-.8-1.65 0-.75.65-1.35.6-.6 1.2-.6l3.8.7M7.25 246.7q.6 0 1 .65l.6.65.25.05h.15l.35-.05h.15l1-.1 1.5.45q1.1.55 1.1 1.2 0 1.65-1.1 2.9-1.05 1.2-2.35 1.2-1.85 0-2.8-1.5-.75-1.25-.75-3.05 0-2.4.9-2.4m-2.1-19.3.4.05.35.15q.6.25.6.8 0 .85-1.05 2.6-1.05 1.85-1.05 3.1 0 1.3 1.05 2.1 1.05.85 1.05 2.2 0 .95-.9 2.05-1 1.2-1.95 1.2-2 0-2.9-2.55-.6-1.75-.6-4.15 0-2.2 1.05-4.25t2.9-3.15l.45-.3h.6v.15" fill="url(#x)" fill-rule="evenodd" transform="translate(29.1 .05)"/><path d="m142.9 21.45.15-.3.8-.7 1.1.05q2.15 0 4.55 2.15 2.55 2.25 2.55 4.9 0 .8-.45 1.6-.6 1.05-1.6 1.05-1.4 0-4.3-3.15-2.9-3.1-2.9-4.4l.1-1.2m-5.7 13.6q-1.15 0-3.95-3.1l-2.55-3.1.3-.35 1.8-.1q2.45 0 4.85 1.5 2.3 1.45 2.3 2.65t-.95 1.9q-.8.6-1.8.6m18.95 1.55q.1-.3.9-.3l.75.05.15.1.3.15.35.05q1.35.3 2.3 2.25 1 2.1 1 4.5 0 2.15-.6 4.1-.85 2.75-2.5 2.75-.75 0-1.75-5.5-.9-4.9-.9-6.95v-1.2m-8.85 9.15 1.7 1q.95.85.95 2.4l-.45 1.55q-.65.9-1.9.9-.75 0-1.3-.45-.6-.55-.6-1.45 0-1.15.6-2.55.4-.95.9-1.3l.1-.1m6.45 11.75h.15q1.7 0 2.55 1.55.75 1.25.75 3.4 0 1.6-.9 4.3-1.05 3.2-2.25 3.2-.6 0-1.55-3.95-.9-3.7-.9-5 0-1.3.65-2.45l.35-.45.2-.3.25-.2.15-.05.55-.05m-24.9 25.25.55-.05h.35l.5.05q2.4.4 2.4 5.15 0 2.6-2.9 6-2.95 3.5-5.45 3.5l-.35-.1-.25-.05q.65-4.95 1.4-7.85 1.55-5.95 3.75-6.65m.15 15.9q1.7.6 1.7 2.9 0 2.1-3.35 4.3-3.2 2.15-5.55 2.15h-1.1q-.65-.1-.65-.85 0-.35 3.2-4.25 3.45-4.15 4.8-4.15h.05l.9-.1m14.8-23.85.55-.4.1-.05.65-.1q.65.2 1.35 1.3.75 1.25.75 2.25 0 1.75-1.05 3.8-1.4 2.75-3.55 2.75l-.55-.15-.45-.55q.05-1.9.4-3.9.6-3.45 1.8-4.95M5.6 178.35v.75l-2.65 1.8q-1.3.6-2.7.6l-1.9-.3q-.8-.4-.8-1.65 0-.75.65-1.35.6-.6 1.2-.6l3.8.7.3.05 1.1.05 1-.05m31-6.4q-2.5 0-2.5-1.65 0-1.85 1-3.25l1.4-1.3q1.1-.9 1.5-.9 1.55 0 2.35.6.9.7.9 2.45 0 1.95-1.25 3-1.2 1.05-3.4 1.05m-13.95-3.75-1.6-.15q-.9-.35-.9-1.45 0-1.3 1.35-3.45 2.2-3.65 5.15-2.85 1.05.3 1.85 1.15.75.75.75 1.35 0 1.95-2.4 3.7-2.3 1.7-4.2 1.7m54.5-23.65h.15q2.15.65 2.15 1.65 0 2.4-4.55 6.2-4.7 3.95-8.2 3.95l-1.8-.3q-.9-.5-.9-1.8 0-2.8 3.7-6.05 3.55-3.05 6.9-3.65h2.55m.45-12.75q0 1.35-1.8 4.25-2 3.15-3.65 3.15-1.15 0-1.95-.75-.9-.8-.9-2.25 0-2.6 1.15-4.35 1.15-1.65 3.25-2.25l.9-.25h.9l1.75 1.05q.35.35.35 1.4m-80.35 51.7.8.05 2.15.3.6.1.1.05q.9.35.9 1.55 0 1.9-2.4 3.4-2.2 1.35-4.55 1.35-1.85 0-3.05-.9-1.2-.95-1.2-2.55 0-1.65 1.2-2.6 1.2-.9 3.05-.9l.8.05 1.6.1m64.2-18.35.2-.15 1.05-.3q1.6 0 2.5 1.2.75 1.05.75 2.8 0 3.05-3.35 5.25-3 1.95-6.35 1.95l-1.85-.3q-1.05-.4-1.05-1.2 0-1 2.65-4.2 2.6-3.15 4.85-4.85l.6-.2h1-1m-24.6 11.4q2.05 4.8-6.4 4.8l-1.95-.3q-.75-.4-.75-1.45 0-.85 1.1-2.15 1.15-1.35 2.6-2.2 3.85-2.25 5.4 1.3m19.7-23.7 1.7-.1.05.1.2.7q0 1.2-3.45 6-3.9 5.3-6.4 5.3-1.2 0-2.1-1.05-.9-1.1-.9-2.5 0-3.1 3.75-6.05 3.75-3 7.15-2.4m36.25 2.6q1.35 1 1.35 2.35 0 3.05-2.45 5.55-2.5 2.55-5.95 2.55-2.8 0-2.8-1.2 0-1.65 2.85-5.75 2.15-3.1 3.6-3.9.55-.35.95-.35l.5-.1q1 .15 1.95.85m-.45-28.35q.6.75.6 1.35 0 1.75-3.2 3.5-3.05 1.65-5.6 1.65-2 0-2-.9 0-.2 3.8-3.05 3.85-2.9 4.55-3.15l1.15-.1.7.7m23.65-7.9.45.1.7.5q.35.45.35 1.1 0 1.05-1.85 3.6-2 2.9-3.6 2.9l-1.1-.15v-.3l1.45-3.3q1.6-3.45 2.8-4.45h.8m-12.75 2.9h.9l.45.05q.55.15 1.05.6.6.6.6 1.55 0 1.25-1.05 2.05-1 .75-2.55.75-2.75 0-2.75-1.2t1.2-2.45q1.1-1.05 2.15-1.35M-22 196.25q.6 0 1 .65l.6.65.25.05h.15l.35-.05h.15l1-.1q.6 0 1.5.45 1.1.55 1.1 1.2 0 1.65-1.1 2.9-1.05 1.2-2.35 1.2-1.85 0-2.8-1.5-.75-1.25-.75-3.05 0-2.4.9-2.4m-2.1-19.45v.15l.4.05.35.15q.6.25.6.8 0 .85-1.05 2.6-1.05 1.85-1.05 3.1 0 1.3 1.05 2.1 1.05.85 1.05 2.2 0 .95-.9 2.05-1 1.2-1.95 1.2-2 0-2.9-2.55-.6-1.75-.6-4.15 0-2.2 1.05-4.25t2.9-3.15l.45-.3h.6m8.6-16.4q1.9-1.45 4.6-1.9h.55l.8.3q1.35.75 1.35 2.2 0 .95-3.15 2.8-3.2 1.8-5 1.8l-.95-.15q-.45-.25-.45-1.15 0-2.2 2.25-3.9m-.55 17.8h.3q.5.1.9.45.6.55.6 1.6 0 .7-.45 1.1-.45.5-1.3.5-1.45 0-1.45-1.25l.3-1.4.2-.35.4-.65h.5" fill="url(#y)" fill-rule="evenodd" transform="translate(29.1 .05)"/><path d="m202.2 70.95-.3.05q-.4.05-.5.65l.8-.7m-.95 1 .15-.3m4.25 24.6.5-.2m8.35-8.95v1.2m-2.4 19.7-.55.05-.15.05.7-.1m-9.3 16.85h-.25l-.4.45q.25.1.55-.4l.1-.05q.05-.15.35-.15l.3.05-.65.1M172.95 20.5l-.8.7-.15.3m.95-1-.3.05q-.4.05-.5.65m-12.35 7.7v-.3l-.95.15m1.25-.2q-.3-.15-.3 0v.05l.3-.05m25.15 8.1v1.2m-8.85 7.95.5-.2M127.2.05h-1.55m57.2 57.5-.55.05-.15.05.7-.1m-24 25.2h-.35l-.55.05m.15 15.9-.9.1.85-.1h.05m30.95-19.65.3-.05q-.3-.15-.3 0v.35m0-.3-.95.15m-14.55-4.8h-.25l-.4.45.55-.4.1-.05q.05-.15.35-.15l.3.05-.65.1M68.35 20.3l-.05-.25-.15-.3-.55-.3M36.35 47.8v-.75q-.35-.05-1.1.65l-.55.6 1.65-.5v.65m-1.65-.15-.3.6M30 184.05l-.1-.05-.6-.1-2.15-.3-.8-.05h1.55l1.4.35m.7.15-.05-.05h-.05m60.65-18.8h1m-1 0h-.35l-.25.2.6-.2m97.55-32h-.35l-.55.05m.15 15.9h-.05l-.85.1.9-.1m-67.55 66.5h1m-1 0h-.35l-.25.2.6-.2m-78.4 13.7q0-.55.25-.65h.65m-.9.65.4-.65m17.45 5.8-.1-.05-.6-.1-2.15-.3-.8-.05h1.55l1.4.35m.7.15-.05-.05h-.05m-47-55.55.25-.65h.65m-.9.65.4-.65" fill="none" stroke="#000" stroke-linecap="round" stroke-linejoin="round" stroke-width=".1"/></g><g id="O" fill-rule="evenodd"><path d="m20.6 9.2-8.8-6.4-.55 2.6L8 19.65l8.45 12.4 11.8 6.3 1.9-4.2.7-1.5-.35-4.45-1.15-12.6-8.75-6.4M7.35 21.95l-.9-1.3V16.6Q6.9 8.15 10.95 0L30.8 14.05l.1 1.4.1 1.4.15 1.8.2 2.7.2 2.3.75 9.65-3.35 7.75-14.05-7.9-7.55-11.2" fill="#523d5c"/><path d="m11.25 5.4.55-2.6 8.8 6.4.9 2.4 8.65 22.55-1.9 4.2q-6.6-16.5-17-32.95M45 65.2l.65-1.85 10.25 14.2 4.1-3.1 2.25 7.75 5.3-1.35v7.8L54.1 101.6l-29.35-4.2-1.65-1.9h18.5q-2.7-13.6 7.15-20.75l-1.85-4.8L45 65.2" fill="#735883"/><path d="M6.45 16.6v4.05l.9 1.3-1.3 3.25-1.3 3.2L11 40.85l.15.8-7.5-9.5-.7 2-.7 1.95 6.05 9.4 8.15 12.55-3.95-2.95v16.55h-1.95V51.3L9.2 49.4l-1.8-2.55L0 36.25 6.45 16.6m24.55.25-.1-1.4 16.05 12.5L48 38.9l.3 3.15.5 5.3.25 2.55q-3.1-6.85-4.2-20.95L31 16.85" fill="#502213"/><path d="m20.6 9.2 8.75 6.4 1.15 12.6-2.55-10.35-6.45-6.25-.9-2.4m10.55 9.45-.15-1.8 13.85 12.1q1.1 14.1 4.2 20.95L60.5 64.45l-1.25 1.4-10.2-15.95-3.65-3.5-3.25-16.75-11-11m31.4 47 2.65 9.7q-1.55.55-3.65-6.6l1-3.1M48.3 42.05l5.65 6.3v3.2l-5.15-4.2-.5-5.3m19.25 38.8L70 80.2q3.8 13.35-15.9 21.4l13.45-12.95v-7.8" fill="#f3b3a3"/><path d="m28.25 38.35-11.8-6.3L8 19.65 11.25 5.4q10.4 16.45 17 32.95m-1 18L23.5 68.7l-1.05-5.1q2-3.85 4.8-7.25" fill="#d1b9de"/><path d="m7.35 21.95 7.55 11.2 14.05 7.9 3.35-7.75-.75-9.65q7.7 6.2 7.85 17.85l-1-1.45-2.55-6.9-.8 2.15L34 33.85l-1.55 5.2-3.5 2 .85 2 .85 2-.7 2.3-1.1-2.3q-1.55-2.8-2.85-2.8-3.2 4.4-.45 11.55-3.05-4.75-1.2-10.45.4-1.35 1.1-2.75l-6.9-3.65.2 2.85q.95 10.25 6.15 17.15l-.45.7Q19 50.35 17.3 38.9l-.35-2.9-3.15-2.5-1.3-1.05q1.1 9.35 3.6 16.7 2.4 7 6.05 12.2l-.8 1.45Q13 50.5 11.6 35.7l-.3-5-5.25-5.5 1.3-3.25m24-.6-.2-2.7 11 11L45.4 46.4l3.65 3.5 10.2 15.95-1.5 1.6-16.3-23q-.8-15.4-10.1-23.1M12.5 63.95V55.1l3.95 2.95L8.3 45.5q9.65 9.05 11.05 21.5l-.75 1.75-6.1-4.8" fill="#7d3114"/><path d="m30.5 28.2.35 4.45-.7 1.5L21.5 11.6l6.45 6.25L30.5 28.2M9.2 49.4l1.35 1.9v14.35l-4.4-9L9.2 49.4m14.3 19.3-.9 2.95h-3.35q1.2-4.25 3.2-8.05l1.05 5.1m-5.45 20.85 4.7 1.1-1.4-7.5 10-1.05 8.35-13.25 3.15 2.1 4.05-1 1.85 4.8Q38.9 81.9 41.6 95.5H23.1l-5.05-5.95" fill="#9f85ad"/><path d="M10.55 71.65H22.6l.9-2.95 3.75-12.35 1.05-3.6 1.65-5.4.7-2.3 1.05-3.55.75-2.45 1.55-5.2 1.05 1.45 3.35 4.75 1 1.45 2.05 2.95 16.3 23 1.5-1.6 1.25-1.4 1.65-1.8 1.5-1.65 2.55 12.05h5.45q.95 3.35 1.25 6.4l-2.9.75-2.45.65-5.3 1.35L60 74.45l-4.1 3.1-10.25-14.2L45 65.2l-2.15 5.75-3.15-2.1-3.15-2.1-7.2 13.65H20.8l.55 2.75 1.4 7.5-4.7-1.1-4.75-1.1Q10.5 85 8 81.1h3.95L8.3 71.65h2.25m34.25-11.9 11.7 15.3 4.05-3.25 2.2 6.3.75 2.15 3.3-.9 3.35-.9v-3.1H65.2l-2.65-9.7-5.2 4.5-13.8-19.65-9.15-13-8.5 29.3-1.85 6.4-12.4 1.3 3.25 7.45q-.65.4-1.35.85l-1.35.8 2.15 2.85 2.95.75 2.95.8-2-9.7h10.3l7.7-13.95 5.5 3.55 3.05-8.15" fill="#7d3d0e"/><path d="m60.55 71.8-4.05 3.25-11.7-15.3-1.25-9.25 13.8 19.65 5.2-4.5-1 3.1-1 3.05M23.4 78.3h-5.15L17 77.55l8.1-1.7-1.7 2.45m-6.1 8.9-2.95-.75-2.15-2.85 1.35-.8 3.75 4.4m47.9-11.85h2.45l-4.15 4.9-.75-2.15 2.45-2.75" fill="#e88a06"/><path d="m44.8 59.75-3.05 8.15-5.5-3.55-7.7 13.95H23.4l1.7-2.45L35 61.3l5.45 3.2q-.7-12.95-6.05-27l9.15 13 1.25 9.25M18.25 78.3l2 9.7-2.95-.8-3.75-4.4q.7-.45 1.35-.85l-3.25-7.45L17 77.55l1.25.75m48.55 1.05-3.3.9 4.15-4.9-.85 4m-4.05-1.25-2.2-6.3 1-3.05q2.1 7.15 3.65 6.6l-2.45 2.75" fill="#b05c05"/><path d="M67.65 75.35h2.5v3.1l-3.35.9.85-4" fill="#d29279"/><path d="m7.4 46.85 1.8 2.55-3.05 7.25 4.4 9v2.95l-7.3-11.25 4.15-10.5m54.75 15.8-1.65 1.8L49.05 49.9l-.25-2.55 5.15 4.2v-3.2l-5.65-6.3-.3-3.15 7.95 8.3 1.8 8.75 4.4 6.7m-33.85-9.9-1.05 3.6q-2.8 3.4-4.8 7.25-2 3.8-3.2 8.05h-1.7l1.05-2.9.75-1.75 2-4.2.8-1.45 1.05-1.8 1.25-1.9.45-.7L26.4 55l.55-.65 1.35-1.6m-15 35.7 4.75 1.1 5.05 5.95 1.65 1.9 29.35 4.2Q73.8 93.55 70 80.2l2.9-.75q1.6 17.85-18.95 25.1l-29.1-4.8q-6.3-4.85-11.55-11.3" fill="#533f5f"/><path d="M12.5 71.65v-7.7l6.1 4.8-1.05 2.9H12.5M8.3 45.5l-6.05-9.4.7-1.95L12 45.55l-.85-3.9.65.8-.8-1.6L4.75 28.4l1.3-3.2 5.25 5.5.3 5q1.4 14.8 9.75 27.1l-2 4.2Q17.95 54.55 8.3 45.5m30.1-5.45-3.35-4.75.8-2.15 2.55 6.9m-5.95-1-.75 2.45-1.9 1.55-.85-2 3.5-2m-3.6 6q-1 2.2-3.35-.05l.5-2.75q1.3 0 2.85 2.8M13.8 33.5l3.15 2.5.35 2.9-3.5-1.75V33.5m4.95 6.3-.2-2.85 6.9 3.65q-.7 1.4-1.1 2.75l-5.6-3.55m4.45 19.75-1.05 1.8q-3.65-5.2-6.05-12.2l7.1 10.4" fill="#a25021"/><path d="m2.95 34.15.7-2 7.5 9.5.85 3.9-9.05-11.4M31.7 41.5l-1.05 3.55-.85-2 1.9-1.55m-1.75 5.85-1.65 5.4-1.35 1.6Q25 49.6 25.5 45q2.35 2.25 3.35.05l1.1 2.3m-13.85 1.8q-2.5-7.35-3.6-16.7l1.3 1.05v3.65l3.5 1.75q1.7 11.45 7.15 18.75l-1.25 1.9-7.1-10.4m8.25-5.8q-1.85 5.7 1.2 10.45l.1.1.75 1.1-1.5 1.95-6.15-17.15 5.6 3.55" fill="#de6e35"/><path d="m31.55 23.65-.2-2.3q9.3 7.7 10.1 23.1L39.4 41.5q-.15-11.65-7.85-17.85" fill="#98481d"/><path d="M25.5 45q-.5 4.6 1.45 9.35l-.55.65-.75-1.1-.1-.1q-2.75-7.15.45-11.55L25.5 45m-.6 11.95q-5.2-6.9-6.15-17.15l6.15 17.15" fill="#ffd18a"/><path d="m11.65 74.5 12.4-1.3 1.85-6.4 7.55-17.2 7 14.9L35 61.3l-9.9 14.55-8.1 1.7-5.35-3.05" fill="#fcd322"/><path d="m21.35 83.15-.55-2.75h8.55l7.2-13.65 3.15 2.1-8.35 13.25-10 1.05m21.5-12.2L45 65.2l1.9 4.75-4.05 1" fill="#cfb6dc"/><path d="m25.9 66.8 8.5-29.3q5.35 14.05 6.05 27l-7-14.9-7.55 17.2" fill="#fff"/></g><use ffdec:characterId="2" height="195.3" transform="translate(14.7)" width="232.6" xlink:href="#z" id="c"/><use ffdec:characterId="7" height="164.6" width="81.3" xlink:href="#A" id="d"/><use ffdec:characterId="9" height="78.35" transform="translate(2 20)" width="94.85" xlink:href="#B" id="e"/><use ffdec:characterId="14" height="206.45" width="117.95" xlink:href="#C" id="f"/><use ffdec:characterId="16" height="73.9" width="74.9" xlink:href="#D" id="g"/><use ffdec:characterId="18" height="53.8" width="55.8" xlink:href="#E" id="h"/><use ffdec:characterId="20" height="99.35" width="86.8" xlink:href="#F" id="i"/><use ffdec:characterId="22" height="57.6" width="40.25" xlink:href="#G" id="v"/><use ffdec:characterId="26" height="128.05" width="75.45" xlink:href="#H" id="k"/><use ffdec:characterId="28" height="68.7" width="86.6" xlink:href="#I" id="l"/><use ffdec:characterId="30" height="109.9" width="70.4" xlink:href="#J" id="m"/><use ffdec:characterId="34" height="61.4" width="82.5" xlink:href="#K" id="n"/><use ffdec:characterId="37" height="237.2" transform="scale(.2807)" width="237.2" xlink:href="#L" id="o"/><use ffdec:characterId="36" height="237.2" width="237.2" xlink:href="#M" id="L"/><use ffdec:characterId="39" height="253.7" transform="translate(7.6 6.2)" width="220.25" xlink:href="#N" id="p"/><use ffdec:characterId="44" height="104.55" width="73" xlink:href="#O" id="q"/><linearGradient gradientTransform="matrix(-.0123 .0315 -.9306 -.363 22.3 44.7)" gradientUnits="userSpaceOnUse" id="r" spreadMethod="pad" x1="-819.2" x2="819.2"><stop offset=".008" stop-color="#00fcff"/><stop offset="1" stop-color="#fff"/></linearGradient><linearGradient gradientTransform="matrix(0 .0192 -.0266 0 -21.35 34.15)" gradientUnits="userSpaceOnUse" id="s" spreadMethod="pad" x1="-819.2" x2="819.2"><stop offset="0" stop-color="#f40d00"/><stop offset="1" stop-color="#ffad21"/></linearGradient><linearGradient gradientTransform="matrix(-.0123 .0315 -.9306 -.363 22.3 44.7)" gradientUnits="userSpaceOnUse" id="t" spreadMethod="pad" x1="-819.2" x2="819.2"><stop offset=".008" stop-color="#00fcff"/><stop offset="1" stop-color="#fff"/></linearGradient><linearGradient gradientTransform="matrix(-.0058 .0217 -.9659 -.2588 42.25 50.45)" gradientUnits="userSpaceOnUse" id="u" spreadMethod="pad" x1="-819.2" x2="819.2"><stop offset="0" stop-color="#04a2ff"/><stop offset="1" stop-color="#0ff"/></linearGradient><radialGradient cx="0" cy="0" gradientTransform="translate(119 167.25) scale(.1124)" gradientUnits="userSpaceOnUse" id="x" r="819.2" spreadMethod="pad"><stop offset="0" stop-color="#1bb514"/><stop offset="1" stop-color="#041705"/></radialGradient><radialGradient cx="0" cy="0" gradientTransform="translate(89.75 116.8) scale(.1124)" gradientUnits="userSpaceOnUse" id="y" r="819.2" spreadMethod="pad"><stop offset="0" stop-color="#1bb514"/><stop offset="1" stop-color="#041705"/></radialGradient><path d="M20.2-2.75q8.2 1.2 8.2 2.9T20.2 3L.4 4.2-19.4 3q-8.15-1.15-8.15-2.85 0-1.7 8.15-2.9L.4-3.9l19.8 1.15" fill-opacity=".349" fill-rule="evenodd" transform="translate(27.55 3.9)" id="b"/></defs></svg>