<svg xmlns:ffdec="https://www.free-decompiler.com/flash" xmlns:xlink="http://www.w3.org/1999/xlink" ffdec:objectType="frame" height="90" width="90" xmlns="http://www.w3.org/2000/svg"><use ffdec:characterId="28" height="181.65" transform="translate(11.043 1.907) scale(.4801)" width="134.85" xlink:href="#a"/><defs><g id="a" transform="translate(71.45 180.45)"><use ffdec:characterId="2" height="28.8" transform="translate(-28.95 -28.8)" width="74.7" xlink:href="#b"/><use ffdec:characterId="4" height="29.15" transform="translate(-9.65 -39.55)" width="13.75" xlink:href="#c"/><use ffdec:characterId="6" height="32.3" transform="translate(7.55 -42.45)" width="17.05" xlink:href="#d"/><use ffdec:characterId="8" height="17.55" transform="translate(-17.4 -90.25)" width="16.5" xlink:href="#e"/><use ffdec:characterId="10" height="29.3" transform="translate(-39.1 -82.45)" width="26.8" xlink:href="#f"/><use ffdec:characterId="12" height="19.45" transform="translate(6.8 -91.3)" width="23.8" xlink:href="#g"/><use ffdec:characterId="14" height="43.9" transform="translate(-23.05 -69)" width="45.6" xlink:href="#h"/><use ffdec:characterId="16" height="43.05" transform="translate(-10 -68.95)" width="41.95" xlink:href="#i"/><use ffdec:characterId="18" height="32.3" transform="translate(21.25 -80.9)" width="31.75" xlink:href="#j"/><use ffdec:characterId="20" height="58.1" transform="translate(-17.25 -99.5)" width="42.5" xlink:href="#k"/><use ffdec:characterId="27" height="101.5" transform="translate(-63.35 -180.45)" width="126.75" xlink:href="#l"/></g><g id="p" fill-rule="evenodd"><path d="M6.85-15.15v1l-.05.3-.15.55v.35l-.3 1.55-.3.95-.95 2.4-.35.9-.3.7-.05.3-.05.15-.05.15-.05.05v.7h-1.9v-.55q1.7-2.8 2.65-6.3l.15-.35.05-.05.1-1.55.05-.15.05-.6v-.2l.2-.1.1-.4.15-.05.05-.1v-.25l-.05-.4h.35l.2 1.35.35-.55.1.2" fill="#705936" fill-opacity=".992" transform="translate(6.9 29.15)"/><path d="m-2.7-13.4-.05-.15-.4-.4.1-.05.05-.15-.2-.7-.85-3.3-.6-2.95q0-.95.8-2.75 1.1-2.5 2.65-2.5 3.55 0 4.65 1.85.55.95.5 2.1l.6 2.5.4 2-.05.7.1.35.4 1.75v.45l-.05.6-.05.15-.1 1.55-.05.05-.15.35q-.95 3.5-2.65 6.3v.3h-2.9L-.2-6.5q1.65-4.8-2.2-5.3v-.25l.05-.5q0-.55-.25-.75l-.1-.1" fill="#efbda1" transform="translate(6.9 29.15)"/><path d="M4.25-5.1v.25Q3.7-2.45 2.65-.6l-.05.2-3.7.35v-.1l-4-.15-.25-.05q-1.55-.4-1.1-2.9l1.7-2.35.15-.05q.4.45 1.35.3h.3v.25l-.05.2L-4.6-3h-.2l.2.25q-.05.35.3.3h.1q1.15.7 3.4.4l1.85-.1Q2-2.4 2.1-3.5v-.3q.45-.2.3-1.05l-.05-.25h1.9" fill="#033b2c" fill-opacity=".973" transform="translate(6.9 29.15)"/><path d="M-4.6-5.65V-6.7l.25-.3.05-.25h.15q.3-3-.15-5.35l-.05-.25-.25-.25-.05-.25-.35-.6q-.9-.35-1.5-4.15l-.4-3.8q0-2.3 1.25-4.15 1.15-1.75 2.95-2.6 1.8-.8 3.5-.35 1.8.45 2.85 2.3 1 1.25 1.5 2.8l.15.6 1 2.7.45 3.6.1.25v1.6l-.1-.2-.35.55-.2-1.35h-.35l.05.4v.25l-.05.1-.15.05-.1.4-.2.1v-.25L5-16.85l-.1-.35.05-.7-.4-2-.6-2.5q.05-1.15-.5-2.1-1.1-1.85-4.65-1.85-1.55 0-2.65 2.5-.8 1.8-.8 2.75l.6 2.95.85 3.3.2.7-.05.15-.1.05.4.4.05.15v.3q.2 3.9-.25 7.2v.55h-.3q-.95.15-1.35-.3" fill="#715a36" fill-opacity=".988" transform="translate(6.9 29.15)"/><path d="M-2.95-5.35v-.55q.45-3.3.25-7.2v-.3l.1.1q.25.2.25.75l-.05.5v.55q.15 3.25-.3 5.85v.55h-.25v-.25" fill="#ac9f8b" transform="translate(6.9 29.15)"/><path d="M-2.4-11.8q3.85.5 2.2 5.3l-.35 1.15h-.3v.25H-2.7v-.55q.45-2.6.3-5.85v-.3" fill="#fcf4e3" transform="translate(6.9 29.15)"/><path d="M-.55-5.35h2.9v.25h-3.2v-.25h.3" fill="#a9a78c" transform="translate(6.9 29.15)"/><path d="M-4.05-2.45v-.25q.85-.9 1.3-2.2l.05-.2h1.85v.25q-.7 2.1-3.2 2.4" fill="#09af83" transform="translate(6.9 29.15)"/><path d="m2.35-5.1.05.25q.15.85-.3 1.05l-.05-.25q-.15-1-1 1.05v.85l-1.85.1q-2.25.3-3.4-.4h.15q2.5-.3 3.2-2.4v-.25h3.2M-4.6-2.75-4.8-3h.2v.25" fill="#086950" transform="translate(6.9 29.15)"/><path d="M-4.2-2.45h-.1q-.35.05-.3-.3V-3L-3-4.9l.05-.2h.25l-.05.2q-.45 1.3-1.3 2.2v.25h-.15" fill="#6bd7bb" transform="translate(6.9 29.15)"/><path d="M2.1-3.8v.3Q2-2.4 1.05-2.15V-3q.85-2.05 1-1.05l.05.25" fill="#68c2aa" transform="translate(6.9 29.15)"/><path d="M-1.1-.05h-.25L-5.1-.3l4 .15v.1" fill="#000f0b" fill-opacity=".42" transform="translate(6.9 29.15)"/></g><g id="q" fill-rule="evenodd"><path d="m-5.2-16.75.1.6h-.05q-.35.05-.35.45l.35.5.15-.05.1.25.1-.1q.2.55.4.6l-.05 2.45v.3l.05.25q.2 2.2-.25 3.7v2.2l-.1.15q-.05.1-.2.1l-.1-.25q-.4-.5-1.5-.3v-.25q.45-.9.3-2.4l-.05-.3V-9.9l.15-.05-.1.95v.35h.2v-.05l.15-1.7-.05-.8.05-.05.15-.8.15.6.15.05q.1 0 .1-.05v-.1l-.35-1.35-.3-1.45-.35-.75-.05-.1-.25-.55-.15-.8q.25 0 .2-.1l.05-.25-.15-.35 1.5.5m-1.1 2.3v-.1l.05.1h-.05" fill="#705a38" fill-opacity=".988" transform="translate(8.5 32.3)"/><path d="M-5.2-16.75-5.55-19-6-23.5l.25-2.05.4-1.05.85-1.4q1.6-1.95 4.3-1.95 3.1 0 5 1.2 1.3.85 1.55 1.75l.1.15.25.95-.05.45.05.25-.7 2.45-1.55 5.25-.55 1.65-1.2 2.8Q1.75-9.25.4-5.9H.1v.3h-2.9l.55-2.15q1.1-4.7-2.2-4v-.3l.05-2.45q-.2-.05-.4-.6l-.3-1.05-.1-.6" fill="#edbba0" transform="translate(8.5 32.3)"/><path d="M.4-5.9q1.35-3.35 2.3-7.15l1.2-2.8.75-.15-.85 1.6.25.35.5-.65-1.25 4h-.1q-.15 1.05-.7 1.6v.25l-.35.7L1.5-6.4l.05.3H1.5q-.35.25-1.1.2" fill="#6c5636" fill-opacity=".969" transform="translate(8.5 32.3)"/><path d="m3.9-15.85.55-1.65L6-22.75l.7-2.45-.05-.25.05-.45-.25-.95-.1-.15q-.25-.9-1.55-1.75-1.9-1.2-5-1.2-2.7 0-4.3 1.95l-.85 1.4-.4 1.05L-6-23.5l.45 4.5.35 2.25-1.5-.5.15.35-.05.25q.05.1-.2.1l-.1-.55q-.05-1.2-.55-1.65l-.25-2.5-.45-5.4q0-1.05.5-2.2l1.4-1.65q2.4-1.95 6.05-1.8 3.45.25 6.05 2.15 2.7 2 2.7 4.7 0 2.4-1.4 5.85-1.15 2.95-2.6 4.9l-.5.65-.25-.35.85-1.6-.75.15m-9-.3.3 1.05-.1.1-.1-.25-.15.05-.35-.5q0-.4.35-.45h.05m-1.55.4.25.55.05.1.35.75.3 1.45.35 1.35v.1q0 .05-.1.05l-.15-.05-.15-.6-.15.8-.05.05.05.8-.15 1.7v.05h-.2V-9l.1-.95.05-.4-.25-2.5.05-.6-.25-1.9-.1-.4m.35 1.3h.05l-.05-.1v.1" fill="#705936" fill-opacity=".992" transform="translate(8.5 32.3)"/><path d="M-4.45-11.75q3.3-.7 2.2 4L-2.8-5.6h-1.85v-2.2q.45-1.5.25-3.7l-.05-.25" fill="#f9f0de" transform="translate(8.5 32.3)"/><path d="M.1-5.6v-.3h.3q.75.05 1.1-.2h.05l.2.15v.05q.9 5.2-3.2 5.35h-3v.25H-7.1v-.1q-1.8-.1-1.3-2.3l1.5-2.95.1-.25h.25q1.1-.2 1.5.3l.1.25-.05.2q-.45 1.3-1.3 2.2h-.25q.3 1.3 2.35.65l.05-.1q.7.15.9-.25l.15-.05 2.15.15v-.15q.5 0 .75-.3l.05-.25q.5-.7.3-2.1L.1-5.6" fill="#043b2c" fill-opacity=".965" transform="translate(8.5 32.3)"/><path d="M-4.95-5.35q.15 0 .2-.1l.1-.15h.5l-.05.25q-.6 2.95-2.1 2.4.85-.9 1.3-2.2l.05-.2" fill="#7feacf" transform="translate(8.5 32.3)"/><path d="M-4.45-.3v-.25h3l-.05.15-2.4.1h-.55" fill="#00130e" fill-opacity=".522" transform="translate(8.5 32.3)"/><path d="M-7.1-.3h3.2v.15L-7.1-.3" fill="#000f0b" fill-opacity=".435" transform="translate(8.5 32.3)"/><path d="M-2.8-5.6h.25l.05.25q.1.55-.3.55v.75l-.15.05q-.15 1.15-1.2 1.3v.3l-.05.1q-2.05.65-2.35-.65h.25q1.5.55 2.1-2.4l.05-.25h1.35" fill="#0baa80" transform="translate(8.5 32.3)"/><path d="M-2.55-5.6h2.4l-.05.2-.2.3v.55l-.05.2-.75 1.1.1.5.15.05v.15L-3.1-2.7v-.55q.45.05.3-.5V-4.8q.4 0 .3-.55l-.05-.25" fill="#0b6e54" transform="translate(8.5 32.3)"/><path d="M-.15-5.6H.1l.05.25q.2 1.4-.3 2.1v-.25q.2-.85-.25-1.05v-.55l.2-.3.05-.2" fill="#529883" transform="translate(8.5 32.3)"/><path d="M-.4-4.55q.45.2.25 1.05v.25L-.2-3q-.25.3-.75.3l-.15-.05-.1-.5.75-1.1.05-.2" fill="#7adcc3" transform="translate(8.5 32.3)"/><path d="M-4.15-2.4v-.3q1.05-.15 1.2-1.3l.15-.05v.3q.15.55-.3.5v.55l-.15.05q-.2.4-.9.25" fill="#038b68" transform="translate(8.5 32.3)"/></g><g id="r" fill-rule="evenodd"><path d="m-7.5-7.2-.7-1.2-.05-.05q3.5-3.8 6.55-8.05l.1-.25 1.75-.5.6-.25v-.05H.8v.05l.5.1 1.6.55q1.05.4 1.85 1.3L6.6-13.4Q8.15-11 8.15-8.8l-.05.3-.15.05.15.5.15 1q0 1.75-1.15 3.8Q5.3 0 1.75 0-.8 0-2.3-1.05q-.15-1-1.25-.8h-.1l-.95.05v.55h-.05l-.6-1.5 3.2-3.5-.1.7q-.35 1.6.15.85l-.1.5 1.15.9q.95.9 3.1.95l.05.1q.05.2.5.3.75 0 1.8-1.05l.45-.85.5-1.7.4-3.4q0-1.6-1.4-3.95-1.4-2.4-3.1-2.65l.1.35.05.2v.2q-.6-.7-2.05-.2v.1l-.1.25Q-4-10.85-7.5-7.2" fill="#675921" fill-opacity=".992" transform="translate(8.25 17.55)"/><path d="M-7.5-7.2q3.5-3.65 6.85-7.45l.1-.25q.9-.2.7.55-.6 2.55-2.9 4.8l-3.9 3.95-.85-1.6" fill="#f7ebd9" transform="translate(8.25 17.55)"/><path d="M-.55-14.9v-.1q1.45-.5 2.05.2v-.2l-.05-.2-.1-.35q1.7.25 3.1 2.65 1.4 2.35 1.4 3.95l-.4 3.4-.5 1.7L4.5-3Q3.45-1.95 2.7-1.95q-.45-.1-.5-.3l-.05-.1Q0-2.4-.95-3.3l-1.15-.9.1-.5q-.5.75-.15-.85l.1-.7-3.2 3.5-1.4-2.85 3.9-3.95q2.3-2.25 2.9-4.8.2-.75-.7-.55" fill="#eebca1" transform="translate(8.25 17.55)"/><path d="m5.2-12.65-1.65-1.2q-1.8-1.25-3-1.7v-.2q1.6-.45 3.1.7 1.15.9 1.8 2.25l-.25.15" fill="#675921" fill-opacity=".992" transform="translate(8.25 17.55)"/></g><g id="s" fill-rule="evenodd"><path d="M8-16.55q.05 1.15.7 1.7l.05.15.05.3q.15 1.1-.3 1.6-.2 2.05.25 3.5v.2L8.6-9 7.45-7.2l-.25.05q-1.05.75-2.45 1.2l-.5.1-.05-.25q-.7-1.45-1.05-3.2v-.3q-.65-1.75-1.75-3.1l-1.7-1.6q-.7-.6-1.5-1l-.9-.45-.05-.15-1.15-.25-1.2-.1v.25h-.25l-1.3.35-.35.15-.2.1q-.95.6-2.7.45v-1.85l1.5-2.55Q-6.7-21.6-4-22.9l.2-.05q2.65-.45 5.1 0h.3l1.05.25.25.05q.15.9 1.1 1l.25.05q1.65 1.4 2.85 3.2l.1.25.6 1.6H8m-11.25-4.8-.25.05q-1.55.8-2.75 1.95L-7.5-17.9q.35 1.35 1.9.35l.25-.05h3.45l.1.05 1.5 1 1.05.4v.15l.65.45.8.8.2.05q1.35 1.25 2.35 2.95l.75 1.65.1.25-.1.15-.2.1q.75 2.45 1.95-.5l.45-1.65V-12q-1.05-2.85-2.95-5.8l-.25-.35-.2-.05-.45-.5Q2.5-19.95.75-20.8l-.05-.15q-1.5-.8-3.95-.65v.25" fill="#073f30" fill-opacity=".988" transform="translate(13.4 29.3)"/><path d="m4.5-18.15.25.35q1.9 2.95 2.95 5.8v.25l-.15.05q-.8 1.15-1.95 1.85l-.1-.25-.75-1.65q-1-1.7-2.35-2.95l-.1-.25q-.25-.65-.9-1L1.3-16v-.25q2.15.1 2.75-1.3l.2-.05.2-.3.05-.25" fill="#06694f" transform="translate(13.4 29.3)"/><path d="m-5.35-17.6-.25.05q-1.55 1-1.9-.35l1.25-1.45q1.2-1.15 2.75-1.95l.25-.05 3.75.5.25.05q1.75.85 3.1 2.1l.45.5.2.05-.05.25-.2.3-.05-.15-1.65-.95-.95-.5-.1-.2q-3.05-2-4.95.05l-.35.4q.45.65 1.35.8h.3l.35.2.2.05h.25l-.1.2-.35.1h-.9v-.15l-2.65-.15v.3" fill="#98f2db" transform="translate(13.4 29.3)"/><path d="M-2.15-18.15v-.55l.35.15 1.5.15 1.15-.3.55-.45.2-.05.95.5 1.65.95.05.15-.2.05q-.6 1.4-2.75 1.3-.15 0-.2-.1l-1.4-1-1.05-.55h-.25l-.2-.05-.35-.2" fill="#07b286" transform="translate(13.4 29.3)"/><path d="m7.7-11.75-.45 1.65q-1.2 2.95-1.95.5l.2-.1.1-.15q1.15-.7 1.95-1.85l.15-.05" fill="#039d75" transform="translate(13.4 29.3)"/><path d="m4.25-5.85-.05.2-.25.05v.55H3.7v2.9l-.05.25Q3.15-.5 1.85 0L1.6-.05 1.4-.1Q-.7-.65-1.65-2.4v-.25q0-.55-.15-.95l-.35-.65v-.3q.25-1.7-1.65-1.3v.25l-.2.05-2.65 1.9-.55.45-.1.25q-.6 2.3-3.15 2.7-.1 0-.2-.1-1.45-1.2-2.2-3.1v-.25q-.15-1.2-.55-2.15v-2.4q.45 0 .35-.55l-.05-.3 1-3.45.05-.25 1.8-1.65.05-.25.25-.05.05-.2q1.75.15 2.7-.45l.2-.1-.05.2-1.8 1.45v.25l-.2.05-1.65 1.25q.45 1.05 1.15-.15l.15-.05q1.8.2.1 1.65l-.1.2-.05.2-1.8 2.2v.8h-.25l.1 2.9h.15q1.1 3.3 3.25.25l1.35-1.45q.8-.7 1.8-1.2 1.6-.8 3.05-1l1-.05.1 1.85h.15q-.2 3.3 1.95 4.05l.45.1v-.15l.5-2.15.8-4.8v-.2Q3.5-7.55 4.2-6.1l.05.25" fill="#725b39" fill-opacity=".988" transform="translate(13.4 29.3)"/><path d="m-5.1-16 2.15.25h.25l.9.45q.8.4 1.5 1l1.7 1.6q1.1 1.35 1.75 3.1v.5l-.8 4.8-.5 2.15-.05-.25-.4-1.5-.1-.4-.8-3.15-.05-.25q-.2-.35-.75-.35L-.8-8l-1 .05q-1.45.2-3.05 1-1 .5-1.8 1.2L-8-4.3q-2.15 3.05-3.25-.25v-3.7l1.8-2.2.05-.2h.3v.5l-.15.05Q-9.6-8.9-10.2-8q-.2 2.25.5 2l.05-.15 3-2.65 4.8-3.5.05-.05.45-.7q.05-1-.45-1.4l-.6-.35-.05-.15h-3.2l-1 .55-1.6.65-.05.15h-.55v-.25l1.8-1.45.05-.2.35-.15 1.3-.35h.25" fill="#edbca1" transform="translate(13.4 29.3)"/><path d="M-8.3-13.6q1.45-.4 1.2.75l-.1.05-.1-.15-2.1.15v.3l-.15.05q-.7 1.2-1.15.15l1.65-1.25.2-.05h.55" fill="#d0c5b3" fill-opacity=".996" transform="translate(13.4 29.3)"/><path d="m-7.2-12.8-.2.05q-.6 1.15-1.7 1.8v.3h-.3l.1-.2q1.7-1.45-.1-1.65v-.3l2.1-.15.1.15" fill="#948772" transform="translate(13.4 29.3)"/><path d="m-8.3-13.6.05-.15 1.6-.65 1-.55h3.2l.05.15.6.35q.5.4.45 1.4l-.45.7-.05.05-4.8 3.5-3 2.65h-.1l-.15-1.6q.55-.85.75-2.1l.05-.3v-.8q1.1-.65 1.7-1.8l.2-.05.1-.05q.25-1.15-1.2-.75" fill="#fdf4e3" transform="translate(13.4 29.3)"/><path d="m-9.1-10.15-.05.3q-.2 1.25-.75 2.1l.15 1.6h.1L-9.7-6q-.7.25-.5-2 .6-.9.95-2.1l.15-.05" fill="#fbe6d2" transform="translate(13.4 29.3)"/><path d="M-2.15-18.15h-.3q-.9-.15-1.35-.8l.35-.4q1.9-2.05 4.95-.05l.1.2-.2.05-.55.45-1.15.3-1.5-.15-.35-.15v.55" fill="#08dba5" transform="translate(13.4 29.3)"/><path d="M.75-16v-.15l-1.05-.4-1.5-1-.1-.05h.1l.35-.1.1-.2 1.05.55 1.4 1q.05.1.2.1v.25H.75" fill="#69cfb5" transform="translate(13.4 29.3)"/><path d="m2.4-14.7-.2-.05-.8-.8L.75-16h.55l.1.05q.65.35.9 1l.1.25" fill="#4c9c88" transform="translate(13.4 29.3)"/><path d="M-5.1-16v-.25l1.2.1 1.15.25.05.15h-.25L-5.1-16" fill="#726e5c" transform="translate(13.4 29.3)"/><path d="M-2.7-17.6h-2.65v-.3l2.65.15v.15" fill="#538a7c" transform="translate(13.4 29.3)"/><path d="m-.8-8 .5-.05q.55 0 .75.35l.05.25-.15-.05Q.2-7.85-.3-7.8l-.25.05v1.6H-.7L-.8-8" fill="#f0e4d1" transform="translate(13.4 29.3)"/><path d="m.5-7.45.8 3.15.1.4.4 1.5.05.25V-2l-.45-.1Q-.75-2.85-.55-6.15v-1.6l.25-.05q.5-.05.65.3l.15.05" fill="#fbf2e0" transform="translate(13.4 29.3)"/><path d="M-11.25-4.55h-.15l-.1-2.9h.25v2.9" fill="#bb947a" transform="translate(13.4 29.3)"/><path d="M-3.25-21.35v-.25q2.45-.15 3.95.65l.05.15-.25-.05-3.75-.5" fill="#4f897a" transform="translate(13.4 29.3)"/><path d="M12.15-28.8q.85.35 1.05.9l.1 1.4.1.9-.1.9-.35.5-.4.5h-.05l-1.2 1.4-4.1 4.15-.1-.25q-1.2-1.8-2.85-3.2v-.3l.9-.7.15-.05q1.85.45 3.8-1.65l.55-.6.3-.2q.75-.55 1.3-1.25.9-1.1.9-2.2v-.05l-.3-.35.3.15" fill="#eebca1" transform="translate(13.4 29.3)"/><path d="m11.8-29.2.05-.1.3.5-.3-.15.3.35v.05q0 1.1-.9 2.2-.55.7-1.3 1.25l-.3.2-.55.6q-1.95 2.1-3.8 1.65v-.3l3.75-3.8q-.2-.35 2.65-2.35l.1-.1" fill="#f7ebd9" transform="translate(13.4 29.3)"/><path d="M12.95-24.2q-.4 2.55-.75 3l-.4.45q-1.7 2.3-3.8 4.2h-.2l-.6-1.6 4.1-4.15 1.2-1.4h.05l.4-.5M2.9-22.65Q5.7-25.2 8.3-28l.8-.5q.7-.5 2.7-.7l-.1.1q-2.85 2-2.65 2.35l-3.75 3.8v.3l-.15.05-.9.7v.3L4-21.65q-.95-.1-1.1-1" fill="#675921" fill-opacity=".992" transform="translate(13.4 29.3)"/></g><g id="t" fill-rule="evenodd"><path d="m.95-6.9.2.05.15.15.15.1.35.3.9.75.2.2 1.2.95h.05l.2.2.8.65.05.05 1.2 1.15q3.25 2.8.45-3.05l-.45-.55-.3-.35-.15-.15-.15-.15-.1-.1-.55-.65-.1-.15L5-7.6l-.9-.95-1.4-1.65-.5-.6-.55-.55-.35-.3-.1-.1-.95-.35h-.5l-.2.05-.15.05h-.05v.3q.15 1.3 0 1.85l.15.05.25.35.5.95.4.9.05.1.25.6-.45-.6-.25-.3-.5-.7-.6-.85-.05-.25v-2.95l.65-.15H.3l.4.05.6.25 1.1.9.1.1v.05l.2.25 1.4 1.55 1.05 1.1.75.8.2.15.3.35.1.1.1.05.35.4.25.3.05.1v-.1h.1l.15.25.75 1.55q.6 1.25.6 1.95 0 1.5-.75 1.5-.6 0-1.7-.7l-.3-.2L4.85-3l-.1-.05-.2-.2-.05-.05-.4-.3-.35-.35-.45-.45-.6-.55-1-1.1-.2-.25-.1-.05-.15-.2-.1-.15-.2-.2" fill="#fcecd9" transform="translate(11.9 19.45)"/><path d="M.95-6.9.7-7.5l-.05-.1-.4-.9-.5-.95-.25-.35-.15-.05q.15-.55 0-1.85v-.3h.05l.15-.05.2-.05h.5l.95.35.1.1.35.3.55.55.5.6 1.4 1.65.9.95.05.1.1.15.55.65.1.1.15.15.15.15.3.35.45.55Q9.65.45 6.4-2.35L5.2-3.5l-.05-.05-.8-.65-.2-.2H4.1l-1.2-.95-.2-.2-.9-.75-.35-.3-.15-.1-.15-.15-.2-.05" fill="#fff7e6" transform="translate(11.9 19.45)"/><path d="m6.3-.6-.55-.25.05-.2.05.05-2.5-2.4L2.2-4.45.4-6.1l-.15-.1q-.9-1.5-.9.9v.2l-.05.05V-5l-.2.9v.15q0 .75-.75 1.35l-.15.1-.15.1q-1.1.65-2.7.65-4.35 0-5.75-2.7-.55-1.1-.55-3.25l.05-.65-.15-.55q0-2.65 1.2-4.95 2.1-3.9 6.85-3.9l1.9.4h.05l.1.05q2.65.85 3.85 3.25.95 1.95 2.45 3.5l1.4 1.3 1.1 1 .55.45 1.05.9.1-.05.2.25 1.45.25v-.1l.25.05v.15q0 .95-.8 2.8l-.6 1.25-.1.2Q9.2-.3 7.55-.3L7.3-.35l-.9-.2-.1-.05M.95-6.9l.2.2.1.15.15.2.3.3 1 1.1.6.55.45.45.35.35.4.3.05.05.2.2.1.05L6.1-1.95l.3.2q1.1.7 1.7.7.75 0 .75-1.5 0-.7-.6-1.95L7.5-6.05l-.15-.25h-.1v.1l-.05-.1-.25-.3L6.6-7l-.1-.05-.1-.1-.3-.35-.2-.15-.75-.8-1.05-1.1-1.4-1.55-.2-.25v-.05l-.1-.1-1.1-.9-.6-.25-.4-.05h-.55l-.65.15v2.95l.05.25.6.85.5.7.25.3.45.6" fill="#edbba0" transform="translate(11.9 19.45)"/><path d="M6.3-.6q-.65.7-2.65-.55l-1.3-.95-.85-.55-.05-.25L1.4-3l-.75-.45.05.4-.25-.35-.05-.1q-.2.9-.95 1.7Q-2.15 0-5.4 0q-3.25 0-5.1-2.75-1.4-2.1-1.4-4.5 0-1.75.5-3.35l.05-.5q0-3.2 2-4.6.5-1.05 3.4-2.45 2.5-1.25 3.85-1.1l.05-.2H-2q4.15.4 5.7 3.4 1.7 3.3 4.35 5.65l1.25 1 1.35.9.7.7q1 1.2.1 1.3l-.25-.05v.1L9.75-6.7l-.2-.25-.1.05-1.05-.9-.55-.45-1.1-1-1.4-1.3q-1.5-1.55-2.45-3.5-1.2-2.4-3.85-3.25l-.1-.05h-.05l-1.9-.4q-4.75 0-6.85 3.9-1.2 2.3-1.2 4.95l.15.55-.05.65q0 2.15.55 3.25 1.4 2.7 5.75 2.7 1.6 0 2.7-.65l.15-.1.15-.1q.75-.6.75-1.35v-.15l.2-.9v-.05l.05-.05.05-.05-.05-.05v-.1q0-2.4.9-.9l.15.1 1.8 1.65L3.35-3.4 5.85-1l-.05-.05-.05.2.55.25" fill="#675921" fill-opacity=".992" transform="translate(11.9 19.45)"/></g><g id="u" fill-rule="evenodd"><path d="m19.4-37.2.25.4L20.9-35l-.45.5h-.25l-2.15.55.05.2.2.05q0 1.05.5 1.65l.05.25v.25q.05.9-.45 1.55-.85-.6-2.7-1.1l-.05-.05-.3-.1q-2.6-1-3.85-1l-.2.1-1.4-.4-.85-.45q-2.05-.95-2.6-.8l-.05.2-2.1-1q-2.55-1.05-5.85-.05l-4.55 1.7-3.75 1.75q-1.45.6-3.85 2.4l-1.25 1.05-.65-1.15.4-.7 1.65-2.05Q-8.9-34.75-8.9-35l-.1-.25q-2.15.55-4.4 2l-3.6 2.3q-.35-.25-.7-1.95l1.2-.95.8-.55q1.15-.75 2.95-1.95 0-.9 3.85-2.65 5-2.25 11.45-2.25 8.3 0 14.8 3.05l2.05 1M1.05-39.4 1-39.6l-6.35.85q-3.55.7-4.4 1.55l-2.05.95q-2.5 1.3-2.5 1.65l.1.25.2.05 3.05-1.45 1.2-.65q2.55-1.25 6.95-2.25l3.85-.75m2.5.7h-.4v.05l-1.75.3-2.5.4-1.2.35q-2.45.85-2.45 1.25v.2l.1.05.25.05q.35 0 1.2-.45l.05.05.2.05q.2-.05.65-.25l-.05.05v.2l.5.1 2.35-.25 5 .5 1.5.55 3 1.1q.25 0 .35-.25-.4-.7-2-1.4-1.9-.7-2.55-1.05h2.25l1.6.1.25-.15.65.2 1.65.45.95.55q1.4.75 1.9.75h.2l.05-.1.05-.15q-1.2-1.2-4.5-2.35l-3.3-.75-1-.25-2.5.05-.5.05" fill="#266a70" transform="translate(24.1 43.95)"/><path d="m20.9-35 .6 1.05q-.35 1.4-.35 3.65l-.45 2.75-.55.65-1.55-1.2-.05-.2-.45-.25-.7-.2-.2.1-.4-.25h-.05l-.15-.05-.15-.05q-1.95-.65-4.95-2.05L9-32.3l-3.45-1.2q-3.6-1.3-4.4-1.3-2.05 0-9.8 3.75l-3.65 2.4-2.3 1.5.25.4h-.45v-.15l-2.15 1.35-1.05.9v.3l-.65.65q-1.2 1.45-2.15 1.4-.6-.05-1.15-.7l-.05-.3-.5-1.05.1 2.4h.15v.25l.45 2.1.2 1.9h.15v.3l.3.9q1.9 5.95 5.4 10.2l.25.3.2.05.6.4q2.15 1.3 4.2 2.8l.3.2.25.05 2.65.55h.25l.35.15q1.2.3 2.85 0v-.15l4.3-.75.25-.05Q3.05-4.1 2.4-5.6q-.1-.35-.65-.35L1.6-6l-.3-.3h.2l.55-.1.15-.2q.15.1.15-.55l-.3-.95.2.15.05.1-.25-3.7v-.25l1.9 3.35-.05.05.05.1.1.05.15.3-.1.35q.45.65 1.1 2.95 0 .75-.4 1.75-.65 1.3-1.55 1.3H3.1v.2l-.25-.05q-.65-.25-1.8.3l-.6.05-1.35.45-3.6.2-1.2.1-1 .1-.3.05-.3.05v.1l-.1-.05-.5-.05-1.2.1h-.05l-.4-.1-.95-.7-.8-.65q-1.1-.9-3.4-2.1l-1.4-.75v-.1l-.05-.05-1.55-.9-.05-.25-.25-.3v-.25q-.3-1.05-1.05-1.6l-.05-.25q-2.5-3.6-3.85-8.45l-.3-1.2-.4-1.9-.2-1.05v-3.45q.5-.6.75-1.45v-.15l.05-.25 1.65-1.25.25-.1.35-.65q1.25-2.3.95-4.15v-.25q.8-1.95 2.1-3.3l.3-.45 1.95-2.05 2.55-2.35 3.6-1.7q2.95-.95 9.9-1.7v-.05h6.2q4.65.45 6.25 1.15l2.65 1.25.9.4.55.9q.6.9 2.3 3.05l-2.05-1q-6.5-3.05-14.8-3.05-6.45 0-11.45 2.25-3.85 1.75-3.85 2.65-1.8 1.2-2.95 1.95l-.8.55-1.2.95q.35 1.7.7 1.95l3.6-2.3q2.25-1.45 4.4-2l.1.25q0 .25-4.65 3.35l-1.65 2.05-.4.7.65 1.15 1.25-1.05q2.4-1.8 3.85-2.4l3.75-1.75 4.55-1.7q3.3-1 5.85.05l2.1 1 .05-.2q.55-.15 2.6.8l.85.45 1.4.4.2-.1q1.25 0 3.85 1l.3.1.05.05q1.85.5 2.7 1.1.5-.65.45-1.55v-.25l.15-.05q.55-2.25-.7-1.85l-.2-.05-.05-.2 2.15-.55h.25l.45-.5M3.55-38.7l.5-.05 2.5-.05 1 .25 3.3.75q3.3 1.15 4.5 2.35l-.05.15-.05.1h-.2q-.5 0-1.9-.75l-.95-.55-1.65-.45-.65-.2-.25.15-1.6-.1H5.8q.65.35 2.55 1.05 1.6.7 2 1.4-.1.25-.35.25l-3-1.1-1.5-.55-5-.5-2.35.25-.5-.1v-.2l.05-.05q-.45.2-.65.25l-.2-.05-.05-.05q-.85.45-1.2.45l-.25-.05-.1-.05v-.2q0-.4 2.45-1.25l1.2-.35 2.5-.4 1.75-.3v-.05h.4m-2.5-.7-3.85.75q-4.4 1-6.95 2.25l-1.2.65L-14-34.3l-.2-.05-.1-.25q0-.35 2.5-1.65l2.05-.95q.85-.85 4.4-1.55L1-39.6l.05.2m-2.8 28.35L-1.5-10l-.45-2.1.25.4-.05.65" fill="#164a59" fill-opacity=".988" transform="translate(24.1 43.95)"/><path d="M-23.85-25.15v-.25l.35-.15.3-.35.15-.05-.05.25v.15q-.25.85-.75 1.45v-1.05" fill="#133540" fill-opacity=".906" transform="translate(24.1 43.95)"/><path d="M-23.85-20.65h-.1l-.15-4.5h.25v4.5" fill="#081c22" fill-opacity=".608" transform="translate(24.1 43.95)"/><path d="M-14.8-26.75h.45l-.25-.4 2.3-1.5 3.65-2.4q7.75-3.75 9.8-3.75.8 0 4.4 1.3L9-32.3l2.5 1.25q3 1.4 4.95 2.05l.15.05.15.05h.05l.4.25.35.15q-.05.45-.55.45l-.35-.1q-.85.75-2.05 1.1v.3l-.2.05h-.05q-.9-.6-3.95-1.55-4.65-1.45-7.8-1.2-5.1.6-7 1.4-1.55.9-2.9 1.5l-2.75 1.35q-1.5.8-2 1.35h-.05v.05l-.25.4q-.9.8-1.9 1.45l-1.5.6-.15.15q-2.45 2.2-2.6-1l2.75-3.35.9-1 .05-.2" fill="#fba05a" transform="translate(24.1 43.95)"/><path d="M18.25-23.5q-1.15 2.65-1.15 5.05v.15l-2.3 1.7-.85.65V-16l-.15-.65-.35-.45-.45-.15-2.75-.15-.75.25v.15l-1.3.9v.55h-.3q-.25 1.85.6 2.6l.2.1.05.1.4.15.15-.2.45.05q-5.25 4-5.25 4.4v.3l-.25-.1-.05.2-.15-.3-.1-.05-.05-.1.05-.05-1.9-3.35v.25l.25 3.7-.05-.1-.2-.15.3.95q0 .65-.15.55l-.15.2-.55.1h-.2l.3.3.15.05v.15Q-2.2-4.3-6.7-4.65l-3-.5h-.25q-.5-.1-.55-.55v-.1l3.75.1.05-.1q1.95-.8 2.85-2.55-.45-2.6-1.55-4.55l-1.3-2-.1-.2-2.3-2.6-1.4-1.25-.9-.65-3.1-1.85v-.25l.2-.05.05-.2q1-.65 1.9-1.45l.25-.4v-.05h.05q.5-.55 2-1.35l2.75-1.35q1.35-.6 2.9-1.5 1.9-.8 7-1.4 3.15-.25 7.8 1.2 3.05.95 3.95 1.55h.05l.2-.05.05.35.05.15.15.05 3.25 2.6.15.1m-2.95 4.75-.05-.5q-.6-3.35-2.8-.85v.3q0 1.1.35 1.6.45.65 1.5.25h.1l.9-.8m-17.05 7.7.05-.65-.25-.4.45 2.1-.25-1.05" fill="#258c94" transform="translate(24.1 43.95)"/><path d="M-22.25-21.95V-23h.3q.55.65 1.15.7.95.05 2.15-1.4l.65-.65h.15q-.3 1-.9 1.85l.1 2.9-.1.85v.3l-.05.1-1.25.65h-.05v.3h-1.35v-.3l.1-.2.55-1 .15-.7-.15-.7q-.3-.8-1.45-1.4v-.25" fill="#f8f9f1" transform="translate(24.1 43.95)"/><path d="m-14.8-26.75-.05.2-.9 1-2.75 3.35q.15 3.2 2.6 1l.15-.15 1.5-.6-.05.2-.2.05v.25l-.2.1-1.05 1.05-.85.7q-1 .65-2.15 1.15v-.3l.1-.85-.1-2.9q.6-.85.9-1.85H-18v-.3l1.05-.9 2.15-1.35v.15" fill="#f2e993" transform="translate(24.1 43.95)"/><path d="M-18.75-18.45q1.15-.5 2.15-1.15l.85-.7 1.05-1.05.2-.1 3.1 1.85.9.65 1.4 1.25 2.3 2.6.1.2 1.3 2q1.1 1.95 1.55 4.55-.9 1.75-2.85 2.55l-.05.1-3.75-.1v.1h-.25q-1.6-.5-1.6-2.65l.15-.05.1-.2.05-.15 1.55-1.05 1.35-1.5v-.25q.1-1.95-.3-3.5h-.15v-.05l-.9-1.25q-.75-.75-1.85-1.05l-.25-.05q-1.8-.4-3.15.35l-.6.5v.25h-.15q.05.55-.4.55v1.3q.45.8.65 1.85l.15.05q0 .5.3.7l.05.05.2.05.7 1.1.05.2-.05.25-.45.85v1.85l-.15-.05-.3-.45q-2.55-4.35-4.35-9.35v-.3h.05l1.25-.65.05-.1" fill="#29b2a0" transform="translate(24.1 43.95)"/><path d="M-16.35-16.35v-.25l.6-.5q1.35-.75 3.15-.35l.25.05q1.1.3 1.85 1.05l.9 1.25v.05h.15q.4 1.55.3 3.5v.25l-1.35 1.5-1.55 1.05-.05.15-.15-.05-.9-2.1Q-11.1-12-11.7-13.1l-.1-.05-.1-.25q-.3-1.15-.9-1.7l-2.95-.15-.6.2v-1.3" fill="#f9a35e" transform="translate(24.1 43.95)"/><path d="M-22.25-21.7q1.15.6 1.45 1.4l.15.7-.15.7-.55 1-.1.2h-.15l-.2-1.9-.45-2.1" fill="#efe893" transform="translate(24.1 43.95)"/><path d="M-22.25-21.95h-.15l-.1-2.4.5 1.05.05.3h-.3v1.05" fill="#cfd4c7" transform="translate(24.1 43.95)"/><path d="M-21.45-17.4h1.35q1.8 5 4.35 9.35l.3.45.15.05q.45.85.05 1.4l-.05.2-.2-.05-.25-.3q-3.5-4.25-5.4-10.2l-.3-.9" fill="#258290" transform="translate(24.1 43.95)"/><path d="m-16.35-15.05.6-.2 2.95.15q.6.55.9 1.7l.1.25-.1.2-2.8 2.4-.1.05-.05-.2-.7-1.1.85-.05.45-.1v-.15l.2-.05q.85-1.7-.65-2l-.85-.05v.25h-.2l-.05.05-.3.2v1.1l-.15-.05q-.2-1.05-.65-1.85l.45-.3.1-.25" fill="#5adbbb" transform="translate(24.1 43.95)"/><path d="M-16.9-14.5v-1.3q.45 0 .4-.55h.15v1.3l-.1.25-.45.3" fill="#e5e491" transform="translate(24.1 43.95)"/><path d="M-16.1-12.6v-1.1l.3-.2.05-.05h.2l.85 1.55.25.25.2.05v.15l-.45.1-.85.05-.2-.05-.05-.05q-.3-.2-.3-.7" fill="#efeb91" transform="translate(24.1 43.95)"/><path d="M-15.55-13.95v-.25l.85.05q1.5.3.65 2l-.2.05-.2-.05-.25-.25-.85-1.55" fill="#faa760" transform="translate(24.1 43.95)"/><path d="m-9.7-5.15.05.2q2.35 1.65-.3 2.45l-.25-.05-.3-.2q-2.05-1.5-4.2-2.8l-.6-.4.05-.2q.4-.55-.05-1.4V-9.4l.45-.85.05-.25.1-.05 2.8-2.4.1-.2.1.05q.6 1.1-1.45 2.35l.9 2.1.15.05-.1.2-.15.05q0 2.15 1.6 2.65h.25q.05.45.55.55h.25" fill="#f8ef91" transform="translate(24.1 43.95)"/><path d="M18.3-33.7q1.25-.4.7 1.85l-.15.05-.05-.25q-.5-.6-.5-1.65" fill="#266c72" transform="translate(24.1 43.95)"/><path d="M14.6-26.75v-.3q1.2-.35 2.05-1.1l.35.1q.5 0 .55-.45l-.35-.15.2-.1.7.2.45.25.05.2h-.55l.2.3.05.25.05.25q.7 1.55-.85 1.9l-.25-.05-2.4-1.05v.3l-.15-.05-.05-.15-.05-.35" fill="#f7a25d" transform="translate(24.1 43.95)"/><path d="m20.15-26.9-.9 1.3-.25-.85-.7-1.1-.05-.25-.2-.3h.55l1.55 1.2m-1.3 2.05-.6 1.35-.15-.1-3.25-2.6v-.3l2.4 1.05.25.05.6.3q.5.25.75.25" fill="#f8f6de" transform="translate(24.1 43.95)"/><path d="m19.25-25.6-.35.65-.05.1q-.25 0-.75-.25l-.6-.3q1.55-.35.85-1.9l-.05-.25.7 1.1.25.85" fill="#ffee90" transform="translate(24.1 43.95)"/><path d="m13.95-15.95-4.2 3.2-.45-.05-.15.2-.4-.15-.05-.1-.05-.25q-.7-.75-.45-2.45v-.55l1.3-.9v-.15l.75-.25 2.75.15.45.15.35.45.15.65v.05" fill="#47d8be" transform="translate(24.1 43.95)"/><path d="M8.2-15.55q-.25 1.7.45 2.45l.05.25-.2-.1q-.85-.75-.6-2.6h.3" fill="#37c6b0" transform="translate(24.1 43.95)"/><path d="m15.3-18.75-.9.8h-.1q-1.05.4-1.5-.25-.35-.5-.35-1.6v-.3q2.2-2.5 2.8.85l.05.5m-.75-.1q.7-3-1.85-1.25-.2 1.35.5 1.75l.35.15q.35.15.6 0 .3-.15.4-.65" fill="#36c5af" transform="translate(24.1 43.95)"/><path d="M14.55-18.85q-.1.5-.4.65-.25.15-.6 0l-.35-.15q-.7-.4-.5-1.75 2.55-1.75 1.85 1.25" fill="#4adbc0" transform="translate(24.1 43.95)"/><path d="m-9.7-5.15 3 .5q4.5.35 8.45-1.15v-.15q.55 0 .65.35.65 1.5-1.7 2.85l-.25.05-4.3.75H-7.3l-2.65-.55q2.65-.8.3-2.45l-.05-.2" fill="#f49e5b" transform="translate(24.1 43.95)"/><path d="M-7.05-1.95h3.2v.15q-1.65.3-2.85 0l-.35-.15" fill="#51493a" transform="translate(24.1 43.95)"/></g><g id="v" fill-rule="evenodd"><path d="M-4.35-40.4h.85q8.3 0 14.8 3.05 2.65 1.25 4.25 2.45l-.5.55-.65.7h-.25L12-33.1l.05.2.2.05q0 1.05.5 1.65l.05.25v.25q.05.9-.45 1.55-.85-.6-2.7-1.1l-.05-.05-.3-.1-2.8-.85-1.05-.15-.2.1-1.4-.4-.85-.45q-2.05-.95-2.6-.8l-.05.2-2.1-1Q-4.3-34.8-7.6-33.8l-.4.15.9-1.85 1.55-.2 5 .5 1.5.55 3 1.1.35-.25q-.4-.7-2-1.4l-2.55-1.05H2l1.6.1.25-.15.65.2 1.65.45.95.55q1.1.65 1.65.75h.45l.05-.1.05-.15q-1.2-1.2-4.5-2.35l-3.3-.75-1-.25-2.5.05-.5.05h-.4v.05l-1.75.3-1.45.1.6-1.05.5-.1-.05-.2h-.3l.95-1.65h.05" fill="#266a70" transform="translate(17.1 43.05)"/><path d="m-4.35-40.4 3.75-1.9 1.55-.75q4.4.45 6 1.1L9.6-40.7l2.8 1.3q2.05 1 2.2 1 1.1 0 2.3 1.5 1 1.25 1.25 2.25l-.05.15-.2.05.1.1 2.1 4.65.2.05.4 2.15h.1q2.15 1.2 3.6 3.1l.05.1h.1l.15 2.2.1 1.3v5.3q.15 1.95-.05 3.55l-.2 1v.5l-.05.25q-1.1 3.25-3.05 5.7l-.4.45-.25.05q-3.7 1.6-6.9 3.7l-.3.05L9.1 0h-.55L8.5-.15Q6.2-.35 4.2-.9q-1.55-.45-2.9-1l-.1-.05Q1-2.45.25-2.4L0-2.45l-.2-.05-1-.1-.2.05q-.4-.85-1.45-1.9l-3.7-3.5-.95-1-.5-2.3Q-6.45-8.7-3.8-7.1l.05.1-.25-3.7v-.25l2.8 5.15.25.4.15.05.6.6Q1.6-3.3 4-2.45l.2.05h1.65q.1.4.85.3l.25-.05 3.7.15.05-.15h.25L14.4-2v-.15q3.6-1.6 6.35-4.05l.05-.25.65-1q1.05-1.95 1.5-4.5.4-2.4.3-5.4v-.55h.1q.3-1.65-.1-2.7v-.2l.05-1.3-.35-1.4q.15-.7-.25-.3l-.55.6q-1.35 1.8-3.45.2l-.25-.05q-.8-.6-1.9-1l-.1-.15-.1-.1-3.8-2.95-.05-.2-.45-.25-.7-.2-.2.1-.4-.25h-.05l-.15-.05-.15-.05q-1.6-.5-3.9-1.55l-1.05-.5-2.5-1.25-3.45-1.2-4.4-1.3q-1 0-3.4.9l.3-.6.4-.15q3.3-1 5.85.05l2.1 1 .05-.2q.55-.15 2.6.8l.85.45 1.4.4.2-.1 1.05.15 2.8.85.3.1.05.05q1.85.5 2.7 1.1.5-.65.45-1.55v-.25l.15-.05q.55-2.25-.7-1.85l-.2-.05-.05-.2 2.15-.55h.25l.65-.7.5-.55q-1.6-1.2-4.25-2.45Q4.8-40.4-3.5-40.4h-.85m-1.75 3 1.45-.1 1.75-.3v-.05h.4l.5-.05 2.5-.05 1 .25 3.3.75q3.3 1.15 4.5 2.35l-.05.15-.05.1h-.45q-.55-.1-1.65-.75l-.95-.55-1.65-.45-.65-.2-.25.15-1.6-.1H-.25L2.3-35.2q1.6.7 2 1.4l-.35.25-3-1.1-1.5-.55-5-.5-1.55.2.7-1.3.3-.6M16-27.25l.05.2q1.75 1.6 4.25 2.5l-.05-.25q-1-3.15-2.65-5.65l.05.15q1.4 3.4-1.65 3.05m-21.5-11.2.15-.3h.3l.05.2-.5.1m-11.55 3.3-.05-.05.55-.85-.5.9" fill="#164a59" fill-opacity=".988" transform="translate(17.1 43.05)"/><path d="M-8.3-33.05q2.4-.9 3.4-.9l4.4 1.3 3.45 1.2 2.5 1.25 1.05.5q2.3 1.05 3.9 1.55l.15.05.15.05h.05l.4.25.35.15q-.05.45-.55.45-.15 0-.35-.1-.85.75-2.05 1.1v.3l-.2.05H8.3l-1.8-.85-2.15-.7q-4.65-1.45-7.8-1.2-5.1.6-7 1.4l-.2.1 2.35-5.95" fill="#fba05a" transform="translate(17.1 43.05)"/><path d="m-.8-5.35-.15-.05-.25-.4-2.8-5.15v.25l.25 3.7-.05-.1Q-6.45-8.7-8-11.25l.5 2.3q-4.4-4.95-4.4-10.65 0-3.35 1.25-7.5l.2-.1q1.9-.8 7-1.4 3.15-.25 7.8 1.2l2.15.7 1.8.85h.05l.2-.05.05.35.05.15.15.05 3.25 2.6 1 .65 1.9 1.1 1.35.65.25.05.3.2.25.05q1.75 1.5 4.35 2.1l.15.05h.3v.25l.05.3q.3 3.05-.3 5.4l-.2.65q-.65 1.9-1.95 3.25v.3h-.3v-.3q-.9-2.4-2.9-3.7l-.3-.05-.7-.15-2.2-.6-.05-.2q-1.15-.65-.8-2.75.6-.9 1.65-1.3l.25-.05q2.5-.35 3.55.75l.15.05-.6-1.3q-.8-1.05-2.3-1.35h-.55l-2.35.2q-.65.2-1.1.6l-.25.05-.6.5-.75 1.05v.8h-.3q0 1.45.15 2.95h.15q-.2.55.25.55h.3q.75 1.2 2.1 1.8l.25.05.05.15q3.3.55 4.25 3.3l-.1.25q-2.1 2.8-7.65 2.15H6.95v-.1L4.2-4.7l-2.05-.15-.05-.1-2.3-.3-.6-.1m17-7.8q.35-.05.4-.3.4-3.15-2.2-1.5-.3 2.3 1.8 1.8m-9.8-6.1v.3q0 1.1.35 1.6.45.65 1.5.25l.75-.25q.35-.35.2-1.05-.6-3.35-2.8-.85M2.15-14.7h-.3q-.25 1.85.6 2.6.1.1.2.1l.05.1 1.5.35 1.65-.2.05-.2q2.5-1.6 1.3-4.35l-.25-.05-2.75-.2-.75.25v.15l-1.3.9v.55" fill="#258c94" transform="translate(17.1 43.05)"/><path d="M12.25-32.85q1.25-.4.7 1.85l-.15.05-.05-.25q-.5-.6-.5-1.65" fill="#266c72" transform="translate(17.1 43.05)"/><path d="m11.15-27.8.2-.1.7.2.45.25.05.2H12l.2.3.05.25.05.25q.7 1.55-.85 1.9l-.25-.05q-1.1-.65-2.4-1.05v.3l-.15-.05-.05-.15-.05-.35v-.3q1.2-.35 2.05-1.1.2.1.35.1.5 0 .55-.45l-.35-.15" fill="#f7a25d" transform="translate(17.1 43.05)"/><path d="m12.55-27.25 3.8 2.95.1.1.1.15-.1.2-.15.05H16l-.05-.15-1-.35q-.25 1.5.3 2.2l.5.4.25.05 1 .65.15.1.2.05-.05.25q-.05.45-.75.3l-.25-.05-1.35-.65-1.9-1.1-1-.65-3.25-2.6v-.3q1.3.4 2.4 1.05l.25.05.6.3 1.15-.05-.25-1.3-.7-1.1-.05-.25-.2-.3h.55" fill="#f8f6de" transform="translate(17.1 43.05)"/><path d="M11.45-24.55q1.55-.35.85-1.9l-.05-.25.7 1.1.25 1.3-1.15.05-.6-.3" fill="#ffee90" transform="translate(17.1 43.05)"/><path d="M2.15-14.7v-.55l1.3-.9v-.15l.75-.25 2.75.2.25.05q1.2 2.75-1.3 4.35l-.05.2-1.65.2-1.5-.35-.05-.1-.05-.25q-.7-.75-.45-2.45" fill="#47d8be" transform="translate(17.1 43.05)"/><path d="M2.65-12q-.1 0-.2-.1-.85-.75-.6-2.6h.3q-.25 1.7.45 2.45l.05.25" fill="#37c6b0" transform="translate(17.1 43.05)"/><path d="m10.95-17.9-.1.2-.35.35-.9 1.3v.3h-.25v-.55l.75-1.05.6-.5.25-.05" fill="#54c19d" transform="translate(17.1 43.05)"/><path d="m14.15-16.85-.25.05q-1.05.4-1.65 1.3-.35 2.1.8 2.75l.05.2-.05.25-.15.35-.65 1.8-.25-.05q-1.35-.6-2.1-1.8l-.05-.3q-.45-1.4-.25-3.45v-.3l.9-1.3.35-.35.1-.2q.45-.4 1.1-.6l2.35-.2h.25v.25l-.35 1.1-.15.25v.25" fill="#f9f192" transform="translate(17.1 43.05)"/><path d="M14.65-18.7h.3q1.5.3 2.3 1.35l.6 1.3-.15-.05q-1.05-1.1-3.55-.75v-.25l.15-.25.35-1.1v-.25" fill="#e5a667" transform="translate(17.1 43.05)"/><path d="M6.4-19.25q2.2-2.5 2.8.85.15.7-.2 1.05l-.75.25q-1.05.4-1.5-.25-.35-.5-.35-1.6v-.3m1.7 1.9q.3-.15.4-.65.7-3-1.85-1.25-.2 1.35.5 1.75l.35.15q.35.15.6 0" fill="#36c5af" transform="translate(17.1 43.05)"/><path d="M8.1-17.35q-.25.15-.6 0l-.35-.15q-.7-.4-.5-1.75Q9.2-21 8.5-18q-.1.5-.4.65" fill="#4adbc0" transform="translate(17.1 43.05)"/><path d="M9.35-15.75h.25q-.2 2.05.25 3.45l.05.3h-.3q-.45 0-.25-.55v-3.2" fill="#a8da98" transform="translate(17.1 43.05)"/><path d="M9.35-12.55H9.2q-.15-1.5-.15-2.95h.3v2.95" fill="#38b89f" transform="translate(17.1 43.05)"/><path d="M10.95-2.15h-4l-.25.05q-.75.1-.85-.3Q8-2.55 8.75-4.05l.05-.25q5.55.65 7.65-2.15l.1-.25Q15.6-9.45 12.3-10l-.05-.15.65-1.8.15-.35.05-.25 2.2.6.7.15.3.05q2 1.3 2.9 3.7v.55q-1.7 4.65-7.75 5.1v.25h-.5" fill="#f7a05c" transform="translate(17.1 43.05)"/><path d="M16-27.25q3.05.35 1.65-3.05l-.05-.15q1.65 2.5 2.65 5.65l.05.25q-2.5-.9-4.25-2.5l-.05-.2" fill="#357d86" transform="translate(17.1 43.05)"/><path d="M18.7-23q2.1 1.6 3.45-.2l.55-.6q.4-.4.25.3v2.9h-.15q.05 1.45-.4 2.15v.55h-.8l-.15-.05q-2.6-.6-4.35-2.1l2.65.7v-.15q-1.3-.5-2.2-1.25l-.2-.1-.2-.05L17-21l-1-.65-.05-.25-.1-.2q-.2-.65-.1-1.7h.55q.7 1 2.35.95l.05-.15" fill="#f8a660" transform="translate(17.1 43.05)"/><path d="m16-21.65-.25-.05-.5-.4q-.55-.7-.3-2.2l1 .35.05.15h-.25q-.1 1.05.1 1.7l.1.2.05.25" fill="#fff090" transform="translate(17.1 43.05)"/><path d="M16.55-24.05q1.1.4 1.9 1l.25.05-.05.15q-1.65.05-2.35-.95l.15-.05.1-.2" fill="#ece48b" transform="translate(17.1 43.05)"/><path d="m22.95-23.5.35 1.4-.05 1.3v.75l-.2-.05-.1-.5v-2.9" fill="#bdbd79" transform="translate(17.1 43.05)"/><path d="M22.4-17.9v-.55q.45-.7.4-2.15h.15l.1.5.2.05v2.15h-.85" fill="#f4ec8f" transform="translate(17.1 43.05)"/><path d="M23.25-20.6q.4 1.05.1 2.7h-.1v-2.7" fill="#798b65" transform="translate(17.1 43.05)"/><path d="M23.25-17.9v.55q.1 3-.3 5.4-.45 2.55-1.5 4.5l-.65 1-.2.05q-1.45.7-1.1-1.35v-.3q1.3-1.35 1.95-3.25l.2-.65q.6-2.35.3-5.4l-.05-.3v-.25h1.35" fill="#49d3ba" transform="translate(17.1 43.05)"/><path d="M16.55-20.3q.7.15.75-.3l.05-.25.2.1q.9.75 2.2 1.25v.15l-2.65-.7-.25-.05-.3-.2" fill="#fcec8e" transform="translate(17.1 43.05)"/><path d="M16.2-13.15q-2.1.5-1.8-1.8 2.6-1.65 2.2 1.5-.05.25-.4.3" fill="#f7a05d" transform="translate(17.1 43.05)"/><path d="m20.8-6.45-.05.25Q18-3.75 14.4-2.15h-2.95v-.25q6.05-.45 7.75-5.1v-.25h.3q-.35 2.05 1.1 1.35l.2-.05" fill="#d6c879" transform="translate(17.1 43.05)"/><path d="M4.8-2.4h-.5l-.1-.2q-1.5-.65-2.05-2.25l2.05.15 2.75.3v.1H3.2l1 1.3.55.4.05.2" fill="#d4d48b" transform="translate(17.1 43.05)"/><path d="M5.85-2.4H4.8l-.05-.2L4.2-3l-1-1.3h5.6l-.05.25Q8-2.55 5.85-2.4" fill="#f9ef91" transform="translate(17.1 43.05)"/><path d="M14.4-2.15V-2l-3.45-.15h3.45" fill="#746c4c" transform="translate(17.1 43.05)"/><path d="m10.7-2.15-.05.15-3.7-.15h3.75" fill="#42493d" transform="translate(17.1 43.05)"/><path d="M4.3-2.4h-.1L4-2.45Q1.6-3.3-.2-4.75l-.6-.6.6.1 2.3.3.05.1Q2.7-3.25 4.2-2.6l.1.2" fill="#e1975a" transform="translate(17.1 43.05)"/><path d="M1.65-1.25h-.1v-.1l.1.1" fill="#705936" fill-opacity=".992" transform="translate(17.1 43.05)"/></g><g id="w" fill-rule="evenodd"><path d="m-15.55-28.05 2.95-3.8-.1-.1h.25l-.05.05.1.1.5-.05q2.35.35 5.4 3.2l3.6 3.2 1.15 1.05Q-.5-23-.4-21.95q.45.05.35 1.05 0 1.1-.7 2Q-1.8-17.5-4-17.5q-2 0-4.65-2.45l-2.05-2.15q-.45-.25-.9-1.05l-.3-.7-3.65-4.2m2.6-2.65q-.65 0-.95.55l-.2.8.3 1.35.65 1.3-.05.05.05.05.6.55.45.45.35.35.4.3.05.05.2.2.1.05 1.25 1.05.3.2q1.1.7 1.7.7.75 0 .75-1.5 0-.7-.6-1.95l-.75-1.55-.15-.25h-.1v.1l-.05-.1-.25-.3-.35-.4-.1-.05-.1-.1-.3-.35-.2-.15-.4-.45v.05l-.7-.5-1.9-.5" fill="#edbba0" transform="translate(15.85 32.3)"/><path d="m-12.7-31.95.35-.1 1.55-.25 1.05.05 2 .45v.05l.45.25v.1q.55.15.75.5l.3.5 2.9 2.1 1.15 1.55q1.05 1.25 1.9 1.7v.05q1.75 3.2 1.75 4 0 5.05-4.8 5.05-3.25 0-5.25-1.85l-1.05-1.25v.1h-.05l-.2-.05q-2.05-3.15-4.85-5.4-1.7-2.35-.8-3.65l3.65 4.2.3.7q.45.8.9 1.05l2.05 2.15Q-6-17.5-4-17.5q2.2 0 3.25-1.4.7-.9.7-2 .1-1-.35-1.05Q-.5-23-1.75-24.4l-1.15-1.05-3.6-3.2q-3.05-2.85-5.4-3.2l-.5.05-.1-.1.05-.05h-.25" fill="#675921" fill-opacity=".992" transform="translate(15.85 32.3)"/><path d="m-12.95-30.7 1.9.5.7.5v-.05l.4.45.2.15.3.35.1.1.1.05.35.4.25.3.05.1v-.1h.1l.15.25.75 1.55q.6 1.25.6 1.95 0 1.5-.75 1.5-.6 0-1.7-.7l-.3-.2-1.25-1.05-.1-.05-.2-.2-.05-.05-.4-.3-.35-.35-.45-.45-.6-.55-.05-.05.05-.05-.65-1.3-.3-1.35.2-.8q.3-.55.95-.55m.1 3.8 1.1.85h.05l.2.2.8.65.05.05 1.2 1.15q3.25 2.8.45-3.05l-.45-.55-.3-.35-.15-.15-.15-.15-.1-.1-.55-.65-.1-.15-.05-.1q-1.7-1.45-2.6-.7-.6.25-.05 1.5l.5 1.35.15.2" fill="#fcecd9" transform="translate(15.85 32.3)"/><path d="m-12.85-26.9-.15-.2-.5-1.35q-.55-1.25.05-1.5.9-.75 2.6.7l.05.1.1.15.55.65.1.1.15.15.15.15.3.35.45.55q2.8 5.85-.45 3.05l-1.2-1.15-.05-.05-.8-.65-.2-.2h-.05l-1.1-.85" fill="#fff7e6" transform="translate(15.85 32.3)"/><path d="m3.45-25.85.95-.35h.35l.45-.1h.95l1.45.25.05.15q-.35.85.3 2l.2.4q-1.9 1.05-4.25 1.6l.1.5.15.05v.15q-.55.1-.8.4v-.15q-2.35.1-2.4-2l2.5-2.9m1.05-.4.1-.05H5l-.3.1-.2-.05" fill="#056b52" transform="translate(15.85 32.3)"/><path d="m7.65-25.9-.05-.15-1.45-.25H5.2l-.45.1H4.4l-.95.35-.95.35-1.85.7-.7.3-.2.05-2 1.2-.55.45-.55.35-.3.25-4.45 5.35-.05.3-.8 2.4q-.15 2.05.75 3l.1.2 1.4 1.55.15.05Q-5.4-8-5.2-9.9v-1.85q1.85-4.7 5.7-7.4l.2-.1 2.45-1.5.2-.05q.25-.3.8-.4v-.15q2.45-.6 4.85-.05l.25.05q1.4 2 .9-1.35H9.9q-.35-2.45-2.25-3.2m-3.15-.35.2.05.3-.1h-.4l-.1.05m-9.15 19.3L-4.9-7l-2.2-.6-.5-.15-.05-.2q-1.65-1.6-2.25-4.2l-.1-.5-.15-.9-.1-3.5h.05l-.05-.15.4-1.3.15-.35v-.1h.05l.3-.7.95-.9.2-.25.35-.3q2-2.35 4.6-4.2l.2-.05.75-.6 1.1-.75.4-.25 1.8-.7 2.5-.5h2.45l.15.05.15.05h.05l.1.05q2.6.95 3.75 1.9 1.15 1 1.15 2.4v.3l.35 3.35.1.5-.2.4-.2.2-.3.05-.35-.1q-1-.1-1.75-.5l-.25-.05-.45-.15-1.35-.2-1.6.1-.35.05-1.65.45-1.05.7-.6.35q-1.7 1.25-3 2.9l-.35.8-.05.1-.25.4-.6 1.05-.2.25-.05.15v.05l-.2.8-.15.45-.35 1.5.15.75V-9l-.05.15q0 .05-.1.05h-.1q-.35.65-1 1.05v.8" fill="#083f30" fill-opacity=".988" transform="translate(15.85 32.3)"/><path d="m11.35-18.95 1.15 1.25q.05.1.2.1l.2.3.05.25.9 1.8.2.05q0 1.35.15 2.65h.1l.5.85.05.2.65 4.55h.15v.25l.1 2.65.15.05-.15 1.3q-.45 1.65-2 .45Q9.7-5.4 4.7-7.75v-.15L2.85-8v3.7H2.7Q2.6-1.8 1.5-.55v.25l-.05.15L-2-.3l-.05-.2q-1.2-1-1.5-3v-.25q.1-1.45-.55-2.15h-.15l-.4-1.05v-.8q.65-.4 1-1.05h.1q.1 0 .1-.05L-3.4-9v-.05q1.05.5.65 2.35l-.05.3.8 1.35v.25l1.2 2.9.15.05q1.7-.6 2-2.65l.15-.05v-5.6q7.45 1.45 12.05 5.8l.2.05Q14-7.55 13-10.95l-.05-.25-3.65-4.6-.05-.2v-.85l.8.25.25.05q.8.25 1.35.7l.3.2q-.9-1.65-3-3.85.75.4 1.75.5l.35.1.3-.05" fill="#725a38" fill-opacity=".984" transform="translate(15.85 32.3)"/><path d="M4.15-21.35 4-21.4l-.1-.5q2.35-.55 4.25-1.6l-.2-.4q-.65-1.15-.3-2 1.9.75 2.25 3.2h.1l.05.25q.3 1.25-.8 1.1L9-21.4q-2.4-.55-4.85.05" fill="#56e5e7" transform="translate(15.85 32.3)"/><path d="M10-22.7h.15q.5 3.35-.9 1.35 1.1.15.8-1.1L10-22.7" fill="#125c47" transform="translate(15.85 32.3)"/><path d="m-3.05-11.75.2-.8v-.05l.05-.15.2-.25.85-1.45.05-.1.35-.8q1.3-1.65 3-2.9l.6-.35 1.05-.7 1.65-.45.35-.05 1.6-.1 1.35.2.45.15.25.05q2.1 2.2 3 3.85l-.3-.2q-.55-.45-1.35-.7l-.05-.2q-.95-.75-1.8-.3l.6.95q.05.1.2.1l.05.2 3.65 4.6.05.25q1 3.4.75 6.65l-.2-.05Q8.95-8.7 1.5-10.15v5.6l-.15.05q-.3 2.05-2 2.65L-.8-1.9-2-4.8h.3Q.55-4.35.15-7.75H0q-.35-3.25-3.05-4m14.4 3.2v-.25q-1.45-6.15-9.3-5.9l-.05.15q-1.4.3-2.1 1.2 2.95 2.5 7.05 4.1 2.7 1.05 4.4.7" fill="#eebca0" fill-opacity=".996" transform="translate(15.85 32.3)"/><path d="m10.3-16.55-.25-.05-.8-.25v.85q-.15 0-.2-.1l-.6-.95q.85-.45 1.8.3l.05.2" fill="#b38d73" transform="translate(15.85 32.3)"/><path d="M11.35-8.55q-1.7.35-4.4-.7-4.1-1.6-7.05-4.1.7-.9 2.1-1.2l.05-.15q7.85-.25 9.3 5.9v.25" fill="#fef4e2" transform="translate(15.85 32.3)"/><path d="m3.45-25.85-2.5 2.9q.05 2.1 2.4 2v.15l-.2.05-2.45 1.5v-.1q-1.7.05-2.7.95h-.25q-1.2.45-1.1-1.65 1.5-2.45 3.3-4.45l.7-.3 1.85-.7.95-.35" fill="#03af82" transform="translate(15.85 32.3)"/><path d="M-.05-24.5q-1.8 2-3.3 4.45-.1 2.1 1.1 1.65H-2l-.05.2-.45.3h-.25q-1.05-.45-1.1-1.85l1.75-3.5h-.15l2-1.2.2-.05" fill="#02be8d" transform="translate(15.85 32.3)"/><path d="m-3.35-22.45.55-.35.55-.45h.15l-1.75 3.5q.05 1.4 1.1 1.85h.25l-.1.2q-2.2 2.4-3.1-.45.9-2.3 2.3-4.05l.05-.25" fill="#0adda6" transform="translate(15.85 32.3)"/><path d="M-2-18.4q1-.9 2.7-.95v.1l-.2.1q-3.85 2.7-5.7 7.4v1.6h-.1q.05.85-.4 1.05-.35-.95-.2-2.35.7-5.15-2.2-2.7l.15 3.2h-.15l-.1-.2q-.9-.95-.75-3l.8-2.4.05-.3 4.45-5.35.3-.25-.05.25q-1.4 1.75-2.3 4.05.9 2.85 3.1.45l.1-.2.45-.3.05-.2" fill="#88f5d9" transform="translate(15.85 32.3)"/><path d="m-2.6-13 .6-1.05.25-.4L-2.6-13" fill="#4d5544" transform="translate(15.85 32.3)"/><path d="m-6.55-9.35-.15-.05-1.4-1.55h.15l-.15-3.2q2.9-2.45 2.2 2.7-.15 1.4.2 2.35h-.15q-.1-.45-.7-.25" fill="#09dca5" transform="translate(15.85 32.3)"/><path d="m-3.4-9.05-.15-.75.35-1.5.15-.45q2.7.75 3.05 4h.15q.4 3.4-1.85 2.95H-2v-.25l-.8-1.35.05-.3q.4-1.85-.65-2.35" fill="#faeedc" transform="translate(15.85 32.3)"/><path d="M-5.2-10.15v.25q-.2 1.9-1.35.55.6-.2.7.25h.15q.45-.2.4-1.05h.1" fill="#2e896e" transform="translate(15.85 32.3)"/></g><g id="x" fill-rule="evenodd"><path d="M-20.45-56.35h.6v.05h-.3l-.3-.05" fill="#185e4d" fill-opacity=".988" transform="translate(21.25 58.1)"/><path d="m-7.85-50.95-.05-.25q-1.2-1.15-2.3.45l-.35.4-.1.7h-.15q.4 4.6 3 6.9l.2.05q1.8 1.3 3.15 3l.05.2v.25q-.3 1.95-3.2 1.35-.05.7.35 1l.2.05q3.25 1.5 4.7-1.65l.3-.3q.75.35.85 1.2.5 2.15 2.95 2.35H2q2.1.35 2.05-1.6-.05-2.45-.4-1.85.15.85-.3 1.1-2.9 1.4-2.9-2.7Q4.3-41.6 7-44.1l.1-.2.2-.05q1.95-1.55 3-3.95v-.3q.35-3.8-3.45-3.45v.25l-.15.05-.15 3.15-.05.25q-2 2.25-5.3 3.25H.95l-2.15.25h-.25q-3.8-.7-6.15-2.9l.05-.3q.15-1.8-.3-2.9m11.85-2 .6-.1q.05-1.3 3.05-1.3 1.65 0 2.1.4l.1.1h.05q1.75 1.5 2.65 3.9 0 .05.1.05l-.1.4-.7 2.15-.15.25-.05.25-.35.45-2.85 3.15q1.25 4 3.8 6.45l1.45 1.9 1.3 2.55.5.7v.15h.1l.15.25q1.3 2 3.05 3.55l.05.2q.5.95 1.6 1.3l.25.05.05.25q1.25 2.55-.55 4.55v.5l-.2.1-2.25 2.3-.25.3h-.25l-2.15.55.05.2.2.05q0 1.05.5 1.65l.05.25v.25q.1 1.85-2.1 2.65v.55l-.1.2q-.85.75-2.05 1.1v.3l-.2.05Q3.5-4.5-5.7 0l-.25-.05q-4.8-3.45-9.1-7.45l-.05-.15q-1.55-1.05-2.35-2.75h.15q-1.25-2-2.3-4.3v-.5q1.05-1.65.95-2.95h-.15l-.05-.15q-.95-.55-1.55-1.45V-20q-.1-.55-.55-.85v-.2q-.45-1.45-.25-3.5.45-.5.3-1.6l-.05-.3q2-1.7 3.15-4.2 1.3-1.8 2.15-3.85l.5-1.5.8-1.45 3-6.05q.25-1.9-.3-2.6v-.2l-.05-.2-.15-.5-.5-1.85q.5-1.9 1.5-3.25l.05-.2q2.35-.7 2.1-1.65l1.25.4.25.05v.15h-.1l.1.1.3.6.1-.1.65.9.2.05q-.4 3.5 1.6 4.5l.25.05q.3.5 1.05.4v-.1l1.6.25h1.9q4.35.1 4.25-4.25v-.3l.05-.2q.45-.6-.05-.85l.15-.3-.9-.15.05-.2m-19.6 24.4q1.65-.3 2.2.45l.2.1q.6.2.9.7l.2.05.05.25 1 1.9v2.95l-.15.05q-.45 2-2 2.9h-.25q-2.15.75-3.75 2.1v.55q0 .8-.55 1.1 1.75 4.8 5.25 7.85 3.5 3 7.6 5.5 4.8-2.8 9.55-5.75L4.7-8l2.1-1.45.05-.15q3.45-2 6.6-4.35l.05-.2h.15q.15-2-.4-3.45v-.15L9.5-18.4v-.05l-.05-.1-1-.65-.2-.05-1.85-2.5-.1-.15v-3.2l.1-.45q.35-1.2 1.15-2l.05-.2 4.35-.1q.1.1.2.1 1.55 1.1 2.1 3.2l.05.3q0 1.05-.4 1.65l-.3.25-1.45-3-.05-.2q-1.35-1-3.15-.35v1.1H8.7q0 1.3.15 2.65h.1q.4 1.1 1.3 1.7l.05.15q2.2.75 5.35.55h.25q2.6-.75 3.2-3.5v-.25q-.2-2.05-1.65-2.85l-.2-.1Q13.9-30.55 11-35q-1.5-2.25-2.85-4.65-1.15-1.9-2.9-1.7v.25H4.7l.75 2.4.05.25v2.95l-.05.25q-.9 2-3.95 1.9l-.25-.05-2.15-.75-.05-.25q-.6-.85-1.8-1.1v.25l-.25.1q-1.25 1.1-4.05.75-.1 0-.2-.1l-1.4-1.25v-.3l-.5-1.05q-.15-1.95.3-3.45.8-2.85-1.65-1.35v.25l-.05.25-6.35 13.1-.2.05q-1.35 1.85-3.05 3.45l.25 1.1.05.2q-.1 2.8 1.9 3.45l.2.05q2.55.25 3.85-.75l.2-.1q1.85-2.95-.35-5.25l-.2-.05q-2.55.55-2 2.95l-.4-.1q-.7-.25-.8-1.25v-1.05q.45-.8.75-1.65l.05-.25 1-.85.05-.2" fill="#675921" fill-opacity=".992" transform="translate(21.25 58.1)"/><path d="m-10.2-50.75.15-.05v.1l-.1.95q.65 3.1 1.6.15l.7-1.35q.45 1.1.3 2.9l-.05.3q2.35 2.2 6.15 2.9h.25v.3h-.25l-3.7.25-.1-.2Q-7-45.7-8.1-45.1l.4 1.3.1.05.15 1.05h-.15l-.2-.05q-2.6-2.3-3-6.9h.15l.1-.7.35-.4" fill="#f7f6ef" transform="translate(21.25 58.1)"/><path d="m-7.85-50.95-.7 1.35q-.95 2.95-1.6-.15l.1-.95v-.1l-.15.05q1.1-1.6 2.3-.45l.05.25" fill="#fdf395" transform="translate(21.25 58.1)"/><path d="m-4.1-47.25-.25-.05q-2-1-1.6-4.5v-.5l.45.1.05.15q1.4 1.8 1.5 4.8h-.15" fill="#78e6a8" transform="translate(21.25 58.1)"/><path d="m4-52.95-.05.2.9.15-.15.3h-.25q-2.9.7-4.8 2.4l-.05.25-.8 1.6v1.35h-.25l-1.6-.25v-.3q-.05-3.5-2.4-4.8l-.05-.15-.45-.1v.5l-.2-.05-.65-.9-.1.1-.3-.6-.1-.1h.1v-.15q0-.75.55-.75l1.4.4.7.5.65.7.2.05.25.4.2.15q.55 2 1.4 2.35.1.05.15-.45l1.25-1.45.1-.2.2-.05.3-.3.15-.35.2-.15.05-.1.1-.2.75-.45.8-.25v.05l.05-.05.6-.2q.9 0 1.15.8v.1" fill="#1c5e4d" transform="translate(21.25 58.1)"/><path d="M-3.05-46.95v.1q-.75.1-1.05-.4h.15q-.1-3-1.5-4.8 2.35 1.3 2.4 4.8v.3" fill="#3fac8a" transform="translate(21.25 58.1)"/><path d="m-7.6-43.75-.1-.05-.4-1.3q1.1-.6 2.85.6l.1.2 3.7-.25h1.6v.1l4.55-.1-.25.05q-5.6 2.9-12.05.75" fill="#ffef91" transform="translate(21.25 58.1)"/><path d="M-7.6-42.7h.15l-.15-1.05q6.45 2.15 12.05-.75l.25-.05-4.55.1v-.1q.55-.15 1-.4l.05-.15q3.3-1 5.3-3.25l.05-.25.15-3.15.15-.05q4.25 1.3 1.6 5.4L7.1-44.3l-.1.2Q4.3-41.6.45-40.3q0 4.1 2.9 2.7.45-.25.3-1.1.35-.6.4 1.85.05 1.95-2.05 1.6l-.05-.15-1.5-.9-.05-.25q-.8-1.65-1.6-1.05-.1-.85-.85-1.2l-.3.3q-1.45 3.15-4.7 1.65 4.05-.6 2.95-3.05l-.3.4-.05-.2q-1.35-1.7-3.15-3" fill="#f99e59" transform="translate(21.25 58.1)"/><path d="m-10.5-41.65.25.2q-2 6.9-5.35 12.65v.25l-.05.2-1 .85-.05.25q-.3.85-.75 1.65v1.05h-.15q-.3 2.85-2.25 1.05l-.05-.2-.25-1.1q1.7-1.6 3.05-3.45l.2-.05 6.35-13.1.05-.25" fill="#f6e789" transform="translate(21.25 58.1)"/><path d="M-15.6-28.55v-.25q3.35-5.75 5.35-12.65l-.25-.2v-.25q2.45-1.5 1.65 1.35-.45 1.5-.3 3.45l-.2.05q-1.7 4.65-3.85 8.75v.3l-.2-.1q-.55-.75-2.2-.45" fill="#fa9e59" transform="translate(21.25 58.1)"/><path d="M-13.2-28v-.3q2.15-4.1 3.85-8.75l.2-.05.5 1.05v.3h-.15q-1.55 4.3-3.3 8.25v.25l-.2-.05q-.3-.5-.9-.7" fill="#61c881" transform="translate(21.25 58.1)"/><path d="m-4.4-39.5.3-.4q1.1 2.45-2.95 3.05l-.2-.05q-.4-.3-.35-1 2.9.6 3.2-1.35v-.25" fill="#f2e186" transform="translate(21.25 58.1)"/><path d="M-12.1-27.25v-.25q1.75-3.95 3.3-8.25h.15l1.4 1.25q.1.1.2.1l1.9.25h.25q.8.45 3.2 0h.8l2.15.75.25.05q3.05 1.25 4.9 3.65L7.55-28l.05.25-.05.2q-.8.8-1.15 2l-.1.45v3.2l.1.15 1.85 2.5.2.05-.05.25-.2.5q-2.75 6.8-11.8 6.2l.05.25q0 2.55-.55 4.5v1.1l-.25-.05q-6.2-3.55-9.9-9.55.75-1.25 1.05-2.95v-.25q1.55-.9 2-2.9l.15-.05v-2.95l-1-1.9-.05-.25m8.5-4.25v-.15q-3.15.3-4.75 2.3l.05.15q1.45.8 3.65-.45l.2-.05q.75-.6.85-1.8m-.5 3.2-.05-.15q-2.15-.95-4.5.7-.25 1.3.8 1.35 2.9.1 3.75-1.9m.5-.5v.25q-.1 2 2.4 1.3l.45-.1q1.5-4.05-1.2-5.75l-.2.05q-1.25 1.6-1.45 4.25m2.95 2.35v-.1l-3.2-.15v.25l-.25.05-4.55.5-.05.2-1 .9q.7 2.1 4.3 1.5l2.1-.2 3.45-.1v-.15h.3l3.95.15v-.15l.55-.05q.6-.15.4-.55-1.35-2.6-6-2.1m-1.3 3.5h-4v.25h-.3q-1.95.2-2.65 1.65v2.65q.85 3.3 4 4.15v-.15q.65-2.15 4.25-1.4 1.2.2.55 1.1-1.25 1.3.8 1.35h.25q3.85-2.45 3.5-7.7l-.05-.3q-.65-1.15-2.35-1.45L2-22.95q-2 .55-3.75.05l-.2-.05M4.4-28.8l-.05-.25Q3.3-31.3.15-31.5l.05.25q1 3 4.2 2.45m-3.7-.3q0 .8.4 1.25 1.5 1.85 3.6.6l-.05-.15Q3.1-28.7.7-29.1" fill="#98f7b0" transform="translate(21.25 58.1)"/><path d="M-19.85-23.5q1.95 1.8 2.25-1.05h.15q.1 1 .8 1.25l.4.1q-.55-2.4 2-2.95l.2.05q2.2 2.3.35 5.25l-.2.1q-1.3 1-3.85.75l-.2-.05q-2-.65-1.9-3.45" fill="#f89a56" transform="translate(21.25 58.1)"/><path d="M-4.9-34.15h-.25l-1.9-.25q2.8.35 4.05-.75l.25-.1-.05.25q-.55.95-2.1.85" fill="#4e8f61" transform="translate(21.25 58.1)"/><path d="M-3.6-31.5q-.1 1.2-.85 1.8l-.2.05q-2.2 1.25-3.65.45l-.05-.15q1.6-2 4.75-2.3v.15" fill="#15b787" transform="translate(21.25 58.1)"/><path d="M-4.1-28.3q-.85 2-3.75 1.9-1.05-.05-.8-1.35 2.35-1.65 4.5-.7l.05.15" fill="#12b686" transform="translate(21.25 58.1)"/><path d="M-3.6-28.8q.2-2.65 1.45-4.25l.2-.05q2.7 1.7 1.2 5.75l-.45.1q-2.5.7-2.4-1.3v-.25" fill="#07b183" transform="translate(21.25 58.1)"/><path d="M-.65-26.45q4.65-.5 6 2.1.2.4-.4.55l-.55.05h-7.7v.25l-2.1.2q-3.6.6-4.3-1.5l1-.9.05-.2 4.55-.5.25-.05h3.2" fill="#08b183" transform="translate(21.25 58.1)"/><path d="M-3.85-26.45v-.25l3.2.15v.1h-3.2" fill="#50d499" transform="translate(21.25 58.1)"/><path d="m-1.95-22.95.2.05Q0-22.4 2-22.95l.05.15q1.7.3 2.35 1.45l.05.3q.35 5.25-3.5 7.7H.7q-2.05-.05-.8-1.35.65-.9-.55-1.1-3.6-.75-4.25 1.4v.15q-3.15-.85-4-4.15v-2.65q.7-1.45 2.65-1.65h.3l4-.1v-.15m-3.2 4.8q-.1.75.3.95 3.2 1.7 5.3-.4l-.05-.15q-2.45-1.25-5.55-.4m-.3-2.7.1.2q2.85 2.45 5.8.1l-.1-.2q-2.7-2.2-5.8-.1" fill="#09b284" transform="translate(21.25 58.1)"/><path d="M4.4-23.75v.15l-3.95-.15H4.4M-5.95-22.7v-.25h4v.15l-4 .1" fill="#55d69b" transform="translate(21.25 58.1)"/><path d="M-5.15-18.15q3.1-.85 5.55.4l.05.15q-2.1 2.1-5.3.4-.4-.2-.3-.95" fill="#9ff9b1" transform="translate(21.25 58.1)"/><path d="M-13.2-19.2v.25q-.3 1.7-1.05 2.95 3.7 6 9.9 9.55l.25.05q4.95-2.1 8.85-5.25l.2-.1v.25q.15 1.9-.55 2.95l.15.5.15.05-.05.15Q-.1-4.9-4.9-2.1l.05-.3.45-2.4q-5.85-2.95-9.85-7.8-.6-.7-.65-1.6-.25-2.4-2.3-2.6v-.3q1.6-1.35 3.75-2.1h.25" fill="#fba05a" transform="translate(21.25 58.1)"/><path d="M-4.1-6.4v-1.1q.55-1.95.55-4.5l-.05-.25q9.05.6 11.8-6.2l.2-.5.05-.25 1 .65.05.1v.3q.45 3.05-2.1 4.25l-.2.1q-.9 1.1-2.25 1.8v.25l-.2.1Q.85-8.5-4.1-6.4" fill="#48b590" transform="translate(21.25 58.1)"/><path d="M-17.2-16.8q2.05.2 2.3 2.6.05.9.65 1.6 4 4.85 9.85 7.8l-.45 2.4-.05.3Q-9-4.6-12.5-7.6q-3.5-3.05-5.25-7.85.55-.3.55-1.1v-.25" fill="#faed8d" transform="translate(21.25 58.1)"/><path d="M-13.45-1.35V-2.6l1.4 1.25h-1.4" fill="#29b2a0" transform="translate(21.25 58.1)"/><path d="M-5.45-20.85q3.1-2.1 5.8.1l.1.2q-2.95 2.35-5.8-.1l-.1-.2" fill="#9cf8b0" transform="translate(21.25 58.1)"/><path d="m-1.6-57.6 2.35-.15q2.4.95 2.4 2.45l-.05.3.05.4q0 .85-1.4 1l-.35.2-.75.45-.1.1v.1l-.05.1-.2.15-.15.35-.3.3-.2.05-.1.2-1.25 1.45v-1.9l-.2-.05-.05-.2h.35l-.1-.5.15-1.05-.15-.6-.15-1.2v-.05l.2-.85-.05-.5.1-.55m.7 3.25v.2l.05.05-.05-.25" fill="#dbb399" transform="translate(21.25 58.1)"/><path d="m-5.25-53.85-.05-.05-.1-.4q0-.75.9-2.1 1.1-1.6 2.55-1.2h.35l-.1.55.05.5-.2.85v.05l.15 1.2.15.6-.15 1.05.1.5h-.35l.05.2.2.05v1.9q-.05.5-.15.45-.85-.35-1.4-2.35l-.2-.15-.25-.4-.2-.05-.65-.7-.7-.5" fill="#e2decd" transform="translate(21.25 58.1)"/><path d="M4.7-52.3q.5.25.05.85l-.05.2-.25.05-1.9.75-.1.05q-.65 1.75-2 2.65v1.05H-1.2v-1.35l.8-1.6.05-.25q1.9-1.7 4.8-2.4h.25" fill="#74e2a3" transform="translate(21.25 58.1)"/><path d="m7.1-44.3 1.35-2.1q2.65-4.1-1.6-5.4v-.25q3.8-.35 3.45 3.45v.3q-1.05 2.4-3 3.95l-.2.05" fill="#d5c775" transform="translate(21.25 58.1)"/><path d="M4.7-51.25v.3Q4.8-46.6.45-46.7v-1.05q1.35-.9 2-2.65l.1-.05 1.9-.75.25-.05" fill="#41b18d" transform="translate(21.25 58.1)"/><path d="m17.25-26.45.2.1q1.45.8 1.65 2.85v.25q-.6 2.75-3.2 3.5h-.25q-3.15.2-5.35-.55l-.05-.15q-.9-.6-1.3-1.7v-3.75q1.8-.65 3.15.35l.05.2v.1q-1.45-.55-2.1.7-.2 3.8 3.2 4.15v.1h2.4q3.7-2.2 1.65-5.9l-.05-.25" fill="#eadd83" transform="translate(21.25 58.1)"/><path d="m12.15-25.35 1.45 3 .3-.25q.4-.6.4-1.65.45-.25.05-1L8.7-35l-3.45-6.1v-.25q1.75-.2 2.9 1.7Q9.5-37.25 11-35q2.9 4.45 6.25 8.55l.05.25q2.05 3.7-1.65 5.9h-2.4v-.1q-3.4-.35-3.2-4.15.65-1.25 2.1-.7v-.1" fill="#fb9e59" transform="translate(21.25 58.1)"/><path d="m14.3-24.25-.05-.3q-.55-2.1-2.1-3.2l-.05-.2Q9.45-31.2 7.3-35l-1.55-2.9-.05-.25-.2-.3-.05-.25-.75-2.4h.55L8.7-35l5.65 9.75q.4.75-.05 1" fill="#f3e78b" transform="translate(21.25 58.1)"/><path d="M-1.2-44.55v-.3l2.15-.25h.25l-.05.15q-.45.25-1 .4H-1.2" fill="#ddcab5" transform="translate(21.25 58.1)"/><path d="M-1.45-34.15h-.25q-2.4.45-3.2 0 1.55.1 2.1-.85l.05-.25 1.25.85.05.25" fill="#49b790" transform="translate(21.25 58.1)"/><path d="M-.9-34.15h-.55l-.05-.25-1.25-.85v-.25q1.2.25 1.8 1.1l.05.25" fill="#3e8661" transform="translate(21.25 58.1)"/><path d="M-1.2-37.6q.8-.6 1.6 1.05l.05.25 1.5.9.05.15h-.25q-2.45-.2-2.95-2.35" fill="#eddf84" transform="translate(21.25 58.1)"/><path d="m5.5-38.45.2.3.05.25.05.25q.15 1.45-.3 2.15v-2.95" fill="#468058" transform="translate(21.25 58.1)"/><path d="M7.6-27.75 7.55-28 6.4-29.7q-1.85-2.4-4.9-3.65 3.05.1 3.95-1.9l.05-.25q.45-.7.3-2.15l-.05-.25L7.3-35q2.15 3.8 4.8 7.05l.05.2q-.1 0-.2-.1l-4.35.1" fill="#45b18d" transform="translate(21.25 58.1)"/><path d="M4.4-28.8q-3.2.55-4.2-2.45l-.05-.25q3.15.2 4.2 2.45l.05.25" fill="#0fb585" transform="translate(21.25 58.1)"/><path d="M.7-29.1q2.4.4 3.95 1.7l.05.15q-2.1 1.25-3.6-.6-.4-.45-.4-1.25" fill="#0fb485" transform="translate(21.25 58.1)"/><path d="M.15-23.75v.15l-3.45.1v-.25H.15" fill="#4fd399" transform="translate(21.25 58.1)"/><path d="M8.95-22.15h-.1Q8.7-23.5 8.7-24.8h.25v2.65" fill="#d7ce77" transform="translate(21.25 58.1)"/><path d="m9.5-18.4 3.75.65v.15h-.55q.25 1.75.65 3.4l.15.05-.05.2Q10.3-11.6 6.85-9.6v-.55l.5-3.45.05-.3q2.55-1.2 2.1-4.25v-.25" fill="#fa9d58" transform="translate(21.25 58.1)"/><path d="M13.25-17.6q.55 1.45.4 3.45h-.15l-.15-.05q-.4-1.65-.65-3.4h.55" fill="#f7e88a" transform="translate(21.25 58.1)"/><path d="m4.7-8-.15-.05-.15-.5q.7-1.05.55-2.95v-.5q1.35-.7 2.25-1.8l.2-.1-.05.3-.5 3.45v.55l-.05.15L4.7-8" fill="#f9eb8c" transform="translate(21.25 58.1)"/></g><g id="l" transform="translate(63.35 101.5)"><use ffdec:characterId="22" height="101.5" transform="translate(-63.35 -101.5)" width="126.75" xlink:href="#m"/><use ffdec:characterId="24" height="20.7" transform="translate(-23.05 -46.15)" width="50.8" xlink:href="#n"/></g><g id="y" fill-rule="evenodd"><path d="M-36.15-84.7v-.5q2.1-12.1 13.9-14.4l.25-.05h3.5q5.5 1.55 9.35 4.75l.25.1h3.2q3.35.7 6.1-.4v-.15l2.4-.7v-.1l2.95-.55H6l9.1.25h.25q3.1.3 5.3 1.45l.05.2 3 .3 1.85.7.25.05q3.45-6.5 12.5-7.6v-.15h4.55q3.6.7 6.35 2.25l.05.15 1.65 1.3.25.05q3.5 3 5.25 7.75l.05.25.25 2.1.05.3q0 1.35.15 2.65h.1q0 1.35.15 2.65h.1v.3l-.5 2.15v1.6l-.15.05-.9 1.3v.25l-.1.25q-1.35 2.55-3.3 4.65l-.65.7v.25l-.2.05-.3.25q2.05 5.35 2.9 12v.25l.15.8h.15q-.1.9.2 1.35l.05.25q-.05 1.65.4 2.9l.15.05q.15 1.15.85 1.8l.2.05q.4 2.7.95 5.3 0 .05.1.05l.4 3.2h.15v.55q0 1.3.15 2.65h.15v4.55h-.15q.05 1-.4 1.3v1.65l-.05.2q-.55 1.3-.75 3l-.15.05q-2.9 5.3-11.85 4.45l-.25.05q-1.25 1.45-3.25 2.1l.65 2.9.15.85v3.7h-.15q0 1.45-.65 2.15v.55l-.7 1.25q-.9 1.95-1.95 1.4l.05-.4q-2.6 6.05-7.8 9.25h-.25q-1.3.3-1.1-.85l.25-.05.05-.2v-.55q1.65-3 2.35-6.95l.05-.25q.45-.45.5-1.6.1-2.85-.8-3.2v.3q-1.15 1.75-2.9 2.95-2.1 1.45-4.3.25 2.85-3.3 3.65-8.6l.1-.75v-.3h.15q.85-2.65-1.5-2.35v-.15l-2.9-.4h-.3q-2.9-.3-4.8-1.65l-.25-.05-.55-.45v-.25l2.2-.25.2-.05 6.7-1 .25-.05q-2-.3-3.5-1l-.2-.1h-.05l-.3-.2-.45-.4.15-.3.7-.05.8.2q5.35-1.15 6.55-7.75 1.2-6.7-.8-12.8l-.15.05q-3.75 3.5-10.5 2.6l.05-.25q1.5-3 2.1-6.95l-.2.05q-3.05 3.1-7.25 5v.3l-.25.05q-1.3.65-2.95 1l-.3.05-2.15.45v.3h-1.3L7-46.3q2.45-4.1 2.25-9.85l-.05.25Q5.9-47.1-2.5-43.3l-.05-.2q-6.65-4.45-10.9-11.3v.25q.7 3.85.8 6.95h-.25q-4.2-1.1-7.5-3.2.15 3.2 1.05 5.65v.25l-.1.05q.5.6.65 1.5l.05 1.8-.2 3.05-.4 2.95v1.15l-.15.95-.1.95-.15.5.05.85.05 1.35v.95l.2 1.5.05.2.05.4v.25q1.25 3.45 4.8 4.65l.05.15q-.05.95.35 1.55l.15.05-.05.2-.2.05v3.5q.2 1.25 0 1.9l-.65 1.75q-1 2.25-2.05 1.65v-.35q-1.35 2.2-2.9 5.95Q-21.2-4.4-22.25-3q-1.65 2.1-2.4.25 1.95-3.9 2.4-9.35v-.25h.15q.5-2.4-.45-3.45v.25l-.05.25q-1.25 3.05-5.25 3.45H-28l2-6.4-.2-.05-.75-.5-3.05-2.35-.05-.25q-.45-.85-1.3-1.35l-.2-.05q-.9-.85-1.35-2.1l-.1-.25-1.25-2.45.35 2.95h.15l.2.3.1.25q-2.05-.1-4.85-1.05l-.05-.2q-1.4-1.4-2.3-3.3v-.25q.05-1.3-.55-1.9v-1.05q1.85-8.15 7.15-12.9l.05-.15h.1q0-1.6-1.45-1.9l-.05-.2q-3.05-3.2-3.95-8.6l.05-.25q.05-1.3-.3-2.15.95-.55 1.45 1.85.15.95.4.55l2.55 5.55.1.05q.2-.45.35-3.2.15-2.2-.35-4v-4h.3q.05 1.65.75 2.7l.05.25q1.9 10.2 10.7 13.55l.25.05q-1-3-1.35-6.65v-6.15q.45-.2.3-1.1v-.5q.65-3.1 1.25-.05.4 1.95 1.4 3.5 2.45 4.35 7.2 6.35l.25.05q-1.35-6.1-2.25-12.8h-.15v-.25l-.25-2.7h.25q.4.55.65 1.3l.15.05q.1.85.5 1.35l.05.25q3.85 10.8 12.6 16.75l.2.05q4.45-1.7 6.85-5.35l.1-.25q1.25-1.15 2.1-2.7l.05-.2q2-3.05 3.15-6.95l.05-.3.65-1.3h.15q-.2.7.2.9l.05.15v.55q-.1 1.65.25 2.95l.05.25v.25q-.05 5.7-2.45 9.1 10.5-1.9 14.8-11.45l.15-.05q1.4 5.75-1 10.95l-.05.25q5.55-.6 8.45-3.8l.1-.2 1.05-.4v.15q1.05 6.15 1.1 13.35v.25h-.3v2.95Q32.5-31 29-28.65q1.35.3 2.85-.6l.05-.2h.55q-.45 3.05-4.55 4.3l-.2.05q-1.15.95-3.5.7l4.25.8.25.05 1.85.25h.3q9.85 1.45 14.85-3.25l.1-.2q1.2-1.45-1.1-.95-2.35.5-3.45-.4 8.6-4.45 6.3-18.05-.45-2.6-1.65-4.85-.3-.65-.35-1.65 5 5.9 3.15 15.7-.85 4.7-2.3 7.2l.7.05q3.5-.85 5.45-3.15l.2-.05q1.3-2.55 1.3-6.4v-.3l.05-.25q.15-1.55-.3-2.4v-.4q2.3 2.85.35 8.05-.5 1.5-1.55 2.65-2.25 2.55-4.95 4.65v.25l-.05.2-.75.6q-.15 1.15.8 1.1h.3l1.3-.15v-.15q6.35-.7 7.2-6.9v-.3q.5-1 .3-2.65v-.25l.15-.05q.3-2.2-.15-3.7l-.05-.3q-.95-9-5.05-14.9l-.05-.25q-1.45-2.1-2.6-4.6h.55l2.75 3.15.2.05-.45-4.25h-.1q-.95-6.5-3.6-11.1l-.1-.15-4.5-6.85Q36.5-88.3 23.7-92.55q-5.3-1.75-11.55-2.55v-.15l-5.6-.1v.25l-.25.05q-4.4.65-7.45 2.65l-.25-.05-2.45-.5v-.15l-3.7-.15v.3q-7.95 1.7-13.9 5.35-2.05 1.25-4.15 2.3-12.1 6.15-16.95 19.3v.5l-.15.05q-.25 2.15-.9 3.7v-.4q-1.05 2.55-1.1-.9.8-1.65 1.1-3.75v-1.05q.4 0 .3-.55l-.05-.3q.85-1.7 1.55-3.45l.05-.25 2.05-3.25.1-.2q2.5-2.05 3.8-5.2.4-.9-.1-1.2v-1.1l.1-.25q.45-1.55-.35-1.1m91.85-3.45-.1-.25q-2.7-7.95-10.05-11.25h-.3q-12.7-1.95-17.6 6.4 7.25 3.3 12.6 8.5l.2.05q.4 1 1.1 1.55l.25.05 1.45 1.8.15.1q3.55 3.9 6.5 8.45l.15.1 2.2-1.55.25-.1 2.35-4.8v-.25q.9-1 .85-2.9v-.55q.5-2.75 0-5.35M38.6-17.7h.1q.4 2.75 1.25 4.8h.1q.9-3.1.4-5.9-.2-1.35-.8-2.65h-.25q-1.45-.2-3.75 0h-.8v-.1l-3.75-.15-.55.1-.6 2.8Q29-15 27.4-12.1q.85.7 2-.95.85-1.2 2.25-2 1.35-3.3 1.85 0l.05.3v4q-.2 4.65-1.9 7.75.9.35 2.4-1.4 1.15-1.3 1.9-3.15 2.6-3.65 2.5-10.15h.15m-63.8-69.65q6.2-4.2 13.65-7.15l.25-.05q-4.6-4.75-12.8-3.35v.15l-.3.05q-3.65.95-6.15 3.15v.25l-.2.1-1.1 1.25v.25l-.15.05q-1.55 2.8-2.55 6.1-.2 3 .25 5.35l.05.25q4.3-3.3 9-6.25l.05-.15m-7.5 37.1v-.25q-.15-.65-.75-.8l.4 1.85h.15v1.05q-.25 1.8.75 2.3v-.15l.2-.05q1.65-1.6-.75-3.95m9.9-3.45v.25q.15 4.4 1.35 7.75.1 0 .1-.05.25-4.9-1.45-7.95m-5.6 8.5-.15-.05Q-29-46-30-45.45v.25l-.25.05q-4.05 2.35-6.7 6.1v.25l-.15.05q-.1.75-.65 1.05v.25l-.15.05-1.45 2.9v4.5l.75 1.65.05.25 2.35 1.7.05.15q-.15-8.2 4.8-12.4v.15l-.05.25-.75 1.85-.1.05q-.35 1.75-1.2 2.9.85 10.75 9.1 14.1l.25.05q-4.35-4.35-5.3-11.8l-.1-2.6q.5.45.45 1.6h.1q2.5 8.75 11.25 11.15l.25.05q-5.1-5.25-3.35-16h.15v-1.35h.15q.6-2.25-.7-2.65h-.25q-.85-.1-1.35-.55-.7.15-.95-.3-1.15-2.15-4.65-3.45m11.95 26.4q-4.3-.4-7.4-3.15l2.05 3.15 2.1 3.5h-.4l-.35-.2-.2-.05q-.45 4.35-1.35 8v.8h-.25v.8l-.1.2-.2.05q.5 1.15 1.7-.75 2.6-4.15 4.1-9.8.3-.95.35-.1.4 2.4.8.25v-.25l.15-.05q.4-1.65-.15-2.4l-.25-.2v.2h-.6m-9.8 4.55q.05.85.85.1 1.75-1.55 1.3-2.75l-.5-.05-1.65 2.7" fill="#185e4d" fill-opacity=".988" transform="translate(63.35 101.5)"/><path d="m39.95-99.1-.3.05q-2.5.4-4.25 1.55l-.05.25-1.3 2.45.05.25q.7 4.45 4.5 5.85h4l.05-.15q1.75-.7 2.6-2.25l.05-.25.75-2.95v-.25l-1.3-2.7-.25-.05q-1.9-1.3-4.55-1.8m.5 14.4-.2-.05q-5.35-5.2-12.6-8.5 4.9-8.35 17.6-6.4h.3q7.35 3.3 10.05 11.25l.1.25h-.15q-.6 8.5-5.75 12.3-.15 0-.2-.1-2.6-3.25-6.2-5.55v.3l-.15-.1-1.45-1.8-.05-.2q-.45-.9-1.3-1.4" fill="#45be94" transform="translate(63.35 101.5)"/><path d="M39.95-99.1q2.65.5 4.55 1.8l.25.05 1.3 2.7v.25l-.75 2.95-.05.25q-.85 1.55-2.6 2.25l-.05.15h-4q-3.8-1.4-4.5-5.85l-.05-.25 1.3-2.45.05-.25q1.75-1.15 4.25-1.55l.3-.05m2.8 5.35q1.45 1.05 1.8-.35.55-2.6-2.2-1.25-.15 1.2.4 1.6m-1.5 0L41.2-94q-2-3.9-4.75-.55v.25q.05 2.25 1.6 2.95h.25q2.7.05 2.95-2.4" fill="#9ff0bb" transform="translate(63.35 101.5)"/><path d="M54.05-58v-.25q-.85-6.65-2.9-12l.3-.25.2-.05q1.1 1.75 1.85 3.75l.05.25q3.35 1.7 7.2.6L61-66q-1.65-3.15-4.85-4.75l-.25-.05.85-.7 2.3-2.05.1-.2q-.8-2.15-3.25-2.65h-.2v-.25l.9-1.3.15-.05q2.75 1.1 4.1 3.65l.15.05.05.3q.15 1.1-.6 1.35v.4l-1.15.75-.15.15q.45 1.25 1.55 2l.05.15 1.15 1.55.2.05.05.2q1.45 1.6 1.25 3.55l-.05.15q-2.3.95-5.8.65v.25q.35 3.6-1.65 4.8h-1.85" fill="#bf8408" fill-opacity=".984" transform="translate(63.35 101.5)"/><path d="M55.7-88.15q.5 2.6 0 5.35v.25h-.15q-.1 1.55-.7 2.4v1.05l-2.35 4.8-.25.1-2.2 1.55-.15-.1q-2.95-4.55-6.5-8.45v-.3q3.6 2.3 6.2 5.55.05.1.2.1 5.15-3.8 5.75-12.3h.15" fill="#5ceef1" transform="translate(63.35 101.5)"/><path d="M41.25-93.75q-.25 2.45-2.95 2.4h-.25q-1.55-.7-1.6-2.95v-.25q2.75-3.35 4.75.55l.05.25" fill="#cbf8d7" transform="translate(63.35 101.5)"/><path d="M42.85-95.1q-.2 1.15.35.9 2.4-1.05-.35-.9m-.1 1.35q-.55-.4-.4-1.6 2.75-1.35 2.2 1.25-.35 1.4-1.8.35" fill="#bff6cf" transform="translate(63.35 101.5)"/><path d="M42.85-95.1q2.75-.15.35.9-.55.25-.35-.9" fill="#d2fadc" transform="translate(63.35 101.5)"/><path d="m41.8-83.1-.25-.05q-.7-.55-1.1-1.55.85.5 1.3 1.4l.05.2" fill="#2e8d78" transform="translate(63.35 101.5)"/><path d="M55.7-82.55v.3q.05 1.9-.85 2.9v-.8q.6-.85.7-2.4h.15" fill="#36a090" transform="translate(63.35 101.5)"/><path d="M51.65-70.55v-.25l.65-.7q1.95-2.1 3.3-4.65l.1-.25h.2q2.45.5 3.25 2.65l-.1.2-2.3 2.05-.85.7.25.05q3.2 1.6 4.85 4.75l-.25.05q-3.85 1.1-7.2-.6l-.05-.25q-.75-2-1.85-3.75m1.1-.25q-.15 1.45 1.05 1.35.25 0 .3-.15.55-2.7-1.35-1.2m4.1 2.7q-.25-2.8-2.25-.85-.1 1.35.85 1.55 1.5.3 1.4-.7" fill="#f4c504" transform="translate(63.35 101.5)"/><path d="M52.75-70.8q1.9-1.5 1.35 1.2-.05.15-.3.15-1.2.1-1.05-1.35" fill="#f4f897" transform="translate(63.35 101.5)"/><path d="M56.85-68.1q.1 1-1.4.7-.95-.2-.85-1.55 2-1.95 2.25.85" fill="#f4f99d" transform="translate(63.35 101.5)"/><path d="M-42.55-65.5v-.5q4.85-13.15 16.95-19.3 2.1-1.05 4.15-2.3 5.95-3.65 13.9-5.35h3.7l2.45.5.25.05q3.05-2 7.45-2.65l.25-.05h5.6q6.25.8 11.55 2.55Q36.5-88.3 43.75-78.5l4.5 6.85.1.15q2.65 4.6 3.6 11.1v.3q-.5-.5-1.3-2.2-2.25-4.95-5.55-8.8l-.3-.4q-4.7-5.2-13.4-4.1.3 1.35.25 3.2v3.7q-.75 5.15-3.5 8.3h-.1q-.25-4.8-2-8l-.05.2q-4.65 6.4-11.15 11v.3q-.55 0-.75.3l-.3.35q-.85-2.9-2.7-4.95l-.05-.15q-.4-.2-.2-.9l.05-.6Q6.2-56.35.15-51.3l-.25-.05Q-8.8-56.5-15.6-63.6l-.15-.05q-.25-.75-.65-1.3.2-.55-.15-.7l-.1-.1q-1.7 2.55-2.15 6.7-.25 1.9-.55 2.4l-.15-.1q-1.65-2.9-3.8-5.25l-.2.05q-2.6 3.05-4.1 7.15-2.6-2.85-3.9-6.95-1.4-4.6-.65-9.05l-.15.05q-2.8 2.85-3.3 7.95-.45-.1-.6-.75-.25-1.2-.05-2.65.65-4.8-2.3-3v.25l-.2.1q-2.15 2.1-3.8 3.35m68.5-19.65q.6 1.1 1.15.2l-.1-.75q-.95-3.25-3.3-5-3.45-2.65-9.95-2.25l.05.1q6.05 1.55 9.9 5.25l2.1 2.4.15.05" fill="#b1f3c6" transform="translate(63.35 101.5)"/><path d="M51.95-60.4h.1l.45 4.25-.2-.05-2.75-3.15-.1-.2q-3.8-5.4-7.1-11.25h-.15q2.05 6.2 2.55 12.8l-.25-.05q-2.75-2-6.2-3.4 2.45 3.2 4.25 6.95 1.1 2.3 1.5 4.85 2 12.7-3.8 19.45-4.3 5.05-12.35 5.05 4.1-1.25 4.55-4.3h-.55v-.25q4.15-3.25 5.9-8.7v.15q.2 4.5-1.55 8.3l-.05.25q6.45-5.05 3.9-14.7-1.75-6.95-7.65-8.25v-.15l-1.05.4q0-.55.25-.8l.25-.3q-2.55 1.2-5.85 2.2h-.1q.7-5.95-1.75-9.9l-.2.05q-4.75 5.15-11.55 8.2l-.05-.25q-.3-2.3-1-4.25l-.05-.25Q11-59 11.1-60.65q1.65 1.9 2.15 5.05l.35-.25 1.25-1.05v-.3q6.5-4.6 11.15-11l.05-.2q1.75 3.2 2 8h.1q2.75-3.15 3.5-8.3v-.25h.15l.05-2.55-.2-.65v-.25q.05-1.85-.25-3.2 8.7-1.1 13.4 4.1l.3.4q3.3 3.85 5.55 8.8.8 1.7 1.3 2.2v-.3" fill="#52d39b" transform="translate(63.35 101.5)"/><path d="M49.55-59.35H49q1.15 2.5 2.6 4.6l.05.25q1.5 3.7 2.9 9 2.45 9.1-1.3 16.35l-.15.05q-2.05 2.4-5.45 2.05v-.25q2.7-2.1 4.95-4.65 1.05-1.15 1.55-2.65 1.95-5.2-.35-8.05v1.2h-.15q-.9 8-6.55 11.2v.55l-.7-.05q1.45-2.5 2.3-7.2 1.85-9.8-3.15-15.7.05 1 .35 1.65 1.2 2.25 1.65 4.85 2.3 13.6-6.3 18.05 1.1.9 3.45.4 2.3-.5 1.1.95v-.15q-4.2 2.75-10.95 3.05v-.1q-3.35-.3-6.15.1v.3l-.25-.05-4.25-.8q2.35.25 3.5-.7l.2-.05q8.05 0 12.35-5.05 5.8-6.75 3.8-19.45-.4-2.55-1.5-4.85-1.8-3.75-4.25-6.95 3.45 1.4 6.2 3.4l.25.05q-.5-6.6-2.55-12.8h.15q3.3 5.85 7.1 11.25l.1.2" fill="#37a48c" transform="translate(63.35 101.5)"/><path d="m25.95-85.15-.15-.05-2.1-2.4q-3.85-3.7-9.9-5.25l-.05-.1q6.5-.4 9.95 2.25 2.35 1.75 3.3 5l.1.75q-.55.9-1.15-.2" fill="#59d79f" transform="translate(63.35 101.5)"/><path d="M6.55-95.1v-.25l5.6.1v.15h-5.6" fill="#65917d" transform="translate(63.35 101.5)"/><path d="M10.85-62.25h-.15l-.65 1.3-.2.05q-3.95 7.45-11 11.7l-3.15-1.9q-1.45-1.1-2.75-2.4l-8-8.5-.05-.25q-.4-.5-.5-1.35 6.8 7.1 15.5 12.25l.25.05Q6.2-56.35 10.9-62.85l-.05.6" fill="#59d79e" transform="translate(63.35 101.5)"/><path d="m10.05-60.95-.05.3q-1.15 3.9-3.15 6.95l-.2.05L4.7-51.3v.5l-.1.25Q2.2-46.9-2.25-45.2l-.2-.05Q-11.2-51.2-15.05-62l8 8.5q1.3 1.3 2.75 2.4l3.15 1.9q7.05-4.25 11-11.7l.2-.05" fill="#39a98d" transform="translate(63.35 101.5)"/><path d="m-14.5-21.7-.05-.15q-3.55-1.2-4.8-4.65v-.25l-.05-.4-.05-.2-.2-1.5v-.95l-.05-1.35-.05-.85.15-.5.1-.95.15-.95v-1.15l.4-2.95.2-3.05-.05-1.8q-.15-.9-.65-1.5l.1-.05v-.25q-.9-2.45-1.05-5.65 3.3 2.1 7.5 3.2h.25q-.1-3.1-.8-6.95v-.25q4.25 6.85 10.9 11.3l.05.2q8.4-3.8 11.7-12.6l.05-.25Q9.45-50.4 7-46.3l.65.05H9.5l-2.1 1.1Q4.7-44 5.5-45.7v-.15Q.75-44.6-4.1-42h-.25q-1.25-.55-2.15-1.3l-.15-.15.4 4.65q.85 9.95-4.5 13.65v.5l-.25-.05q-1.3-1.3-3.25-.75l-.25.05-1.35.75q.95 3.1 4.3 1.65l.25-.05-.05.25-.25.05q5.6 3.1 13.4 3.95l.25.05h.25l.15-.05q6.45-1.55 10.6-5.5l.2-.1-2.35-2.45-.05-.2 2.9 1.2v.15l4.05.25h.25v.55l-.25-.05q-2.25-.45-3.75.85 1.55 3.5 4.8 1.05.45-.3.25-1.35 1.9 1.35 4.8 1.65h.3l-.1.2Q22.05-21.1 19.6-20q-.55.5-2.35 1.2L14-17.7q-5.95 1.75-9.75 1.8h-.2l-2.35-.05h-.5l-.85-.2q-4.1-1.2-8-2.65l-6.85-2.9m5.3-20.55v.1q1.45-2.65-1.85-3.3l.05.25 1.8 2.95" fill="#ecbba1" transform="translate(63.35 101.5)"/><path d="m6.85-53.7-.05.2q-.85 1.55-2.1 2.7v-.5l1.95-2.35.2-.05" fill="#329881" transform="translate(63.35 101.5)"/><path d="M11.1-60.65v-.55q1.85 2.05 2.7 4.95l.3-.35q.2-.3.75-.3l-1.25 1.05-.35.25q-.5-3.15-2.15-5.05" fill="#6ddea7" transform="translate(63.35 101.5)"/><path d="m31.4-52.4-.1.2q-2.9 3.2-8.45 3.8l.05-.25q2.4-5.2 1-10.95l-.15.05Q19.45-50 8.95-48.1q2.4-3.4 2.45-9.1v-.25q.7 1.95 1 4.25l.05.25Q19.25-56 24-61.15l.2-.05q2.45 3.95 1.75 9.9h.1q3.3-1 5.85-2.2l-.25.3q-.25.25-.25.8M-16.4-62h.15q.9 6.7 2.25 12.8l-.25-.05q-4.75-2-7.2-6.35l3.9 2.5.1.15q.6-1.45.45-4.5-.1-2.6.6-4.55" fill="#36a38b" transform="translate(63.35 101.5)"/><path d="M31.65-68.95v-3.2l.2.65-.05 2.55h-.15" fill="#86e7b1" transform="translate(63.35 101.5)"/><path d="M14.6-48.1v-.3q4.2-1.9 7.25-5l.2-.05q-.6 3.95-2.1 6.95l-.05.25q6.75.9 10.5-2.6l.15-.05q2 6.1.8 12.8-1.2 6.6-6.55 7.75l-.8-.2-.7.05-.15.3.45.4.3.2h.05l.2.1q1.5.7 3.5 1l-.25.05-6.7 1-.2.05-2.2.25v.25h-.25v-.55h-.25l-4.05-.25v-.15l-2.9-1.2-.05-.15q-.55-.3-.75-.9l-.2-.05Q8.2-32.35 8.2-39.3l1.15-3.5h-.1v-.25q.6-.35.9-1l.15-.05 4.6-3q1.35-.85-.3-1" fill="#ebbba0" transform="translate(63.35 101.5)"/><path d="m31.9-29.45-.05.2q-1.5.9-2.85.6 3.5-2.35 4.25-7.45v-.3q.45-.85.3-2.4v-.5q-.05-7.2-1.1-13.35 5.9 1.3 7.65 8.25 2.55 9.65-3.9 14.7l.05-.25q1.75-3.8 1.55-8.3v-.15q-1.75 5.45-5.9 8.7v.25m-56-68.3.25.05q2.4.7 3.45 2.9l-.05.2q-3.65 5.4-10.1 8.05v-.25q-.8-2.5-.5-6.15l.5-1.1v-.5q2.5-2.2 6.15-3.15l.3-.05m-.3 3.75q1 .7 1.2-.35.5-2.55-1.75-.75.05.8.55 1.1m-1 .8q-1.05-3.85-3.8-.85v.3q.95 3.6 3.75 1.05.15-.25.05-.5" fill="#9fefbb" transform="translate(63.35 101.5)"/><path d="M33.25-36.4v-2.65h.3v.25q.15 1.55-.3 2.4" fill="#569575" transform="translate(63.35 101.5)"/><path d="M8.95-46.25v-.3L11.1-47l.3-.05-.1.15-1.8.65h-.55" fill="#bca28b" transform="translate(63.35 101.5)"/><path d="M11.4-47.05q1.65-.35 2.95-1l.25-.05q1.65.15.3 1l-4.6 3 .05-.25q2.45-3.1-1.4-.85l.15 2.4h.25L8.2-39.3q0 6.95 1.65 11.15l.2.05q.2.6.75.9l.05.15.05.2 2.35 2.45-.2.1q-4.15 3.95-10.6 5.5H1.8q-7.8-.85-13.4-3.95l.25-.05.05-.25q1-.55.6-1.35l-.05-.25v-.5q5.35-3.7 4.5-13.65l-.4-4.65.15.15q.9.75 2.15 1.3h.25q4.85-2.6 9.6-3.85v.15q-.8 1.7 1.9.55l2.1-1.1 1.8-.65.1-.15M-1.45-24.9l-.05-.2q-1.35-1.05-3.15-.35-.2.7.3.8h.25q2.2 2.55 2.8-.25h-.15" fill="#fef5e4" transform="translate(63.35 101.5)"/><path d="m10.3-44.1-.15.05q-.3.65-.9 1v.25H9.1l-.15-2.4q3.85-2.25 1.4.85l-.05.25" fill="#20364b" transform="translate(63.35 101.5)"/><path d="m18.3-24.9.55.45.25.05q.2 1.05-.25 1.35-3.25 2.45-4.8-1.05 1.5-1.3 3.75-.85l.25.05h.25" fill="#fe7fa5" transform="translate(63.35 101.5)"/><path d="m-14-20.1-.15-.05q-.4-.6-.35-1.55l6.85 2.9q3.9 1.45 8 2.65l.85.2h.5l2.35.05h.2q3.8-.05 9.75-1.8l3.25-1.1q1.8-.7 2.35-1.2 2.45-1.1 4.5-2.55l.1-.2 2.9.4v.15l-.2.05q-2.85 1.95-6.3 3.35-3.25 1.35-7.1 2.15l.4.35-4.45.7-2.45.3-3.65.25v.3H.95v-.15l-2.65-.6-.75-.15-1-.35-1.25-.4-.05-.2-.15-.05h-.25l-.05-.15-2.15-.65-.2-.05q-1.3-.8-3.2-1l-.1-.15-.25-.15-2.1-.75v-.15q-.55-.15-.8-.4" fill="#675921" fill-opacity=".992" transform="translate(63.35 101.5)"/><path d="M35.65-21.45q2.3-.2 3.75 0h.25q.6 1.3.8 2.65.5 2.8-.4 5.9h-.1q-.85-2.05-1.25-4.8h-.1l-.05-.25-.3-.85q-.85-1.8-2.6-2.65" fill="#35a189" transform="translate(63.35 101.5)"/><path d="M35.65-21.45q1.75.85 2.6 2.65l.3.85.05.25h-.15q.1 6.5-2.5 10.15l.2-1.35q1.45-6.1-.7-9.9-.85-1.5-2.2-2.65h2.4" fill="#50d19a" transform="translate(63.35 101.5)"/><path d="M30.85-23.3h-.3l-1.85-.25v-.3q2.8-.4 6.15-.1v.1h-4.8q.1.45.8.45v.1" fill="#4ed3cd" transform="translate(63.35 101.5)"/><path d="m45.8-26.75-.1.2q-5 4.7-14.85 3.25v-.1q-.7 0-.8-.45h4.8q6.75-.3 10.95-3.05v.15" fill="#57e5e5" transform="translate(63.35 101.5)"/><path d="m31.1-21.7 3.75.15v.1H33q-1.3.2-1.9-.25" fill="#43a17b" transform="translate(63.35 101.5)"/><path d="M35.95-7.55q-.75 1.85-1.9 3.15-1.5 1.75-2.4 1.4 1.7-3.1 1.9-7.75v-4l-.05-.3q-.5-3.3-1.85 0-1.4.8-2.25 2-1.15 1.65-2 .95 1.6-2.9 2.55-6.7l.6-2.8.55-.1q.6.45 1.9.25h.25q1.35 1.15 2.2 2.65 2.15 3.8.7 9.9l-.2 1.35" fill="#9cedb9" transform="translate(63.35 101.5)"/><path d="M53.8-42.25q.45.85.3 2.4l-.05.25h-.1q-.15-.9-.15-1.85v-.8" fill="#319484" transform="translate(63.35 101.5)"/><path d="M54.05-39.6v.3q0 3.85-1.3 6.4l-.2.05q-1.95 2.3-5.45 3.15v-.55q5.65-3.2 6.55-11.2h.15q0 .95.15 1.85h.1" fill="#5aebed" transform="translate(63.35 101.5)"/><path d="M51.65-54.5q4.1 5.9 5.05 14.9l.05.3v4q.2 1.65-.3 2.65v-.25q.2-2.2-.25-3.75v.25q-.5 6.6-4.8 9.35l-.25.05q-1.3.95-3.2 1.3v.55h-.3q-.95.05-.8-1.1l.75-.6.05-.2q3.4.35 5.45-2.05l.15-.05Q57-36.4 54.55-45.5q-1.4-5.3-2.9-9" fill="#4ece9b" transform="translate(63.35 101.5)"/><path d="M49.25-25.45v.15l-1.3.15v-.55q1.9-.35 3.2-1.3l.25-.05-.05.2q-.9.85-2.35 1.15l.05.2.2.05" fill="#5aeae4" transform="translate(63.35 101.5)"/><path d="M56.45-32.65v.3q-.85 6.2-7.2 6.9l-.2-.05-.05-.2q1.45-.3 2.35-1.15l.05-.2q4.3-2.75 4.8-9.35v-.25q.45 1.55.25 3.75v.25" fill="#5ceeed" transform="translate(63.35 101.5)"/><path d="M56.75-39.3q.45 1.5.15 3.7l-.15.05v-3.75" fill="#369670" transform="translate(63.35 101.5)"/><path d="M-7.55-92.95v-.3l3.7.15v.15h-3.7" fill="#588472" fill-opacity=".996" transform="translate(63.35 101.5)"/><path d="M-24.1-97.75v-.15q8.2-1.4 12.8 3.35l-.25.05Q-19-91.55-25.2-87.35l-.25.05q-3.1 1.75-6.7 3.15l-.05-.25q-.65-1.55-.5-4l.8-4 .05-.3v-.25l1.1-1.25.2-.1v.25l-.5 1.1q-.3 3.65.5 6.15v.25q6.45-2.65 10.1-8.05l.05-.2q-1.05-2.2-3.45-2.9l-.25-.05" fill="#48c295" transform="translate(63.35 101.5)"/><path d="M-24.4-94q-.5-.3-.55-1.1 2.25-1.8 1.75.75-.2 1.05-1.2.35" fill="#cbf8d8" transform="translate(63.35 101.5)"/><path d="M-25.4-93.2q.1.25-.05.5-2.8 2.55-3.75-1.05v-.3q2.75-3 3.8.85" fill="#cef9da" transform="translate(63.35 101.5)"/><path d="m-31.85-92.7-.05.3-.8 4q-.15 2.45.5 4l.05.25q3.6-1.4 6.7-3.15l.25-.05-.05.15q-4.7 2.95-9 6.25l-.05-.25q-.45-2.35-.25-5.35 1-3.3 2.55-6.1l.15-.05" fill="#36a38a" transform="translate(63.35 101.5)"/><path d="M-36.15-84.7q.8-.45.35 1.1l-.1.25h-1.55v.25h-.3l-.25.05-2.95.8v.2l-.25.1-1.85 1.25-.25.05-.3.25v.25l-.25.05-.3.2q1.35 2.15 4.8 2.15h.25l3.15-3.5.05-.25v-.75q.5.3.1 1.2-1.3 3.15-3.8 5.2l-.05-.2q-1.5-.45-2.65-1.15-.15.55.25.65l.05.15-.1.2-2.85 3v.25l-.15.05q-.45 1.25-1.15 2.1 2.45.25 4.3-1.55l.2-.05-.05.25q-.7 1.75-1.55 3.45l-.25.05q-4.15.7-4.3-2.7 1.5-2.9 3.7-5.1l.05-.2-1.55-2.95-.05-.3q2.45-3.4 7.15-4.65l.05-.15h2.4" fill="#be8308" fill-opacity=".984" transform="translate(63.35 101.5)"/><path d="m-36.95-82.8-.25.05-.8.5v.75h-.15l-.15-1.05.5-.3.05-.25h.3l.45.1.05.2" fill="#f3ea30" transform="translate(63.35 101.5)"/><path d="M-35.9-83.35v1.85l-.15.1-3.05 2.55-.2.1q-3.2.95-4.3-1.4v-.25l.3-.25.25-.05q2.05 3.35 3.25-.4.35-1.1-1.15-.95v-.2l2.95-.8.25-.05-.05.25-.5.3.15 1.05h.15q1.9.65 1.2-1.25l-.15-.05-.05-.2-.45-.1v-.25h1.55" fill="#f2e108" transform="translate(63.35 101.5)"/><path d="M-38-81.5v-.75l.8-.5.25-.05.15.05q.7 1.9-1.2 1.25" fill="#f4f78f" transform="translate(63.35 101.5)"/><path d="M-43.6-80.15q1.1 2.35 4.3 1.4l.2-.1 3.05-2.55.15-.1-.05.25-3.15 3.5h-.25q-3.45 0-4.8-2.15l.3-.2.25-.05" fill="#eba905" transform="translate(63.35 101.5)"/><path d="m-39.6-75.85-.1.2-2.05 3.25-.2.05q-1.85 1.8-4.3 1.55.7-.85 1.15-2.1l.15-.05q2.75.05 3.1-3.45H-42l-.05-.15q-.4-.1-.25-.65 1.15.7 2.65 1.15l.05.2" fill="#f2a103" transform="translate(63.35 101.5)"/><path d="M-16.4-64.95h-.25l.25 2.7v.25q-.7 1.95-.6 4.55.15 3.05-.45 4.5l-.1-.15-3.9-2.5q-1-1.55-1.4-3.5-.6-3.05-1.25.05v.25q-1.6 2.6-1.6 6.4 0 2.9-.55 4l-.1-.2q-4.7-3.9-7.65-9.65l-.05-.25q-.7-1.05-.75-2.7v-.25q.2-1.4-.55-.8v1.6l.15 2.65h.1v.95q-2.9-5.15-3.45-11.9v-.25q2.95-1.8 2.3 3-.2 1.45.05 2.65.15.65.6.75.5-5.1 3.3-7.95l.15-.05q-.75 4.45.65 9.05 1.3 4.1 3.9 6.95 1.5-4.1 4.1-7.15l.2-.05q2.15 2.35 3.8 5.25l.15.1q.3-.5.55-2.4.45-4.15 2.15-6.7l.1.1q.35.15.15.7" fill="#54d49c" transform="translate(63.35 101.5)"/><path d="M-43.6-61.75q.65-1.55.9-3.7l.15-.05q1.65-1.25 3.8-3.35l.2-.1q.55 6.75 3.45 11.9v-.15q.5 1.8.35 4-.15 2.75-.35 3.2l-.1-.05-2.55-5.55v-.25l-1.35-6.4.05-.3q1.05-4.15-.8-2.1v.25q-2.05 3.2-3.2 7.2-.55 1.95-.85 1.6v-4.5q.5-.4.3-1.35v-.3" fill="#37a38b" transform="translate(63.35 101.5)"/><path d="M-39.85-64.4v-.25q1.85-2.05.8 2.1l-.05.3h-.1q.2-1.7-.65-2.15" fill="#1e6757" transform="translate(63.35 101.5)"/><path d="M-43.6-67.05v.25q-.3 2.1-1.1 3.75.05 3.45 1.1.9v.7q.2.95-.3 1.35v1.05h-.25l.1 3.45h.15q.3.35.85-1.6 1.15-4 3.2-7.2.85.45.65 2.15h.1l1.35 6.4v.25q-.25.4-.4-.55-.5-2.4-1.45-1.85.35.85.3 2.15l-.05.25h-.15q-.45-2.6-1.15-4.8l-.05.25-1.6 6.7v1.85h-.1q.2 1.7-.65 2.15l-.05-.2q-1.55-2.5-2.35-5.7v-4.5q.45-.5.25-1.6V-62q.8-2.4 1.45-5.05h.15m.55 12q.5 2.4.8-1.1.15-1.7-.8 1.1" fill="#135546" fill-opacity=".976" transform="translate(63.35 101.5)"/><path d="M-34.8-61.2h-.3v.55h-.25v-1.6q.75-.6.55.8v.25" fill="#3da67b" transform="translate(63.35 101.5)"/><path d="M-35.1-60.65V-58h-.1l-.15-2.65h.25" fill="#399d75" transform="translate(63.35 101.5)"/><path d="M-24.1-58.8v.25q.15.9-.3 1.1v2.95h-.25l.1 2.9h.15v.3q.35 3.65 1.35 6.65l-.25-.05q-8.8-3.35-10.7-13.55 2.95 5.75 7.65 9.65l.1.2q.55-1.1.55-4 0-3.8 1.6-6.4" fill="#36a28a" transform="translate(63.35 101.5)"/><path d="M-24.4-54.5v2.9h-.15l-.1-2.9h.25" fill="#29816d" transform="translate(63.35 101.5)"/><path d="M-22.8-53.7q1.7 3.05 1.45 7.95 0 .05-.1.05-1.2-3.35-1.35-7.75v-.25" fill="#4ecc95" transform="translate(63.35 101.5)"/><path d="m-43.05-80.7 1.85-1.25.25-.1q1.5-.15 1.15.95-1.2 3.75-3.25.4" fill="#f3f9a3" transform="translate(63.35 101.5)"/><path d="M-42-76.4h.15q-.35 3.5-3.1 3.45v-.25l2.85-3 .1-.2" fill="#eeda00" transform="translate(63.35 101.5)"/><path d="M-45.2-61.75v.3q.2 1.1-.25 1.6v.8h-.3v-1.05q.45-.5.4-1.65h.15" fill="#061e18" fill-opacity=".502" transform="translate(63.35 101.5)"/><path d="M-43.9-55.6h-.15l-.1-3.45h.25v3.45" fill="#1e6857" transform="translate(63.35 101.5)"/><path d="M-45.75-59.05h.3v3.7h-.15l-.15-3.7" fill="#051915" fill-opacity=".471" transform="translate(63.35 101.5)"/><path d="M-43.05-49.45q.85-.45.65-2.15h.1v.3q.25 2.8-.75 1.85" fill="#051915" fill-opacity=".455" transform="translate(63.35 101.5)"/><path d="M-43.05-55.05q.95-2.8.8-1.1-.3 3.5-.8 1.1" fill="#145d4d" transform="translate(63.35 101.5)"/><path d="M-63.35-19.85q1.55-.15 0 .4v-.4" fill="#596a5d" fill-opacity=".506" transform="translate(63.35 101.5)"/><path d="M-9.2-42.25-11-45.2l-.05-.25q3.3.65 1.85 3.3v-.1" fill="#223346" transform="translate(63.35 101.5)"/><path d="m-11.3-23.05-.25.05q-3.35 1.45-4.3-1.65l1.35-.75.25-.05q1.95-.55 3.25.75l.25.05.05.25q.4.8-.6 1.35" fill="#fe80a6" transform="translate(63.35 101.5)"/><path d="M-4.1-24.65h-.25q-.5-.1-.3-.8 1.8-.7 3.15.35l.05.2-.05.2-2.6.05" fill="#ca7b7e" transform="translate(63.35 101.5)"/><path d="m-4.1-24.65 2.6-.05.05-.2h.15q-.6 2.8-2.8.25" fill="#efbca1" transform="translate(63.35 101.5)"/><path d="m-28.4-45.2-.15.6q-5.1 3.9-8.65 9.85l-.15-.1-.4-1.8v-1.05q.55-.3.65-1.05l.15-.05v.3q0 1.05-.5 1.6.1 1.65 1.35-.3 2.9-4.65 7.15-8H-30v-.25q1-.55 1.45.2l.15.05" fill="#82e4ae" transform="translate(63.35 101.5)"/><path d="M-37.2-34.75q3.55-5.95 8.65-9.85l.15-.6q3.5 1.3 4.65 3.45.25.45.95.3.5.45 1.35.55h.25q.85.65.55 2.4v1.6h-.15q-1.75 10.75 3.35 16l-.25-.05q-8.75-2.4-11.25-11.15v-.25q.25-3.15-.55-1.9v.55l.1 2.6q.95 7.45 5.3 11.8l-.25-.05q-8.25-3.35-9.1-14.1.85-1.15 1.2-2.9l.1-.05v1.35h-.25l.15 2.95h.1q.25 2.4.95 4.5h.15q.45-.95.25-2.65v-.55q.15-4.9 1.85-8.25h.15q-1.15-2.45-2.55.55v-.15q-4.95 4.2-4.8 12.4l-.05-.15-2.35-1.7-.05-.25-.75-1.65v-4.5l1.45-2.9.15-.05v.8H-38q-.1 2.25.75 2l.05-.1" fill="#41b791" transform="translate(63.35 101.5)"/><path d="M-30-45.2h1.05q-4.25 3.35-7.15 8-1.25 1.95-1.35.3.5-.55.5-1.6v-.55q2.65-3.75 6.7-6.1l.25-.05" fill="#9eecb8" transform="translate(63.35 101.5)"/><path d="M-31.35-38.5q1.4-3 2.55-.55h-.15q-1.7 3.35-1.85 8.25v.3h-.25v2.9h-.15q-.7-2.1-.95-4.5v-4.3l.75-1.85.05-.25" fill="#8feab4" transform="translate(63.35 101.5)"/><path d="M-20.65-38.25v-.25q.3-1.75-.55-2.4 1.3.4.7 2.65h-.15" fill="#1f6559" transform="translate(63.35 101.5)"/><path d="M-32.15-32.1h-.1l-.15-2.95h.25v2.95" fill="#55d69d" transform="translate(63.35 101.5)"/><path d="m-37.75-36.65.4 1.8.15.1-.05.1q-.85.25-.75-2h.25" fill="#5ed9a0" transform="translate(63.35 101.5)"/><path d="M-30.8-30.5v.25q.2 1.7-.25 2.65v-2.9h.25" fill="#54d69d" transform="translate(63.35 101.5)"/><path d="M-29.5-33.7v-.55q.8-1.25.55 1.9v.25h-.1q.05-1.15-.45-1.6" fill="#2c876f" transform="translate(63.35 101.5)"/><path d="M-20.1-15.3h.4l-2.1-3.5-2.05-3.15q3.1 2.75 7.4 3.15l.3.05h.3q.45.7.3 2.15l-.05.25v.25q-.4 2.15-.8-.25-.05-.85-.35.1-1.5 5.65-4.1 9.8-1.2 1.9-1.7.75l.2-.05.1-.2q1.25-.75 1.6-2.4v-.55q1.75-2.85.6-6.15l-.05-.25" fill="#41b590" transform="translate(63.35 101.5)"/><path d="m-26.25-14.25 1.65-2.7.5.05q.45 1.2-1.3 2.75-.8.75-.85-.1" fill="#96e2b1" transform="translate(63.35 101.5)"/><path d="M-22-6.75v-.8q.9-3.65 1.35-8l.2.05.35.2.05.25q1.15 3.3-.6 6.15v.25l-.15.05q-.35 1.25-1.2 1.85" fill="#98e9b5" fill-opacity=".996" transform="translate(63.35 101.5)"/><path d="M-22.25-5.95v-.8h.25q.85-.6 1.2-1.85l.15-.05v.3q-.35 1.65-1.6 2.4" fill="#70dba5" transform="translate(63.35 101.5)"/><path d="M-15.85-18.8v-.2l.25.2q.55.75.15 2.4l-.15.05.05-.25q.15-1.45-.3-2.15v-.05" fill="#2c8874" transform="translate(63.35 101.5)"/></g><g id="z" fill-rule="evenodd"><path d="m20.25-12.25-.05-.25q-.35-2.6-1.55-4.3l-.25-.05-3.25-1-.25-.05-1.9.3-.05.2L11.4-16v.25l-.8 2.15v3.2l.1.5.2.05q-.1 4.75 2.05 7.25l.05.2 3.75.4v-.15q.75.1 1-.3l.1-.2.95-.85.1-.2q.45-.1.5-.55v-.3q1.2-2.25 1.1-5.85v-.55q.2-.95-.25-1.3m2.65 4v-.3q-.25-2.6-1.35-4.25l.05.3q.25 4.65-.85 7.95.7.45 1.8-1.35l.05-.2q.45-.05.3.55v.2l-.15.05q-.1.95-.65 1.3l1.35-.15V-4l-.15.05q-.2.8-.95 1.05l-.15.05q-.2.4-.65.45v.25l-.2.1q-1.1 1.3-3 1.8H15.7V0h-.25L11.4-.25V-.4L8.5-1.6l-.05-.15q-.55-.3-.75-.9v-.55q1.3.4 1.05-.95l.5.15q2.25 2.35 1.2-.9Q9.75-7 9.4-9.55l.15-.55v-3.75l-.05-.3q-.3-1.2-1 .8v.3l-.15-.05q-.15-.6-.15-1.3.85-3.55 3.45-5.4l1.5-.55 2.5-.3q1.1.1 2.6 1.3 1.5 1.15 5.25 2.95l-.35.1-.8.05q.1 1.8 2.95 1.3l-.1.25-.15.05q-2.6 1.2-.25 2.6l.25.05q1.1.5-1.05 1.15-.5.15-.5 1-.05.95-.6 1.6" fill="#122c45" transform="translate(25.4 20.7)"/><path d="m22.6-6.1-.05.2q-1.1 1.8-1.8 1.35 1.1-3.3.85-7.95l-.05-.3q1.1 1.65 1.35 4.25V-8q.2 1-.3 1.35v.55" fill="#e9eaec" transform="translate(25.4 20.7)"/><path d="M20.25-12.25q.45.35.25 1.3v.3l-.3-.15q-.65 3.2-1.85 5.75l-.2.05q-.8 1.05-3 .75Q12.4-5.4 12.1-8.8q-.25-2.75-1.2-2.15v-2.4q.4-.05.4-.8h.1q-.15 2.35 2.15 2.2l.25-.05v.15l-1.55.1q.5 3.2 3.7 3.75h.25q1.25 0 1.95-.45l.2-.1 1.75-3.65.15-.05" fill="#296297" transform="translate(25.4 20.7)"/><path d="m10.9-9.85-.2-.05-.1-.5v-3.2l.8-2.15V-16l1.55-1.4.05-.2 1.9-.3.25.05 3.25 1 .25.05q1.2 1.7 1.55 4.3l.05.25-.15.05-1.75 3.65-.2.1q-.7.45-1.95.45h-.25q-3.2-.55-3.7-3.75l1.55-.1V-12q1.2-.15 1.05-1.3-.5-3.9-3.45-1.35v.5h-.1q0 .75-.4.8v3.5" fill="#1a4873" transform="translate(25.4 20.7)"/><path d="M20.5-10.65v.25q.1 3.6-1.1 5.85l-.05-.2-1-.05q-.2.85.3 1.05l.25.05-.1.2-.95.85-.05-.25q-1.1-1.95-3.45-.3.5 1.15 2.15 1.05h.25V-2L13-2.4l-.05-.2Q10.8-5.1 10.9-9.85v-1.1q.95-.6 1.2 2.15.3 3.4 3.05 4.55 2.2.3 3-.75l.2-.05q1.2-2.55 1.85-5.75l.3.15" fill="#53a4ae" transform="translate(25.4 20.7)"/><path d="M19.4-4.55v.3q-.05.45-.5.55l-.25-.05q-.5-.2-.3-1.05l1 .05.05.2" fill="#77d3d0" transform="translate(25.4 20.7)"/><path d="M8.5-13.05v-.3q.7-2 1-.8l.05.3v3.75l-.15.55Q9.75-7 10.45-4.9q1.05 3.25-1.2.9v-.25Q7.8-7.45 8.2-12.5l.25-.3.05-.25" fill="#f5f4f4" transform="translate(25.4 20.7)"/><path d="M11.4-14.15v-.5q2.95-2.55 3.45 1.35.15 1.15-1.05 1.3l-.25.05q-2.3.15-2.15-2.2M-19-15.2v-.25l.55-.25h.25q3.2.25 1.5 2.85l-.15.05h-.3q-1.35.15-1.6-.8h-.1l-.15-1.6" fill="#f5f7f9" transform="translate(25.4 20.7)"/><path d="m17.85-2.65-.1.2q-.25.4-1 .3h-.25q-1.65.1-2.15-1.05 2.35-1.65 3.45.3l.05.25" fill="#69c1c2" transform="translate(25.4 20.7)"/><path d="m-21.7-11.2-.1.05q-1.05 2.8-1.2-.3v-1.35h.15q.6-2.25-.7-2.65h-.25q-.85-.1-1.35-.55l-.05-.25-.2-.3q5.1-.3 2.4-2.45-.45-.4-.05-.3l1.35-.15 4.85-.55h.25q4.1 1.6 4.7 5.25l.05.05v1.85q.3 1.75.3 3.8v.25q-.1 2.4.5 4l.05.25v.3q-.4 2.55-2.95 2.95h-2.9l-.3-.05q-2.2-.55-3.2-2.35 1.5 1 .95-.25l-.15-.05q-.15-.7.35-.3l.25.25q-.8-3.05-1.4-6.9l-.6-3.4q-.1-.4-.75 1.55v1.6m2.7-4h-.3q-.1 2.4.25 4.25l.05.3.4 2.1h.1q.3 1.75.95 3.15l.15.05.1.5.15.05q1.25 2.55 4.05 1.15l.2-.05q.45-2.55.3-5.6v-.3l-.05-.25q-.15-1.3-.45-2.4l-.1-.25q-.6-2.55-1.8-4.55l-.25-.05q-2.3-1.55-3.75.85v1.05" fill="#0f2b44" transform="translate(25.4 20.7)"/><path d="m-19-10.65-.05-.3q-.35-1.85-.25-4.25h.3l.15 1.6h.1q.25.95 1.6.8h.3l-.05.15-.75.15q1.8 4.45 4.35.3l.2-.05q.3 1.1.45 2.4l.05.25h-.15q-.15 2.1-2 2.4v.15Q-17.3-7.3-18.2-9.3l-.05-.3q-.15-.75-.75-1.05" fill="#285f92" transform="translate(25.4 20.7)"/><path d="M-19-15.45v-.8q1.45-2.4 3.75-.85l.25.05q1.2 2 1.8 4.55l.1.25-.2.05q-2.55 4.15-4.35-.3l.75-.15.05-.15.15-.05q1.7-2.6-1.5-2.85h-.25l-.55.25" fill="#194671" transform="translate(25.4 20.7)"/><path d="M-21.7-11.45v-1.35q.65-1.95.75-1.55l.6 3.4h-.15q-.3-2.5-.9-1.3v.8h-.3" fill="#d7dadc" transform="translate(25.4 20.7)"/><path d="M-19.55-4v.15q-1.6-1.2-1.85-3.9v-.5q-.1-2.85.2-1.6l.05.4q.8-.4-.25-2v-.8q.6-1.2.9 1.3h.15q.6 3.85 1.4 6.9l-.25-.25q-.5-.4-.35.3" fill="#f6f6f6" transform="translate(25.4 20.7)"/><path d="M-12.6-9.6v.3q.15 3.05-.3 5.6l-.2.05q-2.8 1.4-4.05-1.15l.75.3.35.2q1.9-1.6-1.35-2.35v1.3l-.15-.05q-.65-1.4-.95-3.15v-.75h.3q.9 2 3.45 2.25v-.15q1.85-.3 2-2.4h.15m-2.15 4.25q-.2 1.15.35.9 2.35-1.1-.35-.9" fill="#53a4ad" transform="translate(25.4 20.7)"/><path d="m-17.15-4.8-.15-.05-.1-.5v-1.3q3.25.75 1.35 2.35l-.35-.2-.75-.3" fill="#84e5dd" transform="translate(25.4 20.7)"/><path d="M-18.5-8.55h-.1l-.4-2.1q.6.3.75 1.05l.05.3h-.3v.75" fill="#428796" transform="translate(25.4 20.7)"/><path d="M-21.4-7.75h-.2l.1-.9-.15-.35-.05.05v-2.5h.3q1.05 1.6.25 2l-.05-.4q-.3-1.25-.2 1.6v.5" fill="#f3f1f0" transform="translate(25.4 20.7)"/><path d="M-14.75-5.35q2.7-.2.35.9-.55.25-.35-.9" fill="#83e4dd" transform="translate(25.4 20.7)"/></g><use ffdec:characterId="1" height="28.8" width="74.7" xlink:href="#o" id="b"/><use ffdec:characterId="3" height="29.15" width="13.75" xlink:href="#p" id="c"/><use ffdec:characterId="5" height="32.3" width="17.05" xlink:href="#q" id="d"/><use ffdec:characterId="7" height="17.55" width="16.5" xlink:href="#r" id="e"/><use ffdec:characterId="9" height="29.3" width="26.8" xlink:href="#s" id="f"/><use ffdec:characterId="11" height="19.45" width="23.8" xlink:href="#t" id="g"/><use ffdec:characterId="13" height="43.9" width="45.6" xlink:href="#u" id="h"/><use ffdec:characterId="15" height="43.05" width="41.95" xlink:href="#v" id="i"/><use ffdec:characterId="17" height="32.3" width="31.75" xlink:href="#w" id="j"/><use ffdec:characterId="19" height="58.1" width="42.5" xlink:href="#x" id="k"/><use ffdec:characterId="21" height="101.5" width="126.75" xlink:href="#y" id="m"/><use ffdec:characterId="23" height="20.7" width="50.8" xlink:href="#z" id="n"/><path d="M0-28.8q15.5 0 26.4 4.2 10.95 4.25 10.95 10.2 0 5.95-10.95 10.15Q15.5 0 0 0q-15.5 0-26.4-4.25-10.95-4.2-10.95-10.15t10.95-10.2q10.9-4.2 26.4-4.2" fill-opacity=".349" fill-rule="evenodd" transform="translate(37.35 28.8)" id="o"/></defs></svg>