<svg xmlns:ffdec="https://www.free-decompiler.com/flash" xmlns:xlink="http://www.w3.org/1999/xlink" ffdec:objectType="frame" height="90" width="90" xmlns="http://www.w3.org/2000/svg"><use ffdec:characterId="28" height="90.3" transform="translate(0 -.3)" width="90" xlink:href="#a"/><defs><g id="a" transform="translate(0 .3)"><use ffdec:characterId="25" height="211.55" transform="matrix(.4268 0 0 .427 5.025 -.323)" width="191.65" xlink:href="#b"/><use ffdec:characterId="27" height="68.75" transform="scale(1.7682 1.3091)" width="50.9" xlink:href="#c"/></g><g id="b" transform="translate(2.05 3.45)"><use ffdec:characterId="1" height="45" transform="translate(5.55 172.8) scale(.7842)" width="176" xlink:href="#d"/><use ffdec:characterId="2" height="29.7" transform="translate(116.266 101.716) scale(.7842)" width="45.15" xlink:href="#e"/><use ffdec:characterId="3" height="71.4" transform="translate(138.466 75.966) scale(.7842)" width="56.25" xlink:href="#f"/><use ffdec:characterId="4" height="70.8" transform="translate(62.366 51.316) scale(.7842)" width="71.1" xlink:href="#g"/><use ffdec:characterId="5" height="60" transform="translate(70.566 143.116) scale(.7842)" width="39.5" xlink:href="#h"/><use ffdec:characterId="6" height="105.05" transform="translate(18.116 109.766) scale(.7842)" width="42" xlink:href="#i"/><use ffdec:characterId="7" height="86" transform="translate(35.166 84.466) scale(.7842)" width="113.95" xlink:href="#j"/><use ffdec:characterId="8" height="103.25" transform="translate(80.016 117.716) scale(.7842)" width="71.15" xlink:href="#k"/><use ffdec:characterId="9" height="40.5" transform="translate(72.958 109.958) scale(.7842)" width="52.15" xlink:href="#l"/><use ffdec:characterId="10" height="116.65" transform="translate(38.516 114.166) scale(.7842)" width="52.85" xlink:href="#m"/><use ffdec:characterId="11" height="72.6" transform="translate(19.716 -3.434) scale(.7842)" width="26.5" xlink:href="#n"/><use ffdec:characterId="12" height="48.1" transform="translate(49.392 74.55) scale(.7842)" width="55.4" xlink:href="#o"/><use ffdec:characterId="13" height="84.45" transform="translate(13.42 32.64) scale(.7842)" width="76.85" xlink:href="#p"/><use ffdec:characterId="14" height="65.45" transform="translate(35.116 91.4) scale(.7842)" width="27.7" xlink:href="#q"/><use ffdec:characterId="15" height="71.25" transform="translate(42.5 76.5) scale(.7842)" width="43.25" xlink:href="#r"/><use ffdec:characterId="16" height="45.2" transform="translate(64.7 65.816) scale(.7842)" width="73.5" xlink:href="#s"/><use ffdec:characterId="17" height="77.15" transform="translate(21.066 82.8) scale(.7842)" width="28.15" xlink:href="#t"/><use ffdec:characterId="18" height="58.95" transform="translate(9.366 81.866) scale(.7842)" width="21.95" xlink:href="#u"/><use ffdec:characterId="19" height="69.6" transform="translate(35.016 .616) scale(.7842)" width="89.7" xlink:href="#v"/><use ffdec:characterId="20" height="55.55" transform="translate(50.216 26.966) scale(.7842)" width="72" xlink:href="#w"/><use ffdec:characterId="21" height="64.2" transform="translate(.716 36.64) scale(.7842)" width="72.85" xlink:href="#x"/><use ffdec:characterId="22" height="13.85" transform="translate(23.431 62.9) scale(.7842)" width="15.95" xlink:href="#y"/><clipPath id="z" transform="translate(23 62.9) scale(.7842)"><path d="M.55 13.85Q1.1 2.35 16.5 0q-1.5.55-3.05 4.65Q9.4 1.6.55 13.85" fill="#d3d4d8" fill-rule="evenodd"/><path d="M.55 13.85Q9.4 1.6 13.45 4.65l-.3.7q-1.55 5.45-3.75 8.5H.55" fill="#fcfefd" fill-rule="evenodd"/></clipPath><g clip-path="url(#z)"><use ffdec:characterId="23" height="14.1" transform="translate(22.608 65.645) scale(.7842)" width="13.5" xlink:href="#A"/></g><use ffdec:characterId="24" height="14.85" transform="translate(23.04 62.508) scale(.7842)" width="16.95" xlink:href="#B"/></g><g id="e"><path d="M36.95 10.75Q29 22 20 25.8l-.05.05q-12.65 2.2-13.8-5.2h.05q5.75 7.25 16.8.1Q33.15 13 31.3 6.9l2.35-4.75q3.9 1.3 3.3 8.6" fill="#8284f3" fill-rule="evenodd" transform="translate(1 1)"/><path d="M33.65 2.15 34.5 0l8.65.55q-3 5.7-6.2 10.2.6-7.3-3.3-8.6" fill="#6c6dc9" fill-rule="evenodd" transform="translate(1 1)"/><path d="M6.2 20.65Q22.5 22.3 31.3 6.9 33.15 13 23 20.75q-11.05 7.15-16.8-.1" fill="#d0d3fe" fill-rule="evenodd" transform="translate(1 1)"/><path d="M19.95 25.85q-7.9 3.25-16.55.85L0 19.45l6.15 1.2q1.15 7.4 13.8 5.2" fill="#6d6ecb" fill-rule="evenodd" transform="translate(1 1)"/><path d="M34.65 3.15 35.5 1l8.65.55q-3 5.7-6.2 10.2Q30 23 21 26.8m-.05.05q-7.9 3.25-16.55.85L1 20.45l6.15 1.2h.05Q23.5 23.3 32.3 7.9l2.35-4.75" fill="none" stroke="#0c156b" stroke-linecap="round" stroke-linejoin="round" stroke-width="2"/></g><g id="f"><path d="M14.1 1.95q3.35-1.2 7.55-1.5 6.5-1.2 12.05.75l.05.05q3.85 3.8 4.4 8.8.55 4.95-3.85 8.25-4.5 3.3-10.6 3.4-6.1.05-10.65-3.35Q8.4 15 9.7 9.7q1.05-4.5 4.4-7.75" fill="#f1bda8" fill-rule="evenodd" transform="translate(1 1)"/><path d="M33.7 1.2Q44 4.8 51.15 19.15q5.4 12.35 1.35 28l-1.8-9.65q0 17-11.95 28.95 13-22.6 5.7-41.55-11.7 8.5-27.8 4.2Q-2.1 22.7 9.4 4.25q2.1-1.4 4.7-2.3Q10.75 5.2 9.7 9.7q-1.3 5.3 3.35 8.65 4.55 3.4 10.65 3.35 6.1-.1 10.6-3.4 4.4-3.3 3.85-8.25-.55-5-4.4-8.8l-.05-.05m15.2 22.35q1.8 7.35 1.8 13.95 0-6.6-1.8-13.95" fill="#e64624" fill-rule="evenodd" transform="translate(1 1)"/><path d="m38.75 66.45-3.2 2.95 1.05-3.6q4.95-7.3 3.45-15.55-2.2-9.65-10.9-12h-1.9q3.2 17.6-11.4 22.75 7.75-7.4 6.5-16.85-1.2-9.5-10.15-11.75-12.5-1.05-9.95-19.15 2.35-5.8 7.15-9Q-2.1 22.7 16.65 29.1q16.1 4.3 27.8-4.2 7.3 18.95-5.7 41.55" fill="#c71000" fill-rule="evenodd" transform="translate(1 1)"/><path d="M36.6 65.8q2.65-11.15-3-21.2-1.8-3.25-4.45-6.35 8.7 2.35 10.9 12 1.5 8.25-3.45 15.55m-22.8-4.15q11.65-17.1-2.15-26.45Q-.45 37.1 0 24.1q.35-6.25 2.25-10.85Q-.3 31.35 12.2 32.4q8.95 2.25 10.15 11.75Q23.6 53.6 15.85 61l-2.05.65" fill="#f12919" fill-rule="evenodd" transform="translate(1 1)"/><path d="M33.6 44.6q.8 17.9-20.55 18.1l.75-1.05 2.05-.65q14.6-5.15 11.4-22.75h1.9q2.65 3.1 4.45 6.35" fill="#a50d00" fill-rule="evenodd" transform="translate(1 1)"/><path d="M15.1 2.95q3.35-1.2 7.55-1.5 6.5-1.2 12.05.75Q45 5.8 52.15 20.15q5.4 12.35 1.35 28l-1.8-9.65q0 17-11.95 28.95l-3.2 2.95 1.05-3.6q2.65-11.15-3-21.2.8 17.9-20.55 18.1l.75-1.05q11.65-17.1-2.15-26.45Q.55 38.1 1 25.1q.35-6.25 2.25-10.85 2.35-5.8 7.15-9 2.1-1.4 4.7-2.3" fill="none" stroke="#5c0101" stroke-linecap="round" stroke-linejoin="round" stroke-width="2"/><path d="M29.15 38.25q2.65 3.1 4.45 6.35m17.1-7.1q0-6.6-1.8-13.95" fill="none" stroke="#5c0101" stroke-linecap="round" stroke-linejoin="round" transform="translate(1 1)"/></g><g id="g"><path d="M41.5 8.35Q52.85 7.3 62.85 0l-.4.6Q52.4 10.85 40 19.7q-4.15 2.9-3.15 4Q53.6 20.25 69.1 38.55q-14.05-6.2-24.75-4.75-12.2-1.3-14.05 6.2-4.85-1.9-2.15-6.3-3.9-3.4-4.05-9.1 13.4-7.55 17.4-16.25M36.85 23.7l-1.4.3q-8.3 2.75-11.35.6 3.05 2.15 11.35-.6l1.4-.3m2.2 31.5Q47.4 63.75 62 66.55q-11.5 2.8-21.65 2.1-11-6.25-20.5-15.45-2.65-1.75-5.15-2.9l-.9-4q7.85 9.45 20.3 10.05 4.2-.25 4.95-1.15" fill="#fc8450" fill-rule="evenodd" transform="translate(1 1)"/><path d="M36.85 23.7q-1-1.1 3.15-4Q52.4 10.85 62.45.6 51.8 14.85 36.85 23.7m7.5 10.1q-7.95 1-14.05 6.2 1.85-7.5 14.05-6.2" fill="#feb8b6" fill-rule="evenodd" transform="translate(1 1)"/><path d="M41.5 8.35q-4 8.7-17.4 16.25.15 5.7 4.05 9.1-2.7 4.4 2.15 6.3 2.2 7.1 6.35 12.45l2.4 2.75q-.75.9-4.95 1.15-12.45-.6-20.3-10.05l.9 4q-4.8-2.2-8.95-2.2L0 27.7Q7.05 9.4 24.05 6.45q9.1 2.6 17.45 1.9m-18.65 14.8q.45.9 1.25 1.45-.8-.55-1.25-1.45" fill="#d36e44" fill-rule="evenodd" transform="translate(1 1)"/><path d="M40.35 68.65Q21.7 67.3 7.45 54.25l-1.7-6.15q4.15 0 8.95 2.2 2.5 1.15 5.15 2.9 9.5 9.2 20.5 15.45" fill="#ffb8b6" fill-rule="evenodd" transform="translate(1 1)"/><path d="m63.45 1.6.4-.6q-10 7.3-21.35 8.35-8.35.7-17.45-1.9Q8.05 10.4 1 28.7l5.75 20.4 1.7 6.15q14.25 13.05 32.9 14.4 10.15.7 21.65-2.1-14.6-2.8-22.95-11.35l-2.4-2.75Q33.5 48.1 31.3 41q6.1-5.2 14.05-6.2 10.7-1.45 24.75 4.75-15.5-18.3-32.25-14.85 14.95-8.85 25.6-23.1" fill="none" stroke="#673018" stroke-linecap="round" stroke-linejoin="round" stroke-width="2"/><path d="M24.1 24.6q3.05 2.15 11.35-.6l1.4-.3m-12.75.9q-.8-.55-1.25-1.45" fill="none" stroke="#673018" stroke-linecap="round" stroke-linejoin="round" transform="translate(1 1)"/></g><g id="h"><path d="m28.95 49-1.05 4.25q-1.85 2.15-6.1 3.15l-3.1.7q3.6-1.6 5.8-3.6 1.55-1.4 2.4-3 1.1-1.7 2.05-1.5" fill="#b87642" fill-rule="evenodd" transform="translate(1 1)"/><path d="m.75 47.5.8-2.7 26.25-4.15q1.75 3.85 1.15 8.35-.95-.2-2.05 1.5-.85 1.6-2.4 3-.85-2.9-2-2.9Q7.9 52.25.75 47.5" fill="#783e18" fill-rule="evenodd" transform="translate(1 1)"/><path d="M18.7 57.1Q5.5 59.75.25 54.6q-.65-2.7.5-7.1 7.15 4.75 21.75 3.1 1.15 0 2 2.9-2.2 2-5.8 3.6" fill="#8f4b1c" fill-rule="evenodd" transform="translate(1 1)"/><path d="m1.75 48.5.8-2.7 26.25-4.15q1.75 3.85 1.15 8.35l-1.05 4.25q-1.85 2.15-6.1 3.15l-3.1.7Q6.5 60.75 1.25 55.6q-.65-2.7.5-7.1z" fill="none" stroke="#4e2810" stroke-linecap="round" stroke-linejoin="round" stroke-width="2"/><path d="M8.05 18.75q-5.4-6.2-6.75-14.7L29.4 0q-.55 7.5 1.2 13.6-8.25 7.35-22.55 5.15" fill="#6e6fc9" fill-rule="evenodd" transform="translate(1 1)"/><path d="M33.25 34.45q-6 7.95-10.95 10.2-11.6 1.65-12.25-4.4 2.3-5.6 3.15-9.05l.95-.65q.75 6.1 4.2 8l3.25-8.75q5.2 2.5 1.4 12 5.1-2.7 10.25-7.35" fill="#6e6fcb" fill-rule="evenodd" transform="translate(1 1)"/><path d="M30.6 13.6q1.55 5.6 5.1 10.05 2.95 2.9.7 6.25l-3.15 4.55Q28.1 39.1 23 41.8q3.8-9.5-1.4-12l-3.25 8.75q-3.45-1.9-4.2-8 2.25-1.85 2.85-4.7-5.4-3.05-8.95-7.1 14.3 2.2 22.55-5.15M18.15 26.5 17 25.85l1.15.65" fill="#8385f2" fill-rule="evenodd" transform="translate(1 1)"/><path d="M9.05 19.75q-5.4-6.2-6.75-14.7L30.4 1q-.55 7.5 1.2 13.6 1.55 5.6 5.1 10.05 2.95 2.9.7 6.25l-3.15 4.55q-6 7.95-10.95 10.2-11.6 1.65-12.25-4.4 2.3-5.6 3.15-9.05l.95-.65q2.25-1.85 2.85-4.7-5.4-3.05-8.95-7.1m8.95 7.1 1.15.65" fill="none" stroke="#0c156b" stroke-linecap="round" stroke-linejoin="round" stroke-width="2"/><path d="m20.25 42.15-1.35.3v.05q-.05 2.9 4.7.55 3.15-1.5 5.4-5.3 1.7-1.7 2.8-3.9v4.35q3.1-2.8 6.2-9.4-.35 3.5-1.45 6.5-5.5 8.05-13.85 13.1Q-.5 52.75.25 36.15q1.85 3.9 4.65 6.1Q1.3 35.2 2.5 28.2q1.1 5.75 4.65 10.4-.25-4.85-1.75-6.5 4.85.15 5.5 6.85l.9.9q-.45-6.2 2.1-10.2-1.45 7.45 3.1 9.3-.85.5-1.95.8 7 1.6 6.6-9.35 3.7 5.75-1.4 11.75" fill="#9948eb" fill-rule="evenodd" transform="translate(1 1)"/><path d="M29 37.75q-2.25 3.8-5.4 5.3-4.75 2.35-4.7-.55v-.05l1.35-.3q5.45-1.2 8.75-4.4m-7.35-7.35q.4 10.95-6.6 9.35 1.1-.3 1.95-.8 4.85-2.8 2.4-11.3 1.4 1.35 2.25 2.75m-7.75-.75q-2.55 4-2.1 10.2l-.9-.9q-.45-6.35 3-9.3M2.5 28.2q-1.2 7 2.4 14.05-2.8-2.2-4.65-6.1Q0 30.25 2.1 25.5l.4 2.7m20.2 20.2q8.35-5.05 13.85-13.1-3.4 8.9-13.85 13.1" fill="#d7abfa" fill-rule="evenodd" transform="translate(1 1)"/><path d="M20.25 42.15q5.1-6 1.4-11.75-.85-1.4-2.25-2.75 2.45 8.5-2.4 11.3-4.55-1.85-3.1-9.3-3.45 2.95-3 9.3-.65-6.7-5.5-6.85 1.5 1.65 1.75 6.5Q3.6 33.95 2.5 28.2l-.4-2.7Q0 30.25.25 36.15-.5 52.75 22.7 48.4q10.45-4.2 13.85-13.1 1.1-3 1.45-6.5-3.1 6.6-6.2 9.4v-4.35q-1.1 2.2-2.8 3.9-3.3 3.2-8.75 4.4m-5.2-2.4q1.1-.3 1.95-.8m-12.1 3.3q-2.8-2.2-4.65-6.1" fill="none" stroke="#3c0c6b" stroke-linecap="round" stroke-linejoin="round" transform="translate(1 1)"/></g><g id="i"><path d="m3.35 85.9-1 .55q-.6 0-1-.55-.4-.5-.4-1.2t.4-1.25q.4-.5 1-.5t1 .5q.4.55.4 1.25t-.4 1.2m15.2 5.65-1.3 1.2q-1.45.9-3.5.9t-3.55-.9q-1.45-.9-1.45-2.15 0-1.2 1.3-2.05 3.95 2 8.5 3" fill="#eec08f" fill-rule="evenodd" transform="translate(1 1)"/><path d="M3.35 85.9q.4-.5.4-1.2t-.4-1.25q-.4-.5-1-.5t-1 .5q-.4.55-.4 1.25t.4 1.2q.4.55 1 .55l1-.55m2.7-3.75q2.45 4.9-1.5 7.2Q2.4 94.55.2 92.1q-.75-6.9 1.3-8.95 2.25-.85 4.55-1M8.2 90.5q.4-1.35 1-2.4l.85.45q-1.3.85-1.3 2.05 0 1.25 1.45 2.15 1.5.9 3.55.9t3.5-.9l1.3-1.2 1.25.25 2.65.8q-.7 1.85-2.85 3-6.8 3.45-12.35-.05l.3-1.75q.2-1.8.65-3.3" fill="#d77e2c" fill-rule="evenodd" transform="translate(1 1)"/><path d="M.2 92.1q2.2 2.45 4.35-2.75 3.95-2.3 1.5-7.2 4.7-.4 9.75 2.05-4.5.2-6.6 3.9-.6 1.05-1 2.4-2.45 2.65-2.7 6.45-2.5.85-4.45-.3L.7 95.6l-.5-3.5m19.7 10.25-4.7.7q-6.55-.25-7.75-4.4-.4-1.35-.2-3.1 5.55 3.5 12.35.05 2.15-1.15 2.85-3 4.1 1.5 4.7 4.45l-7.25 5.3" fill="#8f4b1c" fill-rule="evenodd" transform="translate(1 1)"/><path d="M22.45 92.6q1.2-3.15-1.5-8.4 7.1.45 11.75 3.8-.25 2.85-1.1 5.15l-4.45 3.9q-.6-2.95-4.7-4.45" fill="#773d17" fill-rule="evenodd" transform="translate(1 1)"/><path d="M1.05 96.65q1.95 1.15 4.45.3.25-3.8 2.7-6.45-.45 1.5-.65 3.3l-.3 1.75q-.2 1.75.2 3.1-5.2-.05-6.4-2m30.55-3.5q-2.75 7.15-11.7 9.2l7.25-5.3 4.45-3.9" fill="#bb7a44" fill-rule="evenodd" transform="translate(1 1)"/><path d="m10.05 88.55.15-.1q1.5-.9 3.55-.9t3.5.9q1.5.9 1.5 2.15l-.2.95q-4.55-1-8.5-3" fill="#eebe8e" fill-rule="evenodd" transform="translate(1 1)"/><path d="M9.2 88.1q2.1-3.7 6.6-3.9l1-.05q2.15-.1 4.15.05 2.7 5.25 1.5 8.4l-2.65-.8-1.25-.25.2-.95q0-1.25-1.5-2.15-1.45-.9-3.5-.9t-3.55.9l-.15.1-.85-.45" fill="#b06a25" fill-rule="evenodd" transform="translate(1 1)"/><path d="M8.2 90.5q.4-1.35 1-2.4 2.1-3.7 6.6-3.9M7.25 95.55q-.2 1.75.2 3.1m.75-8.15q-.45 1.5-.65 3.3l-.3 1.75" fill="none" stroke="#4e2810" stroke-linecap="round" stroke-linejoin="round" transform="translate(1 1)"/><path d="M7.05 83.15q-2.3.15-4.55 1Q.45 86.2 1.2 93.1l.5 3.5.35 1.05q1.2 1.95 6.4 2 1.2 4.15 7.75 4.4l4.7-.7q8.95-2.05 11.7-9.2.85-2.3 1.1-5.15-4.65-3.35-11.75-3.8-2-.15-4.15-.05l-1 .05q-5.05-2.45-9.75-2.05z" fill="none" stroke="#4e2810" stroke-linecap="round" stroke-linejoin="round" stroke-width="2"/><path d="M9.2 29.9V25q16.3-56.4 30.65 14.5 1.1 17.1-7.25 26.2 2.35-5.4-.7-18.05-5.3-15-22.7-17.75" fill="#6c70c9" fill-rule="evenodd" transform="translate(1 1)"/><path d="M20.9 67.5q11.9 1.5 7-16.75-4.85-16.8-18.35-14.7-.25-3-.35-6.15 17.4 2.75 22.7 17.75 3.05 12.65.7 18.05.55 17.95-.5 24.7-23.45-1.15-24-10.15l3.2-4.75q2.6 11.45 11.8 3.85 2.7-5.9-2.2-11.85m9.65.2 2.05-2-2.05 2" fill="#8385f2" fill-rule="evenodd" transform="translate(1 1)"/><path d="m9.75 38-.2-1.95q13.5-2.1 18.35 14.7 4.9 18.25-7 16.75l-1.25-1.65 1.25 1.65q4.9 5.95 2.2 11.85-9.2 7.6-11.8-3.85l.75-1.1q.2.9.7 1.6.9 1.35 2.2 1.35 1.25 0 2.15-1.35.9-1.35.9-3.3 0-1.95-.9-3.3l-1-1 2.6-3.9.95 1.35q7-3.6 3.4-13.55Q16.9 38.45 9.75 38" fill="#d2d3ff" fill-rule="evenodd" transform="translate(1 1)"/><path d="M9.75 38q7.15.45 13.3 14.3 3.6 9.95-3.4 13.55l-.95-1.35Q11.5 53.85 9.75 38m2.3 36.4 4.05-6 1 1q.9 1.35.9 3.3 0 1.95-.9 3.3-.9 1.35-2.15 1.35-1.3 0-2.2-1.35-.5-.7-.7-1.6" fill="#fdfffe" fill-rule="evenodd" transform="translate(1 1)"/><path d="m10.55 37.05.2 1.95q1.75 15.85 8.95 26.5l.95 1.35 1.25 1.65M10.55 37.05q-.25-3-.35-6.15V26q16.3-56.4 30.65 14.5 1.1 17.1-7.25 26.2.55 17.95-.5 24.7-23.45-1.15-24-10.15l3.2-4.75.75-1.1 4.05-6 2.6-3.9m13.9 1.2-2.05 2" fill="none" stroke="#0c156b" stroke-linecap="round" stroke-linejoin="round" stroke-width="2"/><path d="M3.65 63.75Q.75 73.45 6.3 79.2l3.6 2.75-2.8-.1Q1.7 78.9.35 72.15q.05-4.6 3.3-8.4m3.5 7.15q.9-2.75 2.7-5.1-.9 13.65 6.8 16.15 2.15.05 3.65-.7-9.05 8.5-13.15-10.35" fill="#dbb1f9" fill-rule="evenodd" transform="translate(1 1)"/><path d="M6.3 79.2q-.4-4.55.85-8.3 4.1 18.85 13.15 10.35 2.6-1.35 3.05-5.2-.1-2.4-.95-4.5 3.15 3.95 1.7 9.45-1.9 6-10.6 7l-.7-.3q-7.25-2.8-10.75-8.1-1.8-3.95-1.7-7.45 1.35 6.75 6.75 9.7l2.8.1-3.6-2.75" fill="#fbfffe" fill-rule="evenodd" transform="translate(1 1)"/><path d="m22.4 71.55-1.45-2.65q10.8 4.8 5.25 14.95 6.6-.3 9.9-8.45-1.65 11-17.9 14.4l-.5-.15L13.5 88q8.7-1 10.6-7 1.45-5.5-1.7-9.45" fill="#dcb2fa" fill-rule="evenodd" transform="translate(1 1)"/><path d="m36.1 75.4.1-.3q.8 5.6.4 9.35-5.25 6.15-13.55 6.7L18.2 89.8q16.25-3.4 17.9-14.4" fill="#9a49ec" fill-rule="evenodd" transform="translate(1 1)"/><path d="M36.6 84.45q-.4 3.7-2 5.55-3.45 2.5-9.95 1.45h-.15l-1.45-.3q8.3-.55 13.55-6.7" fill="#ffc9fa" fill-rule="evenodd" transform="translate(1 1)"/><path d="m3.85 63.15-.2.6Q.75 73.45 6.3 79.2q-.4-4.55.85-8.3.9-2.75 2.7-5.1-.9 13.65 6.8 16.15 2.15.05 3.65-.7 2.6-1.35 3.05-5.2-.1-2.4-.95-4.5l-1.45-2.65q10.8 4.8 5.25 14.95 6.6-.3 9.9-8.45l.1-.3q.8 5.6.4 9.35-.4 3.7-2 5.55-3.45 2.5-9.95 1.45h-.15l-1.45-.3-4.85-1.35-.5-.15L13.5 88l-.7-.3q-7.25-2.8-10.75-8.1-1.8-3.95-1.7-7.45.05-4.6 3.3-8.4m6.25 18.2L6.3 79.2" fill="none" stroke="#3c0c6b" stroke-linecap="round" stroke-linejoin="round" transform="translate(1 1)"/></g><g id="j"><path d="M53.05 11.8Q63 19.15 73.1 30q5.65 4.75 24.55 7.75 14.7 3.45 14.3 26.5l-6.5 2.45q1.1-24.75-19.85-28.1-36.05-3-55.1-22.3l2.25-3.9Q52.7 31 73.95 32.55q-20.1-10.5-20.9-20.75m6.55 71.35-8.6.8q-8.5-4.8-19.7-20.6 3.75.9 7.7 1.2 8.2 14.55 20.6 18.6" fill="#8385f2" fill-rule="evenodd" transform="translate(1 1)"/><path d="M39.95 3.65q6.55 3.3 13.1 8.15.8 10.25 20.9 20.75Q52.7 31 32.75 12.4q3.3-5.2 7.2-8.75" fill="#6d6ec8" fill-rule="evenodd" transform="translate(1 1)"/><path d="m105.45 66.7-5.55 2.05v-3.3l-7.45 7-.2-.85q12.8-17.95-9.5-20.2-19.4.15-28.1-10.8-14.9-14.05-15.6-7.75Q36.6 38 51.9 57.45 34.6 43.5 29.5 17.35l1-1.05q19.05 19.3 55.1 22.3 20.95 3.35 19.85 28.1" fill="#d2d3ff" fill-rule="evenodd" transform="translate(1 1)"/><path d="M99.9 68.75q-3.55 2.45-7.45 3.7l7.45-7v3.3m-7.65 2.85-26.5 9.85q-12.15-2.4-20.65-16.9-3.1.2-6.1 0-3.95-.3-7.7-1.2l-3.3-1q-2.4-5.65-.35-8.65 11.75 6.05 24.25 3.75Q36.6 38 39.05 32.85q.7-6.3 15.6 7.75 8.7 10.95 28.1 10.8 22.3 2.25 9.5 20.2" fill="#fdfffe" fill-rule="evenodd" transform="translate(1 1)"/><path d="M19.7 45.95q2.9-20.9 9.8-28.6 5.1 26.15 22.4 40.1-14 .1-26.25-10.6-4.65-2.75-5.95-.9" fill="#6d71cc" fill-rule="evenodd" transform="translate(1 1)"/><path d="m65.75 81.45-2.95 1.1-3.2.6Q47.2 79.1 39 64.55q3 .2 6.1 0 8.5 14.5 20.65 16.9" fill="#d2d4fb" fill-rule="evenodd" transform="translate(1 1)"/><path d="M51 83.95q-17.65.55-29.35-9.6 6.95 2.45 12.7-1.7-4.5-5.95-6.35-10.3l3.3 1q11.2 15.8 19.7 20.6" fill="#6c70cb" fill-rule="evenodd" transform="translate(1 1)"/><path d="M51.9 57.45q-12.5 2.3-24.25-3.75-2.05 3 .35 8.65-2.75-.95-5.4-2.25-4.75-11.6-2.9-14.15 1.3-1.85 5.95.9 12.25 10.7 26.25 10.6" fill="#d1d2fe" fill-rule="evenodd" transform="translate(1 1)"/><path d="M21.65 74.35q-10.85-9.4-16.6-27.9Q1.65 35.55 0 21.5L31.65 0q4.15 1.5 8.3 3.65-3.9 3.55-7.2 8.75l-2.25 3.9-1 1.05q-6.9 7.7-9.8 28.6-1.85 2.55 2.9 14.15 2.65 1.3 5.4 2.25 1.85 4.35 6.35 10.3-5.75 4.15-12.7 1.7" fill="#6c70c9" fill-rule="evenodd" transform="translate(1 1)"/><path d="M40.95 4.65q6.55 3.3 13.1 8.15Q64 20.15 74.1 31q5.65 4.75 24.55 7.75 14.7 3.45 14.3 26.5l-6.5 2.45-5.55 2.05m-7.65 2.85-26.5 9.85-2.95 1.1-3.2.6-8.6.8q-17.65.55-29.35-9.6-10.85-9.4-16.6-27.9Q2.65 36.55 1 22.5L32.65 1q4.15 1.5 8.3 3.65" fill="none" stroke="#0c156b" stroke-linecap="round" stroke-linejoin="round" stroke-width="2"/></g><g id="k"><path d="m50.3 82.45 8.6.3q0 4.95-.95 8.4-1.5-.55-3.7 1.95-1.95-3.1-4.45-3.05.8-3.15.5-7.6" fill="#783c17" fill-rule="evenodd" transform="translate(1 1)"/><path d="M57.95 91.15q-.65 2.4-1.8 4.1l-.45.7q-3.85 2.9-1.45-2.85 2.2-2.5 3.7-1.95" fill="#b97c46" fill-rule="evenodd" transform="translate(1 1)"/><path d="M55.7 95.95q-3.05 4-9.2 5 4.2-2.7 7.75-7.85-2.4 5.75 1.45 2.85" fill="#e19353" fill-rule="evenodd" transform="translate(1 1)"/><path d="m46.5 100.95-7.15.2q-5.3-.45-6.8-2.55-.55-.7-.65-1.6 15.25 3.9 17.9-6.95 2.5-.05 4.45 3.05-3.55 5.15-7.75 7.85" fill="#904c1d" fill-rule="evenodd" transform="translate(1 1)"/><path d="m47.2 82.35 3.1.1q.3 4.45-.5 7.6l-.9.1-3.05.5q2.5-3.05 1.35-8.3" fill="#b46925" fill-rule="evenodd" transform="translate(1 1)"/><path d="m41.3 82.15 5.9.2q1.15 5.25-1.35 8.3-8.5.95-12.55-3.4l.35-.4 7.65-4.7" fill="#c6a079" fill-rule="evenodd" transform="translate(1 1)"/><path d="m23.6 87.8.05-.2q.45-2.6 1.6-4.05 1.15 1.65 2.7 2.55l-.75 1.45q-.8.8-1.95.8-.95 0-1.65-.55m22.25 2.85-1.15 1.1q-7.05 4.8-12.75.25.25-3.45 1.35-4.75 4.05 4.35 12.55 3.4" fill="#eec08f" fill-rule="evenodd" transform="translate(1 1)"/><path d="M22.9 91.4q.15-1.65.7-3.6.7.55 1.65.55 1.15 0 1.95-.8l.75-1.45q1.4.8 3.15 1.05v.05q0 2.35-1.45 4-1.4 1.7-3.45 1.7-1.95 0-3.3-1.5m22.95-.75 3.05-.5.9-.1Q47.15 100.9 31.9 97q-.15-2.9.05-5 5.7 4.55 12.75-.25l1.15-1.1" fill="#d77e2c" fill-rule="evenodd" transform="translate(1 1)"/><path d="M26.85 99.05q-4.8-.95-3.95-7.65 1.35 1.5 3.3 1.5 2.05 0 3.45-1.7 1.45-1.65 1.45-4v-.05l2.2.1q-1.1 1.3-1.35 4.75-1.45.1-2.05 3.35-.95 3.6-3.05 3.7" fill="#8f4b1c" fill-rule="evenodd" transform="translate(1 1)"/><path d="m27.95 81.85 2.4-.1 10.95.4-7.65 4.7-.35.4-2.2-.1q0-2.3-1.45-4-.75-.9-1.7-1.3" fill="#783e18" fill-rule="evenodd" transform="translate(1 1)"/><path d="M25.85 82.9q.9-.75 2.1-1.05.95.4 1.7 1.3 1.45 1.7 1.45 4-1.75-.25-3.15-1.05l.05-.5q0-1.15-.8-1.95-.6-.6-1.35-.75" fill="#b56a26" fill-rule="evenodd" transform="translate(1 1)"/><path d="m25.25 83.55.6-.65q.75.15 1.35.75.8.8.8 1.95l-.05.5q-1.55-.9-2.7-2.55" fill="#c5a076" fill-rule="evenodd" transform="translate(1 1)"/><path d="m32.55 98.6-5.7.45q2.1-.1 3.05-3.7.6-3.25 2.05-3.35-.2 2.1-.05 5 .1.9.65 1.6" fill="#d08b50" fill-rule="evenodd" transform="translate(1 1)"/><path d="m33.3 87.25.35-.4 7.65-4.7M31.9 97q.1.9.65 1.6m.75-11.35q-1.1 1.3-1.35 4.75-.2 2.1-.05 5" fill="none" stroke="#4e2810" stroke-linecap="round" stroke-linejoin="round" transform="translate(1 1)"/><path d="m51.3 83.45 8.6.3q0 4.95-.95 8.4-.65 2.4-1.8 4.1l-.45.7q-3.05 4-9.2 5l-7.15.2q-5.3-.45-6.8-2.55l-5.7.45q-4.8-.95-3.95-7.65.15-1.65.7-3.6l.05-.2q.45-2.6 1.6-4.05l.6-.65q.9-.75 2.1-1.05l2.4-.1 10.95.4 5.9.2 3.1.1z" fill="none" stroke="#4e2810" stroke-linecap="round" stroke-linejoin="round" stroke-width="2"/><path d="M47.15 31.3Q45 42.7 49.8 47q3.6 2.65 3.9 3.2 1 1.95-.75 8.6-2.5 10.25-7.15 18.35-6.05 1.45-9.75-.8 2.3-2.75 4.2-6.1 1.55-2.85 2.9-6.05 2.9-8.95-.35-10.55-19.45 1.15-30.1-6.05 26.85 5.25 29.85-9.8 2.4-2.75 4.6-6.5" fill="#d2d3ff" fill-rule="evenodd" transform="translate(1 1)"/><path d="M23.85 39.35q1.4 1.25 3.65 1.75 7.55-.2 15.15-6.35-2.15 3.6-5.65 5.95-2.25 1.4-4.3 1.9l-.35.05q-4.8.9-8.5-3.3m-2.15.95q-.05 2.3-1.4 1.55-2.75-4 .25-12.4l.75-1.65q-1.95 8.65.4 12.5" fill="#3af068" fill-rule="evenodd" transform="translate(1 1)"/><path d="m23.75 39.25.1.1q3.7 4.2 8.5 3.3Q24.3 44.6 21.7 40.3q-2.35-3.85-.4-12.5.65-1.2 1.5-1.95-3.05 9.75.95 13.4" fill="#10783d" fill-rule="evenodd" transform="translate(1 1)"/><path d="m47.8 29.85.25-.3-.9 1.75q-2.2 3.75-4.6 6.5-6.5 7.35-14.95 7.3h-.55l-.95-.05q-4.1-.7-5.8-3.2 1.35.75 1.4-1.55 2.6 4.3 10.65 2.35l.35-.05q2.05-.5 4.3-1.9 3.5-2.35 5.65-5.95l5.15-4.9" fill="#3ab66e" fill-rule="evenodd" transform="translate(1 1)"/><path d="M46.3 9.8q3.25 6.15 1.5 20.05l-5.15 4.9q-7.6 6.15-15.15 6.35-2.25-.5-3.65-1.75l-.1-.1q10.8 2.85 19.65-8.75l-.7-7.15L46.3 9.8m-26 32.05q1.7 2.5 5.8 3.2v.05q-8.05-.35-8.55-9.35.8-11.45 4.9-10.05l.35.15q-.85.75-1.5 1.95l-.75 1.65q-3 8.4-.25 12.4" fill="#d1d2fe" fill-rule="evenodd" transform="translate(1 1)"/><path d="m42.7 23.35.7 7.15q-8.85 11.6-19.65 8.75-4-3.65-.95-13.4l-.4-.45.05.3q-4.1-1.4-4.9 10.05.5 9 8.55 9.35h1.5q8.45.05 14.95-7.3-3 15.05-29.85 9.8Q-.5 38.6 0 16.7q16.7 1.7 21 6.25.3-2.05 13.25 3.95l3.55 1.15q3.1-2.05 4.9-4.7m.1 30.3q3.25 1.6.35 10.55-1.35 3.2-2.9 6.05L38.15 67l-6.4-.75 11.05-12.6" fill="#fdfffe" fill-rule="evenodd" transform="translate(1 1)"/><path d="M46.3 9.8 48.9 0q9.05 10.8 4.75 28.9-2 9.75 4.15 12 5.3 2.35 0 11.65-3.3 10.2-.1 20.4l.4 4.85q-2.65 6.1-15.95 4.95l3.65-5.6q4.65-8.1 7.15-18.35 1.75-6.65.75-8.6-.3-.55-3.9-3.2-4.8-4.3-2.65-15.7l.9-1.75-.25.3q1.75-13.9-1.5-20.05" fill="#8385f2" fill-rule="evenodd" transform="translate(1 1)"/><path d="M40.25 70.25q-1.9 3.35-4.2 6.1l-.35-.25q.05-4 2.45-9.1l2.1 3.25" fill="#d1d4ff" fill-rule="evenodd" transform="translate(1 1)"/><path d="m31.75 66.25 6.4.75q-2.4 5.1-2.45 9.1-3.65-2.5-4.8-8.9l.85-.95" fill="#afafd3" fill-rule="evenodd" transform="translate(1 1)"/><path d="m45.8 77.15-3.65 5.6-4.1-.5-.75-.1q-1.5-2.35-1.6-5.35v-.7l.35.25q3.7 2.25 9.75.8" fill="#8385f4" fill-rule="evenodd" transform="translate(1 1)"/><path d="M30.9 67.2q1.15 6.4 4.8 8.9v.7q.1 3 1.6 5.35-3.1-.55-5.15-1.65-5.7-3.1-3.55-10.75l2.3-2.55" fill="#706fcc" fill-rule="evenodd" transform="translate(1 1)"/><path d="M43.15 83.75q13.3 1.15 15.95-4.95l-.4-4.85q-3.2-10.2.1-20.4 5.3-9.3 0-11.65-6.15-2.25-4.15-12Q58.95 11.8 49.9 1M13.7 48.6q10.65 7.2 30.1 6.05l-11.05 12.6-.85.95-2.3 2.55q-2.15 7.65 3.55 10.75 2.05 1.1 5.15 1.65l.75.1 4.1.5M1 17.7Q.5 39.6 13.7 48.6" fill="none" stroke="#0c156b" stroke-linecap="round" stroke-linejoin="round" stroke-width="2"/><path d="m47.8 29.85.25-.3-.9 1.75q-2.2 3.75-4.6 6.5-6.5 7.35-14.95 7.3m15.05-10.35 5.15-4.9m-23.95 9.5q1.4 1.25 3.65 1.75 7.55-.2 15.15-6.35m-22.35 7.1q1.7 2.5 5.8 3.2l.95.05h.3M22.8 25.85q-3.05 9.75.95 13.4m-3.45 2.6q-2.75-4 .25-12.4l.75-1.65q.65-1.2 1.5-1.95" fill="none" stroke="#032711" stroke-linecap="round" stroke-linejoin="round" transform="translate(1 1)"/><path d="m63.45 61.6 2.15 3.35q-1.05 10.2-6.6 13.4.8-1.6 1-3.2 3.45-5.3 3.45-13.55m2.95 11.5 2.4-3.6q.45 6.75-5.85 10.1 2.6-3.3 3.45-6.5M38.95 86.55l-3.9-.85q10.25-2 9.15-12.85l.4-2.8q1.8 1.95 2.4 4.4-1.6 10.15-8.05 12.1m-11.3-4.2q-7.95-6.5-1.7-22-3.05 15.75 4.9 19.6-2.45-12.6 7.65-12.85 2 2.15 3.35 7-2.8-5.35-6.4-4.4-3.05 1.25-1.3 8.6 1.9 3.65 6.55 1-6.5 4.9-13.05 3.05m18.6-.4Q55 78.95 58 68l1.05 1.8q-2.35 13-12.8 12.15" fill="#dbb2f8" fill-rule="evenodd" transform="translate(1 1)"/><path d="m35.05 85.7-3.45-1q-2.3-.95-3.95-2.35Q34.2 84.2 40.7 79.3l.75-.45q1.95-1.8 2.75-6 1.1 10.85-9.15 12.85m-4.2-5.75q-6.6-7.45-.55-13 4.95-3.3 8.2.15-10.1.25-7.65 12.85" fill="#feffff" fill-rule="evenodd" transform="translate(1 1)"/><path d="M69.6 75.4q-.6 5.35-6.45 9.15-4.05 1.5-8.25 2.2-1.45-.6 4.95-3.3 6.4-2.6 9.75-8.05" fill="#ffcaf8" fill-rule="evenodd" transform="translate(1 1)"/><path d="M65.6 64.95q1.85 4 .8 8.15-.85 3.2-3.45 6.5 6.3-3.35 5.85-10.1 1.05 3.15.8 5.9-3.35 5.45-9.75 8.05-6.4 2.7-4.95 3.3-7.7 1.25-15.95-.2Q45.4 84.6 47 74.45q.7 3.3-.75 7.5 10.45.85 12.8-12.15 1.25 2.65.95 5.35-.2 1.6-1 3.2 5.55-3.2 6.6-13.4M62.35 80.3l.6-.7-.6.7m-7.1 2.95q2.55-2.45 3.75-4.9-1.2 2.45-3.75 4.9" fill="#9a49ec" fill-rule="evenodd" transform="translate(1 1)"/><path d="M63.45 61.6v-.5m0 .5 2.15 3.35q1.85 4 .8 8.15l2.4-3.6q1.05 3.15.8 5.9-.6 5.35-6.45 9.15-4.05 1.5-8.25 2.2-7.7 1.25-15.95-.2l-3.9-.85-3.45-1q-2.3-.95-3.95-2.35-7.95-6.5-1.7-22-3.05 15.75 4.9 19.6-6.6-7.45-.55-13 4.95-3.3 8.2.15 2 2.15 3.35 7-2.8-5.35-6.4-4.4-3.05 1.25-1.3 8.6 1.9 3.65 6.55 1l.75-.45q1.95-1.8 2.75-6l.4-2.8q1.8 1.95 2.4 4.4.7 3.3-.75 7.5Q55 78.95 58 68l1.05 1.8q1.25 2.65.95 5.35 3.45-5.3 3.45-13.55M60 75.15q-.2 1.6-1 3.2-1.2 2.45-3.75 4.9M66.4 73.1q-.85 3.2-3.45 6.5l-.6.7" fill="none" stroke="#3c0c6b" stroke-linecap="round" stroke-linejoin="round" transform="translate(1 1)"/></g><g id="l"><path d="m41.25 14.7 2.6.1q3.7 2.25 5.65 6.2 1.8 3.95 1.65 7.45-.95 1.55-1.15-.5-1.9-10.4-8.75-13.25m-23.85.8q-.45-2.85 1.1-3.75 3.8 4.55 16.25 4.2 6.3-.35 9.5 4.45-4.85-2.85-17.1-2.95-5.25-.3-9.75-1.95" fill="#3fff6e" fill-rule="evenodd" transform="translate(.5 .5)"/><path d="m43.85 14.8-2.6-.1Q26.6 14 18.5 11.75q-1.55.9-1.1 3.75Q6.6 11.6 0 0q9.8 12 31.65 11.9 7.5.05 12.2 2.9" fill="#3ab670" fill-rule="evenodd" transform="translate(.5 .5)"/><path d="M18.5 11.75Q26.6 14 41.25 14.7 48.1 17.55 50 27.95q.2 2.05 1.15.5-.3 6.15-6.65 11.05 6.5-9.65 2.15-16.85-.8-1.3-2.4-2.25-3.2-4.8-9.5-4.45-12.45.35-16.25-4.2" fill="#0b773b" fill-rule="evenodd" transform="translate(.5 .5)"/><path d="M43.85 14.8q-4.7-2.85-12.2-2.9Q9.8 12 0 0q6.6 11.6 17.4 15.5 4.5 1.65 9.75 1.95 12.25.1 17.1 2.95 1.6.95 2.4 2.25Q51 29.85 44.5 39.5q6.35-4.9 6.65-11.05.15-3.5-1.65-7.45-1.95-3.95-5.65-6.2z" fill="none" stroke="#032711" stroke-linecap="round" stroke-linejoin="round" transform="translate(.5 .5)"/></g><g id="m"><path d="M42.5 102.05v.1q-.45 3.65-3.3 6.65.1-4.25-3.15-4.7 1.2-2.55 1-5.8l5-1.1.45 4.85" fill="#773d17" fill-rule="evenodd" transform="translate(1 1)"/><path d="M42.5 102.15q.35 8.6-3.1 10.15l-2.95.85q2.6-2.2 2.75-4.35 2.85-3 3.3-6.65" fill="#b97b42" fill-rule="evenodd" transform="translate(1 1)"/><path d="m36.45 113.15-6.45 1.2q6-2.35 9.2-5.55-.15 2.15-2.75 4.35" fill="#de9350" fill-rule="evenodd" transform="translate(1 1)"/><path d="m30 114.35-5.1.2q-9.55.5-10.55-2.05-.6-2.35-.65-4.1 7.35 5.1 15.6 1.6 4.95-2.1 6.75-5.85v-.05q3.25.45 3.15 4.7-3.2 3.2-9.2 5.55M7.15 109.4q-1.3-2.3-1-6.15 5.95 3.05 10-6.1l20.65 1.2-4.95 1.1-15.6 3.4-.7.5q-.95.7-1.4 1.9l-.05.05q-1.4.8-1.65 4.05-.6 1.8-5.3.05" fill="#8f4b1c" fill-rule="evenodd" transform="translate(1 1)"/><path d="M14.15 105.25q5.2 6.3 14.8.45l.05-.05 7.05-1.5q-1.8 3.75-6.75 5.85-8.25 3.5-15.6-1.6-.1-1.85.4-3.1l.05-.05" fill="#d97e2b" fill-rule="evenodd" transform="translate(1 1)"/><path d="m29 105.65-.05.05q-9.6 5.85-14.8-.45.45-1.2 1.4-1.9 3.7 3.75 13.45 2.3" fill="#efc190" fill-rule="evenodd" transform="translate(1 1)"/><path d="M29 105.65q-9.75 1.45-13.45-2.3l.7-.5 15.6-3.4q1.45 2.5-2.85 6.2" fill="#c6a079" fill-rule="evenodd" transform="translate(1 1)"/><path d="m36.8 98.35.25-.05q.2 3.25-1 5.8v.05l-7.05 1.5q4.3-3.7 2.85-6.2l4.95-1.1" fill="#b66826" fill-rule="evenodd" transform="translate(1 1)"/><path d="m6.15 103.25.1-.95q1.5-5.65 8.1-5.15h1.8q-4.05 9.15-10 6.1M9.6 99.1q-.7 0-1.25.3-.5.35-.5.85t.5.8q.55.35 1.25.35l1.2-.35q.55-.3.55-.8t-.55-.85q-.5-.3-1.2-.3" fill="#d87f2d" fill-rule="evenodd" transform="translate(1 1)"/><path d="M9.6 99.1q.7 0 1.2.3.55.35.55.85t-.55.8l-1.2.35q-.7 0-1.25-.35-.5-.3-.5-.8t.5-.85q.55-.3 1.25-.3" fill="#eec08f" fill-rule="evenodd" transform="translate(1 1)"/><path d="M14.35 112.5q-5.3.15-7.2-3.1 4.7 1.75 5.3-.05.25-3.25 1.65-4.05-.5 1.25-.4 3.1.05 1.75.65 4.1" fill="#e19355" fill-rule="evenodd" transform="translate(1 1)"/><path d="M15.55 103.35q-.95.7-1.4 1.9l-.05.05q-.5 1.25-.4 3.1.05 1.75.65 4.1m17.5-13.05-15.6 3.4-.7.5" fill="none" stroke="#4e2810" stroke-linecap="round" stroke-linejoin="round" transform="translate(1 1)"/><path d="M43.5 103.15q.35 8.6-3.1 10.15l-2.95.85-6.45 1.2-5.1.2q-9.55.5-10.55-2.05-5.3.15-7.2-3.1-1.3-2.3-1-6.15l.1-.95q1.5-5.65 8.1-5.15h1.8l20.65 1.2.25-.05 5-1.1.45 4.85m-10.65-2.6 4.95-1.1" fill="none" stroke="#4e2810" stroke-linecap="round" stroke-linejoin="round" stroke-width="2"/><path d="M45.15 32.5q-2.3 10.35-9.8 19.15-.8 7.4 0 18.8 2.3 11.15 7.65 22.3-.1 2.95-4.7 5.05-10.25 4.65-19.55 2.6-7.35-4.5-8.85-9.95 14.6-3.7 18.5-15.5 2.8-12.2-7.55-20.5 14.5-6.15 24.3-21.95" fill="#8385f2" fill-rule="evenodd" transform="translate(1 1)"/><path d="M42.4 23.95q2.2 3.35 2.75 8.55-9.8 15.8-24.3 21.95 10.35 8.3 7.55 20.5-3.9 11.8-18.5 15.5-1.05-3.7.6-7.85l1.9-2.55q9.4-4.5 9.95-14.3.05-4.5-2.85-7.85l-3-2.1q-5.75-4.4-9.45-10Q22.4 59.4 37.8 36.5q3.7-6.2 4.6-12.55M.8 29.8q-.6-3.4-.75-7.05 1.15-1.85 4.4 2.5 7.55 9.2 21.15 10.2-7.6-10.6-10.5-24.9 3.9 2.75 8.15 5.15-3.4 5.1 7.2 19-8.25 6.9-20.75-.85-6.1-5.8-8.9-4.05" fill="#d2d3ff" fill-rule="evenodd" transform="translate(1 1)"/><path d="M12.4 80.05q5.35-8.65 4.1-24.25l3 2.1q2.9 3.35 2.85 7.85-.55 9.8-9.95 14.3M7.05 45.8q-4.65-7-6.25-16 2.8-1.75 8.9 4.05 12.5 7.75 20.75.85-10.6-13.9-7.2-19 8.85 5 19.15 8.25-.9 6.35-4.6 12.55-15.4 22.9-30.75 9.3" fill="#fdfffe" fill-rule="evenodd" transform="translate(1 1)"/><path d="M.05 22.75Q-.45 12.5 2.45 0 7.6 5.8 15.1 10.55q2.9 14.3 10.5 24.9-13.6-1-21.15-10.2-3.25-4.35-4.4-2.5" fill="#7777d9" fill-rule="evenodd" transform="translate(1 1)"/><path d="M46.15 33.5q-2.3 10.35-9.8 19.15-.8 7.4 0 18.8 2.3 11.15 7.65 22.3-.1 2.95-4.7 5.05-10.25 4.65-19.55 2.6-7.35-4.5-8.85-9.95-1.05-3.7.6-7.85l1.9-2.55q5.35-8.65 4.1-24.25-5.75-4.4-9.45-10-4.65-7-6.25-16-.6-3.4-.75-7.05Q.55 13.5 3.45 1M17.5 56.8l3 2.1" fill="none" stroke="#0c156b" stroke-linecap="round" stroke-linejoin="round" stroke-width="2"/><path d="M14.4 100.2Q2.85 88.45 7.8 74.6 6.45 84.2 13 92.95q5.85 9.85 13.15 1.3 3.75-2.4 6.45-7.15.75 4.6-2.6 9.75-1.7 7.75-15.6 3.35m-1.4-12q-.5-8.45 6.45-7.7 4.05.25 5.3 3.8-9.15-4.55-10.6 5.75L13 88.2" fill="#fffdfe" fill-rule="evenodd" transform="translate(1 1)"/><path d="M34.65 95.2q6.8-5.3 7.8-18.35 2.1 4.8 1.5 10.25 5.2-6.5 3.2-18.2 2.5 4.75 3.5 9 .2 12.55-6.65 18.65-2.65 2.1-1.95 3.7l-1.65 1.1-3.95 1.6q2.35-5.65-3.65-6.5l1.85-1.25m7.8-6.45 1.5-1.65-1.5 1.65" fill="#9a49ec" fill-rule="evenodd" transform="translate(1 1)"/><path d="M50.65 77.9q3.25 13.55-8.6 22.35-.7-1.6 1.95-3.7 6.85-6.1 6.65-18.65" fill="#fecbf6" fill-rule="evenodd" transform="translate(1 1)"/><path d="m32.6 87.1 1.35-2.7q2.85 5.1.7 10.8l-1.85 1.25q6 .85 3.65 6.5-8.45 2.6-18.7.3l-3.35-3.05q13.9 4.4 15.6-3.35 3.35-5.15 2.6-9.75" fill="#deb0f9" fill-rule="evenodd" transform="translate(1 1)"/><path d="M7.8 74.6q.9-2.6 2.4-5.3-.55 9.55 2.8 18.9l1.15 1.85q1.45-10.3 10.6-5.75.7 1.95.5 5-1.1-5.05-4.85-4.25-5.1 1.1-1 11.4 3.7-.35 6.75-2.2-7.3 8.55-13.15-1.3Q6.45 84.2 7.8 74.6" fill="#ddb2fa" fill-rule="evenodd" transform="translate(1 1)"/><path d="m32.6 87.1 1.35-2.7q2.85 5.1.7 10.8 6.8-5.3 7.8-18.35 2.1 4.8 1.5 10.25 5.2-6.5 3.2-18.2 2.5 4.75 3.5 9 3.25 13.55-8.6 22.35l-1.65 1.1-3.95 1.6q-8.45 2.6-18.7.3l-3.35-3.05Q2.85 88.45 7.8 74.6q.9-2.6 2.4-5.3-.55 9.55 2.8 18.9-.5-8.45 6.45-7.7 4.05.25 5.3 3.8.7 1.95.5 5-1.1-5.05-4.85-4.25-5.1 1.1-1 11.4 3.7-.35 6.75-2.2 3.75-2.4 6.45-7.15m.2 9.35 1.85-1.25m9.3-8.1-1.5 1.65" fill="none" stroke="#3c0c6b" stroke-linecap="round" stroke-linejoin="round" transform="translate(1 1)"/></g><g id="n"><path d="M17.2 1.3q.65-.55 1.4-.95 5-1.15 4.25 1.45-1.55 1.7-2.3 3.9-5 2.55 0 17.25 3.55 10.5.65 16.2-6.95 12.15-4.6 31.2l-5.05-.6q.8-5.1-.05-7-4.35-8.35 3.1-17.8 7.25-10.35 3.2-22.9-2.85-11.55.8-18.2 1.3-2.15-1.4-2.55" fill="#d89c3c" fill-rule="evenodd" transform="translate(1 1)"/><path d="M16.6 70.35q-2.35-19.05 4.6-31.2 2.9-5.7-.65-16.2-5-14.7 0-17.25-1.9 5.45 1.15 13.95 5.65 15.55-.05 23.3-7.3 10.5-3.05 27.65l-2-.25" fill="#ffe530" fill-rule="evenodd" transform="translate(1 1)"/><path d="M17.2 1.3q2.7.4 1.4 2.55-3.65 6.65-.8 18.2 4.05 12.55-3.2 22.9-7.45 9.45-3.1 17.8.85 1.9.05 7l-9.4-1.2Q.7 65 .25 61.55q1.9 3.45 4.65 3.1 4.05-1.15 1.9-5.4l-.05-1q-.3-3.85.25-7.35 1.25-.4 2.7-1.2 1.3-1.5-1.55-1.35l-.7.25q.9-3.75 2.9-7.1.85-.3 1.8-1l.4-.7q-.1-.85-.7-.65l.75-1q3.7-6.65 3.4-10.2l-.55-3.9.15-.4-.3-.5q-.6-5.1-.6-8.8l.35-.45-.3-.4q.05-2.85.55-4.85 1.85-5.35.05-5.05.8-1.4 1.85-2.3" fill="#fbda3d" fill-rule="evenodd" transform="translate(1 1)"/><path d="m14.75 13.5-.1-.05-.85-.2-.65.1Q13.4 7 15.35 3.6q1.8-.3-.05 5.05-.5 2-.55 4.85m-1.6.95.65.1.85-.2h.05q0 3.7.6 8.8l-.1-.1-.95-.2-.95.2-.15.1q.45-3.55 0-8.7m2.3 9.6.55 3.9q.3 3.55-3.4 10.2l-.75 1-.15.05q-1.75 1.2-3.55.55l2-3.45 1.6-3 2.3-.25.65-.8q.15-.55-.5-.65l-1.8.1q1.5-4 .2-5.7l.45-2 .25.2.95.25.95-.25.25-.15m-5.1 17.45q-2 3.35-2.9 7.1l-3.05-.05q1.1-3.55 2.9-7.1l3.05.05M7 50.9q-.55 3.5-.25 7.35l-4.15.2q.15-3.65 1.1-7.4L7 50.9m-.2 8.35q2.15 4.25-1.9 5.4-2.75.35-4.65-3.1L.1 60.4q2.05 1.45 4.3.8 2.2-.3 2.4-1.95" fill="#fefa8e" fill-rule="evenodd" transform="translate(1 1)"/><path d="M12.6 26q1.3 1.7-.2 5.7-1-.1-1.75-.5l1.85-4.95.1-.25m-.85 7.3-1.6 3-2 3.45q-.5-.15-1-.5l3-6.8q.65.65 1.6.85M6.4 40.8l.9.65Q5.5 45 4.4 48.55l-2-.3 1-1.85 3-5.6m-4.65 8.9q.8 1 1.95 1.35-.95 3.75-1.1 7.4Q1 58.2.05 57.3q.15-3.9 1.7-7.6" fill="#fff" fill-rule="evenodd" transform="translate(1 1)"/><path d="m13.15 13.35.65-.1.85.2.1.05.3.4-.35.45h-.05l-.85.2-.65-.1-.05-.15.05-.95m2.15 9.8.3.5-.15.4-.25.15-.95.25-.95-.25-.25-.2.1-.85.15-.1.95-.2.95.2.1.1m-3.45 16q.6-.2.7.65l-.4.7q-.95.7-1.8 1l-3.05-.05-.9-.65.75-1.55q.5.35 1 .5 1.8.65 3.55-.55l.15-.05m-4.4 9.45.7-.25Q11 48.2 9.7 49.7q-1.45.8-2.7 1.2l-3.3.15q-1.15-.35-1.95-1.35l.65-1.45 2 .3 3.05.05m-.7 9.65.05 1q-.2 1.65-2.4 1.95-2.25.65-4.3-.8l-.05-3.1q.95.9 2.55 1.15l4.15-.2M12.4 31.7l1.8-.1q.65.1.5.65l-.65.8-2.3.25q-.95-.2-1.6-.85l.5-1.25q.75.4 1.75.5" fill="#d0a727" fill-rule="evenodd" transform="translate(1 1)"/><path d="M21.55 6.7q.75-2.2 2.3-3.9.75-2.6-4.25-1.45-.75.4-1.4.95-1.05.9-1.85 2.3-1.95 3.4-2.2 9.75l-.05.95.05.15q.45 5.15 0 8.7l-.1.85-.45 2-.1.25-1.85 4.95-.5 1.25-3 6.8-.75 1.55-3 5.6-1 1.85-.65 1.45q-1.55 3.7-1.7 7.6l.05 3.1.15 1.15q.45 3.45 1.9 7l9.4 1.2 5.05.6 2 .25q-4.25-17.15 3.05-27.65 5.7-7.75.05-23.3-3.05-8.5-1.15-13.95z" fill="none" stroke="#634314" stroke-linecap="round" stroke-linejoin="round" stroke-width="2"/></g><g id="o"><path d="m12 7.05.8 2.45q4.5 12.95 12.9 22.45 5.6 6.35 12.9 11.15-6.35.8-12.9-3.45-4.2-2.7-8.45-7.45-3.7-4.85-6.1-9.3l-.1-.25Q7.3 15.55 6.85 9.5L6.8 7.05q1.85-4.35 5.2 0" fill="#fdfdfb" fill-rule="evenodd" transform="translate(9)"/><path d="m38.6 43.1 6.8 4q-5.25.15-10.4-1.05-4.95-1.9-9.3-4.45-8.45-5.05-14.55-12.6-2.4-3-4.4-6.35l-2.3-4.1L4 17.7l-.6-3.5-.15-.95L2.7 9.5Q1.9 5.7.35 3.75q3-7.3 10.6-.4.45 1.85 1.05 3.7-3.35-4.35-5.2 0l.05 2.45q.45 6.05 4.2 13.15l.1.25q2.4 4.45 6.1 9.3 4.25 4.75 8.45 7.45 6.55 4.25 12.9 3.45" fill="#fccab3" fill-rule="evenodd" transform="translate(9)"/><path d="M.05 6.6 0 4.55l.35-.8Q1.9 5.7 2.7 9.5l.55 3.75.15.95.6 3.5L2.3 14 .6 9.5.05 7.95V7.9l.05-.65-.05-.4V6.6" fill="#d1a695" fill-rule="evenodd" transform="translate(9)"/><path d="m6.95 29.2-.85-.8q-1.3-2.2-2.3-4.5l-.3-.7Q1.55 18.65.65 13.7L.1 9.5.05 7.95.6 9.5 2.3 14 4 17.7l.3 1.55.75 3.4q.8 3.4 1.9 6.55M.05 6.6v.05-.05" fill="#d16f42" fill-rule="evenodd" transform="translate(9)"/><path d="m6.1 28.4-2.3-2.45-4.25-4.4Q-4.35 17.5-8 11.45l-.35 1.1Q-9.5 11.4-7.8 9.6l2.5-2.5q.85-.65 5.35-.5v.25l.05.4-.05.65v.05L.1 9.5l.55 4.2q.9 4.95 2.85 9.5l.3.7q1 2.3 2.3 4.5M.05 6.6v.05-.05" fill="#d79795" fill-rule="evenodd" transform="translate(9)"/><path d="M35 46.05q-4.7-1.05-9.3-3.2-7.4-3.5-14.55-9.75l-4.2-3.9q-1.1-3.15-1.9-6.55l-.75-3.4L4 17.7l.45.85 2.3 4.1q2 3.35 4.4 6.35 6.1 7.55 14.55 12.6 4.35 2.55 9.3 4.45" fill="#fc844f" fill-rule="evenodd" transform="translate(9)"/><path d="m21 7.05.8 2.45q4.5 12.95 12.9 22.45 5.6 6.35 12.9 11.15l6.8 4q-5.25.15-10.4-1.05-4.7-1.05-9.3-3.2-7.4-3.5-14.55-9.75l-4.2-3.9-.85-.8-2.3-2.45-4.25-4.4Q4.65 17.5 1 11.45m18.95-8.1-.4-1.5m.4 1.5Q20.4 5.2 21 7.05" fill="none" stroke="#673018" stroke-linecap="round" stroke-linejoin="round" stroke-width="2"/></g><g id="p"><path d="M58.85 65.8q11.2-7.2 25-3.05-1.85 3.5-.55 9 1.3 5.75 6 13.75l.05.05 1.15 2.85q1.05 1.9 1.3 7.8l-.4.05-.3.05q-13.9 1.75-21.35-8.75-7.7-10.75-9.7-15.65-.9-3.1-1.2-6.1" fill="#d16f42" fill-rule="evenodd" transform="translate(-15.2 -45)"/><path d="m89.35 85.55 1.7 2.75-.55.1-1.15-2.85" fill="#fccab3" fill-rule="evenodd" transform="translate(-15.2 -45)"/><path d="m27.25 128.4-3.55-1.25Q18.75 125 19 113.5l-2.65-4.75-.15-.2q.95-12.65 3.6-22.65.95-3.5 2.05-6.65l.9 6.9 4.5 42.2v.05" fill="#cea893" fill-rule="evenodd" transform="translate(-15.2 -45)"/><path d="M21.85 79.25q7.35-20.5 23.45-27.8Q37.75 74.4 60.05 71.9q-2.45 8.2-11.2 11.8-9.4 3.85-26.1 2.45l-.9-6.9" fill="#d17045" fill-rule="evenodd" transform="translate(-15.2 -45)"/><path d="m67.35 110.65-2.55 2.05-.7.65-.05.1.3-13.25Q63.9 81.7 51.8 84l-2.95.8q11.9-5.65 15.5 5.25L65.3 94l2.05 16.6v.05" fill="#fdcbb4" fill-rule="evenodd" transform="translate(-15.2 -45)"/><path d="m51.8 84 1.6 13.25q-1.65 8.95-7.5 12.2.8-2.5 1.4-5.55 1.5-7.8 1.55-19.1l2.95-.8" fill="#fd844f" fill-rule="evenodd" transform="translate(-15.2 -45)"/><path d="m45.3 51.45 2.55-1.1L62.55 46q-4.85 9.7-3.7 19.8.3 3 1.2 6.1-22.3 2.5-14.75-20.45" fill="#fc844f" fill-rule="evenodd" transform="translate(-15.2 -45)"/><path d="M91.8 96.2q-.6 3.6-2.65 5.55-3.75 3.55-15.35 5.8-3 .55-6.45 3.05v.15-.15L65.3 94l-.95-3.95q-3.6-10.9-15.5-5.25v-1.1q8.75-3.6 11.2-11.8 2 4.9 9.7 15.65 7.45 10.5 21.35 8.75l.3-.05.4-.05" fill="#fb834f" fill-rule="evenodd" transform="translate(-15.2 -45)"/><path d="M22.75 86.15q16.7 1.4 26.1-2.45v1.1q-.05 11.3-1.55 19.1-3.3 3.55-7.1 5.8h-.05q-3.2 1.9-6.35 2.7-3.7 4.45-6.55 15.95l-4.5-42.2" fill="#d59897" fill-rule="evenodd" transform="translate(-15.2 -45)"/><path d="m64.1 113.35-.1.95.05-.7.05-.25m-.05.1q-3.35 3.15-4.7 5.45-2.65 4.4-9.1 7.45-6.65 3.1-14 3.1h-.55q2.65-11.8 9.8-17.65 7.8-5.6 7.9-14.55L51.8 84q12.1-2.3 12.55 16.2l-.3 13.25m-28.4 16-5.15-.4q2.15-13.1 12.8-18.25 1.2-.7 2.6-1.35l-1.5 1.8q-9.05 7.75-8.75 18.2m-8.4-1.1v.05-.05" fill="#fdfffe" fill-rule="evenodd" transform="translate(-15.2 -45)"/><path d="m30.5 129.05-3.25-.65v-.05q2.85-11.5 6.55-15.95 3.15-.8 6.35-2.7h.05q3.8-2.25 7.1-5.8-.6 3.05-1.4 5.55-1.4.65-2.6 1.35-10.65 5.15-12.8 18.25" fill="#d56e43" fill-rule="evenodd" transform="translate(-15.2 -45)"/><path d="M35.7 129.45h-.05q-.3-10.45 8.75-18.2l1.5-1.8q5.85-3.25 7.5-12.2-.1 8.95-7.9 14.55-7.15 5.85-9.8 17.65" fill="#fdcbb2" fill-rule="evenodd" transform="translate(-15.2 -45)"/><path d="M43.65 20.8q11.2-7.2 25-3.05-1.85 3.5-.55 9 1.3 5.75 6 13.75m.05.05 1.7 2.75M1.15 63.75l-.15-.2Q1.95 50.9 4.6 40.9q.95-3.5 2.05-6.65Q14 13.75 30.1 6.45l2.55-1.1L47.35 1q-4.85 9.7-3.7 19.8.3 3 1.2 6.1" fill="none" stroke="#673018" stroke-linecap="round" stroke-linejoin="round" stroke-width="2"/><path d="m75.85 43.3-.55.1M24.95 64.7q-3.2 1.9-6.35 2.7" fill="none" stroke="red" stroke-linecap="round" stroke-linejoin="round" stroke-width=".05"/></g><g id="q"><path d="M10.6 6.4v-.05l-.2-.9-.7-2.35-.1-.25-.1-.3q12.7 10.35 9.75 25.1Q15.8 39 22.85 57.6 8.4 55.95 12.2 31.1q2.15-17.3-1.6-24.7" fill="#fdfffe" fill-rule="evenodd" transform="translate(1)"/><path d="m9.5 2.55.1.3.1.25.7 2.35.2.9v.05l.75 4.8Q9.4 20 5.05 27.35q-2.55 3.6-2.7 15l-.5-1.15q-.4-8.25 2-25.7L4.4 13l1-3.1 1.1-3.65Q7.2 3.8 8.45 0l.85 2.05.2.5" fill="#d16f42" fill-rule="evenodd" transform="translate(1)"/><path d="M10.6 6.4q3.75 7.4 1.6 24.7-3.8 24.85 10.65 26.5l2.85 6.85q-5.9-2.2-10.6-5.8-10.6-12.75-4.5-35.1 1.3-6.8.75-12.35l-.75-4.8" fill="#f9cbb3" fill-rule="evenodd" transform="translate(1)"/><path d="M2.35 42.35q.15-11.4 2.7-15Q9.4 20 11.35 11.2q.55 5.55-.75 12.35-6.1 22.35 4.5 35.1-8-6.15-12.75-16.3" fill="#fd8350" fill-rule="evenodd" transform="translate(1)"/><path d="M3.85 15.5q-2.4 17.45-2 25.7Q.8 38.9 0 36.4q.1-4.15.8-9.3.65-5.15 3.05-11.6" fill="#d39998" fill-rule="evenodd" transform="translate(1)"/><path d="M23.85 57.6Q16.8 39 20.25 27.65M2.85 41.2l.5 1.15Q8.1 52.5 16.1 58.65q4.7 3.6 10.6 5.8l-2.85-6.85m-21-16.4Q1.8 38.9 1 36.4" fill="none" stroke="#673018" stroke-linecap="round" stroke-linejoin="round" stroke-width="2"/></g><g id="r"><path d="M37 68.7q-10.25-9.9-15.75-23.4-4.35-10.65-5.75-23.5-.1-7.65-.75-14.8l-.7-6.6q1.75.5 3.7 1.65l.05 3.35V7q.15 6.9.85 13.15 1 9.35 3.2 17.3 5.9 21.5 20.4 32.8L37 68.7" fill="#fb834f" fill-rule="evenodd"/><path d="m14.05.4.7 6.6q.65 7.15.75 14.8 1.4 12.85 5.75 23.5Q26.75 58.8 37 68.7l-3.65-1.45-1.65-.75q-2.15-1-4.15-2.2 2.05-2.1-3.65-8.3l-2.65-3.9Q9.95 33.5 12.05.7V0l2 .4" fill="#fdcbb4" fill-rule="evenodd"/><path d="M12.05 0v.7q-2.1 32.8 9.2 51.4L23.9 56q5.7 6.2 3.65 8.3-3.4-2-6.3-4.5-6.3-5.45-10.45-13.2-2-3.75-3.5-8L.85 21 0 18.95Q3-.65 12.05 0" fill="#fdfffe" fill-rule="evenodd"/><path d="M18.65 20.15Q17.95 13.9 17.8 7V5.4l-.05-3.35M7.3 38.6q1.5 4.25 3.5 8" fill="none" stroke="#673018" stroke-linecap="round" stroke-linejoin="round"/><path d="m37 68.7 5.25 1.55q-14.5-11.3-20.4-32.8-2.2-7.95-3.2-17.3m8.9 44.15q2 1.2 4.15 2.2l1.65.75L37 68.7M10.8 46.6q4.15 7.75 10.45 13.2 2.9 2.5 6.3 4.5" fill="none" stroke="#673018" stroke-linecap="round" stroke-linejoin="round" stroke-width="2"/></g><g id="s"><path d="m9.9.1.55-.1 2.7 4.15Q19 13.65 32 20.85 20.5 16.9 13.75 7.05 11.55 3.85 9.9.1m55.95 36.75Q56.05 34.6 45.9 35q-13.15 1.1-24.05-9.15Q7.15 14.4 7.5 22.55L4.85 18.3q5.3-7.45 24.05 4.7 7 4.1 19.4 5.05l4.4 1.45q6.95 2.4 13.15 7.35" fill="#fccab3" fill-rule="evenodd" transform="translate(0 1)"/><path d="M9.9.1q1.65 3.75 3.85 6.95Q6.7 9.1.65 7.45 2.5 1.45 9.9.1" fill="#d16f42" fill-rule="evenodd" transform="translate(0 1)"/><path d="M13.75 7.05Q20.5 16.9 32 20.85q7.1 3.95 16.3 7.2Q35.9 27.1 28.9 23 10.15 10.85 4.85 18.3l-.6-1.2L0 12q0-2.55.65-4.55 6.05 1.65 13.1-.4" fill="#fb834f" fill-rule="evenodd" transform="translate(0 1)"/><path d="M7.5 22.55q-.35-8.15 14.35 3.3Q32.75 36.1 45.9 35q10.15-.4 19.95 1.85 3.45 2.8 6.65 6.35-11.5-4.95-28.65-5.3Q18.15 37 7.5 22.55" fill="#fefefe" fill-rule="evenodd" transform="translate(0 1)"/><path d="M32 21.85q-13-7.2-18.85-16.7L10.45 1m55.4 36.85q-6.2-4.95-13.15-7.35l-4.4-1.45q-9.2-3.25-16.3-7.2M4.85 19.3l2.65 4.25Q18.15 38 43.85 38.9q17.15.35 28.65 5.3-3.2-3.55-6.65-6.35m-61-18.55-.6-1.2" fill="none" stroke="#673018" stroke-linecap="round" stroke-linejoin="round" stroke-width="2"/></g><g id="t"><path d="m21.65 3.95 1.6 1.45q3.7 13.5-3.55 26.2-14.65 19.8.65 43.8-5.1-1.6-8.9-4.1 2.15-1.7-1.3-8.2Q3.5 45.85 14.8 29.05q11.4-14.5 6.85-25.1" fill="#fecab4" fill-rule="evenodd" transform="translate(1)"/><path d="M23.25 5.4q2.05 2.2 3.1 5.55 1.15 10.95-2.3 17.15-1.4 2.5-2.5 4.95l-.05.1v.05q-11.75 18.55.45 40.1l1.25 2.85-2.85-.75q-15.3-24-.65-43.8 7.25-12.7 3.55-26.2" fill="#fc844f" fill-rule="evenodd" transform="translate(1)"/><path d="M11.45 71.3Q-1.8 62.45.3 41.75l1.15-13q8.65-5.55 9.75-14.2 1.4-7.8 6.4-10.45l1.95-1.25 2.1 1.1q4.55 10.6-6.85 25.1-11.3 16.8-4.65 34.05 3.45 6.5 1.3 8.2" fill="#fdfffe" fill-rule="evenodd" transform="translate(1)"/><path d="m18.45 2.3 1.1.55L17.6 4.1q-5 2.65-6.4 10.45-1.1 8.65-9.75 14.2 5.5-9.4 7.3-18.8l.1-.4q4.85-1.9 9.6-7.25" fill="#fdcbb2" fill-rule="evenodd" transform="translate(1)"/><path d="m17.35 1.85 1.1.45q-4.75 5.35-9.6 7.25 1.15-3.8 8.5-7.7" fill="#d3a897" fill-rule="evenodd" transform="translate(1)"/><path d="m14.25.75 3.1 1.1q-7.35 3.9-8.5 7.7l-4.35.95h-.1q-2.2-5.8-1-6.1Q9.25 3.65 14.25.75" fill="#d56e43" fill-rule="evenodd" transform="translate(1)"/><path d="M3.1 10.55v-.05Q1.85 6.6.05 2.45q6.4-3.8 14.2-1.7-5 2.9-10.85 3.65-1.2.3 1 6.1l-1.3.05" fill="#d59897" fill-rule="evenodd" transform="translate(1)"/><path d="M1.45 28.75q1.5-9.65 1.65-18.2l1.3-.05h.1l4.35-.95-.1.4q-1.8 9.4-7.3 18.8" fill="#fc8450" fill-rule="evenodd" transform="translate(1)"/><path d="M21.5 33.2q-1.6 3.45-2.65 6.75-.7 3.75-.95 7.4-1.05 13.8 4.05 25.95-12.2-21.55-.45-40.1" fill="#fcb7b2" fill-rule="evenodd" transform="translate(1)"/><path d="M26.35 10.95q1.15 10.95-2.3 17.15-1.4 2.5-2.5 4.95l-.05.1m0 .05q-1.6 3.45-2.65 6.75-.7 3.75-.95 7.4" fill="none" stroke="#673018" stroke-linecap="round" stroke-linejoin="round" transform="translate(1)"/><path d="M18.9 47.35q-1.05 13.8 4.05 25.95l1.25 2.85-2.85-.75q-5.1-1.6-8.9-4.1Q-.8 62.45 1.3 41.75" fill="none" stroke="#673018" stroke-linecap="round" stroke-linejoin="round" stroke-width="2"/></g><g id="u"><path d="m16.85 10.05-2.8-1.7Q13.55 5.2 12.5 2l2.45.65Q16.75 6.8 18 10.7l-1.15-.65" fill="#d46d44" fill-rule="evenodd" transform="translate(1 1)"/><path d="m14.05 8.35 2.8 1.7q3.2 12.7.05 23.65-1.9 7.2-4.55 12.8l-.45.95q-2.1 4.8.4 9.5l-3.45-3Q5.8 45 8.05 34.65q1.25-4.5 4.45-10.2 2.85-7.5 1.55-16.1" fill="#fc8450" fill-rule="evenodd" transform="translate(1 1)"/><path d="m16.85 10.05 1.15.65v.05q1.85 5.85 2.35 11l.1 4.15q-.2 6.5-2.95 11.55l-2.3 4.5-2.25 3.5-.6 1.05Q15 40.9 16.9 33.7q3.15-10.95-.05-23.65" fill="#ffb7b1" fill-rule="evenodd" transform="translate(1 1)"/><path d="M12.5 2q1.05 3.2 1.55 6.35-5.1-3.45-8.7-8.3L5.3 0l7.2 2" fill="#cea893" fill-rule="evenodd" transform="translate(1 1)"/><path d="M5.35.05q3.6 4.85 8.7 8.3 1.3 8.6-1.55 16.1-3.2 5.7-4.45 10.2-2.25 10.35.8 19.3-4.9-4.7-7.05-9.95 2.65.85 2.75-7.2 0-4.2 3.25-9.1 2.8-2.55 3.15-8.7-.3-9.7-4.85-5.05 2.5-9.3-.75-13.9" fill="#fdcbb2" fill-rule="evenodd" transform="translate(1 1)"/><path d="M6.1 13.95Q10.65 9.3 10.95 19q-.35 6.15-3.15 8.7-3.25 4.9-3.25 9.1-.1 8.05-2.75 7.2-3.6-8.7.05-18.9 2.9-6.25 4.25-11.15" fill="#fdfffe" fill-rule="evenodd" transform="translate(1 1)"/><path d="M18 10.7q-1.25-3.9-3.05-8.05M18 10.7v.05q1.85 5.85 2.35 11l.1 4.15q-.2 6.5-2.95 11.55l-2.3 4.5" fill="none" stroke="#673018" stroke-linecap="round" stroke-linejoin="round" transform="translate(1 1)"/><path d="M6.35 1.05q3.25 4.6.75 13.9-1.35 4.9-4.25 11.15Q-.8 36.3 2.8 45q2.15 5.25 7.05 9.95l3.45 3q-2.5-4.7-.4-9.5m3.3-5.5-2.25 3.5-.6 1.05m-7-46.45L6.3 1" fill="none" stroke="#673018" stroke-linecap="round" stroke-linejoin="round" stroke-width="2"/></g><g id="v"><path d="M83.2 2.4q2.35-1.05 4.5-2.4-.75 4.25-3.4 7.2v.05q-4.45 3-16.5 6.1-8.3 3-17 23.55Q46.65 49.8 21 62.65l-3.1 1.2q.5-4.15.25-7.2 2.75.15 5.9-1.6 17.35-6.55 21.7-15l8.75-20.1q4.1-8.4 17.8-10.7 13.8-3.7 10.9-6.85" fill="#d89c3c" fill-rule="evenodd" transform="translate(1 1)"/><path d="M84.3 7.25q-4.3 4.65-13.4 6-7.9 1.15-14.2 15.9-4.75 14.1-9.5 18.65Q35.9 56.75 21 62.65 46.65 49.8 50.8 36.9q8.7-20.55 17-23.55 12.05-3.1 16.5-6.1" fill="#ffe530" fill-rule="evenodd" transform="translate(1 1)"/><path d="M57.15 11.45q3.2-2.1 7.5-1.7 5.1-1.35 2.9-3.3Q76.3 5.5 83.2 2.4q2.9 3.15-10.9 6.85-13.7 2.3-17.8 10.7l-8.75 20.1q-4.35 8.45-21.7 15-3.15 1.75-5.9 1.6-.5-5.35-3.3-7.45 2-1.3 4.8-1.45 1.75 1.55 3.75 2 2.4.95 2.75-1.05-1.8-.55-3.1-1.5 5.5-.05 10.75-2.75l1.05.3q1.9.15 1.05-1.7l-.2-.1q4.45-2 7.75-7l.9.15q2 .15.8-1.3l-.8-.7q2.2-4.15 3.6-11.95l1.95.25q1.1-.6 0-1.6l-.85-.45q.75-3.95 6.55-8l.5.3q1.3-.1 1.05-1.2" fill="#fbda3d" fill-rule="evenodd" transform="translate(1 1)"/><path d="M55.65 8.25q2.6-1.3 5.5-1.4l6.4-.4q2.2 1.95-2.9 3.3-4.3-.4-7.5 1.7-1.6-1.6-1.5-3.2m-50.8 40.8.55-.5q3.7 3.6 5.7 4.25-1.35 1.3-3.5 1.55-4.1.4-2.75-5.3M8.6 46.3l.75-.4 3.45-1.15q.1 2.65 4.9.8l1.95 2.2q-2.8.15-4.8 1.45-1.3.85-2.3 2.15-3.4-1.85-3.95-5.05m28.2-10.4q2.2-1.65 3.6-3.55 1 2.9 3.05 3.6-3.3 5-7.75 7-1.4-.85-2.25-2.75 5-2.35 3.35-4.3m4.95-5.85.5-1.4q1.5-5 3.35-8.8.85 1.7 2.35 2.3-1.4 7.8-3.6 11.95-1.95-1.85-2.6-4.05m6.35-10.6q1.85-4.25 6.15-8.5.45.85 1.35 1.4-5.8 4.05-6.55 8l-.95-.9M30.8 41.7q.7 1.85 3 2.75-5.25 2.7-10.75 2.75-1.3-.9-2.15-2.2l9.9-3.3" fill="#fefa8e" fill-rule="evenodd" transform="translate(1 1)"/><path d="M11.7 52.95q1.15.05 1.4-1.3l-.55-.3q1-1.3 2.3-2.15 2.8 2.1 3.3 7.45-1.35-.1-2.55-.65-2.1-.9-3.9-3.05" fill="#d2b533" fill-rule="evenodd" transform="translate(1 1)"/><path d="M55.65 8.25q-.1 1.6 1.5 3.2.25 1.1-1.05 1.2l-.5-.3q-.9-.55-1.35-1.4-.4-.7-.5-1.6l1.9-1.1M5.4 48.55q1.4-1.3 3.2-2.25.55 3.2 3.95 5.05l.55.3q-.25 1.35-1.4 1.3l-.6-.15q-2-.65-5.7-4.25m11.05-4.9 3.3-.95q.45 1.25 1.15 2.3.85 1.3 2.15 2.2 1.3.95 3.1 1.5-.35 2-2.75 1.05-2-.45-3.75-2l-1.95-2.2-1.25-1.9m14.05-4.3 2.35-1.05.6 1.9q.85 1.9 2.25 2.75l.2.1q.85 1.85-1.05 1.7l-1.05-.3q-2.3-.9-3-2.75-.4-1-.3-2.35m9.9-7 1.35-2.3q.65 2.2 2.6 4.05l.8.7q1.2 1.45-.8 1.3l-.9-.15q-2.05-.7-3.05-3.6m5.2-12.5L47.1 17q.25 1.45 1 2.45l.95.9.85.45q1.1 1 0 1.6l-1.95-.25q-1.5-.6-2.35-2.3" fill="#d0a928" fill-rule="evenodd" transform="translate(1 1)"/><path d="m12.8 44.75 3.65-1.1 1.25 1.9q-4.8 1.85-4.9-.8m6.95-2.05 6.2-1.65 4.55-1.7q-.1 1.35.3 2.35L20.9 45q-.7-1.05-1.15-2.3m13.1-4.4 3.95-2.4q1.65 1.95-3.35 4.3l-.6-1.9M47.1 17q2.95-5.1 6.65-7.65.1.9.5 1.6-4.3 4.25-6.15 8.5-.75-1-1-2.45" fill="#fefeff" fill-rule="evenodd" transform="translate(1 1)"/><path d="m17.9 63.85-2.2.8q-3.6 1.45-7.05 2.2L15.6 56q1.2.55 2.55.65.25 3.05-.25 7.2" fill="#b38233" fill-rule="evenodd" transform="translate(1 1)"/><path d="M8.65 66.85.5 67.6q-2.1-12.4 4.35-18.55-1.35 5.7 2.75 5.3 2.15-.25 3.5-1.55l.6.15q1.8 2.15 3.9 3.05L8.65 66.85" fill="#fcd93d" fill-rule="evenodd" transform="translate(1 1)"/><path d="m68.55 7.45-6.4.4q-2.9.1-5.5 1.4l-1.9 1.1Q51.05 12.9 48.1 18l-1.5 2.85q-1.85 3.8-3.35 8.8l-.5 1.4-1.35 2.3q-1.4 1.9-3.6 3.55l-3.95 2.4-2.35 1.05-4.55 1.7-6.2 1.65-3.3.95-3.65 1.1-3.45 1.15-.75.4q-1.8.95-3.2 2.25l-.55.5Q-.6 56.2 1.5 68.6l8.15-.75q3.45-.75 7.05-2.2l2.2-.8 3.1-1.2q14.9-5.9 26.2-14.85 4.75-4.55 9.5-18.65Q64 15.4 71.9 14.25q9.1-1.35 13.4-6m-16.75-.8Q77.3 6.5 84.2 3.4q2.35-1.05 4.5-2.4-.75 4.25-3.4 7.2" fill="none" stroke="#634314" stroke-linecap="round" stroke-linejoin="round" stroke-width="2"/></g><g id="w"><path d="M50.4 10.7q3 7.5-12.65 9.75-7.55.75-12.9 3.75-14.15 9.95-17.9 6.85 9.05-8.6 28.2-14.55 8.15-2.4 15.25-5.8" fill="#fdfffe" fill-rule="evenodd" transform="translate(1 1)"/><path d="M60.55 5q1.7 7.3-6.2 14.25-5.2 4.6-14.45 5.05-12.1 0-16.3 3Q13 36.45 5.95 32.05l1-1q3.75 3.1 17.9-6.85 5.35-3 12.9-3.75Q53.4 18.2 50.4 10.7 55.8 8.1 60.55 5m-12.9 21.2 1.05-1.05q1.8-.75.45 1.3-3.55 3.75-5.85 8.6-7.3 14.65-23 11.5 5.25.1 9.2-.95 5.1-1.35 8-4.75 1.6-2 2.55-4.6 3.55-6.2 7.6-10.05" fill="#fccab3" fill-rule="evenodd" transform="translate(1 1)"/><path d="M4.4 43q10.4-10.3 19.1-13.15 4.1-1.65 10.25-1 7.15.3 11.25-1.25-2.8 3.95-10.2 4.2-13.4-.6-17.95 3.75-5.4 5.9-12.45 7.45" fill="#ca453e" fill-rule="evenodd" transform="translate(1 1)"/><path d="M45 27.6q1.5-.6 2.65-1.4-4.05 3.85-7.6 10.05-.95 2.6-2.55 4.6 3.05-8.1-1.5-7.65l-13.5 2.55Q13.75 37 11.8 41.6q-1.4 3.05 3.45 4.55Q9.9 45.5 3.5 43.9l.9-.9q7.05-1.55 12.45-7.45Q21.4 31.2 34.8 31.8q7.4-.25 10.2-4.2" fill="#f45448" fill-rule="evenodd" transform="translate(1 1)"/><path d="m18.5 46.45-3.25-.3q-4.85-1.5-3.45-4.55 1.95-4.6 10.7-5.85L36 33.2q4.55-.45 1.5 7.65-2.9 3.4-8 4.75 6.8-6.1 3.95-8.05-2.9-1.95-12.6 1.2-7.6 4.15-2.35 7.7" fill="#ff948e" fill-rule="evenodd" transform="translate(1 1)"/><path d="m20.3 46.55-1.8-.1q-5.25-3.55 2.35-7.7 9.7-3.15 12.6-1.2 2.85 1.95-3.95 8.05-3.95 1.05-9.2.95" fill="#ffdcda" fill-rule="evenodd" transform="translate(1 1)"/><path d="M5.95 32.05Q13 36.45 23.6 27.3q4.2-3 16.3-3 9.25-.45 14.45-5.05 7.9-6.95 6.2-14.25l6.65-5q6.05-.3-.9 14.95-2.95 5.65-7.7 10.55-5.45 5.5-13.15 10.15 8.35 1.6 12.3-5.7.55-2.2 2.05-2.9 2.1 4.9-10.15 15.35-3.4 1.3-5.95 3.25-18.55 11.95-39.55.2L3.5 43.9q6.4 1.6 11.75 2.25l3.25.3 1.8.1q15.7 3.15 23-11.5 2.3-4.85 5.85-8.6 1.35-2.05-.45-1.3l-1.05 1.05Q46.5 27 45 27.6q-4.1 1.55-11.25 1.25-6.15-.65-10.25 1Q14.8 32.7 4.4 43q.65-4.55-1.5-7.2 1.3-1.95 3.05-3.75m38.8 4 .7-.4-.7.4" fill="#fc8450" fill-rule="evenodd" transform="translate(1 1)"/><path d="M4.15 45.85q21 11.75 39.55-.2 2.55-1.95 5.95-3.25l-.7.55q-19.85 18.4-44.2 4.9l-.6-2" fill="#fdb7b5" fill-rule="evenodd" transform="translate(1 1)"/><path d="M59.8 27.05q-1.5.7-2.05 2.9-3.95 7.3-12.3 5.7Q53.15 31 58.6 25.5q.8.65 1.2 1.55" fill="#fdfffc" fill-rule="evenodd" transform="translate(1 1)"/><path d="M2.9 35.8q2.15 2.65 1.5 7.2l-.9.9q-4.5.35-3.2-3.2.95-2.55 2.6-4.9" fill="#d46f45" fill-rule="evenodd" transform="translate(1 1)"/><path d="M6.95 33.05Q5.2 34.85 3.9 36.8q-1.65 2.35-2.6 4.9-1.3 3.55 3.2 3.2l.65 1.95.6 2q24.35 13.5 44.2-4.9l.7-.55Q62.9 32.95 60.8 28.05q-.4-.9-1.2-1.55 4.75-4.9 7.7-10.55Q74.25.7 68.2 1l-6.65 5Q56.8 9.1 51.4 11.7q-7.1 3.4-15.25 5.8Q17 23.45 7.95 32.05l-1 1M4.5 44.9l.9-.9" fill="none" stroke="#673018" stroke-linecap="round" stroke-linejoin="round" stroke-width="2"/><path d="M4.4 43q10.4-10.3 19.1-13.15 4.1-1.65 10.25-1 7.15.3 11.25-1.25 1.5-.6 2.65-1.4l1.05-1.05m-28.4 21.4-1.8-.1-3.25-.3Q9.9 45.5 3.5 43.9m41.95-8.25-.7.4M29.5 45.6q5.1-1.35 8-4.75 1.6-2 2.55-4.6 3.55-6.2 7.6-10.05M20.3 46.55q5.25.1 9.2-.95m15.95-9.95Q53.15 31 58.6 25.5" fill="none" stroke="#673018" stroke-linecap="round" stroke-linejoin="round" transform="translate(1 1)"/></g><g id="x"><path d="M3.75 98.6q2-2.25 3.45-4.6 11.95 4.2 8.45 10.05-3.35 5.15-5.85 2.2 3.3-4.85-6.05-7.65" fill="#fefefe" fill-rule="evenodd" transform="translate(1 -50.1)"/><path d="M.05 104.6q.15-1.8 1.35-3.5l2.35-2.5q9.35 2.8 6.05 7.65 2.5 2.95 5.85-2.2Q19.15 98.2 7.2 94q1.7-2.85 2.65-5.8 7.1-1.25 8.75 7.15 1 10.9-3.15 13.5-7.4 4.05-9.95-2.95 1.45-.05 2.55-.7 1.15-.7 1.15-1.7t-1.15-1.7q-1.15-.7-2.75-.7t-2.75.7q-1.15.7-1.15 1.7t1.15 1.7q.85.5 1.9.65.15 1.25.65 2.3-4.25.65-5.05-3.55" fill="#fcc8b2" fill-rule="evenodd" transform="translate(1 -50.1)"/><path d="M5.5 105.9h-.2l-.85-.05q-1.05-.15-1.9-.65-1.15-.7-1.15-1.7t1.15-1.7q1.15-.7 2.75-.7t2.75.7q1.15.7 1.15 1.7t-1.15 1.7q-1.1.65-2.55.7m-1.05-.05q-.15-1.45.05-3.15-.2 1.7-.05 3.15" fill="#d4a794" fill-rule="evenodd" transform="translate(1 -50.1)"/><path d="m8.9 111.7-1.1-.55q-4.3.45-6.45-1.75-1.55-2.5-1.3-4.8.8 4.2 5.05 3.55-.5-1.05-.65-2.3l.85.05h.2q2.55 7 9.95 2.95 4.15-2.6 3.15-13.5-1.65-8.4-8.75-7.15.75-2.45.95-4.95l.85-2.6Q16.95 84 22.2 84.3l1.5.05 3.35-.45q2.15-.2 2.85 1.75.6 1.6.5 3.4-.15 2.4-1.7 5.25-.85 1.7.35 6 .9 5-1.1 9.95l-1.3-.05.8-3.4-4.8.35-4.75.3q-1.2 5.2-9 4.25m-1.1-.55q-1.9-1.1-2.7-3 .8 1.9 2.7 3" fill="#f98f5f" fill-rule="evenodd" transform="translate(1 -50.1)"/><path d="m20.85 112.9-9.55-.55-2.4-.65q7.8.95 9-4.25l4.75-.3-1.8 5.75" fill="#feb7b5" fill-rule="evenodd" transform="translate(1 -50.1)"/><path d="m26.8 112.6-.35.05-2.75.2-2.85.05 1.8-5.75 4.8-.35-.8 3.4 1.3.05-1.15 2.35" fill="#d59895" fill-rule="evenodd" transform="translate(1 -50.1)"/><path d="M42.45 108.15q-6.6 3.6-15.65 4.45l1.15-2.35q6.95.05 14.5-2.1" fill="#fdb6b2" fill-rule="evenodd" transform="translate(1 -50.1)"/><path d="M54.15 80.4 56 83.05q-3.05.35-5.45 1.05-4.45 1.35-6.6 4.05-.5 2.95-1.9 5-.85.9-1.85 1.35l-1.9.55 1.5.55-2.4 1.35q-6.75 1.95-7.45 4.7-1.05 6.15 3.8 6.25 10.75-.65 19.9-10.5-4.2 6.9-11.2 10.75-7.55 2.15-14.5 2.1 2-4.95 1.1-9.95-1.2-4.3-.35-6 1.55-2.85 1.7-5.25 4.3-3.15 12.4-4 6.55-.65 11.35-4.65" fill="#fd844f" fill-rule="evenodd" transform="translate(1 -50.1)"/><path d="M42.05 93.15q1.4-1.4 2.45-3.8l.15 2.8q-1.9 2.1-4.45 2.35 1-.45 1.85-1.35" fill="#fd54a7" fill-rule="evenodd" transform="translate(1 -50.1)"/><path d="M44.65 92.15q-.15 2.5-1.45 3.35l-3.4.1-1.5-.55 1.9-.55q2.55-.25 4.45-2.35" fill="#c0484a" fill-rule="evenodd" transform="translate(1 -50.1)"/><path d="M47.95 91.7q.8-2.5.4-5.3l.65-.65q2.25 3.3.7 7.55-1.9 1.75-1.75-1.6" fill="#f650a2" fill-rule="evenodd" transform="translate(1 -50.1)"/><path d="m49 85.75 1.55-1.65q1.5 4.8.75 8.4v.05q-1.3 2.15-3.35 4l1.75-3.25q1.55-4.25-.7-7.55" fill="#a82422" fill-rule="evenodd" transform="translate(1 -50.1)"/><path d="m37.2 102.4-2.85.35q11.35-4.3 13.6-11.05-.15 3.35 1.75 1.6l-1.75 3.25q-3.65 3.3-9.65 5.65l-1.1.2" fill="#d7605c" fill-rule="evenodd" transform="translate(1 -50.1)"/><path d="M38.3 102.2q6-2.35 9.65-5.65 2.05-1.85 3.35-4-1.6 7.4-13 9.65" fill="#fc54a2" fill-rule="evenodd" transform="translate(1 -50.1)"/><path d="M50.55 84.1q2.35-.1 2.8 4.15.2 11.3-15.05 13.95 11.4-2.25 13-9.65v-.05q.75-3.6-.75-8.4" fill="#ebb7a9" fill-rule="evenodd" transform="translate(1 -50.1)"/><path d="M56 83.05 53.65 97.4q-1.15-.75-9.65 5.2-8.15 5.1-11.7 1.7-2.3-3.05 1.85-4.3 4.8-.7 9.05-4.5 1.3-.85 1.45-3.35l-.15-2.8q-1.05 2.4-2.45 3.8 1.4-2.05 1.9-5 2.15-2.7 6.6-4.05 2.4-.7 5.45-1.05m-7 2.7-.65.65q.4 2.8-.4 5.3-2.25 6.75-13.6 11.05l2.85-.35 1.05-.2h.05q15.25-2.65 15.05-13.95-.45-4.25-2.8-4.15L49 85.75" fill="#fcfffd" fill-rule="evenodd" transform="translate(1 -50.1)"/><path d="M43.2 95.5q-4.25 3.8-9.05 4.5-4.15 1.25-1.85 4.3 3.55 3.4 11.7-1.7 8.5-5.95 9.65-5.2-9.15 9.85-19.9 10.5-4.85-.1-3.8-6.25.7-2.75 7.45-4.7l2.4-1.35 3.4-.1" fill="#fbccb2" fill-rule="evenodd" transform="translate(1 -50.1)"/><path d="m44.85 67.05 9.3 13.35q-4.8 4-11.35 4.65-8.1.85-12.4 4 .1-1.8-.5-3.4-.7-1.95-2.85-1.75l-3.35.45-1.5-.05q.25-2.85 1.05-5.35 9.35-7.4 21.6-11.9" fill="#d56e45" fill-rule="evenodd" transform="translate(1 -50.1)"/><path d="m36.2 65.95 8.65 1.1q-12.25 4.5-21.6 11.9 2.9-8.9 12.95-13" fill="#fdfef9" fill-rule="evenodd" transform="translate(1 -50.1)"/><path d="m29.05 66.3 7.15-.35q-10.05 4.1-12.95 13-.8 2.5-1.05 5.35-.7-4.2-.05-7.7 1.15-6.4 6.9-10.3" fill="#f9cbb3" fill-rule="evenodd" transform="translate(1 -50.1)"/><path d="M24 67.6q2.3-.9 5.05-1.3-5.75 3.9-6.9 10.3-.2-5.3 1.85-9" fill="#fb8351" fill-rule="evenodd" transform="translate(1 -50.1)"/><path d="M11.65 80.65Q15.3 70.9 24 67.6q-2.05 3.7-1.85 9-.65 3.5.05 7.7-5.25-.3-10.55-3.65" fill="#d16f42" fill-rule="evenodd" transform="translate(1 -50.1)"/><path d="m37.2 15.85 8.65 1.1m8.8 30.35q-4.2 6.9-11.2 10.75-6.6 3.6-15.65 4.45m-.35.05-2.75.2-2.85.05-9.55-.55-2.4-.65-1.1-.55q-4.3.45-6.45-1.75-1.55-2.5-1.3-4.8.15-1.8 1.35-3.5l2.35-2.5q2-2.25 3.45-4.6 1.7-2.85 2.65-5.8.75-2.45.95-4.95l.85-2.6Q16.3 20.8 25 17.5q2.3-.9 5.05-1.3l7.15-.35M5.45 55.75q.15 1.25.65 2.3.8 1.9 2.7 3M5.5 52.6q-.2 1.7-.05 3.15" fill="none" stroke="#673018" stroke-linecap="round" stroke-linejoin="round" stroke-width="2"/><path d="M47.95 91.7q.8-2.5.4-5.3l.65-.65 1.55-1.65q1.5 4.8.75 8.4m-9.25.65q1.4-1.4 2.45-3.8l.15 2.8q-.15 2.5-1.45 3.35l-3.4.1-1.5-.55 1.9-.55q1-.45 1.85-1.35m-4.85 9.25-2.85.35q11.35-4.3 13.6-11.05M37.2 102.4l1.1-.2q11.4-2.25 13-9.65" fill="none" stroke="#5b1313" stroke-linecap="round" stroke-linejoin="round" transform="translate(1 -50.1)"/><path d="m59.05 59.15-.6 3.35q-3.8 8.85-11.6 12.45l-.25-1.6-1.2-2.45Q58.6 63 54 58.7q2.1-3.2 3.2-7.6 1.3 4.3 1.85 8.05M41.2 75.05q-1.85.35-.3 1.75v.3q-6.1.45-11.45 2.45 1.95-3.95 4.65-6.05 4.35-1.45 8.9-2.05 1.3.65 1.5 2.5.05 1.25-1.2 1.85l-.05-.05q-.25-.6-1.45-.8l-.6.1" fill="#f8eb11" fill-rule="evenodd" transform="translate(1 -50.1)"/><path d="M54 58.7q4.6 4.3-8.6 12.2l1.2 2.45q-.55 2.85-3.65 4.15-1.3-.3-.25-.95 3.5-.8 2.35-3.75-1.5-3.35-5.95-2.45-3.3.6-5.85 2.55 1-1.6 3.3-2.3h-1q3.2-2.05 7.3-1.05Q45.4 68.5 47.1 67q2-1.8-.3-2.1 4.45-2.05 7.2-6.2" fill="#fef93b" fill-rule="evenodd" transform="translate(1 -50.1)"/><path d="m46.6 73.35.25 1.6q-.1 2.15-2.9 2.7l-1-.15q3.1-1.3 3.65-4.15m.2-8.45q2.3.3.3 2.1-1.7 1.5-4.25 2.55-4.1-1-7.3 1.05h1q-2.3.7-3.3 2.3-1.6 1.25-2.85 3 .6-2.15 2.9-4.4-3.35.95-5.4 2.95-3.05 3.35-3.5.75 6.7-6.75 17.5-8.75 2.65-.5 4.9-1.55m-3.55 10.85q-2.55-.2-2.05-.7l.6-.1q1.2.2 1.45.8" fill="#f0feed" fill-rule="evenodd" transform="translate(1 -50.1)"/><path d="m43.25 75.8-1.65.35q-.65 0-.7.65-1.55-1.4.3-1.75-.5.5 2.05.7v.05" fill="#fef840" fill-rule="evenodd" transform="translate(1 -50.1)"/><path d="M46.85 74.95q7.8-3.6 11.6-12.45-1.1 5.8-3.25 9.7-5.7 5.9-12.05 7.25Q32.85 81 28.7 86l-2.2 1.55q-2.3 2.35-1.7 7.35l1 6.25q.3 8.9-6.3 12.1-2.35-.55-1.85-2.25 1.05-1.45 1.55-2.9l1.95-.7q3.25-2.05 1.8-9.4-2.5-6.25-.1-10.2l-2-.8h.05q4.45.75 5.7-3.85l1.2-2.65q1.1-2.65 2.6-4.6 1.25-1.75 2.85-3 2.55-1.95 5.85-2.55 4.45-.9 5.95 2.45 1.15 2.95-2.35 3.75-1.05.65.25.95l1 .15q2.8-.55 2.9-2.7M40.9 76.8q.05-.65.7-.65l1.65-.35h.05q1.25-.6 1.2-1.85-.2-1.85-1.5-2.5-.85-.45-2.1-.4-3.85.05-6.8 2.45-2.7 2.1-4.65 6.05 5.35-2 11.45-2.45v-.3" fill="#e6c834" fill-rule="evenodd" transform="translate(1 -50.1)"/><path d="M55.2 72.2q-3.5 6.25-9.65 7.65Q34.8 82.05 28.7 86q4.15-5 14.45-6.55Q49.5 78.1 55.2 72.2" fill="#f7ea10" fill-rule="evenodd" transform="translate(1 -50.1)"/><path d="M26.3 107.8q.75-4.55.05-8.4-1.5-6.5.1-8.9 4.6-6.45 14.35-8.45l7.35-.25-3.75 1.4q-8.55.9-13.9 4.8-4.55 3.15-4.1 7.25 1.75 4.75.85 9.8l-.95 2.75m23.1-26.6q-.95-.85.1-1.7 4.85-1.85 9-9.15-2.05 7.1-9.1 10.85" fill="#dcbc35" fill-rule="evenodd" transform="translate(1 -50.1)"/><path d="m58.45 62.5.75-1.9q.55 5.5-.7 9.75-4.15 7.3-9 9.15-1.05.85-.1 1.7l-1.25.6-7.35.25q-9.75 2-14.35 8.45-1.6 2.4-.1 8.9.7 3.85-.05 8.4-2.25 5.3-6.4 5.5l-.4-.05q6.6-3.2 6.3-12.1l-1-6.25q-.6-5 1.7-7.35L28.7 86q6.1-3.95 16.85-6.15 6.15-1.4 9.65-7.65 2.15-3.9 3.25-9.7" fill="#bfa632" fill-rule="evenodd" transform="translate(1 -50.1)"/><path d="m14.1 91.3-.05-.55q0-2 .9-3.4l.2-.25 1.5.2-1.5-.2q.8-1.15 2-1.15 1.3 0 2.2 1.4.9 1.4.9 3.4t-.9 3.4l-1.25 1.2-.95.2q-.95 0-1.7-.75l-.5-.65q-.75-1.2-.85-2.85" fill="#cec40d" fill-rule="evenodd" transform="translate(1 -50.1)"/><path d="M21.3 86.1q4.05-1.75 6.05-8.05v.65q-.15 5.45-6.05 7.4" fill="#f5f57d" fill-rule="evenodd" transform="translate(1 -50.1)"/><path d="M24.4 75.2q.45 2.6 3.5-.75 2.05-2 5.4-2.95-2.3 2.25-2.9 4.4-1.5 1.95-2.6 4.6l-1.2 2.65Q24.55 86.3 20.9 87l.4-.9q5.9-1.95 6.05-7.4l2.2-3.8q-8.6 9.45-10.85 8.2l1.25-2.25q1.95-3.15 4.45-5.65" fill="#fef93d" fill-rule="evenodd" transform="translate(1 -50.1)"/><path d="M15.25 69.75q1.25-.6 2.7-.9-2 7.35.2 15.3l.55-1.05q2.25 1.25 10.85-8.2l-2.2 3.8v-.65q-2 6.3-6.05 8.05l-.4.9h-.05l2 .8q-2.4 3.95.1 10.2 1.45 7.35-1.8 9.4.65-7.8-3.05-12.05l1.25-1.2q.9-1.4.9-3.4t-.9-3.4q-.9-1.4-2.2-1.4-1.2 0-2 1.15l-1.35-.4q-.95-2.05-1.25-3.45-.3-1.4-.05-2.2l.65-1.1q3.4-5.9 2.1-10.2" fill="#f8ea0d" fill-rule="evenodd" transform="translate(1 -50.1)"/><path d="M17.95 68.85Q20 65.8 26 62.7l-1.6 3.15q-4.3.9-4.45 15L18.7 83.1l-.55 1.05q-2.2-7.95-.2-15.3" fill="#bca636" fill-rule="evenodd" transform="translate(1 -50.1)"/><path d="M24.4 65.85q-4.05 8.25-4.45 15 .15-14.1 4.45-15" fill="#e3c833" fill-rule="evenodd" transform="translate(1 -50.1)"/><path d="M7.05 84.8q.4-3.15 1.2-5.7.6 2.25 3.05-.1l-.45 2.2.1 2Q9 84.95 7.05 84.8m5.35-13q1.25-1.3 2.85-2.05 1.3 4.3-2.1 10.2.55-5.2-.75-8.15" fill="#fffa3e" fill-rule="evenodd" transform="translate(1 -50.1)"/><path d="M8.25 79.1q.95-3.1 2.45-5.3 1.15 1.5.6 5.2-2.45 2.35-3.05.1m3.3-6.45.85-.85q1.3 2.95.75 8.15l-.65 1.1q-.25.8.05 2.2-1.2-1.1-.15-4.15.65-3.8-.85-6.45" fill="#f1ffee" fill-rule="evenodd" transform="translate(1 -50.1)"/><path d="m10.7 73.8.85-1.15q1.5 2.65.85 6.45-1.05 3.05.15 4.15.3 1.4 1.25 3.45-2.4-1-2.85-3.5l-.1-2 .45-2.2q.55-3.7-.6-5.2" fill="#f8ed53" fill-rule="evenodd" transform="translate(1 -50.1)"/><path d="M10.95 83.2q.45 2.5 2.85 3.5l1.35.4-.2.25q-.9 1.4-.9 3.4l.05.55-5.55.55-2.05-.25q.1-3.7.55-6.8 1.95.15 3.9-1.6" fill="#f8eb10" fill-rule="evenodd" transform="translate(1 -50.1)"/><path d="m8.55 91.85-.4.95q-.2.9.45 2l-2.15.3.05-3.5 2.05.25" fill="#f0fdb8" fill-rule="evenodd" transform="translate(1 -50.1)"/><path d="M18.1 95.35q3.7 4.25 3.05 12.05l-1.95.7q1.45-4.25-1.55-8.45-3.55-5.1-9.05-4.85-.65-1.1-.45-2 4 .4 7.3 2 .75.75 1.7.75l.95-.2" fill="#fff83b" fill-rule="evenodd" transform="translate(1 -50.1)"/><path d="M14.1 91.3q.1 1.65.85 2.85l.5.65q-3.3-1.6-7.3-2l.4-.95 5.55-.55" fill="#f5eb0f" fill-rule="evenodd" transform="translate(1 -50.1)"/><path d="M20.9 87q3.65-.7 5.7-3.85-1.25 4.6-5.7 3.85" fill="#bda52b" fill-rule="evenodd" transform="translate(1 -50.1)"/><path d="M34.1 73.5q2.95-2.4 6.8-2.45 1.25-.05 2.1.4-4.55.6-8.9 2.05" fill="#fefb3e" fill-rule="evenodd" transform="translate(1 -50.1)"/><path d="m60.2 10.5-.15-1.45Q59.5 5.3 58.2 1 57.1 5.4 55 8.6q-2.75 4.15-7.2 6.2-2.25 1.05-4.9 1.55-10.8 2-17.5 8.75-2.5 2.5-4.45 5.65.4-6.75 4.45-15L27 12.6q-6 3.1-8.05 6.15-1.45.3-2.7.9-1.6.75-2.85 2.05l-.85.85-.85 1.15q-1.5 2.2-2.45 5.3-.8 2.55-1.2 5.7-.45 3.1-.55 6.8L7.45 45l2.15-.3q5.5-.25 9.05 4.85 3 4.2 1.55 8.45-.5 1.45-1.55 2.9-.5 1.7 1.85 2.25l.4.05q4.15-.2 6.4-5.5l.95-2.75q.9-5.05-.85-9.8-.45-4.1 4.1-7.25 5.35-3.9 13.9-4.8l3.75-1.4 1.25-.6q7.05-3.75 9.1-10.85 1.25-4.25.7-9.75" fill="none" stroke="#634314" stroke-linecap="round" stroke-linejoin="round" stroke-width="2"/><path d="m59.05 59.15-.6 3.35q-1.1 5.8-3.25 9.7-3.5 6.25-9.65 7.65Q34.8 82.05 28.7 86l-2.2 1.55q-2.3 2.35-1.7 7.35l1 6.25q.3 8.9-6.3 12.1M11.3 79l-.45 2.2.1 2q.45 2.5 2.85 3.5l1.35.4 1.5.2m2.05-4.2-.55 1.05q-2.2-7.95-.2-15.3m.75 14.25 1.25-2.25M10.7 73.8q1.15 1.5.6 5.2" fill="none" stroke="#634314" stroke-linecap="round" stroke-linejoin="round" transform="translate(1 -50.1)"/><path d="M19.1 90.8q-.05 1.75-1.3 2.95-1.25 1.3-3.05 1.3-1.8 0-3.1-1.3-1.25-1.25-1.25-3.05 0-1.8 1.25-3.1.55-.55 1.2-.85 2.4 3.85 6.25 4.05" fill="#fdf93e" fill-rule="evenodd" transform="translate(1 -50.1)"/><path d="m12.85 86.75 1.9-.4q1.8 0 3.05 1.25 1.3 1.3 1.3 3.1v.1q-3.85-.2-6.25-4.05" fill="#effde4" fill-rule="evenodd" transform="translate(1 -50.1)"/><path d="M19.1 90.8q-.05 1.75-1.3 2.95-1.25 1.3-3.05 1.3-1.8 0-3.1-1.3-1.25-1.25-1.25-3.05 0-1.8 1.25-3.1.55-.55 1.2-.85l1.9-.4q1.8 0 3.05 1.25 1.3 1.3 1.3 3.1v.1z" fill="none" stroke="#634314" stroke-linecap="round" stroke-linejoin="round" transform="translate(1 -50.1)"/><path d="m10.65 89-.3.1-.2.35.2.3.4.15.45.9q.55.6 1.3.65l.1.25.5.4.5.1.25-.55-.1-.6.2-.25.6-1.15.1-.1.2-.3-.2-.35-.1-.05-.6-1.15-.2-.2-.05-.05-.4-.65q-.35-.25-.85-.25l-.9.25q-.35.3-.35.7l.05.2h-.05q-.45.55-.55 1.3m2.3-2.85q1.55 0 2.65 1.1 1.15 1.15 1.15 2.7 0 1.55-1.15 2.65-1.1 1.15-2.65 1.15-1.55 0-2.7-1.15-1.1-1.1-1.1-2.65 0-1.55 1.1-2.7 1.15-1.1 2.7-1.1" fill="#eb625c" fill-rule="evenodd" transform="translate(1 -50.1)"/><path d="M10.65 89q.1-.75.55-1.3h.05l.3.45.9.3.85-.3q.4-.25.4-.65h.05l.2.2.6 1.15-.3-.05-.45.1-.15.35.15.3.45.15.3-.05-.6 1.15-.2.25-.5-.45q-.3-.15-.55 0l-.2.45v.4q-.75-.05-1.3-.65l-.45-.9h.05l.45-.15.2-.3-.2-.35-.45-.1h-.15m1.65.35q-.15.2-.15.45l.15.4q.2.2.45.2t.4-.2l.2-.4-.2-.45-.4-.15q-.25 0-.45.15" fill="#a11810" fill-rule="evenodd" transform="translate(1 -50.1)"/><path d="m11.25 87.7-.05-.2q0-.4.35-.7l.9-.25q.5 0 .85.25l.4.65v.05q0 .4-.4.65l-.85.3-.9-.3-.3-.45m1.05 1.65q.2-.15.45-.15l.4.15.2.45-.2.4q-.15.2-.4.2t-.45-.2l-.15-.4q0-.25.15-.45" fill="#fefefc" fill-rule="evenodd" transform="translate(1 -50.1)"/><path d="m10.75 89.9-.4-.15-.2-.3.2-.35.3-.1h.15l.45.1.2.35-.2.3-.45.15h-.05m3.8-1.05.1.05.2.35-.2.3-.1.1-.3.05-.45-.15-.15-.3.15-.35.45-.1.3.05m-.8 2.2.1.6-.25.55-.5-.1-.5-.4-.1-.25v-.4l.2-.45q.25-.15.55 0l.5.45" fill="#ffa6a5" fill-rule="evenodd" transform="translate(1 -50.1)"/><path d="M12.95 86.15q1.55 0 2.65 1.1 1.15 1.15 1.15 2.7 0 1.55-1.15 2.65-1.1 1.15-2.65 1.15-1.55 0-2.7-1.15-1.1-1.1-1.1-2.65 0-1.55 1.1-2.7 1.15-1.1 2.7-1.1z" fill="none" stroke="#450707" stroke-linecap="round" stroke-linejoin="round" transform="translate(1 -50.1)"/><path d="m61.55 72.4-.45-1.5q6.5 3.25 2.6 10.9l-2.4.45 1.95 2.5.9 1.15q3.15.2 3.65-4.05 1.8.75 3.05 2.95-3.1.25-4.6 4.6l-7.35-7.15q3.8-.55 4.6-4.95.15-3.6-1.95-4.9" fill="#fc8450" fill-rule="evenodd" transform="translate(1 -50.1)"/><path d="m65.6 81.5 2.2.35q-.5 4.25-3.65 4.05l-.9-1.15Q66 84.4 65.6 81.5m-6.7.75-1.35-1.9q5.2-2.85 4-7.95 2.1 1.3 1.95 4.9-.8 4.4-4.6 4.95" fill="#fbcbb5" fill-rule="evenodd" transform="translate(1 -50.1)"/><path d="m63.7 81.8 1.9-.3q.4 2.9-2.35 3.25l-1.95-2.5 2.4-.45" fill="#fefefe" fill-rule="evenodd" transform="translate(1 -50.1)"/><path d="m62.55 22.3-.45-1.5q6.5 3.25 2.6 10.9l1.9-.3 2.2.35q1.8.75 3.05 2.95-3.1.25-4.6 4.6m-8.7-9.05q5.2-2.85 4-7.95" fill="none" stroke="#673018" stroke-linecap="round" stroke-linejoin="round" stroke-width="2"/><path d="m1.2 100.7.75.6q.85.45 2.05.45l2.05-.45q.85-.4.85-1l-.2-.55.65.35q.8.55 1.05 1.25-2.45 2.5-6 2.2l-.35-.2q-1.1-.75-1.1-1.75 0-.5.25-.9" fill="#573943" fill-rule="evenodd" transform="translate(1 -50.1)"/><path d="m1.2 100.7.85-.75h.05q0 .3.55.55l1.3.25 1.3-.25.55-.6-.4-.55 1.3.4.2.55q0 .6-.85 1l-2.05.45q-1.2 0-2.05-.45l-.75-.6" fill="#93586e" fill-rule="evenodd" transform="translate(1 -50.1)"/><path d="m5.4 99.35.4.55-.55.6-1.3.25-1.3-.25q-.55-.25-.55-.55 1.1-.7 2.6-.65l.7.05" fill="#ecc6d3" fill-rule="evenodd" transform="translate(1 -50.1)"/><path d="M2.4 103.55q3.55.3 6-2.2l.05.5q0 1-1.1 1.65-1.1.65-2.65.6l-2.3-.55" fill="#e8c2cf" fill-rule="evenodd" transform="translate(1 -50.1)"/><path d="M3.1 49.85h-.05l-.85.75q-.25.4-.25.9 0 1 1.1 1.75l.35.2 2.3.55q1.55.05 2.65-.6 1.1-.65 1.1-1.65l-.05-.5q-.25-.7-1.05-1.25l-.65-.35-1.3-.4-.7-.05q-1.5-.05-2.6.65z" fill="none" stroke="#281c21" stroke-linecap="round" stroke-linejoin="round" stroke-width="2"/></g><g id="y" fill-rule="evenodd"><path d="M.55 13.85Q1.1 2.35 16.5 0q-1.5.55-3.05 4.65Q9.4 1.6.55 13.85" fill="#d3d4d8" transform="translate(-.55)"/><path d="M.55 13.85Q9.4 1.6 13.45 4.65l-.3.7q-1.55 5.45-3.75 8.5H.55" fill="#fcfefd" transform="translate(-.55)"/></g><g id="A"><path d="m5.05 11.35-1.3-1.15Q2.9 9.05 2.8 7.75q0-1.25.8-1.85.8-.6 1.95-.25 1.25.4 2.1 1.55l.85 1.75.05.6v.25L8 9.95q-.45.2-.45.5t.45.5l.25.1-.4.4q-.8.6-2.05.2l-.75-.3m3-3-.35-.1-.35.1-.15.3.15.25.35.15.35-.15.15-.25-.15-.3M6 8.15q0-.6-.45-1.05-.45-.45-1.05-.45-.6 0-1.05.45Q3 7.55 3 8.15q0 .6.45 1.05.45.45 1.05.45l1.05-.45L6 8.15" fill="#11719b" fill-rule="evenodd" transform="translate(.5 -3.5)"/><path d="M4.55 16.9Q3 16.45 1.8 15.15 0 13.25 0 10.55q0-2.7 1.8-4.65Q3.65 4 6.25 4t4.4 1.9l.55.6q-2.45.3-2.7 2.45L7.65 7.2q-.85-1.15-2.1-1.55Q4.4 5.3 3.6 5.9t-.8 1.85q.1 1.3.95 2.45l1.3 1.15q-2.95 1.15-.5 5.55" fill="#339bbe" fill-rule="evenodd" transform="translate(.5 -3.5)"/><path d="m8.05 8.35.15.3-.15.25-.35.15-.35-.15-.15-.25.15-.3.35-.1.35.1M6 8.15 5.55 9.2l-1.05.45q-.6 0-1.05-.45Q3 8.75 3 8.15q0-.6.45-1.05.45-.45 1.05-.45.6 0 1.05.45.45.45.45 1.05" fill="#fffdff" fill-rule="evenodd" transform="translate(.5 -3.5)"/><path d="m8.25 11.05-.25-.1q-.45-.2-.45-.5t.45-.5l.55-.15.65-.05 1.15.2.5.5-.5.5-1.15.2-.95-.1" fill="#cde9ff" fill-rule="evenodd" transform="translate(.5 -3.5)"/><path d="M11.2 6.5q1.3 1.75 1.3 4.05 0 2.7-1.85 4.6-1.8 1.95-4.4 1.95l-1.7-.2q-2.45-4.4.5-5.55l.75.3q1.25.4 2.05-.2l.4-.4.95.1 1.15-.2.5-.5-.5-.5-1.15-.2-.65.05v-.25l-.05-.6q.25-2.15 2.7-2.45" fill="#52cce1" fill-rule="evenodd" transform="translate(.5 -3.5)"/><path d="M4.55 16.9Q3 16.45 1.8 15.15 0 13.25 0 10.55q0-2.7 1.8-4.65Q3.65 4 6.25 4t4.4 1.9l.55.6q1.3 1.75 1.3 4.05 0 2.7-1.85 4.6-1.8 1.95-4.4 1.95l-1.7-.2z" fill="none" stroke="#0a3e54" stroke-linecap="round" stroke-linejoin="round" transform="translate(.5 -3.5)"/></g><path d="M150.2 38.4Q124.45 45 88 45q-36.5 0-62.3-6.6Q0 31.85 0 22.5q0-9.3 25.7-15.9Q51.5 0 88 0q36.45 0 62.2 6.6Q176 13.2 176 22.5q0 9.35-25.8 15.9" fill-opacity=".353" fill-rule="evenodd" id="d"/><path d="M.55 13.85H9.4q2.2-3.05 3.75-8.5l.3-.7Q15 .55 16.5 0 1.1 2.35.55 13.85z" fill="none" stroke="#673018" stroke-linecap="round" stroke-linejoin="round" transform="translate(-.05 .5)" id="B"/><path d="M50.9 68.75H0V0h50.9v68.75" fill-opacity="0" fill-rule="evenodd" id="C"/><use ffdec:characterId="26" height="68.75" width="50.9" xlink:href="#C" id="c"/></defs></svg>