<svg xmlns:ffdec="https://www.free-decompiler.com/flash" xmlns:xlink="http://www.w3.org/1999/xlink" ffdec:objectType="frame" height="90" width="90" xmlns="http://www.w3.org/2000/svg"><use ffdec:characterId="34" height="221" transform="matrix(.3389 0 0 .339 -3 8.39)" width="289.5" xlink:href="#a"/><defs><use ffdec:characterId="2" height="74" width="111.9" xlink:href="#b" id="n"/><use ffdec:characterId="4" height="103.3" width="186.6" xlink:href="#c" id="o"/><use ffdec:characterId="6" height="55.3" width="53.35" xlink:href="#d" id="p"/><use ffdec:characterId="13" height="20.7" width="15.25" xlink:href="#e" id="q"/><use ffdec:characterId="15" height="25" width="31.85" xlink:href="#f" id="r"/><use ffdec:characterId="17" height="26.15" width="17.65" xlink:href="#g" id="s"/><use ffdec:characterId="19" height="25.3" width="38.15" xlink:href="#h" id="t"/><use ffdec:characterId="21" height="82.4" width="66.5" xlink:href="#i" id="u"/><use ffdec:characterId="27" height="25" width="39.9" xlink:href="#j" id="v"/><use ffdec:characterId="29" height="35.25" width="36.3" xlink:href="#k" id="x"/><use ffdec:characterId="31" height="33.4" width="34.85" xlink:href="#l" id="y"/><g id="a" transform="translate(8.85 -24.75)"><use ffdec:characterId="1" height="7.9" transform="matrix(2.6661 0 0 5.023 36.785 200.676)" width="64.35" xlink:href="#m"/><use ffdec:characterId="3" height="74" transform="translate(44.8 50.4) scale(1.341)" width="111.9" xlink:href="#n"/><use ffdec:characterId="5" height="103.3" transform="translate(15.6 91.55) scale(1.341)" width="186.6" xlink:href="#o"/><use ffdec:characterId="12" height="65.05" transform="translate(81.25 148.75) scale(1.341)" width="89.85" xlink:href="#p"/><use ffdec:characterId="14" height="20.7" transform="translate(95.6 149.65) scale(1.341)" width="15.25" xlink:href="#q"/><use ffdec:characterId="16" height="25" transform="translate(64.1 124.25) scale(1.341)" width="31.85" xlink:href="#r"/><use ffdec:characterId="18" height="26.15" transform="translate(109.5 150.45) scale(1.341)" width="17.65" xlink:href="#s"/><use ffdec:characterId="20" height="25.3" transform="translate(91.2 128.3) scale(1.341)" width="38.15" xlink:href="#t"/><use ffdec:characterId="26" height="82.4" transform="translate(76.9 24.75) scale(1.341)" width="66.5" xlink:href="#u"/><use ffdec:characterId="28" height="25" transform="translate(121.65 118.68) scale(1.341)" width="39.9" xlink:href="#v"/><use ffdec:characterId="33" height="41.85" transform="translate(-8.79 26.75) scale(1.341)" width="197.7" xlink:href="#w"/></g><g id="b" fill-rule="evenodd"><path d="M103 38.25q4.5 5 4.5 10.55 0 1.1-.4 1.9 1.05-1.1 1.4-2.35.3-1.1.3-4 0-4.6-1.2-6.95l-3.05-4.25-.85-1.1-.25-.2q-.85-.7-1.9-1.25l-3.2-1.4-1.2-.55-.85-.35q-3.25-1.45-6.25-2.5-3.5-1.3-8-5.85Q80.1 18 78.8 16.1q3.2 3.35 6.95 4.95l11.1 4.6h-.05q5.3 2.15 7.85 4 6.25 4.45 6.25 14.45-.05 9.75-10.7 13.5l-1.25.4 1.7-1.75q3.65-4.25 3.65-9.1 0-4.8-1.3-8.9m4.1 12.45-.15.1v.1l.15-.2" fill="#92e7f4"/><path d="m103 38.25-.4-1.15q-1.85-5-5.45-8.45l1.2.55 3.2 1.4q1.05.55 1.9 1.25l.25.2.85 1.1 3.05 4.25q1.2 2.35 1.2 6.95 0 2.9-.3 4-.35 1.25-1.4 2.35.4-.8.4-1.9 0-5.55-4.5-10.55" fill="#5898f0"/><path d="M97.15 28.65q3.6 3.45 5.45 8.45l.4 1.15q1.3 4.1 1.3 8.9 0 4.85-3.65 9.1L98.95 58l-6.75 1.45-3.75.7q8.5-7 8.5-17.9 0-10.9-3.8-14.1L92.8 28q-.25 0-.35.2l-.15.35.2.35q3.45 3.05 3.45 13.35 0 11.7-10.35 18.75l2.15-4.9q2.9-7.85 2.9-12.85 0-3.05-1.2-7l-2.7-7.3q-1.4-3.35-4.1-5.95-1.8-1.75-3.7-2.7l-2.15-.8h-1.25q3.2 6 4.45 12.95.75 4.15.75 6.1v.2l-.1.85q-.6 5.4-1.45 8.25-1.7 5.4-5.7 8.55-3.1 2.4-10.1 5.45-7.65 3.3-11.1 3.3h-1l-.3-.3-.25-.2h-.3q-.2 0-.3.15l-.35.35q-2.35 2.2-11.2 5l-1 .3q-3.15-.55-7.05-3.05Q26 64.45 23.5 61q2.25-.7 4.7-2.45 3.15-2.2 3.8-3.7l-5.2 1.7L20.3 58q-5.15 0-8.55-2.1-3.8-2.35-3.8-6.5 0-2.45 1.3-5.35l.45-.9-.1 1.15q0 1 .25 1.85l-.05.9q0 3.35 2.45 4.9Q14 53 16.7 53q6.4 0 14.9-7 9.35-7.75 10.3-16.7l2.7-5.85q1.95-4.25 2.7-9.05l.1-.05.1-.4q-.3-3.25 5.55-10.9.55-.7 3.35-1.35 2.7-.7 4.55-.7Q65 1 68.1 3.35q2.25 1.65 5.2 5.6l5.15 6.75.35.4q1.3 1.9 3.25 3.85 4.5 4.55 8 5.85 3 1.05 6.25 2.5l.85.35M32 54.85l.1-.05H32v.05" fill="#1e48eb"/><path d="m78.8 16.1-.35-.4-5.15-6.75Q70.35 5 68.1 3.35 65 1 60.95 1q-1.85 0-4.55.7-2.8.65-3.35 1.35-5.85 7.65-5.55 10.9l-.1.4-.1.05q-.75 4.8-2.7 9.05l-2.7 5.85q-.95 8.95-10.3 16.7-8.5 7-14.9 7-2.7 0-4.45-1.05-2.45-1.55-2.45-4.9l.05-.9q.3-2.3 2.25-4.4 1.45-1.75 3.05-2.25l-.85-.3-2.6-.45q-4.3 0-7.35 2.65Q1 44.15 1 48.55q0 4.25 3.9 8.75 4 4.65 8.5 4.7l1.2-.1.35-.15.35.15.1.15.15.1.15.35-.15.4q-1.15 1.05-2.4 1.25l-2.7.1-3.25-.2-.05-.05-2.75-1.55q1.05 3.15 6.2 6.35l1.6.95Q18.35 73 25.95 73q3.35 0 11.65-2.55l1-.3q8.85-2.8 11.2-5l.35-.35q.1-.15.3-.15h.3l.25.2.3.3h1q3.45 0 11.1-3.3 7-3.05 10.1-5.45 4-3.15 5.7-8.55.85-2.85 1.45-8.25l.1-.85q.35 1.05.35 5.6 0 2.25-.7 4.95-.9 3.35-2.5 5.25L74 57.7l-3.2 2.1q-13.9 5.65-17.65 5.65l-1.45-.05 3.5 1.25q4.25 1.15 7.35 1.15h.6q11.9-.15 21.3-6l1.15-.8q10.35-7.05 10.35-18.75 0-10.3-3.45-13.35l-.2-.35.15-.35q.1-.2.35-.2l.35.15q3.8 3.2 3.8 14.1 0 10.9-8.5 17.9l3.75-.7L98.95 58l1.25-.4q10.65-3.75 10.7-13.5 0-10-6.25-14.45-2.55-1.85-7.85-4h.05l-11.1-4.6Q82 19.45 78.8 16.1m26.45 12.75q6.65 4.65 6.65 15.25.05 10.45-11.35 14.45l-4.05 1.1-3.15.65-1 .15q-4.2.65-4.65.95l-.4.1-.3-.2-2 1.35q-.35.15-.6.35-9.7 5.8-21.85 5.8l-1.7-.05-5.9-1.15q-3.3-.95-4.35-1.75-1.6 1.5-6.15 3.3l-3.9 1.4-1.65.55Q29.6 74 25.95 74l-4.1-.25q-3-.35-5.7-1.25-3.25-1.1-6.1-2.85-6.25-3.9-6.85-7.8l.05-.3.2-.2.25-.1h.4l.25.05q2.45 1.15 3.4 1.9l2.7.05 2.5-.1H13l.55-.15h-.15q-4.9.05-9.25-5.05Q0 53.1 0 48.55q0-4.9 3.7-7.9 3.3-2.9 8-2.9l2.95.5h-.05l2.75 1.05.25.25.05.35-.2.25-.35.1q-2.25-.2-4.25 2.15-2.05 2.2-2.05 4.65l.1 1q.3 2 1.9 3.05h-.05q1.55.9 3.95.9 6.1 0 14.25-6.75 9-7.5 9.95-16.1l.05-.2 2.75-5.9q1.9-4.2 2.6-8.85l.2-.3q-.25-3.6 5.75-11.45.6-.9 3.9-1.7Q59 0 60.95 0q4.35 0 7.75 2.55 2.35 1.75 5.4 5.8l2.4 3.25 2.7 3.45V15q3.2 3.55 6.95 5.15L97.2 24.7q5.4 2.25 8.05 4.15" fill="#253a85"/><path d="M80.75 38.65v-.1q0-1.95-.75-6.1-1.25-6.95-4.45-12.95h1.25l2.15.8 1.1 1.1 2 1.6 1.45 1.85 1 1.95 2.05 4.9q1.75 4.85 1.75 9.1 0 3.3-.7 6.15-.85 3.35-2.5 5.15l.2-1 .2-1.5-.25-2.35-.1-.95q-4 8.15-12.15 15.6-3.7 3.3-9.85 5.9h-.6q-3.1 0-7.35-1.15l-3.5-1.25 1.45.05q3.75 0 17.65-5.65l3.2-2.1 3.9-3.15q1.6-1.9 2.5-5.25.7-2.7.7-4.95 0-4.55-.35-5.6v-.1" fill="#5db1f1"/><path d="M78.95 20.3q1.9.95 3.7 2.7 2.7 2.6 4.1 5.95l2.7 7.3q1.2 3.95 1.2 7 0 5-2.9 12.85L85.6 61l-1.15.8q-9.4 5.85-21.3 6 6.15-2.6 9.85-5.9 8.15-7.45 12.15-15.6l.1.95.25 2.35-.2 1.5-.2 1q1.65-1.8 2.5-5.15.7-2.85.7-6.15 0-4.25-1.75-9.1l-2.05-4.9-1-1.95L82.05 23l-2-1.6-1.1-1.1" fill="#a2f2f7"/><path d="m9.7 43.15-.45.9q-1.3 2.9-1.3 5.35 0 4.15 3.8 6.5 3.4 2.1 8.55 2.1l6.5-1.45 5.2-1.7q-.65 1.5-3.8 3.7-2.45 1.75-4.7 2.45 2.5 3.45 7.05 6.4 3.9 2.5 7.05 3.05Q29.3 73 25.95 73q-7.6 0-13.75-3.25l-.35-.45q-1.55-2-2.6-2.9-.4-.35-.3-.6 1.95.75 6.6-1.05 4-1.55 6.6-3.45l.2-.05-.05-.1h-.1l-.55.2q-4.15 1.2-9.8-2.25-6.6-4.05-6.6-10.65 0-5 5.05-7.75h.35q-.3.3-.55.95l-.4 1.5" fill="#6bd8f2"/><path d="M9.85 46.15q-.25-.85-.25-1.85l.1-1.15.4-1.5q.25-.65.55-.95h-.35q-5.05 2.75-5.05 7.75 0 6.6 6.6 10.65 5.65 3.45 9.8 2.25l.5-.05q-2.6 1.9-6.6 3.45-4.65 1.8-6.6 1.05-.1.25.3.6 1.05.9 2.6 2.9l.35.45-1.6-.95q-5.15-3.2-6.2-6.35L7.15 64l.05.05 3.25.2 2.7-.1q1.25-.2 2.4-1.25l.15-.4-.15-.35-.15-.1-.1-.15-.35-.15-.35.15-1.2.1q-4.5-.05-8.5-4.7Q1 52.8 1 48.55q0-4.4 3.35-7.15 3.05-2.65 7.35-2.65l2.6.45.85.3q-1.6.5-3.05 2.25-1.95 2.1-2.25 4.4" fill="#eaf8fc"/></g><g id="c" fill-rule="evenodd"><path d="m173.1 19.4.8 2.4q1-3.15 3.65-8.65 2.05-4.3 4-7.4 1.35-2.2 2.7-3.85l-3.5 1.55q-9.75 4.2-18.1 6.7h.35l.15.05q3 .75 5.25 2.25l.1.1 1.65 1.4.15.2.9 1.05.15.25.35.5.5 1.05.15-.05.35.05.25.3-.05.35-.3.4.5 1.35m-19.6-3.75-.1-.2v-.35l.25-.25 2.15-1.15q1.85-1 2.1-.95 1.75-.05 3.55 1.45v-3.55l.05-.2-.2-.05-.2-.3q-.1-.2.05-.4l.25-.2q9.05-2.65 19.8-7.3l.35-.15 4.35-2h.35l.25.15.1.35-.15.3q-3.7 3.85-8 12.75-3.15 6.45-3.9 9.6l-.05.2-.05.25.05.05v.3l-.2.25v.05l-.15.35-.35.15-.35-.15-.15-.35v-.05l.05-.2-.95.1-2.85-.4-1-.2-.75-.2.2.75.35 2.35q.1.7-1.95 1.9l-.05-.05-.35-.2q-.2 0-.35.15l-.2.3v.3l-1.8.85-.05-.4-.3-.2-.4.05-.4.25.05-.1.25-1.75q0-2.25-1.45-4.55l-.35 1q-.5 1.15-.5 1.8 0 2.8 1.2 4.25l-.65.5-.1.2q-1.45-1.65-1.45-4.95 0-.75.55-2.15l.55-1.4.1-.25-.55-.65-.05-.05-.2-.2-1.35-1.45-.45-.4-1.7 1q-1.7.85-2.25.8-.95 0-2.05-.7l-.1-.1-.25-.15-.3-.25-1.5-1.65h.3l.7-.2h.05l.05-.05 1.05 1.15.5.4.35.2 1.2.35 1.8-.7 1.4-.75-1.3-1.05-1.65-1.25.7-.45.15-.15 1.6 1.2 1.6 1.35.9.8 1.45 1.55h.05l.05.1.75.95.15.2q1.7 2.45 1.95 4.8l-.05 1.95 1.75-.85.05-.05 1.85-1.25-.25-1.85-.6-1.7-.1-.35-.2-.35-.55-1.1-.9-1.4-.6-.95-.25-.35-1.35-1.75-.1-.1q-2.35-2.75-4.55-2.8-.15.05-1.6.85l-1.05.55-.35-.25-.35.1-.85.55-.2.1M17.25 88.6l.05 1.85-.1 1.5-.05.1q-.3.5-1 .5h-.1L9.2 91l-5.7-.4-.8.1h-.1l-1.75-.1-.35.15-.35-.15-.15-.35.15-.35.35-.2q6.1-4 7.55-5.5v.05q4.2-4.9 5.05-4.8.95-.05 1.7.85l-.05.65.1.3.1.15.25.3.35.05.1-.05.55 1.5 2.75-1q-1.35-2.75-2.7-3.8l.05-.2-.05-.35-.35-.25-.3.05.1-.2.3-.25.35.05 1.8-.35 2.75-.85.15-.05h.1l-.2.2-.05.4.2.3.4.05.4-.1h.05l.25-.05.55.65.55.8.9 1.6q.8-1 .8-1.5v-.1l.05-.6.1-1.3v-.1l.5-.25.25-.3-.05-.4-.05-.05.7-.2 1.5-.4.2-.05.4.1h-.2l-.35.15-.15.35.15.35.35.15.65-.1.05-.05.1.55v.05l.15 1.35v.45q0 .85-.6 2.6l-.2.45-.2.45q1.5.05 3.7 1.6 2 1.4 2.25 2.15l-.2.05h-.05l-.3.15-.3.25v.4L31 87.15l-.05-.35-.3-.25h-.35l-.35.15-.15.05q-.55-.7-1.85-1.05l-2.65-.25v.15l-.1 2.3-.3.1-.3.25-.15.3V89l-1.25.3-1.35.25v-.1l-.05-.1-.2-.2h-.4l-.5.05h-.05q-.4-.5-.45-1.55v-.05l-.05-1.05-2.85.8h-.35l-.25.3V88l.55.6M45 70.55l.05-.4q.1-.15.3-.2l2.45-.7.1-.05h.3l.3.1.15.2.05.2-.05.05-.4.05-.3.25-.1.35.25.35.35.05.5-.1.1-.05.25.4.7 1 .55.6.05.05 1.4.9h-.05l.4.15.1-.05.3-.05.25.05v-.65q0-.8-.4-1.75l-.05-.05-.05-.05-.7-1.3.6-.2.25-.3.8 1.4v.05q.55 1.2.55 2.2l-.1 1.1v-.05.1q-.25.5-1 .5h-.05l-.45.1-.85-.3-.3-.15-1.35-.95-.05-.05-.8-.9-.6-.9v.05l-.7-1.35-1.2.35v.1q.1.6.75 1.55l.7.95 1.1 1.1 1.2.9 1.4.65q.15 0 .25.15l.1.3v.15l-.15.35-.9 1.7q-.8 1.7-.8 2.75l2.05-.65q-.15-1.45.3-2.6.6-1.7 1.6-1.6 1.25-.1 1.8 2.9l1.95-.55q.2-.3.2-2.1l-.05-2.05q-.15-1.15-.7-2.55l-.5-1.05v-.05l-.55-.9-.3-.45q-.65-.75-1.05-.8l-1.5.25-.8.15-.05-.15-.3-.25h-.35l-.55.2h-.05v-.05l.1-.25q.05-.35 1.8-.65l1.7-.25q.8-.05 1.8 1.15l.5.65.35.6 1.1-.15q.55-.1.6-.55-.15-1.6.5-1.7l3.4-.25 4 .3q3.75.45 3.65 1.5v.2L68.8 75.1l-1.6 2.7v.05q-.75.85-2 .85-1.2 0-2.1-1.15l-.4-.7-1.8.75h-.15l-1.5.3h-.2l-.2 1.15-.05-.05-.35-.25-.35.1-.25.3.1.4.1.2-2.25.65-.15.05-1.2.4h.05l-1.4.5-.1.1-3.15.9h-.3l-.2-.15.2-.15.2-.3-.1-.4-.3-.2h-.15q.05-1.15.9-3.05l.75-1.5-1.6-.9-.8-.65-1.2-1.2-.95-1.3-.65-1.25.2-.25-.05-.35q-.1-.2-.3-.25h-.35l-.15.1m74.5-14.85.35 1.45q.1 1.1-8.85 2.55L100.95 61h-.15l-.5-.15-.25-.05-.2-.25-.05-.25.05-.2.75-1.75q1.1-2.2 3.75-6.35l4.9-7.6.05-.05v-.05l.35-.6q.1-.15.3-.2l.35.05.25.3-.05.35-.2.35 1.5 1.1V46l.15.35.35.15.35-.15.1-.1 1.35 1 .25-.25 3.15-1.7q-2.3-2.7-4.4-2.75v-.15l-.1-.4-.3-.2-.4.1-.2.3.05-.25.25-.25.15-.05 1.95-1.7q1.55-1.2 2-1.4l-.15.25.1.4.3.2.4-.05.35-.25.2-.15 2.25 1.65.4.3 1.55 1.3.25-.1.65-.3q.45-.55.45-1.85L123 39l-1.1-2.2.8-.35.15-.05.3.55.05.1.7 1.55.35 1.35q0 1.4-.4 2.2-.4.65-1 .85l1.1.95.5.45.8 1.05.75 1.4 1-.55h-.05q1.2-.65 1.55-.6 1.2-.05 2.4 1.35l1.5 1.8q2.4-1.3 2.5-1.65-.1-.9-2.8-2.85l-2.4-1.3-.35-.1q-1.15-.35-2 0H127l-.2-.15-.05-.1-.1-.35q.15-.9-.2-2.55l-.4-1.55-.35-.95-.05-.15q-.8-1.85-1.75-1.95-.25.05-.9.45l-.1-.1-.4-.1q-.3.05-1.05.45v-.3l.2-.3q1.1-.8 1.75-1l.15.25.35.15h.3l.25-.05.4-.2q.9.45 1.6 2.05l.55 1.45.3 1.25.45 2.6.7-.05.5.05q1.65.25 3.75 1.75 2.85 2.05 3.15 3.3l-.2.15-.2.25-.1.2-.1.35.15.3-2.25 1.5-.2-.2h-.4l-.4.15-.35.2-1.65-2.05q-.85-.95-1.65-1l-1.05.5q-.65.3-1 .55l.05.15-.05-.05q1.2 2.7 1.2 4.7l-.25.2q-.2.1-.25.3l.1.4.25.2q-.3.85-1.15 1.5l-.05.05q-1.15.65-1.95 1.15l-.05-.2-.05-.05-.15-.35q-.15-.15-.3-.15h-.05q-.2 0-.35.15v.05l-.15-.05-.05-.05-.25-.05q-.5-1.95-1.95-4.8-1.5.95-2.95 1.85l.75 1.5-.1-.05-.4.1-.2.35.1.35.8.55.5.2m27.95-36.5-.05-.9.1-.3.25-.15q2.05-.75 2.45-.8l.25.05-.45.15q-.2.05-.3.2l-.05.4.2.3h.1l-1.55.5q.15 1.5 1.35 2.9l.25.25.65.6q1.1.9 2.2 1.2l1.2.2.8-.1.1-.05.25.05.2.25.05.35-.25 1-.05.5q0 1.55 1.25 3.8 1.3 2.45 2.7 2.5l1.8-1.2.15.35.35.15.35-.15.55-.45v.3l-.2.25-3 1.75h-.45v-.05l-.1-.4-.3-.2-.4.1-.2.15q-1.1-.7-2.15-2.6-1.25-2.35-1.35-4v-.3l.1-1h-.5l-1.05-.15-.95-.4-.25-.1-1.5-1-.85-.8-.15-.15q-.85-.95-1.25-1.9l.2-.15v-.05l.35-.3.2-.3-.1-.4-.3-.2-.4.1-.25.2M163 11.15h-.55v3l.15.85-.05.2.4.4 4.2-2.75q-1.85-1.1-4.15-1.7m1.75 6.7.25.35.6.9.8 1.3q1.3-1 3.55-1.95l1.45-.7-.55-1.3-.3-.5-1.1-1.3-1.35-1.2q-.95.5-4.5 2.9l1.15 1.5m8.15 4-.55-1.55-.6-1.65-1.4.7q-1.55.7-2.65 1.4l-.2.15-.6.4.1.2 4.4 1.4 1.8.35.15.05-.4-1.3-.05-.15m-6.05-.4h-.1l.1.05v-.05m-43.25 23.5-.3-.25-3.6-3.05-.7-.55q-1.9-1.55-2.35-1.6l-1.55 1.25-1.1.9q3 .6 6.15 5.65l.1.15.5.8v.05l.65 1.15h.45l.3.3-.05.35-.2.25q1.45 2.9 2.05 4.95v.15l1.8-1.1q.9-.65.9-1.7 0-1.85-1.1-4.4l-.2-.5-.95-1.8-.8-1m-3.7 3.85v-.05l-.5-.8-.05-.1-1.25-1.8-.15.15-3.1 1.7 1.2 1.35.35.6v.05l.5.85.6 1 .05.1 3-1.85-.65-1.2M63.2 68.55l-2.95.15-.1.05.15.65v.55l.15-.05h.25l.3.1q2.45 1.6 2.45 4.2l-.25 1.85.75.95q.55.7 1.25.7.75 0 1.2-.5h.05l1.45-2.55 1.95-5.3-2.75-.5-3.9-.3m-4.35 2.5-.8.1.2.5.05.05.75 2.8.05 2.15v.2l1.5-.25 1.55-.6.05-.15.25-1.65q0-2-1.9-3.3h-.1l-.35-.15-.1-.2q-.4.35-1.1.5h-.05m-5.35 7.3q-.35.85-.25 1.9l.9-.35.85-.3q-.35-2.1-.85-2.2-.35.1-.65.95m62-28.05-.3-.55v.05q-.9-1.3-3.05-2.7l-2.4-1.7-4.55 7.15-3.1 5.15-.95 1.75-.2.55h.1l9.8-1.3 8-1.55-.35-1.2-1.4-2.8-.1-.25-.1-.1-.35-.65-.45-.85-.6-1m-93 28.55-.05-.1-.5-.7-.85-1-2.75.85h-.05l-.95.15q1.35 1.3 2.65 4.15l.1.15v.05l.5 1.2.05.15.05.05.1.3.25 1.05.25.05.3.25.05.35-.25.3-.25.1.05 1.4q.05.85.35.95l.4-.05 1.05-.2 1.15-.25.15-2.45v-.55l-.05-.9v-.4l-.1-.75v-.05l-.05-.2-.1-.5-.7-1.95-.75-1.35-.05-.1m-6.4 8.4-.25-1.4-.1-.5v-.05l-.25-1-.05-.05-.05-.35-.05-.1q-.95-3.25-2.25-3.35-.55.1-4.3 4.45-1.35 1.4-6.45 4.8h.25l.45-.05.35-.05h.05l2.5.1 3.4.3 5.6 1.25 1.3.3.05-1.1-.2-3.2M19.7 84l-.35-.85-2.9 1.05.2.8.15.5.15.9 3.15-.9-.25-1.1-.15-.4m8.65-6.45-.15-1.25-.05-.6-1.45.35-.55.2v.05l-.05 1.15-.1.85v.05q.05.9-1.3 2.45l-.1.05.25.75.25.9v.1l.15 1.15.05.75 2.9.25q1.8.5 2.5 1.45l2.4-1.05-1.6-1.3h-.05q-1.55-1.1-2.65-1.3l-.55-.1-.6.15-.35-.05-.25-.25v-.4l.05-.1.7-1.6.55-2.25v-.4" fill="#5c290f"/><path d="m180.75 3.45 3.5-1.55q-1.35 1.65-2.7 3.85-1.95 3.1-4 7.4-2.65 5.5-3.65 8.65l-.8-2.4.5-.9 1.5-2.55q1.6-2.4 2.05-3.6l2.25-5.3.7-1.9.65-1.7M167.1 24.6l.25 1.85-1.85 1.25-.05.05-1.75.85.05-1.95 1.7-1.1 1.65-.95m-48.6 31.35.35 1.2-8 1.55-9.8 1.3h-.1l.2-.55.05-.05 1.5-.9 1.75-1.05.5.1.45-.25.4-.15.4.1 2.55.2 5.1-.85 4.65-.65" fill="#a0eaf6"/><path d="m171.2 15.2-.9-1.05.15-.55 2.45-2.45 4.35-3.75 2.85-2.25-.7 1.9-4.35 4.15-3.85 4m-7.3 3.2.25.35.6.95-2.95 2.15-.15-.2-.75-.95-.05-.1.15-.1.35-.3 2.55-1.8m-4 2.7.2.2.05.05.55.65-.1.25-5.4 3.05.25-1-.05-.35 4.5-2.85m5.7-2-.6-.9-.25-.35 1.85-1.25 2.45-1.7.4-.25 1.1 1.3-2.85 1.8-2.1 1.35m-38.8 23.7.2.15h.35q.85-.35 2 0l-4.1 2.5-.8-1.05 2.35-1.6m-3.2 2.15.8 1-3.65 2.35v-.05l-.5-.8-.1-.15 3.2-2.2.25-.15m-4.2 3 .5.8v.05q-1.45.9-3 1.95l-.5-.85.55-.35 2.45-1.6M24.15 83l.1.75v.1l-2.45.75-.2-.95 2.55-.65m-18.2 6.7-2.5-.1H3.4l-.35.05q.8-.45 2.95-1.2l4.8-1.4 2.7-.85.65-.25.5.6.3 1.05-5.1 1.2-3.9.9M19.7 84l.15.4-3.05 1.1-.15-.5 3.05-1" fill="#9c4d26"/><path d="m170.15 13.95-1.65-1.4-.1-.1q-2.25-1.5-5.25-2.25l-.15-.05h-.35q8.35-2.5 18.1-6.7l-.65 1.7-2.85 2.25-4.35 3.75-2.45 2.45-.3.35m-14.9 1.2 1.05-.55q1.45-.8 1.6-.85 2.2.05 4.55 2.8l.1.1 1.35 1.75-2.55 1.8-.35.3-.2.1-1.45-1.55-.9-.8-1.6-1.35-1.6-1.2.05-.2-.05-.35m-5.3 3.05 1.5 1.65.3.25-.6.4-.4.3-1 .75q-1.2-1.4-1.35-2.9l1.55-.5v.05m8.6 1.45 1.35 1.45-4.5 2.85-.2-.25-.25-.05q-.5-.15-.9.15l-1.2-.2 1-.6 2.9-1.9 1.8-1.45m11.2-7.75 2.2-1.8 2-1.6h-.35l-3.85 1.2-1.95.7.55.45 1.4 1.05m-8.85 5q0-.5-.8-.8-.7-.3-1.4-.3-.9 0-1.25.65l.85.75 1.15 1.3.15-.1.8-.8.5-.7M123 35.65q.65-.4.9-.45.95.1 1.75 1.95l.05.15.35.95.4 1.55q.35 1.65.2 2.55l.1.35.05.1-2.35 1.6-.5-.45-1.1-.95q.6-.2 1-.85l.5.05q1.35 0 1.35-2.25 0-1.4-.55-2.2-.55-.8-1.4-.8l-.55.1-.05-.1-.3-.55.2-.15.05-.4-.1-.2m-2.85 11.65Q117 42.25 114 41.65l1.1-.9 1.55-1.25q.45.05 2.35 1.6l.7.55 3.6 3.05.3.25-.25.15-3.2 2.2m.35-2.35.4-.4q0-1.8-2.15-1.8-.45 0-.9.6l1.05 1.1.95 1.2.65-.7m-4.1 4.9-.35-.6-1.2-1.35 3.1-1.7.15-.15 1.25 1.8.05.1-2.45 1.6-.4.2-.15.1M52.65 69.2l.8-.15 1.5-.25q.4.05 1.05.8l.3.45-.7.25-.95.4.05 1.4q0 1.35-.65 1.95l-.1.1h-.05l.1-1.1q0-1-.55-2.2v-.05l-.8-1.4v-.2m-3.55 5.1L48 73.2l-.7-.95q-.65-.95-.75-1.55v-.1l1.2-.35.7 1.35v-.05l.6.9.8.9.05.05-.8.9m-.95-2.3.1-.15-.2.2.1-.05m-27.5 11.75-.05-.15-.5-1.2v-.05l-.1-.15q-1.3-2.85-2.65-4.15l.95-.15h.05l2.75-.85.85 1 .5.7.05.1-1.5.35q-1 .3-1.35.5.4.2.9 1.1.65 1.05.9 2.2l.15.65.2.95.15.6.2 1.9-.2 1.4-.4.05q-.3-.1-.35-.95l-.05-1.4.25-.1.25-.3-.05-.35-.3-.25-.25-.05-.25-1.05-.1-.3v-.05h-.05m4.2-2.15-.25-.75.1-.05q1.35-1.55 1.3-2.45v-.05l.1-.85.05-1.15v-.05l.55-.2 1.45-.35.05.6.15 1.25-.25-.05q-1.25 0-1.6 1.4-.45 1.55-1.65 2.7" fill="#f6f5c4"/><path d="m151.75 20.1.25.15.1.1q1.1.7 2.05.7.55.05 2.25-.8l1.7-1 .45.4-1.8 1.45-2.9 1.9-1 .6q-1.1-.3-2.2-1.2l-.65-.6.75-1 .4-.3.6-.4m18-8.2-1.4-1.05-.55-.45 1.95-.7 3.85-1.2h.35l-2 1.6-2.2 1.8m-8.85 5-.5.7-.8.8-.15.1-1.15-1.3-.85-.75q.35-.65 1.25-.65.7 0 1.4.3.8.3.8.8m-37.05 25.25q.4-.8.4-2.2l-.35-1.35-.7-1.55.55-.1q.85 0 1.4.8.55.8.55 2.2 0 2.25-1.35 2.25l-.5-.05m-3.35 2.8-.65.7-.95-1.2-1.05-1.1q.45-.6.9-.6 2.15 0 2.15 1.8l-.4.4m-64.2 25.1.55.9V71l.5 1.05q.55 1.4.7 2.55l.05 2.05q0 1.8-.2 2.1l-1.95.55q-.55-3-1.8-2.9-1-.1-1.6 1.6-.45 1.15-.3 2.6l-2.05.65q0-1.05.8-2.75l.9-1.7.15-.35v-.15l-.1-.3q-.1-.15-.25-.15l-1.4-.65-1.2-.9.8-.9 1.35.95.3.15.85.3.45-.1h.05q.75 0 1-.5l.05-.05.1-.1q.65-.6.65-1.95l-.05-1.4.95-.4.7-.25m2.55 1h.05q.7-.15 1.1-.5l.1.2.35.15h.1q1.9 1.3 1.9 3.3l-.25 1.65-.05.15-1.55.6-1.5.25v-.2l-.05-2.15-.75-2.8-.05-.05-.2-.5.8-.1M109.9 47.5l1.25 1.15 1.6 1.7-1.4 1.1q-1.45 1.2-2.45 1.65l-1.95.85q1-1.05 1.75-3.35t1.2-3.1M22.5 78.85l.05.1.75 1.35.7 1.95.1.5.05.2V83l-2.55.65-.15-.65q-.25-1.15-.9-2.2-.5-.9-.9-1.1.35-.2 1.35-.5l1.5-.35M16.65 85l-.2-.8 2.9-1.05.35.85-3.05 1m-2.7-.5-2.15.4-1.35.35 2.6-2.6q.35.15.9 1.75v.1m14.4-6.95v.4l-.55 2.25-.7 1.6-.75.2-1.25.5-.25-.9q1.2-1.15 1.65-2.7.35-1.4 1.6-1.4l.25.05" fill="#eace37"/><path d="m173.1 19.4-.5-1.35.3-.4.05-.35-.25-.3-.35-.05-.15.05-.5-1.05-.35-.5-.15-.25 3.85-4 4.35-4.15-2.25 5.3q-.45 1.2-2.05 3.6l-1.5 2.55-.5.9m-8.35.3.9 1.4.55 1.1.2.35.1.35.6 1.7-1.65.95-1.7 1.1q-.25-2.35-1.95-4.8l2.95-2.15m-4.15 2.55-.55 1.4q-.55 1.4-.55 2.15 0 3.3 1.45 4.95l-.05.15-1.8 1.2q-1.4-.05-2.7-2.5-1.25-2.25-1.25-3.8l.05-.5 5.4-3.05m2.4-11.1q2.3.6 4.15 1.7l-4.2 2.75-.4-.4.05-.2-.15-.85v-3h.55m7.55 4.8.3.5.55 1.3-1.45.7q-2.25.95-3.55 1.95l-.8-1.3 2.1-1.35 2.85-1.8m-2.85 4.8q1.1-.7 2.65-1.4l1.4-.7.6 1.65.55 1.55-5.2-1.1m-38.35 22.2.35.1 2.4 1.3q2.7 1.95 2.8 2.85-.1.35-2.5 1.65l-1.5-1.8q-1.2-1.4-2.4-1.35-.35-.05-1.55.6h.05l-1 .55-.75-1.4 4.1-2.5m-4.95 3 .95 1.8.2.5q1.1 2.55 1.1 4.4 0 1.05-.9 1.7l-1.8 1.1v-.15q-.6-2.05-2.05-4.95l.2-.25.05-.35-.3-.3h-.45l-.65-1.15 3.65-2.35m-4.5 2.85.65 1.2-3 1.85-.05-.1-.6-1q1.55-1.05 3-1.95M63.2 68.55l3.9.3 2.75.5-1.95 5.3-1.45 2.55h-.05q-.45.5-1.2.5-.7 0-1.25-.7l-.75-.95.25-1.85q0-2.6-2.45-4.2l-.3-.1h-.25l-.15.05v-.55l-.15-.65.1-.05 2.95-.15m53.35-16.4.35.65.1.1.1.25 1.4 2.8-4.65.65-5.1.85-2.55-.2-.4-.1 3.55-1.7 7.2-3.3m-92.3 31.7v.3l.05.9v.55l-.15 2.45-1.15.25-1.05.2.2-1.4-.2-1.9-.15-.6 2.45-.75m-9.3 7.4L9.35 90l-3.4-.3 3.9-.9 5.1-1.2.1 1.35-.1 2.3m4.9-6.85.25 1.1-3.15.9-.15-.9 3.05-1.1m8.95-1.85q1.1.2 2.65 1.3h.05l1.6 1.3-2.4 1.05q-.7-.95-2.5-1.45l-2.9-.25-.05-.75 1.4-.5 2.15-.7" fill="#d67533"/><path d="m164.75 17.85-1.15-1.5q3.55-2.4 4.5-2.9l1.35 1.2-.4.25-2.45 1.7-1.85 1.25" fill="#ecd246"/><path d="m172.9 21.85.05.15.4 1.3-.15-.05-1.8-.35-4.4-1.4-.1-.2.6-.4.2-.15 5.2 1.1" fill="#9fe7f2"/><path d="M161.7 30.05q-1.2-1.45-1.2-4.25 0-.65.5-1.8l.35-1q1.45 2.3 1.45 4.55l-.25 1.75-.05.15-.8.55v.05m-9-5.4 1.05.15h.5l-.1 1v.3q.1 1.65 1.35 4 1.05 1.9 2.15 2.6l-1.25.9-1.45 1.05-6.55 4.7h-.05q-2.45 1.75-6.85 4.15v.05q-3.9 2.15-5.65 3.3-.3-1.25-3.15-3.3-2.1-1.5-3.75-1.75l-.5-.05-.7.05-.45-2.6 7.75-4.7 9.65-5.4 5.9-3.2 2.1-1.25M29.8 86.75l-1.7.4-2.05.5-.85.25.1-2.3v-.15l2.65.25q1.3.35 1.85 1.05m-9.15 2.45-1.35-.5h.05q-1.55-.75-1.75-1.1l-.25-.25h-.05l2.85-.8.05 1.05v.05q.05 1.05.45 1.55M131.8 49.75q-.75.35-1.85 1.15l-2.3 1.65q0-2-1.2-4.7l.05.05-.05-.15q.35-.25 1-.55l1.05-.5q.8.05 1.65 1l1.65 2.05m-8.85 5.9-1.7-.4-1.85-.65-.4-.25-.2-.15-.75-1.5q1.45-.9 2.95-1.85 1.45 2.85 1.95 4.8m-10.2-9.4.05-.25v-1.8l.3-1.65q2.1.05 4.4 2.75l-3.15 1.7-.25.25-1.35-1M49.25 75.7l1.6.9-.75 1.5q-.85 1.9-.9 3.05l-.25.1q-.95.65-6.1 1.9L34.3 85.2q-.25-.75-2.25-2.15-2.2-1.55-3.7-1.6l.2-.45q2.8-1 12.05-2.8l3.35-1 3.55-1.05 1.75-.45m-33 2.7q1.35 1.05 2.7 3.8l-2.75 1-.55-1.5.2-.2.05-.4-.15-.3.1-.65.4-1.75" fill="#423292"/><path d="m153.5 15.65.2-.1.85-.55.35-.1.35.25.05.35-.05.2-.15.15-.7.45q-.1 0-.15.1h-.05l-3.15 1.55-.05.05h-.05l-.7.2h-.3v-.05h-.1l-.2-.3.05-.4q.1-.15.3-.2l.45-.15.2-.05h.05-.05l2.85-1.4m7.45 15.1.1-.2.65-.5V30l.8-.55v-.05l.4-.25.4-.05.3.2.05.4-.25.3-.3.2-.05.1-.7.5h-.05l-.55.45-.35.15-.35-.15-.15-.35.05-.15m4.5-1.9v-.3l.2-.3q.15-.15.35-.15l.35.2.05.05.05.3q-2.8 29.1-31.15 49.95l-.05.05q-45.35 26-78.15 24.55h-.2l-.3-.05q-8.5-.45-16.15-2.75l-4-1.35q-8.15-3.1-15.25-8.4l-.2-.3v-.15h-.3q-.45 0-1.8-.6l-1.65-1-.55-.6v-.35l.25-.3h.4l.25.25q.2.35 1.75 1.1h-.05l1.35.5h.05l.5-.05h.4l.2.2.05.1v.25l-.05.15q5.5 4.05 11.6 6.8 7.4 3.35 15.8 4.7-3.85-1.2-7.75-3-6.4-2.9-9.9-6.2-2-1.9-3.1-3.9l-.05-.2-.05.05-2 .5-.95.25-.05.15-.3.25-.35-.05-.25-.2v-.45l.15-.3.3-.25.3-.1.85-.25 2.05-.5 1.7-.4.15-.05.35-.15h.35l.3.25.05.35-.25.3-.55.2-.8.2q1.7 3.05 5.75 5.9 2.8 1.9 6.7 3.7 5.5 2.55 10.95 3.9l3.75.8q29.8 1.6 70.3-20v-.05l.25-.3 1-.85h.05q2.85-2.6 8.35-9.25l7.25-9.1q4.4-5.55 7.15-12.95 1.95-5.45 3.55-13.4l-5.5 3.9L142 44.4q-4 2.2-5.7 3.35l-.1.25-.35.2-.35-.05-.1-.05-.15-.3.1-.35.1-.2.2-.25.2-.15q1.75-1.15 5.65-3.3v-.05q4.4-2.4 6.85-4.15h.05l6.55-4.7 1.45-1.05 1.25-.9.2-.15.4-.1.3.2.1.4v.05l-.2.25-1.9 1.4-.85.6-.15.55v.05-.05q-1.65 8.4-3.7 14.1-2.8 7.55-7.3 13.2l-4.7 5.95q-6.2 7.7-9.7 11.25l4.55-2.6 9.05-7.45 1.8-1.75q17.6-17.4 19.9-39.75M14.8 80.3l.1-.4.4-1.9.25-.3.05-.05.3-.05.35.25.05.35-.05.2-.4 1.75-.1.65.15.3-.05.4-.2.2-.1.05-.35-.05-.25-.3-.1-.15-.1-.3.05-.65m6.35-4.3h.1l.45-.15v.05l2.75-.55h.05l.65-.2.4-.05.25.15.05.05.05.4-.25.3-.5.25-.6.1h-.05l-2.3.45-.25.05h-.05l-.4.1-.4-.05-.2-.3.05-.4.2-.2m7.45-1.3.2-.05 10.05-2.4 6.15-1.7.15-.1h.35q.2.05.3.25l.05.35-.2.25-.05.05q-1.25.6-6.5 1.85l-10 2.35-.05.05-.65.1-.35-.15-.15-.35.15-.35.35-.15h.2m20.1-5 2.65-.7h.05l.55-.2h.35l.3.25.05.15v.2l-.25.3-.6.2-.1.05-2.65.7-.1.05-.5.1-.35-.05-.25-.35.1-.35.3-.25.4-.05.05-.05m10.15 9.35.05.15.1-.05.35.1.2.35q.25 1.7.95 3.2 3.2 7.2 15.65 8.15h.05q9 1.4 18.05-1.6h.1q4.45-1.55 8.85-4.1l.05-.05q13.25-6 19.3-28.6l-1.6-.4h.05l-1.5-.5-.5-.2-.8-.55-.1-.35.2-.35.4-.1.1.05.2.15.4.25 1.85.65 1.7.4.25.05.05.05.15.05v-.05q.15-.15.35-.15h.05q.15 0 .3.15l.15.35.05.05.05.2v.05l-.1.3-.2.2h-.3l-.1-.05-.15-.05v.05q-6.2 23.1-19.8 29.25h-.05l-3.9 2.1q4.5-1.35 8.7-3.95l2.55-1.7 3.9-2.75.3-.25 2.55-2.25 4.45-5.2q1.7-2.35 2.3-4.05.1-.5 1.35-3.5v.05l1.1-3.55.5-5 .2-2.4h-.15l-.25-.2-.1-.4q.05-.2.25-.3l.25-.2 2.3-1.65q1.1-.8 1.85-1.15l.35-.2.4-.15h.4l.2.2.05.1-.05.4-.3.25-.25.1h-.05q-.7.35-2 1.25l-2 1.45.1.25-.2 2.8-.5 4.95v.05l-1.15 3.75-1.35 3.4q-.65 1.8-2.45 4.35l-4.55 5.3q-2.5 2.55-8.35 6.35l-1.1.75q-6.8 4.25-14.4 5.2-9.3 3.1-18.55 1.65-13.1-1-16.5-8.65-.65-1.5-.95-3.25h-.15l-.3-.2-.1-.1-.1-.2-.1-.4.25-.3.35-.1.35.25.05.05m52.95-33.4v-1.6l.3-1.8v-.05l.2-.3.4-.1.3.2.1.4v.15l-.3 1.65V46l-.05.25-.1.1-.35.15-.35-.15-.15-.35v-.35m4.7-7.1.1-.05.3-.25h.05q.95-.65 2.95-1.6l1.55-.75q.75-.4 1.05-.45l.4.1.1.1.1.2-.05.4-.2.15-.15.05-.8.35h-.05l-1.5.75q-1.7.8-2.65 1.4l-.2.15-.35.25-.4.05-.3-.2-.1-.4.15-.25m6.9-4.25v-.1q0-.2.15-.35.15-.15.35-.15h.2l5.7-3.1 8.65-5 8.85-6.25-.05.05.05-.05.15-.15.25-.2.4-.1.3.2.1.4-.2.3-.35.3v.05l-.2.15q-2.8 2.25-8.75 6.15l-8.7 5.05q-4.05 2.2-5.45 2.95l-.4.2-.25.05h-.3l-.35-.15-.15-.25m20.1 13.15.3.25.05.35-.35.7v.05l-.1.7v.75l.15 2.85-.3 2.5q-.5 1.6-1.35 1.5-1.15.1-2.35-2l-.6-.95v1.75l.65 2.5v-.05l.45 2.1q.1 2.3-4.45 2.75l-.35-.1-.2-.35.15-.35q.1-.2.3-.2 3.45-.35 3.55-1.75l-.4-1.8-.7-2.55v-2.95l.15-.35q.15-.15.35-.15l.2-.05q.45-.1 1.75 2 .85 1.45 1.5 1.5l.4-.8v.05l.25-2.25-.15-2.65v-.95l.2-1.2.05-.05.25-.5.25-.3h.35m-14.9 17.5.2-.3.4-.05.3.2q.8 1.3 3.3 2.85l3.15 2.15.05.35-.15.25-.25.15-7.8.75q-1.15.05-1.25.65.1 1.05 2.15 1.25.15 0 .3.15l.15.3-.05.35-.3.2-2 1.25-1.9 1.55-.35.15-.35-.15-.15-.35.15-.35 2-1.65 1-.7q-1.7-.55-1.65-2-.1-1.5 2.15-1.65l6.6-.6-2-1.2q-2.8-1.7-3.65-3.2l-.05-.35m-79.4 16.2h.15l.3.2.1.4-.2.3-.2.15q-1.2.7-6.25 1.9l-8.75 2.1-.3.15-.35-.05-.25-.25v-.4l.3-.25.3-.15h.05l.2-.05 8.55-2.05q5.15-1.25 6.1-1.9l.25-.1m8.4 13.6-.95.6h-.05l-1.2.8-.3.05q-.35.05-2.45-1.25-1.75-1.15-2.15-1.2-.4.05-2.05 1.1l-2.25 1.2q-.4.1-1.3-1.2l-3.35-4.35-.1-.3.05-.1.1-.25q.05-.15.25-.2l4.85-.25 1.1.05.25-2.2v-.15l-3.25-.35-.35-.15-.1-.4.2-.35.35-.1 3.7.4q.2.05.35.2l.1.3v.8l-.25 2.2v.2q-.1.55-2.1.55l-3.9.1 2.9 3.75v.05l.5.75L47.9 94q2-1.3 2.6-1.25.6-.05 2.7 1.35l1.8 1.05 1.1-.65 1-.6q.65-.4 1-.35l.95.15 1.35.1q1.4 0 1.65.35l.15.35-.15.35-.35.15-.35-.15-.95-.05-1.5-.1h-.05l-.75-.15-.5.2m14.15-.2.2.35-.1.35-1.35 1.7q-.8.85-1.3.8-.6.15-1.45-1.6v-.05L67.3 95q-.3.05-1.05.6-.8.55-.9 1.05l-.15.35-.35.1q-.25 0-.35-.15l-.15-.35q0-.9 1.3-1.85h.05q1.1-.8 1.6-.75.5-.15 1.35 1.7l.55 1.05.55-.45 1.3-1.65q.15-.15.35-.2l.35.1" fill="#272860"/><path d="m156.05 17.55 1.3 1.05-1.4.75-1.8.7-1.2-.35.8-.55.3-.25 2-1.35m7.6 12.15 1.8-.85q-2.3 22.35-19.9 39.75 1.5-2.25 3.25-5.95l3.9-8.7q1.55-3.25 2.45-7.95l1.1-4.95q.4-1.9.4-4.6l-.1-1.7 1.9-1.4.2-.25h.45l3-1.75.2-.25v-.3h.05l.7-.5.05-.1.3-.2.25-.3m-14.5-7.35.85.8 1.5 1 .25.1.95.4-2.1 1.25-5.9 3.2-9.65 5.4-7.75 4.7-.3-1.25-.55-1.45q1.75-1.25 6.2-4l8.9-5.35 7.6-4.8M123 39l.25.95q0 1.3-.45 1.85l-.65.3-.25.1-1.55-1.3-.4-.3q.7-.45 1.75-.95L123 39M24.45 89l.25.2.35.05.3-.25.05-.15.95-.25 1 1.65q1.5 2.25 3.55 4.15l2.5 2.25q-6.1-2.75-11.6-6.8l.05-.15v-.15l1.35-.25 1.25-.3M127.5 53.65h.15l-.2 2.4-.5 5-1.1 3.55v-.05q-1.25 3-1.35 3.5-.6 1.7-2.3 4.05l-4.45 5.2-2.55 2.25q2.9-3.2 5.25-8.1 2.5-6.65 2.5-7.8l.15-1.05q-.2-.2-.1-.65l.2-.55v-.85l.3-1.05q0-1.35.15-2.65l.1.05h.3l.2-.2.1-.3v-.05q.8-.5 1.95-1.15l.05-.05q.85-.65 1.15-1.5m-75 17.55.05.05.05.05q.4.95.4 1.75v.65l-.25-.05-.3.05-.1.05-.4-.15H52l-1.4-.9-.05-.05-.55-.6 2.5-.85m-6.2 1.35.95 1.3 1.2 1.2.8.65-1.75.45-3.55 1.05-3.35 1Q31.35 80 28.55 81l.2-.45q.6-1.75.6-2.6v-.45q.6-.3 1.65-.65l2.85-.75 2.55-.75 3.6-1.3q2.1-.8 5.1-1.15l1.2-.35" fill="#4450ba"/><path d="m154.4 16.3 1.65 1.25-2 1.35-.3.25-.8.55-.35-.2-.5-.4-1.05-1.15 3.15-1.55h.05q.05-.1.15-.1m-29.55 18.15q1.4-.75 5.45-2.95l8.7-5.05q5.95-3.9 8.75-6.15.4.95 1.25 1.9l.15.15-7.6 4.8-8.9 5.35q-4.45 2.75-6.2 4-.7-1.6-1.6-2.05m-2.95 2.35L123 39l-1.3.65q-1.05.5-1.75.95l-2.25-1.65q.95-.6 2.65-1.4l1.5-.75h.05M26.35 88.6l2-.5.05-.05.05.2q1.1 2 3.1 3.9 3.5 3.3 9.9 6.2 3.9 1.8 7.75 3-8.4-1.35-15.8-4.7l-2.5-2.25q-2.05-1.9-3.55-4.15l-1-1.65M51.8 69.9l.7 1.3-2.5.85-.7-1-.25-.4 2.65-.7.1-.05m-22.7 5.65 10-2.35q5.25-1.25 6.5-1.85l.05-.05.65 1.25-1.2.35q-3 .35-5.1 1.15l-3.6 1.3-2.55.75-2.85.75q-1.05.35-1.65.65l-.15-1.35v-.05l-.1-.55" fill="#8481e5"/><path d="m135.4 48.1.1.05.35.05.35-.2.1-.25q1.7-1.15 5.7-3.35l6.95-4.25 5.5-3.9q-1.6 7.95-3.55 13.4-2.75 7.4-7.15 12.95l-7.25 9.1-9.2 6.75q-10.5 7.35-19.85 10.05v-.15q.65-.25 1.9-2.65l.75-1.35q5.85-3.8 8.35-6.35l4.55-5.3q1.8-2.55 2.45-4.35l1.35-3.4 1.15-3.75v-.05l.5-4.95.2-2.8-.1-.25 2-1.45q1.3-.9 2-1.25h.05l.25-.1.3-.25.05-.4-.05-.1 2.25-1.5M35.15 93.75q-4.05-2.85-5.75-5.9l.8-.2.55-.2.25-.3 2.45-1.1.25.25.35.05.3-.15 8.75-2.1q5.05-1.2 6.25-1.9l.2.15h.3l3.15-.9.1-.1 1.4-.5h-.05l1.2-.4.15-.05 2.25-.65.1.1.3.2h.15q.3 1.75.95 3.25l-.55.35q-1.9 1.15-2.8 2.3l-.2.3-.2.3h.1q-.15.75-.15 1.8 0 3.05 1.35 5.55l-1 .6-1.1.65-1.8-1.05q-2.1-1.4-2.7-1.35-.6-.05-2.6 1.25l-1.7 1.05-.5-.75v-.05l-2.9-3.75 3.9-.1q2 0 2.1-.55v-.2l.25-2.2v-.8l-.1-.3q-.15-.15-.35-.2l-3.7-.4-.35.1-.2.35.1.4.35.15 3.25.35v.15l-.25 2.2-1.1-.05-4.85.25q-.2.05-.25.2l-.1.25-.05.1.1.3 3.35 4.35q.9 1.3 1.3 1.2l2.25-1.2q1.65-1.05 2.05-1.1.4.05 2.15 1.2 2.1 1.3 2.45 1.25l.3-.05 1.2-.8h.05l.95-.6.8 1.05q1.05 1.25 3.7 3.1l-4.75.1q-3.85 0-12.2-2.05-6.25-1.55-10-3.2m108.35-46.3h-.35l-.25.3-.25.5-.05.05-.2 1.2v.95l.15 2.65-.25 2.25v-.05l-.4.8q-.65-.05-1.5-1.5-1.3-2.1-1.75-2l-.2.05q-.2 0-.35.15l-.15.35v2.95l.7 2.55.4 1.8q-.1 1.4-3.55 1.75-.2 0-.3.2l-.15.35.2.35.35.1q4.55-.45 4.45-2.75l-.45-2.1v.05l-.65-2.5v-1.75l.6.95q1.2 2.1 2.35 2 .85.1 1.35-1.5l.3-2.5-.15-2.85v-.75l.1-.7v-.05l.35-.7-.05-.35-.3-.25m-14.9 17.5.05.35q.85 1.5 3.65 3.2l2 1.2-6.6.6q-2.25.15-2.15 1.65-.05 1.45 1.65 2l-1 .7-2 1.65-.15.35.15.35.35.15.35-.15 1.9-1.55 2-1.25.3-.2.05-.35-.15-.3q-.15-.15-.3-.15-2.05-.2-2.15-1.25.1-.6 1.25-.65l7.8-.75.25-.15.15-.25-.05-.35-3.15-2.15q-2.5-1.55-3.3-2.85l-.3-.2-.4.05-.2.3" fill="#d0edfa"/><path d="m156.55 34.75.1 1.7q0 2.7-.4 4.6l-1.1 4.95q-.9 4.7-2.45 7.95l-3.9 8.7q-1.75 3.7-3.25 5.95l-1.8 1.75-9.05 7.45-4.55 2.6q3.5-3.55 9.7-11.25l4.7-5.95q4.5-5.65 7.3-13.2 2.05-5.7 3.7-14.1l.15-.55.85-.6m-41.35 44.8-.3.25-3.9 2.75-2.55 1.7q-4.2 2.6-8.7 3.95l3.9-2.1h.05q13.6-6.15 19.8-29.25v-.05l.15.05q-.15 1.3-.15 2.65l-.3 1.05v.85l-.2.55q-.1.45.1.65l-.15 1.05q0 1.15-2.5 7.8-2.35 4.9-5.25 8.1" fill="#8683e5"/><path d="M136.5 71.7q-5.5 6.65-8.35 9.25h-.05l-1 .85-.25.3v.05q-40.5 21.6-70.3 20l-3.75-.8q-5.45-1.35-10.95-3.9-3.9-1.8-6.7-3.7 3.75 1.65 10 3.2Q53.5 99 57.35 99l4.75-.1q-2.65-1.85-3.7-3.1l-.8-1.05.5-.2.75.15h.05l1.5.1.95.05.35.15.35-.15.15-.35-.15-.35q-.25-.35-1.65-.35l-1.35-.1-.95-.15q-.35-.05-1 .35-1.35-2.5-1.35-5.55 0-1.05.15-1.8l.1-.3.2-.3q.9-1.15 2.8-2.3l.55-.35q3.4 7.65 16.5 8.65Q85.3 93.4 94.6 90.3q7.6-.95 14.4-5.2l1.1-.75-.75 1.35q-1.25 2.4-1.9 2.65v.15q9.35-2.7 19.85-10.05l9.2-6.75M71.75 94.55l-.35-.1q-.2.05-.35.2l-1.3 1.65-.55.45-.55-1.05q-.85-1.85-1.35-1.7-.5-.05-1.6.75h-.05q-1.3.95-1.3 1.85l.15.35q.1.15.35.15l.35-.1.15-.35q.1-.5.9-1.05.75-.55 1.05-.6l.45 1.1v.05q.85 1.75 1.45 1.6.5.05 1.3-.8l1.35-1.7.1-.35-.2-.35" fill="#faf8d0"/><path d="m115.5 50.3.6 1 .45.85-7.2 3.3-3.55 1.7-.4.15-.45.25-.5-.1-1.75 1.05-1.5.9-.05.05.95-1.75q3.1-1.85 13.4-7.4" fill="#9c4c26"/><path d="m3.05 89.65-.45.05h-.25q5.1-3.4 6.45-4.8 3.75-4.35 4.3-4.45 1.3.1 2.25 3.35l.05.1.05.35.05.05.25 1v.05l.1.5.25 1.4-1.15.35-.3-1.05-.5-.6-.65.25-2.7.85-4.8 1.4q-2.15.75-2.95 1.2m10.9-5.15v-.1q-.55-1.6-.9-1.75l-2.6 2.6 1.35-.35 2.15-.4" fill="#f6f5c3"/><path d="m22.2 76.8 2.3-.45h.05l.6-.1v.1l-.1 1.3-.55.15-1.2.45-.55-.8-.55-.65" fill="#8481e3"/><path d="m25.05 77.65-.05.6v.1q0 .5-.8 1.5l-.9-1.6 1.2-.45.55-.15" fill="#656bd0"/><path d="m27.1 81.8-.05.1v.4l.25.25.35.05.6-.15.55.1-2.15.7-1.4.5-.15-1.15v-.1l1.25-.5.75-.2" fill="#a75e29"/></g><g id="d" fill-rule="evenodd"><path d="M45 19.75q-.65 2.4-1.95 3.75l-.05-.25-.15-.2-.3-.1h-.35l.1-.1q1.3-1.4 1.9-3.95l.1.15.5.45.2.25m-13.35 8.8-1.2.35q-6.6 2.1-9.4 3.25l-2.55 1.2-.3.15-3.2 2-.3.25-.55.45q-2.3 2.05-2.35 4.15 0 1.55 1.6 2.9 1.75 1.5 4.25 1.5h.55l1.9-.4.05.1.25.25.4.05.25-.3.2-.4 2.15-.75-.1.45-.05.1V44l.15.35v.4l-2.1 1.55-1.15.7-.3-.25h-.35q-.2.1-.25.3v.4l-1.05.45-.3.1q-3 1-6.45 1l-.95-.05q-1.85-.3-4-1.55l-2.05-1.45Q-.05 42.45 0 38.6q0-4.85 2.85-7.2 1.8-1.55 6.1-2.6l.6-.15.95-.25q3.1-.85 4.2-1.5 2.4-1.55 2.4-4.85l-.45-5.1q-.45-2.7-.45-6 0-2.5.4-4.55l.1-.5.25-.95Q18 1.1 20.3.75h1.95l.3.1L24.3.4v.05L26.85 0Q34 0 39.05 3.15l.3.2q3 1.9 4.55 4.65l-.15-.05q-.25 0-.35.2l-.15.35.2.35.7.7.9 1.1q.45 1.6.5 3.4v.6l-.3 3.9-.35-.3-.35-.1-.25.1.25-3.6-.3-3.05-.1-.35q-.7-2.55-2.35-4.5-1.25-1.45-3-2.55Q33.9 1 26.85 1l-2.35.4-1.9.55-.35.1h-.15l-.35-.15-.1-.15h-1.2Q18.7 2.1 17.9 5.2q-.55 1.95-.65 4.55l-.05 1.2q0 3.2.45 5.85.45 2.65.45 5.25 0 3.9-2.85 5.7h-.05q-1.4.85-6 2l-2 .55q-2.5.8-3.7 1.85Q1 34.25 1 38.6q.05 3.25 3.7 6.25l.35.3q1.8 1.4 3.45 2.15 1.55.7 2.95.7l3.15-.25 3.6-.95 2.85-1.55.3-.2-3.15.7h-.55q-2.9 0-4.9-1.75-1.95-1.7-1.95-3.65-.05-1.95 1.6-3.8.7-.85 1.75-1.65 2.4-1.85 6.5-3.65 3.2-1.35 11.45-3.85l-.15.15v.05l-.15.6-.15.35m.95-1.35.9-.25.35-.1.1-.05q4.2-1.3 6.5-2.55l1.35-.9-.05.1.15.35.1.1v.05l-.1.55-2.1 1.2q-2.3 1.1-5.9 2.15l-.1.05-.95.25.1-.35-.05-.35-.3-.25m-8.15 16.05.1.25v.15l-.15-.3.05-.1" fill="#32216f"/><path d="m45.05 10.65 1.5 2.7q1.65 3.45 1.65 6.6V22l-.05.05-.35.8-.9-2.1v-.05q0-3.55-1.35-6.65-.05-1.8-.5-3.4m-.75 7.6-.1.1-.1.35.1.2q-.6 2.55-1.9 3.95l-.1.1q-.15 0-.3.15l-.1.25-1.35.9q-2.3 1.25-6.5 2.55l-.1.05-.35.1-.9.25h-.05l-.05-.05 6-4.3q4.6-3.7 4.6-10.1 0-2.65-.95-5.15l-.35-.85q1.65 1.95 2.35 4.5l.1.35.3 3.05-.25 3.6m-31.9 18.3q-1.65 1.85-1.6 3.8 0 1.95 1.95 3.65 2 1.75 4.9 1.75h.55l3.15-.7-.3.2-2.85 1.55-3.6.95q-1.7-.5-3.1-2.1-1.9-2.15-1.9-4.3 0-2 1.3-3.55.65-.75 1.5-1.25" fill="#a0eaf6"/><path d="m41.8 6.75.35.85q.95 2.5.95 5.15 0 6.4-4.6 10.1l-6 4.3-.1.05-.2.1-.1.1q-8.25 2.5-11.45 3.85-4.1 1.8-6.5 3.65.2-1.6 1.35-3.8l1.95-3.4.5-.45Q20.2 25 20.2 21.5q0-3.6-1.25-6.45-1.05-2.35-1.7-5.3.1-2.6.65-4.55.8-3.1 2.55-3.45h1.2l.1.15.35.15h.15l.35-.1 1.9-.55 2.35-.4Q33.9 1 38.8 4.2q1.75 1.1 3 2.55" fill="#494368"/><path d="m7.2 30.3 2-.55q4.6-1.15 6-2h.05q2.85-1.8 2.85-5.7 0-2.6-.45-5.25t-.45-5.85l.05-1.2q.65 2.95 1.7 5.3 1.25 2.85 1.25 6.45 0 3.5-2.25 5.75l-.5.45q-1.35 1.15-4.4 2.75-3.5 1.85-4.9 3.45-2.25 2.5-2.25 6.45 0 3.05 1.7 5.75l.9 1.2q-1.65-.75-3.45-2.15l-.35-.3q-1.8-2.8-1.8-4.7 0-1.85.45-3.35.25-1 1.45-4.15.3-.75 2.4-2.35" fill="#b7a1e1"/><path d="m17.45 27.7-1.95 3.4q-1.15 2.2-1.35 3.8-1.05.8-1.75 1.65-.85.5-1.5 1.25-1.3 1.55-1.3 3.55 0 2.15 1.9 4.3 1.4 1.6 3.1 2.1l-3.15.25q-1.4 0-2.95-.7l-.9-1.2q-1.7-2.7-1.7-5.75 0-3.95 2.25-6.45 1.4-1.6 4.9-3.45 3.05-1.6 4.4-2.75" fill="#584b9d"/><path d="M4.7 44.85q-3.65-3-3.7-6.25 0-4.35 2.5-6.45 1.2-1.05 3.7-1.85-2.1 1.6-2.4 2.35-1.2 3.15-1.45 4.15-.45 1.5-.45 3.35 0 1.9 1.8 4.7" fill="#dfd3f4"/><path d="m43.9 8 .2.1.8.8q1.35 1.5 2.55 4 1.75 3.7 1.75 7.05l-.05 2.3v-.05l-1.1 2.3-.25.15-.3.05-.25-.15-.15-.15-.1-.15-.05-.2-.2-1.35-.7-1.5L45 19.75l-.2-.25-.5-.45-.1-.15-.1-.2.1-.35.1-.1.25-.1.35.1.35.3.25.25h.05l1.35 1.9v.05l.9 2.1.35-.8.05-.05v-2.05q0-3.15-1.65-6.6l-1.5-2.7-.9-1.1-.7-.7-.2-.35.15-.35q.1-.2.35-.2l.15.05m-.85 15.5v.05l-.05.5v.1q-.6 3.5-3.7 6.35-2.2 1.95-4.95 2.85l-4.95.7h-.1l-.35-.15-.15-.3.1-.25.05-.1q.1-.2.3-.2l1.35-2.3 1.05-2.2.15-.35.15-.6v-.05l.15-.15.1-.1.2-.1h.2l.3.25.05.35-.1.35-.1.4-1.25 2.65-1.05 1.85q4.85-.3 8.2-3.3 2.55-2.4 3.25-5.25l.1-.55v-.05l-.1-.1-.15-.35.05-.1.1-.25q.15-.15.3-.15h.35l.3.1.15.2.05.25M20.1 44.35l.05-.3q1.05-2.4 3.85-5.2 3.25-3.25 5.95-3.85l.1-.05h1.25l.3.1.2.25v.3q-.3.8-.3 2l.05 1q1.1-1.35 2.8-1.9 1.45-.55 4.35-.55l5.45.3 1.75-.15q1.25-.2 2.2-.75l2.6-2.2.9-.95q.1-.15.3-.15l.3.1q.5.25.8 1 .35 1.05.35 3.05l-.15 2.35q-1 6.85-7.85 10.35-3.6 1.8-7.15 2.25l-1.2.1-4.3-.3q.5.5 1.75 1.1 2 .9 3.25.6h.4l.25.25.05.4-.25.25-2.3 1-2.25.55-4.7-.65-4.7-1.3q-2.15-.8-3.5-3.1h-.05l-1.4-2.8v-.4q.05-.2.25-.3h.35l.3.25 1.4 2.8v-.05q1.2 2 3 2.65l4.55 1.25 4.5.65 1.9-.5.1-.05q-.7-.2-1.55-.6-1.95-.9-2.45-1.85-.25-.45-.2-.85l.1-.3.25-.15h.3l.95.2 7.35-.25 3.25-1.1 1.3-.65q6.3-3.2 7.3-9.45l.15-2.35q0-2.15-.4-2.9l-3.35 2.9q-1.15.7-2.7.95l-1.8.1-5.4-.3q-2.7 0-4 .5h-.05q-2.1.65-3.05 2.7l-.2.25-.35.05-.25-.15-.15-.3-.15-2.55q0-.95.15-1.7h-.55q-2.45.65-5.4 3.6-2.4 2.4-3.45 4.5l-.2.4-.25.3-.4-.05-.25-.25-.05-.1m10.35-1.15.95.15.95-.2q.95-.75 1.1-.8l.3-.05.25.15.15.25v.3l-.75 1.65-.9 1.4v.05q-1.6 1.85-4.05 1.85-2.55 0-3.65-.75-1.15-.7-1.35-2.15l-.05-.3v-.4l-.15-.35v-.15l.05-.1.1-.45.1-.3.1-.4q.25-.6.6-.85.3-.3.95-.4l.85-.1q1.75 0 2.85.9l.35.3 1.25.75m1.15 2.35.1-.1h.05l.75-1.25-1.1.15q-.95 0-1.75-.4l-.5-.3-.65-.5q-.9-.9-2.5-.9l-1.15.25-.05.05q-.25.2-.35.7l-.05.1.15.3v.15l-.15.25v.4q0 1.3.9 1.9h.05q.95.6 3.1.6 1.9 0 3.15-1.4" fill="#253a85"/><path d="m46.9 20.7-1.35-1.9h-.05l-.25-.25.3-3.9v-.6q1.35 3.1 1.35 6.65" fill="#204ceb"/><path d="M41.9 24.5q-.7 2.85-3.25 5.25-3.35 3-8.2 3.3l1.05-1.85 1.25-2.65.1-.4.95-.25h.1v.9l-.05.2-.2 1.4-.35 1.35v.1h.05l3.5-2.6.35-.35q1.7-1.65 2.6-3.2l2.1-1.2M31.4 40.6l.2-.25q.95-2.05 3.05-2.7h.05q1.3-.5 4-.5l5.4.3 1.8-.1q1.55-.25 2.7-.95l3.35-2.9q.4.75.4 2.9l-.15 2.35q-1 6.25-7.3 9.45l-1.3.65-3.25 1.1 1.6-1.5.1-.15-.05-.25-.15-.5L41.6 46q0-2.9.35-4l.35-.8q.7-1.25 2.15-2.2v-.05l-4.65-.3q-3.75 0-6.1 1.05l-2.4.95.1-.05M49 41.7l1.15-2.95.15-.5v-.5h-.05l-1.1 1-.45.3-2 1.65q-1.15 1.4-2.05 3.25-.85 1.8-1.05 3.3.65-.2 1.4-.8l2.35-2.15q.85-.8 1.65-2.6" fill="#def8fc"/><path d="M49 41.7q-.8 1.8-1.65 2.6L45 46.45q-.75.6-1.4.8.2-1.5 1.05-3.3.9-1.85 2.05-3.25l2-1.65.45-.3 1.1-1h.05v.5l-.15.5L49 41.7" fill="#58a3f0"/><path d="m42.3 41.2-5.3.1q-4.2.2-6.55 1.9l-1.25-.75-.35-.3q.05-1.75.5-2.45l.3.5q.45.55 1.15.55h.2l.3-.1 2.4-.95q2.35-1.05 6.1-1.05l4.65.3V39q-1.45.95-2.15 2.2" fill="#6bdcf2"/><path d="M40.35 49.95 33 50.2l-.95-.2h-.3l-.25.15-.1.3q-.05.4.2.85-.3.3-.3.7 0 .5.45 1.15l-2.35.05q-3 0-5.6-2.25-2.4-2.1-2.5-4.65l2.1-1.55.05.3q.2 1.45 1.35 2.15 1.1.75 3.65.75 2.45 0 4.05-1.85v-.05l.9-1.4.75-1.65v-.3l-.15-.25-.25-.15-.3.05q-.15.05-1.1.8l-.95.2-.95-.15q2.35-1.7 6.55-1.9l5.3-.1-.35.8q-.35 1.1-.35 4l.25 1.55.15.5.05.25-.1.15-1.6 1.5" fill="#1f94eb"/><path d="m36.85 29.25.15-1.6-3.1 1.15v-.95q3.6-1.05 5.9-2.15-.9 1.55-2.6 3.2l-.35.35" fill="#22c7eb"/><path d="m33.9 28.8 3.1-1.15-.15 1.6-3.5 2.6-.05-.1.35-1.35.2-1.4.05-.2" fill="#98d5f6"/><path d="M31.6 51.3q.5.95 2.45 1.85.85.4 1.55.6l-.1.05-1.9.5-4.5-.65-4.55-1.25q-1.8-.65-3-2.65v.05l-1.4-2.8 1.15-.7q.1 2.55 2.5 4.65 2.6 2.25 5.6 2.25l2.35-.05q-.45-.65-.45-1.15 0-.4.3-.7m-.3-10.65-.3.1h-.2q-.7 0-1.15-.55l-.3-.5-.3-1.2q-1.45.6-2.3 1.2-.65.45-1.6 1.65-.65.1-.95.4-.35.25-.6.85l-.1.4-.1.3-2.15.75q1.05-2.1 3.45-4.5 2.95-2.95 5.4-3.6h.55q-.15.75-.15 1.7l.15 2.55.15.3.25.15.35-.05-.1.05" fill="#9ceff6"/><path d="M29.35 39.7q-.45.7-.5 2.45-1.1-.9-2.85-.9l-.85.1q.95-1.2 1.6-1.65.85-.6 2.3-1.2l.3 1.2" fill="#1e65eb"/><path d="M24.45 43.25q.1-.5.35-.7l.05-.05 1.15-.25q1.6 0 2.5.9l.65.5.5.3q.8.4 1.75.4l1.1-.15-.75 1.25h-.05l-.1.1-.55.1q-1.45 0-3.15-1.05-1.7-1.1-2.3-1.1-.6 0-1.05.3v-.3l-.1-.25" fill="#96e9f6"/><path d="M24.55 43.8q.45-.3 1.05-.3.6 0 2.3 1.1 1.7 1.05 3.15 1.05l.55-.1q-1.25 1.4-3.15 1.4-2.15 0-3.1-.6h-.05q-.9-.6-.9-1.9v-.4l.15-.25" fill="#1e52eb"/></g><g id="e" fill-rule="evenodd"><path d="m14.1 7.55.15-1.85q0-4.65-4.15-4.7l-1.15.1-.05.05-.3.25-.85.5-.2.05L7.5 2q-2.4.85-4.25 2.9l-.65.75Q1 7.7 1 9.8q0 2.95 1.4 4.7Q3.7 16 5.75 16q1.15 0 2.35-.6l2.8-2.1q1.3-1.3 2.2-2.75l-.05.15.15.35.2.8L11.6 14l-2.75 2.15-1.8.7-.5-.45q-.15-.15-.35-.15-.2 0-.35.15-.15.15-.15.35l.1.25h-.05q-2.55 0-4.1-1.85H1.6Q0 13.15 0 9.8q0-2.9 2.5-5.6v.05L3.75 3l.4-.3q1.4-1.1 3-1.65l.2-.1.7-.4.3-.25h.05q.4-.3 1.7-.3 2.95 0 4.2 1.85l.6 1.25q.35 1.1.35 2.6 0 2.7-1.15 5v-.1l-.2-.3-.3-.1h-.05q-.2 0-.35.15l-.1.15q.75-1.4 1-2.95" fill="#193354"/><path d="m2.6 5.65.65-.75Q5.1 2.85 7.5 2l.05-.05.2-.05.85-.5.3-.25.05-.05L10.1 1q4.15.05 4.15 4.7l-.15 1.85q-.7 1.9-2.05 3.6L10.35 13l.1-.7.05-2.2q0-2.7-1.15-2.7L7.7 8l-3 .55-1.85-.15H2.1l.15-1.2.35-1.55" fill="#3f6b88"/><path d="m13.1 10.5.1-.15q.15-.15.35-.15h.05l.3.1.2.3v.1l.35 1.05v1.2q0 2.7-1.3 4.55l-1.25 1.7q-1.35 1.55-2.6 1.5-.25.15-1.6-1.75l-1.05-1.1h.05l-.85-.75-.05-.1-.1-.25q0-.2.15-.35.15-.15.35-.15.2 0 .35.15l.5.45.3.25 1.2 1.3.75 1.3q.5 0 1.05-.4l.2-.15.6-.6 1.15-1.6v-.05q1.15-1.6 1.15-3.95V12l-.05-.15-.2-.8-.15-.35.05-.15v-.05" fill="#362573"/><path d="M14.1 7.55q-.25 1.55-1 2.95v.05q-.9 1.45-2.2 2.75l-2.8 2.1q-1.2.6-2.35.6-2.05 0-3.35-1.5Q1 12.75 1 9.8q0-2.1 1.6-4.15L2.25 7.2 2.1 8.4 1.95 10v.1l1-.5 1.25-.25q2.3 0 3.2 1.35.6 1 .7 3.15h.25q.6.15 1.45-.45l.55-.4 1.7-1.85q1.35-1.7 2.05-3.6" fill="#d8f6f2"/><path d="M2.1 8.4h.75l1.85.15 3-.55 1.65-.6q1.15 0 1.15 2.7l-.05 2.2-.1.7-.55.4q-.85.6-1.45.45H8.1Q8 11.7 7.4 10.7q-.9-1.35-3.2-1.35l-1.25.25-1 .5V10l.15-1.6" fill="#8aaab9"/><path d="M8.85 16.15 11.6 14l1.8-2.15.05.15v.95q0 2.35-1.15 3.95v.05l-1.15 1.6-.6.6-.8-1.85-.9-1.15" fill="#7d69c3"/><path d="m7.05 16.85 1.8-.7.9 1.15.8 1.85-.2.15q-.55.4-1.05.4l-.75-1.3-1.2-1.3-.3-.25" fill="#e0d5f5"/></g><g id="f" fill-rule="evenodd"><path d="m30.85 13.2-.05.25-.2.4-1 1.7h-.05Q27.5 18.25 27 19.2q-1.45 2.5-3.25 2.75h-.1l-4.9.4h-.2L18 22.2q-1.4 1.2-3.05 1.2l-1.25-.15-.4.65Q12.35 25 10 25h-.15q-2.05-.05-3.25-1.5-.95-1.25-.95-2.35l-1.75-.6q-1.65-.7-2.3-1.5-.65-.75-1.05-1.8-.55-1.2-.55-2-.1-1 2.05-1h.05l.85.1 4.3-.6-1-1.35q-.7-1.35-.7-3.5 0-2.6 1.35-4v.05q1-1.2 2-1.15.25-.15 2.95 3.65l1.4 1.4.45.4.25.25.2.2.35-.25q.8-.95 2.55-4.9l.05-.15.05-.15.2-.2.3-.1q1 .05 2.1 1.85 1 1.7 1 3.3 0 1.95-1.15 2.8l-.75.7.05.1.95 1.1 3.55.6.5-.15.85-1.75v.05l.3-.75.4-.55h.05q.1-.15.3-.15.2 0 .35.15l.15.35-.15.35-.2.3-.25.65h-.05l-.9 1.9q-.4.6-1.35.6l-3.1-.5.1.7v.7q0 2.6-1.4 4.75h-.05l-.2.25 4.85-.35q1.35-.25 2.55-2.25l-.05.05q.5-1 2.65-3.75l.25-.4.55-.9.2-.35-.05.05.2-.4.3-.25h.4l.25.3v.15M17.45 6q-1.5 3.25-2.5 4.25-.45.5-.8.45h-.05q-.4-.05-1.5-1.1l-.05-.05-1.5-1.5L8.9 4.8q-.6.05-1.25.8-1.1 1.2-1.1 3.3 0 1.85.6 3.05l1.45 1.8.15.35-.1.3-.3.2-5.45.75h-.05l-.85-.1H1q0 .6.45 1.6l.05.05q.35.9.85 1.5l1.95 1.25 1 .4 1.05.15 1.8-.2.2-.1.55-.2.85-.65q.1-.15.35-.2l.35.1.2.35-.1.35-.3.4-.95.55-.9.35-1.45.25h-.3v.05q.05.75.75 1.6Q8.35 24 9.95 24l.95-.05q1.6-.25 2-1.4 0-.2.15-.3l.2-.1h.35l.3.1 1.05.15q1.4 0 2.55-1.05v-.05l.65-.8q1.25-1.9 1.25-4.2l-.05-.9-.3-.95v-.1q-.3-.6-.8-.95l-.15-.15-.25-.65q-.1-.55 1.15-1.5.75-.65.75-2 0-1.4-.85-2.8l-1.05-1.2-.4.9" fill="#32216f"/><path d="m20.4 15.6-.1-.7 3.1.5q.95 0 1.35-.6l.9-1.9h.05l.25-.65.2-.3.85.8-1.3 2q-1.2 1.6-1.75 1.6l-2.15-.4-1.4-.35M17.45 6l.1.3.25 1.7-.5 2.2q-.6 1.55-1.15 1.55l-1.2-1.5q1-1 2.5-4.25m-7.6 3.45-.05.4q0 1.25.7 2.95l.65 1.65q0 .65-1.7 1.35-1.7.7-3.65.85.3.9 1.45 1.95l1.65 1.1-.55.2-.2.1-1.8.2-1.05-.15-.25-.35-1.5-3q0-.35 1.2-.35l.95-.2 1-.3 1.7-.75 1.4-.5v-.15l-.8-1.5q-.6-1.55-.6-3.15 0-1.2.15-1.8L9.6 9.25l.25.2m.4 10.6.9.05.85-.15 1 .2q.3.25.3 1.3l-.05.7-.2.1q-.15.1-.15.3-.4 1.15-2 1.4l.2-.8q0-.95-.95-1.9-.4-.4-.85-.65l.95-.55" fill="#b7a1e1"/><path d="m29.55 13.7-.55.9-.25.4q-2.15 2.75-2.65 3.75l.05-.05q-1.2 2-2.55 2.25l-4.85.35.2-.25H19q1.4-2.15 1.4-4.75v-.7l1.4.35 2.15.4q.55 0 1.75-1.6l1.3-2 1.25.75 1.2.2h.1m-14.6-3.45 1.2 1.5q.55 0 1.15-1.55l.5-2.2-.25-1.7-.1-.3.4-.9 1.05 1.2q.85 1.4.85 2.8 0 1.35-.75 2-1.25.95-1.15 1.5l.25.65.15.15q.5.35.8.95v.1l.3.95.05.9q0 2.3-1.25 4.2l-.65.8v.05q-1.15 1.05-2.55 1.05l-1.05-.15-.3-.1h-.35l.05-.7q0-1.05-.3-1.3l-1-.2-.85.15-.9-.05.3-.4.1-.35-.2-.35-.35-.1q-.25.05-.35.2l-.85.65-1.65-1.1Q6.1 17.55 5.8 16.65q1.95-.15 3.65-.85t1.7-1.35l-.65-1.65q-.7-1.7-.7-2.95l.05-.4 1.6 1.35q1 .8 2.8 1.1v-.3l-.15-.9h.05q.35.05.8-.45" fill="#7d69c3"/><path d="M30.85 13.2v-.15l-.25-.3h-.4l-.3.25-.2.4.05-.05-.2.35h-.1l-1.2-.2-1.25-.75-.85-.8.15-.35-.15-.35q-.15-.15-.35-.15-.2 0-.3.15l-1.25-1.7q-2.6-3.9-2.55-6.15 0-1 .8-2.1l.85-.85.3-.2 1.1-.25 1.05.1 1.55.7.4.2.05.05.8.4 1.3 1.05.05.1H30q1.85 2.75 1.85 6.4 0 2.2-.3 3.15v.05q-.25.65-.7 1M29.1 3.05l-1-.75-.75-.4h-.05l-.3-.15-.1-.05q-.85-.55-1.35-.65l-.8-.05q-.75.05-1.35.8l-.1.1q-.6.8-.6 1.5.05 2.05 2.4 5.6 1.15 1.7 2.2 2.65l.2.15q1 .85 1.95.9.8 0 1.15-.85L30.85 9q0-3.35-1.7-5.85l-.05-.1" fill="#193354"/><path d="m14.1 10.7.15.9v.3q-1.8-.3-2.8-1.1l-1.6-1.35-.25-.2L8.55 8q-.15.6-.15 1.8 0 1.6.6 3.15l.8 1.5v.15l-1.4.5-1.7.75-1 .3-.95.2q-1.2 0-1.2.35l1.5 3 .25.35-1-.4-1.95-1.25q-.5-.6-.85-1.5l-.05-.05q-.45-1-.45-1.6h1l.85.1h.05l5.45-.75.3-.2.1-.3-.15-.35-1.45-1.8q-.6-1.2-.6-3.05 0-2.1 1.1-3.3.65-.75 1.25-.8l2.15 3.25 1.5 1.5.05.05q1.1 1.05 1.5 1.1m-3.2 13.25-.95.05q-1.6 0-2.55-1.15-.7-.85-.75-1.6l.3-.05 1.45-.25.9-.35q.45.25.85.65.95.95.95 1.9l-.2.8" fill="#e0d5f5"/><path d="M23.4 1.8q.6-.75 1.35-.8l.8.05q.5.1 1.35.65l.1.05.3.15h.05l.75.4 1 .75-1.95 1.5Q25.4 5.9 24.9 6.75 23.65 3.9 23.4 1.8" fill="#8baabb"/><path d="m29.1 3.05.05.1q1.7 2.5 1.7 5.85l-.25 2.85q-.35.85-1.15.85-.95-.05-1.95-.9l-.2-.15-1.8-3.6L25.05 7l-.15-.25q.5-.85 2.25-2.2l1.95-1.5" fill="#426c8a"/><path d="M27.3 11.65Q26.25 10.7 25.1 9q-2.35-3.55-2.4-5.6 0-.7.6-1.5l.1-.1q.25 2.1 1.5 4.95l.15.25.45 1.05 1.8 3.6" fill="#d8f6f5"/></g><g id="g" fill-rule="evenodd"><path d="M15.3 14.85v-.35l.95-2.9q.4-1.35.4-3.55 0-2.4-1.5-4.25-1.65-2.1-4.45-2.45l-.35-.2-.1-.35.1-.2.1-.15.4-.1 1.1.2q2.45.65 4 2.65 1.7 2.15 1.7 4.85 0 2.4-.45 3.85v.05q-.35.75-.95 2.85l-.05.1-.2.2-.4.05-.3-.25v-.05M1 3.45l.35.05.25.3.1.4 1.2 3.55q1 3.4 1 5.35l-.3 3-.15.3H3.4l-.35.1-.35-.2-.1-.35.3-2.85q0-1.85-.95-5.05v.05L.7 4.25l-.05-.2.05-.4q.1-.2.3-.2" fill="#193354"/><path d="m10.35.6-.1.2.1.35.35.2q2.8.35 4.45 2.45 1.5 1.85 1.5 4.25 0 2.2-.4 3.55l-.95 2.9v.35q-.55.25-1.55.95l-1.95 1.1.65-2.2.4-2.55.25-1.95v-.1q-2.6-.2-4.6-2L7 6.4q-.15 0-1.25.7l-1.15.65q-.35 0-.6-1.7l-.2-2H2.35l-.2.05-.45.1-.1-.4-.25-.3L1 3.45.95 2.6Q.95 1 2.65.4l3.1-.4 3.6.4 1 .2" fill="#20657e"/><path d="m2.15 4.1.2-.05H3.8l.2 2q.25 1.7.6 1.7l1.15-.65q1.1-.7 1.25-.7l1.5 1.7q2 1.8 4.6 2v.1l-.25 1.95-.4 2.55-.65 2.2-.6.3-3.25 1.15 2.6-6.05v-.5l-4.6 1.1q-.35 0-.7-1.2L4.1 8.45 2.15 4.1" fill="#7fa9b7"/><path d="m1.7 4.2.45-.1L4.1 8.45l1.15 3.25q.35 1.2.7 1.2l4.6-1.1v.5l-2.6 6.05-2 .65-.95.25-.05-.35-.55-1-.05-.05-.9-1.45.15-.3.3-3q0-1.95-1-5.35L1.7 4.2" fill="#d5f5f1"/><path d="M15.3 14.85v.05l.3.25.4-.05.2-.2.05.25v.2l-.05.05-.25 1.3-.6 1.35-.15.1-.1.05v-.1l-.25-.3-.35-.05q-.2.05-.3.2l-.05.4-.05.15q-1.5.75-2.45 1.25h-.05l-.25.1-5.8 2.5-1.65.55h-.1q-.6 0-.9-.85V22l-.25-.75v-.05l.15-.5v-.1l-.05-.3-.3-.2-.35.05L2 20q-.35-.6 0-2.2h.05l.25-1.4q0-.2.15-.3l.15-.15.1.35.35.2.35-.1h.05l.9 1.45.05.05.55 1 .05.35.95-.25 2-.65 3.25-1.15.6-.3 1.95-1.1q1-.7 1.55-.95M3 18v.05V18q-.25 1.1-.1 1.55l.25.5.4.75.25.85.05.1v-.05l.05.2.25-.05 1.5-.55 5.55-2.45.4-.2q1.2-.55 3.1-1.35l.25-.75v-.05l.1-.4q-.35.2-.75.5v.05l-2.6 1.4-.15.1-.25.05-.05.05-3.75 1.3-1.65.5-.85.2-.35-.25-.9-1.25-.2-.3v-.05l-.5-.75L3 18" fill="#5b280e"/><path d="m3 18 .05-.35.5.75v.05l.2.3-.3.6-.3.7-.25-.5Q2.75 19.1 3 18" fill="#f5f4c3"/><path d="m3.75 18.75.9 1.25-.5 1.85-.25.05-.05-.2-.05-.05-.25-.85-.4-.75.3-.7.3-.6" fill="#eace37"/><path d="m2.1 20.15.35-.05.3.2.05.3v.1l-.15.5-.8 2.7-.55 1.25 1.15-.05h.35q3.55-.35 6.7-2.25l3.1-2.65 1.25-1.35v-.05l.25-.3.05-.15.05-.4q.1-.15.3-.2l.35.05.25.3v.1q.15.5-.5 1.3h-.05l-1.2 1.35-3.3 2.85Q6.5 25.85 2.5 26.1l-.55.05L.8 26.1H.5L.2 26l-.2-.3.05-.3.85-1.85.95-3.1.2-.3h.05" fill="#41307c"/><path d="M2.65 21.2v.05l.25.75v.05q.3.85.9.85l-1 2.2h-.35l-1.15.05.55-1.25.8-2.7" fill="#e0d5f5"/><path d="M3.8 22.9h.1l1.65-.55 5.8-2.5.25-.1h.05q.95-.5 2.45-1.25l-.25.3v.05L12.6 20.2l-3.1 2.65q-3.15 1.9-6.7 2.25l1-2.2" fill="#7d69c3"/><path d="m5.85 20.05 1.65-.5 3.75-1.3.05-.05.25-.05.15-.1-.1.6-.4.2-5.55 2.45.2-1.25" fill="#d67533"/><path d="m4.65 20 .35.25.85-.2-.2 1.25-1.5.55.5-1.85m7.05-1.95 2.6-1.4v-.05q.4-.3.75-.5l-.1.4v.05l-.25.75q-1.9.8-3.1 1.35l.1-.6" fill="#9c4d26"/></g><g id="h" fill-rule="evenodd"><path d="M22.1 1.55q.45-.75 1-1.05.75-.5 2-.5 1 0 2 .45h-.05q1.35.6 1.3 1.65.05.65-1.05 2.95l-.3.6-.15.3-1.3 2.75q-.6 1.5-2.15 3.45l-1.5 1.8-.05.1-.3.1-.35-.1-.2-.35.05-.25.05-.1 1.5-1.85 2.05-3.2.65-1.35 1.1-2.35.95-2.5q-.05-.45-.7-.75L25.1 1q-.95 0-1.5.35h.05q-.4.2-.7.75l-.3.25h-.15l-.25-.05-.2-.3.05-.4v-.05M8.5 14.8l-.05-.1-1.15-3.25Q5.45 6.9 5.45 5q0-2.55.9-2.85l.25-.05.1.05.3.25.05.25v.1l-.25.3Q6.45 3.3 6.45 5q0 1.8 1.8 6.05v.05l1.15 3.3v.3l-.05.1-.3.25L8.7 15l-.2-.2" fill="#193354"/><path d="M22.5 2.35h.15l.3-.25q.3-.55.7-.75h-.05Q24.15 1 25.1 1l1.55.35q.65.3.7.75l-.95 2.5-1.1 2.35Q23.55 8.1 22.75 9q-1.1 1.25-3.4 5.2v.05l-.3.05-1.1.35q.1-.85.55-1.9.35-.95 1.25-2.4l.85-1.3-.4-.55-.5-.3-2.2.7-2.95.8q2.85-3.55 7.8-7.2l.15-.15" fill="#426c8a"/><path d="m25.3 6.95-.65 1.35-2.05 3.2-1.5 1.85-.05.1-.2.05-1.45.7h-.05q2.3-3.95 3.4-5.2.8-.9 2.55-2.05m3 11.45.05-.25v-.1l-.1-.3-.3-.2-.95-.25h-.05l-2.1-.8-1.25-.55 4.1.9q3.3.8 4.55 1.35l2.7 1.7-.25.2-1.25 1.35-1.1-.9-.9-.65-.9-.5-.2-.15-1.55-.65-.05-.05-.45-.15m5.9 3.75 1.3-1.5.1-.2 1.45 1.7-.85.55-.9.5-1.1-1.05" fill="#a0eaf6"/><path d="m22.35 14.8.2.05.3.1.5-.05 4.6 1q3.35.85 4.65 1.35 1.55.6 3.55 2.35 1.75 1.6 2 2.55v.35l-.2.25-1.2.8-.7.4-1 .45-3.45.75-2.15.15h-.3l-3.45-.55-1.1-.2h-.1q-2.75-.65-3.5-1.45l-.05-.1-.1-.25q0-.2.15-.35.15-.15.35-.15.2 0 .35.15l.1.1q.7.55 2.85 1.05l1.35.2 3.3.55h.25l2.1-.15 3.1-.7.55-.25.9-.5.85-.55-1.45-1.7-.1.2-1.3 1.5-.75.5-1.8.65-1.55.25h-.9l-2.85-.2h-.2q-1.9-.35-2.2-1l-.05-.2q-.1-.2.05-.4l.3-.2.35.05.15.1.1.2 1.65.45.4.05 2.3.15 1.1-.05 1.05-.15.25-.05h.1l1.25-.5v-.05l.5-.3 1.25-1.35.25-.2-2.7-1.7q-1.25-.55-4.55-1.35l-4.1-.9-.25-.05-.65.05-.25-.05-.2-.1-.3-.25v-.4q.05-.2.25-.3l.15-.05m-8.2 3.95-.05.3q-.7 1.2-3.7 3.05l-.1.05-2.25 1.1-1.95.65-2.3.3-3.45-.55-.25-.25-.1-.35q.3-1.5 2.8-3.85 2.6-2.4 5.1-3.2l.2-.05.2.05.25.3v.35l-.05.05-.15.2-.15.05h-.05q-2.3.8-4.65 3l-.5.5.65.2H3.6l.85.1h.5l1.4-.15 1.35-.3.5-.15.7-.35h.05l.15-.05 1.25-.9.45-.35.25-.25q.15-.15.4-.15.2 0 .35.15l.1.4v.05l-.15.3-1.35 1.1-1 .6-1.25.55-.55.15-1.5.25-1.65.1h-.1L3.3 21.6l-.75-.2-.35-.15-1.05 1.6 2.15.35h.5l2.2-.3 2-.7 1.8-.9.5-.3 2.75-2.2.2-.25q.1-.15.3-.2l.35.05.25.3v.05" fill="#5c290f"/><path d="m21.05 13.45-.05.25.2.35.35.1.3-.1.2.25.25.5h.05l-.15.05q-.2.1-.25.3v.4l.3.25.2.1.25.05.65-.05.25.05 1.25.55 2.1.8H27l.95.25.3.2.1.3v.1l-.05.25-.1.1-3.45 3.2-.15-.1-.35-.05-.3.2q-.15.2-.05.4l.05.2-.25.15-.25.1-.3-.05-.2-.2-.2-.4-.95.55-.1-.1q-.15-.15-.35-.15-.2 0-.35.15-.15.15-.15.35l.1.25-1.45 1-.3.1-.3-.1-.2-.3-.8-5.55-2.95.5-.8.1v-.05l-.25-.3-.35-.05q-.2.05-.3.2l-.2.25-1.15-.1v-.05l-.1-.4q-.15-.15-.35-.15-.25 0-.4.15l-.25.25-.5-.15-1.05-.4-.3-.15-.5-.3-.15-.2-.1-.25-.05-.1h.05l.15-.05.15-.2.05-.05v-.35L8.3 16l-.2-.05q.05-.7.4-1.15l.2.2.35.05.3-.25.05-.1.15.05 1.05.2h.15l1.7.15 1.55.05h.05l2.9-.2.65-.15.05-.05.3-.1 1.1-.35.3-.05.05-.05 1.45-.7.2-.05M12.2 16.1l-2.9-.4-.15-.05-.1.8q0 .3.35.45l.1.05 1.1.45 1.15.25 1.55.15 2.55-.3 1.85-.35.45-.1.1-.05.9-.3.65-.3-.05.05 1.65-1.25-.2-.4v.05l-.15-.3-1.2.55-.1.05q-1.3.3-1.65.5h-.05L16.8 16l-2.75.15H14l-1.8-.05m9.9 4.75-.05-.05-.5-.85v-.05q-1-1.65-1.3-2.6h-.05l-.05.05-.85.35-.45.15.75 4.85 2.65-1.6-.15-.25m-.35-4.6-.25.2-.4.3q.2.85 1.25 2.65h.05l.95 1.6.1.15.1.2 1.75-1.45 1.65-1.55-.6-.2-1.9-.75-2.55-1.25-.15.1" fill="#3b1117"/><path d="M22.1 1.55v.05l-.05.4.2.3.25.05-.15.15q-4.95 3.65-7.8 7.2l-.65.8-.25.2h-.3l-.25-.2-.3-.45-.5-.75-1.25-1.65-.85-.9L8 4.45l-1.2-1.4.25-.3v-.1L7 2.4l-.3-.25-.1-.05.15-.1.25-.1 1.3-.15.3.05.3.15q1.7.95 3.2 2.55l.05.1 1.2 1.55.25.4q3.3-3.35 5.15-4.6l1.05-.6.2-.05 2.1.25m-9.35 6.7.3.4.5.7q2.7-3.45 7.35-7h-.1l-.7-.05q-1.85.9-6.35 5.45l-.3.15-.3-.05-.2-.2v-.1q-.25-.8-1.15-1.85l-.45-.5Q9.9 3.7 8.25 2.8l-.35.05.85.9v.05l2.15 2.25.55.55 1.3 1.65" fill="#47241a"/><path d="m12.95 7.65.2.2.3.05.3-.15q4.5-4.55 6.35-5.45l.7.05h.1q-4.65 3.55-7.35 7l-.5-.7-.3-.4.2-.6" fill="#cf7131"/><path d="m11.45 6.6-.55-.55L8.75 3.8v-.05l-.85-.9.35-.05q1.65.9 3.1 2.4l.45.5-.35.9M6.8 3.05 8 4.45l2.2 2.3.85.9L12.3 9.3l.5.75h-.05l-.3.1q-.6 0-1.7-1.1l-2-2.25q.4 4.1 1.85 8.15l-1.05-.2-.15-.05v-.3l-1.15-3.3v-.05Q6.45 6.8 6.45 5q0-1.7.35-1.95" fill="#fff"/><path d="m8.9 1.95 3.55-.4 6.3.4Q16.9 3.2 13.6 6.55l-.25-.4-1.2-1.55-.05-.1q-1.5-1.6-3.2-2.55" fill="#7c68c2"/><path d="m12.75 8.25-1.3-1.65.35-.9q.9 1.05 1.15 1.85v.1l-.2.6" fill="#dfc135"/><path d="m12.8 10.05.3.45.25.2h.3l.25-.2.65-.8 2.95-.8 2.2-.7.5.3.4.55-.85 1.3q-.9 1.45-1.25 2.4-.45 1.05-.55 1.9l-.3.1-.05.05-.65.15-2.9.2H14l-1.55-.05-1.7-.15h-.15Q9.15 10.9 8.75 6.8l2 2.25q1.1 1.1 1.7 1.1l.3-.1h.05" fill="#8ba9ba"/><path d="m11.75 17.65-1.15-.25-1.1-.45-.1-.05q-.35-.15-.35-.45l.1-.8.15.05 2.9.4-.1.3-.35 1.25" fill="#f490d9"/><path d="m8.15 16.95.05.1q-1.3 1.6-1.85 3.55l-1.4.15h-.5l-.85-.1h.05l-.65-.2.5-.5q2.35-2.2 4.65-3m-4.7 6.25H3.3l-2.15-.35 1.05-1.6.35.15.75.2 1.05.15-.9 1.45" fill="#f6f5c3"/><path d="m8.2 17.05.1.25.15.2-.75 2.8-1.35.3q.55-1.95 1.85-3.55m-.05 4.2L8 22.2l-2 .7.1-1.25 1.5-.25.55-.15" fill="#e5c935" fill-opacity=".988"/><path d="m12.2 16.1 1.8.05h.05L16.8 16l-.65 1.1-.3.4-2.55.3-1.55-.15.35-1.25.1-.3" fill="#c54255"/><path d="m16.8 16 1.25-.35h.05q.35-.2 1.65-.5l.1-.05 1.2-.55.15.3v-.05l.2.4-1.65 1.25.05-.05-.65.3-.9.3-.1.05-.45.1-1.85.35.3-.4.65-1.1m3.35 1.35.05-.05h.05q.3.95 1.3 2.6v.05l.5.85.05.05-.55.25-1 .4h-.1q-.4 0-.4-.5l.1-2.15v-1.5m1.6-1.1.15-.1 2.55 1.25 1.9.75-1.4 1.4-3.2-3.3" fill="#732530"/><path d="m21.5 16.45.25-.2 3.2 3.3-1.15.95q-.25 0-1.25-1.95l-1.05-2.1" fill="#c64357"/><path d="m25.3 19.9-1.75 1.45-.1-.2-.1-.15-.95-1.6h-.05q-1.05-1.8-1.25-2.65l.4-.3 1.05 2.1q1 1.95 1.25 1.95l1.15-.95.35.35" fill="#f38fd8"/><path d="m22.1 20.85.15.25-2.65 1.6-.75-4.85.45-.15v3.05q.05.8.7.8h.5l.05-.05 1-.4.55-.25" fill="#f38ed6"/><path d="m19.3 17.7.85-.35v1.5l-.1 2.15q0 .5.4.5l.05.05H20q-.65 0-.7-.8V17.7" fill="#c24255"/><path d="m33.45 21.45-.5.3v.05l-1.25.5h-.1l.5-1 .25-.75 1.1.9m-9.5.9q.3.65 2.2 1h.05l-.15.25-.05.15-1.35-.2q-2.15-.5-2.85-1.05l.95-.55.2.4.2.2.3.05.25-.1.25-.15m7.7.95 1.8-.65.75-.5 1.1 1.05-.55.25-3.1.7v-.85m-22.4-5.35 1.05.4.5.15-.45.35-1.25.9.15-1.8M8 22.2l.15-.95 1.25-.55 1-.6-.1.9-.5.3-1.8.9m-1.9-.55L6 22.9l-2.2.3h-.35l.9-1.45h.1l1.65-.1" fill="#d67533"/><path d="m31.6 22.3-.25.05-1.05.15.1-.55.2-1.95-.05-.6.9.5.9.65-.25.75-.5 1m-19.7-3.6 1.15.1L10.3 21l.1-.9 1.35-1.1.15-.3" fill="#9c4d26"/><path d="m8.45 17.5.5.3.3.15-.15 1.8-.2.05-.7.35-.5.15.75-2.8" fill="#9d4f27"/><path d="m30.3 22.5-1.1.05-2.3-.15.6-.9.95-1.95.35-.95 1.55.65.2.15.05.6-.2 1.95-.1.55m-4.1.85h.15l2.85.2h.55l-.2.75h-.25l-3.3-.55.05-.15.15-.25" fill="#f6f5c4"/><path d="m26.9 22.4-.4-.05-1.65-.45-.1-.2 3.45-3.2.1-.1.45.15.05.05-.35.95-.95 1.95-.6.9m2.85 1.15h.35l1.55-.25v.85l-2.1.15.2-.75" fill="#eace37"/></g><g id="i" fill-rule="evenodd"><path d="m24.3 14.05.65.95.45.75.2-.35v-.05l-.05-.05q-.45-2.7-1.1-4.4-.85-2.05-2.3-3.8-1.45-1.85-2.45-1.9-.35.1-1 3.25L18 12.5v.05l-.95 3.05 2.5-2.35q.15-.15.35-.15h.1l.15.05.1.1.15.35.35 3.35.6-1 1.2-1.85.3-.55h.05l.25-.2h.3l.85.7m-17.25 29-.15-.15-.2-.3q-1.3-2-1.3-6.05l.4-12.8-.2-3.15v-.05q0-1.25.8-1.3v-.05h1.2q2.45.05 3.85 1.85l1.1 2.15 1.7-3.5q1.95-4.2 2.8-7.35v-.05l-.05.05.7-4.1q.85-4.15 2-4.05 1.4-.05 3.25 2.25 1.55 1.9 2.45 4.1.7 1.75 1.15 4.6l.05.3v.05q.4 2.35.4 4l-.1 2.75v.1l-.15.35-.35.1-.35-.15-.15-.35.05-.6.05-2.2-.15-2.3v-.05l-.05.05h-.35l-.45-.35-.9-1.35-.65-.95-.15.25-2.45 3.9-.25.15-.3.05-.25-.15-.15-.3-.4-3.5v-.25L17.05 17l-.35.1-.2-.05-1.35 3.1v-.05L13 24.6l-.05.1-.1.1-.8 1.65-.3.25h-.15l-.2-.05-.25-.3V26l.1-.2.5-.95.2-.45q-.7-1.95-1.3-2.75-1.1-1.45-3.05-1.45h-.95l-.05.35.2 3.15-.4 12.9q0 3.05.8 4.8l.35.65.2.3.05.35-.2.35-.4.05-.15-.05m29.8-13Q38.7 25.3 38.7 19.9l-.2-3.1v-.05q0-1.25 1.15-1.6h.05l1.7-.15q3.7-.05 5.35 4.35l3.75-5.75 4-6.25-.05.05 2.6-4.2 1.25-1.8Q59.35-.1 59.7 0q.45-.15 1.75 2.7L63 6.45q.8 2.65.8 8.9l-.2 4.3-.45 3.6-.95 5.1v.05l-1.7 3.65-1.2 2.15-.2.15-.25.05-2.2-.1-5.5 1.7-.5.15q-.55.1-.75.25h-.15l-.1.05-.3.1h-.1l-.55.15-.4 1.6-.45 2.65q-.4 2-1.2 1.85-.5.05-1.2-.6l-.65-.8-1.15-1.65-4 2-.3.05-.25-.1-.15-.2-1.25-3.35-4.95.65-.4-.1-.2-.3.1-.4q2.7-3.6 4.25-7v-.05.05l.3-.8v-.05l.05-.1m21.9-27.6-.85 1.3-2.55 4.1-4 6.3-.85 1.2q1.4-.85 3-1.65l1.55-.7.75-.3.3.05.2.15.1.3.05.95.3 4.7 4.3-4.65.15-.15.15-.05.3.1.25.25.9 2.7v-1.7q0-6.05-.75-8.6l-1.5-3.65L59.7 1l-.95 1.45M54.2 14.5l-.25.1q-2.05 1.05-3.75 2.15l-.4.05-.2-.1-2.35 3.75-.2.35-.3.25h-.2l-.2-.05-.2-.3-.1-.3q-1.4-4.35-4.65-4.4l-1.45.1q-.45.1-.45.65l.2 3.1q0 5.6-1.9 10.5l-.1.25v.05l-.2.45-.05.25h-.05q-1.35 3.05-3.65 6.3l1.7-.2 2.5-.35.3.1.25.25.05.15 1.15 3 1.25-.6 2.65-1.35.3-.05.3.2 1.45 2.05 1 .95.2-1.05.45-2.6q.3-1.9.8-2.2v-.05q.15-.15.5-.2l.45-.15.15-.05.4-.1.2-.05.6-.15h-.05l6.1-1.85.2-.05 1.95.1 1.05-1.8v-.05h-.05l1.65-3.5.9-4.95.45-3.45-1.4-4.15-4.2 4.45-.35.35-.35.1-.35-.15-.15-.3-.3-5.15-.05-.9-1.25.6" fill="#4c2183"/><path d="M20 13.1h-.1q-.2 0-.35.15l-2.5 2.35.95-3.05v-.05l.7-4.05q.65-3.15 1-3.25 1 .05 2.45 1.9 1.45 1.75 2.3 3.8.65 1.7 1.1 4.4l.05.05v.05l-.2.35-.45-.75-.65-.95-.15-.45q-1.4-4.1-3.7-5.8l-.4 4.9-.05.4m5 3.75.45.35h.4l.15 2.3-.05 2.2-.5-.2-.05-.45q0-2.1-.4-4.2m33.75-14.4L59.7 1l.85 2.1 1.5 3.65q.75 2.55.75 8.6v1.7l-.9-2.7-.25-.25-.3-.1-.15.05-.4-4.8-.25-1.45-.05-.25-.9-2.95-.85-2.15M61.2 15.5l1.4 4.15-.45 3.45-.9 4.95-1.65 3.5.05.05-1.05 1.8-1.95-.1-.2.05-6.1 1.85h.05l-.6.15h-.4l-.2.15-.15.05-.45.15q-.35.05-.5.2v.05q-.5.3-.8 2.2l-.45 2.6-.2 1.05-1-.95.35-2.05.7-2.8q.3-.85 1.1-1.05l1.2-.35q1.25-1.05 4.45-2.1l4.4-1.55.45-.05q1.25-1.15 2.1-5.95.8-4.55.8-9.45m.25 38.4 2.75-.5h1.2q-1.45 5.9-8 12.6-6.95 7.05-12 7l-.15.05q-.7.2-1.85 1.35l-1.85 1.9-.05.05q-2.85 2.3-5.1 3.3l-3 1.15-3.1.4-3.5.15 3.15-.65.7-.25 1.1-.4 2.4-1.05.95-.4q2.95-1.05 5.8-2.7 1.55-.95 3.5-3.1l.55-.6.15-.15 1-.55.3-.1 1.95-.65 3.05-1.8 3.4-2.45q4.1-3.1 5.85-5.8l1.7-3.45 1.3-2.9-.05-.2-2.15-.25m-2.7 6.7h-.05l-3.05.9-2.3 1.1 2.1-2.5q2.8-2.7 4.9-2.85v.2l-1.6 3.15" fill="#a0eaf6"/><path d="m24.3 14.05-.85-.7h-.3l-.25.2h-.05l-.3.55q-.55-.5-.85-.5-.2 0-.45.45l-.25.75q0 .8.35 1.15l-.6 1-.35-3.35-.15-.35-.1-.1-.1-.45.4-4.9q2.3 1.7 3.7 5.8l.15.45" fill="#549dd0"/><path d="m22.55 14.1-1.2 1.85Q21 15.6 21 14.8l.25-.75q.25-.45.45-.45.3 0 .85.5" fill="#aaecf3"/><path d="M11.6 26.7h.15l.3-.25.8-1.65.1-.1.05-.1 2.15-4.5v.05l1.35-3.1.2.05.35-.1 2.45-2.3v.25l-1 2.85-1.3 3.45-.45-.15-.3.35q-.15.3-.15.5 0 .5.3.7l-.35.75-1.5 2.55-.2-.15-.7-.2q-.6.25-.6 1.1 0 .5.65.75l-.7 1.3-.85 1.75-.25-.25-.8-.25-.35.2h-.05l-.1.05-.2.2-.2.5q0 1.15 1.25 1.15l-.45 1.25-.55 1.75-.05.05-.6.6-.95-1.5q0-1.4.35-3.15.4-1.85.9-3.2l.4.15.75-1.05.15-.3" fill="#b488de"/><path d="m19.5 14.95.4 3.5.15.3.25.15.3-.05.25-.15 2.45-3.9.05 4.05-2.2 2.55L18.6 24l-.15.25-.1.05-.1.15-.15.25v.05q-1.85 2.75-1.95 4.65-1.65.4-3.15 1.75l-.7.7.2-.85-.15-.5.85-1.75.7-1.3.35.1.65-.35.2-.55q0-.45-.35-.7l1.5-2.55.35-.75.45.1q.85 0 .85-.85 0-.55-.5-.65h-.2l1.3-3.45 1-2.85" fill="#7761ca"/><path d="m23.3 14.8.15-.25.65.95.9 1.35q.4 2.1.4 4.2l.05.45-.45-.1h-.2l-.25-.1-.35.15q-3.95 3.3-5.45 6.2-.9 1.7-1.3 4.3h-.05l-.25-.3h-.4q-3.6 1.05-6.1 3.45l.55-1.75.45-1.25.7-1.6.15.5-.2.85.7-.7q1.5-1.35 3.15-1.75.1-1.9 1.95-4.65l-.1.55q0 .85.8.85.45 0 .7-.55l.15-.75q0-.75-.75-.75-.3 0-.45.15l.15-.25 2.55-2.6 2.2-2.55-.05-4.05" fill="#372fae"/><path d="M7.2 41.4q-.8-1.75-.8-4.8l.4-12.9-.2-3.15.05-.35h.95q1.95 0 3.05 1.45.6.8 1.3 2.75l-.2.45-.5.95-.95-1.65q-.95-1.2-1.9-1.6-.35 1.75-.35 4.1v.1h.05l.75-.2q.85 0 .85 1.25l-.25.9-.65.15-.35-.05-.1-.3-.4 8.6.05 1.7q-.55 1.2-.8 2.6m5.15-10.9-.7 1.6q-1.25 0-1.25-1.15l.2-.5.2-.2.1-.05h.05l.35-.2.8.25.25.25m23.1 6.95-1.7.2q2.3-3.25 3.65-6.3h.05l.05-.25.2-.2v-.3l.1-.25q1.9-4.9 1.9-10.5l-.2-3.1q0-.55.45-.65l1.45-.1q3.25.05 4.65 4.4-.7-.15-1.8-.95l-2.65-1.7h-.4l.1 2.05-.3 3.4-.65 2.2q.75-.3 1.3.25l.45.7.05.1.05.7q0 .9-.55 1.3l-1.3.1-1.95 4.1-.15.25-.1.2-.4.65-2.3 3.7" fill="#faf5fc"/><path d="m11.25 25.8-.1.2v.35l.25.3.2.05-.15.3-.75 1.05-.4-.15q-.5-.45-.5-2 0-1.2.5-1.75l.95 1.65" fill="#7d59ce"/><path d="M10.3 24.15q-.5.55-.5 1.75 0 1.55.5 2-.5 1.35-.9 3.2-.35 1.75-.35 3.15l.95 1.5q-1.3 1.4-2 3.05l-.05-1.7.4-8.6.1.3.35.05.65-.15.25-.9q0-1.25-.85-1.25l-.75.2-.05-.1q0-2.35.35-4.1.95.4 1.9 1.6m30 8.65-.1-.15-.55-.4-.35-.05-.9.45 1.95-4.1 1.3-.1q.55-.4.55-1.3l-.05-.7q.45.2.7 1.15l.25 1.75q0 1.6-1.4 2.7l-1.4.75" fill="#dea7ee"/><path d="m7.05 43.05.15.05.4-.05.2-.35-.05-.35-.2-.3-.35-.65q.25-1.4.8-2.6.7-1.65 2-3.05l.6-.6.05-.05q2.5-2.4 6.1-3.45h.4l.25.3-.05.4-.1.1-.2.15-.75.25-.6.2q-2.5 1-4.4 2.8v.05l-.75.8q-1.95 2.2-2.4 5.15Q8 42.7 8 43.6v.05l.1 1.3-.1.35-.3.2q-1.9.3-3.45 2.45-1.95 2.7-1.95 6.75 0 2.45.8 4.5.6 1.55 1.75 2.85l.8.9q2.9 2.75 6.55 2.75 1.9 0 3.4-.6 1.25-.55 2.25-1.45h.05q2.1-2.1 2.1-5.25 0-3.3-1.6-5.25l-.15-.2-.1-.1Q16.6 51.2 14.1 51.2q-1.35 0-2.45 1.05v.05q-1 .9-1.2 2.2l-.05.7q0 3 3.1 3l1-.2h.05l.45-.35.2-.35.35-.1.25.1.1.1.1.35-.05.35-1.05.85v-.05l-1.4.3q-4.1 0-4.1-4 0-1.05.35-1.95l.2-.4q.35-.75 1-1.3 1.4-1.35 3.15-1.35l2 .25.55.2 1.9 1.15.65.7q1.8 2.2 1.8 5.9l-.05 1.05q1.2.35 2.7 4.05.35-1.15 1.15-2.3 1.05-1.7 2.05-2.2l-.05-1.4v-.4q0-2.6.15-2.95h-.05q.3-1.45 2.1-3.75.4-.55 1.9-1.45l.5-.35 1-.55v-.05q1.25-.7 2.25-1.05l.85-.35 1.7-.3q2.55 0 4.05 1.2h-.05q1.7 1.35 1.7 4l-.05.75q-.4 2.25-3.5 3.45h-.05l-.2.05-4.85 1.25-.4-.05-.2-.3.05-.4q.1-.2.3-.2l5-1.3.45-.2q2.4-1.05 2.45-3.05v-.15q-.05-2-1.3-3.05-1.25-1-3.4-1l-.25.05q-1.45.1-4.05 1.55l-.15.05Q30.3 50.4 29.8 51.1q-1.6 2.1-1.9 3.35v.05l-.1 1.8v1.3q0 1.3.15 2l.1-.25.1.95.05.25q.45 2.1 2.05 3.6 2.2 2.05 5.6 2.05 2.8 0 6.35-1.6 3.05-1.4 5.1-3.15 1.5-1.45 2.35-4.1.65-2.2.65-4.45 0-2.6-1.65-5.35l-.1-.15v-.1q-1.35-2.15-2.4-2.85l-.25-.35.1-.35q.1-.2.3-.25l.4.1.7.55 2 2.65q1.9 3.15 1.9 6.1 0 2.3-.65 4.55l-.75.85-.15.35.2.35.1.05-1.25 2.2-.85.95-.25.15-1.85 1.4-.25-.05-.3.25-.15.25-2.55 1.3q-3.75 1.7-6.75 1.7-3.8 0-6.3-2.3-1.85-1.75-2.35-4.25l-.2-.55q-.65.5-1.35 1.65-1.35 1.95-1.35 3.65l-.1.35-.3.15-.35-.05-.2-.3q-1.55-4.45-2.55-5.1-.5 2.15-2.1 3.75l-.15.15v.05q-2.5 2.3-6.35 2.3l-1.2-.05-.05-.2-.2-.3-.4-.1-.3.25-.1.15q-2.7-.6-5-2.8v.05l-.35-.35-1.65-2.15H3l.35-.15.15-.35-.15-.35L3 60.2h-.55l-.3-.75-.05-.05q-.8-2.15-.8-4.7 0-4.45 2.15-7.35 1.65-2.3 3.65-2.75l-.1-.9v-.05l.05-.6M32 29.75l.15-.05 1.85-.1 2.85.45-.05.1v.05l-.3.8v-.05.05l-2.5-.4-1.7.1h-.1l-.35-.1-.2-.35q0-.25.15-.35l.2-.15M51.15 36q4.05 2.15 7.55 7.7 3.5 5.55 3.35 8.65l-.05.4-.95.2-.05-.3.05-.15q.2-2.85-3.2-8.25-3.75-5.95-8.1-7.85h.15q.2-.15.75-.25l.5-.15m-1.35-.65-.2.05-.4.1.2-.15h.4M37.5 31.1l.2-.45v.25l-.2.2m-9.55 28.5v.05-.05M39 54.85h.05H39" fill="#253a85"/><path d="M3.1 59.2q-.8-2.05-.8-4.5 0-4.05 1.95-6.75Q5.8 45.8 7.7 45.5l.3-.2.1-.35-.1-1.3v-.05q0-.9.15-1.75.45-2.95 2.4-5.15l.75-.8v-.05q1.9-1.8 4.4-2.8l.05.05q-1.9 1.1-3.05 3.05l.8 1.15q.7 1.2.7 2.6v.7q-.25 2.25-1.9 3.75-1.6 1.5-3.85 1.65-.8.05-2.35 3.15-1.65 3.4-1.65 6.1 0 2.4.4 3.1l1.7 2.35-1.6-1q-1.05-.55-1.55-.55l-.3.05M18.3 46l.4.35q.5.65.5 1.95l-.05.7-.2.7q-.55.95-2 .95h-.3l-.55-.2-.55-.35q-.9-.7-.9-1.75l.2-1.05.5-.85.45-.5q.4-.3 1.15-.3.8 0 1.35.35" fill="#92e7f4"/><path d="m25.95 21.7-.05.6.15.35.35.15.35-.1.15-.35v-.1q1.65 1.15 3.35 3.9l1.75 3.6-.2.15q-.15.1-.15.35l.2.35.35.1h.1q.4 1.6.3 3.05L32.5 35q-.35 2.8-1.3 6.35v.05q-2.6 6.55-6.55 6.5l-1.2-.1-.1-.05q-2.45-.55-4.15-3.4-2.1-3.35-2.1-8.25 0-1.95.25-3.65v-.1l.1-.4q.4-2.6 1.3-4.3 1.5-2.9 5.45-6.2l.35-.15.25.1h.2l.45.1.5.2m5.65 11.45q-.05-2.9-2.2-6.5-2-3.25-3.9-4.05l-.65-.2-.2-.05-.95.85q-2.85 2.6-4.05 4.9-.9 1.75-1.25 4.2-.3 1.75-.3 3.8 0 4.6 1.95 7.75 1.2 2.05 2.9 2.7l.45.2 1.25.15.5-.05q3-.45 5.1-5.8 1.15-4.25 1.35-7.35v-.55m-7.9 8.4q-.7-.2-1.3-1.05l-.65-1.25L21.1 37l-.15-1.85q0-3.8 1.65-5.25.4-.4.95-.65l.5-.15.15-.05q.4-.05.85.3.65.45 1.4 1.7Q27.5 33 27.5 34.8q0 2-.55 3.9-.8 2.7-2.35 2.9h-.35l-.55-.05m2.7-7.95-.8-2.05-.5-.8-.25-.25-.6-.45q-.4.15-.75.45l-.45.45q-1.1 1.3-1.1 4.2 0 1.7.55 3.25l.1.15v.05l.1.25h-.05v.05l.1.2.6.95.4.4.5.15.3-.05q.9-.35 1.45-2.15.5-1.8.5-3.6v-.15l-.05-.6-.05-.45m3.85 7.45v.05-.05" fill="#5d2a0f"/><path d="M25.35 23.75h-.05l-.2-.1-1.05-.3-.35.05-.15 5.85q-.55.25-.95.65l-.35-1-.6-1.7q-1.6 1.7-2.2 3.35-.6 1.65-.6 4.25 0 2.25 1.1 5.15.8 2.15 1.6 3.35l.85-2.8q.6.85 1.3 1.05l-.25 4.8-.05.4-.45-.2q-1.7-.65-2.9-2.7-1.95-3.15-1.95-7.75 0-2.05.3-3.8.35-2.45 1.25-4.2 1.2-2.3 4.05-4.9l.95-.85.2.05.65.2q1.9.8 3.9 4.05 2.15 3.6 2.2 6.5l-.25-.7-.1-.2-2.15-4.05q-2.1-3.5-3.75-4.45" fill="#f6f5c4"/><path d="m23.55 29.25.15-5.85.35-.05 1.05.3.2.1h.05l.05 1.2-.35 4.4q-.45-.35-.85-.3l-.15.05-.5.15m-.1 17.1.25-4.8.55.05h.35l.45 4.45-1.6.3" fill="#9c4d26"/><path d="M25.35 23.75q1.65.95 3.75 4.45l2.15 4.05.1.2q.2 2.65-2.2 8.1-2 4.4-4.1 5.5l-.45-4.45q1.55-.2 2.35-2.9.55-1.9.55-3.9 0-1.8-1.05-3.75-.75-1.25-1.4-1.7l.35-4.4-.05-1.2m.8 4.5q-.4.3-.4.95l.45.75.6.35q.9 0 .9-1.3l-.25-.75q-.3-.35-.65-.35l-.3.2-.35.15" fill="#d67533"/><path d="m22.4 40.5-.85 2.8q-.8-1.2-1.6-3.35-1.1-2.9-1.1-5.15 0-2.6.6-4.25t2.2-3.35l.6 1.7.35 1q-1.65 1.45-1.65 5.25L21.1 37l.65 2.25.65 1.25m3.75-12.25.35-.15.3-.2q.35 0 .65.35l.25.75q0 1.3-.9 1.3l-.6-.35-.45-.75q0-.65.4-.95" fill="#eace37"/><path d="M22.5 38.4q-.55-1.55-.55-3.25 0-2.9 1.1-4.2l.45-.45q.35-.3.75-.45l.6.45.25.25.5.8.8 2.05-.45-.65q-.75-.95-1.75-1.2h-.05L23 33.3q1.1.4 1.1 2.75l-.3 1.45q-.35.55-.35 1.15l.05.65q-.3-.05-.7-.5l-.2-.25-.1-.15" fill="#90f4a9"/><path d="m23.5 39.3-.05-.65q0-.6.35-1.15l.3-1.45q0-2.35-1.1-2.75l1.15-1.55h.05q1 .25 1.75 1.2l.45.65.05.45.05.6v.15q-1.95 4.5-2.95 4.5h-.05" fill="#31b353"/><path d="M18.45 24.25q.15-.15.45-.15.75 0 .75.75l-.15.75q-.25.55-.7.55-.8 0-.8-.85l.1-.55.35-.5" fill="#6845e7"/><path d="M17.2 21.25h.2q.5.1.5.65 0 .85-.85.85l-.45-.1q-.3-.2-.3-.7 0-.2.15-.5l.3-.35.45.15m-2.45 4.7q.35.25.35.7l-.2.55-.65.35-.35-.1q-.65-.25-.65-.75 0-.85.6-1.1l.7.2.2.15" fill="#dd9ff1"/><path d="m16.3 32.85.75-.25.2-.15h.1q-.25 1.7-.25 3.65 0 4.9 2.1 8.25 1.7 2.85 4.15 3.4l.1.05 1.2.1q3.95.05 6.55-6.5v-.05q.95-3.55 1.3-6.35l.1-1.25q.1-1.45-.3-3.05l1.7-.1 2.5.4q-1.55 3.4-4.25 7l-.1.4.2.3.4.1 4.95-.65 1.25 3.35.15.2.25.1.3-.05 4-2 1.15 1.65.65.8q.7.65 1.2.6.8.15 1.2-1.85l.45-2.65.4-1.6.55-.15h.1l.3-.1h.05q3.4 2.65 6.4 8 3.05 5.5 2.85 8.95l-1.6.45h.05q-4.3 1.15-6.75 3.6.65-2.25.65-4.55 0-2.95-1.9-6.1l-2-2.65-.7-.55-.4-.1q-.2.05-.3.25l-.1.35.25.35q1.05.7 2.4 2.85v.1l.05.15q.75 2.6.75 4.95 0 5.55-3.55 8.45-1.9 1.55-4.45 2.15 1.05-.5 1.8-2.2.75-1.65.75-3.6 0-2.9-1.05-4.95l.05-.75q0-2.65-1.7-4h.05q-1.5-1.2-4.05-1.2l-1.7.3-.85.35q-1 .35-2.25 1.05v.05l-1 .55-.5.35q-1.5.9-1.9 1.45-1.8 2.3-2.1 3.75h.05q-.15.35-.15 2.95v.4l.05 1.4q-1 .5-2.05 2.2-.8 1.15-1.15 2.3-1.5-3.7-2.7-4.05L21 58.4q0-3.7-1.8-5.9l-.65-.7.4-1.7v-.4l.2-.7.05-.7q0-1.3-.5-1.95l-.4-.35-1.05-2.05Q16.2 42.4 14.2 40.6v-.7q0-1.4-.7-2.6l-.8-1.15q1.15-1.95 3.05-3.05l.55-.25m20.65 14.6.25-.05q2.15 0 3.4 1 1.25 1.05 1.3 3.05v.15q-.05 2-2.45 3.05l.15-1.25q0-4.2-2.65-5.95M24.4 51.1q0-2.15-2.5-2.15h-.75l-.65.4q-.4.6-.4 1.6 0 1.05.7 1.75.65.7 1.65.7.95 0 1.5-.8l.45-1.5" fill="#1e48eb"/><path d="m22.6 38.55.2.25q.4.45.7.5h.05q1 0 2.95-4.5 0 1.8-.5 3.6-.55 1.8-1.45 2.15l-.3.05-.5-.15-.4-.4-.6-.95-.1-.2.05-.05-.1-.25v-.05" fill="#206933"/><path d="M14.2 40.6q2 1.8 3.05 3.35L18.3 46q-.55-.35-1.35-.35-.75 0-1.15.3l-.1.05-.35.45-.5.85-.2 1.05q0 1.05.9 1.75l.55.35-2-.25q-1.75 0-3.15 1.35-.65.55-1 1.3l-.2.4q-.35.9-.35 1.95 0 4 4.1 4l1.4-.3v.05l1.05-.85v.55q0 2.35-1.7 4l-2.6 1.65q.85-1.15.85-1.65 0-2.95-3.1-2.95l-1.55.2q-.35.15-1.3.8l-1.7-2.35q-.4-.7-.4-3.1 0-2.7 1.65-6.1 1.55-3.1 2.35-3.15 2.25-.15 3.85-1.65 1.65-1.5 1.9-3.75m4.75 9.1v.4l-.4 1.7-1.9-1.15h.3q1.45 0 2-.95m40 3.7q.2-3.45-2.85-8.95-3-5.35-6.4-8l.05-.05q4.35 1.9 8.1 7.85 3.4 5.4 3.2 8.25l-.05.15.05.3-1.9.4-.2.05M24.4 51.1l-.45 1.5q-.55.8-1.5.8-1 0-1.65-.7-.7-.7-.7-1.75 0-1 .4-1.6l.65-.4h.75q2.5 0 2.5 2.15" fill="#5898f0"/><path d="m31.35 32.45.25.7v.55q-.2 3.1-1.35 7.35-2.1 5.35-5.1 5.8l-.5.05-1.25-.15.05-.4 1.6-.3q2.1-1.1 4.1-5.5 2.4-5.45 2.2-8.1" fill="#a0eaf5"/><path d="m55.8 12.7-.75.3-1.55.7q-1.6.8-3 1.65l.85-1.2 4-6.3 2.55-4.1.85-1.3.85 2.15-1.3 2.65-1.45 2.9q.7.1.7.55 0 .7-1.05 1.35l-.7.65" fill="#f6fbfc"/><path d="m56.45 14.15-.05-.95-.1-.3-.2-.15-.3-.05.7-.65q1.05-.65 1.05-1.35 0-.45-.7-.55l1.45-2.9 1.3-2.65.9 2.95.05.25-4.1 6.35" fill="#8bcae4"/><path d="M59.05 13.15q.85 0 .85.75l-.35.95q-.4.5-.9.5-.75 0-.75-.95 0-.65.45-.95l.3-.15v-.05l.4-.1" fill="#9eeef3"/><path d="m61.2 14.05-.15.15-4.3 4.65-.3-4.7 4.1-6.35.25 1.45.4 4.8m-2.15-.9-.4.1v.05l-.3.15q-.45.3-.45.95 0 .95.75.95.5 0 .9-.5l.35-.95q0-.75-.85-.75" fill="#539dd0"/><path d="m55.5 14.8.3 5.15.15.3.35.15.35-.1.35-.35h.3q1.9 0 2.35-.6v.5l-.15 1.35-.15 1.2q-1.05 3.1-2.45 4.8-1.75 2.2-5 3.25-3.3 1.05-5.65 2.65-.15-.85-.9-.85-.6 0-1.1.5-.45.45-.45.95 0 .6.6.85-1.25 1.2-2.15 2.65l-.4-.3-.45-.05q-.4 0-.65.35-.3.35-.3.85 0 .45.45.7l.45.2-.4 1.05-1.25.6-1.15-3 4.55-6.4 1.6-2.05.75.25q.5 0 .8-.6l.2-.95-.15-.7 2.65-3.3.5.1q.95 0 .95-1.2l-.15-.6 5.25-7.35m-2.15 7.35.55.3q.75 0 .75-1 0-.95-.75-.95-.8 0-.8 1l.25.65m-1.5 5.15-.1.45q0 .7.6 1.05l.85.25.65-.45.2-.65q0-1.1-1.4-1.1l-.55.15-.2.2-.05.1" fill="#834cc6"/><path d="m57 19.95 4.2-4.45q0 4.9-.8 9.45-.85 4.8-2.1 5.95h-.35l-.1.05-4.4 1.55q-3.2 1.05-4.45 2.1l-1.2.35q-.8.2-1.1 1.05l-.7 2.8-.35 2.05-1.45-2.05-.3-.2-.3.05L40.95 40l.4-1.05.9-1.75q.9-1.45 2.15-2.65l.4-.35q.65-.6 1.45-1.1 2.35-1.6 5.65-2.65 3.25-1.05 5-3.25 1.4-1.7 2.45-4.8l.15-1.2.15-1.35v-.5q-.45.6-2.35.6H57" fill="#3731af"/><path d="m47.25 20.45 2.35-3.75.2.1.4-.05q1.7-1.1 3.75-2.15l.25-.1-2.4 3.55q-2.15 3.05-3.5 3.05l-.75-.25-.3-.4" fill="#f8fafc"/><path d="m54.2 14.5 1.25-.6.05.9-5.25 7.35-.1-.15q-.25-.3-.6-.3l-.15.05q-.75.05-.9.3v.05l-.05.65q0 .8.5 1.1l-2.65 3.3q-.25-.4-.8-.4h-.55l-.1.15-.25.3q-.25.4-.25.95 0 .7.35 1l-1.6 2.05-4.55 6.4-.05-.15-.25-.25-.3-.1-2.5.35 2.3-3.7.3.6q.35.4 1 .4l.85-.25q.65-.4.65-1.1l-.25-.6 1.4-.75q1.4-1.1 1.4-2.7l-.25-1.75q-.25-.95-.7-1.15l-.05-.1-.45-.7q-.55-.55-1.3-.25l.65-2.2.3-3.4-.1-2.05h.2q.85.85 1.75 3.3 1 2.9.85 4.3 1.8-1.6 2.55-4.3h.2l.3-.25.2-.35.3.4.75.25q1.35 0 3.5-3.05l2.4-3.55" fill="#b092e0"/><path d="m46.05 20.4.1.3.2.3.2.05q-.75 2.7-2.55 4.3.15-1.4-.85-4.3-.9-2.45-1.75-3.3h.2l2.65 1.7q1.1.8 1.8.95" fill="#7365cf"/><path d="m49.4 21.75.15-.05q.35 0 .6.3l.1.15.15.6q0 1.2-.95 1.2l-.5-.1q-.5-.3-.5-1.1l.05-.65.5-.2.4-.15" fill="#e6e3f6"/><path d="m53.35 22.15-.25-.65q0-1 .8-1 .75 0 .75.95 0 1-.75 1l-.55-.3" fill="#cbccf6"/><path d="m46.3 27.15.15.7-.2.95q-.3.6-.8.6l-.75-.25 1.6-2" fill="#e48def"/><path d="M44.7 29.15q-.35-.3-.35-1 0-.55.25-.95l.25-.3.1-.15h.55q.55 0 .8.4l-1.6 2m-6.3 3.5.9-.45.35.05.55.4.1.15.25.6q0 .7-.65 1.1l-.85.25q-.65 0-1-.4l-.3-.6.4-.65.1-.2.15-.25" fill="#f4f0fa"/><path d="m52.1 27 .55-.15q1.4 0 1.4 1.1l-.2.65-.65.45-.85-.25q-.6-.35-.6-1.05l.1-.45.25-.3" fill="#daa6f2"/><path d="m41.35 38.95-.45-.2q-.45-.25-.45-.7 0-.5.3-.85.25-.35.65-.35l.45.05.4.3-.9 1.75m3.05-4.4q-.6-.25-.6-.85 0-.5.45-.95.5-.5 1.1-.5.75 0 .9.85-.8.5-1.45 1.1l-.4.35" fill="#e584ef"/><path d="m62 52.75 2.05-.35H66l.3.1.15.2.05.3q-1.25 6.4-8.4 13.7-7.3 7.4-12.6 7.3l-1.4 1.1-1.95 2-.05.05q-2.95 2.4-5.3 3.4l-3.15 1.2h-.05l-3.25.45-6.25.2q-2.7 0-6.45-1.7-3.65-1.6-4.25-3.35l-.1-.25q-1.35-.15-3.15-1.2-2.35-1.35-5.2-4.2-2.9-2.85-4.9-9.95L0 61.6v-.7l.15-.35q.15-.15.35-.15l.6-.15.2-.05H3l.35.15.15.35-.15.35-.35.15H1.45l-.45.15v.2q1.95 6.7 4.65 9.45 2.75 2.75 5 4.05 1.35.75 2.4 1L13 75.8l-.15-.8-.65-1.85-1.15-2.45q-.6-1.75-1.1-4.05v-.2l.1-.15.3-.25.4.1.2.3.05.2q.6 2.8 1.4 4.65l.65 1.35.85 2.55.1.4.25.85v.3l.05.15.05.05q.5 1.45 3.7 2.85 3.55 1.6 6.05 1.6l1.7-.05h1l3.5-.15 3.1-.4 3-1.15q2.25-1 5.1-3.3l.05-.05 1.85-1.9q1.15-1.15 1.85-1.35l.15-.05q5.05.05 12-7 6.55-6.7 8-12.6h-1.2l-2.75.5-2.65.6-1.15.3q-4.65 1.3-7 4.15l-.35.15-.25-.05-.1-.05-.2-.35.15-.35.75-.85q2.45-2.45 6.75-3.6h-.05l1.6-.45.2-.05 1.9-.4.95-.2m-5 4.8q1.95-1.35 3.6-1.35.2 0 .35.15l.15.35-.15.35-.35.15-.25.05q-2.1.15-4.9 2.85l-2.1 2.5 2.3-1.1 3.05-.9h.05l.35.1.2.3-.05.4-.35.2-1.1.3-1.8.55q-1.9.75-3.75 2.05l.05-.1.05-.4-.25-.3h-.4l-.3.25q1.2-2.45 3.35-4.55 1.15-1.1 2.25-1.85m-11.15 6.2.15.05.2.3-.1.4q-.35.45-.85 1.6l-.85 2.15-.2.3-.4.05-.3-.2q-.15-.2-.05-.4.15-.9.9-2.35l.8-1.45.15-.25.3-.25.25.05m-41.2 1q1.2.7 2.8 2.15l.05.05.45.4.05.05q1.5 1.35 2.6 2.85l.1.4-.2.3-.35.1-.35-.2-2.35-2.6-1.2-.1H6.2l-.65-.05-.8-.2-.3-.3v-.35l.25-.3h.4l1.1.2-1.3-1.05q-.7-.5-1.2-.75l-.25-.3v-.35l.3-.25h.4l.5.3m19.1 10.6.2-.2.3-.05q.65.1 1.5.8 1.3 1 1.3 2.35 0 1-.85.95h-.1l-1.25-.25-.8.1-.25-.05-.2-.2-.1-.25.15-2.95.1-.25m1.4 1.35-.5-.35-.1 1.65.2-.05h.05l1.25.2q-.05-.8-.9-1.45" fill="#32216f"/><path d="M26.8 81.35h-1l-1.7.05q-2.5 0-6.05-1.6-3.2-1.4-3.7-2.85l-.05-.05-.05-.15v-.3L14 75.6l-.1-.4-.85-2.55-.65-1.35 1.35.55 2.3.45q1.7 0 3-1.05l.5-.45v.45L17.6 74q-1.05 1.2-1.65 1.2l.25 1.6q.3 1.2 1.25 1.5 2.1.5 3.85 1.35 1.85.8 3.25 1l3.5.1 1.9-.05-3.15.65M12.85 75l.15.8.05.25q-1.05-.25-2.4-1-2.25-1.3-5-4.05-2.7-2.75-4.65-9.45v-.2l.45-.15h1.5l1.65 2.15v.15l.05 1.25-.5-.3h-.4l-.3.25v.35l.25.3q.5.25 1.2.75l.2.85h-.4l-.25.3v.35l.3.3.8.2q.8 1.9 2.4 3.55 2.3 2.45 4.9 3.35m37.2-15.95.25.05.35-.15q2.35-2.85 7-4.15l1.15-.3 2.65-.6 2.15.25.05.2-1.3 2.9-1.7 3.45q-1.75 2.7-5.85 5.8l-3.4 2.45-3.05 1.8-1.95.65.2-.8.25-.8q.35-.55 2-1.15 2.05-.8 3.1-1.55l5.15-4.45.7-.75 1.1-.3.35-.2.05-.4-.2-.3-.35-.1 1.6-3.15v-.2l.25-.05.35-.15.15-.35-.15-.35q-.15-.15-.35-.15-1.65 0-3.6 1.35-3.35 1.05-8.2 3.7l1.25-2.2M29.8 71.5q.55 1.5 2.6 2.6l-.45.35-1.05.1q-2.05 0-2.05-1.25 0-1.15.95-1.8" fill="#e0d5f5"/><path d="M12.4 71.3q-.8-1.85-1.4-4.65l1.2.05q3.85 0 6.35-2.3v-.05l.15-.15q1.6-1.6 2.1-3.75 1 .65 2.55 5.1l.2.3.35.05.3-.15.1-.35q0-1.7 1.35-3.65.7-1.15 1.35-1.65l.2.55q.5 2.5 2.35 4.25 2.5 2.3 6.3 2.3 3 0 6.75-1.7l2.55-1.3-.8 1.45q-.75 1.45-.9 2.35-.1.2.05.4l.3.2.4-.05.2-.3.85-2.15q.5-1.15.85-1.6l.1-.4-.2-.3-.15-.05 1.85-1.4.25-.15.85-.95q4.85-2.65 8.2-3.7-1.1.75-2.25 1.85-2.15 2.1-3.35 4.55l.3-.25h.4l.25.3-.05.4-.05.1q1.85-1.3 3.75-2.05l1.8-.55-.7.75-5.15 4.45q-1.05.75-3.1 1.55-1.65.6-2 1.15l-.25.8-.2.8-.3.1-1 .55-.2.15-.5.6q-1.95 2.15-3.5 3.1-2.85 1.65-5.8 2.7l-.95.4q1.7-1.3 3.15-3.3-3.1-.65-4.9-1.6-2.05-1.1-2.6-2.6l-.25-1.25.25-1.6q-1.2 0-2.05-1l-1.9-2.85q-.3 0-1.1.7l-1.1.7-1.1-1.2-1.05-1.3-.85.95q-.85.8-.85 1.05.25.1.5.85l.2 1.7q0 1.2-.6 2.15l-.35.4-.5.45q-1.3 1.05-3 1.05l-2.3-.45-1.35-.55m-2.45-4.85v.2q.5 2.3 1.1 4.05l1.15 2.45.65 1.85q-2.6-.9-4.9-3.35-1.6-1.65-2.4-3.55l.65.05h.05l1.2.1 2.35 2.6.35.2.35-.1.2-.3-.1-.4Q9.5 68.75 8 67.4l-.05-.05-.45-.4-.05-.05q-1.6-1.45-2.8-2.15L4.6 63.5v-.15l.35.35v-.05q2.3 2.2 5 2.8M4.9 66.1l1.3 1.05-1.1-.2-.2-.85" fill="#7d69c3"/><path d="M41.35 63.1q2.55-.6 4.45-2.15 3.55-2.9 3.55-8.45 0-2.35-.75-4.95h.05q1.65 2.75 1.65 5.35 0 2.25-.65 4.45-.85 2.65-2.35 4.1-2.05 1.75-5.1 3.15-3.55 1.6-6.35 1.6-3.4 0-5.6-2.05-1.6-1.5-2.05-3.6l-.05-.25-.1-.95-.1.25q-.15-.7-.15-2v-1.3l.6-.1q.8 0 1.25.4v1.3q2.35 5.55 8.15 5.55l3.55-.35" fill="#f5f3fd"/><path d="M42.85 52.35q1.05 2.05 1.05 4.95 0 1.95-.75 3.6-.75 1.7-1.8 2.2l-3.55.35q-5.8 0-8.15-5.55v-1.55q1.2.45 3.4-.4 2.45-.95 2.45-2.9 0-2.95-2.75-4l.15-.05q2.6-1.45 4.05-1.55 2.65 1.75 2.65 5.95l-.15 1.25-.45.2-5 1.3q-.2 0-.3.2l-.05.4.2.3.4.05 4.85-1.25.2-.05h.05q3.1-1.2 3.5-3.45" fill="#75daf2"/><path d="m34.15 79-2.4 1.05-1.1.4-.7.25-1.9.05-3.5-.1q-1.4-.2-3.25-1-1.75-.85-3.85-1.35-.95-.3-1.25-1.5l-.25-1.6q.6 0 1.65-1.2l1.95-2.75v-.45l.35-.4q.6-.95.6-2.15l-.2-1.7q-.25-.75-.5-.85 0-.25.85-1.05l.85-.95 1.05 1.3 1.1 1.2 1.1-.7q.8-.7 1.1-.7l1.9 2.85q.85 1 2.05 1l-.25 1.6.25 1.25q-.95.65-.95 1.8 0 1.25 2.05 1.25l1.05-.1.45-.35q1.8.95 4.9 1.6-1.45 2-3.15 3.3m-10.4-3.65-.1.25-.15 2.95.1.25.2.2.25.05.8-.1 1.25.25h.1q.85.05.85-.95 0-1.35-1.3-2.35-.85-.7-1.5-.8l-.3.05-.2.2" fill="#b7a1e1"/><path d="m27.8 56.3.1-1.8v-.05q.3-1.25 1.9-3.35.5-.7 2.95-2.05 2.75 1.05 2.75 4 0 1.95-2.45 2.9-2.2.85-3.4.4v.25q-.45-.4-1.25-.4l-.6.1" fill="#94e9f6"/><path d="m15.95 58.1.05-.35-.1-.35-.1-.1-.9-2.5-2.3.5q-1.35 0-2.15-.8.2-1.3 1.2-2.2v-.05q1.1-1.05 2.45-1.05 2.5 0 4.05 1.65l.1.1.15.2Q20 55.1 20 58.4q0 3.15-2.1 5.25h-.05q-1 .9-2.25 1.45l-1.25.05-1.45-.05q-.55-.1-1.4-.65l.15-.15 2.6-1.65q1.7-1.65 1.7-4v-.55" fill="#1e60eb"/><path d="m15.8 57.3-.25-.1-.35.1-.2.35-.45.35h-.05l-1 .2q-3.1 0-3.1-3l.05-.7q.8.8 2.15.8l2.3-.5.9 2.5" fill="#61cbf0"/><path d="M15.6 65.1q-1.5.6-3.4.6-3.65 0-6.55-2.75l-.8-.9Q3.7 60.75 3.1 59.2l.3-.05q.5 0 1.55.55l1.6 1q.95-.65 1.3-.8l1.55-.2q3.1 0 3.1 2.95 0 .5-.85 1.65l-.15.15q.85.55 1.4.65l1.45.05 1.25-.05" fill="#f0f7fd"/><path d="M25.15 76.7q.85.65.9 1.45l-1.25-.2h-.05l-.2.05.1-1.65.5.35" fill="#fefefe"/><path d="M38.6 68.1q-.25.05-.4.2l-.05.05-.15.25q-.1.35-.05 1.1-.2.65-.9 1.35-.9.85-1.7.85h-.3v-.25q0-.85-1.1-.9-.4-.85-.25-2h-.1q-.4.25-1.05 1.3l-.1.2-.3-1.85.85-.65h.05l3.05.1q1.75 0 4.8-.8l.4-.15-.45 2.45-.3-.45q-.7-.9-1.3-.9l-.65.1m-22.05-1.75 1.45 1.5q-.85 0-.85.85 0 .7.8.75-.05 1.25-1.1 1.25h-.1q-.15-.8-.9-.8h-.1l-.15-.35q-.1-.2-.05-.95.05-.35-.55-.35l-.4.05-.2-1.3 2.15-.65" fill="#4a1a20"/><path d="M38.15 68.35h.05v.35q0 1.1.65 1.1t.65-.7q0-.95-.85-.95l-.05-.05.65-.1q.6 0 1.3.9l.3.45-.5 1.55q-.55 1.15-1.3 1.75-.85.5-1.95.5-2.3 0-3.4-.75l-.05-.05-.3-.25q-.6-.6-.9-1.85l.1-.2q.65-1.05 1.05-1.3h.1q-.15 1.15.25 2h-.1l-.05.05q-.15.05-.25.2-.15.25-.15.45 0 .35.35.7.3.3.6.3.6 0 .7-.55h.3q.8 0 1.7-.85.7-.7.9-1.35-.05-.75.05-1.1l.15-.25m-19.3.95.3 1.3-.15.8-.3.1-.95.05-1.05-.2.05-.35v-.3h.1q1.05 0 1.1-1.25h.15l.75-.15m-3.6.75-.65-1.75.4-.05q.6 0 .55.35-.05.75.05.95l.15.35q-.3 0-.5.15" fill="#c54255"/><path d="M38.2 68.35h.05q.1-.15.25-.15l.15-.05q.85 0 .85.95 0 .7-.65.7t-.65-1.1v-.35m-3.15 3.55q-.1.55-.7.55-.3 0-.6-.3-.35-.35-.35-.7 0-.2.15-.45.1-.15.25-.2l.05-.05h.1q1.1.05 1.1.9v.25" fill="#fcf8f9"/><path d="m42.9 66.1-.1-.65.1-.35.2-.15h.05l.1-.05.3.05.05.05.2.25v.15l.2 1.8v.05q0 2.95-1.1 4.45-1.05 1.5-3.4 1.85l.1-.05v-.05l1.25-1.35 1.25-1q.9-1.3.9-3.8l-.1-1.2m-26.05 6.35.9.1 1.1-.05h.1l.15-.05q-1.05 1.05-2.85 1.05-4.9.05-4.9-6.8v-.05l.15-.35q.15-.15.35-.15l.35.15.15.35v.5q.15 5.3 3.9 5.35l.6-.05m14.35-4.5h-.05l-.05.25.1.9-.4 1.05-.4 1.3 1.4.55.25.05.6.75.4.35.15.1-1.7-.3-1.95-.8-.2-.25v-.3l.5-1.75q.45-1.4.85-1.8.15-.15.35-.15l.15.05" fill="#32216f"/><path d="m43.1 64.95-.2.15-.1.35.1.65-.35.2h-.05l-.15.1-.1-.3-.35-.2-.35.1-.2.35-.05.55-.4.15q-3.05.8-4.8.8l-3.05-.1.15-.3-.1-.4-.3-.2h-.15l.1-.05.35-.1 3 .15 4.55-.75 1.35-.65.05-.05 1.05-.45m-26.8.4-.1.1-.1.4.2.3.25.2-2.15.65v-.45l-.15-.35-.35-.15h-.05l-.3.15-.15.35v.55l-1.05.05v-.5l-.15-.35-.35-.15 2-.1 2.45-.7" fill="#253a85"/><path d="M32.45 70.25q.3 1.25.9 1.85l.3.25.05.05q1.1.75 3.4.75 1.1 0 1.95-.5.75-.6 1.3-1.75l.5-1.55.45-2.45.05-.55.2-.35.35-.1.35.2.1.3v.05q-.3 2.6-.8 4.1l-.3.75-.4.8-1.25 1.35v.05l-.1.05q-1.05.6-2.4.6-2.6 0-3.9-.9l-.15-.1-.4-.35-.6-.75-.2-.45q-.5-1-.65-2.5l-.1-.9.05-.25h.05l.1-.2 1.1-.8.25-.1h.15l.3.2.1.4-.15.3H33l-.85.65.3 1.85m-16.15-4.9.25-.1.2.05h.05l.1.05q1.25.95 2.15 2.25l.4.65q.7 1.2.7 2.35 0 1.2-.6 1.6v.05l-.45.2-.15.05h-.1l-1.1.05-.9-.1q-.65-.15-1.15-.5l-1.15-1.1-.05-.1q-.65-1-.9-2.3l-.2-1.35v-.55l.15-.35.3-.15h.05l.35.15.15.35V67l.2 1.3.65 1.75.1.15q.55.8 1.35 1.15l1.05.2.95-.05.3-.1.15-.8-.3-1.3-.65-1.15-.05-.05-.15-.25-1.45-1.5-.25-.2-.2-.3.1-.4.1-.1" fill="#3b1218"/><path d="m42.9 66.1.1 1.2q0 2.5-.9 3.8l-1.25 1 .4-.8.3-.75q.5-1.5.8-4.1v-.05l.15-.1h.05l.35-.2m-29.5 1 .2 1.35q.25 1.3.9 2.3l.05.1 1.15 1.1q.5.35 1.15.5l-.6.05q-3.75-.05-3.9-5.35l1.05-.05m17.8 2q.15 1.5.65 2.5l.2.45-.25-.05-1.4-.55.4-1.3.4-1.05" fill="#fff"/><path d="m18 67.85.15.25.05.05.65 1.15-.75.15h-.15q-.8-.05-.8-.75 0-.85.85-.85m-1.3 3.5q-.8-.35-1.35-1.15l-.1-.15q.2-.15.5-.15h.1q.75 0 .9.8v.3l-.05.35" fill="#fffefe"/></g><g id="j"><path d="M8.75 9.7q2.3-2.5 2.4-3.05l-.35.05-.85.15q-1.7.45-4.5 2.5l-.35.25q-4 2.9-4.1 4.6 0 1.2.6 1.6v.05l.5.15 1.7.1 2.2-.25 2.15-.8q1.7-.85 1.8-1.4-.1-.45-1.75-.5l-2.15.2h-.3l-.05-.05h-.05l-.2-.3-.05-.15.05-.2.2-.2.05-.05h.05l3-2.65V9.7M7.4 16.45l-1.3.4-2.3.25-2.6-.35-.1-.05-.55-.45-.1-.15Q0 15.4 0 14.2q-.1-2.1 4.5-5.4l.9-.6q3.2-2.25 5-2.45l.4-.05q1.45 0 1.35.95.05.65-1.75 2.75l-.9 1h-.05L7.8 12.05l-.1.1h.5q2.85.05 2.75 1.5.1 1.05-2.35 2.3l-.9.4-.3.1" fill="#193354" fill-rule="evenodd" transform="translate(0 .5)"/><path d="m9.95 6.85.85-.15.35-.05q-.1.55-2.4 3.05v.05l-3 2.65v-.05q.65-1.4 1.8-2.45l1.6-2 .4-.55.4-.5" fill="#b8eff8" fill-rule="evenodd" transform="translate(0 .5)"/><path d="m7.7 16.35.9-.4q2.45-1.25 2.35-2.3.1-1.45-2.75-1.5h-.5l.1-.1 1.65-1.65h.05l.9-1 2.25-.15.8-.05-.05.35.05.3-1.25 1.35-.55.5.45 3.1v.05l1.75-.25h.1l4.7.65q1.2.35 2.1.95l1.7 1.7.8 1.4-.45 1.1-2 2.45-.05-.15-.9-2.25-.1-.15-1-1.3-.45-.45q-.9-.85-1.25-.95l-3.6-1.1-.25-.05-4-.3-1.5.2" fill="#7d69c3" fill-rule="evenodd" transform="translate(0 .5)"/><path d="M13.9 9.15h.25l1.1-.05 4.1.3q3.95 0 5.8-2.1 1.45-1.7 2.7-6.1l.75.95.1.15.05.15-.25 1.2-.3 1.05q-.95 2.85-3.15 4.95-2.85 2.7-6.5 2.85h-.45q-1.9 0-3.05-.6l-.3-.15q-1.2-.7-1.3-1.9l.45-.7" fill="#e0d5f5" fill-rule="evenodd" transform="translate(0 .5)"/><path d="m29.95 9.8-.05.05h.1l2.15-.3.15-.05 2.9-1 .2-.1q-.5 1.95-2.3 3.8l-.1.05q-2.1 2.1-4.4 2.7l2.6.55-.1.2h-.3l.25.1-.15.45q0 .55.75 1.05l1.35.95-.3.05-1.05.05q-1.55 0-2.75-.65l-.5-.35-2.75-1.8-.25-.15-1.15-.6-1.05.15.2 2.75-.15 1.6-.8-1.4-1.7-1.7q-.9-.6-2.1-.95l-4.7-.65h-.1l-1.75.25v-.05l-.45-3.1.55-.5 1.25-1.35q.1 1.2 1.3 1.9l.3.15q1.15.6 3.05.6h.45q3.65-.15 6.5-2.85 2.2-2.1 3.15-4.95l.1.25.6 2q.35 1.5.8 2.4l.05.05.2.4" fill="#b7a1e1" fill-rule="evenodd" transform="translate(0 .5)"/><path d="M1.6 15.8q-.6-.4-.6-1.6.1-1.7 4.1-4.6l.35-.25q2.8-2.05 4.5-2.5l-.4.5-.4.55q-2.1 1-3.65 2.15l-1.85 1.5.3.8q0 1.6-1.45 2.8l-.9.65" fill="#d9f7f6" fill-rule="evenodd" transform="translate(0 .5)"/><path d="m5.7 12.4-.05.05-.2.2-.05.2.05.15.2.3h.05L2.1 16l-.5-.15v-.05l.9-.65q1.45-1.2 1.45-2.8l-.3-.8 1.85-1.5Q7.05 8.9 9.15 7.9l-1.6 2q-1.15 1.05-1.8 2.45l-.05.05" fill="#88abba" fill-rule="evenodd" transform="translate(0 .5)"/><path d="m5.7 13.3.05.05h.3l2.15-.2q1.65.05 1.75.5-.1.55-1.8 1.4l-2.15.8-2.2.25-1.7-.1 3.6-2.7" fill="#286783" fill-rule="evenodd" transform="translate(0 .5)"/><path d="m27.85 1.2.3-1.2.7.3 1.45 1.3v.05q1.15 1.45 1.15 2.9l-.1 1.3-.6 2L30.3 9l-.55.35.05-.2.2-1.9q0-1.55-.7-3.45l-.55-1.35-.05-.15-.1-.15-.75-.95m9.05 6.1L38.45 6h.05q.9 1.2.9 2.4 0 3.2-3.65 5.55l-2.3 1.2-1.55.5 1.5-1.15 1.9-2.2Q37 9.9 37 8.2l-.1-.9m-5.85 8.5 1.5.45.95.25 1.7.2 2.2-.3q-1.25 2.2-3.35 3.45l-.3.2q-1.45.75-2.85.85h-.5l-3.3-.35-2-.15-.05.15-.8 1.7-.8 1q-.9.75-1.95.75l-.7-1.15 2-2.45.45-1.1.15-1.6-.2-2.75 1.05 1.35.35.5.45.95.1.45.1 1.05-.15 1.15.15-1.15-.1-1.05L29 19.35l.9-.05 1.6-.35 1.6-.6-.1-.1-1.35-.95q-.75-.5-.75-1.05l.15-.45" fill="#a0eaf6" fill-rule="evenodd" transform="translate(0 .5)"/><path d="m35.4 8.4 1.5-1.1.1.9q0 1.7-1.7 4.1l-1.9 2.2-1.5 1.15-.35.05h-.45l.1-.2-2.6-.55q2.3-.6 4.4-2.7l.1-.05q1.8-1.85 2.3-3.8m-7.2-3.7.3-1.05.25-1.2.55 1.35q.7 1.9.7 3.45l-.2 1.9-.05.2h-.05q-.45-.9-.8-2.4l-.6-2-.1-.25" fill="#7f6ac3" fill-rule="evenodd" transform="translate(0 .5)"/><path d="m7.4 16.45.3-.1 1.5-.2 4 .3.25.05 3.6 1.1q.35.1 1.25.95l.45.45 1 1.3.1.15.9 2.25.05.15.7 1.15q1.05 0 1.95-.75l.8-1 .8-1.7.05-.15.15-1.15-.1-1.05-.1-.45-.45-.95-.35-.5-1.05-1.35M10.4 9.4l2.25-.15.8-.05.45-.05m.25 0 1.1-.05 4.1.3q3.95 0 5.8-2.1 1.45-1.7 2.7-6.1l.3-1.2.7.3 1.45 1.3v.05q1.15 1.45 1.15 2.9l-.1 1.3-.6 2L30.3 9l-.35.8-.05.05h.1l2.15-.3.15-.05 2.9-1 .2-.1 1.5-1.1L38.45 6h.05q.9 1.2.9 2.4 0 3.2-3.65 5.55l-2.3 1.2-1.55.5m-.35.05h-.75l.25.1 1.5.45.95.25 1.7.2 2.2-.3v-.05.05q-1.25 2.2-3.35 3.45l-.3.2q-1.45.75-2.85.85h-.5l-3.3-.35-2-.15" fill="none" stroke="#32216f" stroke-linecap="round" stroke-linejoin="round" transform="translate(0 .5)"/></g><g id="w" transform="translate(7.45)"><use ffdec:characterId="30" height="35.25" transform="translate(147.85)" width="36.3" xlink:href="#x"/><use ffdec:characterId="32" height="33.4" transform="translate(0 8.45)" width="34.85" xlink:href="#y"/></g><path d="M29.2-1.45q0 1.65-9.45 2.8L-3 2.5l-22.75-1.15q-9.4-1.15-9.4-2.8t9.4-2.8L-3-5.4l22.75 1.15q9.45 1.15 9.45 2.8" fill-opacity=".349" fill-rule="evenodd" transform="translate(35.15 5.4)" id="m"/><path d="m20.8 23.65.5.35 1.3.45q1 0 1.95-.55 1.1-.6 1.5-1.6v.6q0 2.2-1.25 5.25-1.4 3.5-4 6.8l-.1-.05q-.3-2.2-2.2-2.2-.8 0-2 .75l-.05-.05q.65-.4 2.5-4.75l1.85-5m-1.65-2.8.05.1q-.8 5.8-3 9.4-3.05 4.9-8.55 4.9Q0 35.25 0 27.9q0-5.3 3.45-8.5 2.3-2.05 7.15-3.85h1.1l-.15 1 .2 3.15q.2 2.55.35 2.9 1 0 7.05-1.75m-1.05-9.7 1.25-2.9 6.7-3.35Q33.35 1.25 36.3 0l-3.75 5.5-5.15 7.55q-.7 1.15-5.5 1.75l-5.6.5 1.8-4.15m-8.55-.95q-.3.65-.3 1.4 0 .55.65 1.55-.95 0-5.05 2.15L.4 17.7q1.1-.9 1.1-4.35l-.2-1.25q1.9-1.25 4.3-1.9l4.25-.65h.3q-.3.05-.6.65" fill="#7a61eb" fill-opacity=".937" fill-rule="evenodd" id="k"/><path d="M12.1 22.45q.7 0 1.8-.9.1 1.3 2.05 5.95l2.45 5.9-1-.75q-1-.65-1.45-.65-1.3 0-1.3.85l.05.4-3.25-4.8Q8.2 23.1 8.2 20.2q0-.25.15-.55.25.7 1 1.5 1.25 1.3 2.75 1.3M0 0l2.5 1.4 4.65 2.55 4.2 1.65 3.1.9q.3 0 .45.75l.3 1.65 1.25 5.55-.15.5q-4-1.25-7.5-1.8-2.2-.35-2.7-.8-.5-.45-1.85-3.55L0 0m22.25 11.9q3.55.7 7.5 4.35 5.1 4.6 5.1 10.15 0 2.9-2.3 4.85-2.1 1.8-4.9 1.8l-3.6-.35q-1.1-.3-3.7-1.75-1-.55-3.15-3.65-2.55-3.65-2.55-5.85 0-.9.15-1.25l.1-.2.05-.1h.1l2.95.4 2.65.35q1.6 0 1.75-2.2l-.15-6.55m10.2-.75q0 2.3-.75 4.85-.95-.95-3.55-2.55-2.7-1.7-4.4-2.15 1.1-1.45.45-4.6 8.25 3.65 8.25 4.45" fill="#7a61eb" fill-opacity=".937" fill-rule="evenodd" id="l"/></defs></svg>