<svg xmlns:ffdec="https://www.free-decompiler.com/flash" xmlns:xlink="http://www.w3.org/1999/xlink" ffdec:objectType="frame" height="90" width="90" xmlns="http://www.w3.org/2000/svg"><use ffdec:characterId="24" height="91.75" transform="translate(-16.2 -.35)" width="112.35" xlink:href="#a"/><defs><g id="a" transform="translate(16.2 .35)"><use ffdec:characterId="8" height="90" width="90" xlink:href="#b"/><use ffdec:characterId="23" height="182.85" transform="translate(-16.187 -.326) scale(.5018)" width="223.85" xlink:href="#c"/></g><g id="b"><use ffdec:characterId="6" height="90" width="90" xlink:href="#d"/><use ffdec:characterId="7" height="0" transform="translate(5.1) scale(.7034)" width="0" xlink:href="#sprite7"/></g><g id="d"><use ffdec:characterId="4" height="90" width="90" xlink:href="#e"/><use ffdec:characterId="5" height="0" transform="matrix(.5326 0 0 .5328 6 0)" width="0" xlink:href="#sprite6"/></g><g id="e"><use ffdec:characterId="1" height="0" transform="matrix(.4007 0 0 .4006 0 6)" width="0" xlink:href="#sprite4"/><use ffdec:characterId="3" height="67.05" transform="scale(1.5332 1.3423)" width="58.7" xlink:href="#f"/></g><g id="c" transform="translate(34.65 .65)"><use ffdec:characterId="9" height="19.7" transform="translate(42.1 166.4) scale(.6579)" width="112" xlink:href="#g"/><use ffdec:characterId="10" height="153.35" transform="translate(-.658 9.392) scale(.6579)" width="97.55" xlink:href="#h"/><use ffdec:characterId="11" height="31.35" transform="translate(36.571 106.842) scale(.6579)" width="27.05" xlink:href="#i"/><use ffdec:characterId="12" height="64.85" transform="translate(46.142 108.742) scale(.6579)" width="47.4" xlink:href="#j"/><use ffdec:characterId="13" height="78.3" transform="translate(43.092 80.026) scale(.6579)" width="121.6" xlink:href="#k"/><use ffdec:characterId="14" height="80" transform="translate(63.542 109.592) scale(.6579)" width="61.95" xlink:href="#l"/><use ffdec:characterId="15" height="162.3" transform="translate(74.442 -.658) scale(.6579)" width="153.2" xlink:href="#m"/><use ffdec:characterId="16" height="58.05" transform="translate(80.387 88.542) scale(.6579)" width="38.5" xlink:href="#n"/><use ffdec:characterId="17" height="114.25" transform="translate(26.342 25.442) scale(.6579)" width="102.05" xlink:href="#o"/><use ffdec:characterId="18" height="20.6" transform="translate(49.864 73.077) scale(.6579)" width="21.6" xlink:href="#p"/><use ffdec:characterId="19" height="108.1" transform="translate(27.526 34.489) scale(.6579)" width="61.8" xlink:href="#q"/></g><g id="h"><path d="M30.25.05q2.2-.4 3.45 4.25 4.4 19 8.1 25.25l.25.65q-1 .95-2.25 3-1.6 2.55-2.6 5.15-11.25-12.7-6.95-38.3m16.4 27.75q2.25.45 3.45 4.15 5.25 33.35 45.45 52.8l-14.5 48.45-16.9-44.75L19.75 55q-.35-4.75.3-7.15 1-4.05 4.65-1.6 9 7.8 21.3 7.2-3.7-13.6.65-25.65m-30.6-5.95.95-2q1.25-2.2 4.05 4.75l.2 1.2.1.45q1.05 6.75.1 7.65-3.25 2.3-5.4-12.05" fill="#a432a4" fill-rule="evenodd" transform="translate(1 1)"/><path d="M37.2 38.35q1-2.6 2.6-5.15 1.25-2.05 2.25-3 .8-.85 1.45-.85 1.35-.05.6 3.65l-1.65 7.6q-.85 3.9-1.8 6.2-.9 2.3-2.35 2.6-1.5.25-2.25-2.3-.8-2.55.3-6.3l.85-2.45" fill="#eb75ed" fill-rule="evenodd" transform="translate(1 1)"/><path d="M41.8 29.55q2.85-2.15 4.85-1.75Q42.3 39.85 46 53.45q-12.3.6-21.3-7.2-3.65-2.45-4.65 1.6-5.95-7.45-4.25-25.5l.25-.5q2.15 14.35 5.4 12.05.95-.9-.1-7.65 2.4 13 7.25 15.5 2.65 1.4 2.1-1.65-6.45-13.95-3.45-30.4 1.1-6.35-1.1-6Q28.5.3 30.25.05q-4.3 25.6 6.95 38.3l-.85 2.45q-1.1 3.75-.3 6.3.75 2.55 2.25 2.3 1.45-.3 2.35-2.6.95-2.3 1.8-6.2L44.1 33q.75-3.7-.6-3.65-.65 0-1.45.85l-.25-.65" fill="#c442be" fill-rule="evenodd" transform="translate(1 1)"/><path d="m19.75 55-1.8-1.35q-9.35-15.1-2.15-31.3-1.7 18.05 4.25 25.5-.65 2.4-.3 7.15m1.3-30.4q1.2-16.15 5.1-20.9 2.2-.35 1.1 6-3 16.45 3.45 30.4.55 3.05-2.1 1.65-4.85-2.5-7.25-15.5l-.1-.45-.2-1.2" fill="#e870eb" fill-rule="evenodd" transform="translate(1 1)"/><path d="M31.25 1.05q2.2-.4 3.45 4.25 4.4 19 8.1 25.25 2.85-2.15 4.85-1.75 2.25.45 3.45 4.15 5.25 33.35 45.45 52.8l-14.5 48.45-16.9-44.75L20.75 56l-1.8-1.35q-9.35-15.1-2.15-31.3l.25-.5.95-2q1.25-2.2 4.05 4.75 1.2-16.15 5.1-20.9 2.35-3.4 4.1-3.65z" fill="none" stroke="#48174f" stroke-linecap="round" stroke-linejoin="round" stroke-width="2"/><path d="M3.45 28.1q2 .4 5.3 9.15 2.1 5.6 8.45 10.5-5.45 8.75-6.2 18.5-8.35-14.7-7.55-38.15" fill="#ffc4c0" fill-rule="evenodd" transform="translate(1 1)"/><path d="M19.2 49.2q4.3 2.95 10.2 5.65l49.65 70.8-8.1 17.55q-5.5 2.5-9.75 2.75 1.9-2.6 2.2-6.7.65-2.75 4.4-3.6-6.95-2.6-13.15 7.2l-.85 1.2q-3.4-.9-6-2 10.9-1.8 9-8.4-8.95 2.4-17.35 1.9L39 134.5q-7.25-1.85-10.55-6.35 11.55 3.6 31.95 2.5-3.5-7.25-12.05-14.55-13.1 4.5-22.55 1.5-7.2-8.1-10.25-17.65 8.35 5.95 20.7 6-12.1-8.15-23.1-20.25v-2.05q-2.8-9.05-2.15-17.4 5.8 10.2 16 16.2-8.85-8.8-5.6-14.6-5.45-10.1-2.2-18.65" fill="#8e2e06" fill-rule="evenodd" transform="translate(1 1)"/><path d="M25.8 117.6Q-2.25 106.85 1.3 82.15l1.7.65q4.4 11.35 12.55 17.15 3.05 9.55 10.25 17.65M11.1 83.35Q-4.7 54.85 2 29.3q.6-1.35 1.45-1.2-.8 23.45 7.55 38.15-.65 8.35 2.15 17.4v2.05l-2.05-2.35" fill="#cd7c67" fill-rule="evenodd" transform="translate(1 1)"/><path d="M53.3 144.9q-12.45 3-20.25-.8l-.1-1.45 14.85-.6q2.6 1.1 6 2l-.5.85m-16.05-8.7q-22.7-1.7-24.65-18.1l2.55.15q3.3 6.75 13.3 9.9 3.3 4.5 10.55 6.35l.45 1.05-1.3-.1-.9.75" fill="#ce9357" fill-rule="evenodd" transform="translate(1 1)"/><path d="m17.2 47.75 2 1.45q-3.25 8.55 2.2 18.65-3.25 5.8 5.6 14.6-10.2-6-16-16.2.75-9.75 6.2-18.5M13.15 85.7q11 12.1 23.1 20.25-12.35-.05-20.7-6-2.25-6.8-2.4-14.25m12.65 31.9q9.45 3 22.55-1.5 8.55 7.3 12.05 14.55-20.4 1.1-31.95-2.5-3-4.15-2.65-10.55" fill="#ad4c08" fill-rule="evenodd" transform="translate(1 1)"/><path d="M32.95 142.65q.2-3.1 4.3-6.45l.9-.75 1.3.1q1.8 3.8 8.35 6.5l-14.85.6m-17.8-24.4 10.65-.65q-.35 6.4 2.65 10.55-10-3.15-13.3-9.9M3 82.8q4.1 1.25 8.2.75l-.1-.2 2.05 2.35q.15 7.45 2.4 14.25Q7.4 94.15 3 82.8" fill="#fdcfae" fill-rule="evenodd" transform="translate(1 1)"/><path d="M39.45 135.55q8.4.5 17.35-1.9 1.9 6.6-9 8.4-6.55-2.7-8.35-6.5" fill="#ae4c05" fill-rule="evenodd" transform="translate(1 1)"/><path d="M53 150.3q-1.25-2.5.3-5.4l.5-.85q3.05 2.1 7.4 1.9-2.65 3.5-8.2 4.35" fill="#ffd3b6" fill-rule="evenodd" transform="translate(1 1)"/><path d="m70.95 143.2-.5 1.05q-6.05 7.85-16.9 7l-.55-.95q5.55-.85 8.2-4.35 4.25-.25 9.75-2.75" fill="#c9965f" fill-rule="evenodd" transform="translate(1 1)"/><path d="m53.8 144.05.85-1.2q6.2-9.8 13.15-7.2-3.75.85-4.4 3.6-.3 4.1-2.2 6.7-4.35.2-7.4-1.9" fill="#aa5208" fill-rule="evenodd" transform="translate(1 1)"/><path d="M20.2 50.2q4.3 2.95 10.2 5.65l49.65 70.8-8.1 17.55-.5 1.05q-6.05 7.85-16.9 7l-.55-.95q-1.25-2.5.3-5.4-12.45 3-20.25-.8l-.1-1.45q.2-3.1 4.3-6.45-22.7-1.7-24.65-18.1l2.55.15 10.65-.65Q-1.25 107.85 2.3 83.15l1.7.65q4.1 1.25 8.2.75l-.1-.2Q-3.7 55.85 3 30.3q.6-1.35 1.45-1.2 2 .4 5.3 9.15 2.1 5.6 8.45 10.5l2 1.45m34.6 94.85.85-1.2m-16.5-7.4-.9.75m16.55 7.85-.5.85" fill="none" stroke="#481804" stroke-linecap="round" stroke-linejoin="round" stroke-width="2"/><path d="m45.25 56.25 2.3.35q-.25 9.7 8.85 12.65l18.8 43.25-13.85 5.55-10.6-6.1q-12.1-8.2-19.65-20.9l6.65 2.25q-2-6.65-7.45-11.9-9.1-8.75-2.45-10.75Q17.1 53.5 19.8 48.35q2.85 8.45 10.4 17.35.75.85 1.05 1.95L29.3 66l2.1 2.9q.1 2.15-1.2 4.95 2.5 9.55 17 15.4l6.95 1.1q-8.6-5.05-10.5-11.7-1.05-3.15-2.45-6.05 1.15-1.9 2.45-3.55-.95-7.5 1.6-12.8m11.35 55.7 2.65-1.95q-10.55-5.2-21.1-13.25 7.5 9.6 18.45 15.2" fill="#83a64a" fill-rule="evenodd" transform="translate(1 1)"/><path d="m40.45 55.3 4.8.95q-2.55 5.3-1.6 12.8-1.3 1.65-2.45 3.55l-2.85-5.35q2.55-1.45 2.1-11.95M19.8 48.35q.7-1.5 2.55-2 2.15 2.1 4.9 3.8-1.3 1.75.15 4.3l-2.35-1.9q3.25 3.9 6.05 7.95.75 5.5 4.1 6.6l3.5 6.9-7.45-6.35q-.3-1.1-1.05-1.95-7.55-8.9-10.4-17.35" fill="#b4fe83" fill-rule="evenodd" transform="translate(1 1)"/><path d="m38.3 78.35-1 2.6q-4.45-2.35-7.1-7.1 1.3-2.8 1.2-4.95l6.9 9.45" fill="#b4ff7b" fill-rule="evenodd" transform="translate(1 1)"/><path d="M41.2 72.6q1.4 2.9 2.45 6.05 1.9 6.65 10.5 11.7l-6.95-1.1q-14.5-5.85-17-15.4 2.65 4.75 7.1 7.1l1-2.6q1.3-3.15 2.9-5.75m-9.8-3.7L29.3 66l1.95 1.65.15 1.25m25.2 43.05q-10.95-5.6-18.45-15.2Q48.7 104.8 59.25 110l-2.65 1.95" fill="#167e75" fill-rule="evenodd" transform="translate(1 1)"/><path d="M41.2 72.6q-1.6 2.6-2.9 5.75l-6.9-9.45-.15-1.25L38.7 74l-3.5-6.9 3.15.15 2.85 5.35" fill="#66faca" fill-rule="evenodd" transform="translate(1 1)"/><path d="M27.4 54.45q6.55 5.65 10.95 12.8l-3.15-.15q-1.9-3.35-4.1-6.6-2.8-4.05-6.05-7.95l2.35 1.9" fill="#ceffe9" fill-rule="evenodd" transform="translate(1 1)"/><path d="M27.25 50.15q5.4 3.35 13.2 5.15.45 10.5-2.1 11.95-4.4-7.15-10.95-12.8-1.45-2.55-.15-4.3M35.2 67.1q-3.35-1.1-4.1-6.6 2.2 3.25 4.1 6.6" fill="#e5fed4" fill-rule="evenodd" transform="translate(1 1)"/><path d="M28.25 51.15q5.4 3.35 13.2 5.15l4.8.95 2.3.35q-.25 9.7 8.85 12.65l18.8 43.25-13.85 5.55-10.6-6.1q-12.1-8.2-19.65-20.9l6.65 2.25q-2-6.65-7.45-11.9-9.1-8.75-2.45-10.75Q18.1 54.5 20.8 49.35q.7-1.5 2.55-2 2.15 2.1 4.9 3.8z" fill="none" stroke="#094d3f" stroke-linecap="round" stroke-linejoin="round" stroke-width="2"/></g><g id="i"><path d="M8 24.3q-1.15-4.2.35-6.1 7.7-2.4 6.2-6-.75-1.3-1.65-1.15 1.7-1.5 3-3.55 4.65 2.15 6.9 6.85-2.4 7.4-11.65 7.1-.15 3.3 2.1 6.05-4.3-.35-8.15-3.35l-.6 5.7q-1.25-1.25-2.15-2.9.65-2.4.45-5.55-.25-2.55.05-3.65 2.05-2.3 6.3-2.55L4.6 18.15q-.45 1.15.8 3.05l.65.95L8 24.3l1.15 1.1.4-5.55q7.1-.55 6.9-6.55.2 6-6.9 6.55l-.4 5.55L8 24.3m-2.6-3.1-.3 2.95.3-2.95" fill="#c15d00" fill-rule="evenodd" transform="translate(.5 1)"/><path d="M12.9 11.05q.9-.15 1.65 1.15 1.5 3.6-6.2 6-1.5 1.9-.35 6.1l-1.95-2.15q1.5-.55.65-2.3-1.45-1.4 1.85-2.5 6.15-2.15 4.35-5.2L9.15 15.2q-4.25.25-6.3 2.55-.3 1.1-.05 3.65.2 3.15-.45 5.55-1.1-2-1.7-4.65 1.95.5 1.4-2.65l.1-1.85q.2-1.85-1.25-1.4.7-.85 1.9-1.5 6.15-.45 10.1-3.85" fill="#e99800" fill-rule="evenodd" transform="translate(.5 1)"/><path d="M.9 16.4q1.45-.45 1.25 1.4l-.1 1.85Q2.6 22.8.65 22.3q-.5-1.95-.65-4.25.25-.9.9-1.65m8.25-1.2 3.75-3.05q1.8 3.05-4.35 5.2-3.3 1.1-1.85 2.5.85 1.75-.65 2.3l-.65-.95q-1.25-1.9-.8-3.05l4.55-2.95" fill="#ffbf25" fill-rule="evenodd" transform="translate(.5 1)"/><path d="M12.9 11.05q-3.95 3.4-10.1 3.85-1.2.65-1.9 1.5-.65.75-.9 1.65.15 2.3.65 4.25.6 2.65 1.7 4.65.9 1.65 2.15 2.9l.6-5.7.3-2.95q-1.25-1.9-.8-3.05l4.55-2.95m-3.1 6.95L8 24.3l1.15 1.1.4-5.55q7.1-.55 6.9-6.55M5.1 24.15q3.85 3 8.15 3.35-2.25-2.75-2.1-6.05 9.25.3 11.65-7.1-2.25-4.7-6.9-6.85-1.3 2.05-3 3.55M5.4 21.2l.65.95" fill="none" stroke="#7e3301" stroke-linecap="round" stroke-linejoin="round" transform="translate(.5 1)"/><path d="M18.75 10.25q.15-1.5-1.05-2.1.05-5.05-2.85-5.7-.1-1.2-.55-2.25 7.3-1.15 11.25 5l-2.7 9.45q-1.9-2.8-4.1-4.4" fill="#83b74b" fill-rule="evenodd" transform="translate(.5 1)"/><path d="M15.75 4.55q-.35 0-.75.5-.35.55-.45 1.3-.15.75 0 1.25.2.55.55.55l.7-.55.55-1.25-.1-1.3q-.15-.5-.5-.5m3 5.7-.1-.1q-3.35-2.2-5.2.3-.75-.15.85-3.7.7-2.35.55-4.3 2.9.65 2.85 5.7 1.2.6 1.05 2.1" fill="#a6f973" fill-rule="evenodd" transform="translate(.5 1)"/><path d="M15.75 4.55q.35 0 .5.5l.1 1.3-.55 1.25-.7.55q-.35 0-.55-.55-.15-.5 0-1.25.1-.75.45-1.3.4-.5.75-.5" fill="#e6ffd0" fill-rule="evenodd" transform="translate(.5 1)"/><path d="M15.35 3.45q.15 1.95-.55 4.3-1.6 3.55-.85 3.7 1.85-2.5 5.2-.3l.1.1q2.2 1.6 4.1 4.4l2.7-9.45Q22.1.05 14.8 1.2q.45 1.05.55 2.25z" fill="none" stroke="#0b5b4a" stroke-linecap="round" stroke-linejoin="round" stroke-width="2"/></g><g id="j"><path d="M22.55 40.35q3.15-2.4 2.6-7.95 5.8-.05 4.95 8.4l-7.55-.45" fill="#e99906" fill-rule="evenodd" transform="translate(1 1)"/><path d="M30.1 40.8q.85-8.45-4.95-8.4l-.25-1.75q8.05 1.5 6.4 9.85l-1.2.3" fill="#c05c00" fill-rule="evenodd" transform="translate(1 1)"/><path d="m22.55 40.35 7.55.45 1.2-.3q1.65-8.35-6.4-9.85l-1.15-4.5 14.5 2.95-3.45 6q-3.05 4.8 4.1 8.95-12.5 4.5-20.8-3l4.45-.7" fill="#7b3400" fill-rule="evenodd" transform="translate(1 1)"/><path d="m38.6 48.05-.45.1q-2.85.75-4.25 3.9-1.55 1.45-3.1-.15.55-6.5 8.2-6.8 1.15-.15 2.3.45 1.35 1.15-2.7 2.5" fill="#ffbf2f" fill-rule="evenodd" transform="translate(1 1)"/><path d="M38.9 44.05q2.05.65 3.75 2.4l-1.35-.9q-1.15-.6-2.3-.45-7.65.3-8.2 6.8-18.3-8.75-29.05 10.55l-.05-2q2.25-6.6 7.55-11.9 2.95-2.5 8.2-4.2 3.2-1-1.45-3.1l2.1-.2q8.3 7.5 20.8 3" fill="#bb5e00" fill-rule="evenodd" transform="translate(1 1)"/><path d="m1.9 55.8.3-2.7q.85-5.95 3.2-11.8 3.9.25 7.55.1 4.3 1.75-2.9 4Q5.4 47.55 1.9 55.8" fill="#fdc027" fill-rule="evenodd" transform="translate(1 1)"/><path d="m1.7 60.45.2-4.65q3.5-8.25 8.15-10.4 7.2-2.25 2.9-4l3.05-.15q4.65 2.1 1.45 3.1-5.25 1.7-8.2 4.2-5.3 5.3-7.55 11.9" fill="#eb9f00" fill-rule="evenodd" transform="translate(1 1)"/><path d="M2.2 53.1Q1.1 49.6.55 44.9q.35-1.45 1.25-2.6 2.8-3.55 11-4.05l9.75 2.1-4.45.7-2.1.2-3.05.15q-3.65.15-7.55-.1-2.35 5.85-3.2 11.8" fill="#be5d00" fill-rule="evenodd" transform="translate(1 1)"/><path d="m6.3 36.85 6.5 1.4q-8.2.5-11 4.05 0-3.7 4.5-5.45" fill="#eb9c03" fill-rule="evenodd" transform="translate(1 1)"/><path d="M.55 44.9q-.4-3.15-.55-6.85.8-1.7 3.1-1.9l3.2.7Q1.8 38.6 1.8 42.3.9 43.45.55 44.9" fill="#fcbb2d" fill-rule="evenodd" transform="translate(1 1)"/><path d="M32.8 56.15q-1.8-1.6-2-4.25 1.55 1.6 3.1.15-.75 1.7-1.1 4.1" fill="#ee9908" fill-rule="evenodd" transform="translate(1 1)"/><path d="m42.65 46.45.35.35 1.4 1.9q-3.4-1.2-5.8-.65 4.05-1.35 2.7-2.5l1.35.9" fill="#d99705" fill-rule="evenodd" transform="translate(1 1)"/><path d="m44.4 48.7.65 1.05q1.9 9.2-6.85 8.65-3.6-.6-5.4-2.25.35-2.4 1.1-4.1 1.4-3.15 4.25-3.9l.45-.1q2.4-.55 5.8.65" fill="#b06001" fill-rule="evenodd" transform="translate(1 1)"/><path d="M26.15 33.4q.55 5.55-2.6 7.95l-4.45.7-2.1.2-3.05.15q-3.65.15-7.55-.1-2.35 5.85-3.2 11.8-1.1-3.5-1.65-8.2-.4-3.15-.55-6.85.8-1.7 3.1-1.9l3.2.7 6.5 1.4 9.75 2.1m2.6-7.95-.25-1.75-1.15-4.5 14.5 2.95-3.45 6q-3.05 4.8 4.1 8.95 2.05.65 3.75 2.4m.35.35 1.4 1.9.65 1.05q1.9 9.2-6.85 8.65-3.6-.6-5.4-2.25-1.8-1.6-2-4.25-18.3-8.75-29.05 10.55l-.05-2 .2-4.65.3-2.7" fill="none" stroke="#5c2e01" stroke-linecap="round" stroke-linejoin="round" stroke-width="2"/><path d="M39.05 37.75q2.25 1.65 2.05 3.1-.25 1.9-4.4 2.55l-9.8-.35-3.15-.7q19.15.55 15.3-4.6" fill="#81fdff" fill-rule="evenodd" transform="translate(1 1)"/><path d="m25.1 35.45-.4 1.75-1.75-1.05q.3-.9 2.15-.7m3.3 2.95 5.55-.2q.05-1.35.65-2.75 1.55.6 2.9 1.35l1.55.95q3.85 5.15-15.3 4.6-3.6-.95-6.3-2.4-3.8-2.15-3.55-4.05.1-.8.9-1.35.2 3.75 6.85 5.5Q28.9 42 28.4 38.4m6.05-.3-.5.1.5-.1" fill="#80c2c1" fill-rule="evenodd" transform="translate(1 1)"/><path d="m25.3 33.3-.2 2.15q-1.85-.2-2.15.7l1.75 1.05q1.8.9 3.7 1.2.5 3.6-6.75 1.65-6.65-1.75-6.85-5.5 1.05-.8 3.45-1.2 3.1-.5 7.05-.05m-3.15 6.1 3.35.4q1.6-.05 1.3-.6l-1.55-1q-1.35-.5-2.7-.85l-2.45-.4q-1.15-.05-1.3.45-.1.45.65 1 .8.6 2.7 1m-3.65-4.85q-.3-.3-.75-.3t-.75.3q-.3.3-.3.75t.3.75q.3.3.75.3t.75-.3l.3-.75-.3-.75" fill="#a9eaec" fill-rule="evenodd" transform="translate(1 1)"/><path d="M22.15 39.4q-1.9-.4-2.7-1-.75-.55-.65-1 .15-.5 1.3-.45l2.45.4q1.35.35 2.7.85l1.55 1q.3.55-1.3.6l-3.35-.4m-3.65-4.85.3.75-.3.75q-.3.3-.75.3t-.75-.3q-.3-.3-.3-.75t.3-.75q.3-.3.75-.3t.75.3" fill="#edfbfe" fill-rule="evenodd" transform="translate(1 1)"/><path d="m25.3 33.3-.2 2.15-.4 1.75m9.25 1q.05-1.35.65-2.75" fill="none" stroke="#5c2e01" stroke-linecap="round" stroke-linejoin="round" transform="translate(1 1)"/><path d="M25.7 38.2q1.8.9 3.7 1.2l5.55-.2.5-.1m.15-2.65q1.55.6 2.9 1.35l1.55.95q2.25 1.65 2.05 3.1-.25 1.9-4.4 2.55l-9.8-.35-3.15-.7q-3.6-.95-6.3-2.4-3.8-2.15-3.55-4.05.1-.8.9-1.35 1.05-.8 3.45-1.2 3.1-.5 7.05-.05m-2.35 2.85 1.75 1.05" fill="none" stroke="#2f625c" stroke-linecap="round" stroke-linejoin="round" stroke-width="2"/><path d="M6.65 24q-2.15-2.55-2.9-5.55.2-1.15 1-2.05 1.15-1.3 2.8-1.3t2.8 1.3q1.15 1.35 1.15 3.2t-1.15 3.15Q9.2 24.1 7.55 24.1l-.9-.1" fill="#d39c4c" fill-rule="evenodd" transform="translate(1 1)"/><path d="M12.1 28.25q-2.15-1.05-4-2.75L6.65 24l.9.1q1.65 0 2.8-1.35 1.15-1.3 1.15-3.15 0-1.85-1.15-3.2-1.15-1.3-2.8-1.3t-2.8 1.3q-.8.9-1 2.05-.45-1.65-.45-3.5 0-1.45.25-2.75 1.5-.95 3.5-.95 3.25 0 5.9 2.55 2.65 2.6 3.2 6.2.5 3.6-1.45 6.15-1.1 1.45-2.6 2.1" fill="#954f09" fill-rule="evenodd" transform="translate(1 1)"/><path d="M27.3 28.2q-3.45 1.7-7.7 1.7-4.1 0-7.5-1.65 1.5-.65 2.6-2.1 1.95-2.55 1.45-6.15-.55-3.6-3.2-6.2-2.65-2.55-5.9-2.55-2 0-3.5.95.7-3.65 3.3-6.55 3.25 7.4 12.75 10.7 3.15 1.8 5.9 8.7.9 2.35 1.8 3.15" fill="#743509" fill-rule="evenodd" transform="translate(1 1)"/><path d="m6.85 5.65 1.25-1.3Q12.9 0 19.6 0q6.75 0 11.5 4.35 4.8 4.45 4.8 10.6 0 6.15-4.8 10.55-1.8 1.65-3.8 2.7-.9-.8-1.8-3.15-2.75-6.9-5.9-8.7-9.5-3.3-12.75-10.7" fill="#4d1e04" fill-rule="evenodd" transform="translate(1 1)"/><path d="m7.85 6.65 1.25-1.3Q13.9 1 20.6 1q6.75 0 11.5 4.35 4.8 4.45 4.8 10.6 0 6.15-4.8 10.55-1.8 1.65-3.8 2.7-3.45 1.7-7.7 1.7-4.1 0-7.5-1.65-2.15-1.05-4-2.75L7.65 25q-2.15-2.55-2.9-5.55-.45-1.65-.45-3.5 0-1.45.25-2.75.7-3.65 3.3-6.55z" fill="none" stroke="#401c04" stroke-linecap="round" stroke-linejoin="round" stroke-width="2"/><path d="m39.95 49.4 1.15.1q1.3.25 2 1.15.45 8.4-5.55 11.9 5.7-4.85 2.4-13.15" fill="#bfab90" fill-rule="evenodd" transform="translate(1 1)"/><path d="m36.6 63.3-.3.05q-.05-5.1-.8-8.9.5-5.15 4.45-5.05 3.3 8.3-2.4 13.15l-.95.75m1.2-11.7q-.7 0-1.2.7-.45.7-.3 1.7l.2 4.55q.05 3.55.55 3.95.5.4 1.65-2.35 1.1-2.8.9-4.85-.2-2.05-.65-2.85-.45-.85-1.15-.85" fill="#fee8dd" fill-rule="evenodd" transform="translate(1 1)"/><path d="M37.8 51.6q.7 0 1.15.85.45.8.65 2.85t-.9 4.85q-1.15 2.75-1.65 2.35-.5-.4-.55-3.95L36.3 54q-.15-1 .3-1.7.5-.7 1.2-.7" fill="#fffdfe" fill-rule="evenodd" transform="translate(1 1)"/><path d="M43.1 50.65q1.05 1.4.75 4.45-.85 6.8-7.25 8.2l.95-.75q6-3.5 5.55-11.9" fill="#f84503" fill-rule="evenodd" transform="translate(1 1)"/><path d="m39.95 49.4 1.15.1q1.3.25 2 1.15 1.05 1.4.75 4.45-.85 6.8-7.25 8.2l-.3.05q-.05-5.1-.8-8.9.5-5.15 4.45-5.05z" fill="none" stroke="#564432" stroke-linecap="round" stroke-linejoin="round" transform="translate(1 1)"/></g><g id="k"><path d="M81.55 49.1q-3.6 2.95-10.1 3.1-7.1-.3-11.1-7.8 7-.3 6.4-7.6-.65-7.35-3.1-9.4Q52.1 21.5 60 9.25l-13.85 4.1Q50.4 25.7 41 31.85l-1.5-9.1-30.15-2.3Q21.8-22.45 57.35 0q8.3 6.65 12.4 25.55 2.4 9.4 7.25 16.4 2.55 3.05 6.35 5.15l-1.8 2-2.7-2.9 2.7 2.9" fill="#541e02" fill-rule="evenodd" transform="translate(1 8.7)"/><path d="M8.75 36.15q3.5 1.4 5.2 6.45 10.15 2.2 19.85-3.8 9.75-.2 16.8-13.05 6.1 9-4.25 10.7l-.45.2q-7.4 3.6-12.1 14-22.05 1.7-25.05-14.5" fill="#a05009" fill-rule="evenodd" transform="translate(1 8.7)"/><path d="M8.75 36.15q-1.2-6.45.6-15.7l30.15 2.3 1.5 9.1q9.4-6.15 5.15-18.5L60 9.25Q52.1 21.5 63.65 27.4q2.45 2.05 3.1 9.4.6 7.3-6.4 7.6 4 7.5 11.1 7.8 6.5-.15 10.1-3.1 6.7 6.35 16.35 8.15 7.65 1.35 17.15-.2-9.6 5-19.75 7.15-9.95-.35-16.3-9.35 2.05 9.35 10.2 13.65-19.85.95-31-9.1l-24.4-8.75q4.7-10.4 12.1-14l.45-.2q10.35-1.7 4.25-10.7Q43.55 38.6 33.8 38.8q-9.7 6-19.85 3.8-1.7-5.05-5.2-6.45M77.4 52.4l1.6 2.45-1.6-2.45" fill="#7c3306" fill-rule="evenodd" transform="translate(1 8.7)"/><path d="M83.35 47.1q11.5 6.35 34.35 3.75 1.05 3.7-.4 4.4-8.65 1.8-19.4 2-9.65-1.8-16.35-8.15l1.8-2" fill="#93500c" fill-rule="evenodd" transform="translate(1 8.7)"/><path d="m117.7 50.85 1.4-.2q3.3 8.4-16.15 12.65l-6.15.9h-1.5q10.15-2.15 19.75-7.15-9.5 1.55-17.15.2 10.75-.2 19.4-2 1.45-.7.4-4.4m-1.05 5.9-1.6.3 1.6-.3" fill="#ff3e01" fill-rule="evenodd" transform="translate(1 8.7)"/><path d="M89.2 68.5Q81.05 64.2 79 54.85q6.35 9 16.3 9.35h1.2q-4.45.85-7.3 4.3" fill="#371d02" fill-rule="evenodd" transform="translate(1 8.7)"/><path d="M10.35 29.15q-1.8 9.25-.6 15.7 3 16.2 25.05 14.5l24.4 8.75q11.15 10.05 31 9.1 2.85-3.45 7.3-4.3h.3l6.15-.9q19.45-4.25 16.15-12.65l-1.4.2q-22.85 2.6-34.35-3.75-3.8-2.1-6.35-5.15-4.85-7-7.25-16.4-4.1-18.9-12.4-25.55-35.55-22.45-48 20.45M96.3 72.9h1.2" fill="none" stroke="#401c04" stroke-linecap="round" stroke-linejoin="round" stroke-width="2"/><path d="m79 54.85-1.6-2.45m1.6 2.45q6.35 9 16.3 9.35m19.75-7.15q-9.5 1.55-17.15.2-9.65-1.8-16.35-8.15l-2.7-2.9m36.2 10.85 1.6-.3" fill="none" stroke="#401c04" stroke-linecap="round" stroke-linejoin="round" transform="translate(1 8.7)"/><path d="m40.4 20.8-6.75 2.75q-4.5 2.9-8.7 3.35 2.1-7.15.05-17.3 13.1-2.35 20.4 5.3 6.5 11.4-5.15 19.05 3.75-5 3.3-12.1l-2-.7q-.2-3.9-1.55-8.25.95 3.5.4 7.85v.05" fill="#b0724b" fill-rule="evenodd" transform="translate(1 8.7)"/><path d="M36.55 36q2.85-5.5 2.4-9 1.1-3.3 1.45-6.2v-.05l1.15.4q.4 8.65-5 14.85" fill="#ffd2b5" fill-rule="evenodd" transform="translate(1 8.7)"/><path d="M40.25 33.95 36.55 36q5.4-6.2 5-14.85l2 .7q.45 7.1-3.3 12.1" fill="#deaf85" fill-rule="evenodd" transform="translate(1 8.7)"/><path d="M40.4 20.75q.55-4.35-.4-7.85 1.35 4.35 1.55 8.25l-1.15-.4" fill="#cb915f" fill-rule="evenodd" transform="translate(1 8.7)"/><path d="M14.5 39.85q4.5-3.35 6.95-11.1l.45 4.3q2-2.75 3.05-6.15 4.2-.45 8.7-3.35l6.75-2.75q-.35 2.9-1.45 6.2-8.9 13.65-24.4 13.95l-.05-1.1" fill="#dbab7b" fill-rule="evenodd" transform="translate(1 8.7)"/><path d="m3.4 24.75.1-.4q7.55-.05 15.1 1.75 3.05 1.15 6.35.8-1.05 3.4-3.05 6.15l-.45-4.3Q19 36.5 14.5 39.85q-.35-1.8-2.35-2.95L9.8 35.85q-8-4.2-6.4-11.1" fill="#fed1b2" fill-rule="evenodd" transform="translate(1 8.7)"/><path d="M24.95 26.9q-3.3.35-6.35-.8-7.55-1.8-15.1-1.75l.45-1.4q.95-2.4 2.9-5.1 2.9-3.7 8.8-5.6 5-1.9 9.35-2.65 2.05 10.15-.05 17.3" fill="#cd9562" fill-rule="evenodd" transform="translate(1 8.7)"/><path d="M3.4 24.75q-1.6 6.9 6.4 11.1.1 3.4-1.9 3.7.45-1.95-2.8-4.2-.25-1.2-1.85-2.65-3.65-3.15.15-7.95" fill="#d8b07f" fill-rule="evenodd" transform="translate(1 8.7)"/><path d="m3.5 24.35-.1.4q-3.8 4.8-.15 7.95 1.6 1.45 1.85 2.65l-2.3-1.4q-6.1-2.75 1.15-11l-.45 1.4" fill="#ffdbb8" fill-rule="evenodd" transform="translate(1 8.7)"/><path d="m4.5 33.05-.1.4q-1.6 6.9 6.4 11.1l2.35 1.05q2 1.15 2.35 2.95l.05 1.1q15.5-.3 24.4-13.95.45 3.5-2.4 9l3.7-2.05Q52.9 35 46.4 23.6q-7.3-7.65-20.4-5.3-4.35.75-9.35 2.65-5.9 1.9-8.8 5.6-1.95 2.7-2.9 5.1-7.25 8.25-1.15 11l2.3 1.4q3.25 2.25 2.8 4.2 2-.3 1.9-3.7m-6.3-11.5.45-1.4" fill="none" stroke="#472b1f" stroke-linecap="round" stroke-linejoin="round" stroke-width="2"/></g><g id="l"><path d="M44.1 37.25q1.9 2.05 5.1 3.05-5.4 8.95-18.15 6.75l1.55-2.65.6-2.45 4.65-.9q2.6-.9 4.95-2.7l1.3-1.1" fill="#603300" fill-rule="evenodd" transform="translate(1 1)"/><path d="M58.45 77.3q-6.95 1.65-14.4-.5-2.5-1.55-4.05-4.25 6 2.9 5.2-17 .7-8.4-4.4-7.15l-1.05 4.85-.45 2.05v-2.1q-3.85 4.5-9 8.15-1.75 4.05 2.25 12.8-9.3-3.1-14.65-8.95-.7-4.65-.2-6.75 2.65 4.6 8.9.45 11.85-8.35 4.45-11.85 12.75 2.2 18.15-6.75 1.45 1.05-.7 7.7-2.55 22.85 9.95 29.3M27.7 45.75q1.5-2.5 5.6-4.6l-.1.8-.6 2.45-1.55 2.65q-1.6 2.3-3.55 4.25-1.3-3 .2-5.55m11.6 7.45-.05-1.1.05 1.1" fill="#b75e00" fill-rule="evenodd" transform="translate(1 1)"/><path d="M49.2 40.3q2.9.7 1.4 12.3-1.65 18.65 9.35 24.3l-1.5.4Q45.95 70.85 48.5 48q2.15-6.65.7-7.7" fill="#fc4100" fill-rule="evenodd" transform="translate(1 1)"/><path d="M40 72.55q-1.05-1.8-1.7-4.15l.3-2q5.8 2.8 5.35-7.6-.6-8.05-4.2-5.55l1.05-4.85q5.1-1.25 4.4 7.15.8 19.9-5.2 17m-22.3-14.1.2-.7q3.7-1.6 6.7-3.9l2.9-2.55q1.95-1.95 3.55-4.25 7.4 3.5-4.45 11.85-6.25 4.15-8.9-.45m14.05-6.85q1.05-2.65-2.25.05-3.3 2.7-5.05 3.4-1.75.65-2.7 1.4-.95.7-.95 1.3 0 .6.5 1 .55.45 1.35.4.8-.05 4.45-2.5 3.6-2.45 4.65-5.05" fill="#e59a00" fill-rule="evenodd" transform="translate(1 1)"/><path d="M39.3 54.4q-3.6 5.3-8.35 9.15 1.55 6.4 4.9 11.55l-3.3-.95q-4-8.75-2.25-12.8 5.15-3.65 9-8.15v1.2m-8.35 9.15-.35-1.6.35 1.6" fill="#ff3e00" fill-rule="evenodd" transform="translate(1 1)"/><path d="M38.6 66.4q.7-5.45.7-11.1l.45-2.05q3.6-2.5 4.2 5.55.45 10.4-5.35 7.6m-6.85-14.8q-1.05 2.6-4.65 5.05-3.65 2.45-4.45 2.5-.8.05-1.35-.4-.5-.4-.5-1t.95-1.3q.95-.75 2.7-1.4 1.75-.7 5.05-3.4t2.25-.05" fill="#febf32" fill-rule="evenodd" transform="translate(1 1)"/><path d="M24.6 53.85q-.75-5.2 3.1-8.1-1.5 2.55-.2 5.55l-2.9 2.55" fill="#ffe9dc" fill-rule="evenodd" transform="translate(1 1)"/><path d="M30.85 30.75q3.65 1.15 6.7-7.3.75-1.45 2.35-1.6 1.65.9-.3 4.95-2.25 7.75 3.2 11.55-2.35 1.8-4.95 2.7-.65-11.75-6.05-8.7l-.95-1.6" fill="#bb5c00" fill-rule="evenodd" transform="translate(1 1)"/><path d="m39.9 21.85 1.45.1q.6 1.05.4 1.85Q40 32.9 44.1 37.25l-1.3 1.1q-5.45-3.8-3.2-11.55 1.95-4.05.3-4.95" fill="#fd3f01" fill-rule="evenodd" transform="translate(1 1)"/><path d="M33.3 41.15q.6-4.75-1.5-8.8 5.4-3.05 6.05 8.7l-4.65.9.1-.8" fill="#ea9b00" fill-rule="evenodd" transform="translate(1 1)"/><path d="M30.85 30.75q-1.2-1.8-2.95-3.4l7.2-11.15q4.95 3.45 6.25 5.75l-1.45-.1q-1.6.15-2.35 1.6-3.05 8.45-6.7 7.3" fill="#783602" fill-rule="evenodd" transform="translate(1 1)"/><path d="M42.35 22.95q-1.3-2.3-6.25-5.75l-7.2 11.15q1.75 1.6 2.95 3.4l.95 1.6q2.1 4.05 1.5 8.8-4.1 2.1-5.6 4.6-1.5 2.55-.2 5.55 1.95-1.95 3.55-4.25l1.55-2.65.6-2.45.1-.8m8.05-19.2q.6 1.05.4 1.85Q41 33.9 45.1 38.25q1.9 2.05 5.1 3.05 2.9.7 1.4 12.3-1.65 18.65 9.35 24.3l-1.5.4q-6.95 1.65-14.4-.5-2.5-1.55-4.05-4.25-1.05-1.8-1.7-4.15l.3-2q.7-5.45.7-11.1v-.9q-3.6 5.3-8.35 9.15 1.55 6.4 4.9 11.55l-3.3-.95q-9.3-3.1-14.65-8.95-.7-4.65-.2-6.75l.2-.7q3.7-1.6 6.7-3.9-.75-5.2 3.1-8.1m11.55 6.35.05 1.1v1.2m-8.7 7.55.35 1.6m-6.35-9.7 2.9-2.55" fill="none" stroke="#5c2e01" stroke-linecap="round" stroke-linejoin="round" stroke-width="2"/><path d="M43.1 35.8q-.75-.95-1.35-2.9l4.9-.35 1.8.2q3.35 1.9-1.3 5.8-5.3 4.05-17.9 7.9l-1.2-.05q-4.65-.15-5.2-2.3l-.05-.75q3.65 3.75 15.5-1.6 3.15-1.75-.1-2.5 2.95-1.3 4.9-3.45m-9.7 2.15.05 2.7-2.9.45.1-.2q-1.05-1.05 2.75-2.95" fill="#77bfbe" fill-rule="evenodd" transform="translate(1 1)"/><path d="M48.45 32.75q3 .45 3.45 2.1.55 2.15-3.3 5-3.8 2.9-9.8 4.85-5.25 1.65-9.55 1.75 12.6-3.85 17.9-7.9 4.65-3.9 1.3-5.8" fill="#7cfffa" fill-rule="evenodd" transform="translate(1 1)"/><path d="M22.8 43.35q.15-1.85 3.3-4.25 2.85-2.1 6.85-3.65l.45 2.5q-3.8 1.9-2.75 2.95l-.1.2 2.9-.45q2.65-.5 4.75-1.4 3.25.75.1 2.5-11.85 5.35-15.5 1.6m3.5-.6q0-.55-.4-.95-.4-.4-.95-.4-.55 0-.95.4-.4.4-.4.95 0 .55.4.95.4.4.95.4.55 0 .95-.4.4-.4.4-.95m3.45-.2-1.7.2q-.7.25-.7.55l.7.5 1.8.25q1.05-.05 3.8-1.25 2.75-1.25 3.15-1.8.35-.6-2.85.5l-4.2 1.05" fill="#a3e7f0" fill-rule="evenodd" transform="translate(1 1)"/><path d="m29.75 42.55 4.2-1.05q3.2-1.1 2.85-.5-.4.55-3.15 1.8-2.75 1.2-3.8 1.25l-1.8-.25-.7-.5q0-.3.7-.55l1.7-.2m-3.45.2q0 .55-.4.95-.4.4-.95.4-.55 0-.95-.4-.4-.4-.4-.95 0-.55.4-.95.4-.4.95-.4.55 0 .95.4.4.4.4.95" fill="#ecfffd" fill-rule="evenodd" transform="translate(1 1)"/><path d="m42.75 33.9 4.9-.35 1.8.2q3 .45 3.45 2.1.55 2.15-3.3 5-3.8 2.9-9.8 4.85-5.25 1.65-9.55 1.75l-1.2-.05q-4.65-.15-5.2-2.3l-.05-.75q.15-1.85 3.3-4.25 2.85-2.1 6.85-3.65m.5 5.2q2.65-.5 4.75-1.4 2.95-1.3 4.9-3.45m-12.55 5.3 2.9-.45" fill="none" stroke="#2f625c" stroke-linecap="round" stroke-linejoin="round" stroke-width="2"/><path d="M43.1 35.8q-.75-.95-1.35-2.9m-8.8 2.55.45 2.5.05 2.7" fill="none" stroke="#5c2e01" stroke-linecap="round" stroke-linejoin="round" transform="translate(1 1)"/><path d="m20.9 0 2.6 1.85q4.65 4 4.65 9.65t-4.65 9.65q-4.65 4-11.25 4T1 21.15l-.95-.9q-.4-5.3 3.3-10.7Q12.3-.5 20.9 0m-9.55 17.45q2.85-1.05 4.8-3.7 2-2.65 1.95-5.35-.05-2.7-2-3.85-2-1.15-4.85-.1-2.8 1.05-4.8 3.7Q4.5 10.8 4.5 13.5q.05 2.7 2.05 3.85 1.95 1.15 4.8.1" fill="#97510c" fill-rule="evenodd" transform="translate(1 1)"/><path d="M11.35 17.45q-2.85 1.05-4.8-.1-2-1.15-2.05-3.85 0-2.7 1.95-5.35 2-2.65 4.8-3.7 2.85-1.05 4.85.1 1.95 1.15 2 3.85.05 2.7-1.95 5.35-1.95 2.65-4.8 3.7" fill="#d39c4c" fill-rule="evenodd" transform="translate(1 1)"/><path d="M19.05 34.15q14.15-5.7 17.2-17.8l.25.95q.25 6.15-4.25 10.5-6.6 5.6-13.2 6.35" fill="#ff4200" fill-rule="evenodd" transform="translate(1 1)"/><path d="m.05 20.25.95.9q4.65 4 11.25 4t11.25-4q4.65-4 4.65-9.65T23.5 1.85L20.9 0q4.65.3 9.25 3.7 3.8 4.4 6.1 12.65-3.05 12.1-17.2 17.8l-6.6-.45Q3.6 30.8 1.6 25.8.25 23.05.05 20.25" fill="#793609" fill-rule="evenodd" transform="translate(1 1)"/><path d="M1.05 21.25q.2 2.8 1.55 5.55 2 5 10.85 7.9l6.6.45q6.6-.75 13.2-6.35 4.5-4.35 4.25-10.5M31.15 4.7Q26.55 1.3 21.9 1 13.3.5 4.35 10.55q-3.7 5.4-3.3 10.7" fill="none" stroke="#401c04" stroke-linecap="round" stroke-linejoin="round" stroke-width="2"/></g><g id="m"><path d="M75.05 26.05q.65 8.8.25 11.9-.45 3.05.5 5.25t3.55 1.8q2.55-.45 3.85-2.45 1.3-2 1.3-4.85 0-2.85-1.95-7.1t-5.05-8.8q-3.1-4.55-2.45 4.25M34.3 14.3Q41.2 24.55 44.9 43q1.95 4.7 6 2.3 2-1.1 2.45-5.4-.65-21.6-22.2-38.5Q54.7 14.7 71.9 47.65q3.35-10.2 2.1-17.55l-2.4-16.5q14.8 8.3 23.55 28.9 3.15 6.25-13.75 11.65-8.65 3.6-15.85 4.7-11.6 1.25-13 9.75-2.85 18.55-17.4 23.85 1.4-5.35 1.15-11.55-3 5.8-6.75 9.25l-1.05-6.7q2.15-4.1 3.7-8.1 8.3-6.6 8.4-22.35-.8-16.1-10.95-24.95 4.8 2.8 9.55 8.35l-2.4-10.2q-.95-6.65-2.5-11.9" fill="#c848b5" fill-rule="evenodd" transform="translate(1 1)"/><path d="m28.5 83.45 1.05 6.7q3.75-3.45 6.75-9.25.25 6.2-1.15 11.55 14.55-5.3 17.4-23.85 1.4-8.5 13-9.75 7.2-1.1 15.85-4.7 16.9-5.4 13.75-11.65Q86.4 21.9 71.6 13.6q18.5-3.85 32.75 14.7 5.35 7.1 6.45 17.2Q113.75 88 12.1 135L0 119.05q19.5-18.4 28.5-35.6" fill="#a8359a" fill-rule="evenodd" transform="translate(1 1)"/><path d="m36.8 26.2 2.4 10.2q-4.75-5.55-9.55-8.35 3.5-1 7.6 1.75l-.45-3.6M74 30.1q1.25 7.35-2.1 17.55Q54.7 14.7 31.15 1.4q3.5-3.85 22.3 2.75Q66.25 11.45 74 30.1" fill="#a231a7" fill-rule="evenodd" transform="translate(1 1)"/><path d="M75.05 26.05q-.65-8.8 2.45-4.25 3.1 4.55 5.05 8.8 1.95 4.25 1.95 7.1 0 2.85-1.3 4.85-1.3 2-3.85 2.45-2.6.4-3.55-1.8-.95-2.2-.5-5.25.4-3.1-.25-11.9M31.15 1.4q21.55 16.9 22.2 38.5-.45 4.3-2.45 5.4-4.05 2.4-6-2.3-3.7-18.45-10.6-28.7-1.6-5.4-3.8-9.35-.45-2.3.65-3.55m-1.5 26.65Q39.8 36.9 40.6 53q-.1 15.75-8.4 22.35 9.5-24.8-3.65-46.9l1.1-.4" fill="#ec76ee" fill-rule="evenodd" transform="translate(1 1)"/><path d="M32.15 2.4q-1.1 1.25-.65 3.55 2.2 3.95 3.8 9.35 1.55 5.25 2.5 11.9l.45 3.6q-4.1-2.75-7.6-1.75l-1.1.4q13.15 22.1 3.65 46.9-1.55 4-3.7 8.1-9 17.2-28.5 35.6L13.1 136q101.65-47 98.7-89.5-1.1-10.1-6.45-17.2Q91.1 10.75 72.6 14.6L75 31.1Q67.25 12.45 54.45 5.15q-18.8-6.6-22.3-2.75z" fill="none" stroke="#48174f" stroke-linecap="round" stroke-linejoin="round" stroke-width="2"/><path d="M108.05 53.45q6.35-3.55 12.6-8.15 7.95 10.7 4.85 23.85-9.95 8.7-25.2 16.7-3.4-3.65-3.8-8.05 1.5-10.6 11.55-24.35m-3.95 61.45q-15.65 1.45-36.75-4.05Q83.7 104.7 96.2 96.3l14.95-.45q-1.35 12.5-7.05 19.05" fill="#b04608" fill-rule="evenodd" transform="translate(1 1)"/><path d="M93 60.05q7.6-2.55 15.05-6.6Q98 67.2 96.5 77.8q.4 4.4 3.8 8.05 15.25-8 25.2-16.7-2.75 11.65-14.2 25.2l-.15 1.5-14.95.45q-12.5 8.4-28.85 14.55 21.1 5.5 36.75 4.05-7.65 8.75-23.15 6.6l-1.4 4.55-15.7-3.4q2.6 8.6 9 13.15-6.4 4.85-16.7 1.95l-.4 1.3q-1.9-2.25-3.1-6.35l-9.9 3.7q1.1 6.95 4.3 12.25-3.6 1.15-8.4.15-2.1 2.35-4.85 3.55-3.35-8.85-7.5-11.9-2.65-3.4 2.5-4.8 20.75-5.75 26.7-13.6 2.3-2.35-3.25-6.75 8-13.6 32.35-21.5 16.5-3.6 5.45-15.3Q87.4 69.65 93 60.05" fill="#8e3106" fill-rule="evenodd" transform="translate(1 1)"/><path d="M47.05 148.65q-3.2-5.3-4.3-12.25l9.9-3.7q1.2 4.1 3.1 6.35-2.75 7.7-8.7 9.6m25.8-12.85q-6.4-4.55-9-13.15l15.7 3.4q-2.5 6.55-6.7 9.75" fill="#a94d0a" fill-rule="evenodd" transform="translate(1 1)"/><path d="M118.5 93.8q7.25 3.2 19.5 1.8-11.15 17.1-33.9 19.3 5.7-6.55 7.05-19.05 4.05-.7 7.35-2.05m2.15-48.5q9.95-7.4 19.65-17.65l3.55 2.3Q146.3 51 125.5 69.15q3.1-13.15-4.85-23.85" fill="#fed0af" fill-rule="evenodd" transform="translate(1 1)"/><path d="M143.85 29.95q1.75 1.4 3.05 3.15 5.25 33.95-28.4 60.7-3.3 1.35-7.35 2.05l.15-1.5q11.45-13.55 14.2-25.2 20.8-18.15 18.35-39.2M138 95.6l2.25-.3q-13.5 34.8-57.5 28.65l4.35 3.75-7.55-1.65 1.4-4.55q15.5 2.15 23.15-6.6 22.75-2.2 33.9-19.3m-33.1 43.9-.05.05q-21.05 16.15-47.55.9l-1.55-1.4.4-1.3q10.3 2.9 16.7-1.95 10.7 7.6 32.05 3.7M56.15 158l-.55 1.2q-6-1.2-14.05-6.25-6.9 7.45-15.3.6 4.25.25 7.55-1.2 2.75-1.2 4.85-3.55 4.8 1 8.4-.15 3.35 5.55 9.1 9.35" fill="#d08e54" fill-rule="evenodd" transform="translate(1 1)"/><path d="M146.9 33.1q6.55 8.65 3.1 25.9-5.05 19.9-31.5 34.8 33.65-26.75 28.4-60.7" fill="#fd9027" fill-rule="evenodd" transform="translate(1 1)"/><path d="M140.25 95.3q1.15 14.35-15 25.55-23.9 15.75-42.5 3.1 44 6.15 57.5-28.65m-35.4 44.25q-4.7 9.7-13.6 12.55-20.9 6.75-33.95-11.65 26.5 15.25 47.55-.9M55.6 159.2l-.6 1.1q-10.7-.25-13.45-7.35Q49.6 158 55.6 159.2" fill="#ff9d23" fill-rule="evenodd" transform="translate(1 1)"/><path d="M87.1 127.7q8.1 6.45 18.4 10.45l-.6 1.35q-21.35 3.9-32.05-3.7 4.2-3.2 6.7-9.75l7.55 1.65m-29.8 12.75q2.5 9.2-1.15 17.55-5.75-3.8-9.1-9.35 5.95-1.9 8.7-9.6l1.55 1.4" fill="#ffd2b1" fill-rule="evenodd" transform="translate(1 1)"/><path d="M26.25 153.55q-5.05-4.1-10.6-13.4L90.2 60.9l2.8-.85q-5.6 9.6-2.95 18.45 11.05 11.7-5.45 15.3-24.35 7.9-32.35 21.5 5.55 4.4 3.25 6.75-5.95 7.85-26.7 13.6-5.15 1.4-2.5 4.8 4.15 3.05 7.5 11.9-3.3 1.45-7.55 1.2" fill="#541c01" fill-rule="evenodd" transform="translate(1 1)"/><path d="M144.85 30.95q1.75 1.4 3.05 3.15 6.55 8.65 3.1 25.9-5.05 19.9-31.5 34.8 7.25 3.2 19.5 1.8l2.25-.3q1.15 14.35-15 25.55-23.9 15.75-42.5 3.1l4.35 3.75q8.1 6.45 18.4 10.45l-.6 1.35-.05.05q-4.7 9.7-13.6 12.55-20.9 6.75-33.95-11.65 2.5 9.2-1.15 17.55l-.55 1.2-.6 1.1q-10.7-.25-13.45-7.35-6.9 7.45-15.3.6-5.05-4.1-10.6-13.4L91.2 61.9l2.8-.85q7.6-2.55 15.05-6.6 6.35-3.55 12.6-8.15 9.95-7.4 19.65-17.65l3.55 2.3z" fill="none" stroke="#481804" stroke-linecap="round" stroke-linejoin="round" stroke-width="2"/><path d="M76.1 69.95q6-3.6 12.65-6.5-4.85 1.2-9.25 2.85 6.95-6.85 20.4-15.85l2-1q3.1-1.65 1.15 1.9-14.35 9.95-17.1 28.1 8.9 7.35-.55 10.35-16.55 7.55-21.65 13.35-9.75 6-18.5 13.3 5.75 1.85 7.85 3.6 1.25 2.7-6.85 6.1-8.2 3.4-12.15 5.85l-1 .35-.25.1q-5.7.35-9.75 1.9-4 1.45-2.8-2.25 3.15-5.95 0-9.55l2.15-3.4-.45 3.8 4.75-4.8v3.05l-1.5 2.25q-4.85 12.75 23.3-.55-20.5 7.8-16.85.9l.35-.65q4.35-3.45 7.75-9.55 2.4-3.7 5.15-6.95l1.15-.9q15.4-.4 23.35-12.3-10.5 6.95-14.9 5.8.45-1.65 1.75-3.4 5.1-3.85 10.95-6.6 3.1-1.4 4.25-5.45l2.25-1.3-2 .1q.4-2.1.35-4.75.25-3.35 4-7.9" fill="#8aac4e" fill-rule="evenodd" transform="translate(1 1)"/><path d="M79.5 66.3q4.4-1.65 9.25-2.85-6.65 2.9-12.65 6.5 1.45-1.75 3.4-3.65" fill="#148073" fill-rule="evenodd" transform="translate(1 1)"/><path d="M85.95 79.45q2.75-18.15 17.1-28.1l-2.2 3.5q-10.15 12.3-14.9 24.6" fill="#fd8f00" fill-rule="evenodd" transform="translate(1 1)"/><path d="M76.1 69.95q-3.75 4.55-4 7.9.05 2.65-.35 4.75-6.35.8-17.8 7.7 6.45-5 9.7-11.65 5.85-4.75 12.45-8.7M71.5 83.8q-1.15 4.05-4.25 5.45Q61.4 92 56.3 95.85q3.85-5.45 15.2-12.05m28.4-33.35q-13.45 9-20.4 15.85-7.3 2.65-13.4 6.65 3.8-7.7 12.6-14.2 10.1-2.9 21.2-8.3" fill="#b8fe7a" fill-rule="evenodd" transform="translate(1 1)"/><path d="M79.5 66.3q-1.95 1.9-3.4 3.65-6.6 3.95-12.45 8.7l.9-2q.65-1.9 1.55-3.7 6.1-4 13.4-6.65" fill="#62ffcd" fill-rule="evenodd" transform="translate(1 1)"/><path d="M66.1 72.95q-.9 1.8-1.55 3.7l-.9 2q-3.25 6.65-9.7 11.65-2.95 2.3-6.6 4.25L44.5 97.1q7.85-15.25 21.6-24.15" fill="#d0ffea" fill-rule="evenodd" transform="translate(1 1)"/><path d="M26.1 112.85q5.95-6.65 10.9-15.5.95-2.55 5.75-6.35 15.5-13.15 14.05-24.2-1.5-5.4 9.15-5.4 6.15-.8 12.75-2.65-8.8 6.5-12.6 14.2-13.75 8.9-21.6 24.15-2.6 2.7-4.55 6.35-8.3 13.05-13.85 9.4" fill="#e5ffd0" fill-rule="evenodd" transform="translate(1 1)"/><path d="m71.75 82.6 2-.1-2.25 1.3.25-1.2M56.3 95.85q-1.3 1.75-1.75 3.4 4.4 1.15 14.9-5.8-7.95 11.9-23.35 12.3l-1.15.9q5.1-6.2 11.35-10.8" fill="#0e846c" fill-rule="evenodd" transform="translate(1 1)"/><path d="M63.75 103.15q5.1-5.8 21.65-13.35 9.45-3 .55-10.35 10.9 7.65 3.85 10.7-13.8 5.5-26.05 13" fill="#fb9b06" fill-rule="evenodd" transform="translate(1 1)"/><path d="M44.95 106.65q-2.75 3.25-5.15 6.95-3.4 6.1-7.75 9.55 5.3-10.5 12.9-16.5m-18.2 14.55v-3.05l-4.75 4.8.45-3.8.35-2.95 3.3-3.35q5.55 3.65 13.85-9.4 1.95-3.65 4.55-6.35-1.4 3.35-.85 6.4-11.65 10.2-16.9 17.7" fill="#b6fd71" fill-rule="evenodd" transform="translate(1 1)"/><path d="m32.05 123.15-.35.65q-3.65 6.9 16.85-.9-28.15 13.3-23.3.55l1.5-2.25-.6 5.25q3.15-1.15 5.9-3.3" fill="#148a70" fill-rule="evenodd" transform="translate(1 1)"/><path d="m71.75 82.6-.25 1.2q-11.35 6.6-15.2 12.05-6.25 4.6-11.35 10.8-7.6 6-12.9 16.5-2.75 2.15-5.9 3.3l.6-5.25q5.25-7.5 16.9-17.7-.55-3.05.85-6.4l2.85-2.55q3.65-1.95 6.6-4.25 11.45-6.9 17.8-7.7" fill="#64ffc5" fill-rule="evenodd" transform="translate(1 1)"/><path d="M34.1 132q3.95-2.45 12.15-5.85 8.1-3.4 6.85-6.1 2 1.65.6 3.25-2.05 4-9.15 5.75-5.65 1.3-10.45 2.95" fill="#fb9d09" fill-rule="evenodd" transform="translate(1 1)"/><path d="m22.45 119.15-2.15 3.4q3.15 3.6 0 9.55-1.2 3.7 2.8 2.25 4.05-1.55 9.75-1.9-10.15 3.65-16.2 9.05-7.2-5.7-11.05-13.8 9.4-4 17.2-11.5l-.35 2.95" fill="#536a22" fill-rule="evenodd" transform="translate(1 1)"/><path d="m34.1 133.35 1-.35q4.8-1.65 10.45-2.95 7.1-1.75 9.15-5.75 1.4-1.6-.6-3.25-2.1-1.75-7.85-3.6 8.75-7.3 18.5-13.3 12.25-7.5 26.05-13 7.05-3.05-3.85-10.7 4.75-12.3 14.9-24.6l2.2-3.5q1.95-3.55-1.15-1.9l-2 1q-11.1 5.4-21.2 8.3-6.6 1.85-12.75 2.65-10.65 0-9.15 5.4Q59.25 78.85 43.75 92q-4.8 3.8-5.75 6.35-4.95 8.85-10.9 15.5l-3.3 3.35q-7.8 7.5-17.2 11.5 3.85 8.1 11.05 13.8 6.05-5.4 16.2-9.05" fill="none" stroke="#094d3f" stroke-linecap="round" stroke-linejoin="round" stroke-width="2"/></g><g id="n"><path d="M.65 15.05q5.2 2.75 12.4 2 5.4-.95 2.05-6.7-3.3-6.1-10.8-8l1.4-.95q12.55 5.15 22.65 19.35Q29 23.6 26.8 27q-2.3 4.55-3 9.3.3 3.35-3.95 5.5-4.3 2.15-5.15 3.05-1.2 2.1 2.55 6.5H14.3Q9.3 44.9 15.5 41q5.75-2.1 5.45-5.3-.25-3.95-6.1-2.25 3.25-3.95 5.2-10.4-1.55-2.85-4.25-3.4-12.7.3-15.15-4.6" fill="#c95c01" fill-rule="evenodd" transform="translate(.4 1)"/><path d="M14.85 33.45q5.85-1.7 6.1 2.25.3 3.2-5.45 5.3-6.2 3.9-1.2 10.35l-2.95.05q-1.7-.5-3.25-1.35l-1.3-.75q3.95.35 4-4.05.35-2.4 2.65-3.55 3.3-1.65 1.55-3.35-.15-1.1-2.3-.2 3.4-2.6.45-2.85l1.7-1.85" fill="#ed9902" fill-rule="evenodd" transform="translate(.4 1)"/><path d="M14.3 51.35h2.95q-3.75-4.4-2.55-6.5.85-.9 5.15-3.05 4.25-2.15 3.95-5.5 2.9 4.85-7.7 8.9-1.65 2.1 3.45 6.9-4.45.45-8.2-.7l2.95-.05" fill="#fb4104" fill-rule="evenodd" transform="translate(.4 1)"/><path d="M12.7 38.15q-.35.1-.75.3-4.35 1.65-7.05 1.9-1.85.95-2 4.7-1.35 1.25-2.35.2-.35-4.5 2-5.7 6.25-.3 10.6-4.25 2.95.25-.45 2.85M6.8 49.3q-1.1-2.85.55-7L15 38.35q1.75 1.7-1.55 3.35-2.3 1.15-2.65 3.55-.05 4.4-4 4.05" fill="#fbbf21" fill-rule="evenodd" transform="translate(.4 1)"/><path d="M2.9 45.05q.15-3.75 2-4.7 2.7-.25 7.05-1.9.4-.2.75-.3 2.15-.9 2.3.2L7.35 42.3q-1.65 4.15-.55 7l1.3.75.15 6.5q-2.8-2.9-4.85-5.7-.6-3.45-.5-5.8" fill="#c85f04" fill-rule="evenodd" transform="translate(.4 1)"/><path d="M2.9 45.05q-.1 2.35.5 5.8L.7 46.7l-.15-1.45q1 1.05 2.35-.2" fill="#ed9809" fill-rule="evenodd" transform="translate(.4 1)"/><path d="M4.6 7.05Q2.7 7.05 2 8.2q-.65 1.15.3 2.85 1 1.65 3.1 2.85 2.1 1.2 4 1.25 1.95 0 2.6-1.15.7-1.15-.3-2.85-.95-1.65-3.05-2.85-2.1-1.2-4.05-1.25m-.3-4.7q7.5 1.9 10.8 8 3.35 5.75-2.05 6.7-7.2.75-12.4-2-.45-.9-.55-2-.75-6.7 4.2-10.7" fill="#ee9503" fill-rule="evenodd" transform="translate(.4 1)"/><path d="M4.6 7.05q1.95.05 4.05 1.25 2.1 1.2 3.05 2.85 1 1.7.3 2.85-.65 1.15-2.6 1.15-1.9-.05-4-1.25t-3.1-2.85Q1.35 9.35 2 8.2q.7-1.15 2.6-1.15" fill="#ffbb1f" fill-rule="evenodd" transform="translate(.4 1)"/><path d="M.65 15.05q2.45 4.9 15.15 4.6 2.7.55 4.25 3.4-1.95 6.45-5.2 10.4l-1.7 1.85q-4.35 3.95-10.6 4.25-2.35 1.2-2 5.7L.7 46.7l2.7 4.15q2.05 2.8 4.85 5.7l-.15-6.5-1.3-.75q-1.1-2.85.55-7L15 38.35m8.8-2.05q.7-4.75 3-9.3 2.2-3.4 1.55-6.25Q18.25 6.55 5.7 1.4M.1 13.05q.1 1.1.55 2m10.7 36.35q3.75 1.15 8.2.7-5.1-4.8-3.45-6.9 10.6-4.05 7.7-8.9M8.1 50.05q1.55.85 3.25 1.35" fill="none" stroke="#7e3301" stroke-linecap="round" stroke-linejoin="round" transform="translate(.4 1)"/><path d="M28.55 8Q29 4.45 28.1.15q.75.3 1.65 1.25Q33 6.35 33.3 12.1l-.55.65-1.7 1.8-1.95 1.65q.15-4.55-.55-8.2m-8.1 23.4q-2.4-1.25-5.05.45l.4-1.2q2.65-1.15 6.1-.6l.55-1.2v-.05Q29 24.35 31.6 18.2l1.55-2.1q2.2-3.35 3.05-6.5.55 7.65-5.65 14.6-4.8 4.5-6.1 8.75-1.75-1.85-4-1.55" fill="#72c049" fill-rule="evenodd" transform="translate(.4 1)"/><path d="M29.1 16.2q-3.05 2.35-7.5 4.3 2.05-2 3.5-4.75Q27.9 12.5 28.55 8q.7 3.65.55 8.2m2.5 2q-2.6 6.15-9.15 10.6 1-2.15 2.75-3.85l.95-.85q3.2-3 5.45-5.9" fill="#108e76" fill-rule="evenodd" transform="translate(.4 1)"/><path d="m33.3 12.1 1.9-3.5q.75-.2 1.2.2l-.2.8q-.85 3.15-3.05 6.5-3.85 4.85-7 8l-.95.85q-1.75 1.7-2.75 3.85v.05q-2.7 1.35-4.4-1.15h3.3q1.9-4.15 6.55-7.45 6.4-5.9 4.85-7.5l.55-.65" fill="#a5f874" fill-rule="evenodd" transform="translate(.4 1)"/><path d="M25.75 3.15q1.85 1.05 1.2 5.1-.55 5.35-3.75 4.5 2.1-4.85 2.55-9.6m-7.7 24.55q-.5-3.35 1.75-5.2 8.1-3.55 11.25-7.95l1.7-1.8q1.55 1.6-4.85 7.5-4.65 3.3-6.55 7.45h-3.3" fill="#deffd6" fill-rule="evenodd" transform="translate(.4 1)"/><path d="m25.75 3.15.05-.55.05-.25q.45-3 2.25-2.2.9 4.3.45 7.85l-.7-2.6q-.65 6.05-2.75 10.35-2.35 2.6-6.15 4.35 2.6-3.7 4.25-7.35 3.2.85 3.75-4.5.65-4.05-1.2-5.1" fill="#adfe71" fill-rule="evenodd" transform="translate(.4 1)"/><path d="M25.1 15.75q2.1-4.3 2.75-10.35l.7 2.6q-.65 4.5-3.45 7.75m8.05.35-1.55 2.1q-2.25 2.9-5.45 5.9 3.15-3.15 7-8" fill="#5cffc9" fill-rule="evenodd" transform="translate(.4 1)"/><path d="M18.95 20.1q3.8-1.75 6.15-4.35-1.45 2.75-3.5 4.75l-4.2 1.65 1.55-2.05" fill="#78b33d" fill-rule="evenodd" transform="translate(.4 1)"/><path d="M15.8 30.65q.85-3.2 1-8.3l.6-.2 4.2-1.65q4.45-1.95 7.5-4.3l1.95-1.65q-3.15 4.4-11.25 7.95-2.25 1.85-1.75 5.2 1.7 2.5 4.4 1.15l-.55 1.2q-3.45-.55-6.1.6" fill="#a6fd78" fill-rule="evenodd" transform="translate(.4 1)"/><path d="M36.4 8.8q1.25.95.3 6-1.45 5.9-6.15 10.9-4.75 4.95-4.9 6.15-.5 4-1.95 4.45.2-1.8-1-3.1-1.1-1.25-2.25-1.8 2.25-.3 4 1.55 1.3-4.25 6.1-8.75 6.2-6.95 5.65-14.6l.2-.8" fill="#ff9e00" fill-rule="evenodd" transform="translate(.4 1)"/><path d="M28.5 1.15q-1.8-.8-2.25 2.2l-.05.25-.05.55q-.45 4.75-2.55 9.6-1.65 3.65-4.25 7.35l-1.55 2.05-.6.2q-.15 5.1-1 8.3l-.4 1.2q2.65-1.7 5.05-.45 1.15.55 2.25 1.8 1.2 1.3 1 3.1 1.45-.45 1.95-4.45.15-1.2 4.9-6.15 4.7-5 6.15-10.9.95-5.05-.3-6-.45-.4-1.2-.2l-1.9 3.5q-.3-5.75-3.55-10.7-.9-.95-1.65-1.25m2.95 14.4L29.5 17.2q-3.05 2.35-7.5 4.3l-4.2 1.65m13.65-7.6 1.7-1.8.55-.65" fill="none" stroke="#0b5b4a" stroke-linecap="round" stroke-linejoin="round" stroke-width="2"/></g><g id="o"><path d="M79.65 29.65q.5 4.2.3 9.2l-7.9 15.8-15 4.3-33.4-14.55q.45-5.7.35-10.25 15.8 6.55 33.45 4.95-1.25 2.75 0 4.4 4.5 1.4 5.1 6.95 8.8-5.9 17.1-20.8" fill="#852202" fill-rule="evenodd" transform="translate(1 1)"/><path d="M67.8 9.9q10.1 5.25 11.85 19.75-8.3 14.9-17.1 20.8-.6-5.55-5.1-6.95-1.25-1.65 0-4.4Q39.8 40.7 24 34.15q-.35-13-5.3-16.85 9.45 2.35 12.2 16l19.75 2.1q9.7-17.65.05-34.3 12.55 5.6 11.95 24.4-1.95 3.15-4.55 5.75l-4.4 4.4q.2 3.6 3.75 3.45 1.8-.1 4.5-1.15 6.75-3.1 8.35-11Q73.1 16.4 67.8 9.9" fill="#b9360a" fill-rule="evenodd" transform="translate(1 1)"/><path d="M30.9 33.3Q43.4 23.9 47.7 0l3 1.1q9.65 16.65-.05 34.3L30.9 33.3m31.75-7.8q4.1-6.65 5.15-15.6 5.3 6.5 2.5 17.05-1.6 7.9-8.35 11-2.7 1.05-4.5 1.15-3.55.15-3.75-3.45l4.4-4.4q2.6-2.6 4.55-5.75" fill="#d06424" fill-rule="evenodd" transform="translate(1 1)"/><path d="m23.65 44.4-6.75-2.95q3.05-16.9 1.8-24.15 4.95 3.85 5.3 16.85.1 4.55-.35 10.25" fill="#cf6529" fill-rule="evenodd" transform="translate(1 1)"/><path d="M68.8 10.9q10.1 5.25 11.85 19.75.5 4.2.3 9.2l-7.9 15.8-15 4.3-33.4-14.55-6.75-2.95q3.05-16.9 1.8-24.15 9.45 2.35 12.2 16Q44.4 24.9 48.7 1l3 1.1q12.55 5.6 11.95 24.4 4.1-6.65 5.15-15.6m-9.7 21.35q2.6-2.6 4.55-5.75" fill="none" stroke="#6d0117" stroke-linecap="round" stroke-linejoin="round" stroke-width="2"/><path d="M72.3 27.55Q85.85 26.3 88.65 43.9q-.95 2.35.75 3 2.35-2.9 3-6.65l.8-.8q.8 3.3.05 9.2-6.35-.8-16.95 1.8-10.9 1.2-8.3-4.95l.45-.95q6.1 4.95 10.1 1.35 3.35-3.35 1.2-8.95-2.55-6.1-7.45-9.4" fill="#bc3a09" fill-rule="evenodd" transform="translate(1 1)"/><path d="M68.45 44.55q3.2-7.6 3.1-16.95l.75-.05q4.9 3.3 7.45 9.4 2.15 5.6-1.2 8.95-4 3.6-10.1-1.35m20.2-.65 3.75-3.65q-.65 3.75-3 6.65-1.7-.65-.75-3" fill="#d16d21" fill-rule="evenodd" transform="translate(1 1)"/><path d="M93.25 48.65q-.65 4.85-2.35 11.4l-5.2 11.9q-1.9 4.35-10.05 9.3-6.4 4.7-3.6 9.9v5.45q3.7 2 10.65.65l4.35-1.1-.8.6q-9.55 6.7-21.3 1.25L60.6 85.15 58.55 58q6.2-5.45 9.45-12.5-2.6 6.15 8.3 4.95 10.6-2.6 16.95-1.8" fill="#852202" fill-rule="evenodd" transform="translate(1 1)"/><path d="m98.1 64.55.45-.5Q96.9 75.15 85.2 88.2l-9.7 4.05q11.25-1.1 15.85-6.4l.7-.45q-1.5 6.85-9.35 11.85-6.95 1.35-10.65-.65v-5.45Q94.5 78 98.1 64.55" fill="#ba3c09" fill-rule="evenodd" transform="translate(1 1)"/><path d="m98.55 64.05.75-.9q.75 13.7-14.1 25.05 11.7-13.05 13.35-24.15m-6.5 21.35 1.15-.75q-.9 7.35-6.15 11.5l-4.35 1.1q7.85-5 9.35-11.85" fill="#fb6e04" fill-rule="evenodd" transform="translate(1 1)"/><path d="M90.9 60.05 87.4 72.1q6.35-2.75 10.7-7.55Q94.5 78 72.05 91.15q-2.8-5.2 3.6-9.9 8.15-4.95 10.05-9.3l5.2-11.9M85.2 88.2q3.3-.8 6.15-2.35-4.6 5.3-15.85 6.4l9.7-4.05m-.05-7.8q5.1-5-.6-2.2-5.75 2.7-6.8 3.4l-1.65 1.3q-.6.6-.6 1.45t.6 1.45q.6.6 1.45.6t1.7-.5l5.9-5.5m3.7-6.4q-.4.4-.4 1t.4 1q.4.4 1 .4t1-.4q.4-.4.4-1t-.4-1q-.4-.4-1-.4t-1 .4" fill="#d1771f" fill-rule="evenodd" transform="translate(1 1)"/><path d="M88.85 74q.4-.4 1-.4t1 .4q.4.4.4 1t-.4 1q-.4.4-1 .4t-1-.4q-.4-.4-.4-1t.4-1m-3.7 6.4-5.9 5.5q-.85.5-1.7.5t-1.45-.6q-.6-.6-.6-1.45t.6-1.45l1.65-1.3q1.05-.7 6.8-3.4 5.7-2.8.6 2.2" fill="#f1b63e" fill-rule="evenodd" transform="translate(1 1)"/><path d="M69.45 45.55q3.2-7.6 3.1-16.95l.75-.05Q86.85 27.3 89.65 44.9l3.75-3.65.8-.8q.8 3.3.05 9.2-.65 4.85-2.35 11.4L88.4 73.1q6.35-2.75 10.7-7.55l.45-.5.75-.9q.75 13.7-14.1 25.05 3.3-.8 6.15-2.35l.7-.45 1.15-.75q-.9 7.35-6.15 11.5l-.8.6q-9.55 6.7-21.3 1.25L61.6 86.15 59.55 59q6.2-5.45 9.45-12.5l.45-.95z" fill="none" stroke="#6d0117" stroke-linecap="round" stroke-linejoin="round" stroke-width="2"/><path d="M21.15 100.8Q33.6 76.25 59.2 71.4l.25-.05q1.9 1.6.55 2.9-1.45 1.4-1.65 2.6v6.55q.2 4.6-1.6 5.75L54.5 90.7q-8.8 5.5-16.3 1.2l-1.7-1.1q-1.35 2.6-.95 5.8 5.45 11.9-2.4 15.1-4.85-2-12-10.9" fill="#852703" fill-rule="evenodd" transform="translate(1 1)"/><path d="M49.4 96.2q1.15-1.15 2.8-1.15T55 96.2q1.15 1.15 1.15 2.8T55 101.8q-1.15 1.15-2.8 1.15t-2.8-1.15q-1.15-1.15-1.15-2.8t1.15-2.8" fill="#fec669" fill-rule="evenodd" transform="translate(1 1)"/><path d="M54.5 90.7q5.6 3.05 3.6 9.9-2.7 7.1-14.65 5.8-2.1-1.15-4.85-.85-.2-6.2-2.8-10.25l2.4-3.4q7.5 4.3 16.3-1.2m-5.1 5.5q-1.15 1.15-1.15 2.8t1.15 2.8q1.15 1.15 2.8 1.15t2.8-1.15q1.15-1.15 1.15-2.8T55 96.2q-1.15-1.15-2.8-1.15t-2.8 1.15" fill="#d17f1c" fill-rule="evenodd" transform="translate(1 1)"/><path d="M48.35 111.65q12.45-.75 17.1-12.15 3.6-8.05 0-13.25 5.9 2.7 1.6 14.5-7.55 13.7-18.7 10.9M75 76.75q18-15.65 24.1-31.7 3.7 2.3-6.8 16.9-9.7 12.25-23.7 20.1l6.4-5.3" fill="#ff6c02" fill-rule="evenodd" transform="translate(1 1)"/><path d="M97.35 44.6Q82 67.9 61.95 76.25q2.45-2.85.65-5.75-4.85-6.8-1.2-15.8l9.85-.65Q84.9 50.4 96.4 44.6h.95M83.1 56.8q4.35-7.25.15-5.85-9.8 3.55-18.5 4.75-3.05 2-1.7 9 1.2 4.6 11.1-.75 4.5-2.2 8.95-7.15m5.95-8.1q-.7 0-1.2.45-.45.5-.45 1.2t.45 1.15q.5.5 1.2.5t1.15-.5q.5-.45.5-1.15t-.5-1.2q-.45-.45-1.15-.45" fill="#d37918" fill-rule="evenodd" transform="translate(1 1)"/><path d="M89.05 48.7q.7 0 1.15.45.5.5.5 1.2t-.5 1.15q-.45.5-1.15.5t-1.2-.5q-.45-.45-.45-1.15t.45-1.2q.5-.45 1.2-.45m-5.95 8.1q-4.45 4.95-8.95 7.15-9.9 5.35-11.1.75-1.35-7 1.7-9 8.7-1.2 18.5-4.75 4.2-1.4-.15 5.85" fill="#ecb13d" fill-rule="evenodd" transform="translate(1 1)"/><path d="m30.45 6.65.35.2q14.4 8.5 8.65 26.8-3.45 8.9-8.4 16.45-5.2 9.05-8 18.75-4.95 20-11.05 20-6.8-6-9.75-12.75-.35-5.95.7-9.95Q5.3 70.1 9.7 70.1t8.3-3.95q3.95-3.95 5.05-9.5 1.15-5.55-1.2-9.5-2.3-3.95-6.7-3.95-2.2 0-4.25 1l6.15-8.85Q11.05 40 6.2 45.8q6.35-9.85 16.15-17.55Q38 16.5 30.7 7.95q-.35-.6-.25-1.3" fill="#d06328" fill-rule="evenodd" transform="translate(1 1)"/><path d="M6.2 45.8q4.85-5.8 10.85-10.45L10.9 44.2q2.05-1 4.25-1 4.4 0 6.7 3.95 2.35 3.95 1.2 9.5-1.1 5.55-5.05 9.5-3.9 3.95-8.3 3.95t-6.75-3.95q-1.05 4-.7 9.95Q-2.7 64.6 3.3 50.75q1.35-2.55 2.9-4.95m0 2Q4.9 49 4.15 50.55l-.75 2.1q-.75 2.8.25 4.75 1.1 2.05 3.3 2.05 2.2 0 4.25-2.05 2.15-1.95 2.9-4.75.7-2.85-.35-4.85-1.05-1.95-3.25-1.95T6.2 47.8" fill="#f0ad44" fill-rule="evenodd" transform="translate(1 1)"/><path d="M6.2 47.8q2.1-1.95 4.3-1.95 2.2 0 3.25 1.95 1.05 2 .35 4.85-.75 2.8-2.9 4.75-2.05 2.05-4.25 2.05t-3.3-2.05q-1-1.95-.25-4.75l.75-2.1Q4.9 49 6.2 47.8" fill="#ffedcd" fill-rule="evenodd" transform="translate(1 1)"/><path d="M61.8 85.45 61 84.3l14-7.55-6.4 5.3-.35.2q-3.15 1.7-6.45 3.2" fill="#862400" fill-rule="evenodd" transform="translate(1 1)"/><path d="M12 88.85q6.1 0 11.05-20 2.8-9.7 8-18.75 4.95-7.55 8.4-16.45 5.75-18.3-8.65-26.8l-.35-.2-.15-.05q.3-2.15 7.45-1.95Q41.3 5 44 6.85q8.5 6 7.45 28-4.8 18.55 9.95 19.85-3.65 9 1.2 15.8 1.8 2.9-.65 5.75Q82 67.9 97.35 44.6q1.1 0 1.75.45Q93 61.1 75 76.75L61 84.3l.8 1.15q2.15.1 3.65.8 3.6 5.2 0 13.25-4.65 11.4-17.1 12.15-3.6-.9-7.6-3.55-2.55 5.6-7.6 3.6 7.85-3.2 2.4-15.1-.4-3.2.95-5.8l1.7 1.1-2.4 3.4q2.6 4.05 2.8 10.25 2.75-.3 4.85.85 11.95 1.3 14.65-5.8 2-6.85-3.6-9.9l2.25-1.55q1.8-1.15 1.6-5.75v-6.55q.2-1.2 1.65-2.6 1.35-1.3-.55-2.9l-.25.05q-25.6 4.85-38.05 29.4-3.65-4.55-7.9-10.9L12 88.85" fill="#b9360a" fill-rule="evenodd" transform="translate(1 1)"/><path d="m13 89.85 1.25 1.05q4.25 6.35 7.9 10.9 7.15 8.9 12 10.9 5.05 2 7.6-3.6 4 2.65 7.6 3.55 11.15 2.8 18.7-10.9 4.3-11.8-1.6-14.5-1.5-.7-3.65-.8 3.3-1.5 6.45-3.2m30.85-37.2q-.65-.45-1.75-.45h-.95q-11.5 5.8-25.15 9.45l-9.85.65q-14.75-1.3-9.95-19.85 1.05-22-7.45-28-2.7-1.85-6.25-2.2-7.15-.2-7.45 1.95l.15.05q-.1.7.25 1.3 7.3 8.55-8.35 20.3-9.8 7.7-16.15 17.55-1.55 2.4-2.9 4.95-6 13.85-1.05 25.35Q6.2 83.85 13 89.85m87.1-43.8q3.7 2.3-6.8 16.9-9.7 12.25-23.7 20.1" fill="none" stroke="#6d0117" stroke-linecap="round" stroke-linejoin="round" stroke-width="2"/></g><g id="p"><path d="m55 79.85.3 1.9q.35 4-2.7 6.4-3.1 2.35-8.5 2.8-4.2.35-6.2-1.2 7.05-5.85 17.1-9.9" fill="#feffff" fill-rule="evenodd" transform="translate(-34.75 -71.4)"/><path d="m37.9 89.75-.95-1.05q-1.8-2.75-.95-6.85.85-4.15 3.5-6.8 2.65-2.65 6.4-2.65 3.75 0 6.4 2.65 2 2 2.7 4.8-10.05 4.05-17.1 9.9" fill="#c69a69" fill-rule="evenodd" transform="translate(-34.75 -71.4)"/><path d="M3.15 18.35 2.2 17.3q-1.8-2.75-.95-6.85.85-4.15 3.5-6.8Q7.4 1 11.15 1q3.75 0 6.4 2.65 2 2 2.7 4.8l.3 1.9q.35 4-2.7 6.4-3.1 2.35-8.5 2.8-4.2.35-6.2-1.2z" fill="none" stroke="#553c22" stroke-linecap="round" stroke-linejoin="round" stroke-width="2"/><path d="M51.6 81.4v.4q0 3.15-2 5.35-2 2.25-4.8 2.25-2.55 0-4.4-1.8l.8-.55 1.3.45q.75 0 1.3-.5l1.1.15q1.95 0 3.3-1.6 1.2-1.35 1.4-3.2l2-.95" fill="#01493e" fill-rule="evenodd" transform="translate(-34.75 -71.4)"/><path d="m40.4 87.6-.4-.45q-2-2.2-2-5.35 0-3.15 2-5.4 1.95-2.2 4.8-2.2 2.8 0 4.8 2.2 1.85 2.1 2 5l-2 .95v-.7q0-2.3-1.4-3.9-1.35-1.6-3.3-1.6-1.95 0-3.35 1.6-1.35 1.6-1.35 3.9 0 1.55.6 2.75-.3.5-.3 1.1 0 .85.55 1.4l.15.15-.8.55" fill="#012c19" fill-rule="evenodd" transform="translate(-34.75 -71.4)"/><path d="M48.5 82.85q-.2 1.15-1 2.05-1.05 1.3-2.6 1.3h-.5l.1-.7-.05-.45 4.05-2.2" fill="#042d27" fill-rule="evenodd" transform="translate(-34.75 -71.4)"/><path d="M41.55 83.75q-.35-.9-.35-1.9 0-1.8 1.05-3.1 1.1-1.25 2.65-1.25 1.55 0 2.6 1.25 1.1 1.3 1.1 3.1l-.1 1-4.05 2.2q-.1-.55-.55-1-.55-.55-1.4-.55l-.95.25" fill="#001b16" fill-rule="evenodd" transform="translate(-34.75 -71.4)"/><path d="M40.8 84.4q-.6-1.2-.6-2.75 0-2.3 1.35-3.9 1.4-1.6 3.35-1.6 1.95 0 3.3 1.6 1.4 1.6 1.4 3.9v.7l-1.1.5.1-1q0-1.8-1.1-3.1-1.05-1.25-2.6-1.25t-2.65 1.25q-1.05 1.3-1.05 3.1 0 1 .35 1.9l-.5.3-.25.35" fill="#00804f" fill-rule="evenodd" transform="translate(-34.75 -71.4)"/><path d="m48.5 82.85 1.1-.5q-.2 1.85-1.4 3.2-1.35 1.6-3.3 1.6L43.8 87l.1-.1.5-.7h.5q1.55 0 2.6-1.3.8-.9 1-2.05" fill="#02d7c1" fill-rule="evenodd" transform="translate(-34.75 -71.4)"/><path d="m41.2 87.05-.15-.15q-.55-.55-.55-1.4 0-.6.3-1.1l.25-.35.5-.3.95-.25q.85 0 1.4.55.45.45.55 1l.05.45-.1.7-.5.7-.1.1q-.55.5-1.3.5l-1.3-.45" fill="#fffffb" fill-rule="evenodd" transform="translate(-34.75 -71.4)"/></g><g id="q"><path d="M32.9 13.75q3.85-.1 7.5.75 7.85 1.85 11.8 6.75 3.15 8.7 1.4 15.15l-1.75-4.5q.1 13.4-16.7 29-9.95 15.25-8 32.85L23.2 91.3q-4.3-17 8.3-30.2 13.1-11.9 15.7-18.3 8-22-14.3-29.05" fill="#ffd318" fill-rule="evenodd" transform="translate(-.8 -12.75)"/><path d="M52.2 21.25Q56.8 27 55.85 37.1q-2.4 21.1-27.45 57.25l-1.25-.6q-1.95-17.6 8-32.85 16.8-15.6 16.7-29l1.75 4.5q1.75-6.45-1.4-15.15" fill="#e7a000" fill-rule="evenodd" transform="translate(-.8 -12.75)"/><path d="M23.2 91.3q-8.75-6.7-5.3-17.95 3.3-10.1 13.8-21.05 10.55-10.05 11.7-19.35 1.45-18.5-19.5-17.75 4.65-1.35 9-1.45Q55.2 20.8 47.2 42.8q-2.6 6.4-15.7 18.3-12.6 13.2-8.3 30.2" fill="#fffa5e" fill-rule="evenodd" transform="translate(-.8 -12.75)"/><path d="M22.4 78.55q-8.75-6.7-5.3-17.95 3.3-10.1 13.8-21.05Q41.45 29.5 42.6 20.2 44.05 1.7 23.1 2.45q4.65-1.35 9-1.45 3.85-.1 7.5.75Q47.45 3.6 51.4 8.5q4.6 5.75 3.65 15.85-2.4 21.1-27.45 57.25l-1.25-.6-3.95-2.45z" fill="none" stroke="#654601" stroke-linecap="round" stroke-linejoin="round" stroke-width="2"/><path d="M36.9 88.35q6.35-12 18.05-15.35 4.05-.8 2.15-3.1-7.1-11.7 4.45-20.8-9.2 13.85-2.25 21.7 1.35 1.85.15 2.8Q45.7 77.5 36.9 88.35" fill="#fa6a00" fill-rule="evenodd" transform="translate(-.8 -12.75)"/><path d="M25.55 92.5q8.15-14.7 19-22.05 2.85-2 3.55-3.4Q51 54.75 60.6 46.2q1.25.65.95 2.9Q50 58.2 57.1 69.9q1.9 2.3-2.15 3.1-11.7 3.35-18.05 15.35-3.4 4.1-6.05 9.25l-5.25-4.4-.05-.7" fill="#ae0025" fill-rule="evenodd" transform="translate(-.8 -12.75)"/><path d="M32.15 64.5q-5 8.1-5.2 16.25.55 3.2 3.1 0 4.15-5.4 11.05-11.8 2.85-3.25 5.5-9.9 1.15-3 2.7-6.05 1.55-3.05-4.6-.7 6.6-4.65 13.4-6.25l2.5.15Q51 54.75 48.1 67.05q-.7 1.4-3.55 3.4-10.85 7.35-19 22.05-1.8-16.3 6.6-28" fill="#d6022a" fill-rule="evenodd" transform="translate(-.8 -12.75)"/><path d="M44.7 52.3q6.15-2.35 4.6.7-1.55 3.05-2.7 6.05-2.65 6.65-5.5 9.9-6.9 6.4-11.05 11.8-2.55 3.2-3.1 0 .2-8.15 5.2-16.25l.2-.3q1.75-2.4 3.95-4.65 4.15-4.25 8.4-7.25" fill="#ff6c5e" fill-rule="evenodd" transform="translate(-.8 -12.75)"/><path d="M43.9 39.55q-4.25 3-8.4 7.25-2.2 2.25-3.95 4.65m-.2.3q-8.4 11.7-6.6 28l.05.7 5.25 4.4q2.65-5.15 6.05-9.25 8.8-10.85 22.55-14.75 1.2-.95-.15-2.8-6.95-7.85 2.25-21.7.3-2.25-.95-2.9l-2.5-.15q-6.8 1.6-13.4 6.25" fill="none" stroke="#6d0117" stroke-linecap="round" stroke-linejoin="round" stroke-width="2"/><path d="M14.35 119.7q-7-6-1.3-14.9 2.6-3.65 9.6-6.35 6.4-2.65 3.2-7.75 4.75 1.5 8.5 5.75l1.1 1.9q.25 4.85-10.6 7.9-11.75 4.5-6.8 13.95l-3.7-.5" fill="#ffcc2b" fill-rule="evenodd" transform="translate(-.8 -12.75)"/><path d="M36.1 100.1q-.45 7.4-3.6 7.35-3.85.05-6.5 1-9.9 4.8-7.1 11.85l-.85-.1q-4.95-9.45 6.8-13.95 10.85-3.05 10.6-7.9l.65 1.75" fill="#e9b104" fill-rule="evenodd" transform="translate(-.8 -12.75)"/><path d="M36.1 100.1q.7 2.25.65 4.95-.05 4.25-1.75 5.1l-.65.2q-6.4-1.8-10.95 1.4l-.85.75q-4.95 4.3-2.25 7.85l-1.4-.05q-2.8-7.05 7.1-11.85 2.65-.95 6.5-1 3.15.05 3.6-7.35" fill="#ffe661" fill-rule="evenodd" transform="translate(-.8 -12.75)"/><path d="M25.85 90.7q3.2 5.1-3.2 7.75-7 2.7-9.6 6.35-5.7 8.9 1.3 14.9-3.35-.7-5.85-2-3.8-4.15-3.45-9.65 4.2-1.1 6.1-4.8 2.5-5.6-.7-7.85l4.65-4.85q5.9-1.4 10.75.15" fill="#ffe653" fill-rule="evenodd" transform="translate(-.8 -12.75)"/><path d="m15.1 90.55-4.65 4.85q3.2 2.25.7 7.85-1.9 3.7-6.1 4.8-.35 5.5 3.45 9.65-6.35-3.35-7.15-10.75-.6-10.85 12.95-16.2l.8-.2" fill="#fffeef" fill-rule="evenodd" transform="translate(-.8 -12.75)"/><path d="m22.55 112.5.85-.75q4.55-3.2 10.95-1.4l.65-.2q.35 4.25-3.35 3.8 1.7-.8.95-1.4-2.1-1.1-6.25-.35l-3.8.3" fill="#e4ae04" fill-rule="evenodd" transform="translate(-.8 -12.75)"/><path d="m31.65 113.95-.4-.05q-2.4-1.45-4.9-1.7 4.15-.75 6.25.35.75.6-.95 1.4" fill="#ffcc2e" fill-rule="evenodd" transform="translate(-.8 -12.75)"/><path d="M35 110.15q1.7-.85 1.75-5.1.05-2.7-.65-4.95l-.65-1.75-1.1-1.9q-3.75-4.25-8.5-5.75-4.85-1.55-10.75-.15l-.8.2Q.75 96.1 1.35 106.95q.8 7.4 7.15 10.75 2.5 1.3 5.85 2l3.7.5.85.1 1.4.05q-2.7-3.55 2.25-7.85l.85-.75q4.55-3.2 10.95-1.4l.65-.2q.35 4.25-3.35 3.8l-.4-.05q-2.4-1.45-4.9-1.7l-3.8.3" fill="none" stroke="#644602" stroke-linecap="round" stroke-linejoin="round" transform="translate(-.8 -12.75)"/></g><path d="M0 67.05V0h58.7v67.05H0" fill="#fbfffd" fill-opacity="0" fill-rule="evenodd" id="r"/><path d="M95.6 2.85q16.4 2.9 16.4 7T95.6 16.8Q79.2 19.7 56 19.7q-23.2 0-39.6-2.9Q0 13.95 0 9.85t16.4-7Q32.8 0 56 0q23.2 0 39.6 2.85" fill-opacity=".349" fill-rule="evenodd" id="g"/><use ffdec:characterId="2" height="67.05" width="58.7" xlink:href="#r" id="f"/></defs></svg>