<svg xmlns:ffdec="https://www.free-decompiler.com/flash" xmlns:xlink="http://www.w3.org/1999/xlink" ffdec:objectType="frame" height="90" width="90" xmlns="http://www.w3.org/2000/svg"><use ffdec:characterId="42" height="380.75" transform="matrix(.2241 0 0 .2243 -4.213 1.413)" width="487.1" xlink:href="#a"/><defs><use ffdec:characterId="1" height="9.8" width="55.5" xlink:href="#b" id="s"/><use ffdec:characterId="3" height="159.6" width="172.1" xlink:href="#c" id="t"/><use ffdec:characterId="5" height="188.75" width="255.9" xlink:href="#d" id="u"/><use ffdec:characterId="7" height="161.15" width="91" xlink:href="#e" id="v"/><use ffdec:characterId="9" height="99.05" width="130.6" xlink:href="#f" id="w"/><use ffdec:characterId="11" height="97.9" width="77.75" xlink:href="#g" id="x"/><use ffdec:characterId="13" height="109.05" width="47.1" xlink:href="#h" id="y"/><use ffdec:characterId="15" height="66.2" width="56.3" xlink:href="#i" id="z"/><use ffdec:characterId="17" height="69.65" width="49.65" xlink:href="#j" id="A"/><use ffdec:characterId="19" height="50" width="41.5" xlink:href="#k" id="B"/><use ffdec:characterId="21" height="92.1" width="54.45" xlink:href="#l" id="C"/><use ffdec:characterId="23" height="85.2" width="77.45" xlink:href="#m" id="D"/><use ffdec:characterId="25" height="64.75" width="61.3" xlink:href="#n" id="E"/><use ffdec:characterId="27" height="89.15" width="132" xlink:href="#o" id="F"/><use ffdec:characterId="29" height="78.15" width="64.15" xlink:href="#p" id="G"/><use ffdec:characterId="31" height="150.25" width="421.3" xlink:href="#q" id="H"/><use ffdec:characterId="36" height="66.95" width="86.1" xlink:href="#r" id="I"/><g id="a" transform="translate(18.8 -6.3)"><use ffdec:characterId="2" height="9.8" transform="matrix(2.0436 0 0 3.8502 134.04 344.234)" width="55.5" xlink:href="#s"/><use ffdec:characterId="4" height="159.6" transform="matrix(.9886 .1091 -.1091 .9886 12 82.6)" width="172.1" xlink:href="#t"/><use ffdec:characterId="6" height="188.75" transform="matrix(.9875 -.1178 .1178 .9875 193.35 54.6)" width="255.9" xlink:href="#u"/><use ffdec:characterId="8" height="161.15" transform="translate(145.65 116.3) scale(.9949)" width="91" xlink:href="#v"/><use ffdec:characterId="10" height="99.05" transform="translate(198.95 208.15) scale(.9949)" width="130.6" xlink:href="#w"/><use ffdec:characterId="12" height="97.9" transform="translate(183.45 218.15) scale(.9949)" width="77.75" xlink:href="#x"/><use ffdec:characterId="14" height="109.05" transform="translate(127.05 212.55) scale(.9949)" width="47.1" xlink:href="#y"/><use ffdec:characterId="16" height="66.2" transform="translate(104.95 182.3) scale(.9949)" width="56.3" xlink:href="#z"/><use ffdec:characterId="18" height="69.65" transform="translate(152.2 206.15) scale(.9949)" width="49.65" xlink:href="#A"/><use ffdec:characterId="20" height="50" transform="translate(156.8 185.5) scale(.9949)" width="41.5" xlink:href="#B"/><use ffdec:characterId="22" height="92.1" transform="translate(173.55 251.05) scale(.9949)" width="54.45" xlink:href="#C"/><use ffdec:characterId="24" height="85.2" transform="translate(193.75 161.5) scale(.9949)" width="77.45" xlink:href="#D"/><use ffdec:characterId="26" height="64.75" transform="translate(156.45 270.909) scale(.9949)" width="61.3" xlink:href="#E"/><use ffdec:characterId="28" height="89.15" transform="translate(111.2 117.5) scale(.9949)" width="132" xlink:href="#F"/><use ffdec:characterId="30" height="78.15" transform="translate(156.35 204.25) scale(.9949)" width="64.15" xlink:href="#G"/><use ffdec:characterId="35" height="150.25" transform="translate(8.75 165.45) scale(.9949)" width="421.3" xlink:href="#H"/><use ffdec:characterId="41" height="66.95" transform="translate(128.9 100.05) scale(.9949)" width="86.1" xlink:href="#I"/></g><g id="c" fill-rule="evenodd"><path d="m7.75 31.6 1.3-1.75q5.8-1.35 14.7.4l1.3.3.15.05.6.3q14.65 7.25 34.15 30.35 6.5 8.2 10.15 18.7l.25.85.7 2.1q2.8 9.35 3.5 20.45v.05l.05 1v17.85q2.2-2.75 4.65-4.9 9.1-8.05 21-7.35l.25.1.2.15q13.95 16.6 22.75 38.5l2.2 5.8q-.05-9.2 2.75-17.35 2.6-7.8 7.8-14.55l1.75-2.15.05-.05.25-.15q9.35-3.45 10.9-1.6l6.6 4.6 8.3 5.85 7.8 5.5.25.4-.1.5-.45.25-.45-.1-22.75-16-.15-.15q-1.1-1.1-9.35 1.9-7.3 8.65-10.1 19.05-2.35 8.6-1.65 18.4l-.1.45-.4.25-.45-.1-.3-.35-2.8-7.85q-8.8-22.85-23.15-40-15.05-.7-25.4 13.25l-.35.25h-.4l-.3-.25-.15-.4v-19.6l-.05-1.1q-1.55-25.15-14.3-41.4v.05Q39.35 38.8 24.7 31.8 14 29.45 7.75 31.6M147.1 72.85l-.05-.1-18.15-31.4-.05-.05q-1.25-4.6-4-5.8-2.75-1.2-6.95.9h-.05l-.15.1-.2-.05q-15.15-10.8-36.05-15.55Q54.6 15.4 34.3 17l-5.7 2.5q-4.65 2-8.5 3.9-6.5 3.15-10.65 5.85l-1.15.7-.2.05-.15-.1-.05-.2.1-.15q6.7-4.5 20.4-10.5l5.75-2.5.1-.05q20.35-1.6 47.3 3.9 20.95 4.75 36.2 15.6 4.35-2.15 7.25-.85 2.9 1.25 4.25 6.05l18.15 31.35v.15l-.1.15h-.2M47.95 23.7l6.9-4.75.1-.05h.15q20.85 5.6 34.05 13.9l.1.15v.15l-.1.15H89l-1.5-.15-2.25-.2q-13.5-.9-28.65 3.5h-.2l-13.85-8.5-.1-.15-.05-.15.1-.15 5.45-3.75m70.1 67.55q.95-6.95 2.35-13.15l.1-.15.2-.05.15.1.05.15v.05l.85 11.25 1.15 15.2 3.4 16.3-.05.2-6.25 9.65-.15.1h-.15l-.15-.15-3.25-11.5v-.1q.05-15.2 1.75-27.9m-38.55 15.6 2.7-21.4.05-.15q11.4-16.5 25.15-28.05l.5-.45.15-.05.2.05.05.2-.05.15-.05.05q-8.75 13.95-14.35 32.35L92.4 94.6l-.05.1-12.4 12.4-.15.05h-.15l-.1-.1-.05-.15v-.05m.7-1.5-.1.85 11.8-11.8 1.25-4.35Q98.6 72 107.05 58.2l-.95.8Q93.4 70.1 82.7 85.55l-2.5 19.8m2.25-4.95.05.1-.05-.05v-.05m3.2-67.95 2.3.2q-12.9-7.85-32.9-13.2l-11.9 8.2.75.45 12.65 7.8q14.8-4.3 28.05-3.55l1.05.1m34.9 47.65v-.2l-.05.15q-3.6 16.8-3.7 39.05l3.1 10.95.75-1.15 5.15-7.9-3.4-16.3-1.85-24.6" fill="#0a1319"/><path d="M132.1 12.2q5-7.7 9.6-10.4l-.25 4.5-9.35 5.9M5.5 31.05q-.95.45-1.7 1 7.5-11.4 28.05-22.25l.05-.05h.05q24.55-6.45 51.1.05h.1q25 3.4 42.3 9.65l-7.3 6.7Q102.6 17.2 81.4 14.65q-22.3-4.5-38.65-1.4-9.5.6-25 6.9Q9.05 26 5.5 31.05m74.7 74.3 2.5-19.8Q93.4 70.1 106.1 59l-5.95 8.25-.1-.05-.1.05q-7.3 6.2-15.45 19.05l-.05.1-2 14v.1l-2.25 4.85m-4.7-76.5-.05-.05q-7.05-3.85-19-6.55l-.15.05-8.4 5.15-.1.15v.15l.1.15.35.2H43.9l-.75-.45 11.9-8.2q20 5.35 32.9 13.2l-2.3-.2-1.7-.6-8.45-3m45 51.2.05.05-.7 11.2h-.05l-.1.05-.1.15-.7 5.55q-.9 9.15-.95 22.5v.05l2.15 7.9.1.1.1.05h.1l.1-.1h.15v1.35l-.75 1.15-3.1-10.95q.1-22.25 3.7-39.05" fill="#b4a7d2"/><path d="M141.45 6.3q-1.25 29.95 14.3 61.6l3.85 28.45-12.5-23.5h.2l.1-.15v-.15L129.25 41.2q-1.35-4.8-4.25-6.05-2.9-1.3-7.25.85-15.25-10.85-36.2-15.6-26.95-5.5-47.3-3.9l-.1.05-5.75 2.5q-13.7 6-20.4 10.5l-.1.15.05.2.15.1.2-.05V30q-1.55.4-2.8 1.05Q9.05 26 17.75 20.15q15.5-6.3 25-6.9 16.35-3.1 38.65 1.4 21.2 2.55 36.75 11.5l7.3-6.7L127 20h.45l.35-.3q2.2-4.2 4.3-7.5l9.35-5.9M106.1 59l.95-.8Q98.6 72 93.15 90.05L91.9 94.4l-11.8 11.8.1-.85 2.25-4.85h.05l.05.1h.15l.1-.05 8.25-8.65.05-.1q1.55-6.85 6-17.45l3.15-6.85v-.15l-.05-.1h-.05L106.1 59M48.25 28.1l8.4 5.15h.15Q71.3 30.8 78.15 31l.15-.05.1-.1v-.15l-.1-.15q-1.3-.9-2.8-1.7l8.45 3 .65.5q-13.25-.75-28.05 3.55L43.9 28.1h4.35" fill="#85789b"/><path d="M20.1 23.4q3.85-1.9 8.5-3.9l5.7-2.5q20.3-1.6 47.15 3.9 20.9 4.75 36.05 15.55l.2.05.15-.1h.05q4.2-2.1 6.95-.9 2.75 1.2 4 5.8l.05.05 18.15 31.4.05.1 12.5 23.5 4.45 32.8-8.3-5.85-6.8-5.9q-3.55-.9-8.5 0l-2.3 2.85-.15.2-.05.05-1.75 2.15q-5.2 6.75-7.8 14.55-2.8 8.15-2.75 17.35l-2.2-5.8 4.5-29.1-1.25-29-4.95-1.2-.85-11.25v-.05l-.05-.15-.15-.1-.2.05-.1.15q-1.4 6.2-2.35 13.15l-2.65.5Q95.6 100.8 83 110.6l3-5.45q10-14.55 17.95-22.9Q120.1 70.6 127.7 68.4l-7.5-7.05Q104 44.1 85.25 32.9l2.25.2 1.5.15h.15l.1-.15v-.15l-.1-.15q-13.2-8.3-34.05-13.9h-.15l-.1.05-6.9 4.75q-12.55-1.35-27.85-.3" fill="#0a151c"/><path d="m49.25 28.1-.75-.45 7.95-4.85q13.55 3 20.7 7.6l-.1.1q-9.85-3.3-23.55-2.4h-4.25m33.8 71.05 1.8-12.65q6.35-10.05 12.2-16l-8.3 16.15-5.7 12.5m36.6 25.1-1.3-4.75q.05-10.85.65-18.9l.65 23.65" fill="#16c5dd"/><path d="M77.05 30.5q-6.85 0-20.25 2.25l-7.55-4.65h4.25q13.7-.9 23.55 2.4m20 40 2.45-2.35-2.75 6.05q-4.45 10.6-6 17.45l-7.8 8.15.1-.65 5.7-12.5 8.3-16.15M119 100.6l.7-6.9h.15l1.75 14.6 2.5 11.4-3.75 7.2-.7-2.65-.65-23.65" fill="#0e7dac"/><path d="M9.05 29.85 8.3 30v-.05l1.15-.7q4.15-2.7 10.65-5.85 15.3-1.05 27.85.3l-5.45 3.75-.1.15.05.15.1.15 13.85 8.5h.2q15.15-4.4 28.65-3.5Q104 44.1 120.2 61.35l7.5 7.05q-7.6 2.2-23.75 13.85l.7-.75-10.8 8.05q5.6-18.4 14.35-32.35l.05-.05.05-.15-.05-.2-.2-.05-.15.05-.5.45Q93.65 68.8 82.25 85.3l-.05.15-2.7 21.4v.05l-4.9 5.4v-7.9l-.05-1v-.05q-.7-11.1-3.5-20.45l-.7-2.1-.25-.85-4.2-13.2Q61.45 55.6 54.4 48.5q13.8-2.9 25.1 0-15.45-5.45-35-7.85L32.75 33l-6.95-2.1-.6-.3-.15-.05-1.3-.3q-8.9-1.75-14.7-.4M83 110.6q12.6-9.8 32.4-18.85l2.65-.5q-1.7 12.7-1.75 27.9v.1l3.25 11.5.15.15h.15l.15-.1 6.25-9.65.05-.2-3.4-16.3-1.15-15.2 4.95 1.2 1.25 29-4.5 29.1q-8.8-21.9-22.75-38.5l-.2-.15-.25-.1q-11.9-.7-21 7.35L83 110.6" fill="#333647"/><path d="M103.95 82.25Q96 90.6 86 105.15l-3 5.45-3.75 6.75q-2.45 2.15-4.65 4.9v-9.95l4.9-5.4.05.15.1.1h.15l.15-.05 12.4-12.4.05-.1 1.45-5.05 10.8-8.05-.7.75M25.8 30.9l6.95 2.1 11.75 7.65q19.55 2.4 35 7.85-11.3-2.9-25.1 0 7.05 7.1 11.5 18.25l4.2 13.2q-3.65-10.5-10.15-18.7-19.5-23.1-34.15-30.35" fill="#53576c"/><path d="m138.15 120.25 2.3-2.85q4.95-.9 8.5 0l6.8 5.9-6.6-4.6q-1.55-1.85-10.9 1.6l-.1-.05" fill="#b4fcf4"/><path d="M120.65 128.9v-1.7l3.85-7.4v-.15l-2.5-11.4-2-16.7v-.05l-.05-.15-.1-.05.7-11.2 1.85 24.6 3.4 16.3-5.15 7.9" fill="#86799d"/><path d="m141.45 6.3.25-4.5q-4.6 2.7-9.6 10.4-2.1 3.3-4.3 7.5l-.35.3H127l-1.55-.55q-17.3-6.25-42.3-9.65h-.1q-26.55-6.5-51.1-.05h-.05l-.05.05Q11.3 20.65 3.8 32.05q.75-.55 1.7-1Q6.75 30.4 8.3 30l.75-.15-1.3 1.75q-4.35 1.45-6.5 5.15l-.4.3-.5-.05-.3-.35v-.5l.05-.05v-.05Q6.15 21.9 31.35 8.6l.15-.05q24.9-6.6 51.85 0l-.05-.05q25.65 3.5 43.25 9.95l.35.15.5-.9 2.25-4Q136.2 2.75 142.2.05h.45l.35.25.1.4-.35 4.8q-1.35 28.35 12.45 58.2l2.35 4.9.05.5-.35.4-.5.05-.35-.35-.65-1.3q-15.55-31.65-14.3-61.6" fill="#6e6482"/><path d="M100.15 67.25h.05l.05.1v.15l-3.15 6.85q-4.45 10.6-6 17.45l-.05.1-8.25 8.65-.1.05h-.15l-.05-.1-.05-.1 2-14 .05-.1q8.15-12.85 15.45-19.05l.1-.05.1.05M48.25 28.1l-.35-.2-.1-.15v-.15l.1-.15 8.4-5.15.15-.05q11.95 2.7 19 6.55l.05.05q1.5.8 2.8 1.7l.1.15v.15l-.1.1-.15.05q-6.85-.2-21.35 2.25h-.15l-8.4-5.15m28.9 2.3q-7.15-4.6-20.7-7.6l-7.95 4.85.75.45 7.55 4.65q13.4-2.25 20.25-2.25h.25l-.15-.1m5.9 68.75-.1.65 7.8-8.15q1.55-6.85 6-17.45l2.75-6.05-2.45 2.35q-5.85 5.95-12.2 16l-1.8 12.65m37.45 28.4-.1.1h-.1l-.1-.05-.1-.1-2.15-7.9v-.05q.05-13.35.95-22.5l.7-5.55.1-.15.1-.05h.05l.1.05.05.15v.05l2 16.7 2.5 11.4v.15l-3.85 7.4-.15.35m-.8-33.85-.7 6.9q-.6 8.05-.65 18.9l1.3 4.75.7 2.65 3.75-7.2-2.5-11.4-1.75-14.6-.05-.65-.05.45-.05.2" fill="#206691"/></g><g id="d" fill-rule="evenodd"><path d="m5.2 122.65 1.65-.9 13.55 10.5.3.55q2.9 18.15 1.95 24.55l1.65-1q15-8.65 34.3.95l.7.35.15.1q6.95 5.75 11.4 14.05l1 2.05q2.4 5.05 3.95 11 8.35-24.1 20.05-42.3 5.35-8.35 11.4-15.45.2-.2.5-.25 17.15-3.5 30.95.95 6.2 2 11.75 5.55-4.3-15.45-3.9-37.2v-.05q.4-6.3 2.05-12.05 4.2-14.4 16.5-25.35l1.25-1.1.05-.05.05-.05q19.35-22.05 46.2-35.6l.1-.05q14.7-5 27.35-3l5.85 3.1q-14.75-4.6-32.65 1.5-26.55 13.4-45.65 35.25l-.1.1q-2.95 2.5-5.4 5.15-5.35 5.7-8.65 12.25-4.6 9.15-5.25 20-.45 23.05 4.45 38.95v.55l-.3.4-.5.15-.5-.15q-3-2.15-6.25-3.8-15.8-8-36.75-3.85-4.85 5.65-9.25 12.15-13.5 20-22.7 47.6l-.3.4-.55.15q-.3 0-.5-.2l-.25-.45q-4.05-18.7-16.4-29-21-10.7-36.8 1l-.5.15h-.2l-.35-.2-.25-.5q-.1-.3.05-.55 2.05-4.2-1.35-25.6L5.2 122.65m152.25-104-5.2 1.75q-28.95 9.8-46.85 20.65 31.1-4.85 54.15-4.75l20.7-12 .25-.1q-.25-.15-.45-.2-2.15-1.05-4.95-1.9-6.1-1.9-15.35-3.15l-2.3-.3M109.05 41l-4.85.75h-.15l-.1-.15v-.15l.1-.15.05-.05q18.35-11.35 48.7-21.6l4.55-1.5h.1l3.4.45q9.2 1.25 15.15 3.2 2.8.95 4.9 2l.25.15.1.1v.2l-.1.15-21.4 12.4h-.15q-21.7-.1-50.55 4.2M82.5 74.85l-2.6-.75q16.7 12.85 27.75 25.95 4.1 4.85 7.4 9.75 9 1.75 21.65 8.7h.1l-.05-.1-1.85-5.9q-2.45-6.65-6.95-14.95l-.15-.25-3.65-2.7-1.1-.85Q108.25 84.7 95 79.3q-6.45-2.7-12.5-4.45m29.7 26v-.05.05m25.2 18.3-.15.1h-.2q-13.05-7.2-22.2-9l-.15-.1q-3.65-5.4-8.25-10.75-11.15-13-27.85-25.7l-.1-.15.05-.15.1-.1.2-.05q7.3 1.9 15.2 5.05 13.75 5.55 29.25 15l4.85 3.65.1.1.25.45q4.65 8.6 7.15 15.45l1.75 6v.2m-71.5 25.7q1.25-7.05 0-24.4-1.4-13.65-3.5-20.95l.05-.2.1-.1h.2l.15.1.05.05v.05l9.3 18.65q5.85 11.95 8.4 23.2l.75 3.8v.15l-1.75 6.8-2.05 6.1q-1.3 3.4-2.7 5.7l-.05.05-.1.05h-.2l-.1-.15-8.5-18.75-.05-.05v-.1m3.6-31.15-5.95-11.95.4 1.85q1.4 6.65 2.45 16.8 1.25 17.4 0 24.5l8.25 18.15.05.05.1-.15 2.65-5.9L79 152.4l1.9-7.25-.05-.35-.8-3.95q-2.55-10.95-8.25-22.6l-2.3-4.55" fill="#0a1319"/><path d="m22.9 86.9 4.05-4.45.2-.45q2.05-14.35-.3-25.05l-.2-.95-2.05-10.15-3.45-1.5-6.25-19.7q8.5 4.8 19.05 13.35l.4.2.45-.05q80.3-33 153.05-36.45h.1l18.15 1.7-21.35 2.05q-27.3 1.8-41.9 5.85l.05.3-1.2.15 1.15-.45-2.1.6v.1Q87.9 25.8 51.25 47.15q-6.35 1-13.4 4.95-4.65 6.95-6.2 18.15l.2 13.5-8.95 3.15m129.35-66.5-2.9 3.85q-15.95 4.9-25.7 10.65l-.25.15-18 6q17.9-10.85 46.85-20.65m4.05 1.85 1.15-3.6 2.3.3Q169 20.2 175.1 22.1l-6.3 1.9q-4.6-1.5-11.6-2h-.1l-.8.25M69.5 113.7l2.3 4.55q5.7 11.65 8.25 22.6l-2.5-1.6q-2.45-9.05-6.35-17.9l-1.7-7.65m11.35 31.1.05.35-1.9 7.25-1.55 4.65-.95-7 2.05-6.3 2.3 1.05" fill="#b4a7d2"/><path d="M10.2 22.2q2.25 1.05 4.7 2.45l6.25 19.7-.55-.25-10.4-21.9m132.65-10.9.05.3-.05-.3m6.5 12.95 2.9-3.85 5.2-1.75-1.15 3.6-6.95 2m25.75-2.15q2.8.85 4.95 1.9l-7.8 1.5h-.05l-.05-.05-1.6-.8-1.75-.65 6.3-1.9M82.5 74.85Q88.55 76.6 95 79.3l5.3 5.25Q96.7 83.1 93.1 82l-.2.05-.05.05-10.35-7.25m41.65 19.75 3.65 2.7.05.3-2.85.35-.35.05-3.65-2.55 3.15-.85m10.75 17.9 1.85 5.9-5.85-6.05v-.05l-.85-2.9 4.85 3.1m-70.95-8.9-.4-1.85 5.95 11.95 1.7 7.65-3.35-7.05-.15-.1-.15-.05-.15.15-.05.15.4 3.05-3.8-13.9m16.1 37.25.8 3.95-2.3-1.05.05-.15v-.15l-1.05-4.2 2.5 1.6m-2.6 16.2-2.65 5.9-.6-6.45.15-.05.1-.1 2.05-6.3.95 7" fill="#fff"/><path d="M206.1 3.4q12.65 1.85 22.6 5.35 10.4 3.7 17.85 9.2l3.95 3.85q-2.35-1-4.75-1.7l-.1-.05-11.5-4.6-.05-.05q-10.1-2.25-20.65-3.5l-22.3-1.5-6 .7q-19.35 2.35-44.45 7.55-29.8 8.9-55.15 17.8h-.05q-18.3 8.1-29.35 16.2-7.05-2.55-15.8 1.8l-.1.05-.05.1-4.5 15.85v.1q1.8 9.5.75 14.3v.05q-2.3 15.3-15.65 24.55l-15.9 10.8-.65-.2-.5.3-1.2-11L22.9 86.9l8.95-3.15-.2-13.5q1.55-11.2 6.2-18.15 7.05-3.95 13.4-4.95Q87.9 25.8 140.75 12l.95-.25 1.2-.15-.05-.3q14.6-4.05 41.9-5.85L206.1 3.4M26.65 56q-.9-3.55-2.25-6.7l-.2-.3-.3-.2-5.15-1.85L6.6 20.65l3.6 1.55 10.4 21.9.55.25 3.45 1.5L26.65 56m78.75-14.95 18-6-2.2 1.35-.05.05-.15.15.05.15.1.15h.15q16.3-4 36.45-3.15h.15l14.25-7.85.1-.15v-.25l7.8-1.5.2.3-20.7 12q-23.05-.1-54.15 4.75m31.3 77.45q-12.65-6.95-21.65-8.7-3.3-4.9-7.4-9.75Q96.6 86.95 79.9 74.1l2.6.75 10.35 7.25-.05.05-.05.15.1.15.1.05q8.3 5.9 19.25 18.3v.05l.05-.05 3.45 5.35.1.1 15 7.4h.2l.15-.1v-.2l-.25-1 5.85 6.05-.05.1M95 79.3q13.25 5.4 28.05 14.45l1.1.85-3.15.85q-10.1-6.8-20.7-10.9L95 79.3m32.95 18.25q4.5 8.3 6.95 14.95l-4.85-3.1q-1.7-5-4.9-11l-.1-.1-.05-.35 2.85-.35.1-.05m-53.3 65.5L66.4 144.9q1.25-7.1 0-24.5-1.05-10.15-2.45-16.8l3.8 13.9q2.15 17.6.7 26.2l.05.15 5.5 12.5.1.1.1.05.6 6.45-.15.1" fill="#85789b"/><path d="m6.85 121.75-1.55-1.2 15.8-10.7q13.55-9.35 15.85-24.9 1.05-4.9-.7-14.4l4.45-15.7q8.55-4.2 15.45-1.7h.1l.1-.05Q67.4 45 85.7 36.9q25.4-8.85 55.15-17.75 23.2-4.85 41.55-7.2l-21.55 6.65-3.4-.45h-.1l-4.55 1.5q-30.35 10.25-48.7 21.6l-.05.05-.1.15v.15l.1.15h.15l4.85-.75q-30.6 17.8-49.5 31.75l42.8 29.65L48 88.4q-2 20.65-9.4 27.75 16.55 16.95 26 42.55l6.25 13.1q-4.45-8.3-11.4-14.05l-.15-.1-.7-.35-8.25-5.9q-11.25-3.05-22.25.5l-3.8 4.45-1.65 1q.95-6.4-1.95-24.55l-.3-.55-13.55-10.5" fill="#0a151c"/><path d="m182.4 11.95 8.75-1.05 21.75 1.45-25.1 18.85-18.4 19.9-4.3 7.6q-12.3 10.95-16.5 25.35-1.65 5.75-2.05 12.05v.05q-.4 21.75 3.9 37.2-5.55-3.55-11.75-5.55-13.8-4.45-30.95-.95-.3.05-.5.25-6.05 7.1-11.4 15.45L79.65 152l1.75-6.8.05-.1v-.05h-.05l-.75-3.8q-2.55-11.25-8.4-23.2l-9.3-18.65v-.05l-.05-.05-.15-.1h-.2l-.1.1-.05.2q2.1 7.3 3.5 20.95 1.25 17.35 0 24.4l-.05.05.05.05.05.05-.1-.1-16.25-19-11-9.75q7.4-7.1 9.4-27.75l54.35 14-42.8-29.65Q78.45 58.8 109.05 41q28.85-4.3 50.55-4.2h.15l21.4-12.4.1-.15v-.2l-.1-.1-.05-.2-.2.05q-2.1-1.05-4.9-2-5.95-1.95-15.15-3.2l21.55-6.65m-45 107.15v-.15l-1.75-6q-2.5-6.85-7.15-15.45l-.25-.45-.1-.1-4.85-3.65q-15.5-9.45-29.25-15-7.9-3.15-15.2-5.05l-.2.05-.1.1-.05.15.1.15q16.7 12.7 27.85 25.7 4.6 5.35 8.25 10.75l.15.1q9.15 1.8 22.2 9h.2l.15-.1.05-.05h-.05m-62.65 44.8.1-.05v.05h-.1" fill="#333647"/><path d="M212.9 12.35q10.75 1.25 21.1 3.55l8.3 3.35-2.2-.4q-12.65-2-27.35 3l-.1.05q-26.85 13.55-46.2 35.6l-.05.05-.05.05-1.25 1.1 4.3-7.6 18.4-19.9 25.1-18.85M95.85 142.55q-11.7 18.2-20.05 42.3-1.55-5.95-3.95-11l-1-2.05-6.25-13.1q-9.45-25.6-26-42.55l11 9.75 16.25 19 .1.1 8.5 18.75.1.15h.3v-.05l.05-.05q1.4-2.3 2.7-5.7l2.05-6.1 16.2-9.45" fill="#53576c"/><path d="m169.6 24.85 1.85.8-13.75 7.6q-19.1-.8-34.7 2.75l17.15-5.4q19.65-5.35 29.45-5.75m-95.5 130.5-5.15-11.6q1.2-7 0-19.9 3.55 5.25 4.4 23.3l.75 8.2m56.1-43.75.35 1.35-14.5-7.15-3.45-5.25v-.05q-8.25-9.35-15-15v-.1q7.5 1.9 17.55 11.5l15.05 14.7" fill="#0e7dac"/><path d="M122.95 35.9q9.7-5.95 25.9-10.95l7.25-2.15 1.1-.3q6.4.45 10.75 1.8l1.65.55q-9.8.4-29.45 5.75L123 36l-.05-.1m-54 87.95-.9-8 3.7 8.05q3.1 7.4 5.15 14.95l1.2 4.7-3.85 11.85-.15-.05-.75-8.2q-.85-18.05-4.4-23.3M97.5 85.4l-.15-.1-2.9-2.3 6.8 2.45q9.75 3.95 19.15 10.2l3.55 2.45.75.55q3 5.6 4.65 10.3l.85 2.65-15.05-14.7Q105.1 87.3 97.6 85.4h-.1" fill="#16c5dd"/><path d="M58.6 157.3q-19.3-9.6-34.3-.95l3.8-4.45q11-3.55 22.25-.5l8.25 5.9" fill="#b1f6ef"/><path d="m3.75 120.35.5-.3.65.2 15.9-10.8q13.35-9.25 15.65-24.55v-.05q1.05-4.8-.75-14.3v-.1l4.5-15.85.05-.1.1-.05q8.75-4.35 15.8-1.8 11.05-8.1 29.35-16.2h.05q25.35-8.9 55.15-17.8 25.1-5.2 44.45-7.55l6-.7 22.3 1.5q10.55 1.25 20.65 3.5l.05.05 11.5 4.6.1.05q2.4.7 4.75 1.7l-3.95-3.85q-7.45-5.5-17.85-9.2-9.95-3.5-22.6-5.35l-18.15-1.7h-.1Q115.1 5.15 34.8 38.15l-.45.05-.4-.2Q23.4 29.45 14.9 24.65q-2.45-1.4-4.7-2.45l-3.6-1.55 12.15 26.3 5.15 1.85.3.2.2.3q1.35 3.15 2.25 6.7l.2.95q2.35 10.7.3 25.05l-.2.45-4.05 4.45-20.35 22.45-1.05 1.15-.6.25-.6-.2q-.3-.25-.3-.6l.25-.6L25.5 81.5q2.65-18.8-2.5-31.2l-5.2-1.9-.45-.45L4.2 19.5q-.15-.3-.05-.6l.45-.5.65-.05 3.8 1.45 5.15 2.5q9 4.85 20.4 14.1Q115 3.45 187.85 0h.1q13.6.65 24.8 2.8 11.6 2.2 20.7 5.95 8.1 3.35 14.2 7.95l.1.05 7.9 7.65.25.55-.15.55-.5.35-.6-.1q-4.2-2.4-8.7-3.8l-5.85-3.1 2.2.4-8.3-3.35q-10.35-2.3-21.1-3.55l-21.75-1.45-8.75 1.05q-18.35 2.35-41.55 7.2-29.75 8.9-55.15 17.75Q67.4 45 56.35 53.1l-.1.05h-.1q-6.9-2.5-15.45 1.7l-4.45 15.7q1.75 9.5.7 14.4-2.3 15.55-15.85 24.9l-15.8 10.7 1.55 1.2-1.65.9-1.35-1.05-.35-.6q-.05-.35.2-.6l.05-.05" fill="#6e6482"/><path d="m149.35 24.25 6.95-2 .8-.25h.1q7 .5 11.6 2l1.75.65 1.6.8.05.05.05.05v.2l-.1.15-14.25 7.85h-.15q-20.15-.85-36.45 3.15h-.15l-.1-.15-.05-.15.15-.15.05-.05 2.2-1.35.25-.15q9.75-5.75 25.7-10.65m20.25.6-1.65-.55q-4.35-1.35-10.75-1.8l-1.1.3-7.25 2.15q-16.2 5-25.9 10.95l-.3.2.35-.1q15.6-3.55 34.7-2.75l13.75-7.6-1.85-.8m-38.7 87.5.25 1v.2l-.15.1h-.2l-15-7.4-.1-.1-3.45-5.35h-.05q-10.95-12.4-19.25-18.3l-.1-.05-.1-.15.05-.15.05-.05.05-.05.2-.05q3.6 1.1 7.2 2.55 10.6 4.1 20.7 10.9l3.65 2.55.4.3.1.1q3.2 6 4.9 11l.85 2.9v.05m-63.15 5.15-.4-3.05.05-.15.15-.15.15.05.15.1 3.35 7.05q3.9 8.85 6.35 17.9l1.05 4.2v.15l-.05.15-2.05 6.3-2.05 6.3-.1.1-.15.05-.1-.05-.1-.1-5.5-12.5-.05-.15q1.45-8.6-.7-26.2m6.5 37.9 3.85-11.85-1.2-4.7q-2.05-7.55-5.15-14.95l-3.7-8.05.9 8q1.2 12.9 0 19.9l5.15 11.6.1.25.05-.2m55.95-43.8-.85-2.65q-1.65-4.7-4.65-10.3l-.75-.55-3.55-2.45q-9.4-6.25-19.15-10.2L94.45 83l2.9 2.3.15.1.1.1q6.75 5.65 15 15v.05l3.45 5.25 14.5 7.15-.35-1.35" fill="#206691"/></g><g id="e" fill-rule="evenodd"><path d="M42.2.35 44.65 0q4.5 3.95 14.55 18.3 9.75 13.9 8.75 36.5l-.1 1.25-2.05.7.25-2q.1-4.1-1.55-12.85-2.55-13.3-8.85-24.25-6-10.3-13.45-17.3m28 56.7Q81.15 73.2 91 93.2v6.05l-2.9-5.9-7.3-14.8-10.6-21.5M91 121.7v2.05q-5.65 19.25-12.9 23.6l-5-13-24.75 26.8L19.6 141.6l-10-8-4.05 3.5q-6.85-.7-5.25-20.25l6.75-37 .85-.35 1.15-.5-3.1 18.55-3.65 17.8q-1.4 13.45 2.75 18.5l2.4-1 2.4-1 16 12.65 22.5 14.4 25-26.8 6 12.5q2.9-3.8 5.65-9.1 3.1-5.95 6-13.8" fill="#43627f"/><path d="M42.2.35q7.45 7 13.45 17.3 6.3 10.95 8.85 24.25 1.65 8.75 1.55 12.85l-.25 2 2.05-.7.1-1.25h.75l1.5 2.25 10.6 21.5 5.3 29.55q.45 19.1-1.1 27.4-2.75 5.3-5.65 9.1l-6-12.5-25 26.8-22.5-14.4-16-12.65-2.4 1q-4.55-5.9-2.4-20.75l.9-14.55L9.05 79l-1.15.5.55-13.9Q9 55.9 10.9 49.15 14.95 34.5 28.35 22.4l-1.5-5.65q-.55-2.3.3-4.55Q31.1 2.25 42.2.35M91 99.25v8.4l-2.9-14.3 2.9 5.9" fill="#5e88b1"/><path d="m5.95 97.55-.9 14.55q-2.15 14.85 2.4 20.75l-2.4 1Q.9 128.8 2.3 115.35l3.65-17.8" fill="#b8d3f7"/><path d="M91 107.65v14.05q-2.9 7.85-6 13.8 1.55-8.3 1.1-27.4l-5.3-29.55 7.3 14.8 2.9 14.3" fill="#b9d4f8"/></g><g id="f" fill-rule="evenodd"><path d="M67.95 39.7q4.75 1.7 9.85 3.75h.05q10.6 5.25 15.4 14.15 4.35 6.5 4.3 11.45l-.1.25-.2.15-.25-.05q-1.7-.8-2.7-.75-.85 0-1.2.8-.8 1.9.95 7.4 8 13.05 19.4 21.3 8.75-8.75 15.3-23.65v.05q1.65-5.45.75-7.25-.4-.75-1.35-.75-1.1 0-2.85.85l-.25.05-.2-.1-.1-.2q-2.55-9.85-9.8-18.3l-.05-.05-8.55-7.4-1.95-1.25q-7.45-4.7-16.85-8.4-5.5-2.15-11.6-3.95H76l-34.65-6.85h-.05L18.7 13.2l-.05-.05-6-3-.1-.05L4.2 2.45 2.3.7 2.15.45l.1-.3q.1-.15.3-.15l.3.1L13.1 9.5l5.85 2.95 22.6 7.75-.05-.05L76.15 27l.05.05q6.25 1.85 11.9 4.1 10.55 4.15 18.7 9.6h.05l8.65 7.5v.05q7.25 8.35 9.9 18.2 1.65-.75 2.8-.75 1.4.05 2 1.2 1.1 1.95-.7 7.85-6.7 15.3-15.75 24.15l-.25.1-.25-.05q-11.7-8.4-19.9-21.75v-.05q-1.9-6-.95-8.05.5-1.2 1.85-1.3 1-.05 2.5.6-.25-4.55-4.15-10.4l-.05-.05q-4.7-8.7-15.05-13.85v.05q-5.2-2.1-10.1-3.85-12.1-4.5-22.1-7.3h-.05L19.5 21.95l-.05-.05L.2 11.25.05 11v-.3q.1-.15.25-.15h.3l1.75.95 17.45 9.7 25.75 11.1h-.05q10.15 2.85 22.45 7.4m16.75-4.65 2.3.65q6.8 1.95 12.15 4.7 5.9 3.05 10.05 7.1 15.1 11 12.05 22.8 3.55-.65 4.6.9 1.2 1.55-.6 5.55h-.05q-6.1 11.5-10.75 17.55l-.25.15-.25-.05q-7.1-3.7-15.9-16.1l-.05-.1q-1.5-4-.15-5.75 1.1-1.65 4.65-1.35l-6.65-15.85Q89.4 47.45 78.9 42.4v.05l-9.75-4.2Q53.6 31.9 36.05 26.8l-.05-.05L14.5 16.4h-.05L2.85 9.05l-1-.65-.2-.25.1-.3.25-.2.3.05.75.5 11.85 7.5h-.05l21.5 10.35Q54 31.2 69.65 37.6l3 1.2q3.35 1.4 6.6 2.9 10.7 5.15 17.25 13.1l.1.1 6.9 16.5v.3l-.15.2-.3.05q-3.5-.45-4.6.95-1.05 1.5.3 5Q107.2 89.75 114 93.55q4.55-6.05 10.5-17.2v.05q1.55-3.45.7-4.75-.95-1.2-4.4-.45l-.25-.05-.2-.2v-.25q3.35-11.65-11.6-22.55l-.05-.05q-4.55-4.45-11.25-7.7-4.8-2.3-10.65-3.95l-44.85-12.5-26.4-9.5-.1-.05-12-6.9-.15-.25v-.3q.1-.15.25-.15h.3l12 6.9 26.35 9.5h-.05L84.7 35.05" fill="#5c2e72"/><path d="M67.95 39.7q-12.3-4.55-22.45-7.4h.05L19.8 21.2 2.35 11.5l.5-2.45 11.6 7.35h.05L36 26.75l.05.05q17.55 5.1 33.1 11.45l-1.2 1.45M4.2 2.45l8.35 7.65.1.05 6 3 .05.05 22.6 7.75h.05L76 27.8h-.05q6.1 1.8 11.6 3.95l-2.85 3.3L42.15 23.2h.05l-26.35-9.5-12-6.9h-.3q-.15 0-.25.15l.9-4.5" fill="#773d92"/><path d="m3.05 8.2.2-.95h.05l.15.25 12 6.9.1.05 26.4 9.5 44.85 12.5q5.85 1.65 10.65 3.95H93.2l-20.55-1.6-3-1.2Q54 31.2 36.35 26.05L14.85 15.7h.05L3.05 8.2" fill="#8c0517"/><path d="m72.65 38.8 20.55 1.6h4.25q6.7 3.25 11.25 7.7l.05.05q14.95 10.9 11.6 22.55v.25l.2.2.25.05q3.45-.75 4.4.45.85 1.3-.7 4.75v-.05q-5.95 11.15-10.5 17.2-6.8-3.8-15.25-15.65-1.35-3.5-.3-5 1.1-1.4 4.6-.95l.3-.05.15-.2v-.3l-6.9-16.5-.1-.1q-6.55-7.95-17.25-13.1-3.25-1.5-6.6-2.9" fill="#d81e15"/><path d="M87.55 31.75q9.4 3.7 16.85 8.4l1.95 1.25 8.55 7.4.05.05q7.25 8.45 9.8 18.3l.1.2.2.1.25-.05q1.75-.85 2.85-.85.95 0 1.35.75.9 1.8-.75 7.25v-.05q-6.55 14.9-15.3 23.65-11.4-8.25-19.4-21.3-1.75-5.5-.95-7.4.35-.8 1.2-.8 1-.05 2.7.75l.25.05.2-.15.1-.25q.05-4.95-4.3-11.45-4.8-8.9-15.4-14.15h-.05q-5.1-2.05-9.85-3.75l1.2-1.45 9.75 4.2v-.05q10.5 5.05 16.95 12.85l6.65 15.85q-3.55-.3-4.65 1.35-1.35 1.75.15 5.75l.05.1q8.8 12.4 15.9 16.1l.25.05.25-.15q4.65-6.05 10.75-17.55h.05q1.8-4 .6-5.55-1.05-1.55-4.6-.9 3.05-11.8-12.05-22.8-4.15-4.05-10.05-7.1Q93.8 37.65 87 35.7l-2.3-.65 2.85-3.3" fill="#a552e1"/></g><g id="g" fill-rule="evenodd"><path d="m21.5 2.25-.7-.65-.2-.45.2-.5q.15-.2.45-.2l.45.2L32.6 10.8 56.9 28l.1.1 5.4 6.15-2.85-10.8v-.4l.25-.3.4-.15q.2 0 .35.15 12.1 9 17.1 26.2v.15q.55 10.65-2.9 17.5v.05l-2.6 6.4Q65.45 90 64.9 97.3l-.15.4-.4.2-.4-.05-.3-.35q-4.1-9.7-15.05-21.1-10.35-5.65-21.65-17.35l-.1-.1-7.25-12-.1-.4.15-.35q.15-.2.35-.2h.4l4.35 1.7q-7.2-7.25-15.5-18.55l-.1-.15L.05 7.75v-.5Q.15 7 .4 6.9h.5l.35.35.1.2 9 21q9.55 13.05 17.6 20.6l.2.4-.1.4-.35.3-.45-.05-5.55-2.2 6.25 10.3Q39.1 69.75 49.3 75.3l.2.1q10 10.45 14.4 19.5 1.25-7.9 7.5-23.5l2.15-5.3.05-.05.75-1.65q2.45-6.2 2-15.2Q71.85 33.65 61.3 25l.95 3.6 2.15 8-.05.4-.3.35-.4.05-.35-.2h-.05l-7.2-8.25H56l-20.85-14.8-3.35-2.35-.1-.05-10.2-9.5M5.85 6.3l.65-.2 5.1 13.05v-.05l4.95 10.1h.05l6.65 8.45 8.2 10.4v.05l5 9.1.05.2-.05.2-.2.1h-.2l-4.4-1.75L35 60l13.85 8.3.05.05q7 5.75 11.45 13.3.55-5.2 6.05-19.4l.45-1.1.95-2.45q1.95-8.5.35-16-.95 3.7-3.4 9.3l-.2.2h-.25l-.2-.15-3.85-7.2q-10.7-12.3-24.05-21.2l-.05-.05-8.5-8.6-9.5-11.9-2-2.5-.1-.3q0-.15.15-.2.1-.1.25-.1t.25.15l2.2 2.75 9.25 11.6 8.45 8.55q13.45 9 24.2 21.35v.05l3.55 6.6q2.75-6.3 3.45-10l.15-.2.2-.1.2.1.15.15q2.15 8.35 0 17.85v.05l-1.25 3.15Q60.9 78.3 61 82.85l-.05.2-.2.15h-.2l-.2-.15Q55.85 75 48.45 68.9L34.6 60.55l-.1-.05-4.25-5.15-.1-.25.1-.2.15-.1h.25l4.75 1.9-4.5-8.2L16 29.6l-.05-.1-5-10.1-5.1-13.1" fill="#5c2e72"/><path d="M66.4 62.25q-5.5 14.2-6.05 19.4-4.45-7.55-11.45-13.3l-.05-.05L35 60l-3.35-4.05 4.4 1.75h.2l.2-.1.05-.2-.05-.2-5-9.1v-.05l-8.2-10.4 15.5 1.95Q61.8 48.15 66.4 62.25" fill="#d81e15"/><path d="m6.5 6.1 11.65-3 9.5 11.9 8.5 8.6.05.05q13.35 8.9 24.05 21.2l3.85 7.2.2.15h.25l.2-.2q2.45-5.6 3.4-9.3 1.6 7.5-.35 16l-.95 2.45-.45 1.1q-4.6-14.1-27.65-22.65l-15.5-1.95-6.65-8.45h-.05L11.6 19.1v.05L6.5 6.1" fill="#8c0517"/><path d="m18.9 2.9 2.6-.65 10.2 9.5.1.05 3.35 2.35 21.6 16.65 6.5 6.4h.05l.35.2.4-.05.3-.35.05-.4-2.15-8q6.25 4.75 11.15 17.9 2 13.5.95 17.9l-.75 1.65-.05.05-2.15 5.3-4.15-9.35 1.25-3.15v-.05q2.15-9.5 0-17.85l-.15-.15-.2-.1-.2.1-.15.2q-.7 3.7-3.45 10l-3.55-6.6v-.05Q50.05 32.05 36.6 23.05l-8.45-8.55L18.9 2.9" fill="#773d92"/><path d="m1.35 7.45 4.5-1.15 5.1 13.1 5 10.1.05.1 14.9 18.9 4.5 8.2-4.75-1.9h-.25l-.15.1-.1.2.1.25 4.25 5.15.1.05 13.85 8.35q7.4 6.1 11.9 14.15l.2.15h.2l.2-.15.05-.2q-.1-4.55 6.25-20.8l4.15 9.35Q65.15 87 63.9 94.9q-4.4-9.05-14.4-19.5l-.2-.1q-10.2-5.55-21.35-17.1L21.7 47.9l5.55 2.2.45.05.35-.3.1-.4-.2-.4q-8.05-7.55-17.6-20.6l-9-21" fill="#a552e1"/><path d="M35.15 14.15 56 28.95h.05l7.2 8.25-6.5-6.4-21.6-16.65m27.1 14.45L61.3 25q10.55 8.65 15.05 24.2.45 9-2 15.2 1.05-4.4-.95-17.9-4.9-13.15-11.15-17.9" fill="#b4fcf4"/></g><g id="h" fill-rule="evenodd"><path d="m40.95 4.5 2.45-3.1q.1-.15.25-.15l.3.1.15.25-.05.3-2.75 3.45-13.25 16.8-.05.05q-7.9 8.75-13.6 17.75Q7.75 50.45 4.1 61.2q-1.3 8.2-.3 14.65.9 6.3 3.95 10.95l.05.3-.15.2-.25.1q-1.45-.1-1.95.35-.35.4.05 1.35 1.1 2.4 6.55 7.45H12l10.85 7.65 1.3-9.9q.2-8.35-1.45-11.5-.75-1.4-1.85-1.65-1.2-.2-2.85.8l-.25.05-.2-.1-.15-.2L14.3 65v-.05q-1-6.85 2.45-15.95Q20.7 38.65 30.4 25.45l12.35-16.8L46.4 3.7l.25-.2.3.1.15.25-.05.3L43.1 9.5l-8.25 11.25-3.8 5.15q-8.8 11.95-12.8 21.5l-1.4 3.7q-2.6 7.75-1.75 13.75l3 16.15q1.65-.9 2.9-.6 1.45.25 2.45 2.05 1.7 3.2 1.5 11.9v.05l-1.4 10.55-.1.25-.25.1-.25-.05-11.4-8.05-.05-.05Q5.85 91.9 4.8 89.4q-.7-1.55.1-2.2.5-.55 1.8-.6-2.45-3.95-3.45-9-1.4-7.15.05-16.5l.05-.05Q7.2 49.6 14.4 38.5q5.5-8.55 13-16.85L40.95 4.5m2.5 5.75.2-.3q.05-.15.25-.2l.3.1.15.25-.05.3-13.75 21q-9.8 12.7-11.9 23.95-1.2 6.2-.05 12l1.6 9q2.55-1.6 4.35.6 1.85 2.15 2.8 8.4v.1l-1.4 22.85-.05.15.05.1-.05.3-.2.2-.3-.05q-8.3-4.3-17.7-12.15h-.05q-6-6.8-7.05-9.75-.65-1.85.35-2.45.6-.5 2.1-.3-4.35-8.75-2.5-24.5l.05-.05q5-16.2 13.8-28.85 4.4-6.35 9.75-11.8h.05l15.95-19q.1-.15.3-.15l.25.1.15.3-.1.25-1 1.2-15 17.8v.05Q19 25.5 14.4 32.35q-8.25 12.2-13.05 27.6-1.9 16.15 2.8 24.75l.05.3-.2.25-.3.05q-1.7-.4-2.3 0-.45.4 0 1.5 1 2.85 6.85 9.5l-.05-.05q9 7.5 17 11.75l1.35-22.55q-.95-5.95-2.6-8l-3.8-.1-.25.05-.25-.1-.15-.2-1.7-9.6q-1.3-6.5.25-13.5 1.5-6.6 5.5-13.65l.45-.75.6-1.05q2.3-3.75 5.3-7.65v.05l13.55-20.7" fill="#5c2e72"/><path d="M42.75 8.65 30.4 25.45Q20.7 38.65 16.75 49l-7.3 7.65-5.65 19.2q-1-6.45.3-14.65 3.65-10.75 10.3-21.25 5.7-9 13.6-17.75l.05-.05L41.3 5.35l1.45 3.3" fill="#8c0517"/><path d="M16.75 49q-3.45 9.1-2.45 15.95V65l3.1 16.7.15.2.2.1.25-.05q1.65-1 2.85-.8 1.1.25 1.85 1.65 1.65 3.15 1.45 11.5l-1.3 9.9L12 96.55h.05Q6.6 91.5 5.5 89.1q-.4-.95-.05-1.35.5-.45 1.95-.35l.25-.1.15-.2-.05-.3Q4.7 82.15 3.8 75.85l5.65-19.2 7.3-7.65" fill="#d81e15"/><path d="M14.4 38.5Q7.2 49.6 3.35 61.05l-.05.05q-1.45 9.35-.05 16.5 1 5.05 3.45 9-1.3.05-1.8.6-.8.65-.1 2.2 1.05 2.5 6.7 7.75l.05.05 11.4 8.05.25.05.25-.1.1-.25 1.4-10.55v-.05q.2-8.7-1.5-11.9-1-1.8-2.45-2.05-1.25-.3-2.9.6l-3-16.15q-.85-6 1.75-13.75l1.2 2.9q-1.55 7-.25 13.5l1.7 9.6.15.2.25.1.25-.05 3.8.1q1.65 2.05 2.6 8L25.2 108q-8-4.25-17-11.75l.05.05Q2.4 89.65 1.4 86.8q-.45-1.1 0-1.5.6-.4 2.3 0l.3-.05.2-.25-.05-.3q-4.7-8.6-2.8-24.75 4.8-15.4 13.05-27.6v6.15" fill="#a552e1"/><path d="M40.95 4.5 27.4 21.65q-7.5 8.3-13 16.85v-6.15Q19 25.5 24.75 19.7v-.05l15-17.8 1.2 2.65m-24.1 46.6 1.4-3.7q4-9.55 12.8-21.5l3.8-5.15-10.25 17.8-.6 1.05-.45.75q-4 7.05-5.5 13.65l-1.2-2.9" fill="#773d92"/><path d="M34.85 20.75 43.1 9.5l.35.75-13.55 20.7v-.05q-3 3.9-5.3 7.65l10.25-17.8" fill="#b4fcf4"/></g><g id="i" fill-rule="evenodd"><path d="m36.3 26.7-3.8-5.6 4.6-7.1 3.95-1.6-.75 2.8 2.3-3.4.2-.1.1-.3Q44.6 6.7 45.75.9l5.9 3.5Q48.5 10.45 43.6 17q0 2.25-3.9 6.3l-3.4 3.4" fill="#f8ecff"/><path d="m36.85 27.5-.55-.8 3.4-3.4q3.9-4.05 3.9-6.3 4.9-6.55 8.05-12.6l3.1 1.8-9.05 12.3-.9 3.3-2 3.1q-2.8 1.55-5.95 2.6m5.75-15.7-2.3 3.4.75-2.8 1.55-.6" fill="#d2a2eb"/><path d="m55.3 6.55 1 .6L47.1 19l-.6 2.9q-2.15 3.55-4 4.8l-4.9 1.9-.75-1.1q3.15-1.05 5.95-2.6 1.55-.5 2.8-3.9-.05-1.5 1.8-4.2l7.9-10.25M32.5 21.1l-.7-1.05 4.8-6.95q2.8-1.9 4-1.8 2.25-.3 2.65-6.2l.15-.4.8-4.7 1.55.9Q44.6 6.7 42.9 11.4l-.3.4-1.55.6L37.1 14l-4.6 7.1" fill="#806192"/><path d="m54.75 6.2.55.35-7.9 10.25q-1.85 2.7-1.8 4.2-1.25 3.4-2.8 3.9l2-3.1.9-3.3 9.05-12.3" fill="#b4fcf4"/><path d="m28.2 48 .8 4.1q-.35 2.65-4.1 6.8-4.7 3.6-8.2 5.1l2.6-8.2.4-4 1.1-1.45 1.6-1.7 1.85-1.5q.45-.35.95-.55l.75.35.75.35 1.5.7m-8.6-.7v2.5q-1.3 2.8-1.8 10.2l-5.1-3.9-1.9 10.1-2.6-3.1q-2.8-3.45-2.5-10.4L4 59.3q-3.85-2-4-9.1 1.85-8.55 5.7-11l7.4-3.4.95 2.05L12.9 39l-.7-1-5.9 2.5q-5.25 7.75-3.45 13.4l.05.05.05-.1L6.7 48.8l4.3-1.7 1.5-1.1-.6.9 1.1 1.4.6-.2.65-.2.65-.2 1.1 1.1.75-.05q.75-.2 1.15-.95v1.6L16 50l-1.2-1.1v2.4l-.65.7-.65.7q.9 3.8 2.6 4.5.95-6.55 2.7-8.4l-.45-1.95.45-.95.8 1.4m-9.9-4.7v-.5l1.4-2.4.9-.7.25.6-.55.5-.4.6q-1.3 2-.45 3.55l.85.95.4.4-1.3.4q-1.25-.7-1.1-3.4m16.5 11.15L27 52q-.3-3.55-1.15-4.2l-.2-.1h-.15l-.9.05q-1.95.5-3.4 3.95l-1.4 9.1.7-.25q2.55-1.15 4.95-5.4l.75-1.4M9.8 59.1q.55-2.6 2.6-6.8l1.2-1.3.4-1.9-1.4.1-1.3-1.3-1.5.6-.45 1.25Q6.25 58 9.6 61.2q-.1-.85.2-2.1" fill="#6e6482"/><path d="m30.7 35.95.05.1.05.75 4.1-1.5q-1.1 6.5-4.3 7.5L28.2 48l-1.5-.7-.1-3.7 3.55-2.2q2.35-2.5 2.6-3.85L32.7 37l-3.4 1.2-.4-5.1-.7.1-3.6.4-.7-4.7.7-8.7.6 5.4.2 1.8.2 1.7.4 3.3 4.2-1.2.1 1 .3 2.5.05.5.05.75m-9.9 14.4.2-2.55q-.35-1.25-.85-1.9-.35-.45-.75-.6l-.6.15v.45l-.45.95-.45.95q-.4.75-1.15.95l.7-2.95L16 46l-1.75 1.9-.65.2 1.6-2.2-3.5-.7-.85-.95 6.25.95.8-.75h2.3q1.65.95 2.2 4.2l-1.6 1.7m-6.75-12.5 1.15-1.15.5 1-.3.35q-1.65 1.75-2.9 2.35l-1.2.3.4-.6.55-.5.65-.6 1.15-1.15M19.2 25.8q3.3-9 6.6-12.1l1.3 6.75-.15.35-.05.15-.05.15-.5 1.3-1.25-5.3q-.75.55-1.85 2.5l-.35.65q-1.3 2.45-3.05 6.6l-.65-1.05" fill="#b9660c"/><path d="M15.2 36.7v-6.3l3.8-4.9.2.3.65 1.05q1.35 2.7 1.25 6.85-1.6 4.05-3.9 4.8l.3-.5 2.45-3.8.45-.8.2-.35q.35-1.2-.75-3.9l-.75-1.65-2.7 4.3.2 6.2-.2-.6-1 .65.3-.35-.5-1" fill="#105f88"/><path d="m22.9 20.25.35-.65q1.1-1.95 1.85-2.5l1.25 5.3-1.15 3.2-.6-5.4-.7 8.7.7 4.7-1.3-2.3-.4-11.05M12.1 45.6l-.4-.4 3.5.7-1.6 2.2-.6.2-1.1-1.4.6-.9-.4-.4m-1.25-1.35q-.85-1.55.45-3.55l1.2-.3-.6 2.8 7.4.9.9.35h-2.3l-.8.75-6.25-.95M28.2 33.2l.7-.1.4 5.1 3.4-1.2.05.55q-3.95 4.55-6.8 5.65v3.75l-.75-.35q-.5.2-.95.55.55-4.45 3.95-10.95v-3M14.25 47.9 16 46l1.45-.2-.7 2.95-.75.05-1.1-1.1-.65.2" fill="#eb820d"/><path d="m20.15 45.9-.55 1.4-.8-1.4v-.45l.6-.15q.4.15.75.6m-17.2 7.95q-.45-4.1 2.55-8.95l4.2-2.3q-.15 2.7 1.1 3.4l1.3-.4.4.4-1.5 1.1-4.3 1.7-3.75 5.05M17.9 47.8l.45-.95.45 1.95q-1.75 1.85-2.7 8.4L14.15 52l.65-.7v-2.4L16 50l1.9-.6v-1.6m7.95 0q.65 2.25.35 5.95l-.75 1.4q-2.4 4.25-4.95 5.4 5.85-5.05 4.1-12.8l.9-.05h.15l.2.1m-16.5 1.95.45-1.25 1.5-.6 1.3 1.3 1.4-.1-.4 1.9-1.2 1.3q-2.05 4.2-2.6 6.8-.8-3-.45-9.35" fill="#b4a7d2"/><path d="M12.25 39.6 12 39l-.9.7-1.4 2.4v.5l-4.2 2.3q-3 4.85-2.55 8.95l-.1.05q-1.8-5.65 3.45-13.4l5.9-2.5.7 1-.65.6m7.6-10.45L17.6 31.3l3 1.75-.2.35-.45.8-2.85-1.8.4 5.6-.3.5-.4.1-.2-.6-.2-6.2 2.7-4.3.75 1.65m.65 31.4-.7.25 1.4-9.1q1.45-3.45 3.4-3.95 1.75 7.75-4.1 12.8m-4.4-3.35q-1.7-.7-2.6-4.5l.65-.7 1.95 5.2m-6.75-7.45Q9 56.1 9.8 59.1q-.3 1.25-.2 2.1-3.35-3.2-.25-11.45" fill="#fff"/><path d="M25.85 47.8q.85.65 1.15 4.2l-.8 1.75q.3-3.7-.35-5.95" fill="#b2f5ee"/><path d="m22.9 20.25.4 11.05 1.3 2.3 3.6-.4v3q-3.4 6.5-3.95 10.95l-1.85 1.5q-.55-3.25-2.2-4.2l-.9-.35-7.4-.9.6-2.8q1.25-.6 2.9-2.35l1-.65.2.6.2.6.4-.1q2.3-.75 3.9-4.8.1-4.15-1.25-6.85 1.75-4.15 3.05-6.6" fill="#ffd58d"/><path d="M32.75 37.55q-.25 1.35-2.6 3.85l-3.55 2.2.1 3.7-.75-.35V43.2q2.85-1.1 6.8-5.65" fill="#b5f5e7"/><path d="m17.5 38-.4-5.6 2.85 1.8L17.5 38" fill="#1683bc"/><path d="m20.6 33.05-3-1.75 2.25-2.15q1.1 2.7.75 3.9" fill="#26f8f7"/><path d="M31.3 14.3 35 7.9l-.9 8.5q.1 3.25 3.05 3.95l.15.05-.05.3q-.45 2.7.05 3.6l.5 1-7.5 6.9-.1-1-4.2 1.2-.4-3.3q4.4-8.3 5.65-14.5l.05-.3" fill="#5e52e1"/><path d="m36.55 18.8 1.45.9q-.2 1.3-.1 2.5.1 1.55.6 2.9l2.1 1.95 1.4 1.5 1.05.8-.95 1.15-3.1 1.9-8.3 3.55-.05-.75L41.5 29l.5-.45-.6-.3q-2.4-.95-3.6-2.95l-.5-1q-.5-.9-.05-3.6l.05-.3-.15-.05q-2.95-.7-3.05-3.95l.9-8.5-3.7 6.4-.2.3-5.7 12.8-.2-1.8 1.15-3.2.5-1.3.05-.15.05-.15.15-.35q1.95-5.1 6.2-11.95l1.9-2.7q.55 1.25.35 3.45-.7 3.2.15 9.05l.85.5" fill="#322866"/><path d="m37.9 22.2 1.3 2.7 1.4 2.15-2.1-1.95q-.5-1.35-.6-2.9M35.55 9.25l-.05.6q-.65 4.45.95 8.7l.1.25-.85-.5q-.85-5.85-.15-9.05M37.8 25.3q1.2 2 3.6 2.95l-.2.15-10.6 6.3-.3-2.5 7.5-6.9" fill="#4b3d92"/><path d="m41.4 28.25.6.3-.5.45-10.85 6.2-.05-.5 10.6-6.3.2-.15" fill="#b4fcf4"/><path d="M31.1 14.6h.15Q30 20.8 25.6 29.1l-.2-1.7 5.7-12.8" fill="#866dff"/></g><g id="j" fill-rule="evenodd"><path d="M7.3 13.95Q5.2 9.5 1.2 8.3q1.05-3.1 5.95-6.05 3-.9 6.05-.55Q6.4 5 7.3 13.95m7.95 14.1Q9.9 25.3 6.5 19.3q.95-.65 1.2-2 1.75 7.45 7.55 10.75" fill="#ffd58d"/><path d="m8.6 25.65-.1-.1-.05-.05-.1-.1q-3.25-4.05-3.3-7.9 1.85 1.05 1.15-2.75Q3.5 9.4 0 9.45q.05-5.2 7.45-8.6 5.8-1.75 9.75.1l.7 1.95q-2.3-.95-4.55-1.2h-.15q-3.05-.35-6.05.55Q2.25 5.2 1.2 8.3q4 1.2 6.1 5.65l.05.15.1.2q.4 1.8.25 3-.25 1.35-1.2 2 3.4 6 8.75 8.75l.5.25 1.6.7-.95.5q-2.3-.5-4.5-1.65l-.15-.1-3.15-2.1" fill="#b9660c"/><path d="m25.35 23.75.25.7-1.1.6L17.35 29l-1.6-.7-.5-.25q-5.8-3.3-7.55-10.75.15-1.2-.25-3l-.1-.2-.05-.15Q6.4 5 13.2 1.7h.15q2.25.25 4.55 1.2l7.45 20.85" fill="#eb820d"/><path d="m24.5 25.05 9.1 2.85 13.05 36.8-1.1.55-.1-.2v.05l-6 3.95-.65-.35-21.55-20.95-1.25-2.6-3.35-11.3-.75-6q2.2 1.15 4.5 1.65l.95-.5 7.15-3.95" fill="#d2a2eb"/><path d="m16 45.15-4.3-9.05-3.1-10.45 3.15 2.1.15.1.75 6L16 45.15" fill="#f8ecff"/><path d="m16 45.15 1.25 2.6L38.8 68.7l.65.35-.9.6-7.85-5.9-14.35-15.5-4.65-8.65-3.05-11-.25-3.05h.1l.1.1 3.1 10.45 4.3 9.05" fill="#806192"/><path d="m46.75 64.95-.05-.25Q42.3 47.4 35 28.35l-1.4-.45-9.1-2.85 1.1-.6-.25-.7 10.6 1.7 13.7 39.2-2.9.3" fill="#322866"/><path d="m33.6 27.9 1.4.45Q42.3 47.4 46.7 64.7l.05.25.05.1-.05-.1-.1-.25L33.6 27.9" fill="#b4fcf4"/></g><g id="k" fill-rule="evenodd"><path d="m25.3 5.35-.1 1.1L22.55 9l-3.35 1 .75 1.65 1 2.3.3 5.2q-.55.95-1 2.15-1.4 3.45-2.2 9.1 1.6 1.95 1.85 7.05l.1 4 .15 8-.85.05-.05-1.85L19 37.6q.1-5.4-1.35-6.65V28.6q.7-5.2 1.65-7.95l.1.25 1-2.5.15-3.35-.15-.15q-.95-1.3-1.4-2.65l-.1-.3-.4-2-.05-.15-.05-.7L21.7 8l-.15-2.2L21.1.05l.15-.05.85.5.2 7.35 3-2.5M40.45 24l-5.8-4.85-5.8-3.05q-3.15-1.8-3.15-6.8l.5-6.35 1.3.75-.4 6.25 1.05 4.1 2.55 2.1 6.95 2.8 3.85 3.6L40.45 24m-28.1 26q-6.1-2.85-7.3-11.9l.2-9.1q.95-7.4 2.05-12.15Q5.8 14.45 5 10q-1.85-.3-3.4-1.85l-.95-4q1 3.3 4.6 4.8h1.6q-1.15-.3-1.5-1.45-.25-.75-.15-1.85l.15-1.4q-.15 2.15.9 3.6l1.2 1.1 1.05.25.7.15-.95.35.65 1.2 2.55 5.4.1 1.4.3 3.85q-2.1 2.75-2.45 9.1v.1l.3 9.4.85 3.15 1.8 6.7m-1.3-30.25v-3l-2.5-4.65-.75-2.25-1.9.25 2.65 6.1-2.4 12.6v.25q-.4 3.45-.45 6.2l.1 3.6.1.9q1.1 4.6 3.2 7.15 1.1 1.35 2.5 2.1l-1.7-5.7-.55-1.95-.1-.25-.55-8.05q-.8-5 2.35-11.6v-1.7" fill="#322866"/><path d="m25.55 2.55-.25 2.8-3 2.5L22.1.5l3.45 2.05M37.45 28 21.5 49.35l-1.35.1-.15-8q2.35-2.25 4.15-9.75-.2-7.35-3.9-10.4.45-1.2 1-2.15l-.3-5.2-1-2.3 2.95-.85 2.2 4.9L37.45 28M.65 4.15 0 1.55l5.65-.4-.3 3.1-.15 1.4q-.1 1.1.15 1.85-1.85.25-4.7-3.35m5.05 31.1q.05-2.75.45-6.2v-.25l2.4-12.6-2.65-6.1 1.9-.25.75 2.25 2.5 4.65v3q-1.8 1.2-3.75 7.65-.7 5-.3 7.55Q8.15 40 9.25 41.1l.1.25.55 1.95-1.05-1-3.15-7.05" fill="#5e52e1"/><path d="M11.05 19.75v1.7q-3.15 6.6-2.35 11.6l.55 8.05Q8.15 40 7 34.95q-.4-2.55.3-7.55 1.95-6.45 3.75-7.65m9.2 1.55q3.7 3.05 3.9 10.4-1.8 7.5-4.15 9.75l-.1-4q-.25-5.1-1.85-7.05.8-5.65 2.2-9.1" fill="#866dff"/><path d="M5.65 1.15 21.1.05l.45 5.75q-2.2 1.3-5.15.7l-3.8-2.3Q9.75 7.85 6.25 7.85q-1.05-1.45-.9-3.6l.3-3.1m13.65 19.5q-.95 2.75-1.65 7.95v2.35Q19.1 32.2 19 37.6l.25 10.05L15.3 47l-4.75-3.7-.85-3.15-.3-9.4v-.1q.35-6.35 2.45-9.1l-.3-3.85q5.3-2.05 7.75 2.95" fill="#f8ecff"/><path d="m19.3 49.5-6.95.5-1.8-6.7L15.3 47l3.95.65.05 1.85m2.25-43.7L21.7 8l-3.3 1.1q-2.5.35-4.4-.55l1 .75 1.45 1.35 2.45 1.3.1.3q.45 1.35 1.4 2.65l.15.15-.15 3.35-1 2.5-.1-.25q-2.45-5-7.75-2.95l-.1-1.4-2.55-5.4 1.65-2.7-2.05 1-1.05-.25-1.2-1.1q3.5 0 6.35-3.65l3.8 2.3q2.95.6 5.15-.7" fill="#d2a2eb"/><path d="M25.2 6.45 24.95 9q-.05 3.75 1.05 4.75l2.2 2.65 5.45 2.8 6 5.85-2.2 2.95L25.1 15.7l-2.2-4.9-2.95.85L19.2 10l3.35-1 2.65-2.55M9.9 43.3l1.7 5.7q-1.4-.75-2.5-2.1.6-.85-.25-4.55l.05.05-.05-.1 1.05 1M5.35 7.5q.35 1.15 1.5 1.45h-1.6q-3.6-1.5-4.6-4.8 2.85 3.6 4.7 3.35" fill="#4b3d92"/><path d="m18.4 9.1.05.7q-2.2.15-3.45-.5l-1-.75q1.9.9 4.4.55m-9.5 1.8-.65-1.2.95-.35-.7-.15 2.05-1-1.65 2.7" fill="#806192"/><path d="m18.45 9.8.05.15.4 2-2.45-1.3L15 9.3q1.25.65 3.45.5" fill="#a380b5"/><path d="m25.3 5.35.25-2.8.65.4-.5 6.35q0 5 3.15 6.8l5.8 3.05 5.8 4.85-.8 1.05-6-5.85-5.45-2.8-2.2-2.65q-1.1-1-1.05-4.75l.25-2.55.1-1.1" fill="#b4fcf4"/><path d="m5.8 38.85-.1-3.6 3.15 7.05v.05l-3.05-3.5" fill="#a552e1"/><path d="M9.1 46.9Q7 44.35 5.9 39.75l-.1-.9 3.05 3.5q.85 3.7.25 4.55" fill="#773d92"/></g><g id="l" fill-rule="evenodd"><path d="m38.2 36.3 1.1-3.1q4.8 10.5 10.1 17.95-1.5 2.3 1.4 9.15l.05.25-.45 1.3 3.45 4.45q.9 9.45.5 21.2l-.45 4.6q-3.45-5.7-6.8-14.3l.25-.2.35-2.7 4.9 10.55-.15-3.45.15-3.9V78q-.05-4.35-.7-11l-2.85-3.5.15.9.45 2.6-2.35 2.8-.2-1.25 1-1.3.55-.75q-.5-3.95-.3-5.55l.05-.3.05-.2-1.85-5.3.25-3.85q-3.65-5.45-6.75-11.8l1.4 3.7-.25 3.2-1.85-3.8-1.2-6.3" fill="#6e6482"/><path d="M34.65 53.95 32.7 42.7l1.25 1.75L39 47l6.55 12.05v1.4l2.55 6.8-1 1.3-.65-3.3q-6.15-7.7-11.8-11.3M52.45 82l.15 3.45-4.9-10.55v-.65L47.5 71l1.1-1.8L52.45 82" fill="#b4a7d2"/><path d="m39 47 3.35 1.7-1.1-2.3.25-3.2.35 1 4.3 7.05v3.9l.75 2.45v.05l.45 1.5 1.05 1.5-.05.3q-.2 1.6.3 5.55l-.55.75-2.55-6.8v-1.4L39 47m8.3 22.8 2.35-2.8-.45-2.6 1.9 2.6 1.5 11v.1l-.15 3.9-3.85-12.8-1.1 1.8-.2-1.2" fill="#85789b"/><path d="m25.95 15.6.75 4.05 7.75 8.65 2.6 11.75-3.65-12L26.8 21l-1.45-4.65-2-.75h2.6M49.2 64.4l-.15-.9L51.9 67q.65 6.65.7 11l-1.5-11-1.9-2.6m-7.7-21.2-1.4-3.7q3.1 6.35 6.75 11.8l-.25 3.85 1.85 5.3-.05.2-1.05-1.5-.45-1.5v-.05l-.75-2.45v-3.9l-4.3-7.05-.35-1" fill="#b4fcf4"/><path d="m47.1 77.8-.55.45-1.8-1.7L37.4 65.2l-4.2-12.1 1.45.85q5.65 3.6 11.8 11.3l.65 3.3.2 1.25.2 1.2.2 3.25v.65l-.35 2.7-.25.2m-.75-5.9-.75-6.4q-5.75-7.3-10.45-9.35l1.15 2.35 3.05 6.15 7.45 11.1-.45-3.85" fill="#b9660c"/><path d="m36.3 58.5-1.15-2.35q4.7 2.05 10.45 9.35l.75 6.4-2.4-5.15-7.65-8.25" fill="#eb820d"/><path d="m36.3 58.5 7.65 8.25 2.4 5.15.45 3.85-7.45-11.1-3.05-6.15" fill="#ffd58d"/><path d="m32.7 42.7-5.75-8.05-3.25-3.6-9.85-6.55-6.15-6.2L0 7.45l13.7 11.3L8.75 0l5.1 5.2 5.3 7.2 2.3 1.85 4.75-.45 2 2.1-.25-.25L29 19.6l7.7 8.8.3 1q.75 2.65 1.15 6.65l.05.25 1.2 6.3 1.85 3.8 1.1 2.3L39 47l-5.05-2.55-1.25-1.75M15.35 24.45 25.7 31.9l6.85 8.3-2.1-10.05-2.8-6.1-7.8-7.8-3.7-5.9-5.95-7.7 1.1 3.95 4.3 15.85-5.35-3.7-7.5-8.6 5.2 7.8 5.5 5.1 1.9 1.4m-4.1-5.55 3.2 2.1-.55-1.45-6.8-5.15 4.15 4.5m14.7-3.3h-2.6l2 .75L26.8 21l6.6 7.05 3.65 12-2.6-11.75-7.75-8.65-.75-4.05" fill="#322866"/><path d="m11.3 6.6 3.2 5.75q3.3 7.4 3.65 12.2l-2.8-.1-1.9-1.4-5.5-5.1-5.2-7.8 7.5 8.6 5.35 3.7L11.3 6.6" fill="#866dff"/><path d="M11.25 18.9 7.1 14.4l6.8 5.15.55 1.45-3.2-2.1" fill="#4b3d92"/><path d="m11.3 6.6-1.1-3.95 5.95 7.7 3.7 5.9 7.8 7.8 2.8 6.1 2.1 10.05-6.85-8.3-10.35-7.45 2.8.1q-.35-4.8-3.65-12.2L11.3 6.6" fill="#5e52e1"/></g><g id="m" fill-rule="evenodd"><path d="m12.15 15.35 5.2.75 10.5 4.6-1.95 6.8-7.85-3.2q-7.25-.65-6.9-5.7l1-3.25" fill="#f8ecff"/><path d="m.25 13.6 11.9 1.75-1 3.25q-.35 5.05 6.9 5.7l7.85 3.2-.85 3.05-4.9-4.15q-1.7-1.1-4.55-1.8l-.75-.6-3.6-.7-9.45 2.85L.25 13.6" fill="#d2a2eb"/><path d="M12.15 15.35.25 13.6 0 11.4l15.25 2.1 13.15 5.25-.55 1.95-10.5-4.6-5.2-.75m3.45 9.25q2.85.7 4.55 1.8l4.9 4.15-.6 2.05-4.7-4.2q-2.45-2.6-8.5-2.8L2 27.8l-.1-.85 9.45-3.05 4.25.7" fill="#806192"/><path d="m1.8 26.15 9.45-2.85 3.6.7.75.6-4.25-.7-9.45 3.05-.1-.8" fill="#b4fcf4"/><path d="m22.9 38.5.55-1.2 3.9 1.1L39 43.5v.15l-.2 2.4q-7.95-3.8-15.9-7.55m4.8-28.35.55-2.05q7.9 8.2 16.1 20.3l1.55 3.25-.2 1.55-2.15-3.25-2.1-3.15q-6.2-9.15-13.75-16.65" fill="#322866"/><path d="M65.15 48.3q.55 3.9 0 5.1l.65 1.1-.85 1.15-2.3-3.65 1.8 1.1v-2.2l-.4-1.5-2.6-2.15V46.1l-.25-1.35.85.5 2.05 1.3 1.05 1.75M26.6 9.85q0-.5.15-.85l-1-1.2-4.55-4.4.15 1 .75 5.55.25 2.05q.4 6.75-3.9 7.3 4.25 4.1 3.9 8.2-.05 4.1-1.15 6.55-.6 1.3-1.55 2.15l2.75.8 2.05-3 2.5-.95.6-.15.1-.05 3.1-.25q-5.55-7.15-4.8-12.1.4-1.1.7-1.15l1.05-.65q.75-.6 2.85.8l-.9-1.35-1.4-2.15q-1.75-4-1.65-6.15M22.9 38.5l-4.95-2.3q2.55-1.85 3.6-7.3-1.6-7-4.2-10.1 5.6-1.75 2.5-11.8l-1.2-7 6.9 5.4 2.7 2.7-.55 2.05-.55-.65.05 1.3q.4 3.3 4.15 8.65l1.3 1.75q-3.15-1.95-5-1l-.7.5q-.55 6.1 5.2 12.6-2.6-.6-5.05.5l-2.95 1.9-.7 1.6-.55 1.2m23-6.85.65-7.75q9.8 8.35 13.75 18l-3.25-2.7-1.3-2.45q-2.55-4.15-8.4-10.15v9.2l-1.4 6.7-5.7-.4 1.7 9.2v6.3l-.8-1.2v-2.9q-1-1.45-2-7.3l-.35-.15.2-2.4v-.15l.2-2.2.05-.7 4.75.45.75.05.55-4.25.4-3.65.2-1.55m1.15 26.85q.25-1.1 3.8-2.2 3.35 1.75 4.05 3.5l-1.05 1.6-3.1-3-3.45 1.1-.25-1" fill="#b9660c"/><path d="M27.1 33.8q2.45-1.1 5.05-.5-5.75-6.5-5.2-12.6l.7-.5 11 11.3L44 41.05l-4.75-.45-.05.7q-6.25-2.45-12.1-7.5" fill="#866dff"/><path d="m23.45 37.3.7-1.6 2.95-1.9q5.85 5.05 12.1 7.5l-.2 2.2-11.65-5.1-3.9-1.1m4.2-17.1q1.85-.95 5 1l-1.3-1.75 5.9 5.55q5.5 6.1 8.05 11.85l-.55 4.25-.75-.05-5.35-9.55-11-11.3" fill="#5e52e1"/><path d="M64.45 50.9v2.2l-1.8-1.1 2.3 3.65-.45.5-5.2-2.3-.35-.35-2.55 4-2.05-1.7q-2.65-1.3-5-.6l-4.1 3.3q-1.4-.2-3.3-.9v-6.3l-1.7-9.2 5.7.4 1.4-6.7v-7.6l5 8-.6 5 .35 4.2.05 1.05q.1 1.35.5 2.45 2 1.65 3.9 2.25l.1.05 2.7 1.3q1.2.5 2.1-1.3l1-1.5 2 1.2m-34.8-32.75.9 1.35q-2.1-1.4-2.85-.8l-1.05.65q-.3.05-.7 1.15-.75 4.95 4.8 12.1l-3.1.25h-.1l-2.9-.05-3.45 1.25q1.1-2.45 1.15-6.55.35-4.1-3.9-8.2 4.3-.55 3.9-7.3l-.25-2.05 7.55 8.2" fill="#ffd58d"/><path d="m61.45 47.25 2.6 2.15.4 1.5-2-1.2-1 1.5q-.9 1.8-2.1 1.3l-2.7-1.3 3.7.2q1-.75 1.1-4.15M21.35 4.4l5.25 5.45Q26.5 12 28.25 16l1.4 2.15-7.55-8.2-.75-5.55m6.2 28.5-.6.15-2.5.95-2.05 3-2.75-.8q.95-.85 1.55-2.15l3.45-1.25 2.9.05v.05m19.8-4.7v-.9l8.4 9.45 1.3 2.45q-2-1.45-3.5-1.9-1.5 4.7-1.45 8.1l-.35-4.2.6-5-5-8m-2.1 30.3 4.1-3.3q2.35-.7 5 .6l2.05 1.7-1.5 2.3q-.7-1.75-4.05-3.5-3.55 1.1-3.8 2.2h-1.8m14.05-4.65 5.2 2.3-1.25 1.65-3.95-3.95" fill="#eb820d"/><path d="m21.35 4.4-.15-1 4.55 4.4 1 1.2q-.15.35-.15.85L21.35 4.4m5.85 6.4-.05-1.3.55.65q7.55 7.5 13.75 16.65l2.1 3.15q-8.6-11.2-16.35-19.15m28.55 25.95-8.4-9.45v-.7q5.85 6 8.4 10.15" fill="#b4fcf4"/><path d="M31.35 19.45Q27.6 14.1 27.2 10.8q7.75 7.95 16.35 19.15l2.15 3.25-.4 3.65Q42.75 31.1 37.25 25l-5.9-5.55" fill="#4b3d92"/><path d="m53.45 48.6 5.8-3.9.95 5.3-.35.5q-2.85.7-6.4-1.9" fill="#1683bc"/><path d="m53.45 41.9 1.1-1.3 4.1 3.5-5.2 3.7q-.15-3.4 0-5.9m7.1 6.85-1-5.55.7.8q.55 2.95.3 4.75" fill="#26f8f7"/><path d="m71.15 55.45-2.6-4.65-3.4-2.5q3.25.25 4.3 2.3 1.9 3.15 2.1 5.3l-.4-.45m-6.05 1.6q1.1-3 2.65-4.15 3.45 3.35 7.3 10.2.85 10.15-1.8 14.2l-1-3.55-.4-6.55q-2.45-6.95-6.75-10.15M53.45 41.9l.5-4q2.5 1.65 5.6 5.3l1 5.55L60.2 50l-.95-5.3-5.8 3.9v-.8l5.2-3.7-4.1-3.5-1.1 1.3m-9.2 34.7q-4.55-1.1-6.7-13l2-7.15 2.55 2.45-.5 8.8q.35 6.95 2.65 8.9m18.2 2.25q1.55-1.35.6-8.45-2.25-7.85-5.3-12.25l1.6-3.25q4.6 6.5 5.6 11 1.5 10.3-2.7 14.9l.15-1.15.05-.8" fill="#fff"/><path d="m61.2 44.75.25 1.35v1.15q-.1 3.4-1.1 4.15l-3.7-.2-.1-.05q-1.9-.6-3.9-2.25-.4-1.1-.5-2.45l-.05-1.05q-.05-3.4 1.45-8.1 1.5.45 3.5 1.9l3.25 2.7.45.6.45 2.25m-1.65-1.55q-3.1-3.65-5.6-5.3l-.5 4q-.15 2.5 0 5.9v.8q3.55 2.6 6.4 1.9l.35-.5.35-1.25q.25-1.8-.3-4.75l-.7-.8" fill="#105f88"/><path d="M65.8 54.5q1.15-2.7 1.95-2.6l3.4 3.55.4.45q-.2-2.15-2.1-5.3-1.05-2.05-4.3-2.3l-1.05-1.75-2.05-1.3 5.2 1.35 4.2 2.4q2.3 3.05 2.05 7.65l3.65 5.95q.85 5.25-.7 11.1-2.1 5.9-5 8.5 1.75-6-3.8-14.2.95 5.25-1.6 9.8-3.35 4.85-6.1 7.4 1.35-8.35-2-16l-3.3-4.1-.8-3.7 1.05-1.6 1.5-2.3 2.55-4 .35.35 3.95 3.95 1.25-1.65.45-.5.85-1.15m6.45 19.25 1 3.55q2.65-4.05 1.8-14.2-3.85-6.85-7.3-10.2-1.55 1.15-2.65 4.15l-.55 1.75-.1.3 2 4.15q3.95 5.3 5.8 10.5M41.15 56.4l.8 1.2q1.9.7 3.3.9h1.8l.25 1q.55 3-1.15 8.5-1.55 7.6 1.5 12-8.5-1.6-10.4-11.8-1.75-8.1 2.3-14.1l1.6 2.3m.95 2.5-2.55-2.45-2 7.15q2.15 11.9 6.7 13-1.15-1.95 0-8.2l1.35-8.65v-.05l-3.25-.6-.25-.2m15.65-.75-1.6 3.25 1.15 4q5.55 5.6 5.15 13.45l-.05.8-.15 1.15q4.2-4.6 2.7-14.9-1-4.5-5.6-11l-1.6 3.25" fill="#6e6482"/><path d="m65.15 48.3 3.4 2.5 2.6 4.65-3.4-3.55q-.8-.1-1.95 2.6l-.65-1.1q.55-1.2 0-5.1m-.05 8.75q4.3 3.2 6.75 10.15l.4 6.55q-1.85-5.2-5.8-10.5l-2-4.15.1-.3.55-1.75m-23 1.85.25.2 3.25.6v.05l-1.35 8.65q-1.15 6.25 0 8.2-2.3-1.95-2.65-8.9l.5-8.8m20.35 19.95q.4-7.85-5.15-13.45l-1.15-4 1.6-3.25q3.05 4.4 5.3 12.25.95 7.1-.6 8.45" fill="#b4a7d2"/></g><g id="n" fill-rule="evenodd"><path d="m45 82.85 4.4 2 1.1.5 1.15.55 1.4 1.75 1.85 2.45q-.5.7-.55 3.5v.5l.6 1.6.4.95.05.15-1.7 3.55-1.4 2.85-.25.5-2.15-2.25-.85-2.7-.2-1.6-6.2-12.05-.1-.45-.7-2.65-.05-.25-.1-.05-.5-.9 3.8 2.05m1.15 1.9-1.65-.8v1.15l5.05 8.2 1.25 4.55 1.55 3.3-.05.2.1-.2 1.85-4.4q-1.05-1.4-1.15-4.95l.8-1.75-2.3-2.75-5.45-2.55" fill="#b9660c" transform="translate(0 -57.7)"/><path d="m47 82.1-7.5-6.75q-6-8.55-11.8-13.8h-5.75l-.4.65-.05.05v.05l-.55 1.8-1.6 1.4-1.55 1.35 1.8-2.55.05-.05q1.15-3.25 2.85-5.3l1.9-1.25h2.4l-1.7 1.25q-.6.25-1.15.65l3.9.45q3.2 1.55 6.6 6.55l4.4 6 .35.35 1.75 1.7 1.5 1.5 1.15 1.15 3.85 3.8.95.9.3 1.2.05.3L47 82.1M2.75 67.75l.3 2.35q3 3.4 9.45 3.15l7.35.85q8.75.9 16.5 5.15l5.35 2.45.15.3.7 2.65Q38.8 82 33.05 80q-8.65-3.45-19.6-4.05l-1.55-.85-4.25-.6Q1.55 71.95 0 67v-9.3h1.75v4.8l1 5.25" fill="#322866" transform="translate(0 -57.7)"/><path d="m24.4 57.7-1.9 1.25q-1.7 2.05-2.85 5.3h-.05l.5-2.8q1.15-2.35 2.25-3.4l.6-.35h1.45" fill="#b2f6f1" transform="translate(0 -57.7)"/><path d="m47 82.1 1.75 1.4h.05l.6 1.35-4.4-2-6.25-6.25q-4.1-6.1-7.65-9.5-5.55-3.55-9.3-2.3-.6 3.85-2.9 4.35.7-1.05.45-3.65l1.6-1.4.55-1.8.05-.1 6.15.25q3.3 2.3 7 7.3l5.9 7.35 6.4 5M19.6 64.3l-1.8 2.55-3 4.45q-.55-3.15 1.9-9.25l3.25-4.35h3l-.6.35q-1.1 1.05-2.25 3.4l-.5 2.8v.05" fill="#4b3d92" transform="translate(0 -57.7)"/><path d="m21.55 62.2.4-.65h5.75q5.8 5.25 11.8 13.8L47 82.1l-6.4-5-5.9-7.35q-3.7-5-7-7.3l-6.15-.25" fill="#9acddc" transform="translate(0 -57.7)"/><path d="m48.7 83.2-.3-1.2-.95-.9-5.6-16.6 7.9 9.85 4.35 2.75q-.85 1.95 3.2 7.65l2.35 1.75 1.65 11.7-.55 12.9-2.45 11.35-3.05-8.85-2.95-10.4 1.4-2.85 4 14.55.6-3.95.1-.5v-.2l.45-4.15.2-2.95.25-4.6.05-.4-2.9-3.8-.35-.45-1.15 1.8-.6-1.6v-.5l1.15-.55.75-.35q.05-3.35.75-5.35l.4-.85.05-.05-2.35-2.05-.3-.55q-1.35-2.35-1.95-6.25l-.8-.4L49.8 76l-.15-.15-4.35-4.75 4 9.85 1.2 4.4-1.1-.5-.6-1.35-.1-.3m-5.1-5.9-1.15-1.15-1.85-4.7.35 3.2-1.75-1.7-.2-8.5q2.7 5.75 4.6 12.85m16.75 20.1L58.4 87.15q-.5.35-.8 6.3l2.75 3.95" fill="#6e6482" transform="translate(0 -57.7)"/><path d="m17.8 66.85 1.55-1.35q.25 2.6-.45 3.65 2.3-.5 2.9-4.35 3.75-1.25 9.3 2.3 3.55 3.4 7.65 9.5L45 82.85l-3.8-2.05.5.9-5.35-2.45Q28.6 75 19.85 74.1l-7.35-.85q-6.45.25-9.45-3.15l-.3-2.35q3.55.4 8-6.1L13 57.7h6.95l-3.25 4.35q-2.45 6.1-1.9 9.25l3-4.45" fill="#5e52e1" transform="translate(0 -57.7)"/><path d="m13 57.7-2.25 3.95q-4.45 6.5-8 6.1l-1-5.25v-4.8H13" fill="#866dff" transform="translate(0 -57.7)"/><path d="m52.05 77.2.8.4q.6 3.9 1.95 6.25l-1.95-3.15-.8-3.5M57 87.35q-.7 2-.75 5.35l-.75.35q-.3-1.05.3-3.35l1.2-2.35m-.55 7 2.9 3.8-.05.4-.25 4.6-.25-4.2-2.35-4.6" fill="#b4fcf4" transform="translate(0 -57.7)"/><path d="m54.8 83.85.3.55 2.35 2.05-.05.05-.4.85-1.2 2.35q-.6 2.3-.3 3.35l-1.15.55q.05-2.8.55-3.5l-1.85-2.45-3.4-11.8.15.15 2.25 1.2.8 3.5 1.95 3.15m.15 11.85 1.15-1.8.35.45 2.35 4.6.25 4.2-.2 2.95-.45 4.15v.2l-1.95-11-1.1-2.8-.4-.95m5.4 1.7-2.75-3.95q.3-5.95.8-6.3l1.95 10.25" fill="#b4a7d2" transform="translate(0 -57.7)"/><path d="m42.45 76.15-1.5-1.5-.35-3.2 1.85 4.7m15.95 34.3-.1.5-.6 3.95-4-14.55 1.7-3.55-.05-.15 1.1 2.8 1.95 11m-7.9-25.1-1.2-4.4-4-9.85 4.35 4.75 3.4 11.8-1.4-1.75-1.15-.55" fill="#fff" transform="translate(0 -57.7)"/><path d="m52.35 101.15-1.55-3.3-1.25-4.55-5.05-8.2v-1.15l1.65.8 5.5 4.75q-.5 2.25.65 6.05l.6 1.2-.55 4.4" fill="#ffd58d" transform="translate(0 -57.7)"/><path d="m52.35 101.15.55-4.4-.6-1.2q-1.15-3.8-.65-6.05l-5.5-4.75 5.45 2.55 2.3 2.75-.8 1.75q.1 3.55 1.15 4.95l-1.85 4.4h-.05" fill="#eb820d" transform="translate(0 -57.7)"/></g><g id="o" fill-rule="evenodd"><path d="M26.15 35.1H36.9l16.15-1.95v.05l2.75 18.5q-2.3 2.75-6.9 5.55l-8-3.05-13-4.15q-7.85-8.5-1.75-14.95M78.1 58.6l-5 2.25 4.4-9.75q9.6-11.5 25.5-25.4-5.4 8.65-10.8 15L81.7 52.1l-3.6 6.5m-10-28.3L84 25.8q4.7-1.65 9.45-4l-3.9 8.6-1.85 1.4q-10.45 8.45-14.85 15.7-4.2-1.95-4.75-8v-9.2" fill="#733d92"/><path d="m24.55 50.35-2.45-2.6.65.35.25.15q3.3 1.75 8.5 3.95 4.65.95 12.3 4.1l3.9 1.9.85.4 6.5 3.2 2.4 2.2.85.8h-7.6l-10.2-8.2-6.1-2-9.85-4.25m46.9 11.25-4.1 1.85 1.8-6.15q4.4-12.4 15.55-21.4l15.6-13-5.9 7.2Q83.25 40.3 76.45 50.2l-.35.4-4.65 11" fill="#cb6dff"/><path d="m23.7 50-6.3-4.3L6 32.2l12.6 2.9h7.55q-6.1 6.45 1.75 14.95l-.5-.15-9.25-5q1.15 1.25 3.95 2.85l2.45 2.6-.85-.35m25.05 14.8-7.95-6.9L30 54.3l-5.55-3.8.1-.15 9.85 4.25 6.1 2 10.2 8.2h-1.95m24.35-3.95-1.65.75 4.65-11 .35-.4q6.8-9.9 17.95-20.1l5.9-7.2 9.15-8.5-5.7 10.05-.75 1.25Q87.1 39.6 77.5 51.1l-4.4 9.75M93.45 21.8q8.75-4.3 17.6-11L98.3 23.5l-8.75 6.9 3.9-8.6" fill="#a152e1"/><path d="M26.15 35.1H18.6L6 32.2l11.4 13.5 6.3 4.3.75.5L30 54.3l10.8 3.6 7.95 6.9H46.1L41.4 60 37 57.7l-10.3-3.3-3.8-2.3-1.8-1.1Q8.85 40.6 4.1 30.2l15.6 3.1 10 .5 23.1-2.2.25 1.55L36.9 35.1H26.15M22.1 47.75q-2.8-1.6-3.95-2.85l9.25 5 .5.15 13 4.15 8 3.05-1.2.95-3.9-1.9q-7.65-3.15-12.3-4.1-5.2-2.2-8.5-3.95l-.25-.15-.65-.35m46-19.05q10.25-1.55 22.1-7.8 18.25-9.25 28.7-20.9-5.75 13.1-16.4 29.05l-2.15 3.2-3.55 5.05-16.9 20.5-.3.15-1.5.65 3.6-6.5 10.5-11.4q5.4-6.35 10.8-15l.75-1.25 5.7-10.05-9.15 8.5-15.6 13q-11.15 9-15.55 21.4l1.55-5.5.25-.55.45-1.1.7-1.35.4-.7.35-.6q4.4-7.25 14.85-15.7l1.85-1.4 8.75-6.9 12.75-12.7q-8.85 6.7-17.6 11-4.75 2.35-9.45 4l-15.9 4.5v-1.6" fill="#5c2e72"/><path d="m16.95 60.1 2.35-1.4 3.1-1.3-2.1 4-.5.65h-.3l-1.6.15-.95-2.1q-3-5.7-9.25-9.8l12.4 1.8h.5l2.7 2.6-6.35 5.4m6.15 2.45 3.6-5.45 3.15 1.9-2.4 5.2q-2.35-1.15-4.35-1.65m7 4.05 4.7-6.4-1.55 7.9-1.85.2-1.3-1.7M109 36.65v-.15h10.5v3.1h-.05l-.6.1-9.85-3.05m-1 7.45q-1.95 1.5-3.4 3.5-5.4 5.15-5.9 11.3h-.25L93.1 48.55l5.6 5.15q-1.35-3.9-4.35-6.15l5.05-6.85 8.6 3.4M95.4 59.2q-1.95.55-4 1.9l.1-7.6 3.9 5.7m14.55-31.5 1.7-1.1q7.25-4.75 14.45-11.8-3.75 5.8-6.6 18.3v1.2h-16l6.45-6.6" fill="#ffd58d"/><path d="m22.9 52.1 3.8 2.3L37 57.7l4.4 2.3 4.7 4.8h7.4L51.9 68l-10.4 2.9-3.9-2q-2.45-.85-4.35-.8l1.55-7.9-4.7 6.4-1.3-1.7-1.35-.7 2.4-5.2-3.15-1.9-3.6 5.45-3.3-.5.5-.65 4.6-6.1-5.6 3.4-2.35 1.4 6.35-5.4-2.7-2.6h2.3m63.5 13.65-6.8-7.8.3-.15 16.9-20.5 3.55-5.05 6.85-2.95 2.75-1.6-6.45 6.6h16v2.2H109l7.05-.7-1.55-.7q-7.7-.2-9.6.8l12 4.15q-5.25 1.1-8.9 4.05l-8.6-3.4-5.05 6.85Q92.8 46.4 90.8 45.7q.9 7.2 4.7 11.1l-3.9-9.6 1.5 1.35 5.35 10.35-3.05.3-3.9-5.7-.1 7.6-2.8 2.1-2.2 2.55" fill="#eb820d"/><path d="m21.1 51 1.8 1.1h-2.8L7.7 50.3q6.25 4.1 9.25 9.8l.95 2.1 1.6-.15h.3l3.3.5q2 .5 4.35 1.65l1.35.7 1.3 1.7 1.3 1.7 1.85-.2q1.9-.05 4.35.8l3.9 2L51.9 68l-.8 1.6-9.8 2.3q-4.15-3.2-8.6-2.2l-2.4-.95-.25-.35q-3.4-4.85-12.25-4.6Q11.7 52.55 0 46.6L21.1 51m-1.8 7.7 5.6-3.4-4.6 6.1 2.1-4-3.1 1.3m83.2-29.65q1.05.75 6-2.75Q122.25 15.9 132 7.5q-5.85 8.35-10.6 24.7-.8 7.55 0 9.7-9 .25-16.5 7.15l-.5.45q-2.6 2.6-4.6 11.5-7.55-2.05-11.95 6.35l-1.45-1.6 2.2-2.55 2.8-2.1q2.05-1.35 4-1.9l3.05-.3h.25q.5-6.15 5.9-11.3 1.45-2 3.4-3.5 3.65-2.95 8.9-4.05l-12-4.15q1.9-1 9.6-.8l1.55.7-7.05.7h-.4l.4.15 9.85 3.05.6-.1h.05v-6.5q2.85-12.5 6.6-18.3-7.2 7.05-14.45 11.8l-1.7 1.1-2.75 1.6-6.85 2.95 2.15-3.2m-9.4 19.5-1.5-1.35 3.9 9.6q-3.8-3.9-4.7-11.1 2 .7 3.55 1.85 3 2.25 4.35 6.15l-5.6-5.15" fill="#b9660c"/><path d="m53.05 33.15-.25-1.55 1.05-.1 2.45 17.2.3 2.3-.5 1.1-1.2 1.8-.9 1.05-1.1.65-4.35 3-.85-.4 1.2-.95q4.6-2.8 6.9-5.55l-2.75-18.5v-.05" fill="#806192"/><path d="m67.35 63.45-1.95.85-3.3-6.6-.85-7.4h.05q4.55-.85 9.65.95l-.25.55-1.55 5.5-1.8 6.15M54 54.95l.9-1.05 3.3-2.7 2-.65-2.6 8.65-3.6-4.25" fill="#f8ecff"/><path d="m65.4 64.3-1.1.5h-4l-2.7-1.7-.15.9-2.4-2.2-6.5-3.2 4.35-3 1.1-.65 3.6 4.25 2.6-8.65-2 .65-3.3 2.7 1.2-1.8.5-1.1-.3-2.3q4.15.35 9.8-3.5 1.25 3 5.3 4.95l-.45 1.1q-5.1-1.8-9.65-.95h-.05l.85 7.4 3.3 6.6" fill="#d2a2eb"/><path d="m53.85 31.5 7.85-.8 4.7-1.45V39.9q1.45 8 5.7 8.9l-.7 1.35q-4.05-1.95-5.3-4.95-5.65 3.85-9.8 3.5l-2.45-17.2" fill="#a380b5"/><path d="m67.1 29 1-.3v10.8q.55 6.05 4.75 8l-.35.6q-5-.65-5.4-10.8V29" fill="#816293"/><path d="m66.4 29.25.7-.25v8.3q.4 10.15 5.4 10.8l-.4.7q-4.25-.9-5.7-8.9V29.25" fill="#b4fcf4"/><path d="m48.95 53.4-.1.45-.05.1q.25 2.45.9 4.15 1.05 2.65 3.05 3.15-.2-1.25-.15-2.65l.05-.55q.15-3.15 1.25-7 .05-.25.25-.35.15-.15.4-.15.2 0 .4.15l.2.4q.55 2.95 1.7 4.65l2.9-5.9q.05-.2.25-.3l.45-.1.35.2.15.4.1 1.05-.05.3.15.35.8 8.3q1.3.65 2.2 0 1.15-.9 1.75-3.75h-.05q.4-2.5-.9-3.45l-.3-.4q-.05-.3.15-.5l.2-.2q0-.2.15-.3.2-.2.45-.2 6.7-.05 11.95 1.85h-.05q12.6 3.95 13.8 22l.05.7v.05q-.25 3-.95 5.25-.65 2.1-1.65 3.5l-.05.5-.4.35-.5-.05-.3-.4-.1-.3-.05-.1v-.15q.35-6-2.15-8.6l-.7-.6-1.05-.65Q78 72.75 73.3 73.55q-4.35.7-8.1 3.6l-.5.1-.4-.25-.15-.5.55-3.65q-1.75-.55-3.4.95l-.25.15-.2.25-1.4 1.85-.3.25-.35.05-.35-.2-1.05-.95-.2-.15q-1.1-.9-1.9-1.05-.5-.05-.9.3-.35.25-.6.85l-.25.3-.05.05-.45.05-.35-.25q-.9-1.25-1.7-1.45h-.25q-1 .15-2 1.75-.4 2.1-.45 4.05-.2 4.9 1.9 8.55l.05.4-.15.35-.35.2-.4-.05-1.7-.85q-6.75-4.1-8.1-13.55v-.15q.75-8.45 4.3-15.2 1.55-3.1 3.7-5.85v-.05l.2-.3q.15-.2.45-.25l.45.05.3.45m-1.3 2.15v-.05q-2 2.75-3.4 5.85-2.75 5.95-3.4 13.2.45 2.95 1.45 5.35 1.75 4.25 5.3 6.7l.5.35q-1.75-4.45-.85-10.4l.2-1.25.1-.2q1.5-2.5 3.05-2.55l.4-.05q1 .05 1.95 1.05l.15.2q.55-.8 1.3-1l1.1-.05q.75.1 1.7.7l.2.15 1.4 1.15.3-.4.85-1q.1-.15.3-.15l.2-.3q1.6-1.5 3.25-1.5h.15l1.85.45.15.15.15.15.05.4-.35 2.7.8-.5q3.45-2.1 7.35-2.55 4.55-.55 9.75 1.15l.3.1h.1q4.4 1.95 4.7 8.7l.85-2.8.5-3.55-.25-3.15q-1.3-10.1-6.75-14.9l-.55-.5-.6-.45q-2.1-1.55-4.8-2.4v-.05q-4.7-1.7-10.6-1.75.95 1.25.75 3.45l-.1.5v.05q-.75 3.45-2.2 4.55-.75.6-1.6.6-1.1.05-2.35-.75l-.25-.2-.1-.3-.55-5.85-.15-1.95-.05-.25-2.4 4.95-.1.1-.25.2h-.45l-.35-.3-.15-.25q-1-1.2-1.7-3.2l-.1.5q-.65 3.4-.4 6.1l.15 1.4-.05.35-.25.3-.35.1q-2.5.05-4-2.05-1.3-1.75-1.85-5.05m-3 7.6 1.2-2.75.1-.15.2-.05.15.1.1.15q1.1 4.15 4.1 5.35 3.15-.7 4.3-2.55V58.6l.05-.15.1-.1H55l.2-.05.15.1 1.1 1.25 1-1.6q.05-.1.2-.15l.2.05.05-.05.05-.05.2-.05.2.1.05.25q-.25 4.35 1.55 5.75l.1.1.5.3.1.05.15.05 1.4.1 1.25-.2-.05.05h.05q3.75-1.35 5.65-3.3 1.7-1.85 1.8-4.25v-.3l.05-.15q.05-.1.15-.1l.15-.05q6.75.8 10.2 7.1l.8 1.7 1.45 4.55-.05.2-.15.15-.25-.05q-.75-.45-1.6-.7-3.8-1.1-10.65.95l-3.4 1.2h-.15l-.15-.1-.6-.6q-3-2.85-5.85-.75l-.2.05-.05.1-.75.65-.75.85-.75 1-.15.1H58l-.15-.15-.45-.65-.2-.25q-.7-.75-1.6-.9l-1.2.05q-.95.15-2.05.75l-.2.1-.2.05-.4-.05-.55-.05q-2.7-.1-4.75 1.9-.85.8-1.6 1.95l-.1.15h-.25l-.15-.15-.1-.2-.55-1.75q-1.05-4.4 1.15-10.25m12.1-2.9-.1.15h-.2l-.15-.1-.9-.9v3.9l-.05.15-.4.6-.2.25q-1.35 1.5-4.15 2.1h-.2q-3.1-1.15-4.35-5-2.6 5.75-2.2 10.15.1 1.6.65 3.05l.55-.8.95-1q2.2-2 5-1.9l.55.05h.05l.4.05.15-.1q1.2-.65 2.25-.85h1.3q.8.15 1.5.7l.2.15.5.55.25.3.9-1.15 1.2-1.05.15-.1.1-.1q3.2-2.4 6.55.75l.55.55q2.3-.85 4.3-1.4 5.85-1.65 9.4-.8l1.65.55-1.35-4-1.2-2.25q-3.2-5.05-8.9-5.9v.5q-.3 2.45-2.2 4.35-1.95 1.9-5.7 3.2l-2.15.2-.8-.15-.2-.1h-.15l-.1-.05-1.3-1.05q-.65-.85-.9-2.2-.3-1.25-.2-2.9l-1 1.55-.05.05" fill="#b9660c"/><path d="m56.8 60.2 1-1.55q-.1 1.65.2 2.9.25 1.35.9 2.2l.7 1.75 2.8.7q3.15-.9 4.6-2.1l3.3-2.4 2.15-3.45.25.25 7.7 4.25L81.6 65l1.35 4-1.65-.55q-3.55-.85-9.4.8-2 .55-4.3 1.4l-.55-.55q-3.35-3.15-6.55-.75l-.1.1-.15.1-1.2 1.05-.9 1.15-.25-.3-1.1-11.2v-.05" fill="url(#J)"/><path d="m54.75 64.3.2-.25.4-.6.05-.15v-3.9l.9.9.15.1h.2l.1-.15h.05l1.1 11.2-.5-.55-.2-.15q-.7-.55-1.5-.7h-1.3q-1.05.2-2.25.85L52 71l-.4-.05h-.05L51 70.9q-2.8-.1-5 1.9l-.95 1q-.95-4.3.95-9.3l3.1 2.3h3.6l2.05-2.5m4.15-.55 1.3 1.05.1.05h.15l.2.1.8.15 2.15-.2q3.75-1.3 5.7-3.2 1.9-1.9 2.2-4.35v-.5q5.7.85 8.9 5.9l-7.7-4.25-.25-.25-2.15 3.45-3.3 2.4q-1.45 1.2-4.6 2.1l-2.8-.7-.7-1.75" fill="#26f8f7"/><path d="m46.3 59.5 1.35-3.95q.55 3.3 1.85 5.05l-.3 3.8q-1.45-.95-2.9-4.9m13.8-4.9.55 5.85.1.3.25.2q1.25.8 2.35.75l.55 1.5-1.7 1.3-1.4-.1-.15-.05-.1-.05-.5-.3-.1-.1q-1.4-1.15-1.05-6.5l1.2-2.8m21.8 2.15.6.45.55.5q4.45 6.5 6.75 14.9l.25 3.15-.5 3.55q-1.9-7.1-4.45-9.5L83.4 65l-.6-1.6-6.2-7.2 5.3.55m-8.05 15.4q-3.9.45-7.35 2.55l1.8-2.8 1.2-.35L74.7 70l-.85 2.15m-10-.8h-.15q-1.65 0-3.25 1.5l-.2.3q-.2 0-.3.15l-.85 1v-2.8l.75-.85 4.45-.95-.45 1.65m-9.45 1.4q-.75.2-1.3 1l-.15-.2-.6-2.1q1.1-.6 2.05-.75v2.05m-7.15 3.8q-.9 5.95.85 10.4l-.5-.35q-4.05-3.7-3.05-11.1l.1-.15q.75-1.15 1.6-1.95l1 3.15" fill="#eb820d"/><path d="m44.25 61.35.4 1.8Q42.45 69 43.5 73.4q-.9.75-1.2 6.5-1-2.4-1.45-5.35.65-7.25 3.4-13.2m2.15-1.05-.1-.8q1.45 3.95 2.9 4.9l.3-3.8q1.5 2.1 4 2.05l.35-.1.25-.3.05-.35-.15-1.4.8 1.15v1.6q-1.15 1.85-4.3 2.55-3-1.2-4.1-5.35v-.15m8-5.9.1-.5q.7 2 1.7 3.2l.15.25.35.3h.45l.25-.2.1-.1 2.4-4.95.05.25-2 5.2-.05.05-.05.05-.2-.05q-.15.05-.2.15l-1 1.6-1.1-1.25-.15-.1-.2.05h-.05l-.55-3.95m8.95 7.3q.85 0 1.6-.6 1.45-1.1 2.2-4.55v-.05l.1-.5 1.85 5.05q-1.9 1.95-5.65 3.3v-.05l-1.25.2 1.7-1.3-.55-1.5m3.15-9.15q5.9.05 10.6 1.75v.05q2.7.85 4.8 2.4l-5.3-.55 6.2 7.2.6 1.6h-1.15l-.8-1.7Q78 57 71.25 56.2l-.15.05q-.1 0-.15.1l-.05.15v.3l-4.4-4.25M83.6 73.3q-5.2-1.7-9.75-1.15L74.7 70l-5.2 1.55L71 70.1q6.85-2.05 10.65-.95l1.95 4.15m-17.75-1.35-.15-.15-1.85-.45.45-1.65-4.45.95.75-.65.05-.1.2-.05q2.85-2.1 5.85.75l-.85 1.35M57.2 73.4q-.95-.6-1.7-.7l-1.1.05V70.7l1.2-.05q.9.15 1.6.9v1.85m-6.2-.9-.4.05q-1.55.05-3.05 2.55l-.1.2-.2 1.25-1-3.15q2.05-2 4.75-1.9v1" fill="#ffd58d"/><path d="M47.65 55.5v.05L46.3 59.5l.1.8h-.1l-.15-.1-.2.05-.1.15-1.2 2.75-.4-1.8q1.4-3.1 3.4-5.85m6.35 5q-.25-2.7.4-6.1l.55 3.95-.1.1-.05.15v3.05L54 60.5m5.95-7.85.15 1.95-1.2 2.8q-.35 5.35 1.05 6.5-1.8-1.4-1.55-5.75l-.05-.25-.2-.1-.2.05 2-5.2m7.3 3.35q.2-2.2-.75-3.45l4.4 4.25q-.1 2.4-1.8 4.25L67.25 56m22.3 23.3-.85 2.8q-.3-6.75-4.7-8.7h-.1l-.3-.1-1.95-4.15q.85.25 1.6.7l.25.05.15-.15.05-.2L82.25 65h1.15l1.7 4.8q2.55 2.4 4.45 9.5M66.5 74.7l-.8.5.35-2.7-.05-.4-.15-.15.85-1.35.6.6.15.1h.15l3.4-1.2-1.5 1.45-1.2.35-1.8 2.8m-7.4-.4-.3.4-1.4-1.15-.2-.15v-1.85l.2.25.45.65.15.15h.2l.15-.1.75-1v2.8m-6.15-.75q-.95-1-1.95-1.05v-1l.55.05.4.05.2-.05.2-.1.6 2.1M47.6 86.6q-3.55-2.45-5.3-6.7.3-5.75 1.2-6.5l.55 1.75.1.2.15.15h.25q-1 7.4 3.05 11.1" fill="#fff"/><path d="m45.05 73.8-.55.8q-.55-1.45-.65-3.05-.4-4.4 2.2-10.15 1.25 3.85 4.35 5h.2q2.8-.6 4.15-2.1l-2.05 2.5h-3.6L46 64.5q-1.9 5-.95 9.3" fill="#1683bc"/><path d="M83.05 57.7q5.45 4.8 6.75 14.9-2.3-8.4-6.75-14.9" fill="#b4fcf4"/></g><g id="p" fill-rule="evenodd"><path d="M49.35 4.05q-8.1 1.55-11.75 5.6l.2.5q.4 1.15.45 2.4v.15l-.05.65-.05.55q-.45 3.05-3.05 6.5l-.05.2-5.7 5.35-1.6 1.15-13.3 7.95q2-1.85 8.3-6l7.85-5.35 2.8-2.75.45-.4q3.4-3.4 3.45-9.6-2.1-4.85-5.25-4.9l1.6-.05q1.45.2 2.6 1.5l1.15 1.75q1.85-2.65 6.95-4.5l.4-.1 4.6-.6M41.6 13.5l7-2.1-5.45 2.75-1.55-.65m11.2 12.6.4-3.7 1-1.75 1.65-2.85q-1-.45-1.75-1.35-.9-1.1-1.5-2.85l.5-2.1q1.5-4.35 6.4-4.85-2.5-1.75-5.05-2.9-6.55-2.9-13.7-1.9-5.1 1.3-9 2.95-1.35.55-2.55 1.2l-1.55.8q1.45 1 1.8 2.5l.1.85-.2 1.7-.65 1.75q0 .75-2 2.8l-.2.15-.55.35q1.55 2.25.4 6.55l-1.5 2.5q1.65-3 1.6-5.7-.05-1.65-.75-3.15l-2.1 1.3q-2.2.55-3.55-1-2.7 4.6-5.3 11.45l-.25.65-1.45 4.05-.45 1.35v2.7l-1.3 2.1v-1.15q.05-9.75 5.8-19.6l3.75-5.4.45 3.05q1.95 1.15 4.5-1.75 2.45-2.15 1.65-5.2-1.15-1.5-3.75-.5Q26.4 5.1 34.2 2.2q9.5-4.1 19.3-.55 2.25 1 4.1 2.1 2.45 1.5 4.25 3.15 1.35 1.3 2.3 2.65-1.05-.5-2.3-.7-2.75-.45-6.65.7-3.05 4.4 2.9 8.05l-3.6 5.9v4.8q-1.9-1.2-4.95 1.05l.45-1.7 2.7-.75.1-.8M33.3 12.05l.25.4q1.6 2.8 0 6.7.6-6-3.15-9.7 1.6.45 2.85 2.5l.05.1" fill="#b9660c"/><path d="m54.2 20.65-.1-4.2q.75.9 1.75 1.35l-1.65 2.85m-1.1-9.15q-1.7-2.65-3.65-4.25-1.2-1.05-2.5-1.65l2.5-.7 3.85-.3-2.8-.7-1.05.15h-.1l-4.6.6-.3.05-.1.05-4.1.4q-3.25 1-4 2.35-1.15-1.3-2.6-1.5l-1.9-1.2q3.9-1.65 9-2.95 7.15-1 13.7 1.9Q57 4.9 59.5 6.65q-4.9.5-6.4 4.85M29.2 6q2.85.4 4.1 4.4v1.55h-.05Q32 9.9 30.4 9.45l-.15-.05-.8-.1q-.35-1.5-1.8-2.5L29.2 6m.35 4.15q2.55 2 2.7 6.45-2.3 6.6-5.65 8l.65-2.05.75-1.9q.7-2.95-.4-4.35l1.4-1.55.35-2.9.2-1.7m-3.1 10.1-3.4 7.05-10 6.25 1.45-4.05.25-.65q2.95-6.4 5.75-9.15 3 .05 3.1-1.3l2.1-1.3q.7 1.5.75 3.15" fill="#ffd58d"/><path d="M38.25 12.7v-.15q-.05-1.25-.45-2.4l-.2-.5q3.65-4.05 11.75-5.6h.1l1.05-.15 2.8.7-3.85.3-2.5.7q1.3.6 2.5 1.65 1.95 1.6 3.65 4.25l-.5 2.1q.6 1.75 1.5 2.85l.1 4.2-1 1.75-.4 3.7h-2.6q.15-3-1.25-6.15-1.9-3.95-5.8-5.8l5.45-2.75-7 2.1-3.35-.8m6.1-7.95q-5.1 1.85-6.95 4.5L36.25 7.5q.75-1.35 4-2.35l4.1-.4M33.65 6l-1.6.05q3.15.05 5.25 4.9-.05 6.2-3.45 9.6l-.45.4-2.8 2.75-7.85 5.35q-6.3 4.15-8.3 6l-.45.45-.4.55-1 1.55v-2.7l.45-1.35 10-6.25 3.4-7.05q.05 2.7-1.6 5.7l1.5-2.5q1.15-4.3-.4-6.55l.55-.35q1.3 3.15.75 6l-.65 2.05q3.35-1.4 5.65-8-.15-4.45-2.7-6.45l-.1-.85.8.1.15.05q3.75 3.7 3.15 9.7 1.6-3.9 0-6.7l-.25-.4V10.4q-1.25-4-4.1-4.4 1.2-.65 2.55-1.2l1.9 1.2" fill="#eb820d"/><path d="m38.25 12.7 3.35.8 1.55.65q3.9 1.85 5.8 5.8 1.4 3.15 1.25 6.15l-.2 1.55-.45 1.7-.1.2q-.75 1.95-2.25 3.9l-4 4.7-3.9 9.1-9.1 11.55-1.45 1.85-.5.55-.95 1-.95 1.05-.2-.65 11.6-16.25 5.05-9.3 2.05-2.5q4.1-5.25 3.45-11.9-.6-3-2.25-5.1-1.45-1.85-3.8-2.95-1.75-.9-4.05-1.25l.05-.65M7.4 47.35l3.9-8.8v1.15l1.3-2.1-5.2 14.75v-5" fill="#806192"/><path d="m38.15 13.9.05-.55q2.3.35 4.05 1.25 2.35 1.1 3.8 2.95 1.15 2.7 1.5 6.9-.45 5.9-3.05 8.95l-.4.45-1.55 1.95-4.95 9.45-8.2 11.95 7.15-13.15 6.9-10.6q2.3-2.8 2.05-11.65-1-5.5-7.35-7.9" fill="#a581b8"/><path d="M50.2 26.1h2.6l-.1.8-2.7.75.2-1.55M25.95 61.75l3.45-4.55 8.2-11.95 4.95-9.45 1.55-1.95.4-.45q2.6-3.05 3.05-8.95-.35-4.2-1.5-6.9 1.65 2.1 2.25 5.1.65 6.65-3.45 11.9l-2.05 2.5-5.05 9.3-11.6 16.25-.2-.85" fill="#b4fcf4"/><path d="m29.35 25.95 5.7-5.35.05-.2q2.6-3.45 3.05-6.5 6.35 2.4 7.35 7.9.25 8.85-2.05 11.65l-6.9 10.6L29.4 57.2l-3.45 4.55-.2-.85-.35-7.55L33.45 41l6.1-8.55q4.1-7.6-.35-13.3l-4.6 3.6-5.25 3.2" fill="#d2a2eb"/><path d="m14.45 35.05 13.3-7.95 1.6-1.15 5.25-3.2 4.6-3.6q4.45 5.7.35 13.3L33.45 41 25.4 53.35l-.05-.95q1.45-10 3.2-17.4l-5.15 4.25Q15.15 48 10.7 54.15l-3.3 5.2v-7l5.2-14.75 1-1.55.4-.55.45-.45" fill="#f8ecff"/><path d="M27.25 22.55q.55-2.85-.75-6l.2-.15q2-2.05 2-2.8l.65-1.75-.35 2.9-1.4 1.55q1.1 1.4.4 4.35l-.75 1.9m-12.5 6.3q2.6-6.85 5.3-11.45 1.35 1.55 3.55 1-.1 1.35-3.1 1.3-2.8 2.75-5.75 9.15" fill="#fff"/><path d="m25.4 53.35.35 7.55.2.85.2.85.2.65.95.4V62.2l.95-1-.55 2.9-1.2.55-1.65-3.15-1.05-8.05.1-1.3 2.1-13.3-4.95 5.3-6.9 7.35L7 62.25l-.55-4.15-.8-5.75v-11.6L4.2 46.1l-2.45 9v16.5l1 5.25.2 1.3H.9L0 76.1V55.85l.3-1.7Q3.2 38.3 5.75 35.5l.9 2.25.75 9.6v12l3.3-5.2q4.45-6.15 12.7-14.9L28.55 35q-1.75 7.4-3.2 17.4l.05.95m3.35 7.3 1.45-1.85-.2 5.6-4.9 3.65q-.6.25-1.15.65l-1.8 1.95h-.2l-.05.1-.35.55-.05.05v.05l-.55 1.8-3.15 2.75 1.8-2.55.05-.05 1.1-2.6q.8-1.55 1.75-2.7l5.8-3.85.45-3.55" fill="#322866"/><path d="m26.35 63.25.95-1.05v1.45l-.95-.4m.15 1.4-4.15 2.5-.55.6q-.85 1.05-1.7 2.8l-.5 2.8v.05l-1.8 2.55-1.45 2.2h-1.6q.25-2.8 1.95-7l6.55-8.85.55-8.85 1.05 8.05 1.65 3.15M4.2 46.1l1.45-5.35v11.6l.8 5.75-1.9-7.2-.35-4.8" fill="#4b3d92"/><path d="m2.75 76.85-1-5.25V55.1l2.45-9 .35 4.8 1.9 7.2.55 4.15 7.15-10.75 6.9-7.35-1.9 3.7q-.25 3.05-1.05 6.3-1.65 6.4-5.6 13.6l-1.75 3q-4.45 6.5-8 6.1" fill="#866dff"/><path d="m23.8 53.45-.55 8.85-6.55 8.85q-1.7 4.2-1.95 7H2.95l-.2-1.3q3.55.4 8-6.1l1.75-3q3.95-7.2 5.6-13.6.8-3.25 1.05-6.3l1.9-3.7 4.95-5.3-2.1 13.3-.15.85.05.45" fill="#5e52e1"/><path d="m28.25 61.2.5-.55-.45 3.55-5.8 3.85q-.95 1.15-1.75 2.7l-1.1 2.6h-.05l.5-2.8q.85-1.75 1.7-2.8l.55-.6 4.15-2.5 1.2-.55.55-2.9" fill="#b2f6f1"/></g><g id="q" fill-rule="evenodd"><path d="m78.45 117.75-.15-.2-.25-.5.9-.2v.55l-.05.2-.2.15h-.25"/><path d="m84.3 71.8.2.05q11.65 4.55 18.25 16.4l.95 1.75v.2l-.1.2-.15.1h-.2q-5.05-1.9-7.8 4.3l-.15.15-.15.05h-.2q-4.7-2.4-7.75-.05v-.05q-8.95 8.2-8.25 21.95l-.9.2q-2.55-5.35-8.4-13l-.05-.05q-2.4-1.95-3.85-1.65-1.4.3-1.95 2.9l-.15.2-.2.05-.25-.1-.1-.2v-.1l-.5-3.65-.35-1.25-.25-.7q-1.7-4.3-5.9-5.8l-4.25 8.2-.15.2h-.25l-.2-.15-.45-.75q-3.05-5.2-1.7-16.1l.05-.05q3.05-8.75 6.65-10.7h.25l.2.15 2.1 3.9 3.4 2.65 1-3.9.15-.2.25-.05q.1 0 .2.15l4.2 4.65 4.35-8.45.2-.15h.25l.15.15 3.45 6 8.2-7.35.15-.1m17.4 16.05q-6.35-10.95-17.3-15.3L76.1 80l-.2.1h-.2l-.15-.15-3.35-5.85-3.25 6.3-1.05 2-.15.2h-.2l-.2-.1-1.7-1.9L63.3 78l-1 3.75-.15.2-.2.05-.2-.05-3.85-3-.1-.1-1.95-3.7q-3.25 2.1-6.05 10.05-1.2 10.05 1.3 15.1l.45.75 4.1-7.95q.05-.1.2-.15h.2q2.9.95 4.75 3.05 1.75 2.1 2.5 5.3l.35 2.1q.7-1.55 1.95-1.75 1.75-.45 4.5 1.85l.05.05q5.4 7 8.05 12.15-.3-13.25 8.55-21.3 3.2-2.6 8.2-.2 2.8-6 7.7-4.65l-.95-1.7"/><path d="M101.7 87.85q-3.7-3.05-5.35-2.1-2.5 1.55-2 7.25l-1.25-2.25q-7.7-8.35-13.65-1-4.1 10.3-3 19.65-2.35-4.75-7.5-9.5-4.1-2.05-5.65 1.4-.75-3.2-2.5-5.3l-1.45-4q-3-3.05-5.5 0-3.25 5.35-2.75 8.3-2.5-5.05-1.3-15.1 2.8-7.95 6.05-10.05l1.95 3.7.1.1 3.85 3 .2.05.2-.05.15-.2 1-3.75 2.35 2.6.7 4.15 3.1 6.4-.5-10.75 3.25-6.3 3.35 5.85.15.15h.2l.2-.1 8.3-7.45q10.95 4.35 17.3 15.3" fill="#333647"/><path d="M63.3 101.3q1.55-3.45 5.65-1.4 5.15 4.75 7.5 9.5-1.1-9.35 3-19.65 5.95-7.35 13.65 1L94.35 93q-.5-5.7 2-7.25 1.65-.95 5.35 2.1l.95 1.7q-4.9-1.35-7.7 4.65-5-2.4-8.2.2-8.85 8.05-8.55 21.3-2.65-5.15-8.05-12.15l-.05-.05q-2.75-2.3-4.5-1.85-1.25.2-1.95 1.75l-.35-2.1m5.65-20.9.5 10.75-3.1-6.4-.7-4.15 1.7 1.9.2.1h.2l.15-.2 1.05-2M51.1 100.3q-.5-2.95 2.75-8.3 2.5-3.05 5.5 0l1.45 4q-1.85-2.1-4.75-3.05h-.2q-.15.05-.2.15l-4.1 7.95-.45-.75" fill="#0a151c"/><path d="M20.55 60.4h.2q1.65.7 3.15 1.65 4.55 2.9 7.45 8.4v.15l-.1.15-.15.05q-3.85-.3-4.3 3l-.05.15-.2.05-.15-.05-.85-.55-.65-.3-1.05-.2q-1.45-.05-2.8 1.25v.05q-3.55 4.7-4 11.9l-.05.15-.15.05h-.15l-.1-.15q-1.5-3.45-3.35-5.8l-.9-1.05-1.2-1.1-.8-.65-1.8 1.95-.15.05h-.15l-.1-.1-.05-.15-.1-1.55-.45-1.7q-.9-2.3-3.25-3.05l-2.35 4.6-.1.15H1.7l-.15-.05-.1-.1L0 72.9v-.1q.6-7.2 3.8-10.95l.15-.1.15.05.15.1 1.3 2.45.05.05 1.85 1.3.4-2.2.1-.15.15-.05.2.1 2.65 2.4 2.2-4.55.1-.1h.2l.15.1 2.1 3.55 4.55-4.35q.05-.1.15-.1l.15.05M16.9 83.15q.85-5.45 3.75-9.3h.05q1-1 2.05-1.3l.1-.05q1.3-.35 2.65.3.45.2.9.5.6-3.1 4.25-3v-.05q-2.8-5.1-7.05-7.8-1.45-.95-3.05-1.6L15.8 65.4l-.15.05h-.15l-.1-.1-2-3.45-2.15 4.4-.1.15H11l-.15-.05-2.55-2.35-.45 2.1-.05.15-.15.05-.2-.05-2.25-1.6-.05-.05-1.2-2.2Q1.1 66.1.5 72.75l1 3.2.3.9 2.15-4.25.1-.1.2-.05q1.9.5 2.95 1.9 1.25 1.55 1.4 4.2v.15l.15-.15 1.4-1.5.15-.1.15.05 1 .8.35.3q2.75 2.45 4.85 6.95l.15-1.45.1-.45"/><path d="m16.9 83.15-.1.45-.15 1.45q-2.1-4.5-4.85-6.95l-.2-.5-.5-1.15-1.25-3q-.3.6-.65 1.95-.45 1.8-.45 3.15H8.6q-.15-2.65-1.4-4.2l-.85-2.15q-.9-1.5-1.8-1.5-1.6 0-2 1.05-.2.4-.65 2.25l-.4 1.95-1-3.2q.6-6.65 3.45-10.3l1.2 2.2.05.05 2.25 1.6.2.05.15-.05.05-.15.45-2.1 2.55 2.35.15.05h.15l.1-.15 2.15-4.4 2 3.45.1.1h.15l.15-.05 4.75-4.55q1.6.65 3.05 1.6 4.25 2.7 7.05 7.8l-.95-.7q-.75-.55-1.6-.55-1.75 0-2.3 1.35-.3.65-.3 2.45-1.35-.65-2.65-.3l-.2-.05-2.15-.4q-.9 0-1.7.6l-.9.65q-.3.2-.9 1.9-.65 1.7-.6 4.1.05 2.4.5 3.85" fill="#333647"/><path d="M22.75 72.55q-1.05.3-2.05 1.3h-.05q-2.9 3.85-3.75 9.3-.45-1.45-.5-3.85-.05-2.4.6-4.1.6-1.7.9-1.9l.9-.65q.8-.6 1.7-.6l2.15.4.1.1M11.8 78.1l-.35-.3-1-.8-.15-.05-.15.1-1.4 1.5q0-1.35.45-3.15.35-1.35.65-1.95l1.25 3 .5 1.15.2.5m-4.6-3.75q-1.05-1.4-2.95-1.9l-.2.05-.1.1-2.15 4.25-.3-.9.4-1.95q.45-1.85.65-2.25.4-1.05 2-1.05.9 0 1.8 1.5l.85 2.15m23.45-4.1v.05q-3.65-.1-4.25 3-.45-.3-.9-.5 0-1.8.3-2.45.55-1.35 2.3-1.35.85 0 1.6.55l.95.7" fill="#0a151c"/><path d="m78 128.05.2-.1.2.1 3 2.3 2.85-4.8.1-.1.1-.05q2.25-.35 5.45.8h.05q4.7 2.05 8.15 5.75l.05.2-.05.2-.05.05-.2.05h-1.8q-1.55 1.25-1.7 3.05l-.05.25-.05.15-.1.1H94q-2.9-.35-5.15 1.7-2.45 7.4-.55 12.15v.2l-.15.15-.2.05-.15-.1q-3.45-3.9-8.35-6.7l.05.05q-.35-.15-.5.2-.3.55-.4 1.95l-.05.15-.15.1h-.2l-.15-.15-.95-1.5q-2.3-3.3-4.4-3.25l-1.1 5-.1.15-.15.05h-.15l-.15-.15-2.9-4.85-.05-.1q-.95-6.15 1.45-10.5l.15-.1.2-.05.15.15q2 2.65 3.85 3v-2.1l.1-.2q.05-.1.15-.1l.2.05 2.75 1.5.8-4.55.1-.15m-.85 5.45-.05-.05-2.6-1.4v1.9l-.05.15-.1.15h-.15q-2.1-.15-4.35-2.9-2.05 4-1.15 9.65l1.6 2.65.85 1.45 1-4.45.1-.15.15-.1q1.7-.25 3.5 1.5l1.4 1.65.8 1.15q.1-.85.35-1.3.45-.85 1.3-.45 4.2 2.4 7.35 5.6l.2.2-.1-.35q-.2-.8-.25-1.6l-.05-.65q-.25-3.8 1.45-8.75l.05-.1q2.35-2.15 5.35-1.9v-.25q.3-1.9 2.05-3.2l.15-.1h1.2l-.05-.05q-3.2-3.2-7.4-5.05-2.95-1.05-5-.75l-3 4.9-.1.15h-.15l-.15-.05-2.85-2.2-.25 1.2-.6 3.25-.1.2-.15.05h-.2"/><path d="M70.3 143.65 68.7 141q-.9-5.65 1.15-9.65 2.25 2.75 4.35 2.9h.15l.1-.15.05-.15v-1.9l2.6 1.4.05.05 2.8 3.85L78.2 130l.25-1.2 2.85 2.2.15.05h.15l.1-.15 3-4.9q2.05-.3 5 .75 4.2 1.85 7.4 5.05v.05l-2.5-1.25q-2.25-1.65-3.1.65.3 2.45 1 3.15l-1.7-1-3.7-1.15q-3.25 2.65-1.55 10.15l1.35 3.75.05.65q.05.8.25 1.6l-2.9-4.05q-2.9-4.15-4.8-3.9-1.85.35-2.2 3.1l-1.4-1.65-.9-1.5q-1.7-2.7-3.25-2.3-1.15 1.15-1.45 5.55" fill="#333647"/><path d="M77.15 133.5h.2l.15-.05.1-.2.6-3.25 1.75 7.35-2.8-3.85m19.95-1.65h-1.15l-.15.1q-1.75 1.3-2.05 3.2v.25q-3-.25-5.35 1.9l-.05.1q-1.7 4.95-1.45 8.75l-1.35-3.75q-1.7-7.5 1.55-10.15l3.7 1.15 1.7 1q-.7-.7-1-3.15.85-2.3 3.1-.65l2.5 1.25m-10 16.7q-3.15-3.2-7.35-5.6-.85-.4-1.3.45-.25.45-.35 1.3l-.8-1.15q.35-2.75 2.2-3.1 1.9-.25 4.8 3.9l2.9 4.05-.1.15m-11.2-6.65q-1.8-1.75-3.5-1.5l-.15.1-.1.15-1 4.45-.85-1.45q.3-4.4 1.45-5.55 1.55-.4 3.25 2.3l.9 1.5" fill="#0a151c"/><path d="m372 49.15.3-.1q6.2.35 11.5 4.75 4.45 2.6 8.3 7.25 2.95 3.55 5.55 8.25l.05.35-.2.25-.35.05-4.1-.95q-5 2.15-6.35 6.05l-.15.2-.25.1-.25-.05q-6.55-3.05-12.25 1.3-8.65 10.6-8.85 22.65l-.1.3-.2.15h-.3l-.2-.2-3-4.45q-4.95-6.75-11.25-12.3-3.65 2.75-3.8 4.35v.05l-.1.3-.3.15-.3-.1-.2-.25q-1.95-10.1-8.85-13.45-4.75 5.1-5.75 10.2l-.2.3-.3.05-.3-.15q-4.05-5.3-3-18l.05-.05q2.65-8.75 8.25-14.2l.25-.15.25.05.2.15q3.85 5.75 7.95 7.9l1.5-4.75q0-.2.15-.25.1-.1.3-.1.15 0 .25.15l5.45 5.1 4.6-9.1.15-.15.25-.1.25.05q2.25 1.25 4.55 6.3l10.8-7.9m19.45 12.6q-3.8-4.65-8.15-7.2l-.1-.05q-4.95-4.15-10.8-4.55l-11.1 8.15-.25.1-.3-.05-.15-.2q-2.05-4.65-4-6.15l-3.15 6.2-1.55 2.95-.2.2-.25.05-.25-.1-4.8-4.5-.55-.55-1.4 4.6-.15.2-.25.1-.25-.05q-4.4-2-8.45-7.95-5.1 5.25-7.65 13.35-.95 11.3 2.25 16.5l.25-.8.05-.05q1.45-4.5 5.7-9l.25-.15.25.05q7 3.15 9.3 12.7 1-1.6 3.9-3.75l.3-.1.25.1q5.4 4.7 9.8 10.25l4.1 5.75.25-2.7q1.4-10.1 8.8-19.1l.1-.1q5.95-4.55 12.75-1.6 1.6-4 6.85-6.2l.25-.05 3.25.75q-2.35-4-4.9-7.05"/><path d="m353.45 58 3.15-6.2q1.95 1.5 4 6.15l.15.2.3.05.25-.1 11.1-8.15q5.85.4 10.8 4.55l.1.05q4.35 2.55 8.15 7.2-10.55-1.35-7.15 8.8-4.6-5.8-12.95-2.2-7.6 4.05-7 19.25v7.5l-.25 2.7-4.1-5.75q-.2-4.25-3.75-10.05-5.7-4.3-9.5-1.5l-.75-4.9q-4.65-9.85-8.7-6.65-3.65 2.8-6.45 8.65l-.6 4.35-.05.05-.25.8q-3.2-5.2-2.25-16.5 2.55-8.1 7.65-13.35 4.05 5.95 8.45 7.95l.25.05.25-.1.15-.2 1.4-4.6.55.55 3.85 4.9 3.7 8.15-.5-11.65" fill="#333647"/><path d="M391.45 61.75q2.55 3.05 4.9 7.05l-3.25-.75-.25.05q-5.25 2.2-6.85 6.2-6.8-2.95-12.75 1.6l-.1.1q-7.4 9-8.8 19.1v-7.5q-.6-15.2 7-19.25 8.35-3.6 12.95 2.2-3.4-10.15 7.15-8.8M360 92.05q-4.4-5.55-9.8-10.25l-.25-.1-.3.1q-2.9 2.15-3.9 3.75-2.3-9.55-9.3-12.7l-.25-.05-.25.15q-4.25 4.5-5.7 9l.6-4.35q2.8-5.85 6.45-8.65 4.05-3.2 8.7 6.65l.75 4.9q3.8-2.8 9.5 1.5 3.55 5.8 3.75 10.05M346.4 56.6l4.8 4.5.25.1.25-.05.2-.2 1.55-2.95.5 11.65-3.7-8.15-3.85-4.9" fill="#0a151c"/><path d="m415.55 3.9.05.05q3.25 2.6 5.45 7.25l.25.45v.25l-.15.2-.25.05-2.3-.5q-1.55.3-2.4 3.15l-.1.2-.2.05-.2-.05q-3.55-2.2-6.45.65-3.15 7.2-3.65 12.8l-.1.2-.15.1h-.25l-.15-.15q-3.05-5.45-7.05-9.35-.45-.1-.85.25-.5.5-.85 1.7l-.15.2-.2.05-.2-.05-.15-.2q-1.5-7.1-4.35-7.15l-2.6 5.45-.2.2h-.25l-.2-.15q-1.05-1.95-1.7-7.5v-.1q1.65-7.4 4.5-10.45l.2-.15.25.05.15.2q1.3 3.6 3.4 4.3l.6-2.25.15-.2.25-.1.25.15 2.4 2.7 2.5-4.75.2-.15h.2l.2.1 2.3 3.35L408.6.1l.2-.1.25.05 6.5 3.85m-26.8 13.5 1.85-3.85.1-.15.2-.05q3.3-.35 5.05 6.55.3-.6.65-.9.7-.7 1.65-.35l.1.05q3.75 3.65 6.7 8.6.65-5.3 3.6-12l.05-.1q3.15-3.15 6.95-1 1.05-3.05 2.9-3.3h.15l1.45.35.15.05-.1-.25q-2.1-4.15-5.05-6.55L408.9.8l-4.95 4.75-.15.1h-.2l-.2-.15-2.2-3.2-1.95 3.65-.55 1-.15.2h-.2l-.2-.1-1.2-1.4-1.1-1.2-.6 2.2-.15.2-.25.05-.25-.15-.05-.2q-2.25-.65-3.7-4.2-2.5 3.05-3.95 9.7.55 4.45 1.3 6.45l.55-1.1"/><path d="m420.15 11.25-1.45-.35h-.15q-1.85.25-2.9 3.3-3.8-2.15-6.95 1l-.05.1q-2.95 6.7-3.6 12-2.95-4.95-6.7-8.6l-.1-.05q-.95-.35-1.65.35-.35.3-.65.9-1.75-6.9-5.05-6.55l-.2.05-.1.15-1.85 3.85.3-3.05q1.1-2.8 2.7-2.4 1.9.45 3.45 3.15l1.1 2.6q1.85-1.85 5 1.35l1.7 2.15q1.75-5.9 5.5-8.85 3.55-1.7 5.55 0 1.25-2.75 3.05-2.65l3.1 1.35-.05.2m-23.2-5.6 1.2 1.4.2.1h.2l.15-.2.55-1 .2 8.9-2.5-9.2" fill="#0a151c"/><path d="m388.75 17.4-.55 1.1q-.75-2-1.3-6.45 1.45-6.65 3.95-9.7 1.45 3.55 3.7 4.2l.05.2.25.15.25-.05.15-.2.6-2.2 1.1 1.2 2.5 9.2-.2-8.9 1.95-3.65 2.2 3.2.2.15h.2l.15-.1L408.9.8l6.25 3.7q2.95 2.4 5.05 6.55l-3.1-1.35q-1.8-.1-3.05 2.65-2-1.7-5.55 0-3.75 2.95-5.5 8.85l-1.7-2.15q-3.15-3.2-5-1.35l-1.1-2.6q-1.55-2.7-3.45-3.15-1.6-.4-2.7 2.4l-.3 3.05" fill="#333647"/></g><g id="r" fill-rule="evenodd"><path d="M21.05 49.45q.25 7.65 1.7 9.5 5 6.7 8.2 7.8l-7-.9-5.35-3.95 3.15 4.95q-3.3-1-9-6.4l-2.5-4.3q-2.7-.8-5.45-6.2-1.4-3.1-1.8-8.7l-1.55 4.5-1.4-7.6V38Q-.3 33.95 3 28.3q3.55-5.85 6.4-8.45l.2-4.7q.9-5.75 6.85-11.25l3.4-3.9-.3 5.15Q23 2.8 30 1.9q6.35.3 11.6 1.7 5.4.7 7.95-1.1-1.2 2.85-3.05 4.4 9.45 2.9 16.9 11.35l-1.45 1.25q-3.25-3.45-6.8-5.95-4.2-3-8.75-4.6l-.95-.35q-6.55-1.9-12.6-.45 4.45-2.1 10.8-.75l1.75-1.95L39.05 5l-2.85-.2q-9.35-1.05-13.8.95-5.55 2.75-7.1 6.35l-.05.05-.1.05q.1-1.6 1.9-4.75l.4-2.85-1.65 1.7-.25.3q-2.5 3.05-4.7 8.5l-.25 5 .65-.3L7 27.45q-1.5 4.4-2.35 10.25l.05.4Q4.45 44.35 6 48.25l1.1 2.45 2.75 3.75q-2.35-8.4-1.75-15.1l.05-.55.4-2.55q.45-2.3 1.3-4.4-2.7 12.7 2.5 24.4l2.2 3.7q1.35 2 2.6 3l-3-9.1-.2-.6q3.75 6.1 6 8.5l3.15 2.15q1.9 1 2.95.85-2.35-1.85-5.4-8.8l-.4-9.2 1.5-7.1q-3.2-4.3-7.4-11.15l-2.1-3.45q-.05-5.6 1.5-8.1 6.8.55 12.65 3.3l11.35 9 11.4 6.3 1.55.85.7.4 1.9 1.1.95.5 1 .55h-6l2.95 1.55.65.35 4.65 2.5.6.35 1.25.65 7.2 2.1-7 1.1h-1.5l-3.1-.1h-.5l-2.2-.05-.75-.05-5.45-.15-2.1-.05-10-1.5 1.8 2h-1.1l-2.75 2.6v-3.1q-1.5-.5-3.1-1.35-2.3-1.3-4.75-3.45l-.25-.2-.65-.6-.2-.3-.6-.75-.75 5.25.8.65 2.75 2.25q2.2 1.9 3.2 3.1l-4.45-2.3-1.35-.7-1.3-.7-.05.3-.15 1.1m-5.3-31.35-1.7-.45-.7 6.7 8.9 13.5 4.2 4.5 6.4 3.3-4.85-3.6-.25-.3 9.6 3.2 18.5 1.4h4.8l-8.2-4.5-17.1-8.7 15 4.7q-8-3.2-15.6-9.55l-1.5-.95-7.2-6.7-10.3-2.55m31.45 8.75-7.15-3.8h-7.1l9.7-1.7 3.4-1.4-2.5-.4-11.7-5.6-4.6-1q1.55-1.6 7.8 1.2l11.8 5.9-4.5 2.5h-1.8l3.1 1.6 5.6 2.9-.65.55q-2.05 1.4-6.25 1.15l5.4-1.6-.55-.3m-40.6.35q1.1-2.8 2.15-4.7l-5.65 8Q1 35.9 1.55 38.15l-.05.2v3.45l2.2-4.15 1.25-5.95 1.65-4.5m26.25 20.2v1.35l.95-1.15-.95-.2m-10.6.5 2.5 1.35-2.25-2.05-1-.95-.15 1.15.9.5" fill="#43627f"/><path d="m49.15 35.55-11.4-6.3-11.35-9q2.2 1 4.25 2.3l9.1-1.7 3.8-1.3 2.5.4-3.4 1.4-9.7 1.7h2.4l-2.4.4 5.6 2.5q4.1 1.6 8.65.9l.55.3-5.4 1.6q4.2.25 6.25-1.15l-1.45 1.35 5.2 1.5-3.2 5.1m-34.8-7.05q4.2 6.85 7.4 11.15l-1.5 7.1.4 9.2q3.05 6.95 5.4 8.8-1.05.15-2.95-.85-1.95-2.2-4.25-8.55-1.95-11.45-1-16.8l-3.5-10.05m-.2 25.35 3 9.1q-1.25-1-2.6-3l-1.8-9.9 1.2 3.2.2.6m-5.6-17.6-.4 2.55-.05.55q-.6 6.7 1.75 15.1L7.1 50.7l-.15-9.55 1.6-4.9m7-29.65.25-.3 1.65-1.7-.4 2.85q-1.8 3.15-1.9 4.75v.2l-.9 2.5v-3.6l1.3-4.7M39.05 5l6.35.45-1.75 1.95q-6.35-1.35-10.8.75l-3.9 1.2L39.05 5m7.35 3.95q4.55 1.6 8.75 4.6 3.55 2.5 6.8 5.95l-.6.45-1.75 1.85q-6.75-8.05-13.2-12.85m-18.65 32.8-5.5-6.2q11.5 8.85 24.1 8.5h9.4l-3.3-2.2 8.2 4.5h-4.8l-18.5-1.4-9.6-3.2m5.5-14.4-7.9-4.7-9.6-4.55 10.3 2.55 7.2 6.7m10.4-3.2-3.1-1.6h1.8l4.5-2.5q.4 1.65-3.2 4.1M6.6 27.2l-1.65 4.5-1.25 5.95-2.2 4.15v-3.45l.05-.2.95-3.4 4.1-7.55m15.9 20-.25.7-.9-.5.15-1.15 1 .95m34.25-22.45-1.35 1.6-5.45-6.9 6.8 5.3" fill="#5e88b1"/><path d="M26.4 20.25q-5.85-2.75-12.65-3.3-1.55 2.5-1.5 8.1l2.1 3.45 3.5 10.05q-.95 5.35 1 16.8 2.3 6.35 4.25 8.55l-3.15-2.15q-2.25-2.4-6-8.5l-1.2-3.2 1.8 9.9-2.2-3.7q-5.2-11.7-2.5-24.4-.85 2.1-1.3 4.4l-1.6 4.9.15 9.55L6 48.25q-1.55-3.9-1.3-10.15l-.05-.4Q5.5 31.85 7 27.45l4.25-7.65-.65.3.25-5q2.2-5.45 4.7-8.5l-1.3 4.7v3.6l.9-2.5.1-.25.05-.05q1.55-3.6 7.1-6.35 4.45-2 13.8-.95l2.85.2-10.1 4.35 3.9-1.2q6.05-1.45 12.6.45l.95.35q6.45 4.8 13.2 12.85-1.4 1.3-2.85 2.95l-6.8-5.3 5.45 6.9-3.05 4.1-5.2-1.5 1.45-1.35.65-.55-5.6-2.9q3.6-2.45 3.2-4.1l-11.8-5.9q-6.25-2.8-7.8-1.2l4.6 1 11.7 5.6-3.8 1.3-9.1 1.7q-2.05-1.3-4.25-2.3m1.6 21.8 4.85 3.6-6.4-3.3-4.2-4.5-8.9-13.5.7-6.7 1.7.45 9.6 4.55 7.9 4.7.1.1 1.4.85q7.6 6.35 15.6 9.55l-15-4.7 17.1 8.7 3.3 2.2h-9.4q-12.6.35-24.1-8.5l5.5 6.2-.3-.1.55.4m7.35-19h4.7l7.15 3.8q-4.55.7-8.65-.9l-5.6-2.5 2.4-.4m-33.8 15.1Q1 35.9 3.1 30.5l5.65-8Q7.7 24.4 6.6 27.2l-4.1 7.55-.95 3.4m20.7 9.75.25-.7 2.25 2.05-2.5-1.35" fill="#b9d4f8"/><path d="m22.55 48.75 1.35.7-.9 1.2-.45-1.9m2.6-.1L22.4 46.4l1.4-4.25.25.2q2.45 2.15 4.75 3.45-3.75 1.7-3.65 2.85m20.9-1.45 5.45.15q-.55 1.15.95 3.2l2.6-.05L54 51.55q-.8 1.75-3.3.75l-.3-2.4-.3 1.4-3.45 7.55-2.6 3.2q1.4-1.85 2.3-8.9l-.3-5.95m6.15-6.7-2.95-1.55h3.6l-.65 1.55m1.1-2.6-1.9-1.1 1.45-1.35 3.9-5.1-3.45 7.55M34.9 61.45q3.7-1.5 8.15-6.45l.3.85q-4.4 4.3-8.45 5.6m28-33.55 5.95-10.65q-2.2 1.9-4.5 4.35l1.55-2.35.9-.75 2.1-1.75 3.45-2.1-6.5 11.1-2.55 6.7-3.95 7.45q-.95-3.3 2.9-10.95l.3-.45.35-.6" fill="#d2a2eb"/><path d="m21.2 48.35.05-.3 1.3.7.45 1.9-.25.3-1.55-2.6m1.2-1.95-.8-.65.75-5.25.6.75.2.3.65.6-1.4 4.25m29.85 1 2.2.05-1.7 1.8-.5-1.85m2.7.05 3.1.1-3 2.95-2.6.05 2.5-3.1m2.55-4.1-4.65-2.5.8-1.9h1.6l-1-.55q.3-1.45 1-3.1l.9 3.85-.35-5.1 1.15-2.15q2.5.5 5.25-2.95h.05q-3.85 7.65-2.9 10.95l-1.85 3.45m6.2-21.1.65-.65q2.3-2.45 4.5-4.35L62.9 27.9q-2.45 2.6-5.8 3.7 2.4-4.2 6.6-9.35" fill="#a380b5"/><path d="m23.9 49.45 4.45 2.3q-1-1.2-3.2-3.1-.1-1.15 3.65-2.85 1.6.85 3.1 1.35v3.1l2.75-2.6h1.1l-1.8-2 10 1.5 2.1.05.3 5.95q-.9 7.05-2.3 8.9l-3.9 3.5-11.3-4.3q-2.8-6.45-6.1-10.3l.25-.3.9-1.2M51.4 36.8l-.7-.4q5.8-9.4 10.45-12.85l4.75-4.3-1.55 2.35-.65.65q-3.3 3.5-6.95 8.1l-3.9 5.1-1.45 1.35m-8.05 19.05-.3-.85q-4.45 4.95-8.15 6.45l6.65-1.7q2.8-2.3 1.8-3.9m-8.45 5.6-.35.1.35-.1m3.05.95q-.6.35.4.15.15-.05 1.2-.55l2.6-1.45q-3.5 1.4-4.2 1.85M63.3 32.45l2.55-6.7 6.5-11.1-3.45 2.1q5.45-4.5 10.05-7.2l-12 16-3.65 6.9" fill="#f8ecff"/><path d="m21.05 49.45.15-1.1 1.55 2.6q3.3 3.85 6.1 10.3l11.3 4.3 3.9-3.5 2.6-3.2 2.6-4.1.85-3.45.3-1.4.3 2.4q2.5 1 3.3-.75l1.05-1.05 3-2.95h.5l-5.4 6.7-2.55-1.05-.95 2.65q-4.45 6.75-9.6 11.1l-11.8-5.3-.5-2.2-6.7-10m30.45-2.1.75.05.5 1.85 1.7-1.8h.5l-2.5 3.1q-1.5-2.05-.95-3.2m6.6-3.65-.6-.35 1.85-3.45 3.95-7.45 3.65-6.9 12-16q-4.6 2.7-10.05 7.2l-2.1 1.75-.9.75-4.75 4.3Q56.5 27 50.7 36.4l-1.55-.85 3.2-5.1 3.05-4.1 1.35-1.6q1.45-1.65 2.85-2.95l1.75-1.85.6-.45 1.45-1.25Q72.75 9.5 81.75 6.3l4.35-1q-7.75 7.2-16 19.5l-2.75 2.55L58.1 43.7m-5.25-2.85-.65-.35.65-1.55h.8l-.8 1.9m1.4-2.45-.95-.5 3.45-7.55q3.65-4.6 6.95-8.1-4.2 5.15-6.6 9.35 3.35-1.1 5.8-3.7l-.35.6-.35.45q-2.75 3.45-5.25 2.95l-1.15 2.15.35 5.1-.9-3.85q-.7 1.65-1 3.1M34.9 61.45q4.05-1.3 8.45-5.6 1 1.6-1.8 3.9l-6.65 1.7m3.05.95q.7-.45 4.2-1.85L39.55 62q-1.05.5-1.2.55-1 .2-.4-.15m1.6-2.65 1.7-.5q1.7-1.75 1.1-1.9l-2.8 2.4" fill="#806192"/><path d="m39.55 59.75 2.8-2.4q.6.15-1.1 1.9l-1.7.5" fill="#b26b73"/><path d="m50.1 51.3-.85 3.45-2.6 4.1 3.45-7.55" fill="#b4fcf4"/><path d="m32.85 47.4.95.2-.95 1.15V47.4" fill="#b7d3f7"/><path d="M47.05 28.3q1.55 6.65 2.3 14.7.9 5.1-1.2 8.3-2.2 2.95-4.2 3.95-4.05 1.4-8.15.85l-2.25-.6-.65.2-.75 1.9q-1.75 2.05-3.55 2.5l-4.05-1.5q-7.05-4.45-10.6-10.3L13 46.45l8.5 4.05 9.45 2.55 6.3-9.1 9.8-15.65M32.7 54.9q5.6.5 11.05-.2l1.85-1.4q3.25-3.55 2.85-8.35l-1.6-11.65-.3-2.2q-3.35 7.2-7.85 12.55l-7 10.1h-3.05l-6.8-2.3-7-3.1.85.9 2.8 3.15q4.05 4.6 9.9 6.55.6.35 1.6-.55l.15-.15 2.55-3.35" fill="#3b4b68"/><path d="m39.65 44.3 3.8-3.85q2.25 1.35 3.1 5.3.75 5-3.2 7.1-4.2 1.5-7.05-.65l-.8.5q.5-2.35 2.65-6.6l.3-.6 1.2-1.2m1.65 7.5q2.05-.65 3.9-2.8.4-2.05.15-3.75l-.65-2.15-.85-1.4-4.75 4.35-2.35 5.35 2.1.6 2.1-.1.35-.1m-12.6 3.8.05-.8q-3.9-1.2-6.75-1.1l.95.75 1 .8 1.45 1.1 3-.05.3-.7m-1.8 2-1.5-.25q-3.5-1.9-4.05-4.3l1.9.15 5.9 1.15q.75 3.4-2.25 3.25" fill="#ac4d05"/><path d="m41.3 51.8-.35.1-2.1.1q1.6-5.85 5.85-8.9l.65 2.15Q42.05 47 41.3 51.8m-18.35 2.65q3.25.25 5.75 1.15l-.3.7q-1.35-.8-4.45-1.05l-1-.8" fill="#fff"/><path d="M45.35 45.25q.25 1.7-.15 3.75-1.85 2.15-3.9 2.8.75-4.8 4.05-6.55M28.4 56.3l-3 .05-1.45-1.1q3.1.25 4.45 1.05" fill="#ffdc09"/><path d="m38.85 52-2.1-.6 2.35-5.35 4.75-4.35.85 1.4q-4.25 3.05-5.85 8.9m-15.9 2.45L22 53.7q2.85-.1 6.75 1.1l-.05.8q-2.5-.9-5.75-1.15" fill="#d77d0d"/><path d="M38.15 46.1Q36 50.35 35.5 52.7l.8-.5q2.85 2.15 7.05.65 3.95-2.1 3.2-7.1-.85-3.95-3.1-5.3l-3.8 3.85 7.2-11 1.6 11.65q.4 4.8-2.85 8.35l-1.85 1.4q-5.45.7-11.05.2v-1.05l5.45-7.75m-14.9 7.1-1.9-.15q.55 2.4 4.05 4.3l1.5.25 1.25.8H30q-1 .9-1.6.55-5.85-1.95-9.9-6.55l-2.8-3.15 7.55 3.95" fill="#3d3664"/><path d="m39.65 44.3-1.2 1.2-.3.6-5.45 7.75v1.05l-2.55 3.35-.15.15h-1.85l-1.25-.8q3 .15 2.25-3.25l-5.9-1.15-7.55-3.95-.85-.9 7 3.1 6.8 2.3h3.05l7-10.1q4.5-5.35 7.85-12.55l.3 2.2-7.2 11" fill="#8e7bd2"/></g><radialGradient cx="0" cy="0" gradientTransform="matrix(.032 0 0 .032 57.5 67)" gradientUnits="userSpaceOnUse" id="J" r="819.2" spreadMethod="pad"><stop offset="0" stop-color="#1683bc"/><stop offset="1" stop-color="#21d5e6"/></radialGradient><path d="M27.75 0q0 2-8.15 3.4Q11.5 4.9 0 4.9q-11.5 0-19.65-1.5-8.1-1.4-8.1-3.4 0-2.05 8.1-3.5Q-11.5-4.9 0-4.9q11.5 0 19.6 1.4 8.15 1.45 8.15 3.5" fill-opacity=".349" fill-rule="evenodd" transform="translate(27.75 4.9)" id="b"/></defs></svg>