<svg xmlns:ffdec="https://www.free-decompiler.com/flash" xmlns:xlink="http://www.w3.org/1999/xlink" ffdec:objectType="frame" height="90" width="90" xmlns="http://www.w3.org/2000/svg"><use ffdec:characterId="63" height="233.35" transform="matrix(.3759 0 0 .3761 -1.86 .357)" width="245.3" xlink:href="#a"/><defs><g id="a" transform="translate(4.95 -.95)"><use ffdec:characterId="1" height="9.8" transform="matrix(1.9476 0 0 3.6693 58.654 198.22)" width="55.5" xlink:href="#b"/><use ffdec:characterId="18" height="161.2" transform="translate(-4.958 .964) scale(1.0779)" width="227.6" xlink:href="#c"/><use ffdec:characterId="33" height="68.3" transform="translate(35.45 85.377) scale(1.0779)" width="143.5" xlink:href="#d"/><use ffdec:characterId="35" height="58.3" transform="translate(58.15 65.35) scale(1.0779)" width="30.5" xlink:href="#e"/><use ffdec:characterId="37" height="77.4" transform="translate(77.05 38.55) scale(1.0779)" width="52.4" xlink:href="#f"/><use ffdec:characterId="46" height="58" transform="translate(49.28 167.55) scale(1.0779)" width="110.5" xlink:href="#g"/><use ffdec:characterId="48" height="79.85" transform="translate(37.75 107.35) scale(1.0779)" width="33.65" xlink:href="#h"/><use ffdec:characterId="50" height="60.8" transform="translate(121.95 60.5) scale(1.0779)" width="39.15" xlink:href="#i"/><use ffdec:characterId="52" height="102.45" transform="translate(136.196 94.596) scale(1.0779)" width="51.9" xlink:href="#j"/><use ffdec:characterId="54" height="55.7" transform="translate(85.7 144.75) scale(1.0779)" width="35.85" xlink:href="#k"/><use ffdec:characterId="60" height="63.15" transform="translate(77.8 42.15) scale(1.0779)" width="37.3" xlink:href="#l"/><use ffdec:characterId="62" height="48.3" transform="translate(74.35 93.5) scale(1.0779)" width="55.05" xlink:href="#m"/></g><g id="c" transform="translate(4.6 5.6)"><use ffdec:characterId="3" height="98.75" transform="matrix(-1 0 0 1 223 51.2)" width="99.25" xlink:href="#n"/><use ffdec:characterId="5" height="31.35" transform="matrix(-1 0 0 1 181.9 30.4)" width="22.8" xlink:href="#o"/><use ffdec:characterId="7" height="104.65" transform="matrix(-1 0 0 1 154 3.65)" width="44.6" xlink:href="#p"/><use ffdec:characterId="9" height="32.05" transform="matrix(-1 0 0 1 76.5 -.9)" width="11.7" xlink:href="#q"/><use ffdec:characterId="11" height="82.95" transform="matrix(-1 0 0 1 86.05 19.1)" width="42.2" xlink:href="#r"/><use ffdec:characterId="13" height="15.35" transform="matrix(-1 0 0 1 32.1 45.5)" width="9.6" xlink:href="#s"/><use ffdec:characterId="15" height="89.3" transform="matrix(-1 0 0 1 74.95 58.2)" width="74.95" xlink:href="#t"/><use ffdec:characterId="17" height="10.2" transform="matrix(-1 0 0 1 27.1 135.15)" width="10.3" xlink:href="#u"/></g><g id="af"><path d="m1.75.95 8.6 4.7 25 18.95-15.1-4.1 22.45 8.3 15.7 8.05L86.05 71.4l4.55 13.8-17.05-21.75 10.25 15.8-14.6-1.05q9.2 3.8 16 2.8l7.75 11.2 1.1 3.1q-31.4-15.35-40-22.55l-9.4-7.9-4.2-3.8-.55-.7 14.05 1.5 8.15 11.3-5.4-10.1 11.3 1.6-21.7-6.3 9.4-6.55-12 4.7-8.35-1.75L22.1 38.5 1.75.95" fill="url(#v)" fill-rule="evenodd" transform="translate(.9 .9)"/><path d="M1.75.95 22.1 38.5l13.25 16.25 4.55 5.6-.05.1Q31 52 21.5 39.8L0 0l1.75.95" fill="#ffe3b1" fill-opacity=".733" fill-rule="evenodd" transform="translate(.9 .9)"/><path d="m35.35 54.75 8.35 1.75 12-4.7-9.4 6.55 21.7 6.3-11.3-1.6 5.4 10.1-8.15-11.3-14.05-1.5-4.55-5.6m58.7 40.55-1.1-3.1L85.2 81q-6.8 1-16-2.8l14.6 1.05-10.25-15.8L90.6 85.2l-4.55-13.8L58.4 36.85 42.7 28.8l-22.45-8.3 15.1 4.1-25-18.95 25.75 14L52.7 30.1q12.15 7.7 24.95 26.55 10.4 11.6 15.45 28.5 3.9 8 4.35 11.8l-3.4-1.65" fill="#fff" fill-opacity=".741" fill-rule="evenodd" transform="translate(.9 .9)"/><path d="m11.25 6.55-8.6-4.7L.9.9l21.5 39.8q9.5 12.2 18.35 20.65l.6.6 4.2 3.8 9.4 7.9q8.6 7.2 40 22.55l3.4 1.65q-.45-3.8-4.35-11.8-5.05-16.9-15.45-28.5Q65.75 38.7 53.6 31L37 20.55l-25.75-14z" fill="none" stroke="#6f2ca9" stroke-linecap="round" stroke-linejoin="round" stroke-width="1.8"/></g><g id="ag"><path d="M.5 1.15 0 0l1.05.4 4.3 4.1 1.75 7.3L.5 1.15" fill="url(#w)" fill-rule="evenodd" transform="translate(.9 .9)"/><path d="m17.7 26.35-3.95-3.85-6-9.7V6.2l4.75 4.7 4.5 9.75-4.7-6.1 5.4 11.8" fill="url(#x)" fill-rule="evenodd" transform="translate(.9 .9)"/><path d="m13.75 22.5-3.15-3.05Q3.75 8.7.5 1.15L7.1 11.8l.65 1 6 9.7" fill="#ffe3b1" fill-opacity=".733" fill-rule="evenodd" transform="translate(.9 .9)"/><path d="M1.05.4q5.4 2.4 12.45 9.15 6.75 11.5 7.5 19.75v.25l-3.3-3.2-5.4-11.8 4.7 6.1-4.5-9.75-4.75-4.7v6.6l-.65-1-1.75-7.3L1.05.4" fill="#fff" fill-opacity=".741" fill-rule="evenodd" transform="translate(.9 .9)"/><path d="M1.4 2.05.9.9l1.05.4q5.4 2.4 12.45 9.15 6.75 11.5 7.5 19.75v.25l-3.3-3.2-3.95-3.85-3.15-3.05Q4.65 9.6 1.4 2.05z" fill="none" stroke="#6f2ca9" stroke-linecap="round" stroke-linejoin="round" stroke-width="1.8"/></g><g id="ah"><path d="M.05.9V0l16.4 20.05L28.9 41.5v2.45L37.45 62q9 22.55 2.8 40.85l-1.35-1.75L36.45 88 21.6 66.15 36.7 84.4l-4-18.95 4 11.65 4 17.55V79.9L28.9 47.75l-.8 4.4 2.3 7.7-3.25-6.2-2.3 6.1 1.8-16.45L7.5 12.5l1.05 7.25 10.35 17.8L9 23.95l1 14.5L3.3 7 .2 1.25.05.9" fill="#fff" fill-opacity=".741" fill-rule="evenodd" transform="translate(.9 .9)"/><path d="M.2 1.25 3.3 7 10 38.45l-1-14.5 9.9 13.6-10.35-17.8L7.5 12.5l19.15 30.8-1.8 16.45 2.3-6.1 3.25 6.2-2.3-7.7.8-4.4L40.7 79.9v14.75l-4-17.55-4-11.65 4 18.95-15.1-18.25L36.45 88l2.45 13.1Q27.3 85.6 19.05 73.35L5.3 44.8 0 1.55v-.2l.2-.1" fill="url(#y)" fill-rule="evenodd" transform="translate(.9 .9)"/><path d="M19.05 73.35 12.5 63.4Q5.8 51.55 3.3 43.95-.15 20.6 0 1.55L5.3 44.8l13.75 28.55" fill="#ffe3b1" fill-opacity=".733" fill-rule="evenodd" transform="translate(.9 .9)"/><path d="m39.8 102 1.35 1.75q6.2-18.3-2.8-40.85L29.8 44.85V42.4L17.35 20.95.95.9v.9l-.05.45M39.8 102Q28.2 86.5 19.95 74.25L13.4 64.3Q6.7 52.45 4.2 44.85.75 21.5.9 2.45M30.25 43.1l-.45-.7" fill="none" stroke="#6f2ca9" stroke-linecap="round" stroke-linejoin="round" stroke-width="1.8"/></g><g id="ai"><path d="m6.75 19.6.75-4.85V.7l.3-.7 2.1 12.35Q9.6 19.1 6 24.45l.75-4.85" fill="#ffe3b1" fill-opacity=".733" fill-rule="evenodd" transform="translate(.9 .9)"/><path d="M7.5 4.4v10.35l-.75 4.85-2.55-3.8L7.5 4.4" fill="url(#z)" fill-rule="evenodd" transform="translate(.9 .9)"/><path d="M7.5.7v3.7L4.2 15.8l2.55 3.8-3.05-2.05-1.25 3.85-.6 7.85-1.15 1-.7-11.1L7.5.7" fill="#fff" fill-opacity=".741" fill-rule="evenodd" transform="translate(.9 .9)"/><path d="M6.75 19.6 6 24.45Q4.3 27 1.85 29.25l.6-7.85 1.25-3.85 3.05 2.05" fill="url(#A)" fill-rule="evenodd" transform="translate(.9 .9)"/><path d="M6.9 25.35q3.6-5.35 3.9-12.1L8.7.9l-.3.7L.9 20.05l.7 11.1 1.15-1q2.45-2.25 4.15-4.8z" fill="none" stroke="#6f2ca9" stroke-linecap="round" stroke-linejoin="round" stroke-width="1.8"/></g><g id="aj"><path d="M38.85 11.1 38.4 14l-6.15 3.6 6.6-6.5M.9 80.35l-.9.8Q1.9 66 9.05 50.9l8.45-25.7L40.4 0l-.05 2.55-14.95 16.7v3.3l6.25 6.4-5.75-3.8.8 11.1-3.4-14.9-3.2 3.2-6.7 19.55-8.7 19.6 18.45-22.9L10.1 61.15l8-3.35-9.35 6.25-5.55 7.9-2.3 8.4" fill="#fff" fill-opacity=".741" fill-rule="evenodd" transform="translate(.9 .9)"/><path d="m38.4 14 .45-2.9 1.5-8.55q-.4 13.85-4.6 31-2.55 7.95-9.3 20.8L24.95 56l9.8-23.9L38.4 14" fill="#ffe3b1" fill-opacity=".733" fill-rule="evenodd" transform="translate(.9 .9)"/><path d="m38.4 14-3.65 18.1-9.8 23.9Q14.35 67.95.9 80.35l2.3-8.4 5.55-7.9 9.35-6.25-8 3.35L23.15 40.8 4.7 63.7l8.7-19.6 6.7-19.55 3.2-3.2 3.4 14.9-.8-11.1 5.75 3.8-6.25-6.4v-3.3l14.95-16.7-1.5 8.55-6.6 6.5L38.4 14" fill="url(#B)" fill-rule="evenodd" transform="translate(.9 .9)"/><path d="m25.85 56.9 1.5-1.65q6.75-12.85 9.3-20.8 4.2-17.15 4.6-31L41.3.9 18.4 26.1 9.95 51.8Q2.8 66.9.9 82.05l.9-.8q13.45-12.4 24.05-24.35z" fill="none" stroke="#6f2ca9" stroke-linecap="round" stroke-linejoin="round" stroke-width="1.8"/></g><g id="ak"><path d="m.75 13.45-.75.1L1.55 6.8 7.45 0l.3 1.85-4.85 5.4-2.15 6.2" fill="#fff" fill-opacity=".741" fill-rule="evenodd" transform="translate(.9 .9)"/><path d="M7.75 1.85Q8 5.2 6.2 8.5q-3 4.2-5.45 4.95l2.15-6.2 4.85-5.4" fill="url(#C)" fill-rule="evenodd" transform="translate(.9 .9)"/><path d="m1.65 14.35-.75.1L2.45 7.7 8.35.9l.3 1.85Q8.9 6.1 7.1 9.4q-3 4.2-5.45 4.95z" fill="none" stroke="#6f2ca9" stroke-linecap="round" stroke-linejoin="round" stroke-width="1.8"/></g><g id="al" fill-rule="evenodd"><path d="m74.65 0 .2.1.1.2-.05.25-19.75 49.3v.05q-3.5 7.7-12.3 15.4l-.25.25-1.2 1.05-.3.25v-.1q-6.1 7.6-20 15.6l-10.45 3.5q-3.5 1.8-6.25 2.55l-2.5.6-1.55.3-.35-.2v-.25l2.1-5.55v-.05L12.15 55.3l8.05-11.75Q30.3 30.5 40.3 20.1l.05-.05Q58.1 7.65 74.4.05l.25-.05m-.8 1.35.05-.2-.1.05q-13.7 7.25-33 19.5l-21 25.8-2.4 2.95-2.65 3.25L1 88.4l1.65-.4q3.65-1 10.65-3.65h.05l7.9-3.05 12.1-8.55 2.35-1.7 1.05-1 4.35-4.15v-.1l.75-.65L43 64.2q8.15-7.3 11.45-14.65l19.4-48.2" fill="#6f2ca9"/><path d="m73.8 1.2.05.15-24.8 17.9-2.7 5.75v16.1L44.9 27.8 32.35 51.75l13.6-30.4-8.9 6.25L19.8 46.5l21-25.8q19.3-12.25 33-19.5M36.75 70.05l-1.05 1-2.35 1.7 4.25-22.7-.85 20M2.65 88 1 88.4l13.75-35.7 2.65-3.25 10.5-7.25-12.15 11.5L14 57.15 6.85 77.5 21.6 64.8l-5.9 6.8 15.15-5.4-18.6 9.35-1.75 1.95 11.1 1.05-13 1L2.65 88" fill="#fff" fill-opacity=".741"/><path d="m19.8 46.5 17.25-18.9 8.9-6.25-13.6 30.4L44.9 27.8l1.45 13.3V25l2.7-5.75 24.8-17.9-14.95 32.4-6.2 15.75L43 64.2l-1.15.95-.75.65v.1l-4.35 4.15.85-20-4.25 22.7-12.1 8.55-7.9 3.05h-.05Q6.3 87 2.65 88l5.95-8.45 13-1-11.1-1.05 1.75-1.95 18.6-9.35-15.15 5.4 5.9-6.8L6.85 77.5 14 57.15l1.75-3.45L27.9 42.2l-10.5 7.25 2.4-2.95" fill="url(#D)"/><path d="m73.85 1.35-19.4 48.2Q51.15 56.9 43 64.2l9.7-14.7 6.2-15.75 14.95-32.4" fill="#ffe3b1" fill-opacity=".733"/></g><g id="am"><path d="M8.45 1.25 3.9 3.45V6.6l-.55-2.55-2.3 4.35L0 8.35l2.1-5.4L8.5 0l-.05 1.25" fill="#fff" fill-opacity=".741" fill-rule="evenodd" transform="translate(.9 .9)"/><path d="m1.05 8.4 2.3-4.35.55 2.55V3.45l4.55-2.2q-.3 2.6-2.05 5.2-3 1.85-5.35 1.95" fill="url(#E)" fill-rule="evenodd" transform="translate(.9 .9)"/><path d="M9.35 2.15 9.4.9 3 3.85.9 9.25l1.05.05Q4.3 9.2 7.3 7.35q1.75-2.6 2.05-5.2z" fill="none" stroke="#6f2ca9" stroke-linecap="round" stroke-linejoin="round" stroke-width="1.8"/></g><g id="d" transform="translate(0 3.5)"><use ffdec:characterId="20" height="6.05" transform="translate(15.1)" width="2.1" xlink:href="#F"/><use ffdec:characterId="22" height="12" transform="translate(8.55 4.95)" width="5.1" xlink:href="#G"/><use ffdec:characterId="24" height="13.4" transform="translate(0 15.85)" width="6.2" xlink:href="#H"/><use ffdec:characterId="26" height="14.8" transform="translate(137.95 4.6)" width="5.55" xlink:href="#I"/><use ffdec:characterId="28" height="10.05" transform="translate(131.9 4.25)" width="3.35" xlink:href="#J"/><use ffdec:characterId="30" height="18.15" transform="translate(33.2 43.65)" width="7.9" xlink:href="#K"/><use ffdec:characterId="32" height="23.25" transform="translate(82.15 39.25)" width="10.2" xlink:href="#L"/></g><g id="an" fill-rule="evenodd"><path d="M2.1 0v4.4l-.65 1.55q-.95.5-1.3-2.1v-.3L0 1.75 2.1 0m-.55 3.45V.95L.45 2.1l.5 2.1.2.9.4-1.05v-.6" fill="#3b2445"/><path d="m.95 4.2-.5-2.1L1.55.95v2.5l-.6.75" fill="#9a6bab"/><path d="m.95 4.2.6-.75v.6l-.4 1.05-.2-.9" fill="#694278"/></g><g id="ao" fill-rule="evenodd"><path d="m1.75 8.8.9 1.8 1.9-4.1-.5-1.55-1.3-3.75Q1.5 2.85.5 6.35L1.75 8.8m2.1-6.55L5.1 6.8 2.8 12Q.9 10.3 0 6.2 1.25 1.8 2.55 0q.85 0 1.3 2.25" fill="#3b2445"/><path d="m4.05 4.95.5 1.55-1.9 4.1-.9-1.8 2.3-3.85" fill="#694278"/><path d="M4.05 4.95 1.75 8.8.5 6.35q1-3.5 2.25-5.15l1.3 3.75" fill="#9a6bab"/></g><g id="ap" fill-rule="evenodd"><path d="m2.25.05.4-.05q.25.05.35.25l3.15 5.4.05.4-1.4 6.3-.25.35-.45.1Q2.15 12.45 1 9.65.45 8.3.05 6.45v-.3L1.95.4l.3-.35m1.65 4.1-1.25-2.2-1.4 4.3-.05.05q.45 2.05 1.15 3.35.65 1.25 1.5 1.75l.25-1.2.9-4.15-1.1-1.9m1.35 9.25.3-.9v.9h-.3" fill="#3b2445"/><path d="M3.9 4.15 5 6.05l-.9 4.15-1.65-2.75 1.45-3.3" fill="#694278"/><path d="m4.1 10.2-.25 1.2q-.85-.5-1.5-1.75-.7-1.3-1.15-3.35l.05-.05 1.4-4.3 1.25 2.2-1.45 3.3L4.1 10.2" fill="#9a6bab"/></g><g id="aq" fill-rule="evenodd"><path d="m4.75 4.6-.1-1.35h.05L4.4 1.1l-2 2.4Q.8 5.65.75 6.35l.15 2.8.2 3.9.75.3.25.2.05.05.5-1 .2-.35 1.6-2.4q.45-.7.4-3.2V6.4l-.1-1.8M0 6.35q0-.8 1.8-3.25Q3.5.9 4.5.05L4.75 0 5 .1l.1.25.3 2.75v.05l.15 3.45q.05 2.9-.5 3.7-1.75 2.35-2.6 4.25l-.15.2-.1.05h-.1l-.2-.1-.1-.2-.4-.55-.65-.2-.3-.1-.1-.25L.2 9.2 0 6.35" fill="#3b2445"/><path d="m2.1 13.55-.25-.2-.75-.3-.2-3.9-.15-2.8Q.8 5.65 2.4 3.5l2-2.4.3 2.15h-.05l.1 1.35L3.1 6.8Q1.85 8.25 2.05 9.1l.15 2.4-.1 2.05" fill="#9a6bab"/><path d="m4.75 4.6.1 1.8-.05.2-.1.85-.3 2-.75 1.1q-.55.8-.8 1.7l-.2.35-.5 1-.05-.05.1-2.05-.15-2.4q-.2-.85 1.05-2.3l1.65-2.2" fill="#694278"/><path d="M4.85 6.65q.05 2.5-.4 3.2l-1.6 2.4q.25-.9.8-1.7l.75-1.1.3-2 .1-.85.05.05" fill="#ffe3b1"/></g><g id="ar" fill-rule="evenodd"><path d="M2 3.1v-.05L1.25.75q-.4.25-.5.95L.7 3.5l.05 2.15.05.95.3 1.15.55 1.35q.45-.7.95-2.8 0-.8-.6-3.2M.05 1.6Q.25.2 1.15 0h.1q.6 0 1.2 1.85l.3 1.05q.6 2.6.6 3.45v.1q-.8 3.25-1.6 3.6h-.3l-.2-.15q-1-2-1.2-3.2L0 3.5l.05-1.9" fill="#3b2445"/><path d="M.75 5.65.7 3.5l.05-1.8q.1-.7.5-.95L2 3.05v.05L1.05 6l-.3-.35" fill="#9a6bab"/><path d="M2 3.1q.6 2.4.6 3.2-.5 2.1-.95 2.8L1.1 7.75.8 6.6l-.05-.95.3.35L2 3.1" fill="#694278"/></g><g id="as" fill-rule="evenodd"><path d="m1.25.45.2-.35.35-.1.4.15q2.2 2.05 4.05 5.9L7.4 8.7v.1q1 5.8 0 8.95l-.25.3-.1.1H6.8L6.45 18l-2.5-2.8q-2.3-2.95-3.9-6.75L0 8.1 1.25.45m1.5 2.05-.55-.7-1 6.3q1.5 3.6 3.65 6.4l.75.9.9 1.05.2-1.2v-.6q.1-2.35-.4-5.6L5.35 6.9l-.15-.35-.65-1.2-1.8-2.85" fill="#3b2445"/><path d="m2.75 2.5 1.8 2.85v4.95l2.05 4.35.1.6-.2 1.2-.9-1.05-3.35-6.5 1.7 1.3L1.9 7.7l.85-5.2" fill="#9a6bab"/><path d="m5.6 15.4-.75-.9Q2.7 11.7 1.2 8.1l1-6.3.55.7-.85 5.2 2.05 2.5-1.7-1.3 3.35 6.5" fill="#fff"/><path d="m4.55 5.35.65 1.2.15.35 1.25 7.75-2.05-4.35V5.35" fill="#694278"/><path d="m5.35 6.9.95 2.15q.5 3.25.4 5.6h-.1L5.35 6.9" fill="#ffe3b1"/></g><g id="at" fill-rule="evenodd"><path d="M10.2 10.05v.3l-4 12.5-.2.3-.3.1-.35-.05-.2-.25L1.3 15.1l-.05-.15L0 6.05l.05-.3.2-.2 6.6-5.4Q7 0 7.2 0l.35.15.2.3 2.45 9.6M7.8 5.3l-.9-3.65-1.15.9L1.2 6.2l.9 6.4.3 2.1 3.15 6.45.75-2.35 2.15-6.75.6-1.9-1.2-4.8-.05-.05" fill="#3b2445"/><path d="m5.75 2.55 1.15-.9.9 3.65-3.4 4-1.7-2.45 3.05-4.3M6.3 18.8l-.75 2.35L2.4 14.7l-.3-2.1.05-4.95L4.4 9.3l1.9 9.5" fill="#9a6bab"/><path d="m7.8 5.3.05.05.6 6.7L6.3 18.8 4.4 9.3l3.4-4" fill="#694278"/><path d="m2.1 12.6-.9-6.4 4.55-3.65-3.05 4.3L4.4 9.3 2.15 7.65 2.1 12.6" fill="#fff"/><path d="m7.85 5.35 1.2 4.8-.6 1.9-.6-6.7" fill="#ffe3b1"/></g><g id="au" fill-rule="evenodd"><path d="m10.6 57.6-.55.45-4.2.25q-2.5-3.55-3.55-7.35l2-5.85-.2-2.1-3.85-5.95-.1-.25q-.65-8.05 1.6-15.55L5.6 10.3l.1-.15 5.05-5.9q.15-.2.35-.25l.4.15.25.4.8 7.3 1.55-4.5.05-.1 4-6.95.25-.25h.3l.35.1.15.3 2.8 12v.1l.1 2.5 5.6-3.5.35-.05q.2 0 .35.15l.2.35 1.8 15.75v.05l.1.7-.15.45-.4.2h-.15l-14.65 27.3-.25.25-.35.05-.3-.15-1.2-1.1-.65-.65-4.65-4.4-3.05-2.9-.2-.35-.05-.65-1.6 4.6q1.05 3 2.55 5.5l.7 1.15 3.65-.15.85-.05m14.55-22.3 4.05-7.6-1.65-14.65-5.65 3.5-.4.1-.35-.2-.15-.35v-.2l-.15-3.2L18.6 3l-.2-.8-.25.45-3 5.15-2.25 6.45-.15.45-.25.5-.55 1.45q-.2.8-.3.25v-2.35l-.9-8.35V6l-.15.1-1.5 1.8-2.45 2.9-3.8 10.85v-.05Q.95 28 1.2 34.85l.1 1.7 2.5 3.9-.7-6.25.1-.35.3-.25.35-.05.25.1.05.1 4.5 5.4.15.4.15.65.6 1.85q.75 2.25-.35.3L7.75 39.9 6.5 38.4l-1.3-1.55-.7-.9.7 6.75v.05l.35 3.05.1 1.1 8.85 8.35.95-1.75L23 39.3l2.15-4" fill="#3b2445"/><path d="M5.4 56.65q-1.5-2.5-2.55-5.5l1.6-4.6.05.65.2.35 3.05 2.9q-.6 4.85-2.35 6.2m.15-10.85-.35-3.05v-.05l-.7-6.75.7.9.35 8.95M9.1 7.9l1.5-1.8.15.1-.3 2.75q-1.2 3.7-1.7 6.9L9.1 7.9" fill="#fff"/><path d="m15.45 53.5-.95 1.75-8.85-8.35-.1-1.1-.35-8.95 1.3 1.55 1 2.5.9 3.6q3.85 3.85 7.05 9M1.2 34.85Q.95 28 2.85 21.6v.05l3.8-10.85L9.1 7.9l-.35 7.95-.4 3.5q2.25 1.05 2.8 4.1-.9 5.35-5.3 4.15-1.5 4.15-4.65 7.25m11.7-20.6 2.25-6.45 3-5.15-.75 7.65-3.6 20.15-.9-16.2" fill="#9a6bab"/><path d="m25.15 35.3-2.15 4q-3.45-1.6-6.95-5.95L12 42.55 8.95 40.2l-.15-.65-.15-.4-4.5-5.4-.05-.1q2-4.15 1.75-6.05 4.4 1.2 5.3-4.15-.55-3.05-2.8-4.1l2-5.05.2-.5 1.1 3.1q.1.55.3-.25l.55-1.45.25-.5.15-.45.9 16.2 4-13.55 7.35 18.4" fill="#694278"/><path d="M21 15.9v.2l.15.35.35.2.4-.1 5.65-3.5L29.2 27.7l-4.05 7.6-7.35-18.4-4 13.55 3.6-20.15.75-7.65.25-.45.2.8.35 5.85L21 15.9m2 23.4-7.55 14.2q-3.2-5.15-7.05-9l-.9-3.6-1-2.5 1.25 1.5 1.45 2.45q1.1 1.95.35-.3l-.6-1.85L12 42.55l4.05-9.2q3.5 4.35 6.95 5.95M4.1 33.65l-.25-.1-.35.05-.3.25-.1.35.7 6.25-2.5-3.9-.1-1.7q3.15-3.1 4.65-7.25.25 1.9-1.75 6.05m6.35-24.7-.1 5.35-2 5.05.4-3.5q.5-3.2 1.7-6.9" fill="#51325f"/><path d="m10.75 6.2.9 8.35v2.35l-1.1-3.1-.2.5.1-5.35.3-2.75M18.6 3l2.25 9.7.15 3.2-2.05-7.05L18.6 3" fill="#fee1af"/><path d="m9.75 57.65-3.65.15-.7-1.15q1.75-1.35 2.35-6.2l4.65 4.4-2.65 2.8" fill="#b4a7d2"/><path d="m10.6 57.6-.85.05 2.65-2.8.65.65-2.45 2.1" fill="#463e72"/></g><g id="av" fill-rule="evenodd"><path d="m23.15 5.45-.3-1.85q-2.4 5.9-4.5 12.7-1.85 5.95-3.4 12.55l-.2.3v.05l-.35.1-.35-.1-.25-.3-1.95-7.7-1.4-5.3-1.05-4.1q-.75 4.5-1.2 8.65L7.85 25q-.35 5.6-.05 10.6l1.85 7.45L11.1 49v.35l-.2.25-.3.1-.3-.05v1.1l1.5 6.45v3.35l1.8 4.85 1.25 1.3.05.1 3.7 8.55 3.95-9.4v-.05l4.85-6.3 5.1-9.75.1-.1v-.25l.2-.15.2.05.15.15.3 1q4.9-4.85 5.25-15.2l-1.5 1-.2.05-.2-.15-2.75-3.9-2.75 1.9-.2.05-.2-.1-.05-.25.45-3.65.85-6.4-4.65 5.3-.4.2-.4-.15-.2-.35-3.35-23.45M9.1 73.3l-5.95-9.1L.1 53.7q-.35-7.55.55-12.65 2.85 2.4 5.1 6.8l-.2-1.7.1-.4.4-.2.4.05 3.2 2.2-3-11.95v-.15q-.3-4.6 0-9.7Q7 18.4 8.6 9.7l.25-.4.4-.05.25.05.3.1.25.3 4.3 16.65 2.6-9.4Q19.5 8.4 22.6 1.25l.25-.3.4-.1.3.2.2.3 3.7 26.15 8.7-10 .45-.2.4.15.2.4.2 3.35Q43.25 8.9 51.15.45L51.3.3l.15-.2.45-.1.35.2.15.45-2.35 19.2-.05.05L45 38l3.15-2.95-.5 12.35-1.95 7.7-1.1 1.15 2.15-10.6V37.8l-1.15 1.05-1.15 1-.25 1-.05.1-3.45 6.85-.35.3q-.25.1-4.8 6.25l-.9 1.25-.55.65q-1.55 2.05-.65.55l1.05-1.65.55-.8 4.6-7.05 2.75-5.45.7-1.35 5.75-20.8.95-7.65.65-5L51 2.3q-7.8 8.75-13.5 21.45l-.25.7-.1.3-.2.65-.4.85-.05-.35v-.05l-.05-1.55-.1-.75-.25-4.15v-.05l-.05.05-3.2 3.65-1.35 10.3 2.4-1.65.25-.1.2.15 2.05 2.9.7 1.05 1.8-1.15.2-.05.2.1.05.2-.15 3.1q-.9 9.1-5.7 13.45l-.2.1-.15-.05-.15-.2-.15-.65-4.9 9.35h-.05l-.4.55-4.4 5.75-4.2 10.05-.15.15h-.25l-.15-.1v-.05l-2.1-4.8-1.85-4.4-1.3-1.3-.05-.1-1.85-4.95v-3.4l-1.45-6.45-.05-.05v-1.55L6.85 47.3l.25 2.6.9 2.85q.85 2.55.35 1.6L7.1 52l-.35-.7-.55-.85-.15-.1v-.1l-.1-.2q-2.75-5.35-4.7-7V53.3l2.25 9.05 4.6 6.4 1 4.55" fill="#3b2445"/><path d="M18.35 16.3q2.1-6.8 4.5-12.7l.3 1.85q-.5 3.9-1.45 6.35-1.25 3.2-3.35 4.5M8.2 20.45q.45-4.15 1.2-8.65l1.05 4.1-.55 2q-.9 2.55-1.6 2.55h-.1m.9 52.85-1-4.55-4.6-6.4-2.25-9.05.6-4.8 4.55 7.2.5.75 5.8 11.25 3.55 3.75 2.1 4.8v.05q-5.55 3.25-9.25-3m27-53.9.25 4.15.1.75.05 1.55-1-5.05.05-.1.5-1.3h.05m1.15 5.05.25-.7Q43.2 11.05 51 2.3l-.55 4.75-13.2 17.4m-2.6 31.15.9-1.25q4.55-6.15 4.8-6.25l.35-.3 3.45-6.85.05-.1.25-1 1.15-1-.65 2.05-.55 3.65-1.95 6.15-6.3 11.1-1.5-6.2" fill="#9a6bab"/><path d="M23.15 5.45 26.5 28.9l.2.35.4.15.4-.2 4.65-5.3-.85 6.4q-1.25.15-4.15 1.3-3.45 1.35-8.35 3.8l-.95.5-1.2-2.8-1.9-3.9v-.05l.2-.3q1.55-6.6 3.4-12.55 2.1-1.3 3.35-4.5.95-2.45 1.45-6.35M7.85 25l.35-4.55h.1q.7 0 1.6-2.55l.55-2 1.4 5.3-3.05 2.95-.95.85m3.35 35.35v.35l1.85 4.95.05.1 1.3 1.3 1.85 4.4-3.55-3.75-5.8-11.25-.45-.8-5.2-12.6 3.8 5.7 1.85 6.7 4.3 4.9m16.3.1.4-.55h.05l4.9-9.35.15.65.15.2.15.05.2-.1Q38.3 47 39.2 37.9l.35 3.25 3.9-4.8q-1.05 3.75-1.05 5.5l-2.75 5.45-4.6 7.05-.55.8-1.05 1.65-2.4 1.65q-2.2 1.4-3.55 2m8.9-25.8-2.05-2.9-.2-.15-.25.1-2.4 1.65 1.35-10.3 3.2-3.65-.5 1.3-.05.1 1 5.05v.05l.05.35.4-.85.2-.65.1-.3 13.2-17.4-.65 5-1.7 8.05-1.2 5.1.45-5.5-.05-.4-8 11.05-2.9 4.3" fill="#51325f"/><path d="M9.65 43.05 7.8 35.6q-.3-5 .05-10.6l.95-.85 3.05-2.95 1.95 7.7.25.3.35.1.35-.1 1.9 3.9 1.2 2.8q-3.65 1.9-5.85 4-1.8 1.7-2.35 3.15m-3.6 7.2v.1l.7.95.35.7 1.25 2.35q.5.95-.35-1.6l-.9-2.85-.25-2.6 2.85 1.95v1.55l.05.05 1.45 6.45v3.05l-4.3-4.9-1.85-6.7 1 1.5M39.2 37.9l.15-3.1-.05-.2-.2-.1-.2.05-1.8 1.15-.7-1.05 2.9-4.3 8-11.05.05.4-.45 5.5-.3 1.35-2.25 6.7-.8 2.7-.1.4-3.9 4.8-.35-3.25m7.55.55v7.2l-2.15 10.6-7.85 8.2-.6-2.65 6.3-11.1 2.75-5.6.25-2 1.3-4.65" fill="#694278"/><path d="m49.8 12.05-.95 7.65-5.75 20.8-.7 1.35q0-1.75 1.05-5.5l.1-.4.8-2.7 2.25-6.7.3-1.35 1.2-5.1 1.7-8.05" fill="#ffe3b1"/><path d="M1.25 53.3V43.05l5.2 12.6-.05.05-4.55-7.2-.6 4.8M45.6 38.85l1.15-1.05v.65l-1.3 4.65-.25 2-2.75 5.6 1.95-6.15.55-3.65.65-2.05" fill="#fff"/><path d="m31.3 30.3-.45 3.65.05.25.2.1.2-.05 2.75-1.9 2.75 3.9.2.15.2-.05 1.5-1q-.35 10.35-5.25 15.2l-.3-1-.15-.15-.2-.05-.2.15v.25l-.1.1-5.1 9.75-4.85 6.3v.05l-3.95 9.4-3.7-8.55-.05-.1-1.25-1.3-1.8-4.85V57.2l-1.5-6.45v-1.1l.3.05.3-.1.2-.25V49l-1.45-5.95Q10.2 41.6 12 39.9q2.2-2.1 5.85-4l.95-.5q4.9-2.45 8.35-3.8 2.9-1.15 4.15-1.3" fill="url(#M)"/></g><g id="g" transform="translate(1.55 3.2)"><filter id="N"><feColorMatrix in="SourceGraphic" result="filterResult0" values="0 0 0 0 0.4,0 0 0 0 0.0,0 0 0 0 0.2,0 0 0 1 0"/><feConvolveMatrix divisor="9" in="filterResult0" kernelMatrix="1 1 1 1 1 1 1 1 1" order="3 3" result="filterResult1"/><feComposite in="SourceGraphic" in2="filterResult1" result="filterResult2"/></filter><use ffdec:characterId="39" filter="url(#N)" height="54.8" width="108.95" xlink:href="#O"/></g><g id="aw"><path d="m93.1 24.5.1-.3q-.8-.85-2.4-1.1h-1.9l.85 1 3 1.25.35-.85m-3.6.1-1.4-1.55-.05-.2.05-.15.2-.1q2.85-.35 4.4.5l.7.5.35.35.05.15v.15l-.6 1.55-.1.1-.15.1-.15-.05-3.3-1.35m2.35 11.2.65.8-1.8 2.75h-2.25l.9-2.55 2.5-1.05v.05m-6.5-3.85.15.05.15.15v.15l-.9 3.4-.05.1-1.75 1.6q-.85.5-1.7.65l-.2-.05-.1-.15v-.15l2.15-5.45.1-.15.15-.05 2-.1M83 36.7l1.25-1.2.75-2.95-1.45.05-.3.75-1.6 4.05 1.35-.7m7.05.2-.75 1.85h1.2l.15-.25.35-1.85-.95.25M46.6 48.05l-1.15.2v1.2l3.1.35.7-.55 2.2-1.55h-2.9l-1.95.35m-1.95-.15 8-.9-3.85 3.35-3.65-.35-.5-2.1M19.5 26.5l.1.05 1.5 1.5.1.15-.1.2-.2.1h-3.2l-.2-.05-.05-.15-.45-2v-.2l.15-.15h.15l2.2.55m.35 1.45h.4L19.3 27l-.65-.15-1.05-.25.3 1.35h1.95" fill="#520f8c" fill-opacity=".875" fill-rule="evenodd"/><path d="m93.1 24.5-.35.85-3-1.25-.85-1 4.2 1.4" fill="url(#P)" fill-rule="evenodd"/><path d="M88.9 23.1h1.9q1.6.25 2.4 1.1l-.1.3-4.2-1.4M83 36.7l-1.35.7 1.6-4.05L83 36.7m7.05.2.95-.25-.35 1.85-.15.25h-1.2l.75-1.85M46.6 48.05l1.95-.35h2.9l-2.2 1.55-2.65-1.2M28 14.7l-.1-.1 1.5-2.6.65.35.25 4.65-.25.5-.5-1.3q-.5-1.5-.45-2.4l-1.1.9m-9.35 12.15.65.15.95.95h-.4l-.4-.35-.8-.75" fill="#fff" fill-opacity=".753" fill-rule="evenodd"/><path d="M73.45 25.1q.5-2.3-.4-3.7-1.9-2.8-9.55-2.3l-.2-.05-.1-.2.05-.2q1.25-1.5 8.55-1.8h.05q3.85.6 6.3 2.05l.2.15q2.55 1.55 3.5 4.05l.3 1.1q3.95 1.25 7 2.75 2.4 1.15 4.25 2.5 3.2 2.3 4.8 5.1l1.65-.35 1.75-.2q4.6-.3 7.25 2l.1.2-.05.15-2.05 3.15-.1.1-.1.15q-2.1 2.65-5.1 5.05h-.05l-1.65.8-.15.1q-8.9 4.35-15.4 6.1-4.2 1.15-7.4 1.2l-18.5 1.65-1.45.05-4.4.1-10-.35-2.7-.25-7.7-1.2-.65-.2q-7.65-2.05-12.6-3.7-8.5-2.85-9-4.45l-.95-.4L6.7 43.1l-.15-.2.05-.2.15-.15.25.05 1.95 1 1.25.55.1.05q3.75 1.4 8.6 1.8 8.7.7 20.95-1.85H40l1.85-.45 2.25-.55q4.35-1.15 8.45-2.75l2.75-1.1.05-.05.15-.05h.15l.1-.1q5.45-2.35 10.55-5.55l4.8-3.25 1.25-2.2 1.1-3m.75 9.4 1.05-.95 1.65-1.75 1.25-1.5q2.1-2.75 3.45-5.95l-.35-1.25q-.8-1.9-2.6-3.2l-.5-.35q-2.4-1.5-6.4-2.15-5.4.25-7.25 1.1 7.1-.3 9 2.55 1.7 2.45-.6 7.2l-1.35 2.4-.1.1-4.1 2.8q-5.1 3.25-10.6 5.7l-.8.35-.1.05-.15.05-.4.2-2.75 1.1q-4.1 1.55-8.45 2.7l-4 .95-.25.05Q27.6 47.25 18.9 46.55q-4.6-.35-8.25-1.65 1.2 1.35 8.25 3.65l13.4 3.9h-.05l1.9.35 5.7.85 12.7.6 2.75-.05 1.65-.05 1.45-.05 18.45-1.65h.05q3.9-.1 9.4-1.8 5.35-1.7 12.15-4.95l1.4-.7 1.4-.65q2.95-2.4 5-4.95l.1-.1.05-.1 1.9-2.9q-2-1.6-5.15-1.75l-3.3.2-1.4.25.55 1.65h.85q2.4.15 3.3 1.5l.05.15q0 .5-.65 1.25l-.1.1-.1.1-2.5 2.15-1.65 1.15-.1.05L86.65 46l-.2.05-.75.1-1 .15-1.45.1 1.55-.45 1.35-.35.2-.1.25-.05.05-.05h-.05l.55-.1.4-.1h.05l.2-.05.15-.05.5-.15-.2.05q7.9-2.25 9.7-5.5l.1-.15.05-.1q.5-1.1.35-2.3-.1-.95-.6-1.95h-.05q-1.45-2.65-4.4-4.8-1.5-1.15-3.4-2.15-3.35-1.85-7.95-3.3L80.95 27l-.05.1h.15q6.1 1 7.2 5.25v.1l-.3 1.1q-1.2 3.55-4.05 6l-.1.1-.1.1q-2.3 1.85-5.55 3.05l-1.25.4-.85.25-14.6 3.15-.2-.05-.1-.2v-.2l.15-.1 5.6-1.85q4.5-1.95 7.35-4.85l.1-.05.1-.15.35-.4-.15-.5h-.05v-.05q-.3-.5-.9-.65-1.15-.3-3.2.35l-.2-.05-.15-.1v-.2l.1-.15q2.15-1.35 3.95-2.9m13.15-.95.35-1.15q-1.1-3.85-6.75-4.75l-.15-.1-.05-.15-2.6 3.8-1.25 1.4-.9.95q-1.85 1.85-4.1 3.4l1.95.05q1.35.35 1.55 1.8v.1l-.05.15-.5.5-.1.1-.1.1Q71.6 42.9 66.7 44.9l9.25-2h-.05l1-.3 1.25-.4q3.05-1.15 5.2-2.9l.1-.05.1-.1q2.65-2.25 3.8-5.6m12.5 3.7-.8-.05q.05 1.2-.45 2.3l-.1.1-.05.15q-1.2 2.2-5 3.95l4.5-1.15 1.9-1.35 2.1-1.85.1-.05.1-.1.5-.8q-.85-1.05-2.8-1.15M26.35 0l.15.1.05.15-.05.2-.1.15-.3.35L25.2 2l-.8 1-1.95 2.75q-5.5 8.45-1.65 13.65l.1.15v-.15q-.45-8.8 5.4-13.65l.9-.7.15-.05.2.1.05.15v.2l-.2.3-.85 1.6q-2.25 4.9-.8 10.15l.6 1.8.25.6.1.25.2.35q1.65 2.4 7.95 3.1l.15.1.1.15-.05.15-.1.1-1.7 1 5.95.75.15.1.05.2v.15l-.2.1q-11.85 2.8-18.25-1.15-3.5-2.2-5.35-6.45v-.05q-1.8-6.8 3.75-13Q21 3.85 23.4 2L24.8.95l.5-.35.85-.55.2-.05m4.2 12.05.05.15.25 4.85-.05.1-.5.95-.2.25-.3.3-.05.15-.15.15h-.2l-.15-.15-.05-.15-.05-.05-1.8-3.9-.05-.1.05-.15L29 11.5q.05-.1.2-.1h.2l1.05.55.1.1M24.7 1.7l-.25.3.2-.25.05-.05-.3.25-.1.05q-2.45 1.85-4.2 3.75-5.7 6.1-4 12.8 1.35 3.05 3.55 5 5.85 5.1 17.85 2.65l-5.15-.65-.15-.05-.05-.15v-.2l.1-.1 1.7-1q-6.25-.85-7.6-3.55l-.1-.15h-.05l-.45-1.1q-2.2-5.8-.05-11.25l.7-1.6q-5.65 4.9-4.85 13.85v.15l-.05.15-.1.1-.2.05-.15-.1q-5.25-5.55.7-14.85l1.75-2.5 1.2-1.55m5.35 15.8.25-.5-.25-4.65-.65-.35-1.5 2.6.1.1.1.3 1.45 3.1.3-.35.2-.25m-24.2 9.55.05.2q-.25 1.95 2.35 5.1l.7.25q6.2 2.15 16.3 2.1l.2.1.05.15-.05.2-.15.15q-9.55 2.8-16.35 2.1l-2.25-.3q-3.6-.7-6.3-2.55l-.1-.15q-1.15-4 2.35-6.2 1.15-.75 2.85-1.25h.2l.15.1M3.8 35.7q2.3.85 5.15 1.15 6 .6 14.3-1.6-8.7-.15-14.3-2.05l-1-.35-.1-.1q-2.6-3.1-2.55-5.15-2.35.8-3.5 2.05-1.7 1.8-1 4.5l2.7 1.4.3.15" fill="#54216e" fill-rule="evenodd"/><path d="M78.65 19.9q1.8 1.3 2.6 3.2l.35 1.25q-1.35 3.2-3.45 5.95l-1.25 1.5-1.65 1.75-1.05.95.8-.95 1.9-2.4q3.75-4.9 3.75-6.9l-.2-1.15-.85-1.7-.95-1.5M90 28.05q1.9 1 3.4 2.15 2.95 2.15 4.4 4.8h.05q.5 1 .6 1.95.15 1.2-.35 2.3l-.05.1-.1.15q-1.8 3.25-9.7 5.5l-.25.1 2.75-1.4q7-2.75 6.95-5.75-.05-3-1.75-4.8L93.4 30.8l-1.7-1.35-1.7-1.4m13.15 6.5q3.15.15 5.15 1.75l-1.9 2.9-.05.1-.1.1q-2.05 2.55-5 4.95l-1.4.65-1.4.7q-6.8 3.25-12.15 4.95 3.7-1.75 7.95-3.55l4.7-2.7 4.6-3.35q3.75-2.95 3.75-3.8 0-1.15-2.65-2.2l-1.5-.5M48.55 49.8l-3.1-.35v-1.2l1.15-.2-.5.95 2.45.8M24.65 1.75l-.2.25.25-.3-1.2 1.55q-2.65 1.5-4.6 4.5-2.4 3.65-2.4 7.4 0 2.9 1.4 5.6.6 1.25 1.75 2.8-2.2-1.95-3.55-5-1.7-6.7 4-12.8 1.75-1.9 4.2-3.75l.1-.05.25-.2m-3.1 18.5q-.8-8.95 4.85-13.85L25.7 8q-4.55 4.75-4.15 12.25M1.8 29.65l-.2.45q-.4 1-.4 2 0 1.8 2.3 3.35v.1l-2.7-1.4q-.7-2.7 1-4.5" fill="#ffe3b1" fill-opacity=".741" fill-rule="evenodd"/><path d="M74.2 34.5q-1.8 1.55-3.95 2.9l-.1.15v.2l.15.1.2.05q2.05-.65 3.2-.35.6.15.9.65l-.1.1q-.25.95-2.2 2.35l-2.9 1.9-2.5 1.65-5.6 1.85-.15.1v.2l.1.2.2.05 14.6-3.15.85-.25 1.25-.4q3.25-1.2 5.55-3.05l.1-.1.1-.1q2.85-2.45 4.05-6l.3-1.1v-.1q-1.1-4.25-7.2-5.25l-.1-.1 1.1-2.25q4.6 1.45 7.95 3.3l1.7 1.4 1.7 1.35 2.55 2.35q1.7 1.8 1.75 4.8.05 3-6.95 5.75L88 45.1h-.15l-.05.05-.2.05h-.05l-.4.1-.55.1h.05l-.05.05-.25.05-.2.1-1.35.35-1.55.45 1.45-.1 1-.15.75-.1.2-.05 11.45-2.9.1-.05 1.65-1.15 2.5-2.15.1-.1.1-.1q.65-.75.65-1.25l-.05-.15q-.9-1.35-3.3-1.5H99L98.45 35l1.4-.25 3.3-.2 1.5.5q2.65 1.05 2.65 2.2 0 .85-3.75 3.8l-4.6 3.35-4.7 2.7Q90 48.9 86.3 50.65q-5.5 1.7-9.4 1.8h-.05L58.4 54.1l-1.45.05-1.65.05-2.75.05-12.7-.6-5.7-.85-1.9-.35h.05l-13.4-3.9q-7.05-2.3-8.25-3.65 3.65 1.3 8.25 1.65 8.7.7 20.95-1.85l.25-.05 4-.95q4.35-1.15 8.45-2.7l2.75-1.1.4-.2.15-.05.1-.05.8-.35q5.5-2.45 10.6-5.7l4.1-2.8.1-.1 1.35-2.4q2.3-4.75.6-7.2-1.9-2.85-9-2.55 1.85-.85 7.25-1.1 4 .65 6.4 2.15l.5.35.95 1.5.85 1.7.2 1.15q0 2-3.75 6.9l-1.9 2.4-.8.95m17.65 1.3v-.05l-2.5 1.05-.9 2.55h2.25l1.8-2.75-.65-.8m-47.2 12.1.5 2.1 3.65.35L52.65 47l-8 .9" fill="url(#Q)" fill-rule="evenodd"/><path d="m83.25 33.35.3-.75 1.45-.05-.75 2.95L83 36.7l.25-3.35" fill="url(#R)" fill-rule="evenodd"/><path d="m48.6 39.4-.05-.15.05.1v.05" fill="#fff" fill-opacity=".482" fill-rule="evenodd"/><path d="M48.55 49.8 46.1 49l.5-.95 2.65 1.2-.7.55" fill="url(#S)" fill-rule="evenodd"/><path d="m73.45 25.1-1.1 3q-4.4-2.2-8.15-2.6l9.25-.4" fill="#845696" fill-opacity=".741" fill-rule="evenodd"/><path d="m74.65 38.25.15.5-.35.4-.1.15-.1.05q-2.85 2.9-7.35 4.85l2.5-1.65 2.9-1.9q1.95-1.4 2.2-2.35l.15-.05" fill="#ffe3b1" fill-opacity=".663" fill-rule="evenodd"/><path d="M74.6 38.2v.05l-.1.05.1-.1" fill="url(#T)" fill-rule="evenodd"/><path d="M19.65 23.55Q18.5 22 17.9 20.75q-1.4-2.7-1.4-5.6 0-3.75 2.4-7.4 1.95-3 4.6-4.5l-1.75 2.5q-5.95 9.3-.7 14.85l.15.1.2-.05.1-.1.05-.15v-.15q-.4-7.5 4.15-12.25-2.15 5.45.05 11.25l.45 1.1h.05l.1.15q1.35 2.7 7.6 3.55l-1.7 1-.1.1v.2l.05.15.15.05 5.15.65q-12 2.45-17.85-2.65" fill="url(#U)" fill-rule="evenodd"/><path d="m30.05 17.5-.2.25-.45-.95-1.3-1.8-.1-.3 1.1-.9q-.05.9.45 2.4l.5 1.3" fill="url(#V)" fill-rule="evenodd"/><path d="m29.85 17.75-.3.35L28.1 15l1.3 1.8.45.95" fill="#bda883" fill-opacity=".702" fill-rule="evenodd"/><path d="m18.65 26.85.8.75.4.35H17.9l-.3-1.35 1.05.25" fill="url(#W)" fill-rule="evenodd"/><path d="M3.5 35.45Q1.2 33.9 1.2 32.1q0-1 .4-2l.2-.45q1.15-1.25 3.5-2.05-.05 2.05 2.55 5.15l.1.1 1 .35q5.6 1.9 14.3 2.05-8.3 2.2-14.3 1.6-2.85-.3-5.15-1.15l-.3-.25" fill="url(#X)" fill-rule="evenodd"/><path d="M72.35 28.1q-4.4-2.2-8.15-2.6l-.8.05m.8-.05 9.25-.4" fill="none" stroke="#54216e" stroke-linecap="round" stroke-linejoin="round" stroke-width=".6"/><path d="m25.45 42.85.8-.35-.2-.65-.85.4-2.45 1.15.35.5 2.35-1.05m.65-1.65.15-.05.15.05.1.15.35 1.25v.2l-.15.1-3.6 1.6h-.15l-.15-.1-.7-.95-.1-.15.05-.15.15-.15 3.9-1.8" fill="#520f8c" fill-opacity=".875" fill-rule="evenodd"/><path d="m25.2 42.25.85-.4.2.65-.8.35-.25-.6" fill="#fff" fill-opacity=".753" fill-rule="evenodd"/><path d="m25.2 42.25.25.6-2.35 1.05-.35-.5 2.45-1.15" fill="url(#Y)" fill-rule="evenodd"/><path d="M48.55 39.25q.55-.75 2.05-2l1.95-1.7.85-.7-.85.3-2 .3-3.2.3 7.5-2.45 1.65.85-1.55 1.75-2.4 1.3-.7.4-3.05 1.65-.2.1-.05-.1" fill="#fff" fill-opacity=".753" fill-rule="evenodd"/><path d="m47.35 35.75 3.2-.3 2-.3.85-.3-.85.7-1.95 1.7q-1.5 1.25-2.05 2l-.15.25.2-.1v-.05l.2-.1 3.05-1.65.7-.4 2.4-1.3L52 39.2l-4.2 1.65-.7-.25-1.5-.4.2-.95.2-.95 1.25-2.55h.1" fill="url(#Z)" fill-rule="evenodd"/><path d="m54.95 35.9 1.55-1.75-1.65-.85-7.5 2.45h-.1L46 38.3l-1 2 2.45.7.35-.15L52 39.2l2.95-3.3m-.15-3.15.2.05 2.1 1 .1.1.05.2-.1.15-4.75 5.4-.1.05-4.7 1.8-.2.05-2.85-.8-.15-.05-.05-.15.05-.2 2.4-4.95.15-.1 7.85-2.55" fill="#54216e" fill-rule="evenodd"/></g><g id="ax" fill-rule="evenodd"><path d="M21.15 6.8 27 2.2q.1-.15.3-.15l.3.1.25.25q5.05 10.9 5.8 24.9l-.05.25-.15.2q-2.3 2.1-2.75 8.65l-.05.15-.35.75-.15.2-.05.3-2.05 4.4v3.6l-.15.15-5.05 4.55-.15.1.8 1.65.05.35-1.2 10.25-.15.3L19 66.5l.7 1.35.05.15 2.75 11.15v.35l-.25.3-.4.05-2.1-.65q-5.1-2.45-7.75-13.15v-11.7l-1.05-.7L9 60.15l1.7 6.1v.1l1.2 10.75-.1.4-.35.25-.4-.05q-6.8-3.6-8.55-17.25l-.4-4.25.1-.35 4.35-6.7q-2.25-4.95-4.2-11.4v-.3l-.15-.25-2.2-8V29l.1-1.5q.7-8.6 3.05-15.15h.3v-.9l.8-1.95.3-.3h.4l.3.3 3 6 2.55-5.3.05-.05L17.3.25l.3-.25.45.05.25.25 2.85 6.5m-.95 38.65L21.95 49l.25.55 4.1-4.6.6-2.9.1-.2 2.05-4.5.15-.25.05-.25.3-.65q.5-6.8 2.95-9.15-.35-6.45-1.7-12.25-1.35-6-3.7-11.25l-5.85 4.6-.3.1-.35-.1-.2-.25-1.6-3.65-1.1-2.5-1.3 1.95-.75 1.25-3.8 5.75-2.95 6.1.35.7.05.45q-.1.2.15 1.9.3 1.7-.35.2l-.7-1.65-.15-.4-.45-.95h-.05l-2.95-5.9-.25.7Q3.15 15.5 2.3 19.8q-.7 3.6-1.05 7.7l-.1 1.5 2.15 7.85v.3l.15.25q2 6.45 4.2 11.4L11 52.2l1.9 1.4.25.4h1.05l2-.5v-.05l-2-2.65-.15-.3.1-.3q1.45-3.15 4.85-5.65l.3-.1.35.1.25.2.3.7m2.25-13.85L22 27.95l-.05-.75-7.2 6.65-2.35 5.7.35-2.5 2-4.15 3.95-4.05L21 27.2l1.45-1.05 1.2 11.25-.6 3.7v-4.15l-.6-5.35m-3.9 33.65 2.25-2.3.4-.45 1.2-9.9-3.25-6.65-1.55 1.35q-1.45 1.4-2.25 3.05l1.85 2.5.1.25.2 1.45.05.2 1.15 7.55-.05.3-.85 2.55v.05l-.35 1.05.5-.35.6-.65M18.5 76.9q1.25 1.1 2.7 1.6l-2.55-10.15-.6-1.1-1.35.85-.35.1-.3-.15-.25-.25.05-.35.8-2.45-1.5-4.5v-.3l.25-1.3 1-4.2-.15-.7-.6.35-1.25.65-1.25-.6v11.45q2 8 5.35 11.05m-9.25-25L7.5 49.75 3.25 56.3l.45 4.15q1.5 11.7 6.95 15.6l-.15-1.3-.95-8.3-1.7-6.15V60L10 52.85l-.75-.95m8 11.3.3-.85-.7-4.5-.55 2.45.95 2.9" fill="#3b2445"/><path d="m20.85 16.05 2.5 9.8V20.8l4.4 4.75.55 6.1-2.8 10.6-3.65 3.65-1.65-.45-.3-.7-.25-.2-.35-.1-.3.1q-3.4 2.5-4.85 5.65l-.1.3.15.3 2 2.65v.05l-2 .5h-1.05l-.05-3.55L14.75 48l3.6-3.75 2.3-12.8L21 42.6l1.45-11 .6 5.35v4.15l.6-3.7-1.2-11.25L21 27.2q.1-7.25-.15-11.15m-.25-7.9-.1 4.55-.2-1.45-.95 6.6-1.7-9.8 1.6 3.8-.45-7.6 1.6 3.65.2.25" fill="#694278"/><path d="m20.85 16.05-.35-3.35.1-4.55.35.1.3-.1 5.85-4.6q2.35 5.25 3.7 11.25l.4 12.4-3 10.35v.55q-2.4 4.35-2.95 7.45L21.95 49l-1.75-3.55 1.65.45 3.65-3.65 2.8-10.6-.55-6.1-4.4-4.75v5.05l-2.5-9.8M8.4 18.4V26l-.3-1.05-3-9.8-.55-3.3.25-.7 2.95 5.9h.05l.45.95.15.4M18.8 4.25l.45 7.6-1.6-3.8Q16.9 4.5 16.4 3.7l1.3-1.95 1.1 2.5" fill="#51325f"/><path d="m20.5 12.7.35 3.35q.25 3.9.15 11.15l-2.3 1.65-3.95 4.05-2 4.15-.35 2.5-.45 1.75 3.85-6.9q2.85-1.55 6.2-6.45l.45 3.65-1.45 11-.35-11.15-2.3 12.8-3.6 3.75-1.65 2.45.05 3.55-.25-.4-1.9-1.4-3.35-3.4q-2.2-4.95-4.2-11.4l-.15-.25v-.3L1.15 29l.1-1.5q.35-4.1 1.05-7.7l2.15-3L8.5 28.25l-.4-3.3.3 1.05v-7.6l.7 1.65q.65 1.5.35-.2-.25-1.7-.15-1.9l-.05-.45-.35-.7 2.95-6.1 3.8-5.75 3.5 14.55.2-1.65.95-6.6.2 1.45" fill="#9a6bab"/><path d="m19.35 17.85-.2 1.65-3.5-14.55.75-1.25q.5.8 1.25 4.35l1.7 9.8M8.1 24.95l.4 3.3L4.45 16.8l-2.15 3q.85-4.3 2.25-7.95l.55 3.3 3 9.8m13.9 3q-3.35 4.9-6.2 6.45l-3.85 6.9.45-1.75 2.35-5.7 7.2-6.65.05.75M18.35 49.1q.7 2.3 1.15 5.8v6.6l-.95 3.75-.6.65-.5.35.35-1.05v-.05l.85-2.55.05-.3-1.15-7.55-.05-.2-.2-1.45-.1-.25-1.85-2.5q.8-1.65 2.25-3.05l.75 1.8m.15 27.8q-3.35-3.05-5.35-11.05V54.4l1.25.6-.6 5.7q.2 6.3 1.45 10.1l3.25 6.1m-8-2.15.15 1.3q-5.45-3.9-6.95-15.6l-.45-4.15 4.25-6.55 1.75 2.15-4.85 5.2-.05.35q-.25 7.45 6.15 17.3" fill="#fff"/><path d="m21.95 49 3.3-3.45q.55-3.1 2.95-7.45v-.55l3-10.35-.4-12.4q1.35 5.8 1.7 12.25-2.45 2.35-2.95 9.15l-.3.65-.05.25-.15.25-2.05 4.5-.1.2-.6 2.9-4.1 4.6-.25-.55" fill="#ffe3b1"/><path d="m20.8 62.95-.5-8.9q-.85-4.2-1.95-4.95l-.75-1.8 1.55-1.35 3.25 6.65-1.2 9.9-.4.45m-5.65-2.45 1.5 4.5-.8 2.45-.05.35.25.25.3.15.35-.1 1.35-.85.6 1.1L21.2 78.5q-1.45-.5-2.7-1.6l-3.25-6.1-.1-10.3m-5.9-8.6.75.95L7.85 60v.3l1.7 6.15-.45 2.65q-2.7-4.05-4.75-11.65l.05-.35 4.85-5.2" fill="#b4a7d2"/><path d="m18.55 65.25.95-3.75v-6.6q-.45-3.5-1.15-5.8 1.1.75 1.95 4.95l.5 8.9-2.25 2.3M14.4 55l1.25-.65-.25 4.55-.25 1.3v.3l.1 10.3Q14 67 13.8 60.7l.6-5.7M9.55 66.45l.95 8.3q-6.4-9.85-6.15-17.3Q6.4 65.05 9.1 69.1l.45-2.65" fill="#78779b"/><path d="m15.65 54.35.6-.35.15.7-1 4.2.25-4.55" fill="#b3a6d1"/></g><g id="ay" fill-rule="evenodd"><path d="m22.75 55.4-2.4 3.2-.3.2h-.3l-.3-.15-3.2-3.65-2.7 3.45-.25.2h-.35l-.25-.15-6.1-6.1-.1-.15L.1 39.2l-.1-.3.7-9.55.1-.2 6.9-13.1 1.15-9.8.2-.35q.15-.15.4-.15l.35.1 1.9 1.45L10.3.7q-.05-.2.05-.4l.35-.25h.45l5.35 2.8.1.1q7.3 6.6 13.3 16.3l.05.05q2.55 5.55 3.7 14.6v.15l-1.2 6.45-.2 1.2-.7 3.8-.15.3-.3.2-.3-.05L28 44.9l-1.95 4.4-1 2.35-.65 1.45-.05.1-1.15 1.55-.45.65m-3.7-48.45-3.15-3.1-.4-.2-3.8-1.95 1.45 6.95v.25l-.05.1.1-.05 4.5 7.1.8 2.35.8 2.35.6 4.35 1.85-3.1.25-.5.95-1.45q2.3 5.1 3.1 10.15-.5 5.55-1.65 6.7.75-2.4.85-8.1l-1.65-5.45-.65-2.3-1.9 3-2.65 4.25.95-2.45-.75-5.45-1.85-4.2-3.95-5.65L9.9 7.7 9.7 9l-.85 7.3-.1.2-1.7 3.35-1.1 2L1.9 29.6l-.7 9.25 6.3 12.8 5.55 5.55 2.75-3.45q.1-.15.25-.2h.35q.15 0 .3.15l1.8 2.05.5.6.85 1 3.2-4.3.35-.45 3.75-8.65.3-.3h.45l2.3.85.35.15 1.95-10.7q-1.1-8.75-3.55-14.1-4.6-7.35-9.9-12.9" fill="#3b2445"/><path d="m25.05 51.65 1-2.35q.85-1.05 1.7-1.45.95-.45 2.6-.45 1.7 0 3.7 1.75 1.45 1.25 2.55 3.1l1.45 5.55-1.65.9-1.55 1.05q-4.6-2.5-8.5-3.05-.8-1.2-1.05-2.05-.3-.8-.3-2.25l.05-.75m-2 1.4-3.2 4.3-.85-1L21.8 50l-1.1-9.15h.05l1.7 6.3.6 5.9M9.7 9l.2-1.3 2.9 2.85.6 4.15.75 4.85Q12.05 12.45 9.7 9m11.35 15.05 1.9-3 .65 2.3.3 6.85q-.45 4.7-1.5 7.05l-1.35 2.15q1.35-3 1.8-8l-1.8-7.35" fill="#fff"/><path d="m19 56.35-.5-.6-4.85-8.55-3.7-6.5-1.1 1.85Q7.2 32.1 7.05 19.85l1.7-3.35.1-.2L9.7 9q2.35 3.45 4.45 10.55l-.75-4.85 2.5 7.25 1.15 5.1-1.55 4.6 2.9-3.35 2.65-4.25 1.8 7.35q-.45 5-1.8 8l-.35 1.3-.05-.25.05.4L21.8 50 19 56.35m-.5-37.95-.8-2.35-4.5-7.1-.05-.05v-.25L11.7 1.7l3.8 1.95L21.75 22l-3.25-3.6" fill="#9a6bab"/><path d="m5.95 21.85 1.1-2q.15 12.25 1.8 22.7l1.1-1.85 3.7 6.5-3.2-4.2 3.3 7.75-.85 1.75-4.6-7.25-2.8-15.8.45-7.6m6.85-11.3 3.95 5.65 1.85 4.2.75 5.45-.95 2.45-2.9 3.35 1.55-4.6-1.15-5.1-2.5-7.25-.6-4.15m10.8 12.8 1.65 5.45q-.1 5.7-.85 8.1 1.15-1.15 1.65-6.7-.8-5.05-3.1-10.15L22 21.5v-7.1l5.7 8.15L28.85 33l-4 13.3-3-5.05.6 5.9-1.7-6.3-.05-.15.35-1.3 1.35-2.15q1.05-2.35 1.5-7.05l-.3-6.85M21.75 22l-1.85 3.1-.6-4.35-.8-2.35 3.25 3.6" fill="#694278"/><path d="m15.5 3.65.4.2 3.15 3.1 8.4 11.35 1.55 4 2.6 11.75-1.4 10.45-2.3-.85h-.45l-.3.3-3.75 8.65-.35.45-.6-5.9-.6-5.9 3 5.05 4-13.3-1.15-10.45L22 14.4v7.1l-.25.5L15.5 3.65m3 52.1-1.8-2.05q-.15-.15-.3-.15h-.35q-.15.05-.25.2l-2.75 3.45-5.55-5.55-6.3-12.8.7-9.25 4.05-7.75-.45 7.6 2.8 15.8 4.6 7.25.85-1.75-3.3-7.75 3.2 4.2 4.85 8.55" fill="#51325f"/><path d="M19.05 6.95q5.3 5.55 9.9 12.9 2.45 5.35 3.55 14.1l-1.95 10.7-.35-.15 1.4-10.45L29 22.3l-1.55-4-8.4-11.35" fill="#ffe3b1"/><path d="m23.2 54.75 1.15-1.55.05-.1.65-1.45-.05.75q0 1.45.3 2.25.25.85 1.05 2.05l-1-.1-2.15-1.85m2.85-5.45L28 44.9l2.8 1.05.3.05.3-.2.15-.3.7-3.8 2.6 4 1.75 6.55q-1.1-1.85-2.55-3.1-2-1.75-3.7-1.75-1.65 0-2.6.45-.85.4-1.7 1.45" fill="#b4a7d2"/><path d="m22.75 55.4.45-.65 2.15 1.85 1 .1q3.9.55 8.5 3.05l-1.1 1.05q-4.15-2.35-8.45-3.05l-.25-.05-2.3-2.3m9.5-13.7.2-1.2 3.45 4.6 3.25 12.1-1.1.6-1.45-5.55-1.75-6.55-2.6-4" fill="#463e72"/></g><g id="az" fill-rule="evenodd"><path d="m13.85 58.7.1-.1q-1.15-2.05-2-4.35v-.3l-.2-.25-.25-.85Q8 42.95 10.1 39.2l.2-.2.3-.1.3.1.4.2.8-11.1.2-.35.35-.15.4.1 3.3 2.35q.7-9.1 3.15-12.95.15-.2.35-.25l.4.05.3.3.3.75 4-11 .05-.1 4.7-6.6.35-.25h.35l.3.3 10.95 19.25.05.2 2.5 12.95 4.75-7.75.3-.25.3-.05q.2.05.3.2l.15.3 1.95 15.3-.05.2-3.9 13-.15.25v.3l-1.15 3.7-.15.25-6.7 5.9v.05l-.7.65-.15.2-.05-.1-1.45 1.3-.3.1h-.3l-.25-.2-1.2-1.5-1.85 1.35.05.15q-.45.3-.95.95l-.1-.4-1.9 1.3-.3.1.1.25-1-1.4h.1l.3.1h.15l2.5-1.75.05-.05.6-.4 2.05-1.45.4-.1.35.2.6.7.55.75 1.65-1.4.05-.05 5.6-4.9 1.2-1.1 1.05-3.55.2-.25v-.3l3.85-12.85L49 26.95l-.35.5-1.35 2.2-3 4.9-.3.25-.3.05-.3-.2-.15-.3-.05-.05-2.7-14.25-9.65-16.9-.8-1.5-1 1.4L25.9 7.4 24 12.7l-.7 2-1.7 4.65-.1.15.1.15 1.65 3.2q1.45 2.85-.35.25l-2.05-2.7-.15-.1-.2-.2-.5-1.2-.05-.15-.05.05q-1.9 4.05-2.45 12.35l-.05.3-.1.1-.35.15-.4-.1-2.35-1.65-1-.7-.25 3.45-.55 7.5-.15.35-.2.15 5.75 6.15.6 2q.6 2.5.9 6.05l-2.1-7.8-6.3-6.8-.4 2.05q-.2 3.65 2.05 10.1v.05l.3.8v.3l.2.25q.9 2.4 2.15 4.55l.05.05q1.1 1.95 2.5 3.7l.25.25.05.05q2.6 3.15 6.1 5.55l.2.2-.55.35-.8.4.1-.25q-3.1-2.2-5.45-4.9l-.3.5-.5-1.4h.05l-.2-.25-.75-.95-1.4-2.1-.2.2-.3-.6-.2-.5" fill="#3b2445" transform="translate(.05 .05)"/><path d="m14.35 59.8.2-.2 1.4 2.1-.6.85Q12 66.65 6 65.5l-.65 2.4-2.2 7.95L6.85 86l-.7 3.7q-3.15-5.1-5-12.75l.3-2.05q1.3-7.65 3.6-11.6H9.9l.4-.1 4.05-3.4M24 12.7l1.9-5.3 3.15-4.35q3.7 8.25 6.55 17.55l1.45 9.65q-4-13.25-8.55-23.1L24 12.7M39.75 37l.35 2 .4 1.75.35 13.1v.9l-1.4.85-11.5 6.65 9.95-7q1.7-6.1 1.85-18.25m-12.7 26.95-.3 3v.4q2.65 6.2 0 16.05l-.1.65q-1.15 7.9-7.9 15.9 2.3-5 3.35-13l3.35-3.5.15-.4V73.3l-.1-.3-1.65-2.2 3.2-6.85M39.7 89.3l-2.9 4.1-2.75 1.45 2.8-5.25.05-.25 1.05-11.6v-.25l-.15-.2-2-2.35-.05-.05-2.15-8.65q2.2.95 4.7 4.45 1.15 4.85 1.85 11.55l-.45 7.05" fill="#fff" transform="translate(.05 .05)"/><path d="m24.35 68.2-.2-.2q-3.5-2.4-6.1-5.55L18 62.4l-.25-.25 7.3 2.15 1.85-1.35-2.5 5.7-.05-.3v-.15M10.5 42.35l.4-2.05 6.3 6.8 2.1 7.8q-.3-3.55-.9-6.05l1.45 3.6v5.2l-9.35-15.3m3.7-12.4 2.35 1.65.4.1.35-.15.1-.05 1.05 4.5.75 5.55-1.7-3.15-3.3-8.45M20 18.9l.5 1.2.2.2.15.1 2.05 2.7q1.8 2.6.35-.25l-1.65-3.2-.1-.15.1-.15 1.7-4.65q1.4 2.4 2.7 8.35 1.3 6.1 1.3 9.85l-.35 2.15-.35 1.6-3.25-7.35Q21.1 24.2 20 18.9m23.2 15.4.05.05.15.3.3.2.3-.05.3-.25 3-4.9-1.2 18.45-2.85 5.1q-.7-7.95-2.75-12.45L40.1 39V23.9l3.1 10.4m-7.3 29.1-.35-.2-.4.1-2.05 1.45.85-3.75 4.65-3.65-2.7 6.05" fill="#694278" transform="translate(.05 .05)"/><path d="M17.75 62.15q-1.4-1.75-2.5-3.7l-.05-.05q-1.25-2.15-2.15-4.55l-.2-.25v-.3l-.3-.8v-.05Q10.3 46 10.5 42.35l9.35 15.3v-5.2l-1.45-3.6-.6-2-5.75-6.15.2-.15.15-.35.55-7.5 1.9 3.75q1.9 3.15 4.4 5.9l-.05-.8-.75-5.55-1.05-4.5v-.05l.05-.3q.55-8.3 2.45-12.35l.1.1q1.1 5.3 3.35 10.4l3.25 7.35.35-1.6.35-2.15q0-3.75-1.3-9.85-1.3-5.95-2.7-8.35l.7-2 4.5-5.55q4.55 9.85 8.55 23.1L35.6 20.6q2.35 7.8 4.15 16.4-.15 12.15-1.85 18.25l-9.95 7-.75.55-.3.15-1.85 1.35-7.3-2.15M36.5 64.1l-.6-.7 2.7-6.05.85-1.75 1.4-.85h.05l.1 2.6-4.5 6.75" fill="#9a6bab" transform="translate(.05 .05)"/><path d="m12.95 32.7.25-3.45 1 .7 3.3 8.45 1.7 3.15.05.8q-2.5-2.75-4.4-5.9l-1.9-3.75m16.1-29.65 1-1.4.8 1.5 7.4 14.4 1.85 6.35V39l-.35-2q-1.8-8.6-4.15-16.4-2.85-9.3-6.55-17.55m18.25 26.6 1.35-2.2.9 13.9-5.2 17.15-5.6 4.9-.05.05-1.65 1.4-.55-.75 4.5-6.75-.1-2.6-.05-.9-.35-13.1q2.05 4.5 2.75 12.45l2.85-5.1 1.2-18.45m-14.2 35.1-.6.4-.05.05-2.5 1.75h-.15l-.3-.1v-.05l-2.3-4 .75-.55 11.5-6.65-.85 1.75L33.95 61l-.85 3.75" fill="#51325f" transform="translate(.05 .05)"/><path d="m30.85 3.15 9.65 16.9 2.7 14.25-3.1-10.4-1.85-6.35-7.4-14.4m17.8 24.3.35-.5 1.65 13.5L46.8 53.3v.3l-.2.25-1.05 3.55-1.2 1.1 5.2-17.15-.9-13.9" fill="#ffe3b1" transform="translate(.05 .05)"/><path d="m13.85 58.7.2.5.3.6-4.05 3.4-.4.1H5.05q-2.3 3.95-3.6 11.6l-.3 2.05Q3 84.6 6.15 89.7l.7-3.7.8-4 .65-3.45-1.2-5.95v-.3l.15-.25 4.35-4.35.25-.15 2.55-.8 2.45-3.85.5 1.4-2.05 3.3-.35.2-2.65.85-4 4 1.15 5.8v.2L7 91.3l-.25.4-.4.1-.4-.25Q2.1 86 0 77.1v-.2l.3-2q1.4-8.3 3.9-12.45l.2-.2.3-.1h5l4.15-3.45M23 68.95l.8-.4.55-.35v.15l.05.3 2.5-5.7.3-.15 2.3 4-.1.05 1 1.4.75 2.65v.25L30.1 79.5l.6-.3h.4l.3.2.1.35v7.65l-.1.35q-4.45 6.1-8.25 9.9-3.15 3.15-5.8 4.7l-.4.05-.3-.2-.2-.3.1-.4q3.2-5.15 4.45-14.85 0-.2.15-.3l3.3-3.5V73.5l-1.95-2.6-.1-.25v-.3l.6-1.4M32.6 67q.5-.65.95-.95l.05.2 2.15 8.65.05.05 2 2.35.15.2v.25l-1.05 11.6-.05.25-2.8 5.25 2.75-1.45 2.9-4.1 1.25-1.75 1.6-2.3 1.9-12.95-1.6.85-.3.05-.3-.1-.2-.25-3.15-7.9.15-.2.7-.65 3.15 7.7 2-1.05.45-.05.3.2.1.45-2.05 14.2-.15.3-5.9 8.35-.15.15-4.55 2.4-.35.1-.35-.2-.15-.3q-.05-.2.05-.35l3.6-6.85 1-11.25-1.9-2.25-.15-.25-2.1-8.4M24 95.1q3-3.25 6.35-7.9v-6.55l-.75.35-.4.05-.3-.25-.1-.4 1.2-9.3-.5-1.75-2.45-5.4-3.2 6.85L25.5 73l.1.3v9.75l-.15.4-3.35 3.5q-1.05 8-3.35 13Q21.2 98.1 24 95.1" fill="#463e72" transform="translate(.05 .05)"/><path d="m15.95 61.7.75.95.2.25h-.05l-2.45 3.85-2.55.8-.25.15-4.35 4.35-.15.25v.3l1.2 5.95L7.65 82 4.5 73.45l.85-5.55.65-2.4q6 1.15 9.35-2.95l.6-.85m17.6 4.35-.05-.15 1.85-1.35 1.2 1.5.25.2h.3l.3-.1 1.45-1.3.05.1 3.15 7.9.2.25.3.1.3-.05 1.6-.85-1.9 12.95-1.6 2.3q1.35-10.8-2.3-16.3l-.35-.55q-2.5-3.5-4.7-4.45l-.05-.2m-6.9 18 .1-.65q2.65-9.85 0-16.05v-.4l.3-3 2.45 5.4.5 1.75-1.2 9.3.1.4.3.25.4-.05.75-.35v6.55Q27 91.85 24 95.1q1.45-2.25 2.65-8.15.8-3.25 0-2.9" fill="#b4a7d2" transform="translate(.05 .05)"/><path d="m5.35 67.9-.85 5.55L7.65 82l-.8 4-3.7-10.15 2.2-7.95m21.3 16.15q.8-.35 0 2.9-1.2 5.9-2.65 8.15-2.8 3-5.25 4.85 6.75-8 7.9-15.9M38.3 70.7l.35.55q3.65 5.5 2.3 16.3L39.7 89.3l.45-7.05q-.7-6.7-1.85-11.55" fill="#78779b" transform="translate(.05 .05)"/></g><g id="aA" fill-rule="evenodd"><path d="m33 2.45.4.15q.2.1.2.35l2.25 12.85v.25l-3.6 15.25-.1.15-3.45 6.1-.35.25H28l-.3-.25L26 34.5l-2.1 9.1-.05.15L18.8 55.4l-.3.3h-.45l-.35-.3-2.9-6.95-5-9-.1-.15-1.05-4.25-.4 1.95-.15.35-.3.15-.35-.05-.25-.25-6.1-10.95L1 26 0 5.5q-.05-.25.15-.45.15-.15.4-.15.25-.05.4.15l.2.4v.15l.15-.05q.25.05.4.25l4.65 5.45 2.75-5L9.35 6l.35-.05.35.2 2.2 2.65 3.95-7.25.35-.3.4.05.3.3 1.95 4.75L25.15.2l.4-.2q.2 0 .35.15l.25.3L27.8 7.9l4.8-5.25q.15-.15.4-.2M28.4 9l-.5.5-.35.2-.4-.1-.05-.1-.15-.25-.05-.05-1.65-7.45-4.4 4.55-5.35 10.35-.35.65-.15.6-.4-.5-.3-.7-.55-1.5-1.9-5.1-1.05-1.25-.65-.8-.45-.5-2.7 4.9-1.2 7.35-.2.8v.15q-.2.8-.45.4l-.4-.85-.05-.7.15-1.1 1-6.1L3.5 9.65 1.95 7.8l-.7-.8.6 12.1.3 6.7 5.3 9.45.55-3 .2-.3q.15-.15.3-.15l.4.15.2.3 1.7 6.7 5.05 8.95v.1l2.45 5.65L19.85 50l.6-1.3.45-1.15 1.85-4.25 2.2-9.4.25-1.15.1-.2.05-.1.3-.1.35.05.25.2 1.9 3.45 2.95-5.1 3.15-13.2.45-1.9-.45-2.7-.7-4-.85-4.85L28.4 9m-15.1 1.6 1.55 4.2.25 1.65 3.95-8.5-.35-.05-.25-.3-1.05-2.55-.75-1.9L13 9.85l.3.75" fill="#3b2445"/><path d="m27.15 9.6.4.1.35-.2.5-.5-.8 16.95-1.9 5.55-.4 1.05-.1.2-.25 1.15-1.65 3.9-3-19 6.75-9.3.1.1m7.1 3.55.45 2.7-.45 1.9-3.2 9.2v-4l3.2-9.8M14.6 17.4l.5 2.9 4.45 13.5-.15 4.95-9.3-16.5.35-3.3 5.1 10L13.65 17 10.8 8.85l1.05 1.25 1.9 5.1.55 1.5.3.7m-1.3-6.8-.3-.75 3.65-6.7.75 1.9-4.1 5.55m-9.8-.95 2.35 2.75-1 6.1L3.5 9.65" fill="#694278"/><path d="m27.05 9.5-6.75 9.3-.35.5-.4 14.5-4.45-13.5-.5-2.9.4.5.15-.6.35-.65L24.8 4.7q1.2 3.7 2.1 4.5l.05.05.15.25h-.05m.55 16.45L28.4 9l4.3-4.7.85 4.85-5.95 16.8M10.15 8.05l.65.8L13.65 17l1.9 11.95-5.1-10-.35 3.3 2.4 6.1 2.6 8.5L19.85 50l-1.55 3.65L15.85 48v-.1l-5.05-8.95-1.7-6.7-.2-.3-.4-.15q-.15 0-.3.15l-.2.3-.55 3-5.3-9.45-.3-6.7.1-11.3L3.5 9.65l1.35 8.85-.15 1.1.05.7.4.85q.25.4.45-.4v1.45l1.85-5.35.6-4.55 2.1-4.25" fill="#9a6bab"/><path d="M26.9 9.2q-.9-.8-2.1-4.5l-9.3 11.95L20.85 6.3l4.4-4.55L26.9 9.2M5.6 20.75v-.15l.2-.8L7 12.45l2.7-4.9.45.5-2.1 4.25-.6 4.55L5.6 22.2v-1.45M1.85 19.1 1.25 7l.7.8-.1 11.3m18 30.9L15.1 36.85l-2.6-8.5 7.95 20.35-.6 1.3" fill="#fff"/><path d="m20.3 18.8 3 19-2.4 9.75-.45 1.15-7.95-20.35-2.4-6.1 9.3 16.5.15-4.95.4-14.5.35-.5m5.4 12.7 1.9-5.55 5.95-16.8.7 4-3.2 9.8v4l-2.7 7.7-2.65-3.15M17.4 5.05l1.05 2.55.25.3.35.05-3.95 8.5-.25-1.65-1.55-4.2 4.1-5.55" fill="#51325f"/><path d="m25.3 32.55.4-1.05 2.65 3.15 2.7-7.7 3.2-9.2-3.15 13.2-2.95 5.1-1.9-3.45-.25-.2-.35-.05-.3.1-.05.1" fill="#faddae"/><path d="m23.3 37.8 1.65-3.9-2.2 9.4-1.85 4.25 2.4-9.75" fill="#e5c7a5"/></g><g id="aB" fill-rule="evenodd"><path d="m20.5 24.7.05-.2-.15-1.55.15 1.5L25.1 13.2v-.05Q29.6 5.1 34.85.1l.3-.1.3.15.15.3q-.15 9.85-1.6 17.6l-1.45 7.85-.05.05-1.15 3.45.2 2.5.1-.05-.75 1.55-.2.4-.1.25.05-.35.1-.55-.3-3.75v-.2l1.2-3.5.15-.95.45-2.15.55-3.05.35-1.65.35-2.35.8-6.5.4-7.55Q30 6.25 25.9 13.6l-5.1 12.8.1 1-.05.35-.25.2-.1-3.25m8.9 21.9.1.3-3.75 3.6-1.4-.9.3 2.1v.15l-1.5 5.85-.1.2-.25.05-.2-.05-.15-.25-.25-.95q-.6 3.1-1.55 4.5l-.2.15-.25-.1-.15-.2-.65-3.15-.25 4.75-.1.25-.25.1h-.05l-.2.15-.25-.05-.2-.2-1.25-4.05-.05.1-.25.25v.05l-.2.2-.35.05-.3-.2q-1.9-3.2-2.55-8.35L13 49.3l-.65-.45-.4.3-.25.1-.3-.1-2.35-1.65-.15-.2V47l.45-1.45.2-.7.4-1.35v-.05l.15-.6.25-.25.15-.05-.85-.7-.1-.25.05-.2.25-.1.2.05 2.25 1.9 3.1 2.65 7.3-4.25 3.05-2.05.2-.1.15-.05h.05l.25.15v.25l-.1.2q-4.7 3.25-10.8 6.5l-.2.05-.2-.05-3.25-2.8L11 43l-.05.1-.2.8-.9 3.1 1.85 1.25.1-.1.3-.2.25-.1.3.1 1.05.75.15.15v.2l.05.15.2 1.75q.5 4.2 1.95 7.05v.05l.05-.1.05-1-.35-4.15-.05-.45-.05-.4-.05-.7v-.55q0-.35.15-.35l.5.85.35 1 .15 1.1.25 3.65v.2l1.45 4.55.1-2.4.1-2.1.05-1.65.05-.6-.1-.85v-1.15q0-.35.3.45l.1.25.4 1.25 1 5 .35-.8.1-.35.8-3.9v-.75q-.05-.6.05-.8l.35.6.15.55v-.15l.15.5.35 1.3.85-3.45.25-.9-.35-2.35.1-.3.25-.15.2.05.05.05 1.55.9.4-.35 2.85-2.75-.7-3.45.45.7.55 2 .15.5M5.65 33.2l-.95-1.8-.05-.3-.15-.2Q2.1 25.15.4 16l-.05-.05q-1-7.1.95-12.3l.2-.25h.35l.1.05.25.05.25.25 5.5 13.2L10 23.3l-.15 1.95-.1-.05-.15-.2-2.55-7.75-.85-2.15-2.35-5.6v-.05l-.25-.6L1.85 4.7Q.35 9.45 1.3 15.85l1.3 6.2.1.35q1.2 4.7 2.65 8.15v.3l.15.1 1.05 2L8.25 37l.05.15.8 1.95q.45 1.2-.15.2l-1.1-1.95-.1-.2-.85-1.55-1.15-2.2-.1-.2M1.3 15.85v-.05.05M29.9 36.5l.05-.3.05.05-.1.25m.65-1.05v-.05l.2-.35-.2.4m5.85-2.9.05.6-.05-.1v-.5" fill="#3b2445"/><path d="m20.6 27.95.25-.2.05-.35-.1-1 5.1-12.8Q30 6.25 34.7 1.5l-.4 7.55Q31.95 16.9 29.65 21q-1.3 2.3-3.95 5.45l-.85 1 .8-1.4 1.6-2.95 1-1.6v-.85l-.2-3.8-.75-4-1.65 3.5Q24 19.6 23.45 21.1l-.95 2.3-.8 2.15-.15.6-.45 2.3-.85 3.45.35-3.95m8.95-9.3.2-.75.6-2.35.25-2.7.1-1.65v-1.1l-.05-1.75-1.85 2.15.55 2.6.25 3.75-.05 1.75v.1-.05M1.3 15.85q-.95-6.4.55-11.15L3.6 8.85q-1.55 2.25-1.55 6.7 0 1.7.15 2.85l.4 3.65-1.3-6.2m11 27.4-.25-2-.35-2.1.8 1.4 2.25 3.55.4-.3.15.8.1 1.3-3.1-2.65M35.05 28.9l1.1-1.4.05 1.35-1.5 4.35q.85-2.75.35-4.3m-6.55 11q.75 1.4 2.9 0l2.05-3.75-2.35 5-.15.3q-1.7.65-2.7-.4l.25-1.15M5.15 34.8 5 34.15l.8.95 4.1 8.35-1.2-1.4-3.55-7.25m6.65 13.35-.1.1L9.85 47l.9-3.1v3.05l1.05 1.2m9.05 10.95-.35.8-1-5-.4-1.25.85 1.6.9 3.85m-2.25.2-.1 2.4-1.45-4.55v-.2l-.25-3.65 1.8 6M16.05 58q-1.45-2.85-1.95-7.05l-.2-1.75.9 2.9 1.3 5.85-.05.05" fill="#fff"/><path d="m32.8 19.55-.55 3.05q-1.95 4.05-5.15 7.5-2.7 2.9-5.85 4.95l-1.4 4.55q-1.2 2.6-3.05 2.8l.75-.8q1.35-1.55 1.9-2.9l.05-.4.55-4.3.2-2.1.85-3.45.45-2.3.15-.6.8-2.15.95-2.3q.55-1.5 2.2-4.75l1.65-3.5.75 4 .2 3.8v.85l-1 1.6-1.6 2.95-.8 1.4-1.75 2.4q-.9 1.3-.9 1.75l2.55-2.6 2.45-2.7 2.6-3.85q2.05-2.85 3-2.9m-3.25-.95.05-1.75-.25-3.75-.55-2.6 1.85-2.15.05 1.75v1.1l-.1 1.65-.25 2.7-.6 2.35-.2.75v-.05M3.6 8.85l.25.6v.05q.65 3.25 1.75 13.6.65 5.95 1.6 9.35l.25.75L9 35.25l1.9 1.8.05.15.75 1.95.35 2.1.25 2-2.25-1.9-.95-2.25-.8-1.95-.05-.15-1.7-4.05-1.05-2-.15-.1v-.3Q3.9 27.1 2.7 22.4l-.1-.35-.4-3.65q-.15-1.15-.15-2.85 0-4.45 1.55-6.7M27.9 30.6l.5-.2q.35 0 .55.25l.2.6q0 .75-1.5 2.55-1.5 1.8-2.2 1.8l-.75-.25q-.35-.3-.35-.9l.15-.75h.05l3.3-3.1h.05M10.75 43.9l.2-.8.05-.1.85.75.05.8.1 2.55q1.25.05 2.65 1.45l1.05 3.4.05.4.05.45.35 4.15-.05 1-1.3-5.85-.9-2.9-.05-.15v-.2l-.15-.15-1.05-.75-.3-.1-.25.1-.3.2-1.05-1.2V43.9m9.5 2.35 6-3.6q1.35.75 1.55 3.55l-2.15 2.85q-1.7-1.25-3.5-.2-1.4-1.2-1.9-2.6m3.4 6.4-.85 3.45-.35-1.3-.15-.5-.8-4.4q.95.6 2.15 2.75m-1.35 1.8-.15-.55.1.2v.05l.05.3m-1.35 4.3-.1.35-.9-3.85-.85-1.6-.1-.25q-.3-.8-.3-.45v1.15l.1.85-.05.6-.75-2.8q-.2-2.65.25-3.35l2.15 5.05.55 4.3M18.7 57.2l-.1 2.1-1.8-6-.15-1.1-.35-1-.5-.85V48.7q1.65 1.95 2.9 8.5" fill="#9a6bab"/><path d="m34.3 9.05-.8 6.5q-2.2 4.2-3.65 6.2l-4.15 4.7q2.65-3.15 3.95-5.45 2.3-4.1 4.65-11.95M32.25 22.6l-.45 2.15L30.45 27l-2.15 3.1-.4.5h-.05l-3.3 3.1h-.05l-.65.55q-.6 1.5-.9 3.6-.3 2-.25 3.8l-7.3 4.25-.1-1.3-.15-.8 1.65-1.4q1.85-.2 3.05-2.8l1.4-4.55Q24.4 33 27.1 30.1q3.2-3.45 5.15-7.5M3.85 9.5l2.35 5.6.7 8.15q.3 3.3 1.2 6.25l.85.9 1.1 1 .75 5.15.1.5-1.9-1.8-1.55-2.05-.25-.75q-.95-3.4-1.6-9.35Q4.5 12.75 3.85 9.5m22.3 29.95q1.45-.85 2.95-1.65l-.15.3-.35.55-.85 3-1.5 1-6 3.6-2.05 1.15-2.4.35q-2.55-1.2-3.9-3.2l-.05-.8 3.25 2.8.2.05.2-.05q6.1-3.25 10.8-6.5l.1-.2v-.25l-.25-.15" fill="#51325f"/><path d="m33.5 15.55-.35 2.35-.35 1.65q-.95.05-3 2.9l-2.6 3.85-2.45 2.7-2.55 2.6q0-.45.9-1.75l1.75-2.4.85-1 4.15-4.7q1.45-2 3.65-6.2M30.65 33.7l-.05.35-.05.15v-.05l-.6 2.05-.05.3-.8 1.3q-1.5.8-2.95 1.65h-.05l-.15.05-.2.1-3.05 2.05q-.05-1.8.25-3.8.3-2.1.9-3.6l.65-.55-.15.75q0 .6.35.9l.75.25q.7 0 2.2-1.8 1.5-1.8 1.5-2.55l-.2-.6q-.2-.25-.55-.25l-.5.2.4-.5 2.15-3.1-.5 1.8q-.2 1-.15 2.2l.2 1.55.65 1.15M6.2 15.1l.85 2.15L9.6 25l.15.2.1.05-.3 1.7-.05.4.55 4.05-1.1-1-.85-.9q-.9-2.95-1.2-6.25l-.7-8.15m21.55 26.55-.15.55.25.5.2.35.4 3.4-2.35 3.15-.4.35-1.55-.9-.05-.05-.2-.05-.25.15-.1.3.35 2.35-.25.9q-1.2-2.15-2.15-2.75l.8 4.4-.05-.15v-.05l-.1-.2-.35-.6q-.1.2-.05.8v.75l-.8 3.9-.55-4.3-2.15-5.05q-.45.7-.25 3.35l.75 2.8-.05 1.65q-1.25-6.55-2.9-8.5v1.65q-.15 0-.15.35v.55l.05.7-1.05-3.4q-1.4-1.4-2.65-1.45l-.1-2.55q1.35 2 3.9 3.2l2.4-.35 2.05-1.15q.5 1.4 1.9 2.6 1.8-1.05 3.5.2l2.15-2.85q-.2-2.8-1.55-3.55l1.5-1" fill="#694278"/><path d="m13 40.35-1.3-2.3q-1.25-6.8-1.25-10.95v-.3L12 21.7l.95-2-1.45 10.15q.3 6 1.5 10.5m6.5-5.9-.2 1.45h-.05q-.25-.3-.65-.3t-.65.3q-.3.35-.3.75 0 .45.3.75.25.3.65.3l.4-.05-.2.8v.1l-1.25-.4q-.7-.6-.7-1.45 0-1.65 1.8-2.25h.85m-2.45-9.35.4.15.15.35-.15.4-.4.15-.35-.15-.15-.4.15-.35.35-.15m-1.8 13.7q.35-.35.8-.35.5 0 .8.35.35.35.35.8 0 .5-.35.85-.3.35-.8.35l-.8-.35q-.35-.35-.35-.85 0-.45.35-.8m.8 1.25.15-.25-.15-.25-.25-.1-.3.1-.1.25.1.25.3.15.25-.15" fill="#ff2f61"/><path d="M16.55 16.8q1.6 4.05 3.2 9.85v.05l.1.2-.05 1.85-.2-.1q-.2 0-.35.2v.5l.05.05.2.05.3-.15-.3 5.15h-.85q-1.8.6-1.8 2.25 0 .85.7 1.45l1.25.4q-2.1 3.4-4.2 4.7l-.25-.5-.65-4.3q-.8-5.8-.15-9.85l.15.05.35.1q.55 0 1.1-.5.6-.55.6-1.05 0-.8-.55-1.35-.35-.35-1.15-.8.8-5.1 2.5-8.25m.5 8.3-.35.15-.15.35.15.4.35.15.4-.15.15-.4-.15-.35-.4-.15m-2.2 7.9-.2-.45-.45-.2-.45.2q-.15.2-.15.45l.15.4.45.2.45-.2.2-.4m2.35-1.55-.15.3.15.3.3.15.3-.15.1-.3-.1-.3-.3-.1q-.2 0-.3.1m-1.95 7.35q-.35.35-.35.8 0 .5.35.85l.8.35q.5 0 .8-.35.35-.35.35-.85 0-.45-.35-.8-.3-.35-.8-.35-.45 0-.8.35" fill="#d90634"/><path d="m12.95 19.7 2.55-5.35 1.05 2.45q-1.7 3.15-2.5 8.25.8.45 1.15.8.55.55.55 1.35 0 .5-.6 1.05-.55.5-1.1.5l-.35-.1-.15-.05q-.65 4.05.15 9.85l.65 4.3-1.35-2.4q-1.2-4.5-1.5-10.5l1.45-10.15m6.85 9.05v.55l-.3.15-.2-.05-.05-.05v-.5q.15-.2.35-.2l.2.1m-.5 7.2-.3 1.7-.4.05q-.4 0-.65-.3-.3-.3-.3-.75 0-.4.3-.75.25-.3.65-.3t.65.3l.05.05m-2.1-4.5q.1-.1.3-.1l.3.1.1.3-.1.3-.3.15-.3-.15-.15-.3.15-.3M14.85 33l-.2.4-.45.2-.45-.2-.15-.4q0-.25.15-.45l.45-.2.45.2.2.45m1.2 7.05-.25.15-.3-.15-.1-.25.1-.25.3-.1.25.1.15.25-.15.25" fill="#fff5f7"/><path d="m20.5 24.7.1 3.25-.35 3.95-.2 2.1-.55 4.3-.05.4q-.55 1.35-1.9 2.9l-.75.8-1.65 1.4-.4.3-2.25-3.55-.8-1.4-.75-1.95-.05-.15-.1-.5-.75-5.15-.55-4.05.05-.4.3-1.7.15-1.95.1.35 5-10.55.25-.25h.3l.25.25q2.2 4.4 4.4 12.05l.2-.45m-7.55-5-.95 2-1.55 5.1v.3q0 4.15 1.25 10.95l1.3 2.3 1.35 2.4.25.5q2.1-1.3 4.2-4.7v-.1l.2-.8.3-1.7v-.05l.2-1.45.3-5.15v-.55l.05-1.85-.1-.2v-.05q-1.6-5.8-3.2-9.85l-1.05-2.45-2.55 5.35" fill="#920221"/><path d="m30.6 34.05.1-.25.2-.4.75-1.55 4.55-5.9.2-.15h.25l.25.15.05.25.35 6.8-.1.3-.3.15q.15 2.8-.85 5.9-1.7 3.45-4.1 5.85l-1.6 1.95-.95-.55-.15-.5.85.35 1.5-1.55q2.1-2.4 4.2-6.2.75-3 .65-5.55l-.05-.6-.05-.35-.15-3.35-.05-1.35-1.1 1.4-3.45 4.5-.45.8-.3.6-.1.25-.2.35v.05l-.65 1.05.1-.25-.05-.05.6-2.05.05-.1M9.35 45.55 7.55 44l-1.7-3-2.5-9.55 2.3 1.75.1.2 1.15 2.2.85 1.55-.05.05-1.9-2.1-.8-.95.15.65 1.1 4.45.3 1.1 1.4 2.8 1.6 1.7-.2.7m19.6-7.45-.45 1.8-.25 1.15-.4 1.65-.25-.5.15-.55.85-3 .35-.55" fill="#032d88"/><path d="m9.1 39.1.95 2.25-.2-.05-.25.1-.05.2.1.25.85.7-.15.05-.25.25-.15.6H9.9L5.8 35.1l1.9 2.1.15.15 1.1 1.95q.6 1 .15-.2m20-1.3.8-1.3.65-1.05.2-.4.1-.25.3-.6.45-.8 3.45-4.5q.5 1.55-.35 4.3l-1.25 2.95-2.05 3.75q-2.15 1.4-2.9 0l.45-1.8.15-.3" fill="#27f6ff"/><path d="m36.2 28.85.15 3.35q-2.6 6.15-5.25 8.95l2.35-5 1.25-2.95 1.5-4.35M6.25 39.25l-1.1-4.45 3.55 7.25-2.45-2.8" fill="#0053a8"/><path d="m36.35 32.2.05.35-.95 5.4-3.85 6.95-1.5 1.55-.85-.35-.55-2-.45-.7-.2-.35-.2-.35.4-1.65q1 1.05 2.7.4l.15-.3q2.65-2.8 5.25-8.95M9.55 44.85l-1.6-1.7-1.4-2.8-.3-1.1 2.45 2.8 1.2 1.4.05.05-.4 1.35" fill="#028cd3"/><path d="m31.8 24.75-.15.95-1.2 3.5v.2l.3 3.75-.1.55-.65-1.15-.2-1.55q-.05-1.2.15-2.2l.5-1.8 1.35-2.25m-3.75 18.3.2.35.7 3.45-2.85 2.75 2.35-3.15-.4-3.4" fill="#ffe3b1"/><path d="m24.65 41.05 1.15.2.05.8-1.05.95q-.1-.85-.7-1.6l.55-.35m-4.6 5.45-.8-.4.65-1.4q.2.7.9 1.4l-.75.4m.4-2.55 3.1-2.15.3 1.35v.7h-.05l-2.2 1.75q-.95-.45-1.15-1.65m-7.2 1.45q-.35.1-.65-.2l-.3-.45.9.45.05.2m-1.55-1.15-.05.6-.35-1.05.4.45" fill="#0972ae"/><path d="m19.9 44.7-.05-.4.6-.35q.2 1.2 1.15 1.65l-.8.5q-.7-.7-.9-1.4m3.65-2.9.55-.4q.6.75.7 1.6l-.95.85v-.7l-.3-1.35m-10.3 3.6.1.15.05.1-.15.2-.35.1h-.05l-.1-.1-1-.7-.1-.3.05-.6.4.4.2.1.3.45q.3.3.65.2" fill="#d7a5e7"/><path d="m11.75 45.15 1 .7v.1l-.25-.1-.25-.15-.4-.25v-.05l-.1-.25m12.1-1.3.95-.85-.15 1.2q-.3 1.6-1.55 2.3l-2-.1-.3-.3.8-.5.95.2q1.1-.6 1.3-1.9v-.05" fill="#fff"/><path d="m12.9 45.95.35-.1.15-.2.2 1-.7-.65v-.05" fill="#126eab"/><path d="M25.85 42.05q0 1.2-.4 2.7l-2.95 2.4-2.45-.65.75-.4.3.3 2 .1q1.25-.7 1.55-2.3l.15-1.2 1.05-.95m-12.25 4.6.05.2v.2q-1-.45-1.65-1.2l-.15-.4.4.25.25.15.25.1h.1l.05.05.7.65m10.2-2.8.05.05q-.2 1.3-1.3 1.9l-.95-.2 2.2-1.75" fill="#27f6ff"/><path d="m19.35 44.65.5-.35.05.4-.65 1.4.8.4 2.45.65 2.95-2.4q.4-1.5.4-2.7l-.05-.8-1.15-.2.6-.4 1 .4q.35 1.35-.25 3.65-1.4 2.3-3.85 2.9-2.1-.4-3.5-1.45l.7-1.5m-5.95 1-.05-.1-.1-.15-.05-.2v-.5l.2.1.75 2.55-.65.2q-1.05-.5-1.95-1.6l-.9-3.4.3.35.35.9.35 1.05v.05l.2.5v.05l.15.4q.65.75 1.65 1.2v-.2l-.05-.2-.2-1" fill="#023e85"/><path d="m19.85 44.3-.5.35.4-.8 1.25-.7 3.75-2.7.5.2-.6.4-.55.35-.55.4-3.1 2.15-.6.35m-7.55.45-.2-.1-.4-.4-.4-.45-.35-.9 1.25 1.3 1 .5v.5l-.9-.45" fill="#3b2445"/></g><g id="aC" fill-rule="evenodd"><path d="M12.3 22.1v-6.75l.35-1.9.15-.2q.05-.1.2-.1l.2.15 4.35 4.5.05.05 1.1 2.45 3.15-4.45.15-.15h.2l.15.1 1.5 2.05 1.4-3.65.05-.1 5.15-6.8L37.7.65l.2-.05.2.05.1.2.85 6.8L48.3.1l.4-.1q.25 0 .4.15l.15.45-.45 11.35v.1l-1.3 5.3 6.75-3.25.45-.05.3.3.05.45-3.65 12.15-.2.25-13.7 12.25-.35.15-.4-.1-.2-.35-.45-1.75-4.55 5.3q-.15.2-.4.2l-.4-.15-.2-.3-.1-.05-.15-.4-1.6 1.6-.05.1-4.35 3.9-.65.5-.1.1-.4.1-.35-.2-4.85-5.4v.2l-.05.45-.4.25-.4-.1-1.15-.7q-6.05-4-11.3-9.8l-.2-.2-.1-.2L0 17.5l.05-.45.25-.25V7.7l.2-.4q.15-.2.35-.2l.45.15 5.2 4.6.1.1 4.3 6.25.25.85v.45l-.1.35q-.2.15-.6-.3l-.5-.65-4.25-6.25L2.05 9.5l-.6-.55v8.7l-.1.35 1.8 6.2.1.4 2.15 7.55q4.85 5.35 10.45 9.15l.75.5-.2-.95q-.05-.2.05-.35l.25-.25.35-.05.35.15 5.85 6.6.4-.3q2.7-2.2 5.6-5.25l1.2-1.3.3-.15h.35l.15.1.1.15.1.3v.55L36 35.8l.35-.25.4.1.6-2.25.05-.2.5-2.5-.45 7.25L49.1 27.6l1.2-1.15 1.55-5.1.6-2 1.1-3.65-1.9.95-.6.25-.55.3-3.85 1.85-1.85 2.4-.05.05-.5.65-.4.4q-.05-.1.45-1.15l.45-.85.95-1.95.45-.6h.05v-.15l1.45-5.95.2-4.55.2-5.55-5.7 4.65-.2.2-.15.15h-.05L39.2 9 38 11.6l-.1.2q-1.1 2.7-.9 1.5v-.05q.2-1.25.75-3.15l.75-2-.1-.15-.5-4.2-.25-2.2-6.7 6.15-.25.3-4.85 6.45-.05.15-1.6 4.05-.15.2h-.2l-.2-.1-1.5-2.15-.05-.05-.1.15-3.1 4.45-.2.15-.2-.05-.15-.15-.35-.7-.95-2.2-3.4-3.55-.45-.45-.2.9-.05.35v8.65l-.1.2-.2.1-.25-.1-.1-.2v-2m5.55 1.4 1.3 1.15 1.35-3.15.65-1.45V20l.15-.15h.15l.15.1v.2q-.55 2.55 1.15 3.85l1.55.95 1.2.9.6-.45.25-.25.65-.35 1.4.15 1-.15.6-.15.05-.1.25-.05 1.05-.35h.05l1.4-1.1 1.7-1.1 1.7-.95.2-.05.15.1.05.15v.1l-.05.2q-.8.85-1.75 2.45l-1.6 2.7q-.25.45-2.3 1.5-1.45.75-1.5 2.2v.15h.05l2.25-.45 2.3-.75h.2l.2.1.05.15v.1l-.05.1-.95 2.25v.05l-.05.05q-.8 1.75-1.55 2.45l-.05.05-.85.45-1 .6q-1.4.8-1.45 1.2l.35.6.75.9.05.15-.05.2-.15.1q-2.45.45-3.7 1.8-1.45 1.5-1.05 3.85v.15l-.1.15h-.35l-.1-.1-.65-.6-.2-.2-1.1-1-1.9-1.6-.25.2v.05l-.15.05h-.15q-.55-.2-1.15-.75v-.05l-.85-.8-1-.4-1.25-.45-.05-.05-.2-.15-.3-.5-.1-.4-.45-.35-.45-.35-1.6-2.15-.1-.15v-.15l.1-.1q.1-.1.15-.1h.8l.1.05.35.1-2.45-3.15q-1.7-2.5-1.75-4.7l.1-.2.2-.1.2.1.05.15 1.6.95 1.5.7.25-3.7.15-3.75.05-.1q.05-.1.15-.1l.15.05.1.1q.5 1.25 1.65 2.6.95 1.15 1.75 1.45l.1.05-.05-.1V25l-.2-.3-.05-.2v-1.05l.05-.15.2-.05h.1l.05.05.2.2m14.85 8.8.25-.5.7-1.7-1.85.5-2.6.55h-.15L28.9 31l-.05-.15v-.5q.05-1.8 1.8-2.7 1.8-.95 2.05-1.3l1.6-2.7 1.05-1.5q-.25.1-.55.3l-1.7 1.1h-.05l-1.35 1v.05q-.75.55-1.5.45l-.7.2-1.15.2-1.35-.2-.6.5-.75.6-.1.05h-.15l-.1-.1q-.35-.45-1.25-.9l-1.6-1Q21.1 23.35 21 21.55l-.65 1.4-.9 2.2-.1.1h-.3L17.8 24.1l-.1-.1v.45h.05l.2.4.1.6v.15l-.1.1h-.15q-1.05-.05-2.45-1.75L14 22.1l-.1 2.8-.25 4-.1.1v.05l-.1.05-.15-.05-1.8-.75-1.3-.75q.2 1.75 1.55 3.75l2.9 3.75.1.15-.1.2-.4.15h-.1l-.9-.35h-.1l.05.05v.05l1.2 1.65.3.2.55.45v.05l.25.6.3.35 1.1.4 1.2.5.9.85.8.6.25-.2.15-.1q.3-.05 2.35 1.8l1.5 1.4q-.15-2.2 1.3-3.65 1.2-1.35 3.5-1.85l-.45-.55q-.45-.5-.45-.95-.05-.65 1.7-1.7l1.4-.85.45-.2 1.2-1.8m-12.6-6.55.85-.05q2.65 0 4.4 2v.05l.3.4q1.8 2.35 1.95 5l.05.4q.05 2.4-1.85 4.25-.65.65-1.45 1.1-1.5.85-3.4.85h-.6q-2.55-.2-3.95-1.95-1.65-1.95-1.8-4.85-.05-1.05.15-1.95.3-1.75 1.5-3.15 1.5-1.85 3.85-2.1m4.55 12.35.1-.05.7-.65q1.6-1.6 1.65-3.75l-.05-.45q-.2-2.5-1.85-4.75l-.25-.3-.6-.2-.35-.05-1.1-.25q-1.55 0-2.7 1.3-1.05 1.25-1.05 2.85.05 1.3 2.1 2.6 2.4 1.55 2.35 2.75 0 .95-1.6 2.15l.6-.3q1.1-.25 2.05-.9m-3-10.8.35-.1.9-.1 1.25.25q-1.35-1.1-3.2-1.1l-.9.05q-2.05.3-3.4 1.95-1.65 1.95-1.5 4.65.15 2.75 1.65 4.55 1.1 1.3 2.8 1.65l1.05.1.2-.1 1.35-.65q.8-.6.85-1.3-.05-.9-2.1-2.25-2.4-1.55-2.35-3.1 0-1.85 1.2-3.2.8-.95 1.85-1.3" fill="#3b2445"/><path d="m13 15.1.2-.9.45.45q1.2 3.6 2.65 6.4-.8-.5-1.95-2.75-.85-1.7-1.35-3.2M30.7 8l.25-.3 6.7-6.15.25 2.2-2.9 6.2-1.9 4.25-.1.25-.3 3.75-.05 1.1-.05.4-.6 2.45.3-2.95.4-4.85 1-2.35.25-1.9v-.05L34 9.9v-.1l.15-1.7-.05-.1-.2-.3-.7-.95-1.35.6q-.55.25-1.15.65M42 6.8l.15-.15.2-.2 5.7-4.65-.2 5.55-3.4 5.75-3.35 4.7-.15.2v.05L39.1 20.3q1.75-2.75 5-9.75l-.15-1.6-.4-2.85-1.55.7m8.5 10.4.55-.3-.2 1.35q-.15 1.2-.45 1.5v.1l.05-.05q1.05-.5 1.2-1.65v-1.5l1.9-.95-1.1 3.65-6.35 3.4-.4.2 1.1-.7q3.05-2.25 3.3-2.75l.4-2.3M23.65 46.65l-.4.3-5.85-6.6-.35-.15-.35.05-.25.25q-.1.15-.05.35l.2.95-.75-.5-.05-.4-.35-1.8h.05l1.25.45 1 .4.85.8v.05q.6.55 1.15.75h.15l.15-.05v-.05l.25-.2 1.9 1.6 1.1 1 .2.2.15 2.6M3.15 24.2 1.35 18l.1-.35v-8.7l.6.55q1.55 4.65 4.25 7.65l1.2 1.4L9 19.9l1.4 1.3.65.65-2.8-1.5q-1.9-1.05-3.05-2.2L3.8 21.2q-.55 1.35-.55 3h-.1m-1.2-4.85 1.45-3.6-.9-1.55-.55 5.15m33.3-12 .55-1.25.75-2.05L34.2 5.8l.7.95.35.6m7.6-.05q.45.1.55.7l.05 1.2v1.05q-.1.65-.45.75-.4.05-.55-.65l-.25-1.4q-.05-.7.15-1.1l.4-.5.1-.05m1.45-1.25.5 2.35.95-.9-.2-1.3-.2-1.85L44.3 5.9v.15M32.2 8.1l.35-.1q.5 0 .9.55.45.55.45 1.25v.25h-.05l-.35.3q-.5 0-.9-.5-.45-.6-.45-1.35l.05-.4m-7.55 30q-.95.65-2.05.9l-.6.3q1.6-1.2 1.6-2.15.05-1.2-2.35-2.75-2.05-1.3-2.1-2.6 0-1.6 1.05-2.85 1.15-1.3 2.7-1.3l1.1.25.35.05q-.8.25-2.55 1.4-1.75 1.15-1.7 2.15.1.95 2.35 2.25t2.25 2.7l-.05 1.65" fill="#fff"/><path d="M12.3 23.9v.2l.1.2.25.1.2-.1.1-.2v-8.65l.05-.35q.5 1.5 1.35 3.2 1.15 2.25 1.95 2.75l.1.1 1.15 2.05-.05.05-.2.05-.05.15v1.05l.05.2.2.3v.05l-.05.05q-.8-.3-1.75-1.45-1.15-1.35-1.65-2.6l-.1-.1-.15-.05q-.1 0-.15.1l-.05.1-.15 3.75-.25 3.7-1.5-.7-1.6-.95-.05-.15-.2-.1-.2.1-.1.2q.05 2.2 1.75 4.7l2.45 3.15-.35-.1-.1-.05h-.8q-.05 0-.15.1l-.1.1V35l.1.15 1.6 2.15.45.35.45.35.1.4.3.5.2.15v.05l.35 1.8.05.4q-5.6-3.8-10.45-9.15L3.25 24.6v-.4q0-1.65.55-3l1.4-3.05q1.15 1.15 3.05 2.2l2.8 1.5 1.25 2.05m5.7-3.5.35.7.15.15.2.05.2-.15L22 16.7q.45 1.95 2.1 4.8l1.85 3.1q.4-.7.45-1.75V21.1l-.15-3.45-.45-3.05.05-.15L30.7 8q.6-.4 1.15-.65l1.35-.6.7.95.2.3.05.1L34 9.8v.1l-.05.15v.05L33.7 12l-1 2.35-.4 4.85-.3 2.95.6-2.45-.05 1.6 3-5.3L37 13.3q-.2 1.2.9-1.5l.1-.2L39.2 9l2.75-2.2H42l1.55-.7.4 2.85.15 1.6q-3.25 7-5 9.75l1.85-2.25v.05l-3.05 6.3-4.4 7.65-.05-.05.95-2.25.05-.1v-.1l-.05-.15-.2-.1H34l-2.3.75-2.25.45-.05-.15q.05-1.45 1.5-2.2 2.05-1.05 2.3-1.5l1.6-2.7q.95-1.6 1.75-2.45l.05-.2v-.1l-.05-.15-.15-.1-.2.05-1.7.95-1.7 1.1-1.4 1.1h-.05l-1.05.35-.25.05-.05.1-.6.15-1 .15-1.4-.15-.65.35-.25.25-.6.45-1.2-.9-1.55-.95q-1.7-1.3-1.15-3.85v-.2l-.15-.1h-.15l-.15.15v.05l-.65 1.45-1.35 3.15-1.3-1.15.1-1.55.05-1.55m25.85 2.15.4-.4.5-.65.05-.05 1.85-2.4 3.85-1.85-.4 2.3q-.25.5-3.3 2.75l-1.1.7.25-.1-.35.2-3.95 1.9 2.2-2.4m7.2-5.65.6-.25v1.5q-.15 1.15-1.2 1.65l-.05-.05q.3-.3.45-1.5l.2-1.35m-21.8 24.5q-2.9 3.05-5.6 5.25l-.15-2.6.65.6.1.1h.35l.1-.15v-.15q-.4-2.35 1.05-3.85 1.25-1.35 3.7-1.8l.15-.1.05-.2-.05-.15-.75-.9-.35-.6q.05-.4 1.45-1.2l1-.6-1.2 4.45-.2.8-.3 1.1M1.95 19.35l.55-5.15.9 1.55-1.45 3.6m33.3-12-.35-.6-.7-.95 2.35-1.75-.75 2.05-.55 1.25m7.6-.05-.1.05-.4.5q-.2.4-.15 1.1l.25 1.4q.15.7.55.65.35-.1.45-.75V9.2L43.4 8q-.1-.6-.55-.7m1.45-1.25V5.9l1.05-1.55.2 1.85.2 1.3-.95.9-.5-2.35M32.2 8.1l-.05.4q0 .75.45 1.35.4.5.9.5l.35-.3h.05V9.8q0-.7-.45-1.25-.4-.55-.9-.55l-.35.1" fill="#9a6bab"/><path d="M12.3 22.1v1.8l-1.25-2.05-.65-.65L9 19.9l-1.5-1.35-1.2-1.4q-2.7-3-4.25-7.65l3.65 3.15 4.25 6.25.5.65q.4.45.6.3l.1-.35 1.15 2.6m1.35-7.45 3.4 3.55.95 2.2-.05 1.55-.1 1.55-.2-.2-.05-.05-.05-.05-1.15-2.05-.1-.1q-1.45-2.8-2.65-6.4m8.5 1.95 1.5 2.15.2.1h.2l.15-.2 1.6-4.05.45 3.05.15 3.45v1.75q-.05 1.05-.45 1.75l-1.85-3.1q-1.65-2.85-2.1-4.8l.15-.1M37.9 3.75l.5 4.2.1.15-.75 2Q37.2 12 37 13.25v.05L35.55 16l-3 5.3.05-1.6.05-.4.05-1.1.3-3.75.1-.25L35 9.95l2.9-6.2m9.95 3.6-.2 4.55-1.45 5.95V18h-.05l-.45.6-.95 1.95-.45.85q-.5 1.05-.45 1.15l-2.2 2.4-.2.15-.55.45 4.6-1.7 4.15-1.65-2.15 4.7-.4.9q-1.1 1.3-3.55 3.1l-5.35 4.2.55-3.35L40 26.5l-3.55 3.85 4.5-12.25V18l.15-.2 3.35-4.7 3.4-5.75" fill="#694278"/><path d="m52.45 19.35-.6 2-1.55 3.35-1.2 2.9-11.65 10.35.45-7.25-.5 2.5-.05.2-5.9 7.1-.1-.3-.1-.15 1.5-2.6 2.65-4.1-2.8 3.4-3.05 3.55.2-.8 1.2-4.45.85-.45.05-.05q.75-.7 1.55-2.45l.1-.05 4.4-7.65 3.05-6.3-4.5 12.25L40 26.5l-1.25 5.25-.55 3.35 5.35-4.2q2.45-1.8 3.55-3.1l.4-.9 2.15-4.7-4.15 1.65-4.6 1.7.55-.45.2-.15 3.95-1.9.35-.2-.25.1.4-.2 6.35-3.4" fill="#51325f"/><path d="m51.85 21.35-1.55 5.1-1.2 1.15 1.2-2.9 1.55-3.35M37.35 33.4l-.6 2.25-.4-.1-.35.25-4.55 5.25v-.55l5.9-7.1m-6.1 6.65-.15-.1h-.35l-.3.15-1.2 1.3.3-1.1 3.05-3.55 2.8-3.4-2.65 4.1-1.5 2.6" fill="#ffe3b1"/><path d="m24.35 27.95.6.2.25.3q1.65 2.25 1.85 4.75l.05.45q-.05 2.15-1.65 3.75l-.7.65-.1.05.05-1.65q0-1.4-2.25-2.7-2.25-1.3-2.35-2.25-.05-1 1.7-2.15t2.55-1.4m-3.3 2.8-.2.7.25.8.55.45.45-.45.15-.55q0-.5-.45-.85l-.7-.2q-.1 0-.05.1m-1.9 5.9.3-.3.75-.45.5.2.25.8-.2.9-.6.25-.7-.4q-.3-.4-.3-.8v-.2" fill="#b4a7d2"/><path d="M21.65 27.3q-1.05.35-1.85 1.3-1.2 1.35-1.2 3.2-.05 1.55 2.35 3.1 2.05 1.35 2.1 2.25-.05.7-.85 1.3l-1.35.65-.2.1-1.05-.1-2-2.25q-1.15-1.6-1.15-3.15 0-2.2 1.3-4.05 1.25-1.8 3.05-2.35h.85m-.55 3.35.7.2q.45.35.45.85l-.15.55-.45.45-.55-.45-.25-.8.2-.7v-.05l.05-.05m-1.95 6.2q0 .4.3.8l.7.4.6-.25.2-.9-.25-.8-.5-.2-.75.45-.3.3q-.15.15 0 .2" fill="#382e3d"/><path d="M19.6 39.1q-1.7-.35-2.8-1.65-1.5-1.8-1.65-4.55-.15-2.7 1.5-4.65 1.35-1.65 3.4-1.95l.9-.05q1.85 0 3.2 1.1l-1.25-.25-.9.1-.35.1h-.85q-1.8.55-3.05 2.35-1.3 1.85-1.3 4.05 0 1.55 1.15 3.15l2 2.25" fill="#625469"/><path d="m20.35 22.95.65-1.4q.1 1.8 1.45 2.85l1.6 1q.9.45 1.25.9l.1.1h.15l.1-.05.75-.6.6-.5 1.35.2 1.15-.2.7-.2q.75.1 1.5-.45v-.05l1.35-1h.05l1.7-1.1q.3-.2.55-.3l-1.05 1.5-1.6 2.7q-.25.35-2.05 1.3-1.75.9-1.8 2.7v.5l.05.15.15.15h.15l2.6-.55 1.85-.5-.7 1.7-.25.5-5.05 1.25-.05-.4q-.15-2.65-1.95-5l-.3-.4v-.05q-1.75-2-4.4-2l-.85.05.25-2.8" fill="url(#aa)"/><path d="M13.55 29.05V29l.1-.1.25-4 .1-2.8 1.35 1.85q1.4 1.7 2.45 1.75h.15l.1-.1v-.15l-.1-.6-.2-.4h-.05v-.35h.1l1.25 1.15h.3l.1-.1.9-2.2-.25 2.8q-2.35.25-3.85 2.1-1.2 1.4-1.5 3.15l-1.2-1.95" fill="url(#ab)"/><path d="m20.2 40.65-.15.1-.25.2-.8-.6-.9-.85-1.2-.5-1.1-.4-.3-.35-.25-.6v-.05l-.55-.45-.3-.2-1.2-1.65.05-.1.9.35h.1l.4-.15.1-.2-.1-.15-2.9-3.75q-1.35-2-1.55-3.75l1.3.75 1.8.75.15.05.1-.05 1.2 1.95q-.2.9-.15 1.95.15 2.9 1.8 4.85 1.4 1.75 3.95 1.95l-.15.9" fill="url(#ac)"/><path d="m32.7 32.3-1.2 1.8-.45.2-1.4.85q-1.75 1.05-1.7 1.7 0 .45.45.95l.45.55q-2.3.5-3.5 1.85-1.45 1.45-1.3 3.65l-1.5-1.4q-2.05-1.85-2.35-1.8l.15-.9h.6q1.9 0 3.4-.85.8-.45 1.45-1.1 1.9-1.85 1.85-4.25l5.05-1.25" fill="url(#ad)"/><path d="M13.2 35.3v-.05l.05-.05-.05.1" fill="url(#ae)"/></g><linearGradient gradientTransform="matrix(-.0131 -.0131 .0128 -.0128 54.2 53.75)" gradientUnits="userSpaceOnUse" id="v" spreadMethod="pad" x1="-819.2" x2="819.2"><stop offset="0" stop-color="#4391d4" stop-opacity=".702"/><stop offset="1" stop-color="#9d43e3" stop-opacity=".643"/></linearGradient><linearGradient gradientTransform="matrix(-.0058 -.0058 .0017 -.0017 3.8 5.7)" gradientUnits="userSpaceOnUse" id="w" spreadMethod="pad" x1="-819.2" x2="819.2"><stop offset="0" stop-color="#4391d4" stop-opacity=".702"/><stop offset="1" stop-color="#9d43e3" stop-opacity=".643"/></linearGradient><linearGradient gradientTransform="matrix(-.0092 -.0092 .0031 -.0031 12.75 16.3)" gradientUnits="userSpaceOnUse" id="x" spreadMethod="pad" x1="-819.2" x2="819.2"><stop offset="0" stop-color="#4391d4" stop-opacity=".702"/><stop offset="1" stop-color="#9d43e3" stop-opacity=".643"/></linearGradient><linearGradient gradientTransform="matrix(-.0047 -.0081 .0114 -.0066 14.85 44.5)" gradientUnits="userSpaceOnUse" id="y" spreadMethod="pad" x1="-819.2" x2="819.2"><stop offset="0" stop-color="#4391d4" stop-opacity=".702"/><stop offset="1" stop-color="#9d43e3" stop-opacity=".643"/></linearGradient><linearGradient gradientTransform="matrix(-.0039 -.0068 .0045 -.0026 7 12.1)" gradientUnits="userSpaceOnUse" id="z" spreadMethod="pad" x1="-819.2" x2="819.2"><stop offset="0" stop-color="#4391d4" stop-opacity=".702"/><stop offset="1" stop-color="#9d43e3" stop-opacity=".643"/></linearGradient><linearGradient gradientTransform="matrix(-.0028 -.0049 .0048 -.0028 3.45 22.95)" gradientUnits="userSpaceOnUse" id="A" spreadMethod="pad" x1="-819.2" x2="819.2"><stop offset="0" stop-color="#4391d4" stop-opacity=".702"/><stop offset="1" stop-color="#9d43e3" stop-opacity=".643"/></linearGradient><linearGradient gradientTransform="matrix(.0036 -.0063 .0106 .0061 25.55 35.05)" gradientUnits="userSpaceOnUse" id="B" spreadMethod="pad" x1="-819.2" x2="819.2"><stop offset="0" stop-color="#4391d4" stop-opacity=".702"/><stop offset="1" stop-color="#9d43e3" stop-opacity=".643"/></linearGradient><linearGradient gradientTransform="matrix(.002 -.0076 .0026 .0007 4.5 7.7)" gradientUnits="userSpaceOnUse" id="C" spreadMethod="pad" x1="-819.2" x2="819.2"><stop offset="0" stop-color="#4391d4" stop-opacity=".702"/><stop offset="1" stop-color="#9d43e3" stop-opacity=".643"/></linearGradient><linearGradient gradientTransform="matrix(.0155 -.0089 .0131 .0229 36.95 47.4)" gradientUnits="userSpaceOnUse" id="D" spreadMethod="pad" x1="-819.2" x2="819.2"><stop offset="0" stop-color="#4391d4" stop-opacity=".702"/><stop offset="1" stop-color="#9d43e3" stop-opacity=".643"/></linearGradient><linearGradient gradientTransform="matrix(.003 -.0052 .0021 .0012 5.05 5)" gradientUnits="userSpaceOnUse" id="E" spreadMethod="pad" x1="-819.2" x2="819.2"><stop offset="0" stop-color="#4391d4" stop-opacity=".702"/><stop offset="1" stop-color="#9d43e3" stop-opacity=".643"/></linearGradient><linearGradient gradientTransform="matrix(.0005 .0001 -.0002 .0007 91.25 24.3)" gradientUnits="userSpaceOnUse" id="P" spreadMethod="pad" x1="-819.2" x2="819.2"><stop offset="0" stop-color="#67a3e1" stop-opacity=".561"/><stop offset=".475" stop-color="#b846df" stop-opacity=".541"/><stop offset="1" stop-color="#58177a" stop-opacity=".451"/></linearGradient><linearGradient gradientTransform="matrix(.0542 -.0187 .0075 .0216 58.75 40.3)" gradientUnits="userSpaceOnUse" id="Q" spreadMethod="pad" x1="-819.2" x2="819.2"><stop offset="0" stop-color="#67a3e1" stop-opacity=".561"/><stop offset=".459" stop-color="#b846df"/><stop offset="1" stop-color="#58177a"/></linearGradient><linearGradient gradientTransform="matrix(0 -.0025 .0012 0 84 34.65)" gradientUnits="userSpaceOnUse" id="R" spreadMethod="pad" x1="-819.2" x2="819.2"><stop offset="0" stop-color="#67a3e1" stop-opacity=".561"/><stop offset=".475" stop-color="#b846df" stop-opacity=".541"/><stop offset="1" stop-color="#58177a" stop-opacity=".451"/></linearGradient><linearGradient gradientTransform="matrix(0 -.0011 .0019 0 47.7 48.9)" gradientUnits="userSpaceOnUse" id="S" spreadMethod="pad" x1="-819.2" x2="819.2"><stop offset="0" stop-color="#67a3e1" stop-opacity=".561"/><stop offset=".475" stop-color="#b846df" stop-opacity=".541"/><stop offset="1" stop-color="#58177a" stop-opacity=".451"/></linearGradient><linearGradient gradientTransform="translate(-396.25 -137.7) scale(.4291)" gradientUnits="userSpaceOnUse" id="T" spreadMethod="pad" x1="-819.2" x2="819.2"><stop offset="0" stop-color="#67a3e1" stop-opacity=".561"/><stop offset=".475" stop-color="#b846df" stop-opacity=".541"/><stop offset="1" stop-color="#58177a" stop-opacity=".451"/></linearGradient><linearGradient gradientTransform="matrix(-.0134 -.0077 .006 -.0105 28.05 17.25)" gradientUnits="userSpaceOnUse" id="U" spreadMethod="pad" x1="-819.2" x2="819.2"><stop offset="0" stop-color="#67a3e1" stop-opacity=".561"/><stop offset=".475" stop-color="#b846df" stop-opacity=".541"/><stop offset="1" stop-color="#58177a" stop-opacity=".451"/></linearGradient><linearGradient gradientTransform="matrix(0 -.0024 .0013 0 29 15.8)" gradientUnits="userSpaceOnUse" id="V" spreadMethod="pad" x1="-819.2" x2="819.2"><stop offset="0" stop-color="#67a3e1" stop-opacity=".561"/><stop offset=".475" stop-color="#b846df" stop-opacity=".541"/><stop offset="1" stop-color="#58177a" stop-opacity=".451"/></linearGradient><linearGradient gradientTransform="matrix(-.0011 .0003 -.0003 -.0011 18.7 27.25)" gradientUnits="userSpaceOnUse" id="W" spreadMethod="pad" x1="-819.2" x2="819.2"><stop offset="0" stop-color="#67a3e1" stop-opacity=".561"/><stop offset=".475" stop-color="#b846df" stop-opacity=".541"/><stop offset="1" stop-color="#58177a" stop-opacity=".451"/></linearGradient><linearGradient gradientTransform="matrix(-.0131 -.0035 .0013 -.0049 12.15 33.75)" gradientUnits="userSpaceOnUse" id="X" spreadMethod="pad" x1="-819.2" x2="819.2"><stop offset="0" stop-color="#67a3e1" stop-opacity=".561"/><stop offset=".475" stop-color="#b846df" stop-opacity=".541"/><stop offset="1" stop-color="#58177a" stop-opacity=".451"/></linearGradient><linearGradient gradientTransform="matrix(-.0006 .0002 -.0002 -.0006 24.4 43)" gradientUnits="userSpaceOnUse" id="Y" spreadMethod="pad" x1="-819.2" x2="819.2"><stop offset="0" stop-color="#67a3e1" stop-opacity=".561"/><stop offset=".475" stop-color="#b846df" stop-opacity=".541"/><stop offset="1" stop-color="#58177a" stop-opacity=".451"/></linearGradient><linearGradient gradientTransform="matrix(-.006 .0015 -.0008 -.003 50.2 37.65)" gradientUnits="userSpaceOnUse" id="Z" spreadMethod="pad" x1="-819.2" x2="819.2"><stop offset="0" stop-color="#67a3e1" stop-opacity=".561"/><stop offset=".475" stop-color="#b846df" stop-opacity=".541"/><stop offset="1" stop-color="#58177a" stop-opacity=".451"/></linearGradient><linearGradient gradientTransform="matrix(.0058 -.0058 .0068 .0068 28.7 25.05)" gradientUnits="userSpaceOnUse" id="aa" spreadMethod="pad" x1="-819.2" x2="819.2"><stop offset="0" stop-color="#2fe5fd"/><stop offset=".271" stop-color="#7045de"/><stop offset=".945" stop-color="#4106a8"/></linearGradient><linearGradient gradientTransform="matrix(-.0025 -.0043 .0047 -.0027 16.55 25.3)" gradientUnits="userSpaceOnUse" id="ab" spreadMethod="pad" x1="-819.2" x2="819.2"><stop offset="0" stop-color="#2fe5fd"/><stop offset=".431" stop-color="#7045de"/><stop offset=".945" stop-color="#4106a8"/></linearGradient><linearGradient gradientTransform="matrix(-.003 0 0 -.0082 11.55 34.25)" gradientUnits="userSpaceOnUse" id="ac" spreadMethod="pad" x1="-819.2" x2="819.2"><stop offset="0" stop-color="#2fe5fd"/><stop offset=".239" stop-color="#7045de"/><stop offset=".945" stop-color="#4106a8"/></linearGradient><linearGradient gradientTransform="matrix(.0024 .0024 -.0064 .0064 26.95 37)" gradientUnits="userSpaceOnUse" id="ad" spreadMethod="pad" x1="-819.2" x2="819.2"><stop offset="0" stop-color="#2fe5fd"/><stop offset=".431" stop-color="#7045de"/><stop offset=".945" stop-color="#4106a8"/></linearGradient><linearGradient gradientTransform="matrix(-.0038 -.001 .0016 -.0062 10.8 33.15)" gradientUnits="userSpaceOnUse" id="ae" spreadMethod="pad" x1="-819.2" x2="819.2"><stop offset="0" stop-color="#2fe5fd"/><stop offset=".431" stop-color="#7045de"/><stop offset=".945" stop-color="#4106a8"/></linearGradient><use ffdec:characterId="2" height="98.75" width="99.25" xlink:href="#af" id="n"/><use ffdec:characterId="4" height="31.35" width="22.8" xlink:href="#ag" id="o"/><use ffdec:characterId="6" height="104.65" width="44.6" xlink:href="#ah" id="p"/><use ffdec:characterId="8" height="32.05" width="11.7" xlink:href="#ai" id="q"/><use ffdec:characterId="10" height="82.95" width="42.2" xlink:href="#aj" id="r"/><use ffdec:characterId="12" height="15.35" width="9.6" xlink:href="#ak" id="s"/><use ffdec:characterId="14" height="89.3" width="74.95" xlink:href="#al" id="t"/><use ffdec:characterId="16" height="10.2" width="10.3" xlink:href="#am" id="u"/><use ffdec:characterId="19" height="6.05" width="2.1" xlink:href="#an" id="F"/><use ffdec:characterId="21" height="12" width="5.1" xlink:href="#ao" id="G"/><use ffdec:characterId="23" height="13.4" width="6.2" xlink:href="#ap" id="H"/><use ffdec:characterId="25" height="14.8" width="5.55" xlink:href="#aq" id="I"/><use ffdec:characterId="27" height="10.05" width="3.35" xlink:href="#ar" id="J"/><use ffdec:characterId="29" height="18.15" width="7.9" xlink:href="#as" id="K"/><use ffdec:characterId="31" height="23.25" width="10.2" xlink:href="#at" id="L"/><use ffdec:characterId="34" height="58.3" width="30.5" xlink:href="#au" id="e"/><use ffdec:characterId="36" height="77.4" width="52.4" xlink:href="#av" id="f"/><use ffdec:characterId="38" height="54.8" width="108.95" xlink:href="#aw" id="O"/><use ffdec:characterId="47" height="79.85" width="33.65" xlink:href="#ax" id="h"/><use ffdec:characterId="49" height="60.8" width="39.15" xlink:href="#ay" id="i"/><use ffdec:characterId="51" height="102.45" width="51.9" xlink:href="#az" id="j"/><use ffdec:characterId="53" height="55.7" width="35.85" xlink:href="#aA" id="k"/><use ffdec:characterId="55" height="63.15" width="37.3" xlink:href="#aB" id="l"/><use ffdec:characterId="61" height="48.3" width="55.05" xlink:href="#aC" id="m"/><radialGradient cx="0" cy="0" gradientTransform="matrix(.032 0 0 .032 22.75 49.5)" gradientUnits="userSpaceOnUse" id="M" r="819.2" spreadMethod="pad"><stop offset="0" stop-color="#2debfe"/><stop offset=".38" stop-color="#5295f0"/><stop offset=".627" stop-color="#9123dd"/></radialGradient><path d="M27.75 0q0 2-8.15 3.4Q11.5 4.9 0 4.9q-11.5 0-19.65-1.5-8.1-1.4-8.1-3.4 0-2.05 8.1-3.5Q-11.5-4.9 0-4.9q11.5 0 19.6 1.4 8.15 1.45 8.15 3.5" fill-opacity=".349" fill-rule="evenodd" transform="translate(27.75 4.9)" id="b"/></defs></svg>