<svg xmlns:ffdec="https://www.free-decompiler.com/flash" xmlns:xlink="http://www.w3.org/1999/xlink" ffdec:objectType="frame" height="90" width="90" xmlns="http://www.w3.org/2000/svg"><use ffdec:characterId="17" height="76.15" transform="translate(11.65 9.65)" width="65.75" xlink:href="#a"/><defs><g id="a" transform="translate(-11.65 -9.65)"><use ffdec:characterId="1" height="9.8" transform="matrix(1.0326 0 0 1.9454 20.096 66.668)" width="55.5" xlink:href="#b"/><use ffdec:characterId="2" height="55.4" transform="translate(34.116 58.091) scale(.3902)" width="101.45" xlink:href="#c"/><use ffdec:characterId="3" height="39.1" transform="translate(24.85 42.228) scale(.5715)" width="39.2" xlink:href="#d"/><use ffdec:characterId="4" height="49.85" transform="translate(32.356 42.52) scale(.5715)" width="50.2" xlink:href="#e"/><use ffdec:characterId="5" height="63.25" transform="translate(14.163 21.963) scale(.5715)" width="40.85" xlink:href="#f"/><use ffdec:characterId="6" height="36.35" transform="translate(31.392 45.028) scale(.5715)" width="40.1" xlink:href="#g"/><use ffdec:characterId="7" height="72.8" transform="translate(27.177 9.648) scale(.5715)" width="67.85" xlink:href="#h"/></g><g id="c" fill-rule="evenodd"><path d="m-19.4-26.1 4.1-1.6q10 4.35 25.75 7.6 4.7 1 6.35 2 2.1 1.3 2.1 4.1 0 1.9-1 3.65t-1 2.95q0 2.1 3.6 3.6 2.1.95 7.9 2.4 11.5 2.85 11.5 6.1 0 4.4-7.2 9.55l-4.95 3.55q-2.25 1.85-2.25 3.1 0 1.45 6.4 1.65l9.8.15q4.4.35 6.55 1.8 1.65 1.15 2.5 3.2-1.35-1-3.35-1.6-3.2-1-7.1-1l-6.15.4-7.15.4-5.9-.2q-4.4-.45-4.4-2 0-.25 1.3-2.05 1.3-1.85 1.3-2.85 0-2.4-4.2-3.9-4.55-1.6-12.8-1.6l-13.3.5-13.5.5q-10.15 0-18-3.4-8.2-3.55-8.2-8.5 0-3.55 3.65-8.6l3.7-4.35.85-.75L-41-13l4.85-3.85-2.7 5.25Q-41.1-7.05-41.1-4q0 9.65 14.6 13.5 9.05 2.4 23.2 2.4l3.95-.4 3.85-.4h.2l-.3-.7-.3-.9q0-1.8 4.6-3.6 4.1-1.6 6.7-1.6 4 0 6.1 2.2 1.6 1.65 1.6 3.7l-.4 3.2-.4 3.2q0 2.05.5 3.35.6 1.6 2.1 2.55-.4-.35-.9-2.2t-.5-3.2q0-3.45 3.9-6.3 3.9-2.85 3.9-6.2 0-2.25-3.55-3.2Q26.25.95 20 .25 14.65-.4 12.25-1.5 8.7-3.1 8.7-6.4q0-1.25 1-2.55 1-1.35 1-3.15 0-1.7-4.45-3.95Q3.5-17.45-.9-19.1l-15.3-5.75-3.2-1.25" fill="url(#i)" transform="translate(50.7 27.7)"/><path d="M-16.2-24.85-.9-19.1q4.4 1.65 7.15 3.05.65 1.4.65 2.85 0 7.5-4.2 9.55l-2.9 1.5Q-1.5-1-1.5 1.4q0 1.3.4 2.5v1.2h-.2Q-1.65 4-3.1 2.95-4.7 1.7-6.4 1.7q-1.05 0-6.1 2.1-5 2.1-8.1 2.1-5.8 0-9.3-4-4-4.55-4-13.2 0-4.2.65-6.65l.3-.95 3.9-2.3 2.1-1.1.05.1q0 7.3 4.75 12.75 4.4 5.05 9.25 5.15 2.55.05 5 1.25Q-5.45-1.8-4.5-.1q.2-3.3-5.4-13.55l-6.3-11.2" fill="#a2e6ff" transform="translate(50.7 27.7)"/><path d="M6.25-16.05q4.45 2.25 4.45 3.95 0 1.8-1 3.15-1 1.3-1 2.55 0 3.3 3.55 4.9Q14.65-.4 20 .25q6.25.7 7.75 1.15 3.55.95 3.55 3.2 0 3.35-3.9 6.2t-3.9 6.3q0 1.35.5 3.2t.9 2.2q-1.5-.95-2.1-2.55-.5-1.3-.5-3.35l.4-3.2.4-3.2q0-2.05-1.6-3.7-2.1-2.2-6.1-2.2-2.6 0-6.7 1.6-4.6 1.8-4.6 3.6l.3.9.3.7h-.2l-3.85.4-3.95.4q-14.15 0-23.2-2.4Q-41.1 5.65-41.1-4q0-3.05 2.25-7.6l2.7-5.25 3.2-2.05-.3.95q-.65 2.45-.65 6.65 0 8.65 4 13.2 3.5 4 9.3 4 3.1 0 8.1-2.1 5.05-2.1 6.1-2.1 1.7 0 3.3 1.25Q-1.65 4-1.3 5.1h.2V3.9q-.4-1.2-.4-2.5 0-2.4 1.3-3.55l2.9-1.5Q6.9-5.7 6.9-13.2q0-1.45-.65-2.85" fill="#5d96ff" transform="translate(50.7 27.7)"/><path d="m-19.4-26.1 3.2 1.25 6.3 11.2Q-4.3-3.4-4.5-.1q-.95-1.7-3.4-2.95-2.45-1.2-5-1.25-4.85-.1-9.25-5.15-4.75-5.45-4.75-12.75v-.15q4.1-2.25 7.5-3.75" fill="#d5f4ff" transform="translate(50.7 27.7)"/></g><g id="d" fill-rule="evenodd"><path d="m13.8-19.5 1.15.2.55.2.1.25L17.4-15q2 4.5 2.2 6.3l-.15 1.3-.05.75-.3.45q-1 2-2.4 2.85-1.15.75-3.4 1.1l-.5.1-.9.1-.4.05-4.4-.15q-1.05-.3-2.05-1.25L4.1-4.45l-.25-1.7-.1-2.15-.05-.3.05-4.9-.05-.5.4-.65q-.2 3.15-.1 5.9v.3l.15 1.9L4.4-5l.2.3.85 1.15q.8.8 1.9 1.15l4.05.2h.1l1.4-.3.8-.3.4-.15q1.5-.55 2.75-2.15 1.6-2.1 1.4-4.45Q18-12 17-13.9l-3.2-5.6" fill="#8b4300" transform="translate(19.6 19.55)"/><path d="m11.25-14.6-1.3-.1q-1.8.2-2.9 1.55l-.45.7-.35.85q-.25.8-.15 1.65.15 1.65 1.35 2.75l.2.1q.65.6 1.4.85.15.15.35.15l.25-.05h1.15q1.75-.15 2.9-1.55 1-1.25.95-2.8v-.3l-.35-1.4q-.4-.85-1.2-1.55-.8-.6-1.7-.85h-.15m-5.4 5.75q-.2-.5-.25-1.1-.2-1.95 1.05-3.5T9.9-15.2q1.95-.2 3.5 1.1.9.7 1.4 1.7l.35 1.5q.15 2-1.1 3.5t-3.2 1.7l-.5.05-1.8-.3q-.5-.25-.9-.55l-.35-.25q-1.05-.85-1.45-2.1" fill="#570006" transform="translate(19.6 19.55)"/><path d="m6.6-12.45.45-.7q1.1-1.35 2.9-1.55l1.3.1-.25.4q-.3.7-.25 1.55l.35 1.25.2.7h-.05l-.2.5.35.75.25.9q.1.8-.55 1.5-.5.75-1.45.9l-.6-.1q-.75-.25-1.4-.85l-.2-.1v-.35Q7.3-9.1 8.9-9.9q1.6-.85 1.55-1.45-.1-.85-.75-1.3-.65-.55-1.75-.45-.85.1-1.35.65" fill="#e51156" transform="translate(19.6 19.55)"/><path d="m13.8-19.5 3.2 5.6q1 1.9 1.25 4.35.2 2.35-1.4 4.45-1.25 1.6-2.75 2.15l-.4.15-.8.3-1.4.3h-.1l-4.05-.2q-1.1-.35-1.9-1.15L4.6-4.7 4.4-5l-.25-1.55L4-8.45v-.3q-.1-2.75.1-5.9 1.25-1.5 4.15-3 3.45-1.7 5.3-1.9l.25.05m1 7.1q-.5-1-1.4-1.7-1.55-1.3-3.5-1.1-2 .2-3.25 1.75T5.6-9.95q.05.6.25 1.1L5-8.6q-.3.05-.25.6.25 2.65 1.4 4.05v.1l.4.25q1.5 1.35 4.35 1.1l.65-.15.55-.1h.2l.75-.3.25-.1q1.15-.55 2.1-1.6 1.9-2 1.65-4.65l-.45-1.75-.65-1.9-1.15.65" fill="#b36b0d" transform="translate(19.6 19.55)"/><path d="M11.25-14.6h.15q.9.25 1.7.85.8.7 1.2 1.55l.35 1.4v.15l-.6-.3-1.15-.2-1.6.45-.2-.7-.35-1.25q-.05-.85.25-1.55l.25-.4" fill="#4365a6" transform="translate(19.6 19.55)"/><path d="M7.45-7.2Q6.25-8.3 6.1-9.95q-.1-.85.15-1.65l.35-.85q.5-.55 1.35-.65 1.1-.1 1.75.45.65.45.75 1.3.05.6-1.55 1.45-1.6.8-1.45 2.35v.35" fill="#fff" transform="translate(19.6 19.55)"/><path d="M14.65-10.65v.15q.05 1.55-.95 2.8-1.15 1.4-2.9 1.55H9.65q.95-.15 1.45-.9.65-.7.55-1.5l-.25-.9-.35-.75.2-.5h.05l1.6-.45 1.15.2.6.3" fill="#6d0313" transform="translate(19.6 19.55)"/><path d="m14.8-12.4 1.15-.65.65 1.9.45 1.75q.25 2.65-1.65 4.65-.95 1.05-2.1 1.6l-.25.1-.75.3v-.5l-.15-.55q-.2-.35-.55-.3l-.95.25q-.15 0-.2-.1l.35-.9-.45-.8.5-.05q1.95-.2 3.2-1.7 1.25-1.5 1.1-3.5l-.35-1.5M6.15-3.95Q5-5.35 4.75-8q-.05-.55.25-.6l.85-.25q.4 1.25 1.45 2.1l.35.25q.4.3.9.55l-.45.75-.3.55-.4-.2L6.7-5q-.65.1-.55.85v.2" fill="#ffe862" transform="translate(19.6 19.55)"/><path d="M12.3-2.75h-.2l-.55.1-.65.15q-2.85.25-4.35-1.1l-.2-.2-.2-.15v-.2q-.1-.75.55-.85l.7.15.4.2.3-.55.45-.75 1.8.3.45.8-.35.9q.05.1.2.1l.95-.25q.35-.05.55.3l.15.55v.5" fill="#fffaf4" transform="translate(19.6 19.55)"/><path d="m3.7-8.6.05.3-2 1.05q-1.6.9-2.8 1l-1.3-.2-2.8-.45-2.1-.55-2.55-.65-.6-.1h-.1l-.05-.15 3.7.75q4.15 1.05 5.6.9 1.5-.15 4.95-1.9m9.1 6.45.5-.1q-2.75 8.2-4.6 11.1l-.5.75-.45-.5.45-.65q1.95-2.75 3.05-5.7l1.55-4.9" fill="#3163a4" transform="translate(19.6 19.55)"/><path d="m3.75-8.3.1 2.15.25 1.7.95 1.05q-.7.25-1 .6-.5.5-.4 1.55.1 1.05 1.15.75l-7.95 2.75Q-2.95 1-3.1-.5q-.3-3.05-2-4.65-1.25-1.15-5.3-3v-.05l.6.1 2.55.65 2.1.55 2.8.45 1.3.2q1.2-.1 2.8-1l2-1.05M11.5-2l.4-.05.9-.1-1.55 4.9q-1.1 2.95-3.05 5.7l-.45.65-.25-.6q.8-1 2.1-4.25Q11 .75 11.5-2" fill="#f4f9ff" transform="translate(19.6 19.55)"/><path d="M5.05-3.4q1 .95 2.05 1.25l4.4.15Q11 .75 9.6 4.25 8.3 7.5 7.5 8.5l-.1-.05-.65-2q-.5-1.15-2-1.35l-.25-.05L4 5h-.7q-.85.05-1.55.5L-1 7.7q-.2-.65-1.1-1.6-1-1-2.05-1.15.75-1.15 1-2.7L4.8-.5q-1.05.3-1.15-.75-.1-1.05.4-1.55.3-.35 1-.6" fill="#6597c8" transform="translate(19.6 19.55)"/><path d="M8.2 9.6q-1.75 2.45-4.5 4.35l-.35.2q-2.9 1.9-4.9 2.3l-5.55 1.5-4.45 1.35-1.65.25q-.45 0-1.4-.4-.7-.3-1.75-2.85l-.9-2.3-.1-.45Q-19 8.8-19.5 3.65l-.1-3.95.3-3.85.4-1.5.6-1.3.5-.8 1.65-.3 1.7-.35 3.9.05.05.15h.1v.05q4.05 1.85 5.3 3 1.7 1.6 2 4.65.15 1.5-.05 2.75-.25 1.55-1 2.7Q-3.1 5.1-2.1 6.1q.9.95 1.1 1.6l2.75-2.2q.7-.45 1.55-.5H4l.5.05.25.05q1.5.2 2 1.35l.65 2 .1.05.25.6.45.5m-20.35-8.5q-1.2.15-1.75 1.45-.45 1.05-.3 2.5.15 1.6 1.5 2.4.95.6 2.05.55l.65.15q1.8-.2 3.25-1.2l.2-.25 1.25-1.3Q-4.25 4-3.8 2.35q.3-1.5.1-3.2-.25-2.85-3.35-5.05-2.45-1.75-5.1-2.3h-.55l-3 .6-1.65.45q-.2.15-.35.15l-.5 1.1v.05q-1.35 3.45-.75 9.7l.6 3.65 1.2 4.9.45 1.45 1.25 2.9.65 1.05.65.7.15.1.55.2h1.6l.05-.05q1.5-.1 3.75-.9l3.2-1.05 2.9-.65q1.7-.35 2.75-1l.4-.2.45-.3L3.7 13.2l3.75-3.75-.25-.7-.7-1.9Q5.7 5.2 3.8 5.4 2 5.55.85 6.5L-1 8.3q-.25-.85-1.45-1.9-1.3-1.1-2.1-1L-5.9 6.6l-.8.7q-1.75 1.15-3.45 1.3-4.45.45-4.8-3.55-.2-1.95.75-3.2.85-1.15 2-1.25h.5q.95 0 1.55.65L-12 1.1h-.15" transform="translate(19.6 19.55)"/><path d="m-18.2-5.9.5-1.1q.15 0 .35-.15l1.65-.45 3-.6h.55q2.65.55 5.1 2.3 3.1 2.2 3.35 5.05.2 1.7-.1 3.2Q-4.25 4-5.3 5.4l-1.25 1.3-.2.25q-1.45 1-3.25 1.2l-.65-.15q-1.1.05-2.05-.55-1.35-.8-1.5-2.4-.15-1.45.3-2.5.55-1.3 1.75-1.45l-.55.6q-.75 1.15-.65 2.3.15 1.65 1.55 2.25l2.35.35q2.65-.3 4-3.05l.4-1q.5-1.4.4-2.65-.3-2.95-3.05-4.65-2.7-1.75-6.4-1.4l-1.05.2-1.25.2-1.1-.05-.65-.1h-.05M-5.9 6.6l1.35-1.2q.8-.1 2.1 1Q-1.25 7.45-1 8.3L.85 6.5Q2 5.55 3.8 5.4q1.9-.2 2.7 1.45l.7 1.9.25.7L3.7 13.2l-2.05 1.45-3.3.55q-5.1.5-8.7.2l-4.4-.85-.5-.95q-.75-1.35-.8-2.25-.05-.5.45-.55.85-.05 3.35 1.6 3.4 1.6 8.9 1.05l2-.2Q6.5 12.05 6.1 8.1q-.05-1-1.1-1.45-.8-.45-1.55-.35Q2.4 6.4.8 8.1L-.5 9.6l-.6.7.2-1.05v-.2q-.35-1.3-2.25-1.95-1.55-.6-2.75-.5" fill="#21154f" transform="translate(19.6 19.55)"/><path d="m-15.15-5.95 1.05-.2q3.7-.35 6.4 1.4 2.75 1.7 3.05 4.65.1 1.25-.4 2.65l-.4.25q-.8.5-1.85.65l-.6.05.3-.9q.35-.85.25-1.65l-.2-1.8-.75.5q-.55.55-1.05.6-1.05.1-1.5-.75l-.55-1.9q-.75-2.8-3.15-2.6l-1.05.25-.95.3 1.4-1.5M-.5 9.6.8 8.1q1.6-1.7 2.65-1.8.75-.1 1.55.35 1.05.45 1.1 1.45.4 3.95-7.45 5.15 2.15-1 3.75-2.85 1.9-2.05 1.7-3.15-.3.85-1.15 1.7Q1.95 9.9.9 10l-1.05-.2-.35-.2" fill="#5b62c2" transform="translate(19.6 19.55)"/><path d="M-12.15 1.1h.15l1.85.15Q-10.75.6-11.7.6h-.5q-1.15.1-2 1.25-.95 1.25-.75 3.2.35 4 4.8 3.55 1.7-.15 3.45-1.3l.8-.7q1.2-.1 2.75.5 1.9.65 2.25 1.95v.2l-.2 1.05.6-.7.35.2L.9 10q1.05-.1 2.05-1.05.85-.85 1.15-1.7.2 1.1-1.7 3.15-1.6 1.85-3.75 2.85l-2 .2q-5.5.55-8.9-1.05-2.5-1.65-3.35-1.6-.5.05-.45.55.05.9.8 2.25l.5.95-1.95-.7-.45-1.45-1.2-4.9-.6-3.65q-.6-6.25.75-9.7l.05-.05.65.1 1.1.05 1.25-.2-1.4 1.5.95-.3 1.05-.25q2.4-.2 3.15 2.6l.55 1.9q.45.85 1.5.75.5-.05 1.05-.6l.75-.5.2 1.8q.1.8-.25 1.65l-.3.9.6-.05q1.05-.15 1.85-.65l.4-.25-.4 1q-1.35 2.75-4 3.05l-2.35-.35q-1.4-.6-1.55-2.25-.1-1.15.65-2.3l.55-.6" fill="#3334af" transform="translate(19.6 19.55)"/><path d="m1.65 14.65-.45.3-.4.2q-1.05.65-2.75 1l-2.9.65-3.2 1.05q-2.25.8-3.75.9l-.05.05h-1.6l-.55-.2-.15-.1-.65-.7-.65-1.05.45.15 1.65.5h.1l-1.5-2.85 4.4.85q3.6.3 8.7-.2l3.3-.55" fill="#662025" transform="translate(19.6 19.55)"/><path d="m-15.45 16.75-1.25-2.9 1.95.7 1.5 2.85h-.1l-1.65-.5-.45-.15" fill="#6e2d55" transform="translate(19.6 19.55)"/></g><g id="e" fill-rule="evenodd"><path d="m13.35 9.65.3-.1q1 0 2.55.75l1.8.75q.5 0 .95-.9l.35-1 .5-2-2.15-.75-2.55-.65q-4-.55-5.9-1.8-2.35-1.5-2.35-4.4l.8-10.9.1-.8v-.25l.3-1.8.5-4.85.6-4.2.25-1.55 1.65-.1q-1.5 6.2-2.35 12.8-.75 5.9-.75 9.5 0 3.2.55 4.5.6 1.45 2.5 2.25l5.65 1.45 4.55.9-.2.9-.55-.1-.2.8v.05L19.7 9.4l-.4.95-.9 1.55q-2.9-1.95-4.2-1.95l-.6.15-1.2.5L10.25 9l-2.8-2.05-.55-.4-1.55-1Q1.3 2.95-.3 2.95q-.4 0-.65.45-.3.3-.45.95l-.3 2.35.2 2.4.6 3 .2.65q.7 2.2 1.65 3.8l1.9 2.25-.05.1q-.3 1.05-1.6 1.85-1.45.9-3 .9-1.35 0-4.5-1.05l-4.9-1.4-4.95-.35q-4.7-.4-4.7-1.05v-.3l.5-2.6q.55-2.4.75-4.1l.25-.55.2-.35v.55l-.65 3.4-.55 3.35-.05.15q0 .6 4.85 1.05l5.4.45 4.45 1.35 4.3.75q2.5 0 3.9-2.05v-.1l-.65-.35-.15-.1L.65 17l-1.4-3.15-.45-1.5-.7-2.75-.25-2.65q0-1.85.4-3.1Q-1.3 2.4-.6 2.4l3.2 1.4 4.75 2.35.4.25 3.15 2.05 1.85 1.15.35.15.15-.1h.1m-26.8-19.6.25-.3.4-.5 3.25-4q1.4-1.85 2.6-4.1l1.1-2.05 1-.35q-2.35 4.4-5.45 8.7-3.45 4.9-4.5 5.05l-.05 1.8-.1 1.35q2.75-2.8 6.7-8.95 3.5-5.5 4.85-8.4l.45-.15Q-5.3-16.3-9.15-10.6q-3.35 5-5.8 6.95-.25 5-4.2 13.45v.1l-.85-.6-.35-.3.1-.2q2.75-6.15 3.6-8.5.65-1.75 1-3.4l.15-.7.2-3.15-.1-1.6-.1-.85-.1-.2-.75-1.1-3.4-5q.2-.05.55-.2l3.4 4.75 1.3 2.55 1.05-1.35" fill="#3163a4" transform="translate(25.1 24.9)"/><path d="m9.4-24.8-.25 1.55-.6 4.2-.5 4.85-.3 1.8v.25l-.1.8-.8 10.9q0 2.9 2.35 4.4 1.9 1.25 5.9 1.8l2.55.65 2.15.75-.5 2-.35 1q-.45.9-.95.9l-1.8-.75q-1.55-.75-2.55-.75l-.3.1-.2-1.4-1.1-.35-.95-.3 1.55-.55q1.3-.4 1.3-.85l-.05-.25h-.1Q8.85 5.2 7.2 3.5 5.05 1.25 5.05-5.3q0-8.95 2.4-19.25l1.95-.25M1.7 18.35l.15.1.65.35v.1q-1.4 2.05-3.9 2.05l-4.3-.75-4.45-1.35-5.4-.45q-4.85-.45-4.85-1.05l.05-.15.55-3.35.65-3.4V9.9h1.95q1.05.7 2.8 3.85l1.7 3.4 3.2-3.3q1.15-.95 2.4-.95.45 0 3.4 2.5 2.95 2.5 5.4 2.95" fill="#f3fcff" transform="translate(25.1 24.9)"/><path d="M-13.45-9.95q-.1-1.2-1.05-3.3l-1.4-2.25-1.05-1.25.35-.15q1.85 2.45 2.5 3.95l.9 2.7-.25.3" fill="#be503a" transform="translate(25.1 24.9)"/><path d="M7.45-24.55q-2.4 10.3-2.4 19.25 0 6.55 2.15 8.8 1.65 1.7 6.6 2.45h.1l.05.25q0 .45-1.3.85l-1.55.55.95.3 1.1.35.2 1.4h-.1l-.1.05-.05.05-.35-.15-1.85-1.15L7.75 6.4l-.4-.25L2.6 3.8-.6 2.4q-.7 0-1.15 1.45-.4 1.25-.4 3.1l.25 2.65.7 2.75.45 1.5L.65 17l1.05 1.35q-2.45-.45-5.4-2.95t-3.4-2.5q-1.25 0-2.4.95l-3.2 3.3-1.7-3.4q-1.75-3.15-2.8-3.85h-1.95v-.1q3.95-8.45 4.2-13.45 2.45-1.95 5.8-6.95 3.85-5.7 6.2-11.25 6.3-2 10.4-2.7m-24.4 7.8 1.05 1.25 1.4 2.25q.95 2.1 1.05 3.3L-14.5-8.6l-1.3-2.55-3.4-4.75 2.25-.85m12.1-4.5 1.45-.45q-1.35 2.9-4.85 8.4-3.95 6.15-6.7 8.95l.1-1.35.05-1.8q1.05-.15 4.5-5.05 3.1-4.3 5.45-8.7" fill="#6597c8" transform="translate(25.1 24.9)"/><path d="m-13.2-10.25-.9-2.7q-.65-1.5-2.5-3.95l9.95-3.7.8-.3-1.1 2.05q-1.2 2.25-2.6 4.1l-3.25 4-.4.5" fill="#ef9174" transform="translate(25.1 24.9)"/><path d="M-20.85 17.5v.3q0 .65 4.7 1.05l4.95.35 4.9 1.4q3.15 1.05 4.5 1.05 1.55 0 3-.9 1.3-.8 1.6-1.85l.05-.1-1.9-2.25.6-1.1.55-1 .15.2 2.15 2.4.65 1.5v.15q-.5 1.1-2.4 2.55Q-.1 23.4-3.1 23.4q-2.2 0-8.2-1.9-6-1.9-9.6-1.9l-2.55.05 1.7-1.4.9-.75M5.35 5.55l1.55 1 .55.4-1 1.5-1.15 1.7v-.05L3.65 8.5l1.7-2.95M10.25 9l2.15 1.6 1.2-.5.6-.15q1.3 0 4.2 1.95l.9-1.55 2.95 2.3q-1.85 4.7-6.2 4.7l-1.5.05.05-1.05q-.1-.85-.6-.85-.35 0-.7.65l-.2.5q-.45-.85-1.95-1.9l-2.4-1.65q1.15-2.4 1.5-4.1m10-.9.2-.8.55.1 1.4.2.85.25-.1 1.25-.85-.55-2.05-.45" fill="#3334af" transform="translate(25.1 24.9)"/><path d="m-.9 12.1-.6-3 .65-.8.7-.8Q.25 9 1 10.6l-.9.65-1 .85m-.05-8.7q.25-.45.65-.45 1.6 0 5.65 2.6L3.65 8.5l-.2-.2Q2.3 7.05.55 4.4l-.1-.3v-.15L.5 3.7H.15l-.7-.05-.05-.05h-.1l-.25-.2" fill="#6e2d55" transform="translate(25.1 24.9)"/><path d="m-1.5 9.1-.2-2.4.3-2.35q.15-.65.45-.95l.25.2h.1q-.15 1.85.45 3.9l-.7.8-.65.8m5.15-.6 1.65 1.6v.05l2.45 2.15 1 .8 2.4 1.65q1.5 1.05 1.95 1.9l.2-.5q.35-.65.7-.65.5 0 .6.85l-.05 1.05 1.5-.05q4.35 0 6.2-4.7.65-1.7.9-3.45v-.1l.1-1.25.65.3.15.05.05.05.1.05.15.25.05.65-1.5 4.85q-1.95 4.75-4.15 4.75l-1.3-.35-1.7-.3q-1.2 0-2.4.5-.9-1.95-2.65-3.4l-4.2-3q-1.95-1.45-3.75-3.6L.55 4.4q1.75 2.65 2.9 3.9l.2.2M1 10.6l1.05 2.05 2.35 4.4-2.15-2.4-.15-.2-.05-.05L.1 11.25l.9-.65" fill="#21154f" transform="translate(25.1 24.9)"/><path d="M-19.6 10.8q-.2 1.7-.75 4.1l-.5 2.6-.9.75-1.7 1.4h-.15l4-8.85M.95 16.55Q0 14.95-.7 12.75l-.2-.65 1-.85 1.95 3.15.05.05-.55 1-.6 1.1m6.5-9.6L10.25 9q-.35 1.7-1.5 4.1l-1-.8-2.45-2.15 1.15-1.7 1-1.5m11.85 3.4.4-.95.55-1.25V8.1l2.05.45.85.55v.1q-.25 1.75-.9 3.45l-2.95-2.3" fill="#5b62c2" transform="translate(25.1 24.9)"/><path d="m-19.15 9.9-.2.35-.25.55-4 8.85h.15l2.55-.05q3.6 0 9.6 1.9t8.2 1.9q3 0 5.75-2.15 1.9-1.45 2.4-2.55v-.15l-.65-1.5-2.35-4.4L1 10.6Q.25 9-.15 7.5q-.6-2.05-.45-3.9l.05.05.7.05H.5l-.05.25v.15l.1.3 2.2 4.25q1.8 2.15 3.75 3.6l4.2 3q1.75 1.45 2.65 3.4 1.2-.5 2.4-.5l1.7.3 1.3.35q2.2 0 4.15-4.75l1.5-4.85-.05-.65-.15-.25-.1-.05-.05-.05-.15-.05-.65-.3-.85-.25-1.4-.2.2-.9 3.9.85q-.1 3.5-1.95 7.15-2.4 4.85-4.9 4.85l-1.4-.25-1.95-.2-1.65.2-.55.1q-.65-1.6-2-3L7 13.35Q1.85 9.65.3 4.85q-.1 1.7 1.5 5l.05.05.6 1.25 4.75 8.1-5 4.15q-2.45 1.55-5.1 1.55-1.2 0-6.75-2.2t-10.95-2.2l-2.8.5-1.7.4.4-1.2L-20.35 9l.35.3.85.6M.3 4.7l-.15-.25.15.4V4.7" transform="translate(25.1 24.9)"/></g><g id="f" fill-rule="evenodd"><path d="M-15.85-27.8v-.1h-.1l-2.7-1.4q-1.1 8.95 1.2 17.65l.1.35Q-14-5.9-10.5-.85-4 8.5 2.9 16.5l-.45 1Q-8.75 4.95-18.7-10.45q-2.65-11-1.25-21.2Q-9.6-26.5-.7-17.85l11.65 26.3L8.8 8.1 3.1-5.8l-4.6-11.1q-6.55-6.6-14.35-10.9" fill="#6888c8" transform="translate(20.45 31.65)"/><path d="m-15.95-27.9.1.1q7.8 4.3 14.35 10.9L3.1-5.8Q1.6-3.5 1.15-3.3l-.95-2-.65-1.15L.9-8.6q0-.5-2.5-4.65t-3.1-4.65l-5.75-4.55q-2.9-2.1-4-2.1l-.95-.05-.3-.05-.35.4q-.5.6-.8 2.1-.4 2-.4 4.25h-.05l-.3-1.5-.55-3.85q0-2.6.4-3.55.45-1.05 1.8-1.1" fill="#e7f8ff" transform="translate(20.45 31.65)"/><path d="M3.1-5.8 8.8 8.1q-2.25-.55-5.05-2l.05.3-5.45-9.65q-1.2-4.4-2.7-8.2Q-5.4-14.3-6.3-16l-.2-.4-.25-.1-1.9-.9-1.65-.65-.3.3-3.45-4.2-2-2.3.35-.4.3.05.95.05q1.1 0 4 2.1l5.75 4.55q.6.5 3.1 4.65T.9-8.6L-.45-6.45.2-5.3l.95 2q.45-.2 1.95-2.5m-20.55-5.85q-2.3-8.7-1.2-17.65l2.7 1.4q-1.35.05-1.8 1.1-.4.95-.4 3.55l.55 3.85.3 1.5.05.25.2 1.75q.4 1.8 1.4 4.2l-.95.05h-.85" fill="#fffbfb" transform="translate(20.45 31.65)"/><path d="M-17.25-17.9q0-2.25.4-4.25.3-1.5.8-2.1l2 2.3 3.45 4.2-.3 1.65-.1 2.35v.15l6 6.9 2.2 2.25.5.55.65.65L3.8 6.4l.15 1.4.2 1.85q0 2.95-.95 5.95-.8-.45-1.45-1.4-.6-.85-.6-1.4l2-2.35Q1.9 8.4 1.5 8.1l-2.45 2.2-2.45-2.9q-2.1-2.55-3.65-5.05Q-5.2.15-5.2-.2q0-.55-1-1.85-1.05-1.4-1.55-1.4l-1.15.9-1.25 1.35q-3.75-6.25-5.5-10.5-1-2.4-1.4-4.2l-.2-1.75v-.25" fill="#6a8bbd" transform="translate(20.45 31.65)"/><path d="m19.3 15.35-.3-.6-1.4-1.95-.6-.6-.15.05q-.9.2-3.45 1.85l-.4.25-3.6 2.55-.95.65-2.9 2.05-.3.2-.55.4-.2.1q-1.55 1.15-3.35 3.05 1.4 2.4 2.65 3.9l.2-.15 7.65-5L20 16.85l-.7-1.5m-6.05-1.65q2.65-1.65 3.9-1.85l.75.75 1.25 1.75.5.8.65 1.5.1.35-5.15 3.35.75 1.45-.55.5-.3.3 2.15 3.45L18.6 28l-.25.2-3.2 2.35-1.6 1.05-2.4-3.5-1.6-2.7q-.85.4-.95.5l-.3-.45-.4-.5-3.95 2.5-.2.1-1.65-2.1L.8 23.3q1.2-1.5 3.7-3.5l.45-.35.35-.25L9 16.5l.1-.05.9-.65 2.85-1.8.4-.3m1.6 7.4L8.35 25l.35.5 6.55-3.75-.4-.65m1.8 7.85 1.6-.85-3.75-5.6-4.65 3q2.2 2.9 3.7 5.65.25-.6 3.1-2.2" fill="#570006" transform="translate(20.45 31.65)"/><path d="m17.6 12.8 1.4 1.95.3.6-6.15 3.7Q8.05 22.2 5 24.5l-.05-.05.25-.6q0-.4-.4-.4-.75 0-1.35.45l-.15.15-.3-.55-.35-.6 1.1-1.2L5 20.65q.8-.65 1.75-1.05l5.8-3.45 5.05-3.35M-10-17.55l1.95 2.15-.2.45.25 1.05.6.45.4-.45 2.85 5.6 1.55 3.2.1.5-.85-.8-.55-.85-1.75-3.15-2.05-3.4-1.35-2.35-1.15-2.3.05-.1h.15" fill="#e51156" transform="translate(20.45 31.65)"/><path d="m19.3 15.35.7 1.5-8.35 5.25-7.65 5-.7-1.2-.5-.9q0-.45.4-.9l.1-.05.15-.15q.6-.45 1.35-.45.4 0 .4.4l-.25.6v.05H5q3.05-2.3 8.15-5.45l6.15-3.7m-29.5-32.8 1.15 2.3 1.35 2.35 2.05 3.4 1.75 3.15.55.85-4.2-4.45q-3-3.3-3.05-4.35l.1-1.8.2-1.15.1-.3" fill="#6d0313" transform="translate(20.45 31.65)"/><path d="m-10.6-17.75.3-.3 1.65.65 1.9.9.25.1.2.4q.9 1.7 1.95 4.55 1.5 3.8 2.7 8.2l-.65-.65-.5-.55L-5-6.7l-6-6.9v-.15l.1-2.35.3-1.65m8 12.65-.35-1.3-.75-2.45-1.55-3.75-1.35-3-.75-.7-1.3-.7-1.15-.45-.2-.1h-.15l-.05.1-.1.3-.2 1.15-.1 1.8q.05 1.05 3.05 4.35l4.2 4.45.85.8-.1-.5" fill="#691d25" transform="translate(20.45 31.65)"/><path d="m4 27.1-.2.15q-1.25-1.5-2.65-3.9 1.8-1.9 3.35-3.05l.2-.1.55-.4.3-.2 2.9-2.05.95-.65 3.6-2.55.4-.25q2.55-1.65 3.45-1.85l.15-.05.6.6-5.05 3.35-5.8 3.45Q5.8 20 5 20.65L3.75 21.7l-1.1 1.2.35.6.3.55-.1.05q-.4.45-.4.9l.5.9.7 1.2M-2.6-5.1l-1.55-3.2L-7-13.9l-.4.45-.6-.45-.25-1.05.2-.45-1.95-2.15.2.1 1.15.45 1.3.7.75.7 1.35 3 1.55 3.75.75 2.45.35 1.3" fill="#fff" transform="translate(20.45 31.65)"/><path d="M2.9 16.5Q-4 8.5-10.5-.85-14-5.9-17.35-11.3l-.1-.35h.85l.95-.05q1.75 4.25 5.5 10.5l1.25-1.35 1.15-.9q.5 0 1.55 1.4 1 1.3 1 1.85 0 .35-1.85 2.55Q-5.5 4.85-3.4 7.4l2.45 2.9L1.5 8.1q.4.3 1.65 2.35l-2 2.35q0 .55.6 1.4.65.95 1.45 1.4l-.3.9" fill="#a3bcdd" transform="translate(20.45 31.65)"/><path d="m8.8 8.1 2.15.35 2.3 5.25-.4.3-.7-1.85-.35-1.05-.95-2.4-1.8.1-1.45-.4-3.2-1.45V7l.25 1.85q0 2.9-.75 5.8l-.7 2.25-.05.2.15.2 1.65 2.15-.45.35-1.55-1.95-.45-.3-.05-.05.45-1 .3-.9q.95-3 .95-5.95l-.2-1.85-.15-1.4-.05-.3q2.8 1.45 5.05 2" fill="#8b4300" transform="translate(20.45 31.65)"/><path d="m3.3 17.3-.15-.2.05-.2.7-2.25q.75-2.9.75-5.8L4.4 7v-.05L7.6 8.4l1.45.4 1.8-.1.95 2.4-1.2.75-.25.05-1.2.05-1.4-.3L10 15.8l-.9.65-2.45-3.9-.05.55-.6-.8q-.1 1.1-1.5 3.05L3.3 17.3" fill="#fffaf4" transform="translate(20.45 31.65)"/><path d="m3.3 17.3 1.2-1.95Q5.9 13.4 6 12.3l.6.8-.65 1.8q-.85 2.2-1.6 2.95l.95 1.35-.35.25L3.3 17.3" fill="#ffe862" transform="translate(20.45 31.65)"/><path d="m11.8 11.1.35 1.05.7 1.85L10 15.8l-2.25-4.15 1.4.3 1.2-.05.25-.05 1.2-.75m-6.5 8.1-.95-1.35q.75-.75 1.6-2.95l.65-1.8.05-.55 2.45 3.9-.1.05-3.7 2.7" fill="#b36b0d" transform="translate(20.45 31.65)"/><path d="m14.85 21.1.4.65L8.7 25.5l-.35-.5 6.5-3.9m1.8 7.85q-2.85 1.6-3.1 2.2-1.5-2.75-3.7-5.65l4.65-3 3.75 5.6-1.6.85" fill="#e11054" transform="translate(20.45 31.65)"/></g><g id="g" fill-rule="evenodd"><path d="m15.3-18.1 1.15.3.55.3.05.2 1.45 4.05q1.55 4.7 1.55 6.45l-.25 1.3-.15.7-.3.45q-1.25 1.9-2.7 2.65-1.2.6-3.5.75l-.5.05h-1.3L7-1.45q-1.05-.45-1.95-1.5L4.2-4l-.05-1.75.05-2.15.05-.3.45-4.85.05-.55.45-.55q-.5 3.1-.65 5.8v.3l-.1 1.95.1 1.5.15.35q.3.65.75 1.2.7.9 1.8 1.35 1.4.55 4 .55h.1l1.45-.1.8-.2.45-.1Q15.55-2 17-3.5q1.8-1.9 1.8-4.25 0-2.45-.8-4.45l-2.7-5.9" fill="#8b4300" transform="translate(20.05 18.15)"/><path d="m12.3-13.45-1.3-.2q-1.75 0-3 1.25l-.55.65-.4.8q-.35.75-.35 1.6 0 1.65 1.15 2.9L8-6.3q.6.6 1.3.9l.3.2h.3l1.1.15q1.8 0 3.05-1.25 1.15-1.2 1.25-2.75v-.3l-.2-1.4-1.05-1.65q-.7-.7-1.6-1l-.15-.05m-5.9 5.2L6.25-9.4q0-1.95 1.4-3.35 1.4-1.4 3.35-1.4 2 0 3.4 1.4.8.8 1.2 1.85l.2 1.5q0 2-1.4 3.4T11-4.6h-.45q-.95-.1-1.75-.5l-.9-.65L7.65-6q-1-1-1.25-2.25" fill="#570006" transform="translate(20.05 18.15)"/><path d="M7.45-11.75 8-12.4q1.25-1.25 3-1.25l1.3.2-.25.35q-.4.65-.4 1.55l.2 1.25.15.75h-.05l-.25.45.25.8.2.9q0 .8-.7 1.5-.65.65-1.55.7l-.6-.2q-.7-.3-1.3-.9l-.15-.15-.05-.3q0-1.6 1.7-2.25 1.7-.7 1.7-1.3 0-.85-.6-1.4-.65-.55-1.75-.55-.85 0-1.4.5" fill="#e51156" transform="translate(20.05 18.15)"/><path d="m15.3-18.1 2.7 5.9q.8 2 .8 4.45 0 2.35-1.8 4.25-1.45 1.5-2.95 1.95l-.45.1-.8.2-1.45.1h-.1q-2.6 0-4-.55-1.1-.45-1.8-1.35Q5-3.6 4.7-4.25l-.15-.35-.1-1.5.1-1.95v-.3q.15-2.7.65-5.8 1.35-1.4 4.45-2.6 3.55-1.4 5.4-1.4l.25.05m.3 7.2q-.4-1.05-1.2-1.85-1.4-1.4-3.4-1.4-1.95 0-3.35 1.4-1.4 1.4-1.4 3.35l.15 1.15-.9.15q-.3.05-.3.6 0 2.65 1 4.1l.05.15.3.3q1.4 1.5 4.25 1.5l.65-.05.55-.05h.2l.8-.25.25-.05q1.2-.45 2.3-1.4 2.05-1.85 2.05-4.5l-.3-1.75-.45-1.95-1.25.55" fill="#b36b0d" transform="translate(20.05 18.15)"/><path d="m12.3-13.45.15.05q.9.3 1.6 1l1.05 1.65.2 1.4v.15l-.5-.35-1.2-.3-1.6.3-.15-.75-.2-1.25q0-.9.4-1.55l.25-.35" fill="#4365a6" transform="translate(20.05 18.15)"/><path d="M7.85-6.45Q6.7-7.7 6.7-9.35q0-.85.35-1.6l.4-.8q.55-.5 1.4-.5 1.1 0 1.75.55.6.55.6 1.4 0 .6-1.7 1.3-1.7.65-1.7 2.25l.05.3" fill="#fff" transform="translate(20.05 18.15)"/><path d="M15.3-9.2v.15q-.1 1.55-1.25 2.75Q12.8-5.05 11-5.05L9.9-5.2q.9-.05 1.55-.7.7-.7.7-1.5l-.2-.9-.25-.8.25-.45H12l1.6-.3 1.2.3.5.35" fill="#6d0313" transform="translate(20.05 18.15)"/><path d="m15.6-10.9 1.25-.55.45 1.95.3 1.75q0 2.65-2.05 4.5-1.1.95-2.3 1.4L13-1.8l-.8.25.05-.55-.1-.5-.5-.35-.95.1-.2-.05.4-.9-.35-.8H11q2 0 3.4-1.4t1.4-3.4l-.2-1.5M6.2-3.4q-1-1.45-1-4.1 0-.55.3-.6l.9-.15Q6.65-7 7.65-6l.25.25.9.65-.55.7-.35.5-.4-.2-.65-.2q-.65 0-.65.7v.2" fill="#ffe862" transform="translate(20.05 18.15)"/><path d="M12.2-1.55H12l-.55.05-.65.05q-2.85 0-4.25-1.5L6.4-3.2l-.2-.2v-.2q0-.7.65-.7l.65.2.4.2.35-.5.55-.7q.8.4 1.75.5l.35.8-.4.9.2.05.95-.1.5.35.1.5-.05.55" fill="#fffaf4" transform="translate(20.05 18.15)"/><path d="m4.25-8.2-.05.3-2.05.85q-1.65.7-2.85.7-.9 0-1.3-.3l-2.7-.75-2.1-.75L-9.25-9l-.6-.2h-.1l-.05-.1 3.6 1.05q4 1.45 5.45 1.45 1.55 0 5.2-1.4m8.4 7.3.5-.05Q9.6 6.95 7.5 9.65l-.6.7-.4-.55.55-.6q2.2-2.6 3.6-5.4l2-4.7" fill="#3163a4" transform="translate(20.05 18.15)"/><path d="m4.2-7.9-.05 2.15L4.2-4l.85 1.05q-.75.25-1.05.5Q3.45-2 3.45-.9q0 1.05 1.1.85L-3.6 1.9q.3-1.2.3-2.7 0-3.1-1.6-4.85Q-6-6.9-9.85-9.15v-.05l.6.2 2.45.85 2.1.75 2.7.75q.4.3 1.3.3 1.2 0 2.85-.7L4.2-7.9m7.15 7h1.3l-2 4.7q-1.4 2.8-3.6 5.4l-.55.6-.2-.6q.95-.95 2.55-4.05Q10.6 1.8 11.35-.9" fill="#f4f9ff" transform="translate(20.05 18.15)"/><path d="M5.05-2.95Q5.95-1.9 7-1.45l4.35.55q-.75 2.7-2.5 6.05-1.6 3.1-2.55 4.05v-.05l-.45-2.1q-.45-1.2-1.9-1.5L3.7 5.5l-.5-.15-.6-.1h-.1l-1.6.4L-2 7.6q-.15-.75-1-1.75-.9-1.05-1.95-1.3.9-1.1 1.35-2.65L4.55-.05q-1.1.2-1.1-.85 0-1.1.55-1.55.3-.25 1.05-.5" fill="#6597c8" transform="translate(20.05 18.15)"/><path d="M6.9 10.35q-1.95 2.3-4.85 3.85l-.4.25q-3.05 1.55-5.1 1.8l-5.65.95-4.6.9-1.65.1-1.35-.55q-.65-.4-1.45-3l-.65-2.4-.1-.45q-1.15-4.85-1.15-10.05l.3-3.95.65-3.85.55-1.4.7-1.2.6-.8 1.7-.15 1.7-.15 3.85.45.05.1h.1v.05Q-6-6.9-4.9-5.65-3.3-3.9-3.3-.8q0 1.5-.3 2.7-.45 1.55-1.35 2.65Q-3.9 4.8-3 5.85q.85 1 1 1.75L.9 5.65l1.6-.4h.1l.6.1.5.15.25.05q1.45.3 1.9 1.5l.45 2.1v.05l.2.6.4.55M-12.55-.1q-1.2.05-1.85 1.3-.55 1-.55 2.45 0 1.6 1.25 2.55.95.65 2 .75l.65.2q1.8 0 3.35-.95l.25-.15L-6.1 4.9Q-4.9 3.6-4.35 2q.5-1.5.5-3.25 0-2.8-2.9-5.35Q-9-8.55-11.6-9.35l-.55-.05-3 .3-1.75.3-.35.15-.6 1v.05q-1.7 3.35-1.7 9.6l.2 3.65.8 5.05.3 1.45.95 3 .55 1.15.55.75q.1 0 .15.1l.55.25 1.55.1h.05l3.85-.5 3.3-.8 2.95-.35 2.85-.65.4-.25.5-.2L2.1 13.5q2.25-1.5 4.1-3.4l-.15-.7-.55-1.95q-.65-1.7-2.55-1.7-1.8 0-3 .75L-2.1 8.1q-.15-.8-1.3-2-1.1-1.2-1.95-1.2L-6.8 5.95l-.9.65q-1.85 1-3.55 1-4.45 0-4.45-4.05 0-1.95 1.1-3.1.9-1.05 2.1-1.05l.5.05q.95.1 1.5.8-.35-.35-1.9-.35h-.15" transform="translate(20.05 18.15)"/><path d="m-17.85-7.65.6-1 .35-.15 1.75-.3 3-.3.55.05q2.6.8 4.85 2.75 2.9 2.55 2.9 5.35 0 1.75-.5 3.25-.55 1.6-1.75 2.9l-1.35 1.15-.25.15q-1.55.95-3.35.95l-.65-.2q-1.05-.1-2-.75-1.25-.95-1.25-2.55 0-1.45.55-2.45.65-1.25 1.85-1.3l-.55.6q-.85 1-.85 2.15 0 1.7 1.3 2.45.9.55 2.3.55 2.65 0 4.25-2.6l.55-1q.6-1.35.6-2.6 0-2.95-2.55-4.95-2.5-2-6.25-2l-1.05.1-1.3.05-1.05-.15-.65-.1-.05-.05M-6.8 5.95l1.45-1.05q.85 0 1.95 1.2 1.15 1.2 1.3 2l2.05-1.6q1.2-.75 3-.75 1.9 0 2.55 1.7l.55 1.95.15.7Q4.35 12 2.1 13.5l-2.15 1.25-3.4.25-8.65-.7q-2.3-.45-4.3-1.25l-.4-1q-.6-1.4-.6-2.3 0-.5.5-.5.9 0 3.2 1.9 3.25 1.9 8.8 1.9h2Q5 12.6 5 8.65q0-1-.95-1.6L2.5 6.6q-1.05 0-2.8 1.5l-1.4 1.4-.65.65.25-1.05v-.25Q-2.25 7.6-4.15 6.7q-1.45-.65-2.65-.75" fill="#21154f" transform="translate(20.05 18.15)"/><path d="m-14.8-7.4 1.05-.1q3.75 0 6.25 2 2.55 2 2.55 4.95 0 1.25-.6 2.6l-.45.2-1.9.45h-.6l.4-.85q.4-.8.4-1.6l-.05-1.85q-.2-.1-.8.45-.6.5-1.1.5-1.05 0-1.4-.9l-.4-1.95q-.45-2.9-2.85-2.9l-1.1.15-.95.25 1.55-1.4M-1.7 9.5l1.4-1.4q1.75-1.5 2.8-1.5l1.55.45q.95.6.95 1.6 0 3.95-7.9 4.4 2.2-.8 4-2.45 2.05-1.9 2-3-.35.85-1.35 1.6-1.05.85-2.1.85l-1.1-.3-.25-.25" fill="#5b62c2" transform="translate(20.05 18.15)"/><path d="M-12.55-.1h.15q1.55 0 1.9.35-.55-.7-1.5-.8l-.5-.05q-1.2 0-2.1 1.05-1.1 1.15-1.1 3.1 0 4.05 4.45 4.05 1.7 0 3.55-1l.9-.65q1.2.1 2.65.75 1.9.9 2.05 2.15v.25l-.25 1.05.65-.65.25.25 1.1.3q1.05 0 2.1-.85 1-.75 1.35-1.6.05 1.1-2 3-1.8 1.65-4 2.45h-2q-5.55 0-8.8-1.9-2.3-1.9-3.2-1.9-.5 0-.5.5 0 .9.6 2.3l.4 1-1.85-.9-.3-1.45-.8-5.05-.2-3.65q0-6.25 1.7-9.6h.05l.65.1 1.05.15 1.3-.05-1.55 1.4.95-.25 1.1-.15q2.4 0 2.85 2.9l.4 1.95q.35.9 1.4.9.5 0 1.1-.5.6-.55.8-.45L-7.7.25q0 .8-.4 1.6l-.4.85h.6l1.9-.45.45-.2-.55 1q-1.6 2.6-4.25 2.6-1.4 0-2.3-.55-1.3-.75-1.3-2.45 0-1.15.85-2.15l.55-.6" fill="#3334af" transform="translate(20.05 18.15)"/><path d="m-.05 14.75-.5.2-.4.25-2.85.65-2.95.35-3.3.8-3.85.5h-.05l-1.55-.1-.55-.25q-.05-.1-.15-.1l-.55-.75-.55-1.15.45.2 1.6.65h.05l-1.2-2.95q2 .8 4.3 1.25l8.65.7 3.4-.25" fill="#662025" transform="translate(20.05 18.15)"/><path d="m-17.3 15.15-.95-3 1.85.9 1.2 2.95h-.05l-1.6-.65-.45-.2" fill="#6e2d55" transform="translate(20.05 18.15)"/></g><g id="h" fill-rule="evenodd"><path d="m12.05 4.1-1.5-1.5L8.3.75V.8l.65 2q.3 1.3.75 1.8h-.05L7.2 2.9 4.85 1.15l1.05 2.4.95 2.5V7.1l-.15-.15Q.15-.75-1.85-3.45L2-2.15 6.35-.2 5.7-1.8l-.85-2.05 2.95 2 2.75 2.2 1.3 3.2.2.55m-29.5-15.2-2.3 1.3q-2.95 1.7-3.5 3.05l.9-.55q.6 0 .6 1.6 0 1.85-2 3.95Q-25.55.2-26.5.2l-.55-.3-.2-.45h-.05q-1.65 3.55-2.3 5.9-1.25 4.5-1.25 10.45 0 3.35.5 7.05l.6 3.6-.55-.95q-2.95-5.5-2.95-11.75 0-10.3 3.6-16.1Q-26-8.3-17.45-11.7v.6M19.7 20.2l-.65 1.75-.05-1.8.7.05" fill="#fff" transform="translate(33.9 36.4)"/><path d="M-9.7 3.25h-.25V3.2q1.4-1.8 1.75-3.45l-1.7.8Q-11.8 1.6-13 2.8l-3.85 3.75L-19 3.1q-2.35-3.2-4.5-4.6h-.05l2 2.35.25.35v.1l-.05 2.15.05.5-3.05-2.25v.45l.55 2.15q-.25-.25-2.35-1.2l-.1.25-.45-.55q.5-1.85.95-2.55-.65.7-1.2 2.1l-.05.1q-.65 1.5-1.15 3.8-1.05 4.6-1.35 8.5-.3 3.9.75 8.6.55 2.45 1.4 4 .75 1.5 1.85 2.2v-.05l3.35 4.5.5 1.25q-5.25-3.85-8.1-8.8l-.6-3.6q-.5-3.7-.5-7.05 0-5.95 1.25-10.45.65-2.35 2.3-5.9h.05l.2.45.55.3q.95 0 2.75-1.95 2-2.1 2-3.95 0-1.6-.6-1.6l-.9.55q.55-1.35 3.5-3.05l2.3-1.3q.05 4.8 1.5 7.95l.25.55q7-7.85 19.65-9.5l2.45.6-.15.15q-.45.55-.45 1.45 0 1.15.9 2.1.7.75 1.05.75.55 0 1.3-.65l.75-.65q1.15 0 3.7 4l2.55 4.1q-2.7 1.85-3.55 3.8L9.7-1.8l.7 1.75.15.4-2.75-2.2-2.95-2L5.7-1.8l.65 1.6L2-2.15l-3.85-1.3q2 2.7 8.55 10.4l.15.15V6.05l-.95-2.5-1.05-2.4L7.2 2.9l2.45 1.7h.05q-.45-.5-.75-1.8L8.3.8V.75l2.25 1.85 1.5 1.5.05.1 1.6 4 .1.4.7 2.7.25 1.45.05.05.5 4v1.7q0 2.4-1.65 5.6l-.6-4.6-1.2-6.6-.1.05-1.2 5.15q-1.2 4.2-2.6 6.05v-.45l.4-3.35H8.3q-3.35 6.9-4.25 7.5l.85-3.2.15-3.2q0-2.1-.6-5.35L3.1 10.9Q2.3 8.75-.2 5-2.65 1.25-4.6-.45L-7.35 1.6-9.7 3.25m4.8-.45.15-.85-.2.1.75-1.1.45.65-1.15 1.2" fill="#ece3e8" transform="translate(33.9 36.4)"/><path d="m-26.25 3.35.1-.25q2.1.95 2.35 1.2l-.55-2.15V1.7l3.05 2.25-.05-.5.05-2.15v-.1l-.25-.35-2-2.35h.05q2.15 1.4 4.5 4.6l2.15 3.45L-13 2.8q1.2-1.2 3.1-2.25l1.7-.8Q-8.55 1.4-9.95 3.2v.05h.3l2.85-.6.1-.05 1.75-.55.2-.1-.15.85-.25.85 1.7-.65q.55-.15.75-.3-.15-.35-.65-1.15l-.6-.95h.05l1.45 2 1.7 2.45.3.5.7 1.05.95 2.2 2.05 5.15q1 3.2 1 7.15 0 4.25-2.7 8.7l-1.4 2.15Q-1.4 34-3.1 35.1l-.15.05-.3.25v.1h-.05.05l.05-.05q6.95-2.75 10.75-6.4 4.45-4.15 4.45-9.2l.05.9q0 3.45-1.25 5.85-1.1 2.15-3.95 4.65 3.65-.15 8.1-4 3.15-2.7 4.4-5.3l.65-1.75h.05l1.25-.05q-.25 1.8-1.95 4.05l-2.8 2.9q-5.05 4.7-10 4.7l-.95-.15-4.15 2.65q-3.65 2.1-5.25 2.1l-1.45-.35q1.8-.6 4.05-3.35l.4-.5.75-1q4-5.4 4-11.2 0-7.3-6.2-16.95-1.8.9-3.15.95h-.1l.05-.05.05-.15.2-.6.2-.6v-.25L-6.5 3q-1.35.65-2.65.65l-.95-.1h-.1l-.35-.1h-.1l.9-1.35.8-1.45-1.55.9-2.5 1.9-2.5 2.25-1.1 1.1-.25-.25-.35.25q-1.05-1.95-3.5-5.35l-.05-.05v.05l-.1 1.35-.05 1.7-2.95-1.8.3.95.55 1.2h-.05l-2.9-1.05-.45 4.45-.2 2.6-.4-.2.2-2.7.55-4.6m39.9 20.75q1.65-3.2 1.65-5.6v-1.7l-.5-4-.05-.05-.25-1.45-.7-2.7-.1-.4-1.6-4-.05-.1-.2-.55-1.3-3.2-.15-.4-.7-1.75 2.8 5.35-.1.3.15-.3 1 2.15.15.25.2.4.2.5 1.05 2.5.7 2.5.2 1.1.05.2q.35 2.3.35 5.1v.55q0 2.25-1.6 5l-1.2 1.8q-1.4 1.9-3.4 3.4L13 25.2l.65-1.1M6.4-11.5l-2.45-.6 2.95-.3q7.5 1.75 12.8 10l-.3.15-.7.35-.15.05q-5.6-7.6-12.15-9.65m-36.15 37.95q2.85 4.95 8.1 8.8l-.5-1.25-.55-1.5-.15-.35q-.5-1.4-.9-1.7l1.25.85.3 1.2.55 1.55.55 1.4.15.4v.05l-.15-.2-.15-.1-.5-.15q-4.5-3.15-7.15-6.5l-1.45-2.1Q-33.9 21-33.9 12.55q0-10.3 3.65-15.9t12.8-9.55v1.2Q-26-8.3-29.65-2.35q-3.6 5.8-3.6 16.1 0 6.25 2.95 11.75l.55.95m4.25 3.1q-1.1-.7-1.85-2.2-.85-1.55-1.4-4-1.05-4.7-.75-8.6.3-3.9 1.35-8.5.5-2.3 1.15-3.8l.05-.1q.55-1.4 1.2-2.1-.45.7-.95 2.55l-.05.1-.95 4.4q-1.05 5.55-1.15 9.05-.15 3.5 1.2 8.15.85 2.75 1.9 4.7l.25.35m1.65-26.85h-.05.05M-8.95.65v-.1.1" fill="#93669e" transform="translate(33.9 36.4)"/><path d="m-.2-14.2.1-.05.3-.05.9 1.5.5.7q-9.5 1.85-16.7 7.35Q-14-6.4-11.55-8.2l4.45-2.95q3-2.1 6.9-3.05m6.1-9.25-1.15-.15-1.2-.2h-.3q-.5.1-.95.6-.6.6-.6 1.25l.1 1.05.45.55.9-.1h.4l-1.5 4.1-.8 3.15-.6-1.15-.05-.1Q-3.15-22.4 7.4-33.2l2.1 4.55q-2.3 2.75-3.6 5.2" fill="#21154f" transform="translate(33.9 36.4)"/><path d="M12.5 3.55q.85-1.95 3.55-3.8l2.5-1.6.15-.05.7-.35.3-.15q5.5-2.8 9.25-2.8 2.6 0 3.85.9 1.1.75 1.15 2.2v.15q0 1.7-1.15 3.8Q32.05 3.3 31.3 4q.7.15 1.15.9l.45 1.3.05.45q0 3.35-3.8 5.7Q26.5 14 23 14.75l1.15 1.1q.45.7.45 1.3l-.05.8q-.35 1.3-1.75 1.85l-1.7.35H21l-1.25.05h-.05l-.7-.05q-.95-.15-1.75-.7l-.8-.65v-.55l1.5.85 2.15.35q1.45 0 2.4-.5l.85-.8.25-.95q0-.85-.7-1.9l-.3-.35-.9-.7-1.05.15H19.5l-1.85-.2 2.05-.15.45-.05 3.75-.5q2.65-.25 5.1-2.3 2-1.65 2.4-3.35l.15-1q0-1.8-1.75-1.8-.3 0-2.05.85l-2 .75-.25.05-.5.05 1.8-.6 2.6-1.65.95-.85q1.95-2.05 2.3-4.1l.05-.95q0-1.95-1.65-2.5l-1.65-.2q-3.6 0-9 2.1-2.45.95-4.2 2.05-2.6 1.6-3.65 3.5h-.05M-11.1-16.4l-.3-2q.95-.55 1.9-2.05l.05-.05 1.05-1.85q.55-1.15.8-2.35l1.05 4.5q.55 1.7 1.7 3.05l.2.25-.35.2-3.15 1.85-3.25 2.15.1-.65.25-1.7-.05-1.35m14.65-4.05h-.4l-.9.1-.45-.55-.1-1.05q0-.65.6-1.25.45-.5.95-.6h.3l1.2.2 1.15.15.45.05 1.25.15 4.2.15h.15l2.15-.1-.15-.85v-.3q0-1.95 1-2.65.75-.55 2.35-.55l2.25.4.8.55.65.45.5.3.4.45.3.4.3 1.2q0 2.8-1.8 4.4-1.4 1.2-2.85 1.2l-1.55-.3-1-.35-9.1-1.4-1.6-.1-1.05-.1m8.35-2.35h-.5l-4-.2-1.2-.1-1.65-.2H4.5l-1.15-.2-.1-.05-.15.1-.6.4q-.35.5-.35 1.25l.1.6.2.2.1.1 8.9 1 3.1.45 2.5.7.5.1.15.05q1.2 0 2.3-.8 1.75-1.25 1.75-4l-.05-.8q-.25-1-1.05-1.75l-.35-.3q-1.4-1.1-3.25-1.1-1.2 0-1.9.75-.7.7-.8 2l-.05.5.2 1.05q.25.6.8 1.15.9.85 1.7.85.7 0 1.4-.5.95-.75.95-2.05l-.15-1.15-.05-.05h.05l.15.35.25 1.1v.4q-.25.85-1.2 1.55-.95.7-1.4.7-1.45 0-2.3-1.15l-.6-1.2-2.2.25m-23.75.6-2.85-.1-.2-.1q-.7-.55-.7-1.8 0-1 1.2-1.7l.2.05 2.35.25.5.1.9.15.1.05v.5l-1.05-.2-2.9-.55-.55.35-.4.85.15.95.65.7h.2l.05.05 1.8.2h1.5l-.1.15v.1h-.85m3.6.5-.85 1.45-1.9 2.15.1 1.3.25 1.7-.1.9-.15.8v.05l2.7-2.3q1.85-1.35 2.8-1.4-.65-.65-1.35-2.4-.95-2.25-.9-3.9l-.55 1.5-.05.15m27.3 29.2q.65 1 .75 2.4l.05.3v.35q0 1.5-1.15 2.15l-2 .45h-.6l-.05-.2h.05q.85 0 1.85-.55 1.3-.75 1.3-2.05v-.3q-.1-1.25-.95-2.5l-.15-.3q-1-1.4-1.95-1.7Q18.05 6 19 7.4l.05.1" fill="#8b4300" transform="translate(33.9 36.4)"/><path d="M-.2-14.2q-1.4-2.4-1.4-5.1 0-4.15.85-6.25.7-1.75 3.7-5.65-1.15-.1-1.15-1.3 0-.65.4-1.5H-.2l-5.75.45-2 .5.05.55q0 .85-.45 1.3l-.65.55.1.6.25 2.7q0 1.95-.3 4.25-.2 1.6-.55 2.6v.05q-.95 1.5-1.9 2.05l.3 2-1.6 2.2-2.45 3.1q-.7 1-.7 2.8l.05 4.15-.1.05-.05.05q-.75-3.3-1-7.25l-.05-.6v-.15l.35-.25q3.25-2.7 4.9-5.9 1.4-2.65 1.75-5.55l.1-.8v-.2q.25-4.15-1.4-8.95 9.7-2.6 18.15.3Q-3.65-22.15.2-14.3l-.3.05-.1.05" fill="#5b62c2" transform="translate(33.9 36.4)"/><path d="M-9.5-20.5q.35-1 .55-2.6.3-2.3.3-4.25l-.25-2.7-.1-.6.65-.55q.45-.45.45-1.3l-.05-.55 2-.5L-.2-34h2.4q-.4.85-.4 1.5 0 1.2 1.15 1.3-3 3.9-3.7 5.65-.85 2.1-.85 6.25 0 2.7 1.4 5.1-3.9.95-6.9 3.05l-4.45 2.95Q-14-6.4-15.1-4.75l-.7.6-.05-4.15q0-1.8.7-2.8l2.45-3.1 1.6-2.2.05 1.35-.25 1.7-.1.65 3.25-2.15L-5-16.7l.35-.2-.2-.25Q-6-18.5-6.55-20.2l-1.05-4.5q-.25 1.2-.8 2.35l-1.05 1.85h-.05m-7.3 29.45.1-.05q.6 0 1 1.15l.2.55-.7 1.05-.3.7 1.2.65-.05 1.1-1.35-.3v.25q.25.5.25 2.3l-.15.1q-.4 0-.4-3.65l.2-3.85" fill="#3334af" transform="translate(33.9 36.4)"/><path d="M3.95-12.1Q-8.7-10.45-15.7-2.6l-.25-.55q-1.45-3.15-1.5-7.95v-1.8q4.3-4.35 5.6-9.3h.85v-.1l.1-.15v-.05l.25-.65.2-.65.1-.85v-.65l-.1-.05-.9-.15q.25-4.2-1.35-8.8 12.2-4.45 21.25.55l2.4 5.4Q8.9-25.6 7.6-23.25l-1.25-.15-.45-.05q1.3-2.45 3.6-5.2L7.4-33.2Q-3.15-22.4.6-14.45l.05.1.6 1.15.7 1.05 3.75-.55q-2.5-3.2-1.1-7.65l1.6.1q-1.75 4.65.45 7.3l.45.5-.2.05-2.95.3M.2-14.3q-3.85-7.85 6.65-19.1-8.45-2.9-18.15-.3 1.65 4.8 1.4 8.95v.2l-.1.8q-.35 2.9-1.75 5.55-1.65 3.2-4.9 5.9l-.35.25v.15l.05.6q.25 3.95 1 7.25l.05-.05.1-.05.7-.6q7.2-5.5 16.7-7.35l-.5-.7-.9-1.5" transform="translate(33.9 36.4)"/><path d="m11.9-22.8.45 1.5-.3.3-3.15-.65Q6-22.4 6-22.6l.2-.5 1.2.1 4 .2h.5m9 .95q-.3.2-.7.2-.65 0-.65-.85l.05-.45v-.4l-.25-1.1q.25-.35.55-.35.45 0 .95.6l.2.25v.65l-.05.7-.1.75m-35.15-.85h-.2l-.65-.7-.15-.95.4-.85.55-.35 2.9.55 1.05.2v.15l-3-.45-.9.25-.3.75.05.85.25.55m29.75-3.2v-.05l-.85.95-.3.4q.1-1.3.8-2 .7-.75 1.9-.75 1.85 0 3.25 1.1l.35.3.3 1.05-1.15-.95q-1.2-.75-2.35-.75l-.9.05-1.05.65M13.55 5.7q.5-1.5 2.7-3.4 2.25-1.95 5-3.35Q23.5-2.2 28.9-3.4l2.15-.5q1.65.55 1.65 2.5l-.05.95L31.3.95 30.95-.6q-.4-1-1.35-1-1.35 0-1.95 1.15Q27.1.7 26.6 4.15l-.15.05Q24.1 5.25 21.7 5.4l2.35-3.6-1.35-.2q-.95-.4-.95-.95 0-.3.15-.45l.45-.4Q18.7 1.6 17.4 2.7 15 4.5 14.1 6.85l-.2-.5-.2-.4-.15-.25m18 1.15-.75-.55q-.65-.3-.85-.3-.45 0-1.2.45l-1.85.95-.1 1.85-.35 1.75v.05l-.2.05-2.05.55.05-2-.3.1-.6-.2q-.3-.25-.3-.65l.05-.5-.25.1h-.6l-.8-.15-.55-.15q-.25 0-.55.75l-.3.85-.25.1q-.1-1.4-.75-2.4l.3.05 1.1.1q2.8 0 5.05-.9l.25-.1 2-.75q1.75-.85 2.05-.85 1.75 0 1.75 1.8m-7.3 2.8v-.1.1m-3.6 4.75 1.05-.15.9.7.3.35q.7 1.05.7 1.9l-.25.95H22.1l-2.2-.4.85-.85.35-1.2q0-.85-.45-1.3" fill="#fffaf4" transform="translate(33.9 36.4)"/><path d="m6.2-23.1-.2.5q0 .2 2.9.95l3.15.65.3-.3-.45-1.5 2.2-.25.6 1.2q.85 1.15 2.3 1.15.45 0 1.4-.7t1.2-1.55l-.05.45q0 .85.65.85.4 0 .7-.2-.4 1.3-1.65 1.75l-3.15.3-2.2-.15-3.35-.6-3.8-.55Q4-21.55 4-22.2l.5-1.1h.05l1.65.2m-16.65-.7-.55-.1-1.6-.15-1.95-.05.3-.75.9-.25 3 .45-.1.85m-.3 9.6.1-.9-.25-1.7-.1-1.3 1.9-2.15.85-1.45.6 1.9 1.05 2.3-2.7 1.9-1.45 1.4M15.5-25.9l1.05-.65.9-.05q1.15 0 2.35.75l1.15.95.1.95-.2-.25q-.5-.6-.95-.6-.3 0-.55.35l-.15-.35h-.05l.05.05-.45 1.4q-.65 1.3-1.95 1.3-1.1 0-1.3-1.6.4.4.65.4.3 0 .75-.35.45-.4.45-.95l-.25-.75q-.3-.4-.75-.4l-1.1.35.25-.55M14.1 6.85Q15 4.5 17.4 2.7q1.3-1.1 4.95-2.9l-.45.4q-.15.15-.15.45 0 .55.95.95l1.35.2-2.35 3.6h-.6q-.75 0-1.3-.65-.6-.6-1.3-.6-3.05 0-3.05 1.65 0 .85 1.1 1.8 1.15.9 1.15 2.2 0 .75-.35 1.3-.45.75-1.35.75h-.15l-.7-2.5-1.05-2.5m12.5-2.7q.5-3.45 1.05-4.6.6-1.15 1.95-1.15.95 0 1.35 1L31.3.95q-1.85 1.75-4 2.85l-.7.35M26.45 11l.35-1.75.1-1.85 1.85-.95Q29.5 6 29.95 6q.2 0 .85.3l.75.55-.15 1Q29.3 10 26.45 11m-6.4-1.2.3-.85q.3-.75.55-.75l.55.15.8.15h.6l.25-.1-.05.5q0 .4.3.65l.6.2.3-.1-.05 2-2.55.2.15-.55q0-.45-.55-.95-.6-.55-1.2-.55m-.4 4.6h1q.45.45.45 1.3l-.35 1.2-.85.85-.45-.3q-.85-.65-1.35-.65l1-1 .55-1.4" fill="#ffe862" transform="translate(33.9 36.4)"/><path d="M4.5-23.3 4-22.2q0 .65 2.75 1.1l3.8.55 3.35.6 2.2.15 3.15-.3q1.25-.45 1.65-1.75l.1-.75.05-.7v-.65l-.1-.95.75.7.05.8q0 2.75-1.75 4-1.1.8-2.3.8l-.15-.05-.5-.1-2.5-.7-3.1-.45-8.9-1-.1-.1-.2-.2-.1-.6q0-.75.35-1.25l.6-.4.15-.1.1.05 1.15.2m-15.4.85h-1.5l-1.8-.2-.05-.05-.25-.55-.05-.85 1.95.05 1.6.15.55.1-.2.65-.25.65v.05m.15 8.25 1.45-1.4 2.7-1.9-1.05-2.3-.6-1.9.05-.15.55-1.5q-.05 1.65.9 3.9.7 1.75 1.35 2.4-.95.05-2.8 1.4l-2.7 2.3v-.05l.15-.8m25.1-10.4.3-.4.85-.95v.05l-.25.55 1.1-.35q.45 0 .75.4l.25.75q0 .55-.45.95-.45.35-.75.35-.25 0-.65-.4.2 1.6 1.3 1.6 1.3 0 1.95-1.3l.45-1.4.15 1.15q0 1.3-.95 2.05-.7.5-1.4.5-.8 0-1.7-.85-.55-.55-.8-1.15l-.2-1.05.05-.5m16.7 20.7-2.15.5q-5.4 1.2-7.65 2.35-2.75 1.4-5 3.35-2.2 1.9-2.7 3.4l-1-2.15q1.05-1.9 3.65-3.5 1.75-1.1 4.2-2.05 5.4-2.1 9-2.1l1.65.2M21.7 5.4q2.4-.15 4.75-1.2l.15-.05.7-.35q2.15-1.1 4-2.85l1.35-1.4q-.35 2.05-2.3 4.1l-.95.85-2.6 1.65-1.8.6.5-.05v.05q-2.25.9-5.05.9l-1.1-.1-.3-.05-.05-.1q-.95-1.4-2.8-1.85.95.3 1.95 1.7l.15.3q.85 1.25.95 2.5v.3q0 1.3-1.3 2.05-1 .55-1.85.55h-.05l-.2-1.1H16q.9 0 1.35-.75.35-.55.35-1.3 0-1.3-1.15-2.2-1.1-.95-1.1-1.8 0-1.65 3.05-1.65.7 0 1.3.6.55.65 1.3.65h.6m2.5 6.25 2.05-.55.2-.05V11q2.85-1 4.95-3.15-.4 1.7-2.4 3.35-2.45 2.05-5.1 2.3l-3.75.5-.45.05-2.05.15 1.85.2h.15l-.55 1.4-1 1q.5 0 1.35.65l.45.3 2.2.4h1.25l-.85.8q-.95.5-2.4.5l-2.15-.35-1.5-.85q0-2.8-.35-5.1h.6l2-.45q1.15-.65 1.15-2.15v-.35l.15-.3.05-.1q.6 0 1.2.55.55.5.55.95l-.15.55 2.55-.2" fill="#b36b0d" transform="translate(33.9 36.4)"/><path d="m1.25-13.2.8-3.15 1.5-4.1 1.05.1Q3.2-15.9 5.7-12.7l-3.75.55-.7-1.05" fill="#662025" transform="translate(33.9 36.4)"/><path d="m16.05-.25-2.55-4.1q-2.55-4-3.7-4l-.75.65q-.75.65-1.3.65-.35 0-1.05-.75-.9-.95-.9-2.1 0-.9.45-1.45l.15-.15q6.55 2.05 12.15 9.65l-2.5 1.6" fill="#5583ba" transform="translate(33.9 36.4)"/><path d="m-9.7 3.25 2.35-1.65L-4.6-.45Q-2.65 1.25-.2 5q2.5 3.75 3.3 5.9l1.35 5.2q.6 3.25.6 5.35l-.15 3.2-.85 3.2q.9-.6 4.25-7.5h.05l-.4 3.35v.45q1.4-1.85 2.6-6.05l1.2-5.15.1-.05 1.2 6.6.6 4.6-.65 1.1-2.75 3.8q2-1.5 3.4-3.4l1.2-1.8q1.6-2.75 1.6-5l.8.65q.8.55 1.75.7l.05 1.8q-1.25 2.6-4.4 5.3-4.45 3.85-8.1 4 2.85-2.5 3.95-4.65 1.25-2.4 1.25-5.85l-.05-.9q0 5.05-4.45 9.2-3.8 3.65-10.75 6.4l-.05.05h-.05.05v-.1l.3-.25.15-.05q1.7-1.1 3.25-3.15l1.4-2.15q2.7-4.45 2.7-8.7 0-3.95-1-7.15L1.2 8.8.25 6.6l-.7-1.05-.3-.5-1.7-2.45-1.45-2h-.05l.6.95q.5.8.65 1.15-.2.15-.75.3l-1.7.65.25-.85 1.15-1.2-.45-.65-.75 1.1-1.75.55-.1.05-2.85.6h-.05M-22.15 34l-3.35-4.5-.25-.3q-1.05-1.95-1.9-4.7-1.35-4.65-1.2-8.15.1-3.5 1.15-9.05l.95-4.4.05-.1.45.55-.55 4.6-.2 2.7-.1 2.15.4 4q.35 2.55.35 4.05l-.1 2.3.05 3.45q.15 1.85 2.6 3.75l.05.1q.4.3.9 1.7l.15.35.55 1.5" fill="#b3899b" transform="translate(33.9 36.4)"/><path d="m-6.5 3 1.2-.65v.25l-.2.6-.2.6-.05.15L-6.5 3m.8 1q1.35-.05 3.15-.95Q3.65 12.7 3.65 20q0 5.8-4 11.2l-.75 1-3.6.7-8.75.85q-2.7-.05-5.85-1.3l2.9-.5 6.8-2q2.7-.9 5.4-3.85 3.35-3.7 3.35-7.75 0-5.7-1.8-9.6Q-3.55 6.8-5.7 4" fill="#ef9174" transform="translate(33.9 36.4)"/><path d="m-26.6 10.85.2-2.6.45-4.45 2.9 1.05h.05l-.55-1.2-.3-.95 2.95 1.8.05-1.7.1-1.35h.05q2.45 3.4 3.5 5.35l.35-.25.25.25 1.1-1.1 2.5-2.25 2.5-1.9 1.55-.9-.8 1.45-.9 1.35h.1l.35.1h.1l.95.1q1.3 0 2.65-.65l.75.95-.05.05h.1q2.15 2.8 3.05 4.75 1.8 3.9 1.8 9.6 0 4.05-3.35 7.75-2.7 2.95-5.4 3.85l-6.8 2-2.9.5-1.65-.7-1.55-.85q-3.65-2.35-3.65-5.85l.2-2.05.2-2.2q0-1.35-.5-4.25l-.5-3.75.15-1.95m9.9-2.4q-.65 0-1.1 1.3-.5 1.3-.5 3.15 0 1.85.5 3.15.45 1.25 1.1 1.25.65 0 1.1-1.25l.25-.75.25-2.15v-.25q0-1.4-.3-2.45l-.2-.7q-.45-1.3-1.1-1.3M-14.1 29q-.7-.35-2.95-.6l2.05.8q.8 0 .9-.2" fill="#ffe3d4" transform="translate(33.9 36.4)"/><path d="m-15.5 10.6-.2-.55q-.4-1.15-1-1.15l-.1.05q-.55.1-.9 1.1-.4 1.15-.4 2.85 0 1.65.4 2.8.4 1.2 1 1.2l.25-.05q.4-.15.75-1.15l.1-.2q.2-.6.25-1.4l.05-1.1v-.1l-.2-2.3m-1.2-2.15q.65 0 1.1 1.3l.2.7q.3 1.05.3 2.45v.25l-.25 2.15-.25.75q-.45 1.25-1.1 1.25-.65 0-1.1-1.25-.5-1.3-.5-3.15 0-1.85.5-3.15.45-1.3 1.1-1.3" fill="#c25946" transform="translate(33.9 36.4)"/><path d="m-15.6 15.5-.1.2q-.35 1-.75 1.15l-.25.05q-.6 0-1-1.2-.4-1.15-.4-2.8 0-1.7.4-2.85.35-1 .9-1.1l-.2 3.85q0 3.65.4 3.65l.15-.1.45-.45.4-.4" fill="#92adff" transform="translate(33.9 36.4)"/><path d="m-15.5 10.6.2 2.3v.1l-1.2-.65.3-.7.7-1.05m.15 3.5q-.05.8-.25 1.4l-.4.4-.45.45q0-1.8-.25-2.3v-.25l1.35.3" fill="#324ce4" transform="translate(33.9 36.4)"/><path d="m-27 10.65.4.2-.15 1.95.5 3.75q.5 2.9.5 4.25l-.2 2.2-.2 2.05q0 3.5 3.65 5.85l1.55.85 1.65.7q3.15 1.25 5.85 1.3l8.75-.85 3.6-.7-.4.5-4.75 1-7.75.5q-3 0-6.3-1.65l-1.65-.9-.55-.35-1.25-.85-.05-.1q-2.45-1.9-2.6-3.75l-.05-3.45.1-2.3q0-1.5-.35-4.05l-.4-4 .1-2.15M-14.1 29q-.1.2-.9.2l-2.05-.8q2.25.25 2.95.6" fill="#be503a" transform="translate(33.9 36.4)"/><path d="M-11.75 22.5q.25-4.25 3.6-9.1 3.75-5.35 6.4-6.8.55 1.95.65 4.15 2.45-2.9 6.05-5 3.65-2.1 4.4-1.7V5.5q0 1.85-.95 4.65L6.9 14.4l-.45.05q2.5-5.55 2.5-9.5v-.4Q8.9 4.4 8.7 4.4h-.15l-.3.1-1.5.65q-1.25.7-3.1 1.95-3.75 2.45-5.2 4.65v-.55q.05-3.1-.6-4.15l-.35.3-.35.25-.55.5-.25.2-.75.85-2.9 4q-3.9 5.85-4.2 9.15-.15 0-.15.1l-.1.1" fill="#93669e" transform="translate(33.9 36.4)"/><path d="m-3.4 8.1.55-.5.35-.25.35-.3q.65 1.05.6 4.15v.55l-.1.1-.2.3v.4l.1.3.05.3q0 .55-.55 1.15-.55.6-1.3.6l-.85-.35q-.5-.5-.5-1.1 0-.95.6-1.3l.95-.35.45-3.35-.05-.4h-.35l-.1.05M6.75 5.15l1.5-.65.3-.1h.15q.2 0 .25.15v.4q0 3.95-2.5 9.5-2.7.4-5.45 1.3-3.25 1.05-6.6 2.8l-2.7 1.5-2.8 1.85q2.1-3.25 8.4-5.75l8.4-3.2L7.2 9l.75-3.1-.65.35L6.9 6l-.2-.6.05-.25" fill="#b3899b" transform="translate(33.9 36.4)"/><path d="M-11.5 22.3q.3-3.3 4.2-9.15l2.9-4 .75-.85.25-.2.1-.05h.35l.05.4-.45 3.35-.95.35q-.6.35-.6 1.3 0 .6.5 1.1l.85.35q.75 0 1.3-.6t.55-1.15l-.05-.3-.1-.3v-.3l.3-.5q1.45-2.2 5.2-4.65 1.85-1.25 3.1-1.95l-.05.25.2.6.4.25.65-.35L7.2 9l-1.5 3.95-8.4 3.2q-6.3 2.5-8.4 5.75l-.35.3-.05.1" fill="#ece3e8" transform="translate(33.9 36.4)"/><path d="m6.9 14.4-.1.15-.45.2q-2.05.75-4.2 2.1 1.4 1.6 1.4 3.8 0 2.45-1.75 4.15-1.75 1.75-4.2 1.75t-4.15-1.75q-1.4-1.35-1.7-3.2l-.05-.45v.05l-1.65.75-1.85 1.35.05-.8.1-.1q0-.1.15-.1l.05-.1.35-.3 2.8-1.85 2.7-1.5q3.35-1.75 6.6-2.8 2.75-.9 5.45-1.3l.45-.05m-12.4 7.25.75-.4Q-4 21-4 20.5l-.05-.1h-.25l-.95.4-.55.3q-.35-.35-1-.35l-.2.05-.2.3-.25.7q0 .6.4 1.25.35.7.8.7h.2l.05.3.6.95.9.65.3.15.75.05.55.05q1.65 0 3.05-.8 1.1-.6 1.45-1.3l.25-.3.2-.55-.1-.35-.1-.15.45-1.75-.1-.6-.1-.2-.3-.3Q1.3 19 .55 19l-1.25.15q-.95.2-.95.65l.2.45.55.3h.7q.35.1.35.55 0 .4-.7.7l-.55.5q.1.9-.4 1.5-.45.5-1.15.5-.5 0-.9-.9l-.45-.9-1.15.25-.25-.05v-.35l-.05-.5-.05-.2" fill="#570006" transform="translate(33.9 36.4)"/><path d="m-5.8 21.1.55-.3.95-.4h.25l.05.1q0 .5-.75.75l-.75.4q-.1-.35-.3-.55m.4 1.6.25.05L-4 22.5l.45.9q.4.9.9.9.7 0 1.15-.5.5-.6.4-1.5l.55-.5q.7-.3.7-.7 0-.45-.35-.55h-.7l-.55-.3-.2-.45q0-.45.95-.65L.55 19q.75 0 1.25.6l.3.3-.8-.2.1.85-.2 1.4q-.35.05-.55.25l-.2.35q-.2.15-.05.4 0 .35.15.5-.9 1.7-2.5 1.7l-1.95-.4-1.75-1.4.05-.05v-.05l.2-.55" fill="#910419" transform="translate(33.9 36.4)"/><path d="m-5.5 21.65.05.2.05.5v.35l-.2.55v.05l-.05.05-.4.4h-.2q-.45 0-.8-.7-.4-.65-.4-1.25l.25-.7.2-.3.2-.05q.65 0 1 .35.2.2.3.55m7.35.8.1.15.1.35-.2.55-.25.3h-.2l-.35-.1q-.35 0-.5-.25-.15-.15-.15-.5v-.1l.05-.3.2-.35q.2-.2.55-.25l.6.45.05.05" fill="#fff" transform="translate(33.9 36.4)"/><path d="m2.1 19.9.1.2.1.6-.45 1.75-.05-.05-.6-.45.2-1.4-.1-.85.8.2m-.5 3.9q-.35.7-1.45 1.3-1.4.8-3.05.8l-.55-.05-.75-.05-.3-.15-.9-.65-.6-.95-.05-.3.4-.4 1.75 1.4 1.95.4q1.6 0 2.5-1.7.15.25.5.25l.35.1h.2" fill="#e51156" transform="translate(33.9 36.4)"/><path d="M-19.2 22.15v-.1l-.1-.05q-.3-2.45-2.4-6.9l-1.55-3-.35-.6-.15-.15-.25-.4-.15-.2-.25-.2q-.25.8-.05 3.1l.05.4q-.8-1.6-2.7-3.5l-1.5-1.4-.7-.55-.15-.05h-.1l-.1.1v.3q.2 3 1.65 7.15l-.25-.05-.9-3.15-.65-3.55-.1-1.05q.35-.35 2.15 1.25 1.8 1.6 3.05 3.8l.15-3.15q1.25 1.1 3.3 5.1 1.75 3.65 2.05 6.85" fill="#93669e" transform="translate(33.9 36.4)"/><path d="m-19.5 21.7-1.4-1.4-1.3-1.1q-1.65-1.3-3.2-2.1l-2.6-1q-1.45-4.15-1.65-7.15v-.3l.1-.1h.1l.15.05.7.55.05.15-.1.45q0 .2-.15.2l-.35-.25.5 2.3.9 3q1.05.5 4.05 2.4 3.1 1.85 4.2 4.3m-4.25-10.35-.05-.05h-.15v.3l.35 2.5.45.25q.35.3.4 1l-.2.8-.4.3L-24 16l-.3-.85.05-.25.05-.25-.05-.2-.05-.1-.05-.2-.05-.1-.05-.4q-.2-2.3.05-3.1l.25.2.15.2.25.4" fill="#b3899b" transform="translate(33.9 36.4)"/><path d="M-19.3 22v-.05l-.2-.25q-1.1-2.45-4.2-4.3-3-1.9-4.05-2.4l-.9-3-.5-2.3.35.25q.15 0 .15-.2l.1-.45-.05-.15 1.5 1.4q1.9 1.9 2.7 3.5l.15.4.05.2-.05.25-.05.25.3.85.65.45.4-.3.2-.8q-.05-.7-.4-1l-.45-.25-.35-2.5v-.3h.15l.05.05.15.15.35.6 1.55 3q2.1 4.45 2.4 6.9" fill="#ece3e8" transform="translate(33.9 36.4)"/><path d="m-19.2 22.15.1.6-.9-1q-.35-.25-.85-.55v-.05.35q-.05 1.35-.6 2.4-.75 1.3-1.85 1.3-1.15 0-2-1.3-.95-1.3-1.05-3.15-.15-1.65.45-2.85-1.05-1-2.05-1.6l-.2-.1-.1-.15.25.05 2.6 1q1.55.8 3.2 2.1l1.3 1.1 1.4 1.4.2.25V22l.1.05v.1m-2.5.95h.05l.35-.5.1-.95-.15-.55-.1-.2-.1-.05q-.3 0-.45.25l-.25-.2-.5-.3h-.1l-.05.05.4.55.4.35v.1l-.05.4v.2l.05.1h-.1l-.6-.2-.15.7-.35.65-.55-.4q-.3-.4-.25-1.1l-.3-.35-.35-.55.1-.4h.35l.25-.2.1-.4q-.05-.3-.5-.45l-.6-.1-.55.4-.1.25-.05.2v.4l.25 1.3-.05.15v.25l.1.4.15.2.75 1q.7.6 1.45.6h.25l.35-.05.1-.1.4-.5.25-.7.05-.25" fill="#570006" transform="translate(33.9 36.4)"/><path d="m-22 21.1-.1.45-.4-.35-.4-.55.05-.05h.1l.5.3.25.2m-.1 1.25.1.35v.05l.05.05-.75 1.05-.9.3q-.7 0-1.25-1.25l.1-.4-.1-.3-.1-.25-.25-.2-.2-1.05.05-.65-.35.15.1-.25.55-.4.6.1q.45.15.5.45l-.1.4-.25.2h-.35l-.1.4.35.55.3.35q-.05.7.25 1.1l.55.4.35-.65.15-.7.6.2h.1" fill="#910419" transform="translate(33.9 36.4)"/><path d="M-22 21.1q.15-.25.45-.25l.1.05.1.2.15.55-.1.95-.35.5h-.05l-.25-.3-.05-.05v-.05l-.1-.35-.05-.1v-.2l.05-.4v-.1l.1-.45m-3.3 2-.15-.2-.1-.4v-.25l.05-.15.05-.05.25-.3.25.2.1.25.1.25v.05l-.1.4-.2.15-.15.1-.1-.05" fill="#fff" transform="translate(33.9 36.4)"/><path d="m-21.95 22.8.25.3-.05.25-.25.7-.4.5-.1.1-.35.05h-.25q-.75 0-1.45-.6l-.75-1 .1.05.15-.1.2-.15q.55 1.25 1.25 1.25l.9-.3.75-1.05m-3.55-.7-.25-1.3v-.4l.05-.2.35-.15-.05.65.2 1.05-.25.3-.05.05" fill="#e51156" transform="translate(33.9 36.4)"/></g><linearGradient gradientTransform="matrix(-.0439 -.0436 .0238 -.024 .7 .55)" gradientUnits="userSpaceOnUse" id="i" spreadMethod="pad" x1="-819.2" x2="819.2"><stop offset=".008" stop-color="#3b49ff"/><stop offset="1" stop-color="#9c68e2"/></linearGradient><path d="M27.75 0q0 2-8.15 3.4Q11.5 4.9 0 4.9q-11.5 0-19.65-1.5-8.1-1.4-8.1-3.4 0-2.05 8.1-3.5Q-11.5-4.9 0-4.9q11.5 0 19.6 1.4 8.15 1.45 8.15 3.5" fill-opacity=".349" fill-rule="evenodd" transform="translate(27.75 4.9)" id="b"/></defs></svg>