<svg xmlns:ffdec="https://www.free-decompiler.com/flash" xmlns:xlink="http://www.w3.org/1999/xlink" ffdec:objectType="frame" height="90" width="90" xmlns="http://www.w3.org/2000/svg"><use ffdec:characterId="30" height="332.6" transform="translate(-1.379 -29.545) scale(.3581)" width="257.1" xlink:href="#a"/><defs><g id="a" transform="translate(3.85 82.5)"><use ffdec:characterId="1" height="7.1" transform="matrix(2.0662 0 0 3.8928 63.4 221.168)" width="50" xlink:href="#b"/><use ffdec:characterId="3" height="404" transform="translate(113.6 53.45) scale(.3718)" width="341.55" xlink:href="#c"/><use ffdec:characterId="5" height="356" transform="translate(16.15 70.2) scale(.3718)" width="232.1" xlink:href="#d"/><use ffdec:characterId="7" height="229.5" transform="translate(45.4 83.6) scale(.3718)" width="109.85" xlink:href="#e"/><use ffdec:characterId="9" height="166.65" transform="translate(64.8 147.55) scale(.3718)" width="101.6" xlink:href="#f"/><use ffdec:characterId="11" height="190.4" transform="translate(106.5 146.3) scale(.3718)" width="134.3" xlink:href="#g"/><use ffdec:characterId="13" height="292.25" transform="translate(78.2 89.75) scale(.3718)" width="135.65" xlink:href="#h"/><use ffdec:characterId="20" height="536.9" transform="translate(53.03 -82.508) scale(.3914)" width="486.75" xlink:href="#i"/><use ffdec:characterId="22" height="88.9" transform="translate(84 100.4) scale(.3718)" width="78.8" xlink:href="#j"/><use ffdec:characterId="27" height="119.6" transform="translate(71.85 81.95) scale(.3718)" width="149.6" xlink:href="#k"/><use ffdec:characterId="29" height="314" transform="translate(117.5 69.6) scale(.3718)" width="170.65" xlink:href="#l"/></g><g id="m" fill-rule="evenodd"><path d="M84.3 93.25q23.7-26.3 34.85-76.45l6.55 3.75-.65 5.15q-9.5 66.45-40.75 67.55" fill="#336295"/><path d="m125.7 20.55-6.55-3.75Q108 66.95 84.3 93.25q-29.8 33.05-79.45 28.4 2.7-5.45 6.95-11.45 79.7 4 102.55-110.2 218.6 143.5 227.2 314.4-28.85-98.8-68-110.4-23.95-38.65-36 20.8 14.9 148.8-23.2 179.2 27.55-104.35-28.8-143.2-10.9-72.6-63.2-46.4l-107.2-53.6q-9.45-4.95-13-12.2l117.8 57q61.65-21.2 69.6 48 27.2 17.95 38.3 54.65-31.45-145.7-84.9-216.55l-5.4-6.9q77.35 74.5 92.75 232.5 2.75 11.7 4.05 25.1l.05-3.95q1.75-165.7-79.25-271.25 85.1 28.95 148.05 151.05 5.95 5.95 11.5 13.45 5.25 7.05 10.05 15.5-52.3-141.1-199.05-226.65M230.35 232.8l9.75-35.75q19.65-32.75 36.65 2.95 11.7 5 22.05 14.15-40.95-75.5-125.25-136.55 50.15 87.85 56.8 155.2" fill="#102843"/><path d="m125.05 25.7.65-5.15Q272.45 106.1 324.75 247.2q-4.8-8.45-10.05-15.5-47.1-113-189.65-206m30.1 41.5q81 105.55 79.25 271.25-4.05-153.9-79.25-271.25" fill="#0fd"/><path d="M84.3 93.25q31.25-1.1 40.75-67.55 142.55 93 189.65 206-5.55-7.5-11.5-13.45Q240.25 96.15 155.15 67.2q75.2 117.35 79.25 271.25l-.05 3.95q-1.3-13.4-4.05-25.1-15.4-158-92.75-232.5l5.4 6.9Q81.85 154.5.45 143.65q-1.9-9.4 4.4-22 49.65 4.65 79.45-28.4" fill="#314d6b"/><path d="M230.35 232.8q-6.65-67.35-56.8-155.2 84.3 61.05 125.25 136.55Q288.45 205 276.75 200q-17-35.7-36.65-2.95l-9.75 35.75" fill="#708cd7"/><path d="M142.95 91.7q53.45 70.85 84.9 216.55-11.1-36.7-38.3-54.65-7.95-69.2-69.6-48l-117.8-57Q1 146.25.45 143.65q81.4 10.85 142.5-51.95" fill="#6a9fc7"/></g><g id="n" fill-rule="evenodd"><path d="M147.15 33.55q-4.35-10.5-6.45-23.15Q66.5 52.15 19.35 189.8q-5.5 16.05-10.65 33.4 11.3-25.25 19.55-34.8 11.4-13.2 16.95 3.75v20.65l9.9 28.8Q50.7 174.7 81.5 88q12.85-23.25 27.2-36-58.5 86.2-48.8 216.8 4.25 53.45 18 68.8Q49.75 227.45 95.5 114q13.55-29.8 29.6-43.2-57.7 83.95-55.2 192 12.6-61.25 44.8-73.6-2.25 57.3 19.6 62 11.4-76.95 61.6-109.1l7.6-4.5 14.4-4q-4.95 5.55-11.65 9.5l-1.85 1.05q-48.55 25.4-66.9 113.45-30.2-5-25.6-60.8Q59.45 233.7 85.5 356q-31.65-28.45-35.2-108l-12.8-36.8q7.4-8.9 0-20.8Q13.75 221.6.7 272q-3.9-29.45 13.6-86.4Q73.5 24 147.1 0q15.2 76.2 84 72 .75 6.3.95 12.1-65.35-3.8-84.9-50.55" fill="#102843"/><path d="M19.35 189.8Q66.5 52.15 140.7 10.4q2.1 12.65 6.45 23.15-18.4-1.9-38.45 18.45Q58 90.1 19.35 189.8M77.9 337.6q-13.75-15.35-18-68.8Q50.2 138.2 108.7 52q-53.65 87.05-44 219.15 1.25 17.25 3.6 35.25 4.1 22.7 9.6 31.2" fill="#7aa1cd"/><path d="M108.7 52q20.05-20.35 38.45-18.45 19.55 46.75 84.9 50.55 1.1 32.4-14.15 49.5l-14.4 4-7.6 4.5q-21.2-49.85-70.8-71.3-56.9 29-60.4 200.35-9.65-132.1 44-219.15" fill="#314d6b"/><path d="M125.1 70.8Q109.05 84.2 95.5 114 49.75 227.45 77.9 337.6q-5.5-8.5-9.6-31.2-2.35-18-3.6-35.25Q68.2 99.8 125.1 70.8" fill="#0fd"/><path d="M195.9 142.1q-50.2 32.15-61.6 109.1-21.85-4.7-19.6-62-32.2 12.35-44.8 73.6-2.5-108.05 55.2-192 49.6 21.45 70.8 71.3" fill="#6b9cc8"/><path d="M81.5 88q-30.8 86.7-26.4 153.6l-9.9-28.8v-20.65q-5.55-16.95-16.95-3.75Q49.3 135.8 81.5 88" fill="#6e91d3"/><path d="M19.35 189.8Q58 90.1 108.7 52 94.35 64.75 81.5 88q-32.2 47.8-53.25 100.4Q20 197.95 8.7 223.2q5.15-17.35 10.65-33.4" fill="#06ead0"/></g><g id="o" fill-rule="evenodd"><path d="M3.6 178.85Q1.5 172.5.5 165.2q8.7-21.6 27.2-35.6l11.2-7.6q6.85 3.25 13.25 7.65l8.35-5.25 4.4-11.6 3.8-2.15L63.3 128l-8.1 3.85 2.95 2.25q7.1 5.6 13.55 12.7l-6.25 11q1.75 2.55 3.2 5.8l1.4 3.65 2.2.75 2.65 1.2q4.1-24.95 21.9-46.75.7 3.9.9 8.75-15.05 16.9-18.25 41.25 4.8 4.45 6.65 11.95-4.65 7.5-10.6 13.45l-.05.05Q63.5 209.7 46.5 215.2q-8.35-1.8-15.2-5l-4.35-2.25q-8.1-4.65-13.8-11.55-4.75-5.75-7.8-12.95l-1.75-4.6m41.35-40.4q2.3 3.6 3.55 8.75 7.55 1.1 12.9 5.95l2.2 2.25 4.5-7.8-29.2-22.4-6.35 4.85q8 1.5 12.4 8.4m.25 12 1.3-2.05q-4.95-17.9-19.2-15.6-16.1 16.6-24 35.2 7.05 26.6 27.5 37.55 7.05 3.75 15.7 5.65 19.15-8.25 37.2-27.2-2.35-6.7-8.85-10.9-2.3-1.5-5.15-2.7l-16.4 18L66.5 168q-3.9-13.7-17.2-18l-15.2 18 11.1-17.55" fill="#102843"/><path d="m58.15 134.1-2.95-2.25 8.1-3.85 5.4-17.35q7-3.7 12.35-4.15-7.65 16.75-16.75 23.9-3 2.35-6.15 3.7" fill="#609ee1"/><path d="M96.8 122.45Q79 144.25 74.9 169.2l-2.65-1.2q4.6-26.65 23.15-51.15.85 2.5 1.4 5.6" fill="#0fd"/><path d="m72.25 168-2.2-.75-1.4-3.65 6.65-22.8-11-10.4q9.1-7.15 16.75-23.9 10.35-.95 14.35 10.35-18.55 24.5-23.15 51.15m-27.3-29.55 2.35-3.65 17.2 13.6-3.1 4.75q-5.35-4.85-12.9-5.95-1.25-5.15-3.55-8.75M8.85 173q11.6-20.1 26.45-31.4l9.9 8.85L34.1 168l-10.8 12.8 6 5.6 23.2-28.8 14 10.4-13.2 20.4-7.6 8.4 29.15-23.7q6.5 4.2 8.85 10.9-18.05 18.95-37.2 27.2-8.65-1.9-15.7-5.65l3.1-6.4q.7-11.15-14.2-6.75l-4.4-6.8q9.5-12.75-5.2-10.4L8.85 173" fill="#143150"/><path d="M68.65 163.6q-1.45-3.25-3.2-5.8l6.25-11q-6.45-7.1-13.55-12.7 3.15-1.35 6.15-3.7l11 10.4-6.65 22.8m-7.25-10.45 3.1-4.75-17.2-13.6-2.35 3.65q-4.4-6.9-12.4-8.4l6.35-4.85 29.2 22.4-4.5 7.8-2.2-2.25m-14.9-4.75-1.3 2.05-9.9-8.85Q20.45 152.9 8.85 173l-2.75-5q8.45-19.2 26.4-32l14 12.4M34.1 168l15.2-18q13.3 4.3 17.2 18l-14-10.4-23.2 28.8-6-5.6L34.1 168m19.2 20.4 16.4-18q2.85 1.2 5.15 2.7L45.7 196.8l7.6-8.4" fill="#336295"/><path d="m46.5 148.4-14-12.4q-17.95 12.8-26.4 32l2.75 5 1.25 2.2q14.7-2.35 5.2 10.4l4.4 6.8q14.9-4.4 14.2 6.75l-3.1 6.4Q10.35 194.6 3.3 168q7.9-18.6 24-35.2 14.25-2.3 19.2 15.6" fill="#609ee2"/><path d="m3.6 178.85 1.75 4.6q-6.4 39.45 34.35 39.35l7-1.85q22.25-6.9 28.75-23.05l.05-.05q5 13.6-9 21.35-25.1 17.25-51.2 5.6-22.75-14.55-11.7-45.95" fill="#643317"/><path d="M5.35 183.45q3.05 7.2 7.8 12.95L10.1 204q4.95 7.9 13.15 12.15L27.5 218q8.2 3 19.2 2.95l-7 1.85q-40.75.1-34.35-39.35" fill="#fbf8c0"/><path d="M13.15 196.4q5.7 6.9 13.8 11.55l-3.7 8.2Q15.05 211.9 10.1 204l3.05-7.6" fill="#f3ce31"/><path d="m26.95 207.95 4.35 2.25-3.8 7.8-4.25-1.85 3.7-8.2" fill="#ad4b13"/><path d="M31.3 210.2q6.85 3.2 15.2 5 17-5.5 28.95-17.3-6.5 16.15-28.75 23.05-11 .05-19.2-2.95l3.8-7.8" fill="#f2751a"/><path d="m77.3 47.65 2.2 2.55-2.2 20.2q.5 13.8-7.6 20.4l-8.65 7.6-2.15-3.15 10.6-10q6.2-1.95 4.6-12.85l3.2-24.75m8.4 54.3q-2.05 3.1-4.8 6.05l-7.3 2-9.85-1.9-.35-3.15 22.3-3m24.15 23.65-.55 4.4q-14.7 3.8-26 .05l1.6-5.65q12 3.55 24.95 1.2m-54.3-28.25q2.8 4 3.2 9.1l-3.15-.05q-11.45-10.95-.05-9.05" fill="#ad4b13"/><path d="m79.5 50.2-2.2-2.55L74.1 44q-.7 48.3-46.8 51.2 9.6 16.25 29.55 16.75h1.65l5.25-.3q4.7-.45 9.85-1.65l7.3-2q2.75-2.95 4.8-6.05 12.5-19.1-.8-45.55l-5.4-6.2m-53.4 41 2.5-.1 2.35-.2q18-1.55 27.85-11.8l.1-.1q6.7-7.05 9.6-18.2L70 48.85l.45-3.65.5-4 5.15.4q18.5 16.1 18.4 40.8.75 3.65.45 7.2-.9 11.35-12.45 21.2l-4.5 1.4q5.6 7.5 15.45 8.9 6.95.95 16.1-1.15l.3 3.65q-25.9 3.65-35.05-10.55l-4.6 1-6 1-3.6.3Q32.1 117.2 22.9 91.2h3.2" fill="#643317"/><path d="M77.3 47.65 74.1 72.4q1.6 10.9-4.6 12.85-2.75.85-7-.05-3.75 3.4-7.9 6l-3.1 1.85q-8 4.3-17.4 6.15l22.75 12.75q-19.95-.5-29.55-16.75Q73.4 92.3 74.1 44l3.2 3.65" fill="#fbf6b9"/><path d="M50.55 43.85q5.45-2 11.95-2.5l1.6-.15q3.3-.2 6.85 0l-.5 4q-12.1-3.95-27.95 6-17.6 16.75-13.9 39.9l-2.5.1q-.5-1.2-.7-3.2-.15-1.25-.15-2.85-.1-4.1.45-10.35 3.5-14.2 11.55-22.4 3.55-3.7 8.05-6.15 2.45-1.4 5.25-2.4" fill="#441515"/><path d="M28.6 91.1q-3.7-23.15 13.9-39.9 15.85-9.95 27.95-6L70 48.85 59.7 48q7.4 18.35-.85 31 6.8-13.5-4.35-31.4l-5.6 3.6q1.85 16.4-16.8 24l-1.15 15.7-2.35.2" fill="#ff754b"/><path d="m94.95 89.6 4.2 6.05-5.7 25.45q-9.85-1.4-15.45-8.9l4.5-1.4q11.55-9.85 12.45-21.2M70 48.85 68.5 60.8Q65.6 71.95 58.9 79h-.05q8.25-12.65.85-31l10.3.85" fill="#620f0f"/><path d="m61.05 98.4 8.65-7.6q8.1-6.6 7.6-20.4l2.2-20.2 5.4 6.2q13.3 26.45.8 45.55l-22.3 3q-.7-3.55-2.35-6.55m3.15 16.65 6-1 6.7 6.75v6.35q-7.2-4.2-12.7-12.1" fill="#f2751a"/><path d="m69.5 85.25-10.6 10Q57.05 93 54.6 91.2q4.15-2.6 7.9-6 4.25.9 7 .05M73.6 110q-5.15 1.2-9.85 1.65v-3.55l9.85 1.9m-15.1 1.95h-1.65L34.1 99.2q9.4-1.85 17.4-6.15 2.4 1.95 4.05 4.3-11.4-1.9.05 9.05l3.15.05q.2 2.6-.25 5.5m51.35 11.65v2q-12.95 2.35-24.95-1.2l-1.6 5.65q-3.25-1.1-6.2-2.75l-.2-.15v-6.35l-6.7-6.75 4.6-1q9.15 14.2 35.05 10.55" fill="#f3ce31"/><path d="m58.9 95.25 2.15 3.15q1.65 3 2.35 6.55l.35 3.15v3.55l-5.25.3q.45-2.9.25-5.5-.4-5.1-3.2-9.1-1.65-2.35-4.05-4.3l3.1-1.85q2.45 1.8 4.3 4.05" fill="#fbf8c0"/><path d="m109.3 130-.8 2.8q-27.15 11.55-47.9-17.45l3.6-.3q5.5 7.9 12.7 12.1l.2.15q2.95 1.65 6.2 2.75 11.3 3.75 26-.05" fill="#6a3818"/><path d="M99.15 95.65q8.8 13.5 10.4 24.3-9.15 2.1-16.1 1.15l5.7-25.45M58.8 79.1q-9.85 10.25-27.85 11.8l1.15-15.7q18.65-7.6 16.8-24l5.6-3.6Q65.65 65.5 58.85 79l-.05.1" fill="#d02828"/><path d="M37.25 52.4Q29.2 60.6 25.7 74.8q-.55 6.25-.45 10.35l-5.05-13.6 7.9-19.15-5.6-7 1.2-3.4 13.55 10.4" fill="#b4b0ee"/><path d="M45.3 46.25q-4.5 2.45-8.05 6.15L23.7 42l-1.2 3.4-6 16.2 3.7 9.95 5.05 13.6q0 1.6.15 2.85-27.8-27.2-6.9-79.6.35 28.2 26.8 37.85m-30 6.95 6.4-12.8-5.6-15.2-.8 28" fill="#fff"/><path d="m22.5 45.4 5.6 7-7.9 19.15-3.7-9.95 6-16.2" fill="#d2d1f5"/><path d="M50.55 43.85q-2.8 1-5.25 2.4Q18.85 36.6 18.5 8.4-2.4 60.8 25.4 88q.2 2 .7 3.2h-1.5Q-10.15 60.15 20.9 0q1.6 39.05 29.65 43.85" fill="#464375"/><path d="m15.3 53.2.8-28 5.6 15.2-6.4 12.8" fill="#d3d1f5"/></g><g id="p" fill-rule="evenodd"><path d="M91.6 105.2q9.6 19.05 10 36.8-41.6 44.15-80.4 9.2 0-36.65 26.4-43.6 1.75 2.05 4.6 3.2 10.05 4 33.85-3.7l5.55-1.9m-7.5 46.55q6.1-4 11.5-10.15L90.4 110q-6.25 2.1-11.75 3.45-22.25 5.45-31.85-1.05-21.7 13.45-20.4 38.4 34.15 16.4 57.7.95" fill="#208d70"/><path d="M47.6 107.6q4.45-12.85-2-30.4.95-5.6 2.2-10.3l1.6 3.4.1.3 4.25 14.35.2 1.25q1.8 12.25-1.75 24.6-2.85-1.15-4.6-3.2M87.7 52l3.9 3.2v50l-5.55 1.9.3-9.1 1.35-46" fill="#102843"/><path d="M47.8 66.9Q57.85 29.05 87.7 52l-1.35 46-19.7 8.25L64.4 88l-10.25-1.85-.4-1.2L49.5 70.6l-.1-.3-1.6-3.4" fill="#143150"/><path d="M66.65 106.25 62.4 108l-3.6-6-4.65-15.85L64.4 88l2.25 18.25" fill="#336295"/><path d="M86.05 107.1q-23.8 7.7-33.85 3.7 3.55-12.35 1.75-24.6l.2-.05L58.8 102l3.6 6 4.25-1.75L86.35 98l-.3 9.1" fill="#609ee2"/><path d="m45.6 120.1 3.2-2.9q14.9 5.55 29.85-3.75 5.5-1.35 11.75-3.45l5.2 31.6q-5.4 6.15-11.5 10.15-13.9 3.45-25.3 3.3 16.55-20.1 5.2-26.25-13.4-1.95-18.4-8.7" fill="#2a7d7d"/><path d="M78.65 113.45q-14.95 9.3-29.85 3.75l-3.2 2.9q-6.2 5.95-9.4 12.15-.8 1.55-1.45 3.15-2.5 6.4-1.95 13 4 2.45 8.65 4l5.5 1.45 11.85 1.2q11.4.15 25.3-3.3-23.55 15.45-57.7-.95-1.3-24.95 20.4-38.4 9.6 6.5 31.85 1.05" fill="#d4ffff"/><path d="M45.6 120.1q5 6.75 18.4 8.7 11.35 6.15-5.2 26.25l-11.85-1.2q3.2-13.15-10.75-21.6 3.2-6.2 9.4-12.15m-4.15 32.3q-4.65-1.55-8.65-4-.55-6.6 1.95-13 9.45 8.5 6.7 17" fill="#0fd"/><path d="M41.45 152.4q2.75-8.5-6.7-17 .65-1.6 1.45-3.15 13.95 8.45 10.75 21.6l-5.5-1.45" fill="#d3ffff"/><path d="M7.35 49.25Q21.05 19.1 55.2 0q3.8 1.25 7.2 3L37.2 22Q23.85 35.7 16.45 47.6h-.05l-9.05 1.65m76.5 10.55Q70.3 84.2 51.75 85.25l.6-3.9Q68.1 77.9 83.85 59.8" fill="#102843"/><path d="M62.4 3q1.5.75 2.95 1.65-28.7 18.6-42.9 41.4-2.95.4-6 1.55Q23.85 35.7 37.2 22L62.4 3" fill="#00fddb"/><path d="M51.75 85.25Q49.5 96.9 41.6 98.4 2.15 111.5 0 73.2q2.25-12.75 7.35-23.95l9.05-1.65h.05q3.05-1.15 6-1.55 5.4-.85 10.3.75 4.3 1.35 8.15 4.5 6.3 5.15 11.5 15.1.6 8.65-.05 14.95l-.6 3.9m-9.4-28.15Q31.85 45.6 15 50q-1.45 2.45-2.6 4.85l6 .5 4.95 1Q45.7 62.4 41.95 92.9l4.85-2.1q4.5-11.65 1.6-24.8-2.7-5.25-6.05-8.9m-7.7 37.95 4.9-1.3q.5-3.65.6-6.9.45-26.75-28.7-30.05Q5.15 70.85 8.4 82q8.15 16.75 26.25 13.05" fill="#643317"/><path d="m18.4 55.35-6-.5q1.15-2.4 2.6-4.85 16.85-4.4 27.35 7.1-9.55-4.75-16.65-5.65l-4.5-.25-2.8 4.15m-1.5 5.6-4.1-.55V74q10.55 6.4 5.2 14.4 1.45 2.75 4.5 4.4 4.4 2.3 12.15 2.25Q16.55 98.75 8.4 82q-3.25-11.15 3.05-25.2 29.15 3.3 28.7 30.05-4.35-18.8-17.8-24.25-2.55-1.1-5.45-1.65" fill="#fbf8c0"/><path d="m23.35 56.35-4.95-1 2.8-4.15 4.5.25-2.35 4.9" fill="#ad4c14"/><path d="M40.9 51.3q-3.85-3.15-8.15-4.5 1.2-11.05 11.65-25.2 18.65 3.75 26.8 18-1.7 19.1-12.4 29.2-5.15-10.95-17.9-17.5M48 27.2l-6.8 19.6 23.2-7.2Q61.65 29.5 48 27.2" fill="#336295"/><path d="M65.35 4.65q20.4 12.4 23.85 44.15-2.55 6-5.35 11-15.75 18.1-31.5 21.55.65-6.3.05-14.95-5.2-9.95-11.5-15.1 12.75 6.55 17.9 17.5 10.7-10.1 12.4-29.2-8.15-14.25-26.8-18-10.45 14.15-11.65 25.2-4.9-1.6-10.3-.75 14.2-22.8 42.9-41.4" fill="#143150"/><path d="M48 27.2q13.65 2.3 16.4 12.4l-23.2 7.2L48 27.2" fill="#609ee2"/><path d="M42.35 57.1q3.35 3.65 6.05 8.9 2.9 13.15-1.6 24.8l-4.85 2.1q3.75-30.5-18.6-36.55l2.35-4.9q7.1.9 16.65 5.65M22.5 92.8q8.9-2.3 9.1-10.8l-9.25-19.4q13.45 5.45 17.8 24.25-.1 3.25-.6 6.9l-4.9 1.3q-7.75.05-12.15-2.25" fill="#f2751a"/><path d="M18 88.4q13.35.3 4.8-15.2l-5.9-12.25q2.9.55 5.45 1.65L31.6 82q-.2 8.5-9.1 10.8-3.05-1.65-4.5-4.4" fill="#ad4b13"/><path d="m16.9 60.95 5.9 12.25q8.55 15.5-4.8 15.2 5.35-8-5.2-14.4V60.4l4.1.55" fill="#f3ce31"/></g><g id="q" fill-rule="evenodd"><path d="m93.6 78.9 4.65 3.55q2.85 22.75 17.75 37.1l-3.5 3.6q-16.8-11.9-18.9-44.25m-31.35 48.35q2.15-13.35-4-33.6 1.2-4.55 2.75-8.15 6 10.55 7.55 22.9 1.25 10.45-.65 22.15-2.8-1.45-5.65-3.3" fill="#102843"/><path d="m88.95 75.95 4.65 2.95q2.1 32.35 18.9 44.25l-4.2 3.7-1.95-2.4Q94 108 88.95 75.95m14.85 99.65q-9.3 2.55-18.15 1.9-5.95-16.25-21.85-22.65-.1-5.3.5-10.8 14.95 6.7 34.35 4.4 7.2 12.05 5.15 27.15m-25.6.75q-6.3-1.5-12.35-4.7-1.35-5.65-1.8-11.6 13.95 8.1 14.15 16.3" fill="#0fd"/><path d="m61 85.5.9-1.9q7.95 10.7 10.45 25.55 1.15 7 1.1 14.9 7.4 1.4 6.8 7.6 8.8.1 17-2.85 4.65-1.7 9.1-4.35l1.95 2.4q-18.8 14.85-40.4 3.7 1.9-11.7.65-22.15Q67 96.05 61 85.5" fill="#609ee2"/><path d="M61.9 83.6q8.75-17.9 27.05-7.65 5.05 32.05 17.4 48.5-4.45 2.65-9.1 4.35l-7.4-16.35-17.5-3.3Q69.85 94.3 61.9 83.6" fill="#143150"/><path d="M97.25 128.8q-8.2 2.95-17 2.85.6-6.2-6.8-7.6.05-7.9-1.1-14.9l17.5 3.3 7.4 16.35" fill="#336295"/><path d="m116 119.55 1.85 1.7q20.2 24.6 15.6 46.4-30.15 37.2-72.8 13.6-13.8-28.55 1.6-54 2.85 1.85 5.65 3.3 21.6 11.15 40.4-3.7l4.2-3.7 3.5-3.6M65.55 135.7l-4.1-2.05q-5.1 24.6 2 41.6 38.3 16.05 66-8.4l.2-3.95q.2-19.7-13.8-36.85-23.1 22.05-50.3 9.65" fill="#208d70"/><path d="M65.55 135.7q-.85 4.2-1.25 8.35-.6 5.5-.5 10.8 15.9 6.4 21.85 22.65 8.85.65 18.15-1.9 12.5-3.45 25.85-12.7l-.2 3.95q-27.7 24.45-66 8.4-7.1-17-2-41.6l4.1 2.05m12.65 40.65q-.2-8.2-14.15-16.3.45 5.95 1.8 11.6 6.05 3.2 12.35 4.7" fill="#d4ffff"/><path d="M64.3 144.05q.4-4.15 1.25-8.35 27.2 12.4 50.3-9.65 14 17.15 13.8 36.85-13.35 9.25-25.85 12.7 2.05-15.1-5.15-27.15-19.4 2.3-34.35-4.4" fill="#2a7d7d"/><path d="m44.8 0 6.65.05q40.9 20.1 46.2 65-1.7-2.95-4.15-5.5l-2.2-2.1-10.65-28.6L44.8 0m17.75 102.25q-25.75-4.75-49.5-20.6L10.8 76.7Q-19.1 8.1 33.6.85l17.6 12.3-6.85 10-2.1-1.1-25.6 34.4q4.3 5.1 9.25 9.1L38.45 88.1l16.05 6.65 2.5 3q2.6 2.7 5.55 4.5" fill="#102843"/><path d="M33.6.85 44.8 0l35.85 28.85 10.65 28.6q-1.5-1.25-3.05-2.2l-10-23.2-27.05-18.9L33.6.85" fill="#0fd"/><path d="m55.95 60.7-26.1-9.05q2.3-16.7 15.6-22.4l16.25 26.4q-2.5 1.6-4.7 3.9l-1.05 1.15" fill="#609ee2"/><path d="m61.7 55.65-16.25-26.4q-13.3 5.7-15.6 22.4l26.1 9.05q-6.2 7.2-6.45 16.95-13.2-3.6-23.6-12.1-4.95-4-9.25-9.1l25.6-34.4 2.1 1.1q18.25 10.1 28 28.65-5.85.6-10.65 3.85" fill="#336295"/><path d="M72.35 51.8q-9.75-18.55-28-28.65l6.85-10 27.05 18.9 10 23.2q-5.8-3.6-13-3.6l-2.9.15M25.9 65.55q10.4 8.5 23.6 12.1l-.05 1q0 9.15 5.05 16.1L38.45 88.1 25.9 65.55" fill="#143150"/><path d="M97.65 65.05q3.4 6.05 3.4 13.6 0 11.2-7.55 19.1l-2.8 2.6q-6.65 5.3-15.45 5.3-7.05 0-12.7-3.4-2.95-1.8-5.55-4.5l-2.5-3q-5.05-6.95-5.05-16.1l.05-1q.25-9.75 6.45-16.95L57 59.55q2.2-2.3 4.7-3.9 4.8-3.25 10.65-3.85l2.9-.15q7.2 0 13 3.6 1.55.95 3.05 2.2l2.2 2.1q2.45 2.55 4.15 5.5m-29.8 6.3q2.35-2.2 5.6-4.1 16.9-6.7 25.9 10.35-.4-9.2-6.7-15.75Q85.9 54.8 76.4 54.8l-3.15.2q-7.55 1-13.1 6.85-6.75 7-6.75 17 0 9.95 6.75 17 2.8 2.95 6.1 4.65l-2.4-4.85q-.95-2.25-1.55-4.35-2.65-9.7 2.75-16.85 1.2-1.65 2.8-3.1M93.9 75.2q-9.45-11.85-23.25-1.15-12.2 8.5-2.1 27.5 2.45.9 5.1 1.2l2.75.15q3.65 0 6.9-1.05 4.2-1.35 7.75-4.45l1.6-1.55q5-5.25 6.3-12.1-2.35-5.2-5.05-8.55" fill="#643317"/><path d="m73.25 55 3.15-.2q9.5 0 16.25 7.05 6.3 6.55 6.7 15.75-9-17.05-25.9-10.35-3.25 1.9-5.6 4.1l-1.9-9.95q3-3.35 7.3-6.4m3.05 20q8-3.75 17.6.2 2.7 3.35 5.05 8.55-1.3 6.85-6.3 12.1l-1.6 1.55Q92.25 80.45 76.3 75" fill="#f2751a"/><path d="M67.85 71.35q-1.6 1.45-2.8 3.1L62.8 65.5q1.35-2.15 3.15-4.1l1.9 9.95m8.55 8.75q-2.2-1.15-4.95-2.05 2.35-1.9 4.85-3.05 15.95 5.45 14.75 22.4-3.55 3.1-7.75 4.45 5.95-15.05-6.9-21.75" fill="#ad4b13"/><path d="M62.3 91.3q.6 2.1 1.55 4.35l2.4 4.85q-3.3-1.7-6.1-4.65-6.75-7.05-6.75-17 0-10 6.75-17Q65.7 56 73.25 55q-4.3 3.05-7.3 6.4-1.8 1.95-3.15 4.1-7.15 11.35-.5 25.8m14-16.3q-2.5 1.15-4.85 3.05 2.75.9 4.95 2.05-.45 9.85-7.35 11.95l4.6 10.7q-2.65-.3-5.1-1.2-10.1-19 2.1-27.5 13.8-10.7 23.25 1.15-9.6-3.95-17.6-.2" fill="#fbf8c0"/><path d="M65.05 74.45q-5.4 7.15-2.75 16.85-6.65-14.45.5-25.8l2.25 8.95m8.6 28.3-4.6-10.7q6.9-2.1 7.35-11.95 12.85 6.7 6.9 21.75-3.25 1.05-6.9 1.05l-2.75-.15" fill="#f3ce31"/></g><g id="r" fill-rule="evenodd"><path d="m114.1 8.6 5.5 3L133.2 76q-12.05 24-13.6 39.2l-6.95 5.8q5.3-26.9 16.55-43.4l-2.5-11.55L114.1 8.6M38.4 140.8h-2.8q-5.35-11.35-19.7-22.7L0 71.6l2.45-4.75L17.6 116.8l3.3 2.4q12.5 9.55 17.5 21.6" fill="#102843"/><path d="m126.7 66.05 2.5 11.55q-11.25 16.5-16.55 43.4l-4.15 3.45q2.25-27.7 18.2-58.4m-124.25.8 2.6-4.95 10.9 39.45 3.35 12 1.6 5.85-3.3-2.4L2.45 66.85" fill="#0fd"/><path d="m114.1 8.6 12.6 57.45q-15.95 30.7-18.2 58.4L88.8 140.8H49.6q-2.3-3.65-5-7 26.65-2.55 48.2-16.6l7.6-29.6-57.6 27.6-26.85-13.85L5.05 61.9Q51.2-23.05 114.1 8.6" fill="#143150"/><path d="M15.95 101.35 42.8 115.2l57.6-27.6-7.6 29.6q-21.55 14.05-48.2 16.6-9.9-12.2-25.3-20.45l-3.35-12M84.4 118l2.4-13.2-32.4 14.4 30-1.2" fill="#336295"/><path d="M49.6 140.8H38.4q-5-12.05-17.5-21.6l-1.6-5.85q15.4 8.25 25.3 20.45 2.7 3.35 5 7M84.4 118l-30 1.2 32.4-14.4-2.4 13.2" fill="#609ee2"/><path d="m117.4 124.55 3.8-1.2q.55-5.25 2-10.7H120l2-6.25 6 5.6v12.8q15.3 10.95 0 20.4l4 11.2q-19.85 3.8-37.15 17.7l-3.7 3.05-.05.1-1.95 2.6-2.35 2.55q-9.8 9.8-23.65 9.8-13.85 0-23.65-9.8l-2.05-2.25q-1.8-2.1-3.15-4.35l-1.1-1.9-2.45-3.55Q25.35 163.6 16 158.4q1.8-2.95 3-6.3-10.55-9.85 2-16.85-.5-8.25-3.4-18.05 12.5 7 19.5 20.6l2.4-2.7q9.8-9.8 23.65-9.8 11.45 0 20.15 6.7 19.1-12.35 35.9-16.8-18.75 8.9-32.95 19.35l.55.55 1.45 1.55 1.85 2.2q12-9.2 27.3-14.3m11.95 12.65q-.2-2.05-1.75-4.8l-3.6-2 .75 4.35 1.25 7.65q3.7-1.6 3.35-5.2m-21-1.75q1.9 0 3.25 1.35t1.35 3.25q0 1.9-1.35 3.25t-3.25 1.35q-1.9 0-3.25-1.35t-1.35-3.25q0-1.9 1.35-3.25.7-.65 1.5-1l1.75-.35m1.4 15.5 13.25-5.6q-2.6-8.75-2.1-18.45-8.05 2.15-16.05 6-6.8 3.2-13.6 7.6l1.3 2.1q2.85 5.1 3.7 11.05l.3 2.85 13.2-5.55M109 137.4l-.8-.15q-1.25 0-2.15.9-.9.85-.85 2.1-.05 1.25.85 2.15l.8.55 1.35.3q1.2 0 2.1-.85.85-.9.85-2.15t-.85-2.1q-.6-.6-1.3-.75m14.6 18 3.2-.6q-1.65-3.15-2.8-6.4l-3.1 1.35-24.3 10.7q-.25 4.8-1.65 9.1 14.3-11 28.65-14.15m-29.35 3.2q-.05-12.8-9.05-21.85-9.1-9.05-21.85-9.05-12.8 0-21.85 9.05t-9.05 21.85q0 12.75 9.05 21.8t21.85 9.05q12.75 0 21.85-9.05 9-9.05 9.05-21.8M36.1 139.05 25.6 126.4l-.15 9.3 4.35 3.05 4.45 3.05 1.85-2.75m-7.15 2.7-3.65-3.2-.8 8.35-.35 2.05-.8 3.9 6.5 2.75.3-2.4q.65-4.35 2.45-8.25l-3.65-3.2M21.6 158.4l8.65 6.75q-.55-3.1-.55-6.4v-.8l-6.95-2.85-1.15 3.3" fill="#643317"/><path d="m119.2 115.2.8-2.55h3.2q-1.45 5.45-2 10.7l-3.8 1.2.9-4.7.9-4.65m-6 17.35-8.35.35q8-3.85 16.05-6-.5 9.7 2.1 18.45l-13.25 5.6 8.3-7.2 1.15-.55-1.6-12.8-4.4 2.15m7.7 17.2 3.1-1.35q1.15 3.25 2.8 6.4l-3.2.6-2.7-5.65" fill="#09f7d3"/><path d="m119.2 115.2-.9 4.65q-15.55 5.7-30.05 16.8l-1.45-1.55-.55-.55q14.2-10.45 32.95-19.35m-12.35 27.75-.8-.55q-.9-.9-.85-2.15-.05-1.25.85-2.1.9-.9 2.15-.9l.8.15-2.15 5.55" fill="#f3cc30"/><path d="m124.75 134.75-.75-4.35 3.6 2q1.55 2.75 1.75 4.8l-4.6-2.45m-6.7 9-8.3 7.2-13.2 5.55-.3-2.85 6.55-2.95 15.25-6.95m-68.1 40.1q-3.6-2-6.75-5.1-2.25-2.25-3.9-4.75 3.8.15 6.3-6 3.35-14.15-9.95-16.45 1.8-7.4 7.55-13.1 2.9-2.9 6.2-4.8-7.9 15.8 4.2 22.35 20.3 13.9-3.65 27.85m-20.15-45.1-4.35-3.05.15-9.3 10.5 12.65-8.9-6.65 2.6 6.35m-5.3 8.15.8-8.35 3.65 3.2-4.45 5.15m5.65 6.3-.3 2.4-6.5-2.75.8-3.9 6 4.25" fill="#f3ce31"/><path d="m118.3 119.85-.9 4.7q-15.3 5.1-27.3 14.3l-1.85-2.2q14.5-11.1 30.05-16.8" fill="#ee741a"/><path d="m124.75 134.75 4.6 2.45q.35 3.6-3.35 5.2l-1.25-7.65m-16.4.7-1.75.35q-.8.35-1.5 1-1.35 1.35-1.35 3.25t1.35 3.25q1.35 1.35 3.25 1.35t3.25-1.35q1.35-1.35 1.35-3.25t-1.35-3.25q-1.35-1.35-3.25-1.35m4.85-2.9 4.4-2.15 1.6 12.8-1.15.55-15.25 6.95-5.6-10.35 16-7.8m-4.2 4.85q.7.15 1.3.75.85.85.85 2.1t-.85 2.15q-.9.85-2.1.85l-1.35-.3 2.15-5.55m-53.7-6.25q3.8-1.1 8.1-1.1 11.8 0 20.15 8.4 8.35 8.3 8.35 20.15 0 11.8-8.35 20.15-8.35 8.35-20.15 8.35l-6.1-.6q19.95-17.4 2.3-31.7-14.15-5.1-4.3-23.65m-25.5 7.6-2.6-6.35 8.9 6.65-1.85 2.75-4.45-3.05m-.85 3 3.65 3.2q-1.8 3.9-2.45 8.25l-6-4.25.35-2.05 4.45-5.15M21.6 158.4l1.15-3.3 6.95 2.85v.8q0 3.3.55 6.4l-8.65-6.75" fill="#f2751a"/><path d="m104.85 132.9 8.35-.35-16 7.8-4.65 2.25-1.3-2.1q6.8-4.4 13.6-7.6" fill="#efcf34"/><path d="m92.55 142.6 4.65-2.25 5.6 10.35-6.55 2.95q-.85-5.95-3.7-11.05m28.35 7.15 2.7 5.65q-14.35 3.15-28.65 14.15 1.4-4.3 1.65-9.1l24.3-10.7M57.3 186.5q-3.9-.8-7.35-2.65Q73.9 169.9 53.6 156q-12.1-6.55-4.2-22.35 2.8-1.6 5.9-2.5-9.85 18.55 4.3 23.65 17.65 14.3-2.3 31.7" fill="#ad4b13"/><path d="m57.3 186.5 6.1.6q11.8 0 20.15-8.35 8.35-8.35 8.35-20.15 0-11.85-8.35-20.15-8.35-8.4-20.15-8.4-4.3 0-8.1 1.1-3.1.9-5.9 2.5-3.3 1.9-6.2 4.8-5.75 5.7-7.55 13.1 13.3 2.3 9.95 16.45-2.5 6.15-6.3 6 1.65 2.5 3.9 4.75 3.15 3.1 6.75 5.1 3.45 1.85 7.35 2.65m36.95-27.9q-.05 12.75-9.05 21.8-9.1 9.05-21.85 9.05-12.8 0-21.85-9.05t-9.05-21.8q0-12.8 9.05-21.85t21.85-9.05q12.75 0 21.85 9.05 9 9.05 9.05 21.85" fill="#fbf8c0"/><path d="m37.45 180.15 2.05 2.25q9.8 9.8 23.65 9.8 13.85 0 23.65-9.8l2.35-2.55q.65 28.6 5.1 57.65l-7.9-32.65-2.75-11.25-11.2 69.6v-46.8L54 197.6l.9 4.45 12.7 64.75-29-81.3-1.15-5.35m49.05 101.3q-5.4-4.8-11.45-8.15 14.65 5.65 25.6-2.3l1.75 7.4q-7.95 3.2-15.9 3.05" fill="#620f0f"/><path d="M94.25 237.5q-4.45-29.05-5.1-57.65l1.95-2.6q3.45 63.4 17.7 97.95-7.3 13.1-28.55 5.65l6.25.6q7.95.15 15.9-3.05l-1.75-7.4q-3.8-16.8-6.4-33.5" fill="#0fd"/><path d="M94.85 174.1q-.4 51.95 18.35 102.3-14.5 29.1-46.8 4.8-21.1-15.25-37.6-4.4 21.35-41.15 1.95-106.45l2.45 3.55 1.1 1.9q1.35 2.25 3.15 4.35l1.15 5.35q10.6 50.8-4.2 86.1 18.5-6.3 38 6 4.15 1.95 7.85 3.25 21.25 7.45 28.55-5.65-14.25-34.55-17.7-97.95l.05-.1 3.7-3.05" fill="#441515"/><path d="m38.6 185.5 29 81.3-20-33.2-2.4 31.6q16.5.6 29.85 8.1 6.05 3.35 11.45 8.15l-6.25-.6q-3.7-1.3-7.85-3.25-19.5-12.3-38-6 14.8-35.3 4.2-86.1m16.3 16.55-.9-4.45 18.4 18.8v23.4l-17.5-37.75m17.5 61.15 11.2-69.6 2.75 11.25 3.25 34.35-17.2 24" fill="#ff754b"/><path d="m67.6 266.8-12.7-64.75 17.5 37.75v23.4l17.2-24-3.25-34.35 7.9 32.65q2.6 16.7 6.4 33.5-10.95 7.95-25.6 2.3-13.35-7.5-29.85-8.1l2.4-31.6 20 33.2" fill="#d02828"/></g><g id="s" fill-rule="evenodd"><path d="m303 21.4 4.55 2.65q8.45 9.55-6 22.05H288q16.8-4.75 15-24.7m-69.05 80-.05.25q-.15.95-.15 1.9-28.2 12.8-17.25 33.05 10.9 4.05 32-6.5 19.45 16.05-3 23 7.2-23.05-21.5-3.05l-11.1-2-6.6-1.2q.85-4.15-8.3-4.25-28.75 4.5 2.05-28.45-21.95 6.75-32.6 13.05 4.95-15.35 40.55-25.1 24.9-3.05 11.85-25 0-4.85-2.85-11.05 5.15-4.05 10.3-7.3-6.15 14.55 3.2 21.3l9.3-9.75q-3.4-6.45 3.5-19.65 16.6-6.35 33.2-4.1-24.95 7-35.35 22.35l-1.35 1.4.3.2q-7.85 12.7-6.15 30.9m32.35 15.2q5.05-1.55 8.55-5.1l11.65 2.6q4.6 7.6-4.4 10.65l15.15-4.75v.05q-16.05 13.6-33.75 8.55l8.5-2.5q-9.5-2.85-5.7-9.5M282 96.55l5.4.95q3.6 2 6.15 4.1-6.05 1.95-8.55 4.2l-3-9.25M33.6 241.05Q23.4 236.4 14 231.1q-6.95-3.75-9.15-8.8-.75-1.7-.95-3.5-.45-4.05 1.75-8.85 4.35-9.55 19.25-21.9-7.4 12.1-9.1 21.9-.85 4.7-.35 8.85l.65 3.5q3.1 11.65 17.5 18.75m60.3-116.6L78 119.6q-33.85-15.05 73.5-46l.05.05L98 98.05q5.6 5.65 3 14.05 8.15-10.5 18-10.5v13q17.55-29.25 50.5-29.55-46.8 25.55-4.55 43.7-16.9 11.4 4.05 21.35-12.1 11.85-4.5 16.5l-32 16 9.85-1.85-60.55 30.9.05-1.7q.1-7.55-1.4-15.4-14.1 6.05-26.1 15.4-4.35 3.35-8.4 7.15-1.05-3.5-1.15-7.15-.3-10.85 7.9-22.65 6.55-4.05 15.3-7.2 29.3-7.25 41.5-22.05L107 173.1q-19.1 13.1-22.5 24.5 22.65 1.6 50.05-25.45l4.45-4.55 2.4-4.85q8.7-20.5-11.9-30.2-17.1-6.55-20.5-17-5.4 5.35-19 2.5l3.9 6.4M191.45 20.9l9.05 1.15q13.65 4.25-12.5 41 13.2-23.5 3.45-42.15M139.5 135.6q10.2-4.25 7.5-15-13.35-3.9-5-23.55-28.1 20.55-8.5 25.05 14.6.5 6 13.5" fill="#39ffff" transform="translate(.05)"/><path d="M301.55 46.1q14.45-12.5 6-22.05L303 21.4l-18.5-10.85q22.4 24.7-17.5 30.5-68.2 6.75-50 25 2.85 6.2 2.85 11.05-.05 13.7-22.85 17-36.2 3.85-10.5-29l1.5-2.05q26.15-36.75 12.5-41l-9.05-1.15-13.95-1.85q29 27.8-17.4 50.65l-.7.35-6.8 3.1-1.1.45q-107.35 30.95-73.5 46l15.9 4.85 33.6 10.15Q96.75 155.35 56 166.1 36.95 178 24.9 188.05 10 200.4 5.65 209.95q-2.2 4.8-1.75 8.85.2 1.8.95 3.5 2.2 5.05 9.15 8.8 9.4 5.3 19.6 9.95l5.25 2.35q12.95 5.65 27.2 10.35l2.45.8q9.85 3.15 20.3 5.85l4.7 1.2q-.25 13.8 2.85 24.4 6.25 21.7 26.4 29.5l3.25 1.15q-.85-24.75 6.45-34.4 2-2.65 4.55-4.15 13 23.75 31.5 31-13.25-19.7-3-31 12.2-.5 13.5 14 22.1-12.35 38.15-31.7l6.35-8.3q4.7-1.3 7.35-2.5 7.75-3.5-2.35-6-32.1-3.4-10.45-21.3l6.95-5.2 57.6-17.75 10.45-3.25q9.55-6.65-8.55-13.3l-3.5-1.2q-12.25-.5-18.5-3.35-13.6-6.15 1-23.2 56.65-33.75 47.55-46-9.15-8.45-23.65-11.55l-5.4-.95q-1.85 9.7-7.15 14.95-3.5 3.55-8.55 5.1-10.85 3.3-28.8-2.55-3.9-4.8-3.75-10.5 0-.95.15-1.9l.05-.25q1.9-13.2 24.05-30.85 30.75-13.4 43.55-24.45M267 70.6q-42.1 31.3-21.5 43 45.35-5.15 28-21 57 7.4 42.55 33L269 157.1q-22.8 17.2 24.5 21.5 24.1 14.45-10 27-38.1 9.25-54.45 16.7-23.15 10.5-3.05 17.3 18.15 3.25 13.35 10-2.85 3.9-13.35 9l-1.5 1.8q-27.4 32.15-49.5 37.7-1.95-22.65-9.5-13.5-6.9 13.35 14.5 25-20.8 13.2-43.5-25-2.4 3.7-4.05 7.25-7.9 16.65-.15 29.35l.15.3q1.45 2.35 3.5 4.6l-3.5-1.15q-4.9-1.7-9.2-3.75l-.5-.2q-33.4-16.1-34.3-53.9-10.25-1.95-19.95-4.7l-6.5-2q-31.9-10.3-57.55-30.3-2.85-3.75-3.9-7.8-.45-1.7-.55-3.5-.25-4.25 1.4-8.85 7.65-21.65 57.05-50.85 37.3-9.95 60.5-23l-28-8.5Q20.15 107.65 142 70.05q66.25-21.75 28-54 65.85-4.7 21 49-27.1 33.8 16.5 20.5 17.15-5.75 0-26-3.45-14.9 64.05-24.5Q308.6 29.95 261.5 0q71.15 18.35 48.05 45.05Q293 61.75 267 70.6" fill="#20a9ee" transform="translate(.05)"/><path d="M303 21.4q1.8 19.95-15 24.7h13.55Q288.75 57.15 258 70.55q-22.15 17.65-24.05 30.85-1.7-18.2 6.15-30.9l1.05-1.6q10.4-15.35 35.35-22.35-16.6-2.25-33.2 4.1-8 3.05-16 8.1-5.15 3.25-10.3 7.3-18.2-18.25 50-25 39.9-5.8 17.5-30.5L303 21.4m-69.25 82.15q-.15 5.7 3.75 10.5 17.95 5.85 28.8 2.55-3.8 6.65 5.7 9.5l-8.5 2.5q17.7 5.05 33.75-8.55-4.65 7.5-18.25 16.05-29.65 20.5-42.95 45.95-2.1-2.8-6.55-6l11.5-21-18 13q-3.55-4.7-13 2.5l7-16.5Q199.65 166 190.2 184.2q-2.5-3.65-2.85-11.1 8.9-12.35 25.55-25.05l11.1 2q28.7-20 21.5 3.05 22.45-6.95 3-23-21.1 10.55-32 6.5-10.95-20.25 17.25-33.05M38.85 243.4l-5.25-2.35q-14.4-7.1-17.5-18.75l-.65-3.5q-.5-4.15.35-8.85 1.7-9.8 9.1-21.9Q36.95 178 56 166.1q40.75-10.75 71.5-31.5l-33.6-10.15-3.9-6.4q13.6 2.85 19-2.5 3.4 10.45 20.5 17 20.6 9.7 11.9 30.2-2.95-10.45-18.9-10.2 13.65 14.05-5 28.05 8.55-4.2 17.05-8.45-27.4 27.05-50.05 25.45 3.4-11.4 22.5-24.5l2.5-15.05Q97.3 172.85 68 180.1q-8.75 3.15-15.3 7.2-15 9.15-18.7 22.65-1.15 4.2-1.2 8.85l.1 3.5q.75 9.7 5.95 21.1M152.6 73.15l6.8-3.1.7-.35q46.4-22.85 17.4-50.65l13.95 1.85q9.75 18.65-3.45 42.15l-1.5 2.05q-25.7 32.85 10.5 29 22.8-3.3 22.85-17 13.05 21.95-11.85 25-35.6 9.75-40.55 25.1l-2.5 1.55q-42.25-18.15 4.55-43.7-32.95.3-50.5 29.55v-13q-9.85 0-18 10.5 2.6-8.4-3-14.05l53.55-24.4 1.05-.5" fill="#1ccfff" transform="translate(.05)"/><path d="M243.3 50.65q-6.9 13.2-3.5 19.65l-9.3 9.75q-9.35-6.75-3.2-21.3 8-5.05 16-8.1m-75.85 76.55q10.65-6.3 32.6-13.05-30.8 32.95-2.05 28.45 9.15.1 8.3 4.25-1.1 5.2-17.8 16.75-13.35 6.5-25.4 10.9-10.95 4-20.75 6.25l-9.85 1.85 32-16q-7.6-4.65 4.5-16.5-20.95-9.95-4.05-21.35l2.5-1.55m129.8-7.2-15.15 4.75q9-3.05 4.4-10.65-5.85-4.55-1.5-8.3 2.5-2.25 8.55-4.2 9.95 8.3 3.75 18.4h-.05M139.5 135.6q8.6-13-6-13.5-19.6-4.5 8.5-25.05-8.35 19.65 5 23.55 2.7 10.75-7.5 15" fill="#a4fffa" transform="translate(.05)"/><path d="m206.3 146.85 6.6 1.2q-16.65 12.7-25.55 25.05-3.25 4.5-5.45 8.95-5.8 11.7-4.4 23.05 3.8 7.7 12.7 7.75-1.4 6.65 3.9 9.45l1.85.8q-6.6 1.1-10.7-.8-3.65-1.7-5.25-5.75l-14.3 11.8q-18-3-18.25 10.25l-10.75-3q-2.5-5.3-4.25-10.9l-.7-2.4q-1.1-3.95-1.8-8.05l2.5-.3 1.55-.35q22.9-4.95 13.55 8.7l-.55.8 1.3-.8q22.65-14.35 9.2-17.2-18.55 3.6-19.2-7.45l24.8-23.15q12.05-4.4 25.4-10.9 16.7-11.55 17.8-16.75" fill="#289ff6" transform="translate(.05)"/><path d="M181.9 182.05q2.2-4.45 5.45-8.95.35 7.45 2.85 11.1 5.4 7.9 20.9-2.45l-11.95 17.8q-14.35 1.05-17.25-17.5" fill="#4eeef8" transform="translate(.05)"/><path d="M190.2 184.2q9.45-18.2 26.8-30.15l-7 16.5q9.45-7.2 13-2.5l18-13-11.5 21q4.45 3.2 6.55 6 4.65 6.05-1.8 9.9l-2.35 1.15-6.25 4.35-1.15-8.9q-8.7-.1-9.35-5.95-.2-1.75.35-4.05l-4.4 3.2q-15.5 10.35-20.9 2.45" fill="#a9edf4" transform="translate(.05)"/><path d="m211.1 181.75 4.4-3.2q-.55 2.3-.35 4.05l-7.6 14.95q-4.6 1.7-8.4 2l11.95-17.8" fill="#79edf8" transform="translate(.05)"/><path d="M215.15 182.6q.65 5.85 9.35 5.95-9.55 6.3-16.95 9l7.6-14.95" fill="#53eaf7" transform="translate(.05)"/><path d="M287.4 97.5q14.5 3.1 23.65 11.55 9.1 12.25-47.55 46-14.6 17.05-1 23.2 4.1 12.25-5.5 19.35-19.6 13.45-26 2l-12.3 2.3 6.95-4.45 6.25-4.35 2.35-1.15q6.45-3.85 1.8-9.9 13.3-25.45 42.95-45.95 13.6-8.55 18.25-16.05l.05-.05q6.2-10.1-3.75-18.4-2.55-2.1-6.15-4.1" fill="#2f9df4" transform="translate(.05)"/><path d="m224.5 188.55 1.15 8.9-6.95 4.45q-10.1 6.2-17.9 8.85l6.75-13.2q7.4-2.7 16.95-9" fill="#41bdf5" transform="translate(.05)"/><path d="M262.5 178.25q6.25 2.85 18.5 3.35l3.5 1.2q13.2 10-1.9 16.55L225 217.1l-6.95 5.2q-21.65 17.9 10.45 21.3 10.1 2.5 2.35 6-2.65 1.2-7.35 2.5l-6.35 8.3Q201.1 279.75 179 292.1q-1.3-14.5-13.5-14-10.25 11.3 3 31-18.5-7.25-31.5-31-2.55 1.5-4.55 4.15-7.3 9.65-6.45 34.4l-3.25-1.15q-20.15-7.8-26.4-29.5l26.75-35.5q4.7 5 9.35 5.9 6.8 1.35 13.55-5.8l-.75-1q-5.05-6.7-8.55-14l10.75 3 .05 2.45h24.05q-.6 3.75-3.85 8.55l-.7 1 9.55-8 9.45.5q-5.6 3.2-9.9 6.5-6.8 5.25-10.25 10.8-2.65 4.3-3.35 8.75 12.8 14.4 37.5 3 2.95-6.4 4.5-11.75 1.75-6.1 1.7-10.8-.1-10.8-9.6-14.4 6.45-4.55 14-12.9l8.9-10.75-10.85 7.7q-4.85 2-8.95 3.05l-3.75.8-1.85-.8q-5.3-2.8-3.9-9.45 4.6-.05 10.6-2.1 7.8-2.65 17.9-8.85l12.3-2.3q6.4 11.45 26-2 9.6-7.1 5.5-19.35" fill="#6aaaf0" transform="translate(.05)"/><path d="M284.5 182.8q18.1 6.65 8.55 13.3l-10.45 3.25q15.1-6.55 1.9-16.55" fill="#4698ee" transform="translate(.05)"/><path d="M274.85 111.5q5.3-5.25 7.15-14.95l3 9.25q-4.35 3.75 1.5 8.3l-11.65-2.6" fill="#1fd0ff" transform="translate(.05)"/><path d="M96.35 286q-3.1-10.6-2.85-24.4l-4.7-1.2q-10.45-2.7-20.3-5.85l-2.45-.8 2.45-3.35.55-.8q8.75-13 11.55-27.3l.6-3.5.6-7.15 60.55-30.9q9.8-2.25 20.75-6.25l-24.8 23.15q-.2-3.35 1.2-8.05-6.6 7.75-9.95 13.05-6.25 2.95-10 7.3-3.4 3.9-4.85 8.85-.5 1.7-.75 3.5-1.15 7.95 2.05 18.3 3.15 5.4 6.3 9l.45.55.35.35L96.35 286" fill="#26cbfc" transform="translate(.05)"/><path d="M138.3 197.65q.65 11.05 19.2 7.45 13.45 2.85-9.2 17.2l-1.3.8.55-.8q9.35-13.65-13.55-8.7l-1.55.35-2.5.3q-3.65.05-4.05-2.35-.15-.85.1-1.95.6-2.75 3.55-7.3 3.35-5.3 9.95-13.05-1.4 4.7-1.2 8.05" fill="#a7eff6" transform="translate(.05)"/><path d="M134.55 172.15q-8.5 4.25-17.05 8.45 18.65-14 5-28.05 15.95-.25 18.9 10.2l-2.4 4.85-4.45 4.55" fill="#a3fcfa" transform="translate(.05)"/><path d="M147.45 238.6q.25-13.25 18.25-10.25l-2.2 1.75q9.25 3.45 8.05 10.95H147.5l-.05-2.45" fill="#69aaf1" transform="translate(.05)"/><path d="M129.95 214.25q.7 4.1 1.8 8.05l.7 2.4q1.75 5.6 4.25 10.9 3.5 7.3 8.55 14l.75 1-1.1-1q-7.85-7.1-12.45-14.45-3.95-6.3-5.55-12.85-1.25-5.15-1-10.4.4 2.4 4.05 2.35" fill="#35bef7" transform="translate(.05)"/><path d="M125.9 211.9q-.25 5.25 1 10.4 1.6 6.55 5.55 12.85 4.6 7.35 12.45 14.45l1.1 1q-6.75 7.15-13.55 5.8-4.65-.9-9.35-5.9l-.35-.35-.45-.55q-3.15-3.6-6.3-9-3.2-10.35-2.05-18.3.25-1.8.75-3.5 1.45-4.95 4.85-8.85 3.75-4.35 10-7.3-2.95 4.55-3.55 7.3-.25 1.1-.1 1.95" fill="#53eaf6" transform="translate(.05)"/><path d="M66.05 253.75q-14.25-4.7-27.2-10.35-5.2-11.4-5.95-21.1l-.1-3.5q.05-4.65 1.2-8.85 3.7-13.5 18.7-22.65-8.2 11.8-7.9 22.65.1 3.65 1.15 7.15 4.05-3.8 8.4-7.15 12-9.35 26.1-15.4 1.5 7.85 1.4 15.4l-.05 1.7-.6 7.15-.6 3.5q-2.8 14.3-11.55 27.3l-.55.8-2.45 3.35" fill="#a5fcf9" transform="translate(.05)"/><path d="m165.7 228.35 14.3-11.8q1.6 4.05 5.25 5.75 4.1 1.9 10.7.8l3.75-.8q4.1-1.05 8.95-3.05l10.85-7.7-8.9 10.75q-7.55 8.35-14 12.9-9.85 6.9-17.1 4.9l-2.95 2.5-9.55 8 .7-1q3.25-4.8 3.85-8.55 1.2-7.5-8.05-10.95l2.2-1.75" fill="#b2d4ec" transform="translate(.05)"/><path d="M200.8 210.75q-6 2.05-10.6 2.1v-.05l8.95-13.25q3.8-.3 8.4-2l-6.75 13.2" fill="#6fc8f5" transform="translate(.05)"/><path d="M190.2 212.85q-8.9-.05-12.7-7.75-1.4-11.35 4.4-23.05 2.9 18.55 17.25 17.5l-8.95 13.25v.05" fill="#3dbff6" transform="translate(.05)"/><path d="M196.6 235.2q9.5 3.6 9.6 14.4.05 4.7-1.7 10.8-1.55 5.35-4.5 11.75-24.7 11.4-37.5-3 .7-4.45 3.35-8.75 3.45-5.55 10.25-10.8 4.3-3.3 9.9-6.5l-9.45-.5 2.95-2.5q7.25 2 17.1-4.9" fill="#7ba2ea" transform="translate(.05)"/></g><g id="t" fill-rule="evenodd"><path d="m75.4 3.1 3.4 1.8-4 37.6-51.2 46.4L0 62.1l1.75-3.3L23.2 84.5l49.2-43.2 3-38.2" fill="#643317"/><path d="M70.55 1.25q2.45.7 4.85 1.85l-3 38.2-49.2 43.2.45-1.5.15-.65 45-44.25 1.75-36.85" fill="#0bf4d0"/><path d="M25.1 22.55q23.25-27.9 45.45-21.3L68.8 38.1l-45 44.25q7.5-27.85 1.3-59.8" fill="#ad4b13"/><path d="M1.75 58.8q11.8-22.4 23.35-36.25 6.2 31.95-1.3 59.8l-.15.65-.45 1.5L1.75 58.8" fill="#f2751a"/></g><g id="u" fill-rule="evenodd"><path d="m142.05 15 4.35-1.4Q135.1 44 106.3 66.25q8-8.15 14.8-16.8l5-6.7q6.2-8.8 11.15-18.05l1.85-3.5 2.95-6.2M96.2 75.9 92.8 90q-23.6 19.95-47.2 27.6l-2.55-2.15q7.5-3.25 14.65-6.9Q74.9 99.65 90 88l8-19.6-1.8 7.5M8.25 70.7q-2.3-4-3.8-8.3l3.75-1.6 3.1 2.9-3.1 1.1 2.35 4.7-2.3 1.2" fill="#0fd"/><path d="M137.25 24.7q-4.95 9.25-11.15 18.05l-5 6.7-12.7 8.95q-8.65 6.85-10 2.8 4.95-6.55 10.1-12.25l17.6-6.2L112.2 45q12-12.45 25.05-20.3M57.7 108.55 86 86.4l12-18L90 88q-15.1 11.65-32.3 20.55M80 57.8l-6.8 14q-5.8.3-11.4.2l-15.25-1.1q9.3.7 19.25-1.9 9.15-3.1 14.2-11.2" fill="#1d4773"/><path d="M106.3 66.25Q135.1 44 146.4 13.6l-4.35 1.4Q118.2 23.2 95.6 43.6l1.35-1.55 3-3.35Q99.25 21.75 91.1 3l-3.2 1.95Q58.45 23.6 35.85 52.45q-4.25 5.4-8.25 11.15-12.15-7.9-20.4-44.4Q.55 37 2.1 51.7l.6 3.9q.6 3.5 1.75 6.8 1.5 4.3 3.8 8.3l.55.9.45.7Q18.5 86.1 20 96l11.95 10.1 11.1 9.35 2.55 2.15q23.6-7.65 47.2-27.6l3.4-14.1.7-.4-2.5 15.7q-22.85 23.05-49.6 28.4L17.2 97.2q-.8-9.9-10.8-24.4-13.9-29.6 2.4-62.4 2.8 31.6 18 50.8Q48.55 24.4 92 0l.9 1.9q7.9 17.4 9.1 34.75 19.55-19.5 47.6-26.25-12.9 40.75-52.7 65.1l.45-2.8 8.95-6.45M63.6 99.6l-9.4 7-5.65-8.2-20.15-1.6L28 94l32.8 5.15-.2.2 3 .25m-3-.25L52 98.7l3.2 5.1 5.4-4.45M20.8 81.4l8.8 8.8L21 86l-.2-4.6" fill="#102843"/><path d="m139.1 21.2-1.85 3.5Q124.2 32.55 112.2 45l13.9-2.25-17.6 6.2q-5.15 5.7-10.1 12.25 5.7-20.25 35.05-37.55l.05-.05.1-.05q2.8-1.25 5.5-2.35" fill="#112b49"/><path d="m142.05 15-2.95 6.2q-2.7 1.1-5.5 2.35l-.1.05-.05.05q-17 7.7-37.85 19.95 22.6-20.4 46.45-28.6m-110.1 91.1L20 96q-1.5-9.9-10.75-23.7l5.85-2.85 7.3 25.75 9.55 10.9M2.1 51.7Q.55 37 7.2 19.2q8.25 36.5 20.4 44.4-12.2-6.2-20-23.4L4.25 54 2.1 51.7m71.1 20.1-10 9.6L37 76.6 61.8 72q5.6.1 11.4-.2" fill="#8ac8ef"/><path d="M87.9 4.95 91.1 3q8.15 18.75 8.85 35.7l-3 3.35-.85-1.2q.35-3.15-.15-6.75.75-9.8-8.05-29.15" fill="#00ffdf"/><path d="M27.6 63.6q4-5.75 8.25-11.15Q60.15 30.9 89.2 16q5.55 10.15 6.75 18.1.5 3.6.15 6.75L83.6 22.8l-56 40.8" fill="#214e7d"/><path d="M121.1 49.45q-6.8 8.65-14.8 16.8l-8.95 6.45.65-4.3-12 18-28.3 22.15q-7.15 3.65-14.65 6.9l-11.1-9.35-9.55-10.9-7.3-25.75 2.5-1.25L4.25 54 7.6 40.2q7.8 17.2 20 23.4l56-40.8 12.5 18.05.85 1.2-1.35 1.55q20.85-12.25 37.85-19.95Q104.1 40.95 98.4 61.2q1.35 4.05 10-2.8l12.7-8.95M80 57.8q1.7-2.75 2.95-6.1 1.85-5 2.65-11.3-32.7.9-47.2 29.2 4 1 8.15 1.3L61.8 72 37 76.6l26.2 4.8 10-9.6 6.8-14M60.8 99.15 28 94l.4 2.8 20.15 1.6 5.65 8.2 9.4-7-2.8-.45m-40-17.75L21 86l8.6 4.2-8.8-8.8" fill="#498dc2"/><path d="M35.85 52.45Q58.45 23.6 87.9 4.95q8.8 19.35 8.05 29.15-1.2-7.95-6.75-18.1-29.05 14.9-53.35 36.45" fill="#88c7ed"/><path d="M46.55 70.9q-4.15-.3-8.15-1.3 14.5-28.3 47.2-29.2-.8 6.3-2.65 11.3-1.25 3.35-2.95 6.1-5.05 8.1-14.2 11.2-9.95 2.6-19.25 1.9m24.7-7.9 1.55-1q8.45-6.6 11-19.8l-3.15.35-.3.05q-19.6 2.6-32.05 16.2-3.9 4.25-7.1 9.6 16.35 3.05 30.05-5.4" fill="#1e9376"/><path d="M71.25 63q7.1-6.65 8.55-18.2l-11.2 4q2.4 8.75-4.2 12.4-9.5 5.9-15.2 0l-4.8 4.4q12.1 2.25 26.85-2.6-13.7 8.45-30.05 5.4 3.2-5.35 7.1-9.6 8.35 6.05 15.5 0 4.3-5.1 3-10.2 5.05-4.05 13.55-6l.3-.05 3.15-.35q-2.55 13.2-11 19.8l-1.55 1" fill="#00ffe6"/><path d="M71.25 63Q56.5 67.85 44.4 65.6l4.8-4.4q5.7 5.9 15.2 0 6.6-3.65 4.2-12.4l11.2-4Q78.35 56.35 71.25 63" fill="#6aa1c3"/><path d="M4.45 62.4Q3.3 59.1 2.7 55.6l5.5 5.2-3.75 1.6m75.9-19.8q-8.5 1.95-13.55 6 1.3 5.1-3 10.2-7.15 6.05-15.5 0 12.45-13.6 32.05-16.2M60.6 99.35l-5.4 4.45-3.2-5.1 8.6.65" fill="#d2fde5"/><path d="m9.25 72.3-.45-.7-.55-.9 2.3-1.2L15 67.2l-3.7-3.5-3.1-2.9-5.5-5.2-.6-3.9L4.25 54 17.6 68.2l-2.5 1.25-5.85 2.85" fill="#208d70"/><path d="m11.3 63.7 3.7 3.5-4.45 2.3-2.35-4.7 3.1-1.1" fill="#63b1b9"/></g><g id="v" fill-rule="evenodd"><path d="M15.35 65.15q-1.65.9-3.3 1.9Q8.8 69 5.5 71.2 3.05 84.3 4.25 96.4q.55 5.35 1.8 10.5l.95 3.55q1.35 4.65 3.3 9.15 40.15 33 79.3 19l6.95-2.85 3.85-1.9 4.35-2.4 3.55-2.25q-7.8 8.3-18.1 12.3l-3.3 1.15-3.7.95-4.95.95-4.65.45q-5 .35-10.45-.05l-6-.6-4.15-.65-4.25-.85-3.65-.85q-9.1-2-16.35-5.2-5.2-2.35-9.45-5.25L15 128.2Q-6.4 109.5 2.7 70.4q44.45-34.1 80.75-11.55l3.7 2.45q2.9 2.1 5.8 4.55l4.95 4.55q12.15 19.7 10.5 38.85l-.4 3.2q-1.3 8.7-5.45 17.35l-4.85.25q13.8-36.7-3.8-57.25-13.8-14.7-30.5-18.05-17.7-3.55-38.65 5.7l-5.45 2.6q-1.95 1-3.95 2.1" fill="#441515"/><path d="M15.35 65.15q2-1.1 3.95-2.1Q36.6 127.3 90 130l3.9.1 3.8-.05 4.85-.25-1.1 2.1q-64.2 8.25-86.1-66.75m33.4 77.7 4.25.85q-4.9 3.05-10.95 4.65l-4.95 1-7.45.6-2.1-3.7q13.3.95 21.2-3.4" fill="#643317"/><path d="m19.3 63.05 5.45-2.6 1.95 6.75q30.4-13 37.2 13.6 2.85 11.6-13.2 27.6 9.35 11.3 18.65 14.05Q77.8 127.85 90 130q-53.4-2.7-70.7-66.95" fill="#ff754b"/><path d="M12.05 67.05q1.65-1 3.3-1.9 21.9 75 86.1 66.75l-1.05 1.95-3.85 1.9q-27.65 1.8-50.15-9.8Q27.6 111.65 15.5 92l-3.2 5.2-6.25 9.7q-1.25-5.15-1.8-10.5l7.65-12 .15-17.35" fill="#fbf8c0"/><path d="M92.95 65.85q-2.9-2.45-5.8-4.55Q117.7 48.85 122.7 9.6q23 51-.65 84.75 6.4-11.6 2.05-26.35-.9-2.95-2.2-6-6.9-13.25-28.95 3.85M124.3 30.8l-11.6 19.6q9.6-.65 17.6 9.6l-6-29.2" fill="#fff"/><path d="m108 112.45.4-3.2q8.05-7 13.65-14.9 23.65-33.75.65-84.75-5 39.25-35.55 51.7l-3.7-2.45Q117.95 41.95 121.1 0q37.6 73-13.1 112.45" fill="#464375"/><path d="M63.4 54.75Q80.1 58.1 93.9 72.8q17.6 20.55 3.8 57.25l-3.8.05q16.15-42.6-21-69.3-4.4-3.15-9.5-6.05m19.8 88.85 3.7-.95 10.85 14.15-3.5 2.4-11.05-15.6" fill="#0fd"/><path d="M24.75 60.45q20.95-9.25 38.65-5.7 5.1 2.9 9.5 6.05Q84.95 95 59.5 113.6q4.05 5.2 9.85 8.85-9.3-2.75-18.65-14.05 16.05-16 13.2-27.6-6.8-26.6-37.2-13.6l-1.95-6.75m-5.45 71.1q4.25 2.9 9.45 5.25l-1.2 9.45-8.25-14.7" fill="#d02828"/><path d="m124.3 30.8 6 29.2q-8-10.25-17.6-9.6l11.6-19.6M92.95 65.85Q115 48.75 121.9 62q1.3 3.05 2.2 6l-7 19.2q-10-18.95-24.15-21.35" fill="#d3d1f5"/><path d="M108.4 109.25q1.65-19.15-10.5-38.85l-4.95-4.55q14.15 2.4 24.15 21.35l7-19.2q4.35 14.75-2.05 26.35-5.6 7.9-13.65 14.9" fill="#b4b0ee"/><path d="m53 143.7 4.15.65-7.25 4.85 1.7 6.7-6.2 1.25-3.35-8.8q6.05-1.6 10.95-4.65M4.25 96.4Q3.05 84.3 5.5 71.2q3.3-2.2 6.55-4.15L11.9 84.4l-7.65 12m8.05.8 3.2-5.2q12.1 19.65 30.9 33.95-18.85-9.75-34.1-28.75" fill="#f3ce31"/><path d="m42.05 148.35 3.35 8.8-4.7.45-3.6-8.25 4.95-1" fill="#ad4c13"/><path d="M28.75 136.8Q36 140 45.1 142l3.65.85q-7.9 4.35-21.2 3.4l1.2-9.45m44.15-76q37.15 26.7 21 69.3L90 130q-12.2-2.15-20.65-7.55-5.8-3.65-9.85-8.85Q84.95 95 72.9 60.8" fill="#620f0f"/><path d="M63.15 144.95q5.45.4 10.45.05-8.5 6.55-18 9.75L53.9 152l9.25-7.05m26.45-6.35q-39.15 14-79.3-19-1.95-4.5-3.3-9.15l4.5-5.25q25.4 36.9 78.1 33.4m-52.5 10.75 3.6 8.25h-6.8l-4.25-7.65 7.45-.6" fill="#f2751a"/><path d="m15 128.2 4.3 3.35 8.25 14.7 2.1 3.7 4.25 7.65h6.8l4.7-.45 6.2-1.25 4-1.15q9.5-3.2 18-9.75l4.65-.45-6.1 5.45q-6.4 5.15-13 8.2l-6.55 2.55Q42.25 163.9 31.5 162 17.25 147.75 15 128.2" fill="#653317"/><path d="m57.15 144.35 6 .6L53.9 152l1.7 2.75-4 1.15-1.7-6.7 7.25-4.85m39.4-8.6-6.95 2.85q-52.7 3.5-78.1-33.4L7 110.45l-.95-3.55 6.25-9.7q15.25 19 34.1 28.75 22.5 11.6 50.15 9.8" fill="#ad4b13"/><path d="m86.9 142.65 3.3-1.15q3 12.2 13.3 11.3l-5.75 4-10.85-14.15m-34.3 18.1 6.55-2.55 12.15 16.9-4.2 2.9q-2.65-10.15-14.5-17.25" fill="#102843"/><path d="m78.25 144.55 4.95-.95 11.05 15.6-11.1 7.7q.75-11.95-11-16.9l6.1-5.45" fill="#143150"/><path d="M59.15 158.2q6.6-3.05 13-8.2 11.75 4.95 11 16.9l-11.85 8.2-12.15-16.9" fill="#336295"/><path d="m149.5 214.25-.6-1.45q-38.7-22.1-75.4 16l.7 5.95 1.3 10.85q5.7-3.8 11.4-6.75 2.15-1.15 4.3-2.15 1.85-.85 3.7-1.6 3.3-1.35 6.6-2.4l4.95-1.45 2.65-.65q24.85-5.4 48.75 6.65-2.5-8.25-5.95-17.05l-2.4-5.95m-41.75-12.35q18.85-4.4 39.75 7.7l-17.15-42.75-1.65-4.05q-25.6-23.45-63.6 21.2l.85 3.3 1.05 4 8.35 32.05q3-3.4 6.05-6.3l4.3-3.8 4.6-3.4q4.95-3.45 10.05-5.55l4.4-1.55 3-.85m57.5 42.9q-3.15-2.1-6.3-3.8l-2.3-1.15q-33.25-16.2-76.05 6.7l-1.25.7q-3.6 1.9-7.25 4.15-6.2-10.8-1.3-22.55l.7-1.65-12.15-44.3q41.35-48.65 71.75-22.9 24.9 51.3 34.15 84.8" fill="#643317"/><path d="m74.2 234.75-.7-5.95q36.7-38.1 75.4-16l.6 1.45q-22.95-5.65-43.45-1.05l-6.15 1.6 1.6 17.9q-3.3 1.05-6.6 2.4l-5.8-15.5-2.6 2.65-4.85 4.9-7.45 7.6" fill="#fbf8c0"/><path d="M151.9 220.2q3.45 8.8 5.95 17.05-23.9-12.05-48.75-6.65v-13q20.85-3.8 42.8 2.6m-65 18.65q-5.7 2.95-11.4 6.75l-1.3-10.85 7.45-7.6 5.25 11.7m43.45-72 17.15 42.75q-20.9-12.1-39.75-7.7l-8.65-30.3q15.6-6.3 31.25-4.75m-48.95 50.2q-3.05 2.9-6.05 6.3L67 191.3l2.65-3.45 11.75 29.2" fill="#f2751a"/><path d="M127.15 249.3q-1.65 2.55-1.65 6.1t1.65 6.05q1.65 2.55 3.95 2.55 2.3 0 3.95-2.55 1.65-2.5 1.65-6.05t-1.65-6.1q-1.65-2.5-3.95-2.5-2.3 0-3.95 2.5M145.9 260q-.1-13.1-6-11.6 2.6 22.4-2.8 44.8l-13.65 2.3-5.55-31.1v2.8l-4.4-13.2v36.8l-15.05 3.5-2.95-23.5-4.4-5.2v29.2l.6 2.1-3.95.45L79.5 288l-2-15.6 2.1-17.6q41.45-19.6 72.55-6.3-1.15.45-2.05 1.65-1.5 2-1.5 4.85 0 2.85 1.5 4.85 1.5 2 3.65 2 2.1 0 3.6-1.9 2.5 16.65.15 28.45l-7.85 3.95L145.9 260m-36 1q0-3.55-1.85-6.1-1.8-2.5-4.35-2.5t-4.4 2.5q-1.8 2.55-1.8 6.1t1.8 6.05q1.85 2.55 4.4 2.55 2.55 0 4.35-2.55 1.85-2.5 1.85-6.05" fill="#336295"/><path d="M127.15 249.3q1.65-2.5 3.95-2.5 2.3 0 3.95 2.5 1.65 2.55 1.65 6.1t-1.65 6.05Q133.4 264 131.1 264q-2.3 0-3.95-2.55-1.65-2.5-1.65-6.05t1.65-6.1m30.2 10.65q-1.5 1.9-3.6 1.9-2.15 0-3.65-2t-1.5-4.85q0-2.85 1.5-4.85.9-1.2 2.05-1.65.75-.35 1.6-.35 2.15 0 3.65 2t1.5 4.85q0 2.85-1.5 4.85l-.05.05v.05M79.6 254.8l-2.1 17.6 2 15.6 8.25 9.35L92.7 303l-1.6 2.6-22-24.8 10.25-33.55 1.25-.7-1 8.25m30.3 6.2q0 3.55-1.85 6.05-1.8 2.55-4.35 2.55t-4.4-2.55q-1.8-2.5-1.8-6.05t1.8-6.1q1.85-2.5 4.4-2.5 2.55 0 4.35 2.5 1.85 2.55 1.85 6.1" fill="#609ee2"/><path d="m123.45 295.5 13.65-2.3q5.4-22.4 2.8-44.8 5.9-1.5 6 11.6l-2.8 33.6q-11.5 7.15-19.65 1.9m34.05-7.1q2.35-11.8-.15-28.45l.05-.1q1.5-2 1.5-4.85 0-2.85-1.5-4.85-1.5-2-3.65-2-.85 0-1.6.35-31.1-13.3-72.55 6.3l1-8.25q42.8-22.9 76.05-6.7 8.4 25.05 4.05 46.95l-3.2 1.6m-59.05 5.9 15.05-3.5V254l4.4 13.2v30.4l-14.85 5.8-4.35-7-.25-2.1" fill="#143150"/><path d="m145.9 260 3.75 32.35.25 2.05q4.85 3 13.6-4.4 3.25-21.15-4.55-49 3.15 1.7 6.3 3.8 8.3 30.25 3.85 46-8.4 13.05-19.2 10.4-10 6.75-20 7.2l-4 5.6-37.2-4.8-24.4-28 8.4-28.8-.6-1q3.65-2.25 7.25-4.15L69.1 280.8l22 24.8 1.6-2.6-4.95-5.65 3.95-.45-.6-2.1v-29.2l3.6 30.8 6.8 7.6 1.55-.6 14.85-5.8v-30.4h.25l2.95 31.2-8 7.2-2.05.45h14.45l8.9-4.5q6.55-.9 13.1-5.95l-1.6-35.6" fill="#102843"/><path d="m149.65 292.35 7.85-3.95 3.2-1.6q4.35-21.9-4.05-46.95l2.3 1.15q7.8 27.85 4.55 49-8.75 7.4-13.6 4.4l-.25-2.05m-26.2 3.15q8.15 5.25 19.65-1.9l2.8-33.6 1.6 35.6q-6.55 5.05-13.1 5.95-5.05.65-10.1-1.15l-.85-4.9" fill="#0fd"/><path d="m149.5 214.25 2.4 5.95q-21.95-6.4-42.8-2.6v13l-2.65.65-.4-18.05q20.5-4.6 43.45 1.05M91.2 236.7q-2.15 1-4.3 2.15l-5.25-11.7 4.85-4.9 4.7 14.45m16.55-34.8-3 .85L93.9 170q3.1-2.65 6.7-4.45 11.45-5.7 28.1-2.75l1.65 4.05q-15.65-1.55-31.25 4.75l8.65 30.3" fill="#ad4b13"/><path d="m104.75 202.75-4.4 1.55-14.45-35.5 14.7-3.25q-3.6 1.8-6.7 4.45l10.85 32.75m-14.45 7.1-4.6 3.4-13.4-28.85-2.65 3.45L67 191.3l-1.05-4 10.75-12.1 13.6 34.65" fill="#f2cd31"/><path d="m106.45 231.25-4.95 1.45-1.6-17.9 6.15-1.6.4 18.05M94.9 235.1q-1.85.75-3.7 1.6l-4.7-14.45 2.6-2.65 5.8 15.5" fill="#f3ce31"/><path d="m85.7 213.25-4.3 3.8-11.75-29.2 2.65-3.45 13.4 28.85" fill="#b04d13"/><path d="M100.35 204.3q-5.1 2.1-10.05 5.55L76.7 175.2l-10.75 12.1-.85-3.3q38-44.65 63.6-21.2-16.65-2.95-28.1 2.75l-14.7 3.25 14.45 35.5" fill="#f3edb7"/><path d="m91.1 265.6 4.4 5.2 2.95 23.5.25 2.1 4.35 7-1.55.6-6.8-7.6-3.6-30.8" fill="#5d9add"/><path d="m117.9 264.4 5.55 31.1.85 4.9q5.05 1.8 10.1 1.15l-8.9 4.5h-14.45l2.05-.45 8-7.2-2.95-31.2-.25-2.8" fill="#132e4b"/></g><use ffdec:characterId="2" height="404" width="341.55" xlink:href="#m" id="c"/><use ffdec:characterId="4" height="356" width="232.1" xlink:href="#n" id="d"/><use ffdec:characterId="6" height="229.5" width="109.85" xlink:href="#o" id="e"/><use ffdec:characterId="8" height="166.65" width="101.6" xlink:href="#p" id="f"/><use ffdec:characterId="10" height="190.4" width="134.3" xlink:href="#q" id="g"/><use ffdec:characterId="12" height="292.25" width="135.65" xlink:href="#r" id="h"/><use ffdec:characterId="14" height="326.1" transform="translate(0 210.8)" width="319" xlink:href="#s" id="i"/><use ffdec:characterId="21" height="88.9" width="78.8" xlink:href="#t" id="j"/><use ffdec:characterId="23" height="119.6" width="149.6" xlink:href="#u" id="k"/><use ffdec:characterId="28" height="314" width="170.65" xlink:href="#v" id="l"/><path d="M19.25-4.3q7.35 1.05 7.35 2.55 0 1.45-7.35 2.5L1.6 1.8-16.1.75q-7.3-1.05-7.3-2.5 0-1.5 7.3-2.55l17.7-1 17.65 1" fill-opacity=".349" fill-rule="evenodd" transform="translate(23.4 5.3)" id="b"/></defs></svg>