<svg xmlns:ffdec="https://www.free-decompiler.com/flash" xmlns:xlink="http://www.w3.org/1999/xlink" ffdec:objectType="frame" height="90" width="90" xmlns="http://www.w3.org/2000/svg"><use ffdec:characterId="22" height="91.2" transform="translate(0 -.25)" width="90" xlink:href="#a"/><defs><g id="a" transform="translate(0 .25)"><use ffdec:characterId="4" height="90" width="90" xlink:href="#b"/><use ffdec:characterId="21" height="132" transform="matrix(.6902 0 0 .6907 4.025 -.24)" width="118.85" xlink:href="#c"/></g><g id="b"><use ffdec:characterId="1" height="0" transform="matrix(.3874 0 0 .3875 6.1 0)" width="0" xlink:href="#sprite2"/><use ffdec:characterId="3" height="62.25" transform="scale(1.6933 1.4458)" width="53.15" xlink:href="#d"/></g><g id="c" transform="translate(-1.05 -1.1)"><use ffdec:characterId="5" height="35.15" transform="matrix(.6115 -.41 .41 .6115 1.07 32.437)" width="26.45" xlink:href="#e"/><use ffdec:characterId="6" height="69.55" transform="matrix(.5946 .434 -.434 .5946 90.24 6.521)" width="49.9" xlink:href="#f"/><use ffdec:characterId="7" height="105.4" transform="translate(31.76 29.813) scale(.7373)" width="75.25" xlink:href="#g"/><use ffdec:characterId="8" height="21.3" transform="translate(68.731 76.781) scale(.7373)" width="22.1" xlink:href="#h"/><use ffdec:characterId="9" height="15.9" transform="translate(31.781 84.681) scale(.7373)" width="17.75" xlink:href="#i"/><use ffdec:characterId="10" height="15.3" transform="translate(61.881 55.881) scale(.7373)" width="19.2" xlink:href="#j"/><use ffdec:characterId="11" height="16.8" transform="translate(26.581 62.481) scale(.7373)" width="20.35" xlink:href="#k"/><use ffdec:characterId="12" height="13.95" transform="translate(30.25 123.25) scale(.6081)" width="97.6" xlink:href="#l"/><use ffdec:characterId="13" height="59.15" transform="translate(19.058 19.588) scale(.7373)" width="69.25" xlink:href="#m"/><use ffdec:characterId="14" height="34.3" transform="translate(20.496 24.233) scale(.7373)" width="54.85" xlink:href="#n"/><use ffdec:characterId="15" height="24.35" transform="translate(18.247 8.697) scale(.7373)" width="24.55" xlink:href="#o"/><use ffdec:characterId="16" height="30.8" transform="translate(31.531 1.081) scale(.7373)" width="24" xlink:href="#p"/></g><g id="e"><path d="m14.1 3.8 2.1 1q4.95 2.8 5.8 8.3l.65 3.25.4 1.85.4 1.7.1.6 1.05 4.7q1.35 6.25-3.3 3.95-4.7-2.35-2.3-.9l-6.1-3.6-2.3-1.6.55.1q.5 0 .85-.35l.35-.85q0-.5-.35-.95-.35-.35-.85-.35-.55 0-1 .35-.35.45-.35.95l.2.7Q3.1 17.4 5.3 14.4l.25-.1q.05.55.35.85.55.55 1.15.55.6 0 1.1-.55.45-.35.45-1.05 0-.6-.45-1-.5-.55-1.1-.55l-.3.05-.4-1.1Q3.6 10.8 4.9 4.45q.75-.8 1.75-1.25l2.15-.5 5.3 1.1M8.25 7.45l-.35-.2q-.45-.35-1.1-.35l-.8.2q-.45.05-.8.35-.5.7-.5 1.55 0 .85.5 1.45l.2.1q.6.55 1.4.55.85 0 1.45-.65.6-.6.6-1.45t-.6-1.55m1.15 10.6q-.35-.35-.9-.35-.5 0-.95.35-.35.4-.35.95 0 .5.35.85.45.35.95.35.55 0 .9-.35l.35-.85q0-.55-.35-.95m7.05-2.45q-.3.35-.3.85 0 .45.3.8l.85.25.8-.25.35-.8q0-.5-.35-.85-.3-.35-.8-.35-.45 0-.85.35m-.65-1.75q0-.75-.6-1.4-.5-.5-1.3-.5-.75 0-1.4.5-.5.65-.5 1.4 0 .8.5 1.3.65.6 1.4.6.8 0 1.3-.6.6-.5.6-1.3" fill="#c9fff2" fill-rule="evenodd" transform="translate(.85 1)"/><path d="M13.3 28.45Q-.7 20.9 2.95 8.15q.7-2.35 1.95-3.7-1.3 6.35 1.45 7.05l.4 1.1q-.45.1-.85.5-.35.4-.35 1v.2l-.25.1q-2.2 3 4.7 8.25l.15.15.45.25 2.3 1.6 6.1 3.6.75.45q1.7 4.65-6.45-.25" fill="#fffeff" fill-rule="evenodd" transform="translate(.85 1)"/><path d="M8.25 7.45q.6.7.6 1.55 0 .85-.6 1.45-.6.65-1.45.65-.8 0-1.4-.55l-.2-.1q-.5-.6-.5-1.45t.5-1.55q.35-.3.8-.35l.8-.2q.65 0 1.1.35l.35.2m-1.5 5.15.3-.05q.6 0 1.1.55.45.4.45 1 0 .7-.45 1.05-.5.55-1.1.55-.6 0-1.15-.55-.3-.3-.35-.85v-.2q0-.6.35-1 .4-.4.85-.5M10 22.65l-.2-.7q0-.5.35-.95.45-.35 1-.35.5 0 .85.35.35.45.35.95l-.35.85q-.35.35-.85.35l-.55-.1-.45-.25-.15-.15m-.6-4.6q.35.4.35.95l-.35.85q-.35.35-.9.35-.5 0-.95-.35-.35-.35-.35-.85 0-.55.35-.95.45-.35.95-.35.55 0 .9.35" fill="#42c8d1" fill-rule="evenodd" transform="translate(.85 1)"/><path d="M15.8 13.85q0 .8-.6 1.3-.5.6-1.3.6-.75 0-1.4-.6-.5-.5-.5-1.3 0-.75.5-1.4.65-.5 1.4-.5.8 0 1.3.5.6.65.6 1.4m.65 1.75q.4-.35.85-.35.5 0 .8.35.35.35.35.85l-.35.8-.8.25-.85-.25q-.3-.35-.3-.8 0-.5.3-.85" fill="#9effe9" fill-rule="evenodd" transform="translate(.85 1)"/><path d="m23.1 18.15-1-5.05q-.9-5.5-5.85-8.3-1.1-.6-2.15-1L8.8 2.7l-2.15.5q-1 .45-1.75 1.25-1.25 1.35-1.95 3.7Q-.7 20.9 13.3 28.45l3.45 2.35-4.35 2.35Q-2.7 21.6.8 6.65q1-3.65 4.15-5.2Q8.1-.2 11.65.05q3.45.25 6.45 2.5 2.85 2.2 4.4 5.5 1.15 2.35 1.5 4.7l.6 6.8q.3 4.45-1.5-1.4" fill="#0f4158" fill-rule="evenodd" transform="translate(.85 1)"/><path d="m23.9 19.2.05-.05q1.8 5.85 1.5 1.4" fill="none" stroke="#000" stroke-linecap="round" stroke-linejoin="round" stroke-width=".1"/><path d="m25.45 20.55-.6-6.8q-.35-2.35-1.5-4.7-1.55-3.3-4.4-5.5-3-2.25-6.45-2.5Q8.95.8 5.8 2.45 2.65 4 1.65 7.65q-3.5 14.95 11.6 26.5" fill="none" stroke="#320049" stroke-linecap="round" stroke-linejoin="round" stroke-width="2"/><path d="m23.1 18.15-1-5.05q-.9-5.5-5.85-8.3-1.1-.6-2.15-1L8.8 2.7l-2.15.5q-1 .45-1.75 1.25-1.25 1.35-1.95 3.7Q-.7 20.9 13.3 28.45l3.45 2.35m6.8-10.3-.1-.6-.4-1.7m.05-.05.35 1.75" fill="none" stroke="#13435a" stroke-linecap="round" stroke-linejoin="round" transform="translate(.85 1)"/><path d="M14 4.2q1.05 6.1 5.55 10.7 1.05 4.85-3.4 3.3-4-.1-5.8-2.35-2-4.95.25-12.6 2 .2 3.4.95" fill="#42c8d1" fill-rule="evenodd" transform="translate(.85 1)"/></g><g id="f"><path d="m43.45 13.8.1.45.05.45.3 1.7.3 1.55.5 3.4q.5 8.4-3.9 16.2-5.2 9.15-11.6 13.55l-.3.2-.9-1.05q5-4 8-9.3l.1-.1q2.15-3.7 3.35-8.1l.45-.45q1.3-1.2 1.3-2.85 0-1.25-.7-2.25l.1-.6q.4-3.9.2-8-.1-4.25-2.05-7.9-6.45 1.1-7.7-2.8-.9-1.65-.3-4.2 10 .5 12.7 10.1" fill="#e2eefc" fill-rule="evenodd" transform="translate(1 1)"/><path d="m39.55 2.8 1.75 1.4q1.85 1.55 3.2 3.6 3.6 5.45 3.4 13.55 0 3.15-.65 6.75-.7 4.55-2.45 8.75-4.1 9.5-12.6 16l.3.6q-1.45-1.05-3-1.75 1.55.7 3 1.75 4.2 11.6-9.15 13.85 2.4-1.25 4.1-2.55 3.4-2.8 3.3-5.95-.1-4.45-1.25-7.1l-.3-.1-.2-.2-.1-.1.3-.2q6.4-4.4 11.6-13.55 4.4-7.8 3.9-16.2l-.5-3.4-.3-1.55-.3-1.7-.05-.45-.1-.45q-1.75-7.2-3.9-11M29.5 51.7l-.3-.6.3.6" fill="#077dd0" fill-rule="evenodd" transform="translate(1 1)"/><path d="m.3 40.85.2-2.15.2-1.35q.7-6.45 4.7-11.1l.65-.5 1.3-3.7Q17.75 4.5 27.8 3.8l2.95-.1q-.6 2.55.3 4.2 1.25 3.9 7.7 2.8 1.95 3.65 2.05 7.9.2 4.1-.2 8l-.1.6-.3-.3-.3-.35q-1.25-1.2-3-1.2h-.3q-1.55.1-2.75 1.2-.85.85-1.05 1.85-.3 1.45.1 2.6l.95 1.3q1.2 1.15 2.75 1.25h.3q1.35 0 2.55-.8-1.2 4.4-3.35 8.1l-.1.1q-3 5.3-8 9.3l.9 1.05.1.1h-.1l.3.2.3.1q1.15 2.65 1.25 7.1.1 3.15-3.3 5.95-3.55.6-5.1-1.25-2.15-3 .1-6.35-.6-1.45-3.2-5.45-3.55-5.15-.4-6.95h.1q5.45-2.4 9.45-6.3l1.65-1.85.3-.3v-.1q1.65-2.55 1.95-4.9V31l-.1-1.05V28.4q-.65-3.35-3.7-6.75l-1.25-1.35q-1.4-1.1-2.25-2.35-2.75-3.7-1.85-8.4Q13.3 15.7 9.3 27.1l-1.4-.6 1.3.9-.9 2.85q-1.65 6.5-5.45 11.2L1.5 39.8.3 40.85m28.4-26.6q-1.45 1.45-1.45 3.6 0 1.15.45 2.15l1 1.45q1.45 1.45 3.6 1.45 2.15 0 3.6-1.45 1.5-1.45 1.5-3.6 0-2.15-1.5-3.6-1.45-1.5-3.6-1.5-2.15 0-3.6 1.5m-5.25 35.6q2.05.3 3.9.95l.35.2 1.2.4-1.2-.4-.35-.2q-1.85-.65-3.9-.95m-17.4-24.1 1.75.7.1.05-.1-.05-1.75-.7m24.7 11.5-.1.1q-.7.7-.7 1.65 0 1.1.9 1.85.75.7 1.85.8h.2l1.05-.2.3-.1.7-.5.4-.35.45-1.5q0-1.05-.85-1.85-.9-.75-2.05-.75-1 0-1.65.55h-.1l-.3.2-.1.1m-4.1 5.3-.2.15q-.7.5-.7 1.3 0 .75.7 1.35.6.5 1.45.5l1-.2.5-.3q.55-.6.55-1.35 0-.8-.55-1.3-.7-.55-1.5-.55-.75 0-1.25.4" fill="#9dffe9" fill-rule="evenodd" transform="translate(1 1)"/><path d="M40.5 27.2q.7 1 .7 2.25 0 1.65-1.3 2.85l-.45.45q-1.2.8-2.55.8h-.3q-1.55-.1-2.75-1.25L32.9 31q-.4-1.15-.1-2.6.2-1 1.05-1.85 1.2-1.1 2.75-1.2h.3q1.75 0 3 1.2l.3.35.3.3M28.7 14.25q1.45-1.5 3.6-1.5 2.15 0 3.6 1.5 1.5 1.45 1.5 3.6 0 2.15-1.5 3.6-1.45 1.45-3.6 1.45-2.15 0-3.6-1.45l-1-1.45q-.45-1-.45-2.15 0-2.15 1.45-3.6m2.15 22.9.3-.2h.1q.65-.55 1.65-.55 1.15 0 2.05.75.85.8.85 1.85l-.45 1.5-.4.35-.7.5-.3.1-1.05.2h-.2q-1.1-.1-1.85-.8-.9-.75-.9-1.85 0-.95.7-1.65l.1-.1h.1v-.1m-4.2 5.4q.5-.4 1.25-.4.8 0 1.5.55.55.5.55 1.3 0 .75-.55 1.35l-.5.3-1 .2q-.85 0-1.45-.5-.7-.6-.7-1.35 0-.8.7-1.3l.2-.15" fill="#44c9d0" fill-rule="evenodd" transform="translate(1 1)"/><path d="M39.55 2.8q2.15 3.8 3.9 11-2.7-9.6-12.7-10.1l-2.95.1q-10.05.7-20.45 18.25Q14.45 2.55 26.25.3q3.15-.6 6.65 0 2.15.35 4.5 1.25l2.15 1.25" fill="#336c97" fill-rule="evenodd" transform="translate(1 1)"/><path d="m23.35 67.3-.9.1-1.65.1Q-2.6 68.2.3 40.85l1.2-1.05 1.35 1.65q3.8-4.7 5.45-11.2l.9-2.85.1-.3q4-11.4 13.85-17.55-.9 4.7 1.85 8.4.85 1.25 2.25 2.35l1.25 1.35q3.05 3.4 3.7 6.75v1.55l.1 1.05v.3q-.3 2.35-1.95 4.9v.1l-.3.3-1.65 1.85q-4 3.9-9.45 6.3l-.7-1.15q.7-.7.7-1.55 0-.8-.7-1.4-.75-.55-1.55-.55-.9 0-1.45.4l-.2.15q-.8.6-.8 1.4 0 .85.8 1.55.65.5 1.65.5l1.05-.2.4-.2.1-.1.6 1.15q-3.15 1.8.4 6.95 2.6 4 3.2 5.45-2.25 3.35-.1 6.35 1.55 1.85 5.1 1.25-1.7 1.3-4.1 2.55m.25-45.05q.8-.7.8-1.7 0-.95-.8-1.75-.65-.65-1.75-.65-1.05 0-1.85.65-.75.8-.75 1.75 0 1 .75 1.7.8.75 1.85.75 1.1 0 1.75-.75m-4 5.75q-1.45 1.45-1.45 3.6 0 2.15 1.45 3.6 1.5 1.45 3.65 1.45t3.6-1.45q1.45-1.45 1.45-3.6 0-2.15-1.45-3.6-1.45-1.45-3.6-1.45-2.15 0-3.65 1.45M7.35 47.3q7-15 1.85-19.9 5.15 4.9-1.85 19.9" fill="#42c8d1" fill-rule="evenodd" transform="translate(1 1)"/><path d="M23.6 22.25q-.65.75-1.75.75-1.05 0-1.85-.75-.75-.7-.75-1.7 0-.95.75-1.75.8-.65 1.85-.65 1.1 0 1.75.65.8.8.8 1.75 0 1-.8 1.7m-4 5.75q1.5-1.45 3.65-1.45t3.6 1.45q1.45 1.45 1.45 3.6 0 2.15-1.45 3.6-1.45 1.45-3.6 1.45-2.15 0-3.65-1.45-1.45-1.45-1.45-3.6 0-2.15 1.45-3.6m-1.35 15.6-.1.1-.4.2-1.05.2q-1 0-1.65-.5-.8-.7-.8-1.55 0-.8.8-1.4l.2-.15q.55-.4 1.45-.4.8 0 1.55.55.7.6.7 1.4 0 .85-.7 1.55" fill="#9ffee8" fill-rule="evenodd" transform="translate(1 1)"/><path d="m33.5 54.45-.3-.6q8.5-6.5 12.6-16 1.75-4.2 2.45-8.75.65-3.6.65-6.75.2-8.1-3.4-13.55-1.35-2.05-3.2-3.6l-1.75-1.4-2.15-1.25q-2.35-.9-4.5-1.25-3.5-.6-6.65 0-11.8 2.25-18.9 21.75l-1.3 3.7-.65.5q-4 4.65-4.7 11.1l-.2 1.35-.2 2.15Q-1.6 69.2 21.8 68.5h1.05M33.5 54.45q4.2 11.6-9.15 13.85" fill="none" stroke="#340249" stroke-linecap="round" stroke-linejoin="round" stroke-width="2"/><path d="M29.5 51.7q1.55.7 3 1.75m-3-1.75-.3-.1-.3-.2-1.2-.4-.35-.2q-1.85-.65-3.9-.95M7.9 26.5l1.3.9q5.15 4.9-1.85 19.9m.55-20.8-.1-.05-1.75-.7" fill="none" stroke="#340249" stroke-linecap="round" stroke-linejoin="round" transform="translate(1 1)"/><path d="m23.45 68.4-1.65.1" fill="none" stroke="#000" stroke-linecap="round" stroke-linejoin="round" stroke-width=".1"/><path d="m30.2 52.1.3.6m-6.15 15.6-.9.1-.6.1m7.05-16.2.3-.2m0 .5-.2-.2-.1-.1" fill="none" stroke="#000" stroke-linecap="round" stroke-linejoin="round" stroke-width=".2"/></g><g id="g"><path d="m58 15.6 3.35 4.25 2.05 3 .25.3q2.45 3.8 4.2 7.75l.3.85 1.8 5q1.75 3.15 1.5 6.8l-1.75 4.8-.1.2-4.2 9.65-14.55 20.25q1.5-6.35 2.25-14.35 9.9-9.15 10.65-26.15v-3.6l-.35-2.6q-.65-4.3-2.05-8.25l-.05-.35Q59.95 19.2 58 15.6M.9 43.55l.2-1.3v-.05l.9-1.3 14.6 5.25.4.15q-.75.55-1.2 1.75l-14.1-5.6-.6-.2.6.2-.4 1.15-.4-.05M44.15 27.6l.15 3.05.15 1.1-.65-.6-16.3 15 .7.7-.2.2.15-.2-.85-.5-1.9-1.25 12.2-10.45 6.55-7.05m-.35 3.55.5-.5-.5.5m-16.3 15-.2.2.2-.2" fill="#9624c4" fill-rule="evenodd" transform="translate(.8 1)"/><path d="M58 15.6q1.95 3.6 3.3 7.55l.05.35q1.4 3.95 2.05 8.25l.35 2.6v3.6Q63 54.95 53.1 64.1q.5-5.75.65-12.4v-2.05q2.75-5.05 3.75-11.7l.55-6.2L58 26.2l-.1-.5-.6-2.55q-2.45-9.35-9.75-12.9-1.85-3.05 0-6.85Q53.9 9.7 58 15.6" fill="#200828" fill-rule="evenodd" transform="translate(.8 1)"/><path d="M47.55 10.25q7.3 3.55 9.75 12.9l.6 2.55.1.5.05 5.55-.55 6.2q-1 6.65-3.75 11.7l-.85 1.6-.2.4q-3.1 4.8-8 8.1l-.45.35-.3.2h-.15q-.05-2.7-.9-8.05 3.7-.8 2.15-3.7-1.35-2.15-3.8-4.25 2.45 2.1 3.8 4.25 1.55 2.9-2.15 3.7l-.35-1.45 1.85-.35q-.1-1.55-1.4-3.1l-1.4-1.7-.35-1.35-.4-2.05v-.05l3.3-4.25q2.55-3.5 3.7-6.2l.75-2.55.9-6.05L46.25 17l.8-3.5.5-3.25M7.3 58.1l-.1-1 .9-.4 6.3 6.45 2.55 2.55-2.05-.35-7.05-7.5-.55.25.55-.25 7.05 7.5-2.55-.65-4.5-1.5-.55-5.1m-.55-8.55.1-.25.3.15-.4.1m9.85 7 4.15 4.7-4.05-3.95h-.1v-.75m.1.75-.1-.1.1.1" fill="#c62dff" fill-rule="evenodd" transform="translate(.8 1)"/><path d="m46.25 17 3.25 6.15-.9 6.05-.75 2.55q-1.15 2.7-3.7 6.2l-3.3 4.25v.05l-.85 1-.85 1q-4.5 1.9-6.7 7.1v.05q-.2.05-.4.25l-.55-.8q-1.55-2.15-3.05-3.5l-.45-.3.2-.2-.7-.7 16.3-15 .65.6-.15-1.1-.15-3.05 2.1-10.6M40 43.25l-.5-.4q-5.85 2.15-8 8 2.15-5.85 8-8l.5.4M.7 45.1l.6-1.5.4-1.15 14.1 5.6q-.25.5-.35 1.15v1.05q-2.15-1.1-5.35-1.55l-4.05.1L.7 45.1m6.15 4.2-.8-.5 4.05-.1q3.2.45 5.35 1.55l.15 1.5q-3.6-2.1-7.2-2.3H7.15l-.3-.15" fill="#0b2303" fill-rule="evenodd" transform="translate(.8 1)"/><path d="m39.15 44.25.35-.2 2.1 1.6 1.4 1.7q1.3 1.55 1.4 3.1l-1.85.35-1.1.15q-2.3 6.65-4.8 12.75L32 74l-.55 1.05-.7 1.35-.2.4-.1.1h-.1l-.45-.5-1-.65-1.65-1.25q-5.95-4.7-10.3-8.8l-2.55-2.55-6.3-6.45-.9.4-2.1.95-.45-1.45q-.15-1.15 0-2.4Q5 52.15 6 49.6l.75-.05.4-.1H8.4q3.6.2 7.2 2.3l1 .65v4.9h.1l4.05 3.95q3.9 3.5 7.4 6L34.65 53l-2.35-1.5q.05-.1.15-.1v-.05q2.2-5.2 6.7-7.1M36.8 49.2l-.15.2-.55.55h1.35l-1.35 3.6v.15l-4.85 11.55-1.35 2.9v.05l-1.1 2.05q-1.9-.75-5.6-4.1l-7.7-7.6-1.8-1.95v-1.3l-1.8-.9-.7 1.7 1.2 1.6h.1q3.5 4.4 7.55 8.3 4.45 4.45 9.75 8.3l.15.05.05-.1 9.2-23.9 1.15-.55q.25-1.7-.5-3.15-1.75 1.05-3.05 2.55" fill="#fdf248" fill-rule="evenodd" transform="translate(.8 1)"/><path d="m40.85 42.25.4 2.05.35 1.35-2.1-1.6-.35.2.85-1 .85-1m2.05 10q.85 5.35.9 8.05-.35.2-.75.5l-4.45 2.15q-.05 0-.15.1l-1.8.65q2.5-6.1 4.8-12.75l1.1-.15.35 1.45-.65.15-3.8 10.65 3.8-10.65.65-.15m1.05 18.45q-.15.15 0 .25-.15.15 0 .4-.3 5.85-1 11.4l-.9.4q-3.25 1.05-6.8 1.5l-8.3.65q-5.05-5.45-9.45-12.1l7.75 1.3 5.7 4.15 2.65-5q4.95-.85 9.55-2.7l.8-.25M40 43.25l1.25 1.05L40 43.25" fill="#d479fa" fill-rule="evenodd" transform="translate(.8 1)"/><path d="M50.85 78.45 65.4 58.2l4.2-9.65.05.3v.85q-.15.9-.15 1.8l-.3 3.5-.6 4.85-1.55 6.3-1.85 4.9-2.45 5.25-2.65 4.8-.5.8q-2.9 4.1-5.9 7.4l-2.55 2.75-3.3 2.95-.5.45L45 92.9l.55-.85q3.35-5.2 5.3-13.6" fill="#20082a" fill-rule="evenodd" transform="translate(.8 1)"/><path d="m69.7 48.35 1.75-4.8q.25-3.65-1.5-6.8.75.95 1.35 3.4.65 2.35 1.7 4.15.7 5.35.3 10.95l-1.1 6v.05l-.25 1.25-2.05 7-5.65 11.7-.6.95q-3.65 5.55-8.5 10.35l-2.1 2.05-2.6 2.1q-2.7 3.25-7.15 5.1-.4.05-.85.25-2.45.85-5.35 1.35h-.3q-.9-.05-.95-.25h-.1l-.4-.9v-.05l.7-.35 1.4-.5L40.4 100q.7-.4 1.3-.7 1.2-.75 2.3-1.4l1.2-.85 2.15-1.6.5-.45 3.3-2.95 2.55-2.75q3-3.3 5.9-7.4l.5-.8 2.65-4.8 2.45-5.25 1.85-4.9 1.55-6.3.6-4.85.3-3.5q0-.9.15-1.8v-.85l.05-.5m-2.65 17.8q-3.15 12.5-1.15 5.8-2 6.7 1.15-5.8m-31.7 36.1.5.9-.5-.9" fill="#07a3fa" fill-rule="evenodd" transform="translate(.8 1)"/><path d="m2.05 40.7 4.65-2.15q1.45-2.95 3.35-6.05l3.9-6.35q2.1-3.35 4.55-6.45 2.3-3 5.15-5.45 2.9-2.45 6.45-3.5 3.15-.95 6.45-.9L41 9.8l6.55.45-.5 3.25-.8 3.5-2.1 10.6-6.55 7.05L25.4 45.1q-3.45-1.75-6.9-.5-1.2.55-1.9 1.55L2 40.9l.05-.2" fill="#0d2203" fill-rule="evenodd" transform="translate(.8 1)"/><path d="M.15 59.55Q-.35 53.2.7 45.1l5.35 3.7.8.5-.1.25-.75.05q-1 2.55-1.35 4.6-.15 1.25 0 2.4l.45 1.45 2.1-.95.1 1-2.5 1.15q-2.85-2.95.7-10.45h.55-.55q-3.55 7.5-.7 10.45l2.5-1.15.55 5.1H7.7Q3.95 61.65.15 59.55" fill="#9724c7" fill-rule="evenodd" transform="translate(.8 1)"/><path d="m28 47.05.45.3q1.5 1.35 3.05 3.5l-.4 1 .45.3-.45-.3.4-1 .55.8-.5.5-6.7 5.85-6.9-2.95-.25-3.1q-.9-1-2.25-1.7 1.35.7 2.25 1.7l.25 3.1-1.35-.6V52.4l-1-.65-.15-1.5V49.2q.1-.65.35-1.15l6.75 2.6 4.75-4.3.85.5-.15.2" fill="#155e02" fill-rule="evenodd" transform="translate(.8 1)"/><path d="m25.4 45.1 1.9 1.25-4.75 4.3-6.75-2.6q.45-1.2 1.2-1.75l4.95 1.75 3.45-2.95" fill="#e390fa" fill-rule="evenodd" transform="translate(.8 1)"/><path d="M16.6 46.15q.7-1 1.9-1.55 3.45-1.25 6.9.5l-3.45 2.95L17 46.3l-.4-.15" fill="#116100" fill-rule="evenodd" transform="translate(.8 1)"/><path d="M36.8 49.2q1.3-1.5 3.05-2.55.75 1.45.5 3.15l-1.15.55-9.2 23.9-.05.1-.15-.05q-5.3-3.85-9.75-8.3-4.05-3.9-7.55-8.3h-.1l-1.2-1.6.7-1.7 1.8.9v1.3l1.8 1.95 7.7 7.6q3.7 3.35 5.6 4.1l1.1-2.05v-.05l1.35-2.9L36.1 53.7v-.15l1.35-3.6H36.1l.55-.55.15-.2" fill="#fea50b" fill-rule="evenodd" transform="translate(.8 1)"/><path d="m17.95 55.05 6.9 2.95 6.7-5.85.5-.5q.2-.2.4-.25-.1 0-.15.1l2.35 1.5-6.5 14.25q-3.5-2.5-7.4-6l-4.15-4.7v-2.1l1.35.6.1 2.05 9.65 8.3L33 53.25l-1.45-1.1 1.45 1.1-5.3 12.15-9.65-8.3-.1-2.05" fill="#d376f8" fill-rule="evenodd" transform="translate(.8 1)"/><path d="M43.95 70.55v.15l-.8.25q-4.6 1.85-9.55 2.7l-2.65 5-5.7-4.15q-5.2-4.15-10.35-9.15 5.15 5 10.35 9.15l-7.75-1.3q-2.75-4-5.15-8.5l2.55.65 2.05.35q4.35 4.1 10.3 8.8l1.65 1.25 1 .65.45.5h.1l.1-.1.2-.4.7-1.35L32 74l4.65-10.3 1.8-.65q.1-.1.15-.1l4.45-2.15q.4-.3.75-.5l.15 10.25m-5.5-7.5q-2.25 5.45-4.85 10.6 2.6-5.15 4.85-10.6" fill="#136000" fill-rule="evenodd" transform="translate(.8 1)"/><path d="m.2 60.9-.05-1.35q3.8 2.1 7.55 3.65-3.6-.4-3.95.45-.5 3.8 2.1 5.9Q2.75 68 1 66.15.45 63.7.2 60.9" fill="#530c72" fill-rule="evenodd" transform="translate(.8 1)"/><path d="M5.85 69.55q-2.6-2.1-2.1-5.9.35-.85 3.95-.45h.15q.05 1.3.2 1.5.85 5.05 3.3 7.05-2.8-.9-5-2l-.5-.2" fill="#20082c" fill-rule="evenodd" transform="translate(.8 1)"/><path d="M12.35 64.7q2.4 4.5 5.15 8.5l-1.4-.25-4.75-1.2q-2.45-2-3.3-7.05-.15-.2-.2-1.5l4.5 1.5" fill="#0a2504" fill-rule="evenodd" transform="translate(.8 1)"/><path d="M22.45 91.7q-3.9-2.15-7.2-4.85l-.6-.6Q8.35 82.4 4.4 75.55l-.6-1.05q-1.55-2.95-2-5.2L1 66.15q1.75 1.85 4.85 3.4l.5.2q2.2 1.1 5 2l4.75 1.2.2.7q2.2 6.7 5.35 11.15 4.1 5.7 9.95 8.4-.55.55-1.35 1.95-2.45-1.45-6.1-2.55l-1.7-.9M17 83.75l4.65 1.05L17 83.75" fill="#200727" fill-rule="evenodd" transform="translate(.8 1)"/><path d="m16.1 72.95 1.4.25q4.4 6.65 9.45 12.1l-5.3-.5q-3.15-4.45-5.35-11.15l-.2-.7" fill="#c12ffc" fill-rule="evenodd" transform="translate(.8 1)"/><path d="m21.65 84.8 5.3.5q3.1 3.3 6.55 6.35l-.55.4-.5.35-.4.4-.45.4q-5.85-2.7-9.95-8.4" fill="#0b2502" fill-rule="evenodd" transform="translate(.8 1)"/><path d="m45 92.9 2.35 2.55-2.15 1.6-2.65-2.6-1.35-.75.75-2.5q.95.35 1.8.85l1.25.85m-14.75 2.25q.8-1.4 1.35-1.95l.45-.4.4-.4 1.05 1.7q-.75.65-1.45 1.9l-.1.2-1.7-1.05m3.8.1.8 2.15-1 .85-1.4-1.55q.65-1 1.6-1.45m5.65 2.45 1-2.35 1 .6q1.2.7 2.3 1.95-1.1.65-2.3 1.4L40.2 98l-.5-.3m-5.05 1.75.7-.4.55 2.65q-.25.1-.55.3-.1-1.4-.7-2.55m2.8 1.9 1.2-1.75.35-.35q.7.2 1.4.75l-2.95 1.35" fill="#09060d" fill-rule="evenodd" transform="translate(.8 1)"/><path d="m41.7 91.15.25.05-.75 2.5q-1.35-.65-2.75-.65-1.55 1.35-3.1 0-1 .15-1.85 1.05l-1.05-1.7.5-.35.55-.4q1.25-.95 2.85-1.1 2.9-.25 5.35.6m-7.65 4.1 1.1-.4q1.55 1.35 3.15 0 1.15 0 2.4.5l-1 2.35q-1.05-.65-1.9-.65-1.1 1-2.15 0l-.8.35-.8-2.15m1.3 3.8q.05-.1.3-.1 1.05 1 2.15 0l1.15.2.05.1-.35.35-1.2 1.75-1.4.5-.15-.15-.55-2.65" fill="#092204" fill-rule="evenodd" transform="translate(.8 1)"/><path d="M33.5 94.1q.85-.9 1.85-1.05 1.55 1.35 3.1 0 1.4 0 2.75.65l-.5 1.65q-1.25-.5-2.4-.5-1.6 1.35-3.15 0l-1.1.4-.55-1.15m1.35 3.3.8-.35q1.05 1 2.15 0 .85 0 1.9.65l-.75 1.45-1.15-.2q-1.1 1-2.15 0-.25 0-.3.1l-.5-1.65" fill="#187c02" fill-rule="evenodd" transform="translate(.8 1)"/><path d="m40.7 95.35.5-1.65 1.35.75 2.65 2.6-1.2.85q-1.1-1.25-2.3-1.95l-1-.6m-7.2-1.25.55 1.15q-.95.45-1.6 1.45l-.4-.35-.1-.15.1-.2q.7-1.25 1.45-1.9m.35 4.15 1-.85.5 1.65-.7.4-.8-1.2m5.1.9.75-1.45.5.3 1.5 1.3q-.6.3-1.3.7-.7-.55-1.4-.75l-.05-.1" fill="#0e2a02" fill-rule="evenodd" transform="translate(.8 1)"/><path d="m26.95 85.3 8.3-.65q3.55-.45 6.8-1.5l.9-.4-1.25 8.4q-2.45-.85-5.35-.6-1.6.15-2.85 1.1-3.45-3.05-6.55-6.35" fill="#150" fill-rule="evenodd" transform="translate(.8 1)"/><path d="M43.8 60.3h.15l.3-.2.2-.05.25-.3q4.9-3.3 8-8.1l.2-.4.85-1.6v2.05q-.15 6.65-.65 12.4-2.45 2.5-5.25 4.3l-3.9 2.15-.15-10.25" fill="#0b2301" fill-rule="evenodd" transform="translate(.8 1)"/><path d="M53.1 64.1q-.75 8-2.25 14.35-3.65 2.75-7.9 4.3.7-5.55 1-11.4-.15-.25 0-.4-.15-.1 0-.25v-.15l3.9-2.15q2.8-1.8 5.25-4.3" fill="#c42eff" fill-rule="evenodd" transform="translate(.8 1)"/><path d="M42.95 82.75q4.25-1.55 7.9-4.3-1.95 8.4-5.3 13.6l-.55.85-1.25-.85q-.85-.5-1.8-.85l-.25-.05 1.25-8.4" fill="#082602" fill-rule="evenodd" transform="translate(.8 1)"/><path d="M58.8 16.6q1.95 3.6 3.3 7.55l.05.35q1.4 3.95 2.05 8.25l.35 2.6v3.6q-.75 17-10.65 26.15-2.45 2.5-5.25 4.3l-3.9 2.15m6.9 7.9L66.2 59.2l4.2-9.65.1-.2 1.75-4.8m-17.7 6.1q2.75-5.05 3.75-11.7l.55-6.2-.05-5.55-.1-.5-.6-2.55q-2.45-9.35-9.75-12.9m-2.85 49.5q4.9-3.3 8-8.1l.2-.4.85-1.6m-10.8 33.1q4.25-1.55 7.9-4.3m-6.15-18.7-.25.3-.2.05" fill="none" stroke="#8714ba" stroke-linecap="round" stroke-linejoin="round" stroke-width=".5"/><path d="M73.8 45.3q-.95-6.35-3.4-12.25l-.35-.8q-1.7-4-4.15-7.8l-2.25-3.35-3.5-4.5Q56.05 10.7 46.3 1m27.5 44.3q.7 5.35.3 10.95l-1.1 6v.05l-.25 1.25-2.05 7-5.65 11.7-.6.95q-3.65 5.55-8.5 10.35l-2.1 2.05-2.6 2.1q-2.7 3.25-7.15 5.1-.4.05-.85.25-2.45.85-5.35 1.35h-.3q-.9-.05-.95-.25m-.5-.9v-.05l-.05-.15V103l-.65-1.2-.8-1.2-1.4-1.55-.4-.35-.1-.15-1.7-1.05-7.8-4.8q-3.9-2.15-7.2-4.85l-.6-.6Q9.15 83.4 5.2 76.55q-2.15-2.6-2.6-4.85l-.8-3.2q-.7-3-.8-6.6m22.25 30.8 1.7.9" fill="none" stroke="#300346" stroke-linecap="round" stroke-linejoin="round" stroke-width="2"/><path d="m1.9 43.2.9-1.3-.3-.1.35-.1 4.65-2.15m40.85-28.3q-1.85-3.05 0-6.85m0 6.85-.5 3.25-.8 3.5M44.6 61.3h.15l.3-.2m-.3 10.45v.15m.2-43.1.15 3.05.15 1.1M2.85 41.7l-.05.2m5.85 22.3H8.5m8.4 9.75.2.7M34.3 95.1q.85-.9 1.85-1.05 1.55 1.35 3.1 0 1.4 0 2.75.65l1.35.75 2.65 2.6 2.15-1.6m-13.3-.2 1.1-.4q1.55 1.35 3.15 0 1.15 0 2.4.5l1 .6q1.2.7 2.3 1.95l1.2-.85m-10.35.35.8-.35q1.05 1 2.15 0 .85 0 1.9.65l.5.3 1.5 1.3q1.2-.75 2.3-1.4m-12.05-1.7.1-.2q.7-1.25 1.45-1.9m.35 4.15 1-.85m.5 1.65q.05-.1.3-.1 1.05 1 2.15 0l1.15.2.05.1q.7.2 1.4.75.7-.4 1.3-.7m-7.05.15.7-.4m.7 2.8 1.4-.5L41.2 101m-6.35-4.75q-.95.45-1.6 1.45m2.9 5.5.7-.35" fill="none" stroke="#000" stroke-linecap="round" stroke-linejoin="round" stroke-width=".2"/><path d="m50.3 24.15-.9 6.05-.75 2.55q-1.15 2.7-3.7 6.2l-3.3 4.25v.05l-.85 1-.85 1m4.65-13.1-16.3 15-.2.2-4.75 4.3-6.75-2.6-14.1-5.6-.6-.2m43.2-11.6-.5.5m.35-3.55-6.55 7.05L26.2 46.1l-3.45 2.95-4.95-1.75-.4-.15L2.8 41.9m15.95 14.15 6.9 2.95 6.7-5.85.5-.5q.2-.2.4-.25m-25.6-2.1-.8-.5-5.35-3.7m6.15 4.2.3.15m10.8 5.6-1.35-.6m0 2.1 4.15 4.7" fill="none" stroke="#ba21f5" stroke-linecap="round" stroke-linejoin="round" stroke-width=".5"/><path d="m39.15 44.25.35-.2 2.1 1.6 1.4 1.7q1.3 1.55 1.4 3.1l-1.85.35-1.1.15q-2.3 6.65-4.8 12.75L32 74l-.55 1.05-.7 1.35-.2.4-.1.1h-.1l-.45-.5-1-.65-1.65-1.25q-5.95-4.7-10.3-8.8l-2.55-2.55-6.3-6.45-.9.4-2.1.95-.45-1.45q-.15-1.15 0-2.4Q5 52.15 6 49.6l.75-.05.4-.1H8.4q3.6.2 7.2 2.3l1 .65v4.8l.1.1 4.05 3.95q3.9 3.5 7.4 6L34.65 53l-2.35-1.5q.05-.1.15-.1v-.05q2.2-5.2 6.7-7.1" fill="none" stroke="#fea50b" stroke-linecap="round" stroke-linejoin="round" transform="translate(.8 1)"/><path d="M42.05 45.3q2.45 2.1 3.8 4.25 1.55 2.9-2.15 3.7l-.65.15-3.8 10.65q.1-.1.15-.1l4.45-2.15q.4-.3.75-.5m-12.3-9.45q2.15-5.85 8-8l.5.4 1.25 1.05m-25.8 5.95q1.35.7 2.25 1.7l.25 3.1.1 2.05 9.65 8.3 5.3-12.15-1.45-1.1-.45-.3.4-1M6.85 49.8H6.3q-3.55 7.5-.7 10.45l2.5-1.15.55-.25 7.05 7.5-2.55-.65m3.1-14.45q-2.15-1.1-5.35-1.55l-4.05.1M34.4 74.65q2.6-5.15 4.85-10.6l-1.8.65m-19.7 2-2.05-.35q5.15 5 10.35 9.15l5.7 4.15 2.65-5q4.95-.85 9.55-2.7l.8-.25M18.3 74.2l7.75 1.3m1.7 10.8 8.3-.65q3.55-.45 6.8-1.5l.9-.4m-9.45 8.9q1.25-.95 2.85-1.1 2.9-.25 5.35.6" fill="none" stroke="#b821fc" stroke-linecap="round" stroke-linejoin="round" stroke-width=".5"/><path d="m67.85 67.15 1.55-6.3L70 56l.3-3.5q0-.9.15-1.8v-.85l.05-.5m-3.8 23.6q-2 6.7 1.15-5.8" fill="none" stroke="#07a3fa" stroke-linecap="round" stroke-linejoin="round" stroke-width=".1"/><path d="M.95 60.55q-.5-6.35.55-14.45l.2-1.55.2-1.3v-.05M36.15 103v.2" fill="none" stroke="#000" stroke-linecap="round" stroke-linejoin="round" stroke-width=".5"/><path d="M1.8 67.15q1.75 1.85 4.85 3.4l.5.2q2.2 1.1 5 2l4.75 1.2 1.4.25m-9.8-10Q4.75 62.65.95 60.55m21.5 25.25 5.3.5m-14.6-20.6-4.5-1.5m13.8 21.6-4.65-1.05" fill="none" stroke="#8916bc" stroke-linecap="round" stroke-linejoin="round" stroke-width=".5"/><path d="M31.05 96.15q.8-1.4 1.35-1.95l.45-.4.4-.4.5-.35.55-.4" fill="none" stroke="#4f0c6b" stroke-linecap="round" stroke-linejoin="round" stroke-width=".5"/><path d="m45.8 93.9 2.35 2.55m-5.65-4.3.25.05q.95.35 1.8.85l1.25.85" fill="none" stroke="#560f77" stroke-linecap="round" stroke-linejoin="round" stroke-width=".5"/><path d="M36.15 103q.3-.2.55-.3" fill="none" stroke="#ba21f5" stroke-linecap="round" stroke-linejoin="round" stroke-width=".1"/><path d="m36.65 104.15-.5-.9" fill="none" stroke="#000" stroke-linecap="round" stroke-linejoin="round" stroke-width="2"/><path d="M6.7 38.55q1.45-2.95 3.35-6.05l3.9-6.35q2.1-3.35 4.55-6.45 2.3-3 5.15-5.45 2.9-2.45 6.45-3.5 3.15-.95 6.45-.9L41 9.8l6.55.45" fill="none" stroke="red" stroke-linecap="round" stroke-linejoin="round" transform="translate(.8 1)"/></g><g id="h"><path d="M20.65 9.2v.7l.25 3.3-.15 1.15v.3l-.5 1.95q-.7 1.4-1.65 1.45-1.3 1.6-2.35 1.6l-.8-.2-2.35.5-.65-.4-.2-.1-.3.1-.6.2q-.85 0-.85-.8 0-.7.55-.8.2-.25.7-.25l.3.1.4-.2q.1-.5.65-.5h.1l.7-.2h.2l.8-.2.55-.5 2.25-2.35q.1-1.35.6-1.85l.1-.1-.3-2.9-.8-2.25-.55-1.45-.1-.3v-.4l.2-.4q.15-.2.45 0h.1l.1.1.2-.1q.1-.45.8-.45.55 0 .75.65v.1l-.1.5.8 3.2q.3-.2.5 0l.2.8" fill="#069df6" fill-rule="evenodd" transform="translate(.5 .5)"/><path d="M19.25 4.6v.1l1.2 3.7.2.8.45 2.65v.95l-.2 2.35q-.45 3.5-3.4 4.6l-5.65.55" fill="none" stroke="#300346" stroke-linecap="round" stroke-linejoin="round" transform="translate(.5 .5)"/><path d="m1 4.4 2.05-1.95q.3-.3.7-.45.9-.5 1.85-.7l.4-.1 1.25-.1h.5l.4.1h.75l.4.2 1 .4.95.45q1.5.7 2.55 1.7l1.1.85.45.6.6.75q.7 1.1 1.05 2.35l.1.3.3 1.45v1.8L17 14l-.15.35-.8 1.1-1.1.75-.45-.75q1.05-1.55 0-4.2l-.5-1-.9-1.45-.75-.85-.4-.4-.7-.7-.45-.5-.5-.35-1-.7-.65-.5-.2-.1-.3-.2-.4-.2-.5-.2L6 3.75l-.4-.1-.7-.1H3.75l-.7.1Q2 3.85 1 4.4m15.55-.85q.35.1.3.75v.1l-.2.4q-.2.3-.5.2l-.7-.3h-.2q-.75-.2-.75-.95-.7-.1-.7-.6h-.2q-.75-.1-.75-.8l-.1-.1h-.4q-.9-.2-.8-.95.2-.8 1-.6H13q.4.1.6.4h.2q.6 0 .8.5l.3-.1q.55.1.65.65h.4q.8.3.7 1l-.1.4" fill="#ed980a" fill-rule="evenodd" transform="translate(.5 .5)"/><path d="m13 16.7-1.15.3h-.1l-.5.1-.45.1h-.5l-1-.1-.85-.1-.7-.2-.5-.2-.2-.1-1.45-.85-.7-.5-.95-1-.2-.1L2.2 12.1l-.3-.35-.2-.3q-3-4.5-.7-7.05 1-.55 2.05-.75l.7-.1H4.9l.7.1.4.1 1.25.35.5.2.4.2.3.2.2.1.65.5 1 .7.5.35.45.5.7.7.4.4.75.85.9 1.45.5 1q1.05 2.65 0 4.2l-1.4 1.15-.1.1m-8.25-4.85.25.25q.9 1.2 2.15 1.8 1.4.85 2.35.55.7-.1 1-.65l.1-.7-.1-.5-.1-.55-.8-1.6-.95-1.15q-.6-.7-1.4-1.1-1.45-.85-2.5-.55-.6.3-.8 1.15l-.2.3v.4q.2.95 1 2.35" fill="#a327d5" fill-rule="evenodd" transform="translate(.5 .5)"/><path d="M4.75 11.85q-.8-1.4-1-2.35v-.4l.2-.3q.2-.85.8-1.15 1.05-.3 2.5.55.8.4 1.4 1.1l.95 1.15.8 1.6.1.55.1.5-.1.7q-.3.55-1 .65-.95.3-2.35-.55Q5.9 13.3 5 12.1l-.25-.25" fill="#c32dff" fill-rule="evenodd" transform="translate(.5 .5)"/><path d="m1 4.4 2.05-1.95q.3-.3.7-.45.9-.5 1.85-.7l.4-.1 1.25-.1h.5l.4.1h.75l.4.2 1 .4.95.45q1.5.7 2.55 1.7l1.1.85.45.6.6.75q.7 1.1 1.05 2.35l.1.3.3 1.45v1.8L17 14l-.15.35-.8 1.1-1.1.75-1.95.5-1.15.3h-.1l-.5.1-.45.1h-.5l-1-.1-.85-.1-.7-.2-.5-.2-.2-.1-1.45-.85-.7-.5-.95-1-.2-.1L2.2 12.1l-.3-.35-.2-.3q-3-4.5-.7-7.05 1-.55 2.05-.75l.7-.1H4.9l.7.1.4.1 1.25.35.5.2.4.2.3.2.2.1.65.5 1 .7.5.35.45.5.7.7.4.4.75.85.9 1.45.5 1q1.05 2.65 0 4.2l-1.4 1.15-.1.1m3.75-11.2.55-1.1v-.85q-.3-1.1-1.85-2.35L13.9.2h-.1l-.9-.2q-.55-.05-1.05.3l-.8.8" fill="none" stroke="#550c75" stroke-linecap="round" stroke-linejoin="round" transform="translate(.5 .5)"/></g><g id="i"><path d="m.8 4.3 1.65-1.75.7-.5q.7-.4 1.65-.55l.3-.2 1.15-.1.5-.1.4.1.3.05.1-.1h.3l.35.25.9.25 1.05.35q1.4.4 2.45 1.25l1.1.75.55.5.5.6 1.4 1.95.05.3.3 1.25.1.8.1.7-.1 1.65-.2.4-.65.9-.9.8-.6-.65q1-1.5-.35-3.6l-.5-.85-1-1.2-.75-.75-.4-.3-.7-.5-.45-.5-.6-.25-.9-.55-.75-.45h-.1l-.3-.15-.4-.25h-.5L5.3 3.5 5 3.45l-.7-.1H3.25l-.7.2Q1.6 3.8.8 4.3m9.45-3.2q.2-.7.9-.45l.3-.1h.1l.65.25h.2q.6.05.7.35l.3-.1q.6.15.75.55h.3q.8.25.8.85l-.1.25q.4.1.4.7v.1l-.2.4q-.2.3-.5.2l-.6-.15h-.15q-.8-.15-.9-.85-.6-.15-.6-.55h-.2q-.65-.05-.75-.6l-.1-.1-.2.1h-.2q-.8-.05-.9-.75v-.1" fill="#ed980a" fill-rule="evenodd" transform="translate(.5 .5)"/><path d="m13 14.35-.95.3-.1-.05q-.2.2-.4.2h-.5l-.5.05-.85.05-.8-.05-.8-.2-.45-.15-.1-.1-1.45-.55-.7-.5-1-.75-.2-.15-1.65-1.5-.3-.45-.25-.2q-3.25-3.65-1.2-6 .8-.5 1.75-.75l.7-.2H4.3l.7.1.3.05 1.25.35h.5l.4.25.3.15h.1l.75.45.9.55.6.25.45.5.7.5.4.3.75.75 1 1.2.5.85q1.35 2.1.35 3.6-.25.6-1.15 1.05l-.1.1m-2.55-3.1-.2-.3-.1-.5-.85-1.4-1.1-.9q-.45-.55-1.35-.8-1.35-.75-2.35-.5-.55.35-.55 1.1l-.2.2.1.4q.2.8 1.05 1.9l.3.3q.9.95 2.15 1.4 1.35.75 2.25.4.55-.05.85-.6v-.7" fill="#a327d5" fill-rule="evenodd" transform="translate(.5 .5)"/><path d="M10.45 11.25v.7q-.3.55-.85.6-.9.35-2.25-.4-1.25-.45-2.15-1.4l-.3-.3q-.85-1.1-1.05-1.9l-.1-.4.2-.2q0-.75.55-1.1 1-.25 2.35.5.9.25 1.35.8l1.1.9.85 1.4.1.5.2.3" fill="#c32dff" fill-rule="evenodd" transform="translate(.5 .5)"/><path d="M10.25 1.1q-.1-.6.2-.85.5-.3 1.1-.25l.75.05h.1Q13 .3 14 .9q1.55.95 1.95 1.85l.1.8-.5.95M.8 4.3l1.65-1.75.7-.5q.7-.4 1.65-.55l.3-.2 1.15-.1.5-.1.4.1.3.05.1-.1h.3l.35.25.9.25 1.05.35q1.4.4 2.45 1.25l1.1.75.55.5.5.6 1.4 1.95.05.3.3 1.25.1.8.1.7-.1 1.65-.2.4-.65.9-.9.8-1.85.5-.95.3-.1-.05q-.2.2-.4.2h-.5l-.5.05-.85.05-.8-.05-.8-.2-.45-.15-.1-.1-1.45-.55-.7-.5-1-.75-.2-.15-1.65-1.5-.3-.45-.25-.2q-3.25-3.65-1.2-6 .8-.5 1.75-.75l.7-.2H4.3l.7.1.3.05 1.25.35h.5l.4.25.3.15h.1l.75.45.9.55.6.25.45.5.7.5.4.3.75.75 1 1.2.5.85q1.35 2.1.35 3.6-.25.6-1.15 1.05l-.1.1" fill="none" stroke="#550c75" stroke-linecap="round" stroke-linejoin="round" transform="translate(.5 .5)"/></g><g id="j"><path d="M9.9.05q3.3.2 5.65 2.05 2.65 1.95 2.65 4.95 0 3.05-2.55 5.1Q13.1 14.3 9.5 14.3q-3.6 0-6.15-2.15-2.5-2.05-3.2-5.3-.7-3.3 2.25-5.05l.2.1q-1.4 2.6-.5 5.35 3 3.9 7.4 2.55 1.6-.9 1.65-8.3Q11.1.8 9.8.5l.1-.45m4.6 9.45q.75-1.1.85-2.75.2-1.65-.25-3-.4-1.3-1.1-1.3-.7-.1-1.35 1.1-.6 1.15-.8 2.85-.1 1.65.2 2.9.5 1.25 1.15 1.35.7 0 1.3-1.15" fill="#ffa707" fill-rule="evenodd" transform="translate(.5 .5)"/><path d="M9.8.5q1.3.3 1.35 1-.05 7.4-1.65 8.3-4.4 1.35-7.4-2.55-.9-2.75.5-5.35l.2-.3Q4.35.6 6.1.25L9.8.5M3.95 2.35q-.5.3-.5.9 0 .7.4 1.25.4.6 1.2.4.75-.2 1.05-.95l.5-1.1q.1-.5-.4-.85l-1-.1-1.25.45M14.5 9.5q-.6 1.15-1.3 1.15-.65-.1-1.15-1.35-.3-1.25-.2-2.9.2-1.7.8-2.85.65-1.2 1.35-1.1.7 0 1.1 1.3.45 1.35.25 3-.1 1.65-.85 2.75" fill="#fed1ba" fill-rule="evenodd" transform="translate(.5 .5)"/><path d="M3.95 2.35 5.2 1.9l1 .1q.5.35.4.85l-.5 1.1q-.3.75-1.05.95-.8.2-1.2-.4-.4-.55-.4-1.25 0-.6.5-.9" fill="#fff" fill-rule="evenodd" transform="translate(.5 .5)"/><path d="M2.4 1.8Q-.55 3.55.15 6.85q.7 3.25 3.2 5.3Q5.9 14.3 9.5 14.3q3.6 0 6.15-2.15 2.55-2.05 2.55-5.1 0-3-2.65-4.95Q13.2.25 9.9.05h-.8l-3 .2Q4.35.6 2.8 1.6l-.4.2z" fill="none" stroke="#35014c" stroke-linecap="round" stroke-linejoin="round" transform="translate(.5 .5)"/></g><g id="k"><path d="m.45 7.5.4-1.25Q2.3 2.45 6.2.9 10.1-.65 14 .4q2.55.7 3.9 1.85.7 5.55-6.05 6.65-1.95 2.45-5.35 3-3.9-.4-6.05-4.4M5.3 4.7q-.95.2-1.35 1.15l-.6 1.4q-.1.55.5.95l1.25.2 1.5-.6q.65-.4.65-1.15 0-.8-.45-1.45-.5-.8-1.5-.5" fill="#ffd2bd" fill-rule="evenodd" transform="translate(.5 .5)"/><path d="M17.9 2.25q.7.6 1.05 1.35 1 2.25-.65 5.85-1.65 3.55-5.45 5.3Q9 16.5 5.2 15.4 1.4 14.35.45 12.1q-.9-1.75 0-4.6 2.15 4 6.05 4.4 3.4-.55 5.35-3 6.75-1.1 6.05-6.65" fill="#efbd42" fill-rule="evenodd" transform="translate(.5 .5)"/><path d="M5.3 4.7q1-.3 1.5.5.45.65.45 1.45 0 .75-.65 1.15l-1.5.6-1.25-.2q-.6-.4-.5-.95l.6-1.4q.4-.95 1.35-1.15" fill="#fff" fill-rule="evenodd" transform="translate(.5 .5)"/><path d="M17.9 2.25q.7.6 1.05 1.35 1 2.25-.65 5.85-1.65 3.55-5.45 5.3Q9 16.5 5.2 15.4 1.4 14.35.45 12.1q-.9-1.75 0-4.6l.4-1.25Q2.3 2.45 6.2.9 10.1-.65 14 .4q2.55.7 3.9 1.85z" fill="none" stroke="#35014c" stroke-linecap="round" stroke-linejoin="round" transform="translate(.5 .5)"/></g><g id="m"><path d="M2.35 52.85v.5l-.05.35q-.8 2.6-1.2 5 .4-2.4 1.2-5l.05-.35v.35q.2 3.15.8 6.35l6.8 5.5.45.2.55 1.85q1.5-.35 2.85 1.9.55 1.75-.3 2.8 5.45 7.2 17.35 5.75Q52 74.45 45.6 62.1q9.65-26.95 13.15-12.2.6 3.4.3 6.5l-.5 3.2q2.9 1.15 4.4 3.4 1.45 2.4 1.45 5.8v.85l-.05.75 1.15-1.25.65-.85 1.65-3.25q1.05-2.7 1.2-5.7V56.3h.05l.05.8v3.1q-.1 2.75-1.1 5.5l-.05.25-1.5 2.85-.3.35-.4.6-1.35 1.6-4.3 3.5-1.35.85-.1.15-.1.05q-6.6 3.75-17.2 5.95h-.05l-9.65 1.25-3.6.15-6.35-.5q-3.9-.55-7.7-1.7l-.35-.05-.1-.15-3.85-2.3Q7.35 76.7 5.45 74.7l-.9-1.25Q-.1 67.1 1.1 58.7q.3-2.8 1.25-5.85M14.5 78.8l-.7 1.2.05.15.3.05 7.6 1.65q-4.1-.8-6.9-2.7l-.35-.35" fill="#efbd42" fill-rule="evenodd" transform="translate(-.35 -24.6)"/><path d="m66.15 68.3-.65.85-1.15 1.25.05-.75v-.85q0-3.4-1.45-5.8-1.5-2.25-4.4-3.4l.5-3.2q.3-3.1-.3-6.5-.45-2.55-1.4-5.3l-1.55-2.75q-.85-1.35-1.9-2.4-1.6-1.75-3.65-3.05-1.9-1.25-4.4-2.25-4.75-1.9-11.2-2.15-3 7.05-8.95 8-5.85 1-9.6-4.85v-.4q2.05-.5 3.6.05 2.95 2.7 5.6 1.75 2.65-.9 2.05-4.65 3.15-2.8 7.9-2.75 2.3 0 5.05.8 2.85.75 6.25 2.3 2.05.95 4.3 2.2l.5.35h.1q1.6 1.2 3.1 2.55l.55.5 2.4 2.75q4.85 6.55 4.15 15.8l-.25 2.25q1.75 1.75 2.95 3.6l.05.2L65.6 65q.45 1.45.55 3.2v.1" fill="#cf7a41" fill-rule="evenodd" transform="translate(-.35 -24.6)"/><path d="m67.8 65.05-1.65 3.25v-.1q-.1-1.75-.55-3.2l-1.2-2.55-.05-.2q-1.2-1.85-2.95-3.6l.25-2.25q.7-9.25-4.15-15.8l-2.4-2.75-.55-.5q-1.5-1.35-3.1-2.55h-.1l-.5-.35q-2.25-1.25-4.3-2.2-3.4-1.55-6.25-2.3 2.05-.6.55-2.6 11.35 2.8 19 10.2l1.6 2.2q5.1 7.45 5.8 16.65.2 3.9-.45 8.15l1 .5" fill="#ac4839" fill-rule="evenodd" transform="translate(-.35 -24.6)"/><path d="M69 56.3v3.05q-.15 3-1.2 5.7l-1-.5q.65-4.25.45-8.15-.7-9.2-5.8-16.65l-1.6-2.2q-7.65-7.4-19-10.2h-2.8l.15-2 .25.15 2 .15q3.85.6 7.95 2.35 18 6.95 20.4 25l.2 3.3M38.2 24.7l2.25.3q3.85.55 7.95 2.25Q66.65 34.3 68.8 53q-2.4-18.05-20.4-25-4.1-1.75-7.95-2.35l-2-.15-.25-.15v-.65" fill="#03adfa" fill-rule="evenodd" transform="translate(-.35 -24.6)"/><path d="m16.1 35.15-5.65 3.9-.4-.5-.15-.3.85-1.25 2.45-2.45 1.55-1.45q3.6-3.15 7.4-5.2l5.4-2.15 3.2-.75 7.45-.3v.65h-.15l-7.3.3-2.95.7-5.35 2.15q-4.1 2.05-7.8 5.25-1 .7-1.55 1.55l-2.45 2.45-.6.8.6-.8 2.45-2.45q.55-.85 1.55-1.55 3.7-3.2 7.8-5.25l5.35-2.15 2.95-.7 7.3-.3h.15l-.15 2-4.75-.1q-9.5.55-17.45 7.5h.25v.4" fill="#f8e9d4" fill-rule="evenodd" transform="translate(-.35 -24.6)"/><path d="m14.5 78.8.35.35q2.8 1.9 6.9 2.7l-7.6-1.65-.3-.05-.05-.15.7-1.2" fill="#fdb8cb" fill-rule="evenodd" transform="translate(-.35 -24.6)"/><path d="M2.35 53.35v-.5Q4.2 47 8.5 40.4l.5-.3-.6 1.05q-4.3 6.5-6.05 12.2 1.75-5.7 6.05-12.2L9 40.1l1.45-1.05 5.65-3.9Q19.85 41 25.7 40q5.95-.95 8.95-8 6.45.25 11.2 2.15 2.5 1 4.4 2.25 2.05 1.3 3.65 3.05 1.05 1.05 1.9 2.4l1.55 2.75q.95 2.75 1.4 5.3-3.5-14.75-13.15 12.2Q52 74.45 30.85 78.05 18.95 79.5 13.5 72.3q.85-1.05.3-2.8-1.35-2.25-2.85-1.9l-.55-1.85-.45-.2-6.8-5.5q-.6-3.2-.8-6.35v-.35" fill="#fff6bd" fill-rule="evenodd" transform="translate(-.35 -24.6)"/><path d="M38.05 27.35h2.8q1.5 2-.55 2.6-2.75-.8-5.05-.8-4.75-.05-7.9 2.75.6 3.75-2.05 4.65-2.65.95-5.6-1.75-1.55-.55-3.6-.05h-.25q7.95-6.95 17.45-7.5l4.75.1" fill="#d37211" fill-rule="evenodd" transform="translate(-.35 -24.6)"/><path d="M1.1 58.7q.4-2.4 1.2-5l.05-.35q1.75-5.7 6.05-12.2L9 40.1l.7-1.05.35-.5.6-.8 2.45-2.45q.55-.85 1.55-1.55 3.7-3.2 7.8-5.25l5.35-2.15 2.95-.7 7.3-.3h.15l.25.15 2 .15q3.85.6 7.95 2.35 18 6.95 20.4 25l.25 3.3.05.8v3.1q-.1 2.75-1.1 5.5l-.05.25-1.5 2.85-.3.35-.4.6-1.35 1.6-4.3 3.5-1.35.85-.1.15-.1.05q-6.6 3.75-17.2 5.95h-.05l-9.65 1.25-3.6.15-6.35-.5q-3.9-.55-7.7-1.7l-.35-.05-.1-.15-3.85-2.3Q7.35 76.7 5.45 74.7l-.9-1.25Q-.1 67.1 1.1 58.7" fill="none" stroke="#35014c" stroke-linecap="round" stroke-linejoin="round" transform="translate(-.35 -24.6)"/><path d="m8.65 15.5-.5.3M64 45.8l.05-.75v-.85q0-3.4-1.45-5.8-1.5-2.25-4.4-3.4l.5-3.2q.3-3.1-.3-6.5-.45-2.55-1.4-5.3l-1.55-2.75q-.85-1.35-1.9-2.4-1.6-1.75-3.65-3.05-1.9-1.25-4.4-2.25-4.75-1.9-11.2-2.15-3 7.05-8.95 8-5.85 1-9.6-4.85l-5.65 3.9-1.45 1.05" fill="none" stroke="#651985" stroke-linecap="round" stroke-linejoin="round" stroke-width=".5"/><path d="m59.5 12.95 1.6 2.2q5.1 7.45 5.8 16.65.2 3.9-.45 8.15" fill="none" stroke="#000" stroke-linecap="round" stroke-linejoin="round" stroke-width=".5"/><path d="M39.35 3.2q11.5.95 20.4 10.05" fill="none" stroke="#300346" stroke-linecap="round" stroke-linejoin="round" stroke-width=".5"/><path d="m56.6 67.1-1.3.3q-1.45 0-.75-2.25l.75-.85q2.05-1.75 3.9 1.25 1 3.05-2.2 4.1l-1.6.4q-4.1-.5-3.5-4.2M11.1 71l-1.95.1q-.55-.45-.1-2.05 1-1.25 1.9-1.45 1.45-.4 2.8 1.85.6 1.75-.3 2.85-.85 1.05-3 1.55l-.5.1q-2.05-.2-2.95-1.3-.85-1.05-.55-2.9" fill="none" stroke="#f55579" stroke-linecap="round" stroke-linejoin="round" transform="translate(-.35 -24.6)"/><path d="M25.75 66.65q0-.6-.4-1t-1-.4q-.55 0-.95.4-.4.4-.4 1 0 .55.4.95.4.4.95.4.6 0 1-.4t.4-.95m0-2.35v.2h.2l.45.45q1.75 2.25 1.65 5.7 1.5 2.7.6 5.15l-.1.2h-.2v.2q-1.35 1.45-4.3.3-3.2-3.25-.35-6.15l-.7-.4-1.25-1.1q-1.5-1.75-.1-4.25 1.65-1.5 4.1-.3m-.2 7.7q-.5 0-.8.3-.3.3-.3.75 0 .5.3.8.3.3.8.3.45 0 .75-.3l.3-.8-.3-.75q-.3-.3-.75-.3" fill="#ffe071" fill-rule="evenodd" transform="translate(-.35 -24.6)"/><path d="M25.75 66.65q0 .55-.4.95-.4.4-1 .4-.55 0-.95-.4-.4-.4-.4-.95 0-.6.4-1t.95-.4q.6 0 1 .4t.4 1m-.2 5.35q.45 0 .75.3l.3.75-.3.8q-.3.3-.75.3-.5 0-.8-.3-.3-.3-.3-.8 0-.45.3-.75t.8-.3" fill="#fffdfe" fill-rule="evenodd" transform="translate(-.35 -24.6)"/><path d="M25.4 39.7q-2.45-1.2-4.1.3-1.4 2.5.1 4.25l1.25 1.1.7.4q-2.85 2.9.35 6.15 2.95 1.15 4.3-.3" fill="none" stroke="#874a95" stroke-linecap="round" stroke-linejoin="round" stroke-width=".5"/></g><g id="n"><path d="m36.85 60.1-.1.2q-3.8-2.15-5.15-5.85-2.85-10.85 3.3-17.3 4.8-4 11.1-2.45 2.55-.65 2.95-3.3 1.45 2.45.9 5.25Q54 38.9 55.3 42.6l.95 3.25q-3-1.25-5.75-1.35-.55-1.9-1.75-3.35-2.15-2.9-5.35-2.9-3.15 0-5.4 2.9-2.1 2.95-2.1 7.05 0 2.35.65 4.3-.75.95-1.55 2.2-.8 3.55 1.85 5.4" fill="#f6f6f6" fill-rule="evenodd" transform="translate(-2.3 -30.9)"/><path d="m39.7 47.4 1.25-.7q.7-.55.7-1.45 0-.85-.7-1.45l-.1-.1q1-1.55 2.45-1.55 1.65 0 2.7 1.75l.5.95q.6 1.5.6 3.35 0 2.4-1.1 4.2v.1l-.05-.1q-.4-.4-1.1-.4-.7 0-1.15.4-.4.45-.4 1.15l.2.7h-.2q-1.55 0-2.65-1.85-.85-1.5-1.05-3.45v-.75l.1-.8" fill="#015f45" fill-rule="evenodd" transform="translate(-2.3 -30.9)"/><path d="m40.85 43.7.1.1q.7.6.7 1.45 0 .9-.7 1.45l-1.25.7h-.2q-.9 0-1.5-.7-.55-.55-.55-1.45 0-.85.55-1.45.6-.6 1.5-.6.75 0 1.35.5m8.8 10.25-1.4-.8q-.75-.75-.75-1.85 0-1.05.75-1.85.7-.85 1.75-.85l1 .15q.6.2 1 .7.75.8.75 1.85 0 1.1-.75 1.85-.7.8-2 .8h-.35" fill="#e6f4f7" fill-rule="evenodd" transform="translate(-2.3 -30.9)"/><path d="M36.55 52.5q-.65-1.95-.65-4.3 0-4.1 2.1-7.05 2.25-2.9 5.4-2.9 3.2 0 5.35 2.9 1.2 1.45 1.75 3.35.5 1.65.5 3.7v.55l-1-.15q-1.05 0-1.75.85-.75.8-.75 1.85 0 1.1.75 1.85l1.4.8-.9 1.15q-2.15 3.05-5.35 3.05-3.15 0-5.4-3.05-.95-1.25-1.45-2.6m3.15-5.1-.1.8v.75q.2 1.95 1.05 3.45 1.1 1.85 2.65 1.85h.2l.2.4q.45.45 1.15.45t1.1-.45q.45-.4.45-1.1 0-.7-.4-1.05v-.1q1.1-1.8 1.1-4.2 0-1.85-.6-3.35l-.5-.95q-1.05-1.75-2.7-1.75-1.45 0-2.45 1.55-.6-.5-1.35-.5-.9 0-1.5.6-.55.6-.55 1.45 0 .9.55 1.45.6.7 1.5.7h.2" fill="#119878" fill-rule="evenodd" transform="translate(-2.3 -30.9)"/><path d="M36.85 60.1Q34.2 58.25 35 54.7q.8-1.25 1.55-2.2.5 1.35 1.45 2.6 2.25 3.05 5.4 3.05 3.2 0 5.35-3.05l.9-1.15H50q1.3 0 2-.8.75-.75.75-1.85 0-1.05-.75-1.85-.4-.5-1-.7v-.55q0-2.05-.5-3.7 2.75.1 5.75 1.35 1.3 6.15-1.55 11.1-2.8 4.9-9.15 5.2-6.05-.3-8.7-2.05" fill="#ffde5b" fill-rule="evenodd" transform="translate(-2.3 -30.9)"/><path d="m43.5 54.25-.2-.7q0-.7.4-1.15.45-.4 1.15-.4t1.1.4l.05.1q.4.35.4 1.05 0 .7-.45 1.1-.4.45-1.1.45-.7 0-1.15-.45l-.2-.4" fill="#4cdba5" fill-rule="evenodd" transform="translate(-2.3 -30.9)"/><path d="M34.25 21.6q-.65-1.95-.65-4.3 0-4.1 2.1-7.05 2.25-2.9 5.4-2.9 3.2 0 5.35 2.9 1.2 1.45 1.75 3.35.5 1.65.5 3.7v.55l-1-.15q-1.05 0-1.75.85-.75.8-.75 1.85 0 1.1.75 1.85l1.4.8-.9 1.15q-2.15 3.05-5.35 3.05-3.15 0-5.4-3.05-.95-1.25-1.45-2.6z" fill="none" stroke="#651985" stroke-linecap="round" stroke-linejoin="round" stroke-width=".5"/><path d="M49.25 61.45q3.5-1.25 5.45-4.5 2.85-4.95 1.55-11.1l-.95-3.25q-1.3-3.7-5.45-5.95.55-2.8-.9-5.25-.4 2.65-2.95 3.3-6.3-1.55-11.1 2.45-6.15 6.45-3.3 17.3l.3.55q.55 1.5 1.55 2.65 4.95 6.85 14.9 4.1l.9-.3z" fill="none" stroke="#651c87" stroke-linecap="round" stroke-linejoin="round" transform="translate(-2.3 -30.9)"/><path d="M4.25 58.35v-.1q.4-1.75 2.05-1.95 1.75 3.9 5.6 3.4 2.9-.5 4.45-2.25h.1q1.2 0 1.95-.8.8-.75.8-1.95 0-1.15-.8-1.95l-.1-.1v-2.7l-.1-1.65q2.55-.7 3.75 1.95h.45q.5 12.85-9.75 14.4-5.55.6-8.3-4.55l-.2-.3.1-1.45" fill="#ffde5b" fill-rule="evenodd" transform="translate(-2.3 -30.9)"/><path d="m8.05 50.05-.15-.2q-.6-.6-.6-1.45 0-.9.6-1.6.65-.55 1.55-.55.65 0 1.15.35l.3.2q.7.7.7 1.6 0 .85-.7 1.45-.6.7-1.45.7-.8 0-1.4-.5m6.55 2.7q.7-.75 1.85-.75 1.1 0 1.85.65l.1.1q.8.8.8 1.95 0 1.2-.8 1.95-.75.8-1.95.8h-.1q-1.05 0-1.85-.8-.75-.75-.75-1.95l.85-1.95" fill="#e6f4f7" fill-rule="evenodd" transform="translate(-2.3 -30.9)"/><path d="m10.6 46.6 1.65-.15q2.45.65 2.45 3.9l-.1 2.4h-.1q-.75.8-.75 1.95-.9 1.1-2.45 1.4-2.25.3-3.25-2.45-.45-1.85 0-3.6.6.5 1.4.5.85 0 1.45-.7.7-.6.7-1.45 0-.9-.7-1.6l-.3-.2" fill="#015f45" fill-rule="evenodd" transform="translate(-2.3 -30.9)"/><path d="m6.3 56.3-.4-.8q-.65-2.45-.25-4.8.2-1.25.75-2.5l.2-.6.4-.8.4-.55q2.25-3.7 6.35-3.05 3.8 1 4.45 5.1l.1 1.65v2.7q-.75-.65-1.85-.65-1.15 0-1.85.75l.1-2.4q0-3.25-2.45-3.9l-1.65.15q-.5-.35-1.15-.35-.9 0-1.55.55-.6.7-.6 1.6 0 .85.6 1.45l.15.2q-.45 1.75 0 3.6 1 2.75 3.25 2.45 1.55-.3 2.45-1.4 0 1.2.75 1.95.8.8 1.85.8-1.55 1.75-4.45 2.25-3.85.5-5.6-3.4m.3-8.7-.95 3.1.95-3.1" fill="#119878" fill-rule="evenodd" transform="translate(-2.3 -30.9)"/><path d="M3.5 58.25q-1.95-6.55 1.65-13.2.7-1.35 1.65-2.45l.4-.35q-1.3-1.85-.7-4.3h.7q.75 1.45 2.75 2.25 2.4-1.2 5.45-.7 7 1.75 7 10.25v.5h-.45q-1.2-2.65-3.75-1.95-.65-4.1-4.45-5.1-4.1-.65-6.35 3.05l-.4.55-.4.8-.2.6q-.55 1.25-.75 2.5-.4 2.35.25 4.8l.4.8q-1.65.2-2.05 1.95v.1l-.75-.1" fill="#f6f6f6" fill-rule="evenodd" transform="translate(-2.3 -30.9)"/><path d="M6.5 37.95q-.6 2.45.7 4.3l-.4.35q-.95 1.1-1.65 2.45-3.6 6.65-1.65 13.2l.65 1.55m18.25-9.55v-.5q0-8.5-7-10.25-3.05-.5-5.45.7-2-.8-2.75-2.25l-.5-.9-.2.9m15.9 12.3q.5 12.85-9.75 14.4-5.55.6-8.3-4.55" fill="none" stroke="#651985" stroke-linecap="round" stroke-linejoin="round" transform="translate(-2.3 -30.9)"/><path d="m4.35 60.1-.2-.3" fill="none" stroke="#015f45" stroke-linecap="round" stroke-linejoin="round" transform="translate(-2.3 -30.9)"/><path d="m4 25.4-.4-.8q-.65-2.45-.25-4.8.2-1.25.75-2.5l.2-.6.4-.8.4-.55q2.25-3.7 6.35-3.05 3.8 1 4.45 5.1l.1 1.65v2.7q-.75-.65-1.85-.65-1.15 0-1.85.75h-.1q-.75.8-.75 1.95 0 1.2.75 1.95.8.8 1.85.8h.1m-.1 0Q12.5 28.3 9.6 28.8q-3.85.5-5.6-3.4m-.65-5.6.95-3.1" fill="none" stroke="#651985" stroke-linecap="round" stroke-linejoin="round" stroke-width=".5"/></g><g id="o"><path d="M10.55 6.95q.75.8.75 1.95 0 1.05-.75 1.85-.9.8-1.95.8-1.2 0-2.05-.8-.8-.8-.8-1.85-.1-1.15.7-1.95.75-.9 2.05-.9 1.15 0 2.05.9" fill="#9610cf" fill-rule="evenodd" transform="translate(.75 .75)"/><path d="M10.55 6.95q-.9-.9-2.05-.9-1.3 0-2.05.9-.8.8-.7 1.95 0 1.05.8 1.85.85.8 2.05.8 1.05 0 1.95-.8.75-.8.75-1.85 0-1.15-.75-1.95m-5.1-3.5q.1-.2.3-.2 1.35-.7 3.05-.7 2.8-.1 4.65 1.95 1.95 1.95 1.95 4.6v.8l-.1.45-.35 1.2-.9 1.25-.6.6q-1.85 1.75-4.55 1.75-2.35 0-4.1-1.35l-.5-.4.3-.1q-2.05-3.9.65-9.55Q1.05 8.3 4 13.1q-1.65-1.55-1.65-4-.1-2.65 1.75-4.6l1.35-1.05" fill="#e4aefc" fill-rule="evenodd" transform="translate(.75 .75)"/><path d="m15.4 9.6 1.75.45q.7 1.7-.25 1.95l-1.95-.45.35-1.2.1-.45v-.3" fill="#b35fdb" fill-rule="evenodd" transform="translate(.75 .75)"/><path d="m4.3 13.4-.3-.3Q1.05 8.3 5.25 3.75 2.55 9.4 4.6 13.3l-.3.1" fill="#fffeff" fill-rule="evenodd" transform="translate(.75 .75)"/><path d="M5.75 3.25q-.2 0-.3.2L4.1 4.5Q2.25 6.45 2.35 9.1q0 2.45 1.65 4l.3.3.5.4q1.75 1.35 4.1 1.35 2.7 0 4.55-1.75l.6-.6.9-1.25 1.95.45q.95-.25.25-1.95L15.4 9.6v-.5q0-2.65-1.95-4.6Q11.6 2.45 8.8 2.55q-1.7 0-3.05.7M17.95 22q.1-4.4-2.15-7.55l-.5.5q-2.6 2.45-6.35 2.45-3.7 0-6.3-2.45Q0 12.6 0 9q-.1-3.6 2.35-6.25Q4.8 0 8.8 0q3.9-.05 6.5 2.65 2.25 2.25 2.65 5.3Q24 13.2 22.85 21.4q-1.2 4.1-4.9.6" fill="#d37211" fill-rule="evenodd" transform="translate(.75 .75)"/><path d="M6.5 4q1.35-.7 3.05-.7 2.8-.1 4.65 1.95 1.95 1.95 1.95 4.6v.5l1.75.45q.7 1.7-.25 1.95l-1.95-.45-.9 1.25-.6.6q-1.85 1.75-4.55 1.75-2.35 0-4.1-1.35l-.5-.4-.3-.3q-1.65-1.55-1.65-4Q3 7.2 4.85 5.25L6.2 4.2m9.95 6.15v.3l-.1.45-.35 1.2" fill="none" stroke="#b35fdb" stroke-linecap="round" stroke-linejoin="round" stroke-width=".5"/><path d="M18.7 22.75q.1-4.4-2.15-7.55l-.5.5q-2.6 2.45-6.35 2.45-3.7 0-6.3-2.45Q.75 13.35.75 9.75.65 6.15 3.1 3.5 5.55.75 9.55.75q3.9-.05 6.5 2.65 2.25 2.25 2.65 5.3 6.05 5.25 4.9 13.45" fill="none" stroke="#38024e" stroke-linecap="round" stroke-linejoin="round" stroke-width="1.5"/><path d="m19.45 12.75 1.35 2.6-1.35.6-1.55-2.15 1.55-1.05m.4 9.85v-1.75l1.65.1v1.65h-1.65m1.35-5.3.3 1.75-1.65.2-.3-1.75 1.65-.2" fill="#fddc51" fill-rule="evenodd" transform="translate(.75 .75)"/></g><g id="p"><path d="M5.75 15Q3.9 13.15 3.9 10.45q0-2.75 1.85-4.7l.45.1q-1.95 4.7.2 8.95l-.65.2" fill="#fff" fill-rule="evenodd" transform="translate(.5 .5)"/><path d="M6.4 5.15Q8 3.8 10.2 3.8q2.55 0 4.4 1.95Q15.8 7 16.25 8.5l.2 1.45v2.15l-.85 2.15-.6.75-.6.5-1.45.9q-1.25.65-2.75.65l-1.55-.2q-.95-.2-1.75-.75l-.95-.8.45-.5q-2.15-4.25-.2-8.95l.2-.7m3.75 2.25q-1.1 0-1.95.9-.8.75-.8 1.95 0 1.15.8 1.95.85.95 1.95.95l1.15-.3.8-.45.75-1.4v-.75q0-1.2-.75-1.95-.9-.9-1.95-.9" fill="#e4aefc" fill-rule="evenodd" transform="translate(.5 .5)"/><path d="M10.15 7.4q1.05 0 1.95.9.75.75.75 1.95V11l-.75 1.4-.8.45-1.15.3q-1.1 0-1.95-.95-.8-.8-.8-1.95 0-1.2.8-1.95.85-.9 1.95-.9" fill="#9610cf" fill-rule="evenodd" transform="translate(.5 .5)"/><path d="M16.2 29.35 16 27.1q-.4-4.2-1.8-7.2-1.95.95-4.25.95-4.1 0-7.05-3.1Q.65 15.5.2 12.5L0 10.45Q0 6.15 2.9 3l.9-.75Q6.4 0 9.95 0q2.8 0 5.05 1.45 1.1.6 1.95 1.55 2.95 3.15 2.95 7.45l-.1 2.6q3 7.5 3.2 14.05l-.1 2.25-1.55.1-.1-2.35q-.5-5.55-2.95-11.2.6-8.4-3.6-12.1L13.65 3q-1.95-1.05-4.9-.95h-.1q-2.7.55-4.85 2.9l-.1.1Q1.15 8.4 2.3 12.5q.3 1.15.9 2.3 2.05 3.8 6.95 4 3 .3 4.75-.75 2.15 2.7 2.35 9.05v2.25H16.2" fill="#3e0758" fill-rule="evenodd" transform="translate(.5 .5)"/><path d="m15.6 14.25.85-2.15V9.95l-.2-1.45Q15.8 7 14.6 5.75 12.75 3.8 10.2 3.8 8 3.8 6.4 5.15l-.65.6Q3.9 7.7 3.9 10.45q0 2.7 1.85 4.55l.2.3.95.8q.8.55 1.75.75l1.55.2q1.5 0 2.75-.65l1.45-.9 1 1.15q1.25.3 1.35-1.25l-1.15-1.15m7.3 15.1q-2.55 1.45-6.35.7l.7-.7V27.1q-.2-6.35-2.35-9.05-1.75 1.05-4.75.75-4.9-.2-6.95-4-.6-1.15-.9-2.3-1.15-4.1 1.4-7.45l.1-.1q2.15-2.35 4.85-2.9h.1q2.95-.1 4.9.95l1.05.8q4.2 3.7 3.6 12.1 2.45 5.65 2.95 11.2l.1 2.35 1.55-.1" fill="#e17431" fill-rule="evenodd" transform="translate(.5 .5)"/><path d="m15.6 14.25 1.15 1.15q-.1 1.55-1.35 1.25l-1-1.15.6-.5.6-.75" fill="#b763dc" fill-rule="evenodd" transform="translate(.5 .5)"/><path d="m6.9 5.65-.2.7" fill="none" stroke="#38024e" stroke-linecap="round" stroke-linejoin="round" stroke-width=".1"/><path d="m17.05 30.55-.35-.7" fill="none" stroke="#000" stroke-linecap="round" stroke-linejoin="round" stroke-width=".1"/><path d="M16.2 29.35 16 27.1q-.4-4.2-1.8-7.2-1.95.95-4.25.95-4.1 0-7.05-3.1Q.65 15.5.2 12.5L0 10.45Q0 6.15 2.9 3l.9-.75Q6.4 0 9.95 0q2.8 0 5.05 1.45 1.1.6 1.95 1.55 2.95 3.15 2.95 7.45l-.1 2.6q3 7.5 3.2 14.05l-.1 2.25" fill="none" stroke="#37014f" stroke-linecap="round" stroke-linejoin="round" transform="translate(.5 .5)"/><path d="M6.9 5.65Q8.5 4.3 10.7 4.3q2.55 0 4.4 1.95Q16.3 7.5 16.75 9l.2 1.45v2.15l-.85 2.15-.6.75-.6.5-1.45.9q-1.25.65-2.75.65l-1.55-.2q-.95-.2-1.75-.75l-.95-.8-.2-.3Q4.4 13.65 4.4 10.95q0-2.75 1.85-4.7l.65-.6z" fill="none" stroke="#b763dc" stroke-linecap="round" stroke-linejoin="round" stroke-width=".5"/><path d="m18.6 18.35.6 2.65q-1.3-.5-1.95.55l-.6-2.4q.7-1 1.95-.8m1 4 .45 2.55q-1.05-.5-1.95.6l-.4-2.55q.7-.9 1.9-.6m.95 4.1.2 2.95q-1.15-.7-2.15.25l-.2-2.9q1-.7 2.15-.3" fill="#fedf51" fill-rule="evenodd" transform="translate(.5 .5)"/></g><path d="M53.15 62.25H0V0h53.15v62.25" fill="url(#q)" fill-rule="evenodd" id="r"/><path d="M83.3 11.9q-14.25 2.05-34.5 2.05-20.2 0-34.55-2.05Q0 9.85 0 6.95q0-2.85 14.25-4.9Q28.6 0 48.8 0q20.25 0 34.5 2.05 14.3 2.05 14.3 4.9 0 2.9-14.3 4.95" fill-opacity=".349" fill-rule="evenodd" id="l"/><linearGradient gradientTransform="matrix(.0324 0 0 .038 26.55 31.1)" gradientUnits="userSpaceOnUse" id="q" spreadMethod="pad" x1="-819.2" x2="819.2"><stop offset=".008" stop-color="#ffc" stop-opacity="0"/><stop offset="1" stop-color="#9f0" stop-opacity="0"/></linearGradient><use ffdec:characterId="2" height="62.25" width="53.15" xlink:href="#r" id="d"/></defs></svg>