<svg xmlns:ffdec="https://www.free-decompiler.com/flash" xmlns:xlink="http://www.w3.org/1999/xlink" ffdec:objectType="frame" height="90" width="90" xmlns="http://www.w3.org/2000/svg"><use ffdec:characterId="1" height="9.8" transform="matrix(.8481 0 0 1.5978 24.815 66.67)" width="55.5" xlink:href="#a"/><use ffdec:characterId="10" height="71.7" transform="translate(21.146 66.536) scale(.3508)" width="158.45" xlink:href="#b"/><use ffdec:characterId="15" height="98.55" transform="matrix(.0399 -.317 -.5448 -.0405 79.905 48.674)" width="162.45" xlink:href="#c"/><use ffdec:characterId="17" height="135.9" transform="translate(48.272 20.764) scale(.3508)" width="119" xlink:href="#d"/><use ffdec:characterId="19" height="81.75" transform="translate(15.976 29.152) scale(.3508)" width="75.3" xlink:href="#e"/><use ffdec:characterId="21" height="84.4" transform="translate(35.894 41.921) scale(.3508)" width="107.15" xlink:href="#f"/><use ffdec:characterId="26" height="186.3" transform="translate(-5.578 7.95) scale(.3508)" width="150.5" xlink:href="#g"/><use ffdec:characterId="28" height="79.15" transform="translate(29.372 50.422) scale(.3508)" width="38.35" xlink:href="#h"/><use ffdec:characterId="30" height="88.95" transform="translate(38.322 50.772) scale(.3508)" width="77.95" xlink:href="#i"/><use ffdec:characterId="32" height="32.6" transform="translate(33.322 43.322) scale(.3508)" width="41.9" xlink:href="#j"/><use ffdec:characterId="34" height="49.1" transform="translate(18.022 43.022) scale(.3508)" width="51.4" xlink:href="#k"/><use ffdec:characterId="36" height="59.95" transform="translate(43.422 40.672) scale(.3508)" width="65.5" xlink:href="#l"/><use ffdec:characterId="38" height="45.05" transform="translate(34.022 40.572) scale(.3508)" width="32.9" xlink:href="#m"/><use ffdec:characterId="44" height="74.35" transform="translate(27.55 21.05) scale(.3508)" width="72.1" xlink:href="#n"/><use ffdec:characterId="15" height="98.55" transform="matrix(-.0679 -.207 -.3477 .134 88.572 48.62)" width="162.45" xlink:href="#c"/><use ffdec:characterId="46" height="26" transform="translate(54.422 50.014) scale(.3508)" width="30.25" xlink:href="#o"/><defs><use ffdec:characterId="2" height="25.55" width="53.2" xlink:href="#p" id="G"/><use ffdec:characterId="4" height="27.9" width="87.25" xlink:href="#q" id="I"/><use ffdec:characterId="6" height="14.65" width="39.15" xlink:href="#r" id="K"/><use ffdec:characterId="8" height="53.05" width="88.15" xlink:href="#s" id="M"/><use ffdec:characterId="11" height="84.55" transform="translate(2.5 14)" width="152.65" xlink:href="#t" id="c"/><use ffdec:characterId="16" height="135.9" width="119" xlink:href="#u" id="d"/><use ffdec:characterId="18" height="81.75" width="75.3" xlink:href="#v" id="e"/><use ffdec:characterId="20" height="84.4" width="107.15" xlink:href="#w" id="f"/><use ffdec:characterId="27" height="79.15" width="38.35" xlink:href="#x" id="h"/><use ffdec:characterId="29" height="88.95" width="77.95" xlink:href="#y" id="i"/><use ffdec:characterId="31" height="32.6" width="41.9" xlink:href="#z" id="j"/><use ffdec:characterId="33" height="49.1" width="51.4" xlink:href="#A" id="k"/><use ffdec:characterId="35" height="59.95" width="65.5" xlink:href="#B" id="l"/><use ffdec:characterId="37" height="45.05" width="32.9" xlink:href="#C" id="m"/><use ffdec:characterId="39" height="74.35" width="72.1" xlink:href="#D" id="n"/><use ffdec:characterId="45" height="26" width="30.25" xlink:href="#E" id="o"/><g id="b" transform="translate(2.15 8.45)"><filter id="F"><feColorMatrix in="SourceGraphic" result="filterResult0" values="0 0 0 0 0.43529412,0 0 0 0 0.9019608,0 0 0 0 0.8392157,0 0 0 1 0"/><feConvolveMatrix divisor="121" in="filterResult0" kernelMatrix="1 1 1 1 1 1 1 1 1 1 1 1 1 1 1 1 1 1 1 1 1 1 1 1 1 1 1 1 1 1 1 1 1 1 1 1 1 1 1 1 1 1 1 1 1 1 1 1 1 1 1 1 1 1 1 1 1 1 1 1 1 1 1 1 1 1 1 1 1 1 1 1 1 1 1 1 1 1 1 1 1 1 1 1 1 1 1 1 1 1 1 1 1 1 1 1 1 1 1 1 1 1 1 1 1 1 1 1 1 1 1 1 1 1 1 1 1 1 1 1 1" order="11 11" result="filterResult1"/><feComposite in="SourceGraphic" in2="filterResult1" result="filterResult2"/></filter><use ffdec:characterId="3" filter="url(#F)" height="25.55" transform="translate(0 28.15)" width="53.2" xlink:href="#G"/><filter id="H"><feColorMatrix in="SourceGraphic" result="filterResult3" values="0 0 0 0 0.43529412,0 0 0 0 0.9019608,0 0 0 0 0.8392157,0 0 0 1 0"/><feConvolveMatrix divisor="121" in="filterResult3" kernelMatrix="1 1 1 1 1 1 1 1 1 1 1 1 1 1 1 1 1 1 1 1 1 1 1 1 1 1 1 1 1 1 1 1 1 1 1 1 1 1 1 1 1 1 1 1 1 1 1 1 1 1 1 1 1 1 1 1 1 1 1 1 1 1 1 1 1 1 1 1 1 1 1 1 1 1 1 1 1 1 1 1 1 1 1 1 1 1 1 1 1 1 1 1 1 1 1 1 1 1 1 1 1 1 1 1 1 1 1 1 1 1 1 1 1 1 1 1 1 1 1 1 1" order="11 11" result="filterResult4"/><feComposite in="SourceGraphic" in2="filterResult4" result="filterResult5"/></filter><use ffdec:characterId="5" filter="url(#H)" height="27.9" transform="translate(23 8.6)" width="87.25" xlink:href="#I"/><filter id="J"><feColorMatrix in="SourceGraphic" result="filterResult6" values="0 0 0 0 0.43529412,0 0 0 0 0.9019608,0 0 0 0 0.8392157,0 0 0 1 0"/><feConvolveMatrix divisor="121" in="filterResult6" kernelMatrix="1 1 1 1 1 1 1 1 1 1 1 1 1 1 1 1 1 1 1 1 1 1 1 1 1 1 1 1 1 1 1 1 1 1 1 1 1 1 1 1 1 1 1 1 1 1 1 1 1 1 1 1 1 1 1 1 1 1 1 1 1 1 1 1 1 1 1 1 1 1 1 1 1 1 1 1 1 1 1 1 1 1 1 1 1 1 1 1 1 1 1 1 1 1 1 1 1 1 1 1 1 1 1 1 1 1 1 1 1 1 1 1 1 1 1 1 1 1 1 1 1" order="11 11" result="filterResult7"/><feComposite in="SourceGraphic" in2="filterResult7" result="filterResult8"/></filter><use ffdec:characterId="7" filter="url(#J)" height="14.65" transform="translate(60.85 1.85)" width="39.15" xlink:href="#K"/><filter id="L"><feColorMatrix in="SourceGraphic" result="filterResult9" values="0 0 0 0 0.43529412,0 0 0 0 0.9019608,0 0 0 0 0.8392157,0 0 0 1 0"/><feConvolveMatrix divisor="121" in="filterResult9" kernelMatrix="1 1 1 1 1 1 1 1 1 1 1 1 1 1 1 1 1 1 1 1 1 1 1 1 1 1 1 1 1 1 1 1 1 1 1 1 1 1 1 1 1 1 1 1 1 1 1 1 1 1 1 1 1 1 1 1 1 1 1 1 1 1 1 1 1 1 1 1 1 1 1 1 1 1 1 1 1 1 1 1 1 1 1 1 1 1 1 1 1 1 1 1 1 1 1 1 1 1 1 1 1 1 1 1 1 1 1 1 1 1 1 1 1 1 1 1 1 1 1 1 1" order="11 11" result="filterResult10"/><feComposite in="SourceGraphic" in2="filterResult10" result="filterResult11"/></filter><use ffdec:characterId="9" filter="url(#L)" height="53.05" transform="translate(68.15)" width="88.15" xlink:href="#M"/></g><g id="t"><path d="M-2.5-7.8q.3.25.7.25l.7.2.65.15.6.25.6.2q.5 0 1.2.55l.6.65Q2.55-3.9-3.2-.1l.05.15.15.1 1.35.3L-.6.6l11.65-7.85L14.6-9.6l1.45-.95q1.35-1.05 1.35-1.6l.25-.95.25-1q0-.35.3-.75l.3-.8.6-1.1q.7-.95 1.3-.95.1 0 3.2-1.35 3.45-1.35 5.2-1.35l5.2.5 2.5.4 1.25.7.45.25-4.4.45h-.1l-2.6.85q-6.05 2.4-9.05 9.4Q19.1-2.3 11.55-1.9 7.8-.25 7.7 3.65q5.7-2.1 13.95-1.4Q25.8.2 26.95 0l.45-.05-1.75 1.9L24 4.5q-1.1 1.95-5.6 3.3l-3.55.85-1.25-.35Q7.2 6.8 2.4 12 .1 14.55-.5 17.85L-1.75 17q-2.2-1.4-5-1.4-5.65 4.7-11 9.9-1 1-2.65 1.35-9.15.9-12.65-6.15-1.5-3.05-3.8-5.7l-1.55-1.35q-6.8 1.85-13.6 2.9-1.35.25-2.1-1.3l-.5-1.3q3.35-3.7.65-6.55l-1-.95q-2.95-2.7-3.25-5.8l.35-.6.65-1.55 5.2-2.3q3.7-1.75 5.15-1.75l4.7.7 3.45.65 1.85.6 2.05.6q3.15.8 3.15 2l-.2.75q0 .7.95.7l.8.2.75.15q.4 0 .85-.35.5-.4.85-.4.55 0 2.15-1.8 1.6-1.8 1.6-2.6l.05-.55.15-.1q1.45 1.35 2.85 1.35.45 0 2.1-2.25 1.65-2.2 1.65-2.7l.3-.8q.3-.4.3-.8 0-1.9 3.45-4.7 3.85-3.25 7.95-3.25l.55.1.2 1.35q-3.95-1.6-6.3.5-2.05 1.75-1.65 4.85l.2 1.15q3.15 5.95 8.6 3l1-.6M20.35 2.65l1-.25.45-.15h-.15.15l-.45.15-1 .25m1-.25.3-.15-.3.15m42.3-28.7 5.7-1.4q5.55-1.55 9.1-3.4.9-.45 5.1-4.2l1.05-.5-.45 1.7q-1.25 2.55-3.3 4.45-4.3 4.3-12 5.6l-15 .2q5.35-.55 9.8-2.45M34.5 1.7 36 .85l.1-.05-.1.05V.8h.1l1.05-.05-2.65.95" fill="#cd6cff" fill-rule="evenodd" transform="translate(67.35 44.9)"/><path d="m36.5-19.5-2.5-.4-5.2-.5q-1.75 0-5.2 1.35-3.1 1.35-3.2 1.35-.6 0-1.3.95l-.6 1.1-.3.8q-.3.4-.3.75l-.25 1-.25.95q0 .55-1.35 1.6l-1.45.95-3.55 2.35L-.6.6-1.65.45-3 .15l-.15-.1-.05-.15q5.75-3.8 5.75-5.45l-.6-.65q-.7-.55-1.2-.55l-.6-.2-.6-.25-.65-.15-.7-.2q-.4 0-.7-.25 3.6-1.95 7.3-1.45l5.55.35.25-.1q5.15-2.15 2.9-4.3l-4.35-3Q19.75-26.55 33.3-21l3.2 1.5m-41.05 1.45-.55-.1q-4.1 0-7.95 3.25-3.45 2.8-3.45 4.7 0 .4-.3.8l-.3.8q0 .5-1.65 2.7-1.65 2.25-2.1 2.25-1.4 0-2.85-1.35l-.15.1-.05.55q0 .8-1.6 2.6t-2.15 1.8q-.35 0-.85.4-.45.35-.85.35l-.75-.15-.8-.2q-.95 0-.95-.7l.2-.75q0-1.2-3.15-2l-2.05-.6-1.85-.6-3.45-.65-4.7-.7q-1.45 0-5.15 1.75l-5.2 2.3q.8-1.85 2-3.4 6.35-7.45 18.85-2.8l.65.25q6.45 2 11.35-4.35l.2-.25q2.15-3.25 4.7-5.45 4.3-3.65 9.75-4.45 4.25-.5 5.15 3.9m15.5 10.5.1.3-.1-.3m72.6-27.75q-4.2 3.75-5.1 4.2-3.55 1.85-9.1 3.4l-5.7 1.4.15-.1q3.15-1.6 1.75-3.55l-3.3-2.35 10.75.7q2.8-.3 5.55-1.25l5-2.45m-85.4-4.25.25-.15q10.45-.75 18.4-4.35Q9.1-35.8-1.6-32.4q4.35-6-3.1-6.1l-.1-.25q1.35-.85 2.95-.8" fill="#f9d1ff" fill-rule="evenodd" transform="translate(67.35 44.9)"/><path d="M-58.2.65q.3 3.1 3.25 5.8l1 .95q2.7 2.85-.65 6.55l.5 1.3q.75 1.55 2.1 1.3 6.8-1.05 13.6-2.9l1.55 1.35q2.3 2.65 3.8 5.7 3.5 7.05 12.65 6.15 1.65-.35 2.65-1.35 5.35-5.2 11-9.9 2.8 0 5 1.4l1.25.85q.6-3.3 2.9-5.85 4.8-5.2 11.2-3.7l1.25.35 3.55-.85q4.5-1.35 5.6-3.3l1.65-2.65 1.75-1.9q6.5-1.1 8.6.85v.05l-1.5.85-5.8 3.8q-6.1 4.4-7.95 8.2-4.25 7.95-10.6 11.2 6.15-6.35 3.35-10.5-4.8-2.65-6.85 2.6-2.05 4.05-7 3.4-3 3.2-.05 6.55v.35q1.55 4.35-7.2 8.4-17.9 9.25-29.25-7.55l-.3-.25q-4.2-4.1-8.25-4.45-.95 5.45-7.55 1.9-12.65-1.05-13.3-9.1-1.8-8.95 3.3-11.35 3-1.65 4.75-4.25M36.1.8H36l.3-.15-.2.15" fill="#7b23e7" fill-rule="evenodd" transform="translate(67.35 44.9)"/><path d="m-2.5-7.8-1 .6q-5.45 2.95-8.6-3l-.2-1.15q-.4-3.1 1.65-4.85 2.35-2.1 6.3-.5l-.2-1.35q-.9-4.4-5.15-3.9-5.45.8-9.75 4.45-2.55 2.2-4.7 5.45l-.2.25q-4.9 6.35-11.35 4.35l-.65-.25q-12.5-4.65-18.85 2.8-1.2 1.55-2 3.4l-.65 1.55-.35.6q-1.75 2.6-4.75 4.25-5.1 2.4-3.3 11.35.65 8.05 13.3 9.1 6.6 3.55 7.55-1.9 4.05.35 8.25 4.45l.3.25Q-25.5 44.95-7.6 35.7q8.75-4.05 7.2-8.4v-.35q-2.95-3.35.05-6.55 4.95.65 7-3.4 2.05-5.25 6.85-2.6 2.8 4.15-3.35 10.5 6.35-3.25 10.6-11.2 1.85-3.8 7.95-8.2l5.8-3.8L36 .85l.1-.05H36q-2.1-1.95-8.6-.85l-.45.05q-1.15.2-5.3 2.25h.15l-.45.15-1 .25M-2.5-7.8q3.6-1.95 7.3-1.45l5.55.35.25-.1q5.15-2.15 2.9-4.3l-4.35-3Q19.75-26.55 33.3-21l3.2 1.5 1.25.7.45.25-4.4.45h-.1l-2.6.85q-6.05 2.4-9.05 9.4Q19.1-2.3 11.55-1.9 7.8-.25 7.7 3.65q5.7-2.1 13.95-1.4l-.3.15m62.2-37.7-5 2.45Q75.8-31.9 73-31.6l-10.75-.7 3.3 2.35q1.4 1.95-1.75 3.55l-.15.1q-4.45 1.9-9.8 2.45l15-.2q7.7-1.3 12-5.6 2.05-1.9 3.3-4.45l.45-1.7-1.05.5M36.3.65l-.2.15M-1.85-39.55l.25-.15q10.45-.75 18.4-4.35Q9.1-35.8-1.6-32.4q4.35-6-3.1-6.1l-.1-.25q1.35-.85 2.95-.8z" fill="none" stroke="#6425a6" stroke-linecap="square" stroke-linejoin="miter-clip" stroke-miterlimit="3" transform="translate(67.35 44.9)"/><path d="M65.55-11.5q2.05.5 4.75-.65-3.15 2.9-7.2 4.6l-.1-.2q3.1-1.8 2.3-3.7l.25-.05" fill="#7b23e7" fill-rule="evenodd" transform="translate(67.35 44.9)"/><path d="m65.55-11.5-.25.05q.8 1.9-2.3 3.7l.1.2q4.05-1.7 7.2-4.6-2.7 1.15-4.75.65z" fill="none" stroke="#6425a6" stroke-linecap="square" stroke-linejoin="miter-clip" stroke-miterlimit="3" transform="translate(67.35 44.9)"/></g><g id="u"><path d="M80.05 46.65 79 43.15q-3.75-13.2-5.65-13.2l-2.2.4v-.4q1-1.4 2.8-7.25l.3-.9q1.7-5.85 1.7-8.95V12q1.65 2.7 2.2 5.85l.2 2.9L78.1 24l-.3 1.65-.65 2.85.2 1.25 2.7 16.9" fill="#9961a1" fill-rule="evenodd" transform="translate(.65 1.1)"/><path d="M75.95 12v.85q0 3.1-1.7 8.95l-.3.9q-1.8 5.85-2.8 7.25v.4l2.2-.4q1.9 0 5.65 13.2l1.05 3.5 8.15 51.2 5.75 36.3q-3.4-17.9-7.45-34.15l-4.8-26.7Q79 58.8 76.65 49.6q-4.1-16.25-7-16.25-2.35 0-3.55 3.8l-.25.85-1.5-3.45h-3.8l-4.4 18.6-21.75 3.8-19.65 3.4L4.6 71.2l10.15-10.85 19.65-3.4-.05.8q0 2.35 1.85 4.35l2.85 2.55q-2.3 1.45-5.1 5.3l-.4.55q-13.05-.65-28.95.7-5.8 1-4.3-4.55l3.5-4.95q4.7-6.45 7.1-9.35h.2q.35 2.3 1.45 3.4 1.2 1.2 3.6 1.2l19.2-2.3 8.8-1.1Q55.3 52 56.45 39.85l.1-2.9q0-5.8-5.95-5.05l-.4.05.8-5.6q6.45.95 10-1.2 1.25-.75 2.15-1.9 1.3-1.7 1.6-3.75.45-3.25-1.6-7.35l-.7-.4q1.9.1 4.4 3.6 2.6 3.6 4 3.6H71q.75-.2 1.75-2 1.2-2.15 1.2-4.2L73.6 9l1.35 1.55 1 1.45m1.4 17.75-.2-1.25.65-2.85.3-1.65.25-3.25-.2-2.9L98.3 36.7l-6.55-4.2-4.7-3q-3.5-2.15-5.3-2.15-.4 0-.6.6l-.2 1.2q0 1.45.5 2.8l.2.5-4.3-2.7" fill="#240842" fill-rule="evenodd" transform="translate(.65 1.1)"/><path d="M68.35 5.85q1.6 3.05 1.6 4.1 0 1.4-.8 2.6-.65 1-1.1 1h-.15q-.9-.2-3.1-2.2-2.1-1.9-3.8-2.15l-.55-.05q-.4 0-1.6.55L56.2 8.25l2.3-1.6q2.45-1.3 6.05-1.3h.15l2.65.25 1 .25M49.2 38.35l.4-.45q1.6-1.75 2.25-1.75 1.15 0 1.7 1.6l.2 1.35-.25 4.85q-.5 5-12 8-11.5 2.95-19.2 3.4-7.75.4-7.75-2.9l.25-.65 33.15-5.05 1.25-8.4M81.05 80.2Q76.1 63.55 70.4 48.9l-2.65-6.5q.8-3.05 2.1-3.05 3.1 0 6 10.5 1.75 6.45 3.4 16.9l1.8 13.45M105 46.85 83.85 33.8l-1.7-4.25.1-.15 8.55 5.95 1.45 1Q98.3 40.9 105 46.85" fill="#7e46c3" fill-rule="evenodd" transform="translate(.65 1.1)"/><path d="m73.6 9 .35 3.75q0 2.05-1.2 4.2-1 1.8-1.75 2h-.15q-1.4 0-4-3.6-2.5-3.5-4.4-3.6l-.05-.05-3.55-2q1.2-.55 1.6-.55l.55.05q1.7.25 3.8 2.15 2.2 2 3.1 2.2h.15q.45 0 1.1-1 .8-1.2.8-2.6 0-1.05-1.6-4.1 3 .85 5.25 3.15M50.2 31.95l.4-.05q5.95-.75 5.95 5.05l-.1 2.9Q55.3 52 44.15 53.55l-8.8 1.1-19.2 2.3q-2.4 0-3.6-1.2-1.1-1.1-1.45-3.4l3.7-.55-.25.65q0 3.3 7.75 2.9 7.7-.45 19.2-3.4 11.5-3 12-8l.25-4.85-.2-1.35q-.55-1.6-1.7-1.6-.65 0-2.25 1.75l-.4.45.35-2.25.05-.2.6-3.95M65.85 38l.25-.85q1.2-3.8 3.55-3.8 2.9 0 7 16.25Q79 58.8 81.7 73.3l4.8 26.7-3-11.25-2.45-8.55-1.8-13.45q-1.65-10.45-3.4-16.9-2.9-10.5-6-10.5-1.3 0-2.1 3.05l-1.9-4.4m15.8-5.55-.2-.5q-.5-1.35-.5-2.8l.2-1.2q.2-.6.6-.6 1.8 0 5.3 2.15l4.7 3 6.55 4.2 18.85 17.65-12.15-7.5q-6.7-5.95-12.75-10.5l-1.45-1-8.55-5.95-.1-.05v.2l1.7 4.25-2.2-1.35" fill="#3f227b" fill-rule="evenodd" transform="translate(.65 1.1)"/><path d="M61 25.15q-3.55 2.15-10 1.2L41.65 0l2.15 1.2L61 25.15" fill="#fff" fill-rule="evenodd" transform="translate(.65 1.1)"/><path d="m62.45 11.75.7.4q2.05 4.1 1.6 7.35L45.05 1.95l11.15 6.3 2.65 1.45 3.55 2-.05.05h.1" fill="#a6a8d8" fill-rule="evenodd" transform="translate(.65 1.1)"/><path d="M64.75 19.5q-.3 2.05-1.6 3.75-.9 1.15-2.15 1.9L43.8 1.2l1.25.75 19.7 17.55" fill="#7c7e9f" fill-rule="evenodd" transform="translate(.65 1.1)"/><path d="m80.05 46.65-2.7-16.9 4.3 2.7 2.2 1.35L105 46.85l12.15 7.5-6.85-2.65-9.7-3.6q-2.65-2.4-5.95-4.4l-7.2-3.35q-1.55 0-2.1 5-.4 3.55-.4 12 0 2.2 1.95 25.3l1.3 15.2-8.15-51.2M34.4 56.95l21.75-3.8 4.4-18.6h3.8l1.5 3.45 1.9 4.4 2.65 6.5q5.7 14.65 10.65 31.3l2.45 8.55-1.65-1.7-2.6-2.35q-1.7-8-4.75-15.9-5.5-14.25-9.55-14.25-1.6 0-3 1.35l-2.5 2.9q-3.65 4.2-9.3 3.95-3.65-.15-5.3 0-3.3.3-5.7 1.8l-.1.1-2.85-2.55q-1.85-2-1.85-4.35l.05-.8" fill="#571570" fill-rule="evenodd" transform="translate(.65 1.1)"/><path d="m93.95 134.15-5.75-36.3-1.3-15.2q-1.95-23.1-1.95-25.3 0-8.45.4-12 .55-5 2.1-5l7.2 3.35q3.3 2 5.95 4.4-8.75-3.05-9.25-2.45 10.35 53.65 2.6 88.5M33.55 70.5l.4-.55q2.8-3.85 5.1-5.3l.1-.1q2.4-1.5 5.7-1.8 1.65-.15 5.3 0 5.65.25 9.3-3.95l2.5-2.9q1.4-1.35 3-1.35 4.05 0 9.55 14.25 3.05 7.9 4.75 15.9-15.2-12.65-45.7-14.2" fill="url(#N)" fill-rule="evenodd" transform="translate(.65 1.1)"/><path d="m80.05 46.65-2.7-16.9-.2-1.25.65-2.85.3-1.65.25-3.25-.2-2.9q-.55-3.15-2.2-5.85l-1-1.45L73.6 9q-2.25-2.3-5.25-3.15l-1-.25-2.65-.25h-.15q-3.6 0-6.05 1.3l-2.3 1.6M51 26.35l-.8 5.6-.6 3.95M11.1 52.35h-.2q-2.4 2.9-7.1 9.35L.3 66.65q-1.5 5.55 4.3 4.55l10.15-10.85 19.65-3.4 21.75-3.8 4.4-18.6h3.8l1.5 3.45 1.9 4.4 2.65 6.5q5.7 14.65 10.65 31.3l2.45 8.55 3 11.25q4.05 16.25 7.45 34.15l-5.75-36.3-8.15-51.2M98.3 36.7 78.15 17.85M49.2 38.35l.35-2.25M14.8 51.8l-3.7.55m3.7-.55 33.15-5.05 1.25-8.4m67.95 16L105 46.85 83.85 33.8l-2.2-1.35-4.3-2.7M98.3 36.7l18.85 17.65" fill="none" stroke="#1c0435" stroke-linecap="square" stroke-linejoin="miter-clip" stroke-miterlimit="3" transform="translate(.65 1.1)"/><path d="m62.45 11.75.7.4q2.05 4.1 1.6 7.35-.3 2.05-1.6 3.75-.9 1.15-2.15 1.9-3.55 2.15-10 1.2L41.65 0l2.15 1.2 1.25.75 11.15 6.3 2.65 1.45 3.55 2 .05.05" fill="none" stroke="#434472" stroke-linecap="square" stroke-linejoin="miter-clip" stroke-miterlimit="3" transform="translate(.65 1.1)"/><path d="m50.2 37.2.05-.2" fill="none" stroke="red" stroke-linecap="square" stroke-linejoin="miter-clip" stroke-miterlimit="3" stroke-width=".05"/><path d="m79.25 84.7 2.6 2.35 1.65 1.7M33.55 70.5q-13.05-.65-28.95.7m96-23.1 9.7 3.6 6.85 2.65m-23.2 79.8q7.75-34.85-2.6-88.5.5-.6 9.25 2.45M79.25 84.7q-15.2-12.65-45.7-14.2" fill="none" stroke="#5e3074" stroke-linecap="square" stroke-linejoin="miter-clip" stroke-miterlimit="3" transform="translate(.65 1.1)"/></g><g id="v"><path d="m24.7 25.15 1.05-2.05q4-8 5.2-7.8.65.15 1.35.55l.05-.25q-.4-1.05-.85-5l-.1-.6q-.4-3.95 0-5.95l.1-.55Q30.1 5.05 29.4 7l-.5 1.8q-.2 1.05-.25 2.15v1.1l.1 1.85-.3.8-3.75 10.45" fill="#9961a1" fill-rule="evenodd" transform="translate(1.35 .85)"/><path d="m31.5 3.5-.1.55q-.4 2 0 5.95l.1.6q.45 3.95.85 5l-.05.25q-.7-.4-1.35-.55-1.2-.2-5.2 7.8l-1.05 2.05-11.45 31.8L5.2 79.5q4.35-11.05 8.9-20.95L20.35 42q3.5-8.9 6.15-14.55 4.55-9.9 6.45-9.55 1.5.3 1.8 2.9l.05.6 1.35-2.05 2.45.45.55 12.45L52.6 37.3l12.2 4.55L70 50l-5.2-8.15-12.2-4.55-.05.5q-.3 1.5-1.7 2.55l-2.15 1.3q1.3 1.2 2.65 4l.15.4Q59.95 47.2 70 50q3.55 1.35 3.3-2.4l-1.7-3.55-3.4-6.9h-.15q-.45 1.45-1.3 2-.9.65-2.45.35l-12-3.8-5.5-1.75q-6.95-2.35-6.25-10.3l.3-1.85q.7-3.7 4.45-2.5l.2.05.2-3.65q-4.2-.15-6.25-2l-1.15-1.45q-.6-1.25-.55-2.6.05-2.1 1.9-4.5l.5-.15q-1.25-.2-3.25 1.75-2.1 2-3 1.8h-.1q-.45-.2-.85-1.45-.5-1.55-.25-2.85l.65-2.35q-.55.35-1.05.85-.45.35-.8.75m-3.05 11.2.3-.8-.1-1.85v-1.1q.05-1.1.25-2.15l.5-1.8-15.2 9.6 4.7-1.9 3.35-1.35q2.55-.9 3.7-.7.25.05.25.45v.8q-.15.9-.65 1.7l-.2.3 3.1-1.2" fill="#240842" fill-rule="evenodd" transform="translate(1.35 .85)"/><path d="m44.6 3.5-1.3-1.3Q41.9 1.05 39.6.65L39.5.6 37.75.45l-.65.1q-1.4 1.75-1.5 2.4-.2.9.15 1.75l.6.75.1.05q.55-.05 2.25-1.05 1.55-.95 2.65-.95l.4.1.95.5 1.9-.6m.8 20.1-.2-.3q-.8-1.35-1.25-1.45-.7-.1-1.3.85l-.25.85-.45 3.1q-.25 3.3 6.75 6.55 7 3.3 11.85 4.55 4.9 1.2 5.3-.9l-.1-.5-20.55-7.2.2-5.55M20 46.55Q25.15 36.5 30.55 27.8l2.5-3.85q-.1-2.05-.95-2.2-2-.4-5.15 5.95-1.85 3.95-4.2 10.45L20 46.55M8.65 22.3l15.15-5.8 1.6-2.5-.05-.1-6.2 2.75-1.05.5q-4.4 2.15-9.45 5.15" fill="#7e46c3" fill-rule="evenodd" transform="translate(1.35 .85)"/><path d="m33.35 1.9-.65 2.35q-.25 1.3.25 2.85.4 1.25.85 1.45h.1q.9.2 3-1.8 2-1.95 3.25-1.75v-.05l2.55-.85-.95-.5-.4-.1q-1.1 0-2.65.95-1.7 1-2.25 1.05l-.1-.05-.6-.75q-.35-.85-.15-1.75.1-.65 1.5-2.4-2.05.1-3.75 1.35M45.5 19.35l-.2-.05q-3.75-1.2-4.45 2.5l-.3 1.85q-.7 7.95 6.25 10.3l5.5 1.75 12 3.8q1.55.3 2.45-.35.85-.55 1.3-2l-2.3-.8.1.5q-.4 2.1-5.3.9Q55.7 36.5 48.7 33.2q-7-3.25-6.75-6.55l.45-3.1.25-.85q.6-.95 1.3-.85.45.1 1.25 1.45l.2.3.05-1.5V22l.05-2.65M34.8 21.4l-.05-.6q-.3-2.6-1.8-2.9-1.9-.35-6.45 9.55Q23.85 33.1 20.35 42L14.1 58.55l3.25-6.85L20 46.55l2.75-8.4q2.35-6.5 4.2-10.45 3.15-6.35 5.15-5.95.85.15.95 2.2l1.75-2.55m-9.45-5.5.2-.3q.5-.8.65-1.7v-.8q0-.4-.25-.45-1.15-.2-3.7.7L18.9 14.7l-4.7 1.9L0 25.65l8.65-3.35q5.05-3 9.45-5.15l1.05-.5 6.2-2.75.1-.05-.05.15-1.6 2.5 1.55-.6" fill="#3f227b" fill-rule="evenodd" transform="translate(1.35 .85)"/><path d="M39.45 13.7q2.05 1.85 6.25 2L54.9 0l-1.55.5-13.9 13.2" fill="#fff" fill-rule="evenodd" transform="translate(1.35 .85)"/><path d="m40.15 5-.5.15q-1.85 2.4-1.9 4.5l14.7-8.8L44.6 3.5l-1.9.6-2.55.85.05.05h-.05" fill="#a6a8d8" fill-rule="evenodd" transform="translate(1.35 .85)"/><path d="M37.75 9.65q-.05 1.35.55 2.6l1.15 1.45L53.35.5l-.9.35-14.7 8.8" fill="#7c7e9f" fill-rule="evenodd" transform="translate(1.35 .85)"/><path d="m24.7 25.15 3.75-10.45-3.1 1.2-1.55.6-15.15 5.8L0 25.65l4.75-.9 6.6-1.1q2-1.25 4.35-2.1l5-1.3q1 .2.75 3.45l-1.2 7.7-4.3 16-2.7 9.55 11.45-31.8M52.6 37.3l-13.45-5.05-.55-12.45-2.45-.45-1.35 2.05-1.75 2.55-2.5 3.85Q25.15 36.5 20 46.55l-2.65 5.15 1.25-.9 2-1.2q2-4.9 4.95-9.55 5.25-8.5 7.85-8 1 .2 1.75 1.25l1.2 2.15q1.85 3.15 5.5 3.65l3.4.6q2.05.6 3.45 1.85v.1l2.15-1.3q1.4-1.05 1.7-2.55l.05-.5" fill="#571570" fill-rule="evenodd" transform="translate(1.35 .85)"/><path d="m5.2 79.5 8.05-22.55 2.7-9.55 4.3-16 1.2-7.7q.25-3.25-.75-3.45l-5 1.3q-2.35.85-4.35 2.1l6.2-.45Q4.5 56.25 5.2 79.5m43.5-37.85v-.1q-1.4-1.25-3.45-1.85l-3.4-.6q-3.65-.5-5.5-3.65l-1.2-2.15q-.75-1.05-1.75-1.25-2.6-.5-7.85 8-2.95 4.65-4.95 9.55 11.2-6.25 30.9-3.55l-.15-.4q-1.35-2.8-2.65-4" fill="url(#O)" fill-rule="evenodd" transform="translate(1.35 .85)"/><path d="m24.7 25.15 3.75-10.45.3-.8-.1-1.85v-1.1q.05-1.1.25-2.15l.5-1.8q.7-1.95 2.1-3.5.35-.4.8-.75.5-.5 1.05-.85Q35.05.65 37.1.55l.65-.1L39.5.6l.1.05q2.3.4 3.7 1.55l1.3 1.3m1.1 12.2-.2 3.65-.05 2.65m22.6 15.15h.15l3.4 6.9 1.7 3.55q.25 3.75-3.3 2.4l-5.2-8.15-12.2-4.55-13.45-5.05-.55-12.45-2.45-.45-1.35 2.05-1.75 2.55-2.5 3.85Q25.15 36.5 20 46.55l-2.65 5.15-3.25 6.85q-4.55 9.9-8.9 20.95l8.05-22.55 11.45-31.8M14.2 16.6 29.4 7m36.35 29.35 2.3.8M45.4 23.6l.05-1.5m20.3 14.25-20.55-7.2.2-5.55M0 25.65l8.65-3.35 15.15-5.8 1.55-.6 3.1-1.2M14.2 16.6 0 25.65" fill="none" stroke="#1c0435" stroke-linecap="square" stroke-linejoin="miter-clip" stroke-miterlimit="3" transform="translate(1.35 .85)"/><path d="m40.15 5-.5.15q-1.85 2.4-1.9 4.5-.05 1.35.55 2.6l1.15 1.45q2.05 1.85 6.25 2L54.9 0l-1.55.5-.9.35L44.6 3.5l-1.9.6-2.55.85V5" fill="none" stroke="#434472" stroke-linecap="square" stroke-linejoin="miter-clip" stroke-miterlimit="3" transform="translate(1.35 .85)"/><path d="M46.8 22.95v-.1" fill="none" stroke="red" stroke-linecap="square" stroke-linejoin="miter-clip" stroke-miterlimit="3" stroke-width=".05"/><path d="m20.6 49.6-2 1.2-1.25.9m34.15-5.65Q59.95 47.2 70 50M11.35 23.65l-6.6 1.1-4.75.9M5.2 79.5q-.7-23.25 12.35-56.3l-6.2.45M20.6 49.6q11.2-6.25 30.9-3.55" fill="none" stroke="#5e3074" stroke-linecap="square" stroke-linejoin="miter-clip" stroke-miterlimit="3" transform="translate(1.35 .85)"/></g><g id="w"><path d="M10.9 55.4Q8.05 50.5 6 45.25-1.8 25.5.55 0 3.7 1.9 11.1 5.2q10.55 4.8 16.15 5.45l.1.15 12 13.6q11.9 26 25.6 38.6l-2.05.05q-2 0-8.65-3.3t-9.85-3.3q-2.3 0-3.65 2.1l-.7 1.5q-.45 1.3-.35 2.8l-9.05-6.7q-5.75-3.9-12.05-3.9-4.25 0-6.6 1.95l-1.1 1.2" fill="#541770" fill-rule="evenodd" transform="translate(1.3 1.65)"/><path d="m97.45 74.65 5.75 1.9q-9.45 4.9-18.7 4.9-9.5 0-23.6-5.7-6.75-2.85-9.55-3.9-4.4-1.7-6.75-1.8l-1.1-2.25-3.45-7.75.7-1.5q1.35-2.1 3.65-2.1 3.2 0 9.85 3.3 6.65 3.3 8.65 3.3l2.05-.05q2.7 2.5 5.45 4.45 7.6 5.4 16.9 6.85l7.1.55 3.05-.2" fill="#746fb4" fill-rule="evenodd" transform="translate(1.3 1.65)"/><path d="M44.6 70.05h-.3q-3.1 0-4.3 2.8-.8 1.9-.5 3.4l-3.25-3.45q-3.65-3.35-5.85-3.35-1.45 0-2.5 1.2-1.2 1.45-1.2 4l.05.8Q17 66.15 10.9 55.4l1.1-1.2q2.35-1.95 6.6-1.95 6.3 0 12.05 3.9l9.05 6.7q-.1-1.5.35-2.8l3.45 7.75 1.1 2.25" fill="#8759ad" fill-rule="evenodd" transform="translate(1.3 1.65)"/><path d="m74.95 62.65 6.4-.4h.45l.2.4q2.05 3.8 4.6 6.1 3.5 3.2 10.85 5.9l-3.05.2-7.1-.55q-5.35-4.65-12.35-11.65" fill="#6e76b6" fill-rule="evenodd" transform="translate(1.3 1.65)"/><path d="m73.25 60.95 1.7 1.7q7 7 12.35 11.65-9.3-1.45-16.9-6.85-2.75-1.95-5.45-4.45 4.55-.2 7.15-1.45l1.15-.6" fill="#5149b6" fill-rule="evenodd" transform="translate(1.3 1.65)"/><path d="M39.35 24.4Q59.4 47 73.25 60.95l-1.15.6Q69.5 62.8 64.95 63q-13.7-12.6-25.6-38.6" fill="#2f1579" fill-rule="evenodd" transform="translate(1.3 1.65)"/><path d="M12.2 57.05q-2.85-4.9-4.9-10.15Q-.5 27.15 1.85 1.65 5 3.55 12.4 6.85q10.55 4.8 16.15 5.45l.1.15 12 13.6q20.05 22.6 33.9 36.55l1.7 1.7q7 7 12.35 11.65l7.1.55 3.05-.2 5.75 1.9q-9.45 4.9-18.7 4.9-9.5 0-23.6-5.7-6.75-2.85-9.55-3.9-4.4-1.7-6.75-1.8h-.3q-3.1 0-4.3 2.8-.8 1.9-.5 3.4l-3.25-3.45Q33.9 71.1 31.7 71.1q-1.45 0-2.5 1.2-1.2 1.45-1.2 4l.05.8Q18.3 67.8 12.2 57.05m54.05 7.6q-13.7-12.6-25.6-38.6m25.6 38.6q2.7 2.5 5.45 4.45 7.6 5.4 16.9 6.85" fill="none" stroke="#6c277a" stroke-linecap="square" stroke-linejoin="miter-clip" stroke-miterlimit="3" stroke-width="2"/><path d="m76.25 64.3 6.4-.4h.45l.2.4q2.05 3.8 4.6 6.1 3.5 3.2 10.85 5.9" fill="none" stroke="#414970" stroke-linecap="square" stroke-linejoin="miter-clip" stroke-miterlimit="3" stroke-width="2"/></g><g id="g" transform="translate(.65 28.65)"><use ffdec:characterId="22" height="93.65" transform="matrix(.0776 -.617 -1.0606 -.0788 139.673 78.655)" width="130.8" xlink:href="#P"/><use ffdec:characterId="23" height="142.75" transform="translate(-.65 14.9)" width="130.25" xlink:href="#Q"/></g><g id="P"><path d="M5.8-3.35Q4.45-1.8 5.05-.6q.35.75 1.45.55 1.25-.25 2.55-1.6l1.5-1.45h.05q5.4-5 10.9-5.3-14 10.1-4.25 12.2l-4.2.55q-.35 0-1.7.65-1.3.6-2 .6-.35 0-.6.3l-.65.25-6.75 6.95Q-5.2 20-9.5 20l-.85-.15-.9-.2-.9-.2-.9-.2-.45-.15q-.05-.2-.45-.2l-3.3-.45-.55-.3q-.15-.3-.55-.3-.85 0-2.05-2.4 0-.45-.15-.4h-.3q-.45.65-1.45 1.3-.65.45-.65 1.05l1.2 2.7-.05.4.05.05-.1.25-.55.05-1.2-.3-1.2-.3-2.05-1.85q-1.8-1.9-2.55-1.9l-1.25.3-1.3.3q-.7 0-4.05 3.7-3.4 3.65-5.4 3.65l-.65-.15-.7-.15q-1.35 0-2.75-1.85-1.15-1.6-1.15-2.35 0-.8-.95-2.15-1.05-1.45-1.85-1.45l-1.6.25-1.6.25-1.9.6-2.8.55-1.25-.25-1.25-.3q-2.45 0-4.05-3.3-1.35-2.75-1.35-5.45l.5-2.6-.2-.1.3-.15q3.4-.8 5.2-2.4l2.85-.6.65-.2q.25-.25.6-.25l1.35.8 1.95-.3 1.95-.35 4.6-.6q.1 0 1.55.8l.25.45.2.4q0 .8.55 1.75.75 1.25 2 1.25.4 0 1.1-.35l1.1-.4Q-35.6 4.7-35.6 3.3l.2-.45q.15-.05.15-.45 0-1.6 5.95-4.4 5.9-2.8 5.9-4.8l.3-.8q.3-.4.3-.8l.2-.6.2-.65.15-1 .15-1.05.45-4.35q0-1.75 1.15-4.4 1.55-3.7 4.15-3.7l2.25-.05q-1.6 2.8-4.45 5.3-1.55 2.85-1.45 6.95-.5 4.9 5 4.35.05 2.75 1.95 2.75l1.75-.1q1.1.1 1.1 1.05 0 1.05-2.7 3.25-2.35 1.85-3.8 2.45.2 0 .2.1l.45.05 1 .2.95.15q1.4 0 4.65-2.5 3.3-2.55 3.7-2.55.55 0 .75.95.2.9.8.9l.45.25.45.2.9.15.9.15q.8 0 1.35-.35.5-.4 1.35-.4.75 0 4.05-2.1l.55-.35m13.65 7.5.6.05v.1l-.6-.15m36.1-28.6q-5.25 2.35-8.55 8-5 7.9-13.65 4.7 7.25-2.15 7.9-6.55l.4-.15q2.9-1.3 3.75-3.4.7-1.65 4.7-2.2l5.45-.4" fill="#cd6cff" fill-rule="evenodd" transform="translate(68.9 58.9)"/><path d="m23-55.35 2.3-2.1q.9-1.05 2.55-.75-.8 2.35-2.25 4.75-.8-1.95-2.85-1.6l.25-.3M1-26.85l-.2-.2 7.15-4.85q6.5-4.1 7.4-4.1l3-1.05.55.05.1.2-5.45 3.9Q10.9-31 9.7-28.95l-1.6.65q-3.25 1.15-6.2 1.15l-.9.3m4.8 23.5L5.25-3Q1.95-.9 1.2-.9q-.85 0-1.35.4-.55.35-1.35.35l-.9-.15-.9-.15-.45-.2-.45-.25q-.6 0-.8-.9-.2-.95-.75-.95-.4 0-3.7 2.55-3.25 2.5-4.65 2.5l-.95-.15-1-.2-.45-.05q0-.1-.2-.1 1.45-.6 3.8-2.45 2.7-2.2 2.7-3.25 0-.95-1.1-1.05l-1.75.1q-1.9 0-1.95-2.75 2.15-.25 5.25-1.3 6.8-2.85 7.05 3.15-.25 3.9 11 .3l-2.5 2.1M-14.1-24.2l-2.25.05q-2.6 0-4.15 3.7-1.15 2.65-1.15 4.4l-.45 4.35-.15 1.05-.15 1-.2.65-.2.6q0 .4-.3.8l-.3.8q0 2-5.9 4.8-5.95 2.8-5.95 4.4 0 .4-.15.45l-.2.45q0 1.4-3.15 2.55l-1.1.4q-.7.35-1.1.35-1.25 0-2-1.25-.55-.95-.55-1.75l-.2-.4-.25-.45q-1.45-.8-1.55-.8l-4.6.6-1.95.35-1.95.3-1.35-.8q-.35 0-.6.25l-.65.2-2.85.6q.9-.8 1.4-1.8 1.3-5.9 7.4-6.15l10 .85h.65q7-.4 10.85-3.35 3.85-3 4.5-8.5-2.55-3.4-8.75-1.25 2.95-6.2 10.3-8.1l3.1-.55q4.45-1.1 7.55-3.9-.35 2.55-1.55 4.85l-.1.25m55.35 5.9q.2-1.25-.15-2.65Q38.25-27 30.7-26.4q6-6.6 15.25-3.15Q52.7-26.3 60.4-25.8q-2.6.35-4.85 1.35l-5.45.4q-4 .55-4.7 2.2-.85 2.1-3.75 3.4l-.4.15" fill="#f9d1ff" fill-rule="evenodd" transform="translate(68.9 58.9)"/><path d="m-64.95 6 .2.1-.5 2.6q0 2.7 1.35 5.45 1.6 3.3 4.05 3.3l1.25.3 1.25.25 2.8-.55 1.9-.6 1.6-.25 1.6-.25q.8 0 1.85 1.45.95 1.35.95 2.15 0 .75 1.15 2.35 1.4 1.85 2.75 1.85l.7.15.65.15q2 0 5.4-3.65 3.35-3.7 4.05-3.7l1.3-.3 1.25-.3q.75 0 2.55 1.9l2.05 1.85 1.2.3 1.2.3.55-.05.1-.25-.05-.05.05-.4-1.2-2.7q0-.6.65-1.05 1-.65 1.45-1.3h.3q.15-.05.15.4 1.2 2.4 2.05 2.4.4 0 .55.3l.55.3 3.3.45q.4 0 .45.2l.45.15.9.2.9.2.9.2.85.15q4.3 0 10.85-6.9L8.1 6.15l.65-.25q.25-.3.6-.3.7 0 2-.6 1.35-.65 1.7-.65l4.2-.55 2.2.35.6.15v.65q-6.65.1-6.25 7.2l.1.7q-.9 12.2-11.5 16.8-10.75 4.7-23.8-2-4.7-3.7-7.55-4.4l-1.7-.15-.45.05Q-35.6 26-30 31.1q-16.65 8.75-21.9-8.15-6.8 3.1-10.65.7Q-72.6 12.8-64.95 6M32.5-2.8q10.15 0 19.3-1.6Q42.05 1.7 33.55 4 43-1.3 32.5-2.8" fill="#7b23e7" fill-rule="evenodd" transform="translate(68.9 58.9)"/><path d="m23-55.35 2.3-2.1q.9-1.05 2.55-.75-.8 2.35-2.25 4.75-.8-1.95-2.85-1.6l.25-.3M1-26.85l.9-.3q2.95 0 6.2-1.15l1.6-.65q1.2-2.05 3.85-3.95L19-36.8l-.1-.2-.55-.05-3 1.05q-.9 0-7.4 4.1L.8-27.05l.2.2M17.25 3.8Q7.5 1.7 21.5-8.4q-5.5.3-10.9 5.3h-.05l-1.5 1.45Q7.75-.3 6.5-.05 5.4.15 5.05-.6q-.6-1.2.75-2.75l2.5-2.1q-11.25 3.6-11-.3-.25-6-7.05-3.15-3.1 1.05-5.25 1.3-5.5.55-5-4.35-.1-4.1 1.45-6.95 2.85-2.5 4.45-5.3M-59.45 3.45q-1.8 1.6-5.2 2.4l-.3.15q-7.65 6.8 2.4 17.65 3.85 2.4 10.65-.7 5.25 16.9 21.9 8.15-5.6-5.1-1.1-7.95l.45-.05 1.7.15q2.85.7 7.55 4.4 13.05 6.7 23.8 2 10.6-4.6 11.5-16.8l-.1-.7q-.4-7.1 6.25-7.2V4.2l-.6-.05-2.2-.35m38.3-28.25q-5.25 2.35-8.55 8-5 7.9-13.65 4.7 7.25-2.15 7.9-6.55.2-1.25-.15-2.65Q38.25-27 30.7-26.4q6-6.6 15.25-3.15Q52.7-26.3 60.4-25.8q-2.6.35-4.85 1.35M32.5-2.8Q43-1.3 33.55 4q8.5-2.3 18.25-8.4-9.15 1.6-19.3 1.6M-14-24.45q1.2-2.3 1.55-4.85-3.1 2.8-7.55 3.9l-3.1.55q-7.35 1.9-10.3 8.1 6.2-2.15 8.75 1.25-.65 5.5-4.5 8.5Q-33-4.05-40-3.65h-.65l-10-.85q-6.1.25-7.4 6.15-.5 1-1.4 1.8" fill="none" stroke="#6425a6" stroke-linecap="square" stroke-linejoin="miter-clip" stroke-miterlimit="3" transform="translate(68.9 58.9)"/></g><g id="Q"><path d="m46.6 46.55 1.45.05 7-.4L60.8 45q2.75-.9 4.3-2.15 1.9-1.6 1.9-3.8v-.65q-.4-3.95-5.15-7.55-2-1.55-4.1-2.5 4.45 1.2 8.45 3.45l2.15 2.6q.65 1.15.8 3.2l.05 1.2q0 2.75-1.65 5.2-1.1 1.6-2.95 3.1-2.5 2-5.45 3-2.65.8-5.6.8l-4.9-.8-2.2-.6.15-2.75v-.2m-12.9-11.4q1.7-2.2 2.95-4.65l.2-.4.1-.15Q39 25.65 39 22.1q0-2.95-.45-4.1-.35-1.05-1.25-2.15 2.35 1.15 4.3 2.8l.3 3.9-.1 2.6-.1.7-.5 2.15 1.6.6.1.05 1.35.9 1.65 1.85 1.7 3-1.15 3.55Q46.1 35.7 45.4 34l-.45-1q-.95-1.8-2.3-2.65-1.1-.7-2.45-.75l-1.15 2.95-1.95 3.4-.9-.35-2.5-.45M55.05 46.2q1.05.55 2 1.35 1.45 1.25 2.1 2.55-.65-1.3-2.1-2.55-.95-.8-2-1.35m10.05-3.35q1.4.3 2.45 1.15-1.05-.85-2.45-1.15m4.05-5.25q-1.05.05-2.15.8 1.1-.75 2.15-.8m-32.5-7.1.25-.15.25-.1q1.25-.65 2.85-.65h.2-.2q-1.6 0-2.85.65l-.25.1-.25.15" fill="#eee" fill-rule="evenodd" transform="translate(.65 -14.9)"/><path d="m66.2 31.8 1.4.8.05.05q2.3 3.05 3 4.65l.2.5-1.5-.2h-.2.2l1.5.2q.45 1.4.45 3.65 0 2.15-.65 3.85l-.15.3q.8 1.5.8 3.9 0 2.3-.55 4l-.45 1.15-1.8 1.05-.85.45.95-1.6q1.4-2.5 1.4-4.35 0-1.75-.4-3.1-1 1.3-2.5 2.2-2.7 1.6-7.5 2.35l-.45-1.55.45 1.55-9.05.55-3.2-.25-1.25-.3.35-2.15 2.2.6 4.9.8q2.95 0 5.6-.8 2.95-1 5.45-3 1.85-1.5 2.95-3.1 1.65-2.45 1.65-5.2l-.05-1.2q-.15-2.05-.8-3.2l-2.15-2.6M41.6 18.65l1.05.9.1.9.35 3.9-.05 1.5-.25 2.75-1.6-.6.5-2.15.1-.7.1-2.6-.3-3.9m28 28.45q-.45-1.4-1.3-2.4l-.75-.7.75.7q.85 1 1.3 2.4M37.1 35.95l1.95-3.4 1.15-2.95q1.35.05 2.45.75l-1.4 3.95-.2.45-1.4 2.85-.05-.05q-1.15-1-2.5-1.6m.1 34.9 3.9-2.7 2.1-1.85q-.65 1.5-1.15 3.65L42 70l-.6 3.2q-1.05-1.05-4.2-2.35" fill="#a6a8d8" fill-rule="evenodd" transform="translate(.65 -14.9)"/><path d="M67.65 32.65q5.7 3.55 7.35 7.8.7 1.75.7 3.6 0 6.9-5.4 10.6l.45-1.15q.55-1.7.55-4 0-2.4-.8-3.9l.15-.3q.65-1.7.65-3.85 0-2.25-.45-3.65l-.2-.5q-.7-1.6-3-4.65m0 23.5-2.8 1.05q-3.8 1.1-8.45 1.1h-.5l1.2-1.15q2.5-2.7 2.5-5.15v-.35.35q0 2.45-2.5 5.15l-1.2 1.15-5.7-.3-5.2-1.4q.4-1.05.8-3.3l.3-1.65 1.25.3 3.2.25 9.05-.55q4.8-.75 7.5-2.35 1.5-.9 2.5-2.2.4 1.35.4 3.1 0 1.85-1.4 4.35l-.95 1.6m-25-36.6 1.5 1.55q3.95 4.5 3.95 9.45 0 1.7-.5 3.85l-1.7-3-1.65-1.85-1.35-.9-.1-.05.25-2.75.05-1.5-.35-3.9-.1-.9m3.8 18.4-.65 1.6-1.85 3.95h-.05l-.35-.1-1.65-.65q.05-3.05-2.25-5.15l1.4-2.85.2-.45 1.4-3.95q1.35.85 2.3 2.65l.45 1q.7 1.7 1.05 3.95M75 40.45l-.8-.85q-1.55-1.45-3.35-1.8 1.8.35 3.35 1.8l.8.85" fill="#7c7e9f" fill-rule="evenodd" transform="translate(.65 -14.9)"/><path d="M64.85 57.2q1.75.45 3.4 1.2 3.2 1.45 6.05 4.05 4.7 4.3 4.7 8.05 0 3.2-4.9 3.2l-2.7-.3q-2.45-.45-3.8-1.45l1.15 5.4-1.55-.45 2.5 4.35-1.3 1.5-1.1 1.3-.8-1.55-1.3-2.05q-.55-.75-.85-.75-.3 0-.6.35l-.45.65q-.7 1.25-.7 3.2l.4 3.85.2 1.15.15.7-2.3-2.45q-2.3-3.6-3.5-6.7-.85-2.15-1.2-4-.1-4.45-.55-5.95h.7l7.1 2 .25-1.4q.25-1.2.45-1.4h.5l3.55-.25 2.35-.9q-4.2-1.55-10.4-4.5-5.1-2.4-6.6-2.55-5.6-.6-10.35-2.3l-.7-.25q-5.75-2.2-8.8-5.5l.05-.05 4.3.2q1.95-.7 4.05-2.8 3.1-3.05 4.05-6.1.3.45.3 1.85v.2l-.15 2.75-.35 2.15-.3 1.65q-.4 2.25-.8 3.3l5.2 1.4 5.7.3h.5q4.65 0 8.45-1.1m-43.5-13.25 2.05-2.45 1 .55q1.15.55 2.55.55l2.2-.35q1.55-.6 3.05-1.95l4-4.7.9.35q1.35.6 2.5 1.6l.05.05q2.3 2.1 2.25 5.15l-3.2-1.4q-2.45-1.15-3.1-1.15-.55 0-4.15 2.95L30.2 44.2q-2.5 1.9-3.25 1.9l-3.6-1.45-2-.7M67.2 76.9l-3.25-1-4.3-1.3.7 5.25.7 7.3-.7-7.3-.7-5.25 4.3 1.3 3.25 1m-25-20 2.2.6q.3 0 .6-.9-.3.9-.6.9l-2.2-.6" fill="#491d52" fill-rule="evenodd" transform="translate(.65 -14.9)"/><path d="m63.45 89.75-.1-.15-.15-.7-.2-1.15-.4-3.85q0-1.95.7-3.2l.45-.65q.3-.35.6-.35t.85.75l1.3 2.05.8 1.55-1.25 1.65-.85 1.25-1.75 2.8m-2.4-2.6v.4l.05.55.15 3.75-1.6-3.65-3.55-6.95-2.35-3.75q-5.25-7.6-10.6-7.6l-1.1.1v-.05q.5-2.15 1.15-3.65l-2.1 1.85-3.9 2.7-.8-.3q-3.45-1.35-4.3-1.35-.15 0-2.4 1.3l-2.6 1.3q-1.9 0-12.2-5.3l-1.95-1-.1-.05L8.4 63.2l-4-2q-.75 0-2.5 2.1Q.4 65 0 65.8v-.6l4.1-13.65 7.5-1.75.75-.2.8.6 3.75 2.4q2.45 1.8 4.2 1.8 1.15 0 1.7-1.1.4-.8.4-1.85l-.65-1.85-.65-1.6q0-.55 1.1-.9l2.1-.3 3.05.2q1.85 0 3.05-1l.1-.05 1.2-.95q1 0 2.3 1.25 1.35 1.25 3.95 1.25 2.1 0 3.2-1.1.95-1 1.6-3l.35.1h.05q1.9.65 2.3 1.1l.05.1q-.95 3.05-4.05 6.1-2.1 2.1-4.05 2.8l-4.3-.2h-.1l.05.05q3.05 3.3 8.8 5.5l.7.25q4.75 1.7 10.35 2.3 1.5.15 6.6 2.55 6.2 2.95 10.4 4.5l-2.35.9-3.55.25h-.5q-.2.2-.45 1.4l-.25 1.4-7.1-2h-.7q.45 1.5.55 5.95.35 1.85 1.2 4 1.2 3.1 3.5 6.7M23.4 41.5l2.2-2.8 1.2.9 1.45.6h.4q2.3-2.45 3.45-5.1h.55l1.05.05 2.5.45-4 4.7q-1.5 1.35-3.05 1.95l-2.2.35q-1.4 0-2.55-.55l-1-.55m2.25 9.8-3.1-1.7 3.1 1.7-.85 4.75-.3 1.75-.6 3v.5l4.7-.85 1.65-.2.1-.05 7.85-1.4q-.95-.85-7.4-4.55l-1.1-.65-2.15-1.2-1.9-1.1m-9.85 5.1-2.05.35-1.15.05-1.2-.2 1.2.2 1.15-.05 2.05-.35" fill="#673968" fill-rule="evenodd" transform="translate(.65 -14.9)"/><path d="M69.7 81.25q8.75 14 31.3 38.45l.8.8 9.4 10.5v2.05l-.25.75L68.2 87.1l-.65 2.9-.85-.9-2.7 1.25-.1-.1-.45-.5 1.75-2.8.85-1.25 1.25-1.65 1.1-1.3 1.3-1.5M123 139.1l-1.9.3-.65.05h-.7l-2.5-.2-.3.15-.65.4q-.95.9-1.1 2.7l.1 1.9q.2 1 .65 1.9.7 1.5 1.8 2.5l-.05.05-2.8-2.25-1.3-1.15.2-1.25q.15-1.55-.1-3.2h.05l-.05-.05h-.1q-.4-.45-1.1-.45h-.15l-.65.15q-1.15.6-1.55 2.6l-.3 1.95q-.1 1.55.35 3.35l.05.25q-3-3.6-2.4-8l.3-1.5.5.15.65.1q3.15-.05 4.8-1.55 1.15-1 1.6-2.55l.45-.25.75-.2-.1.5q-.1 1.5 2.75 2.55l1.2.45 2.25.6m1.35 14.1-2.4-1.55q-1.85-1.15-2.6-1.45h.3l1.15.2q1.4.35 2.1.95l1.45 1.85" fill="#38276b" fill-rule="evenodd" transform="translate(.65 -14.9)"/><path d="m106.65 134.8-3.75-4.65L64 90.35l2.7-1.25.85.9 42.75 44.55-.15.05-.05.05q-.65.4-1.7.4l-.45-.1-.1.05-.15-.05-1.05-.15" fill="#5a43a0" fill-rule="evenodd" transform="translate(.65 -14.9)"/><path d="m61.25 91.85.05 1.4-3.5-5.1-3.2-3.6-.85-.8-.05-.05q-3.7-3.35-8.9-5.85L40 86.5l-.35-4.25-.05-.45-.8-4.65-.3-.85-4.75-3.4q-.4 0-2.85.75l-2.9.75q-1.6 0-6.6-2.85l-.85-.5q-3.4-2-6.1-4.2L13 65.6l-.15-.15.1.05 1.95 1q10.3 5.3 12.2 5.3l2.6-1.3q2.25-1.3 2.4-1.3.85 0 4.3 1.35l.8.3q3.15 1.3 4.2 2.35L42 70h.05l1.1-.1q5.35 0 10.6 7.6l2.35 3.75 3.55 6.95 1.6 3.65" fill="#806189" fill-rule="evenodd" transform="translate(.65 -14.9)"/><path d="m111.2 131 .95-.25.15.15.6 1.6.05 1.1-.15.9.2.7.3.3 1.2.1 1.2-.15q-.45 1.55-1.6 2.55-1.6-.05-2.6-.65l-.85-.75q-.55-.8-.5-1.9v-.1l.15-.05.65-.75.25-.75V131" fill="#f0df62" fill-rule="evenodd" transform="translate(.65 -14.9)"/><path d="m107.85 135 .1-.05.45.1q1.05 0 1.7-.4l.05-.05v.1q-.05 1.1.5 1.9l.85.75q1 .6 2.6.65-1.65 1.5-4.8 1.55l-.3-.2-1.15-1.15q-.6-.85-.55-1.75l.2-1.05.2-.45.15.05" fill="#b3743f" fill-rule="evenodd" transform="translate(.65 -14.9)"/><path d="m108.15 139.3-.6-.35q-2.35-1.55-.9-4.15l1.05.15-.2.45-.2 1.05q-.05.9.55 1.75l1.15 1.15.3.2-.65-.1-.5-.15" fill="#8acb9f" fill-rule="evenodd" transform="translate(.65 -14.9)"/><path d="m67.55 90 .65-2.9 42.75 46.7-.65.75L67.55 90" fill="#270f49" fill-rule="evenodd" transform="translate(.65 -14.9)"/><path d="M112.15 130.75q1.8-.3 2.9 1.55.55.8.9 2l-.25 1.15-1.2.15-1.2-.1-.3-.3-.2-.7.15-.9-.05-1.1-.6-1.6-.15-.15" fill="#e6ffa4" fill-rule="evenodd" transform="translate(.65 -14.9)"/><path d="M115.05 132.3q3.15.4 5.2 1.3l.25.2q2.85 1.35 5.3 4.25l-.95.4q-1.35-1.35-2.9-2.25-1.6-1-3.05-1.25l-1.15-.1-.85.15-.75.2-.45.25.25-1.15q-.35-1.2-.9-2m6.05 7.1q6.7 7.6 7.85 17.6-8.25-1.4-14.25-8.25l-.2-1.25 3.95 3.15q3 2.25 5.9 3.5l1.25.5h.95L125.4 151l-1.85-4.25q-3-6.05-7.25-6.95l.65-.4.3-.15 2.5.2h.7l.65-.05m-7.95 7.45q-.65 1.5-1.8 2.85l.55-1.8-.05-1.5.05-2.35v-1.55l.25-1.45.2-.55h.15q.7 0 1.1.45h.1v.05q.25 1.65.1 3.2l-.2 1.25-.45 1.4" fill="#7a71f4" fill-rule="evenodd" transform="translate(.65 -14.9)"/><path d="m124.85 138.45-1.85.65-2.25-.6-1.2-.45q-2.85-1.05-2.75-2.55l.1-.5.85-.15 1.15.1q1.45.25 3.05 1.25 1.55.9 2.9 2.25m-10.15 10.3-1.55-1.9.45-1.4 1.3 1.15 2.8 2.25h.05v-.05q-1.1-1-1.8-2.5-.45-.9-.65-1.9l-.1-1.9q.15-1.8 1.1-2.7 4.25.9 7.25 6.95l1.85 4.25 1.15 3.65h-.95l-1.25-.5q-2.9-1.25-5.9-3.5l-3.95-3.15.2 1.25m-3.35.95-.15.1-.95-1-.05-.25q-.45-1.8-.35-3.35l.3-1.95q.4-2 1.55-2.6l.65-.15-.2.55-.25 1.45v1.55l-.05 2.35.05 1.5-.55 1.8m10.15-1.25.05-.1.3-1.1q.1-1.85-1.85-3.95l-.5-.55-.75-.55q-.95-.55-1.6-.55-.55 0-.7.25l-.05.05-.15.85q-.1 1.35 1.4 3.55l.3.45.3.35q1.25 1.55 2.5 1.55l.75-.25m2.85 4.75-1.45-1.85q-.7-.6-2.1-.95l-1.15-.2h-.3q.75.3 2.6 1.45l2.4 1.55" fill="#5149b6" fill-rule="evenodd" transform="translate(.65 -14.9)"/><path d="M118.45 143.35v.05l-.05.35q-.05 1 .65 1l.25-.1.9 1.15.2.25.35.5.15.15.15.2q-.1.7-.65.75-.35 0-1.35-1.2l-.2-.2q-1.3-1.6-1.25-2.75l.1-.35.75.2m-2-1.45.65.35-.15.35q-.05.75.95 3.65l.15.5.2.4-.3-.35-.3-.45q-1.5-2.2-1.4-3.55l.15-.85.05-.05" fill="#380b36" fill-rule="evenodd" transform="translate(.65 -14.9)"/><path d="m117.1 142.25.4.25 1 .65-.05.2-.75-.2-.1.35q-.05 1.15 1.25 2.75l.2.2q1 1.2 1.35 1.2.55-.05.65-.75l.15.3.3 1.25-.75.25q-1.25 0-2.5-1.55l-.2-.4-.15-.5q-1-2.9-.95-3.65l.15-.35" fill="#ce318e" fill-rule="evenodd" transform="translate(.65 -14.9)"/><path d="m118.45 143.35.05-.2-1-.65-.4-.25-.65-.35q.15-.25.7-.25.65 0 1.6.55l.75.55.5.55q1.95 2.1 1.85 3.95l-.3 1.1-.05.1-.3-1.25-.15-.3v-.1l-.15-.1-.15-.15-.35-.5-.2-.25-.9-1.15-.25.1q-.7 0-.65-1l.05-.35v-.05" fill="#ff8beb" fill-rule="evenodd" transform="translate(.65 -14.9)"/><path d="m12.35 49.6 2.3-.65q.95-.45.95-2.4l-.15-1.75-.15-1.05q0-.5.2-.55h.65q2.75 0 5.2.75l2 .7 3.6 1.45q.75 0 3.25-1.9l1.25-1.05q3.6-2.95 4.15-2.95.65 0 3.1 1.15l3.2 1.4 1.65.65q-.65 2-1.6 3-1.1 1.1-3.2 1.1-2.6 0-3.95-1.25Q33.5 45 32.5 45l-1.2.95-.1.05q-1.2 1-3.05 1l-3.05-.2-2.1.3q-1.1.35-1.1.9l.65 1.6-.85-.5.85.5.65 1.85q0 1.05-.4 1.85-.55 1.1-1.7 1.1-1.75 0-4.2-1.8l-3.75-2.4-.8-.6M25.6 38.7l1.3-1.75q1.6-1.7 5.2-1.85-1.15 2.65-3.45 5.1h-.4l-1.45-.6-1.2-.9" fill="#a5719e" fill-rule="evenodd" transform="translate(.65 -14.9)"/><path d="m28.6 60.45-4.7.85v-.5l.6-3 .35.2 1.6.7q.05.6.65.6.5 0 .5-.7l-.1-.45-.05-.05.45-.7h.25l.8-.45.35.05.6.15-.55 1.45-.75 1.85" fill="#ff9f9f" fill-rule="evenodd" transform="translate(.65 -14.9)"/><path d="m24.5 57.8.3-1.75 2.1.45.1.2q.35.7.9.7l-.45.7-.35-.3h-.6v.1l-.1.5.05.3-1.6-.7-.35-.2" fill="#730606" fill-rule="evenodd" transform="translate(.65 -14.9)"/><path d="m25.65 51.3 1.9 1.1-.4.8q-.45 1.2-.45 2.05l.2 1.25-2.1-.45.85-4.75" fill="#440404" fill-rule="evenodd" transform="translate(.65 -14.9)"/><path d="m29.7 53.6 1.1.65-.9 2.9-.6-.15-.35-.05q.7-.9.75-3.35" fill="#921529" fill-rule="evenodd" transform="translate(.65 -14.9)"/><path d="m30.25 60.25-1.65.2.75-1.85.55-1.45q2.45.55 3 1.05l-2.6 2-.05.05M27.9 57.4q-.55 0-.9-.7l-.1-.2 2.05.45-.8.45h-.25m-1.45 1.3-.05-.3.1-.5v-.1h.6l.35.3.05.05.1.45q0 .7-.5.7-.6 0-.65-.6" fill="#fff" fill-rule="evenodd" transform="translate(.65 -14.9)"/><path d="m27.55 52.4 2.15 1.2q-.05 2.45-.75 3.35l-2.05-.45-.2-1.25q0-.85.45-2.05l.4-.8m3.25 1.85q6.45 3.7 7.4 4.55l-7.85 1.4h-.05l2.6-2q-.55-.5-3-1.05l.9-2.9" fill="#979797" fill-rule="evenodd" transform="translate(.65 -14.9)"/><path d="m40 86.5-1 1.8-8.9-11.9-15.5-4.55-3.55 2.5L9 75.8l-.3-4.6-.3-8 4.45 2.25.15.15 1.45 1.25q2.7 2.2 6.1 4.2l.85.5q5 2.85 6.6 2.85l2.9-.75q2.45-.75 2.85-.75l4.75 3.4.3.85.8 4.65.05.45.35 4.25" fill="#e0c0e9" fill-rule="evenodd" transform="translate(.65 -14.9)"/><path d="m46.6 46.55 1.45.05 7-.4L60.8 45q2.75-.9 4.3-2.15 1.9-1.6 1.9-3.8v-.65q-.4-3.95-5.15-7.55-2-1.55-4.1-2.5 4.45 1.2 8.45 3.45l1.4.8m.05.05q5.7 3.55 7.35 7.8.7 1.75.7 3.6 0 6.9-5.4 10.6l-1.8 1.05-.85.45-2.8 1.05q-3.8 1.1-8.45 1.1h-.5l1.2-1.15q2.5-2.7 2.5-5.15v-.35l-.45-1.55q-.65-1.3-2.1-2.55-.95-.8-2-1.35M33.7 35.15q1.7-2.2 2.95-4.65l.2-.4.1-.15Q39 25.65 39 22.1q0-2.95-.45-4.1-.35-1.05-1.25-2.15 2.35 1.15 4.3 2.8l1.05.9 1.5 1.55q3.95 4.5 3.95 9.45 0 1.7-.5 3.85l-1.15 3.55-.65 1.6-1.85 3.95m25.2-5.9h.2l1.5.2q1.8.35 3.35 1.8l.8.85M67.55 44l.75.7q.85 1 1.3 2.4.4 1.35.4 3.1 0 1.85-1.4 4.35l-.95 1.6M67.55 44q-1.05-.85-2.45-1.15M45 56.6l5.2 1.4 5.7.3M67 38.4q1.1-.75 2.15-.8m-28.95-8H40q-1.6 0-2.85.65l-.25.1-.25.15m6-.15q-1.1-.7-2.45-.75m2.45.75q1.35.85 2.3 2.65l.45 1q.7 1.7 1.05 3.95" fill="none" stroke="#434472" stroke-linecap="square" stroke-linejoin="miter-clip" stroke-miterlimit="3" transform="translate(.65 -14.9)"/><path d="M64.85 57.2q1.75.45 3.4 1.2 3.2 1.45 6.05 4.05 4.7 4.3 4.7 8.05 0 3.2-4.9 3.2l-2.7-.3q-2.45-.45-3.8-1.45l1.15 5.4-1.55-.45 2.5 4.35-1.3 1.5-1.1 1.3-1.25 1.65-.85 1.25-1.75 2.8-.1-.15-2.3-2.45v.4l.05.55.15 3.75.05 1.4-3.5-5.1-3.2-3.6-.85-.8-.05-.05q-3.7-3.35-8.9-5.85L40 86.5l-1 1.8-8.9-11.9-15.5-4.55-3.55 2.5L9 75.8l-.3-4.6-.3-8-4-2q-.75 0-2.5 2.1Q.4 65 0 65.8v-.6l4.1-13.65 7.5-1.75.75-.2 2.3-.65q.95-.45.95-2.4l-.15-1.75-.15-1.05q0-.5.2-.55h.65q2.75 0 5.2.75l2.05-2.45 2.2-2.8 1.3-1.75q1.6-1.7 5.2-1.85h.55l1.05.05 2.5.45.9.35q1.35.6 2.5 1.6l.05.05q2.3 2.1 2.25 5.15l1.65.65.35.1h.05q1.9.65 2.3 1.1l.05.1q.3.45.3 1.85v.2l-.15 2.75-.35 2.15-.3 1.65q-.4 2.25-.8 3.3-.3.9-.6.9l-2.2-.6m18.85 30.25-.7-7.3-.7-5.25 4.3 1.3 3.25 1M21.35 43.95l2 .7 3.6 1.45q.75 0 3.25-1.9l1.25-1.05q3.6-2.95 4.15-2.95.65 0 3.1 1.15l3.2 1.4M22.55 49.6l-.85-.5m.85.5 3.1 1.7 1.9 1.1 2.15 1.2 1.1.65q6.45 3.7 7.4 4.55l-7.85 1.4-.1.05-1.65.2-4.7.85v-.5l.6-3 .3-1.75.85-4.75m-12.8 14.15.1.05 1.95 1q10.3 5.3 12.2 5.3l2.6-1.3q2.25-1.3 2.4-1.3.85 0 4.3 1.35l.8.3 3.9-2.7 2.1-1.85q-.65 1.5-1.15 3.65L42 70l-.6 3.2q-1.05-1.05-4.2-2.35M11.4 56.6l1.2.2 1.15-.05 2.05-.35m-7.4 6.8 4.45 2.25" fill="none" stroke="#360e3e" stroke-linecap="square" stroke-linejoin="miter-clip" stroke-miterlimit="3" transform="translate(.65 -14.9)"/><path d="M69.7 81.25q8.75 14 31.3 38.45l.8.8 9.4 10.5v2.05l-.25.75-.65.75-.15.05-.05.05q-.65.4-1.7.4l-.45-.1-.1.05m7.2-2.7q3.15.4 5.2 1.3l.25.2q2.85 1.35 5.3 4.25l-.95.4-1.85.65-1.9.3q6.7 7.6 7.85 17.6-8.25-1.4-14.25-8.25l-1.55-1.9q-.65 1.5-1.8 2.85l-.15.1-.95-1q-3-3.6-2.4-8l.3-1.5m-1.5-4.5-3.75-4.65L64 90.35m-.1-.1-.45-.5m43.2 45.05 1.05.15m13.8 13.5.05-.1.3-1.1q.1-1.85-1.85-3.95l-.5-.55-.75-.55q-.95-.55-1.6-.55-.55 0-.7.25l-.05.05-.15.85q-.1 1.35 1.4 3.55l.3.45.3.35q1.25 1.55 2.5 1.55l.75-.25m-.4-9.05-.65.05h-.7l-2.5-.2m-3.65 6.2-.45 1.4m.55-5.9v.05q.25 1.65.1 3.2l-.2 1.25" fill="none" stroke="#1a0635" stroke-linecap="square" stroke-linejoin="miter-clip" stroke-miterlimit="3" transform="translate(.65 -14.9)"/><path d="m111.2 131 .95-.25q1.8-.3 2.9 1.55.55.8.9 2l-.25 1.15q-.45 1.55-1.6 2.55-1.65 1.5-4.8 1.55l-.65-.1-.5-.15-.6-.35q-2.35-1.55-.9-4.15" fill="none" stroke="#4f2617" stroke-linecap="square" stroke-linejoin="miter-clip" stroke-miterlimit="3" transform="translate(.65 -14.9)"/></g><g id="x"><path d="m17.85 11.25.45-.85 3.85-7.1L36.95 0 26.6 26.35l-2.85.1H22.4l-3.8.3-3.35-5.05-.05-.15h-.05l-.55-.9-.95-1.45.9-1.85 1.45 1.7 1.7 2q1.65 1.65 3.55 1.65 2.9 0 2.9-3.7l-.5-6.2q-.25-1.1-1.6-1.3h-.2l-4-.25" fill="#4e4f87" fill-rule="evenodd" transform="translate(.65 .65)"/><path d="m17.85 11.25 4 .25h.2q1.35.2 1.6 1.3l.5 6.2q0 3.7-2.9 3.7-1.9 0-3.55-1.65l-1.7-2-1.45-1.7.75-1.35.8.6 1.4.7 1.1.2 1.05-.7.4-.95q0-.65-.45-1.25l-1.1-.95-1.5-.85.85-1.55" fill="#79bbde" fill-rule="evenodd" transform="translate(.65 .65)"/><path d="m17 12.8 1.5.85 1.1.95q.45.6.45 1.25l-.4.95-1.05.7-1.1-.2-1.4-.7-.8-.6 1.7-3.2" fill="#9affea" fill-rule="evenodd" transform="translate(.65 .65)"/><path d="m5.95 51.85-.45-4.5 1.05 2.4.55-.65q.15 1.1.55 1.1l5.9-4.4q5.55-4.4 7.2-4.4 1.1 0 1.1 1.15l-.15 1.15q-.75 2.5-4.15 7.25l-7.45 10.8q-1.55.95-3.05 1.85L6.8 61q2.2-.35 3.15-2 .8-1.4.8-4.45V53.3l-.3-1.8q-.4-.9-1.65-.9l-1.9.8-.95.45m5.15-36.6 1.15 1.85.4 6.85-.1 3.25q-.25 2.55-.95 3.5l-6.65 6.4-.9-.55 5.35-6.3q1.7-2.15 1.9-3.55v-.1l-.3-2.25q-.35-3.55 0-9.05l.1-.05" fill="#5149b6" fill-rule="evenodd" transform="translate(.65 .65)"/><path d="m13.65 19.2.95 1.45.55.9.1.15.7 2.9.8 3.05-.6 1.3-1.85 2.3q-1.9 2.15-2.3 3l-.3.2-5.95 3.15-.8-.5 6.65-6.4q.7-.95.95-3.5l.1-3.25-.4-6.85 1.4 2.1m-5.3 28.45 2.75-2.9 2.7-2.6.35-.3 1.55-1.35 3.5-3.05 2.8-2.3h.95l2.4 5.35.3.7q.55 1.6 1.3 6.9l-7 6.3-9.85 7.35 7.45-10.8q3.4-4.75 4.15-7.25l.15-1.15q0-1.15-1.1-1.15-1.65 0-7.2 4.4l-5.9 4.4q-.4 0-.55-1.1l1.15-1.35.1-.1" fill="#261073" fill-rule="evenodd" transform="translate(.65 .65)"/><path d="m15.25 21.7 3.35 5.05 1.2 1.75-.05.05-1.75 1.5-6 4.2q.4-.85 2.3-3l1.85-2.3.6-1.3-.8-3.05-.7-2.9m9.95 13.35 3.4 7 .85 1.75.6 1.2-.95 1-2.15 2.1q-.75-5.3-1.3-6.9l-.3-.7-2.4-5.35h.85l1.4-.1" fill="#4c6f57" fill-rule="evenodd" transform="translate(.65 .65)"/><path d="m6.5 57.6-.55-5.75.95-.45 1.9-.8q1.25 0 1.65.9l.3 1.8v1.25q0 3.05-.8 4.45Q9 60.65 6.8 61l-.3-3.4M4.7 33.15q1-4.4 2.45-8.7Q9 19.05 11 15.3q-.35 5.5 0 9.05l.3 2.25v.1q-.2 1.4-1.9 3.55l-5.35 6.3L4 36.5l.7-3.35" fill="#9278e7" fill-rule="evenodd" transform="translate(.65 .65)"/><path d="M1.95 76 0 77.4q.65-4.3 1.95-9.7l1.95-7.25 2.6-2.85.3 3.4.25 2.6q1.5-.9 3.05-1.85l9.85-7.35-1.4 3.3Q12.4 62.15 6.9 66.5l-.8.65-.65.55-.15.3-.7 1.6-2.3 5.5-.35.9M5.5 47.35l-1.8-4.2-3-7.85q1.55-.85 4-2.15L4 36.5l.05.05.9.55.8.5 5.95-3.15.3-.2 6-4.2 1.75-1.5.1.75q0 .7-.65 1.6-.85 1.2-2.85 2.7l-1.45 1.05-1.7 1.1-1.1.75-.4.25q-5.15 3.35-5.15 4.1 0 1.2.45 3.05.5 2.05 1.35 3.75l-.1.1L7.1 49.1l-.55.65-1.05-2.4" fill="#e6ffa4" fill-rule="evenodd" transform="translate(.65 .65)"/><path d="m22.85 60.25-.1.1-1.9 1.55q.35-1.55 1.05-3.75l1.25-3.75-4.6 3.3 1.4-3.3 7-6.3L29.1 46q-.15 2.05-1.55 4.1l-2.9 3.15-1.8 7m-7.8 6.15L1.95 76l.35-.9 2.3-5.5.7-1.6.15-.3.65-.55.8-.65q5.5-4.35 11.65-8.8l-3.5 8.7m-6.7-18.75Q7.5 45.95 7 43.9q-.45-1.85-.45-3.05 0-.75 5.15-4.1-.35 1.95-.6 8l-2.75 2.9m6.55-13 1.45-1.05-.65 6.9-1.55 1.35.75-7.2" fill="#f0df62" fill-rule="evenodd" transform="translate(.65 .65)"/><path d="m18.6 26.75 3.8-.3h1.35L22.1 31.9l-.45 1.3q-.85 2-2.45 4.25l-3.5 3.05.65-6.9q2-1.5 2.85-2.7.65-.9.65-1.6l-.1-.75.05-.05-1.2-1.75m11.6 25.4q-3.2 4.65-7.35 8.1l1.8-7 2.9-3.15q1.4-2.05 1.55-4.1l.95-1-.6-1.2 1.2.2q.5.15.5 1.35l-.3 2.95-.65 3.85m-9.35 9.75-5.8 4.5 3.5-8.7 4.6-3.3-1.25 3.75q-.7 2.2-1.05 3.75M11.1 44.75q.25-6.05.6-8l.4-.25 1.1-.75 1.7-1.1-.75 7.2-.35.3-2.7 2.6" fill="#b3743f" fill-rule="evenodd" transform="translate(.65 .65)"/><path d="m23.75 26.45 2.85-.1-2.55 6.1 2.75 2.4-1.6.2-1.4.1H22l-2.8 2.3q1.6-2.25 2.45-4.25l.45-1.3 1.65-5.45m4.85 15.6 4.1.95 2.15.7q-2.05 4.65-4.65 8.45l.65-3.85.3-2.95q0-1.2-.5-1.35l-1.2-.2-.85-1.75" fill="#8acb9f" fill-rule="evenodd" transform="translate(.65 .65)"/><path d="M26.6 26.35 36.95 0l-14.8 3.3-3.85 7.1-.45.85L17 12.8 15.3 16l-.75 1.35-.9 1.85" fill="none" stroke="#29235d" stroke-linecap="square" stroke-linejoin="miter-clip" stroke-miterlimit="3" transform="translate(.65 .65)"/><path d="m11 15.3.05-.1.05.05m1.15 1.85 1.4 2.1m6.1 9.35.05-.05-1.2-1.75m-3.45-5.2.1.15" fill="none" stroke="#191752" stroke-linecap="square" stroke-linejoin="miter-clip" stroke-miterlimit="3" transform="translate(.65 .65)"/><path d="m13.65 19.2.95 1.45.55.9m.1.15 3.35 5.05m6.6 8.3 3.4 7 .85 1.75.6 1.2-.95 1-2.15 2.1-7 6.3-9.85 7.35q-1.55.95-3.05 1.85L6.8 61l-.3-3.4-.55-5.75-.45-4.5m-.8-14.2q1-4.4 2.45-8.7Q9 19.05 11 15.3m.1-.05 1.15 1.85m-8.2 19.45.9.55.8.5 5.95-3.15m.3-.2 6-4.2 1.75-1.5M4.7 33.15 4 36.5l.05.05" fill="none" stroke="#150842" stroke-linecap="square" stroke-linejoin="miter-clip" stroke-miterlimit="3" transform="translate(.65 .65)"/><path d="m18.6 26.75 3.8-.3h1.35l2.85-.1-2.55 6.1 2.75 2.4-1.6.2-1.4.1H22l-2.8 2.3-3.5 3.05-1.55 1.35-.35.3-2.7 2.6-2.75 2.9m20.25-5.6 4.1.95 2.15.7q-2.05 4.65-4.65 8.45-3.2 4.65-7.35 8.1l-.1.1-1.9 1.55-5.8 4.5L1.95 76 0 77.4q.65-4.3 1.95-9.7l1.95-7.25 2.6-2.85m-1-10.25-1.8-4.2-3-7.85q1.55-.85 4-2.15m.8 14.2 1.05 2.4.55-.65 1.15-1.35" fill="none" stroke="#4f2618" stroke-linecap="square" stroke-linejoin="miter-clip" stroke-miterlimit="3" transform="translate(.65 .65)"/></g><g id="y"><path d="m13.75 24.15-1.1-4.35-.5-3.7q0-.8 1.6-3.7 1.05-1.9 1.85-2.65.55-.55 1-.55 2.75 0 4.25 2.2l2.85 4.2-1.55-.55v2.65q-3.1-3.9-5.7-4.5l-.9-.1q-1.2 0-1.2 2.65 0 3.75 2.8 7.05 2.35 2.8 3.8 2.8l1.2-.15v2.85l-2.05 4.95-6.35-9.1" fill="#79bbde" fill-rule="evenodd" transform="translate(.65 .65)"/><path d="m22.15 25.45-1.2.15q-1.45 0-3.8-2.8-2.8-3.3-2.8-7.05 0-2.65 1.2-2.65l.9.1q2.6.6 5.7 4.5v7.75" fill="#9affea" fill-rule="evenodd" transform="translate(.65 .65)"/><path d="m23.7 15.6-2.85-4.2q-1.5-2.2-4.25-2.2-.45 0-1 .55-.8.75-1.85 2.65-1.6 2.9-1.6 3.7l.5 3.7 1.1 4.35-4.6-6.55-7.25-.45-1.9-4.4q1.35-8.35 1.9-9.9.65-1.75 5.05-1.75l3.15.4 6.45-.8L30.8 18.8l-.2-.1q-3.25-1.7-6.9-3.1" fill="#4e4f87" fill-rule="evenodd" transform="translate(.65 .65)"/><path d="M23.7 15.6q3.65 1.4 6.9 3.1l.15.15 2.55 3.1-1.6-1.15q-2.65-1.8-4.55-2.35l3.5 5.1.9 1.25q2.75 4 3.3 5.3l3-3 .1.05q-.35 1.25-2.6 4.7v.1q.05.65.9 2.45l1.15 2.55-.15.5-.6 2.3-2.1-.9.5-1.95-2.55-1.15-3.15-1.55-.75 2.25-6.45-2.65V15.05l1.55.55m-.05 1.9v-.3l-.2.2.2.1.2 8.25v.75l-.4 4.95L25 32.9l1.95 1.7 1.2-1.9-.25-.45-.45-.35 1.15-2.05.25-2.2-.25-3.45q-.95-5.15-4.95-6.7m7 31.85-2.8-5.3.35.15q1.75 2.25 5.85 3.85 4.05 1.55 7.7 1.55l5.35-.3 3.55 2.75q4.4 3.8 8.05 8.6 4.05 5.4 5.05 8.45l.2.1v-1.6l-2.45-9.25-.6-2.15q2.3 3.75 5.05 10.05.95 4.7 1 8.65-10.75-1.85-21.9-7.4l1.15-.95q.75-.95.75-2.05 0-2.55-1.3-4.15l-1.4-1.25-2.35-1.55q-6.55-3.85-11.25-8.2" fill="#5149b6" fill-rule="evenodd" transform="translate(.65 .65)"/><path d="m30.75 18.85.05-.05q3.15 1.65 5.95 3.55l3.2 2.45V27q-.2 6.85-1.95 13.25l-1.35-.5.6-2.3.15-.5.4-1.7q.85-3.3.85-5.5l-.05-1.1q-.15-1.25-.7-2.15-.55-.95-2.5-2.75l-.2-.2-.95-.85-.95-.75-2.55-3.1m15.05 16.4 16 18.45.95 1.1.8 2.4.4 1.3.25.7 1.75 7.05q-2.75-6.3-5.05-10.05l-1.5-2.3-5-5.85-8.9-10.7.1-.35.05-.4.15-1.35" fill="#4c6f57" fill-rule="evenodd" transform="translate(.65 .65)"/><path d="M23.65 17.5q4 1.55 4.95 6.7l.25 3.45-.25 2.2-1.15 2.05.45.35.25.45-1.2 1.9L25 32.9l-1.55-1.45.4-4.95v-.75l-.2-8.25m4.95 18.95.75-2.25 3.15 1.55 2.55 1.15-.5 1.95-5.95-2.4" fill="#9278e7" fill-rule="evenodd" transform="translate(.65 .65)"/><path d="m37.85 27.1-3 3q-.55-1.3-3.3-5.3l-.9-1.25-3.5-5.1q1.9.55 4.55 2.35l1.6 1.15.95.75.95.85.15.15.05.05q1.95 1.8 2.5 2.75.55.9.7 2.15l.05 1.1q0 2.2-.85 5.5l-.4 1.7-1.15-2.55q-.85-1.8-.9-2.45v-.1q2.25-3.45 2.6-4.7v-.05h-.1m-6.2 18.25 2.6.7 6.4.95 2.6.15q1.15-3.3 1.95-7.65l.3-2.15 8.9 10.7 5 5.85 1.5 2.3.6 2.15 2.45 9.25v1.6l-.2-.1q-1-3.05-5.05-8.45-3.65-4.8-8.05-8.6L47.1 49.3l-5.35.3q-3.65 0-7.7-1.55-4.1-1.6-5.85-3.85l3.45 1.15" fill="#261073" fill-rule="evenodd" transform="translate(.65 .65)"/><path d="m20.1 33.25 2.05-4.95v5.5l6.45 2.65 5.95 2.4 2.1.9 1.35.5q1.75-6.4 1.95-13.25l.85.8.05 1.9v.1l.05.5v3.45l.95.7 2.05 1.9.05-2 1.7 2.25-.05.4-.1.35-.3 2.15q-.8 4.35-1.95 7.65l-2.6-.15-1.55-4.45-.3-.95-6.5-1.4.9 2.3.3.9.75 2.65-2.6-.7-.85-2.4-.4-1.25-.65-2.45-3.1-1.35q-2.7-1.15-4.25-2l2.15 6.65-2.2-1.3-2.4-5.15-.55-1.15.7-1.7m21.5 2.35-.9-1.05q-.3 1.25-.35 5.45l.1.1 1.9 3 1.5-5-2.25-2.5" fill="#f0df62" fill-rule="evenodd" transform="translate(.65 .65)"/><path d="m73.9 87.1-4.7-1.15-.25-.65-2.65-6.8-.6-1.35 3.15-.05 5.05 10m-7.45-1.95-2.25-.8Q51.1 79.4 36.7 67.6l.3-2.9q9.25 6.25 16.45 9l8.85 3.15.2.35.75 1.5 3.2 6.45m-38.6-41.1-.1-.05-3.2-1.45-2.15-6.65q1.55.85 4.25 2l3.1 1.35.65 2.45.4 1.25.85 2.4-3.45-1.15-.35-.15m6.4 2-.75-2.65-.3-.9-.9-2.3 6.5 1.4.3.95L40.65 47l-6.4-.95" fill="#e6ffa4" fill-rule="evenodd" transform="translate(.65 .65)"/><path d="m73.85 70.7.45 1.7-3.05-3.25-1.15-1.05q-1.35-1.1-2.25-1.5-.6-.3-.8-1.35l-.6-2.75q-.55-1.55-1.1-2.2l-1.15-1.1-.25-.7-.4-1.3q3.85 2.85 5.2 5.1l.5.8 4.6 7.6m1.1 4.4q1.15 5.3 1.65 11.7l-1.05-2.55q-2.65-5.85-5.2-8.75l-.35-.35-.05-.5-.3-1.8-1-3.95 1.75 1.3 2.75 2.8 1.8 2.1m-31-40.75-.05 2-2.05-1.9-.95-.7V30.3l-.05-.5.05-.05 1.7 1.45.8.45q.5.4.55 2.15v.55M41.6 35.6l2.25 2.5-1.5 5-1.9-3-.1-.1q.05-4.2.35-5.45l.9 1.05" fill="#b3743f" fill-rule="evenodd" transform="translate(.65 .65)"/><path d="m40.8 27.8 2.05 2 3.3 3.15-.35 2.3-.15 1.35-1.7-2.25v-.55q-.05-1.75-.55-2.15l-.8-.45-1.7-1.45-.05-.05-.05-1.9" fill="#8dc397" fill-rule="evenodd" transform="translate(.65 .65)"/><path d="m61.8 53.7 6.2 2 .25.55q3.65 7.55 5.6 14.45l-4.6-7.6-.5-.8q-1.35-2.25-5.2-5.1l-.8-2.4-.95-1.1" fill="#8acb9f" fill-rule="evenodd" transform="translate(.65 .65)"/><path d="m74.3 72.4.1.35.55 2.35-1.8-2.1-2.75-2.8-1.75-1.3 1 3.95.3 1.8.05.5.35.35q2.55 2.9 5.2 8.75l1.05 2.55.05.85-2.75-.55-5.05-10-3.15.05.6 1.35 2.65 6.8.25.65-2.75-.8-3.2-6.45-.75-1.5-.2-.35-8.85-3.15q-7.2-2.75-16.45-9l.3-2.6.85 1.6 6.9 3.8q11.15 5.55 21.9 7.4-.05-3.95-1-8.65L64.2 59.2l1.15 1.1q.55.65 1.1 2.2l.6 2.75q.2 1.05.8 1.35.9.4 2.25 1.5l1.15 1.05 3.05 3.25" fill="#eddf64" fill-rule="evenodd" transform="translate(.65 .65)"/><path d="m37.3 62.1-6.65-12.75q4.7 4.35 11.25 8.2l2.35 1.55 1.4 1.25q1.3 1.6 1.3 4.15 0 1.1-.75 2.05l-1.15.95-6.9-3.8-.85-1.6" fill="#9179e7" fill-rule="evenodd" transform="translate(.65 .65)"/><path d="m16.55.7-.6-.7M30.8 18.8 16.55.7M0 12.75l1.9 4.4 7.25.45 4.6 6.55 6.35 9.1" fill="none" stroke="#28235d" stroke-linecap="square" stroke-linejoin="miter-clip" stroke-miterlimit="3" transform="translate(.65 .65)"/><path d="M23.7 15.6q3.65 1.4 6.9 3.1l.2.1q3.15 1.65 5.95 3.55l3.2 2.45V27q-.2 6.85-1.95 13.25l-1.35-.5-2.1-.9-5.95-2.4-6.45-2.65V15.05l1.55.55m22.1 19.65 16 18.45.95 1.1.8 2.4.4 1.3M37.3 62.1l-6.65-12.75-2.8-5.3m38.1 22.2L64.2 59.2m-19.15 8.3q11.15 5.55 21.9 7.4-.05-3.95-1-8.65M37.3 62.1l.85 1.6 6.9 3.8" fill="none" stroke="#150842" stroke-linecap="square" stroke-linejoin="miter-clip" stroke-miterlimit="3" transform="translate(.65 .65)"/><path d="m20.1 33.25 2.05-4.95m17.8-1.3.85.8 2.05 2 3.3 3.15-.35 2.3-.15 1.35-.05.4m16.2 16.7 6.2 2 .25.55q3.65 7.55 5.6 14.45l.45 1.7.1.35.55 2.35q1.15 5.3 1.65 11.7l.05.85-2.75-.55-4.7-1.15-2.75-.8-2.25-.8Q51.1 79.4 36.7 67.6l.3-2.9.3-2.6m-9.45-18.05-.1-.05-3.2-1.45-2.2-1.3-2.4-5.15-.55-1.15.7-1.7m11.55 12.1 2.6.7 6.4.95 2.6.15q1.15-3.3 1.95-7.65l.3-2.15m-17.65 6.7.35.15 3.45 1.15" fill="none" stroke="#4f2618" stroke-linecap="square" stroke-linejoin="miter-clip" stroke-miterlimit="3" transform="translate(.65 .65)"/></g><g id="z"><path d="M39.05 2.75Q40.6 4.6 40.6 7.5q0 4.1-1 7.9l-1.1 3q-1.05 1.9-2.45 1.9l-.25-.1-1.55-.55q1.65-1.55 2.8-3.8l.25-.4q1.9-4.05 1.9-9.75L39 2.75h.05m-3.9 20.85.5.65.25 1.55q0 2.1-1.2 2.6l-2 .35.75-1.3.35-2.75v-1.55l1 .25.35.2M5.8 21.15l-.65.15q-1.9 0-3.45-2.2l-.65-1.15Q.1 16.05 0 13.55L1.55 16l.65.9 3.6 4.25" fill="#4c6f57" fill-rule="evenodd" transform="translate(.65 .65)"/><path d="M32.95 0q3.4.1 5.45 2l.6.65v.1l.2 2.95q0 5.7-1.9 9.75l-.25.4q-1.15 2.25-2.8 3.8l-4.35-1.6-.1-1.85 1.15-.55q1.3-.8 2-3.05.65-2.3.65-6.1 0-4.75-.65-6.5m-.25 28.75-3.25.05-2.4-.15 3.05-5.9v-.85l1.15.45.6.2 1.95.6v1.55l-.35 2.75-.75 1.3M2.05 4.45q.1 3.6.95 6.3.25.95.65 1.75l.95 1.8q2.25 3.4 6.3 4.25h.05l.1 1.6-1-.15-3.75 1-.5.15-3.6-4.25-.65-.9L0 13.55V13q0-3 1.2-6.45l.85-2.1" fill="#261073" fill-rule="evenodd" transform="translate(.65 .65)"/><path d="m11.25 23.65.1 2.75.95 1.3v1.8l-5.5 1.8q-.45 0-.85-2.55l-.05-.5 1.4.05 1.75-.15.75-.25q.8-.45.8-1.7l-.25-2.15.9-.4" fill="#5149b6" fill-rule="evenodd" transform="translate(.65 .65)"/><path d="m35.4 22.2-.25 1.4-.35-.2-1-.25-1.95-.6.05-1.65h1.2l.35.25 1.95 1.05M7.1 25.3l-.45-2.25 1.3-.4 1.2-.35 1.05-.2.15 1.95-1.55.6-1.7.65" fill="#79bbde" fill-rule="evenodd" transform="translate(.65 .65)"/><path d="m35.8 20.2-.4 2-1.95-1.05-.35-.25h-1.2l-.05 1.65-.6-.2-1.15-.45-.15-2.9-.05-.7v-.25l4.35 1.6 1.55.55m-24.75-.05.2 3.5-.9.4-.15-1.95-1.05.2-1.2.35-1.3.4-.15-.8-.1-.45-.1-.8 3.75-1 1 .15" fill="#4e4f87" fill-rule="evenodd" transform="translate(.65 .65)"/><path d="m5.9 28.25-.35-2.45 1.55-.5 1.7-.65 1.55-.6.25 2.15q0 1.25-.8 1.7l-.75.25-1.75.15-1.4-.05" fill="#9278e7" fill-rule="evenodd" transform="translate(.65 .65)"/><path d="M32.95 0q3.4.1 5.45 2l.6.65.05.1Q40.6 4.6 40.6 7.5q0 4.1-1 7.9l-1.1 3q-1.05 1.9-2.45 1.9l-.25-.1-1.55-.55-4.35-1.6m5.25 5.55.5.65.25 1.55q0 2.1-1.2 2.6l-2 .35-3.25.05-2.4-.15m4.8-6.1 1.95.6 1 .25.35.2m-5.05-1.7 1.15.45.6.2M12.3 29.5l-5.5 1.8q-.45 0-.85-2.55l-.05-.5-.35-2.45 1.55-.5 1.7-.65 1.55-.6.9-.4M6.3 21l-.5.15-.65.15q-1.9 0-3.45-2.2l-.65-1.15Q.1 16.05 0 13.55V13q0-3 1.2-6.45l.85-2.1M6.3 21l3.75-1 1 .15" fill="none" stroke="#150842" stroke-linecap="square" stroke-linejoin="miter-clip" stroke-miterlimit="3" transform="translate(.65 .65)"/><path d="m35.8 20.2-.4 2-.25 1.4M7.1 25.3l-.45-2.25-.15-.8m-.1-.45-.1-.8" fill="none" stroke="#28235d" stroke-linecap="square" stroke-linejoin="miter-clip" stroke-miterlimit="3" transform="translate(.65 .65)"/></g><g id="A"><path d="m41.7.95 2.7 1.45.4.25-1.5 3.5-.95 2.1-1.05 2.25-1.7.95-.35.2-1.5.25q-1.4 0-4.3-2.85-1.95-1.95-2.7-3.35l1.05-.8 2.8 3.7q1.5 1.6 3.15 1.6T40.2 8l.55-1.8.95-5.25M34.05 32.8l-1.2.1-2.45-.25q-2.7-.55-5.35-2.35l2.4.6q.9 0 1.65-.9l.55-.85.05-.25q0-.7-1.4-2l-3-2.8q-2.15-2.25-3.2-4.75 1.8 2.15 4.7 4.45 5 3.85 8.3 4.9l-.75 3.15-.05.25-.25.7" fill="#261073" fill-rule="evenodd" transform="translate(.65 .65)"/><path d="M17.85 17.65q.05-1.5 1-2.35l.7-.4q.5 1.65 1.7 3.35l.15.2 1.15 2.85 1 2.35.05.5-.3 1.15q-.4.6-1.1.6-.65 0-1.65-.75l-1.5-1.45q-.55-1.1-.8-2.25l-.35-1.75-.1-1.65.05-.4M34 3.15l1.1-.9Q38.1 0 38.85 0l.7.1q-.8 2.4-2.1 4l-.2.25Q35.8 6.1 34.85 6.1l-.75-.2q-.5-.3-.5-.85l.05-.45.35-1.45" fill="#9278e7" fill-rule="evenodd" transform="translate(.65 .65)"/><path d="M19.55 14.9q-.45-1.35-.45-2.65 0-1.65 4.6-6.45Q28.3 1 30 1q.45 0 1.8.9l2 1.4-1.85 1.45-.2.1-2.05.6Q29 5.7 29 6.6q0 .85.3 1.65l-1.1 1.9-1.25 2.1q-2.3 4-2.9 5.4-.95-.55-1.2-.55-.95 0-1.35.55-.2.15-.25.45v.15q-1.2-1.7-1.7-3.35m13.85-2.4 1.1.65-.75 2.2-1.15 3.5-1.05 3.35-1.35-.8 2.45-6.65.75-2.25" fill="#e6ffa4" fill-rule="evenodd" transform="translate(.65 .65)"/><path d="m33.8 3.3.2-.15-.35 1.45-.05.45q0 .55.5.85l.75.2q.95 0 2.4-1.75l.2-.25q1.3-1.6 2.1-4l2.15.85-.95 5.25L40.2 8q-.8 2.2-2.45 2.2-1.65 0-3.15-1.6l-2.8-3.7.15-.15L33.8 3.3M21.4 18.45l.7.9q1.05 2.5 3.2 4.75l3 2.8q1.4 1.3 1.4 2l-.05.25-.55.85q-.75.9-1.65.9l-2.4-.6-1.65-1.2q-3-2.4-4.35-5.4l1.5 1.45q1 .75 1.65.75.7 0 1.1-.6l.3-1.15-.05-.5-1-2.35-1.15-2.85" fill="#5149b6" fill-rule="evenodd" transform="translate(.65 .65)"/><path d="m47.1 6.75 1.9 1.7.2.25-.9 2.85q-1 2.5-2.8 5.3l-8.85 12.2-1.55-.35q-3.3-1.05-8.3-4.9-2.9-2.3-4.7-4.45l-.7-.9-.15-.2v-.15q.05-.3.25-.45.4-.55 1.35-.55.25 0 1.2.55l4.5 2.7.3.2 1.35.85 1.35.8Q34.8 24 36.3 24q4.9-6.5 4.9-6.95l-.6-.95-.1-.1-.8-1 5.2-5.3-.4-1.15 2.6-1.8M31.8 4.9l-1.05.8q.75 1.4 2.7 3.35 2.9 2.85 4.3 2.85l1.5-.25Q37.3 13.9 36.1 13.9l-1.6-.75-1.1-.65-1.8-1.3-.15-.1q-1.6-1.35-2.15-2.85-.3-.8-.3-1.65 0-.9.7-1.15l2.05-.6.05.05" fill="#b3743f" fill-rule="evenodd" transform="translate(.65 .65)"/><path d="m31.6 11.2 1.8 1.3-.75 2.25-2.45 6.65-1.35-.85-.3-.2 3.05-9.15" fill="#fff" fill-rule="evenodd" transform="translate(.65 .65)"/><path d="m39.25 11.65.35-.2 1.7-.95 1.6-1 1.6-.95.4 1.15-5.2 5.3.8 1 .1.1.6.95q0 .45-4.9 6.95-1.5 0-4.75-1.8l1.05-3.35 1.15-3.5.75-2.2 1.6.75q1.2 0 3.15-2.25m-9.95-3.4q.55 1.5 2.15 2.85l.15.1-3.05 9.15-4.5-2.7q.6-1.4 2.9-5.4l1.25-2.1 1.1-1.9" fill="#f0df62" fill-rule="evenodd" transform="translate(.65 .65)"/><path d="m44.8 2.65 2.4 1.5q1.2.85 1.2 1.1 0 .45-1.3 1.5l-2.6 1.8-1.6.95-1.6 1 1.05-2.25.95-2.1 1.5-3.5M37.4 29.1q-.65 2.45-2.35 3.35l-1 .35.25-.7.05-.25.75-3.15 1.55.35.7.05h.05" fill="#4c6f57" fill-rule="evenodd" transform="translate(.65 .65)"/><path d="m49.2 8.7.7 1.35.2 1.25q0 3.75-3.4 8.6L41.75 26q-2.9 3.05-4.35 3.1h-.05l-.7-.05 8.85-12.2q1.8-2.8 2.8-5.3l.9-2.85" fill="#8acb9f" fill-rule="evenodd" transform="translate(.65 .65)"/><path d="m5.55 43.05.15-1.2q0-1.2-.8-4.15l-.25-1.05L2.7 34.4Q0 31.3 0 30q0-.7.7-2.5.85-2.2 1.75-2.2L5 27.4l-.2 1.65q0 1.15.3 2.15l.2.5.45-.2 2.4-.3 1.5.15 1.1.85q.25 1.35.75 2.25l.05.1.35.5q.2 1.1 1.15 1.9 1.15 1 1.15 2.5 0 1.15-.8 2.35l-.1.1q-1.25 1.7-3.45 1.7l-3.6-.45-.7-.1m4.75-21.5q-2.1-2.4-2.1-3 0-.85 1.3-1.65 1.25-.8 2.5-.8 1.05 0 3.6.8l2.25.75-.05.4.1 1.65-3.05.35q-2.4.45-4.55 1.5m-5.65 15.1L4.1 34.2q0-1.5.6-2.1.25-.25.6-.4-.35.15-.6.4-.6.6-.6 2.1l.55 2.45" fill="#9affea" fill-rule="evenodd" transform="translate(.65 .65)"/><path d="m5.65 43.9-.25-.25.15-.6.7.1 3.6.45q2.2 0 3.45-1.7l.1-.1q.8-1.2.8-2.35 0-1.5-1.15-2.5-.95-.8-1.15-1.9 1.35 1.85 4.05 1.85 1.7 0 2.85-1.4l.75-1.25.25-1.4q0-1.75-.4-2.55-.55-1-1.9-1.15l-.5-.05-.3.05q-1-1.75-4-4.95l-2.4-2.65q2.15-1.05 4.55-1.5l3.05-.35.35 1.75-.1.2-.25 1.55q0 3.25 2.8 6.65 2.8 3.35 2.8 6.85v.05q0 2.4-2.8 4.95-1.5 1.35-3.4 2.15-2.4.95-5.35.95l-4.55-.6-1.75-.3M5 27.4l.1.1 2.65 2.25 1.9 1.6-1.5-.15-2.4.3-.45.2-.2-.5q-.3-1-.3-2.15L5 27.4" fill="#79bbde" fill-rule="evenodd" transform="translate(.65 .65)"/><path d="M30.4 32.65q-.6 7.3-3.85 10.8-4.1 4.35-13.7 4.35L9.1 45.9q-2.75-1.45-3.45-2l1.75.3 4.55.6q2.95 0 5.35-.95 1.9-.8 3.4-2.15 2.8-2.55 2.8-4.95v-.05q0-3.5-2.8-6.85-2.8-3.4-2.8-6.65l.25-1.55.1-.2q.25 1.15.8 2.25 1.35 3 4.35 5.4l1.65 1.2q2.65 1.8 5.35 2.35m-19.65-.45q2.55 2 3.45 2 .85 0 1.9-1.2 1.1-1.25 1.1-2.45l-.5-1.4.3-.05.5.05q1.35.15 1.9 1.15.4.8.4 2.55l-.25 1.4-.75 1.25q-1.15 1.4-2.85 1.4-2.7 0-4.05-1.85l-.35-.5-.05-.1q-.5-.9-.75-2.25" fill="#4e4f87" fill-rule="evenodd" transform="translate(.65 .65)"/><path d="m41.7.95 2.7 1.45.4.25 2.4 1.5q1.2.85 1.2 1.1 0 .45-1.3 1.5M37.4 29.1q-.65 2.45-2.35 3.35l-1 .35-1.2.1-2.45-.25q-2.7-.55-5.35-2.35l-1.65-1.2q-3-2.4-4.35-5.4-.55-1.1-.8-2.25l-.35-1.75-.1-1.65.05-.4q.05-1.5 1-2.35l.7-.4M33.8 3.3l.2-.15 1.1-.9Q38.1 0 38.85 0l.7.1 2.15.85" fill="none" stroke="#150842" stroke-linecap="square" stroke-linejoin="miter-clip" stroke-miterlimit="3" transform="translate(.65 .65)"/><path d="m47.1 6.75 1.9 1.7.2.25.7 1.35.2 1.25q0 3.75-3.4 8.6L41.75 26q-2.9 3.05-4.35 3.1h-.05l-.7-.05-1.55-.35q-3.3-1.05-8.3-4.9-2.9-2.3-4.7-4.45l-.7-.9-.15-.2q-1.2-1.7-1.7-3.35-.45-1.35-.45-2.65 0-1.65 4.6-6.45Q28.3 1 30 1q.45 0 1.8.9l2 1.4-1.85 1.45-.15.15-1.05.8q.75 1.4 2.7 3.35 2.9 2.85 4.3 2.85l1.5-.25.35-.2 1.7-.95 1.6-1 1.6-.95 2.6-1.8" fill="none" stroke="#4f2618" stroke-linecap="square" stroke-linejoin="miter-clip" stroke-miterlimit="3" transform="translate(.65 .65)"/><path d="M30.4 32.65q-.6 7.3-3.85 10.8-4.1 4.35-13.7 4.35L9.1 45.9q-2.75-1.45-3.45-2l-.25-.25.15-.6.15-1.2q0-1.2-.8-4.15l-.25-1.05L2.7 34.4Q0 31.3 0 30q0-.7.7-2.5.85-2.2 1.75-2.2L5 27.4l.1.1 2.65 2.25 1.9 1.6 1.1.85q2.55 2 3.45 2 .85 0 1.9-1.2 1.1-1.25 1.1-2.45l-.5-1.4q-1-1.75-4-4.95l-2.4-2.65q-2.1-2.4-2.1-3 0-.85 1.3-1.65 1.25-.8 2.5-.8 1.05 0 3.6.8l2.25.75M5.3 31.7l.45-.2 2.4-.3 1.5.15m-4.35.35q-.35.15-.6.4-.6.6-.6 2.1l.55 2.45" fill="none" stroke="#28235d" stroke-linecap="square" stroke-linejoin="miter-clip" stroke-miterlimit="3" transform="translate(.65 .65)"/></g><g id="B"><path d="M31.7 4.65 33 4.2l13.9 10.4-2.4 2.35-12.8-12.3" fill="#8acb9f" fill-rule="evenodd" transform="translate(.65 .65)"/><path d="m9 5.15 8.8-4.9.05.2.75 5.5v.25q0 5.7-4.65 5.7-2.35 0-3.55-1.8l-.9-2.15-.5-2.8" fill="#9278e7" fill-rule="evenodd" transform="translate(.65 .65)"/><path d="m30.6 27.4.1.2 2.95 5.35q3.3 5.55 6.7 9.65-2.45 1.2-5.7 3.1L28.9 49q-5.5-8.75-6.9-11.3-1.5-2.6-4.45-8.3l.65.5 1.8 1.45.95.75.4-.15 1.75-.75q2.4-1.05 4.8-2.3l1-.5 1-.55.7-.45M7.05 6.25 9 5.15l.5 2.8.9 2.15q1.2 1.8 3.55 1.8 4.65 0 4.65-5.7v-.25l-.75-5.5-.05-.2.4-.25 1.35.8.9 3.95.15.7.5 4.25q0 2.1-1.6 5.05l-1.85 2.85-.1.15-.9 1-3.1-2.15L9 13.45l-.7-.5-.65-3.15-.25-1.35-.35-2.2" fill="#5149b6" fill-rule="evenodd" transform="translate(.65 .65)"/><path d="m2.4 8.9 4.65-2.65.35 2.2.25 1.35.65 3.15L2.4 8.9M19.55.8l.65.4 1.9 2.6.85 1q2.3 2.5 5.7 5.2L17.9 18.6l-.7.5-.55-.35.9-1 .1-.15 1.85-2.85q1.6-2.95 1.6-5.05l-.5-4.25-.15-.7-.9-3.95" fill="#261073" fill-rule="evenodd" transform="translate(.65 .65)"/><path d="M44.5 16.95q-3.9 3.6-7.95 6.55l-4.5-6.95L30.4 14l.9-2.25.25-.55.65-2.2q0-.35-.4-.8l-.45-.35.05-.05-3.2-1.9 3.5-1.25 12.8 12.3M17.55 29.4 0 15.4l.5-7.8 1.9 1.3 5.9 4.05.7.5-.2 1.7.1 1.05.7 2.05q.6 1.4 1.75 3.05 1.45 2.1 6.85 8.6l-.65-.5" fill="#b3743f" fill-rule="evenodd" transform="translate(.65 .65)"/><path d="m32.8 26.05-2.1 1.3-.1.05-.7.45L28 19.6l-.25-1.1-.9-3.7L25 16.6l-.1.1 3 12.2q-2.4 1.25-4.8 2.3L19.3 22l-1.4-3.4L28.65 10l2.7-2.15.45.35q.4.45.4.8l-.65 2.2q-.4.3-.9.75l-1.55 1.4.05.3q.2 1.2 1.15 4.3l2.5 8.1M9 13.45l4.55 3.15 1.9 3.6-3.95-2.35-2.6-1.65-.1-1.05.2-1.7" fill="#e6ffa4" fill-rule="evenodd" transform="translate(.65 .65)"/><path d="m36.55 23.5-3.75 2.55-2.5-8.1q-.95-3.1-1.15-4.3l-.05-.3 1.55-1.4q.5-.45.9-.75l-.25.55-.9 2.25 1.65 2.55 4.5 6.95M8.9 16.2l2.6 1.65 3.95 2.35.4.8 1.35 2.6 4.15 8.35-.4.15-.95-.75-1.8-1.45q-5.4-6.5-6.85-8.6-1.15-1.65-1.75-3.05l-.7-2.05m19 12.7-3-12.2.1-.1 1.85-1.8.9 3.7.25 1.1 1.9 8.25-1 .55-1 .5" fill="#f0df62" fill-rule="evenodd" transform="translate(.65 .65)"/><path d="m13.55 16.6 3.1 2.15.55.35.7-.5 1.4 3.4 3.8 9.2-1.75.75-4.15-8.35-1.35-2.6-.4-.8-1.9-3.6" fill="#fff" fill-rule="evenodd" transform="translate(.65 .65)"/><path d="m20.2 1.2 8 4.7 3.2 1.9-.05.05-2.7 2.15q-3.4-2.7-5.7-5.2l-.85-1-1.9-2.6" fill="#4c6f57" fill-rule="evenodd" transform="translate(.65 .65)"/><path d="M31.7 4.65 33 4.2l13.9 10.4-2.4 2.35q-3.9 3.6-7.95 6.55l-3.75 2.55-2.1 1.3-.1.05-.7.45-1 .55-1 .5q-2.4 1.25-4.8 2.3l-1.75.75-.4.15-.95-.75m-2.45-1.95L0 15.4l.5-7.8 1.9 1.3 5.9 4.05.7.5 4.55 3.15 3.1 2.15.55.35.7-.5L28.65 10l2.7-2.15.05-.05-3.2-1.9 3.5-1.25M17.55 29.4l.65.5" fill="none" stroke="#4f2618" stroke-linecap="square" stroke-linejoin="miter-clip" stroke-miterlimit="3" transform="translate(.65 .65)"/><path d="m30.6 27.4.1.2 2.95 5.35q3.3 5.55 6.7 9.65-2.45 1.2-5.7 3.1L28.9 49q-5.5-8.75-6.9-11.3-1.5-2.6-4.45-8.3M2.4 8.9l4.65-2.65L9 5.15l8.8-4.9.4-.25 1.35.8.65.4 8 4.7" fill="none" stroke="#150842" stroke-linecap="square" stroke-linejoin="miter-clip" stroke-miterlimit="3" transform="translate(.65 .65)"/><path d="m25.5 46.8 2.4 2.15q3.15 2.65 4.2 2.65.4 0 .8-.4l.4-.95q0-1.5-1.1-3.55l-.7-1.2q-2.15-3.4-4.75-3.4-.9 0-1.9.85.15-1.4 1.7-2.7l4.1-2.85 1.35-.1 4.85-.1.05.7q0 1.95-1.8 4.75-1.6 2.45-1.75 3.6l-.05.3q0 1.8 1.1 3.45 1.3 1.9 3.2 1.9l3.6-.5 2.7-2.2 2.75 1.7q1.85 1.1 1.85 2.4 0 1.1-1.9 1.7l-3.35.5q-10.35 0-16.6-5.7l-.25-.6-.9-2.4" fill="#79bbde" fill-rule="evenodd" transform="translate(.65 .65)"/><path d="M25.5 46.8q-.7-2.1-.7-3.55l.05-.3q1-.85 1.9-.85 2.6 0 4.75 3.4l.7 1.2q1.1 2.05 1.1 3.55l-.4.95q-.4.4-.8.4-1.05 0-4.2-2.65l-2.4-2.15" fill="#9affea" fill-rule="evenodd" transform="translate(.65 .65)"/><path d="m36.85 37.2 5.6-.45 9.35-.55q7.95 0 9.8 1.2 2.6 1.65 2.6 8.6 0 7.65-5.7 10.2l-5.45 1.5q-3.9 1.1-6.9.95l-8.7-1.35q-5.7-1.2-7.55-2.75-1.75-1.45-3.25-4.75 6.25 5.7 16.6 5.7l3.35-.5q1.9-.6 1.9-1.7 0-1.3-1.85-2.4l-2.75-1.7-2.7 2.2-3.6.5q-1.9 0-3.2-1.9-1.1-1.65-1.1-3.45l.05-.3q.15-1.15 1.75-3.6 1.8-2.8 1.8-4.75l-.05-.7" fill="#4e4f87" fill-rule="evenodd" transform="translate(.65 .65)"/><path d="m24.85 42.95-.05.3q0 1.45.7 3.55l.9 2.4.25.6q1.5 3.3 3.25 4.75 1.85 1.55 7.55 2.75l8.7 1.35q3 .15 6.9-.95l5.45-1.5q5.7-2.55 5.7-10.2 0-6.95-2.6-8.6-1.85-1.2-9.8-1.2l-9.35.55-5.6.45-4.85.1-1.35.1-4.1 2.85q-1.55 1.3-1.7 2.7z" fill="none" stroke="#28235d" stroke-linecap="square" stroke-linejoin="miter-clip" stroke-miterlimit="3" transform="translate(.65 .65)"/></g><g id="C"><path d="m29.75 6.6.8.6.4.7q.65 1.75.65 6.5 0 3.8-.65 6.1-.7 2.25-2 3.05l-1.15.55-1.75.55-.9.25.95-1.3 1-1.15q1.15-1.25 1.9-2.8 1.1-2.4 1.1-5.4l-.35-7.65" fill="#4c6f57" fill-rule="evenodd" transform="translate(.65 .65)"/><path d="M2.55 7.75q3.95-3.4 5.5-4.1l.3-.05 2.75-.75L22.45 0q4.8 4.65 7.3 6.6l.35 7.65q0 3-1.1 5.4-.75 1.55-1.9 2.8l-1 1.15-.95 1.3h-.1l-2.05.5-.95.25-.55.15-.55-.4-.7-.55-.65-.5-4.2-3.15-.2-.15.2-.2.2-.2.65-.25q.7 0 2.75 1.2l.4.25.6.35q1.2.6 1.8.6l1.2-.2q1.2-.4 2.1-1.6.95-1.25 1.2-2.9l.1-1.45q0-4.5-1.3-4.65l-2.05 2-.85.7-2.2 1.25-.6.2-1.85.45-1.45.1-1.25-.1-.25-.05-1.4-.5-.8-.55h.45q3.1-.1 6.15-1.4l.4-.15q1.45-.7 2.4-1.55 1.7-1.55 1.7-3.7 0-1.55-1.1-3.9l-1.45-2.4-6.5 2Q7.2 6.8 6.75 8q-.45 1.35-.45 2.8l.1 1.1-1.05-.45-1.4-1.3-1.4-2.4" fill="#261073" fill-rule="evenodd" transform="translate(.65 .65)"/><path d="m11.4 37.05-1.1.35v-1.8l.1.15 1 1.3m-2.45-10.6H8.9q-4.05-.85-6.3-4.25-.55-.85-.95-1.8l3.25 2.15q2.45 1.35 4.6 1.35l.8-.1.8-.4.4-.4.5-.7q.7-1.25.7-2.7 0-1.35-1.2-2.4l-.65-.55-.55-.3-3.5-1.9q-2.2-1.15-3.55-2.6Q1.9 10.4 1.35 8.7L2 8.2l.55-.45 1.4 2.4 1.4 1.3 1.05.45q.25 1.75 1.5 2.6.9.6 2.4.85l1.65.15h.45l.8.55 1.4.5.25.05 1.25.1 1.45-.1 1.85-.45.6-.2 2.2-1.25.85-.7 2.05-2q1.3.15 1.3 4.65l-.1 1.45q-.25 1.65-1.2 2.9-.9 1.2-2.1 1.6l-1.2.2q-.6 0-1.8-.6l-.6-.35-.4-.25q-2.05-1.2-2.75-1.2l-.65.25-.2.2-.2.2-.5-.35v.05l-1.85 2.95-.45.8-1.4 2.2-.7-.05-1.35-.2" fill="#5149b6" fill-rule="evenodd" transform="translate(.65 .65)"/><path d="m27.8 24.1.1 1.85v.25l.05.7.15 2.9v.85l-3.05 5.9-.6 1.1 1.15-6.5.45-6.5 1.75-.55" fill="#8acb9f" fill-rule="evenodd" transform="translate(.65 .65)"/><path d="M24.45 37.65 23 40.45 21.7 43l-1.7.2-1.5.2-2.4.35-2.35-3.5 1.05.4 2.55.95q1.6 0 2.65-1.75l.45-.95q1-2.45 1-6.4l-.15-1.4-1.3 1.4-.6.65-.55.65L17 36.05l-.55-.75-.25-.35-1.2-1.6-.35-.5-.1-.2-.7-1.05-.1-.15-.05-.05-.8-1.35.25-.65 3.6 4.55.15.15.2-.3 4.4-8 .55-.15.95-.25 2.05-.5h.1l.9-.25-.45 6.5-1.15 6.5" fill="#b3743f" fill-rule="evenodd" transform="translate(.65 .65)"/><path d="M1.65 20.4 1 18.65q-.85-2.7-.95-6.3L0 10.95Q0 9.9.35 9.5q.2-.25 1-.8.55 1.7 1.9 3.15 1.35 1.45 3.55 2.6l3.5 1.9.55.3.65.55q1.2 1.05 1.2 2.4 0 1.45-.7 2.7l-.5.7-.4.4-.8.4-.8.1q-2.15 0-4.6-1.35L1.65 20.4" fill="#9278e7" fill-rule="evenodd" transform="translate(.65 .65)"/><path d="m6.4 11.9-.1-1.1q0-1.45.45-2.8.45-1.2 7.7-3.6l6.5-2 1.45 2.4q1.1 2.35 1.1 3.9 0 2.15-1.7 3.7-.95.85-2.4 1.55l-.4.15q-3.05 1.3-6.15 1.4h-.9l-1.65-.15q-1.5-.25-2.4-.85-1.25-.85-1.5-2.6" fill="#4e4f87" fill-rule="evenodd" transform="translate(.65 .65)"/><path d="m11.65 37.45-.15-.25-.1-.15-1-1.3 1.1-2.55 1.4-3.15.8 1.35.05.05.1.15-.15.25-1.3 3.4-.75 2.2m3.55-16.4.2.15.05 1.2.05 1.95h4.1l.65.5h-4.7l.4 2.35.15.95.35 1.85.25 1.5.4 2.3-.2.3-.15-.15-.45-2.5-1.15-6.3-1.4.9-.05.05-2.1 1.35-.1-.1-.2-.25 3.65-2.45-2.55-.15.45-.8 1.95.35-.1-3.3v-.05l.5.35" fill="#fff" fill-rule="evenodd" transform="translate(.65 .65)"/><path d="m15.4 21.2 4.2 3.15h-1.35l-2.8-1.95-.05-1.2m5.55 4.2.55.4-4.4 8-.4-2.3.95-2.4-.6-.35.25-.5.65.45 3-3.3m-4.2 8.55-3.6-4.55-1.55-1.95 2.1-1.35.05-.05 2.55 5.4.45 2.5" fill="#ff45f4" fill-rule="evenodd" transform="translate(.65 .65)"/><path d="m20.25 24.85.7.55-3 3.3-.65-.45 1.6-3.4h1.35m-4.15 3.3-.15-.95 1.35 1.05-.25.5-.95-.6m.6 3.35-.25-1.5.6-1.25.6.35-.95 2.4" fill="#710f67" fill-rule="evenodd" transform="translate(.65 .65)"/><path d="m16.1 28.15.95.6-.6 1.25-.35-1.85m1.2.1-1.35-1.05-.4-2.35h3.35l-1.6 3.4" fill="#380b36" fill-rule="evenodd" transform="translate(.65 .65)"/><path d="m15.45 22.4 2.8 1.95H15.5l-.05-1.95m-1.7 3.65 1.4-.9 1.15 6.3-2.55-5.4" fill="#d0318f" fill-rule="evenodd" transform="translate(.65 .65)"/><path d="m10.3 35.6-.95-1.3-.1-2.75-.2-3.5-.1-1.6 1.35.2.7.05.2.3.3.6 1.4 2.45-1.4 3.15-1.1 2.55-.1-.15m4.35-2.75.35.5 1.2 1.6.25.35-.15 1.1-.15.95q-.25 1.35-.7 1.65l-.3.1L15 39l-1.3-.9-.5-.45.5-1.5.05-.15.9-3.15" fill="#e6ffa4" fill-rule="evenodd" transform="translate(.65 .65)"/><path d="m13.75 40.25-.05-.05-.6-.85-.25-.35-.15-.2-1.05-1.35.75-2.2 1.3-3.4.15-.25.7 1.05.1.2-.9 3.15-.05.15-.5 1.5.5.45 1.3.9.15.1.3-.1q.45-.3.7-1.65l.15-.95.15-1.1.55.75 1.85-2.25.55-.65.6-.65 1.3-1.4.15 1.4q0 3.95-1 6.4l-.45.95q-1.05 1.75-2.65 1.75l-2.55-.95-1.05-.4" fill="#f0df62" fill-rule="evenodd" transform="translate(.65 .65)"/><path d="m12.85 23.7 1.85-2.95.1 3.3-1.95-.35M11.2 27l-.2-.3 1.4-2.2 2.55.15-3.65 2.45-.1-.1" fill="#ffbdfd" fill-rule="evenodd" transform="translate(.65 .65)"/><path d="m29.75 6.6.8.6.4.7q.65 1.75.65 6.5 0 3.8-.65 6.1-.7 2.25-2 3.05l-1.15.55-1.75.55-.9.25h-.1l-2.05.5-.95.25-.55.15M11.4 37.05l-1.1.35m-1.25-9.35-.1-1.6H8.9q-4.05-.85-6.3-4.25-.55-.85-.95-1.8L1 18.65q-.85-2.7-.95-6.3L0 10.95Q0 9.9.35 9.5q.2-.25 1-.8L2 8.2l.55-.45q3.95-3.4 5.5-4.1l.3-.05 2.75-.75L22.45 0q4.8 4.65 7.3 6.6M6.4 11.9l-.1-1.1q0-1.45.45-2.8.45-1.2 7.7-3.6l6.5-2 1.45 2.4q1.1 2.35 1.1 3.9 0 2.15-1.7 3.7-.95.85-2.4 1.55l-.4.15q-3.05 1.3-6.15 1.4h-.9l-1.65-.15q-1.5-.25-2.4-.85-1.25-.85-1.5-2.6M11 26.7l-.7-.05-1.35-.2" fill="none" stroke="#150842" stroke-linecap="square" stroke-linejoin="miter-clip" stroke-miterlimit="3" transform="translate(.65 .65)"/><path d="m27.8 24.1.1 1.85v.25l.05.7.15 2.9v.85l-3.05 5.9-.6 1.1-1.45 2.8L21.7 43l-1.7.2-1.5.2-2.4.35-2.35-3.5-.05-.05-.6-.85-.25-.35-.15-.2-1.05-1.35-.15-.25-.1-.15-1-1.3-.1-.15-.95-1.3-.1-2.75-.2-3.5" fill="none" stroke="#4f271e" stroke-linecap="square" stroke-linejoin="miter-clip" stroke-miterlimit="3" transform="translate(.65 .65)"/><path d="m15.2 21.05.2.15 4.2 3.15.65.5.7.55.55.4-4.4 8-.2.3-.15-.15-3.6-4.55-1.55-1.95-.1-.1-.2-.25-.1-.1-.2-.3 1.4-2.2.45-.8 1.85-2.95v-.05l.5.35z" fill="none" stroke="#3d113d" stroke-linecap="square" stroke-linejoin="miter-clip" stroke-miterlimit="3" transform="translate(.65 .65)"/></g><g id="D" fill-rule="evenodd"><path d="M1.05 42.7 0 41.8l.05-.25q1.15-6.1 3.25-12.7 2.8-8.8 6.15-13.3l.15.95 1.9 12.8v.15l.25.15.9.5.2.1.05-.4q.25-4.2 1.25-9.45l1-5.85.15-1q6.9 7.05 8.65 9.8l2.75 5.9.05.2.1-.05 5.05 5.05-.1.3-4.75-3.65-4.15-2.6-2.2-.95-.75-.2-1.15-.15-.35-.05h-.25l-.35.05-.4.3q-3.3 2.6-5.85 6.55-1.4 2.1-2.6 4.55-1.7 3.5-3 7.75-4.25 13.5-3.7 22l.75-1.7q3.1-7.25 6.6-12.5l1.15-1.7q5.15-7.2 12.45-12.5l1.1 1-.75.75-.1.05q-1.25.85-4.5 4.05l-.35.35-1 .95-.3.3-.1.1-.45.5-.7.7-.1.15-.5.5-.1.1-3.4 3.75-1.5 1.9-.05.05q-2.65 3.95-5.7 10.45-1.85 4-3.05 7.55l-.45 1.25Q.7 71.6.7 69.3q0-11.35 3.05-21.55l.05-.15.4-1.25.05-.15.5-1.5-2.15-.95-.1-.05-1.45-1m33-9.45.15-.7.1-.5.65-2.6 13.3-6.15 2.5-9.15Q52.6 6.6 53.2 0l.15.2q1.95 2.05 3.8 4.9 2.4 3.65 4.7 8.6l1.05 2.35q3.2 7.35 4.95 14.05l.35 1.45.05.2.2.8-9.2 4.8-.3.15-4.45 2.15-.15.05-.95.45-.9.45-1 .5-.25.1-.9.45-3.55 1.8-3.6-.1-1.05-.05-.5-.15-.65-.25-.85-.3-1.55-.6-5.25-2.05v-.15l.1-1.95v-.2q.05-1.4.25-2.55l.05-.1v-.15l.3-1.6m-23.85.15 1.1-1.6-.55-.2-.3-.15-.35-.3-.05-.35-.5-4.55L9 20.8l-.15-2.7-.4 1.05-2.7 7.75q-3 9.05-3.8 14.2l3.25 2.35q1.4-3.85 3.2-7.05l1.8-3m8.15-8.15h.35l1.55.25 1.65.55-1.3-2.2-2.5-3.8-1.25-1.9L16 16.8v.45l-.8 10.1q1.1-1.05 2.3-1.95l.15-.15h.7M58 7.25q-1.9-3.3-4-5.65l-.25 1.8q-1.7 11.55-4.25 20.1-6.05 3.75-12.4 6.15l-1 .35-.75 5.65-.4 3-.1.85 7.4 2.25h4.6l3.9-1.6.75-.35h.05l1-.5 1.75-.85 4.55-2.35L67 31.35l-.15-.55q-1.95-7.55-4.15-13.5-2.25-5.85-4.7-10.05" fill="#434472"/><path d="m10.2 33.4-1.8 3-.85-3.15q-.4-1.6-.4-4.7 0-1.5.7-5.8l.6-3.6.4-1.05.15 2.7q-.55 4.8-.65 8.9 0 2.3.25 2.65l1.6 1.05m10.05-7.9-2.15-5.45 2.5 3.8 1.3 2.2-1.65-.55M3.05 66.6q1.45-5.55 4-10.9 2.5-5.25 7.35-12.45Q16.3 40.4 20 36q1.7-2.05 1.7-3.65 0-1.85-.6-3.2l-1.15-1.85.75.2 2.2.95 4.15 2.6 4.75 3.65-1.25 2.9-1.05 1.8-.65.9-.35.45-.8.9-1.2.7h-.05l-.4-.15-.85-.6-.3-.25-.55-.45-1.1-1q-7.3 5.3-12.45 12.5l-1.15 1.7q-3.5 5.25-6.6 12.5" fill="#9e9bd5"/><path d="M8.4 36.4q-1.8 3.2-3.2 7.05L1.95 41.1q.8-5.15 3.8-14.2l2.7-7.75-.6 3.6q-.7 4.3-.7 5.8 0 3.1.4 4.7l.85 3.15M16 17.25l1.65 5.6.7 2.4h-.7l-.15.15q-1.2.9-2.3 1.95l.8-10.1M3.05 66.6l-.75 1.7q-.55-8.5 3.7-22 1.3-4.25 3-7.75 1.2-2.45 2.6-4.55 2.55-3.95 5.85-6.55l.4-.3.35-.05h.25l.35.05 1.15.15 1.15 1.85q.6 1.35.6 3.2 0 1.6-1.7 3.65-3.7 4.4-5.6 7.25-4.85 7.2-7.35 12.45-2.55 5.35-4 10.9m50.7-63.2 1.15 7.85q1 6.25 1 8.95 0 7.05-3.1 10.55-3.1 3.5-9.55 3.5-2.55 0-4.2-1.1-1.75-1.25-1.95-3.5 6.35-2.4 12.4-6.15 2.55-8.55 4.25-20.1m-2.5 37.8.25-.1-.2 8.95-2.2 1.35 2.15-10.2m-23.5 2.45 1.05-1 1.2 7.9q-1.1.6-2.05 1.15l-.15-4.65-.05-3.4" fill="#fff"/><path d="m9 20.8.55 5.45.5 4.55.05.35.35.3.3.15.55.2-1.1 1.6-1.6-1.05q-.25-.35-.25-2.65.1-4.1.65-8.9m9.35 4.45-.7-2.4-1.65-5.6v-.45l.85 1.35 1.25 1.9 2.15 5.45-1.55-.25h-.35m17 10.4.85 1q1.25 1.2 3.25 1.2 2.6 0 6.4-1.5l8.55-3.6q3-1.2 4.65-4.35 1.65-3 1.65-7.2 0-6.6-2.7-13.95 2.45 4.2 4.7 10.05l.55 2.6q.9 4 .9 6.9 0 3.85-5.05 8.1l-1.05.8-3.7 2.45-1.8.85-1 .45q-3.45 1.25-7 1.25l-5.4-.75q-2.55-.55-4.2-1.3l.4-3" fill="#7c7e9f"/><path d="M53.75 3.4 54 1.6q2.1 2.35 4 5.65 2.7 7.35 2.7 13.95 0 4.2-1.65 7.2-1.65 3.15-4.65 4.35l-8.55 3.6q-3.8 1.5-6.4 1.5-2 0-3.25-1.2l-.85-1L36.1 30l1-.35q.2 2.25 1.95 3.5 1.65 1.1 4.2 1.1 6.45 0 9.55-3.5 3.1-3.5 3.1-10.55 0-2.7-1-8.95L53.75 3.4" fill="#a6a8d8"/><path d="M62.7 17.3q2.2 5.95 4.15 13.5l.15.55-8.15 4.75-4.55 2.35-1.75.85-1 .5h-.05l-.75.35-3.9 1.6h-4.6l-7.4-2.25.1-.85q1.65.75 4.2 1.3l5.4.75q3.55 0 7-1.25l1-.45 1.8-.85 3.7-2.45 1.05-.8q5.05-4.25 5.05-8.1 0-2.9-.9-6.9l-.55-2.6m2.75 31.5-.65 1.35q-1.6 2.7-5.25 3.9L54.6 55.1l.65-1.6 3.55-1q3-1.1 6.65-3.7m-8.8-4.6 1.1-.55-1.5 4.1.15-1.35.25-2.2m-38.5 10.55.15 1.1q-1.45.35-3.5-.8l-.5-.35 1.95.05h1.9m33.9-.75-.05.65v.05l-2.35-.05.05-.25 2.35-.4M38.6 42l1.55.6-3.9 3.25 1.1-1.75L38.6 42" fill="#8acb9f"/><path d="m67.85 30.1 3.65-3.75.4 1.05.15 1.35.05 1.35v2q0 7.4-1.65 12.8-.95 3.05-2.45 5.45-4.7 7.7-13.95 6.2l.55-1.45 4.95-1.05q3.65-1.2 5.25-3.9l.65-1.35 2.5-6.45q2.4-6.8 2.65-10.1v-.7l-.1-1.4-.05-.8h-.15l-1.15 1.3-.95.9-.35-1.45m-16 26.5-2.1-.35v.05l-1.25 3.8-.6 1.6-.5 1q-1.75 1.35-6.15 3.35l-.15.05-5.75 2.2-2.45.55-1.75-.45-.5-.15Q27.7 67.3 25 65.8q-3.7-2-6.2-4.75L18.25 60l-.35-.9-.2-.7-.1-.05-3.7-1.15q-2.25-.75-3.4-2.15l1.5-1.9 2.3 1.55.5.35q2.05 1.15 3.5.8l-.15-1.1-.4-1.8-.65-2.85-1.6-.8.5-.5.1-.15 1.1.6v-.15l-.25-.6-.15-.55.45-.5.45 1.95.05.2 1.1 5.1.2 1L20.1 60q.25.85 3.7 4.1 2.15 2.05 5.3 2.9l3.4.6.6-.05q2-.2 4.5-1.45l.5-.3 5.2-2.9.15-.05q2.75-1.25 4.15-4.3.85-1.9 1.1-3.95l.05-1.5v-.3l.1-.1.85-.55v2.25l-.05.25 2.35.05-.15 1.9m-48.05-9-1.85-2.2q-.9-1.4-.9-2.7l1.45 1 .05.1.7 1.15 1 1.25-.05.15-.4 1.25m60.95-8.55-1.3 2.35q.65-.5 1.65-.75l2.05-.4.05.05q-4.8 1.75-7.25 7.65l-.5-.3q.6-2.7 4.5-7.85l1.95-2.5-1.15 1.75m-1.3 2.35-.3.2h.15l.15-.2" fill="#29235e"/><path d="m68.2 31.55.95-.9 1.15-1.3h.15l.05.8q-1.75 3-4.15 5.4-3.6 3.65-5.7 3.65-.65 0-1.15-.6-.4-.45-.55-1.1l.3-.15 9.2-4.8-.2-.8-.05-.2" fill="#9affea"/><path d="m2.6 43.75 2.15.95-.5 1.5-1-1.25-.7-1.15.05-.05m67.9-13.6.1 1.4v.7l-1.8 2.3-4.05 4.5 1.15-1.75-1.95 2.5q-2.35 1.95-4.4 2.7l.45-1.25-2.9 1.6q-1.15-.05-1.8-.65-.65-.6-.85-1.85l.05-.7 4.45-2.15q.15.65.55 1.1.5.6 1.15.6 2.1 0 5.7-3.65 2.4-2.4 4.15-5.4" fill="#79bbde"/><path d="M70.6 32.25q-.25 3.3-2.65 10.1l-2.5 6.45q-3.65 2.6-6.65 3.7l-3.55 1 4.3-11q2.05-.75 4.4-2.7-3.9 5.15-4.5 7.85l.5.3q2.45-5.9 7.25-7.65l-.05-.05-2.05.4q-1 .25-1.65.75l1.3-2.35 4.05-4.5 1.8-2.3M48.75 52.8v.3L48 54.55l-2.05 4-2.5 4.3-.15.05-5.2 2.9-.5.3 2.6-3.2q4.6-6.05 4.6-8.85 0-4.6-4.05-4.6-1 0-7.9 3l-7.15 3q-.75 0-3-1.8l-3.85-3.2-1.1-.85-.05-.2-.45-1.95.1-.1.3-.3 1-.95q2.05 1.45 6.8 5.6l.45.4.55.45 1.1.95.15-.05.3-.2 2.15-1.4 2.25-1.75 1.05-.85.1-.1.15-.15 1.1-.9 6.2-5.2.65.25.5.15 1.05.05 3.6.1 3.55-1.8-3 12 1.4-.85M15.5 49.3l1.6.8.65 2.85.4 1.8h-1.9l-1.95-.05-2.3-1.55 3.4-3.75.1-.1m34.2 2.85.1-.05 2.55-1.7-.3 3.6-2.35.4v-2.25m4.75-11.8q.2 1.25.85 1.85.65.6 1.8.65l-3 1.65.35-4.15" fill="#4e4f87"/><path d="m31.9 34.4.15-.45.6-.3.15-.05.6-.2.65-.15-.3 1.6h-.2l-.95.1-.35.05v.05q-1.2 3.6-2.3 5.75l-1.15 1.85-1.05 1-1.05.35-.3-.2-.65-.5-.2-.15-.1-.1-1.1-.8-.75-.6.75-.75.55.45.3.25.85.6.4.15h.05l1.2-.7.8-.9.35-.45.65-.9 1.05-1.8 1.25-2.9.1-.3m22.15 22.15-2.8 7.1.6-7.05.15-1.9v-.05l.05-.65.3-3.6-2.55 1.7-.1.05-.85.55-.1.1-1.4.85 3-12 .9-.45-2.15 10.2 2.2-1.35L52.95 49l1.3-.85L52.5 58l1.75-4.75 2-5.5 1.5-4.1-1.1.55-1.45.7-1.5.7-.85.4.55-5.85.95-.45.15-.05-.05.7-.35 4.15 3-1.65 2.9-1.6-.45 1.25-4.3 11-.65 1.6-.55 1.45M40.15 42.6l.85.3-6.2 5.2-1.1.9-.15.15-.1.1-1.05.85-2.25 1.75-2.15 1.4-.3.2-.15.05-1.1-.95-.55-.45-.45-.4q-4.75-4.15-6.8-5.6l.35-.35 5.3 3.9 2.15 1.6 1 .7.5-.25q.95-.55 2.05-1.15l2.15-1.45 1.9-1.45 1.3-1.05.9-.75 3.9-3.25" fill="#4f2618"/><path d="m51.5 41.1 1-.5-.05 2.05v6.3l.5-1.2V49l-1.65 1.05.2-8.95" fill="#f0e065"/><path d="m52.5 40.6.9-.45-.55 5.85.85-.4-.4 1.2-.35.95-.5 1.2v-6.3l.05-2.05m2.7 4.3 1.45-.7-.25 2.2-.15 1.35-2 5.5.45-4.45.5-3.9M33.75 34.85V35l-.05.1q-.2 1.15-.25 2.55v.2l-.1 1.95v.15L38.6 42l-1.25 2.1-1.1 1.75-.9.75-1.3 1.05 1.9-4.25-4.35-1.8v-.25l1-6.4.95-.1h.2M19 45.75q3.25-3.2 4.5-4.05l.1-.05.75.6-.75.55q-2.15 1.65-2.15 2.5l1.1 1.7.45.65 1.3 2-5.3-3.9" fill="#b3743f"/><path d="m53.7 45.6 1.5-.7-.5 3.9-.45 4.45L52.5 58l1.75-9.85-1.3.85v-1.25l.35-.95.4-1.2" fill="#e8f895"/><path d="m48.75 53.1-.05 1.5q-.25 2.05-1.1 3.95-1.4 3.05-4.15 4.3l2.5-4.3 2.05-4 .75-1.45" fill="#89c99e"/><path d="m32.6 34.95-1 6.4v.25l4.35 1.8-1.9 4.25-1.9 1.45-1.2-4.6-1-3.7q1.1-2.15 2.3-5.75V35l.35-.05M22.55 47l-1.1-1.7q0-.85 2.15-2.5l.75-.55 1.1.8.1.1-1.05 1.5L22.55 47m3.85-3.2.3.2 1.05-.35.05 3.4.15 4.65-.5.25-1-.7-.1-3.1.05-4.35" fill="#ffed75"/><path d="m24.3 49.65-1.3-2-.45-.65 1.95-2.35 1.05-1.5.2.15.65.5-.05 4.35.1 3.1-2.15-1.6m4.5-7 1.15-1.85 1 3.7 1.2 4.6L30 50.55l-1.2-7.9" fill="#e6ffa5"/><path d="M37.6 66.1q-2.5 1.25-4.5 1.45l-.6.05-3.4-.6q-4.75-3.9-6.2-5.6-2.35-2.75-4.05-10.95l3.85 3.2q2.25 1.8 3 1.8l7.15-3q6.9-3 7.9-3 4.05 0 4.05 4.6 0 2.8-4.6 8.85l-2.6 3.2" fill="#a5e1ff"/><path d="M29.1 67q-3.15-.85-5.3-2.9-3.45-3.25-3.7-4.1l-1.05-4.3-.2-1-1.1-5.1 1.1.85q1.7 8.2 4.05 10.95 1.45 1.7 6.2 5.6" fill="#dcfff8"/><path d="m44.35 52.4-.5-1.55q-.5-.9-1.3-1l-.2-.6-.95-2.05 2 .45 1.35.35.15.05v.15q.05 2.4-.55 4.2m-7.4-1.5q-1 .5-1.5 1.95-.8-1.4-.65-2.05.6-1.2 2.05-2.1l.05 2 .05.2" fill="#7c7c7c"/><path d="M42.55 49.85q.8.1 1.3 1l.5 1.55-.2.5-.45.95q-1.45 2.6-4.2 2.6l-.5-.1-.25.1q-.95 0-2.55-2.4L35.55 53l-.1-.15q.5-1.45 1.5-1.95.1 1.45.45 2.55.8 2.6 2.6 2.6 1.25 0 2.15-1.55.75-1.35.75-2.65l-.2-1.4-.15-.6m-.1 1q-.35 1.2-1.2 1.2l-.4-.1-.1-.05-.15-.15-.05-.05q-.3-.35-.3-1 0-1.05 1.1-1.05.5 0 .75.35l.35.85m-1.95 1.7-.05.45q-.1.5-.4.5l-.45-.35-.05-.25.05.05.2-.45.3-.25.35.25.05.05" fill="#fff"/><path d="M44.35 52.4q.6-1.8.55-4.2v-.15l-.15-.05-1.35-.35-2-.45h-.2q-1.7.05-3.65 1.1l-.5.3-.2.1q-1.45.9-2.05 2.1-.15.65.65 2.05l.1.15.65 1.05q1.6 2.4 2.55 2.4l.25-.1.5.1q2.75 0 4.2-2.6l.45-.95.2-.5m2.7-4.7q-.9 4.05-1.85 5.85-1.9 3.5-5.5 3.5-1.75 0-3.25-1.7-1.35-1.6-1.95-3.9l-.05.05-.75 1.25-.4.95q-.45-2.65 1.75-5.25 2.5-2.9 6.15-2.9 1.6 0 4.2 1.3l1.65.85" fill="#021a0a"/><path d="m41.4 47.2.95 2.05.2.6.15.6.2 1.4q0 1.3-.75 2.65-.9 1.55-2.15 1.55-1.8 0-2.6-2.6-.35-1.1-.45-2.55l-.05-.2-.05-2 .2-.1.5-.3q1.95-1.05 3.65-1.1h.2m-1.85 5.7q-.4-.25-.85-.9-.35-.5-.95-.5l-.35.05.7 2.35.3.5.15.25q.55.8 1.3.8 1.4 0 2.1-1.4l.2-.4q.35-.95.35-2.1l-.05-.7-.35-.85q-.25-.35-.75-.35-1.1 0-1.1 1.05 0 .65.3 1l.2.2.2.6-.15.4-.3-.35-.05-.05-.35-.25-.3.25q-.3.2-.25.4" fill="#011408"/><path d="m38.4 54.4-.3-.5-.7-2.35.35-.05q.6 0 .95.5.45.65.85.9l.05.25.45.35q.3 0 .4-.5l.05-.45.3.35.15-.4-.2-.6.1.05.4.1q.85 0 1.2-1.2l.05.7q0 1.15-.35 2.1-.1-.5-.55-.5l-.75.65-.9.65-.65-.25-.45-.25-.4.1-.05.35m2.4-1.5-.05.05h.05v-.05" fill="#1f9c2a"/><path d="m38.4 54.4.05-.35.4-.1.45.25.65.25.9-.65.75-.65q.45 0 .55.5l-.2.4q-.7 1.4-2.1 1.4-.75 0-1.3-.8l-.15-.25" fill="#beff72"/><path d="M25.1 53.95q-.45-.45-.9-.45l-.15.2.1.9q0 4.35-1.85 4.35-1.55 0-2.6-4.3L19.2 52l-.25-1.7-.25-1.8q2.3.65 3.8 1.85 1.5 1.25 2.6 3.6m-4.55-2.1-.05-.15v-.2l.2-.7.2-.4q0-.3-1-.3l-.35.1h-.1l.25 1.7.7 2.7q1.05 3.65 1.9 3.65.9 0 1.2-4.25 0-.75-.35-1.3l-.05-.1-.45-.45-.65-.2q-.4 0-.4.75l.2.65.3.3.25.2-.4.15q-.8 0-.8-1l.1-.65-.3.05-.35-.3-.05-.25" fill="#011408"/><path d="m19.7 51.9-.25-1.7h.1l.35-.1q1 0 1 .3l-.2.4-.2.7v.2l.05.15-.85.05" fill="#7a7b7a"/><path d="m20.6 52.1.35.3.3-.05-.1.65q0 1 .8 1l.4-.15h.15l.25-.05-.05 1.2q-.3-.35-1.05-.35-.25 0-.25.4l.7 1.05-.25.05q-.55 0-.9-1-.4-1.05-.4-2.55l.05-.5" fill="#176720"/><path d="m19.7 51.9.85-.05.05.25-.05.5q0 1.5.4 2.55.35 1 .9 1l.25-.05.1-.05.35-.5.15-.55.05-1.2-.25.05h-.15l-.25-.2-.3-.3-.2-.65q0-.75.4-.75l.65.2.45.45.05.1q.35.55.35 1.3-.3 4.25-1.2 4.25-.85 0-1.9-3.65l-.7-2.7" fill="#fff"/><path d="m22.1 56.1-.7-1.05q0-.4.25-.4.75 0 1.05.35l-.15.55-.35.5-.1.05" fill="#b8fc6f"/><path d="m37.6 61 .1.2q0 .4-1.2 1.1l-.5.25-.6.3h-8.6l-.15-.25 8.5-.7.7-.3 1.5-.8.25.2" fill="#2b2761"/></g><g id="E"><path d="m10.95 16.85.2.65q-.45 1.55-1.4 2.8Q8.2 22.35 6 23.7l-1.6-.55-1.75-1.55L0 17.85l1.35-3L3.45 11 5.6 6.25l.8 1.3 1 1.75 1.65 3.2.8 1.5-3.9-4.45.35 4.75.3 7.2v.05h.05q1.1-.8 4.3-4.7m-9.35.45 1.85 2.2 1.85 2.1.25-2.25V12.3L5.4 9.8l-3.8 7.5m27-5.55-.5 2.4-1.25 4.95q-2.1-1.9-3.4-2.65-.3 3.35-1.6 7.7-6.15-3.6-7.75-5-1.35-1.2-1.35-3.25l.1-1.4v-.3l.05-.4.35-3.8.75-7.2 1.95 2.05L18 11.4l.25.85-1.5 7.3 3.15 2.3q-.05-.7.25-2.75l.65 2.35h.05l.05-.45.95-2 1.45-5.25.1-.4q-.3-.9-1-1.85l-1-1.2.15-2.25 3.15 4.45.1-.55-.55-3.7L23.9 6 23.1.8l3.65 3.7q1.35 1.55 1.9 2.75l-.25-.2L25.8 5l-1.25-1 1.05 5.1.05.45q.55 3.65.55 5.5l-.1.8v.05l2.5-4.15M24.55 4l-.1-.45.05.4.05.05m-8.4 9.65.3-.9.95-3.15-.8-1.35-1.65-2.4-.95 10.9.65.4.65.25q.15-1.5.85-3.75m7.3 2.8.1-2-.15-1.1.15 1.1-.1 2" fill="#a6a8d8" fill-rule="evenodd" transform="translate(.65 1.1)"/><path d="m1.6 17.3 3.8-7.5.15 2.5v7.05L5.3 21.6l-1.85-2.1-1.85-2.2m19.95-9.25.3-3.2.5-4.85.75.8.8 5.2.35 2.25.55 3.7-.1.55-3.15-4.45m-5.4 5.6q-.7 2.25-.85 3.75l-.65-.25-.65-.4.95-10.9 1.65 2.4.8 1.35-.95 3.15-.3.9m2.1-1.4.25.85.3 1.05 1.35 4.95q-.3 2.05-.25 2.75l-3.15-2.3 1.5-7.3" fill="#fff" fill-rule="evenodd" transform="translate(.65 1.1)"/><path d="M10.95 16.85q-3.2 3.9-4.3 4.7l-.05-.05-.3-7.2-.35-4.75L9.85 14l.25.5.85 2.35m17.7-9.6.3 1.35-.35 3.15-2.5 4.15v-.05l.1-.8q0-1.85-.55-5.5l-.05-.45L24.55 4l1.25 1 2.6 2.05.25.2m-12.7-2.4L21.1 10l.3.3 1 1.2q.7.95 1 1.85l-.1.4L21.85 19l-.95 2-.05.45h-.05l-.65-2.35-1.35-4.95-.3-1.05-.25-.85-.25-.85-2.05-6.55" fill="#7c7e9f" fill-rule="evenodd" transform="translate(.65 1.1)"/><path d="m9.85 14-.8-1.5L7.4 9.3l-1-1.75-.8-1.3L3.45 11l-2.1 3.85-1.35 3 2.65 3.75 1.75 1.55 1.6.55q2.2-1.35 3.75-3.4.95-1.25 1.4-2.8l-.2-.65-.85-2.35-.25-.5m18.8-6.75.3 1.35-.35 3.15-.5 2.4-1.25 4.95q-2.1-1.9-3.4-2.65-.3 3.35-1.6 7.7-6.15-3.6-7.75-5-1.35-1.2-1.35-3.25l.1-1.4m.05-.7.35-3.8.75-7.2 1.95 2.05L21.1 10l.3.3.15-2.25.3-3.2.5-4.85.75.8 3.65 3.7q1.35 1.55 1.9 2.75m-5.25 6.1q-.3-.9-1-1.85l-1-1.2m2 3.05.15 1.1-.1 2" fill="none" stroke="#434472" stroke-linecap="square" stroke-linejoin="miter-clip" stroke-miterlimit="3" transform="translate(.65 1.1)"/></g><path d="M27.75 0q0 2-8.15 3.4Q11.5 4.9 0 4.9q-11.5 0-19.65-1.5-8.1-1.4-8.1-3.4 0-2.05 8.1-3.5Q-11.5-4.9 0-4.9q11.5 0 19.6 1.4 8.15 1.45 8.15 3.5" fill-opacity=".349" fill-rule="evenodd" transform="translate(27.75 4.9)" id="a"/><path d="m53 17.3.2.35q-4.45 2.85-8.9 4.6-8.35 3.1-17.05 3.3-8.85.25-16.95-2.7-3.15-1.3-6.4-3.45-4.85-3.2-3.65-9.3Q1.9 1.55 10.9 0 3.05 6.1 9.55 13.15q2.65 2.9 6.1 4.05l3.65 1.1q8.85 2.15 17.85 1.85l7.15-.7q4.4-.75 8.7-2.15" fill="#6fe6d6" fill-rule="evenodd" id="p"/><path d="M87.25 4.55q-8 10.85-28.3 17.4Q40.5 27.9 20.8 27.9q-9.25 0-13.65-1.4Q0 24.2 0 17.7q0-4.55 5.85-10.2Q11.5 2.05 18.95 0q-5.9 3-8.15 7.05-1.8 3.2-1.8 6.8 0 4.45 6.05 6.35 6.05 1.85 10.45 1.4l14.55-2.05q10.15-1.6 20.1-4.35Q70 12.4 87.25 4.55" fill="#6fe6d6" fill-rule="evenodd" id="q"/><path d="m39.15 2.35-7.25.55q-9.45.4-16.65 3.2Q8.05 8.9 0 14.65 4.85 6.9 13.35 3.05 18.95.5 25.05.1q7.4-.65 14.1 2.25" fill="#6fe6d6" fill-rule="evenodd" id="r"/><path d="M76.3 24.75q-7.55 11.3-21.65 17.95-14.15 6.6-28.75 9.15Q11.7 54.3 0 51.7l10.15-1.2q9.4-1.05 26.55-6.6 17.1-5.55 30.2-16Q81.05 16.65 88.15 0 83.8 13.4 76.3 24.75" fill="#b4b6da" fill-rule="evenodd" id="s"/><linearGradient gradientTransform="matrix(.0045 .0301 -.0182 .0027 73.8 84.65)" gradientUnits="userSpaceOnUse" id="N" spreadMethod="pad" x1="-819.2" x2="819.2"><stop offset="0" stop-color="#914eaa"/><stop offset="1" stop-color="#5f87bc"/></linearGradient><linearGradient gradientTransform="matrix(-.0065 .0187 .0113 .004 24.05 50.2)" gradientUnits="userSpaceOnUse" id="O" spreadMethod="pad" x1="-819.2" x2="819.2"><stop offset="0" stop-color="#914eaa"/><stop offset="1" stop-color="#5f87bc"/></linearGradient></defs></svg>